,note,step,duration,channel,velocity
0,64.0,0,64,10.0,22.0
1,45.0,0,64,12.0,22.0
2,52.0,0,64,12.0,22.0
3,57.0,0,64,10.0,22.0
4,52.0,0,64,12.0,22.0
5,45.0,0,64,12.0,22.0
6,64.0,80,64,10.0,22.0
7,57.0,0,64,10.0,22.0
8,52.0,80,64,12.0,22.0
9,45.0,0,64,12.0,22.0
10,64.0,0,64,10.0,22.0
11,57.0,0,64,10.0,22.0
12,64.0,0,64,10.0,22.0
13,57.0,80,64,10.0,22.0
14,45.0,0,64,12.0,22.0
15,52.0,0,64,12.0,22.0
16,52.0,0,64,12.0,22.0
17,57.0,80,64,10.0,22.0
18,64.0,0,64,10.0,22.0
19,45.0,0,64,12.0,22.0
20,45.0,0,64,12.0,22.0
21,64.0,0,64,10.0,22.0
22,57.0,80,64,10.0,22.0
23,52.0,0,64,12.0,22.0
24,57.0,0,64,10.0,22.0
25,45.0,0,64,12.0,22.0
26,52.0,80,64,12.0,22.0
27,64.0,0,64,10.0,22.0
28,64.0,0,64,10.0,22.0
29,57.0,0,64,10.0,22.0
30,45.0,80,64,12.0,22.0
31,52.0,0,64,12.0,22.0
32,52.0,80,64,12.0,22.0
33,45.0,0,64,12.0,22.0
34,57.0,0,64,10.0,22.0
35,64.0,0,64,10.0,22.0
36,57.0,0,64,10.0,22.0
37,64.0,0,64,10.0,22.0
38,52.0,0,64,12.0,22.0
39,45.0,80,64,12.0,22.0
40,57.0,0,64,10.0,22.0
41,64.0,80,64,10.0,22.0
42,52.0,0,64,12.0,22.0
43,45.0,0,64,12.0,22.0
44,45.0,0,64,12.0,22.0
45,52.0,0,64,12.0,22.0
46,64.0,80,64,10.0,22.0
47,57.0,0,64,10.0,22.0
48,52.0,80,64,12.0,22.0
49,45.0,0,64,12.0,22.0
50,64.0,0,64,10.0,22.0
51,57.0,0,64,10.0,22.0
52,57.0,80,64,10.0,22.0
53,64.0,0,64,10.0,22.0
54,52.0,0,64,12.0,22.0
55,45.0,0,64,12.0,22.0
56,45.0,80,64,12.0,22.0
57,64.0,0,64,10.0,22.0
58,57.0,0,64,10.0,22.0
59,52.0,0,64,12.0,22.0
60,45.0,80,64,12.0,22.0
61,52.0,0,64,12.0,22.0
62,64.0,0,64,10.0,22.0
63,57.0,0,64,10.0,22.0
64,45.0,0,64,12.0,22.0
65,64.0,80,64,10.0,22.0
66,57.0,0,64,10.0,22.0
67,52.0,0,64,12.0,22.0
68,57.0,80,64,10.0,22.0
69,52.0,0,64,12.0,22.0
70,45.0,0,64,12.0,22.0
71,64.0,0,64,10.0,22.0
72,45.0,0,64,12.0,22.0
73,64.0,0,64,10.0,22.0
74,52.0,0,64,12.0,22.0
75,57.0,80,64,10.0,22.0
76,52.0,0,64,12.0,22.0
77,45.0,80,64,12.0,22.0
78,57.0,0,64,10.0,22.0
79,64.0,0,64,10.0,22.0
80,57.0,0,64,10.0,22.0
81,64.0,0,64,10.0,22.0
82,45.0,0,64,12.0,22.0
83,52.0,80,64,12.0,22.0
84,45.0,0,64,12.0,22.0
85,57.0,80,64,10.0,22.0
86,64.0,0,64,10.0,22.0
87,52.0,0,64,12.0,22.0
88,45.0,80,64,12.0,22.0
89,64.0,0,64,10.0,22.0
90,52.0,0,64,12.0,22.0
91,57.0,0,64,10.0,22.0
92,57.0,0,64,10.0,22.0
93,64.0,80,64,10.0,22.0
94,52.0,0,64,12.0,22.0
95,45.0,0,64,12.0,22.0
96,76.0,20,48,8.0,25.0
97,52.0,0,64,12.0,22.0
98,45.0,0,64,12.0,22.0
99,64.0,60,64,10.0,22.0
100,57.0,0,64,10.0,22.0
101,64.0,80,64,10.0,22.0
102,57.0,0,64,10.0,22.0
103,52.0,0,64,12.0,22.0
104,45.0,0,64,12.0,22.0
105,45.0,0,64,12.0,22.0
106,52.0,0,64,12.0,22.0
107,64.0,80,64,10.0,22.0
108,57.0,0,64,10.0,22.0
109,45.0,0,64,12.0,22.0
110,52.0,80,64,12.0,22.0
111,57.0,0,64,10.0,22.0
112,64.0,0,64,10.0,22.0
113,69.0,0,384,8.0,25.0
114,57.0,0,64,10.0,22.0
115,64.0,0,64,10.0,22.0
116,45.0,80,64,12.0,22.0
117,52.0,0,64,12.0,22.0
118,52.0,0,64,12.0,22.0
119,45.0,0,64,12.0,22.0
120,57.0,0,64,10.0,22.0
121,64.0,80,64,10.0,22.0
122,64.0,0,64,10.0,22.0
123,57.0,0,64,10.0,22.0
124,52.0,80,64,12.0,22.0
125,45.0,0,64,12.0,22.0
126,57.0,0,64,10.0,22.0
127,45.0,0,64,12.0,22.0
128,52.0,80,64,12.0,22.0
129,64.0,0,64,10.0,22.0
130,64.0,0,64,10.0,22.0
131,57.0,80,64,10.0,22.0
132,45.0,0,64,12.0,22.0
133,52.0,0,64,12.0,22.0
134,57.0,80,64,10.0,22.0
135,52.0,0,64,12.0,22.0
136,64.0,0,64,10.0,22.0
137,45.0,0,64,12.0,22.0
138,52.0,0,64,12.0,22.0
139,45.0,0,64,12.0,22.0
140,64.0,80,64,10.0,22.0
141,57.0,0,64,10.0,22.0
142,45.0,0,64,12.0,22.0
143,52.0,0,64,12.0,22.0
144,64.0,80,64,10.0,22.0
145,57.0,0,64,10.0,22.0
146,69.0,20,48,8.0,25.0
147,64.0,0,64,10.0,22.0
148,52.0,0,64,12.0,22.0
149,45.0,0,64,12.0,22.0
150,57.0,60,64,10.0,22.0
151,57.0,0,64,10.0,22.0
152,64.0,0,64,10.0,22.0
153,52.0,0,64,12.0,22.0
154,45.0,80,64,12.0,22.0
155,52.0,0,64,12.0,22.0
156,45.0,80,64,12.0,22.0
157,64.0,0,64,10.0,22.0
158,57.0,0,64,10.0,22.0
159,64.0,0,64,10.0,22.0
160,52.0,0,64,12.0,22.0
161,45.0,80,64,12.0,22.0
162,57.0,0,64,10.0,22.0
163,52.0,0,64,12.0,22.0
164,45.0,80,64,12.0,22.0
165,64.0,0,64,10.0,22.0
166,57.0,0,64,10.0,22.0
167,64.0,0,384,8.0,25.0
168,64.0,0,64,10.0,22.0
169,57.0,0,64,10.0,22.0
170,45.0,80,64,12.0,22.0
171,52.0,0,64,12.0,22.0
172,57.0,0,64,10.0,22.0
173,64.0,0,64,10.0,22.0
174,45.0,0,64,12.0,22.0
175,52.0,80,64,12.0,22.0
176,57.0,0,64,10.0,22.0
177,64.0,80,64,10.0,22.0
178,45.0,0,64,12.0,22.0
179,52.0,0,64,12.0,22.0
180,57.0,0,64,10.0,22.0
181,45.0,80,64,12.0,22.0
182,64.0,0,64,10.0,22.0
183,52.0,0,64,12.0,22.0
184,57.0,80,64,10.0,22.0
185,45.0,0,64,12.0,22.0
186,52.0,0,64,12.0,22.0
187,64.0,0,64,10.0,22.0
188,64.0,0,64,10.0,22.0
189,45.0,0,64,12.0,22.0
190,57.0,0,64,10.0,22.0
191,52.0,80,64,12.0,22.0
192,64.0,0,64,10.0,22.0
193,52.0,0,64,12.0,22.0
194,45.0,80,64,12.0,22.0
195,57.0,0,64,10.0,22.0
196,64.0,0,48,11.0,35.0
197,40.0,20,48,13.0,30.0
198,64.0,0,64,10.0,22.0
199,57.0,0,64,10.0,22.0
200,45.0,60,64,12.0,22.0
201,52.0,0,64,12.0,22.0
202,45.0,0,64,12.0,22.0
203,52.0,80,64,12.0,22.0
204,64.0,0,64,10.0,22.0
205,57.0,0,64,10.0,22.0
206,52.0,0,64,12.0,22.0
207,45.0,80,64,12.0,22.0
208,64.0,0,64,10.0,22.0
209,57.0,0,64,10.0,22.0
210,64.0,80,64,10.0,22.0
211,57.0,0,64,10.0,22.0
212,52.0,0,64,12.0,22.0
213,45.0,0,64,12.0,22.0
214,64.0,0,64,10.0,22.0
215,57.0,0,384,11.0,35.0
216,33.0,0,384,13.0,30.0
217,45.0,80,64,12.0,22.0
218,52.0,0,64,12.0,22.0
219,57.0,0,64,10.0,22.0
220,57.0,80,64,10.0,22.0
221,64.0,0,64,10.0,22.0
222,52.0,0,64,12.0,22.0
223,45.0,0,64,12.0,22.0
224,52.0,0,64,12.0,22.0
225,57.0,0,64,10.0,22.0
226,64.0,80,64,10.0,22.0
227,45.0,0,64,12.0,22.0
228,57.0,80,64,10.0,22.0
229,64.0,0,64,10.0,22.0
230,45.0,0,64,12.0,22.0
231,52.0,0,64,12.0,22.0
232,64.0,0,64,10.0,22.0
233,57.0,80,64,10.0,22.0
234,45.0,0,64,12.0,22.0
235,52.0,0,64,12.0,22.0
236,52.0,80,64,12.0,22.0
237,57.0,0,64,10.0,22.0
238,45.0,0,64,12.0,22.0
239,64.0,0,64,10.0,22.0
240,64.0,0,64,10.0,22.0
241,52.0,0,64,12.0,22.0
242,45.0,0,64,12.0,22.0
243,57.0,80,64,10.0,22.0
244,57.0,80,64,10.0,22.0
245,64.0,0,64,10.0,22.0
246,52.0,0,64,12.0,22.0
247,45.0,0,64,12.0,22.0
248,57.0,0,64,10.0,22.0
249,64.0,0,64,10.0,22.0
250,52.0,0,64,12.0,22.0
251,45.0,80,64,12.0,22.0
252,45.0,0,64,12.0,22.0
253,52.0,0,64,12.0,22.0
254,57.0,0,64,10.0,22.0
255,64.0,80,64,10.0,22.0
256,64.0,80,64,10.0,22.0
257,52.0,0,64,12.0,22.0
258,57.0,0,64,10.0,22.0
259,45.0,0,64,12.0,22.0
260,52.0,0,64,12.0,22.0
261,64.0,0,64,10.0,22.0
262,57.0,80,64,10.0,22.0
263,45.0,0,64,12.0,22.0
264,52.0,0,64,12.0,22.0
265,45.0,0,64,12.0,22.0
266,64.0,80,64,10.0,22.0
267,57.0,0,64,10.0,22.0
268,57.0,0,64,10.0,22.0
269,52.0,0,64,12.0,22.0
270,45.0,80,64,12.0,22.0
271,64.0,0,64,10.0,22.0
272,57.0,0,64,10.0,22.0
273,64.0,0,64,10.0,22.0
274,45.0,0,64,12.0,22.0
275,52.0,80,64,12.0,22.0
276,45.0,0,64,12.0,22.0
277,52.0,80,64,12.0,22.0
278,64.0,0,64,10.0,22.0
279,57.0,0,64,10.0,22.0
280,57.0,0,64,10.0,22.0
281,64.0,0,64,10.0,22.0
282,45.0,80,64,12.0,22.0
283,52.0,0,64,12.0,22.0
284,52.0,0,64,12.0,22.0
285,45.0,80,64,12.0,22.0
286,57.0,0,64,10.0,22.0
287,64.0,0,64,10.0,22.0
288,64.0,0,64,10.0,22.0
289,45.0,80,64,12.0,22.0
290,52.0,0,64,12.0,22.0
291,57.0,0,64,10.0,22.0
292,45.0,80,64,12.0,22.0
293,52.0,0,64,12.0,22.0
294,57.0,0,64,10.0,22.0
295,64.0,0,64,10.0,22.0
296,81.0,20,48,8.0,25.0
297,64.0,60,64,10.0,22.0
298,57.0,0,64,10.0,22.0
299,52.0,0,64,12.0,22.0
300,45.0,0,64,12.0,22.0
301,52.0,0,64,12.0,22.0
302,64.0,0,64,10.0,22.0
303,57.0,80,64,10.0,22.0
304,45.0,0,64,12.0,22.0
305,57.0,0,64,10.0,22.0
306,52.0,0,64,12.0,22.0
307,64.0,80,64,10.0,22.0
308,45.0,0,64,12.0,22.0
309,64.0,0,64,10.0,22.0
310,57.0,0,64,10.0,22.0
311,52.0,0,64,12.0,22.0
312,45.0,80,64,12.0,22.0
313,57.0,0,64,10.0,22.0
314,52.0,0,64,12.0,22.0
315,45.0,80,64,12.0,22.0
316,64.0,0,64,10.0,22.0
317,76.0,0,384,8.0,25.0
318,64.0,80,64,10.0,22.0
319,57.0,0,64,10.0,22.0
320,52.0,0,64,12.0,22.0
321,45.0,0,64,12.0,22.0
322,64.0,0,64,10.0,22.0
323,57.0,0,64,10.0,22.0
324,45.0,80,64,12.0,22.0
325,52.0,0,64,12.0,22.0
326,52.0,0,64,12.0,22.0
327,45.0,0,64,12.0,22.0
328,64.0,0,64,10.0,22.0
329,57.0,80,64,10.0,22.0
330,57.0,0,64,10.0,22.0
331,64.0,0,64,10.0,22.0
332,52.0,80,64,12.0,22.0
333,45.0,0,64,12.0,22.0
334,52.0,0,64,12.0,22.0
335,45.0,0,64,12.0,22.0
336,57.0,80,64,10.0,22.0
337,64.0,0,64,10.0,22.0
338,57.0,0,64,10.0,22.0
339,64.0,80,64,10.0,22.0
340,52.0,0,64,12.0,22.0
341,45.0,0,64,12.0,22.0
342,57.0,0,64,10.0,22.0
343,52.0,0,64,12.0,22.0
344,45.0,80,64,12.0,22.0
345,64.0,0,64,10.0,22.0
346,76.0,20,48,8.0,25.0
347,57.0,0,64,10.0,22.0
348,45.0,0,64,12.0,22.0
349,52.0,0,64,12.0,22.0
350,64.0,0,64,10.0,22.0
351,57.0,0,64,10.0,22.0
352,45.0,0,64,12.0,22.0
353,52.0,0,64,12.0,22.0
354,64.0,80,64,10.0,22.0
355,45.0,0,64,12.0,22.0
356,52.0,80,64,12.0,22.0
357,57.0,0,64,10.0,22.0
358,64.0,0,64,10.0,22.0
359,57.0,0,64,10.0,22.0
360,64.0,0,64,10.0,22.0
361,45.0,80,64,12.0,22.0
362,52.0,0,64,12.0,22.0
363,52.0,0,64,12.0,22.0
364,45.0,0,64,12.0,22.0
365,57.0,0,64,10.0,22.0
366,64.0,80,64,10.0,22.0
367,69.0,60,384,8.0,25.0
368,57.0,80,64,10.0,22.0
369,52.0,0,64,12.0,22.0
370,45.0,0,64,12.0,22.0
371,64.0,0,64,10.0,22.0
372,64.0,0,64,10.0,22.0
373,57.0,80,64,10.0,22.0
374,45.0,0,64,12.0,22.0
375,52.0,0,64,12.0,22.0
376,57.0,0,64,10.0,22.0
377,64.0,80,64,10.0,22.0
378,45.0,0,64,12.0,22.0
379,52.0,0,64,12.0,22.0
380,45.0,0,64,12.0,22.0
381,52.0,80,64,12.0,22.0
382,64.0,0,64,10.0,22.0
383,57.0,0,64,10.0,22.0
384,45.0,0,64,12.0,22.0
385,57.0,80,64,10.0,22.0
386,64.0,0,64,10.0,22.0
387,52.0,0,64,12.0,22.0
388,52.0,0,64,12.0,22.0
389,57.0,80,64,10.0,22.0
390,45.0,0,64,12.0,22.0
391,64.0,0,64,10.0,22.0
392,64.0,0,64,10.0,22.0
393,57.0,0,64,10.0,22.0
394,45.0,80,64,12.0,22.0
395,52.0,0,64,12.0,22.0
396,64.0,20,48,11.0,35.0
397,40.0,0,48,13.0,30.0
398,45.0,0,64,12.0,22.0
399,52.0,0,64,12.0,22.0
400,64.0,0,64,10.0,22.0
401,57.0,60,64,10.0,22.0
402,45.0,0,64,12.0,22.0
403,64.0,0,64,10.0,22.0
404,57.0,0,64,10.0,22.0
405,52.0,80,64,12.0,22.0
406,57.0,80,64,10.0,22.0
407,64.0,0,64,10.0,22.0
408,52.0,0,64,12.0,22.0
409,45.0,0,64,12.0,22.0
410,45.0,0,64,12.0,22.0
411,52.0,0,64,12.0,22.0
412,64.0,80,64,10.0,22.0
413,57.0,0,64,10.0,22.0
414,57.0,0,64,10.0,22.0
415,64.0,0,64,10.0,22.0
416,33.0,0,384,13.0,30.0
417,52.0,80,64,12.0,22.0
418,45.0,0,64,12.0,22.0
419,57.0,0,384,11.0,35.0
420,45.0,0,64,12.0,22.0
421,57.0,0,64,10.0,22.0
422,64.0,0,64,10.0,22.0
423,52.0,80,64,12.0,22.0
424,52.0,0,64,12.0,22.0
425,45.0,0,64,12.0,22.0
426,64.0,0,64,10.0,22.0
427,57.0,80,64,10.0,22.0
428,64.0,0,64,10.0,22.0
429,52.0,0,64,12.0,22.0
430,57.0,80,64,10.0,22.0
431,45.0,0,64,12.0,22.0
432,45.0,80,64,12.0,22.0
433,52.0,0,64,12.0,22.0
434,57.0,0,64,10.0,22.0
435,64.0,0,64,10.0,22.0
436,52.0,0,64,12.0,22.0
437,45.0,0,64,12.0,22.0
438,57.0,0,64,10.0,22.0
439,64.0,80,64,10.0,22.0
440,57.0,0,64,10.0,22.0
441,64.0,0,64,10.0,22.0
442,45.0,0,64,12.0,22.0
443,52.0,80,64,12.0,22.0
444,64.0,0,64,10.0,22.0
445,57.0,0,64,10.0,22.0
446,45.0,0,64,12.0,22.0
447,52.0,80,64,12.0,22.0
448,45.0,80,64,12.0,22.0
449,52.0,0,64,12.0,22.0
450,64.0,0,64,10.0,22.0
451,57.0,0,64,10.0,22.0
452,45.0,80,64,12.0,22.0
453,52.0,0,64,12.0,22.0
454,57.0,0,64,10.0,22.0
455,64.0,0,64,10.0,22.0
456,64.0,0,64,10.0,22.0
457,45.0,0,64,12.0,22.0
458,52.0,0,64,12.0,22.0
459,57.0,80,64,10.0,22.0
460,45.0,0,64,12.0,22.0
461,52.0,0,64,12.0,22.0
462,57.0,80,64,10.0,22.0
463,64.0,0,64,10.0,22.0
464,52.0,80,64,12.0,22.0
465,64.0,0,64,10.0,22.0
466,57.0,0,64,10.0,22.0
467,45.0,0,64,12.0,22.0
468,57.0,0,64,10.0,22.0
469,64.0,0,64,10.0,22.0
470,52.0,0,64,12.0,22.0
471,45.0,80,64,12.0,22.0
472,57.0,0,64,10.0,22.0
473,64.0,80,64,10.0,22.0
474,52.0,0,64,12.0,22.0
475,45.0,0,64,12.0,22.0
476,45.0,0,64,12.0,22.0
477,52.0,80,64,12.0,22.0
478,64.0,0,64,10.0,22.0
479,57.0,0,64,10.0,22.0
480,52.0,80,64,12.0,22.0
481,64.0,0,64,10.0,22.0
482,45.0,0,64,12.0,22.0
483,57.0,0,64,10.0,22.0
484,52.0,80,64,12.0,22.0
485,57.0,0,64,10.0,22.0
486,64.0,0,64,10.0,22.0
487,45.0,0,64,12.0,22.0
488,57.0,80,64,10.0,22.0
489,52.0,0,64,12.0,22.0
490,45.0,0,64,12.0,22.0
491,64.0,0,64,10.0,22.0
492,45.0,0,64,12.0,22.0
493,52.0,0,64,12.0,22.0
494,64.0,0,64,10.0,22.0
495,57.0,80,64,10.0,22.0
496,57.0,0,64,10.0,22.0
497,64.0,80,64,10.0,22.0
498,45.0,0,64,12.0,22.0
499,52.0,0,64,12.0,22.0
500,45.0,0,64,12.0,22.0
501,52.0,0,64,12.0,22.0
502,64.0,0,64,10.0,22.0
503,57.0,80,64,10.0,22.0
504,57.0,80,64,10.0,22.0
505,64.0,0,64,10.0,22.0
506,52.0,0,64,12.0,22.0
507,45.0,0,64,12.0,22.0
508,45.0,0,64,12.0,22.0
509,52.0,0,64,12.0,22.0
510,57.0,0,64,10.0,22.0
511,64.0,80,64,10.0,22.0
512,57.0,80,64,10.0,22.0
513,64.0,0,64,10.0,22.0
514,52.0,0,64,12.0,22.0
515,45.0,0,64,12.0,22.0
516,64.0,80,64,10.0,22.0
517,57.0,0,64,10.0,22.0
518,45.0,0,64,12.0,22.0
519,52.0,0,64,12.0,22.0
520,81.0,20,48,8.0,25.0
521,45.0,0,64,12.0,22.0
522,52.0,0,64,12.0,22.0
523,57.0,0,64,10.0,22.0
524,64.0,60,64,10.0,22.0
525,64.0,0,64,10.0,22.0
526,57.0,0,64,10.0,22.0
527,52.0,80,64,12.0,22.0
528,45.0,0,64,12.0,22.0
529,64.0,0,64,10.0,22.0
530,45.0,0,64,12.0,22.0
531,52.0,80,64,12.0,22.0
532,57.0,0,64,10.0,22.0
533,76.0,0,226,8.0,25.0
534,52.0,0,64,12.0,22.0
535,45.0,80,64,12.0,22.0
536,64.0,0,64,10.0,22.0
537,57.0,0,64,10.0,22.0
538,57.0,0,64,10.0,22.0
539,64.0,80,64,10.0,22.0
540,52.0,0,64,12.0,22.0
541,45.0,0,64,12.0,22.0
542,45.0,0,64,12.0,22.0
543,64.0,0,64,10.0,22.0
544,57.0,80,64,10.0,22.0
545,52.0,0,64,12.0,22.0
546,76.0,20,48,8.0,25.0
547,57.0,0,64,10.0,22.0
548,64.0,0,64,10.0,22.0
549,52.0,0,64,12.0,22.0
550,45.0,60,64,12.0,22.0
551,57.0,0,64,10.0,22.0
552,64.0,80,64,10.0,22.0
553,52.0,0,64,12.0,22.0
554,45.0,0,64,12.0,22.0
555,64.0,0,64,10.0,22.0
556,57.0,0,64,10.0,22.0
557,45.0,0,64,12.0,22.0
558,52.0,80,64,12.0,22.0
559,69.0,0,226,8.0,25.0
560,64.0,80,64,10.0,22.0
561,57.0,0,64,10.0,22.0
562,52.0,0,64,12.0,22.0
563,45.0,0,64,12.0,22.0
564,52.0,0,64,12.0,22.0
565,45.0,0,64,12.0,22.0
566,64.0,0,64,10.0,22.0
567,57.0,80,64,10.0,22.0
568,45.0,80,64,12.0,22.0
569,52.0,0,64,12.0,22.0
570,57.0,0,64,10.0,22.0
571,64.0,0,64,10.0,22.0
572,69.0,20,48,8.0,25.0
573,64.0,0,64,10.0,22.0
574,57.0,0,64,10.0,22.0
575,45.0,0,64,12.0,22.0
576,52.0,0,64,12.0,22.0
577,45.0,0,64,12.0,22.0
578,64.0,0,64,10.0,22.0
579,57.0,0,64,10.0,22.0
580,52.0,80,64,12.0,22.0
581,45.0,0,64,12.0,22.0
582,52.0,0,64,12.0,22.0
583,57.0,0,64,10.0,22.0
584,64.0,80,64,10.0,22.0
585,64.0,60,226,8.0,25.0
586,45.0,0,64,12.0,22.0
587,52.0,80,64,12.0,22.0
588,57.0,0,64,10.0,22.0
589,64.0,0,64,10.0,22.0
590,45.0,0,64,12.0,22.0
591,52.0,0,64,12.0,22.0
592,57.0,0,64,10.0,22.0
593,64.0,80,64,10.0,22.0
594,52.0,0,64,12.0,22.0
595,45.0,0,64,12.0,22.0
596,57.0,0,64,10.0,22.0
597,64.0,80,64,10.0,22.0
598,64.0,0,48,11.0,35.0
599,40.0,20,48,13.0,35.0
600,45.0,0,64,12.0,19.0
601,52.0,0,64,12.0,19.0
602,57.0,0,64,10.0,19.0
603,64.0,0,64,10.0,19.0
604,57.0,0,64,10.0,20.0
605,45.0,80,64,12.0,20.0
606,52.0,0,64,12.0,20.0
607,64.0,0,64,10.0,20.0
608,81.0,40,60,8.0,29.0
609,64.0,0,64,10.0,21.0
610,57.0,0,64,10.0,21.0
611,52.0,40,64,12.0,21.0
612,45.0,0,64,12.0,21.0
613,45.0,0,64,12.0,22.0
614,52.0,0,64,12.0,22.0
615,64.0,0,64,10.0,22.0
616,57.0,80,64,10.0,22.0
617,81.0,0,120,8.0,31.0
618,57.0,60,384,11.0,35.0
619,57.0,0,64,10.0,24.0
620,64.0,80,64,10.0,24.0
621,45.0,0,64,12.0,24.0
622,52.0,0,64,12.0,24.0
623,33.0,0,384,13.0,35.0
624,76.0,40,60,8.0,34.0
625,45.0,40,64,12.0,25.0
626,52.0,0,64,12.0,25.0
627,57.0,0,64,10.0,25.0
628,64.0,0,64,10.0,25.0
629,52.0,80,64,12.0,26.0
630,45.0,0,64,12.0,26.0
631,64.0,0,64,10.0,26.0
632,57.0,0,64,10.0,26.0
633,45.0,0,64,12.0,27.0
634,57.0,0,64,10.0,27.0
635,64.0,0,64,10.0,27.0
636,52.0,80,64,12.0,27.0
637,76.0,40,60,8.0,40.0
638,57.0,0,64,10.0,29.0
639,52.0,0,64,12.0,29.0
640,64.0,0,64,10.0,29.0
641,45.0,40,64,12.0,29.0
642,57.0,0,64,10.0,29.0
643,52.0,80,64,12.0,29.0
644,64.0,0,64,10.0,29.0
645,45.0,0,64,12.0,29.0
646,76.0,0,120,8.0,42.0
647,52.0,80,64,12.0,30.0
648,64.0,0,64,10.0,30.0
649,57.0,0,64,10.0,30.0
650,45.0,0,64,12.0,30.0
651,69.0,40,60,8.0,45.0
652,64.0,0,64,10.0,32.0
653,52.0,0,64,12.0,32.0
654,45.0,40,64,12.0,32.0
655,57.0,0,64,10.0,32.0
656,64.0,0,64,10.0,33.0
657,45.0,80,64,12.0,33.0
658,52.0,0,64,12.0,33.0
659,57.0,0,64,10.0,33.0
660,57.0,0,64,10.0,34.0
661,52.0,80,64,12.0,34.0
662,45.0,0,64,12.0,34.0
663,64.0,0,64,10.0,34.0
664,69.0,40,60,8.0,50.0
665,64.0,0,64,10.0,35.0
666,57.0,40,64,10.0,35.0
667,52.0,0,64,12.0,35.0
668,45.0,0,64,12.0,35.0
669,64.0,80,64,10.0,37.0
670,57.0,0,64,10.0,37.0
671,45.0,0,64,12.0,37.0
672,52.0,0,64,12.0,37.0
673,69.0,0,120,8.0,53.0
674,52.0,0,64,12.0,38.0
675,45.0,80,64,12.0,38.0
676,64.0,0,64,10.0,38.0
677,57.0,0,64,10.0,38.0
678,64.0,40,60,8.0,55.0
679,81.0,0,3330,0.0,22.0
680,57.0,0,12930,4.0,22.0
681,64.0,0,12930,4.0,22.0
682,76.0,0,5250,1.0,18.0
683,52.0,0,64,12.0,39.0
684,45.0,0,64,12.0,39.0
685,64.0,40,64,10.0,39.0
686,57.0,0,64,10.0,39.0
687,57.0,80,64,10.0,40.0
688,45.0,0,64,12.0,40.0
689,52.0,0,64,12.0,40.0
690,64.0,0,64,10.0,40.0
691,57.0,0,64,10.0,42.0
692,64.0,80,64,10.0,42.0
693,45.0,0,64,12.0,42.0
694,52.0,0,64,12.0,42.0
695,40.0,40,60,13.0,49.0
696,64.0,0,60,11.0,49.0
697,64.0,0,64,10.0,43.0
698,57.0,40,64,10.0,43.0
699,52.0,0,64,12.0,43.0
700,45.0,0,64,12.0,43.0
701,57.0,0,64,10.0,44.0
702,57.0,0,64,12.0,44.0
703,69.0,0,64,10.0,44.0
704,45.0,0,64,12.0,44.0
705,64.0,0,120,11.0,58.0
706,40.0,0,120,13.0,58.0
707,57.0,0,64,12.0,45.0
708,45.0,0,64,12.0,45.0
709,57.0,80,64,10.0,45.0
710,69.0,0,64,10.0,45.0
711,33.0,40,60,13.0,66.0
712,57.0,0,60,11.0,66.0
713,57.0,0,64,12.0,47.0
714,69.0,40,64,10.0,47.0
715,57.0,0,64,10.0,47.0
716,45.0,0,64,12.0,47.0
717,57.0,0,64,10.0,36.0
718,69.0,0,64,10.0,36.0
719,57.0,0,64,12.0,43.0
720,45.0,80,64,12.0,43.0
721,57.0,0,64,12.0,43.0
722,57.0,0,64,10.0,36.0
723,69.0,0,64,10.0,36.0
724,45.0,80,64,12.0,43.0
725,81.0,40,60,8.0,32.0
726,45.0,0,1152,3.0,19.0
727,69.0,0,64,10.0,36.0
728,45.0,0,64,12.0,43.0
729,57.0,0,64,10.0,36.0
730,57.0,40,64,12.0,43.0
731,45.0,0,64,12.0,43.0
732,69.0,0,64,10.0,36.0
733,57.0,0,64,10.0,36.0
734,57.0,80,64,12.0,43.0
735,81.0,0,120,8.0,35.0
736,57.0,0,64,10.0,36.0
737,45.0,0,64,12.0,43.0
738,69.0,80,64,10.0,36.0
739,57.0,0,64,12.0,43.0
740,69.0,40,60,8.0,37.0
741,57.0,0,64,12.0,43.0
742,45.0,40,64,12.0,43.0
743,57.0,0,64,10.0,36.0
744,69.0,0,64,10.0,36.0
745,57.0,80,64,12.0,43.0
746,45.0,0,64,12.0,43.0
747,57.0,0,64,10.0,36.0
748,69.0,0,64,10.0,36.0
749,69.0,0,120,8.0,39.0
750,69.0,0,64,10.0,36.0
751,45.0,80,64,12.0,43.0
752,57.0,0,64,10.0,36.0
753,57.0,0,64,12.0,43.0
754,57.0,40,60,8.0,41.0
755,69.0,0,60,11.0,41.0
756,57.0,0,64,12.0,43.0
757,45.0,40,64,12.0,43.0
758,69.0,0,64,10.0,36.0
759,57.0,0,64,10.0,36.0
760,57.0,80,64,12.0,43.0
761,45.0,0,64,12.0,43.0
762,57.0,0,64,10.0,36.0
763,69.0,0,64,10.0,36.0
764,69.0,0,120,11.0,48.0
765,57.0,0,120,8.0,44.0
766,69.0,0,64,10.0,36.0
767,57.0,0,64,10.0,36.0
768,45.0,80,64,12.0,43.0
769,57.0,0,64,12.0,43.0
770,69.0,40,60,8.0,46.0
771,57.0,0,60,11.0,55.0
772,69.0,0,64,10.0,36.0
773,45.0,0,64,12.0,43.0
774,57.0,0,64,12.0,43.0
775,57.0,40,64,10.0,36.0
776,69.0,0,64,10.0,30.0
777,57.0,0,64,10.0,30.0
778,57.0,80,64,12.0,30.0
779,45.0,0,64,12.0,30.0
780,57.0,0,120,11.0,46.0
781,69.0,0,120,8.0,46.0
782,69.0,0,64,10.0,30.0
783,57.0,80,64,12.0,30.0
784,45.0,0,64,12.0,30.0
785,57.0,0,64,10.0,30.0
786,69.0,0,60,11.0,47.0
787,81.0,40,60,8.0,47.0
788,57.0,0,64,12.0,30.0
789,45.0,0,64,12.0,30.0
790,69.0,40,64,10.0,30.0
791,57.0,0,64,10.0,30.0
792,57.0,80,64,12.0,35.0
793,69.0,0,64,10.0,35.0
794,57.0,0,64,10.0,35.0
795,45.0,0,64,12.0,35.0
796,69.0,0,120,11.0,59.0
797,81.0,0,120,8.0,59.0
798,57.0,0,64,10.0,35.0
799,69.0,0,64,10.0,35.0
800,57.0,80,64,12.0,35.0
801,45.0,0,64,12.0,35.0
802,69.0,0,60,8.0,62.0
803,57.0,40,60,11.0,62.0
804,69.0,0,64,10.0,42.0
805,57.0,40,64,10.0,42.0
806,45.0,0,64,12.0,42.0
807,57.0,0,64,12.0,42.0
808,57.0,0,64,12.0,42.0
809,57.0,0,64,10.0,42.0
810,69.0,80,64,10.0,42.0
811,45.0,0,64,12.0,42.0
812,69.0,0,120,8.0,77.0
813,57.0,0,120,11.0,77.0
814,57.0,80,64,10.0,42.0
815,45.0,0,64,12.0,42.0
816,57.0,0,64,12.0,42.0
817,69.0,0,64,10.0,42.0
818,81.0,0,60,8.0,81.0
819,69.0,40,60,11.0,81.0
820,57.0,0,64,10.0,42.0
821,69.0,0,64,10.0,42.0
822,57.0,0,64,12.0,42.0
823,45.0,40,64,12.0,42.0
824,69.0,0,60,8.0,81.0
825,57.0,0,60,11.0,81.0
826,45.0,0,2016,4.0,38.0
827,69.0,0,2016,4.0,38.0
828,38.0,0,1536,3.0,57.0
829,62.0,0,1536,4.0,48.0
830,50.0,0,1536,4.0,48.0
831,81.0,0,2034,1.0,29.0
832,69.0,0,2034,1.0,29.0
833,57.0,80,114,10.0,42.0
834,69.0,0,114,10.0,42.0
835,81.0,0,2034,0.0,29.0
836,57.0,0,114,12.0,42.0
837,45.0,0,114,12.0,42.0
838,93.0,80,2034,0.0,29.0
839,69.0,0,2034,2.0,29.0
840,57.0,0,2034,2.0,29.0
841,62.0,0,48,5.0,76.0
842,74.0,0,48,4.0,86.0
843,62.0,0,48,4.0,114.0
844,74.0,0,48,5.0,76.0
845,86.0,0,48,1.0,48.0
846,50.0,0,48,13.0,114.0
847,50.0,0,48,6.0,114.0
848,62.0,0,48,12.0,114.0
849,62.0,0,48,3.0,48.0
850,50.0,0,48,4.0,114.0
851,86.0,0,48,2.0,48.0
852,86.0,0,48,0.0,48.0
853,86.0,0,48,8.0,114.0
854,74.0,420,48,11.0,114.0
855,45.0,0,48,6.0,114.0
856,45.0,60,48,6.0,114.0
857,45.0,60,48,6.0,114.0
858,45.0,60,48,6.0,114.0
859,45.0,60,48,6.0,114.0
860,45.0,60,48,6.0,114.0
861,45.0,60,48,6.0,114.0
862,45.0,60,48,6.0,114.0
863,45.0,60,48,6.0,114.0
864,45.0,60,48,6.0,114.0
865,45.0,60,48,6.0,114.0
866,45.0,60,48,6.0,114.0
867,45.0,60,48,6.0,114.0
868,74.0,0,778,5.0,114.0
869,69.0,0,778,11.0,114.0
870,57.0,0,778,3.0,48.0
871,62.0,0,778,5.0,114.0
872,81.0,0,778,0.0,48.0
873,81.0,60,778,1.0,48.0
874,50.0,0,778,4.0,114.0
875,81.0,0,778,2.0,48.0
876,81.0,0,778,8.0,114.0
877,45.0,0,778,13.0,114.0
878,57.0,0,778,12.0,114.0
879,57.0,0,778,4.0,86.0
880,69.0,0,778,4.0,86.0
881,62.0,0,778,4.0,114.0
882,65.0,0,48,4.0,86.0
883,77.0,0,48,1.0,38.0
884,53.0,0,48,12.0,91.0
885,77.0,0,48,2.0,38.0
886,77.0,0,48,8.0,91.0
887,53.0,0,48,4.0,86.0
888,65.0,0,48,11.0,91.0
889,62.0,0,48,5.0,114.0
890,74.0,0,48,5.0,114.0
891,77.0,0,48,0.0,38.0
892,50.0,0,48,6.0,114.0
893,41.0,0,48,13.0,91.0
894,53.0,0,48,3.0,38.0
895,62.0,0,48,4.0,114.0
896,50.0,180,48,4.0,114.0
897,74.0,0,336,5.0,114.0
898,86.0,0,336,0.0,48.0
899,50.0,0,336,3.0,48.0
900,74.0,0,336,2.0,48.0
901,50.0,0,336,6.0,114.0
902,50.0,0,336,12.0,114.0
903,74.0,0,336,8.0,114.0
904,62.0,60,336,5.0,114.0
905,50.0,0,336,4.0,114.0
906,62.0,0,336,4.0,114.0
907,62.0,0,336,11.0,114.0
908,74.0,0,336,1.0,48.0
909,38.0,0,336,13.0,114.0
910,50.0,0,48,4.0,114.0
911,69.0,0,48,2.0,48.0
912,81.0,0,48,2.0,48.0
913,69.0,0,48,8.0,114.0
914,57.0,0,48,11.0,114.0
915,57.0,0,48,4.0,114.0
916,69.0,0,48,1.0,48.0
917,81.0,420,48,1.0,48.0
918,45.0,0,48,3.0,48.0
919,74.0,0,48,5.0,114.0
920,81.0,0,48,0.0,48.0
921,45.0,0,48,12.0,114.0
922,45.0,0,48,4.0,114.0
923,62.0,0,48,5.0,114.0
924,62.0,0,48,4.0,114.0
925,50.0,0,48,6.0,114.0
926,33.0,0,48,13.0,114.0
927,77.0,0,288,0.0,48.0
928,62.0,0,288,5.0,114.0
929,74.0,60,288,5.0,114.0
930,65.0,0,288,2.0,48.0
931,65.0,0,288,8.0,114.0
932,29.0,0,288,13.0,114.0
933,53.0,0,288,4.0,114.0
934,65.0,0,288,4.0,114.0
935,62.0,0,288,4.0,114.0
936,41.0,0,288,3.0,48.0
937,50.0,0,288,4.0,114.0
938,53.0,0,288,11.0,114.0
939,77.0,0,288,1.0,48.0
940,65.0,0,288,1.0,48.0
941,41.0,0,288,12.0,114.0
942,50.0,0,288,6.0,114.0
943,77.0,0,288,2.0,48.0
944,57.0,0,48,4.0,97.0
945,45.0,0,48,3.0,41.0
946,50.0,0,48,4.0,97.0
947,57.0,0,48,11.0,97.0
948,81.0,0,48,1.0,41.0
949,69.0,0,48,1.0,41.0
950,69.0,0,48,8.0,97.0
951,62.0,0,48,4.0,97.0
952,50.0,0,48,6.0,91.0
953,81.0,0,48,2.0,41.0
954,69.0,0,48,4.0,97.0
955,45.0,360,48,12.0,97.0
956,74.0,0,48,5.0,78.0
957,62.0,0,48,5.0,78.0
958,81.0,0,48,0.0,41.0
959,69.0,0,48,2.0,41.0
960,33.0,0,48,13.0,97.0
961,62.0,0,48,5.0,78.0
962,74.0,0,48,5.0,78.0
963,77.0,0,48,2.0,41.0
964,65.0,60,48,2.0,41.0
965,50.0,0,48,6.0,91.0
966,53.0,0,48,11.0,97.0
967,29.0,0,48,13.0,97.0
968,50.0,0,48,4.0,97.0
969,62.0,0,48,4.0,97.0
970,41.0,0,48,3.0,41.0
971,41.0,0,48,12.0,97.0
972,65.0,0,48,4.0,97.0
973,53.0,0,48,4.0,97.0
974,77.0,0,48,1.0,41.0
975,77.0,0,48,0.0,41.0
976,65.0,0,48,1.0,41.0
977,65.0,0,48,8.0,97.0
978,50.0,0,450,4.0,114.0
979,74.0,0,450,2.0,48.0
980,50.0,0,450,6.0,114.0
981,74.0,0,534,5.0,114.0
982,62.0,60,534,5.0,114.0
983,74.0,0,576,0.0,48.0
984,50.0,0,576,11.0,121.0
985,62.0,0,576,2.0,48.0
986,26.0,0,576,13.0,121.0
987,38.0,0,576,3.0,65.0
988,62.0,0,576,4.0,114.0
989,62.0,0,576,8.0,121.0
990,38.0,0,576,12.0,121.0
991,62.0,0,576,1.0,48.0
992,74.0,0,54,5.0,76.0
993,62.0,0,54,5.0,76.0
994,65.0,0,60,4.0,65.0
995,53.0,0,60,3.0,65.0
996,41.0,0,60,13.0,114.0
997,65.0,0,60,1.0,65.0
998,77.0,0,60,1.0,65.0
999,65.0,600,60,11.0,114.0
1000,77.0,0,60,8.0,114.0
1001,53.0,0,60,12.0,114.0
1002,77.0,0,60,2.0,65.0
1003,65.0,0,60,2.0,65.0
1004,89.0,0,60,0.0,65.0
1005,50.0,0,96,6.0,106.0
1006,74.0,0,54,5.0,76.0
1007,62.0,0,54,5.0,76.0
1008,76.0,0,60,2.0,65.0
1009,76.0,0,60,1.0,65.0
1010,64.0,0,60,1.0,65.0
1011,64.0,0,60,2.0,65.0
1012,40.0,0,60,13.0,114.0
1013,64.0,120,60,11.0,114.0
1014,64.0,0,60,4.0,65.0
1015,52.0,0,60,12.0,114.0
1016,52.0,0,60,3.0,65.0
1017,88.0,0,60,0.0,65.0
1018,76.0,0,60,8.0,114.0
1019,50.0,0,96,6.0,106.0
1020,62.0,0,54,5.0,76.0
1021,74.0,0,54,5.0,76.0
1022,62.0,120,60,4.0,65.0
1023,62.0,0,60,11.0,114.0
1024,50.0,0,60,12.0,114.0
1025,50.0,0,60,3.0,65.0
1026,38.0,0,60,13.0,114.0
1027,74.0,0,60,1.0,65.0
1028,62.0,0,60,1.0,65.0
1029,86.0,0,60,0.0,65.0
1030,74.0,0,60,2.0,65.0
1031,74.0,0,60,8.0,114.0
1032,62.0,0,60,2.0,65.0
1033,50.0,0,96,6.0,106.0
1034,45.0,0,96,3.0,65.0
1035,57.0,0,96,3.0,65.0
1036,69.0,0,96,2.0,65.0
1037,45.0,0,96,13.0,114.0
1038,81.0,0,96,8.0,114.0
1039,81.0,0,96,2.0,65.0
1040,69.0,120,96,4.0,65.0
1041,69.0,0,96,1.0,65.0
1042,81.0,0,96,1.0,65.0
1043,69.0,0,96,11.0,114.0
1044,93.0,0,96,0.0,65.0
1045,57.0,0,96,12.0,114.0
1046,69.0,0,108,5.0,76.0
1047,57.0,0,108,5.0,76.0
1048,45.0,0,192,6.0,106.0
1049,79.0,0,96,1.0,65.0
1050,67.0,0,96,1.0,65.0
1051,67.0,0,96,11.0,114.0
1052,55.0,0,96,3.0,65.0
1053,43.0,0,96,13.0,114.0
1054,91.0,0,96,0.0,65.0
1055,43.0,0,96,3.0,65.0
1056,67.0,0,96,2.0,65.0
1057,79.0,0,96,8.0,114.0
1058,67.0,0,96,4.0,65.0
1059,79.0,0,96,2.0,65.0
1060,55.0,0,96,12.0,114.0
1061,69.0,0,108,5.0,76.0
1062,57.0,0,108,5.0,76.0
1063,45.0,240,192,6.0,106.0
1064,76.0,0,96,2.0,65.0
1065,64.0,0,96,1.0,65.0
1066,76.0,0,96,1.0,65.0
1067,52.0,0,96,3.0,65.0
1068,64.0,0,96,2.0,65.0
1069,64.0,0,96,4.0,65.0
1070,52.0,0,96,12.0,114.0
1071,76.0,0,96,8.0,114.0
1072,88.0,0,96,0.0,65.0
1073,64.0,0,96,11.0,114.0
1074,40.0,0,96,3.0,65.0
1075,40.0,0,96,13.0,114.0
1076,57.0,0,108,5.0,76.0
1077,69.0,240,108,5.0,76.0
1078,45.0,0,192,6.0,106.0
1079,57.0,0,96,12.0,114.0
1080,69.0,0,96,4.0,65.0
1081,81.0,0,96,1.0,65.0
1082,69.0,0,96,2.0,65.0
1083,81.0,0,96,2.0,65.0
1084,69.0,0,96,1.0,65.0
1085,81.0,0,96,8.0,114.0
1086,93.0,0,96,0.0,65.0
1087,45.0,0,96,3.0,65.0
1088,57.0,0,96,3.0,65.0
1089,45.0,0,96,13.0,114.0
1090,69.0,0,96,11.0,114.0
1091,69.0,0,108,5.0,76.0
1092,57.0,240,108,5.0,76.0
1093,45.0,0,192,6.0,106.0
1094,62.0,0,108,5.0,76.0
1095,74.0,0,108,5.0,76.0
1096,50.0,0,192,6.0,106.0
1097,50.0,0,288,13.0,114.0
1098,86.0,0,288,0.0,65.0
1099,74.0,0,288,2.0,65.0
1100,62.0,0,288,2.0,65.0
1101,74.0,0,288,8.0,114.0
1102,50.0,0,288,3.0,65.0
1103,50.0,0,288,4.0,65.0
1104,62.0,0,288,4.0,65.0
1105,74.0,0,288,1.0,65.0
1106,62.0,0,288,1.0,65.0
1107,62.0,0,288,11.0,114.0
1108,62.0,0,288,3.0,65.0
1109,62.0,0,288,10.0,114.0
1110,62.0,240,288,12.0,114.0
1111,57.0,480,108,5.0,76.0
1112,69.0,0,108,5.0,76.0
1113,45.0,0,192,6.0,106.0
1114,76.0,0,288,8.0,114.0
1115,69.0,0,288,8.0,114.0
1116,57.0,0,288,11.0,114.0
1117,61.0,0,288,2.0,65.0
1118,61.0,0,288,10.0,114.0
1119,64.0,0,288,10.0,114.0
1120,57.0,0,288,3.0,65.0
1121,64.0,0,288,2.0,65.0
1122,45.0,0,288,3.0,65.0
1123,69.0,0,288,11.0,114.0
1124,64.0,0,288,4.0,65.0
1125,57.0,0,288,4.0,65.0
1126,57.0,0,288,12.0,114.0
1127,76.0,0,288,1.0,65.0
1128,73.0,0,288,1.0,65.0
1129,45.0,0,288,13.0,114.0
1130,88.0,0,288,0.0,65.0
1131,85.0,0,288,0.0,65.0
1132,74.0,0,108,5.0,76.0
1133,62.0,0,108,5.0,76.0
1134,50.0,0,192,6.0,106.0
1135,86.0,0,288,0.0,65.0
1136,50.0,0,288,12.0,114.0
1137,69.0,0,288,10.0,114.0
1138,65.0,0,288,2.0,65.0
1139,50.0,0,288,11.0,114.0
1140,62.0,0,288,11.0,114.0
1141,69.0,0,288,8.0,114.0
1142,74.0,0,288,1.0,65.0
1143,77.0,0,288,1.0,65.0
1144,89.0,0,288,0.0,65.0
1145,77.0,0,288,8.0,114.0
1146,38.0,0,288,13.0,114.0
1147,62.0,480,288,2.0,65.0
1148,50.0,0,288,3.0,65.0
1149,50.0,0,288,4.0,65.0
1150,62.0,0,288,10.0,114.0
1151,38.0,0,288,3.0,65.0
1152,62.0,0,288,4.0,65.0
1153,62.0,0,108,5.0,76.0
1154,74.0,0,108,5.0,76.0
1155,50.0,0,192,6.0,106.0
1156,43.0,0,288,13.0,114.0
1157,79.0,0,288,1.0,65.0
1158,91.0,0,288,0.0,65.0
1159,58.0,0,288,2.0,65.0
1160,50.0,0,288,4.0,65.0
1161,67.0,0,288,10.0,114.0
1162,55.0,0,288,3.0,65.0
1163,62.0,0,288,10.0,114.0
1164,62.0,0,288,4.0,65.0
1165,79.0,960,288,8.0,114.0
1166,70.0,0,288,8.0,114.0
1167,55.0,0,288,11.0,114.0
1168,67.0,0,288,2.0,65.0
1169,67.0,0,288,11.0,114.0
1170,55.0,0,288,12.0,114.0
1171,67.0,0,288,3.0,65.0
1172,70.0,0,288,1.0,65.0
1173,74.0,0,108,5.0,76.0
1174,62.0,0,108,5.0,76.0
1175,50.0,0,192,6.0,106.0
1176,74.0,0,288,8.0,114.0
1177,62.0,0,288,11.0,114.0
1178,62.0,0,288,4.0,65.0
1179,50.0,0,288,4.0,65.0
1180,66.0,0,288,2.0,65.0
1181,69.0,0,288,2.0,65.0
1182,81.0,0,288,8.0,114.0
1183,54.0,0,288,3.0,65.0
1184,38.0,0,288,13.0,114.0
1185,66.0,0,288,10.0,114.0
1186,69.0,0,288,10.0,114.0
1187,74.0,0,288,11.0,114.0
1188,93.0,0,288,0.0,65.0
1189,90.0,0,288,0.0,65.0
1190,50.0,0,288,12.0,114.0
1191,81.0,0,288,1.0,65.0
1192,57.0,480,288,3.0,65.0
1193,78.0,0,288,1.0,65.0
1194,79.0,0,108,5.0,76.0
1195,62.0,0,108,5.0,76.0
1196,50.0,0,192,6.0,106.0
1197,67.0,480,226,11.0,114.0
1198,55.0,0,226,11.0,114.0
1199,31.0,0,226,13.0,114.0
1200,43.0,0,226,12.0,114.0
1201,79.0,0,450,0.0,65.0
1202,82.0,0,450,0.0,65.0
1203,55.0,0,1410,3.0,65.0
1204,58.0,0,1410,3.0,65.0
1205,82.0,0,1608,8.0,114.0
1206,57.0,1200,108,3.0,90.0
1207,81.0,0,108,8.0,121.0
1208,39.0,240,1788,13.0,114.0
1209,51.0,0,1788,12.0,114.0
1210,55.0,0,1788,11.0,114.0
1211,67.0,0,1788,11.0,114.0
1212,55.0,0,108,3.0,90.0
1213,70.0,0,2028,10.0,114.0
1214,79.0,240,108,8.0,121.0
1215,79.0,0,2028,10.0,114.0
1216,67.0,0,2112,4.0,65.0
1217,67.0,0,2146,2.0,65.0
1218,79.0,0,2146,1.0,65.0
1219,82.0,0,2146,1.0,65.0
1220,82.0,0,1666,0.0,76.0
1221,91.0,240,1666,0.0,76.0
1222,58.0,0,1666,4.0,76.0
1223,70.0,0,2146,2.0,65.0
1224,77.0,0,108,8.0,121.0
1225,39.0,0,108,13.0,121.0
1226,65.0,0,108,3.0,90.0
1227,53.0,0,108,3.0,90.0
1228,51.0,0,108,12.0,121.0
1229,55.0,0,108,10.0,121.0
1230,70.0,0,108,11.0,121.0
1231,82.0,0,192,1.0,57.0
1232,77.0,0,192,1.0,57.0
1233,67.0,0,192,2.0,57.0
1234,70.0,0,192,2.0,57.0
1235,82.0,240,192,0.0,57.0
1236,89.0,0,192,0.0,57.0
1237,67.0,0,192,4.0,76.0
1238,58.0,0,226,4.0,76.0
1239,51.0,0,108,12.0,121.0
1240,75.0,0,108,8.0,121.0
1241,63.0,0,108,3.0,90.0
1242,51.0,240,108,3.0,90.0
1243,70.0,0,108,11.0,121.0
1244,39.0,0,108,13.0,121.0
1245,55.0,0,108,10.0,121.0
1246,82.0,0,192,0.0,57.0
1247,87.0,0,192,0.0,57.0
1248,70.0,0,192,2.0,57.0
1249,75.0,0,192,1.0,57.0
1250,67.0,0,192,2.0,57.0
1251,82.0,0,192,1.0,57.0
1252,67.0,0,192,4.0,76.0
1253,58.0,0,226,4.0,76.0
1254,39.0,0,108,13.0,121.0
1255,55.0,0,108,11.0,121.0
1256,50.0,0,108,3.0,90.0
1257,62.0,0,108,3.0,90.0
1258,67.0,0,108,10.0,121.0
1259,74.0,0,108,8.0,121.0
1260,51.0,240,108,12.0,121.0
1261,82.0,0,192,0.0,57.0
1262,86.0,0,192,0.0,57.0
1263,67.0,0,192,4.0,76.0
1264,70.0,0,192,2.0,57.0
1265,74.0,0,192,1.0,57.0
1266,67.0,0,192,2.0,57.0
1267,82.0,0,192,1.0,57.0
1268,58.0,0,226,4.0,76.0
1269,52.0,240,108,12.0,127.0
1270,40.0,0,108,13.0,127.0
1271,61.0,0,108,3.0,90.0
1272,55.0,0,108,11.0,127.0
1273,67.0,0,108,10.0,121.0
1274,70.0,0,108,10.0,127.0
1275,49.0,0,108,3.0,90.0
1276,73.0,0,108,8.0,127.0
1277,67.0,0,192,2.0,57.0
1278,82.0,0,192,1.0,57.0
1279,70.0,0,192,2.0,57.0
1280,73.0,0,192,1.0,57.0
1281,82.0,0,192,0.0,57.0
1282,67.0,0,192,4.0,76.0
1283,85.0,0,192,0.0,57.0
1284,58.0,0,226,4.0,76.0
1285,57.0,0,82,5.0,91.0
1286,69.0,0,82,5.0,91.0
1287,45.0,240,144,6.0,91.0
1288,57.0,180,48,5.0,91.0
1289,69.0,0,48,5.0,91.0
1290,45.0,0,48,6.0,91.0
1291,69.0,60,84,5.0,91.0
1292,57.0,0,84,5.0,91.0
1293,45.0,0,192,6.0,91.0
1294,69.0,240,84,5.0,91.0
1295,57.0,0,84,5.0,91.0
1296,45.0,0,192,6.0,91.0
1297,57.0,0,84,5.0,41.0
1298,69.0,240,84,5.0,41.0
1299,55.0,0,108,11.0,48.0
1300,52.0,0,108,11.0,48.0
1301,61.0,0,108,10.0,48.0
1302,45.0,0,108,12.0,48.0
1303,73.0,0,108,8.0,48.0
1304,33.0,0,108,13.0,48.0
1305,45.0,0,192,6.0,41.0
1306,88.0,0,480,0.0,48.0
1307,52.0,0,0,3.0,48.0
1308,55.0,0,480,3.0,48.0
1309,91.0,0,480,0.0,48.0
1310,64.0,0,0,2.0,48.0
1311,76.0,0,480,1.0,48.0
1312,79.0,0,480,1.0,48.0
1313,67.0,0,480,2.0,48.0
1314,45.0,0,768,4.0,76.0
1315,57.0,0,768,4.0,76.0
1316,76.0,0,420,1.0,48.0
1317,73.0,0,420,1.0,48.0
1318,49.0,480,420,3.0,48.0
1319,85.0,0,420,0.0,48.0
1320,88.0,0,420,0.0,48.0
1321,61.0,0,420,2.0,48.0
1322,50.0,420,48,3.0,48.0
1323,77.0,0,48,1.0,48.0
1324,74.0,0,48,1.0,48.0
1325,53.0,0,48,3.0,48.0
1326,89.0,0,48,0.0,48.0
1327,62.0,0,48,2.0,48.0
1328,86.0,0,48,0.0,48.0
1329,65.0,0,48,2.0,48.0
1330,57.0,0,84,5.0,114.0
1331,69.0,0,84,5.0,114.0
1332,74.0,0,108,11.0,121.0
1333,69.0,0,108,10.0,121.0
1334,33.0,0,108,13.0,121.0
1335,65.0,0,108,11.0,121.0
1336,77.0,0,108,8.0,121.0
1337,45.0,0,108,12.0,121.0
1338,62.0,0,108,10.0,121.0
1339,57.0,0,108,11.0,121.0
1340,74.0,0,192,1.0,48.0
1341,65.0,0,192,2.0,48.0
1342,45.0,60,192,6.0,76.0
1343,89.0,0,192,0.0,48.0
1344,53.0,0,192,3.0,48.0
1345,50.0,0,192,3.0,48.0
1346,77.0,0,192,1.0,48.0
1347,86.0,0,192,0.0,48.0
1348,62.0,0,192,2.0,48.0
1349,45.0,0,226,4.0,76.0
1350,57.0,0,226,4.0,76.0
1351,69.0,0,82,5.0,91.0
1352,57.0,0,82,5.0,91.0
1353,45.0,240,144,6.0,91.0
1354,45.0,0,48,6.0,91.0
1355,69.0,0,48,5.0,91.0
1356,57.0,180,48,5.0,91.0
1357,69.0,60,84,5.0,91.0
1358,57.0,0,84,5.0,91.0
1359,45.0,0,192,6.0,91.0
1360,69.0,0,84,5.0,91.0
1361,57.0,0,84,5.0,91.0
1362,45.0,240,192,6.0,91.0
1363,69.0,0,84,5.0,41.0
1364,57.0,0,84,5.0,41.0
1365,57.0,0,108,11.0,48.0
1366,62.0,0,108,11.0,48.0
1367,33.0,0,108,13.0,48.0
1368,65.0,0,108,10.0,48.0
1369,69.0,0,108,8.0,48.0
1370,45.0,0,108,12.0,48.0
1371,45.0,0,192,6.0,41.0
1372,69.0,0,480,2.0,48.0
1373,65.0,0,480,2.0,48.0
1374,57.0,0,480,3.0,48.0
1375,53.0,0,480,3.0,48.0
1376,77.0,0,480,1.0,48.0
1377,89.0,0,0,0.0,48.0
1378,93.0,0,480,0.0,48.0
1379,81.0,240,480,1.0,48.0
1380,45.0,0,768,4.0,76.0
1381,57.0,0,768,4.0,76.0
1382,53.0,0,420,3.0,48.0
1383,86.0,0,420,0.0,48.0
1384,62.0,0,420,2.0,48.0
1385,65.0,480,420,2.0,48.0
1386,74.0,0,420,1.0,48.0
1387,77.0,0,420,1.0,48.0
1388,50.0,0,420,3.0,48.0
1389,67.0,0,48,2.0,48.0
1390,52.0,0,48,3.0,48.0
1391,91.0,0,48,0.0,48.0
1392,64.0,0,48,2.0,48.0
1393,55.0,0,48,3.0,48.0
1394,79.0,420,48,1.0,48.0
1395,76.0,0,48,1.0,48.0
1396,88.0,0,48,0.0,48.0
1397,69.0,0,84,5.0,93.0
1398,57.0,0,84,5.0,93.0
1399,61.0,0,108,11.0,121.0
1400,57.0,0,108,11.0,121.0
1401,64.0,60,108,11.0,121.0
1402,33.0,0,108,13.0,121.0
1403,79.0,0,108,8.0,121.0
1404,73.0,0,108,10.0,121.0
1405,64.0,0,108,10.0,121.0
1406,45.0,0,108,12.0,121.0
1407,67.0,0,192,2.0,48.0
1408,45.0,0,192,6.0,93.0
1409,64.0,0,192,2.0,48.0
1410,76.0,0,192,1.0,48.0
1411,52.0,0,192,3.0,48.0
1412,55.0,0,192,3.0,48.0
1413,79.0,0,192,1.0,48.0
1414,88.0,0,192,0.0,48.0
1415,91.0,0,192,0.0,48.0
1416,67.0,0,226,4.0,76.0
1417,64.0,0,226,4.0,76.0
1418,69.0,0,84,5.0,116.0
1419,57.0,0,84,5.0,116.0
1420,45.0,0,192,6.0,116.0
1421,85.0,0,720,0.0,48.0
1422,55.0,480,720,12.0,121.0
1423,82.0,0,720,8.0,121.0
1424,85.0,0,720,1.0,48.0
1425,76.0,0,720,1.0,48.0
1426,82.0,0,720,2.0,48.0
1427,58.0,0,720,4.0,76.0
1428,46.0,0,720,4.0,76.0
1429,70.0,0,720,2.0,48.0
1430,73.0,0,720,10.0,121.0
1431,43.0,0,720,3.0,48.0
1432,76.0,0,720,10.0,121.0
1433,55.0,0,720,3.0,48.0
1434,43.0,0,720,13.0,121.0
1435,88.0,0,720,0.0,48.0
1436,58.0,0,720,11.0,121.0
1437,64.0,0,720,4.0,76.0
1438,74.0,0,84,5.0,116.0
1439,62.0,0,84,5.0,116.0
1440,50.0,0,192,6.0,116.0
1441,56.0,0,720,12.0,121.0
1442,89.0,0,720,0.0,48.0
1443,86.0,0,720,0.0,48.0
1444,53.0,0,720,4.0,76.0
1445,65.0,0,720,4.0,76.0
1446,77.0,0,720,1.0,48.0
1447,86.0,0,720,1.0,48.0
1448,86.0,0,720,8.0,121.0
1449,44.0,0,720,13.0,121.0
1450,71.0,0,720,2.0,48.0
1451,83.0,0,720,2.0,48.0
1452,62.0,0,720,4.0,76.0
1453,44.0,960,720,3.0,48.0
1454,74.0,0,720,10.0,121.0
1455,56.0,0,720,3.0,48.0
1456,59.0,0,720,11.0,121.0
1457,77.0,0,720,10.0,121.0
1458,69.0,0,108,8.0,121.0
1459,77.0,0,108,8.0,121.0
1460,62.0,0,108,8.0,121.0
1461,65.0,0,120,4.0,76.0
1462,86.0,960,120,0.0,76.0
1463,89.0,0,120,0.0,76.0
1464,77.0,0,120,2.0,76.0
1465,77.0,0,120,1.0,76.0
1466,82.0,0,120,1.0,76.0
1467,74.0,0,120,2.0,76.0
1468,62.0,0,120,4.0,76.0
1469,74.0,0,120,5.0,116.0
1470,62.0,0,120,5.0,116.0
1471,53.0,0,120,4.0,76.0
1472,45.0,0,192,6.0,116.0
1473,57.0,0,720,3.0,48.0
1474,45.0,0,720,3.0,48.0
1475,45.0,0,720,13.0,121.0
1476,77.0,0,1024,10.0,61.0
1477,50.0,0,64,12.0,76.0
1478,74.0,0,1024,10.0,61.0
1479,57.0,0,1024,12.0,121.0
1480,69.0,0,1056,11.0,61.0
1481,57.0,0,1056,11.0,61.0
1482,81.0,0,600,8.0,121.0
1483,62.0,0,64,10.0,76.0
1484,57.0,0,64,12.0,76.0
1485,50.0,0,64,12.0,76.0
1486,69.0,80,64,10.0,76.0
1487,70.0,0,48,11.0,114.0
1488,82.0,40,60,8.0,121.0
1489,45.0,0,192,6.0,116.0
1490,45.0,480,192,3.0,76.0
1491,33.0,0,192,13.0,76.0
1492,50.0,40,64,12.0,76.0
1493,69.0,0,64,10.0,76.0
1494,62.0,0,64,10.0,76.0
1495,57.0,0,64,12.0,76.0
1496,69.0,0,48,11.0,114.0
1497,81.0,20,60,8.0,121.0
1498,67.0,60,48,11.0,114.0
1499,79.0,0,60,8.0,121.0
1500,62.0,0,64,10.0,76.0
1501,69.0,0,64,10.0,76.0
1502,50.0,0,64,12.0,76.0
1503,57.0,0,64,12.0,76.0
1504,65.0,0,48,11.0,114.0
1505,77.0,60,60,8.0,121.0
1506,69.0,0,64,10.0,76.0
1507,62.0,0,64,10.0,76.0
1508,50.0,20,64,12.0,76.0
1509,57.0,0,64,12.0,76.0
1510,64.0,40,48,11.0,114.0
1511,76.0,0,60,8.0,121.0
1512,81.0,0,900,2.0,58.0
1513,69.0,480,900,2.0,58.0
1514,57.0,0,900,4.0,116.0
1515,69.0,0,900,4.0,116.0
1516,57.0,0,900,5.0,116.0
1517,69.0,0,900,5.0,116.0
1518,62.0,0,64,10.0,76.0
1519,69.0,0,64,10.0,76.0
1520,57.0,0,64,12.0,76.0
1521,50.0,40,64,12.0,76.0
1522,62.0,0,48,11.0,114.0
1523,74.0,20,60,8.0,121.0
1524,61.0,0,60,11.0,117.0
1525,73.0,0,60,8.0,117.0
1526,62.0,0,64,10.0,87.0
1527,69.0,0,64,10.0,87.0
1528,57.0,60,64,12.0,87.0
1529,50.0,0,64,12.0,87.0
1530,74.0,0,60,8.0,110.0
1531,62.0,60,60,11.0,110.0
1532,62.0,0,64,10.0,83.0
1533,69.0,0,64,10.0,83.0
1534,50.0,20,64,12.0,83.0
1535,57.0,0,64,12.0,83.0
1536,60.0,0,60,11.0,104.0
1537,72.0,40,60,8.0,104.0
1538,50.0,0,192,6.0,58.0
1539,38.0,0,192,13.0,38.0
1540,86.0,0,1152,1.0,76.0
1541,77.0,0,1152,1.0,76.0
1542,62.0,0,64,10.0,78.0
1543,69.0,0,64,10.0,78.0
1544,57.0,40,64,12.0,78.0
1545,50.0,0,64,12.0,78.0
1546,58.0,20,60,11.0,96.0
1547,70.0,0,60,8.0,96.0
1548,57.0,0,60,11.0,89.0
1549,69.0,0,60,8.0,89.0
1550,50.0,0,64,12.0,73.0
1551,57.0,60,64,12.0,73.0
1552,62.0,0,64,10.0,73.0
1553,69.0,0,64,10.0,73.0
1554,55.0,60,60,11.0,83.0
1555,67.0,0,60,8.0,83.0
1556,57.0,0,64,12.0,68.0
1557,50.0,0,64,12.0,68.0
1558,69.0,20,64,10.0,68.0
1559,81.0,0,1344,0.0,76.0
1560,62.0,0,64,10.0,68.0
1561,93.0,0,1344,0.0,76.0
1562,53.0,0,60,11.0,76.0
1563,65.0,40,60,8.0,76.0
1564,69.0,0,64,10.0,64.0
1565,62.0,40,64,10.0,64.0
1566,57.0,0,64,12.0,64.0
1567,50.0,0,64,12.0,64.0
1568,64.0,0,60,8.0,68.0
1569,52.0,20,60,11.0,68.0
1570,62.0,0,64,10.0,47.0
1571,57.0,0,64,12.0,47.0
1572,69.0,0,64,10.0,47.0
1573,50.0,0,64,12.0,47.0
1574,50.0,0,576,3.0,76.0
1575,50.0,0,120,11.0,62.0
1576,62.0,0,120,8.0,62.0
1577,62.0,60,120,5.0,76.0
1578,57.0,0,64,12.0,43.0
1579,69.0,0,64,10.0,43.0
1580,62.0,0,64,10.0,43.0
1581,50.0,80,64,12.0,43.0
1582,62.0,0,192,0.0,76.0
1583,50.0,80,64,12.0,39.0
1584,57.0,0,64,12.0,39.0
1585,69.0,0,64,10.0,39.0
1586,62.0,0,64,10.0,39.0
1587,57.0,0,64,12.0,36.0
1588,50.0,80,64,12.0,36.0
1589,62.0,0,64,10.0,36.0
1590,69.0,0,64,10.0,36.0
1591,69.0,0,64,10.0,32.0
1592,50.0,0,64,12.0,32.0
1593,57.0,0,64,12.0,32.0
1594,62.0,80,64,10.0,32.0
1595,62.0,0,64,10.0,28.0
1596,69.0,0,64,10.0,28.0
1597,50.0,80,64,12.0,28.0
1598,57.0,0,64,12.0,28.0
1599,57.0,0,64,12.0,23.0
1600,50.0,80,64,12.0,23.0
1601,69.0,0,64,10.0,23.0
1602,62.0,0,64,10.0,23.0
1603,62.0,0,64,10.0,23.0
1604,50.0,80,64,12.0,23.0
1605,69.0,0,64,10.0,23.0
1606,57.0,0,64,12.0,23.0
1607,62.0,0,64,10.0,23.0
1608,69.0,80,64,10.0,23.0
1609,57.0,0,64,12.0,23.0
1610,50.0,0,64,12.0,23.0
1611,69.0,0,64,10.0,23.0
1612,62.0,0,64,10.0,23.0
1613,50.0,0,64,12.0,23.0
1614,57.0,80,64,12.0,23.0
1615,69.0,0,64,10.0,23.0
1616,62.0,80,64,10.0,23.0
1617,50.0,0,64,12.0,23.0
1618,57.0,0,64,12.0,23.0
1619,62.0,0,64,10.0,23.0
1620,69.0,0,64,10.0,23.0
1621,50.0,80,64,12.0,23.0
1622,57.0,0,64,12.0,23.0
1623,50.0,0,64,12.0,23.0
1624,57.0,80,64,12.0,23.0
1625,69.0,0,64,10.0,23.0
1626,62.0,0,64,10.0,23.0
1627,57.0,80,64,12.0,23.0
1628,50.0,0,64,12.0,23.0
1629,69.0,0,64,10.0,23.0
1630,62.0,0,64,10.0,23.0
1631,57.0,80,64,12.0,23.0
1632,50.0,0,64,12.0,23.0
1633,69.0,0,64,10.0,23.0
1634,62.0,0,64,10.0,23.0
1635,50.0,0,64,12.0,23.0
1636,57.0,0,64,12.0,23.0
1637,62.0,0,64,10.0,23.0
1638,69.0,80,64,10.0,23.0
1639,62.0,0,64,10.0,23.0
1640,69.0,0,64,10.0,23.0
1641,50.0,0,64,12.0,23.0
1642,57.0,80,64,12.0,23.0
1643,50.0,0,64,12.0,23.0
1644,62.0,0,64,10.0,23.0
1645,69.0,80,64,10.0,23.0
1646,57.0,0,64,12.0,23.0
1647,74.0,20,48,8.0,29.0
1648,57.0,0,64,12.0,23.0
1649,50.0,0,64,12.0,23.0
1650,69.0,60,64,10.0,23.0
1651,62.0,0,64,10.0,23.0
1652,50.0,80,64,12.0,23.0
1653,69.0,0,64,10.0,23.0
1654,57.0,0,64,12.0,23.0
1655,62.0,0,64,10.0,23.0
1656,50.0,80,64,12.0,23.0
1657,69.0,0,64,10.0,23.0
1658,57.0,0,64,12.0,23.0
1659,62.0,0,64,10.0,23.0
1660,62.0,80,64,10.0,23.0
1661,50.0,0,64,12.0,23.0
1662,57.0,0,64,12.0,23.0
1663,69.0,0,64,10.0,23.0
1664,57.0,80,64,12.0,23.0
1665,50.0,0,64,12.0,23.0
1666,69.0,0,384,8.0,29.0
1667,62.0,0,64,10.0,23.0
1668,69.0,0,64,10.0,23.0
1669,69.0,80,64,10.0,23.0
1670,57.0,0,64,12.0,23.0
1671,50.0,0,64,12.0,23.0
1672,62.0,0,64,10.0,23.0
1673,62.0,0,64,10.0,23.0
1674,69.0,0,64,10.0,23.0
1675,50.0,80,64,12.0,23.0
1676,57.0,0,64,12.0,23.0
1677,57.0,0,64,12.0,23.0
1678,50.0,80,64,12.0,23.0
1679,69.0,0,64,10.0,23.0
1680,62.0,0,64,10.0,23.0
1681,69.0,0,64,10.0,23.0
1682,57.0,0,64,12.0,23.0
1683,62.0,80,64,10.0,23.0
1684,50.0,0,64,12.0,23.0
1685,69.0,0,64,10.0,23.0
1686,50.0,80,64,12.0,23.0
1687,57.0,0,64,12.0,23.0
1688,62.0,0,64,10.0,23.0
1689,69.0,0,64,10.0,23.0
1690,62.0,0,64,10.0,23.0
1691,50.0,80,64,12.0,23.0
1692,57.0,0,64,12.0,23.0
1693,69.0,0,64,10.0,23.0
1694,62.0,80,64,10.0,23.0
1695,50.0,0,64,12.0,23.0
1696,57.0,0,64,12.0,23.0
1697,69.0,20,48,8.0,29.0
1698,50.0,0,64,12.0,23.0
1699,57.0,0,64,12.0,23.0
1700,62.0,60,64,10.0,23.0
1701,69.0,0,64,10.0,23.0
1702,69.0,0,64,10.0,23.0
1703,50.0,0,64,12.0,23.0
1704,62.0,80,64,10.0,23.0
1705,57.0,0,64,12.0,23.0
1706,50.0,0,64,12.0,23.0
1707,57.0,80,64,12.0,23.0
1708,69.0,0,64,10.0,23.0
1709,62.0,0,64,10.0,23.0
1710,50.0,80,64,12.0,23.0
1711,57.0,0,64,12.0,23.0
1712,69.0,0,64,10.0,23.0
1713,62.0,0,64,10.0,23.0
1714,50.0,80,64,12.0,23.0
1715,62.0,0,64,10.0,23.0
1716,69.0,0,64,10.0,23.0
1717,57.0,0,64,12.0,23.0
1718,62.0,0,384,8.0,29.0
1719,50.0,0,64,12.0,23.0
1720,57.0,0,64,12.0,23.0
1721,69.0,0,64,10.0,23.0
1722,62.0,80,64,10.0,23.0
1723,62.0,80,64,10.0,23.0
1724,69.0,0,64,10.0,23.0
1725,57.0,0,64,12.0,23.0
1726,50.0,0,64,12.0,23.0
1727,69.0,80,64,10.0,23.0
1728,62.0,0,64,10.0,23.0
1729,57.0,0,64,12.0,23.0
1730,50.0,0,64,12.0,23.0
1731,50.0,0,64,12.0,23.0
1732,57.0,80,64,12.0,23.0
1733,62.0,0,64,10.0,23.0
1734,69.0,0,64,10.0,23.0
1735,57.0,0,64,12.0,23.0
1736,69.0,0,64,10.0,23.0
1737,62.0,0,64,10.0,23.0
1738,50.0,80,64,12.0,23.0
1739,50.0,80,64,12.0,23.0
1740,57.0,0,64,12.0,23.0
1741,69.0,0,64,10.0,23.0
1742,62.0,0,64,10.0,23.0
1743,50.0,0,64,12.0,23.0
1744,57.0,0,64,12.0,23.0
1745,69.0,80,64,10.0,23.0
1746,62.0,0,64,10.0,23.0
1747,57.0,0,48,11.0,35.0
1748,45.0,20,48,13.0,35.0
1749,69.0,60,64,10.0,23.0
1750,62.0,0,64,10.0,23.0
1751,57.0,0,64,12.0,23.0
1752,50.0,0,64,12.0,23.0
1753,57.0,0,64,12.0,23.0
1754,69.0,80,64,10.0,23.0
1755,62.0,0,64,10.0,23.0
1756,50.0,0,64,12.0,23.0
1757,69.0,0,64,10.0,23.0
1758,62.0,80,64,10.0,23.0
1759,57.0,0,64,12.0,23.0
1760,50.0,0,64,12.0,23.0
1761,57.0,80,64,12.0,23.0
1762,50.0,0,64,12.0,23.0
1763,62.0,0,64,10.0,23.0
1764,69.0,0,64,10.0,23.0
1765,50.0,0,64,12.0,23.0
1766,57.0,0,64,12.0,23.0
1767,38.0,0,384,13.0,35.0
1768,50.0,0,384,11.0,35.0
1769,62.0,80,64,10.0,23.0
1770,69.0,0,64,10.0,23.0
1771,62.0,0,64,10.0,23.0
1772,50.0,80,64,12.0,23.0
1773,57.0,0,64,12.0,23.0
1774,69.0,0,64,10.0,23.0
1775,50.0,0,64,12.0,23.0
1776,69.0,0,64,10.0,23.0
1777,57.0,0,64,12.0,23.0
1778,62.0,80,64,10.0,23.0
1779,57.0,0,64,12.0,23.0
1780,69.0,0,64,10.0,23.0
1781,50.0,80,64,12.0,23.0
1782,62.0,0,64,10.0,23.0
1783,62.0,80,64,10.0,23.0
1784,69.0,0,64,10.0,23.0
1785,57.0,0,64,12.0,23.0
1786,50.0,0,64,12.0,23.0
1787,57.0,80,64,12.0,23.0
1788,62.0,0,64,10.0,23.0
1789,69.0,0,64,10.0,23.0
1790,50.0,0,64,12.0,23.0
1791,69.0,0,64,10.0,23.0
1792,57.0,0,64,12.0,23.0
1793,50.0,80,64,12.0,23.0
1794,62.0,0,64,10.0,23.0
1795,62.0,80,64,10.0,23.0
1796,57.0,0,64,12.0,23.0
1797,50.0,0,64,12.0,23.0
1798,69.0,0,64,10.0,23.0
1799,62.0,0,64,10.0,23.0
1800,69.0,80,64,10.0,23.0
1801,57.0,0,64,12.0,23.0
1802,50.0,0,64,12.0,23.0
1803,62.0,80,64,10.0,23.0
1804,69.0,0,64,10.0,23.0
1805,50.0,0,64,12.0,23.0
1806,57.0,0,64,12.0,23.0
1807,69.0,0,64,10.0,23.0
1808,57.0,0,64,12.0,23.0
1809,50.0,0,64,12.0,23.0
1810,62.0,80,64,10.0,23.0
1811,62.0,0,64,10.0,23.0
1812,69.0,80,64,10.0,23.0
1813,57.0,0,64,12.0,23.0
1814,50.0,0,64,12.0,23.0
1815,69.0,80,64,10.0,23.0
1816,62.0,0,64,10.0,23.0
1817,50.0,0,64,12.0,23.0
1818,57.0,0,64,12.0,23.0
1819,69.0,0,64,10.0,23.0
1820,50.0,0,64,12.0,23.0
1821,57.0,0,64,12.0,23.0
1822,62.0,80,64,10.0,23.0
1823,50.0,0,64,12.0,23.0
1824,69.0,80,64,10.0,23.0
1825,57.0,0,64,12.0,23.0
1826,62.0,0,64,10.0,23.0
1827,57.0,80,64,12.0,23.0
1828,62.0,0,64,10.0,23.0
1829,50.0,0,64,12.0,23.0
1830,69.0,0,64,10.0,23.0
1831,57.0,80,64,12.0,23.0
1832,50.0,0,64,12.0,23.0
1833,69.0,0,64,10.0,23.0
1834,62.0,0,64,10.0,23.0
1835,69.0,0,64,10.0,23.0
1836,62.0,80,64,10.0,23.0
1837,50.0,0,64,12.0,23.0
1838,57.0,0,64,12.0,23.0
1839,50.0,0,64,12.0,23.0
1840,57.0,0,64,12.0,23.0
1841,62.0,80,64,10.0,23.0
1842,69.0,0,64,10.0,23.0
1843,57.0,0,64,12.0,23.0
1844,50.0,80,64,12.0,23.0
1845,62.0,0,64,10.0,23.0
1846,69.0,0,64,10.0,23.0
1847,81.0,20,48,8.0,29.0
1848,69.0,0,64,10.0,23.0
1849,62.0,0,64,10.0,23.0
1850,57.0,0,64,12.0,23.0
1851,50.0,0,64,12.0,23.0
1852,62.0,0,64,10.0,23.0
1853,57.0,0,64,12.0,23.0
1854,69.0,80,64,10.0,23.0
1855,50.0,0,64,12.0,23.0
1856,69.0,0,64,10.0,23.0
1857,62.0,0,64,10.0,23.0
1858,57.0,80,64,12.0,23.0
1859,50.0,0,64,12.0,23.0
1860,62.0,80,64,10.0,23.0
1861,69.0,0,64,10.0,23.0
1862,50.0,0,64,12.0,23.0
1863,57.0,0,64,12.0,23.0
1864,50.0,0,64,12.0,23.0
1865,57.0,80,64,12.0,23.0
1866,69.0,0,64,10.0,23.0
1867,74.0,60,384,8.0,29.0
1868,62.0,0,64,10.0,23.0
1869,57.0,0,64,12.0,23.0
1870,69.0,0,64,10.0,23.0
1871,50.0,80,64,12.0,23.0
1872,62.0,0,64,10.0,23.0
1873,50.0,0,64,12.0,23.0
1874,62.0,80,64,10.0,23.0
1875,57.0,0,64,12.0,23.0
1876,69.0,0,64,10.0,23.0
1877,57.0,0,64,12.0,23.0
1878,50.0,80,64,12.0,23.0
1879,69.0,0,64,10.0,23.0
1880,62.0,0,64,10.0,23.0
1881,69.0,0,64,10.0,23.0
1882,62.0,0,64,10.0,23.0
1883,57.0,0,64,12.0,23.0
1884,50.0,80,64,12.0,23.0
1885,57.0,0,64,12.0,23.0
1886,62.0,0,64,10.0,23.0
1887,69.0,0,64,10.0,23.0
1888,50.0,80,64,12.0,23.0
1889,62.0,0,64,10.0,23.0
1890,50.0,0,64,12.0,23.0
1891,69.0,80,64,10.0,23.0
1892,57.0,0,64,12.0,23.0
1893,69.0,0,64,10.0,23.0
1894,62.0,0,64,10.0,23.0
1895,50.0,80,64,12.0,23.0
1896,57.0,0,64,12.0,23.0
1897,74.0,20,48,8.0,29.0
1898,50.0,0,64,12.0,23.0
1899,57.0,0,64,12.0,23.0
1900,69.0,0,64,10.0,23.0
1901,62.0,0,64,10.0,23.0
1902,69.0,0,64,10.0,23.0
1903,62.0,80,64,10.0,23.0
1904,57.0,0,64,12.0,23.0
1905,50.0,0,64,12.0,23.0
1906,50.0,0,64,12.0,23.0
1907,62.0,0,64,10.0,23.0
1908,57.0,80,64,12.0,23.0
1909,69.0,0,64,10.0,23.0
1910,50.0,0,64,12.0,23.0
1911,62.0,0,64,10.0,23.0
1912,57.0,0,64,12.0,23.0
1913,69.0,80,64,10.0,23.0
1914,50.0,0,64,12.0,23.0
1915,69.0,60,384,8.0,29.0
1916,57.0,0,64,12.0,23.0
1917,69.0,0,64,10.0,23.0
1918,62.0,80,64,10.0,23.0
1919,69.0,0,64,10.0,23.0
1920,62.0,80,64,10.0,23.0
1921,50.0,0,64,12.0,23.0
1922,57.0,0,64,12.0,23.0
1923,57.0,0,64,12.0,23.0
1924,69.0,0,64,10.0,23.0
1925,50.0,0,64,12.0,23.0
1926,62.0,80,64,10.0,23.0
1927,62.0,0,64,10.0,23.0
1928,50.0,0,64,12.0,23.0
1929,69.0,0,64,10.0,23.0
1930,57.0,80,64,12.0,23.0
1931,57.0,0,64,12.0,23.0
1932,50.0,0,64,12.0,23.0
1933,69.0,80,64,10.0,23.0
1934,62.0,0,64,10.0,23.0
1935,62.0,0,64,10.0,23.0
1936,69.0,80,64,10.0,23.0
1937,57.0,0,64,12.0,23.0
1938,50.0,0,64,12.0,23.0
1939,50.0,0,64,12.0,23.0
1940,57.0,0,64,12.0,23.0
1941,62.0,80,64,10.0,23.0
1942,69.0,0,64,10.0,23.0
1943,57.0,0,64,12.0,23.0
1944,50.0,0,64,12.0,23.0
1945,62.0,0,64,10.0,23.0
1946,69.0,80,64,10.0,23.0
1947,45.0,20,48,13.0,35.0
1948,57.0,0,48,11.0,35.0
1949,69.0,60,64,10.0,23.0
1950,57.0,0,64,12.0,23.0
1951,50.0,0,64,12.0,23.0
1952,62.0,0,64,10.0,23.0
1953,57.0,0,64,12.0,23.0
1954,50.0,0,64,12.0,23.0
1955,62.0,0,64,10.0,23.0
1956,69.0,80,64,10.0,23.0
1957,62.0,0,64,10.0,23.0
1958,69.0,80,64,10.0,23.0
1959,57.0,0,64,12.0,23.0
1960,50.0,0,64,12.0,23.0
1961,62.0,0,64,10.0,23.0
1962,50.0,80,64,12.0,23.0
1963,57.0,0,64,12.0,23.0
1964,69.0,0,64,10.0,23.0
1965,62.0,0,64,10.0,23.0
1966,69.0,0,64,10.0,23.0
1967,38.0,0,384,13.0,35.0
1968,57.0,80,64,12.0,23.0
1969,50.0,0,64,12.0,23.0
1970,50.0,0,384,11.0,35.0
1971,69.0,0,64,10.0,23.0
1972,57.0,0,64,12.0,23.0
1973,50.0,0,64,12.0,23.0
1974,62.0,80,64,10.0,23.0
1975,57.0,80,64,12.0,23.0
1976,62.0,0,64,10.0,23.0
1977,69.0,0,64,10.0,23.0
1978,50.0,0,64,12.0,23.0
1979,57.0,0,64,12.0,23.0
1980,50.0,80,64,12.0,23.0
1981,69.0,0,64,10.0,23.0
1982,62.0,0,64,10.0,23.0
1983,50.0,0,64,12.0,23.0
1984,57.0,80,64,12.0,23.0
1985,62.0,0,64,10.0,23.0
1986,69.0,0,64,10.0,23.0
1987,62.0,0,64,10.0,23.0
1988,57.0,0,64,12.0,23.0
1989,50.0,80,64,12.0,23.0
1990,69.0,0,64,10.0,23.0
1991,50.0,0,64,12.0,23.0
1992,57.0,0,64,12.0,23.0
1993,62.0,80,64,10.0,23.0
1994,69.0,0,64,10.0,23.0
1995,50.0,0,64,12.0,23.0
1996,57.0,80,64,12.0,23.0
1997,69.0,0,64,10.0,23.0
1998,62.0,0,64,10.0,23.0
1999,62.0,80,64,10.0,23.0
2000,69.0,0,64,10.0,23.0
2001,57.0,0,64,12.0,23.0
2002,50.0,0,64,12.0,23.0
2003,69.0,0,64,10.0,23.0
2004,62.0,80,64,10.0,23.0
2005,50.0,0,64,12.0,23.0
2006,57.0,0,64,12.0,23.0
2007,57.0,0,64,12.0,23.0
2008,62.0,80,64,10.0,23.0
2009,69.0,0,64,10.0,23.0
2010,50.0,0,64,12.0,23.0
2011,50.0,0,64,12.0,23.0
2012,57.0,80,64,12.0,23.0
2013,69.0,0,64,10.0,23.0
2014,62.0,0,64,10.0,23.0
2015,57.0,0,64,12.0,23.0
2016,50.0,80,64,12.0,23.0
2017,62.0,0,64,10.0,23.0
2018,69.0,0,64,10.0,23.0
2019,62.0,0,64,10.0,23.0
2020,69.0,0,64,10.0,23.0
2021,57.0,0,64,12.0,23.0
2022,50.0,80,64,12.0,23.0
2023,62.0,80,64,10.0,23.0
2024,69.0,0,64,10.0,23.0
2025,57.0,0,64,12.0,23.0
2026,50.0,0,64,12.0,23.0
2027,69.0,0,64,10.0,23.0
2028,62.0,0,64,10.0,23.0
2029,57.0,80,64,12.0,23.0
2030,50.0,0,64,12.0,23.0
2031,69.0,0,64,10.0,23.0
2032,50.0,80,64,12.0,23.0
2033,62.0,0,64,10.0,23.0
2034,57.0,0,64,12.0,23.0
2035,50.0,80,64,12.0,23.0
2036,62.0,0,64,10.0,23.0
2037,69.0,0,64,10.0,23.0
2038,57.0,0,64,12.0,23.0
2039,57.0,80,64,12.0,23.0
2040,69.0,0,64,10.0,23.0
2041,50.0,0,64,12.0,23.0
2042,62.0,0,64,10.0,23.0
2043,62.0,0,64,10.0,23.0
2044,50.0,0,64,12.0,23.0
2045,57.0,80,64,12.0,23.0
2046,69.0,0,64,10.0,23.0
2047,69.0,0,64,10.0,23.0
2048,57.0,0,64,12.0,23.0
2049,50.0,0,64,12.0,23.0
2050,62.0,80,64,10.0,23.0
2051,50.0,0,64,12.0,23.0
2052,69.0,0,64,10.0,23.0
2053,62.0,80,64,10.0,23.0
2054,57.0,0,64,12.0,23.0
2055,57.0,0,64,12.0,23.0
2056,50.0,0,64,12.0,23.0
2057,62.0,80,64,10.0,23.0
2058,69.0,0,64,10.0,23.0
2059,62.0,0,64,10.0,23.0
2060,50.0,0,64,12.0,23.0
2061,57.0,0,64,12.0,23.0
2062,69.0,80,64,10.0,23.0
2063,50.0,0,64,12.0,23.0
2064,69.0,0,64,10.0,23.0
2065,62.0,80,64,10.0,23.0
2066,57.0,0,64,12.0,23.0
2067,50.0,0,64,12.0,23.0
2068,57.0,0,64,12.0,23.0
2069,69.0,0,64,10.0,23.0
2070,62.0,80,64,10.0,23.0
2071,81.0,20,48,8.0,29.0
2072,57.0,0,64,12.0,23.0
2073,50.0,0,64,12.0,23.0
2074,62.0,0,64,10.0,23.0
2075,69.0,0,64,10.0,23.0
2076,62.0,80,64,10.0,23.0
2077,57.0,0,64,12.0,23.0
2078,69.0,0,64,10.0,23.0
2079,50.0,0,64,12.0,23.0
2080,50.0,0,64,12.0,23.0
2081,57.0,0,64,12.0,23.0
2082,62.0,0,64,10.0,23.0
2083,69.0,80,64,10.0,23.0
2084,74.0,60,226,8.0,29.0
2085,62.0,0,64,10.0,23.0
2086,50.0,0,64,12.0,23.0
2087,57.0,0,64,12.0,23.0
2088,69.0,80,64,10.0,23.0
2089,50.0,0,64,12.0,23.0
2090,57.0,0,64,12.0,23.0
2091,62.0,0,64,10.0,23.0
2092,69.0,80,64,10.0,23.0
2093,57.0,80,64,12.0,23.0
2094,69.0,0,64,10.0,23.0
2095,50.0,0,64,12.0,23.0
2096,62.0,0,64,10.0,23.0
2097,74.0,20,48,8.0,29.0
2098,69.0,0,64,10.0,23.0
2099,62.0,0,64,10.0,23.0
2100,57.0,60,64,12.0,23.0
2101,50.0,0,64,12.0,23.0
2102,69.0,0,64,10.0,23.0
2103,57.0,0,64,12.0,23.0
2104,50.0,80,64,12.0,23.0
2105,62.0,0,64,10.0,23.0
2106,62.0,0,64,10.0,23.0
2107,57.0,0,64,12.0,23.0
2108,50.0,0,64,12.0,23.0
2109,69.0,80,64,10.0,23.0
2110,69.0,0,226,8.0,29.0
2111,57.0,80,64,12.0,23.0
2112,50.0,0,64,12.0,23.0
2113,69.0,0,64,10.0,23.0
2114,62.0,0,64,10.0,23.0
2115,69.0,80,64,10.0,23.0
2116,57.0,0,64,12.0,23.0
2117,50.0,0,64,12.0,23.0
2118,62.0,0,64,10.0,23.0
2119,69.0,0,64,10.0,23.0
2120,50.0,80,64,12.0,23.0
2121,57.0,0,64,12.0,23.0
2122,62.0,0,64,10.0,23.0
2123,69.0,20,48,8.0,29.0
2124,57.0,0,64,12.0,23.0
2125,50.0,60,64,12.0,23.0
2126,62.0,0,64,10.0,23.0
2127,69.0,0,64,10.0,23.0
2128,69.0,0,64,10.0,23.0
2129,50.0,0,64,12.0,23.0
2130,57.0,80,64,12.0,23.0
2131,62.0,0,64,10.0,23.0
2132,62.0,0,64,10.0,23.0
2133,69.0,80,64,10.0,23.0
2134,57.0,0,64,12.0,23.0
2135,50.0,0,64,12.0,23.0
2136,62.0,0,226,8.0,29.0
2137,50.0,0,64,12.0,23.0
2138,57.0,80,64,12.0,23.0
2139,69.0,0,64,10.0,23.0
2140,62.0,0,64,10.0,23.0
2141,69.0,0,64,10.0,23.0
2142,57.0,0,64,12.0,23.0
2143,50.0,80,64,12.0,23.0
2144,62.0,0,64,10.0,23.0
2145,50.0,0,64,12.0,23.0
2146,57.0,0,64,12.0,23.0
2147,69.0,80,64,10.0,23.0
2148,62.0,0,64,10.0,23.0
2149,57.0,20,48,11.0,35.0
2150,45.0,0,48,13.0,35.0
2151,62.0,0,64,10.0,23.0
2152,69.0,0,64,10.0,23.0
2153,57.0,0,64,12.0,23.0
2154,50.0,0,64,12.0,23.0
2155,69.0,80,64,10.0,23.0
2156,50.0,0,64,12.0,23.0
2157,57.0,0,64,12.0,23.0
2158,62.0,0,64,10.0,23.0
2159,81.0,40,60,8.0,35.0
2160,69.0,40,64,10.0,23.0
2161,62.0,0,64,10.0,23.0
2162,50.0,0,64,12.0,23.0
2163,57.0,0,64,12.0,23.0
2164,50.0,0,64,12.0,23.0
2165,57.0,80,64,12.0,23.0
2166,69.0,0,64,10.0,23.0
2167,62.0,0,64,10.0,23.0
2168,81.0,0,120,8.0,38.0
2169,62.0,0,64,10.0,23.0
2170,69.0,0,64,10.0,23.0
2171,57.0,0,64,12.0,23.0
2172,50.0,80,64,12.0,23.0
2173,38.0,0,384,13.0,35.0
2174,50.0,60,384,11.0,35.0
2175,74.0,40,60,8.0,41.0
2176,50.0,40,64,12.0,23.0
2177,69.0,0,64,10.0,23.0
2178,62.0,0,64,10.0,23.0
2179,57.0,0,64,12.0,23.0
2180,62.0,0,64,10.0,23.0
2181,57.0,0,64,12.0,23.0
2182,69.0,80,64,10.0,23.0
2183,50.0,0,64,12.0,23.0
2184,62.0,0,64,10.0,23.0
2185,69.0,0,64,10.0,23.0
2186,57.0,0,64,12.0,23.0
2187,50.0,80,64,12.0,23.0
2188,74.0,40,60,8.0,48.0
2189,57.0,0,64,12.0,23.0
2190,69.0,40,64,10.0,23.0
2191,62.0,0,64,10.0,23.0
2192,50.0,0,64,12.0,23.0
2193,57.0,80,64,12.0,23.0
2194,62.0,0,64,10.0,23.0
2195,69.0,0,64,10.0,23.0
2196,50.0,0,64,12.0,23.0
2197,74.0,0,120,8.0,50.0
2198,62.0,0,64,10.0,23.0
2199,69.0,0,64,10.0,23.0
2200,57.0,0,64,12.0,23.0
2201,50.0,80,64,12.0,23.0
2202,69.0,40,60,8.0,53.0
2203,62.0,0,64,10.0,23.0
2204,69.0,0,64,10.0,23.0
2205,50.0,0,64,12.0,23.0
2206,57.0,40,64,12.0,23.0
2207,57.0,80,64,12.0,23.0
2208,50.0,0,64,12.0,23.0
2209,62.0,0,64,10.0,23.0
2210,69.0,0,64,10.0,23.0
2211,62.0,0,64,10.0,23.0
2212,69.0,80,64,10.0,23.0
2213,50.0,0,64,12.0,23.0
2214,57.0,0,64,12.0,23.0
2215,69.0,40,60,8.0,61.0
2216,57.0,0,64,12.0,23.0
2217,50.0,0,64,12.0,23.0
2218,69.0,40,64,10.0,23.0
2219,62.0,0,64,10.0,23.0
2220,50.0,0,64,12.0,23.0
2221,57.0,80,64,12.0,23.0
2222,69.0,0,64,10.0,23.0
2223,62.0,0,64,10.0,23.0
2224,69.0,0,120,8.0,64.0
2225,62.0,80,64,10.0,23.0
2226,57.0,0,64,12.0,23.0
2227,50.0,0,64,12.0,23.0
2228,69.0,0,64,10.0,23.0
2229,62.0,40,60,8.0,67.0
2230,50.0,0,450,4.0,30.0
2231,57.0,0,12930,4.0,23.0
2232,69.0,0,12930,2.0,11.0
2233,69.0,0,64,10.0,23.0
2234,62.0,0,64,10.0,23.0
2235,57.0,0,64,12.0,23.0
2236,50.0,40,64,12.0,23.0
2237,50.0,0,64,12.0,23.0
2238,69.0,0,64,10.0,23.0
2239,62.0,80,64,10.0,23.0
2240,57.0,0,64,12.0,23.0
2241,86.0,0,1536,0.0,53.0
2242,81.0,0,3456,0.0,38.0
2243,62.0,0,64,10.0,23.0
2244,69.0,80,64,10.0,23.0
2245,57.0,0,64,12.0,23.0
2246,50.0,0,64,12.0,23.0
2247,45.0,0,60,13.0,61.0
2248,57.0,40,60,11.0,61.0
2249,69.0,0,64,10.0,23.0
2250,50.0,0,64,12.0,23.0
2251,57.0,0,64,12.0,23.0
2252,62.0,40,64,10.0,23.0
2253,74.0,0,64,10.0,38.0
2254,62.0,0,64,10.0,38.0
2255,62.0,0,64,12.0,23.0
2256,50.0,0,64,12.0,23.0
2257,45.0,0,120,13.0,64.0
2258,57.0,0,120,11.0,64.0
2259,57.0,80,64,12.0,23.0
2260,62.0,0,64,10.0,38.0
2261,74.0,0,64,10.0,38.0
2262,50.0,0,64,12.0,23.0
2263,38.0,0,60,13.0,67.0
2264,50.0,40,60,11.0,67.0
2265,50.0,0,64,12.0,23.0
2266,57.0,40,64,12.0,23.0
2267,62.0,0,64,10.0,38.0
2268,74.0,0,64,10.0,38.0
2269,74.0,80,64,10.0,38.0
2270,62.0,0,64,12.0,38.0
2271,50.0,0,64,12.0,38.0
2272,62.0,0,64,10.0,38.0
2273,74.0,0,64,10.0,38.0
2274,50.0,0,64,12.0,38.0
2275,62.0,0,64,12.0,38.0
2276,62.0,80,64,10.0,38.0
2277,86.0,40,60,8.0,49.0
2278,38.0,0,1152,3.0,38.0
2279,50.0,0,432,4.0,38.0
2280,62.0,80,432,4.0,38.0
2281,62.0,40,64,12.0,38.0
2282,50.0,0,64,12.0,38.0
2283,74.0,0,64,10.0,38.0
2284,62.0,0,64,10.0,38.0
2285,50.0,0,64,12.0,38.0
2286,62.0,0,64,12.0,38.0
2287,74.0,0,64,10.0,38.0
2288,62.0,0,64,10.0,38.0
2289,86.0,0,120,8.0,53.0
2290,50.0,0,64,12.0,38.0
2291,62.0,80,64,12.0,38.0
2292,74.0,0,64,10.0,38.0
2293,62.0,0,64,10.0,38.0
2294,74.0,40,60,8.0,56.0
2295,62.0,0,64,10.0,38.0
2296,62.0,0,64,12.0,38.0
2297,50.0,0,64,12.0,38.0
2298,74.0,40,64,10.0,38.0
2299,62.0,0,64,10.0,38.0
2300,74.0,80,64,10.0,38.0
2301,50.0,0,64,12.0,38.0
2302,62.0,0,64,12.0,38.0
2303,74.0,0,120,8.0,59.0
2304,62.0,80,64,12.0,38.0
2305,74.0,0,64,10.0,38.0
2306,62.0,0,64,10.0,38.0
2307,50.0,0,64,12.0,38.0
2308,62.0,40,60,8.0,61.0
2309,50.0,0,64,12.0,38.0
2310,62.0,0,64,12.0,38.0
2311,74.0,40,64,10.0,38.0
2312,62.0,0,64,10.0,38.0
2313,62.0,80,64,10.0,38.0
2314,50.0,0,64,12.0,38.0
2315,74.0,0,64,10.0,38.0
2316,62.0,0,64,12.0,38.0
2317,62.0,0,120,8.0,65.0
2318,62.0,0,64,12.0,38.0
2319,50.0,80,64,12.0,38.0
2320,62.0,0,64,10.0,38.0
2321,74.0,0,64,10.0,38.0
2322,74.0,40,60,8.0,69.0
2323,50.0,0,64,12.0,38.0
2324,62.0,0,64,12.0,38.0
2325,74.0,40,64,10.0,38.0
2326,62.0,0,64,10.0,38.0
2327,74.0,0,6720,1.0,27.0
2328,62.0,0,64,10.0,38.0
2329,50.0,0,64,12.0,38.0
2330,62.0,0,64,12.0,38.0
2331,74.0,80,64,10.0,38.0
2332,62.0,0,120,11.0,71.0
2333,74.0,0,120,8.0,71.0
2334,62.0,0,64,10.0,38.0
2335,62.0,0,64,12.0,38.0
2336,74.0,0,64,10.0,38.0
2337,50.0,80,64,12.0,38.0
2338,62.0,0,60,8.0,74.0
2339,50.0,40,60,11.0,74.0
2340,62.0,0,64,12.0,38.0
2341,62.0,0,64,10.0,38.0
2342,50.0,0,64,12.0,38.0
2343,74.0,40,64,10.0,38.0
2344,50.0,0,64,12.0,38.0
2345,74.0,0,64,10.0,49.0
2346,62.0,0,64,10.0,49.0
2347,62.0,80,64,12.0,38.0
2348,50.0,0,120,11.0,79.0
2349,62.0,0,120,8.0,79.0
2350,50.0,80,64,12.0,38.0
2351,62.0,0,64,12.0,38.0
2352,62.0,0,64,10.0,49.0
2353,74.0,0,64,10.0,49.0
2354,62.0,40,60,11.0,81.0
2355,74.0,0,60,8.0,81.0
2356,50.0,40,64,12.0,38.0
2357,62.0,0,64,12.0,38.0
2358,62.0,0,64,10.0,49.0
2359,74.0,0,64,10.0,49.0
2360,62.0,0,64,12.0,38.0
2361,50.0,0,64,12.0,38.0
2362,74.0,0,64,10.0,64.0
2363,62.0,0,64,10.0,64.0
2364,62.0,0,120,8.0,84.0
2365,50.0,80,120,11.0,84.0
2366,50.0,0,64,12.0,38.0
2367,74.0,0,64,10.0,64.0
2368,62.0,0,64,12.0,38.0
2369,62.0,80,64,10.0,64.0
2370,62.0,40,60,11.0,86.0
2371,74.0,0,60,8.0,86.0
2372,74.0,0,64,10.0,64.0
2373,62.0,0,64,12.0,38.0
2374,62.0,40,64,10.0,64.0
2375,50.0,0,64,12.0,38.0
2376,50.0,0,60,11.0,86.0
2377,62.0,0,60,8.0,86.0
2378,62.0,0,114,12.0,38.0
2379,50.0,0,114,12.0,38.0
2380,74.0,0,114,10.0,64.0
2381,62.0,80,114,10.0,64.0
2382,34.0,80,1584,3.0,38.0
2383,58.0,0,1584,4.0,38.0
2384,86.0,0,2064,0.0,53.0
2385,89.0,0,1344,0.0,53.0
2386,46.0,0,1584,4.0,38.0
2387,62.0,0,15264,2.0,11.0
2388,74.0,0,2064,2.0,38.0
2389,82.0,0,900,1.0,53.0
2390,70.0,0,1380,1.0,53.0
2391,65.0,0,48,4.0,76.0
2392,82.0,0,48,0.0,72.0
2393,58.0,0,48,12.0,121.0
2394,46.0,0,48,13.0,121.0
2395,58.0,0,48,4.0,76.0
2396,58.0,0,48,3.0,72.0
2397,50.0,0,48,6.0,106.0
2398,70.0,420,48,2.0,72.0
2399,82.0,0,48,1.0,72.0
2400,74.0,0,48,5.0,106.0
2401,62.0,0,48,5.0,106.0
2402,82.0,0,48,8.0,121.0
2403,70.0,0,48,11.0,121.0
2404,50.0,0,48,6.0,121.0
2405,50.0,60,48,6.0,121.0
2406,50.0,60,48,6.0,121.0
2407,50.0,60,48,6.0,121.0
2408,50.0,60,48,6.0,121.0
2409,50.0,60,48,6.0,121.0
2410,50.0,60,48,6.0,121.0
2411,50.0,60,48,6.0,121.0
2412,50.0,60,48,6.0,121.0
2413,50.0,60,48,6.0,121.0
2414,50.0,60,48,6.0,121.0
2415,50.0,60,48,6.0,121.0
2416,62.0,0,768,5.0,106.0
2417,74.0,0,768,5.0,106.0
2418,65.0,0,768,4.0,76.0
2419,53.0,0,768,4.0,76.0
2420,50.0,60,48,6.0,121.0
2421,41.0,0,778,13.0,121.0
2422,53.0,0,778,3.0,72.0
2423,65.0,0,778,2.0,72.0
2424,89.0,0,778,0.0,72.0
2425,77.0,0,778,0.0,72.0
2426,77.0,0,778,1.0,72.0
2427,77.0,0,778,8.0,121.0
2428,65.0,0,778,11.0,121.0
2429,53.0,0,778,12.0,121.0
2430,38.0,0,48,13.0,121.0
2431,74.0,0,48,8.0,121.0
2432,62.0,0,48,5.0,106.0
2433,86.0,0,48,0.0,72.0
2434,62.0,0,48,4.0,76.0
2435,74.0,0,48,5.0,106.0
2436,62.0,0,48,11.0,121.0
2437,74.0,0,48,0.0,72.0
2438,50.0,0,48,4.0,76.0
2439,50.0,0,48,6.0,121.0
2440,50.0,0,48,12.0,121.0
2441,50.0,0,48,3.0,72.0
2442,62.0,0,48,2.0,72.0
2443,74.0,180,48,1.0,72.0
2444,62.0,0,192,4.0,76.0
2445,70.0,0,336,1.0,114.0
2446,46.0,60,336,12.0,114.0
2447,34.0,0,336,13.0,114.0
2448,58.0,0,336,3.0,114.0
2449,58.0,0,336,2.0,114.0
2450,74.0,0,336,5.0,106.0
2451,62.0,0,336,5.0,106.0
2452,50.0,0,336,6.0,121.0
2453,82.0,0,336,0.0,114.0
2454,70.0,0,336,8.0,114.0
2455,46.0,0,336,4.0,76.0
2456,58.0,0,336,4.0,76.0
2457,58.0,0,336,11.0,114.0
2458,65.0,0,48,2.0,114.0
2459,41.0,0,48,12.0,114.0
2460,53.0,420,48,11.0,114.0
2461,50.0,0,48,6.0,121.0
2462,53.0,0,48,3.0,114.0
2463,65.0,0,48,8.0,114.0
2464,53.0,0,48,4.0,76.0
2465,74.0,0,48,5.0,106.0
2466,62.0,0,48,5.0,106.0
2467,65.0,0,48,1.0,114.0
2468,29.0,0,48,13.0,114.0
2469,77.0,0,48,0.0,114.0
2470,41.0,0,48,4.0,76.0
2471,50.0,0,288,3.0,114.0
2472,50.0,0,288,11.0,114.0
2473,26.0,0,288,13.0,114.0
2474,62.0,0,288,4.0,76.0
2475,50.0,0,288,4.0,76.0
2476,38.0,0,288,12.0,114.0
2477,62.0,0,288,8.0,114.0
2478,62.0,0,288,2.0,114.0
2479,62.0,0,288,1.0,114.0
2480,50.0,0,288,6.0,121.0
2481,74.0,60,288,0.0,114.0
2482,74.0,0,288,5.0,106.0
2483,62.0,0,288,5.0,106.0
2484,50.0,0,48,6.0,121.0
2485,74.0,0,48,5.0,106.0
2486,53.0,0,48,4.0,76.0
2487,65.0,0,48,4.0,76.0
2488,77.0,0,48,1.0,97.0
2489,53.0,0,48,3.0,97.0
2490,29.0,0,48,13.0,97.0
2491,65.0,0,48,8.0,97.0
2492,77.0,0,48,0.0,97.0
2493,62.0,0,48,5.0,106.0
2494,53.0,0,48,11.0,97.0
2495,41.0,360,48,12.0,97.0
2496,65.0,0,48,2.0,97.0
2497,62.0,0,48,8.0,97.0
2498,50.0,0,48,4.0,76.0
2499,62.0,60,48,4.0,76.0
2500,26.0,0,48,13.0,97.0
2501,50.0,0,48,6.0,121.0
2502,38.0,0,48,12.0,97.0
2503,50.0,0,48,11.0,97.0
2504,50.0,0,48,3.0,97.0
2505,62.0,0,48,2.0,97.0
2506,62.0,0,48,5.0,106.0
2507,74.0,0,48,5.0,106.0
2508,74.0,0,48,0.0,97.0
2509,74.0,0,48,1.0,97.0
2510,74.0,0,192,5.0,106.0
2511,62.0,0,192,5.0,106.0
2512,50.0,0,450,6.0,114.0
2513,58.0,0,540,11.0,121.0
2514,58.0,0,540,4.0,76.0
2515,46.0,0,540,4.0,76.0
2516,46.0,0,540,12.0,121.0
2517,34.0,60,540,13.0,121.0
2518,58.0,0,540,8.0,121.0
2519,70.0,0,576,2.0,72.0
2520,70.0,0,576,0.0,72.0
2521,70.0,0,576,1.0,72.0
2522,46.0,0,576,3.0,72.0
2523,74.0,600,60,2.0,68.0
2524,62.0,0,60,11.0,114.0
2525,74.0,0,60,1.0,68.0
2526,74.0,0,60,8.0,114.0
2527,38.0,0,60,13.0,114.0
2528,62.0,0,60,4.0,76.0
2529,50.0,0,60,3.0,68.0
2530,50.0,0,60,12.0,114.0
2531,86.0,0,60,0.0,68.0
2532,60.0,0,60,4.0,76.0
2533,72.0,0,60,2.0,68.0
2534,60.0,0,60,11.0,114.0
2535,72.0,0,60,1.0,68.0
2536,84.0,0,60,0.0,68.0
2537,48.0,120,60,12.0,114.0
2538,48.0,0,60,3.0,68.0
2539,72.0,0,60,8.0,114.0
2540,36.0,0,60,13.0,114.0
2541,58.0,0,60,4.0,76.0
2542,82.0,0,60,0.0,68.0
2543,70.0,0,60,1.0,68.0
2544,70.0,0,60,2.0,68.0
2545,34.0,0,60,13.0,114.0
2546,46.0,0,60,12.0,114.0
2547,46.0,0,60,3.0,68.0
2548,70.0,120,60,8.0,114.0
2549,58.0,0,60,11.0,114.0
2550,77.0,0,96,1.0,68.0
2551,53.0,0,96,12.0,114.0
2552,65.0,0,96,4.0,68.0
2553,41.0,0,96,13.0,114.0
2554,89.0,0,96,0.0,68.0
2555,77.0,0,96,2.0,68.0
2556,77.0,0,96,8.0,114.0
2557,65.0,120,96,11.0,114.0
2558,53.0,0,96,3.0,68.0
2559,87.0,0,96,0.0,68.0
2560,75.0,0,96,1.0,68.0
2561,51.0,0,96,12.0,114.0
2562,63.0,0,96,11.0,114.0
2563,39.0,0,96,13.0,114.0
2564,63.0,0,96,4.0,68.0
2565,75.0,0,96,2.0,68.0
2566,51.0,240,96,3.0,68.0
2567,75.0,0,96,8.0,114.0
2568,72.0,240,96,1.0,68.0
2569,72.0,0,96,2.0,68.0
2570,84.0,0,96,0.0,68.0
2571,48.0,0,96,3.0,68.0
2572,48.0,0,96,12.0,114.0
2573,72.0,0,96,8.0,114.0
2574,60.0,0,96,11.0,114.0
2575,60.0,0,96,4.0,68.0
2576,36.0,0,96,13.0,114.0
2577,41.0,0,96,13.0,114.0
2578,89.0,0,96,0.0,68.0
2579,53.0,0,96,3.0,68.0
2580,53.0,240,96,12.0,114.0
2581,65.0,0,96,4.0,68.0
2582,77.0,0,96,1.0,68.0
2583,65.0,0,96,11.0,114.0
2584,77.0,0,96,8.0,114.0
2585,77.0,0,96,2.0,68.0
2586,74.0,0,120,8.0,127.0
2587,62.0,0,120,10.0,114.0
2588,38.0,0,120,13.0,127.0
2589,50.0,240,120,3.0,68.0
2590,62.0,0,120,11.0,127.0
2591,62.0,0,120,4.0,68.0
2592,74.0,0,120,1.0,68.0
2593,50.0,0,120,12.0,127.0
2594,74.0,0,120,2.0,68.0
2595,86.0,0,120,0.0,68.0
2596,50.0,0,192,6.0,126.0
2597,74.0,0,192,5.0,126.0
2598,62.0,0,192,5.0,106.0
2599,53.0,600,60,12.0,91.0
2600,41.0,0,60,13.0,91.0
2601,77.0,0,60,8.0,91.0
2602,65.0,0,60,11.0,91.0
2603,39.0,120,60,13.0,91.0
2604,51.0,0,60,12.0,91.0
2605,75.0,0,60,8.0,91.0
2606,63.0,0,60,11.0,91.0
2607,38.0,0,60,13.0,91.0
2608,74.0,0,60,8.0,91.0
2609,50.0,120,60,12.0,91.0
2610,62.0,0,60,11.0,91.0
2611,46.0,0,96,13.0,114.0
2612,70.0,0,96,11.0,114.0
2613,82.0,0,96,8.0,114.0
2614,58.0,120,96,12.0,114.0
2615,89.0,0,60,0.0,77.0
2616,65.0,0,60,2.0,77.0
2617,77.0,0,60,2.0,77.0
2618,65.0,0,60,1.0,77.0
2619,77.0,0,60,1.0,77.0
2620,53.0,0,60,3.0,77.0
2621,77.0,0,60,0.0,77.0
2622,41.0,0,60,3.0,77.0
2623,62.0,0,192,5.0,106.0
2624,74.0,0,192,5.0,126.0
2625,50.0,0,192,6.0,126.0
2626,46.0,120,96,4.0,76.0
2627,58.0,0,96,4.0,76.0
2628,87.0,0,60,0.0,59.0
2629,75.0,0,60,0.0,59.0
2630,75.0,0,60,2.0,59.0
2631,63.0,0,60,2.0,59.0
2632,51.0,0,60,3.0,59.0
2633,39.0,0,60,3.0,59.0
2634,63.0,0,60,1.0,59.0
2635,75.0,0,60,1.0,59.0
2636,58.0,120,96,4.0,76.0
2637,46.0,0,96,4.0,76.0
2638,38.0,0,60,3.0,59.0
2639,74.0,0,60,0.0,59.0
2640,62.0,120,60,1.0,59.0
2641,86.0,0,60,0.0,59.0
2642,50.0,0,60,3.0,59.0
2643,62.0,0,60,2.0,59.0
2644,74.0,0,60,1.0,59.0
2645,74.0,0,60,2.0,59.0
2646,58.0,0,96,4.0,76.0
2647,46.0,0,96,4.0,76.0
2648,82.0,0,96,2.0,73.0
2649,70.0,0,96,2.0,93.0
2650,82.0,0,96,1.0,73.0
2651,70.0,120,96,1.0,93.0
2652,82.0,0,96,0.0,93.0
2653,58.0,0,96,3.0,73.0
2654,46.0,0,96,3.0,93.0
2655,46.0,0,96,4.0,76.0
2656,58.0,0,96,4.0,76.0
2657,64.0,0,96,1.0,93.0
2658,64.0,0,96,2.0,93.0
2659,76.0,0,96,0.0,93.0
2660,76.0,0,96,2.0,73.0
2661,52.0,0,96,3.0,73.0
2662,76.0,0,96,1.0,73.0
2663,40.0,0,96,3.0,93.0
2664,64.0,0,120,10.0,114.0
2665,52.0,0,120,12.0,127.0
2666,40.0,0,120,13.0,127.0
2667,64.0,0,120,11.0,127.0
2668,76.0,480,120,8.0,127.0
2669,55.0,0,60,12.0,91.0
2670,79.0,600,60,8.0,91.0
2671,67.0,0,60,11.0,91.0
2672,43.0,0,60,13.0,91.0
2673,65.0,0,60,11.0,91.0
2674,53.0,0,60,12.0,91.0
2675,41.0,0,60,13.0,91.0
2676,77.0,120,60,8.0,91.0
2677,52.0,0,60,12.0,91.0
2678,76.0,0,60,8.0,91.0
2679,64.0,120,60,11.0,91.0
2680,40.0,0,60,13.0,91.0
2681,73.0,0,96,11.0,114.0
2682,85.0,120,96,8.0,114.0
2683,61.0,0,96,12.0,114.0
2684,49.0,0,96,13.0,114.0
2685,55.0,0,60,3.0,77.0
2686,43.0,0,60,3.0,77.0
2687,79.0,0,60,2.0,77.0
2688,67.0,0,60,2.0,77.0
2689,79.0,0,60,0.0,77.0
2690,91.0,0,60,0.0,77.0
2691,79.0,0,60,1.0,77.0
2692,58.0,0,60,4.0,76.0
2693,67.0,0,60,1.0,77.0
2694,46.0,120,60,4.0,76.0
2695,67.0,0,114,4.0,77.0
2696,53.0,0,60,3.0,59.0
2697,58.0,0,60,4.0,76.0
2698,65.0,0,60,2.0,59.0
2699,77.0,0,60,2.0,59.0
2700,41.0,0,60,3.0,59.0
2701,89.0,0,60,0.0,59.0
2702,65.0,120,60,1.0,59.0
2703,77.0,0,60,0.0,59.0
2704,46.0,0,60,4.0,76.0
2705,77.0,0,60,1.0,59.0
2706,65.0,0,114,4.0,59.0
2707,76.0,0,60,2.0,59.0
2708,64.0,0,60,2.0,59.0
2709,76.0,0,60,0.0,59.0
2710,88.0,0,60,0.0,59.0
2711,46.0,0,60,4.0,76.0
2712,58.0,0,60,4.0,76.0
2713,40.0,120,60,3.0,59.0
2714,64.0,0,60,1.0,59.0
2715,76.0,0,60,1.0,59.0
2716,52.0,0,60,3.0,59.0
2717,64.0,0,114,4.0,59.0
2718,46.0,0,60,4.0,76.0
2719,58.0,0,60,4.0,76.0
2720,73.0,0,96,2.0,93.0
2721,49.0,0,96,3.0,93.0
2722,61.0,0,96,3.0,73.0
2723,64.0,120,96,4.0,93.0
2724,85.0,0,96,0.0,93.0
2725,85.0,0,96,1.0,73.0
2726,73.0,0,96,1.0,93.0
2727,85.0,0,96,2.0,73.0
2728,53.0,0,96,4.0,76.0
2729,77.0,0,96,2.0,73.0
2730,62.0,480,96,4.0,93.0
2731,65.0,0,96,2.0,93.0
2732,65.0,0,96,4.0,76.0
2733,77.0,0,96,1.0,73.0
2734,65.0,0,96,1.0,93.0
2735,77.0,0,96,0.0,93.0
2736,53.0,0,96,3.0,73.0
2737,41.0,0,96,3.0,93.0
2738,77.0,0,120,8.0,127.0
2739,53.0,0,120,12.0,127.0
2740,65.0,0,120,11.0,127.0
2741,65.0,0,120,10.0,114.0
2742,41.0,0,120,13.0,127.0
2743,62.0,0,192,5.0,106.0
2744,50.0,0,192,6.0,126.0
2745,74.0,0,192,5.0,126.0
2746,81.0,600,60,8.0,91.0
2747,69.0,0,60,11.0,91.0
2748,57.0,0,60,12.0,91.0
2749,45.0,0,60,13.0,91.0
2750,62.0,0,60,5.0,76.0
2751,74.0,0,60,5.0,76.0
2752,50.0,0,96,6.0,76.0
2753,74.0,0,60,5.0,76.0
2754,62.0,0,60,5.0,76.0
2755,43.0,0,60,13.0,91.0
2756,67.0,0,60,11.0,91.0
2757,79.0,0,60,8.0,91.0
2758,55.0,0,60,12.0,91.0
2759,50.0,120,96,6.0,76.0
2760,74.0,0,60,5.0,76.0
2761,62.0,0,60,5.0,76.0
2762,41.0,120,60,13.0,91.0
2763,53.0,0,60,12.0,91.0
2764,77.0,0,60,8.0,91.0
2765,65.0,0,60,11.0,91.0
2766,50.0,0,96,6.0,76.0
2767,62.0,120,60,5.0,76.0
2768,74.0,0,60,5.0,76.0
2769,62.0,0,96,12.0,114.0
2770,74.0,0,96,11.0,114.0
2771,50.0,0,96,13.0,114.0
2772,50.0,0,96,6.0,76.0
2773,86.0,0,96,8.0,114.0
2774,50.0,0,60,4.0,76.0
2775,57.0,0,60,3.0,77.0
2776,81.0,0,60,0.0,77.0
2777,81.0,0,60,2.0,77.0
2778,62.0,0,60,4.0,76.0
2779,69.0,0,60,1.0,77.0
2780,81.0,120,60,1.0,77.0
2781,69.0,0,60,2.0,77.0
2782,93.0,0,60,0.0,77.0
2783,45.0,0,60,3.0,77.0
2784,69.0,0,114,4.0,77.0
2785,79.0,0,60,2.0,59.0
2786,43.0,0,60,3.0,59.0
2787,91.0,120,60,0.0,59.0
2788,62.0,0,60,4.0,76.0
2789,50.0,0,60,4.0,76.0
2790,79.0,0,60,1.0,59.0
2791,67.0,0,60,1.0,59.0
2792,79.0,0,60,0.0,59.0
2793,67.0,0,60,2.0,59.0
2794,55.0,0,60,3.0,59.0
2795,67.0,0,114,4.0,59.0
2796,53.0,0,60,3.0,59.0
2797,65.0,120,60,1.0,59.0
2798,89.0,0,60,0.0,59.0
2799,65.0,0,60,2.0,59.0
2800,77.0,0,60,0.0,59.0
2801,77.0,0,60,2.0,59.0
2802,50.0,0,60,4.0,76.0
2803,77.0,0,60,1.0,59.0
2804,41.0,0,60,3.0,59.0
2805,62.0,0,60,4.0,76.0
2806,65.0,0,114,4.0,59.0
2807,62.0,0,60,4.0,76.0
2808,50.0,0,60,4.0,76.0
2809,86.0,0,96,0.0,93.0
2810,74.0,120,96,1.0,93.0
2811,86.0,0,96,1.0,73.0
2812,62.0,0,96,3.0,73.0
2813,86.0,0,96,2.0,73.0
2814,74.0,0,96,4.0,93.0
2815,74.0,0,96,2.0,93.0
2816,50.0,0,96,3.0,93.0
2817,81.0,0,60,8.0,91.0
2818,45.0,0,60,13.0,91.0
2819,57.0,0,60,12.0,91.0
2820,69.0,0,60,11.0,91.0
2821,74.0,0,60,5.0,76.0
2822,62.0,0,60,5.0,76.0
2823,50.0,120,96,6.0,76.0
2824,79.0,0,60,8.0,91.0
2825,67.0,0,60,11.0,91.0
2826,55.0,0,60,12.0,91.0
2827,74.0,0,60,5.0,76.0
2828,62.0,120,60,5.0,76.0
2829,43.0,0,60,13.0,91.0
2830,50.0,0,96,6.0,76.0
2831,62.0,0,60,5.0,76.0
2832,74.0,0,60,5.0,76.0
2833,42.0,0,60,13.0,91.0
2834,66.0,120,60,11.0,91.0
2835,54.0,0,60,12.0,91.0
2836,78.0,0,60,8.0,91.0
2837,50.0,0,96,6.0,76.0
2838,62.0,0,60,5.0,76.0
2839,74.0,0,60,5.0,76.0
2840,86.0,0,96,8.0,114.0
2841,50.0,0,96,6.0,76.0
2842,74.0,0,96,11.0,114.0
2843,50.0,120,96,13.0,114.0
2844,62.0,0,96,12.0,114.0
2845,81.0,0,60,2.0,77.0
2846,69.0,0,60,2.0,77.0
2847,69.0,0,60,1.0,77.0
2848,57.0,0,60,3.0,77.0
2849,45.0,0,60,3.0,77.0
2850,93.0,0,60,0.0,77.0
2851,81.0,0,60,1.0,77.0
2852,81.0,120,60,0.0,77.0
2853,62.0,0,60,4.0,76.0
2854,50.0,0,60,4.0,76.0
2855,69.0,0,114,4.0,77.0
2856,62.0,0,60,4.0,76.0
2857,67.0,0,60,2.0,59.0
2858,50.0,0,60,4.0,76.0
2859,43.0,120,60,3.0,59.0
2860,79.0,0,60,2.0,59.0
2861,55.0,0,60,3.0,59.0
2862,79.0,0,60,0.0,59.0
2863,91.0,0,60,0.0,59.0
2864,79.0,0,60,1.0,59.0
2865,67.0,0,60,1.0,59.0
2866,67.0,0,114,4.0,59.0
2867,78.0,0,60,2.0,59.0
2868,66.0,0,60,2.0,59.0
2869,66.0,0,60,1.0,59.0
2870,78.0,0,60,1.0,59.0
2871,42.0,0,60,3.0,59.0
2872,54.0,120,60,3.0,59.0
2873,62.0,0,60,4.0,76.0
2874,78.0,0,60,0.0,59.0
2875,90.0,0,60,0.0,59.0
2876,50.0,0,60,4.0,76.0
2877,66.0,0,114,4.0,59.0
2878,62.0,0,60,4.0,76.0
2879,50.0,0,60,4.0,76.0
2880,86.0,120,114,1.0,73.0
2881,74.0,0,114,1.0,93.0
2882,74.0,0,114,4.0,93.0
2883,86.0,0,114,0.0,93.0
2884,86.0,0,114,2.0,73.0
2885,74.0,0,114,2.0,93.0
2886,62.0,0,114,3.0,73.0
2887,50.0,0,114,3.0,93.0
2888,82.0,0,60,8.0,91.0
2889,58.0,0,60,3.0,77.0
2890,46.0,0,60,3.0,77.0
2891,70.0,0,60,11.0,91.0
2892,62.0,0,60,5.0,76.0
2893,74.0,0,60,5.0,76.0
2894,82.0,0,60,0.0,77.0
2895,94.0,0,60,0.0,77.0
2896,46.0,0,60,13.0,91.0
2897,82.0,0,60,2.0,77.0
2898,58.0,0,60,12.0,91.0
2899,82.0,0,60,1.0,77.0
2900,70.0,0,60,1.0,77.0
2901,62.0,0,60,4.0,76.0
2902,50.0,0,60,4.0,76.0
2903,70.0,120,60,2.0,77.0
2904,50.0,0,96,6.0,76.0
2905,70.0,0,114,4.0,77.0
2906,57.0,0,60,12.0,91.0
2907,69.0,120,60,2.0,59.0
2908,45.0,0,60,13.0,91.0
2909,69.0,0,60,11.0,91.0
2910,93.0,0,60,0.0,59.0
2911,81.0,0,60,2.0,59.0
2912,81.0,0,60,0.0,59.0
2913,74.0,0,60,5.0,76.0
2914,81.0,0,60,1.0,59.0
2915,69.0,0,60,1.0,59.0
2916,45.0,0,60,3.0,59.0
2917,57.0,0,60,3.0,59.0
2918,62.0,0,60,5.0,76.0
2919,50.0,0,60,4.0,76.0
2920,81.0,0,60,8.0,91.0
2921,62.0,0,60,4.0,76.0
2922,50.0,0,96,6.0,76.0
2923,69.0,0,114,4.0,59.0
2924,43.0,0,60,3.0,59.0
2925,79.0,120,60,0.0,59.0
2926,67.0,0,60,1.0,59.0
2927,67.0,0,60,2.0,59.0
2928,43.0,0,60,13.0,91.0
2929,74.0,0,60,5.0,76.0
2930,50.0,0,60,4.0,76.0
2931,79.0,0,60,8.0,91.0
2932,62.0,0,60,4.0,76.0
2933,55.0,0,60,3.0,59.0
2934,55.0,0,60,12.0,91.0
2935,79.0,0,60,2.0,59.0
2936,67.0,0,60,11.0,91.0
2937,91.0,0,60,0.0,59.0
2938,62.0,0,60,5.0,76.0
2939,79.0,0,60,1.0,59.0
2940,50.0,0,96,6.0,76.0
2941,67.0,0,114,4.0,59.0
2942,50.0,0,60,4.0,76.0
2943,74.0,0,60,5.0,96.0
2944,62.0,0,60,5.0,76.0
2945,62.0,0,60,4.0,76.0
2946,50.0,0,96,6.0,96.0
2947,62.0,0,114,3.0,73.0
2948,86.0,0,114,8.0,114.0
2949,50.0,0,114,3.0,93.0
2950,74.0,0,114,4.0,93.0
2951,50.0,120,114,13.0,114.0
2952,74.0,0,114,1.0,93.0
2953,62.0,0,114,12.0,114.0
2954,86.0,0,114,0.0,93.0
2955,74.0,0,114,11.0,114.0
2956,86.0,0,114,1.0,73.0
2957,74.0,0,114,2.0,93.0
2958,86.0,0,114,2.0,73.0
2959,74.0,0,60,5.0,76.0
2960,58.0,0,60,1.0,62.0
2961,70.0,0,60,0.0,62.0
2962,34.0,0,60,13.0,91.0
2963,70.0,0,60,1.0,62.0
2964,58.0,0,60,8.0,91.0
2965,46.0,0,60,12.0,91.0
2966,62.0,0,60,5.0,76.0
2967,82.0,120,60,0.0,62.0
2968,58.0,0,60,2.0,62.0
2969,70.0,0,60,2.0,62.0
2970,58.0,0,60,11.0,91.0
2971,46.0,0,60,3.0,62.0
2972,58.0,0,60,3.0,62.0
2973,50.0,0,60,4.0,61.0
2974,62.0,0,60,4.0,61.0
2975,50.0,0,96,6.0,76.0
2976,70.0,0,114,4.0,62.0
2977,69.0,0,60,2.0,48.0
2978,74.0,0,60,5.0,76.0
2979,45.0,0,60,3.0,48.0
2980,69.0,0,60,0.0,48.0
2981,62.0,0,60,5.0,76.0
2982,57.0,0,60,2.0,48.0
2983,33.0,0,60,13.0,91.0
2984,81.0,0,60,0.0,48.0
2985,50.0,120,60,4.0,61.0
2986,62.0,0,60,4.0,61.0
2987,57.0,0,60,8.0,91.0
2988,57.0,0,60,11.0,91.0
2989,69.0,0,60,1.0,48.0
2990,57.0,0,60,1.0,48.0
2991,57.0,0,60,3.0,48.0
2992,45.0,0,60,12.0,91.0
2993,50.0,0,96,6.0,76.0
2994,69.0,0,114,4.0,48.0
2995,31.0,0,60,13.0,91.0
2996,67.0,0,60,2.0,48.0
2997,43.0,0,60,3.0,48.0
2998,55.0,0,60,3.0,48.0
2999,43.0,0,60,12.0,91.0
3000,79.0,0,60,0.0,48.0
3001,67.0,0,60,0.0,48.0
3002,55.0,0,60,2.0,48.0
3003,50.0,0,60,4.0,61.0
3004,62.0,0,60,4.0,61.0
3005,55.0,0,60,8.0,91.0
3006,62.0,0,60,5.0,76.0
3007,74.0,0,60,5.0,76.0
3008,55.0,0,60,1.0,48.0
3009,67.0,0,60,1.0,48.0
3010,55.0,120,60,11.0,91.0
3011,50.0,0,96,6.0,76.0
3012,67.0,0,114,4.0,48.0
3013,59.0,120,60,11.0,91.0
3014,59.0,0,60,3.0,76.0
3015,56.0,0,60,3.0,76.0
3016,32.0,0,60,13.0,91.0
3017,62.0,0,60,11.0,91.0
3018,83.0,0,60,0.0,76.0
3019,77.0,0,60,8.0,91.0
3020,74.0,0,60,5.0,96.0
3021,62.0,0,60,5.0,76.0
3022,89.0,0,60,0.0,76.0
3023,77.0,0,60,1.0,76.0
3024,71.0,0,60,1.0,76.0
3025,44.0,0,60,12.0,91.0
3026,65.0,0,60,10.0,91.0
3027,50.0,0,96,6.0,96.0
3028,50.0,0,96,4.0,76.0
3029,65.0,0,114,4.0,48.0
3030,56.0,0,114,2.0,76.0
3031,68.0,0,114,2.0,76.0
3032,56.0,0,60,12.0,91.0
3033,74.0,0,60,2.0,76.0
3034,65.0,0,60,2.0,76.0
3035,77.0,0,60,8.0,91.0
3036,74.0,0,60,5.0,76.0
3037,62.0,0,60,5.0,76.0
3038,83.0,0,60,0.0,76.0
3039,89.0,0,60,0.0,76.0
3040,71.0,0,60,1.0,76.0
3041,77.0,0,60,1.0,76.0
3042,65.0,0,60,10.0,91.0
3043,59.0,0,60,3.0,76.0
3044,62.0,0,60,11.0,91.0
3045,56.0,0,60,3.0,76.0
3046,44.0,0,60,13.0,91.0
3047,59.0,120,60,11.0,91.0
3048,50.0,0,96,6.0,76.0
3049,50.0,0,96,4.0,76.0
3050,62.0,0,114,4.0,48.0
3051,59.0,0,60,3.0,76.0
3052,56.0,0,60,3.0,76.0
3053,71.0,0,60,1.0,76.0
3054,44.0,0,60,13.0,91.0
3055,62.0,0,60,11.0,91.0
3056,65.0,0,60,2.0,76.0
3057,59.0,0,60,11.0,91.0
3058,76.0,0,60,1.0,76.0
3059,64.0,0,60,10.0,91.0
3060,74.0,0,60,2.0,76.0
3061,56.0,0,60,12.0,91.0
3062,88.0,120,60,0.0,76.0
3063,76.0,0,60,8.0,91.0
3064,83.0,0,60,0.0,76.0
3065,74.0,0,60,5.0,76.0
3066,62.0,0,60,5.0,76.0
3067,50.0,0,96,6.0,76.0
3068,50.0,0,96,4.0,76.0
3069,62.0,0,114,4.0,48.0
3070,74.0,0,60,8.0,91.0
3071,56.0,0,60,3.0,76.0
3072,59.0,120,60,3.0,76.0
3073,86.0,0,60,0.0,76.0
3074,44.0,0,60,13.0,91.0
3075,56.0,0,60,12.0,91.0
3076,59.0,0,60,11.0,91.0
3077,62.0,0,60,11.0,91.0
3078,62.0,0,60,10.0,91.0
3079,83.0,0,60,0.0,76.0
3080,74.0,0,60,2.0,76.0
3081,65.0,0,60,2.0,76.0
3082,71.0,0,60,1.0,76.0
3083,74.0,0,60,1.0,76.0
3084,74.0,0,60,5.0,76.0
3085,62.0,0,60,5.0,76.0
3086,50.0,0,96,6.0,76.0
3087,50.0,0,96,4.0,76.0
3088,62.0,0,114,4.0,48.0
3089,69.0,0,120,10.0,99.0
3090,45.0,0,120,6.0,96.0
3091,69.0,0,120,5.0,96.0
3092,57.0,0,120,5.0,76.0
3093,57.0,0,192,11.0,76.0
3094,57.0,120,120,10.0,99.0
3095,58.0,120,120,10.0,99.0
3096,57.0,120,120,10.0,99.0
3097,58.0,120,120,10.0,99.0
3098,57.0,120,120,10.0,99.0
3099,33.0,0,768,13.0,76.0
3100,57.0,0,768,4.0,76.0
3101,45.0,0,768,4.0,76.0
3102,45.0,0,768,12.0,76.0
3103,58.0,120,120,10.0,99.0
3104,81.0,0,912,8.0,114.0
3105,57.0,120,120,10.0,99.0
3106,45.0,0,120,6.0,76.0
3107,57.0,0,120,5.0,76.0
3108,69.0,0,120,5.0,76.0
3109,37.0,0,120,13.0,76.0
3110,69.0,0,120,11.0,114.0
3111,79.0,0,120,8.0,114.0
3112,49.0,0,120,12.0,76.0
3113,64.0,120,120,10.0,99.0
3114,57.0,120,120,10.0,99.0
3115,57.0,0,120,5.0,76.0
3116,45.0,0,120,6.0,76.0
3117,70.0,0,120,11.0,114.0
3118,77.0,0,120,8.0,114.0
3119,69.0,120,120,5.0,76.0
3120,38.0,0,120,13.0,76.0
3121,65.0,0,120,10.0,99.0
3122,50.0,0,120,12.0,76.0
3123,57.0,120,120,10.0,99.0
3124,45.0,0,120,6.0,76.0
3125,52.0,0,120,12.0,76.0
3126,40.0,0,120,13.0,76.0
3127,73.0,0,120,11.0,114.0
3128,76.0,120,120,8.0,114.0
3129,57.0,0,120,5.0,76.0
3130,67.0,0,120,10.0,99.0
3131,69.0,0,120,5.0,76.0
3132,57.0,120,120,10.0,99.0
3133,69.0,0,768,4.0,127.0
3134,69.0,120,1728,2.0,53.0
3135,57.0,0,1728,2.0,53.0
3136,45.0,0,1728,3.0,53.0
3137,93.0,0,1728,0.0,53.0
3138,81.0,0,1728,0.0,53.0
3139,81.0,0,1728,1.0,53.0
3140,57.0,0,1728,3.0,53.0
3141,69.0,0,1728,1.0,53.0
3142,45.0,0,120,6.0,76.0
3143,74.0,120,120,11.0,114.0
3144,74.0,0,120,8.0,114.0
3145,41.0,0,120,13.0,76.0
3146,53.0,0,120,12.0,76.0
3147,69.0,0,120,10.0,99.0
3148,69.0,0,120,5.0,76.0
3149,57.0,0,120,5.0,76.0
3150,57.0,120,120,10.0,99.0
3151,45.0,0,120,3.0,80.0
3152,57.0,0,120,3.0,80.0
3153,70.0,120,120,1.0,80.0
3154,82.0,0,120,1.0,80.0
3155,69.0,0,120,5.0,76.0
3156,57.0,0,120,5.0,76.0
3157,76.0,0,120,11.0,114.0
3158,73.0,0,120,8.0,114.0
3159,55.0,0,120,12.0,76.0
3160,67.0,0,120,4.0,114.0
3161,73.0,0,120,2.0,80.0
3162,61.0,0,120,2.0,80.0
3163,45.0,0,120,6.0,76.0
3164,70.0,0,120,10.0,99.0
3165,85.0,0,120,0.0,80.0
3166,43.0,0,120,13.0,76.0
3167,82.0,0,120,0.0,80.0
3168,57.0,120,120,10.0,99.0
3169,69.0,0,120,10.0,99.0
3170,45.0,0,120,6.0,76.0
3171,65.0,120,120,4.0,114.0
3172,45.0,0,120,3.0,80.0
3173,81.0,0,120,1.0,80.0
3174,69.0,0,120,1.0,80.0
3175,74.0,0,120,11.0,114.0
3176,81.0,0,120,0.0,80.0
3177,86.0,0,120,0.0,80.0
3178,53.0,0,120,12.0,76.0
3179,57.0,0,120,5.0,76.0
3180,69.0,0,120,5.0,76.0
3181,74.0,0,120,8.0,114.0
3182,41.0,0,120,13.0,76.0
3183,57.0,0,120,3.0,80.0
3184,62.0,0,120,2.0,80.0
3185,74.0,0,120,2.0,80.0
3186,57.0,120,120,10.0,99.0
3187,81.0,0,120,1.0,80.0
3188,73.0,0,120,11.0,114.0
3189,57.0,0,120,5.0,76.0
3190,73.0,0,120,2.0,80.0
3191,76.0,0,120,2.0,80.0
3192,57.0,0,120,3.0,80.0
3193,45.0,0,120,3.0,80.0
3194,69.0,120,120,5.0,76.0
3195,76.0,0,120,8.0,114.0
3196,45.0,0,120,6.0,76.0
3197,88.0,0,120,0.0,80.0
3198,69.0,0,120,1.0,80.0
3199,85.0,0,120,0.0,80.0
3200,64.0,0,120,4.0,114.0
3201,40.0,0,120,13.0,76.0
3202,52.0,0,120,12.0,76.0
3203,67.0,0,120,10.0,99.0
3204,57.0,120,120,10.0,99.0
3205,81.0,0,120,1.0,80.0
3206,62.0,0,120,4.0,114.0
3207,38.0,0,120,13.0,76.0
3208,86.0,0,120,0.0,80.0
3209,69.0,0,120,1.0,80.0
3210,89.0,0,120,0.0,80.0
3211,45.0,0,120,6.0,76.0
3212,65.0,0,120,10.0,99.0
3213,45.0,0,120,3.0,80.0
3214,57.0,0,120,3.0,80.0
3215,77.0,120,120,8.0,114.0
3216,69.0,0,120,5.0,76.0
3217,50.0,0,120,12.0,76.0
3218,77.0,0,120,2.0,80.0
3219,57.0,0,120,5.0,76.0
3220,74.0,0,120,11.0,114.0
3221,74.0,0,120,2.0,80.0
3222,57.0,120,120,10.0,99.0
3223,64.0,0,120,10.0,99.0
3224,45.0,120,120,6.0,76.0
3225,69.0,0,120,5.0,76.0
3226,76.0,0,120,5.0,76.0
3227,45.0,0,240,3.0,80.0
3228,67.0,0,240,11.0,114.0
3229,37.0,0,240,13.0,76.0
3230,88.0,0,240,0.0,80.0
3231,57.0,0,240,11.0,114.0
3232,57.0,120,120,10.0,99.0
3233,57.0,0,240,3.0,80.0
3234,76.0,0,240,11.0,114.0
3235,57.0,0,240,4.0,80.0
3236,79.0,0,240,2.0,80.0
3237,69.0,0,240,8.0,114.0
3238,79.0,0,240,8.0,114.0
3239,64.0,0,240,4.0,80.0
3240,81.0,0,240,1.0,80.0
3241,69.0,0,240,1.0,80.0
3242,76.0,0,240,2.0,80.0
3243,91.0,0,240,0.0,80.0
3244,49.0,0,240,12.0,76.0
3245,58.0,120,120,10.0,99.0
3246,57.0,120,120,10.0,99.0
3247,62.0,0,120,5.0,76.0
3248,50.0,0,120,6.0,76.0
3249,74.0,120,120,5.0,76.0
3250,62.0,0,120,10.0,99.0
3251,38.0,0,240,13.0,76.0
3252,50.0,0,240,12.0,76.0
3253,89.0,0,240,0.0,80.0
3254,77.0,0,240,2.0,80.0
3255,69.0,0,240,8.0,114.0
3256,69.0,0,240,1.0,80.0
3257,74.0,0,240,2.0,80.0
3258,77.0,0,240,8.0,114.0
3259,57.0,120,120,10.0,99.0
3260,81.0,0,240,1.0,80.0
3261,62.0,0,240,4.0,80.0
3262,65.0,0,240,4.0,80.0
3263,45.0,0,240,3.0,80.0
3264,57.0,0,240,3.0,80.0
3265,65.0,0,240,11.0,114.0
3266,57.0,0,240,11.0,114.0
3267,74.0,0,240,11.0,114.0
3268,86.0,0,240,0.0,80.0
3269,58.0,120,120,10.0,99.0
3270,57.0,120,120,10.0,99.0
3271,57.0,0,120,5.0,76.0
3272,69.0,0,120,5.0,76.0
3273,45.0,0,120,12.0,80.0
3274,33.0,0,120,13.0,80.0
3275,45.0,0,120,6.0,76.0
3276,57.0,0,240,4.0,80.0
3277,64.0,0,240,4.0,80.0
3278,76.0,0,240,8.0,114.0
3279,57.0,0,120,12.0,100.0
3280,73.0,0,240,10.0,114.0
3281,69.0,0,240,10.0,114.0
3282,76.0,0,240,2.0,80.0
3283,73.0,0,240,2.0,80.0
3284,69.0,120,240,8.0,114.0
3285,88.0,0,240,0.0,80.0
3286,69.0,0,240,1.0,80.0
3287,81.0,0,240,1.0,80.0
3288,45.0,120,120,13.0,100.0
3289,85.0,0,240,0.0,80.0
3290,46.0,0,120,13.0,80.0
3291,58.0,120,120,12.0,80.0
3292,57.0,120,120,12.0,100.0
3293,45.0,0,120,13.0,100.0
3294,46.0,0,120,13.0,80.0
3295,58.0,120,120,12.0,80.0
3296,57.0,0,120,12.0,100.0
3297,45.0,120,120,13.0,100.0
3298,46.0,0,120,13.0,80.0
3299,58.0,120,120,12.0,80.0
3300,57.0,0,912,11.0,127.0
3301,45.0,0,912,3.0,80.0
3302,57.0,0,912,3.0,80.0
3303,57.0,120,120,12.0,100.0
3304,45.0,0,120,13.0,100.0
3305,69.0,0,84,8.0,80.0
3306,57.0,0,84,10.0,80.0
3307,55.0,0,120,12.0,80.0
3308,45.0,0,120,6.0,76.0
3309,55.0,0,120,3.0,80.0
3310,43.0,0,120,3.0,80.0
3311,69.0,0,120,5.0,76.0
3312,43.0,0,120,13.0,80.0
3313,57.0,0,120,5.0,76.0
3314,55.0,0,120,11.0,120.0
3315,45.0,0,120,12.0,100.0
3316,81.0,0,120,8.0,100.0
3317,69.0,120,120,10.0,100.0
3318,33.0,0,120,13.0,100.0
3319,70.0,0,84,10.0,80.0
3320,82.0,0,84,8.0,80.0
3321,41.0,0,120,3.0,80.0
3322,41.0,0,120,13.0,80.0
3323,45.0,0,120,6.0,76.0
3324,53.0,0,120,11.0,120.0
3325,57.0,120,120,5.0,76.0
3326,69.0,0,120,5.0,76.0
3327,53.0,0,120,12.0,80.0
3328,53.0,0,120,3.0,80.0
3329,69.0,120,120,10.0,100.0
3330,33.0,0,120,13.0,100.0
3331,81.0,0,120,8.0,100.0
3332,45.0,0,120,12.0,100.0
3333,82.0,0,84,8.0,80.0
3334,70.0,0,84,10.0,80.0
3335,52.0,0,120,11.0,120.0
3336,57.0,120,120,5.0,76.0
3337,45.0,0,120,6.0,76.0
3338,40.0,0,120,3.0,80.0
3339,40.0,0,120,13.0,80.0
3340,52.0,0,120,3.0,80.0
3341,52.0,0,120,12.0,80.0
3342,69.0,0,120,5.0,76.0
3343,45.0,0,120,12.0,100.0
3344,33.0,0,120,13.0,100.0
3345,81.0,0,120,8.0,100.0
3346,69.0,120,120,10.0,100.0
3347,81.0,0,768,0.0,80.0
3348,93.0,0,768,0.0,80.0
3349,81.0,0,768,1.0,80.0
3350,57.0,0,768,4.0,80.0
3351,45.0,0,768,4.0,80.0
3352,69.0,120,768,2.0,80.0
3353,70.0,0,84,10.0,80.0
3354,82.0,0,84,8.0,80.0
3355,45.0,120,120,6.0,76.0
3356,38.0,0,120,3.0,80.0
3357,50.0,0,120,3.0,80.0
3358,69.0,0,120,5.0,76.0
3359,57.0,0,120,5.0,76.0
3360,50.0,0,120,12.0,80.0
3361,50.0,0,120,11.0,120.0
3362,38.0,0,120,13.0,80.0
3363,45.0,0,120,12.0,100.0
3364,69.0,0,120,10.0,100.0
3365,81.0,120,120,8.0,100.0
3366,33.0,0,120,13.0,100.0
3367,67.0,0,84,10.0,80.0
3368,79.0,0,84,8.0,80.0
3369,45.0,0,120,4.0,80.0
3370,79.0,120,120,1.0,80.0
3371,57.0,0,120,4.0,80.0
3372,37.0,0,120,13.0,80.0
3373,49.0,0,120,12.0,80.0
3374,45.0,0,120,6.0,76.0
3375,79.0,0,120,0.0,80.0
3376,91.0,0,120,0.0,80.0
3377,49.0,0,120,11.0,120.0
3378,49.0,0,120,3.0,80.0
3379,57.0,0,120,5.0,76.0
3380,69.0,0,120,5.0,76.0
3381,37.0,0,120,3.0,80.0
3382,67.0,0,120,2.0,80.0
3383,69.0,0,120,10.0,100.0
3384,45.0,120,120,12.0,100.0
3385,81.0,0,120,8.0,100.0
3386,33.0,0,120,13.0,100.0
3387,77.0,0,84,8.0,80.0
3388,65.0,0,84,10.0,80.0
3389,77.0,0,120,0.0,80.0
3390,77.0,0,120,1.0,80.0
3391,50.0,0,120,12.0,80.0
3392,89.0,0,120,0.0,80.0
3393,69.0,0,120,5.0,76.0
3394,57.0,0,120,5.0,76.0
3395,57.0,120,120,4.0,80.0
3396,38.0,0,120,13.0,80.0
3397,50.0,0,120,3.0,80.0
3398,65.0,0,120,2.0,80.0
3399,45.0,0,120,6.0,76.0
3400,50.0,0,120,11.0,120.0
3401,45.0,0,120,4.0,80.0
3402,38.0,0,120,3.0,80.0
3403,69.0,120,120,10.0,100.0
3404,33.0,0,120,13.0,100.0
3405,45.0,0,120,12.0,100.0
3406,81.0,0,120,8.0,100.0
3407,64.0,0,84,10.0,80.0
3408,76.0,0,84,8.0,80.0
3409,88.0,0,120,0.0,80.0
3410,76.0,0,120,0.0,80.0
3411,76.0,0,120,1.0,80.0
3412,52.0,0,120,12.0,80.0
3413,45.0,0,120,6.0,76.0
3414,40.0,0,120,3.0,80.0
3415,40.0,0,120,13.0,80.0
3416,57.0,0,120,4.0,80.0
3417,45.0,0,120,4.0,80.0
3418,52.0,0,120,3.0,80.0
3419,57.0,0,120,5.0,76.0
3420,69.0,0,120,5.0,76.0
3421,64.0,120,120,2.0,80.0
3422,52.0,0,120,11.0,120.0
3423,33.0,0,120,13.0,100.0
3424,81.0,0,120,8.0,100.0
3425,45.0,120,120,12.0,100.0
3426,69.0,0,120,10.0,100.0
3427,74.0,0,84,8.0,80.0
3428,62.0,0,84,10.0,80.0
3429,74.0,0,120,1.0,80.0
3430,53.0,0,120,12.0,80.0
3431,50.0,0,120,6.0,76.0
3432,41.0,0,120,3.0,80.0
3433,53.0,0,120,3.0,80.0
3434,53.0,0,120,11.0,120.0
3435,62.0,0,120,4.0,80.0
3436,74.0,0,120,0.0,80.0
3437,86.0,0,120,0.0,80.0
3438,74.0,120,120,5.0,76.0
3439,62.0,0,120,5.0,76.0
3440,41.0,0,120,13.0,80.0
3441,50.0,0,120,4.0,80.0
3442,62.0,0,120,2.0,80.0
3443,81.0,0,120,8.0,100.0
3444,45.0,0,120,12.0,100.0
3445,69.0,120,120,10.0,100.0
3446,33.0,0,120,13.0,100.0
3447,61.0,120,84,10.0,80.0
3448,73.0,0,84,8.0,80.0
3449,73.0,0,120,1.0,80.0
3450,85.0,0,120,0.0,80.0
3451,73.0,0,120,0.0,80.0
3452,46.0,0,120,4.0,80.0
3453,58.0,0,120,4.0,80.0
3454,61.0,0,120,2.0,80.0
3455,58.0,120,120,10.0,100.0
3456,55.0,0,240,3.0,120.0
3457,55.0,0,240,11.0,120.0
3458,43.0,0,240,3.0,120.0
3459,82.0,0,120,8.0,100.0
3460,43.0,0,240,13.0,120.0
3461,55.0,0,240,12.0,120.0
3462,70.0,0,84,8.0,64.0
3463,55.0,0,84,10.0,80.0
3464,58.0,120,120,4.0,80.0
3465,46.0,0,120,4.0,80.0
3466,74.0,0,120,0.0,80.0
3467,86.0,0,120,0.0,80.0
3468,74.0,0,120,1.0,80.0
3469,62.0,0,120,2.0,80.0
3470,58.0,0,120,10.0,84.0
3471,82.0,120,120,8.0,84.0
3472,70.0,0,84,8.0,64.0
3473,55.0,0,84,10.0,80.0
3474,58.0,0,120,4.0,80.0
3475,64.0,0,120,2.0,80.0
3476,76.0,0,120,0.0,80.0
3477,88.0,0,120,0.0,80.0
3478,76.0,120,120,1.0,80.0
3479,46.0,0,120,4.0,80.0
3480,67.0,0,240,11.0,120.0
3481,55.0,0,240,11.0,120.0
3482,53.0,0,240,12.0,120.0
3483,41.0,0,240,13.0,120.0
3484,53.0,0,240,3.0,120.0
3485,58.0,0,120,10.0,84.0
3486,41.0,0,240,3.0,120.0
3487,82.0,120,120,8.0,84.0
3488,55.0,0,84,10.0,80.0
3489,70.0,0,84,8.0,64.0
3490,89.0,0,120,0.0,80.0
3491,77.0,0,120,1.0,80.0
3492,65.0,0,120,2.0,80.0
3493,77.0,0,120,0.0,80.0
3494,46.0,0,120,4.0,80.0
3495,58.0,120,120,4.0,80.0
3496,82.0,120,120,8.0,84.0
3497,58.0,0,120,10.0,84.0
3498,70.0,0,84,8.0,65.0
3499,67.0,0,84,10.0,65.0
3500,46.0,0,120,4.0,65.0
3501,58.0,0,120,4.0,65.0
3502,67.0,0,192,4.0,65.0
3503,82.0,120,120,8.0,83.0
3504,52.0,0,240,12.0,120.0
3505,55.0,120,240,3.0,65.0
3506,67.0,0,240,2.0,65.0
3507,55.0,0,240,11.0,120.0
3508,58.0,0,120,10.0,83.0
3509,79.0,0,240,1.0,65.0
3510,40.0,0,240,13.0,120.0
3511,67.0,0,240,3.0,65.0
3512,79.0,0,240,0.0,65.0
3513,91.0,0,240,0.0,65.0
3514,67.0,0,240,11.0,120.0
3515,70.0,120,84,8.0,61.0
3516,67.0,0,84,10.0,61.0
3517,82.0,0,120,8.0,79.0
3518,58.0,120,120,10.0,79.0
3519,65.0,0,84,10.0,57.0
3520,70.0,0,84,8.0,57.0
3521,46.0,0,120,4.0,59.0
3522,58.0,0,120,4.0,59.0
3523,65.0,0,192,4.0,59.0
3524,79.0,0,240,1.0,59.0
3525,77.0,0,240,1.0,59.0
3526,37.0,0,240,13.0,120.0
3527,53.0,0,240,3.0,59.0
3528,55.0,0,240,11.0,120.0
3529,82.0,120,120,8.0,75.0
3530,49.0,120,240,12.0,120.0
3531,58.0,0,120,10.0,75.0
3532,70.0,0,240,2.0,59.0
3533,67.0,0,240,2.0,59.0
3534,89.0,0,240,0.0,59.0
3535,65.0,0,240,3.0,59.0
3536,67.0,0,240,11.0,120.0
3537,91.0,0,240,0.0,59.0
3538,70.0,0,84,8.0,54.0
3539,65.0,120,84,10.0,54.0
3540,82.0,120,120,8.0,72.0
3541,58.0,0,120,10.0,72.0
3542,76.0,0,84,8.0,50.0
3543,67.0,0,84,10.0,50.0
3544,60.0,0,120,4.0,53.0
3545,64.0,0,192,4.0,53.0
3546,64.0,120,120,10.0,68.0
3547,36.0,120,240,13.0,96.0
3548,72.0,0,240,2.0,53.0
3549,84.0,0,240,1.0,53.0
3550,91.0,0,240,0.0,53.0
3551,88.0,0,240,0.0,53.0
3552,79.0,0,120,8.0,68.0
3553,48.0,0,240,12.0,96.0
3554,67.0,0,240,11.0,96.0
3555,55.0,0,240,11.0,96.0
3556,52.0,0,240,3.0,53.0
3557,64.0,0,240,3.0,53.0
3558,67.0,120,84,10.0,46.0
3559,76.0,0,84,8.0,46.0
3560,64.0,120,120,10.0,64.0
3561,79.0,0,120,8.0,64.0
3562,70.0,0,84,8.0,42.0
3563,72.0,0,84,10.0,42.0
3564,60.0,0,120,4.0,47.0
3565,64.0,0,192,4.0,47.0
3566,64.0,0,120,10.0,61.0
3567,30.0,0,240,13.0,82.0
3568,54.0,120,240,3.0,47.0
3569,88.0,0,240,0.0,47.0
3570,70.0,0,240,2.0,47.0
3571,72.0,0,240,11.0,82.0
3572,82.0,120,120,8.0,61.0
3573,82.0,0,240,1.0,47.0
3574,42.0,0,240,12.0,82.0
3575,72.0,120,84,10.0,39.0
3576,70.0,0,84,8.0,39.0
3577,82.0,120,120,8.0,57.0
3578,64.0,0,120,10.0,57.0
3579,72.0,0,84,11.0,68.0
3580,72.0,0,84,10.0,35.0
3581,69.0,0,84,8.0,35.0
3582,45.0,0,120,6.0,61.0
3583,57.0,0,120,5.0,39.0
3584,69.0,0,120,5.0,39.0
3585,60.0,0,192,4.0,41.0
3586,53.0,120,192,4.0,41.0
3587,84.0,0,120,8.0,53.0
3588,60.0,0,240,3.0,41.0
3589,75.0,0,240,2.0,41.0
3590,78.0,0,240,2.0,41.0
3591,29.0,0,240,13.0,68.0
3592,81.0,0,240,1.0,41.0
3593,69.0,0,240,1.0,41.0
3594,57.0,0,240,3.0,41.0
3595,69.0,0,120,11.0,84.0
3596,63.0,120,120,10.0,53.0
3597,90.0,0,240,0.0,41.0
3598,87.0,0,240,0.0,41.0
3599,41.0,0,240,12.0,68.0
3600,75.0,120,84,10.0,31.0
3601,72.0,0,84,11.0,61.0
3602,69.0,0,84,8.0,31.0
3603,84.0,0,120,8.0,49.0
3604,72.0,0,120,10.0,49.0
3605,69.0,120,120,11.0,77.0
3606,75.0,0,84,10.0,27.0
3607,72.0,0,84,11.0,54.0
3608,69.0,0,84,8.0,27.0
3609,57.0,0,120,5.0,31.0
3610,45.0,0,120,6.0,49.0
3611,69.0,0,120,5.0,31.0
3612,60.0,0,192,4.0,35.0
3613,53.0,0,192,4.0,35.0
3614,41.0,0,192,4.0,35.0
3615,84.0,0,240,1.0,35.0
3616,72.0,0,120,10.0,46.0
3617,57.0,0,240,3.0,35.0
3618,69.0,120,120,11.0,70.0
3619,75.0,120,240,2.0,35.0
3620,77.0,0,240,2.0,35.0
3621,84.0,0,120,8.0,46.0
3622,41.0,0,240,12.0,54.0
3623,29.0,0,240,13.0,54.0
3624,89.0,0,240,0.0,35.0
3625,87.0,0,240,0.0,35.0
3626,81.0,0,240,1.0,35.0
3627,60.0,0,240,3.0,35.0
3628,75.0,120,84,10.0,24.0
3629,69.0,0,84,8.0,24.0
3630,72.0,0,84,11.0,47.0
3631,84.0,0,120,8.0,42.0
3632,72.0,0,120,10.0,42.0
3633,69.0,0,0,11.0,28.0
3634,57.0,0,120,5.0,49.0
3635,45.0,0,120,6.0,49.0
3636,69.0,0,120,5.0,49.0
3637,75.0,0,192,10.0,28.0
3638,41.0,0,192,12.0,40.0
3639,84.0,0,192,8.0,28.0
3640,29.0,0,192,13.0,40.0
3641,53.0,0,96,12.0,40.0
3642,41.0,240,96,13.0,40.0
3643,60.0,0,96,10.0,40.0
3644,57.0,0,96,11.0,40.0
3645,53.0,0,96,11.0,40.0
3646,63.0,0,96,8.0,40.0
3647,57.0,0,96,11.0,40.0
3648,53.0,0,96,11.0,40.0
3649,63.0,0,96,8.0,40.0
3650,41.0,0,96,13.0,40.0
3651,60.0,0,96,10.0,40.0
3652,53.0,120,96,12.0,40.0
3653,41.0,0,192,13.0,40.0
3654,53.0,0,192,12.0,40.0
3655,63.0,0,192,8.0,40.0
3656,57.0,0,192,11.0,40.0
3657,60.0,0,192,10.0,40.0
3658,53.0,120,192,11.0,40.0
3659,75.0,0,720,2.0,41.0
3660,72.0,0,720,2.0,41.0
3661,87.0,0,720,0.0,41.0
3662,63.0,0,720,3.0,33.0
3663,60.0,120,720,3.0,33.0
3664,77.0,0,120,2.0,41.0
3665,74.0,0,120,2.0,41.0
3666,65.0,240,120,3.0,33.0
3667,89.0,0,120,0.0,41.0
3668,62.0,0,120,3.0,33.0
3669,63.0,0,120,3.0,33.0
3670,75.0,0,0,2.0,41.0
3671,79.0,0,120,2.0,41.0
3672,91.0,0,0,0.0,41.0
3673,67.0,0,0,3.0,33.0
3674,79.0,0,240,2.0,41.0
3675,63.0,120,240,3.0,33.0
3676,89.0,0,120,0.0,41.0
3677,74.0,240,120,2.0,41.0
3678,77.0,0,120,2.0,41.0
3679,62.0,0,120,3.0,33.0
3680,65.0,0,120,3.0,33.0
3681,72.0,0,120,2.0,41.0
3682,75.0,120,120,2.0,41.0
3683,63.0,120,0,3.0,33.0
3684,60.0,0,0,3.0,33.0
3685,87.0,0,120,0.0,41.0
3686,72.0,0,240,2.0,41.0
3687,87.0,0,240,0.0,41.0
3688,75.0,0,240,2.0,41.0
3689,58.0,0,120,3.0,33.0
3690,62.0,240,120,3.0,33.0
3691,74.0,0,120,2.0,41.0
3692,86.0,0,120,0.0,41.0
3693,70.0,0,120,2.0,41.0
3694,53.0,0,1872,4.0,32.0
3695,60.0,0,1872,4.0,32.0
3696,69.0,0,120,2.0,41.0
3697,72.0,120,0,2.0,41.0
3698,60.0,0,0,3.0,33.0
3699,57.0,0,120,3.0,33.0
3700,84.0,0,120,0.0,41.0
3701,84.0,0,240,0.0,41.0
3702,62.0,0,96,8.0,40.0
3703,41.0,240,96,13.0,40.0
3704,53.0,0,96,12.0,40.0
3705,58.0,0,96,10.0,40.0
3706,53.0,0,96,11.0,40.0
3707,41.0,120,96,13.0,40.0
3708,53.0,0,96,11.0,40.0
3709,62.0,0,96,8.0,40.0
3710,53.0,0,96,12.0,40.0
3711,58.0,0,96,10.0,40.0
3712,82.0,0,240,0.0,33.0
3713,70.0,0,240,2.0,33.0
3714,65.0,0,480,2.0,41.0
3715,53.0,0,480,3.0,33.0
3716,58.0,0,240,3.0,26.0
3717,58.0,0,192,10.0,40.0
3718,53.0,0,192,11.0,40.0
3719,41.0,120,192,13.0,40.0
3720,53.0,0,192,12.0,40.0
3721,62.0,0,192,8.0,40.0
3722,58.0,0,720,4.0,41.0
3723,70.0,0,720,1.0,41.0
3724,62.0,0,720,4.0,41.0
3725,74.0,0,720,1.0,41.0
3726,63.0,0,120,4.0,41.0
3727,72.0,0,120,1.0,41.0
3728,75.0,240,120,1.0,41.0
3729,60.0,0,120,4.0,41.0
3730,65.0,0,120,4.0,41.0
3731,74.0,0,0,1.0,41.0
3732,77.0,0,0,1.0,41.0
3733,62.0,120,0,4.0,41.0
3734,65.0,0,240,4.0,41.0
3735,75.0,0,120,1.0,41.0
3736,72.0,240,120,1.0,41.0
3737,60.0,0,120,4.0,41.0
3738,63.0,0,120,4.0,41.0
3739,62.0,0,0,4.0,41.0
3740,74.0,0,0,1.0,41.0
3741,58.0,120,0,4.0,41.0
3742,70.0,0,0,1.0,41.0
3743,86.0,0,240,0.0,41.0
3744,53.0,0,120,4.0,41.0
3745,72.0,240,120,1.0,41.0
3746,69.0,0,120,1.0,41.0
3747,84.0,0,120,0.0,41.0
3748,60.0,0,120,4.0,41.0
3749,82.0,120,0,0.0,41.0
3750,58.0,120,120,4.0,41.0
3751,50.0,0,120,4.0,41.0
3752,70.0,0,0,1.0,41.0
3753,53.0,0,96,12.0,40.0
3754,53.0,0,96,11.0,40.0
3755,60.0,240,96,10.0,40.0
3756,63.0,0,96,8.0,40.0
3757,57.0,0,96,11.0,40.0
3758,41.0,0,96,13.0,40.0
3759,41.0,0,96,13.0,40.0
3760,53.0,0,96,12.0,40.0
3761,63.0,0,96,8.0,40.0
3762,57.0,0,96,11.0,40.0
3763,53.0,120,96,11.0,40.0
3764,60.0,0,96,10.0,40.0
3765,81.0,0,240,0.0,33.0
3766,69.0,0,240,1.0,33.0
3767,65.0,0,480,1.0,41.0
3768,57.0,0,192,11.0,40.0
3769,53.0,0,192,11.0,40.0
3770,41.0,0,192,13.0,40.0
3771,53.0,0,192,12.0,40.0
3772,63.0,120,192,8.0,40.0
3773,60.0,0,192,10.0,40.0
3774,72.0,0,720,2.0,41.0
3775,75.0,0,720,2.0,41.0
3776,63.0,0,720,3.0,33.0
3777,60.0,0,720,3.0,33.0
3778,65.0,0,120,3.0,33.0
3779,62.0,0,120,3.0,33.0
3780,77.0,0,120,2.0,41.0
3781,74.0,240,120,2.0,41.0
3782,67.0,120,0,3.0,33.0
3783,79.0,0,120,2.0,41.0
3784,75.0,0,120,2.0,41.0
3785,63.0,0,0,3.0,33.0
3786,75.0,0,240,2.0,41.0
3787,79.0,0,240,2.0,41.0
3788,62.0,0,120,3.0,33.0
3789,65.0,0,120,3.0,33.0
3790,77.0,0,120,2.0,41.0
3791,74.0,240,120,2.0,41.0
3792,60.0,0,1410,4.0,32.0
3793,53.0,0,1410,4.0,32.0
3794,60.0,0,120,3.0,33.0
3795,63.0,0,120,3.0,33.0
3796,75.0,0,120,2.0,41.0
3797,72.0,120,120,2.0,41.0
3798,72.0,0,240,2.0,41.0
3799,75.0,0,240,2.0,41.0
3800,60.0,120,240,3.0,33.0
3801,63.0,0,240,3.0,33.0
3802,74.0,0,120,2.0,41.0
3803,62.0,0,120,3.0,33.0
3804,60.0,0,120,3.0,33.0
3805,65.0,0,240,2.0,41.0
3806,72.0,120,120,2.0,41.0
3807,53.0,0,0,3.0,38.0
3808,57.0,0,300,8.0,40.0
3809,33.0,0,300,13.0,40.0
3810,45.0,240,300,12.0,40.0
3811,58.0,120,60,8.0,40.0
3812,46.0,0,60,12.0,40.0
3813,34.0,0,60,13.0,40.0
3814,37.0,120,60,13.0,40.0
3815,49.0,0,60,12.0,40.0
3816,61.0,0,60,8.0,40.0
3817,50.0,0,60,12.0,40.0
3818,38.0,0,60,13.0,40.0
3819,62.0,120,60,8.0,40.0
3820,65.0,120,456,2.0,38.0
3821,53.0,0,1056,4.0,26.0
3822,41.0,0,1056,4.0,26.0
3823,53.0,0,120,12.0,40.0
3824,41.0,120,120,13.0,40.0
3825,65.0,0,120,8.0,40.0
3826,65.0,0,192,4.0,26.0
3827,74.0,0,708,2.0,38.0
3828,62.0,0,708,3.0,38.0
3829,67.0,0,228,3.0,38.0
3830,79.0,0,228,2.0,38.0
3831,37.0,0,60,13.0,40.0
3832,61.0,0,60,8.0,40.0
3833,49.0,0,60,12.0,40.0
3834,50.0,0,60,12.0,40.0
3835,62.0,0,60,8.0,40.0
3836,38.0,120,60,13.0,40.0
3837,41.0,0,60,13.0,40.0
3838,53.0,120,60,12.0,40.0
3839,65.0,0,60,8.0,40.0
3840,69.0,0,60,8.0,40.0
3841,57.0,120,60,12.0,40.0
3842,45.0,0,60,13.0,40.0
3843,65.0,240,456,3.0,36.0
3844,77.0,0,456,2.0,36.0
3845,53.0,0,816,4.0,26.0
3846,41.0,240,816,4.0,26.0
3847,46.0,120,120,13.0,40.0
3848,58.0,0,120,12.0,40.0
3849,70.0,0,120,8.0,40.0
3850,65.0,0,192,4.0,32.0
3851,65.0,0,708,1.0,62.0
3852,77.0,0,708,0.0,62.0
3853,70.0,0,228,1.0,62.0
3854,82.0,240,228,0.0,62.0
3855,48.0,0,60,12.0,40.0
3856,60.0,0,60,8.0,40.0
3857,36.0,240,60,13.0,40.0
3858,65.0,120,60,8.0,40.0
3859,41.0,0,60,13.0,40.0
3860,53.0,0,60,12.0,40.0
3861,45.0,120,60,13.0,40.0
3862,69.0,0,60,8.0,40.0
3863,57.0,0,60,12.0,40.0
3864,71.0,0,60,8.0,40.0
3865,59.0,0,60,12.0,40.0
3866,47.0,120,60,13.0,40.0
3867,69.0,0,456,1.0,62.0
3868,81.0,0,456,0.0,62.0
3869,41.0,0,816,4.0,32.0
3870,53.0,0,816,4.0,32.0
3871,48.0,0,120,13.0,40.0
3872,72.0,0,120,8.0,40.0
3873,60.0,0,120,12.0,40.0
3874,65.0,120,192,4.0,32.0
3875,57.0,0,708,3.0,43.0
3876,69.0,0,708,2.0,43.0
3877,63.0,0,228,3.0,43.0
3878,75.0,0,228,2.0,43.0
3879,63.0,0,60,8.0,40.0
3880,39.0,0,60,13.0,40.0
3881,51.0,0,60,12.0,40.0
3882,41.0,0,60,13.0,40.0
3883,53.0,0,60,12.0,40.0
3884,65.0,120,60,8.0,40.0
3885,69.0,0,60,8.0,40.0
3886,45.0,120,60,13.0,40.0
3887,57.0,0,60,12.0,40.0
3888,60.0,120,60,12.0,40.0
3889,48.0,0,60,13.0,40.0
3890,72.0,0,60,8.0,40.0
3891,72.0,0,456,2.0,43.0
3892,60.0,0,456,3.0,43.0
3893,41.0,0,816,4.0,32.0
3894,53.0,240,816,4.0,32.0
3895,75.0,0,120,8.0,40.0
3896,63.0,0,120,12.0,40.0
3897,51.0,120,120,13.0,40.0
3898,65.0,0,192,4.0,32.0
3899,72.0,240,708,1.0,62.0
3900,84.0,0,708,0.0,62.0
3901,91.0,0,228,0.0,62.0
3902,79.0,0,228,1.0,62.0
3903,51.0,0,60,11.0,40.0
3904,63.0,0,60,8.0,40.0
3905,50.0,120,60,11.0,40.0
3906,62.0,0,60,8.0,40.0
3907,89.0,240,192,0.0,62.0
3908,77.0,0,226,1.0,50.0
3909,53.0,0,60,11.0,40.0
3910,65.0,0,60,8.0,40.0
3911,57.0,0,60,11.0,40.0
3912,69.0,120,60,8.0,40.0
3913,62.0,0,60,10.0,40.0
3914,38.0,0,60,13.0,40.0
3915,50.0,0,60,12.0,40.0
3916,41.0,0,816,4.0,32.0
3917,53.0,240,816,4.0,32.0
3918,58.0,120,120,11.0,40.0
3919,70.0,0,120,8.0,40.0
3920,65.0,0,60,10.0,40.0
3921,41.0,0,60,13.0,40.0
3922,53.0,120,60,12.0,40.0
3923,65.0,0,450,4.0,37.0
3924,50.0,120,480,3.0,40.0
3925,74.0,0,480,0.0,40.0
3926,62.0,0,480,2.0,40.0
3927,69.0,0,60,10.0,40.0
3928,45.0,120,60,13.0,40.0
3929,57.0,0,60,12.0,40.0
3930,55.0,0,120,3.0,32.0
3931,79.0,0,120,0.0,32.0
3932,67.0,0,120,2.0,32.0
3933,58.0,0,60,12.0,40.0
3934,46.0,0,60,13.0,40.0
3935,70.0,0,60,10.0,40.0
3936,65.0,0,192,4.0,29.0
3937,65.0,0,120,2.0,32.0
3938,53.0,120,120,3.0,32.0
3939,77.0,0,120,0.0,32.0
3940,62.0,0,60,8.0,40.0
3941,50.0,0,60,11.0,40.0
3942,62.0,0,120,12.0,40.0
3943,50.0,0,120,13.0,40.0
3944,74.0,120,120,10.0,40.0
3945,65.0,120,60,8.0,40.0
3946,53.0,0,60,11.0,40.0
3947,41.0,0,466,4.0,32.0
3948,53.0,0,466,4.0,32.0
3949,69.0,0,60,8.0,40.0
3950,57.0,120,60,11.0,40.0
3951,70.0,0,60,8.0,40.0
3952,58.0,120,60,11.0,40.0
3953,38.0,0,60,13.0,40.0
3954,62.0,120,60,10.0,40.0
3955,50.0,0,60,12.0,40.0
3956,62.0,0,120,11.0,40.0
3957,74.0,0,120,8.0,40.0
3958,53.0,0,60,12.0,40.0
3959,41.0,0,60,13.0,40.0
3960,65.0,120,60,10.0,40.0
3961,65.0,0,450,4.0,43.0
3962,53.0,0,480,3.0,46.0
3963,77.0,0,480,0.0,46.0
3964,65.0,0,480,2.0,46.0
3965,69.0,120,60,10.0,40.0
3966,57.0,0,60,12.0,40.0
3967,45.0,0,60,13.0,40.0
3968,72.0,0,120,2.0,37.0
3969,60.0,0,120,3.0,37.0
3970,84.0,0,120,0.0,37.0
3971,70.0,0,60,10.0,40.0
3972,58.0,0,60,12.0,40.0
3973,46.0,0,60,13.0,40.0
3974,65.0,0,192,4.0,33.0
3975,58.0,0,120,3.0,37.0
3976,82.0,120,120,0.0,37.0
3977,70.0,0,120,2.0,37.0
3978,60.0,120,60,8.0,40.0
3979,48.0,0,60,11.0,40.0
3980,72.0,0,120,10.0,40.0
3981,60.0,0,120,12.0,40.0
3982,48.0,0,120,13.0,40.0
3983,63.0,120,60,8.0,40.0
3984,51.0,0,60,11.0,40.0
3985,41.0,0,946,4.0,40.0
3986,53.0,0,946,4.0,40.0
3987,53.0,0,60,11.0,40.0
3988,65.0,0,60,8.0,40.0
3989,69.0,0,60,8.0,40.0
3990,57.0,120,60,11.0,40.0
3991,60.0,0,60,10.0,40.0
3992,48.0,0,60,12.0,40.0
3993,36.0,0,60,13.0,40.0
3994,60.0,0,120,11.0,40.0
3995,72.0,120,120,8.0,40.0
3996,39.0,0,60,13.0,40.0
3997,51.0,0,60,12.0,40.0
3998,63.0,120,60,10.0,40.0
3999,65.0,0,450,4.0,49.0
4000,81.0,0,480,0.0,53.0
4001,57.0,0,480,3.0,53.0
4002,69.0,120,480,2.0,53.0
4003,53.0,0,60,12.0,40.0
4004,65.0,0,60,10.0,40.0
4005,41.0,0,60,13.0,40.0
4006,74.0,0,120,2.0,43.0
4007,62.0,0,120,3.0,43.0
4008,86.0,120,120,0.0,43.0
4009,45.0,0,60,13.0,40.0
4010,69.0,0,60,10.0,40.0
4011,57.0,0,60,12.0,40.0
4012,65.0,0,192,4.0,38.0
4013,84.0,120,120,0.0,43.0
4014,60.0,0,120,3.0,43.0
4015,72.0,0,120,2.0,43.0
4016,51.0,0,60,11.0,40.0
4017,63.0,120,60,8.0,40.0
4018,48.0,0,120,13.0,40.0
4019,72.0,0,120,10.0,40.0
4020,60.0,0,120,12.0,40.0
4021,53.0,0,60,11.0,40.0
4022,65.0,120,60,8.0,40.0
4023,41.0,0,946,4.0,40.0
4024,53.0,0,946,4.0,40.0
4025,57.0,0,60,11.0,40.0
4026,69.0,0,60,8.0,40.0
4027,58.0,0,60,11.0,40.0
4028,70.0,120,60,8.0,40.0
4029,72.0,0,60,8.0,40.0
4030,39.0,0,60,13.0,40.0
4031,60.0,0,60,10.0,40.0
4032,51.0,0,60,12.0,40.0
4033,60.0,120,60,11.0,40.0
4034,60.0,120,60,8.0,40.0
4035,57.0,0,60,12.0,40.0
4036,65.0,0,60,10.0,40.0
4037,57.0,0,60,11.0,40.0
4038,45.0,0,60,13.0,40.0
4039,65.0,120,450,4.0,37.0
4040,60.0,0,480,3.0,42.0
4041,84.0,0,480,0.0,42.0
4042,72.0,0,480,1.0,42.0
4043,57.0,0,60,11.0,40.0
4044,48.0,0,60,13.0,40.0
4045,60.0,0,60,8.0,40.0
4046,60.0,0,60,12.0,40.0
4047,65.0,0,60,10.0,40.0
4048,67.0,0,120,3.0,34.0
4049,79.0,0,120,1.0,34.0
4050,91.0,120,120,0.0,34.0
4051,51.0,0,60,13.0,40.0
4052,57.0,0,60,11.0,40.0
4053,65.0,120,60,10.0,40.0
4054,60.0,0,60,8.0,40.0
4055,63.0,0,60,12.0,40.0
4056,65.0,0,192,4.0,29.0
4057,41.0,0,706,4.0,32.0
4058,53.0,0,706,4.0,32.0
4059,90.0,0,120,0.0,34.0
4060,78.0,0,120,1.0,34.0
4061,66.0,0,120,3.0,34.0
4062,62.0,0,60,8.0,40.0
4063,58.0,0,60,11.0,40.0
4064,62.0,0,60,12.0,40.0
4065,50.0,0,60,13.0,40.0
4066,65.0,0,60,10.0,40.0
4067,65.0,120,192,4.0,29.0
4068,41.0,0,226,4.0,26.0
4069,53.0,0,226,4.0,26.0
4070,65.0,0,226,3.0,34.0
4071,70.0,120,120,10.0,46.0
4072,76.0,0,120,10.0,46.0
4073,64.0,120,192,3.0,40.0
4074,77.0,0,466,1.0,34.0
4075,70.0,120,120,10.0,46.0
4076,76.0,0,240,2.0,36.0
4077,77.0,0,120,10.0,46.0
4078,65.0,120,120,11.0,46.0
4079,70.0,0,120,11.0,46.0
4080,70.0,0,240,2.0,36.0
4081,82.0,120,240,1.0,40.0
4082,65.0,120,120,11.0,46.0
4083,65.0,0,120,11.0,46.0
4084,62.0,0,1152,3.0,34.0
4085,65.0,120,672,3.0,40.0
4086,89.0,0,1152,0.0,52.0
4087,71.0,0,240,2.0,36.0
4088,83.0,120,240,1.0,40.0
4089,77.0,0,0,2.0,36.0
4090,77.0,120,120,8.0,37.0
4091,84.0,0,120,8.0,37.0
4092,89.0,0,144,0.0,64.0
4093,57.0,0,192,3.0,40.0
4094,65.0,0,192,3.0,40.0
4095,84.0,120,192,1.0,40.0
4096,72.0,0,192,2.0,36.0
4097,87.0,60,48,0.0,64.0
4098,77.0,120,120,8.0,37.0
4099,84.0,0,120,8.0,37.0
4100,77.0,60,192,2.0,36.0
4101,84.0,0,192,1.0,40.0
4102,87.0,0,192,0.0,64.0
4103,65.0,0,192,3.0,40.0
4104,57.0,0,192,3.0,40.0
4105,72.0,0,192,2.0,36.0
4106,77.0,0,192,2.0,31.0
4107,87.0,0,192,0.0,54.0
4108,72.0,0,192,2.0,31.0
4109,84.0,240,192,1.0,34.0
4110,57.0,0,192,3.0,34.0
4111,65.0,0,192,3.0,34.0
4112,67.0,120,120,10.0,46.0
4113,73.0,0,120,10.0,46.0
4114,82.0,0,466,1.0,34.0
4115,73.0,0,240,2.0,36.0
4116,61.0,120,240,3.0,40.0
4117,67.0,120,120,10.0,46.0
4118,74.0,120,120,10.0,46.0
4119,62.0,120,120,11.0,46.0
4120,67.0,0,120,11.0,46.0
4121,67.0,0,240,2.0,36.0
4122,79.0,120,240,1.0,40.0
4123,58.0,0,960,3.0,34.0
4124,62.0,120,120,11.0,46.0
4125,74.0,0,0,2.0,36.0
4126,65.0,0,120,11.0,46.0
4127,59.0,120,192,3.0,40.0
4128,86.0,240,1152,0.0,64.0
4129,74.0,120,120,8.0,37.0
4130,80.0,0,240,1.0,40.0
4131,68.0,0,240,2.0,36.0
4132,74.0,0,0,2.0,36.0
4133,81.0,120,120,8.0,37.0
4134,86.0,0,144,0.0,64.0
4135,69.0,0,192,2.0,36.0
4136,60.0,0,192,3.0,40.0
4137,81.0,0,192,1.0,40.0
4138,62.0,0,912,3.0,40.0
4139,84.0,60,48,0.0,64.0
4140,74.0,120,120,8.0,37.0
4141,81.0,0,120,8.0,37.0
4142,69.0,0,192,2.0,36.0
4143,74.0,0,192,2.0,36.0
4144,84.0,0,192,0.0,64.0
4145,62.0,60,192,3.0,40.0
4146,81.0,0,192,1.0,40.0
4147,54.0,0,192,3.0,40.0
4148,69.0,0,192,2.0,31.0
4149,74.0,0,192,2.0,31.0
4150,84.0,0,192,0.0,54.0
4151,81.0,240,192,1.0,34.0
4152,62.0,0,192,3.0,34.0
4153,54.0,0,192,3.0,34.0
4154,70.0,0,192,2.0,48.0
4155,74.0,0,192,2.0,48.0
4156,82.0,0,192,0.0,48.0
4157,79.0,0,192,1.0,48.0
4158,55.0,0,192,3.0,48.0
4159,62.0,0,192,3.0,48.0
4160,58.0,120,120,11.0,64.0
4161,48.0,120,120,11.0,64.0
4162,50.0,120,120,11.0,64.0
4163,51.0,120,120,11.0,80.0
4164,82.0,0,720,14.0,90.0
4165,53.0,120,120,11.0,80.0
4166,43.0,0,720,15.0,72.0
4167,31.0,0,720,15.0,72.0
4168,31.0,240,720,13.0,40.0
4169,70.0,0,720,10.0,40.0
4170,70.0,0,720,14.0,90.0
4171,82.0,0,720,8.0,40.0
4172,55.0,0,120,11.0,80.0
4173,69.0,0,192,10.0,44.0
4174,81.0,120,240,8.0,44.0
4175,57.0,120,120,11.0,80.0
4176,46.0,0,1056,4.0,48.0
4177,58.0,0,1056,4.0,48.0
4178,80.0,0,120,8.0,51.0
4179,58.0,0,120,11.0,80.0
4180,41.0,0,360,13.0,57.0
4181,68.0,120,120,10.0,51.0
4182,39.0,120,120,13.0,55.0
4183,79.0,0,120,8.0,55.0
4184,67.0,0,120,10.0,55.0
4185,60.0,0,120,11.0,80.0
4186,46.0,0,192,4.0,38.0
4187,58.0,0,192,4.0,38.0
4188,65.0,0,120,10.0,58.0
4189,62.0,0,120,11.0,80.0
4190,77.0,0,120,8.0,58.0
4191,38.0,120,120,13.0,58.0
4192,63.0,0,120,10.0,62.0
4193,63.0,0,120,11.0,80.0
4194,48.0,0,120,13.0,62.0
4195,75.0,120,120,8.0,62.0
4196,58.0,0,192,4.0,45.0
4197,46.0,0,192,4.0,45.0
4198,62.0,0,120,10.0,66.0
4199,65.0,0,0,11.0,80.0
4200,74.0,0,120,8.0,66.0
4201,46.0,0,120,13.0,66.0
4202,82.0,0,120,1.0,49.0
4203,62.0,0,120,3.0,59.0
4204,58.0,120,120,3.0,59.0
4205,86.0,0,120,0.0,59.0
4206,72.0,0,120,8.0,70.0
4207,60.0,0,120,10.0,70.0
4208,74.0,0,120,2.0,49.0
4209,70.0,0,120,2.0,49.0
4210,56.0,0,120,13.0,90.0
4211,63.0,0,72,3.0,62.0
4212,58.0,0,72,3.0,62.0
4213,87.0,120,72,0.0,62.0
4214,82.0,0,72,1.0,52.0
4215,58.0,0,192,4.0,52.0
4216,70.0,0,72,2.0,52.0
4217,75.0,0,72,2.0,52.0
4218,46.0,0,192,4.0,52.0
4219,55.0,0,120,13.0,73.0
4220,70.0,0,120,8.0,73.0
4221,67.0,0,120,11.0,80.0
4222,58.0,0,120,10.0,73.0
4223,56.0,0,120,10.0,77.0
4224,86.0,0,120,1.0,55.0
4225,74.0,0,120,1.0,55.0
4226,62.0,0,120,3.0,66.0
4227,65.0,0,120,3.0,66.0
4228,68.0,0,120,8.0,77.0
4229,68.0,0,120,11.0,100.0
4230,53.0,120,120,13.0,77.0
4231,77.0,0,120,2.0,55.0
4232,74.0,0,120,2.0,55.0
4233,89.0,0,120,0.0,66.0
4234,67.0,0,72,2.0,58.0
4235,91.0,0,72,0.0,70.0
4236,63.0,0,72,3.0,70.0
4237,67.0,0,72,3.0,70.0
4238,79.0,0,72,1.0,70.0
4239,79.0,0,72,2.0,58.0
4240,46.0,0,216,4.0,60.0
4241,58.0,0,216,4.0,60.0
4242,51.0,0,120,13.0,80.0
4243,67.0,120,120,10.0,104.0
4244,63.0,0,120,11.0,80.0
4245,62.0,0,120,11.0,80.0
4246,82.0,0,120,2.0,61.0
4247,70.0,0,120,2.0,61.0
4248,65.0,0,120,3.0,73.0
4249,62.0,0,120,3.0,73.0
4250,77.0,0,120,1.0,73.0
4251,89.0,120,120,0.0,73.0
4252,65.0,0,120,10.0,104.0
4253,50.0,0,120,13.0,80.0
4254,87.0,0,72,0.0,76.0
4255,58.0,0,192,4.0,67.0
4256,63.0,0,72,3.0,76.0
4257,60.0,0,72,3.0,76.0
4258,75.0,0,72,1.0,76.0
4259,46.0,0,192,4.0,67.0
4260,70.0,0,72,2.0,63.0
4261,82.0,0,72,2.0,63.0
4262,48.0,0,120,13.0,80.0
4263,63.0,0,120,10.0,104.0
4264,60.0,120,120,11.0,80.0
4265,70.0,0,120,2.0,67.0
4266,82.0,120,120,2.0,67.0
4267,62.0,0,120,10.0,104.0
4268,58.0,0,120,3.0,80.0
4269,46.0,0,120,13.0,80.0
4270,86.0,0,120,0.0,80.0
4271,62.0,0,120,3.0,80.0
4272,58.0,0,120,11.0,80.0
4273,74.0,0,120,1.0,80.0
4274,82.0,0,72,2.0,70.0
4275,84.0,120,72,0.0,84.0
4276,70.0,0,72,2.0,70.0
4277,60.0,0,72,3.0,84.0
4278,46.0,0,192,4.0,74.0
4279,57.0,0,72,3.0,84.0
4280,58.0,0,192,4.0,74.0
4281,72.0,0,72,1.0,84.0
4282,67.0,0,114,4.0,74.0
4283,45.0,0,120,13.0,80.0
4284,60.0,0,120,10.0,104.0
4285,57.0,0,120,11.0,80.0
4286,58.0,0,120,10.0,104.0
4287,70.0,0,120,1.0,86.0
4288,58.0,0,120,3.0,86.0
4289,55.0,0,120,3.0,86.0
4290,82.0,0,120,0.0,86.0
4291,43.0,0,120,13.0,80.0
4292,55.0,0,120,11.0,80.0
4293,70.0,120,120,2.0,72.0
4294,82.0,0,120,2.0,72.0
4295,81.0,0,72,0.0,91.0
4296,69.0,120,72,1.0,91.0
4297,53.0,0,72,3.0,91.0
4298,57.0,0,72,3.0,91.0
4299,46.0,0,192,4.0,81.0
4300,58.0,0,192,4.0,81.0
4301,67.0,0,192,4.0,81.0
4302,41.0,0,120,13.0,80.0
4303,57.0,0,120,10.0,104.0
4304,53.0,0,120,11.0,80.0
4305,70.0,0,72,2.0,76.0
4306,82.0,0,72,2.0,76.0
4307,67.0,0,96,4.0,88.0
4308,58.0,0,96,4.0,88.0
4309,46.0,0,96,4.0,88.0
4310,67.0,0,120,1.0,94.0
4311,79.0,0,120,0.0,94.0
4312,51.0,0,120,11.0,80.0
4313,55.0,0,120,3.0,94.0
4314,55.0,0,120,10.0,104.0
4315,39.0,120,120,13.0,80.0
4316,51.0,0,120,3.0,94.0
4317,41.0,0,60,3.0,70.0
4318,53.0,0,60,3.0,70.0
4319,65.0,0,120,1.0,69.0
4320,58.0,120,120,4.0,104.0
4321,77.0,0,120,0.0,83.0
4322,62.0,0,120,4.0,104.0
4323,62.0,0,120,5.0,80.0
4324,74.0,0,120,5.0,80.0
4325,65.0,0,120,8.0,104.0
4326,65.0,0,120,4.0,104.0
4327,70.0,120,1,2.0,64.0
4328,82.0,0,1,2.0,64.0
4329,53.0,0,60,3.0,70.0
4330,65.0,0,60,3.0,70.0
4331,50.0,0,192,6.0,80.0
4332,41.0,0,192,13.0,104.0
4333,53.0,0,192,11.0,104.0
4334,53.0,0,192,10.0,104.0
4335,53.0,0,192,12.0,104.0
4336,62.0,0,60,3.0,70.0
4337,50.0,120,60,3.0,70.0
4338,82.0,0,120,8.0,104.0
4339,74.0,0,120,8.0,104.0
4340,89.0,0,120,0.0,83.0
4341,82.0,0,120,1.0,69.0
4342,86.0,0,120,0.0,83.0
4343,74.0,0,120,1.0,69.0
4344,74.0,0,120,2.0,69.0
4345,70.0,0,120,2.0,69.0
4346,58.0,0,60,3.0,70.0
4347,46.0,120,60,3.0,70.0
4348,65.0,0,192,10.0,104.0
4349,41.0,120,60,3.0,70.0
4350,53.0,0,60,3.0,70.0
4351,72.0,0,120,5.0,80.0
4352,57.0,0,120,5.0,80.0
4353,65.0,0,120,4.0,104.0
4354,60.0,0,120,4.0,104.0
4355,53.0,0,120,4.0,104.0
4356,45.0,0,60,3.0,70.0
4357,57.0,120,60,3.0,70.0
4358,53.0,0,192,13.0,104.0
4359,65.0,0,192,12.0,104.0
4360,45.0,0,192,6.0,80.0
4361,69.0,0,192,11.0,104.0
4362,65.0,0,192,11.0,104.0
4363,60.0,0,192,11.0,104.0
4364,60.0,0,60,3.0,70.0
4365,48.0,0,60,3.0,70.0
4366,89.0,0,120,0.0,83.0
4367,72.0,0,120,8.0,104.0
4368,81.0,0,120,8.0,104.0
4369,72.0,0,120,1.0,69.0
4370,72.0,0,120,2.0,69.0
4371,84.0,0,120,0.0,83.0
4372,81.0,0,120,1.0,69.0
4373,69.0,0,120,2.0,69.0
4374,53.0,120,60,3.0,70.0
4375,65.0,0,60,3.0,70.0
4376,65.0,120,192,10.0,104.0
4377,58.0,120,120,10.0,63.0
4378,60.0,120,72,10.0,63.0
4379,62.0,120,120,10.0,63.0
4380,63.0,120,72,10.0,63.0
4381,65.0,120,120,10.0,63.0
4382,70.0,0,720,2.0,48.0
4383,82.0,0,720,2.0,48.0
4384,67.0,0,72,10.0,63.0
4385,69.0,120,240,2.0,48.0
4386,43.0,120,960,3.0,40.0
4387,69.0,120,120,10.0,63.0
4388,81.0,0,240,2.0,48.0
4389,55.0,0,960,3.0,40.0
4390,58.0,0,1056,4.0,48.0
4391,46.0,0,1056,4.0,48.0
4392,68.0,0,102,2.0,48.0
4393,80.0,0,102,2.0,48.0
4394,53.0,120,102,3.0,48.0
4395,65.0,0,102,3.0,48.0
4396,70.0,0,144,10.0,63.0
4397,67.0,0,120,2.0,48.0
4398,79.0,0,120,2.0,48.0
4399,58.0,120,120,11.0,50.0
4400,70.0,0,120,8.0,50.0
4401,63.0,0,120,3.0,48.0
4402,51.0,0,120,3.0,48.0
4403,58.0,0,192,4.0,38.0
4404,46.0,0,192,4.0,38.0
4405,72.0,0,72,8.0,50.0
4406,60.0,0,72,11.0,50.0
4407,77.0,0,102,2.0,48.0
4408,65.0,0,102,2.0,48.0
4409,50.0,120,102,3.0,48.0
4410,62.0,0,102,3.0,48.0
4411,75.0,0,120,2.0,48.0
4412,74.0,0,120,8.0,50.0
4413,63.0,0,120,2.0,48.0
4414,62.0,0,120,11.0,50.0
4415,48.0,0,120,3.0,48.0
4416,60.0,0,120,3.0,48.0
4417,46.0,120,192,4.0,45.0
4418,63.0,120,72,11.0,50.0
4419,75.0,0,72,8.0,50.0
4420,58.0,0,192,4.0,45.0
4421,58.0,0,102,3.0,48.0
4422,46.0,0,102,3.0,48.0
4423,74.0,0,102,2.0,48.0
4424,62.0,0,102,2.0,48.0
4425,77.0,0,120,8.0,50.0
4426,60.0,0,120,2.0,48.0
4427,72.0,0,120,2.0,48.0
4428,65.0,0,120,11.0,50.0
4429,56.0,0,120,3.0,48.0
4430,86.0,0,120,0.0,68.0
4431,44.0,120,120,3.0,48.0
4432,46.0,0,192,4.0,52.0
4433,79.0,120,72,8.0,50.0
4434,58.0,0,192,4.0,52.0
4435,67.0,0,72,11.0,50.0
4436,70.0,0,102,2.0,48.0
4437,43.0,0,102,3.0,48.0
4438,55.0,0,102,3.0,48.0
4439,58.0,0,102,2.0,48.0
4440,87.0,0,120,0.0,68.0
4441,53.0,0,120,3.0,48.0
4442,41.0,120,120,3.0,48.0
4443,56.0,0,120,2.0,48.0
4444,68.0,0,120,2.0,48.0
4445,89.0,0,120,0.0,68.0
4446,68.0,0,120,11.0,50.0
4447,80.0,0,120,8.0,50.0
4448,58.0,0,234,4.0,60.0
4449,46.0,0,234,4.0,60.0
4450,79.0,0,144,8.0,50.0
4451,67.0,120,144,11.0,50.0
4452,55.0,120,120,12.0,39.0
4453,67.0,0,120,10.0,39.0
4454,56.0,120,72,12.0,42.0
4455,68.0,0,72,10.0,42.0
4456,70.0,120,120,10.0,45.0
4457,58.0,0,120,12.0,45.0
4458,60.0,120,72,12.0,49.0
4459,72.0,0,72,10.0,49.0
4460,67.0,0,720,2.0,48.0
4461,79.0,0,720,2.0,48.0
4462,62.0,0,120,12.0,52.0
4463,91.0,0,720,0.0,48.0
4464,74.0,120,120,10.0,52.0
4465,79.0,0,720,0.0,48.0
4466,75.0,0,72,10.0,56.0
4467,63.0,0,72,12.0,56.0
4468,90.0,0,240,0.0,48.0
4469,78.0,0,240,0.0,48.0
4470,77.0,0,120,10.0,59.0
4471,66.0,120,240,2.0,48.0
4472,39.0,0,960,3.0,40.0
4473,78.0,0,240,2.0,48.0
4474,65.0,120,120,12.0,59.0
4475,51.0,0,960,3.0,40.0
4476,79.0,0,1056,1.0,40.0
4477,67.0,0,1056,1.0,40.0
4478,67.0,0,1056,4.0,62.0
4479,50.0,0,102,3.0,48.0
4480,62.0,0,102,3.0,48.0
4481,77.0,0,102,0.0,38.0
4482,65.0,120,102,2.0,38.0
4483,77.0,0,102,2.0,38.0
4484,89.0,0,102,0.0,38.0
4485,79.0,0,144,10.0,63.0
4486,67.0,0,144,12.0,63.0
4487,87.0,0,120,0.0,42.0
4488,67.0,0,120,11.0,51.0
4489,75.0,0,120,0.0,42.0
4490,75.0,0,120,2.0,42.0
4491,79.0,0,120,8.0,51.0
4492,48.0,0,120,3.0,48.0
4493,60.0,0,120,3.0,48.0
4494,63.0,120,120,2.0,42.0
4495,67.0,0,192,1.0,40.0
4496,79.0,0,192,1.0,40.0
4497,67.0,0,192,4.0,49.0
4498,69.0,120,72,11.0,55.0
4499,81.0,0,72,8.0,55.0
4500,62.0,0,102,2.0,46.0
4501,59.0,0,102,3.0,48.0
4502,47.0,0,102,3.0,48.0
4503,86.0,0,102,0.0,46.0
4504,74.0,0,102,0.0,46.0
4505,74.0,0,102,2.0,46.0
4506,83.0,0,120,8.0,59.0
4507,60.0,0,120,2.0,50.0
4508,72.0,0,120,2.0,50.0
4509,56.0,0,120,3.0,48.0
4510,72.0,0,120,0.0,50.0
4511,44.0,0,120,3.0,48.0
4512,71.0,0,120,11.0,59.0
4513,84.0,0,120,0.0,50.0
4514,72.0,0,72,11.0,64.0
4515,67.0,0,192,1.0,40.0
4516,79.0,0,192,1.0,40.0
4517,67.0,120,192,4.0,59.0
4518,84.0,0,72,8.0,64.0
4519,71.0,120,102,2.0,54.0
4520,59.0,0,102,2.0,54.0
4521,83.0,0,102,0.0,54.0
4522,55.0,0,102,3.0,48.0
4523,71.0,0,102,0.0,54.0
4524,43.0,0,102,3.0,48.0
4525,68.0,0,120,0.0,58.0
4526,53.0,0,120,3.0,48.0
4527,41.0,0,120,3.0,48.0
4528,74.0,0,120,11.0,68.0
4529,68.0,0,120,2.0,58.0
4530,56.0,120,120,2.0,58.0
4531,86.0,0,120,8.0,68.0
4532,80.0,0,120,0.0,58.0
4533,67.0,0,192,4.0,68.0
4534,79.0,0,192,1.0,40.0
4535,67.0,0,192,1.0,40.0
4536,87.0,0,72,8.0,73.0
4537,75.0,0,72,11.0,73.0
4538,39.0,0,102,3.0,48.0
4539,79.0,0,102,0.0,62.0
4540,55.0,120,102,2.0,62.0
4541,67.0,0,102,2.0,62.0
4542,67.0,0,102,0.0,62.0
4543,51.0,0,102,3.0,48.0
4544,77.0,0,96,1.0,40.0
4545,65.0,0,96,1.0,40.0
4546,38.0,0,120,3.0,48.0
4547,50.0,0,120,3.0,48.0
4548,89.0,0,120,8.0,77.0
4549,77.0,120,120,11.0,77.0
4550,65.0,0,120,0.0,66.0
4551,65.0,0,120,2.0,66.0
4552,77.0,0,120,0.0,66.0
4553,53.0,0,120,2.0,66.0
4554,75.0,0,90,0.0,48.0
4555,63.0,0,90,2.0,48.0
4556,51.0,0,90,2.0,48.0
4557,48.0,0,90,3.0,48.0
4558,36.0,0,90,3.0,48.0
4559,63.0,0,90,1.0,48.0
4560,75.0,0,90,1.0,48.0
4561,65.0,0,216,4.0,78.0
4562,53.0,0,1,4.0,64.0
4563,41.0,96,1,4.0,64.0
4564,75.0,0,144,11.0,63.0
4565,65.0,0,120,1.0,48.0
4566,53.0,0,120,2.0,48.0
4567,65.0,0,120,0.0,48.0
4568,41.0,24,120,3.0,48.0
4569,67.0,120,90,1.0,48.0
4570,67.0,0,90,0.0,48.0
4571,43.0,0,90,3.0,48.0
4572,55.0,0,90,2.0,48.0
4573,65.0,0,216,4.0,78.0
4574,41.0,0,216,4.0,78.0
4575,53.0,0,216,4.0,78.0
4576,69.0,0,120,1.0,48.0
4577,57.0,0,120,2.0,48.0
4578,45.0,0,120,3.0,48.0
4579,69.0,0,120,0.0,48.0
4580,58.0,0,90,2.0,48.0
4581,70.0,120,90,0.0,48.0
4582,46.0,0,90,3.0,48.0
4583,70.0,0,90,1.0,48.0
4584,41.0,120,216,4.0,78.0
4585,53.0,0,216,4.0,78.0
4586,65.0,0,216,4.0,78.0
4587,48.0,0,120,3.0,48.0
4588,60.0,0,120,2.0,48.0
4589,48.0,0,720,13.0,62.0
4590,75.0,0,720,10.0,78.0
4591,72.0,0,120,1.0,48.0
4592,60.0,0,720,12.0,62.0
4593,72.0,120,120,0.0,48.0
4594,87.0,120,720,8.0,78.0
4595,62.0,0,90,2.0,48.0
4596,50.0,0,90,3.0,48.0
4597,74.0,0,90,1.0,48.0
4598,74.0,0,90,0.0,48.0
4599,53.0,0,216,4.0,78.0
4600,65.0,0,216,4.0,78.0
4601,41.0,0,216,4.0,78.0
4602,46.0,120,240,13.0,80.0
4603,86.0,0,240,8.0,100.0
4604,58.0,0,240,12.0,80.0
4605,74.0,0,240,10.0,100.0
4606,75.0,0,120,0.0,48.0
4607,51.0,0,120,3.0,48.0
4608,75.0,0,120,1.0,48.0
4609,63.0,0,120,2.0,48.0
4610,65.0,0,90,2.0,40.0
4611,53.0,0,90,3.0,40.0
4612,77.0,0,90,1.0,40.0
4613,77.0,0,90,0.0,40.0
4614,45.0,0,96,13.0,86.0
4615,41.0,120,216,4.0,78.0
4616,84.0,120,96,8.0,108.0
4617,57.0,0,96,12.0,86.0
4618,65.0,0,216,4.0,78.0
4619,72.0,0,96,10.0,108.0
4620,53.0,0,216,4.0,78.0
4621,82.0,0,120,8.0,113.0
4622,79.0,0,120,0.0,44.0
4623,67.0,0,120,2.0,44.0
4624,70.0,0,120,10.0,113.0
4625,55.0,0,120,12.0,90.0
4626,55.0,0,120,3.0,44.0
4627,43.0,0,120,13.0,90.0
4628,79.0,0,120,1.0,44.0
4629,81.0,0,90,0.0,47.0
4630,81.0,0,90,1.0,47.0
4631,69.0,0,90,2.0,47.0
4632,57.0,0,90,3.0,47.0
4633,41.0,0,96,13.0,93.0
4634,69.0,0,96,10.0,116.0
4635,53.0,0,216,4.0,78.0
4636,41.0,0,216,4.0,78.0
4637,65.0,120,216,4.0,78.0
4638,53.0,0,96,12.0,93.0
4639,81.0,120,96,8.0,116.0
4640,82.0,0,120,1.0,51.0
4641,79.0,0,120,8.0,120.0
4642,58.0,0,120,3.0,51.0
4643,39.0,0,120,13.0,96.0
4644,67.0,0,120,10.0,120.0
4645,82.0,0,120,0.0,51.0
4646,70.0,120,120,2.0,51.0
4647,51.0,0,120,12.0,96.0
4648,84.0,120,90,1.0,55.0
4649,84.0,0,90,0.0,55.0
4650,72.0,0,90,2.0,55.0
4651,60.0,0,90,3.0,55.0
4652,38.0,0,96,13.0,99.0
4653,65.0,0,96,10.0,124.0
4654,77.0,0,96,8.0,124.0
4655,65.0,0,216,4.0,78.0
4656,53.0,0,216,4.0,78.0
4657,41.0,0,216,4.0,78.0
4658,50.0,0,96,12.0,99.0
4659,86.0,0,120,0.0,59.0
4660,75.0,0,120,8.0,127.0
4661,63.0,120,120,10.0,127.0
4662,36.0,0,120,13.0,102.0
4663,86.0,0,120,1.0,59.0
4664,74.0,0,120,2.0,59.0
4665,62.0,0,120,3.0,59.0
4666,48.0,0,120,12.0,102.0
4667,63.0,0,90,3.0,62.0
4668,75.0,0,90,2.0,62.0
4669,87.0,120,90,0.0,62.0
4670,87.0,0,90,1.0,62.0
4671,34.0,0,96,13.0,106.0
4672,46.0,0,96,12.0,106.0
4673,74.0,0,96,8.0,127.0
4674,53.0,0,216,4.0,78.0
4675,41.0,0,216,4.0,78.0
4676,62.0,0,96,10.0,127.0
4677,65.0,0,216,4.0,78.0
4678,41.0,120,96,4.0,78.0
4679,53.0,0,96,4.0,78.0
4680,65.0,0,96,4.0,78.0
4681,60.0,0,120,10.0,127.0
4682,89.0,0,120,1.0,66.0
4683,89.0,0,120,0.0,66.0
4684,33.0,0,120,13.0,109.0
4685,65.0,0,120,3.0,66.0
4686,72.0,0,120,8.0,127.0
4687,77.0,0,120,2.0,66.0
4688,45.0,0,120,12.0,109.0
4689,77.0,0,120,2.0,102.0
4690,38.0,0,120,13.0,127.0
4691,50.0,0,120,3.0,127.0
4692,65.0,0,120,4.0,127.0
4693,50.0,0,120,6.0,127.0
4694,50.0,0,120,12.0,127.0
4695,58.0,0,120,11.0,127.0
4696,70.0,0,120,2.0,102.0
4697,89.0,0,120,0.0,82.0
4698,77.0,0,120,8.0,127.0
4699,62.0,0,120,5.0,127.0
4700,82.0,120,120,0.0,82.0
4701,74.0,0,120,5.0,127.0
4702,70.0,0,120,1.0,102.0
4703,77.0,0,120,1.0,102.0
4704,58.0,0,120,4.0,127.0
4705,70.0,0,120,10.0,127.0
4706,46.0,0,120,4.0,127.0
4707,64.0,0,90,4.0,127.0
4708,70.0,0,90,11.0,127.0
4709,46.0,0,90,4.0,127.0
4710,58.0,0,90,4.0,127.0
4711,82.0,0,90,0.0,82.0
4712,76.0,0,90,8.0,127.0
4713,88.0,0,90,0.0,82.0
4714,50.0,240,90,12.0,127.0
4715,76.0,0,90,1.0,102.0
4716,50.0,0,90,6.0,127.0
4717,50.0,0,90,3.0,127.0
4718,70.0,0,90,2.0,102.0
4719,70.0,0,90,1.0,102.0
4720,38.0,0,90,13.0,127.0
4721,58.0,0,90,10.0,127.0
4722,74.0,0,90,5.0,127.0
4723,62.0,0,90,5.0,127.0
4724,76.0,0,90,2.0,102.0
4725,70.0,180,30,2.0,102.0
4726,70.0,0,30,1.0,102.0
4727,38.0,0,30,13.0,127.0
4728,76.0,0,30,8.0,127.0
4729,74.0,0,30,5.0,127.0
4730,76.0,0,30,1.0,102.0
4731,76.0,0,30,2.0,102.0
4732,58.0,0,30,4.0,127.0
4733,50.0,0,30,3.0,127.0
4734,50.0,0,30,6.0,127.0
4735,64.0,0,30,4.0,127.0
4736,46.0,0,30,4.0,127.0
4737,58.0,0,30,10.0,127.0
4738,50.0,0,30,12.0,127.0
4739,70.0,0,30,11.0,127.0
4740,62.0,0,30,5.0,127.0
4741,82.0,0,30,0.0,82.0
4742,88.0,0,30,0.0,82.0
4743,77.0,0,120,1.0,102.0
4744,50.0,0,120,12.0,127.0
4745,89.0,0,120,0.0,82.0
4746,82.0,0,120,0.0,82.0
4747,50.0,0,120,3.0,127.0
4748,70.0,0,120,1.0,102.0
4749,70.0,0,120,2.0,102.0
4750,77.0,0,120,8.0,127.0
4751,50.0,0,120,6.0,127.0
4752,58.0,0,120,4.0,127.0
4753,46.0,0,120,4.0,127.0
4754,65.0,60,120,4.0,127.0
4755,58.0,0,120,11.0,127.0
4756,62.0,0,120,5.0,127.0
4757,74.0,0,120,5.0,127.0
4758,38.0,0,120,13.0,127.0
4759,77.0,0,120,2.0,102.0
4760,70.0,0,120,10.0,127.0
4761,82.0,0,120,0.0,82.0
4762,67.0,0,120,4.0,127.0
4763,79.0,0,120,8.0,127.0
4764,70.0,0,120,1.0,102.0
4765,79.0,0,120,2.0,102.0
4766,70.0,0,120,2.0,102.0
4767,79.0,0,120,1.0,102.0
4768,51.0,480,120,12.0,127.0
4769,91.0,0,120,0.0,82.0
4770,46.0,0,120,4.0,127.0
4771,39.0,0,120,13.0,127.0
4772,58.0,0,120,4.0,127.0
4773,70.0,0,120,10.0,127.0
4774,51.0,0,120,3.0,127.0
4775,58.0,0,120,11.0,127.0
4776,58.0,0,90,4.0,127.0
4777,46.0,240,90,4.0,127.0
4778,50.0,0,90,3.0,127.0
4779,66.0,0,90,4.0,127.0
4780,50.0,0,90,12.0,127.0
4781,82.0,0,90,0.0,82.0
4782,78.0,0,90,8.0,127.0
4783,78.0,0,90,2.0,102.0
4784,70.0,0,90,2.0,102.0
4785,58.0,0,90,10.0,127.0
4786,90.0,0,90,0.0,82.0
4787,70.0,0,90,11.0,127.0
4788,78.0,0,90,1.0,102.0
4789,38.0,0,90,13.0,127.0
4790,70.0,0,90,1.0,102.0
4791,58.0,0,30,4.0,127.0
4792,46.0,0,30,4.0,127.0
4793,70.0,0,30,1.0,102.0
4794,78.0,0,30,1.0,102.0
4795,78.0,0,30,2.0,102.0
4796,70.0,0,30,2.0,102.0
4797,50.0,0,30,3.0,127.0
4798,58.0,0,30,10.0,127.0
4799,50.0,0,30,12.0,127.0
4800,38.0,180,30,13.0,127.0
4801,70.0,0,30,11.0,127.0
4802,66.0,0,30,4.0,127.0
4803,82.0,0,30,0.0,82.0
4804,78.0,0,30,8.0,127.0
4805,90.0,0,30,0.0,82.0
4806,58.0,0,120,4.0,127.0
4807,58.0,0,120,11.0,127.0
4808,79.0,0,120,8.0,127.0
4809,46.0,60,120,4.0,127.0
4810,91.0,0,120,0.0,82.0
4811,79.0,0,120,2.0,102.0
4812,70.0,0,120,2.0,102.0
4813,39.0,0,120,13.0,127.0
4814,70.0,0,120,10.0,127.0
4815,67.0,0,120,4.0,127.0
4816,51.0,0,120,12.0,127.0
4817,79.0,0,120,1.0,102.0
4818,70.0,0,120,1.0,102.0
4819,82.0,0,120,0.0,82.0
4820,51.0,0,120,3.0,127.0
4821,79.0,0,720,2.0,40.0
4822,81.0,720,120,2.0,40.0
4823,70.0,120,0,2.0,40.0
4824,63.0,0,960,3.0,45.0
4825,51.0,0,960,3.0,45.0
4826,82.0,120,120,2.0,40.0
4827,74.0,0,480,2.0,40.0
4828,86.0,0,480,0.0,72.0
4829,84.0,0,240,0.0,72.0
4830,72.0,0,240,8.0,48.0
4831,74.0,240,120,8.0,48.0
4832,86.0,0,120,0.0,72.0
4833,69.0,0,480,2.0,40.0
4834,87.0,0,120,0.0,72.0
4835,72.0,480,480,2.0,40.0
4836,65.0,0,960,3.0,45.0
4837,53.0,0,960,3.0,45.0
4838,75.0,120,120,8.0,48.0
4839,70.0,0,120,2.0,102.0
4840,65.0,0,120,4.0,127.0
4841,62.0,0,120,5.0,127.0
4842,70.0,0,120,10.0,127.0
4843,58.0,0,120,11.0,127.0
4844,50.0,0,120,3.0,127.0
4845,50.0,0,120,6.0,127.0
4846,70.0,0,120,1.0,102.0
4847,77.0,120,120,2.0,102.0
4848,50.0,0,120,12.0,127.0
4849,77.0,0,120,1.0,102.0
4850,46.0,0,120,4.0,127.0
4851,77.0,0,120,8.0,127.0
4852,74.0,0,120,5.0,127.0
4853,89.0,0,120,0.0,82.0
4854,82.0,0,120,0.0,82.0
4855,38.0,0,120,13.0,127.0
4856,58.0,0,120,4.0,127.0
4857,38.0,0,90,13.0,127.0
4858,62.0,0,90,5.0,127.0
4859,50.0,0,90,3.0,127.0
4860,76.0,0,90,8.0,127.0
4861,88.0,0,90,0.0,82.0
4862,82.0,0,90,0.0,82.0
4863,50.0,240,90,12.0,127.0
4864,76.0,0,90,1.0,102.0
4865,70.0,0,90,1.0,102.0
4866,64.0,0,90,4.0,127.0
4867,58.0,0,90,10.0,127.0
4868,70.0,0,90,11.0,127.0
4869,50.0,0,90,6.0,127.0
4870,74.0,0,90,5.0,127.0
4871,46.0,0,90,4.0,127.0
4872,58.0,0,90,4.0,127.0
4873,76.0,0,90,2.0,102.0
4874,70.0,0,90,2.0,102.0
4875,70.0,180,30,11.0,127.0
4876,58.0,0,30,10.0,127.0
4877,76.0,0,30,2.0,102.0
4878,50.0,0,30,3.0,127.0
4879,70.0,0,30,2.0,102.0
4880,62.0,0,30,5.0,127.0
4881,74.0,0,30,5.0,127.0
4882,64.0,0,30,4.0,127.0
4883,50.0,0,30,6.0,127.0
4884,76.0,0,30,8.0,127.0
4885,50.0,0,30,12.0,127.0
4886,46.0,0,30,4.0,127.0
4887,58.0,0,30,4.0,127.0
4888,38.0,0,30,13.0,127.0
4889,76.0,0,30,1.0,102.0
4890,82.0,0,30,0.0,82.0
4891,88.0,0,30,0.0,82.0
4892,70.0,0,30,1.0,102.0
4893,50.0,0,120,12.0,127.0
4894,38.0,0,120,13.0,127.0
4895,65.0,0,120,4.0,127.0
4896,82.0,0,120,0.0,82.0
4897,50.0,0,120,6.0,127.0
4898,70.0,0,120,2.0,102.0
4899,77.0,0,120,1.0,102.0
4900,46.0,60,120,4.0,127.0
4901,58.0,0,120,4.0,127.0
4902,77.0,0,120,8.0,127.0
4903,77.0,0,120,2.0,102.0
4904,74.0,0,120,5.0,127.0
4905,50.0,0,120,3.0,127.0
4906,58.0,0,120,11.0,127.0
4907,70.0,0,120,10.0,127.0
4908,70.0,0,120,1.0,102.0
4909,89.0,0,120,0.0,82.0
4910,62.0,0,120,5.0,127.0
4911,70.0,0,120,10.0,127.0
4912,78.0,0,120,1.0,102.0
4913,70.0,480,120,1.0,102.0
4914,51.0,0,120,12.0,127.0
4915,39.0,0,120,13.0,127.0
4916,58.0,0,120,11.0,127.0
4917,82.0,0,120,0.0,82.0
4918,46.0,0,120,4.0,127.0
4919,51.0,0,120,3.0,127.0
4920,90.0,0,120,0.0,82.0
4921,58.0,0,120,4.0,127.0
4922,78.0,0,120,8.0,127.0
4923,78.0,0,120,2.0,102.0
4924,70.0,0,120,2.0,102.0
4925,66.0,0,120,4.0,127.0
4926,77.0,0,90,2.0,102.0
4927,58.0,0,90,10.0,127.0
4928,70.0,0,90,11.0,127.0
4929,38.0,0,90,13.0,127.0
4930,50.0,0,90,12.0,127.0
4931,70.0,0,90,2.0,102.0
4932,77.0,0,90,8.0,127.0
4933,77.0,0,90,1.0,102.0
4934,70.0,240,90,1.0,102.0
4935,50.0,0,90,3.0,127.0
4936,82.0,0,90,0.0,82.0
4937,58.0,0,90,4.0,127.0
4938,89.0,0,90,0.0,82.0
4939,46.0,0,90,4.0,127.0
4940,65.0,0,90,4.0,127.0
4941,46.0,0,30,4.0,127.0
4942,58.0,0,30,4.0,127.0
4943,58.0,0,30,10.0,127.0
4944,77.0,0,30,1.0,102.0
4945,70.0,0,30,2.0,102.0
4946,50.0,0,30,3.0,127.0
4947,77.0,180,30,2.0,102.0
4948,77.0,0,30,8.0,127.0
4949,89.0,0,30,0.0,82.0
4950,82.0,0,30,0.0,82.0
4951,50.0,0,30,12.0,127.0
4952,38.0,0,30,13.0,127.0
4953,70.0,0,30,1.0,102.0
4954,65.0,0,30,4.0,127.0
4955,70.0,0,30,11.0,127.0
4956,57.0,0,480,7.0,1.0
4957,78.0,0,120,8.0,127.0
4958,58.0,0,120,11.0,127.0
4959,70.0,0,120,2.0,102.0
4960,78.0,0,120,2.0,102.0
4961,46.0,0,120,4.0,127.0
4962,78.0,0,120,1.0,102.0
4963,82.0,0,120,0.0,82.0
4964,51.0,0,120,3.0,127.0
4965,66.0,0,120,4.0,127.0
4966,58.0,0,120,4.0,127.0
4967,90.0,0,120,0.0,82.0
4968,70.0,0,120,1.0,102.0
4969,70.0,0,120,10.0,127.0
4970,51.0,0,120,12.0,127.0
4971,39.0,60,120,13.0,127.0
4972,59.0,0,480,7.0,1.0
4973,64.0,0,480,7.0,1.0
4974,78.0,600,480,8.0,29.0
4975,63.0,0,480,11.0,29.0
4976,80.0,480,240,8.0,29.0
4977,82.0,240,120,8.0,29.0
4978,71.0,0,960,10.0,29.0
4979,83.0,120,120,8.0,29.0
4980,64.0,0,480,11.0,29.0
4981,83.0,0,960,0.0,48.0
4982,71.0,0,480,10.0,29.0
4983,75.0,120,480,8.0,29.0
4984,85.0,480,240,0.0,48.0
4985,70.0,0,240,10.0,29.0
4986,73.0,0,240,8.0,29.0
4987,87.0,0,120,0.0,48.0
4988,66.0,0,960,11.0,29.0
4989,66.0,240,240,10.0,29.0
4990,78.0,0,0,8.0,32.0
4991,88.0,120,120,0.0,48.0
4992,59.0,0,120,11.0,51.0
4993,90.0,0,240,0.0,38.0
4994,58.0,240,90,11.0,51.0
4995,58.0,180,30,11.0,51.0
4996,59.0,0,120,11.0,51.0
4997,47.0,60,120,12.0,51.0
4998,46.0,240,90,12.0,51.0
4999,46.0,180,30,12.0,51.0
5000,63.0,120,960,3.0,38.0
5001,59.0,0,120,11.0,51.0
5002,47.0,60,120,12.0,51.0
5003,58.0,240,90,11.0,51.0
5004,35.0,0,384,15.0,40.0
5005,58.0,180,30,11.0,51.0
5006,59.0,60,120,11.0,51.0
5007,47.0,0,120,12.0,51.0
5008,46.0,240,90,12.0,51.0
5009,46.0,180,30,12.0,51.0
5010,75.0,0,1920,10.0,32.0
5011,66.0,0,960,3.0,38.0
5012,83.0,0,960,8.0,32.0
5013,47.0,60,120,12.0,51.0
5014,59.0,0,120,11.0,51.0
5015,58.0,240,90,11.0,51.0
5016,35.0,0,384,15.0,40.0
5017,58.0,180,30,11.0,51.0
5018,59.0,0,120,11.0,51.0
5019,47.0,60,120,12.0,51.0
5020,46.0,240,90,12.0,51.0
5021,46.0,180,30,12.0,51.0
5022,76.0,0,960,10.0,22.0
5023,64.0,0,960,3.0,38.0
5024,85.0,0,960,0.0,38.0
5025,73.0,0,960,8.0,32.0
5026,59.0,60,120,11.0,51.0
5027,47.0,0,120,12.0,51.0
5028,46.0,0,90,12.0,51.0
5029,58.0,240,90,11.0,51.0
5030,35.0,0,384,15.0,40.0
5031,58.0,0,30,11.0,51.0
5032,46.0,180,30,12.0,51.0
5033,59.0,60,120,11.0,51.0
5034,47.0,0,120,12.0,51.0
5035,35.0,0,226,15.0,40.0
5036,58.0,240,90,11.0,51.0
5037,46.0,0,90,12.0,51.0
5038,58.0,180,30,11.0,51.0
5039,46.0,0,30,12.0,51.0
5040,34.0,0,226,15.0,40.0
5041,64.0,0,960,10.0,32.0
5042,61.0,0,960,10.0,32.0
5043,78.0,0,0,8.0,32.0
5044,61.0,0,960,3.0,38.0
5045,66.0,0,120,11.0,32.0
5046,54.0,0,120,12.0,32.0
5047,78.0,0,672,1.0,42.0
5048,66.0,60,192,3.0,37.0
5049,90.0,0,1152,0.0,38.0
5050,54.0,0,192,3.0,37.0
5051,64.0,0,120,11.0,32.0
5052,64.0,0,120,12.0,32.0
5053,76.0,120,120,8.0,32.0
5054,75.0,0,120,8.0,32.0
5055,63.0,0,120,12.0,32.0
5056,63.0,120,120,11.0,32.0
5057,42.0,0,384,15.0,40.0
5058,73.0,120,120,8.0,32.0
5059,61.0,0,120,12.0,32.0
5060,61.0,0,120,11.0,32.0
5061,59.0,0,120,11.0,32.0
5062,59.0,0,120,12.0,32.0
5063,71.0,0,120,8.0,32.0
5064,71.0,120,192,1.0,39.0
5065,59.0,0,192,3.0,31.0
5066,47.0,0,192,3.0,31.0
5067,83.0,0,192,0.0,39.0
5068,70.0,0,120,8.0,32.0
5069,58.0,0,120,11.0,32.0
5070,58.0,120,120,12.0,32.0
5071,68.0,0,120,8.0,32.0
5072,56.0,120,120,11.0,32.0
5073,56.0,0,120,12.0,32.0
5074,66.0,120,120,8.0,32.0
5075,54.0,0,120,12.0,32.0
5076,54.0,0,120,11.0,32.0
5077,64.0,0,120,8.0,32.0
5078,52.0,120,120,12.0,32.0
5079,52.0,0,120,11.0,32.0
5080,71.0,0,192,1.0,39.0
5081,59.0,0,192,3.0,31.0
5082,83.0,0,192,0.0,39.0
5083,47.0,0,192,3.0,31.0
5084,63.0,120,120,8.0,32.0
5085,51.0,0,120,12.0,32.0
5086,51.0,0,120,11.0,32.0
5087,49.0,0,120,12.0,32.0
5088,61.0,0,120,8.0,32.0
5089,49.0,120,120,11.0,32.0
5090,47.0,0,120,12.0,32.0
5091,59.0,0,120,8.0,32.0
5092,47.0,120,120,11.0,32.0
5093,58.0,0,120,8.0,32.0
5094,46.0,120,120,12.0,32.0
5095,46.0,0,120,11.0,32.0
5096,82.0,0,192,0.0,39.0
5097,58.0,0,192,3.0,31.0
5098,46.0,0,192,3.0,31.0
5099,70.0,0,192,2.0,31.0
5100,58.0,0,192,2.0,31.0
5101,70.0,0,192,1.0,39.0
5102,59.0,0,120,8.0,32.0
5103,47.0,0,120,12.0,32.0
5104,47.0,120,120,11.0,32.0
5105,58.0,0,120,8.0,32.0
5106,46.0,0,120,12.0,32.0
5107,46.0,120,0,11.0,32.0
5108,34.0,0,192,15.0,40.0
5109,46.0,0,240,12.0,32.0
5110,58.0,0,240,8.0,32.0
5111,81.0,0,192,0.0,39.0
5112,57.0,120,192,2.0,31.0
5113,69.0,0,192,2.0,31.0
5114,69.0,0,192,1.0,39.0
5115,45.0,120,120,11.0,32.0
5116,57.0,0,120,8.0,32.0
5117,57.0,0,240,3.0,31.0
5118,45.0,0,240,3.0,31.0
5119,45.0,0,120,12.0,32.0
5120,52.0,0,120,12.0,32.0
5121,65.0,0,120,3.0,37.0
5122,53.0,0,120,3.0,37.0
5123,64.0,120,120,8.0,32.0
5124,52.0,0,120,11.0,32.0
5125,33.0,0,192,15.0,40.0
5126,65.0,0,120,8.0,32.0
5127,53.0,120,120,12.0,32.0
5128,53.0,0,120,11.0,32.0
5129,66.0,0,120,8.0,32.0
5130,54.0,0,120,12.0,32.0
5131,54.0,0,120,11.0,32.0
5132,52.0,120,120,11.0,32.0
5133,66.0,0,240,2.0,38.0
5134,78.0,120,240,1.0,38.0
5135,64.0,0,120,8.0,32.0
5136,52.0,0,120,12.0,32.0
5137,53.0,0,120,4.0,42.0
5138,77.0,0,120,1.0,33.0
5139,65.0,0,120,4.0,42.0
5140,53.0,120,120,11.0,32.0
5141,65.0,0,120,2.0,33.0
5142,53.0,0,120,12.0,32.0
5143,65.0,0,120,8.0,32.0
5144,33.0,0,192,15.0,40.0
5145,45.0,120,120,11.0,32.0
5146,45.0,0,120,12.0,32.0
5147,57.0,0,120,8.0,32.0
5148,46.0,0,120,11.0,32.0
5149,58.0,0,120,8.0,32.0
5150,46.0,0,120,12.0,32.0
5151,58.0,0,240,3.0,37.0
5152,56.0,0,120,12.0,32.0
5153,56.0,120,120,11.0,32.0
5154,68.0,0,120,8.0,32.0
5155,46.0,120,240,3.0,37.0
5156,54.0,0,120,12.0,32.0
5157,58.0,0,120,4.0,42.0
5158,66.0,0,120,8.0,32.0
5159,46.0,0,120,4.0,42.0
5160,54.0,0,120,11.0,32.0
5161,67.0,120,120,3.0,37.0
5162,55.0,0,120,3.0,37.0
5163,34.0,0,192,15.0,40.0
5164,55.0,0,120,12.0,32.0
5165,55.0,0,120,11.0,32.0
5166,67.0,120,120,8.0,32.0
5167,58.0,120,120,12.0,32.0
5168,70.0,0,120,8.0,32.0
5169,58.0,0,120,11.0,32.0
5170,82.0,0,240,1.0,38.0
5171,56.0,120,120,12.0,32.0
5172,70.0,0,240,2.0,38.0
5173,56.0,0,120,11.0,32.0
5174,68.0,0,120,8.0,32.0
5175,69.0,0,120,2.0,33.0
5176,57.0,0,120,12.0,32.0
5177,81.0,0,120,1.0,33.0
5178,57.0,0,120,11.0,32.0
5179,65.0,0,120,4.0,42.0
5180,53.0,0,120,4.0,42.0
5181,69.0,0,120,8.0,32.0
5182,36.0,120,192,15.0,40.0
5183,48.0,120,120,11.0,32.0
5184,60.0,0,120,8.0,32.0
5185,48.0,0,120,12.0,32.0
5186,50.0,120,120,11.0,32.0
5187,62.0,0,120,8.0,32.0
5188,50.0,0,120,12.0,32.0
5189,60.0,0,120,11.0,32.0
5190,60.0,0,120,12.0,32.0
5191,72.0,120,120,8.0,32.0
5192,38.0,0,240,3.0,37.0
5193,50.0,0,240,3.0,37.0
5194,57.0,0,120,12.0,32.0
5195,69.0,0,120,8.0,32.0
5196,58.0,0,120,4.0,42.0
5197,58.0,0,120,3.0,37.0
5198,46.0,0,120,4.0,42.0
5199,57.0,120,120,11.0,32.0
5200,46.0,0,120,3.0,37.0
5201,38.0,0,192,15.0,40.0
5202,70.0,0,120,8.0,32.0
5203,58.0,0,120,11.0,32.0
5204,58.0,120,120,12.0,32.0
5205,62.0,0,120,12.0,32.0
5206,62.0,0,120,11.0,32.0
5207,74.0,0,120,8.0,32.0
5208,59.0,0,120,12.0,32.0
5209,86.0,120,240,0.0,46.0
5210,74.0,0,240,1.0,46.0
5211,71.0,120,120,8.0,32.0
5212,59.0,0,120,11.0,32.0
5213,60.0,0,120,11.0,32.0
5214,46.0,0,120,4.0,42.0
5215,58.0,0,120,4.0,42.0
5216,72.0,0,120,1.0,42.0
5217,60.0,0,120,12.0,32.0
5218,84.0,120,120,0.0,42.0
5219,72.0,0,120,8.0,32.0
5220,39.0,0,192,15.0,40.0
5221,63.0,0,120,8.0,32.0
5222,51.0,120,120,12.0,32.0
5223,51.0,0,120,11.0,32.0
5224,63.0,0,120,11.0,32.0
5225,75.0,120,120,8.0,32.0
5226,63.0,0,120,12.0,32.0
5227,41.0,0,240,3.0,37.0
5228,73.0,0,120,8.0,32.0
5229,53.0,0,240,3.0,37.0
5230,61.0,120,120,12.0,32.0
5231,61.0,0,120,11.0,32.0
5232,62.0,0,120,12.0,32.0
5233,58.0,120,120,4.0,42.0
5234,46.0,0,120,4.0,42.0
5235,50.0,0,120,3.0,37.0
5236,62.0,0,120,3.0,37.0
5237,62.0,0,120,11.0,32.0
5238,74.0,0,120,8.0,32.0
5239,41.0,0,192,15.0,32.0
5240,65.0,0,120,8.0,32.0
5241,53.0,120,120,12.0,32.0
5242,53.0,0,120,11.0,32.0
5243,65.0,120,120,12.0,32.0
5244,77.0,0,120,8.0,32.0
5245,65.0,0,120,11.0,32.0
5246,62.0,120,120,12.0,32.0
5247,74.0,0,120,8.0,32.0
5248,89.0,0,240,0.0,46.0
5249,62.0,0,120,11.0,32.0
5250,77.0,0,240,1.0,46.0
5251,87.0,0,120,0.0,42.0
5252,63.0,0,120,12.0,32.0
5253,63.0,0,120,11.0,32.0
5254,75.0,0,120,8.0,32.0
5255,75.0,0,120,1.0,42.0
5256,63.0,120,120,4.0,42.0
5257,43.0,0,192,15.0,32.0
5258,67.0,0,120,8.0,32.0
5259,55.0,120,120,12.0,32.0
5260,55.0,0,120,11.0,32.0
5261,60.0,0,96,11.0,32.0
5262,57.0,0,96,11.0,32.0
5263,54.0,0,120,12.0,32.0
5264,45.0,0,192,6.0,32.0
5265,45.0,240,144,6.0,32.0
5266,48.0,0,64,11.0,32.0
5267,60.0,0,64,11.0,32.0
5268,45.0,60,48,6.0,32.0
5269,84.0,120,120,0.0,40.0
5270,48.0,0,64,11.0,32.0
5271,60.0,20,64,11.0,32.0
5272,48.0,0,64,11.0,32.0
5273,60.0,40,64,11.0,32.0
5274,87.0,0,120,0.0,40.0
5275,66.0,0,600,3.0,35.0
5276,78.0,120,600,8.0,32.0
5277,48.0,0,64,11.0,32.0
5278,60.0,0,64,11.0,32.0
5279,45.0,0,192,6.0,32.0
5280,65.0,0,120,3.0,32.0
5281,29.0,0,480,13.0,28.0
5282,77.0,80,120,8.0,29.0
5283,53.0,0,480,12.0,35.0
5284,48.0,0,64,11.0,32.0
5285,60.0,80,64,11.0,32.0
5286,60.0,0,64,11.0,32.0
5287,48.0,40,64,11.0,32.0
5288,75.0,0,120,8.0,29.0
5289,63.0,40,120,3.0,32.0
5290,57.0,0,156,12.0,30.0
5291,33.0,0,156,13.0,24.0
5292,72.0,0,120,8.0,26.0
5293,60.0,80,120,3.0,29.0
5294,60.0,0,96,11.0,32.0
5295,48.0,0,96,11.0,32.0
5296,45.0,120,192,6.0,32.0
5297,45.0,0,144,6.0,32.0
5298,48.0,0,64,11.0,32.0
5299,53.0,0,64,11.0,32.0
5300,45.0,60,48,6.0,32.0
5301,72.0,120,120,1.0,40.0
5302,53.0,20,64,11.0,32.0
5303,48.0,0,64,11.0,32.0
5304,53.0,40,64,11.0,32.0
5305,48.0,0,64,11.0,32.0
5306,75.0,0,120,1.0,40.0
5307,66.0,0,600,10.0,32.0
5308,78.0,0,600,2.0,35.0
5309,48.0,0,64,11.0,32.0
5310,53.0,0,64,11.0,32.0
5311,45.0,40,192,6.0,32.0
5312,77.0,0,120,2.0,32.0
5313,65.0,80,120,10.0,29.0
5314,33.0,0,480,13.0,28.0
5315,45.0,240,480,12.0,28.0
5316,48.0,80,64,11.0,32.0
5317,53.0,0,64,11.0,32.0
5318,53.0,0,64,11.0,32.0
5319,48.0,40,64,11.0,32.0
5320,63.0,0,120,10.0,29.0
5321,75.0,40,120,2.0,32.0
5322,41.0,0,156,13.0,24.0
5323,53.0,0,156,12.0,24.0
5324,72.0,0,120,2.0,29.0
5325,60.0,0,1920,4.0,27.0
5326,60.0,80,120,10.0,26.0
5327,50.0,0,96,11.0,32.0
5328,53.0,0,96,11.0,32.0
5329,50.0,120,192,6.0,32.0
5330,50.0,240,144,6.0,32.0
5331,62.0,0,64,11.0,32.0
5332,53.0,0,64,11.0,32.0
5333,50.0,60,48,6.0,32.0
5334,53.0,0,2160,4.0,27.0
5335,86.0,120,120,0.0,40.0
5336,62.0,0,64,11.0,32.0
5337,53.0,20,64,11.0,32.0
5338,62.0,40,64,11.0,32.0
5339,53.0,0,64,11.0,32.0
5340,89.0,0,120,0.0,40.0
5341,79.0,0,600,8.0,32.0
5342,67.0,0,600,3.0,35.0
5343,53.0,0,64,11.0,32.0
5344,62.0,0,64,11.0,32.0
5345,50.0,40,192,6.0,32.0
5346,65.0,80,120,3.0,32.0
5347,53.0,0,480,12.0,28.0
5348,77.0,0,120,8.0,29.0
5349,41.0,0,480,13.0,28.0
5350,62.0,80,64,11.0,32.0
5351,53.0,0,64,11.0,32.0
5352,53.0,0,64,11.0,32.0
5353,62.0,40,64,11.0,32.0
5354,62.0,40,120,3.0,32.0
5355,74.0,0,120,8.0,29.0
5356,58.0,0,156,12.0,24.0
5357,46.0,0,156,13.0,24.0
5358,70.0,0,120,8.0,26.0
5359,58.0,80,120,3.0,29.0
5360,62.0,0,96,11.0,32.0
5361,53.0,0,96,11.0,32.0
5362,50.0,0,192,6.0,32.0
5363,50.0,0,144,6.0,32.0
5364,53.0,0,64,11.0,32.0
5365,50.0,0,64,11.0,32.0
5366,50.0,60,48,6.0,32.0
5367,74.0,120,120,1.0,40.0
5368,53.0,0,64,11.0,32.0
5369,50.0,20,64,11.0,32.0
5370,53.0,0,64,11.0,32.0
5371,50.0,40,64,11.0,32.0
5372,67.0,120,600,10.0,32.0
5373,77.0,40,120,1.0,40.0
5374,79.0,0,600,2.0,35.0
5375,53.0,80,64,11.0,32.0
5376,50.0,0,64,11.0,32.0
5377,50.0,0,192,6.0,32.0
5378,46.0,0,480,13.0,28.0
5379,58.0,240,480,12.0,28.0
5380,58.0,0,1200,4.0,27.0
5381,77.0,0,120,2.0,32.0
5382,65.0,0,120,10.0,29.0
5383,53.0,80,64,11.0,32.0
5384,50.0,0,64,11.0,32.0
5385,65.0,40,3168,4.0,22.0
5386,53.0,0,64,11.0,32.0
5387,50.0,40,64,11.0,32.0
5388,62.0,0,120,10.0,29.0
5389,74.0,40,120,2.0,32.0
5390,65.0,0,156,12.0,24.0
5391,53.0,0,156,13.0,24.0
5392,58.0,80,120,10.0,26.0
5393,62.0,0,1920,4.0,27.0
5394,53.0,0,0,4.0,29.0
5395,70.0,0,120,2.0,29.0
5396,60.0,0,96,11.0,35.0
5397,57.0,120,96,11.0,35.0
5398,45.0,0,192,6.0,35.0
5399,45.0,240,144,6.0,35.0
5400,60.0,120,64,11.0,35.0
5401,48.0,0,64,11.0,35.0
5402,45.0,60,48,6.0,35.0
5403,84.0,0,120,0.0,44.0
5404,48.0,0,64,11.0,35.0
5405,60.0,20,64,11.0,35.0
5406,60.0,40,64,11.0,35.0
5407,48.0,0,64,11.0,35.0
5408,78.0,0,600,8.0,35.0
5409,87.0,0,120,0.0,44.0
5410,66.0,0,600,3.0,39.0
5411,48.0,0,64,11.0,35.0
5412,60.0,80,64,11.0,35.0
5413,45.0,40,192,6.0,35.0
5414,29.0,0,480,13.0,30.0
5415,41.0,0,480,12.0,30.0
5416,65.0,0,120,3.0,35.0
5417,77.0,0,120,8.0,32.0
5418,60.0,80,64,11.0,35.0
5419,48.0,0,64,11.0,35.0
5420,48.0,0,64,11.0,35.0
5421,60.0,40,64,11.0,35.0
5422,75.0,0,120,8.0,32.0
5423,63.0,0,120,3.0,35.0
5424,45.0,0,156,12.0,30.0
5425,33.0,40,156,13.0,30.0
5426,72.0,0,120,8.0,29.0
5427,60.0,80,120,3.0,32.0
5428,48.0,0,96,11.0,39.0
5429,60.0,120,96,11.0,39.0
5430,45.0,0,192,6.0,39.0
5431,45.0,0,144,6.0,39.0
5432,53.0,0,64,11.0,39.0
5433,48.0,0,64,11.0,39.0
5434,45.0,60,48,6.0,39.0
5435,72.0,120,120,1.0,48.0
5436,48.0,20,64,11.0,39.0
5437,53.0,0,64,11.0,39.0
5438,53.0,0,64,11.0,39.0
5439,48.0,40,64,11.0,39.0
5440,78.0,0,600,2.0,43.0
5441,75.0,40,120,1.0,48.0
5442,66.0,0,600,10.0,39.0
5443,48.0,0,64,11.0,39.0
5444,53.0,80,64,11.0,39.0
5445,45.0,0,192,6.0,39.0
5446,65.0,0,120,10.0,35.0
5447,45.0,0,480,12.0,34.0
5448,33.0,240,480,13.0,34.0
5449,77.0,0,120,2.0,39.0
5450,53.0,0,64,11.0,39.0
5451,48.0,80,64,11.0,39.0
5452,60.0,0,1728,4.0,29.0
5453,65.0,0,1728,4.0,25.0
5454,48.0,40,64,11.0,39.0
5455,53.0,0,64,11.0,39.0
5456,63.0,0,120,10.0,35.0
5457,75.0,0,120,2.0,39.0
5458,41.0,0,156,13.0,34.0
5459,53.0,40,156,12.0,34.0
5460,60.0,80,120,10.0,32.0
5461,72.0,0,120,2.0,35.0
5462,53.0,0,96,11.0,39.0
5463,50.0,0,96,11.0,39.0
5464,50.0,0,192,6.0,43.0
5465,50.0,0,144,6.0,43.0
5466,53.0,120,64,11.0,39.0
5467,62.0,0,64,11.0,39.0
5468,50.0,60,48,6.0,43.0
5469,86.0,0,120,0.0,53.0
5470,62.0,20,64,11.0,39.0
5471,53.0,0,64,11.0,39.0
5472,53.0,0,64,11.0,39.0
5473,62.0,40,64,11.0,39.0
5474,89.0,40,120,0.0,48.0
5475,67.0,0,600,3.0,47.0
5476,79.0,120,600,8.0,39.0
5477,53.0,0,64,11.0,39.0
5478,62.0,0,64,11.0,39.0
5479,50.0,0,192,6.0,43.0
5480,77.0,80,120,8.0,35.0
5481,41.0,0,480,13.0,38.0
5482,53.0,240,480,12.0,38.0
5483,65.0,0,120,3.0,43.0
5484,62.0,0,64,11.0,39.0
5485,53.0,80,64,11.0,39.0
5486,62.0,0,768,4.0,27.0
5487,53.0,40,64,11.0,39.0
5488,62.0,0,64,11.0,39.0
5489,62.0,0,120,3.0,43.0
5490,74.0,0,120,8.0,35.0
5491,58.0,0,156,12.0,38.0
5492,46.0,40,156,13.0,38.0
5493,70.0,0,120,8.0,32.0
5494,58.0,80,120,3.0,39.0
5495,53.0,0,96,11.0,47.0
5496,62.0,120,96,11.0,47.0
5497,50.0,0,192,6.0,47.0
5498,50.0,0,144,6.0,47.0
5499,53.0,0,64,11.0,47.0
5500,50.0,0,64,11.0,47.0
5501,50.0,60,48,6.0,47.0
5502,74.0,120,120,1.0,58.0
5503,53.0,0,64,11.0,47.0
5504,50.0,20,64,11.0,47.0
5505,50.0,40,64,11.0,47.0
5506,53.0,0,64,11.0,47.0
5507,67.0,0,600,10.0,47.0
5508,79.0,0,600,2.0,52.0
5509,77.0,0,120,1.0,58.0
5510,53.0,0,64,11.0,47.0
5511,50.0,0,64,11.0,47.0
5512,50.0,40,192,6.0,47.0
5513,58.0,0,480,12.0,43.0
5514,65.0,80,120,10.0,43.0
5515,77.0,0,120,2.0,47.0
5516,46.0,240,480,13.0,43.0
5517,50.0,80,64,11.0,47.0
5518,53.0,0,64,11.0,47.0
5519,65.0,0,1728,4.0,27.0
5520,62.0,0,768,4.0,38.0
5521,53.0,0,64,11.0,47.0
5522,50.0,40,64,11.0,47.0
5523,62.0,0,120,10.0,43.0
5524,74.0,0,120,2.0,47.0
5525,53.0,40,156,13.0,43.0
5526,65.0,0,156,12.0,43.0
5527,58.0,0,1920,4.0,32.0
5528,58.0,80,120,10.0,39.0
5529,70.0,0,120,2.0,43.0
5530,60.0,120,96,11.0,43.0
5531,48.0,0,96,11.0,43.0
5532,66.0,0,120,3.0,56.0
5533,78.0,0,120,8.0,56.0
5534,45.0,0,192,6.0,43.0
5535,77.0,120,120,8.0,51.0
5536,84.0,0,120,0.0,53.0
5537,65.0,0,120,3.0,51.0
5538,29.0,0,114,13.0,51.0
5539,41.0,0,114,12.0,51.0
5540,87.0,0,120,0.0,53.0
5541,63.0,120,120,3.0,51.0
5542,75.0,0,120,8.0,51.0
5543,45.0,0,144,6.0,43.0
5544,48.0,0,64,11.0,43.0
5545,53.0,0,64,11.0,43.0
5546,45.0,60,48,6.0,43.0
5547,36.0,0,114,13.0,51.0
5548,48.0,0,114,12.0,51.0
5549,60.0,0,120,3.0,45.0
5550,72.0,120,120,8.0,46.0
5551,53.0,20,64,11.0,43.0
5552,48.0,0,64,11.0,43.0
5553,48.0,0,64,11.0,43.0
5554,53.0,40,64,11.0,43.0
5555,66.0,40,120,10.0,56.0
5556,78.0,0,120,2.0,56.0
5557,53.0,0,64,11.0,43.0
5558,48.0,0,64,11.0,43.0
5559,45.0,0,192,6.0,43.0
5560,77.0,80,120,2.0,51.0
5561,65.0,0,120,10.0,51.0
5562,72.0,0,120,1.0,53.0
5563,48.0,0,64,11.0,43.0
5564,53.0,80,64,11.0,43.0
5565,53.0,0,64,11.0,43.0
5566,48.0,40,64,11.0,43.0
5567,53.0,0,114,12.0,51.0
5568,41.0,0,114,13.0,51.0
5569,75.0,0,120,2.0,51.0
5570,75.0,40,120,1.0,53.0
5571,63.0,0,120,10.0,51.0
5572,48.0,0,114,13.0,51.0
5573,60.0,0,114,12.0,51.0
5574,72.0,80,120,2.0,45.0
5575,60.0,0,960,4.0,34.0
5576,60.0,0,120,10.0,45.0
5577,53.0,0,96,11.0,49.0
5578,50.0,0,96,11.0,49.0
5579,79.0,0,120,8.0,63.0
5580,67.0,120,120,3.0,64.0
5581,50.0,0,192,6.0,49.0
5582,86.0,0,120,0.0,61.0
5583,65.0,0,120,3.0,59.0
5584,77.0,120,120,8.0,59.0
5585,29.0,0,114,13.0,64.0
5586,41.0,0,114,12.0,64.0
5587,74.0,0,120,8.0,59.0
5588,62.0,120,120,3.0,59.0
5589,89.0,0,120,0.0,61.0
5590,50.0,0,144,6.0,49.0
5591,62.0,120,64,11.0,49.0
5592,53.0,0,64,11.0,49.0
5593,50.0,60,48,6.0,49.0
5594,50.0,0,114,12.0,64.0
5595,38.0,0,114,13.0,64.0
5596,58.0,0,120,3.0,52.0
5597,70.0,0,120,8.0,52.0
5598,62.0,20,64,11.0,49.0
5599,53.0,0,64,11.0,49.0
5600,53.0,40,64,11.0,49.0
5601,62.0,0,64,11.0,49.0
5602,67.0,40,120,10.0,64.0
5603,79.0,0,120,2.0,64.0
5604,62.0,80,64,11.0,49.0
5605,53.0,0,64,11.0,49.0
5606,50.0,0,192,6.0,49.0
5607,74.0,0,120,1.0,61.0
5608,65.0,0,120,10.0,59.0
5609,77.0,0,120,2.0,59.0
5610,53.0,80,64,11.0,49.0
5611,62.0,0,64,11.0,49.0
5612,65.0,0,1728,4.0,34.0
5613,53.0,0,1728,4.0,34.0
5614,62.0,0,768,4.0,39.0
5615,53.0,0,64,11.0,49.0
5616,62.0,40,64,11.0,49.0
5617,53.0,0,114,12.0,64.0
5618,41.0,0,114,13.0,64.0
5619,74.0,0,120,2.0,59.0
5620,62.0,0,120,10.0,59.0
5621,77.0,40,120,1.0,61.0
5622,58.0,0,900,4.0,39.0
5623,62.0,0,114,12.0,64.0
5624,50.0,0,114,13.0,64.0
5625,58.0,0,120,10.0,52.0
5626,70.0,80,120,2.0,52.0
5627,60.0,0,96,4.0,56.0
5628,65.0,0,96,4.0,56.0
5629,53.0,0,96,4.0,56.0
5630,78.0,0,120,8.0,72.0
5631,41.0,0,120,12.0,74.0
5632,57.0,0,120,10.0,56.0
5633,51.0,0,120,11.0,56.0
5634,78.0,0,120,1.0,56.0
5635,41.0,0,120,3.0,56.0
5636,29.0,120,120,13.0,74.0
5637,39.0,0,120,13.0,74.0
5638,77.0,120,120,8.0,68.0
5639,51.0,0,120,3.0,52.0
5640,60.0,0,120,10.0,52.0
5641,48.0,0,120,11.0,52.0
5642,51.0,0,120,12.0,74.0
5643,77.0,0,120,1.0,52.0
5644,65.0,0,216,4.0,56.0
5645,53.0,0,216,4.0,56.0
5646,60.0,0,216,4.0,56.0
5647,78.0,0,114,2.0,56.0
5648,90.0,0,114,0.0,56.0
5649,41.0,0,120,12.0,74.0
5650,57.0,0,120,10.0,52.0
5651,29.0,120,120,13.0,74.0
5652,81.0,0,120,8.0,68.0
5653,51.0,0,120,11.0,52.0
5654,41.0,0,120,3.0,52.0
5655,45.0,0,144,6.0,56.0
5656,45.0,60,48,6.0,56.0
5657,60.0,0,120,10.0,46.0
5658,48.0,0,120,11.0,46.0
5659,51.0,0,120,3.0,46.0
5660,51.0,0,120,12.0,74.0
5661,77.0,0,120,8.0,60.0
5662,39.0,0,120,13.0,74.0
5663,81.0,0,240,1.0,52.0
5664,60.0,0,216,4.0,56.0
5665,65.0,0,216,4.0,56.0
5666,53.0,0,216,4.0,56.0
5667,77.0,120,234,2.0,52.0
5668,89.0,0,234,0.0,52.0
5669,41.0,60,120,12.0,74.0
5670,51.0,0,120,11.0,56.0
5671,57.0,0,120,10.0,56.0
5672,41.0,0,120,3.0,56.0
5673,29.0,0,120,13.0,74.0
5674,84.0,0,120,8.0,72.0
5675,45.0,0,192,6.0,56.0
5676,60.0,0,120,4.0,56.0
5677,48.0,0,120,11.0,52.0
5678,53.0,0,120,4.0,56.0
5679,39.0,0,120,13.0,74.0
5680,51.0,0,120,3.0,52.0
5681,60.0,120,120,10.0,52.0
5682,77.0,0,120,8.0,68.0
5683,65.0,0,0,4.0,56.0
5684,51.0,0,120,12.0,74.0
5685,62.0,0,96,4.0,56.0
5686,53.0,0,96,4.0,56.0
5687,77.0,0,234,2.0,56.0
5688,89.0,0,234,0.0,56.0
5689,53.0,0,120,11.0,52.0
5690,41.0,0,120,3.0,52.0
5691,41.0,0,120,12.0,74.0
5692,29.0,0,120,13.0,74.0
5693,84.0,0,120,8.0,68.0
5694,57.0,0,120,10.0,52.0
5695,84.0,0,360,1.0,56.0
5696,50.0,120,192,6.0,56.0
5697,62.0,0,96,4.0,56.0
5698,65.0,0,96,4.0,56.0
5699,53.0,0,96,4.0,56.0
5700,89.0,0,114,0.0,52.0
5701,77.0,120,114,2.0,52.0
5702,82.0,0,120,8.0,60.0
5703,58.0,0,120,10.0,46.0
5704,50.0,0,120,3.0,46.0
5705,38.0,0,120,13.0,74.0
5706,50.0,0,120,11.0,46.0
5707,50.0,0,120,12.0,74.0
5708,82.0,0,120,1.0,46.0
5709,65.0,120,96,4.0,64.0
5710,53.0,0,96,4.0,64.0
5711,60.0,0,96,4.0,64.0
5712,41.0,0,120,3.0,64.0
5713,57.0,0,120,10.0,64.0
5714,78.0,0,120,8.0,86.0
5715,78.0,0,120,1.0,64.0
5716,29.0,0,120,13.0,85.0
5717,51.0,0,120,11.0,64.0
5718,41.0,0,120,12.0,85.0
5719,60.0,0,120,10.0,60.0
5720,51.0,0,120,12.0,85.0
5721,51.0,120,120,3.0,60.0
5722,48.0,0,120,11.0,60.0
5723,77.0,0,120,1.0,60.0
5724,39.0,0,120,13.0,85.0
5725,77.0,0,120,8.0,82.0
5726,53.0,0,216,4.0,64.0
5727,65.0,0,216,4.0,64.0
5728,60.0,0,216,4.0,64.0
5729,78.0,0,114,2.0,64.0
5730,90.0,0,114,0.0,64.0
5731,81.0,0,120,8.0,82.0
5732,29.0,0,120,13.0,85.0
5733,51.0,0,120,11.0,60.0
5734,57.0,120,120,10.0,60.0
5735,41.0,0,120,12.0,85.0
5736,41.0,0,120,3.0,60.0
5737,45.0,0,144,6.0,64.0
5738,45.0,60,48,6.0,64.0
5739,60.0,0,120,10.0,53.0
5740,77.0,0,120,8.0,72.0
5741,36.0,0,120,13.0,85.0
5742,48.0,0,120,11.0,53.0
5743,48.0,0,120,12.0,85.0
5744,51.0,0,120,3.0,53.0
5745,81.0,0,240,1.0,60.0
5746,65.0,0,216,4.0,64.0
5747,60.0,0,216,4.0,64.0
5748,53.0,0,216,4.0,64.0
5749,89.0,0,234,0.0,60.0
5750,77.0,120,234,2.0,60.0
5751,41.0,0,120,12.0,85.0
5752,41.0,0,120,3.0,64.0
5753,84.0,0,120,8.0,86.0
5754,29.0,0,120,13.0,85.0
5755,57.0,60,120,10.0,64.0
5756,51.0,0,120,11.0,64.0
5757,45.0,0,192,6.0,64.0
5758,77.0,0,120,8.0,82.0
5759,45.0,0,120,12.0,85.0
5760,60.0,0,120,4.0,64.0
5761,48.0,0,120,11.0,60.0
5762,51.0,0,120,3.0,60.0
5763,65.0,0,0,4.0,64.0
5764,33.0,120,120,13.0,85.0
5765,60.0,0,120,10.0,60.0
5766,53.0,0,0,4.0,64.0
5767,62.0,0,96,4.0,64.0
5768,77.0,0,234,2.0,64.0
5769,89.0,0,234,0.0,64.0
5770,29.0,0,120,13.0,85.0
5771,84.0,0,360,1.0,64.0
5772,57.0,0,120,10.0,60.0
5773,53.0,0,120,11.0,60.0
5774,41.0,120,120,12.0,85.0
5775,84.0,0,120,8.0,82.0
5776,41.0,0,120,3.0,60.0
5777,50.0,0,192,6.0,64.0
5778,62.0,0,96,4.0,64.0
5779,77.0,0,114,2.0,60.0
5780,89.0,0,114,0.0,60.0
5781,50.0,0,120,3.0,53.0
5782,46.0,120,0,12.0,88.0
5783,82.0,0,120,1.0,53.0
5784,34.0,0,0,13.0,88.0
5785,82.0,0,120,8.0,72.0
5786,58.0,0,120,10.0,53.0
5787,50.0,0,120,11.0,53.0
5788,62.0,0,48,10.0,104.0
5789,87.0,0,58,8.0,125.0
5790,63.0,0,58,11.0,104.0
5791,46.0,0,96,3.0,88.0
5792,62.0,60,48,10.0,104.0
5793,65.0,0,58,11.0,104.0
5794,77.0,0,58,8.0,125.0
5795,63.0,0,48,10.0,104.0
5796,63.0,0,58,11.0,104.0
5797,75.0,60,58,8.0,125.0
5798,65.0,0,192,4.0,104.0
5799,65.0,0,192,2.0,80.0
5800,77.0,0,192,2.0,80.0
5801,53.0,0,312,4.0,64.0
5802,75.0,0,192,1.0,80.0
5803,89.0,0,192,0.0,80.0
5804,77.0,0,192,0.0,80.0
5805,65.0,0,192,1.0,80.0
5806,48.0,0,96,12.0,88.0
5807,36.0,0,96,13.0,88.0
5808,48.0,0,96,3.0,88.0
5809,63.0,0,48,10.0,104.0
5810,62.0,0,58,11.0,104.0
5811,74.0,60,58,8.0,125.0
5812,72.0,0,48,10.0,104.0
5813,72.0,60,48,8.0,125.0
5814,60.0,0,48,11.0,104.0
5815,74.0,60,48,8.0,125.0
5816,72.0,0,48,10.0,104.0
5817,62.0,0,48,11.0,104.0
5818,72.0,0,48,8.0,125.0
5819,60.0,60,48,11.0,104.0
5820,72.0,0,48,10.0,104.0
5821,45.0,0,192,6.0,104.0
5822,57.0,0,192,5.0,80.0
5823,69.0,0,192,5.0,80.0
5824,72.0,0,192,1.0,64.0
5825,70.0,0,48,8.0,125.0
5826,72.0,0,48,10.0,104.0
5827,58.0,60,48,11.0,104.0
5828,72.0,0,48,10.0,104.0
5829,69.0,0,48,8.0,125.0
5830,57.0,60,48,11.0,104.0
5831,70.0,60,48,8.0,125.0
5832,58.0,0,48,11.0,104.0
5833,72.0,0,48,10.0,104.0
5834,63.0,0,384,12.0,88.0
5835,51.0,0,384,13.0,88.0
5836,41.0,0,384,4.0,83.0
5837,53.0,0,384,4.0,83.0
5838,77.0,0,384,0.0,64.0
5839,65.0,0,384,0.0,64.0
5840,63.0,0,384,3.0,70.0
5841,65.0,0,384,2.0,64.0
5842,72.0,0,48,10.0,104.0
5843,72.0,0,48,8.0,125.0
5844,60.0,60,48,11.0,104.0
5845,69.0,0,192,1.0,64.0
5846,74.0,0,48,8.0,125.0
5847,72.0,60,48,10.0,104.0
5848,62.0,0,48,11.0,104.0
5849,75.0,0,48,8.0,125.0
5850,63.0,0,48,11.0,104.0
5851,65.0,0,48,10.0,104.0
5852,77.0,60,48,8.0,125.0
5853,65.0,0,48,10.0,104.0
5854,65.0,0,48,11.0,104.0
5855,79.0,0,48,8.0,125.0
5856,67.0,0,48,11.0,104.0
5857,65.0,60,48,10.0,104.0
5858,81.0,0,192,1.0,64.0
5859,69.0,0,48,11.0,104.0
5860,81.0,0,48,8.0,125.0
5861,65.0,60,48,10.0,104.0
5862,77.0,0,58,10.0,127.0
5863,36.0,0,336,13.0,88.0
5864,48.0,0,336,3.0,70.0
5865,70.0,60,96,11.0,104.0
5866,48.0,60,336,12.0,88.0
5867,82.0,0,96,8.0,125.0
5868,79.0,60,58,10.0,127.0
5869,77.0,0,58,10.0,127.0
5870,65.0,0,432,2.0,64.0
5871,65.0,0,432,4.0,83.0
5872,53.0,0,432,4.0,83.0
5873,77.0,0,432,1.0,64.0
5874,82.0,0,192,1.0,64.0
5875,77.0,0,432,0.0,64.0
5876,77.0,0,432,2.0,64.0
5877,89.0,0,432,0.0,64.0
5878,38.0,60,96,13.0,88.0
5879,50.0,0,96,12.0,88.0
5880,50.0,0,96,3.0,70.0
5881,75.0,60,58,10.0,127.0
5882,74.0,0,48,10.0,127.0
5883,75.0,60,48,10.0,127.0
5884,74.0,60,48,10.0,127.0
5885,50.0,0,192,6.0,104.0
5886,62.0,0,192,5.0,80.0
5887,74.0,0,192,5.0,80.0
5888,74.0,0,192,1.0,64.0
5889,72.0,60,48,10.0,127.0
5890,70.0,60,48,10.0,127.0
5891,72.0,60,48,10.0,127.0
5892,65.0,0,384,0.0,64.0
5893,53.0,0,384,4.0,83.0
5894,41.0,0,384,4.0,83.0
5895,65.0,0,384,12.0,88.0
5896,65.0,0,384,3.0,70.0
5897,65.0,0,384,2.0,64.0
5898,77.0,0,384,0.0,64.0
5899,53.0,60,384,13.0,88.0
5900,74.0,60,48,10.0,127.0
5901,70.0,0,192,1.0,64.0
5902,75.0,60,48,10.0,127.0
5903,77.0,60,48,10.0,127.0
5904,65.0,0,576,4.0,83.0
5905,79.0,60,48,10.0,127.0
5906,81.0,60,48,10.0,127.0
5907,70.0,0,192,1.0,64.0
5908,82.0,60,48,10.0,127.0
5909,84.0,0,48,10.0,104.0
5910,67.0,0,58,11.0,104.0
5911,79.0,0,58,8.0,104.0
5912,38.0,0,336,13.0,88.0
5913,82.0,0,336,0.0,64.0
5914,82.0,0,336,1.0,64.0
5915,50.0,0,336,12.0,88.0
5916,79.0,60,96,1.0,64.0
5917,50.0,0,336,3.0,70.0
5918,67.0,0,48,10.0,104.0
5919,69.0,60,58,11.0,104.0
5920,81.0,0,58,8.0,104.0
5921,67.0,0,48,10.0,104.0
5922,67.0,0,58,11.0,104.0
5923,79.0,60,58,8.0,104.0
5924,70.0,0,432,2.0,64.0
5925,46.0,0,432,4.0,83.0
5926,58.0,0,432,4.0,83.0
5927,82.0,0,432,2.0,64.0
5928,67.0,0,192,4.0,83.0
5929,84.0,0,96,1.0,64.0
5930,39.0,0,96,13.0,88.0
5931,84.0,0,96,0.0,64.0
5932,51.0,0,96,12.0,88.0
5933,51.0,0,96,3.0,70.0
5934,67.0,0,48,10.0,104.0
5935,65.0,0,58,11.0,104.0
5936,77.0,60,58,8.0,104.0
5937,75.0,0,48,10.0,104.0
5938,63.0,0,48,11.0,104.0
5939,75.0,0,48,8.0,104.0
5940,65.0,60,48,11.0,104.0
5941,75.0,0,48,10.0,104.0
5942,77.0,0,48,8.0,104.0
5943,63.0,0,48,11.0,104.0
5944,75.0,60,48,10.0,104.0
5945,75.0,0,48,8.0,104.0
5946,75.0,0,192,1.0,64.0
5947,75.0,0,48,10.0,104.0
5948,62.0,0,48,11.0,104.0
5949,74.0,60,48,8.0,104.0
5950,60.0,0,48,11.0,104.0
5951,75.0,0,48,10.0,104.0
5952,72.0,60,48,8.0,104.0
5953,62.0,60,48,11.0,104.0
5954,75.0,0,48,10.0,104.0
5955,74.0,0,48,8.0,104.0
5956,70.0,0,384,2.0,64.0
5957,58.0,0,384,2.0,64.0
5958,67.0,0,384,12.0,88.0
5959,55.0,0,384,13.0,88.0
5960,84.0,0,384,0.0,64.0
5961,67.0,0,384,3.0,70.0
5962,75.0,0,48,8.0,104.0
5963,63.0,60,48,11.0,104.0
5964,75.0,0,48,10.0,104.0
5965,72.0,0,192,1.0,64.0
5966,84.0,0,432,1.0,64.0
5967,46.0,0,450,4.0,83.0
5968,65.0,0,48,11.0,104.0
5969,75.0,0,48,10.0,104.0
5970,77.0,60,48,8.0,104.0
5971,79.0,0,48,8.0,104.0
5972,55.0,60,48,10.0,104.0
5973,67.0,0,48,11.0,104.0
5974,55.0,0,48,10.0,104.0
5975,81.0,0,48,8.0,104.0
5976,69.0,60,48,11.0,104.0
5977,82.0,60,48,8.0,104.0
5978,70.0,0,48,11.0,104.0
5979,55.0,0,48,10.0,104.0
5980,72.0,60,48,11.0,104.0
5981,55.0,0,48,10.0,104.0
5982,84.0,0,48,8.0,104.0
5983,68.0,0,58,10.0,127.0
5984,39.0,0,336,13.0,88.0
5985,67.0,60,816,4.0,83.0
5986,74.0,0,96,11.0,104.0
5987,86.0,60,96,8.0,104.0
5988,51.0,0,336,3.0,70.0
5989,84.0,0,336,1.0,64.0
5990,72.0,0,336,1.0,64.0
5991,84.0,0,336,0.0,64.0
5992,51.0,0,336,12.0,88.0
5993,70.0,60,58,10.0,127.0
5994,68.0,0,58,10.0,127.0
5995,58.0,0,432,4.0,83.0
5996,82.0,0,432,2.0,64.0
5997,70.0,0,432,2.0,64.0
5998,46.0,0,432,4.0,83.0
5999,74.0,0,96,1.0,64.0
6000,86.0,0,96,1.0,64.0
6001,86.0,0,96,0.0,64.0
6002,53.0,0,96,12.0,88.0
6003,65.0,60,96,4.0,83.0
6004,53.0,0,96,3.0,70.0
6005,41.0,0,96,13.0,88.0
6006,67.0,60,58,10.0,127.0
6007,65.0,0,48,10.0,127.0
6008,67.0,60,48,10.0,127.0
6009,65.0,60,48,10.0,127.0
6010,62.0,0,192,5.0,80.0
6011,74.0,0,192,5.0,80.0
6012,50.0,0,192,6.0,104.0
6013,63.0,60,48,10.0,127.0
6014,62.0,60,48,10.0,127.0
6015,63.0,60,48,10.0,127.0
6016,86.0,0,384,0.0,64.0
6017,74.0,0,384,1.0,64.0
6018,58.0,0,384,2.0,64.0
6019,70.0,0,384,2.0,64.0
6020,56.0,60,384,13.0,88.0
6021,86.0,0,384,1.0,64.0
6022,68.0,0,384,3.0,70.0
6023,68.0,0,384,12.0,88.0
6024,65.0,60,48,10.0,127.0
6025,46.0,0,450,4.0,64.0
6026,67.0,60,48,10.0,127.0
6027,68.0,0,48,10.0,127.0
6028,65.0,0,576,4.0,83.0
6029,70.0,60,48,10.0,127.0
6030,72.0,60,48,10.0,127.0
6031,74.0,60,48,10.0,127.0
6032,74.0,0,48,10.0,104.0
6033,82.0,60,58,8.0,104.0
6034,70.0,0,58,11.0,104.0
6035,86.0,0,336,0.0,64.0
6036,41.0,0,336,3.0,70.0
6037,41.0,0,336,12.0,88.0
6038,86.0,0,336,1.0,64.0
6039,29.0,60,336,13.0,88.0
6040,74.0,0,336,1.0,64.0
6041,74.0,0,48,10.0,104.0
6042,84.0,0,58,8.0,104.0
6043,72.0,60,58,11.0,104.0
6044,75.0,60,48,10.0,104.0
6045,70.0,0,58,11.0,104.0
6046,82.0,0,58,8.0,104.0
6047,82.0,0,432,2.0,64.0
6048,70.0,0,432,2.0,64.0
6049,58.0,0,432,4.0,64.0
6050,46.0,0,432,4.0,64.0
6051,31.0,0,96,13.0,88.0
6052,43.0,0,96,12.0,88.0
6053,87.0,0,96,0.0,64.0
6054,43.0,0,96,3.0,70.0
6055,75.0,0,96,1.0,64.0
6056,75.0,60,48,10.0,104.0
6057,68.0,0,58,11.0,104.0
6058,80.0,0,58,8.0,104.0
6059,55.0,0,48,10.0,104.0
6060,67.0,0,48,11.0,104.0
6061,79.0,0,48,8.0,104.0
6062,55.0,60,48,10.0,104.0
6063,68.0,0,48,11.0,104.0
6064,80.0,0,48,8.0,104.0
6065,79.0,0,48,8.0,104.0
6066,67.0,60,48,11.0,104.0
6067,55.0,0,48,10.0,104.0
6068,67.0,60,192,1.0,64.0
6069,79.0,0,192,1.0,64.0
6070,55.0,60,48,10.0,104.0
6071,65.0,0,48,11.0,104.0
6072,77.0,0,48,8.0,104.0
6073,75.0,0,48,8.0,104.0
6074,55.0,0,48,10.0,104.0
6075,63.0,0,48,11.0,104.0
6076,55.0,0,48,10.0,104.0
6077,65.0,0,48,11.0,104.0
6078,77.0,60,48,8.0,104.0
6079,75.0,0,384,2.0,64.0
6080,58.0,0,384,12.0,88.0
6081,46.0,0,384,13.0,88.0
6082,87.0,0,384,0.0,64.0
6083,67.0,0,384,2.0,64.0
6084,58.0,0,384,3.0,70.0
6085,55.0,60,48,10.0,104.0
6086,67.0,0,48,11.0,104.0
6087,79.0,0,48,8.0,104.0
6088,75.0,0,192,1.0,64.0
6089,63.0,60,192,1.0,64.0
6090,46.0,0,450,4.0,64.0
6091,80.0,0,48,8.0,104.0
6092,55.0,0,48,10.0,104.0
6093,68.0,60,48,11.0,104.0
6094,75.0,0,48,10.0,104.0
6095,82.0,60,48,8.0,104.0
6096,70.0,0,48,11.0,104.0
6097,84.0,60,48,8.0,104.0
6098,72.0,0,48,11.0,104.0
6099,75.0,0,48,10.0,104.0
6100,74.0,0,48,11.0,104.0
6101,75.0,0,48,10.0,104.0
6102,86.0,60,48,8.0,104.0
6103,75.0,0,192,2.0,64.0
6104,87.0,0,192,0.0,64.0
6105,70.0,0,192,2.0,64.0
6106,82.0,0,192,1.0,64.0
6107,70.0,0,192,1.0,64.0
6108,75.0,60,48,11.0,104.0
6109,75.0,0,48,10.0,104.0
6110,87.0,0,48,8.0,104.0
6111,58.0,0,240,4.0,64.0
6112,46.0,0,240,4.0,64.0
6113,72.0,0,58,10.0,127.0
6114,82.0,0,96,1.0,80.0
6115,43.0,0,336,3.0,70.0
6116,70.0,0,96,1.0,80.0
6117,87.0,0,96,8.0,104.0
6118,43.0,0,336,12.0,88.0
6119,31.0,0,336,13.0,88.0
6120,74.0,60,58,10.0,127.0
6121,72.0,0,58,10.0,127.0
6122,75.0,60,192,11.0,80.0
6123,53.0,0,192,4.0,80.0
6124,87.0,0,192,0.0,80.0
6125,60.0,0,192,4.0,80.0
6126,72.0,0,192,2.0,80.0
6127,75.0,0,192,2.0,80.0
6128,84.0,60,96,1.0,80.0
6129,45.0,0,96,12.0,88.0
6130,45.0,0,96,3.0,88.0
6131,33.0,0,96,13.0,88.0
6132,72.0,0,96,1.0,80.0
6133,70.0,60,58,10.0,127.0
6134,69.0,0,48,10.0,127.0
6135,81.0,0,48,8.0,104.0
6136,82.0,0,48,8.0,104.0
6137,70.0,60,48,10.0,127.0
6138,69.0,60,48,10.0,127.0
6139,81.0,0,48,8.0,104.0
6140,69.0,0,192,1.0,80.0
6141,81.0,0,192,1.0,80.0
6142,45.0,0,192,6.0,104.0
6143,57.0,0,192,5.0,80.0
6144,69.0,0,192,5.0,80.0
6145,67.0,0,48,10.0,127.0
6146,79.0,60,48,8.0,104.0
6147,53.0,60,48,11.0,127.0
6148,65.0,0,48,10.0,127.0
6149,77.0,0,48,8.0,104.0
6150,55.0,0,48,11.0,127.0
6151,67.0,60,48,10.0,127.0
6152,79.0,0,48,8.0,104.0
6153,65.0,0,384,2.0,80.0
6154,60.0,0,384,3.0,88.0
6155,48.0,0,384,13.0,88.0
6156,65.0,0,384,4.0,104.0
6157,77.0,0,384,0.0,80.0
6158,60.0,60,384,12.0,88.0
6159,81.0,60,48,8.0,104.0
6160,69.0,0,48,10.0,127.0
6161,57.0,0,48,11.0,127.0
6162,77.0,0,192,1.0,80.0
6163,65.0,0,192,1.0,80.0
6164,41.0,0,450,4.0,80.0
6165,53.0,0,450,4.0,80.0
6166,58.0,0,48,11.0,127.0
6167,70.0,0,48,10.0,127.0
6168,82.0,60,48,8.0,104.0
6169,84.0,0,48,8.0,104.0
6170,72.0,0,48,10.0,127.0
6171,60.0,60,48,11.0,127.0
6172,86.0,60,48,8.0,104.0
6173,62.0,0,48,11.0,127.0
6174,74.0,0,48,10.0,127.0
6175,63.0,0,114,3.0,88.0
6176,63.0,0,114,12.0,88.0
6177,51.0,0,114,13.0,88.0
6178,63.0,0,48,11.0,127.0
6179,87.0,0,48,8.0,104.0
6180,75.0,60,48,10.0,127.0
6181,57.0,0,192,5.0,80.0
6182,84.0,0,192,0.0,80.0
6183,84.0,0,192,1.0,80.0
6184,69.0,0,192,5.0,80.0
6185,72.0,0,192,1.0,80.0
6186,41.0,0,192,4.0,80.0
6187,53.0,0,192,4.0,80.0
6188,45.0,0,192,6.0,104.0
6189,89.0,60,48,8.0,104.0
6190,77.0,0,48,10.0,127.0
6191,65.0,0,48,11.0,127.0
6192,51.0,0,114,12.0,88.0
6193,39.0,0,114,13.0,88.0
6194,51.0,0,114,3.0,88.0
6195,50.0,0,96,13.0,104.0
6196,82.0,0,96,1.0,80.0
6197,62.0,0,96,12.0,104.0
6198,89.0,0,336,0.0,80.0
6199,86.0,0,96,0.0,80.0
6200,77.0,0,96,10.0,104.0
6201,62.0,0,96,11.0,104.0
6202,58.0,0,96,11.0,104.0
6203,70.0,0,96,8.0,104.0
6204,65.0,0,336,2.0,80.0
6205,77.0,0,336,2.0,80.0
6206,62.0,0,96,3.0,104.0
6207,70.0,0,96,1.0,80.0
6208,65.0,0,120,4.0,80.0
6209,53.0,0,120,4.0,80.0
6210,62.0,0,120,5.0,80.0
6211,74.0,0,120,5.0,80.0
6212,50.0,60,192,6.0,104.0
6213,82.0,120,120,1.0,88.0
6214,62.0,0,120,5.0,48.0
6215,58.0,0,120,4.0,48.0
6216,46.0,0,120,4.0,48.0
6217,65.0,0,120,2.0,48.0
6218,50.0,0,120,4.0,48.0
6219,86.0,0,120,1.0,68.0
6220,70.0,0,120,2.0,48.0
6221,74.0,120,120,5.0,48.0
6222,62.0,0,120,4.0,48.0
6223,70.0,0,192,10.0,48.0
6224,65.0,0,192,11.0,48.0
6225,82.0,0,192,8.0,48.0
6226,38.0,0,192,13.0,48.0
6227,50.0,0,192,6.0,62.0
6228,50.0,0,192,12.0,48.0
6229,50.0,0,192,3.0,48.0
6230,81.0,120,240,1.0,48.0
6231,79.0,240,120,1.0,48.0
6232,70.0,120,0,2.0,38.0
6233,82.0,0,120,1.0,48.0
6234,74.0,0,120,2.0,38.0
6235,46.0,0,48,4.0,45.0
6236,58.0,60,48,4.0,45.0
6237,46.0,60,96,4.0,45.0
6238,58.0,0,96,4.0,45.0
6239,77.0,0,240,1.0,48.0
6240,69.0,0,240,2.0,38.0
6241,72.0,120,240,2.0,38.0
6242,87.0,0,120,0.0,58.0
6243,91.0,120,120,0.0,58.0
6244,70.0,120,240,2.0,38.0
6245,67.0,0,240,2.0,38.0
6246,75.0,0,240,1.0,48.0
6247,46.0,60,48,4.0,45.0
6248,58.0,0,48,4.0,45.0
6249,69.0,0,120,2.0,38.0
6250,65.0,0,120,2.0,38.0
6251,86.0,0,120,0.0,58.0
6252,74.0,120,120,1.0,48.0
6253,46.0,0,96,4.0,45.0
6254,58.0,0,96,4.0,45.0
6255,84.0,0,120,0.0,58.0
6256,67.0,60,120,2.0,38.0
6257,63.0,0,120,2.0,38.0
6258,72.0,0,120,1.0,48.0
6259,82.0,0,120,0.0,52.0
6260,65.0,0,120,2.0,34.0
6261,62.0,0,120,2.0,34.0
6262,70.0,120,120,1.0,43.0
6263,82.0,0,126,8.0,104.0
6264,70.0,0,126,10.0,104.0
6265,62.0,0,126,12.0,104.0
6266,62.0,0,126,4.0,104.0
6267,65.0,0,126,4.0,104.0
6268,53.0,120,126,11.0,104.0
6269,50.0,0,126,13.0,104.0
6270,62.0,0,126,3.0,104.0
6271,65.0,0,42,4.0,104.0
6272,62.0,0,42,12.0,104.0
6273,50.0,0,42,13.0,104.0
6274,62.0,0,42,3.0,104.0
6275,70.0,0,42,10.0,104.0
6276,53.0,0,42,11.0,104.0
6277,82.0,180,42,8.0,104.0
6278,62.0,0,42,4.0,104.0
6279,63.0,0,96,4.0,104.0
6280,55.0,0,96,11.0,104.0
6281,67.0,60,96,10.0,104.0
6282,63.0,0,96,3.0,104.0
6283,51.0,0,96,13.0,104.0
6284,63.0,0,96,12.0,104.0
6285,58.0,0,96,4.0,104.0
6286,72.0,0,96,8.0,104.0
6287,79.0,120,120,1.0,88.0
6288,84.0,0,120,1.0,68.0
6289,39.0,0,192,13.0,48.0
6290,67.0,0,192,11.0,48.0
6291,55.0,0,192,10.0,48.0
6292,84.0,120,192,8.0,48.0
6293,58.0,0,192,4.0,48.0
6294,63.0,0,192,4.0,48.0
6295,51.0,0,192,3.0,48.0
6296,51.0,0,192,12.0,48.0
6297,77.0,120,240,1.0,48.0
6298,87.0,0,120,0.0,58.0
6299,75.0,240,120,1.0,48.0
6300,79.0,0,120,1.0,48.0
6301,91.0,0,120,0.0,58.0
6302,72.0,120,120,2.0,38.0
6303,46.0,60,48,4.0,45.0
6304,58.0,0,48,4.0,45.0
6305,46.0,0,96,4.0,45.0
6306,58.0,0,96,4.0,45.0
6307,74.0,120,240,1.0,48.0
6308,65.0,60,120,2.0,38.0
6309,67.0,0,480,2.0,38.0
6310,86.0,0,240,0.0,58.0
6311,84.0,120,120,0.0,58.0
6312,72.0,0,120,1.0,48.0
6313,63.0,0,240,2.0,38.0
6314,67.0,0,240,2.0,38.0
6315,67.0,0,120,1.0,35.0
6316,79.0,120,120,1.0,35.0
6317,91.0,0,120,0.0,58.0
6318,58.0,60,48,4.0,45.0
6319,46.0,0,48,4.0,45.0
6320,63.0,120,120,2.0,38.0
6321,67.0,0,120,2.0,38.0
6322,87.0,0,120,0.0,58.0
6323,75.0,0,120,1.0,48.0
6324,72.0,0,120,1.0,48.0
6325,46.0,0,96,4.0,45.0
6326,58.0,0,96,4.0,45.0
6327,71.0,0,120,1.0,48.0
6328,74.0,0,120,1.0,48.0
6329,65.0,0,120,2.0,38.0
6330,86.0,0,120,0.0,58.0
6331,68.0,60,120,2.0,38.0
6332,72.0,120,120,1.0,43.0
6333,84.0,0,120,0.0,52.0
6334,67.0,0,120,2.0,34.0
6335,63.0,0,120,2.0,34.0
6336,63.0,0,126,4.0,104.0
6337,58.0,0,126,4.0,104.0
6338,63.0,0,126,12.0,104.0
6339,84.0,0,126,8.0,104.0
6340,51.0,0,126,13.0,104.0
6341,63.0,0,126,11.0,104.0
6342,63.0,120,126,3.0,104.0
6343,79.0,0,126,10.0,104.0
6344,63.0,180,42,11.0,104.0
6345,63.0,0,42,3.0,104.0
6346,79.0,0,42,10.0,104.0
6347,51.0,0,42,13.0,104.0
6348,63.0,0,42,12.0,104.0
6349,58.0,0,42,4.0,104.0
6350,63.0,0,42,4.0,104.0
6351,84.0,0,42,8.0,104.0
6352,62.0,0,96,4.0,104.0
6353,58.0,0,96,4.0,104.0
6354,65.0,0,96,12.0,104.0
6355,65.0,0,96,3.0,104.0
6356,74.0,0,96,8.0,104.0
6357,65.0,0,96,11.0,104.0
6358,53.0,60,96,13.0,104.0
6359,68.0,0,96,10.0,104.0
6360,74.0,0,120,5.0,80.0
6361,62.0,0,120,5.0,80.0
6362,50.0,0,192,6.0,104.0
6363,74.0,0,120,1.0,98.0
6364,86.0,120,120,0.0,64.0
6365,92.0,0,120,0.0,64.0
6366,80.0,0,120,1.0,78.0
6367,62.0,0,120,5.0,48.0
6368,74.0,0,120,5.0,48.0
6369,50.0,0,192,6.0,62.0
6370,53.0,0,192,12.0,48.0
6371,58.0,0,192,4.0,48.0
6372,62.0,0,192,4.0,48.0
6373,80.0,0,192,10.0,48.0
6374,77.0,0,192,11.0,48.0
6375,53.0,120,192,3.0,48.0
6376,41.0,0,192,13.0,48.0
6377,86.0,0,192,8.0,48.0
6378,89.0,120,120,0.0,64.0
6379,77.0,0,120,1.0,58.0
6380,87.0,0,120,0.0,64.0
6381,75.0,120,120,1.0,58.0
6382,74.0,0,120,1.0,58.0
6383,77.0,0,120,2.0,52.0
6384,86.0,120,120,0.0,64.0
6385,89.0,0,120,0.0,64.0
6386,77.0,0,120,1.0,58.0
6387,77.0,120,120,2.0,52.0
6388,80.0,0,120,2.0,52.0
6389,58.0,0,48,4.0,45.0
6390,46.0,60,48,4.0,45.0
6391,79.0,0,120,2.0,52.0
6392,79.0,120,120,1.0,58.0
6393,84.0,0,120,0.0,64.0
6394,75.0,0,120,2.0,52.0
6395,58.0,0,96,4.0,45.0
6396,46.0,0,96,4.0,45.0
6397,82.0,60,120,1.0,58.0
6398,82.0,0,120,0.0,64.0
6399,74.0,0,120,2.0,52.0
6400,77.0,0,120,2.0,52.0
6401,92.0,0,120,0.0,64.0
6402,75.0,0,120,2.0,52.0
6403,80.0,120,120,1.0,58.0
6404,72.0,0,120,2.0,52.0
6405,79.0,120,120,1.0,58.0
6406,91.0,0,120,0.0,64.0
6407,74.0,0,120,2.0,52.0
6408,70.0,0,120,2.0,52.0
6409,58.0,0,48,4.0,45.0
6410,46.0,60,48,4.0,45.0
6411,77.0,120,120,1.0,58.0
6412,68.0,0,120,2.0,52.0
6413,72.0,0,120,2.0,52.0
6414,89.0,0,120,0.0,64.0
6415,58.0,0,96,4.0,45.0
6416,46.0,0,96,4.0,45.0
6417,75.0,60,120,1.0,58.0
6418,87.0,0,120,0.0,64.0
6419,70.0,0,120,2.0,52.0
6420,67.0,0,120,2.0,52.0
6421,68.0,0,120,2.0,52.0
6422,65.0,0,120,2.0,52.0
6423,86.0,0,120,0.0,64.0
6424,74.0,120,120,1.0,58.0
6425,68.0,0,126,11.0,104.0
6426,65.0,120,126,12.0,104.0
6427,70.0,0,126,10.0,104.0
6428,53.0,0,126,3.0,104.0
6429,62.0,0,126,4.0,104.0
6430,58.0,0,126,4.0,104.0
6431,53.0,0,126,13.0,104.0
6432,86.0,0,126,8.0,104.0
6433,70.0,0,42,10.0,104.0
6434,68.0,180,42,11.0,104.0
6435,62.0,0,42,4.0,104.0
6436,86.0,0,42,8.0,104.0
6437,53.0,0,42,3.0,104.0
6438,58.0,0,42,4.0,104.0
6439,53.0,0,42,13.0,104.0
6440,65.0,0,42,12.0,104.0
6441,67.0,0,96,12.0,104.0
6442,75.0,0,96,8.0,104.0
6443,63.0,60,96,4.0,104.0
6444,55.0,0,96,13.0,104.0
6445,70.0,0,96,10.0,104.0
6446,55.0,0,96,3.0,104.0
6447,58.0,0,96,4.0,104.0
6448,70.0,0,96,11.0,104.0
6449,67.0,0,120,3.0,58.0
6450,58.0,120,120,3.0,58.0
6451,63.0,0,120,3.0,58.0
6452,43.0,0,192,13.0,48.0
6453,58.0,0,192,11.0,48.0
6454,82.0,120,192,10.0,48.0
6455,87.0,0,192,8.0,48.0
6456,43.0,0,192,3.0,48.0
6457,58.0,0,192,4.0,48.0
6458,63.0,0,192,4.0,48.0
6459,55.0,0,192,12.0,48.0
6460,56.0,120,240,3.0,58.0
6461,55.0,240,120,3.0,58.0
6462,70.0,0,120,2.0,52.0
6463,58.0,120,120,3.0,58.0
6464,75.0,0,120,2.0,52.0
6465,68.0,0,240,2.0,52.0
6466,53.0,120,240,3.0,58.0
6467,82.0,0,120,0.0,64.0
6468,67.0,120,0,2.0,52.0
6469,51.0,240,120,3.0,58.0
6470,79.0,0,120,2.0,52.0
6471,87.0,0,120,0.0,64.0
6472,55.0,0,120,3.0,58.0
6473,79.0,0,240,1.0,98.0
6474,51.0,0,120,3.0,58.0
6475,50.0,0,120,3.0,58.0
6476,65.0,0,120,2.0,52.0
6477,77.0,120,120,2.0,52.0
6478,82.0,0,120,0.0,64.0
6479,58.0,0,120,3.0,58.0
6480,82.0,0,120,1.0,58.0
6481,48.0,120,120,3.0,58.0
6482,60.0,0,120,3.0,58.0
6483,75.0,0,120,2.0,52.0
6484,80.0,0,120,1.0,58.0
6485,92.0,0,120,0.0,64.0
6486,63.0,0,120,2.0,52.0
6487,58.0,0,120,3.0,58.0
6488,62.0,0,120,2.0,52.0
6489,79.0,0,120,1.0,58.0
6490,46.0,120,120,3.0,58.0
6491,91.0,0,120,0.0,64.0
6492,74.0,0,120,2.0,52.0
6493,56.0,120,120,3.0,58.0
6494,89.0,0,120,0.0,64.0
6495,60.0,0,120,2.0,52.0
6496,72.0,0,120,2.0,52.0
6497,44.0,0,120,3.0,58.0
6498,77.0,0,120,1.0,58.0
6499,55.0,0,120,3.0,58.0
6500,70.0,0,120,2.0,52.0
6501,58.0,0,120,2.0,52.0
6502,43.0,0,120,3.0,58.0
6503,75.0,0,0,1.0,58.0
6504,87.0,0,0,0.0,78.0
6505,46.0,0,192,4.0,64.0
6506,58.0,0,192,4.0,64.0
6507,54.0,0,240,3.0,78.0
6508,42.0,120,240,3.0,58.0
6509,81.0,0,240,1.0,78.0
6510,69.0,0,240,2.0,78.0
6511,57.0,0,240,2.0,58.0
6512,53.0,0,104,3.0,64.0
6513,41.0,0,104,3.0,64.0
6514,58.0,0,104,2.0,64.0
6515,70.0,0,104,2.0,64.0
6516,82.0,0,104,1.0,64.0
6517,74.0,0,104,1.0,64.0
6518,62.0,0,104,4.0,64.0
6519,50.0,240,104,4.0,64.0
6520,58.0,0,104,4.0,64.0
6521,86.0,0,104,0.0,64.0
6522,46.0,0,104,4.0,64.0
6523,58.0,0,192,4.0,64.0
6524,46.0,0,192,4.0,64.0
6525,86.0,0,240,0.0,78.0
6526,53.0,0,240,3.0,78.0
6527,74.0,0,240,2.0,78.0
6528,41.0,0,240,3.0,58.0
6529,70.0,0,240,2.0,58.0
6530,86.0,0,240,1.0,78.0
6531,82.0,240,240,1.0,58.0
6532,67.0,0,104,2.0,64.0
6533,67.0,0,104,4.0,64.0
6534,72.0,0,104,2.0,64.0
6535,58.0,240,104,4.0,64.0
6536,46.0,0,104,4.0,64.0
6537,40.0,0,104,3.0,64.0
6538,52.0,0,104,3.0,64.0
6539,79.0,0,104,1.0,64.0
6540,84.0,0,104,1.0,64.0
6541,84.0,0,104,0.0,64.0
6542,46.0,0,192,4.0,64.0
6543,58.0,0,192,4.0,64.0
6544,79.0,0,240,1.0,58.0
6545,84.0,0,240,1.0,78.0
6546,84.0,0,240,0.0,78.0
6547,72.0,0,240,2.0,78.0
6548,67.0,240,240,2.0,58.0
6549,52.0,0,240,3.0,78.0
6550,40.0,0,240,3.0,58.0
6551,46.0,240,104,4.0,64.0
6552,58.0,0,104,4.0,64.0
6553,65.0,0,104,4.0,64.0
6554,53.0,0,120,3.0,64.0
6555,82.0,0,120,0.0,64.0
6556,62.0,0,120,2.0,64.0
6557,41.0,0,120,3.0,64.0
6558,70.0,0,120,2.0,64.0
6559,82.0,0,120,1.0,64.0
6560,74.0,0,120,1.0,64.0
6561,82.0,240,40,1.0,58.0
6562,70.0,0,40,2.0,58.0
6563,82.0,0,40,0.0,58.0
6564,84.0,40,40,0.0,58.0
6565,84.0,0,40,1.0,58.0
6566,72.0,0,40,2.0,58.0
6567,82.0,40,40,0.0,58.0
6568,70.0,0,40,2.0,58.0
6569,82.0,0,40,1.0,58.0
6570,84.0,40,40,0.0,58.0
6571,72.0,0,40,2.0,58.0
6572,84.0,0,40,1.0,58.0
6573,69.0,40,40,2.0,58.0
6574,81.0,0,40,1.0,58.0
6575,81.0,0,40,0.0,58.0
6576,82.0,0,40,0.0,58.0
6577,91.0,0,240,0.0,78.0
6578,53.0,0,240,3.0,78.0
6579,41.0,0,240,3.0,58.0
6580,74.0,0,240,1.0,77.0
6581,82.0,0,40,1.0,58.0
6582,62.0,0,240,2.0,77.0
6583,70.0,40,40,2.0,58.0
6584,62.0,0,240,4.0,90.0
6585,58.0,0,240,4.0,90.0
6586,57.0,0,104,4.0,64.0
6587,45.0,0,104,4.0,64.0
6588,60.0,0,120,4.0,90.0
6589,75.0,0,120,1.0,77.0
6590,84.0,0,120,1.0,58.0
6591,63.0,0,120,4.0,90.0
6592,65.0,0,120,3.0,64.0
6593,84.0,40,120,0.0,58.0
6594,57.0,0,120,5.0,80.0
6595,63.0,0,120,2.0,77.0
6596,72.0,0,120,2.0,58.0
6597,89.0,0,120,0.0,64.0
6598,53.0,0,120,3.0,64.0
6599,69.0,0,120,5.0,80.0
6600,45.0,0,192,6.0,112.0
6601,72.0,0,120,1.0,77.0
6602,81.0,0,120,1.0,58.0
6603,53.0,0,240,12.0,112.0
6604,41.0,0,240,13.0,112.0
6605,53.0,0,120,4.0,90.0
6606,81.0,0,120,0.0,46.0
6607,60.0,120,120,4.0,90.0
6608,69.0,0,120,2.0,46.0
6609,60.0,0,120,2.0,77.0
6610,46.0,0,192,4.0,64.0
6611,58.0,120,192,4.0,64.0
6612,87.0,0,480,8.0,112.0
6613,51.0,0,120,3.0,64.0
6614,75.0,0,120,2.0,64.0
6615,54.0,0,240,12.0,112.0
6616,75.0,120,120,0.0,80.0
6617,75.0,0,120,1.0,64.0
6618,42.0,0,240,13.0,112.0
6619,81.0,0,480,10.0,112.0
6620,72.0,0,480,11.0,112.0
6621,46.0,0,104,4.0,64.0
6622,58.0,0,104,4.0,64.0
6623,50.0,0,104,4.0,64.0
6624,62.0,0,104,4.0,64.0
6625,53.0,0,108,12.0,112.0
6626,41.0,0,108,13.0,112.0
6627,86.0,120,108,8.0,112.0
6628,82.0,0,108,10.0,112.0
6629,70.0,0,108,11.0,112.0
6630,86.0,0,114,2.0,64.0
6631,62.0,0,114,3.0,64.0
6632,86.0,0,114,1.0,64.0
6633,86.0,0,114,0.0,80.0
6634,74.0,0,120,5.0,104.0
6635,62.0,0,120,5.0,104.0
6636,50.0,0,192,6.0,112.0
6637,62.0,0,120,5.0,104.0
6638,74.0,240,120,5.0,104.0
6639,58.0,0,192,4.0,64.0
6640,46.0,0,192,4.0,64.0
6641,50.0,0,192,6.0,112.0
6642,74.0,120,120,2.0,64.0
6643,74.0,0,240,10.0,112.0
6644,70.0,0,240,11.0,112.0
6645,53.0,0,240,12.0,112.0
6646,74.0,0,120,1.0,64.0
6647,74.0,0,120,0.0,80.0
6648,86.0,0,240,8.0,112.0
6649,50.0,0,120,3.0,64.0
6650,41.0,0,240,13.0,112.0
6651,60.0,0,96,3.0,64.0
6652,84.0,0,96,0.0,80.0
6653,84.0,0,96,2.0,64.0
6654,84.0,0,96,1.0,64.0
6655,67.0,0,104,4.0,64.0
6656,46.0,0,104,4.0,64.0
6657,58.0,0,104,4.0,64.0
6658,52.0,0,108,12.0,112.0
6659,67.0,0,108,11.0,112.0
6660,84.0,0,108,8.0,112.0
6661,79.0,0,108,10.0,112.0
6662,40.0,120,108,13.0,112.0
6663,58.0,0,192,4.0,64.0
6664,46.0,240,192,4.0,64.0
6665,48.0,0,120,3.0,64.0
6666,72.0,120,120,0.0,80.0
6667,52.0,0,240,12.0,112.0
6668,84.0,0,240,8.0,112.0
6669,40.0,0,240,13.0,112.0
6670,72.0,0,120,2.0,64.0
6671,72.0,0,240,10.0,112.0
6672,72.0,0,120,1.0,64.0
6673,67.0,0,240,11.0,112.0
6674,58.0,0,104,4.0,64.0
6675,65.0,0,104,4.0,64.0
6676,46.0,0,104,4.0,64.0
6677,53.0,0,108,12.0,112.0
6678,62.0,0,108,11.0,112.0
6679,82.0,120,108,8.0,112.0
6680,77.0,0,108,10.0,112.0
6681,41.0,0,108,13.0,112.0
6682,82.0,0,114,1.0,64.0
6683,82.0,0,114,2.0,64.0
6684,58.0,0,114,3.0,64.0
6685,82.0,0,114,0.0,80.0
6686,74.0,0,120,5.0,104.0
6687,62.0,0,120,5.0,104.0
6688,50.0,0,192,6.0,112.0
6689,82.0,0,40,8.0,112.0
6690,77.0,0,40,10.0,112.0
6691,62.0,0,40,11.0,112.0
6692,50.0,0,40,12.0,112.0
6693,51.0,0,40,12.0,112.0
6694,63.0,0,40,11.0,112.0
6695,79.0,0,40,10.0,112.0
6696,84.0,40,40,8.0,112.0
6697,77.0,0,40,10.0,112.0
6698,62.0,0,120,5.0,104.0
6699,74.0,0,120,5.0,104.0
6700,82.0,0,40,8.0,112.0
6701,50.0,0,40,12.0,112.0
6702,62.0,40,40,11.0,112.0
6703,63.0,0,40,11.0,112.0
6704,84.0,0,40,8.0,112.0
6705,79.0,40,40,10.0,112.0
6706,51.0,0,40,12.0,112.0
6707,50.0,0,192,6.0,112.0
6708,81.0,0,40,8.0,112.0
6709,76.0,0,40,10.0,112.0
6710,60.0,40,40,11.0,112.0
6711,48.0,0,40,12.0,112.0
6712,50.0,0,40,12.0,112.0
6713,82.0,40,40,8.0,112.0
6714,62.0,0,40,11.0,112.0
6715,79.0,0,240,1.0,64.0
6716,77.0,0,40,10.0,112.0
6717,41.0,0,0,13.0,112.0
6718,62.0,0,240,4.0,90.0
6719,58.0,0,240,4.0,90.0
6720,62.0,0,240,3.0,64.0
6721,79.0,0,240,2.0,64.0
6722,91.0,0,240,0.0,80.0
6723,57.0,0,104,4.0,64.0
6724,45.0,0,104,4.0,64.0
6725,51.0,40,120,12.0,112.0
6726,63.0,0,120,11.0,112.0
6727,77.0,0,120,1.0,64.0
6728,89.0,0,120,0.0,80.0
6729,63.0,0,120,4.0,90.0
6730,69.0,0,120,5.0,104.0
6731,57.0,0,120,5.0,104.0
6732,60.0,0,0,4.0,90.0
6733,63.0,0,120,3.0,64.0
6734,72.0,0,120,10.0,112.0
6735,84.0,0,120,8.0,112.0
6736,77.0,0,120,2.0,64.0
6737,45.0,0,192,6.0,112.0
6738,81.0,120,120,0.0,80.0
6739,81.0,0,120,1.0,64.0
6740,77.0,0,120,10.0,112.0
6741,81.0,0,120,2.0,64.0
6742,53.0,0,120,4.0,90.0
6743,48.0,0,120,12.0,112.0
6744,81.0,0,120,8.0,112.0
6745,60.0,0,120,11.0,112.0
6746,60.0,0,120,3.0,64.0
6747,62.0,0,120,5.0,104.0
6748,70.0,0,120,10.0,127.0
6749,82.0,0,120,8.0,127.0
6750,62.0,0,120,4.0,104.0
6751,50.0,0,120,4.0,104.0
6752,50.0,0,192,6.0,104.0
6753,58.0,0,90,10.0,104.0
6754,70.0,240,90,8.0,104.0
6755,70.0,180,48,8.0,104.0
6756,58.0,0,48,10.0,104.0
6757,34.0,0,576,3.0,80.0
6758,46.0,0,576,3.0,80.0
6759,58.0,0,576,4.0,80.0
6760,82.0,0,576,0.0,80.0
6761,34.0,120,576,13.0,120.0
6762,70.0,0,576,2.0,80.0
6763,58.0,0,576,11.0,120.0
6764,82.0,0,576,1.0,80.0
6765,70.0,0,576,1.0,80.0
6766,46.0,0,576,4.0,80.0
6767,46.0,0,576,12.0,120.0
6768,58.0,0,576,2.0,80.0
6769,58.0,240,72,4.0,80.0
6770,46.0,0,72,4.0,80.0
6771,82.0,0,72,1.0,80.0
6772,70.0,0,72,1.0,80.0
6773,58.0,0,72,11.0,80.0
6774,82.0,0,72,0.0,80.0
6775,34.0,0,72,13.0,80.0
6776,46.0,0,72,12.0,80.0
6777,70.0,0,72,2.0,80.0
6778,58.0,0,72,2.0,80.0
6779,34.0,0,72,3.0,80.0
6780,46.0,0,72,3.0,80.0
6781,58.0,0,48,11.0,80.0
6782,46.0,0,48,12.0,80.0
6783,70.0,0,48,1.0,80.0
6784,82.0,0,48,1.0,80.0
6785,34.0,0,48,13.0,80.0
6786,46.0,0,48,3.0,80.0
6787,46.0,0,48,4.0,80.0
6788,58.0,0,48,4.0,80.0
6789,34.0,0,48,3.0,80.0
6790,70.0,180,48,2.0,80.0
6791,58.0,0,48,2.0,80.0
6792,82.0,0,48,0.0,80.0
6793,62.0,0,120,4.0,80.0
6794,74.0,0,120,5.0,104.0
6795,62.0,0,600,10.0,104.0
6796,50.0,0,120,4.0,80.0
6797,74.0,60,600,8.0,104.0
6798,62.0,0,120,5.0,104.0
6799,50.0,0,192,6.0,104.0
6800,62.0,0,90,10.0,104.0
6801,74.0,240,90,8.0,104.0
6802,74.0,180,48,8.0,104.0
6803,62.0,0,48,10.0,104.0
6804,86.0,0,576,0.0,80.0
6805,38.0,60,576,13.0,80.0
6806,50.0,0,576,3.0,80.0
6807,38.0,0,576,3.0,80.0
6808,86.0,0,576,1.0,80.0
6809,74.0,0,576,1.0,80.0
6810,50.0,0,576,12.0,80.0
6811,62.0,0,576,11.0,80.0
6812,62.0,0,576,2.0,80.0
6813,74.0,0,576,2.0,80.0
6814,86.0,0,72,0.0,80.0
6815,38.0,0,72,13.0,80.0
6816,74.0,0,72,2.0,80.0
6817,62.0,0,72,2.0,80.0
6818,50.0,0,72,3.0,80.0
6819,50.0,240,72,4.0,80.0
6820,62.0,0,72,4.0,80.0
6821,62.0,0,72,11.0,80.0
6822,74.0,0,72,1.0,80.0
6823,50.0,0,72,12.0,80.0
6824,86.0,0,72,1.0,80.0
6825,38.0,0,72,3.0,80.0
6826,86.0,0,48,1.0,80.0
6827,62.0,0,48,11.0,80.0
6828,38.0,0,48,3.0,80.0
6829,50.0,0,48,3.0,80.0
6830,50.0,0,48,4.0,80.0
6831,74.0,0,48,1.0,80.0
6832,62.0,0,48,4.0,80.0
6833,38.0,0,48,13.0,80.0
6834,62.0,0,48,2.0,80.0
6835,86.0,0,48,0.0,80.0
6836,74.0,180,48,2.0,80.0
6837,50.0,0,48,12.0,80.0
6838,74.0,0,120,5.0,104.0
6839,65.0,60,600,10.0,104.0
6840,50.0,0,120,4.0,104.0
6841,77.0,0,600,8.0,104.0
6842,62.0,0,120,4.0,104.0
6843,62.0,0,120,5.0,104.0
6844,50.0,0,192,6.0,104.0
6845,65.0,0,90,10.0,104.0
6846,77.0,240,90,8.0,104.0
6847,65.0,0,48,10.0,104.0
6848,77.0,180,48,8.0,104.0
6849,65.0,0,576,2.0,80.0
6850,77.0,60,576,2.0,80.0
6851,77.0,0,576,1.0,80.0
6852,65.0,0,576,1.0,80.0
6853,53.0,0,576,12.0,80.0
6854,41.0,0,576,3.0,80.0
6855,53.0,0,576,4.0,80.0
6856,65.0,0,576,11.0,80.0
6857,41.0,0,576,13.0,80.0
6858,65.0,0,576,4.0,80.0
6859,89.0,0,576,0.0,80.0
6860,53.0,0,576,3.0,80.0
6861,65.0,0,72,11.0,80.0
6862,41.0,0,72,13.0,80.0
6863,77.0,0,72,0.0,80.0
6864,53.0,240,72,12.0,80.0
6865,65.0,0,72,4.0,80.0
6866,77.0,0,72,1.0,80.0
6867,53.0,0,72,4.0,80.0
6868,65.0,0,72,1.0,80.0
6869,77.0,0,72,2.0,80.0
6870,53.0,0,72,3.0,80.0
6871,41.0,0,72,3.0,80.0
6872,65.0,0,72,2.0,80.0
6873,53.0,0,48,12.0,80.0
6874,65.0,0,48,4.0,80.0
6875,41.0,0,48,13.0,80.0
6876,77.0,0,48,2.0,80.0
6877,65.0,0,48,11.0,80.0
6878,65.0,0,48,2.0,80.0
6879,41.0,0,48,3.0,80.0
6880,77.0,0,48,0.0,80.0
6881,53.0,180,48,3.0,80.0
6882,65.0,0,48,1.0,80.0
6883,77.0,0,48,1.0,80.0
6884,53.0,0,48,4.0,80.0
6885,82.0,60,600,8.0,104.0
6886,70.0,0,600,10.0,104.0
6887,50.0,0,120,4.0,104.0
6888,62.0,0,120,5.0,104.0
6889,74.0,0,120,5.0,104.0
6890,62.0,0,120,4.0,104.0
6891,82.0,0,192,0.0,80.0
6892,50.0,0,192,6.0,104.0
6893,58.0,0,192,12.0,80.0
6894,82.0,0,192,2.0,80.0
6895,58.0,0,192,3.0,80.0
6896,46.0,0,192,3.0,80.0
6897,46.0,0,192,13.0,80.0
6898,58.0,0,192,4.0,80.0
6899,70.0,60,192,11.0,80.0
6900,82.0,0,192,1.0,80.0
6901,70.0,0,192,4.0,80.0
6902,70.0,0,192,2.0,80.0
6903,70.0,0,192,1.0,80.0
6904,46.0,0,72,13.0,80.0
6905,70.0,0,72,11.0,80.0
6906,58.0,0,72,12.0,80.0
6907,82.0,240,72,1.0,80.0
6908,70.0,0,72,4.0,80.0
6909,70.0,0,72,1.0,80.0
6910,58.0,0,72,4.0,80.0
6911,58.0,0,72,3.0,80.0
6912,46.0,0,72,3.0,80.0
6913,82.0,0,72,2.0,80.0
6914,70.0,0,72,2.0,80.0
6915,82.0,0,72,0.0,80.0
6916,82.0,0,90,8.0,104.0
6917,70.0,0,90,10.0,104.0
6918,70.0,0,48,11.0,80.0
6919,70.0,0,48,10.0,104.0
6920,58.0,0,48,12.0,80.0
6921,70.0,0,48,2.0,80.0
6922,82.0,0,48,2.0,80.0
6923,58.0,0,48,3.0,80.0
6924,82.0,0,48,0.0,80.0
6925,46.0,0,48,13.0,80.0
6926,70.0,0,48,1.0,80.0
6927,82.0,0,48,1.0,80.0
6928,82.0,180,48,8.0,104.0
6929,70.0,0,48,4.0,80.0
6930,58.0,0,48,4.0,80.0
6931,46.0,0,48,3.0,80.0
6932,62.0,0,120,4.0,80.0
6933,74.0,0,120,10.0,104.0
6934,62.0,0,120,5.0,104.0
6935,86.0,0,120,8.0,104.0
6936,74.0,0,120,4.0,80.0
6937,50.0,0,120,6.0,104.0
6938,50.0,0,120,4.0,104.0
6939,74.0,0,120,5.0,104.0
6940,50.0,0,120,3.0,80.0
6941,74.0,0,120,2.0,80.0
6942,62.0,0,120,2.0,80.0
6943,62.0,0,120,3.0,80.0
6944,74.0,0,226,1.0,80.0
6945,62.0,60,226,12.0,80.0
6946,50.0,0,226,13.0,80.0
6947,74.0,0,226,11.0,80.0
6948,86.0,0,226,0.0,80.0
6949,86.0,0,226,1.0,80.0
6950,62.0,0,72,2.0,80.0
6951,86.0,0,72,0.0,80.0
6952,74.0,0,72,11.0,80.0
6953,62.0,0,72,12.0,80.0
6954,50.0,0,72,3.0,80.0
6955,86.0,0,72,1.0,80.0
6956,74.0,0,72,2.0,80.0
6957,50.0,0,72,13.0,80.0
6958,74.0,0,72,4.0,80.0
6959,62.0,0,72,4.0,80.0
6960,62.0,240,72,3.0,80.0
6961,74.0,0,72,1.0,80.0
6962,74.0,0,90,10.0,104.0
6963,86.0,0,90,8.0,104.0
6964,86.0,0,48,8.0,104.0
6965,62.0,0,48,2.0,80.0
6966,74.0,0,48,2.0,80.0
6967,62.0,0,48,4.0,80.0
6968,74.0,0,48,4.0,80.0
6969,50.0,0,48,13.0,80.0
6970,62.0,0,48,3.0,80.0
6971,50.0,0,48,3.0,80.0
6972,74.0,0,48,10.0,104.0
6973,62.0,0,48,12.0,80.0
6974,86.0,0,48,1.0,80.0
6975,74.0,0,48,11.0,80.0
6976,86.0,180,48,0.0,80.0
6977,74.0,0,48,1.0,80.0
6978,65.0,0,120,3.0,104.0
6979,77.0,0,120,10.0,104.0
6980,65.0,0,120,12.0,104.0
6981,50.0,0,120,4.0,104.0
6982,62.0,0,120,4.0,104.0
6983,65.0,60,120,11.0,104.0
6984,53.0,0,120,13.0,104.0
6985,62.0,0,120,5.0,104.0
6986,74.0,0,120,5.0,104.0
6987,89.0,0,120,8.0,104.0
6988,65.0,0,120,4.0,104.0
6989,77.0,0,120,1.0,104.0
6990,89.0,0,120,0.0,104.0
6991,77.0,0,120,2.0,104.0
6992,50.0,0,192,6.0,104.0
6993,58.0,0,90,3.0,104.0
6994,70.0,0,90,10.0,104.0
6995,58.0,0,90,11.0,104.0
6996,82.0,0,90,0.0,104.0
6997,70.0,0,90,1.0,104.0
6998,46.0,0,90,13.0,104.0
6999,58.0,0,90,4.0,104.0
7000,58.0,0,90,12.0,104.0
7001,82.0,0,90,8.0,104.0
7002,70.0,240,90,2.0,104.0
7003,82.0,0,48,0.0,104.0
7004,70.0,0,48,10.0,104.0
7005,82.0,0,48,8.0,104.0
7006,58.0,0,48,3.0,104.0
7007,58.0,0,48,11.0,104.0
7008,70.0,0,48,1.0,104.0
7009,58.0,180,48,4.0,104.0
7010,58.0,0,48,12.0,104.0
7011,46.0,0,48,13.0,104.0
7012,70.0,0,48,2.0,104.0
7013,74.0,0,120,5.0,104.0
7014,62.0,0,120,11.0,104.0
7015,62.0,0,120,12.0,104.0
7016,50.0,0,120,13.0,104.0
7017,62.0,0,120,3.0,104.0
7018,74.0,0,120,1.0,104.0
7019,50.0,0,120,4.0,104.0
7020,74.0,0,120,10.0,104.0
7021,62.0,0,120,4.0,104.0
7022,86.0,0,120,8.0,104.0
7023,62.0,0,120,5.0,104.0
7024,74.0,0,120,2.0,104.0
7025,86.0,60,120,0.0,104.0
7026,50.0,0,192,6.0,104.0
7027,65.0,0,90,10.0,104.0
7028,53.0,0,90,12.0,104.0
7029,53.0,0,90,4.0,104.0
7030,53.0,0,90,11.0,104.0
7031,77.0,240,90,8.0,104.0
7032,77.0,0,90,0.0,104.0
7033,65.0,0,90,2.0,104.0
7034,65.0,0,90,1.0,104.0
7035,53.0,0,90,3.0,104.0
7036,41.0,0,90,13.0,104.0
7037,77.0,0,48,8.0,104.0
7038,53.0,0,48,11.0,104.0
7039,53.0,0,48,4.0,104.0
7040,53.0,0,48,12.0,104.0
7041,65.0,0,48,2.0,104.0
7042,41.0,180,48,13.0,104.0
7043,65.0,0,48,1.0,104.0
7044,53.0,0,48,3.0,104.0
7045,77.0,0,48,0.0,104.0
7046,65.0,0,48,10.0,104.0
7047,74.0,0,120,5.0,104.0
7048,62.0,0,120,4.0,104.0
7049,50.0,60,120,4.0,104.0
7050,58.0,0,120,3.0,104.0
7051,82.0,0,120,8.0,104.0
7052,58.0,0,120,11.0,104.0
7053,58.0,0,120,4.0,104.0
7054,62.0,0,120,5.0,104.0
7055,58.0,0,120,12.0,104.0
7056,70.0,0,120,10.0,104.0
7057,82.0,0,120,0.0,104.0
7058,46.0,0,120,13.0,104.0
7059,70.0,0,120,2.0,104.0
7060,70.0,0,120,1.0,104.0
7061,50.0,0,192,6.0,104.0
7062,74.0,0,90,8.0,104.0
7063,50.0,0,90,3.0,104.0
7064,50.0,0,90,4.0,104.0
7065,62.0,0,90,2.0,104.0
7066,74.0,0,90,1.0,104.0
7067,50.0,0,90,11.0,104.0
7068,50.0,0,90,12.0,104.0
7069,86.0,0,90,0.0,104.0
7070,38.0,240,90,13.0,104.0
7071,62.0,0,90,10.0,104.0
7072,62.0,0,48,10.0,104.0
7073,74.0,0,48,8.0,104.0
7074,62.0,0,48,2.0,104.0
7075,50.0,0,48,11.0,104.0
7076,38.0,0,48,13.0,104.0
7077,50.0,0,48,3.0,104.0
7078,50.0,180,48,12.0,104.0
7079,74.0,0,48,1.0,104.0
7080,86.0,0,48,0.0,104.0
7081,50.0,0,48,4.0,104.0
7082,53.0,0,120,12.0,104.0
7083,41.0,0,120,13.0,104.0
7084,74.0,0,120,5.0,104.0
7085,89.0,0,120,0.0,104.0
7086,62.0,0,120,5.0,104.0
7087,50.0,0,120,4.0,104.0
7088,53.0,0,120,4.0,104.0
7089,77.0,0,120,8.0,104.0
7090,53.0,0,120,3.0,104.0
7091,65.0,0,120,10.0,104.0
7092,53.0,60,120,11.0,104.0
7093,62.0,0,120,4.0,104.0
7094,65.0,0,120,2.0,104.0
7095,77.0,0,120,1.0,104.0
7096,50.0,0,192,6.0,104.0
7097,46.0,0,90,11.0,104.0
7098,70.0,0,90,1.0,104.0
7099,70.0,0,90,8.0,104.0
7100,58.0,0,90,10.0,104.0
7101,46.0,240,90,12.0,104.0
7102,82.0,0,90,0.0,104.0
7103,34.0,0,90,13.0,104.0
7104,58.0,0,90,2.0,104.0
7105,46.0,0,90,3.0,104.0
7106,46.0,0,90,4.0,104.0
7107,46.0,0,48,12.0,104.0
7108,46.0,180,48,11.0,104.0
7109,70.0,0,48,8.0,104.0
7110,34.0,0,48,13.0,104.0
7111,46.0,0,48,3.0,104.0
7112,70.0,0,48,1.0,104.0
7113,82.0,0,48,0.0,104.0
7114,58.0,0,48,10.0,104.0
7115,58.0,0,48,2.0,104.0
7116,46.0,0,48,4.0,104.0
7117,38.0,0,120,13.0,104.0
7118,50.0,0,120,4.0,104.0
7119,74.0,0,120,1.0,104.0
7120,62.0,0,120,2.0,104.0
7121,50.0,0,120,3.0,104.0
7122,86.0,0,120,0.0,104.0
7123,62.0,0,120,4.0,104.0
7124,62.0,0,120,10.0,104.0
7125,50.0,0,120,12.0,104.0
7126,50.0,0,120,11.0,104.0
7127,62.0,0,120,5.0,104.0
7128,74.0,0,120,8.0,104.0
7129,74.0,0,120,5.0,104.0
7130,50.0,60,192,6.0,104.0
7131,41.0,0,90,13.0,104.0
7132,53.0,240,90,12.0,104.0
7133,53.0,0,90,4.0,104.0
7134,65.0,0,90,1.0,104.0
7135,53.0,0,90,11.0,104.0
7136,65.0,0,90,2.0,104.0
7137,77.0,0,90,0.0,104.0
7138,65.0,0,90,8.0,104.0
7139,53.0,0,90,10.0,104.0
7140,53.0,0,90,3.0,104.0
7141,65.0,0,48,2.0,104.0
7142,53.0,0,48,3.0,104.0
7143,41.0,0,48,13.0,104.0
7144,65.0,0,48,8.0,104.0
7145,53.0,180,48,12.0,104.0
7146,53.0,0,48,11.0,104.0
7147,65.0,0,48,1.0,104.0
7148,77.0,0,48,0.0,104.0
7149,53.0,0,48,10.0,104.0
7150,53.0,0,48,4.0,104.0
7151,70.0,0,120,8.0,104.0
7152,58.0,0,120,10.0,104.0
7153,46.0,0,120,13.0,104.0
7154,58.0,60,120,12.0,104.0
7155,50.0,0,120,4.0,104.0
7156,62.0,0,120,4.0,104.0
7157,62.0,0,120,5.0,104.0
7158,58.0,0,120,4.0,104.0
7159,74.0,0,120,5.0,104.0
7160,70.0,0,120,1.0,104.0
7161,58.0,0,120,11.0,104.0
7162,82.0,0,120,0.0,104.0
7163,70.0,0,120,2.0,104.0
7164,58.0,0,120,3.0,104.0
7165,50.0,0,192,6.0,104.0
7166,50.0,0,90,3.0,104.0
7167,50.0,0,90,4.0,104.0
7168,62.0,240,90,8.0,104.0
7169,50.0,0,90,12.0,104.0
7170,62.0,0,90,1.0,104.0
7171,38.0,0,90,13.0,104.0
7172,50.0,0,90,10.0,104.0
7173,74.0,0,90,0.0,104.0
7174,50.0,0,90,11.0,104.0
7175,62.0,0,90,2.0,104.0
7176,74.0,0,48,0.0,104.0
7177,50.0,0,48,10.0,104.0
7178,50.0,0,48,3.0,104.0
7179,38.0,0,48,13.0,104.0
7180,62.0,0,48,8.0,104.0
7181,50.0,0,48,11.0,104.0
7182,50.0,0,48,12.0,104.0
7183,62.0,180,48,2.0,104.0
7184,50.0,0,48,4.0,104.0
7185,62.0,0,48,1.0,104.0
7186,53.0,0,120,10.0,104.0
7187,77.0,0,120,0.0,104.0
7188,74.0,0,120,5.0,104.0
7189,62.0,0,120,5.0,104.0
7190,53.0,0,120,12.0,104.0
7191,65.0,0,120,1.0,104.0
7192,65.0,0,120,2.0,104.0
7193,62.0,0,120,4.0,104.0
7194,50.0,0,120,4.0,104.0
7195,41.0,0,120,13.0,104.0
7196,53.0,0,120,4.0,104.0
7197,53.0,60,120,3.0,104.0
7198,53.0,0,120,11.0,104.0
7199,65.0,0,120,8.0,104.0
7200,50.0,0,192,6.0,104.0
7201,46.0,240,90,12.0,104.0
7202,46.0,0,90,11.0,104.0
7203,46.0,0,90,4.0,104.0
7204,58.0,0,90,4.0,104.0
7205,58.0,0,90,1.0,104.0
7206,34.0,0,90,13.0,104.0
7207,58.0,0,90,2.0,104.0
7208,46.0,0,90,10.0,104.0
7209,58.0,0,90,8.0,104.0
7210,46.0,0,90,3.0,104.0
7211,70.0,0,90,0.0,104.0
7212,46.0,0,48,3.0,104.0
7213,46.0,0,48,4.0,104.0
7214,58.0,180,48,4.0,104.0
7215,46.0,0,48,10.0,104.0
7216,70.0,0,48,0.0,104.0
7217,46.0,0,48,11.0,104.0
7218,58.0,0,48,2.0,104.0
7219,34.0,0,48,13.0,104.0
7220,58.0,0,48,1.0,104.0
7221,46.0,0,48,12.0,104.0
7222,58.0,0,48,8.0,104.0
7223,50.0,0,120,4.0,104.0
7224,62.0,0,120,4.0,104.0
7225,58.0,0,120,11.0,104.0
7226,74.0,0,120,5.0,104.0
7227,70.0,0,120,2.0,104.0
7228,70.0,0,120,1.0,104.0
7229,46.0,0,120,13.0,104.0
7230,70.0,0,120,8.0,104.0
7231,62.0,60,120,5.0,104.0
7232,58.0,0,120,12.0,104.0
7233,82.0,0,120,0.0,104.0
7234,58.0,0,120,3.0,104.0
7235,58.0,0,120,10.0,104.0
7236,58.0,0,120,4.0,104.0
7237,50.0,0,192,6.0,104.0
7238,46.0,0,90,3.0,104.0
7239,34.0,0,90,13.0,104.0
7240,70.0,0,90,0.0,104.0
7241,58.0,240,90,2.0,104.0
7242,58.0,0,90,1.0,104.0
7243,46.0,0,90,4.0,104.0
7244,58.0,0,90,4.0,104.0
7245,46.0,0,90,11.0,104.0
7246,58.0,0,90,8.0,104.0
7247,46.0,0,90,10.0,104.0
7248,46.0,0,90,12.0,104.0
7249,46.0,0,48,3.0,104.0
7250,58.0,0,48,8.0,104.0
7251,46.0,0,48,10.0,104.0
7252,70.0,0,48,0.0,104.0
7253,58.0,180,48,2.0,104.0
7254,46.0,0,48,12.0,104.0
7255,46.0,0,48,11.0,104.0
7256,46.0,0,48,4.0,104.0
7257,58.0,0,48,4.0,104.0
7258,34.0,0,48,13.0,104.0
7259,58.0,0,48,1.0,104.0
7260,58.0,0,120,3.0,104.0
7261,82.0,0,120,1.0,104.0
7262,46.0,0,120,4.0,104.0
7263,50.0,0,120,4.0,104.0
7264,62.0,0,120,4.0,104.0
7265,58.0,0,120,4.0,104.0
7266,82.0,0,120,8.0,104.0
7267,46.0,0,120,13.0,104.0
7268,70.0,0,120,10.0,104.0
7269,62.0,0,120,5.0,104.0
7270,74.0,0,120,5.0,104.0
7271,70.0,0,120,11.0,104.0
7272,82.0,0,120,0.0,104.0
7273,70.0,60,120,2.0,104.0
7274,58.0,0,120,12.0,104.0
7275,50.0,0,192,6.0,127.0
7276,58.0,0,48,12.0,56.0
7277,58.0,0,48,3.0,56.0
7278,82.0,0,48,1.0,56.0
7279,70.0,0,48,8.0,56.0
7280,82.0,0,48,0.0,56.0
7281,70.0,0,48,2.0,56.0
7282,46.0,900,48,13.0,56.0
7283,58.0,0,192,8.0,56.0
7284,58.0,0,192,2.0,56.0
7285,46.0,0,192,12.0,56.0
7286,70.0,60,192,1.0,56.0
7287,34.0,0,192,13.0,56.0
7288,70.0,0,192,0.0,56.0
7289,46.0,0,192,3.0,56.0
7290,70.0,0,48,1.0,27.0
7291,58.0,0,48,8.0,27.0
7292,58.0,0,48,2.0,27.0
7293,70.0,0,48,0.0,27.0
7294,46.0,0,48,3.0,27.0
7295,46.0,0,48,12.0,27.0
7296,34.0,900,48,13.0,27.0
7297,57.0,0,64,10.0,24.0
7298,57.0,80,64,10.0,24.0
7299,57.0,0,192,8.0,19.0
7300,69.0,0,192,1.0,19.0
7301,33.0,0,192,13.0,19.0
7302,69.0,0,192,0.0,19.0
7303,45.0,60,192,12.0,19.0
7304,45.0,0,192,3.0,19.0
7305,57.0,0,192,2.0,19.0
7306,57.0,80,64,10.0,24.0
7307,57.0,80,64,10.0,24.0
7308,57.0,80,64,10.0,24.0
7309,57.0,80,64,10.0,24.0
7310,57.0,0,64,10.0,24.0
7311,57.0,80,64,10.0,24.0
7312,45.0,0,192,6.0,32.0
7313,57.0,80,192,5.0,32.0
7314,57.0,80,64,10.0,24.0
7315,57.0,80,64,10.0,24.0
7316,57.0,80,64,10.0,24.0
7317,57.0,80,64,10.0,24.0
7318,57.0,80,64,10.0,24.0
7319,57.0,80,64,10.0,24.0
7320,57.0,80,64,10.0,24.0
7321,57.0,80,64,10.0,24.0
7322,57.0,80,64,10.0,24.0
7323,57.0,80,64,10.0,24.0
7324,57.0,80,64,10.0,24.0
7325,57.0,80,64,10.0,24.0
7326,57.0,80,64,10.0,24.0
7327,57.0,80,64,10.0,24.0
7328,57.0,80,64,10.0,24.0
7329,57.0,80,64,10.0,24.0
7330,45.0,80,64,12.0,22.0
7331,52.0,0,64,12.0,22.0
7332,64.0,0,64,10.0,22.0
7333,57.0,0,64,10.0,22.0
7334,52.0,80,64,12.0,22.0
7335,45.0,0,64,12.0,22.0
7336,64.0,0,64,10.0,22.0
7337,57.0,0,64,10.0,22.0
7338,45.0,80,64,12.0,22.0
7339,52.0,0,64,12.0,22.0
7340,57.0,0,64,10.0,22.0
7341,64.0,0,64,10.0,22.0
7342,64.0,0,64,10.0,22.0
7343,57.0,0,64,10.0,22.0
7344,45.0,80,64,12.0,22.0
7345,52.0,0,64,12.0,22.0
7346,57.0,0,64,10.0,22.0
7347,64.0,0,64,10.0,22.0
7348,52.0,80,64,12.0,22.0
7349,45.0,0,64,12.0,22.0
7350,64.0,0,64,10.0,22.0
7351,52.0,0,64,12.0,22.0
7352,57.0,0,64,10.0,22.0
7353,45.0,80,64,12.0,22.0
7354,57.0,0,64,10.0,22.0
7355,45.0,0,64,12.0,22.0
7356,52.0,80,64,12.0,22.0
7357,64.0,0,64,10.0,22.0
7358,64.0,0,64,10.0,22.0
7359,45.0,0,64,12.0,22.0
7360,52.0,80,64,12.0,22.0
7361,57.0,0,64,10.0,22.0
7362,52.0,0,64,12.0,22.0
7363,64.0,80,64,10.0,22.0
7364,57.0,0,64,10.0,22.0
7365,45.0,0,64,12.0,22.0
7366,64.0,0,64,10.0,22.0
7367,57.0,80,64,10.0,22.0
7368,52.0,0,64,12.0,22.0
7369,45.0,0,64,12.0,22.0
7370,52.0,0,64,12.0,22.0
7371,64.0,0,64,10.0,22.0
7372,57.0,80,64,10.0,22.0
7373,45.0,0,64,12.0,22.0
7374,52.0,0,64,12.0,22.0
7375,45.0,80,64,12.0,22.0
7376,64.0,0,64,10.0,22.0
7377,57.0,0,64,10.0,22.0
7378,45.0,0,64,12.0,22.0
7379,52.0,0,64,12.0,22.0
7380,57.0,80,64,10.0,22.0
7381,64.0,0,64,10.0,22.0
7382,52.0,80,64,12.0,22.0
7383,57.0,0,64,10.0,22.0
7384,45.0,0,64,12.0,22.0
7385,64.0,0,64,10.0,22.0
7386,57.0,0,64,10.0,22.0
7387,64.0,80,64,10.0,22.0
7388,52.0,0,64,12.0,22.0
7389,45.0,0,64,12.0,22.0
7390,52.0,0,64,12.0,22.0
7391,45.0,0,64,12.0,22.0
7392,64.0,80,64,10.0,22.0
7393,57.0,0,64,10.0,22.0
7394,52.0,80,64,12.0,22.0
7395,64.0,0,64,10.0,22.0
7396,57.0,0,64,10.0,22.0
7397,45.0,0,64,12.0,22.0
7398,64.0,0,64,10.0,22.0
7399,45.0,80,64,12.0,22.0
7400,57.0,0,64,10.0,22.0
7401,52.0,0,64,12.0,22.0
7402,57.0,80,64,10.0,22.0
7403,45.0,0,64,12.0,22.0
7404,52.0,0,64,12.0,22.0
7405,64.0,0,64,10.0,22.0
7406,57.0,0,64,10.0,22.0
7407,64.0,0,64,10.0,22.0
7408,52.0,0,64,12.0,22.0
7409,45.0,80,64,12.0,22.0
7410,64.0,0,64,10.0,22.0
7411,52.0,80,64,12.0,22.0
7412,57.0,0,64,10.0,22.0
7413,45.0,0,64,12.0,22.0
7414,64.0,0,64,10.0,22.0
7415,57.0,0,64,10.0,22.0
7416,45.0,80,64,12.0,22.0
7417,52.0,0,64,12.0,22.0
7418,52.0,0,64,12.0,22.0
7419,45.0,0,64,12.0,22.0
7420,64.0,0,64,10.0,22.0
7421,57.0,80,64,10.0,22.0
7422,64.0,80,64,10.0,22.0
7423,57.0,0,64,10.0,22.0
7424,52.0,0,64,12.0,22.0
7425,45.0,0,64,12.0,22.0
7426,76.0,20,48,8.0,25.0
7427,64.0,0,64,10.0,22.0
7428,45.0,0,64,12.0,22.0
7429,52.0,60,64,12.0,22.0
7430,57.0,0,64,10.0,22.0
7431,57.0,0,64,10.0,22.0
7432,64.0,0,64,10.0,22.0
7433,52.0,80,64,12.0,22.0
7434,45.0,0,64,12.0,22.0
7435,52.0,80,64,12.0,22.0
7436,45.0,0,64,12.0,22.0
7437,64.0,0,64,10.0,22.0
7438,57.0,0,64,10.0,22.0
7439,57.0,0,64,10.0,22.0
7440,64.0,0,64,10.0,22.0
7441,45.0,0,64,12.0,22.0
7442,52.0,80,64,12.0,22.0
7443,69.0,0,384,8.0,25.0
7444,52.0,0,64,12.0,22.0
7445,45.0,80,64,12.0,22.0
7446,64.0,0,64,10.0,22.0
7447,57.0,0,64,10.0,22.0
7448,52.0,80,64,12.0,22.0
7449,57.0,0,64,10.0,22.0
7450,64.0,0,64,10.0,22.0
7451,45.0,0,64,12.0,22.0
7452,45.0,0,64,12.0,22.0
7453,64.0,0,64,10.0,22.0
7454,57.0,0,64,10.0,22.0
7455,52.0,80,64,12.0,22.0
7456,45.0,0,64,12.0,22.0
7457,52.0,0,64,12.0,22.0
7458,57.0,80,64,10.0,22.0
7459,64.0,0,64,10.0,22.0
7460,45.0,80,64,12.0,22.0
7461,52.0,0,64,12.0,22.0
7462,57.0,0,64,10.0,22.0
7463,64.0,0,64,10.0,22.0
7464,52.0,0,64,12.0,22.0
7465,57.0,0,64,10.0,22.0
7466,45.0,0,64,12.0,22.0
7467,64.0,80,64,10.0,22.0
7468,64.0,0,64,10.0,22.0
7469,57.0,0,64,10.0,22.0
7470,45.0,80,64,12.0,22.0
7471,52.0,0,64,12.0,22.0
7472,45.0,0,64,12.0,22.0
7473,64.0,0,64,10.0,22.0
7474,57.0,80,64,10.0,22.0
7475,52.0,0,64,12.0,22.0
7476,69.0,20,48,8.0,25.0
7477,64.0,0,64,10.0,22.0
7478,52.0,0,64,12.0,22.0
7479,45.0,0,64,12.0,22.0
7480,57.0,0,64,10.0,22.0
7481,52.0,0,64,12.0,22.0
7482,45.0,80,64,12.0,22.0
7483,64.0,0,64,10.0,22.0
7484,57.0,0,64,10.0,22.0
7485,45.0,0,64,12.0,22.0
7486,64.0,0,64,10.0,22.0
7487,57.0,80,64,10.0,22.0
7488,52.0,0,64,12.0,22.0
7489,64.0,0,64,10.0,22.0
7490,45.0,0,64,12.0,22.0
7491,57.0,80,64,10.0,22.0
7492,52.0,0,64,12.0,22.0
7493,64.0,0,64,10.0,22.0
7494,57.0,80,64,10.0,22.0
7495,52.0,0,64,12.0,22.0
7496,64.0,60,384,8.0,25.0
7497,45.0,0,64,12.0,22.0
7498,57.0,0,64,10.0,22.0
7499,52.0,0,64,12.0,22.0
7500,45.0,0,64,12.0,22.0
7501,64.0,80,64,10.0,22.0
7502,45.0,0,64,12.0,22.0
7503,57.0,80,64,10.0,22.0
7504,64.0,0,64,10.0,22.0
7505,52.0,0,64,12.0,22.0
7506,64.0,0,64,10.0,22.0
7507,57.0,80,64,10.0,22.0
7508,45.0,0,64,12.0,22.0
7509,52.0,0,64,12.0,22.0
7510,52.0,0,64,12.0,22.0
7511,57.0,0,64,10.0,22.0
7512,45.0,0,64,12.0,22.0
7513,64.0,80,64,10.0,22.0
7514,45.0,0,64,12.0,22.0
7515,52.0,80,64,12.0,22.0
7516,64.0,0,64,10.0,22.0
7517,57.0,0,64,10.0,22.0
7518,45.0,0,64,12.0,22.0
7519,52.0,80,64,12.0,22.0
7520,64.0,0,64,10.0,22.0
7521,57.0,0,64,10.0,22.0
7522,57.0,0,64,10.0,22.0
7523,52.0,0,64,12.0,22.0
7524,45.0,0,64,12.0,22.0
7525,64.0,80,64,10.0,22.0
7526,64.0,0,48,11.0,35.0
7527,40.0,20,48,13.0,30.0
7528,45.0,0,64,12.0,22.0
7529,64.0,0,64,10.0,22.0
7530,57.0,0,64,10.0,22.0
7531,52.0,60,64,12.0,22.0
7532,52.0,0,64,12.0,22.0
7533,45.0,0,64,12.0,22.0
7534,64.0,80,64,10.0,22.0
7535,57.0,0,64,10.0,22.0
7536,57.0,80,64,10.0,22.0
7537,64.0,0,64,10.0,22.0
7538,45.0,0,64,12.0,22.0
7539,52.0,0,64,12.0,22.0
7540,45.0,0,64,12.0,22.0
7541,57.0,0,64,10.0,22.0
7542,64.0,0,64,10.0,22.0
7543,52.0,80,64,12.0,22.0
7544,57.0,0,384,11.0,35.0
7545,45.0,80,64,12.0,22.0
7546,33.0,0,384,13.0,30.0
7547,52.0,0,64,12.0,22.0
7548,57.0,0,64,10.0,22.0
7549,64.0,0,64,10.0,22.0
7550,52.0,0,64,12.0,22.0
7551,45.0,0,64,12.0,22.0
7552,64.0,0,64,10.0,22.0
7553,57.0,80,64,10.0,22.0
7554,64.0,0,64,10.0,22.0
7555,45.0,80,64,12.0,22.0
7556,52.0,0,64,12.0,22.0
7557,57.0,0,64,10.0,22.0
7558,57.0,0,64,10.0,22.0
7559,64.0,80,64,10.0,22.0
7560,45.0,0,64,12.0,22.0
7561,52.0,0,64,12.0,22.0
7562,45.0,0,192,6.0,32.0
7563,57.0,0,192,5.0,32.0
7564,57.0,80,64,10.0,22.0
7565,52.0,0,64,12.0,22.0
7566,64.0,0,64,10.0,22.0
7567,45.0,0,64,12.0,22.0
7568,57.0,0,64,10.0,22.0
7569,64.0,0,64,10.0,22.0
7570,45.0,0,64,12.0,22.0
7571,52.0,80,64,12.0,22.0
7572,45.0,0,64,12.0,22.0
7573,52.0,0,64,12.0,22.0
7574,57.0,80,64,10.0,22.0
7575,64.0,0,64,10.0,22.0
7576,64.0,80,64,10.0,22.0
7577,52.0,0,64,12.0,22.0
7578,45.0,0,64,12.0,22.0
7579,57.0,0,64,10.0,22.0
7580,64.0,80,64,10.0,22.0
7581,45.0,0,64,12.0,22.0
7582,57.0,0,64,10.0,22.0
7583,52.0,0,64,12.0,22.0
7584,57.0,80,64,10.0,22.0
7585,45.0,0,64,12.0,22.0
7586,52.0,0,64,12.0,22.0
7587,64.0,0,64,10.0,22.0
7588,57.0,80,64,10.0,22.0
7589,64.0,0,64,10.0,22.0
7590,52.0,0,64,12.0,22.0
7591,45.0,0,64,12.0,22.0
7592,57.0,0,64,10.0,22.0
7593,64.0,80,64,10.0,22.0
7594,52.0,0,64,12.0,22.0
7595,45.0,0,64,12.0,22.0
7596,52.0,80,64,12.0,22.0
7597,45.0,0,64,12.0,22.0
7598,57.0,0,64,10.0,22.0
7599,64.0,0,64,10.0,22.0
7600,52.0,0,64,12.0,22.0
7601,57.0,0,64,10.0,22.0
7602,64.0,0,64,10.0,22.0
7603,45.0,80,64,12.0,22.0
7604,64.0,80,64,10.0,22.0
7605,57.0,0,64,10.0,22.0
7606,45.0,0,64,12.0,22.0
7607,52.0,0,64,12.0,22.0
7608,57.0,0,64,10.0,22.0
7609,45.0,0,64,12.0,22.0
7610,52.0,80,64,12.0,22.0
7611,64.0,0,64,10.0,22.0
7612,52.0,0,64,12.0,22.0
7613,57.0,0,64,10.0,22.0
7614,64.0,80,64,10.0,22.0
7615,45.0,0,64,12.0,22.0
7616,57.0,0,64,10.0,22.0
7617,64.0,0,64,10.0,22.0
7618,45.0,0,64,12.0,22.0
7619,52.0,80,64,12.0,22.0
7620,52.0,0,64,12.0,22.0
7621,45.0,0,64,12.0,22.0
7622,57.0,0,64,10.0,22.0
7623,64.0,80,64,10.0,22.0
7624,57.0,80,64,10.0,22.0
7625,52.0,0,64,12.0,22.0
7626,45.0,0,64,12.0,22.0
7627,64.0,0,64,10.0,22.0
7628,81.0,20,48,8.0,25.0
7629,57.0,0,64,10.0,22.0
7630,52.0,0,64,12.0,22.0
7631,64.0,0,64,10.0,22.0
7632,45.0,60,64,12.0,22.0
7633,57.0,0,64,10.0,22.0
7634,45.0,80,64,12.0,22.0
7635,64.0,0,64,10.0,22.0
7636,52.0,0,64,12.0,22.0
7637,57.0,0,64,10.0,22.0
7638,64.0,80,64,10.0,22.0
7639,52.0,0,64,12.0,22.0
7640,45.0,0,64,12.0,22.0
7641,45.0,0,64,12.0,22.0
7642,57.0,0,64,10.0,22.0
7643,64.0,80,64,10.0,22.0
7644,52.0,0,64,12.0,22.0
7645,76.0,0,384,8.0,25.0
7646,64.0,80,64,10.0,22.0
7647,57.0,0,64,10.0,22.0
7648,52.0,0,64,12.0,22.0
7649,45.0,0,64,12.0,22.0
7650,64.0,0,64,10.0,22.0
7651,57.0,80,64,10.0,22.0
7652,52.0,0,64,12.0,22.0
7653,45.0,0,64,12.0,22.0
7654,57.0,0,64,10.0,22.0
7655,64.0,80,64,10.0,22.0
7656,52.0,0,64,12.0,22.0
7657,45.0,0,64,12.0,22.0
7658,57.0,0,64,10.0,22.0
7659,64.0,80,64,10.0,22.0
7660,45.0,0,64,12.0,22.0
7661,52.0,0,64,12.0,22.0
7662,64.0,80,64,10.0,22.0
7663,45.0,0,64,12.0,22.0
7664,52.0,0,64,12.0,22.0
7665,57.0,0,64,10.0,22.0
7666,57.0,0,64,10.0,22.0
7667,52.0,80,64,12.0,22.0
7668,45.0,0,64,12.0,22.0
7669,64.0,0,64,10.0,22.0
7670,57.0,0,64,10.0,22.0
7671,64.0,0,64,10.0,22.0
7672,52.0,80,64,12.0,22.0
7673,45.0,0,64,12.0,22.0
7674,64.0,0,64,10.0,22.0
7675,57.0,0,64,10.0,22.0
7676,45.0,80,64,12.0,22.0
7677,52.0,0,64,12.0,22.0
7678,76.0,20,48,8.0,25.0
7679,64.0,60,64,10.0,22.0
7680,57.0,0,64,10.0,22.0
7681,45.0,0,64,12.0,22.0
7682,52.0,0,64,12.0,22.0
7683,45.0,0,64,12.0,22.0
7684,52.0,0,64,12.0,22.0
7685,64.0,0,64,10.0,22.0
7686,57.0,80,64,10.0,22.0
7687,45.0,0,64,12.0,22.0
7688,52.0,0,64,12.0,22.0
7689,57.0,80,64,10.0,22.0
7690,64.0,0,64,10.0,22.0
7691,45.0,0,64,12.0,22.0
7692,52.0,0,64,12.0,22.0
7693,57.0,80,64,10.0,22.0
7694,64.0,0,64,10.0,22.0
7695,64.0,80,64,10.0,22.0
7696,69.0,0,384,8.0,25.0
7697,57.0,0,64,10.0,22.0
7698,52.0,0,64,12.0,22.0
7699,45.0,0,64,12.0,22.0
7700,57.0,0,64,10.0,22.0
7701,64.0,0,64,10.0,22.0
7702,52.0,80,64,12.0,22.0
7703,45.0,0,64,12.0,22.0
7704,64.0,0,64,10.0,22.0
7705,52.0,80,64,12.0,22.0
7706,57.0,0,64,10.0,22.0
7707,45.0,0,64,12.0,22.0
7708,52.0,0,64,12.0,22.0
7709,45.0,0,64,12.0,22.0
7710,57.0,80,64,10.0,22.0
7711,64.0,0,64,10.0,22.0
7712,45.0,0,64,12.0,22.0
7713,57.0,0,64,10.0,22.0
7714,64.0,0,64,10.0,22.0
7715,52.0,80,64,12.0,22.0
7716,57.0,0,64,10.0,22.0
7717,64.0,80,64,10.0,22.0
7718,52.0,0,64,12.0,22.0
7719,45.0,0,64,12.0,22.0
7720,52.0,0,64,12.0,22.0
7721,57.0,0,64,10.0,22.0
7722,64.0,0,64,10.0,22.0
7723,45.0,80,64,12.0,22.0
7724,64.0,0,64,10.0,22.0
7725,57.0,80,64,10.0,22.0
7726,52.0,0,64,12.0,22.0
7727,45.0,0,64,12.0,22.0
7728,64.0,0,48,11.0,35.0
7729,40.0,20,48,13.0,30.0
7730,45.0,60,64,12.0,22.0
7731,52.0,0,64,12.0,22.0
7732,57.0,0,64,10.0,22.0
7733,64.0,0,64,10.0,22.0
7734,45.0,80,64,12.0,22.0
7735,57.0,0,64,12.0,22.0
7736,57.0,0,64,10.0,22.0
7737,69.0,0,64,10.0,22.0
7738,57.0,80,64,10.0,22.0
7739,69.0,0,64,10.0,22.0
7740,57.0,0,64,12.0,22.0
7741,45.0,0,64,12.0,22.0
7742,57.0,80,64,12.0,22.0
7743,57.0,0,64,10.0,22.0
7744,69.0,0,64,10.0,22.0
7745,45.0,0,64,12.0,22.0
7746,45.0,0,64,12.0,22.0
7747,57.0,0,64,10.0,22.0
7748,57.0,0,384,11.0,35.0
7749,69.0,80,64,10.0,22.0
7750,57.0,0,64,12.0,22.0
7751,33.0,0,384,13.0,30.0
7752,64.0,0,8130,4.0,21.0
7753,69.0,0,64,10.0,22.0
7754,45.0,0,64,12.0,22.0
7755,57.0,0,64,10.0,22.0
7756,57.0,80,64,12.0,22.0
7757,76.0,0,4320,1.0,18.0
7758,50.0,0,64,12.0,22.0
7759,57.0,80,64,12.0,22.0
7760,62.0,0,64,10.0,22.0
7761,69.0,0,64,10.0,22.0
7762,50.0,80,64,12.0,22.0
7763,62.0,0,64,10.0,22.0
7764,69.0,0,64,10.0,22.0
7765,57.0,0,64,12.0,22.0
7766,62.0,0,192,5.0,32.0
7767,50.0,0,192,6.0,32.0
7768,57.0,0,64,12.0,22.0
7769,62.0,80,64,10.0,22.0
7770,69.0,0,64,10.0,22.0
7771,50.0,0,64,12.0,22.0
7772,57.0,80,64,12.0,22.0
7773,62.0,0,64,10.0,22.0
7774,69.0,0,64,10.0,22.0
7775,50.0,0,64,12.0,22.0
7776,57.0,0,64,12.0,22.0
7777,50.0,80,64,12.0,22.0
7778,62.0,0,64,10.0,22.0
7779,69.0,0,64,10.0,22.0
7780,57.0,80,64,12.0,22.0
7781,62.0,0,64,10.0,22.0
7782,69.0,0,64,10.0,22.0
7783,50.0,0,64,12.0,22.0
7784,50.0,80,64,12.0,22.0
7785,57.0,0,64,12.0,22.0
7786,69.0,0,64,10.0,22.0
7787,62.0,0,64,10.0,22.0
7788,69.0,0,64,10.0,22.0
7789,62.0,80,64,10.0,22.0
7790,50.0,0,64,12.0,22.0
7791,57.0,0,64,12.0,22.0
7792,57.0,80,64,12.0,22.0
7793,50.0,0,64,12.0,22.0
7794,62.0,0,64,10.0,22.0
7795,69.0,0,64,10.0,22.0
7796,69.0,0,64,10.0,22.0
7797,62.0,0,64,10.0,22.0
7798,50.0,80,64,12.0,22.0
7799,57.0,0,64,12.0,22.0
7800,50.0,0,64,12.0,22.0
7801,57.0,0,64,12.0,22.0
7802,62.0,80,64,10.0,22.0
7803,69.0,0,64,10.0,22.0
7804,69.0,0,64,10.0,22.0
7805,57.0,80,64,12.0,22.0
7806,62.0,0,64,10.0,22.0
7807,50.0,0,64,12.0,22.0
7808,50.0,0,64,12.0,22.0
7809,57.0,80,64,12.0,22.0
7810,62.0,0,64,10.0,22.0
7811,69.0,0,64,10.0,22.0
7812,62.0,0,64,10.0,22.0
7813,69.0,0,64,10.0,22.0
7814,57.0,0,64,12.0,22.0
7815,50.0,80,64,12.0,22.0
7816,69.0,0,64,10.0,22.0
7817,57.0,80,64,12.0,22.0
7818,62.0,0,64,10.0,22.0
7819,50.0,0,64,12.0,22.0
7820,69.0,80,64,10.0,22.0
7821,62.0,0,64,10.0,22.0
7822,50.0,0,64,12.0,22.0
7823,57.0,0,64,12.0,22.0
7824,69.0,0,64,10.0,22.0
7825,62.0,0,64,10.0,22.0
7826,57.0,80,64,12.0,22.0
7827,50.0,0,64,12.0,22.0
7828,69.0,0,64,10.0,22.0
7829,57.0,0,64,12.0,22.0
7830,50.0,80,64,12.0,22.0
7831,62.0,0,64,10.0,22.0
7832,81.0,20,48,8.0,25.0
7833,69.0,0,64,10.0,22.0
7834,62.0,0,64,10.0,22.0
7835,50.0,0,64,12.0,22.0
7836,57.0,0,64,12.0,22.0
7837,62.0,0,64,10.0,22.0
7838,69.0,0,64,10.0,22.0
7839,57.0,0,64,12.0,22.0
7840,50.0,80,64,12.0,22.0
7841,62.0,0,64,10.0,22.0
7842,69.0,0,64,10.0,22.0
7843,57.0,0,64,12.0,22.0
7844,50.0,80,64,12.0,22.0
7845,69.0,0,64,10.0,22.0
7846,62.0,0,64,10.0,22.0
7847,50.0,0,64,12.0,22.0
7848,57.0,80,64,12.0,22.0
7849,57.0,0,64,12.0,22.0
7850,50.0,0,64,12.0,22.0
7851,62.0,80,64,10.0,22.0
7852,69.0,0,64,10.0,22.0
7853,74.0,60,450,8.0,25.0
7854,69.0,80,64,10.0,22.0
7855,50.0,0,64,12.0,22.0
7856,57.0,0,64,12.0,22.0
7857,62.0,0,64,10.0,22.0
7858,57.0,0,64,12.0,22.0
7859,69.0,0,64,10.0,22.0
7860,62.0,80,64,10.0,22.0
7861,50.0,0,64,12.0,22.0
7862,50.0,0,64,12.0,22.0
7863,69.0,80,64,10.0,22.0
7864,62.0,0,64,10.0,22.0
7865,57.0,0,64,12.0,22.0
7866,69.0,80,64,10.0,22.0
7867,62.0,0,64,10.0,22.0
7868,50.0,0,64,12.0,22.0
7869,57.0,0,64,12.0,22.0
7870,50.0,0,64,12.0,22.0
7871,57.0,0,64,12.0,22.0
7872,69.0,80,64,10.0,22.0
7873,62.0,0,64,10.0,22.0
7874,69.0,0,64,10.0,22.0
7875,62.0,0,64,10.0,22.0
7876,50.0,0,64,12.0,22.0
7877,57.0,80,64,12.0,22.0
7878,69.0,0,64,10.0,22.0
7879,62.0,0,64,10.0,22.0
7880,57.0,80,64,12.0,22.0
7881,50.0,0,64,12.0,22.0
7882,74.0,20,48,8.0,25.0
7883,69.0,0,64,10.0,22.0
7884,62.0,0,64,10.0,22.0
7885,57.0,0,64,12.0,22.0
7886,50.0,0,64,12.0,22.0
7887,50.0,0,64,12.0,22.0
7888,69.0,80,64,10.0,22.0
7889,62.0,0,64,10.0,22.0
7890,57.0,0,64,12.0,22.0
7891,69.0,80,64,10.0,22.0
7892,62.0,0,64,10.0,22.0
7893,57.0,0,64,12.0,22.0
7894,50.0,0,64,12.0,22.0
7895,62.0,0,64,10.0,22.0
7896,57.0,80,64,12.0,22.0
7897,69.0,0,64,10.0,22.0
7898,50.0,0,64,12.0,22.0
7899,69.0,0,64,10.0,22.0
7900,69.0,60,384,8.0,25.0
7901,62.0,80,64,10.0,22.0
7902,57.0,0,64,12.0,22.0
7903,50.0,0,64,12.0,22.0
7904,62.0,0,64,10.0,22.0
7905,50.0,0,64,12.0,22.0
7906,57.0,80,64,12.0,22.0
7907,69.0,0,64,10.0,22.0
7908,50.0,0,64,12.0,22.0
7909,69.0,80,64,10.0,22.0
7910,62.0,0,64,10.0,22.0
7911,57.0,0,64,12.0,22.0
7912,57.0,0,64,12.0,22.0
7913,69.0,0,64,10.0,22.0
7914,62.0,0,64,10.0,22.0
7915,50.0,80,64,12.0,22.0
7916,62.0,0,64,10.0,22.0
7917,69.0,0,64,10.0,22.0
7918,50.0,80,64,12.0,22.0
7919,57.0,0,64,12.0,22.0
7920,62.0,0,64,10.0,22.0
7921,69.0,0,64,10.0,22.0
7922,57.0,80,64,12.0,22.0
7923,50.0,0,64,12.0,22.0
7924,69.0,0,64,10.0,22.0
7925,62.0,0,64,10.0,22.0
7926,50.0,80,64,12.0,22.0
7927,57.0,0,64,12.0,22.0
7928,50.0,80,64,12.0,22.0
7929,57.0,0,64,12.0,22.0
7930,69.0,0,64,10.0,22.0
7931,62.0,0,64,10.0,22.0
7932,57.0,0,48,11.0,35.0
7933,45.0,20,48,13.0,30.0
7934,69.0,0,64,10.0,22.0
7935,62.0,60,64,10.0,22.0
7936,57.0,0,64,12.0,22.0
7937,50.0,0,64,12.0,22.0
7938,50.0,80,64,12.0,22.0
7939,57.0,0,64,12.0,22.0
7940,62.0,0,64,10.0,22.0
7941,69.0,0,64,10.0,22.0
7942,57.0,80,64,12.0,22.0
7943,62.0,0,64,10.0,22.0
7944,69.0,0,64,10.0,22.0
7945,50.0,0,64,12.0,22.0
7946,69.0,0,64,10.0,22.0
7947,57.0,0,64,12.0,22.0
7948,50.0,0,64,12.0,22.0
7949,62.0,80,64,10.0,22.0
7950,30.0,0,384,13.0,30.0
7951,62.0,0,64,10.0,22.0
7952,54.0,0,384,11.0,35.0
7953,69.0,0,64,10.0,22.0
7954,50.0,80,64,12.0,22.0
7955,57.0,0,64,12.0,22.0
7956,69.0,0,64,10.0,22.0
7957,62.0,80,64,10.0,22.0
7958,50.0,0,64,12.0,22.0
7959,57.0,0,64,12.0,22.0
7960,62.0,0,64,10.0,22.0
7961,69.0,0,64,10.0,22.0
7962,57.0,80,64,12.0,22.0
7963,50.0,0,64,12.0,22.0
7964,50.0,0,64,12.0,22.0
7965,57.0,0,64,12.0,22.0
7966,62.0,80,64,10.0,22.0
7967,69.0,0,64,10.0,22.0
7968,62.0,0,192,5.0,32.0
7969,50.0,0,192,6.0,32.0
7970,54.0,0,192,13.0,24.0
7971,62.0,80,64,10.0,22.0
7972,57.0,0,64,12.0,22.0
7973,50.0,0,64,12.0,22.0
7974,69.0,0,64,10.0,22.0
7975,57.0,0,64,12.0,22.0
7976,62.0,80,64,10.0,22.0
7977,69.0,0,64,10.0,22.0
7978,50.0,0,64,12.0,22.0
7979,50.0,0,64,12.0,22.0
7980,69.0,0,64,10.0,22.0
7981,62.0,80,64,10.0,22.0
7982,57.0,0,64,12.0,22.0
7983,69.0,80,64,10.0,22.0
7984,62.0,0,64,10.0,22.0
7985,57.0,0,64,12.0,22.0
7986,50.0,0,64,12.0,22.0
7987,69.0,80,64,10.0,22.0
7988,50.0,0,64,12.0,22.0
7989,57.0,0,64,12.0,22.0
7990,62.0,0,64,10.0,22.0
7991,50.0,0,64,12.0,22.0
7992,57.0,0,64,12.0,22.0
7993,69.0,0,64,10.0,22.0
7994,62.0,80,64,10.0,22.0
7995,50.0,0,64,12.0,22.0
7996,62.0,80,64,10.0,22.0
7997,69.0,0,64,10.0,22.0
7998,57.0,0,64,12.0,22.0
7999,69.0,80,64,10.0,22.0
8000,62.0,0,64,10.0,22.0
8001,57.0,0,64,12.0,22.0
8002,50.0,0,64,12.0,22.0
8003,57.0,0,64,12.0,22.0
8004,50.0,80,64,12.0,22.0
8005,62.0,0,64,10.0,22.0
8006,69.0,0,64,10.0,22.0
8007,69.0,80,64,10.0,22.0
8008,62.0,0,64,10.0,22.0
8009,57.0,0,64,12.0,22.0
8010,50.0,0,64,12.0,22.0
8011,50.0,0,64,12.0,22.0
8012,62.0,0,64,10.0,22.0
8013,69.0,80,64,10.0,22.0
8014,57.0,0,64,12.0,22.0
8015,69.0,0,64,10.0,22.0
8016,50.0,0,64,12.0,22.0
8017,57.0,80,64,12.0,22.0
8018,62.0,0,64,10.0,22.0
8019,62.0,80,64,10.0,22.0
8020,69.0,0,64,10.0,22.0
8021,50.0,0,64,12.0,22.0
8022,57.0,0,64,12.0,22.0
8023,69.0,0,64,10.0,22.0
8024,62.0,0,64,10.0,22.0
8025,57.0,80,64,12.0,22.0
8026,50.0,0,64,12.0,22.0
8027,50.0,80,64,12.0,22.0
8028,57.0,0,64,12.0,22.0
8029,62.0,0,64,10.0,22.0
8030,69.0,0,64,10.0,22.0
8031,57.0,0,64,12.0,22.0
8032,62.0,0,64,10.0,22.0
8033,69.0,80,64,10.0,22.0
8034,50.0,0,64,12.0,22.0
8035,86.0,20,48,8.0,25.0
8036,57.0,0,64,12.0,22.0
8037,69.0,0,64,10.0,22.0
8038,62.0,0,64,10.0,22.0
8039,50.0,60,64,12.0,22.0
8040,50.0,80,64,12.0,22.0
8041,69.0,0,64,10.0,22.0
8042,62.0,0,64,10.0,22.0
8043,57.0,0,64,12.0,22.0
8044,69.0,0,64,10.0,22.0
8045,62.0,0,64,10.0,22.0
8046,57.0,80,64,12.0,22.0
8047,50.0,0,64,12.0,22.0
8048,62.0,0,64,10.0,22.0
8049,69.0,80,64,10.0,22.0
8050,50.0,0,64,12.0,22.0
8051,57.0,0,64,12.0,22.0
8052,69.0,0,64,10.0,22.0
8053,50.0,80,64,12.0,22.0
8054,57.0,0,64,12.0,22.0
8055,62.0,0,64,10.0,22.0
8056,81.0,0,450,8.0,25.0
8057,57.0,0,64,12.0,22.0
8058,62.0,80,64,10.0,22.0
8059,69.0,0,64,10.0,22.0
8060,50.0,0,64,12.0,22.0
8061,69.0,0,64,10.0,22.0
8062,62.0,80,64,10.0,22.0
8063,57.0,0,64,12.0,22.0
8064,50.0,0,64,12.0,22.0
8065,69.0,0,64,10.0,22.0
8066,62.0,0,64,10.0,22.0
8067,57.0,0,64,12.0,22.0
8068,50.0,80,64,12.0,22.0
8069,62.0,0,64,10.0,22.0
8070,69.0,0,64,10.0,22.0
8071,57.0,0,64,12.0,22.0
8072,50.0,80,64,12.0,22.0
8073,50.0,0,64,12.0,22.0
8074,57.0,0,64,12.0,22.0
8075,69.0,0,64,10.0,22.0
8076,62.0,80,64,10.0,22.0
8077,50.0,0,64,12.0,22.0
8078,57.0,80,64,12.0,22.0
8079,69.0,0,64,10.0,22.0
8080,62.0,0,64,10.0,22.0
8081,50.0,0,64,12.0,22.0
8082,57.0,0,64,12.0,22.0
8083,69.0,0,64,10.0,22.0
8084,62.0,80,64,10.0,22.0
8085,81.0,20,48,8.0,25.0
8086,69.0,0,64,10.0,22.0
8087,62.0,60,64,10.0,22.0
8088,50.0,0,64,12.0,22.0
8089,57.0,0,64,12.0,22.0
8090,50.0,0,64,12.0,22.0
8091,57.0,0,64,12.0,22.0
8092,69.0,0,64,10.0,22.0
8093,62.0,80,64,10.0,22.0
8094,62.0,0,64,10.0,22.0
8095,57.0,0,64,12.0,22.0
8096,50.0,80,64,12.0,22.0
8097,69.0,0,64,10.0,22.0
8098,62.0,80,64,10.0,22.0
8099,50.0,0,64,12.0,22.0
8100,57.0,0,64,12.0,22.0
8101,69.0,0,64,10.0,22.0
8102,62.0,0,64,10.0,22.0
8103,69.0,0,64,10.0,22.0
8104,57.0,0,64,12.0,22.0
8105,50.0,80,64,12.0,22.0
8106,74.0,0,450,8.0,25.0
8107,57.0,0,64,12.0,22.0
8108,50.0,0,64,12.0,22.0
8109,69.0,0,64,10.0,22.0
8110,62.0,80,64,10.0,22.0
8111,69.0,0,64,10.0,22.0
8112,62.0,0,64,10.0,22.0
8113,57.0,80,64,12.0,22.0
8114,50.0,0,64,12.0,22.0
8115,57.0,80,64,12.0,22.0
8116,62.0,0,64,10.0,22.0
8117,50.0,0,64,12.0,22.0
8118,69.0,0,64,10.0,22.0
8119,62.0,0,64,10.0,22.0
8120,50.0,0,64,12.0,22.0
8121,57.0,80,64,12.0,22.0
8122,69.0,0,64,10.0,22.0
8123,50.0,80,64,12.0,22.0
8124,57.0,0,64,12.0,22.0
8125,69.0,0,64,10.0,22.0
8126,62.0,0,64,10.0,22.0
8127,50.0,0,64,12.0,22.0
8128,57.0,0,64,12.0,22.0
8129,69.0,0,64,10.0,22.0
8130,62.0,80,64,10.0,22.0
8131,57.0,0,64,12.0,22.0
8132,69.0,80,64,10.0,22.0
8133,62.0,0,64,10.0,22.0
8134,50.0,0,64,12.0,22.0
8135,45.0,0,48,13.0,30.0
8136,57.0,20,48,11.0,30.0
8137,69.0,0,64,10.0,22.0
8138,62.0,0,64,10.0,22.0
8139,50.0,0,64,12.0,22.0
8140,57.0,0,64,12.0,22.0
8141,62.0,0,64,10.0,22.0
8142,50.0,0,64,12.0,22.0
8143,57.0,0,64,12.0,22.0
8144,69.0,80,64,10.0,22.0
8145,57.0,0,64,12.0,22.0
8146,50.0,0,64,12.0,22.0
8147,62.0,0,64,10.0,22.0
8148,69.0,80,64,10.0,22.0
8149,57.0,0,17506,4.0,21.0
8150,62.0,0,7426,4.0,24.0
8151,62.0,80,64,10.0,22.0
8152,69.0,0,64,10.0,22.0
8153,57.0,0,64,12.0,22.0
8154,50.0,0,64,12.0,22.0
8155,30.0,0,384,13.0,30.0
8156,50.0,0,64,12.0,22.0
8157,54.0,60,384,11.0,30.0
8158,57.0,0,64,12.0,22.0
8159,62.0,80,64,10.0,22.0
8160,69.0,0,64,10.0,22.0
8161,62.0,0,64,10.0,22.0
8162,50.0,0,64,12.0,22.0
8163,57.0,0,64,12.0,22.0
8164,69.0,80,64,10.0,22.0
8165,57.0,0,7680,3.0,24.0
8166,54.0,0,7680,3.0,24.0
8167,81.0,0,10080,0.0,22.0
8168,69.0,0,13920,2.0,24.0
8169,62.0,0,64,10.0,22.0
8170,58.0,0,64,12.0,22.0
8171,50.0,0,64,12.0,22.0
8172,70.0,0,64,10.0,22.0
8173,70.0,0,64,10.0,22.0
8174,50.0,0,64,12.0,22.0
8175,58.0,0,64,12.0,22.0
8176,62.0,80,64,10.0,22.0
8177,55.0,0,192,11.0,24.0
8178,50.0,80,192,6.0,32.0
8179,62.0,0,192,5.0,32.0
8180,31.0,0,192,13.0,24.0
8181,50.0,0,64,12.0,22.0
8182,62.0,0,64,10.0,22.0
8183,70.0,80,64,10.0,22.0
8184,58.0,0,64,12.0,22.0
8185,62.0,0,226,4.0,22.0
8186,58.0,0,226,3.0,24.0
8187,55.0,0,226,3.0,24.0
8188,50.0,0,226,4.0,22.0
8189,70.0,80,64,10.0,22.0
8190,50.0,0,64,12.0,22.0
8191,62.0,0,64,10.0,22.0
8192,58.0,0,64,12.0,22.0
8193,62.0,0,64,10.0,22.0
8194,58.0,0,64,12.0,22.0
8195,70.0,80,64,10.0,22.0
8196,50.0,0,64,12.0,22.0
8197,70.0,80,64,10.0,22.0
8198,62.0,0,64,10.0,22.0
8199,50.0,0,64,12.0,22.0
8200,58.0,0,64,12.0,22.0
8201,62.0,20,48,3.0,38.0
8202,50.0,0,48,3.0,38.0
8203,50.0,0,64,12.0,22.0
8204,62.0,0,64,10.0,22.0
8205,70.0,0,64,10.0,22.0
8206,58.0,60,64,12.0,22.0
8207,70.0,0,64,10.0,22.0
8208,62.0,0,64,10.0,22.0
8209,50.0,80,64,12.0,22.0
8210,58.0,0,64,12.0,22.0
8211,62.0,0,64,10.0,22.0
8212,70.0,0,64,10.0,22.0
8213,58.0,80,64,12.0,22.0
8214,50.0,0,64,12.0,22.0
8215,55.0,0,240,3.0,38.0
8216,58.0,80,64,12.0,22.0
8217,62.0,0,64,10.0,22.0
8218,70.0,0,64,10.0,22.0
8219,50.0,0,64,12.0,22.0
8220,70.0,80,64,10.0,22.0
8221,62.0,0,64,10.0,22.0
8222,50.0,0,64,12.0,22.0
8223,58.0,0,64,12.0,22.0
8224,74.0,0,48,11.0,32.0
8225,86.0,40,48,8.0,32.0
8226,50.0,40,64,12.0,22.0
8227,62.0,0,64,10.0,22.0
8228,70.0,0,64,10.0,22.0
8229,58.0,0,64,12.0,22.0
8230,43.0,0,480,3.0,38.0
8231,50.0,0,64,12.0,22.0
8232,70.0,0,64,10.0,22.0
8233,62.0,0,64,10.0,22.0
8234,58.0,0,64,12.0,22.0
8235,67.0,20,192,11.0,32.0
8236,79.0,0,192,8.0,32.0
8237,58.0,0,64,12.0,22.0
8238,62.0,80,64,10.0,22.0
8239,70.0,0,64,10.0,22.0
8240,50.0,0,64,12.0,22.0
8241,62.0,0,192,5.0,32.0
8242,50.0,0,192,6.0,32.0
8243,62.0,0,64,10.0,22.0
8244,50.0,0,64,12.0,22.0
8245,70.0,80,64,10.0,22.0
8246,58.0,0,64,12.0,22.0
8247,62.0,80,64,10.0,22.0
8248,50.0,0,64,12.0,22.0
8249,70.0,0,64,10.0,22.0
8250,58.0,0,64,12.0,22.0
8251,70.0,80,64,10.0,22.0
8252,58.0,0,64,12.0,22.0
8253,50.0,0,64,12.0,22.0
8254,62.0,0,64,10.0,22.0
8255,38.0,40,42,13.0,38.0
8256,74.0,0,48,8.0,32.0
8257,62.0,30,48,11.0,32.0
8258,34.0,0,42,13.0,38.0
8259,62.0,0,64,10.0,22.0
8260,50.0,10,64,12.0,22.0
8261,58.0,0,64,12.0,22.0
8262,70.0,0,64,10.0,22.0
8263,55.0,60,468,3.0,32.0
8264,62.0,0,48,3.0,58.0
8265,62.0,0,58,4.0,22.0
8266,50.0,20,58,4.0,22.0
8267,50.0,0,64,12.0,22.0
8268,70.0,0,64,10.0,22.0
8269,58.0,0,64,12.0,22.0
8270,62.0,0,64,10.0,22.0
8271,58.0,0,64,12.0,22.0
8272,62.0,80,64,10.0,22.0
8273,70.0,0,64,10.0,22.0
8274,50.0,0,64,12.0,22.0
8275,58.0,0,192,11.0,32.0
8276,70.0,0,192,8.0,32.0
8277,31.0,0,192,13.0,32.0
8278,58.0,0,64,12.0,22.0
8279,50.0,80,64,12.0,22.0
8280,62.0,0,64,10.0,22.0
8281,70.0,0,64,10.0,22.0
8282,58.0,0,64,12.0,22.0
8283,50.0,0,64,12.0,22.0
8284,70.0,0,64,10.0,22.0
8285,62.0,80,64,10.0,22.0
8286,70.0,80,64,10.0,22.0
8287,50.0,0,64,12.0,22.0
8288,58.0,0,64,12.0,22.0
8289,62.0,0,64,10.0,22.0
8290,55.0,0,192,11.0,32.0
8291,67.0,0,192,8.0,32.0
8292,50.0,0,450,4.0,22.0
8293,62.0,60,450,4.0,22.0
8294,50.0,0,64,12.0,22.0
8295,58.0,0,64,12.0,22.0
8296,62.0,80,64,10.0,22.0
8297,70.0,0,64,10.0,22.0
8298,58.0,0,64,12.0,22.0
8299,50.0,0,64,12.0,22.0
8300,70.0,80,64,10.0,22.0
8301,62.0,0,64,10.0,22.0
8302,70.0,0,64,10.0,22.0
8303,50.0,0,64,12.0,22.0
8304,58.0,0,64,12.0,22.0
8305,62.0,80,64,10.0,22.0
8306,50.0,0,192,6.0,32.0
8307,62.0,0,192,5.0,32.0
8308,70.0,0,64,10.0,22.0
8309,50.0,0,64,12.0,22.0
8310,62.0,0,64,10.0,22.0
8311,58.0,80,64,12.0,22.0
8312,70.0,0,64,10.0,22.0
8313,62.0,0,64,10.0,22.0
8314,50.0,0,64,12.0,22.0
8315,58.0,0,64,12.0,22.0
8316,70.0,0,64,10.0,22.0
8317,62.0,0,64,10.0,22.0
8318,58.0,0,864,3.0,60.0
8319,58.0,80,64,12.0,22.0
8320,50.0,0,64,12.0,22.0
8321,58.0,80,192,11.0,32.0
8322,70.0,0,192,8.0,32.0
8323,58.0,0,64,12.0,22.0
8324,62.0,80,64,10.0,22.0
8325,50.0,0,64,12.0,22.0
8326,70.0,0,64,10.0,22.0
8327,55.0,20,48,3.0,60.0
8328,62.0,0,64,10.0,22.0
8329,70.0,0,64,10.0,22.0
8330,50.0,0,64,12.0,22.0
8331,58.0,0,64,12.0,22.0
8332,58.0,0,64,12.0,22.0
8333,50.0,0,64,12.0,22.0
8334,62.0,0,64,10.0,22.0
8335,70.0,80,64,10.0,22.0
8336,58.0,0,64,12.0,22.0
8337,50.0,80,64,12.0,22.0
8338,62.0,0,64,10.0,22.0
8339,70.0,0,64,10.0,22.0
8340,70.0,80,64,10.0,22.0
8341,50.0,0,64,12.0,22.0
8342,58.0,0,64,12.0,22.0
8343,62.0,0,64,10.0,22.0
8344,50.0,60,336,3.0,60.0
8345,50.0,0,64,12.0,22.0
8346,58.0,0,64,12.0,22.0
8347,62.0,80,64,10.0,22.0
8348,70.0,0,64,10.0,22.0
8349,74.0,0,192,8.0,32.0
8350,62.0,0,192,11.0,32.0
8351,70.0,0,64,10.0,22.0
8352,50.0,80,64,12.0,22.0
8353,58.0,0,64,12.0,22.0
8354,62.0,0,64,10.0,22.0
8355,46.0,20,48,3.0,60.0
8356,50.0,60,64,12.0,22.0
8357,62.0,0,64,10.0,22.0
8358,70.0,0,64,10.0,22.0
8359,58.0,0,64,12.0,22.0
8360,50.0,0,64,12.0,22.0
8361,62.0,0,64,10.0,22.0
8362,70.0,80,64,10.0,22.0
8363,58.0,0,64,12.0,22.0
8364,50.0,0,192,6.0,32.0
8365,43.0,0,192,3.0,60.0
8366,62.0,0,192,5.0,32.0
8367,62.0,0,64,10.0,22.0
8368,58.0,0,64,12.0,22.0
8369,50.0,80,64,12.0,22.0
8370,70.0,0,64,10.0,22.0
8371,70.0,0,64,10.0,22.0
8372,62.0,0,64,10.0,22.0
8373,58.0,0,64,12.0,22.0
8374,50.0,80,64,12.0,22.0
8375,67.0,0,3240,2.0,24.0
8376,86.0,0,10920,0.0,24.0
8377,74.0,0,10920,1.0,24.0
8378,82.0,0,3240,0.0,5.0
8379,70.0,0,3240,2.0,24.0
8380,70.0,0,64,10.0,22.0
8381,62.0,80,64,10.0,22.0
8382,58.0,0,64,12.0,22.0
8383,50.0,0,64,12.0,22.0
8384,38.0,40,42,13.0,38.0
8385,67.0,0,192,11.0,32.0
8386,79.0,0,192,8.0,32.0
8387,34.0,0,42,13.0,38.0
8388,70.0,0,64,10.0,22.0
8389,62.0,0,64,10.0,22.0
8390,58.0,0,64,12.0,22.0
8391,50.0,40,64,12.0,22.0
8392,79.0,0,48,2.0,37.0
8393,82.0,0,48,1.0,37.0
8394,86.0,20,48,0.0,43.0
8395,50.0,0,58,4.0,22.0
8396,62.0,0,58,4.0,22.0
8397,50.0,0,64,12.0,22.0
8398,58.0,0,64,12.0,22.0
8399,62.0,0,64,10.0,22.0
8400,70.0,0,64,10.0,22.0
8401,58.0,0,64,10.0,22.0
8402,50.0,0,64,12.0,22.0
8403,58.0,80,64,12.0,22.0
8404,62.0,0,64,10.0,22.0
8405,31.0,0,192,13.0,32.0
8406,58.0,0,64,10.0,22.0
8407,62.0,80,64,10.0,22.0
8408,58.0,0,64,12.0,22.0
8409,50.0,0,64,12.0,22.0
8410,50.0,0,64,12.0,22.0
8411,58.0,80,64,12.0,22.0
8412,58.0,0,64,10.0,22.0
8413,62.0,0,64,10.0,22.0
8414,58.0,0,64,12.0,22.0
8415,50.0,0,64,12.0,22.0
8416,58.0,0,64,10.0,22.0
8417,62.0,80,64,10.0,22.0
8418,58.0,0,192,11.0,32.0
8419,70.0,0,192,8.0,32.0
8420,62.0,0,450,4.0,22.0
8421,50.0,0,450,4.0,22.0
8422,50.0,0,64,12.0,22.0
8423,58.0,80,64,12.0,22.0
8424,62.0,0,64,10.0,22.0
8425,58.0,0,64,10.0,22.0
8426,62.0,0,64,10.0,22.0
8427,58.0,0,64,10.0,22.0
8428,50.0,0,64,12.0,22.0
8429,58.0,0,64,12.0,22.0
8430,62.0,0,64,10.0,22.0
8431,50.0,0,64,12.0,22.0
8432,58.0,80,64,12.0,22.0
8433,58.0,0,64,10.0,22.0
8434,62.0,80,192,5.0,32.0
8435,50.0,0,192,6.0,32.0
8436,50.0,0,64,12.0,22.0
8437,58.0,80,64,12.0,22.0
8438,62.0,0,64,10.0,22.0
8439,58.0,0,64,10.0,22.0
8440,58.0,0,64,10.0,22.0
8441,62.0,80,64,10.0,22.0
8442,58.0,0,64,12.0,22.0
8443,50.0,0,64,12.0,22.0
8444,74.0,0,816,2.0,37.0
8445,79.0,0,816,1.0,37.0
8446,82.0,0,816,0.0,43.0
8447,58.0,0,64,10.0,22.0
8448,62.0,0,64,10.0,22.0
8449,58.0,80,64,12.0,22.0
8450,50.0,0,64,12.0,22.0
8451,62.0,0,192,11.0,32.0
8452,74.0,0,192,8.0,32.0
8453,50.0,0,64,12.0,22.0
8454,58.0,80,64,12.0,22.0
8455,58.0,0,64,10.0,22.0
8456,62.0,0,64,10.0,22.0
8457,79.0,20,58,0.0,43.0
8458,74.0,0,58,1.0,37.0
8459,70.0,0,58,2.0,37.0
8460,58.0,0,64,10.0,22.0
8461,62.0,0,64,10.0,22.0
8462,50.0,0,64,12.0,22.0
8463,58.0,0,64,12.0,22.0
8464,58.0,0,64,12.0,22.0
8465,58.0,0,64,10.0,22.0
8466,62.0,80,64,10.0,22.0
8467,50.0,0,64,12.0,22.0
8468,62.0,0,64,10.0,22.0
8469,58.0,80,64,10.0,22.0
8470,50.0,0,64,12.0,22.0
8471,58.0,0,64,12.0,22.0
8472,58.0,0,64,10.0,22.0
8473,50.0,0,64,12.0,22.0
8474,62.0,0,64,10.0,22.0
8475,58.0,0,64,12.0,22.0
8476,67.0,60,336,2.0,37.0
8477,74.0,0,336,0.0,43.0
8478,70.0,0,336,1.0,37.0
8479,50.0,0,64,12.0,22.0
8480,58.0,0,64,12.0,22.0
8481,62.0,80,64,10.0,22.0
8482,58.0,0,64,10.0,22.0
8483,79.0,80,192,8.0,32.0
8484,67.0,0,192,11.0,32.0
8485,58.0,0,64,10.0,22.0
8486,50.0,80,64,12.0,22.0
8487,62.0,0,64,10.0,22.0
8488,58.0,0,64,12.0,22.0
8489,79.0,0,58,1.0,37.0
8490,82.0,0,58,0.0,43.0
8491,74.0,20,58,2.0,37.0
8492,62.0,0,64,10.0,22.0
8493,58.0,0,64,10.0,22.0
8494,58.0,60,64,12.0,22.0
8495,50.0,0,64,12.0,22.0
8496,58.0,0,64,10.0,22.0
8497,62.0,80,64,10.0,22.0
8498,50.0,0,64,12.0,22.0
8499,58.0,0,64,12.0,22.0
8500,62.0,0,192,5.0,32.0
8501,50.0,0,192,6.0,32.0
8502,62.0,0,64,10.0,22.0
8503,50.0,0,64,12.0,22.0
8504,58.0,80,64,10.0,22.0
8505,58.0,0,64,12.0,22.0
8506,58.0,0,64,12.0,22.0
8507,70.0,0,64,10.0,22.0
8508,62.0,0,64,10.0,22.0
8509,50.0,0,64,12.0,22.0
8510,74.0,0,336,1.0,37.0
8511,70.0,0,336,2.0,37.0
8512,79.0,0,336,0.0,43.0
8513,62.0,80,64,10.0,22.0
8514,70.0,0,64,10.0,22.0
8515,50.0,0,64,12.0,22.0
8516,58.0,0,64,12.0,22.0
8517,46.0,40,42,13.0,38.0
8518,74.0,80,192,11.0,32.0
8519,86.0,0,192,8.0,32.0
8520,43.0,0,42,13.0,38.0
8521,70.0,0,64,10.0,22.0
8522,62.0,0,64,10.0,22.0
8523,50.0,0,64,12.0,22.0
8524,58.0,40,64,12.0,22.0
8525,74.0,0,58,2.0,43.0
8526,62.0,20,58,4.0,22.0
8527,50.0,0,58,4.0,22.0
8528,58.0,0,2160,3.0,48.0
8529,55.0,60,1920,3.0,35.0
8530,57.0,0,64,12.0,20.0
8531,72.0,0,64,10.0,20.0
8532,66.0,60,64,10.0,20.0
8533,50.0,0,64,12.0,20.0
8534,66.0,0,64,10.0,21.0
8535,50.0,0,64,12.0,21.0
8536,57.0,80,64,12.0,21.0
8537,72.0,0,64,10.0,21.0
8538,38.0,0,192,13.0,20.0
8539,72.0,0,64,10.0,23.0
8540,50.0,0,64,12.0,23.0
8541,57.0,80,64,12.0,23.0
8542,66.0,0,64,10.0,23.0
8543,72.0,0,64,10.0,24.0
8544,66.0,0,64,10.0,24.0
8545,50.0,0,64,12.0,24.0
8546,57.0,0,64,12.0,24.0
8547,57.0,0,64,12.0,26.0
8548,50.0,0,64,12.0,26.0
8549,66.0,80,64,10.0,26.0
8550,72.0,0,64,10.0,26.0
8551,66.0,80,192,8.0,24.0
8552,54.0,0,192,11.0,24.0
8553,62.0,0,450,4.0,22.0
8554,50.0,0,450,4.0,22.0
8555,57.0,0,64,12.0,28.0
8556,50.0,0,64,12.0,28.0
8557,66.0,80,64,10.0,28.0
8558,72.0,0,64,10.0,28.0
8559,72.0,0,480,1.0,22.0
8560,57.0,0,480,3.0,22.0
8561,69.0,0,0,2.0,27.0
8562,81.0,0,0,0.0,27.0
8563,66.0,0,64,10.0,29.0
8564,72.0,0,64,10.0,29.0
8565,50.0,80,64,12.0,29.0
8566,57.0,0,64,12.0,29.0
8567,66.0,0,64,10.0,31.0
8568,72.0,0,64,10.0,31.0
8569,57.0,80,64,12.0,31.0
8570,50.0,0,64,12.0,31.0
8571,62.0,0,192,5.0,39.0
8572,50.0,0,192,6.0,39.0
8573,72.0,80,64,10.0,32.0
8574,50.0,0,64,12.0,32.0
8575,57.0,0,64,12.0,32.0
8576,66.0,0,64,10.0,32.0
8577,57.0,80,64,12.0,34.0
8578,50.0,0,64,12.0,34.0
8579,72.0,0,64,10.0,34.0
8580,66.0,0,64,10.0,34.0
8581,72.0,0,864,2.0,44.0
8582,72.0,80,64,10.0,35.0
8583,50.0,0,64,12.0,35.0
8584,57.0,0,64,12.0,35.0
8585,84.0,0,864,0.0,44.0
8586,66.0,0,64,10.0,35.0
8587,60.0,0,864,3.0,44.0
8588,69.0,0,192,8.0,35.0
8589,57.0,0,192,11.0,35.0
8590,66.0,80,64,10.0,37.0
8591,72.0,0,64,10.0,37.0
8592,57.0,0,64,12.0,37.0
8593,50.0,0,64,12.0,37.0
8594,81.0,0,48,1.0,40.0
8595,81.0,0,48,0.0,40.0
8596,69.0,0,48,2.0,40.0
8597,57.0,20,48,3.0,40.0
8598,57.0,0,0,3.0,33.0
8599,69.0,0,0,2.0,33.0
8600,81.0,0,0,0.0,33.0
8601,72.0,60,0,1.0,33.0
8602,66.0,0,64,10.0,39.0
8603,72.0,0,64,10.0,39.0
8604,57.0,0,64,12.0,39.0
8605,50.0,0,64,12.0,39.0
8606,72.0,0,64,10.0,40.0
8607,57.0,0,64,12.0,40.0
8608,50.0,80,64,12.0,40.0
8609,66.0,0,64,10.0,40.0
8610,72.0,80,64,10.0,42.0
8611,50.0,0,64,12.0,42.0
8612,66.0,0,64,10.0,42.0
8613,57.0,0,64,12.0,42.0
8614,57.0,0,64,12.0,43.0
8615,50.0,80,64,12.0,43.0
8616,72.0,0,64,10.0,43.0
8617,66.0,0,64,10.0,43.0
8618,78.0,0,336,0.0,48.0
8619,66.0,0,336,2.0,48.0
8620,54.0,0,336,3.0,48.0
8621,78.0,0,336,1.0,48.0
8622,50.0,80,64,12.0,45.0
8623,57.0,0,64,12.0,45.0
8624,66.0,0,64,10.0,45.0
8625,72.0,0,64,10.0,45.0
8626,72.0,0,192,8.0,45.0
8627,60.0,0,192,11.0,45.0
8628,57.0,0,64,12.0,46.0
8629,72.0,0,64,10.0,46.0
8630,66.0,0,64,10.0,46.0
8631,50.0,80,64,12.0,46.0
8632,62.0,0,48,2.0,48.0
8633,74.0,0,48,1.0,48.0
8634,50.0,20,48,3.0,48.0
8635,74.0,0,48,0.0,48.0
8636,81.0,0,0,0.0,40.0
8637,69.0,0,0,2.0,40.0
8638,50.0,0,64,12.0,48.0
8639,66.0,60,64,10.0,48.0
8640,57.0,0,64,12.0,48.0
8641,72.0,0,64,10.0,48.0
8642,48.0,0,120,3.0,48.0
8643,57.0,0,64,12.0,49.0
8644,66.0,80,64,10.0,49.0
8645,72.0,0,64,10.0,49.0
8646,50.0,0,64,12.0,49.0
8647,50.0,0,192,6.0,58.0
8648,62.0,0,192,5.0,58.0
8649,72.0,80,64,10.0,51.0
8650,50.0,0,64,12.0,51.0
8651,57.0,0,64,12.0,51.0
8652,66.0,0,64,10.0,51.0
8653,57.0,0,64,12.0,53.0
8654,72.0,80,64,10.0,53.0
8655,66.0,0,64,10.0,53.0
8656,50.0,0,64,12.0,53.0
8657,72.0,0,336,0.0,48.0
8658,60.0,0,336,2.0,48.0
8659,72.0,0,336,1.0,40.0
8660,50.0,80,64,12.0,54.0
8661,72.0,0,64,10.0,54.0
8662,57.0,0,64,12.0,54.0
8663,66.0,0,64,10.0,54.0
8664,36.0,40,42,13.0,55.0
8665,62.0,0,192,11.0,56.0
8666,74.0,0,192,8.0,56.0
8667,33.0,0,42,13.0,56.0
8668,72.0,0,64,10.0,56.0
8669,66.0,40,64,10.0,56.0
8670,57.0,0,64,12.0,56.0
8671,50.0,0,64,12.0,56.0
8672,75.0,0,48,2.0,48.0
8673,87.0,20,48,0.0,48.0
8674,50.0,0,58,4.0,22.0
8675,62.0,0,58,4.0,22.0
8676,57.0,0,480,3.0,40.0
8677,60.0,0,0,3.0,48.0
8678,69.0,60,0,2.0,47.0
8679,81.0,0,0,0.0,47.0
8680,57.0,0,64,12.0,57.0
8681,69.0,0,64,10.0,57.0
8682,72.0,0,64,10.0,57.0
8683,54.0,0,64,12.0,57.0
8684,69.0,0,64,10.0,59.0
8685,72.0,0,64,10.0,59.0
8686,57.0,0,64,12.0,59.0
8687,54.0,80,64,12.0,59.0
8688,30.0,0,192,13.0,57.0
8689,69.0,80,64,10.0,60.0
8690,57.0,0,64,12.0,60.0
8691,54.0,0,64,12.0,60.0
8692,72.0,0,64,10.0,60.0
8693,74.0,0,240,2.0,80.0
8694,86.0,0,240,0.0,80.0
8695,54.0,80,64,12.0,62.0
8696,57.0,0,64,12.0,62.0
8697,72.0,0,64,10.0,62.0
8698,69.0,0,64,10.0,62.0
8699,72.0,80,64,10.0,64.0
8700,57.0,0,64,12.0,64.0
8701,54.0,0,64,12.0,64.0
8702,69.0,0,64,10.0,64.0
8703,74.0,0,192,8.0,66.0
8704,62.0,0,192,11.0,66.0
8705,50.0,0,450,4.0,22.0
8706,62.0,0,450,4.0,22.0
8707,69.0,0,64,10.0,65.0
8708,54.0,0,64,12.0,65.0
8709,57.0,0,64,12.0,65.0
8710,72.0,80,64,10.0,65.0
8711,69.0,0,0,2.0,53.0
8712,72.0,0,0,1.0,53.0
8713,75.0,0,240,1.0,80.0
8714,57.0,80,0,3.0,53.0
8715,81.0,0,0,0.0,53.0
8716,54.0,0,64,12.0,67.0
8717,57.0,0,64,12.0,67.0
8718,72.0,0,64,10.0,67.0
8719,69.0,0,64,10.0,67.0
8720,69.0,0,64,10.0,68.0
8721,54.0,0,64,12.0,68.0
8722,72.0,80,64,10.0,68.0
8723,57.0,0,64,12.0,68.0
8724,50.0,0,192,6.0,78.0
8725,62.0,0,192,5.0,78.0
8726,69.0,0,64,10.0,70.0
8727,72.0,0,64,10.0,70.0
8728,54.0,80,64,12.0,70.0
8729,57.0,0,64,12.0,70.0
8730,74.0,0,240,1.0,80.0
8731,69.0,80,64,10.0,71.0
8732,72.0,0,64,10.0,71.0
8733,54.0,0,64,12.0,71.0
8734,57.0,0,64,12.0,71.0
8735,84.0,0,576,0.0,80.0
8736,72.0,0,576,2.0,80.0
8737,72.0,0,64,10.0,73.0
8738,69.0,80,64,10.0,73.0
8739,54.0,0,64,12.0,73.0
8740,57.0,0,64,12.0,73.0
8741,69.0,0,192,11.0,77.0
8742,81.0,0,192,8.0,77.0
8743,69.0,0,64,10.0,75.0
8744,54.0,80,64,12.0,75.0
8745,57.0,0,64,12.0,75.0
8746,72.0,0,64,10.0,75.0
8747,69.0,20,48,2.0,80.0
8748,81.0,0,48,0.0,80.0
8749,72.0,0,0,1.0,60.0
8750,69.0,0,0,2.0,60.0
8751,57.0,0,64,12.0,76.0
8752,54.0,60,64,12.0,76.0
8753,69.0,0,64,10.0,76.0
8754,72.0,0,64,10.0,76.0
8755,57.0,0,64,12.0,78.0
8756,72.0,80,64,10.0,78.0
8757,54.0,0,64,12.0,78.0
8758,69.0,0,64,10.0,78.0
8759,54.0,0,64,12.0,79.0
8760,57.0,80,64,12.0,79.0
8761,69.0,0,64,10.0,79.0
8762,72.0,0,64,10.0,79.0
8763,57.0,0,64,12.0,81.0
8764,72.0,0,64,10.0,81.0
8765,69.0,0,64,10.0,81.0
8766,54.0,0,64,12.0,81.0
8767,78.0,0,336,0.0,67.0
8768,78.0,0,336,1.0,67.0
8769,66.0,0,336,2.0,67.0
8770,69.0,80,64,10.0,82.0
8771,57.0,0,64,12.0,82.0
8772,72.0,0,64,10.0,82.0
8773,54.0,0,64,12.0,82.0
8774,84.0,0,192,8.0,88.0
8775,72.0,80,192,11.0,88.0
8776,54.0,0,64,12.0,84.0
8777,72.0,0,64,10.0,84.0
8778,69.0,0,64,10.0,84.0
8779,57.0,80,64,12.0,84.0
8780,62.0,20,48,2.0,67.0
8781,74.0,0,48,1.0,67.0
8782,86.0,0,48,0.0,67.0
8783,81.0,0,480,0.0,60.0
8784,72.0,0,0,1.0,67.0
8785,57.0,0,0,3.0,67.0
8786,69.0,0,0,2.0,67.0
8787,54.0,0,64,12.0,86.0
8788,69.0,0,64,10.0,86.0
8789,72.0,0,64,10.0,86.0
8790,57.0,0,64,12.0,86.0
8791,54.0,0,64,12.0,87.0
8792,57.0,0,64,12.0,87.0
8793,69.0,0,64,10.0,87.0
8794,72.0,80,64,10.0,87.0
8795,50.0,0,192,6.0,98.0
8796,62.0,0,192,5.0,98.0
8797,57.0,0,64,12.0,89.0
8798,72.0,80,64,10.0,89.0
8799,69.0,0,64,10.0,89.0
8800,54.0,0,64,12.0,89.0
8801,69.0,0,64,10.0,90.0
8802,57.0,0,64,12.0,90.0
8803,54.0,0,64,12.0,90.0
8804,72.0,80,64,10.0,90.0
8805,84.0,60,342,0.0,67.0
8806,60.0,0,342,2.0,67.0
8807,57.0,0,64,12.0,92.0
8808,69.0,0,64,10.0,92.0
8809,72.0,80,64,10.0,92.0
8810,54.0,0,64,12.0,92.0
8811,69.0,0,48,8.0,120.0
8812,33.0,0,48,13.0,120.0
8813,57.0,0,48,11.0,120.0
8814,69.0,0,60,1.0,80.0
8815,81.0,40,60,0.0,80.0
8816,57.0,0,60,2.0,80.0
8817,72.0,0,64,10.0,93.0
8818,69.0,0,64,10.0,93.0
8819,54.0,0,64,12.0,93.0
8820,57.0,40,64,12.0,93.0
8821,54.0,0,48,11.0,120.0
8822,30.0,20,48,13.0,120.0
8823,66.0,0,48,8.0,120.0
8824,50.0,0,58,4.0,22.0
8825,62.0,0,58,4.0,22.0
8826,54.0,0,60,2.0,80.0
8827,66.0,0,60,1.0,80.0
8828,60.0,0,960,3.0,58.0
8829,78.0,0,60,0.0,80.0
8830,54.0,0,48,12.0,120.0
8831,57.0,0,48,12.0,120.0
8832,63.0,0,48,10.0,120.0
8833,72.0,0,48,10.0,120.0
8834,54.0,0,48,12.0,120.0
8835,57.0,60,48,12.0,120.0
8836,72.0,0,48,10.0,120.0
8837,63.0,0,48,10.0,120.0
8838,57.0,60,48,12.0,120.0
8839,54.0,0,48,12.0,120.0
8840,72.0,0,48,10.0,120.0
8841,63.0,0,48,10.0,120.0
8842,48.0,0,192,3.0,84.0
8843,72.0,0,192,0.0,84.0
8844,72.0,0,192,1.0,84.0
8845,60.0,0,192,8.0,120.0
8846,45.0,0,192,6.0,127.0
8847,60.0,0,192,2.0,84.0
8848,63.0,60,48,10.0,120.0
8849,72.0,0,48,10.0,120.0
8850,54.0,0,48,12.0,120.0
8851,57.0,0,48,12.0,120.0
8852,54.0,0,48,12.0,120.0
8853,57.0,0,48,12.0,120.0
8854,72.0,0,48,10.0,120.0
8855,63.0,0,48,10.0,120.0
8856,72.0,0,90,2.0,84.0
8857,84.0,0,90,8.0,120.0
8858,84.0,0,90,0.0,84.0
8859,84.0,60,90,1.0,84.0
8860,60.0,0,90,3.0,84.0
8861,72.0,0,48,10.0,120.0
8862,57.0,0,48,12.0,120.0
8863,63.0,60,48,10.0,120.0
8864,54.0,0,48,12.0,120.0
8865,63.0,0,48,10.0,120.0
8866,54.0,60,48,12.0,120.0
8867,72.0,0,48,10.0,120.0
8868,57.0,0,48,12.0,120.0
8869,36.0,0,450,13.0,120.0
8870,48.0,0,450,11.0,120.0
8871,84.0,0,48,1.0,84.0
8872,57.0,0,48,12.0,120.0
8873,54.0,0,48,12.0,120.0
8874,60.0,0,48,3.0,84.0
8875,72.0,0,48,2.0,84.0
8876,84.0,0,48,0.0,84.0
8877,84.0,0,48,8.0,120.0
8878,63.0,0,48,10.0,120.0
8879,72.0,60,48,10.0,120.0
8880,72.0,0,48,10.0,120.0
8881,63.0,0,48,10.0,120.0
8882,57.0,0,48,12.0,120.0
8883,54.0,0,48,12.0,120.0
8884,60.0,60,576,4.0,112.0
8885,54.0,0,48,12.0,120.0
8886,57.0,0,48,12.0,120.0
8887,72.0,0,48,10.0,120.0
8888,63.0,60,48,10.0,120.0
8889,72.0,60,48,10.0,120.0
8890,63.0,0,48,10.0,120.0
8891,57.0,0,48,12.0,120.0
8892,54.0,0,48,12.0,120.0
8893,54.0,0,48,12.0,120.0
8894,63.0,0,48,10.0,120.0
8895,57.0,0,48,12.0,120.0
8896,72.0,60,48,10.0,120.0
8897,54.0,0,48,12.0,120.0
8898,72.0,0,48,10.0,120.0
8899,57.0,0,48,12.0,120.0
8900,63.0,60,48,10.0,120.0
8901,72.0,0,90,11.0,120.0
8902,48.0,0,90,13.0,120.0
8903,57.0,0,48,12.0,120.0
8904,72.0,60,48,10.0,120.0
8905,63.0,0,48,10.0,120.0
8906,54.0,0,48,12.0,120.0
8907,60.0,0,144,4.0,112.0
8908,45.0,0,144,6.0,127.0
8909,72.0,0,48,10.0,120.0
8910,63.0,60,48,10.0,120.0
8911,57.0,0,48,12.0,120.0
8912,54.0,0,48,12.0,120.0
8913,63.0,0,48,10.0,120.0
8914,72.0,60,48,10.0,120.0
8915,45.0,0,48,6.0,127.0
8916,72.0,0,48,11.0,120.0
8917,48.0,0,48,13.0,120.0
8918,54.0,0,48,12.0,120.0
8919,57.0,0,48,12.0,120.0
8920,60.0,0,48,4.0,112.0
8921,87.0,0,600,0.0,84.0
8922,63.0,0,600,3.0,84.0
8923,87.0,60,600,1.0,84.0
8924,75.0,0,600,2.0,84.0
8925,87.0,0,600,8.0,120.0
8926,63.0,0,192,10.0,120.0
8927,45.0,0,192,6.0,127.0
8928,72.0,0,192,10.0,120.0
8929,81.0,0,90,0.0,84.0
8930,69.0,240,90,2.0,84.0
8931,81.0,0,90,1.0,84.0
8932,57.0,0,90,3.0,84.0
8933,81.0,0,90,8.0,120.0
8934,81.0,0,48,1.0,84.0
8935,69.0,0,48,2.0,84.0
8936,57.0,0,48,3.0,84.0
8937,81.0,0,48,0.0,84.0
8938,81.0,180,48,8.0,120.0
8939,60.0,60,576,4.0,112.0
8940,75.0,0,600,11.0,120.0
8941,63.0,0,600,12.0,120.0
8942,51.0,0,600,13.0,120.0
8943,69.0,240,90,11.0,120.0
8944,57.0,0,90,12.0,120.0
8945,45.0,0,90,13.0,120.0
8946,45.0,0,144,6.0,127.0
8947,69.0,0,48,11.0,120.0
8948,57.0,0,48,12.0,120.0
8949,45.0,180,48,6.0,127.0
8950,45.0,0,48,13.0,120.0
8951,84.0,0,600,1.0,84.0
8952,48.0,0,120,13.0,120.0
8953,60.0,60,600,3.0,84.0
8954,72.0,0,120,11.0,120.0
8955,60.0,0,120,12.0,120.0
8956,72.0,0,600,2.0,84.0
8957,84.0,0,600,0.0,84.0
8958,84.0,0,600,8.0,120.0
8959,60.0,0,192,4.0,80.0
8960,45.0,60,192,6.0,127.0
8961,66.0,0,90,4.0,84.0
8962,66.0,0,90,2.0,84.0
8963,54.0,0,90,3.0,84.0
8964,42.0,0,90,13.0,120.0
8965,78.0,0,90,8.0,120.0
8966,54.0,0,90,12.0,120.0
8967,78.0,0,90,1.0,84.0
8968,66.0,0,90,11.0,120.0
8969,90.0,0,90,0.0,84.0
8970,45.0,240,144,6.0,127.0
8971,90.0,0,48,0.0,84.0
8972,54.0,0,48,12.0,120.0
8973,42.0,0,48,13.0,120.0
8974,66.0,0,48,11.0,120.0
8975,45.0,180,48,6.0,127.0
8976,66.0,0,48,2.0,84.0
8977,78.0,0,48,8.0,120.0
8978,78.0,0,48,1.0,84.0
8979,66.0,0,48,4.0,84.0
8980,54.0,0,48,3.0,84.0
8981,81.0,0,120,1.0,84.0
8982,69.0,0,120,4.0,84.0
8983,45.0,0,120,13.0,120.0
8984,81.0,0,120,8.0,120.0
8985,57.0,0,120,3.0,84.0
8986,93.0,60,120,0.0,84.0
8987,69.0,0,120,2.0,84.0
8988,57.0,0,120,12.0,120.0
8989,69.0,0,120,11.0,120.0
8990,45.0,0,192,6.0,127.0
8991,60.0,0,90,11.0,120.0
8992,48.0,240,90,12.0,120.0
8993,36.0,0,90,13.0,120.0
8994,72.0,0,90,8.0,120.0
8995,84.0,0,90,0.0,84.0
8996,48.0,0,90,3.0,84.0
8997,60.0,0,90,2.0,84.0
8998,60.0,0,90,4.0,84.0
8999,72.0,0,90,1.0,84.0
9000,60.0,0,48,4.0,84.0
9001,72.0,0,48,1.0,84.0
9002,48.0,0,48,12.0,120.0
9003,60.0,0,48,2.0,84.0
9004,36.0,180,48,13.0,120.0
9005,84.0,0,48,0.0,84.0
9006,48.0,0,48,3.0,84.0
9007,60.0,0,48,11.0,120.0
9008,72.0,0,48,8.0,120.0
9009,63.0,0,120,2.0,84.0
9010,75.0,60,120,8.0,120.0
9011,87.0,0,120,0.0,84.0
9012,39.0,0,120,13.0,120.0
9013,51.0,0,120,12.0,120.0
9014,51.0,0,120,3.0,84.0
9015,75.0,0,120,1.0,84.0
9016,63.0,0,120,4.0,84.0
9017,63.0,0,120,11.0,120.0
9018,69.0,0,90,1.0,84.0
9019,57.0,0,90,2.0,84.0
9020,45.0,0,90,12.0,120.0
9021,45.0,0,90,3.0,84.0
9022,33.0,240,90,13.0,120.0
9023,81.0,0,90,0.0,84.0
9024,57.0,0,90,11.0,120.0
9025,69.0,0,90,8.0,120.0
9026,57.0,0,90,4.0,84.0
9027,45.0,0,144,6.0,127.0
9028,57.0,0,48,4.0,84.0
9029,69.0,0,48,8.0,120.0
9030,33.0,180,48,13.0,120.0
9031,81.0,0,48,0.0,84.0
9032,45.0,0,48,6.0,127.0
9033,45.0,0,48,12.0,120.0
9034,45.0,0,48,3.0,84.0
9035,69.0,0,48,1.0,84.0
9036,57.0,0,48,2.0,84.0
9037,57.0,0,48,11.0,120.0
9038,38.0,0,120,13.0,120.0
9039,74.0,0,120,1.0,84.0
9040,62.0,0,120,2.0,84.0
9041,62.0,60,120,11.0,120.0
9042,86.0,0,120,0.0,84.0
9043,62.0,0,120,4.0,84.0
9044,50.0,0,120,3.0,84.0
9045,74.0,0,120,8.0,120.0
9046,50.0,0,120,12.0,120.0
9047,50.0,0,192,6.0,80.0
9048,74.0,0,90,0.0,84.0
9049,50.0,0,90,2.0,84.0
9050,62.0,0,90,1.0,84.0
9051,26.0,0,90,13.0,120.0
9052,50.0,0,90,11.0,120.0
9053,38.0,0,90,3.0,84.0
9054,62.0,0,90,8.0,120.0
9055,38.0,240,90,12.0,120.0
9056,50.0,0,90,4.0,84.0
9057,50.0,0,144,6.0,127.0
9058,26.0,0,48,13.0,120.0
9059,50.0,0,48,2.0,84.0
9060,50.0,180,48,11.0,120.0
9061,62.0,0,48,8.0,120.0
9062,38.0,0,48,3.0,84.0
9063,62.0,0,48,1.0,84.0
9064,38.0,0,48,12.0,120.0
9065,50.0,0,48,6.0,127.0
9066,50.0,0,48,4.0,84.0
9067,74.0,0,48,0.0,84.0
9068,58.0,0,0,3.0,32.0
9069,55.0,0,120,3.0,32.0
9070,70.0,0,0,2.0,32.0
9071,67.0,0,120,2.0,32.0
9072,74.0,0,60,2.0,32.0
9073,62.0,120,60,3.0,32.0
9074,62.0,0,192,4.0,48.0
9075,50.0,0,192,4.0,48.0
9076,79.0,0,192,0.0,48.0
9077,67.0,0,192,0.0,48.0
9078,62.0,0,192,5.0,48.0
9079,50.0,0,192,6.0,76.0
9080,43.0,0,226,12.0,60.0
9081,55.0,60,226,8.0,60.0
9082,31.0,0,226,13.0,60.0
9083,55.0,0,226,11.0,60.0
9084,69.0,0,60,2.0,32.0
9085,57.0,0,60,3.0,32.0
9086,60.0,120,60,3.0,32.0
9087,72.0,0,60,2.0,32.0
9088,67.0,120,60,2.0,32.0
9089,70.0,0,60,2.0,32.0
9090,58.0,0,60,3.0,32.0
9091,55.0,0,60,3.0,32.0
9092,79.0,0,600,1.0,56.0
9093,82.0,120,72,1.0,56.0
9094,81.0,120,72,1.0,56.0
9095,79.0,120,72,1.0,56.0
9096,58.0,0,600,3.0,32.0
9097,70.0,0,600,2.0,32.0
9098,55.0,0,600,3.0,32.0
9099,67.0,120,600,2.0,32.0
9100,58.0,0,60,3.0,32.0
9101,62.0,0,60,3.0,32.0
9102,70.0,0,60,2.0,32.0
9103,74.0,120,60,2.0,32.0
9104,60.0,0,60,3.0,32.0
9105,57.0,120,60,3.0,32.0
9106,69.0,0,60,2.0,32.0
9107,72.0,0,60,2.0,32.0
9108,70.0,0,60,2.0,32.0
9109,58.0,0,60,3.0,32.0
9110,55.0,0,60,3.0,32.0
9111,67.0,120,60,2.0,32.0
9112,79.0,120,600,1.0,56.0
9113,82.0,120,72,1.0,56.0
9114,81.0,120,72,1.0,56.0
9115,58.0,0,384,3.0,32.0
9116,70.0,0,384,2.0,32.0
9117,79.0,120,72,1.0,56.0
9118,55.0,0,600,3.0,32.0
9119,63.0,0,0,3.0,32.0
9120,67.0,120,600,2.0,32.0
9121,75.0,0,0,2.0,32.0
9122,79.0,0,60,2.0,32.0
9123,67.0,120,60,3.0,32.0
9124,74.0,0,60,2.0,32.0
9125,77.0,0,60,2.0,32.0
9126,65.0,0,60,3.0,32.0
9127,62.0,120,60,3.0,32.0
9128,72.0,120,60,2.0,32.0
9129,63.0,0,60,3.0,32.0
9130,75.0,0,60,2.0,32.0
9131,60.0,0,60,3.0,32.0
9132,79.0,0,600,1.0,39.0
9133,84.0,120,600,0.0,56.0
9134,79.0,120,72,1.0,39.0
9135,87.0,0,72,0.0,56.0
9136,86.0,120,72,0.0,56.0
9137,77.0,0,72,1.0,39.0
9138,84.0,120,72,0.0,56.0
9139,75.0,0,72,1.0,39.0
9140,75.0,120,600,2.0,32.0
9141,63.0,0,600,3.0,32.0
9142,60.0,0,600,3.0,32.0
9143,72.0,0,600,2.0,32.0
9144,75.0,0,60,2.0,32.0
9145,67.0,0,60,3.0,32.0
9146,63.0,120,60,3.0,32.0
9147,79.0,0,60,2.0,32.0
9148,75.0,120,226,1.0,39.0
9149,65.0,0,60,3.0,32.0
9150,62.0,120,60,3.0,32.0
9151,74.0,0,60,2.0,32.0
9152,77.0,0,60,2.0,32.0
9153,63.0,0,60,3.0,32.0
9154,60.0,0,60,3.0,32.0
9155,72.0,120,60,2.0,32.0
9156,75.0,0,60,2.0,32.0
9157,79.0,0,312,1.0,27.0
9158,60.0,0,114,3.0,32.0
9159,63.0,0,114,3.0,32.0
9160,75.0,120,114,2.0,32.0
9161,72.0,0,114,2.0,32.0
9162,84.0,0,600,0.0,56.0
9163,87.0,0,72,0.0,62.0
9164,79.0,120,96,1.0,39.0
9165,67.0,0,114,2.0,32.0
9166,60.0,0,114,3.0,32.0
9167,75.0,0,114,2.0,32.0
9168,67.0,0,114,3.0,32.0
9169,86.0,0,72,0.0,62.0
9170,79.0,0,96,1.0,39.0
9171,60.0,0,114,3.0,32.0
9172,67.0,0,114,2.0,32.0
9173,65.0,0,114,3.0,32.0
9174,74.0,120,114,2.0,32.0
9175,84.0,0,72,0.0,62.0
9176,79.0,0,96,1.0,39.0
9177,60.0,0,114,3.0,32.0
9178,63.0,0,114,3.0,32.0
9179,67.0,0,114,2.0,32.0
9180,72.0,120,114,2.0,32.0
9181,82.0,0,240,0.0,62.0
9182,79.0,0,240,1.0,45.0
9183,67.0,120,240,2.0,32.0
9184,64.0,0,240,3.0,32.0
9185,70.0,0,240,2.0,32.0
9186,61.0,0,240,3.0,32.0
9187,81.0,480,240,0.0,40.0
9188,61.0,0,240,3.0,32.0
9189,81.0,0,240,1.0,40.0
9190,69.0,0,240,2.0,32.0
9191,67.0,0,240,2.0,32.0
9192,64.0,0,240,3.0,32.0
9193,69.0,0,240,2.0,40.0
9194,79.0,0,240,0.0,36.0
9195,79.0,0,240,1.0,36.0
9196,51.0,0,240,3.0,40.0
9197,63.0,0,240,3.0,40.0
9198,60.0,480,240,2.0,40.0
9199,78.0,0,240,1.0,36.0
9200,78.0,480,240,0.0,36.0
9201,62.0,0,240,3.0,40.0
9202,69.0,0,240,2.0,40.0
9203,60.0,0,240,2.0,40.0
9204,50.0,0,240,3.0,40.0
9205,74.0,420,48,11.0,56.0
9206,86.0,0,48,8.0,34.0
9207,43.0,60,64,12.0,32.0
9208,55.0,0,64,12.0,32.0
9209,62.0,0,64,10.0,32.0
9210,70.0,0,64,10.0,32.0
9211,55.0,0,64,12.0,32.0
9212,70.0,0,64,10.0,32.0
9213,62.0,80,64,10.0,32.0
9214,43.0,0,64,12.0,32.0
9215,55.0,0,64,12.0,32.0
9216,43.0,0,64,12.0,32.0
9217,70.0,80,64,10.0,32.0
9218,62.0,0,64,10.0,32.0
9219,62.0,0,64,10.0,32.0
9220,70.0,0,64,10.0,32.0
9221,43.0,0,64,12.0,32.0
9222,55.0,0,64,12.0,32.0
9223,43.0,80,64,12.0,32.0
9224,55.0,0,64,12.0,32.0
9225,62.0,0,64,10.0,32.0
9226,70.0,0,64,10.0,32.0
9227,58.0,0,192,2.0,28.0
9228,43.0,0,192,3.0,28.0
9229,55.0,80,192,2.0,28.0
9230,43.0,0,192,15.0,37.0
9231,46.0,0,192,3.0,28.0
9232,43.0,80,64,12.0,32.0
9233,55.0,0,64,12.0,32.0
9234,62.0,0,64,10.0,32.0
9235,70.0,0,64,10.0,32.0
9236,62.0,0,64,10.0,32.0
9237,43.0,80,64,12.0,32.0
9238,55.0,0,64,12.0,32.0
9239,70.0,0,64,10.0,32.0
9240,62.0,0,64,10.0,32.0
9241,70.0,80,64,10.0,32.0
9242,55.0,0,64,12.0,32.0
9243,43.0,0,64,12.0,32.0
9244,50.0,0,192,6.0,34.0
9245,62.0,0,192,5.0,34.0
9246,62.0,80,64,10.0,32.0
9247,70.0,0,64,10.0,32.0
9248,43.0,0,64,12.0,32.0
9249,55.0,0,64,12.0,32.0
9250,55.0,0,64,12.0,32.0
9251,43.0,0,64,12.0,32.0
9252,62.0,0,64,10.0,32.0
9253,70.0,0,64,10.0,32.0
9254,82.0,0,816,8.0,43.0
9255,70.0,0,816,11.0,43.0
9256,55.0,0,64,12.0,32.0
9257,43.0,80,64,12.0,32.0
9258,62.0,0,64,10.0,32.0
9259,70.0,0,64,10.0,32.0
9260,58.0,0,192,2.0,28.0
9261,50.0,0,192,3.0,28.0
9262,46.0,0,192,3.0,28.0
9263,46.0,80,192,15.0,37.0
9264,62.0,0,192,2.0,28.0
9265,70.0,0,64,10.0,32.0
9266,62.0,0,64,10.0,32.0
9267,43.0,80,64,12.0,32.0
9268,55.0,0,64,12.0,32.0
9269,67.0,0,48,4.0,40.0
9270,79.0,0,58,8.0,43.0
9271,67.0,20,58,11.0,43.0
9272,43.0,0,64,12.0,32.0
9273,55.0,0,64,12.0,32.0
9274,62.0,60,64,10.0,32.0
9275,70.0,0,64,10.0,32.0
9276,43.0,0,64,12.0,32.0
9277,55.0,80,64,12.0,32.0
9278,62.0,0,64,10.0,32.0
9279,70.0,0,64,10.0,32.0
9280,67.0,0,192,4.0,40.0
9281,70.0,0,64,10.0,32.0
9282,55.0,0,64,12.0,32.0
9283,43.0,80,64,12.0,32.0
9284,62.0,0,64,10.0,32.0
9285,43.0,0,64,12.0,32.0
9286,55.0,0,64,12.0,32.0
9287,62.0,0,64,10.0,32.0
9288,70.0,80,64,10.0,32.0
9289,74.0,0,336,8.0,43.0
9290,62.0,0,336,11.0,43.0
9291,70.0,0,64,10.0,32.0
9292,62.0,0,64,10.0,32.0
9293,55.0,0,64,12.0,32.0
9294,43.0,80,64,12.0,32.0
9295,50.0,0,192,3.0,28.0
9296,55.0,0,192,3.0,28.0
9297,62.0,0,192,2.0,28.0
9298,67.0,0,192,2.0,28.0
9299,50.0,0,192,15.0,37.0
9300,70.0,0,64,10.0,32.0
9301,62.0,80,64,10.0,32.0
9302,55.0,0,64,12.0,32.0
9303,43.0,0,64,12.0,32.0
9304,58.0,0,58,11.0,43.0
9305,70.0,20,58,8.0,43.0
9306,43.0,0,64,12.0,32.0
9307,55.0,0,64,12.0,32.0
9308,62.0,0,64,10.0,32.0
9309,70.0,0,64,10.0,32.0
9310,43.0,0,64,12.0,32.0
9311,70.0,0,64,10.0,32.0
9312,62.0,80,64,10.0,32.0
9313,55.0,0,64,12.0,32.0
9314,62.0,0,192,5.0,34.0
9315,50.0,0,192,6.0,34.0
9316,70.0,0,64,10.0,32.0
9317,43.0,0,64,12.0,32.0
9318,55.0,80,64,12.0,32.0
9319,62.0,0,64,10.0,32.0
9320,55.0,0,64,12.0,32.0
9321,43.0,80,64,12.0,32.0
9322,62.0,0,64,10.0,32.0
9323,70.0,0,64,10.0,32.0
9324,55.0,0,336,11.0,43.0
9325,67.0,60,336,8.0,43.0
9326,70.0,0,64,10.0,32.0
9327,58.0,0,144,3.0,28.0
9328,62.0,0,64,10.0,32.0
9329,70.0,0,144,2.0,28.0
9330,43.0,0,64,12.0,32.0
9331,55.0,80,64,12.0,32.0
9332,62.0,40,48,11.0,35.0
9333,62.0,0,48,8.0,35.0
9334,55.0,0,192,15.0,37.0
9335,43.0,0,64,12.0,32.0
9336,55.0,0,64,12.0,32.0
9337,70.0,0,64,10.0,32.0
9338,62.0,40,64,10.0,32.0
9339,58.0,0,48,11.0,35.0
9340,62.0,0,48,3.0,80.0
9341,58.0,20,48,8.0,35.0
9342,74.0,0,48,2.0,48.0
9343,70.0,0,64,10.0,32.0
9344,62.0,0,64,10.0,32.0
9345,55.0,60,64,12.0,32.0
9346,43.0,0,64,12.0,32.0
9347,62.0,0,64,10.0,32.0
9348,70.0,0,64,10.0,32.0
9349,55.0,0,64,12.0,32.0
9350,43.0,80,64,12.0,32.0
9351,55.0,0,192,11.0,35.0
9352,55.0,0,192,8.0,35.0
9353,43.0,80,64,12.0,32.0
9354,62.0,0,64,10.0,32.0
9355,70.0,0,64,10.0,32.0
9356,55.0,0,64,12.0,32.0
9357,79.0,0,2160,1.0,34.0
9358,70.0,0,64,10.0,32.0
9359,62.0,80,64,10.0,32.0
9360,55.0,0,64,12.0,32.0
9361,43.0,0,64,12.0,32.0
9362,43.0,0,64,12.0,32.0
9363,70.0,0,64,10.0,32.0
9364,55.0,80,64,12.0,32.0
9365,62.0,0,64,10.0,32.0
9366,74.0,40,48,8.0,35.0
9367,55.0,0,192,15.0,37.0
9368,55.0,0,64,12.0,32.0
9369,43.0,0,64,12.0,32.0
9370,70.0,0,64,10.0,32.0
9371,62.0,40,64,10.0,32.0
9372,70.0,20,48,8.0,35.0
9373,75.0,0,240,1.0,47.0
9374,43.0,0,64,12.0,32.0
9375,55.0,0,64,12.0,32.0
9376,70.0,0,64,10.0,32.0
9377,62.0,60,64,10.0,32.0
9378,43.0,0,64,12.0,32.0
9379,55.0,0,64,12.0,32.0
9380,70.0,0,64,10.0,32.0
9381,62.0,80,64,10.0,32.0
9382,62.0,0,192,5.0,34.0
9383,50.0,0,192,6.0,34.0
9384,67.0,0,192,8.0,35.0
9385,55.0,80,64,12.0,32.0
9386,43.0,0,64,12.0,32.0
9387,70.0,0,64,10.0,32.0
9388,62.0,0,64,10.0,32.0
9389,74.0,0,240,1.0,47.0
9390,70.0,0,64,10.0,32.0
9391,62.0,0,64,10.0,32.0
9392,43.0,0,64,12.0,32.0
9393,55.0,0,64,12.0,32.0
9394,43.0,0,64,12.0,32.0
9395,70.0,80,64,10.0,32.0
9396,55.0,0,64,12.0,32.0
9397,62.0,0,64,10.0,32.0
9398,70.0,0,864,2.0,48.0
9399,58.0,0,864,3.0,48.0
9400,62.0,40,48,11.0,44.0
9401,58.0,80,192,15.0,37.0
9402,43.0,40,64,12.0,32.0
9403,62.0,0,64,10.0,32.0
9404,70.0,0,64,10.0,32.0
9405,55.0,0,64,12.0,32.0
9406,67.0,0,48,2.0,48.0
9407,55.0,0,48,3.0,48.0
9408,67.0,0,48,4.0,40.0
9409,58.0,20,48,11.0,44.0
9410,82.0,0,240,1.0,47.0
9411,43.0,0,64,12.0,32.0
9412,55.0,0,64,12.0,32.0
9413,70.0,0,64,10.0,32.0
9414,62.0,0,64,10.0,32.0
9415,70.0,0,64,10.0,32.0
9416,43.0,80,64,12.0,32.0
9417,55.0,0,64,12.0,32.0
9418,62.0,0,64,10.0,32.0
9419,67.0,0,192,4.0,40.0
9420,55.0,0,192,11.0,44.0
9421,55.0,0,64,12.0,32.0
9422,43.0,80,64,12.0,32.0
9423,70.0,0,64,10.0,32.0
9424,62.0,0,64,10.0,32.0
9425,70.0,0,64,10.0,32.0
9426,62.0,80,64,10.0,32.0
9427,55.0,0,64,12.0,32.0
9428,43.0,0,64,12.0,32.0
9429,62.0,0,336,2.0,48.0
9430,70.0,0,3216,1.0,34.0
9431,50.0,0,336,3.0,48.0
9432,74.0,60,336,1.0,34.0
9433,43.0,0,64,12.0,32.0
9434,55.0,0,64,12.0,32.0
9435,70.0,80,64,10.0,32.0
9436,62.0,0,64,10.0,32.0
9437,65.0,40,48,11.0,48.0
9438,62.0,0,192,15.0,37.0
9439,70.0,0,64,10.0,32.0
9440,43.0,0,64,12.0,32.0
9441,62.0,40,64,10.0,32.0
9442,55.0,0,64,12.0,32.0
9443,58.0,0,48,2.0,48.0
9444,46.0,0,48,3.0,48.0
9445,62.0,0,48,11.0,48.0
9446,70.0,20,48,1.0,48.0
9447,43.0,0,64,12.0,32.0
9448,50.0,0,64,12.0,32.0
9449,62.0,60,64,10.0,32.0
9450,71.0,0,64,10.0,32.0
9451,71.0,0,64,10.0,32.0
9452,43.0,0,64,12.0,32.0
9453,50.0,80,64,12.0,32.0
9454,62.0,0,64,10.0,32.0
9455,62.0,0,192,5.0,34.0
9456,50.0,0,192,6.0,34.0
9457,67.0,0,192,1.0,48.0
9458,71.0,0,192,1.0,48.0
9459,71.0,80,64,10.0,32.0
9460,43.0,0,64,12.0,32.0
9461,50.0,0,64,12.0,32.0
9462,62.0,0,64,10.0,32.0
9463,86.0,0,3648,0.0,34.0
9464,43.0,0,288,3.0,48.0
9465,82.0,0,3648,0.0,34.0
9466,55.0,0,288,2.0,48.0
9467,50.0,0,64,12.0,32.0
9468,71.0,80,64,10.0,32.0
9469,43.0,0,64,12.0,32.0
9470,62.0,0,64,10.0,32.0
9471,59.0,0,336,11.0,48.0
9472,62.0,0,64,10.0,32.0
9473,50.0,80,64,12.0,32.0
9474,43.0,0,64,12.0,32.0
9475,71.0,0,64,10.0,32.0
9476,65.0,40,48,3.0,48.0
9477,77.0,0,48,2.0,48.0
9478,79.0,0,660,8.0,49.0
9479,67.0,0,192,4.0,40.0
9480,77.0,0,192,1.0,48.0
9481,74.0,0,192,1.0,48.0
9482,67.0,0,192,15.0,37.0
9483,43.0,0,64,12.0,32.0
9484,62.0,0,64,10.0,32.0
9485,71.0,40,64,10.0,32.0
9486,50.0,0,64,12.0,32.0
9487,80.0,0,48,8.0,60.0
9488,62.0,20,48,3.0,48.0
9489,68.0,0,48,11.0,60.0
9490,74.0,0,48,2.0,48.0
9491,43.0,0,64,12.0,32.0
9492,50.0,0,64,12.0,32.0
9493,71.0,60,64,10.0,32.0
9494,62.0,0,64,10.0,32.0
9495,62.0,0,64,10.0,32.0
9496,43.0,80,64,12.0,32.0
9497,50.0,0,64,12.0,32.0
9498,71.0,0,64,10.0,32.0
9499,71.0,0,192,2.0,28.0
9500,50.0,0,192,6.0,48.0
9501,62.0,0,192,5.0,48.0
9502,59.0,0,192,3.0,28.0
9503,43.0,80,64,12.0,32.0
9504,50.0,0,64,12.0,32.0
9505,62.0,0,64,10.0,32.0
9506,71.0,0,64,10.0,32.0
9507,62.0,0,64,10.0,32.0
9508,50.0,0,64,12.0,32.0
9509,43.0,0,64,12.0,32.0
9510,71.0,0,64,10.0,32.0
9511,50.0,0,64,12.0,32.0
9512,43.0,80,64,12.0,32.0
9513,71.0,0,64,10.0,32.0
9514,62.0,0,64,10.0,32.0
9515,47.0,0,192,3.0,28.0
9516,43.0,0,192,15.0,31.0
9517,55.0,0,192,2.0,28.0
9518,59.0,0,192,2.0,28.0
9519,43.0,80,192,3.0,28.0
9520,62.0,0,64,10.0,32.0
9521,71.0,0,64,10.0,32.0
9522,50.0,0,64,12.0,32.0
9523,43.0,80,64,12.0,32.0
9524,43.0,0,64,12.0,32.0
9525,50.0,0,64,12.0,32.0
9526,71.0,0,64,10.0,32.0
9527,62.0,0,64,10.0,32.0
9528,43.0,0,64,12.0,32.0
9529,71.0,80,64,10.0,32.0
9530,62.0,0,64,10.0,32.0
9531,50.0,0,64,12.0,32.0
9532,62.0,80,192,5.0,48.0
9533,50.0,0,192,6.0,48.0
9534,71.0,0,64,10.0,32.0
9535,50.0,80,64,12.0,32.0
9536,62.0,0,64,10.0,32.0
9537,43.0,0,64,12.0,32.0
9538,62.0,0,64,10.0,32.0
9539,43.0,0,64,12.0,32.0
9540,50.0,80,64,12.0,32.0
9541,71.0,0,64,10.0,32.0
9542,79.0,0,816,8.0,54.0
9543,67.0,0,816,11.0,54.0
9544,62.0,80,64,10.0,32.0
9545,71.0,0,64,10.0,32.0
9546,43.0,0,64,12.0,32.0
9547,50.0,0,64,12.0,32.0
9548,59.0,0,192,2.0,28.0
9549,62.0,0,192,2.0,28.0
9550,47.0,0,192,15.0,40.0
9551,71.0,0,64,10.0,32.0
9552,43.0,0,64,12.0,32.0
9553,50.0,0,64,12.0,32.0
9554,62.0,80,64,10.0,32.0
9555,77.0,0,58,8.0,54.0
9556,65.0,20,58,11.0,54.0
9557,43.0,60,64,12.0,32.0
9558,50.0,0,64,12.0,32.0
9559,71.0,0,64,10.0,32.0
9560,62.0,0,64,10.0,32.0
9561,43.0,0,64,12.0,32.0
9562,50.0,0,64,12.0,32.0
9563,71.0,80,64,10.0,32.0
9564,62.0,0,64,10.0,32.0
9565,43.0,0,64,12.0,32.0
9566,62.0,0,64,10.0,32.0
9567,71.0,80,64,10.0,32.0
9568,50.0,0,64,12.0,32.0
9569,43.0,80,64,12.0,32.0
9570,62.0,0,64,10.0,32.0
9571,71.0,0,64,10.0,32.0
9572,50.0,0,64,12.0,32.0
9573,74.0,0,336,8.0,54.0
9574,62.0,0,336,11.0,54.0
9575,71.0,80,64,10.0,32.0
9576,50.0,0,64,12.0,32.0
9577,43.0,0,64,12.0,32.0
9578,62.0,0,64,10.0,32.0
9579,65.0,0,192,2.0,28.0
9580,59.0,0,192,2.0,28.0
9581,47.0,0,192,3.0,28.0
9582,55.0,0,192,3.0,28.0
9583,50.0,0,192,15.0,49.0
9584,62.0,0,5250,4.0,28.0
9585,50.0,0,5250,4.0,28.0
9586,50.0,0,64,12.0,32.0
9587,43.0,0,64,12.0,32.0
9588,71.0,0,64,10.0,32.0
9589,62.0,80,64,10.0,32.0
9590,71.0,20,58,8.0,54.0
9591,59.0,0,58,11.0,54.0
9592,71.0,0,64,10.0,32.0
9593,50.0,0,64,12.0,32.0
9594,43.0,0,64,12.0,32.0
9595,62.0,0,64,10.0,32.0
9596,43.0,0,64,12.0,32.0
9597,50.0,0,64,12.0,32.0
9598,71.0,0,64,10.0,32.0
9599,62.0,80,64,10.0,32.0
9600,62.0,0,192,5.0,48.0
9601,50.0,0,192,6.0,48.0
9602,71.0,0,64,10.0,32.0
9603,50.0,80,64,12.0,32.0
9604,43.0,0,64,12.0,32.0
9605,62.0,0,64,10.0,32.0
9606,67.0,0,1728,4.0,56.0
9607,50.0,0,64,12.0,32.0
9608,43.0,0,64,12.0,32.0
9609,62.0,0,64,10.0,32.0
9610,71.0,80,64,10.0,32.0
9611,67.0,0,336,8.0,54.0
9612,55.0,60,336,11.0,54.0
9613,62.0,0,64,10.0,32.0
9614,71.0,0,64,10.0,32.0
9615,71.0,0,144,2.0,28.0
9616,59.0,0,144,3.0,28.0
9617,43.0,80,64,12.0,32.0
9618,50.0,0,64,12.0,32.0
9619,65.0,40,48,8.0,44.0
9620,53.0,0,48,11.0,44.0
9621,55.0,0,192,15.0,58.0
9622,43.0,0,64,12.0,32.0
9623,71.0,0,64,10.0,32.0
9624,50.0,0,64,12.0,32.0
9625,62.0,40,64,10.0,32.0
9626,68.0,0,48,3.0,56.0
9627,50.0,20,48,11.0,44.0
9628,80.0,0,48,2.0,34.0
9629,62.0,0,48,8.0,44.0
9630,43.0,0,64,12.0,29.0
9631,62.0,0,64,10.0,29.0
9632,71.0,0,64,10.0,29.0
9633,50.0,0,64,12.0,29.0
9634,43.0,0,64,12.0,32.0
9635,62.0,0,64,10.0,32.0
9636,71.0,0,64,10.0,32.0
9637,50.0,80,64,12.0,32.0
9638,59.0,0,192,8.0,35.0
9639,59.0,0,192,11.0,35.0
9640,62.0,0,64,10.0,34.0
9641,50.0,0,64,12.0,34.0
9642,71.0,80,64,10.0,34.0
9643,43.0,0,64,12.0,34.0
9644,77.0,0,2160,1.0,34.0
9645,50.0,0,64,12.0,37.0
9646,71.0,0,64,10.0,37.0
9647,62.0,0,64,10.0,37.0
9648,43.0,80,64,12.0,37.0
9649,43.0,0,64,12.0,40.0
9650,50.0,0,64,12.0,40.0
9651,71.0,0,64,10.0,40.0
9652,62.0,80,64,10.0,40.0
9653,77.0,40,48,8.0,44.0
9654,55.0,0,192,15.0,67.0
9655,62.0,0,64,10.0,42.0
9656,71.0,40,64,10.0,42.0
9657,50.0,0,64,12.0,42.0
9658,43.0,0,64,12.0,42.0
9659,74.0,20,48,8.0,44.0
9660,65.0,0,0,4.0,48.0
9661,62.0,0,0,4.0,48.0
9662,80.0,0,240,1.0,47.0
9663,71.0,0,64,10.0,45.0
9664,62.0,60,64,10.0,45.0
9665,43.0,0,64,12.0,45.0
9666,50.0,0,64,12.0,45.0
9667,62.0,0,64,10.0,47.0
9668,50.0,80,64,12.0,47.0
9669,43.0,0,64,12.0,47.0
9670,71.0,0,64,10.0,47.0
9671,50.0,0,192,6.0,60.0
9672,71.0,0,192,8.0,44.0
9673,62.0,0,192,5.0,60.0
9674,62.0,80,64,10.0,50.0
9675,43.0,0,64,12.0,50.0
9676,71.0,0,64,10.0,50.0
9677,50.0,0,64,12.0,50.0
9678,79.0,0,240,1.0,47.0
9679,43.0,0,64,12.0,52.0
9680,71.0,0,64,10.0,52.0
9681,62.0,0,64,10.0,52.0
9682,50.0,80,64,12.0,52.0
9683,50.0,0,64,12.0,55.0
9684,43.0,0,64,12.0,55.0
9685,71.0,0,64,10.0,55.0
9686,67.0,0,864,3.0,34.0
9687,79.0,0,864,2.0,34.0
9688,62.0,80,64,10.0,55.0
9689,65.0,40,48,11.0,69.0
9690,59.0,0,192,15.0,77.0
9691,43.0,40,64,12.0,57.0
9692,50.0,0,64,12.0,57.0
9693,62.0,0,64,10.0,57.0
9694,71.0,0,64,10.0,57.0
9695,65.0,0,48,3.0,48.0
9696,62.0,0,48,11.0,69.0
9697,77.0,20,48,2.0,48.0
9698,77.0,0,240,1.0,47.0
9699,43.0,0,64,12.0,60.0
9700,50.0,0,64,12.0,60.0
9701,71.0,0,64,10.0,60.0
9702,62.0,0,64,10.0,60.0
9703,50.0,0,64,12.0,62.0
9704,62.0,0,64,10.0,62.0
9705,43.0,80,64,12.0,62.0
9706,71.0,0,64,10.0,62.0
9707,59.0,0,192,11.0,69.0
9708,50.0,0,64,12.0,65.0
9709,43.0,80,64,12.0,65.0
9710,62.0,0,64,10.0,65.0
9711,71.0,0,64,10.0,65.0
9712,71.0,80,64,10.0,67.0
9713,50.0,0,64,12.0,67.0
9714,43.0,0,64,12.0,67.0
9715,62.0,0,64,10.0,67.0
9716,74.0,0,336,2.0,48.0
9717,86.0,60,336,1.0,34.0
9718,62.0,0,336,3.0,48.0
9719,74.0,0,3216,1.0,34.0
9720,71.0,80,64,10.0,70.0
9721,50.0,0,64,12.0,70.0
9722,43.0,0,64,12.0,70.0
9723,62.0,0,64,10.0,70.0
9724,65.0,40,48,11.0,69.0
9725,62.0,0,192,15.0,86.0
9726,50.0,0,64,12.0,72.0
9727,43.0,0,64,12.0,72.0
9728,62.0,40,64,10.0,72.0
9729,71.0,0,64,10.0,72.0
9730,71.0,0,48,1.0,48.0
9731,83.0,0,48,1.0,48.0
9732,59.0,0,48,3.0,48.0
9733,62.0,0,48,11.0,69.0
9734,71.0,20,48,2.0,48.0
9735,65.0,0,0,4.0,70.0
9736,62.0,0,0,4.0,70.0
9737,43.0,0,64,12.0,75.0
9738,50.0,0,64,12.0,75.0
9739,62.0,0,64,10.0,75.0
9740,71.0,0,64,10.0,75.0
9741,50.0,0,64,11.0,75.0
9742,59.0,0,64,11.0,75.0
9743,67.0,0,1536,4.0,56.0
9744,50.0,60,1536,4.0,56.0
9745,62.0,0,64,10.0,77.0
9746,50.0,0,64,12.0,77.0
9747,43.0,0,64,12.0,77.0
9748,71.0,80,64,10.0,77.0
9749,50.0,0,64,11.0,77.0
9750,59.0,0,64,11.0,77.0
9751,62.0,0,192,5.0,75.0
9752,50.0,60,192,6.0,75.0
9753,50.0,0,64,12.0,80.0
9754,62.0,80,64,10.0,80.0
9755,71.0,0,64,10.0,80.0
9756,43.0,0,64,12.0,80.0
9757,59.0,0,64,11.0,80.0
9758,50.0,0,64,11.0,80.0
9759,79.0,0,288,1.0,48.0
9760,67.0,0,288,2.0,48.0
9761,55.0,0,288,3.0,48.0
9762,83.0,0,3648,0.0,34.0
9763,86.0,0,3648,0.0,34.0
9764,62.0,0,64,10.0,82.0
9765,50.0,0,64,12.0,82.0
9766,71.0,0,64,10.0,82.0
9767,43.0,0,64,12.0,82.0
9768,62.0,80,64,11.0,82.0
9769,59.0,0,64,11.0,82.0
9770,53.0,0,96,13.0,80.0
9771,50.0,0,64,12.0,85.0
9772,43.0,0,64,12.0,85.0
9773,62.0,80,64,10.0,85.0
9774,62.0,0,64,11.0,85.0
9775,71.0,0,64,10.0,85.0
9776,59.0,0,64,11.0,85.0
9777,53.0,0,48,3.0,48.0
9778,65.0,40,48,8.0,80.0
9779,77.0,0,48,1.0,48.0
9780,65.0,0,48,2.0,48.0
9781,50.0,0,48,13.0,80.0
9782,77.0,0,660,8.0,100.0
9783,71.0,0,64,10.0,87.0
9784,62.0,0,64,10.0,87.0
9785,50.0,0,64,12.0,87.0
9786,43.0,0,64,12.0,87.0
9787,59.0,0,64,11.0,87.0
9788,62.0,40,64,11.0,87.0
9789,62.0,20,48,8.0,80.0
9790,74.0,0,48,1.0,48.0
9791,50.0,0,48,3.0,48.0
9792,62.0,0,48,2.0,48.0
9793,47.0,0,48,13.0,80.0
9794,56.0,0,48,11.0,120.0
9795,74.0,0,48,10.0,120.0
9796,59.0,0,48,11.0,120.0
9797,65.0,0,48,10.0,120.0
9798,74.0,0,48,10.0,120.0
9799,59.0,60,48,11.0,120.0
9800,65.0,0,48,10.0,120.0
9801,56.0,0,48,11.0,120.0
9802,56.0,0,48,11.0,120.0
9803,65.0,0,48,10.0,120.0
9804,74.0,0,48,10.0,120.0
9805,59.0,60,48,11.0,120.0
9806,74.0,0,192,5.0,80.0
9807,50.0,0,192,6.0,80.0
9808,65.0,0,192,1.0,84.0
9809,59.0,60,192,8.0,120.0
9810,62.0,0,192,5.0,80.0
9811,41.0,0,192,3.0,84.0
9812,77.0,0,192,0.0,84.0
9813,65.0,0,192,2.0,84.0
9814,47.0,0,226,12.0,120.0
9815,35.0,0,226,13.0,120.0
9816,65.0,0,226,4.0,112.0
9817,53.0,0,226,4.0,112.0
9818,74.0,0,48,10.0,120.0
9819,65.0,0,48,10.0,120.0
9820,56.0,0,48,11.0,120.0
9821,59.0,60,48,11.0,120.0
9822,74.0,0,48,10.0,120.0
9823,65.0,0,48,10.0,120.0
9824,56.0,0,48,11.0,120.0
9825,59.0,0,48,11.0,120.0
9826,53.0,0,90,3.0,84.0
9827,77.0,0,90,1.0,84.0
9828,77.0,0,90,8.0,120.0
9829,89.0,60,90,0.0,84.0
9830,77.0,0,90,2.0,84.0
9831,74.0,0,48,10.0,120.0
9832,65.0,0,48,10.0,120.0
9833,56.0,60,48,11.0,120.0
9834,59.0,0,48,11.0,120.0
9835,50.0,0,144,6.0,80.0
9836,74.0,0,144,5.0,80.0
9837,62.0,0,144,5.0,80.0
9838,65.0,0,144,4.0,112.0
9839,53.0,0,144,4.0,112.0
9840,65.0,0,48,10.0,120.0
9841,56.0,0,48,11.0,120.0
9842,74.0,60,48,10.0,120.0
9843,59.0,0,48,11.0,120.0
9844,74.0,0,48,10.0,120.0
9845,53.0,0,48,3.0,84.0
9846,77.0,0,48,8.0,120.0
9847,89.0,0,48,0.0,84.0
9848,74.0,0,48,5.0,80.0
9849,53.0,0,48,4.0,112.0
9850,65.0,0,48,10.0,120.0
9851,65.0,0,48,4.0,112.0
9852,62.0,0,48,5.0,80.0
9853,59.0,0,48,11.0,120.0
9854,50.0,0,48,6.0,80.0
9855,56.0,0,48,11.0,120.0
9856,77.0,0,48,1.0,84.0
9857,77.0,60,48,2.0,84.0
9858,74.0,0,48,10.0,120.0
9859,65.0,0,48,10.0,120.0
9860,59.0,0,48,11.0,120.0
9861,56.0,60,48,11.0,120.0
9862,65.0,0,48,10.0,120.0
9863,56.0,60,48,11.0,120.0
9864,59.0,0,48,11.0,120.0
9865,74.0,0,48,10.0,120.0
9866,53.0,0,384,12.0,80.0
9867,41.0,0,384,13.0,80.0
9868,74.0,0,48,10.0,120.0
9869,65.0,60,48,10.0,120.0
9870,56.0,0,48,11.0,120.0
9871,59.0,0,48,11.0,120.0
9872,50.0,0,192,6.0,80.0
9873,62.0,0,192,5.0,80.0
9874,74.0,0,192,5.0,80.0
9875,74.0,0,48,10.0,120.0
9876,56.0,60,48,11.0,120.0
9877,65.0,0,48,10.0,120.0
9878,59.0,0,48,11.0,120.0
9879,56.0,0,48,11.0,120.0
9880,65.0,0,48,10.0,120.0
9881,59.0,0,48,11.0,120.0
9882,74.0,0,48,10.0,120.0
9883,41.0,60,90,13.0,120.0
9884,53.0,0,90,12.0,120.0
9885,74.0,60,48,10.0,120.0
9886,65.0,0,48,10.0,120.0
9887,59.0,0,48,11.0,120.0
9888,56.0,0,48,11.0,120.0
9889,65.0,0,48,10.0,120.0
9890,74.0,60,48,10.0,120.0
9891,59.0,0,48,11.0,120.0
9892,56.0,0,48,11.0,120.0
9893,65.0,0,48,10.0,120.0
9894,53.0,0,48,12.0,120.0
9895,59.0,0,48,11.0,120.0
9896,56.0,0,48,11.0,120.0
9897,41.0,60,48,13.0,120.0
9898,74.0,0,48,10.0,120.0
9899,80.0,0,600,8.0,120.0
9900,80.0,0,600,1.0,84.0
9901,80.0,0,600,2.0,84.0
9902,56.0,0,600,3.0,84.0
9903,92.0,0,600,0.0,84.0
9904,74.0,0,192,10.0,120.0
9905,65.0,0,192,10.0,120.0
9906,65.0,0,706,4.0,112.0
9907,53.0,0,706,4.0,112.0
9908,74.0,0,90,1.0,84.0
9909,50.0,0,90,3.0,84.0
9910,74.0,0,90,8.0,120.0
9911,86.0,0,90,0.0,84.0
9912,74.0,0,90,2.0,84.0
9913,74.0,0,144,5.0,80.0
9914,62.0,240,144,4.0,112.0
9915,62.0,0,144,5.0,80.0
9916,50.0,0,144,4.0,112.0
9917,50.0,0,144,6.0,80.0
9918,74.0,0,48,5.0,80.0
9919,62.0,0,48,4.0,112.0
9920,50.0,0,48,4.0,112.0
9921,86.0,0,48,0.0,84.0
9922,74.0,0,48,1.0,84.0
9923,74.0,0,48,8.0,120.0
9924,50.0,0,48,3.0,84.0
9925,74.0,180,48,2.0,84.0
9926,50.0,0,48,6.0,80.0
9927,62.0,0,48,5.0,80.0
9928,56.0,60,600,12.0,120.0
9929,68.0,0,600,11.0,120.0
9930,44.0,0,600,13.0,120.0
9931,62.0,0,192,5.0,80.0
9932,74.0,0,192,5.0,80.0
9933,50.0,0,192,6.0,80.0
9934,50.0,0,90,12.0,120.0
9935,62.0,240,90,11.0,120.0
9936,38.0,0,90,13.0,120.0
9937,62.0,180,48,11.0,120.0
9938,38.0,0,48,13.0,120.0
9939,50.0,0,48,12.0,120.0
9940,65.0,0,120,11.0,120.0
9941,53.0,60,120,12.0,120.0
9942,77.0,0,600,8.0,120.0
9943,41.0,0,120,13.0,120.0
9944,89.0,0,600,0.0,84.0
9945,77.0,0,600,1.0,84.0
9946,77.0,0,600,2.0,84.0
9947,53.0,0,600,3.0,84.0
9948,74.0,0,192,5.0,80.0
9949,62.0,0,192,5.0,80.0
9950,50.0,0,192,6.0,80.0
9951,53.0,0,706,4.0,112.0
9952,65.0,60,706,4.0,112.0
9953,71.0,0,90,11.0,120.0
9954,71.0,0,90,8.0,120.0
9955,47.0,0,90,13.0,120.0
9956,59.0,0,90,3.0,84.0
9957,71.0,240,90,1.0,84.0
9958,71.0,0,90,2.0,84.0
9959,95.0,0,90,0.0,84.0
9960,59.0,0,90,12.0,120.0
9961,62.0,0,144,5.0,80.0
9962,50.0,0,144,6.0,80.0
9963,74.0,0,144,5.0,80.0
9964,59.0,0,48,12.0,120.0
9965,47.0,0,48,13.0,120.0
9966,74.0,0,48,5.0,80.0
9967,62.0,0,48,5.0,80.0
9968,71.0,0,48,11.0,120.0
9969,59.0,0,48,3.0,84.0
9970,50.0,0,48,6.0,80.0
9971,71.0,0,48,2.0,84.0
9972,71.0,0,48,1.0,84.0
9973,71.0,0,48,8.0,120.0
9974,95.0,180,48,0.0,84.0
9975,86.0,0,120,1.0,84.0
9976,74.0,0,120,2.0,84.0
9977,74.0,0,120,8.0,120.0
9978,50.0,0,120,13.0,120.0
9979,62.0,0,120,12.0,120.0
9980,74.0,0,120,11.0,120.0
9981,98.0,0,120,0.0,84.0
9982,62.0,0,120,3.0,84.0
9983,74.0,0,192,5.0,80.0
9984,50.0,60,192,6.0,80.0
9985,62.0,0,192,5.0,80.0
9986,65.0,0,90,2.0,84.0
9987,65.0,240,90,11.0,120.0
9988,77.0,0,90,1.0,84.0
9989,41.0,0,90,13.0,120.0
9990,65.0,0,90,8.0,120.0
9991,89.0,0,90,0.0,84.0
9992,53.0,0,90,3.0,84.0
9993,53.0,0,90,12.0,120.0
9994,89.0,0,48,0.0,84.0
9995,65.0,0,48,2.0,84.0
9996,65.0,0,48,8.0,120.0
9997,53.0,0,48,3.0,84.0
9998,53.0,0,48,12.0,120.0
9999,77.0,180,48,1.0,84.0
10000,65.0,0,48,11.0,120.0
10001,41.0,0,48,13.0,120.0
10002,68.0,0,120,8.0,120.0
10003,68.0,0,120,11.0,120.0
10004,68.0,0,120,2.0,84.0
10005,56.0,0,120,3.0,84.0
10006,80.0,0,120,1.0,84.0
10007,56.0,0,120,12.0,120.0
10008,44.0,0,120,13.0,120.0
10009,92.0,60,120,0.0,84.0
10010,50.0,0,90,3.0,84.0
10011,62.0,0,90,8.0,120.0
10012,86.0,0,90,0.0,84.0
10013,62.0,240,90,2.0,84.0
10014,50.0,0,90,12.0,120.0
10015,62.0,0,90,11.0,120.0
10016,38.0,0,90,13.0,120.0
10017,74.0,0,90,1.0,84.0
10018,50.0,0,144,6.0,80.0
10019,74.0,0,144,5.0,80.0
10020,62.0,0,144,5.0,80.0
10021,50.0,0,48,3.0,84.0
10022,50.0,0,48,6.0,80.0
10023,62.0,0,48,2.0,84.0
10024,74.0,0,48,5.0,80.0
10025,62.0,0,48,5.0,80.0
10026,86.0,0,48,0.0,84.0
10027,62.0,0,48,8.0,120.0
10028,38.0,0,48,13.0,120.0
10029,50.0,0,48,12.0,120.0
10030,62.0,180,48,11.0,120.0
10031,74.0,0,48,1.0,84.0
10032,79.0,0,120,1.0,84.0
10033,67.0,0,120,8.0,120.0
10034,67.0,0,120,11.0,120.0
10035,55.0,0,120,3.0,84.0
10036,91.0,0,120,0.0,84.0
10037,67.0,60,120,2.0,84.0
10038,43.0,0,120,13.0,120.0
10039,55.0,0,120,12.0,120.0
10040,74.0,0,192,5.0,80.0
10041,62.0,0,192,5.0,80.0
10042,50.0,0,192,6.0,80.0
10043,55.0,0,90,2.0,84.0
10044,55.0,0,90,11.0,120.0
10045,43.0,0,90,3.0,84.0
10046,67.0,0,90,1.0,84.0
10047,79.0,0,90,0.0,84.0
10048,31.0,240,90,13.0,120.0
10049,43.0,0,90,12.0,120.0
10050,55.0,0,90,8.0,120.0
10051,43.0,0,48,12.0,120.0
10052,55.0,0,48,11.0,120.0
10053,67.0,0,48,1.0,84.0
10054,55.0,180,48,2.0,84.0
10055,31.0,0,48,13.0,120.0
10056,79.0,0,48,0.0,84.0
10057,43.0,0,48,3.0,84.0
10058,55.0,0,48,8.0,120.0
10059,72.0,0,120,1.0,32.0
10060,60.0,0,120,2.0,32.0
10061,63.0,120,0,2.0,32.0
10062,75.0,0,120,1.0,32.0
10063,79.0,0,60,1.0,32.0
10064,75.0,0,60,1.0,32.0
10065,67.0,0,60,2.0,32.0
10066,60.0,60,192,4.0,48.0
10067,48.0,0,192,4.0,48.0
10068,60.0,0,192,0.0,48.0
10069,72.0,0,192,0.0,48.0
10070,36.0,0,226,13.0,40.0
10071,60.0,0,226,11.0,40.0
10072,60.0,0,226,8.0,40.0
10073,48.0,0,226,12.0,40.0
10074,65.0,0,60,2.0,32.0
10075,74.0,0,60,1.0,32.0
10076,77.0,0,60,1.0,32.0
10077,62.0,120,60,2.0,32.0
10078,75.0,120,60,1.0,32.0
10079,63.0,0,60,2.0,32.0
10080,60.0,0,60,2.0,32.0
10081,72.0,0,60,1.0,32.0
10082,60.0,0,600,3.0,56.0
10083,63.0,120,72,3.0,56.0
10084,62.0,120,72,3.0,56.0
10085,60.0,120,72,3.0,56.0
10086,63.0,0,600,2.0,32.0
10087,75.0,0,0,1.0,32.0
10088,72.0,0,600,1.0,32.0
10089,60.0,120,600,2.0,32.0
10090,63.0,120,60,2.0,32.0
10091,67.0,0,60,2.0,32.0
10092,79.0,0,60,1.0,32.0
10093,74.0,120,60,1.0,32.0
10094,62.0,0,60,2.0,32.0
10095,65.0,0,60,2.0,32.0
10096,77.0,0,60,1.0,32.0
10097,60.0,0,60,2.0,32.0
10098,63.0,0,60,2.0,32.0
10099,75.0,120,60,1.0,32.0
10100,72.0,0,60,1.0,32.0
10101,60.0,120,600,3.0,56.0
10102,63.0,120,72,3.0,56.0
10103,62.0,120,72,3.0,56.0
10104,75.0,120,384,1.0,32.0
10105,60.0,0,384,2.0,32.0
10106,63.0,0,384,2.0,32.0
10107,72.0,0,384,1.0,32.0
10108,60.0,120,72,3.0,56.0
10109,56.0,0,120,3.0,32.0
10110,60.0,120,60,3.0,32.0
10111,55.0,0,60,3.0,32.0
10112,58.0,120,60,3.0,32.0
10113,53.0,120,60,3.0,32.0
10114,56.0,0,60,3.0,32.0
10115,65.0,120,600,2.0,39.0
10116,77.0,0,600,1.0,39.0
10117,80.0,120,72,1.0,39.0
10118,68.0,0,72,2.0,39.0
10119,79.0,0,72,1.0,39.0
10120,67.0,120,72,2.0,39.0
10121,65.0,0,72,2.0,39.0
10122,77.0,120,72,1.0,39.0
10123,53.0,120,600,3.0,32.0
10124,56.0,0,600,3.0,32.0
10125,56.0,0,60,3.0,32.0
10126,60.0,120,60,3.0,32.0
10127,58.0,0,60,3.0,32.0
10128,55.0,120,60,3.0,32.0
10129,53.0,0,60,3.0,32.0
10130,56.0,120,60,3.0,32.0
10131,53.0,0,114,3.0,32.0
10132,56.0,120,114,3.0,32.0
10133,65.0,120,600,2.0,39.0
10134,77.0,0,600,1.0,39.0
10135,71.0,0,114,2.0,32.0
10136,80.0,0,114,2.0,32.0
10137,53.0,0,114,3.0,32.0
10138,62.0,120,114,3.0,32.0
10139,79.0,0,114,2.0,32.0
10140,71.0,0,114,2.0,32.0
10141,55.0,120,114,3.0,32.0
10142,62.0,0,114,3.0,32.0
10143,77.0,120,114,2.0,32.0
10144,62.0,0,114,3.0,32.0
10145,56.0,0,114,3.0,32.0
10146,71.0,0,114,2.0,32.0
10147,72.0,0,240,2.0,32.0
10148,75.0,120,240,2.0,32.0
10149,57.0,0,240,3.0,32.0
10150,54.0,0,240,3.0,32.0
10151,72.0,480,240,2.0,32.0
10152,54.0,0,240,3.0,32.0
10153,57.0,0,240,3.0,32.0
10154,74.0,0,240,2.0,32.0
10155,55.0,0,240,3.0,34.0
10156,65.0,0,240,3.0,34.0
10157,68.0,0,240,2.0,24.0
10158,72.0,480,240,2.0,24.0
10159,55.0,480,240,3.0,31.0
10160,65.0,0,240,2.0,22.0
10161,62.0,0,240,3.0,31.0
10162,71.0,0,240,2.0,22.0
10163,48.0,0,120,3.0,30.0
10164,60.0,480,120,2.0,30.0
10165,87.0,0,240,0.0,30.0
10166,60.0,0,240,11.0,30.0
10167,59.0,0,120,3.0,33.0
10168,84.0,0,240,1.0,30.0
10169,75.0,0,240,1.0,30.0
10170,69.0,0,240,10.0,30.0
10171,75.0,0,240,8.0,30.0
10172,54.0,0,240,12.0,30.0
10173,42.0,0,240,13.0,30.0
10174,71.0,120,120,2.0,33.0
10175,72.0,0,120,2.0,36.0
10176,60.0,120,120,3.0,36.0
10177,71.0,120,120,2.0,39.0
10178,59.0,0,120,3.0,39.0
10179,72.0,0,120,2.0,43.0
10180,60.0,0,120,3.0,43.0
10181,60.0,0,240,11.0,43.0
10182,74.0,0,240,1.0,43.0
10183,84.0,0,240,1.0,43.0
10184,71.0,120,120,2.0,46.0
10185,86.0,0,240,0.0,43.0
10186,59.0,0,120,3.0,46.0
10187,74.0,0,240,8.0,43.0
10188,44.0,120,240,13.0,43.0
10189,66.0,0,240,10.0,43.0
10190,56.0,0,240,12.0,43.0
10191,72.0,120,120,2.0,49.0
10192,60.0,0,120,3.0,49.0
10193,62.0,120,120,3.0,52.0
10194,74.0,0,120,2.0,52.0
10195,75.0,0,120,2.0,55.0
10196,63.0,0,120,3.0,55.0
10197,62.0,0,120,3.0,58.0
10198,72.0,0,240,8.0,55.0
10199,74.0,120,120,2.0,58.0
10200,65.0,0,240,11.0,55.0
10201,79.0,0,240,1.0,30.0
10202,68.0,120,240,10.0,55.0
10203,75.0,0,240,1.0,30.0
10204,55.0,0,240,12.0,55.0
10205,84.0,0,240,0.0,55.0
10206,43.0,0,240,13.0,55.0
10207,75.0,0,120,2.0,61.0
10208,63.0,120,120,3.0,61.0
10209,65.0,120,120,3.0,64.0
10210,77.0,0,120,2.0,64.0
10211,79.0,0,120,2.0,68.0
10212,83.0,0,120,0.0,68.0
10213,67.0,0,120,3.0,68.0
10214,71.0,0,120,8.0,68.0
10215,55.0,0,240,13.0,68.0
10216,55.0,120,120,3.0,71.0
10217,67.0,120,240,12.0,68.0
10218,67.0,0,120,2.0,71.0
10219,65.0,0,240,10.0,68.0
10220,79.0,0,240,1.0,43.0
10221,74.0,0,240,1.0,43.0
10222,62.0,0,240,11.0,68.0
10223,68.0,0,120,2.0,74.0
10224,56.0,0,120,3.0,74.0
10225,55.0,120,120,3.0,77.0
10226,67.0,0,120,2.0,77.0
10227,67.0,120,60,10.0,125.0
10228,72.0,0,240,2.0,43.0
10229,72.0,0,240,1.0,43.0
10230,75.0,0,240,1.0,43.0
10231,65.0,120,60,10.0,125.0
10232,63.0,120,60,10.0,125.0
10233,48.0,120,528,3.0,100.0
10234,36.0,0,528,13.0,127.0
10235,48.0,0,528,12.0,127.0
10236,62.0,120,60,10.0,125.0
10237,79.0,120,816,8.0,74.0
10238,91.0,0,816,0.0,74.0
10239,39.0,0,48,13.0,127.0
10240,51.0,120,48,3.0,100.0
10241,51.0,0,48,12.0,127.0
10242,60.0,0,60,10.0,125.0
10243,38.0,0,48,13.0,127.0
10244,50.0,120,48,3.0,100.0
10245,50.0,0,48,12.0,127.0
10246,59.0,0,60,10.0,125.0
10247,36.0,0,48,13.0,127.0
10248,48.0,0,48,12.0,127.0
10249,48.0,0,48,3.0,100.0
10250,60.0,120,60,10.0,125.0
10251,55.0,0,96,3.0,100.0
10252,55.0,0,96,12.0,127.0
10253,43.0,0,96,13.0,127.0
10254,60.0,120,120,10.0,125.0
10255,59.0,120,60,10.0,125.0
10256,59.0,0,60,10.0,125.0
10257,53.0,120,96,3.0,100.0
10258,53.0,0,96,12.0,127.0
10259,41.0,0,96,13.0,127.0
10260,62.0,120,60,10.0,125.0
10261,59.0,120,60,10.0,125.0
10262,67.0,0,816,0.0,80.0
10263,50.0,0,96,3.0,100.0
10264,55.0,0,816,8.0,80.0
10265,50.0,0,96,12.0,127.0
10266,38.0,0,96,13.0,127.0
10267,62.0,120,60,10.0,125.0
10268,60.0,0,60,10.0,125.0
10269,59.0,120,60,10.0,125.0
10270,55.0,120,336,3.0,100.0
10271,55.0,0,336,12.0,127.0
10272,43.0,0,336,13.0,127.0
10273,62.0,120,120,10.0,125.0
10274,60.0,120,60,10.0,125.0
10275,67.0,0,432,0.0,80.0
10276,55.0,0,466,8.0,80.0
10277,60.0,0,60,10.0,125.0
10278,51.0,0,96,3.0,100.0
10279,39.0,0,96,13.0,127.0
10280,51.0,0,96,12.0,127.0
10281,63.0,120,60,10.0,125.0
10282,60.0,120,60,10.0,125.0
10283,48.0,0,96,12.0,127.0
10284,48.0,0,96,3.0,100.0
10285,36.0,0,96,13.0,127.0
10286,79.0,0,384,0.0,80.0
10287,91.0,120,384,0.0,80.0
10288,63.0,120,60,10.0,125.0
10289,79.0,0,450,8.0,80.0
10290,62.0,0,60,10.0,125.0
10291,60.0,120,60,10.0,125.0
10292,43.0,120,336,13.0,127.0
10293,55.0,0,336,3.0,100.0
10294,55.0,0,336,12.0,127.0
10295,63.0,120,120,10.0,125.0
10296,62.0,120,60,10.0,125.0
10297,67.0,0,432,0.0,80.0
10298,55.0,0,466,8.0,80.0
10299,62.0,0,60,10.0,125.0
10300,38.0,0,96,13.0,127.0
10301,50.0,0,96,12.0,127.0
10302,50.0,0,96,3.0,100.0
10303,65.0,120,60,10.0,125.0
10304,62.0,0,60,10.0,125.0
10305,47.0,0,96,3.0,100.0
10306,35.0,0,96,13.0,127.0
10307,47.0,120,96,12.0,127.0
10308,79.0,0,384,0.0,80.0
10309,91.0,120,384,0.0,80.0
10310,65.0,120,60,10.0,125.0
10311,79.0,0,450,8.0,80.0
10312,63.0,0,60,10.0,125.0
10313,62.0,120,60,10.0,125.0
10314,43.0,0,336,13.0,127.0
10315,55.0,0,336,12.0,127.0
10316,55.0,120,336,3.0,100.0
10317,65.0,120,120,10.0,125.0
10318,63.0,120,60,10.0,125.0
10319,91.0,0,432,0.0,80.0
10320,79.0,0,432,8.0,80.0
10321,79.0,0,432,0.0,80.0
10322,81.0,0,48,8.0,80.0
10323,63.0,0,60,10.0,125.0
10324,41.0,0,96,13.0,100.0
10325,53.0,0,96,12.0,100.0
10326,53.0,0,96,3.0,100.0
10327,83.0,120,48,8.0,80.0
10328,62.0,0,60,10.0,125.0
10329,51.0,0,96,3.0,100.0
10330,39.0,0,96,13.0,100.0
10331,51.0,0,96,12.0,100.0
10332,84.0,0,96,8.0,80.0
10333,62.0,120,120,10.0,125.0
10334,91.0,0,384,0.0,80.0
10335,79.0,120,384,0.0,80.0
10336,60.0,120,60,10.0,125.0
10337,60.0,0,60,10.0,125.0
10338,50.0,0,96,12.0,100.0
10339,38.0,0,96,13.0,100.0
10340,86.0,120,96,8.0,80.0
10341,50.0,0,96,3.0,100.0
10342,58.0,120,60,10.0,125.0
10343,48.0,0,96,12.0,100.0
10344,48.0,120,96,3.0,100.0
10345,87.0,0,96,8.0,80.0
10346,36.0,0,96,13.0,100.0
10347,58.0,0,120,10.0,125.0
10348,91.0,0,360,0.0,80.0
10349,79.0,0,360,0.0,80.0
10350,57.0,120,60,10.0,125.0
10351,57.0,0,60,10.0,125.0
10352,37.0,120,96,13.0,100.0
10353,49.0,0,96,12.0,100.0
10354,88.0,0,96,8.0,80.0
10355,49.0,0,96,3.0,100.0
10356,79.0,0,120,0.0,80.0
10357,67.0,120,60,10.0,125.0
10358,66.0,0,60,10.0,125.0
10359,50.0,0,96,3.0,100.0
10360,86.0,0,96,8.0,80.0
10361,38.0,120,96,13.0,100.0
10362,50.0,0,96,12.0,100.0
10363,74.0,0,120,0.0,80.0
10364,67.0,120,60,10.0,125.0
10365,66.0,120,60,10.0,125.0
10366,69.0,0,60,10.0,125.0
10367,74.0,0,96,8.0,80.0
10368,74.0,0,120,0.0,80.0
10369,60.0,120,60,10.0,125.0
10370,50.0,0,192,6.0,127.0
10371,62.0,120,60,11.0,125.0
10372,60.0,120,60,11.0,125.0
10373,62.0,0,624,4.0,120.0
10374,62.0,0,624,5.0,120.0
10375,74.0,0,624,5.0,120.0
10376,58.0,120,60,11.0,125.0
10377,38.0,0,690,13.0,100.0
10378,50.0,0,690,12.0,100.0
10379,50.0,0,690,3.0,100.0
10380,79.0,120,528,0.0,70.0
10381,67.0,0,528,8.0,100.0
10382,57.0,120,60,11.0,125.0
10383,50.0,0,576,6.0,120.0
10384,70.0,120,48,8.0,100.0
10385,82.0,0,48,0.0,70.0
10386,55.0,0,60,11.0,125.0
10387,81.0,0,48,0.0,70.0
10388,69.0,0,48,8.0,100.0
10389,54.0,0,60,11.0,125.0
10390,79.0,120,48,0.0,70.0
10391,67.0,0,48,8.0,100.0
10392,55.0,0,60,11.0,125.0
10393,50.0,0,192,6.0,127.0
10394,74.0,0,96,8.0,100.0
10395,86.0,0,96,0.0,70.0
10396,55.0,120,120,11.0,125.0
10397,54.0,120,60,11.0,125.0
10398,54.0,0,60,11.0,125.0
10399,72.0,0,96,8.0,100.0
10400,84.0,120,96,0.0,70.0
10401,50.0,0,864,4.0,120.0
10402,62.0,0,624,5.0,120.0
10403,57.0,120,60,11.0,125.0
10404,38.0,120,690,12.0,100.0
10405,26.0,0,690,13.0,100.0
10406,38.0,0,690,3.0,100.0
10407,54.0,0,60,11.0,125.0
10408,69.0,120,96,8.0,100.0
10409,50.0,0,576,6.0,120.0
10410,81.0,0,96,0.0,70.0
10411,57.0,120,60,11.0,125.0
10412,55.0,0,60,11.0,125.0
10413,54.0,120,60,11.0,125.0
10414,50.0,120,192,6.0,127.0
10415,86.0,0,336,0.0,70.0
10416,74.0,0,336,8.0,100.0
10417,38.0,0,360,3.0,100.0
10418,57.0,120,120,11.0,125.0
10419,38.0,0,360,12.0,100.0
10420,26.0,0,360,13.0,100.0
10421,55.0,120,60,11.0,125.0
10422,50.0,0,706,4.0,120.0
10423,55.0,0,60,11.0,125.0
10424,70.0,120,96,8.0,100.0
10425,82.0,0,96,0.0,70.0
10426,62.0,0,624,5.0,120.0
10427,58.0,120,60,11.0,125.0
10428,55.0,120,60,11.0,125.0
10429,79.0,0,96,0.0,70.0
10430,50.0,0,576,6.0,120.0
10431,67.0,0,96,8.0,100.0
10432,62.0,0,384,4.0,127.0
10433,58.0,120,60,11.0,125.0
10434,62.0,0,450,12.0,100.0
10435,50.0,0,450,13.0,100.0
10436,62.0,0,450,3.0,100.0
10437,57.0,0,60,11.0,125.0
10438,55.0,120,60,11.0,125.0
10439,50.0,0,192,6.0,127.0
10440,86.0,0,336,0.0,70.0
10441,74.0,0,336,8.0,100.0
10442,26.0,0,360,13.0,100.0
10443,38.0,0,360,3.0,100.0
10444,38.0,0,360,12.0,100.0
10445,58.0,120,120,11.0,125.0
10446,57.0,120,60,11.0,125.0
10447,50.0,0,466,4.0,120.0
10448,57.0,0,60,11.0,125.0
10449,81.0,0,96,0.0,70.0
10450,69.0,0,96,8.0,100.0
10451,62.0,120,624,5.0,120.0
10452,60.0,120,60,11.0,125.0
10453,57.0,0,60,11.0,125.0
10454,50.0,0,576,6.0,120.0
10455,78.0,120,96,0.0,70.0
10456,66.0,0,96,8.0,100.0
10457,62.0,0,384,4.0,127.0
10458,60.0,120,60,11.0,125.0
10459,62.0,0,450,3.0,100.0
10460,50.0,0,450,13.0,100.0
10461,62.0,120,450,12.0,100.0
10462,58.0,120,60,11.0,125.0
10463,57.0,120,60,11.0,125.0
10464,50.0,0,192,6.0,127.0
10465,74.0,0,336,8.0,100.0
10466,86.0,0,336,0.0,70.0
10467,26.0,0,360,13.0,100.0
10468,38.0,0,360,3.0,100.0
10469,60.0,120,120,11.0,125.0
10470,38.0,0,360,12.0,100.0
10471,58.0,120,60,11.0,125.0
10472,50.0,0,466,4.0,120.0
10473,62.0,0,466,5.0,120.0
10474,50.0,0,226,6.0,120.0
10475,58.0,0,60,11.0,125.0
10476,84.0,0,96,0.0,70.0
10477,72.0,0,96,8.0,100.0
10478,57.0,120,60,11.0,125.0
10479,70.0,0,96,8.0,100.0
10480,82.0,0,96,0.0,70.0
10481,57.0,120,120,11.0,125.0
10482,67.0,0,384,4.0,80.0
10483,55.0,120,60,11.0,125.0
10484,43.0,0,450,12.0,100.0
10485,43.0,0,450,3.0,100.0
10486,31.0,120,450,13.0,100.0
10487,55.0,0,60,11.0,125.0
10488,81.0,120,96,0.0,70.0
10489,69.0,0,96,8.0,100.0
10490,53.0,120,60,11.0,125.0
10491,67.0,0,192,4.0,80.0
10492,79.0,120,96,0.0,70.0
10493,67.0,0,96,8.0,100.0
10494,43.0,0,360,13.0,120.0
10495,53.0,0,120,11.0,125.0
10496,55.0,0,360,12.0,120.0
10497,55.0,0,360,3.0,120.0
10498,62.0,0,120,10.0,125.0
10499,51.0,120,60,11.0,125.0
10500,63.0,0,60,10.0,125.0
10501,67.0,0,192,4.0,80.0
10502,57.0,0,60,10.0,125.0
10503,51.0,0,60,11.0,125.0
10504,65.0,0,96,8.0,100.0
10505,77.0,0,96,0.0,70.0
10506,50.0,0,60,11.0,125.0
10507,59.0,120,60,10.0,125.0
10508,60.0,0,60,10.0,125.0
10509,48.0,120,60,11.0,125.0
10510,63.0,0,96,8.0,100.0
10511,75.0,0,96,0.0,70.0
10512,60.0,0,384,4.0,80.0
10513,62.0,0,60,11.0,125.0
10514,65.0,120,60,10.0,125.0
10515,60.0,120,450,3.0,100.0
10516,60.0,0,450,12.0,100.0
10517,48.0,0,450,13.0,100.0
10518,63.0,0,60,10.0,125.0
10519,60.0,0,60,11.0,125.0
10520,58.0,120,60,11.0,125.0
10521,62.0,0,60,10.0,125.0
10522,48.0,0,360,3.0,100.0
10523,62.0,0,120,10.0,125.0
10524,58.0,120,120,11.0,125.0
10525,48.0,0,360,12.0,100.0
10526,36.0,0,360,13.0,100.0
10527,60.0,0,60,10.0,125.0
10528,57.0,120,60,11.0,125.0
10529,87.0,0,432,0.0,70.0
10530,75.0,120,432,8.0,100.0
10531,60.0,0,432,4.0,80.0
10532,60.0,0,60,10.0,125.0
10533,57.0,0,60,11.0,125.0
10534,88.0,120,96,0.0,70.0
10535,76.0,0,96,8.0,100.0
10536,58.0,120,60,10.0,125.0
10537,55.0,0,60,11.0,125.0
10538,89.0,0,96,0.0,70.0
10539,77.0,0,96,8.0,100.0
10540,55.0,0,120,11.0,125.0
10541,58.0,120,120,10.0,125.0
10542,60.0,0,384,4.0,80.0
10543,53.0,0,384,4.0,80.0
10544,65.0,0,384,4.0,80.0
10545,57.0,120,60,10.0,125.0
10546,53.0,0,60,11.0,125.0
10547,41.0,0,450,12.0,100.0
10548,41.0,0,450,3.0,100.0
10549,29.0,0,450,13.0,100.0
10550,57.0,0,60,10.0,125.0
10551,53.0,0,60,11.0,125.0
10552,60.0,120,60,10.0,125.0
10553,57.0,0,60,11.0,125.0
10554,60.0,0,120,10.0,125.0
10555,41.0,0,360,13.0,100.0
10556,53.0,0,360,3.0,100.0
10557,91.0,0,360,0.0,70.0
10558,53.0,0,360,12.0,100.0
10559,57.0,120,120,11.0,125.0
10560,79.0,120,360,8.0,100.0
10561,58.0,0,60,11.0,125.0
10562,77.0,0,60,8.0,100.0
10563,89.0,120,60,0.0,70.0
10564,62.0,0,60,10.0,125.0
10565,60.0,0,432,4.0,80.0
10566,65.0,0,432,4.0,80.0
10567,53.0,0,432,4.0,80.0
10568,89.0,0,60,0.0,70.0
10569,62.0,0,60,10.0,125.0
10570,58.0,0,60,11.0,125.0
10571,77.0,0,60,8.0,100.0
10572,87.0,0,60,0.0,70.0
10573,75.0,0,60,8.0,100.0
10574,60.0,0,60,11.0,125.0
10575,63.0,120,60,10.0,125.0
10576,53.0,120,300,12.0,100.0
10577,41.0,0,300,13.0,100.0
10578,53.0,0,300,3.0,100.0
10579,75.0,0,60,8.0,100.0
10580,87.0,0,60,0.0,70.0
10581,60.0,0,120,11.0,125.0
10582,63.0,120,120,10.0,125.0
10583,60.0,0,384,4.0,80.0
10584,53.0,0,384,4.0,80.0
10585,65.0,0,384,4.0,80.0
10586,57.0,120,60,12.0,100.0
10587,45.0,0,60,13.0,100.0
10588,57.0,0,60,3.0,100.0
10589,72.0,0,60,10.0,97.0
10590,86.0,0,60,0.0,70.0
10591,53.0,0,60,11.0,97.0
10592,74.0,0,60,8.0,100.0
10593,75.0,0,60,8.0,100.0
10594,87.0,0,60,0.0,70.0
10595,55.0,0,60,12.0,100.0
10596,70.0,0,60,10.0,97.0
10597,55.0,0,60,3.0,100.0
10598,43.0,0,60,13.0,100.0
10599,69.0,120,60,10.0,97.0
10600,53.0,0,60,3.0,100.0
10601,77.0,0,60,8.0,100.0
10602,89.0,0,60,0.0,70.0
10603,53.0,0,60,12.0,100.0
10604,41.0,0,60,13.0,100.0
10605,60.0,0,192,4.0,80.0
10606,86.0,0,60,0.0,70.0
10607,89.0,0,60,0.0,70.0
10608,77.0,120,60,2.0,70.0
10609,46.0,0,226,13.0,100.0
10610,58.0,0,226,12.0,100.0
10611,58.0,120,226,3.0,100.0
10612,75.0,120,60,2.0,70.0
10613,87.0,0,60,0.0,70.0
10614,74.0,0,336,8.0,80.0
10615,65.0,120,624,4.0,80.0
10616,53.0,0,624,4.0,80.0
10617,62.0,0,384,4.0,80.0
10618,74.0,0,60,2.0,70.0
10619,86.0,120,60,0.0,70.0
10620,84.0,0,60,0.0,70.0
10621,70.0,0,540,10.0,127.0
10622,72.0,120,60,2.0,70.0
10623,65.0,0,816,11.0,80.0
10624,74.0,0,60,10.0,127.0
10625,77.0,0,60,8.0,60.0
10626,70.0,0,60,2.0,70.0
10627,82.0,120,60,0.0,70.0
10628,69.0,120,60,2.0,70.0
10629,75.0,0,60,8.0,60.0
10630,81.0,0,60,0.0,70.0
10631,72.0,0,60,10.0,127.0
10632,70.0,0,60,10.0,127.0
10633,74.0,120,60,8.0,60.0
10634,70.0,0,60,2.0,70.0
10635,82.0,0,60,0.0,70.0
10636,77.0,0,96,10.0,127.0
10637,82.0,0,120,0.0,60.0
10638,74.0,120,120,8.0,60.0
10639,70.0,0,120,2.0,60.0
10640,81.0,120,60,0.0,60.0
10641,72.0,0,60,8.0,60.0
10642,69.0,0,60,2.0,60.0
10643,72.0,0,60,8.0,60.0
10644,81.0,120,60,0.0,60.0
10645,69.0,0,60,2.0,60.0
10646,75.0,0,96,10.0,127.0
10647,53.0,0,624,4.0,80.0
10648,41.0,0,624,4.0,80.0
10649,75.0,0,60,8.0,60.0
10650,72.0,120,60,2.0,60.0
10651,84.0,0,60,0.0,60.0
10652,75.0,0,60,8.0,60.0
10653,81.0,0,60,0.0,60.0
10654,69.0,120,60,2.0,60.0
10655,53.0,0,816,11.0,80.0
10656,72.0,0,96,10.0,127.0
10657,72.0,0,60,2.0,60.0
10658,84.0,0,60,0.0,60.0
10659,75.0,120,60,8.0,60.0
10660,74.0,0,60,8.0,60.0
10661,82.0,0,60,0.0,60.0
10662,70.0,0,60,2.0,60.0
10663,72.0,0,60,8.0,60.0
10664,69.0,120,60,2.0,60.0
10665,81.0,0,60,0.0,60.0
10666,77.0,0,336,10.0,127.0
10667,75.0,120,120,8.0,98.0
10668,84.0,0,120,0.0,60.0
10669,72.0,0,120,2.0,60.0
10670,70.0,0,60,2.0,60.0
10671,74.0,120,60,8.0,98.0
10672,82.0,0,60,0.0,60.0
10673,41.0,0,466,4.0,80.0
10674,53.0,0,466,11.0,80.0
10675,53.0,120,466,4.0,80.0
10676,74.0,0,60,8.0,98.0
10677,82.0,0,60,0.0,60.0
10678,70.0,0,60,2.0,60.0
10679,74.0,120,96,10.0,127.0
10680,77.0,120,60,8.0,98.0
10681,74.0,0,60,2.0,60.0
10682,86.0,0,60,0.0,60.0
10683,82.0,0,60,0.0,60.0
10684,70.0,0,60,2.0,60.0
10685,74.0,0,60,8.0,98.0
10686,70.0,120,96,10.0,127.0
10687,65.0,0,384,11.0,80.0
10688,65.0,0,384,4.0,80.0
10689,53.0,0,384,4.0,80.0
10690,74.0,120,60,2.0,60.0
10691,77.0,0,60,8.0,98.0
10692,86.0,0,60,0.0,60.0
10693,72.0,0,60,2.0,60.0
10694,75.0,0,60,8.0,98.0
10695,84.0,120,60,0.0,60.0
10696,82.0,120,60,0.0,60.0
10697,74.0,0,60,8.0,98.0
10698,70.0,0,60,2.0,60.0
10699,77.0,0,336,10.0,127.0
10700,74.0,120,120,2.0,60.0
10701,86.0,0,120,0.0,60.0
10702,82.0,0,120,8.0,108.0
10703,84.0,0,60,0.0,60.0
10704,72.0,120,60,2.0,60.0
10705,81.0,0,60,8.0,108.0
10706,53.0,0,466,11.0,80.0
10707,41.0,0,466,4.0,80.0
10708,53.0,0,466,4.0,80.0
10709,81.0,120,60,8.0,108.0
10710,84.0,0,60,0.0,60.0
10711,72.0,0,60,2.0,60.0
10712,72.0,0,96,10.0,127.0
10713,87.0,0,60,0.0,60.0
10714,84.0,120,60,8.0,108.0
10715,75.0,0,60,2.0,60.0
10716,65.0,0,288,11.0,104.0
10717,72.0,120,60,2.0,60.0
10718,81.0,0,60,8.0,108.0
10719,84.0,0,60,0.0,60.0
10720,69.0,0,96,10.0,127.0
10721,53.0,0,384,4.0,80.0
10722,65.0,0,384,4.0,80.0
10723,69.0,0,60,11.0,104.0
10724,81.0,0,60,8.0,108.0
10725,69.0,0,60,2.0,60.0
10726,89.0,120,60,0.0,60.0
10727,70.0,0,60,2.0,60.0
10728,89.0,0,60,0.0,60.0
10729,82.0,0,60,8.0,108.0
10730,67.0,0,60,11.0,104.0
10731,65.0,0,60,11.0,104.0
10732,89.0,120,60,0.0,60.0
10733,84.0,0,60,8.0,108.0
10734,72.0,0,60,2.0,60.0
10735,70.0,120,60,11.0,104.0
10736,41.0,0,60,13.0,125.0
10737,62.0,0,60,11.0,125.0
10738,53.0,120,60,12.0,125.0
10739,39.0,0,60,13.0,125.0
10740,51.0,120,60,12.0,125.0
10741,60.0,0,60,11.0,125.0
10742,65.0,0,120,4.0,127.0
10743,62.0,0,384,5.0,120.0
10744,74.0,0,384,5.0,120.0
10745,50.0,0,384,6.0,120.0
10746,50.0,0,60,12.0,125.0
10747,38.0,0,60,13.0,125.0
10748,58.0,120,60,11.0,125.0
10749,53.0,120,690,4.0,80.0
10750,70.0,0,540,2.0,43.0
10751,48.0,0,60,12.0,125.0
10752,36.0,0,60,13.0,125.0
10753,82.0,0,540,0.0,62.0
10754,63.0,120,60,11.0,125.0
10755,58.0,0,540,3.0,43.0
10756,70.0,0,540,8.0,127.0
10757,77.0,0,816,1.0,80.0
10758,77.0,0,816,10.0,112.0
10759,65.0,0,816,1.0,80.0
10760,65.0,0,120,4.0,127.0
10761,62.0,0,60,3.0,43.0
10762,34.0,0,60,13.0,125.0
10763,74.0,0,60,8.0,127.0
10764,86.0,0,60,0.0,62.0
10765,46.0,0,60,12.0,125.0
10766,74.0,120,60,2.0,43.0
10767,62.0,0,60,11.0,125.0
10768,33.0,0,60,13.0,125.0
10769,51.0,0,60,11.0,125.0
10770,45.0,0,60,12.0,125.0
10771,60.0,0,60,3.0,43.0
10772,72.0,0,60,8.0,127.0
10773,84.0,0,60,0.0,62.0
10774,72.0,0,60,2.0,43.0
10775,74.0,0,120,5.0,120.0
10776,62.0,120,120,5.0,120.0
10777,70.0,0,60,2.0,43.0
10778,70.0,120,60,8.0,127.0
10779,34.0,0,60,13.0,125.0
10780,50.0,0,60,11.0,125.0
10781,58.0,0,60,3.0,43.0
10782,46.0,0,60,12.0,125.0
10783,82.0,0,60,0.0,62.0
10784,50.0,0,192,6.0,120.0
10785,77.0,0,96,2.0,43.0
10786,89.0,0,96,0.0,62.0
10787,65.0,120,96,3.0,43.0
10788,77.0,0,96,8.0,127.0
10789,34.0,0,120,13.0,125.0
10790,50.0,0,120,11.0,125.0
10791,46.0,0,120,12.0,125.0
10792,33.0,120,60,13.0,125.0
10793,45.0,0,60,12.0,125.0
10794,48.0,0,60,11.0,125.0
10795,45.0,0,60,12.0,125.0
10796,57.0,0,60,5.0,120.0
10797,69.0,0,60,5.0,120.0
10798,33.0,0,60,13.0,125.0
10799,48.0,0,60,11.0,125.0
10800,75.0,0,96,8.0,127.0
10801,87.0,0,96,0.0,62.0
10802,45.0,0,96,6.0,120.0
10803,63.0,120,96,3.0,43.0
10804,75.0,0,96,2.0,43.0
10805,65.0,0,120,4.0,127.0
10806,69.0,0,60,5.0,120.0
10807,57.0,0,60,5.0,120.0
10808,51.0,0,60,11.0,125.0
10809,36.0,0,60,13.0,125.0
10810,48.0,120,60,12.0,125.0
10811,45.0,0,96,6.0,120.0
10812,33.0,0,60,13.0,125.0
10813,45.0,120,60,12.0,125.0
10814,48.0,0,60,11.0,125.0
10815,72.0,0,96,2.0,43.0
10816,53.0,0,816,4.0,112.0
10817,60.0,0,96,3.0,43.0
10818,72.0,0,96,8.0,127.0
10819,84.0,0,96,0.0,62.0
10820,57.0,0,120,5.0,120.0
10821,69.0,0,120,5.0,120.0
10822,65.0,0,120,4.0,127.0
10823,48.0,0,60,12.0,125.0
10824,36.0,120,60,13.0,125.0
10825,51.0,0,60,11.0,125.0
10826,45.0,0,192,6.0,120.0
10827,50.0,0,60,11.0,125.0
10828,46.0,0,60,12.0,125.0
10829,34.0,0,60,13.0,125.0
10830,48.0,0,60,11.0,125.0
10831,33.0,0,60,13.0,125.0
10832,45.0,120,60,12.0,125.0
10833,77.0,0,336,2.0,43.0
10834,65.0,120,336,3.0,43.0
10835,77.0,0,336,8.0,127.0
10836,89.0,0,336,0.0,62.0
10837,48.0,0,120,12.0,125.0
10838,36.0,120,120,13.0,125.0
10839,51.0,0,120,11.0,125.0
10840,50.0,0,60,11.0,125.0
10841,34.0,0,60,13.0,125.0
10842,46.0,120,60,12.0,125.0
10843,65.0,0,1392,10.0,127.0
10844,65.0,0,1392,1.0,127.0
10845,53.0,0,466,4.0,112.0
10846,34.0,0,60,13.0,125.0
10847,50.0,0,60,11.0,125.0
10848,46.0,0,60,12.0,125.0
10849,62.0,0,60,5.0,120.0
10850,74.0,0,60,5.0,120.0
10851,86.0,0,96,0.0,62.0
10852,74.0,0,96,2.0,43.0
10853,50.0,0,96,6.0,120.0
10854,74.0,120,96,8.0,127.0
10855,62.0,0,96,3.0,43.0
10856,65.0,0,120,4.0,127.0
10857,50.0,0,60,12.0,125.0
10858,74.0,0,60,5.0,120.0
10859,62.0,120,60,5.0,120.0
10860,38.0,0,60,13.0,125.0
10861,53.0,0,60,11.0,125.0
10862,50.0,0,96,6.0,120.0
10863,34.0,0,60,13.0,125.0
10864,46.0,0,60,12.0,125.0
10865,65.0,120,60,11.0,125.0
10866,82.0,0,96,0.0,62.0
10867,70.0,0,96,8.0,127.0
10868,58.0,0,96,3.0,43.0
10869,70.0,0,96,2.0,43.0
10870,62.0,0,120,5.0,120.0
10871,74.0,0,120,5.0,120.0
10872,65.0,0,120,4.0,127.0
10873,77.0,0,384,10.0,127.0
10874,77.0,0,384,1.0,127.0
10875,53.0,0,60,11.0,125.0
10876,50.0,0,60,12.0,125.0
10877,38.0,120,60,13.0,125.0
10878,50.0,0,192,6.0,120.0
10879,51.0,0,60,11.0,125.0
10880,48.0,120,60,12.0,125.0
10881,36.0,0,60,13.0,125.0
10882,50.0,120,60,11.0,125.0
10883,34.0,0,60,13.0,125.0
10884,46.0,0,60,12.0,125.0
10885,77.0,0,336,2.0,43.0
10886,65.0,0,336,3.0,43.0
10887,77.0,0,336,8.0,127.0
10888,89.0,0,336,0.0,62.0
10889,38.0,120,120,13.0,125.0
10890,53.0,0,120,11.0,125.0
10891,50.0,0,120,12.0,125.0
10892,51.0,0,60,11.0,125.0
10893,36.0,120,60,13.0,125.0
10894,48.0,0,60,12.0,125.0
10895,65.0,0,432,10.0,127.0
10896,65.0,0,432,1.0,127.0
10897,53.0,0,466,4.0,112.0
10898,57.0,0,60,5.0,120.0
10899,69.0,0,60,5.0,120.0
10900,48.0,0,60,12.0,125.0
10901,36.0,0,60,13.0,125.0
10902,51.0,0,60,11.0,125.0
10903,45.0,0,96,6.0,120.0
10904,84.0,0,96,0.0,62.0
10905,72.0,0,96,2.0,43.0
10906,72.0,0,96,8.0,127.0
10907,60.0,0,96,3.0,43.0
10908,65.0,0,120,4.0,112.0
10909,39.0,120,60,13.0,125.0
10910,69.0,0,60,5.0,120.0
10911,57.0,0,60,5.0,120.0
10912,60.0,0,60,11.0,125.0
10913,51.0,0,60,12.0,125.0
10914,45.0,0,96,6.0,120.0
10915,51.0,0,60,12.0,125.0
10916,39.0,0,60,13.0,125.0
10917,60.0,0,60,11.0,125.0
10918,69.0,0,96,2.0,43.0
10919,69.0,120,96,8.0,127.0
10920,81.0,0,96,0.0,62.0
10921,57.0,0,96,3.0,43.0
10922,65.0,0,120,4.0,127.0
10923,69.0,0,120,5.0,120.0
10924,57.0,0,120,5.0,120.0
10925,77.0,0,384,1.0,127.0
10926,77.0,0,384,10.0,127.0
10927,51.0,120,60,12.0,125.0
10928,48.0,0,60,11.0,125.0
10929,39.0,0,60,13.0,125.0
10930,45.0,0,192,6.0,120.0
10931,50.0,120,60,11.0,125.0
10932,50.0,0,60,12.0,125.0
10933,38.0,0,60,13.0,125.0
10934,77.0,0,96,2.0,43.0
10935,36.0,120,60,13.0,125.0
10936,48.0,0,60,12.0,125.0
10937,51.0,0,60,11.0,125.0
10938,65.0,0,192,10.0,127.0
10939,65.0,0,64,10.0,127.0
10940,48.0,120,120,12.0,125.0
10941,36.0,0,120,13.0,125.0
10942,51.0,0,120,11.0,125.0
10943,77.0,0,360,8.0,127.0
10944,74.0,0,64,10.0,127.0
10945,62.0,80,64,10.0,127.0
10946,50.0,0,60,11.0,125.0
10947,34.0,0,60,13.0,125.0
10948,46.0,40,60,12.0,125.0
10949,50.0,0,192,4.0,80.0
10950,74.0,40,64,10.0,127.0
10951,62.0,0,64,10.0,127.0
10952,65.0,0,466,3.0,43.0
10953,53.0,0,466,4.0,112.0
10954,89.0,0,466,0.0,62.0
10955,34.0,0,60,13.0,125.0
10956,46.0,0,60,12.0,125.0
10957,50.0,0,60,11.0,125.0
10958,74.0,0,60,5.0,120.0
10959,62.0,0,60,5.0,120.0
10960,62.0,0,64,10.0,127.0
10961,74.0,0,64,10.0,127.0
10962,50.0,0,96,6.0,120.0
10963,86.0,0,96,0.0,89.0
10964,62.0,0,96,3.0,62.0
10965,74.0,80,96,8.0,127.0
10966,62.0,80,64,10.0,127.0
10967,74.0,0,64,10.0,127.0
10968,74.0,0,60,5.0,120.0
10969,53.0,0,60,11.0,125.0
10970,50.0,40,60,12.0,125.0
10971,62.0,0,60,5.0,120.0
10972,38.0,0,60,13.0,125.0
10973,50.0,0,96,6.0,120.0
10974,62.0,40,64,10.0,127.0
10975,74.0,0,64,10.0,127.0
10976,38.0,0,60,13.0,125.0
10977,50.0,0,60,12.0,125.0
10978,53.0,0,60,11.0,125.0
10979,62.0,0,64,10.0,127.0
10980,74.0,0,64,10.0,127.0
10981,82.0,80,96,0.0,89.0
10982,65.0,0,576,2.0,96.0
10983,58.0,0,96,3.0,62.0
10984,77.0,0,816,1.0,127.0
10985,70.0,0,96,8.0,127.0
10986,74.0,0,576,1.0,120.0
10987,62.0,0,576,2.0,96.0
10988,74.0,0,120,5.0,120.0
10989,62.0,0,120,5.0,120.0
10990,65.0,0,384,4.0,112.0
10991,62.0,80,64,10.0,127.0
10992,74.0,0,64,10.0,127.0
10993,62.0,0,384,4.0,112.0
10994,50.0,0,384,4.0,112.0
10995,53.0,0,384,4.0,112.0
10996,50.0,0,60,12.0,125.0
10997,38.0,0,60,13.0,125.0
10998,50.0,40,60,11.0,125.0
10999,50.0,0,192,6.0,120.0
11000,74.0,40,64,10.0,127.0
11001,62.0,0,64,10.0,127.0
11002,48.0,0,60,12.0,125.0
11003,36.0,0,60,13.0,125.0
11004,62.0,0,60,11.0,125.0
11005,62.0,0,64,10.0,127.0
11006,74.0,0,64,10.0,127.0
11007,62.0,80,64,10.0,127.0
11008,74.0,0,64,10.0,127.0
11009,46.0,0,60,12.0,125.0
11010,62.0,0,60,11.0,125.0
11011,34.0,40,60,13.0,125.0
11012,74.0,0,64,10.0,127.0
11013,62.0,40,64,10.0,127.0
11014,74.0,80,64,10.0,127.0
11015,62.0,0,64,10.0,127.0
11016,79.0,0,360,8.0,127.0
11017,34.0,0,120,13.0,125.0
11018,91.0,0,360,0.0,89.0
11019,67.0,0,360,3.0,62.0
11020,46.0,0,120,12.0,125.0
11021,55.0,0,120,11.0,125.0
11022,74.0,0,64,10.0,127.0
11023,62.0,80,64,10.0,127.0
11024,33.0,0,60,13.0,125.0
11025,45.0,0,60,12.0,125.0
11026,53.0,40,60,11.0,125.0
11027,74.0,40,64,10.0,127.0
11028,62.0,0,64,10.0,127.0
11029,50.0,0,466,4.0,112.0
11030,62.0,0,466,4.0,112.0
11031,45.0,0,60,12.0,125.0
11032,74.0,0,60,5.0,120.0
11033,62.0,0,60,5.0,120.0
11034,33.0,0,60,13.0,125.0
11035,53.0,0,60,11.0,125.0
11036,74.0,0,64,10.0,127.0
11037,62.0,0,64,10.0,127.0
11038,62.0,0,96,3.0,62.0
11039,74.0,0,96,8.0,127.0
11040,50.0,80,96,6.0,120.0
11041,86.0,0,96,0.0,89.0
11042,62.0,80,64,10.0,127.0
11043,74.0,0,64,10.0,127.0
11044,46.0,0,60,12.0,125.0
11045,55.0,0,60,11.0,125.0
11046,62.0,0,60,5.0,120.0
11047,34.0,0,60,13.0,125.0
11048,74.0,0,60,5.0,120.0
11049,50.0,40,96,6.0,120.0
11050,74.0,40,64,10.0,127.0
11051,62.0,0,64,10.0,127.0
11052,45.0,0,60,12.0,125.0
11053,55.0,0,60,11.0,125.0
11054,33.0,0,60,13.0,125.0
11055,74.0,0,64,10.0,127.0
11056,62.0,0,64,10.0,127.0
11057,67.0,80,816,2.0,96.0
11058,62.0,0,816,2.0,96.0
11059,62.0,0,96,8.0,127.0
11060,50.0,0,96,3.0,62.0
11061,74.0,80,96,0.0,89.0
11062,74.0,0,816,1.0,120.0
11063,79.0,0,816,1.0,120.0
11064,74.0,0,120,5.0,120.0
11065,62.0,0,120,5.0,120.0
11066,62.0,0,384,4.0,112.0
11067,50.0,0,384,4.0,112.0
11068,74.0,0,64,10.0,127.0
11069,62.0,80,64,10.0,127.0
11070,67.0,0,384,4.0,112.0
11071,50.0,0,60,12.0,125.0
11072,53.0,0,60,11.0,125.0
11073,38.0,40,60,13.0,125.0
11074,50.0,0,192,6.0,120.0
11075,74.0,0,64,10.0,127.0
11076,62.0,40,64,10.0,127.0
11077,50.0,0,60,11.0,125.0
11078,46.0,0,60,12.0,125.0
11079,34.0,0,60,13.0,125.0
11080,62.0,0,64,10.0,127.0
11081,74.0,0,64,10.0,127.0
11082,62.0,0,64,10.0,127.0
11083,74.0,80,64,10.0,127.0
11084,62.0,0,60,11.0,125.0
11085,45.0,40,60,12.0,125.0
11086,33.0,0,60,13.0,125.0
11087,62.0,0,64,10.0,127.0
11088,74.0,40,64,10.0,127.0
11089,74.0,80,64,10.0,127.0
11090,62.0,0,64,10.0,127.0
11091,67.0,0,360,3.0,62.0
11092,55.0,0,120,11.0,125.0
11093,91.0,80,360,0.0,89.0
11094,34.0,0,120,13.0,125.0
11095,46.0,0,120,12.0,125.0
11096,79.0,0,360,8.0,127.0
11097,74.0,80,64,10.0,127.0
11098,62.0,0,64,10.0,127.0
11099,45.0,40,60,12.0,125.0
11100,53.0,0,60,11.0,125.0
11101,33.0,0,60,13.0,125.0
11102,74.0,0,64,10.0,127.0
11103,62.0,40,64,10.0,127.0
11104,62.0,0,466,4.0,112.0
11105,50.0,0,466,4.0,112.0
11106,33.0,0,60,13.0,125.0
11107,45.0,0,60,12.0,125.0
11108,74.0,0,60,5.0,120.0
11109,62.0,80,60,5.0,120.0
11110,53.0,0,60,11.0,125.0
11111,62.0,0,64,10.0,127.0
11112,74.0,0,64,10.0,127.0
11113,86.0,0,96,0.0,89.0
11114,74.0,0,96,8.0,127.0
11115,62.0,0,96,3.0,62.0
11116,50.0,0,96,6.0,120.0
11117,62.0,0,64,10.0,127.0
11118,74.0,80,64,10.0,127.0
11119,46.0,0,60,12.0,125.0
11120,34.0,0,60,13.0,125.0
11121,55.0,0,60,11.0,125.0
11122,74.0,0,60,5.0,120.0
11123,62.0,40,60,5.0,120.0
11124,50.0,0,96,6.0,120.0
11125,74.0,0,64,10.0,127.0
11126,62.0,40,64,10.0,127.0
11127,33.0,0,60,13.0,125.0
11128,45.0,0,60,12.0,125.0
11129,55.0,0,60,11.0,125.0
11130,62.0,0,64,10.0,127.0
11131,74.0,0,64,10.0,127.0
11132,67.0,0,816,2.0,96.0
11133,50.0,0,96,3.0,62.0
11134,79.0,0,816,1.0,120.0
11135,62.0,0,816,2.0,96.0
11136,74.0,0,816,1.0,120.0
11137,62.0,0,96,8.0,127.0
11138,74.0,0,96,0.0,89.0
11139,62.0,0,120,5.0,120.0
11140,74.0,80,120,5.0,120.0
11141,67.0,0,384,4.0,112.0
11142,50.0,0,384,4.0,112.0
11143,74.0,80,64,10.0,127.0
11144,62.0,0,64,10.0,127.0
11145,62.0,0,384,4.0,112.0
11146,50.0,0,60,12.0,125.0
11147,38.0,0,60,13.0,125.0
11148,53.0,40,60,11.0,125.0
11149,50.0,0,192,6.0,120.0
11150,74.0,0,64,10.0,127.0
11151,62.0,40,64,10.0,127.0
11152,34.0,0,60,13.0,125.0
11153,46.0,0,60,12.0,125.0
11154,50.0,0,60,11.0,125.0
11155,74.0,0,64,10.0,127.0
11156,62.0,0,64,10.0,127.0
11157,74.0,80,64,10.0,127.0
11158,62.0,0,64,10.0,127.0
11159,33.0,0,60,13.0,125.0
11160,62.0,40,60,11.0,125.0
11161,45.0,0,60,12.0,125.0
11162,62.0,0,192,2.0,96.0
11163,74.0,0,192,1.0,120.0
11164,62.0,40,64,10.0,127.0
11165,74.0,0,64,10.0,127.0
11166,62.0,0,64,10.0,127.0
11167,74.0,0,64,10.0,127.0
11168,33.0,80,120,13.0,125.0
11169,62.0,0,120,11.0,125.0
11170,65.0,0,360,3.0,62.0
11171,89.0,80,360,0.0,89.0
11172,77.0,0,360,8.0,127.0
11173,45.0,0,120,12.0,125.0
11174,74.0,80,64,10.0,127.0
11175,62.0,0,64,10.0,127.0
11176,44.0,40,60,12.0,125.0
11177,59.0,0,60,11.0,125.0
11178,32.0,0,60,13.0,125.0
11179,74.0,0,64,10.0,127.0
11180,62.0,40,64,10.0,127.0
11181,62.0,0,466,4.0,112.0
11182,50.0,0,466,4.0,112.0
11183,59.0,0,60,11.0,125.0
11184,44.0,0,60,12.0,125.0
11185,32.0,0,60,13.0,125.0
11186,74.0,0,60,5.0,120.0
11187,62.0,80,60,5.0,120.0
11188,62.0,0,64,10.0,127.0
11189,74.0,0,64,10.0,127.0
11190,71.0,0,96,8.0,127.0
11191,50.0,0,96,6.0,120.0
11192,83.0,0,96,0.0,89.0
11193,59.0,0,96,3.0,62.0
11194,62.0,80,64,10.0,127.0
11195,74.0,0,64,10.0,127.0
11196,60.0,0,60,11.0,125.0
11197,33.0,0,60,13.0,125.0
11198,74.0,40,60,5.0,120.0
11199,62.0,0,60,5.0,120.0
11200,45.0,0,60,12.0,125.0
11201,50.0,0,96,6.0,120.0
11202,74.0,0,64,10.0,127.0
11203,62.0,40,64,10.0,127.0
11204,44.0,80,60,12.0,125.0
11205,32.0,0,60,13.0,125.0
11206,59.0,0,60,11.0,125.0
11207,62.0,0,64,10.0,127.0
11208,74.0,0,64,10.0,127.0
11209,77.0,0,816,1.0,120.0
11210,71.0,0,576,1.0,120.0
11211,59.0,0,576,2.0,96.0
11212,65.0,0,816,2.0,96.0
11213,74.0,0,96,0.0,89.0
11214,50.0,0,96,3.0,62.0
11215,62.0,0,96,8.0,127.0
11216,62.0,0,120,5.0,120.0
11217,74.0,0,120,5.0,120.0
11218,74.0,80,64,10.0,127.0
11219,50.0,0,384,4.0,112.0
11220,62.0,0,384,4.0,112.0
11221,62.0,0,64,10.0,127.0
11222,47.0,0,60,12.0,125.0
11223,62.0,40,60,11.0,125.0
11224,35.0,0,60,13.0,125.0
11225,50.0,0,192,6.0,120.0
11226,62.0,0,64,10.0,127.0
11227,74.0,40,64,10.0,127.0
11228,60.0,0,60,11.0,125.0
11229,45.0,0,60,12.0,125.0
11230,33.0,0,60,13.0,125.0
11231,62.0,0,64,10.0,127.0
11232,74.0,0,64,10.0,127.0
11233,62.0,0,64,10.0,127.0
11234,74.0,80,64,10.0,127.0
11235,44.0,0,60,12.0,125.0
11236,59.0,40,60,11.0,125.0
11237,32.0,0,60,13.0,125.0
11238,74.0,40,64,10.0,127.0
11239,62.0,0,64,10.0,127.0
11240,62.0,0,64,10.0,127.0
11241,74.0,0,64,10.0,127.0
11242,77.0,0,360,8.0,127.0
11243,89.0,80,360,0.0,89.0
11244,33.0,0,120,13.0,125.0
11245,62.0,80,120,11.0,125.0
11246,45.0,0,120,12.0,125.0
11247,65.0,0,360,3.0,62.0
11248,62.0,80,64,10.0,127.0
11249,74.0,0,64,10.0,127.0
11250,44.0,0,60,12.0,125.0
11251,32.0,40,60,13.0,125.0
11252,59.0,0,60,11.0,125.0
11253,74.0,0,64,10.0,127.0
11254,62.0,40,64,10.0,127.0
11255,50.0,0,466,4.0,112.0
11256,59.0,0,466,2.0,96.0
11257,77.0,0,466,1.0,120.0
11258,62.0,0,466,4.0,112.0
11259,71.0,0,466,1.0,120.0
11260,65.0,0,466,2.0,96.0
11261,32.0,0,60,13.0,125.0
11262,44.0,0,60,12.0,125.0
11263,74.0,0,60,5.0,120.0
11264,62.0,80,60,5.0,120.0
11265,59.0,0,60,11.0,125.0
11266,62.0,0,64,10.0,127.0
11267,74.0,0,64,10.0,127.0
11268,50.0,0,96,6.0,120.0
11269,83.0,0,96,0.0,89.0
11270,71.0,0,96,8.0,127.0
11271,59.0,0,96,3.0,62.0
11272,74.0,80,64,10.0,127.0
11273,62.0,0,64,10.0,127.0
11274,62.0,0,60,5.0,120.0
11275,33.0,0,60,13.0,125.0
11276,45.0,40,60,12.0,125.0
11277,74.0,0,60,5.0,120.0
11278,60.0,0,60,11.0,125.0
11279,62.0,0,210,4.0,112.0
11280,50.0,0,210,4.0,112.0
11281,50.0,0,96,6.0,120.0
11282,74.0,0,64,10.0,127.0
11283,62.0,40,64,10.0,127.0
11284,32.0,0,60,13.0,125.0
11285,44.0,0,60,12.0,125.0
11286,59.0,0,60,11.0,125.0
11287,74.0,0,64,10.0,127.0
11288,62.0,0,64,10.0,127.0
11289,50.0,80,96,3.0,62.0
11290,74.0,0,96,0.0,89.0
11291,62.0,0,96,8.0,127.0
11292,74.0,0,120,5.0,120.0
11293,62.0,0,120,5.0,120.0
11294,74.0,80,64,10.0,127.0
11295,62.0,0,64,10.0,127.0
11296,47.0,40,60,12.0,125.0
11297,62.0,0,60,11.0,125.0
11298,35.0,0,60,13.0,125.0
11299,50.0,0,192,6.0,120.0
11300,71.0,0,450,1.0,120.0
11301,77.0,0,450,1.0,120.0
11302,59.0,0,450,2.0,96.0
11303,65.0,0,450,2.0,96.0
11304,74.0,40,64,10.0,127.0
11305,62.0,0,64,10.0,127.0
11306,45.0,0,60,12.0,125.0
11307,33.0,0,60,13.0,125.0
11308,61.0,0,60,11.0,125.0
11309,73.0,0,64,10.0,127.0
11310,76.0,80,64,10.0,127.0
11311,64.0,40,60,11.0,125.0
11312,32.0,0,60,13.0,125.0
11313,44.0,0,60,12.0,125.0
11314,57.0,0,192,4.0,112.0
11315,76.0,40,64,10.0,127.0
11316,61.0,0,226,2.0,96.0
11317,73.0,80,226,1.0,120.0
11318,69.0,80,64,10.0,127.0
11319,57.0,0,64,10.0,127.0
11320,43.0,0,120,12.0,125.0
11321,64.0,0,360,3.0,62.0
11322,31.0,0,120,13.0,125.0
11323,64.0,0,120,11.0,125.0
11324,88.0,0,360,8.0,127.0
11325,88.0,0,360,0.0,89.0
11326,57.0,80,64,10.0,127.0
11327,69.0,0,64,10.0,127.0
11328,57.0,0,60,11.0,125.0
11329,30.0,40,60,13.0,125.0
11330,42.0,0,60,12.0,125.0
11331,57.0,40,64,10.0,127.0
11332,69.0,0,64,10.0,127.0
11333,57.0,0,226,4.0,112.0
11334,30.0,0,60,13.0,125.0
11335,57.0,0,60,5.0,120.0
11336,69.0,0,60,5.0,120.0
11337,42.0,0,60,12.0,125.0
11338,54.0,0,60,11.0,125.0
11339,69.0,0,64,10.0,127.0
11340,57.0,0,64,10.0,127.0
11341,45.0,0,96,6.0,120.0
11342,69.0,0,96,8.0,127.0
11343,81.0,0,96,0.0,127.0
11344,57.0,0,96,3.0,62.0
11345,69.0,80,64,10.0,127.0
11346,57.0,0,64,10.0,127.0
11347,43.0,0,60,12.0,125.0
11348,55.0,0,60,11.0,125.0
11349,57.0,0,60,5.0,120.0
11350,69.0,40,60,5.0,120.0
11351,31.0,0,60,13.0,125.0
11352,45.0,0,96,6.0,120.0
11353,57.0,40,64,10.0,127.0
11354,69.0,0,64,10.0,127.0
11355,30.0,80,60,13.0,125.0
11356,42.0,0,60,12.0,125.0
11357,54.0,0,60,11.0,125.0
11358,81.0,0,64,10.0,127.0
11359,69.0,0,64,10.0,127.0
11360,62.0,0,96,8.0,127.0
11361,57.0,0,576,2.0,96.0
11362,74.0,0,96,0.0,127.0
11363,64.0,0,816,2.0,96.0
11364,50.0,0,96,3.0,62.0
11365,76.0,0,816,1.0,120.0
11366,69.0,0,576,1.0,120.0
11367,57.0,0,120,5.0,120.0
11368,69.0,0,120,5.0,120.0
11369,69.0,0,384,4.0,112.0
11370,57.0,0,384,4.0,112.0
11371,81.0,80,64,10.0,127.0
11372,69.0,0,64,10.0,127.0
11373,57.0,40,60,11.0,125.0
11374,33.0,0,60,13.0,125.0
11375,45.0,0,60,12.0,125.0
11376,45.0,0,192,6.0,120.0
11377,69.0,0,64,10.0,127.0
11378,81.0,40,64,10.0,127.0
11379,43.0,0,60,12.0,125.0
11380,55.0,0,60,11.0,125.0
11381,31.0,0,60,13.0,125.0
11382,69.0,0,64,10.0,127.0
11383,81.0,0,64,10.0,127.0
11384,69.0,0,64,10.0,127.0
11385,81.0,80,64,10.0,127.0
11386,42.0,0,60,12.0,125.0
11387,54.0,0,60,11.0,125.0
11388,30.0,40,60,13.0,125.0
11389,81.0,0,64,10.0,127.0
11390,69.0,40,64,10.0,127.0
11391,81.0,80,64,10.0,127.0
11392,69.0,0,64,10.0,127.0
11393,43.0,0,120,12.0,125.0
11394,55.0,0,120,11.0,125.0
11395,64.0,80,360,3.0,62.0
11396,31.0,0,120,13.0,125.0
11397,88.0,0,360,0.0,127.0
11398,88.0,0,360,8.0,127.0
11399,69.0,0,64,10.0,127.0
11400,81.0,80,64,10.0,127.0
11401,54.0,0,60,11.0,125.0
11402,30.0,0,60,13.0,125.0
11403,42.0,40,60,12.0,125.0
11404,64.0,0,432,2.0,96.0
11405,57.0,0,432,2.0,96.0
11406,69.0,0,432,1.0,120.0
11407,76.0,0,432,1.0,120.0
11408,81.0,40,64,10.0,127.0
11409,69.0,0,64,10.0,127.0
11410,57.0,0,466,4.0,112.0
11411,45.0,0,466,4.0,112.0
11412,54.0,80,60,11.0,125.0
11413,30.0,0,60,13.0,125.0
11414,57.0,0,60,5.0,120.0
11415,42.0,0,60,12.0,125.0
11416,69.0,0,60,5.0,120.0
11417,69.0,0,64,10.0,127.0
11418,81.0,0,64,10.0,127.0
11419,57.0,0,96,3.0,62.0
11420,69.0,0,96,8.0,127.0
11421,45.0,0,96,6.0,120.0
11422,81.0,0,96,0.0,127.0
11423,69.0,0,64,10.0,127.0
11424,81.0,80,64,10.0,127.0
11425,31.0,0,60,13.0,125.0
11426,55.0,0,60,11.0,125.0
11427,43.0,0,60,12.0,125.0
11428,57.0,0,60,5.0,120.0
11429,69.0,0,60,5.0,120.0
11430,45.0,40,96,6.0,120.0
11431,69.0,40,64,10.0,127.0
11432,81.0,0,64,10.0,127.0
11433,53.0,0,60,11.0,125.0
11434,41.0,0,60,12.0,125.0
11435,29.0,0,60,13.0,125.0
11436,81.0,0,64,10.0,127.0
11437,69.0,0,64,10.0,127.0
11438,50.0,0,96,3.0,62.0
11439,74.0,0,96,0.0,127.0
11440,62.0,0,96,8.0,127.0
11441,57.0,0,120,5.0,120.0
11442,69.0,80,120,5.0,120.0
11443,57.0,0,384,4.0,112.0
11444,62.0,0,384,4.0,112.0
11445,81.0,80,64,10.0,127.0
11446,69.0,0,64,10.0,127.0
11447,50.0,0,384,4.0,112.0
11448,69.0,0,384,1.0,120.0
11449,69.0,0,384,4.0,112.0
11450,74.0,0,384,1.0,120.0
11451,57.0,0,384,2.0,96.0
11452,62.0,0,384,2.0,96.0
11453,45.0,40,60,12.0,125.0
11454,33.0,0,60,13.0,125.0
11455,57.0,0,60,11.0,125.0
11456,45.0,0,192,6.0,120.0
11457,69.0,40,64,10.0,127.0
11458,81.0,0,64,10.0,127.0
11459,55.0,0,60,11.0,125.0
11460,31.0,0,60,13.0,125.0
11461,43.0,0,60,12.0,125.0
11462,69.0,0,64,10.0,127.0
11463,81.0,0,64,10.0,127.0
11464,81.0,80,64,10.0,127.0
11465,69.0,0,64,10.0,127.0
11466,29.0,0,60,13.0,125.0
11467,41.0,0,60,12.0,125.0
11468,53.0,40,60,11.0,125.0
11469,81.0,40,64,10.0,127.0
11470,69.0,0,64,10.0,127.0
11471,69.0,0,64,10.0,127.0
11472,81.0,0,64,10.0,127.0
11473,41.0,0,120,13.0,125.0
11474,86.0,0,360,8.0,127.0
11475,53.0,0,120,11.0,125.0
11476,53.0,80,120,12.0,125.0
11477,62.0,0,360,3.0,62.0
11478,86.0,0,360,0.0,127.0
11479,81.0,0,64,10.0,127.0
11480,69.0,80,64,10.0,127.0
11481,52.0,0,60,12.0,125.0
11482,48.0,0,60,11.0,125.0
11483,40.0,40,60,13.0,125.0
11484,81.0,40,64,10.0,127.0
11485,69.0,0,64,10.0,127.0
11486,45.0,0,466,4.0,112.0
11487,57.0,0,466,4.0,112.0
11488,57.0,0,60,5.0,120.0
11489,48.0,0,60,11.0,125.0
11490,52.0,0,60,12.0,125.0
11491,40.0,0,60,13.0,125.0
11492,69.0,0,60,5.0,120.0
11493,69.0,0,64,10.0,127.0
11494,81.0,0,64,10.0,127.0
11495,45.0,0,96,6.0,120.0
11496,52.0,0,96,3.0,62.0
11497,76.0,0,96,8.0,127.0
11498,76.0,80,96,0.0,127.0
11499,81.0,0,64,10.0,127.0
11500,69.0,80,64,10.0,127.0
11501,53.0,0,60,12.0,125.0
11502,57.0,0,60,5.0,120.0
11503,41.0,40,60,13.0,125.0
11504,69.0,0,60,5.0,120.0
11505,50.0,0,60,11.0,125.0
11506,45.0,0,96,6.0,120.0
11507,69.0,40,64,10.0,127.0
11508,81.0,0,64,10.0,127.0
11509,48.0,0,60,11.0,125.0
11510,40.0,0,60,13.0,125.0
11511,52.0,0,60,12.0,125.0
11512,81.0,0,64,10.0,127.0
11513,69.0,0,64,10.0,127.0
11514,45.0,0,96,3.0,62.0
11515,62.0,0,816,2.0,96.0
11516,69.0,0,96,0.0,127.0
11517,69.0,80,96,8.0,127.0
11518,74.0,0,816,1.0,120.0
11519,69.0,0,816,1.0,120.0
11520,57.0,80,816,2.0,96.0
11521,57.0,0,120,5.0,120.0
11522,69.0,0,120,5.0,120.0
11523,69.0,0,384,4.0,112.0
11524,50.0,0,384,4.0,112.0
11525,81.0,80,64,10.0,127.0
11526,62.0,0,384,4.0,112.0
11527,57.0,0,384,4.0,112.0
11528,69.0,0,64,10.0,127.0
11529,48.0,0,60,11.0,125.0
11530,57.0,40,60,12.0,125.0
11531,45.0,0,60,13.0,125.0
11532,45.0,0,192,6.0,120.0
11533,69.0,0,64,10.0,127.0
11534,81.0,40,64,10.0,127.0
11535,53.0,80,60,12.0,125.0
11536,48.0,0,60,11.0,125.0
11537,41.0,0,60,13.0,125.0
11538,81.0,0,64,10.0,127.0
11539,69.0,0,64,10.0,127.0
11540,69.0,80,64,10.0,127.0
11541,81.0,0,64,10.0,127.0
11542,40.0,40,60,13.0,125.0
11543,52.0,0,60,12.0,125.0
11544,48.0,0,60,11.0,125.0
11545,69.0,40,64,10.0,127.0
11546,81.0,0,64,10.0,127.0
11547,62.0,0,226,4.0,112.0
11548,50.0,0,226,4.0,112.0
11549,81.0,0,64,10.0,127.0
11550,69.0,0,64,10.0,127.0
11551,86.0,0,360,0.0,127.0
11552,50.0,0,120,11.0,125.0
11553,53.0,0,120,12.0,125.0
11554,62.0,0,360,3.0,62.0
11555,41.0,80,120,13.0,125.0
11556,86.0,0,360,8.0,127.0
11557,81.0,0,64,10.0,127.0
11558,69.0,80,64,10.0,127.0
11559,48.0,40,60,11.0,125.0
11560,40.0,0,60,13.0,125.0
11561,52.0,0,60,12.0,125.0
11562,62.0,0,192,4.0,112.0
11563,81.0,0,64,10.0,127.0
11564,69.0,40,64,10.0,127.0
11565,57.0,0,466,4.0,112.0
11566,74.0,0,466,1.0,120.0
11567,57.0,0,466,2.0,96.0
11568,69.0,0,466,1.0,120.0
11569,62.0,0,466,2.0,96.0
11570,45.0,0,466,4.0,112.0
11571,69.0,0,60,5.0,120.0
11572,57.0,0,60,5.0,120.0
11573,40.0,0,60,13.0,125.0
11574,52.0,0,60,12.0,125.0
11575,48.0,0,60,11.0,125.0
11576,69.0,0,64,10.0,127.0
11577,81.0,0,64,10.0,127.0
11578,52.0,80,96,3.0,62.0
11579,76.0,0,96,8.0,127.0
11580,45.0,0,96,6.0,120.0
11581,76.0,0,96,0.0,127.0
11582,81.0,80,64,10.0,127.0
11583,69.0,0,64,10.0,127.0
11584,57.0,0,60,5.0,120.0
11585,53.0,0,60,12.0,125.0
11586,69.0,0,60,5.0,120.0
11587,41.0,40,60,13.0,125.0
11588,50.0,0,60,11.0,125.0
11589,45.0,0,96,6.0,120.0
11590,69.0,0,64,10.0,127.0
11591,81.0,40,64,10.0,127.0
11592,40.0,0,60,13.0,125.0
11593,60.0,0,60,11.0,125.0
11594,48.0,0,60,11.0,125.0
11595,52.0,0,60,12.0,125.0
11596,69.0,0,64,10.0,127.0
11597,81.0,0,64,10.0,127.0
11598,45.0,0,96,3.0,62.0
11599,69.0,0,96,8.0,127.0
11600,69.0,0,96,0.0,127.0
11601,57.0,80,120,5.0,120.0
11602,69.0,0,120,5.0,120.0
11603,57.0,0,384,2.0,112.0
11604,60.0,0,384,2.0,112.0
11605,72.0,0,384,1.0,112.0
11606,81.0,0,64,10.0,127.0
11607,69.0,80,64,10.0,127.0
11608,69.0,0,384,1.0,112.0
11609,69.0,0,384,4.0,112.0
11610,57.0,0,384,4.0,112.0
11611,60.0,0,60,11.0,125.0
11612,45.0,0,60,13.0,125.0
11613,48.0,0,60,11.0,125.0
11614,57.0,40,60,12.0,125.0
11615,45.0,0,192,6.0,120.0
11616,60.0,0,450,4.0,127.0
11617,69.0,0,64,10.0,127.0
11618,81.0,40,64,10.0,127.0
11619,48.0,0,60,11.0,125.0
11620,60.0,0,60,11.0,125.0
11621,53.0,0,60,12.0,125.0
11622,41.0,0,60,13.0,125.0
11623,72.0,80,64,10.0,127.0
11624,72.0,80,64,10.0,127.0
11625,40.0,0,60,13.0,125.0
11626,48.0,0,60,11.0,125.0
11627,52.0,0,60,12.0,125.0
11628,60.0,40,60,11.0,125.0
11629,72.0,40,64,10.0,127.0
11630,72.0,80,64,10.0,127.0
11631,40.0,0,120,13.0,125.0
11632,52.0,0,120,12.0,125.0
11633,60.0,0,120,11.0,125.0
11634,60.0,0,384,3.0,62.0
11635,84.0,0,384,0.0,127.0
11636,72.0,80,64,10.0,127.0
11637,84.0,0,384,8.0,127.0
11638,38.0,0,60,13.0,125.0
11639,50.0,0,60,12.0,125.0
11640,59.0,40,60,11.0,125.0
11641,57.0,0,432,2.0,96.0
11642,60.0,0,432,4.0,112.0
11643,69.0,0,432,1.0,120.0
11644,72.0,0,432,1.0,120.0
11645,60.0,0,432,2.0,96.0
11646,72.0,40,64,10.0,127.0
11647,57.0,0,466,4.0,112.0
11648,45.0,0,466,4.0,112.0
11649,74.0,0,60,5.0,127.0
11650,62.0,0,60,5.0,127.0
11651,50.0,0,60,12.0,125.0
11652,38.0,0,60,13.0,125.0
11653,59.0,0,60,11.0,125.0
11654,68.0,0,64,10.0,127.0
11655,80.0,0,96,8.0,127.0
11656,50.0,0,96,6.0,127.0
11657,56.0,0,96,3.0,119.0
11658,80.0,0,96,0.0,127.0
11659,68.0,80,64,10.0,127.0
11660,74.0,0,60,5.0,127.0
11661,52.0,0,60,12.0,125.0
11662,62.0,0,60,5.0,127.0
11663,40.0,0,60,13.0,125.0
11664,60.0,40,60,11.0,125.0
11665,50.0,0,96,6.0,127.0
11666,68.0,40,64,10.0,127.0
11667,50.0,0,60,12.0,125.0
11668,59.0,0,60,11.0,125.0
11669,38.0,0,60,13.0,125.0
11670,59.0,0,64,10.0,127.0
11671,65.0,0,64,10.0,127.0
11672,77.0,0,96,8.0,127.0
11673,53.0,0,96,3.0,40.0
11674,77.0,0,96,0.0,82.0
11675,62.0,0,120,5.0,127.0
11676,74.0,0,120,5.0,127.0
11677,65.0,0,384,4.0,112.0
11678,53.0,0,384,4.0,112.0
11679,59.0,0,64,10.0,127.0
11680,65.0,80,64,10.0,127.0
11681,71.0,0,384,1.0,127.0
11682,59.0,80,384,2.0,127.0
11683,50.0,0,384,4.0,112.0
11684,62.0,0,384,4.0,112.0
11685,53.0,0,60,12.0,125.0
11686,62.0,40,60,11.0,125.0
11687,41.0,0,60,13.0,125.0
11688,50.0,80,192,6.0,127.0
11689,65.0,40,64,10.0,127.0
11690,59.0,0,64,10.0,127.0
11691,60.0,0,60,11.0,125.0
11692,52.0,0,60,12.0,125.0
11693,40.0,0,60,13.0,125.0
11694,68.0,0,64,10.0,127.0
11695,59.0,0,64,10.0,127.0
11696,68.0,80,64,10.0,127.0
11697,59.0,0,64,10.0,127.0
11698,38.0,40,60,13.0,125.0
11699,50.0,0,60,12.0,125.0
11700,59.0,0,60,11.0,125.0
11701,68.0,0,64,10.0,127.0
11702,59.0,40,64,10.0,127.0
11703,68.0,0,64,10.0,127.0
11704,59.0,0,64,10.0,127.0
11705,60.0,0,120,11.0,125.0
11706,52.0,0,120,12.0,125.0
11707,40.0,80,120,13.0,125.0
11708,68.0,0,64,10.0,127.0
11709,59.0,80,64,10.0,127.0
11710,83.0,0,384,0.0,127.0
11711,38.0,0,60,13.0,125.0
11712,50.0,40,60,12.0,125.0
11713,59.0,0,60,11.0,125.0
11714,71.0,0,432,1.0,127.0
11715,59.0,0,432,2.0,120.0
11716,68.0,0,64,10.0,127.0
11717,59.0,40,64,10.0,127.0
11718,50.0,0,466,4.0,112.0
11719,62.0,0,466,4.0,112.0
11720,65.0,0,466,4.0,112.0
11721,53.0,80,466,4.0,112.0
11722,50.0,80,60,12.0,125.0
11723,74.0,0,60,5.0,120.0
11724,62.0,0,60,5.0,120.0
11725,59.0,0,60,11.0,125.0
11726,38.0,0,60,13.0,125.0
11727,68.0,0,64,10.0,127.0
11728,59.0,0,64,10.0,127.0
11729,74.0,0,96,1.0,127.0
11730,62.0,0,96,2.0,127.0
11731,86.0,0,96,0.0,127.0
11732,50.0,0,96,6.0,120.0
11733,59.0,80,64,10.0,127.0
11734,68.0,0,64,10.0,127.0
11735,40.0,0,60,13.0,125.0
11736,52.0,0,60,12.0,125.0
11737,60.0,0,60,11.0,125.0
11738,74.0,0,60,5.0,120.0
11739,62.0,40,60,5.0,120.0
11740,50.0,0,96,6.0,120.0
11741,68.0,40,64,10.0,127.0
11742,59.0,0,64,10.0,127.0
11743,59.0,80,60,11.0,125.0
11744,38.0,0,60,13.0,125.0
11745,50.0,0,60,12.0,125.0
11746,59.0,0,64,10.0,127.0
11747,68.0,0,64,10.0,127.0
11748,77.0,0,96,1.0,103.0
11749,65.0,0,96,2.0,103.0
11750,89.0,0,96,0.0,103.0
11751,62.0,0,120,5.0,120.0
11752,74.0,0,120,5.0,120.0
11753,50.0,0,384,4.0,112.0
11754,62.0,0,384,4.0,112.0
11755,59.0,0,64,10.0,127.0
11756,68.0,80,64,10.0,127.0
11757,53.0,0,384,4.0,112.0
11758,65.0,0,384,4.0,112.0
11759,41.0,0,60,13.0,125.0
11760,62.0,40,60,11.0,125.0
11761,53.0,0,60,12.0,125.0
11762,50.0,0,192,6.0,120.0
11763,68.0,40,64,10.0,127.0
11764,59.0,0,64,10.0,127.0
11765,52.0,0,60,12.0,125.0
11766,40.0,0,60,13.0,125.0
11767,60.0,0,60,11.0,125.0
11768,68.0,0,64,10.0,127.0
11769,59.0,0,64,10.0,127.0
11770,68.0,80,64,10.0,127.0
11771,59.0,0,64,10.0,127.0
11772,38.0,0,60,13.0,125.0
11773,50.0,40,60,12.0,125.0
11774,59.0,0,60,11.0,125.0
11775,59.0,40,64,10.0,127.0
11776,68.0,0,64,10.0,127.0
11777,72.0,0,64,10.0,127.0
11778,40.0,0,120,13.0,125.0
11779,52.0,80,120,12.0,125.0
11780,60.0,0,120,11.0,125.0
11781,84.0,0,384,8.0,127.0
11782,60.0,0,384,3.0,62.0
11783,84.0,0,384,0.0,127.0
11784,72.0,80,64,10.0,127.0
11785,59.0,0,60,11.0,125.0
11786,38.0,40,60,13.0,125.0
11787,50.0,0,60,12.0,125.0
11788,72.0,0,432,1.0,120.0
11789,60.0,0,432,2.0,96.0
11790,72.0,40,64,10.0,127.0
11791,53.0,0,466,4.0,112.0
11792,50.0,0,466,4.0,112.0
11793,62.0,80,466,4.0,112.0
11794,65.0,0,466,4.0,112.0
11795,74.0,0,60,5.0,127.0
11796,38.0,0,60,13.0,125.0
11797,59.0,0,60,11.0,125.0
11798,62.0,0,60,5.0,127.0
11799,50.0,0,60,12.0,125.0
11800,68.0,0,64,10.0,127.0
11801,50.0,0,96,6.0,127.0
11802,71.0,0,96,1.0,127.0
11803,59.0,80,96,2.0,127.0
11804,80.0,0,96,0.0,127.0
11805,80.0,0,96,8.0,127.0
11806,56.0,0,96,3.0,102.0
11807,68.0,80,64,10.0,127.0
11808,40.0,0,60,13.0,125.0
11809,52.0,0,60,12.0,125.0
11810,74.0,0,60,5.0,127.0
11811,62.0,0,60,5.0,127.0
11812,60.0,40,60,11.0,125.0
11813,50.0,0,96,6.0,127.0
11814,68.0,40,64,10.0,127.0
11815,50.0,0,60,12.0,125.0
11816,59.0,0,60,11.0,125.0
11817,38.0,0,60,13.0,125.0
11818,59.0,0,64,10.0,127.0
11819,65.0,0,64,10.0,127.0
11820,77.0,0,96,8.0,127.0
11821,53.0,0,96,3.0,40.0
11822,59.0,0,96,2.0,82.0
11823,77.0,0,96,0.0,82.0
11824,71.0,80,96,1.0,82.0
11825,74.0,0,120,5.0,120.0
11826,62.0,0,120,5.0,120.0
11827,65.0,0,64,10.0,127.0
11828,65.0,0,384,4.0,112.0
11829,59.0,80,64,10.0,127.0
11830,50.0,0,384,4.0,112.0
11831,62.0,0,384,4.0,112.0
11832,53.0,0,384,4.0,112.0
11833,62.0,0,60,11.0,125.0
11834,53.0,0,60,12.0,125.0
11835,41.0,40,60,13.0,125.0
11836,50.0,0,192,6.0,120.0
11837,59.0,40,64,10.0,127.0
11838,65.0,0,64,10.0,127.0
11839,40.0,0,60,13.0,125.0
11840,52.0,80,60,12.0,125.0
11841,60.0,0,60,11.0,125.0
11842,59.0,0,64,10.0,127.0
11843,68.0,0,64,10.0,127.0
11844,68.0,80,64,10.0,127.0
11845,59.0,0,64,10.0,127.0
11846,38.0,0,60,13.0,125.0
11847,59.0,0,60,11.0,125.0
11848,50.0,40,60,12.0,125.0
11849,59.0,40,64,10.0,127.0
11850,68.0,0,64,10.0,127.0
11851,68.0,80,64,10.0,127.0
11852,59.0,0,64,10.0,127.0
11853,52.0,0,120,12.0,90.0
11854,60.0,0,120,11.0,90.0
11855,40.0,0,120,13.0,90.0
11856,83.0,0,384,0.0,127.0
11857,59.0,0,64,10.0,127.0
11858,68.0,80,64,10.0,127.0
11859,38.0,40,60,13.0,82.0
11860,59.0,0,60,11.0,82.0
11861,50.0,0,60,12.0,82.0
11862,59.0,0,432,2.0,120.0
11863,71.0,0,432,1.0,127.0
11864,59.0,0,64,10.0,127.0
11865,68.0,40,64,10.0,127.0
11866,62.0,0,466,4.0,112.0
11867,53.0,0,466,4.0,112.0
11868,50.0,0,466,4.0,112.0
11869,65.0,0,466,4.0,112.0
11870,74.0,0,60,5.0,120.0
11871,50.0,0,60,12.0,75.0
11872,38.0,0,60,13.0,75.0
11873,62.0,0,60,5.0,120.0
11874,59.0,0,60,11.0,75.0
11875,68.0,0,64,10.0,127.0
11876,59.0,0,64,10.0,127.0
11877,62.0,80,96,2.0,127.0
11878,50.0,0,96,6.0,120.0
11879,74.0,0,96,1.0,127.0
11880,86.0,0,96,0.0,127.0
11881,68.0,80,64,10.0,119.0
11882,59.0,0,64,10.0,119.0
11883,60.0,0,60,11.0,67.0
11884,62.0,0,60,5.0,120.0
11885,74.0,0,60,5.0,120.0
11886,52.0,40,60,12.0,67.0
11887,40.0,0,60,13.0,67.0
11888,50.0,0,96,6.0,120.0
11889,59.0,0,64,10.0,111.0
11890,68.0,40,64,10.0,111.0
11891,38.0,0,60,13.0,60.0
11892,50.0,0,60,12.0,60.0
11893,59.0,80,60,11.0,60.0
11894,59.0,0,64,10.0,102.0
11895,68.0,0,64,10.0,102.0
11896,77.0,0,96,1.0,103.0
11897,65.0,0,96,2.0,103.0
11898,89.0,0,96,0.0,103.0
11899,74.0,0,120,5.0,120.0
11900,62.0,0,120,5.0,120.0
11901,59.0,80,64,10.0,94.0
11902,68.0,0,64,10.0,94.0
11903,65.0,0,384,4.0,112.0
11904,62.0,0,384,4.0,112.0
11905,50.0,0,384,4.0,112.0
11906,53.0,0,384,4.0,112.0
11907,62.0,0,60,11.0,52.0
11908,41.0,40,60,13.0,52.0
11909,53.0,0,60,12.0,52.0
11910,50.0,0,192,6.0,120.0
11911,59.0,40,64,10.0,85.0
11912,68.0,0,64,10.0,85.0
11913,62.0,0,60,5.0,60.0
11914,52.0,0,60,12.0,45.0
11915,60.0,0,60,11.0,45.0
11916,40.0,0,60,13.0,45.0
11917,68.0,0,64,10.0,77.0
11918,59.0,0,64,10.0,77.0
11919,50.0,0,96,6.0,60.0
11920,59.0,80,64,10.0,68.0
11921,68.0,0,64,10.0,68.0
11922,50.0,0,60,12.0,37.0
11923,59.0,0,60,11.0,37.0
11924,62.0,0,60,5.0,60.0
11925,38.0,40,60,13.0,37.0
11926,50.0,0,96,6.0,60.0
11927,68.0,0,64,10.0,60.0
11928,59.0,40,64,10.0,60.0
11929,59.0,0,60,10.0,56.0
11930,68.0,0,60,10.0,56.0
11931,50.0,0,60,12.0,40.0
11932,38.0,0,60,13.0,40.0
11933,62.0,0,120,5.0,60.0
11934,53.0,0,60,12.0,40.0
11935,83.0,120,60,0.0,48.0
11936,62.0,0,60,10.0,56.0
11937,41.0,0,60,13.0,40.0
11938,59.0,0,60,11.0,56.0
11939,50.0,80,192,6.0,60.0
11940,60.0,120,60,11.0,56.0
11941,64.0,0,60,10.0,56.0
11942,52.0,0,60,12.0,40.0
11943,40.0,0,60,13.0,40.0
11944,84.0,0,60,0.0,48.0
11945,86.0,120,60,0.0,48.0
11946,62.0,0,60,11.0,56.0
11947,38.0,0,60,13.0,40.0
11948,65.0,0,60,10.0,56.0
11949,50.0,0,60,12.0,40.0
11950,50.0,0,690,4.0,56.0
11951,62.0,0,690,4.0,56.0
11952,65.0,80,690,4.0,56.0
11953,53.0,0,690,4.0,56.0
11954,62.0,0,60,11.0,56.0
11955,36.0,0,60,13.0,40.0
11956,71.0,0,780,8.0,43.0
11957,65.0,0,60,10.0,56.0
11958,48.0,120,60,12.0,40.0
11959,86.0,0,120,0.0,48.0
11960,35.0,0,60,13.0,40.0
11961,74.0,0,60,8.0,43.0
11962,65.0,0,60,11.0,56.0
11963,62.0,0,60,3.0,48.0
11964,47.0,0,60,12.0,40.0
11965,71.0,120,60,10.0,56.0
11966,72.0,0,60,8.0,43.0
11967,64.0,0,60,11.0,56.0
11968,36.0,0,60,13.0,40.0
11969,64.0,0,60,3.0,48.0
11970,48.0,120,60,12.0,40.0
11971,69.0,0,60,10.0,56.0
11972,50.0,0,60,12.0,40.0
11973,65.0,0,60,3.0,48.0
11974,68.0,0,60,10.0,56.0
11975,62.0,0,60,11.0,56.0
11976,38.0,0,60,13.0,40.0
11977,71.0,120,60,8.0,43.0
11978,38.0,0,60,13.0,40.0
11979,59.0,0,60,10.0,56.0
11980,68.0,0,60,10.0,56.0
11981,50.0,120,60,12.0,40.0
11982,62.0,0,120,11.0,80.0
11983,59.0,0,60,11.0,56.0
11984,62.0,0,60,10.0,56.0
11985,53.0,0,60,12.0,40.0
11986,41.0,0,60,13.0,40.0
11987,83.0,120,60,0.0,48.0
11988,60.0,120,60,11.0,56.0
11989,84.0,0,60,0.0,48.0
11990,40.0,0,60,13.0,40.0
11991,64.0,0,60,10.0,56.0
11992,52.0,0,60,12.0,40.0
11993,50.0,0,60,12.0,40.0
11994,38.0,0,60,13.0,40.0
11995,86.0,0,60,0.0,48.0
11996,65.0,120,60,10.0,56.0
11997,62.0,0,60,11.0,56.0
11998,65.0,0,480,3.0,48.0
11999,48.0,0,60,12.0,40.0
12000,71.0,0,540,8.0,43.0
12001,65.0,0,60,10.0,56.0
12002,62.0,120,60,11.0,56.0
12003,36.0,0,60,13.0,40.0
12004,86.0,0,120,0.0,48.0
12005,65.0,120,60,11.0,56.0
12006,47.0,0,60,12.0,40.0
12007,35.0,0,60,13.0,40.0
12008,74.0,0,60,8.0,43.0
12009,71.0,0,60,10.0,56.0
12010,62.0,0,60,3.0,48.0
12011,64.0,0,60,3.0,48.0
12012,36.0,0,60,13.0,40.0
12013,69.0,0,60,10.0,56.0
12014,48.0,0,60,12.0,40.0
12015,72.0,0,60,8.0,43.0
12016,64.0,120,60,11.0,56.0
12017,68.0,0,60,10.0,56.0
12018,50.0,0,60,12.0,40.0
12019,65.0,0,60,3.0,48.0
12020,38.0,120,60,13.0,40.0
12021,71.0,0,60,8.0,43.0
12022,65.0,0,60,11.0,56.0
12023,40.0,0,60,13.0,40.0
12024,52.0,0,60,12.0,40.0
12025,64.0,120,120,11.0,80.0
12026,69.0,0,120,10.0,29.0
12027,72.0,0,120,8.0,29.0
12028,45.0,0,60,13.0,40.0
12029,57.0,0,60,12.0,40.0
12030,57.0,120,60,11.0,56.0
12031,59.0,0,60,11.0,56.0
12032,59.0,120,60,12.0,40.0
12033,47.0,0,60,13.0,40.0
12034,60.0,0,60,11.0,56.0
12035,48.0,0,60,13.0,40.0
12036,60.0,120,60,12.0,40.0
12037,81.0,0,540,0.0,52.0
12038,60.0,0,540,3.0,52.0
12039,57.0,0,540,3.0,52.0
12040,84.0,0,540,0.0,52.0
12041,60.0,0,114,11.0,56.0
12042,60.0,0,114,12.0,40.0
12043,48.0,120,114,13.0,40.0
12044,84.0,0,60,0.0,44.0
12045,69.0,0,60,8.0,29.0
12046,64.0,0,60,3.0,44.0
12047,88.0,0,60,0.0,44.0
12048,60.0,0,60,3.0,44.0
12049,57.0,120,60,10.0,29.0
12050,62.0,0,60,3.0,44.0
12051,59.0,0,60,3.0,44.0
12052,71.0,0,60,8.0,29.0
12053,86.0,0,60,0.0,44.0
12054,83.0,0,60,0.0,44.0
12055,59.0,120,60,10.0,29.0
12056,84.0,0,60,0.0,44.0
12057,81.0,0,60,0.0,44.0
12058,72.0,0,60,8.0,29.0
12059,60.0,120,60,10.0,29.0
12060,60.0,0,60,3.0,44.0
12061,57.0,0,60,3.0,44.0
12062,72.0,0,120,8.0,29.0
12063,60.0,120,120,10.0,29.0
12064,60.0,120,60,12.0,40.0
12065,60.0,0,60,11.0,56.0
12066,48.0,0,60,13.0,40.0
12067,62.0,0,60,12.0,40.0
12068,62.0,0,60,11.0,56.0
12069,50.0,120,60,13.0,40.0
12070,64.0,120,60,11.0,56.0
12071,64.0,0,60,12.0,40.0
12072,52.0,0,60,13.0,40.0
12073,57.0,0,540,3.0,44.0
12074,60.0,0,540,3.0,44.0
12075,84.0,0,540,0.0,44.0
12076,81.0,0,540,0.0,44.0
12077,52.0,120,114,13.0,40.0
12078,64.0,0,114,11.0,56.0
12079,64.0,0,114,12.0,40.0
12080,57.0,120,60,10.0,29.0
12081,60.0,0,60,3.0,44.0
12082,64.0,0,60,3.0,44.0
12083,88.0,0,60,0.0,44.0
12084,69.0,0,60,8.0,29.0
12085,84.0,0,60,0.0,44.0
12086,71.0,120,60,8.0,29.0
12087,83.0,0,60,0.0,44.0
12088,62.0,0,60,3.0,44.0
12089,59.0,0,60,3.0,44.0
12090,59.0,0,60,10.0,29.0
12091,86.0,0,60,0.0,44.0
12092,81.0,0,60,0.0,44.0
12093,60.0,0,60,10.0,29.0
12094,57.0,0,60,3.0,44.0
12095,60.0,0,60,3.0,44.0
12096,84.0,0,60,0.0,44.0
12097,72.0,120,60,8.0,29.0
12098,59.0,0,60,3.0,37.0
12099,56.0,0,60,3.0,37.0
12100,83.0,0,60,0.0,37.0
12101,80.0,0,60,0.0,37.0
12102,59.0,0,60,10.0,56.0
12103,68.0,0,60,10.0,56.0
12104,59.0,0,60,11.0,56.0
12105,59.0,0,60,3.0,48.0
12106,41.0,0,60,13.0,40.0
12107,71.0,120,60,2.0,48.0
12108,62.0,0,60,10.0,56.0
12109,53.0,0,60,12.0,40.0
12110,60.0,0,60,3.0,48.0
12111,72.0,0,60,2.0,48.0
12112,64.0,120,60,10.0,56.0
12113,40.0,0,60,13.0,40.0
12114,52.0,0,60,12.0,40.0
12115,60.0,0,60,11.0,56.0
12116,62.0,0,60,11.0,56.0
12117,74.0,0,60,2.0,48.0
12118,38.0,0,60,13.0,40.0
12119,50.0,120,60,12.0,40.0
12120,62.0,0,60,3.0,48.0
12121,65.0,0,60,10.0,56.0
12122,71.0,120,540,8.0,43.0
12123,62.0,0,60,11.0,56.0
12124,48.0,0,60,12.0,40.0
12125,65.0,120,60,10.0,56.0
12126,36.0,0,60,13.0,40.0
12127,62.0,0,120,3.0,48.0
12128,74.0,0,120,2.0,48.0
12129,35.0,0,60,13.0,40.0
12130,77.0,0,60,1.0,58.0
12131,47.0,0,60,12.0,40.0
12132,65.0,0,60,11.0,56.0
12133,71.0,0,60,10.0,56.0
12134,74.0,0,60,8.0,43.0
12135,89.0,120,60,0.0,58.0
12136,36.0,0,60,13.0,40.0
12137,69.0,0,60,10.0,56.0
12138,72.0,0,60,8.0,43.0
12139,48.0,0,60,12.0,40.0
12140,88.0,120,60,0.0,58.0
12141,64.0,0,60,11.0,56.0
12142,76.0,0,60,1.0,58.0
12143,68.0,0,60,10.0,56.0
12144,65.0,0,60,11.0,56.0
12145,50.0,120,60,12.0,40.0
12146,38.0,0,60,13.0,40.0
12147,74.0,0,60,1.0,58.0
12148,86.0,0,60,0.0,58.0
12149,71.0,0,60,8.0,43.0
12150,38.0,0,60,13.0,40.0
12151,59.0,0,60,10.0,56.0
12152,50.0,0,60,12.0,40.0
12153,68.0,0,60,10.0,56.0
12154,62.0,0,120,11.0,80.0
12155,71.0,120,60,2.0,48.0
12156,41.0,0,60,13.0,40.0
12157,53.0,0,60,12.0,40.0
12158,59.0,0,60,11.0,56.0
12159,59.0,0,60,3.0,48.0
12160,62.0,0,60,10.0,56.0
12161,74.0,0,226,1.0,44.0
12162,86.0,0,226,0.0,44.0
12163,60.0,0,60,11.0,56.0
12164,40.0,0,60,13.0,40.0
12165,64.0,0,60,10.0,56.0
12166,52.0,0,60,12.0,40.0
12167,60.0,0,60,3.0,48.0
12168,72.0,120,60,2.0,48.0
12169,65.0,120,60,10.0,56.0
12170,62.0,0,60,3.0,48.0
12171,62.0,0,60,11.0,56.0
12172,74.0,0,60,2.0,48.0
12173,38.0,0,60,13.0,40.0
12174,50.0,0,60,12.0,40.0
12175,62.0,0,60,11.0,56.0
12176,71.0,120,540,8.0,43.0
12177,36.0,0,60,13.0,40.0
12178,48.0,0,60,12.0,40.0
12179,65.0,0,60,10.0,56.0
12180,62.0,120,120,3.0,48.0
12181,74.0,0,120,2.0,48.0
12182,65.0,0,60,11.0,56.0
12183,77.0,0,60,1.0,58.0
12184,89.0,0,60,0.0,58.0
12185,74.0,0,60,8.0,43.0
12186,47.0,120,60,12.0,40.0
12187,71.0,0,60,10.0,56.0
12188,35.0,0,60,13.0,40.0
12189,88.0,0,60,0.0,58.0
12190,72.0,0,60,8.0,43.0
12191,69.0,0,60,10.0,56.0
12192,36.0,0,60,13.0,40.0
12193,64.0,0,60,11.0,56.0
12194,76.0,120,60,1.0,58.0
12195,48.0,0,60,12.0,40.0
12196,38.0,0,60,13.0,40.0
12197,65.0,0,60,11.0,56.0
12198,88.0,120,60,0.0,58.0
12199,50.0,0,60,12.0,40.0
12200,76.0,0,60,1.0,58.0
12201,68.0,0,60,10.0,56.0
12202,71.0,0,60,8.0,43.0
12203,60.0,0,60,10.0,48.0
12204,40.0,0,96,13.0,40.0
12205,60.0,0,96,12.0,48.0
12206,64.0,120,120,10.0,48.0
12207,52.0,0,96,12.0,48.0
12208,65.0,120,120,10.0,48.0
12209,64.0,120,60,10.0,48.0
12210,64.0,0,60,10.0,48.0
12211,40.0,120,96,12.0,48.0
12212,81.0,0,600,1.0,41.0
12213,69.0,120,600,8.0,41.0
12214,72.0,120,60,8.0,41.0
12215,64.0,0,60,10.0,48.0
12216,84.0,0,60,1.0,41.0
12217,88.0,0,768,0.0,32.0
12218,71.0,0,60,8.0,41.0
12219,83.0,120,60,1.0,41.0
12220,64.0,0,60,10.0,48.0
12221,81.0,0,60,1.0,41.0
12222,64.0,120,60,10.0,48.0
12223,69.0,0,60,8.0,41.0
12224,60.0,0,60,10.0,48.0
12225,60.0,0,336,12.0,48.0
12226,64.0,120,120,10.0,48.0
12227,52.0,120,96,12.0,48.0
12228,65.0,0,120,10.0,48.0
12229,64.0,120,60,10.0,48.0
12230,64.0,120,60,10.0,48.0
12231,40.0,0,96,12.0,48.0
12232,69.0,0,600,8.0,41.0
12233,81.0,120,600,1.0,49.0
12234,72.0,0,60,8.0,41.0
12235,84.0,0,60,1.0,49.0
12236,64.0,120,60,10.0,48.0
12237,64.0,120,60,10.0,48.0
12238,83.0,0,60,1.0,49.0
12239,71.0,0,60,8.0,41.0
12240,60.0,0,96,12.0,48.0
12241,81.0,120,60,1.0,49.0
12242,64.0,0,60,10.0,48.0
12243,69.0,0,60,8.0,41.0
12244,64.0,120,60,11.0,48.0
12245,59.0,0,96,12.0,48.0
12246,52.0,120,120,11.0,48.0
12247,52.0,0,96,12.0,48.0
12248,53.0,120,120,11.0,48.0
12249,52.0,120,60,11.0,48.0
12250,81.0,0,480,1.0,49.0
12251,69.0,0,480,8.0,41.0
12252,52.0,0,60,11.0,48.0
12253,40.0,0,96,12.0,48.0
12254,86.0,0,600,0.0,56.0
12255,74.0,0,600,10.0,49.0
12256,77.0,0,60,10.0,49.0
12257,89.0,0,60,0.0,56.0
12258,52.0,120,60,11.0,48.0
12259,88.0,0,60,0.0,56.0
12260,52.0,0,60,11.0,48.0
12261,76.0,120,60,10.0,49.0
12262,74.0,0,60,10.0,49.0
12263,52.0,0,60,11.0,48.0
12264,86.0,120,60,0.0,56.0
12265,52.0,0,60,11.0,48.0
12266,59.0,0,336,12.0,48.0
12267,52.0,120,120,11.0,48.0
12268,52.0,0,96,12.0,48.0
12269,53.0,120,120,11.0,48.0
12270,52.0,120,60,11.0,48.0
12271,52.0,0,60,11.0,48.0
12272,40.0,120,96,12.0,48.0
12273,74.0,120,600,10.0,49.0
12274,86.0,0,600,0.0,56.0
12275,89.0,120,60,0.0,56.0
12276,77.0,0,60,10.0,49.0
12277,52.0,0,60,11.0,48.0
12278,88.0,0,60,0.0,56.0
12279,52.0,0,60,11.0,48.0
12280,76.0,0,60,10.0,49.0
12281,59.0,120,96,12.0,48.0
12282,86.0,0,60,0.0,56.0
12283,52.0,0,60,11.0,48.0
12284,74.0,120,60,10.0,49.0
12285,80.0,120,1440,1.0,41.0
12286,68.0,0,1440,8.0,34.0
12287,52.0,0,48,11.0,48.0
12288,81.0,0,60,1.0,49.0
12289,60.0,120,96,12.0,48.0
12290,64.0,120,48,11.0,48.0
12291,81.0,0,60,1.0,49.0
12292,64.0,120,48,11.0,48.0
12293,83.0,0,60,1.0,49.0
12294,52.0,0,96,12.0,48.0
12295,64.0,0,48,11.0,48.0
12296,84.0,120,60,1.0,49.0
12297,64.0,0,4290,4.0,32.0
12298,74.0,0,480,10.0,49.0
12299,86.0,0,480,0.0,56.0
12300,64.0,0,48,11.0,48.0
12301,40.0,0,96,12.0,48.0
12302,81.0,0,600,8.0,41.0
12303,64.0,0,48,11.0,48.0
12304,57.0,120,60,3.0,49.0
12305,84.0,0,60,8.0,41.0
12306,84.0,0,226,1.0,49.0
12307,64.0,120,48,11.0,48.0
12308,59.0,0,60,3.0,49.0
12309,83.0,0,60,8.0,41.0
12310,64.0,0,48,11.0,48.0
12311,60.0,120,60,3.0,49.0
12312,81.0,0,60,8.0,41.0
12313,64.0,120,450,4.0,32.0
12314,64.0,120,48,11.0,48.0
12315,60.0,0,336,12.0,48.0
12316,64.0,0,48,11.0,48.0
12317,81.0,120,60,1.0,53.0
12318,60.0,0,226,3.0,53.0
12319,64.0,0,48,11.0,48.0
12320,83.0,0,60,1.0,53.0
12321,52.0,120,96,12.0,48.0
12322,64.0,120,48,11.0,48.0
12323,84.0,0,60,1.0,53.0
12324,64.0,0,450,4.0,35.0
12325,84.0,0,960,0.0,47.0
12326,64.0,120,48,11.0,48.0
12327,40.0,0,96,12.0,48.0
12328,81.0,0,600,8.0,41.0
12329,64.0,0,48,11.0,48.0
12330,57.0,120,60,3.0,53.0
12331,84.0,0,60,8.0,41.0
12332,84.0,0,226,1.0,53.0
12333,64.0,0,48,11.0,48.0
12334,59.0,0,60,3.0,53.0
12335,83.0,0,60,8.0,41.0
12336,60.0,120,96,12.0,48.0
12337,64.0,0,48,11.0,48.0
12338,81.0,0,60,8.0,41.0
12339,60.0,120,60,3.0,53.0
12340,64.0,0,450,4.0,35.0
12341,72.0,0,1440,10.0,41.0
12342,88.0,0,480,0.0,44.0
12343,64.0,0,48,11.0,49.0
12344,59.0,0,96,12.0,49.0
12345,52.0,0,48,11.0,52.0
12346,71.0,120,60,2.0,53.0
12347,62.0,120,226,3.0,40.0
12348,52.0,0,48,11.0,54.0
12349,72.0,0,60,2.0,55.0
12350,52.0,120,96,12.0,54.0
12351,52.0,0,48,11.0,57.0
12352,74.0,120,60,2.0,58.0
12353,64.0,0,450,4.0,40.0
12354,81.0,0,480,8.0,49.0
12355,52.0,0,48,11.0,59.0
12356,40.0,0,96,12.0,59.0
12357,86.0,0,600,0.0,40.0
12358,74.0,0,600,10.0,49.0
12359,52.0,0,48,11.0,62.0
12360,89.0,0,60,0.0,52.0
12361,59.0,0,60,3.0,53.0
12362,74.0,120,60,1.0,52.0
12363,77.0,0,60,10.0,62.0
12364,74.0,120,226,2.0,60.0
12365,52.0,120,48,11.0,65.0
12366,76.0,0,60,10.0,65.0
12367,88.0,0,60,0.0,55.0
12368,76.0,0,60,1.0,55.0
12369,60.0,0,60,3.0,55.0
12370,52.0,0,48,11.0,67.0
12371,62.0,0,60,3.0,58.0
12372,74.0,120,60,10.0,67.0
12373,86.0,0,60,0.0,57.0
12374,77.0,0,60,1.0,57.0
12375,64.0,0,450,4.0,50.0
12376,52.0,0,48,11.0,70.0
12377,59.0,0,336,12.0,65.0
12378,52.0,120,48,11.0,72.0
12379,71.0,0,60,2.0,62.0
12380,62.0,0,226,3.0,51.0
12381,77.0,0,226,1.0,51.0
12382,52.0,0,48,11.0,75.0
12383,72.0,120,60,2.0,64.0
12384,52.0,0,96,12.0,75.0
12385,52.0,120,48,11.0,77.0
12386,74.0,0,60,2.0,66.0
12387,40.0,0,192,15.0,80.0
12388,64.0,0,450,4.0,51.0
12389,52.0,0,48,11.0,80.0
12390,74.0,0,60,2.0,64.0
12391,40.0,120,96,12.0,80.0
12392,86.0,120,600,0.0,51.0
12393,74.0,0,600,10.0,70.0
12394,62.0,0,48,11.0,82.0
12395,59.0,0,60,3.0,62.0
12396,74.0,0,60,1.0,61.0
12397,83.0,0,60,0.0,61.0
12398,52.0,0,60,3.0,62.0
12399,89.0,120,60,0.0,61.0
12400,71.0,0,60,2.0,66.0
12401,77.0,0,60,10.0,82.0
12402,28.0,0,192,15.0,80.0
12403,60.0,120,48,11.0,85.0
12404,76.0,0,60,1.0,64.0
12405,84.0,0,60,0.0,64.0
12406,76.0,0,60,10.0,85.0
12407,52.0,0,60,3.0,64.0
12408,88.0,0,60,0.0,64.0
12409,72.0,0,60,2.0,64.0
12410,60.0,0,60,3.0,64.0
12411,59.0,0,96,12.0,85.0
12412,59.0,0,48,11.0,87.0
12413,52.0,0,60,3.0,66.0
12414,62.0,0,60,3.0,66.0
12415,80.0,120,60,1.0,65.0
12416,71.0,0,60,2.0,66.0
12417,86.0,0,60,0.0,65.0
12418,74.0,0,60,10.0,87.0
12419,52.0,0,192,15.0,80.0
12420,64.0,0,450,4.0,60.0
12421,80.0,0,1440,8.0,41.0
12422,53.0,0,60,3.0,50.0
12423,65.0,0,60,3.0,50.0
12424,69.0,120,60,2.0,50.0
12425,81.0,0,60,1.0,50.0
12426,84.0,0,60,0.0,62.0
12427,65.0,0,96,12.0,104.0
12428,57.0,0,96,11.0,104.0
12429,72.0,0,96,10.0,78.0
12430,81.0,0,96,8.0,78.0
12431,65.0,0,114,4.0,70.0
12432,69.0,0,60,2.0,50.0
12433,72.0,0,60,2.0,50.0
12434,41.0,0,60,3.0,50.0
12435,53.0,0,60,3.0,50.0
12436,93.0,120,60,0.0,89.0
12437,81.0,0,60,1.0,50.0
12438,84.0,0,60,0.0,71.0
12439,53.0,0,192,15.0,104.0
12440,53.0,0,60,3.0,50.0
12441,72.0,0,60,2.0,50.0
12442,84.0,0,60,0.0,71.0
12443,91.0,0,60,0.0,89.0
12444,69.0,0,60,2.0,50.0
12445,41.0,120,60,3.0,50.0
12446,81.0,0,60,1.0,50.0
12447,53.0,0,48,12.0,104.0
12448,89.0,120,60,0.0,89.0
12449,53.0,0,60,3.0,50.0
12450,81.0,0,60,1.0,50.0
12451,72.0,0,60,2.0,50.0
12452,84.0,0,60,0.0,71.0
12453,69.0,0,60,2.0,50.0
12454,41.0,0,60,3.0,50.0
12455,60.0,0,48,12.0,104.0
12456,60.0,0,60,3.0,50.0
12457,72.0,0,60,2.0,50.0
12458,79.0,0,60,1.0,50.0
12459,88.0,0,60,0.0,89.0
12460,67.0,120,60,2.0,50.0
12461,84.0,0,60,0.0,71.0
12462,48.0,0,60,3.0,50.0
12463,79.0,120,60,1.0,50.0
12464,72.0,0,60,2.0,50.0
12465,67.0,0,60,2.0,50.0
12466,84.0,0,60,0.0,71.0
12467,48.0,0,60,3.0,50.0
12468,36.0,0,60,3.0,50.0
12469,91.0,0,60,0.0,89.0
12470,36.0,0,192,15.0,104.0
12471,48.0,0,60,3.0,50.0
12472,84.0,0,60,0.0,71.0
12473,79.0,0,60,1.0,50.0
12474,72.0,0,60,2.0,50.0
12475,67.0,0,60,2.0,50.0
12476,36.0,120,60,3.0,50.0
12477,89.0,0,60,0.0,89.0
12478,48.0,0,48,12.0,104.0
12479,79.0,0,60,1.0,50.0
12480,84.0,0,60,0.0,71.0
12481,88.0,0,60,0.0,89.0
12482,72.0,0,60,2.0,50.0
12483,48.0,0,60,3.0,50.0
12484,36.0,0,60,3.0,50.0
12485,67.0,120,60,2.0,50.0
12486,50.0,120,48,12.0,104.0
12487,86.0,0,60,0.0,89.0
12488,81.0,0,60,0.0,71.0
12489,50.0,0,60,3.0,50.0
12490,69.0,0,60,2.0,50.0
12491,38.0,0,60,3.0,50.0
12492,77.0,0,60,1.0,50.0
12493,38.0,0,60,3.0,50.0
12494,69.0,0,60,2.0,50.0
12495,50.0,0,60,3.0,50.0
12496,65.0,0,60,2.0,50.0
12497,89.0,120,60,0.0,89.0
12498,81.0,0,60,1.0,50.0
12499,77.0,0,60,1.0,50.0
12500,38.0,0,192,15.0,104.0
12501,88.0,0,60,0.0,89.0
12502,50.0,0,60,3.0,50.0
12503,38.0,0,60,3.0,50.0
12504,69.0,120,60,2.0,50.0
12505,81.0,0,60,1.0,50.0
12506,77.0,0,60,1.0,50.0
12507,65.0,0,60,2.0,50.0
12508,50.0,120,48,12.0,104.0
12509,81.0,0,60,1.0,50.0
12510,77.0,0,60,1.0,50.0
12511,65.0,0,60,2.0,50.0
12512,69.0,0,60,2.0,50.0
12513,38.0,0,60,3.0,50.0
12514,50.0,0,60,3.0,50.0
12515,86.0,0,60,0.0,89.0
12516,57.0,0,48,12.0,104.0
12517,84.0,0,60,0.0,89.0
12518,69.0,0,60,2.0,50.0
12519,45.0,120,60,3.0,50.0
12520,57.0,0,60,3.0,50.0
12521,81.0,0,60,1.0,50.0
12522,76.0,0,60,1.0,50.0
12523,64.0,0,60,2.0,50.0
12524,64.0,0,60,2.0,50.0
12525,69.0,0,60,2.0,50.0
12526,57.0,120,60,3.0,50.0
12527,45.0,0,60,3.0,50.0
12528,88.0,0,60,0.0,89.0
12529,81.0,0,60,1.0,50.0
12530,76.0,0,60,1.0,50.0
12531,45.0,0,192,15.0,104.0
12532,76.0,0,60,1.0,50.0
12533,86.0,0,60,0.0,89.0
12534,57.0,0,60,3.0,50.0
12535,81.0,0,60,1.0,50.0
12536,45.0,120,60,3.0,50.0
12537,69.0,0,60,2.0,50.0
12538,64.0,0,60,2.0,50.0
12539,57.0,0,48,12.0,104.0
12540,45.0,0,60,3.0,50.0
12541,69.0,0,60,2.0,50.0
12542,57.0,120,60,3.0,50.0
12543,64.0,0,60,2.0,50.0
12544,76.0,0,60,1.0,50.0
12545,81.0,0,60,1.0,50.0
12546,84.0,0,60,0.0,89.0
12547,62.0,0,48,12.0,104.0
12548,65.0,0,60,2.0,50.0
12549,77.0,0,60,1.0,50.0
12550,62.0,0,60,2.0,50.0
12551,74.0,0,60,1.0,50.0
12552,50.0,0,60,3.0,50.0
12553,62.0,0,60,3.0,50.0
12554,83.0,0,60,0.0,89.0
12555,62.0,120,60,2.0,50.0
12556,62.0,0,60,3.0,50.0
12557,50.0,0,60,3.0,50.0
12558,65.0,0,60,2.0,50.0
12559,86.0,0,60,0.0,89.0
12560,77.0,0,60,1.0,50.0
12561,74.0,0,60,1.0,50.0
12562,50.0,120,192,15.0,104.0
12563,84.0,0,60,0.0,89.0
12564,62.0,0,60,2.0,50.0
12565,77.0,0,60,1.0,50.0
12566,74.0,0,60,1.0,50.0
12567,65.0,120,60,2.0,50.0
12568,62.0,0,60,3.0,50.0
12569,50.0,0,60,3.0,50.0
12570,62.0,0,48,12.0,104.0
12571,65.0,120,60,2.0,50.0
12572,83.0,0,60,0.0,89.0
12573,77.0,0,60,1.0,50.0
12574,50.0,0,60,3.0,50.0
12575,74.0,0,60,1.0,50.0
12576,62.0,0,60,3.0,50.0
12577,62.0,0,60,2.0,50.0
12578,65.0,0,48,12.0,104.0
12579,53.0,0,60,3.0,50.0
12580,81.0,120,60,0.0,89.0
12581,77.0,0,60,1.0,50.0
12582,72.0,0,60,1.0,50.0
12583,57.0,0,60,2.0,50.0
12584,65.0,0,60,2.0,50.0
12585,65.0,0,60,3.0,50.0
12586,65.0,0,60,2.0,50.0
12587,57.0,0,60,2.0,50.0
12588,53.0,0,60,3.0,50.0
12589,84.0,0,60,0.0,89.0
12590,65.0,120,60,3.0,50.0
12591,72.0,0,60,1.0,50.0
12592,77.0,0,60,1.0,50.0
12593,53.0,0,192,15.0,104.0
12594,77.0,0,60,1.0,50.0
12595,57.0,0,60,2.0,50.0
12596,72.0,0,60,1.0,50.0
12597,65.0,0,60,3.0,50.0
12598,65.0,0,60,2.0,50.0
12599,83.0,120,60,0.0,89.0
12600,53.0,0,60,3.0,50.0
12601,65.0,120,48,12.0,104.0
12602,65.0,0,60,3.0,50.0
12603,81.0,0,60,0.0,89.0
12604,53.0,0,60,3.0,50.0
12605,72.0,0,60,1.0,50.0
12606,65.0,0,60,2.0,50.0
12607,57.0,0,60,2.0,50.0
12608,77.0,0,60,1.0,50.0
12609,67.0,0,48,12.0,104.0
12610,71.0,0,60,1.0,43.0
12611,74.0,120,60,1.0,43.0
12612,67.0,0,60,3.0,43.0
12613,55.0,0,60,3.0,43.0
12614,62.0,0,60,2.0,43.0
12615,79.0,0,60,0.0,86.0
12616,59.0,0,60,2.0,43.0
12617,71.0,0,60,1.0,43.0
12618,62.0,0,60,2.0,43.0
12619,83.0,0,60,0.0,86.0
12620,67.0,0,60,3.0,43.0
12621,55.0,120,60,3.0,43.0
12622,74.0,0,60,1.0,43.0
12623,59.0,0,60,2.0,43.0
12624,55.0,0,192,15.0,104.0
12625,55.0,0,60,3.0,43.0
12626,67.0,0,60,3.0,43.0
12627,59.0,0,60,2.0,37.0
12628,62.0,0,60,2.0,37.0
12629,81.0,0,60,0.0,72.0
12630,71.0,120,60,1.0,43.0
12631,74.0,0,60,1.0,43.0
12632,67.0,0,48,12.0,88.0
12633,67.0,0,60,3.0,37.0
12634,55.0,0,60,3.0,37.0
12635,59.0,0,60,2.0,37.0
12636,62.0,120,60,2.0,37.0
12637,79.0,0,60,0.0,72.0
12638,71.0,0,60,1.0,37.0
12639,74.0,0,60,1.0,37.0
12640,69.0,0,48,12.0,75.0
12641,57.0,0,60,3.0,31.0
12642,77.0,120,60,0.0,62.0
12643,69.0,0,60,1.0,31.0
12644,69.0,0,60,3.0,31.0
12645,72.0,0,60,1.0,31.0
12646,57.0,0,60,2.0,31.0
12647,60.0,0,60,2.0,31.0
12648,57.0,0,60,3.0,31.0
12649,60.0,0,60,3.0,31.0
12650,69.0,120,60,2.0,31.0
12651,72.0,0,60,1.0,31.0
12652,69.0,0,60,1.0,31.0
12653,81.0,0,60,0.0,62.0
12654,57.0,0,192,15.0,75.0
12655,45.0,0,48,12.0,64.0
12656,69.0,0,60,1.0,26.0
12657,57.0,0,60,3.0,31.0
12658,60.0,0,60,3.0,31.0
12659,72.0,0,60,1.0,26.0
12660,79.0,120,60,0.0,53.0
12661,69.0,0,60,2.0,26.0
12662,77.0,0,60,0.0,53.0
12663,69.0,120,60,1.0,26.0
12664,69.0,0,60,2.0,26.0
12665,60.0,0,60,3.0,26.0
12666,57.0,0,60,3.0,26.0
12667,72.0,0,60,1.0,26.0
12668,33.0,0,192,15.0,64.0
12669,45.0,120,60,12.0,40.0
12670,59.0,0,240,3.0,32.0
12671,71.0,0,240,1.0,44.0
12672,68.0,120,240,2.0,32.0
12673,56.0,0,240,3.0,32.0
12674,43.0,0,60,12.0,40.0
12675,41.0,120,60,12.0,40.0
12676,40.0,120,60,12.0,40.0
12677,76.0,0,540,0.0,55.0
12678,72.0,0,384,1.0,33.0
12679,60.0,0,384,3.0,27.0
12680,57.0,120,384,3.0,27.0
12681,69.0,0,384,2.0,24.0
12682,81.0,120,60,0.0,55.0
12683,79.0,0,60,0.0,55.0
12684,77.0,120,60,0.0,55.0
12685,69.0,0,192,2.0,20.0
12686,60.0,120,192,3.0,22.0
12687,57.0,0,192,3.0,22.0
12688,72.0,0,192,1.0,28.0
12689,45.0,120,60,12.0,40.0
12690,76.0,120,192,0.0,44.0
12691,59.0,0,240,3.0,32.0
12692,71.0,0,240,1.0,44.0
12693,68.0,0,240,2.0,32.0
12694,56.0,0,240,3.0,32.0
12695,43.0,0,60,12.0,40.0
12696,41.0,120,60,12.0,40.0
12697,88.0,120,192,0.0,44.0
12698,40.0,120,60,12.0,40.0
12699,76.0,0,540,1.0,55.0
12700,60.0,0,384,3.0,26.0
12701,57.0,0,384,3.0,26.0
12702,72.0,0,384,1.0,35.0
12703,69.0,0,384,2.0,26.0
12704,81.0,120,60,1.0,55.0
12705,88.0,0,192,0.0,44.0
12706,79.0,0,60,1.0,55.0
12707,77.0,120,60,1.0,55.0
12708,57.0,0,192,3.0,21.0
12709,72.0,0,192,1.0,29.0
12710,69.0,0,192,2.0,21.0
12711,60.0,0,192,3.0,21.0
12712,88.0,120,192,0.0,44.0
12713,45.0,120,60,12.0,40.0
12714,59.0,120,240,3.0,32.0
12715,56.0,0,240,3.0,32.0
12716,68.0,0,240,2.0,32.0
12717,71.0,0,240,1.0,44.0
12718,43.0,0,60,12.0,40.0
12719,41.0,120,60,12.0,40.0
12720,40.0,120,60,12.0,40.0
12721,88.0,0,540,0.0,72.0
12722,76.0,0,540,1.0,55.0
12723,72.0,120,360,1.0,35.0
12724,60.0,0,360,3.0,26.0
12725,69.0,0,0,2.0,26.0
12726,57.0,0,360,3.0,26.0
12727,69.0,120,60,4.0,40.0
12728,81.0,0,60,1.0,55.0
12729,93.0,0,60,0.0,72.0
12730,57.0,0,60,4.0,40.0
12731,50.0,0,114,3.0,26.0
12732,72.0,0,114,1.0,36.0
12733,62.0,0,114,3.0,26.0
12734,69.0,0,60,4.0,40.0
12735,79.0,0,60,1.0,55.0
12736,57.0,0,60,4.0,40.0
12737,91.0,120,60,0.0,72.0
12738,72.0,0,114,1.0,36.0
12739,48.0,0,114,3.0,26.0
12740,60.0,0,114,3.0,26.0
12741,69.0,0,114,2.0,26.0
12742,57.0,0,60,4.0,40.0
12743,69.0,0,60,4.0,40.0
12744,77.0,0,60,1.0,55.0
12745,89.0,120,60,0.0,72.0
12746,69.0,0,114,2.0,26.0
12747,47.0,0,114,3.0,26.0
12748,74.0,0,114,1.0,36.0
12749,59.0,0,114,3.0,26.0
12750,45.0,120,114,3.0,26.0
12751,88.0,0,114,0.0,36.0
12752,76.0,0,114,1.0,36.0
12753,57.0,0,114,3.0,26.0
12754,69.0,0,114,2.0,26.0
12755,57.0,0,120,4.0,40.0
12756,69.0,0,120,4.0,40.0
12757,45.0,0,60,6.0,26.0
12758,57.0,0,60,10.0,40.0
12759,69.0,0,60,8.0,40.0
12760,69.0,0,60,5.0,26.0
12761,57.0,0,60,5.0,26.0
12762,53.0,0,60,11.0,40.0
12763,41.0,120,60,12.0,40.0
12764,40.0,0,60,12.0,40.0
12765,67.0,0,60,8.0,40.0
12766,57.0,0,60,10.0,40.0
12767,45.0,0,60,6.0,26.0
12768,57.0,0,60,5.0,26.0
12769,69.0,0,60,5.0,26.0
12770,52.0,120,60,11.0,40.0
12771,57.0,0,60,10.0,40.0
12772,38.0,120,60,12.0,40.0
12773,50.0,0,60,11.0,40.0
12774,57.0,0,60,5.0,26.0
12775,65.0,0,60,8.0,40.0
12776,69.0,0,60,5.0,26.0
12777,45.0,0,60,6.0,26.0
12778,36.0,120,60,12.0,40.0
12779,57.0,0,60,5.0,26.0
12780,45.0,0,60,6.0,26.0
12781,69.0,0,60,5.0,26.0
12782,57.0,0,60,10.0,40.0
12783,48.0,0,60,11.0,40.0
12784,64.0,0,60,8.0,40.0
12785,57.0,0,60,4.0,40.0
12786,45.0,120,60,4.0,40.0
12787,57.0,0,114,2.0,26.0
12788,69.0,0,114,2.0,26.0
12789,50.0,0,114,3.0,26.0
12790,38.0,0,114,3.0,26.0
12791,69.0,0,114,1.0,50.0
12792,89.0,0,114,0.0,36.0
12793,81.0,0,114,0.0,36.0
12794,45.0,0,60,4.0,40.0
12795,57.0,120,60,4.0,40.0
12796,81.0,0,114,0.0,36.0
12797,36.0,0,114,3.0,26.0
12798,48.0,0,114,3.0,26.0
12799,69.0,0,114,2.0,26.0
12800,69.0,0,114,1.0,50.0
12801,57.0,0,114,2.0,26.0
12802,88.0,0,114,0.0,36.0
12803,45.0,0,60,4.0,40.0
12804,57.0,0,60,4.0,40.0
12805,86.0,0,114,0.0,36.0
12806,83.0,120,114,0.0,36.0
12807,68.0,0,114,2.0,26.0
12808,59.0,0,114,2.0,26.0
12809,71.0,0,114,1.0,50.0
12810,47.0,0,180,3.0,26.0
12811,35.0,0,180,3.0,26.0
12812,69.0,0,114,0.0,36.0
12813,84.0,120,114,0.0,36.0
12814,33.0,120,60,3.0,26.0
12815,45.0,0,60,3.0,26.0
12816,36.0,0,60,3.0,26.0
12817,48.0,120,60,3.0,26.0
12818,40.0,120,60,3.0,26.0
12819,52.0,0,60,3.0,26.0
12820,45.0,0,60,3.0,26.0
12821,57.0,120,60,3.0,26.0
12822,60.0,0,684,2.0,26.0
12823,72.0,0,684,1.0,50.0
12824,64.0,0,240,8.0,32.0
12825,60.0,0,240,10.0,32.0
12826,57.0,0,240,11.0,32.0
12827,57.0,0,192,15.0,32.0
12828,45.0,0,192,15.0,32.0
12829,77.0,240,228,1.0,39.0
12830,65.0,0,228,2.0,39.0
12831,48.0,0,60,3.0,26.0
12832,36.0,0,60,3.0,26.0
12833,52.0,0,60,3.0,26.0
12834,40.0,120,60,3.0,26.0
12835,57.0,0,60,3.0,26.0
12836,45.0,120,60,3.0,26.0
12837,47.0,0,60,3.0,26.0
12838,59.0,120,60,3.0,26.0
12839,60.0,0,60,3.0,26.0
12840,48.0,0,60,3.0,26.0
12841,64.0,0,684,2.0,26.0
12842,76.0,240,684,1.0,50.0
12843,64.0,0,240,10.0,32.0
12844,60.0,0,240,11.0,32.0
12845,69.0,120,240,8.0,32.0
12846,36.0,0,192,15.0,32.0
12847,48.0,0,192,15.0,32.0
12848,69.0,0,228,2.0,39.0
12849,81.0,240,228,1.0,39.0
12850,64.0,0,1920,4.0,40.0
12851,35.0,0,60,3.0,26.0
12852,47.0,0,60,3.0,26.0
12853,50.0,0,60,3.0,26.0
12854,38.0,120,60,3.0,26.0
12855,80.0,0,226,1.0,28.0
12856,41.0,120,60,3.0,26.0
12857,53.0,0,60,3.0,26.0
12858,44.0,0,60,3.0,26.0
12859,56.0,120,60,3.0,26.0
12860,59.0,0,60,3.0,26.0
12861,47.0,0,60,3.0,26.0
12862,80.0,240,684,0.0,58.0
12863,68.0,0,684,2.0,26.0
12864,62.0,0,240,11.0,32.0
12865,65.0,120,240,10.0,32.0
12866,68.0,0,240,8.0,32.0
12867,35.0,0,192,15.0,32.0
12868,47.0,0,192,15.0,32.0
12869,86.0,0,228,0.0,39.0
12870,74.0,240,228,2.0,39.0
12871,50.0,240,60,3.0,26.0
12872,38.0,0,60,3.0,26.0
12873,41.0,0,60,3.0,26.0
12874,53.0,120,60,3.0,26.0
12875,56.0,120,60,3.0,26.0
12876,44.0,0,60,3.0,26.0
12877,59.0,0,60,3.0,26.0
12878,47.0,120,60,3.0,26.0
12879,65.0,0,1410,4.0,40.0
12880,50.0,0,60,3.0,26.0
12881,62.0,0,60,3.0,26.0
12882,71.0,0,684,2.0,26.0
12883,83.0,0,684,0.0,50.0
12884,62.0,240,0,10.0,38.0
12885,65.0,0,240,10.0,32.0
12886,71.0,0,240,8.0,32.0
12887,56.0,120,240,11.0,32.0
12888,57.0,0,192,5.0,40.0
12889,57.0,0,192,15.0,32.0
12890,45.0,0,192,15.0,32.0
12891,45.0,0,192,6.0,40.0
12892,77.0,0,228,2.0,39.0
12893,62.0,0,228,4.0,40.0
12894,89.0,0,228,0.0,39.0
12895,50.0,0,300,11.0,38.0
12896,74.0,0,300,8.0,32.0
12897,48.0,120,60,11.0,38.0
12898,72.0,0,60,8.0,32.0
12899,60.0,0,60,10.0,38.0
12900,57.0,240,192,5.0,40.0
12901,45.0,0,192,6.0,40.0
12902,64.0,0,228,4.0,40.0
12903,52.0,0,60,11.0,38.0
12904,64.0,120,60,10.0,38.0
12905,76.0,0,60,8.0,32.0
12906,80.0,120,60,8.0,32.0
12907,68.0,0,60,10.0,38.0
12908,56.0,0,60,11.0,38.0
12909,88.0,0,450,0.0,50.0
12910,76.0,0,450,2.0,26.0
12911,62.0,0,228,4.0,32.0
12912,81.0,120,120,8.0,32.0
12913,57.0,0,120,11.0,38.0
12914,69.0,0,120,10.0,38.0
12915,33.0,0,720,13.0,40.0
12916,45.0,0,720,12.0,40.0
12917,50.0,0,240,12.0,40.0
12918,38.0,240,240,13.0,40.0
12919,69.0,240,60,8.0,32.0
12920,57.0,0,60,11.0,38.0
12921,57.0,0,60,10.0,38.0
12922,60.0,120,60,10.0,38.0
12923,48.0,0,60,11.0,38.0
12924,72.0,0,60,8.0,32.0
12925,65.0,0,60,10.0,38.0
12926,77.0,120,60,8.0,32.0
12927,53.0,0,60,11.0,38.0
12928,67.0,120,60,10.0,38.0
12929,79.0,0,60,8.0,32.0
12930,55.0,0,60,11.0,38.0
12931,69.0,0,120,10.0,38.0
12932,81.0,120,120,8.0,32.0
12933,57.0,0,120,11.0,38.0
12934,48.0,0,720,12.0,44.0
12935,36.0,0,720,13.0,44.0
12936,53.0,0,240,12.0,44.0
12937,41.0,240,240,13.0,44.0
12938,60.0,0,60,10.0,38.0
12939,72.0,0,60,8.0,32.0
12940,48.0,0,60,11.0,38.0
12941,52.0,0,60,11.0,38.0
12942,76.0,0,60,8.0,32.0
12943,64.0,120,60,10.0,38.0
12944,55.0,0,60,11.0,38.0
12945,67.0,120,60,10.0,38.0
12946,79.0,0,60,8.0,32.0
12947,69.0,0,60,10.0,38.0
12948,81.0,120,60,8.0,32.0
12949,57.0,0,60,11.0,38.0
12950,58.0,0,120,11.0,38.0
12951,70.0,120,120,10.0,38.0
12952,82.0,0,120,8.0,32.0
12953,72.0,0,684,1.0,50.0
12954,52.0,240,720,12.0,48.0
12955,40.0,0,720,13.0,48.0
12956,79.0,0,228,1.0,55.0
12957,58.0,0,240,12.0,48.0
12958,46.0,240,240,13.0,48.0
12959,58.0,0,60,10.0,38.0
12960,70.0,0,60,8.0,32.0
12961,58.0,0,60,11.0,38.0
12962,55.0,0,60,11.0,38.0
12963,76.0,0,60,8.0,32.0
12964,64.0,120,60,10.0,38.0
12965,52.0,0,60,11.0,38.0
12966,64.0,120,60,10.0,38.0
12967,79.0,0,60,8.0,32.0
12968,65.0,120,60,10.0,38.0
12969,81.0,0,60,8.0,32.0
12970,50.0,0,60,11.0,38.0
12971,82.0,120,120,8.0,32.0
12972,48.0,0,120,11.0,38.0
12973,67.0,0,120,10.0,38.0
12974,76.0,0,684,1.0,36.0
12975,43.0,0,720,13.0,58.0
12976,55.0,240,720,12.0,58.0
12977,82.0,240,240,0.0,39.0
12978,62.0,0,240,12.0,58.0
12979,50.0,0,240,13.0,58.0
12980,48.0,0,60,13.0,58.0
12981,60.0,0,60,12.0,58.0
12982,48.0,120,60,12.0,38.0
12983,36.0,0,60,13.0,38.0
12984,60.0,0,3586,4.0,26.0
12985,88.0,240,240,0.0,55.0
12986,82.0,0,480,1.0,39.0
12987,41.0,120,60,13.0,38.0
12988,53.0,0,60,12.0,38.0
12989,45.0,0,60,13.0,38.0
12990,57.0,120,60,12.0,38.0
12991,89.0,0,228,0.0,44.0
12992,81.0,0,228,1.0,39.0
12993,69.0,0,48,1.0,38.0
12994,45.0,0,48,3.0,38.0
12995,57.0,120,48,2.0,38.0
12996,81.0,0,48,0.0,38.0
12997,60.0,0,120,12.0,38.0
12998,48.0,0,120,13.0,38.0
12999,48.0,120,48,3.0,38.0
13000,60.0,0,48,2.0,38.0
13001,72.0,0,48,1.0,38.0
13002,84.0,0,48,0.0,38.0
13003,60.0,0,480,11.0,40.0
13004,57.0,0,480,10.0,46.0
13005,69.0,0,480,8.0,46.0
13006,53.0,0,48,3.0,38.0
13007,77.0,120,48,1.0,38.0
13008,89.0,0,48,0.0,38.0
13009,65.0,0,48,2.0,38.0
13010,74.0,0,120,8.0,46.0
13011,62.0,0,120,10.0,46.0
13012,53.0,0,120,11.0,40.0
13013,93.0,0,48,0.0,38.0
13014,57.0,0,48,3.0,38.0
13015,81.0,120,48,1.0,38.0
13016,69.0,0,48,2.0,38.0
13017,72.0,0,120,8.0,37.0
13018,60.0,0,120,10.0,37.0
13019,72.0,0,48,2.0,38.0
13020,60.0,0,48,3.0,38.0
13021,84.0,0,48,1.0,38.0
13022,93.0,0,48,0.0,38.0
13023,33.0,120,60,13.0,46.0
13024,45.0,0,60,12.0,46.0
13025,69.0,0,144,5.0,32.0
13026,57.0,0,144,5.0,32.0
13027,36.0,120,60,13.0,38.0
13028,48.0,0,60,12.0,38.0
13029,45.0,0,192,6.0,32.0
13030,60.0,0,946,4.0,31.0
13031,50.0,0,60,12.0,38.0
13032,38.0,0,60,13.0,38.0
13033,40.0,0,60,13.0,38.0
13034,52.0,120,60,12.0,38.0
13035,45.0,0,48,3.0,38.0
13036,81.0,120,48,0.0,38.0
13037,57.0,0,48,2.0,38.0
13038,69.0,0,48,1.0,38.0
13039,53.0,0,120,12.0,38.0
13040,41.0,0,120,13.0,38.0
13041,84.0,0,48,0.0,38.0
13042,72.0,0,48,1.0,38.0
13043,48.0,120,48,3.0,38.0
13044,60.0,0,48,2.0,38.0
13045,72.0,0,480,8.0,46.0
13046,60.0,0,480,10.0,46.0
13047,57.0,120,480,11.0,40.0
13048,65.0,0,48,2.0,38.0
13049,53.0,0,48,3.0,38.0
13050,77.0,0,48,1.0,38.0
13051,89.0,0,48,0.0,38.0
13052,48.0,0,120,11.0,40.0
13053,67.0,120,120,10.0,46.0
13054,79.0,0,120,8.0,46.0
13055,81.0,0,48,1.0,38.0
13056,69.0,120,48,2.0,38.0
13057,57.0,0,48,3.0,38.0
13058,93.0,0,48,0.0,38.0
13059,65.0,0,120,10.0,37.0
13060,77.0,0,120,8.0,37.0
13061,58.0,0,48,3.0,38.0
13062,82.0,0,48,0.0,38.0
13063,70.0,0,48,2.0,38.0
13064,82.0,0,48,1.0,38.0
13065,31.0,120,60,13.0,46.0
13066,43.0,0,60,12.0,46.0
13067,46.0,0,60,12.0,38.0
13068,34.0,120,60,13.0,38.0
13069,60.0,0,946,4.0,31.0
13070,48.0,0,60,12.0,38.0
13071,36.0,0,60,13.0,38.0
13072,52.0,120,60,12.0,38.0
13073,40.0,0,60,13.0,38.0
13074,64.0,0,48,1.0,38.0
13075,64.0,0,48,2.0,38.0
13076,76.0,0,48,0.0,38.0
13077,52.0,0,48,3.0,38.0
13078,43.0,120,120,13.0,38.0
13079,55.0,0,120,12.0,38.0
13080,67.0,0,48,1.0,38.0
13081,79.0,0,48,0.0,38.0
13082,55.0,0,48,2.0,38.0
13083,55.0,120,48,3.0,38.0
13084,64.0,120,480,10.0,46.0
13085,70.0,0,480,11.0,40.0
13086,76.0,0,480,8.0,46.0
13087,60.0,0,48,2.0,38.0
13088,84.0,0,48,0.0,38.0
13089,48.0,0,48,3.0,38.0
13090,72.0,120,48,1.0,38.0
13091,84.0,0,120,8.0,46.0
13092,72.0,0,120,10.0,46.0
13093,64.0,0,120,11.0,40.0
13094,88.0,0,48,0.0,38.0
13095,52.0,0,48,3.0,38.0
13096,64.0,120,48,2.0,38.0
13097,76.0,0,48,1.0,38.0
13098,82.0,0,120,8.0,37.0
13099,70.0,0,120,10.0,37.0
13100,55.0,0,48,3.0,38.0
13101,91.0,120,48,0.0,38.0
13102,67.0,0,48,2.0,38.0
13103,79.0,0,48,1.0,38.0
13104,34.0,0,60,13.0,46.0
13105,46.0,0,60,12.0,46.0
13106,36.0,120,60,13.0,38.0
13107,48.0,0,60,12.0,38.0
13108,60.0,0,946,4.0,31.0
13109,52.0,120,60,12.0,38.0
13110,40.0,0,60,13.0,38.0
13111,43.0,0,60,13.0,38.0
13112,55.0,120,60,12.0,38.0
13113,43.0,0,48,3.0,38.0
13114,67.0,0,48,1.0,38.0
13115,79.0,120,48,0.0,38.0
13116,55.0,0,48,2.0,38.0
13117,58.0,0,120,12.0,38.0
13118,46.0,0,120,13.0,38.0
13119,60.0,0,48,2.0,38.0
13120,72.0,120,48,1.0,38.0
13121,84.0,0,48,0.0,38.0
13122,48.0,0,48,3.0,38.0
13123,79.0,0,480,8.0,46.0
13124,67.0,0,480,10.0,46.0
13125,58.0,0,480,11.0,40.0
13126,64.0,0,48,2.0,38.0
13127,52.0,0,48,3.0,38.0
13128,88.0,0,48,0.0,38.0
13129,76.0,0,48,1.0,38.0
13130,48.0,0,120,11.0,40.0
13131,86.0,120,120,8.0,46.0
13132,74.0,0,120,10.0,46.0
13133,91.0,120,48,0.0,38.0
13134,79.0,0,48,1.0,38.0
13135,55.0,0,48,3.0,38.0
13136,67.0,0,48,2.0,38.0
13137,84.0,120,0,8.0,41.0
13138,72.0,0,120,10.0,37.0
13139,65.0,0,48,2.0,38.0
13140,48.0,0,60,11.0,48.0
13141,57.0,0,96,12.0,48.0
13142,84.0,0,60,8.0,41.0
13143,60.0,0,946,4.0,31.0
13144,53.0,120,120,11.0,48.0
13145,86.0,120,60,8.0,41.0
13146,48.0,0,96,12.0,48.0
13147,52.0,0,120,11.0,48.0
13148,88.0,0,60,8.0,41.0
13149,50.0,120,60,11.0,48.0
13150,48.0,0,60,11.0,48.0
13151,36.0,0,96,12.0,48.0
13152,77.0,0,600,10.0,59.0
13153,69.0,0,144,5.0,32.0
13154,57.0,120,144,5.0,32.0
13155,48.0,0,60,11.0,48.0
13156,81.0,120,60,10.0,59.0
13157,45.0,0,192,6.0,32.0
13158,48.0,0,60,11.0,48.0
13159,79.0,120,60,10.0,59.0
13160,77.0,0,60,10.0,59.0
13161,48.0,120,60,11.0,48.0
13162,48.0,0,60,11.0,48.0
13163,89.0,0,540,8.0,41.0
13164,57.0,0,336,12.0,48.0
13165,84.0,0,60,8.0,41.0
13166,60.0,0,946,4.0,31.0
13167,53.0,120,120,11.0,48.0
13168,86.0,0,60,8.0,41.0
13169,48.0,0,96,12.0,48.0
13170,52.0,0,120,11.0,48.0
13171,88.0,120,60,8.0,41.0
13172,50.0,0,60,11.0,48.0
13173,48.0,120,60,11.0,48.0
13174,36.0,0,96,12.0,48.0
13175,77.0,120,600,10.0,59.0
13176,57.0,0,144,5.0,32.0
13177,69.0,0,144,5.0,32.0
13178,48.0,120,60,11.0,48.0
13179,81.0,0,60,10.0,59.0
13180,45.0,0,192,6.0,32.0
13181,89.0,0,226,8.0,47.0
13182,88.0,90,20,8.0,28.0
13183,86.0,20,20,8.0,28.0
13184,82.0,10,20,8.0,28.0
13185,48.0,0,60,11.0,48.0
13186,79.0,10,60,10.0,59.0
13187,57.0,0,96,12.0,48.0
13188,77.0,90,60,10.0,59.0
13189,48.0,0,60,11.0,48.0
13190,81.0,20,204,8.0,47.0
13191,48.0,0,60,11.0,48.0
13192,82.0,0,60,10.0,47.0
13193,55.0,120,96,12.0,48.0
13194,79.0,120,60,10.0,47.0
13195,60.0,120,946,4.0,31.0
13196,55.0,0,120,11.0,48.0
13197,81.0,120,60,10.0,47.0
13198,48.0,0,96,12.0,48.0
13199,52.0,0,120,11.0,48.0
13200,50.0,120,60,11.0,48.0
13201,82.0,0,60,10.0,47.0
13202,89.0,0,2400,0.0,38.0
13203,53.0,0,2400,3.0,38.0
13204,48.0,0,60,11.0,48.0
13205,36.0,0,96,12.0,48.0
13206,82.0,0,600,8.0,41.0
13207,72.0,0,144,5.0,32.0
13208,48.0,0,60,11.0,48.0
13209,86.0,120,60,8.0,41.0
13210,48.0,120,60,11.0,48.0
13211,84.0,0,60,8.0,41.0
13212,82.0,0,60,8.0,41.0
13213,48.0,120,60,11.0,48.0
13214,82.0,0,540,10.0,47.0
13215,48.0,0,60,11.0,48.0
13216,55.0,0,336,12.0,48.0
13217,76.0,0,60,10.0,47.0
13218,60.0,0,946,4.0,31.0
13219,55.0,120,120,11.0,48.0
13220,79.0,0,60,10.0,47.0
13221,48.0,0,96,12.0,48.0
13222,52.0,0,120,11.0,48.0
13223,81.0,120,60,10.0,47.0
13224,50.0,0,60,11.0,48.0
13225,48.0,0,60,11.0,48.0
13226,82.0,120,60,10.0,47.0
13227,36.0,0,96,12.0,48.0
13228,82.0,120,600,8.0,41.0
13229,72.0,0,144,5.0,32.0
13230,82.0,0,60,10.0,47.0
13231,48.0,120,60,11.0,48.0
13232,86.0,0,60,8.0,41.0
13233,84.0,0,60,8.0,41.0
13234,81.0,120,60,10.0,47.0
13235,48.0,0,60,11.0,48.0
13236,55.0,0,96,12.0,48.0
13237,82.0,0,60,8.0,41.0
13238,79.0,120,60,10.0,47.0
13239,48.0,0,60,11.0,48.0
13240,88.0,0,1440,0.0,38.0
13241,72.0,0,0,1.0,40.0
13242,52.0,120,1440,3.0,38.0
13243,81.0,120,60,8.0,39.0
13244,48.0,0,60,11.0,48.0
13245,77.0,0,60,10.0,49.0
13246,57.0,0,96,12.0,48.0
13247,69.0,120,60,8.0,39.0
13248,65.0,0,60,10.0,49.0
13249,60.0,120,946,4.0,31.0
13250,53.0,0,120,11.0,48.0
13251,67.0,0,60,10.0,49.0
13252,70.0,0,60,8.0,39.0
13253,48.0,0,96,12.0,48.0
13254,52.0,0,120,11.0,48.0
13255,69.0,0,60,10.0,49.0
13256,50.0,0,60,11.0,48.0
13257,72.0,120,60,8.0,39.0
13258,48.0,120,60,11.0,48.0
13259,36.0,0,96,12.0,48.0
13260,89.0,0,600,0.0,61.0
13261,53.0,0,600,3.0,49.0
13262,45.0,0,144,6.0,32.0
13263,69.0,0,144,5.0,32.0
13264,57.0,0,144,5.0,32.0
13265,57.0,0,60,11.0,48.0
13266,57.0,120,60,3.0,49.0
13267,93.0,0,60,0.0,61.0
13268,53.0,0,60,11.0,48.0
13269,55.0,0,60,3.0,49.0
13270,91.0,120,60,0.0,61.0
13271,58.0,0,60,11.0,48.0
13272,55.0,0,60,11.0,48.0
13273,53.0,0,60,3.0,49.0
13274,89.0,120,60,0.0,61.0
13275,57.0,0,60,11.0,48.0
13276,60.0,0,60,11.0,48.0
13277,72.0,0,540,8.0,39.0
13278,69.0,0,540,10.0,49.0
13279,57.0,0,336,12.0,48.0
13280,65.0,0,60,10.0,49.0
13281,69.0,120,60,8.0,39.0
13282,60.0,120,946,4.0,39.0
13283,70.0,0,60,8.0,39.0
13284,67.0,0,60,10.0,49.0
13285,48.0,0,96,12.0,48.0
13286,69.0,120,60,10.0,49.0
13287,72.0,0,60,8.0,39.0
13288,60.0,120,540,11.0,48.0
13289,57.0,0,540,11.0,48.0
13290,36.0,0,96,12.0,48.0
13291,89.0,0,600,0.0,61.0
13292,53.0,0,600,3.0,49.0
13293,45.0,0,144,6.0,32.0
13294,57.0,0,144,5.0,32.0
13295,69.0,0,144,5.0,32.0
13296,57.0,120,60,11.0,48.0
13297,53.0,0,60,11.0,48.0
13298,57.0,0,60,3.0,49.0
13299,93.0,0,60,0.0,61.0
13300,55.0,120,60,3.0,49.0
13301,58.0,0,60,11.0,48.0
13302,91.0,0,60,0.0,61.0
13303,55.0,0,60,11.0,48.0
13304,57.0,0,96,12.0,48.0
13305,60.0,0,60,11.0,48.0
13306,57.0,0,60,11.0,48.0
13307,89.0,120,60,0.0,61.0
13308,53.0,0,60,3.0,49.0
13309,69.0,120,540,10.0,49.0
13310,72.0,0,540,8.0,39.0
13311,55.0,0,96,12.0,48.0
13312,76.0,120,60,8.0,49.0
13313,67.0,0,60,10.0,49.0
13314,60.0,120,946,4.0,39.0
13315,69.0,0,60,10.0,49.0
13316,77.0,0,60,8.0,49.0
13317,48.0,0,96,12.0,48.0
13318,79.0,0,60,8.0,49.0
13319,70.0,120,60,10.0,49.0
13320,53.0,0,480,3.0,49.0
13321,89.0,0,480,0.0,61.0
13322,58.0,0,540,11.0,48.0
13323,67.0,120,540,11.0,48.0
13324,36.0,0,96,12.0,48.0
13325,82.0,0,600,1.0,44.0
13326,70.0,0,600,2.0,44.0
13327,72.0,0,144,5.0,32.0
13328,74.0,0,60,2.0,44.0
13329,64.0,0,60,11.0,48.0
13330,86.0,0,60,1.0,44.0
13331,55.0,120,60,11.0,48.0
13332,84.0,0,60,1.0,44.0
13333,65.0,0,60,11.0,48.0
13334,57.0,0,60,11.0,48.0
13335,72.0,120,60,2.0,44.0
13336,82.0,0,60,1.0,44.0
13337,70.0,0,60,2.0,44.0
13338,58.0,120,60,11.0,48.0
13339,67.0,0,60,11.0,48.0
13340,70.0,120,540,10.0,49.0
13341,79.0,0,540,8.0,49.0
13342,55.0,0,336,12.0,48.0
13343,76.0,120,60,8.0,61.0
13344,67.0,0,60,10.0,49.0
13345,60.0,120,946,4.0,39.0
13346,67.0,0,946,4.0,39.0
13347,77.0,0,60,8.0,61.0
13348,69.0,0,60,10.0,49.0
13349,48.0,0,96,12.0,48.0
13350,70.0,120,60,10.0,49.0
13351,79.0,0,60,8.0,61.0
13352,58.0,0,540,11.0,48.0
13353,67.0,0,540,11.0,48.0
13354,36.0,0,96,12.0,48.0
13355,82.0,0,600,1.0,44.0
13356,70.0,120,600,2.0,44.0
13357,72.0,120,144,5.0,32.0
13358,86.0,120,60,1.0,44.0
13359,55.0,0,60,11.0,48.0
13360,64.0,0,60,11.0,48.0
13361,74.0,0,60,2.0,44.0
13362,65.0,0,60,11.0,48.0
13363,57.0,0,60,11.0,48.0
13364,72.0,120,60,2.0,44.0
13365,84.0,0,60,1.0,44.0
13366,58.0,0,96,12.0,48.0
13367,67.0,0,60,11.0,48.0
13368,70.0,120,60,2.0,44.0
13369,82.0,0,60,1.0,44.0
13370,58.0,0,60,11.0,48.0
13371,70.0,0,450,10.0,49.0
13372,79.0,0,450,8.0,61.0
13373,88.0,0,1440,0.0,51.0
13374,70.0,0,60,2.0,41.0
13375,52.0,0,1500,3.0,41.0
13376,82.0,0,60,1.0,41.0
13377,70.0,0,60,1.0,41.0
13378,58.0,0,96,12.0,54.0
13379,76.0,120,120,10.0,75.0
13380,76.0,0,60,1.0,41.0
13381,64.0,0,60,3.0,41.0
13382,67.0,120,60,2.0,41.0
13383,79.0,0,60,1.0,41.0
13384,55.0,0,60,3.0,41.0
13385,76.0,0,60,2.0,41.0
13386,64.0,0,946,4.0,39.0
13387,58.0,120,946,4.0,39.0
13388,67.0,0,946,4.0,39.0
13389,57.0,0,60,3.0,41.0
13390,65.0,0,60,3.0,41.0
13391,77.0,0,60,2.0,41.0
13392,81.0,0,60,1.0,41.0
13393,77.0,0,60,1.0,41.0
13394,69.0,120,60,2.0,41.0
13395,49.0,0,96,12.0,54.0
13396,58.0,0,60,3.0,41.0
13397,79.0,0,60,1.0,41.0
13398,82.0,120,60,1.0,41.0
13399,79.0,0,60,2.0,41.0
13400,70.0,0,60,2.0,41.0
13401,67.0,0,60,3.0,41.0
13402,67.0,0,540,11.0,45.0
13403,58.0,0,540,11.0,45.0
13404,64.0,0,300,10.0,75.0
13405,37.0,0,96,12.0,54.0
13406,91.0,0,600,0.0,53.0
13407,79.0,0,600,8.0,60.0
13408,74.0,120,144,5.0,38.0
13409,64.0,0,60,11.0,45.0
13410,79.0,120,60,10.0,75.0
13411,55.0,0,60,11.0,45.0
13412,82.0,0,72,8.0,60.0
13413,94.0,0,72,0.0,53.0
13414,65.0,0,60,11.0,45.0
13415,57.0,0,60,11.0,45.0
13416,77.0,120,60,10.0,75.0
13417,93.0,0,72,0.0,53.0
13418,81.0,0,72,8.0,60.0
13419,58.0,0,60,11.0,45.0
13420,67.0,120,60,11.0,45.0
13421,76.0,0,60,10.0,75.0
13422,79.0,0,72,8.0,60.0
13423,91.0,0,72,0.0,53.0
13424,82.0,0,540,1.0,41.0
13425,79.0,0,540,1.0,41.0
13426,70.0,0,540,2.0,41.0
13427,79.0,0,540,2.0,41.0
13428,58.0,0,540,3.0,41.0
13429,67.0,0,540,3.0,41.0
13430,58.0,0,336,12.0,67.0
13431,76.0,0,120,10.0,94.0
13432,64.0,0,60,3.0,44.0
13433,76.0,0,60,2.0,44.0
13434,55.0,0,60,3.0,44.0
13435,67.0,0,60,2.0,44.0
13436,79.0,120,60,1.0,44.0
13437,76.0,0,60,1.0,44.0
13438,58.0,0,946,4.0,37.0
13439,67.0,0,946,4.0,37.0
13440,64.0,0,946,4.0,37.0
13441,81.0,0,60,1.0,44.0
13442,69.0,0,60,2.0,44.0
13443,57.0,0,60,3.0,44.0
13444,65.0,0,60,3.0,44.0
13445,77.0,0,60,1.0,44.0
13446,77.0,0,60,2.0,44.0
13447,49.0,0,96,12.0,80.0
13448,67.0,0,60,3.0,44.0
13449,70.0,120,60,2.0,44.0
13450,79.0,0,60,1.0,44.0
13451,82.0,0,60,1.0,44.0
13452,79.0,0,60,2.0,44.0
13453,58.0,0,60,3.0,44.0
13454,55.0,0,540,11.0,67.0
13455,58.0,0,540,11.0,67.0
13456,64.0,120,300,10.0,94.0
13457,79.0,120,552,8.0,60.0
13458,91.0,0,552,0.0,66.0
13459,37.0,0,96,12.0,80.0
13460,74.0,0,144,5.0,38.0
13461,79.0,0,60,10.0,94.0
13462,52.0,0,60,11.0,67.0
13463,55.0,120,60,11.0,67.0
13464,94.0,0,72,0.0,66.0
13465,94.0,0,72,8.0,60.0
13466,64.0,0,450,4.0,29.0
13467,67.0,0,450,4.0,29.0
13468,57.0,0,60,11.0,67.0
13469,77.0,0,60,10.0,94.0
13470,53.0,0,60,11.0,67.0
13471,93.0,0,72,0.0,66.0
13472,93.0,0,72,8.0,60.0
13473,58.0,120,96,12.0,80.0
13474,55.0,120,60,11.0,67.0
13475,58.0,0,60,11.0,67.0
13476,76.0,0,60,10.0,94.0
13477,91.0,0,72,8.0,60.0
13478,91.0,0,72,0.0,66.0
13479,58.0,0,450,3.0,52.0
13480,79.0,0,450,1.0,52.0
13481,82.0,120,450,1.0,52.0
13482,67.0,0,450,3.0,52.0
13483,70.0,0,450,2.0,52.0
13484,79.0,0,450,2.0,52.0
13485,55.0,0,60,11.0,56.0
13486,58.0,0,60,11.0,56.0
13487,76.0,0,72,10.0,60.0
13488,37.0,0,72,13.0,60.0
13489,49.0,0,72,12.0,60.0
13490,61.0,0,72,2.0,42.0
13491,88.0,0,72,8.0,60.0
13492,49.0,0,72,3.0,42.0
13493,76.0,0,72,1.0,42.0
13494,88.0,0,72,0.0,42.0
13495,64.0,0,120,4.0,75.0
13496,67.0,0,120,4.0,75.0
13497,69.0,0,120,5.0,75.0
13498,76.0,120,120,5.0,75.0
13499,58.0,0,120,4.0,75.0
13500,55.0,120,72,13.0,60.0
13501,79.0,0,72,1.0,42.0
13502,79.0,0,72,2.0,42.0
13503,79.0,0,72,10.0,60.0
13504,45.0,0,192,6.0,56.0
13505,91.0,0,72,0.0,42.0
13506,67.0,0,72,12.0,60.0
13507,67.0,0,72,3.0,42.0
13508,91.0,0,72,8.0,60.0
13509,77.0,0,72,1.0,42.0
13510,53.0,120,72,13.0,60.0
13511,65.0,0,72,3.0,42.0
13512,77.0,0,72,10.0,60.0
13513,89.0,0,72,8.0,60.0
13514,77.0,0,72,2.0,42.0
13515,65.0,0,72,12.0,60.0
13516,89.0,0,72,0.0,42.0
13517,88.0,0,72,0.0,42.0
13518,64.0,120,72,12.0,60.0
13519,76.0,0,72,2.0,42.0
13520,52.0,0,72,13.0,60.0
13521,64.0,0,72,3.0,42.0
13522,76.0,0,72,10.0,60.0
13523,88.0,0,72,8.0,60.0
13524,76.0,0,72,1.0,42.0
13525,73.0,0,72,2.0,42.0
13526,73.0,0,72,10.0,60.0
13527,61.0,0,72,12.0,60.0
13528,61.0,0,72,3.0,42.0
13529,73.0,0,72,1.0,42.0
13530,85.0,120,72,8.0,60.0
13531,85.0,0,72,0.0,42.0
13532,49.0,0,72,13.0,60.0
13533,69.0,0,120,5.0,75.0
13534,76.0,0,120,5.0,75.0
13535,58.0,0,120,4.0,75.0
13536,67.0,0,120,4.0,75.0
13537,64.0,0,120,4.0,75.0
13538,88.0,0,72,0.0,42.0
13539,52.0,0,72,13.0,60.0
13540,76.0,0,72,1.0,42.0
13541,76.0,0,72,10.0,60.0
13542,76.0,0,72,2.0,42.0
13543,64.0,120,72,3.0,42.0
13544,88.0,0,72,8.0,60.0
13545,45.0,0,192,6.0,56.0
13546,64.0,0,72,12.0,60.0
13547,50.0,0,72,13.0,60.0
13548,86.0,0,72,0.0,42.0
13549,74.0,0,72,1.0,42.0
13550,74.0,0,72,2.0,42.0
13551,86.0,0,72,8.0,60.0
13552,62.0,0,72,3.0,42.0
13553,74.0,120,72,10.0,60.0
13554,62.0,0,72,12.0,60.0
13555,73.0,0,72,1.0,42.0
13556,85.0,0,72,0.0,42.0
13557,85.0,0,72,8.0,60.0
13558,73.0,0,72,10.0,60.0
13559,49.0,120,72,13.0,60.0
13560,61.0,0,72,3.0,42.0
13561,73.0,0,72,2.0,42.0
13562,61.0,0,72,12.0,60.0
13563,79.0,0,72,0.0,42.0
13564,79.0,0,72,1.0,42.0
13565,43.0,0,72,13.0,60.0
13566,67.0,0,72,10.0,60.0
13567,55.0,0,72,12.0,60.0
13568,55.0,120,72,3.0,42.0
13569,79.0,0,72,8.0,60.0
13570,67.0,0,72,2.0,42.0
13571,67.0,0,120,4.0,75.0
13572,64.0,0,120,4.0,75.0
13573,69.0,0,120,5.0,75.0
13574,58.0,0,120,4.0,75.0
13575,76.0,0,120,5.0,75.0
13576,58.0,120,72,12.0,60.0
13577,46.0,0,72,13.0,60.0
13578,70.0,0,72,2.0,42.0
13579,70.0,0,72,10.0,60.0
13580,82.0,0,72,8.0,60.0
13581,82.0,0,72,0.0,42.0
13582,82.0,0,72,1.0,42.0
13583,58.0,0,72,3.0,42.0
13584,45.0,0,192,6.0,56.0
13585,57.0,0,72,12.0,60.0
13586,69.0,120,72,10.0,60.0
13587,45.0,0,72,13.0,60.0
13588,69.0,0,72,2.0,42.0
13589,81.0,0,72,0.0,42.0
13590,81.0,0,72,8.0,60.0
13591,57.0,0,72,3.0,42.0
13592,81.0,0,72,1.0,42.0
13593,43.0,0,72,13.0,60.0
13594,67.0,0,72,2.0,42.0
13595,67.0,0,72,10.0,60.0
13596,79.0,0,72,1.0,42.0
13597,79.0,0,72,0.0,42.0
13598,55.0,0,72,12.0,60.0
13599,55.0,120,72,3.0,42.0
13600,79.0,0,72,8.0,60.0
13601,76.0,0,72,1.0,42.0
13602,52.0,0,72,12.0,60.0
13603,64.0,0,72,10.0,60.0
13604,76.0,0,72,8.0,60.0
13605,64.0,0,72,2.0,42.0
13606,52.0,0,72,3.0,42.0
13607,76.0,0,72,0.0,42.0
13608,40.0,0,72,13.0,60.0
13609,64.0,0,120,4.0,75.0
13610,67.0,0,120,4.0,75.0
13611,58.0,0,120,4.0,75.0
13612,76.0,0,120,5.0,75.0
13613,69.0,0,120,5.0,75.0
13614,67.0,0,72,10.0,60.0
13615,43.0,0,72,13.0,60.0
13616,67.0,0,72,2.0,42.0
13617,55.0,0,72,3.0,42.0
13618,79.0,0,72,1.0,42.0
13619,55.0,120,72,12.0,60.0
13620,45.0,120,192,6.0,56.0
13621,79.0,0,72,8.0,60.0
13622,91.0,0,72,0.0,42.0
13623,65.0,0,72,10.0,60.0
13624,53.0,0,72,12.0,60.0
13625,89.0,0,72,0.0,42.0
13626,53.0,0,72,3.0,42.0
13627,65.0,120,72,2.0,42.0
13628,77.0,0,72,1.0,42.0
13629,41.0,0,72,13.0,60.0
13630,77.0,0,72,8.0,60.0
13631,64.0,0,72,10.0,60.0
13632,52.0,0,72,3.0,42.0
13633,64.0,0,72,2.0,42.0
13634,76.0,0,72,1.0,42.0
13635,52.0,0,72,12.0,60.0
13636,88.0,120,72,0.0,42.0
13637,40.0,0,72,13.0,60.0
13638,76.0,0,72,8.0,60.0
13639,49.0,0,72,12.0,60.0
13640,85.0,0,72,0.0,42.0
13641,73.0,0,72,2.0,42.0
13642,49.0,0,72,3.0,42.0
13643,73.0,0,72,1.0,42.0
13644,61.0,0,72,10.0,60.0
13645,37.0,0,72,13.0,60.0
13646,73.0,0,72,8.0,60.0
13647,64.0,120,120,4.0,75.0
13648,67.0,0,120,4.0,75.0
13649,58.0,0,120,4.0,75.0
13650,69.0,0,120,5.0,75.0
13651,76.0,0,120,5.0,75.0
13652,45.0,0,192,6.0,56.0
13653,52.0,0,72,12.0,60.0
13654,76.0,120,72,8.0,60.0
13655,76.0,0,72,1.0,42.0
13656,88.0,0,72,0.0,42.0
13657,52.0,0,72,3.0,42.0
13658,40.0,0,72,13.0,60.0
13659,76.0,0,72,2.0,42.0
13660,64.0,0,72,10.0,60.0
13661,50.0,120,72,3.0,42.0
13662,74.0,0,72,1.0,42.0
13663,50.0,0,72,12.0,60.0
13664,74.0,0,72,2.0,42.0
13665,74.0,0,72,8.0,60.0
13666,86.0,0,72,0.0,42.0
13667,38.0,0,72,13.0,60.0
13668,62.0,0,72,10.0,60.0
13669,73.0,0,72,1.0,42.0
13670,49.0,0,72,3.0,42.0
13671,61.0,0,72,10.0,60.0
13672,85.0,0,72,0.0,42.0
13673,73.0,0,72,8.0,60.0
13674,37.0,0,72,13.0,60.0
13675,73.0,0,72,2.0,42.0
13676,49.0,120,72,12.0,60.0
13677,43.0,0,72,12.0,60.0
13678,43.0,0,72,3.0,42.0
13679,67.0,0,72,2.0,42.0
13680,67.0,0,72,1.0,42.0
13681,55.0,0,72,10.0,60.0
13682,31.0,0,72,13.0,60.0
13683,79.0,120,72,0.0,42.0
13684,67.0,0,72,8.0,60.0
13685,64.0,0,120,4.0,75.0
13686,58.0,0,120,4.0,75.0
13687,67.0,0,120,4.0,75.0
13688,76.0,0,120,5.0,75.0
13689,69.0,0,120,5.0,75.0
13690,58.0,0,72,12.0,60.0
13691,70.0,0,72,8.0,60.0
13692,46.0,120,72,13.0,60.0
13693,45.0,0,192,6.0,56.0
13694,82.0,0,72,0.0,42.0
13695,70.0,0,72,1.0,42.0
13696,58.0,0,72,3.0,42.0
13697,58.0,0,72,10.0,60.0
13698,70.0,0,72,2.0,42.0
13699,57.0,0,72,3.0,42.0
13700,69.0,0,72,8.0,60.0
13701,57.0,0,72,12.0,60.0
13702,57.0,0,72,10.0,60.0
13703,81.0,0,72,0.0,42.0
13704,69.0,120,72,2.0,42.0
13705,69.0,0,72,1.0,42.0
13706,45.0,0,72,13.0,60.0
13707,55.0,0,72,10.0,60.0
13708,43.0,0,72,13.0,60.0
13709,67.0,0,72,2.0,42.0
13710,67.0,0,72,1.0,42.0
13711,67.0,0,72,8.0,60.0
13712,55.0,120,72,12.0,60.0
13713,55.0,0,72,3.0,42.0
13714,79.0,0,72,0.0,42.0
13715,64.0,0,72,1.0,42.0
13716,64.0,0,72,2.0,42.0
13717,52.0,0,72,10.0,80.0
13718,52.0,0,72,3.0,42.0
13719,76.0,0,72,0.0,42.0
13720,52.0,0,72,12.0,80.0
13721,40.0,0,72,13.0,80.0
13722,64.0,0,72,8.0,80.0
13723,58.0,0,120,4.0,75.0
13724,67.0,0,120,4.0,75.0
13725,57.0,0,120,5.0,94.0
13726,64.0,120,120,4.0,75.0
13727,69.0,0,120,5.0,94.0
13728,65.0,0,72,2.0,42.0
13729,77.0,0,72,0.0,42.0
13730,53.0,0,72,3.0,42.0
13731,65.0,0,72,1.0,42.0
13732,65.0,120,72,8.0,84.0
13733,53.0,0,72,12.0,84.0
13734,45.0,0,192,6.0,71.0
13735,41.0,0,72,13.0,84.0
13736,53.0,0,72,10.0,84.0
13737,52.0,0,72,10.0,88.0
13738,76.0,0,72,0.0,42.0
13739,52.0,0,72,3.0,42.0
13740,64.0,0,72,2.0,42.0
13741,40.0,0,72,13.0,88.0
13742,64.0,120,72,1.0,42.0
13743,64.0,0,72,8.0,88.0
13744,52.0,0,72,12.0,88.0
13745,57.0,0,120,5.0,94.0
13746,69.0,0,120,5.0,94.0
13747,50.0,0,72,3.0,42.0
13748,62.0,0,72,1.0,42.0
13749,50.0,0,72,10.0,91.0
13750,50.0,0,72,12.0,91.0
13751,38.0,0,72,13.0,91.0
13752,45.0,0,192,6.0,71.0
13753,62.0,0,72,2.0,42.0
13754,62.0,120,72,8.0,91.0
13755,74.0,0,72,0.0,42.0
13756,49.0,0,72,12.0,95.0
13757,73.0,0,72,0.0,42.0
13758,37.0,0,72,13.0,95.0
13759,61.0,0,72,1.0,42.0
13760,49.0,0,72,3.0,42.0
13761,61.0,0,72,8.0,95.0
13762,49.0,120,72,10.0,95.0
13763,61.0,0,72,2.0,42.0
13764,69.0,0,120,5.0,94.0
13765,57.0,0,120,5.0,94.0
13766,46.0,0,72,3.0,42.0
13767,34.0,0,72,13.0,99.0
13768,70.0,0,72,2.0,42.0
13769,46.0,0,72,12.0,99.0
13770,70.0,0,72,0.0,42.0
13771,46.0,0,72,10.0,99.0
13772,45.0,0,192,6.0,71.0
13773,58.0,0,72,1.0,42.0
13774,58.0,120,72,8.0,99.0
13775,45.0,0,72,10.0,103.0
13776,45.0,0,72,12.0,103.0
13777,33.0,0,72,13.0,103.0
13778,45.0,0,72,3.0,42.0
13779,57.0,0,72,8.0,103.0
13780,69.0,0,72,2.0,42.0
13781,69.0,0,72,0.0,42.0
13782,57.0,0,72,1.0,42.0
13783,57.0,0,120,5.0,94.0
13784,69.0,0,120,5.0,94.0
13785,55.0,0,72,8.0,106.0
13786,45.0,120,192,6.0,71.0
13787,67.0,0,72,2.0,42.0
13788,55.0,120,72,1.0,42.0
13789,43.0,0,72,12.0,106.0
13790,43.0,0,72,10.0,106.0
13791,31.0,0,72,13.0,106.0
13792,43.0,0,72,3.0,42.0
13793,67.0,0,72,0.0,42.0
13794,50.0,0,48,6.0,108.0
13795,42.0,0,48,12.0,127.0
13796,30.0,0,48,13.0,127.0
13797,50.0,0,48,6.0,108.0
13798,42.0,60,48,12.0,127.0
13799,30.0,0,48,13.0,127.0
13800,50.0,0,48,6.0,108.0
13801,42.0,60,48,12.0,127.0
13802,30.0,0,48,13.0,127.0
13803,42.0,60,48,12.0,127.0
13804,50.0,0,48,6.0,108.0
13805,30.0,0,48,13.0,127.0
13806,42.0,0,48,12.0,127.0
13807,50.0,60,48,6.0,108.0
13808,30.0,0,48,13.0,127.0
13809,42.0,60,48,12.0,127.0
13810,30.0,0,48,13.0,127.0
13811,50.0,0,48,6.0,108.0
13812,62.0,0,384,10.0,80.0
13813,74.0,120,384,8.0,80.0
13814,81.0,0,384,10.0,80.0
13815,86.0,0,384,8.0,80.0
13816,62.0,0,384,8.0,80.0
13817,57.0,0,384,11.0,80.0
13818,54.0,0,384,11.0,80.0
13819,62.0,0,384,11.0,80.0
13820,42.0,0,48,12.0,127.0
13821,50.0,60,48,6.0,108.0
13822,30.0,0,48,13.0,127.0
13823,42.0,60,48,12.0,127.0
13824,50.0,0,48,6.0,108.0
13825,30.0,0,48,13.0,127.0
13826,42.0,60,48,12.0,127.0
13827,50.0,0,48,6.0,108.0
13828,30.0,0,48,13.0,127.0
13829,30.0,60,48,13.0,127.0
13830,42.0,0,48,12.0,127.0
13831,50.0,0,48,6.0,108.0
13832,42.0,60,48,12.0,127.0
13833,50.0,0,48,6.0,108.0
13834,30.0,0,48,13.0,127.0
13835,30.0,0,48,13.0,127.0
13836,50.0,0,48,6.0,108.0
13837,42.0,60,48,12.0,127.0
13838,30.0,0,48,13.0,127.0
13839,50.0,60,48,6.0,108.0
13840,42.0,0,48,12.0,127.0
13841,30.0,60,48,13.0,127.0
13842,42.0,0,48,12.0,127.0
13843,50.0,0,48,6.0,108.0
13844,42.0,0,48,12.0,127.0
13845,50.0,60,48,6.0,108.0
13846,30.0,0,48,13.0,127.0
13847,30.0,0,48,13.0,127.0
13848,42.0,0,48,12.0,127.0
13849,50.0,60,48,6.0,108.0
13850,42.0,0,48,13.0,127.0
13851,54.0,60,48,12.0,127.0
13852,50.0,0,48,6.0,108.0
13853,50.0,0,48,6.0,108.0
13854,54.0,0,48,12.0,127.0
13855,42.0,60,48,13.0,127.0
13856,54.0,0,48,12.0,127.0
13857,42.0,0,48,13.0,127.0
13858,50.0,60,48,6.0,108.0
13859,42.0,60,48,13.0,127.0
13860,50.0,0,48,6.0,108.0
13861,54.0,0,48,12.0,127.0
13862,54.0,0,48,12.0,127.0
13863,42.0,60,48,13.0,127.0
13864,50.0,0,48,6.0,108.0
13865,50.0,0,48,6.0,108.0
13866,42.0,0,48,13.0,127.0
13867,54.0,60,48,12.0,127.0
13868,50.0,60,48,6.0,108.0
13869,54.0,0,48,12.0,127.0
13870,42.0,0,48,13.0,127.0
13871,42.0,60,48,13.0,127.0
13872,54.0,0,48,12.0,127.0
13873,50.0,0,48,6.0,108.0
13874,42.0,60,48,13.0,127.0
13875,50.0,0,48,6.0,108.0
13876,54.0,0,48,12.0,127.0
13877,50.0,60,48,6.0,108.0
13878,42.0,0,48,13.0,127.0
13879,54.0,0,48,12.0,127.0
13880,50.0,0,48,6.0,108.0
13881,54.0,0,48,12.0,127.0
13882,42.0,60,48,13.0,127.0
13883,54.0,60,48,12.0,127.0
13884,50.0,0,48,6.0,108.0
13885,42.0,0,48,13.0,127.0
13886,42.0,0,48,13.0,127.0
13887,50.0,0,48,6.0,108.0
13888,54.0,60,48,12.0,127.0
13889,50.0,0,48,6.0,108.0
13890,42.0,60,48,13.0,127.0
13891,54.0,0,48,12.0,127.0
13892,50.0,0,48,6.0,108.0
13893,42.0,60,48,13.0,127.0
13894,54.0,0,48,12.0,127.0
13895,42.0,0,48,13.0,127.0
13896,69.0,60,48,11.0,127.0
13897,50.0,0,48,6.0,108.0
13898,81.0,0,48,8.0,127.0
13899,54.0,0,48,12.0,127.0
13900,69.0,0,48,10.0,127.0
13901,66.0,60,48,12.0,127.0
13902,54.0,0,48,13.0,127.0
13903,50.0,0,48,6.0,108.0
13904,50.0,0,48,6.0,108.0
13905,66.0,60,48,12.0,127.0
13906,54.0,0,48,13.0,127.0
13907,50.0,60,48,6.0,108.0
13908,54.0,0,48,13.0,127.0
13909,66.0,0,48,12.0,127.0
13910,50.0,60,48,6.0,108.0
13911,66.0,0,48,12.0,127.0
13912,54.0,0,48,13.0,127.0
13913,50.0,0,48,6.0,108.0
13914,66.0,0,48,12.0,127.0
13915,54.0,60,48,13.0,127.0
13916,66.0,0,48,12.0,127.0
13917,54.0,60,48,13.0,127.0
13918,50.0,0,48,6.0,108.0
13919,50.0,0,48,6.0,108.0
13920,54.0,0,48,13.0,127.0
13921,66.0,60,48,12.0,127.0
13922,50.0,0,48,6.0,108.0
13923,54.0,60,48,13.0,127.0
13924,66.0,0,48,12.0,127.0
13925,50.0,0,48,6.0,108.0
13926,54.0,0,48,13.0,127.0
13927,66.0,60,48,12.0,127.0
13928,62.0,0,576,10.0,127.0
13929,62.0,0,576,11.0,127.0
13930,74.0,0,576,8.0,127.0
13931,66.0,0,48,12.0,127.0
13932,50.0,0,48,6.0,102.0
13933,54.0,60,48,13.0,127.0
13934,50.0,0,48,6.0,94.0
13935,54.0,0,48,13.0,127.0
13936,66.0,60,48,12.0,127.0
13937,54.0,0,48,13.0,127.0
13938,66.0,0,48,12.0,127.0
13939,50.0,60,48,6.0,87.0
13940,54.0,60,48,13.0,127.0
13941,50.0,0,48,6.0,79.0
13942,66.0,0,48,12.0,127.0
13943,54.0,0,48,13.0,127.0
13944,50.0,60,48,6.0,72.0
13945,66.0,0,48,12.0,127.0
13946,50.0,60,48,6.0,65.0
13947,54.0,0,48,13.0,127.0
13948,66.0,0,48,12.0,127.0
13949,54.0,60,48,13.0,127.0
13950,66.0,0,48,12.0,127.0
13951,62.0,0,48,10.0,127.0
13952,62.0,0,48,11.0,127.0
13953,74.0,0,48,8.0,127.0
13954,50.0,0,48,6.0,57.0
13955,42.0,0,48,13.0,127.0
13956,54.0,0,48,12.0,127.0
13957,50.0,60,48,6.0,58.0
13958,42.0,0,48,13.0,127.0
13959,54.0,0,48,12.0,127.0
13960,50.0,60,48,6.0,64.0
13961,42.0,0,48,13.0,127.0
13962,54.0,0,48,12.0,127.0
13963,50.0,60,48,6.0,69.0
13964,54.0,60,48,12.0,127.0
13965,50.0,0,48,6.0,75.0
13966,42.0,0,48,13.0,127.0
13967,54.0,0,48,12.0,127.0
13968,42.0,0,48,13.0,127.0
13969,50.0,60,48,6.0,80.0
13970,50.0,0,48,6.0,86.0
13971,42.0,0,48,13.0,127.0
13972,54.0,60,48,12.0,127.0
13973,54.0,0,48,12.0,127.0
13974,42.0,0,48,13.0,127.0
13975,50.0,60,48,6.0,91.0
13976,42.0,0,48,13.0,127.0
13977,54.0,60,48,12.0,127.0
13978,50.0,0,48,6.0,97.0
13979,50.0,0,48,6.0,102.0
13980,42.0,60,48,13.0,127.0
13981,54.0,0,48,12.0,127.0
13982,57.0,0,576,10.0,127.0
13983,69.0,0,576,8.0,127.0
13984,57.0,0,576,11.0,127.0
13985,54.0,0,48,12.0,127.0
13986,42.0,60,48,13.0,127.0
13987,50.0,0,48,6.0,108.0
13988,54.0,60,48,12.0,127.0
13989,50.0,0,48,6.0,113.0
13990,42.0,0,48,13.0,127.0
13991,54.0,60,48,12.0,127.0
13992,42.0,0,48,13.0,127.0
13993,50.0,0,48,6.0,119.0
13994,42.0,60,48,13.0,127.0
13995,50.0,0,48,6.0,124.0
13996,54.0,0,48,12.0,127.0
13997,42.0,0,3714,3.0,80.0
13998,74.0,0,3714,5.0,127.0
13999,62.0,0,3714,5.0,127.0
14000,81.0,0,3714,1.0,56.0
14001,86.0,0,3714,0.0,100.0
14002,69.0,0,3714,4.0,80.0
14003,74.0,0,3714,1.0,56.0
14004,62.0,0,3714,4.0,80.0
14005,42.0,0,3714,4.0,80.0
14006,50.0,0,3714,4.0,80.0
14007,62.0,0,3714,2.0,80.0
14008,69.0,0,3714,2.0,56.0
14009,42.0,0,48,3.0,127.0
14010,69.0,0,48,2.0,127.0
14011,62.0,0,48,2.0,127.0
14012,45.0,180,48,12.0,127.0
14013,57.0,0,48,5.0,127.0
14014,81.0,0,48,0.0,127.0
14015,57.0,0,48,8.0,127.0
14016,33.0,0,48,13.0,127.0
14017,50.0,0,48,4.0,127.0
14018,69.0,0,48,4.0,127.0
14019,69.0,0,48,5.0,127.0
14020,45.0,0,48,6.0,127.0
14021,62.0,0,48,4.0,127.0
14022,74.0,0,48,1.0,127.0
14023,81.0,0,48,1.0,127.0
14024,57.0,0,48,10.0,127.0
14025,57.0,0,48,11.0,127.0
14026,42.0,0,48,4.0,127.0
14027,50.0,0,48,6.0,127.0
14028,42.0,0,48,12.0,127.0
14029,30.0,0,48,13.0,127.0
14030,50.0,0,48,6.0,108.0
14031,30.0,60,48,13.0,127.0
14032,42.0,0,48,12.0,127.0
14033,50.0,0,48,6.0,108.0
14034,30.0,60,48,13.0,127.0
14035,42.0,0,48,12.0,127.0
14036,42.0,0,48,12.0,127.0
14037,50.0,60,48,6.0,108.0
14038,30.0,0,48,13.0,127.0
14039,30.0,60,48,13.0,127.0
14040,42.0,0,48,12.0,127.0
14041,50.0,0,48,6.0,108.0
14042,42.0,0,48,12.0,127.0
14043,30.0,60,48,13.0,127.0
14044,50.0,0,48,6.0,108.0
14045,81.0,0,384,10.0,80.0
14046,86.0,0,384,8.0,80.0
14047,74.0,0,384,8.0,80.0
14048,62.0,0,384,10.0,80.0
14049,54.0,0,384,11.0,80.0
14050,57.0,0,384,11.0,80.0
14051,62.0,0,384,11.0,80.0
14052,62.0,0,384,8.0,80.0
14053,50.0,0,48,6.0,108.0
14054,30.0,0,48,13.0,127.0
14055,42.0,60,48,12.0,127.0
14056,50.0,60,48,6.0,108.0
14057,42.0,0,48,12.0,127.0
14058,30.0,0,48,13.0,127.0
14059,50.0,0,48,6.0,108.0
14060,42.0,0,48,12.0,127.0
14061,30.0,60,48,13.0,127.0
14062,50.0,0,48,6.0,108.0
14063,42.0,60,48,12.0,127.0
14064,30.0,0,48,13.0,127.0
14065,30.0,0,48,13.0,127.0
14066,50.0,60,48,6.0,108.0
14067,42.0,0,48,12.0,127.0
14068,42.0,0,48,12.0,127.0
14069,30.0,0,48,13.0,127.0
14070,50.0,60,48,6.0,108.0
14071,42.0,0,48,12.0,127.0
14072,30.0,60,48,13.0,127.0
14073,50.0,0,48,6.0,108.0
14074,30.0,60,48,13.0,127.0
14075,50.0,0,48,6.0,108.0
14076,42.0,0,48,12.0,127.0
14077,50.0,0,48,6.0,108.0
14078,42.0,60,48,12.0,127.0
14079,30.0,0,48,13.0,127.0
14080,42.0,60,48,12.0,127.0
14081,50.0,0,48,6.0,108.0
14082,30.0,0,48,13.0,127.0
14083,54.0,60,48,12.0,127.0
14084,42.0,0,48,13.0,127.0
14085,50.0,0,48,6.0,108.0
14086,50.0,0,48,6.0,108.0
14087,54.0,60,48,12.0,127.0
14088,42.0,0,48,13.0,127.0
14089,54.0,0,48,12.0,127.0
14090,42.0,0,48,13.0,127.0
14091,50.0,60,48,6.0,108.0
14092,42.0,0,48,13.0,127.0
14093,54.0,0,48,12.0,127.0
14094,50.0,60,48,6.0,108.0
14095,54.0,0,48,12.0,127.0
14096,50.0,0,48,6.0,108.0
14097,42.0,60,48,13.0,127.0
14098,42.0,0,48,13.0,127.0
14099,54.0,0,48,12.0,127.0
14100,50.0,60,48,6.0,108.0
14101,42.0,60,48,13.0,127.0
14102,50.0,0,48,6.0,108.0
14103,54.0,0,48,12.0,127.0
14104,42.0,0,48,13.0,127.0
14105,54.0,60,48,12.0,127.0
14106,50.0,0,48,6.0,108.0
14107,54.0,60,48,12.0,127.0
14108,50.0,0,48,6.0,108.0
14109,42.0,0,48,13.0,127.0
14110,50.0,0,48,6.0,108.0
14111,54.0,60,48,12.0,127.0
14112,42.0,0,48,13.0,127.0
14113,42.0,60,48,13.0,127.0
14114,54.0,0,48,12.0,127.0
14115,50.0,0,48,6.0,108.0
14116,54.0,60,48,12.0,127.0
14117,50.0,0,48,6.0,108.0
14118,42.0,0,48,13.0,127.0
14119,50.0,0,48,6.0,108.0
14120,42.0,60,48,13.0,127.0
14121,54.0,0,48,12.0,127.0
14122,54.0,0,48,12.0,127.0
14123,42.0,60,48,13.0,127.0
14124,50.0,0,48,6.0,108.0
14125,42.0,0,48,13.0,127.0
14126,54.0,0,48,12.0,127.0
14127,50.0,60,48,6.0,108.0
14128,86.0,0,48,8.0,127.0
14129,74.0,60,48,10.0,127.0
14130,54.0,0,48,12.0,127.0
14131,42.0,0,48,13.0,127.0
14132,72.0,0,48,11.0,127.0
14133,50.0,0,48,6.0,108.0
14134,66.0,0,48,12.0,127.0
14135,50.0,0,48,6.0,127.0
14136,54.0,0,48,13.0,127.0
14137,54.0,60,48,13.0,127.0
14138,66.0,0,48,12.0,127.0
14139,50.0,0,48,6.0,125.0
14140,66.0,60,48,12.0,127.0
14141,54.0,0,48,13.0,127.0
14142,50.0,0,48,6.0,120.0
14143,54.0,0,48,13.0,127.0
14144,66.0,0,48,12.0,127.0
14145,50.0,60,48,6.0,116.0
14146,50.0,0,48,6.0,112.0
14147,54.0,0,48,13.0,127.0
14148,66.0,60,48,12.0,127.0
14149,54.0,60,48,13.0,127.0
14150,50.0,0,48,6.0,107.0
14151,66.0,0,48,12.0,127.0
14152,50.0,60,48,6.0,103.0
14153,54.0,0,48,13.0,127.0
14154,66.0,0,48,12.0,127.0
14155,66.0,0,48,12.0,127.0
14156,50.0,60,48,6.0,99.0
14157,54.0,0,48,13.0,127.0
14158,66.0,0,48,12.0,127.0
14159,50.0,0,48,6.0,94.0
14160,54.0,60,48,13.0,127.0
14161,69.0,60,576,10.0,127.0
14162,81.0,0,576,8.0,127.0
14163,69.0,0,576,11.0,127.0
14164,66.0,0,48,12.0,127.0
14165,54.0,60,48,13.0,127.0
14166,50.0,0,48,6.0,90.0
14167,66.0,0,48,12.0,127.0
14168,50.0,0,48,6.0,85.0
14169,54.0,60,48,13.0,127.0
14170,50.0,0,48,6.0,81.0
14171,54.0,0,48,13.0,127.0
14172,66.0,60,48,12.0,127.0
14173,66.0,60,48,12.0,127.0
14174,54.0,0,48,13.0,127.0
14175,50.0,0,48,6.0,77.0
14176,66.0,60,48,12.0,127.0
14177,50.0,0,48,6.0,72.0
14178,54.0,0,48,13.0,127.0
14179,66.0,0,48,12.0,127.0
14180,54.0,0,48,13.0,127.0
14181,50.0,60,48,6.0,68.0
14182,69.0,0,48,11.0,127.0
14183,50.0,60,48,6.0,64.0
14184,54.0,0,48,13.0,127.0
14185,66.0,0,48,12.0,127.0
14186,69.0,0,48,10.0,127.0
14187,81.0,0,48,8.0,127.0
14188,54.0,0,48,12.0,127.0
14189,50.0,0,48,6.0,58.0
14190,42.0,0,48,13.0,127.0
14191,42.0,60,48,13.0,127.0
14192,50.0,0,48,6.0,63.0
14193,54.0,0,48,12.0,127.0
14194,50.0,60,48,6.0,69.0
14195,42.0,0,48,13.0,127.0
14196,54.0,0,48,12.0,127.0
14197,42.0,60,48,13.0,127.0
14198,54.0,0,48,12.0,127.0
14199,50.0,0,48,6.0,75.0
14200,54.0,60,48,12.0,127.0
14201,42.0,0,48,13.0,127.0
14202,50.0,0,48,6.0,80.0
14203,50.0,0,48,6.0,86.0
14204,42.0,60,48,13.0,127.0
14205,54.0,0,48,12.0,127.0
14206,42.0,60,48,13.0,127.0
14207,54.0,0,48,12.0,127.0
14208,50.0,0,48,6.0,92.0
14209,54.0,0,48,12.0,127.0
14210,50.0,0,48,6.0,97.0
14211,42.0,60,48,13.0,127.0
14212,42.0,60,48,13.0,127.0
14213,54.0,0,48,12.0,127.0
14214,50.0,0,48,6.0,103.0
14215,74.0,60,576,8.0,127.0
14216,62.0,0,576,11.0,127.0
14217,62.0,0,576,10.0,127.0
14218,42.0,0,48,13.0,127.0
14219,54.0,60,48,12.0,127.0
14220,50.0,0,48,6.0,109.0
14221,54.0,0,48,12.0,127.0
14222,50.0,0,48,6.0,114.0
14223,42.0,60,48,13.0,127.0
14224,42.0,0,48,13.0,127.0
14225,54.0,0,48,12.0,127.0
14226,50.0,60,48,6.0,120.0
14227,50.0,60,48,6.0,125.0
14228,42.0,0,48,13.0,127.0
14229,54.0,0,48,12.0,127.0
14230,62.0,0,3714,2.0,80.0
14231,69.0,0,3714,4.0,80.0
14232,42.0,0,3714,4.0,80.0
14233,62.0,0,3714,4.0,80.0
14234,69.0,0,3714,2.0,56.0
14235,74.0,0,3714,1.0,56.0
14236,86.0,0,3714,0.0,80.0
14237,74.0,0,3714,5.0,127.0
14238,42.0,0,3714,3.0,80.0
14239,50.0,60,3714,4.0,80.0
14240,62.0,0,3714,5.0,127.0
14241,81.0,0,3714,1.0,56.0
14242,57.0,0,48,8.0,127.0
14243,45.0,0,48,6.0,127.0
14244,45.0,0,48,12.0,127.0
14245,33.0,0,48,13.0,127.0
14246,57.0,0,48,11.0,127.0
14247,57.0,0,48,10.0,127.0
14248,42.0,0,58,4.0,127.0
14249,74.0,0,58,1.0,112.0
14250,69.0,0,58,4.0,127.0
14251,62.0,180,58,4.0,127.0
14252,69.0,0,1,5.0,64.0
14253,50.0,58,1,4.0,64.0
14254,57.0,0,1,5.0,64.0
14255,69.0,0,1,2.0,64.0
14256,42.0,0,1,3.0,64.0
14257,93.0,0,1,0.0,64.0
14258,81.0,0,1,1.0,64.0
14259,62.0,0,1,2.0,64.0
14260,42.0,0,48,12.0,127.0
14261,30.0,0,48,13.0,127.0
14262,50.0,0,48,6.0,127.0
14263,42.0,60,48,12.0,127.0
14264,50.0,0,48,6.0,108.0
14265,30.0,0,48,13.0,127.0
14266,30.0,60,48,13.0,127.0
14267,50.0,0,48,6.0,108.0
14268,42.0,0,48,12.0,127.0
14269,54.0,0,226,11.0,80.0
14270,62.0,0,226,11.0,80.0
14271,81.0,0,226,10.0,80.0
14272,62.0,0,226,8.0,80.0
14273,86.0,0,226,8.0,80.0
14274,57.0,0,226,11.0,80.0
14275,62.0,0,226,10.0,80.0
14276,74.0,0,226,8.0,80.0
14277,50.0,60,48,6.0,108.0
14278,30.0,0,48,13.0,127.0
14279,42.0,0,48,12.0,127.0
14280,42.0,0,48,12.0,127.0
14281,50.0,0,48,6.0,108.0
14282,30.0,60,48,13.0,127.0
14283,30.0,0,48,13.0,127.0
14284,50.0,60,48,6.0,108.0
14285,42.0,0,48,12.0,127.0
14286,30.0,60,48,13.0,127.0
14287,50.0,0,48,6.0,108.0
14288,42.0,0,48,12.0,127.0
14289,69.0,0,48,10.0,127.0
14290,50.0,0,48,6.0,108.0
14291,69.0,60,48,11.0,127.0
14292,30.0,0,48,13.0,127.0
14293,42.0,0,48,12.0,127.0
14294,81.0,0,48,8.0,127.0
14295,54.0,0,48,12.0,127.0
14296,42.0,0,48,13.0,127.0
14297,50.0,0,48,6.0,108.0
14298,54.0,60,48,12.0,127.0
14299,42.0,0,48,13.0,127.0
14300,50.0,0,48,6.0,104.0
14301,54.0,0,48,12.0,127.0
14302,50.0,0,48,6.0,98.0
14303,42.0,60,48,13.0,127.0
14304,62.0,0,226,11.0,127.0
14305,62.0,0,226,10.0,127.0
14306,74.0,60,226,8.0,127.0
14307,42.0,0,48,13.0,127.0
14308,54.0,0,48,12.0,127.0
14309,50.0,60,48,6.0,92.0
14310,54.0,0,48,12.0,127.0
14311,42.0,60,48,13.0,127.0
14312,50.0,0,48,6.0,87.0
14313,50.0,0,48,6.0,81.0
14314,54.0,0,48,12.0,127.0
14315,42.0,60,48,13.0,127.0
14316,54.0,60,48,12.0,127.0
14317,50.0,0,48,6.0,75.0
14318,42.0,0,48,13.0,127.0
14319,42.0,0,48,13.0,127.0
14320,50.0,60,48,6.0,70.0
14321,57.0,0,48,11.0,127.0
14322,57.0,0,48,10.0,127.0
14323,54.0,0,48,12.0,127.0
14324,69.0,0,48,8.0,127.0
14325,66.0,0,48,12.0,127.0
14326,50.0,0,48,6.0,75.0
14327,54.0,60,48,13.0,127.0
14328,50.0,0,48,6.0,68.0
14329,54.0,0,48,13.0,127.0
14330,66.0,60,48,12.0,127.0
14331,54.0,0,48,13.0,127.0
14332,66.0,0,48,12.0,127.0
14333,50.0,60,48,6.0,127.0
14334,62.0,0,226,8.0,127.0
14335,50.0,0,226,10.0,127.0
14336,50.0,0,226,11.0,127.0
14337,54.0,0,48,13.0,127.0
14338,66.0,60,48,12.0,127.0
14339,50.0,0,48,6.0,57.0
14340,50.0,60,48,6.0,64.0
14341,54.0,0,48,13.0,127.0
14342,66.0,0,48,12.0,127.0
14343,66.0,0,48,12.0,127.0
14344,50.0,60,48,6.0,72.0
14345,54.0,0,48,13.0,127.0
14346,50.0,0,48,6.0,79.0
14347,54.0,0,48,13.0,127.0
14348,66.0,60,48,12.0,127.0
14349,54.0,60,48,13.0,127.0
14350,66.0,0,48,12.0,127.0
14351,50.0,0,48,6.0,87.0
14352,54.0,60,48,12.0,127.0
14353,42.0,0,48,13.0,127.0
14354,50.0,0,48,6.0,95.0
14355,50.0,0,48,6.0,102.0
14356,42.0,0,48,13.0,127.0
14357,54.0,60,48,12.0,127.0
14358,50.0,0,48,6.0,110.0
14359,42.0,0,48,13.0,127.0
14360,54.0,60,48,12.0,127.0
14361,50.0,60,48,6.0,117.0
14362,42.0,0,48,13.0,127.0
14363,54.0,0,48,12.0,127.0
14364,54.0,0,48,12.0,127.0
14365,42.0,0,48,13.0,127.0
14366,50.0,60,48,6.0,125.0
14367,54.0,0,48,12.0,127.0
14368,42.0,60,48,13.0,127.0
14369,62.0,0,1794,4.0,80.0
14370,74.0,0,1794,1.0,56.0
14371,42.0,0,1794,3.0,80.0
14372,62.0,0,1794,2.0,80.0
14373,69.0,0,1794,4.0,80.0
14374,69.0,2,1794,2.0,56.0
14375,50.0,0,1794,4.0,80.0
14376,42.0,0,1794,4.0,80.0
14377,81.0,0,1794,1.0,56.0
14378,62.0,0,1794,5.0,127.0
14379,74.0,0,1794,5.0,127.0
14380,86.0,0,1794,0.0,80.0
14381,54.0,0,48,12.0,127.0
14382,42.0,60,48,13.0,127.0
14383,42.0,0,48,13.0,127.0
14384,57.0,0,48,11.0,127.0
14385,45.0,0,48,6.0,127.0
14386,57.0,0,48,10.0,127.0
14387,57.0,0,48,8.0,127.0
14388,54.0,0,48,12.0,127.0
14389,62.0,0,58,4.0,127.0
14390,74.0,0,58,1.0,112.0
14391,42.0,60,58,4.0,127.0
14392,69.0,0,58,4.0,127.0
14393,69.0,58,1,5.0,64.0
14394,62.0,0,1,2.0,64.0
14395,57.0,0,1,5.0,64.0
14396,81.0,0,1,1.0,64.0
14397,50.0,0,1,4.0,64.0
14398,93.0,0,1,0.0,64.0
14399,69.0,0,1,2.0,64.0
14400,42.0,0,1,3.0,64.0
14401,42.0,0,48,12.0,127.0
14402,30.0,0,48,13.0,127.0
14403,50.0,0,48,6.0,127.0
14404,30.0,0,48,13.0,127.0
14405,50.0,0,48,6.0,108.0
14406,42.0,60,48,12.0,127.0
14407,86.0,0,114,8.0,80.0
14408,62.0,2,114,11.0,80.0
14409,62.0,0,114,8.0,80.0
14410,57.0,0,114,11.0,80.0
14411,81.0,0,114,10.0,80.0
14412,62.0,0,114,10.0,80.0
14413,74.0,0,114,8.0,80.0
14414,54.0,0,114,11.0,80.0
14415,30.0,0,48,13.0,127.0
14416,50.0,0,48,6.0,108.0
14417,69.0,0,48,10.0,127.0
14418,81.0,0,48,8.0,127.0
14419,42.0,60,48,12.0,127.0
14420,69.0,0,48,11.0,127.0
14421,42.0,0,48,12.0,127.0
14422,30.0,60,48,13.0,127.0
14423,50.0,0,48,6.0,108.0
14424,30.0,0,48,13.0,127.0
14425,42.0,60,48,12.0,127.0
14426,50.0,0,48,6.0,108.0
14427,50.0,0,48,6.0,108.0
14428,42.0,60,48,12.0,127.0
14429,30.0,0,48,13.0,127.0
14430,69.0,0,114,10.0,127.0
14431,81.0,0,114,8.0,127.0
14432,69.0,0,114,11.0,127.0
14433,42.0,0,48,12.0,127.0
14434,30.0,0,48,13.0,127.0
14435,50.0,0,48,6.0,108.0
14436,30.0,60,48,13.0,127.0
14437,42.0,0,48,12.0,127.0
14438,50.0,0,48,6.0,108.0
14439,74.0,60,114,8.0,127.0
14440,62.0,0,114,11.0,127.0
14441,62.0,0,114,10.0,127.0
14442,50.0,0,48,6.0,108.0
14443,54.0,0,48,12.0,127.0
14444,42.0,60,48,13.0,127.0
14445,42.0,60,48,13.0,127.0
14446,54.0,0,48,12.0,127.0
14447,50.0,0,48,6.0,104.0
14448,54.0,0,48,12.0,127.0
14449,74.0,0,48,8.0,127.0
14450,42.0,0,48,13.0,127.0
14451,62.0,60,48,10.0,127.0
14452,50.0,0,48,6.0,99.0
14453,62.0,0,48,11.0,127.0
14454,50.0,60,48,6.0,93.0
14455,54.0,0,48,12.0,127.0
14456,42.0,0,48,13.0,127.0
14457,50.0,60,48,6.0,88.0
14458,54.0,0,48,12.0,127.0
14459,42.0,0,48,13.0,127.0
14460,50.0,60,48,6.0,82.0
14461,42.0,0,48,13.0,127.0
14462,54.0,0,48,12.0,127.0
14463,62.0,0,114,11.0,127.0
14464,62.0,0,114,10.0,127.0
14465,74.0,0,114,8.0,127.0
14466,50.0,60,48,6.0,77.0
14467,42.0,0,48,13.0,127.0
14468,54.0,0,48,12.0,127.0
14469,50.0,0,48,6.0,71.0
14470,42.0,60,48,13.0,127.0
14471,54.0,0,48,12.0,127.0
14472,69.0,0,114,8.0,127.0
14473,57.0,0,114,11.0,127.0
14474,57.0,0,114,10.0,127.0
14475,66.0,60,48,12.0,127.0
14476,54.0,0,48,13.0,127.0
14477,50.0,0,48,6.0,77.0
14478,50.0,60,48,6.0,70.0
14479,66.0,0,48,12.0,127.0
14480,54.0,0,48,13.0,127.0
14481,57.0,0,48,10.0,127.0
14482,57.0,60,48,11.0,127.0
14483,66.0,0,48,12.0,127.0
14484,69.0,0,48,8.0,127.0
14485,50.0,0,48,6.0,64.0
14486,54.0,0,48,13.0,127.0
14487,62.0,0,1186,4.0,80.0
14488,69.0,0,1186,4.0,80.0
14489,50.0,0,48,6.0,127.0
14490,66.0,0,48,12.0,127.0
14491,54.0,60,48,13.0,127.0
14492,66.0,0,48,12.0,127.0
14493,54.0,0,48,13.0,127.0
14494,50.0,60,48,6.0,60.0
14495,66.0,0,48,12.0,127.0
14496,50.0,0,48,6.0,69.0
14497,54.0,60,48,13.0,127.0
14498,69.0,0,114,8.0,127.0
14499,57.0,0,114,11.0,127.0
14500,57.0,0,114,10.0,127.0
14501,66.0,0,48,12.0,127.0
14502,50.0,60,48,6.0,78.0
14503,54.0,0,48,13.0,127.0
14504,42.0,0,1410,4.0,80.0
14505,50.0,0,1410,4.0,80.0
14506,50.0,0,48,6.0,87.0
14507,54.0,0,48,13.0,127.0
14508,66.0,60,48,12.0,127.0
14509,62.0,0,114,8.0,127.0
14510,50.0,0,114,11.0,127.0
14511,50.0,0,114,10.0,127.0
14512,69.0,0,1440,2.0,56.0
14513,81.0,0,1440,1.0,56.0
14514,54.0,0,48,12.0,127.0
14515,42.0,0,48,13.0,127.0
14516,62.0,0,180,4.0,127.0
14517,74.0,0,1500,5.0,127.0
14518,58.0,0,60,4.0,127.0
14519,46.0,0,60,4.0,127.0
14520,62.0,0,1500,5.0,127.0
14521,42.0,0,48,13.0,127.0
14522,54.0,60,48,12.0,127.0
14523,50.0,0,114,6.0,96.0
14524,54.0,0,48,12.0,127.0
14525,42.0,60,48,13.0,127.0
14526,58.0,0,60,4.0,127.0
14527,46.0,0,60,4.0,127.0
14528,74.0,0,60,5.0,127.0
14529,62.0,0,60,4.0,127.0
14530,54.0,60,48,12.0,127.0
14531,42.0,0,48,13.0,127.0
14532,50.0,0,114,6.0,105.0
14533,86.0,0,1680,0.0,80.0
14534,42.0,0,1680,3.0,80.0
14535,82.0,0,240,1.0,75.0
14536,74.0,0,1680,1.0,56.0
14537,62.0,0,1680,2.0,80.0
14538,70.0,60,240,2.0,75.0
14539,53.0,0,48,12.0,127.0
14540,41.0,0,48,13.0,127.0
14541,58.0,60,60,4.0,127.0
14542,74.0,0,60,5.0,127.0
14543,46.0,0,60,4.0,127.0
14544,62.0,0,60,4.0,127.0
14545,41.0,60,48,13.0,127.0
14546,53.0,0,48,12.0,127.0
14547,50.0,0,114,6.0,113.0
14548,53.0,0,48,12.0,127.0
14549,41.0,0,48,13.0,127.0
14550,50.0,0,60,4.0,127.0
14551,58.0,0,60,4.0,127.0
14552,46.0,60,60,4.0,127.0
14553,62.0,0,60,5.0,127.0
14554,41.0,60,48,13.0,127.0
14555,53.0,0,48,12.0,127.0
14556,50.0,0,114,6.0,122.0
14557,34.0,0,48,13.0,127.0
14558,50.0,0,48,6.0,127.0
14559,46.0,0,48,12.0,127.0
14560,62.0,0,96,10.0,127.0
14561,86.0,0,96,8.0,127.0
14562,74.0,0,96,8.0,127.0
14563,74.0,0,96,10.0,127.0
14564,62.0,60,96,11.0,127.0
14565,50.0,0,96,11.0,127.0
14566,34.0,60,48,13.0,127.0
14567,50.0,0,48,6.0,127.0
14568,46.0,0,48,12.0,127.0
14569,34.0,0,48,13.0,127.0
14570,46.0,60,48,12.0,127.0
14571,50.0,0,48,6.0,62.0
14572,86.0,0,60,8.0,127.0
14573,62.0,0,60,11.0,127.0
14574,74.0,0,60,10.0,127.0
14575,50.0,0,48,6.0,64.0
14576,34.0,0,48,13.0,127.0
14577,46.0,60,48,12.0,127.0
14578,34.0,0,48,13.0,127.0
14579,50.0,0,48,6.0,66.0
14580,46.0,0,48,12.0,127.0
14581,86.0,0,96,8.0,127.0
14582,62.0,60,96,11.0,127.0
14583,74.0,0,96,10.0,127.0
14584,46.0,0,48,12.0,127.0
14585,50.0,0,48,6.0,68.0
14586,34.0,60,48,13.0,127.0
14587,46.0,0,48,12.0,127.0
14588,50.0,0,48,6.0,70.0
14589,34.0,0,48,13.0,127.0
14590,50.0,0,60,11.0,127.0
14591,62.0,60,60,10.0,127.0
14592,74.0,0,60,8.0,127.0
14593,50.0,0,48,6.0,72.0
14594,46.0,60,48,12.0,127.0
14595,34.0,0,48,13.0,127.0
14596,34.0,0,48,13.0,127.0
14597,46.0,0,48,12.0,127.0
14598,50.0,0,48,6.0,74.0
14599,62.0,0,96,10.0,127.0
14600,74.0,0,96,8.0,127.0
14601,50.0,60,96,11.0,127.0
14602,34.0,0,48,13.0,127.0
14603,46.0,0,48,12.0,127.0
14604,50.0,60,48,6.0,76.0
14605,50.0,60,48,6.0,78.0
14606,46.0,0,48,12.0,127.0
14607,34.0,0,48,13.0,127.0
14608,62.0,0,60,8.0,127.0
14609,38.0,0,60,11.0,127.0
14610,50.0,0,60,10.0,127.0
14611,50.0,0,48,6.0,80.0
14612,46.0,60,48,12.0,127.0
14613,34.0,0,48,13.0,127.0
14614,34.0,60,48,13.0,127.0
14615,50.0,0,48,6.0,82.0
14616,46.0,0,48,12.0,127.0
14617,50.0,0,96,10.0,127.0
14618,62.0,0,96,8.0,127.0
14619,38.0,0,96,11.0,127.0
14620,34.0,60,48,13.0,127.0
14621,50.0,0,48,6.0,83.0
14622,46.0,0,48,12.0,127.0
14623,34.0,0,48,13.0,127.0
14624,50.0,0,48,6.0,85.0
14625,46.0,0,48,12.0,127.0
14626,62.0,60,60,10.0,127.0
14627,74.0,0,60,8.0,127.0
14628,50.0,0,60,11.0,127.0
14629,50.0,60,48,6.0,87.0
14630,34.0,0,48,13.0,127.0
14631,46.0,0,48,12.0,127.0
14632,50.0,0,48,6.0,89.0
14633,34.0,0,48,13.0,127.0
14634,46.0,60,48,12.0,127.0
14635,50.0,0,96,11.0,127.0
14636,62.0,0,96,10.0,127.0
14637,74.0,0,96,8.0,127.0
14638,46.0,0,48,12.0,127.0
14639,50.0,0,48,6.0,91.0
14640,34.0,60,48,13.0,127.0
14641,50.0,60,48,6.0,93.0
14642,34.0,0,48,13.0,127.0
14643,46.0,0,48,12.0,127.0
14644,86.0,0,60,8.0,127.0
14645,74.0,0,60,10.0,127.0
14646,62.0,0,60,11.0,127.0
14647,34.0,60,48,13.0,127.0
14648,46.0,0,48,12.0,127.0
14649,50.0,0,48,6.0,95.0
14650,46.0,0,48,12.0,127.0
14651,34.0,0,48,13.0,127.0
14652,50.0,0,48,6.0,97.0
14653,86.0,0,96,8.0,127.0
14654,62.0,60,96,11.0,127.0
14655,74.0,0,96,10.0,127.0
14656,46.0,0,48,12.0,127.0
14657,50.0,0,48,6.0,99.0
14658,34.0,60,48,13.0,127.0
14659,46.0,60,48,12.0,127.0
14660,34.0,0,48,13.0,127.0
14661,50.0,0,48,6.0,101.0
14662,62.0,0,60,10.0,127.0
14663,50.0,0,60,11.0,127.0
14664,74.0,0,60,8.0,127.0
14665,46.0,0,48,12.0,127.0
14666,50.0,0,48,6.0,103.0
14667,34.0,60,48,13.0,127.0
14668,34.0,0,48,13.0,127.0
14669,50.0,0,48,6.0,105.0
14670,46.0,0,48,12.0,127.0
14671,50.0,0,96,11.0,127.0
14672,74.0,60,96,8.0,127.0
14673,62.0,0,96,10.0,127.0
14674,50.0,0,48,6.0,107.0
14675,34.0,0,48,13.0,127.0
14676,46.0,60,48,12.0,127.0
14677,50.0,0,48,6.0,108.0
14678,34.0,60,48,13.0,127.0
14679,46.0,0,48,12.0,127.0
14680,38.0,0,60,11.0,127.0
14681,50.0,0,60,10.0,127.0
14682,62.0,0,60,8.0,127.0
14683,46.0,0,48,12.0,127.0
14684,34.0,0,48,13.0,127.0
14685,50.0,60,48,6.0,110.0
14686,46.0,0,1728,4.0,127.0
14687,34.0,0,48,13.0,127.0
14688,58.0,0,1728,4.0,127.0
14689,46.0,0,48,12.0,127.0
14690,50.0,60,48,6.0,112.0
14691,65.0,0,1728,4.0,127.0
14692,38.0,0,96,11.0,127.0
14693,50.0,0,96,10.0,127.0
14694,62.0,0,96,8.0,127.0
14695,34.0,60,48,13.0,127.0
14696,50.0,0,48,6.0,114.0
14697,46.0,0,48,12.0,127.0
14698,62.0,0,1824,5.0,127.0
14699,74.0,0,1824,5.0,127.0
14700,34.0,60,48,13.0,127.0
14701,46.0,0,48,12.0,127.0
14702,50.0,0,48,6.0,116.0
14703,50.0,60,48,6.0,118.0
14704,86.0,0,48,8.0,127.0
14705,29.0,0,48,13.0,127.0
14706,62.0,0,48,5.0,127.0
14707,41.0,0,48,12.0,127.0
14708,62.0,0,48,11.0,127.0
14709,74.0,0,48,10.0,127.0
14710,74.0,0,48,5.0,127.0
14711,68.0,0,2160,2.0,89.0
14712,74.0,0,2160,2.0,89.0
14713,92.0,0,2160,0.0,89.0
14714,86.0,0,2160,1.0,89.0
14715,46.0,0,1920,3.0,101.0
14716,80.0,0,2160,1.0,89.0
14717,34.0,0,1,3.0,64.0
14718,50.0,0,48,6.0,108.0
14719,50.0,60,48,6.0,108.0
14720,50.0,60,48,6.0,108.0
14721,50.0,60,48,6.0,108.0
14722,50.0,60,48,6.0,108.0
14723,29.0,0,336,13.0,127.0
14724,41.0,60,336,3.0,127.0
14725,41.0,0,336,12.0,127.0
14726,50.0,60,48,6.0,108.0
14727,50.0,60,48,6.0,108.0
14728,29.0,60,48,13.0,127.0
14729,41.0,0,48,12.0,127.0
14730,41.0,0,48,3.0,127.0
14731,50.0,0,48,6.0,108.0
14732,50.0,60,48,6.0,108.0
14733,50.0,60,48,6.0,108.0
14734,50.0,60,48,6.0,108.0
14735,50.0,60,48,6.0,108.0
14736,50.0,60,48,6.0,108.0
14737,50.0,60,48,6.0,108.0
14738,69.0,0,828,10.0,127.0
14739,81.0,0,828,8.0,127.0
14740,57.0,0,828,11.0,127.0
14741,69.0,0,864,5.0,127.0
14742,57.0,0,864,5.0,127.0
14743,50.0,60,48,6.0,108.0
14744,53.0,0,48,11.0,127.0
14745,65.0,60,48,10.0,127.0
14746,77.0,0,48,8.0,127.0
14747,57.0,0,48,5.0,127.0
14748,50.0,0,48,6.0,108.0
14749,69.0,0,48,5.0,127.0
14750,50.0,0,48,6.0,108.0
14751,50.0,60,48,6.0,108.0
14752,50.0,60,48,6.0,108.0
14753,50.0,60,48,6.0,108.0
14754,50.0,60,48,6.0,108.0
14755,74.0,60,336,8.0,127.0
14756,45.0,0,816,12.0,127.0
14757,62.0,0,336,10.0,127.0
14758,45.0,0,816,3.0,127.0
14759,33.0,0,816,13.0,127.0
14760,57.0,0,336,5.0,127.0
14761,62.0,0,336,11.0,127.0
14762,69.0,0,336,5.0,127.0
14763,50.0,60,48,6.0,108.0
14764,50.0,60,48,6.0,108.0
14765,57.0,0,48,5.0,127.0
14766,69.0,0,48,5.0,127.0
14767,45.0,0,48,3.0,127.0
14768,33.0,0,48,13.0,127.0
14769,57.0,0,48,11.0,127.0
14770,50.0,0,48,6.0,108.0
14771,57.0,0,48,10.0,127.0
14772,69.0,60,48,8.0,127.0
14773,45.0,0,48,12.0,127.0
14774,50.0,0,48,6.0,108.0
14775,50.0,60,48,6.0,108.0
14776,50.0,60,48,6.0,108.0
14777,69.0,0,1632,2.0,89.0
14778,74.0,0,1632,2.0,89.0
14779,93.0,0,1632,0.0,89.0
14780,86.0,0,1632,1.0,89.0
14781,81.0,0,1632,1.0,89.0
14782,50.0,60,48,6.0,108.0
14783,69.0,0,288,5.0,127.0
14784,65.0,0,288,8.0,127.0
14785,57.0,0,288,5.0,127.0
14786,53.0,0,288,10.0,127.0
14787,50.0,60,48,6.0,108.0
14788,53.0,60,288,11.0,127.0
14789,38.0,0,336,13.0,127.0
14790,50.0,0,336,12.0,127.0
14791,50.0,0,336,3.0,127.0
14792,50.0,60,48,6.0,108.0
14793,53.0,0,1824,4.0,127.0
14794,65.0,0,1824,4.0,127.0
14795,69.0,0,1824,4.0,127.0
14796,69.0,0,48,5.0,127.0
14797,57.0,0,48,5.0,127.0
14798,57.0,60,48,11.0,127.0
14799,69.0,0,48,8.0,127.0
14800,50.0,0,48,6.0,108.0
14801,57.0,0,48,10.0,127.0
14802,65.0,0,48,4.0,127.0
14803,50.0,0,48,6.0,108.0
14804,62.0,0,48,12.0,127.0
14805,86.0,0,48,0.0,127.0
14806,74.0,60,48,1.0,127.0
14807,62.0,0,48,4.0,127.0
14808,53.0,0,48,11.0,127.0
14809,53.0,0,48,10.0,127.0
14810,62.0,0,48,2.0,127.0
14811,69.0,0,48,5.0,127.0
14812,57.0,0,48,5.0,127.0
14813,74.0,0,48,4.0,127.0
14814,65.0,0,48,8.0,127.0
14815,62.0,0,48,3.0,127.0
14816,50.0,0,48,13.0,127.0
14817,50.0,0,48,6.0,108.0
14818,62.0,0,48,8.0,127.0
14819,53.0,0,48,11.0,127.0
14820,62.0,0,48,10.0,127.0
14821,57.0,0,48,10.0,127.0
14822,62.0,0,48,10.0,127.0
14823,74.0,0,48,8.0,127.0
14824,62.0,0,48,8.0,127.0
14825,50.0,0,48,6.0,108.0
14826,53.0,60,48,11.0,127.0
14827,57.0,0,48,10.0,127.0
14828,50.0,0,48,6.0,108.0
14829,53.0,0,48,11.0,127.0
14830,74.0,0,48,8.0,127.0
14831,62.0,60,48,8.0,127.0
14832,62.0,0,48,10.0,127.0
14833,50.0,0,48,6.0,108.0
14834,74.0,0,48,8.0,127.0
14835,62.0,0,48,8.0,127.0
14836,62.0,0,48,10.0,127.0
14837,53.0,60,48,11.0,127.0
14838,57.0,0,48,10.0,127.0
14839,62.0,0,48,10.0,127.0
14840,50.0,0,48,6.0,108.0
14841,62.0,0,48,8.0,127.0
14842,74.0,0,48,8.0,127.0
14843,53.0,60,48,11.0,127.0
14844,57.0,0,48,10.0,127.0
14845,38.0,0,336,13.0,127.0
14846,50.0,0,336,12.0,127.0
14847,62.0,0,48,8.0,127.0
14848,74.0,0,48,8.0,127.0
14849,50.0,0,48,6.0,108.0
14850,53.0,0,48,11.0,127.0
14851,62.0,0,48,10.0,127.0
14852,57.0,60,48,10.0,127.0
14853,50.0,0,48,6.0,108.0
14854,53.0,0,48,11.0,127.0
14855,74.0,0,48,8.0,127.0
14856,62.0,0,48,8.0,127.0
14857,62.0,0,48,10.0,127.0
14858,57.0,60,48,10.0,127.0
14859,50.0,0,48,12.0,127.0
14860,74.0,0,48,8.0,127.0
14861,38.0,0,48,13.0,127.0
14862,50.0,0,48,6.0,108.0
14863,62.0,0,48,10.0,127.0
14864,57.0,0,48,10.0,127.0
14865,62.0,60,48,8.0,127.0
14866,53.0,0,48,11.0,127.0
14867,62.0,0,48,10.0,127.0
14868,53.0,0,48,11.0,127.0
14869,74.0,0,48,8.0,127.0
14870,62.0,0,48,8.0,127.0
14871,50.0,0,48,6.0,108.0
14872,57.0,60,48,10.0,127.0
14873,50.0,0,48,6.0,108.0
14874,62.0,60,48,10.0,127.0
14875,57.0,0,48,10.0,127.0
14876,74.0,0,48,8.0,127.0
14877,62.0,0,48,8.0,127.0
14878,53.0,0,48,11.0,127.0
14879,62.0,0,48,8.0,127.0
14880,50.0,60,48,6.0,108.0
14881,74.0,0,48,8.0,127.0
14882,62.0,0,48,10.0,127.0
14883,57.0,0,48,10.0,127.0
14884,53.0,0,48,11.0,127.0
14885,53.0,0,48,11.0,127.0
14886,62.0,0,48,10.0,127.0
14887,57.0,0,48,10.0,127.0
14888,74.0,60,48,8.0,127.0
14889,62.0,0,48,8.0,127.0
14890,50.0,0,48,6.0,108.0
14891,50.0,0,48,6.0,108.0
14892,57.0,0,48,10.0,127.0
14893,62.0,0,48,10.0,127.0
14894,53.0,60,48,11.0,127.0
14895,74.0,0,48,8.0,127.0
14896,62.0,0,48,8.0,127.0
14897,53.0,0,48,11.0,127.0
14898,50.0,0,48,6.0,108.0
14899,62.0,0,48,10.0,127.0
14900,57.0,0,828,4.0,127.0
14901,69.0,0,828,2.0,127.0
14902,69.0,0,828,4.0,127.0
14903,45.0,60,828,3.0,127.0
14904,74.0,0,48,8.0,127.0
14905,74.0,0,828,5.0,127.0
14906,62.0,0,48,8.0,127.0
14907,57.0,60,48,10.0,127.0
14908,62.0,0,828,5.0,127.0
14909,81.0,0,828,1.0,102.0
14910,93.0,0,828,0.0,102.0
14911,53.0,60,48,11.0,127.0
14912,62.0,0,48,10.0,127.0
14913,62.0,0,48,8.0,127.0
14914,74.0,0,48,8.0,127.0
14915,57.0,0,48,10.0,127.0
14916,50.0,0,48,6.0,108.0
14917,50.0,0,48,6.0,108.0
14918,62.0,0,48,8.0,127.0
14919,65.0,60,48,2.0,127.0
14920,57.0,0,48,10.0,127.0
14921,62.0,0,48,10.0,127.0
14922,77.0,0,48,1.0,102.0
14923,41.0,0,48,3.0,127.0
14924,53.0,0,48,11.0,127.0
14925,89.0,0,48,0.0,102.0
14926,53.0,0,48,4.0,127.0
14927,62.0,0,48,5.0,127.0
14928,74.0,0,48,5.0,127.0
14929,65.0,0,48,4.0,127.0
14930,74.0,0,48,8.0,127.0
14931,62.0,0,48,10.0,127.0
14932,74.0,0,48,8.0,127.0
14933,57.0,0,48,10.0,127.0
14934,62.0,0,48,8.0,127.0
14935,50.0,0,48,6.0,108.0
14936,53.0,0,48,11.0,127.0
14937,62.0,0,48,8.0,127.0
14938,74.0,0,48,8.0,127.0
14939,62.0,0,48,10.0,127.0
14940,53.0,60,48,11.0,127.0
14941,57.0,0,48,10.0,127.0
14942,50.0,0,48,6.0,108.0
14943,62.0,0,48,10.0,127.0
14944,57.0,60,48,10.0,127.0
14945,53.0,0,48,11.0,127.0
14946,74.0,0,48,8.0,127.0
14947,62.0,0,48,8.0,127.0
14948,50.0,0,48,6.0,108.0
14949,62.0,0,48,8.0,127.0
14950,74.0,0,48,8.0,127.0
14951,57.0,0,48,10.0,127.0
14952,62.0,0,48,10.0,127.0
14953,50.0,0,48,6.0,108.0
14954,53.0,60,48,11.0,127.0
14955,62.0,0,48,10.0,127.0
14956,57.0,60,48,10.0,127.0
14957,62.0,0,48,8.0,127.0
14958,50.0,0,48,6.0,108.0
14959,74.0,0,48,8.0,127.0
14960,53.0,0,48,11.0,127.0
14961,53.0,0,816,12.0,127.0
14962,74.0,0,336,1.0,102.0
14963,50.0,0,336,4.0,127.0
14964,41.0,0,816,13.0,127.0
14965,86.0,0,336,0.0,102.0
14966,74.0,60,336,2.0,127.0
14967,74.0,0,336,5.0,127.0
14968,62.0,0,336,4.0,127.0
14969,62.0,0,336,5.0,127.0
14970,50.0,0,336,3.0,127.0
14971,53.0,0,48,11.0,127.0
14972,50.0,0,48,6.0,108.0
14973,62.0,60,48,10.0,127.0
14974,57.0,0,48,10.0,127.0
14975,74.0,0,48,8.0,127.0
14976,62.0,0,48,8.0,127.0
14977,57.0,0,48,10.0,127.0
14978,53.0,0,48,11.0,127.0
14979,74.0,0,48,8.0,127.0
14980,62.0,0,48,8.0,127.0
14981,50.0,0,48,6.0,108.0
14982,62.0,60,48,10.0,127.0
14983,53.0,0,48,11.0,127.0
14984,69.0,60,48,1.0,102.0
14985,69.0,0,48,2.0,127.0
14986,50.0,0,48,6.0,108.0
14987,45.0,0,48,4.0,127.0
14988,62.0,0,48,8.0,127.0
14989,74.0,0,48,5.0,127.0
14990,62.0,0,48,5.0,127.0
14991,74.0,0,48,8.0,127.0
14992,62.0,0,48,10.0,127.0
14993,57.0,0,48,4.0,127.0
14994,57.0,0,48,10.0,127.0
14995,81.0,0,48,0.0,102.0
14996,45.0,0,48,3.0,127.0
14997,57.0,0,96,12.0,127.0
14998,45.0,0,96,13.0,127.0
14999,50.0,0,48,6.0,108.0
15000,62.0,0,48,10.0,127.0
15001,53.0,0,48,11.0,127.0
15002,62.0,0,48,8.0,127.0
15003,57.0,0,48,10.0,127.0
15004,74.0,0,48,8.0,127.0
15005,74.0,0,48,8.0,127.0
15006,62.0,0,48,10.0,127.0
15007,53.0,0,48,11.0,127.0
15008,50.0,60,48,6.0,108.0
15009,57.0,0,48,10.0,127.0
15010,62.0,0,48,8.0,127.0
15011,74.0,0,48,8.0,127.0
15012,57.0,0,48,10.0,127.0
15013,62.0,60,48,10.0,127.0
15014,53.0,0,48,11.0,127.0
15015,50.0,0,48,6.0,108.0
15016,62.0,0,48,8.0,127.0
15017,57.0,0,48,10.0,127.0
15018,62.0,0,48,10.0,127.0
15019,53.0,60,48,11.0,127.0
15020,74.0,0,48,8.0,127.0
15021,62.0,0,48,8.0,127.0
15022,50.0,0,48,6.0,108.0
15023,62.0,0,96,12.0,127.0
15024,50.0,0,96,13.0,127.0
15025,62.0,0,48,10.0,127.0
15026,53.0,0,48,11.0,127.0
15027,65.0,0,288,1.0,102.0
15028,41.0,60,288,3.0,127.0
15029,62.0,0,288,5.0,127.0
15030,74.0,0,288,5.0,127.0
15031,53.0,0,288,4.0,127.0
15032,74.0,0,48,8.0,127.0
15033,65.0,0,288,2.0,127.0
15034,57.0,0,48,10.0,127.0
15035,62.0,0,48,8.0,127.0
15036,77.0,0,288,0.0,102.0
15037,50.0,60,48,6.0,108.0
15038,41.0,0,288,4.0,127.0
15039,74.0,0,48,8.0,127.0
15040,62.0,0,48,8.0,127.0
15041,53.0,0,48,11.0,127.0
15042,57.0,0,48,10.0,127.0
15043,50.0,60,48,6.0,108.0
15044,62.0,0,48,10.0,127.0
15045,74.0,0,48,8.0,127.0
15046,62.0,0,48,5.0,127.0
15047,53.0,0,48,11.0,127.0
15048,74.0,0,48,5.0,127.0
15049,57.0,0,48,10.0,127.0
15050,62.0,0,48,10.0,127.0
15051,81.0,60,48,2.0,89.0
15052,62.0,0,48,8.0,127.0
15053,81.0,0,48,1.0,71.0
15054,93.0,0,48,0.0,71.0
15055,50.0,0,48,6.0,108.0
15056,45.0,0,48,3.0,127.0
15057,69.0,0,48,4.0,127.0
15058,45.0,0,48,4.0,127.0
15059,53.0,0,48,11.0,127.0
15060,89.0,0,48,0.0,71.0
15061,41.0,0,48,4.0,127.0
15062,62.0,0,48,5.0,127.0
15063,74.0,0,48,5.0,127.0
15064,65.0,0,48,4.0,127.0
15065,50.0,60,48,6.0,108.0
15066,41.0,0,48,3.0,127.0
15067,74.0,0,48,8.0,127.0
15068,62.0,0,48,8.0,127.0
15069,62.0,0,48,10.0,127.0
15070,57.0,0,48,10.0,127.0
15071,77.0,0,48,1.0,71.0
15072,77.0,0,48,2.0,89.0
15073,48.0,0,36,13.0,127.0
15074,60.0,0,36,12.0,127.0
15075,50.0,0,48,6.0,82.0
15076,50.0,60,48,6.0,82.0
15077,50.0,60,48,6.0,82.0
15078,50.0,60,48,6.0,82.0
15079,50.0,0,48,6.0,82.0
15080,46.0,60,96,13.0,127.0
15081,58.0,0,96,12.0,127.0
15082,50.0,60,48,6.0,82.0
15083,50.0,60,48,6.0,82.0
15084,50.0,60,48,6.0,82.0
15085,50.0,0,48,6.0,82.0
15086,62.0,0,534,5.0,114.0
15087,74.0,0,534,5.0,114.0
15088,62.0,0,576,11.0,121.0
15089,62.0,0,576,10.0,121.0
15090,74.0,0,576,10.0,121.0
15091,57.0,0,96,12.0,127.0
15092,50.0,60,576,11.0,121.0
15093,74.0,0,576,8.0,121.0
15094,62.0,0,576,8.0,121.0
15095,45.0,60,96,13.0,127.0
15096,50.0,60,48,6.0,82.0
15097,50.0,0,48,6.0,82.0
15098,62.0,60,54,5.0,76.0
15099,74.0,0,54,5.0,76.0
15100,65.0,0,60,10.0,114.0
15101,53.0,0,60,11.0,114.0
15102,77.0,0,60,8.0,114.0
15103,50.0,60,48,6.0,82.0
15104,50.0,60,48,6.0,82.0
15105,62.0,0,54,5.0,76.0
15106,74.0,0,54,5.0,76.0
15107,64.0,0,60,10.0,114.0
15108,52.0,0,60,11.0,114.0
15109,76.0,0,60,8.0,114.0
15110,55.0,0,96,12.0,127.0
15111,43.0,0,96,13.0,127.0
15112,50.0,60,48,6.0,82.0
15113,50.0,0,48,6.0,82.0
15114,62.0,0,54,5.0,76.0
15115,74.0,0,54,5.0,76.0
15116,74.0,0,60,8.0,114.0
15117,50.0,0,60,11.0,114.0
15118,62.0,60,60,10.0,114.0
15119,50.0,60,48,6.0,82.0
15120,50.0,0,48,6.0,102.0
15121,57.0,0,96,11.0,114.0
15122,41.0,0,96,13.0,127.0
15123,53.0,0,96,12.0,127.0
15124,69.0,0,96,10.0,114.0
15125,81.0,0,96,8.0,114.0
15126,50.0,60,48,6.0,100.0
15127,69.0,60,108,5.0,76.0
15128,57.0,0,108,5.0,76.0
15129,50.0,60,48,6.0,98.0
15130,50.0,60,48,6.0,96.0
15131,50.0,60,48,6.0,94.0
15132,67.0,0,96,10.0,114.0
15133,55.0,0,96,12.0,127.0
15134,55.0,0,96,11.0,114.0
15135,79.0,0,96,8.0,114.0
15136,43.0,0,96,13.0,127.0
15137,69.0,0,108,5.0,76.0
15138,57.0,0,108,5.0,76.0
15139,50.0,60,48,6.0,92.0
15140,50.0,60,48,6.0,90.0
15141,50.0,60,48,6.0,89.0
15142,50.0,0,48,6.0,86.0
15143,64.0,0,96,10.0,114.0
15144,76.0,0,96,8.0,114.0
15145,52.0,0,96,11.0,114.0
15146,45.0,0,96,13.0,127.0
15147,57.0,0,96,12.0,127.0
15148,50.0,60,48,6.0,85.0
15149,69.0,60,108,5.0,76.0
15150,57.0,0,108,5.0,76.0
15151,50.0,60,48,6.0,83.0
15152,50.0,60,48,6.0,82.0
15153,50.0,60,48,6.0,79.0
15154,69.0,0,96,10.0,114.0
15155,57.0,0,96,11.0,114.0
15156,81.0,0,96,8.0,114.0
15157,69.0,0,108,5.0,76.0
15158,57.0,0,108,5.0,76.0
15159,50.0,60,48,6.0,78.0
15160,47.0,0,114,13.0,127.0
15161,59.0,0,114,12.0,127.0
15162,50.0,0,48,6.0,76.0
15163,38.0,0,1860,4.0,127.0
15164,62.0,0,1860,4.0,127.0
15165,86.0,0,1860,0.0,71.0
15166,38.0,0,1860,3.0,127.0
15167,74.0,0,1860,2.0,89.0
15168,74.0,0,1860,1.0,71.0
15169,50.0,60,48,6.0,74.0
15170,60.0,60,114,12.0,127.0
15171,48.0,0,114,13.0,127.0
15172,62.0,0,48,11.0,80.0
15173,50.0,0,48,6.0,82.0
15174,62.0,0,48,10.0,80.0
15175,74.0,0,48,8.0,80.0
15176,74.0,0,48,8.0,80.0
15177,62.0,60,48,10.0,80.0
15178,62.0,0,48,11.0,80.0
15179,50.0,0,48,6.0,82.0
15180,74.0,0,48,8.0,80.0
15181,62.0,0,48,10.0,80.0
15182,62.0,60,48,11.0,80.0
15183,50.0,0,48,6.0,82.0
15184,62.0,0,48,11.0,80.0
15185,74.0,60,48,8.0,80.0
15186,62.0,0,48,10.0,80.0
15187,50.0,0,48,6.0,82.0
15188,48.0,0,240,13.0,127.0
15189,60.0,0,240,12.0,127.0
15190,50.0,0,48,6.0,82.0
15191,62.0,0,48,11.0,80.0
15192,62.0,60,48,10.0,80.0
15193,74.0,0,48,8.0,80.0
15194,46.0,0,96,13.0,127.0
15195,58.0,0,96,12.0,127.0
15196,62.0,0,48,11.0,80.0
15197,62.0,60,48,10.0,80.0
15198,50.0,0,48,6.0,82.0
15199,74.0,0,48,8.0,80.0
15200,74.0,0,48,8.0,80.0
15201,62.0,60,48,11.0,80.0
15202,50.0,0,48,6.0,82.0
15203,62.0,0,48,10.0,80.0
15204,62.0,0,48,11.0,80.0
15205,50.0,0,48,6.0,82.0
15206,62.0,0,48,10.0,80.0
15207,74.0,60,48,8.0,80.0
15208,74.0,60,48,8.0,80.0
15209,62.0,0,48,10.0,80.0
15210,50.0,0,48,6.0,82.0
15211,62.0,0,48,11.0,80.0
15212,62.0,0,534,5.0,114.0
15213,74.0,0,534,5.0,114.0
15214,74.0,0,576,1.0,85.0
15215,50.0,0,576,3.0,85.0
15216,57.0,0,96,12.0,127.0
15217,86.0,0,576,0.0,85.0
15218,45.0,0,96,13.0,127.0
15219,62.0,0,576,4.0,80.0
15220,74.0,0,576,2.0,85.0
15221,50.0,60,48,6.0,82.0
15222,62.0,0,48,10.0,80.0
15223,62.0,0,48,11.0,80.0
15224,74.0,0,48,8.0,80.0
15225,50.0,0,48,6.0,82.0
15226,62.0,0,48,11.0,80.0
15227,74.0,0,48,8.0,80.0
15228,62.0,0,48,10.0,80.0
15229,74.0,0,54,5.0,76.0
15230,62.0,0,54,5.0,76.0
15231,77.0,60,60,2.0,80.0
15232,77.0,0,60,1.0,80.0
15233,89.0,0,60,0.0,80.0
15234,53.0,0,60,3.0,80.0
15235,65.0,0,60,4.0,127.0
15236,62.0,0,48,10.0,80.0
15237,74.0,0,48,8.0,80.0
15238,50.0,60,48,6.0,82.0
15239,62.0,0,48,11.0,80.0
15240,50.0,0,48,6.0,82.0
15241,62.0,0,48,11.0,80.0
15242,74.0,0,48,8.0,80.0
15243,62.0,0,48,10.0,80.0
15244,62.0,0,54,5.0,76.0
15245,74.0,0,54,5.0,76.0
15246,52.0,60,60,3.0,80.0
15247,64.0,0,60,4.0,127.0
15248,76.0,0,60,2.0,80.0
15249,76.0,0,60,1.0,80.0
15250,88.0,0,60,0.0,80.0
15251,43.0,0,96,13.0,127.0
15252,55.0,0,96,12.0,127.0
15253,74.0,0,48,8.0,80.0
15254,50.0,0,48,6.0,82.0
15255,62.0,0,48,10.0,80.0
15256,62.0,60,48,11.0,80.0
15257,74.0,0,48,8.0,80.0
15258,50.0,0,48,6.0,82.0
15259,62.0,60,48,11.0,80.0
15260,62.0,0,48,10.0,80.0
15261,74.0,0,54,5.0,76.0
15262,62.0,0,54,5.0,76.0
15263,74.0,0,60,2.0,80.0
15264,50.0,0,60,3.0,80.0
15265,86.0,0,60,0.0,80.0
15266,62.0,0,60,4.0,127.0
15267,74.0,0,60,1.0,80.0
15268,62.0,0,48,10.0,80.0
15269,62.0,0,48,11.0,80.0
15270,74.0,60,48,8.0,80.0
15271,50.0,0,48,6.0,82.0
15272,50.0,0,48,6.0,82.0
15273,62.0,0,48,10.0,80.0
15274,62.0,0,48,11.0,80.0
15275,74.0,0,48,8.0,80.0
15276,54.0,0,96,12.0,127.0
15277,81.0,0,96,1.0,80.0
15278,93.0,0,96,0.0,80.0
15279,57.0,0,96,3.0,80.0
15280,42.0,0,96,13.0,127.0
15281,81.0,0,96,2.0,80.0
15282,69.0,60,96,4.0,127.0
15283,62.0,0,48,10.0,80.0
15284,74.0,60,48,8.0,80.0
15285,62.0,0,48,11.0,80.0
15286,50.0,0,48,6.0,82.0
15287,69.0,0,108,5.0,76.0
15288,57.0,0,108,5.0,76.0
15289,62.0,60,48,11.0,80.0
15290,50.0,0,48,6.0,82.0
15291,62.0,0,48,10.0,80.0
15292,74.0,0,48,8.0,80.0
15293,62.0,0,48,11.0,80.0
15294,62.0,60,48,10.0,80.0
15295,50.0,0,48,6.0,82.0
15296,74.0,0,48,8.0,80.0
15297,74.0,0,48,8.0,80.0
15298,62.0,0,48,11.0,80.0
15299,62.0,60,48,10.0,80.0
15300,50.0,0,48,6.0,82.0
15301,79.0,0,96,1.0,80.0
15302,55.0,0,96,12.0,127.0
15303,43.0,0,96,13.0,127.0
15304,91.0,0,96,0.0,80.0
15305,67.0,0,96,4.0,127.0
15306,55.0,0,96,3.0,80.0
15307,79.0,0,96,2.0,80.0
15308,62.0,0,48,11.0,80.0
15309,50.0,0,48,6.0,82.0
15310,57.0,0,108,5.0,76.0
15311,69.0,0,108,5.0,76.0
15312,74.0,60,48,8.0,80.0
15313,62.0,0,48,10.0,80.0
15314,74.0,0,48,8.0,80.0
15315,62.0,0,48,10.0,80.0
15316,50.0,0,48,6.0,82.0
15317,62.0,60,48,11.0,80.0
15318,62.0,60,48,11.0,80.0
15319,74.0,0,48,8.0,80.0
15320,62.0,0,48,10.0,80.0
15321,50.0,0,48,6.0,82.0
15322,74.0,0,48,8.0,80.0
15323,50.0,0,48,6.0,82.0
15324,62.0,0,48,11.0,80.0
15325,62.0,60,48,10.0,80.0
15326,64.0,0,96,4.0,127.0
15327,57.0,0,96,12.0,127.0
15328,88.0,0,96,0.0,80.0
15329,76.0,0,96,1.0,80.0
15330,45.0,0,96,13.0,127.0
15331,76.0,0,96,2.0,80.0
15332,52.0,0,96,3.0,80.0
15333,57.0,0,108,5.0,76.0
15334,69.0,0,108,5.0,76.0
15335,74.0,0,48,8.0,80.0
15336,62.0,60,48,10.0,80.0
15337,50.0,0,48,6.0,82.0
15338,62.0,0,48,11.0,80.0
15339,50.0,60,48,6.0,82.0
15340,62.0,0,48,10.0,80.0
15341,74.0,0,48,8.0,80.0
15342,62.0,0,48,11.0,80.0
15343,74.0,60,48,8.0,80.0
15344,62.0,0,48,11.0,80.0
15345,50.0,0,48,6.0,82.0
15346,62.0,0,48,10.0,80.0
15347,74.0,0,48,8.0,80.0
15348,62.0,0,48,10.0,80.0
15349,62.0,0,48,11.0,80.0
15350,50.0,0,1728,4.0,80.0
15351,50.0,0,48,6.0,82.0
15352,45.0,0,80,13.0,80.0
15353,57.0,0,80,12.0,80.0
15354,69.0,0,96,4.0,127.0
15355,81.0,0,96,1.0,80.0
15356,57.0,0,96,3.0,80.0
15357,93.0,60,96,0.0,80.0
15358,81.0,0,96,2.0,80.0
15359,62.0,60,48,10.0,80.0
15360,62.0,0,48,11.0,80.0
15361,69.0,0,108,5.0,76.0
15362,57.0,0,108,5.0,76.0
15363,50.0,0,48,6.0,82.0
15364,74.0,0,48,8.0,80.0
15365,47.0,0,80,13.0,127.0
15366,59.0,20,80,12.0,127.0
15367,74.0,40,48,8.0,80.0
15368,62.0,0,48,11.0,80.0
15369,62.0,0,48,10.0,80.0
15370,50.0,0,48,6.0,82.0
15371,50.0,0,48,6.0,82.0
15372,74.0,0,48,8.0,80.0
15373,62.0,20,48,10.0,80.0
15374,62.0,0,48,11.0,80.0
15375,48.0,0,0,13.0,127.0
15376,60.0,60,0,12.0,127.0
15377,50.0,0,48,6.0,87.0
15378,50.0,60,48,6.0,87.0
15379,50.0,60,48,6.0,87.0
15380,62.0,0,192,5.0,120.0
15381,74.0,0,192,5.0,120.0
15382,50.0,60,48,6.0,87.0
15383,50.0,60,48,6.0,87.0
15384,50.0,60,48,6.0,87.0
15385,62.0,0,384,10.0,89.0
15386,50.0,0,384,11.0,89.0
15387,74.0,0,384,8.0,89.0
15388,50.0,60,48,6.0,87.0
15389,50.0,60,48,6.0,87.0
15390,50.0,0,48,6.0,87.0
15391,50.0,60,48,6.0,87.0
15392,50.0,60,48,6.0,87.0
15393,72.0,0,192,5.0,120.0
15394,50.0,60,48,6.0,87.0
15395,60.0,0,768,4.0,120.0
15396,50.0,0,768,4.0,120.0
15397,50.0,60,48,6.0,87.0
15398,54.0,0,768,3.0,112.0
15399,78.0,0,768,1.0,112.0
15400,62.0,0,768,4.0,120.0
15401,66.0,0,768,2.0,112.0
15402,90.0,0,768,0.0,112.0
15403,50.0,60,48,6.0,87.0
15404,51.0,0,384,11.0,89.0
15405,75.0,0,384,8.0,89.0
15406,63.0,60,384,10.0,89.0
15407,50.0,60,48,6.0,87.0
15408,50.0,60,48,6.0,87.0
15409,54.0,0,48,11.0,127.0
15410,66.0,0,48,10.0,127.0
15411,50.0,0,48,6.0,87.0
15412,78.0,0,48,8.0,127.0
15413,66.0,0,48,10.0,127.0
15414,78.0,0,48,8.0,127.0
15415,54.0,60,48,11.0,127.0
15416,50.0,0,48,6.0,87.0
15417,66.0,60,48,10.0,127.0
15418,54.0,0,48,11.0,127.0
15419,78.0,0,48,8.0,127.0
15420,50.0,0,48,6.0,87.0
15421,72.0,0,192,5.0,120.0
15422,66.0,0,48,10.0,127.0
15423,54.0,60,48,11.0,127.0
15424,78.0,0,48,8.0,127.0
15425,50.0,0,48,6.0,87.0
15426,50.0,0,48,6.0,87.0
15427,54.0,0,48,11.0,127.0
15428,78.0,0,48,8.0,127.0
15429,66.0,60,48,10.0,127.0
15430,78.0,0,48,8.0,127.0
15431,50.0,0,48,6.0,87.0
15432,54.0,0,48,11.0,127.0
15433,66.0,60,48,10.0,127.0
15434,87.0,0,384,0.0,78.0
15435,51.0,0,384,3.0,78.0
15436,75.0,0,384,1.0,78.0
15437,60.0,0,384,4.0,120.0
15438,50.0,60,384,4.0,120.0
15439,62.0,0,384,4.0,120.0
15440,63.0,0,384,2.0,78.0
15441,48.0,0,384,13.0,127.0
15442,60.0,0,384,12.0,127.0
15443,78.0,0,48,8.0,127.0
15444,50.0,60,48,6.0,87.0
15445,66.0,0,48,10.0,127.0
15446,54.0,0,48,11.0,127.0
15447,50.0,0,48,6.0,87.0
15448,54.0,0,48,11.0,127.0
15449,66.0,60,48,10.0,127.0
15450,78.0,0,48,8.0,127.0
15451,78.0,0,48,8.0,127.0
15452,66.0,0,48,10.0,127.0
15453,50.0,60,48,6.0,87.0
15454,54.0,0,48,11.0,127.0
15455,78.0,0,48,8.0,127.0
15456,66.0,60,48,10.0,127.0
15457,54.0,0,48,11.0,127.0
15458,50.0,0,48,6.0,87.0
15459,54.0,0,48,11.0,127.0
15460,50.0,60,48,6.0,87.0
15461,66.0,0,48,10.0,127.0
15462,78.0,0,48,8.0,127.0
15463,74.0,0,192,5.0,120.0
15464,62.0,0,192,5.0,120.0
15465,66.0,0,48,10.0,127.0
15466,50.0,0,48,6.0,87.0
15467,78.0,60,48,8.0,127.0
15468,54.0,0,48,11.0,127.0
15469,78.0,0,48,8.0,127.0
15470,50.0,0,48,6.0,87.0
15471,54.0,0,48,11.0,127.0
15472,66.0,60,48,10.0,127.0
15473,78.0,60,48,8.0,127.0
15474,50.0,0,48,6.0,87.0
15475,66.0,0,48,10.0,127.0
15476,54.0,0,48,11.0,127.0
15477,57.0,0,384,12.0,127.0
15478,54.0,0,384,3.0,78.0
15479,66.0,0,384,2.0,78.0
15480,50.0,0,384,4.0,120.0
15481,62.0,0,384,4.0,120.0
15482,45.0,0,384,13.0,127.0
15483,60.0,0,384,4.0,120.0
15484,90.0,0,384,0.0,78.0
15485,78.0,0,384,1.0,78.0
15486,50.0,60,48,6.0,87.0
15487,78.0,0,48,8.0,127.0
15488,66.0,0,48,10.0,127.0
15489,54.0,0,48,11.0,127.0
15490,50.0,0,48,6.0,87.0
15491,66.0,0,48,10.0,127.0
15492,54.0,0,48,11.0,127.0
15493,78.0,60,48,8.0,127.0
15494,50.0,0,48,6.0,87.0
15495,50.0,60,48,6.0,87.0
15496,50.0,60,48,6.0,87.0
15497,62.0,0,192,5.0,120.0
15498,74.0,0,192,5.0,120.0
15499,50.0,60,48,6.0,87.0
15500,58.0,0,288,10.0,127.0
15501,70.0,0,288,10.0,127.0
15502,62.0,0,288,10.0,127.0
15503,50.0,60,48,6.0,87.0
15504,79.0,0,288,8.0,127.0
15505,58.0,60,288,11.0,127.0
15506,50.0,60,48,6.0,87.0
15507,50.0,0,384,4.0,120.0
15508,62.0,0,384,4.0,120.0
15509,50.0,60,48,6.0,87.0
15510,50.0,60,48,6.0,87.0
15511,50.0,0,48,6.0,87.0
15512,50.0,60,48,6.0,87.0
15513,50.0,60,48,6.0,87.0
15514,69.0,0,192,5.0,120.0
15515,50.0,60,48,6.0,87.0
15516,67.0,0,768,2.0,112.0
15517,81.0,0,288,8.0,127.0
15518,55.0,0,768,12.0,127.0
15519,67.0,0,768,4.0,120.0
15520,43.0,0,768,13.0,127.0
15521,91.0,0,768,0.0,112.0
15522,79.0,0,768,1.0,112.0
15523,75.0,0,288,10.0,127.0
15524,66.0,0,288,10.0,127.0
15525,50.0,60,48,6.0,87.0
15526,48.0,0,288,11.0,127.0
15527,60.0,60,288,11.0,127.0
15528,55.0,0,768,3.0,112.0
15529,50.0,60,48,6.0,87.0
15530,60.0,0,384,4.0,120.0
15531,50.0,60,48,6.0,87.0
15532,50.0,60,48,6.0,87.0
15533,43.0,0,48,12.0,80.0
15534,67.0,0,48,10.0,80.0
15535,82.0,0,48,8.0,127.0
15536,74.0,0,48,10.0,80.0
15537,58.0,0,48,11.0,80.0
15538,31.0,0,48,13.0,80.0
15539,50.0,0,48,6.0,62.0
15540,82.0,0,48,8.0,127.0
15541,67.0,0,48,10.0,83.0
15542,74.0,0,48,10.0,83.0
15543,58.0,60,48,11.0,83.0
15544,31.0,0,48,13.0,83.0
15545,43.0,0,48,12.0,83.0
15546,50.0,0,48,6.0,66.0
15547,67.0,0,48,10.0,86.0
15548,74.0,0,48,10.0,86.0
15549,31.0,0,48,13.0,86.0
15550,50.0,60,48,6.0,70.0
15551,82.0,0,48,8.0,127.0
15552,43.0,0,48,12.0,86.0
15553,58.0,0,48,11.0,86.0
15554,58.0,0,48,11.0,89.0
15555,74.0,0,48,10.0,89.0
15556,31.0,0,48,13.0,89.0
15557,67.0,60,48,10.0,89.0
15558,43.0,0,48,12.0,89.0
15559,82.0,0,48,8.0,127.0
15560,50.0,0,48,6.0,75.0
15561,39.0,0,48,13.0,92.0
15562,79.0,0,48,10.0,92.0
15563,51.0,0,48,11.0,92.0
15564,55.0,0,48,11.0,92.0
15565,82.0,0,48,8.0,127.0
15566,50.0,60,48,6.0,79.0
15567,51.0,0,48,12.0,92.0
15568,51.0,0,48,11.0,95.0
15569,50.0,0,48,6.0,83.0
15570,55.0,0,48,11.0,95.0
15571,39.0,60,48,13.0,95.0
15572,79.0,0,48,10.0,95.0
15573,51.0,0,48,12.0,95.0
15574,82.0,0,48,8.0,127.0
15575,91.0,0,384,0.0,78.0
15576,46.0,60,384,4.0,120.0
15577,58.0,0,384,4.0,120.0
15578,55.0,0,384,3.0,78.0
15579,67.0,0,384,4.0,120.0
15580,79.0,0,384,1.0,78.0
15581,67.0,0,384,2.0,78.0
15582,51.0,0,48,11.0,98.0
15583,79.0,0,48,10.0,98.0
15584,82.0,0,48,8.0,127.0
15585,51.0,0,48,12.0,98.0
15586,39.0,60,48,13.0,98.0
15587,50.0,0,48,6.0,87.0
15588,55.0,0,48,11.0,98.0
15589,39.0,0,48,13.0,101.0
15590,55.0,0,48,11.0,101.0
15591,82.0,0,48,8.0,127.0
15592,51.0,0,48,12.0,101.0
15593,50.0,0,48,6.0,91.0
15594,79.0,60,48,10.0,101.0
15595,51.0,0,48,11.0,101.0
15596,50.0,0,48,6.0,95.0
15597,82.0,0,48,8.0,127.0
15598,79.0,0,48,10.0,104.0
15599,51.0,0,48,12.0,104.0
15600,55.0,0,48,11.0,104.0
15601,51.0,0,48,11.0,104.0
15602,39.0,0,48,13.0,104.0
15603,82.0,0,48,8.0,127.0
15604,55.0,0,48,11.0,106.0
15605,51.0,0,48,11.0,106.0
15606,79.0,60,48,10.0,106.0
15607,51.0,0,48,12.0,106.0
15608,50.0,0,48,6.0,99.0
15609,39.0,0,48,13.0,106.0
15610,51.0,0,48,12.0,109.0
15611,51.0,0,48,11.0,109.0
15612,55.0,60,48,11.0,109.0
15613,79.0,0,48,10.0,109.0
15614,82.0,0,48,8.0,127.0
15615,50.0,0,48,6.0,103.0
15616,39.0,0,48,13.0,109.0
15617,39.0,60,48,13.0,112.0
15618,51.0,0,48,11.0,112.0
15619,51.0,0,48,12.0,112.0
15620,82.0,0,48,8.0,127.0
15621,79.0,0,48,10.0,112.0
15622,55.0,0,48,11.0,112.0
15623,50.0,0,48,6.0,107.0
15624,63.0,0,48,12.0,115.0
15625,50.0,0,48,6.0,111.0
15626,79.0,0,48,10.0,115.0
15627,82.0,0,48,8.0,127.0
15628,51.0,0,48,11.0,115.0
15629,55.0,0,48,11.0,115.0
15630,51.0,60,48,13.0,115.0
15631,51.0,60,48,13.0,118.0
15632,82.0,0,48,8.0,127.0
15633,50.0,0,48,6.0,115.0
15634,79.0,0,48,10.0,118.0
15635,63.0,0,48,12.0,118.0
15636,51.0,0,48,11.0,118.0
15637,55.0,0,48,11.0,118.0
15638,67.0,0,384,4.0,120.0
15639,67.0,0,384,2.0,78.0
15640,91.0,0,384,0.0,78.0
15641,79.0,60,384,1.0,78.0
15642,58.0,0,384,4.0,120.0
15643,46.0,0,384,4.0,120.0
15644,55.0,0,384,3.0,78.0
15645,50.0,0,48,6.0,119.0
15646,51.0,0,48,11.0,121.0
15647,55.0,0,48,11.0,121.0
15648,82.0,0,48,8.0,127.0
15649,63.0,0,48,12.0,121.0
15650,51.0,60,48,13.0,121.0
15651,79.0,0,48,10.0,121.0
15652,55.0,0,48,11.0,124.0
15653,51.0,0,48,11.0,124.0
15654,79.0,0,48,10.0,124.0
15655,50.0,0,48,6.0,123.0
15656,82.0,60,48,8.0,127.0
15657,51.0,0,48,13.0,124.0
15658,63.0,0,48,12.0,124.0
15659,50.0,0,48,6.0,127.0
15660,37.0,0,48,13.0,127.0
15661,49.0,0,48,12.0,127.0
15662,49.0,0,48,12.0,127.0
15663,50.0,60,48,6.0,123.0
15664,37.0,0,48,13.0,127.0
15665,49.0,60,48,12.0,127.0
15666,37.0,0,48,13.0,127.0
15667,50.0,0,48,6.0,119.0
15668,49.0,60,48,12.0,127.0
15669,37.0,0,48,13.0,127.0
15670,50.0,0,48,6.0,115.0
15671,50.0,0,48,6.0,111.0
15672,38.0,60,48,13.0,127.0
15673,50.0,0,48,12.0,127.0
15674,50.0,60,48,12.0,127.0
15675,50.0,0,48,6.0,107.0
15676,38.0,0,48,13.0,127.0
15677,38.0,0,48,13.0,127.0
15678,50.0,0,48,12.0,127.0
15679,50.0,60,48,6.0,103.0
15680,79.0,0,1410,5.0,127.0
15681,38.0,0,48,13.0,127.0
15682,50.0,60,48,6.0,99.0
15683,50.0,0,48,12.0,127.0
15684,50.0,0,48,12.0,127.0
15685,50.0,0,48,6.0,95.0
15686,38.0,60,48,13.0,127.0
15687,70.0,0,576,11.0,127.0
15688,70.0,0,576,10.0,127.0
15689,46.0,0,576,4.0,127.0
15690,58.0,0,576,4.0,127.0
15691,82.0,0,576,8.0,127.0
15692,50.0,60,48,12.0,127.0
15693,50.0,0,48,6.0,92.0
15694,38.0,0,48,13.0,127.0
15695,50.0,0,48,6.0,88.0
15696,38.0,0,48,13.0,127.0
15697,50.0,60,48,12.0,127.0
15698,50.0,60,48,6.0,84.0
15699,38.0,0,48,13.0,127.0
15700,50.0,0,48,12.0,127.0
15701,50.0,0,48,12.0,127.0
15702,38.0,0,48,13.0,127.0
15703,50.0,0,48,6.0,80.0
15704,50.0,60,48,12.0,127.0
15705,38.0,0,48,13.0,127.0
15706,50.0,0,48,6.0,76.0
15707,69.0,0,120,11.0,127.0
15708,69.0,60,120,10.0,127.0
15709,81.0,0,120,8.0,127.0
15710,79.0,0,120,5.0,127.0
15711,50.0,0,144,4.0,127.0
15712,62.0,0,144,4.0,127.0
15713,50.0,60,48,12.0,127.0
15714,38.0,0,48,13.0,127.0
15715,50.0,0,48,6.0,72.0
15716,50.0,0,48,6.0,68.0
15717,38.0,60,48,13.0,127.0
15718,50.0,0,48,12.0,127.0
15719,50.0,0,48,6.0,64.0
15720,38.0,0,48,13.0,64.0
15721,50.0,0,48,12.0,64.0
15722,50.0,0,48,6.0,68.0
15723,38.0,0,48,13.0,68.0
15724,50.0,60,48,12.0,68.0
15725,67.0,0,120,10.0,127.0
15726,67.0,0,120,11.0,127.0
15727,79.0,0,120,5.0,127.0
15728,79.0,0,120,8.0,127.0
15729,50.0,60,144,4.0,127.0
15730,62.0,0,144,4.0,127.0
15731,38.0,60,48,13.0,71.0
15732,50.0,0,48,6.0,72.0
15733,50.0,0,48,12.0,71.0
15734,38.0,0,48,13.0,75.0
15735,50.0,0,48,6.0,76.0
15736,50.0,60,48,12.0,75.0
15737,38.0,0,48,13.0,78.0
15738,50.0,60,48,12.0,78.0
15739,50.0,0,48,6.0,80.0
15740,38.0,60,48,13.0,82.0
15741,50.0,0,48,6.0,84.0
15742,50.0,0,48,12.0,82.0
15743,65.0,0,120,11.0,127.0
15744,79.0,0,120,5.0,127.0
15745,77.0,0,120,8.0,127.0
15746,65.0,0,120,10.0,127.0
15747,50.0,0,144,4.0,127.0
15748,62.0,0,144,4.0,127.0
15749,50.0,0,48,12.0,85.0
15750,38.0,0,48,13.0,85.0
15751,50.0,60,48,6.0,88.0
15752,50.0,60,48,6.0,92.0
15753,50.0,0,48,12.0,89.0
15754,38.0,0,48,13.0,89.0
15755,50.0,60,48,12.0,92.0
15756,50.0,0,48,6.0,96.0
15757,38.0,0,48,13.0,92.0
15758,38.0,60,48,13.0,96.0
15759,50.0,0,48,6.0,99.0
15760,50.0,0,48,12.0,96.0
15761,63.0,0,120,11.0,127.0
15762,75.0,0,120,8.0,127.0
15763,63.0,0,120,10.0,127.0
15764,79.0,0,120,5.0,127.0
15765,50.0,0,144,4.0,127.0
15766,62.0,0,144,4.0,127.0
15767,50.0,0,48,12.0,99.0
15768,38.0,60,48,13.0,99.0
15769,50.0,0,48,6.0,103.0
15770,38.0,0,48,13.0,103.0
15771,50.0,60,48,12.0,103.0
15772,50.0,0,48,6.0,107.0
15773,38.0,0,48,13.0,106.0
15774,50.0,60,48,12.0,106.0
15775,50.0,0,48,6.0,111.0
15776,38.0,60,48,13.0,110.0
15777,50.0,0,48,6.0,115.0
15778,50.0,0,48,12.0,110.0
15779,62.0,0,120,10.0,127.0
15780,62.0,0,120,11.0,127.0
15781,79.0,0,120,5.0,127.0
15782,74.0,0,120,8.0,127.0
15783,62.0,0,144,4.0,127.0
15784,50.0,0,144,4.0,127.0
15785,50.0,0,48,12.0,113.0
15786,38.0,60,48,13.0,113.0
15787,50.0,0,48,6.0,119.0
15788,67.0,0,1872,4.0,80.0
15789,79.0,60,1872,2.0,80.0
15790,67.0,0,1872,2.0,80.0
15791,67.0,0,1872,1.0,80.0
15792,91.0,0,1872,0.0,80.0
15793,79.0,0,1872,1.0,80.0
15794,67.0,0,1872,3.0,80.0
15795,55.0,0,1872,3.0,80.0
15796,79.0,0,1872,0.0,80.0
15797,50.0,60,48,12.0,117.0
15798,38.0,0,48,13.0,117.0
15799,50.0,0,48,6.0,123.0
15800,38.0,0,48,13.0,127.0
15801,50.0,0,48,12.0,127.0
15802,50.0,0,48,6.0,127.0
15803,50.0,0,48,6.0,123.0
15804,38.0,60,48,13.0,127.0
15805,50.0,0,48,12.0,127.0
15806,62.0,0,144,4.0,127.0
15807,50.0,0,144,4.0,127.0
15808,38.0,0,48,13.0,127.0
15809,50.0,60,48,6.0,119.0
15810,50.0,0,48,12.0,127.0
15811,76.0,0,192,5.0,120.0
15812,38.0,60,48,13.0,127.0
15813,50.0,0,48,12.0,127.0
15814,50.0,0,48,6.0,115.0
15815,61.0,0,48,12.0,127.0
15816,50.0,60,48,6.0,111.0
15817,38.0,0,48,13.0,127.0
15818,61.0,0,48,12.0,127.0
15819,50.0,60,48,6.0,107.0
15820,38.0,0,48,13.0,127.0
15821,61.0,60,384,10.0,127.0
15822,73.0,0,384,8.0,127.0
15823,61.0,0,384,11.0,127.0
15824,61.0,0,48,12.0,127.0
15825,50.0,0,48,6.0,103.0
15826,38.0,60,48,13.0,127.0
15827,38.0,60,48,13.0,127.0
15828,50.0,0,48,6.0,99.0
15829,61.0,0,48,12.0,127.0
15830,38.0,0,48,13.0,127.0
15831,62.0,0,48,12.0,127.0
15832,50.0,60,48,6.0,95.0
15833,69.0,0,576,1.0,127.0
15834,93.0,0,576,0.0,102.0
15835,81.0,0,576,0.0,127.0
15836,57.0,0,576,3.0,127.0
15837,69.0,0,576,2.0,127.0
15838,62.0,0,48,12.0,127.0
15839,50.0,0,48,6.0,92.0
15840,38.0,60,48,13.0,127.0
15841,50.0,60,48,6.0,88.0
15842,38.0,0,48,13.0,127.0
15843,62.0,0,48,12.0,127.0
15844,78.0,0,192,5.0,96.0
15845,66.0,0,192,5.0,96.0
15846,50.0,0,48,6.0,84.0
15847,38.0,60,48,13.0,127.0
15848,62.0,0,48,12.0,127.0
15849,64.0,0,48,12.0,127.0
15850,38.0,0,48,13.0,127.0
15851,50.0,60,48,6.0,80.0
15852,64.0,0,48,12.0,127.0
15853,38.0,60,48,13.0,127.0
15854,50.0,0,48,6.0,76.0
15855,79.0,0,120,0.0,127.0
15856,91.0,0,120,0.0,102.0
15857,67.0,0,120,1.0,127.0
15858,55.0,0,120,3.0,127.0
15859,67.0,0,120,2.0,127.0
15860,50.0,0,144,4.0,127.0
15861,60.0,0,384,11.0,127.0
15862,62.0,0,144,4.0,127.0
15863,60.0,0,384,10.0,127.0
15864,72.0,0,384,8.0,127.0
15865,64.0,0,48,12.0,127.0
15866,50.0,60,48,6.0,72.0
15867,38.0,0,48,13.0,127.0
15868,38.0,0,48,13.0,127.0
15869,64.0,0,48,12.0,127.0
15870,50.0,60,48,6.0,68.0
15871,50.0,0,48,6.0,64.0
15872,66.0,0,48,12.0,64.0
15873,38.0,60,48,13.0,64.0
15874,66.0,60,48,12.0,68.0
15875,38.0,0,48,13.0,68.0
15876,50.0,0,48,6.0,68.0
15877,90.0,0,120,0.0,102.0
15878,78.0,0,120,0.0,127.0
15879,66.0,0,120,2.0,127.0
15880,66.0,0,120,1.0,127.0
15881,54.0,0,120,3.0,127.0
15882,50.0,0,144,4.0,127.0
15883,62.0,0,144,4.0,127.0
15884,66.0,60,48,12.0,71.0
15885,50.0,0,48,6.0,72.0
15886,38.0,0,48,13.0,71.0
15887,50.0,0,48,6.0,76.0
15888,66.0,0,48,12.0,75.0
15889,38.0,60,48,13.0,75.0
15890,38.0,0,48,13.0,78.0
15891,67.0,0,48,12.0,78.0
15892,50.0,60,48,6.0,80.0
15893,38.0,0,48,13.0,82.0
15894,50.0,0,48,6.0,84.0
15895,67.0,60,48,12.0,82.0
15896,75.0,0,120,0.0,127.0
15897,63.0,0,120,1.0,127.0
15898,51.0,0,120,3.0,127.0
15899,87.0,0,120,0.0,102.0
15900,63.0,0,120,2.0,127.0
15901,62.0,0,144,4.0,127.0
15902,50.0,0,144,4.0,127.0
15903,38.0,60,48,13.0,85.0
15904,50.0,0,48,6.0,88.0
15905,67.0,0,48,12.0,85.0
15906,38.0,0,48,13.0,89.0
15907,67.0,60,48,12.0,89.0
15908,50.0,0,48,6.0,92.0
15909,38.0,0,48,13.0,92.0
15910,69.0,0,48,12.0,92.0
15911,50.0,0,48,6.0,96.0
15912,69.0,60,48,12.0,96.0
15913,50.0,0,48,6.0,99.0
15914,38.0,0,48,13.0,96.0
15915,86.0,0,120,0.0,102.0
15916,74.0,0,120,0.0,127.0
15917,62.0,60,120,1.0,127.0
15918,50.0,0,120,3.0,127.0
15919,62.0,0,120,2.0,127.0
15920,62.0,0,144,4.0,127.0
15921,50.0,0,144,4.0,127.0
15922,69.0,0,48,12.0,99.0
15923,38.0,60,48,13.0,99.0
15924,50.0,0,48,6.0,103.0
15925,50.0,0,48,6.0,107.0
15926,69.0,60,48,12.0,103.0
15927,38.0,0,48,13.0,103.0
15928,50.0,0,48,6.0,111.0
15929,38.0,0,48,13.0,106.0
15930,70.0,60,58,12.0,106.0
15931,62.0,0,80,10.0,127.0
15932,74.0,0,80,8.0,127.0
15933,62.0,0,80,11.0,127.0
15934,38.0,0,48,13.0,110.0
15935,50.0,0,48,6.0,115.0
15936,70.0,60,58,12.0,110.0
15937,60.0,0,120,2.0,127.0
15938,48.0,0,120,3.0,127.0
15939,72.0,0,120,0.0,127.0
15940,60.0,0,120,1.0,127.0
15941,84.0,0,120,0.0,102.0
15942,62.0,0,144,4.0,127.0
15943,50.0,0,144,4.0,127.0
15944,64.0,20,80,10.0,127.0
15945,64.0,0,80,11.0,127.0
15946,76.0,0,80,8.0,127.0
15947,50.0,0,48,6.0,119.0
15948,38.0,40,48,13.0,113.0
15949,70.0,0,58,12.0,113.0
15950,38.0,0,48,13.0,117.0
15951,50.0,0,48,6.0,123.0
15952,70.0,20,58,12.0,117.0
15953,66.0,40,80,10.0,127.0
15954,78.0,0,80,8.0,127.0
15955,66.0,0,80,11.0,127.0
15956,50.0,0,48,12.0,127.0
15957,50.0,0,48,6.0,127.0
15958,38.0,0,48,13.0,127.0
15959,50.0,0,48,6.0,123.0
15960,50.0,60,48,12.0,127.0
15961,38.0,0,48,13.0,127.0
15962,50.0,0,144,4.0,127.0
15963,62.0,0,144,4.0,127.0
15964,50.0,60,48,6.0,119.0
15965,50.0,0,48,12.0,127.0
15966,38.0,0,48,13.0,127.0
15967,50.0,60,48,6.0,115.0
15968,50.0,0,48,12.0,127.0
15969,38.0,0,48,13.0,127.0
15970,38.0,0,48,13.0,127.0
15971,59.0,0,48,12.0,127.0
15972,50.0,60,48,6.0,111.0
15973,59.0,0,48,12.0,127.0
15974,50.0,0,48,6.0,107.0
15975,38.0,60,48,13.0,127.0
15976,59.0,0,384,1.0,102.0
15977,47.0,0,384,3.0,102.0
15978,59.0,0,384,2.0,102.0
15979,71.0,0,384,0.0,102.0
15980,83.0,0,384,0.0,102.0
15981,59.0,60,48,12.0,127.0
15982,50.0,0,48,6.0,103.0
15983,38.0,0,48,13.0,127.0
15984,79.0,0,450,5.0,102.0
15985,50.0,0,48,6.0,99.0
15986,59.0,0,48,12.0,127.0
15987,38.0,60,48,13.0,127.0
15988,38.0,60,48,13.0,127.0
15989,61.0,0,48,12.0,127.0
15990,50.0,0,48,6.0,95.0
15991,67.0,0,576,11.0,127.0
15992,79.0,0,576,8.0,127.0
15993,67.0,0,576,10.0,127.0
15994,61.0,0,48,12.0,127.0
15995,38.0,0,48,13.0,127.0
15996,50.0,60,48,6.0,92.0
15997,38.0,0,48,13.0,127.0
15998,61.0,60,48,12.0,127.0
15999,50.0,0,48,6.0,88.0
16000,61.0,60,48,12.0,127.0
16001,38.0,0,48,13.0,127.0
16002,50.0,0,48,6.0,84.0
16003,38.0,0,48,13.0,127.0
16004,50.0,60,48,6.0,80.0
16005,62.0,0,48,12.0,127.0
16006,62.0,0,48,12.0,127.0
16007,50.0,0,48,6.0,76.0
16008,38.0,60,48,13.0,127.0
16009,65.0,0,120,11.0,127.0
16010,65.0,0,120,10.0,127.0
16011,77.0,0,120,8.0,127.0
16012,79.0,0,120,5.0,102.0
16013,62.0,0,144,4.0,127.0
16014,50.0,0,144,4.0,127.0
16015,58.0,0,384,1.0,102.0
16016,58.0,0,384,2.0,102.0
16017,82.0,0,384,0.0,102.0
16018,46.0,0,384,3.0,102.0
16019,70.0,0,384,0.0,102.0
16020,62.0,0,48,12.0,127.0
16021,50.0,0,48,6.0,72.0
16022,38.0,60,48,13.0,127.0
16023,50.0,0,48,6.0,68.0
16024,38.0,60,48,13.0,127.0
16025,62.0,0,48,12.0,127.0
16026,50.0,60,48,6.0,64.0
16027,64.0,0,48,12.0,64.0
16028,38.0,0,48,13.0,64.0
16029,64.0,60,48,12.0,68.0
16030,38.0,0,48,13.0,68.0
16031,50.0,0,48,6.0,68.0
16032,64.0,0,120,11.0,127.0
16033,79.0,0,120,5.0,102.0
16034,64.0,0,120,10.0,127.0
16035,76.0,0,120,8.0,127.0
16036,62.0,0,144,4.0,127.0
16037,50.0,0,144,4.0,127.0
16038,50.0,60,48,6.0,72.0
16039,38.0,0,48,13.0,71.0
16040,64.0,0,48,12.0,71.0
16041,64.0,0,48,12.0,75.0
16042,50.0,60,48,6.0,76.0
16043,38.0,0,48,13.0,75.0
16044,65.0,0,48,12.0,78.0
16045,38.0,0,48,13.0,78.0
16046,50.0,0,48,6.0,80.0
16047,38.0,0,48,13.0,82.0
16048,65.0,60,48,12.0,82.0
16049,50.0,0,48,6.0,84.0
16050,62.0,0,120,10.0,127.0
16051,79.0,0,120,5.0,102.0
16052,62.0,0,120,11.0,127.0
16053,74.0,0,120,8.0,127.0
16054,50.0,60,144,4.0,127.0
16055,62.0,0,144,4.0,127.0
16056,38.0,0,48,13.0,85.0
16057,50.0,60,48,6.0,88.0
16058,65.0,0,48,12.0,85.0
16059,38.0,0,48,13.0,89.0
16060,65.0,60,48,12.0,89.0
16061,50.0,0,48,6.0,92.0
16062,38.0,60,48,13.0,92.0
16063,50.0,0,48,6.0,96.0
16064,67.0,0,48,12.0,92.0
16065,50.0,60,48,6.0,99.0
16066,67.0,0,48,12.0,96.0
16067,38.0,0,48,13.0,96.0
16068,73.0,0,120,8.0,127.0
16069,79.0,0,120,5.0,102.0
16070,61.0,0,120,11.0,127.0
16071,61.0,0,120,10.0,127.0
16072,50.0,0,144,4.0,127.0
16073,62.0,0,144,4.0,127.0
16074,38.0,60,48,13.0,99.0
16075,67.0,0,48,12.0,99.0
16076,50.0,0,48,6.0,103.0
16077,67.0,0,48,12.0,103.0
16078,50.0,60,48,6.0,107.0
16079,38.0,0,48,13.0,103.0
16080,50.0,0,48,6.0,111.0
16081,38.0,60,48,13.0,106.0
16082,67.0,0,58,12.0,106.0
16083,61.0,0,80,1.0,117.0
16084,73.0,0,80,0.0,117.0
16085,61.0,0,80,2.0,117.0
16086,85.0,0,80,0.0,117.0
16087,49.0,0,80,3.0,117.0
16088,38.0,0,48,13.0,110.0
16089,50.0,60,48,6.0,115.0
16090,67.0,0,58,12.0,110.0
16091,58.0,0,120,10.0,127.0
16092,58.0,0,120,11.0,127.0
16093,79.0,0,120,5.0,102.0
16094,70.0,0,120,8.0,127.0
16095,62.0,0,144,4.0,127.0
16096,50.0,0,144,4.0,127.0
16097,50.0,0,80,3.0,117.0
16098,74.0,0,80,0.0,117.0
16099,62.0,20,80,2.0,117.0
16100,62.0,0,80,1.0,117.0
16101,86.0,0,80,0.0,117.0
16102,50.0,0,48,6.0,119.0
16103,38.0,40,48,13.0,113.0
16104,67.0,0,58,12.0,113.0
16105,38.0,0,48,13.0,117.0
16106,50.0,0,48,6.0,123.0
16107,67.0,20,58,12.0,117.0
16108,52.0,0,80,3.0,117.0
16109,88.0,0,80,0.0,117.0
16110,64.0,0,80,1.0,117.0
16111,64.0,0,80,2.0,117.0
16112,76.0,40,80,0.0,117.0
16113,50.0,0,48,12.0,127.0
16114,50.0,0,48,6.0,127.0
16115,38.0,0,48,13.0,127.0
16116,38.0,0,48,13.0,127.0
16117,50.0,0,48,6.0,123.0
16118,50.0,60,48,12.0,127.0
16119,50.0,0,144,4.0,127.0
16120,62.0,0,144,4.0,127.0
16121,50.0,0,48,6.0,119.0
16122,50.0,60,48,12.0,127.0
16123,38.0,0,48,13.0,127.0
16124,38.0,0,48,13.0,127.0
16125,50.0,0,48,12.0,127.0
16126,50.0,60,48,6.0,115.0
16127,38.0,0,48,13.0,127.0
16128,57.0,60,48,12.0,127.0
16129,50.0,0,48,6.0,111.0
16130,38.0,0,48,13.0,127.0
16131,57.0,0,48,12.0,127.0
16132,50.0,60,48,6.0,107.0
16133,57.0,60,384,10.0,127.0
16134,57.0,0,384,11.0,127.0
16135,69.0,0,384,8.0,127.0
16136,38.0,60,48,13.0,127.0
16137,57.0,0,48,12.0,127.0
16138,50.0,0,48,6.0,103.0
16139,74.0,0,450,5.0,102.0
16140,62.0,0,450,5.0,102.0
16141,50.0,0,48,6.0,99.0
16142,38.0,60,48,13.0,127.0
16143,57.0,0,48,12.0,127.0
16144,59.0,60,48,12.0,127.0
16145,50.0,0,48,6.0,95.0
16146,38.0,0,48,13.0,127.0
16147,65.0,0,576,2.0,117.0
16148,77.0,0,576,0.0,117.0
16149,65.0,0,576,1.0,117.0
16150,53.0,0,576,3.0,117.0
16151,89.0,0,576,0.0,117.0
16152,38.0,0,48,13.0,127.0
16153,59.0,0,48,12.0,127.0
16154,50.0,60,48,6.0,92.0
16155,50.0,0,48,6.0,88.0
16156,38.0,0,48,13.0,127.0
16157,59.0,60,48,12.0,127.0
16158,38.0,0,48,13.0,127.0
16159,50.0,0,48,6.0,84.0
16160,59.0,60,48,12.0,127.0
16161,50.0,0,48,6.0,80.0
16162,38.0,0,48,13.0,127.0
16163,61.0,0,48,12.0,127.0
16164,38.0,60,48,13.0,127.0
16165,50.0,0,48,6.0,76.0
16166,61.0,0,48,12.0,127.0
16167,52.0,0,120,3.0,117.0
16168,64.0,60,120,2.0,117.0
16169,74.0,0,120,5.0,102.0
16170,88.0,0,120,0.0,117.0
16171,76.0,0,120,0.0,117.0
16172,64.0,0,120,1.0,117.0
16173,62.0,0,120,5.0,102.0
16174,62.0,0,144,4.0,127.0
16175,50.0,0,144,4.0,127.0
16176,56.0,0,384,10.0,127.0
16177,56.0,0,384,11.0,127.0
16178,68.0,0,384,8.0,127.0
16179,50.0,60,48,6.0,72.0
16180,61.0,0,48,12.0,127.0
16181,38.0,0,48,13.0,127.0
16182,50.0,60,48,6.0,68.0
16183,61.0,0,48,12.0,127.0
16184,38.0,0,48,13.0,127.0
16185,50.0,0,48,6.0,64.0
16186,38.0,0,48,13.0,64.0
16187,62.0,0,48,12.0,64.0
16188,62.0,0,48,12.0,68.0
16189,38.0,60,48,13.0,68.0
16190,50.0,0,48,6.0,68.0
16191,50.0,60,120,3.0,117.0
16192,86.0,0,120,0.0,117.0
16193,62.0,0,120,5.0,102.0
16194,74.0,0,120,0.0,117.0
16195,62.0,0,120,1.0,117.0
16196,74.0,0,120,5.0,102.0
16197,62.0,0,120,2.0,117.0
16198,62.0,0,144,4.0,127.0
16199,50.0,0,144,4.0,127.0
16200,38.0,60,48,13.0,71.0
16201,62.0,0,48,12.0,71.0
16202,50.0,0,48,6.0,72.0
16203,62.0,60,48,12.0,75.0
16204,50.0,0,48,6.0,76.0
16205,38.0,0,48,13.0,75.0
16206,38.0,0,48,13.0,78.0
16207,50.0,0,48,6.0,80.0
16208,64.0,0,48,12.0,78.0
16209,38.0,0,48,13.0,82.0
16210,50.0,60,48,6.0,84.0
16211,64.0,0,48,12.0,82.0
16212,48.0,0,120,3.0,117.0
16213,74.0,0,120,5.0,102.0
16214,72.0,0,120,0.0,117.0
16215,84.0,0,120,0.0,117.0
16216,62.0,0,120,5.0,102.0
16217,60.0,0,120,1.0,117.0
16218,60.0,0,120,2.0,117.0
16219,50.0,0,144,4.0,127.0
16220,62.0,60,144,4.0,127.0
16221,38.0,0,48,13.0,85.0
16222,64.0,0,48,12.0,85.0
16223,50.0,60,48,6.0,88.0
16224,38.0,60,48,13.0,89.0
16225,50.0,0,48,6.0,92.0
16226,64.0,0,48,12.0,89.0
16227,50.0,0,48,6.0,96.0
16228,38.0,0,48,13.0,92.0
16229,65.0,60,48,12.0,92.0
16230,65.0,0,48,12.0,96.0
16231,38.0,60,48,13.0,96.0
16232,50.0,0,48,6.0,99.0
16233,70.0,0,120,0.0,117.0
16234,62.0,0,120,5.0,102.0
16235,58.0,0,120,2.0,117.0
16236,46.0,0,120,3.0,117.0
16237,58.0,0,120,1.0,117.0
16238,82.0,0,120,0.0,117.0
16239,74.0,0,120,5.0,102.0
16240,62.0,0,144,4.0,127.0
16241,50.0,0,144,4.0,127.0
16242,50.0,0,48,6.0,103.0
16243,65.0,60,48,12.0,99.0
16244,38.0,0,48,13.0,99.0
16245,38.0,0,48,13.0,103.0
16246,65.0,60,48,12.0,103.0
16247,50.0,0,48,6.0,107.0
16248,50.0,0,48,6.0,111.0
16249,38.0,60,48,13.0,106.0
16250,65.0,0,58,12.0,106.0
16251,59.0,0,80,11.0,127.0
16252,71.0,0,80,8.0,127.0
16253,59.0,0,80,10.0,127.0
16254,38.0,0,48,13.0,110.0
16255,50.0,0,48,6.0,115.0
16256,65.0,60,58,12.0,110.0
16257,57.0,0,120,2.0,117.0
16258,57.0,0,120,1.0,117.0
16259,81.0,0,120,0.0,117.0
16260,74.0,0,120,5.0,102.0
16261,62.0,0,120,5.0,102.0
16262,45.0,0,120,3.0,117.0
16263,69.0,0,120,0.0,117.0
16264,62.0,0,144,4.0,127.0
16265,50.0,0,144,4.0,127.0
16266,61.0,0,80,10.0,127.0
16267,73.0,0,80,8.0,127.0
16268,61.0,20,80,11.0,127.0
16269,50.0,0,48,6.0,119.0
16270,38.0,0,48,13.0,113.0
16271,65.0,40,58,12.0,113.0
16272,38.0,0,48,13.0,117.0
16273,50.0,0,48,6.0,123.0
16274,65.0,20,58,12.0,117.0
16275,62.0,0,80,11.0,127.0
16276,74.0,0,80,8.0,127.0
16277,62.0,40,80,10.0,127.0
16278,50.0,0,48,6.0,127.0
16279,50.0,0,48,12.0,127.0
16280,38.0,0,48,13.0,127.0
16281,50.0,0,48,6.0,123.0
16282,50.0,0,48,12.0,127.0
16283,38.0,60,48,13.0,127.0
16284,50.0,0,144,4.0,127.0
16285,62.0,0,144,4.0,127.0
16286,38.0,60,48,13.0,127.0
16287,50.0,0,48,12.0,127.0
16288,50.0,0,48,6.0,119.0
16289,50.0,0,48,6.0,115.0
16290,50.0,60,48,12.0,127.0
16291,38.0,0,48,13.0,127.0
16292,56.0,60,48,12.0,127.0
16293,50.0,0,48,6.0,111.0
16294,38.0,0,48,13.0,127.0
16295,56.0,0,48,12.0,127.0
16296,38.0,0,48,13.0,127.0
16297,50.0,60,48,6.0,107.0
16298,68.0,0,384,0.0,127.0
16299,56.0,0,384,2.0,127.0
16300,44.0,0,384,3.0,127.0
16301,56.0,0,384,1.0,127.0
16302,80.0,0,384,0.0,127.0
16303,56.0,60,48,12.0,127.0
16304,38.0,0,48,13.0,127.0
16305,50.0,0,48,6.0,103.0
16306,74.0,0,450,5.0,66.0
16307,62.0,0,450,5.0,66.0
16308,50.0,0,48,6.0,99.0
16309,56.0,60,48,12.0,127.0
16310,38.0,0,48,13.0,127.0
16311,57.0,0,48,12.0,127.0
16312,38.0,0,48,13.0,127.0
16313,50.0,0,48,6.0,95.0
16314,64.0,0,576,11.0,127.0
16315,76.0,0,576,8.0,127.0
16316,64.0,0,576,10.0,127.0
16317,50.0,60,48,6.0,92.0
16318,57.0,0,48,12.0,127.0
16319,38.0,0,48,13.0,127.0
16320,57.0,0,48,12.0,127.0
16321,38.0,60,48,13.0,127.0
16322,50.0,0,48,6.0,88.0
16323,38.0,60,48,13.0,127.0
16324,50.0,0,48,6.0,84.0
16325,57.0,0,48,12.0,127.0
16326,59.0,0,48,12.0,127.0
16327,50.0,0,48,6.0,80.0
16328,38.0,0,48,13.0,127.0
16329,38.0,0,48,13.0,127.0
16330,50.0,60,48,6.0,76.0
16331,59.0,0,48,12.0,127.0
16332,74.0,0,120,8.0,127.0
16333,62.0,0,120,10.0,127.0
16334,74.0,0,120,5.0,66.0
16335,62.0,0,120,5.0,66.0
16336,62.0,0,120,11.0,127.0
16337,55.0,0,384,2.0,127.0
16338,79.0,60,384,0.0,127.0
16339,67.0,0,384,0.0,127.0
16340,55.0,0,384,1.0,127.0
16341,43.0,0,384,3.0,127.0
16342,50.0,60,144,4.0,127.0
16343,62.0,0,144,4.0,127.0
16344,59.0,0,48,12.0,127.0
16345,50.0,0,48,6.0,72.0
16346,38.0,60,48,13.0,127.0
16347,38.0,0,48,13.0,127.0
16348,59.0,60,48,12.0,127.0
16349,50.0,0,48,6.0,68.0
16350,50.0,0,48,6.0,66.0
16351,38.0,0,48,13.0,127.0
16352,61.0,0,48,12.0,127.0
16353,38.0,60,48,13.0,127.0
16354,61.0,0,48,12.0,127.0
16355,50.0,0,48,6.0,66.0
16356,73.0,0,120,8.0,127.0
16357,62.0,0,120,5.0,66.0
16358,61.0,0,120,10.0,127.0
16359,61.0,60,120,11.0,127.0
16360,74.0,0,120,5.0,66.0
16361,50.0,0,144,4.0,127.0
16362,62.0,0,144,4.0,127.0
16363,50.0,0,48,6.0,66.0
16364,61.0,60,48,12.0,127.0
16365,38.0,0,48,13.0,127.0
16366,61.0,60,48,12.0,127.0
16367,38.0,0,48,13.0,127.0
16368,50.0,0,48,6.0,66.0
16369,50.0,0,48,6.0,66.0
16370,62.0,0,48,12.0,127.0
16371,38.0,0,48,13.0,127.0
16372,38.0,0,48,13.0,127.0
16373,62.0,0,48,12.0,127.0
16374,50.0,60,48,6.0,66.0
16375,74.0,0,120,5.0,66.0
16376,70.0,0,120,8.0,127.0
16377,62.0,0,120,5.0,66.0
16378,58.0,0,120,11.0,127.0
16379,58.0,60,120,10.0,127.0
16380,62.0,0,144,4.0,127.0
16381,50.0,0,144,4.0,127.0
16382,38.0,0,48,13.0,127.0
16383,62.0,60,48,12.0,127.0
16384,50.0,0,48,6.0,66.0
16385,50.0,60,48,6.0,66.0
16386,62.0,0,48,12.0,127.0
16387,38.0,0,48,13.0,127.0
16388,38.0,0,48,13.0,127.0
16389,50.0,0,48,6.0,66.0
16390,64.0,60,48,12.0,127.0
16391,38.0,0,48,13.0,127.0
16392,64.0,0,48,12.0,127.0
16393,50.0,60,48,6.0,66.0
16394,57.0,0,120,10.0,127.0
16395,62.0,0,120,5.0,66.0
16396,57.0,0,120,11.0,127.0
16397,74.0,0,120,5.0,66.0
16398,69.0,0,120,8.0,127.0
16399,62.0,0,144,4.0,127.0
16400,50.0,0,144,4.0,127.0
16401,64.0,0,48,12.0,127.0
16402,50.0,0,48,6.0,66.0
16403,38.0,60,48,13.0,127.0
16404,64.0,0,48,12.0,127.0
16405,38.0,0,48,13.0,127.0
16406,50.0,60,48,6.0,66.0
16407,38.0,0,48,13.0,127.0
16408,50.0,0,48,6.0,66.0
16409,64.0,0,58,12.0,127.0
16410,61.0,0,80,2.0,89.0
16411,85.0,0,80,0.0,76.0
16412,73.0,0,80,1.0,89.0
16413,49.0,0,80,3.0,89.0
16414,38.0,0,48,13.0,127.0
16415,50.0,60,48,6.0,66.0
16416,64.0,0,58,12.0,127.0
16417,55.0,0,120,10.0,127.0
16418,74.0,0,120,5.0,66.0
16419,67.0,0,120,8.0,127.0
16420,55.0,0,120,11.0,127.0
16421,62.0,60,120,5.0,66.0
16422,50.0,0,144,4.0,127.0
16423,62.0,0,144,4.0,127.0
16424,86.0,0,80,0.0,76.0
16425,50.0,0,80,3.0,89.0
16426,74.0,20,80,1.0,89.0
16427,62.0,0,80,2.0,89.0
16428,38.0,40,48,13.0,127.0
16429,50.0,0,48,6.0,66.0
16430,64.0,0,58,12.0,127.0
16431,38.0,0,48,13.0,127.0
16432,50.0,0,48,6.0,66.0
16433,64.0,20,58,12.0,127.0
16434,76.0,60,0,1.0,108.0
16435,52.0,0,0,3.0,90.0
16436,88.0,0,0,0.0,92.0
16437,64.0,0,0,2.0,90.0
16438,50.0,0,48,6.0,127.0
16439,64.0,0,48,10.0,127.0
16440,55.0,0,48,11.0,127.0
16441,52.0,0,48,11.0,127.0
16442,67.0,0,48,8.0,127.0
16443,38.0,0,48,13.0,127.0
16444,47.0,0,48,12.0,127.0
16445,55.0,0,48,11.0,124.0
16446,50.0,0,48,6.0,88.0
16447,64.0,0,48,10.0,124.0
16448,67.0,60,48,8.0,124.0
16449,47.0,0,48,12.0,125.0
16450,52.0,0,48,11.0,124.0
16451,38.0,0,48,13.0,124.0
16452,62.0,0,144,4.0,127.0
16453,50.0,0,144,4.0,127.0
16454,55.0,0,48,11.0,122.0
16455,67.0,0,48,8.0,122.0
16456,64.0,0,48,10.0,122.0
16457,50.0,0,48,6.0,86.0
16458,52.0,0,48,11.0,122.0
16459,38.0,60,48,13.0,122.0
16460,47.0,0,48,12.0,122.0
16461,64.0,0,48,10.0,119.0
16462,52.0,0,48,11.0,119.0
16463,55.0,0,48,11.0,119.0
16464,67.0,0,48,8.0,119.0
16465,38.0,60,48,13.0,119.0
16466,47.0,0,48,12.0,120.0
16467,50.0,0,48,6.0,84.0
16468,55.0,0,48,12.0,117.0
16469,38.0,0,48,13.0,116.0
16470,52.0,60,48,11.0,116.0
16471,55.0,0,48,11.0,116.0
16472,64.0,0,48,10.0,116.0
16473,67.0,0,48,8.0,116.0
16474,50.0,0,48,6.0,82.0
16475,55.0,0,48,12.0,115.0
16476,52.0,0,48,11.0,113.0
16477,55.0,0,48,11.0,113.0
16478,64.0,0,48,10.0,113.0
16479,38.0,60,48,13.0,113.0
16480,50.0,0,48,6.0,81.0
16481,67.0,0,48,8.0,113.0
16482,55.0,0,48,12.0,113.0
16483,64.0,0,48,10.0,111.0
16484,67.0,60,48,8.0,111.0
16485,52.0,0,48,11.0,111.0
16486,55.0,0,48,11.0,111.0
16487,50.0,0,48,6.0,79.0
16488,38.0,0,48,13.0,111.0
16489,74.0,0,450,5.0,82.0
16490,62.0,0,450,5.0,82.0
16491,50.0,60,48,6.0,77.0
16492,38.0,0,48,13.0,108.0
16493,67.0,0,48,8.0,108.0
16494,55.0,0,48,12.0,110.0
16495,64.0,0,48,10.0,108.0
16496,52.0,0,48,11.0,108.0
16497,55.0,0,48,11.0,108.0
16498,57.0,0,48,12.0,108.0
16499,52.0,0,48,11.0,105.0
16500,38.0,0,48,13.0,105.0
16501,67.0,0,48,8.0,105.0
16502,50.0,60,48,6.0,75.0
16503,64.0,0,48,10.0,105.0
16504,55.0,0,48,11.0,105.0
16505,64.0,0,48,10.0,103.0
16506,50.0,60,48,6.0,73.0
16507,67.0,0,48,8.0,103.0
16508,52.0,0,48,11.0,103.0
16509,57.0,0,48,12.0,105.0
16510,38.0,0,48,13.0,103.0
16511,55.0,0,48,11.0,103.0
16512,52.0,0,48,11.0,100.0
16513,67.0,0,48,8.0,100.0
16514,50.0,0,48,6.0,71.0
16515,57.0,0,48,12.0,103.0
16516,38.0,60,48,13.0,100.0
16517,55.0,0,48,11.0,100.0
16518,64.0,0,48,10.0,100.0
16519,64.0,0,48,10.0,97.0
16520,67.0,0,48,8.0,97.0
16521,38.0,60,48,13.0,97.0
16522,50.0,0,48,6.0,69.0
16523,57.0,0,48,12.0,101.0
16524,55.0,0,48,11.0,97.0
16525,52.0,0,48,11.0,97.0
16526,38.0,0,48,13.0,94.0
16527,52.0,0,48,11.0,94.0
16528,55.0,0,48,11.0,94.0
16529,50.0,0,48,6.0,67.0
16530,67.0,0,48,8.0,94.0
16531,64.0,0,48,10.0,94.0
16532,59.0,0,48,12.0,98.0
16533,64.0,0,48,10.0,92.0
16534,59.0,0,48,12.0,96.0
16535,38.0,0,48,13.0,92.0
16536,50.0,0,48,6.0,66.0
16537,55.0,0,48,11.0,92.0
16538,52.0,0,48,11.0,92.0
16539,67.0,60,48,8.0,92.0
16540,50.0,0,120,3.0,85.0
16541,74.0,0,120,1.0,117.0
16542,86.0,0,120,0.0,100.0
16543,62.0,0,120,2.0,85.0
16544,74.0,60,120,5.0,57.0
16545,62.0,0,120,5.0,57.0
16546,62.0,0,144,4.0,83.0
16547,50.0,0,144,4.0,83.0
16548,55.0,0,48,11.0,89.0
16549,59.0,0,48,12.0,93.0
16550,50.0,0,48,6.0,64.0
16551,52.0,0,48,11.0,89.0
16552,38.0,0,48,13.0,89.0
16553,67.0,60,48,8.0,89.0
16554,64.0,0,48,10.0,89.0
16555,50.0,0,48,6.0,62.0
16556,38.0,0,48,13.0,86.0
16557,55.0,0,48,11.0,86.0
16558,52.0,0,48,11.0,86.0
16559,59.0,0,48,12.0,91.0
16560,64.0,0,48,10.0,86.0
16561,67.0,60,48,8.0,86.0
16562,67.0,0,48,8.0,83.0
16563,50.0,0,48,6.0,60.0
16564,55.0,0,48,11.0,83.0
16565,52.0,0,48,11.0,83.0
16566,64.0,0,48,10.0,83.0
16567,38.0,0,48,13.0,83.0
16568,61.0,0,48,12.0,88.0
16569,38.0,0,48,13.0,81.0
16570,64.0,0,48,10.0,81.0
16571,55.0,0,48,11.0,81.0
16572,61.0,0,48,12.0,86.0
16573,67.0,0,48,8.0,81.0
16574,50.0,60,48,6.0,58.0
16575,52.0,0,48,11.0,81.0
16576,85.0,0,120,0.0,92.0
16577,49.0,0,120,3.0,78.0
16578,61.0,0,120,2.0,78.0
16579,62.0,0,120,5.0,57.0
16580,74.0,0,120,5.0,57.0
16581,73.0,0,120,1.0,108.0
16582,50.0,0,144,4.0,74.0
16583,62.0,60,144,4.0,74.0
16584,64.0,0,48,10.0,78.0
16585,50.0,0,48,6.0,56.0
16586,67.0,0,48,8.0,78.0
16587,61.0,0,48,12.0,84.0
16588,55.0,60,48,11.0,78.0
16589,52.0,0,48,11.0,78.0
16590,38.0,0,48,13.0,78.0
16591,50.0,0,48,6.0,54.0
16592,64.0,0,48,10.0,75.0
16593,55.0,0,48,11.0,75.0
16594,61.0,0,48,12.0,81.0
16595,38.0,0,48,13.0,75.0
16596,67.0,60,48,8.0,75.0
16597,52.0,0,48,11.0,75.0
16598,64.0,0,48,10.0,73.0
16599,38.0,0,48,13.0,73.0
16600,55.0,0,48,11.0,73.0
16601,52.0,0,48,11.0,73.0
16602,67.0,0,48,8.0,73.0
16603,50.0,60,48,6.0,52.0
16604,62.0,0,48,12.0,79.0
16605,52.0,0,48,11.0,70.0
16606,50.0,60,48,6.0,51.0
16607,38.0,0,48,13.0,70.0
16608,67.0,0,48,8.0,70.0
16609,64.0,0,48,10.0,70.0
16610,62.0,0,48,12.0,76.0
16611,55.0,0,48,11.0,70.0
16612,59.0,0,120,2.0,71.0
16613,83.0,0,120,0.0,83.0
16614,47.0,0,120,3.0,71.0
16615,62.0,0,120,5.0,57.0
16616,74.0,0,120,5.0,57.0
16617,71.0,0,120,1.0,98.0
16618,62.0,0,144,4.0,64.0
16619,50.0,0,144,4.0,64.0
16620,55.0,0,48,11.0,67.0
16621,64.0,0,48,10.0,67.0
16622,67.0,0,48,8.0,67.0
16623,52.0,0,48,11.0,67.0
16624,38.0,0,48,13.0,67.0
16625,62.0,0,48,12.0,74.0
16626,50.0,60,48,6.0,49.0
16627,67.0,0,48,8.0,64.0
16628,38.0,60,48,13.0,64.0
16629,50.0,0,48,6.0,47.0
16630,55.0,0,48,11.0,64.0
16631,52.0,0,48,11.0,64.0
16632,64.0,0,48,10.0,64.0
16633,62.0,0,48,12.0,72.0
16634,64.0,0,48,12.0,69.0
16635,67.0,0,48,8.0,62.0
16636,55.0,0,48,11.0,62.0
16637,64.0,0,48,10.0,62.0
16638,52.0,0,48,11.0,62.0
16639,38.0,0,48,13.0,62.0
16640,50.0,0,48,6.0,45.0
16641,64.0,0,48,12.0,67.0
16642,50.0,0,48,6.0,43.0
16643,38.0,60,48,13.0,59.0
16644,67.0,0,48,8.0,59.0
16645,55.0,0,48,11.0,59.0
16646,52.0,0,48,11.0,59.0
16647,64.0,0,48,10.0,59.0
16648,62.0,0,120,5.0,57.0
16649,74.0,0,120,5.0,57.0
16650,57.0,0,120,2.0,62.0
16651,45.0,0,120,3.0,62.0
16652,69.0,0,120,1.0,85.0
16653,81.0,0,120,0.0,85.0
16654,62.0,0,144,4.0,54.0
16655,50.0,60,144,4.0,54.0
16656,55.0,0,48,11.0,56.0
16657,64.0,0,48,10.0,56.0
16658,67.0,0,48,8.0,56.0
16659,50.0,0,48,6.0,41.0
16660,64.0,0,48,12.0,64.0
16661,38.0,0,48,13.0,56.0
16662,52.0,60,48,11.0,56.0
16663,38.0,60,48,13.0,54.0
16664,67.0,0,48,8.0,54.0
16665,64.0,0,48,12.0,62.0
16666,52.0,0,48,11.0,54.0
16667,50.0,0,48,6.0,39.0
16668,55.0,0,48,11.0,54.0
16669,64.0,0,48,10.0,54.0
16670,64.0,0,48,10.0,51.0
16671,38.0,0,48,13.0,51.0
16672,52.0,60,48,11.0,51.0
16673,67.0,0,48,8.0,51.0
16674,55.0,0,48,11.0,51.0
16675,50.0,0,48,6.0,37.0
16676,64.0,0,58,12.0,60.0
16677,50.0,0,48,6.0,36.0
16678,64.0,0,48,10.0,48.0
16679,55.0,0,48,11.0,48.0
16680,67.0,0,48,8.0,48.0
16681,52.0,60,48,11.0,48.0
16682,38.0,0,48,13.0,48.0
16683,64.0,0,58,12.0,57.0
16684,74.0,0,120,5.0,57.0
16685,62.0,0,120,5.0,57.0
16686,79.0,0,120,0.0,76.0
16687,55.0,0,120,2.0,55.0
16688,67.0,0,120,1.0,76.0
16689,43.0,0,120,3.0,55.0
16690,50.0,0,144,4.0,45.0
16691,62.0,0,144,4.0,45.0
16692,52.0,0,48,11.0,45.0
16693,67.0,0,48,8.0,45.0
16694,38.0,0,48,13.0,45.0
16695,50.0,0,48,6.0,34.0
16696,55.0,0,48,11.0,45.0
16697,64.0,60,48,10.0,45.0
16698,64.0,0,58,12.0,55.0
16699,50.0,60,48,6.0,32.0
16700,55.0,0,48,11.0,43.0
16701,38.0,0,48,13.0,43.0
16702,52.0,0,48,11.0,43.0
16703,64.0,0,48,10.0,43.0
16704,67.0,0,48,8.0,43.0
16705,64.0,0,58,12.0,52.0
16706,57.0,0,120,5.0,49.0
16707,69.0,0,120,5.0,49.0
16708,45.0,0,120,6.0,49.0
16709,64.0,0,192,10.0,28.0
16710,52.0,0,192,11.0,28.0
16711,67.0,60,192,8.0,28.0
16712,37.0,0,192,13.0,40.0
16713,55.0,0,192,11.0,28.0
16714,49.0,0,192,12.0,40.0
16715,57.0,0,226,2.0,41.0
16716,55.0,0,226,3.0,33.0
16717,52.0,0,226,3.0,33.0
16718,69.0,0,226,2.0,41.0
16719,45.0,240,96,13.0,28.0
16720,61.0,0,96,10.0,28.0
16721,64.0,0,96,8.0,28.0
16722,57.0,0,96,12.0,28.0
16723,55.0,0,96,11.0,28.0
16724,61.0,120,96,10.0,28.0
16725,55.0,0,96,11.0,28.0
16726,64.0,0,96,8.0,28.0
16727,57.0,0,96,12.0,28.0
16728,45.0,0,96,13.0,28.0
16729,55.0,0,192,11.0,28.0
16730,57.0,0,192,12.0,28.0
16731,64.0,0,192,8.0,28.0
16732,61.0,0,192,10.0,28.0
16733,45.0,120,192,13.0,28.0
16734,76.0,0,720,1.0,41.0
16735,79.0,0,720,0.0,41.0
16736,78.0,240,120,1.0,41.0
16737,81.0,0,120,0.0,41.0
16738,79.0,120,120,1.0,41.0
16739,83.0,120,0,0.0,41.0
16740,79.0,0,240,1.0,41.0
16741,45.0,0,60,6.0,22.0
16742,69.0,0,60,5.0,22.0
16743,57.0,0,60,5.0,22.0
16744,81.0,0,120,0.0,41.0
16745,78.0,240,120,1.0,41.0
16746,45.0,0,60,6.0,22.0
16747,57.0,0,60,5.0,22.0
16748,69.0,120,60,5.0,22.0
16749,76.0,0,120,1.0,41.0
16750,79.0,0,120,0.0,41.0
16751,69.0,120,120,5.0,22.0
16752,45.0,0,120,6.0,22.0
16753,57.0,0,120,5.0,22.0
16754,91.0,0,240,0.0,41.0
16755,79.0,0,240,1.0,41.0
16756,64.0,0,240,3.0,33.0
16757,90.0,240,120,0.0,41.0
16758,78.0,0,120,1.0,41.0
16759,62.0,0,120,3.0,33.0
16760,64.0,0,1872,4.0,35.0
16761,57.0,0,1872,4.0,35.0
16762,88.0,0,120,0.0,41.0
16763,76.0,120,120,1.0,41.0
16764,61.0,0,120,3.0,33.0
16765,67.0,0,240,3.0,33.0
16766,88.0,0,240,0.0,41.0
16767,76.0,0,240,1.0,41.0
16768,62.0,240,96,10.0,28.0
16769,38.0,0,96,13.0,28.0
16770,50.0,0,96,11.0,28.0
16771,50.0,0,96,12.0,28.0
16772,66.0,0,96,8.0,28.0
16773,66.0,0,96,8.0,28.0
16774,50.0,120,96,12.0,28.0
16775,50.0,0,96,11.0,28.0
16776,62.0,0,96,10.0,28.0
16777,38.0,0,96,13.0,28.0
16778,86.0,0,240,0.0,33.0
16779,66.0,0,240,3.0,26.0
16780,74.0,0,240,1.0,33.0
16781,66.0,0,192,8.0,28.0
16782,50.0,120,192,12.0,28.0
16783,38.0,0,192,13.0,28.0
16784,62.0,0,192,10.0,28.0
16785,50.0,0,192,11.0,28.0
16786,62.0,0,720,4.0,41.0
16787,66.0,120,720,4.0,41.0
16788,67.0,0,120,4.0,41.0
16789,64.0,240,120,4.0,41.0
16790,66.0,0,0,4.0,41.0
16791,69.0,120,120,4.0,41.0
16792,69.0,0,240,4.0,41.0
16793,69.0,0,240,1.0,41.0
16794,81.0,120,240,0.0,41.0
16795,57.0,0,60,5.0,22.0
16796,69.0,0,60,5.0,22.0
16797,45.0,0,60,6.0,22.0
16798,64.0,240,120,4.0,41.0
16799,83.0,0,120,0.0,41.0
16800,71.0,0,120,1.0,41.0
16801,67.0,0,120,4.0,41.0
16802,45.0,0,60,6.0,22.0
16803,57.0,0,60,5.0,22.0
16804,69.0,0,60,5.0,22.0
16805,85.0,0,120,0.0,41.0
16806,73.0,0,120,1.0,41.0
16807,66.0,0,120,4.0,41.0
16808,62.0,120,120,4.0,41.0
16809,57.0,120,120,5.0,22.0
16810,45.0,0,120,6.0,22.0
16811,69.0,0,120,5.0,22.0
16812,86.0,0,240,0.0,41.0
16813,66.0,0,240,4.0,41.0
16814,62.0,0,240,4.0,41.0
16815,74.0,0,240,1.0,41.0
16816,76.0,0,120,1.0,41.0
16817,57.0,0,120,4.0,41.0
16818,64.0,240,120,4.0,41.0
16819,88.0,0,120,0.0,41.0
16820,78.0,120,120,1.0,41.0
16821,54.0,0,120,4.0,41.0
16822,90.0,120,0,0.0,41.0
16823,62.0,0,0,4.0,32.0
16824,78.0,0,240,1.0,41.0
16825,66.0,0,240,4.0,52.0
16826,45.0,0,96,13.0,28.0
16827,64.0,0,96,10.0,28.0
16828,57.0,0,96,11.0,28.0
16829,57.0,0,96,12.0,28.0
16830,67.0,0,96,8.0,28.0
16831,45.0,120,96,13.0,28.0
16832,64.0,0,96,10.0,28.0
16833,57.0,0,96,12.0,28.0
16834,67.0,0,96,8.0,28.0
16835,57.0,0,96,11.0,28.0
16836,91.0,240,240,0.0,33.0
16837,45.0,0,192,13.0,28.0
16838,57.0,0,192,11.0,28.0
16839,64.0,0,192,10.0,28.0
16840,57.0,0,192,12.0,28.0
16841,67.0,120,192,8.0,28.0
16842,64.0,0,450,3.0,33.0
16843,79.0,0,480,1.0,33.0
16844,81.0,0,120,1.0,41.0
16845,66.0,240,120,3.0,33.0
16846,83.0,0,120,1.0,41.0
16847,67.0,0,0,3.0,33.0
16848,83.0,120,240,1.0,41.0
16849,69.0,0,60,5.0,32.0
16850,57.0,0,60,5.0,32.0
16851,45.0,0,60,6.0,32.0
16852,81.0,240,120,1.0,41.0
16853,66.0,0,120,3.0,33.0
16854,45.0,0,60,6.0,32.0
16855,69.0,120,60,5.0,32.0
16856,57.0,0,60,5.0,32.0
16857,64.0,0,1170,4.0,32.0
16858,57.0,0,1170,4.0,32.0
16859,64.0,0,120,3.0,33.0
16860,79.0,0,120,1.0,41.0
16861,69.0,0,120,5.0,32.0
16862,45.0,0,120,6.0,32.0
16863,57.0,120,120,5.0,32.0
16864,64.0,0,240,3.0,33.0
16865,79.0,0,240,1.0,41.0
16866,66.0,0,120,3.0,33.0
16867,78.0,0,120,1.0,41.0
16868,76.0,120,120,1.0,41.0
16869,67.0,0,120,3.0,33.0
16870,49.0,240,300,12.0,40.0
16871,37.0,0,300,13.0,40.0
16872,61.0,0,300,8.0,40.0
16873,62.0,0,60,8.0,40.0
16874,50.0,120,60,12.0,40.0
16875,38.0,0,60,13.0,40.0
16876,66.0,0,226,3.0,38.0
16877,41.0,0,60,13.0,40.0
16878,65.0,120,60,8.0,40.0
16879,53.0,0,60,12.0,40.0
16880,42.0,0,60,13.0,40.0
16881,66.0,120,60,8.0,40.0
16882,54.0,0,60,12.0,40.0
16883,57.0,0,1056,4.0,26.0
16884,45.0,0,1056,4.0,26.0
16885,45.0,120,120,13.0,40.0
16886,57.0,0,120,12.0,40.0
16887,69.0,0,120,8.0,40.0
16888,54.0,0,466,3.0,38.0
16889,78.0,120,708,1.0,38.0
16890,59.0,240,226,3.0,38.0
16891,83.0,0,228,1.0,38.0
16892,41.0,0,60,13.0,40.0
16893,53.0,0,60,12.0,40.0
16894,65.0,0,60,8.0,40.0
16895,66.0,0,60,8.0,40.0
16896,42.0,0,60,13.0,40.0
16897,54.0,120,60,12.0,40.0
16898,81.0,0,192,1.0,40.0
16899,69.0,0,60,8.0,40.0
16900,57.0,0,60,12.0,40.0
16901,45.0,120,60,13.0,40.0
16902,49.0,0,60,13.0,40.0
16903,61.0,0,60,12.0,40.0
16904,73.0,120,60,8.0,40.0
16905,81.0,0,456,2.0,36.0
16906,57.0,0,456,3.0,36.0
16907,45.0,0,816,4.0,26.0
16908,57.0,0,816,4.0,26.0
16909,62.0,0,120,12.0,40.0
16910,74.0,0,120,8.0,40.0
16911,50.0,120,120,13.0,40.0
16912,69.0,0,468,1.0,62.0
16913,81.0,240,708,0.0,62.0
16914,74.0,0,228,1.0,62.0
16915,86.0,0,228,0.0,62.0
16916,40.0,0,60,13.0,40.0
16917,52.0,0,60,12.0,40.0
16918,64.0,0,60,8.0,40.0
16919,67.0,0,60,8.0,40.0
16920,55.0,0,60,12.0,40.0
16921,43.0,120,60,13.0,40.0
16922,45.0,0,60,13.0,40.0
16923,69.0,120,60,8.0,40.0
16924,57.0,0,60,12.0,40.0
16925,49.0,120,60,13.0,40.0
16926,73.0,0,60,8.0,40.0
16927,61.0,0,60,12.0,40.0
16928,73.0,0,456,1.0,62.0
16929,85.0,240,456,0.0,62.0
16930,45.0,0,816,4.0,32.0
16931,57.0,240,816,4.0,32.0
16932,52.0,0,120,13.0,40.0
16933,64.0,0,120,12.0,40.0
16934,76.0,120,120,8.0,40.0
16935,73.0,0,708,2.0,43.0
16936,61.0,0,708,3.0,43.0
16937,79.0,0,228,2.0,43.0
16938,67.0,240,228,3.0,43.0
16939,43.0,0,60,12.0,40.0
16940,31.0,0,60,13.0,40.0
16941,55.0,0,60,8.0,40.0
16942,49.0,120,60,12.0,40.0
16943,37.0,0,60,13.0,40.0
16944,61.0,0,60,8.0,40.0
16945,52.0,120,60,12.0,40.0
16946,64.0,0,60,8.0,40.0
16947,40.0,0,60,13.0,40.0
16948,54.0,0,60,12.0,40.0
16949,66.0,120,60,8.0,40.0
16950,42.0,0,60,13.0,40.0
16951,76.0,0,456,2.0,43.0
16952,64.0,0,456,3.0,43.0
16953,57.0,0,816,4.0,32.0
16954,45.0,0,816,4.0,32.0
16955,43.0,0,120,13.0,40.0
16956,67.0,120,120,8.0,40.0
16957,55.0,0,120,12.0,40.0
16958,76.0,0,708,1.0,62.0
16959,88.0,240,708,0.0,62.0
16960,83.0,0,228,1.0,62.0
16961,95.0,0,228,0.0,62.0
16962,50.0,0,60,12.0,40.0
16963,38.0,240,60,13.0,40.0
16964,42.0,120,60,13.0,40.0
16965,54.0,0,60,12.0,40.0
16966,81.0,0,240,1.0,50.0
16967,93.0,0,240,0.0,62.0
16968,56.0,120,60,12.0,40.0
16969,44.0,0,60,13.0,40.0
16970,45.0,120,60,13.0,40.0
16971,57.0,0,60,12.0,40.0
16972,57.0,0,60,12.0,40.0
16973,45.0,0,60,13.0,40.0
16974,45.0,240,816,4.0,32.0
16975,57.0,0,816,4.0,32.0
16976,66.0,0,192,10.0,38.0
16977,50.0,0,192,6.0,32.0
16978,57.0,0,192,10.0,38.0
16979,62.0,0,192,5.0,32.0
16980,74.0,120,192,5.0,32.0
16981,54.0,0,480,11.0,46.0
16982,66.0,0,480,8.0,46.0
16983,59.0,0,120,11.0,37.0
16984,71.0,0,120,8.0,37.0
16985,69.0,120,120,8.0,37.0
16986,57.0,0,120,11.0,37.0
16987,42.0,0,60,13.0,40.0
16988,54.0,120,60,12.0,40.0
16989,45.0,120,60,13.0,40.0
16990,57.0,0,60,12.0,40.0
16991,45.0,0,466,4.0,32.0
16992,57.0,240,466,4.0,32.0
16993,61.0,0,60,12.0,40.0
16994,49.0,0,60,13.0,40.0
16995,62.0,120,60,12.0,40.0
16996,50.0,0,60,13.0,40.0
16997,50.0,0,60,13.0,40.0
16998,62.0,0,60,12.0,40.0
16999,62.0,0,192,5.0,32.0
17000,50.0,0,192,6.0,32.0
17001,74.0,0,192,5.0,32.0
17002,66.0,0,192,10.0,38.0
17003,57.0,120,192,10.0,38.0
17004,57.0,120,480,11.0,53.0
17005,69.0,0,480,8.0,53.0
17006,64.0,0,120,11.0,43.0
17007,76.0,240,120,8.0,43.0
17008,62.0,120,120,11.0,43.0
17009,74.0,0,120,8.0,43.0
17010,62.0,0,60,8.0,28.0
17011,50.0,120,60,11.0,28.0
17012,65.0,0,60,8.0,28.0
17013,53.0,120,60,11.0,28.0
17014,57.0,0,946,4.0,40.0
17015,45.0,0,946,4.0,40.0
17016,56.0,0,60,11.0,28.0
17017,68.0,0,60,8.0,28.0
17018,69.0,120,60,8.0,28.0
17019,57.0,0,60,11.0,28.0
17020,69.0,0,60,8.0,28.0
17021,38.0,0,60,13.0,28.0
17022,50.0,0,60,12.0,28.0
17023,62.0,120,60,10.0,28.0
17024,57.0,0,60,11.0,28.0
17025,53.0,0,60,12.0,28.0
17026,65.0,0,60,10.0,28.0
17027,41.0,120,60,13.0,28.0
17028,74.0,0,192,5.0,22.0
17029,62.0,0,192,5.0,22.0
17030,50.0,0,192,6.0,22.0
17031,53.0,120,480,3.0,48.0
17032,65.0,0,480,2.0,48.0
17033,56.0,0,60,12.0,28.0
17034,44.0,0,60,13.0,28.0
17035,68.0,120,60,10.0,28.0
17036,58.0,0,120,3.0,39.0
17037,70.0,0,120,2.0,39.0
17038,57.0,0,60,12.0,28.0
17039,45.0,0,60,13.0,28.0
17040,69.0,120,60,10.0,28.0
17041,69.0,0,120,2.0,39.0
17042,57.0,0,120,3.0,39.0
17043,69.0,120,60,10.0,28.0
17044,45.0,0,60,13.0,28.0
17045,53.0,0,60,11.0,28.0
17046,57.0,0,60,12.0,28.0
17047,65.0,0,60,8.0,28.0
17048,69.0,120,60,8.0,28.0
17049,57.0,0,60,11.0,28.0
17050,57.0,0,946,4.0,28.0
17051,45.0,0,946,4.0,28.0
17052,73.0,0,60,8.0,28.0
17053,61.0,120,60,11.0,28.0
17054,74.0,0,60,8.0,28.0
17055,62.0,120,60,11.0,28.0
17056,65.0,120,60,10.0,28.0
17057,74.0,0,60,8.0,28.0
17058,62.0,0,60,11.0,28.0
17059,53.0,0,60,12.0,28.0
17060,41.0,0,60,13.0,28.0
17061,69.0,120,60,10.0,28.0
17062,57.0,0,60,12.0,28.0
17063,45.0,0,60,13.0,28.0
17064,62.0,0,192,5.0,22.0
17065,50.0,0,192,6.0,22.0
17066,74.0,0,192,5.0,22.0
17067,81.0,0,480,0.0,53.0
17068,69.0,0,480,1.0,53.0
17069,49.0,0,60,13.0,28.0
17070,61.0,0,60,12.0,28.0
17071,73.0,0,60,10.0,28.0
17072,88.0,0,120,0.0,43.0
17073,76.0,120,120,1.0,43.0
17074,50.0,0,60,13.0,28.0
17075,62.0,120,60,12.0,28.0
17076,74.0,0,60,10.0,28.0
17077,86.0,0,120,0.0,43.0
17078,74.0,0,120,1.0,43.0
17079,57.0,0,60,12.0,36.0
17080,45.0,120,60,13.0,36.0
17081,55.0,0,60,11.0,36.0
17082,67.0,0,60,8.0,36.0
17083,69.0,0,60,10.0,36.0
17084,61.0,0,60,11.0,36.0
17085,73.0,120,60,8.0,36.0
17086,45.0,0,946,4.0,22.0
17087,57.0,0,946,4.0,22.0
17088,64.0,0,60,11.0,36.0
17089,76.0,120,60,8.0,36.0
17090,65.0,0,60,11.0,36.0
17091,77.0,120,60,8.0,36.0
17092,40.0,0,60,13.0,36.0
17093,79.0,0,60,8.0,36.0
17094,52.0,0,60,12.0,36.0
17095,67.0,120,60,11.0,36.0
17096,64.0,0,60,10.0,36.0
17097,55.0,120,60,12.0,36.0
17098,43.0,0,60,13.0,36.0
17099,67.0,0,60,10.0,36.0
17100,57.0,0,192,5.0,29.0
17101,69.0,0,192,5.0,29.0
17102,45.0,0,192,6.0,29.0
17103,69.0,0,450,4.0,44.0
17104,61.0,0,480,3.0,48.0
17105,73.0,0,480,2.0,48.0
17106,69.0,0,60,10.0,36.0
17107,45.0,0,60,13.0,36.0
17108,57.0,0,60,12.0,36.0
17109,65.0,0,120,3.0,39.0
17110,77.0,120,120,2.0,39.0
17111,61.0,0,60,12.0,36.0
17112,73.0,0,60,10.0,36.0
17113,49.0,120,60,13.0,36.0
17114,69.0,0,192,4.0,34.0
17115,76.0,0,120,2.0,39.0
17116,64.0,0,120,3.0,39.0
17117,52.0,0,60,13.0,40.0
17118,76.0,0,60,10.0,40.0
17119,64.0,120,60,12.0,40.0
17120,55.0,0,60,11.0,40.0
17121,55.0,0,60,8.0,40.0
17122,61.0,0,60,8.0,40.0
17123,49.0,120,60,11.0,40.0
17124,45.0,0,946,4.0,29.0
17125,57.0,0,946,4.0,29.0
17126,64.0,120,60,8.0,40.0
17127,52.0,0,60,11.0,40.0
17128,53.0,0,60,11.0,40.0
17129,65.0,120,60,8.0,40.0
17130,55.0,120,60,11.0,40.0
17131,31.0,0,60,13.0,40.0
17132,67.0,0,60,8.0,40.0
17133,43.0,0,60,12.0,40.0
17134,55.0,0,60,10.0,40.0
17135,52.0,120,60,11.0,40.0
17136,61.0,0,60,10.0,40.0
17137,49.0,0,60,12.0,40.0
17138,37.0,0,60,13.0,40.0
17139,64.0,0,60,8.0,40.0
17140,57.0,0,192,5.0,32.0
17141,69.0,0,192,5.0,32.0
17142,45.0,0,192,6.0,32.0
17143,69.0,0,450,4.0,37.0
17144,76.0,0,480,1.0,53.0
17145,64.0,0,480,2.0,53.0
17146,52.0,120,60,11.0,40.0
17147,52.0,0,60,12.0,40.0
17148,40.0,0,60,13.0,40.0
17149,64.0,0,60,8.0,40.0
17150,61.0,0,60,10.0,40.0
17151,82.0,0,120,1.0,43.0
17152,70.0,0,120,2.0,43.0
17153,52.0,0,60,11.0,40.0
17154,64.0,120,60,8.0,40.0
17155,61.0,0,60,10.0,40.0
17156,43.0,0,60,13.0,40.0
17157,55.0,0,60,12.0,40.0
17158,81.0,0,120,1.0,43.0
17159,73.0,0,240,1.0,43.0
17160,69.0,0,0,2.0,36.0
17161,67.0,0,240,3.0,43.0
17162,53.0,0,60,12.0,40.0
17163,41.0,0,60,13.0,40.0
17164,69.0,0,60,10.0,40.0
17165,62.0,0,60,11.0,40.0
17166,69.0,0,60,8.0,40.0
17167,57.0,0,912,4.0,32.0
17168,45.0,0,912,4.0,32.0
17169,69.0,120,120,10.0,46.0
17170,74.0,0,240,1.0,34.0
17171,73.0,0,120,10.0,46.0
17172,69.0,120,120,10.0,46.0
17173,73.0,120,240,1.0,40.0
17174,74.0,120,120,10.0,46.0
17175,69.0,120,120,11.0,46.0
17176,74.0,120,120,11.0,46.0
17177,86.0,0,240,0.0,40.0
17178,65.0,120,960,3.0,36.0
17179,69.0,120,120,11.0,46.0
17180,74.0,0,480,1.0,40.0
17181,75.0,120,120,11.0,46.0
17182,75.0,0,240,1.0,36.0
17183,81.0,0,1200,1.0,52.0
17184,69.0,120,120,8.0,46.0
17185,87.0,0,240,0.0,40.0
17186,66.0,0,240,3.0,36.0
17187,76.0,0,120,8.0,46.0
17188,81.0,0,180,1.0,64.0
17189,79.0,60,48,1.0,64.0
17190,88.0,120,240,0.0,40.0
17191,69.0,0,240,2.0,36.0
17192,76.0,0,240,1.0,36.0
17193,69.0,120,120,8.0,46.0
17194,67.0,0,240,3.0,36.0
17195,76.0,0,120,8.0,46.0
17196,61.0,0,192,3.0,36.0
17197,79.0,0,192,1.0,64.0
17198,76.0,0,192,1.0,36.0
17199,88.0,60,192,0.0,40.0
17200,69.0,0,192,2.0,36.0
17201,61.0,0,192,3.0,36.0
17202,79.0,240,192,1.0,54.0
17203,88.0,0,192,0.0,34.0
17204,76.0,0,192,1.0,31.0
17205,69.0,0,192,2.0,36.0
17206,74.0,0,226,1.0,34.0
17207,58.0,120,120,10.0,58.0
17208,64.0,0,120,10.0,58.0
17209,74.0,0,226,1.0,51.0
17210,58.0,120,120,10.0,58.0
17211,64.0,0,240,4.0,40.0
17212,64.0,120,240,2.0,36.0
17213,65.0,120,120,10.0,58.0
17214,65.0,120,120,11.0,58.0
17215,65.0,0,240,2.0,36.0
17216,70.0,120,120,11.0,58.0
17217,82.0,0,240,1.0,40.0
17218,65.0,120,120,11.0,58.0
17219,70.0,0,240,2.0,36.0
17220,71.0,0,120,11.0,58.0
17221,77.0,240,1152,2.0,45.0
17222,62.0,0,1152,3.0,34.0
17223,50.0,0,1152,3.0,34.0
17224,89.0,0,1152,0.0,64.0
17225,65.0,0,672,4.0,40.0
17226,53.0,0,672,4.0,40.0
17227,71.0,0,240,2.0,36.0
17228,65.0,120,120,8.0,46.0
17229,83.0,120,240,1.0,40.0
17230,72.0,0,120,8.0,46.0
17231,77.0,0,144,2.0,45.0
17232,89.0,0,144,0.0,64.0
17233,45.0,0,192,3.0,40.0
17234,57.0,0,192,3.0,40.0
17235,84.0,0,192,1.0,40.0
17236,53.0,0,192,4.0,40.0
17237,65.0,0,192,4.0,40.0
17238,72.0,120,192,2.0,36.0
17239,87.0,60,48,0.0,64.0
17240,75.0,0,48,2.0,45.0
17241,65.0,120,120,8.0,46.0
17242,72.0,0,120,8.0,46.0
17243,72.0,60,192,2.0,36.0
17244,65.0,0,192,4.0,40.0
17245,53.0,0,192,4.0,40.0
17246,84.0,0,192,1.0,40.0
17247,45.0,0,192,3.0,40.0
17248,87.0,0,192,0.0,64.0
17249,75.0,0,192,2.0,45.0
17250,57.0,0,192,3.0,40.0
17251,75.0,0,192,2.0,38.0
17252,53.0,0,192,4.0,40.0
17253,87.0,240,192,0.0,54.0
17254,72.0,0,192,2.0,31.0
17255,84.0,0,192,1.0,34.0
17256,65.0,0,192,4.0,40.0
17257,57.0,0,192,3.0,34.0
17258,45.0,0,192,3.0,34.0
17259,50.0,120,120,11.0,64.0
17260,52.0,120,120,11.0,64.0
17261,50.0,0,384,6.0,40.0
17262,74.0,240,384,5.0,40.0
17263,62.0,0,384,5.0,40.0
17264,54.0,120,120,11.0,64.0
17265,55.0,120,120,11.0,80.0
17266,86.0,0,720,14.0,90.0
17267,86.0,0,720,8.0,75.0
17268,34.0,0,720,15.0,72.0
17269,57.0,120,120,11.0,52.0
17270,34.0,0,720,13.0,40.0
17271,74.0,0,720,14.0,90.0
17272,74.0,0,720,10.0,40.0
17273,46.0,0,720,15.0,72.0
17274,46.0,0,768,3.0,80.0
17275,58.0,0,120,11.0,55.0
17276,73.0,0,192,10.0,51.0
17277,85.0,120,240,8.0,61.0
17278,61.0,120,120,11.0,59.0
17279,57.0,0,96,3.0,80.0
17280,62.0,0,1056,4.0,80.0
17281,50.0,0,1056,4.0,80.0
17282,45.0,0,96,3.0,80.0
17283,84.0,0,120,8.0,59.0
17284,62.0,0,120,11.0,62.0
17285,72.0,0,120,10.0,59.0
17286,45.0,0,360,13.0,55.0
17287,50.0,0,192,6.0,28.0
17288,62.0,0,192,5.0,28.0
17289,74.0,0,192,5.0,28.0
17290,43.0,0,96,3.0,80.0
17291,55.0,0,96,3.0,80.0
17292,70.0,0,120,10.0,63.0
17293,64.0,120,120,11.0,66.0
17294,43.0,0,120,13.0,66.0
17295,82.0,0,120,8.0,63.0
17296,62.0,0,216,4.0,80.0
17297,50.0,0,216,4.0,80.0
17298,54.0,120,96,3.0,80.0
17299,42.0,0,96,3.0,80.0
17300,69.0,0,120,10.0,67.0
17301,66.0,0,120,11.0,70.0
17302,42.0,0,120,13.0,70.0
17303,81.0,0,120,8.0,67.0
17304,74.0,0,192,5.0,37.0
17305,62.0,0,192,5.0,37.0
17306,50.0,0,192,6.0,37.0
17307,51.0,0,96,3.0,80.0
17308,39.0,0,96,3.0,80.0
17309,40.0,0,120,13.0,73.0
17310,79.0,0,120,8.0,70.0
17311,67.0,0,120,11.0,73.0
17312,67.0,0,120,10.0,70.0
17313,86.0,0,1536,0.0,80.0
17314,38.0,0,96,3.0,80.0
17315,74.0,0,576,2.0,80.0
17316,50.0,0,96,3.0,80.0
17317,62.0,120,576,2.0,80.0
17318,50.0,0,216,4.0,80.0
17319,62.0,120,216,4.0,80.0
17320,74.0,0,1536,1.0,80.0
17321,69.0,0,120,11.0,77.0
17322,78.0,0,120,8.0,74.0
17323,66.0,0,120,10.0,74.0
17324,38.0,0,120,13.0,77.0
17325,62.0,0,192,5.0,45.0
17326,74.0,0,192,5.0,45.0
17327,50.0,120,192,6.0,45.0
17328,75.0,0,120,8.0,78.0
17329,66.0,0,120,2.0,59.0
17330,54.0,0,120,3.0,59.0
17331,57.0,0,120,11.0,80.0
17332,78.0,0,120,0.0,71.0
17333,66.0,0,120,1.0,59.0
17334,63.0,0,120,10.0,78.0
17335,48.0,0,120,13.0,100.0
17336,62.0,0,192,2.0,59.0
17337,67.0,0,72,2.0,62.0
17338,79.0,0,72,0.0,74.0
17339,74.0,0,192,0.0,71.0
17340,50.0,0,192,3.0,59.0
17341,55.0,0,72,3.0,62.0
17342,67.0,0,72,1.0,62.0
17343,62.0,0,216,4.0,80.0
17344,50.0,120,216,4.0,80.0
17345,62.0,0,120,10.0,82.0
17346,58.0,0,120,11.0,84.0
17347,47.0,0,120,13.0,84.0
17348,74.0,120,120,8.0,82.0
17349,62.0,0,192,5.0,54.0
17350,50.0,0,192,6.0,54.0
17351,74.0,0,192,5.0,54.0
17352,60.0,120,120,11.0,108.0
17353,69.0,0,120,1.0,66.0
17354,57.0,0,120,3.0,66.0
17355,54.0,0,120,3.0,66.0
17356,72.0,0,120,8.0,86.0
17357,60.0,0,120,10.0,86.0
17358,81.0,0,120,0.0,79.0
17359,69.0,0,120,2.0,66.0
17360,45.0,0,120,13.0,88.0
17361,66.0,0,120,2.0,66.0
17362,58.0,0,96,3.0,80.0
17363,62.0,0,216,4.0,80.0
17364,62.0,0,96,5.0,80.0
17365,74.0,0,96,5.0,80.0
17366,70.0,0,96,2.0,80.0
17367,82.0,0,96,0.0,80.0
17368,70.0,0,96,1.0,80.0
17369,50.0,0,96,6.0,80.0
17370,50.0,0,216,4.0,80.0
17371,58.0,0,120,10.0,90.0
17372,70.0,0,120,8.0,90.0
17373,55.0,0,120,12.0,91.0
17374,43.0,0,120,13.0,91.0
17375,55.0,120,120,11.0,91.0
17376,50.0,0,96,6.0,80.0
17377,67.0,0,96,4.0,80.0
17378,72.0,0,120,1.0,80.0
17379,53.0,0,120,12.0,95.0
17380,69.0,0,120,8.0,93.0
17381,72.0,0,120,2.0,80.0
17382,60.0,0,120,3.0,80.0
17383,57.0,0,120,10.0,93.0
17384,53.0,0,120,11.0,95.0
17385,41.0,0,120,13.0,95.0
17386,84.0,120,120,0.0,80.0
17387,67.0,0,96,4.0,80.0
17388,74.0,0,216,5.0,80.0
17389,50.0,0,216,4.0,80.0
17390,62.0,0,96,3.0,80.0
17391,62.0,0,216,5.0,80.0
17392,50.0,0,96,6.0,80.0
17393,86.0,120,96,0.0,80.0
17394,62.0,0,216,4.0,80.0
17395,74.0,0,96,1.0,80.0
17396,74.0,0,96,2.0,80.0
17397,40.0,0,120,13.0,98.0
17398,67.0,0,120,8.0,97.0
17399,52.0,0,120,11.0,98.0
17400,52.0,0,120,12.0,98.0
17401,55.0,0,120,10.0,98.0
17402,50.0,0,96,6.0,80.0
17403,67.0,0,96,4.0,80.0
17404,64.0,0,120,3.0,80.0
17405,50.0,0,120,11.0,102.0
17406,76.0,0,120,1.0,80.0
17407,38.0,0,120,13.0,102.0
17408,76.0,0,120,2.0,80.0
17409,65.0,0,120,8.0,101.0
17410,88.0,120,120,0.0,80.0
17411,50.0,0,120,12.0,102.0
17412,77.0,0,96,1.0,80.0
17413,74.0,0,216,5.0,80.0
17414,77.0,0,96,2.0,80.0
17415,67.0,0,96,4.0,80.0
17416,62.0,0,216,4.0,80.0
17417,50.0,0,216,4.0,80.0
17418,62.0,0,216,5.0,80.0
17419,50.0,0,96,6.0,80.0
17420,89.0,0,96,0.0,80.0
17421,65.0,120,96,3.0,80.0
17422,48.0,0,120,11.0,106.0
17423,48.0,0,120,12.0,106.0
17424,36.0,0,120,13.0,106.0
17425,64.0,0,120,8.0,105.0
17426,50.0,0,96,6.0,80.0
17427,67.0,0,96,4.0,80.0
17428,62.0,0,120,8.0,109.0
17429,58.0,0,120,11.0,109.0
17430,67.0,0,120,3.0,80.0
17431,79.0,0,120,2.0,80.0
17432,91.0,0,120,0.0,80.0
17433,34.0,0,120,13.0,109.0
17434,46.0,0,120,12.0,109.0
17435,79.0,120,120,1.0,80.0
17436,81.0,0,96,2.0,80.0
17437,50.0,0,96,6.0,80.0
17438,67.0,0,96,4.0,80.0
17439,81.0,0,96,1.0,80.0
17440,62.0,0,216,4.0,80.0
17441,50.0,0,216,4.0,80.0
17442,62.0,0,216,5.0,80.0
17443,74.0,0,216,5.0,80.0
17444,69.0,0,96,3.0,80.0
17445,93.0,0,96,0.0,80.0
17446,33.0,0,120,13.0,113.0
17447,45.0,0,120,12.0,113.0
17448,57.0,120,120,11.0,113.0
17449,60.0,0,120,8.0,112.0
17450,50.0,0,96,6.0,80.0
17451,67.0,0,96,4.0,80.0
17452,62.0,0,96,4.0,80.0
17453,50.0,0,96,4.0,80.0
17454,74.0,0,96,5.0,80.0
17455,62.0,0,96,5.0,80.0
17456,82.0,120,120,2.0,80.0
17457,58.0,0,120,8.0,116.0
17458,55.0,0,120,11.0,116.0
17459,94.0,0,120,0.0,80.0
17460,70.0,0,120,3.0,80.0
17461,82.0,0,120,1.0,80.0
17462,31.0,0,120,13.0,116.0
17463,43.0,0,120,12.0,116.0
17464,53.0,0,60,11.0,112.0
17465,45.0,0,60,3.0,70.0
17466,57.0,0,60,3.0,70.0
17467,65.0,0,120,4.0,104.0
17468,69.0,0,120,1.0,69.0
17469,69.0,0,120,4.0,104.0
17470,69.0,0,120,5.0,80.0
17471,62.0,0,120,4.0,104.0
17472,57.0,0,120,5.0,80.0
17473,57.0,0,120,8.0,127.0
17474,62.0,120,120,10.0,110.0
17475,77.0,0,120,0.0,83.0
17476,70.0,0,1,2.0,64.0
17477,82.0,0,1,2.0,64.0
17478,57.0,0,60,3.0,70.0
17479,57.0,0,60,11.0,112.0
17480,69.0,120,60,3.0,70.0
17481,45.0,0,192,12.0,80.0
17482,33.0,0,192,13.0,80.0
17483,45.0,0,192,6.0,80.0
17484,65.0,0,60,3.0,70.0
17485,53.0,0,60,3.0,70.0
17486,62.0,0,60,11.0,112.0
17487,74.0,0,120,2.0,69.0
17488,74.0,0,120,10.0,110.0
17489,65.0,0,120,10.0,110.0
17490,86.0,120,120,0.0,83.0
17491,86.0,0,120,1.0,69.0
17492,69.0,0,120,8.0,127.0
17493,89.0,0,120,0.0,83.0
17494,77.0,0,120,8.0,127.0
17495,77.0,0,120,1.0,69.0
17496,77.0,0,120,2.0,69.0
17497,65.0,0,60,11.0,112.0
17498,50.0,0,60,3.0,70.0
17499,62.0,120,60,3.0,70.0
17500,57.0,0,192,5.0,112.0
17501,69.0,0,192,5.0,112.0
17502,45.0,0,192,6.0,112.0
17503,61.0,0,60,11.0,112.0
17504,57.0,120,60,3.0,70.0
17505,45.0,0,60,3.0,70.0
17506,57.0,0,120,4.0,104.0
17507,64.0,0,120,4.0,104.0
17508,69.0,0,120,4.0,104.0
17509,49.0,0,60,3.0,70.0
17510,61.0,120,60,3.0,70.0
17511,64.0,0,60,11.0,112.0
17512,45.0,0,192,13.0,80.0
17513,57.0,0,192,12.0,80.0
17514,52.0,0,60,3.0,70.0
17515,67.0,0,60,11.0,112.0
17516,64.0,0,60,3.0,70.0
17517,81.0,0,120,0.0,83.0
17518,69.0,0,120,8.0,127.0
17519,81.0,0,120,8.0,127.0
17520,76.0,0,120,2.0,69.0
17521,93.0,0,120,0.0,83.0
17522,73.0,0,120,2.0,69.0
17523,76.0,0,120,1.0,69.0
17524,85.0,0,120,1.0,69.0
17525,69.0,120,120,10.0,110.0
17526,73.0,0,120,10.0,110.0
17527,57.0,0,120,5.0,112.0
17528,69.0,0,120,5.0,112.0
17529,73.0,0,60,11.0,112.0
17530,57.0,0,60,3.0,70.0
17531,69.0,120,60,3.0,70.0
17532,45.0,0,192,6.0,112.0
17533,50.0,120,120,11.0,64.0
17534,52.0,0,120,11.0,64.0
17535,62.0,0,192,5.0,30.0
17536,74.0,120,192,5.0,30.0
17537,50.0,0,192,6.0,30.0
17538,54.0,120,120,11.0,64.0
17539,55.0,120,120,11.0,80.0
17540,74.0,0,720,14.0,90.0
17541,46.0,0,720,15.0,72.0
17542,34.0,0,720,15.0,72.0
17543,74.0,0,720,10.0,51.0
17544,34.0,0,720,13.0,40.0
17545,57.0,120,120,11.0,52.0
17546,86.0,0,720,8.0,51.0
17547,86.0,120,720,14.0,90.0
17548,58.0,0,120,11.0,55.0
17549,50.0,0,192,6.0,46.0
17550,74.0,120,192,5.0,46.0
17551,62.0,0,192,5.0,46.0
17552,61.0,120,120,11.0,59.0
17553,85.0,0,240,8.0,55.0
17554,73.0,0,240,10.0,64.0
17555,50.0,0,1056,4.0,80.0
17556,62.0,0,1056,4.0,80.0
17557,57.0,0,120,12.0,62.0
17558,72.0,120,120,10.0,64.0
17559,45.0,0,360,13.0,55.0
17560,62.0,0,120,11.0,62.0
17561,84.0,0,120,8.0,64.0
17562,82.0,0,120,8.0,63.0
17563,43.0,0,120,13.0,66.0
17564,58.0,0,120,12.0,66.0
17565,70.0,120,120,10.0,63.0
17566,64.0,0,120,11.0,66.0
17567,50.0,0,216,4.0,59.0
17568,62.0,0,216,4.0,59.0
17569,81.0,0,120,8.0,67.0
17570,66.0,0,120,11.0,70.0
17571,69.0,0,120,10.0,67.0
17572,42.0,0,120,13.0,70.0
17573,60.0,120,120,12.0,70.0
17574,62.0,0,192,5.0,61.0
17575,50.0,0,192,6.0,61.0
17576,74.0,0,192,5.0,61.0
17577,67.0,0,120,11.0,73.0
17578,67.0,0,120,10.0,70.0
17579,60.0,0,120,12.0,73.0
17580,40.0,0,120,13.0,73.0
17581,79.0,0,120,8.0,70.0
17582,62.0,0,216,4.0,68.0
17583,50.0,120,216,4.0,68.0
17584,78.0,0,120,8.0,74.0
17585,66.0,0,120,10.0,74.0
17586,69.0,0,120,11.0,77.0
17587,38.0,120,120,13.0,77.0
17588,62.0,0,0,12.0,80.0
17589,78.0,0,120,2.0,80.0
17590,75.0,120,120,8.0,78.0
17591,63.0,0,120,10.0,78.0
17592,57.0,0,120,11.0,80.0
17593,66.0,0,120,2.0,80.0
17594,36.0,0,120,13.0,100.0
17595,62.0,0,216,4.0,77.0
17596,50.0,0,216,4.0,77.0
17597,64.0,0,120,12.0,84.0
17598,58.0,0,120,11.0,84.0
17599,48.0,0,120,3.0,100.0
17600,62.0,0,120,10.0,82.0
17601,79.0,0,120,2.0,84.0
17602,67.0,0,120,2.0,84.0
17603,74.0,120,120,8.0,82.0
17604,35.0,0,120,13.0,84.0
17605,50.0,0,192,6.0,76.0
17606,74.0,0,192,5.0,76.0
17607,62.0,0,192,5.0,76.0
17608,62.0,0,96,4.0,86.0
17609,50.0,0,96,4.0,86.0
17610,81.0,0,120,2.0,88.0
17611,69.0,0,120,2.0,108.0
17612,33.0,0,120,13.0,88.0
17613,66.0,120,120,12.0,108.0
17614,46.0,0,120,3.0,84.0
17615,60.0,0,120,11.0,108.0
17616,60.0,0,120,10.0,86.0
17617,72.0,0,120,8.0,86.0
17618,67.0,0,96,12.0,80.0
17619,31.0,0,96,13.0,80.0
17620,58.0,0,96,10.0,80.0
17621,58.0,120,96,10.0,80.0
17622,46.0,0,120,12.0,80.0
17623,60.0,120,96,10.0,80.0
17624,48.0,0,96,12.0,80.0
17625,62.0,0,96,10.0,80.0
17626,50.0,120,120,12.0,80.0
17627,51.0,0,96,12.0,80.0
17628,63.0,120,96,10.0,80.0
17629,65.0,0,96,10.0,80.0
17630,53.0,120,120,12.0,80.0
17631,82.0,0,720,2.0,64.0
17632,70.0,0,720,2.0,64.0
17633,67.0,0,96,10.0,80.0
17634,55.0,0,96,12.0,80.0
17635,69.0,0,96,10.0,80.0
17636,43.0,0,960,3.0,64.0
17637,69.0,0,240,2.0,64.0
17638,57.0,120,120,12.0,80.0
17639,55.0,120,960,3.0,64.0
17640,81.0,120,240,2.0,64.0
17641,58.0,0,1056,4.0,64.0
17642,58.0,0,96,12.0,80.0
17643,46.0,0,1056,4.0,64.0
17644,80.0,0,102,2.0,64.0
17645,68.0,0,102,2.0,64.0
17646,68.0,120,102,3.0,64.0
17647,56.0,0,102,3.0,64.0
17648,70.0,0,114,10.0,80.0
17649,58.0,0,120,11.0,63.0
17650,70.0,0,120,10.0,63.0
17651,82.0,0,120,8.0,63.0
17652,79.0,0,120,2.0,63.0
17653,55.0,0,120,3.0,63.0
17654,67.0,0,120,3.0,63.0
17655,67.0,120,120,2.0,63.0
17656,46.0,0,216,4.0,64.0
17657,58.0,0,216,4.0,64.0
17658,60.0,0,102,11.0,67.0
17659,53.0,0,102,3.0,67.0
17660,65.0,0,102,3.0,67.0
17661,84.0,0,102,8.0,67.0
17662,77.0,0,102,2.0,67.0
17663,72.0,0,102,10.0,67.0
17664,65.0,120,102,2.0,67.0
17665,62.0,0,120,11.0,70.0
17666,63.0,0,120,3.0,70.0
17667,86.0,0,120,8.0,70.0
17668,63.0,0,120,2.0,70.0
17669,75.0,120,120,2.0,70.0
17670,74.0,0,120,10.0,70.0
17671,51.0,0,120,3.0,70.0
17672,58.0,0,216,4.0,74.0
17673,46.0,0,216,4.0,74.0
17674,62.0,0,102,3.0,74.0
17675,50.0,0,102,3.0,74.0
17676,87.0,0,102,8.0,74.0
17677,63.0,120,102,11.0,74.0
17678,75.0,0,102,10.0,74.0
17679,74.0,0,102,2.0,74.0
17680,62.0,0,102,2.0,74.0
17681,77.0,0,120,10.0,78.0
17682,60.0,0,120,3.0,78.0
17683,65.0,0,120,11.0,78.0
17684,89.0,0,120,8.0,78.0
17685,48.0,0,120,3.0,78.0
17686,72.0,0,120,2.0,78.0
17687,60.0,0,120,2.0,78.0
17688,46.0,120,216,4.0,85.0
17689,58.0,0,216,4.0,85.0
17690,58.0,0,102,3.0,82.0
17691,79.0,120,102,10.0,82.0
17692,70.0,0,102,2.0,82.0
17693,58.0,0,102,2.0,82.0
17694,67.0,0,102,11.0,82.0
17695,91.0,0,102,8.0,82.0
17696,46.0,0,102,3.0,82.0
17697,58.0,0,96,4.0,98.0
17698,46.0,0,96,4.0,98.0
17699,56.0,0,120,2.0,86.0
17700,68.0,0,120,2.0,86.0
17701,56.0,120,120,3.0,86.0
17702,68.0,0,120,11.0,86.0
17703,80.0,0,120,10.0,86.0
17704,44.0,0,120,3.0,86.0
17705,92.0,0,120,8.0,86.0
17706,79.0,0,96,10.0,80.0
17707,67.0,0,96,11.0,80.0
17708,67.0,0,102,2.0,64.0
17709,55.0,120,102,2.0,64.0
17710,55.0,120,120,11.0,63.0
17711,58.0,0,120,2.0,63.0
17712,70.0,0,120,2.0,63.0
17713,56.0,120,102,11.0,67.0
17714,60.0,0,102,2.0,67.0
17715,72.0,0,102,2.0,67.0
17716,51.0,0,450,3.0,64.0
17717,39.0,0,450,3.0,64.0
17718,58.0,0,120,11.0,70.0
17719,70.0,0,120,2.0,70.0
17720,58.0,120,120,2.0,70.0
17721,63.0,0,576,4.0,80.0
17722,72.0,0,102,2.0,74.0
17723,60.0,0,102,11.0,74.0
17724,60.0,120,102,2.0,74.0
17725,91.0,0,720,0.0,64.0
17726,79.0,0,720,0.0,64.0
17727,91.0,0,720,8.0,64.0
17728,62.0,0,120,11.0,78.0
17729,62.0,0,120,2.0,78.0
17730,74.0,120,120,2.0,78.0
17731,79.0,0,720,8.0,64.0
17732,51.0,0,720,13.0,77.0
17733,67.0,0,768,4.0,64.0
17734,64.0,0,102,11.0,82.0
17735,76.0,0,102,2.0,82.0
17736,64.0,0,102,2.0,82.0
17737,50.0,0,192,3.0,80.0
17738,38.0,0,192,3.0,80.0
17739,62.0,0,192,4.0,80.0
17740,50.0,0,192,4.0,80.0
17741,77.0,0,120,2.0,86.0
17742,77.0,0,240,0.0,64.0
17743,65.0,0,120,2.0,86.0
17744,50.0,0,240,13.0,77.0
17745,77.0,0,240,8.0,80.0
17746,89.0,120,240,0.0,64.0
17747,89.0,0,240,8.0,80.0
17748,65.0,120,120,11.0,86.0
17749,45.0,0,96,6.0,80.0
17750,79.0,0,1056,1.0,80.0
17751,57.0,0,96,4.0,64.0
17752,69.0,0,96,4.0,64.0
17753,67.0,0,1056,1.0,80.0
17754,57.0,0,96,5.0,80.0
17755,69.0,0,96,5.0,80.0
17756,61.0,120,102,3.0,64.0
17757,79.0,0,102,2.0,77.0
17758,67.0,0,102,2.0,77.0
17759,88.0,0,102,0.0,64.0
17760,88.0,0,102,8.0,80.0
17761,76.0,0,102,8.0,80.0
17762,76.0,0,102,0.0,64.0
17763,49.0,0,102,3.0,64.0
17764,61.0,0,120,12.0,64.0
17765,49.0,0,120,13.0,77.0
17766,45.0,0,96,6.0,80.0
17767,69.0,0,96,5.0,80.0
17768,57.0,0,96,5.0,80.0
17769,64.0,0,114,1.0,63.0
17770,76.0,0,114,1.0,63.0
17771,46.0,0,120,3.0,63.0
17772,58.0,0,120,3.0,63.0
17773,46.0,0,120,13.0,76.0
17774,67.0,0,120,2.0,76.0
17775,58.0,0,120,12.0,63.0
17776,79.0,0,0,2.0,80.0
17777,88.0,120,120,0.0,63.0
17778,76.0,0,120,0.0,63.0
17779,86.0,0,120,8.0,79.0
17780,74.0,0,120,8.0,79.0
17781,45.0,0,96,6.0,80.0
17782,57.0,0,96,5.0,80.0
17783,69.0,0,96,5.0,80.0
17784,69.0,0,216,4.0,64.0
17785,57.0,0,216,4.0,64.0
17786,85.0,0,102,8.0,84.0
17787,73.0,0,102,8.0,84.0
17788,57.0,0,102,3.0,67.0
17789,67.0,0,102,2.0,80.0
17790,89.0,0,102,0.0,67.0
17791,45.0,120,102,3.0,67.0
17792,77.0,0,102,0.0,67.0
17793,65.0,0,114,1.0,67.0
17794,77.0,0,114,1.0,67.0
17795,57.0,0,120,12.0,67.0
17796,45.0,0,120,13.0,80.0
17797,57.0,0,96,5.0,80.0
17798,69.0,0,96,5.0,80.0
17799,45.0,0,96,6.0,80.0
17800,79.0,0,114,1.0,70.0
17801,67.0,0,114,1.0,70.0
17802,81.0,0,120,2.0,84.0
17803,69.0,0,120,2.0,84.0
17804,82.0,0,120,8.0,88.0
17805,70.0,0,120,8.0,88.0
17806,55.0,0,120,3.0,70.0
17807,43.0,0,120,13.0,84.0
17808,91.0,0,120,0.0,70.0
17809,79.0,0,120,0.0,70.0
17810,43.0,0,120,3.0,70.0
17811,55.0,120,120,12.0,70.0
17812,69.0,0,216,4.0,74.0
17813,57.0,0,216,4.0,74.0
17814,69.0,0,96,5.0,80.0
17815,57.0,0,96,5.0,80.0
17816,45.0,0,96,6.0,80.0
17817,69.0,0,102,8.0,93.0
17818,81.0,0,102,8.0,93.0
17819,53.0,120,102,3.0,74.0
17820,93.0,0,102,0.0,59.0
17821,69.0,0,102,2.0,89.0
17822,81.0,0,102,2.0,71.0
17823,41.0,0,102,3.0,74.0
17824,81.0,0,102,0.0,59.0
17825,81.0,0,114,1.0,59.0
17826,69.0,0,114,1.0,59.0
17827,41.0,0,120,13.0,89.0
17828,53.0,0,120,12.0,74.0
17829,57.0,0,96,5.0,80.0
17830,45.0,0,96,6.0,80.0
17831,69.0,0,96,5.0,80.0
17832,73.0,0,114,1.0,62.0
17833,85.0,0,114,1.0,62.0
17834,81.0,0,120,0.0,62.0
17835,93.0,0,120,0.0,62.0
17836,40.0,0,120,13.0,94.0
17837,79.0,0,120,8.0,98.0
17838,52.0,0,120,3.0,78.0
17839,69.0,0,0,2.0,78.0
17840,81.0,0,0,2.0,78.0
17841,67.0,0,120,8.0,98.0
17842,40.0,0,120,3.0,78.0
17843,52.0,0,120,12.0,78.0
17844,57.0,120,216,4.0,85.0
17845,69.0,0,216,4.0,85.0
17846,45.0,0,96,6.0,80.0
17847,69.0,0,96,5.0,80.0
17848,57.0,120,96,5.0,80.0
17849,77.0,0,102,8.0,103.0
17850,65.0,0,102,8.0,103.0
17851,81.0,0,102,0.0,66.0
17852,93.0,0,102,0.0,66.0
17853,50.0,0,102,3.0,82.0
17854,38.0,0,102,3.0,82.0
17855,86.0,0,114,1.0,66.0
17856,74.0,0,114,1.0,66.0
17857,50.0,0,120,12.0,82.0
17858,38.0,0,120,13.0,98.0
17859,69.0,0,96,5.0,80.0
17860,45.0,0,96,6.0,80.0
17861,57.0,0,96,4.0,98.0
17862,57.0,0,96,5.0,80.0
17863,69.0,0,96,4.0,98.0
17864,81.0,0,114,1.0,69.0
17865,76.0,120,114,1.0,69.0
17866,37.0,0,120,13.0,103.0
17867,49.0,0,120,3.0,86.0
17868,37.0,0,120,3.0,86.0
17869,81.0,0,120,2.0,82.0
17870,49.0,0,120,12.0,86.0
17871,69.0,0,120,2.0,82.0
17872,93.0,0,0,0.0,82.0
17873,81.0,0,0,0.0,82.0
17874,64.0,0,120,8.0,108.0
17875,76.0,0,120,8.0,108.0
17876,45.0,0,120,6.0,127.0
17877,81.0,0,120,1.0,102.0
17878,53.0,0,120,12.0,127.0
17879,81.0,120,120,8.0,127.0
17880,81.0,0,120,2.0,102.0
17881,69.0,0,120,10.0,127.0
17882,69.0,0,120,1.0,102.0
17883,41.0,0,120,3.0,127.0
17884,69.0,0,120,2.0,102.0
17885,41.0,0,120,13.0,127.0
17886,57.0,0,120,11.0,127.0
17887,57.0,0,120,5.0,127.0
17888,69.0,0,120,5.0,127.0
17889,57.0,0,120,4.0,127.0
17890,69.0,0,120,4.0,127.0
17891,80.0,0,90,2.0,102.0
17892,62.0,0,90,10.0,127.0
17893,74.0,0,90,5.0,127.0
17894,62.0,0,90,5.0,127.0
17895,68.0,0,90,2.0,102.0
17896,68.0,0,90,1.0,102.0
17897,50.0,0,90,6.0,127.0
17898,53.0,0,90,12.0,127.0
17899,80.0,0,90,1.0,102.0
17900,41.0,0,90,13.0,127.0
17901,80.0,0,90,8.0,127.0
17902,68.0,0,90,11.0,127.0
17903,50.0,0,90,4.0,127.0
17904,62.0,0,90,4.0,127.0
17905,92.0,0,90,0.0,82.0
17906,41.0,0,90,3.0,127.0
17907,80.0,240,90,0.0,82.0
17908,92.0,0,30,0.0,82.0
17909,68.0,0,30,1.0,102.0
17910,80.0,0,30,0.0,82.0
17911,62.0,0,30,10.0,127.0
17912,80.0,0,30,1.0,102.0
17913,68.0,0,30,11.0,127.0
17914,62.0,0,30,4.0,127.0
17915,62.0,0,30,5.0,127.0
17916,80.0,0,30,8.0,127.0
17917,41.0,0,30,3.0,127.0
17918,50.0,0,30,6.0,127.0
17919,74.0,0,30,5.0,127.0
17920,41.0,0,30,13.0,127.0
17921,80.0,0,30,2.0,102.0
17922,68.0,180,30,2.0,102.0
17923,50.0,0,30,4.0,127.0
17924,53.0,0,30,12.0,127.0
17925,69.0,0,120,1.0,102.0
17926,93.0,0,120,0.0,82.0
17927,42.0,0,120,3.0,127.0
17928,50.0,0,120,6.0,127.0
17929,54.0,0,120,12.0,127.0
17930,81.0,0,120,0.0,82.0
17931,81.0,0,120,1.0,102.0
17932,57.0,0,120,10.0,127.0
17933,42.0,0,120,13.0,127.0
17934,69.0,0,120,2.0,102.0
17935,62.0,0,120,5.0,127.0
17936,62.0,60,120,4.0,127.0
17937,50.0,0,120,4.0,127.0
17938,81.0,0,120,2.0,102.0
17939,69.0,0,120,11.0,127.0
17940,74.0,0,120,5.0,127.0
17941,81.0,0,120,8.0,127.0
17942,62.0,0,120,5.0,127.0
17943,74.0,0,120,10.0,127.0
17944,62.0,0,120,10.0,127.0
17945,82.0,0,120,8.0,127.0
17946,82.0,0,120,1.0,102.0
17947,70.0,0,120,1.0,102.0
17948,82.0,0,120,2.0,102.0
17949,70.0,0,120,2.0,102.0
17950,50.0,0,120,4.0,127.0
17951,55.0,0,120,12.0,127.0
17952,43.0,0,120,3.0,127.0
17953,58.0,0,120,11.0,127.0
17954,55.0,0,120,10.0,127.0
17955,50.0,480,120,6.0,127.0
17956,62.0,0,120,4.0,127.0
17957,74.0,0,120,5.0,127.0
17958,43.0,0,120,13.0,127.0
17959,94.0,0,120,0.0,82.0
17960,82.0,0,120,0.0,82.0
17961,81.0,0,90,8.0,127.0
17962,74.0,0,90,5.0,127.0
17963,42.0,0,90,3.0,127.0
17964,50.0,0,90,6.0,127.0
17965,69.0,0,90,11.0,127.0
17966,62.0,0,90,4.0,127.0
17967,50.0,0,90,4.0,127.0
17968,42.0,0,90,13.0,127.0
17969,54.0,0,90,12.0,127.0
17970,62.0,240,90,5.0,127.0
17971,81.0,0,90,0.0,82.0
17972,93.0,0,90,0.0,82.0
17973,57.0,0,90,10.0,127.0
17974,81.0,0,90,1.0,102.0
17975,69.0,0,90,1.0,102.0
17976,81.0,0,90,2.0,102.0
17977,69.0,0,90,2.0,102.0
17978,57.0,0,30,10.0,127.0
17979,81.0,0,30,1.0,102.0
17980,69.0,0,30,1.0,102.0
17981,81.0,0,30,2.0,102.0
17982,69.0,0,30,2.0,102.0
17983,42.0,0,30,13.0,127.0
17984,42.0,0,30,3.0,127.0
17985,62.0,0,30,5.0,127.0
17986,74.0,0,30,5.0,127.0
17987,93.0,0,30,0.0,82.0
17988,81.0,180,30,0.0,82.0
17989,54.0,0,30,12.0,127.0
17990,69.0,0,30,11.0,127.0
17991,62.0,0,30,4.0,127.0
17992,50.0,0,30,4.0,127.0
17993,50.0,0,30,6.0,127.0
17994,81.0,0,30,8.0,127.0
17995,50.0,0,120,4.0,127.0
17996,82.0,0,120,2.0,102.0
17997,70.0,0,120,2.0,102.0
17998,70.0,0,120,11.0,127.0
17999,74.0,0,120,5.0,127.0
18000,82.0,0,120,8.0,127.0
18001,43.0,60,120,13.0,127.0
18002,62.0,0,120,5.0,127.0
18003,94.0,0,120,0.0,82.0
18004,43.0,0,120,3.0,127.0
18005,62.0,0,120,10.0,127.0
18006,50.0,0,120,6.0,127.0
18007,82.0,0,120,0.0,82.0
18008,70.0,0,120,1.0,102.0
18009,62.0,0,120,4.0,127.0
18010,55.0,0,120,12.0,127.0
18011,82.0,0,120,1.0,102.0
18012,55.0,0,480,3.0,36.0
18013,43.0,0,480,3.0,36.0
18014,83.0,0,720,1.0,40.0
18015,85.0,240,120,1.0,40.0
18016,62.0,0,960,4.0,40.0
18017,55.0,0,480,3.0,36.0
18018,74.0,0,960,1.0,40.0
18019,67.0,0,480,3.0,36.0
18020,71.0,0,960,2.0,40.0
18021,67.0,600,960,4.0,40.0
18022,59.0,480,480,2.0,40.0
18023,86.0,120,120,1.0,40.0
18024,66.0,0,480,4.0,40.0
18025,62.0,0,480,4.0,40.0
18026,74.0,0,480,1.0,40.0
18027,78.0,120,480,1.0,40.0
18028,57.0,0,480,3.0,45.0
18029,45.0,0,120,6.0,40.0
18030,69.0,0,192,5.0,40.0
18031,57.0,0,192,5.0,40.0
18032,73.0,0,480,1.0,40.0
18033,76.0,0,480,1.0,40.0
18034,45.0,0,480,3.0,45.0
18035,57.0,480,480,4.0,40.0
18036,64.0,0,480,4.0,40.0
18037,57.0,0,960,2.0,40.0
18038,69.0,0,960,2.0,40.0
18039,38.0,0,120,12.0,102.0
18040,62.0,0,120,11.0,102.0
18041,62.0,0,120,1.0,102.0
18042,74.0,0,120,1.0,102.0
18043,62.0,0,120,5.0,127.0
18044,74.0,0,120,5.0,127.0
18045,74.0,0,120,2.0,102.0
18046,50.0,0,120,3.0,127.0
18047,62.0,0,120,4.0,127.0
18048,62.0,0,120,2.0,102.0
18049,50.0,0,120,11.0,102.0
18050,62.0,0,120,10.0,102.0
18051,74.0,0,120,10.0,102.0
18052,50.0,0,120,4.0,127.0
18053,86.0,0,120,0.0,82.0
18054,74.0,0,120,8.0,102.0
18055,50.0,0,120,6.0,127.0
18056,38.0,0,120,13.0,102.0
18057,50.0,0,120,12.0,102.0
18058,62.0,0,120,8.0,102.0
18059,85.0,0,90,0.0,82.0
18060,73.0,0,90,8.0,102.0
18061,49.0,0,90,11.0,102.0
18062,61.0,0,90,11.0,102.0
18063,49.0,0,90,3.0,127.0
18064,37.0,0,90,13.0,102.0
18065,74.0,0,90,5.0,127.0
18066,62.0,0,90,4.0,127.0
18067,50.0,0,90,4.0,127.0
18068,50.0,0,90,6.0,127.0
18069,61.0,240,90,8.0,102.0
18070,61.0,0,90,2.0,102.0
18071,73.0,0,90,2.0,102.0
18072,61.0,0,90,10.0,102.0
18073,73.0,0,90,10.0,102.0
18074,73.0,0,90,1.0,102.0
18075,49.0,0,90,12.0,102.0
18076,37.0,0,90,12.0,102.0
18077,62.0,0,90,5.0,127.0
18078,61.0,0,90,1.0,102.0
18079,49.0,0,30,12.0,102.0
18080,49.0,0,30,3.0,127.0
18081,73.0,0,30,2.0,102.0
18082,73.0,0,30,8.0,102.0
18083,61.0,0,30,8.0,102.0
18084,37.0,0,30,13.0,102.0
18085,61.0,0,30,2.0,102.0
18086,50.0,0,30,6.0,127.0
18087,62.0,0,30,4.0,127.0
18088,50.0,0,30,4.0,127.0
18089,37.0,0,30,12.0,102.0
18090,73.0,0,30,1.0,102.0
18091,61.0,180,30,1.0,102.0
18092,62.0,0,30,5.0,127.0
18093,74.0,0,30,5.0,127.0
18094,61.0,0,30,10.0,102.0
18095,85.0,0,30,0.0,82.0
18096,73.0,0,30,10.0,102.0
18097,49.0,0,30,11.0,102.0
18098,61.0,0,30,11.0,102.0
18099,50.0,0,120,3.0,127.0
18100,38.0,0,120,12.0,102.0
18101,50.0,0,120,12.0,102.0
18102,62.0,0,120,10.0,102.0
18103,74.0,0,120,10.0,102.0
18104,62.0,0,120,4.0,127.0
18105,74.0,0,120,1.0,102.0
18106,62.0,0,120,1.0,102.0
18107,74.0,0,120,5.0,127.0
18108,62.0,0,120,5.0,127.0
18109,86.0,0,120,0.0,82.0
18110,74.0,0,120,2.0,102.0
18111,62.0,0,120,11.0,102.0
18112,50.0,0,120,11.0,102.0
18113,50.0,0,120,4.0,127.0
18114,62.0,0,120,8.0,102.0
18115,74.0,0,120,8.0,102.0
18116,38.0,0,120,13.0,102.0
18117,50.0,0,120,6.0,127.0
18118,62.0,60,120,2.0,102.0
18119,75.0,0,120,2.0,102.0
18120,75.0,0,120,8.0,102.0
18121,63.0,0,120,8.0,102.0
18122,75.0,480,120,10.0,102.0
18123,63.0,0,120,2.0,102.0
18124,87.0,0,120,0.0,82.0
18125,63.0,0,120,1.0,102.0
18126,75.0,0,120,1.0,102.0
18127,51.0,0,120,11.0,102.0
18128,39.0,0,120,13.0,102.0
18129,63.0,0,120,4.0,127.0
18130,63.0,0,120,10.0,102.0
18131,51.0,0,120,3.0,127.0
18132,63.0,0,120,11.0,102.0
18133,39.0,0,120,12.0,102.0
18134,51.0,0,120,12.0,102.0
18135,38.0,0,90,12.0,102.0
18136,62.0,0,90,11.0,102.0
18137,50.0,0,90,11.0,102.0
18138,62.0,0,90,8.0,102.0
18139,50.0,0,90,12.0,102.0
18140,62.0,0,90,2.0,102.0
18141,74.0,0,90,8.0,102.0
18142,62.0,0,90,4.0,127.0
18143,86.0,0,90,0.0,82.0
18144,74.0,0,90,2.0,102.0
18145,62.0,0,90,10.0,102.0
18146,74.0,0,90,10.0,102.0
18147,50.0,0,90,3.0,127.0
18148,38.0,0,90,13.0,102.0
18149,74.0,0,90,1.0,102.0
18150,62.0,240,90,1.0,102.0
18151,62.0,0,30,2.0,102.0
18152,62.0,0,30,8.0,102.0
18153,74.0,0,30,8.0,102.0
18154,74.0,0,30,2.0,102.0
18155,50.0,0,30,12.0,102.0
18156,62.0,0,30,10.0,102.0
18157,62.0,0,30,11.0,102.0
18158,62.0,180,30,4.0,127.0
18159,62.0,0,30,1.0,102.0
18160,74.0,0,30,10.0,102.0
18161,74.0,0,30,1.0,102.0
18162,38.0,0,30,13.0,102.0
18163,50.0,0,30,11.0,102.0
18164,38.0,0,30,12.0,102.0
18165,50.0,0,30,3.0,127.0
18166,86.0,0,30,0.0,82.0
18167,63.0,0,120,4.0,127.0
18168,51.0,0,120,3.0,127.0
18169,39.0,0,120,13.0,102.0
18170,75.0,0,120,2.0,102.0
18171,51.0,0,120,11.0,102.0
18172,75.0,0,120,1.0,102.0
18173,63.0,0,120,1.0,102.0
18174,87.0,0,120,0.0,82.0
18175,75.0,0,120,8.0,102.0
18176,63.0,0,120,8.0,102.0
18177,75.0,0,120,10.0,102.0
18178,63.0,0,120,10.0,102.0
18179,51.0,0,120,12.0,102.0
18180,39.0,0,120,12.0,102.0
18181,63.0,60,120,11.0,102.0
18182,63.0,0,120,2.0,102.0
18183,75.0,0,480,2.0,38.0
18184,82.0,600,480,0.0,64.0
18185,67.0,0,480,2.0,38.0
18186,84.0,0,240,0.0,64.0
18187,86.0,240,120,0.0,64.0
18188,87.0,120,120,0.0,64.0
18189,68.0,0,480,2.0,38.0
18190,75.0,0,0,2.0,38.0
18191,58.0,0,0,4.0,30.0
18192,79.0,0,480,0.0,64.0
18193,70.0,0,480,2.0,38.0
18194,62.0,0,192,5.0,20.0
18195,74.0,0,192,5.0,20.0
18196,77.0,480,450,0.0,64.0
18197,58.0,0,480,2.0,38.0
18198,46.0,0,0,4.0,40.0
18199,58.0,0,0,4.0,40.0
18200,74.0,0,480,2.0,38.0
18201,63.0,0,120,11.0,51.0
18202,62.0,240,90,11.0,51.0
18203,62.0,180,30,11.0,51.0
18204,51.0,0,120,12.0,51.0
18205,63.0,0,120,11.0,51.0
18206,50.0,240,90,12.0,51.0
18207,67.0,60,384,10.0,32.0
18208,58.0,0,384,10.0,32.0
18209,70.0,0,384,8.0,32.0
18210,67.0,0,384,8.0,32.0
18211,50.0,180,30,12.0,51.0
18212,82.0,480,960,0.0,45.0
18213,70.0,0,960,2.0,32.0
18214,51.0,0,120,12.0,51.0
18215,63.0,60,120,11.0,51.0
18216,62.0,240,90,11.0,51.0
18217,39.0,0,384,15.0,40.0
18218,62.0,180,30,11.0,51.0
18219,63.0,0,120,11.0,51.0
18220,51.0,0,120,12.0,51.0
18221,50.0,240,90,12.0,51.0
18222,75.0,0,384,8.0,32.0
18223,67.0,0,384,8.0,32.0
18224,67.0,60,384,10.0,32.0
18225,58.0,0,384,10.0,32.0
18226,50.0,180,30,12.0,51.0
18227,55.0,0,1920,3.0,40.0
18228,63.0,0,1920,3.0,40.0
18229,67.0,0,1920,2.0,32.0
18230,75.0,0,960,2.0,32.0
18231,87.0,0,960,0.0,45.0
18232,51.0,0,120,12.0,51.0
18233,63.0,0,120,11.0,51.0
18234,62.0,240,90,11.0,51.0
18235,39.0,0,384,15.0,40.0
18236,62.0,180,30,11.0,51.0
18237,63.0,60,120,11.0,51.0
18238,51.0,0,120,12.0,51.0
18239,50.0,240,90,12.0,51.0
18240,58.0,0,384,10.0,32.0
18241,77.0,0,384,8.0,32.0
18242,68.0,0,384,10.0,32.0
18243,50.0,180,30,12.0,51.0
18244,77.0,0,960,2.0,22.0
18245,68.0,0,960,2.0,22.0
18246,89.0,60,960,0.0,45.0
18247,51.0,60,120,12.0,51.0
18248,63.0,0,120,11.0,51.0
18249,50.0,0,90,12.0,51.0
18250,62.0,240,90,11.0,51.0
18251,39.0,0,384,15.0,40.0
18252,50.0,180,30,12.0,51.0
18253,62.0,0,30,11.0,51.0
18254,56.0,0,1440,3.0,40.0
18255,51.0,0,120,12.0,51.0
18256,63.0,0,120,11.0,51.0
18257,39.0,0,226,15.0,40.0
18258,50.0,0,90,12.0,51.0
18259,62.0,0,90,11.0,51.0
18260,58.0,0,384,10.0,32.0
18261,65.0,0,384,10.0,32.0
18262,70.0,0,384,8.0,32.0
18263,62.0,0,30,11.0,51.0
18264,50.0,180,30,12.0,51.0
18265,38.0,240,226,15.0,40.0
18266,70.0,60,0,2.0,32.0
18267,82.0,0,960,0.0,45.0
18268,65.0,0,1920,3.0,40.0
18269,82.0,0,1080,2.0,32.0
18270,82.0,0,600,8.0,32.0
18271,58.0,60,600,3.0,40.0
18272,58.0,0,120,12.0,32.0
18273,70.0,0,120,11.0,32.0
18274,68.0,0,120,2.0,32.0
18275,80.0,0,120,2.0,32.0
18276,56.0,0,120,3.0,32.0
18277,68.0,0,120,12.0,32.0
18278,80.0,0,120,8.0,32.0
18279,68.0,120,120,11.0,32.0
18280,67.0,120,120,11.0,32.0
18281,55.0,0,120,3.0,32.0
18282,79.0,0,120,2.0,32.0
18283,67.0,0,120,2.0,32.0
18284,67.0,0,120,12.0,32.0
18285,79.0,0,120,8.0,32.0
18286,46.0,0,384,15.0,40.0
18287,53.0,0,120,3.0,32.0
18288,65.0,0,120,2.0,32.0
18289,77.0,0,120,2.0,32.0
18290,65.0,0,120,11.0,32.0
18291,77.0,0,120,8.0,32.0
18292,65.0,120,120,12.0,32.0
18293,51.0,0,120,3.0,32.0
18294,75.0,120,120,2.0,32.0
18295,63.0,0,120,2.0,32.0
18296,75.0,0,120,8.0,32.0
18297,63.0,0,120,11.0,32.0
18298,63.0,0,120,12.0,32.0
18299,50.0,0,120,3.0,32.0
18300,74.0,0,120,8.0,32.0
18301,62.0,0,120,12.0,32.0
18302,74.0,0,120,2.0,32.0
18303,62.0,120,120,2.0,32.0
18304,62.0,0,120,11.0,32.0
18305,60.0,0,120,2.0,32.0
18306,48.0,0,120,3.0,32.0
18307,72.0,0,120,2.0,32.0
18308,60.0,120,120,12.0,32.0
18309,60.0,0,120,11.0,32.0
18310,72.0,0,120,8.0,32.0
18311,70.0,0,120,8.0,32.0
18312,46.0,0,120,3.0,32.0
18313,58.0,0,120,11.0,32.0
18314,58.0,0,120,12.0,32.0
18315,70.0,0,120,2.0,32.0
18316,58.0,120,120,2.0,32.0
18317,56.0,0,120,12.0,32.0
18318,56.0,0,120,11.0,32.0
18319,68.0,0,120,2.0,32.0
18320,56.0,0,120,2.0,32.0
18321,68.0,120,120,8.0,32.0
18322,44.0,0,120,3.0,32.0
18323,55.0,120,120,12.0,32.0
18324,67.0,0,120,2.0,32.0
18325,55.0,0,120,2.0,32.0
18326,43.0,0,120,3.0,32.0
18327,55.0,0,120,11.0,32.0
18328,67.0,0,120,8.0,32.0
18329,53.0,0,120,2.0,32.0
18330,65.0,0,120,2.0,32.0
18331,53.0,120,120,12.0,32.0
18332,65.0,0,120,8.0,32.0
18333,41.0,0,120,3.0,32.0
18334,53.0,0,120,11.0,32.0
18335,63.0,120,120,8.0,32.0
18336,51.0,0,120,12.0,32.0
18337,39.0,0,120,3.0,32.0
18338,51.0,0,120,2.0,32.0
18339,51.0,0,120,11.0,32.0
18340,63.0,0,120,2.0,32.0
18341,38.0,0,114,3.0,32.0
18342,62.0,0,114,2.0,32.0
18343,50.0,0,114,2.0,32.0
18344,50.0,0,120,12.0,32.0
18345,62.0,0,120,8.0,32.0
18346,50.0,120,120,11.0,32.0
18347,51.0,0,120,12.0,32.0
18348,63.0,0,120,8.0,32.0
18349,51.0,120,120,11.0,32.0
18350,62.0,0,120,8.0,32.0
18351,50.0,0,0,11.0,32.0
18352,50.0,120,120,12.0,32.0
18353,38.0,0,192,15.0,40.0
18354,50.0,0,336,3.0,32.0
18355,62.0,0,336,2.0,32.0
18356,50.0,0,240,12.0,32.0
18357,62.0,120,240,8.0,32.0
18358,61.0,0,114,2.0,31.0
18359,49.0,240,114,3.0,31.0
18360,61.0,0,120,8.0,32.0
18361,49.0,0,120,12.0,32.0
18362,49.0,0,120,11.0,32.0
18363,69.0,0,120,2.0,37.0
18364,57.0,0,120,3.0,37.0
18365,56.0,120,120,12.0,32.0
18366,68.0,0,120,8.0,32.0
18367,56.0,0,120,11.0,32.0
18368,37.0,0,192,15.0,40.0
18369,69.0,0,120,8.0,32.0
18370,57.0,0,120,11.0,32.0
18371,57.0,120,120,12.0,32.0
18372,58.0,0,120,12.0,32.0
18373,58.0,0,120,11.0,32.0
18374,70.0,120,120,8.0,32.0
18375,56.0,120,120,12.0,32.0
18376,68.0,0,120,8.0,32.0
18377,70.0,0,240,1.0,38.0
18378,82.0,0,240,0.0,38.0
18379,56.0,0,120,11.0,32.0
18380,57.0,0,120,4.0,42.0
18381,57.0,120,120,12.0,32.0
18382,81.0,0,120,0.0,33.0
18383,45.0,0,120,4.0,42.0
18384,57.0,0,120,11.0,32.0
18385,69.0,0,120,1.0,33.0
18386,69.0,0,120,8.0,32.0
18387,37.0,0,192,15.0,40.0
18388,61.0,0,120,8.0,32.0
18389,49.0,0,120,11.0,32.0
18390,49.0,120,120,12.0,32.0
18391,62.0,0,120,8.0,32.0
18392,50.0,0,120,11.0,32.0
18393,50.0,0,120,12.0,32.0
18394,60.0,0,120,11.0,32.0
18395,60.0,0,120,12.0,32.0
18396,50.0,120,240,3.0,37.0
18397,62.0,0,240,2.0,37.0
18398,72.0,120,120,8.0,32.0
18399,70.0,0,120,2.0,37.0
18400,57.0,0,120,12.0,32.0
18401,57.0,0,120,11.0,32.0
18402,69.0,0,120,8.0,32.0
18403,58.0,0,120,3.0,37.0
18404,38.0,120,192,15.0,40.0
18405,70.0,0,120,8.0,32.0
18406,58.0,120,120,12.0,32.0
18407,58.0,0,120,11.0,32.0
18408,62.0,120,120,11.0,32.0
18409,62.0,0,120,12.0,32.0
18410,74.0,0,120,8.0,32.0
18411,59.0,120,120,11.0,32.0
18412,86.0,0,240,0.0,38.0
18413,71.0,0,120,8.0,32.0
18414,59.0,0,120,12.0,32.0
18415,74.0,0,240,1.0,38.0
18416,61.0,0,120,11.0,32.0
18417,61.0,0,120,12.0,32.0
18418,45.0,0,120,4.0,42.0
18419,73.0,0,120,8.0,32.0
18420,85.0,0,120,0.0,33.0
18421,57.0,120,120,4.0,42.0
18422,73.0,0,120,1.0,33.0
18423,40.0,0,192,15.0,40.0
18424,52.0,0,120,11.0,32.0
18425,52.0,0,120,12.0,32.0
18426,64.0,120,120,8.0,32.0
18427,53.0,120,120,12.0,32.0
18428,65.0,0,120,8.0,32.0
18429,53.0,0,120,11.0,32.0
18430,76.0,0,120,8.0,32.0
18431,64.0,0,120,11.0,32.0
18432,53.0,0,240,3.0,37.0
18433,64.0,120,120,12.0,32.0
18434,73.0,120,120,8.0,32.0
18435,62.0,0,120,3.0,37.0
18436,61.0,0,120,12.0,32.0
18437,61.0,0,120,11.0,32.0
18438,41.0,0,192,15.0,40.0
18439,62.0,0,120,12.0,32.0
18440,62.0,120,120,11.0,32.0
18441,74.0,0,120,8.0,32.0
18442,65.0,0,120,12.0,32.0
18443,77.0,0,120,8.0,32.0
18444,65.0,0,120,11.0,32.0
18445,65.0,0,240,2.0,46.0
18446,62.0,0,120,12.0,32.0
18447,74.0,0,120,8.0,32.0
18448,77.0,120,240,1.0,46.0
18449,62.0,120,120,11.0,32.0
18450,64.0,0,120,12.0,32.0
18451,76.0,0,120,1.0,42.0
18452,64.0,0,120,2.0,42.0
18453,64.0,0,120,11.0,32.0
18454,50.0,120,120,4.0,42.0
18455,76.0,0,120,8.0,32.0
18456,62.0,0,120,4.0,42.0
18457,43.0,0,192,15.0,40.0
18458,55.0,0,120,12.0,32.0
18459,67.0,0,120,8.0,32.0
18460,55.0,120,120,11.0,32.0
18461,67.0,0,120,11.0,32.0
18462,79.0,0,120,8.0,32.0
18463,67.0,120,120,12.0,32.0
18464,64.0,0,120,11.0,32.0
18465,64.0,0,120,12.0,32.0
18466,76.0,120,120,8.0,32.0
18467,57.0,0,240,3.0,37.0
18468,78.0,0,120,8.0,32.0
18469,66.0,0,120,3.0,37.0
18470,66.0,0,120,12.0,32.0
18471,66.0,0,120,11.0,32.0
18472,45.0,120,192,15.0,32.0
18473,57.0,0,120,11.0,32.0
18474,57.0,0,120,12.0,32.0
18475,69.0,120,120,8.0,32.0
18476,69.0,0,120,11.0,32.0
18477,69.0,120,120,12.0,32.0
18478,81.0,0,120,8.0,32.0
18479,66.0,0,120,12.0,32.0
18480,66.0,120,120,11.0,32.0
18481,81.0,0,240,1.0,46.0
18482,69.0,0,240,2.0,46.0
18483,78.0,0,120,8.0,32.0
18484,67.0,0,120,2.0,42.0
18485,50.0,0,120,4.0,34.0
18486,67.0,0,120,12.0,32.0
18487,79.0,0,120,1.0,42.0
18488,67.0,120,120,11.0,32.0
18489,79.0,0,120,8.0,32.0
18490,62.0,0,120,4.0,34.0
18491,46.0,0,192,15.0,32.0
18492,58.0,0,120,11.0,32.0
18493,58.0,0,0,12.0,42.0
18494,70.0,0,120,8.0,32.0
18495,45.0,0,48,6.0,32.0
18496,55.0,0,96,11.0,38.0
18497,45.0,60,48,6.0,32.0
18498,57.0,0,120,5.0,40.0
18499,69.0,0,120,5.0,40.0
18500,45.0,60,48,6.0,32.0
18501,45.0,60,48,6.0,32.0
18502,45.0,0,48,6.0,32.0
18503,57.0,60,90,5.0,40.0
18504,69.0,0,90,5.0,40.0
18505,45.0,60,48,6.0,32.0
18506,45.0,0,48,6.0,32.0
18507,55.0,60,64,11.0,38.0
18508,69.0,60,30,5.0,40.0
18509,57.0,0,30,5.0,40.0
18510,45.0,0,48,6.0,32.0
18511,76.0,0,120,1.0,52.0
18512,55.0,20,64,11.0,38.0
18513,45.0,0,48,6.0,32.0
18514,55.0,40,64,11.0,38.0
18515,45.0,20,48,6.0,32.0
18516,57.0,0,120,5.0,40.0
18517,69.0,0,120,5.0,40.0
18518,70.0,0,600,2.0,49.0
18519,82.0,0,600,8.0,34.0
18520,58.0,0,600,3.0,49.0
18521,82.0,40,120,1.0,52.0
18522,45.0,0,48,6.0,32.0
18523,55.0,0,64,11.0,38.0
18524,45.0,60,48,6.0,32.0
18525,81.0,0,120,8.0,30.0
18526,69.0,60,120,2.0,45.0
18527,37.0,0,480,13.0,36.0
18528,49.0,0,480,12.0,46.0
18529,57.0,0,120,3.0,45.0
18530,55.0,20,64,11.0,38.0
18531,45.0,0,48,6.0,32.0
18532,55.0,40,64,11.0,38.0
18533,45.0,20,48,6.0,32.0
18534,55.0,0,120,3.0,45.0
18535,79.0,0,120,8.0,30.0
18536,67.0,0,120,2.0,45.0
18537,55.0,0,156,12.0,39.0
18538,43.0,40,156,13.0,31.0
18539,45.0,0,48,6.0,32.0
18540,45.0,60,48,6.0,32.0
18541,76.0,0,120,8.0,27.0
18542,52.0,60,120,3.0,41.0
18543,64.0,0,120,2.0,41.0
18544,45.0,0,48,6.0,32.0
18545,49.0,0,96,11.0,38.0
18546,45.0,60,48,6.0,32.0
18547,69.0,0,120,5.0,40.0
18548,57.0,0,120,5.0,40.0
18549,45.0,60,48,6.0,32.0
18550,45.0,60,48,6.0,32.0
18551,45.0,0,48,6.0,32.0
18552,57.0,0,90,5.0,40.0
18553,69.0,60,90,5.0,40.0
18554,45.0,60,48,6.0,32.0
18555,45.0,60,48,6.0,32.0
18556,49.0,0,64,11.0,38.0
18557,69.0,60,30,5.0,40.0
18558,57.0,0,30,5.0,40.0
18559,45.0,0,48,6.0,32.0
18560,67.0,0,1440,4.0,40.0
18561,76.0,0,120,0.0,52.0
18562,49.0,20,64,11.0,38.0
18563,45.0,0,48,6.0,32.0
18564,49.0,40,64,11.0,38.0
18565,45.0,20,48,6.0,32.0
18566,82.0,0,120,0.0,52.0
18567,82.0,60,600,1.0,45.0
18568,70.0,0,600,10.0,42.0
18569,57.0,0,120,5.0,40.0
18570,69.0,40,120,5.0,40.0
18571,45.0,0,48,6.0,32.0
18572,49.0,60,64,11.0,38.0
18573,45.0,60,48,6.0,32.0
18574,43.0,0,480,12.0,36.0
18575,69.0,0,120,10.0,38.0
18576,31.0,0,480,13.0,36.0
18577,81.0,0,120,1.0,41.0
18578,49.0,20,64,11.0,38.0
18579,45.0,0,48,6.0,32.0
18580,49.0,40,64,11.0,38.0
18581,45.0,20,48,6.0,32.0
18582,67.0,0,120,10.0,38.0
18583,79.0,40,120,1.0,41.0
18584,49.0,0,156,12.0,31.0
18585,37.0,0,156,13.0,31.0
18586,45.0,0,48,6.0,32.0
18587,45.0,60,48,6.0,32.0
18588,76.0,60,120,1.0,37.0
18589,64.0,120,1920,4.0,40.0
18590,64.0,0,120,10.0,34.0
18591,50.0,0,48,6.0,32.0
18592,69.0,0,96,11.0,38.0
18593,50.0,60,48,6.0,32.0
18594,74.0,0,120,5.0,40.0
18595,62.0,0,120,5.0,40.0
18596,50.0,60,48,6.0,32.0
18597,50.0,60,48,6.0,32.0
18598,50.0,0,48,6.0,32.0
18599,74.0,60,90,5.0,40.0
18600,62.0,0,90,5.0,40.0
18601,50.0,60,48,6.0,32.0
18602,50.0,60,48,6.0,32.0
18603,69.0,0,64,11.0,38.0
18604,74.0,0,30,5.0,40.0
18605,62.0,60,30,5.0,40.0
18606,50.0,0,48,6.0,32.0
18607,57.0,0,720,4.0,40.0
18608,74.0,0,120,1.0,52.0
18609,69.0,20,64,11.0,38.0
18610,50.0,40,48,6.0,32.0
18611,69.0,40,64,11.0,38.0
18612,50.0,20,48,6.0,32.0
18613,86.0,0,120,1.0,36.0
18614,71.0,60,600,2.0,49.0
18615,83.0,0,600,8.0,42.0
18616,59.0,0,600,3.0,49.0
18617,62.0,0,120,5.0,40.0
18618,74.0,0,120,5.0,40.0
18619,50.0,0,48,6.0,32.0
18620,69.0,0,64,11.0,38.0
18621,50.0,60,48,6.0,32.0
18622,42.0,0,480,13.0,36.0
18623,69.0,0,120,2.0,45.0
18624,54.0,0,480,12.0,36.0
18625,57.0,0,120,3.0,45.0
18626,81.0,60,120,8.0,38.0
18627,69.0,20,64,11.0,38.0
18628,50.0,0,48,6.0,32.0
18629,69.0,40,64,11.0,38.0
18630,50.0,20,48,6.0,32.0
18631,78.0,40,120,8.0,38.0
18632,66.0,0,120,2.0,45.0
18633,54.0,0,120,3.0,45.0
18634,62.0,0,156,12.0,31.0
18635,50.0,0,156,13.0,31.0
18636,50.0,0,48,6.0,32.0
18637,50.0,60,48,6.0,32.0
18638,62.0,0,960,4.0,40.0
18639,50.0,0,120,3.0,41.0
18640,74.0,60,120,8.0,34.0
18641,62.0,0,120,2.0,41.0
18642,50.0,0,48,6.0,32.0
18643,50.0,0,96,11.0,38.0
18644,50.0,60,48,6.0,32.0
18645,62.0,0,120,5.0,40.0
18646,74.0,0,120,5.0,40.0
18647,50.0,60,48,6.0,32.0
18648,50.0,60,48,6.0,32.0
18649,50.0,60,48,6.0,32.0
18650,74.0,0,90,5.0,40.0
18651,62.0,0,90,5.0,40.0
18652,50.0,60,48,6.0,32.0
18653,50.0,60,48,6.0,32.0
18654,50.0,0,64,11.0,38.0
18655,62.0,60,30,5.0,40.0
18656,74.0,0,30,5.0,40.0
18657,50.0,0,48,6.0,32.0
18658,74.0,0,120,0.0,52.0
18659,54.0,0,960,4.0,40.0
18660,50.0,20,64,11.0,38.0
18661,50.0,0,48,6.0,32.0
18662,50.0,40,64,11.0,38.0
18663,50.0,20,48,6.0,32.0
18664,86.0,0,120,0.0,52.0
18665,62.0,0,120,5.0,40.0
18666,71.0,0,600,10.0,42.0
18667,74.0,0,120,5.0,40.0
18668,83.0,0,600,1.0,45.0
18669,50.0,60,48,6.0,32.0
18670,50.0,0,64,11.0,38.0
18671,50.0,60,48,6.0,32.0
18672,50.0,0,480,13.0,36.0
18673,69.0,0,120,10.0,38.0
18674,62.0,0,480,12.0,36.0
18675,81.0,0,120,1.0,41.0
18676,50.0,20,64,11.0,38.0
18677,50.0,0,48,6.0,32.0
18678,50.0,40,64,11.0,38.0
18679,50.0,20,48,6.0,32.0
18680,67.0,0,120,10.0,38.0
18681,78.0,0,120,1.0,41.0
18682,54.0,40,156,13.0,31.0
18683,66.0,0,156,12.0,31.0
18684,50.0,0,48,6.0,32.0
18685,50.0,60,48,6.0,32.0
18686,64.0,0,120,10.0,34.0
18687,74.0,60,120,1.0,37.0
18688,66.0,60,960,4.0,40.0
18689,62.0,40,480,4.0,40.0
18690,45.0,60,48,6.0,32.0
18691,55.0,0,96,11.0,38.0
18692,45.0,60,48,6.0,32.0
18693,69.0,0,120,5.0,40.0
18694,57.0,0,120,5.0,40.0
18695,45.0,60,48,6.0,32.0
18696,45.0,60,48,6.0,32.0
18697,45.0,0,48,6.0,32.0
18698,69.0,0,90,5.0,40.0
18699,57.0,0,90,5.0,40.0
18700,45.0,60,48,6.0,32.0
18701,45.0,0,48,6.0,32.0
18702,55.0,0,64,11.0,38.0
18703,57.0,0,30,5.0,40.0
18704,69.0,0,30,5.0,40.0
18705,45.0,60,48,6.0,32.0
18706,76.0,60,120,1.0,52.0
18707,55.0,20,64,11.0,38.0
18708,45.0,0,48,6.0,32.0
18709,55.0,40,64,11.0,38.0
18710,45.0,20,48,6.0,32.0
18711,82.0,0,120,1.0,52.0
18712,57.0,0,120,5.0,40.0
18713,69.0,40,120,5.0,40.0
18714,70.0,0,600,2.0,49.0
18715,58.0,0,600,3.0,49.0
18716,82.0,0,600,8.0,46.0
18717,45.0,60,48,6.0,32.0
18718,55.0,0,64,11.0,38.0
18719,45.0,60,48,6.0,32.0
18720,57.0,0,120,3.0,45.0
18721,49.0,60,480,12.0,46.0
18722,81.0,0,120,8.0,42.0
18723,69.0,0,120,2.0,45.0
18724,37.0,0,480,13.0,36.0
18725,55.0,20,64,11.0,38.0
18726,45.0,0,48,6.0,32.0
18727,55.0,40,64,11.0,38.0
18728,45.0,20,48,6.0,32.0
18729,55.0,0,120,3.0,45.0
18730,67.0,0,120,2.0,45.0
18731,79.0,0,120,8.0,42.0
18732,55.0,40,156,12.0,39.0
18733,43.0,0,156,13.0,31.0
18734,45.0,0,48,6.0,32.0
18735,45.0,60,48,6.0,32.0
18736,76.0,0,120,8.0,37.0
18737,64.0,0,120,2.0,41.0
18738,52.0,60,120,3.0,41.0
18739,45.0,0,48,6.0,32.0
18740,49.0,0,96,11.0,38.0
18741,45.0,60,48,6.0,32.0
18742,69.0,0,120,5.0,40.0
18743,57.0,0,120,5.0,40.0
18744,45.0,60,48,6.0,32.0
18745,45.0,60,48,6.0,32.0
18746,45.0,0,48,6.0,32.0
18747,57.0,60,90,5.0,40.0
18748,69.0,0,90,5.0,40.0
18749,45.0,60,48,6.0,32.0
18750,45.0,60,48,6.0,32.0
18751,49.0,0,64,11.0,38.0
18752,69.0,0,30,5.0,40.0
18753,57.0,0,30,5.0,40.0
18754,45.0,60,48,6.0,32.0
18755,67.0,0,1440,4.0,40.0
18756,76.0,0,120,0.0,52.0
18757,49.0,20,64,11.0,38.0
18758,45.0,0,48,6.0,32.0
18759,49.0,40,64,11.0,38.0
18760,45.0,20,48,6.0,32.0
18761,69.0,0,120,5.0,40.0
18762,82.0,40,120,0.0,52.0
18763,70.0,0,600,10.0,46.0
18764,82.0,60,600,1.0,45.0
18765,57.0,0,120,5.0,40.0
18766,45.0,60,48,6.0,32.0
18767,49.0,0,64,11.0,38.0
18768,45.0,60,48,6.0,32.0
18769,81.0,0,120,1.0,41.0
18770,31.0,0,480,13.0,36.0
18771,43.0,0,480,12.0,36.0
18772,69.0,0,120,10.0,42.0
18773,49.0,20,64,11.0,38.0
18774,45.0,0,48,6.0,32.0
18775,49.0,40,64,11.0,38.0
18776,45.0,20,48,6.0,32.0
18777,79.0,0,120,1.0,41.0
18778,67.0,0,120,10.0,42.0
18779,37.0,40,156,13.0,31.0
18780,49.0,0,156,12.0,31.0
18781,45.0,0,48,6.0,32.0
18782,45.0,60,48,6.0,32.0
18783,64.0,0,1920,4.0,40.0
18784,76.0,0,120,1.0,37.0
18785,64.0,60,120,10.0,37.0
18786,50.0,0,48,6.0,32.0
18787,69.0,0,96,11.0,38.0
18788,50.0,60,48,6.0,32.0
18789,74.0,0,120,5.0,40.0
18790,62.0,0,120,5.0,40.0
18791,50.0,60,48,6.0,32.0
18792,50.0,60,48,6.0,32.0
18793,50.0,0,48,6.0,32.0
18794,74.0,0,90,5.0,40.0
18795,62.0,0,90,5.0,40.0
18796,50.0,60,48,6.0,32.0
18797,50.0,60,48,6.0,32.0
18798,69.0,0,64,11.0,38.0
18799,74.0,0,30,5.0,40.0
18800,62.0,60,30,5.0,40.0
18801,50.0,0,48,6.0,32.0
18802,57.0,0,720,4.0,40.0
18803,74.0,0,120,1.0,52.0
18804,69.0,20,64,11.0,38.0
18805,50.0,40,48,6.0,32.0
18806,69.0,40,64,11.0,38.0
18807,50.0,20,48,6.0,32.0
18808,59.0,60,600,3.0,49.0
18809,74.0,0,120,5.0,40.0
18810,86.0,0,120,1.0,36.0
18811,83.0,0,600,8.0,51.0
18812,71.0,0,600,2.0,49.0
18813,62.0,0,120,5.0,40.0
18814,50.0,0,48,6.0,32.0
18815,69.0,60,64,11.0,38.0
18816,50.0,60,48,6.0,32.0
18817,42.0,0,480,13.0,36.0
18818,57.0,0,120,3.0,45.0
18819,81.0,0,120,8.0,46.0
18820,69.0,0,120,2.0,45.0
18821,54.0,60,480,12.0,36.0
18822,69.0,20,64,11.0,38.0
18823,50.0,0,48,6.0,32.0
18824,69.0,40,64,11.0,38.0
18825,50.0,20,48,6.0,32.0
18826,54.0,0,120,3.0,45.0
18827,66.0,0,120,2.0,45.0
18828,78.0,40,120,8.0,46.0
18829,50.0,0,156,13.0,31.0
18830,62.0,0,156,12.0,31.0
18831,50.0,0,48,6.0,32.0
18832,50.0,60,48,6.0,32.0
18833,74.0,60,120,8.0,41.0
18834,62.0,0,120,2.0,41.0
18835,62.0,0,960,4.0,40.0
18836,50.0,0,120,3.0,41.0
18837,50.0,0,48,6.0,32.0
18838,50.0,0,96,11.0,38.0
18839,50.0,60,48,6.0,32.0
18840,74.0,0,120,5.0,40.0
18841,62.0,60,120,5.0,40.0
18842,50.0,60,48,6.0,32.0
18843,50.0,60,48,6.0,32.0
18844,50.0,0,48,6.0,32.0
18845,62.0,60,90,5.0,40.0
18846,74.0,0,90,5.0,40.0
18847,50.0,60,48,6.0,32.0
18848,50.0,0,48,6.0,32.0
18849,50.0,0,64,11.0,38.0
18850,62.0,0,30,5.0,40.0
18851,74.0,60,30,5.0,40.0
18852,50.0,0,48,6.0,32.0
18853,54.0,0,960,4.0,40.0
18854,74.0,60,120,0.0,52.0
18855,50.0,20,64,11.0,38.0
18856,50.0,40,48,6.0,32.0
18857,50.0,40,64,11.0,38.0
18858,50.0,20,48,6.0,32.0
18859,86.0,0,120,0.0,52.0
18860,74.0,0,120,5.0,40.0
18861,71.0,0,600,10.0,42.0
18862,83.0,0,600,1.0,45.0
18863,62.0,0,120,5.0,40.0
18864,50.0,60,48,6.0,32.0
18865,50.0,0,64,11.0,38.0
18866,50.0,60,48,6.0,32.0
18867,81.0,0,120,1.0,41.0
18868,50.0,0,480,13.0,36.0
18869,69.0,0,120,10.0,38.0
18870,62.0,0,480,12.0,36.0
18871,50.0,20,64,11.0,38.0
18872,50.0,40,48,6.0,32.0
18873,50.0,40,64,11.0,38.0
18874,50.0,20,48,6.0,32.0
18875,67.0,0,120,10.0,38.0
18876,78.0,0,120,1.0,41.0
18877,54.0,0,156,13.0,31.0
18878,66.0,0,156,12.0,31.0
18879,50.0,60,48,6.0,32.0
18880,50.0,60,48,6.0,32.0
18881,64.0,0,120,10.0,34.0
18882,74.0,0,120,1.0,37.0
18883,66.0,0,960,4.0,40.0
18884,62.0,0,480,4.0,40.0
18885,45.0,0,48,6.0,30.0
18886,55.0,20,0,11.0,64.0
18887,45.0,60,48,6.0,31.0
18888,69.0,0,120,5.0,40.0
18889,57.0,0,120,5.0,40.0
18890,82.0,0,120,8.0,62.0
18891,70.0,60,120,2.0,78.0
18892,45.0,0,48,6.0,32.0
18893,45.0,20,48,6.0,32.0
18894,81.0,0,120,8.0,57.0
18895,55.0,40,80,11.0,64.0
18896,76.0,40,120,1.0,53.0
18897,69.0,0,120,2.0,71.0
18898,45.0,0,48,6.0,33.0
18899,55.0,20,0,11.0,64.0
18900,69.0,0,90,5.0,40.0
18901,57.0,0,90,5.0,40.0
18902,45.0,60,48,6.0,34.0
18903,25.0,0,114,13.0,51.0
18904,37.0,0,114,12.0,51.0
18905,82.0,0,120,1.0,53.0
18906,79.0,60,120,8.0,57.0
18907,67.0,0,120,2.0,71.0
18908,55.0,40,0,11.0,64.0
18909,45.0,0,48,6.0,35.0
18910,57.0,0,30,5.0,40.0
18911,69.0,20,30,5.0,40.0
18912,45.0,0,48,6.0,35.0
18913,43.0,0,114,12.0,51.0
18914,31.0,40,114,13.0,51.0
18915,64.0,0,120,2.0,63.0
18916,76.0,0,120,8.0,51.0
18917,45.0,0,48,6.0,36.0
18918,49.0,0,80,11.0,64.0
18919,45.0,60,48,6.0,37.0
18920,58.0,0,120,3.0,78.0
18921,57.0,60,120,5.0,40.0
18922,69.0,0,120,5.0,40.0
18923,70.0,0,120,10.0,87.0
18924,49.0,40,0,11.0,64.0
18925,45.0,40,48,6.0,38.0
18926,45.0,20,48,6.0,39.0
18927,76.0,0,120,0.0,69.0
18928,67.0,0,720,4.0,40.0
18929,69.0,0,120,10.0,79.0
18930,49.0,0,0,11.0,64.0
18931,57.0,0,120,3.0,71.0
18932,45.0,0,48,6.0,39.0
18933,49.0,20,0,11.0,64.0
18934,45.0,60,48,6.0,40.0
18935,43.0,0,114,12.0,51.0
18936,31.0,60,114,13.0,51.0
18937,67.0,0,120,10.0,79.0
18938,82.0,0,120,0.0,69.0
18939,55.0,0,120,3.0,71.0
18940,45.0,0,48,6.0,41.0
18941,45.0,20,48,6.0,42.0
18942,37.0,0,114,13.0,51.0
18943,49.0,40,114,12.0,51.0
18944,64.0,0,720,4.0,40.0
18945,52.0,0,120,3.0,63.0
18946,64.0,0,120,10.0,70.0
18947,49.0,40,80,11.0,64.0
18948,50.0,0,48,6.0,43.0
18949,69.0,0,64,11.0,64.0
18950,50.0,60,48,6.0,43.0
18951,74.0,0,120,5.0,40.0
18952,71.0,0,120,2.0,90.0
18953,62.0,0,120,5.0,40.0
18954,83.0,60,120,8.0,70.0
18955,69.0,20,64,11.0,64.0
18956,50.0,0,48,6.0,44.0
18957,69.0,40,64,11.0,64.0
18958,50.0,20,48,6.0,45.0
18959,81.0,0,120,8.0,66.0
18960,69.0,0,120,2.0,83.0
18961,74.0,40,120,1.0,61.0
18962,50.0,0,48,6.0,46.0
18963,69.0,0,64,11.0,64.0
18964,62.0,0,90,5.0,40.0
18965,74.0,0,90,5.0,40.0
18966,50.0,60,48,6.0,46.0
18967,42.0,60,114,13.0,64.0
18968,54.0,0,114,12.0,64.0
18969,86.0,0,120,1.0,61.0
18970,78.0,0,120,8.0,66.0
18971,66.0,0,120,2.0,83.0
18972,69.0,20,64,11.0,64.0
18973,50.0,0,48,6.0,47.0
18974,62.0,0,30,5.0,40.0
18975,74.0,20,30,5.0,40.0
18976,69.0,40,64,11.0,64.0
18977,50.0,0,48,6.0,48.0
18978,62.0,0,114,12.0,64.0
18979,50.0,40,114,13.0,64.0
18980,62.0,0,120,2.0,73.0
18981,57.0,0,720,4.0,40.0
18982,74.0,0,120,8.0,58.0
18983,50.0,0,48,6.0,49.0
18984,50.0,60,64,11.0,64.0
18985,50.0,60,48,6.0,50.0
18986,74.0,0,120,5.0,40.0
18987,59.0,0,120,3.0,90.0
18988,62.0,0,120,5.0,40.0
18989,71.0,0,120,10.0,101.0
18990,50.0,20,64,11.0,64.0
18991,50.0,0,48,6.0,50.0
18992,50.0,40,64,11.0,64.0
18993,50.0,20,48,6.0,51.0
18994,74.0,0,120,0.0,79.0
18995,57.0,40,120,3.0,83.0
18996,69.0,0,120,10.0,93.0
18997,50.0,0,48,6.0,52.0
18998,50.0,0,64,11.0,64.0
18999,50.0,60,48,6.0,53.0
19000,62.0,0,114,12.0,64.0
19001,50.0,0,114,13.0,64.0
19002,66.0,60,120,10.0,93.0
19003,86.0,0,120,0.0,79.0
19004,54.0,0,120,3.0,83.0
19005,50.0,20,64,11.0,64.0
19006,50.0,0,48,6.0,53.0
19007,50.0,40,64,11.0,64.0
19008,50.0,20,48,6.0,54.0
19009,66.0,0,114,12.0,64.0
19010,54.0,0,114,13.0,64.0
19011,66.0,0,960,4.0,40.0
19012,62.0,0,120,10.0,82.0
19013,50.0,40,120,3.0,73.0
19014,62.0,0,480,4.0,40.0
19015,45.0,0,48,6.0,55.0
19016,49.0,20,0,11.0,80.0
19017,45.0,60,48,6.0,56.0
19018,70.0,0,120,2.0,98.0
19019,70.0,0,120,10.0,78.0
19020,57.0,0,120,5.0,40.0
19021,69.0,0,120,5.0,40.0
19022,82.0,0,120,8.0,78.0
19023,49.0,40,0,11.0,80.0
19024,45.0,0,48,6.0,57.0
19025,45.0,20,48,6.0,57.0
19026,69.0,40,120,2.0,89.0
19027,76.0,0,120,1.0,66.0
19028,69.0,0,120,10.0,71.0
19029,49.0,0,0,11.0,80.0
19030,81.0,0,120,8.0,71.0
19031,45.0,0,48,6.0,58.0
19032,69.0,0,90,5.0,40.0
19033,57.0,0,90,5.0,40.0
19034,45.0,60,48,6.0,59.0
19035,25.0,60,114,13.0,64.0
19036,37.0,0,114,12.0,64.0
19037,79.0,0,120,8.0,71.0
19038,67.0,0,120,2.0,89.0
19039,67.0,0,120,10.0,71.0
19040,82.0,0,120,1.0,66.0
19041,49.0,40,0,11.0,80.0
19042,45.0,0,48,6.0,60.0
19043,57.0,0,30,5.0,40.0
19044,69.0,0,30,5.0,40.0
19045,45.0,20,48,6.0,60.0
19046,31.0,40,114,13.0,64.0
19047,43.0,0,114,12.0,64.0
19048,64.0,0,120,10.0,64.0
19049,76.0,0,120,8.0,64.0
19050,64.0,0,120,2.0,79.0
19051,45.0,0,48,6.0,61.0
19052,55.0,0,80,11.0,80.0
19053,45.0,60,48,6.0,62.0
19054,70.0,0,120,10.0,78.0
19055,82.0,0,120,8.0,78.0
19056,69.0,0,120,5.0,40.0
19057,57.0,0,120,5.0,40.0
19058,58.0,60,120,3.0,98.0
19059,55.0,20,80,11.0,80.0
19060,45.0,0,48,6.0,63.0
19061,45.0,20,48,6.0,64.0
19062,69.0,0,120,10.0,71.0
19063,67.0,0,720,4.0,70.0
19064,57.0,0,120,3.0,89.0
19065,81.0,40,120,8.0,71.0
19066,76.0,0,120,0.0,86.0
19067,55.0,0,0,11.0,80.0
19068,45.0,0,48,6.0,64.0
19069,55.0,20,0,11.0,80.0
19070,45.0,60,48,6.0,65.0
19071,31.0,0,114,13.0,64.0
19072,43.0,0,114,12.0,64.0
19073,55.0,60,120,3.0,89.0
19074,67.0,0,120,10.0,71.0
19075,79.0,0,120,8.0,71.0
19076,82.0,0,120,0.0,86.0
19077,45.0,0,48,6.0,66.0
19078,45.0,20,48,6.0,67.0
19079,49.0,40,114,12.0,64.0
19080,37.0,0,114,13.0,64.0
19081,64.0,0,120,10.0,64.0
19082,52.0,0,120,3.0,79.0
19083,64.0,0,720,4.0,70.0
19084,55.0,40,80,11.0,80.0
19085,76.0,0,120,8.0,64.0
19086,50.0,0,48,6.0,68.0
19087,53.0,60,64,11.0,100.0
19088,50.0,60,48,6.0,68.0
19089,74.0,0,120,5.0,32.0
19090,70.0,0,120,10.0,78.0
19091,70.0,0,120,2.0,127.0
19092,82.0,0,120,8.0,78.0
19093,62.0,0,120,5.0,32.0
19094,53.0,20,64,11.0,100.0
19095,50.0,0,48,6.0,69.0
19096,53.0,40,64,11.0,100.0
19097,50.0,20,48,6.0,70.0
19098,74.0,0,120,1.0,95.0
19099,81.0,0,120,8.0,71.0
19100,69.0,0,120,10.0,71.0
19101,69.0,40,120,2.0,127.0
19102,50.0,0,48,6.0,71.0
19103,53.0,60,64,11.0,100.0
19104,62.0,0,90,5.0,32.0
19105,74.0,0,90,5.0,32.0
19106,50.0,60,48,6.0,71.0
19107,53.0,0,114,12.0,100.0
19108,41.0,0,114,13.0,100.0
19109,77.0,0,120,8.0,71.0
19110,86.0,0,120,1.0,95.0
19111,65.0,0,120,10.0,71.0
19112,65.0,0,120,2.0,127.0
19113,53.0,20,64,11.0,100.0
19114,50.0,0,48,6.0,72.0
19115,62.0,20,30,5.0,32.0
19116,74.0,0,30,5.0,32.0
19117,53.0,40,64,11.0,100.0
19118,50.0,0,48,6.0,73.0
19119,50.0,0,114,13.0,100.0
19120,62.0,0,114,12.0,100.0
19121,62.0,40,120,10.0,64.0
19122,74.0,0,120,8.0,64.0
19123,62.0,0,120,2.0,114.0
19124,57.0,0,720,4.0,70.0
19125,50.0,0,48,6.0,74.0
19126,62.0,0,64,11.0,100.0
19127,50.0,60,48,6.0,75.0
19128,62.0,0,120,5.0,32.0
19129,82.0,0,120,8.0,78.0
19130,74.0,0,120,5.0,32.0
19131,70.0,60,120,10.0,78.0
19132,58.0,0,120,3.0,127.0
19133,62.0,20,64,11.0,100.0
19134,50.0,0,48,6.0,75.0
19135,62.0,40,64,11.0,100.0
19136,50.0,20,48,6.0,76.0
19137,57.0,0,120,3.0,127.0
19138,81.0,40,120,8.0,71.0
19139,74.0,0,120,0.0,124.0
19140,69.0,0,120,10.0,71.0
19141,50.0,0,48,6.0,77.0
19142,62.0,0,64,11.0,100.0
19143,50.0,60,48,6.0,78.0
19144,62.0,60,114,12.0,100.0
19145,50.0,0,114,13.0,100.0
19146,86.0,0,120,0.0,124.0
19147,77.0,0,120,8.0,71.0
19148,65.0,0,120,10.0,71.0
19149,53.0,0,120,3.0,127.0
19150,65.0,20,64,11.0,100.0
19151,50.0,0,48,6.0,78.0
19152,65.0,40,64,11.0,100.0
19153,50.0,20,48,6.0,79.0
19154,65.0,0,114,12.0,100.0
19155,53.0,0,114,13.0,100.0
19156,65.0,0,960,4.0,88.0
19157,62.0,0,120,10.0,64.0
19158,62.0,0,480,4.0,88.0
19159,74.0,0,120,8.0,64.0
19160,50.0,40,120,3.0,91.0
19161,45.0,0,48,6.0,72.0
19162,69.0,0,96,4.0,56.0
19163,64.0,0,96,4.0,56.0
19164,57.0,0,96,4.0,56.0
19165,76.0,0,96,2.0,80.0
19166,73.0,0,96,2.0,80.0
19167,45.0,60,48,6.0,72.0
19168,55.0,0,120,11.0,84.0
19169,61.0,0,120,10.0,56.0
19170,57.0,0,120,12.0,111.0
19171,33.0,60,120,13.0,74.0
19172,82.0,0,120,8.0,108.0
19173,82.0,0,120,1.0,56.0
19174,45.0,0,120,3.0,56.0
19175,45.0,60,48,6.0,72.0
19176,69.0,0,192,5.0,80.0
19177,57.0,0,192,5.0,80.0
19178,45.0,60,48,6.0,72.0
19179,43.0,0,120,13.0,74.0
19180,55.0,0,120,3.0,52.0
19181,81.0,0,120,1.0,52.0
19182,52.0,0,120,11.0,78.0
19183,67.0,0,120,12.0,111.0
19184,64.0,0,120,10.0,52.0
19185,81.0,0,120,8.0,102.0
19186,45.0,0,48,6.0,72.0
19187,76.0,0,192,2.0,80.0
19188,73.0,0,192,2.0,80.0
19189,64.0,0,216,4.0,56.0
19190,69.0,0,216,4.0,56.0
19191,57.0,0,216,4.0,56.0
19192,45.0,60,48,6.0,72.0
19193,94.0,0,114,0.0,56.0
19194,85.0,60,120,8.0,102.0
19195,61.0,0,120,10.0,52.0
19196,33.0,0,120,13.0,74.0
19197,57.0,0,120,12.0,111.0
19198,45.0,0,120,3.0,52.0
19199,55.0,0,120,11.0,78.0
19200,57.0,0,144,5.0,80.0
19201,69.0,0,144,5.0,80.0
19202,45.0,60,48,6.0,72.0
19203,45.0,0,48,6.0,72.0
19204,57.0,0,48,5.0,80.0
19205,69.0,60,48,5.0,80.0
19206,85.0,0,240,1.0,52.0
19207,43.0,0,120,13.0,74.0
19208,67.0,0,120,12.0,111.0
19209,55.0,0,120,3.0,46.0
19210,64.0,0,120,10.0,46.0
19211,52.0,0,120,11.0,69.0
19212,81.0,0,120,8.0,90.0
19213,45.0,0,48,6.0,72.0
19214,76.0,0,192,2.0,80.0
19215,73.0,0,192,2.0,80.0
19216,69.0,0,216,4.0,56.0
19217,64.0,0,216,4.0,56.0
19218,57.0,0,216,4.0,56.0
19219,45.0,60,48,6.0,72.0
19220,93.0,0,234,0.0,52.0
19221,61.0,0,120,10.0,56.0
19222,45.0,0,120,3.0,56.0
19223,57.0,0,120,12.0,111.0
19224,55.0,0,120,11.0,84.0
19225,33.0,60,120,13.0,74.0
19226,88.0,0,120,8.0,108.0
19227,45.0,0,48,6.0,72.0
19228,57.0,0,192,5.0,80.0
19229,69.0,0,192,5.0,80.0
19230,45.0,60,48,6.0,72.0
19231,67.0,0,120,12.0,111.0
19232,64.0,0,120,4.0,56.0
19233,57.0,0,120,4.0,56.0
19234,52.0,0,120,11.0,78.0
19235,81.0,0,120,8.0,102.0
19236,43.0,0,120,13.0,74.0
19237,64.0,0,120,10.0,52.0
19238,55.0,0,120,3.0,52.0
19239,69.0,0,0,4.0,56.0
19240,45.0,0,48,6.0,72.0
19241,73.0,0,192,2.0,80.0
19242,76.0,0,192,2.0,80.0
19243,65.0,0,96,4.0,56.0
19244,57.0,0,96,4.0,56.0
19245,45.0,60,48,6.0,72.0
19246,93.0,0,234,0.0,56.0
19247,88.0,0,120,8.0,102.0
19248,45.0,0,120,3.0,52.0
19249,55.0,0,120,11.0,78.0
19250,88.0,0,360,1.0,56.0
19251,61.0,0,120,10.0,52.0
19252,33.0,0,120,13.0,74.0
19253,57.0,0,120,12.0,111.0
19254,69.0,60,144,5.0,80.0
19255,57.0,0,144,5.0,80.0
19256,45.0,0,48,6.0,72.0
19257,57.0,0,96,4.0,56.0
19258,74.0,0,96,2.0,80.0
19259,65.0,0,96,4.0,56.0
19260,69.0,0,96,4.0,56.0
19261,45.0,0,48,6.0,72.0
19262,57.0,60,48,5.0,80.0
19263,69.0,0,48,5.0,80.0
19264,93.0,0,114,0.0,52.0
19265,86.0,60,120,8.0,90.0
19266,41.0,0,120,13.0,74.0
19267,53.0,0,120,11.0,69.0
19268,62.0,0,120,10.0,46.0
19269,65.0,0,120,12.0,111.0
19270,53.0,0,120,3.0,46.0
19271,86.0,0,120,1.0,46.0
19272,45.0,0,48,6.0,72.0
19273,69.0,0,96,4.0,56.0
19274,64.0,0,96,4.0,56.0
19275,57.0,0,96,4.0,56.0
19276,73.0,0,96,1.0,80.0
19277,76.0,0,96,1.0,80.0
19278,45.0,60,48,6.0,72.0
19279,33.0,0,120,13.0,74.0
19280,57.0,0,120,12.0,111.0
19281,61.0,0,120,10.0,56.0
19282,55.0,0,120,11.0,84.0
19283,45.0,0,120,3.0,56.0
19284,82.0,0,120,8.0,108.0
19285,45.0,0,48,6.0,72.0
19286,69.0,0,192,5.0,80.0
19287,57.0,0,192,5.0,80.0
19288,45.0,60,48,6.0,72.0
19289,81.0,0,120,8.0,102.0
19290,64.0,0,120,10.0,52.0
19291,67.0,0,120,12.0,111.0
19292,55.0,0,120,3.0,52.0
19293,52.0,0,120,11.0,78.0
19294,43.0,0,120,13.0,74.0
19295,45.0,0,48,6.0,72.0
19296,76.0,0,192,1.0,80.0
19297,73.0,60,192,1.0,80.0
19298,57.0,0,216,4.0,56.0
19299,64.0,0,216,4.0,56.0
19300,69.0,0,216,4.0,56.0
19301,45.0,60,48,6.0,72.0
19302,82.0,0,114,2.0,56.0
19303,94.0,0,114,0.0,56.0
19304,33.0,0,120,13.0,74.0
19305,61.0,0,120,10.0,52.0
19306,85.0,0,120,8.0,102.0
19307,45.0,0,120,3.0,52.0
19308,57.0,60,120,12.0,111.0
19309,55.0,0,120,11.0,78.0
19310,57.0,0,144,5.0,80.0
19311,69.0,0,144,5.0,80.0
19312,45.0,0,48,6.0,72.0
19313,45.0,60,48,6.0,72.0
19314,69.0,0,48,5.0,80.0
19315,57.0,0,48,5.0,80.0
19316,64.0,0,120,12.0,111.0
19317,64.0,0,120,10.0,46.0
19318,55.0,60,120,3.0,46.0
19319,81.0,0,120,8.0,90.0
19320,40.0,0,120,13.0,74.0
19321,52.0,0,120,11.0,69.0
19322,45.0,0,48,6.0,72.0
19323,73.0,0,192,1.0,80.0
19324,76.0,0,192,1.0,80.0
19325,57.0,0,216,4.0,56.0
19326,69.0,0,216,4.0,56.0
19327,64.0,0,216,4.0,56.0
19328,45.0,60,48,6.0,72.0
19329,81.0,0,234,2.0,52.0
19330,93.0,0,234,0.0,52.0
19331,61.0,0,120,10.0,56.0
19332,57.0,0,120,12.0,111.0
19333,55.0,0,120,11.0,84.0
19334,33.0,60,120,13.0,74.0
19335,45.0,0,120,3.0,56.0
19336,88.0,0,120,8.0,108.0
19337,45.0,0,48,6.0,72.0
19338,57.0,0,192,5.0,80.0
19339,69.0,0,192,5.0,80.0
19340,45.0,60,48,6.0,72.0
19341,55.0,0,120,3.0,52.0
19342,64.0,0,120,4.0,56.0
19343,69.0,0,120,4.0,56.0
19344,64.0,0,120,10.0,52.0
19345,81.0,0,120,8.0,102.0
19346,57.0,0,120,4.0,56.0
19347,52.0,0,120,11.0,78.0
19348,37.0,0,120,13.0,74.0
19349,61.0,0,120,12.0,111.0
19350,45.0,0,48,6.0,72.0
19351,73.0,60,192,1.0,80.0
19352,76.0,0,192,1.0,80.0
19353,65.0,0,96,4.0,56.0
19354,57.0,0,96,4.0,56.0
19355,69.0,0,96,4.0,56.0
19356,45.0,60,48,6.0,72.0
19357,93.0,0,234,0.0,56.0
19358,81.0,0,234,2.0,56.0
19359,57.0,0,120,12.0,111.0
19360,33.0,0,120,13.0,74.0
19361,61.0,60,120,10.0,52.0
19362,55.0,0,120,11.0,78.0
19363,45.0,0,120,3.0,52.0
19364,88.0,0,120,8.0,102.0
19365,57.0,0,144,5.0,80.0
19366,69.0,0,144,5.0,80.0
19367,45.0,60,48,6.0,72.0
19368,65.0,0,96,4.0,56.0
19369,57.0,0,96,4.0,56.0
19370,74.0,0,96,1.0,80.0
19371,69.0,0,96,4.0,56.0
19372,57.0,0,48,5.0,80.0
19373,69.0,0,48,5.0,80.0
19374,45.0,60,48,6.0,72.0
19375,81.0,0,114,2.0,52.0
19376,93.0,0,114,0.0,52.0
19377,53.0,0,120,11.0,69.0
19378,38.0,0,0,13.0,88.0
19379,62.0,0,120,10.0,46.0
19380,86.0,0,120,8.0,90.0
19381,62.0,0,120,12.0,111.0
19382,53.0,0,120,3.0,46.0
19383,65.0,0,48,11.0,104.0
19384,45.0,0,58,6.0,80.0
19385,79.0,0,58,8.0,127.0
19386,50.0,0,96,3.0,88.0
19387,50.0,0,96,12.0,88.0
19388,65.0,0,48,11.0,104.0
19389,45.0,0,48,6.0,80.0
19390,81.0,60,58,8.0,127.0
19391,67.0,0,120,10.0,127.0
19392,69.0,0,144,5.0,80.0
19393,57.0,0,144,5.0,80.0
19394,45.0,0,48,6.0,80.0
19395,67.0,0,48,11.0,104.0
19396,79.0,0,58,8.0,127.0
19397,79.0,0,192,0.0,80.0
19398,79.0,0,192,1.0,68.0
19399,69.0,0,192,4.0,104.0
19400,69.0,60,192,2.0,80.0
19401,81.0,0,192,2.0,80.0
19402,91.0,0,192,0.0,68.0
19403,69.0,0,192,1.0,80.0
19404,57.0,12,1,4.0,64.0
19405,69.0,0,1,4.0,64.0
19406,40.0,0,96,13.0,88.0
19407,52.0,0,96,12.0,88.0
19408,52.0,60,96,3.0,88.0
19409,45.0,0,48,6.0,80.0
19410,67.0,0,48,11.0,104.0
19411,69.0,0,48,5.0,80.0
19412,57.0,0,48,5.0,80.0
19413,77.0,60,58,8.0,127.0
19414,52.0,0,48,11.0,104.0
19415,55.0,0,48,11.0,104.0
19416,76.0,0,48,8.0,127.0
19417,77.0,0,48,8.0,127.0
19418,52.0,60,48,11.0,104.0
19419,55.0,0,48,11.0,104.0
19420,55.0,60,48,11.0,104.0
19421,52.0,0,48,11.0,104.0
19422,76.0,0,48,8.0,127.0
19423,45.0,0,192,6.0,80.0
19424,57.0,0,192,5.0,80.0
19425,69.0,0,192,5.0,80.0
19426,52.0,0,48,11.0,104.0
19427,74.0,60,48,8.0,127.0
19428,55.0,0,48,11.0,104.0
19429,55.0,0,48,11.0,104.0
19430,73.0,60,48,8.0,127.0
19431,52.0,0,48,11.0,104.0
19432,52.0,60,48,11.0,104.0
19433,74.0,0,48,8.0,127.0
19434,55.0,0,48,11.0,104.0
19435,55.0,0,384,13.0,88.0
19436,69.0,0,384,2.0,64.0
19437,45.0,0,384,4.0,83.0
19438,67.0,0,384,3.0,70.0
19439,76.0,0,384,0.0,64.0
19440,64.0,0,384,0.0,64.0
19441,57.0,48,384,4.0,83.0
19442,67.0,0,384,12.0,88.0
19443,52.0,0,48,11.0,104.0
19444,76.0,0,48,8.0,127.0
19445,55.0,60,48,11.0,104.0
19446,64.0,0,450,1.0,64.0
19447,77.0,60,48,8.0,127.0
19448,55.0,0,48,11.0,104.0
19449,52.0,0,48,11.0,104.0
19450,67.0,0,48,11.0,104.0
19451,79.0,0,48,8.0,127.0
19452,67.0,60,48,11.0,104.0
19453,81.0,0,48,8.0,127.0
19454,67.0,60,48,11.0,104.0
19455,83.0,0,48,8.0,127.0
19456,91.0,0,192,0.0,64.0
19457,79.0,0,192,0.0,64.0
19458,45.0,60,192,6.0,80.0
19459,69.0,0,192,5.0,80.0
19460,57.0,0,192,5.0,80.0
19461,67.0,60,48,11.0,104.0
19462,85.0,0,48,8.0,127.0
19463,45.0,0,48,6.0,80.0
19464,67.0,0,48,11.0,104.0
19465,69.0,0,58,10.0,127.0
19466,81.0,0,58,0.0,127.0
19467,52.0,0,336,12.0,88.0
19468,52.0,0,336,3.0,70.0
19469,86.0,0,96,8.0,127.0
19470,40.0,0,336,13.0,88.0
19471,67.0,60,48,11.0,104.0
19472,45.0,0,48,6.0,80.0
19473,79.0,0,354,1.0,64.0
19474,70.0,0,58,10.0,127.0
19475,82.0,0,58,0.0,127.0
19476,57.0,60,144,5.0,80.0
19477,69.0,0,144,5.0,80.0
19478,45.0,0,48,6.0,80.0
19479,69.0,0,48,11.0,104.0
19480,69.0,0,58,10.0,127.0
19481,81.0,0,58,0.0,127.0
19482,81.0,0,432,2.0,64.0
19483,69.0,0,432,4.0,83.0
19484,57.0,0,432,4.0,83.0
19485,69.0,0,432,2.0,64.0
19486,81.0,0,96,1.0,80.0
19487,53.0,0,96,3.0,70.0
19488,41.0,60,96,13.0,88.0
19489,53.0,0,96,12.0,88.0
19490,69.0,0,48,5.0,80.0
19491,45.0,0,48,6.0,80.0
19492,69.0,60,48,11.0,104.0
19493,57.0,0,48,5.0,80.0
19494,67.0,0,58,10.0,127.0
19495,79.0,0,58,0.0,127.0
19496,65.0,60,48,10.0,127.0
19497,77.0,0,48,0.0,127.0
19498,53.0,0,48,11.0,104.0
19499,57.0,0,48,11.0,104.0
19500,57.0,60,48,11.0,104.0
19501,53.0,0,48,11.0,104.0
19502,67.0,0,48,10.0,127.0
19503,79.0,0,48,0.0,127.0
19504,53.0,0,48,11.0,104.0
19505,57.0,0,48,11.0,104.0
19506,77.0,0,48,0.0,127.0
19507,65.0,60,48,10.0,127.0
19508,50.0,0,192,6.0,80.0
19509,74.0,0,192,5.0,80.0
19510,62.0,0,192,5.0,80.0
19511,57.0,0,48,11.0,104.0
19512,53.0,60,48,11.0,104.0
19513,76.0,0,48,0.0,127.0
19514,64.0,0,48,10.0,127.0
19515,57.0,0,48,11.0,104.0
19516,53.0,0,48,11.0,104.0
19517,62.0,60,48,10.0,127.0
19518,74.0,0,48,0.0,127.0
19519,53.0,0,48,11.0,104.0
19520,57.0,60,48,11.0,104.0
19521,76.0,0,48,0.0,127.0
19522,64.0,0,48,10.0,127.0
19523,62.0,0,384,2.0,64.0
19524,57.0,0,384,13.0,88.0
19525,69.0,0,384,3.0,70.0
19526,74.0,0,384,2.0,64.0
19527,45.0,0,384,4.0,83.0
19528,57.0,0,384,4.0,83.0
19529,69.0,0,384,12.0,88.0
19530,77.0,0,48,0.0,127.0
19531,65.0,0,48,10.0,127.0
19532,57.0,60,48,11.0,104.0
19533,53.0,0,48,11.0,104.0
19534,65.0,0,450,1.0,64.0
19535,57.0,60,48,11.0,104.0
19536,53.0,0,48,11.0,104.0
19537,79.0,0,48,0.0,127.0
19538,67.0,0,48,10.0,127.0
19539,81.0,0,48,0.0,127.0
19540,69.0,0,48,10.0,127.0
19541,69.0,0,48,11.0,104.0
19542,69.0,0,576,4.0,83.0
19543,69.0,0,48,11.0,104.0
19544,70.0,0,48,10.0,127.0
19545,82.0,60,48,0.0,127.0
19546,69.0,60,48,11.0,104.0
19547,72.0,0,48,10.0,127.0
19548,84.0,0,48,0.0,127.0
19549,74.0,0,48,10.0,127.0
19550,86.0,0,48,0.0,127.0
19551,69.0,60,48,11.0,104.0
19552,50.0,0,48,6.0,80.0
19553,69.0,0,48,11.0,104.0
19554,82.0,0,58,8.0,127.0
19555,29.0,0,336,13.0,88.0
19556,53.0,0,336,3.0,70.0
19557,81.0,0,336,1.0,64.0
19558,41.0,0,336,12.0,88.0
19559,69.0,60,48,11.0,104.0
19560,50.0,0,48,6.0,80.0
19561,84.0,0,58,8.0,127.0
19562,88.0,0,120,0.0,64.0
19563,76.0,0,120,10.0,127.0
19564,74.0,60,144,5.0,80.0
19565,62.0,0,144,5.0,80.0
19566,70.0,0,48,11.0,104.0
19567,50.0,0,48,6.0,80.0
19568,82.0,0,58,8.0,127.0
19569,50.0,0,432,4.0,83.0
19570,62.0,60,432,4.0,83.0
19571,74.0,0,432,2.0,64.0
19572,86.0,0,432,2.0,64.0
19573,70.0,0,192,4.0,83.0
19574,82.0,60,96,1.0,64.0
19575,31.0,0,96,13.0,88.0
19576,43.0,0,96,12.0,88.0
19577,55.0,0,96,3.0,70.0
19578,62.0,0,48,5.0,80.0
19579,74.0,0,48,5.0,80.0
19580,50.0,0,48,6.0,80.0
19581,70.0,60,48,11.0,104.0
19582,81.0,0,58,8.0,127.0
19583,55.0,0,48,11.0,104.0
19584,79.0,0,48,8.0,127.0
19585,55.0,60,48,11.0,104.0
19586,81.0,0,48,8.0,127.0
19587,55.0,0,48,11.0,104.0
19588,79.0,60,48,8.0,127.0
19589,50.0,0,192,6.0,80.0
19590,62.0,0,192,5.0,80.0
19591,74.0,0,192,5.0,80.0
19592,55.0,60,48,11.0,104.0
19593,77.0,0,48,8.0,127.0
19594,76.0,0,48,8.0,127.0
19595,55.0,60,48,11.0,104.0
19596,55.0,60,48,11.0,104.0
19597,77.0,0,48,8.0,127.0
19598,76.0,0,384,0.0,64.0
19599,62.0,0,384,2.0,64.0
19600,71.0,0,384,3.0,70.0
19601,58.0,0,384,12.0,88.0
19602,46.0,0,384,13.0,88.0
19603,74.0,0,384,2.0,64.0
19604,55.0,60,48,11.0,104.0
19605,79.0,0,48,8.0,127.0
19606,67.0,0,432,1.0,64.0
19607,50.0,60,450,4.0,83.0
19608,55.0,60,48,11.0,104.0
19609,81.0,0,48,8.0,127.0
19610,82.0,0,48,8.0,127.0
19611,70.0,0,48,11.0,104.0
19612,84.0,0,48,8.0,127.0
19613,70.0,60,48,11.0,104.0
19614,86.0,0,48,8.0,127.0
19615,70.0,60,48,11.0,104.0
19616,50.0,0,192,6.0,80.0
19617,88.0,0,192,0.0,64.0
19618,62.0,0,192,5.0,80.0
19619,74.0,0,192,5.0,80.0
19620,88.0,0,48,8.0,127.0
19621,70.0,60,48,11.0,104.0
19622,70.0,0,48,11.0,104.0
19623,50.0,0,48,6.0,80.0
19624,72.0,0,58,10.0,127.0
19625,84.0,0,58,0.0,127.0
19626,55.0,0,336,3.0,70.0
19627,31.0,0,336,13.0,88.0
19628,90.0,0,96,8.0,127.0
19629,70.0,0,816,4.0,83.0
19630,76.0,0,336,1.0,64.0
19631,88.0,0,336,1.0,64.0
19632,43.0,60,336,12.0,88.0
19633,70.0,0,48,11.0,104.0
19634,50.0,0,48,6.0,80.0
19635,74.0,60,58,10.0,127.0
19636,86.0,0,58,0.0,127.0
19637,74.0,0,144,5.0,80.0
19638,62.0,60,144,5.0,80.0
19639,72.0,60,48,11.0,104.0
19640,50.0,0,48,6.0,80.0
19641,72.0,0,58,10.0,127.0
19642,84.0,0,58,0.0,127.0
19643,86.0,0,432,2.0,64.0
19644,74.0,0,432,2.0,64.0
19645,62.0,0,432,4.0,83.0
19646,50.0,0,432,4.0,83.0
19647,89.0,0,96,1.0,64.0
19648,69.0,0,96,4.0,83.0
19649,45.0,0,96,12.0,88.0
19650,57.0,0,96,3.0,70.0
19651,77.0,0,96,1.0,64.0
19652,33.0,0,96,13.0,88.0
19653,72.0,0,48,11.0,104.0
19654,62.0,0,48,5.0,80.0
19655,50.0,60,48,6.0,80.0
19656,74.0,0,48,5.0,80.0
19657,82.0,0,58,0.0,127.0
19658,70.0,0,58,10.0,127.0
19659,81.0,60,48,0.0,127.0
19660,69.0,0,48,10.0,127.0
19661,57.0,0,48,11.0,104.0
19662,82.0,60,48,0.0,127.0
19663,57.0,0,48,11.0,104.0
19664,70.0,0,48,10.0,127.0
19665,57.0,0,48,11.0,104.0
19666,69.0,0,48,10.0,127.0
19667,81.0,60,48,0.0,127.0
19668,74.0,0,192,5.0,80.0
19669,62.0,0,192,5.0,80.0
19670,50.0,0,192,6.0,80.0
19671,57.0,0,48,11.0,104.0
19672,79.0,0,48,0.0,127.0
19673,67.0,60,48,10.0,127.0
19674,78.0,60,48,0.0,127.0
19675,66.0,0,48,10.0,127.0
19676,57.0,0,48,11.0,104.0
19677,57.0,0,48,11.0,104.0
19678,79.0,0,48,0.0,127.0
19679,67.0,60,48,10.0,127.0
19680,62.0,0,384,2.0,64.0
19681,74.0,0,384,2.0,64.0
19682,60.0,0,384,12.0,88.0
19683,48.0,0,384,13.0,88.0
19684,69.0,0,384,1.0,64.0
19685,72.0,0,384,3.0,70.0
19686,81.0,0,48,0.0,127.0
19687,57.0,60,48,11.0,104.0
19688,69.0,0,48,10.0,127.0
19689,50.0,0,450,4.0,64.0
19690,70.0,0,48,10.0,127.0
19691,57.0,60,48,11.0,104.0
19692,82.0,0,48,0.0,127.0
19693,72.0,0,48,11.0,104.0
19694,84.0,0,48,0.0,127.0
19695,72.0,0,48,10.0,127.0
19696,69.0,0,576,4.0,83.0
19697,74.0,0,48,10.0,127.0
19698,72.0,60,48,11.0,104.0
19699,86.0,0,48,0.0,127.0
19700,76.0,60,48,10.0,127.0
19701,72.0,0,48,11.0,104.0
19702,88.0,0,48,0.0,127.0
19703,62.0,0,192,5.0,80.0
19704,74.0,0,192,5.0,80.0
19705,50.0,0,192,6.0,80.0
19706,78.0,0,48,10.0,127.0
19707,72.0,0,48,11.0,104.0
19708,90.0,60,48,0.0,127.0
19709,72.0,60,48,11.0,104.0
19710,50.0,0,48,6.0,80.0
19711,74.0,0,58,8.0,127.0
19712,45.0,0,336,12.0,88.0
19713,33.0,60,336,13.0,88.0
19714,90.0,0,96,0.0,64.0
19715,45.0,0,336,3.0,70.0
19716,72.0,0,336,1.0,64.0
19717,84.0,0,336,1.0,64.0
19718,72.0,0,48,11.0,104.0
19719,50.0,60,48,6.0,80.0
19720,79.0,0,114,10.0,127.0
19721,75.0,0,58,8.0,127.0
19722,74.0,0,144,5.0,80.0
19723,62.0,0,144,5.0,80.0
19724,74.0,0,48,11.0,104.0
19725,50.0,0,48,6.0,80.0
19726,74.0,0,58,8.0,127.0
19727,62.0,0,432,4.0,64.0
19728,50.0,0,432,4.0,64.0
19729,74.0,0,432,2.0,64.0
19730,86.0,0,432,2.0,64.0
19731,91.0,0,96,0.0,64.0
19732,46.0,60,96,12.0,88.0
19733,86.0,0,96,1.0,64.0
19734,46.0,0,96,3.0,70.0
19735,34.0,0,96,13.0,88.0
19736,50.0,0,48,6.0,80.0
19737,74.0,60,48,11.0,104.0
19738,62.0,0,48,5.0,80.0
19739,74.0,0,48,5.0,80.0
19740,72.0,0,58,8.0,127.0
19741,70.0,0,48,8.0,127.0
19742,58.0,0,48,11.0,104.0
19743,72.0,60,48,8.0,127.0
19744,58.0,0,48,11.0,104.0
19745,70.0,60,48,8.0,127.0
19746,58.0,0,48,11.0,104.0
19747,62.0,0,192,5.0,80.0
19748,74.0,0,192,5.0,80.0
19749,50.0,0,192,6.0,80.0
19750,69.0,0,48,8.0,127.0
19751,58.0,60,48,11.0,104.0
19752,58.0,0,48,11.0,104.0
19753,67.0,60,48,8.0,127.0
19754,58.0,0,48,11.0,104.0
19755,69.0,60,48,8.0,127.0
19756,50.0,60,384,13.0,88.0
19757,74.0,0,384,2.0,64.0
19758,91.0,0,384,0.0,64.0
19759,62.0,0,384,3.0,70.0
19760,62.0,0,384,12.0,88.0
19761,62.0,0,384,2.0,64.0
19762,58.0,60,48,11.0,104.0
19763,70.0,0,48,8.0,127.0
19764,70.0,0,432,1.0,64.0
19765,50.0,0,450,4.0,64.0
19766,72.0,0,48,8.0,127.0
19767,58.0,60,48,11.0,104.0
19768,74.0,0,48,11.0,104.0
19769,74.0,60,48,8.0,127.0
19770,74.0,0,48,11.0,104.0
19771,76.0,60,48,8.0,127.0
19772,74.0,60,48,11.0,104.0
19773,78.0,0,48,8.0,127.0
19774,74.0,0,192,5.0,80.0
19775,62.0,0,192,5.0,80.0
19776,50.0,0,192,6.0,80.0
19777,74.0,0,192,2.0,64.0
19778,91.0,0,192,0.0,64.0
19779,86.0,0,192,2.0,64.0
19780,74.0,0,48,11.0,104.0
19781,79.0,60,48,8.0,127.0
19782,50.0,0,240,4.0,64.0
19783,62.0,0,0,4.0,80.0
19784,74.0,0,48,11.0,104.0
19785,64.0,0,58,10.0,127.0
19786,88.0,0,58,0.0,89.0
19787,76.0,0,58,0.0,89.0
19788,62.0,0,60,5.0,80.0
19789,74.0,0,60,5.0,80.0
19790,57.0,0,60,4.0,80.0
19791,46.0,0,336,12.0,88.0
19792,79.0,60,96,8.0,127.0
19793,46.0,0,336,3.0,70.0
19794,34.0,0,336,13.0,88.0
19795,74.0,0,48,11.0,104.0
19796,89.0,60,58,0.0,89.0
19797,77.0,0,58,0.0,89.0
19798,65.0,0,58,10.0,127.0
19799,76.0,0,48,11.0,104.0
19800,64.0,0,58,10.0,127.0
19801,88.0,0,58,0.0,89.0
19802,76.0,0,58,0.0,89.0
19803,64.0,60,60,4.0,80.0
19804,57.0,0,60,4.0,80.0
19805,69.0,0,60,5.0,80.0
19806,76.0,0,60,5.0,80.0
19807,76.0,0,192,2.0,80.0
19808,49.0,0,96,3.0,88.0
19809,37.0,0,96,13.0,88.0
19810,49.0,0,96,12.0,88.0
19811,79.0,0,466,1.0,64.0
19812,76.0,0,48,11.0,104.0
19813,86.0,0,58,0.0,89.0
19814,62.0,60,58,10.0,127.0
19815,74.0,0,58,0.0,89.0
19816,45.0,0,48,6.0,80.0
19817,61.0,0,48,10.0,127.0
19818,73.0,0,48,0.0,89.0
19819,85.0,0,48,0.0,89.0
19820,52.0,0,48,11.0,104.0
19821,55.0,0,48,11.0,104.0
19822,57.0,0,96,8.0,127.0
19823,52.0,0,48,11.0,104.0
19824,86.0,60,48,0.0,89.0
19825,55.0,0,48,11.0,104.0
19826,45.0,0,48,6.0,80.0
19827,74.0,0,48,0.0,89.0
19828,62.0,0,48,10.0,127.0
19829,55.0,0,48,11.0,104.0
19830,52.0,0,48,11.0,104.0
19831,73.0,0,48,0.0,89.0
19832,85.0,0,48,0.0,89.0
19833,61.0,0,48,10.0,127.0
19834,45.0,60,48,6.0,80.0
19835,64.0,0,226,3.0,88.0
19836,64.0,0,226,12.0,88.0
19837,52.0,0,226,13.0,88.0
19838,83.0,0,48,0.0,89.0
19839,71.0,0,48,0.0,89.0
19840,45.0,0,48,6.0,80.0
19841,59.0,0,48,10.0,127.0
19842,55.0,60,48,11.0,104.0
19843,52.0,0,48,11.0,104.0
19844,57.0,0,48,10.0,127.0
19845,81.0,0,48,0.0,89.0
19846,69.0,0,48,0.0,89.0
19847,45.0,0,48,6.0,80.0
19848,52.0,0,48,11.0,104.0
19849,85.0,60,48,8.0,127.0
19850,55.0,0,48,11.0,104.0
19851,86.0,48,48,8.0,127.0
19852,82.0,0,48,0.0,89.0
19853,52.0,0,48,11.0,104.0
19854,55.0,0,48,11.0,104.0
19855,45.0,0,48,6.0,80.0
19856,58.0,0,48,10.0,127.0
19857,70.0,12,48,0.0,89.0
19858,85.0,36,48,8.0,127.0
19859,69.0,0,384,4.0,104.0
19860,57.0,0,384,2.0,80.0
19861,55.0,0,48,11.0,104.0
19862,61.0,0,48,10.0,127.0
19863,52.0,24,48,11.0,104.0
19864,85.0,0,48,0.0,89.0
19865,73.0,0,48,0.0,89.0
19866,45.0,0,48,6.0,80.0
19867,86.0,24,48,8.0,127.0
19868,67.0,0,432,1.0,80.0
19869,57.0,0,450,4.0,80.0
19870,64.0,0,450,4.0,80.0
19871,76.0,0,450,5.0,80.0
19872,69.0,60,450,5.0,80.0
19873,55.0,0,226,13.0,88.0
19874,67.0,0,226,12.0,88.0
19875,67.0,0,226,3.0,88.0
19876,45.0,0,48,6.0,80.0
19877,86.0,0,48,0.0,89.0
19878,74.0,36,48,0.0,89.0
19879,62.0,0,48,10.0,127.0
19880,55.0,0,48,11.0,104.0
19881,52.0,0,48,11.0,104.0
19882,85.0,12,48,8.0,127.0
19883,88.0,0,48,0.0,89.0
19884,76.0,0,48,0.0,89.0
19885,64.0,0,48,10.0,127.0
19886,52.0,0,48,11.0,104.0
19887,85.0,0,48,8.0,127.0
19888,55.0,0,48,11.0,104.0
19889,45.0,0,48,6.0,80.0
19890,86.0,48,48,8.0,127.0
19891,52.0,12,48,11.0,104.0
19892,45.0,0,48,6.0,80.0
19893,77.0,0,48,0.0,89.0
19894,55.0,0,48,11.0,104.0
19895,65.0,0,48,10.0,127.0
19896,89.0,0,48,0.0,89.0
19897,69.0,0,114,5.0,80.0
19898,76.0,0,114,5.0,80.0
19899,85.0,36,48,8.0,127.0
19900,67.0,24,48,10.0,127.0
19901,45.0,0,48,6.0,80.0
19902,79.0,0,48,0.0,89.0
19903,91.0,0,48,0.0,89.0
19904,52.0,0,48,11.0,104.0
19905,55.0,0,48,11.0,104.0
19906,69.0,0,192,2.0,80.0
19907,76.0,0,192,1.0,80.0
19908,45.0,0,192,4.0,80.0
19909,57.0,0,192,4.0,80.0
19910,83.0,24,48,8.0,127.0
19911,81.0,0,192,1.0,80.0
19912,81.0,48,192,2.0,80.0
19913,81.0,36,48,0.0,89.0
19914,69.0,0,48,10.0,127.0
19915,45.0,0,48,6.0,80.0
19916,55.0,0,48,11.0,104.0
19917,93.0,0,48,0.0,89.0
19918,52.0,0,48,11.0,104.0
19919,55.0,0,114,3.0,88.0
19920,55.0,0,114,12.0,88.0
19921,43.0,0,114,13.0,88.0
19922,69.0,0,58,5.0,80.0
19923,76.0,0,58,5.0,80.0
19924,85.0,12,48,8.0,127.0
19925,53.0,0,96,3.0,104.0
19926,86.0,48,96,8.0,127.0
19927,62.0,0,96,8.0,127.0
19928,86.0,0,96,0.0,80.0
19929,74.0,0,96,8.0,127.0
19930,77.0,0,96,1.0,80.0
19931,74.0,0,96,0.0,80.0
19932,81.0,0,96,1.0,80.0
19933,41.0,0,96,13.0,127.0
19934,53.0,0,96,11.0,127.0
19935,57.0,0,96,11.0,127.0
19936,81.0,0,96,2.0,80.0
19937,69.0,0,96,2.0,80.0
19938,69.0,0,96,10.0,127.0
19939,53.0,0,96,12.0,127.0
19940,57.0,0,120,4.0,80.0
19941,62.0,0,120,5.0,80.0
19942,74.0,0,120,5.0,80.0
19943,69.0,0,120,4.0,80.0
19944,50.0,0,192,6.0,104.0
19945,86.0,0,120,0.0,88.0
19946,77.0,0,0,1.0,48.0
19947,81.0,0,120,1.0,88.0
19948,53.0,0,120,4.0,48.0
19949,62.0,0,120,4.0,48.0
19950,74.0,0,120,5.0,48.0
19951,62.0,0,120,5.0,48.0
19952,81.0,0,120,1.0,68.0
19953,50.0,120,120,4.0,48.0
19954,65.0,0,120,4.0,48.0
19955,89.0,0,120,0.0,68.0
19956,41.0,0,192,3.0,48.0
19957,29.0,0,192,13.0,48.0
19958,86.0,0,192,8.0,48.0
19959,50.0,0,192,6.0,62.0
19960,41.0,0,192,12.0,48.0
19961,65.0,0,192,11.0,48.0
19962,69.0,0,192,11.0,48.0
19963,74.0,0,192,10.0,48.0
19964,76.0,120,0,1.0,48.0
19965,79.0,0,240,1.0,48.0
19966,84.0,0,240,0.0,48.0
19967,77.0,0,120,1.0,48.0
19968,74.0,0,120,1.0,48.0
19969,82.0,0,120,0.0,48.0
19970,86.0,0,120,1.0,48.0
19971,81.0,120,0,1.0,48.0
19972,62.0,120,240,2.0,38.0
19973,86.0,0,120,0.0,48.0
19974,65.0,0,240,2.0,38.0
19975,50.0,60,48,4.0,45.0
19976,62.0,0,48,4.0,45.0
19977,81.0,0,120,0.0,48.0
19978,64.0,0,120,2.0,38.0
19979,60.0,0,120,2.0,38.0
19980,69.0,0,120,1.0,48.0
19981,50.0,0,96,4.0,45.0
19982,62.0,0,96,4.0,45.0
19983,70.0,60,120,1.0,40.0
19984,58.0,0,120,2.0,48.0
19985,79.0,0,120,1.0,40.0
19986,79.0,0,120,0.0,40.0
19987,62.0,0,1,2.0,64.0
19988,89.0,0,114,0.0,48.0
19989,72.0,120,114,1.0,48.0
19990,77.0,0,114,1.0,48.0
19991,60.0,0,120,2.0,48.0
19992,57.0,0,120,2.0,48.0
19993,76.0,120,114,1.0,48.0
19994,73.0,0,114,1.0,48.0
19995,88.0,0,114,0.0,48.0
19996,67.0,0,120,2.0,48.0
19997,61.0,0,120,3.0,48.0
19998,55.0,0,120,3.0,48.0
19999,70.0,0,120,2.0,48.0
20000,50.0,60,48,4.0,45.0
20001,62.0,0,48,4.0,45.0
20002,86.0,120,114,0.0,48.0
20003,74.0,0,114,1.0,48.0
20004,62.0,0,120,3.0,48.0
20005,69.0,0,0,2.0,33.0
20006,65.0,60,0,2.0,33.0
20007,53.0,0,0,3.0,33.0
20008,62.0,0,96,4.0,45.0
20009,50.0,0,96,4.0,45.0
20010,86.0,0,216,0.0,33.0
20011,74.0,0,216,1.0,33.0
20012,62.0,0,216,3.0,33.0
20013,53.0,0,126,12.0,104.0
20014,69.0,0,126,11.0,104.0
20015,65.0,0,126,4.0,104.0
20016,50.0,0,126,4.0,104.0
20017,62.0,0,126,4.0,104.0
20018,74.0,0,126,10.0,104.0
20019,86.0,0,126,8.0,104.0
20020,41.0,0,126,13.0,104.0
20021,50.0,240,144,6.0,80.0
20022,74.0,0,144,5.0,80.0
20023,62.0,0,144,5.0,80.0
20024,57.0,0,42,11.0,104.0
20025,65.0,0,42,4.0,104.0
20026,50.0,0,42,4.0,104.0
20027,53.0,180,42,12.0,104.0
20028,86.0,0,42,8.0,104.0
20029,41.0,0,42,13.0,104.0
20030,74.0,0,42,10.0,104.0
20031,62.0,0,42,4.0,104.0
20032,74.0,0,48,5.0,80.0
20033,50.0,0,48,6.0,80.0
20034,62.0,0,48,5.0,80.0
20035,76.0,0,96,8.0,104.0
20036,62.0,0,96,4.0,104.0
20037,50.0,0,96,4.0,104.0
20038,64.0,0,96,4.0,104.0
20039,55.0,0,96,12.0,104.0
20040,43.0,0,96,13.0,104.0
20041,70.0,60,96,10.0,104.0
20042,58.0,0,96,11.0,104.0
20043,74.0,0,120,5.0,80.0
20044,62.0,0,120,5.0,80.0
20045,50.0,0,192,6.0,104.0
20046,79.0,120,120,1.0,88.0
20047,62.0,0,120,5.0,48.0
20048,74.0,120,120,5.0,48.0
20049,82.0,0,120,1.0,68.0
20050,88.0,0,192,8.0,48.0
20051,64.0,0,192,4.0,48.0
20052,43.0,0,192,12.0,48.0
20053,50.0,0,192,6.0,62.0
20054,62.0,0,192,4.0,48.0
20055,70.0,0,192,11.0,48.0
20056,31.0,0,192,13.0,48.0
20057,58.0,0,192,10.0,48.0
20058,50.0,0,192,4.0,48.0
20059,77.0,120,240,1.0,62.0
20060,79.0,120,120,0.0,48.0
20061,82.0,0,120,0.0,48.0
20062,76.0,120,120,1.0,48.0
20063,79.0,0,240,2.0,38.0
20064,76.0,0,240,2.0,38.0
20065,82.0,120,120,0.0,48.0
20066,79.0,0,120,1.0,48.0
20067,50.0,0,48,4.0,45.0
20068,62.0,60,48,4.0,45.0
20069,74.0,0,120,2.0,38.0
20070,77.0,120,120,2.0,38.0
20071,82.0,0,120,1.0,48.0
20072,62.0,0,96,4.0,45.0
20073,50.0,60,96,4.0,45.0
20074,93.0,0,120,0.0,40.0
20075,81.0,0,120,1.0,40.0
20076,76.0,0,120,2.0,48.0
20077,72.0,0,1,2.0,64.0
20078,82.0,0,114,0.0,48.0
20079,91.0,0,114,0.0,48.0
20080,79.0,0,114,1.0,48.0
20081,70.0,120,114,1.0,48.0
20082,74.0,0,120,2.0,48.0
20083,70.0,0,120,2.0,48.0
20084,77.0,0,114,1.0,48.0
20085,84.0,0,114,0.0,48.0
20086,89.0,120,114,0.0,48.0
20087,72.0,0,114,1.0,48.0
20088,69.0,0,120,2.0,48.0
20089,72.0,0,120,2.0,48.0
20090,50.0,60,48,4.0,45.0
20091,62.0,0,48,4.0,45.0
20092,73.0,120,114,1.0,48.0
20093,76.0,0,114,1.0,48.0
20094,85.0,0,114,0.0,48.0
20095,88.0,0,114,0.0,48.0
20096,67.0,0,120,2.0,48.0
20097,70.0,0,0,2.0,33.0
20098,50.0,0,96,4.0,45.0
20099,62.0,0,96,4.0,45.0
20100,73.0,60,216,1.0,33.0
20101,76.0,0,216,1.0,33.0
20102,85.0,0,216,0.0,33.0
20103,88.0,0,216,0.0,33.0
20104,67.0,0,216,2.0,33.0
20105,43.0,0,126,13.0,104.0
20106,88.0,0,126,8.0,104.0
20107,64.0,0,126,4.0,104.0
20108,50.0,0,126,4.0,104.0
20109,62.0,0,126,4.0,104.0
20110,58.0,0,126,11.0,104.0
20111,55.0,0,126,12.0,104.0
20112,64.0,240,126,10.0,104.0
20113,74.0,0,144,5.0,80.0
20114,62.0,0,144,5.0,80.0
20115,50.0,0,144,6.0,80.0
20116,77.0,0,42,10.0,104.0
20117,58.0,0,42,11.0,104.0
20118,64.0,0,42,4.0,104.0
20119,62.0,0,42,4.0,104.0
20120,88.0,0,42,8.0,104.0
20121,50.0,0,42,4.0,104.0
20122,43.0,180,42,13.0,104.0
20123,55.0,0,42,12.0,104.0
20124,62.0,0,48,5.0,80.0
20125,74.0,0,48,5.0,80.0
20126,50.0,0,48,6.0,80.0
20127,57.0,0,96,12.0,104.0
20128,60.0,0,96,11.0,104.0
20129,45.0,0,96,13.0,104.0
20130,66.0,0,96,10.0,104.0
20131,78.0,0,96,8.0,104.0
20132,62.0,0,96,4.0,104.0
20133,66.0,60,96,4.0,104.0
20134,74.0,0,120,5.0,80.0
20135,62.0,0,120,5.0,80.0
20136,50.0,0,192,6.0,104.0
20137,72.0,120,120,2.0,88.0
20138,60.0,0,120,3.0,88.0
20139,63.0,0,120,3.0,68.0
20140,75.0,0,120,2.0,68.0
20141,74.0,0,120,5.0,48.0
20142,62.0,0,120,5.0,48.0
20143,48.0,0,192,11.0,48.0
20144,45.0,0,192,12.0,48.0
20145,50.0,0,192,6.0,62.0
20146,33.0,0,192,13.0,48.0
20147,66.0,0,192,10.0,48.0
20148,66.0,0,192,4.0,48.0
20149,62.0,0,192,4.0,48.0
20150,90.0,120,192,8.0,48.0
20151,70.0,0,240,2.0,62.0
20152,58.0,120,240,3.0,62.0
20153,84.0,240,120,0.0,48.0
20154,72.0,0,120,1.0,48.0
20155,69.0,120,0,2.0,48.0
20156,57.0,0,0,3.0,48.0
20157,60.0,0,120,3.0,48.0
20158,72.0,0,120,2.0,48.0
20159,87.0,0,120,0.0,48.0
20160,75.0,0,120,1.0,48.0
20161,62.0,0,48,4.0,45.0
20162,50.0,60,48,4.0,45.0
20163,70.0,0,120,2.0,48.0
20164,67.0,0,120,2.0,48.0
20165,87.0,0,120,0.0,48.0
20166,58.0,0,120,3.0,48.0
20167,75.0,0,120,1.0,48.0
20168,55.0,120,120,3.0,48.0
20169,50.0,0,96,4.0,45.0
20170,62.0,0,96,4.0,45.0
20171,57.0,0,120,3.0,52.0
20172,54.0,0,120,3.0,52.0
20173,74.0,0,120,1.0,58.0
20174,69.0,120,0,2.0,52.0
20175,66.0,60,120,2.0,52.0
20176,86.0,0,120,0.0,64.0
20177,72.0,0,120,1.0,58.0
20178,84.0,0,120,0.0,64.0
20179,72.0,0,120,2.0,52.0
20180,60.0,0,120,3.0,52.0
20181,57.0,0,120,3.0,52.0
20182,69.0,0,120,1.0,58.0
20183,70.0,120,120,1.0,58.0
20184,82.0,0,120,0.0,64.0
20185,62.0,0,120,3.0,52.0
20186,58.0,0,120,3.0,52.0
20187,74.0,0,120,2.0,52.0
20188,70.0,0,120,2.0,52.0
20189,50.0,60,48,4.0,45.0
20190,62.0,0,48,4.0,45.0
20191,72.0,0,120,2.0,52.0
20192,60.0,0,120,3.0,52.0
20193,63.0,0,120,3.0,52.0
20194,81.0,0,120,1.0,58.0
20195,72.0,0,120,1.0,58.0
20196,75.0,0,120,2.0,52.0
20197,93.0,120,120,0.0,64.0
20198,84.0,0,120,0.0,64.0
20199,50.0,0,96,4.0,45.0
20200,62.0,60,96,4.0,45.0
20201,74.0,0,120,2.0,52.0
20202,58.0,0,120,3.0,52.0
20203,62.0,0,120,3.0,52.0
20204,86.0,0,120,0.0,64.0
20205,91.0,0,120,0.0,64.0
20206,79.0,0,120,1.0,58.0
20207,74.0,0,120,1.0,58.0
20208,70.0,0,120,2.0,52.0
20209,57.0,0,120,3.0,42.0
20210,78.0,120,120,1.0,46.0
20211,75.0,0,120,1.0,46.0
20212,60.0,0,120,3.0,42.0
20213,90.0,0,120,0.0,51.0
20214,69.0,0,120,2.0,42.0
20215,72.0,0,120,2.0,42.0
20216,87.0,0,120,0.0,51.0
20217,45.0,0,126,13.0,104.0
20218,78.0,0,126,8.0,104.0
20219,48.0,0,126,11.0,104.0
20220,60.0,0,126,11.0,104.0
20221,72.0,0,126,10.0,104.0
20222,57.0,0,126,12.0,104.0
20223,62.0,0,126,4.0,104.0
20224,66.0,0,126,4.0,104.0
20225,74.0,0,144,5.0,80.0
20226,62.0,0,144,5.0,80.0
20227,50.0,120,144,6.0,80.0
20228,62.0,0,42,4.0,104.0
20229,66.0,180,42,4.0,104.0
20230,48.0,0,42,11.0,104.0
20231,60.0,0,42,11.0,104.0
20232,45.0,0,42,13.0,104.0
20233,57.0,0,42,12.0,104.0
20234,60.0,0,42,10.0,104.0
20235,78.0,0,42,8.0,104.0
20236,62.0,0,48,5.0,80.0
20237,74.0,0,48,5.0,80.0
20238,50.0,0,48,6.0,80.0
20239,46.0,0,96,4.0,104.0
20240,67.0,0,96,4.0,104.0
20241,62.0,60,96,11.0,104.0
20242,50.0,0,96,11.0,104.0
20243,67.0,0,96,8.0,104.0
20244,46.0,0,96,13.0,104.0
20245,62.0,0,96,10.0,104.0
20246,58.0,0,96,12.0,104.0
20247,74.0,0,120,5.0,80.0
20248,62.0,0,120,5.0,80.0
20249,50.0,0,192,6.0,104.0
20250,82.0,120,120,1.0,92.0
20251,70.0,0,120,2.0,92.0
20252,86.0,0,120,1.0,72.0
20253,62.0,0,120,5.0,48.0
20254,74.0,120,120,5.0,48.0
20255,74.0,0,120,2.0,72.0
20256,46.0,0,192,12.0,48.0
20257,67.0,0,192,4.0,48.0
20258,46.0,0,192,4.0,48.0
20259,50.0,0,192,6.0,62.0
20260,50.0,0,192,11.0,48.0
20261,34.0,0,192,13.0,48.0
20262,74.0,0,192,10.0,48.0
20263,79.0,0,192,8.0,48.0
20264,81.0,120,240,1.0,52.0
20265,69.0,0,240,2.0,52.0
20266,82.0,240,120,0.0,64.0
20267,67.0,120,0,2.0,52.0
20268,79.0,0,120,1.0,52.0
20269,70.0,0,120,2.0,52.0
20270,86.0,0,120,0.0,64.0
20271,82.0,0,120,1.0,52.0
20272,86.0,0,120,0.0,64.0
20273,69.0,0,120,2.0,52.0
20274,65.0,120,120,2.0,52.0
20275,74.0,0,120,1.0,52.0
20276,72.0,0,114,1.0,98.0
20277,84.0,120,114,0.0,64.0
20278,67.0,0,114,2.0,52.0
20279,63.0,0,114,2.0,52.0
20280,74.0,0,114,1.0,58.0
20281,82.0,120,114,1.0,58.0
20282,62.0,0,114,2.0,52.0
20283,65.0,0,114,2.0,52.0
20284,82.0,0,114,0.0,64.0
20285,90.0,0,114,0.0,84.0
20286,78.0,0,114,1.0,58.0
20287,81.0,120,114,1.0,58.0
20288,63.0,0,114,3.0,52.0
20289,69.0,0,114,2.0,52.0
20290,66.0,0,114,2.0,52.0
20291,60.0,0,114,3.0,52.0
20292,62.0,0,114,3.0,52.0
20293,91.0,0,114,0.0,64.0
20294,58.0,0,114,3.0,52.0
20295,67.0,0,114,2.0,52.0
20296,79.0,120,114,1.0,58.0
20297,60.0,0,114,3.0,52.0
20298,90.0,0,114,0.0,84.0
20299,69.0,0,114,2.0,52.0
20300,66.0,0,114,2.0,52.0
20301,78.0,0,114,1.0,58.0
20302,81.0,0,114,1.0,58.0
20303,63.0,120,114,3.0,52.0
20304,58.0,0,114,3.0,52.0
20305,62.0,120,114,3.0,52.0
20306,67.0,0,114,2.0,52.0
20307,91.0,0,114,0.0,64.0
20308,79.0,0,114,1.0,58.0
20309,91.0,0,120,0.0,64.0
20310,58.0,0,120,3.0,52.0
20311,67.0,0,120,2.0,52.0
20312,79.0,0,120,1.0,58.0
20313,62.0,0,120,2.0,52.0
20314,62.0,120,120,3.0,52.0
20315,93.0,0,240,0.0,93.0
20316,86.0,0,240,0.0,73.0
20317,62.0,0,240,3.0,78.0
20318,58.0,0,240,3.0,58.0
20319,69.0,240,240,4.0,58.0
20320,81.0,0,240,1.0,78.0
20321,74.0,0,240,1.0,58.0
20322,62.0,0,240,4.0,78.0
20323,62.0,0,240,2.0,58.0
20324,69.0,0,240,2.0,78.0
20325,63.0,0,104,3.0,64.0
20326,79.0,0,104,1.0,64.0
20327,75.0,240,104,1.0,64.0
20328,91.0,0,104,0.0,80.0
20329,87.0,0,104,0.0,80.0
20330,67.0,0,104,2.0,64.0
20331,63.0,0,104,2.0,64.0
20332,63.0,0,104,4.0,64.0
20333,67.0,0,104,4.0,64.0
20334,58.0,0,104,3.0,64.0
20335,73.0,0,240,2.0,78.0
20336,67.0,240,240,2.0,58.0
20337,67.0,0,240,4.0,58.0
20338,64.0,0,240,4.0,78.0
20339,64.0,0,240,3.0,78.0
20340,91.0,0,240,0.0,93.0
20341,58.0,0,240,3.0,58.0
20342,88.0,0,240,0.0,73.0
20343,85.0,0,240,1.0,78.0
20344,79.0,0,240,1.0,58.0
20345,65.0,0,104,3.0,64.0
20346,57.0,0,104,3.0,64.0
20347,57.0,0,104,4.0,64.0
20348,86.0,0,104,1.0,64.0
20349,77.0,0,104,1.0,64.0
20350,65.0,0,104,4.0,64.0
20351,65.0,240,104,2.0,64.0
20352,74.0,0,104,2.0,64.0
20353,86.0,0,104,0.0,80.0
20354,89.0,0,104,0.0,80.0
20355,82.0,0,240,1.0,58.0
20356,62.0,0,240,3.0,58.0
20357,74.0,0,240,1.0,78.0
20358,89.0,240,240,0.0,78.0
20359,55.0,0,240,4.0,78.0
20360,62.0,0,240,4.0,58.0
20361,65.0,0,240,4.0,58.0
20362,55.0,0,240,3.0,78.0
20363,77.0,0,240,2.0,78.0
20364,70.0,0,240,2.0,58.0
20365,67.0,0,120,2.0,64.0
20366,75.0,0,120,2.0,64.0
20367,63.0,0,120,3.0,64.0
20368,75.0,0,120,1.0,64.0
20369,82.0,0,120,1.0,64.0
20370,55.0,0,120,3.0,64.0
20371,87.0,240,120,0.0,64.0
20372,63.0,0,120,4.0,64.0
20373,55.0,0,120,4.0,64.0
20374,65.0,0,40,2.0,77.0
20375,74.0,0,40,1.0,58.0
20376,86.0,240,40,0.0,73.0
20377,65.0,0,40,3.0,58.0
20378,67.0,0,40,2.0,58.0
20379,67.0,0,40,3.0,58.0
20380,76.0,40,40,1.0,58.0
20381,88.0,0,40,0.0,73.0
20382,65.0,0,40,3.0,58.0
20383,65.0,40,40,2.0,58.0
20384,86.0,0,40,0.0,73.0
20385,74.0,0,40,1.0,58.0
20386,67.0,0,40,3.0,58.0
20387,76.0,0,40,1.0,58.0
20388,67.0,0,40,2.0,58.0
20389,88.0,40,40,0.0,73.0
20390,85.0,0,40,0.0,73.0
20391,73.0,40,40,1.0,58.0
20392,64.0,0,40,3.0,58.0
20393,64.0,0,40,2.0,58.0
20394,65.0,0,40,2.0,58.0
20395,57.0,0,0,3.0,77.0
20396,65.0,0,40,3.0,58.0
20397,86.0,40,40,0.0,73.0
20398,45.0,0,240,13.0,112.0
20399,61.0,0,240,11.0,112.0
20400,57.0,0,240,12.0,112.0
20401,74.0,0,40,1.0,58.0
20402,82.0,0,240,8.0,120.0
20403,57.0,0,0,4.0,64.0
20404,62.0,0,240,4.0,58.0
20405,70.0,0,240,10.0,120.0
20406,69.0,0,108,10.0,112.0
20407,81.0,0,108,8.0,112.0
20408,88.0,40,120,0.0,73.0
20409,61.0,0,120,4.0,64.0
20410,76.0,0,120,1.0,58.0
20411,67.0,0,120,2.0,58.0
20412,67.0,0,120,3.0,58.0
20413,85.0,0,120,0.0,73.0
20414,64.0,0,120,2.0,46.0
20415,64.0,120,120,3.0,46.0
20416,73.0,0,120,1.0,58.0
20417,69.0,0,240,10.0,112.0
20418,86.0,0,120,0.0,80.0
20419,81.0,120,240,8.0,112.0
20420,62.0,120,120,3.0,80.0
20421,74.0,0,120,2.0,80.0
20422,58.0,0,240,12.0,112.0
20423,50.0,0,240,11.0,112.0
20424,46.0,0,0,13.0,112.0
20425,74.0,0,120,1.0,80.0
20426,79.0,0,108,8.0,112.0
20427,67.0,0,108,10.0,112.0
20428,58.0,0,108,12.0,112.0
20429,51.0,0,108,11.0,112.0
20430,87.0,120,120,0.0,80.0
20431,75.0,0,120,2.0,80.0
20432,63.0,0,120,3.0,80.0
20433,75.0,0,120,1.0,80.0
20434,91.0,120,96,0.0,80.0
20435,79.0,0,96,2.0,80.0
20436,67.0,0,96,3.0,80.0
20437,79.0,0,96,1.0,80.0
20438,74.0,120,120,5.0,104.0
20439,62.0,0,120,5.0,104.0
20440,50.0,0,192,6.0,112.0
20441,49.0,0,240,11.0,112.0
20442,73.0,0,120,2.0,80.0
20443,45.0,0,240,13.0,112.0
20444,67.0,0,240,10.0,112.0
20445,79.0,0,240,8.0,112.0
20446,57.0,0,240,12.0,112.0
20447,85.0,0,120,0.0,80.0
20448,61.0,0,120,3.0,80.0
20449,73.0,120,120,1.0,80.0
20450,65.0,0,108,10.0,112.0
20451,77.0,0,108,8.0,112.0
20452,50.0,120,108,11.0,112.0
20453,45.0,0,108,13.0,112.0
20454,57.0,0,108,12.0,112.0
20455,74.0,0,120,1.0,80.0
20456,62.0,0,120,3.0,80.0
20457,62.0,0,120,5.0,104.0
20458,86.0,0,120,0.0,80.0
20459,74.0,0,120,5.0,104.0
20460,74.0,0,120,2.0,80.0
20461,50.0,0,192,6.0,112.0
20462,65.0,0,96,3.0,80.0
20463,77.0,0,96,1.0,80.0
20464,77.0,0,96,2.0,80.0
20465,89.0,120,96,0.0,80.0
20466,55.0,120,240,12.0,112.0
20467,82.0,0,120,0.0,80.0
20468,77.0,0,240,8.0,112.0
20469,55.0,0,120,3.0,80.0
20470,70.0,120,120,1.0,80.0
20471,70.0,0,120,2.0,80.0
20472,43.0,0,0,13.0,112.0
20473,70.0,0,240,10.0,112.0
20474,50.0,0,240,11.0,112.0
20475,51.0,0,108,11.0,112.0
20476,63.0,0,108,10.0,112.0
20477,55.0,0,108,12.0,112.0
20478,75.0,120,108,8.0,112.0
20479,75.0,0,120,1.0,80.0
20480,75.0,0,120,2.0,80.0
20481,87.0,0,120,0.0,80.0
20482,58.0,0,120,3.0,80.0
20483,91.0,0,96,0.0,80.0
20484,43.0,120,96,3.0,80.0
20485,79.0,0,96,1.0,80.0
20486,79.0,0,96,2.0,80.0
20487,53.0,0,26,12.0,120.0
20488,65.0,0,26,11.0,120.0
20489,86.0,0,26,8.0,120.0
20490,74.0,0,26,10.0,120.0
20491,76.0,0,26,10.0,120.0
20492,67.0,0,26,11.0,120.0
20493,88.0,26,26,8.0,120.0
20494,55.0,0,26,12.0,120.0
20495,86.0,0,26,8.0,120.0
20496,65.0,26,26,11.0,120.0
20497,53.0,0,26,12.0,120.0
20498,74.0,0,26,10.0,120.0
20499,76.0,0,26,10.0,120.0
20500,67.0,26,26,11.0,120.0
20501,55.0,0,26,12.0,120.0
20502,88.0,0,26,8.0,120.0
20503,69.0,0,120,5.0,104.0
20504,57.0,0,120,5.0,104.0
20505,82.0,0,120,0.0,80.0
20506,70.0,0,120,2.0,80.0
20507,57.0,120,120,4.0,80.0
20508,70.0,0,120,1.0,80.0
20509,69.0,0,120,4.0,80.0
20510,65.0,0,26,11.0,120.0
20511,86.0,0,26,8.0,120.0
20512,53.0,0,26,12.0,120.0
20513,74.0,26,26,10.0,120.0
20514,76.0,0,26,10.0,120.0
20515,55.0,10,26,12.0,120.0
20516,67.0,0,26,11.0,120.0
20517,88.0,0,26,8.0,120.0
20518,86.0,0,26,8.0,120.0
20519,65.0,0,26,11.0,120.0
20520,53.0,0,26,12.0,120.0
20521,74.0,26,26,10.0,120.0
20522,45.0,0,192,6.0,112.0
20523,73.0,0,26,10.0,120.0
20524,85.0,0,26,8.0,120.0
20525,64.0,26,26,11.0,120.0
20526,52.0,0,26,12.0,120.0
20527,53.0,0,26,12.0,120.0
20528,74.0,26,26,10.0,120.0
20529,65.0,0,26,11.0,120.0
20530,86.0,0,26,8.0,120.0
20531,69.0,16,120,1.0,80.0
20532,81.0,0,120,0.0,80.0
20533,45.0,0,0,13.0,112.0
20534,88.0,0,120,8.0,112.0
20535,67.0,0,120,11.0,112.0
20536,76.0,0,120,10.0,120.0
20537,55.0,26,120,12.0,112.0
20538,76.0,0,120,1.0,80.0
20539,57.0,0,120,4.0,64.0
20540,69.0,0,120,4.0,64.0
20541,69.0,0,240,2.0,80.0
20542,69.0,0,120,5.0,104.0
20543,57.0,0,120,5.0,104.0
20544,88.0,6,120,0.0,80.0
20545,45.0,0,192,6.0,112.0
20546,73.0,114,120,10.0,112.0
20547,85.0,0,120,8.0,112.0
20548,52.0,0,120,12.0,112.0
20549,64.0,0,120,11.0,112.0
20550,73.0,6,120,2.0,80.0
20551,85.0,0,120,0.0,80.0
20552,73.0,0,120,1.0,80.0
20553,53.0,0,120,4.0,104.0
20554,74.0,0,120,10.0,127.0
20555,65.0,0,120,4.0,104.0
20556,86.0,0,120,8.0,127.0
20557,62.0,240,90,10.0,127.0
20558,74.0,0,90,8.0,127.0
20559,74.0,0,42,8.0,127.0
20560,62.0,180,42,10.0,127.0
20561,50.0,0,576,12.0,120.0
20562,74.0,0,576,5.0,100.0
20563,62.0,0,576,5.0,100.0
20564,86.0,0,576,1.0,80.0
20565,62.0,0,576,11.0,120.0
20566,74.0,0,576,1.0,80.0
20567,74.0,120,576,2.0,80.0
20568,50.0,0,576,6.0,125.0
20569,86.0,0,576,0.0,80.0
20570,62.0,0,576,4.0,80.0
20571,50.0,0,576,4.0,80.0
20572,38.0,0,576,13.0,120.0
20573,50.0,0,576,3.0,80.0
20574,38.0,0,576,3.0,80.0
20575,62.0,0,576,2.0,80.0
20576,50.0,0,72,3.0,80.0
20577,38.0,240,72,3.0,80.0
20578,38.0,0,72,13.0,80.0
20579,86.0,0,72,0.0,80.0
20580,86.0,0,72,1.0,80.0
20581,50.0,0,72,6.0,125.0
20582,74.0,0,72,1.0,80.0
20583,74.0,0,72,5.0,100.0
20584,50.0,0,72,12.0,80.0
20585,62.0,0,72,2.0,80.0
20586,62.0,0,72,5.0,100.0
20587,62.0,0,72,11.0,80.0
20588,74.0,0,72,2.0,80.0
20589,62.0,0,72,4.0,80.0
20590,50.0,0,72,4.0,80.0
20591,62.0,0,48,2.0,80.0
20592,50.0,180,48,12.0,80.0
20593,74.0,0,48,2.0,80.0
20594,50.0,0,48,3.0,80.0
20595,50.0,0,48,4.0,80.0
20596,62.0,0,48,5.0,100.0
20597,62.0,0,48,4.0,80.0
20598,62.0,0,48,11.0,80.0
20599,74.0,0,48,1.0,80.0
20600,86.0,0,48,1.0,80.0
20601,86.0,0,48,0.0,80.0
20602,74.0,0,48,5.0,100.0
20603,50.0,0,48,6.0,125.0
20604,38.0,0,48,13.0,80.0
20605,38.0,0,48,3.0,80.0
20606,65.0,60,600,10.0,127.0
20607,77.0,0,600,8.0,127.0
20608,53.0,0,120,4.0,104.0
20609,65.0,0,120,4.0,104.0
20610,65.0,240,90,10.0,127.0
20611,77.0,0,90,8.0,127.0
20612,77.0,0,42,8.0,127.0
20613,65.0,180,42,10.0,127.0
20614,65.0,0,576,2.0,80.0
20615,62.0,0,576,4.0,80.0
20616,53.0,0,576,12.0,80.0
20617,53.0,0,576,3.0,80.0
20618,89.0,0,576,1.0,80.0
20619,41.0,0,576,13.0,80.0
20620,41.0,0,576,3.0,80.0
20621,50.0,0,576,4.0,80.0
20622,65.0,0,576,11.0,80.0
20623,62.0,0,576,5.0,100.0
20624,74.0,0,576,5.0,100.0
20625,50.0,60,576,6.0,125.0
20626,89.0,0,576,0.0,80.0
20627,77.0,0,576,1.0,80.0
20628,77.0,0,576,2.0,80.0
20629,65.0,0,72,11.0,80.0
20630,53.0,0,72,3.0,80.0
20631,62.0,240,72,4.0,80.0
20632,89.0,0,72,1.0,80.0
20633,41.0,0,72,3.0,80.0
20634,53.0,0,72,12.0,80.0
20635,62.0,0,72,5.0,100.0
20636,74.0,0,72,5.0,100.0
20637,41.0,0,72,13.0,80.0
20638,50.0,0,72,6.0,125.0
20639,50.0,0,72,4.0,80.0
20640,89.0,0,72,0.0,80.0
20641,77.0,0,72,1.0,80.0
20642,77.0,0,72,2.0,80.0
20643,65.0,0,72,2.0,80.0
20644,65.0,0,48,2.0,80.0
20645,53.0,180,48,3.0,80.0
20646,41.0,0,48,3.0,80.0
20647,53.0,0,48,12.0,80.0
20648,77.0,0,48,2.0,80.0
20649,50.0,0,48,4.0,80.0
20650,62.0,0,48,4.0,80.0
20651,89.0,0,48,0.0,80.0
20652,50.0,0,48,6.0,125.0
20653,74.0,0,48,5.0,100.0
20654,41.0,0,48,13.0,80.0
20655,77.0,0,48,1.0,80.0
20656,89.0,0,48,1.0,80.0
20657,62.0,0,48,5.0,100.0
20658,65.0,0,48,11.0,80.0
20659,81.0,0,600,8.0,127.0
20660,65.0,0,120,4.0,104.0
20661,53.0,0,120,4.0,104.0
20662,69.0,60,600,10.0,127.0
20663,81.0,0,90,8.0,127.0
20664,69.0,240,90,10.0,127.0
20665,81.0,180,42,8.0,127.0
20666,69.0,0,42,10.0,127.0
20667,62.0,60,576,4.0,80.0
20668,81.0,0,576,1.0,80.0
20669,50.0,0,576,6.0,125.0
20670,93.0,0,576,0.0,80.0
20671,62.0,0,576,5.0,100.0
20672,69.0,0,576,11.0,80.0
20673,74.0,0,576,5.0,100.0
20674,45.0,0,576,3.0,80.0
20675,50.0,0,576,4.0,80.0
20676,69.0,0,576,2.0,80.0
20677,81.0,0,576,2.0,80.0
20678,57.0,0,576,3.0,80.0
20679,45.0,0,576,13.0,80.0
20680,69.0,0,576,1.0,80.0
20681,57.0,0,576,12.0,80.0
20682,50.0,0,72,6.0,125.0
20683,50.0,240,72,4.0,80.0
20684,62.0,0,72,4.0,80.0
20685,69.0,0,72,11.0,80.0
20686,62.0,0,72,5.0,100.0
20687,69.0,0,72,2.0,80.0
20688,81.0,0,72,2.0,80.0
20689,69.0,0,72,1.0,80.0
20690,74.0,0,72,5.0,100.0
20691,45.0,0,72,13.0,80.0
20692,57.0,0,72,12.0,80.0
20693,81.0,0,72,1.0,80.0
20694,45.0,0,72,3.0,80.0
20695,57.0,0,72,3.0,80.0
20696,81.0,0,72,0.0,80.0
20697,62.0,0,48,4.0,80.0
20698,62.0,0,48,5.0,100.0
20699,50.0,0,48,6.0,125.0
20700,74.0,0,48,5.0,100.0
20701,57.0,0,48,12.0,80.0
20702,81.0,0,48,1.0,80.0
20703,45.0,180,48,13.0,80.0
20704,50.0,0,48,4.0,80.0
20705,69.0,0,48,2.0,80.0
20706,81.0,0,48,2.0,80.0
20707,81.0,0,48,0.0,80.0
20708,57.0,0,48,3.0,80.0
20709,69.0,0,48,11.0,80.0
20710,45.0,0,48,3.0,80.0
20711,69.0,0,48,1.0,80.0
20712,62.0,0,120,5.0,104.0
20713,74.0,60,120,5.0,104.0
20714,53.0,0,120,4.0,104.0
20715,65.0,0,120,4.0,104.0
20716,74.0,0,600,10.0,127.0
20717,86.0,60,600,8.0,127.0
20718,50.0,0,192,3.0,80.0
20719,86.0,0,192,1.0,80.0
20720,74.0,0,192,1.0,80.0
20721,62.0,0,192,3.0,80.0
20722,86.0,0,192,0.0,80.0
20723,74.0,0,192,4.0,80.0
20724,62.0,0,192,4.0,80.0
20725,74.0,0,192,2.0,80.0
20726,86.0,0,192,2.0,80.0
20727,50.0,0,192,6.0,104.0
20728,62.0,0,192,12.0,80.0
20729,50.0,0,192,13.0,80.0
20730,74.0,0,192,11.0,80.0
20731,86.0,0,72,0.0,80.0
20732,86.0,0,72,1.0,80.0
20733,62.0,0,72,3.0,80.0
20734,74.0,240,72,1.0,80.0
20735,74.0,0,72,2.0,80.0
20736,86.0,0,72,2.0,80.0
20737,74.0,0,72,11.0,80.0
20738,62.0,0,72,4.0,80.0
20739,50.0,0,72,3.0,80.0
20740,74.0,0,72,4.0,80.0
20741,62.0,0,72,12.0,80.0
20742,50.0,0,72,13.0,80.0
20743,74.0,0,90,10.0,104.0
20744,74.0,0,90,5.0,80.0
20745,50.0,0,90,6.0,80.0
20746,62.0,0,90,5.0,80.0
20747,86.0,0,90,8.0,104.0
20748,62.0,0,48,4.0,80.0
20749,86.0,0,48,2.0,80.0
20750,74.0,0,48,2.0,80.0
20751,62.0,0,48,12.0,80.0
20752,50.0,180,48,6.0,80.0
20753,50.0,0,48,13.0,80.0
20754,62.0,0,48,3.0,80.0
20755,74.0,0,48,10.0,104.0
20756,74.0,0,48,4.0,80.0
20757,62.0,0,48,5.0,80.0
20758,50.0,0,48,3.0,80.0
20759,86.0,0,48,8.0,104.0
20760,74.0,0,48,1.0,80.0
20761,86.0,0,48,0.0,80.0
20762,86.0,0,48,1.0,80.0
20763,74.0,0,48,5.0,80.0
20764,74.0,0,48,11.0,80.0
20765,77.0,0,120,10.0,104.0
20766,77.0,60,120,2.0,80.0
20767,53.0,0,120,3.0,80.0
20768,53.0,0,120,4.0,104.0
20769,89.0,0,120,8.0,104.0
20770,65.0,0,120,3.0,80.0
20771,65.0,0,120,2.0,80.0
20772,65.0,0,120,4.0,104.0
20773,77.0,0,120,4.0,80.0
20774,62.0,0,120,5.0,104.0
20775,74.0,0,120,5.0,104.0
20776,50.0,0,192,6.0,104.0
20777,53.0,0,226,13.0,80.0
20778,89.0,0,226,1.0,80.0
20779,65.0,0,226,12.0,80.0
20780,77.0,0,226,11.0,80.0
20781,77.0,0,226,1.0,80.0
20782,89.0,0,226,0.0,80.0
20783,65.0,0,72,4.0,80.0
20784,65.0,0,72,12.0,80.0
20785,77.0,0,72,4.0,80.0
20786,77.0,0,72,11.0,80.0
20787,65.0,0,72,2.0,80.0
20788,53.0,0,72,13.0,80.0
20789,77.0,0,72,2.0,80.0
20790,89.0,240,72,0.0,80.0
20791,77.0,0,72,1.0,80.0
20792,89.0,0,72,1.0,80.0
20793,65.0,0,72,3.0,80.0
20794,53.0,0,72,3.0,80.0
20795,74.0,0,90,5.0,80.0
20796,77.0,0,90,10.0,104.0
20797,89.0,0,90,8.0,104.0
20798,62.0,0,90,5.0,80.0
20799,50.0,0,90,6.0,80.0
20800,65.0,0,48,12.0,80.0
20801,50.0,0,48,6.0,80.0
20802,53.0,0,48,13.0,80.0
20803,77.0,0,48,4.0,80.0
20804,65.0,180,48,4.0,80.0
20805,77.0,0,48,2.0,80.0
20806,77.0,0,48,11.0,80.0
20807,65.0,0,48,2.0,80.0
20808,65.0,0,48,3.0,80.0
20809,77.0,0,48,10.0,104.0
20810,62.0,0,48,5.0,80.0
20811,77.0,0,48,1.0,80.0
20812,89.0,0,48,0.0,80.0
20813,89.0,0,48,1.0,80.0
20814,89.0,0,48,8.0,104.0
20815,74.0,0,48,5.0,80.0
20816,53.0,0,48,3.0,80.0
20817,93.0,0,120,0.0,104.0
20818,81.0,0,120,2.0,104.0
20819,81.0,0,120,1.0,104.0
20820,69.0,0,120,3.0,104.0
20821,69.0,0,120,12.0,104.0
20822,65.0,60,120,4.0,104.0
20823,69.0,0,120,4.0,104.0
20824,53.0,0,120,4.0,104.0
20825,69.0,0,120,11.0,104.0
20826,93.0,0,120,8.0,104.0
20827,81.0,0,120,10.0,104.0
20828,57.0,0,120,13.0,104.0
20829,62.0,0,120,5.0,104.0
20830,74.0,0,120,5.0,104.0
20831,50.0,0,192,6.0,104.0
20832,74.0,0,90,10.0,104.0
20833,74.0,0,90,1.0,104.0
20834,62.0,0,90,11.0,104.0
20835,50.0,0,90,13.0,104.0
20836,74.0,0,90,2.0,104.0
20837,86.0,0,90,0.0,104.0
20838,50.0,0,90,6.0,80.0
20839,74.0,240,90,5.0,80.0
20840,62.0,0,90,12.0,104.0
20841,62.0,0,90,5.0,80.0
20842,62.0,0,90,3.0,104.0
20843,62.0,0,90,4.0,104.0
20844,86.0,0,90,8.0,104.0
20845,74.0,0,48,10.0,104.0
20846,50.0,0,48,13.0,104.0
20847,74.0,0,48,5.0,80.0
20848,62.0,0,48,5.0,80.0
20849,50.0,0,48,6.0,80.0
20850,74.0,180,48,2.0,104.0
20851,86.0,0,48,8.0,104.0
20852,62.0,0,48,11.0,104.0
20853,62.0,0,48,3.0,104.0
20854,62.0,0,48,4.0,104.0
20855,62.0,0,48,12.0,104.0
20856,74.0,0,48,1.0,104.0
20857,86.0,0,48,0.0,104.0
20858,53.0,0,120,13.0,104.0
20859,65.0,0,120,3.0,104.0
20860,65.0,0,120,4.0,104.0
20861,89.0,0,120,8.0,104.0
20862,89.0,60,120,0.0,104.0
20863,65.0,0,120,12.0,104.0
20864,65.0,0,120,11.0,104.0
20865,77.0,0,120,10.0,104.0
20866,53.0,0,120,4.0,104.0
20867,77.0,0,120,2.0,104.0
20868,77.0,0,120,1.0,104.0
20869,62.0,0,120,5.0,104.0
20870,74.0,0,120,5.0,104.0
20871,50.0,0,192,6.0,104.0
20872,62.0,0,90,5.0,80.0
20873,74.0,0,90,5.0,80.0
20874,57.0,0,90,4.0,104.0
20875,69.0,0,90,1.0,104.0
20876,81.0,240,90,8.0,104.0
20877,57.0,0,90,11.0,104.0
20878,57.0,0,90,12.0,104.0
20879,69.0,0,90,2.0,104.0
20880,50.0,0,90,6.0,80.0
20881,57.0,0,90,3.0,104.0
20882,81.0,0,90,0.0,104.0
20883,69.0,0,90,10.0,104.0
20884,45.0,0,90,13.0,104.0
20885,57.0,0,48,3.0,104.0
20886,81.0,0,48,0.0,104.0
20887,50.0,0,48,6.0,80.0
20888,69.0,0,48,1.0,104.0
20889,57.0,0,48,4.0,104.0
20890,81.0,0,48,8.0,104.0
20891,57.0,0,48,11.0,104.0
20892,45.0,0,48,13.0,104.0
20893,57.0,0,48,12.0,104.0
20894,62.0,0,48,5.0,80.0
20895,69.0,180,48,2.0,104.0
20896,74.0,0,48,5.0,80.0
20897,69.0,0,48,10.0,104.0
20898,74.0,0,120,5.0,104.0
20899,86.0,0,120,8.0,104.0
20900,62.0,0,120,5.0,104.0
20901,62.0,0,120,11.0,104.0
20902,74.0,0,120,10.0,104.0
20903,65.0,0,120,4.0,104.0
20904,53.0,0,120,4.0,104.0
20905,62.0,60,120,4.0,104.0
20906,62.0,0,120,3.0,104.0
20907,74.0,0,120,1.0,104.0
20908,74.0,0,120,2.0,104.0
20909,86.0,0,120,0.0,104.0
20910,62.0,0,120,12.0,104.0
20911,50.0,0,120,13.0,104.0
20912,50.0,0,192,6.0,104.0
20913,77.0,0,90,8.0,104.0
20914,65.0,0,90,2.0,104.0
20915,77.0,0,90,1.0,104.0
20916,74.0,0,90,5.0,80.0
20917,62.0,0,90,5.0,80.0
20918,65.0,0,90,10.0,104.0
20919,53.0,0,90,11.0,104.0
20920,50.0,0,90,6.0,80.0
20921,53.0,0,90,3.0,104.0
20922,53.0,0,90,4.0,104.0
20923,53.0,240,90,12.0,104.0
20924,41.0,0,90,13.0,104.0
20925,89.0,0,90,0.0,104.0
20926,65.0,0,48,2.0,104.0
20927,50.0,0,48,6.0,80.0
20928,65.0,0,48,10.0,104.0
20929,77.0,180,48,1.0,104.0
20930,53.0,0,48,11.0,104.0
20931,53.0,0,48,12.0,104.0
20932,74.0,0,48,5.0,80.0
20933,62.0,0,48,5.0,80.0
20934,41.0,0,48,13.0,104.0
20935,89.0,0,48,0.0,104.0
20936,53.0,0,48,4.0,104.0
20937,53.0,0,48,3.0,104.0
20938,77.0,0,48,8.0,104.0
20939,93.0,0,120,0.0,104.0
20940,81.0,60,120,8.0,104.0
20941,57.0,0,120,3.0,104.0
20942,45.0,0,120,13.0,104.0
20943,57.0,0,120,4.0,104.0
20944,74.0,0,120,5.0,104.0
20945,69.0,0,120,10.0,104.0
20946,62.0,0,120,5.0,104.0
20947,57.0,0,120,12.0,104.0
20948,69.0,0,120,2.0,104.0
20949,65.0,0,120,4.0,104.0
20950,53.0,0,120,4.0,104.0
20951,81.0,0,120,1.0,104.0
20952,57.0,0,120,11.0,104.0
20953,50.0,0,192,6.0,104.0
20954,62.0,0,90,10.0,104.0
20955,74.0,0,90,1.0,104.0
20956,38.0,0,90,13.0,104.0
20957,74.0,240,90,8.0,104.0
20958,86.0,0,90,0.0,104.0
20959,50.0,0,90,11.0,104.0
20960,62.0,0,90,5.0,80.0
20961,74.0,0,90,5.0,80.0
20962,50.0,0,90,12.0,104.0
20963,62.0,0,90,2.0,104.0
20964,50.0,0,90,4.0,104.0
20965,50.0,0,90,3.0,104.0
20966,50.0,0,90,6.0,80.0
20967,62.0,0,48,2.0,104.0
20968,74.0,0,48,8.0,104.0
20969,50.0,0,48,3.0,104.0
20970,74.0,0,48,5.0,80.0
20971,50.0,0,48,12.0,104.0
20972,50.0,180,48,4.0,104.0
20973,74.0,0,48,1.0,104.0
20974,62.0,0,48,5.0,80.0
20975,50.0,0,48,11.0,104.0
20976,50.0,0,48,6.0,80.0
20977,38.0,0,48,13.0,104.0
20978,86.0,0,48,0.0,104.0
20979,62.0,0,48,10.0,104.0
20980,65.0,0,120,2.0,104.0
20981,77.0,0,120,8.0,104.0
20982,53.0,0,120,4.0,104.0
20983,65.0,0,120,10.0,104.0
20984,89.0,60,120,0.0,104.0
20985,53.0,0,120,12.0,104.0
20986,74.0,0,120,5.0,104.0
20987,62.0,0,120,5.0,104.0
20988,65.0,0,120,4.0,104.0
20989,41.0,0,120,13.0,104.0
20990,53.0,0,120,11.0,104.0
20991,77.0,0,120,1.0,104.0
20992,53.0,0,120,3.0,104.0
20993,50.0,0,192,6.0,104.0
20994,69.0,240,90,8.0,104.0
20995,69.0,0,90,2.0,104.0
20996,57.0,0,90,4.0,104.0
20997,57.0,0,90,3.0,104.0
20998,81.0,0,90,0.0,104.0
20999,50.0,0,90,6.0,80.0
21000,57.0,0,90,12.0,104.0
21001,57.0,0,90,10.0,104.0
21002,45.0,0,90,13.0,104.0
21003,74.0,0,90,5.0,80.0
21004,62.0,0,90,5.0,80.0
21005,57.0,0,90,11.0,104.0
21006,69.0,0,90,1.0,104.0
21007,57.0,0,48,12.0,104.0
21008,69.0,0,48,1.0,104.0
21009,45.0,0,48,13.0,104.0
21010,57.0,0,48,10.0,104.0
21011,50.0,0,48,6.0,80.0
21012,81.0,0,48,0.0,104.0
21013,57.0,0,48,3.0,104.0
21014,69.0,0,48,8.0,104.0
21015,57.0,180,48,4.0,104.0
21016,57.0,0,48,11.0,104.0
21017,62.0,0,48,5.0,80.0
21018,74.0,0,48,5.0,80.0
21019,69.0,0,48,2.0,104.0
21020,62.0,0,120,10.0,104.0
21021,62.0,0,120,4.0,104.0
21022,62.0,0,120,5.0,104.0
21023,65.0,0,120,4.0,104.0
21024,74.0,0,120,8.0,104.0
21025,62.0,0,120,3.0,104.0
21026,62.0,0,120,12.0,104.0
21027,74.0,0,120,1.0,104.0
21028,62.0,0,120,11.0,104.0
21029,74.0,0,120,5.0,104.0
21030,50.0,0,120,13.0,104.0
21031,74.0,0,120,2.0,104.0
21032,86.0,0,120,0.0,104.0
21033,53.0,0,120,4.0,104.0
21034,50.0,60,192,6.0,104.0
21035,65.0,0,90,8.0,104.0
21036,53.0,0,90,11.0,104.0
21037,65.0,0,90,2.0,104.0
21038,53.0,0,90,3.0,104.0
21039,41.0,0,90,13.0,104.0
21040,77.0,0,90,0.0,104.0
21041,74.0,0,90,5.0,80.0
21042,62.0,240,90,5.0,80.0
21043,53.0,0,90,4.0,104.0
21044,53.0,0,90,10.0,104.0
21045,53.0,0,90,12.0,104.0
21046,65.0,0,90,1.0,104.0
21047,50.0,0,90,6.0,80.0
21048,53.0,0,48,4.0,104.0
21049,41.0,0,48,13.0,104.0
21050,65.0,0,48,8.0,104.0
21051,50.0,0,48,6.0,80.0
21052,53.0,0,48,12.0,104.0
21053,74.0,0,48,5.0,80.0
21054,77.0,0,48,0.0,104.0
21055,53.0,0,48,3.0,104.0
21056,65.0,0,48,2.0,104.0
21057,65.0,0,48,1.0,104.0
21058,53.0,180,48,10.0,104.0
21059,53.0,0,48,11.0,104.0
21060,62.0,0,48,5.0,80.0
21061,81.0,0,120,0.0,104.0
21062,69.0,0,120,2.0,104.0
21063,74.0,0,120,5.0,104.0
21064,57.0,0,120,4.0,104.0
21065,69.0,0,120,8.0,104.0
21066,45.0,0,120,13.0,104.0
21067,57.0,0,120,11.0,104.0
21068,62.0,0,120,5.0,104.0
21069,53.0,60,120,4.0,104.0
21070,57.0,0,120,10.0,104.0
21071,57.0,0,120,3.0,104.0
21072,65.0,0,120,4.0,104.0
21073,69.0,0,120,1.0,104.0
21074,57.0,0,120,12.0,104.0
21075,50.0,0,192,6.0,104.0
21076,62.0,0,90,1.0,104.0
21077,50.0,0,90,3.0,104.0
21078,50.0,0,90,10.0,104.0
21079,50.0,240,90,6.0,80.0
21080,50.0,0,90,12.0,104.0
21081,74.0,0,90,0.0,104.0
21082,50.0,0,90,11.0,104.0
21083,62.0,0,90,2.0,104.0
21084,74.0,0,90,5.0,80.0
21085,62.0,0,90,8.0,104.0
21086,62.0,0,90,5.0,80.0
21087,62.0,0,90,4.0,104.0
21088,50.0,0,90,4.0,104.0
21089,38.0,0,90,13.0,104.0
21090,38.0,0,48,13.0,104.0
21091,62.0,0,48,2.0,104.0
21092,50.0,0,48,4.0,104.0
21093,50.0,0,48,6.0,80.0
21094,50.0,0,48,3.0,104.0
21095,50.0,0,48,12.0,104.0
21096,50.0,0,48,11.0,104.0
21097,62.0,0,48,8.0,104.0
21098,62.0,0,48,1.0,104.0
21099,62.0,0,48,4.0,104.0
21100,62.0,0,48,5.0,80.0
21101,74.0,180,48,5.0,80.0
21102,50.0,0,48,10.0,104.0
21103,74.0,0,48,0.0,104.0
21104,74.0,60,120,5.0,104.0
21105,50.0,0,120,13.0,104.0
21106,62.0,0,120,5.0,104.0
21107,62.0,0,120,4.0,104.0
21108,53.0,0,120,4.0,104.0
21109,65.0,0,120,4.0,104.0
21110,62.0,0,120,11.0,104.0
21111,74.0,0,120,1.0,104.0
21112,74.0,0,120,8.0,104.0
21113,62.0,0,120,3.0,104.0
21114,62.0,0,120,12.0,104.0
21115,74.0,0,120,2.0,104.0
21116,86.0,0,120,0.0,104.0
21117,62.0,0,120,10.0,104.0
21118,50.0,0,192,6.0,104.0
21119,62.0,0,90,8.0,102.0
21120,50.0,0,90,11.0,102.0
21121,50.0,0,90,10.0,102.0
21122,50.0,0,90,12.0,102.0
21123,74.0,0,90,5.0,90.0
21124,38.0,0,90,13.0,102.0
21125,62.0,0,90,5.0,90.0
21126,50.0,0,90,6.0,90.0
21127,50.0,0,114,4.0,102.0
21128,62.0,0,114,4.0,102.0
21129,50.0,0,144,3.0,90.0
21130,74.0,0,144,0.0,90.0
21131,62.0,0,144,1.0,90.0
21132,62.0,240,144,2.0,90.0
21133,86.0,0,48,8.0,73.0
21134,50.0,0,48,3.0,40.0
21135,74.0,0,48,0.0,40.0
21136,62.0,0,48,2.0,40.0
21137,50.0,180,48,6.0,40.0
21138,62.0,0,48,5.0,40.0
21139,74.0,0,48,5.0,40.0
21140,57.0,0,64,11.0,40.0
21141,53.0,60,64,11.0,40.0
21142,69.0,0,64,10.0,40.0
21143,65.0,0,64,10.0,40.0
21144,69.0,0,96,2.0,39.0
21145,65.0,0,96,2.0,39.0
21146,50.0,0,120,12.0,39.0
21147,38.0,0,120,13.0,39.0
21148,65.0,80,64,10.0,40.0
21149,69.0,0,64,10.0,40.0
21150,57.0,0,64,11.0,40.0
21151,53.0,0,64,11.0,40.0
21152,74.0,0,192,0.0,32.0
21153,69.0,0,64,10.0,40.0
21154,57.0,0,64,11.0,40.0
21155,65.0,80,64,10.0,40.0
21156,53.0,0,64,11.0,40.0
21157,53.0,0,64,11.0,40.0
21158,65.0,80,64,10.0,40.0
21159,57.0,0,64,11.0,40.0
21160,69.0,0,64,10.0,40.0
21161,69.0,0,96,2.0,39.0
21162,65.0,0,96,2.0,39.0
21163,50.0,0,120,12.0,39.0
21164,38.0,0,120,13.0,39.0
21165,65.0,80,64,10.0,40.0
21166,69.0,0,64,10.0,40.0
21167,57.0,0,64,11.0,40.0
21168,53.0,0,64,11.0,40.0
21169,65.0,0,64,10.0,40.0
21170,69.0,80,64,10.0,40.0
21171,53.0,0,64,11.0,40.0
21172,57.0,0,64,11.0,40.0
21173,57.0,0,64,11.0,40.0
21174,53.0,80,64,11.0,40.0
21175,69.0,0,64,10.0,40.0
21176,65.0,0,64,10.0,40.0
21177,65.0,0,64,10.0,40.0
21178,69.0,0,64,10.0,40.0
21179,57.0,0,64,11.0,40.0
21180,53.0,80,64,11.0,40.0
21181,57.0,0,64,11.0,40.0
21182,69.0,80,64,10.0,40.0
21183,53.0,0,64,11.0,40.0
21184,65.0,0,64,10.0,40.0
21185,81.0,0,778,8.0,57.0
21186,57.0,0,778,3.0,57.0
21187,57.0,0,64,11.0,40.0
21188,53.0,0,64,11.0,40.0
21189,69.0,0,64,10.0,40.0
21190,65.0,0,64,10.0,40.0
21191,69.0,0,96,2.0,39.0
21192,57.0,0,96,2.0,39.0
21193,57.0,0,64,11.0,40.0
21194,69.0,0,64,10.0,40.0
21195,65.0,0,64,10.0,40.0
21196,53.0,80,64,11.0,40.0
21197,41.0,80,192,15.0,35.0
21198,53.0,0,192,15.0,35.0
21199,65.0,80,64,10.0,40.0
21200,53.0,0,64,11.0,40.0
21201,57.0,0,64,11.0,40.0
21202,69.0,0,64,10.0,40.0
21203,77.0,0,48,8.0,46.0
21204,53.0,20,48,3.0,46.0
21205,65.0,0,64,10.0,40.0
21206,69.0,0,64,10.0,40.0
21207,53.0,0,64,11.0,40.0
21208,57.0,0,64,11.0,40.0
21209,65.0,80,64,10.0,40.0
21210,57.0,0,64,11.0,40.0
21211,69.0,0,64,10.0,40.0
21212,53.0,0,64,11.0,40.0
21213,53.0,0,64,11.0,40.0
21214,57.0,80,64,11.0,40.0
21215,65.0,0,64,10.0,40.0
21216,69.0,0,64,10.0,40.0
21217,69.0,0,64,10.0,40.0
21218,53.0,0,64,11.0,40.0
21219,65.0,0,64,10.0,40.0
21220,57.0,0,64,11.0,40.0
21221,74.0,60,336,8.0,57.0
21222,50.0,0,336,3.0,57.0
21223,62.0,0,96,2.0,39.0
21224,74.0,0,96,2.0,39.0
21225,69.0,80,64,10.0,40.0
21226,65.0,0,64,10.0,40.0
21227,57.0,0,64,11.0,40.0
21228,53.0,0,64,11.0,40.0
21229,57.0,0,192,15.0,35.0
21230,45.0,80,192,15.0,35.0
21231,69.0,80,64,10.0,40.0
21232,65.0,0,64,10.0,40.0
21233,53.0,0,64,11.0,40.0
21234,57.0,0,64,11.0,40.0
21235,69.0,0,48,8.0,57.0
21236,45.0,20,48,3.0,57.0
21237,65.0,60,64,10.0,40.0
21238,69.0,0,64,10.0,40.0
21239,53.0,0,64,11.0,40.0
21240,57.0,0,64,11.0,40.0
21241,69.0,0,64,10.0,40.0
21242,53.0,0,64,11.0,40.0
21243,57.0,80,64,11.0,40.0
21244,65.0,0,64,10.0,40.0
21245,57.0,80,64,11.0,40.0
21246,69.0,0,64,10.0,40.0
21247,53.0,0,64,11.0,40.0
21248,65.0,0,64,10.0,40.0
21249,41.0,0,288,3.0,57.0
21250,65.0,0,288,8.0,57.0
21251,53.0,0,64,11.0,40.0
21252,57.0,0,64,11.0,40.0
21253,65.0,80,64,10.0,40.0
21254,69.0,0,64,10.0,40.0
21255,77.0,0,96,2.0,39.0
21256,65.0,0,96,2.0,39.0
21257,57.0,0,64,11.0,40.0
21258,53.0,80,64,11.0,40.0
21259,69.0,0,1824,4.0,95.0
21260,65.0,0,1824,4.0,95.0
21261,65.0,0,64,10.0,40.0
21262,69.0,0,64,10.0,40.0
21263,69.0,40,48,8.0,49.0
21264,45.0,0,48,3.0,49.0
21265,62.0,0,192,15.0,35.0
21266,50.0,0,192,15.0,35.0
21267,53.0,0,64,11.0,40.0
21268,65.0,0,64,10.0,40.0
21269,69.0,40,64,10.0,40.0
21270,57.0,0,64,11.0,40.0
21271,69.0,0,48,4.0,95.0
21272,57.0,0,48,4.0,95.0
21273,65.0,0,48,8.0,49.0
21274,41.0,20,48,3.0,49.0
21275,69.0,0,64,10.0,40.0
21276,53.0,0,64,11.0,40.0
21277,65.0,0,64,10.0,40.0
21278,57.0,60,64,11.0,40.0
21279,53.0,0,64,11.0,40.0
21280,69.0,0,64,10.0,40.0
21281,57.0,0,64,11.0,40.0
21282,65.0,80,64,10.0,40.0
21283,57.0,0,64,11.0,40.0
21284,53.0,80,64,11.0,40.0
21285,65.0,0,64,10.0,40.0
21286,69.0,0,64,10.0,40.0
21287,53.0,0,64,11.0,40.0
21288,65.0,0,64,10.0,40.0
21289,69.0,0,64,10.0,40.0
21290,57.0,0,64,11.0,40.0
21291,69.0,0,96,2.0,39.0
21292,81.0,80,96,2.0,39.0
21293,53.0,0,64,11.0,40.0
21294,65.0,80,64,10.0,40.0
21295,57.0,0,64,11.0,40.0
21296,38.0,0,384,3.0,61.0
21297,69.0,0,64,10.0,40.0
21298,53.0,0,192,15.0,35.0
21299,65.0,0,192,15.0,35.0
21300,53.0,80,64,11.0,40.0
21301,65.0,0,64,10.0,40.0
21302,69.0,0,64,10.0,40.0
21303,57.0,0,64,11.0,40.0
21304,57.0,0,64,11.0,40.0
21305,53.0,0,64,11.0,40.0
21306,69.0,80,64,10.0,40.0
21307,65.0,0,64,10.0,40.0
21308,62.0,0,600,8.0,61.0
21309,57.0,80,64,11.0,40.0
21310,65.0,0,64,10.0,40.0
21311,53.0,0,64,11.0,40.0
21312,69.0,0,64,10.0,40.0
21313,65.0,40,60,8.0,57.0
21314,69.0,0,64,10.0,40.0
21315,53.0,40,64,11.0,40.0
21316,65.0,0,64,10.0,40.0
21317,57.0,0,64,11.0,40.0
21318,64.0,0,60,8.0,57.0
21319,69.0,0,64,10.0,40.0
21320,65.0,80,64,10.0,40.0
21321,53.0,0,64,11.0,40.0
21322,57.0,0,64,11.0,40.0
21323,74.0,0,96,2.0,39.0
21324,77.0,0,96,2.0,39.0
21325,65.0,0,834,4.0,95.0
21326,53.0,0,834,4.0,95.0
21327,57.0,0,64,11.0,40.0
21328,53.0,0,64,11.0,40.0
21329,65.0,0,64,10.0,40.0
21330,69.0,80,64,10.0,40.0
21331,62.0,40,60,8.0,57.0
21332,57.0,0,192,15.0,35.0
21333,69.0,0,192,15.0,35.0
21334,65.0,0,64,10.0,40.0
21335,57.0,40,64,11.0,40.0
21336,53.0,0,64,11.0,40.0
21337,69.0,0,64,10.0,40.0
21338,50.0,20,48,4.0,95.0
21339,62.0,0,48,4.0,95.0
21340,69.0,0,64,10.0,40.0
21341,65.0,0,64,10.0,40.0
21342,57.0,0,64,11.0,40.0
21343,53.0,0,64,11.0,40.0
21344,57.0,0,64,11.0,40.0
21345,53.0,0,64,11.0,40.0
21346,65.0,80,64,10.0,40.0
21347,69.0,0,64,10.0,40.0
21348,69.0,80,64,10.0,40.0
21349,65.0,0,64,10.0,40.0
21350,53.0,0,64,11.0,40.0
21351,57.0,0,64,11.0,40.0
21352,57.0,0,288,4.0,95.0
21353,45.0,60,288,4.0,95.0
21354,65.0,0,64,10.0,40.0
21355,69.0,0,64,10.0,40.0
21356,57.0,0,64,11.0,40.0
21357,53.0,0,64,11.0,40.0
21358,65.0,0,96,2.0,39.0
21359,74.0,80,96,2.0,39.0
21360,69.0,0,64,10.0,40.0
21361,65.0,80,64,10.0,40.0
21362,53.0,0,64,11.0,40.0
21363,57.0,0,64,11.0,40.0
21364,50.0,40,48,4.0,95.0
21365,62.0,0,48,4.0,95.0
21366,69.0,0,192,15.0,35.0
21367,57.0,0,192,15.0,35.0
21368,69.0,0,64,10.0,40.0
21369,65.0,0,64,10.0,40.0
21370,53.0,0,64,11.0,40.0
21371,57.0,40,64,11.0,40.0
21372,65.0,20,48,4.0,95.0
21373,53.0,0,48,4.0,95.0
21374,81.0,0,3360,1.0,95.0
21375,77.0,0,3360,1.0,95.0
21376,62.0,0,480,8.0,61.0
21377,59.0,0,64,11.0,40.0
21378,55.0,0,64,11.0,40.0
21379,67.0,0,64,10.0,40.0
21380,71.0,0,64,10.0,40.0
21381,61.0,0,120,8.0,57.0
21382,71.0,0,64,10.0,40.0
21383,59.0,0,64,11.0,40.0
21384,55.0,0,64,11.0,40.0
21385,67.0,80,64,10.0,40.0
21386,59.0,0,64,11.0,40.0
21387,67.0,0,64,10.0,40.0
21388,55.0,40,64,11.0,40.0
21389,71.0,0,64,10.0,40.0
21390,58.0,0,120,3.0,56.0
21391,70.0,40,120,8.0,46.0
21392,57.0,0,48,3.0,56.0
21393,55.0,0,64,11.0,40.0
21394,67.0,0,64,10.0,40.0
21395,59.0,0,64,11.0,40.0
21396,71.0,80,64,10.0,40.0
21397,69.0,0,90,8.0,57.0
21398,73.0,0,96,2.0,39.0
21399,76.0,0,96,2.0,39.0
21400,64.0,0,336,4.0,95.0
21401,67.0,0,336,4.0,95.0
21402,71.0,0,64,10.0,40.0
21403,67.0,0,64,10.0,40.0
21404,59.0,0,64,11.0,40.0
21405,55.0,80,64,11.0,40.0
21406,57.0,0,192,15.0,35.0
21407,69.0,0,192,15.0,35.0
21408,55.0,0,64,11.0,40.0
21409,59.0,0,64,11.0,40.0
21410,71.0,0,64,10.0,40.0
21411,67.0,80,64,10.0,40.0
21412,55.0,0,48,3.0,56.0
21413,67.0,20,48,4.0,95.0
21414,64.0,0,48,4.0,95.0
21415,79.0,0,58,8.0,57.0
21416,76.0,0,480,1.0,95.0
21417,79.0,0,0,1.0,95.0
21418,70.0,0,64,10.0,40.0
21419,67.0,0,64,10.0,40.0
21420,61.0,0,64,11.0,40.0
21421,64.0,0,64,11.0,40.0
21422,67.0,0,64,10.0,40.0
21423,70.0,0,64,10.0,40.0
21424,61.0,80,64,11.0,40.0
21425,64.0,0,64,11.0,40.0
21426,61.0,0,64,11.0,40.0
21427,64.0,80,64,11.0,40.0
21428,67.0,0,64,10.0,40.0
21429,70.0,0,64,10.0,40.0
21430,67.0,0,64,10.0,40.0
21431,64.0,0,64,11.0,40.0
21432,61.0,80,64,11.0,40.0
21433,70.0,0,64,10.0,40.0
21434,55.0,0,96,2.0,39.0
21435,67.0,0,96,2.0,39.0
21436,61.0,0,64,11.0,40.0
21437,70.0,80,64,10.0,40.0
21438,67.0,0,64,10.0,40.0
21439,64.0,0,64,11.0,40.0
21440,40.0,0,192,15.0,35.0
21441,52.0,0,192,15.0,35.0
21442,70.0,0,64,10.0,40.0
21443,67.0,80,64,10.0,40.0
21444,64.0,0,64,11.0,40.0
21445,61.0,0,64,11.0,40.0
21446,70.0,0,64,10.0,40.0
21447,67.0,0,64,10.0,40.0
21448,64.0,80,64,11.0,40.0
21449,61.0,0,64,11.0,40.0
21450,61.0,0,64,11.0,40.0
21451,70.0,0,64,10.0,40.0
21452,67.0,80,64,10.0,40.0
21453,64.0,0,64,11.0,40.0
21454,61.0,0,64,11.0,40.0
21455,70.0,0,64,10.0,40.0
21456,64.0,80,64,11.0,40.0
21457,67.0,0,64,10.0,40.0
21458,79.0,0,778,8.0,57.0
21459,67.0,0,778,3.0,57.0
21460,70.0,0,64,10.0,40.0
21461,64.0,0,64,11.0,40.0
21462,67.0,0,64,10.0,40.0
21463,61.0,0,64,11.0,40.0
21464,58.0,0,96,2.0,39.0
21465,70.0,0,96,2.0,39.0
21466,67.0,0,64,10.0,40.0
21467,61.0,0,64,11.0,40.0
21468,70.0,80,64,10.0,40.0
21469,64.0,0,64,11.0,40.0
21470,43.0,0,192,15.0,35.0
21471,55.0,80,192,15.0,35.0
21472,64.0,0,64,11.0,40.0
21473,61.0,80,64,11.0,40.0
21474,70.0,0,64,10.0,40.0
21475,67.0,0,64,10.0,40.0
21476,64.0,0,48,3.0,46.0
21477,76.0,20,48,8.0,46.0
21478,64.0,0,64,11.0,40.0
21479,61.0,0,64,11.0,40.0
21480,67.0,0,64,10.0,40.0
21481,70.0,60,64,10.0,40.0
21482,67.0,0,64,10.0,40.0
21483,70.0,0,64,10.0,40.0
21484,64.0,80,64,11.0,40.0
21485,61.0,0,64,11.0,40.0
21486,61.0,0,64,11.0,40.0
21487,70.0,0,64,10.0,40.0
21488,67.0,80,64,10.0,40.0
21489,64.0,0,64,11.0,40.0
21490,64.0,0,64,11.0,40.0
21491,67.0,80,64,10.0,40.0
21492,70.0,0,64,10.0,40.0
21493,61.0,0,64,11.0,40.0
21494,73.0,0,336,8.0,57.0
21495,61.0,0,96,2.0,39.0
21496,61.0,0,336,3.0,57.0
21497,73.0,0,96,2.0,39.0
21498,67.0,0,64,10.0,40.0
21499,61.0,0,64,11.0,40.0
21500,64.0,80,64,11.0,40.0
21501,70.0,0,64,10.0,40.0
21502,58.0,0,192,15.0,35.0
21503,46.0,0,192,15.0,35.0
21504,67.0,0,64,10.0,40.0
21505,61.0,0,64,11.0,40.0
21506,70.0,0,64,10.0,40.0
21507,64.0,80,64,11.0,40.0
21508,70.0,0,48,8.0,57.0
21509,58.0,20,48,3.0,57.0
21510,64.0,0,64,11.0,40.0
21511,61.0,0,64,11.0,40.0
21512,67.0,0,64,10.0,40.0
21513,70.0,0,64,10.0,40.0
21514,61.0,0,64,11.0,40.0
21515,67.0,0,64,10.0,40.0
21516,70.0,0,64,10.0,40.0
21517,64.0,80,64,11.0,40.0
21518,67.0,0,64,10.0,40.0
21519,64.0,0,64,11.0,40.0
21520,61.0,0,64,11.0,40.0
21521,70.0,40,64,10.0,40.0
21522,82.0,40,120,0.0,73.0
21523,81.0,0,48,0.0,73.0
21524,55.0,0,288,3.0,57.0
21525,67.0,60,288,8.0,57.0
21526,61.0,0,64,11.0,40.0
21527,70.0,0,64,10.0,40.0
21528,67.0,0,64,10.0,40.0
21529,64.0,80,64,11.0,40.0
21530,64.0,0,96,2.0,39.0
21531,76.0,0,96,2.0,39.0
21532,64.0,0,64,11.0,40.0
21533,61.0,80,64,11.0,40.0
21534,67.0,0,64,10.0,40.0
21535,70.0,0,64,10.0,40.0
21536,67.0,40,48,8.0,49.0
21537,55.0,0,48,3.0,49.0
21538,61.0,0,192,15.0,35.0
21539,49.0,0,192,15.0,35.0
21540,70.0,40,64,10.0,40.0
21541,67.0,0,64,10.0,40.0
21542,61.0,0,64,11.0,40.0
21543,64.0,0,64,11.0,40.0
21544,52.0,20,48,3.0,49.0
21545,64.0,0,48,8.0,49.0
21546,79.0,0,48,0.0,73.0
21547,70.0,0,64,10.0,40.0
21548,67.0,0,64,10.0,40.0
21549,64.0,0,64,11.0,40.0
21550,61.0,60,64,11.0,40.0
21551,61.0,0,64,11.0,40.0
21552,64.0,80,64,11.0,40.0
21553,67.0,0,64,10.0,40.0
21554,70.0,0,64,10.0,40.0
21555,70.0,80,64,10.0,40.0
21556,67.0,0,64,10.0,40.0
21557,61.0,0,64,11.0,40.0
21558,64.0,0,64,11.0,40.0
21559,70.0,0,64,10.0,40.0
21560,67.0,0,64,10.0,40.0
21561,64.0,0,64,11.0,40.0
21562,61.0,0,64,11.0,40.0
21563,67.0,0,96,2.0,39.0
21564,79.0,0,96,2.0,39.0
21565,49.0,0,384,3.0,61.0
21566,67.0,0,64,10.0,40.0
21567,70.0,80,64,10.0,40.0
21568,61.0,0,64,11.0,40.0
21569,64.0,0,64,11.0,40.0
21570,64.0,80,192,15.0,35.0
21571,52.0,0,192,15.0,35.0
21572,61.0,0,64,11.0,40.0
21573,64.0,0,64,11.0,40.0
21574,67.0,0,64,10.0,40.0
21575,70.0,80,64,10.0,40.0
21576,70.0,80,64,10.0,40.0
21577,67.0,0,64,10.0,40.0
21578,61.0,0,64,11.0,40.0
21579,64.0,0,64,11.0,40.0
21580,61.0,0,600,8.0,61.0
21581,70.0,80,64,10.0,40.0
21582,67.0,0,64,10.0,40.0
21583,64.0,0,64,11.0,40.0
21584,61.0,0,64,11.0,40.0
21585,70.0,40,60,8.0,57.0
21586,61.0,0,64,11.0,40.0
21587,64.0,0,64,11.0,40.0
21588,70.0,40,64,10.0,40.0
21589,67.0,0,64,10.0,40.0
21590,91.0,0,778,0.0,74.0
21591,69.0,0,60,8.0,57.0
21592,64.0,80,64,11.0,40.0
21593,67.0,0,64,10.0,40.0
21594,70.0,0,64,10.0,40.0
21595,61.0,0,64,11.0,40.0
21596,82.0,0,96,2.0,39.0
21597,70.0,0,96,2.0,39.0
21598,64.0,0,64,11.0,40.0
21599,61.0,0,64,11.0,40.0
21600,67.0,0,64,10.0,40.0
21601,70.0,80,64,10.0,40.0
21602,67.0,40,60,8.0,57.0
21603,67.0,0,192,15.0,35.0
21604,55.0,0,192,15.0,35.0
21605,61.0,0,64,11.0,40.0
21606,67.0,0,64,10.0,40.0
21607,70.0,0,64,10.0,40.0
21608,64.0,40,64,11.0,40.0
21609,88.0,20,48,0.0,60.0
21610,64.0,0,64,11.0,40.0
21611,67.0,0,64,10.0,40.0
21612,61.0,0,64,11.0,40.0
21613,70.0,0,64,10.0,40.0
21614,67.0,0,64,10.0,40.0
21615,70.0,0,64,10.0,40.0
21616,61.0,0,64,11.0,40.0
21617,64.0,80,64,11.0,40.0
21618,61.0,0,64,11.0,40.0
21619,70.0,0,64,10.0,40.0
21620,64.0,80,64,11.0,40.0
21621,67.0,0,64,10.0,40.0
21622,85.0,0,226,0.0,74.0
21623,64.0,0,64,11.0,40.0
21624,70.0,0,64,10.0,40.0
21625,61.0,0,64,11.0,40.0
21626,67.0,0,64,10.0,40.0
21627,76.0,0,96,2.0,39.0
21628,64.0,0,96,2.0,39.0
21629,61.0,0,64,11.0,40.0
21630,64.0,80,64,11.0,40.0
21631,70.0,0,64,10.0,40.0
21632,67.0,0,64,10.0,40.0
21633,82.0,40,48,0.0,74.0
21634,57.0,0,192,15.0,35.0
21635,69.0,80,192,15.0,35.0
21636,67.0,0,64,10.0,40.0
21637,61.0,40,64,11.0,40.0
21638,64.0,0,64,11.0,40.0
21639,70.0,0,64,10.0,40.0
21640,79.0,20,58,0.0,74.0
21641,67.0,60,3360,4.0,95.0
21642,64.0,0,3360,4.0,95.0
21643,76.0,0,3360,1.0,95.0
21644,67.0,60,480,8.0,61.0
21645,66.0,0,64,11.0,40.0
21646,62.0,0,64,11.0,40.0
21647,72.0,0,64,10.0,40.0
21648,69.0,0,64,10.0,40.0
21649,69.0,0,120,8.0,57.0
21650,69.0,0,64,10.0,40.0
21651,66.0,80,64,11.0,40.0
21652,62.0,0,64,11.0,40.0
21653,72.0,0,64,10.0,40.0
21654,72.0,0,64,10.0,40.0
21655,68.0,40,64,10.0,40.0
21656,66.0,0,64,11.0,40.0
21657,62.0,0,64,11.0,40.0
21658,78.0,60,226,0.0,64.0
21659,60.0,40,120,3.0,56.0
21660,72.0,0,120,8.0,46.0
21661,58.0,80,48,3.0,56.0
21662,72.0,0,64,10.0,40.0
21663,66.0,0,64,11.0,40.0
21664,68.0,0,64,10.0,40.0
21665,62.0,0,64,11.0,40.0
21666,70.0,0,90,8.0,57.0
21667,66.0,0,96,2.0,39.0
21668,78.0,0,96,2.0,39.0
21669,66.0,0,64,11.0,40.0
21670,62.0,80,64,11.0,40.0
21671,72.0,0,64,10.0,40.0
21672,68.0,0,64,10.0,40.0
21673,50.0,0,192,15.0,35.0
21674,38.0,0,192,15.0,35.0
21675,72.0,0,64,10.0,40.0
21676,62.0,0,64,11.0,40.0
21677,66.0,80,64,11.0,40.0
21678,68.0,0,64,10.0,40.0
21679,57.0,20,48,3.0,56.0
21680,84.0,0,58,8.0,57.0
21681,72.0,0,480,1.0,95.0
21682,81.0,0,480,1.0,95.0
21683,63.0,0,64,11.0,40.0
21684,60.0,0,64,11.0,40.0
21685,66.0,0,64,10.0,40.0
21686,72.0,0,64,10.0,40.0
21687,60.0,0,64,11.0,40.0
21688,72.0,0,64,10.0,40.0
21689,66.0,0,64,10.0,40.0
21690,63.0,80,64,11.0,40.0
21691,60.0,0,64,11.0,40.0
21692,63.0,0,64,11.0,40.0
21693,66.0,80,64,10.0,40.0
21694,72.0,0,64,10.0,40.0
21695,60.0,0,64,11.0,40.0
21696,63.0,0,64,11.0,40.0
21697,72.0,0,64,10.0,40.0
21698,66.0,0,64,10.0,40.0
21699,57.0,80,96,2.0,39.0
21700,69.0,0,96,2.0,39.0
21701,72.0,0,64,10.0,40.0
21702,66.0,0,64,10.0,40.0
21703,60.0,0,64,11.0,40.0
21704,63.0,80,64,11.0,40.0
21705,42.0,0,192,15.0,35.0
21706,30.0,0,192,15.0,35.0
21707,60.0,0,64,11.0,40.0
21708,63.0,0,64,11.0,40.0
21709,72.0,0,64,10.0,40.0
21710,66.0,80,64,10.0,40.0
21711,72.0,0,64,10.0,40.0
21712,63.0,0,64,11.0,40.0
21713,66.0,80,64,10.0,40.0
21714,60.0,0,64,11.0,40.0
21715,63.0,0,64,11.0,40.0
21716,60.0,0,64,11.0,40.0
21717,66.0,0,64,10.0,40.0
21718,72.0,80,64,10.0,40.0
21719,72.0,80,64,10.0,40.0
21720,66.0,0,64,10.0,40.0
21721,60.0,0,64,11.0,40.0
21722,63.0,0,64,11.0,40.0
21723,60.0,60,778,3.0,57.0
21724,84.0,0,778,8.0,57.0
21725,66.0,0,64,10.0,40.0
21726,72.0,0,64,10.0,40.0
21727,63.0,0,64,11.0,40.0
21728,60.0,80,64,11.0,40.0
21729,72.0,0,96,2.0,39.0
21730,60.0,0,96,2.0,39.0
21731,66.0,0,64,10.0,40.0
21732,72.0,0,64,10.0,40.0
21733,63.0,80,64,11.0,40.0
21734,60.0,0,64,11.0,40.0
21735,33.0,0,192,15.0,35.0
21736,45.0,0,192,15.0,35.0
21737,72.0,0,64,10.0,40.0
21738,63.0,0,64,11.0,40.0
21739,60.0,80,64,11.0,40.0
21740,66.0,0,64,10.0,40.0
21741,57.0,0,48,3.0,46.0
21742,81.0,20,48,8.0,46.0
21743,63.0,0,64,11.0,40.0
21744,60.0,0,64,11.0,40.0
21745,66.0,0,64,10.0,40.0
21746,72.0,0,64,10.0,40.0
21747,66.0,0,64,10.0,40.0
21748,72.0,0,64,10.0,40.0
21749,63.0,0,64,11.0,40.0
21750,60.0,80,64,11.0,40.0
21751,72.0,0,64,10.0,40.0
21752,66.0,80,64,10.0,40.0
21753,63.0,0,64,11.0,40.0
21754,60.0,0,64,11.0,40.0
21755,60.0,80,64,11.0,40.0
21756,72.0,0,64,10.0,40.0
21757,66.0,0,64,10.0,40.0
21758,63.0,0,64,11.0,40.0
21759,63.0,0,96,2.0,39.0
21760,54.0,0,336,3.0,57.0
21761,78.0,60,336,8.0,57.0
21762,75.0,0,96,2.0,39.0
21763,60.0,80,64,11.0,40.0
21764,66.0,0,64,10.0,40.0
21765,72.0,0,64,10.0,40.0
21766,63.0,0,64,11.0,40.0
21767,36.0,0,192,15.0,35.0
21768,48.0,0,192,15.0,35.0
21769,63.0,0,64,11.0,40.0
21770,72.0,0,64,10.0,40.0
21771,60.0,0,64,11.0,40.0
21772,66.0,80,64,10.0,40.0
21773,51.0,0,48,3.0,57.0
21774,75.0,20,48,8.0,57.0
21775,72.0,0,64,10.0,40.0
21776,60.0,0,64,11.0,40.0
21777,66.0,60,64,10.0,40.0
21778,63.0,0,64,11.0,40.0
21779,63.0,0,64,11.0,40.0
21780,60.0,80,64,11.0,40.0
21781,72.0,0,64,10.0,40.0
21782,66.0,0,64,10.0,40.0
21783,60.0,40,64,11.0,40.0
21784,63.0,0,64,11.0,40.0
21785,66.0,0,64,10.0,40.0
21786,72.0,0,64,10.0,40.0
21787,75.0,40,120,2.0,56.0
21788,48.0,0,288,3.0,57.0
21789,72.0,0,288,8.0,57.0
21790,74.0,0,48,2.0,56.0
21791,66.0,80,64,10.0,40.0
21792,60.0,0,64,11.0,40.0
21793,72.0,0,64,10.0,40.0
21794,63.0,0,64,11.0,40.0
21795,66.0,0,96,2.0,39.0
21796,63.0,0,64,11.0,40.0
21797,66.0,80,64,10.0,40.0
21798,72.0,0,64,10.0,40.0
21799,60.0,0,64,11.0,40.0
21800,72.0,40,48,8.0,49.0
21801,48.0,0,48,3.0,49.0
21802,51.0,0,192,15.0,35.0
21803,39.0,0,192,15.0,35.0
21804,66.0,40,64,10.0,40.0
21805,72.0,0,64,10.0,40.0
21806,63.0,0,64,11.0,40.0
21807,60.0,0,64,11.0,40.0
21808,69.0,20,48,8.0,49.0
21809,45.0,0,48,3.0,49.0
21810,72.0,0,48,2.0,56.0
21811,66.0,0,64,10.0,40.0
21812,72.0,0,64,10.0,40.0
21813,63.0,0,64,11.0,40.0
21814,60.0,0,64,11.0,40.0
21815,72.0,0,64,10.0,40.0
21816,60.0,0,64,11.0,40.0
21817,66.0,80,64,10.0,40.0
21818,63.0,0,64,11.0,40.0
21819,66.0,0,64,10.0,40.0
21820,72.0,0,64,10.0,40.0
21821,63.0,0,64,11.0,40.0
21822,60.0,80,64,11.0,40.0
21823,81.0,0,2160,1.0,95.0
21824,60.0,0,64,11.0,40.0
21825,63.0,0,64,11.0,40.0
21826,72.0,0,64,10.0,40.0
21827,66.0,0,64,10.0,40.0
21828,60.0,0,96,2.0,39.0
21829,60.0,80,64,11.0,40.0
21830,66.0,0,64,10.0,40.0
21831,72.0,0,64,10.0,40.0
21832,42.0,0,384,3.0,61.0
21833,63.0,0,64,11.0,40.0
21834,45.0,0,192,15.0,35.0
21835,57.0,80,192,15.0,35.0
21836,63.0,80,64,11.0,40.0
21837,60.0,0,64,11.0,40.0
21838,72.0,0,64,10.0,40.0
21839,66.0,0,64,10.0,40.0
21840,66.0,0,64,10.0,40.0
21841,72.0,80,64,10.0,40.0
21842,60.0,0,64,11.0,40.0
21843,63.0,0,64,11.0,40.0
21844,66.0,0,600,8.0,61.0
21845,60.0,0,64,11.0,40.0
21846,72.0,0,64,10.0,40.0
21847,66.0,0,64,10.0,40.0
21848,63.0,80,64,11.0,40.0
21849,69.0,40,60,8.0,57.0
21850,72.0,0,64,10.0,40.0
21851,60.0,0,64,11.0,40.0
21852,66.0,0,64,10.0,40.0
21853,63.0,40,64,11.0,40.0
21854,84.0,60,778,2.0,57.0
21855,67.0,80,60,8.0,57.0
21856,63.0,0,64,11.0,40.0
21857,72.0,0,64,10.0,40.0
21858,66.0,0,64,10.0,40.0
21859,60.0,0,64,11.0,40.0
21860,63.0,0,96,2.0,39.0
21861,60.0,80,64,11.0,40.0
21862,63.0,0,64,11.0,40.0
21863,66.0,0,64,10.0,40.0
21864,72.0,0,64,10.0,40.0
21865,66.0,40,60,8.0,57.0
21866,60.0,0,192,15.0,35.0
21867,48.0,0,192,15.0,35.0
21868,72.0,0,64,10.0,40.0
21869,66.0,40,64,10.0,40.0
21870,63.0,0,64,11.0,40.0
21871,60.0,0,64,11.0,40.0
21872,81.0,20,48,2.0,46.0
21873,66.0,0,64,10.0,40.0
21874,72.0,0,64,10.0,40.0
21875,63.0,0,64,11.0,40.0
21876,60.0,0,64,11.0,40.0
21877,60.0,0,64,11.0,40.0
21878,63.0,80,64,11.0,40.0
21879,72.0,0,64,10.0,40.0
21880,66.0,0,64,10.0,40.0
21881,72.0,0,64,10.0,40.0
21882,63.0,80,64,11.0,40.0
21883,66.0,0,64,10.0,40.0
21884,60.0,0,64,11.0,40.0
21885,78.0,0,226,2.0,57.0
21886,66.0,0,64,10.0,40.0
21887,72.0,0,64,10.0,40.0
21888,63.0,0,64,11.0,40.0
21889,60.0,0,64,11.0,40.0
21890,66.0,0,96,2.0,39.0
21891,63.0,0,64,11.0,40.0
21892,60.0,80,64,11.0,40.0
21893,72.0,0,64,10.0,40.0
21894,66.0,0,64,10.0,40.0
21895,75.0,40,48,2.0,57.0
21896,51.0,0,192,15.0,35.0
21897,63.0,80,192,15.0,35.0
21898,60.0,0,64,11.0,40.0
21899,63.0,0,64,11.0,40.0
21900,72.0,40,64,10.0,40.0
21901,66.0,0,64,10.0,40.0
21902,72.0,20,58,2.0,57.0
21903,78.0,0,1200,1.0,95.0
21904,69.0,60,48,2.0,49.0
21905,63.0,0,64,10.0,40.0
21906,54.0,0,64,11.0,40.0
21907,57.0,0,64,11.0,40.0
21908,72.0,0,64,10.0,40.0
21909,66.0,60,600,8.0,61.0
21910,72.0,0,64,10.0,40.0
21911,63.0,0,64,10.0,40.0
21912,54.0,0,64,11.0,40.0
21913,57.0,80,64,11.0,40.0
21914,72.0,0,64,10.0,40.0
21915,54.0,0,64,11.0,40.0
21916,63.0,40,64,10.0,40.0
21917,57.0,0,64,11.0,40.0
21918,75.0,40,120,8.0,46.0
21919,63.0,0,4080,4.0,95.0
21920,51.0,0,120,3.0,46.0
21921,60.0,0,4080,4.0,95.0
21922,57.0,0,64,11.0,40.0
21923,54.0,0,64,11.0,40.0
21924,62.0,0,64,10.0,40.0
21925,72.0,0,64,10.0,40.0
21926,50.0,0,90,3.0,57.0
21927,74.0,80,90,8.0,57.0
21928,69.0,0,96,2.0,39.0
21929,57.0,80,64,11.0,40.0
21930,72.0,0,64,10.0,40.0
21931,62.0,0,64,10.0,40.0
21932,54.0,0,64,11.0,40.0
21933,54.0,0,192,15.0,35.0
21934,66.0,0,192,15.0,35.0
21935,62.0,0,64,10.0,40.0
21936,54.0,0,64,11.0,40.0
21937,57.0,80,64,11.0,40.0
21938,72.0,0,64,10.0,40.0
21939,86.0,20,58,8.0,57.0
21940,62.0,0,58,3.0,57.0
21941,57.0,0,64,11.0,40.0
21942,54.0,0,64,11.0,40.0
21943,69.0,0,64,10.0,40.0
21944,72.0,0,64,10.0,40.0
21945,54.0,0,64,11.0,40.0
21946,57.0,0,64,11.0,40.0
21947,72.0,0,64,10.0,40.0
21948,69.0,80,64,10.0,40.0
21949,57.0,0,64,11.0,39.0
21950,69.0,80,64,10.0,39.0
21951,72.0,0,64,10.0,39.0
21952,54.0,0,64,11.0,39.0
21953,60.0,0,240,3.0,61.0
21954,84.0,60,240,8.0,56.0
21955,69.0,0,64,10.0,39.0
21956,57.0,0,64,11.0,39.0
21957,72.0,0,64,10.0,39.0
21958,54.0,0,64,11.0,39.0
21959,69.0,0,96,2.0,51.0
21960,72.0,80,64,10.0,38.0
21961,54.0,0,64,11.0,38.0
21962,69.0,0,64,10.0,38.0
21963,57.0,0,64,11.0,38.0
21964,42.0,80,192,15.0,42.0
21965,30.0,0,192,15.0,42.0
21966,57.0,0,64,11.0,38.0
21967,69.0,0,64,10.0,38.0
21968,54.0,0,64,11.0,38.0
21969,72.0,80,64,10.0,38.0
21970,84.0,0,48,8.0,56.0
21971,60.0,20,48,3.0,61.0
21972,54.0,0,64,11.0,37.0
21973,57.0,0,64,11.0,37.0
21974,72.0,0,64,10.0,37.0
21975,69.0,0,64,10.0,37.0
21976,54.0,0,64,11.0,37.0
21977,72.0,80,64,10.0,37.0
21978,69.0,0,64,10.0,37.0
21979,57.0,0,64,11.0,37.0
21980,69.0,80,64,10.0,36.0
21981,72.0,0,64,10.0,36.0
21982,57.0,0,64,11.0,36.0
21983,54.0,0,64,11.0,36.0
21984,81.0,0,240,8.0,56.0
21985,57.0,60,240,3.0,61.0
21986,57.0,80,64,11.0,36.0
21987,54.0,0,64,11.0,36.0
21988,69.0,0,64,10.0,36.0
21989,72.0,0,64,10.0,36.0
21990,72.0,0,96,2.0,51.0
21991,57.0,0,64,11.0,35.0
21992,54.0,80,64,11.0,35.0
21993,69.0,0,64,10.0,35.0
21994,72.0,0,64,10.0,35.0
21995,45.0,0,192,15.0,42.0
21996,33.0,0,192,15.0,42.0
21997,69.0,0,64,10.0,35.0
21998,72.0,0,64,10.0,35.0
21999,54.0,80,64,11.0,35.0
22000,57.0,0,64,11.0,35.0
22001,78.0,20,48,8.0,56.0
22002,54.0,0,48,3.0,61.0
22003,72.0,0,64,10.0,34.0
22004,69.0,0,64,10.0,34.0
22005,54.0,0,64,11.0,34.0
22006,57.0,60,64,11.0,34.0
22007,57.0,0,64,11.0,34.0
22008,54.0,0,64,11.0,34.0
22009,69.0,0,64,10.0,34.0
22010,72.0,80,64,10.0,34.0
22011,57.0,0,64,11.0,34.0
22012,54.0,80,64,11.0,34.0
22013,69.0,0,64,10.0,34.0
22014,72.0,0,64,10.0,34.0
22015,74.0,0,240,8.0,56.0
22016,50.0,0,240,3.0,61.0
22017,54.0,0,64,11.0,33.0
22018,57.0,0,64,11.0,33.0
22019,72.0,0,64,10.0,33.0
22020,69.0,0,64,10.0,33.0
22021,72.0,0,96,2.0,51.0
22022,72.0,0,64,10.0,33.0
22023,57.0,0,64,11.0,33.0
22024,54.0,0,64,11.0,33.0
22025,69.0,80,64,10.0,33.0
22026,50.0,80,192,15.0,42.0
22027,38.0,0,192,15.0,42.0
22028,62.0,0,1650,4.0,95.0
22029,60.0,0,1410,4.0,95.0
22030,54.0,0,64,11.0,32.0
22031,57.0,0,64,11.0,32.0
22032,72.0,80,64,10.0,32.0
22033,69.0,0,64,10.0,32.0
22034,62.0,0,226,2.0,45.0
22035,48.0,0,48,3.0,61.0
22036,72.0,20,48,8.0,56.0
22037,66.0,0,5760,4.0,95.0
22038,69.0,0,5760,4.0,95.0
22039,81.0,0,1920,1.0,95.0
22040,62.0,0,64,10.0,32.0
22041,56.0,0,64,11.0,52.0
22042,74.0,60,64,10.0,32.0
22043,53.0,0,64,11.0,32.0
22044,74.0,0,600,0.0,64.0
22045,53.0,0,64,11.0,31.0
22046,56.0,80,64,11.0,31.0
22047,62.0,0,64,10.0,31.0
22048,71.0,0,64,10.0,31.0
22049,71.0,40,64,10.0,31.0
22050,62.0,0,64,10.0,31.0
22051,56.0,0,64,11.0,31.0
22052,53.0,0,64,11.0,31.0
22053,62.0,0,226,4.0,95.0
22054,50.0,0,226,4.0,95.0
22055,72.0,0,5506,1.0,95.0
22056,80.0,40,120,0.0,64.0
22057,47.0,0,240,3.0,61.0
22058,71.0,0,240,8.0,56.0
22059,68.0,0,120,2.0,45.0
22060,55.0,0,64,11.0,30.0
22061,53.0,0,64,11.0,30.0
22062,62.0,0,64,10.0,30.0
22063,71.0,0,64,10.0,30.0
22064,79.0,0,90,0.0,80.0
22065,67.0,0,90,2.0,56.0
22066,59.0,0,96,2.0,51.0
22067,53.0,0,64,11.0,30.0
22068,55.0,80,64,11.0,30.0
22069,62.0,0,64,10.0,30.0
22070,71.0,0,64,10.0,30.0
22071,55.0,0,192,15.0,42.0
22072,43.0,80,192,15.0,42.0
22073,53.0,0,64,11.0,29.0
22074,62.0,80,64,10.0,29.0
22075,71.0,0,64,10.0,29.0
22076,55.0,0,64,11.0,29.0
22077,74.0,0,466,1.0,95.0
22078,91.0,20,58,0.0,80.0
22079,79.0,0,58,2.0,56.0
22080,53.0,0,64,11.0,40.0
22081,55.0,0,64,11.0,40.0
22082,65.0,0,64,10.0,40.0
22083,74.0,0,64,10.0,40.0
22084,55.0,0,64,11.0,40.0
22085,74.0,0,64,10.0,40.0
22086,65.0,0,64,10.0,40.0
22087,53.0,80,64,11.0,40.0
22088,53.0,80,64,11.0,38.0
22089,55.0,0,64,11.0,38.0
22090,65.0,0,64,10.0,38.0
22091,74.0,0,64,10.0,38.0
22092,71.0,0,466,1.0,95.0
22093,89.0,0,240,0.0,78.0
22094,77.0,60,240,2.0,55.0
22095,53.0,0,64,11.0,38.0
22096,74.0,0,64,10.0,38.0
22097,55.0,0,64,11.0,38.0
22098,65.0,0,64,10.0,38.0
22099,62.0,0,96,2.0,66.0
22100,53.0,0,64,11.0,37.0
22101,65.0,0,64,10.0,37.0
22102,74.0,0,64,10.0,37.0
22103,55.0,80,64,11.0,37.0
22104,35.0,0,192,15.0,50.0
22105,47.0,80,192,15.0,50.0
22106,65.0,0,64,10.0,37.0
22107,74.0,0,64,10.0,37.0
22108,55.0,0,64,11.0,37.0
22109,53.0,80,64,11.0,37.0
22110,89.0,20,48,0.0,78.0
22111,77.0,0,48,2.0,55.0
22112,55.0,0,64,11.0,36.0
22113,74.0,0,64,10.0,36.0
22114,53.0,0,64,11.0,36.0
22115,65.0,0,64,10.0,36.0
22116,62.0,0,600,8.0,61.0
22117,55.0,80,64,11.0,36.0
22118,53.0,0,64,11.0,36.0
22119,65.0,0,64,10.0,36.0
22120,74.0,0,64,10.0,36.0
22121,65.0,40,60,8.0,57.0
22122,53.0,0,64,11.0,35.0
22123,55.0,0,64,11.0,35.0
22124,74.0,40,64,10.0,35.0
22125,65.0,0,64,10.0,35.0
22126,86.0,0,240,0.0,78.0
22127,74.0,60,240,2.0,55.0
22128,63.0,0,60,8.0,57.0
22129,53.0,0,64,11.0,35.0
22130,55.0,0,64,11.0,35.0
22131,74.0,0,64,10.0,35.0
22132,65.0,0,64,10.0,35.0
22133,65.0,80,96,2.0,66.0
22134,55.0,0,64,11.0,34.0
22135,53.0,0,64,11.0,34.0
22136,74.0,80,64,10.0,34.0
22137,65.0,0,64,10.0,34.0
22138,62.0,40,60,8.0,57.0
22139,38.0,0,192,15.0,50.0
22140,50.0,0,192,15.0,50.0
22141,55.0,0,64,11.0,34.0
22142,53.0,40,64,11.0,34.0
22143,74.0,0,64,10.0,34.0
22144,65.0,0,64,10.0,34.0
22145,83.0,0,48,0.0,78.0
22146,71.0,20,48,2.0,55.0
22147,65.0,0,64,10.0,31.0
22148,74.0,0,64,10.0,31.0
22149,55.0,0,64,11.0,31.0
22150,53.0,0,64,11.0,31.0
22151,53.0,0,64,11.0,31.0
22152,55.0,0,64,11.0,31.0
22153,65.0,0,64,10.0,31.0
22154,74.0,80,64,10.0,31.0
22155,74.0,0,64,10.0,31.0
22156,53.0,0,64,11.0,31.0
22157,55.0,0,64,11.0,31.0
22158,65.0,80,64,10.0,31.0
22159,79.0,0,240,0.0,78.0
22160,67.0,0,240,2.0,55.0
22161,53.0,0,64,11.0,30.0
22162,55.0,0,64,11.0,30.0
22163,74.0,0,64,10.0,30.0
22164,65.0,80,64,10.0,30.0
22165,62.0,0,96,2.0,66.0
22166,53.0,0,64,11.0,30.0
22167,65.0,0,64,10.0,30.0
22168,74.0,0,64,10.0,30.0
22169,55.0,80,64,11.0,30.0
22170,43.0,0,192,15.0,50.0
22171,55.0,0,192,15.0,50.0
22172,77.0,0,1170,1.0,95.0
22173,65.0,0,64,10.0,29.0
22174,55.0,0,64,11.0,29.0
22175,53.0,0,64,11.0,29.0
22176,74.0,80,64,10.0,29.0
22177,77.0,0,48,0.0,78.0
22178,65.0,20,48,2.0,55.0
22179,62.0,60,480,8.0,61.0
22180,55.0,0,64,11.0,49.0
22181,52.0,0,64,11.0,29.0
22182,64.0,0,64,10.0,29.0
22183,76.0,0,64,10.0,29.0
22184,64.0,0,120,8.0,57.0
22185,76.0,0,64,10.0,28.0
22186,52.0,0,64,11.0,28.0
22187,55.0,80,64,11.0,28.0
22188,64.0,0,64,10.0,28.0
22189,58.0,0,192,15.0,50.0
22190,46.0,0,192,15.0,50.0
22191,52.0,40,64,11.0,28.0
22192,55.0,0,64,11.0,28.0
22193,64.0,0,64,10.0,28.0
22194,76.0,0,64,10.0,28.0
22195,55.0,40,120,3.0,50.0
22196,64.0,0,240,2.0,55.0
22197,79.0,0,120,8.0,46.0
22198,76.0,0,240,0.0,78.0
22199,64.0,0,64,10.0,26.0
22200,52.0,0,64,11.0,26.0
22201,55.0,0,64,11.0,26.0
22202,76.0,0,64,10.0,26.0
22203,60.0,0,96,2.0,66.0
22204,53.0,0,114,3.0,63.0
22205,77.0,0,114,8.0,57.0
22206,55.0,80,64,11.0,26.0
22207,52.0,0,64,11.0,26.0
22208,67.0,0,64,10.0,26.0
22209,52.0,0,58,3.0,63.0
22210,76.0,40,58,8.0,57.0
22211,36.0,80,192,15.0,50.0
22212,48.0,0,192,15.0,50.0
22213,55.0,0,64,11.0,25.0
22214,67.0,0,64,10.0,25.0
22215,52.0,40,64,11.0,25.0
22216,60.0,0,48,3.0,66.0
22217,84.0,20,48,8.0,60.0
22218,52.0,0,64,11.0,34.0
22219,67.0,0,64,10.0,34.0
22220,70.0,0,64,10.0,54.0
22221,55.0,0,64,11.0,54.0
22222,67.0,80,64,10.0,34.0
22223,52.0,0,64,11.0,34.0
22224,55.0,0,64,11.0,34.0
22225,70.0,0,64,10.0,34.0
22226,52.0,80,64,11.0,31.0
22227,55.0,0,64,11.0,31.0
22228,67.0,0,64,10.0,31.0
22229,70.0,0,64,10.0,31.0
22230,58.0,60,240,3.0,61.0
22231,82.0,0,240,8.0,56.0
22232,67.0,0,64,10.0,31.0
22233,52.0,0,64,11.0,31.0
22234,55.0,0,64,11.0,31.0
22235,70.0,80,64,10.0,31.0
22236,52.0,0,96,2.0,66.0
22237,64.0,0,96,2.0,66.0
22238,67.0,0,64,10.0,29.0
22239,70.0,0,64,10.0,29.0
22240,52.0,80,64,11.0,29.0
22241,55.0,0,64,11.0,29.0
22242,48.0,0,192,15.0,60.0
22243,36.0,0,192,15.0,60.0
22244,55.0,0,64,11.0,29.0
22245,70.0,0,64,10.0,29.0
22246,67.0,80,64,10.0,29.0
22247,52.0,0,64,11.0,29.0
22248,55.0,0,48,3.0,61.0
22249,79.0,20,48,8.0,56.0
22250,67.0,0,64,10.0,28.0
22251,70.0,60,64,10.0,48.0
22252,55.0,0,64,11.0,48.0
22253,52.0,0,64,11.0,28.0
22254,52.0,0,64,11.0,28.0
22255,55.0,80,64,11.0,28.0
22256,70.0,0,64,10.0,28.0
22257,67.0,0,64,10.0,28.0
22258,52.0,0,64,11.0,25.0
22259,55.0,0,64,11.0,25.0
22260,70.0,0,64,10.0,25.0
22261,67.0,80,64,10.0,25.0
22262,52.0,0,240,3.0,61.0
22263,76.0,0,240,8.0,56.0
22264,70.0,0,64,10.0,25.0
22265,67.0,0,64,10.0,25.0
22266,55.0,0,64,11.0,25.0
22267,52.0,0,64,11.0,25.0
22268,67.0,80,96,2.0,66.0
22269,55.0,0,96,2.0,66.0
22270,52.0,0,64,11.0,24.0
22271,55.0,80,64,11.0,24.0
22272,67.0,0,64,10.0,24.0
22273,70.0,0,64,10.0,24.0
22274,40.0,0,192,15.0,60.0
22275,52.0,0,192,15.0,60.0
22276,52.0,0,64,11.0,24.0
22277,67.0,0,64,10.0,24.0
22278,55.0,80,64,11.0,24.0
22279,70.0,0,64,10.0,24.0
22280,48.0,0,48,3.0,61.0
22281,72.0,20,48,8.0,56.0
22282,52.0,0,64,11.0,22.0
22283,55.0,0,64,11.0,42.0
22284,67.0,0,64,10.0,22.0
22285,70.0,0,64,10.0,42.0
22286,55.0,80,64,11.0,22.0
22287,52.0,0,64,11.0,22.0
22288,70.0,0,64,10.0,22.0
22289,67.0,0,64,10.0,22.0
22290,67.0,80,64,10.0,22.0
22291,70.0,0,64,10.0,22.0
22292,52.0,0,64,11.0,22.0
22293,55.0,0,64,11.0,22.0
22294,46.0,60,240,3.0,61.0
22295,70.0,0,240,8.0,56.0
22296,67.0,0,64,10.0,20.0
22297,70.0,80,64,10.0,20.0
22298,52.0,0,64,11.0,20.0
22299,55.0,0,64,11.0,20.0
22300,70.0,0,96,2.0,66.0
22301,58.0,0,96,2.0,66.0
22302,67.0,80,64,10.0,20.0
22303,70.0,0,64,10.0,20.0
22304,55.0,0,64,11.0,20.0
22305,52.0,0,64,11.0,20.0
22306,55.0,0,192,15.0,60.0
22307,43.0,0,192,15.0,60.0
22308,52.0,0,64,11.0,19.0
22309,55.0,80,64,11.0,19.0
22310,67.0,0,64,10.0,19.0
22311,70.0,0,64,10.0,19.0
22312,67.0,0,48,8.0,56.0
22313,43.0,20,48,3.0,61.0
22314,55.0,0,64,11.0,39.0
22315,67.0,0,64,10.0,19.0
22316,52.0,60,64,11.0,19.0
22317,70.0,0,64,10.0,39.0
22318,67.0,0,64,10.0,17.0
22319,52.0,80,64,11.0,17.0
22320,55.0,0,64,11.0,17.0
22321,70.0,0,64,10.0,17.0
22322,70.0,0,64,10.0,17.0
22323,67.0,40,64,10.0,17.0
22324,52.0,0,64,11.0,17.0
22325,55.0,0,64,11.0,17.0
22326,64.0,0,240,8.0,56.0
22327,40.0,0,240,3.0,61.0
22328,77.0,40,120,2.0,58.0
22329,70.0,80,64,10.0,14.0
22330,67.0,0,64,10.0,14.0
22331,55.0,0,64,11.0,14.0
22332,52.0,0,64,11.0,14.0
22333,67.0,0,96,2.0,66.0
22334,76.0,0,120,2.0,58.0
22335,67.0,80,64,10.0,14.0
22336,70.0,0,64,10.0,14.0
22337,55.0,0,64,11.0,14.0
22338,52.0,0,64,11.0,14.0
22339,60.0,60,2340,4.0,95.0
22340,58.0,0,192,15.0,60.0
22341,46.0,0,192,15.0,60.0
22342,55.0,0,64,11.0,12.0
22343,52.0,0,64,11.0,12.0
22344,70.0,80,64,10.0,12.0
22345,67.0,0,64,10.0,12.0
22346,84.0,20,48,0.0,78.0
22347,84.0,0,60,2.0,47.0
22348,67.0,0,64,10.0,35.0
22349,55.0,0,64,11.0,55.0
22350,70.0,60,64,10.0,55.0
22351,52.0,0,64,11.0,35.0
22352,52.0,0,64,11.0,35.0
22353,55.0,80,64,11.0,35.0
22354,67.0,0,64,10.0,35.0
22355,70.0,0,64,10.0,35.0
22356,52.0,0,64,11.0,35.0
22357,70.0,80,64,10.0,35.0
22358,55.0,0,64,11.0,35.0
22359,67.0,0,64,10.0,35.0
22360,82.0,0,240,0.0,78.0
22361,82.0,0,240,2.0,55.0
22362,55.0,0,64,11.0,35.0
22363,52.0,0,64,11.0,35.0
22364,70.0,0,64,10.0,35.0
22365,67.0,80,64,10.0,35.0
22366,64.0,0,96,2.0,66.0
22367,67.0,0,64,10.0,35.0
22368,55.0,0,64,11.0,35.0
22369,52.0,0,64,11.0,35.0
22370,70.0,80,64,10.0,35.0
22371,37.0,0,192,15.0,72.0
22372,49.0,0,192,15.0,72.0
22373,55.0,0,64,11.0,35.0
22374,52.0,80,64,11.0,35.0
22375,67.0,0,64,10.0,35.0
22376,70.0,0,64,10.0,35.0
22377,91.0,0,48,0.0,78.0
22378,79.0,20,48,2.0,55.0
22379,52.0,0,64,11.0,35.0
22380,70.0,0,64,10.0,55.0
22381,67.0,60,64,10.0,35.0
22382,55.0,0,64,11.0,55.0
22383,64.0,0,600,8.0,61.0
22384,52.0,80,64,11.0,35.0
22385,67.0,0,64,10.0,35.0
22386,70.0,0,64,10.0,35.0
22387,55.0,0,64,11.0,35.0
22388,67.0,40,60,8.0,57.0
22389,55.0,0,64,11.0,35.0
22390,70.0,0,64,10.0,35.0
22391,67.0,40,64,10.0,35.0
22392,52.0,0,64,11.0,35.0
22393,88.0,0,240,0.0,78.0
22394,76.0,0,240,2.0,55.0
22395,65.0,80,60,8.0,57.0
22396,70.0,0,64,10.0,35.0
22397,52.0,0,64,11.0,35.0
22398,55.0,0,64,11.0,35.0
22399,67.0,0,64,10.0,35.0
22400,67.0,0,96,2.0,66.0
22401,67.0,0,64,10.0,35.0
22402,70.0,80,64,10.0,35.0
22403,55.0,0,64,11.0,35.0
22404,52.0,0,64,11.0,35.0
22405,64.0,40,60,8.0,57.0
22406,40.0,0,192,15.0,72.0
22407,52.0,0,192,15.0,72.0
22408,70.0,0,64,10.0,35.0
22409,52.0,0,64,11.0,35.0
22410,67.0,40,64,10.0,35.0
22411,55.0,0,64,11.0,35.0
22412,85.0,0,48,0.0,78.0
22413,73.0,20,48,2.0,55.0
22414,70.0,0,64,10.0,55.0
22415,52.0,0,64,11.0,35.0
22416,67.0,0,64,10.0,35.0
22417,55.0,0,64,11.0,55.0
22418,55.0,80,64,11.0,35.0
22419,52.0,0,64,11.0,35.0
22420,70.0,0,64,10.0,35.0
22421,67.0,0,64,10.0,35.0
22422,52.0,0,64,11.0,35.0
22423,55.0,0,64,11.0,35.0
22424,70.0,0,64,10.0,35.0
22425,67.0,80,64,10.0,35.0
22426,82.0,0,240,0.0,78.0
22427,70.0,60,240,2.0,55.0
22428,55.0,0,64,11.0,35.0
22429,52.0,0,64,11.0,35.0
22430,67.0,80,64,10.0,35.0
22431,70.0,0,64,10.0,35.0
22432,64.0,0,96,2.0,66.0
22433,70.0,0,64,10.0,35.0
22434,67.0,80,64,10.0,35.0
22435,55.0,0,64,11.0,35.0
22436,52.0,0,64,11.0,35.0
22437,55.0,0,192,15.0,72.0
22438,43.0,0,192,15.0,72.0
22439,76.0,0,3570,1.0,95.0
22440,52.0,0,64,11.0,35.0
22441,55.0,0,64,11.0,35.0
22442,70.0,0,64,10.0,35.0
22443,67.0,80,64,10.0,35.0
22444,67.0,0,48,2.0,55.0
22445,79.0,20,48,0.0,78.0
22446,67.0,60,64,10.0,35.0
22447,70.0,0,64,10.0,55.0
22448,52.0,0,64,11.0,35.0
22449,55.0,0,64,11.0,55.0
22450,64.0,0,600,8.0,61.0
22451,70.0,0,64,10.0,35.0
22452,67.0,80,64,10.0,35.0
22453,55.0,0,64,11.0,35.0
22454,52.0,0,64,11.0,35.0
22455,67.0,0,64,10.0,35.0
22456,52.0,40,64,11.0,35.0
22457,55.0,0,64,11.0,35.0
22458,70.0,0,64,10.0,35.0
22459,79.0,0,120,8.0,52.0
22460,76.0,0,240,0.0,78.0
22461,55.0,40,120,3.0,70.0
22462,64.0,0,240,2.0,55.0
22463,52.0,0,64,11.0,35.0
22464,55.0,0,64,11.0,35.0
22465,70.0,0,64,10.0,35.0
22466,67.0,0,64,10.0,35.0
22467,67.0,0,96,2.0,66.0
22468,53.0,0,114,3.0,88.0
22469,77.0,80,114,8.0,64.0
22470,67.0,80,64,10.0,35.0
22471,70.0,0,64,10.0,35.0
22472,52.0,0,64,11.0,35.0
22473,55.0,0,64,11.0,35.0
22474,58.0,0,192,15.0,72.0
22475,46.0,0,192,15.0,72.0
22476,70.0,80,64,10.0,35.0
22477,52.0,0,64,11.0,35.0
22478,55.0,0,64,11.0,35.0
22479,67.0,0,64,10.0,35.0
22480,52.0,0,48,3.0,94.0
22481,76.0,20,48,8.0,68.0
22482,70.0,0,64,10.0,60.0
22483,55.0,60,64,11.0,60.0
22484,52.0,0,64,11.0,40.0
22485,67.0,0,64,10.0,40.0
22486,52.0,0,64,11.0,40.0
22487,55.0,0,64,11.0,40.0
22488,70.0,80,64,10.0,40.0
22489,67.0,0,64,10.0,40.0
22490,67.0,0,64,10.0,40.0
22491,70.0,80,64,10.0,40.0
22492,55.0,0,64,11.0,40.0
22493,52.0,0,64,11.0,40.0
22494,73.0,0,240,8.0,63.0
22495,49.0,0,240,3.0,86.0
22496,52.0,80,64,11.0,40.0
22497,55.0,0,64,11.0,40.0
22498,70.0,0,64,10.0,40.0
22499,67.0,0,64,10.0,40.0
22500,55.0,0,96,2.0,66.0
22501,67.0,80,64,10.0,40.0
22502,52.0,0,64,11.0,40.0
22503,55.0,0,64,11.0,40.0
22504,70.0,0,64,10.0,40.0
22505,40.0,0,192,15.0,86.0
22506,52.0,0,192,15.0,86.0
22507,79.0,0,6210,1.0,95.0
22508,70.0,0,64,10.0,40.0
22509,67.0,0,64,10.0,40.0
22510,55.0,80,64,11.0,40.0
22511,52.0,0,64,11.0,40.0
22512,70.0,0,48,8.0,63.0
22513,46.0,20,48,3.0,86.0
22514,70.0,0,64,10.0,60.0
22515,52.0,0,64,11.0,40.0
22516,55.0,0,64,11.0,60.0
22517,67.0,0,64,10.0,40.0
22518,70.0,0,64,10.0,40.0
22519,67.0,80,64,10.0,40.0
22520,55.0,0,64,11.0,40.0
22521,52.0,0,64,11.0,40.0
22522,67.0,40,64,10.0,40.0
22523,52.0,0,64,11.0,40.0
22524,55.0,0,64,11.0,40.0
22525,70.0,0,64,10.0,40.0
22526,91.0,40,120,0.0,81.0
22527,43.0,0,240,3.0,86.0
22528,67.0,0,240,8.0,63.0
22529,79.0,0,120,2.0,57.0
22530,55.0,0,64,11.0,40.0
22531,52.0,0,64,11.0,40.0
22532,67.0,0,64,10.0,40.0
22533,70.0,80,64,10.0,40.0
22534,58.0,0,96,2.0,66.0
22535,89.0,0,114,0.0,88.0
22536,77.0,0,114,2.0,62.0
22537,55.0,0,64,11.0,40.0
22538,52.0,80,64,11.0,40.0
22539,67.0,0,64,10.0,40.0
22540,70.0,0,64,10.0,40.0
22541,55.0,0,192,15.0,86.0
22542,43.0,0,192,15.0,86.0
22543,70.0,0,64,10.0,40.0
22544,67.0,80,64,10.0,40.0
22545,52.0,0,64,11.0,40.0
22546,55.0,0,64,11.0,40.0
22547,76.0,0,48,2.0,66.0
22548,88.0,20,48,0.0,94.0
22549,67.0,0,64,10.0,40.0
22550,55.0,0,64,11.0,60.0
22551,52.0,0,64,11.0,40.0
22552,70.0,0,64,10.0,60.0
22553,67.0,80,64,10.0,40.0
22554,70.0,0,64,10.0,40.0
22555,52.0,0,64,11.0,40.0
22556,55.0,0,64,11.0,40.0
22557,52.0,0,64,11.0,40.0
22558,55.0,0,64,11.0,40.0
22559,70.0,80,64,10.0,40.0
22560,67.0,0,64,10.0,40.0
22561,85.0,0,240,0.0,86.0
22562,73.0,60,240,2.0,60.0
22563,70.0,0,64,10.0,40.0
22564,67.0,80,64,10.0,40.0
22565,55.0,0,64,11.0,40.0
22566,52.0,0,64,11.0,40.0
22567,61.0,0,96,2.0,66.0
22568,67.0,0,64,10.0,40.0
22569,70.0,0,64,10.0,40.0
22570,52.0,80,64,11.0,40.0
22571,55.0,0,64,11.0,40.0
22572,46.0,0,192,15.0,86.0
22573,58.0,0,192,15.0,86.0
22574,70.0,0,64,10.0,40.0
22575,52.0,0,64,11.0,40.0
22576,55.0,0,64,11.0,40.0
22577,67.0,80,64,10.0,40.0
22578,70.0,0,48,2.0,60.0
22579,82.0,20,48,0.0,86.0
22580,52.0,0,64,11.0,40.0
22581,55.0,0,64,11.0,60.0
22582,67.0,0,64,10.0,40.0
22583,70.0,0,64,10.0,60.0
22584,52.0,0,64,11.0,40.0
22585,55.0,0,64,11.0,40.0
22586,70.0,80,64,10.0,40.0
22587,67.0,0,64,10.0,40.0
22588,67.0,0,64,10.0,40.0
22589,70.0,0,64,10.0,40.0
22590,52.0,0,64,11.0,40.0
22591,55.0,40,64,11.0,40.0
22592,79.0,0,240,0.0,86.0
22593,58.0,0,120,3.0,100.0
22594,82.0,40,120,8.0,59.0
22595,67.0,60,240,2.0,60.0
22596,70.0,0,64,10.0,40.0
22597,67.0,0,64,10.0,40.0
22598,52.0,0,64,11.0,40.0
22599,55.0,0,64,11.0,40.0
22600,64.0,0,96,2.0,66.0
22601,81.0,80,114,8.0,72.0
22602,57.0,0,114,3.0,102.0
22603,55.0,0,64,11.0,40.0
22604,67.0,80,64,10.0,40.0
22605,70.0,0,64,10.0,40.0
22606,52.0,0,64,11.0,40.0
22607,61.0,0,192,15.0,86.0
22608,49.0,0,192,15.0,86.0
22609,52.0,80,64,11.0,40.0
22610,55.0,0,64,11.0,40.0
22611,70.0,0,64,10.0,40.0
22612,67.0,0,64,10.0,40.0
22613,55.0,0,48,3.0,102.0
22614,79.0,20,48,8.0,77.0
22615,67.0,0,64,10.0,45.0
22616,70.0,0,64,10.0,65.0
22617,52.0,0,64,11.0,45.0
22618,55.0,60,64,11.0,65.0
22619,67.0,80,64,10.0,45.0
22620,70.0,0,64,10.0,45.0
22621,55.0,0,64,11.0,45.0
22622,52.0,0,64,11.0,45.0
22623,70.0,0,64,10.0,45.0
22624,52.0,0,64,11.0,45.0
22625,55.0,0,64,11.0,45.0
22626,67.0,80,64,10.0,45.0
22627,79.0,0,240,8.0,71.0
22628,55.0,0,240,3.0,102.0
22629,55.0,0,64,11.0,45.0
22630,52.0,0,64,11.0,45.0
22631,70.0,0,64,10.0,45.0
22632,67.0,80,64,10.0,45.0
22633,58.0,0,96,2.0,66.0
22634,55.0,0,64,11.0,45.0
22635,52.0,0,64,11.0,45.0
22636,70.0,0,64,10.0,45.0
22637,67.0,80,64,10.0,45.0
22638,43.0,0,192,15.0,103.0
22639,55.0,0,192,15.0,103.0
22640,55.0,80,64,11.0,45.0
22641,52.0,0,64,11.0,45.0
22642,67.0,0,64,10.0,45.0
22643,70.0,0,64,10.0,45.0
22644,52.0,20,48,3.0,102.0
22645,76.0,0,48,8.0,71.0
22646,55.0,0,64,11.0,65.0
22647,52.0,0,64,11.0,45.0
22648,70.0,0,64,10.0,65.0
22649,67.0,0,64,10.0,45.0
22650,55.0,80,64,11.0,45.0
22651,70.0,0,64,10.0,45.0
22652,67.0,0,64,10.0,45.0
22653,52.0,0,64,11.0,45.0
22654,70.0,0,64,10.0,45.0
22655,67.0,40,64,10.0,45.0
22656,55.0,0,64,11.0,45.0
22657,52.0,0,64,11.0,45.0
22658,49.0,60,240,3.0,102.0
22659,76.0,0,120,2.0,57.0
22660,73.0,0,240,8.0,71.0
22661,88.0,40,120,0.0,81.0
22662,55.0,0,64,11.0,45.0
22663,52.0,0,64,11.0,45.0
22664,70.0,0,64,10.0,45.0
22665,67.0,0,64,10.0,45.0
22666,61.0,0,96,2.0,66.0
22667,86.0,0,114,0.0,88.0
22668,74.0,80,114,2.0,62.0
22669,52.0,0,64,11.0,45.0
22670,55.0,80,64,11.0,45.0
22671,70.0,0,64,10.0,45.0
22672,67.0,0,64,10.0,45.0
22673,58.0,0,192,15.0,103.0
22674,46.0,0,192,15.0,103.0
22675,52.0,0,64,11.0,45.0
22676,55.0,80,64,11.0,45.0
22677,67.0,0,64,10.0,45.0
22678,70.0,0,64,10.0,45.0
22679,73.0,0,48,2.0,66.0
22680,85.0,20,48,0.0,94.0
22681,55.0,0,64,11.0,65.0
22682,52.0,0,64,11.0,45.0
22683,70.0,0,64,10.0,65.0
22684,67.0,0,64,10.0,45.0
22685,52.0,80,64,11.0,45.0
22686,55.0,0,64,11.0,45.0
22687,70.0,0,64,10.0,45.0
22688,67.0,0,64,10.0,45.0
22689,67.0,80,64,10.0,45.0
22690,70.0,0,64,10.0,45.0
22691,52.0,0,64,11.0,45.0
22692,55.0,0,64,11.0,45.0
22693,70.0,60,240,2.0,60.0
22694,85.0,0,240,0.0,86.0
22695,55.0,0,64,11.0,45.0
22696,52.0,80,64,11.0,45.0
22697,70.0,0,64,10.0,45.0
22698,67.0,0,64,10.0,45.0
22699,64.0,0,96,2.0,66.0
22700,70.0,0,64,10.0,45.0
22701,67.0,0,64,10.0,45.0
22702,55.0,80,64,11.0,45.0
22703,52.0,0,64,11.0,45.0
22704,61.0,0,192,15.0,103.0
22705,49.0,0,192,15.0,103.0
22706,52.0,0,64,11.0,45.0
22707,55.0,0,64,11.0,45.0
22708,67.0,80,64,10.0,45.0
22709,70.0,0,64,10.0,45.0
22710,67.0,0,48,2.0,60.0
22711,82.0,20,48,0.0,86.0
22712,67.0,0,64,10.0,45.0
22713,70.0,0,64,10.0,65.0
22714,52.0,60,64,11.0,45.0
22715,55.0,0,64,11.0,65.0
22716,52.0,80,64,11.0,45.0
22717,67.0,0,64,10.0,45.0
22718,70.0,0,64,10.0,45.0
22719,55.0,0,64,11.0,45.0
22720,55.0,0,64,11.0,45.0
22721,67.0,0,64,10.0,45.0
22722,70.0,0,64,10.0,45.0
22723,52.0,40,64,11.0,45.0
22724,82.0,0,120,8.0,71.0
22725,58.0,40,120,3.0,111.0
22726,79.0,0,240,0.0,86.0
22727,64.0,0,240,2.0,60.0
22728,52.0,0,64,11.0,45.0
22729,55.0,0,64,11.0,45.0
22730,67.0,80,64,10.0,45.0
22731,70.0,0,64,10.0,45.0
22732,67.0,0,96,2.0,66.0
22733,81.0,0,114,8.0,86.0
22734,57.0,0,114,3.0,127.0
22735,70.0,80,64,10.0,45.0
22736,67.0,0,64,10.0,45.0
22737,52.0,0,64,11.0,45.0
22738,55.0,0,64,11.0,45.0
22739,64.0,0,192,15.0,103.0
22740,52.0,0,192,15.0,103.0
22741,70.0,0,64,10.0,45.0
22742,52.0,0,64,11.0,45.0
22743,67.0,80,64,10.0,45.0
22744,55.0,0,64,11.0,45.0
22745,79.0,0,48,8.0,92.0
22746,55.0,20,48,3.0,127.0
22747,55.0,0,64,11.0,97.0
22748,52.0,0,64,11.0,77.0
22749,67.0,0,64,10.0,77.0
22750,70.0,0,64,10.0,97.0
22751,52.0,0,64,11.0,77.0
22752,55.0,0,64,11.0,77.0
22753,67.0,0,64,10.0,77.0
22754,70.0,80,64,10.0,77.0
22755,70.0,0,64,10.0,77.0
22756,55.0,0,64,11.0,77.0
22757,52.0,80,64,11.0,77.0
22758,67.0,0,64,10.0,77.0
22759,79.0,60,240,8.0,85.0
22760,55.0,0,240,3.0,127.0
22761,61.0,0,64,11.0,77.0
22762,64.0,0,64,11.0,77.0
22763,67.0,0,64,10.0,77.0
22764,70.0,0,64,10.0,77.0
22765,73.0,0,96,2.0,66.0
22766,61.0,0,96,2.0,66.0
22767,70.0,0,64,10.0,77.0
22768,67.0,80,64,10.0,77.0
22769,64.0,0,64,11.0,77.0
22770,61.0,0,64,11.0,77.0
22771,46.0,80,192,15.0,124.0
22772,58.0,0,192,15.0,124.0
22773,61.0,0,64,11.0,77.0
22774,67.0,0,64,10.0,77.0
22775,70.0,80,64,10.0,77.0
22776,64.0,0,64,11.0,77.0
22777,76.0,0,48,8.0,85.0
22778,52.0,20,48,3.0,127.0
22779,67.0,0,64,10.0,77.0
22780,70.0,0,64,10.0,97.0
22781,61.0,0,64,11.0,77.0
22782,64.0,60,64,11.0,97.0
22783,61.0,80,64,11.0,77.0
22784,70.0,0,64,10.0,77.0
22785,67.0,0,64,10.0,77.0
22786,64.0,0,64,11.0,77.0
22787,64.0,0,64,11.0,77.0
22788,61.0,40,64,11.0,77.0
22789,67.0,0,64,10.0,77.0
22790,70.0,0,64,10.0,77.0
22791,70.0,40,120,2.0,57.0
22792,49.0,0,240,3.0,127.0
22793,82.0,0,120,0.0,81.0
22794,73.0,0,240,8.0,85.0
22795,67.0,80,64,10.0,77.0
22796,64.0,0,64,11.0,77.0
22797,61.0,0,64,11.0,77.0
22798,70.0,0,64,10.0,77.0
22799,64.0,0,96,2.0,66.0
22800,76.0,0,96,2.0,66.0
22801,69.0,0,114,2.0,62.0
22802,81.0,0,114,0.0,88.0
22803,61.0,0,64,11.0,77.0
22804,64.0,0,64,11.0,77.0
22805,70.0,80,64,10.0,77.0
22806,67.0,0,64,10.0,77.0
22807,49.0,0,192,15.0,124.0
22808,61.0,0,192,15.0,124.0
22809,64.0,0,64,11.0,77.0
22810,61.0,80,64,11.0,77.0
22811,70.0,0,64,10.0,77.0
22812,67.0,0,64,10.0,77.0
22813,91.0,0,48,0.0,113.0
22814,79.0,20,48,2.0,79.0
22815,70.0,0,58,10.0,75.0
22816,64.0,0,58,11.0,75.0
22817,61.0,0,58,11.0,75.0
22818,67.0,0,58,10.0,75.0
22819,64.0,60,58,10.0,76.0
22820,67.0,0,58,11.0,76.0
22821,73.0,0,58,10.0,76.0
22822,70.0,0,58,11.0,76.0
22823,73.0,0,58,10.0,78.0
22824,70.0,0,58,11.0,78.0
22825,67.0,0,58,11.0,78.0
22826,64.0,60,58,10.0,78.0
22827,73.0,0,58,10.0,79.0
22828,70.0,0,58,11.0,79.0
22829,67.0,60,58,11.0,79.0
22830,64.0,0,58,10.0,79.0
22831,79.0,0,240,2.0,72.0
22832,91.0,60,240,0.0,103.0
22833,67.0,0,58,11.0,80.0
22834,73.0,0,58,10.0,80.0
22835,70.0,0,58,11.0,80.0
22836,64.0,60,58,10.0,80.0
22837,79.0,0,96,2.0,66.0
22838,67.0,0,96,2.0,66.0
22839,64.0,60,58,10.0,81.0
22840,67.0,0,58,11.0,81.0
22841,73.0,0,58,10.0,81.0
22842,70.0,0,58,11.0,81.0
22843,70.0,60,58,11.0,83.0
22844,73.0,0,58,10.0,83.0
22845,64.0,0,58,10.0,83.0
22846,67.0,0,58,11.0,83.0
22847,52.0,0,192,15.0,124.0
22848,64.0,0,192,15.0,124.0
22849,88.0,0,48,0.0,103.0
22850,76.0,0,48,2.0,72.0
22851,73.0,0,58,10.0,84.0
22852,64.0,60,58,10.0,84.0
22853,70.0,0,58,11.0,84.0
22854,67.0,0,58,11.0,84.0
22855,67.0,0,58,11.0,85.0
22856,70.0,0,58,11.0,85.0
22857,73.0,0,58,10.0,85.0
22858,64.0,0,58,10.0,85.0
22859,73.0,0,114,2.0,72.0
22860,67.0,60,58,11.0,86.0
22861,76.0,0,58,10.0,86.0
22862,70.0,0,58,11.0,86.0
22863,73.0,0,58,10.0,86.0
22864,70.0,60,58,11.0,88.0
22865,76.0,0,58,10.0,88.0
22866,73.0,0,58,10.0,88.0
22867,67.0,0,58,11.0,88.0
22868,73.0,0,58,10.0,89.0
22869,67.0,60,58,11.0,89.0
22870,76.0,0,58,10.0,89.0
22871,70.0,0,58,11.0,89.0
22872,70.0,0,120,2.0,80.0
22873,82.0,0,120,2.0,80.0
22874,82.0,0,120,8.0,122.0
22875,85.0,60,240,0.0,103.0
22876,58.0,0,120,3.0,127.0
22877,70.0,0,58,11.0,90.0
22878,67.0,0,58,11.0,90.0
22879,76.0,0,58,10.0,90.0
22880,73.0,0,58,10.0,90.0
22881,81.0,0,72,8.0,127.0
22882,81.0,60,72,2.0,80.0
22883,69.0,0,72,2.0,80.0
22884,57.0,0,72,3.0,127.0
22885,73.0,0,58,10.0,91.0
22886,67.0,0,58,11.0,91.0
22887,70.0,60,58,11.0,91.0
22888,76.0,0,58,10.0,91.0
22889,73.0,0,58,10.0,93.0
22890,76.0,60,58,10.0,93.0
22891,67.0,0,58,11.0,93.0
22892,70.0,0,58,11.0,93.0
22893,61.0,0,7620,4.0,95.0
22894,67.0,0,11940,4.0,95.0
22895,64.0,0,10020,4.0,95.0
22896,58.0,0,10020,4.0,95.0
22897,76.0,60,5220,1.0,95.0
22898,73.0,0,6180,1.0,95.0
22899,67.0,0,192,15.0,124.0
22900,55.0,0,192,15.0,124.0
22901,58.0,0,48,3.0,127.0
22902,82.0,0,48,8.0,127.0
22903,73.0,0,58,10.0,94.0
22904,76.0,0,58,10.0,94.0
22905,70.0,0,58,11.0,94.0
22906,67.0,60,58,11.0,94.0
22907,70.0,0,60,2.0,80.0
22908,82.0,0,60,2.0,80.0
22909,45.0,0,48,6.0,127.0
22910,45.0,60,48,6.0,127.0
22911,45.0,60,48,6.0,127.0
22912,45.0,60,48,6.0,127.0
22913,45.0,0,48,6.0,127.0
22914,45.0,60,48,6.0,127.0
22915,45.0,60,48,6.0,127.0
22916,45.0,60,48,6.0,127.0
22917,45.0,60,48,6.0,127.0
22918,57.0,0,576,4.0,100.0
22919,69.0,0,576,4.0,100.0
22920,45.0,60,48,6.0,127.0
22921,45.0,60,48,6.0,127.0
22922,45.0,60,48,6.0,127.0
22923,81.0,0,720,2.0,71.0
22924,69.0,0,720,1.0,89.0
22925,93.0,60,720,0.0,95.0
22926,81.0,0,720,0.0,95.0
22927,81.0,0,720,1.0,89.0
22928,69.0,0,720,2.0,71.0
22929,69.0,0,720,8.0,114.0
22930,81.0,0,720,8.0,114.0
22931,59.0,60,480,12.0,80.0
22932,59.0,0,480,10.0,80.0
22933,29.0,0,720,13.0,114.0
22934,69.0,0,720,3.0,53.0
22935,57.0,0,720,3.0,53.0
22936,45.0,0,48,6.0,127.0
22937,62.0,0,768,4.0,100.0
22938,50.0,0,768,4.0,100.0
22939,45.0,60,48,6.0,127.0
22940,61.0,0,120,12.0,80.0
22941,61.0,0,120,10.0,80.0
22942,45.0,60,48,6.0,127.0
22943,45.0,60,48,6.0,127.0
22944,62.0,0,120,12.0,80.0
22945,68.0,0,240,8.0,114.0
22946,68.0,0,240,3.0,53.0
22947,62.0,0,120,10.0,80.0
22948,56.0,0,240,3.0,53.0
22949,41.0,0,240,13.0,114.0
22950,92.0,0,240,0.0,95.0
22951,68.0,0,240,2.0,71.0
22952,80.0,0,240,2.0,71.0
22953,80.0,60,240,0.0,95.0
22954,68.0,0,240,1.0,89.0
22955,80.0,0,240,8.0,114.0
22956,80.0,0,240,1.0,89.0
22957,45.0,0,48,6.0,127.0
22958,91.0,0,84,0.0,95.0
22959,67.0,0,84,3.0,53.0
22960,55.0,0,84,3.0,53.0
22961,79.0,0,84,0.0,95.0
22962,40.0,0,84,13.0,114.0
22963,67.0,0,84,8.0,114.0
22964,64.0,60,84,12.0,114.0
22965,67.0,0,84,1.0,89.0
22966,79.0,0,84,1.0,89.0
22967,79.0,0,84,2.0,71.0
22968,67.0,0,84,2.0,71.0
22969,79.0,0,84,8.0,114.0
22970,64.0,0,84,10.0,114.0
22971,45.0,60,48,6.0,127.0
22972,57.0,0,1074,5.0,76.0
22973,45.0,0,354,4.0,100.0
22974,57.0,0,354,4.0,100.0
22975,69.0,0,1074,5.0,76.0
22976,45.0,0,48,6.0,127.0
22977,45.0,60,48,6.0,127.0
22978,65.0,0,120,2.0,71.0
22979,65.0,0,120,10.0,114.0
22980,89.0,0,120,0.0,95.0
22981,77.0,0,120,2.0,71.0
22982,65.0,0,120,8.0,114.0
22983,65.0,0,120,3.0,71.0
22984,81.0,0,0,1.0,89.0
22985,69.0,0,0,1.0,89.0
22986,77.0,0,120,8.0,114.0
22987,62.0,0,120,3.0,71.0
22988,65.0,0,120,12.0,114.0
22989,50.0,60,120,13.0,114.0
22990,45.0,0,48,6.0,127.0
22991,61.0,0,84,3.0,71.0
22992,67.0,0,84,12.0,114.0
22993,64.0,0,84,3.0,71.0
22994,88.0,0,84,0.0,95.0
22995,67.0,60,84,10.0,114.0
22996,64.0,0,84,2.0,71.0
22997,76.0,0,84,2.0,71.0
22998,76.0,0,84,8.0,114.0
22999,64.0,0,84,8.0,114.0
23000,49.0,0,84,13.0,114.0
23001,45.0,60,48,6.0,127.0
23002,45.0,0,234,4.0,100.0
23003,69.0,0,234,5.0,75.0
23004,57.0,0,234,5.0,75.0
23005,57.0,0,234,4.0,100.0
23006,45.0,0,48,6.0,127.0
23007,45.0,60,48,6.0,127.0
23008,62.0,0,120,3.0,71.0
23009,58.0,0,120,3.0,71.0
23010,74.0,0,120,2.0,71.0
23011,69.0,0,120,1.0,89.0
23012,74.0,0,120,8.0,114.0
23013,62.0,0,120,2.0,71.0
23014,62.0,0,120,8.0,114.0
23015,69.0,0,120,12.0,114.0
23016,86.0,0,120,0.0,95.0
23017,46.0,0,120,13.0,114.0
23018,81.0,0,120,1.0,89.0
23019,69.0,0,120,10.0,114.0
23020,45.0,0,48,6.0,127.0
23021,85.0,0,84,0.0,95.0
23022,45.0,0,84,13.0,114.0
23023,69.0,0,84,1.0,89.0
23024,73.0,0,84,8.0,114.0
23025,69.0,0,84,12.0,114.0
23026,61.0,0,84,3.0,71.0
23027,57.0,0,84,3.0,71.0
23028,61.0,0,84,2.0,71.0
23029,73.0,60,84,2.0,71.0
23030,81.0,0,84,1.0,89.0
23031,70.0,0,84,10.0,114.0
23032,61.0,0,84,8.0,114.0
23033,45.0,60,48,6.0,127.0
23034,57.0,0,234,4.0,100.0
23035,45.0,0,234,4.0,100.0
23036,69.0,0,234,5.0,75.0
23037,57.0,60,234,5.0,75.0
23038,45.0,0,48,6.0,127.0
23039,45.0,60,48,6.0,127.0
23040,69.0,0,120,1.0,89.0
23041,81.0,60,120,1.0,89.0
23042,43.0,0,120,13.0,114.0
23043,55.0,0,120,12.0,114.0
23044,67.0,0,120,11.0,114.0
23045,58.0,0,120,2.0,71.0
23046,70.0,0,120,2.0,71.0
23047,73.0,0,120,10.0,114.0
23048,70.0,0,120,8.0,114.0
23049,58.0,0,120,8.0,114.0
23050,58.0,0,120,3.0,71.0
23051,55.0,0,120,3.0,71.0
23052,82.0,0,120,0.0,95.0
23053,45.0,0,48,6.0,127.0
23054,81.0,0,84,1.0,89.0
23055,53.0,0,84,12.0,114.0
23056,65.0,0,84,11.0,114.0
23057,69.0,0,84,1.0,89.0
23058,74.0,0,84,10.0,114.0
23059,41.0,60,84,13.0,114.0
23060,57.0,0,84,8.0,114.0
23061,69.0,0,84,2.0,71.0
23062,57.0,0,84,3.0,71.0
23063,53.0,0,84,3.0,71.0
23064,57.0,0,84,2.0,71.0
23065,69.0,0,84,8.0,114.0
23066,81.0,0,84,0.0,95.0
23067,45.0,60,48,6.0,127.0
23068,69.0,0,234,5.0,75.0
23069,57.0,0,234,5.0,75.0
23070,45.0,0,234,4.0,100.0
23071,57.0,0,234,4.0,100.0
23072,45.0,0,48,6.0,127.0
23073,45.0,60,48,6.0,127.0
23074,57.0,0,114,5.0,75.0
23075,45.0,0,114,4.0,100.0
23076,57.0,0,114,4.0,100.0
23077,69.0,0,114,5.0,75.0
23078,52.0,0,120,3.0,71.0
23079,67.0,0,120,2.0,71.0
23080,76.0,0,120,10.0,114.0
23081,67.0,0,120,8.0,114.0
23082,55.0,60,120,8.0,114.0
23083,40.0,0,120,13.0,114.0
23084,64.0,0,120,11.0,114.0
23085,55.0,0,120,3.0,71.0
23086,69.0,0,120,1.0,89.0
23087,81.0,0,120,1.0,89.0
23088,79.0,0,120,0.0,95.0
23089,52.0,0,120,12.0,114.0
23090,55.0,0,120,2.0,71.0
23091,50.0,0,48,6.0,127.0
23092,53.0,0,84,3.0,71.0
23093,65.0,0,84,8.0,114.0
23094,77.0,0,84,0.0,95.0
23095,50.0,0,84,13.0,114.0
23096,77.0,0,84,10.0,114.0
23097,50.0,0,84,3.0,71.0
23098,86.0,60,84,1.0,89.0
23099,74.0,0,84,1.0,89.0
23100,77.0,0,84,2.0,71.0
23101,65.0,0,84,2.0,71.0
23102,74.0,0,84,11.0,114.0
23103,62.0,0,84,12.0,114.0
23104,50.0,60,48,6.0,127.0
23105,53.0,0,1,4.0,100.0
23106,74.0,0,1,5.0,75.0
23107,62.0,0,1,5.0,64.0
23108,50.0,0,1,4.0,100.0
23109,62.0,0,1,4.0,100.0
23110,65.0,0,1,4.0,64.0
23111,50.0,0,48,6.0,127.0
23112,50.0,60,48,6.0,127.0
23113,60.0,0,120,12.0,114.0
23114,79.0,0,120,10.0,114.0
23115,79.0,0,120,0.0,95.0
23116,74.0,0,0,1.0,89.0
23117,72.0,0,120,11.0,114.0
23118,86.0,0,0,1.0,89.0
23119,48.0,0,120,3.0,71.0
23120,55.0,0,120,3.0,71.0
23121,64.0,0,120,2.0,71.0
23122,76.0,0,120,2.0,71.0
23123,64.0,0,120,8.0,114.0
23124,48.0,0,120,13.0,114.0
23125,50.0,0,48,6.0,127.0
23126,46.0,0,84,13.0,114.0
23127,58.0,0,84,12.0,114.0
23128,70.0,0,84,11.0,114.0
23129,62.0,0,84,8.0,114.0
23130,81.0,0,84,10.0,114.0
23131,81.0,60,84,0.0,95.0
23132,62.0,0,84,2.0,71.0
23133,74.0,0,84,2.0,71.0
23134,46.0,0,84,3.0,71.0
23135,57.0,0,84,3.0,71.0
23136,50.0,60,48,6.0,127.0
23137,50.0,0,48,6.0,127.0
23138,50.0,60,48,6.0,127.0
23139,60.0,0,120,2.0,71.0
23140,60.0,0,120,8.0,114.0
23141,86.0,0,120,1.0,89.0
23142,74.0,0,120,1.0,89.0
23143,69.0,0,120,11.0,114.0
23144,83.0,0,120,10.0,114.0
23145,45.0,0,120,13.0,114.0
23146,45.0,0,120,3.0,71.0
23147,58.0,0,120,3.0,71.0
23148,57.0,0,120,12.0,114.0
23149,72.0,0,120,2.0,71.0
23150,82.0,60,120,0.0,95.0
23151,50.0,60,48,6.0,127.0
23152,86.0,0,84,1.0,89.0
23153,74.0,0,84,1.0,89.0
23154,84.0,0,84,10.0,114.0
23155,67.0,0,84,11.0,114.0
23156,43.0,0,84,3.0,71.0
23157,60.0,0,84,3.0,71.0
23158,55.0,0,84,12.0,114.0
23159,84.0,0,84,0.0,95.0
23160,43.0,0,84,13.0,114.0
23161,58.0,0,84,8.0,114.0
23162,70.0,0,84,2.0,71.0
23163,58.0,0,84,2.0,71.0
23164,50.0,60,48,6.0,127.0
23165,50.0,0,234,4.0,100.0
23166,62.0,0,234,4.0,100.0
23167,62.0,0,234,5.0,75.0
23168,74.0,0,234,5.0,75.0
23169,53.0,0,234,4.0,100.0
23170,65.0,0,234,4.0,100.0
23171,50.0,0,48,6.0,127.0
23172,50.0,60,48,6.0,127.0
23173,41.0,0,120,3.0,71.0
23174,86.0,0,120,0.0,95.0
23175,62.0,0,120,3.0,71.0
23176,41.0,0,120,13.0,114.0
23177,86.0,0,120,10.0,114.0
23178,69.0,0,120,2.0,71.0
23179,65.0,0,120,11.0,114.0
23180,74.0,0,120,1.0,89.0
23181,86.0,0,120,1.0,89.0
23182,57.0,0,120,8.0,114.0
23183,57.0,60,120,2.0,71.0
23184,53.0,0,120,12.0,114.0
23185,50.0,0,48,6.0,127.0
23186,64.0,0,84,11.0,114.0
23187,64.0,60,84,3.0,71.0
23188,40.0,0,84,3.0,71.0
23189,40.0,0,84,13.0,114.0
23190,88.0,0,84,10.0,114.0
23191,67.0,0,84,2.0,71.0
23192,88.0,0,84,0.0,95.0
23193,52.0,0,84,12.0,114.0
23194,86.0,0,84,1.0,89.0
23195,74.0,0,84,1.0,89.0
23196,55.0,0,84,2.0,71.0
23197,55.0,0,84,8.0,114.0
23198,50.0,60,48,6.0,127.0
23199,65.0,0,234,4.0,100.0
23200,53.0,0,234,4.0,100.0
23201,74.0,0,234,5.0,75.0
23202,50.0,0,234,4.0,100.0
23203,62.0,0,234,4.0,100.0
23204,62.0,0,234,5.0,75.0
23205,50.0,0,48,6.0,127.0
23206,50.0,60,48,6.0,127.0
23207,62.0,0,114,5.0,75.0
23208,65.0,0,114,4.0,100.0
23209,53.0,0,114,4.0,100.0
23210,74.0,0,114,5.0,75.0
23211,62.0,0,114,4.0,100.0
23212,50.0,0,114,4.0,100.0
23213,74.0,60,0,1.0,76.0
23214,86.0,0,120,1.0,89.0
23215,65.0,0,120,2.0,71.0
23216,53.0,0,120,2.0,71.0
23217,50.0,0,120,12.0,114.0
23218,77.0,60,120,8.0,114.0
23219,89.0,0,120,10.0,114.0
23220,62.0,0,120,11.0,114.0
23221,89.0,0,120,0.0,95.0
23222,38.0,0,120,13.0,114.0
23223,65.0,0,120,3.0,71.0
23224,38.0,0,120,3.0,71.0
23225,50.0,0,120,4.0,100.0
23226,76.0,0,120,10.0,127.0
23227,74.0,0,120,5.0,127.0
23228,55.0,0,120,12.0,127.0
23229,58.0,0,120,3.0,76.0
23230,62.0,0,120,4.0,100.0
23231,62.0,0,120,5.0,127.0
23232,58.0,0,120,2.0,76.0
23233,43.0,0,120,13.0,127.0
23234,82.0,0,120,1.0,76.0
23235,55.0,0,120,3.0,76.0
23236,76.0,0,120,8.0,127.0
23237,55.0,0,120,2.0,76.0
23238,55.0,0,120,11.0,127.0
23239,86.0,0,120,0.0,76.0
23240,88.0,0,120,0.0,76.0
23241,74.0,0,120,10.0,127.0
23242,58.0,0,120,4.0,100.0
23243,46.0,0,120,4.0,100.0
23244,50.0,0,192,6.0,127.0
23245,86.0,0,120,0.0,76.0
23246,88.0,0,120,0.0,76.0
23247,58.0,0,120,3.0,76.0
23248,67.0,240,120,2.0,76.0
23249,70.0,0,120,2.0,76.0
23250,74.0,0,120,1.0,76.0
23251,82.0,0,120,1.0,76.0
23252,67.0,0,120,3.0,76.0
23253,62.0,0,120,4.0,100.0
23254,88.0,0,120,8.0,127.0
23255,64.0,0,120,4.0,100.0
23256,50.0,0,120,4.0,100.0
23257,76.0,0,120,10.0,127.0
23258,74.0,0,120,10.0,127.0
23259,62.0,0,120,5.0,127.0
23260,70.0,0,120,11.0,127.0
23261,74.0,0,120,5.0,127.0
23262,50.0,0,192,6.0,127.0
23263,50.0,0,120,4.0,100.0
23264,46.0,0,120,13.0,127.0
23265,62.0,240,120,4.0,100.0
23266,58.0,0,120,12.0,127.0
23267,64.0,0,120,4.0,100.0
23268,57.0,0,120,4.0,100.0
23269,57.0,0,120,12.0,127.0
23270,67.0,0,120,11.0,127.0
23271,69.0,0,120,5.0,127.0
23272,69.0,0,120,8.0,127.0
23273,73.0,0,120,1.0,76.0
23274,88.0,0,120,8.0,127.0
23275,76.0,0,120,10.0,127.0
23276,73.0,0,120,10.0,127.0
23277,88.0,0,120,0.0,76.0
23278,85.0,0,120,0.0,76.0
23279,64.0,0,120,3.0,76.0
23280,61.0,0,120,3.0,76.0
23281,57.0,0,120,5.0,127.0
23282,76.0,0,120,2.0,76.0
23283,76.0,0,120,1.0,76.0
23284,73.0,0,120,2.0,76.0
23285,45.0,240,120,13.0,127.0
23286,45.0,0,192,6.0,127.0
23287,45.0,240,120,6.0,52.0
23288,57.0,0,120,5.0,52.0
23289,69.0,0,120,5.0,52.0
23290,45.0,120,120,3.0,71.0
23291,69.0,0,120,1.0,71.0
23292,69.0,0,120,0.0,46.0
23293,70.0,0,84,1.0,71.0
23294,70.0,0,84,0.0,46.0
23295,46.0,120,84,3.0,71.0
23296,45.0,0,120,3.0,71.0
23297,69.0,120,120,0.0,46.0
23298,69.0,0,120,1.0,71.0
23299,70.0,0,84,1.0,71.0
23300,70.0,0,84,0.0,46.0
23301,46.0,120,84,3.0,71.0
23302,69.0,0,576,4.0,60.0
23303,57.0,0,576,4.0,60.0
23304,69.0,0,720,11.0,85.0
23305,81.0,0,720,8.0,85.0
23306,71.0,0,120,1.0,71.0
23307,47.0,120,120,3.0,71.0
23308,29.0,0,720,13.0,85.0
23309,71.0,0,120,0.0,46.0
23310,41.0,0,720,12.0,85.0
23311,73.0,0,84,0.0,46.0
23312,73.0,120,84,1.0,71.0
23313,49.0,0,84,3.0,71.0
23314,45.0,0,90,6.0,52.0
23315,69.0,0,90,5.0,52.0
23316,57.0,0,90,5.0,52.0
23317,45.0,60,30,6.0,52.0
23318,69.0,0,30,5.0,52.0
23319,57.0,0,30,5.0,52.0
23320,80.0,0,240,8.0,85.0
23321,53.0,0,240,12.0,85.0
23322,74.0,120,120,1.0,71.0
23323,74.0,0,120,0.0,46.0
23324,68.0,0,240,11.0,85.0
23325,41.0,0,240,13.0,85.0
23326,50.0,0,120,3.0,71.0
23327,76.0,60,84,1.0,71.0
23328,79.0,0,84,8.0,85.0
23329,67.0,0,84,11.0,85.0
23330,76.0,0,84,0.0,46.0
23331,52.0,0,84,12.0,85.0
23332,40.0,0,84,13.0,85.0
23333,52.0,0,84,3.0,71.0
23334,57.0,0,354,4.0,60.0
23335,69.0,0,354,4.0,60.0
23336,45.0,0,120,6.0,52.0
23337,69.0,0,120,5.0,52.0
23338,57.0,0,120,5.0,52.0
23339,62.0,0,120,12.0,85.0
23340,53.0,120,120,3.0,71.0
23341,77.0,0,120,1.0,71.0
23342,77.0,0,120,0.0,46.0
23343,77.0,0,120,8.0,85.0
23344,50.0,0,120,13.0,85.0
23345,65.0,0,120,11.0,85.0
23346,79.0,0,84,1.0,71.0
23347,79.0,0,84,0.0,46.0
23348,55.0,0,84,3.0,71.0
23349,76.0,0,84,8.0,85.0
23350,49.0,0,84,13.0,85.0
23351,61.0,120,84,12.0,85.0
23352,64.0,0,84,11.0,85.0
23353,69.0,0,234,4.0,60.0
23354,57.0,0,234,4.0,60.0
23355,74.0,0,120,8.0,85.0
23356,46.0,0,120,13.0,85.0
23357,81.0,0,120,0.0,46.0
23358,81.0,0,120,1.0,71.0
23359,58.0,120,120,12.0,85.0
23360,57.0,0,120,3.0,71.0
23361,62.0,0,120,11.0,85.0
23362,58.0,0,84,3.0,71.0
23363,73.0,120,84,8.0,85.0
23364,45.0,0,84,13.0,85.0
23365,82.0,0,84,0.0,46.0
23366,82.0,0,84,1.0,71.0
23367,57.0,0,84,12.0,85.0
23368,61.0,0,84,11.0,85.0
23369,69.0,0,234,4.0,60.0
23370,57.0,0,234,4.0,60.0
23371,55.0,120,120,12.0,85.0
23372,61.0,0,120,3.0,71.0
23373,73.0,0,120,1.0,71.0
23374,58.0,0,120,11.0,85.0
23375,85.0,0,120,0.0,46.0
23376,43.0,0,120,13.0,85.0
23377,70.0,0,120,8.0,85.0
23378,53.0,0,84,12.0,85.0
23379,62.0,0,84,3.0,71.0
23380,86.0,0,84,0.0,46.0
23381,57.0,0,84,11.0,85.0
23382,69.0,0,84,8.0,85.0
23383,41.0,0,84,13.0,85.0
23384,74.0,0,84,1.0,71.0
23385,57.0,0,90,5.0,52.0
23386,45.0,120,90,6.0,52.0
23387,69.0,0,90,5.0,52.0
23388,69.0,0,234,4.0,60.0
23389,57.0,0,234,4.0,60.0
23390,69.0,60,30,5.0,52.0
23391,57.0,0,30,5.0,52.0
23392,45.0,0,30,6.0,52.0
23393,57.0,0,114,4.0,60.0
23394,69.0,0,114,4.0,60.0
23395,88.0,0,120,0.0,46.0
23396,52.0,0,120,12.0,85.0
23397,55.0,0,120,11.0,85.0
23398,64.0,0,120,3.0,71.0
23399,67.0,0,120,8.0,85.0
23400,76.0,0,120,1.0,71.0
23401,40.0,120,120,13.0,85.0
23402,62.0,0,120,5.0,52.0
23403,50.0,0,120,6.0,52.0
23404,74.0,0,120,5.0,52.0
23405,50.0,0,192,4.0,80.0
23406,62.0,0,192,4.0,80.0
23407,50.0,0,226,12.0,68.0
23408,38.0,0,226,13.0,68.0
23409,53.0,0,234,11.0,80.0
23410,65.0,240,324,10.0,55.0
23411,65.0,0,324,8.0,55.0
23412,53.0,0,324,11.0,55.0
23413,53.0,0,576,4.0,60.0
23414,65.0,0,576,4.0,60.0
23415,55.0,0,120,11.0,55.0
23416,65.0,0,120,10.0,55.0
23417,77.0,0,720,2.0,62.0
23418,89.0,60,720,0.0,82.0
23419,38.0,0,720,3.0,82.0
23420,50.0,0,720,3.0,82.0
23421,67.0,360,120,8.0,55.0
23422,57.0,0,84,11.0,55.0
23423,65.0,0,84,10.0,55.0
23424,69.0,0,84,8.0,55.0
23425,53.0,0,84,11.0,55.0
23426,70.0,0,120,8.0,55.0
23427,67.0,120,120,10.0,55.0
23428,76.0,120,240,2.0,62.0
23429,88.0,0,240,0.0,82.0
23430,36.0,0,240,3.0,82.0
23431,48.0,0,0,3.0,82.0
23432,55.0,0,120,11.0,55.0
23433,58.0,0,120,11.0,55.0
23434,57.0,0,84,11.0,55.0
23435,60.0,0,84,11.0,55.0
23436,87.0,0,84,0.0,82.0
23437,75.0,0,84,2.0,62.0
23438,72.0,0,84,8.0,55.0
23439,69.0,120,84,10.0,55.0
23440,60.0,0,84,3.0,82.0
23441,77.0,0,1056,1.0,80.0
23442,65.0,0,1056,1.0,80.0
23443,53.0,0,354,4.0,60.0
23444,65.0,0,354,4.0,60.0
23445,62.0,120,120,11.0,55.0
23446,58.0,0,120,11.0,55.0
23447,46.0,0,120,3.0,82.0
23448,74.0,0,120,2.0,62.0
23449,86.0,0,120,0.0,82.0
23450,70.0,0,120,10.0,55.0
23451,74.0,0,120,8.0,55.0
23452,58.0,0,120,3.0,82.0
23453,60.0,0,84,11.0,55.0
23454,57.0,0,84,3.0,82.0
23455,45.0,0,84,3.0,82.0
23456,72.0,0,84,2.0,62.0
23457,63.0,0,84,11.0,55.0
23458,72.0,120,84,10.0,55.0
23459,84.0,0,84,0.0,82.0
23460,75.0,0,84,8.0,55.0
23461,65.0,0,216,1.0,80.0
23462,77.0,0,216,1.0,80.0
23463,53.0,0,234,4.0,60.0
23464,65.0,0,234,4.0,60.0
23465,62.0,0,120,11.0,55.0
23466,65.0,0,120,11.0,55.0
23467,74.0,0,120,10.0,55.0
23468,70.0,0,120,2.0,62.0
23469,77.0,0,120,8.0,55.0
23470,55.0,0,120,3.0,82.0
23471,43.0,0,120,3.0,82.0
23472,82.0,0,120,0.0,82.0
23473,75.0,120,84,10.0,55.0
23474,53.0,0,84,3.0,82.0
23475,63.0,0,84,11.0,55.0
23476,67.0,0,84,11.0,55.0
23477,41.0,0,84,3.0,82.0
23478,79.0,0,84,8.0,55.0
23479,69.0,0,84,2.0,62.0
23480,81.0,0,84,0.0,82.0
23481,65.0,0,216,1.0,80.0
23482,77.0,0,216,1.0,80.0
23483,65.0,0,234,4.0,60.0
23484,53.0,120,234,4.0,60.0
23485,77.0,0,96,1.0,80.0
23486,65.0,0,96,1.0,80.0
23487,81.0,0,120,8.0,55.0
23488,65.0,0,120,11.0,55.0
23489,69.0,0,120,11.0,55.0
23490,39.0,0,120,3.0,82.0
23491,51.0,0,120,3.0,82.0
23492,67.0,120,120,2.0,62.0
23493,77.0,0,120,10.0,55.0
23494,79.0,0,120,0.0,82.0
23495,38.0,120,84,3.0,82.0
23496,77.0,0,84,0.0,82.0
23497,82.0,0,84,8.0,55.0
23498,50.0,0,84,3.0,82.0
23499,67.0,0,84,11.0,55.0
23500,70.0,0,84,11.0,55.0
23501,65.0,0,84,2.0,62.0
23502,79.0,0,84,10.0,55.0
23503,67.0,0,96,1.0,80.0
23504,79.0,0,96,1.0,80.0
23505,65.0,0,234,4.0,60.0
23506,53.0,0,234,4.0,60.0
23507,69.0,0,96,1.0,80.0
23508,81.0,0,96,1.0,80.0
23509,65.0,0,114,4.0,60.0
23510,53.0,0,114,4.0,60.0
23511,63.0,0,120,2.0,62.0
23512,36.0,0,120,3.0,82.0
23513,48.0,0,120,3.0,82.0
23514,84.0,0,120,8.0,55.0
23515,75.0,120,120,0.0,82.0
23516,72.0,0,120,11.0,55.0
23517,81.0,0,120,10.0,55.0
23518,69.0,0,120,11.0,55.0
23519,74.0,0,84,0.0,75.0
23520,86.0,0,84,0.0,75.0
23521,70.0,0,84,1.0,75.0
23522,46.0,120,84,3.0,75.0
23523,58.0,0,84,3.0,75.0
23524,82.0,0,84,1.0,75.0
23525,62.0,0,120,5.0,75.0
23526,74.0,0,120,5.0,75.0
23527,50.0,0,120,6.0,75.0
23528,66.0,0,120,0.0,76.0
23529,66.0,120,120,1.0,76.0
23530,54.0,0,120,3.0,76.0
23531,67.0,0,84,0.0,78.0
23532,67.0,120,84,1.0,78.0
23533,55.0,0,84,3.0,78.0
23534,69.0,0,120,1.0,79.0
23535,69.0,120,120,0.0,79.0
23536,57.0,0,120,3.0,79.0
23537,70.0,0,84,0.0,80.0
23538,58.0,0,84,3.0,80.0
23539,70.0,120,84,1.0,80.0
23540,50.0,0,576,4.0,75.0
23541,62.0,0,576,4.0,75.0
23542,86.0,0,720,8.0,95.0
23543,62.0,0,720,11.0,95.0
23544,72.0,120,120,0.0,81.0
23545,34.0,0,720,13.0,95.0
23546,74.0,0,720,10.0,95.0
23547,74.0,0,720,2.0,75.0
23548,46.0,0,720,12.0,95.0
23549,72.0,0,120,1.0,81.0
23550,48.0,0,120,3.0,81.0
23551,74.0,0,84,1.0,83.0
23552,50.0,0,84,3.0,83.0
23553,74.0,0,84,0.0,83.0
23554,62.0,0,90,5.0,83.0
23555,74.0,120,90,5.0,83.0
23556,50.0,0,90,6.0,83.0
23557,50.0,0,30,6.0,84.0
23558,74.0,0,30,5.0,84.0
23559,62.0,60,30,5.0,84.0
23560,73.0,0,240,10.0,104.0
23561,76.0,120,120,1.0,84.0
23562,46.0,0,240,13.0,104.0
23563,76.0,0,120,0.0,84.0
23564,85.0,0,240,8.0,104.0
23565,52.0,0,120,3.0,84.0
23566,61.0,0,240,11.0,104.0
23567,73.0,0,240,2.0,83.0
23568,58.0,0,240,12.0,104.0
23569,62.0,60,60,5.0,85.0
23570,50.0,0,60,6.0,85.0
23571,74.0,0,60,5.0,85.0
23572,45.0,0,84,13.0,108.0
23573,54.0,0,84,3.0,85.0
23574,84.0,0,84,8.0,108.0
23575,42.0,0,84,3.0,85.0
23576,60.0,0,84,11.0,108.0
23577,72.0,0,84,2.0,85.0
23578,72.0,0,84,10.0,108.0
23579,78.0,0,84,0.0,85.0
23580,78.0,0,84,1.0,85.0
23581,57.0,0,84,12.0,108.0
23582,66.0,0,84,1.0,85.0
23583,62.0,0,354,4.0,83.0
23584,50.0,0,354,4.0,83.0
23585,50.0,0,60,6.0,86.0
23586,70.0,0,120,10.0,109.0
23587,70.0,0,120,2.0,86.0
23588,82.0,120,120,8.0,109.0
23589,43.0,0,120,13.0,109.0
23590,55.0,0,120,3.0,86.0
23591,79.0,0,120,0.0,86.0
23592,79.0,0,120,1.0,86.0
23593,67.0,0,120,1.0,86.0
23594,43.0,0,120,3.0,86.0
23595,58.0,0,120,11.0,109.0
23596,55.0,0,120,12.0,109.0
23597,74.0,0,180,5.0,86.0
23598,62.0,0,180,5.0,86.0
23599,50.0,0,60,6.0,88.0
23600,57.0,0,84,3.0,88.0
23601,45.0,0,84,3.0,88.0
23602,69.0,0,84,2.0,88.0
23603,42.0,0,84,13.0,111.0
23604,81.0,0,84,8.0,111.0
23605,54.0,0,84,12.0,111.0
23606,69.0,0,84,1.0,88.0
23607,57.0,0,84,11.0,111.0
23608,81.0,0,84,0.0,88.0
23609,81.0,0,84,1.0,88.0
23610,69.0,120,84,10.0,111.0
23611,50.0,0,234,4.0,86.0
23612,62.0,0,234,4.0,86.0
23613,50.0,120,60,6.0,89.0
23614,58.0,0,120,3.0,89.0
23615,46.0,0,120,3.0,89.0
23616,67.0,0,120,10.0,112.0
23617,55.0,0,120,11.0,112.0
23618,79.0,0,120,8.0,112.0
23619,82.0,0,120,1.0,89.0
23620,70.0,0,120,1.0,89.0
23621,67.0,0,120,2.0,89.0
23622,82.0,0,120,0.0,89.0
23623,39.0,0,120,13.0,112.0
23624,51.0,0,120,12.0,112.0
23625,62.0,0,180,5.0,89.0
23626,50.0,0,60,6.0,90.0
23627,74.0,0,180,5.0,89.0
23628,78.0,0,84,8.0,114.0
23629,84.0,0,84,1.0,90.0
23630,54.0,0,84,11.0,114.0
23631,66.0,0,84,2.0,90.0
23632,66.0,0,84,10.0,114.0
23633,48.0,0,84,3.0,90.0
23634,38.0,0,84,13.0,114.0
23635,60.0,120,84,3.0,90.0
23636,50.0,0,84,12.0,114.0
23637,84.0,0,84,0.0,90.0
23638,72.0,0,84,1.0,90.0
23639,50.0,0,234,4.0,89.0
23640,62.0,0,234,4.0,89.0
23641,50.0,0,60,6.0,91.0
23642,36.0,0,120,13.0,115.0
23643,86.0,0,120,0.0,91.0
23644,63.0,0,120,2.0,91.0
23645,51.0,0,120,11.0,115.0
23646,86.0,0,0,1.0,93.0
23647,74.0,0,0,1.0,93.0
23648,75.0,0,120,8.0,115.0
23649,48.0,0,120,12.0,115.0
23650,50.0,0,120,3.0,91.0
23651,62.0,120,120,3.0,91.0
23652,63.0,0,120,10.0,115.0
23653,74.0,0,180,5.0,91.0
23654,50.0,0,60,6.0,93.0
23655,62.0,0,180,5.0,91.0
23656,50.0,0,84,11.0,117.0
23657,62.0,0,84,10.0,117.0
23658,74.0,0,84,8.0,117.0
23659,62.0,0,84,2.0,93.0
23660,34.0,120,84,13.0,117.0
23661,46.0,0,84,12.0,117.0
23662,88.0,0,84,0.0,93.0
23663,52.0,0,84,3.0,93.0
23664,64.0,0,84,3.0,93.0
23665,62.0,0,234,4.0,91.0
23666,50.0,0,234,4.0,91.0
23667,74.0,0,60,5.0,94.0
23668,50.0,0,60,6.0,94.0
23669,62.0,0,60,5.0,94.0
23670,50.0,0,114,4.0,94.0
23671,62.0,0,114,4.0,94.0
23672,45.0,0,120,12.0,118.0
23673,60.0,0,120,2.0,94.0
23674,48.0,0,120,11.0,118.0
23675,74.0,0,0,1.0,62.0
23676,72.0,0,120,8.0,118.0
23677,60.0,0,120,10.0,118.0
23678,86.0,120,0,1.0,62.0
23679,33.0,0,120,13.0,118.0
23680,90.0,0,120,0.0,94.0
23681,54.0,0,120,3.0,94.0
23682,66.0,120,120,3.0,94.0
23683,58.0,0,120,10.0,127.0
23684,58.0,0,120,11.0,127.0
23685,74.0,0,120,5.0,99.0
23686,62.0,0,120,5.0,99.0
23687,91.0,0,120,0.0,62.0
23688,79.0,0,120,2.0,62.0
23689,67.0,0,120,2.0,62.0
23690,50.0,0,120,6.0,124.0
23691,31.0,0,120,13.0,127.0
23692,67.0,0,120,3.0,62.0
23693,79.0,0,120,3.0,62.0
23694,43.0,0,120,12.0,127.0
23695,70.0,0,120,8.0,127.0
23696,62.0,0,120,4.0,62.0
23697,50.0,0,120,4.0,62.0
23698,70.0,0,90,8.0,127.0
23699,58.0,0,90,10.0,127.0
23700,50.0,0,90,6.0,124.0
23701,82.0,0,90,0.0,62.0
23702,55.0,0,90,3.0,62.0
23703,58.0,0,90,3.0,62.0
23704,74.0,0,90,5.0,99.0
23705,67.0,0,90,4.0,62.0
23706,55.0,0,90,4.0,62.0
23707,58.0,240,90,2.0,62.0
23708,70.0,0,90,2.0,62.0
23709,62.0,0,90,5.0,99.0
23710,82.0,0,90,1.0,62.0
23711,70.0,0,90,1.0,62.0
23712,55.0,0,30,3.0,62.0
23713,70.0,0,30,1.0,62.0
23714,82.0,0,30,1.0,62.0
23715,70.0,180,30,8.0,127.0
23716,58.0,0,30,3.0,62.0
23717,58.0,0,30,10.0,127.0
23718,55.0,0,30,4.0,62.0
23719,58.0,0,30,2.0,62.0
23720,70.0,0,30,2.0,62.0
23721,50.0,0,30,6.0,124.0
23722,67.0,0,30,4.0,62.0
23723,62.0,0,30,5.0,99.0
23724,74.0,0,30,5.0,99.0
23725,82.0,0,30,0.0,62.0
23726,82.0,0,120,0.0,62.0
23727,55.0,0,120,4.0,62.0
23728,67.0,0,120,4.0,62.0
23729,82.0,0,120,1.0,62.0
23730,62.0,0,120,5.0,99.0
23731,55.0,0,120,3.0,62.0
23732,58.0,0,120,3.0,62.0
23733,70.0,0,120,1.0,62.0
23734,58.0,0,120,2.0,62.0
23735,50.0,0,120,6.0,124.0
23736,74.0,0,120,5.0,99.0
23737,70.0,60,120,2.0,62.0
23738,43.0,0,384,13.0,127.0
23739,55.0,0,384,12.0,127.0
23740,58.0,0,384,11.0,127.0
23741,42.0,0,90,13.0,127.0
23742,54.0,240,90,12.0,127.0
23743,57.0,0,90,11.0,127.0
23744,42.0,0,30,13.0,127.0
23745,57.0,180,30,11.0,127.0
23746,54.0,0,30,12.0,127.0
23747,74.0,0,96,5.0,99.0
23748,50.0,0,96,6.0,124.0
23749,62.0,0,96,5.0,99.0
23750,42.0,0,120,13.0,127.0
23751,57.0,60,120,11.0,127.0
23752,54.0,0,120,12.0,127.0
23753,58.0,0,600,10.0,127.0
23754,70.0,0,600,8.0,127.0
23755,70.0,0,90,1.0,62.0
23756,82.0,0,90,1.0,62.0
23757,82.0,0,90,0.0,62.0
23758,70.0,0,90,8.0,127.0
23759,58.0,0,90,2.0,62.0
23760,58.0,0,90,3.0,62.0
23761,58.0,0,90,10.0,127.0
23762,55.0,0,90,3.0,62.0
23763,55.0,0,90,4.0,62.0
23764,70.0,0,90,2.0,62.0
23765,67.0,0,90,4.0,62.0
23766,74.0,0,96,5.0,99.0
23767,62.0,0,96,5.0,99.0
23768,50.0,0,96,6.0,124.0
23769,55.0,180,30,4.0,62.0
23770,67.0,0,30,4.0,62.0
23771,55.0,0,30,3.0,62.0
23772,82.0,0,30,0.0,62.0
23773,58.0,0,30,10.0,127.0
23774,58.0,0,30,2.0,62.0
23775,70.0,0,30,2.0,62.0
23776,70.0,0,30,8.0,127.0
23777,82.0,0,30,1.0,62.0
23778,70.0,0,30,1.0,62.0
23779,58.0,0,30,3.0,62.0
23780,70.0,0,120,1.0,62.0
23781,70.0,0,120,2.0,62.0
23782,75.0,0,120,2.0,62.0
23783,82.0,0,120,1.0,62.0
23784,82.0,0,120,0.0,62.0
23785,55.0,0,120,3.0,62.0
23786,87.0,0,120,0.0,62.0
23787,58.0,0,120,3.0,62.0
23788,55.0,0,120,4.0,62.0
23789,67.0,0,120,4.0,62.0
23790,58.0,0,384,11.0,127.0
23791,55.0,0,384,12.0,127.0
23792,43.0,240,384,13.0,127.0
23793,58.0,0,90,11.0,127.0
23794,55.0,0,90,12.0,127.0
23795,43.0,240,90,13.0,127.0
23796,58.0,0,30,11.0,127.0
23797,55.0,180,30,12.0,127.0
23798,43.0,0,30,13.0,127.0
23799,58.0,0,120,11.0,127.0
23800,55.0,60,120,12.0,127.0
23801,63.0,60,600,10.0,127.0
23802,43.0,0,120,13.0,127.0
23803,75.0,0,600,8.0,127.0
23804,45.0,0,90,4.0,62.0
23805,61.0,0,90,10.0,127.0
23806,61.0,0,90,2.0,62.0
23807,73.0,0,90,1.0,62.0
23808,45.0,0,90,6.0,124.0
23809,73.0,240,90,8.0,127.0
23810,57.0,0,90,4.0,62.0
23811,45.0,0,90,3.0,62.0
23812,85.0,0,90,0.0,62.0
23813,57.0,0,90,3.0,62.0
23814,57.0,0,90,5.0,99.0
23815,73.0,0,90,2.0,62.0
23816,69.0,0,90,5.0,99.0
23817,73.0,0,30,1.0,62.0
23818,57.0,0,30,3.0,62.0
23819,45.0,0,30,3.0,62.0
23820,45.0,0,30,4.0,62.0
23821,57.0,0,30,4.0,62.0
23822,85.0,0,30,0.0,62.0
23823,73.0,0,30,2.0,62.0
23824,61.0,0,30,2.0,62.0
23825,61.0,0,30,10.0,127.0
23826,45.0,180,30,6.0,124.0
23827,73.0,0,30,8.0,127.0
23828,69.0,0,30,5.0,99.0
23829,57.0,0,30,5.0,99.0
23830,45.0,0,120,6.0,124.0
23831,57.0,0,120,3.0,62.0
23832,45.0,0,120,3.0,62.0
23833,73.0,0,120,1.0,62.0
23834,45.0,0,120,4.0,62.0
23835,85.0,0,120,0.0,62.0
23836,73.0,0,120,2.0,62.0
23837,61.0,60,120,2.0,62.0
23838,69.0,0,120,5.0,99.0
23839,57.0,0,120,5.0,99.0
23840,57.0,0,120,4.0,62.0
23841,45.0,0,384,13.0,127.0
23842,57.0,0,384,12.0,127.0
23843,44.0,0,90,13.0,127.0
23844,56.0,240,90,12.0,127.0
23845,56.0,0,30,12.0,127.0
23846,44.0,180,30,13.0,127.0
23847,61.0,0,600,10.0,127.0
23848,44.0,0,120,13.0,127.0
23849,73.0,0,600,8.0,127.0
23850,56.0,60,120,12.0,127.0
23851,77.0,0,90,8.0,127.0
23852,77.0,0,90,2.0,62.0
23853,65.0,0,90,2.0,62.0
23854,69.0,0,90,5.0,99.0
23855,57.0,0,90,4.0,62.0
23856,65.0,0,90,10.0,127.0
23857,57.0,0,90,5.0,99.0
23858,45.0,0,90,6.0,124.0
23859,45.0,0,90,3.0,62.0
23860,85.0,0,90,0.0,62.0
23861,57.0,0,90,3.0,62.0
23862,89.0,0,90,0.0,62.0
23863,77.0,0,90,1.0,62.0
23864,69.0,240,90,4.0,62.0
23865,73.0,0,90,1.0,62.0
23866,65.0,0,30,10.0,127.0
23867,85.0,0,30,0.0,62.0
23868,89.0,0,30,0.0,62.0
23869,45.0,0,30,6.0,124.0
23870,57.0,0,30,3.0,62.0
23871,45.0,0,30,3.0,62.0
23872,65.0,0,30,2.0,62.0
23873,77.0,0,30,8.0,127.0
23874,57.0,180,30,4.0,62.0
23875,69.0,0,30,5.0,99.0
23876,57.0,0,30,5.0,99.0
23877,77.0,0,30,2.0,62.0
23878,77.0,0,30,1.0,62.0
23879,73.0,0,30,1.0,62.0
23880,69.0,0,30,4.0,62.0
23881,57.0,0,120,5.0,99.0
23882,73.0,0,120,1.0,62.0
23883,89.0,0,120,0.0,62.0
23884,85.0,0,120,0.0,62.0
23885,77.0,60,120,2.0,62.0
23886,69.0,0,120,5.0,99.0
23887,45.0,0,120,6.0,124.0
23888,57.0,0,120,4.0,62.0
23889,69.0,0,120,4.0,62.0
23890,57.0,0,120,3.0,62.0
23891,45.0,0,120,3.0,62.0
23892,77.0,0,120,1.0,62.0
23893,65.0,0,120,2.0,62.0
23894,57.0,0,384,12.0,127.0
23895,45.0,0,384,13.0,127.0
23896,57.0,240,90,12.0,127.0
23897,45.0,0,90,13.0,127.0
23898,57.0,0,30,12.0,127.0
23899,45.0,180,30,13.0,127.0
23900,65.0,0,600,10.0,127.0
23901,77.0,0,600,8.0,127.0
23902,57.0,60,120,12.0,127.0
23903,45.0,0,120,13.0,127.0
23904,62.0,0,90,4.0,99.0
23905,50.0,0,90,4.0,99.0
23906,46.0,0,90,13.0,127.0
23907,74.0,0,90,8.0,127.0
23908,58.0,0,90,12.0,127.0
23909,62.0,0,90,10.0,127.0
23910,58.0,0,90,3.0,99.0
23911,46.0,0,90,3.0,99.0
23912,50.0,0,90,6.0,124.0
23913,74.0,0,90,5.0,99.0
23914,62.0,0,90,1.0,99.0
23915,74.0,0,90,2.0,99.0
23916,62.0,0,90,2.0,99.0
23917,86.0,0,90,0.0,99.0
23918,74.0,240,90,0.0,99.0
23919,74.0,0,90,1.0,99.0
23920,62.0,0,90,5.0,99.0
23921,50.0,0,30,6.0,124.0
23922,62.0,0,30,2.0,99.0
23923,46.0,0,30,13.0,127.0
23924,58.0,0,30,3.0,99.0
23925,46.0,0,30,3.0,99.0
23926,62.0,180,30,10.0,127.0
23927,74.0,0,30,2.0,99.0
23928,58.0,0,30,12.0,127.0
23929,74.0,0,30,8.0,127.0
23930,62.0,0,30,5.0,99.0
23931,62.0,0,30,4.0,99.0
23932,74.0,0,30,0.0,99.0
23933,86.0,0,30,0.0,99.0
23934,74.0,0,30,5.0,99.0
23935,74.0,0,30,1.0,99.0
23936,62.0,0,30,1.0,99.0
23937,50.0,0,30,4.0,99.0
23938,62.0,0,120,10.0,127.0
23939,62.0,0,120,1.0,99.0
23940,74.0,0,120,1.0,99.0
23941,74.0,0,120,8.0,127.0
23942,50.0,0,120,6.0,124.0
23943,62.0,60,120,2.0,99.0
23944,86.0,0,120,0.0,99.0
23945,46.0,0,120,3.0,99.0
23946,62.0,0,120,5.0,99.0
23947,74.0,0,120,5.0,99.0
23948,46.0,0,120,13.0,127.0
23949,50.0,0,120,4.0,99.0
23950,62.0,0,120,4.0,99.0
23951,74.0,0,120,0.0,99.0
23952,58.0,0,120,3.0,99.0
23953,74.0,0,120,2.0,99.0
23954,58.0,0,120,12.0,127.0
23955,62.0,0,90,5.0,99.0
23956,59.0,0,90,12.0,127.0
23957,59.0,240,90,3.0,99.0
23958,47.0,0,90,13.0,127.0
23959,74.0,0,90,5.0,99.0
23960,79.0,0,90,1.0,99.0
23961,74.0,0,90,1.0,99.0
23962,91.0,0,90,0.0,99.0
23963,50.0,0,90,6.0,124.0
23964,67.0,0,90,10.0,127.0
23965,79.0,0,90,8.0,127.0
23966,62.0,0,90,4.0,99.0
23967,74.0,0,90,2.0,99.0
23968,79.0,0,90,2.0,99.0
23969,47.0,0,90,3.0,99.0
23970,86.0,0,90,0.0,99.0
23971,62.0,0,30,5.0,99.0
23972,79.0,0,30,8.0,127.0
23973,79.0,0,30,1.0,99.0
23974,59.0,0,30,3.0,99.0
23975,47.0,180,30,3.0,99.0
23976,91.0,0,30,0.0,99.0
23977,86.0,0,30,0.0,99.0
23978,67.0,0,30,10.0,127.0
23979,74.0,0,30,1.0,99.0
23980,59.0,0,30,12.0,127.0
23981,67.0,0,30,4.0,99.0
23982,47.0,0,30,13.0,127.0
23983,50.0,0,30,6.0,124.0
23984,79.0,0,30,2.0,99.0
23985,74.0,0,30,2.0,99.0
23986,74.0,0,30,5.0,99.0
23987,62.0,0,30,4.0,99.0
23988,79.0,0,120,1.0,99.0
23989,74.0,0,120,1.0,99.0
23990,79.0,0,120,8.0,127.0
23991,59.0,0,120,3.0,99.0
23992,79.0,0,120,2.0,99.0
23993,74.0,0,120,2.0,99.0
23994,47.0,0,120,13.0,127.0
23995,47.0,0,120,3.0,99.0
23996,50.0,0,120,6.0,124.0
23997,91.0,0,120,0.0,99.0
23998,86.0,0,120,0.0,99.0
23999,74.0,0,120,5.0,99.0
24000,67.0,0,120,10.0,127.0
24001,67.0,60,120,4.0,99.0
24002,62.0,0,120,5.0,99.0
24003,59.0,0,120,12.0,127.0
24004,62.0,0,120,4.0,99.0
24005,76.0,0,90,5.0,99.0
24006,60.0,240,90,12.0,127.0
24007,76.0,0,90,8.0,127.0
24008,64.0,0,90,4.0,99.0
24009,76.0,0,90,1.0,99.0
24010,76.0,0,90,2.0,99.0
24011,67.0,0,90,4.0,99.0
24012,48.0,0,90,3.0,99.0
24013,60.0,0,90,3.0,99.0
24014,88.0,0,90,0.0,99.0
24015,48.0,0,90,13.0,127.0
24016,64.0,0,90,10.0,127.0
24017,76.0,0,30,5.0,99.0
24018,76.0,0,30,1.0,99.0
24019,88.0,0,30,0.0,99.0
24020,76.0,0,30,8.0,127.0
24021,64.0,0,30,10.0,127.0
24022,60.0,0,30,12.0,127.0
24023,48.0,0,30,13.0,127.0
24024,60.0,0,30,3.0,99.0
24025,48.0,180,30,3.0,99.0
24026,67.0,0,30,4.0,99.0
24027,64.0,0,30,4.0,99.0
24028,76.0,0,30,2.0,99.0
24029,88.0,0,120,0.0,99.0
24030,76.0,0,120,1.0,99.0
24031,76.0,0,120,5.0,99.0
24032,64.0,0,120,4.0,99.0
24033,61.0,0,120,3.0,99.0
24034,49.0,0,120,3.0,99.0
24035,64.0,0,120,10.0,127.0
24036,61.0,0,120,12.0,127.0
24037,76.0,0,120,8.0,127.0
24038,76.0,0,120,2.0,99.0
24039,49.0,60,120,13.0,127.0
24040,81.0,0,90,8.0,127.0
24041,69.0,240,90,10.0,127.0
24042,45.0,0,90,6.0,124.0
24043,69.0,0,90,1.0,99.0
24044,81.0,0,90,1.0,99.0
24045,57.0,0,90,3.0,99.0
24046,81.0,0,90,0.0,99.0
24047,69.0,0,90,2.0,99.0
24048,69.0,0,90,4.0,99.0
24049,57.0,0,90,5.0,99.0
24050,69.0,0,90,5.0,99.0
24051,57.0,0,90,12.0,127.0
24052,57.0,0,90,4.0,99.0
24053,93.0,0,90,0.0,99.0
24054,45.0,0,90,3.0,99.0
24055,45.0,0,90,13.0,127.0
24056,81.0,0,90,2.0,99.0
24057,81.0,0,30,8.0,127.0
24058,69.0,0,30,4.0,99.0
24059,81.0,0,30,1.0,99.0
24060,69.0,0,30,1.0,99.0
24061,57.0,0,30,12.0,127.0
24062,45.0,0,30,3.0,99.0
24063,57.0,0,30,3.0,99.0
24064,57.0,0,30,4.0,99.0
24065,69.0,0,30,10.0,127.0
24066,45.0,0,30,6.0,124.0
24067,69.0,0,30,5.0,99.0
24068,45.0,0,30,13.0,127.0
24069,81.0,0,30,0.0,99.0
24070,81.0,0,30,2.0,99.0
24071,69.0,180,30,2.0,99.0
24072,57.0,0,30,5.0,99.0
24073,93.0,0,30,0.0,99.0
24074,57.0,0,96,4.0,40.0
24075,69.0,0,114,2.0,50.0
24076,81.0,0,114,2.0,50.0
24077,57.0,0,114,3.0,50.0
24078,69.0,0,114,1.0,50.0
24079,81.0,0,114,1.0,50.0
24080,81.0,0,114,0.0,50.0
24081,93.0,0,114,0.0,50.0
24082,45.0,0,114,3.0,50.0
24083,57.0,0,120,5.0,56.0
24084,45.0,0,120,6.0,62.0
24085,69.0,0,120,5.0,56.0
24086,62.0,0,576,4.0,56.0
24087,66.0,360,60,4.0,56.0
24088,64.0,120,60,4.0,56.0
24089,62.0,120,60,4.0,56.0
24090,69.0,120,120,4.0,56.0
24091,67.0,0,120,4.0,56.0
24092,69.0,0,120,5.0,39.0
24093,45.0,240,120,6.0,43.0
24094,57.0,0,120,5.0,39.0
24095,73.0,0,576,1.0,45.0
24096,64.0,240,120,4.0,56.0
24097,76.0,120,60,1.0,45.0
24098,45.0,240,1440,4.0,56.0
24099,74.0,0,60,1.0,45.0
24100,44.0,120,120,4.0,56.0
24101,73.0,120,60,1.0,45.0
24102,45.0,0,96,4.0,56.0
24103,69.0,0,360,4.0,56.0
24104,57.0,0,120,5.0,39.0
24105,69.0,0,120,5.0,39.0
24106,45.0,240,120,6.0,43.0
24107,66.0,0,120,4.0,56.0
24108,74.0,0,576,1.0,45.0
24109,62.0,240,120,4.0,56.0
24110,78.0,120,60,1.0,45.0
24111,45.0,120,720,4.0,56.0
24112,76.0,0,60,1.0,45.0
24113,44.0,0,120,4.0,56.0
24114,74.0,0,60,1.0,45.0
24115,45.0,120,96,4.0,56.0
24116,69.0,120,360,4.0,56.0
24117,45.0,0,120,6.0,43.0
24118,64.0,240,120,4.0,56.0
24119,57.0,0,120,5.0,39.0
24120,69.0,0,120,5.0,39.0
24121,76.0,120,576,1.0,45.0
24122,61.0,0,576,3.0,45.0
24123,57.0,240,120,4.0,56.0
24124,64.0,120,60,3.0,45.0
24125,79.0,0,60,1.0,45.0
24126,45.0,0,720,4.0,56.0
24127,78.0,0,60,1.0,45.0
24128,62.0,0,60,3.0,45.0
24129,44.0,120,120,4.0,56.0
24130,76.0,0,60,1.0,45.0
24131,61.0,0,60,3.0,45.0
24132,45.0,120,96,4.0,56.0
24133,69.0,0,360,4.0,56.0
24134,45.0,0,120,6.0,43.0
24135,57.0,0,120,5.0,39.0
24136,66.0,240,120,4.0,56.0
24137,69.0,0,120,5.0,39.0
24138,78.0,120,576,1.0,45.0
24139,62.0,0,576,3.0,45.0
24140,62.0,240,120,4.0,56.0
24141,81.0,0,60,1.0,45.0
24142,66.0,120,60,3.0,45.0
24143,45.0,0,720,4.0,56.0
24144,79.0,0,60,1.0,45.0
24145,64.0,120,60,3.0,45.0
24146,44.0,0,120,4.0,56.0
24147,78.0,120,60,1.0,45.0
24148,62.0,0,60,3.0,45.0
24149,45.0,0,96,4.0,56.0
24150,69.0,0,360,4.0,56.0
24151,57.0,0,120,5.0,39.0
24152,67.0,0,120,4.0,56.0
24153,45.0,0,120,6.0,43.0
24154,69.0,240,120,5.0,39.0
24155,85.0,0,576,0.0,65.0
24156,61.0,0,576,3.0,45.0
24157,76.0,120,576,1.0,45.0
24158,64.0,240,120,4.0,56.0
24159,88.0,0,60,0.0,65.0
24160,79.0,120,60,1.0,45.0
24161,61.0,0,60,3.0,45.0
24162,45.0,0,720,4.0,56.0
24163,62.0,120,60,3.0,45.0
24164,86.0,0,60,0.0,65.0
24165,78.0,0,60,1.0,45.0
24166,44.0,0,120,4.0,56.0
24167,76.0,0,60,1.0,45.0
24168,64.0,0,60,3.0,45.0
24169,85.0,120,60,0.0,65.0
24170,45.0,0,96,4.0,56.0
24171,69.0,0,360,4.0,56.0
24172,69.0,0,120,5.0,39.0
24173,45.0,0,120,6.0,43.0
24174,66.0,0,120,4.0,56.0
24175,57.0,240,120,5.0,39.0
24176,62.0,0,576,3.0,45.0
24177,86.0,0,576,0.0,65.0
24178,78.0,120,576,1.0,45.0
24179,62.0,240,120,4.0,56.0
24180,90.0,120,60,0.0,65.0
24181,62.0,0,60,3.0,45.0
24182,81.0,0,60,1.0,45.0
24183,45.0,0,720,4.0,56.0
24184,79.0,0,60,1.0,45.0
24185,88.0,0,60,0.0,65.0
24186,64.0,0,60,3.0,45.0
24187,44.0,120,120,4.0,56.0
24188,78.0,120,60,1.0,45.0
24189,86.0,0,60,0.0,65.0
24190,66.0,0,60,3.0,45.0
24191,45.0,0,96,4.0,56.0
24192,69.0,0,360,4.0,56.0
24193,69.0,0,120,5.0,39.0
24194,64.0,0,120,4.0,56.0
24195,57.0,0,120,5.0,39.0
24196,45.0,240,120,6.0,43.0
24197,88.0,0,576,0.0,65.0
24198,67.0,120,576,3.0,45.0
24199,73.0,0,576,1.0,45.0
24200,57.0,240,120,4.0,56.0
24201,76.0,0,60,1.0,45.0
24202,64.0,0,60,3.0,45.0
24203,91.0,120,60,0.0,65.0
24204,45.0,0,720,4.0,56.0
24205,81.0,0,7488,8.0,32.0
24206,57.0,60,7488,12.0,32.0
24207,69.0,0,7488,10.0,32.0
24208,57.0,0,7488,11.0,32.0
24209,45.0,0,7488,13.0,32.0
24210,90.0,120,60,0.0,65.0
24211,74.0,0,60,1.0,45.0
24212,66.0,0,60,3.0,45.0
24213,44.0,0,120,4.0,56.0
24214,67.0,0,60,3.0,45.0
24215,88.0,120,60,0.0,65.0
24216,73.0,0,60,1.0,45.0
24217,45.0,0,96,4.0,56.0
24218,69.0,120,0,4.0,28.0
24219,89.0,0,60,0.0,63.0
24220,93.0,120,60,0.0,63.0
24221,45.0,0,226,4.0,39.0
24222,91.0,0,60,0.0,63.0
24223,69.0,0,120,5.0,29.0
24224,57.0,120,120,5.0,29.0
24225,45.0,0,120,6.0,32.0
24226,89.0,120,60,0.0,63.0
24227,38.0,0,534,13.0,31.0
24228,74.0,0,534,8.0,31.0
24229,62.0,0,534,10.0,31.0
24230,50.0,0,534,12.0,31.0
24231,88.0,0,60,0.0,63.0
24232,45.0,0,120,6.0,32.0
24233,69.0,120,120,5.0,29.0
24234,57.0,0,120,5.0,29.0
24235,65.0,0,54,10.0,31.0
24236,77.0,120,54,8.0,31.0
24237,53.0,0,54,12.0,31.0
24238,41.0,0,54,13.0,31.0
24239,86.0,0,60,0.0,63.0
24240,64.0,0,54,10.0,31.0
24241,40.0,0,54,13.0,31.0
24242,52.0,120,54,12.0,31.0
24243,76.0,0,54,8.0,31.0
24244,85.0,0,60,0.0,63.0
24245,38.0,120,54,13.0,31.0
24246,74.0,0,54,8.0,31.0
24247,62.0,0,54,10.0,31.0
24248,50.0,0,54,12.0,31.0
24249,86.0,0,60,0.0,63.0
24250,81.0,0,96,8.0,32.0
24251,69.0,0,96,10.0,32.0
24252,45.0,120,96,13.0,32.0
24253,57.0,0,96,12.0,32.0
24254,86.0,0,120,0.0,63.0
24255,85.0,120,60,0.0,63.0
24256,85.0,0,60,0.0,63.0
24257,79.0,0,96,8.0,32.0
24258,67.0,0,96,10.0,32.0
24259,55.0,0,96,12.0,32.0
24260,43.0,0,96,13.0,32.0
24261,45.0,120,120,6.0,32.0
24262,69.0,0,120,5.0,29.0
24263,57.0,0,120,5.0,29.0
24264,88.0,120,60,0.0,63.0
24265,85.0,0,60,0.0,63.0
24266,52.0,0,96,12.0,32.0
24267,64.0,0,96,10.0,32.0
24268,76.0,0,96,8.0,32.0
24269,40.0,0,96,13.0,32.0
24270,45.0,0,120,6.0,32.0
24271,69.0,120,120,5.0,29.0
24272,57.0,0,120,5.0,29.0
24273,88.0,120,60,0.0,63.0
24274,86.0,0,60,0.0,63.0
24275,85.0,120,60,0.0,63.0
24276,69.0,0,336,10.0,32.0
24277,57.0,0,336,12.0,32.0
24278,81.0,120,336,8.0,32.0
24279,45.0,0,336,13.0,32.0
24280,81.0,120,60,1.0,50.0
24281,86.0,120,226,0.0,63.0
24282,79.0,120,60,1.0,50.0
24283,41.0,0,96,13.0,32.0
24284,53.0,0,96,12.0,32.0
24285,65.0,0,96,10.0,32.0
24286,77.0,0,96,8.0,32.0
24287,57.0,0,120,5.0,29.0
24288,69.0,0,120,5.0,29.0
24289,45.0,0,120,6.0,32.0
24290,77.0,120,60,1.0,50.0
24291,76.0,0,60,1.0,50.0
24292,50.0,0,96,12.0,32.0
24293,74.0,0,96,8.0,32.0
24294,62.0,0,96,10.0,32.0
24295,38.0,120,96,13.0,32.0
24296,69.0,0,120,5.0,29.0
24297,45.0,0,120,6.0,32.0
24298,57.0,0,120,5.0,29.0
24299,74.0,120,60,1.0,50.0
24300,73.0,0,60,1.0,50.0
24301,74.0,120,60,1.0,50.0
24302,69.0,0,336,10.0,32.0
24303,57.0,0,336,12.0,32.0
24304,45.0,0,336,13.0,32.0
24305,81.0,120,336,8.0,32.0
24306,77.0,120,120,1.0,50.0
24307,76.0,120,60,1.0,50.0
24308,76.0,0,60,1.0,50.0
24309,64.0,0,96,10.0,32.0
24310,76.0,120,96,8.0,32.0
24311,40.0,0,96,13.0,32.0
24312,52.0,0,96,12.0,32.0
24313,57.0,0,120,5.0,29.0
24314,69.0,0,120,5.0,29.0
24315,45.0,0,120,6.0,32.0
24316,79.0,120,60,1.0,50.0
24317,76.0,0,60,1.0,50.0
24318,49.0,0,96,12.0,32.0
24319,73.0,0,96,8.0,32.0
24320,37.0,0,96,13.0,32.0
24321,61.0,0,96,10.0,32.0
24322,69.0,0,120,5.0,29.0
24323,57.0,0,120,5.0,29.0
24324,45.0,120,120,6.0,32.0
24325,79.0,120,60,1.0,50.0
24326,77.0,0,60,1.0,50.0
24327,76.0,120,60,1.0,50.0
24328,45.0,0,336,13.0,32.0
24329,81.0,120,336,8.0,32.0
24330,69.0,0,336,10.0,32.0
24331,57.0,0,336,12.0,32.0
24332,69.0,120,60,3.0,63.0
24333,77.0,120,226,1.0,50.0
24334,67.0,0,60,3.0,63.0
24335,53.0,120,96,12.0,32.0
24336,41.0,0,96,13.0,32.0
24337,65.0,0,96,10.0,32.0
24338,77.0,0,96,8.0,32.0
24339,69.0,0,120,5.0,34.0
24340,57.0,0,120,5.0,34.0
24341,45.0,0,120,6.0,34.0
24342,65.0,120,60,3.0,63.0
24343,64.0,0,60,3.0,63.0
24344,62.0,0,96,10.0,34.0
24345,38.0,0,96,13.0,34.0
24346,50.0,0,96,12.0,34.0
24347,74.0,0,96,8.0,34.0
24348,57.0,0,120,5.0,38.0
24349,69.0,120,120,5.0,38.0
24350,45.0,0,120,6.0,38.0
24351,62.0,120,60,3.0,63.0
24352,61.0,120,60,3.0,63.0
24353,45.0,0,120,6.0,41.0
24354,57.0,0,120,5.0,41.0
24355,69.0,0,120,5.0,41.0
24356,62.0,120,60,3.0,63.0
24357,69.0,0,336,10.0,37.0
24358,81.0,0,336,8.0,37.0
24359,45.0,0,336,13.0,37.0
24360,57.0,0,336,12.0,37.0
24361,69.0,0,120,5.0,36.0
24362,45.0,0,120,6.0,36.0
24363,62.0,120,120,3.0,63.0
24364,57.0,0,120,5.0,36.0
24365,61.0,120,60,3.0,63.0
24366,61.0,0,60,3.0,63.0
24367,79.0,0,96,8.0,41.0
24368,67.0,0,96,10.0,41.0
24369,55.0,0,96,12.0,41.0
24370,43.0,0,96,13.0,41.0
24371,69.0,0,120,5.0,39.0
24372,57.0,120,120,5.0,39.0
24373,45.0,0,120,6.0,39.0
24374,64.0,120,60,3.0,63.0
24375,61.0,0,60,3.0,63.0
24376,76.0,0,96,8.0,43.0
24377,52.0,0,96,12.0,43.0
24378,64.0,0,96,10.0,43.0
24379,40.0,0,96,13.0,43.0
24380,69.0,0,120,5.0,42.0
24381,57.0,0,120,5.0,42.0
24382,45.0,120,120,6.0,42.0
24383,64.0,120,60,3.0,63.0
24384,62.0,0,60,3.0,63.0
24385,57.0,0,120,5.0,45.0
24386,69.0,0,120,5.0,45.0
24387,45.0,0,120,6.0,45.0
24388,61.0,120,60,3.0,63.0
24389,69.0,0,336,10.0,46.0
24390,57.0,0,336,12.0,46.0
24391,81.0,0,336,8.0,46.0
24392,45.0,120,336,13.0,46.0
24393,45.0,0,120,6.0,48.0
24394,76.0,120,120,1.0,79.0
24395,69.0,0,120,5.0,48.0
24396,57.0,0,120,5.0,48.0
24397,74.0,120,60,1.0,79.0
24398,74.0,0,60,1.0,79.0
24399,65.0,0,96,10.0,50.0
24400,41.0,0,96,13.0,50.0
24401,53.0,0,96,12.0,50.0
24402,77.0,120,96,8.0,50.0
24403,69.0,0,120,5.0,51.0
24404,57.0,0,120,5.0,51.0
24405,45.0,0,120,6.0,51.0
24406,77.0,120,60,1.0,79.0
24407,74.0,0,60,1.0,79.0
24408,50.0,0,96,12.0,52.0
24409,38.0,0,96,13.0,52.0
24410,62.0,120,96,10.0,52.0
24411,74.0,0,96,8.0,52.0
24412,45.0,0,120,6.0,46.0
24413,57.0,0,120,5.0,46.0
24414,69.0,0,120,5.0,46.0
24415,77.0,120,60,1.0,79.0
24416,76.0,0,60,1.0,79.0
24417,57.0,0,120,5.0,48.0
24418,69.0,0,120,5.0,48.0
24419,45.0,0,120,6.0,48.0
24420,74.0,120,60,1.0,79.0
24421,69.0,0,336,10.0,54.0
24422,81.0,120,336,8.0,54.0
24423,57.0,0,336,12.0,54.0
24424,45.0,0,336,13.0,54.0
24425,69.0,0,120,5.0,51.0
24426,57.0,0,120,5.0,51.0
24427,45.0,120,120,6.0,51.0
24428,88.0,0,120,0.0,79.0
24429,86.0,120,60,0.0,79.0
24430,57.0,0,6672,4.0,28.0
24431,86.0,0,60,0.0,79.0
24432,65.0,0,96,10.0,59.0
24433,77.0,0,96,8.0,59.0
24434,41.0,120,96,13.0,59.0
24435,53.0,0,96,12.0,59.0
24436,53.0,0,108,4.0,50.0
24437,65.0,0,108,4.0,50.0
24438,50.0,0,120,6.0,79.0
24439,62.0,0,120,5.0,79.0
24440,74.0,0,120,5.0,79.0
24441,89.0,120,60,0.0,79.0
24442,77.0,0,60,0.0,79.0
24443,50.0,0,96,12.0,61.0
24444,62.0,120,96,10.0,61.0
24445,38.0,0,96,13.0,61.0
24446,74.0,0,96,8.0,61.0
24447,62.0,0,108,4.0,50.0
24448,50.0,0,108,4.0,50.0
24449,62.0,0,120,5.0,83.0
24450,50.0,0,120,6.0,83.0
24451,74.0,0,120,5.0,83.0
24452,89.0,120,60,0.0,79.0
24453,88.0,0,60,0.0,79.0
24454,62.0,0,120,5.0,73.0
24455,50.0,120,120,6.0,73.0
24456,74.0,0,120,5.0,73.0
24457,86.0,120,60,0.0,79.0
24458,46.0,0,336,13.0,63.0
24459,82.0,0,336,8.0,63.0
24460,70.0,0,336,10.0,63.0
24461,58.0,0,336,12.0,63.0
24462,62.0,0,348,4.0,50.0
24463,50.0,0,348,4.0,50.0
24464,53.0,120,120,3.0,79.0
24465,52.0,120,60,3.0,79.0
24466,52.0,120,60,3.0,79.0
24467,67.0,0,96,10.0,68.0
24468,43.0,0,96,13.0,68.0
24469,79.0,0,96,8.0,68.0
24470,55.0,0,96,12.0,68.0
24471,67.0,0,108,4.0,50.0
24472,55.0,120,60,3.0,79.0
24473,52.0,0,60,3.0,79.0
24474,40.0,0,96,13.0,70.0
24475,52.0,0,96,12.0,70.0
24476,64.0,0,96,10.0,70.0
24477,76.0,0,96,8.0,70.0
24478,67.0,120,108,4.0,50.0
24479,55.0,120,60,3.0,79.0
24480,53.0,0,60,3.0,79.0
24481,45.0,0,120,6.0,58.0
24482,69.0,120,120,5.0,58.0
24483,57.0,0,120,5.0,58.0
24484,52.0,120,60,3.0,79.0
24485,61.0,0,336,12.0,72.0
24486,85.0,0,336,8.0,72.0
24487,73.0,0,336,10.0,72.0
24488,49.0,0,336,13.0,72.0
24489,64.0,0,348,4.0,50.0
24490,79.0,120,120,1.0,85.0
24491,57.0,0,120,5.0,46.0
24492,45.0,0,120,6.0,46.0
24493,69.0,0,120,5.0,46.0
24494,77.0,120,60,1.0,85.0
24495,77.0,120,60,1.0,85.0
24496,57.0,0,96,12.0,77.0
24497,45.0,0,96,13.0,77.0
24498,69.0,0,96,10.0,77.0
24499,81.0,0,96,8.0,77.0
24500,57.0,0,108,4.0,80.0
24501,69.0,0,108,4.0,80.0
24502,57.0,0,120,5.0,58.0
24503,45.0,0,120,6.0,58.0
24504,69.0,0,120,5.0,58.0
24505,81.0,120,60,1.0,85.0
24506,77.0,0,60,1.0,85.0
24507,77.0,0,96,8.0,79.0
24508,65.0,0,96,10.0,79.0
24509,41.0,0,96,13.0,79.0
24510,53.0,0,96,12.0,79.0
24511,57.0,0,108,4.0,80.0
24512,69.0,120,108,4.0,80.0
24513,74.0,0,120,5.0,58.0
24514,62.0,0,120,5.0,58.0
24515,50.0,0,120,6.0,58.0
24516,81.0,120,60,1.0,85.0
24517,79.0,0,60,1.0,85.0
24518,62.0,0,120,5.0,46.0
24519,74.0,120,120,5.0,46.0
24520,50.0,0,120,6.0,46.0
24521,77.0,120,60,1.0,85.0
24522,86.0,0,336,8.0,81.0
24523,74.0,0,336,10.0,81.0
24524,62.0,0,336,12.0,81.0
24525,50.0,0,336,13.0,81.0
24526,50.0,0,348,4.0,80.0
24527,62.0,0,348,4.0,80.0
24528,62.0,120,120,5.0,46.0
24529,74.0,0,120,5.0,46.0
24530,69.0,0,120,2.0,85.0
24531,50.0,0,120,6.0,46.0
24532,67.0,120,60,2.0,85.0
24533,67.0,0,60,2.0,85.0
24534,34.0,0,96,13.0,86.0
24535,46.0,0,96,12.0,86.0
24536,82.0,0,96,8.0,86.0
24537,70.0,0,96,10.0,86.0
24538,62.0,0,108,4.0,80.0
24539,50.0,0,108,4.0,80.0
24540,74.0,0,120,5.0,58.0
24541,50.0,120,120,6.0,58.0
24542,62.0,0,120,5.0,58.0
24543,70.0,120,60,2.0,85.0
24544,58.0,0,60,2.0,85.0
24545,43.0,0,96,12.0,88.0
24546,67.0,0,96,10.0,88.0
24547,79.0,0,96,8.0,88.0
24548,31.0,120,96,13.0,88.0
24549,62.0,0,108,4.0,80.0
24550,50.0,0,108,4.0,80.0
24551,62.0,0,120,5.0,58.0
24552,74.0,0,120,5.0,58.0
24553,50.0,0,120,6.0,58.0
24554,70.0,120,60,2.0,85.0
24555,69.0,0,60,2.0,85.0
24556,67.0,120,60,2.0,85.0
24557,51.0,0,336,12.0,90.0
24558,39.0,120,336,13.0,90.0
24559,75.0,0,336,10.0,90.0
24560,87.0,0,336,8.0,90.0
24561,63.0,0,348,4.0,80.0
24562,82.0,120,120,0.0,85.0
24563,81.0,120,60,0.0,85.0
24564,81.0,0,60,0.0,85.0
24565,84.0,0,96,8.0,94.0
24566,48.0,120,96,12.0,94.0
24567,36.0,0,96,13.0,94.0
24568,72.0,0,96,10.0,94.0
24569,60.0,0,108,4.0,80.0
24570,84.0,120,60,0.0,85.0
24571,72.0,0,60,0.0,85.0
24572,45.0,0,96,12.0,97.0
24573,69.0,0,96,10.0,97.0
24574,33.0,0,96,13.0,97.0
24575,81.0,0,96,8.0,97.0
24576,60.0,120,108,4.0,80.0
24577,84.0,120,60,0.0,85.0
24578,82.0,0,60,0.0,85.0
24579,81.0,120,60,0.0,85.0
24580,42.0,0,336,13.0,99.0
24581,78.0,0,336,8.0,99.0
24582,66.0,0,336,10.0,99.0
24583,54.0,0,336,12.0,99.0
24584,62.0,0,348,4.0,80.0
24585,50.0,0,348,4.0,80.0
24586,60.0,120,120,3.0,85.0
24587,50.0,120,360,6.0,58.0
24588,74.0,0,360,5.0,58.0
24589,62.0,0,360,5.0,58.0
24590,58.0,120,60,3.0,85.0
24591,58.0,0,60,3.0,85.0
24592,62.0,0,96,10.0,103.0
24593,50.0,0,96,12.0,103.0
24594,38.0,0,96,13.0,103.0
24595,74.0,0,96,8.0,103.0
24596,50.0,0,108,4.0,80.0
24597,62.0,0,108,4.0,80.0
24598,62.0,0,120,5.0,58.0
24599,50.0,120,120,6.0,58.0
24600,74.0,0,120,5.0,58.0
24601,62.0,120,60,3.0,85.0
24602,50.0,0,60,3.0,85.0
24603,34.0,0,96,13.0,106.0
24604,46.0,0,96,12.0,106.0
24605,70.0,0,96,8.0,106.0
24606,58.0,120,96,10.0,106.0
24607,62.0,0,108,4.0,80.0
24608,50.0,0,108,4.0,80.0
24609,50.0,0,120,6.0,58.0
24610,62.0,0,120,5.0,58.0
24611,74.0,0,120,5.0,58.0
24612,62.0,120,60,3.0,85.0
24613,60.0,0,60,3.0,85.0
24614,58.0,120,60,3.0,85.0
24615,68.0,0,336,10.0,108.0
24616,56.0,120,336,12.0,108.0
24617,44.0,0,336,13.0,108.0
24618,80.0,0,336,8.0,108.0
24619,50.0,0,348,4.0,80.0
24620,62.0,0,348,4.0,80.0
24621,62.0,0,360,5.0,58.0
24622,50.0,0,360,6.0,58.0
24623,76.0,120,120,1.0,79.0
24624,74.0,0,360,5.0,58.0
24625,74.0,120,60,1.0,79.0
24626,74.0,0,60,1.0,79.0
24627,50.0,0,96,12.0,105.0
24628,74.0,0,96,8.0,105.0
24629,38.0,0,96,13.0,105.0
24630,62.0,120,96,10.0,105.0
24631,62.0,0,108,4.0,80.0
24632,50.0,0,108,4.0,80.0
24633,74.0,0,120,5.0,58.0
24634,62.0,0,120,5.0,58.0
24635,50.0,0,120,6.0,58.0
24636,77.0,120,60,1.0,79.0
24637,74.0,0,60,1.0,79.0
24638,34.0,0,96,13.0,100.0
24639,70.0,0,96,8.0,100.0
24640,58.0,0,96,10.0,100.0
24641,46.0,0,96,12.0,100.0
24642,62.0,0,108,4.0,80.0
24643,50.0,0,108,4.0,80.0
24644,74.0,0,120,5.0,58.0
24645,50.0,0,120,6.0,58.0
24646,62.0,120,120,5.0,58.0
24647,77.0,120,60,1.0,79.0
24648,75.0,0,60,1.0,79.0
24649,74.0,120,60,1.0,79.0
24650,80.0,0,336,8.0,76.0
24651,56.0,0,336,12.0,76.0
24652,44.0,0,336,13.0,76.0
24653,68.0,0,336,10.0,76.0
24654,46.0,0,348,4.0,40.0
24655,50.0,0,360,6.0,58.0
24656,62.0,0,360,5.0,58.0
24657,84.0,120,120,0.0,79.0
24658,74.0,120,360,5.0,58.0
24659,82.0,120,60,0.0,79.0
24660,82.0,0,60,0.0,79.0
24661,62.0,0,96,10.0,68.0
24662,74.0,0,96,8.0,68.0
24663,38.0,0,96,13.0,68.0
24664,50.0,0,96,12.0,68.0
24665,58.0,0,108,4.0,40.0
24666,46.0,0,108,4.0,40.0
24667,50.0,0,120,6.0,46.0
24668,74.0,120,120,5.0,46.0
24669,62.0,0,120,5.0,46.0
24670,86.0,120,60,0.0,79.0
24671,74.0,0,60,0.0,79.0
24672,46.0,120,96,12.0,64.0
24673,34.0,0,96,13.0,64.0
24674,70.0,0,96,8.0,64.0
24675,58.0,0,96,10.0,64.0
24676,58.0,0,108,4.0,40.0
24677,46.0,0,108,4.0,40.0
24678,74.0,0,120,5.0,46.0
24679,62.0,0,120,5.0,46.0
24680,50.0,0,120,6.0,46.0
24681,86.0,120,60,0.0,79.0
24682,84.0,0,60,0.0,79.0
24683,82.0,120,60,0.0,79.0
24684,55.0,0,336,12.0,60.0
24685,67.0,120,336,10.0,60.0
24686,79.0,0,336,8.0,60.0
24687,43.0,0,336,13.0,60.0
24688,58.0,0,348,4.0,40.0
24689,46.0,0,348,4.0,40.0
24690,77.0,120,120,2.0,53.0
24691,75.0,120,60,2.0,53.0
24692,75.0,0,60,2.0,53.0
24693,58.0,0,92,4.0,40.0
24694,75.0,0,96,8.0,57.0
24695,51.0,0,96,12.0,57.0
24696,63.0,0,96,10.0,57.0
24697,39.0,0,96,13.0,57.0
24698,46.0,120,108,4.0,40.0
24699,79.0,120,60,2.0,53.0
24700,58.0,0,10,4.0,50.0
24701,75.0,0,60,2.0,53.0
24702,34.0,0,96,13.0,53.0
24703,46.0,120,96,12.0,53.0
24704,70.0,0,96,8.0,53.0
24705,58.0,0,96,10.0,53.0
24706,46.0,0,108,4.0,40.0
24707,58.0,20,120,4.0,50.0
24708,79.0,100,60,2.0,53.0
24709,77.0,0,60,2.0,53.0
24710,75.0,120,60,2.0,53.0
24711,58.0,94,296,4.0,50.0
24712,79.0,0,336,8.0,48.0
24713,55.0,0,336,12.0,48.0
24714,67.0,26,336,10.0,48.0
24715,43.0,0,336,13.0,48.0
24716,46.0,0,348,4.0,40.0
24717,87.0,120,120,0.0,76.0
24718,86.0,120,60,0.0,76.0
24719,86.0,0,60,0.0,76.0
24720,38.0,0,96,13.0,40.0
24721,50.0,0,96,12.0,40.0
24722,62.0,0,96,10.0,40.0
24723,74.0,0,96,8.0,40.0
24724,50.0,0,108,4.0,40.0
24725,62.0,0,108,4.0,40.0
24726,50.0,0,120,6.0,40.0
24727,74.0,120,120,5.0,40.0
24728,62.0,0,120,5.0,40.0
24729,89.0,120,60,0.0,76.0
24730,86.0,0,60,0.0,76.0
24731,34.0,0,96,13.0,35.0
24732,46.0,0,96,12.0,35.0
24733,70.0,0,96,8.0,35.0
24734,58.0,0,96,10.0,35.0
24735,62.0,0,108,4.0,40.0
24736,50.0,0,108,4.0,40.0
24737,74.0,0,120,5.0,40.0
24738,50.0,0,120,6.0,40.0
24739,62.0,120,120,5.0,40.0
24740,89.0,120,60,0.0,76.0
24741,87.0,0,60,0.0,76.0
24742,50.0,0,120,6.0,40.0
24743,86.0,120,60,0.0,76.0
24744,55.0,0,336,12.0,39.0
24745,43.0,0,336,13.0,39.0
24746,67.0,120,336,10.0,39.0
24747,79.0,0,336,8.0,39.0
24748,62.0,0,348,4.0,40.0
24749,50.0,0,348,4.0,40.0
24750,62.0,0,360,5.0,40.0
24751,64.0,0,120,3.0,53.0
24752,74.0,0,360,5.0,40.0
24753,76.0,120,120,1.0,53.0
24754,50.0,0,120,6.0,40.0
24755,74.0,0,60,1.0,53.0
24756,62.0,120,60,3.0,53.0
24757,74.0,0,60,1.0,53.0
24758,62.0,0,60,3.0,53.0
24759,50.0,0,96,12.0,33.0
24760,38.0,120,96,13.0,33.0
24761,62.0,0,96,10.0,33.0
24762,74.0,0,96,8.0,33.0
24763,62.0,0,108,4.0,40.0
24764,50.0,0,108,4.0,40.0
24765,62.0,0,120,5.0,40.0
24766,50.0,0,120,6.0,40.0
24767,74.0,0,120,5.0,40.0
24768,77.0,120,60,1.0,53.0
24769,65.0,0,60,3.0,53.0
24770,62.0,0,60,3.0,53.0
24771,74.0,0,60,1.0,53.0
24772,69.0,120,96,8.0,33.0
24773,57.0,0,96,10.0,33.0
24774,33.0,0,96,13.0,33.0
24775,45.0,0,96,12.0,33.0
24776,50.0,0,108,4.0,40.0
24777,62.0,0,108,4.0,40.0
24778,50.0,0,120,6.0,40.0
24779,74.0,0,120,5.0,40.0
24780,62.0,0,120,5.0,40.0
24781,65.0,0,60,3.0,53.0
24782,77.0,120,60,1.0,53.0
24783,45.0,0,48,6.0,36.0
24784,57.0,0,48,11.0,37.0
24785,69.0,0,48,10.0,37.0
24786,81.0,0,48,8.0,37.0
24787,53.0,0,48,12.0,37.0
24788,41.0,0,48,13.0,37.0
24789,76.0,0,60,1.0,53.0
24790,64.0,0,60,3.0,53.0
24791,41.0,0,48,13.0,39.0
24792,53.0,0,48,12.0,39.0
24793,45.0,0,48,6.0,39.0
24794,57.0,0,48,11.0,39.0
24795,81.0,0,48,8.0,39.0
24796,69.0,60,48,10.0,39.0
24797,69.0,0,48,10.0,41.0
24798,45.0,0,48,6.0,41.0
24799,57.0,0,48,11.0,41.0
24800,81.0,0,48,8.0,41.0
24801,53.0,0,48,12.0,41.0
24802,41.0,60,48,13.0,41.0
24803,62.0,0,60,3.0,53.0
24804,74.0,0,60,1.0,53.0
24805,41.0,0,48,13.0,43.0
24806,81.0,0,48,8.0,43.0
24807,53.0,0,48,12.0,43.0
24808,45.0,0,48,6.0,43.0
24809,69.0,0,48,10.0,43.0
24810,57.0,60,48,11.0,43.0
24811,41.0,0,48,13.0,45.0
24812,69.0,0,48,11.0,45.0
24813,57.0,60,48,11.0,45.0
24814,45.0,0,48,6.0,45.0
24815,69.0,0,48,10.0,45.0
24816,53.0,0,48,12.0,45.0
24817,81.0,0,48,8.0,45.0
24818,69.0,0,48,10.0,48.0
24819,41.0,0,48,13.0,48.0
24820,53.0,60,48,12.0,48.0
24821,45.0,0,48,6.0,47.0
24822,81.0,0,48,8.0,48.0
24823,57.0,0,48,11.0,48.0
24824,69.0,0,48,11.0,48.0
24825,57.0,0,48,11.0,50.0
24826,69.0,0,48,11.0,50.0
24827,45.0,60,48,6.0,50.0
24828,81.0,0,48,8.0,50.0
24829,41.0,0,48,13.0,50.0
24830,69.0,0,48,10.0,50.0
24831,53.0,0,48,12.0,50.0
24832,57.0,0,48,11.0,52.0
24833,69.0,60,48,11.0,52.0
24834,69.0,0,48,10.0,52.0
24835,53.0,0,48,12.0,52.0
24836,41.0,0,48,13.0,52.0
24837,81.0,0,48,8.0,52.0
24838,45.0,0,48,6.0,52.0
24839,83.0,60,48,8.0,54.0
24840,53.0,0,48,12.0,54.0
24841,57.0,0,48,11.0,54.0
24842,69.0,0,48,11.0,54.0
24843,41.0,0,48,13.0,54.0
24844,71.0,0,48,10.0,54.0
24845,45.0,0,48,6.0,54.0
24846,53.0,0,48,12.0,56.0
24847,69.0,0,48,11.0,56.0
24848,57.0,0,48,11.0,56.0
24849,45.0,60,48,6.0,56.0
24850,41.0,0,48,13.0,56.0
24851,71.0,0,48,10.0,56.0
24852,83.0,0,48,8.0,56.0
24853,57.0,0,48,11.0,58.0
24854,53.0,0,48,12.0,58.0
24855,69.0,0,48,11.0,58.0
24856,41.0,60,48,13.0,58.0
24857,83.0,0,48,8.0,58.0
24858,45.0,0,48,6.0,58.0
24859,71.0,0,48,10.0,58.0
24860,69.0,0,48,11.0,61.0
24861,57.0,0,48,11.0,61.0
24862,45.0,0,48,6.0,61.0
24863,41.0,0,48,13.0,61.0
24864,71.0,60,48,10.0,61.0
24865,53.0,0,48,12.0,61.0
24866,83.0,0,48,8.0,61.0
24867,73.0,0,48,10.0,63.0
24868,69.0,0,48,11.0,63.0
24869,45.0,0,48,6.0,63.0
24870,85.0,0,48,8.0,63.0
24871,57.0,0,48,11.0,63.0
24872,41.0,60,48,13.0,63.0
24873,53.0,0,48,12.0,63.0
24874,85.0,0,48,8.0,65.0
24875,73.0,0,48,10.0,65.0
24876,45.0,0,48,6.0,65.0
24877,41.0,0,48,13.0,65.0
24878,57.0,0,48,11.0,65.0
24879,69.0,60,48,11.0,65.0
24880,53.0,0,48,12.0,65.0
24881,73.0,0,48,10.0,67.0
24882,57.0,0,48,11.0,67.0
24883,69.0,0,48,11.0,67.0
24884,53.0,0,48,12.0,67.0
24885,41.0,0,48,13.0,67.0
24886,45.0,0,48,6.0,67.0
24887,85.0,60,48,8.0,67.0
24888,41.0,60,48,13.0,69.0
24889,73.0,0,48,10.0,69.0
24890,57.0,0,48,11.0,69.0
24891,53.0,0,48,12.0,69.0
24892,45.0,0,48,6.0,69.0
24893,85.0,0,48,8.0,69.0
24894,69.0,0,48,11.0,69.0
24895,93.0,0,960,0.0,60.0
24896,81.0,120,960,0.0,60.0
24897,69.0,0,720,2.0,45.0
24898,81.0,0,720,2.0,45.0
24899,65.0,0,1008,4.0,64.0
24900,53.0,0,48,12.0,71.0
24901,86.0,0,48,8.0,71.0
24902,57.0,0,48,11.0,71.0
24903,69.0,0,48,11.0,71.0
24904,74.0,0,48,10.0,71.0
24905,41.0,0,48,13.0,71.0
24906,45.0,60,48,6.0,71.0
24907,53.0,0,768,3.0,80.0
24908,65.0,0,768,3.0,80.0
24909,53.0,0,1008,4.0,64.0
24910,45.0,0,48,6.0,74.0
24911,69.0,0,48,11.0,74.0
24912,57.0,0,48,11.0,74.0
24913,86.0,60,48,8.0,74.0
24914,74.0,0,48,10.0,74.0
24915,53.0,0,48,12.0,74.0
24916,41.0,0,48,13.0,74.0
24917,74.0,0,48,10.0,76.0
24918,57.0,0,48,11.0,76.0
24919,69.0,0,48,11.0,76.0
24920,41.0,0,48,13.0,76.0
24921,53.0,0,48,12.0,76.0
24922,45.0,60,48,6.0,76.0
24923,86.0,0,48,8.0,76.0
24924,86.0,0,48,8.0,78.0
24925,69.0,0,48,11.0,78.0
24926,57.0,0,48,11.0,78.0
24927,41.0,60,48,13.0,78.0
24928,74.0,0,48,10.0,78.0
24929,45.0,0,48,6.0,78.0
24930,53.0,0,48,12.0,78.0
24931,68.0,0,240,2.0,54.0
24932,92.0,0,240,0.0,72.0
24933,80.0,0,240,0.0,72.0
24934,80.0,0,240,2.0,54.0
24935,76.0,0,48,10.0,88.0
24936,40.0,0,48,13.0,88.0
24937,67.0,0,48,11.0,88.0
24938,45.0,0,48,6.0,80.0
24939,88.0,0,48,8.0,88.0
24940,52.0,0,48,12.0,88.0
24941,69.0,0,1296,5.0,64.0
24942,57.0,0,1296,5.0,64.0
24943,69.0,0,1296,4.0,64.0
24944,57.0,0,1296,4.0,64.0
24945,55.0,0,102,3.0,60.0
24946,67.0,0,102,3.0,60.0
24947,79.0,0,102,2.0,60.0
24948,67.0,0,102,2.0,60.0
24949,91.0,60,102,0.0,60.0
24950,79.0,0,102,0.0,60.0
24951,67.0,0,48,11.0,94.0
24952,52.0,0,48,12.0,94.0
24953,45.0,0,48,6.0,82.0
24954,40.0,0,48,13.0,94.0
24955,76.0,0,48,10.0,94.0
24956,88.0,60,48,8.0,94.0
24957,52.0,0,48,12.0,99.0
24958,88.0,0,48,8.0,99.0
24959,40.0,0,48,13.0,99.0
24960,76.0,0,48,10.0,99.0
24961,65.0,0,48,11.0,99.0
24962,45.0,0,48,6.0,84.0
24963,69.0,0,96,5.0,80.0
24964,57.0,0,96,5.0,80.0
24965,88.0,0,48,8.0,101.0
24966,45.0,0,48,6.0,87.0
24967,76.0,0,48,10.0,101.0
24968,40.0,0,48,13.0,101.0
24969,52.0,60,48,12.0,101.0
24970,65.0,0,48,11.0,101.0
24971,77.0,60,120,2.0,65.0
24972,65.0,0,120,2.0,65.0
24973,65.0,0,120,3.0,65.0
24974,53.0,0,120,3.0,65.0
24975,77.0,0,120,0.0,65.0
24976,89.0,0,120,0.0,65.0
24977,45.0,60,48,6.0,89.0
24978,64.0,0,48,11.0,106.0
24979,52.0,0,48,12.0,106.0
24980,40.0,0,48,13.0,106.0
24981,77.0,0,48,10.0,106.0
24982,89.0,0,48,8.0,106.0
24983,57.0,0,96,5.0,80.0
24984,69.0,0,96,5.0,80.0
24985,69.0,0,216,4.0,80.0
24986,57.0,0,216,4.0,80.0
24987,52.0,0,102,3.0,70.0
24988,76.0,0,102,2.0,70.0
24989,64.0,0,102,2.0,70.0
24990,88.0,0,102,0.0,70.0
24991,64.0,0,102,3.0,70.0
24992,76.0,0,102,0.0,70.0
24993,77.0,0,48,10.0,110.0
24994,52.0,60,48,12.0,110.0
24995,40.0,0,48,13.0,110.0
24996,64.0,0,48,11.0,110.0
24997,45.0,0,48,6.0,91.0
24998,89.0,0,48,8.0,110.0
24999,77.0,60,48,10.0,114.0
25000,62.0,0,48,11.0,114.0
25001,89.0,0,48,8.0,114.0
25002,45.0,0,48,6.0,93.0
25003,40.0,0,48,13.0,114.0
25004,52.0,0,48,12.0,114.0
25005,69.0,0,96,5.0,80.0
25006,57.0,0,96,5.0,80.0
25007,62.0,0,48,11.0,119.0
25008,77.0,0,48,10.0,119.0
25009,52.0,0,48,12.0,119.0
25010,40.0,0,48,13.0,119.0
25011,45.0,0,48,6.0,95.0
25012,89.0,60,48,8.0,119.0
25013,62.0,0,120,3.0,73.0
25014,74.0,0,120,2.0,73.0
25015,86.0,0,120,0.0,73.0
25016,74.0,0,120,0.0,73.0
25017,50.0,0,120,3.0,73.0
25018,62.0,0,120,2.0,73.0
25019,61.0,0,48,11.0,124.0
25020,45.0,0,48,6.0,98.0
25021,52.0,0,48,12.0,124.0
25022,79.0,0,48,10.0,124.0
25023,40.0,0,48,13.0,124.0
25024,91.0,0,48,8.0,124.0
25025,69.0,0,96,5.0,80.0
25026,69.0,0,216,4.0,80.0
25027,57.0,0,96,5.0,80.0
25028,57.0,0,216,4.0,80.0
25029,73.0,0,102,0.0,78.0
25030,73.0,0,102,2.0,78.0
25031,61.0,0,102,2.0,78.0
25032,49.0,0,102,3.0,78.0
25033,61.0,60,102,3.0,78.0
25034,85.0,0,102,0.0,78.0
25035,40.0,0,48,13.0,126.0
25036,79.0,0,48,10.0,126.0
25037,61.0,0,48,11.0,126.0
25038,52.0,0,48,12.0,126.0
25039,45.0,60,48,6.0,100.0
25040,91.0,0,48,8.0,126.0
25041,91.0,60,48,8.0,127.0
25042,52.0,0,48,12.0,127.0
25043,45.0,0,48,6.0,102.0
25044,79.0,0,48,10.0,127.0
25045,40.0,0,48,13.0,127.0
25046,58.0,0,48,11.0,127.0
25047,57.0,0,96,5.0,80.0
25048,69.0,0,96,5.0,80.0
25049,79.0,0,48,10.0,127.0
25050,40.0,0,48,13.0,127.0
25051,58.0,0,48,11.0,127.0
25052,52.0,60,48,12.0,127.0
25053,91.0,0,48,8.0,127.0
25054,45.0,0,48,6.0,104.0
25055,58.0,0,120,2.0,83.0
25056,46.0,0,120,3.0,83.0
25057,58.0,0,120,3.0,83.0
25058,70.0,0,120,2.0,83.0
25059,82.0,0,120,0.0,83.0
25060,70.0,0,120,0.0,83.0
25061,52.0,60,48,12.0,127.0
25062,93.0,0,48,8.0,127.0
25063,45.0,0,48,6.0,106.0
25064,40.0,0,48,13.0,127.0
25065,57.0,0,48,11.0,127.0
25066,81.0,0,48,10.0,127.0
25067,57.0,0,96,5.0,80.0
25068,69.0,0,216,4.0,80.0
25069,57.0,0,216,4.0,80.0
25070,69.0,0,96,5.0,80.0
25071,69.0,0,102,2.0,88.0
25072,69.0,0,102,0.0,88.0
25073,81.0,0,102,0.0,88.0
25074,45.0,0,102,3.0,88.0
25075,57.0,0,102,3.0,88.0
25076,57.0,0,102,2.0,88.0
25077,40.0,0,48,13.0,127.0
25078,45.0,0,48,6.0,108.0
25079,93.0,0,48,8.0,127.0
25080,81.0,0,48,10.0,127.0
25081,52.0,60,48,12.0,127.0
25082,57.0,0,48,11.0,127.0
25083,45.0,0,48,6.0,111.0
25084,55.0,0,48,11.0,127.0
25085,93.0,60,48,8.0,127.0
25086,40.0,0,48,13.0,127.0
25087,52.0,0,48,12.0,127.0
25088,81.0,0,48,10.0,127.0
25089,57.0,0,96,5.0,80.0
25090,69.0,0,96,4.0,80.0
25091,57.0,0,96,4.0,80.0
25092,69.0,0,96,5.0,80.0
25093,45.0,0,48,6.0,113.0
25094,81.0,0,48,10.0,127.0
25095,52.0,0,48,12.0,127.0
25096,55.0,60,48,11.0,127.0
25097,93.0,0,48,8.0,127.0
25098,40.0,0,48,13.0,127.0
25099,55.0,0,120,3.0,91.0
25100,67.0,0,120,0.0,91.0
25101,79.0,0,120,0.0,91.0
25102,43.0,0,120,3.0,91.0
25103,55.0,0,120,2.0,91.0
25104,67.0,0,120,2.0,91.0
25105,50.0,0,60,4.0,80.0
25106,62.0,0,60,5.0,80.0
25107,74.0,0,60,5.0,80.0
25108,62.0,0,60,4.0,80.0
25109,69.0,0,2016,1.0,80.0
25110,81.0,0,2016,1.0,80.0
25111,62.0,0,102,3.0,60.0
25112,89.0,0,102,0.0,60.0
25113,77.0,0,102,0.0,60.0
25114,77.0,0,102,2.0,60.0
25115,65.0,0,102,2.0,60.0
25116,50.0,0,102,3.0,60.0
25117,81.0,60,108,10.0,127.0
25118,81.0,0,108,8.0,127.0
25119,93.0,0,108,8.0,127.0
25120,38.0,0,108,13.0,127.0
25121,53.0,0,108,11.0,127.0
25122,69.0,0,108,10.0,127.0
25123,50.0,0,108,12.0,127.0
25124,74.0,0,60,5.0,80.0
25125,62.0,0,60,5.0,80.0
25126,50.0,0,216,6.0,127.0
25127,88.0,120,120,0.0,65.0
25128,64.0,0,120,2.0,65.0
25129,76.0,0,120,2.0,65.0
25130,76.0,0,120,0.0,65.0
25131,48.0,0,120,3.0,65.0
25132,60.0,0,120,3.0,65.0
25133,50.0,0,180,4.0,80.0
25134,62.0,0,180,4.0,80.0
25135,62.0,0,60,5.0,80.0
25136,74.0,0,60,5.0,80.0
25137,69.0,0,216,1.0,80.0
25138,81.0,0,216,1.0,80.0
25139,46.0,0,102,3.0,70.0
25140,74.0,0,102,2.0,70.0
25141,58.0,0,102,3.0,70.0
25142,74.0,0,102,0.0,70.0
25143,62.0,120,102,2.0,70.0
25144,86.0,0,102,0.0,70.0
25145,74.0,0,60,5.0,80.0
25146,62.0,0,60,5.0,80.0
25147,72.0,0,120,2.0,73.0
25148,60.0,0,120,2.0,73.0
25149,57.0,0,120,3.0,73.0
25150,72.0,0,120,0.0,73.0
25151,84.0,120,120,0.0,73.0
25152,45.0,0,120,3.0,73.0
25153,62.0,0,180,4.0,80.0
25154,50.0,0,180,4.0,80.0
25155,62.0,0,60,5.0,80.0
25156,74.0,0,60,5.0,80.0
25157,74.0,0,216,1.0,60.0
25158,86.0,0,216,1.0,60.0
25159,55.0,0,102,3.0,78.0
25160,82.0,0,102,0.0,78.0
25161,43.0,0,102,3.0,78.0
25162,70.0,0,102,0.0,78.0
25163,70.0,0,102,2.0,78.0
25164,58.0,120,102,2.0,78.0
25165,62.0,0,60,5.0,80.0
25166,74.0,0,60,5.0,80.0
25167,41.0,0,120,3.0,83.0
25168,69.0,0,120,0.0,83.0
25169,57.0,0,120,2.0,83.0
25170,53.0,0,120,3.0,83.0
25171,81.0,0,120,0.0,83.0
25172,69.0,0,120,2.0,83.0
25173,62.0,0,180,4.0,80.0
25174,50.0,0,180,4.0,80.0
25175,62.0,120,60,5.0,80.0
25176,74.0,0,60,5.0,80.0
25177,74.0,0,216,1.0,60.0
25178,86.0,0,216,1.0,60.0
25179,67.0,0,102,0.0,88.0
25180,55.0,0,102,2.0,88.0
25181,52.0,0,102,3.0,88.0
25182,40.0,0,102,3.0,88.0
25183,79.0,0,102,0.0,88.0
25184,67.0,0,102,2.0,88.0
25185,62.0,0,60,5.0,80.0
25186,62.0,0,60,4.0,80.0
25187,50.0,0,60,4.0,80.0
25188,74.0,120,60,5.0,80.0
25189,74.0,0,96,1.0,60.0
25190,86.0,0,96,1.0,60.0
25191,50.0,0,120,3.0,91.0
25192,38.0,0,120,3.0,91.0
25193,65.0,0,120,0.0,91.0
25194,77.0,0,120,0.0,91.0
25195,65.0,0,120,2.0,91.0
25196,53.0,0,120,2.0,91.0
25197,74.0,0,120,2.0,72.0
25198,76.0,0,120,2.0,72.0
25199,58.0,0,120,4.0,96.0
25200,86.0,0,120,1.0,72.0
25201,74.0,0,120,5.0,96.0
25202,62.0,120,120,5.0,96.0
25203,76.0,0,120,1.0,72.0
25204,88.0,0,120,0.0,72.0
25205,62.0,0,120,4.0,96.0
25206,64.0,0,120,4.0,96.0
25207,50.0,0,120,6.0,120.0
25208,55.0,0,120,3.0,96.0
25209,43.0,0,120,3.0,96.0
25210,58.0,0,120,11.0,127.0
25211,62.0,0,120,5.0,96.0
25212,62.0,0,120,10.0,127.0
25213,74.0,0,120,8.0,127.0
25214,64.0,0,120,4.0,96.0
25215,62.0,0,120,4.0,96.0
25216,58.0,0,120,4.0,96.0
25217,76.0,0,120,8.0,127.0
25218,46.0,0,120,3.0,96.0
25219,58.0,240,120,3.0,96.0
25220,64.0,0,120,10.0,127.0
25221,88.0,0,120,0.0,72.0
25222,58.0,0,120,12.0,127.0
25223,50.0,0,120,6.0,120.0
25224,74.0,0,120,5.0,96.0
25225,62.0,0,120,11.0,127.0
25226,76.0,0,120,1.0,72.0
25227,46.0,0,120,13.0,127.0
25228,86.0,0,120,1.0,72.0
25229,74.0,0,120,2.0,72.0
25230,76.0,0,120,2.0,72.0
25231,45.0,0,120,3.0,96.0
25232,57.0,0,120,3.0,96.0
25233,45.0,0,120,6.0,120.0
25234,69.0,240,120,5.0,96.0
25235,57.0,0,120,5.0,96.0
25236,69.0,0,120,5.0,96.0
25237,76.0,0,120,1.0,72.0
25238,64.0,0,120,4.0,96.0
25239,57.0,0,120,4.0,96.0
25240,73.0,0,120,8.0,127.0
25241,45.0,0,120,6.0,120.0
25242,76.0,0,120,2.0,72.0
25243,73.0,0,120,2.0,72.0
25244,57.0,0,120,11.0,127.0
25245,67.0,0,120,11.0,127.0
25246,61.0,0,120,10.0,127.0
25247,64.0,0,120,10.0,127.0
25248,76.0,0,120,8.0,127.0
25249,57.0,0,120,5.0,96.0
25250,88.0,240,120,0.0,72.0
25251,45.0,0,120,3.0,96.0
25252,57.0,0,120,3.0,96.0
25253,57.0,0,120,12.0,127.0
25254,45.0,0,120,13.0,127.0
25255,85.0,0,120,1.0,72.0
25256,45.0,0,48,6.0,30.0
25257,45.0,60,48,6.0,31.0
25258,45.0,60,48,6.0,32.0
25259,45.0,60,48,6.0,33.0
25260,45.0,60,48,6.0,34.0
25261,45.0,60,48,6.0,35.0
25262,45.0,60,48,6.0,37.0
25263,45.0,60,48,6.0,38.0
25264,45.0,60,48,6.0,39.0
25265,45.0,60,48,6.0,40.0
25266,45.0,60,48,6.0,41.0
25267,45.0,60,48,6.0,42.0
25268,57.0,0,720,13.0,60.0
25269,69.0,0,720,12.0,60.0
25270,45.0,60,48,6.0,43.0
25271,45.0,60,48,6.0,44.0
25272,45.0,60,48,6.0,45.0
25273,45.0,60,48,6.0,46.0
25274,68.0,0,240,12.0,62.0
25275,56.0,0,240,13.0,62.0
25276,45.0,0,48,6.0,48.0
25277,69.0,0,1056,5.0,48.0
25278,57.0,240,1056,5.0,48.0
25279,55.0,0,102,13.0,60.0
25280,67.0,0,102,12.0,60.0
25281,45.0,60,48,6.0,49.0
25282,45.0,0,48,6.0,50.0
25283,45.0,60,48,6.0,51.0
25284,53.0,60,120,13.0,65.0
25285,65.0,0,120,12.0,65.0
25286,45.0,60,48,6.0,52.0
25287,69.0,0,216,5.0,48.0
25288,57.0,0,216,5.0,48.0
25289,64.0,0,102,12.0,70.0
25290,52.0,0,102,13.0,70.0
25291,45.0,60,48,6.0,53.0
25292,45.0,0,48,6.0,54.0
25293,45.0,60,48,6.0,55.0
25294,62.0,0,120,12.0,73.0
25295,50.0,0,120,13.0,73.0
25296,45.0,0,48,6.0,56.0
25297,69.0,0,216,5.0,48.0
25298,57.0,60,216,5.0,48.0
25299,61.0,60,102,12.0,78.0
25300,49.0,0,102,13.0,78.0
25301,45.0,60,48,6.0,57.0
25302,45.0,0,48,6.0,58.0
25303,45.0,60,48,6.0,60.0
25304,46.0,60,120,13.0,83.0
25305,58.0,0,120,12.0,83.0
25306,45.0,0,48,6.0,61.0
25307,57.0,0,216,5.0,48.0
25308,69.0,0,216,5.0,48.0
25309,45.0,60,102,13.0,88.0
25310,57.0,0,102,12.0,88.0
25311,45.0,60,48,6.0,62.0
25312,45.0,0,48,6.0,63.0
25313,45.0,60,48,6.0,64.0
25314,55.0,0,120,12.0,91.0
25315,43.0,60,120,13.0,91.0
25316,45.0,0,48,6.0,65.0
25317,69.0,0,216,5.0,48.0
25318,57.0,0,216,5.0,48.0
25319,65.0,0,102,11.0,94.0
25320,53.0,0,102,12.0,94.0
25321,41.0,0,102,13.0,94.0
25322,45.0,60,48,6.0,66.0
25323,45.0,60,48,6.0,67.0
25324,57.0,0,96,5.0,55.0
25325,45.0,60,48,6.0,68.0
25326,40.0,0,120,13.0,101.0
25327,64.0,0,120,11.0,101.0
25328,52.0,0,120,12.0,101.0
25329,45.0,0,48,6.0,69.0
25330,57.0,60,96,5.0,55.0
25331,69.0,0,216,5.0,55.0
25332,50.0,0,102,12.0,110.0
25333,62.0,0,102,11.0,110.0
25334,38.0,0,102,13.0,110.0
25335,45.0,60,48,6.0,70.0
25336,45.0,60,48,6.0,72.0
25337,45.0,60,48,6.0,73.0
25338,36.0,0,120,13.0,114.0
25339,48.0,0,120,12.0,114.0
25340,60.0,0,120,11.0,114.0
25341,45.0,0,48,6.0,74.0
25342,69.0,0,216,5.0,55.0
25343,57.0,0,216,5.0,55.0
25344,35.0,60,102,13.0,123.0
25345,59.0,0,102,11.0,123.0
25346,47.0,0,102,12.0,123.0
25347,45.0,60,48,6.0,75.0
25348,57.0,0,600,3.0,80.0
25349,45.0,0,48,6.0,76.0
25350,45.0,60,48,6.0,77.0
25351,81.0,0,1680,1.0,48.0
25352,93.0,60,720,8.0,64.0
25353,59.0,0,120,12.0,102.0
25354,58.0,60,120,3.0,80.0
25355,71.0,0,120,11.0,102.0
25356,93.0,0,720,0.0,64.0
25357,81.0,0,720,10.0,64.0
25358,47.0,0,120,13.0,102.0
25359,45.0,60,48,6.0,78.0
25360,57.0,0,216,5.0,55.0
25361,69.0,0,216,5.0,55.0
25362,73.0,0,102,11.0,102.0
25363,49.0,0,102,13.0,102.0
25364,61.0,0,102,12.0,102.0
25365,45.0,60,48,6.0,79.0
25366,60.0,0,120,3.0,80.0
25367,45.0,0,48,6.0,80.0
25368,69.0,60,60,5.0,55.0
25369,57.0,0,60,5.0,55.0
25370,45.0,60,48,6.0,81.0
25371,62.0,0,120,3.0,80.0
25372,74.0,0,120,11.0,102.0
25373,50.0,0,120,13.0,102.0
25374,92.0,0,240,8.0,78.0
25375,80.0,0,240,10.0,78.0
25376,80.0,0,240,1.0,59.0
25377,62.0,0,120,12.0,102.0
25378,92.0,0,240,0.0,78.0
25379,45.0,0,48,6.0,83.0
25380,57.0,0,60,5.0,63.0
25381,69.0,0,60,5.0,63.0
25382,69.0,0,2016,4.0,55.0
25383,57.0,60,2016,4.0,55.0
25384,91.0,0,102,0.0,75.0
25385,79.0,0,102,10.0,75.0
25386,64.0,0,102,12.0,114.0
25387,79.0,0,102,1.0,56.0
25388,91.0,0,102,8.0,75.0
25389,52.0,0,102,13.0,114.0
25390,76.0,60,102,11.0,114.0
25391,45.0,60,48,6.0,84.0
25392,64.0,0,120,3.0,80.0
25393,45.0,0,48,6.0,85.0
25394,69.0,0,60,5.0,63.0
25395,57.0,0,60,5.0,63.0
25396,45.0,60,48,6.0,86.0
25397,65.0,60,120,3.0,80.0
25398,77.0,0,120,1.0,61.0
25399,50.0,0,120,13.0,81.0
25400,77.0,0,120,10.0,81.0
25401,74.0,0,120,11.0,81.0
25402,89.0,0,120,0.0,81.0
25403,62.0,0,120,12.0,81.0
25404,89.0,0,120,8.0,81.0
25405,45.0,0,48,6.0,87.0
25406,69.0,0,60,5.0,63.0
25407,57.0,0,60,5.0,63.0
25408,57.0,0,216,4.0,55.0
25409,69.0,0,216,4.0,55.0
25410,76.0,0,102,10.0,88.0
25411,88.0,0,102,0.0,88.0
25412,61.0,0,102,12.0,88.0
25413,49.0,0,102,13.0,88.0
25414,76.0,0,102,1.0,66.0
25415,73.0,0,102,11.0,88.0
25416,88.0,60,102,8.0,88.0
25417,45.0,60,48,6.0,88.0
25418,67.0,0,120,3.0,80.0
25419,45.0,0,48,6.0,89.0
25420,69.0,0,60,5.0,63.0
25421,57.0,0,60,5.0,63.0
25422,45.0,60,48,6.0,90.0
25423,46.0,0,120,13.0,91.0
25424,74.0,60,120,10.0,91.0
25425,67.0,0,0,3.0,80.0
25426,70.0,0,120,11.0,91.0
25427,58.0,0,120,12.0,91.0
25428,86.0,0,120,8.0,91.0
25429,86.0,0,120,0.0,91.0
25430,74.0,0,120,1.0,68.0
25431,45.0,0,48,6.0,91.0
25432,69.0,0,60,5.0,63.0
25433,57.0,0,60,5.0,63.0
25434,69.0,0,216,4.0,55.0
25435,57.0,0,216,4.0,55.0
25436,45.0,0,102,13.0,98.0
25437,57.0,60,102,12.0,98.0
25438,69.0,0,102,11.0,98.0
25439,73.0,0,102,10.0,98.0
25440,85.0,0,102,0.0,98.0
25441,73.0,0,102,1.0,74.0
25442,85.0,0,102,8.0,98.0
25443,45.0,60,48,6.0,92.0
25444,45.0,0,48,6.0,93.0
25445,57.0,0,60,5.0,63.0
25446,69.0,0,60,5.0,63.0
25447,45.0,60,48,6.0,95.0
25448,67.0,60,120,11.0,104.0
25449,52.0,0,120,3.0,80.0
25450,55.0,0,120,12.0,104.0
25451,43.0,0,120,13.0,104.0
25452,82.0,0,120,8.0,104.0
25453,70.0,0,120,10.0,104.0
25454,82.0,0,120,0.0,104.0
25455,70.0,0,120,1.0,78.0
25456,45.0,0,48,6.0,96.0
25457,57.0,60,60,5.0,63.0
25458,69.0,0,60,5.0,63.0
25459,69.0,0,216,4.0,55.0
25460,57.0,0,216,4.0,55.0
25461,81.0,0,102,8.0,110.0
25462,41.0,0,102,13.0,110.0
25463,69.0,0,102,10.0,110.0
25464,53.0,0,102,12.0,110.0
25465,69.0,0,102,1.0,83.0
25466,65.0,0,102,11.0,110.0
25467,81.0,0,102,0.0,110.0
25468,45.0,60,48,6.0,97.0
25469,53.0,0,120,3.0,80.0
25470,45.0,0,48,6.0,98.0
25471,57.0,0,60,5.0,63.0
25472,69.0,0,60,5.0,63.0
25473,45.0,60,48,6.0,99.0
25474,79.0,0,120,8.0,114.0
25475,67.0,0,120,1.0,86.0
25476,79.0,0,120,0.0,114.0
25477,52.0,0,120,12.0,114.0
25478,52.0,0,120,3.0,80.0
25479,67.0,0,120,10.0,114.0
25480,40.0,60,120,13.0,114.0
25481,55.0,0,120,3.0,80.0
25482,64.0,0,120,11.0,114.0
25483,50.0,0,48,6.0,80.0
25484,74.0,0,60,5.0,80.0
25485,62.0,0,60,5.0,80.0
25486,69.0,0,96,2.0,80.0
25487,81.0,0,96,0.0,80.0
25488,69.0,0,216,4.0,55.0
25489,57.0,0,216,4.0,55.0
25490,65.0,0,96,1.0,80.0
25491,69.0,0,96,1.0,80.0
25492,57.0,0,96,3.0,80.0
25493,53.0,0,96,3.0,80.0
25494,62.0,0,96,11.0,80.0
25495,65.0,0,96,2.0,80.0
25496,65.0,0,96,4.0,80.0
25497,53.0,0,96,4.0,80.0
25498,65.0,0,102,10.0,94.0
25499,38.0,0,102,13.0,114.0
25500,50.0,0,102,12.0,114.0
25501,77.0,60,102,8.0,94.0
25502,50.0,60,48,6.0,80.0
25503,50.0,0,48,6.0,80.0
25504,62.0,0,60,5.0,80.0
25505,74.0,60,60,5.0,80.0
25506,50.0,60,48,6.0,80.0
25507,36.0,0,120,13.0,81.0
25508,48.0,0,120,12.0,81.0
25509,64.0,0,120,10.0,101.0
25510,70.0,0,120,1.0,80.0
25511,82.0,0,120,0.0,80.0
25512,76.0,0,120,8.0,101.0
25513,67.0,0,120,2.0,80.0
25514,70.0,0,120,2.0,80.0
25515,58.0,0,120,3.0,80.0
25516,67.0,0,120,1.0,80.0
25517,55.0,0,120,3.0,80.0
25518,50.0,0,48,6.0,80.0
25519,74.0,0,60,5.0,80.0
25520,62.0,0,60,5.0,80.0
25521,57.0,0,96,3.0,80.0
25522,60.0,0,96,3.0,80.0
25523,53.0,0,216,4.0,80.0
25524,65.0,0,216,4.0,80.0
25525,69.0,0,96,1.0,80.0
25526,72.0,0,96,1.0,80.0
25527,50.0,0,216,4.0,80.0
25528,62.0,0,216,4.0,80.0
25529,72.0,0,96,2.0,80.0
25530,69.0,0,96,2.0,80.0
25531,84.0,0,96,0.0,80.0
25532,34.0,60,102,13.0,88.0
25533,62.0,0,102,10.0,110.0
25534,46.0,0,102,12.0,88.0
25535,74.0,0,102,8.0,110.0
25536,50.0,60,48,6.0,80.0
25537,50.0,0,48,6.0,80.0
25538,74.0,0,60,5.0,80.0
25539,62.0,0,60,5.0,80.0
25540,50.0,60,48,6.0,80.0
25541,33.0,0,120,13.0,91.0
25542,74.0,0,120,2.0,80.0
25543,72.0,0,120,8.0,114.0
25544,62.0,0,120,3.0,80.0
25545,45.0,0,120,12.0,91.0
25546,70.0,0,120,2.0,80.0
25547,60.0,60,120,10.0,114.0
25548,70.0,0,120,1.0,80.0
25549,86.0,0,120,0.0,80.0
25550,58.0,0,120,3.0,80.0
25551,74.0,0,120,1.0,80.0
25552,50.0,60,48,6.0,80.0
25553,74.0,0,60,5.0,80.0
25554,62.0,0,60,5.0,80.0
25555,76.0,0,96,1.0,80.0
25556,88.0,0,96,0.0,80.0
25557,65.0,0,216,4.0,80.0
25558,73.0,0,96,2.0,80.0
25559,61.0,0,96,3.0,80.0
25560,50.0,0,216,4.0,80.0
25561,62.0,0,216,4.0,80.0
25562,76.0,0,96,2.0,80.0
25563,64.0,0,96,3.0,80.0
25564,73.0,0,96,1.0,80.0
25565,53.0,0,216,4.0,80.0
25566,58.0,0,102,10.0,98.0
25567,31.0,0,102,13.0,98.0
25568,70.0,0,102,8.0,98.0
25569,43.0,0,102,12.0,98.0
25570,50.0,60,48,6.0,80.0
25571,50.0,0,48,6.0,80.0
25572,62.0,0,60,5.0,80.0
25573,74.0,0,60,5.0,80.0
25574,50.0,60,48,6.0,80.0
25575,77.0,0,120,2.0,80.0
25576,74.0,0,120,2.0,80.0
25577,57.0,60,120,10.0,104.0
25578,65.0,0,120,3.0,80.0
25579,77.0,0,120,1.0,80.0
25580,74.0,0,120,1.0,80.0
25581,41.0,0,120,12.0,104.0
25582,69.0,0,120,8.0,104.0
25583,62.0,0,120,3.0,80.0
25584,29.0,0,120,13.0,104.0
25585,89.0,0,120,0.0,80.0
25586,50.0,0,48,6.0,80.0
25587,74.0,60,60,5.0,80.0
25588,62.0,0,60,5.0,80.0
25589,76.0,0,96,2.0,80.0
25590,79.0,0,96,1.0,80.0
25591,76.0,0,96,1.0,80.0
25592,53.0,0,216,4.0,80.0
25593,62.0,0,216,4.0,80.0
25594,91.0,0,96,0.0,80.0
25595,50.0,0,216,4.0,80.0
25596,64.0,0,96,3.0,80.0
25597,79.0,0,96,2.0,80.0
25598,65.0,0,216,4.0,80.0
25599,67.0,0,96,3.0,80.0
25600,52.0,0,102,12.0,110.0
25601,55.0,0,102,10.0,110.0
25602,40.0,0,102,13.0,110.0
25603,67.0,0,102,8.0,110.0
25604,50.0,60,48,6.0,80.0
25605,50.0,0,48,6.0,80.0
25606,74.0,0,60,5.0,80.0
25607,62.0,0,60,5.0,80.0
25608,62.0,0,96,4.0,80.0
25609,50.0,0,96,4.0,80.0
25610,65.0,0,96,4.0,80.0
25611,53.0,0,96,4.0,80.0
25612,50.0,60,48,6.0,80.0
25613,77.0,0,120,1.0,80.0
25614,81.0,0,120,1.0,80.0
25615,69.0,0,120,3.0,80.0
25616,65.0,0,120,8.0,114.0
25617,50.0,0,120,12.0,114.0
25618,93.0,0,120,0.0,80.0
25619,38.0,60,120,13.0,114.0
25620,65.0,0,120,3.0,80.0
25621,81.0,0,120,2.0,80.0
25622,77.0,0,120,2.0,80.0
25623,53.0,0,120,10.0,114.0
25624,74.0,0,60,5.0,80.0
25625,62.0,0,60,5.0,80.0
25626,58.0,0,96,4.0,80.0
25627,46.0,0,96,4.0,80.0
25628,64.0,0,96,4.0,80.0
25629,62.0,0,96,4.0,80.0
25630,58.0,0,102,12.0,114.0
25631,46.0,0,102,13.0,114.0
25632,88.0,0,120,0.0,72.0
25633,76.0,60,120,1.0,72.0
25634,79.0,0,120,1.0,72.0
25635,76.0,0,120,2.0,72.0
25636,79.0,0,120,2.0,72.0
25637,52.0,0,120,11.0,127.0
25638,64.0,0,120,10.0,127.0
25639,91.0,0,120,0.0,72.0
25640,64.0,0,120,3.0,96.0
25641,67.0,0,120,3.0,96.0
25642,64.0,0,120,8.0,127.0
25643,74.0,0,60,5.0,80.0
25644,62.0,0,60,5.0,80.0
25645,50.0,0,192,6.0,127.0
25646,45.0,0,120,13.0,81.0
25647,57.0,120,120,12.0,81.0
25648,74.0,0,60,5.0,80.0
25649,62.0,0,60,5.0,80.0
25650,64.0,0,216,4.0,80.0
25651,50.0,0,216,4.0,80.0
25652,62.0,0,216,4.0,80.0
25653,55.0,0,102,12.0,88.0
25654,43.0,0,102,13.0,88.0
25655,88.0,0,120,0.0,72.0
25656,88.0,0,120,8.0,127.0
25657,91.0,0,120,0.0,72.0
25658,86.0,0,120,1.0,72.0
25659,76.0,0,120,10.0,127.0
25660,79.0,0,120,10.0,127.0
25661,76.0,0,120,1.0,72.0
25662,76.0,120,120,2.0,72.0
25663,79.0,0,120,2.0,72.0
25664,64.0,0,120,11.0,127.0
25665,74.0,0,120,11.0,127.0
25666,67.0,0,120,3.0,96.0
25667,64.0,0,120,3.0,96.0
25668,74.0,0,60,5.0,80.0
25669,62.0,0,60,5.0,80.0
25670,50.0,0,192,6.0,127.0
25671,57.0,0,120,12.0,91.0
25672,45.0,120,120,13.0,91.0
25673,62.0,0,216,4.0,80.0
25674,64.0,0,216,4.0,80.0
25675,58.0,0,102,12.0,98.0
25676,46.0,0,102,13.0,98.0
25677,50.0,0,234,4.0,80.0
25678,64.0,0,120,3.0,96.0
25679,57.0,0,120,5.0,80.0
25680,69.0,0,120,5.0,80.0
25681,67.0,0,120,3.0,96.0
25682,50.0,120,192,6.0,127.0
25683,64.0,120,96,4.0,80.0
25684,62.0,0,96,4.0,80.0
25685,43.0,0,120,13.0,104.0
25686,55.0,0,120,12.0,104.0
25687,64.0,0,96,4.0,80.0
25688,57.0,0,102,12.0,110.0
25689,45.0,120,102,13.0,110.0
25690,85.0,0,120,1.0,72.0
25691,79.0,0,120,2.0,72.0
25692,76.0,0,120,1.0,72.0
25693,76.0,0,120,2.0,72.0
25694,64.0,0,120,11.0,127.0
25695,57.0,0,120,5.0,80.0
25696,88.0,0,120,0.0,72.0
25697,73.0,0,120,11.0,127.0
25698,73.0,0,120,10.0,127.0
25699,76.0,0,120,10.0,127.0
25700,88.0,0,120,8.0,127.0
25701,69.0,0,120,5.0,80.0
25702,45.0,0,192,6.0,127.0
25703,64.0,0,96,4.0,80.0
25704,57.0,0,216,4.0,80.0
25705,67.0,0,120,12.0,114.0
25706,55.0,120,120,13.0,114.0
25707,73.0,0,0,1.0,42.0
25708,70.0,0,0,2.0,30.0
25709,76.0,0,600,1.0,56.0
25710,67.0,0,0,2.0,30.0
25711,79.0,600,60,1.0,56.0
25712,73.0,120,60,1.0,42.0
25713,77.0,0,60,1.0,56.0
25714,67.0,0,60,2.0,30.0
25715,70.0,0,60,2.0,30.0
25716,73.0,0,60,1.0,42.0
25717,67.0,0,60,2.0,30.0
25718,70.0,120,60,2.0,30.0
25719,76.0,0,60,1.0,56.0
25720,61.0,0,588,3.0,30.0
25721,64.0,0,588,3.0,30.0
25722,70.0,0,588,1.0,42.0
25723,76.0,120,588,1.0,56.0
25724,67.0,0,588,2.0,30.0
25725,64.0,0,588,2.0,30.0
25726,64.0,0,108,2.0,30.0
25727,67.0,0,108,2.0,30.0
25728,70.0,0,108,1.0,42.0
25729,64.0,0,108,3.0,30.0
25730,61.0,600,108,3.0,30.0
25731,82.0,0,108,1.0,56.0
25732,76.0,0,108,1.0,42.0
25733,61.0,120,108,3.0,30.0
25734,64.0,0,108,3.0,30.0
25735,81.0,0,108,1.0,56.0
25736,64.0,0,108,2.0,30.0
25737,69.0,0,108,2.0,30.0
25738,76.0,120,108,1.0,42.0
25739,79.0,0,108,1.0,56.0
25740,61.0,0,108,3.0,30.0
25741,64.0,0,108,3.0,30.0
25742,70.0,0,108,2.0,30.0
25743,64.0,0,108,2.0,30.0
25744,71.0,0,240,2.0,34.0
25745,77.0,120,240,1.0,45.0
25746,59.0,0,240,3.0,34.0
25747,74.0,0,240,1.0,34.0
25748,56.0,0,240,3.0,34.0
25749,62.0,0,240,2.0,34.0
25750,74.0,0,240,1.0,34.0
25751,67.0,0,240,2.0,34.0
25752,62.0,0,240,3.0,34.0
25753,76.0,0,240,1.0,45.0
25754,64.0,0,240,2.0,34.0
25755,58.0,480,240,3.0,34.0
25756,57.0,0,173,4.0,27.0
25757,45.0,0,240,4.0,27.0
25758,74.0,0,240,1.0,50.0
25759,70.0,0,240,1.0,38.0
25760,70.0,0,240,2.0,38.0
25761,67.0,0,240,2.0,38.0
25762,64.0,480,240,3.0,38.0
25763,57.0,0,240,3.0,38.0
25764,57.0,0,194,4.0,24.0
25765,73.0,0,240,1.0,45.0
25766,57.0,0,240,3.0,34.0
25767,67.0,0,240,2.0,34.0
25768,70.0,0,240,2.0,34.0
25769,64.0,0,240,3.0,34.0
25770,45.0,0,240,4.0,24.0
25771,67.0,480,240,1.0,34.0
25772,67.0,0,60,2.0,40.0
25773,55.0,120,60,3.0,40.0
25774,69.0,0,60,2.0,40.0
25775,57.0,120,60,3.0,40.0
25776,70.0,120,60,2.0,40.0
25777,58.0,0,60,3.0,40.0
25778,52.0,480,576,12.0,32.0
25779,55.0,0,576,11.0,32.0
25780,40.0,0,576,13.0,32.0
25781,79.0,0,60,1.0,40.0
25782,58.0,120,192,3.0,40.0
25783,70.0,0,192,2.0,40.0
25784,43.0,0,96,13.0,32.0
25785,58.0,120,96,11.0,32.0
25786,55.0,0,96,12.0,32.0
25787,81.0,0,60,1.0,40.0
25788,41.0,120,96,13.0,32.0
25789,57.0,0,96,11.0,32.0
25790,53.0,0,96,12.0,32.0
25791,82.0,0,60,1.0,40.0
25792,52.0,0,96,12.0,32.0
25793,40.0,0,96,13.0,32.0
25794,55.0,120,96,11.0,32.0
25795,67.0,120,60,2.0,40.0
25796,55.0,0,60,3.0,40.0
25797,82.0,0,192,1.0,40.0
25798,57.0,0,60,3.0,40.0
25799,69.0,120,60,2.0,40.0
25800,70.0,120,60,2.0,40.0
25801,58.0,0,60,3.0,40.0
25802,40.0,0,588,13.0,32.0
25803,55.0,120,588,11.0,32.0
25804,52.0,0,588,12.0,32.0
25805,58.0,0,192,3.0,40.0
25806,70.0,120,192,2.0,40.0
25807,70.0,120,108,10.0,32.0
25808,55.0,0,108,10.0,32.0
25809,37.0,0,108,13.0,32.0
25810,52.0,0,108,11.0,32.0
25811,82.0,0,108,1.0,40.0
25812,64.0,0,108,11.0,32.0
25813,49.0,0,108,12.0,32.0
25814,37.0,120,108,13.0,32.0
25815,57.0,0,108,10.0,32.0
25816,69.0,0,108,10.0,32.0
25817,49.0,0,108,12.0,32.0
25818,52.0,0,108,11.0,32.0
25819,81.0,0,108,1.0,40.0
25820,64.0,0,108,11.0,32.0
25821,79.0,0,108,1.0,40.0
25822,49.0,0,108,12.0,32.0
25823,52.0,0,108,11.0,32.0
25824,65.0,120,108,11.0,32.0
25825,37.0,0,108,13.0,32.0
25826,67.0,0,108,10.0,32.0
25827,58.0,0,108,10.0,32.0
25828,65.0,0,192,10.0,32.0
25829,59.0,0,192,10.0,32.0
25830,77.0,0,192,1.0,40.0
25831,62.0,120,216,11.0,32.0
25832,50.0,0,216,11.0,32.0
25833,32.0,0,216,13.0,32.0
25834,44.0,0,216,12.0,32.0
25835,89.0,360,96,0.0,44.0
25836,55.0,0,192,11.0,26.0
25837,52.0,0,192,11.0,26.0
25838,34.0,0,192,13.0,26.0
25839,62.0,0,192,10.0,26.0
25840,64.0,0,192,10.0,26.0
25841,55.0,120,192,10.0,26.0
25842,76.0,0,192,1.0,40.0
25843,46.0,0,192,12.0,26.0
25844,88.0,360,96,0.0,44.0
25845,33.0,0,192,13.0,26.0
25846,52.0,0,192,11.0,26.0
25847,74.0,0,192,1.0,36.0
25848,62.0,0,192,10.0,26.0
25849,55.0,0,192,11.0,26.0
25850,58.0,0,192,10.0,26.0
25851,45.0,120,192,12.0,26.0
25852,86.0,360,96,0.0,40.0
25853,61.0,0,192,10.0,26.0
25854,33.0,120,192,13.0,26.0
25855,55.0,0,192,10.0,26.0
25856,73.0,0,192,1.0,32.0
25857,45.0,0,192,12.0,26.0
25858,55.0,0,192,11.0,26.0
25859,52.0,0,192,11.0,26.0
25860,85.0,360,96,0.0,36.0
25861,50.0,0,32,12.0,31.0
25862,50.0,40,32,12.0,31.0
25863,50.0,40,32,12.0,31.0
25864,50.0,40,32,12.0,31.0
25865,50.0,40,32,12.0,31.0
25866,50.0,40,32,12.0,31.0
25867,38.0,120,240,13.0,28.0
25868,50.0,0,240,3.0,28.0
25869,49.0,40,32,12.0,31.0
25870,49.0,40,32,12.0,31.0
25871,49.0,40,32,12.0,31.0
25872,49.0,40,32,12.0,31.0
25873,49.0,40,32,12.0,31.0
25874,49.0,40,32,12.0,31.0
25875,37.0,0,240,13.0,28.0
25876,49.0,0,240,3.0,28.0
25877,48.0,40,32,12.0,31.0
25878,48.0,40,32,12.0,31.0
25879,48.0,40,32,12.0,31.0
25880,48.0,40,32,12.0,31.0
25881,48.0,40,32,12.0,31.0
25882,48.0,40,32,12.0,31.0
25883,36.0,0,240,13.0,28.0
25884,48.0,0,240,3.0,28.0
25885,47.0,40,32,12.0,31.0
25886,59.0,0,32,11.0,25.0
25887,47.0,0,32,12.0,31.0
25888,59.0,40,32,11.0,25.0
25889,59.0,0,32,11.0,25.0
25890,47.0,40,32,12.0,31.0
25891,50.0,0,384,6.0,32.0
25892,59.0,40,32,11.0,25.0
25893,47.0,0,32,12.0,31.0
25894,59.0,40,32,11.0,25.0
25895,47.0,0,32,12.0,31.0
25896,47.0,0,32,12.0,31.0
25897,59.0,40,32,11.0,25.0
25898,35.0,0,240,13.0,28.0
25899,47.0,0,240,3.0,28.0
25900,46.0,40,32,12.0,31.0
25901,58.0,0,32,11.0,25.0
25902,46.0,40,32,12.0,31.0
25903,58.0,0,32,11.0,25.0
25904,46.0,0,32,12.0,31.0
25905,58.0,40,32,11.0,25.0
25906,46.0,40,32,12.0,31.0
25907,58.0,0,32,11.0,25.0
25908,46.0,40,32,12.0,31.0
25909,62.0,0,672,5.0,32.0
25910,58.0,0,32,11.0,25.0
25911,62.0,0,672,4.0,38.0
25912,50.0,0,672,4.0,32.0
25913,58.0,40,32,11.0,25.0
25914,46.0,0,32,12.0,31.0
25915,46.0,0,240,3.0,28.0
25916,34.0,0,240,13.0,28.0
25917,45.0,0,32,12.0,31.0
25918,57.0,0,32,11.0,25.0
25919,45.0,40,32,12.0,31.0
25920,57.0,0,32,11.0,25.0
25921,45.0,0,32,12.0,31.0
25922,57.0,40,32,11.0,25.0
25923,45.0,40,32,12.0,31.0
25924,57.0,0,32,11.0,25.0
25925,45.0,0,60,4.0,38.0
25926,57.0,0,60,4.0,32.0
25927,62.0,0,60,5.0,32.0
25928,50.0,0,60,6.0,32.0
25929,50.0,0,60,4.0,32.0
25930,57.0,0,32,11.0,25.0
25931,45.0,40,32,12.0,31.0
25932,45.0,40,32,12.0,31.0
25933,57.0,0,32,11.0,25.0
25934,45.0,40,240,3.0,28.0
25935,33.0,0,240,13.0,28.0
25936,59.0,0,32,11.0,25.0
25937,47.0,0,32,12.0,31.0
25938,47.0,0,32,12.0,31.0
25939,59.0,40,32,11.0,25.0
25940,47.0,0,32,12.0,31.0
25941,59.0,40,32,11.0,25.0
25942,47.0,0,32,12.0,31.0
25943,59.0,40,32,11.0,25.0
25944,59.0,40,32,11.0,25.0
25945,50.0,0,192,4.0,32.0
25946,62.0,0,192,4.0,38.0
25947,47.0,0,32,12.0,31.0
25948,62.0,0,192,5.0,32.0
25949,50.0,0,192,6.0,32.0
25950,47.0,40,32,12.0,31.0
25951,59.0,0,32,11.0,25.0
25952,47.0,40,240,3.0,28.0
25953,35.0,0,240,13.0,28.0
25954,61.0,0,32,11.0,25.0
25955,49.0,0,32,12.0,31.0
25956,61.0,40,32,11.0,25.0
25957,49.0,0,32,12.0,31.0
25958,61.0,0,32,11.0,25.0
25959,49.0,40,32,12.0,31.0
25960,49.0,0,32,12.0,31.0
25961,61.0,0,32,11.0,25.0
25962,50.0,0,60,6.0,32.0
25963,65.0,0,60,4.0,38.0
25964,53.0,0,60,4.0,38.0
25965,50.0,40,60,4.0,32.0
25966,62.0,0,60,4.0,32.0
25967,62.0,0,60,5.0,32.0
25968,61.0,40,32,11.0,25.0
25969,49.0,0,32,12.0,31.0
25970,49.0,40,32,12.0,31.0
25971,61.0,0,32,11.0,25.0
25972,49.0,40,240,3.0,28.0
25973,37.0,0,240,13.0,28.0
25974,50.0,0,32,12.0,31.0
25975,50.0,40,32,12.0,31.0
25976,50.0,40,32,12.0,31.0
25977,50.0,40,32,12.0,31.0
25978,50.0,40,32,12.0,31.0
25979,74.0,0,706,1.0,32.0
25980,65.0,0,706,1.0,32.0
25981,65.0,0,706,2.0,32.0
25982,69.0,0,706,2.0,32.0
25983,50.0,40,32,12.0,31.0
25984,38.0,0,240,13.0,28.0
25985,50.0,40,240,3.0,28.0
25986,49.0,0,32,12.0,31.0
25987,49.0,40,32,12.0,31.0
25988,49.0,40,32,12.0,31.0
25989,49.0,0,32,12.0,31.0
25990,49.0,40,32,12.0,31.0
25991,65.0,0,72,1.0,32.0
25992,69.0,0,72,1.0,32.0
25993,69.0,40,72,2.0,32.0
25994,65.0,0,72,2.0,32.0
25995,49.0,40,32,12.0,31.0
25996,37.0,40,240,13.0,28.0
25997,49.0,0,240,3.0,28.0
25998,48.0,0,32,12.0,31.0
25999,48.0,40,32,12.0,31.0
26000,53.0,0,576,4.0,38.0
26001,50.0,0,576,4.0,32.0
26002,62.0,0,576,4.0,32.0
26003,65.0,0,576,4.0,38.0
26004,50.0,0,576,6.0,32.0
26005,62.0,0,576,5.0,32.0
26006,48.0,40,32,12.0,31.0
26007,48.0,40,32,12.0,31.0
26008,48.0,40,32,12.0,31.0
26009,69.0,0,226,2.0,32.0
26010,65.0,0,226,2.0,32.0
26011,65.0,0,226,1.0,32.0
26012,74.0,40,226,1.0,32.0
26013,48.0,40,32,12.0,31.0
26014,36.0,0,240,13.0,28.0
26015,48.0,0,240,3.0,28.0
26016,59.0,40,32,11.0,25.0
26017,47.0,0,32,12.0,31.0
26018,47.0,0,32,12.0,31.0
26019,59.0,40,32,11.0,25.0
26020,47.0,40,32,12.0,31.0
26021,59.0,0,32,11.0,25.0
26022,47.0,0,32,12.0,31.0
26023,59.0,0,32,11.0,25.0
26024,62.0,0,60,5.0,32.0
26025,50.0,0,60,6.0,32.0
26026,65.0,0,72,2.0,32.0
26027,59.0,40,32,11.0,25.0
26028,69.0,0,72,2.0,32.0
26029,69.0,0,72,1.0,32.0
26030,77.0,40,72,1.0,32.0
26031,47.0,0,32,12.0,31.0
26032,59.0,40,32,11.0,25.0
26033,47.0,0,32,12.0,31.0
26034,35.0,0,240,13.0,28.0
26035,47.0,0,240,3.0,28.0
26036,46.0,0,32,12.0,31.0
26037,58.0,0,32,11.0,25.0
26038,58.0,40,32,11.0,25.0
26039,46.0,0,32,12.0,31.0
26040,46.0,0,32,12.0,31.0
26041,58.0,40,32,11.0,25.0
26042,57.0,0,120,5.0,32.0
26043,45.0,0,120,6.0,32.0
26044,46.0,0,32,12.0,31.0
26045,58.0,40,32,11.0,25.0
26046,58.0,40,32,11.0,25.0
26047,46.0,0,32,12.0,31.0
26048,58.0,40,32,11.0,25.0
26049,46.0,0,32,12.0,31.0
26050,34.0,40,240,13.0,28.0
26051,46.0,0,240,3.0,28.0
26052,57.0,0,32,11.0,25.0
26053,45.0,40,32,12.0,31.0
26054,57.0,40,32,11.0,25.0
26055,45.0,0,32,12.0,31.0
26056,45.0,0,32,12.0,31.0
26057,57.0,40,32,11.0,25.0
26058,45.0,40,32,12.0,31.0
26059,57.0,0,32,11.0,25.0
26060,57.0,40,32,11.0,25.0
26061,45.0,0,32,12.0,31.0
26062,57.0,0,32,11.0,25.0
26063,45.0,40,32,12.0,31.0
26064,65.0,0,480,2.0,32.0
26065,69.0,0,480,2.0,32.0
26066,45.0,0,240,3.0,28.0
26067,77.0,0,480,1.0,32.0
26068,69.0,0,480,1.0,32.0
26069,33.0,0,240,13.0,28.0
26070,59.0,0,32,11.0,25.0
26071,47.0,0,32,12.0,31.0
26072,47.0,0,32,12.0,31.0
26073,59.0,40,32,11.0,25.0
26074,47.0,40,32,12.0,31.0
26075,59.0,0,32,11.0,25.0
26076,76.0,0,120,1.0,32.0
26077,59.0,0,32,11.0,25.0
26078,47.0,0,32,12.0,31.0
26079,77.0,40,44,1.0,32.0
26080,59.0,0,32,11.0,25.0
26081,47.0,40,32,12.0,31.0
26082,76.0,4,44,1.0,32.0
26083,47.0,0,32,12.0,31.0
26084,59.0,36,32,11.0,25.0
26085,47.0,40,240,3.0,28.0
26086,35.0,0,240,13.0,28.0
26087,77.0,8,44,1.0,32.0
26088,49.0,0,32,12.0,31.0
26089,61.0,0,32,11.0,25.0
26090,76.0,12,44,1.0,32.0
26091,49.0,0,32,12.0,31.0
26092,61.0,28,32,11.0,25.0
26093,77.0,16,44,1.0,32.0
26094,49.0,24,32,12.0,31.0
26095,61.0,0,32,11.0,25.0
26096,76.0,20,44,1.0,32.0
26097,61.0,0,32,11.0,25.0
26098,49.0,0,32,12.0,31.0
26099,57.0,0,60,5.0,32.0
26100,45.0,20,60,6.0,32.0
26101,77.0,24,44,1.0,32.0
26102,61.0,16,32,11.0,25.0
26103,49.0,0,32,12.0,31.0
26104,61.0,12,32,11.0,25.0
26105,76.0,28,44,1.0,32.0
26106,49.0,0,32,12.0,31.0
26107,37.0,0,240,13.0,28.0
26108,67.0,0,480,2.0,32.0
26109,69.0,0,480,2.0,32.0
26110,49.0,32,240,3.0,28.0
26111,67.0,0,480,1.0,32.0
26112,50.0,0,32,12.0,41.0
26113,62.0,0,32,8.0,41.0
26114,62.0,40,32,8.0,41.0
26115,50.0,0,32,12.0,41.0
26116,50.0,40,32,12.0,41.0
26117,62.0,0,32,8.0,41.0
26118,50.0,0,120,6.0,43.0
26119,62.0,0,120,5.0,43.0
26120,50.0,0,32,12.0,41.0
26121,62.0,40,32,8.0,41.0
26122,50.0,40,32,12.0,41.0
26123,62.0,0,32,8.0,41.0
26124,50.0,0,32,12.0,41.0
26125,62.0,40,32,8.0,41.0
26126,50.0,0,240,3.0,32.0
26127,38.0,0,240,13.0,37.0
26128,49.0,0,32,12.0,41.0
26129,61.0,0,32,8.0,41.0
26130,65.0,0,288,2.0,30.0
26131,65.0,0,288,1.0,30.0
26132,74.0,40,288,1.0,30.0
26133,69.0,0,288,2.0,30.0
26134,49.0,40,32,12.0,41.0
26135,61.0,0,32,8.0,41.0
26136,49.0,40,32,12.0,41.0
26137,61.0,0,32,8.0,41.0
26138,49.0,40,32,12.0,41.0
26139,61.0,0,32,8.0,41.0
26140,61.0,0,32,8.0,41.0
26141,49.0,40,32,12.0,41.0
26142,49.0,0,32,12.0,41.0
26143,61.0,40,32,8.0,41.0
26144,37.0,40,240,13.0,37.0
26145,49.0,0,240,3.0,32.0
26146,48.0,0,32,12.0,41.0
26147,60.0,0,32,8.0,41.0
26148,48.0,40,32,12.0,41.0
26149,60.0,0,32,8.0,41.0
26150,60.0,0,32,8.0,41.0
26151,48.0,40,32,12.0,41.0
26152,60.0,40,32,8.0,41.0
26153,48.0,0,32,12.0,41.0
26154,60.0,0,32,8.0,41.0
26155,48.0,40,32,12.0,41.0
26156,48.0,40,32,12.0,41.0
26157,60.0,0,32,8.0,41.0
26158,36.0,40,240,13.0,37.0
26159,48.0,0,240,3.0,37.0
26160,47.0,0,32,12.0,41.0
26161,59.0,0,32,11.0,33.0
26162,59.0,0,32,8.0,41.0
26163,47.0,0,32,12.0,41.0
26164,59.0,0,32,8.0,41.0
26165,59.0,40,32,11.0,33.0
26166,59.0,0,32,8.0,41.0
26167,47.0,0,32,12.0,41.0
26168,59.0,40,32,11.0,33.0
26169,59.0,40,32,8.0,41.0
26170,47.0,0,32,12.0,41.0
26171,59.0,0,32,11.0,33.0
26172,59.0,40,32,11.0,33.0
26173,47.0,0,32,12.0,41.0
26174,59.0,0,32,8.0,41.0
26175,50.0,0,450,6.0,43.0
26176,59.0,40,32,11.0,33.0
26177,47.0,0,32,12.0,41.0
26178,59.0,0,32,8.0,41.0
26179,47.0,0,240,3.0,37.0
26180,35.0,40,240,13.0,37.0
26181,46.0,0,32,12.0,41.0
26182,58.0,40,32,11.0,33.0
26183,58.0,0,32,8.0,33.0
26184,46.0,0,32,12.0,41.0
26185,58.0,0,32,11.0,33.0
26186,58.0,40,32,8.0,33.0
26187,58.0,40,32,8.0,33.0
26188,46.0,0,32,12.0,41.0
26189,58.0,0,32,11.0,33.0
26190,58.0,0,32,8.0,33.0
26191,46.0,40,32,12.0,41.0
26192,58.0,0,32,11.0,33.0
26193,58.0,0,32,8.0,33.0
26194,46.0,0,32,12.0,41.0
26195,74.0,0,672,5.0,32.0
26196,69.0,0,672,5.0,32.0
26197,50.0,0,672,4.0,43.0
26198,62.0,0,672,4.0,43.0
26199,58.0,40,32,11.0,33.0
26200,65.0,0,672,4.0,51.0
26201,53.0,0,672,4.0,51.0
26202,58.0,0,32,8.0,33.0
26203,58.0,0,32,11.0,33.0
26204,46.0,40,32,12.0,41.0
26205,34.0,0,240,13.0,37.0
26206,46.0,0,240,3.0,37.0
26207,45.0,0,32,12.0,41.0
26208,57.0,0,32,11.0,33.0
26209,57.0,0,32,8.0,33.0
26210,45.0,0,32,12.0,41.0
26211,57.0,0,32,11.0,33.0
26212,57.0,40,32,8.0,33.0
26213,57.0,40,32,8.0,33.0
26214,57.0,0,32,11.0,33.0
26215,45.0,0,32,12.0,41.0
26216,57.0,0,32,11.0,33.0
26217,45.0,40,32,12.0,41.0
26218,57.0,0,32,8.0,33.0
26219,62.0,0,60,4.0,43.0
26220,50.0,0,60,4.0,51.0
26221,69.0,0,60,5.0,43.0
26222,50.0,0,60,6.0,43.0
26223,74.0,0,60,5.0,43.0
26224,57.0,40,32,8.0,33.0
26225,45.0,0,32,12.0,41.0
26226,57.0,0,32,11.0,33.0
26227,45.0,0,32,12.0,41.0
26228,57.0,40,32,11.0,33.0
26229,57.0,0,32,8.0,33.0
26230,33.0,40,240,13.0,37.0
26231,45.0,0,240,3.0,37.0
26232,47.0,40,32,12.0,41.0
26233,59.0,0,32,11.0,33.0
26234,59.0,0,32,8.0,33.0
26235,47.0,0,32,12.0,41.0
26236,59.0,40,32,8.0,33.0
26237,59.0,0,32,11.0,33.0
26238,59.0,40,32,11.0,33.0
26239,59.0,0,32,8.0,33.0
26240,47.0,0,32,12.0,41.0
26241,59.0,0,32,8.0,33.0
26242,59.0,0,32,11.0,33.0
26243,47.0,40,32,12.0,41.0
26244,62.0,0,192,4.0,43.0
26245,59.0,0,32,8.0,33.0
26246,50.0,0,192,4.0,43.0
26247,53.0,0,192,4.0,51.0
26248,47.0,40,32,12.0,41.0
26249,65.0,0,192,4.0,51.0
26250,69.0,0,192,5.0,43.0
26251,74.0,0,192,5.0,43.0
26252,59.0,0,32,11.0,33.0
26253,50.0,0,192,6.0,43.0
26254,59.0,40,32,8.0,33.0
26255,47.0,0,32,12.0,41.0
26256,59.0,0,32,11.0,33.0
26257,35.0,0,240,13.0,37.0
26258,47.0,0,240,3.0,37.0
26259,61.0,0,32,8.0,33.0
26260,61.0,0,32,11.0,33.0
26261,49.0,0,32,12.0,41.0
26262,49.0,0,32,12.0,41.0
26263,61.0,40,32,8.0,33.0
26264,61.0,0,32,11.0,33.0
26265,61.0,0,32,8.0,33.0
26266,49.0,0,32,12.0,41.0
26267,61.0,40,32,11.0,33.0
26268,61.0,0,32,11.0,33.0
26269,61.0,0,32,8.0,33.0
26270,49.0,0,32,12.0,41.0
26271,74.0,0,60,5.0,43.0
26272,50.0,0,60,6.0,43.0
26273,69.0,0,60,5.0,43.0
26274,50.0,40,60,4.0,43.0
26275,62.0,0,60,4.0,43.0
26276,69.0,0,60,4.0,51.0
26277,61.0,0,32,8.0,33.0
26278,61.0,0,32,11.0,33.0
26279,49.0,40,32,12.0,41.0
26280,49.0,40,32,12.0,41.0
26281,61.0,0,32,11.0,33.0
26282,61.0,0,32,8.0,33.0
26283,37.0,0,240,13.0,37.0
26284,49.0,40,240,3.0,37.0
26285,62.0,0,32,8.0,41.0
26286,50.0,40,32,12.0,41.0
26287,62.0,0,32,8.0,41.0
26288,50.0,40,32,12.0,41.0
26289,62.0,40,32,8.0,41.0
26290,50.0,0,32,12.0,41.0
26291,62.0,40,32,8.0,41.0
26292,50.0,0,32,12.0,41.0
26293,50.0,40,32,12.0,41.0
26294,62.0,0,32,8.0,41.0
26295,77.0,0,706,1.0,43.0
26296,65.0,0,706,2.0,43.0
26297,62.0,0,706,2.0,43.0
26298,74.0,0,706,1.0,43.0
26299,50.0,0,32,12.0,41.0
26300,62.0,40,32,8.0,41.0
26301,50.0,0,240,3.0,37.0
26302,38.0,0,240,13.0,37.0
26303,61.0,40,32,8.0,41.0
26304,49.0,0,32,12.0,41.0
26305,61.0,0,32,8.0,41.0
26306,49.0,40,32,12.0,41.0
26307,61.0,0,32,8.0,41.0
26308,49.0,40,32,12.0,41.0
26309,49.0,0,32,12.0,41.0
26310,61.0,0,32,8.0,41.0
26311,62.0,0,72,2.0,43.0
26312,61.0,0,32,8.0,41.0
26313,74.0,0,72,1.0,43.0
26314,69.0,40,72,1.0,43.0
26315,57.0,0,72,2.0,43.0
26316,49.0,40,32,12.0,41.0
26317,61.0,40,32,8.0,41.0
26318,49.0,0,32,12.0,41.0
26319,49.0,0,240,3.0,37.0
26320,37.0,0,240,13.0,37.0
26321,60.0,0,32,8.0,41.0
26322,48.0,0,32,12.0,41.0
26323,48.0,0,32,12.0,41.0
26324,60.0,40,32,8.0,41.0
26325,74.0,0,576,5.0,43.0
26326,69.0,0,576,5.0,43.0
26327,57.0,0,576,4.0,51.0
26328,50.0,0,576,6.0,43.0
26329,50.0,0,576,4.0,43.0
26330,62.0,0,576,4.0,43.0
26331,60.0,0,32,8.0,41.0
26332,48.0,40,32,12.0,41.0
26333,48.0,40,32,12.0,41.0
26334,60.0,0,32,8.0,41.0
26335,48.0,40,32,12.0,41.0
26336,60.0,0,32,8.0,41.0
26337,65.0,0,226,2.0,43.0
26338,74.0,40,226,1.0,43.0
26339,77.0,0,226,1.0,43.0
26340,62.0,0,226,2.0,43.0
26341,60.0,0,32,8.0,41.0
26342,48.0,40,32,12.0,41.0
26343,36.0,0,240,13.0,37.0
26344,48.0,0,240,3.0,37.0
26345,59.0,40,32,11.0,33.0
26346,47.0,0,32,12.0,41.0
26347,59.0,0,32,8.0,41.0
26348,59.0,40,32,11.0,33.0
26349,59.0,0,32,8.0,41.0
26350,47.0,0,32,12.0,41.0
26351,59.0,40,32,11.0,33.0
26352,59.0,0,32,8.0,41.0
26353,47.0,0,32,12.0,41.0
26354,59.0,0,32,11.0,33.0
26355,59.0,0,32,8.0,41.0
26356,47.0,0,32,12.0,41.0
26357,62.0,0,60,5.0,43.0
26358,50.0,0,60,6.0,43.0
26359,77.0,0,72,1.0,43.0
26360,69.0,0,72,2.0,43.0
26361,81.0,40,72,1.0,43.0
26362,65.0,0,72,2.0,43.0
26363,59.0,0,32,8.0,41.0
26364,59.0,40,32,11.0,33.0
26365,47.0,0,32,12.0,41.0
26366,59.0,40,32,11.0,33.0
26367,59.0,0,32,8.0,41.0
26368,47.0,0,32,12.0,41.0
26369,35.0,0,240,13.0,37.0
26370,47.0,0,240,3.0,37.0
26371,58.0,40,32,11.0,33.0
26372,58.0,0,32,8.0,41.0
26373,46.0,0,32,12.0,41.0
26374,58.0,40,32,8.0,41.0
26375,58.0,0,32,11.0,33.0
26376,46.0,0,32,12.0,41.0
26377,58.0,0,32,8.0,41.0
26378,46.0,0,32,12.0,41.0
26379,58.0,40,32,11.0,33.0
26380,57.0,0,120,5.0,43.0
26381,45.0,0,120,6.0,43.0
26382,58.0,0,32,11.0,33.0
26383,58.0,40,32,8.0,41.0
26384,46.0,0,32,12.0,41.0
26385,58.0,0,32,8.0,41.0
26386,46.0,40,32,12.0,41.0
26387,58.0,0,32,11.0,33.0
26388,58.0,40,32,8.0,41.0
26389,58.0,0,32,11.0,33.0
26390,46.0,0,32,12.0,41.0
26391,46.0,0,240,3.0,37.0
26392,34.0,0,240,13.0,37.0
26393,57.0,0,32,11.0,33.0
26394,45.0,40,32,12.0,41.0
26395,57.0,0,32,8.0,41.0
26396,45.0,40,32,12.0,41.0
26397,57.0,0,32,8.0,41.0
26398,57.0,0,32,11.0,33.0
26399,45.0,40,32,12.0,41.0
26400,57.0,0,32,11.0,33.0
26401,57.0,0,32,8.0,41.0
26402,57.0,0,32,8.0,41.0
26403,45.0,40,32,12.0,41.0
26404,57.0,0,32,11.0,33.0
26405,69.0,0,1378,4.0,51.0
26406,45.0,0,32,12.0,41.0
26407,57.0,0,32,8.0,41.0
26408,57.0,40,32,11.0,33.0
26409,57.0,0,32,11.0,33.0
26410,45.0,40,32,12.0,41.0
26411,57.0,0,32,8.0,41.0
26412,33.0,0,240,13.0,37.0
26413,65.0,0,480,2.0,43.0
26414,69.0,0,480,2.0,43.0
26415,81.0,0,480,1.0,43.0
26416,77.0,0,480,1.0,43.0
26417,45.0,0,240,3.0,37.0
26418,59.0,0,32,8.0,41.0
26419,47.0,0,32,12.0,41.0
26420,59.0,0,32,11.0,33.0
26421,59.0,40,32,8.0,41.0
26422,59.0,0,32,11.0,33.0
26423,47.0,0,32,12.0,41.0
26424,59.0,0,32,8.0,41.0
26425,59.0,0,32,11.0,33.0
26426,47.0,40,32,12.0,41.0
26427,79.0,0,120,1.0,43.0
26428,67.0,0,120,2.0,43.0
26429,47.0,0,32,12.0,41.0
26430,59.0,0,32,11.0,33.0
26431,59.0,40,32,8.0,41.0
26432,69.0,0,44,2.0,43.0
26433,81.0,0,44,1.0,43.0
26434,47.0,40,32,12.0,41.0
26435,59.0,0,32,8.0,41.0
26436,59.0,0,32,11.0,33.0
26437,79.0,0,44,1.0,43.0
26438,67.0,4,44,2.0,43.0
26439,47.0,36,32,12.0,41.0
26440,59.0,0,32,8.0,41.0
26441,59.0,0,32,11.0,33.0
26442,47.0,40,240,3.0,37.0
26443,35.0,0,240,13.0,37.0
26444,81.0,8,44,1.0,43.0
26445,69.0,0,44,2.0,43.0
26446,61.0,0,32,11.0,33.0
26447,49.0,0,32,12.0,41.0
26448,61.0,0,32,8.0,41.0
26449,67.0,12,44,2.0,43.0
26450,79.0,0,44,1.0,43.0
26451,61.0,0,32,11.0,33.0
26452,49.0,0,32,12.0,41.0
26453,61.0,28,32,8.0,41.0
26454,69.0,16,44,2.0,43.0
26455,81.0,0,44,1.0,43.0
26456,49.0,24,32,12.0,41.0
26457,61.0,0,32,11.0,33.0
26458,61.0,0,32,8.0,41.0
26459,67.0,0,44,2.0,43.0
26460,79.0,20,44,1.0,43.0
26461,61.0,0,32,11.0,33.0
26462,49.0,0,32,12.0,41.0
26463,61.0,20,32,8.0,41.0
26464,45.0,0,60,6.0,43.0
26465,57.0,0,60,5.0,43.0
26466,69.0,24,44,2.0,43.0
26467,81.0,0,44,1.0,43.0
26468,61.0,16,32,11.0,33.0
26469,49.0,0,32,12.0,41.0
26470,61.0,0,32,8.0,41.0
26471,61.0,12,32,11.0,33.0
26472,79.0,0,44,1.0,43.0
26473,67.0,28,44,2.0,43.0
26474,61.0,0,32,8.0,41.0
26475,49.0,0,32,12.0,41.0
26476,64.0,0,480,2.0,43.0
26477,37.0,0,240,13.0,37.0
26478,64.0,0,480,4.0,43.0
26479,67.0,0,480,4.0,43.0
26480,49.0,32,240,3.0,37.0
26481,76.0,0,480,1.0,43.0
26482,50.0,0,32,12.0,55.0
26483,62.0,0,32,8.0,42.0
26484,50.0,0,32,12.0,55.0
26485,62.0,40,32,8.0,55.0
26486,50.0,40,32,12.0,55.0
26487,62.0,0,32,8.0,55.0
26488,62.0,0,120,5.0,55.0
26489,50.0,0,120,6.0,55.0
26490,62.0,0,32,8.0,55.0
26491,50.0,40,32,12.0,55.0
26492,62.0,0,192,4.0,55.0
26493,65.0,0,192,4.0,55.0
26494,62.0,40,32,8.0,55.0
26495,50.0,0,32,12.0,55.0
26496,50.0,0,192,4.0,55.0
26497,65.0,40,226,2.0,46.0
26498,62.0,0,226,2.0,46.0
26499,77.0,0,226,1.0,46.0
26500,74.0,0,226,1.0,46.0
26501,50.0,0,32,12.0,55.0
26502,62.0,40,32,8.0,55.0
26503,38.0,0,240,13.0,48.0
26504,50.0,0,240,3.0,48.0
26505,49.0,40,32,12.0,55.0
26506,61.0,0,32,8.0,55.0
26507,61.0,40,32,8.0,55.0
26508,49.0,0,32,12.0,55.0
26509,61.0,0,32,8.0,55.0
26510,49.0,40,32,12.0,55.0
26511,49.0,0,32,12.0,55.0
26512,61.0,0,32,8.0,55.0
26513,49.0,0,32,12.0,55.0
26514,61.0,40,32,8.0,55.0
26515,69.0,40,72,1.0,55.0
26516,69.0,0,72,2.0,55.0
26517,65.0,0,72,2.0,55.0
26518,65.0,0,72,1.0,55.0
26519,77.0,0,72,0.0,55.0
26520,81.0,0,72,0.0,55.0
26521,61.0,0,32,8.0,55.0
26522,49.0,40,32,12.0,55.0
26523,49.0,0,240,3.0,48.0
26524,37.0,0,240,13.0,48.0
26525,60.0,0,32,8.0,55.0
26526,48.0,0,32,12.0,55.0
26527,60.0,40,32,8.0,55.0
26528,48.0,0,32,12.0,55.0
26529,48.0,0,32,12.0,55.0
26530,60.0,40,32,8.0,55.0
26531,48.0,0,32,12.0,55.0
26532,60.0,40,32,8.0,55.0
26533,48.0,0,32,12.0,55.0
26534,60.0,40,32,8.0,55.0
26535,65.0,40,226,1.0,55.0
26536,74.0,0,226,1.0,55.0
26537,77.0,0,226,0.0,55.0
26538,65.0,0,226,2.0,55.0
26539,69.0,0,226,2.0,55.0
26540,86.0,0,226,0.0,55.0
26541,60.0,40,32,8.0,55.0
26542,48.0,0,32,12.0,55.0
26543,48.0,0,240,3.0,48.0
26544,36.0,0,240,13.0,48.0
26545,47.0,0,32,12.0,55.0
26546,59.0,0,32,8.0,55.0
26547,59.0,40,32,11.0,45.0
26548,59.0,0,32,8.0,55.0
26549,59.0,40,32,11.0,45.0
26550,47.0,0,32,12.0,55.0
26551,59.0,0,32,8.0,55.0
26552,47.0,40,32,12.0,55.0
26553,59.0,0,32,11.0,45.0
26554,59.0,0,32,11.0,45.0
26555,59.0,0,32,8.0,55.0
26556,47.0,40,32,12.0,55.0
26557,62.0,0,60,5.0,55.0
26558,50.0,0,60,6.0,55.0
26559,89.0,0,72,0.0,55.0
26560,59.0,40,32,11.0,45.0
26561,59.0,0,32,8.0,55.0
26562,65.0,0,72,2.0,55.0
26563,69.0,0,72,2.0,55.0
26564,77.0,0,72,1.0,55.0
26565,47.0,0,32,12.0,55.0
26566,69.0,0,72,1.0,55.0
26567,81.0,0,72,0.0,55.0
26568,47.0,40,32,12.0,55.0
26569,59.0,0,32,8.0,55.0
26570,59.0,0,32,11.0,45.0
26571,35.0,0,240,13.0,48.0
26572,47.0,0,240,3.0,48.0
26573,58.0,0,32,11.0,51.0
26574,58.0,0,32,8.0,62.0
26575,46.0,0,32,12.0,62.0
26576,58.0,0,32,8.0,62.0
26577,46.0,40,32,12.0,62.0
26578,58.0,0,32,11.0,51.0
26579,58.0,40,32,8.0,62.0
26580,58.0,0,32,11.0,51.0
26581,46.0,0,32,12.0,62.0
26582,57.0,0,120,5.0,63.0
26583,45.0,0,120,6.0,63.0
26584,58.0,0,32,11.0,51.0
26585,46.0,0,32,12.0,62.0
26586,58.0,40,32,8.0,62.0
26587,58.0,0,32,8.0,62.0
26588,46.0,40,32,12.0,62.0
26589,58.0,0,32,11.0,51.0
26590,58.0,0,32,8.0,62.0
26591,46.0,0,32,12.0,62.0
26592,58.0,40,32,11.0,51.0
26593,46.0,0,240,3.0,55.0
26594,34.0,40,240,13.0,55.0
26595,57.0,40,32,11.0,51.0
26596,45.0,0,32,12.0,62.0
26597,57.0,0,32,8.0,62.0
26598,57.0,0,32,11.0,51.0
26599,45.0,40,32,12.0,62.0
26600,57.0,0,32,8.0,62.0
26601,57.0,40,32,8.0,62.0
26602,57.0,0,32,11.0,51.0
26603,45.0,0,32,12.0,62.0
26604,57.0,0,32,8.0,62.0
26605,57.0,40,32,11.0,51.0
26606,45.0,0,32,12.0,62.0
26607,57.0,40,32,8.0,62.0
26608,57.0,0,32,11.0,51.0
26609,45.0,0,32,12.0,62.0
26610,45.0,40,32,12.0,62.0
26611,57.0,0,32,8.0,62.0
26612,57.0,0,32,11.0,51.0
26613,33.0,0,240,13.0,55.0
26614,45.0,0,240,3.0,55.0
26615,77.0,0,480,1.0,63.0
26616,69.0,0,480,1.0,63.0
26617,65.0,0,480,2.0,63.0
26618,81.0,0,480,0.0,63.0
26619,89.0,0,480,0.0,63.0
26620,69.0,0,480,2.0,63.0
26621,59.0,0,32,11.0,51.0
26622,59.0,0,32,8.0,62.0
26623,47.0,0,32,12.0,62.0
26624,59.0,0,32,11.0,51.0
26625,47.0,40,32,12.0,62.0
26626,59.0,0,32,8.0,62.0
26627,47.0,40,32,12.0,62.0
26628,59.0,0,32,8.0,62.0
26629,59.0,0,32,11.0,51.0
26630,76.0,0,120,1.0,63.0
26631,88.0,0,120,0.0,63.0
26632,59.0,40,32,11.0,51.0
26633,47.0,0,32,12.0,62.0
26634,59.0,0,32,8.0,62.0
26635,89.0,0,44,0.0,63.0
26636,77.0,0,44,1.0,63.0
26637,47.0,40,32,12.0,62.0
26638,59.0,0,32,11.0,51.0
26639,59.0,0,32,8.0,62.0
26640,88.0,4,44,0.0,63.0
26641,76.0,0,44,1.0,63.0
26642,59.0,0,32,8.0,62.0
26643,59.0,0,32,11.0,51.0
26644,47.0,36,32,12.0,62.0
26645,35.0,40,240,13.0,55.0
26646,47.0,0,240,3.0,55.0
26647,89.0,8,44,0.0,63.0
26648,77.0,0,44,1.0,63.0
26649,61.0,0,32,11.0,51.0
26650,49.0,0,32,12.0,62.0
26651,61.0,0,32,8.0,62.0
26652,88.0,12,44,0.0,63.0
26653,76.0,0,44,1.0,63.0
26654,49.0,0,32,12.0,62.0
26655,61.0,0,32,8.0,62.0
26656,61.0,28,32,11.0,51.0
26657,77.0,16,44,1.0,63.0
26658,89.0,0,44,0.0,63.0
26659,61.0,24,32,8.0,62.0
26660,61.0,0,32,11.0,51.0
26661,49.0,0,32,12.0,62.0
26662,57.0,0,377,4.0,63.0
26663,88.0,0,44,0.0,63.0
26664,76.0,20,44,1.0,63.0
26665,64.0,0,384,4.0,63.0
26666,61.0,0,32,11.0,51.0
26667,49.0,0,32,12.0,62.0
26668,61.0,0,32,8.0,62.0
26669,45.0,0,60,6.0,63.0
26670,57.0,20,60,5.0,63.0
26671,77.0,0,44,1.0,63.0
26672,89.0,24,44,0.0,63.0
26673,61.0,16,32,8.0,62.0
26674,61.0,0,32,11.0,51.0
26675,49.0,0,32,12.0,62.0
26676,76.0,0,44,1.0,63.0
26677,88.0,28,44,0.0,63.0
26678,49.0,0,32,12.0,62.0
26679,61.0,0,32,11.0,51.0
26680,61.0,12,32,8.0,62.0
26681,79.0,0,480,0.0,63.0
26682,69.0,0,0,2.0,53.0
26683,67.0,0,480,1.0,63.0
26684,67.0,0,480,2.0,63.0
26685,37.0,32,240,13.0,55.0
26686,49.0,0,240,3.0,55.0
26687,50.0,0,32,12.0,62.0
26688,74.0,0,32,8.0,62.0
26689,74.0,0,32,8.0,62.0
26690,50.0,40,32,12.0,62.0
26691,50.0,0,32,12.0,62.0
26692,74.0,40,32,8.0,62.0
26693,50.0,0,120,6.0,65.0
26694,62.0,0,120,5.0,65.0
26695,50.0,0,32,12.0,62.0
26696,74.0,40,32,8.0,62.0
26697,74.0,40,32,8.0,62.0
26698,50.0,0,192,4.0,65.0
26699,50.0,0,32,12.0,62.0
26700,62.0,0,192,4.0,65.0
26701,74.0,0,226,1.0,53.0
26702,65.0,0,226,1.0,53.0
26703,65.0,0,226,2.0,53.0
26704,77.0,0,226,0.0,53.0
26705,86.0,40,226,0.0,53.0
26706,50.0,0,32,12.0,62.0
26707,74.0,40,32,8.0,62.0
26708,50.0,0,240,3.0,56.0
26709,38.0,0,240,13.0,56.0
26710,73.0,0,32,8.0,62.0
26711,49.0,0,32,12.0,62.0
26712,73.0,40,32,8.0,62.0
26713,49.0,0,32,12.0,62.0
26714,73.0,0,32,8.0,62.0
26715,49.0,40,32,12.0,62.0
26716,49.0,0,32,12.0,62.0
26717,73.0,0,32,8.0,62.0
26718,74.0,0,72,1.0,65.0
26719,57.0,0,72,2.0,65.0
26720,49.0,0,32,12.0,62.0
26721,73.0,40,32,8.0,62.0
26722,69.0,0,72,1.0,65.0
26723,81.0,0,72,0.0,65.0
26724,86.0,40,72,0.0,65.0
26725,62.0,0,72,2.0,65.0
26726,49.0,0,32,12.0,62.0
26727,73.0,40,32,8.0,62.0
26728,49.0,0,240,3.0,56.0
26729,37.0,40,240,13.0,56.0
26730,72.0,0,32,8.0,62.0
26731,48.0,0,32,12.0,62.0
26732,72.0,40,32,8.0,62.0
26733,48.0,0,32,12.0,62.0
26734,48.0,0,32,12.0,62.0
26735,72.0,40,32,8.0,62.0
26736,48.0,40,32,12.0,62.0
26737,72.0,0,32,8.0,62.0
26738,72.0,40,32,8.0,62.0
26739,48.0,0,32,12.0,62.0
26740,62.0,0,226,2.0,65.0
26741,74.0,0,226,1.0,65.0
26742,86.0,0,226,0.0,65.0
26743,89.0,0,226,0.0,65.0
26744,77.0,0,226,1.0,65.0
26745,65.0,40,226,2.0,65.0
26746,48.0,40,32,12.0,62.0
26747,72.0,0,32,8.0,62.0
26748,36.0,0,240,13.0,56.0
26749,48.0,0,240,3.0,56.0
26750,71.0,0,32,8.0,62.0
26751,59.0,0,32,11.0,50.0
26752,47.0,0,32,12.0,62.0
26753,59.0,0,32,11.0,50.0
26754,47.0,0,32,12.0,62.0
26755,71.0,40,32,8.0,62.0
26756,71.0,0,32,8.0,62.0
26757,59.0,0,32,11.0,50.0
26758,47.0,40,32,12.0,62.0
26759,47.0,0,32,12.0,62.0
26760,59.0,0,32,11.0,50.0
26761,71.0,0,32,8.0,62.0
26762,62.0,40,60,5.0,65.0
26763,50.0,0,60,6.0,65.0
26764,59.0,0,32,11.0,50.0
26765,65.0,0,72,2.0,65.0
26766,81.0,0,72,1.0,65.0
26767,77.0,0,72,1.0,65.0
26768,89.0,0,72,0.0,65.0
26769,93.0,0,72,0.0,65.0
26770,47.0,0,32,12.0,62.0
26771,71.0,40,32,8.0,62.0
26772,69.0,0,72,2.0,65.0
26773,65.0,20,30,4.0,65.0
26774,71.0,0,32,8.0,62.0
26775,59.0,20,32,11.0,50.0
26776,47.0,0,32,12.0,62.0
26777,35.0,40,240,13.0,56.0
26778,47.0,0,240,3.0,56.0
26779,70.0,0,32,8.0,62.0
26780,46.0,0,32,12.0,62.0
26781,58.0,0,32,11.0,50.0
26782,58.0,0,32,11.0,50.0
26783,70.0,40,32,8.0,62.0
26784,46.0,0,32,12.0,62.0
26785,46.0,0,32,12.0,62.0
26786,58.0,40,32,11.0,50.0
26787,70.0,0,32,8.0,62.0
26788,50.0,0,120,6.0,65.0
26789,62.0,0,120,5.0,65.0
26790,46.0,0,32,12.0,62.0
26791,58.0,0,32,11.0,50.0
26792,70.0,40,32,8.0,62.0
26793,58.0,0,32,11.0,50.0
26794,46.0,40,32,12.0,62.0
26795,70.0,0,32,8.0,62.0
26796,46.0,0,32,12.0,62.0
26797,58.0,40,32,11.0,50.0
26798,70.0,0,32,8.0,62.0
26799,34.0,40,240,13.0,56.0
26800,46.0,0,240,3.0,56.0
26801,57.0,0,32,11.0,50.0
26802,69.0,0,32,8.0,62.0
26803,45.0,40,32,12.0,62.0
26804,57.0,40,32,11.0,50.0
26805,45.0,0,32,12.0,62.0
26806,69.0,0,32,8.0,62.0
26807,45.0,0,32,12.0,62.0
26808,57.0,0,32,11.0,50.0
26809,69.0,40,32,8.0,62.0
26810,57.0,0,32,11.0,50.0
26811,45.0,40,32,12.0,62.0
26812,69.0,0,32,8.0,62.0
26813,69.0,0,428,4.0,65.0
26814,69.0,0,32,8.0,62.0
26815,45.0,0,32,12.0,62.0
26816,57.0,40,32,11.0,50.0
26817,45.0,40,32,12.0,62.0
26818,69.0,0,32,8.0,62.0
26819,57.0,0,32,11.0,50.0
26820,65.0,0,480,2.0,65.0
26821,69.0,0,480,2.0,65.0
26822,33.0,0,240,13.0,56.0
26823,89.0,0,480,0.0,65.0
26824,65.0,0,480,4.0,65.0
26825,81.0,0,480,1.0,65.0
26826,93.0,0,480,0.0,65.0
26827,77.0,0,480,1.0,65.0
26828,45.0,0,240,3.0,56.0
26829,47.0,0,32,12.0,62.0
26830,71.0,0,32,8.0,62.0
26831,59.0,0,32,11.0,50.0
26832,59.0,0,32,11.0,50.0
26833,47.0,40,32,12.0,62.0
26834,71.0,0,32,8.0,62.0
26835,71.0,0,32,8.0,62.0
26836,47.0,40,32,12.0,62.0
26837,59.0,0,32,11.0,50.0
26838,79.0,0,120,1.0,65.0
26839,67.0,0,120,2.0,65.0
26840,91.0,0,120,0.0,65.0
26841,71.0,40,32,8.0,62.0
26842,59.0,0,32,11.0,50.0
26843,47.0,0,32,12.0,62.0
26844,93.0,0,44,0.0,65.0
26845,81.0,0,44,1.0,65.0
26846,69.0,0,44,2.0,65.0
26847,71.0,0,32,8.0,62.0
26848,47.0,40,32,12.0,62.0
26849,59.0,0,32,11.0,50.0
26850,91.0,4,44,0.0,65.0
26851,79.0,0,44,1.0,65.0
26852,67.0,0,44,2.0,65.0
26853,71.0,36,32,8.0,62.0
26854,59.0,0,32,11.0,50.0
26855,47.0,0,32,12.0,62.0
26856,35.0,40,240,13.0,56.0
26857,47.0,0,240,3.0,56.0
26858,69.0,0,44,2.0,65.0
26859,93.0,8,44,0.0,65.0
26860,81.0,0,44,1.0,65.0
26861,61.0,0,32,11.0,50.0
26862,49.0,0,32,12.0,62.0
26863,73.0,0,32,8.0,62.0
26864,67.0,12,44,2.0,65.0
26865,91.0,0,44,0.0,65.0
26866,79.0,0,44,1.0,65.0
26867,73.0,28,32,8.0,62.0
26868,61.0,0,32,11.0,50.0
26869,49.0,0,32,12.0,62.0
26870,69.0,0,44,2.0,65.0
26871,93.0,16,44,0.0,65.0
26872,81.0,0,44,1.0,65.0
26873,49.0,0,32,12.0,62.0
26874,73.0,0,32,8.0,62.0
26875,61.0,24,32,11.0,50.0
26876,67.0,0,44,2.0,65.0
26877,91.0,0,44,0.0,65.0
26878,79.0,20,44,1.0,65.0
26879,61.0,0,32,11.0,50.0
26880,49.0,0,32,12.0,62.0
26881,73.0,20,32,8.0,62.0
26882,57.0,0,60,5.0,65.0
26883,45.0,0,60,6.0,65.0
26884,81.0,0,44,1.0,65.0
26885,93.0,0,44,0.0,65.0
26886,69.0,24,44,2.0,65.0
26887,61.0,16,32,11.0,50.0
26888,73.0,0,32,8.0,62.0
26889,49.0,0,32,12.0,62.0
26890,61.0,0,32,11.0,50.0
26891,49.0,0,32,12.0,62.0
26892,73.0,12,32,8.0,62.0
26893,79.0,28,44,1.0,65.0
26894,91.0,0,44,0.0,65.0
26895,67.0,0,44,2.0,65.0
26896,37.0,0,240,13.0,56.0
26897,76.0,0,480,1.0,65.0
26898,88.0,0,480,0.0,65.0
26899,64.0,0,480,2.0,65.0
26900,49.0,32,240,3.0,56.0
26901,64.0,0,480,4.0,65.0
26902,67.0,0,480,4.0,65.0
26903,74.0,0,32,10.0,67.0
26904,86.0,0,32,8.0,67.0
26905,50.0,0,32,12.0,67.0
26906,86.0,40,32,8.0,60.0
26907,74.0,0,32,10.0,60.0
26908,50.0,0,32,12.0,67.0
26909,50.0,0,32,12.0,67.0
26910,74.0,40,32,10.0,60.0
26911,86.0,0,32,8.0,60.0
26912,62.0,0,120,5.0,69.0
26913,50.0,0,120,6.0,69.0
26914,74.0,40,32,10.0,60.0
26915,50.0,0,32,12.0,67.0
26916,86.0,0,32,8.0,60.0
26917,50.0,0,192,4.0,69.0
26918,62.0,0,192,4.0,69.0
26919,50.0,0,32,12.0,67.0
26920,74.0,40,32,10.0,60.0
26921,65.0,0,192,4.0,69.0
26922,86.0,0,32,8.0,60.0
26923,62.0,0,226,2.0,57.0
26924,89.0,0,226,0.0,57.0
26925,86.0,0,226,0.0,57.0
26926,65.0,0,226,2.0,57.0
26927,77.0,40,226,1.0,57.0
26928,74.0,0,226,1.0,57.0
26929,50.0,0,32,12.0,67.0
26930,74.0,40,32,10.0,60.0
26931,86.0,0,32,8.0,60.0
26932,50.0,0,240,3.0,61.0
26933,38.0,0,240,13.0,61.0
26934,49.0,0,32,12.0,67.0
26935,85.0,0,32,8.0,60.0
26936,73.0,0,32,10.0,60.0
26937,73.0,40,32,10.0,60.0
26938,85.0,0,32,8.0,60.0
26939,49.0,0,32,12.0,67.0
26940,49.0,0,32,12.0,67.0
26941,73.0,40,32,10.0,60.0
26942,85.0,0,32,8.0,60.0
26943,73.0,0,32,10.0,60.0
26944,49.0,0,32,12.0,67.0
26945,85.0,0,32,8.0,60.0
26946,62.0,40,60,5.0,69.0
26947,50.0,0,60,6.0,69.0
26948,65.0,0,72,2.0,69.0
26949,69.0,0,72,2.0,69.0
26950,77.0,0,72,0.0,69.0
26951,81.0,0,72,0.0,69.0
26952,85.0,0,32,8.0,60.0
26953,49.0,40,32,12.0,67.0
26954,65.0,0,72,1.0,69.0
26955,69.0,0,72,1.0,69.0
26956,73.0,0,32,10.0,60.0
26957,49.0,0,32,12.0,67.0
26958,73.0,0,32,10.0,60.0
26959,85.0,40,32,8.0,60.0
26960,49.0,40,240,3.0,61.0
26961,37.0,0,240,13.0,61.0
26962,48.0,0,32,12.0,67.0
26963,84.0,0,32,8.0,60.0
26964,72.0,0,32,10.0,60.0
26965,84.0,40,32,8.0,60.0
26966,48.0,0,32,12.0,67.0
26967,72.0,0,32,10.0,60.0
26968,48.0,0,32,12.0,67.0
26969,84.0,0,32,8.0,60.0
26970,72.0,40,32,10.0,60.0
26971,62.0,0,120,5.0,69.0
26972,50.0,0,120,6.0,69.0
26973,48.0,0,32,12.0,67.0
26974,72.0,40,32,10.0,60.0
26975,84.0,0,32,8.0,60.0
26976,72.0,0,32,10.0,60.0
26977,48.0,40,32,12.0,67.0
26978,84.0,0,32,8.0,60.0
26979,86.0,0,226,0.0,69.0
26980,77.0,0,226,0.0,69.0
26981,74.0,40,226,1.0,69.0
26982,65.0,0,226,1.0,69.0
26983,65.0,0,226,2.0,69.0
26984,69.0,0,226,2.0,69.0
26985,72.0,40,32,10.0,60.0
26986,48.0,0,32,12.0,67.0
26987,84.0,0,32,8.0,60.0
26988,48.0,0,240,3.0,61.0
26989,36.0,0,240,13.0,61.0
26990,71.0,40,32,10.0,60.0
26991,83.0,0,32,8.0,60.0
26992,59.0,0,32,11.0,54.0
26993,47.0,0,32,12.0,67.0
26994,83.0,0,32,8.0,60.0
26995,59.0,40,32,11.0,54.0
26996,47.0,0,32,12.0,67.0
26997,71.0,0,32,10.0,60.0
26998,83.0,0,32,8.0,60.0
26999,71.0,0,32,10.0,60.0
27000,47.0,40,32,12.0,67.0
27001,59.0,0,32,11.0,54.0
27002,59.0,0,32,11.0,54.0
27003,47.0,0,32,12.0,67.0
27004,71.0,0,32,10.0,60.0
27005,83.0,0,32,8.0,60.0
27006,62.0,0,60,5.0,69.0
27007,50.0,0,60,6.0,69.0
27008,83.0,0,32,8.0,60.0
27009,89.0,0,72,0.0,69.0
27010,77.0,0,72,1.0,69.0
27011,81.0,0,72,0.0,69.0
27012,69.0,0,72,1.0,69.0
27013,47.0,0,32,12.0,67.0
27014,65.0,0,72,2.0,69.0
27015,71.0,0,32,10.0,60.0
27016,59.0,40,32,11.0,54.0
27017,69.0,40,72,2.0,69.0
27018,65.0,0,30,4.0,69.0
27019,83.0,20,32,8.0,60.0
27020,59.0,0,32,11.0,54.0
27021,71.0,0,32,10.0,60.0
27022,47.0,0,32,12.0,67.0
27023,35.0,0,240,13.0,61.0
27024,47.0,0,240,3.0,61.0
27025,70.0,0,32,10.0,59.0
27026,46.0,0,32,11.0,81.0
27027,46.0,0,32,12.0,56.0
27028,82.0,0,32,8.0,73.0
27029,70.0,0,32,10.0,59.0
27030,46.0,0,32,12.0,56.0
27031,46.0,40,32,11.0,81.0
27032,82.0,0,32,8.0,73.0
27033,82.0,40,32,8.0,73.0
27034,70.0,0,32,10.0,59.0
27035,46.0,0,32,12.0,56.0
27036,46.0,0,32,11.0,81.0
27037,62.0,0,120,5.0,69.0
27038,50.0,0,120,6.0,69.0
27039,46.0,0,32,11.0,81.0
27040,70.0,0,32,10.0,59.0
27041,82.0,40,32,8.0,73.0
27042,46.0,0,32,12.0,56.0
27043,82.0,40,32,8.0,73.0
27044,46.0,0,32,11.0,81.0
27045,46.0,0,32,12.0,56.0
27046,70.0,0,32,10.0,59.0
27047,82.0,40,32,8.0,73.0
27048,46.0,0,32,12.0,56.0
27049,46.0,0,32,11.0,81.0
27050,70.0,0,32,10.0,59.0
27051,34.0,40,240,13.0,51.0
27052,46.0,0,240,3.0,55.0
27053,45.0,0,32,12.0,56.0
27054,45.0,0,32,11.0,95.0
27055,69.0,40,32,10.0,68.0
27056,81.0,0,32,8.0,86.0
27057,69.0,40,32,10.0,68.0
27058,81.0,0,32,8.0,86.0
27059,45.0,0,32,12.0,56.0
27060,45.0,0,32,11.0,95.0
27061,45.0,0,32,11.0,95.0
27062,45.0,0,32,12.0,56.0
27063,69.0,0,32,10.0,68.0
27064,81.0,40,32,8.0,86.0
27065,45.0,0,32,12.0,56.0
27066,81.0,0,32,8.0,86.0
27067,69.0,0,32,10.0,68.0
27068,45.0,40,32,11.0,95.0
27069,62.0,0,60,5.0,69.0
27070,50.0,0,60,6.0,69.0
27071,45.0,40,32,12.0,56.0
27072,69.0,0,32,10.0,68.0
27073,45.0,0,32,11.0,95.0
27074,81.0,0,32,8.0,86.0
27075,81.0,0,32,8.0,86.0
27076,45.0,40,32,12.0,56.0
27077,45.0,0,32,11.0,95.0
27078,69.0,0,32,10.0,68.0
27079,93.0,0,480,0.0,64.0
27080,89.0,0,480,0.0,64.0
27081,33.0,0,240,13.0,51.0
27082,65.0,0,480,4.0,64.0
27083,69.0,20,540,4.0,69.0
27084,69.0,0,480,2.0,64.0
27085,65.0,0,480,2.0,64.0
27086,45.0,0,240,3.0,55.0
27087,77.0,0,480,1.0,64.0
27088,81.0,0,480,1.0,64.0
27089,47.0,0,32,11.0,95.0
27090,71.0,40,32,10.0,68.0
27091,47.0,0,32,12.0,56.0
27092,83.0,0,32,8.0,86.0
27093,47.0,0,32,11.0,95.0
27094,47.0,0,32,12.0,56.0
27095,83.0,40,32,8.0,86.0
27096,71.0,0,32,10.0,68.0
27097,47.0,0,32,11.0,95.0
27098,47.0,40,32,12.0,56.0
27099,71.0,0,32,10.0,68.0
27100,83.0,0,32,8.0,86.0
27101,67.0,0,120,2.0,64.0
27102,79.0,0,120,1.0,64.0
27103,91.0,0,120,0.0,64.0
27104,57.0,0,120,5.0,69.0
27105,45.0,0,120,6.0,69.0
27106,47.0,0,32,12.0,56.0
27107,71.0,0,32,10.0,68.0
27108,83.0,0,32,8.0,86.0
27109,47.0,40,32,11.0,95.0
27110,81.0,0,44,1.0,64.0
27111,93.0,0,44,0.0,64.0
27112,69.0,0,44,2.0,64.0
27113,83.0,0,32,8.0,86.0
27114,47.0,0,32,11.0,95.0
27115,71.0,40,32,10.0,68.0
27116,47.0,0,32,12.0,56.0
27117,79.0,4,44,1.0,64.0
27118,67.0,0,44,2.0,64.0
27119,91.0,0,44,0.0,64.0
27120,83.0,0,32,8.0,86.0
27121,47.0,0,32,12.0,56.0
27122,47.0,0,32,11.0,95.0
27123,71.0,36,32,10.0,68.0
27124,47.0,0,240,3.0,55.0
27125,35.0,0,240,13.0,51.0
27126,69.0,0,44,2.0,64.0
27127,81.0,8,44,1.0,64.0
27128,93.0,0,44,0.0,64.0
27129,49.0,0,32,11.0,95.0
27130,49.0,0,32,12.0,56.0
27131,85.0,0,32,8.0,86.0
27132,73.0,0,32,10.0,68.0
27133,79.0,0,44,1.0,64.0
27134,67.0,12,44,2.0,64.0
27135,91.0,0,44,0.0,64.0
27136,85.0,28,32,8.0,86.0
27137,49.0,0,32,11.0,95.0
27138,73.0,0,32,10.0,68.0
27139,49.0,0,32,12.0,56.0
27140,69.0,0,44,2.0,64.0
27141,81.0,16,44,1.0,64.0
27142,93.0,0,44,0.0,64.0
27143,49.0,24,32,11.0,95.0
27144,85.0,0,32,8.0,86.0
27145,49.0,0,32,12.0,56.0
27146,73.0,0,32,10.0,68.0
27147,79.0,20,44,1.0,64.0
27148,67.0,0,44,2.0,64.0
27149,91.0,0,44,0.0,64.0
27150,49.0,0,32,11.0,95.0
27151,73.0,0,32,10.0,68.0
27152,85.0,20,32,8.0,86.0
27153,49.0,0,32,12.0,56.0
27154,45.0,0,60,6.0,69.0
27155,57.0,0,60,5.0,69.0
27156,69.0,0,44,2.0,64.0
27157,93.0,24,44,0.0,64.0
27158,81.0,0,44,1.0,64.0
27159,49.0,16,32,12.0,56.0
27160,73.0,0,32,10.0,68.0
27161,49.0,0,32,11.0,95.0
27162,85.0,0,32,8.0,86.0
27163,79.0,0,44,1.0,64.0
27164,49.0,0,32,12.0,56.0
27165,67.0,0,44,2.0,64.0
27166,49.0,0,32,11.0,95.0
27167,91.0,28,44,0.0,64.0
27168,85.0,12,32,8.0,86.0
27169,73.0,0,32,10.0,68.0
27170,67.0,0,480,4.0,64.0
27171,37.0,0,240,13.0,51.0
27172,88.0,0,480,0.0,64.0
27173,64.0,0,480,2.0,64.0
27174,64.0,0,480,4.0,64.0
27175,76.0,0,480,1.0,64.0
27176,49.0,32,240,3.0,55.0
27177,50.0,0,32,12.0,86.0
27178,62.0,0,32,11.0,86.0
27179,86.0,0,32,8.0,86.0
27180,74.0,0,32,10.0,86.0
27181,50.0,0,48,6.0,91.0
27182,62.0,40,32,11.0,86.0
27183,50.0,0,32,12.0,86.0
27184,74.0,0,32,10.0,86.0
27185,86.0,0,32,8.0,86.0
27186,50.0,20,48,6.0,91.0
27187,50.0,0,32,12.0,86.0
27188,62.0,20,32,11.0,86.0
27189,86.0,0,32,8.0,86.0
27190,74.0,0,32,10.0,86.0
27191,74.0,0,120,5.0,91.0
27192,62.0,0,120,5.0,91.0
27193,74.0,0,32,10.0,86.0
27194,62.0,0,32,11.0,86.0
27195,50.0,0,32,12.0,86.0
27196,86.0,40,32,8.0,86.0
27197,50.0,0,48,6.0,91.0
27198,74.0,0,32,10.0,86.0
27199,50.0,0,32,12.0,86.0
27200,62.0,0,32,11.0,86.0
27201,86.0,40,32,8.0,86.0
27202,50.0,20,48,6.0,91.0
27203,86.0,20,32,8.0,86.0
27204,74.0,0,32,10.0,86.0
27205,62.0,0,32,11.0,86.0
27206,50.0,0,32,12.0,86.0
27207,50.0,0,240,3.0,65.0
27208,38.0,40,240,13.0,61.0
27209,69.0,40,32,10.0,86.0
27210,45.0,0,32,12.0,86.0
27211,57.0,0,32,11.0,86.0
27212,81.0,0,32,8.0,86.0
27213,45.0,0,32,12.0,86.0
27214,57.0,40,32,11.0,86.0
27215,69.0,0,32,10.0,86.0
27216,81.0,0,32,8.0,86.0
27217,81.0,0,32,8.0,86.0
27218,45.0,40,32,12.0,86.0
27219,69.0,0,32,10.0,86.0
27220,57.0,0,32,11.0,86.0
27221,62.0,0,120,5.0,91.0
27222,74.0,0,120,5.0,91.0
27223,89.0,0,384,0.0,73.0
27224,74.0,0,384,1.0,73.0
27225,77.0,0,384,1.0,73.0
27226,65.0,0,384,2.0,73.0
27227,62.0,0,384,4.0,91.0
27228,50.0,0,384,4.0,91.0
27229,65.0,0,384,4.0,91.0
27230,62.0,0,384,2.0,73.0
27231,86.0,0,384,0.0,73.0
27232,57.0,0,32,11.0,86.0
27233,69.0,0,32,10.0,86.0
27234,45.0,0,32,12.0,86.0
27235,81.0,40,32,8.0,86.0
27236,45.0,0,192,6.0,91.0
27237,69.0,40,32,10.0,86.0
27238,57.0,0,32,11.0,86.0
27239,45.0,0,32,12.0,86.0
27240,81.0,0,32,8.0,86.0
27241,57.0,0,32,11.0,86.0
27242,81.0,0,32,8.0,86.0
27243,45.0,40,32,12.0,86.0
27244,69.0,0,32,10.0,86.0
27245,33.0,0,240,13.0,61.0
27246,45.0,0,240,3.0,65.0
27247,58.0,0,32,11.0,86.0
27248,82.0,0,32,8.0,86.0
27249,70.0,0,32,10.0,86.0
27250,46.0,0,32,12.0,86.0
27251,70.0,40,32,10.0,86.0
27252,58.0,0,32,11.0,86.0
27253,82.0,0,32,8.0,86.0
27254,46.0,0,32,12.0,86.0
27255,46.0,0,32,12.0,86.0
27256,70.0,0,32,10.0,86.0
27257,58.0,40,32,11.0,86.0
27258,82.0,0,32,8.0,86.0
27259,58.0,0,32,11.0,86.0
27260,46.0,0,32,12.0,86.0
27261,82.0,0,32,8.0,86.0
27262,70.0,40,32,10.0,86.0
27263,70.0,40,32,10.0,86.0
27264,82.0,0,32,8.0,86.0
27265,46.0,0,32,12.0,86.0
27266,58.0,0,32,11.0,86.0
27267,46.0,40,32,12.0,86.0
27268,82.0,0,32,8.0,86.0
27269,58.0,0,32,11.0,86.0
27270,70.0,0,32,10.0,86.0
27271,46.0,0,240,3.0,65.0
27272,34.0,40,240,13.0,61.0
27273,45.0,40,32,12.0,86.0
27274,69.0,0,32,10.0,86.0
27275,81.0,0,32,8.0,86.0
27276,57.0,0,32,11.0,86.0
27277,45.0,40,32,12.0,86.0
27278,57.0,0,32,11.0,86.0
27279,69.0,0,32,10.0,86.0
27280,81.0,0,32,8.0,86.0
27281,57.0,0,32,11.0,86.0
27282,69.0,0,32,10.0,86.0
27283,45.0,0,32,12.0,86.0
27284,81.0,40,32,8.0,86.0
27285,74.0,0,120,5.0,91.0
27286,62.0,0,120,5.0,91.0
27287,81.0,0,32,8.0,86.0
27288,69.0,0,32,10.0,86.0
27289,45.0,0,32,12.0,86.0
27290,57.0,40,32,11.0,86.0
27291,45.0,0,32,12.0,86.0
27292,45.0,0,192,6.0,91.0
27293,81.0,0,32,8.0,86.0
27294,69.0,40,32,10.0,86.0
27295,57.0,0,32,11.0,86.0
27296,89.0,20,48,0.0,73.0
27297,65.0,0,48,2.0,73.0
27298,62.0,0,48,4.0,91.0
27299,86.0,0,48,0.0,73.0
27300,65.0,0,48,4.0,91.0
27301,62.0,0,48,2.0,73.0
27302,74.0,0,48,1.0,73.0
27303,77.0,0,48,1.0,73.0
27304,81.0,0,32,8.0,86.0
27305,45.0,20,32,12.0,86.0
27306,69.0,0,32,10.0,86.0
27307,57.0,0,32,11.0,86.0
27308,45.0,0,240,3.0,65.0
27309,33.0,0,240,13.0,61.0
27310,79.0,0,32,8.0,86.0
27311,55.0,0,32,11.0,86.0
27312,43.0,40,32,12.0,86.0
27313,67.0,0,32,10.0,86.0
27314,50.0,0,48,6.0,91.0
27315,79.0,0,32,8.0,86.0
27316,43.0,40,32,12.0,86.0
27317,67.0,0,32,10.0,86.0
27318,55.0,0,32,11.0,86.0
27319,50.0,20,48,6.0,91.0
27320,43.0,0,32,12.0,86.0
27321,67.0,0,32,10.0,86.0
27322,79.0,20,32,8.0,86.0
27323,55.0,0,32,11.0,86.0
27324,43.0,0,32,12.0,86.0
27325,55.0,0,32,11.0,86.0
27326,67.0,0,32,10.0,86.0
27327,79.0,40,32,8.0,86.0
27328,50.0,0,48,6.0,91.0
27329,79.0,0,32,8.0,86.0
27330,43.0,0,32,12.0,86.0
27331,55.0,40,32,11.0,86.0
27332,67.0,0,32,10.0,86.0
27333,50.0,20,48,6.0,91.0
27334,67.0,0,32,10.0,86.0
27335,79.0,20,32,8.0,86.0
27336,43.0,0,32,12.0,86.0
27337,55.0,0,32,11.0,86.0
27338,43.0,0,240,3.0,65.0
27339,31.0,0,240,13.0,61.0
27340,70.0,0,32,10.0,86.0
27341,82.0,0,32,8.0,86.0
27342,46.0,0,32,12.0,86.0
27343,58.0,0,32,11.0,86.0
27344,46.0,0,32,12.0,86.0
27345,70.0,40,32,10.0,86.0
27346,82.0,0,32,8.0,86.0
27347,58.0,0,32,11.0,86.0
27348,46.0,0,32,12.0,86.0
27349,58.0,40,32,11.0,86.0
27350,82.0,0,32,8.0,86.0
27351,70.0,0,32,10.0,86.0
27352,74.0,40,120,5.0,91.0
27353,62.0,0,120,5.0,91.0
27354,50.0,0,384,4.0,91.0
27355,62.0,0,384,4.0,91.0
27356,76.0,0,384,1.0,73.0
27357,74.0,0,384,1.0,73.0
27358,64.0,0,384,4.0,91.0
27359,62.0,0,384,2.0,73.0
27360,64.0,0,384,2.0,73.0
27361,88.0,0,384,0.0,73.0
27362,86.0,0,384,0.0,73.0
27363,82.0,0,32,8.0,86.0
27364,58.0,0,32,11.0,86.0
27365,46.0,0,32,12.0,86.0
27366,70.0,40,32,10.0,86.0
27367,58.0,0,32,11.0,86.0
27368,46.0,0,32,12.0,86.0
27369,82.0,40,32,8.0,86.0
27370,70.0,0,32,10.0,86.0
27371,45.0,0,192,6.0,91.0
27372,70.0,0,32,10.0,86.0
27373,82.0,0,32,8.0,86.0
27374,58.0,0,32,11.0,86.0
27375,46.0,40,32,12.0,86.0
27376,46.0,0,240,3.0,65.0
27377,34.0,0,240,13.0,61.0
27378,69.0,0,32,10.0,86.0
27379,81.0,0,32,8.0,86.0
27380,45.0,0,32,12.0,86.0
27381,57.0,0,32,11.0,86.0
27382,57.0,0,32,11.0,86.0
27383,81.0,0,32,8.0,86.0
27384,45.0,0,32,12.0,86.0
27385,69.0,40,32,10.0,86.0
27386,69.0,0,32,10.0,86.0
27387,81.0,0,32,8.0,86.0
27388,57.0,0,32,11.0,86.0
27389,45.0,40,32,12.0,86.0
27390,81.0,0,32,8.0,86.0
27391,57.0,0,32,11.0,86.0
27392,45.0,0,32,12.0,86.0
27393,69.0,40,32,10.0,86.0
27394,81.0,40,32,8.0,86.0
27395,69.0,0,32,10.0,86.0
27396,57.0,0,32,11.0,86.0
27397,45.0,0,32,12.0,86.0
27398,57.0,40,32,11.0,86.0
27399,69.0,0,32,10.0,86.0
27400,45.0,0,32,12.0,86.0
27401,81.0,0,32,8.0,86.0
27402,33.0,0,240,13.0,61.0
27403,45.0,40,240,3.0,65.0
27404,61.0,0,32,11.0,86.0
27405,85.0,0,32,8.0,86.0
27406,73.0,0,32,10.0,86.0
27407,49.0,0,32,12.0,86.0
27408,61.0,0,32,11.0,86.0
27409,85.0,40,32,8.0,86.0
27410,73.0,0,32,10.0,86.0
27411,49.0,0,32,12.0,86.0
27412,61.0,0,32,11.0,86.0
27413,49.0,0,32,12.0,86.0
27414,73.0,40,32,10.0,86.0
27415,85.0,0,32,8.0,86.0
27416,69.0,0,120,5.0,91.0
27417,57.0,0,120,5.0,91.0
27418,61.0,0,32,11.0,86.0
27419,49.0,40,32,12.0,86.0
27420,73.0,0,32,10.0,86.0
27421,85.0,0,32,8.0,86.0
27422,73.0,0,32,10.0,86.0
27423,49.0,0,32,12.0,86.0
27424,45.0,0,192,6.0,91.0
27425,85.0,40,32,8.0,86.0
27426,61.0,0,32,11.0,86.0
27427,88.0,0,48,0.0,73.0
27428,69.0,0,48,2.0,73.0
27429,93.0,0,48,0.0,73.0
27430,76.0,0,48,1.0,73.0
27431,81.0,20,48,1.0,73.0
27432,64.0,0,48,2.0,73.0
27433,49.0,20,32,12.0,86.0
27434,85.0,0,32,8.0,86.0
27435,73.0,0,32,10.0,86.0
27436,61.0,0,32,11.0,86.0
27437,37.0,0,240,13.0,61.0
27438,49.0,40,240,3.0,65.0
27439,50.0,0,32,12.0,86.0
27440,86.0,0,32,8.0,86.0
27441,62.0,0,32,11.0,86.0
27442,74.0,0,32,10.0,86.0
27443,50.0,0,48,6.0,91.0
27444,86.0,40,32,8.0,86.0
27445,74.0,0,32,10.0,86.0
27446,62.0,0,32,11.0,86.0
27447,50.0,0,32,12.0,86.0
27448,50.0,20,48,6.0,91.0
27449,86.0,20,32,8.0,86.0
27450,62.0,0,32,11.0,86.0
27451,50.0,0,32,12.0,86.0
27452,74.0,0,32,10.0,86.0
27453,74.0,0,120,5.0,91.0
27454,62.0,0,120,5.0,91.0
27455,74.0,0,32,10.0,86.0
27456,50.0,0,32,12.0,86.0
27457,62.0,40,32,11.0,86.0
27458,86.0,0,32,8.0,86.0
27459,50.0,0,48,6.0,91.0
27460,86.0,0,32,8.0,86.0
27461,62.0,0,32,11.0,86.0
27462,74.0,40,32,10.0,86.0
27463,50.0,0,32,12.0,86.0
27464,50.0,20,48,6.0,91.0
27465,50.0,0,32,12.0,86.0
27466,86.0,20,32,8.0,86.0
27467,74.0,0,32,10.0,86.0
27468,62.0,0,32,11.0,86.0
27469,38.0,0,240,13.0,61.0
27470,50.0,0,240,3.0,65.0
27471,81.0,0,32,8.0,86.0
27472,57.0,40,32,11.0,86.0
27473,45.0,0,32,12.0,86.0
27474,69.0,0,32,10.0,86.0
27475,45.0,0,32,12.0,86.0
27476,69.0,40,32,10.0,86.0
27477,57.0,0,32,11.0,86.0
27478,81.0,0,32,8.0,86.0
27479,45.0,0,32,12.0,86.0
27480,69.0,0,32,10.0,86.0
27481,81.0,0,32,8.0,86.0
27482,57.0,40,32,11.0,86.0
27483,74.0,0,120,5.0,91.0
27484,62.0,0,120,5.0,91.0
27485,89.0,0,384,0.0,73.0
27486,86.0,0,384,0.0,73.0
27487,62.0,0,384,4.0,91.0
27488,50.0,0,384,4.0,91.0
27489,74.0,0,384,1.0,73.0
27490,65.0,0,384,4.0,91.0
27491,65.0,0,384,2.0,73.0
27492,62.0,0,384,2.0,73.0
27493,77.0,0,384,1.0,73.0
27494,45.0,0,32,12.0,86.0
27495,81.0,0,32,8.0,86.0
27496,69.0,0,32,10.0,86.0
27497,57.0,40,32,11.0,86.0
27498,45.0,0,192,6.0,91.0
27499,45.0,0,32,12.0,86.0
27500,69.0,40,32,10.0,86.0
27501,57.0,0,32,11.0,86.0
27502,81.0,0,32,8.0,86.0
27503,69.0,40,32,10.0,86.0
27504,45.0,0,32,12.0,86.0
27505,81.0,0,32,8.0,86.0
27506,57.0,0,32,11.0,86.0
27507,33.0,0,240,13.0,61.0
27508,45.0,0,240,3.0,65.0
27509,58.0,0,32,11.0,86.0
27510,70.0,0,32,10.0,86.0
27511,46.0,40,32,12.0,86.0
27512,82.0,0,32,8.0,86.0
27513,82.0,0,32,8.0,86.0
27514,70.0,40,32,10.0,86.0
27515,46.0,0,32,12.0,86.0
27516,58.0,0,32,11.0,86.0
27517,82.0,0,32,8.0,86.0
27518,58.0,0,32,11.0,86.0
27519,70.0,40,32,10.0,86.0
27520,46.0,0,32,12.0,86.0
27521,70.0,0,32,10.0,86.0
27522,82.0,0,32,8.0,86.0
27523,46.0,0,32,12.0,86.0
27524,58.0,40,32,11.0,86.0
27525,58.0,40,32,11.0,86.0
27526,82.0,0,32,8.0,86.0
27527,70.0,0,32,10.0,86.0
27528,46.0,0,32,12.0,86.0
27529,70.0,40,32,10.0,86.0
27530,58.0,0,32,11.0,86.0
27531,82.0,0,32,8.0,86.0
27532,46.0,0,32,12.0,86.0
27533,34.0,0,240,13.0,61.0
27534,46.0,0,240,3.0,65.0
27535,45.0,0,32,12.0,86.0
27536,69.0,0,32,10.0,86.0
27537,81.0,0,32,8.0,86.0
27538,57.0,0,32,11.0,86.0
27539,57.0,0,32,11.0,86.0
27540,69.0,0,32,10.0,86.0
27541,81.0,40,32,8.0,86.0
27542,45.0,0,32,12.0,86.0
27543,57.0,0,32,11.0,86.0
27544,45.0,40,32,12.0,86.0
27545,81.0,0,32,8.0,86.0
27546,69.0,0,32,10.0,86.0
27547,74.0,0,120,5.0,91.0
27548,62.0,0,120,5.0,91.0
27549,57.0,0,32,11.0,86.0
27550,69.0,0,32,10.0,86.0
27551,81.0,40,32,8.0,86.0
27552,45.0,0,32,12.0,86.0
27553,45.0,0,32,12.0,86.0
27554,81.0,0,32,8.0,86.0
27555,69.0,0,32,10.0,86.0
27556,45.0,40,192,6.0,91.0
27557,57.0,40,32,11.0,86.0
27558,65.0,0,48,4.0,91.0
27559,86.0,0,48,0.0,73.0
27560,62.0,0,48,2.0,73.0
27561,89.0,0,48,0.0,73.0
27562,77.0,0,48,1.0,73.0
27563,74.0,20,48,1.0,73.0
27564,62.0,0,48,4.0,91.0
27565,65.0,0,48,2.0,73.0
27566,69.0,0,32,10.0,86.0
27567,45.0,0,32,12.0,86.0
27568,81.0,0,32,8.0,86.0
27569,57.0,20,32,11.0,86.0
27570,45.0,0,240,3.0,65.0
27571,33.0,0,240,13.0,61.0
27572,67.0,0,32,10.0,86.0
27573,55.0,0,32,11.0,86.0
27574,43.0,0,32,12.0,86.0
27575,79.0,0,32,8.0,86.0
27576,50.0,40,48,6.0,91.0
27577,43.0,40,32,12.0,86.0
27578,79.0,0,32,8.0,86.0
27579,55.0,0,32,11.0,86.0
27580,67.0,0,32,10.0,86.0
27581,50.0,20,48,6.0,91.0
27582,55.0,0,32,11.0,86.0
27583,43.0,0,32,12.0,86.0
27584,79.0,0,32,8.0,86.0
27585,67.0,20,32,10.0,86.0
27586,67.0,0,32,10.0,86.0
27587,79.0,0,32,8.0,86.0
27588,55.0,0,32,11.0,86.0
27589,43.0,40,32,12.0,86.0
27590,50.0,0,48,6.0,91.0
27591,79.0,0,32,8.0,86.0
27592,67.0,0,32,10.0,86.0
27593,55.0,0,32,11.0,86.0
27594,43.0,40,32,12.0,86.0
27595,86.0,0,226,0.0,73.0
27596,88.0,0,226,0.0,73.0
27597,62.0,0,226,2.0,73.0
27598,74.0,0,226,1.0,73.0
27599,76.0,0,226,1.0,73.0
27600,64.0,0,226,2.0,73.0
27601,50.0,20,48,6.0,91.0
27602,67.0,0,32,10.0,86.0
27603,55.0,20,32,11.0,86.0
27604,79.0,0,32,8.0,86.0
27605,43.0,0,32,12.0,86.0
27606,43.0,0,240,3.0,65.0
27607,31.0,0,240,13.0,61.0
27608,46.0,0,32,12.0,86.0
27609,70.0,0,32,10.0,86.0
27610,82.0,40,32,8.0,86.0
27611,58.0,0,32,11.0,86.0
27612,82.0,0,32,8.0,86.0
27613,58.0,0,32,11.0,86.0
27614,70.0,0,32,10.0,86.0
27615,46.0,40,32,12.0,86.0
27616,46.0,0,32,12.0,86.0
27617,58.0,0,32,11.0,86.0
27618,82.0,40,32,8.0,86.0
27619,70.0,0,32,10.0,86.0
27620,62.0,0,120,5.0,91.0
27621,74.0,0,120,5.0,91.0
27622,50.0,0,384,4.0,91.0
27623,62.0,0,384,4.0,91.0
27624,64.0,0,384,4.0,91.0
27625,82.0,0,32,8.0,86.0
27626,46.0,0,32,12.0,86.0
27627,70.0,0,32,10.0,86.0
27628,58.0,0,32,11.0,86.0
27629,70.0,0,32,10.0,86.0
27630,62.0,0,72,2.0,73.0
27631,64.0,0,72,2.0,73.0
27632,82.0,40,32,8.0,86.0
27633,58.0,0,32,11.0,86.0
27634,88.0,0,72,0.0,73.0
27635,86.0,40,72,0.0,73.0
27636,74.0,0,72,1.0,73.0
27637,76.0,0,72,1.0,73.0
27638,45.0,0,192,6.0,91.0
27639,46.0,0,32,12.0,86.0
27640,46.0,40,32,12.0,86.0
27641,82.0,0,32,8.0,86.0
27642,58.0,0,32,11.0,86.0
27643,70.0,0,32,10.0,86.0
27644,34.0,0,240,13.0,61.0
27645,46.0,0,240,3.0,65.0
27646,69.0,0,32,10.0,86.0
27647,81.0,0,32,8.0,86.0
27648,57.0,0,32,11.0,86.0
27649,45.0,0,32,12.0,86.0
27650,69.0,0,32,10.0,86.0
27651,81.0,40,32,8.0,86.0
27652,57.0,0,32,11.0,86.0
27653,45.0,0,32,12.0,86.0
27654,81.0,0,32,8.0,86.0
27655,57.0,0,32,11.0,86.0
27656,45.0,0,32,12.0,86.0
27657,69.0,40,32,10.0,86.0
27658,45.0,0,32,12.0,86.0
27659,57.0,0,32,11.0,86.0
27660,81.0,40,32,8.0,86.0
27661,69.0,0,32,10.0,86.0
27662,81.0,0,32,8.0,86.0
27663,45.0,0,32,12.0,86.0
27664,57.0,0,32,11.0,86.0
27665,69.0,40,32,10.0,86.0
27666,61.0,0,226,2.0,73.0
27667,64.0,40,226,2.0,73.0
27668,85.0,0,226,0.0,73.0
27669,88.0,0,226,0.0,73.0
27670,76.0,0,226,1.0,73.0
27671,73.0,0,226,1.0,73.0
27672,69.0,40,32,10.0,86.0
27673,57.0,0,32,11.0,86.0
27674,45.0,0,32,12.0,86.0
27675,81.0,0,32,8.0,86.0
27676,45.0,0,240,3.0,65.0
27677,33.0,0,240,13.0,61.0
27678,49.0,0,32,12.0,86.0
27679,85.0,0,32,8.0,86.0
27680,61.0,0,32,11.0,86.0
27681,73.0,0,32,10.0,86.0
27682,85.0,0,32,8.0,86.0
27683,49.0,0,32,12.0,86.0
27684,73.0,0,32,10.0,86.0
27685,61.0,40,32,11.0,86.0
27686,85.0,40,32,8.0,86.0
27687,61.0,0,32,11.0,86.0
27688,73.0,0,32,10.0,86.0
27689,49.0,0,32,12.0,86.0
27690,69.0,0,120,5.0,91.0
27691,57.0,0,120,5.0,91.0
27692,73.0,40,32,10.0,86.0
27693,49.0,0,32,12.0,86.0
27694,61.0,0,32,11.0,86.0
27695,85.0,0,32,8.0,86.0
27696,73.0,40,32,10.0,86.0
27697,64.0,0,72,2.0,73.0
27698,69.0,0,72,2.0,73.0
27699,81.0,0,72,1.0,73.0
27700,76.0,0,72,1.0,73.0
27701,49.0,0,32,12.0,86.0
27702,45.0,0,192,6.0,91.0
27703,88.0,0,72,0.0,73.0
27704,93.0,0,72,0.0,73.0
27705,85.0,0,32,8.0,86.0
27706,61.0,0,32,11.0,86.0
27707,61.0,0,32,11.0,86.0
27708,73.0,40,32,10.0,86.0
27709,85.0,0,32,8.0,86.0
27710,49.0,0,32,12.0,86.0
27711,37.0,40,240,13.0,61.0
27712,49.0,0,240,3.0,65.0
27713,60.0,0,32,12.0,114.0
27714,72.0,0,32,10.0,114.0
27715,84.0,0,32,8.0,114.0
27716,50.0,0,48,6.0,114.0
27717,60.0,40,32,12.0,114.0
27718,84.0,0,32,8.0,114.0
27719,72.0,0,32,10.0,114.0
27720,50.0,20,48,6.0,114.0
27721,60.0,0,32,12.0,114.0
27722,84.0,20,32,8.0,114.0
27723,72.0,0,32,10.0,114.0
27724,48.0,0,120,13.0,114.0
27725,84.0,40,32,8.0,114.0
27726,60.0,0,32,12.0,114.0
27727,72.0,0,32,10.0,114.0
27728,50.0,0,48,6.0,114.0
27729,72.0,40,32,10.0,114.0
27730,60.0,0,32,12.0,114.0
27731,84.0,0,32,8.0,114.0
27732,50.0,20,48,6.0,114.0
27733,60.0,0,32,12.0,114.0
27734,84.0,0,32,8.0,114.0
27735,72.0,20,32,10.0,114.0
27736,48.0,0,32,12.0,94.0
27737,72.0,0,32,8.0,94.0
27738,60.0,0,32,10.0,94.0
27739,50.0,0,48,6.0,114.0
27740,72.0,40,32,8.0,94.0
27741,60.0,0,32,10.0,94.0
27742,48.0,0,32,12.0,94.0
27743,50.0,20,48,6.0,114.0
27744,72.0,0,32,8.0,94.0
27745,60.0,0,32,10.0,94.0
27746,48.0,20,32,12.0,94.0
27747,36.0,40,120,13.0,94.0
27748,48.0,0,32,12.0,94.0
27749,60.0,0,32,10.0,94.0
27750,72.0,40,32,8.0,94.0
27751,50.0,0,48,6.0,114.0
27752,48.0,40,32,12.0,94.0
27753,60.0,0,32,10.0,94.0
27754,72.0,0,32,8.0,94.0
27755,50.0,20,48,6.0,114.0
27756,60.0,20,32,10.0,94.0
27757,72.0,0,32,8.0,94.0
27758,48.0,0,32,12.0,94.0
27759,38.0,40,32,12.0,94.0
27760,50.0,0,32,10.0,94.0
27761,62.0,0,32,8.0,94.0
27762,50.0,0,32,10.0,94.0
27763,38.0,40,32,12.0,94.0
27764,62.0,0,32,8.0,94.0
27765,50.0,0,32,10.0,94.0
27766,38.0,40,32,12.0,94.0
27767,62.0,0,32,8.0,94.0
27768,26.0,0,120,13.0,94.0
27769,62.0,0,32,8.0,94.0
27770,38.0,40,32,12.0,94.0
27771,50.0,0,32,10.0,94.0
27772,50.0,40,32,10.0,94.0
27773,62.0,0,32,8.0,94.0
27774,38.0,0,32,12.0,94.0
27775,50.0,0,32,10.0,94.0
27776,62.0,40,32,8.0,94.0
27777,38.0,0,32,12.0,94.0
27778,72.0,0,32,10.0,94.0
27779,60.0,0,32,12.0,94.0
27780,84.0,0,32,8.0,94.0
27781,72.0,0,32,10.0,94.0
27782,60.0,0,32,12.0,94.0
27783,84.0,40,32,8.0,94.0
27784,69.0,0,816,1.0,101.0
27785,66.0,0,816,3.0,70.0
27786,57.0,0,816,3.0,70.0
27787,57.0,0,816,2.0,70.0
27788,66.0,0,816,2.0,70.0
27789,50.0,0,816,4.0,101.0
27790,78.0,0,816,1.0,101.0
27791,62.0,0,816,4.0,101.0
27792,81.0,40,816,0.0,70.0
27793,90.0,0,816,0.0,70.0
27794,74.0,0,816,5.0,101.0
27795,62.0,0,816,5.0,101.0
27796,84.0,0,32,8.0,94.0
27797,72.0,40,32,10.0,94.0
27798,60.0,0,32,12.0,94.0
27799,48.0,40,120,13.0,94.0
27800,50.0,0,384,6.0,114.0
27801,84.0,0,32,8.0,94.0
27802,72.0,0,32,10.0,94.0
27803,60.0,40,32,12.0,94.0
27804,84.0,0,32,8.0,94.0
27805,60.0,0,32,12.0,94.0
27806,72.0,40,32,10.0,94.0
27807,62.0,0,48,5.0,101.0
27808,74.0,0,48,5.0,101.0
27809,81.0,0,48,0.0,70.0
27810,90.0,0,48,0.0,70.0
27811,57.0,0,48,3.0,70.0
27812,62.0,0,48,4.0,101.0
27813,50.0,20,48,4.0,101.0
27814,57.0,0,48,2.0,70.0
27815,78.0,0,48,1.0,101.0
27816,66.0,0,48,2.0,70.0
27817,69.0,0,48,1.0,101.0
27818,66.0,0,48,3.0,70.0
27819,60.0,0,32,12.0,94.0
27820,72.0,20,32,10.0,94.0
27821,84.0,0,32,8.0,94.0
27822,60.0,40,32,12.0,114.0
27823,84.0,0,32,8.0,114.0
27824,72.0,0,32,10.0,114.0
27825,50.0,0,48,6.0,114.0
27826,60.0,0,32,12.0,114.0
27827,84.0,40,32,8.0,114.0
27828,72.0,0,32,10.0,114.0
27829,50.0,20,48,6.0,114.0
27830,60.0,20,32,12.0,114.0
27831,84.0,0,32,8.0,114.0
27832,72.0,0,32,10.0,114.0
27833,48.0,0,120,13.0,114.0
27834,60.0,40,32,12.0,114.0
27835,72.0,0,32,10.0,114.0
27836,84.0,0,32,8.0,114.0
27837,50.0,0,48,6.0,114.0
27838,72.0,0,32,10.0,114.0
27839,60.0,40,32,12.0,114.0
27840,84.0,0,32,8.0,114.0
27841,50.0,20,48,6.0,114.0
27842,84.0,0,32,8.0,114.0
27843,60.0,20,32,12.0,114.0
27844,72.0,0,32,10.0,114.0
27845,72.0,40,32,8.0,94.0
27846,60.0,0,32,10.0,94.0
27847,48.0,0,32,12.0,94.0
27848,50.0,0,48,6.0,114.0
27849,48.0,0,32,12.0,94.0
27850,60.0,40,32,10.0,94.0
27851,72.0,0,32,8.0,94.0
27852,50.0,20,48,6.0,114.0
27853,48.0,0,32,12.0,94.0
27854,72.0,0,32,8.0,94.0
27855,60.0,20,32,10.0,94.0
27856,36.0,0,120,13.0,94.0
27857,60.0,0,32,10.0,94.0
27858,72.0,0,32,8.0,94.0
27859,48.0,40,32,12.0,94.0
27860,50.0,0,48,6.0,114.0
27861,48.0,0,32,12.0,94.0
27862,60.0,0,32,10.0,94.0
27863,72.0,40,32,8.0,94.0
27864,50.0,20,48,6.0,114.0
27865,60.0,0,32,10.0,94.0
27866,72.0,0,32,8.0,94.0
27867,48.0,20,32,12.0,94.0
27868,38.0,0,32,12.0,94.0
27869,62.0,0,32,8.0,94.0
27870,50.0,0,32,10.0,94.0
27871,38.0,0,32,12.0,94.0
27872,50.0,0,32,10.0,94.0
27873,62.0,40,32,8.0,94.0
27874,38.0,0,32,12.0,94.0
27875,50.0,0,32,10.0,94.0
27876,62.0,40,32,8.0,94.0
27877,26.0,0,120,13.0,94.0
27878,38.0,40,32,12.0,94.0
27879,62.0,0,32,8.0,94.0
27880,50.0,0,32,10.0,94.0
27881,62.0,0,32,8.0,94.0
27882,38.0,40,32,12.0,94.0
27883,50.0,0,32,10.0,94.0
27884,62.0,0,32,8.0,94.0
27885,38.0,40,32,12.0,94.0
27886,50.0,0,32,10.0,94.0
27887,60.0,0,32,12.0,94.0
27888,72.0,0,32,10.0,94.0
27889,84.0,0,32,8.0,94.0
27890,84.0,0,32,8.0,94.0
27891,72.0,0,32,10.0,94.0
27892,60.0,40,32,12.0,94.0
27893,62.0,0,816,5.0,101.0
27894,66.0,0,816,3.0,70.0
27895,57.0,0,816,3.0,70.0
27896,50.0,0,816,4.0,101.0
27897,69.0,0,816,1.0,101.0
27898,78.0,0,816,1.0,101.0
27899,57.0,0,816,2.0,70.0
27900,90.0,0,816,0.0,70.0
27901,81.0,0,816,0.0,70.0
27902,66.0,0,816,2.0,70.0
27903,62.0,0,816,4.0,101.0
27904,74.0,0,816,5.0,101.0
27905,60.0,0,32,12.0,94.0
27906,84.0,40,32,8.0,94.0
27907,72.0,0,32,10.0,94.0
27908,48.0,40,120,13.0,94.0
27909,50.0,40,384,6.0,114.0
27910,84.0,40,32,8.0,94.0
27911,60.0,0,32,12.0,94.0
27912,72.0,0,32,10.0,94.0
27913,72.0,0,32,10.0,94.0
27914,60.0,0,32,12.0,94.0
27915,84.0,40,32,8.0,94.0
27916,90.0,0,48,0.0,70.0
27917,74.0,0,48,5.0,101.0
27918,62.0,0,48,5.0,101.0
27919,50.0,0,48,4.0,101.0
27920,62.0,0,48,4.0,101.0
27921,57.0,0,48,2.0,70.0
27922,69.0,0,48,1.0,101.0
27923,66.0,20,48,2.0,70.0
27924,57.0,0,48,3.0,70.0
27925,66.0,0,48,3.0,70.0
27926,78.0,0,48,1.0,101.0
27927,81.0,0,48,0.0,70.0
27928,72.0,0,32,10.0,94.0
27929,60.0,20,32,12.0,94.0
27930,84.0,0,32,8.0,94.0
27931,83.0,0,32,8.0,114.0
27932,59.0,0,32,12.0,114.0
27933,71.0,0,32,10.0,114.0
27934,50.0,0,48,6.0,114.0
27935,83.0,40,32,8.0,114.0
27936,71.0,0,32,10.0,114.0
27937,59.0,0,32,12.0,114.0
27938,50.0,20,48,6.0,114.0
27939,59.0,0,32,12.0,114.0
27940,71.0,0,32,10.0,114.0
27941,83.0,20,32,8.0,114.0
27942,47.0,0,120,13.0,114.0
27943,71.0,0,32,10.0,114.0
27944,83.0,0,32,8.0,114.0
27945,59.0,0,32,12.0,114.0
27946,50.0,40,48,6.0,114.0
27947,59.0,0,32,12.0,114.0
27948,83.0,40,32,8.0,114.0
27949,71.0,0,32,10.0,114.0
27950,50.0,20,48,6.0,114.0
27951,71.0,0,32,10.0,114.0
27952,83.0,0,32,8.0,114.0
27953,59.0,20,32,12.0,114.0
27954,71.0,0,32,8.0,94.0
27955,59.0,40,32,10.0,94.0
27956,47.0,0,32,12.0,94.0
27957,50.0,0,48,6.0,114.0
27958,59.0,0,32,10.0,94.0
27959,71.0,40,32,8.0,94.0
27960,47.0,0,32,12.0,94.0
27961,50.0,20,48,6.0,114.0
27962,47.0,20,32,12.0,94.0
27963,71.0,0,32,8.0,94.0
27964,59.0,0,32,10.0,94.0
27965,35.0,0,120,13.0,94.0
27966,71.0,0,32,8.0,94.0
27967,59.0,40,32,10.0,94.0
27968,47.0,0,32,12.0,94.0
27969,50.0,0,48,6.0,114.0
27970,71.0,40,32,8.0,94.0
27971,59.0,0,32,10.0,94.0
27972,47.0,0,32,12.0,94.0
27973,50.0,20,48,6.0,114.0
27974,47.0,0,32,12.0,94.0
27975,59.0,20,32,10.0,94.0
27976,71.0,0,32,8.0,94.0
27977,38.0,40,32,12.0,94.0
27978,62.0,0,32,8.0,94.0
27979,50.0,0,32,10.0,94.0
27980,38.0,40,32,12.0,94.0
27981,62.0,0,32,8.0,94.0
27982,50.0,0,32,10.0,94.0
27983,38.0,0,32,12.0,94.0
27984,50.0,40,32,10.0,94.0
27985,62.0,0,32,8.0,94.0
27986,26.0,0,120,13.0,94.0
27987,50.0,40,32,10.0,94.0
27988,38.0,0,32,12.0,94.0
27989,62.0,0,32,8.0,94.0
27990,62.0,0,32,8.0,94.0
27991,38.0,0,32,12.0,94.0
27992,50.0,40,32,10.0,94.0
27993,62.0,0,32,8.0,94.0
27994,38.0,0,32,12.0,94.0
27995,50.0,40,32,10.0,94.0
27996,59.0,0,32,12.0,94.0
27997,71.0,0,32,10.0,94.0
27998,83.0,0,32,8.0,94.0
27999,59.0,40,32,12.0,94.0
28000,83.0,0,32,8.0,94.0
28001,71.0,0,32,10.0,94.0
28002,77.0,0,816,1.0,101.0
28003,65.0,0,816,3.0,70.0
28004,65.0,40,816,2.0,70.0
28005,80.0,0,816,1.0,101.0
28006,65.0,0,816,4.0,101.0
28007,62.0,0,816,5.0,101.0
28008,74.0,0,816,5.0,101.0
28009,92.0,0,816,0.0,70.0
28010,68.0,0,816,3.0,70.0
28011,89.0,0,816,0.0,70.0
28012,68.0,0,816,2.0,70.0
28013,71.0,40,32,10.0,94.0
28014,83.0,0,32,8.0,94.0
28015,59.0,0,32,12.0,94.0
28016,47.0,40,120,13.0,94.0
28017,50.0,0,384,6.0,114.0
28018,71.0,0,32,10.0,94.0
28019,83.0,40,32,8.0,94.0
28020,59.0,0,32,12.0,94.0
28021,83.0,0,32,8.0,94.0
28022,71.0,40,32,10.0,94.0
28023,59.0,0,32,12.0,94.0
28024,68.0,0,48,2.0,70.0
28025,65.0,0,48,3.0,70.0
28026,68.0,0,48,3.0,70.0
28027,77.0,0,48,1.0,101.0
28028,80.0,0,48,1.0,101.0
28029,65.0,0,48,2.0,70.0
28030,65.0,0,48,4.0,101.0
28031,62.0,0,48,5.0,101.0
28032,74.0,0,48,5.0,101.0
28033,92.0,0,48,0.0,70.0
28034,89.0,20,48,0.0,70.0
28035,83.0,20,32,8.0,94.0
28036,59.0,0,32,12.0,94.0
28037,71.0,0,32,10.0,94.0
28038,85.0,0,32,8.0,114.0
28039,61.0,40,32,12.0,114.0
28040,73.0,0,32,10.0,114.0
28041,45.0,0,48,6.0,114.0
28042,61.0,40,32,12.0,114.0
28043,73.0,0,32,10.0,114.0
28044,85.0,0,32,8.0,114.0
28045,45.0,20,48,6.0,114.0
28046,85.0,0,32,8.0,114.0
28047,61.0,20,32,12.0,114.0
28048,73.0,0,32,10.0,114.0
28049,49.0,0,120,13.0,114.0
28050,85.0,40,32,8.0,114.0
28051,73.0,0,32,10.0,114.0
28052,61.0,0,32,12.0,114.0
28053,45.0,0,48,6.0,114.0
28054,85.0,40,32,8.0,114.0
28055,73.0,0,32,10.0,114.0
28056,61.0,0,32,12.0,114.0
28057,45.0,20,48,6.0,114.0
28058,85.0,0,32,8.0,114.0
28059,61.0,20,32,12.0,114.0
28060,73.0,0,32,10.0,114.0
28061,73.0,40,32,8.0,94.0
28062,61.0,0,32,10.0,94.0
28063,49.0,0,32,12.0,94.0
28064,45.0,0,48,6.0,114.0
28065,61.0,0,32,10.0,94.0
28066,73.0,0,32,8.0,94.0
28067,49.0,40,32,12.0,94.0
28068,45.0,20,48,6.0,114.0
28069,49.0,0,32,12.0,94.0
28070,73.0,20,32,8.0,94.0
28071,61.0,0,32,10.0,94.0
28072,37.0,0,120,13.0,94.0
28073,61.0,0,32,10.0,94.0
28074,49.0,0,32,12.0,94.0
28075,73.0,0,32,8.0,94.0
28076,45.0,40,48,6.0,114.0
28077,73.0,40,32,8.0,94.0
28078,61.0,0,32,10.0,94.0
28079,49.0,0,32,12.0,94.0
28080,45.0,20,48,6.0,114.0
28081,49.0,20,32,12.0,94.0
28082,73.0,0,32,8.0,94.0
28083,61.0,0,32,10.0,94.0
28084,50.0,0,32,10.0,94.0
28085,38.0,0,32,12.0,94.0
28086,62.0,0,32,8.0,94.0
28087,38.0,40,32,12.0,94.0
28088,50.0,0,32,10.0,94.0
28089,62.0,0,32,8.0,94.0
28090,62.0,40,32,8.0,94.0
28091,38.0,0,32,12.0,94.0
28092,50.0,0,32,10.0,94.0
28093,26.0,40,120,13.0,94.0
28094,38.0,0,32,12.0,94.0
28095,50.0,0,32,10.0,94.0
28096,62.0,40,32,8.0,94.0
28097,50.0,0,32,10.0,94.0
28098,62.0,0,32,8.0,94.0
28099,38.0,40,32,12.0,94.0
28100,38.0,0,32,12.0,94.0
28101,62.0,0,32,8.0,94.0
28102,50.0,40,32,10.0,94.0
28103,73.0,0,32,10.0,94.0
28104,85.0,0,32,8.0,94.0
28105,61.0,40,32,12.0,94.0
28106,73.0,40,32,10.0,94.0
28107,85.0,0,32,8.0,94.0
28108,61.0,0,32,12.0,94.0
28109,93.0,0,816,0.0,70.0
28110,76.0,0,816,1.0,101.0
28111,57.0,0,816,5.0,101.0
28112,69.0,0,816,5.0,101.0
28113,64.0,0,816,3.0,70.0
28114,69.0,0,816,3.0,70.0
28115,64.0,0,816,4.0,101.0
28116,88.0,0,816,0.0,70.0
28117,81.0,0,816,1.0,101.0
28118,69.0,0,816,2.0,70.0
28119,64.0,0,816,2.0,70.0
28120,85.0,0,32,8.0,94.0
28121,73.0,40,32,10.0,94.0
28122,61.0,0,32,12.0,94.0
28123,49.0,0,120,13.0,94.0
28124,45.0,0,384,6.0,114.0
28125,61.0,0,32,12.0,94.0
28126,73.0,0,32,10.0,94.0
28127,85.0,40,32,8.0,94.0
28128,85.0,0,32,8.0,94.0
28129,61.0,0,32,12.0,94.0
28130,73.0,40,32,10.0,94.0
28131,64.0,0,48,4.0,101.0
28132,81.0,0,48,1.0,101.0
28133,69.0,0,48,5.0,101.0
28134,64.0,0,48,2.0,70.0
28135,64.0,0,48,3.0,70.0
28136,69.0,0,48,3.0,70.0
28137,76.0,0,48,1.0,101.0
28138,93.0,20,48,0.0,70.0
28139,88.0,0,48,0.0,70.0
28140,69.0,0,48,2.0,70.0
28141,57.0,0,48,5.0,101.0
28142,73.0,0,32,10.0,94.0
28143,61.0,20,32,12.0,94.0
28144,85.0,0,32,8.0,94.0
28145,72.0,0,32,10.0,114.0
28146,84.0,0,32,8.0,114.0
28147,60.0,0,32,12.0,114.0
28148,50.0,0,48,6.0,114.0
28149,60.0,0,32,12.0,114.0
28150,84.0,40,32,8.0,114.0
28151,72.0,0,32,10.0,114.0
28152,50.0,20,48,6.0,114.0
28153,72.0,0,32,10.0,114.0
28154,60.0,20,32,12.0,114.0
28155,84.0,0,32,8.0,114.0
28156,48.0,40,120,13.0,114.0
28157,60.0,0,32,12.0,114.0
28158,72.0,0,32,10.0,114.0
28159,84.0,0,32,8.0,114.0
28160,50.0,40,48,6.0,114.0
28161,60.0,40,32,12.0,114.0
28162,72.0,0,32,10.0,114.0
28163,84.0,0,32,8.0,114.0
28164,50.0,20,48,6.0,114.0
28165,60.0,20,32,12.0,114.0
28166,72.0,0,32,10.0,114.0
28167,84.0,0,32,8.0,114.0
28168,72.0,40,32,8.0,94.0
28169,48.0,0,32,12.0,94.0
28170,60.0,0,32,10.0,94.0
28171,50.0,0,48,6.0,114.0
28172,48.0,40,32,12.0,94.0
28173,72.0,0,32,8.0,94.0
28174,60.0,0,32,10.0,94.0
28175,50.0,20,48,6.0,114.0
28176,60.0,0,32,10.0,94.0
28177,72.0,20,32,8.0,94.0
28178,48.0,0,32,12.0,94.0
28179,36.0,0,120,13.0,94.0
28180,60.0,40,32,10.0,94.0
28181,72.0,0,32,8.0,94.0
28182,48.0,0,32,12.0,94.0
28183,50.0,0,48,6.0,114.0
28184,60.0,0,32,10.0,94.0
28185,72.0,0,32,8.0,94.0
28186,48.0,40,32,12.0,94.0
28187,50.0,20,48,6.0,114.0
28188,72.0,0,32,8.0,94.0
28189,48.0,0,32,12.0,94.0
28190,60.0,20,32,10.0,94.0
28191,62.0,0,32,8.0,94.0
28192,38.0,40,32,12.0,94.0
28193,50.0,0,32,10.0,94.0
28194,62.0,40,32,8.0,94.0
28195,38.0,0,32,12.0,94.0
28196,50.0,0,32,10.0,94.0
28197,50.0,0,32,10.0,94.0
28198,62.0,40,32,8.0,94.0
28199,38.0,0,32,12.0,94.0
28200,26.0,0,120,13.0,94.0
28201,62.0,40,32,8.0,94.0
28202,38.0,0,32,12.0,94.0
28203,50.0,0,32,10.0,94.0
28204,62.0,0,32,8.0,94.0
28205,38.0,0,32,12.0,94.0
28206,50.0,40,32,10.0,94.0
28207,50.0,40,32,10.0,94.0
28208,62.0,0,32,8.0,94.0
28209,38.0,0,32,12.0,94.0
28210,84.0,0,32,8.0,94.0
28211,72.0,0,32,10.0,94.0
28212,60.0,0,32,12.0,94.0
28213,72.0,0,32,10.0,94.0
28214,84.0,40,32,8.0,94.0
28215,60.0,0,32,12.0,94.0
28216,66.0,0,816,3.0,70.0
28217,62.0,0,816,4.0,101.0
28218,66.0,0,816,1.0,101.0
28219,54.0,0,816,3.0,70.0
28220,50.0,0,816,4.0,101.0
28221,62.0,0,816,5.0,101.0
28222,66.0,0,816,2.0,70.0
28223,54.0,0,816,2.0,70.0
28224,90.0,0,816,0.0,70.0
28225,78.0,0,816,1.0,101.0
28226,74.0,0,816,5.0,101.0
28227,78.0,0,816,0.0,70.0
28228,72.0,0,32,10.0,94.0
28229,60.0,0,32,12.0,94.0
28230,84.0,40,32,8.0,94.0
28231,48.0,40,120,13.0,94.0
28232,50.0,0,384,6.0,114.0
28233,72.0,40,32,10.0,94.0
28234,84.0,0,32,8.0,94.0
28235,60.0,0,32,12.0,94.0
28236,72.0,40,32,10.0,94.0
28237,84.0,0,32,8.0,94.0
28238,60.0,0,32,12.0,94.0
28239,74.0,0,48,5.0,101.0
28240,66.0,20,48,2.0,70.0
28241,54.0,0,48,2.0,70.0
28242,50.0,0,48,4.0,101.0
28243,66.0,0,48,3.0,70.0
28244,78.0,0,48,0.0,70.0
28245,54.0,0,48,3.0,70.0
28246,62.0,0,48,4.0,101.0
28247,66.0,0,48,1.0,101.0
28248,78.0,0,48,1.0,101.0
28249,90.0,0,48,0.0,70.0
28250,62.0,0,48,5.0,101.0
28251,60.0,0,32,12.0,94.0
28252,84.0,0,32,8.0,94.0
28253,72.0,20,32,10.0,94.0
28254,72.0,0,32,10.0,114.0
28255,84.0,40,32,8.0,114.0
28256,60.0,0,32,12.0,114.0
28257,50.0,0,48,6.0,114.0
28258,72.0,0,32,10.0,114.0
28259,84.0,40,32,8.0,114.0
28260,60.0,0,32,12.0,114.0
28261,50.0,20,48,6.0,114.0
28262,72.0,20,32,10.0,114.0
28263,84.0,0,32,8.0,114.0
28264,60.0,0,32,12.0,114.0
28265,48.0,0,120,13.0,114.0
28266,72.0,0,32,10.0,114.0
28267,84.0,0,32,8.0,114.0
28268,60.0,40,32,12.0,114.0
28269,50.0,0,48,6.0,114.0
28270,60.0,40,32,12.0,114.0
28271,72.0,0,32,10.0,114.0
28272,84.0,0,32,8.0,114.0
28273,50.0,20,48,6.0,114.0
28274,72.0,0,32,10.0,114.0
28275,60.0,20,32,12.0,114.0
28276,84.0,0,32,8.0,114.0
28277,72.0,0,32,8.0,94.0
28278,60.0,40,32,10.0,94.0
28279,48.0,0,32,12.0,94.0
28280,50.0,0,48,6.0,114.0
28281,48.0,0,32,12.0,94.0
28282,72.0,0,32,8.0,94.0
28283,60.0,40,32,10.0,94.0
28284,50.0,20,48,6.0,114.0
28285,48.0,0,32,12.0,94.0
28286,72.0,20,32,8.0,94.0
28287,60.0,0,32,10.0,94.0
28288,36.0,0,120,13.0,94.0
28289,60.0,0,32,10.0,94.0
28290,48.0,40,32,12.0,94.0
28291,72.0,0,32,8.0,94.0
28292,50.0,0,48,6.0,114.0
28293,72.0,0,32,8.0,94.0
28294,48.0,40,32,12.0,94.0
28295,60.0,0,32,10.0,94.0
28296,50.0,20,48,6.0,114.0
28297,60.0,20,32,10.0,94.0
28298,48.0,0,32,12.0,94.0
28299,72.0,0,32,8.0,94.0
28300,38.0,0,32,12.0,94.0
28301,50.0,0,32,10.0,94.0
28302,62.0,0,32,8.0,94.0
28303,62.0,40,32,8.0,94.0
28304,50.0,0,32,10.0,94.0
28305,38.0,0,32,12.0,94.0
28306,50.0,0,32,10.0,94.0
28307,62.0,40,32,8.0,94.0
28308,38.0,0,32,12.0,94.0
28309,26.0,40,120,13.0,94.0
28310,38.0,0,32,12.0,94.0
28311,62.0,40,32,8.0,94.0
28312,50.0,0,32,10.0,94.0
28313,50.0,40,32,10.0,94.0
28314,38.0,0,32,12.0,94.0
28315,62.0,0,32,8.0,94.0
28316,62.0,0,32,8.0,94.0
28317,50.0,0,32,10.0,94.0
28318,38.0,40,32,12.0,94.0
28319,84.0,40,32,8.0,94.0
28320,60.0,0,32,12.0,94.0
28321,72.0,0,32,10.0,94.0
28322,84.0,0,32,8.0,94.0
28323,60.0,0,32,12.0,94.0
28324,72.0,40,32,10.0,94.0
28325,66.0,0,816,3.0,70.0
28326,74.0,0,816,5.0,101.0
28327,66.0,0,816,2.0,70.0
28328,90.0,0,816,0.0,70.0
28329,54.0,0,816,2.0,70.0
28330,78.0,0,816,1.0,101.0
28331,62.0,0,816,5.0,101.0
28332,78.0,0,816,0.0,70.0
28333,62.0,0,816,4.0,101.0
28334,50.0,0,816,4.0,101.0
28335,54.0,0,816,3.0,70.0
28336,66.0,0,816,1.0,101.0
28337,60.0,40,32,12.0,94.0
28338,72.0,0,32,10.0,94.0
28339,84.0,0,32,8.0,94.0
28340,48.0,0,120,13.0,94.0
28341,50.0,0,384,6.0,114.0
28342,72.0,0,32,10.0,94.0
28343,60.0,40,32,12.0,94.0
28344,84.0,0,32,8.0,94.0
28345,60.0,0,32,12.0,94.0
28346,72.0,40,32,10.0,94.0
28347,84.0,0,32,8.0,94.0
28348,54.0,0,48,2.0,70.0
28349,62.0,0,48,4.0,101.0
28350,50.0,0,48,4.0,101.0
28351,66.0,0,48,2.0,70.0
28352,78.0,0,48,1.0,101.0
28353,66.0,0,48,1.0,101.0
28354,62.0,0,48,5.0,101.0
28355,74.0,0,48,5.0,101.0
28356,54.0,0,48,3.0,70.0
28357,66.0,0,48,3.0,70.0
28358,78.0,0,48,0.0,70.0
28359,90.0,20,48,0.0,70.0
28360,60.0,0,32,12.0,94.0
28361,72.0,0,32,10.0,94.0
28362,84.0,20,32,8.0,94.0
28363,83.0,0,32,8.0,114.0
28364,71.0,0,32,10.0,114.0
28365,59.0,0,32,12.0,114.0
28366,50.0,0,48,6.0,114.0
28367,59.0,0,32,12.0,114.0
28368,71.0,40,32,10.0,114.0
28369,83.0,0,32,8.0,114.0
28370,50.0,20,48,6.0,114.0
28371,71.0,20,32,10.0,114.0
28372,83.0,0,32,8.0,114.0
28373,59.0,0,32,12.0,114.0
28374,47.0,0,120,13.0,114.0
28375,71.0,40,32,10.0,114.0
28376,83.0,0,32,8.0,114.0
28377,59.0,0,32,12.0,114.0
28378,50.0,0,48,6.0,114.0
28379,71.0,40,32,10.0,114.0
28380,83.0,0,32,8.0,114.0
28381,59.0,0,32,12.0,114.0
28382,50.0,20,48,6.0,114.0
28383,83.0,0,32,8.0,114.0
28384,71.0,20,32,10.0,114.0
28385,59.0,0,32,12.0,114.0
28386,71.0,0,32,8.0,94.0
28387,59.0,0,32,10.0,94.0
28388,47.0,0,32,12.0,94.0
28389,50.0,0,48,6.0,114.0
28390,47.0,40,32,12.0,94.0
28391,71.0,0,32,8.0,94.0
28392,59.0,0,32,10.0,94.0
28393,50.0,20,48,6.0,114.0
28394,71.0,20,32,8.0,94.0
28395,59.0,0,32,10.0,94.0
28396,47.0,0,32,12.0,94.0
28397,35.0,40,120,13.0,94.0
28398,47.0,40,32,12.0,94.0
28399,59.0,0,32,10.0,94.0
28400,71.0,0,32,8.0,94.0
28401,50.0,0,48,6.0,114.0
28402,71.0,0,32,8.0,94.0
28403,47.0,0,32,12.0,94.0
28404,59.0,40,32,10.0,94.0
28405,50.0,20,48,6.0,114.0
28406,47.0,20,32,12.0,94.0
28407,59.0,0,32,10.0,94.0
28408,71.0,0,32,8.0,94.0
28409,50.0,0,32,10.0,94.0
28410,38.0,0,32,12.0,94.0
28411,62.0,0,32,8.0,94.0
28412,38.0,40,32,12.0,94.0
28413,50.0,0,32,10.0,94.0
28414,62.0,0,32,8.0,94.0
28415,38.0,40,32,12.0,94.0
28416,50.0,0,32,10.0,94.0
28417,62.0,0,32,8.0,94.0
28418,26.0,0,120,13.0,94.0
28419,62.0,0,32,8.0,94.0
28420,50.0,40,32,10.0,94.0
28421,38.0,0,32,12.0,94.0
28422,50.0,0,32,10.0,94.0
28423,62.0,0,32,8.0,94.0
28424,38.0,40,32,12.0,94.0
28425,62.0,40,32,8.0,94.0
28426,50.0,0,32,10.0,94.0
28427,38.0,0,32,12.0,94.0
28428,71.0,0,32,10.0,94.0
28429,59.0,0,32,12.0,94.0
28430,83.0,0,32,8.0,94.0
28431,71.0,40,32,10.0,94.0
28432,59.0,0,32,12.0,94.0
28433,83.0,0,32,8.0,94.0
28434,68.0,0,816,1.0,101.0
28435,92.0,0,816,0.0,70.0
28436,80.0,0,816,1.0,101.0
28437,62.0,0,816,5.0,101.0
28438,56.0,0,816,3.0,70.0
28439,56.0,0,816,2.0,70.0
28440,68.0,0,816,3.0,70.0
28441,62.0,0,816,4.0,101.0
28442,50.0,0,816,4.0,101.0
28443,74.0,40,816,5.0,101.0
28444,80.0,0,816,0.0,70.0
28445,68.0,0,816,2.0,70.0
28446,65.0,0,816,4.0,101.0
28447,53.0,0,816,4.0,101.0
28448,59.0,0,32,12.0,94.0
28449,83.0,40,32,8.0,94.0
28450,71.0,0,32,10.0,94.0
28451,47.0,40,120,13.0,94.0
28452,50.0,40,384,6.0,114.0
28453,59.0,40,32,12.0,94.0
28454,83.0,0,32,8.0,94.0
28455,71.0,0,32,10.0,94.0
28456,83.0,0,32,8.0,94.0
28457,71.0,0,32,10.0,94.0
28458,59.0,40,32,12.0,94.0
28459,92.0,0,48,0.0,70.0
28460,56.0,0,48,2.0,70.0
28461,62.0,0,48,4.0,101.0
28462,68.0,0,48,1.0,101.0
28463,53.0,0,48,4.0,101.0
28464,65.0,0,48,4.0,101.0
28465,50.0,0,48,4.0,101.0
28466,68.0,20,48,2.0,70.0
28467,62.0,0,48,5.0,101.0
28468,74.0,0,48,5.0,101.0
28469,68.0,0,48,3.0,70.0
28470,56.0,0,48,3.0,70.0
28471,80.0,0,48,1.0,101.0
28472,80.0,0,48,0.0,70.0
28473,83.0,0,32,8.0,94.0
28474,59.0,0,32,12.0,94.0
28475,71.0,20,32,10.0,94.0
28476,85.0,0,32,8.0,114.0
28477,61.0,0,32,12.0,114.0
28478,73.0,0,32,10.0,114.0
28479,45.0,40,48,6.0,114.0
28480,85.0,0,32,8.0,114.0
28481,61.0,0,32,12.0,114.0
28482,73.0,40,32,10.0,114.0
28483,45.0,20,48,6.0,114.0
28484,61.0,0,32,12.0,114.0
28485,85.0,0,32,8.0,114.0
28486,73.0,20,32,10.0,114.0
28487,49.0,0,120,13.0,114.0
28488,61.0,0,32,12.0,114.0
28489,73.0,40,32,10.0,114.0
28490,85.0,0,32,8.0,114.0
28491,45.0,0,48,6.0,114.0
28492,73.0,40,32,10.0,114.0
28493,61.0,0,32,12.0,114.0
28494,85.0,0,32,8.0,114.0
28495,45.0,20,48,6.0,114.0
28496,61.0,0,32,12.0,114.0
28497,85.0,20,32,8.0,114.0
28498,73.0,0,32,10.0,114.0
28499,49.0,40,32,12.0,94.0
28500,61.0,0,32,10.0,94.0
28501,73.0,0,32,8.0,94.0
28502,45.0,0,48,6.0,114.0
28503,73.0,0,32,8.0,94.0
28504,61.0,0,32,10.0,94.0
28505,49.0,40,32,12.0,94.0
28506,45.0,20,48,6.0,114.0
28507,49.0,0,32,12.0,94.0
28508,61.0,0,32,10.0,94.0
28509,73.0,20,32,8.0,94.0
28510,37.0,0,120,13.0,94.0
28511,49.0,0,32,12.0,94.0
28512,61.0,40,32,10.0,94.0
28513,73.0,0,32,8.0,94.0
28514,45.0,0,48,6.0,114.0
28515,73.0,0,32,8.0,94.0
28516,49.0,40,32,12.0,94.0
28517,61.0,0,32,10.0,94.0
28518,45.0,20,48,6.0,114.0
28519,49.0,0,32,12.0,94.0
28520,61.0,0,32,10.0,94.0
28521,73.0,20,32,8.0,94.0
28522,62.0,0,32,8.0,94.0
28523,38.0,0,32,12.0,94.0
28524,50.0,40,32,10.0,94.0
28525,38.0,0,32,12.0,94.0
28526,50.0,40,32,10.0,94.0
28527,62.0,0,32,8.0,94.0
28528,38.0,0,32,12.0,94.0
28529,50.0,40,32,10.0,94.0
28530,62.0,0,32,8.0,94.0
28531,26.0,0,120,13.0,94.0
28532,62.0,0,32,8.0,94.0
28533,38.0,40,32,12.0,94.0
28534,50.0,0,32,10.0,94.0
28535,62.0,40,32,8.0,94.0
28536,50.0,0,32,10.0,94.0
28537,38.0,0,32,12.0,94.0
28538,45.0,0,226,6.0,114.0
28539,50.0,0,32,10.0,94.0
28540,62.0,0,32,8.0,94.0
28541,38.0,40,32,12.0,94.0
28542,74.0,0,32,8.0,94.0
28543,62.0,40,32,10.0,94.0
28544,62.0,0,32,12.0,94.0
28545,74.0,40,32,8.0,94.0
28546,62.0,0,32,12.0,94.0
28547,62.0,0,32,10.0,94.0
28548,57.0,0,804,4.0,101.0
28549,69.0,0,816,4.0,101.0
28550,57.0,0,816,3.0,70.0
28551,69.0,0,816,5.0,101.0
28552,57.0,0,816,5.0,101.0
28553,69.0,0,816,3.0,70.0
28554,93.0,0,816,0.0,70.0
28555,69.0,0,816,1.0,101.0
28556,81.0,0,816,1.0,101.0
28557,81.0,0,816,0.0,70.0
28558,69.0,0,816,2.0,70.0
28559,57.0,0,816,2.0,70.0
28560,62.0,0,32,12.0,94.0
28561,74.0,40,32,8.0,94.0
28562,62.0,0,32,10.0,94.0
28563,50.0,0,120,13.0,94.0
28564,62.0,0,32,10.0,94.0
28565,62.0,40,32,12.0,94.0
28566,62.0,0,32,12.0,94.0
28567,62.0,40,32,10.0,94.0
28568,86.0,0,48,1.0,112.0
28569,74.0,0,48,4.0,112.0
28570,86.0,0,48,8.0,127.0
28571,86.0,0,48,0.0,78.0
28572,98.0,0,48,0.0,78.0
28573,62.0,20,48,3.0,78.0
28574,74.0,0,48,3.0,78.0
28575,50.0,0,48,6.0,120.0
28576,74.0,0,48,2.0,78.0
28577,62.0,0,48,2.0,78.0
28578,62.0,0,48,4.0,112.0
28579,74.0,0,48,5.0,112.0
28580,62.0,0,48,5.0,112.0
28581,74.0,0,48,1.0,112.0
28582,62.0,0,32,10.0,104.0
28583,62.0,20,32,12.0,104.0
28584,45.0,0,48,6.0,127.0
28585,45.0,60,48,6.0,127.0
28586,45.0,60,48,6.0,127.0
28587,45.0,60,48,6.0,127.0
28588,45.0,60,48,6.0,127.0
28589,45.0,60,48,6.0,127.0
28590,45.0,60,48,6.0,127.0
28591,45.0,60,48,6.0,127.0
28592,45.0,60,48,6.0,127.0
28593,45.0,60,48,6.0,127.0
28594,45.0,60,48,6.0,127.0
28595,45.0,60,48,6.0,127.0
28596,45.0,60,48,6.0,127.0
28597,81.0,40,778,1.0,62.0
28598,57.0,0,778,12.0,127.0
28599,81.0,0,778,2.0,62.0
28600,81.0,0,778,8.0,127.0
28601,69.0,0,778,11.0,127.0
28602,62.0,0,778,4.0,127.0
28603,57.0,0,778,3.0,62.0
28604,45.0,0,778,13.0,127.0
28605,74.0,0,778,5.0,127.0
28606,50.0,0,778,4.0,127.0
28607,62.0,0,778,5.0,127.0
28608,81.0,0,778,0.0,62.0
28609,57.0,0,791,4.0,112.0
28610,69.0,0,817,4.0,112.0
28611,65.0,0,48,4.0,112.0
28612,53.0,0,48,4.0,112.0
28613,41.0,0,48,13.0,127.0
28614,53.0,0,48,3.0,49.0
28615,74.0,0,48,5.0,127.0
28616,62.0,0,48,4.0,127.0
28617,50.0,0,48,4.0,127.0
28618,62.0,0,48,5.0,127.0
28619,77.0,0,48,8.0,127.0
28620,65.0,0,48,11.0,127.0
28621,50.0,0,48,6.0,127.0
28622,53.0,0,48,12.0,127.0
28623,77.0,180,48,2.0,49.0
28624,77.0,0,48,1.0,49.0
28625,77.0,0,48,0.0,49.0
28626,86.0,0,336,0.0,62.0
28627,74.0,60,336,5.0,127.0
28628,50.0,0,336,12.0,127.0
28629,74.0,0,336,8.0,127.0
28630,74.0,0,336,1.0,62.0
28631,74.0,0,336,2.0,62.0
28632,50.0,0,336,3.0,62.0
28633,50.0,0,336,4.0,127.0
28634,62.0,0,336,4.0,127.0
28635,38.0,0,336,13.0,127.0
28636,50.0,0,336,6.0,127.0
28637,62.0,0,336,5.0,127.0
28638,62.0,0,336,11.0,127.0
28639,57.0,0,26,4.0,127.0
28640,57.0,0,48,11.0,127.0
28641,69.0,0,48,8.0,127.0
28642,45.0,0,48,12.0,127.0
28643,45.0,0,48,3.0,62.0
28644,62.0,0,48,5.0,127.0
28645,74.0,0,48,5.0,127.0
28646,81.0,0,48,2.0,62.0
28647,62.0,0,48,4.0,127.0
28648,45.0,0,48,4.0,127.0
28649,69.0,0,48,2.0,62.0
28650,33.0,0,48,13.0,127.0
28651,50.0,0,48,6.0,127.0
28652,50.0,420,48,4.0,127.0
28653,69.0,0,48,1.0,62.0
28654,81.0,0,48,1.0,62.0
28655,81.0,0,48,0.0,62.0
28656,65.0,0,288,2.0,62.0
28657,50.0,0,288,4.0,127.0
28658,65.0,0,288,1.0,62.0
28659,77.0,0,288,1.0,62.0
28660,77.0,60,288,2.0,62.0
28661,77.0,0,288,0.0,62.0
28662,65.0,0,288,4.0,127.0
28663,29.0,0,288,13.0,127.0
28664,50.0,0,288,6.0,127.0
28665,41.0,0,288,12.0,127.0
28666,74.0,0,288,5.0,127.0
28667,62.0,0,288,5.0,127.0
28668,65.0,0,288,8.0,127.0
28669,41.0,0,288,3.0,62.0
28670,53.0,0,288,4.0,127.0
28671,62.0,0,288,4.0,127.0
28672,53.0,0,288,11.0,127.0
28673,81.0,0,48,1.0,53.0
28674,50.0,0,48,4.0,126.0
28675,57.0,0,48,11.0,127.0
28676,62.0,360,48,4.0,126.0
28677,69.0,0,48,1.0,53.0
28678,69.0,0,48,2.0,53.0
28679,33.0,0,48,13.0,127.0
28680,81.0,0,48,0.0,53.0
28681,69.0,0,48,8.0,127.0
28682,74.0,0,48,5.0,101.0
28683,45.0,0,48,3.0,53.0
28684,45.0,0,48,12.0,127.0
28685,81.0,0,48,2.0,53.0
28686,62.0,0,48,5.0,101.0
28687,50.0,0,48,6.0,118.0
28688,65.0,0,48,4.0,126.0
28689,53.0,0,48,4.0,126.0
28690,53.0,0,48,11.0,127.0
28691,77.0,0,48,0.0,53.0
28692,74.0,0,48,5.0,101.0
28693,77.0,0,48,2.0,53.0
28694,65.0,60,48,2.0,53.0
28695,65.0,0,48,8.0,127.0
28696,50.0,0,48,4.0,126.0
28697,62.0,0,48,5.0,101.0
28698,50.0,0,48,6.0,118.0
28699,62.0,0,48,4.0,126.0
28700,41.0,0,48,3.0,53.0
28701,29.0,0,48,13.0,127.0
28702,41.0,0,48,12.0,127.0
28703,65.0,0,48,1.0,53.0
28704,77.0,0,48,1.0,53.0
28705,62.0,0,120,8.0,127.0
28706,26.0,0,120,13.0,127.0
28707,38.0,60,120,12.0,127.0
28708,62.0,0,120,1.0,62.0
28709,50.0,0,120,11.0,127.0
28710,74.0,0,120,5.0,127.0
28711,50.0,0,120,4.0,127.0
28712,62.0,0,120,4.0,127.0
28713,62.0,0,120,5.0,127.0
28714,74.0,0,120,8.0,127.0
28715,62.0,0,120,2.0,62.0
28716,50.0,0,120,6.0,127.0
28717,38.0,0,120,3.0,85.0
28718,74.0,0,120,0.0,62.0
28719,74.0,0,120,2.0,62.0
28720,69.0,0,48,1.0,45.0
28721,50.0,360,48,6.0,100.0
28722,33.0,0,48,13.0,108.0
28723,45.0,0,48,3.0,45.0
28724,69.0,0,48,8.0,108.0
28725,74.0,0,48,5.0,86.0
28726,62.0,0,48,5.0,86.0
28727,45.0,0,48,12.0,108.0
28728,81.0,0,48,2.0,45.0
28729,69.0,0,48,2.0,45.0
28730,81.0,0,48,1.0,45.0
28731,57.0,0,48,11.0,108.0
28732,81.0,0,48,0.0,45.0
28733,62.0,0,48,4.0,107.0
28734,50.0,0,48,4.0,107.0
28735,65.0,0,48,8.0,108.0
28736,74.0,0,48,5.0,86.0
28737,62.0,0,48,5.0,86.0
28738,29.0,0,48,13.0,108.0
28739,41.0,0,48,3.0,45.0
28740,65.0,0,48,2.0,45.0
28741,77.0,0,48,2.0,45.0
28742,77.0,60,48,0.0,45.0
28743,53.0,0,48,11.0,108.0
28744,77.0,0,48,1.0,45.0
28745,50.0,0,48,6.0,100.0
28746,65.0,0,48,1.0,45.0
28747,41.0,0,48,12.0,108.0
28748,62.0,0,120,2.0,53.0
28749,50.0,0,120,6.0,108.0
28750,62.0,0,120,4.0,108.0
28751,50.0,0,120,4.0,108.0
28752,50.0,0,120,11.0,108.0
28753,62.0,0,120,8.0,108.0
28754,38.0,0,120,3.0,72.0
28755,62.0,0,120,1.0,53.0
28756,74.0,0,120,5.0,108.0
28757,62.0,0,120,5.0,108.0
28758,74.0,0,120,0.0,53.0
28759,38.0,0,120,12.0,108.0
28760,26.0,0,120,13.0,108.0
28761,74.0,0,120,2.0,53.0
28762,62.0,0,48,5.0,86.0
28763,74.0,0,48,5.0,86.0
28764,74.0,0,48,1.0,45.0
28765,74.0,0,48,8.0,108.0
28766,50.0,0,48,6.0,100.0
28767,86.0,0,48,0.0,45.0
28768,50.0,0,48,3.0,45.0
28769,38.0,0,48,13.0,108.0
28770,50.0,0,48,12.0,108.0
28771,86.0,0,48,1.0,45.0
28772,74.0,0,48,2.0,45.0
28773,86.0,360,48,2.0,45.0
28774,62.0,0,48,11.0,108.0
28775,33.0,0,48,13.0,108.0
28776,62.0,0,48,4.0,107.0
28777,57.0,0,48,11.0,108.0
28778,50.0,0,48,4.0,107.0
28779,81.0,0,48,1.0,45.0
28780,69.0,0,48,8.0,108.0
28781,74.0,0,48,5.0,86.0
28782,62.0,0,48,5.0,86.0
28783,69.0,0,48,1.0,45.0
28784,69.0,0,48,2.0,45.0
28785,45.0,60,48,3.0,45.0
28786,45.0,0,48,12.0,108.0
28787,81.0,0,48,0.0,45.0
28788,50.0,0,48,6.0,100.0
28789,81.0,0,48,2.0,45.0
28790,41.0,0,120,12.0,53.0
28791,65.0,60,120,8.0,108.0
28792,65.0,0,120,2.0,53.0
28793,77.0,0,120,2.0,53.0
28794,50.0,0,120,4.0,108.0
28795,53.0,0,120,10.0,53.0
28796,41.0,0,120,3.0,72.0
28797,62.0,0,120,4.0,108.0
28798,50.0,0,120,6.0,108.0
28799,74.0,0,120,5.0,108.0
28800,65.0,0,120,1.0,53.0
28801,77.0,0,120,0.0,53.0
28802,29.0,0,120,13.0,53.0
28803,62.0,0,120,5.0,108.0
28804,53.0,0,48,12.0,45.0
28805,77.0,0,48,8.0,108.0
28806,50.0,0,48,6.0,100.0
28807,77.0,0,48,1.0,45.0
28808,65.0,0,48,10.0,45.0
28809,74.0,0,48,5.0,86.0
28810,62.0,360,48,5.0,86.0
28811,65.0,0,48,1.0,45.0
28812,41.0,0,48,13.0,45.0
28813,53.0,0,48,3.0,45.0
28814,65.0,0,48,2.0,45.0
28815,89.0,0,48,0.0,45.0
28816,77.0,0,48,2.0,45.0
28817,50.0,0,40,4.0,107.0
28818,62.0,0,40,4.0,107.0
28819,38.0,0,48,13.0,45.0
28820,74.0,0,48,8.0,108.0
28821,62.0,0,48,2.0,45.0
28822,86.0,0,48,0.0,45.0
28823,74.0,60,48,2.0,45.0
28824,62.0,0,48,10.0,45.0
28825,50.0,0,48,6.0,100.0
28826,62.0,0,48,5.0,86.0
28827,50.0,0,48,3.0,45.0
28828,74.0,0,48,5.0,86.0
28829,50.0,0,48,12.0,45.0
28830,62.0,0,48,1.0,45.0
28831,74.0,0,48,1.0,45.0
28832,57.0,0,120,2.0,53.0
28833,69.0,0,120,1.0,53.0
28834,50.0,0,120,4.0,108.0
28835,33.0,0,120,13.0,53.0
28836,45.0,0,120,12.0,53.0
28837,81.0,0,120,0.0,53.0
28838,69.0,0,120,2.0,53.0
28839,62.0,0,120,4.0,108.0
28840,69.0,0,120,8.0,108.0
28841,74.0,60,120,5.0,108.0
28842,45.0,0,120,3.0,72.0
28843,62.0,0,120,5.0,108.0
28844,57.0,0,120,10.0,53.0
28845,50.0,0,120,6.0,108.0
28846,81.0,360,48,8.0,108.0
28847,81.0,0,48,1.0,45.0
28848,69.0,0,48,1.0,45.0
28849,45.0,0,48,13.0,45.0
28850,93.0,0,48,0.0,45.0
28851,50.0,0,48,6.0,100.0
28852,69.0,0,48,10.0,45.0
28853,57.0,0,48,3.0,45.0
28854,57.0,0,48,12.0,45.0
28855,81.0,0,48,2.0,45.0
28856,69.0,0,48,2.0,45.0
28857,62.0,0,48,5.0,86.0
28858,74.0,0,48,5.0,86.0
28859,62.0,0,40,4.0,107.0
28860,50.0,0,40,4.0,107.0
28861,62.0,0,48,5.0,86.0
28862,74.0,0,48,5.0,86.0
28863,53.0,0,48,3.0,45.0
28864,41.0,0,48,13.0,45.0
28865,77.0,0,48,2.0,45.0
28866,65.0,0,48,10.0,45.0
28867,50.0,0,48,6.0,100.0
28868,89.0,60,48,0.0,45.0
28869,77.0,0,48,8.0,108.0
28870,65.0,0,48,2.0,45.0
28871,77.0,0,48,1.0,45.0
28872,65.0,0,48,1.0,45.0
28873,53.0,0,48,12.0,45.0
28874,62.0,0,480,4.0,108.0
28875,50.0,0,480,4.0,108.0
28876,38.0,0,480,13.0,53.0
28877,62.0,0,480,1.0,53.0
28878,74.0,0,480,5.0,108.0
28879,86.0,0,480,0.0,53.0
28880,50.0,0,480,6.0,108.0
28881,50.0,0,480,10.0,53.0
28882,62.0,0,480,10.0,53.0
28883,74.0,0,480,2.0,53.0
28884,62.0,0,480,2.0,53.0
28885,50.0,0,480,3.0,72.0
28886,62.0,0,480,8.0,108.0
28887,26.0,0,480,13.0,53.0
28888,38.0,0,480,12.0,53.0
28889,50.0,0,480,12.0,53.0
28890,62.0,0,480,5.0,108.0
28891,74.0,0,480,8.0,108.0
28892,38.0,0,60,13.0,108.0
28893,62.0,0,60,2.0,76.0
28894,62.0,0,60,10.0,108.0
28895,50.0,0,60,12.0,108.0
28896,74.0,540,60,8.0,108.0
28897,50.0,0,60,3.0,76.0
28898,62.0,0,60,0.0,76.0
28899,62.0,0,60,1.0,76.0
28900,64.0,0,60,0.0,76.0
28901,64.0,0,60,10.0,108.0
28902,64.0,0,60,1.0,76.0
28903,52.0,0,60,12.0,108.0
28904,40.0,0,60,13.0,108.0
28905,64.0,0,60,2.0,76.0
28906,52.0,0,60,3.0,76.0
28907,76.0,60,60,8.0,108.0
28908,65.0,0,60,2.0,76.0
28909,53.0,0,60,3.0,76.0
28910,65.0,0,60,1.0,76.0
28911,41.0,0,60,13.0,108.0
28912,65.0,60,60,0.0,76.0
28913,53.0,0,60,12.0,108.0
28914,65.0,0,60,10.0,108.0
28915,77.0,0,60,8.0,108.0
28916,43.0,0,60,13.0,108.0
28917,67.0,0,60,10.0,108.0
28918,62.0,0,60,5.0,102.0
28919,67.0,60,60,0.0,76.0
28920,74.0,0,60,5.0,102.0
28921,79.0,0,60,8.0,108.0
28922,55.0,0,60,12.0,108.0
28923,67.0,0,60,2.0,76.0
28924,55.0,0,60,3.0,76.0
28925,67.0,0,60,1.0,76.0
28926,50.0,0,96,6.0,102.0
28927,81.0,0,60,8.0,108.0
28928,45.0,0,60,13.0,108.0
28929,69.0,0,60,1.0,76.0
28930,69.0,0,60,0.0,76.0
28931,57.0,0,60,3.0,76.0
28932,69.0,60,60,10.0,108.0
28933,57.0,0,60,12.0,108.0
28934,69.0,0,60,2.0,76.0
28935,59.0,0,60,3.0,76.0
28936,83.0,0,60,8.0,108.0
28937,59.0,0,60,12.0,108.0
28938,47.0,60,60,13.0,108.0
28939,71.0,0,60,0.0,76.0
28940,74.0,0,60,5.0,102.0
28941,62.0,0,60,5.0,102.0
28942,71.0,0,60,1.0,76.0
28943,71.0,0,60,10.0,108.0
28944,71.0,0,60,2.0,76.0
28945,50.0,0,96,6.0,102.0
28946,61.0,0,60,3.0,76.0
28947,61.0,0,60,12.0,108.0
28948,73.0,0,60,0.0,76.0
28949,73.0,60,60,10.0,108.0
28950,73.0,0,60,2.0,76.0
28951,73.0,0,60,1.0,76.0
28952,49.0,0,60,13.0,108.0
28953,85.0,0,60,8.0,108.0
28954,74.0,0,480,10.0,108.0
28955,62.0,0,480,0.0,76.0
28956,74.0,0,480,0.0,76.0
28957,86.0,0,480,8.0,108.0
28958,50.0,0,480,13.0,108.0
28959,38.0,0,480,13.0,108.0
28960,62.0,0,480,2.0,76.0
28961,50.0,0,480,6.0,108.0
28962,74.0,0,480,2.0,76.0
28963,50.0,0,480,3.0,76.0
28964,50.0,0,480,4.0,108.0
28965,50.0,0,480,12.0,108.0
28966,62.0,0,480,4.0,108.0
28967,62.0,60,480,3.0,76.0
28968,62.0,0,480,1.0,76.0
28969,74.0,0,480,1.0,76.0
28970,62.0,0,480,10.0,108.0
28971,62.0,0,480,5.0,108.0
28972,74.0,0,480,5.0,108.0
28973,62.0,0,480,12.0,108.0
28974,74.0,0,480,8.0,108.0
28975,62.0,0,60,2.0,76.0
28976,38.0,540,60,12.0,108.0
28977,50.0,0,60,3.0,76.0
28978,26.0,0,60,13.0,108.0
28979,74.0,0,60,0.0,76.0
28980,62.0,0,60,8.0,108.0
28981,74.0,0,60,1.0,76.0
28982,50.0,0,60,10.0,108.0
28983,52.0,0,60,10.0,108.0
28984,52.0,0,60,3.0,76.0
28985,64.0,0,60,2.0,76.0
28986,40.0,0,60,12.0,108.0
28987,76.0,0,60,1.0,76.0
28988,28.0,0,60,13.0,108.0
28989,64.0,60,60,8.0,108.0
28990,76.0,0,60,0.0,76.0
28991,53.0,0,60,10.0,108.0
28992,65.0,0,60,2.0,76.0
28993,53.0,60,60,3.0,76.0
28994,77.0,0,60,0.0,76.0
28995,77.0,0,60,1.0,76.0
28996,29.0,0,60,13.0,108.0
28997,65.0,0,60,8.0,108.0
28998,41.0,0,60,12.0,108.0
28999,55.0,60,60,10.0,108.0
29000,43.0,0,60,12.0,108.0
29001,79.0,0,60,0.0,76.0
29002,67.0,0,60,2.0,76.0
29003,79.0,0,60,1.0,76.0
29004,31.0,0,60,13.0,108.0
29005,55.0,0,60,3.0,76.0
29006,62.0,0,60,5.0,102.0
29007,74.0,0,60,5.0,102.0
29008,67.0,0,60,8.0,108.0
29009,50.0,0,96,6.0,102.0
29010,45.0,0,60,12.0,108.0
29011,69.0,0,60,8.0,108.0
29012,81.0,60,60,1.0,76.0
29013,57.0,0,60,3.0,76.0
29014,81.0,0,60,0.0,76.0
29015,57.0,0,60,10.0,108.0
29016,69.0,0,60,2.0,76.0
29017,33.0,0,60,13.0,108.0
29018,83.0,0,60,1.0,76.0
29019,62.0,0,60,5.0,102.0
29020,35.0,0,60,13.0,108.0
29021,83.0,0,60,0.0,76.0
29022,47.0,0,60,12.0,108.0
29023,74.0,0,60,5.0,102.0
29024,59.0,0,60,10.0,108.0
29025,71.0,0,60,2.0,76.0
29026,71.0,60,60,8.0,108.0
29027,59.0,0,60,3.0,76.0
29028,50.0,0,96,6.0,102.0
29029,73.0,0,60,8.0,108.0
29030,85.0,0,60,1.0,76.0
29031,37.0,0,60,13.0,108.0
29032,61.0,0,60,3.0,76.0
29033,85.0,0,60,0.0,76.0
29034,73.0,0,60,2.0,76.0
29035,49.0,60,60,12.0,108.0
29036,61.0,0,60,10.0,108.0
29037,62.0,0,390,4.0,108.0
29038,74.0,0,450,8.0,108.0
29039,50.0,0,450,6.0,108.0
29040,74.0,0,450,2.0,53.0
29041,50.0,0,450,4.0,108.0
29042,74.0,0,534,5.0,108.0
29043,62.0,60,534,5.0,108.0
29044,62.0,0,576,2.0,53.0
29045,62.0,0,576,8.0,108.0
29046,74.0,0,576,0.0,53.0
29047,50.0,0,576,11.0,108.0
29048,62.0,0,576,1.0,53.0
29049,38.0,0,576,3.0,72.0
29050,38.0,0,576,12.0,108.0
29051,26.0,0,576,13.0,108.0
29052,65.0,0,60,1.0,55.0
29053,77.0,0,60,1.0,55.0
29054,65.0,0,60,8.0,108.0
29055,65.0,0,60,11.0,108.0
29056,53.0,0,60,12.0,108.0
29057,53.0,0,60,3.0,55.0
29058,41.0,600,60,13.0,108.0
29059,77.0,0,60,8.0,108.0
29060,65.0,0,60,4.0,55.0
29061,89.0,0,60,0.0,55.0
29062,65.0,0,60,2.0,55.0
29063,77.0,0,60,2.0,55.0
29064,64.0,0,60,4.0,55.0
29065,64.0,0,60,11.0,108.0
29066,76.0,0,60,1.0,55.0
29067,52.0,0,60,12.0,108.0
29068,52.0,0,60,3.0,55.0
29069,88.0,0,60,0.0,55.0
29070,40.0,0,60,13.0,108.0
29071,64.0,0,60,8.0,108.0
29072,76.0,0,60,8.0,108.0
29073,76.0,0,60,2.0,55.0
29074,64.0,0,60,2.0,55.0
29075,64.0,120,60,1.0,55.0
29076,86.0,0,60,0.0,55.0
29077,74.0,0,60,8.0,108.0
29078,62.0,0,60,8.0,108.0
29079,62.0,0,60,2.0,55.0
29080,74.0,0,60,2.0,55.0
29081,62.0,0,60,1.0,55.0
29082,74.0,0,60,1.0,55.0
29083,62.0,0,60,11.0,108.0
29084,62.0,0,60,4.0,55.0
29085,38.0,0,60,13.0,108.0
29086,50.0,0,60,3.0,55.0
29087,50.0,120,60,12.0,108.0
29088,69.0,120,60,4.0,55.0
29089,81.0,0,96,2.0,55.0
29090,69.0,0,96,1.0,55.0
29091,57.0,0,96,12.0,108.0
29092,45.0,0,96,13.0,108.0
29093,69.0,0,96,2.0,55.0
29094,45.0,0,96,3.0,55.0
29095,57.0,0,96,3.0,55.0
29096,81.0,0,96,1.0,55.0
29097,69.0,0,96,8.0,108.0
29098,69.0,0,96,11.0,108.0
29099,81.0,0,96,8.0,108.0
29100,93.0,0,96,0.0,55.0
29101,67.0,0,90,4.0,55.0
29102,55.0,0,96,12.0,108.0
29103,43.0,0,96,3.0,55.0
29104,67.0,0,96,8.0,108.0
29105,67.0,0,96,1.0,55.0
29106,79.0,0,96,8.0,108.0
29107,55.0,0,96,3.0,55.0
29108,67.0,240,96,11.0,108.0
29109,43.0,0,96,13.0,108.0
29110,79.0,0,96,1.0,55.0
29111,67.0,0,96,2.0,55.0
29112,79.0,0,96,2.0,55.0
29113,91.0,0,96,0.0,55.0
29114,64.0,0,90,4.0,55.0
29115,64.0,0,96,2.0,55.0
29116,52.0,0,96,12.0,108.0
29117,64.0,0,96,11.0,108.0
29118,64.0,0,96,1.0,55.0
29119,76.0,0,96,1.0,55.0
29120,76.0,240,96,2.0,55.0
29121,40.0,0,96,13.0,108.0
29122,88.0,0,96,0.0,55.0
29123,76.0,0,96,8.0,108.0
29124,40.0,0,96,3.0,55.0
29125,52.0,0,96,3.0,55.0
29126,64.0,0,96,8.0,108.0
29127,69.0,0,20,4.0,65.0
29128,69.0,0,96,1.0,65.0
29129,81.0,0,96,1.0,65.0
29130,57.0,0,96,5.0,76.0
29131,33.0,0,96,13.0,127.0
29132,69.0,0,96,5.0,76.0
29133,45.0,0,96,13.0,127.0
29134,45.0,0,96,6.0,127.0
29135,69.0,0,96,11.0,127.0
29136,81.0,20,96,8.0,127.0
29137,93.0,0,96,0.0,65.0
29138,45.0,0,96,3.0,65.0
29139,57.0,0,96,3.0,65.0
29140,57.0,0,96,12.0,127.0
29141,81.0,0,96,2.0,65.0
29142,69.0,0,96,8.0,127.0
29143,69.0,0,96,2.0,65.0
29144,62.0,0,120,8.0,127.0
29145,50.0,0,120,12.0,127.0
29146,50.0,0,120,4.0,89.0
29147,74.0,0,120,1.0,89.0
29148,62.0,0,120,1.0,89.0
29149,86.0,0,120,0.0,89.0
29150,74.0,0,120,2.0,89.0
29151,62.0,0,120,2.0,89.0
29152,50.0,0,120,3.0,89.0
29153,62.0,0,120,3.0,89.0
29154,62.0,0,120,4.0,89.0
29155,74.0,0,120,8.0,127.0
29156,62.0,0,120,11.0,127.0
29157,74.0,0,120,5.0,89.0
29158,62.0,0,120,5.0,89.0
29159,50.0,240,120,6.0,127.0
29160,38.0,0,120,13.0,127.0
29161,26.0,0,120,13.0,127.0
