,note,step,duration,channel,velocity
0,69.0,5,30,10.0,0.0
1,65.0,35,30,11.0,0.0
2,69.0,5,30,10.0,0.0
3,65.0,35,30,11.0,0.0
4,69.0,5,30,10.0,0.0
5,65.0,35,30,11.0,0.0
6,69.0,5,30,10.0,0.0
7,65.0,35,30,11.0,0.0
8,69.0,5,30,10.0,0.0
9,65.0,35,30,11.0,0.0
10,69.0,5,30,10.0,0.0
11,65.0,65,30,11.0,0.0
12,69.0,5,60,10.0,0.0
13,65.0,55,60,11.0,0.0
14,70.0,5,60,10.0,0.0
15,67.0,55,60,11.0,0.0
16,67.0,5,60,10.0,0.0
17,60.0,115,60,11.0,0.0
18,69.0,5,60,10.0,0.0
19,65.0,4,60,11.0,0.0
20,53.0,0,60,12.0,0.0
21,57.0,51,60,12.0,0.0
22,70.0,5,60,10.0,0.0
23,67.0,4,60,11.0,0.0
24,58.0,0,60,12.0,0.0
25,67.0,5,60,10.0,0.0
26,60.0,4,60,11.0,0.0
27,48.0,111,60,12.0,0.0
28,55.0,51,15,12.0,0.0
29,69.0,2,60,10.0,0.0
30,81.0,2,60,0.0,0.0
31,77.0,1,60,1.0,0.0
32,65.0,55,60,11.0,0.0
33,70.0,2,60,10.0,0.0
34,82.0,2,60,0.0,0.0
35,79.0,1,60,1.0,0.0
36,67.0,55,60,11.0,0.0
37,67.0,2,60,10.0,0.0
38,79.0,2,60,0.0,0.0
39,72.0,1,60,1.0,0.0
40,60.0,85,60,11.0,0.0
41,70.0,5,30,10.0,0.0
42,67.0,35,30,11.0,0.0
43,70.0,5,30,10.0,0.0
44,67.0,35,30,11.0,0.0
45,70.0,5,30,10.0,0.0
46,67.0,35,30,11.0,0.0
47,70.0,5,30,10.0,0.0
48,67.0,35,30,11.0,0.0
49,70.0,5,30,10.0,0.0
50,67.0,35,30,11.0,0.0
51,70.0,5,30,10.0,0.0
52,67.0,65,30,11.0,0.0
53,70.0,5,60,10.0,0.0
54,67.0,55,60,11.0,0.0
55,72.0,5,60,10.0,0.0
56,69.0,55,60,11.0,0.0
57,69.0,5,60,10.0,0.0
58,65.0,115,60,11.0,0.0
59,70.0,5,60,10.0,0.0
60,67.0,4,60,11.0,0.0
61,55.0,51,60,12.0,0.0
62,58.0,0,60,12.0,0.0
63,72.0,5,60,10.0,0.0
64,69.0,4,60,11.0,0.0
65,57.0,51,60,12.0,0.0
66,60.0,0,60,12.0,0.0
67,69.0,5,60,10.0,0.0
68,65.0,4,60,11.0,0.0
69,53.0,111,60,12.0,0.0
70,57.0,0,60,12.0,0.0
71,70.0,2,60,10.0,0.0
72,82.0,2,60,0.0,0.0
73,79.0,1,60,1.0,0.0
74,67.0,55,60,11.0,0.0
75,72.0,2,60,10.0,0.0
76,84.0,2,60,0.0,0.0
77,81.0,1,60,1.0,0.0
78,69.0,55,60,11.0,0.0
79,69.0,2,60,10.0,0.0
80,81.0,2,60,0.0,0.0
81,77.0,1,60,1.0,0.0
82,65.0,92,60,11.0,0.0
83,77.0,1,120,10.0,0.0
84,72.0,4,30,11.0,0.0
85,69.0,36,30,12.0,0.0
86,72.0,4,30,11.0,0.0
87,69.0,36,30,12.0,0.0
88,72.0,3,30,11.0,0.0
89,69.0,36,30,12.0,0.0
90,70.0,4,30,11.0,0.0
91,67.0,36,30,12.0,0.0
92,70.0,4,30,11.0,0.0
93,67.0,34,30,12.0,0.0
94,76.0,2,60,10.0,0.0
95,70.0,4,30,11.0,0.0
96,67.0,36,30,12.0,0.0
97,76.0,1,120,10.0,0.0
98,69.0,4,30,11.0,0.0
99,65.0,36,30,12.0,0.0
100,69.0,4,30,11.0,0.0
101,65.0,36,30,12.0,0.0
102,69.0,3,30,11.0,0.0
103,65.0,36,30,12.0,0.0
104,74.0,1,120,10.0,0.0
105,69.0,4,30,11.0,0.0
106,65.0,36,30,12.0,0.0
107,69.0,4,30,11.0,0.0
108,65.0,36,30,12.0,0.0
109,69.0,3,30,11.0,0.0
110,65.0,36,30,12.0,0.0
111,86.0,1,120,10.0,0.0
112,69.0,4,30,11.0,0.0
113,65.0,36,30,12.0,0.0
114,69.0,4,30,11.0,0.0
115,65.0,36,30,12.0,0.0
116,69.0,3,30,11.0,0.0
117,65.0,36,30,12.0,0.0
118,67.0,4,30,11.0,0.0
119,64.0,36,30,12.0,0.0
120,67.0,4,30,11.0,0.0
121,64.0,34,30,12.0,0.0
122,84.0,2,60,10.0,0.0
123,67.0,4,30,11.0,0.0
124,64.0,36,30,12.0,0.0
125,84.0,1,120,10.0,0.0
126,65.0,4,30,11.0,0.0
127,62.0,36,30,12.0,0.0
128,77.0,4,30,11.0,0.0
129,74.0,36,30,12.0,0.0
130,77.0,3,30,11.0,0.0
131,74.0,36,30,12.0,0.0
132,82.0,2,120,10.0,0.0
133,77.0,4,30,11.0,0.0
134,74.0,36,30,12.0,0.0
135,77.0,4,30,11.0,0.0
136,74.0,34,30,12.0,0.0
137,77.0,4,30,11.0,0.0
138,74.0,36,30,12.0,0.0
139,82.0,17,60,10.0,0.0
140,77.0,4,30,11.0,0.0
141,74.0,19,30,12.0,0.0
142,77.0,4,30,11.0,0.0
143,74.0,36,30,12.0,0.0
144,77.0,4,30,11.0,0.0
145,74.0,36,30,12.0,0.0
146,81.0,17,60,10.0,0.0
147,76.0,4,30,11.0,0.0
148,72.0,19,30,12.0,0.0
149,76.0,4,30,11.0,0.0
150,72.0,36,30,12.0,0.0
151,76.0,4,30,11.0,0.0
152,72.0,36,30,12.0,0.0
153,79.0,17,60,10.0,0.0
154,74.0,4,30,11.0,0.0
155,70.0,19,30,12.0,0.0
156,74.0,4,30,11.0,0.0
157,70.0,36,30,12.0,0.0
158,74.0,4,30,11.0,0.0
159,70.0,36,30,12.0,0.0
160,78.0,17,60,10.0,0.0
161,72.0,4,30,11.0,0.0
162,69.0,19,30,12.0,0.0
163,72.0,4,30,11.0,0.0
164,69.0,36,30,12.0,0.0
165,72.0,4,30,11.0,0.0
166,69.0,36,30,12.0,0.0
167,79.0,17,60,10.0,0.0
168,74.0,4,30,11.0,0.0
169,70.0,19,30,12.0,0.0
170,74.0,4,30,11.0,0.0
171,70.0,36,30,12.0,0.0
172,74.0,4,30,11.0,0.0
173,70.0,36,30,12.0,0.0
174,81.0,17,60,10.0,0.0
175,76.0,4,30,11.0,0.0
176,72.0,19,30,12.0,0.0
177,76.0,4,30,11.0,0.0
178,72.0,36,30,12.0,0.0
179,76.0,4,30,11.0,0.0
180,72.0,36,30,12.0,0.0
181,82.0,17,60,10.0,0.0
182,77.0,4,30,11.0,0.0
183,74.0,19,30,12.0,0.0
184,65.0,4,30,11.0,0.0
185,62.0,36,30,12.0,0.0
186,65.0,4,30,11.0,0.0
187,62.0,36,30,12.0,0.0
188,79.0,17,60,10.0,0.0
189,67.0,4,30,11.0,0.0
190,64.0,19,30,12.0,0.0
191,67.0,4,30,11.0,0.0
192,64.0,36,30,12.0,0.0
193,67.0,4,30,11.0,0.0
194,64.0,36,30,12.0,0.0
195,81.0,17,60,10.0,0.0
196,69.0,4,30,11.0,0.0
197,65.0,19,30,12.0,0.0
198,69.0,4,30,11.0,0.0
199,65.0,36,30,12.0,0.0
200,69.0,4,30,11.0,0.0
201,65.0,36,30,12.0,0.0
202,77.0,17,60,10.0,0.0
203,72.0,4,30,11.0,0.0
204,69.0,19,30,12.0,0.0
205,72.0,4,30,11.0,0.0
206,69.0,36,30,12.0,0.0
207,72.0,4,30,11.0,0.0
208,69.0,36,30,12.0,0.0
209,76.0,17,60,10.0,0.0
210,72.0,4,30,11.0,0.0
211,67.0,19,30,12.0,0.0
212,60.0,4,30,11.0,0.0
213,64.0,0,30,11.0,0.0
214,55.0,36,30,12.0,0.0
215,60.0,4,30,11.0,0.0
216,64.0,0,30,11.0,0.0
217,55.0,36,30,12.0,0.0
218,84.0,17,60,10.0,0.0
219,64.0,0,30,11.0,0.0
220,60.0,4,30,11.0,0.0
221,55.0,19,30,12.0,0.0
222,60.0,4,30,11.0,0.0
223,64.0,0,30,11.0,0.0
224,55.0,36,30,12.0,0.0
225,60.0,0,30,11.0,0.0
226,64.0,4,30,11.0,0.0
227,55.0,36,30,12.0,0.0
228,55.0,17,60,10.0,0.0
229,62.0,0,30,11.0,0.0
230,60.0,4,30,11.0,0.0
231,55.0,19,30,12.0,0.0
232,60.0,4,30,11.0,0.0
233,62.0,0,30,11.0,0.0
234,55.0,36,30,12.0,0.0
235,60.0,4,30,11.0,0.0
236,62.0,0,30,11.0,0.0
237,55.0,36,30,12.0,0.0
238,79.0,17,60,10.0,0.0
239,59.0,4,30,11.0,0.0
240,62.0,0,30,11.0,0.0
241,55.0,19,30,12.0,0.0
242,59.0,0,30,11.0,0.0
243,62.0,4,30,11.0,0.0
244,55.0,36,30,12.0,0.0
245,62.0,0,30,11.0,0.0
246,59.0,4,30,11.0,0.0
247,55.0,40,30,12.0,0.0
248,72.0,1,120,10.0,0.0
249,55.0,0,120,11.0,0.0
250,64.0,36,120,11.0,0.0
251,60.0,40,30,12.0,0.0
252,48.0,39,30,12.0,0.0
253,48.0,4,30,12.0,0.0
254,48.0,40,30,12.0,0.0
255,48.0,40,30,12.0,0.0
256,48.0,29,30,12.0,0.0
257,74.0,5,30,10.0,0.0
258,67.0,6,30,11.0,0.0
259,48.0,29,30,12.0,0.0
260,74.0,5,30,10.0,0.0
261,67.0,6,30,11.0,0.0
262,48.0,29,30,12.0,0.0
263,74.0,5,30,10.0,0.0
264,67.0,6,30,11.0,0.0
265,48.0,29,30,12.0,0.0
266,74.0,5,30,10.0,0.0
267,67.0,6,30,11.0,0.0
268,48.0,29,30,12.0,0.0
269,74.0,5,30,10.0,0.0
270,67.0,6,30,11.0,0.0
271,48.0,29,30,12.0,0.0
272,74.0,5,30,10.0,0.0
273,67.0,6,30,11.0,0.0
274,48.0,40,30,12.0,0.0
275,74.0,5,60,10.0,0.0
276,67.0,16,60,11.0,0.0
277,48.0,19,30,12.0,0.0
278,48.0,39,30,12.0,0.0
279,76.0,1,60,10.0,0.0
280,72.0,36,60,11.0,0.0
281,48.0,4,30,12.0,0.0
282,72.0,5,60,10.0,0.0
283,64.0,16,60,11.0,0.0
284,48.0,19,30,12.0,0.0
285,48.0,40,30,12.0,0.0
286,48.0,29,30,12.0,0.0
287,62.0,5,30,10.0,0.0
288,55.0,6,30,11.0,0.0
289,48.0,29,30,12.0,0.0
290,62.0,5,30,10.0,0.0
291,55.0,6,30,11.0,0.0
292,48.0,29,30,12.0,0.0
293,62.0,5,30,10.0,0.0
294,55.0,6,30,11.0,0.0
295,48.0,29,30,12.0,0.0
296,62.0,5,30,10.0,0.0
297,55.0,6,30,11.0,0.0
298,48.0,29,30,12.0,0.0
299,62.0,5,30,10.0,0.0
300,55.0,6,30,11.0,0.0
301,48.0,29,30,12.0,0.0
302,62.0,5,30,10.0,0.0
303,55.0,6,30,11.0,0.0
304,48.0,40,30,12.0,0.0
305,62.0,5,60,10.0,0.0
306,55.0,16,60,11.0,0.0
307,48.0,19,30,12.0,0.0
308,48.0,39,30,12.0,0.0
309,64.0,1,60,10.0,0.0
310,60.0,36,60,11.0,0.0
311,48.0,4,30,12.0,0.0
312,60.0,5,60,10.0,0.0
313,60.0,16,60,11.0,0.0
314,48.0,19,30,12.0,0.0
315,48.0,40,30,12.0,0.0
316,48.0,29,30,12.0,0.0
317,74.0,5,30,10.0,0.0
318,67.0,6,30,11.0,0.0
319,48.0,29,30,12.0,0.0
320,74.0,5,30,10.0,0.0
321,67.0,6,30,11.0,0.0
322,48.0,29,30,12.0,0.0
323,74.0,5,30,10.0,0.0
324,67.0,6,30,11.0,0.0
325,48.0,29,30,12.0,0.0
326,74.0,5,30,10.0,0.0
327,67.0,6,30,11.0,0.0
328,48.0,29,30,12.0,0.0
329,74.0,5,30,10.0,0.0
330,67.0,6,30,11.0,0.0
331,48.0,29,30,12.0,0.0
332,74.0,5,30,10.0,0.0
333,67.0,6,30,11.0,0.0
334,48.0,40,30,12.0,0.0
335,74.0,5,60,10.0,0.0
336,67.0,16,60,11.0,0.0
337,48.0,19,30,12.0,0.0
338,48.0,39,30,12.0,0.0
339,76.0,1,60,10.0,0.0
340,72.0,36,60,11.0,0.0
341,48.0,4,30,12.0,0.0
342,72.0,5,60,10.0,0.0
343,64.0,16,60,11.0,0.0
344,48.0,19,30,12.0,0.0
345,48.0,40,30,12.0,0.0
346,48.0,40,30,12.0,0.0
347,71.0,5,60,10.0,0.0
348,62.0,16,60,11.0,0.0
349,48.0,19,30,12.0,0.0
350,48.0,39,30,12.0,0.0
351,72.0,1,60,10.0,0.0
352,64.0,0,60,11.0,0.0
353,48.0,40,30,12.0,0.0
354,67.0,5,60,10.0,0.0
355,64.0,16,60,11.0,0.0
356,48.0,19,30,12.0,0.0
357,48.0,40,30,12.0,0.0
358,48.0,40,30,12.0,0.0
359,65.0,5,60,10.0,0.0
360,62.0,16,60,11.0,0.0
361,48.0,19,30,12.0,0.0
362,48.0,39,30,12.0,0.0
363,67.0,1,60,10.0,0.0
364,64.0,36,60,11.0,0.0
365,48.0,4,30,12.0,0.0
366,64.0,5,60,10.0,0.0
367,60.0,16,60,11.0,0.0
368,48.0,19,30,12.0,0.0
369,48.0,40,30,12.0,0.0
370,48.0,40,30,12.0,0.0
371,62.0,5,60,10.0,0.0
372,59.0,16,60,11.0,0.0
373,48.0,19,30,12.0,0.0
374,48.0,39,30,12.0,0.0
375,64.0,1,60,10.0,0.0
376,60.0,0,60,11.0,0.0
377,48.0,40,30,12.0,0.0
378,60.0,5,60,10.0,0.0
379,60.0,16,60,11.0,0.0
380,48.0,19,30,12.0,0.0
381,48.0,40,30,12.0,0.0
382,48.0,59,30,12.0,0.0
383,62.0,5,60,10.0,0.0
384,72.0,1,120,1.0,0.0
385,60.0,4,120,4.0,0.0
386,62.0,4,60,11.0,0.0
387,50.0,51,60,12.0,0.0
388,48.0,50,120,5.0,0.0
389,64.0,4,60,10.0,0.0
390,64.0,0,60,11.0,0.0
391,52.0,1,60,12.0,0.0
392,60.0,5,60,10.0,0.0
393,60.0,4,60,11.0,0.0
394,48.0,351,60,12.0,0.0
395,62.0,5,60,10.0,0.0
396,72.0,1,120,1.0,0.0
397,60.0,0,120,4.0,0.0
398,62.0,4,60,11.0,0.0
399,50.0,51,60,12.0,0.0
400,48.0,50,120,5.0,0.0
401,64.0,4,60,10.0,0.0
402,64.0,4,60,11.0,0.0
403,52.0,1,60,12.0,0.0
404,60.0,5,60,10.0,0.0
405,60.0,4,60,11.0,0.0
406,48.0,351,60,12.0,0.0
407,62.0,5,60,10.0,0.0
408,72.0,1,120,1.0,0.0
409,60.0,4,120,4.0,0.0
410,62.0,4,60,11.0,0.0
411,50.0,51,60,12.0,0.0
412,48.0,50,120,5.0,0.0
413,64.0,4,60,10.0,0.0
414,64.0,0,60,11.0,0.0
415,52.0,1,60,12.0,0.0
416,60.0,5,60,10.0,0.0
417,60.0,4,60,11.0,0.0
418,48.0,531,60,12.0,0.0
419,61.0,2,480,10.0,0.0
420,85.0,2,480,0.0,0.0
421,85.0,0,480,1.0,0.0
422,73.0,1,480,1.0,0.0
423,61.0,1,480,11.0,0.0
424,73.0,3,480,2.0,0.0
425,49.0,6,480,12.0,0.0
426,37.0,2,480,13.0,0.0
427,49.0,1,480,3.0,0.0
428,37.0,12,480,14.0,0.0
429,81.0,5,30,10.0,0.0
430,84.0,0,60,0.0,0.0
431,89.0,2,60,0.0,0.0
432,77.0,1,60,1.0,0.0
433,81.0,0,60,1.0,0.0
434,65.0,0,90,6.0,0.0
435,77.0,1,90,6.0,0.0
436,77.0,6,30,11.0,0.0
437,69.0,0,60,2.0,0.0
438,77.0,2,60,2.0,0.0
439,53.0,29,30,12.0,0.0
440,65.0,9,90,5.0,0.0
441,41.0,1,60,13.0,0.0
442,53.0,0,60,3.0,0.0
443,57.0,3,60,3.0,0.0
444,29.0,3,60,14.0,0.0
445,81.0,2,30,10.0,0.0
446,77.0,0,30,11.0,0.0
447,53.0,3,30,12.0,0.0
448,81.0,5,30,10.0,0.0
449,84.0,2,60,0.0,0.0
450,89.0,0,60,0.0,0.0
451,81.0,1,60,1.0,0.0
452,65.0,1,90,6.0,0.0
453,77.0,0,60,1.0,0.0
454,77.0,0,90,6.0,0.0
455,69.0,2,15,4.0,0.0
456,77.0,6,30,11.0,0.0
457,69.0,5,60,2.0,0.0
458,77.0,0,60,2.0,0.0
459,53.0,29,30,12.0,0.0
460,65.0,9,90,5.0,0.0
461,57.0,3,60,3.0,0.0
462,53.0,0,60,3.0,0.0
463,41.0,11,15,15.0,0.0
464,81.0,2,30,10.0,0.0
465,77.0,1,30,11.0,0.0
466,65.0,3,30,12.0,0.0
467,53.0,3,60,13.0,0.0
468,41.0,3,60,14.0,0.0
469,81.0,5,30,10.0,0.0
470,89.0,0,60,0.0,0.0
471,84.0,2,60,0.0,0.0
472,81.0,0,60,1.0,0.0
473,77.0,1,60,1.0,0.0
474,77.0,0,90,6.0,0.0
475,69.0,2,15,4.0,0.0
476,77.0,0,30,11.0,0.0
477,69.0,0,60,2.0,0.0
478,77.0,5,60,2.0,0.0
479,65.0,29,30,12.0,0.0
480,65.0,9,90,5.0,0.0
481,53.0,3,60,3.0,0.0
482,57.0,0,60,3.0,0.0
483,41.0,22,90,15.0,0.0
484,81.0,2,30,10.0,0.0
485,77.0,1,30,11.0,0.0
486,65.0,3,30,12.0,0.0
487,81.0,2,60,10.0,0.0
488,89.0,2,60,0.0,0.0
489,81.0,0,60,1.0,0.0
490,77.0,1,60,1.0,0.0
491,65.0,1,15,6.0,0.0
492,77.0,0,90,6.0,0.0
493,70.0,5,90,4.0,0.0
494,77.0,1,60,11.0,0.0
495,69.0,9,60,2.0,0.0
496,77.0,0,60,2.0,0.0
497,53.0,19,30,12.0,0.0
498,67.0,9,90,5.0,0.0
499,41.0,2,60,13.0,0.0
500,53.0,1,60,3.0,0.0
501,57.0,0,60,3.0,0.0
502,29.0,3,60,14.0,0.0
503,53.0,11,90,15.0,0.0
504,53.0,13,30,12.0,0.0
505,82.0,1,60,10.0,0.0
506,91.0,0,60,0.0,0.0
507,82.0,0,60,1.0,0.0
508,79.0,1,60,11.0,0.0
509,79.0,11,60,2.0,0.0
510,70.0,0,60,2.0,0.0
511,58.0,24,60,3.0,0.0
512,53.0,1,30,12.0,0.0
513,79.0,2,60,10.0,0.0
514,84.0,2,15,0.0,0.0
515,88.0,2,60,0.0,0.0
516,72.0,0,60,1.0,0.0
517,79.0,1,15,1.0,0.0
518,65.0,0,90,6.0,0.0
519,77.0,1,90,6.0,0.0
520,67.0,5,90,4.0,0.0
521,72.0,1,60,11.0,0.0
522,67.0,9,60,2.0,0.0
523,76.0,0,60,2.0,0.0
524,65.0,19,30,12.0,0.0
525,60.0,9,90,5.0,0.0
526,53.0,2,60,13.0,0.0
527,55.0,0,15,3.0,0.0
528,48.0,1,60,3.0,0.0
529,41.0,3,60,14.0,0.0
530,53.0,12,90,15.0,0.0
531,65.0,13,30,12.0,0.0
532,65.0,40,30,12.0,0.0
533,81.0,2,60,10.0,0.0
534,84.0,0,120,0.0,0.0
535,89.0,2,60,0.0,0.0
536,77.0,0,60,1.0,0.0
537,81.0,1,60,1.0,0.0
538,65.0,0,90,6.0,0.0
539,77.0,1,90,6.0,0.0
540,77.0,1,60,11.0,0.0
541,70.0,5,90,4.0,0.0
542,69.0,0,60,2.0,0.0
543,77.0,9,60,2.0,0.0
544,53.0,19,30,12.0,0.0
545,67.0,9,90,5.0,0.0
546,41.0,2,60,13.0,0.0
547,53.0,0,60,3.0,0.0
548,57.0,1,60,3.0,0.0
549,29.0,3,60,14.0,0.0
550,53.0,11,90,15.0,0.0
551,53.0,13,30,12.0,0.0
552,82.0,1,60,10.0,0.0
553,91.0,2,60,0.0,0.0
554,82.0,1,60,1.0,0.0
555,79.0,1,60,11.0,0.0
556,79.0,11,60,2.0,0.0
557,70.0,0,60,2.0,0.0
558,55.0,0,60,3.0,0.0
559,58.0,24,60,3.0,0.0
560,53.0,1,30,12.0,0.0
561,79.0,2,60,10.0,0.0
562,84.0,2,60,0.0,0.0
563,88.0,0,60,0.0,0.0
564,72.0,0,60,1.0,0.0
565,79.0,0,15,1.0,0.0
566,65.0,1,90,6.0,0.0
567,77.0,0,90,6.0,0.0
568,67.0,5,90,4.0,0.0
569,72.0,1,60,11.0,0.0
570,67.0,9,60,2.0,0.0
571,76.0,0,60,2.0,0.0
572,65.0,19,30,12.0,0.0
573,60.0,9,90,5.0,0.0
574,53.0,2,60,13.0,0.0
575,55.0,0,60,3.0,0.0
576,48.0,1,60,3.0,0.0
577,41.0,3,60,14.0,0.0
578,53.0,12,90,15.0,0.0
579,65.0,13,30,12.0,0.0
580,65.0,40,30,12.0,0.0
581,81.0,2,60,10.0,0.0
582,84.0,0,120,0.0,0.0
583,89.0,2,60,0.0,0.0
584,77.0,1,60,1.0,0.0
585,65.0,1,90,6.0,0.0
586,81.0,0,60,1.0,0.0
587,77.0,0,90,6.0,0.0
588,77.0,1,60,11.0,0.0
589,70.0,5,90,4.0,0.0
590,77.0,0,60,2.0,0.0
591,69.0,9,60,2.0,0.0
592,53.0,19,30,12.0,0.0
593,67.0,9,90,5.0,0.0
594,41.0,2,60,13.0,0.0
595,57.0,0,60,3.0,0.0
596,53.0,1,60,3.0,0.0
597,29.0,3,60,14.0,0.0
598,53.0,11,90,15.0,0.0
599,53.0,13,30,12.0,0.0
600,82.0,1,60,10.0,0.0
601,91.0,2,60,0.0,0.0
602,82.0,0,60,1.0,0.0
603,79.0,1,60,11.0,0.0
604,79.0,0,60,2.0,0.0
605,70.0,11,60,2.0,0.0
606,58.0,0,60,3.0,0.0
607,53.0,1,30,12.0,0.0
608,79.0,2,60,10.0,0.0
609,84.0,0,60,0.0,0.0
610,88.0,2,60,0.0,0.0
611,72.0,1,60,1.0,0.0
612,77.0,1,90,6.0,0.0
613,65.0,0,90,6.0,0.0
614,79.0,1,15,1.0,0.0
615,67.0,5,90,4.0,0.0
616,72.0,1,60,11.0,0.0
617,76.0,0,60,2.0,0.0
618,67.0,9,60,2.0,0.0
619,65.0,19,30,12.0,0.0
620,60.0,9,90,5.0,0.0
621,53.0,2,60,13.0,0.0
622,55.0,24,15,3.0,0.0
623,48.0,0,60,3.0,0.0
624,41.0,3,60,14.0,0.0
625,53.0,12,90,15.0,0.0
626,65.0,13,30,12.0,0.0
627,65.0,29,30,12.0,0.0
628,82.0,5,30,10.0,0.0
629,91.0,2,60,0.0,0.0
630,84.0,0,60,0.0,0.0
631,65.0,1,90,6.0,0.0
632,79.0,0,60,1.0,0.0
633,82.0,1,60,1.0,0.0
634,70.0,2,90,4.0,0.0
635,79.0,6,30,11.0,0.0
636,70.0,0,60,2.0,0.0
637,79.0,2,60,2.0,0.0
638,53.0,29,30,12.0,0.0
639,41.0,1,60,13.0,0.0
640,58.0,3,60,3.0,0.0
641,55.0,0,60,3.0,0.0
642,29.0,3,60,14.0,0.0
643,41.0,11,90,15.0,0.0
644,82.0,2,30,10.0,0.0
645,79.0,0,30,11.0,0.0
646,53.0,3,30,12.0,0.0
647,82.0,5,30,10.0,0.0
648,84.0,2,60,0.0,0.0
649,91.0,0,60,0.0,0.0
650,77.0,0,15,6.0,0.0
651,82.0,0,60,1.0,0.0
652,79.0,1,60,1.0,0.0
653,79.0,6,30,11.0,0.0
654,79.0,0,60,2.0,0.0
655,70.0,5,60,2.0,0.0
656,53.0,29,30,12.0,0.0
657,67.0,9,15,5.0,0.0
658,58.0,0,60,3.0,0.0
659,55.0,3,60,3.0,0.0
660,41.0,11,90,15.0,0.0
661,82.0,2,30,10.0,0.0
662,79.0,1,30,11.0,0.0
663,65.0,3,30,12.0,0.0
664,53.0,3,60,13.0,0.0
665,41.0,3,60,14.0,0.0
666,82.0,5,30,10.0,0.0
667,91.0,2,60,0.0,0.0
668,84.0,0,60,0.0,0.0
669,77.0,1,15,6.0,0.0
670,65.0,0,15,6.0,0.0
671,82.0,1,60,1.0,0.0
672,79.0,0,60,1.0,0.0
673,70.0,2,15,4.0,0.0
674,79.0,0,30,11.0,0.0
675,79.0,5,60,2.0,0.0
676,70.0,0,60,2.0,0.0
677,65.0,29,30,12.0,0.0
678,67.0,9,90,5.0,0.0
679,58.0,0,60,3.0,0.0
680,55.0,3,60,3.0,0.0
681,82.0,2,30,10.0,0.0
682,79.0,1,30,11.0,0.0
683,65.0,3,30,12.0,0.0
684,82.0,2,60,10.0,0.0
685,91.0,2,60,0.0,0.0
686,84.0,0,120,0.0,0.0
687,65.0,0,15,6.0,0.0
688,77.0,1,15,6.0,0.0
689,82.0,0,60,1.0,0.0
690,79.0,1,60,1.0,0.0
691,72.0,5,90,4.0,0.0
692,79.0,1,60,11.0,0.0
693,70.0,9,60,2.0,0.0
694,79.0,0,60,2.0,0.0
695,53.0,19,30,12.0,0.0
696,69.0,9,90,5.0,0.0
697,41.0,2,60,13.0,0.0
698,55.0,0,60,3.0,0.0
699,58.0,1,60,3.0,0.0
700,29.0,3,60,14.0,0.0
701,41.0,22,15,15.0,0.0
702,53.0,13,30,12.0,0.0
703,84.0,1,60,10.0,0.0
704,93.0,2,60,0.0,0.0
705,84.0,1,60,1.0,0.0
706,81.0,1,60,11.0,0.0
707,72.0,0,60,2.0,0.0
708,81.0,11,60,2.0,0.0
709,60.0,0,60,3.0,0.0
710,57.0,24,60,3.0,0.0
711,53.0,1,30,12.0,0.0
712,81.0,2,60,10.0,0.0
713,84.0,0,60,0.0,0.0
714,89.0,2,60,0.0,0.0
715,77.0,1,90,6.0,0.0
716,65.0,0,90,6.0,0.0
717,81.0,0,15,1.0,0.0
718,77.0,1,60,1.0,0.0
719,77.0,1,60,11.0,0.0
720,69.0,5,90,4.0,0.0
721,69.0,9,60,2.0,0.0
722,79.0,0,60,2.0,0.0
723,65.0,19,30,12.0,0.0
724,65.0,9,90,5.0,0.0
725,53.0,2,60,13.0,0.0
726,57.0,1,60,3.0,0.0
727,53.0,0,60,3.0,0.0
728,41.0,3,60,14.0,0.0
729,53.0,12,90,15.0,0.0
730,65.0,13,30,12.0,0.0
731,65.0,40,30,12.0,0.0
732,82.0,2,60,10.0,0.0
733,84.0,0,120,0.0,0.0
734,91.0,2,60,0.0,0.0
735,65.0,0,90,6.0,0.0
736,77.0,1,90,6.0,0.0
737,79.0,1,60,1.0,0.0
738,82.0,0,60,1.0,0.0
739,72.0,5,90,4.0,0.0
740,79.0,1,60,11.0,0.0
741,79.0,0,60,2.0,0.0
742,70.0,9,60,2.0,0.0
743,53.0,19,30,12.0,0.0
744,69.0,9,90,5.0,0.0
745,41.0,2,60,13.0,0.0
746,58.0,1,60,3.0,0.0
747,55.0,0,60,3.0,0.0
748,29.0,3,60,14.0,0.0
749,53.0,11,90,15.0,0.0
750,53.0,13,30,12.0,0.0
751,84.0,1,60,10.0,0.0
752,93.0,2,60,0.0,0.0
753,84.0,0,60,1.0,0.0
754,81.0,1,60,1.0,0.0
755,81.0,1,60,11.0,0.0
756,72.0,11,60,2.0,0.0
757,81.0,0,60,2.0,0.0
758,60.0,0,60,3.0,0.0
759,53.0,1,30,12.0,0.0
760,81.0,2,60,10.0,0.0
761,89.0,2,60,0.0,0.0
762,84.0,0,60,0.0,0.0
763,81.0,1,60,1.0,0.0
764,77.0,0,90,6.0,0.0
765,65.0,1,90,6.0,0.0
766,77.0,0,60,1.0,0.0
767,77.0,1,60,11.0,0.0
768,69.0,5,90,4.0,0.0
769,69.0,0,60,2.0,0.0
770,79.0,9,60,2.0,0.0
771,65.0,19,30,12.0,0.0
772,65.0,9,90,5.0,0.0
773,53.0,2,60,13.0,0.0
774,57.0,24,15,3.0,0.0
775,53.0,1,60,3.0,0.0
776,41.0,3,60,14.0,0.0
777,53.0,12,90,15.0,0.0
778,65.0,13,30,12.0,0.0
779,65.0,40,30,12.0,0.0
780,82.0,2,60,10.0,0.0
781,91.0,2,60,0.0,0.0
782,84.0,2,120,0.0,0.0
783,65.0,0,90,6.0,0.0
784,77.0,1,90,6.0,0.0
785,79.0,0,60,1.0,0.0
786,82.0,1,60,1.0,0.0
787,72.0,5,90,4.0,0.0
788,79.0,1,60,11.0,0.0
789,70.0,9,60,2.0,0.0
790,79.0,0,60,2.0,0.0
791,53.0,19,30,12.0,0.0
792,69.0,9,90,5.0,0.0
793,41.0,2,60,13.0,0.0
794,55.0,0,60,3.0,0.0
795,58.0,1,60,3.0,0.0
796,29.0,3,60,14.0,0.0
797,53.0,11,90,15.0,0.0
798,53.0,13,30,12.0,0.0
799,84.0,1,60,10.0,0.0
800,93.0,0,60,0.0,0.0
801,84.0,0,60,1.0,0.0
802,81.0,1,60,11.0,0.0
803,72.0,0,60,2.0,0.0
804,81.0,11,60,2.0,0.0
805,60.0,0,60,3.0,0.0
806,57.0,24,60,3.0,0.0
807,53.0,1,30,12.0,0.0
808,81.0,2,60,10.0,0.0
809,89.0,0,60,0.0,0.0
810,84.0,2,60,0.0,0.0
811,77.0,1,60,1.0,0.0
812,81.0,1,15,1.0,0.0
813,77.0,0,90,6.0,0.0
814,65.0,1,90,6.0,0.0
815,77.0,1,60,11.0,0.0
816,69.0,5,90,4.0,0.0
817,79.0,9,60,2.0,0.0
818,69.0,0,60,2.0,0.0
819,65.0,19,30,12.0,0.0
820,65.0,9,90,5.0,0.0
821,53.0,2,60,13.0,0.0
822,53.0,1,60,3.0,0.0
823,57.0,0,60,3.0,0.0
824,41.0,3,60,14.0,0.0
825,53.0,12,90,15.0,0.0
826,65.0,13,30,12.0,0.0
827,65.0,36,30,12.0,0.0
828,77.0,1,120,10.0,0.0
829,84.0,0,60,0.0,0.0
830,89.0,2,60,0.0,0.0
831,65.0,0,90,6.0,0.0
832,77.0,1,90,6.0,0.0
833,77.0,0,60,1.0,0.0
834,69.0,2,60,1.0,0.0
835,60.0,4,30,11.0,0.0
836,65.0,5,90,4.0,0.0
837,77.0,9,60,2.0,0.0
838,69.0,0,60,2.0,0.0
839,57.0,21,30,12.0,0.0
840,53.0,9,90,5.0,0.0
841,41.0,2,60,13.0,0.0
842,57.0,0,60,3.0,0.0
843,65.0,1,60,3.0,0.0
844,29.0,3,60,14.0,0.0
845,41.0,8,90,15.0,0.0
846,60.0,0,30,11.0,0.0
847,57.0,13,30,12.0,0.0
848,60.0,3,30,11.0,0.0
849,57.0,36,30,12.0,0.0
850,60.0,4,30,11.0,0.0
851,57.0,34,30,12.0,0.0
852,53.0,2,60,13.0,0.0
853,41.0,3,60,14.0,0.0
854,60.0,1,30,11.0,0.0
855,57.0,34,30,12.0,0.0
856,76.0,2,60,10.0,0.0
857,84.0,0,60,0.0,0.0
858,88.0,2,60,0.0,0.0
859,72.0,0,60,1.0,0.0
860,72.0,4,60,2.0,0.0
861,64.0,0,60,3.0,0.0
862,41.0,18,60,15.0,0.0
863,60.0,4,30,11.0,0.0
864,57.0,1,30,12.0,0.0
865,76.0,1,120,10.0,0.0
866,84.0,2,120,0.0,0.0
867,88.0,0,120,0.0,0.0
868,76.0,1,15,1.0,0.0
869,77.0,0,15,6.0,0.0
870,65.0,0,15,6.0,0.0
871,72.0,0,120,1.0,0.0
872,62.0,4,30,11.0,0.0
873,65.0,1,15,4.0,0.0
874,76.0,0,15,2.0,0.0
875,72.0,0,120,2.0,0.0
876,58.0,34,30,12.0,0.0
877,53.0,7,15,5.0,0.0
878,46.0,2,60,13.0,0.0
879,60.0,2,15,3.0,0.0
880,64.0,2,120,3.0,0.0
881,34.0,3,60,14.0,0.0
882,53.0,18,120,15.0,0.0
883,62.0,1,30,11.0,0.0
884,58.0,36,30,12.0,0.0
885,62.0,3,30,11.0,0.0
886,58.0,1,30,12.0,0.0
887,74.0,1,120,10.0,0.0
888,82.0,0,120,0.0,0.0
889,74.0,0,120,1.0,0.0
890,70.0,2,120,1.0,0.0
891,62.0,4,30,11.0,0.0
892,70.0,11,120,2.0,0.0
893,58.0,34,30,12.0,0.0
894,58.0,2,60,13.0,0.0
895,58.0,0,120,3.0,0.0
896,46.0,3,60,14.0,0.0
897,62.0,1,30,11.0,0.0
898,58.0,36,30,12.0,0.0
899,62.0,3,30,11.0,0.0
900,58.0,1,30,12.0,0.0
901,86.0,1,120,10.0,0.0
902,86.0,2,15,0.0,0.0
903,81.0,0,60,0.0,0.0
904,78.0,2,60,1.0,0.0
905,86.0,0,60,1.0,0.0
906,57.0,4,30,11.0,0.0
907,74.0,0,15,2.0,0.0
908,66.0,0,60,2.0,0.0
909,54.0,21,30,12.0,0.0
910,46.0,2,60,13.0,0.0
911,62.0,20,15,3.0,0.0
912,54.0,0,60,3.0,0.0
913,34.0,3,60,14.0,0.0
914,57.0,1,30,11.0,0.0
915,54.0,36,30,12.0,0.0
916,57.0,3,30,11.0,0.0
917,54.0,36,30,12.0,0.0
918,57.0,4,30,11.0,0.0
919,54.0,34,30,12.0,0.0
920,62.0,2,60,13.0,0.0
921,50.0,3,60,14.0,0.0
922,57.0,1,30,11.0,0.0
923,54.0,34,30,12.0,0.0
924,84.0,2,60,10.0,0.0
925,69.0,2,60,1.0,0.0
926,72.0,0,60,1.0,0.0
927,57.0,0,60,3.0,0.0
928,57.0,4,30,11.0,0.0
929,54.0,1,30,12.0,0.0
930,84.0,1,120,10.0,0.0
931,84.0,0,15,0.0,0.0
932,81.0,2,15,0.0,0.0
933,72.0,0,120,1.0,0.0
934,69.0,2,120,1.0,0.0
935,79.0,1,90,6.0,0.0
936,67.0,5,90,4.0,0.0
937,58.0,4,30,11.0,0.0
938,72.0,11,15,2.0,0.0
939,69.0,0,15,2.0,0.0
940,55.0,34,30,12.0,0.0
941,67.0,17,90,5.0,0.0
942,55.0,2,60,13.0,0.0
943,60.0,20,15,3.0,0.0
944,57.0,0,120,3.0,0.0
945,43.0,3,60,14.0,0.0
946,58.0,1,30,11.0,0.0
947,55.0,13,30,12.0,0.0
948,58.0,3,30,11.0,0.0
949,55.0,1,30,12.0,0.0
950,82.0,2,120,10.0,0.0
951,79.0,0,120,0.0,0.0
952,79.0,1,90,6.0,0.0
953,67.0,0,120,1.0,0.0
954,70.0,4,30,11.0,0.0
955,67.0,5,90,4.0,0.0
956,70.0,0,120,2.0,0.0
957,67.0,11,120,2.0,0.0
958,58.0,34,30,12.0,0.0
959,67.0,15,90,5.0,0.0
960,67.0,2,60,13.0,0.0
961,58.0,0,120,3.0,0.0
962,55.0,20,120,3.0,0.0
963,55.0,3,60,14.0,0.0
964,70.0,1,30,11.0,0.0
965,58.0,13,30,12.0,0.0
966,70.0,4,30,11.0,0.0
967,58.0,1,30,12.0,0.0
968,82.0,2,60,10.0,0.0
969,82.0,2,15,0.0,0.0
970,91.0,0,60,0.0,0.0
971,79.0,1,90,6.0,0.0
972,70.0,2,15,1.0,0.0
973,70.0,4,30,11.0,0.0
974,67.0,5,90,4.0,0.0
975,70.0,9,60,2.0,0.0
976,58.0,19,30,12.0,0.0
977,67.0,17,90,5.0,0.0
978,55.0,2,60,13.0,0.0
979,58.0,0,60,3.0,0.0
980,43.0,3,60,14.0,0.0
981,70.0,1,30,11.0,0.0
982,58.0,13,30,12.0,0.0
983,70.0,4,30,11.0,0.0
984,58.0,36,30,12.0,0.0
985,81.0,2,60,10.0,0.0
986,91.0,0,60,0.0,0.0
987,81.0,2,60,0.0,0.0
988,69.0,2,60,1.0,0.0
989,79.0,1,90,6.0,0.0
990,67.0,5,90,4.0,0.0
991,72.0,4,30,11.0,0.0
992,69.0,9,60,2.0,0.0
993,60.0,19,30,12.0,0.0
994,67.0,17,90,5.0,0.0
995,57.0,2,60,13.0,0.0
996,57.0,0,60,3.0,0.0
997,45.0,3,60,14.0,0.0
998,72.0,1,30,11.0,0.0
999,60.0,13,30,12.0,0.0
1000,72.0,4,30,11.0,0.0
1001,60.0,36,30,12.0,0.0
1002,79.0,2,60,10.0,0.0
1003,91.0,2,60,0.0,0.0
1004,79.0,0,60,0.0,0.0
1005,79.0,1,90,6.0,0.0
1006,67.0,2,60,1.0,0.0
1007,74.0,4,30,11.0,0.0
1008,67.0,5,90,4.0,0.0
1009,67.0,9,60,2.0,0.0
1010,62.0,19,30,12.0,0.0
1011,67.0,17,90,5.0,0.0
1012,58.0,2,60,13.0,0.0
1013,55.0,0,60,3.0,0.0
1014,46.0,3,60,14.0,0.0
1015,62.0,1,30,11.0,0.0
1016,58.0,13,30,12.0,0.0
1017,62.0,4,30,11.0,0.0
1018,58.0,36,30,12.0,0.0
1019,78.0,2,60,10.0,0.0
1020,78.0,0,60,0.0,0.0
1021,90.0,2,60,0.0,0.0
1022,66.0,2,60,1.0,0.0
1023,60.0,4,30,11.0,0.0
1024,66.0,9,60,2.0,0.0
1025,57.0,19,30,12.0,0.0
1026,57.0,2,60,13.0,0.0
1027,57.0,0,60,3.0,0.0
1028,60.0,0,60,3.0,0.0
1029,45.0,3,60,14.0,0.0
1030,60.0,1,30,11.0,0.0
1031,57.0,36,30,12.0,0.0
1032,60.0,4,30,11.0,0.0
1033,57.0,36,30,12.0,0.0
1034,79.0,2,60,10.0,0.0
1035,79.0,0,60,0.0,0.0
1036,91.0,2,60,0.0,0.0
1037,67.0,2,60,1.0,0.0
1038,62.0,4,30,11.0,0.0
1039,67.0,9,60,2.0,0.0
1040,58.0,19,30,12.0,0.0
1041,58.0,2,60,13.0,0.0
1042,58.0,1,60,3.0,0.0
1043,62.0,0,60,3.0,0.0
1044,46.0,3,60,14.0,0.0
1045,62.0,0,30,11.0,0.0
1046,58.0,36,30,12.0,0.0
1047,62.0,4,30,11.0,0.0
1048,58.0,36,30,12.0,0.0
1049,81.0,2,60,10.0,0.0
1050,93.0,2,60,0.0,0.0
1051,81.0,0,60,0.0,0.0
1052,81.0,1,90,6.0,0.0
1053,69.0,2,60,1.0,0.0
1054,69.0,0,90,6.0,0.0
1055,69.0,5,90,4.0,0.0
1056,64.0,4,30,11.0,0.0
1057,69.0,9,60,2.0,0.0
1058,60.0,19,30,12.0,0.0
1059,57.0,17,90,5.0,0.0
1060,60.0,2,60,13.0,0.0
1061,60.0,0,60,3.0,0.0
1062,64.0,1,60,3.0,0.0
1063,48.0,3,60,14.0,0.0
1064,53.0,18,120,15.0,0.0
1065,64.0,0,30,11.0,0.0
1066,60.0,13,30,12.0,0.0
1067,64.0,4,30,11.0,0.0
1068,60.0,18,30,12.0,0.0
1069,82.0,2,60,10.0,0.0
1070,82.0,2,60,0.0,0.0
1071,82.0,0,60,1.0,0.0
1072,70.0,2,60,1.0,0.0
1073,65.0,1,90,6.0,0.0
1074,77.0,0,90,6.0,0.0
1075,65.0,5,90,4.0,0.0
1076,65.0,4,30,11.0,0.0
1077,70.0,9,60,2.0,0.0
1078,62.0,19,30,12.0,0.0
1079,53.0,17,90,5.0,0.0
1080,62.0,2,60,13.0,0.0
1081,65.0,0,60,3.0,0.0
1082,62.0,0,60,3.0,0.0
1083,50.0,3,60,14.0,0.0
1084,53.0,18,120,15.0,0.0
1085,65.0,1,30,11.0,0.0
1086,62.0,13,30,12.0,0.0
1087,65.0,4,30,11.0,0.0
1088,62.0,18,30,12.0,0.0
1089,79.0,2,60,10.0,0.0
1090,84.0,0,60,0.0,0.0
1091,91.0,2,60,0.0,0.0
1092,72.0,0,90,6.0,0.0
1093,79.0,0,60,1.0,0.0
1094,72.0,2,60,1.0,0.0
1095,60.0,1,90,6.0,0.0
1096,67.0,4,30,11.0,0.0
1097,60.0,5,90,4.0,0.0
1098,67.0,9,60,2.0,0.0
1099,60.0,19,30,12.0,0.0
1100,48.0,17,90,5.0,0.0
1101,64.0,2,60,13.0,0.0
1102,55.0,0,60,3.0,0.0
1103,52.0,1,60,3.0,0.0
1104,52.0,3,60,14.0,0.0
1105,67.0,0,30,11.0,0.0
1106,60.0,13,30,12.0,0.0
1107,67.0,4,30,11.0,0.0
1108,60.0,36,30,12.0,0.0
1109,81.0,2,60,10.0,0.0
1110,93.0,0,60,0.0,0.0
1111,84.0,2,60,0.0,0.0
1112,60.0,0,90,6.0,0.0
1113,72.0,1,90,6.0,0.0
1114,72.0,2,60,1.0,0.0
1115,81.0,0,60,1.0,0.0
1116,60.0,5,90,4.0,0.0
1117,69.0,4,30,11.0,0.0
1118,69.0,9,60,2.0,0.0
1119,60.0,19,30,12.0,0.0
1120,48.0,17,90,5.0,0.0
1121,65.0,2,60,13.0,0.0
1122,53.0,1,60,3.0,0.0
1123,57.0,0,60,3.0,0.0
1124,53.0,3,60,14.0,0.0
1125,53.0,18,120,15.0,0.0
1126,69.0,0,30,11.0,0.0
1127,60.0,13,30,12.0,0.0
1128,69.0,4,30,11.0,0.0
1129,60.0,18,30,12.0,0.0
1130,77.0,2,60,10.0,0.0
1131,86.0,0,60,0.0,0.0
1132,89.0,2,60,0.0,0.0
1133,65.0,1,90,6.0,0.0
1134,74.0,0,60,1.0,0.0
1135,77.0,0,90,6.0,0.0
1136,77.0,2,60,1.0,0.0
1137,69.0,4,30,11.0,0.0
1138,69.0,5,90,4.0,0.0
1139,65.0,9,60,2.0,0.0
1140,69.0,0,60,2.0,0.0
1141,65.0,19,30,12.0,0.0
1142,65.0,17,90,5.0,0.0
1143,62.0,2,60,13.0,0.0
1144,57.0,1,60,3.0,0.0
1145,53.0,0,60,3.0,0.0
1146,50.0,3,60,14.0,0.0
1147,69.0,0,30,11.0,0.0
1148,65.0,13,30,12.0,0.0
1149,69.0,4,30,11.0,0.0
1150,65.0,18,30,12.0,0.0
1151,74.0,2,60,10.0,0.0
1152,86.0,2,60,0.0,0.0
1153,74.0,2,60,1.0,0.0
1154,77.0,1,90,6.0,0.0
1155,65.0,0,90,6.0,0.0
1156,82.0,0,60,1.0,0.0
1157,67.0,4,30,11.0,0.0
1158,67.0,5,90,4.0,0.0
1159,74.0,0,60,2.0,0.0
1160,70.0,9,60,2.0,0.0
1161,65.0,19,30,12.0,0.0
1162,65.0,17,90,5.0,0.0
1163,58.0,2,60,13.0,0.0
1164,62.0,0,60,3.0,0.0
1165,58.0,1,60,3.0,0.0
1166,46.0,3,60,14.0,0.0
1167,53.0,18,15,15.0,0.0
1168,67.0,0,30,11.0,0.0
1169,58.0,13,30,12.0,0.0
1170,67.0,4,30,11.0,0.0
1171,58.0,18,30,12.0,0.0
1172,79.0,2,60,10.0,0.0
1173,86.0,0,60,0.0,0.0
1174,91.0,2,60,0.0,0.0
1175,77.0,0,90,6.0,0.0
1176,74.0,0,60,1.0,0.0
1177,82.0,2,60,1.0,0.0
1178,65.0,1,90,6.0,0.0
1179,67.0,5,90,4.0,0.0
1180,67.0,4,30,11.0,0.0
1181,70.0,0,60,2.0,0.0
1182,79.0,9,60,2.0,0.0
1183,58.0,19,30,12.0,0.0
1184,65.0,17,90,5.0,0.0
1185,55.0,2,60,13.0,0.0
1186,67.0,1,60,3.0,0.0
1187,58.0,0,60,3.0,0.0
1188,43.0,3,60,14.0,0.0
1189,53.0,18,15,15.0,0.0
1190,67.0,0,30,11.0,0.0
1191,58.0,13,30,12.0,0.0
1192,67.0,4,30,11.0,0.0
1193,58.0,18,30,12.0,0.0
1194,55.0,2,60,10.0,0.0
1195,64.0,0,60,10.0,0.0
1196,84.0,0,60,0.0,0.0
1197,88.0,2,60,0.0,0.0
1198,79.0,0,60,1.0,0.0
1199,72.0,1,90,6.0,0.0
1200,60.0,0,90,6.0,0.0
1201,76.0,2,60,1.0,0.0
1202,67.0,5,90,4.0,0.0
1203,67.0,4,30,11.0,0.0
1204,67.0,0,60,2.0,0.0
1205,76.0,9,60,2.0,0.0
1206,58.0,19,30,12.0,0.0
1207,60.0,17,90,5.0,0.0
1208,60.0,2,60,13.0,0.0
1209,64.0,1,60,3.0,0.0
1210,55.0,0,60,3.0,0.0
1211,48.0,3,60,14.0,0.0
1212,67.0,0,30,11.0,0.0
1213,58.0,13,30,12.0,0.0
1214,67.0,4,30,11.0,0.0
1215,58.0,36,30,12.0,0.0
1216,76.0,2,60,10.0,0.0
1217,88.0,2,60,0.0,0.0
1218,84.0,0,60,0.0,0.0
1219,79.0,2,60,1.0,0.0
1220,60.0,1,90,6.0,0.0
1221,76.0,0,60,1.0,0.0
1222,72.0,0,90,6.0,0.0
1223,58.0,4,30,11.0,0.0
1224,67.0,5,90,4.0,0.0
1225,76.0,9,60,2.0,0.0
1226,67.0,0,60,2.0,0.0
1227,55.0,19,30,12.0,0.0
1228,60.0,17,90,5.0,0.0
1229,48.0,2,60,13.0,0.0
1230,64.0,1,60,3.0,0.0
1231,55.0,0,60,3.0,0.0
1232,36.0,3,60,14.0,0.0
1233,58.0,0,30,11.0,0.0
1234,55.0,13,30,12.0,0.0
1235,58.0,4,30,11.0,0.0
1236,55.0,119,30,12.0,0.0
1237,77.0,2,120,10.0,0.0
1238,89.0,0,120,0.0,0.0
1239,84.0,2,120,0.0,0.0
1240,65.0,0,120,6.0,0.0
1241,77.0,0,120,1.0,0.0
1242,81.0,1,120,1.0,0.0
1243,57.0,0,120,11.0,0.0
1244,65.0,1,120,4.0,0.0
1245,77.0,0,120,2.0,0.0
1246,69.0,3,120,2.0,0.0
1247,53.0,1,120,12.0,0.0
1248,57.0,5,120,5.0,0.0
1249,53.0,2,120,13.0,0.0
1250,65.0,1,120,3.0,0.0
1251,57.0,0,120,3.0,0.0
1252,41.0,1,120,14.0,0.0
1253,41.0,131,120,15.0,0.0
1254,65.0,5,30,10.0,0.0
1255,57.0,6,30,11.0,0.0
1256,60.0,29,30,12.0,0.0
1257,65.0,0,60,13.0,0.0
1258,53.0,3,60,14.0,0.0
1259,65.0,5,30,10.0,0.0
1260,57.0,3,30,11.0,0.0
1261,60.0,29,30,12.0,0.0
1262,65.0,5,30,10.0,0.0
1263,57.0,6,30,11.0,0.0
1264,60.0,29,30,12.0,0.0
1265,65.0,5,30,10.0,0.0
1266,57.0,6,30,11.0,0.0
1267,60.0,29,30,12.0,0.0
1268,60.0,3,60,13.0,0.0
1269,48.0,3,60,14.0,0.0
1270,65.0,5,30,10.0,0.0
1271,57.0,0,30,11.0,0.0
1272,60.0,29,30,12.0,0.0
1273,65.0,5,30,10.0,0.0
1274,57.0,6,30,11.0,0.0
1275,60.0,74,30,12.0,0.0
1276,65.0,2,120,10.0,0.0
1277,89.0,2,120,0.0,0.0
1278,84.0,0,120,0.0,0.0
1279,65.0,0,120,6.0,0.0
1280,77.0,1,120,1.0,0.0
1281,72.0,0,120,1.0,0.0
1282,65.0,0,120,4.0,0.0
1283,57.0,1,120,11.0,0.0
1284,77.0,0,120,2.0,0.0
1285,69.0,3,120,2.0,0.0
1286,60.0,1,120,12.0,0.0
1287,57.0,7,120,5.0,0.0
1288,60.0,3,60,13.0,0.0
1289,53.0,2,120,3.0,0.0
1290,48.0,42,60,14.0,0.0
1291,41.0,56,120,15.0,0.0
1292,57.0,3,60,13.0,0.0
1293,45.0,72,60,14.0,0.0
1294,65.0,5,30,10.0,0.0
1295,57.0,6,30,11.0,0.0
1296,60.0,29,30,12.0,0.0
1297,57.0,0,60,13.0,0.0
1298,45.0,3,60,14.0,0.0
1299,65.0,5,30,10.0,0.0
1300,57.0,3,30,11.0,0.0
1301,60.0,29,30,12.0,0.0
1302,65.0,5,30,10.0,0.0
1303,57.0,6,30,11.0,0.0
1304,60.0,29,30,12.0,0.0
1305,65.0,5,30,10.0,0.0
1306,57.0,6,30,11.0,0.0
1307,59.0,29,30,12.0,0.0
1308,53.0,0,60,13.0,0.0
1309,41.0,3,60,14.0,0.0
1310,65.0,5,30,10.0,0.0
1311,57.0,3,30,11.0,0.0
1312,59.0,29,30,12.0,0.0
1313,65.0,5,30,10.0,0.0
1314,57.0,6,30,11.0,0.0
1315,59.0,59,30,12.0,0.0
1316,65.0,15,60,10.0,0.0
1317,91.0,2,120,0.0,0.0
1318,88.0,0,120,0.0,0.0
1319,79.0,1,120,1.0,0.0
1320,72.0,0,120,6.0,0.0
1321,76.0,0,120,1.0,0.0
1322,60.0,0,120,6.0,0.0
1323,55.0,0,120,11.0,0.0
1324,67.0,1,120,4.0,0.0
1325,76.0,0,120,2.0,0.0
1326,79.0,3,120,2.0,0.0
1327,60.0,1,120,12.0,0.0
1328,60.0,7,120,5.0,0.0
1329,48.0,3,60,13.0,0.0
1330,52.0,0,120,3.0,0.0
1331,55.0,43,120,3.0,0.0
1332,36.0,42,60,14.0,0.0
1333,67.0,2,60,10.0,0.0
1334,64.0,90,60,10.0,0.0
1335,67.0,5,30,10.0,0.0
1336,61.0,6,30,11.0,0.0
1337,58.0,29,30,12.0,0.0
1338,58.0,0,60,13.0,0.0
1339,46.0,3,60,14.0,0.0
1340,67.0,5,30,10.0,0.0
1341,61.0,3,30,11.0,0.0
1342,58.0,29,30,12.0,0.0
1343,67.0,5,30,10.0,0.0
1344,61.0,6,30,11.0,0.0
1345,58.0,29,30,12.0,0.0
1346,67.0,5,30,10.0,0.0
1347,61.0,6,30,11.0,0.0
1348,58.0,29,30,12.0,0.0
1349,55.0,3,60,13.0,0.0
1350,43.0,3,60,14.0,0.0
1351,67.0,5,30,10.0,0.0
1352,61.0,0,30,11.0,0.0
1353,58.0,29,30,12.0,0.0
1354,67.0,5,30,10.0,0.0
1355,61.0,6,30,11.0,0.0
1356,58.0,74,30,12.0,0.0
1357,67.0,2,120,10.0,0.0
1358,88.0,0,120,0.0,0.0
1359,91.0,2,120,0.0,0.0
1360,79.0,0,120,1.0,0.0
1361,76.0,0,120,1.0,0.0
1362,72.0,1,120,6.0,0.0
1363,60.0,0,120,6.0,0.0
1364,60.0,0,120,11.0,0.0
1365,67.0,1,120,4.0,0.0
1366,79.0,3,120,2.0,0.0
1367,76.0,0,120,2.0,0.0
1368,58.0,1,120,12.0,0.0
1369,60.0,7,120,5.0,0.0
1370,55.0,3,60,13.0,0.0
1371,55.0,58,120,3.0,0.0
1372,52.0,0,120,3.0,0.0
1373,43.0,42,60,14.0,0.0
1374,52.0,3,60,13.0,0.0
1375,40.0,72,60,14.0,0.0
1376,67.0,5,30,10.0,0.0
1377,60.0,6,30,11.0,0.0
1378,58.0,29,30,12.0,0.0
1379,52.0,0,60,13.0,0.0
1380,40.0,3,60,14.0,0.0
1381,67.0,5,30,10.0,0.0
1382,60.0,3,30,11.0,0.0
1383,58.0,29,30,12.0,0.0
1384,67.0,5,30,10.0,0.0
1385,60.0,6,30,11.0,0.0
1386,58.0,29,30,12.0,0.0
1387,67.0,5,30,10.0,0.0
1388,60.0,6,30,11.0,0.0
1389,58.0,29,30,12.0,0.0
1390,48.0,0,60,13.0,0.0
1391,36.0,3,60,14.0,0.0
1392,67.0,5,30,10.0,0.0
1393,60.0,3,30,11.0,0.0
1394,58.0,29,30,12.0,0.0
1395,67.0,5,30,10.0,0.0
1396,60.0,6,30,11.0,0.0
1397,58.0,59,30,12.0,0.0
1398,67.0,15,60,10.0,0.0
1399,93.0,0,120,0.0,0.0
1400,89.0,2,120,0.0,0.0
1401,77.0,1,120,1.0,0.0
1402,81.0,0,120,1.0,0.0
1403,65.0,0,120,6.0,0.0
1404,69.0,0,120,4.0,0.0
1405,60.0,1,120,11.0,0.0
1406,77.0,0,120,2.0,0.0
1407,81.0,3,120,2.0,0.0
1408,57.0,1,120,12.0,0.0
1409,65.0,7,120,5.0,0.0
1410,53.0,3,60,13.0,0.0
1411,57.0,0,120,3.0,0.0
1412,53.0,2,120,3.0,0.0
1413,41.0,42,60,14.0,0.0
1414,53.0,41,120,15.0,0.0
1415,69.0,2,60,10.0,0.0
1416,65.0,122,60,10.0,0.0
1417,89.0,2,60,0.0,0.0
1418,77.0,0,60,0.0,0.0
1419,72.0,1,90,6.0,0.0
1420,77.0,2,60,1.0,0.0
1421,60.0,0,90,6.0,0.0
1422,65.0,5,90,4.0,0.0
1423,77.0,11,60,2.0,0.0
1424,65.0,82,90,5.0,0.0
1425,65.0,17,60,3.0,0.0
1426,84.0,2,60,0.0,0.0
1427,84.0,0,60,1.0,0.0
1428,60.0,1,90,6.0,0.0
1429,72.0,2,60,1.0,0.0
1430,72.0,0,90,6.0,0.0
1431,72.0,5,90,4.0,0.0
1432,72.0,11,60,2.0,0.0
1433,60.0,82,90,5.0,0.0
1434,60.0,17,60,3.0,0.0
1435,84.0,2,60,0.0,0.0
1436,84.0,2,60,1.0,0.0
1437,72.0,1,90,6.0,0.0
1438,60.0,0,90,6.0,0.0
1439,72.0,0,60,1.0,0.0
1440,72.0,5,90,4.0,0.0
1441,72.0,3,60,2.0,0.0
1442,53.0,6,60,12.0,0.0
1443,60.0,39,90,5.0,0.0
1444,53.0,2,60,13.0,0.0
1445,60.0,1,60,3.0,0.0
1446,41.0,16,60,14.0,0.0
1447,53.0,43,120,15.0,0.0
1448,81.0,2,60,0.0,0.0
1449,69.0,0,60,1.0,0.0
1450,60.0,1,90,6.0,0.0
1451,72.0,0,90,6.0,0.0
1452,81.0,2,60,1.0,0.0
1453,69.0,5,90,4.0,0.0
1454,69.0,3,60,2.0,0.0
1455,57.0,6,60,12.0,0.0
1456,57.0,50,90,5.0,0.0
1457,57.0,2,60,13.0,0.0
1458,57.0,1,60,3.0,0.0
1459,45.0,16,60,14.0,0.0
1460,77.0,5,30,10.0,0.0
1461,81.0,2,60,0.0,0.0
1462,60.0,0,90,6.0,0.0
1463,72.0,1,90,6.0,0.0
1464,81.0,0,60,1.0,0.0
1465,69.0,2,60,1.0,0.0
1466,65.0,27,30,11.0,0.0
1467,69.0,5,90,4.0,0.0
1468,69.0,3,60,2.0,0.0
1469,57.0,1,60,12.0,0.0
1470,57.0,10,90,5.0,0.0
1471,57.0,2,60,13.0,0.0
1472,57.0,1,60,3.0,0.0
1473,45.0,16,60,14.0,0.0
1474,77.0,5,30,10.0,0.0
1475,65.0,0,30,11.0,0.0
1476,77.0,5,30,10.0,0.0
1477,65.0,35,30,11.0,0.0
1478,77.0,5,30,10.0,0.0
1479,77.0,2,60,0.0,0.0
1480,60.0,1,90,6.0,0.0
1481,72.0,0,90,6.0,0.0
1482,65.0,2,60,1.0,0.0
1483,77.0,0,60,1.0,0.0
1484,65.0,5,90,4.0,0.0
1485,65.0,27,30,11.0,0.0
1486,65.0,3,60,2.0,0.0
1487,60.0,1,60,12.0,0.0
1488,53.0,10,90,5.0,0.0
1489,60.0,2,60,13.0,0.0
1490,53.0,1,60,3.0,0.0
1491,48.0,16,60,14.0,0.0
1492,77.0,5,30,10.0,0.0
1493,65.0,0,30,11.0,0.0
1494,77.0,5,30,10.0,0.0
1495,65.0,65,30,11.0,0.0
1496,77.0,2,60,10.0,0.0
1497,72.0,2,60,0.0,0.0
1498,72.0,0,120,6.0,0.0
1499,60.0,1,120,6.0,0.0
1500,60.0,1,60,1.0,0.0
1501,72.0,0,60,1.0,0.0
1502,60.0,5,120,4.0,0.0
1503,65.0,1,60,11.0,0.0
1504,60.0,3,60,2.0,0.0
1505,60.0,6,60,12.0,0.0
1506,48.0,50,120,5.0,0.0
1507,60.0,2,60,13.0,0.0
1508,48.0,1,60,3.0,0.0
1509,48.0,42,60,14.0,0.0
1510,79.0,4,60,10.0,0.0
1511,67.0,0,60,11.0,0.0
1512,76.0,5,60,10.0,0.0
1513,64.0,117,60,11.0,0.0
1514,82.0,2,60,0.0,0.0
1515,82.0,0,60,1.0,0.0
1516,72.0,1,90,6.0,0.0
1517,60.0,0,90,6.0,0.0
1518,70.0,2,60,1.0,0.0
1519,60.0,5,90,4.0,0.0
1520,70.0,0,60,2.0,0.0
1521,82.0,11,60,2.0,0.0
1522,48.0,82,90,5.0,0.0
1523,58.0,17,60,3.0,0.0
1524,91.0,2,60,0.0,0.0
1525,79.0,0,60,0.0,0.0
1526,72.0,0,90,6.0,0.0
1527,60.0,1,90,6.0,0.0
1528,79.0,2,60,1.0,0.0
1529,67.0,0,60,1.0,0.0
1530,60.0,5,90,4.0,0.0
1531,79.0,0,60,2.0,0.0
1532,67.0,11,60,2.0,0.0
1533,48.0,82,90,5.0,0.0
1534,55.0,17,60,3.0,0.0
1535,67.0,0,60,3.0,0.0
1536,79.0,0,60,0.0,0.0
1537,91.0,2,60,0.0,0.0
1538,79.0,0,60,1.0,0.0
1539,60.0,1,90,6.0,0.0
1540,72.0,0,90,6.0,0.0
1541,67.0,2,60,1.0,0.0
1542,60.0,5,90,4.0,0.0
1543,67.0,0,60,2.0,0.0
1544,79.0,3,60,2.0,0.0
1545,48.0,6,60,12.0,0.0
1546,48.0,82,90,5.0,0.0
1547,48.0,2,60,13.0,0.0
1548,55.0,1,60,3.0,0.0
1549,67.0,0,60,3.0,0.0
1550,36.0,16,60,14.0,0.0
1551,88.0,0,60,0.0,0.0
1552,76.0,2,60,0.0,0.0
1553,72.0,1,90,6.0,0.0
1554,60.0,0,90,6.0,0.0
1555,76.0,2,60,1.0,0.0
1556,64.0,0,60,1.0,0.0
1557,60.0,5,90,4.0,0.0
1558,76.0,3,60,2.0,0.0
1559,64.0,0,60,2.0,0.0
1560,55.0,6,60,12.0,0.0
1561,48.0,50,90,5.0,0.0
1562,55.0,2,60,13.0,0.0
1563,64.0,1,60,3.0,0.0
1564,52.0,0,60,3.0,0.0
1565,43.0,16,60,14.0,0.0
1566,79.0,5,30,10.0,0.0
1567,88.0,0,60,0.0,0.0
1568,76.0,2,60,0.0,0.0
1569,72.0,0,90,6.0,0.0
1570,64.0,0,60,1.0,0.0
1571,60.0,1,90,6.0,0.0
1572,76.0,2,60,1.0,0.0
1573,60.0,5,90,4.0,0.0
1574,67.0,27,30,11.0,0.0
1575,76.0,0,60,2.0,0.0
1576,64.0,3,60,2.0,0.0
1577,55.0,1,60,12.0,0.0
1578,48.0,10,90,5.0,0.0
1579,55.0,0,60,13.0,0.0
1580,52.0,1,60,3.0,0.0
1581,64.0,0,60,3.0,0.0
1582,43.0,16,60,14.0,0.0
1583,79.0,5,30,10.0,0.0
1584,67.0,2,30,11.0,0.0
1585,79.0,5,30,10.0,0.0
1586,67.0,35,30,11.0,0.0
1587,79.0,5,30,10.0,0.0
1588,84.0,0,60,0.0,0.0
1589,72.0,2,60,0.0,0.0
1590,72.0,0,60,1.0,0.0
1591,60.0,2,60,1.0,0.0
1592,60.0,0,90,6.0,0.0
1593,72.0,1,90,6.0,0.0
1594,67.0,27,30,11.0,0.0
1595,60.0,5,90,4.0,0.0
1596,60.0,3,60,2.0,0.0
1597,72.0,0,60,2.0,0.0
1598,60.0,1,60,12.0,0.0
1599,48.0,10,90,5.0,0.0
1600,60.0,2,60,13.0,0.0
1601,48.0,1,60,3.0,0.0
1602,60.0,0,60,3.0,0.0
1603,48.0,16,60,14.0,0.0
1604,79.0,5,30,10.0,0.0
1605,67.0,0,30,11.0,0.0
1606,79.0,5,30,10.0,0.0
1607,67.0,65,30,11.0,0.0
1608,79.0,2,60,10.0,0.0
1609,77.0,2,60,0.0,0.0
1610,89.0,0,60,0.0,0.0
1611,77.0,1,60,1.0,0.0
1612,65.0,1,120,6.0,0.0
1613,65.0,0,60,1.0,0.0
1614,53.0,5,120,4.0,0.0
1615,67.0,1,60,11.0,0.0
1616,65.0,0,60,2.0,0.0
1617,77.0,3,60,2.0,0.0
1618,57.0,6,60,12.0,0.0
1619,53.0,9,120,5.0,0.0
1620,57.0,2,60,13.0,0.0
1621,65.0,1,60,3.0,0.0
1622,53.0,0,60,3.0,0.0
1623,45.0,42,60,14.0,0.0
1624,41.0,41,120,15.0,0.0
1625,81.0,4,60,10.0,0.0
1626,69.0,0,60,11.0,0.0
1627,77.0,5,60,10.0,0.0
1628,65.0,85,60,11.0,0.0
1629,60.0,5,30,10.0,0.0
1630,55.0,6,30,11.0,0.0
1631,52.0,29,30,12.0,0.0
1632,60.0,3,60,13.0,0.0
1633,48.0,3,60,14.0,0.0
1634,60.0,5,30,10.0,0.0
1635,55.0,0,30,11.0,0.0
1636,52.0,29,30,12.0,0.0
1637,60.0,5,30,10.0,0.0
1638,55.0,6,30,11.0,0.0
1639,52.0,29,30,12.0,0.0
1640,60.0,5,30,10.0,0.0
1641,55.0,6,30,11.0,0.0
1642,52.0,29,30,12.0,0.0
1643,55.0,3,60,13.0,0.0
1644,43.0,3,60,14.0,0.0
1645,60.0,5,30,10.0,0.0
1646,55.0,0,30,11.0,0.0
1647,52.0,29,30,12.0,0.0
1648,60.0,5,30,10.0,0.0
1649,55.0,6,30,11.0,0.0
1650,52.0,74,30,12.0,0.0
1651,60.0,2,120,10.0,0.0
1652,84.0,2,120,0.0,0.0
1653,72.0,0,120,6.0,0.0
1654,84.0,1,120,1.0,0.0
1655,76.0,0,120,1.0,0.0
1656,60.0,1,120,4.0,0.0
1657,55.0,0,120,11.0,0.0
1658,72.0,3,120,2.0,0.0
1659,52.0,1,120,12.0,0.0
1660,60.0,7,120,5.0,0.0
1661,55.0,3,60,13.0,0.0
1662,60.0,58,120,3.0,0.0
1663,43.0,42,60,14.0,0.0
1664,52.0,3,60,13.0,0.0
1665,40.0,72,60,14.0,0.0
1666,60.0,5,30,10.0,0.0
1667,55.0,6,30,11.0,0.0
1668,52.0,29,30,12.0,0.0
1669,52.0,3,60,13.0,0.0
1670,40.0,3,60,14.0,0.0
1671,60.0,5,30,10.0,0.0
1672,55.0,0,30,11.0,0.0
1673,52.0,29,30,12.0,0.0
1674,60.0,5,30,10.0,0.0
1675,55.0,6,30,11.0,0.0
1676,52.0,29,30,12.0,0.0
1677,60.0,5,30,10.0,0.0
1678,55.0,6,30,11.0,0.0
1679,51.0,29,30,12.0,0.0
1680,48.0,0,60,13.0,0.0
1681,36.0,3,60,14.0,0.0
1682,60.0,5,30,10.0,0.0
1683,55.0,3,30,11.0,0.0
1684,51.0,29,30,12.0,0.0
1685,60.0,5,30,10.0,0.0
1686,55.0,6,30,11.0,0.0
1687,51.0,59,30,12.0,0.0
1688,60.0,15,60,10.0,0.0
1689,83.0,2,120,0.0,0.0
1690,86.0,0,120,0.0,0.0
1691,79.0,1,120,6.0,0.0
1692,83.0,0,120,1.0,0.0
1693,86.0,0,120,1.0,0.0
1694,55.0,1,120,11.0,0.0
1695,67.0,0,120,4.0,0.0
1696,74.0,0,120,2.0,0.0
1697,71.0,3,120,2.0,0.0
1698,50.0,1,120,12.0,0.0
1699,67.0,7,120,5.0,0.0
1700,43.0,3,60,13.0,0.0
1701,62.0,2,120,3.0,0.0
1702,59.0,0,120,3.0,0.0
1703,31.0,42,60,14.0,0.0
1704,53.0,41,120,15.0,0.0
1705,62.0,2,60,10.0,0.0
1706,59.0,90,60,10.0,0.0
1707,62.0,5,30,10.0,0.0
1708,56.0,6,30,11.0,0.0
1709,53.0,29,30,12.0,0.0
1710,65.0,0,60,13.0,0.0
1711,53.0,3,60,14.0,0.0
1712,62.0,5,30,10.0,0.0
1713,56.0,3,30,11.0,0.0
1714,53.0,29,30,12.0,0.0
1715,62.0,5,30,10.0,0.0
1716,56.0,6,30,11.0,0.0
1717,53.0,29,30,12.0,0.0
1718,62.0,5,30,10.0,0.0
1719,56.0,6,30,11.0,0.0
1720,53.0,29,30,12.0,0.0
1721,62.0,3,60,13.0,0.0
1722,50.0,3,60,14.0,0.0
1723,62.0,5,30,10.0,0.0
1724,56.0,0,30,11.0,0.0
1725,53.0,29,30,12.0,0.0
1726,62.0,5,30,10.0,0.0
1727,56.0,6,30,11.0,0.0
1728,53.0,74,30,12.0,0.0
1729,62.0,2,120,10.0,0.0
1730,83.0,2,120,0.0,0.0
1731,86.0,0,120,0.0,0.0
1732,79.0,1,120,6.0,0.0
1733,79.0,0,120,1.0,0.0
1734,74.0,0,120,1.0,0.0
1735,67.0,1,120,4.0,0.0
1736,56.0,0,120,11.0,0.0
1737,74.0,0,120,2.0,0.0
1738,71.0,3,120,2.0,0.0
1739,53.0,1,120,12.0,0.0
1740,67.0,7,120,5.0,0.0
1741,62.0,3,60,13.0,0.0
1742,59.0,2,120,3.0,0.0
1743,62.0,0,120,3.0,0.0
1744,50.0,42,60,14.0,0.0
1745,53.0,56,120,15.0,0.0
1746,59.0,3,60,13.0,0.0
1747,47.0,72,60,14.0,0.0
1748,62.0,5,30,10.0,0.0
1749,55.0,6,30,11.0,0.0
1750,53.0,29,30,12.0,0.0
1751,59.0,0,60,13.0,0.0
1752,47.0,3,60,14.0,0.0
1753,62.0,5,30,10.0,0.0
1754,55.0,3,30,11.0,0.0
1755,53.0,29,30,12.0,0.0
1756,62.0,5,30,10.0,0.0
1757,55.0,6,30,11.0,0.0
1758,53.0,29,30,12.0,0.0
1759,62.0,5,30,10.0,0.0
1760,55.0,6,30,11.0,0.0
1761,53.0,29,30,12.0,0.0
1762,55.0,0,60,13.0,0.0
1763,43.0,3,60,14.0,0.0
1764,62.0,5,30,10.0,0.0
1765,55.0,3,30,11.0,0.0
1766,53.0,29,30,12.0,0.0
1767,62.0,5,30,10.0,0.0
1768,55.0,6,30,11.0,0.0
1769,53.0,59,30,12.0,0.0
1770,62.0,15,60,10.0,0.0
1771,84.0,0,120,0.0,0.0
1772,88.0,2,120,0.0,0.0
1773,79.0,1,120,1.0,0.0
1774,76.0,0,120,1.0,0.0
1775,79.0,0,120,6.0,0.0
1776,67.0,1,120,4.0,0.0
1777,55.0,0,120,11.0,0.0
1778,76.0,3,120,2.0,0.0
1779,72.0,0,120,2.0,0.0
1780,52.0,1,120,12.0,0.0
1781,67.0,7,120,5.0,0.0
1782,60.0,3,60,13.0,0.0
1783,60.0,43,120,3.0,0.0
1784,64.0,0,120,3.0,0.0
1785,48.0,42,60,14.0,0.0
1786,64.0,2,60,10.0,0.0
1787,60.0,122,60,10.0,0.0
1788,84.0,2,60,0.0,0.0
1789,84.0,0,60,1.0,0.0
1790,72.0,2,60,1.0,0.0
1791,79.0,1,90,6.0,0.0
1792,67.0,5,90,4.0,0.0
1793,84.0,11,60,2.0,0.0
1794,72.0,0,60,2.0,0.0
1795,67.0,82,90,5.0,0.0
1796,60.0,17,60,3.0,0.0
1797,91.0,0,60,0.0,0.0
1798,79.0,2,60,0.0,0.0
1799,67.0,2,60,1.0,0.0
1800,79.0,0,60,1.0,0.0
1801,79.0,1,90,6.0,0.0
1802,67.0,5,90,4.0,0.0
1803,67.0,11,60,2.0,0.0
1804,79.0,0,60,2.0,0.0
1805,67.0,82,90,5.0,0.0
1806,67.0,0,60,3.0,0.0
1807,55.0,17,60,3.0,0.0
1808,91.0,0,60,0.0,0.0
1809,79.0,2,60,0.0,0.0
1810,79.0,1,90,6.0,0.0
1811,79.0,2,60,1.0,0.0
1812,67.0,0,60,1.0,0.0
1813,67.0,5,90,4.0,0.0
1814,79.0,0,60,2.0,0.0
1815,67.0,3,60,2.0,0.0
1816,60.0,6,60,12.0,0.0
1817,67.0,82,90,5.0,0.0
1818,60.0,2,60,13.0,0.0
1819,67.0,0,60,3.0,0.0
1820,55.0,1,60,3.0,0.0
1821,48.0,16,60,14.0,0.0
1822,88.0,2,60,0.0,0.0
1823,76.0,0,60,0.0,0.0
1824,79.0,1,90,6.0,0.0
1825,64.0,2,60,1.0,0.0
1826,76.0,0,60,1.0,0.0
1827,67.0,5,90,4.0,0.0
1828,64.0,0,60,2.0,0.0
1829,76.0,3,60,2.0,0.0
1830,64.0,6,60,12.0,0.0
1831,67.0,50,90,5.0,0.0
1832,64.0,2,60,13.0,0.0
1833,52.0,1,60,3.0,0.0
1834,64.0,0,60,3.0,0.0
1835,52.0,16,60,14.0,0.0
1836,84.0,5,30,10.0,0.0
1837,76.0,2,60,0.0,0.0
1838,88.0,0,60,0.0,0.0
1839,79.0,1,90,6.0,0.0
1840,76.0,2,60,1.0,0.0
1841,64.0,0,60,1.0,0.0
1842,67.0,5,90,4.0,0.0
1843,72.0,27,30,11.0,0.0
1844,64.0,3,60,2.0,0.0
1845,76.0,0,60,2.0,0.0
1846,64.0,1,60,12.0,0.0
1847,67.0,10,90,5.0,0.0
1848,64.0,2,60,13.0,0.0
1849,52.0,0,60,3.0,0.0
1850,64.0,1,60,3.0,0.0
1851,52.0,16,60,14.0,0.0
1852,84.0,5,30,10.0,0.0
1853,72.0,0,30,11.0,0.0
1854,84.0,5,30,10.0,0.0
1855,72.0,35,30,11.0,0.0
1856,84.0,5,30,10.0,0.0
1857,84.0,2,60,0.0,0.0
1858,79.0,1,90,6.0,0.0
1859,72.0,2,60,1.0,0.0
1860,67.0,5,90,4.0,0.0
1861,72.0,27,30,11.0,0.0
1862,60.0,0,60,2.0,0.0
1863,72.0,3,60,2.0,0.0
1864,67.0,1,60,12.0,0.0
1865,67.0,10,90,5.0,0.0
1866,67.0,0,60,13.0,0.0
1867,60.0,1,60,3.0,0.0
1868,48.0,0,60,3.0,0.0
1869,55.0,16,60,14.0,0.0
1870,84.0,5,30,10.0,0.0
1871,72.0,2,30,11.0,0.0
1872,84.0,5,30,10.0,0.0
1873,72.0,65,30,11.0,0.0
1874,84.0,2,60,10.0,0.0
1875,79.0,0,60,0.0,0.0
1876,67.0,2,60,0.0,0.0
1877,55.0,1,60,1.0,0.0
1878,79.0,1,90,6.0,0.0
1879,67.0,0,60,1.0,0.0
1880,72.0,1,60,11.0,0.0
1881,67.0,5,90,4.0,0.0
1882,55.0,0,60,2.0,0.0
1883,67.0,3,60,2.0,0.0
1884,67.0,6,60,12.0,0.0
1885,67.0,20,90,5.0,0.0
1886,67.0,2,60,13.0,0.0
1887,55.0,1,60,3.0,0.0
1888,43.0,0,60,3.0,0.0
1889,55.0,16,60,14.0,0.0
1890,86.0,5,60,10.0,0.0
1891,74.0,55,60,11.0,0.0
1892,83.0,5,60,10.0,0.0
1893,71.0,117,60,11.0,0.0
1894,89.0,2,60,0.0,0.0
1895,86.0,0,60,0.0,0.0
1896,77.0,2,60,1.0,0.0
1897,79.0,1,90,6.0,0.0
1898,74.0,0,60,1.0,0.0
1899,67.0,5,90,4.0,0.0
1900,77.0,0,60,2.0,0.0
1901,74.0,11,60,2.0,0.0
1902,67.0,82,90,5.0,0.0
1903,65.0,0,60,3.0,0.0
1904,62.0,17,60,3.0,0.0
1905,83.0,0,60,0.0,0.0
1906,86.0,2,60,0.0,0.0
1907,79.0,1,90,6.0,0.0
1908,71.0,2,60,1.0,0.0
1909,74.0,0,60,1.0,0.0
1910,67.0,5,90,4.0,0.0
1911,74.0,0,60,2.0,0.0
1912,71.0,11,60,2.0,0.0
1913,67.0,82,90,5.0,0.0
1914,59.0,0,60,3.0,0.0
1915,62.0,17,60,3.0,0.0
1916,83.0,0,60,0.0,0.0
1917,86.0,2,60,0.0,0.0
1918,79.0,1,90,6.0,0.0
1919,74.0,2,60,1.0,0.0
1920,71.0,0,60,1.0,0.0
1921,67.0,5,90,4.0,0.0
1922,71.0,0,60,2.0,0.0
1923,74.0,11,60,2.0,0.0
1924,67.0,82,90,5.0,0.0
1925,62.0,0,60,3.0,0.0
1926,59.0,17,60,3.0,0.0
1927,79.0,0,60,0.0,0.0
1928,83.0,2,60,0.0,0.0
1929,79.0,1,90,6.0,0.0
1930,67.0,0,60,1.0,0.0
1931,71.0,2,60,1.0,0.0
1932,67.0,5,90,4.0,0.0
1933,67.0,11,60,2.0,0.0
1934,71.0,0,60,2.0,0.0
1935,67.0,80,90,5.0,0.0
1936,55.0,0,60,3.0,0.0
1937,59.0,17,60,3.0,0.0
1938,71.0,5,60,10.0,0.0
1939,67.0,4,60,11.0,0.0
1940,65.0,6,60,12.0,0.0
1941,62.0,3,60,13.0,0.0
1942,50.0,102,60,14.0,0.0
1943,74.0,5,60,10.0,0.0
1944,71.0,4,60,11.0,0.0
1945,62.0,6,60,12.0,0.0
1946,59.0,3,60,13.0,0.0
1947,47.0,102,60,14.0,0.0
1948,74.0,5,60,10.0,0.0
1949,71.0,4,60,11.0,0.0
1950,62.0,6,60,12.0,0.0
1951,59.0,3,60,13.0,0.0
1952,47.0,102,60,14.0,0.0
1953,77.0,5,60,10.0,0.0
1954,74.0,4,60,11.0,0.0
1955,59.0,6,60,12.0,0.0
1956,55.0,3,60,13.0,0.0
1957,43.0,104,60,14.0,0.0
1958,89.0,2,60,0.0,0.0
1959,86.0,0,60,0.0,0.0
1960,77.0,0,60,1.0,0.0
1961,74.0,2,60,1.0,0.0
1962,79.0,1,90,6.0,0.0
1963,67.0,5,90,4.0,0.0
1964,74.0,11,60,2.0,0.0
1965,77.0,0,60,2.0,0.0
1966,67.0,82,90,5.0,0.0
1967,65.0,0,60,3.0,0.0
1968,62.0,17,60,3.0,0.0
1969,83.0,0,60,0.0,0.0
1970,86.0,2,60,0.0,0.0
1971,71.0,2,60,1.0,0.0
1972,74.0,0,60,1.0,0.0
1973,79.0,1,90,6.0,0.0
1974,67.0,5,90,4.0,0.0
1975,71.0,0,60,2.0,0.0
1976,74.0,11,60,2.0,0.0
1977,67.0,82,90,5.0,0.0
1978,62.0,17,60,3.0,0.0
1979,59.0,0,60,3.0,0.0
1980,86.0,2,60,0.0,0.0
1981,83.0,0,60,0.0,0.0
1982,79.0,1,90,6.0,0.0
1983,71.0,2,60,1.0,0.0
1984,74.0,0,60,1.0,0.0
1985,67.0,5,90,4.0,0.0
1986,71.0,11,60,2.0,0.0
1987,74.0,0,60,2.0,0.0
1988,67.0,82,90,5.0,0.0
1989,62.0,0,60,3.0,0.0
1990,59.0,17,60,3.0,0.0
1991,83.0,0,60,0.0,0.0
1992,79.0,2,60,0.0,0.0
1993,67.0,2,60,1.0,0.0
1994,79.0,1,90,6.0,0.0
1995,71.0,0,60,1.0,0.0
1996,67.0,5,90,4.0,0.0
1997,67.0,11,60,2.0,0.0
1998,71.0,0,60,2.0,0.0
1999,67.0,80,90,5.0,0.0
2000,59.0,17,60,3.0,0.0
2001,55.0,0,60,3.0,0.0
2002,71.0,5,60,10.0,0.0
2003,67.0,4,60,11.0,0.0
2004,65.0,6,60,12.0,0.0
2005,62.0,3,60,13.0,0.0
2006,50.0,102,60,14.0,0.0
2007,74.0,5,60,10.0,0.0
2008,71.0,4,60,11.0,0.0
2009,62.0,6,60,12.0,0.0
2010,59.0,3,60,13.0,0.0
2011,47.0,102,60,14.0,0.0
2012,74.0,5,60,10.0,0.0
2013,71.0,4,60,11.0,0.0
2014,62.0,6,60,12.0,0.0
2015,59.0,3,60,13.0,0.0
2016,47.0,102,60,14.0,0.0
2017,77.0,5,60,10.0,0.0
2018,74.0,4,60,11.0,0.0
2019,59.0,6,60,12.0,0.0
2020,55.0,3,60,13.0,0.0
2021,43.0,104,60,14.0,0.0
2022,89.0,2,60,0.0,0.0
2023,86.0,0,60,0.0,0.0
2024,74.0,0,60,1.0,0.0
2025,77.0,2,60,1.0,0.0
2026,79.0,1,90,6.0,0.0
2027,67.0,5,90,4.0,0.0
2028,74.0,11,60,2.0,0.0
2029,77.0,0,60,2.0,0.0
2030,67.0,82,90,5.0,0.0
2031,65.0,0,60,3.0,0.0
2032,62.0,17,60,3.0,0.0
2033,83.0,2,60,0.0,0.0
2034,86.0,0,60,0.0,0.0
2035,74.0,2,60,1.0,0.0
2036,79.0,1,90,6.0,0.0
2037,71.0,0,60,1.0,0.0
2038,67.0,5,90,4.0,0.0
2039,74.0,11,60,2.0,0.0
2040,71.0,0,60,2.0,0.0
2041,67.0,82,90,5.0,0.0
2042,62.0,17,60,3.0,0.0
2043,59.0,0,60,3.0,0.0
2044,83.0,0,60,0.0,0.0
2045,86.0,2,60,0.0,0.0
2046,79.0,1,90,6.0,0.0
2047,74.0,2,60,1.0,0.0
2048,71.0,0,60,1.0,0.0
2049,67.0,5,90,4.0,0.0
2050,74.0,11,60,2.0,0.0
2051,71.0,0,60,2.0,0.0
2052,67.0,82,90,5.0,0.0
2053,62.0,17,60,3.0,0.0
2054,59.0,0,60,3.0,0.0
2055,83.0,0,60,0.0,0.0
2056,79.0,2,60,0.0,0.0
2057,79.0,1,90,6.0,0.0
2058,67.0,2,60,1.0,0.0
2059,71.0,0,60,1.0,0.0
2060,67.0,5,90,4.0,0.0
2061,67.0,11,60,2.0,0.0
2062,71.0,0,60,2.0,0.0
2063,67.0,80,90,5.0,0.0
2064,59.0,17,60,3.0,0.0
2065,55.0,0,60,3.0,0.0
2066,79.0,2,60,10.0,0.0
2067,79.0,0,60,0.0,0.0
2068,91.0,2,60,0.0,0.0
2069,79.0,1,60,1.0,0.0
2070,79.0,1,90,6.0,0.0
2071,67.0,1,60,11.0,0.0
2072,67.0,5,90,4.0,0.0
2073,79.0,0,60,2.0,0.0
2074,67.0,3,60,2.0,0.0
2075,67.0,6,60,12.0,0.0
2076,67.0,80,90,5.0,0.0
2077,55.0,2,60,13.0,0.0
2078,55.0,1,60,3.0,0.0
2079,43.0,16,60,14.0,0.0
2080,67.0,2,60,10.0,0.0
2081,67.0,0,60,0.0,0.0
2082,79.0,2,60,0.0,0.0
2083,67.0,1,60,1.0,0.0
2084,79.0,1,90,6.0,0.0
2085,55.0,1,60,11.0,0.0
2086,67.0,5,90,4.0,0.0
2087,55.0,0,60,2.0,0.0
2088,67.0,3,60,2.0,0.0
2089,55.0,6,60,12.0,0.0
2090,67.0,57,90,5.0,0.0
2091,43.0,2,60,13.0,0.0
2092,43.0,1,60,3.0,0.0
2093,31.0,16,60,14.0,0.0
2094,68.0,1,480,10.0,0.0
2095,80.0,0,120,0.0,0.0
2096,68.0,2,120,0.0,0.0
2097,72.0,0,120,6.0,0.0
2098,68.0,1,120,1.0,0.0
2099,60.0,0,120,6.0,0.0
2100,60.0,5,120,4.0,0.0
2101,56.0,4,30,11.0,0.0
2102,68.0,11,960,2.0,0.0
2103,56.0,36,30,12.0,0.0
2104,48.0,27,120,5.0,0.0
2105,44.0,2,1200,13.0,0.0
2106,56.0,20,960,3.0,0.0
2107,32.0,24,1200,14.0,0.0
2108,63.0,0,30,11.0,0.0
2109,60.0,4,30,11.0,0.0
2110,56.0,36,30,12.0,0.0
2111,63.0,4,30,11.0,0.0
2112,60.0,0,30,11.0,0.0
2113,56.0,1,30,12.0,0.0
2114,60.0,0,30,11.0,0.0
2115,63.0,4,30,11.0,0.0
2116,56.0,36,30,12.0,0.0
2117,60.0,4,30,11.0,0.0
2118,63.0,0,30,11.0,0.0
2119,56.0,36,30,12.0,0.0
2120,60.0,0,30,11.0,0.0
2121,63.0,4,30,11.0,0.0
2122,56.0,36,30,12.0,0.0
2123,63.0,0,30,11.0,0.0
2124,60.0,4,30,11.0,0.0
2125,56.0,36,30,12.0,0.0
2126,63.0,0,30,11.0,0.0
2127,60.0,4,30,11.0,0.0
2128,56.0,36,30,12.0,0.0
2129,63.0,0,30,11.0,0.0
2130,60.0,4,30,11.0,0.0
2131,56.0,36,30,12.0,0.0
2132,63.0,0,30,11.0,0.0
2133,60.0,4,30,11.0,0.0
2134,56.0,36,30,12.0,0.0
2135,63.0,0,30,11.0,0.0
2136,60.0,4,30,11.0,0.0
2137,56.0,36,30,12.0,0.0
2138,60.0,3,30,11.0,0.0
2139,63.0,0,30,11.0,0.0
2140,56.0,36,30,12.0,0.0
2141,75.0,1,360,10.0,0.0
2142,60.0,0,30,11.0,0.0
2143,63.0,4,30,11.0,0.0
2144,72.0,0,480,2.0,0.0
2145,56.0,36,30,12.0,0.0
2146,60.0,0,480,3.0,0.0
2147,63.0,4,30,11.0,0.0
2148,60.0,0,30,11.0,0.0
2149,56.0,36,30,12.0,0.0
2150,63.0,4,30,11.0,0.0
2151,60.0,0,30,11.0,0.0
2152,56.0,36,30,12.0,0.0
2153,60.0,4,30,11.0,0.0
2154,63.0,0,30,11.0,0.0
2155,56.0,36,30,12.0,0.0
2156,60.0,4,30,11.0,0.0
2157,63.0,0,30,11.0,0.0
2158,56.0,36,30,12.0,0.0
2159,60.0,4,30,11.0,0.0
2160,63.0,0,30,11.0,0.0
2161,56.0,36,30,12.0,0.0
2162,60.0,4,30,11.0,0.0
2163,63.0,0,30,11.0,0.0
2164,56.0,36,30,12.0,0.0
2165,63.0,4,30,11.0,0.0
2166,60.0,0,30,11.0,0.0
2167,56.0,36,30,12.0,0.0
2168,63.0,3,30,11.0,0.0
2169,60.0,0,30,11.0,0.0
2170,56.0,36,30,12.0,0.0
2171,77.0,2,120,10.0,0.0
2172,63.0,0,30,11.0,0.0
2173,60.0,4,30,11.0,0.0
2174,56.0,36,30,12.0,0.0
2175,60.0,4,30,11.0,0.0
2176,63.0,0,30,11.0,0.0
2177,56.0,34,30,12.0,0.0
2178,60.0,4,30,11.0,0.0
2179,63.0,0,30,11.0,0.0
2180,56.0,5,30,12.0,0.0
2181,77.0,1,120,10.0,0.0
2182,61.0,4,30,11.0,0.0
2183,63.0,0,30,11.0,0.0
2184,70.0,0,240,2.0,0.0
2185,67.0,9,240,2.0,0.0
2186,55.0,36,30,12.0,0.0
2187,58.0,0,240,3.0,0.0
2188,55.0,1,240,3.0,0.0
2189,61.0,0,30,11.0,0.0
2190,63.0,4,30,11.0,0.0
2191,55.0,36,30,12.0,0.0
2192,63.0,3,30,11.0,0.0
2193,61.0,0,30,11.0,0.0
2194,55.0,36,30,12.0,0.0
2195,70.0,2,120,10.0,0.0
2196,63.0,4,30,11.0,0.0
2197,61.0,0,30,11.0,0.0
2198,55.0,36,30,12.0,0.0
2199,63.0,4,30,11.0,0.0
2200,61.0,0,30,11.0,0.0
2201,55.0,34,30,12.0,0.0
2202,63.0,4,30,11.0,0.0
2203,61.0,0,30,11.0,0.0
2204,55.0,0,30,12.0,0.0
2205,70.0,1,120,10.0,0.0
2206,61.0,0,30,11.0,0.0
2207,63.0,4,30,11.0,0.0
2208,70.0,0,240,2.0,0.0
2209,73.0,0,240,2.0,0.0
2210,55.0,36,30,12.0,0.0
2211,56.0,2,240,13.0,0.0
2212,61.0,0,240,3.0,0.0
2213,58.0,1,240,3.0,0.0
2214,44.0,24,240,14.0,0.0
2215,61.0,4,30,11.0,0.0
2216,63.0,0,30,11.0,0.0
2217,55.0,36,30,12.0,0.0
2218,63.0,3,30,11.0,0.0
2219,61.0,0,30,11.0,0.0
2220,55.0,36,30,12.0,0.0
2221,72.0,2,120,10.0,0.0
2222,61.0,0,30,11.0,0.0
2223,63.0,4,30,11.0,0.0
2224,55.0,36,30,12.0,0.0
2225,63.0,4,30,11.0,0.0
2226,61.0,0,30,11.0,0.0
2227,55.0,34,30,12.0,0.0
2228,61.0,0,30,11.0,0.0
2229,63.0,4,30,11.0,0.0
2230,55.0,9,30,12.0,0.0
2231,73.0,1,120,10.0,0.0
2232,61.0,0,30,11.0,0.0
2233,63.0,4,30,11.0,0.0
2234,73.0,0,240,2.0,0.0
2235,70.0,0,240,2.0,0.0
2236,55.0,36,30,12.0,0.0
2237,56.0,2,240,13.0,0.0
2238,58.0,1,240,3.0,0.0
2239,61.0,0,240,3.0,0.0
2240,44.0,24,240,14.0,0.0
2241,61.0,4,30,11.0,0.0
2242,63.0,0,30,11.0,0.0
2243,55.0,36,30,12.0,0.0
2244,61.0,3,30,11.0,0.0
2245,63.0,0,30,11.0,0.0
2246,55.0,36,30,12.0,0.0
2247,61.0,4,30,11.0,0.0
2248,63.0,0,30,11.0,0.0
2249,55.0,36,30,12.0,0.0
2250,61.0,0,30,11.0,0.0
2251,63.0,4,30,11.0,0.0
2252,55.0,36,30,12.0,0.0
2253,61.0,4,30,11.0,0.0
2254,63.0,0,30,11.0,0.0
2255,55.0,9,30,12.0,0.0
2256,75.0,1,120,10.0,0.0
2257,79.0,6,240,1.0,0.0
2258,63.0,0,30,11.0,0.0
2259,61.0,4,30,11.0,0.0
2260,73.0,0,240,2.0,0.0
2261,70.0,0,240,2.0,0.0
2262,55.0,36,30,12.0,0.0
2263,56.0,2,240,13.0,0.0
2264,58.0,0,240,3.0,0.0
2265,61.0,1,240,3.0,0.0
2266,44.0,24,240,14.0,0.0
2267,61.0,0,30,11.0,0.0
2268,63.0,4,30,11.0,0.0
2269,55.0,36,30,12.0,0.0
2270,61.0,0,30,11.0,0.0
2271,63.0,3,30,11.0,0.0
2272,55.0,36,30,12.0,0.0
2273,63.0,4,30,11.0,0.0
2274,61.0,0,30,11.0,0.0
2275,55.0,36,30,12.0,0.0
2276,61.0,0,30,11.0,0.0
2277,63.0,4,30,11.0,0.0
2278,55.0,36,30,12.0,0.0
2279,63.0,4,30,11.0,0.0
2280,61.0,0,30,11.0,0.0
2281,55.0,3,30,12.0,0.0
2282,72.0,1,480,10.0,0.0
2283,80.0,33,360,1.0,0.0
2284,63.0,0,30,11.0,0.0
2285,60.0,4,30,11.0,0.0
2286,72.0,4,960,2.0,0.0
2287,68.0,0,960,2.0,0.0
2288,56.0,36,30,12.0,0.0
2289,56.0,3,960,13.0,0.0
2290,56.0,0,960,3.0,0.0
2291,60.0,20,960,3.0,0.0
2292,44.0,4,960,14.0,0.0
2293,63.0,4,30,11.0,0.0
2294,60.0,0,30,11.0,0.0
2295,56.0,36,30,12.0,0.0
2296,60.0,4,30,11.0,0.0
2297,63.0,0,30,11.0,0.0
2298,56.0,36,30,12.0,0.0
2299,60.0,0,30,11.0,0.0
2300,63.0,4,30,11.0,0.0
2301,56.0,36,30,12.0,0.0
2302,63.0,4,30,11.0,0.0
2303,60.0,0,30,11.0,0.0
2304,56.0,36,30,12.0,0.0
2305,60.0,0,30,11.0,0.0
2306,63.0,4,30,11.0,0.0
2307,56.0,36,30,12.0,0.0
2308,60.0,0,30,11.0,0.0
2309,63.0,4,30,11.0,0.0
2310,56.0,36,30,12.0,0.0
2311,63.0,4,30,11.0,0.0
2312,60.0,0,30,11.0,0.0
2313,56.0,36,30,12.0,0.0
2314,60.0,4,30,11.0,0.0
2315,63.0,0,30,11.0,0.0
2316,56.0,3,30,12.0,0.0
2317,82.0,13,60,1.0,0.0
2318,63.0,0,30,11.0,0.0
2319,60.0,4,30,11.0,0.0
2320,56.0,23,30,12.0,0.0
2321,63.0,0,30,11.0,0.0
2322,60.0,4,30,11.0,0.0
2323,56.0,36,30,12.0,0.0
2324,84.0,33,60,1.0,0.0
2325,60.0,3,30,11.0,0.0
2326,63.0,0,30,11.0,0.0
2327,56.0,3,30,12.0,0.0
2328,75.0,1,120,10.0,0.0
2329,75.0,33,120,1.0,0.0
2330,60.0,0,30,11.0,0.0
2331,63.0,4,30,11.0,0.0
2332,56.0,36,30,12.0,0.0
2333,60.0,4,30,11.0,0.0
2334,63.0,0,30,11.0,0.0
2335,56.0,36,30,12.0,0.0
2336,63.0,3,30,11.0,0.0
2337,60.0,0,30,11.0,0.0
2338,56.0,3,30,12.0,0.0
2339,77.0,1,40,10.0,0.0
2340,63.0,0,30,11.0,0.0
2341,60.0,3,30,11.0,0.0
2342,56.0,36,30,12.0,0.0
2343,75.0,1,40,10.0,0.0
2344,60.0,3,30,11.0,0.0
2345,63.0,0,30,11.0,0.0
2346,56.0,36,30,12.0,0.0
2347,74.0,1,40,10.0,0.0
2348,60.0,3,30,11.0,0.0
2349,63.0,0,30,11.0,0.0
2350,56.0,36,30,12.0,0.0
2351,75.0,1,120,10.0,0.0
2352,60.0,4,30,11.0,0.0
2353,63.0,0,30,11.0,0.0
2354,56.0,36,30,12.0,0.0
2355,63.0,4,30,11.0,0.0
2356,60.0,0,30,11.0,0.0
2357,56.0,36,30,12.0,0.0
2358,63.0,3,30,11.0,0.0
2359,60.0,0,30,11.0,0.0
2360,56.0,36,30,12.0,0.0
2361,76.0,1,120,10.0,0.0
2362,63.0,4,30,11.0,0.0
2363,60.0,0,30,11.0,0.0
2364,56.0,36,30,12.0,0.0
2365,63.0,4,30,11.0,0.0
2366,60.0,0,30,11.0,0.0
2367,56.0,36,30,12.0,0.0
2368,63.0,3,30,11.0,0.0
2369,60.0,0,30,11.0,0.0
2370,56.0,5,30,12.0,0.0
2371,79.0,1,120,10.0,0.0
2372,63.0,4,30,11.0,0.0
2373,61.0,0,30,11.0,0.0
2374,67.0,0,240,2.0,0.0
2375,70.0,0,240,2.0,0.0
2376,55.0,36,30,12.0,0.0
2377,56.0,2,240,13.0,0.0
2378,58.0,1,240,3.0,0.0
2379,55.0,0,240,3.0,0.0
2380,44.0,24,240,14.0,0.0
2381,63.0,4,30,11.0,0.0
2382,61.0,0,30,11.0,0.0
2383,55.0,36,30,12.0,0.0
2384,63.0,0,30,11.0,0.0
2385,61.0,3,30,11.0,0.0
2386,55.0,36,30,12.0,0.0
2387,77.0,1,120,10.0,0.0
2388,61.0,4,30,11.0,0.0
2389,63.0,0,30,11.0,0.0
2390,55.0,36,30,12.0,0.0
2391,63.0,4,30,11.0,0.0
2392,61.0,0,30,11.0,0.0
2393,55.0,36,30,12.0,0.0
2394,63.0,0,30,11.0,0.0
2395,61.0,3,30,11.0,0.0
2396,55.0,9,30,12.0,0.0
2397,70.0,1,120,10.0,0.0
2398,63.0,0,30,11.0,0.0
2399,61.0,4,30,11.0,0.0
2400,70.0,9,240,2.0,0.0
2401,73.0,0,240,2.0,0.0
2402,55.0,36,30,12.0,0.0
2403,56.0,2,240,13.0,0.0
2404,61.0,1,240,3.0,0.0
2405,58.0,0,240,3.0,0.0
2406,44.0,24,240,14.0,0.0
2407,63.0,4,30,11.0,0.0
2408,61.0,0,30,11.0,0.0
2409,55.0,36,30,12.0,0.0
2410,63.0,0,30,11.0,0.0
2411,61.0,3,30,11.0,0.0
2412,55.0,36,30,12.0,0.0
2413,72.0,1,120,10.0,0.0
2414,61.0,0,30,11.0,0.0
2415,63.0,4,30,11.0,0.0
2416,55.0,36,30,12.0,0.0
2417,61.0,4,30,11.0,0.0
2418,63.0,0,30,11.0,0.0
2419,55.0,36,30,12.0,0.0
2420,63.0,3,30,11.0,0.0
2421,61.0,0,30,11.0,0.0
2422,55.0,0,30,12.0,0.0
2423,73.0,1,120,10.0,0.0
2424,61.0,0,30,11.0,0.0
2425,63.0,4,30,11.0,0.0
2426,70.0,0,240,2.0,0.0
2427,73.0,0,240,2.0,0.0
2428,55.0,36,30,12.0,0.0
2429,56.0,2,240,13.0,0.0
2430,58.0,1,240,3.0,0.0
2431,61.0,0,240,3.0,0.0
2432,44.0,24,240,14.0,0.0
2433,61.0,0,30,11.0,0.0
2434,63.0,4,30,11.0,0.0
2435,55.0,36,30,12.0,0.0
2436,63.0,3,30,11.0,0.0
2437,61.0,0,30,11.0,0.0
2438,55.0,36,30,12.0,0.0
2439,63.0,4,30,11.0,0.0
2440,61.0,0,30,11.0,0.0
2441,55.0,36,30,12.0,0.0
2442,63.0,0,30,11.0,0.0
2443,61.0,4,30,11.0,0.0
2444,55.0,36,30,12.0,0.0
2445,63.0,0,30,11.0,0.0
2446,61.0,4,30,11.0,0.0
2447,55.0,9,30,12.0,0.0
2448,75.0,1,120,10.0,0.0
2449,79.0,6,240,1.0,0.0
2450,61.0,4,30,11.0,0.0
2451,63.0,0,30,11.0,0.0
2452,73.0,0,240,2.0,0.0
2453,70.0,3,240,2.0,0.0
2454,55.0,36,30,12.0,0.0
2455,56.0,2,240,13.0,0.0
2456,61.0,0,240,3.0,0.0
2457,58.0,1,240,3.0,0.0
2458,44.0,24,240,14.0,0.0
2459,61.0,4,30,11.0,0.0
2460,63.0,0,30,11.0,0.0
2461,55.0,36,30,12.0,0.0
2462,61.0,3,30,11.0,0.0
2463,63.0,0,30,11.0,0.0
2464,55.0,36,30,12.0,0.0
2465,63.0,4,30,11.0,0.0
2466,61.0,0,30,11.0,0.0
2467,55.0,36,30,12.0,0.0
2468,61.0,0,30,11.0,0.0
2469,63.0,4,30,11.0,0.0
2470,55.0,36,30,12.0,0.0
2471,61.0,4,30,11.0,0.0
2472,63.0,0,30,11.0,0.0
2473,54.0,0,30,12.0,0.0
2474,72.0,1,960,10.0,0.0
2475,80.0,2,120,1.0,0.0
2476,63.0,4,30,11.0,0.0
2477,60.0,0,30,11.0,0.0
2478,72.0,11,120,2.0,0.0
2479,68.0,0,120,2.0,0.0
2480,56.0,36,30,12.0,0.0
2481,56.0,3,480,13.0,0.0
2482,60.0,20,120,3.0,0.0
2483,56.0,0,120,3.0,0.0
2484,44.0,24,480,14.0,0.0
2485,60.0,4,30,11.0,0.0
2486,63.0,0,30,11.0,0.0
2487,56.0,36,30,12.0,0.0
2488,63.0,0,30,11.0,0.0
2489,60.0,4,30,11.0,0.0
2490,56.0,3,30,12.0,0.0
2491,63.0,4,30,11.0,0.0
2492,60.0,0,30,11.0,0.0
2493,56.0,36,30,12.0,0.0
2494,60.0,0,30,11.0,0.0
2495,63.0,4,30,11.0,0.0
2496,56.0,36,30,12.0,0.0
2497,60.0,0,30,11.0,0.0
2498,63.0,4,30,11.0,0.0
2499,56.0,36,30,12.0,0.0
2500,84.0,2,120,1.0,0.0
2501,60.0,0,30,11.0,0.0
2502,63.0,4,30,11.0,0.0
2503,68.0,11,120,2.0,0.0
2504,72.0,0,120,2.0,0.0
2505,56.0,36,30,12.0,0.0
2506,60.0,20,120,3.0,0.0
2507,56.0,0,120,3.0,0.0
2508,63.0,0,30,11.0,0.0
2509,60.0,4,30,11.0,0.0
2510,56.0,36,30,12.0,0.0
2511,60.0,4,30,11.0,0.0
2512,63.0,0,30,11.0,0.0
2513,56.0,3,30,12.0,0.0
2514,63.0,0,30,11.0,0.0
2515,60.0,4,30,11.0,0.0
2516,56.0,36,30,12.0,0.0
2517,60.0,0,30,11.0,0.0
2518,63.0,4,30,11.0,0.0
2519,56.0,36,30,12.0,0.0
2520,60.0,0,30,11.0,0.0
2521,63.0,4,30,11.0,0.0
2522,56.0,9,30,12.0,0.0
2523,66.0,0,30,11.0,0.0
2524,60.0,4,30,11.0,0.0
2525,57.0,36,30,12.0,0.0
2526,50.0,3,480,13.0,0.0
2527,38.0,24,480,14.0,0.0
2528,60.0,4,30,11.0,0.0
2529,66.0,0,30,11.0,0.0
2530,57.0,36,30,12.0,0.0
2531,66.0,0,30,11.0,0.0
2532,60.0,4,30,11.0,0.0
2533,57.0,36,30,12.0,0.0
2534,66.0,4,30,11.0,0.0
2535,60.0,0,30,11.0,0.0
2536,57.0,36,30,12.0,0.0
2537,66.0,0,30,11.0,0.0
2538,60.0,4,30,11.0,0.0
2539,57.0,36,30,12.0,0.0
2540,66.0,4,30,11.0,0.0
2541,60.0,0,30,11.0,0.0
2542,57.0,36,30,12.0,0.0
2543,84.0,2,120,1.0,0.0
2544,66.0,4,30,11.0,0.0
2545,60.0,0,30,11.0,0.0
2546,72.0,11,120,2.0,0.0
2547,69.0,0,120,2.0,0.0
2548,57.0,36,30,12.0,0.0
2549,57.0,20,120,3.0,0.0
2550,60.0,0,120,3.0,0.0
2551,66.0,4,30,11.0,0.0
2552,60.0,0,30,11.0,0.0
2553,57.0,36,30,12.0,0.0
2554,60.0,4,30,11.0,0.0
2555,66.0,0,30,11.0,0.0
2556,57.0,3,30,12.0,0.0
2557,66.0,4,30,11.0,0.0
2558,60.0,0,30,11.0,0.0
2559,57.0,36,30,12.0,0.0
2560,60.0,0,30,11.0,0.0
2561,66.0,4,30,11.0,0.0
2562,57.0,36,30,12.0,0.0
2563,66.0,0,30,11.0,0.0
2564,60.0,3,30,11.0,0.0
2565,57.0,9,30,12.0,0.0
2566,74.0,1,480,10.0,0.0
2567,62.0,0,30,11.0,0.0
2568,65.0,4,30,11.0,0.0
2569,59.0,36,30,12.0,0.0
2570,43.0,3,960,13.0,0.0
2571,31.0,67,960,14.0,0.0
2572,65.0,4,30,11.0,0.0
2573,62.0,0,30,11.0,0.0
2574,59.0,36,30,12.0,0.0
2575,62.0,0,30,11.0,0.0
2576,65.0,4,30,11.0,0.0
2577,59.0,36,30,12.0,0.0
2578,62.0,4,30,11.0,0.0
2579,65.0,0,30,11.0,0.0
2580,59.0,36,30,12.0,0.0
2581,65.0,4,30,11.0,0.0
2582,62.0,0,30,11.0,0.0
2583,59.0,36,30,12.0,0.0
2584,65.0,0,30,11.0,0.0
2585,62.0,4,30,11.0,0.0
2586,59.0,36,30,12.0,0.0
2587,86.0,2,120,1.0,0.0
2588,65.0,4,30,11.0,0.0
2589,62.0,0,30,11.0,0.0
2590,74.0,0,120,2.0,0.0
2591,71.0,11,120,2.0,0.0
2592,59.0,36,30,12.0,0.0
2593,59.0,20,120,3.0,0.0
2594,62.0,0,120,3.0,0.0
2595,62.0,0,30,11.0,0.0
2596,65.0,4,30,11.0,0.0
2597,59.0,36,30,12.0,0.0
2598,65.0,4,30,11.0,0.0
2599,62.0,0,30,11.0,0.0
2600,59.0,3,30,12.0,0.0
2601,65.0,4,30,11.0,0.0
2602,62.0,0,30,11.0,0.0
2603,59.0,36,30,12.0,0.0
2604,62.0,0,30,11.0,0.0
2605,65.0,4,30,11.0,0.0
2606,59.0,36,30,12.0,0.0
2607,62.0,0,30,11.0,0.0
2608,65.0,3,30,11.0,0.0
2609,59.0,36,30,12.0,0.0
2610,79.0,1,480,10.0,0.0
2611,79.0,0,1440,6.0,0.0
2612,67.0,4,1440,4.0,0.0
2613,65.0,0,30,11.0,0.0
2614,62.0,4,30,11.0,0.0
2615,55.0,36,30,12.0,0.0
2616,65.0,0,30,11.0,0.0
2617,62.0,4,30,11.0,0.0
2618,55.0,36,30,12.0,0.0
2619,62.0,0,30,11.0,0.0
2620,65.0,4,30,11.0,0.0
2621,55.0,36,30,12.0,0.0
2622,62.0,4,30,11.0,0.0
2623,65.0,0,30,11.0,0.0
2624,55.0,36,30,12.0,0.0
2625,65.0,0,30,11.0,0.0
2626,62.0,4,30,11.0,0.0
2627,55.0,36,30,12.0,0.0
2628,65.0,0,30,11.0,0.0
2629,62.0,4,30,11.0,0.0
2630,55.0,36,30,12.0,0.0
2631,91.0,2,120,0.0,0.0
2632,79.0,2,120,1.0,0.0
2633,62.0,4,30,11.0,0.0
2634,65.0,0,30,11.0,0.0
2635,71.0,11,120,2.0,0.0
2636,74.0,0,120,2.0,0.0
2637,55.0,36,30,12.0,0.0
2638,55.0,0,120,3.0,0.0
2639,67.0,20,120,3.0,0.0
2640,65.0,4,30,11.0,0.0
2641,62.0,0,30,11.0,0.0
2642,55.0,36,30,12.0,0.0
2643,65.0,4,30,11.0,0.0
2644,62.0,0,30,11.0,0.0
2645,55.0,1,30,12.0,0.0
2646,65.0,4,30,11.0,0.0
2647,62.0,0,30,11.0,0.0
2648,55.0,36,30,12.0,0.0
2649,62.0,0,30,11.0,0.0
2650,65.0,4,30,11.0,0.0
2651,55.0,36,30,12.0,0.0
2652,62.0,3,30,11.0,0.0
2653,65.0,0,30,11.0,0.0
2654,55.0,9,30,12.0,0.0
2655,72.0,15,90,10.0,0.0
2656,84.0,2,480,0.0,0.0
2657,72.0,6,480,1.0,0.0
2658,60.0,5,960,11.0,0.0
2659,64.0,0,960,11.0,0.0
2660,52.0,11,240,12.0,0.0
2661,55.0,0,240,12.0,0.0
2662,36.0,22,120,14.0,0.0
2663,60.0,15,90,10.0,0.0
2664,48.0,43,15,13.0,0.0
2665,64.0,4,90,10.0,0.0
2666,52.0,65,90,13.0,0.0
2667,67.0,15,90,10.0,0.0
2668,52.0,1,720,12.0,0.0
2669,48.0,0,720,12.0,0.0
2670,55.0,65,90,13.0,0.0
2671,55.0,15,90,10.0,0.0
2672,43.0,60,90,13.0,0.0
2673,67.0,7,60,10.0,0.0
2674,55.0,70,60,13.0,0.0
2675,55.0,15,90,10.0,0.0
2676,91.0,2,360,0.0,0.0
2677,79.0,36,360,1.0,0.0
2678,43.0,43,90,13.0,0.0
2679,36.0,22,120,14.0,0.0
2680,60.0,15,90,10.0,0.0
2681,48.0,65,90,13.0,0.0
2682,64.0,15,90,10.0,0.0
2683,52.0,65,90,13.0,0.0
2684,67.0,15,90,10.0,0.0
2685,55.0,27,90,13.0,0.0
2686,55.0,15,90,10.0,0.0
2687,43.0,60,90,13.0,0.0
2688,93.0,2,120,0.0,0.0
2689,81.0,1,120,1.0,0.0
2690,67.0,2,60,10.0,0.0
2691,55.0,70,60,13.0,0.0
2692,55.0,15,90,10.0,0.0
2693,93.0,2,120,0.0,0.0
2694,81.0,14,120,1.0,0.0
2695,79.0,0,240,6.0,0.0
2696,67.0,0,240,4.0,0.0
2697,62.0,0,240,11.0,0.0
2698,59.0,10,240,11.0,0.0
2699,50.0,1,240,12.0,0.0
2700,53.0,0,240,12.0,0.0
2701,43.0,27,90,13.0,0.0
2702,36.0,22,120,14.0,0.0
2703,62.0,15,90,10.0,0.0
2704,50.0,62,90,13.0,0.0
2705,86.0,2,120,0.0,0.0
2706,74.0,1,120,1.0,0.0
2707,65.0,4,90,10.0,0.0
2708,53.0,65,90,13.0,0.0
2709,67.0,15,90,10.0,0.0
2710,86.0,2,120,0.0,0.0
2711,79.0,1,240,6.0,0.0
2712,74.0,14,120,1.0,0.0
2713,67.0,2,240,4.0,0.0
2714,62.0,0,240,11.0,0.0
2715,53.0,0,240,12.0,0.0
2716,50.0,1,240,12.0,0.0
2717,55.0,27,90,13.0,0.0
2718,36.0,22,120,14.0,0.0
2719,55.0,15,90,10.0,0.0
2720,43.0,60,90,13.0,0.0
2721,88.0,2,120,0.0,0.0
2722,76.0,0,120,1.0,0.0
2723,67.0,4,60,10.0,0.0
2724,55.0,70,60,13.0,0.0
2725,55.0,15,90,10.0,0.0
2726,89.0,2,120,0.0,0.0
2727,77.0,14,120,1.0,0.0
2728,79.0,1,240,6.0,0.0
2729,67.0,4,240,4.0,0.0
2730,65.0,5,15,11.0,0.0
2731,50.0,0,240,12.0,0.0
2732,53.0,1,240,12.0,0.0
2733,43.0,27,90,13.0,0.0
2734,36.0,22,120,14.0,0.0
2735,62.0,15,90,10.0,0.0
2736,50.0,64,90,13.0,0.0
2737,65.0,0,90,10.0,0.0
2738,53.0,65,90,13.0,0.0
2739,67.0,15,90,10.0,0.0
2740,91.0,2,120,0.0,0.0
2741,79.0,14,120,1.0,0.0
2742,79.0,1,240,6.0,0.0
2743,65.0,0,15,11.0,0.0
2744,62.0,10,15,11.0,0.0
2745,67.0,4,240,4.0,0.0
2746,71.0,4,240,2.0,0.0
2747,53.0,0,240,12.0,0.0
2748,50.0,1,240,12.0,0.0
2749,55.0,27,90,13.0,0.0
2750,59.0,63,240,3.0,0.0
2751,36.0,22,120,14.0,0.0
2752,55.0,15,90,10.0,0.0
2753,43.0,60,90,13.0,0.0
2754,67.0,4,60,10.0,0.0
2755,55.0,7,60,13.0,0.0
2756,72.0,15,90,10.0,0.0
2757,88.0,2,480,0.0,0.0
2758,76.0,2,480,1.0,0.0
2759,79.0,1,960,6.0,0.0
2760,60.0,5,960,11.0,0.0
2761,67.0,4,960,4.0,0.0
2762,64.0,0,960,11.0,0.0
2763,72.0,11,360,2.0,0.0
2764,48.0,0,960,12.0,0.0
2765,52.0,0,960,12.0,0.0
2766,48.0,43,90,13.0,0.0
2767,60.0,23,360,3.0,0.0
2768,36.0,22,120,14.0,0.0
2769,60.0,15,90,10.0,0.0
2770,48.0,65,90,13.0,0.0
2771,64.0,15,90,10.0,0.0
2772,52.0,65,90,13.0,0.0
2773,67.0,15,90,10.0,0.0
2774,55.0,31,90,13.0,0.0
2775,55.0,15,90,10.0,0.0
2776,43.0,11,90,13.0,0.0
2777,74.0,11,60,2.0,0.0
2778,62.0,38,60,3.0,0.0
2779,67.0,7,60,10.0,0.0
2780,55.0,7,60,13.0,0.0
2781,76.0,4,60,2.0,0.0
2782,64.0,63,60,3.0,0.0
2783,55.0,15,90,10.0,0.0
2784,79.0,2,120,1.0,0.0
2785,67.0,11,120,2.0,0.0
2786,43.0,29,90,13.0,0.0
2787,55.0,1,120,3.0,0.0
2788,36.0,22,120,14.0,0.0
2789,60.0,4,90,10.0,0.0
2790,48.0,29,90,13.0,0.0
2791,81.0,11,40,1.0,0.0
2792,64.0,4,90,10.0,0.0
2793,79.0,36,40,1.0,0.0
2794,52.0,65,90,13.0,0.0
2795,78.0,11,40,1.0,0.0
2796,67.0,15,90,10.0,0.0
2797,79.0,36,120,1.0,0.0
2798,55.0,29,90,13.0,0.0
2799,55.0,15,90,10.0,0.0
2800,43.0,60,90,13.0,0.0
2801,80.0,1,120,1.0,0.0
2802,67.0,4,60,10.0,0.0
2803,55.0,70,60,13.0,0.0
2804,55.0,15,90,10.0,0.0
2805,83.0,14,120,1.0,0.0
2806,79.0,1,240,6.0,0.0
2807,67.0,0,240,4.0,0.0
2808,59.0,0,240,11.0,0.0
2809,62.0,10,240,11.0,0.0
2810,53.0,0,240,12.0,0.0
2811,50.0,0,240,12.0,0.0
2812,43.0,29,90,13.0,0.0
2813,36.0,22,120,14.0,0.0
2814,62.0,15,90,10.0,0.0
2815,50.0,64,90,13.0,0.0
2816,81.0,1,120,1.0,0.0
2817,65.0,4,90,10.0,0.0
2818,53.0,65,90,13.0,0.0
2819,67.0,15,90,10.0,0.0
2820,86.0,2,120,0.0,0.0
2821,79.0,1,240,6.0,0.0
2822,74.0,14,120,1.0,0.0
2823,65.0,5,240,11.0,0.0
2824,62.0,0,240,11.0,0.0
2825,67.0,2,240,4.0,0.0
2826,50.0,0,240,12.0,0.0
2827,53.0,0,240,12.0,0.0
2828,55.0,27,90,13.0,0.0
2829,36.0,22,120,14.0,0.0
2830,55.0,15,90,10.0,0.0
2831,43.0,60,90,13.0,0.0
2832,88.0,2,120,0.0,0.0
2833,76.0,1,120,1.0,0.0
2834,67.0,4,60,10.0,0.0
2835,55.0,70,60,13.0,0.0
2836,55.0,15,90,10.0,0.0
2837,89.0,2,120,0.0,0.0
2838,77.0,14,120,1.0,0.0
2839,79.0,1,240,6.0,0.0
2840,67.0,0,240,4.0,0.0
2841,62.0,0,240,11.0,0.0
2842,53.0,0,240,12.0,0.0
2843,50.0,1,240,12.0,0.0
2844,43.0,27,90,13.0,0.0
2845,36.0,22,120,14.0,0.0
2846,62.0,15,90,10.0,0.0
2847,50.0,64,90,13.0,0.0
2848,65.0,4,90,10.0,0.0
2849,53.0,65,90,13.0,0.0
2850,67.0,15,90,10.0,0.0
2851,91.0,2,120,0.0,0.0
2852,79.0,1,240,6.0,0.0
2853,79.0,14,120,1.0,0.0
2854,67.0,4,240,4.0,0.0
2855,65.0,10,15,11.0,0.0
2856,62.0,0,240,11.0,0.0
2857,71.0,4,240,2.0,0.0
2858,53.0,1,240,12.0,0.0
2859,50.0,0,240,12.0,0.0
2860,55.0,27,90,13.0,0.0
2861,59.0,43,240,3.0,0.0
2862,36.0,22,120,14.0,0.0
2863,55.0,15,90,10.0,0.0
2864,43.0,60,90,13.0,0.0
2865,67.0,4,60,10.0,0.0
2866,55.0,7,60,13.0,0.0
2867,64.0,5,60,10.0,0.0
2868,88.0,2,120,0.0,0.0
2869,79.0,0,120,6.0,0.0
2870,76.0,1,120,1.0,0.0
2871,60.0,4,60,11.0,0.0
2872,67.0,1,120,4.0,0.0
2873,72.0,9,120,2.0,0.0
2874,52.0,53,60,12.0,0.0
2875,48.0,0,60,12.0,0.0
2876,48.0,2,120,13.0,0.0
2877,60.0,1,120,3.0,0.0
2878,36.0,22,120,14.0,0.0
2879,64.0,4,90,10.0,0.0
2880,60.0,75,90,11.0,0.0
2881,60.0,1,60,12.0,0.0
2882,76.0,2,240,0.0,0.0
2883,72.0,13,240,1.0,0.0
2884,60.0,28,240,3.0,0.0
2885,62.0,4,90,10.0,0.0
2886,59.0,75,90,11.0,0.0
2887,60.0,1,60,12.0,0.0
2888,64.0,4,90,10.0,0.0
2889,60.0,32,90,11.0,0.0
2890,60.0,1,60,12.0,0.0
2891,62.0,4,90,10.0,0.0
2892,59.0,17,90,11.0,0.0
2893,60.0,1,60,12.0,0.0
2894,74.0,2,60,0.0,0.0
2895,71.0,56,60,1.0,0.0
2896,57.0,2,120,13.0,0.0
2897,57.0,1,120,3.0,0.0
2898,45.0,44,120,14.0,0.0
2899,64.0,2,90,10.0,0.0
2900,61.0,10,90,11.0,0.0
2901,57.0,1,60,12.0,0.0
2902,76.0,2,60,0.0,0.0
2903,73.0,0,60,1.0,0.0
2904,65.0,5,60,10.0,0.0
2905,77.0,2,60,0.0,0.0
2906,74.0,11,60,1.0,0.0
2907,62.0,4,60,11.0,0.0
2908,62.0,51,60,12.0,0.0
2909,62.0,2,120,13.0,0.0
2910,50.0,22,120,14.0,0.0
2911,65.0,4,90,10.0,0.0
2912,62.0,75,90,11.0,0.0
2913,62.0,1,60,12.0,0.0
2914,77.0,2,240,0.0,0.0
2915,74.0,13,240,1.0,0.0
2916,62.0,1,15,3.0,0.0
2917,64.0,4,90,10.0,0.0
2918,61.0,75,90,11.0,0.0
2919,62.0,1,60,12.0,0.0
2920,65.0,4,90,10.0,0.0
2921,62.0,32,90,11.0,0.0
2922,62.0,1,60,12.0,0.0
2923,64.0,4,90,10.0,0.0
2924,61.0,17,90,11.0,0.0
2925,62.0,1,60,12.0,0.0
2926,76.0,2,60,0.0,0.0
2927,73.0,56,60,1.0,0.0
2928,59.0,2,120,13.0,0.0
2929,59.0,1,120,3.0,0.0
2930,47.0,44,120,14.0,0.0
2931,66.0,2,90,10.0,0.0
2932,62.0,10,90,11.0,0.0
2933,59.0,0,60,12.0,0.0
2934,78.0,2,60,0.0,0.0
2935,75.0,1,60,1.0,0.0
2936,67.0,5,60,10.0,0.0
2937,79.0,2,60,0.0,0.0
2938,76.0,11,60,1.0,0.0
2939,64.0,4,60,11.0,0.0
2940,64.0,51,60,12.0,0.0
2941,64.0,2,120,13.0,0.0
2942,52.0,22,120,14.0,0.0
2943,67.0,4,90,10.0,0.0
2944,64.0,75,90,11.0,0.0
2945,64.0,1,60,12.0,0.0
2946,79.0,2,240,0.0,0.0
2947,76.0,13,240,1.0,0.0
2948,64.0,1,15,3.0,0.0
2949,66.0,4,90,10.0,0.0
2950,63.0,75,90,11.0,0.0
2951,64.0,1,60,12.0,0.0
2952,67.0,4,90,10.0,0.0
2953,64.0,32,90,11.0,0.0
2954,64.0,1,60,12.0,0.0
2955,65.0,4,90,10.0,0.0
2956,62.0,17,90,11.0,0.0
2957,64.0,1,60,12.0,0.0
2958,77.0,2,60,0.0,0.0
2959,74.0,56,60,1.0,0.0
2960,60.0,2,120,13.0,0.0
2961,60.0,1,120,3.0,0.0
2962,48.0,44,120,14.0,0.0
2963,67.0,2,90,10.0,0.0
2964,64.0,10,90,11.0,0.0
2965,60.0,1,60,12.0,0.0
2966,79.0,2,60,0.0,0.0
2967,76.0,0,60,1.0,0.0
2968,69.0,5,60,10.0,0.0
2969,81.0,2,60,0.0,0.0
2970,77.0,11,60,1.0,0.0
2971,65.0,4,60,11.0,0.0
2972,65.0,51,60,12.0,0.0
2973,65.0,2,120,13.0,0.0
2974,65.0,1,120,3.0,0.0
2975,53.0,22,120,14.0,0.0
2976,69.0,4,90,10.0,0.0
2977,65.0,75,90,11.0,0.0
2978,65.0,1,60,12.0,0.0
2979,81.0,2,240,0.0,0.0
2980,77.0,13,240,1.0,0.0
2981,65.0,28,240,3.0,0.0
2982,67.0,4,90,10.0,0.0
2983,64.0,75,90,11.0,0.0
2984,65.0,1,60,12.0,0.0
2985,69.0,4,90,10.0,0.0
2986,65.0,32,90,11.0,0.0
2987,65.0,1,60,12.0,0.0
2988,67.0,4,90,10.0,0.0
2989,64.0,17,90,11.0,0.0
2990,65.0,1,60,12.0,0.0
2991,79.0,2,60,0.0,0.0
2992,76.0,2,60,1.0,0.0
2993,67.0,49,60,2.0,0.0
2994,62.0,2,120,13.0,0.0
2995,62.0,1,120,3.0,0.0
2996,50.0,44,120,14.0,0.0
2997,69.0,5,60,10.0,0.0
2998,66.0,2,60,11.0,0.0
2999,62.0,2,60,12.0,0.0
3000,81.0,2,60,0.0,0.0
3001,78.0,0,60,1.0,0.0
3002,69.0,9,60,2.0,0.0
3003,71.0,4,90,10.0,0.0
3004,83.0,2,60,0.0,0.0
3005,79.0,2,60,1.0,0.0
3006,67.0,50,90,11.0,0.0
3007,71.0,11,60,2.0,0.0
3008,67.0,1,60,12.0,0.0
3009,67.0,3,120,13.0,0.0
3010,67.0,3,60,3.0,0.0
3011,55.0,22,120,14.0,0.0
3012,72.0,4,90,10.0,0.0
3013,62.0,17,90,11.0,0.0
3014,67.0,1,60,12.0,0.0
3015,83.0,2,60,0.0,0.0
3016,79.0,2,60,1.0,0.0
3017,71.0,11,60,2.0,0.0
3018,67.0,43,60,3.0,0.0
3019,71.0,4,90,10.0,0.0
3020,67.0,57,90,11.0,0.0
3021,67.0,1,60,12.0,0.0
3022,72.0,4,90,10.0,0.0
3023,83.0,2,60,0.0,0.0
3024,79.0,2,60,1.0,0.0
3025,62.0,75,90,11.0,0.0
3026,71.0,11,60,2.0,0.0
3027,67.0,1,60,12.0,0.0
3028,67.0,3,60,3.0,0.0
3029,71.0,4,90,10.0,0.0
3030,67.0,17,90,11.0,0.0
3031,67.0,1,60,12.0,0.0
3032,84.0,2,60,0.0,0.0
3033,76.0,2,60,1.0,0.0
3034,72.0,11,60,2.0,0.0
3035,60.0,3,120,13.0,0.0
3036,60.0,43,60,3.0,0.0
3037,48.0,44,120,14.0,0.0
3038,72.0,4,90,10.0,0.0
3039,64.0,10,90,11.0,0.0
3040,60.0,1,60,12.0,0.0
3041,69.0,2,60,10.0,0.0
3042,81.0,2,60,0.0,0.0
3043,77.0,2,60,1.0,0.0
3044,65.0,4,60,11.0,0.0
3045,69.0,9,60,2.0,0.0
3046,65.0,51,60,12.0,0.0
3047,53.0,3,120,13.0,0.0
3048,65.0,3,60,3.0,0.0
3049,41.0,22,120,14.0,0.0
3050,71.0,4,90,10.0,0.0
3051,60.0,17,90,11.0,0.0
3052,65.0,1,60,12.0,0.0
3053,81.0,2,60,0.0,0.0
3054,77.0,2,60,1.0,0.0
3055,69.0,11,60,2.0,0.0
3056,65.0,43,60,3.0,0.0
3057,69.0,4,90,10.0,0.0
3058,65.0,57,90,11.0,0.0
3059,65.0,1,60,12.0,0.0
3060,71.0,4,90,10.0,0.0
3061,81.0,2,60,0.0,0.0
3062,77.0,2,60,1.0,0.0
3063,60.0,75,90,11.0,0.0
3064,69.0,11,60,2.0,0.0
3065,65.0,1,60,12.0,0.0
3066,65.0,3,60,3.0,0.0
3067,69.0,4,90,10.0,0.0
3068,65.0,17,90,11.0,0.0
3069,65.0,1,60,12.0,0.0
3070,83.0,2,60,0.0,0.0
3071,75.0,2,60,1.0,0.0
3072,71.0,11,60,2.0,0.0
3073,59.0,3,120,13.0,0.0
3074,59.0,43,60,3.0,0.0
3075,47.0,44,120,14.0,0.0
3076,71.0,4,90,10.0,0.0
3077,63.0,10,90,11.0,0.0
3078,59.0,1,60,12.0,0.0
3079,67.0,4,90,10.0,0.0
3080,79.0,2,60,0.0,0.0
3081,76.0,2,60,1.0,0.0
3082,64.0,50,90,11.0,0.0
3083,67.0,11,60,2.0,0.0
3084,64.0,1,60,12.0,0.0
3085,52.0,3,120,13.0,0.0
3086,64.0,3,60,3.0,0.0
3087,40.0,22,120,14.0,0.0
3088,69.0,4,90,10.0,0.0
3089,59.0,17,90,11.0,0.0
3090,64.0,1,60,12.0,0.0
3091,79.0,2,60,0.0,0.0
3092,76.0,2,60,1.0,0.0
3093,67.0,11,60,2.0,0.0
3094,64.0,43,60,3.0,0.0
3095,67.0,4,90,10.0,0.0
3096,64.0,57,90,11.0,0.0
3097,64.0,1,60,12.0,0.0
3098,69.0,4,90,10.0,0.0
3099,79.0,2,60,0.0,0.0
3100,76.0,2,60,1.0,0.0
3101,59.0,75,90,11.0,0.0
3102,67.0,11,60,2.0,0.0
3103,64.0,1,60,12.0,0.0
3104,64.0,3,60,3.0,0.0
3105,67.0,4,90,10.0,0.0
3106,64.0,17,90,11.0,0.0
3107,64.0,1,60,12.0,0.0
3108,81.0,2,60,0.0,0.0
3109,73.0,2,60,1.0,0.0
3110,69.0,11,60,2.0,0.0
3111,57.0,3,120,13.0,0.0
3112,57.0,43,60,3.0,0.0
3113,45.0,44,120,14.0,0.0
3114,69.0,4,90,10.0,0.0
3115,61.0,10,90,11.0,0.0
3116,57.0,1,60,12.0,0.0
3117,65.0,4,90,10.0,0.0
3118,77.0,2,60,0.0,0.0
3119,74.0,2,60,1.0,0.0
3120,62.0,50,90,11.0,0.0
3121,65.0,11,60,2.0,0.0
3122,62.0,1,60,12.0,0.0
3123,50.0,3,120,13.0,0.0
3124,62.0,3,60,3.0,0.0
3125,38.0,22,120,14.0,0.0
3126,67.0,4,90,10.0,0.0
3127,57.0,17,90,11.0,0.0
3128,62.0,1,60,12.0,0.0
3129,77.0,2,60,0.0,0.0
3130,74.0,2,60,1.0,0.0
3131,65.0,11,60,2.0,0.0
3132,62.0,43,60,3.0,0.0
3133,65.0,4,90,10.0,0.0
3134,62.0,57,90,11.0,0.0
3135,62.0,1,60,12.0,0.0
3136,67.0,4,90,10.0,0.0
3137,77.0,2,60,0.0,0.0
3138,74.0,2,60,1.0,0.0
3139,57.0,75,90,11.0,0.0
3140,65.0,11,60,2.0,0.0
3141,62.0,1,60,12.0,0.0
3142,62.0,3,60,3.0,0.0
3143,65.0,4,90,10.0,0.0
3144,62.0,17,90,11.0,0.0
3145,62.0,1,60,12.0,0.0
3146,79.0,2,60,0.0,0.0
3147,71.0,2,60,1.0,0.0
3148,67.0,11,60,2.0,0.0
3149,55.0,3,120,13.0,0.0
3150,55.0,43,60,3.0,0.0
3151,43.0,102,120,14.0,0.0
3152,67.0,4,90,10.0,0.0
3153,59.0,5,90,11.0,0.0
3154,55.0,1,60,12.0,0.0
3155,64.0,5,120,10.0,0.0
3156,76.0,2,120,0.0,0.0
3157,72.0,2,120,1.0,0.0
3158,60.0,2,120,11.0,0.0
3159,64.0,4,120,2.0,0.0
3160,55.0,0,120,12.0,0.0
3161,48.0,3,120,13.0,0.0
3162,60.0,0,120,3.0,0.0
3163,64.0,105,120,3.0,0.0
3164,36.0,4,120,14.0,0.0
3165,76.0,5,240,10.0,0.0
3166,88.0,2,120,0.0,0.0
3167,84.0,0,120,0.0,0.0
3168,76.0,0,120,1.0,0.0
3169,72.0,2,120,1.0,0.0
3170,72.0,4,240,11.0,0.0
3171,72.0,11,120,2.0,0.0
3172,76.0,0,120,2.0,0.0
3173,60.0,6,240,12.0,0.0
3174,48.0,3,240,13.0,0.0
3175,64.0,0,120,3.0,0.0
3176,60.0,98,120,3.0,0.0
3177,36.0,47,240,14.0,0.0
3178,74.0,5,60,10.0,0.0
3179,88.0,2,120,0.0,0.0
3180,85.0,0,120,0.0,0.0
3181,73.0,1,120,1.0,0.0
3182,76.0,0,120,1.0,0.0
3183,71.0,55,60,11.0,0.0
3184,73.0,4,120,2.0,0.0
3185,76.0,0,120,2.0,0.0
3186,57.0,0,120,12.0,0.0
3187,45.0,3,120,13.0,0.0
3188,64.0,43,120,3.0,0.0
3189,61.0,0,120,3.0,0.0
3190,33.0,4,120,14.0,0.0
3191,76.0,2,60,10.0,0.0
3192,72.0,1,60,11.0,0.0
3193,77.0,5,60,10.0,0.0
3194,86.0,0,120,0.0,0.0
3195,89.0,2,120,0.0,0.0
3196,65.0,0,120,6.0,0.0
3197,77.0,0,120,1.0,0.0
3198,77.0,1,120,6.0,0.0
3199,74.0,0,120,1.0,0.0
3200,74.0,57,60,11.0,0.0
3201,65.0,1,120,4.0,0.0
3202,62.0,0,120,12.0,0.0
3203,53.0,3,120,5.0,0.0
3204,50.0,0,120,13.0,0.0
3205,65.0,2,120,3.0,0.0
3206,62.0,0,120,3.0,0.0
3207,38.0,4,120,14.0,0.0
3208,53.0,103,120,15.0,0.0
3209,77.0,5,240,10.0,0.0
3210,89.0,2,120,0.0,0.0
3211,86.0,0,120,0.0,0.0
3212,74.0,0,120,1.0,0.0
3213,77.0,2,120,1.0,0.0
3214,74.0,4,240,11.0,0.0
3215,74.0,0,15,2.0,0.0
3216,77.0,4,15,2.0,0.0
3217,62.0,6,240,12.0,0.0
3218,50.0,3,240,13.0,0.0
3219,65.0,0,120,3.0,0.0
3220,62.0,98,120,3.0,0.0
3221,38.0,47,240,14.0,0.0
3222,76.0,5,60,10.0,0.0
3223,87.0,0,120,0.0,0.0
3224,90.0,2,120,0.0,0.0
3225,75.0,0,120,1.0,0.0
3226,78.0,1,120,1.0,0.0
3227,73.0,55,60,11.0,0.0
3228,63.0,4,120,2.0,0.0
3229,66.0,0,120,2.0,0.0
3230,59.0,0,120,12.0,0.0
3231,47.0,3,120,13.0,0.0
3232,54.0,0,120,3.0,0.0
3233,51.0,43,120,3.0,0.0
3234,35.0,4,120,14.0,0.0
3235,78.0,2,60,10.0,0.0
3236,75.0,1,60,11.0,0.0
3237,79.0,5,60,10.0,0.0
3238,91.0,2,120,0.0,0.0
3239,88.0,0,120,0.0,0.0
3240,79.0,0,120,1.0,0.0
3241,79.0,1,120,6.0,0.0
3242,67.0,1,120,4.0,0.0
3243,76.0,57,60,11.0,0.0
3244,64.0,0,120,12.0,0.0
3245,67.0,3,120,5.0,0.0
3246,52.0,0,120,13.0,0.0
3247,40.0,4,120,14.0,0.0
3248,79.0,5,240,10.0,0.0
3249,88.0,0,120,0.0,0.0
3250,91.0,2,120,0.0,0.0
3251,76.0,0,15,1.0,0.0
3252,79.0,2,120,1.0,0.0
3253,76.0,4,240,11.0,0.0
3254,64.0,4,15,2.0,0.0
3255,67.0,0,15,2.0,0.0
3256,64.0,6,240,12.0,0.0
3257,52.0,3,240,13.0,0.0
3258,55.0,0,15,3.0,0.0
3259,52.0,105,15,3.0,0.0
3260,40.0,47,240,14.0,0.0
3261,77.0,5,60,10.0,0.0
3262,91.0,0,120,0.0,0.0
3263,88.0,2,120,0.0,0.0
3264,76.0,0,120,1.0,0.0
3265,79.0,0,120,1.0,0.0
3266,74.0,55,60,11.0,0.0
3267,67.0,4,120,2.0,0.0
3268,64.0,0,120,2.0,0.0
3269,60.0,1,120,12.0,0.0
3270,48.0,3,120,13.0,0.0
3271,52.0,0,120,3.0,0.0
3272,55.0,43,120,3.0,0.0
3273,36.0,4,120,14.0,0.0
3274,79.0,2,60,10.0,0.0
3275,76.0,1,60,11.0,0.0
3276,81.0,5,60,10.0,0.0
3277,93.0,0,120,0.0,0.0
3278,81.0,0,120,1.0,0.0
3279,69.0,1,120,6.0,0.0
3280,81.0,0,120,6.0,0.0
3281,77.0,0,120,1.0,0.0
3282,69.0,1,120,4.0,0.0
3283,77.0,57,60,11.0,0.0
3284,69.0,0,120,2.0,0.0
3285,65.0,0,120,12.0,0.0
3286,57.0,3,120,5.0,0.0
3287,53.0,0,120,13.0,0.0
3288,57.0,0,120,3.0,0.0
3289,53.0,2,120,3.0,0.0
3290,41.0,4,120,14.0,0.0
3291,53.0,103,120,15.0,0.0
3292,81.0,5,240,10.0,0.0
3293,89.0,2,15,0.0,0.0
3294,93.0,0,120,0.0,0.0
3295,81.0,0,120,1.0,0.0
3296,77.0,2,120,1.0,0.0
3297,77.0,4,240,11.0,0.0
3298,65.0,4,15,2.0,0.0
3299,69.0,11,120,2.0,0.0
3300,65.0,6,240,12.0,0.0
3301,53.0,3,240,13.0,0.0
3302,57.0,98,120,3.0,0.0
3303,53.0,0,120,3.0,0.0
3304,41.0,47,240,14.0,0.0
3305,79.0,5,60,10.0,0.0
3306,93.0,0,120,0.0,0.0
3307,90.0,2,120,0.0,0.0
3308,78.0,0,120,1.0,0.0
3309,81.0,0,120,1.0,0.0
3310,76.0,55,60,11.0,0.0
3311,66.0,4,120,2.0,0.0
3312,69.0,0,120,2.0,0.0
3313,62.0,1,120,12.0,0.0
3314,50.0,3,120,13.0,0.0
3315,57.0,15,120,3.0,0.0
3316,54.0,0,120,3.0,0.0
3317,38.0,4,120,14.0,0.0
3318,81.0,2,60,10.0,0.0
3319,78.0,1,60,11.0,0.0
3320,83.0,5,30,10.0,0.0
3321,83.0,0,60,0.0,0.0
3322,91.0,2,60,0.0,0.0
3323,79.0,0,60,1.0,0.0
3324,83.0,2,60,1.0,0.0
3325,79.0,4,30,11.0,0.0
3326,71.0,0,60,2.0,0.0
3327,67.0,6,60,2.0,0.0
3328,62.0,21,30,12.0,0.0
3329,55.0,2,60,13.0,0.0
3330,55.0,1,60,3.0,0.0
3331,59.0,0,60,3.0,0.0
3332,43.0,3,60,14.0,0.0
3333,83.0,3,30,10.0,0.0
3334,79.0,0,30,11.0,0.0
3335,62.0,31,30,12.0,0.0
3336,83.0,5,30,10.0,0.0
3337,79.0,4,30,11.0,0.0
3338,62.0,31,30,12.0,0.0
3339,71.0,5,30,10.0,0.0
3340,83.0,2,60,0.0,0.0
3341,91.0,0,60,0.0,0.0
3342,79.0,0,60,1.0,0.0
3343,83.0,2,60,1.0,0.0
3344,67.0,4,30,11.0,0.0
3345,71.0,6,60,2.0,0.0
3346,67.0,0,60,2.0,0.0
3347,55.0,21,30,12.0,0.0
3348,67.0,2,60,13.0,0.0
3349,67.0,1,60,3.0,0.0
3350,55.0,3,60,14.0,0.0
3351,71.0,3,30,10.0,0.0
3352,67.0,0,30,11.0,0.0
3353,55.0,31,30,12.0,0.0
3354,71.0,5,30,10.0,0.0
3355,67.0,4,30,11.0,0.0
3356,55.0,31,30,12.0,0.0
3357,83.0,5,30,10.0,0.0
3358,91.0,2,60,0.0,0.0
3359,83.0,0,60,0.0,0.0
3360,79.0,0,60,1.0,0.0
3361,83.0,2,60,1.0,0.0
3362,79.0,4,30,11.0,0.0
3363,71.0,6,60,2.0,0.0
3364,67.0,0,60,2.0,0.0
3365,67.0,21,30,12.0,0.0
3366,55.0,2,60,13.0,0.0
3367,55.0,0,60,3.0,0.0
3368,43.0,3,60,14.0,0.0
3369,83.0,3,30,10.0,0.0
3370,79.0,1,30,11.0,0.0
3371,67.0,31,30,12.0,0.0
3372,83.0,5,30,10.0,0.0
3373,79.0,4,30,11.0,0.0
3374,67.0,31,30,12.0,0.0
3375,84.0,5,30,10.0,0.0
3376,84.0,0,60,0.0,0.0
3377,91.0,2,60,0.0,0.0
3378,84.0,2,60,1.0,0.0
3379,79.0,0,60,1.0,0.0
3380,79.0,4,30,11.0,0.0
3381,72.0,0,60,2.0,0.0
3382,67.0,6,60,2.0,0.0
3383,60.0,21,30,12.0,0.0
3384,64.0,2,60,13.0,0.0
3385,64.0,0,60,3.0,0.0
3386,52.0,3,60,14.0,0.0
3387,84.0,3,30,10.0,0.0
3388,79.0,1,30,11.0,0.0
3389,60.0,31,30,12.0,0.0
3390,84.0,5,30,10.0,0.0
3391,79.0,4,30,11.0,0.0
3392,60.0,31,30,12.0,0.0
3393,81.0,5,30,10.0,0.0
3394,84.0,0,60,0.0,0.0
3395,93.0,2,60,0.0,0.0
3396,81.0,0,60,1.0,0.0
3397,77.0,2,60,1.0,0.0
3398,77.0,4,30,11.0,0.0
3399,65.0,6,60,2.0,0.0
3400,69.0,0,60,2.0,0.0
3401,60.0,21,30,12.0,0.0
3402,65.0,2,60,13.0,0.0
3403,65.0,1,60,3.0,0.0
3404,53.0,3,60,14.0,0.0
3405,81.0,3,30,10.0,0.0
3406,65.0,0,30,11.0,0.0
3407,60.0,31,30,12.0,0.0
3408,81.0,5,30,10.0,0.0
3409,65.0,4,30,11.0,0.0
3410,60.0,31,30,12.0,0.0
3411,69.0,5,30,10.0,0.0
3412,93.0,2,60,0.0,0.0
3413,84.0,0,60,0.0,0.0
3414,81.0,2,60,1.0,0.0
3415,77.0,0,60,1.0,0.0
3416,65.0,4,30,11.0,0.0
3417,65.0,0,60,2.0,0.0
3418,69.0,6,60,2.0,0.0
3419,60.0,21,30,12.0,0.0
3420,53.0,2,60,13.0,0.0
3421,53.0,0,60,3.0,0.0
3422,41.0,3,60,14.0,0.0
3423,69.0,3,30,10.0,0.0
3424,65.0,1,30,11.0,0.0
3425,60.0,31,30,12.0,0.0
3426,69.0,5,30,10.0,0.0
3427,65.0,4,30,11.0,0.0
3428,60.0,31,30,12.0,0.0
3429,81.0,5,30,10.0,0.0
3430,93.0,2,60,0.0,0.0
3431,89.0,0,60,0.0,0.0
3432,81.0,0,60,1.0,0.0
3433,77.0,2,60,1.0,0.0
3434,65.0,4,30,11.0,0.0
3435,65.0,0,60,2.0,0.0
3436,69.0,6,60,2.0,0.0
3437,60.0,21,30,12.0,0.0
3438,65.0,2,60,13.0,0.0
3439,65.0,1,60,3.0,0.0
3440,53.0,3,60,14.0,0.0
3441,81.0,3,30,10.0,0.0
3442,65.0,0,30,11.0,0.0
3443,60.0,31,30,12.0,0.0
3444,81.0,5,30,10.0,0.0
3445,65.0,4,30,11.0,0.0
3446,60.0,31,30,12.0,0.0
3447,83.0,5,30,10.0,0.0
3448,93.0,2,60,0.0,0.0
3449,90.0,0,60,0.0,0.0
3450,77.0,2,60,1.0,0.0
3451,83.0,0,60,1.0,0.0
3452,66.0,4,30,11.0,0.0
3453,65.0,0,60,2.0,0.0
3454,71.0,6,60,2.0,0.0
3455,59.0,21,30,12.0,0.0
3456,63.0,2,60,13.0,0.0
3457,63.0,1,60,3.0,0.0
3458,51.0,3,60,14.0,0.0
3459,83.0,3,30,10.0,0.0
3460,66.0,0,30,11.0,0.0
3461,59.0,31,30,12.0,0.0
3462,83.0,5,30,10.0,0.0
3463,66.0,4,30,11.0,0.0
3464,59.0,31,30,12.0,0.0
3465,79.0,5,30,10.0,0.0
3466,83.0,2,60,0.0,0.0
3467,91.0,0,60,0.0,0.0
3468,79.0,1,120,6.0,0.0
3469,71.0,2,60,1.0,0.0
3470,79.0,0,60,1.0,0.0
3471,76.0,4,30,11.0,0.0
3472,67.0,5,120,4.0,0.0
3473,67.0,6,60,2.0,0.0
3474,64.0,0,60,2.0,0.0
3475,59.0,21,30,12.0,0.0
3476,67.0,22,120,5.0,0.0
3477,64.0,2,60,13.0,0.0
3478,64.0,0,60,3.0,0.0
3479,52.0,3,60,14.0,0.0
3480,79.0,3,30,10.0,0.0
3481,64.0,1,30,11.0,0.0
3482,59.0,31,30,12.0,0.0
3483,79.0,5,30,10.0,0.0
3484,64.0,4,30,11.0,0.0
3485,59.0,3,30,12.0,0.0
3486,67.0,5,30,10.0,0.0
3487,91.0,0,60,0.0,0.0
3488,83.0,2,60,0.0,0.0
3489,76.0,0,60,1.0,0.0
3490,79.0,2,60,1.0,0.0
3491,64.0,4,30,11.0,0.0
3492,67.0,6,60,2.0,0.0
3493,64.0,0,60,2.0,0.0
3494,59.0,21,30,12.0,0.0
3495,52.0,2,60,13.0,0.0
3496,52.0,0,60,3.0,0.0
3497,40.0,3,60,14.0,0.0
3498,67.0,3,30,10.0,0.0
3499,64.0,1,30,11.0,0.0
3500,59.0,31,30,12.0,0.0
3501,67.0,5,30,10.0,0.0
3502,64.0,4,30,11.0,0.0
3503,59.0,31,30,12.0,0.0
3504,79.0,5,30,10.0,0.0
3505,91.0,2,60,0.0,0.0
3506,88.0,0,60,0.0,0.0
3507,76.0,2,60,1.0,0.0
3508,79.0,0,60,1.0,0.0
3509,64.0,4,30,11.0,0.0
3510,67.0,0,60,2.0,0.0
3511,64.0,6,60,2.0,0.0
3512,58.0,21,30,12.0,0.0
3513,64.0,2,60,13.0,0.0
3514,64.0,1,60,3.0,0.0
3515,52.0,3,60,14.0,0.0
3516,79.0,3,30,10.0,0.0
3517,64.0,0,30,11.0,0.0
3518,58.0,31,30,12.0,0.0
3519,79.0,5,30,10.0,0.0
3520,64.0,4,30,11.0,0.0
3521,58.0,31,30,12.0,0.0
3522,81.0,5,30,10.0,0.0
3523,88.0,0,60,0.0,0.0
3524,93.0,2,60,0.0,0.0
3525,81.0,2,60,1.0,0.0
3526,76.0,0,60,1.0,0.0
3527,64.0,4,30,11.0,0.0
3528,64.0,6,60,2.0,0.0
3529,69.0,0,60,2.0,0.0
3530,57.0,21,30,12.0,0.0
3531,61.0,2,60,13.0,0.0
3532,61.0,0,60,3.0,0.0
3533,49.0,3,60,14.0,0.0
3534,81.0,3,30,10.0,0.0
3535,64.0,1,30,11.0,0.0
3536,57.0,31,30,12.0,0.0
3537,81.0,5,30,10.0,0.0
3538,64.0,4,30,11.0,0.0
3539,57.0,31,30,12.0,0.0
3540,77.0,5,30,10.0,0.0
3541,81.0,0,60,0.0,0.0
3542,89.0,2,60,0.0,0.0
3543,65.0,0,120,6.0,0.0
3544,77.0,1,120,6.0,0.0
3545,77.0,2,60,1.0,0.0
3546,69.0,0,60,1.0,0.0
3547,74.0,4,30,11.0,0.0
3548,65.0,5,120,4.0,0.0
3549,65.0,0,60,2.0,0.0
3550,62.0,6,60,2.0,0.0
3551,57.0,21,30,12.0,0.0
3552,53.0,9,120,5.0,0.0
3553,62.0,2,60,13.0,0.0
3554,62.0,0,60,3.0,0.0
3555,50.0,3,60,14.0,0.0
3556,53.0,13,120,15.0,0.0
3557,77.0,3,30,10.0,0.0
3558,62.0,1,30,11.0,0.0
3559,57.0,31,30,12.0,0.0
3560,77.0,5,30,10.0,0.0
3561,62.0,4,30,11.0,0.0
3562,57.0,3,30,12.0,0.0
3563,65.0,5,30,10.0,0.0
3564,89.0,0,60,0.0,0.0
3565,81.0,2,60,0.0,0.0
3566,77.0,0,60,1.0,0.0
3567,74.0,2,60,1.0,0.0
3568,62.0,4,30,11.0,0.0
3569,62.0,0,60,2.0,0.0
3570,65.0,6,60,2.0,0.0
3571,57.0,21,30,12.0,0.0
3572,50.0,2,60,13.0,0.0
3573,50.0,0,60,3.0,0.0
3574,38.0,3,60,14.0,0.0
3575,65.0,3,30,10.0,0.0
3576,62.0,1,30,11.0,0.0
3577,57.0,31,30,12.0,0.0
3578,65.0,5,30,10.0,0.0
3579,62.0,4,30,11.0,0.0
3580,57.0,31,30,12.0,0.0
3581,77.0,5,30,10.0,0.0
3582,89.0,0,60,0.0,0.0
3583,86.0,2,60,0.0,0.0
3584,77.0,0,60,1.0,0.0
3585,74.0,2,60,1.0,0.0
3586,62.0,4,30,11.0,0.0
3587,65.0,0,60,2.0,0.0
3588,62.0,6,60,2.0,0.0
3589,56.0,21,30,12.0,0.0
3590,62.0,2,60,13.0,0.0
3591,62.0,0,60,3.0,0.0
3592,50.0,3,60,14.0,0.0
3593,77.0,3,30,10.0,0.0
3594,62.0,1,30,11.0,0.0
3595,56.0,31,30,12.0,0.0
3596,77.0,5,30,10.0,0.0
3597,62.0,4,30,11.0,0.0
3598,56.0,31,30,12.0,0.0
3599,79.0,5,30,10.0,0.0
3600,91.0,2,60,0.0,0.0
3601,86.0,0,60,0.0,0.0
3602,79.0,0,60,1.0,0.0
3603,74.0,2,60,1.0,0.0
3604,65.0,0,30,11.0,0.0
3605,62.0,4,30,11.0,0.0
3606,62.0,0,60,2.0,0.0
3607,67.0,6,60,2.0,0.0
3608,55.0,21,30,12.0,0.0
3609,59.0,2,60,13.0,0.0
3610,59.0,0,60,3.0,0.0
3611,47.0,3,60,14.0,0.0
3612,79.0,3,30,10.0,0.0
3613,62.0,0,30,11.0,0.0
3614,65.0,1,30,11.0,0.0
3615,55.0,31,30,12.0,0.0
3616,79.0,5,30,10.0,0.0
3617,65.0,0,30,11.0,0.0
3618,62.0,4,30,11.0,0.0
3619,55.0,31,30,12.0,0.0
3620,77.0,5,30,10.0,0.0
3621,74.0,0,30,10.0,0.0
3622,89.0,0,960,0.0,0.0
3623,86.0,2,960,0.0,0.0
3624,74.0,0,960,1.0,0.0
3625,77.0,2,960,1.0,0.0
3626,62.0,0,30,11.0,0.0
3627,71.0,4,30,11.0,0.0
3628,65.0,0,960,2.0,0.0
3629,62.0,11,960,2.0,0.0
3630,67.0,0,30,12.0,0.0
3631,55.0,31,30,12.0,0.0
3632,59.0,2,60,13.0,0.0
3633,62.0,0,720,3.0,0.0
3634,59.0,15,720,3.0,0.0
3635,47.0,3,60,14.0,0.0
3636,74.0,3,30,10.0,0.0
3637,77.0,0,30,10.0,0.0
3638,62.0,1,30,11.0,0.0
3639,71.0,0,30,11.0,0.0
3640,67.0,31,30,12.0,0.0
3641,55.0,0,30,12.0,0.0
3642,74.0,0,30,10.0,0.0
3643,77.0,5,30,10.0,0.0
3644,62.0,0,30,11.0,0.0
3645,71.0,4,30,11.0,0.0
3646,55.0,31,30,12.0,0.0
3647,67.0,0,30,12.0,0.0
3648,74.0,5,30,10.0,0.0
3649,77.0,0,30,10.0,0.0
3650,71.0,0,30,11.0,0.0
3651,62.0,4,30,11.0,0.0
3652,55.0,0,30,12.0,0.0
3653,67.0,31,30,12.0,0.0
3654,55.0,2,60,13.0,0.0
3655,43.0,3,60,14.0,0.0
3656,74.0,3,30,10.0,0.0
3657,77.0,0,30,10.0,0.0
3658,71.0,1,30,11.0,0.0
3659,62.0,0,30,11.0,0.0
3660,67.0,0,30,12.0,0.0
3661,55.0,31,30,12.0,0.0
3662,77.0,0,30,10.0,0.0
3663,74.0,5,30,10.0,0.0
3664,62.0,4,30,11.0,0.0
3665,71.0,0,30,11.0,0.0
3666,55.0,0,30,12.0,0.0
3667,67.0,31,30,12.0,0.0
3668,77.0,0,30,10.0,0.0
3669,74.0,5,30,10.0,0.0
3670,62.0,4,30,11.0,0.0
3671,71.0,0,30,11.0,0.0
3672,67.0,0,30,12.0,0.0
3673,55.0,31,30,12.0,0.0
3674,62.0,2,60,13.0,0.0
3675,50.0,3,60,14.0,0.0
3676,77.0,0,30,10.0,0.0
3677,74.0,3,30,10.0,0.0
3678,62.0,0,30,11.0,0.0
3679,71.0,1,30,11.0,0.0
3680,55.0,0,30,12.0,0.0
3681,67.0,31,30,12.0,0.0
3682,74.0,5,30,10.0,0.0
3683,77.0,0,30,10.0,0.0
3684,62.0,4,30,11.0,0.0
3685,71.0,0,30,11.0,0.0
3686,55.0,0,30,12.0,0.0
3687,67.0,31,30,12.0,0.0
3688,77.0,5,30,10.0,0.0
3689,74.0,0,30,10.0,0.0
3690,71.0,4,30,11.0,0.0
3691,62.0,0,30,11.0,0.0
3692,67.0,0,30,12.0,0.0
3693,55.0,31,30,12.0,0.0
3694,59.0,2,60,13.0,0.0
3695,47.0,3,60,14.0,0.0
3696,74.0,0,30,10.0,0.0
3697,77.0,3,30,10.0,0.0
3698,62.0,1,30,11.0,0.0
3699,71.0,0,30,11.0,0.0
3700,67.0,0,30,12.0,0.0
3701,55.0,31,30,12.0,0.0
3702,77.0,0,30,10.0,0.0
3703,74.0,5,30,10.0,0.0
3704,62.0,4,30,11.0,0.0
3705,71.0,0,30,11.0,0.0
3706,67.0,0,30,12.0,0.0
3707,55.0,31,30,12.0,0.0
3708,77.0,0,30,10.0,0.0
3709,74.0,5,30,10.0,0.0
3710,62.0,4,30,11.0,0.0
3711,71.0,0,30,11.0,0.0
3712,67.0,31,30,12.0,0.0
3713,55.0,0,30,12.0,0.0
3714,59.0,2,60,13.0,0.0
3715,47.0,3,60,14.0,0.0
3716,77.0,3,30,10.0,0.0
3717,74.0,0,30,10.0,0.0
3718,62.0,1,30,11.0,0.0
3719,71.0,0,30,11.0,0.0
3720,67.0,31,30,12.0,0.0
3721,55.0,0,30,12.0,0.0
3722,77.0,5,30,10.0,0.0
3723,74.0,0,30,10.0,0.0
3724,62.0,0,30,11.0,0.0
3725,71.0,4,30,11.0,0.0
3726,67.0,0,30,12.0,0.0
3727,55.0,31,30,12.0,0.0
3728,74.0,5,30,10.0,0.0
3729,77.0,0,30,10.0,0.0
3730,71.0,0,30,11.0,0.0
3731,62.0,4,30,11.0,0.0
3732,55.0,0,30,12.0,0.0
3733,67.0,31,30,12.0,0.0
3734,55.0,2,60,13.0,0.0
3735,43.0,3,60,14.0,0.0
3736,77.0,3,30,10.0,0.0
3737,74.0,0,30,10.0,0.0
3738,71.0,0,30,11.0,0.0
3739,62.0,1,30,11.0,0.0
3740,67.0,0,30,12.0,0.0
3741,55.0,31,30,12.0,0.0
3742,74.0,5,30,10.0,0.0
3743,77.0,0,30,10.0,0.0
3744,62.0,4,30,11.0,0.0
3745,71.0,0,30,11.0,0.0
3746,55.0,0,30,12.0,0.0
3747,67.0,16,30,12.0,0.0
3748,77.0,5,30,10.0,0.0
3749,74.0,0,30,10.0,0.0
3750,71.0,0,30,11.0,0.0
3751,62.0,4,30,11.0,0.0
3752,67.0,0,30,12.0,0.0
3753,55.0,31,30,12.0,0.0
3754,55.0,2,60,13.0,0.0
3755,53.0,0,240,3.0,0.0
3756,50.0,15,240,3.0,0.0
3757,43.0,3,60,14.0,0.0
3758,77.0,0,30,10.0,0.0
3759,74.0,3,30,10.0,0.0
3760,62.0,0,30,11.0,0.0
3761,71.0,1,30,11.0,0.0
3762,67.0,0,30,12.0,0.0
3763,55.0,31,30,12.0,0.0
3764,77.0,0,30,10.0,0.0
3765,74.0,5,30,10.0,0.0
3766,62.0,4,30,11.0,0.0
3767,71.0,0,30,11.0,0.0
3768,67.0,31,30,12.0,0.0
3769,55.0,0,30,12.0,0.0
3770,74.0,0,30,10.0,0.0
3771,77.0,5,30,10.0,0.0
3772,62.0,4,30,11.0,0.0
3773,71.0,0,30,11.0,0.0
3774,67.0,31,30,12.0,0.0
3775,55.0,0,30,12.0,0.0
3776,43.0,2,60,13.0,0.0
3777,31.0,3,60,14.0,0.0
3778,74.0,0,30,10.0,0.0
3779,77.0,3,30,10.0,0.0
3780,71.0,0,30,11.0,0.0
3781,62.0,1,30,11.0,0.0
3782,67.0,0,30,12.0,0.0
3783,55.0,31,30,12.0,0.0
3784,77.0,0,30,10.0,0.0
3785,74.0,5,30,10.0,0.0
3786,71.0,4,30,11.0,0.0
3787,62.0,0,30,11.0,0.0
3788,55.0,0,30,12.0,0.0
3789,67.0,1,30,12.0,0.0
3790,70.0,5,30,10.0,0.0
3791,82.0,0,30,10.0,0.0
3792,91.0,2,960,0.0,0.0
3793,88.0,0,960,0.0,0.0
3794,82.0,2,960,1.0,0.0
3795,79.0,0,960,1.0,0.0
3796,67.0,4,30,11.0,0.0
3797,70.0,0,30,11.0,0.0
3798,70.0,0,960,2.0,0.0
3799,67.0,11,960,2.0,0.0
3800,48.0,31,30,12.0,0.0
3801,60.0,0,30,12.0,0.0
3802,55.0,2,60,13.0,0.0
3803,58.0,15,960,3.0,0.0
3804,55.0,0,960,3.0,0.0
3805,43.0,3,60,14.0,0.0
3806,82.0,0,30,10.0,0.0
3807,70.0,3,30,10.0,0.0
3808,67.0,1,30,11.0,0.0
3809,70.0,0,30,11.0,0.0
3810,48.0,0,30,12.0,0.0
3811,60.0,31,30,12.0,0.0
3812,82.0,0,30,10.0,0.0
3813,70.0,5,30,10.0,0.0
3814,70.0,4,30,11.0,0.0
3815,67.0,0,30,11.0,0.0
3816,60.0,0,30,12.0,0.0
3817,48.0,31,30,12.0,0.0
3818,70.0,5,30,10.0,0.0
3819,82.0,0,30,10.0,0.0
3820,67.0,4,30,11.0,0.0
3821,70.0,0,30,11.0,0.0
3822,48.0,0,30,12.0,0.0
3823,60.0,31,30,12.0,0.0
3824,48.0,2,60,13.0,0.0
3825,36.0,3,60,14.0,0.0
3826,70.0,0,30,10.0,0.0
3827,82.0,3,30,10.0,0.0
3828,67.0,0,30,11.0,0.0
3829,70.0,1,30,11.0,0.0
3830,48.0,0,30,12.0,0.0
3831,60.0,31,30,12.0,0.0
3832,70.0,0,30,10.0,0.0
3833,82.0,5,30,10.0,0.0
3834,67.0,0,30,11.0,0.0
3835,70.0,4,30,11.0,0.0
3836,48.0,31,30,12.0,0.0
3837,60.0,0,30,12.0,0.0
3838,82.0,0,30,10.0,0.0
3839,70.0,5,30,10.0,0.0
3840,67.0,0,30,11.0,0.0
3841,70.0,4,30,11.0,0.0
3842,48.0,0,30,12.0,0.0
3843,60.0,31,30,12.0,0.0
3844,58.0,2,60,13.0,0.0
3845,46.0,3,60,14.0,0.0
3846,70.0,3,30,10.0,0.0
3847,82.0,0,30,10.0,0.0
3848,70.0,1,30,11.0,0.0
3849,67.0,0,30,11.0,0.0
3850,48.0,31,30,12.0,0.0
3851,60.0,0,30,12.0,0.0
3852,82.0,0,30,10.0,0.0
3853,70.0,5,30,10.0,0.0
3854,67.0,4,30,11.0,0.0
3855,70.0,0,30,11.0,0.0
3856,48.0,31,30,12.0,0.0
3857,60.0,0,30,12.0,0.0
3858,82.0,0,30,10.0,0.0
3859,70.0,5,30,10.0,0.0
3860,67.0,0,30,11.0,0.0
3861,70.0,4,30,11.0,0.0
3862,60.0,0,30,12.0,0.0
3863,48.0,31,30,12.0,0.0
3864,55.0,2,60,13.0,0.0
3865,43.0,3,60,14.0,0.0
3866,82.0,3,30,10.0,0.0
3867,70.0,0,30,10.0,0.0
3868,67.0,0,30,11.0,0.0
3869,70.0,1,30,11.0,0.0
3870,48.0,31,30,12.0,0.0
3871,60.0,0,30,12.0,0.0
3872,82.0,5,30,10.0,0.0
3873,70.0,0,30,10.0,0.0
3874,70.0,0,30,11.0,0.0
3875,67.0,4,30,11.0,0.0
3876,48.0,0,30,12.0,0.0
3877,60.0,31,30,12.0,0.0
3878,82.0,5,30,10.0,0.0
3879,70.0,0,30,10.0,0.0
3880,70.0,4,30,11.0,0.0
3881,67.0,0,30,11.0,0.0
3882,48.0,0,30,12.0,0.0
3883,60.0,31,30,12.0,0.0
3884,55.0,2,60,13.0,0.0
3885,43.0,3,60,14.0,0.0
3886,70.0,0,30,10.0,0.0
3887,82.0,3,30,10.0,0.0
3888,70.0,0,30,11.0,0.0
3889,67.0,1,30,11.0,0.0
3890,60.0,31,30,12.0,0.0
3891,48.0,0,30,12.0,0.0
3892,82.0,5,30,10.0,0.0
3893,70.0,0,30,10.0,0.0
3894,67.0,4,30,11.0,0.0
3895,70.0,0,30,11.0,0.0
3896,60.0,31,30,12.0,0.0
3897,48.0,0,30,12.0,0.0
3898,70.0,0,30,10.0,0.0
3899,82.0,5,30,10.0,0.0
3900,67.0,4,30,11.0,0.0
3901,70.0,0,30,11.0,0.0
3902,48.0,0,30,12.0,0.0
3903,60.0,31,30,12.0,0.0
3904,48.0,2,60,13.0,0.0
3905,36.0,3,60,14.0,0.0
3906,70.0,3,30,10.0,0.0
3907,82.0,0,30,10.0,0.0
3908,70.0,0,30,11.0,0.0
3909,67.0,1,30,11.0,0.0
3910,48.0,0,30,12.0,0.0
3911,60.0,31,30,12.0,0.0
3912,82.0,5,30,10.0,0.0
3913,70.0,0,30,10.0,0.0
3914,70.0,0,30,11.0,0.0
3915,67.0,4,30,11.0,0.0
3916,60.0,0,30,12.0,0.0
3917,48.0,31,30,12.0,0.0
3918,70.0,0,30,10.0,0.0
3919,82.0,5,30,10.0,0.0
3920,70.0,4,30,11.0,0.0
3921,67.0,0,30,11.0,0.0
3922,60.0,31,30,12.0,0.0
3923,48.0,0,30,12.0,0.0
3924,60.0,2,60,13.0,0.0
3925,48.0,3,60,14.0,0.0
3926,82.0,0,30,10.0,0.0
3927,70.0,3,30,10.0,0.0
3928,70.0,0,30,11.0,0.0
3929,67.0,1,30,11.0,0.0
3930,60.0,0,30,12.0,0.0
3931,48.0,31,30,12.0,0.0
3932,70.0,0,30,10.0,0.0
3933,82.0,5,30,10.0,0.0
3934,70.0,0,30,11.0,0.0
3935,67.0,4,30,11.0,0.0
3936,48.0,0,30,12.0,0.0
3937,60.0,31,30,12.0,0.0
3938,70.0,0,30,10.0,0.0
3939,82.0,5,30,10.0,0.0
3940,70.0,4,30,11.0,0.0
3941,67.0,0,30,11.0,0.0
3942,48.0,31,30,12.0,0.0
3943,60.0,0,30,12.0,0.0
3944,48.0,2,60,13.0,0.0
3945,36.0,3,60,14.0,0.0
3946,70.0,0,30,10.0,0.0
3947,82.0,3,30,10.0,0.0
3948,67.0,0,30,11.0,0.0
3949,70.0,1,30,11.0,0.0
3950,48.0,0,30,12.0,0.0
3951,60.0,31,30,12.0,0.0
3952,82.0,5,30,10.0,0.0
3953,70.0,0,30,10.0,0.0
3954,70.0,0,30,11.0,0.0
3955,67.0,4,30,11.0,0.0
3956,60.0,0,30,12.0,0.0
3957,48.0,1,30,12.0,0.0
3958,81.0,0,30,10.0,0.0
3959,69.0,5,30,10.0,0.0
3960,93.0,0,960,0.0,0.0
3961,89.0,0,960,0.0,0.0
3962,65.0,1,960,6.0,0.0
3963,81.0,0,960,1.0,0.0
3964,77.0,0,960,1.0,0.0
3965,77.0,0,960,6.0,0.0
3966,65.0,4,30,11.0,0.0
3967,65.0,1,960,4.0,0.0
3968,69.0,0,30,11.0,0.0
3969,65.0,1,960,2.0,0.0
3970,69.0,0,960,2.0,0.0
3971,53.0,0,30,12.0,0.0
3972,57.0,31,30,12.0,0.0
3973,53.0,1,960,5.0,0.0
3974,60.0,2,60,13.0,0.0
3975,57.0,12,960,3.0,0.0
3976,53.0,0,960,3.0,0.0
3977,48.0,1,60,14.0,0.0
3978,69.0,3,30,10.0,0.0
3979,81.0,0,30,10.0,0.0
3980,69.0,0,30,11.0,0.0
3981,65.0,1,30,11.0,0.0
3982,53.0,31,30,12.0,0.0
3983,57.0,0,30,12.0,0.0
3984,41.0,2,15,15.0,0.0
3985,69.0,0,30,10.0,0.0
3986,81.0,5,30,10.0,0.0
3987,65.0,0,30,11.0,0.0
3988,69.0,4,30,11.0,0.0
3989,57.0,18,30,12.0,0.0
3990,53.0,0,30,12.0,0.0
3991,81.0,5,30,10.0,0.0
3992,69.0,0,30,10.0,0.0
3993,65.0,0,30,11.0,0.0
3994,69.0,4,30,11.0,0.0
3995,57.0,0,30,12.0,0.0
3996,53.0,31,30,12.0,0.0
3997,53.0,2,60,13.0,0.0
3998,41.0,1,60,14.0,0.0
3999,41.0,13,15,15.0,0.0
4000,81.0,3,30,10.0,0.0
4001,69.0,0,30,10.0,0.0
4002,69.0,0,30,11.0,0.0
4003,65.0,1,30,11.0,0.0
4004,53.0,0,30,12.0,0.0
4005,57.0,31,30,12.0,0.0
4006,69.0,0,30,10.0,0.0
4007,81.0,5,30,10.0,0.0
4008,65.0,0,30,11.0,0.0
4009,69.0,4,30,11.0,0.0
4010,53.0,18,30,12.0,0.0
4011,57.0,0,30,12.0,0.0
4012,69.0,5,30,10.0,0.0
4013,81.0,0,30,10.0,0.0
4014,69.0,0,30,11.0,0.0
4015,65.0,4,30,11.0,0.0
4016,57.0,31,30,12.0,0.0
4017,53.0,0,30,12.0,0.0
4018,65.0,2,60,13.0,0.0
4019,53.0,1,60,14.0,0.0
4020,41.0,13,15,15.0,0.0
4021,69.0,0,30,10.0,0.0
4022,81.0,3,30,10.0,0.0
4023,69.0,1,30,11.0,0.0
4024,65.0,0,30,11.0,0.0
4025,57.0,31,30,12.0,0.0
4026,53.0,0,30,12.0,0.0
4027,41.0,2,15,15.0,0.0
4028,69.0,5,30,10.0,0.0
4029,81.0,0,30,10.0,0.0
4030,65.0,4,30,11.0,0.0
4031,69.0,0,30,11.0,0.0
4032,57.0,18,30,12.0,0.0
4033,53.0,0,30,12.0,0.0
4034,81.0,0,30,10.0,0.0
4035,69.0,5,30,10.0,0.0
4036,65.0,0,30,11.0,0.0
4037,69.0,4,30,11.0,0.0
4038,53.0,0,30,12.0,0.0
4039,57.0,31,30,12.0,0.0
4040,60.0,2,60,13.0,0.0
4041,48.0,1,60,14.0,0.0
4042,41.0,2,60,15.0,0.0
4043,69.0,3,30,10.0,0.0
4044,81.0,0,30,10.0,0.0
4045,65.0,1,30,11.0,0.0
4046,69.0,0,30,11.0,0.0
4047,57.0,31,30,12.0,0.0
4048,53.0,0,30,12.0,0.0
4049,69.0,5,30,10.0,0.0
4050,81.0,0,30,10.0,0.0
4051,65.0,4,30,11.0,0.0
4052,69.0,0,30,11.0,0.0
4053,57.0,18,30,12.0,0.0
4054,53.0,0,30,12.0,0.0
4055,81.0,5,30,10.0,0.0
4056,69.0,0,30,10.0,0.0
4057,65.0,0,30,11.0,0.0
4058,69.0,4,30,11.0,0.0
4059,53.0,0,30,12.0,0.0
4060,57.0,31,30,12.0,0.0
4061,60.0,2,60,13.0,0.0
4062,48.0,1,60,14.0,0.0
4063,41.0,13,15,15.0,0.0
4064,81.0,0,30,10.0,0.0
4065,69.0,3,30,10.0,0.0
4066,69.0,1,30,11.0,0.0
4067,65.0,0,30,11.0,0.0
4068,57.0,31,30,12.0,0.0
4069,53.0,0,30,12.0,0.0
4070,41.0,2,15,15.0,0.0
4071,69.0,5,30,10.0,0.0
4072,81.0,0,30,10.0,0.0
4073,69.0,4,30,11.0,0.0
4074,65.0,0,30,11.0,0.0
4075,57.0,18,30,12.0,0.0
4076,53.0,0,30,12.0,0.0
4077,69.0,0,30,10.0,0.0
4078,81.0,5,30,10.0,0.0
4079,65.0,4,30,11.0,0.0
4080,69.0,0,30,11.0,0.0
4081,57.0,31,30,12.0,0.0
4082,53.0,0,30,12.0,0.0
4083,53.0,2,60,13.0,0.0
4084,41.0,1,60,14.0,0.0
4085,81.0,3,30,10.0,0.0
4086,69.0,0,30,10.0,0.0
4087,69.0,0,30,11.0,0.0
4088,65.0,1,30,11.0,0.0
4089,53.0,31,30,12.0,0.0
4090,57.0,0,30,12.0,0.0
4091,41.0,2,15,15.0,0.0
4092,69.0,5,30,10.0,0.0
4093,81.0,0,30,10.0,0.0
4094,69.0,0,30,11.0,0.0
4095,65.0,4,30,11.0,0.0
4096,53.0,18,30,12.0,0.0
4097,57.0,0,30,12.0,0.0
4098,69.0,0,30,10.0,0.0
4099,81.0,5,30,10.0,0.0
4100,69.0,0,30,11.0,0.0
4101,65.0,4,30,11.0,0.0
4102,57.0,0,30,12.0,0.0
4103,53.0,31,30,12.0,0.0
4104,53.0,2,60,13.0,0.0
4105,41.0,1,60,14.0,0.0
4106,41.0,2,60,15.0,0.0
4107,69.0,3,30,10.0,0.0
4108,81.0,0,30,10.0,0.0
4109,69.0,1,30,11.0,0.0
4110,65.0,0,30,11.0,0.0
4111,53.0,0,30,12.0,0.0
4112,57.0,31,30,12.0,0.0
4113,41.0,13,60,15.0,0.0
4114,69.0,0,30,10.0,0.0
4115,81.0,5,30,10.0,0.0
4116,65.0,0,30,11.0,0.0
4117,69.0,4,30,11.0,0.0
4118,57.0,18,30,12.0,0.0
4119,53.0,0,30,12.0,0.0
4120,81.0,0,30,10.0,0.0
4121,69.0,5,30,10.0,0.0
4122,69.0,0,30,11.0,0.0
4123,65.0,4,30,11.0,0.0
4124,53.0,0,30,12.0,0.0
4125,57.0,31,30,12.0,0.0
4126,41.0,2,60,13.0,0.0
4127,29.0,1,60,14.0,0.0
4128,81.0,3,30,10.0,0.0
4129,69.0,0,30,10.0,0.0
4130,69.0,0,30,11.0,0.0
4131,65.0,1,30,11.0,0.0
4132,53.0,31,30,12.0,0.0
4133,57.0,0,30,12.0,0.0
4134,41.0,2,15,15.0,0.0
4135,81.0,0,30,10.0,0.0
4136,69.0,2,30,10.0,0.0
4137,65.0,0,30,11.0,0.0
4138,69.0,3,30,11.0,0.0
4139,53.0,0,30,12.0,0.0
4140,57.0,6,30,12.0,0.0
4141,69.0,2,120,10.0,0.0
4142,81.0,0,120,10.0,0.0
4143,93.0,0,120,0.0,0.0
4144,89.0,2,120,0.0,0.0
4145,77.0,0,120,1.0,0.0
4146,81.0,1,120,1.0,0.0
4147,65.0,0,120,6.0,0.0
4148,77.0,0,120,6.0,0.0
4149,65.0,0,120,4.0,0.0
4150,69.0,1,120,11.0,0.0
4151,65.0,0,120,11.0,0.0
4152,65.0,3,120,2.0,0.0
4153,69.0,0,120,2.0,0.0
4154,53.0,0,120,12.0,0.0
4155,57.0,1,120,12.0,0.0
4156,53.0,5,120,5.0,0.0
4157,41.0,2,120,13.0,0.0
4158,53.0,1,120,3.0,0.0
4159,57.0,0,120,3.0,0.0
4160,29.0,1,120,14.0,0.0
4161,41.0,101,15,15.0,0.0
4162,53.0,0,30,12.0,0.0
4163,57.0,40,30,12.0,0.0
4164,57.0,40,30,12.0,0.0
4165,53.0,0,30,12.0,0.0
4166,57.0,40,30,12.0,0.0
4167,53.0,0,30,12.0,0.0
4168,53.0,40,30,12.0,0.0
4169,57.0,0,30,12.0,0.0
4170,53.0,0,30,12.0,0.0
4171,57.0,40,30,12.0,0.0
4172,57.0,0,30,12.0,0.0
4173,53.0,130,30,12.0,0.0
4174,53.0,621,120,12.0,0.0
4175,57.0,0,120,12.0,0.0
4176,69.0,5,30,10.0,0.0
4177,65.0,35,30,11.0,0.0
4178,69.0,5,30,10.0,0.0
4179,65.0,35,30,11.0,0.0
4180,69.0,5,30,10.0,0.0
4181,65.0,35,30,11.0,0.0
4182,69.0,5,30,10.0,0.0
4183,65.0,35,30,11.0,0.0
4184,69.0,5,30,10.0,0.0
4185,65.0,35,30,11.0,0.0
4186,69.0,5,30,10.0,0.0
4187,65.0,125,30,11.0,0.0
4188,69.0,5,120,10.0,0.0
4189,65.0,634,120,11.0,0.0
4190,57.0,40,30,12.0,0.0
4191,53.0,0,30,12.0,0.0
4192,53.0,40,30,12.0,0.0
4193,57.0,0,30,12.0,0.0
4194,53.0,0,30,12.0,0.0
4195,57.0,40,30,12.0,0.0
4196,57.0,40,30,12.0,0.0
4197,53.0,0,30,12.0,0.0
4198,57.0,0,30,12.0,0.0
4199,53.0,40,30,12.0,0.0
4200,53.0,0,30,12.0,0.0
4201,57.0,130,30,12.0,0.0
4202,53.0,621,120,12.0,0.0
4203,57.0,0,120,12.0,0.0
4204,69.0,5,30,10.0,0.0
4205,65.0,35,30,11.0,0.0
4206,69.0,5,30,10.0,0.0
4207,65.0,35,30,11.0,0.0
4208,69.0,5,30,10.0,0.0
4209,65.0,35,30,11.0,0.0
4210,69.0,5,30,10.0,0.0
4211,65.0,35,30,11.0,0.0
4212,69.0,5,30,10.0,0.0
4213,65.0,35,30,11.0,0.0
4214,69.0,5,30,10.0,0.0
4215,65.0,65,30,11.0,0.0
4216,69.0,5,60,10.0,0.0
4217,65.0,55,60,11.0,0.0
4218,70.0,5,60,10.0,0.0
4219,67.0,55,60,11.0,0.0
4220,67.0,5,60,10.0,0.0
4221,60.0,115,60,11.0,0.0
4222,69.0,5,60,10.0,0.0
4223,65.0,4,60,11.0,0.0
4224,57.0,51,60,12.0,0.0
4225,53.0,0,60,12.0,0.0
4226,70.0,5,60,10.0,0.0
4227,67.0,4,60,11.0,0.0
4228,58.0,51,60,12.0,0.0
4229,55.0,0,60,12.0,0.0
4230,67.0,5,60,10.0,0.0
4231,60.0,4,60,11.0,0.0
4232,48.0,111,60,12.0,0.0
4233,55.0,0,60,12.0,0.0
4234,69.0,2,60,10.0,0.0
4235,81.0,2,60,0.0,0.0
4236,77.0,1,60,1.0,0.0
4237,65.0,55,60,11.0,0.0
4238,70.0,2,60,10.0,0.0
4239,82.0,2,60,0.0,0.0
4240,79.0,1,60,1.0,0.0
4241,67.0,55,60,11.0,0.0
4242,67.0,2,60,10.0,0.0
4243,79.0,2,60,0.0,0.0
4244,72.0,1,60,1.0,0.0
4245,60.0,85,60,11.0,0.0
4246,70.0,5,30,10.0,0.0
4247,67.0,35,30,11.0,0.0
4248,70.0,5,30,10.0,0.0
4249,67.0,35,30,11.0,0.0
4250,70.0,5,30,10.0,0.0
4251,67.0,35,30,11.0,0.0
4252,70.0,5,30,10.0,0.0
4253,67.0,35,30,11.0,0.0
4254,70.0,5,30,10.0,0.0
4255,67.0,35,30,11.0,0.0
4256,70.0,5,30,10.0,0.0
4257,67.0,65,30,11.0,0.0
4258,70.0,5,60,10.0,0.0
4259,67.0,55,60,11.0,0.0
4260,72.0,5,60,10.0,0.0
4261,69.0,55,60,11.0,0.0
4262,69.0,5,60,10.0,0.0
4263,65.0,115,60,11.0,0.0
4264,70.0,5,60,10.0,0.0
4265,67.0,4,60,11.0,0.0
4266,55.0,0,60,12.0,0.0
4267,58.0,51,60,12.0,0.0
4268,72.0,5,60,10.0,0.0
4269,69.0,4,60,11.0,0.0
4270,60.0,0,60,12.0,0.0
4271,69.0,5,60,10.0,0.0
4272,65.0,4,60,11.0,0.0
4273,57.0,51,15,12.0,0.0
4274,53.0,111,60,12.0,0.0
4275,70.0,2,60,10.0,0.0
4276,82.0,2,60,0.0,0.0
4277,79.0,1,60,1.0,0.0
4278,67.0,55,60,11.0,0.0
4279,72.0,2,60,10.0,0.0
4280,84.0,2,60,0.0,0.0
4281,81.0,1,60,1.0,0.0
4282,69.0,55,60,11.0,0.0
4283,69.0,2,60,10.0,0.0
4284,81.0,2,60,0.0,0.0
4285,77.0,1,60,1.0,0.0
4286,65.0,92,60,11.0,0.0
4287,77.0,1,120,10.0,0.0
4288,72.0,4,30,11.0,0.0
4289,69.0,36,30,12.0,0.0
4290,72.0,4,30,11.0,0.0
4291,69.0,36,30,12.0,0.0
4292,72.0,3,30,11.0,0.0
4293,69.0,36,30,12.0,0.0
4294,70.0,4,30,11.0,0.0
4295,67.0,36,30,12.0,0.0
4296,70.0,4,30,11.0,0.0
4297,67.0,34,30,12.0,0.0
4298,76.0,2,60,10.0,0.0
4299,70.0,4,30,11.0,0.0
4300,67.0,36,30,12.0,0.0
4301,76.0,1,120,10.0,0.0
4302,69.0,4,30,11.0,0.0
4303,65.0,36,30,12.0,0.0
4304,69.0,4,30,11.0,0.0
4305,65.0,36,30,12.0,0.0
4306,69.0,3,30,11.0,0.0
4307,65.0,36,30,12.0,0.0
4308,74.0,2,120,10.0,0.0
4309,69.0,4,30,11.0,0.0
4310,65.0,36,30,12.0,0.0
4311,69.0,4,30,11.0,0.0
4312,65.0,34,30,12.0,0.0
4313,69.0,4,30,11.0,0.0
4314,65.0,36,30,12.0,0.0
4315,86.0,1,120,10.0,0.0
4316,69.0,4,30,11.0,0.0
4317,65.0,36,30,12.0,0.0
4318,69.0,4,30,11.0,0.0
4319,65.0,36,30,12.0,0.0
4320,69.0,3,30,11.0,0.0
4321,65.0,36,30,12.0,0.0
4322,67.0,4,30,11.0,0.0
4323,64.0,36,30,12.0,0.0
4324,67.0,4,30,11.0,0.0
4325,64.0,34,30,12.0,0.0
4326,84.0,2,60,10.0,0.0
4327,67.0,4,30,11.0,0.0
4328,64.0,36,30,12.0,0.0
4329,84.0,1,120,10.0,0.0
4330,65.0,4,30,11.0,0.0
4331,62.0,36,30,12.0,0.0
4332,77.0,4,30,11.0,0.0
4333,74.0,36,30,12.0,0.0
4334,77.0,3,30,11.0,0.0
4335,74.0,36,30,12.0,0.0
4336,82.0,2,120,10.0,0.0
4337,77.0,4,30,11.0,0.0
4338,74.0,36,30,12.0,0.0
4339,77.0,4,30,11.0,0.0
4340,74.0,34,30,12.0,0.0
4341,77.0,4,30,11.0,0.0
4342,74.0,36,30,12.0,0.0
4343,82.0,17,60,10.0,0.0
4344,77.0,4,30,11.0,0.0
4345,74.0,19,30,12.0,0.0
4346,77.0,4,30,11.0,0.0
4347,74.0,36,30,12.0,0.0
4348,77.0,4,30,11.0,0.0
4349,74.0,36,30,12.0,0.0
4350,81.0,17,60,10.0,0.0
4351,76.0,4,30,11.0,0.0
4352,72.0,19,30,12.0,0.0
4353,76.0,4,30,11.0,0.0
4354,72.0,36,30,12.0,0.0
4355,76.0,4,30,11.0,0.0
4356,72.0,36,30,12.0,0.0
4357,79.0,17,60,10.0,0.0
4358,74.0,4,30,11.0,0.0
4359,70.0,19,30,12.0,0.0
4360,74.0,4,30,11.0,0.0
4361,70.0,36,30,12.0,0.0
4362,74.0,4,30,11.0,0.0
4363,70.0,36,30,12.0,0.0
4364,78.0,17,60,10.0,0.0
4365,72.0,4,30,11.0,0.0
4366,69.0,19,30,12.0,0.0
4367,72.0,4,30,11.0,0.0
4368,69.0,36,30,12.0,0.0
4369,72.0,4,30,11.0,0.0
4370,69.0,36,30,12.0,0.0
4371,79.0,17,60,10.0,0.0
4372,74.0,4,30,11.0,0.0
4373,70.0,19,30,12.0,0.0
4374,74.0,4,30,11.0,0.0
4375,70.0,36,30,12.0,0.0
4376,74.0,4,30,11.0,0.0
4377,70.0,36,30,12.0,0.0
4378,81.0,17,60,10.0,0.0
4379,76.0,4,30,11.0,0.0
4380,72.0,19,30,12.0,0.0
4381,76.0,4,30,11.0,0.0
4382,72.0,36,30,12.0,0.0
4383,76.0,4,30,11.0,0.0
4384,72.0,31,30,12.0,0.0
4385,82.0,5,30,10.0,0.0
4386,77.0,4,30,11.0,0.0
4387,74.0,31,30,12.0,0.0
4388,70.0,5,30,10.0,0.0
4389,65.0,4,30,11.0,0.0
4390,62.0,31,30,12.0,0.0
4391,70.0,5,30,10.0,0.0
4392,65.0,4,30,11.0,0.0
4393,62.0,31,30,12.0,0.0
4394,70.0,5,30,10.0,0.0
4395,65.0,4,30,11.0,0.0
4396,62.0,31,30,12.0,0.0
4397,70.0,5,30,10.0,0.0
4398,65.0,4,30,11.0,0.0
4399,62.0,31,30,12.0,0.0
4400,70.0,5,30,10.0,0.0
4401,65.0,4,30,11.0,0.0
4402,62.0,31,30,12.0,0.0
4403,70.0,5,30,10.0,0.0
4404,82.0,2,60,0.0,0.0
4405,70.0,0,60,1.0,0.0
4406,82.0,2,60,1.0,0.0
4407,65.0,4,30,11.0,0.0
4408,82.0,0,60,2.0,0.0
4409,70.0,6,60,2.0,0.0
4410,62.0,21,30,12.0,0.0
4411,62.0,2,60,13.0,0.0
4412,62.0,1,60,3.0,0.0
4413,65.0,0,60,3.0,0.0
4414,50.0,3,60,14.0,0.0
4415,70.0,3,30,10.0,0.0
4416,65.0,0,30,11.0,0.0
4417,62.0,31,30,12.0,0.0
4418,70.0,5,30,10.0,0.0
4419,65.0,4,30,11.0,0.0
4420,62.0,31,30,12.0,0.0
4421,69.0,5,30,10.0,0.0
4422,81.0,2,60,0.0,0.0
4423,69.0,0,60,1.0,0.0
4424,81.0,2,60,1.0,0.0
4425,64.0,4,30,11.0,0.0
4426,69.0,6,60,2.0,0.0
4427,81.0,0,60,2.0,0.0
4428,60.0,21,30,12.0,0.0
4429,60.0,2,60,13.0,0.0
4430,64.0,0,60,3.0,0.0
4431,60.0,1,60,3.0,0.0
4432,48.0,3,60,14.0,0.0
4433,69.0,3,30,10.0,0.0
4434,64.0,0,30,11.0,0.0
4435,60.0,31,30,12.0,0.0
4436,69.0,5,30,10.0,0.0
4437,64.0,4,30,11.0,0.0
4438,60.0,31,30,12.0,0.0
4439,67.0,5,30,10.0,0.0
4440,79.0,2,60,0.0,0.0
4441,67.0,2,60,1.0,0.0
4442,79.0,0,60,1.0,0.0
4443,62.0,4,30,11.0,0.0
4444,67.0,0,60,2.0,0.0
4445,79.0,6,60,2.0,0.0
4446,58.0,21,30,12.0,0.0
4447,58.0,2,60,13.0,0.0
4448,58.0,0,60,3.0,0.0
4449,62.0,1,60,3.0,0.0
4450,46.0,3,60,14.0,0.0
4451,67.0,3,30,10.0,0.0
4452,62.0,0,30,11.0,0.0
4453,58.0,31,30,12.0,0.0
4454,67.0,5,30,10.0,0.0
4455,62.0,4,30,11.0,0.0
4456,58.0,31,30,12.0,0.0
4457,66.0,5,30,10.0,0.0
4458,78.0,2,60,0.0,0.0
4459,78.0,2,60,1.0,0.0
4460,66.0,0,60,1.0,0.0
4461,60.0,4,30,11.0,0.0
4462,78.0,0,60,2.0,0.0
4463,66.0,6,60,2.0,0.0
4464,57.0,21,30,12.0,0.0
4465,57.0,2,60,13.0,0.0
4466,57.0,0,60,3.0,0.0
4467,60.0,1,60,3.0,0.0
4468,45.0,3,60,14.0,0.0
4469,66.0,3,30,10.0,0.0
4470,60.0,0,30,11.0,0.0
4471,57.0,31,30,12.0,0.0
4472,66.0,5,30,10.0,0.0
4473,60.0,4,30,11.0,0.0
4474,57.0,31,30,12.0,0.0
4475,67.0,5,30,10.0,0.0
4476,79.0,2,60,0.0,0.0
4477,67.0,2,60,1.0,0.0
4478,79.0,0,60,1.0,0.0
4479,62.0,4,30,11.0,0.0
4480,67.0,0,60,2.0,0.0
4481,79.0,6,60,2.0,0.0
4482,58.0,21,30,12.0,0.0
4483,58.0,2,60,13.0,0.0
4484,62.0,0,60,3.0,0.0
4485,58.0,0,60,3.0,0.0
4486,46.0,3,60,14.0,0.0
4487,67.0,3,30,10.0,0.0
4488,62.0,1,30,11.0,0.0
4489,58.0,31,30,12.0,0.0
4490,67.0,5,30,10.0,0.0
4491,62.0,4,30,11.0,0.0
4492,58.0,31,30,12.0,0.0
4493,69.0,5,30,10.0,0.0
4494,81.0,2,60,0.0,0.0
4495,81.0,0,60,1.0,0.0
4496,69.0,2,60,1.0,0.0
4497,64.0,4,30,11.0,0.0
4498,69.0,6,60,2.0,0.0
4499,81.0,0,60,2.0,0.0
4500,60.0,21,30,12.0,0.0
4501,60.0,2,60,13.0,0.0
4502,60.0,1,60,3.0,0.0
4503,64.0,0,60,3.0,0.0
4504,48.0,3,60,14.0,0.0
4505,69.0,3,30,10.0,0.0
4506,64.0,0,30,11.0,0.0
4507,60.0,31,30,12.0,0.0
4508,69.0,5,30,10.0,0.0
4509,64.0,4,30,11.0,0.0
4510,60.0,36,30,12.0,0.0
4511,70.0,1,120,10.0,0.0
4512,82.0,2,60,0.0,0.0
4513,82.0,2,60,1.0,0.0
4514,70.0,0,60,1.0,0.0
4515,65.0,4,30,11.0,0.0
4516,70.0,0,60,2.0,0.0
4517,82.0,11,60,2.0,0.0
4518,62.0,21,30,12.0,0.0
4519,62.0,3,120,13.0,0.0
4520,65.0,0,60,3.0,0.0
4521,62.0,0,60,3.0,0.0
4522,50.0,19,120,14.0,0.0
4523,77.0,4,30,11.0,0.0
4524,74.0,36,30,12.0,0.0
4525,77.0,3,30,11.0,0.0
4526,74.0,14,30,12.0,0.0
4527,77.0,4,30,11.0,0.0
4528,74.0,36,30,12.0,0.0
4529,77.0,4,30,11.0,0.0
4530,74.0,36,30,12.0,0.0
4531,77.0,4,30,11.0,0.0
4532,74.0,36,30,12.0,0.0
4533,82.0,17,60,10.0,0.0
4534,77.0,4,30,11.0,0.0
4535,74.0,19,30,12.0,0.0
4536,77.0,4,30,11.0,0.0
4537,74.0,36,30,12.0,0.0
4538,77.0,4,30,11.0,0.0
4539,74.0,36,30,12.0,0.0
4540,81.0,17,60,10.0,0.0
4541,76.0,4,30,11.0,0.0
4542,72.0,19,30,12.0,0.0
4543,76.0,4,30,11.0,0.0
4544,72.0,36,30,12.0,0.0
4545,76.0,4,30,11.0,0.0
4546,72.0,36,30,12.0,0.0
4547,79.0,17,60,10.0,0.0
4548,74.0,4,30,11.0,0.0
4549,70.0,19,30,12.0,0.0
4550,74.0,4,30,11.0,0.0
4551,70.0,36,30,12.0,0.0
4552,74.0,4,30,11.0,0.0
4553,70.0,36,30,12.0,0.0
4554,78.0,17,60,10.0,0.0
4555,72.0,4,30,11.0,0.0
4556,69.0,19,30,12.0,0.0
4557,72.0,4,30,11.0,0.0
4558,69.0,36,30,12.0,0.0
4559,72.0,4,30,11.0,0.0
4560,69.0,36,30,12.0,0.0
4561,79.0,17,60,10.0,0.0
4562,74.0,4,30,11.0,0.0
4563,70.0,19,30,12.0,0.0
4564,74.0,4,30,11.0,0.0
4565,70.0,36,30,12.0,0.0
4566,74.0,4,30,11.0,0.0
4567,70.0,36,30,12.0,0.0
4568,81.0,17,60,10.0,0.0
4569,76.0,4,30,11.0,0.0
4570,72.0,19,30,12.0,0.0
4571,76.0,4,30,11.0,0.0
4572,72.0,36,30,12.0,0.0
4573,76.0,4,30,11.0,0.0
4574,72.0,36,30,12.0,0.0
4575,82.0,1,120,10.0,0.0
4576,77.0,4,30,11.0,0.0
4577,74.0,36,30,12.0,0.0
4578,65.0,4,30,11.0,0.0
4579,62.0,36,30,12.0,0.0
4580,65.0,3,30,11.0,0.0
4581,62.0,36,30,12.0,0.0
4582,65.0,4,30,11.0,0.0
4583,62.0,36,30,12.0,0.0
4584,65.0,4,30,11.0,0.0
4585,62.0,36,30,12.0,0.0
4586,65.0,4,30,11.0,0.0
4587,62.0,36,30,12.0,0.0
4588,82.0,1,120,10.0,0.0
4589,65.0,4,30,11.0,0.0
4590,62.0,36,30,12.0,0.0
4591,65.0,4,30,11.0,0.0
4592,62.0,36,30,12.0,0.0
4593,65.0,3,30,11.0,0.0
4594,62.0,36,30,12.0,0.0
4595,64.0,4,30,11.0,0.0
4596,60.0,36,30,12.0,0.0
4597,64.0,4,30,11.0,0.0
4598,60.0,34,30,12.0,0.0
4599,81.0,2,60,10.0,0.0
4600,64.0,4,30,11.0,0.0
4601,60.0,36,30,12.0,0.0
4602,81.0,1,120,10.0,0.0
4603,62.0,4,30,11.0,0.0
4604,58.0,36,30,12.0,0.0
4605,74.0,4,30,11.0,0.0
4606,70.0,36,30,12.0,0.0
4607,74.0,3,30,11.0,0.0
4608,70.0,36,30,12.0,0.0
4609,79.0,2,120,10.0,0.0
4610,74.0,4,30,11.0,0.0
4611,70.0,36,30,12.0,0.0
4612,74.0,4,30,11.0,0.0
4613,70.0,34,30,12.0,0.0
4614,74.0,4,30,11.0,0.0
4615,70.0,36,30,12.0,0.0
4616,79.0,17,60,10.0,0.0
4617,74.0,4,30,11.0,0.0
4618,70.0,19,30,12.0,0.0
4619,74.0,4,30,11.0,0.0
4620,70.0,36,30,12.0,0.0
4621,74.0,4,30,11.0,0.0
4622,70.0,36,30,12.0,0.0
4623,72.0,4,30,11.0,0.0
4624,69.0,36,30,12.0,0.0
4625,72.0,4,30,11.0,0.0
4626,69.0,34,30,12.0,0.0
4627,77.0,2,60,10.0,0.0
4628,72.0,4,30,11.0,0.0
4629,69.0,36,30,12.0,0.0
4630,77.0,1,120,10.0,0.0
4631,72.0,4,30,11.0,0.0
4632,69.0,36,30,12.0,0.0
4633,72.0,4,30,11.0,0.0
4634,69.0,36,30,12.0,0.0
4635,72.0,3,30,11.0,0.0
4636,69.0,36,30,12.0,0.0
4637,76.0,2,120,10.0,0.0
4638,70.0,4,30,11.0,0.0
4639,67.0,36,30,12.0,0.0
4640,70.0,4,30,11.0,0.0
4641,67.0,34,30,12.0,0.0
4642,70.0,4,30,11.0,0.0
4643,67.0,36,30,12.0,0.0
4644,76.0,2,60,10.0,0.0
4645,88.0,13,60,0.0,0.0
4646,70.0,4,30,11.0,0.0
4647,67.0,19,30,12.0,0.0
4648,67.0,2,60,13.0,0.0
4649,55.0,3,60,14.0,0.0
4650,70.0,1,30,11.0,0.0
4651,67.0,36,30,12.0,0.0
4652,70.0,4,30,11.0,0.0
4653,67.0,36,30,12.0,0.0
4654,71.0,4,30,11.0,0.0
4655,68.0,36,30,12.0,0.0
4656,71.0,4,30,11.0,0.0
4657,68.0,34,30,12.0,0.0
4658,74.0,2,60,10.0,0.0
4659,86.0,4,60,0.0,0.0
4660,65.0,3,60,13.0,0.0
4661,53.0,24,60,14.0,0.0
4662,71.0,0,30,11.0,0.0
4663,68.0,9,30,12.0,0.0
4664,74.0,1,120,10.0,0.0
4665,86.0,13,120,0.0,0.0
4666,69.0,4,30,11.0,0.0
4667,57.0,36,30,12.0,0.0
4668,65.0,3,120,13.0,0.0
4669,53.0,19,120,14.0,0.0
4670,69.0,4,30,11.0,0.0
4671,57.0,36,30,12.0,0.0
4672,69.0,3,30,11.0,0.0
4673,57.0,1,30,12.0,0.0
4674,73.0,2,120,10.0,0.0
4675,85.0,0,120,0.0,0.0
4676,69.0,4,30,11.0,0.0
4677,57.0,36,30,12.0,0.0
4678,64.0,3,120,13.0,0.0
4679,52.0,24,120,14.0,0.0
4680,69.0,4,30,11.0,0.0
4681,57.0,34,30,12.0,0.0
4682,69.0,4,30,11.0,0.0
4683,57.0,9,30,12.0,0.0
4684,73.0,2,60,10.0,0.0
4685,85.0,13,60,0.0,0.0
4686,69.0,4,30,11.0,0.0
4687,57.0,19,30,12.0,0.0
4688,64.0,2,60,13.0,0.0
4689,52.0,3,60,14.0,0.0
4690,69.0,1,30,11.0,0.0
4691,57.0,36,30,12.0,0.0
4692,69.0,4,30,11.0,0.0
4693,57.0,36,30,12.0,0.0
4694,69.0,4,30,11.0,0.0
4695,57.0,36,30,12.0,0.0
4696,69.0,4,30,11.0,0.0
4697,57.0,34,30,12.0,0.0
4698,71.0,2,60,10.0,0.0
4699,83.0,0,60,0.0,0.0
4700,62.0,3,60,13.0,0.0
4701,50.0,24,60,14.0,0.0
4702,69.0,4,30,11.0,0.0
4703,57.0,9,30,12.0,0.0
4704,71.0,1,120,10.0,0.0
4705,83.0,13,120,0.0,0.0
4706,69.0,4,30,11.0,0.0
4707,57.0,36,30,12.0,0.0
4708,62.0,3,120,13.0,0.0
4709,50.0,19,120,14.0,0.0
4710,69.0,4,30,11.0,0.0
4711,57.0,36,30,12.0,0.0
4712,69.0,3,30,11.0,0.0
4713,57.0,1,30,12.0,0.0
4714,69.0,2,120,10.0,0.0
4715,81.0,0,120,0.0,0.0
4716,69.0,4,30,11.0,0.0
4717,57.0,36,30,12.0,0.0
4718,61.0,3,120,13.0,0.0
4719,49.0,24,120,14.0,0.0
4720,69.0,4,30,11.0,0.0
4721,57.0,34,30,12.0,0.0
4722,69.0,4,30,11.0,0.0
4723,57.0,9,30,12.0,0.0
4724,76.0,2,60,10.0,0.0
4725,88.0,2,60,0.0,0.0
4726,76.0,11,60,1.0,0.0
4727,69.0,4,30,11.0,0.0
4728,57.0,19,30,12.0,0.0
4729,61.0,2,60,13.0,0.0
4730,64.0,0,60,3.0,0.0
4731,49.0,3,60,14.0,0.0
4732,69.0,1,30,11.0,0.0
4733,57.0,36,30,12.0,0.0
4734,69.0,4,30,11.0,0.0
4735,57.0,36,30,12.0,0.0
4736,69.0,4,30,11.0,0.0
4737,57.0,36,30,12.0,0.0
4738,69.0,4,30,11.0,0.0
4739,57.0,34,30,12.0,0.0
4740,74.0,2,60,10.0,0.0
4741,86.0,2,60,0.0,0.0
4742,74.0,2,60,1.0,0.0
4743,59.0,2,60,13.0,0.0
4744,62.0,1,60,3.0,0.0
4745,47.0,24,60,14.0,0.0
4746,69.0,0,30,11.0,0.0
4747,57.0,9,30,12.0,0.0
4748,74.0,1,120,10.0,0.0
4749,86.0,2,120,0.0,0.0
4750,74.0,11,120,1.0,0.0
4751,69.0,4,30,11.0,0.0
4752,57.0,36,30,12.0,0.0
4753,59.0,2,120,13.0,0.0
4754,62.0,1,120,3.0,0.0
4755,47.0,19,120,14.0,0.0
4756,69.0,4,30,11.0,0.0
4757,57.0,36,30,12.0,0.0
4758,69.0,3,30,11.0,0.0
4759,57.0,1,30,12.0,0.0
4760,73.0,2,120,10.0,0.0
4761,85.0,2,120,0.0,0.0
4762,73.0,2,120,1.0,0.0
4763,69.0,4,30,11.0,0.0
4764,57.0,36,30,12.0,0.0
4765,57.0,2,120,13.0,0.0
4766,61.0,1,120,3.0,0.0
4767,45.0,24,120,14.0,0.0
4768,69.0,4,30,11.0,0.0
4769,57.0,34,30,12.0,0.0
4770,69.0,0,30,11.0,0.0
4771,57.0,9,30,12.0,0.0
4772,73.0,2,60,10.0,0.0
4773,85.0,13,60,0.0,0.0
4774,69.0,4,30,11.0,0.0
4775,57.0,19,30,12.0,0.0
4776,64.0,2,60,13.0,0.0
4777,52.0,3,60,14.0,0.0
4778,69.0,1,30,11.0,0.0
4779,57.0,36,30,12.0,0.0
4780,69.0,4,30,11.0,0.0
4781,57.0,36,30,12.0,0.0
4782,69.0,4,30,11.0,0.0
4783,57.0,36,30,12.0,0.0
4784,69.0,4,30,11.0,0.0
4785,57.0,34,30,12.0,0.0
4786,71.0,2,60,10.0,0.0
4787,83.0,4,60,0.0,0.0
4788,62.0,3,60,13.0,0.0
4789,50.0,24,60,14.0,0.0
4790,69.0,0,30,11.0,0.0
4791,57.0,9,30,12.0,0.0
4792,71.0,1,120,10.0,0.0
4793,83.0,13,120,0.0,0.0
4794,69.0,4,30,11.0,0.0
4795,57.0,36,30,12.0,0.0
4796,62.0,3,120,13.0,0.0
4797,50.0,19,120,14.0,0.0
4798,69.0,4,30,11.0,0.0
4799,57.0,36,30,12.0,0.0
4800,69.0,3,30,11.0,0.0
4801,57.0,1,30,12.0,0.0
4802,69.0,2,120,10.0,0.0
4803,81.0,4,120,0.0,0.0
4804,69.0,4,30,11.0,0.0
4805,57.0,36,30,12.0,0.0
4806,61.0,3,120,13.0,0.0
4807,49.0,24,120,14.0,0.0
4808,69.0,4,30,11.0,0.0
4809,57.0,34,30,12.0,0.0
4810,69.0,0,30,11.0,0.0
4811,57.0,9,30,12.0,0.0
4812,76.0,13,120,1.0,0.0
4813,69.0,4,30,11.0,0.0
4814,57.0,34,30,12.0,0.0
4815,61.0,2,60,13.0,0.0
4816,64.0,20,120,3.0,0.0
4817,49.0,3,60,14.0,0.0
4818,69.0,1,30,11.0,0.0
4819,57.0,36,30,12.0,0.0
4820,69.0,4,30,11.0,0.0
4821,57.0,3,30,12.0,0.0
4822,69.0,4,30,11.0,0.0
4823,57.0,36,30,12.0,0.0
4824,69.0,4,30,11.0,0.0
4825,57.0,36,30,12.0,0.0
4826,80.0,2,60,1.0,0.0
4827,59.0,2,60,13.0,0.0
4828,62.0,1,60,3.0,0.0
4829,47.0,24,60,14.0,0.0
4830,69.0,2,30,11.0,0.0
4831,57.0,9,30,12.0,0.0
4832,80.0,11,120,1.0,0.0
4833,69.0,4,30,11.0,0.0
4834,57.0,36,30,12.0,0.0
4835,59.0,2,120,13.0,0.0
4836,62.0,1,120,3.0,0.0
4837,47.0,19,120,14.0,0.0
4838,69.0,4,30,11.0,0.0
4839,57.0,36,30,12.0,0.0
4840,69.0,4,30,11.0,0.0
4841,57.0,3,30,12.0,0.0
4842,81.0,11,120,1.0,0.0
4843,69.0,4,30,11.0,0.0
4844,57.0,36,30,12.0,0.0
4845,57.0,2,120,13.0,0.0
4846,61.0,1,120,3.0,0.0
4847,45.0,19,120,14.0,0.0
4848,69.0,4,30,11.0,0.0
4849,57.0,36,30,12.0,0.0
4850,69.0,4,30,11.0,0.0
4851,57.0,3,30,12.0,0.0
4852,81.0,1,120,10.0,0.0
4853,93.0,35,120,0.0,0.0
4854,69.0,4,30,11.0,0.0
4855,57.0,36,30,12.0,0.0
4856,69.0,4,30,11.0,0.0
4857,57.0,36,30,12.0,0.0
4858,69.0,3,30,11.0,0.0
4859,57.0,1,30,12.0,0.0
4860,69.0,4,30,11.0,0.0
4861,57.0,36,30,12.0,0.0
4862,69.0,4,30,11.0,0.0
4863,57.0,34,30,12.0,0.0
4864,79.0,2,60,10.0,0.0
4865,91.0,0,60,0.0,0.0
4866,69.0,4,30,11.0,0.0
4867,57.0,36,30,12.0,0.0
4868,79.0,1,120,10.0,0.0
4869,91.0,35,120,0.0,0.0
4870,69.0,4,30,11.0,0.0
4871,57.0,36,30,12.0,0.0
4872,69.0,4,30,11.0,0.0
4873,57.0,36,30,12.0,0.0
4874,69.0,3,30,11.0,0.0
4875,57.0,1,30,12.0,0.0
4876,78.0,2,120,10.0,0.0
4877,90.0,0,120,0.0,0.0
4878,69.0,4,30,11.0,0.0
4879,57.0,36,30,12.0,0.0
4880,69.0,4,30,11.0,0.0
4881,57.0,34,30,12.0,0.0
4882,69.0,4,30,11.0,0.0
4883,57.0,36,30,12.0,0.0
4884,78.0,2,60,10.0,0.0
4885,90.0,15,60,0.0,0.0
4886,69.0,4,30,11.0,0.0
4887,57.0,19,30,12.0,0.0
4888,69.0,3,120,13.0,0.0
4889,57.0,19,120,14.0,0.0
4890,69.0,4,30,11.0,0.0
4891,57.0,36,30,12.0,0.0
4892,69.0,4,30,11.0,0.0
4893,57.0,14,30,12.0,0.0
4894,69.0,4,30,11.0,0.0
4895,57.0,36,30,12.0,0.0
4896,69.0,4,30,11.0,0.0
4897,57.0,34,30,12.0,0.0
4898,76.0,2,60,10.0,0.0
4899,88.0,0,60,0.0,0.0
4900,67.0,3,60,13.0,0.0
4901,55.0,24,60,14.0,0.0
4902,69.0,4,30,11.0,0.0
4903,57.0,9,30,12.0,0.0
4904,76.0,1,120,10.0,0.0
4905,88.0,13,120,0.0,0.0
4906,69.0,4,30,11.0,0.0
4907,57.0,36,30,12.0,0.0
4908,67.0,3,120,13.0,0.0
4909,55.0,19,120,14.0,0.0
4910,69.0,4,30,11.0,0.0
4911,57.0,36,30,12.0,0.0
4912,69.0,3,30,11.0,0.0
4913,57.0,1,30,12.0,0.0
4914,74.0,2,120,10.0,0.0
4915,86.0,4,120,0.0,0.0
4916,69.0,4,30,11.0,0.0
4917,57.0,36,30,12.0,0.0
4918,66.0,3,120,13.0,0.0
4919,54.0,24,120,14.0,0.0
4920,69.0,4,30,11.0,0.0
4921,57.0,34,30,12.0,0.0
4922,69.0,0,30,11.0,0.0
4923,57.0,9,30,12.0,0.0
4924,81.0,2,60,10.0,0.0
4925,93.0,4,60,0.0,0.0
4926,69.0,4,30,11.0,0.0
4927,69.0,9,60,2.0,0.0
4928,57.0,19,30,12.0,0.0
4929,66.0,2,60,13.0,0.0
4930,57.0,0,60,3.0,0.0
4931,54.0,3,60,14.0,0.0
4932,69.0,1,30,11.0,0.0
4933,57.0,36,30,12.0,0.0
4934,69.0,4,30,11.0,0.0
4935,57.0,36,30,12.0,0.0
4936,69.0,4,30,11.0,0.0
4937,57.0,36,30,12.0,0.0
4938,69.0,4,30,11.0,0.0
4939,57.0,34,30,12.0,0.0
4940,79.0,2,60,10.0,0.0
4941,91.0,4,60,0.0,0.0
4942,73.0,0,60,2.0,0.0
4943,64.0,2,60,13.0,0.0
4944,61.0,1,60,3.0,0.0
4945,52.0,24,60,14.0,0.0
4946,69.0,0,30,11.0,0.0
4947,57.0,9,30,12.0,0.0
4948,79.0,1,120,10.0,0.0
4949,91.0,4,120,0.0,0.0
4950,69.0,4,30,11.0,0.0
4951,73.0,9,120,2.0,0.0
4952,57.0,36,30,12.0,0.0
4953,64.0,2,120,13.0,0.0
4954,61.0,1,120,3.0,0.0
4955,52.0,19,120,14.0,0.0
4956,69.0,4,30,11.0,0.0
4957,57.0,36,30,12.0,0.0
4958,69.0,3,30,11.0,0.0
4959,57.0,1,30,12.0,0.0
4960,78.0,2,120,10.0,0.0
4961,90.0,4,120,0.0,0.0
4962,69.0,4,30,11.0,0.0
4963,74.0,0,120,2.0,0.0
4964,57.0,36,30,12.0,0.0
4965,62.0,2,120,13.0,0.0
4966,62.0,1,120,3.0,0.0
4967,50.0,24,120,14.0,0.0
4968,69.0,4,30,11.0,0.0
4969,57.0,34,30,12.0,0.0
4970,69.0,0,30,11.0,0.0
4971,57.0,9,30,12.0,0.0
4972,78.0,2,60,10.0,0.0
4973,90.0,4,60,0.0,0.0
4974,69.0,4,30,11.0,0.0
4975,69.0,9,60,2.0,0.0
4976,57.0,19,30,12.0,0.0
4977,69.0,2,60,13.0,0.0
4978,57.0,1,60,3.0,0.0
4979,57.0,3,60,14.0,0.0
4980,69.0,0,30,11.0,0.0
4981,57.0,36,30,12.0,0.0
4982,69.0,4,30,11.0,0.0
4983,57.0,36,30,12.0,0.0
4984,69.0,4,30,11.0,0.0
4985,57.0,36,30,12.0,0.0
4986,69.0,4,30,11.0,0.0
4987,57.0,34,30,12.0,0.0
4988,76.0,2,60,10.0,0.0
4989,88.0,4,60,0.0,0.0
4990,73.0,0,60,2.0,0.0
4991,67.0,2,60,13.0,0.0
4992,61.0,1,60,3.0,0.0
4993,55.0,24,60,14.0,0.0
4994,69.0,0,30,11.0,0.0
4995,57.0,9,30,12.0,0.0
4996,74.0,10,960,10.0,0.0
4997,88.0,4,120,0.0,0.0
4998,69.0,4,30,11.0,0.0
4999,74.0,9,120,2.0,0.0
5000,57.0,36,30,12.0,0.0
5001,67.0,2,120,13.0,0.0
5002,62.0,1,120,3.0,0.0
5003,55.0,19,120,14.0,0.0
5004,69.0,4,30,11.0,0.0
5005,57.0,36,30,12.0,0.0
5006,69.0,4,30,11.0,0.0
5007,57.0,1,30,12.0,0.0
5008,69.0,4,30,11.0,0.0
5009,57.0,36,30,12.0,0.0
5010,66.0,3,120,13.0,0.0
5011,54.0,62,120,14.0,0.0
5012,69.0,4,30,11.0,0.0
5013,57.0,36,30,12.0,0.0
5014,69.0,4,30,11.0,0.0
5015,57.0,1,30,12.0,0.0
5016,86.0,8,15,0.0,0.0
5017,74.0,0,720,0.0,0.0
5018,74.0,6,720,1.0,0.0
5019,62.0,4,120,11.0,0.0
5020,57.0,111,120,12.0,0.0
5021,66.0,3,60,13.0,0.0
5022,54.0,47,60,14.0,0.0
5023,64.0,10,60,11.0,0.0
5024,64.0,3,60,13.0,0.0
5025,52.0,112,60,14.0,0.0
5026,64.0,10,120,11.0,0.0
5027,64.0,3,120,13.0,0.0
5028,52.0,102,120,14.0,0.0
5029,65.0,10,120,11.0,0.0
5030,62.0,3,120,13.0,0.0
5031,50.0,52,120,14.0,0.0
5032,65.0,10,60,11.0,0.0
5033,62.0,3,60,13.0,0.0
5034,50.0,152,60,14.0,0.0
5035,66.0,2,60,11.0,0.0
5036,60.0,3,60,13.0,0.0
5037,48.0,112,60,14.0,0.0
5038,79.0,15,1080,10.0,0.0
5039,66.0,10,120,11.0,0.0
5040,60.0,3,120,13.0,0.0
5041,48.0,102,120,14.0,0.0
5042,67.0,10,120,11.0,0.0
5043,58.0,3,120,13.0,0.0
5044,46.0,52,120,14.0,0.0
5045,79.0,2,720,0.0,0.0
5046,91.0,0,720,0.0,0.0
5047,79.0,6,720,1.0,0.0
5048,67.0,10,60,11.0,0.0
5049,58.0,3,60,13.0,0.0
5050,46.0,162,60,14.0,0.0
5051,69.0,10,60,11.0,0.0
5052,57.0,3,60,13.0,0.0
5053,45.0,112,60,14.0,0.0
5054,69.0,10,120,11.0,0.0
5055,57.0,3,120,13.0,0.0
5056,45.0,102,120,14.0,0.0
5057,70.0,10,120,11.0,0.0
5058,55.0,3,120,13.0,0.0
5059,43.0,52,120,14.0,0.0
5060,70.0,10,60,11.0,0.0
5061,67.0,3,60,13.0,0.0
5062,55.0,162,60,14.0,0.0
5063,71.0,2,60,11.0,0.0
5064,65.0,3,60,13.0,0.0
5065,53.0,107,60,14.0,0.0
5066,60.0,9,960,11.0,0.0
5067,65.0,3,120,13.0,0.0
5068,53.0,97,120,14.0,0.0
5069,72.0,15,120,10.0,0.0
5070,64.0,3,120,13.0,0.0
5071,52.0,47,120,14.0,0.0
5072,72.0,15,60,10.0,0.0
5073,72.0,1,720,6.0,0.0
5074,60.0,5,720,4.0,0.0
5075,60.0,0,720,5.0,0.0
5076,64.0,3,60,13.0,0.0
5077,52.0,157,60,14.0,0.0
5078,74.0,15,60,10.0,0.0
5079,62.0,3,60,13.0,0.0
5080,50.0,107,60,14.0,0.0
5081,74.0,15,120,10.0,0.0
5082,62.0,3,120,13.0,0.0
5083,50.0,97,120,14.0,0.0
5084,75.0,15,120,10.0,0.0
5085,60.0,3,120,13.0,0.0
5086,48.0,47,120,14.0,0.0
5087,75.0,15,60,10.0,0.0
5088,60.0,3,60,13.0,0.0
5089,48.0,157,60,14.0,0.0
5090,76.0,0,60,10.0,0.0
5091,58.0,3,60,13.0,0.0
5092,46.0,107,60,14.0,0.0
5093,76.0,15,120,10.0,0.0
5094,65.0,5,1080,11.0,0.0
5095,58.0,3,120,13.0,0.0
5096,46.0,97,120,14.0,0.0
5097,77.0,15,120,10.0,0.0
5098,57.0,3,120,13.0,0.0
5099,45.0,47,120,14.0,0.0
5100,77.0,15,60,10.0,0.0
5101,77.0,1,720,6.0,0.0
5102,65.0,5,720,4.0,0.0
5103,65.0,0,720,5.0,0.0
5104,57.0,3,60,13.0,0.0
5105,45.0,61,60,14.0,0.0
5106,53.0,96,120,15.0,0.0
5107,79.0,15,60,10.0,0.0
5108,55.0,3,60,13.0,0.0
5109,43.0,107,60,14.0,0.0
5110,79.0,15,120,10.0,0.0
5111,55.0,3,120,13.0,0.0
5112,43.0,97,120,14.0,0.0
5113,80.0,15,120,10.0,0.0
5114,53.0,3,120,13.0,0.0
5115,41.0,47,120,14.0,0.0
5116,80.0,9,60,10.0,0.0
5117,65.0,6,60,12.0,0.0
5118,53.0,3,60,13.0,0.0
5119,41.0,157,60,14.0,0.0
5120,52.0,3,120,13.0,0.0
5121,40.0,102,120,14.0,0.0
5122,81.0,9,60,10.0,0.0
5123,63.0,0,60,12.0,0.0
5124,81.0,9,120,10.0,0.0
5125,63.0,111,120,12.0,0.0
5126,46.0,2,960,13.0,0.0
5127,34.0,107,960,14.0,0.0
5128,82.0,4,120,10.0,0.0
5129,70.0,0,120,11.0,0.0
5130,62.0,61,120,12.0,0.0
5131,70.0,4,60,11.0,0.0
5132,58.0,9,720,2.0,0.0
5133,62.0,171,60,12.0,0.0
5134,58.0,0,720,3.0,0.0
5135,46.0,1,720,3.0,0.0
5136,72.0,4,60,11.0,0.0
5137,60.0,121,60,12.0,0.0
5138,62.0,10,480,10.0,0.0
5139,72.0,4,120,11.0,0.0
5140,60.0,111,120,12.0,0.0
5141,74.0,4,120,11.0,0.0
5142,58.0,61,120,12.0,0.0
5143,74.0,4,60,11.0,0.0
5144,58.0,161,60,12.0,0.0
5145,74.0,4,60,11.0,0.0
5146,57.0,2,60,12.0,0.0
5147,55.0,0,720,10.0,0.0
5148,67.0,10,720,10.0,0.0
5149,74.0,4,120,11.0,0.0
5150,57.0,111,120,12.0,0.0
5151,52.0,2,960,13.0,0.0
5152,40.0,97,1080,14.0,0.0
5153,76.0,4,120,11.0,0.0
5154,55.0,61,120,12.0,0.0
5155,76.0,4,60,11.0,0.0
5156,64.0,9,720,2.0,0.0
5157,55.0,171,60,12.0,0.0
5158,64.0,103,720,3.0,0.0
5159,52.0,1,840,3.0,0.0
5160,77.0,4,60,11.0,0.0
5161,53.0,121,60,12.0,0.0
5162,77.0,4,120,11.0,0.0
5163,53.0,101,120,12.0,0.0
5164,79.0,4,120,11.0,0.0
5165,52.0,56,120,12.0,0.0
5166,76.0,5,60,10.0,0.0
5167,79.0,4,60,11.0,0.0
5168,52.0,166,60,12.0,0.0
5169,74.0,5,60,10.0,0.0
5170,80.0,4,60,11.0,0.0
5171,59.0,2,60,12.0,0.0
5172,74.0,5,120,10.0,0.0
5173,81.0,12,120,11.0,0.0
5174,57.0,1,960,12.0,0.0
5175,57.0,105,960,13.0,0.0
5176,73.0,17,120,10.0,0.0
5177,45.0,1,120,3.0,0.0
5178,33.0,47,120,14.0,0.0
5179,73.0,17,60,10.0,0.0
5180,69.0,1,720,6.0,0.0
5181,57.0,4,720,4.0,0.0
5182,57.0,2,720,5.0,0.0
5183,45.0,1,60,3.0,0.0
5184,33.0,157,60,14.0,0.0
5185,71.0,17,60,10.0,0.0
5186,47.0,1,60,3.0,0.0
5187,35.0,107,60,14.0,0.0
5188,71.0,17,120,10.0,0.0
5189,47.0,1,120,3.0,0.0
5190,35.0,97,120,14.0,0.0
5191,69.0,17,120,10.0,0.0
5192,48.0,1,120,3.0,0.0
5193,36.0,47,120,14.0,0.0
5194,69.0,17,60,10.0,0.0
5195,48.0,1,60,3.0,0.0
5196,36.0,157,60,14.0,0.0
5197,67.0,9,60,10.0,0.0
5198,49.0,1,60,3.0,0.0
5199,37.0,2,60,14.0,0.0
5200,67.0,17,120,10.0,0.0
5201,62.0,6,1080,12.0,0.0
5202,62.0,2,960,13.0,0.0
5203,49.0,1,120,3.0,0.0
5204,37.0,97,120,14.0,0.0
5205,65.0,17,120,10.0,0.0
5206,50.0,1,120,3.0,0.0
5207,38.0,47,120,14.0,0.0
5208,65.0,18,60,10.0,0.0
5209,74.0,7,720,2.0,0.0
5210,62.0,108,720,3.0,0.0
5211,38.0,157,60,14.0,0.0
5212,64.0,18,60,10.0,0.0
5213,40.0,107,60,14.0,0.0
5214,64.0,18,120,10.0,0.0
5215,40.0,97,120,14.0,0.0
5216,62.0,18,120,10.0,0.0
5217,41.0,47,120,14.0,0.0
5218,62.0,5,60,10.0,0.0
5219,74.0,13,60,11.0,0.0
5220,41.0,157,60,14.0,0.0
5221,86.0,5,120,10.0,0.0
5222,72.0,6,60,11.0,0.0
5223,42.0,2,60,14.0,0.0
5224,79.0,2,480,10.0,0.0
5225,70.0,4,120,11.0,0.0
5226,55.0,3,120,13.0,0.0
5227,43.0,102,120,14.0,0.0
5228,71.0,4,120,11.0,0.0
5229,67.0,6,120,12.0,0.0
5230,53.0,3,120,13.0,0.0
5231,41.0,52,120,14.0,0.0
5232,91.0,0,240,0.0,0.0
5233,79.0,2,240,0.0,0.0
5234,79.0,0,240,1.0,0.0
5235,71.0,4,60,11.0,0.0
5236,67.0,6,60,12.0,0.0
5237,53.0,3,60,13.0,0.0
5238,41.0,162,60,14.0,0.0
5239,72.0,0,60,11.0,0.0
5240,55.0,6,60,12.0,0.0
5241,52.0,3,60,13.0,0.0
5242,40.0,112,60,14.0,0.0
5243,84.0,9,600,10.0,0.0
5244,72.0,4,120,11.0,0.0
5245,55.0,6,120,12.0,0.0
5246,52.0,3,120,13.0,0.0
5247,40.0,102,120,14.0,0.0
5248,74.0,4,120,11.0,0.0
5249,53.0,6,120,12.0,0.0
5250,50.0,3,120,13.0,0.0
5251,38.0,52,120,14.0,0.0
5252,84.0,2,240,0.0,0.0
5253,72.0,0,240,1.0,0.0
5254,84.0,0,240,1.0,0.0
5255,74.0,4,60,11.0,0.0
5256,53.0,6,60,12.0,0.0
5257,50.0,3,60,13.0,0.0
5258,38.0,162,60,14.0,0.0
5259,76.0,2,60,11.0,0.0
5260,52.0,6,60,12.0,0.0
5261,48.0,3,60,13.0,0.0
5262,36.0,107,60,14.0,0.0
5263,65.0,0,480,11.0,0.0
5264,57.0,6,120,12.0,0.0
5265,53.0,3,120,13.0,0.0
5266,41.0,97,120,14.0,0.0
5267,77.0,9,120,10.0,0.0
5268,59.0,6,120,12.0,0.0
5269,55.0,3,120,13.0,0.0
5270,43.0,47,120,14.0,0.0
5271,77.0,9,60,10.0,0.0
5272,77.0,1,240,6.0,0.0
5273,65.0,5,240,4.0,0.0
5274,59.0,6,60,12.0,0.0
5275,65.0,3,240,5.0,0.0
5276,55.0,3,60,13.0,0.0
5277,43.0,61,60,14.0,0.0
5278,53.0,96,120,15.0,0.0
5279,76.0,9,60,10.0,0.0
5280,60.0,0,60,12.0,0.0
5281,57.0,0,60,13.0,0.0
5282,45.0,107,60,14.0,0.0
5283,76.0,15,120,10.0,0.0
5284,71.0,4,600,11.0,0.0
5285,57.0,3,120,13.0,0.0
5286,45.0,97,120,14.0,0.0
5287,74.0,15,120,10.0,0.0
5288,59.0,3,120,13.0,0.0
5289,47.0,47,120,14.0,0.0
5290,72.0,15,60,10.0,0.0
5291,83.0,2,240,1.0,0.0
5292,71.0,4,240,2.0,0.0
5293,60.0,3,60,13.0,0.0
5294,48.0,157,60,14.0,0.0
5295,71.0,9,60,10.0,0.0
5296,62.0,3,60,13.0,0.0
5297,50.0,107,60,14.0,0.0
5298,80.0,5,120,10.0,0.0
5299,64.0,106,120,12.0,0.0
5300,52.0,2,480,13.0,0.0
5301,40.0,102,480,14.0,0.0
5302,81.0,5,120,10.0,0.0
5303,78.0,4,120,11.0,0.0
5304,63.0,56,120,12.0,0.0
5305,81.0,5,60,10.0,0.0
5306,78.0,4,60,11.0,0.0
5307,64.0,9,240,2.0,0.0
5308,63.0,166,60,12.0,0.0
5309,64.0,1,240,3.0,0.0
5310,52.0,0,240,3.0,0.0
5311,83.0,5,60,10.0,0.0
5312,80.0,4,60,11.0,0.0
5313,62.0,2,60,12.0,0.0
5314,84.0,5,120,10.0,0.0
5315,81.0,4,120,11.0,0.0
5316,62.0,106,120,12.0,0.0
5317,57.0,3,480,13.0,0.0
5318,45.0,102,480,14.0,0.0
5319,86.0,5,120,10.0,0.0
5320,83.0,4,120,11.0,0.0
5321,60.0,56,120,12.0,0.0
5322,86.0,5,60,10.0,0.0
5323,69.0,0,240,6.0,0.0
5324,83.0,4,60,11.0,0.0
5325,69.0,5,240,4.0,0.0
5326,59.0,166,60,12.0,0.0
5327,57.0,5,240,5.0,0.0
5328,88.0,5,60,10.0,0.0
5329,84.0,4,60,11.0,0.0
5330,57.0,1,60,12.0,0.0
5331,67.0,5,120,10.0,0.0
5332,71.0,10,120,11.0,0.0
5333,62.0,1,480,12.0,0.0
5334,69.0,3,120,13.0,0.0
5335,57.0,97,120,14.0,0.0
5336,69.0,5,120,10.0,0.0
5337,72.0,10,120,11.0,0.0
5338,67.0,3,120,13.0,0.0
5339,55.0,47,120,14.0,0.0
5340,69.0,5,60,10.0,0.0
5341,72.0,10,60,11.0,0.0
5342,74.0,3,240,2.0,0.0
5343,67.0,3,60,13.0,0.0
5344,62.0,103,240,3.0,0.0
5345,55.0,157,60,14.0,0.0
5346,71.0,5,60,10.0,0.0
5347,74.0,6,60,11.0,0.0
5348,65.0,3,60,13.0,0.0
5349,53.0,4,60,14.0,0.0
5350,72.0,5,120,10.0,0.0
5351,76.0,10,120,11.0,0.0
5352,67.0,53,600,12.0,0.0
5353,64.0,3,120,13.0,0.0
5354,52.0,97,120,14.0,0.0
5355,72.0,5,120,10.0,0.0
5356,77.0,10,120,11.0,0.0
5357,62.0,3,120,13.0,0.0
5358,50.0,47,120,14.0,0.0
5359,74.0,5,60,10.0,0.0
5360,77.0,10,60,11.0,0.0
5361,79.0,4,240,2.0,0.0
5362,62.0,3,60,13.0,0.0
5363,67.0,108,240,3.0,0.0
5364,50.0,157,60,14.0,0.0
5365,76.0,5,60,10.0,0.0
5366,79.0,6,60,11.0,0.0
5367,60.0,3,60,13.0,0.0
5368,48.0,4,60,14.0,0.0
5369,76.0,62,240,10.0,0.0
5370,72.0,4,120,11.0,0.0
5371,76.0,2,60,0.0,0.0
5372,88.0,0,60,0.0,0.0
5373,76.0,5,60,1.0,0.0
5374,70.0,15,90,11.0,0.0
5375,67.0,36,60,12.0,0.0
5376,81.0,120,240,10.0,0.0
5377,93.0,2,60,0.0,0.0
5378,81.0,0,60,0.0,0.0
5379,81.0,61,60,1.0,0.0
5380,64.0,4,120,11.0,0.0
5381,61.0,6,120,12.0,0.0
5382,67.0,3,120,13.0,0.0
5383,55.0,44,120,14.0,0.0
5384,93.0,0,60,0.0,0.0
5385,81.0,2,60,0.0,0.0
5386,81.0,41,60,1.0,0.0
5387,65.0,4,90,11.0,0.0
5388,62.0,6,90,12.0,0.0
5389,65.0,3,90,13.0,0.0
5390,53.0,2,90,14.0,0.0
5391,79.0,9,120,10.0,0.0
5392,62.0,61,240,11.0,0.0
5393,60.0,6,120,12.0,0.0
5394,57.0,3,120,13.0,0.0
5395,45.0,48,120,14.0,0.0
5396,77.0,9,90,10.0,0.0
5397,74.0,11,60,2.0,0.0
5398,62.0,6,90,12.0,0.0
5399,59.0,3,90,13.0,0.0
5400,62.0,23,60,3.0,0.0
5401,47.0,7,90,14.0,0.0
5402,74.0,9,120,10.0,0.0
5403,67.0,115,240,11.0,0.0
5404,79.0,11,60,2.0,0.0
5405,71.0,6,120,12.0,0.0
5406,65.0,3,120,13.0,0.0
5407,67.0,43,60,3.0,0.0
5408,53.0,48,120,14.0,0.0
5409,76.0,9,90,10.0,0.0
5410,79.0,11,60,2.0,0.0
5411,72.0,6,90,12.0,0.0
5412,64.0,3,90,13.0,0.0
5413,67.0,23,60,3.0,0.0
5414,52.0,7,90,14.0,0.0
5415,82.0,5,120,10.0,0.0
5416,76.0,4,120,11.0,0.0
5417,67.0,85,120,12.0,0.0
5418,48.0,3,240,13.0,0.0
5419,36.0,1,240,14.0,0.0
5420,81.0,5,90,10.0,0.0
5421,60.0,1,90,6.0,0.0
5422,72.0,0,90,6.0,0.0
5423,60.0,5,90,4.0,0.0
5424,77.0,4,90,11.0,0.0
5425,65.0,26,90,12.0,0.0
5426,48.0,0,90,5.0,0.0
5427,41.0,75,120,15.0,0.0
5428,76.0,5,120,10.0,0.0
5429,77.0,1,90,6.0,0.0
5430,65.0,0,90,6.0,0.0
5431,65.0,5,90,4.0,0.0
5432,67.0,4,120,11.0,0.0
5433,70.0,10,120,12.0,0.0
5434,53.0,20,90,5.0,0.0
5435,53.0,3,360,13.0,0.0
5436,41.0,46,360,14.0,0.0
5437,77.0,5,90,10.0,0.0
5438,65.0,0,90,6.0,0.0
5439,77.0,1,90,6.0,0.0
5440,65.0,4,90,11.0,0.0
5441,65.0,5,90,4.0,0.0
5442,69.0,30,90,12.0,0.0
5443,53.0,0,90,5.0,0.0
5444,53.0,75,15,15.0,0.0
5445,71.0,5,120,10.0,0.0
5446,68.0,10,120,11.0,0.0
5447,57.0,55,240,12.0,0.0
5448,72.0,5,90,10.0,0.0
5449,69.0,13,60,1.0,0.0
5450,69.0,10,90,11.0,0.0
5451,52.0,3,90,13.0,0.0
5452,57.0,23,60,3.0,0.0
5453,40.0,11,90,14.0,0.0
5454,68.0,5,120,10.0,0.0
5455,74.0,13,60,1.0,0.0
5456,59.0,10,120,11.0,0.0
5457,62.0,111,240,12.0,0.0
5458,52.0,3,120,13.0,0.0
5459,62.0,43,60,3.0,0.0
5460,40.0,46,120,14.0,0.0
5461,69.0,5,90,10.0,0.0
5462,74.0,13,60,1.0,0.0
5463,60.0,10,90,11.0,0.0
5464,50.0,3,90,13.0,0.0
5465,62.0,23,60,3.0,0.0
5466,38.0,11,90,14.0,0.0
5467,75.0,5,120,10.0,0.0
5468,63.0,4,120,11.0,0.0
5469,51.0,6,120,12.0,0.0
5470,39.0,3,120,13.0,0.0
5471,39.0,44,120,14.0,0.0
5472,76.0,5,90,10.0,0.0
5473,76.0,2,60,0.0,0.0
5474,64.0,13,60,1.0,0.0
5475,64.0,4,90,11.0,0.0
5476,52.0,6,90,12.0,0.0
5477,40.0,3,90,13.0,0.0
5478,52.0,23,60,3.0,0.0
5479,40.0,64,90,14.0,0.0
5480,75.0,5,120,10.0,0.0
5481,87.0,2,60,0.0,0.0
5482,75.0,13,60,1.0,0.0
5483,63.0,4,120,11.0,0.0
5484,51.0,6,120,12.0,0.0
5485,39.0,3,120,13.0,0.0
5486,63.0,43,60,3.0,0.0
5487,39.0,44,120,14.0,0.0
5488,76.0,5,90,10.0,0.0
5489,88.0,2,60,0.0,0.0
5490,76.0,13,60,1.0,0.0
5491,64.0,4,90,11.0,0.0
5492,52.0,6,90,12.0,0.0
5493,40.0,3,90,13.0,0.0
5494,64.0,23,60,3.0,0.0
5495,40.0,122,90,14.0,0.0
5496,75.0,5,120,10.0,0.0
5497,63.0,4,120,11.0,0.0
5498,51.0,6,120,12.0,0.0
5499,39.0,3,120,13.0,0.0
5500,39.0,44,120,14.0,0.0
5501,76.0,5,90,10.0,0.0
5502,76.0,2,60,0.0,0.0
5503,64.0,13,60,1.0,0.0
5504,64.0,4,90,11.0,0.0
5505,52.0,6,90,12.0,0.0
5506,40.0,3,90,13.0,0.0
5507,52.0,23,60,3.0,0.0
5508,40.0,64,90,14.0,0.0
5509,75.0,5,120,10.0,0.0
5510,87.0,2,60,0.0,0.0
5511,75.0,13,60,1.0,0.0
5512,63.0,4,120,11.0,0.0
5513,51.0,6,120,12.0,0.0
5514,39.0,3,120,13.0,0.0
5515,63.0,43,60,3.0,0.0
5516,39.0,44,120,14.0,0.0
5517,76.0,5,90,10.0,0.0
5518,88.0,2,60,0.0,0.0
5519,76.0,13,60,1.0,0.0
5520,64.0,4,90,11.0,0.0
5521,52.0,6,90,12.0,0.0
5522,40.0,3,90,13.0,0.0
5523,64.0,23,60,3.0,0.0
5524,40.0,122,90,14.0,0.0
5525,75.0,5,120,10.0,0.0
5526,63.0,4,120,11.0,0.0
5527,51.0,6,120,12.0,0.0
5528,39.0,3,120,13.0,0.0
5529,39.0,44,120,14.0,0.0
5530,76.0,5,90,10.0,0.0
5531,76.0,2,60,0.0,0.0
5532,64.0,13,60,1.0,0.0
5533,64.0,4,90,11.0,0.0
5534,52.0,6,90,12.0,0.0
5535,40.0,3,90,13.0,0.0
5536,52.0,23,60,3.0,0.0
5537,40.0,64,90,14.0,0.0
5538,75.0,5,120,10.0,0.0
5539,87.0,2,60,0.0,0.0
5540,75.0,13,60,1.0,0.0
5541,63.0,4,120,11.0,0.0
5542,51.0,6,120,12.0,0.0
5543,39.0,3,120,13.0,0.0
5544,63.0,43,60,3.0,0.0
5545,39.0,44,120,14.0,0.0
5546,76.0,5,90,10.0,0.0
5547,88.0,2,60,0.0,0.0
5548,76.0,13,60,1.0,0.0
5549,64.0,4,90,11.0,0.0
5550,52.0,6,90,12.0,0.0
5551,40.0,3,90,13.0,0.0
5552,64.0,23,60,3.0,0.0
5553,40.0,122,90,14.0,0.0
5554,75.0,5,120,10.0,0.0
5555,63.0,4,120,11.0,0.0
5556,51.0,6,120,12.0,0.0
5557,39.0,3,120,13.0,0.0
5558,39.0,82,120,14.0,0.0
5559,76.0,5,90,10.0,0.0
5560,76.0,2,120,0.0,0.0
5561,64.0,13,120,1.0,0.0
5562,64.0,4,90,11.0,0.0
5563,52.0,6,90,12.0,0.0
5564,40.0,3,90,13.0,0.0
5565,40.0,4,90,14.0,0.0
5566,85.0,5,30,10.0,0.0
5567,88.0,2,1920,0.0,0.0
5568,76.0,2,1920,1.0,0.0
5569,81.0,6,30,11.0,0.0
5570,64.0,11,1920,2.0,0.0
5571,76.0,0,1920,2.0,0.0
5572,57.0,0,30,12.0,0.0
5573,61.0,29,30,12.0,0.0
5574,52.0,0,60,13.0,0.0
5575,64.0,0,1920,3.0,0.0
5576,52.0,13,15,3.0,0.0
5577,40.0,3,60,14.0,0.0
5578,85.0,5,30,10.0,0.0
5579,81.0,3,30,11.0,0.0
5580,61.0,29,30,12.0,0.0
5581,57.0,0,30,12.0,0.0
5582,85.0,5,30,10.0,0.0
5583,81.0,6,30,11.0,0.0
5584,57.0,29,30,12.0,0.0
5585,61.0,0,30,12.0,0.0
5586,85.0,5,30,10.0,0.0
5587,81.0,6,30,11.0,0.0
5588,61.0,29,30,12.0,0.0
5589,57.0,0,30,12.0,0.0
5590,64.0,3,60,13.0,0.0
5591,52.0,3,60,14.0,0.0
5592,85.0,5,30,10.0,0.0
5593,81.0,0,30,11.0,0.0
5594,57.0,0,30,12.0,0.0
5595,61.0,29,30,12.0,0.0
5596,85.0,5,30,10.0,0.0
5597,81.0,6,30,11.0,0.0
5598,57.0,0,30,12.0,0.0
5599,61.0,59,30,12.0,0.0
5600,85.0,5,60,10.0,0.0
5601,81.0,4,60,11.0,0.0
5602,61.0,6,60,12.0,0.0
5603,57.0,0,60,12.0,0.0
5604,52.0,3,60,13.0,0.0
5605,40.0,42,60,14.0,0.0
5606,86.0,5,60,10.0,0.0
5607,83.0,4,60,11.0,0.0
5608,59.0,0,60,12.0,0.0
5609,62.0,51,60,12.0,0.0
5610,83.0,5,60,10.0,0.0
5611,76.0,4,60,11.0,0.0
5612,52.0,6,60,12.0,0.0
5613,59.0,0,60,12.0,0.0
5614,64.0,3,60,13.0,0.0
5615,52.0,102,60,14.0,0.0
5616,85.0,5,60,10.0,0.0
5617,81.0,4,60,11.0,0.0
5618,61.0,6,60,12.0,0.0
5619,57.0,0,60,12.0,0.0
5620,52.0,3,60,13.0,0.0
5621,40.0,42,60,14.0,0.0
5622,86.0,5,60,10.0,0.0
5623,83.0,4,60,11.0,0.0
5624,62.0,51,60,12.0,0.0
5625,59.0,0,60,12.0,0.0
5626,83.0,5,60,10.0,0.0
5627,76.0,4,60,11.0,0.0
5628,59.0,0,60,12.0,0.0
5629,52.0,6,60,12.0,0.0
5630,64.0,3,60,13.0,0.0
5631,52.0,102,60,14.0,0.0
5632,85.0,5,60,10.0,0.0
5633,81.0,4,60,11.0,0.0
5634,61.0,0,60,12.0,0.0
5635,57.0,6,60,12.0,0.0
5636,52.0,3,60,13.0,0.0
5637,40.0,42,60,14.0,0.0
5638,86.0,5,60,10.0,0.0
5639,83.0,4,60,11.0,0.0
5640,59.0,51,60,12.0,0.0
5641,62.0,0,60,12.0,0.0
5642,83.0,5,60,10.0,0.0
5643,76.0,4,60,11.0,0.0
5644,52.0,6,60,12.0,0.0
5645,59.0,0,60,12.0,0.0
5646,64.0,3,60,13.0,0.0
5647,52.0,72,60,14.0,0.0
5648,86.0,5,30,10.0,0.0
5649,83.0,6,30,11.0,0.0
5650,62.0,0,30,12.0,0.0
5651,59.0,29,30,12.0,0.0
5652,52.0,0,60,13.0,0.0
5653,40.0,3,60,14.0,0.0
5654,86.0,5,30,10.0,0.0
5655,83.0,3,30,11.0,0.0
5656,59.0,0,30,12.0,0.0
5657,62.0,29,30,12.0,0.0
5658,86.0,5,30,10.0,0.0
5659,83.0,6,30,11.0,0.0
5660,62.0,0,30,12.0,0.0
5661,59.0,29,30,12.0,0.0
5662,86.0,5,30,10.0,0.0
5663,83.0,6,30,11.0,0.0
5664,59.0,0,30,12.0,0.0
5665,62.0,29,30,12.0,0.0
5666,64.0,3,60,13.0,0.0
5667,52.0,3,60,14.0,0.0
5668,86.0,5,30,10.0,0.0
5669,83.0,0,30,11.0,0.0
5670,59.0,29,30,12.0,0.0
5671,62.0,0,30,12.0,0.0
5672,86.0,5,30,10.0,0.0
5673,83.0,6,30,11.0,0.0
5674,59.0,59,30,12.0,0.0
5675,62.0,0,30,12.0,0.0
5676,86.0,5,60,10.0,0.0
5677,83.0,4,60,11.0,0.0
5678,59.0,0,60,12.0,0.0
5679,62.0,6,60,12.0,0.0
5680,52.0,3,60,13.0,0.0
5681,40.0,42,60,14.0,0.0
5682,88.0,5,60,10.0,0.0
5683,85.0,4,60,11.0,0.0
5684,64.0,0,60,12.0,0.0
5685,85.0,5,60,10.0,0.0
5686,81.0,4,60,11.0,0.0
5687,61.0,51,15,12.0,0.0
5688,57.0,0,60,12.0,0.0
5689,64.0,3,60,13.0,0.0
5690,52.0,102,60,14.0,0.0
5691,86.0,5,60,10.0,0.0
5692,83.0,4,60,11.0,0.0
5693,62.0,0,60,12.0,0.0
5694,59.0,6,60,12.0,0.0
5695,52.0,3,60,13.0,0.0
5696,40.0,42,60,14.0,0.0
5697,88.0,5,60,10.0,0.0
5698,85.0,4,60,11.0,0.0
5699,64.0,51,60,12.0,0.0
5700,85.0,5,60,10.0,0.0
5701,81.0,4,60,11.0,0.0
5702,61.0,0,15,12.0,0.0
5703,57.0,0,60,12.0,0.0
5704,64.0,3,60,13.0,0.0
5705,52.0,102,60,14.0,0.0
5706,86.0,5,60,10.0,0.0
5707,83.0,4,60,11.0,0.0
5708,59.0,0,60,12.0,0.0
5709,62.0,6,60,12.0,0.0
5710,52.0,3,60,13.0,0.0
5711,40.0,42,60,14.0,0.0
5712,88.0,5,60,10.0,0.0
5713,85.0,4,60,11.0,0.0
5714,64.0,51,60,12.0,0.0
5715,61.0,0,60,12.0,0.0
5716,85.0,5,60,10.0,0.0
5717,81.0,4,60,11.0,0.0
5718,57.0,0,60,12.0,0.0
5719,61.0,6,60,12.0,0.0
5720,64.0,3,60,13.0,0.0
5721,52.0,44,60,14.0,0.0
5722,64.0,2,60,10.0,0.0
5723,76.0,7,60,0.0,0.0
5724,52.0,6,60,12.0,0.0
5725,40.0,105,60,13.0,0.0
5726,76.0,2,60,10.0,0.0
5727,88.0,7,60,0.0,0.0
5728,64.0,6,60,12.0,0.0
5729,52.0,105,60,13.0,0.0
5730,64.0,2,60,10.0,0.0
5731,76.0,7,60,0.0,0.0
5732,52.0,6,60,12.0,0.0
5733,40.0,105,60,13.0,0.0
5734,76.0,2,60,10.0,0.0
5735,88.0,7,60,0.0,0.0
5736,64.0,6,60,12.0,0.0
5737,52.0,105,60,13.0,0.0
5738,64.0,2,60,10.0,0.0
5739,76.0,7,60,0.0,0.0
5740,52.0,6,60,12.0,0.0
5741,40.0,105,60,13.0,0.0
5742,76.0,2,60,10.0,0.0
5743,88.0,7,60,0.0,0.0
5744,64.0,6,60,12.0,0.0
5745,52.0,105,60,13.0,0.0
5746,64.0,2,60,10.0,0.0
5747,76.0,7,60,0.0,0.0
5748,52.0,6,60,12.0,0.0
5749,40.0,105,60,13.0,0.0
5750,76.0,2,60,10.0,0.0
5751,88.0,7,60,0.0,0.0
5752,64.0,6,60,12.0,0.0
5753,52.0,122,60,13.0,0.0
5754,41.0,62,60,3.0,0.0
5755,41.0,58,120,15.0,0.0
5756,53.0,62,60,3.0,0.0
5757,53.0,58,120,15.0,0.0
5758,41.0,62,60,3.0,0.0
5759,41.0,58,120,15.0,0.0
5760,53.0,62,60,3.0,0.0
5761,53.0,58,120,15.0,0.0
5762,41.0,62,60,3.0,0.0
5763,41.0,58,120,15.0,0.0
5764,53.0,62,60,3.0,0.0
5765,53.0,58,120,15.0,0.0
5766,41.0,62,60,3.0,0.0
5767,41.0,58,120,15.0,0.0
5768,53.0,62,60,3.0,0.0
5769,53.0,58,120,15.0,0.0
5770,41.0,62,60,3.0,0.0
5771,41.0,58,120,15.0,0.0
5772,53.0,62,60,3.0,0.0
5773,53.0,58,120,15.0,0.0
5774,41.0,62,60,3.0,0.0
5775,41.0,58,120,15.0,0.0
5776,53.0,62,60,3.0,0.0
5777,53.0,58,120,15.0,0.0
5778,41.0,62,60,3.0,0.0
5779,41.0,58,120,15.0,0.0
5780,53.0,62,60,3.0,0.0
5781,53.0,58,120,15.0,0.0
5782,41.0,62,60,3.0,0.0
5783,41.0,58,120,15.0,0.0
5784,53.0,62,60,3.0,0.0
5785,53.0,11,120,15.0,0.0
5786,69.0,5,30,10.0,0.0
5787,89.0,2,720,0.0,0.0
5788,65.0,5,2280,4.0,0.0
5789,65.0,35,30,11.0,0.0
5790,53.0,65,2280,5.0,0.0
5791,41.0,33,60,3.0,0.0
5792,41.0,11,120,15.0,0.0
5793,69.0,5,30,10.0,0.0
5794,65.0,2,30,11.0,0.0
5795,69.0,5,30,10.0,0.0
5796,65.0,24,30,11.0,0.0
5797,69.0,5,30,10.0,0.0
5798,65.0,35,30,11.0,0.0
5799,53.0,33,60,3.0,0.0
5800,53.0,41,120,15.0,0.0
5801,69.0,5,30,10.0,0.0
5802,65.0,2,30,11.0,0.0
5803,69.0,5,30,10.0,0.0
5804,65.0,24,30,11.0,0.0
5805,69.0,5,60,10.0,0.0
5806,65.0,12,60,11.0,0.0
5807,41.0,43,60,3.0,0.0
5808,41.0,41,120,15.0,0.0
5809,70.0,5,60,10.0,0.0
5810,67.0,14,60,11.0,0.0
5811,67.0,5,60,10.0,0.0
5812,60.0,12,60,11.0,0.0
5813,53.0,62,60,3.0,0.0
5814,53.0,41,120,15.0,0.0
5815,69.0,5,60,10.0,0.0
5816,65.0,4,60,11.0,0.0
5817,57.0,0,60,12.0,0.0
5818,53.0,8,60,12.0,0.0
5819,41.0,43,60,3.0,0.0
5820,41.0,41,120,15.0,0.0
5821,70.0,5,60,10.0,0.0
5822,67.0,4,60,11.0,0.0
5823,58.0,0,60,12.0,0.0
5824,67.0,5,60,10.0,0.0
5825,60.0,4,60,11.0,0.0
5826,55.0,10,15,12.0,0.0
5827,48.0,0,60,12.0,0.0
5828,53.0,45,60,3.0,0.0
5829,53.0,41,120,15.0,0.0
5830,69.0,2,60,10.0,0.0
5831,81.0,2,60,0.0,0.0
5832,77.0,15,15,1.0,0.0
5833,65.0,12,60,11.0,0.0
5834,41.0,43,60,3.0,0.0
5835,41.0,41,120,15.0,0.0
5836,70.0,2,60,10.0,0.0
5837,82.0,2,60,0.0,0.0
5838,79.0,1,60,1.0,0.0
5839,67.0,14,60,11.0,0.0
5840,67.0,2,60,10.0,0.0
5841,79.0,2,60,0.0,0.0
5842,72.0,1,60,1.0,0.0
5843,60.0,12,60,11.0,0.0
5844,53.0,62,60,3.0,0.0
5845,53.0,11,120,15.0,0.0
5846,70.0,5,30,10.0,0.0
5847,89.0,2,720,0.0,0.0
5848,77.0,15,720,1.0,0.0
5849,67.0,35,30,11.0,0.0
5850,41.0,33,60,3.0,0.0
5851,41.0,11,120,15.0,0.0
5852,70.0,5,30,10.0,0.0
5853,67.0,2,30,11.0,0.0
5854,70.0,5,30,10.0,0.0
5855,67.0,24,30,11.0,0.0
5856,70.0,5,30,10.0,0.0
5857,67.0,35,30,11.0,0.0
5858,53.0,33,60,3.0,0.0
5859,53.0,41,120,15.0,0.0
5860,70.0,5,30,10.0,0.0
5861,67.0,2,30,11.0,0.0
5862,70.0,5,30,10.0,0.0
5863,67.0,24,30,11.0,0.0
5864,70.0,5,60,10.0,0.0
5865,67.0,12,60,11.0,0.0
5866,41.0,43,60,3.0,0.0
5867,41.0,41,120,15.0,0.0
5868,72.0,5,60,10.0,0.0
5869,69.0,14,60,11.0,0.0
5870,69.0,5,60,10.0,0.0
5871,65.0,12,60,11.0,0.0
5872,53.0,62,60,3.0,0.0
5873,53.0,41,120,15.0,0.0
5874,70.0,5,60,10.0,0.0
5875,67.0,4,60,11.0,0.0
5876,55.0,8,60,12.0,0.0
5877,58.0,0,60,12.0,0.0
5878,41.0,43,60,3.0,0.0
5879,41.0,41,120,15.0,0.0
5880,72.0,5,60,10.0,0.0
5881,69.0,4,60,11.0,0.0
5882,57.0,10,60,12.0,0.0
5883,60.0,0,60,12.0,0.0
5884,69.0,5,60,10.0,0.0
5885,65.0,4,60,11.0,0.0
5886,53.0,0,60,12.0,0.0
5887,57.0,8,60,12.0,0.0
5888,53.0,45,60,3.0,0.0
5889,53.0,41,120,15.0,0.0
5890,70.0,2,60,10.0,0.0
5891,82.0,2,60,0.0,0.0
5892,79.0,1,60,1.0,0.0
5893,67.0,12,60,11.0,0.0
5894,41.0,43,60,3.0,0.0
5895,41.0,41,120,15.0,0.0
5896,72.0,2,60,10.0,0.0
5897,84.0,2,60,0.0,0.0
5898,81.0,1,60,1.0,0.0
5899,69.0,14,60,11.0,0.0
5900,69.0,2,60,10.0,0.0
5901,81.0,2,60,0.0,0.0
5902,77.0,1,60,1.0,0.0
5903,65.0,12,60,11.0,0.0
5904,53.0,62,60,3.0,0.0
5905,53.0,56,120,15.0,0.0
5906,65.0,5,480,10.0,0.0
5907,89.0,2,120,0.0,0.0
5908,77.0,15,120,1.0,0.0
5909,60.0,4,240,11.0,0.0
5910,57.0,10,240,12.0,0.0
5911,41.0,2,60,13.0,0.0
5912,41.0,45,60,3.0,0.0
5913,41.0,56,120,15.0,0.0
5914,53.0,2,60,13.0,0.0
5915,53.0,40,60,3.0,0.0
5916,53.0,56,120,15.0,0.0
5917,88.0,2,60,0.0,0.0
5918,76.0,6,60,1.0,0.0
5919,88.0,2,120,0.0,0.0
5920,76.0,1,120,1.0,0.0
5921,62.0,4,240,11.0,0.0
5922,58.0,66,240,12.0,0.0
5923,46.0,47,60,13.0,0.0
5924,86.0,2,120,0.0,0.0
5925,74.0,1,120,1.0,0.0
5926,58.0,42,60,13.0,0.0
5927,66.0,1,240,10.0,0.0
5928,86.0,2,120,1.0,0.0
5929,60.0,4,240,11.0,0.0
5930,74.0,11,120,2.0,0.0
5931,57.0,3,240,12.0,0.0
5932,50.0,49,60,13.0,0.0
5933,62.0,58,120,3.0,0.0
5934,62.0,44,60,13.0,0.0
5935,84.0,1,60,1.0,0.0
5936,72.0,4,60,2.0,0.0
5937,60.0,63,60,3.0,0.0
5938,67.0,5,360,10.0,0.0
5939,84.0,2,120,1.0,0.0
5940,58.0,4,360,11.0,0.0
5941,72.0,11,120,2.0,0.0
5942,55.0,55,360,12.0,0.0
5943,43.0,49,60,13.0,0.0
5944,60.0,58,120,3.0,0.0
5945,82.0,2,120,1.0,0.0
5946,70.0,11,120,2.0,0.0
5947,55.0,44,60,13.0,0.0
5948,58.0,52,120,3.0,0.0
5949,82.0,2,60,1.0,0.0
5950,70.0,9,60,2.0,0.0
5951,43.0,2,60,13.0,0.0
5952,55.0,0,60,3.0,0.0
5953,58.0,43,60,3.0,0.0
5954,66.0,5,120,10.0,0.0
5955,81.0,2,60,1.0,0.0
5956,60.0,4,120,11.0,0.0
5957,69.0,9,60,2.0,0.0
5958,57.0,55,120,12.0,0.0
5959,45.0,2,60,13.0,0.0
5960,57.0,43,60,3.0,0.0
5961,60.0,0,60,3.0,0.0
5962,67.0,5,360,10.0,0.0
5963,79.0,2,60,1.0,0.0
5964,62.0,4,360,11.0,0.0
5965,67.0,9,60,2.0,0.0
5966,58.0,55,360,12.0,0.0
5967,46.0,2,60,13.0,0.0
5968,58.0,107,60,3.0,0.0
5969,62.0,0,60,3.0,0.0
5970,78.0,2,60,1.0,0.0
5971,66.0,9,60,2.0,0.0
5972,58.0,2,60,13.0,0.0
5973,58.0,107,60,3.0,0.0
5974,62.0,0,60,3.0,0.0
5975,79.0,2,60,1.0,0.0
5976,67.0,9,60,2.0,0.0
5977,46.0,2,60,13.0,0.0
5978,58.0,43,60,3.0,0.0
5979,62.0,0,60,3.0,0.0
5980,69.0,5,120,10.0,0.0
5981,81.0,2,60,1.0,0.0
5982,60.0,0,600,4.0,0.0
5983,64.0,4,120,11.0,0.0
5984,69.0,9,60,2.0,0.0
5985,60.0,55,120,12.0,0.0
5986,48.0,52,600,5.0,0.0
5987,48.0,2,60,13.0,0.0
5988,64.0,0,60,3.0,0.0
5989,60.0,43,60,3.0,0.0
5990,70.0,5,240,10.0,0.0
5991,82.0,2,60,1.0,0.0
5992,65.0,4,120,11.0,0.0
5993,70.0,9,60,2.0,0.0
5994,62.0,55,120,12.0,0.0
5995,50.0,2,60,13.0,0.0
5996,62.0,0,60,3.0,0.0
5997,65.0,48,60,3.0,0.0
5998,72.0,2,60,1.0,0.0
5999,79.0,0,60,1.0,0.0
6000,67.0,59,120,11.0,0.0
6001,60.0,9,60,2.0,0.0
6002,67.0,0,60,2.0,0.0
6003,52.0,2,60,13.0,0.0
6004,52.0,0,60,3.0,0.0
6005,55.0,43,60,3.0,0.0
6006,69.0,5,240,10.0,0.0
6007,81.0,0,60,1.0,0.0
6008,72.0,2,60,1.0,0.0
6009,65.0,4,240,11.0,0.0
6010,60.0,9,60,2.0,0.0
6011,69.0,0,60,2.0,0.0
6012,53.0,2,60,13.0,0.0
6013,57.0,0,60,3.0,0.0
6014,53.0,105,60,3.0,0.0
6015,89.0,2,60,0.0,0.0
6016,72.0,2,60,1.0,0.0
6017,77.0,0,60,1.0,0.0
6018,60.0,0,60,2.0,0.0
6019,65.0,9,60,2.0,0.0
6020,41.0,2,60,13.0,0.0
6021,57.0,0,60,3.0,0.0
6022,53.0,43,60,3.0,0.0
6023,55.0,0,720,10.0,0.0
6024,67.0,5,240,10.0,0.0
6025,88.0,2,60,0.0,0.0
6026,72.0,0,60,1.0,0.0
6027,76.0,2,60,1.0,0.0
6028,64.0,4,240,11.0,0.0
6029,67.0,4,480,4.0,0.0
6030,60.0,9,60,2.0,0.0
6031,64.0,0,60,2.0,0.0
6032,60.0,1,15,12.0,0.0
6033,67.0,56,480,5.0,0.0
6034,43.0,2,60,13.0,0.0
6035,55.0,0,60,3.0,0.0
6036,60.0,105,60,3.0,0.0
6037,88.0,2,60,0.0,0.0
6038,84.0,2,60,1.0,0.0
6039,64.0,9,60,2.0,0.0
6040,72.0,0,60,2.0,0.0
6041,55.0,2,60,13.0,0.0
6042,60.0,43,60,3.0,0.0
6043,65.0,5,240,10.0,0.0
6044,79.0,2,60,0.0,0.0
6045,67.0,2,60,1.0,0.0
6046,62.0,0,240,11.0,0.0
6047,62.0,9,60,2.0,0.0
6048,71.0,0,60,2.0,0.0
6049,59.0,1,240,12.0,0.0
6050,43.0,2,60,13.0,0.0
6051,55.0,105,60,3.0,0.0
6052,91.0,2,60,0.0,0.0
6053,79.0,2,60,1.0,0.0
6054,71.0,0,60,2.0,0.0
6055,62.0,9,60,2.0,0.0
6056,43.0,2,60,13.0,0.0
6057,67.0,43,60,3.0,0.0
6058,64.0,5,240,10.0,0.0
6059,84.0,2,720,0.0,0.0
6060,72.0,71,720,1.0,0.0
6061,60.0,4,240,11.0,0.0
6062,60.0,5,3600,4.0,0.0
6063,64.0,9,60,2.0,0.0
6064,72.0,0,60,2.0,0.0
6065,60.0,21,240,12.0,0.0
6066,48.0,470,3600,5.0,0.0
6067,48.0,2,60,13.0,0.0
6068,60.0,118,60,3.0,0.0
6069,48.0,45,60,13.0,0.0
6070,74.0,5,30,10.0,0.0
6071,67.0,6,30,11.0,0.0
6072,55.0,0,30,12.0,0.0
6073,62.0,29,30,12.0,0.0
6074,36.0,6,60,13.0,0.0
6075,74.0,5,30,10.0,0.0
6076,67.0,0,30,11.0,0.0
6077,55.0,29,30,12.0,0.0
6078,62.0,0,30,12.0,0.0
6079,74.0,5,30,10.0,0.0
6080,67.0,6,30,11.0,0.0
6081,55.0,0,30,12.0,0.0
6082,62.0,29,30,12.0,0.0
6083,74.0,5,30,10.0,0.0
6084,67.0,6,30,11.0,0.0
6085,62.0,29,30,12.0,0.0
6086,55.0,0,30,12.0,0.0
6087,48.0,0,60,13.0,0.0
6088,74.0,5,30,10.0,0.0
6089,67.0,6,30,11.0,0.0
6090,55.0,29,30,12.0,0.0
6091,62.0,0,30,12.0,0.0
6092,74.0,5,30,10.0,0.0
6093,67.0,6,30,11.0,0.0
6094,62.0,0,30,12.0,0.0
6095,55.0,59,30,12.0,0.0
6096,74.0,5,60,10.0,0.0
6097,67.0,4,60,11.0,0.0
6098,62.0,0,60,12.0,0.0
6099,55.0,6,60,12.0,0.0
6100,36.0,45,60,13.0,0.0
6101,76.0,5,60,10.0,0.0
6102,72.0,4,60,11.0,0.0
6103,64.0,51,60,12.0,0.0
6104,60.0,0,60,12.0,0.0
6105,72.0,5,60,10.0,0.0
6106,64.0,4,60,11.0,0.0
6107,52.0,6,60,12.0,0.0
6108,60.0,0,60,12.0,0.0
6109,48.0,47,60,13.0,0.0
6110,55.0,0,480,10.0,0.0
6111,65.0,1,240,10.0,0.0
6112,86.0,2,60,0.0,0.0
6113,79.0,2,60,1.0,0.0
6114,59.0,4,240,11.0,0.0
6115,67.0,11,60,2.0,0.0
6116,74.0,0,60,2.0,0.0
6117,62.0,3,240,12.0,0.0
6118,36.0,2,60,13.0,0.0
6119,62.0,0,60,3.0,0.0
6120,55.0,65,60,3.0,0.0
6121,86.0,2,60,0.0,0.0
6122,79.0,2,60,1.0,0.0
6123,74.0,11,60,2.0,0.0
6124,67.0,0,60,2.0,0.0
6125,55.0,23,60,3.0,0.0
6126,62.0,0,60,3.0,0.0
6127,48.0,42,60,13.0,0.0
6128,86.0,2,60,0.0,0.0
6129,79.0,1,60,1.0,0.0
6130,67.0,4,60,2.0,0.0
6131,74.0,0,60,2.0,0.0
6132,55.0,63,60,3.0,0.0
6133,62.0,0,60,3.0,0.0
6134,64.0,5,240,10.0,0.0
6135,86.0,2,90,0.0,0.0
6136,79.0,2,90,1.0,0.0
6137,60.0,4,240,11.0,0.0
6138,74.0,0,90,2.0,0.0
6139,67.0,11,90,2.0,0.0
6140,55.0,21,240,12.0,0.0
6141,36.0,7,60,13.0,0.0
6142,62.0,0,90,3.0,0.0
6143,55.0,60,90,3.0,0.0
6144,88.0,2,60,0.0,0.0
6145,84.0,2,60,1.0,0.0
6146,72.0,0,60,2.0,0.0
6147,76.0,11,60,2.0,0.0
6148,60.0,0,60,3.0,0.0
6149,64.0,23,60,3.0,0.0
6150,48.0,27,60,13.0,0.0
6151,84.0,2,60,0.0,0.0
6152,76.0,2,60,1.0,0.0
6153,72.0,11,60,2.0,0.0
6154,64.0,0,60,2.0,0.0
6155,60.0,3,60,3.0,0.0
6156,52.0,0,60,3.0,0.0
6157,74.0,5,30,10.0,0.0
6158,84.0,2,2400,0.0,0.0
6159,72.0,1,2400,1.0,0.0
6160,67.0,6,30,11.0,0.0
6161,55.0,0,30,12.0,0.0
6162,62.0,29,30,12.0,0.0
6163,36.0,0,60,13.0,0.0
6164,74.0,5,30,10.0,0.0
6165,67.0,6,30,11.0,0.0
6166,62.0,0,30,12.0,0.0
6167,55.0,29,30,12.0,0.0
6168,74.0,5,30,10.0,0.0
6169,67.0,6,30,11.0,0.0
6170,55.0,0,30,12.0,0.0
6171,62.0,29,30,12.0,0.0
6172,74.0,5,30,10.0,0.0
6173,67.0,6,30,11.0,0.0
6174,55.0,29,30,12.0,0.0
6175,62.0,0,30,12.0,0.0
6176,48.0,6,60,13.0,0.0
6177,74.0,5,30,10.0,0.0
6178,67.0,0,30,11.0,0.0
6179,55.0,29,30,12.0,0.0
6180,62.0,0,30,12.0,0.0
6181,74.0,5,30,10.0,0.0
6182,67.0,6,30,11.0,0.0
6183,62.0,0,30,12.0,0.0
6184,55.0,59,30,12.0,0.0
6185,74.0,5,60,10.0,0.0
6186,67.0,4,60,11.0,0.0
6187,62.0,6,60,12.0,0.0
6188,55.0,0,60,12.0,0.0
6189,36.0,45,60,13.0,0.0
6190,76.0,5,60,10.0,0.0
6191,72.0,4,60,11.0,0.0
6192,64.0,0,60,12.0,0.0
6193,72.0,5,60,10.0,0.0
6194,64.0,4,60,11.0,0.0
6195,60.0,51,15,12.0,0.0
6196,52.0,0,60,12.0,0.0
6197,48.0,105,60,13.0,0.0
6198,71.0,5,60,10.0,0.0
6199,71.0,4,60,11.0,0.0
6200,59.0,6,60,12.0,0.0
6201,36.0,45,60,13.0,0.0
6202,72.0,5,60,10.0,0.0
6203,72.0,4,60,11.0,0.0
6204,60.0,51,60,12.0,0.0
6205,67.0,5,60,10.0,0.0
6206,67.0,4,60,11.0,0.0
6207,55.0,6,60,12.0,0.0
6208,48.0,105,60,13.0,0.0
6209,65.0,5,60,10.0,0.0
6210,65.0,4,60,11.0,0.0
6211,53.0,6,60,12.0,0.0
6212,36.0,45,60,13.0,0.0
6213,67.0,5,60,10.0,0.0
6214,67.0,4,60,11.0,0.0
6215,55.0,51,60,12.0,0.0
6216,64.0,5,60,10.0,0.0
6217,64.0,4,60,11.0,0.0
6218,52.0,6,60,12.0,0.0
6219,48.0,105,60,13.0,0.0
6220,62.0,5,60,10.0,0.0
6221,62.0,4,60,11.0,0.0
6222,50.0,6,60,12.0,0.0
6223,36.0,45,60,13.0,0.0
6224,64.0,5,60,10.0,0.0
6225,64.0,4,60,11.0,0.0
6226,52.0,51,60,12.0,0.0
6227,60.0,5,60,10.0,0.0
6228,60.0,4,60,11.0,0.0
6229,48.0,6,60,12.0,0.0
6230,48.0,105,60,13.0,0.0
6231,62.0,5,60,10.0,0.0
6232,62.0,4,60,11.0,0.0
6233,50.0,6,60,12.0,0.0
6234,36.0,45,60,13.0,0.0
6235,64.0,5,60,10.0,0.0
6236,64.0,4,60,11.0,0.0
6237,52.0,51,60,12.0,0.0
6238,60.0,5,60,10.0,0.0
6239,60.0,4,60,11.0,0.0
6240,48.0,6,60,12.0,0.0
6241,48.0,345,60,13.0,0.0
6242,62.0,5,60,10.0,0.0
6243,62.0,4,60,11.0,0.0
6244,50.0,6,60,12.0,0.0
6245,36.0,45,60,13.0,0.0
6246,64.0,5,60,10.0,0.0
6247,64.0,4,60,11.0,0.0
6248,52.0,51,60,12.0,0.0
6249,60.0,5,60,10.0,0.0
6250,60.0,4,60,11.0,0.0
6251,48.0,6,60,12.0,0.0
6252,48.0,345,60,13.0,0.0
6253,62.0,5,60,10.0,0.0
6254,62.0,4,60,11.0,0.0
6255,50.0,6,60,12.0,0.0
6256,36.0,45,60,13.0,0.0
6257,64.0,5,60,10.0,0.0
6258,64.0,4,60,11.0,0.0
6259,52.0,51,60,12.0,0.0
6260,60.0,5,60,10.0,0.0
6261,60.0,4,60,11.0,0.0
6262,48.0,6,60,12.0,0.0
6263,48.0,47,60,13.0,0.0
6264,61.0,2,480,10.0,0.0
6265,85.0,2,480,0.0,0.0
6266,73.0,0,480,1.0,0.0
6267,85.0,1,480,1.0,0.0
6268,61.0,1,480,11.0,0.0
6269,73.0,3,480,2.0,0.0
6270,49.0,6,480,12.0,0.0
6271,37.0,2,480,13.0,0.0
6272,49.0,1,480,3.0,0.0
6273,37.0,12,480,14.0,0.0
6274,81.0,5,30,10.0,0.0
6275,84.0,2,60,0.0,0.0
6276,89.0,0,60,0.0,0.0
6277,77.0,1,60,1.0,0.0
6278,81.0,0,60,1.0,0.0
6279,77.0,6,30,11.0,0.0
6280,69.0,0,60,2.0,0.0
6281,77.0,2,60,2.0,0.0
6282,53.0,29,30,12.0,0.0
6283,65.0,9,90,5.0,0.0
6284,41.0,0,60,13.0,0.0
6285,53.0,3,60,3.0,0.0
6286,57.0,0,60,3.0,0.0
6287,29.0,3,60,14.0,0.0
6288,41.0,11,90,15.0,0.0
6289,81.0,2,30,10.0,0.0
6290,77.0,1,30,11.0,0.0
6291,53.0,3,30,12.0,0.0
6292,81.0,5,30,10.0,0.0
6293,84.0,2,60,0.0,0.0
6294,89.0,0,60,0.0,0.0
6295,77.0,1,60,1.0,0.0
6296,77.0,1,15,6.0,0.0
6297,65.0,0,15,6.0,0.0
6298,81.0,0,60,1.0,0.0
6299,69.0,2,15,4.0,0.0
6300,77.0,6,30,11.0,0.0
6301,69.0,5,60,2.0,0.0
6302,77.0,0,60,2.0,0.0
6303,53.0,29,30,12.0,0.0
6304,65.0,9,90,5.0,0.0
6305,57.0,0,60,3.0,0.0
6306,53.0,3,60,3.0,0.0
6307,41.0,11,90,15.0,0.0
6308,81.0,2,30,10.0,0.0
6309,77.0,1,30,11.0,0.0
6310,65.0,3,30,12.0,0.0
6311,53.0,0,60,13.0,0.0
6312,41.0,3,60,14.0,0.0
6313,81.0,5,30,10.0,0.0
6314,89.0,2,60,0.0,0.0
6315,84.0,0,60,0.0,0.0
6316,77.0,1,15,6.0,0.0
6317,65.0,0,15,6.0,0.0
6318,77.0,0,60,1.0,0.0
6319,81.0,1,60,1.0,0.0
6320,77.0,3,30,11.0,0.0
6321,69.0,2,15,4.0,0.0
6322,77.0,5,60,2.0,0.0
6323,69.0,0,60,2.0,0.0
6324,65.0,29,30,12.0,0.0
6325,65.0,9,90,5.0,0.0
6326,53.0,0,60,3.0,0.0
6327,57.0,3,60,3.0,0.0
6328,41.0,22,90,15.0,0.0
6329,81.0,2,30,10.0,0.0
6330,77.0,1,30,11.0,0.0
6331,65.0,3,30,12.0,0.0
6332,81.0,2,60,10.0,0.0
6333,89.0,2,60,0.0,0.0
6334,81.0,0,60,1.0,0.0
6335,65.0,0,15,6.0,0.0
6336,77.0,1,60,1.0,0.0
6337,77.0,1,15,6.0,0.0
6338,77.0,1,60,11.0,0.0
6339,70.0,5,90,4.0,0.0
6340,69.0,0,60,2.0,0.0
6341,77.0,9,60,2.0,0.0
6342,53.0,19,30,12.0,0.0
6343,67.0,9,90,5.0,0.0
6344,41.0,2,60,13.0,0.0
6345,53.0,0,60,3.0,0.0
6346,57.0,1,60,3.0,0.0
6347,29.0,3,60,14.0,0.0
6348,53.0,11,90,15.0,0.0
6349,53.0,13,30,12.0,0.0
6350,82.0,1,60,10.0,0.0
6351,91.0,2,60,0.0,0.0
6352,79.0,1,60,1.0,0.0
6353,82.0,0,60,1.0,0.0
6354,79.0,1,60,11.0,0.0
6355,70.0,0,60,2.0,0.0
6356,79.0,11,60,2.0,0.0
6357,58.0,0,60,3.0,0.0
6358,55.0,24,60,3.0,0.0
6359,53.0,1,30,12.0,0.0
6360,79.0,2,60,10.0,0.0
6361,84.0,0,15,0.0,0.0
6362,88.0,0,60,0.0,0.0
6363,65.0,1,90,6.0,0.0
6364,72.0,1,60,1.0,0.0
6365,77.0,0,90,6.0,0.0
6366,79.0,0,60,1.0,0.0
6367,67.0,5,90,4.0,0.0
6368,72.0,1,60,11.0,0.0
6369,76.0,0,60,2.0,0.0
6370,67.0,9,60,2.0,0.0
6371,65.0,19,30,12.0,0.0
6372,60.0,9,90,5.0,0.0
6373,53.0,2,60,13.0,0.0
6374,48.0,1,60,3.0,0.0
6375,55.0,0,60,3.0,0.0
6376,41.0,3,60,14.0,0.0
6377,53.0,12,90,15.0,0.0
6378,65.0,13,30,12.0,0.0
6379,65.0,40,30,12.0,0.0
6380,81.0,2,60,10.0,0.0
6381,89.0,2,60,0.0,0.0
6382,77.0,0,60,1.0,0.0
6383,81.0,1,60,1.0,0.0
6384,77.0,0,90,6.0,0.0
6385,65.0,1,90,6.0,0.0
6386,77.0,1,60,11.0,0.0
6387,70.0,5,90,4.0,0.0
6388,69.0,9,60,2.0,0.0
6389,77.0,0,60,2.0,0.0
6390,53.0,19,30,12.0,0.0
6391,67.0,9,90,5.0,0.0
6392,41.0,2,60,13.0,0.0
6393,53.0,0,60,3.0,0.0
6394,57.0,1,60,3.0,0.0
6395,29.0,3,60,14.0,0.0
6396,53.0,11,90,15.0,0.0
6397,53.0,13,30,12.0,0.0
6398,82.0,1,60,10.0,0.0
6399,91.0,0,60,0.0,0.0
6400,82.0,0,60,1.0,0.0
6401,79.0,1,60,1.0,0.0
6402,79.0,1,60,11.0,0.0
6403,70.0,0,60,2.0,0.0
6404,79.0,11,60,2.0,0.0
6405,58.0,0,60,3.0,0.0
6406,55.0,24,60,3.0,0.0
6407,53.0,1,30,12.0,0.0
6408,79.0,2,60,10.0,0.0
6409,84.0,2,15,0.0,0.0
6410,88.0,2,60,0.0,0.0
6411,65.0,1,90,6.0,0.0
6412,77.0,0,90,6.0,0.0
6413,79.0,1,60,1.0,0.0
6414,72.0,0,60,1.0,0.0
6415,67.0,5,90,4.0,0.0
6416,72.0,1,60,11.0,0.0
6417,76.0,0,60,2.0,0.0
6418,67.0,9,60,2.0,0.0
6419,65.0,19,30,12.0,0.0
6420,60.0,9,90,5.0,0.0
6421,53.0,2,60,13.0,0.0
6422,55.0,1,60,3.0,0.0
6423,48.0,0,60,3.0,0.0
6424,41.0,3,60,14.0,0.0
6425,53.0,12,90,15.0,0.0
6426,65.0,13,30,12.0,0.0
6427,65.0,40,30,12.0,0.0
6428,81.0,2,60,10.0,0.0
6429,84.0,2,120,0.0,0.0
6430,89.0,2,60,0.0,0.0
6431,81.0,0,60,1.0,0.0
6432,77.0,1,90,6.0,0.0
6433,65.0,0,90,6.0,0.0
6434,77.0,1,60,1.0,0.0
6435,77.0,1,60,11.0,0.0
6436,70.0,5,90,4.0,0.0
6437,69.0,9,60,2.0,0.0
6438,77.0,0,60,2.0,0.0
6439,53.0,19,30,12.0,0.0
6440,67.0,9,90,5.0,0.0
6441,41.0,2,60,13.0,0.0
6442,53.0,0,60,3.0,0.0
6443,57.0,1,60,3.0,0.0
6444,29.0,3,60,14.0,0.0
6445,53.0,11,90,15.0,0.0
6446,53.0,13,30,12.0,0.0
6447,82.0,1,60,10.0,0.0
6448,91.0,0,60,0.0,0.0
6449,79.0,0,60,1.0,0.0
6450,82.0,1,60,1.0,0.0
6451,79.0,1,60,11.0,0.0
6452,70.0,0,60,2.0,0.0
6453,79.0,11,60,2.0,0.0
6454,58.0,0,60,3.0,0.0
6455,53.0,1,30,12.0,0.0
6456,79.0,2,60,10.0,0.0
6457,84.0,0,60,0.0,0.0
6458,88.0,2,60,0.0,0.0
6459,65.0,0,90,6.0,0.0
6460,77.0,1,90,6.0,0.0
6461,72.0,0,60,1.0,0.0
6462,79.0,1,60,1.0,0.0
6463,67.0,5,90,4.0,0.0
6464,72.0,1,60,11.0,0.0
6465,76.0,9,60,2.0,0.0
6466,67.0,0,60,2.0,0.0
6467,65.0,19,30,12.0,0.0
6468,60.0,9,90,5.0,0.0
6469,53.0,2,60,13.0,0.0
6470,48.0,1,60,3.0,0.0
6471,55.0,24,15,3.0,0.0
6472,41.0,3,60,14.0,0.0
6473,53.0,12,90,15.0,0.0
6474,65.0,13,30,12.0,0.0
6475,65.0,29,30,12.0,0.0
6476,82.0,5,30,10.0,0.0
6477,84.0,2,60,0.0,0.0
6478,91.0,0,60,0.0,0.0
6479,82.0,1,60,1.0,0.0
6480,79.0,0,60,1.0,0.0
6481,70.0,2,90,4.0,0.0
6482,79.0,6,30,11.0,0.0
6483,79.0,2,60,2.0,0.0
6484,70.0,0,60,2.0,0.0
6485,53.0,29,30,12.0,0.0
6486,41.0,0,60,13.0,0.0
6487,58.0,3,60,3.0,0.0
6488,55.0,0,60,3.0,0.0
6489,29.0,3,60,14.0,0.0
6490,82.0,2,30,10.0,0.0
6491,79.0,1,30,11.0,0.0
6492,53.0,3,30,12.0,0.0
6493,82.0,5,30,10.0,0.0
6494,91.0,2,60,0.0,0.0
6495,84.0,0,60,0.0,0.0
6496,77.0,0,15,6.0,0.0
6497,79.0,0,60,1.0,0.0
6498,82.0,1,60,1.0,0.0
6499,65.0,1,15,6.0,0.0
6500,79.0,6,30,11.0,0.0
6501,70.0,0,60,2.0,0.0
6502,79.0,5,60,2.0,0.0
6503,53.0,29,30,12.0,0.0
6504,67.0,9,15,5.0,0.0
6505,58.0,0,60,3.0,0.0
6506,55.0,3,60,3.0,0.0
6507,41.0,11,15,15.0,0.0
6508,82.0,2,30,10.0,0.0
6509,79.0,1,30,11.0,0.0
6510,65.0,3,30,12.0,0.0
6511,53.0,3,60,13.0,0.0
6512,41.0,3,60,14.0,0.0
6513,82.0,5,30,10.0,0.0
6514,91.0,0,60,0.0,0.0
6515,84.0,2,60,0.0,0.0
6516,77.0,1,90,6.0,0.0
6517,82.0,0,60,1.0,0.0
6518,79.0,1,60,1.0,0.0
6519,70.0,2,15,4.0,0.0
6520,79.0,0,30,11.0,0.0
6521,79.0,0,60,2.0,0.0
6522,70.0,5,60,2.0,0.0
6523,65.0,29,30,12.0,0.0
6524,67.0,9,15,5.0,0.0
6525,55.0,3,60,3.0,0.0
6526,58.0,0,60,3.0,0.0
6527,41.0,22,90,15.0,0.0
6528,82.0,2,30,10.0,0.0
6529,79.0,1,30,11.0,0.0
6530,65.0,3,30,12.0,0.0
6531,82.0,2,60,10.0,0.0
6532,84.0,2,120,0.0,0.0
6533,91.0,2,60,0.0,0.0
6534,65.0,0,15,6.0,0.0
6535,82.0,0,60,1.0,0.0
6536,79.0,1,60,1.0,0.0
6537,77.0,0,90,6.0,0.0
6538,79.0,1,60,11.0,0.0
6539,72.0,5,90,4.0,0.0
6540,70.0,0,60,2.0,0.0
6541,79.0,9,60,2.0,0.0
6542,53.0,19,30,12.0,0.0
6543,69.0,9,90,5.0,0.0
6544,41.0,2,60,13.0,0.0
6545,55.0,0,60,3.0,0.0
6546,58.0,1,60,3.0,0.0
6547,29.0,3,60,14.0,0.0
6548,41.0,11,90,15.0,0.0
6549,53.0,13,30,12.0,0.0
6550,84.0,1,60,10.0,0.0
6551,93.0,0,60,0.0,0.0
6552,84.0,1,60,1.0,0.0
6553,81.0,0,60,1.0,0.0
6554,81.0,1,60,11.0,0.0
6555,72.0,11,60,2.0,0.0
6556,81.0,0,60,2.0,0.0
6557,60.0,0,60,3.0,0.0
6558,53.0,1,30,12.0,0.0
6559,81.0,2,60,10.0,0.0
6560,89.0,0,60,0.0,0.0
6561,84.0,2,60,0.0,0.0
6562,77.0,0,60,1.0,0.0
6563,81.0,1,60,1.0,0.0
6564,65.0,0,90,6.0,0.0
6565,77.0,1,90,6.0,0.0
6566,77.0,1,60,11.0,0.0
6567,69.0,5,90,4.0,0.0
6568,69.0,0,60,2.0,0.0
6569,79.0,9,60,2.0,0.0
6570,65.0,19,30,12.0,0.0
6571,65.0,9,90,5.0,0.0
6572,53.0,2,60,13.0,0.0
6573,57.0,24,15,3.0,0.0
6574,53.0,1,60,3.0,0.0
6575,41.0,3,60,14.0,0.0
6576,53.0,12,90,15.0,0.0
6577,65.0,13,30,12.0,0.0
6578,65.0,40,30,12.0,0.0
6579,82.0,2,60,10.0,0.0
6580,91.0,2,60,0.0,0.0
6581,65.0,0,90,6.0,0.0
6582,79.0,1,60,1.0,0.0
6583,82.0,0,60,1.0,0.0
6584,77.0,1,90,6.0,0.0
6585,72.0,5,90,4.0,0.0
6586,79.0,1,60,11.0,0.0
6587,79.0,9,60,2.0,0.0
6588,70.0,0,60,2.0,0.0
6589,53.0,19,30,12.0,0.0
6590,69.0,9,90,5.0,0.0
6591,41.0,2,60,13.0,0.0
6592,58.0,1,60,3.0,0.0
6593,55.0,0,60,3.0,0.0
6594,29.0,3,60,14.0,0.0
6595,53.0,11,90,15.0,0.0
6596,53.0,13,30,12.0,0.0
6597,84.0,1,60,10.0,0.0
6598,93.0,0,60,0.0,0.0
6599,81.0,0,60,1.0,0.0
6600,84.0,1,60,1.0,0.0
6601,81.0,1,60,11.0,0.0
6602,81.0,11,60,2.0,0.0
6603,72.0,0,60,2.0,0.0
6604,60.0,24,60,3.0,0.0
6605,53.0,1,30,12.0,0.0
6606,81.0,2,60,10.0,0.0
6607,84.0,2,15,0.0,0.0
6608,89.0,0,60,0.0,0.0
6609,65.0,0,90,6.0,0.0
6610,77.0,0,60,1.0,0.0
6611,77.0,1,90,6.0,0.0
6612,81.0,1,60,1.0,0.0
6613,77.0,1,60,11.0,0.0
6614,69.0,5,90,4.0,0.0
6615,69.0,9,60,2.0,0.0
6616,79.0,0,60,2.0,0.0
6617,65.0,19,30,12.0,0.0
6618,65.0,9,90,5.0,0.0
6619,53.0,2,60,13.0,0.0
6620,53.0,0,60,3.0,0.0
6621,57.0,0,15,3.0,0.0
6622,41.0,3,60,14.0,0.0
6623,53.0,12,90,15.0,0.0
6624,65.0,13,30,12.0,0.0
6625,65.0,40,30,12.0,0.0
6626,82.0,2,60,10.0,0.0
6627,91.0,2,60,0.0,0.0
6628,79.0,1,60,1.0,0.0
6629,82.0,0,60,1.0,0.0
6630,77.0,0,90,6.0,0.0
6631,65.0,1,90,6.0,0.0
6632,79.0,1,60,11.0,0.0
6633,72.0,5,90,4.0,0.0
6634,79.0,9,60,2.0,0.0
6635,70.0,0,60,2.0,0.0
6636,53.0,19,30,12.0,0.0
6637,69.0,9,90,5.0,0.0
6638,41.0,2,60,13.0,0.0
6639,55.0,1,60,3.0,0.0
6640,58.0,0,60,3.0,0.0
6641,29.0,3,60,14.0,0.0
6642,53.0,11,90,15.0,0.0
6643,53.0,13,30,12.0,0.0
6644,84.0,1,60,10.0,0.0
6645,93.0,0,60,0.0,0.0
6646,81.0,0,60,1.0,0.0
6647,84.0,1,60,1.0,0.0
6648,81.0,1,60,11.0,0.0
6649,81.0,11,60,2.0,0.0
6650,72.0,0,60,2.0,0.0
6651,57.0,0,60,3.0,0.0
6652,60.0,24,60,3.0,0.0
6653,53.0,1,30,12.0,0.0
6654,81.0,2,60,10.0,0.0
6655,84.0,2,15,0.0,0.0
6656,89.0,0,60,0.0,0.0
6657,77.0,0,90,6.0,0.0
6658,81.0,0,60,1.0,0.0
6659,77.0,1,60,1.0,0.0
6660,65.0,1,90,6.0,0.0
6661,77.0,1,60,11.0,0.0
6662,69.0,5,90,4.0,0.0
6663,79.0,0,60,2.0,0.0
6664,69.0,9,60,2.0,0.0
6665,65.0,19,30,12.0,0.0
6666,65.0,9,90,5.0,0.0
6667,53.0,2,60,13.0,0.0
6668,53.0,0,60,3.0,0.0
6669,57.0,1,60,3.0,0.0
6670,41.0,3,60,14.0,0.0
6671,53.0,12,90,15.0,0.0
6672,65.0,13,30,12.0,0.0
6673,65.0,36,30,12.0,0.0
6674,77.0,1,120,10.0,0.0
6675,84.0,0,60,0.0,0.0
6676,89.0,2,60,0.0,0.0
6677,69.0,2,60,1.0,0.0
6678,77.0,0,60,1.0,0.0
6679,65.0,1,90,6.0,0.0
6680,77.0,0,90,6.0,0.0
6681,65.0,5,90,4.0,0.0
6682,60.0,4,30,11.0,0.0
6683,77.0,9,60,2.0,0.0
6684,69.0,0,60,2.0,0.0
6685,57.0,21,30,12.0,0.0
6686,53.0,9,90,5.0,0.0
6687,41.0,2,60,13.0,0.0
6688,65.0,0,60,3.0,0.0
6689,57.0,0,60,3.0,0.0
6690,29.0,3,60,14.0,0.0
6691,41.0,8,90,15.0,0.0
6692,60.0,1,30,11.0,0.0
6693,57.0,13,30,12.0,0.0
6694,60.0,3,30,11.0,0.0
6695,57.0,36,30,12.0,0.0
6696,60.0,4,30,11.0,0.0
6697,57.0,34,30,12.0,0.0
6698,53.0,2,60,13.0,0.0
6699,41.0,3,60,14.0,0.0
6700,60.0,1,30,11.0,0.0
6701,57.0,34,30,12.0,0.0
6702,76.0,2,60,10.0,0.0
6703,88.0,0,60,0.0,0.0
6704,65.0,0,60,6.0,0.0
6705,76.0,0,60,1.0,0.0
6706,77.0,0,60,6.0,0.0
6707,72.0,4,60,2.0,0.0
6708,76.0,0,60,2.0,0.0
6709,60.0,0,60,3.0,0.0
6710,64.0,2,60,3.0,0.0
6711,41.0,18,60,15.0,0.0
6712,60.0,4,30,11.0,0.0
6713,57.0,1,30,12.0,0.0
6714,76.0,1,120,10.0,0.0
6715,84.0,2,15,0.0,0.0
6716,88.0,2,120,0.0,0.0
6717,77.0,1,120,6.0,0.0
6718,76.0,0,120,1.0,0.0
6719,72.0,1,15,1.0,0.0
6720,65.0,0,120,6.0,0.0
6721,62.0,4,30,11.0,0.0
6722,65.0,1,15,4.0,0.0
6723,76.0,0,120,2.0,0.0
6724,72.0,4,120,2.0,0.0
6725,58.0,34,30,12.0,0.0
6726,53.0,7,15,5.0,0.0
6727,46.0,2,60,13.0,0.0
6728,64.0,0,120,3.0,0.0
6729,60.0,2,120,3.0,0.0
6730,34.0,3,60,14.0,0.0
6731,53.0,18,120,15.0,0.0
6732,62.0,1,30,11.0,0.0
6733,58.0,36,30,12.0,0.0
6734,62.0,3,30,11.0,0.0
6735,58.0,1,30,12.0,0.0
6736,74.0,1,120,10.0,0.0
6737,82.0,0,120,0.0,0.0
6738,74.0,0,120,1.0,0.0
6739,70.0,2,120,1.0,0.0
6740,62.0,4,30,11.0,0.0
6741,70.0,0,120,2.0,0.0
6742,74.0,11,120,2.0,0.0
6743,58.0,34,30,12.0,0.0
6744,58.0,2,60,13.0,0.0
6745,58.0,0,120,3.0,0.0
6746,62.0,20,120,3.0,0.0
6747,46.0,3,60,14.0,0.0
6748,62.0,1,30,11.0,0.0
6749,58.0,36,30,12.0,0.0
6750,62.0,3,30,11.0,0.0
6751,58.0,1,30,12.0,0.0
6752,86.0,1,120,10.0,0.0
6753,86.0,2,15,0.0,0.0
6754,81.0,2,60,0.0,0.0
6755,86.0,2,60,1.0,0.0
6756,78.0,0,60,1.0,0.0
6757,57.0,4,30,11.0,0.0
6758,66.0,9,60,2.0,0.0
6759,74.0,0,60,2.0,0.0
6760,54.0,21,30,12.0,0.0
6761,46.0,2,60,13.0,0.0
6762,54.0,1,60,3.0,0.0
6763,62.0,0,60,3.0,0.0
6764,34.0,3,60,14.0,0.0
6765,57.0,0,30,11.0,0.0
6766,54.0,36,30,12.0,0.0
6767,57.0,3,30,11.0,0.0
6768,54.0,36,30,12.0,0.0
6769,57.0,4,30,11.0,0.0
6770,54.0,34,30,12.0,0.0
6771,62.0,2,60,13.0,0.0
6772,50.0,3,60,14.0,0.0
6773,57.0,1,30,11.0,0.0
6774,54.0,34,30,12.0,0.0
6775,84.0,2,60,10.0,0.0
6776,81.0,2,60,0.0,0.0
6777,81.0,0,60,1.0,0.0
6778,60.0,20,60,3.0,0.0
6779,57.0,0,60,3.0,0.0
6780,57.0,4,30,11.0,0.0
6781,54.0,1,30,12.0,0.0
6782,84.0,1,120,10.0,0.0
6783,84.0,0,15,0.0,0.0
6784,81.0,2,120,0.0,0.0
6785,84.0,2,15,1.0,0.0
6786,79.0,1,90,6.0,0.0
6787,81.0,0,120,1.0,0.0
6788,67.0,5,90,4.0,0.0
6789,58.0,4,30,11.0,0.0
6790,69.0,11,15,2.0,0.0
6791,72.0,0,15,2.0,0.0
6792,55.0,34,30,12.0,0.0
6793,67.0,17,90,5.0,0.0
6794,55.0,2,60,13.0,0.0
6795,57.0,20,120,3.0,0.0
6796,60.0,0,120,3.0,0.0
6797,43.0,3,60,14.0,0.0
6798,58.0,1,30,11.0,0.0
6799,55.0,13,30,12.0,0.0
6800,58.0,3,30,11.0,0.0
6801,55.0,1,30,12.0,0.0
6802,82.0,2,120,10.0,0.0
6803,82.0,0,120,0.0,0.0
6804,79.0,2,120,0.0,0.0
6805,79.0,1,90,6.0,0.0
6806,82.0,0,120,1.0,0.0
6807,79.0,2,120,1.0,0.0
6808,67.0,5,90,4.0,0.0
6809,70.0,4,30,11.0,0.0
6810,70.0,0,120,2.0,0.0
6811,67.0,11,120,2.0,0.0
6812,58.0,34,30,12.0,0.0
6813,67.0,15,90,5.0,0.0
6814,67.0,2,60,13.0,0.0
6815,55.0,0,120,3.0,0.0
6816,58.0,20,120,3.0,0.0
6817,55.0,3,60,14.0,0.0
6818,70.0,1,30,11.0,0.0
6819,58.0,13,30,12.0,0.0
6820,70.0,4,30,11.0,0.0
6821,58.0,1,30,12.0,0.0
6822,82.0,2,60,10.0,0.0
6823,91.0,0,60,0.0,0.0
6824,82.0,2,60,0.0,0.0
6825,70.0,2,60,1.0,0.0
6826,82.0,0,60,1.0,0.0
6827,79.0,1,90,6.0,0.0
6828,67.0,5,90,4.0,0.0
6829,70.0,4,30,11.0,0.0
6830,70.0,9,60,2.0,0.0
6831,58.0,19,30,12.0,0.0
6832,67.0,17,90,5.0,0.0
6833,55.0,2,60,13.0,0.0
6834,58.0,1,60,3.0,0.0
6835,43.0,3,60,14.0,0.0
6836,70.0,0,30,11.0,0.0
6837,58.0,13,30,12.0,0.0
6838,70.0,4,30,11.0,0.0
6839,58.0,36,30,12.0,0.0
6840,81.0,2,60,10.0,0.0
6841,91.0,0,60,0.0,0.0
6842,81.0,2,60,0.0,0.0
6843,81.0,2,60,1.0,0.0
6844,79.0,1,90,6.0,0.0
6845,69.0,0,60,1.0,0.0
6846,72.0,4,30,11.0,0.0
6847,67.0,5,90,4.0,0.0
6848,69.0,9,60,2.0,0.0
6849,60.0,19,30,12.0,0.0
6850,67.0,17,90,5.0,0.0
6851,57.0,2,60,13.0,0.0
6852,57.0,0,60,3.0,0.0
6853,45.0,3,60,14.0,0.0
6854,72.0,1,30,11.0,0.0
6855,60.0,13,30,12.0,0.0
6856,72.0,4,30,11.0,0.0
6857,60.0,36,30,12.0,0.0
6858,79.0,2,60,10.0,0.0
6859,79.0,2,60,0.0,0.0
6860,91.0,0,60,0.0,0.0
6861,67.0,2,60,1.0,0.0
6862,79.0,0,60,1.0,0.0
6863,79.0,1,90,6.0,0.0
6864,74.0,4,30,11.0,0.0
6865,67.0,5,90,4.0,0.0
6866,67.0,9,60,2.0,0.0
6867,62.0,19,30,12.0,0.0
6868,67.0,17,90,5.0,0.0
6869,58.0,2,60,13.0,0.0
6870,55.0,1,60,3.0,0.0
6871,46.0,3,60,14.0,0.0
6872,62.0,0,30,11.0,0.0
6873,58.0,13,30,12.0,0.0
6874,62.0,4,30,11.0,0.0
6875,58.0,36,30,12.0,0.0
6876,78.0,2,60,10.0,0.0
6877,90.0,0,60,0.0,0.0
6878,78.0,2,60,0.0,0.0
6879,79.0,0,60,1.0,0.0
6880,66.0,2,60,1.0,0.0
6881,60.0,4,30,11.0,0.0
6882,66.0,9,60,2.0,0.0
6883,57.0,19,30,12.0,0.0
6884,57.0,2,60,13.0,0.0
6885,57.0,1,60,3.0,0.0
6886,60.0,0,60,3.0,0.0
6887,45.0,3,60,14.0,0.0
6888,60.0,0,30,11.0,0.0
6889,57.0,36,30,12.0,0.0
6890,60.0,4,30,11.0,0.0
6891,57.0,36,30,12.0,0.0
6892,79.0,2,60,10.0,0.0
6893,79.0,0,60,0.0,0.0
6894,91.0,2,60,0.0,0.0
6895,67.0,0,60,1.0,0.0
6896,79.0,2,60,1.0,0.0
6897,62.0,4,30,11.0,0.0
6898,67.0,9,60,2.0,0.0
6899,58.0,19,30,12.0,0.0
6900,58.0,2,60,13.0,0.0
6901,58.0,1,60,3.0,0.0
6902,62.0,0,60,3.0,0.0
6903,46.0,3,60,14.0,0.0
6904,62.0,0,30,11.0,0.0
6905,58.0,36,30,12.0,0.0
6906,62.0,4,30,11.0,0.0
6907,58.0,36,30,12.0,0.0
6908,81.0,2,60,10.0,0.0
6909,93.0,2,60,0.0,0.0
6910,81.0,0,60,0.0,0.0
6911,81.0,2,60,1.0,0.0
6912,81.0,1,90,6.0,0.0
6913,69.0,0,90,6.0,0.0
6914,69.0,0,60,1.0,0.0
6915,69.0,5,90,4.0,0.0
6916,64.0,4,30,11.0,0.0
6917,69.0,9,60,2.0,0.0
6918,60.0,19,30,12.0,0.0
6919,57.0,17,90,5.0,0.0
6920,60.0,2,60,13.0,0.0
6921,64.0,0,60,3.0,0.0
6922,60.0,0,60,3.0,0.0
6923,48.0,3,60,14.0,0.0
6924,53.0,18,120,15.0,0.0
6925,64.0,1,30,11.0,0.0
6926,60.0,13,30,12.0,0.0
6927,64.0,4,30,11.0,0.0
6928,60.0,18,30,12.0,0.0
6929,82.0,2,60,10.0,0.0
6930,94.0,0,60,0.0,0.0
6931,82.0,2,60,0.0,0.0
6932,82.0,2,60,1.0,0.0
6933,77.0,0,90,6.0,0.0
6934,65.0,1,90,6.0,0.0
6935,70.0,0,60,1.0,0.0
6936,65.0,5,90,4.0,0.0
6937,65.0,4,30,11.0,0.0
6938,70.0,9,60,2.0,0.0
6939,62.0,19,30,12.0,0.0
6940,53.0,17,90,5.0,0.0
6941,62.0,2,60,13.0,0.0
6942,62.0,0,60,3.0,0.0
6943,65.0,1,60,3.0,0.0
6944,50.0,3,60,14.0,0.0
6945,53.0,18,120,15.0,0.0
6946,65.0,0,30,11.0,0.0
6947,62.0,13,30,12.0,0.0
6948,65.0,4,30,11.0,0.0
6949,62.0,18,30,12.0,0.0
6950,79.0,2,60,10.0,0.0
6951,91.0,0,60,0.0,0.0
6952,84.0,2,60,0.0,0.0
6953,60.0,1,90,6.0,0.0
6954,72.0,2,60,1.0,0.0
6955,79.0,0,60,1.0,0.0
6956,72.0,0,90,6.0,0.0
6957,67.0,4,30,11.0,0.0
6958,60.0,5,90,4.0,0.0
6959,67.0,9,60,2.0,0.0
6960,60.0,19,30,12.0,0.0
6961,48.0,17,90,5.0,0.0
6962,64.0,2,60,13.0,0.0
6963,52.0,1,60,3.0,0.0
6964,55.0,0,60,3.0,0.0
6965,52.0,3,60,14.0,0.0
6966,67.0,0,30,11.0,0.0
6967,60.0,13,30,12.0,0.0
6968,67.0,4,30,11.0,0.0
6969,60.0,36,30,12.0,0.0
6970,81.0,2,60,10.0,0.0
6971,84.0,2,60,0.0,0.0
6972,93.0,0,60,0.0,0.0
6973,81.0,0,60,1.0,0.0
6974,72.0,2,60,1.0,0.0
6975,72.0,1,90,6.0,0.0
6976,60.0,0,90,6.0,0.0
6977,60.0,5,90,4.0,0.0
6978,69.0,4,30,11.0,0.0
6979,69.0,9,60,2.0,0.0
6980,60.0,19,30,12.0,0.0
6981,48.0,17,90,5.0,0.0
6982,65.0,2,60,13.0,0.0
6983,57.0,0,60,3.0,0.0
6984,53.0,1,60,3.0,0.0
6985,53.0,3,60,14.0,0.0
6986,53.0,18,120,15.0,0.0
6987,69.0,0,30,11.0,0.0
6988,60.0,13,30,12.0,0.0
6989,69.0,4,30,11.0,0.0
6990,60.0,18,30,12.0,0.0
6991,77.0,2,60,10.0,0.0
6992,89.0,2,60,0.0,0.0
6993,86.0,0,60,0.0,0.0
6994,77.0,1,90,6.0,0.0
6995,65.0,0,90,6.0,0.0
6996,77.0,2,60,1.0,0.0
6997,74.0,0,60,1.0,0.0
6998,69.0,5,90,4.0,0.0
6999,69.0,4,30,11.0,0.0
7000,65.0,9,60,2.0,0.0
7001,69.0,0,60,2.0,0.0
7002,65.0,19,30,12.0,0.0
7003,65.0,17,90,5.0,0.0
7004,62.0,2,60,13.0,0.0
7005,57.0,0,60,3.0,0.0
7006,53.0,0,60,3.0,0.0
7007,50.0,3,60,14.0,0.0
7008,69.0,1,30,11.0,0.0
7009,65.0,13,30,12.0,0.0
7010,69.0,4,30,11.0,0.0
7011,65.0,18,30,12.0,0.0
7012,74.0,2,60,10.0,0.0
7013,86.0,2,60,0.0,0.0
7014,74.0,0,60,1.0,0.0
7015,77.0,0,90,6.0,0.0
7016,65.0,1,90,6.0,0.0
7017,82.0,2,60,1.0,0.0
7018,67.0,5,90,4.0,0.0
7019,67.0,4,30,11.0,0.0
7020,74.0,9,60,2.0,0.0
7021,70.0,0,60,2.0,0.0
7022,65.0,19,30,12.0,0.0
7023,65.0,17,90,5.0,0.0
7024,58.0,2,60,13.0,0.0
7025,58.0,1,60,3.0,0.0
7026,62.0,0,60,3.0,0.0
7027,46.0,3,60,14.0,0.0
7028,53.0,18,15,15.0,0.0
7029,67.0,0,30,11.0,0.0
7030,58.0,13,30,12.0,0.0
7031,67.0,4,30,11.0,0.0
7032,58.0,18,30,12.0,0.0
7033,79.0,2,60,10.0,0.0
7034,86.0,0,60,0.0,0.0
7035,91.0,2,60,0.0,0.0
7036,65.0,1,90,6.0,0.0
7037,74.0,2,60,1.0,0.0
7038,77.0,0,90,6.0,0.0
7039,82.0,0,60,1.0,0.0
7040,67.0,5,90,4.0,0.0
7041,67.0,4,30,11.0,0.0
7042,79.0,9,60,2.0,0.0
7043,70.0,0,60,2.0,0.0
7044,58.0,19,30,12.0,0.0
7045,65.0,17,90,5.0,0.0
7046,55.0,2,60,13.0,0.0
7047,58.0,0,60,3.0,0.0
7048,67.0,0,60,3.0,0.0
7049,43.0,3,60,14.0,0.0
7050,53.0,18,120,15.0,0.0
7051,67.0,1,30,11.0,0.0
7052,58.0,13,30,12.0,0.0
7053,67.0,4,30,11.0,0.0
7054,58.0,18,30,12.0,0.0
7055,55.0,2,60,10.0,0.0
7056,64.0,0,60,10.0,0.0
7057,84.0,2,60,0.0,0.0
7058,88.0,0,60,0.0,0.0
7059,60.0,0,90,6.0,0.0
7060,76.0,2,60,1.0,0.0
7061,72.0,1,90,6.0,0.0
7062,79.0,0,60,1.0,0.0
7063,67.0,5,90,4.0,0.0
7064,67.0,4,30,11.0,0.0
7065,67.0,0,60,2.0,0.0
7066,76.0,9,60,2.0,0.0
7067,58.0,19,30,12.0,0.0
7068,60.0,17,90,5.0,0.0
7069,60.0,2,60,13.0,0.0
7070,55.0,0,60,3.0,0.0
7071,64.0,0,60,3.0,0.0
7072,48.0,3,60,14.0,0.0
7073,67.0,1,30,11.0,0.0
7074,58.0,13,30,12.0,0.0
7075,67.0,4,30,11.0,0.0
7076,58.0,36,30,12.0,0.0
7077,76.0,2,60,10.0,0.0
7078,88.0,2,60,0.0,0.0
7079,84.0,0,60,0.0,0.0
7080,79.0,2,60,1.0,0.0
7081,72.0,1,90,6.0,0.0
7082,60.0,0,90,6.0,0.0
7083,76.0,0,60,1.0,0.0
7084,58.0,4,30,11.0,0.0
7085,67.0,5,90,4.0,0.0
7086,67.0,0,60,2.0,0.0
7087,76.0,9,60,2.0,0.0
7088,55.0,19,30,12.0,0.0
7089,60.0,17,90,5.0,0.0
7090,48.0,2,60,13.0,0.0
7091,64.0,0,60,3.0,0.0
7092,55.0,0,60,3.0,0.0
7093,36.0,3,60,14.0,0.0
7094,58.0,1,30,11.0,0.0
7095,55.0,13,30,12.0,0.0
7096,58.0,4,30,11.0,0.0
7097,55.0,119,30,12.0,0.0
7098,77.0,2,120,10.0,0.0
7099,89.0,0,120,0.0,0.0
7100,84.0,2,120,0.0,0.0
7101,65.0,0,120,6.0,0.0
7102,77.0,1,120,1.0,0.0
7103,81.0,0,120,1.0,0.0
7104,65.0,1,120,4.0,0.0
7105,57.0,0,120,11.0,0.0
7106,77.0,0,120,2.0,0.0
7107,69.0,3,120,2.0,0.0
7108,53.0,1,120,12.0,0.0
7109,57.0,5,120,5.0,0.0
7110,53.0,2,120,13.0,0.0
7111,65.0,0,120,3.0,0.0
7112,57.0,1,120,3.0,0.0
7113,41.0,1,120,14.0,0.0
7114,41.0,131,120,15.0,0.0
7115,65.0,5,30,10.0,0.0
7116,57.0,6,30,11.0,0.0
7117,48.0,29,30,12.0,0.0
7118,65.0,3,60,13.0,0.0
7119,53.0,3,60,14.0,0.0
7120,65.0,5,30,10.0,0.0
7121,57.0,0,30,11.0,0.0
7122,48.0,29,30,12.0,0.0
7123,65.0,5,30,10.0,0.0
7124,57.0,6,30,11.0,0.0
7125,48.0,29,30,12.0,0.0
7126,65.0,5,30,10.0,0.0
7127,57.0,6,30,11.0,0.0
7128,48.0,29,30,12.0,0.0
7129,60.0,3,60,13.0,0.0
7130,48.0,3,60,14.0,0.0
7131,65.0,5,30,10.0,0.0
7132,57.0,0,30,11.0,0.0
7133,48.0,29,30,12.0,0.0
7134,65.0,5,30,10.0,0.0
7135,57.0,6,30,11.0,0.0
7136,48.0,74,30,12.0,0.0
7137,65.0,2,120,10.0,0.0
7138,89.0,2,120,0.0,0.0
7139,84.0,0,120,0.0,0.0
7140,72.0,0,120,1.0,0.0
7141,77.0,1,120,1.0,0.0
7142,65.0,0,120,6.0,0.0
7143,65.0,0,120,4.0,0.0
7144,57.0,1,120,11.0,0.0
7145,69.0,0,120,2.0,0.0
7146,77.0,3,120,2.0,0.0
7147,48.0,1,120,12.0,0.0
7148,57.0,7,120,5.0,0.0
7149,60.0,3,60,13.0,0.0
7150,53.0,2,120,3.0,0.0
7151,48.0,42,60,14.0,0.0
7152,41.0,56,120,15.0,0.0
7153,57.0,3,60,13.0,0.0
7154,45.0,72,60,14.0,0.0
7155,65.0,5,30,10.0,0.0
7156,60.0,6,30,11.0,0.0
7157,57.0,0,30,12.0,0.0
7158,48.0,29,30,12.0,0.0
7159,57.0,0,60,13.0,0.0
7160,45.0,3,60,14.0,0.0
7161,65.0,5,30,10.0,0.0
7162,60.0,3,30,11.0,0.0
7163,48.0,0,30,12.0,0.0
7164,57.0,29,30,12.0,0.0
7165,65.0,5,30,10.0,0.0
7166,60.0,6,30,11.0,0.0
7167,57.0,29,30,12.0,0.0
7168,48.0,0,30,12.0,0.0
7169,65.0,5,30,10.0,0.0
7170,59.0,6,30,11.0,0.0
7171,48.0,29,30,12.0,0.0
7172,56.0,0,30,12.0,0.0
7173,53.0,0,60,13.0,0.0
7174,41.0,3,60,14.0,0.0
7175,65.0,5,30,10.0,0.0
7176,59.0,3,30,11.0,0.0
7177,56.0,29,30,12.0,0.0
7178,48.0,0,30,12.0,0.0
7179,65.0,5,30,10.0,0.0
7180,59.0,6,30,11.0,0.0
7181,48.0,0,30,12.0,0.0
7182,56.0,59,30,12.0,0.0
7183,65.0,15,60,10.0,0.0
7184,88.0,2,120,0.0,0.0
7185,91.0,0,120,0.0,0.0
7186,72.0,0,120,6.0,0.0
7187,79.0,1,120,1.0,0.0
7188,76.0,0,120,1.0,0.0
7189,60.0,0,120,6.0,0.0
7190,67.0,0,120,4.0,0.0
7191,58.0,1,120,11.0,0.0
7192,79.0,0,120,2.0,0.0
7193,76.0,3,120,2.0,0.0
7194,55.0,1,120,12.0,0.0
7195,48.0,0,120,12.0,0.0
7196,60.0,7,120,5.0,0.0
7197,48.0,3,60,13.0,0.0
7198,55.0,0,120,3.0,0.0
7199,52.0,43,120,3.0,0.0
7200,36.0,42,60,14.0,0.0
7201,67.0,2,60,10.0,0.0
7202,64.0,90,60,10.0,0.0
7203,67.0,5,30,10.0,0.0
7204,61.0,6,30,11.0,0.0
7205,58.0,29,30,12.0,0.0
7206,48.0,0,30,12.0,0.0
7207,58.0,0,60,13.0,0.0
7208,46.0,3,60,14.0,0.0
7209,67.0,5,30,10.0,0.0
7210,61.0,3,30,11.0,0.0
7211,48.0,29,30,12.0,0.0
7212,58.0,0,30,12.0,0.0
7213,67.0,5,30,10.0,0.0
7214,61.0,6,30,11.0,0.0
7215,58.0,29,30,12.0,0.0
7216,48.0,0,30,12.0,0.0
7217,67.0,5,30,10.0,0.0
7218,61.0,6,30,11.0,0.0
7219,58.0,0,30,12.0,0.0
7220,48.0,29,30,12.0,0.0
7221,55.0,3,60,13.0,0.0
7222,43.0,3,60,14.0,0.0
7223,67.0,5,30,10.0,0.0
7224,61.0,0,30,11.0,0.0
7225,58.0,0,30,12.0,0.0
7226,48.0,29,30,12.0,0.0
7227,67.0,5,30,10.0,0.0
7228,61.0,6,30,11.0,0.0
7229,58.0,0,30,12.0,0.0
7230,48.0,74,30,12.0,0.0
7231,67.0,2,120,10.0,0.0
7232,91.0,0,120,0.0,0.0
7233,88.0,2,120,0.0,0.0
7234,60.0,0,120,6.0,0.0
7235,76.0,0,120,1.0,0.0
7236,72.0,1,120,6.0,0.0
7237,79.0,0,120,1.0,0.0
7238,67.0,0,120,4.0,0.0
7239,60.0,1,120,11.0,0.0
7240,79.0,3,120,2.0,0.0
7241,76.0,0,120,2.0,0.0
7242,58.0,1,120,12.0,0.0
7243,48.0,0,120,12.0,0.0
7244,60.0,7,120,5.0,0.0
7245,55.0,3,60,13.0,0.0
7246,52.0,58,120,3.0,0.0
7247,55.0,0,120,3.0,0.0
7248,43.0,42,60,14.0,0.0
7249,52.0,3,60,13.0,0.0
7250,40.0,72,60,14.0,0.0
7251,67.0,5,30,10.0,0.0
7252,60.0,6,30,11.0,0.0
7253,48.0,0,30,12.0,0.0
7254,58.0,29,30,12.0,0.0
7255,52.0,0,60,13.0,0.0
7256,40.0,3,60,14.0,0.0
7257,67.0,5,30,10.0,0.0
7258,60.0,3,30,11.0,0.0
7259,58.0,29,30,12.0,0.0
7260,48.0,0,30,12.0,0.0
7261,67.0,5,30,10.0,0.0
7262,60.0,6,30,11.0,0.0
7263,58.0,29,30,12.0,0.0
7264,48.0,0,30,12.0,0.0
7265,67.0,5,30,10.0,0.0
7266,60.0,6,30,11.0,0.0
7267,58.0,29,30,12.0,0.0
7268,48.0,0,30,12.0,0.0
7269,48.0,3,60,13.0,0.0
7270,36.0,3,60,14.0,0.0
7271,67.0,5,30,10.0,0.0
7272,60.0,0,30,11.0,0.0
7273,58.0,29,30,12.0,0.0
7274,48.0,0,30,12.0,0.0
7275,67.0,5,30,10.0,0.0
7276,60.0,6,30,11.0,0.0
7277,48.0,59,30,12.0,0.0
7278,58.0,0,30,12.0,0.0
7279,67.0,15,60,10.0,0.0
7280,89.0,0,120,0.0,0.0
7281,93.0,2,120,0.0,0.0
7282,81.0,0,120,1.0,0.0
7283,77.0,1,120,1.0,0.0
7284,60.0,0,120,11.0,0.0
7285,69.0,1,120,4.0,0.0
7286,81.0,0,120,2.0,0.0
7287,77.0,3,120,2.0,0.0
7288,48.0,0,120,12.0,0.0
7289,57.0,1,120,12.0,0.0
7290,65.0,7,120,5.0,0.0
7291,53.0,3,60,13.0,0.0
7292,57.0,0,120,3.0,0.0
7293,53.0,2,120,3.0,0.0
7294,41.0,42,60,14.0,0.0
7295,53.0,41,120,15.0,0.0
7296,69.0,2,60,10.0,0.0
7297,65.0,122,60,10.0,0.0
7298,77.0,0,60,0.0,0.0
7299,89.0,2,60,0.0,0.0
7300,72.0,0,90,6.0,0.0
7301,77.0,2,60,1.0,0.0
7302,60.0,1,90,6.0,0.0
7303,65.0,5,90,4.0,0.0
7304,77.0,11,60,2.0,0.0
7305,65.0,82,90,5.0,0.0
7306,65.0,17,60,3.0,0.0
7307,84.0,2,60,0.0,0.0
7308,72.0,2,60,1.0,0.0
7309,60.0,0,90,6.0,0.0
7310,72.0,1,90,6.0,0.0
7311,84.0,0,60,1.0,0.0
7312,72.0,5,90,4.0,0.0
7313,72.0,11,60,2.0,0.0
7314,60.0,82,90,5.0,0.0
7315,60.0,17,60,3.0,0.0
7316,84.0,2,60,0.0,0.0
7317,72.0,2,60,1.0,0.0
7318,60.0,0,90,6.0,0.0
7319,72.0,1,90,6.0,0.0
7320,84.0,0,60,1.0,0.0
7321,72.0,5,90,4.0,0.0
7322,72.0,3,60,2.0,0.0
7323,53.0,6,60,12.0,0.0
7324,60.0,39,90,5.0,0.0
7325,53.0,2,60,13.0,0.0
7326,60.0,1,60,3.0,0.0
7327,41.0,16,60,14.0,0.0
7328,53.0,43,120,15.0,0.0
7329,81.0,2,60,0.0,0.0
7330,69.0,2,60,1.0,0.0
7331,81.0,0,60,1.0,0.0
7332,72.0,0,90,6.0,0.0
7333,60.0,1,90,6.0,0.0
7334,69.0,5,90,4.0,0.0
7335,69.0,3,60,2.0,0.0
7336,57.0,6,60,12.0,0.0
7337,57.0,50,90,5.0,0.0
7338,57.0,2,60,13.0,0.0
7339,57.0,1,60,3.0,0.0
7340,45.0,16,60,14.0,0.0
7341,77.0,5,30,10.0,0.0
7342,81.0,2,60,0.0,0.0
7343,69.0,2,60,1.0,0.0
7344,81.0,0,60,1.0,0.0
7345,72.0,0,90,6.0,0.0
7346,60.0,1,90,6.0,0.0
7347,69.0,5,90,4.0,0.0
7348,65.0,27,30,11.0,0.0
7349,69.0,3,60,2.0,0.0
7350,57.0,1,60,12.0,0.0
7351,57.0,10,90,5.0,0.0
7352,57.0,2,60,13.0,0.0
7353,57.0,1,60,3.0,0.0
7354,45.0,16,60,14.0,0.0
7355,77.0,5,30,10.0,0.0
7356,65.0,0,30,11.0,0.0
7357,77.0,5,30,10.0,0.0
7358,65.0,35,30,11.0,0.0
7359,77.0,5,30,10.0,0.0
7360,77.0,2,60,0.0,0.0
7361,65.0,0,60,1.0,0.0
7362,72.0,0,90,6.0,0.0
7363,60.0,1,90,6.0,0.0
7364,77.0,2,60,1.0,0.0
7365,65.0,5,90,4.0,0.0
7366,65.0,27,30,11.0,0.0
7367,65.0,3,60,2.0,0.0
7368,60.0,1,60,12.0,0.0
7369,53.0,10,90,5.0,0.0
7370,60.0,2,60,13.0,0.0
7371,53.0,1,60,3.0,0.0
7372,48.0,16,60,14.0,0.0
7373,77.0,5,30,10.0,0.0
7374,65.0,0,30,11.0,0.0
7375,77.0,5,30,10.0,0.0
7376,65.0,65,30,11.0,0.0
7377,77.0,2,60,10.0,0.0
7378,72.0,2,60,0.0,0.0
7379,72.0,1,90,6.0,0.0
7380,60.0,1,60,1.0,0.0
7381,72.0,0,60,1.0,0.0
7382,60.0,0,90,6.0,0.0
7383,60.0,5,90,4.0,0.0
7384,65.0,1,60,11.0,0.0
7385,60.0,3,60,2.0,0.0
7386,60.0,6,60,12.0,0.0
7387,48.0,20,90,5.0,0.0
7388,60.0,2,60,13.0,0.0
7389,48.0,1,60,3.0,0.0
7390,48.0,16,60,14.0,0.0
7391,79.0,5,60,10.0,0.0
7392,67.0,55,60,11.0,0.0
7393,76.0,5,60,10.0,0.0
7394,64.0,117,60,11.0,0.0
7395,82.0,2,60,0.0,0.0
7396,72.0,0,90,6.0,0.0
7397,60.0,1,90,6.0,0.0
7398,82.0,2,60,1.0,0.0
7399,70.0,0,60,1.0,0.0
7400,60.0,5,90,4.0,0.0
7401,70.0,11,60,2.0,0.0
7402,48.0,82,90,5.0,0.0
7403,58.0,17,60,3.0,0.0
7404,79.0,0,60,0.0,0.0
7405,91.0,2,60,0.0,0.0
7406,79.0,0,60,1.0,0.0
7407,60.0,1,90,6.0,0.0
7408,67.0,2,60,1.0,0.0
7409,72.0,0,90,6.0,0.0
7410,60.0,5,90,4.0,0.0
7411,67.0,11,60,2.0,0.0
7412,48.0,82,90,5.0,0.0
7413,55.0,17,60,3.0,0.0
7414,79.0,2,60,0.0,0.0
7415,91.0,0,60,0.0,0.0
7416,79.0,2,60,1.0,0.0
7417,60.0,1,90,6.0,0.0
7418,67.0,0,60,1.0,0.0
7419,72.0,0,90,6.0,0.0
7420,60.0,5,90,4.0,0.0
7421,67.0,3,60,2.0,0.0
7422,48.0,6,60,12.0,0.0
7423,48.0,82,90,5.0,0.0
7424,48.0,2,60,13.0,0.0
7425,55.0,1,60,3.0,0.0
7426,36.0,16,60,14.0,0.0
7427,88.0,2,60,0.0,0.0
7428,76.0,0,60,0.0,0.0
7429,72.0,1,90,6.0,0.0
7430,64.0,0,60,1.0,0.0
7431,76.0,2,60,1.0,0.0
7432,60.0,0,90,6.0,0.0
7433,60.0,5,90,4.0,0.0
7434,64.0,3,60,2.0,0.0
7435,55.0,6,60,12.0,0.0
7436,48.0,50,90,5.0,0.0
7437,55.0,2,60,13.0,0.0
7438,52.0,1,60,3.0,0.0
7439,43.0,16,60,14.0,0.0
7440,79.0,5,30,10.0,0.0
7441,88.0,0,60,0.0,0.0
7442,76.0,2,60,0.0,0.0
7443,76.0,0,60,1.0,0.0
7444,64.0,2,60,1.0,0.0
7445,60.0,0,90,6.0,0.0
7446,72.0,1,90,6.0,0.0
7447,60.0,5,90,4.0,0.0
7448,67.0,27,30,11.0,0.0
7449,64.0,3,60,2.0,0.0
7450,55.0,1,60,12.0,0.0
7451,48.0,10,90,5.0,0.0
7452,55.0,2,60,13.0,0.0
7453,52.0,1,60,3.0,0.0
7454,43.0,16,60,14.0,0.0
7455,79.0,5,30,10.0,0.0
7456,67.0,0,30,11.0,0.0
7457,79.0,5,30,10.0,0.0
7458,67.0,35,30,11.0,0.0
7459,79.0,5,30,10.0,0.0
7460,84.0,0,60,0.0,0.0
7461,72.0,2,60,0.0,0.0
7462,60.0,0,90,6.0,0.0
7463,72.0,2,60,1.0,0.0
7464,60.0,0,60,1.0,0.0
7465,72.0,1,90,6.0,0.0
7466,67.0,27,30,11.0,0.0
7467,60.0,5,90,4.0,0.0
7468,60.0,3,60,2.0,0.0
7469,60.0,1,60,12.0,0.0
7470,48.0,10,90,5.0,0.0
7471,60.0,2,60,13.0,0.0
7472,48.0,1,60,3.0,0.0
7473,48.0,16,60,14.0,0.0
7474,79.0,5,30,10.0,0.0
7475,67.0,0,30,11.0,0.0
7476,79.0,5,30,10.0,0.0
7477,67.0,65,30,11.0,0.0
7478,79.0,2,60,10.0,0.0
7479,77.0,0,60,0.0,0.0
7480,89.0,2,60,0.0,0.0
7481,77.0,1,60,1.0,0.0
7482,69.0,1,90,6.0,0.0
7483,65.0,0,60,1.0,0.0
7484,77.0,0,90,6.0,0.0
7485,67.0,1,60,11.0,0.0
7486,65.0,5,90,4.0,0.0
7487,65.0,9,60,2.0,0.0
7488,53.0,10,120,12.0,0.0
7489,57.0,20,90,5.0,0.0
7490,53.0,2,60,13.0,0.0
7491,53.0,1,60,3.0,0.0
7492,41.0,16,60,14.0,0.0
7493,53.0,41,120,15.0,0.0
7494,81.0,5,60,10.0,0.0
7495,69.0,4,60,11.0,0.0
7496,77.0,5,60,10.0,0.0
7497,65.0,85,60,11.0,0.0
7498,65.0,5,30,10.0,0.0
7499,57.0,6,30,11.0,0.0
7500,60.0,29,30,12.0,0.0
7501,65.0,3,60,13.0,0.0
7502,53.0,3,60,14.0,0.0
7503,65.0,5,30,10.0,0.0
7504,57.0,0,30,11.0,0.0
7505,60.0,29,30,12.0,0.0
7506,65.0,5,30,10.0,0.0
7507,57.0,6,30,11.0,0.0
7508,60.0,29,30,12.0,0.0
7509,65.0,5,30,10.0,0.0
7510,57.0,6,30,11.0,0.0
7511,60.0,29,30,12.0,0.0
7512,60.0,0,60,13.0,0.0
7513,48.0,3,60,14.0,0.0
7514,65.0,5,30,10.0,0.0
7515,57.0,3,30,11.0,0.0
7516,60.0,29,30,12.0,0.0
7517,65.0,5,30,10.0,0.0
7518,57.0,6,30,11.0,0.0
7519,60.0,74,30,12.0,0.0
7520,65.0,2,120,10.0,0.0
7521,84.0,2,120,0.0,0.0
7522,89.0,0,120,0.0,0.0
7523,65.0,1,120,6.0,0.0
7524,69.0,0,120,1.0,0.0
7525,77.0,0,120,1.0,0.0
7526,57.0,1,120,11.0,0.0
7527,65.0,0,120,4.0,0.0
7528,77.0,3,120,2.0,0.0
7529,69.0,0,120,2.0,0.0
7530,60.0,1,120,12.0,0.0
7531,57.0,7,120,5.0,0.0
7532,60.0,3,60,13.0,0.0
7533,53.0,2,120,3.0,0.0
7534,48.0,42,60,14.0,0.0
7535,41.0,56,120,15.0,0.0
7536,57.0,3,60,13.0,0.0
7537,45.0,72,60,14.0,0.0
7538,65.0,5,30,10.0,0.0
7539,57.0,6,30,11.0,0.0
7540,60.0,29,30,12.0,0.0
7541,57.0,3,60,13.0,0.0
7542,45.0,3,60,14.0,0.0
7543,65.0,5,30,10.0,0.0
7544,57.0,0,30,11.0,0.0
7545,60.0,29,30,12.0,0.0
7546,65.0,5,30,10.0,0.0
7547,57.0,6,30,11.0,0.0
7548,60.0,29,30,12.0,0.0
7549,65.0,5,30,10.0,0.0
7550,56.0,6,30,11.0,0.0
7551,59.0,29,30,12.0,0.0
7552,53.0,0,60,13.0,0.0
7553,41.0,3,60,14.0,0.0
7554,65.0,5,30,10.0,0.0
7555,56.0,3,30,11.0,0.0
7556,59.0,29,30,12.0,0.0
7557,65.0,5,30,10.0,0.0
7558,56.0,6,30,11.0,0.0
7559,59.0,59,30,12.0,0.0
7560,65.0,15,60,10.0,0.0
7561,91.0,2,120,0.0,0.0
7562,88.0,0,120,0.0,0.0
7563,79.0,0,120,1.0,0.0
7564,72.0,0,120,6.0,0.0
7565,60.0,0,120,6.0,0.0
7566,76.0,1,120,1.0,0.0
7567,55.0,0,120,11.0,0.0
7568,67.0,1,120,4.0,0.0
7569,79.0,3,120,2.0,0.0
7570,76.0,0,120,2.0,0.0
7571,58.0,1,120,12.0,0.0
7572,60.0,7,120,5.0,0.0
7573,48.0,3,60,13.0,0.0
7574,52.0,43,120,3.0,0.0
7575,55.0,0,120,3.0,0.0
7576,36.0,42,60,14.0,0.0
7577,67.0,2,60,10.0,0.0
7578,64.0,90,60,10.0,0.0
7579,67.0,5,30,10.0,0.0
7580,61.0,4,30,11.0,0.0
7581,58.0,31,30,12.0,0.0
7582,58.0,0,60,13.0,0.0
7583,46.0,1,60,14.0,0.0
7584,67.0,5,30,10.0,0.0
7585,61.0,3,30,11.0,0.0
7586,58.0,31,30,12.0,0.0
7587,67.0,5,30,10.0,0.0
7588,61.0,4,30,11.0,0.0
7589,58.0,31,30,12.0,0.0
7590,67.0,5,30,10.0,0.0
7591,61.0,4,30,11.0,0.0
7592,58.0,31,30,12.0,0.0
7593,55.0,0,60,13.0,0.0
7594,43.0,1,60,14.0,0.0
7595,67.0,5,30,10.0,0.0
7596,61.0,3,30,11.0,0.0
7597,58.0,31,30,12.0,0.0
7598,67.0,5,30,10.0,0.0
7599,61.0,4,30,11.0,0.0
7600,58.0,76,30,12.0,0.0
7601,67.0,2,120,10.0,0.0
7602,88.0,2,120,0.0,0.0
7603,91.0,0,120,0.0,0.0
7604,60.0,1,120,6.0,0.0
7605,76.0,0,120,1.0,0.0
7606,72.0,0,120,6.0,0.0
7607,79.0,0,120,1.0,0.0
7608,67.0,1,120,4.0,0.0
7609,60.0,0,120,11.0,0.0
7610,79.0,3,120,2.0,0.0
7611,76.0,0,120,2.0,0.0
7612,58.0,1,120,12.0,0.0
7613,60.0,7,120,5.0,0.0
7614,55.0,3,60,13.0,0.0
7615,52.0,0,120,3.0,0.0
7616,55.0,58,120,3.0,0.0
7617,43.0,42,60,14.0,0.0
7618,52.0,3,60,13.0,0.0
7619,40.0,72,60,14.0,0.0
7620,67.0,5,30,10.0,0.0
7621,60.0,4,30,11.0,0.0
7622,58.0,31,30,12.0,0.0
7623,52.0,3,60,13.0,0.0
7624,40.0,1,60,14.0,0.0
7625,67.0,5,30,10.0,0.0
7626,60.0,0,30,11.0,0.0
7627,58.0,31,30,12.0,0.0
7628,67.0,5,30,10.0,0.0
7629,60.0,4,30,11.0,0.0
7630,58.0,31,30,12.0,0.0
7631,67.0,5,30,10.0,0.0
7632,60.0,4,30,11.0,0.0
7633,58.0,31,30,12.0,0.0
7634,48.0,3,60,13.0,0.0
7635,36.0,1,60,14.0,0.0
7636,67.0,5,30,10.0,0.0
7637,60.0,0,30,11.0,0.0
7638,58.0,31,30,12.0,0.0
7639,67.0,5,30,10.0,0.0
7640,60.0,4,30,11.0,0.0
7641,58.0,61,30,12.0,0.0
7642,67.0,15,60,10.0,0.0
7643,93.0,2,120,0.0,0.0
7644,89.0,0,120,0.0,0.0
7645,81.0,0,120,1.0,0.0
7646,77.0,0,120,1.0,0.0
7647,65.0,1,120,6.0,0.0
7648,60.0,0,120,11.0,0.0
7649,69.0,1,120,4.0,0.0
7650,77.0,3,120,2.0,0.0
7651,81.0,0,120,2.0,0.0
7652,57.0,1,120,12.0,0.0
7653,65.0,7,120,5.0,0.0
7654,53.0,3,60,13.0,0.0
7655,57.0,0,120,3.0,0.0
7656,53.0,2,120,3.0,0.0
7657,41.0,42,60,14.0,0.0
7658,41.0,41,120,15.0,0.0
7659,69.0,2,60,10.0,0.0
7660,65.0,122,60,10.0,0.0
7661,89.0,2,60,0.0,0.0
7662,72.0,0,90,6.0,0.0
7663,60.0,1,90,6.0,0.0
7664,77.0,2,60,1.0,0.0
7665,60.0,5,90,4.0,0.0
7666,77.0,11,60,2.0,0.0
7667,48.0,82,90,5.0,0.0
7668,65.0,17,60,3.0,0.0
7669,84.0,2,60,0.0,0.0
7670,60.0,1,90,6.0,0.0
7671,72.0,0,90,6.0,0.0
7672,84.0,0,60,1.0,0.0
7673,72.0,2,60,1.0,0.0
7674,60.0,5,90,4.0,0.0
7675,72.0,11,60,2.0,0.0
7676,48.0,82,90,5.0,0.0
7677,60.0,17,60,3.0,0.0
7678,84.0,2,60,0.0,0.0
7679,72.0,1,90,6.0,0.0
7680,84.0,0,60,1.0,0.0
7681,72.0,2,60,1.0,0.0
7682,60.0,0,90,6.0,0.0
7683,60.0,5,90,4.0,0.0
7684,72.0,3,60,2.0,0.0
7685,53.0,6,60,12.0,0.0
7686,48.0,39,90,5.0,0.0
7687,53.0,2,60,13.0,0.0
7688,60.0,1,60,3.0,0.0
7689,41.0,16,60,14.0,0.0
7690,53.0,43,120,15.0,0.0
7691,81.0,2,60,0.0,0.0
7692,81.0,2,60,1.0,0.0
7693,69.0,0,60,1.0,0.0
7694,60.0,1,90,6.0,0.0
7695,72.0,0,90,6.0,0.0
7696,60.0,5,90,4.0,0.0
7697,69.0,3,60,2.0,0.0
7698,57.0,6,60,12.0,0.0
7699,48.0,50,90,5.0,0.0
7700,57.0,2,60,13.0,0.0
7701,57.0,1,60,3.0,0.0
7702,45.0,16,60,14.0,0.0
7703,77.0,5,30,10.0,0.0
7704,81.0,2,60,0.0,0.0
7705,81.0,2,60,1.0,0.0
7706,60.0,1,90,6.0,0.0
7707,72.0,0,90,6.0,0.0
7708,69.0,0,60,1.0,0.0
7709,60.0,5,90,4.0,0.0
7710,65.0,27,30,11.0,0.0
7711,69.0,3,60,2.0,0.0
7712,57.0,1,60,12.0,0.0
7713,48.0,10,90,5.0,0.0
7714,57.0,0,60,13.0,0.0
7715,57.0,1,60,3.0,0.0
7716,45.0,16,60,14.0,0.0
7717,77.0,5,30,10.0,0.0
7718,65.0,2,30,11.0,0.0
7719,77.0,5,30,10.0,0.0
7720,65.0,35,30,11.0,0.0
7721,77.0,5,30,10.0,0.0
7722,81.0,2,60,0.0,0.0
7723,60.0,0,90,6.0,0.0
7724,72.0,1,90,6.0,0.0
7725,81.0,2,60,1.0,0.0
7726,65.0,27,30,11.0,0.0
7727,60.0,5,90,4.0,0.0
7728,69.0,3,60,2.0,0.0
7729,60.0,1,60,12.0,0.0
7730,48.0,10,90,5.0,0.0
7731,60.0,0,60,13.0,0.0
7732,57.0,1,60,3.0,0.0
7733,48.0,16,60,14.0,0.0
7734,77.0,5,30,10.0,0.0
7735,65.0,2,30,11.0,0.0
7736,77.0,5,30,10.0,0.0
7737,65.0,65,30,11.0,0.0
7738,79.0,2,60,10.0,0.0
7739,84.0,2,60,0.0,0.0
7740,81.0,0,60,0.0,0.0
7741,72.0,1,90,6.0,0.0
7742,60.0,0,90,6.0,0.0
7743,81.0,1,60,1.0,0.0
7744,84.0,0,60,1.0,0.0
7745,67.0,1,60,11.0,0.0
7746,60.0,5,90,4.0,0.0
7747,69.0,3,60,2.0,0.0
7748,72.0,0,60,2.0,0.0
7749,50.0,6,60,12.0,0.0
7750,48.0,20,90,5.0,0.0
7751,50.0,2,60,13.0,0.0
7752,57.0,0,60,3.0,0.0
7753,60.0,1,60,3.0,0.0
7754,38.0,16,60,14.0,0.0
7755,81.0,5,60,10.0,0.0
7756,69.0,55,60,11.0,0.0
7757,78.0,5,60,10.0,0.0
7758,66.0,117,60,11.0,0.0
7759,84.0,2,60,0.0,0.0
7760,84.0,2,60,1.0,0.0
7761,72.0,0,60,1.0,0.0
7762,72.0,11,60,2.0,0.0
7763,60.0,105,60,3.0,0.0
7764,93.0,0,60,0.0,0.0
7765,81.0,2,60,0.0,0.0
7766,81.0,2,60,1.0,0.0
7767,69.0,0,60,1.0,0.0
7768,69.0,11,60,2.0,0.0
7769,57.0,105,60,3.0,0.0
7770,81.0,0,60,0.0,0.0
7771,93.0,2,60,0.0,0.0
7772,69.0,2,60,1.0,0.0
7773,81.0,0,60,1.0,0.0
7774,69.0,3,60,2.0,0.0
7775,50.0,6,60,12.0,0.0
7776,50.0,2,60,13.0,0.0
7777,57.0,1,60,3.0,0.0
7778,38.0,104,60,14.0,0.0
7779,78.0,2,60,0.0,0.0
7780,90.0,0,60,0.0,0.0
7781,78.0,0,60,1.0,0.0
7782,66.0,2,60,1.0,0.0
7783,66.0,3,60,2.0,0.0
7784,57.0,6,60,12.0,0.0
7785,57.0,2,60,13.0,0.0
7786,54.0,1,60,3.0,0.0
7787,45.0,72,60,14.0,0.0
7788,81.0,5,30,10.0,0.0
7789,78.0,0,60,0.0,0.0
7790,90.0,2,60,0.0,0.0
7791,66.0,2,60,1.0,0.0
7792,78.0,0,60,1.0,0.0
7793,69.0,27,30,11.0,0.0
7794,66.0,3,60,2.0,0.0
7795,57.0,1,60,12.0,0.0
7796,57.0,0,60,13.0,0.0
7797,54.0,1,60,3.0,0.0
7798,45.0,32,60,14.0,0.0
7799,81.0,5,30,10.0,0.0
7800,69.0,2,30,11.0,0.0
7801,81.0,5,30,10.0,0.0
7802,69.0,35,30,11.0,0.0
7803,81.0,5,30,10.0,0.0
7804,86.0,2,60,0.0,0.0
7805,74.0,0,60,0.0,0.0
7806,62.0,2,60,1.0,0.0
7807,74.0,0,60,1.0,0.0
7808,69.0,27,30,11.0,0.0
7809,62.0,3,60,2.0,0.0
7810,62.0,1,60,12.0,0.0
7811,62.0,2,60,13.0,0.0
7812,50.0,1,60,3.0,0.0
7813,50.0,32,60,14.0,0.0
7814,81.0,5,30,10.0,0.0
7815,69.0,0,30,11.0,0.0
7816,81.0,5,30,10.0,0.0
7817,69.0,65,30,11.0,0.0
7818,81.0,2,60,10.0,0.0
7819,79.0,2,60,0.0,0.0
7820,91.0,0,60,0.0,0.0
7821,79.0,1,60,1.0,0.0
7822,79.0,1,90,6.0,0.0
7823,67.0,0,60,1.0,0.0
7824,67.0,5,90,4.0,0.0
7825,69.0,1,60,11.0,0.0
7826,67.0,3,60,2.0,0.0
7827,55.0,6,60,12.0,0.0
7828,67.0,20,90,5.0,0.0
7829,55.0,2,60,13.0,0.0
7830,55.0,1,60,3.0,0.0
7831,43.0,16,60,14.0,0.0
7832,82.0,5,60,10.0,0.0
7833,70.0,55,60,11.0,0.0
7834,79.0,5,60,10.0,0.0
7835,67.0,85,60,11.0,0.0
7836,67.0,5,30,10.0,0.0
7837,62.0,0,30,11.0,0.0
7838,58.0,6,30,11.0,0.0
7839,55.0,29,30,12.0,0.0
7840,67.0,3,60,13.0,0.0
7841,55.0,3,60,14.0,0.0
7842,67.0,5,30,10.0,0.0
7843,62.0,0,30,11.0,0.0
7844,58.0,0,30,11.0,0.0
7845,55.0,29,30,12.0,0.0
7846,67.0,5,30,10.0,0.0
7847,62.0,6,30,11.0,0.0
7848,58.0,0,30,11.0,0.0
7849,55.0,29,30,12.0,0.0
7850,67.0,5,30,10.0,0.0
7851,62.0,6,30,11.0,0.0
7852,58.0,0,30,11.0,0.0
7853,55.0,29,30,12.0,0.0
7854,62.0,3,60,13.0,0.0
7855,50.0,3,60,14.0,0.0
7856,67.0,5,30,10.0,0.0
7857,58.0,0,30,11.0,0.0
7858,62.0,0,30,11.0,0.0
7859,55.0,29,30,12.0,0.0
7860,67.0,5,30,10.0,0.0
7861,62.0,6,30,11.0,0.0
7862,58.0,0,30,11.0,0.0
7863,55.0,74,30,12.0,0.0
7864,67.0,2,120,10.0,0.0
7865,82.0,0,120,0.0,0.0
7866,91.0,2,120,0.0,0.0
7867,79.0,0,120,6.0,0.0
7868,82.0,1,120,1.0,0.0
7869,79.0,0,120,1.0,0.0
7870,58.0,0,120,11.0,0.0
7871,67.0,0,120,4.0,0.0
7872,62.0,1,120,11.0,0.0
7873,67.0,3,120,2.0,0.0
7874,70.0,0,120,2.0,0.0
7875,55.0,1,120,12.0,0.0
7876,67.0,7,120,5.0,0.0
7877,62.0,3,60,13.0,0.0
7878,55.0,0,120,3.0,0.0
7879,58.0,58,120,3.0,0.0
7880,50.0,42,60,14.0,0.0
7881,58.0,3,60,13.0,0.0
7882,46.0,72,60,14.0,0.0
7883,67.0,5,30,10.0,0.0
7884,58.0,0,30,11.0,0.0
7885,62.0,6,30,11.0,0.0
7886,55.0,29,30,12.0,0.0
7887,58.0,3,60,13.0,0.0
7888,46.0,3,60,14.0,0.0
7889,67.0,5,30,10.0,0.0
7890,58.0,0,30,11.0,0.0
7891,62.0,0,30,11.0,0.0
7892,55.0,29,30,12.0,0.0
7893,67.0,5,30,10.0,0.0
7894,62.0,6,30,11.0,0.0
7895,58.0,0,30,11.0,0.0
7896,55.0,29,30,12.0,0.0
7897,67.0,5,30,10.0,0.0
7898,58.0,6,30,11.0,0.0
7899,62.0,0,30,11.0,0.0
7900,55.0,29,30,12.0,0.0
7901,55.0,0,60,13.0,0.0
7902,43.0,3,60,14.0,0.0
7903,67.0,5,30,10.0,0.0
7904,62.0,0,30,11.0,0.0
7905,58.0,3,30,11.0,0.0
7906,55.0,29,30,12.0,0.0
7907,67.0,5,30,10.0,0.0
7908,58.0,6,30,11.0,0.0
7909,62.0,0,30,11.0,0.0
7910,55.0,74,30,12.0,0.0
7911,69.0,2,120,10.0,0.0
7912,93.0,2,120,0.0,0.0
7913,84.0,0,120,0.0,0.0
7914,77.0,1,120,6.0,0.0
7915,84.0,0,120,1.0,0.0
7916,81.0,0,120,1.0,0.0
7917,81.0,0,120,6.0,0.0
7918,60.0,0,120,11.0,0.0
7919,63.0,1,120,11.0,0.0
7920,69.0,0,120,4.0,0.0
7921,72.0,0,120,2.0,0.0
7922,69.0,3,120,2.0,0.0
7923,53.0,1,120,12.0,0.0
7924,65.0,7,120,5.0,0.0
7925,53.0,3,60,13.0,0.0
7926,60.0,133,120,3.0,0.0
7927,53.0,0,120,3.0,0.0
7928,41.0,42,60,14.0,0.0
7929,69.0,5,30,10.0,0.0
7930,60.0,0,30,11.0,0.0
7931,63.0,6,30,11.0,0.0
7932,66.0,29,30,12.0,0.0
7933,63.0,0,60,13.0,0.0
7934,51.0,3,60,14.0,0.0
7935,69.0,5,30,10.0,0.0
7936,63.0,0,30,11.0,0.0
7937,60.0,3,30,11.0,0.0
7938,66.0,29,30,12.0,0.0
7939,69.0,5,30,10.0,0.0
7940,60.0,6,30,11.0,0.0
7941,63.0,0,30,11.0,0.0
7942,66.0,29,30,12.0,0.0
7943,69.0,5,30,10.0,0.0
7944,60.0,6,30,11.0,0.0
7945,63.0,0,30,11.0,0.0
7946,66.0,29,30,12.0,0.0
7947,60.0,0,60,13.0,0.0
7948,48.0,3,60,14.0,0.0
7949,69.0,5,30,10.0,0.0
7950,63.0,0,30,11.0,0.0
7951,60.0,3,30,11.0,0.0
7952,66.0,29,30,12.0,0.0
7953,69.0,5,30,10.0,0.0
7954,63.0,0,30,11.0,0.0
7955,60.0,6,30,11.0,0.0
7956,66.0,74,30,12.0,0.0
7957,69.0,2,120,10.0,0.0
7958,89.0,2,120,0.0,0.0
7959,84.0,0,120,0.0,0.0
7960,84.0,0,120,1.0,0.0
7961,81.0,1,120,1.0,0.0
7962,77.0,0,120,6.0,0.0
7963,65.0,0,120,6.0,0.0
7964,60.0,0,120,11.0,0.0
7965,63.0,0,120,11.0,0.0
7966,65.0,1,120,4.0,0.0
7967,72.0,3,120,2.0,0.0
7968,69.0,0,120,2.0,0.0
7969,65.0,1,120,12.0,0.0
7970,53.0,7,120,5.0,0.0
7971,60.0,3,60,13.0,0.0
7972,57.0,58,120,3.0,0.0
7973,60.0,0,120,3.0,0.0
7974,48.0,42,60,14.0,0.0
7975,57.0,3,60,13.0,0.0
7976,45.0,72,60,14.0,0.0
7977,72.0,5,30,10.0,0.0
7978,63.0,6,30,11.0,0.0
7979,65.0,29,30,12.0,0.0
7980,57.0,3,60,13.0,0.0
7981,45.0,3,60,14.0,0.0
7982,72.0,5,30,10.0,0.0
7983,63.0,0,30,11.0,0.0
7984,65.0,29,30,12.0,0.0
7985,72.0,5,30,10.0,0.0
7986,63.0,6,30,11.0,0.0
7987,65.0,29,30,12.0,0.0
7988,72.0,5,30,10.0,0.0
7989,63.0,6,30,11.0,0.0
7990,65.0,29,30,12.0,0.0
7991,53.0,0,60,13.0,0.0
7992,41.0,3,60,14.0,0.0
7993,72.0,5,30,10.0,0.0
7994,63.0,3,30,11.0,0.0
7995,65.0,29,30,12.0,0.0
7996,72.0,5,30,10.0,0.0
7997,63.0,6,30,11.0,0.0
7998,65.0,59,30,12.0,0.0
7999,72.0,5,60,10.0,0.0
8000,89.0,0,120,0.0,0.0
8001,86.0,2,120,0.0,0.0
8002,65.0,0,90,6.0,0.0
8003,82.0,0,120,1.0,0.0
8004,86.0,1,120,1.0,0.0
8005,77.0,1,90,6.0,0.0
8006,65.0,5,90,4.0,0.0
8007,63.0,10,60,11.0,0.0
8008,70.0,3,120,2.0,0.0
8009,74.0,0,120,2.0,0.0
8010,65.0,8,120,12.0,0.0
8011,53.0,20,90,5.0,0.0
8012,58.0,3,60,13.0,0.0
8013,62.0,43,120,3.0,0.0
8014,58.0,0,120,3.0,0.0
8015,46.0,16,60,14.0,0.0
8016,74.0,2,60,10.0,0.0
8017,65.0,1,60,11.0,0.0
8018,70.0,5,60,10.0,0.0
8019,62.0,117,60,11.0,0.0
8020,82.0,2,60,0.0,0.0
8021,82.0,2,60,1.0,0.0
8022,65.0,0,90,6.0,0.0
8023,77.0,1,90,6.0,0.0
8024,65.0,5,90,4.0,0.0
8025,70.0,11,60,2.0,0.0
8026,82.0,0,60,2.0,0.0
8027,53.0,82,90,5.0,0.0
8028,58.0,17,60,3.0,0.0
8029,77.0,0,60,0.0,0.0
8030,89.0,2,60,0.0,0.0
8031,77.0,1,90,6.0,0.0
8032,77.0,2,60,1.0,0.0
8033,65.0,0,90,6.0,0.0
8034,65.0,5,90,4.0,0.0
8035,65.0,11,60,2.0,0.0
8036,77.0,0,60,2.0,0.0
8037,53.0,82,90,5.0,0.0
8038,65.0,17,60,3.0,0.0
8039,53.0,0,60,3.0,0.0
8040,89.0,0,60,0.0,0.0
8041,77.0,2,60,0.0,0.0
8042,77.0,2,60,1.0,0.0
8043,65.0,1,90,6.0,0.0
8044,77.0,0,90,6.0,0.0
8045,65.0,5,90,4.0,0.0
8046,77.0,0,60,2.0,0.0
8047,65.0,3,60,2.0,0.0
8048,58.0,6,60,12.0,0.0
8049,53.0,82,90,5.0,0.0
8050,58.0,2,60,13.0,0.0
8051,65.0,1,60,3.0,0.0
8052,53.0,0,60,3.0,0.0
8053,46.0,16,60,14.0,0.0
8054,86.0,2,60,0.0,0.0
8055,74.0,0,60,0.0,0.0
8056,65.0,0,90,6.0,0.0
8057,77.0,1,90,6.0,0.0
8058,74.0,2,60,1.0,0.0
8059,65.0,5,90,4.0,0.0
8060,62.0,0,60,2.0,0.0
8061,74.0,3,60,2.0,0.0
8062,62.0,6,60,12.0,0.0
8063,53.0,50,90,5.0,0.0
8064,62.0,2,60,13.0,0.0
8065,50.0,1,60,3.0,0.0
8066,62.0,0,60,3.0,0.0
8067,50.0,16,60,14.0,0.0
8068,82.0,5,30,10.0,0.0
8069,74.0,2,60,0.0,0.0
8070,86.0,0,60,0.0,0.0
8071,65.0,0,90,6.0,0.0
8072,77.0,1,90,6.0,0.0
8073,74.0,2,60,1.0,0.0
8074,86.0,0,60,1.0,0.0
8075,65.0,5,90,4.0,0.0
8076,70.0,27,30,11.0,0.0
8077,74.0,3,60,2.0,0.0
8078,62.0,0,60,2.0,0.0
8079,62.0,1,60,12.0,0.0
8080,53.0,10,90,5.0,0.0
8081,62.0,2,60,13.0,0.0
8082,62.0,1,60,3.0,0.0
8083,50.0,0,60,3.0,0.0
8084,50.0,16,60,14.0,0.0
8085,82.0,5,30,10.0,0.0
8086,70.0,0,30,11.0,0.0
8087,82.0,5,30,10.0,0.0
8088,70.0,35,30,11.0,0.0
8089,82.0,5,30,10.0,0.0
8090,82.0,2,60,0.0,0.0
8091,70.0,0,60,0.0,0.0
8092,82.0,2,60,1.0,0.0
8093,70.0,0,60,1.0,0.0
8094,65.0,1,90,6.0,0.0
8095,77.0,0,90,6.0,0.0
8096,65.0,5,90,4.0,0.0
8097,70.0,27,30,11.0,0.0
8098,70.0,3,60,2.0,0.0
8099,58.0,0,60,2.0,0.0
8100,65.0,1,60,12.0,0.0
8101,53.0,10,90,5.0,0.0
8102,65.0,2,60,13.0,0.0
8103,58.0,0,60,3.0,0.0
8104,46.0,1,60,3.0,0.0
8105,53.0,16,60,14.0,0.0
8106,82.0,5,30,10.0,0.0
8107,70.0,0,30,11.0,0.0
8108,82.0,5,30,10.0,0.0
8109,70.0,65,30,11.0,0.0
8110,82.0,2,60,10.0,0.0
8111,77.0,2,60,0.0,0.0
8112,77.0,0,60,1.0,0.0
8113,77.0,0,90,6.0,0.0
8114,65.0,1,90,6.0,0.0
8115,65.0,1,60,1.0,0.0
8116,65.0,5,90,4.0,0.0
8117,70.0,1,60,11.0,0.0
8118,53.0,3,60,2.0,0.0
8119,65.0,0,60,2.0,0.0
8120,65.0,6,60,12.0,0.0
8121,53.0,20,90,5.0,0.0
8122,65.0,2,60,13.0,0.0
8123,41.0,1,60,3.0,0.0
8124,53.0,16,60,14.0,0.0
8125,41.0,41,120,15.0,0.0
8126,84.0,5,60,10.0,0.0
8127,72.0,14,60,11.0,0.0
8128,81.0,5,60,10.0,0.0
8129,69.0,117,60,11.0,0.0
8130,87.0,2,60,0.0,0.0
8131,77.0,1,90,6.0,0.0
8132,75.0,2,60,1.0,0.0
8133,65.0,0,90,6.0,0.0
8134,87.0,0,60,1.0,0.0
8135,65.0,5,90,4.0,0.0
8136,75.0,11,60,2.0,0.0
8137,53.0,82,90,5.0,0.0
8138,63.0,17,60,3.0,0.0
8139,84.0,2,60,0.0,0.0
8140,72.0,2,60,1.0,0.0
8141,65.0,1,90,6.0,0.0
8142,84.0,0,60,1.0,0.0
8143,77.0,0,90,6.0,0.0
8144,65.0,5,90,4.0,0.0
8145,72.0,11,60,2.0,0.0
8146,53.0,82,90,5.0,0.0
8147,60.0,17,60,3.0,0.0
8148,84.0,2,60,0.0,0.0
8149,65.0,0,90,6.0,0.0
8150,77.0,1,90,6.0,0.0
8151,84.0,2,60,1.0,0.0
8152,72.0,0,60,1.0,0.0
8153,65.0,5,90,4.0,0.0
8154,72.0,3,60,2.0,0.0
8155,53.0,6,60,12.0,0.0
8156,53.0,82,90,5.0,0.0
8157,53.0,2,60,13.0,0.0
8158,60.0,1,60,3.0,0.0
8159,41.0,16,60,14.0,0.0
8160,81.0,2,60,0.0,0.0
8161,65.0,0,90,6.0,0.0
8162,77.0,1,90,6.0,0.0
8163,81.0,0,60,1.0,0.0
8164,69.0,2,60,1.0,0.0
8165,65.0,5,90,4.0,0.0
8166,69.0,3,60,2.0,0.0
8167,60.0,6,60,12.0,0.0
8168,53.0,50,90,5.0,0.0
8169,60.0,2,60,13.0,0.0
8170,57.0,1,60,3.0,0.0
8171,48.0,16,60,14.0,0.0
8172,84.0,5,30,10.0,0.0
8173,81.0,2,60,0.0,0.0
8174,77.0,1,90,6.0,0.0
8175,65.0,0,90,6.0,0.0
8176,69.0,2,60,1.0,0.0
8177,81.0,0,60,1.0,0.0
8178,72.0,27,30,11.0,0.0
8179,65.0,5,90,4.0,0.0
8180,69.0,3,60,2.0,0.0
8181,60.0,1,60,12.0,0.0
8182,53.0,10,90,5.0,0.0
8183,60.0,0,60,13.0,0.0
8184,57.0,1,60,3.0,0.0
8185,48.0,16,60,14.0,0.0
8186,84.0,5,30,10.0,0.0
8187,72.0,2,30,11.0,0.0
8188,84.0,5,30,10.0,0.0
8189,72.0,35,30,11.0,0.0
8190,84.0,5,30,10.0,0.0
8191,77.0,2,60,0.0,0.0
8192,77.0,1,90,6.0,0.0
8193,65.0,0,90,6.0,0.0
8194,77.0,0,60,1.0,0.0
8195,65.0,2,60,1.0,0.0
8196,65.0,5,90,4.0,0.0
8197,72.0,27,30,11.0,0.0
8198,65.0,3,60,2.0,0.0
8199,65.0,1,60,12.0,0.0
8200,53.0,10,90,5.0,0.0
8201,65.0,2,60,13.0,0.0
8202,53.0,1,60,3.0,0.0
8203,53.0,16,60,14.0,0.0
8204,84.0,5,30,10.0,0.0
8205,72.0,0,30,11.0,0.0
8206,84.0,5,30,10.0,0.0
8207,72.0,65,30,11.0,0.0
8208,84.0,2,60,10.0,0.0
8209,82.0,2,60,0.0,0.0
8210,70.0,1,60,1.0,0.0
8211,82.0,0,60,1.0,0.0
8212,77.0,0,90,6.0,0.0
8213,65.0,1,90,6.0,0.0
8214,72.0,1,60,11.0,0.0
8215,65.0,5,90,4.0,0.0
8216,70.0,3,60,2.0,0.0
8217,58.0,6,60,12.0,0.0
8218,53.0,20,90,5.0,0.0
8219,58.0,2,60,13.0,0.0
8220,58.0,1,60,3.0,0.0
8221,46.0,16,60,14.0,0.0
8222,53.0,41,120,15.0,0.0
8223,86.0,5,60,10.0,0.0
8224,74.0,14,60,11.0,0.0
8225,82.0,5,60,10.0,0.0
8226,70.0,115,60,11.0,0.0
8227,74.0,5,60,10.0,0.0
8228,70.0,4,60,11.0,0.0
8229,50.0,6,60,12.0,0.0
8230,46.0,3,60,13.0,0.0
8231,34.0,102,60,14.0,0.0
8232,70.0,5,60,10.0,0.0
8233,65.0,4,60,11.0,0.0
8234,53.0,6,60,12.0,0.0
8235,50.0,3,60,13.0,0.0
8236,38.0,102,60,14.0,0.0
8237,70.0,5,60,10.0,0.0
8238,65.0,4,60,11.0,0.0
8239,53.0,6,60,12.0,0.0
8240,50.0,3,60,13.0,0.0
8241,38.0,102,60,14.0,0.0
8242,65.0,5,60,10.0,0.0
8243,62.0,4,60,11.0,0.0
8244,58.0,6,60,12.0,0.0
8245,53.0,3,60,13.0,0.0
8246,41.0,104,60,14.0,0.0
8247,77.0,0,60,0.0,0.0
8248,74.0,2,60,0.0,0.0
8249,74.0,0,60,1.0,0.0
8250,77.0,2,60,1.0,0.0
8251,65.0,0,60,2.0,0.0
8252,62.0,11,60,2.0,0.0
8253,53.0,0,60,3.0,0.0
8254,50.0,105,60,3.0,0.0
8255,77.0,0,60,0.0,0.0
8256,82.0,2,60,0.0,0.0
8257,77.0,2,60,1.0,0.0
8258,82.0,0,60,1.0,0.0
8259,65.0,11,60,2.0,0.0
8260,70.0,0,60,2.0,0.0
8261,58.0,105,60,3.0,0.0
8262,53.0,0,60,3.0,0.0
8263,77.0,2,60,0.0,0.0
8264,82.0,0,60,0.0,0.0
8265,82.0,0,60,1.0,0.0
8266,77.0,2,60,1.0,0.0
8267,65.0,11,60,2.0,0.0
8268,70.0,0,60,2.0,0.0
8269,58.0,0,60,3.0,0.0
8270,53.0,105,60,3.0,0.0
8271,82.0,0,60,0.0,0.0
8272,86.0,2,60,0.0,0.0
8273,82.0,2,60,1.0,0.0
8274,86.0,0,60,1.0,0.0
8275,74.0,0,60,2.0,0.0
8276,70.0,11,60,2.0,0.0
8277,62.0,0,60,3.0,0.0
8278,58.0,103,60,3.0,0.0
8279,74.0,5,60,10.0,0.0
8280,70.0,4,60,11.0,0.0
8281,50.0,6,60,12.0,0.0
8282,46.0,3,60,13.0,0.0
8283,34.0,102,60,14.0,0.0
8284,70.0,5,60,10.0,0.0
8285,65.0,4,60,11.0,0.0
8286,53.0,6,60,12.0,0.0
8287,50.0,3,60,13.0,0.0
8288,38.0,102,60,14.0,0.0
8289,70.0,5,60,10.0,0.0
8290,65.0,4,60,11.0,0.0
8291,53.0,6,60,12.0,0.0
8292,50.0,3,60,13.0,0.0
8293,38.0,102,60,14.0,0.0
8294,65.0,5,60,10.0,0.0
8295,62.0,4,60,11.0,0.0
8296,58.0,6,60,12.0,0.0
8297,53.0,3,60,13.0,0.0
8298,41.0,104,60,14.0,0.0
8299,77.0,0,60,0.0,0.0
8300,74.0,2,60,0.0,0.0
8301,74.0,0,60,1.0,0.0
8302,77.0,2,60,1.0,0.0
8303,62.0,0,60,2.0,0.0
8304,65.0,11,60,2.0,0.0
8305,50.0,105,60,3.0,0.0
8306,53.0,0,60,3.0,0.0
8307,77.0,2,60,0.0,0.0
8308,82.0,0,60,0.0,0.0
8309,82.0,2,60,1.0,0.0
8310,77.0,0,60,1.0,0.0
8311,70.0,11,60,2.0,0.0
8312,65.0,0,60,2.0,0.0
8313,53.0,105,60,3.0,0.0
8314,58.0,0,60,3.0,0.0
8315,82.0,0,60,0.0,0.0
8316,77.0,2,60,0.0,0.0
8317,82.0,0,60,1.0,0.0
8318,77.0,2,60,1.0,0.0
8319,65.0,11,60,2.0,0.0
8320,70.0,0,60,2.0,0.0
8321,58.0,0,60,3.0,0.0
8322,53.0,105,60,3.0,0.0
8323,82.0,2,60,0.0,0.0
8324,86.0,0,60,0.0,0.0
8325,82.0,0,60,1.0,0.0
8326,86.0,2,60,1.0,0.0
8327,74.0,11,60,2.0,0.0
8328,70.0,0,60,2.0,0.0
8329,62.0,0,60,3.0,0.0
8330,58.0,105,60,3.0,0.0
8331,82.0,2,60,0.0,0.0
8332,60.0,0,90,6.0,0.0
8333,82.0,0,60,1.0,0.0
8334,72.0,1,90,6.0,0.0
8335,79.0,2,60,1.0,0.0
8336,60.0,5,90,4.0,0.0
8337,67.0,11,60,2.0,0.0
8338,70.0,0,60,2.0,0.0
8339,48.0,82,90,5.0,0.0
8340,58.0,17,60,3.0,0.0
8341,55.0,0,60,3.0,0.0
8342,91.0,2,60,0.0,0.0
8343,84.0,0,60,0.0,0.0
8344,60.0,0,90,6.0,0.0
8345,72.0,1,90,6.0,0.0
8346,76.0,2,60,1.0,0.0
8347,79.0,0,60,1.0,0.0
8348,60.0,5,90,4.0,0.0
8349,67.0,11,60,2.0,0.0
8350,64.0,0,60,2.0,0.0
8351,48.0,82,90,5.0,0.0
8352,52.0,0,60,3.0,0.0
8353,55.0,17,60,3.0,0.0
8354,91.0,2,60,0.0,0.0
8355,84.0,0,60,0.0,0.0
8356,76.0,0,60,1.0,0.0
8357,72.0,1,90,6.0,0.0
8358,79.0,2,60,1.0,0.0
8359,60.0,0,90,6.0,0.0
8360,60.0,5,90,4.0,0.0
8361,67.0,0,60,2.0,0.0
8362,64.0,11,60,2.0,0.0
8363,48.0,82,90,5.0,0.0
8364,52.0,17,60,3.0,0.0
8365,55.0,0,60,3.0,0.0
8366,84.0,0,60,0.0,0.0
8367,88.0,2,60,0.0,0.0
8368,60.0,1,90,6.0,0.0
8369,72.0,0,60,1.0,0.0
8370,76.0,2,60,1.0,0.0
8371,72.0,0,90,6.0,0.0
8372,60.0,5,90,4.0,0.0
8373,60.0,11,60,2.0,0.0
8374,64.0,0,60,2.0,0.0
8375,48.0,80,90,5.0,0.0
8376,48.0,0,60,3.0,0.0
8377,52.0,17,60,3.0,0.0
8378,64.0,5,60,10.0,0.0
8379,60.0,4,60,11.0,0.0
8380,58.0,6,60,12.0,0.0
8381,55.0,3,60,13.0,0.0
8382,43.0,102,60,14.0,0.0
8383,67.0,5,60,10.0,0.0
8384,64.0,4,60,11.0,0.0
8385,55.0,6,60,12.0,0.0
8386,52.0,3,60,13.0,0.0
8387,40.0,102,60,14.0,0.0
8388,67.0,5,60,10.0,0.0
8389,64.0,4,60,11.0,0.0
8390,55.0,6,60,12.0,0.0
8391,52.0,3,60,13.0,0.0
8392,40.0,102,60,14.0,0.0
8393,70.0,5,60,10.0,0.0
8394,67.0,4,60,11.0,0.0
8395,52.0,6,60,12.0,0.0
8396,48.0,3,60,13.0,0.0
8397,36.0,102,60,14.0,0.0
8398,64.0,2,60,10.0,0.0
8399,82.0,2,60,0.0,0.0
8400,79.0,0,60,1.0,0.0
8401,72.0,1,90,6.0,0.0
8402,60.0,0,90,6.0,0.0
8403,82.0,1,60,1.0,0.0
8404,60.0,5,90,4.0,0.0
8405,64.0,1,60,11.0,0.0
8406,70.0,3,60,2.0,0.0
8407,67.0,0,60,2.0,0.0
8408,52.0,6,60,12.0,0.0
8409,48.0,80,90,5.0,0.0
8410,48.0,2,60,13.0,0.0
8411,58.0,0,60,3.0,0.0
8412,55.0,1,60,3.0,0.0
8413,36.0,16,60,14.0,0.0
8414,67.0,2,60,10.0,0.0
8415,84.0,0,60,0.0,0.0
8416,91.0,2,60,0.0,0.0
8417,79.0,0,60,1.0,0.0
8418,72.0,1,90,6.0,0.0
8419,76.0,1,60,1.0,0.0
8420,60.0,0,90,6.0,0.0
8421,67.0,1,60,11.0,0.0
8422,60.0,5,90,4.0,0.0
8423,64.0,3,60,2.0,0.0
8424,67.0,0,60,2.0,0.0
8425,55.0,6,60,12.0,0.0
8426,48.0,80,90,5.0,0.0
8427,52.0,2,60,13.0,0.0
8428,55.0,0,60,3.0,0.0
8429,52.0,1,60,3.0,0.0
8430,40.0,16,60,14.0,0.0
8431,67.0,2,60,10.0,0.0
8432,91.0,2,60,0.0,0.0
8433,84.0,0,60,0.0,0.0
8434,79.0,0,60,1.0,0.0
8435,76.0,1,60,1.0,0.0
8436,72.0,0,90,6.0,0.0
8437,60.0,1,90,6.0,0.0
8438,67.0,1,60,11.0,0.0
8439,60.0,5,90,4.0,0.0
8440,67.0,3,60,2.0,0.0
8441,64.0,0,60,2.0,0.0
8442,55.0,6,60,12.0,0.0
8443,48.0,80,90,5.0,0.0
8444,52.0,2,60,13.0,0.0
8445,52.0,0,60,3.0,0.0
8446,55.0,1,60,3.0,0.0
8447,40.0,16,60,14.0,0.0
8448,70.0,2,60,10.0,0.0
8449,84.0,0,60,0.0,0.0
8450,88.0,2,60,0.0,0.0
8451,76.0,1,60,1.0,0.0
8452,72.0,0,60,1.0,0.0
8453,70.0,1,60,11.0,0.0
8454,64.0,0,60,2.0,0.0
8455,60.0,3,60,2.0,0.0
8456,58.0,6,60,12.0,0.0
8457,55.0,2,60,13.0,0.0
8458,52.0,1,60,3.0,0.0
8459,48.0,0,60,3.0,0.0
8460,43.0,102,60,14.0,0.0
8461,64.0,2,60,10.0,0.0
8462,82.0,2,60,0.0,0.0
8463,79.0,1,60,1.0,0.0
8464,82.0,0,60,1.0,0.0
8465,60.0,0,90,6.0,0.0
8466,72.0,1,90,6.0,0.0
8467,64.0,1,60,11.0,0.0
8468,60.0,5,90,4.0,0.0
8469,70.0,0,60,2.0,0.0
8470,67.0,3,60,2.0,0.0
8471,52.0,6,60,12.0,0.0
8472,48.0,80,90,5.0,0.0
8473,48.0,2,60,13.0,0.0
8474,58.0,0,60,3.0,0.0
8475,55.0,1,60,3.0,0.0
8476,36.0,16,60,14.0,0.0
8477,67.0,2,60,10.0,0.0
8478,84.0,2,60,0.0,0.0
8479,91.0,0,60,0.0,0.0
8480,79.0,1,60,1.0,0.0
8481,76.0,0,60,1.0,0.0
8482,60.0,0,90,6.0,0.0
8483,72.0,1,90,6.0,0.0
8484,67.0,1,60,11.0,0.0
8485,60.0,5,90,4.0,0.0
8486,67.0,0,60,2.0,0.0
8487,64.0,3,60,2.0,0.0
8488,55.0,6,60,12.0,0.0
8489,48.0,80,90,5.0,0.0
8490,52.0,2,60,13.0,0.0
8491,55.0,0,60,3.0,0.0
8492,52.0,1,60,3.0,0.0
8493,40.0,16,60,14.0,0.0
8494,67.0,2,60,10.0,0.0
8495,91.0,2,60,0.0,0.0
8496,84.0,0,60,0.0,0.0
8497,79.0,0,60,1.0,0.0
8498,76.0,1,60,1.0,0.0
8499,72.0,0,90,6.0,0.0
8500,60.0,1,90,6.0,0.0
8501,67.0,1,60,11.0,0.0
8502,60.0,5,90,4.0,0.0
8503,67.0,0,60,2.0,0.0
8504,64.0,3,60,2.0,0.0
8505,55.0,6,60,12.0,0.0
8506,48.0,80,90,5.0,0.0
8507,52.0,2,60,13.0,0.0
8508,55.0,1,60,3.0,0.0
8509,52.0,0,60,3.0,0.0
8510,40.0,16,60,14.0,0.0
8511,70.0,2,60,10.0,0.0
8512,88.0,2,60,0.0,0.0
8513,84.0,0,60,0.0,0.0
8514,72.0,1,60,1.0,0.0
8515,76.0,0,60,1.0,0.0
8516,70.0,1,60,11.0,0.0
8517,64.0,3,60,2.0,0.0
8518,60.0,0,60,2.0,0.0
8519,58.0,6,60,12.0,0.0
8520,55.0,2,60,13.0,0.0
8521,52.0,0,60,3.0,0.0
8522,48.0,1,60,3.0,0.0
8523,43.0,102,60,14.0,0.0
8524,64.0,2,60,10.0,0.0
8525,82.0,2,60,0.0,0.0
8526,60.0,1,90,6.0,0.0
8527,72.0,0,90,6.0,0.0
8528,79.0,1,60,1.0,0.0
8529,82.0,0,60,1.0,0.0
8530,64.0,1,60,11.0,0.0
8531,60.0,5,90,4.0,0.0
8532,67.0,3,60,2.0,0.0
8533,70.0,0,60,2.0,0.0
8534,52.0,6,60,12.0,0.0
8535,48.0,80,90,5.0,0.0
8536,48.0,2,60,13.0,0.0
8537,58.0,0,60,3.0,0.0
8538,55.0,1,60,3.0,0.0
8539,36.0,16,60,14.0,0.0
8540,67.0,2,60,10.0,0.0
8541,91.0,2,60,0.0,0.0
8542,84.0,0,60,0.0,0.0
8543,79.0,1,60,1.0,0.0
8544,76.0,0,60,1.0,0.0
8545,60.0,0,90,6.0,0.0
8546,72.0,1,90,6.0,0.0
8547,60.0,5,90,4.0,0.0
8548,67.0,1,60,11.0,0.0
8549,67.0,3,60,2.0,0.0
8550,64.0,0,60,2.0,0.0
8551,55.0,6,60,12.0,0.0
8552,48.0,80,90,5.0,0.0
8553,52.0,2,60,13.0,0.0
8554,55.0,1,60,3.0,0.0
8555,52.0,0,60,3.0,0.0
8556,40.0,16,60,14.0,0.0
8557,67.0,2,60,10.0,0.0
8558,91.0,0,60,0.0,0.0
8559,84.0,2,60,0.0,0.0
8560,76.0,0,60,1.0,0.0
8561,60.0,1,90,6.0,0.0
8562,72.0,0,90,6.0,0.0
8563,79.0,1,60,1.0,0.0
8564,60.0,5,90,4.0,0.0
8565,67.0,1,60,11.0,0.0
8566,64.0,3,60,2.0,0.0
8567,67.0,0,60,2.0,0.0
8568,55.0,6,60,12.0,0.0
8569,48.0,80,90,5.0,0.0
8570,52.0,2,60,13.0,0.0
8571,55.0,1,60,3.0,0.0
8572,52.0,0,60,3.0,0.0
8573,40.0,16,60,14.0,0.0
8574,70.0,2,60,10.0,0.0
8575,88.0,0,60,0.0,0.0
8576,84.0,2,60,0.0,0.0
8577,72.0,0,60,1.0,0.0
8578,76.0,1,60,1.0,0.0
8579,70.0,1,60,11.0,0.0
8580,64.0,0,60,2.0,0.0
8581,60.0,3,60,2.0,0.0
8582,58.0,6,60,12.0,0.0
8583,55.0,2,60,13.0,0.0
8584,48.0,0,60,3.0,0.0
8585,52.0,1,60,3.0,0.0
8586,43.0,102,60,14.0,0.0
8587,64.0,2,60,10.0,0.0
8588,82.0,2,60,0.0,0.0
8589,82.0,0,60,1.0,0.0
8590,72.0,1,90,6.0,0.0
8591,60.0,0,90,6.0,0.0
8592,79.0,1,60,1.0,0.0
8593,60.0,5,90,4.0,0.0
8594,64.0,1,60,11.0,0.0
8595,70.0,0,60,2.0,0.0
8596,67.0,3,60,2.0,0.0
8597,52.0,6,60,12.0,0.0
8598,48.0,80,90,5.0,0.0
8599,48.0,2,60,13.0,0.0
8600,58.0,0,60,3.0,0.0
8601,55.0,1,60,3.0,0.0
8602,36.0,16,60,14.0,0.0
8603,79.0,2,60,10.0,0.0
8604,91.0,2,60,0.0,0.0
8605,84.0,0,60,0.0,0.0
8606,79.0,1,60,1.0,0.0
8607,60.0,0,90,6.0,0.0
8608,72.0,1,90,6.0,0.0
8609,76.0,0,60,1.0,0.0
8610,67.0,1,60,11.0,0.0
8611,60.0,5,90,4.0,0.0
8612,67.0,0,60,2.0,0.0
8613,64.0,3,60,2.0,0.0
8614,55.0,6,60,12.0,0.0
8615,48.0,80,90,5.0,0.0
8616,52.0,2,60,13.0,0.0
8617,55.0,1,60,3.0,0.0
8618,52.0,0,60,3.0,0.0
8619,40.0,16,60,14.0,0.0
8620,79.0,2,60,10.0,0.0
8621,84.0,2,60,0.0,0.0
8622,91.0,0,60,0.0,0.0
8623,76.0,0,60,1.0,0.0
8624,79.0,1,60,1.0,0.0
8625,72.0,1,90,6.0,0.0
8626,60.0,0,90,6.0,0.0
8627,67.0,1,60,11.0,0.0
8628,60.0,5,90,4.0,0.0
8629,67.0,0,60,2.0,0.0
8630,64.0,3,60,2.0,0.0
8631,55.0,6,60,12.0,0.0
8632,48.0,80,90,5.0,0.0
8633,52.0,2,60,13.0,0.0
8634,52.0,1,60,3.0,0.0
8635,55.0,0,60,3.0,0.0
8636,40.0,16,60,14.0,0.0
8637,84.0,2,60,10.0,0.0
8638,84.0,2,60,0.0,0.0
8639,84.0,0,60,1.0,0.0
8640,72.0,1,60,1.0,0.0
8641,72.0,1,60,11.0,0.0
8642,72.0,3,60,2.0,0.0
8643,60.0,6,60,12.0,0.0
8644,60.0,2,60,13.0,0.0
8645,60.0,1,60,3.0,0.0
8646,48.0,102,60,14.0,0.0
8647,84.0,2,60,10.0,0.0
8648,84.0,2,60,0.0,0.0
8649,60.0,1,90,6.0,0.0
8650,72.0,0,90,6.0,0.0
8651,84.0,0,60,1.0,0.0
8652,72.0,1,60,1.0,0.0
8653,72.0,1,60,11.0,0.0
8654,60.0,5,90,4.0,0.0
8655,72.0,3,60,2.0,0.0
8656,60.0,6,60,12.0,0.0
8657,48.0,80,90,5.0,0.0
8658,60.0,2,60,13.0,0.0
8659,60.0,1,60,3.0,0.0
8660,48.0,16,60,14.0,0.0
8661,72.0,2,60,10.0,0.0
8662,84.0,2,60,0.0,0.0
8663,72.0,1,90,6.0,0.0
8664,72.0,1,60,1.0,0.0
8665,60.0,0,90,6.0,0.0
8666,60.0,5,90,4.0,0.0
8667,60.0,1,60,11.0,0.0
8668,60.0,3,60,2.0,0.0
8669,48.0,6,60,12.0,0.0
8670,48.0,57,90,5.0,0.0
8671,48.0,2,60,13.0,0.0
8672,48.0,1,60,3.0,0.0
8673,36.0,16,60,14.0,0.0
8674,73.0,1,480,10.0,0.0
8675,85.0,2,120,0.0,0.0
8676,73.0,0,120,1.0,0.0
8677,65.0,1,120,6.0,0.0
8678,53.0,1,120,4.0,0.0
8679,61.0,4,30,11.0,0.0
8680,61.0,4,120,2.0,0.0
8681,49.0,36,30,12.0,0.0
8682,53.0,27,120,5.0,0.0
8683,61.0,1,960,3.0,0.0
8684,65.0,4,30,11.0,0.0
8685,56.0,0,30,11.0,0.0
8686,61.0,36,30,12.0,0.0
8687,65.0,4,30,11.0,0.0
8688,56.0,0,30,11.0,0.0
8689,61.0,1,30,12.0,0.0
8690,56.0,0,30,11.0,0.0
8691,65.0,4,30,11.0,0.0
8692,61.0,36,30,12.0,0.0
8693,56.0,0,30,11.0,0.0
8694,65.0,4,30,11.0,0.0
8695,61.0,36,30,12.0,0.0
8696,56.0,4,30,11.0,0.0
8697,65.0,0,30,11.0,0.0
8698,61.0,36,30,12.0,0.0
8699,56.0,0,30,11.0,0.0
8700,65.0,4,30,11.0,0.0
8701,61.0,36,30,12.0,0.0
8702,65.0,4,30,11.0,0.0
8703,56.0,0,30,11.0,0.0
8704,61.0,36,30,12.0,0.0
8705,65.0,4,30,11.0,0.0
8706,56.0,0,30,11.0,0.0
8707,61.0,36,30,12.0,0.0
8708,56.0,0,30,11.0,0.0
8709,65.0,4,30,11.0,0.0
8710,61.0,36,30,12.0,0.0
8711,56.0,4,30,11.0,0.0
8712,65.0,0,30,11.0,0.0
8713,61.0,36,30,12.0,0.0
8714,56.0,3,30,11.0,0.0
8715,65.0,0,30,11.0,0.0
8716,61.0,36,30,12.0,0.0
8717,80.0,1,360,10.0,0.0
8718,65.0,0,30,11.0,0.0
8719,56.0,4,30,11.0,0.0
8720,61.0,36,30,12.0,0.0
8721,65.0,0,480,3.0,0.0
8722,56.0,4,30,11.0,0.0
8723,65.0,0,30,11.0,0.0
8724,61.0,36,30,12.0,0.0
8725,56.0,4,30,11.0,0.0
8726,65.0,0,30,11.0,0.0
8727,61.0,36,30,12.0,0.0
8728,65.0,4,30,11.0,0.0
8729,56.0,0,30,11.0,0.0
8730,61.0,36,30,12.0,0.0
8731,65.0,4,30,11.0,0.0
8732,56.0,0,30,11.0,0.0
8733,61.0,36,30,12.0,0.0
8734,56.0,4,30,11.0,0.0
8735,65.0,0,30,11.0,0.0
8736,61.0,36,30,12.0,0.0
8737,65.0,4,30,11.0,0.0
8738,56.0,0,30,11.0,0.0
8739,61.0,36,30,12.0,0.0
8740,56.0,4,30,11.0,0.0
8741,65.0,0,30,11.0,0.0
8742,61.0,36,30,12.0,0.0
8743,56.0,3,30,11.0,0.0
8744,65.0,0,30,11.0,0.0
8745,61.0,36,30,12.0,0.0
8746,82.0,2,120,10.0,0.0
8747,65.0,4,30,11.0,0.0
8748,56.0,0,30,11.0,0.0
8749,61.0,36,30,12.0,0.0
8750,56.0,0,30,11.0,0.0
8751,65.0,4,30,11.0,0.0
8752,61.0,34,30,12.0,0.0
8753,56.0,0,30,11.0,0.0
8754,65.0,4,30,11.0,0.0
8755,61.0,14,30,12.0,0.0
8756,82.0,1,120,10.0,0.0
8757,66.0,4,30,11.0,0.0
8758,56.0,0,30,11.0,0.0
8759,60.0,36,30,12.0,0.0
8760,49.0,2,15,13.0,0.0
8761,63.0,1,240,3.0,0.0
8762,60.0,0,240,3.0,0.0
8763,37.0,19,15,14.0,0.0
8764,66.0,4,30,11.0,0.0
8765,56.0,0,30,11.0,0.0
8766,60.0,36,30,12.0,0.0
8767,56.0,3,30,11.0,0.0
8768,66.0,0,30,11.0,0.0
8769,60.0,36,30,12.0,0.0
8770,75.0,2,120,10.0,0.0
8771,66.0,4,30,11.0,0.0
8772,56.0,0,30,11.0,0.0
8773,60.0,36,30,12.0,0.0
8774,56.0,4,30,11.0,0.0
8775,66.0,0,30,11.0,0.0
8776,60.0,34,30,12.0,0.0
8777,56.0,0,30,11.0,0.0
8778,66.0,4,30,11.0,0.0
8779,60.0,14,30,12.0,0.0
8780,75.0,1,120,10.0,0.0
8781,56.0,0,30,11.0,0.0
8782,66.0,4,30,11.0,0.0
8783,60.0,36,30,12.0,0.0
8784,49.0,2,15,13.0,0.0
8785,37.0,19,15,14.0,0.0
8786,66.0,4,30,11.0,0.0
8787,56.0,0,30,11.0,0.0
8788,60.0,36,30,12.0,0.0
8789,56.0,0,30,11.0,0.0
8790,66.0,3,30,11.0,0.0
8791,60.0,36,30,12.0,0.0
8792,77.0,1,120,10.0,0.0
8793,56.0,4,30,11.0,0.0
8794,66.0,0,30,11.0,0.0
8795,60.0,36,30,12.0,0.0
8796,56.0,0,30,11.0,0.0
8797,66.0,4,30,11.0,0.0
8798,60.0,36,30,12.0,0.0
8799,56.0,3,30,11.0,0.0
8800,66.0,0,30,11.0,0.0
8801,60.0,14,30,12.0,0.0
8802,78.0,1,120,10.0,0.0
8803,56.0,4,30,11.0,0.0
8804,66.0,0,30,11.0,0.0
8805,60.0,36,30,12.0,0.0
8806,49.0,2,15,13.0,0.0
8807,63.0,1,15,3.0,0.0
8808,66.0,0,15,3.0,0.0
8809,37.0,19,240,14.0,0.0
8810,66.0,4,30,11.0,0.0
8811,56.0,0,30,11.0,0.0
8812,60.0,36,30,12.0,0.0
8813,56.0,0,30,11.0,0.0
8814,66.0,3,30,11.0,0.0
8815,60.0,36,30,12.0,0.0
8816,66.0,0,30,11.0,0.0
8817,56.0,4,30,11.0,0.0
8818,60.0,36,30,12.0,0.0
8819,66.0,0,30,11.0,0.0
8820,56.0,4,30,11.0,0.0
8821,60.0,36,30,12.0,0.0
8822,66.0,4,30,11.0,0.0
8823,56.0,0,30,11.0,0.0
8824,60.0,14,30,12.0,0.0
8825,80.0,1,120,10.0,0.0
8826,84.0,4,240,0.0,0.0
8827,80.0,2,840,1.0,0.0
8828,56.0,0,30,11.0,0.0
8829,66.0,4,30,11.0,0.0
8830,72.0,9,240,2.0,0.0
8831,63.0,36,30,12.0,0.0
8832,49.0,2,240,13.0,0.0
8833,66.0,1,15,3.0,0.0
8834,63.0,0,240,3.0,0.0
8835,56.0,4,30,11.0,0.0
8836,66.0,0,30,11.0,0.0
8837,63.0,36,30,12.0,0.0
8838,56.0,3,30,11.0,0.0
8839,66.0,0,30,11.0,0.0
8840,63.0,36,30,12.0,0.0
8841,56.0,4,30,11.0,0.0
8842,66.0,0,30,11.0,0.0
8843,63.0,36,30,12.0,0.0
8844,56.0,0,30,11.0,0.0
8845,66.0,4,30,11.0,0.0
8846,63.0,36,30,12.0,0.0
8847,56.0,4,30,11.0,0.0
8848,66.0,0,30,11.0,0.0
8849,63.0,1,30,12.0,0.0
8850,77.0,1,480,10.0,0.0
8851,85.0,4,360,0.0,0.0
8852,65.0,4,30,11.0,0.0
8853,56.0,0,30,11.0,0.0
8854,73.0,31,360,2.0,0.0
8855,61.0,36,30,12.0,0.0
8856,61.0,1,960,3.0,0.0
8857,65.0,0,960,3.0,0.0
8858,37.0,19,15,14.0,0.0
8859,65.0,0,30,11.0,0.0
8860,56.0,4,30,11.0,0.0
8861,61.0,36,30,12.0,0.0
8862,65.0,0,30,11.0,0.0
8863,56.0,4,30,11.0,0.0
8864,61.0,36,30,12.0,0.0
8865,56.0,0,30,11.0,0.0
8866,65.0,4,30,11.0,0.0
8867,61.0,36,30,12.0,0.0
8868,56.0,4,30,11.0,0.0
8869,65.0,0,30,11.0,0.0
8870,61.0,36,30,12.0,0.0
8871,65.0,0,30,11.0,0.0
8872,56.0,4,30,11.0,0.0
8873,61.0,36,30,12.0,0.0
8874,65.0,4,30,11.0,0.0
8875,56.0,0,30,11.0,0.0
8876,61.0,36,30,12.0,0.0
8877,65.0,4,30,11.0,0.0
8878,56.0,0,30,11.0,0.0
8879,61.0,36,30,12.0,0.0
8880,56.0,0,30,11.0,0.0
8881,65.0,4,30,11.0,0.0
8882,61.0,1,30,12.0,0.0
8883,87.0,4,60,0.0,0.0
8884,65.0,0,30,11.0,0.0
8885,56.0,4,30,11.0,0.0
8886,75.0,11,60,2.0,0.0
8887,61.0,21,30,12.0,0.0
8888,65.0,0,30,11.0,0.0
8889,56.0,4,30,11.0,0.0
8890,61.0,36,30,12.0,0.0
8891,89.0,4,60,0.0,0.0
8892,77.0,31,60,2.0,0.0
8893,56.0,0,30,11.0,0.0
8894,65.0,3,30,11.0,0.0
8895,61.0,1,30,12.0,0.0
8896,80.0,1,120,10.0,0.0
8897,80.0,2,120,0.0,0.0
8898,56.0,4,30,11.0,0.0
8899,65.0,0,30,11.0,0.0
8900,68.0,31,120,2.0,0.0
8901,61.0,36,30,12.0,0.0
8902,65.0,4,30,11.0,0.0
8903,56.0,0,30,11.0,0.0
8904,61.0,36,30,12.0,0.0
8905,65.0,3,30,11.0,0.0
8906,56.0,0,30,11.0,0.0
8907,61.0,1,30,12.0,0.0
8908,82.0,1,40,10.0,0.0
8909,56.0,0,30,11.0,0.0
8910,65.0,3,30,11.0,0.0
8911,61.0,36,30,12.0,0.0
8912,80.0,1,40,10.0,0.0
8913,56.0,0,30,11.0,0.0
8914,65.0,3,30,11.0,0.0
8915,61.0,36,30,12.0,0.0
8916,79.0,1,40,10.0,0.0
8917,65.0,0,30,11.0,0.0
8918,56.0,3,30,11.0,0.0
8919,61.0,36,30,12.0,0.0
8920,80.0,1,120,10.0,0.0
8921,65.0,0,30,11.0,0.0
8922,56.0,4,30,11.0,0.0
8923,61.0,36,30,12.0,0.0
8924,65.0,0,30,11.0,0.0
8925,56.0,4,30,11.0,0.0
8926,61.0,36,30,12.0,0.0
8927,56.0,3,30,11.0,0.0
8928,65.0,0,30,11.0,0.0
8929,61.0,36,30,12.0,0.0
8930,81.0,1,120,10.0,0.0
8931,56.0,4,30,11.0,0.0
8932,65.0,0,30,11.0,0.0
8933,61.0,36,30,12.0,0.0
8934,56.0,0,30,11.0,0.0
8935,65.0,4,30,11.0,0.0
8936,61.0,36,30,12.0,0.0
8937,56.0,3,30,11.0,0.0
8938,65.0,0,30,11.0,0.0
8939,61.0,14,30,12.0,0.0
8940,84.0,1,120,10.0,0.0
8941,56.0,4,30,11.0,0.0
8942,66.0,0,30,11.0,0.0
8943,60.0,36,30,12.0,0.0
8944,49.0,2,15,13.0,0.0
8945,60.0,1,240,3.0,0.0
8946,63.0,0,240,3.0,0.0
8947,66.0,0,30,11.0,0.0
8948,56.0,4,30,11.0,0.0
8949,60.0,36,30,12.0,0.0
8950,56.0,3,30,11.0,0.0
8951,66.0,0,30,11.0,0.0
8952,60.0,36,30,12.0,0.0
8953,82.0,1,120,10.0,0.0
8954,56.0,4,30,11.0,0.0
8955,66.0,0,30,11.0,0.0
8956,60.0,36,30,12.0,0.0
8957,66.0,4,30,11.0,0.0
8958,56.0,0,30,11.0,0.0
8959,60.0,36,30,12.0,0.0
8960,56.0,0,30,11.0,0.0
8961,66.0,3,30,11.0,0.0
8962,60.0,14,30,12.0,0.0
8963,75.0,1,120,10.0,0.0
8964,56.0,0,30,11.0,0.0
8965,66.0,4,30,11.0,0.0
8966,60.0,36,30,12.0,0.0
8967,49.0,2,240,13.0,0.0
8968,63.0,0,240,3.0,0.0
8969,37.0,19,15,14.0,0.0
8970,66.0,0,30,11.0,0.0
8971,56.0,4,30,11.0,0.0
8972,60.0,36,30,12.0,0.0
8973,66.0,0,30,11.0,0.0
8974,56.0,3,30,11.0,0.0
8975,60.0,36,30,12.0,0.0
8976,77.0,1,120,10.0,0.0
8977,66.0,4,30,11.0,0.0
8978,56.0,0,30,11.0,0.0
8979,60.0,36,30,12.0,0.0
8980,56.0,4,30,11.0,0.0
8981,66.0,0,30,11.0,0.0
8982,60.0,36,30,12.0,0.0
8983,66.0,3,30,11.0,0.0
8984,56.0,0,30,11.0,0.0
8985,60.0,14,30,12.0,0.0
8986,78.0,1,120,10.0,0.0
8987,66.0,0,30,11.0,0.0
8988,56.0,4,30,11.0,0.0
8989,60.0,36,30,12.0,0.0
8990,49.0,2,240,13.0,0.0
8991,66.0,1,15,3.0,0.0
8992,63.0,1,240,3.0,0.0
8993,37.0,19,15,14.0,0.0
8994,56.0,0,30,11.0,0.0
8995,66.0,4,30,11.0,0.0
8996,60.0,36,30,12.0,0.0
8997,66.0,0,30,11.0,0.0
8998,56.0,3,30,11.0,0.0
8999,60.0,36,30,12.0,0.0
9000,56.0,0,30,11.0,0.0
9001,66.0,4,30,11.0,0.0
9002,60.0,36,30,12.0,0.0
9003,56.0,4,30,11.0,0.0
9004,66.0,0,30,11.0,0.0
9005,60.0,36,30,12.0,0.0
9006,66.0,4,30,11.0,0.0
9007,56.0,0,30,11.0,0.0
9008,60.0,14,30,12.0,0.0
9009,80.0,1,120,10.0,0.0
9010,84.0,4,240,0.0,0.0
9011,80.0,2,360,1.0,0.0
9012,56.0,0,30,11.0,0.0
9013,66.0,4,30,11.0,0.0
9014,72.0,9,240,2.0,0.0
9015,63.0,36,30,12.0,0.0
9016,49.0,2,240,13.0,0.0
9017,66.0,1,240,3.0,0.0
9018,63.0,0,240,3.0,0.0
9019,37.0,19,240,14.0,0.0
9020,56.0,0,30,11.0,0.0
9021,66.0,4,30,11.0,0.0
9022,63.0,36,30,12.0,0.0
9023,56.0,3,30,11.0,0.0
9024,66.0,0,30,11.0,0.0
9025,63.0,36,30,12.0,0.0
9026,56.0,4,30,11.0,0.0
9027,66.0,0,30,11.0,0.0
9028,63.0,36,30,12.0,0.0
9029,66.0,0,30,11.0,0.0
9030,56.0,4,30,11.0,0.0
9031,63.0,36,30,12.0,0.0
9032,66.0,4,30,11.0,0.0
9033,56.0,0,30,11.0,0.0
9034,63.0,1,30,12.0,0.0
9035,77.0,1,960,10.0,0.0
9036,85.0,2,120,0.0,0.0
9037,56.0,0,30,11.0,0.0
9038,65.0,4,30,11.0,0.0
9039,65.0,10,960,4.0,0.0
9040,73.0,11,120,2.0,0.0
9041,61.0,36,30,12.0,0.0
9042,49.0,3,480,13.0,0.0
9043,61.0,20,120,3.0,0.0
9044,65.0,0,120,3.0,0.0
9045,37.0,19,480,14.0,0.0
9046,65.0,4,30,11.0,0.0
9047,61.0,36,30,12.0,0.0
9048,65.0,4,30,11.0,0.0
9049,61.0,1,30,12.0,0.0
9050,65.0,4,30,11.0,0.0
9051,61.0,36,30,12.0,0.0
9052,65.0,4,30,11.0,0.0
9053,61.0,36,30,12.0,0.0
9054,65.0,4,30,11.0,0.0
9055,61.0,36,30,12.0,0.0
9056,89.0,2,120,0.0,0.0
9057,77.0,2,120,1.0,0.0
9058,65.0,4,30,11.0,0.0
9059,73.0,11,120,2.0,0.0
9060,61.0,36,30,12.0,0.0
9061,61.0,20,120,3.0,0.0
9062,65.0,0,120,3.0,0.0
9063,65.0,4,30,11.0,0.0
9064,61.0,36,30,12.0,0.0
9065,65.0,4,30,11.0,0.0
9066,61.0,1,30,12.0,0.0
9067,65.0,4,30,11.0,0.0
9068,61.0,36,30,12.0,0.0
9069,65.0,4,30,11.0,0.0
9070,61.0,36,30,12.0,0.0
9071,65.0,4,30,11.0,0.0
9072,61.0,14,30,12.0,0.0
9073,59.0,0,30,11.0,0.0
9074,65.0,4,30,11.0,0.0
9075,62.0,36,30,12.0,0.0
9076,43.0,3,480,13.0,0.0
9077,43.0,19,480,14.0,0.0
9078,59.0,4,30,11.0,0.0
9079,65.0,0,30,11.0,0.0
9080,62.0,36,30,12.0,0.0
9081,59.0,0,30,11.0,0.0
9082,65.0,4,30,11.0,0.0
9083,62.0,36,30,12.0,0.0
9084,59.0,0,30,11.0,0.0
9085,65.0,4,30,11.0,0.0
9086,62.0,36,30,12.0,0.0
9087,59.0,0,30,11.0,0.0
9088,65.0,4,30,11.0,0.0
9089,62.0,36,30,12.0,0.0
9090,65.0,4,30,11.0,0.0
9091,59.0,0,30,11.0,0.0
9092,62.0,36,30,12.0,0.0
9093,89.0,2,120,0.0,0.0
9094,77.0,2,120,1.0,0.0
9095,65.0,0,30,11.0,0.0
9096,59.0,4,30,11.0,0.0
9097,74.0,11,120,2.0,0.0
9098,71.0,0,120,2.0,0.0
9099,62.0,36,30,12.0,0.0
9100,59.0,0,120,3.0,0.0
9101,62.0,20,120,3.0,0.0
9102,59.0,0,30,11.0,0.0
9103,65.0,4,30,11.0,0.0
9104,62.0,36,30,12.0,0.0
9105,65.0,0,30,11.0,0.0
9106,59.0,4,30,11.0,0.0
9107,62.0,1,30,12.0,0.0
9108,59.0,4,30,11.0,0.0
9109,65.0,0,30,11.0,0.0
9110,62.0,36,30,12.0,0.0
9111,59.0,0,30,11.0,0.0
9112,65.0,4,30,11.0,0.0
9113,62.0,36,30,12.0,0.0
9114,65.0,3,30,11.0,0.0
9115,59.0,0,30,11.0,0.0
9116,62.0,4,30,12.0,0.0
9117,79.0,1,480,10.0,0.0
9118,67.0,0,30,11.0,0.0
9119,58.0,4,30,11.0,0.0
9120,67.0,32,480,4.0,0.0
9121,64.0,36,30,12.0,0.0
9122,60.0,5,960,5.0,0.0
9123,36.0,3,960,13.0,0.0
9124,36.0,62,960,14.0,0.0
9125,58.0,4,30,11.0,0.0
9126,67.0,0,30,11.0,0.0
9127,64.0,36,30,12.0,0.0
9128,58.0,0,30,11.0,0.0
9129,67.0,4,30,11.0,0.0
9130,64.0,36,30,12.0,0.0
9131,58.0,0,30,11.0,0.0
9132,67.0,4,30,11.0,0.0
9133,64.0,36,30,12.0,0.0
9134,58.0,4,30,11.0,0.0
9135,67.0,0,30,11.0,0.0
9136,64.0,36,30,12.0,0.0
9137,58.0,4,30,11.0,0.0
9138,67.0,0,30,11.0,0.0
9139,64.0,36,30,12.0,0.0
9140,91.0,2,120,0.0,0.0
9141,79.0,2,120,1.0,0.0
9142,67.0,0,30,11.0,0.0
9143,58.0,4,30,11.0,0.0
9144,76.0,11,120,2.0,0.0
9145,70.0,0,120,2.0,0.0
9146,64.0,36,30,12.0,0.0
9147,58.0,0,120,3.0,0.0
9148,64.0,20,120,3.0,0.0
9149,58.0,0,30,11.0,0.0
9150,67.0,4,30,11.0,0.0
9151,64.0,36,30,12.0,0.0
9152,67.0,4,30,11.0,0.0
9153,58.0,0,30,11.0,0.0
9154,64.0,1,30,12.0,0.0
9155,67.0,0,30,11.0,0.0
9156,58.0,4,30,11.0,0.0
9157,64.0,36,30,12.0,0.0
9158,67.0,0,30,11.0,0.0
9159,58.0,4,30,11.0,0.0
9160,64.0,36,30,12.0,0.0
9161,58.0,3,30,11.0,0.0
9162,67.0,0,30,11.0,0.0
9163,64.0,4,30,12.0,0.0
9164,84.0,1,480,10.0,0.0
9165,60.0,1,1440,6.0,0.0
9166,58.0,0,30,11.0,0.0
9167,72.0,5,480,4.0,0.0
9168,67.0,4,30,11.0,0.0
9169,64.0,36,30,12.0,0.0
9170,67.0,4,30,11.0,0.0
9171,58.0,0,30,11.0,0.0
9172,64.0,36,30,12.0,0.0
9173,67.0,4,30,11.0,0.0
9174,58.0,0,30,11.0,0.0
9175,64.0,36,30,12.0,0.0
9176,58.0,4,30,11.0,0.0
9177,67.0,0,30,11.0,0.0
9178,64.0,36,30,12.0,0.0
9179,67.0,4,30,11.0,0.0
9180,58.0,0,30,11.0,0.0
9181,64.0,36,30,12.0,0.0
9182,67.0,4,30,11.0,0.0
9183,58.0,0,30,11.0,0.0
9184,64.0,36,30,12.0,0.0
9185,84.0,4,120,0.0,0.0
9186,58.0,4,30,11.0,0.0
9187,67.0,0,30,11.0,0.0
9188,72.0,11,120,2.0,0.0
9189,64.0,36,30,12.0,0.0
9190,48.0,20,120,3.0,0.0
9191,60.0,0,120,3.0,0.0
9192,58.0,4,30,11.0,0.0
9193,67.0,0,30,11.0,0.0
9194,64.0,36,30,12.0,0.0
9195,67.0,0,30,11.0,0.0
9196,58.0,4,30,11.0,0.0
9197,64.0,1,30,12.0,0.0
9198,67.0,4,30,11.0,0.0
9199,58.0,0,30,11.0,0.0
9200,64.0,36,30,12.0,0.0
9201,67.0,4,30,11.0,0.0
9202,58.0,0,30,11.0,0.0
9203,64.0,36,30,12.0,0.0
9204,58.0,0,30,11.0,0.0
9205,67.0,3,30,11.0,0.0
9206,64.0,4,30,12.0,0.0
9207,77.0,9,90,10.0,0.0
9208,77.0,2,480,0.0,0.0
9209,65.0,5,960,4.0,0.0
9210,69.0,0,120,11.0,0.0
9211,57.0,10,120,11.0,0.0
9212,65.0,11,480,2.0,0.0
9213,65.0,36,90,12.0,0.0
9214,57.0,2,960,5.0,0.0
9215,41.0,3,120,13.0,0.0
9216,53.0,63,480,3.0,0.0
9217,41.0,22,120,14.0,0.0
9218,65.0,9,90,10.0,0.0
9219,53.0,71,90,12.0,0.0
9220,69.0,9,90,10.0,0.0
9221,57.0,71,90,12.0,0.0
9222,72.0,9,90,10.0,0.0
9223,60.0,71,90,12.0,0.0
9224,60.0,9,90,10.0,0.0
9225,48.0,66,90,12.0,0.0
9226,72.0,7,60,10.0,0.0
9227,60.0,2,60,12.0,0.0
9228,60.0,9,90,10.0,0.0
9229,84.0,4,360,0.0,0.0
9230,72.0,11,360,2.0,0.0
9231,48.0,46,90,12.0,0.0
9232,53.0,3,120,13.0,0.0
9233,60.0,23,360,3.0,0.0
9234,41.0,22,120,14.0,0.0
9235,65.0,9,90,10.0,0.0
9236,53.0,71,90,12.0,0.0
9237,69.0,9,90,10.0,0.0
9238,57.0,71,90,12.0,0.0
9239,72.0,9,90,10.0,0.0
9240,60.0,33,90,12.0,0.0
9241,60.0,9,90,10.0,0.0
9242,48.0,66,90,12.0,0.0
9243,86.0,4,120,0.0,0.0
9244,74.0,3,120,2.0,0.0
9245,62.0,68,120,3.0,0.0
9246,72.0,2,60,10.0,0.0
9247,60.0,0,60,12.0,0.0
9248,60.0,9,90,10.0,0.0
9249,86.0,4,120,0.0,0.0
9250,72.0,0,15,6.0,0.0
9251,60.0,0,240,6.0,0.0
9252,74.0,9,120,2.0,0.0
9253,48.0,33,90,12.0,0.0
9254,53.0,2,120,13.0,0.0
9255,62.0,1,120,3.0,0.0
9256,41.0,1,120,14.0,0.0
9257,53.0,21,120,15.0,0.0
9258,67.0,9,90,10.0,0.0
9259,55.0,68,90,12.0,0.0
9260,79.0,3,120,0.0,0.0
9261,67.0,3,120,2.0,0.0
9262,55.0,68,120,3.0,0.0
9263,70.0,1,90,10.0,0.0
9264,58.0,1,90,12.0,0.0
9265,72.0,9,90,10.0,0.0
9266,79.0,4,120,0.0,0.0
9267,60.0,0,240,6.0,0.0
9268,67.0,4,15,4.0,0.0
9269,67.0,9,120,2.0,0.0
9270,60.0,33,90,12.0,0.0
9271,60.0,2,15,5.0,0.0
9272,53.0,2,120,13.0,0.0
9273,55.0,1,120,3.0,0.0
9274,41.0,1,120,14.0,0.0
9275,53.0,21,120,15.0,0.0
9276,60.0,9,90,10.0,0.0
9277,48.0,66,90,12.0,0.0
9278,81.0,2,120,0.0,0.0
9279,69.0,4,120,2.0,0.0
9280,57.0,63,120,3.0,0.0
9281,72.0,7,60,10.0,0.0
9282,60.0,1,60,12.0,0.0
9283,60.0,9,90,10.0,0.0
9284,82.0,4,120,0.0,0.0
9285,72.0,0,15,6.0,0.0
9286,67.0,4,240,4.0,0.0
9287,70.0,9,120,2.0,0.0
9288,48.0,33,90,12.0,0.0
9289,60.0,7,15,5.0,0.0
9290,53.0,2,120,13.0,0.0
9291,58.0,1,120,3.0,0.0
9292,41.0,1,120,14.0,0.0
9293,53.0,21,120,15.0,0.0
9294,67.0,9,90,10.0,0.0
9295,55.0,71,90,12.0,0.0
9296,70.0,4,90,10.0,0.0
9297,58.0,1,90,12.0,0.0
9298,72.0,9,90,10.0,0.0
9299,84.0,4,120,0.0,0.0
9300,60.0,0,15,6.0,0.0
9301,72.0,1,15,6.0,0.0
9302,76.0,5,240,11.0,0.0
9303,67.0,0,240,4.0,0.0
9304,72.0,11,120,2.0,0.0
9305,60.0,33,90,12.0,0.0
9306,60.0,5,240,5.0,0.0
9307,64.0,65,240,13.0,0.0
9308,60.0,1,120,3.0,0.0
9309,41.0,1,120,14.0,0.0
9310,53.0,21,120,15.0,0.0
9311,60.0,9,90,10.0,0.0
9312,48.0,66,90,12.0,0.0
9313,72.0,9,60,10.0,0.0
9314,60.0,1,60,12.0,0.0
9315,60.0,9,90,10.0,0.0
9316,81.0,2,480,0.0,0.0
9317,60.0,0,15,6.0,0.0
9318,77.0,10,360,11.0,0.0
9319,69.0,4,240,4.0,0.0
9320,69.0,9,480,2.0,0.0
9321,48.0,49,90,12.0,0.0
9322,65.0,70,240,5.0,0.0
9323,65.0,25,360,13.0,0.0
9324,57.0,63,480,3.0,0.0
9325,41.0,1,120,14.0,0.0
9326,53.0,21,120,15.0,0.0
9327,65.0,9,90,10.0,0.0
9328,53.0,71,90,12.0,0.0
9329,69.0,5,90,10.0,0.0
9330,57.0,1,90,12.0,0.0
9331,72.0,9,90,10.0,0.0
9332,65.0,1,720,4.0,0.0
9333,60.0,36,90,12.0,0.0
9334,57.0,7,720,5.0,0.0
9335,60.0,9,90,10.0,0.0
9336,48.0,16,90,12.0,0.0
9337,79.0,10,60,11.0,0.0
9338,67.0,40,60,13.0,0.0
9339,72.0,7,60,10.0,0.0
9340,60.0,1,60,12.0,0.0
9341,81.0,1,60,11.0,0.0
9342,69.0,2,60,13.0,0.0
9343,60.0,9,90,10.0,0.0
9344,84.0,3,120,0.0,0.0
9345,72.0,1,120,11.0,0.0
9346,72.0,9,120,2.0,0.0
9347,48.0,33,90,12.0,0.0
9348,60.0,2,120,13.0,0.0
9349,60.0,1,120,3.0,0.0
9350,41.0,22,120,14.0,0.0
9351,65.0,2,90,10.0,0.0
9352,53.0,8,90,12.0,0.0
9353,86.0,4,40,0.0,0.0
9354,74.0,3,40,2.0,0.0
9355,62.0,25,40,3.0,0.0
9356,69.0,2,90,10.0,0.0
9357,84.0,4,40,0.0,0.0
9358,72.0,11,40,2.0,0.0
9359,57.0,8,90,12.0,0.0
9360,60.0,23,40,3.0,0.0
9361,83.0,4,40,0.0,0.0
9362,71.0,3,40,2.0,0.0
9363,59.0,63,40,3.0,0.0
9364,72.0,9,90,10.0,0.0
9365,84.0,4,120,0.0,0.0
9366,72.0,11,120,2.0,0.0
9367,60.0,33,90,12.0,0.0
9368,60.0,23,120,3.0,0.0
9369,60.0,9,90,10.0,0.0
9370,48.0,66,90,12.0,0.0
9371,85.0,2,120,0.0,0.0
9372,73.0,4,120,2.0,0.0
9373,61.0,63,120,3.0,0.0
9374,72.0,7,60,10.0,0.0
9375,60.0,0,60,12.0,0.0
9376,60.0,9,90,10.0,0.0
9377,88.0,4,120,0.0,0.0
9378,60.0,0,240,6.0,0.0
9379,72.0,1,15,6.0,0.0
9380,67.0,1,240,4.0,0.0
9381,76.0,9,120,2.0,0.0
9382,48.0,33,90,12.0,0.0
9383,53.0,2,120,13.0,0.0
9384,64.0,1,120,3.0,0.0
9385,41.0,1,120,14.0,0.0
9386,53.0,21,120,15.0,0.0
9387,67.0,9,90,10.0,0.0
9388,55.0,71,90,12.0,0.0
9389,86.0,2,120,0.0,0.0
9390,74.0,3,120,2.0,0.0
9391,62.0,63,120,3.0,0.0
9392,70.0,2,90,10.0,0.0
9393,58.0,1,90,12.0,0.0
9394,72.0,9,90,10.0,0.0
9395,79.0,4,120,0.0,0.0
9396,72.0,1,15,6.0,0.0
9397,67.0,1,240,4.0,0.0
9398,67.0,9,120,2.0,0.0
9399,60.0,33,90,12.0,0.0
9400,60.0,7,15,5.0,0.0
9401,53.0,2,120,13.0,0.0
9402,55.0,1,120,3.0,0.0
9403,41.0,1,120,14.0,0.0
9404,53.0,21,120,15.0,0.0
9405,60.0,9,90,10.0,0.0
9406,48.0,66,90,12.0,0.0
9407,81.0,2,120,0.0,0.0
9408,69.0,4,120,2.0,0.0
9409,57.0,63,120,3.0,0.0
9410,72.0,7,60,10.0,0.0
9411,60.0,1,60,12.0,0.0
9412,60.0,9,90,10.0,0.0
9413,82.0,2,120,0.0,0.0
9414,72.0,0,15,6.0,0.0
9415,60.0,0,15,6.0,0.0
9416,82.0,2,120,1.0,0.0
9417,67.0,4,240,4.0,0.0
9418,70.0,9,120,2.0,0.0
9419,48.0,33,90,12.0,0.0
9420,60.0,7,15,5.0,0.0
9421,53.0,2,120,13.0,0.0
9422,58.0,1,120,3.0,0.0
9423,41.0,1,120,14.0,0.0
9424,53.0,21,120,15.0,0.0
9425,67.0,9,90,10.0,0.0
9426,55.0,70,90,12.0,0.0
9427,74.0,1,120,1.0,0.0
9428,70.0,4,90,10.0,0.0
9429,58.0,1,90,12.0,0.0
9430,72.0,9,90,10.0,0.0
9431,84.0,4,120,0.0,0.0
9432,72.0,0,15,6.0,0.0
9433,74.0,16,60,1.0,0.0
9434,60.0,1,240,6.0,0.0
9435,76.0,0,240,11.0,0.0
9436,67.0,5,240,4.0,0.0
9437,72.0,11,120,2.0,0.0
9438,60.0,33,90,12.0,0.0
9439,60.0,54,15,5.0,0.0
9440,64.0,60,240,13.0,0.0
9441,60.0,1,120,3.0,0.0
9442,41.0,1,120,14.0,0.0
9443,53.0,21,120,15.0,0.0
9444,60.0,9,90,10.0,0.0
9445,48.0,15,90,12.0,0.0
9446,76.0,51,60,1.0,0.0
9447,72.0,9,60,10.0,0.0
9448,60.0,0,60,12.0,0.0
9449,69.0,5,60,10.0,0.0
9450,81.0,2,120,0.0,0.0
9451,77.0,5,120,1.0,0.0
9452,60.0,0,120,6.0,0.0
9453,72.0,1,120,6.0,0.0
9454,69.0,1,120,4.0,0.0
9455,77.0,4,60,11.0,0.0
9456,69.0,4,120,2.0,0.0
9457,53.0,33,60,12.0,0.0
9458,65.0,2,120,5.0,0.0
9459,65.0,3,120,13.0,0.0
9460,65.0,3,120,3.0,0.0
9461,41.0,1,120,14.0,0.0
9462,53.0,21,120,15.0,0.0
9463,69.0,4,90,10.0,0.0
9464,65.0,75,90,11.0,0.0
9465,65.0,1,60,12.0,0.0
9466,81.0,2,240,0.0,0.0
9467,77.0,13,240,1.0,0.0
9468,65.0,28,240,3.0,0.0
9469,67.0,4,90,10.0,0.0
9470,64.0,75,90,11.0,0.0
9471,65.0,1,60,12.0,0.0
9472,69.0,4,90,10.0,0.0
9473,65.0,32,90,11.0,0.0
9474,65.0,1,60,12.0,0.0
9475,67.0,4,90,10.0,0.0
9476,64.0,17,90,11.0,0.0
9477,65.0,1,60,12.0,0.0
9478,79.0,2,60,0.0,0.0
9479,76.0,53,60,1.0,0.0
9480,62.0,3,120,13.0,0.0
9481,62.0,3,120,3.0,0.0
9482,50.0,44,120,14.0,0.0
9483,69.0,4,90,10.0,0.0
9484,66.0,7,90,11.0,0.0
9485,62.0,1,60,12.0,0.0
9486,81.0,2,60,0.0,0.0
9487,78.0,1,60,1.0,0.0
9488,70.0,5,60,10.0,0.0
9489,82.0,2,60,0.0,0.0
9490,79.0,11,60,1.0,0.0
9491,67.0,4,60,11.0,0.0
9492,67.0,48,60,12.0,0.0
9493,67.0,3,120,13.0,0.0
9494,67.0,3,120,3.0,0.0
9495,55.0,22,120,14.0,0.0
9496,70.0,4,90,10.0,0.0
9497,67.0,75,90,11.0,0.0
9498,67.0,1,60,12.0,0.0
9499,82.0,2,240,0.0,0.0
9500,79.0,13,240,1.0,0.0
9501,67.0,28,240,3.0,0.0
9502,69.0,4,90,10.0,0.0
9503,66.0,75,90,11.0,0.0
9504,67.0,1,60,12.0,0.0
9505,70.0,4,90,10.0,0.0
9506,67.0,32,90,11.0,0.0
9507,67.0,1,60,12.0,0.0
9508,69.0,4,90,10.0,0.0
9509,66.0,17,90,11.0,0.0
9510,67.0,1,60,12.0,0.0
9511,81.0,2,60,0.0,0.0
9512,78.0,53,60,1.0,0.0
9513,64.0,3,120,13.0,0.0
9514,64.0,3,120,3.0,0.0
9515,52.0,44,120,14.0,0.0
9516,71.0,4,90,10.0,0.0
9517,68.0,7,90,11.0,0.0
9518,64.0,1,60,12.0,0.0
9519,82.0,2,60,0.0,0.0
9520,80.0,1,60,1.0,0.0
9521,72.0,5,60,10.0,0.0
9522,84.0,2,60,0.0,0.0
9523,81.0,11,60,1.0,0.0
9524,69.0,4,60,11.0,0.0
9525,69.0,11,120,2.0,0.0
9526,69.0,37,60,12.0,0.0
9527,69.0,3,120,13.0,0.0
9528,69.0,3,120,3.0,0.0
9529,57.0,22,120,14.0,0.0
9530,72.0,4,90,10.0,0.0
9531,69.0,75,90,11.0,0.0
9532,69.0,1,60,12.0,0.0
9533,84.0,2,240,0.0,0.0
9534,81.0,2,240,1.0,0.0
9535,69.0,39,240,2.0,0.0
9536,71.0,4,90,10.0,0.0
9537,68.0,75,90,11.0,0.0
9538,69.0,1,60,12.0,0.0
9539,72.0,4,90,10.0,0.0
9540,69.0,32,90,11.0,0.0
9541,69.0,1,60,12.0,0.0
9542,70.0,4,90,10.0,0.0
9543,67.0,17,90,11.0,0.0
9544,69.0,1,60,12.0,0.0
9545,82.0,2,60,0.0,0.0
9546,79.0,53,60,1.0,0.0
9547,65.0,3,120,2.0,0.0
9548,53.0,3,120,13.0,0.0
9549,41.0,44,120,14.0,0.0
9550,72.0,1,90,10.0,0.0
9551,69.0,10,90,11.0,0.0
9552,65.0,1,60,12.0,0.0
9553,84.0,2,60,0.0,0.0
9554,81.0,1,60,1.0,0.0
9555,74.0,5,60,10.0,0.0
9556,86.0,2,60,0.0,0.0
9557,82.0,11,60,1.0,0.0
9558,70.0,4,60,11.0,0.0
9559,70.0,14,120,2.0,0.0
9560,70.0,37,60,12.0,0.0
9561,58.0,3,120,13.0,0.0
9562,46.0,22,120,14.0,0.0
9563,74.0,4,90,10.0,0.0
9564,70.0,75,90,11.0,0.0
9565,70.0,1,60,12.0,0.0
9566,86.0,2,240,0.0,0.0
9567,82.0,2,240,1.0,0.0
9568,70.0,39,240,2.0,0.0
9569,72.0,4,90,10.0,0.0
9570,69.0,75,90,11.0,0.0
9571,70.0,1,60,12.0,0.0
9572,74.0,4,90,10.0,0.0
9573,70.0,32,90,11.0,0.0
9574,70.0,1,60,12.0,0.0
9575,72.0,4,90,10.0,0.0
9576,69.0,17,90,11.0,0.0
9577,70.0,1,60,12.0,0.0
9578,84.0,2,60,0.0,0.0
9579,81.0,53,60,1.0,0.0
9580,67.0,3,120,2.0,0.0
9581,55.0,3,120,13.0,0.0
9582,43.0,44,120,14.0,0.0
9583,74.0,1,90,10.0,0.0
9584,71.0,10,90,11.0,0.0
9585,67.0,1,60,12.0,0.0
9586,86.0,2,60,0.0,0.0
9587,83.0,1,60,1.0,0.0
9588,76.0,4,90,10.0,0.0
9589,88.0,2,60,0.0,0.0
9590,84.0,2,60,1.0,0.0
9591,72.0,50,90,11.0,0.0
9592,72.0,14,60,2.0,0.0
9593,72.0,1,60,12.0,0.0
9594,60.0,3,120,13.0,0.0
9595,48.0,22,120,14.0,0.0
9596,77.0,4,90,10.0,0.0
9597,67.0,17,90,11.0,0.0
9598,72.0,1,60,12.0,0.0
9599,88.0,2,60,0.0,0.0
9600,84.0,2,60,1.0,0.0
9601,76.0,0,60,2.0,0.0
9602,72.0,54,60,2.0,0.0
9603,76.0,4,90,10.0,0.0
9604,72.0,57,90,11.0,0.0
9605,72.0,1,60,12.0,0.0
9606,77.0,4,90,10.0,0.0
9607,88.0,2,60,0.0,0.0
9608,84.0,2,60,1.0,0.0
9609,67.0,75,90,11.0,0.0
9610,72.0,14,60,2.0,0.0
9611,76.0,0,60,2.0,0.0
9612,72.0,1,60,12.0,0.0
9613,76.0,4,90,10.0,0.0
9614,72.0,17,90,11.0,0.0
9615,72.0,1,60,12.0,0.0
9616,89.0,2,60,0.0,0.0
9617,81.0,2,60,1.0,0.0
9618,65.0,54,60,2.0,0.0
9619,77.0,0,60,2.0,0.0
9620,65.0,3,120,13.0,0.0
9621,53.0,44,120,14.0,0.0
9622,77.0,4,90,10.0,0.0
9623,69.0,10,90,11.0,0.0
9624,65.0,1,60,12.0,0.0
9625,74.0,4,90,10.0,0.0
9626,86.0,2,60,0.0,0.0
9627,82.0,2,60,1.0,0.0
9628,70.0,50,90,11.0,0.0
9629,70.0,14,60,2.0,0.0
9630,74.0,0,60,2.0,0.0
9631,70.0,1,60,12.0,0.0
9632,58.0,3,120,13.0,0.0
9633,46.0,22,120,14.0,0.0
9634,76.0,4,90,10.0,0.0
9635,65.0,17,90,11.0,0.0
9636,70.0,1,60,12.0,0.0
9637,86.0,2,60,0.0,0.0
9638,82.0,2,60,1.0,0.0
9639,70.0,0,60,2.0,0.0
9640,74.0,54,60,2.0,0.0
9641,74.0,4,90,10.0,0.0
9642,70.0,57,90,11.0,0.0
9643,70.0,1,60,12.0,0.0
9644,76.0,4,90,10.0,0.0
9645,86.0,2,60,0.0,0.0
9646,82.0,2,60,1.0,0.0
9647,65.0,75,90,11.0,0.0
9648,74.0,0,60,2.0,0.0
9649,70.0,14,60,2.0,0.0
9650,70.0,1,60,12.0,0.0
9651,74.0,4,90,10.0,0.0
9652,70.0,17,90,11.0,0.0
9653,70.0,1,60,12.0,0.0
9654,88.0,2,60,0.0,0.0
9655,80.0,2,60,1.0,0.0
9656,76.0,54,60,2.0,0.0
9657,64.0,0,60,2.0,0.0
9658,64.0,3,120,13.0,0.0
9659,52.0,44,120,14.0,0.0
9660,76.0,4,90,10.0,0.0
9661,68.0,10,90,11.0,0.0
9662,64.0,1,60,12.0,0.0
9663,72.0,4,90,10.0,0.0
9664,84.0,2,60,0.0,0.0
9665,81.0,2,60,1.0,0.0
9666,69.0,50,90,11.0,0.0
9667,72.0,14,60,2.0,0.0
9668,69.0,0,60,2.0,0.0
9669,69.0,1,60,12.0,0.0
9670,57.0,3,120,13.0,0.0
9671,45.0,22,120,14.0,0.0
9672,74.0,4,90,10.0,0.0
9673,64.0,17,90,11.0,0.0
9674,69.0,1,60,12.0,0.0
9675,84.0,2,60,0.0,0.0
9676,81.0,2,60,1.0,0.0
9677,69.0,54,60,2.0,0.0
9678,72.0,0,60,2.0,0.0
9679,72.0,4,90,10.0,0.0
9680,69.0,57,90,11.0,0.0
9681,69.0,1,60,12.0,0.0
9682,74.0,4,90,10.0,0.0
9683,84.0,2,60,0.0,0.0
9684,81.0,2,60,1.0,0.0
9685,64.0,75,90,11.0,0.0
9686,72.0,14,60,2.0,0.0
9687,69.0,0,60,2.0,0.0
9688,69.0,1,60,12.0,0.0
9689,72.0,4,90,10.0,0.0
9690,69.0,17,90,11.0,0.0
9691,69.0,1,60,12.0,0.0
9692,86.0,2,60,0.0,0.0
9693,78.0,2,60,1.0,0.0
9694,62.0,11,60,2.0,0.0
9695,74.0,0,60,2.0,0.0
9696,62.0,3,120,13.0,0.0
9697,62.0,43,60,3.0,0.0
9698,50.0,44,120,14.0,0.0
9699,74.0,4,90,10.0,0.0
9700,66.0,10,90,11.0,0.0
9701,62.0,1,60,12.0,0.0
9702,70.0,4,90,10.0,0.0
9703,82.0,2,60,0.0,0.0
9704,79.0,2,60,1.0,0.0
9705,67.0,50,90,11.0,0.0
9706,70.0,0,60,2.0,0.0
9707,67.0,11,60,2.0,0.0
9708,67.0,1,60,12.0,0.0
9709,55.0,3,120,13.0,0.0
9710,67.0,3,60,3.0,0.0
9711,43.0,22,120,14.0,0.0
9712,72.0,4,90,10.0,0.0
9713,62.0,17,90,11.0,0.0
9714,67.0,1,60,12.0,0.0
9715,82.0,2,60,0.0,0.0
9716,79.0,2,60,1.0,0.0
9717,67.0,0,60,2.0,0.0
9718,70.0,11,60,2.0,0.0
9719,67.0,43,60,3.0,0.0
9720,70.0,4,90,10.0,0.0
9721,67.0,57,90,11.0,0.0
9722,67.0,1,60,12.0,0.0
9723,72.0,4,90,10.0,0.0
9724,82.0,2,60,0.0,0.0
9725,79.0,2,60,1.0,0.0
9726,62.0,75,90,11.0,0.0
9727,70.0,0,60,2.0,0.0
9728,67.0,11,60,2.0,0.0
9729,67.0,1,60,12.0,0.0
9730,67.0,3,60,3.0,0.0
9731,70.0,4,90,10.0,0.0
9732,67.0,17,90,11.0,0.0
9733,67.0,1,60,12.0,0.0
9734,84.0,2,60,0.0,0.0
9735,76.0,2,60,1.0,0.0
9736,60.0,11,60,2.0,0.0
9737,72.0,0,60,2.0,0.0
9738,60.0,3,120,13.0,0.0
9739,60.0,43,60,3.0,0.0
9740,48.0,99,120,14.0,0.0
9741,72.0,4,90,10.0,0.0
9742,64.0,10,90,11.0,0.0
9743,60.0,1,60,12.0,0.0
9744,69.0,1,120,10.0,0.0
9745,81.0,2,120,0.0,0.0
9746,77.0,0,120,0.0,0.0
9747,81.0,0,120,1.0,0.0
9748,77.0,1,120,1.0,0.0
9749,77.0,0,120,6.0,0.0
9750,65.0,5,120,11.0,0.0
9751,65.0,0,120,4.0,0.0
9752,65.0,0,120,2.0,0.0
9753,69.0,3,120,2.0,0.0
9754,53.0,0,120,12.0,0.0
9755,53.0,0,120,5.0,0.0
9756,53.0,2,120,13.0,0.0
9757,57.0,1,120,3.0,0.0
9758,53.0,0,120,3.0,0.0
9759,41.0,6,120,14.0,0.0
9760,81.0,5,240,10.0,0.0
9761,77.0,2,120,0.0,0.0
9762,81.0,0,120,0.0,0.0
9763,65.0,1,15,6.0,0.0
9764,77.0,1,120,6.0,0.0
9765,77.0,2,120,1.0,0.0
9766,81.0,0,120,1.0,0.0
9767,77.0,4,240,11.0,0.0
9768,65.0,5,120,4.0,0.0
9769,69.0,0,120,2.0,0.0
9770,65.0,3,120,2.0,0.0
9771,65.0,6,240,12.0,0.0
9772,53.0,2,120,5.0,0.0
9773,53.0,3,240,13.0,0.0
9774,53.0,0,120,3.0,0.0
9775,57.0,7,120,3.0,0.0
9776,41.0,47,240,14.0,0.0
9777,41.0,98,15,15.0,0.0
9778,79.0,5,60,10.0,0.0
9779,78.0,2,120,0.0,0.0
9780,81.0,0,120,0.0,0.0
9781,78.0,0,120,1.0,0.0
9782,81.0,1,120,1.0,0.0
9783,76.0,52,60,11.0,0.0
9784,69.0,3,120,2.0,0.0
9785,66.0,0,120,2.0,0.0
9786,62.0,1,120,12.0,0.0
9787,50.0,2,120,13.0,0.0
9788,57.0,0,120,3.0,0.0
9789,54.0,1,120,3.0,0.0
9790,38.0,47,120,14.0,0.0
9791,81.0,1,60,10.0,0.0
9792,78.0,5,60,11.0,0.0
9793,82.0,5,60,10.0,0.0
9794,82.0,0,120,0.0,0.0
9795,79.0,2,120,0.0,0.0
9796,82.0,0,120,1.0,0.0
9797,79.0,2,120,1.0,0.0
9798,79.0,52,60,11.0,0.0
9799,67.0,3,120,2.0,0.0
9800,70.0,0,120,2.0,0.0
9801,67.0,1,120,12.0,0.0
9802,67.0,0,120,5.0,0.0
9803,55.0,2,120,13.0,0.0
9804,58.0,0,120,3.0,0.0
9805,55.0,1,120,3.0,0.0
9806,43.0,104,120,14.0,0.0
9807,82.0,5,240,10.0,0.0
9808,79.0,2,120,0.0,0.0
9809,82.0,0,120,0.0,0.0
9810,79.0,2,120,1.0,0.0
9811,82.0,0,120,1.0,0.0
9812,79.0,4,240,11.0,0.0
9813,67.0,5,15,4.0,0.0
9814,70.0,0,120,2.0,0.0
9815,67.0,4,120,2.0,0.0
9816,55.0,6,240,12.0,0.0
9817,67.0,2,120,5.0,0.0
9818,55.0,3,240,13.0,0.0
9819,58.0,0,120,3.0,0.0
9820,55.0,103,120,3.0,0.0
9821,43.0,47,240,14.0,0.0
9822,81.0,5,60,10.0,0.0
9823,83.0,0,120,0.0,0.0
9824,80.0,2,120,0.0,0.0
9825,83.0,0,120,1.0,0.0
9826,80.0,1,120,1.0,0.0
9827,78.0,52,60,11.0,0.0
9828,68.0,3,120,2.0,0.0
9829,71.0,0,120,2.0,0.0
9830,52.0,1,120,12.0,0.0
9831,52.0,2,120,13.0,0.0
9832,56.0,1,120,3.0,0.0
9833,59.0,0,120,3.0,0.0
9834,40.0,47,120,14.0,0.0
9835,83.0,1,60,10.0,0.0
9836,80.0,5,60,11.0,0.0
9837,84.0,5,60,10.0,0.0
9838,81.0,2,120,0.0,0.0
9839,84.0,0,120,0.0,0.0
9840,65.0,1,120,6.0,0.0
9841,77.0,0,120,6.0,0.0
9842,81.0,0,120,1.0,0.0
9843,84.0,2,120,1.0,0.0
9844,81.0,52,60,11.0,0.0
9845,72.0,0,120,2.0,0.0
9846,69.0,3,120,2.0,0.0
9847,57.0,0,120,12.0,0.0
9848,57.0,2,120,5.0,0.0
9849,57.0,0,120,13.0,0.0
9850,57.0,0,120,3.0,0.0
9851,60.0,1,120,3.0,0.0
9852,45.0,6,120,14.0,0.0
9853,53.0,98,120,15.0,0.0
9854,84.0,5,240,10.0,0.0
9855,81.0,2,120,0.0,0.0
9856,84.0,0,120,0.0,0.0
9857,81.0,2,120,1.0,0.0
9858,84.0,0,120,1.0,0.0
9859,65.0,0,120,6.0,0.0
9860,77.0,1,120,6.0,0.0
9861,69.0,5,15,4.0,0.0
9862,81.0,4,240,11.0,0.0
9863,72.0,0,120,2.0,0.0
9864,69.0,3,120,2.0,0.0
9865,69.0,6,240,12.0,0.0
9866,57.0,2,120,5.0,0.0
9867,57.0,3,240,13.0,0.0
9868,57.0,0,120,3.0,0.0
9869,60.0,7,120,3.0,0.0
9870,45.0,47,240,14.0,0.0
9871,53.0,96,120,15.0,0.0
9872,82.0,5,60,10.0,0.0
9873,84.0,0,120,0.0,0.0
9874,81.0,2,120,0.0,0.0
9875,84.0,0,120,1.0,0.0
9876,81.0,1,120,1.0,0.0
9877,65.0,0,120,6.0,0.0
9878,79.0,52,60,11.0,0.0
9879,65.0,0,120,4.0,0.0
9880,69.0,0,120,2.0,0.0
9881,72.0,3,120,2.0,0.0
9882,65.0,0,120,12.0,0.0
9883,53.0,0,120,5.0,0.0
9884,53.0,2,120,13.0,0.0
9885,57.0,0,120,3.0,0.0
9886,60.0,1,120,3.0,0.0
9887,41.0,6,120,14.0,0.0
9888,53.0,41,120,15.0,0.0
9889,84.0,1,60,10.0,0.0
9890,81.0,5,60,11.0,0.0
9891,86.0,5,60,10.0,0.0
9892,82.0,2,120,0.0,0.0
9893,86.0,0,120,0.0,0.0
9894,65.0,1,120,6.0,0.0
9895,86.0,2,120,1.0,0.0
9896,82.0,0,120,1.0,0.0
9897,77.0,1,15,6.0,0.0
9898,65.0,5,120,4.0,0.0
9899,82.0,52,60,11.0,0.0
9900,70.0,0,120,2.0,0.0
9901,74.0,3,120,2.0,0.0
9902,70.0,0,120,12.0,0.0
9903,53.0,0,120,5.0,0.0
9904,58.0,2,120,13.0,0.0
9905,58.0,1,120,3.0,0.0
9906,62.0,0,120,3.0,0.0
9907,46.0,6,120,14.0,0.0
9908,53.0,98,120,15.0,0.0
9909,86.0,5,240,10.0,0.0
9910,82.0,0,120,0.0,0.0
9911,86.0,2,120,0.0,0.0
9912,82.0,0,120,1.0,0.0
9913,86.0,2,120,1.0,0.0
9914,65.0,0,120,6.0,0.0
9915,77.0,1,120,6.0,0.0
9916,82.0,4,240,11.0,0.0
9917,65.0,5,120,4.0,0.0
9918,74.0,3,120,2.0,0.0
9919,70.0,0,120,2.0,0.0
9920,58.0,6,240,12.0,0.0
9921,53.0,2,120,5.0,0.0
9922,58.0,3,240,13.0,0.0
9923,62.0,7,120,3.0,0.0
9924,58.0,0,120,3.0,0.0
9925,46.0,47,240,14.0,0.0
9926,53.0,96,120,15.0,0.0
9927,84.0,5,60,10.0,0.0
9928,86.0,2,120,0.0,0.0
9929,74.0,0,120,1.0,0.0
9930,83.0,1,120,1.0,0.0
9931,81.0,52,60,11.0,0.0
9932,67.0,0,120,4.0,0.0
9933,74.0,3,120,2.0,0.0
9934,71.0,0,120,2.0,0.0
9935,55.0,1,120,12.0,0.0
9936,67.0,0,120,5.0,0.0
9937,55.0,2,120,13.0,0.0
9938,62.0,1,120,3.0,0.0
9939,59.0,0,120,3.0,0.0
9940,43.0,19,120,14.0,0.0
9941,86.0,1,60,10.0,0.0
9942,83.0,5,60,11.0,0.0
9943,88.0,9,30,10.0,0.0
9944,88.0,2,60,0.0,0.0
9945,84.0,0,60,0.0,0.0
9946,76.0,0,60,1.0,0.0
9947,79.0,1,60,1.0,0.0
9948,60.0,5,90,4.0,0.0
9949,84.0,1,60,11.0,0.0
9950,72.0,6,60,2.0,0.0
9951,76.0,0,60,2.0,0.0
9952,60.0,21,30,12.0,0.0
9953,48.0,12,90,5.0,0.0
9954,60.0,2,60,13.0,0.0
9955,60.0,1,60,3.0,0.0
9956,64.0,0,60,3.0,0.0
9957,48.0,3,60,14.0,0.0
9958,88.0,3,30,10.0,0.0
9959,60.0,14,30,12.0,0.0
9960,88.0,9,30,10.0,0.0
9961,60.0,31,30,12.0,0.0
9962,76.0,5,30,10.0,0.0
9963,84.0,0,60,0.0,0.0
9964,88.0,2,60,0.0,0.0
9965,76.0,0,60,1.0,0.0
9966,79.0,2,60,1.0,0.0
9967,64.0,4,30,11.0,0.0
9968,60.0,5,90,4.0,0.0
9969,72.0,6,60,2.0,0.0
9970,76.0,0,60,2.0,0.0
9971,48.0,21,30,12.0,0.0
9972,48.0,12,90,5.0,0.0
9973,48.0,2,60,13.0,0.0
9974,60.0,0,60,3.0,0.0
9975,64.0,1,60,3.0,0.0
9976,36.0,3,60,14.0,0.0
9977,76.0,3,30,10.0,0.0
9978,64.0,0,30,11.0,0.0
9979,48.0,14,30,12.0,0.0
9980,76.0,5,30,10.0,0.0
9981,64.0,4,30,11.0,0.0
9982,48.0,31,30,12.0,0.0
9983,88.0,5,30,10.0,0.0
9984,84.0,0,60,0.0,0.0
9985,88.0,2,60,0.0,0.0
9986,79.0,0,60,1.0,0.0
9987,76.0,2,60,1.0,0.0
9988,76.0,4,30,11.0,0.0
9989,60.0,5,90,4.0,0.0
9990,72.0,0,60,2.0,0.0
9991,76.0,6,60,2.0,0.0
9992,60.0,21,30,12.0,0.0
9993,48.0,12,90,5.0,0.0
9994,60.0,2,60,13.0,0.0
9995,60.0,1,60,3.0,0.0
9996,64.0,0,60,3.0,0.0
9997,48.0,3,60,14.0,0.0
9998,88.0,3,30,10.0,0.0
9999,76.0,0,30,11.0,0.0
10000,60.0,14,30,12.0,0.0
10001,88.0,5,30,10.0,0.0
10002,76.0,4,30,11.0,0.0
10003,60.0,31,30,12.0,0.0
10004,89.0,5,30,10.0,0.0
10005,84.0,2,60,0.0,0.0
10006,89.0,0,60,0.0,0.0
10007,81.0,2,60,1.0,0.0
10008,77.0,0,60,1.0,0.0
10009,65.0,5,90,4.0,0.0
10010,77.0,4,30,11.0,0.0
10011,72.0,6,60,2.0,0.0
10012,77.0,0,60,2.0,0.0
10013,57.0,21,30,12.0,0.0
10014,53.0,12,90,5.0,0.0
10015,57.0,2,60,13.0,0.0
10016,60.0,0,60,3.0,0.0
10017,65.0,1,60,3.0,0.0
10018,45.0,3,60,14.0,0.0
10019,53.0,13,120,15.0,0.0
10020,89.0,3,30,10.0,0.0
10021,77.0,0,30,11.0,0.0
10022,57.0,14,30,12.0,0.0
10023,89.0,5,30,10.0,0.0
10024,77.0,4,30,11.0,0.0
10025,57.0,18,30,12.0,0.0
10026,86.0,5,30,10.0,0.0
10027,86.0,0,60,0.0,0.0
10028,82.0,2,60,0.0,0.0
10029,77.0,0,90,6.0,0.0
10030,65.0,1,90,6.0,0.0
10031,74.0,2,60,1.0,0.0
10032,77.0,0,60,1.0,0.0
10033,74.0,4,30,11.0,0.0
10034,65.0,5,90,4.0,0.0
10035,74.0,0,60,2.0,0.0
10036,70.0,6,60,2.0,0.0
10037,58.0,21,30,12.0,0.0
10038,53.0,12,90,5.0,0.0
10039,58.0,2,60,13.0,0.0
10040,62.0,1,60,3.0,0.0
10041,58.0,0,60,3.0,0.0
10042,46.0,3,60,14.0,0.0
10043,86.0,3,30,10.0,0.0
10044,74.0,0,30,11.0,0.0
10045,58.0,13,30,12.0,0.0
10046,86.0,5,30,10.0,0.0
10047,74.0,4,30,11.0,0.0
10048,58.0,18,30,12.0,0.0
10049,74.0,5,30,10.0,0.0
10050,86.0,2,60,0.0,0.0
10051,82.0,0,60,0.0,0.0
10052,77.0,0,60,1.0,0.0
10053,74.0,2,60,1.0,0.0
10054,77.0,0,90,6.0,0.0
10055,65.0,1,90,6.0,0.0
10056,62.0,4,30,11.0,0.0
10057,65.0,5,90,4.0,0.0
10058,74.0,6,60,2.0,0.0
10059,70.0,0,60,2.0,0.0
10060,65.0,21,30,12.0,0.0
10061,53.0,12,90,5.0,0.0
10062,46.0,2,60,13.0,0.0
10063,62.0,0,60,3.0,0.0
10064,58.0,0,60,3.0,0.0
10065,34.0,3,60,14.0,0.0
10066,53.0,13,15,15.0,0.0
10067,74.0,3,30,10.0,0.0
10068,62.0,1,30,11.0,0.0
10069,65.0,13,30,12.0,0.0
10070,74.0,5,30,10.0,0.0
10071,62.0,4,30,11.0,0.0
10072,65.0,18,30,12.0,0.0
10073,86.0,5,30,10.0,0.0
10074,82.0,2,60,0.0,0.0
10075,86.0,0,60,0.0,0.0
10076,77.0,1,90,6.0,0.0
10077,65.0,0,90,6.0,0.0
10078,74.0,2,60,1.0,0.0
10079,77.0,0,60,1.0,0.0
10080,74.0,4,30,11.0,0.0
10081,65.0,5,90,4.0,0.0
10082,70.0,0,60,2.0,0.0
10083,74.0,6,60,2.0,0.0
10084,58.0,21,30,12.0,0.0
10085,53.0,12,90,5.0,0.0
10086,58.0,2,60,13.0,0.0
10087,62.0,1,60,3.0,0.0
10088,58.0,0,60,3.0,0.0
10089,46.0,3,60,14.0,0.0
10090,53.0,13,15,15.0,0.0
10091,86.0,3,30,10.0,0.0
10092,74.0,0,30,11.0,0.0
10093,58.0,13,30,12.0,0.0
10094,86.0,5,30,10.0,0.0
10095,74.0,4,30,11.0,0.0
10096,58.0,18,30,12.0,0.0
10097,88.0,5,30,10.0,0.0
10098,83.0,0,60,0.0,0.0
10099,88.0,2,60,0.0,0.0
10100,83.0,2,60,1.0,0.0
10101,76.0,0,60,1.0,0.0
10102,76.0,4,30,11.0,0.0
10103,76.0,6,60,2.0,0.0
10104,71.0,0,60,2.0,0.0
10105,59.0,21,30,12.0,0.0
10106,56.0,2,60,13.0,0.0
10107,64.0,1,60,3.0,0.0
10108,59.0,0,60,3.0,0.0
10109,44.0,3,60,14.0,0.0
10110,88.0,3,30,10.0,0.0
10111,76.0,0,30,11.0,0.0
10112,59.0,31,30,12.0,0.0
10113,88.0,5,30,10.0,0.0
10114,76.0,4,30,11.0,0.0
10115,59.0,31,30,12.0,0.0
10116,84.0,5,30,10.0,0.0
10117,84.0,0,60,0.0,0.0
10118,81.0,2,60,0.0,0.0
10119,72.0,2,60,1.0,0.0
10120,76.0,0,60,1.0,0.0
10121,72.0,4,30,11.0,0.0
10122,72.0,6,60,2.0,0.0
10123,69.0,0,60,2.0,0.0
10124,64.0,21,30,12.0,0.0
10125,57.0,2,60,13.0,0.0
10126,57.0,0,60,3.0,0.0
10127,60.0,1,60,3.0,0.0
10128,45.0,3,60,14.0,0.0
10129,53.0,13,120,15.0,0.0
10130,84.0,3,30,10.0,0.0
10131,72.0,0,30,11.0,0.0
10132,64.0,31,30,12.0,0.0
10133,84.0,5,30,10.0,0.0
10134,72.0,4,30,11.0,0.0
10135,64.0,18,30,12.0,0.0
10136,72.0,5,30,10.0,0.0
10137,84.0,2,60,0.0,0.0
10138,81.0,0,60,0.0,0.0
10139,72.0,2,60,1.0,0.0
10140,76.0,0,60,1.0,0.0
10141,60.0,4,30,11.0,0.0
10142,72.0,6,60,2.0,0.0
10143,69.0,0,60,2.0,0.0
10144,57.0,21,30,12.0,0.0
10145,45.0,2,60,13.0,0.0
10146,57.0,1,60,3.0,0.0
10147,60.0,0,60,3.0,0.0
10148,33.0,3,60,14.0,0.0
10149,53.0,13,120,15.0,0.0
10150,72.0,3,30,10.0,0.0
10151,60.0,0,30,11.0,0.0
10152,57.0,31,30,12.0,0.0
10153,72.0,5,30,10.0,0.0
10154,60.0,4,30,11.0,0.0
10155,57.0,18,30,12.0,0.0
10156,84.0,5,30,10.0,0.0
10157,84.0,0,60,0.0,0.0
10158,81.0,2,60,0.0,0.0
10159,75.0,2,60,1.0,0.0
10160,72.0,0,60,1.0,0.0
10161,72.0,4,30,11.0,0.0
10162,69.0,6,60,2.0,0.0
10163,72.0,0,60,2.0,0.0
10164,63.0,21,30,12.0,0.0
10165,57.0,2,60,13.0,0.0
10166,60.0,0,60,3.0,0.0
10167,57.0,0,60,3.0,0.0
10168,45.0,3,60,14.0,0.0
10169,53.0,13,120,15.0,0.0
10170,84.0,3,30,10.0,0.0
10171,72.0,1,30,11.0,0.0
10172,63.0,31,30,12.0,0.0
10173,84.0,5,30,10.0,0.0
10174,72.0,4,30,11.0,0.0
10175,63.0,18,30,12.0,0.0
10176,86.0,5,30,10.0,0.0
10177,86.0,0,60,0.0,0.0
10178,81.0,2,60,0.0,0.0
10179,81.0,0,60,1.0,0.0
10180,74.0,2,60,1.0,0.0
10181,69.0,1,90,6.0,0.0
10182,81.0,0,90,6.0,0.0
10183,69.0,5,90,4.0,0.0
10184,74.0,4,30,11.0,0.0
10185,74.0,6,60,2.0,0.0
10186,69.0,0,60,2.0,0.0
10187,62.0,21,30,12.0,0.0
10188,57.0,12,90,5.0,0.0
10189,54.0,2,60,13.0,0.0
10190,62.0,0,60,3.0,0.0
10191,57.0,0,60,3.0,0.0
10192,42.0,3,60,14.0,0.0
10193,86.0,3,30,10.0,0.0
10194,74.0,1,30,11.0,0.0
10195,62.0,13,30,12.0,0.0
10196,86.0,5,30,10.0,0.0
10197,74.0,4,30,11.0,0.0
10198,62.0,31,30,12.0,0.0
10199,82.0,5,30,10.0,0.0
10200,82.0,2,60,0.0,0.0
10201,79.0,0,60,0.0,0.0
10202,70.0,0,60,1.0,0.0
10203,74.0,2,60,1.0,0.0
10204,79.0,1,90,6.0,0.0
10205,70.0,4,30,11.0,0.0
10206,67.0,5,90,4.0,0.0
10207,67.0,0,60,2.0,0.0
10208,70.0,6,60,2.0,0.0
10209,62.0,21,30,12.0,0.0
10210,67.0,12,90,5.0,0.0
10211,55.0,2,60,13.0,0.0
10212,58.0,0,60,3.0,0.0
10213,55.0,1,60,3.0,0.0
10214,43.0,3,60,14.0,0.0
10215,82.0,3,30,10.0,0.0
10216,70.0,0,30,11.0,0.0
10217,62.0,13,30,12.0,0.0
10218,82.0,5,30,10.0,0.0
10219,70.0,4,30,11.0,0.0
10220,62.0,31,30,12.0,0.0
10221,70.0,5,30,10.0,0.0
10222,79.0,2,60,0.0,0.0
10223,82.0,0,60,0.0,0.0
10224,79.0,1,90,6.0,0.0
10225,74.0,0,60,1.0,0.0
10226,70.0,2,60,1.0,0.0
10227,67.0,5,90,4.0,0.0
10228,58.0,4,30,11.0,0.0
10229,70.0,6,60,2.0,0.0
10230,67.0,0,60,2.0,0.0
10231,55.0,21,30,12.0,0.0
10232,67.0,12,90,5.0,0.0
10233,43.0,2,60,13.0,0.0
10234,55.0,0,60,3.0,0.0
10235,58.0,1,60,3.0,0.0
10236,31.0,3,60,14.0,0.0
10237,70.0,3,30,10.0,0.0
10238,58.0,0,30,11.0,0.0
10239,55.0,13,30,12.0,0.0
10240,70.0,5,30,10.0,0.0
10241,58.0,4,30,11.0,0.0
10242,55.0,31,30,12.0,0.0
10243,82.0,5,30,10.0,0.0
10244,82.0,0,60,0.0,0.0
10245,79.0,2,60,0.0,0.0
10246,73.0,0,60,1.0,0.0
10247,70.0,2,60,1.0,0.0
10248,79.0,1,90,6.0,0.0
10249,70.0,4,30,11.0,0.0
10250,67.0,5,90,4.0,0.0
10251,67.0,0,60,2.0,0.0
10252,70.0,6,60,2.0,0.0
10253,61.0,21,30,12.0,0.0
10254,67.0,12,90,5.0,0.0
10255,55.0,2,60,13.0,0.0
10256,55.0,0,60,3.0,0.0
10257,58.0,0,60,3.0,0.0
10258,43.0,3,60,14.0,0.0
10259,82.0,3,30,10.0,0.0
10260,70.0,1,30,11.0,0.0
10261,61.0,13,30,12.0,0.0
10262,82.0,5,30,10.0,0.0
10263,70.0,4,30,11.0,0.0
10264,61.0,31,30,12.0,0.0
10265,84.0,5,30,10.0,0.0
10266,84.0,2,60,0.0,0.0
10267,60.0,1,90,6.0,0.0
10268,82.0,0,60,1.0,0.0
10269,79.0,2,60,1.0,0.0
10270,72.0,0,90,6.0,0.0
10271,72.0,4,30,11.0,0.0
10272,60.0,5,90,4.0,0.0
10273,70.0,0,60,2.0,0.0
10274,67.0,6,60,2.0,0.0
10275,60.0,21,30,12.0,0.0
10276,48.0,12,90,5.0,0.0
10277,52.0,2,60,13.0,0.0
10278,58.0,0,60,3.0,0.0
10279,55.0,1,60,3.0,0.0
10280,40.0,3,60,14.0,0.0
10281,84.0,3,30,10.0,0.0
10282,72.0,0,30,11.0,0.0
10283,60.0,13,30,12.0,0.0
10284,84.0,5,30,10.0,0.0
10285,72.0,4,30,11.0,0.0
10286,60.0,31,30,12.0,0.0
10287,82.0,5,30,10.0,0.0
10288,70.0,0,30,10.0,0.0
10289,79.0,0,960,1.0,0.0
10290,60.0,0,960,6.0,0.0
10291,72.0,1,960,6.0,0.0
10292,82.0,0,960,1.0,0.0
10293,79.0,4,30,11.0,0.0
10294,70.0,0,30,11.0,0.0
10295,60.0,1,960,4.0,0.0
10296,67.0,0,960,2.0,0.0
10297,70.0,4,960,2.0,0.0
10298,55.0,31,30,12.0,0.0
10299,58.0,0,30,12.0,0.0
10300,48.0,7,960,5.0,0.0
10301,52.0,2,60,13.0,0.0
10302,58.0,0,960,3.0,0.0
10303,55.0,15,960,3.0,0.0
10304,40.0,3,60,14.0,0.0
10305,70.0,3,30,10.0,0.0
10306,82.0,0,30,10.0,0.0
10307,79.0,0,30,11.0,0.0
10308,70.0,1,30,11.0,0.0
10309,58.0,0,30,12.0,0.0
10310,55.0,31,30,12.0,0.0
10311,82.0,0,30,10.0,0.0
10312,70.0,5,30,10.0,0.0
10313,79.0,4,30,11.0,0.0
10314,70.0,0,30,11.0,0.0
10315,58.0,0,30,12.0,0.0
10316,55.0,31,30,12.0,0.0
10317,82.0,5,30,10.0,0.0
10318,70.0,0,30,10.0,0.0
10319,79.0,4,30,11.0,0.0
10320,70.0,0,30,11.0,0.0
10321,55.0,0,30,12.0,0.0
10322,58.0,31,30,12.0,0.0
10323,48.0,2,60,13.0,0.0
10324,36.0,3,60,14.0,0.0
10325,82.0,0,30,10.0,0.0
10326,70.0,3,30,10.0,0.0
10327,70.0,1,30,11.0,0.0
10328,79.0,0,30,11.0,0.0
10329,55.0,31,30,12.0,0.0
10330,58.0,0,30,12.0,0.0
10331,70.0,0,30,10.0,0.0
10332,82.0,5,30,10.0,0.0
10333,79.0,0,30,11.0,0.0
10334,70.0,4,30,11.0,0.0
10335,55.0,31,30,12.0,0.0
10336,58.0,0,30,12.0,0.0
10337,82.0,5,30,10.0,0.0
10338,70.0,0,30,10.0,0.0
10339,70.0,0,30,11.0,0.0
10340,79.0,4,30,11.0,0.0
10341,58.0,31,30,12.0,0.0
10342,55.0,0,30,12.0,0.0
10343,67.0,2,60,13.0,0.0
10344,55.0,3,60,14.0,0.0
10345,70.0,3,30,10.0,0.0
10346,82.0,0,30,10.0,0.0
10347,79.0,1,30,11.0,0.0
10348,70.0,0,30,11.0,0.0
10349,55.0,31,30,12.0,0.0
10350,58.0,0,30,12.0,0.0
10351,82.0,0,30,10.0,0.0
10352,70.0,5,30,10.0,0.0
10353,79.0,0,30,11.0,0.0
10354,70.0,4,30,11.0,0.0
10355,58.0,31,30,12.0,0.0
10356,55.0,0,30,12.0,0.0
10357,82.0,5,30,10.0,0.0
10358,70.0,0,30,10.0,0.0
10359,79.0,0,30,11.0,0.0
10360,70.0,4,30,11.0,0.0
10361,58.0,31,30,12.0,0.0
10362,55.0,0,30,12.0,0.0
10363,64.0,2,60,13.0,0.0
10364,52.0,3,60,14.0,0.0
10365,70.0,0,30,10.0,0.0
10366,82.0,3,30,10.0,0.0
10367,70.0,0,30,11.0,0.0
10368,79.0,1,30,11.0,0.0
10369,55.0,31,30,12.0,0.0
10370,58.0,0,30,12.0,0.0
10371,70.0,0,30,10.0,0.0
10372,82.0,5,30,10.0,0.0
10373,79.0,4,30,11.0,0.0
10374,70.0,0,30,11.0,0.0
10375,55.0,31,30,12.0,0.0
10376,58.0,0,30,12.0,0.0
10377,70.0,5,30,10.0,0.0
10378,82.0,0,30,10.0,0.0
10379,79.0,4,30,11.0,0.0
10380,70.0,0,30,11.0,0.0
10381,58.0,0,30,12.0,0.0
10382,55.0,31,30,12.0,0.0
10383,64.0,2,60,13.0,0.0
10384,52.0,3,60,14.0,0.0
10385,70.0,0,30,10.0,0.0
10386,82.0,3,30,10.0,0.0
10387,70.0,0,30,11.0,0.0
10388,79.0,1,30,11.0,0.0
10389,55.0,0,30,12.0,0.0
10390,58.0,31,30,12.0,0.0
10391,70.0,0,30,10.0,0.0
10392,82.0,5,30,10.0,0.0
10393,70.0,4,30,11.0,0.0
10394,79.0,0,30,11.0,0.0
10395,58.0,31,30,12.0,0.0
10396,55.0,0,30,12.0,0.0
10397,70.0,5,30,10.0,0.0
10398,82.0,0,30,10.0,0.0
10399,70.0,0,30,11.0,0.0
10400,79.0,4,30,11.0,0.0
10401,58.0,31,30,12.0,0.0
10402,55.0,0,30,12.0,0.0
10403,60.0,2,60,13.0,0.0
10404,48.0,3,60,14.0,0.0
10405,70.0,3,30,10.0,0.0
10406,82.0,0,30,10.0,0.0
10407,79.0,0,30,11.0,0.0
10408,70.0,1,30,11.0,0.0
10409,55.0,0,30,12.0,0.0
10410,58.0,31,30,12.0,0.0
10411,82.0,0,30,10.0,0.0
10412,70.0,5,30,10.0,0.0
10413,79.0,4,30,11.0,0.0
10414,70.0,0,30,11.0,0.0
10415,55.0,31,30,12.0,0.0
10416,58.0,0,30,12.0,0.0
10417,82.0,5,30,10.0,0.0
10418,70.0,0,30,10.0,0.0
10419,70.0,4,30,11.0,0.0
10420,79.0,0,30,11.0,0.0
10421,58.0,31,30,12.0,0.0
10422,55.0,0,30,12.0,0.0
10423,60.0,2,60,13.0,0.0
10424,48.0,3,60,14.0,0.0
10425,70.0,3,30,10.0,0.0
10426,82.0,0,30,10.0,0.0
10427,79.0,1,30,11.0,0.0
10428,70.0,0,30,11.0,0.0
10429,55.0,0,30,12.0,0.0
10430,58.0,31,30,12.0,0.0
10431,70.0,0,30,10.0,0.0
10432,82.0,5,30,10.0,0.0
10433,70.0,4,30,11.0,0.0
10434,79.0,0,30,11.0,0.0
10435,58.0,0,30,12.0,0.0
10436,55.0,31,30,12.0,0.0
10437,70.0,0,30,10.0,0.0
10438,82.0,5,30,10.0,0.0
10439,70.0,4,30,11.0,0.0
10440,79.0,0,30,11.0,0.0
10441,58.0,0,30,12.0,0.0
10442,55.0,31,30,12.0,0.0
10443,48.0,2,60,13.0,0.0
10444,36.0,3,60,14.0,0.0
10445,82.0,3,30,10.0,0.0
10446,70.0,0,30,10.0,0.0
10447,79.0,0,30,11.0,0.0
10448,70.0,1,30,11.0,0.0
10449,55.0,0,30,12.0,0.0
10450,58.0,31,30,12.0,0.0
10451,70.0,0,30,10.0,0.0
10452,82.0,5,30,10.0,0.0
10453,70.0,4,30,11.0,0.0
10454,79.0,0,30,11.0,0.0
10455,58.0,0,30,12.0,0.0
10456,55.0,1,30,12.0,0.0
10457,81.0,0,30,10.0,0.0
10458,69.0,5,30,10.0,0.0
10459,84.0,2,15,0.0,0.0
10460,77.0,0,960,6.0,0.0
10461,65.0,1,960,6.0,0.0
10462,77.0,0,960,1.0,0.0
10463,81.0,0,960,1.0,0.0
10464,69.0,0,30,11.0,0.0
10465,77.0,4,30,11.0,0.0
10466,69.0,4,960,2.0,0.0
10467,65.0,0,960,2.0,0.0
10468,53.0,0,30,12.0,0.0
10469,57.0,31,30,12.0,0.0
10470,53.0,7,960,5.0,0.0
10471,60.0,2,60,13.0,0.0
10472,53.0,15,960,3.0,0.0
10473,57.0,0,960,3.0,0.0
10474,48.0,3,60,14.0,0.0
10475,69.0,3,30,10.0,0.0
10476,81.0,0,30,10.0,0.0
10477,77.0,1,30,11.0,0.0
10478,69.0,0,30,11.0,0.0
10479,57.0,31,30,12.0,0.0
10480,53.0,0,30,12.0,0.0
10481,69.0,5,30,10.0,0.0
10482,81.0,0,30,10.0,0.0
10483,69.0,4,30,11.0,0.0
10484,77.0,0,30,11.0,0.0
10485,53.0,0,30,12.0,0.0
10486,57.0,31,30,12.0,0.0
10487,69.0,5,30,10.0,0.0
10488,81.0,0,30,10.0,0.0
10489,69.0,0,30,11.0,0.0
10490,77.0,4,30,11.0,0.0
10491,57.0,31,30,12.0,0.0
10492,53.0,0,30,12.0,0.0
10493,53.0,2,60,13.0,0.0
10494,41.0,3,60,14.0,0.0
10495,69.0,0,30,10.0,0.0
10496,81.0,3,30,10.0,0.0
10497,77.0,0,30,11.0,0.0
10498,69.0,1,30,11.0,0.0
10499,53.0,0,30,12.0,0.0
10500,57.0,31,30,12.0,0.0
10501,81.0,5,30,10.0,0.0
10502,69.0,0,30,10.0,0.0
10503,77.0,0,30,11.0,0.0
10504,69.0,4,30,11.0,0.0
10505,57.0,31,30,12.0,0.0
10506,53.0,0,30,12.0,0.0
10507,81.0,0,30,10.0,0.0
10508,69.0,5,30,10.0,0.0
10509,69.0,4,30,11.0,0.0
10510,77.0,0,30,11.0,0.0
10511,57.0,31,30,12.0,0.0
10512,53.0,0,30,12.0,0.0
10513,63.0,2,60,13.0,0.0
10514,51.0,3,60,14.0,0.0
10515,81.0,0,30,10.0,0.0
10516,69.0,3,30,10.0,0.0
10517,69.0,1,30,11.0,0.0
10518,77.0,0,30,11.0,0.0
10519,57.0,0,30,12.0,0.0
10520,53.0,31,30,12.0,0.0
10521,69.0,5,30,10.0,0.0
10522,81.0,0,30,10.0,0.0
10523,77.0,0,30,11.0,0.0
10524,69.0,4,30,11.0,0.0
10525,57.0,0,30,12.0,0.0
10526,53.0,31,30,12.0,0.0
10527,81.0,0,30,10.0,0.0
10528,69.0,5,30,10.0,0.0
10529,69.0,0,30,11.0,0.0
10530,77.0,4,30,11.0,0.0
10531,53.0,0,30,12.0,0.0
10532,57.0,31,30,12.0,0.0
10533,60.0,2,60,13.0,0.0
10534,48.0,3,60,14.0,0.0
10535,81.0,3,30,10.0,0.0
10536,69.0,0,30,10.0,0.0
10537,77.0,0,30,11.0,0.0
10538,69.0,1,30,11.0,0.0
10539,53.0,31,30,12.0,0.0
10540,57.0,0,30,12.0,0.0
10541,81.0,0,30,10.0,0.0
10542,69.0,5,30,10.0,0.0
10543,77.0,0,30,11.0,0.0
10544,69.0,4,30,11.0,0.0
10545,53.0,31,30,12.0,0.0
10546,57.0,0,30,12.0,0.0
10547,69.0,5,30,10.0,0.0
10548,81.0,0,30,10.0,0.0
10549,77.0,0,30,11.0,0.0
10550,69.0,4,30,11.0,0.0
10551,57.0,0,30,12.0,0.0
10552,53.0,31,30,12.0,0.0
10553,60.0,2,60,13.0,0.0
10554,48.0,3,60,14.0,0.0
10555,81.0,3,30,10.0,0.0
10556,69.0,0,30,10.0,0.0
10557,69.0,0,30,11.0,0.0
10558,77.0,1,30,11.0,0.0
10559,53.0,31,30,12.0,0.0
10560,57.0,0,30,12.0,0.0
10561,69.0,0,30,10.0,0.0
10562,81.0,5,30,10.0,0.0
10563,69.0,4,30,11.0,0.0
10564,77.0,0,30,11.0,0.0
10565,57.0,31,30,12.0,0.0
10566,53.0,0,30,12.0,0.0
10567,81.0,5,30,10.0,0.0
10568,69.0,0,30,10.0,0.0
10569,77.0,0,30,11.0,0.0
10570,69.0,4,30,11.0,0.0
10571,53.0,0,30,12.0,0.0
10572,57.0,31,30,12.0,0.0
10573,53.0,2,60,13.0,0.0
10574,41.0,3,60,14.0,0.0
10575,81.0,0,30,10.0,0.0
10576,69.0,3,30,10.0,0.0
10577,69.0,1,30,11.0,0.0
10578,77.0,0,30,11.0,0.0
10579,57.0,31,30,12.0,0.0
10580,53.0,0,30,12.0,0.0
10581,69.0,5,30,10.0,0.0
10582,81.0,0,30,10.0,0.0
10583,77.0,0,30,11.0,0.0
10584,69.0,4,30,11.0,0.0
10585,53.0,31,30,12.0,0.0
10586,57.0,0,30,12.0,0.0
10587,69.0,0,30,10.0,0.0
10588,81.0,5,30,10.0,0.0
10589,77.0,4,30,11.0,0.0
10590,69.0,0,30,11.0,0.0
10591,53.0,31,30,12.0,0.0
10592,57.0,0,30,12.0,0.0
10593,53.0,2,60,13.0,0.0
10594,41.0,3,60,14.0,0.0
10595,69.0,0,30,10.0,0.0
10596,81.0,3,30,10.0,0.0
10597,69.0,0,30,11.0,0.0
10598,77.0,1,30,11.0,0.0
10599,57.0,0,30,12.0,0.0
10600,53.0,31,30,12.0,0.0
10601,81.0,5,30,10.0,0.0
10602,69.0,0,30,10.0,0.0
10603,77.0,0,30,11.0,0.0
10604,69.0,4,30,11.0,0.0
10605,57.0,31,30,12.0,0.0
10606,53.0,0,30,12.0,0.0
10607,69.0,0,30,10.0,0.0
10608,81.0,5,30,10.0,0.0
10609,77.0,0,30,11.0,0.0
10610,69.0,4,30,11.0,0.0
10611,57.0,31,30,12.0,0.0
10612,53.0,0,30,12.0,0.0
10613,41.0,2,60,13.0,0.0
10614,29.0,3,60,14.0,0.0
10615,81.0,0,30,10.0,0.0
10616,69.0,3,30,10.0,0.0
10617,77.0,1,30,11.0,0.0
10618,69.0,0,30,11.0,0.0
10619,53.0,31,30,12.0,0.0
10620,57.0,0,30,12.0,0.0
10621,69.0,5,30,10.0,0.0
10622,81.0,0,30,10.0,0.0
10623,77.0,4,30,11.0,0.0
10624,69.0,0,30,11.0,0.0
10625,53.0,0,30,12.0,0.0
10626,57.0,1,30,12.0,0.0
10627,86.0,0,30,10.0,0.0
10628,74.0,5,30,10.0,0.0
10629,86.0,0,240,0.0,0.0
10630,89.0,2,15,0.0,0.0
10631,82.0,0,960,1.0,0.0
10632,86.0,1,960,1.0,0.0
10633,77.0,0,960,6.0,0.0
10634,65.0,1,15,4.0,0.0
10635,74.0,0,30,11.0,0.0
10636,77.0,4,30,11.0,0.0
10637,74.0,0,960,2.0,0.0
10638,70.0,1,960,2.0,0.0
10639,62.0,31,30,12.0,0.0
10640,58.0,0,30,12.0,0.0
10641,65.0,1,960,5.0,0.0
10642,53.0,2,60,13.0,0.0
10643,58.0,12,960,3.0,0.0
10644,62.0,0,960,3.0,0.0
10645,41.0,1,60,14.0,0.0
10646,53.0,2,60,15.0,0.0
10647,74.0,3,30,10.0,0.0
10648,86.0,0,30,10.0,0.0
10649,74.0,0,30,11.0,0.0
10650,77.0,1,30,11.0,0.0
10651,62.0,0,30,12.0,0.0
10652,58.0,31,30,12.0,0.0
10653,53.0,13,60,15.0,0.0
10654,86.0,5,30,10.0,0.0
10655,74.0,0,30,10.0,0.0
10656,77.0,4,30,11.0,0.0
10657,74.0,0,30,11.0,0.0
10658,58.0,0,30,12.0,0.0
10659,62.0,18,30,12.0,0.0
10660,74.0,5,30,10.0,0.0
10661,86.0,0,30,10.0,0.0
10662,77.0,0,30,11.0,0.0
10663,74.0,4,30,11.0,0.0
10664,58.0,0,30,12.0,0.0
10665,62.0,31,30,12.0,0.0
10666,46.0,2,60,13.0,0.0
10667,34.0,1,60,14.0,0.0
10668,53.0,2,60,15.0,0.0
10669,86.0,0,30,10.0,0.0
10670,74.0,3,30,10.0,0.0
10671,74.0,1,30,11.0,0.0
10672,77.0,0,30,11.0,0.0
10673,58.0,0,30,12.0,0.0
10674,62.0,31,30,12.0,0.0
10675,53.0,13,60,15.0,0.0
10676,86.0,5,30,10.0,0.0
10677,74.0,0,30,10.0,0.0
10678,77.0,0,30,11.0,0.0
10679,74.0,4,30,11.0,0.0
10680,58.0,0,30,12.0,0.0
10681,62.0,1,30,12.0,0.0
10682,86.0,5,30,10.0,0.0
10683,74.0,0,30,10.0,0.0
10684,82.0,0,720,0.0,0.0
10685,86.0,0,720,0.0,0.0
10686,74.0,0,30,11.0,0.0
10687,82.0,4,30,11.0,0.0
10688,62.0,31,30,12.0,0.0
10689,58.0,0,30,12.0,0.0
10690,58.0,2,60,13.0,0.0
10691,46.0,1,60,14.0,0.0
10692,53.0,2,60,15.0,0.0
10693,86.0,3,30,10.0,0.0
10694,74.0,0,30,10.0,0.0
10695,82.0,1,30,11.0,0.0
10696,74.0,0,30,11.0,0.0
10697,62.0,31,30,12.0,0.0
10698,58.0,0,30,12.0,0.0
10699,86.0,5,30,10.0,0.0
10700,74.0,0,30,10.0,0.0
10701,74.0,4,30,11.0,0.0
10702,82.0,0,30,11.0,0.0
10703,62.0,0,30,12.0,0.0
10704,58.0,18,30,12.0,0.0
10705,74.0,0,30,10.0,0.0
10706,86.0,5,30,10.0,0.0
10707,74.0,4,30,11.0,0.0
10708,82.0,0,30,11.0,0.0
10709,58.0,0,30,12.0,0.0
10710,62.0,31,30,12.0,0.0
10711,53.0,2,60,13.0,0.0
10712,41.0,1,60,14.0,0.0
10713,53.0,13,15,15.0,0.0
10714,86.0,3,30,10.0,0.0
10715,74.0,0,30,10.0,0.0
10716,82.0,0,30,11.0,0.0
10717,74.0,1,30,11.0,0.0
10718,58.0,31,30,12.0,0.0
10719,62.0,0,30,12.0,0.0
10720,86.0,0,30,10.0,0.0
10721,74.0,5,30,10.0,0.0
10722,74.0,0,30,11.0,0.0
10723,82.0,4,30,11.0,0.0
10724,62.0,18,30,12.0,0.0
10725,58.0,0,30,12.0,0.0
10726,86.0,0,30,10.0,0.0
10727,74.0,5,30,10.0,0.0
10728,82.0,0,30,11.0,0.0
10729,74.0,4,30,11.0,0.0
10730,62.0,31,30,12.0,0.0
10731,58.0,0,30,12.0,0.0
10732,65.0,2,60,13.0,0.0
10733,53.0,1,60,14.0,0.0
10734,53.0,13,15,15.0,0.0
10735,86.0,0,30,10.0,0.0
10736,74.0,3,30,10.0,0.0
10737,82.0,0,30,11.0,0.0
10738,74.0,1,30,11.0,0.0
10739,58.0,0,30,12.0,0.0
10740,62.0,31,30,12.0,0.0
10741,53.0,2,15,15.0,0.0
10742,86.0,0,30,10.0,0.0
10743,74.0,5,30,10.0,0.0
10744,74.0,4,30,11.0,0.0
10745,82.0,0,30,11.0,0.0
10746,58.0,0,30,12.0,0.0
10747,62.0,18,30,12.0,0.0
10748,74.0,5,30,10.0,0.0
10749,86.0,0,30,10.0,0.0
10750,74.0,4,30,11.0,0.0
10751,82.0,0,30,11.0,0.0
10752,58.0,0,30,12.0,0.0
10753,62.0,31,30,12.0,0.0
10754,58.0,2,60,13.0,0.0
10755,46.0,1,60,14.0,0.0
10756,53.0,13,15,15.0,0.0
10757,74.0,3,30,10.0,0.0
10758,86.0,0,30,10.0,0.0
10759,74.0,1,30,11.0,0.0
10760,82.0,0,30,11.0,0.0
10761,62.0,31,30,12.0,0.0
10762,58.0,0,30,12.0,0.0
10763,53.0,2,15,15.0,0.0
10764,86.0,0,30,10.0,0.0
10765,74.0,5,30,10.0,0.0
10766,82.0,4,30,11.0,0.0
10767,74.0,0,30,11.0,0.0
10768,58.0,0,30,12.0,0.0
10769,62.0,18,30,12.0,0.0
10770,86.0,0,30,10.0,0.0
10771,74.0,5,30,10.0,0.0
10772,74.0,0,30,11.0,0.0
10773,82.0,4,30,11.0,0.0
10774,62.0,31,30,12.0,0.0
10775,58.0,0,30,12.0,0.0
10776,58.0,2,60,13.0,0.0
10777,46.0,1,60,14.0,0.0
10778,53.0,13,15,15.0,0.0
10779,74.0,3,30,10.0,0.0
10780,86.0,0,30,10.0,0.0
10781,82.0,0,30,11.0,0.0
10782,74.0,1,30,11.0,0.0
10783,58.0,0,30,12.0,0.0
10784,62.0,31,30,12.0,0.0
10785,53.0,13,60,15.0,0.0
10786,74.0,0,30,10.0,0.0
10787,86.0,5,30,10.0,0.0
10788,82.0,4,30,11.0,0.0
10789,74.0,0,30,11.0,0.0
10790,62.0,0,30,12.0,0.0
10791,58.0,18,30,12.0,0.0
10792,74.0,5,30,10.0,0.0
10793,86.0,0,30,10.0,0.0
10794,82.0,4,30,11.0,0.0
10795,74.0,0,30,11.0,0.0
10796,58.0,31,30,12.0,0.0
10797,62.0,0,30,12.0,0.0
10798,46.0,2,60,13.0,0.0
10799,34.0,1,60,14.0,0.0
10800,53.0,2,60,15.0,0.0
10801,74.0,0,30,10.0,0.0
10802,86.0,3,30,10.0,0.0
10803,82.0,0,30,11.0,0.0
10804,74.0,1,30,11.0,0.0
10805,62.0,0,30,12.0,0.0
10806,58.0,31,30,12.0,0.0
10807,74.0,0,30,10.0,0.0
10808,86.0,2,30,10.0,0.0
10809,74.0,0,30,11.0,0.0
10810,82.0,3,30,11.0,0.0
10811,62.0,6,30,12.0,0.0
10812,58.0,0,30,12.0,0.0
10813,74.0,5,60,10.0,0.0
10814,86.0,0,60,10.0,0.0
10815,86.0,2,120,0.0,0.0
10816,82.0,0,120,0.0,0.0
10817,77.0,0,120,6.0,0.0
10818,82.0,0,120,1.0,0.0
10819,86.0,1,120,1.0,0.0
10820,82.0,0,60,11.0,0.0
10821,74.0,4,60,11.0,0.0
10822,65.0,1,120,4.0,0.0
10823,74.0,4,120,2.0,0.0
10824,70.0,0,120,2.0,0.0
10825,58.0,0,60,12.0,0.0
10826,62.0,6,60,12.0,0.0
10827,65.0,7,120,5.0,0.0
10828,46.0,3,60,13.0,0.0
10829,58.0,2,120,3.0,0.0
10830,62.0,0,120,3.0,0.0
10831,34.0,44,60,14.0,0.0
10832,53.0,41,15,15.0,0.0
10833,62.0,40,30,12.0,0.0
10834,58.0,0,30,12.0,0.0
10835,62.0,0,30,12.0,0.0
10836,58.0,40,30,12.0,0.0
10837,62.0,40,30,12.0,0.0
10838,58.0,0,30,12.0,0.0
10839,62.0,0,30,12.0,0.0
10840,58.0,40,30,12.0,0.0
10841,62.0,40,30,12.0,0.0
10842,58.0,0,30,12.0,0.0
10843,58.0,130,30,12.0,0.0
10844,62.0,0,30,12.0,0.0
10845,62.0,0,120,12.0,0.0
10846,58.0,621,120,12.0,0.0
10847,74.0,5,30,10.0,0.0
10848,70.0,35,30,11.0,0.0
10849,74.0,5,30,10.0,0.0
10850,70.0,35,30,11.0,0.0
10851,74.0,5,30,10.0,0.0
10852,70.0,35,30,11.0,0.0
10853,74.0,5,30,10.0,0.0
10854,70.0,35,30,11.0,0.0
10855,74.0,5,30,10.0,0.0
10856,70.0,35,30,11.0,0.0
10857,74.0,5,30,10.0,0.0
10858,70.0,125,30,11.0,0.0
10859,74.0,5,120,10.0,0.0
10860,70.0,634,120,11.0,0.0
10861,58.0,0,30,12.0,0.0
10862,62.0,40,30,12.0,0.0
10863,58.0,40,30,12.0,0.0
10864,62.0,0,30,12.0,0.0
10865,58.0,0,30,12.0,0.0
10866,62.0,40,30,12.0,0.0
10867,62.0,0,30,12.0,0.0
10868,58.0,40,30,12.0,0.0
10869,58.0,0,30,12.0,0.0
10870,62.0,40,30,12.0,0.0
10871,62.0,0,30,12.0,0.0
10872,58.0,130,30,12.0,0.0
10873,58.0,621,120,12.0,0.0
10874,62.0,0,120,12.0,0.0
10875,74.0,5,30,10.0,0.0
10876,70.0,35,30,11.0,0.0
10877,74.0,5,30,10.0,0.0
10878,70.0,35,30,11.0,0.0
10879,74.0,5,30,10.0,0.0
10880,70.0,35,30,11.0,0.0
10881,74.0,5,30,10.0,0.0
10882,70.0,35,30,11.0,0.0
10883,74.0,5,30,10.0,0.0
10884,70.0,35,30,11.0,0.0
10885,74.0,5,30,10.0,0.0
10886,70.0,65,30,11.0,0.0
10887,74.0,5,60,10.0,0.0
10888,70.0,55,60,11.0,0.0
10889,75.0,5,60,10.0,0.0
10890,72.0,55,60,11.0,0.0
10891,72.0,5,60,10.0,0.0
10892,65.0,115,60,11.0,0.0
10893,74.0,5,60,10.0,0.0
10894,70.0,4,60,11.0,0.0
10895,62.0,0,60,12.0,0.0
10896,58.0,51,60,12.0,0.0
10897,75.0,5,60,10.0,0.0
10898,72.0,4,60,11.0,0.0
10899,63.0,0,60,12.0,0.0
10900,72.0,5,60,10.0,0.0
10901,65.0,4,60,11.0,0.0
10902,60.0,51,15,12.0,0.0
10903,53.0,0,60,12.0,0.0
10904,74.0,2,60,10.0,0.0
10905,86.0,0,60,0.0,0.0
10906,82.0,3,60,0.0,0.0
10907,70.0,1,60,11.0,0.0
10908,70.0,54,60,2.0,0.0
10909,74.0,0,60,2.0,0.0
10910,75.0,2,60,10.0,0.0
10911,87.0,3,60,0.0,0.0
10912,72.0,1,60,11.0,0.0
10913,72.0,54,60,2.0,0.0
10914,75.0,0,60,2.0,0.0
10915,72.0,2,60,10.0,0.0
10916,84.0,0,15,0.0,0.0
10917,77.0,0,60,0.0,0.0
10918,65.0,1,60,11.0,0.0
10919,65.0,0,60,2.0,0.0
10920,72.0,84,60,2.0,0.0
10921,75.0,5,30,10.0,0.0
10922,72.0,35,30,11.0,0.0
10923,75.0,5,30,10.0,0.0
10924,72.0,35,30,11.0,0.0
10925,75.0,5,30,10.0,0.0
10926,72.0,35,30,11.0,0.0
10927,75.0,5,30,10.0,0.0
10928,72.0,35,30,11.0,0.0
10929,75.0,5,30,10.0,0.0
10930,72.0,35,30,11.0,0.0
10931,75.0,5,30,10.0,0.0
10932,72.0,65,30,11.0,0.0
10933,75.0,5,60,10.0,0.0
10934,72.0,55,60,11.0,0.0
10935,77.0,5,60,10.0,0.0
10936,74.0,55,60,11.0,0.0
10937,74.0,5,60,10.0,0.0
10938,70.0,115,60,11.0,0.0
10939,75.0,5,60,10.0,0.0
10940,72.0,4,60,11.0,0.0
10941,63.0,0,60,12.0,0.0
10942,60.0,51,60,12.0,0.0
10943,77.0,5,60,10.0,0.0
10944,74.0,4,60,11.0,0.0
10945,65.0,0,60,12.0,0.0
10946,74.0,5,60,10.0,0.0
10947,70.0,4,60,11.0,0.0
10948,62.0,51,15,12.0,0.0
10949,58.0,111,60,12.0,0.0
10950,75.0,2,60,10.0,0.0
10951,87.0,3,60,0.0,0.0
10952,84.0,0,60,0.0,0.0
10953,72.0,1,60,11.0,0.0
10954,72.0,54,60,2.0,0.0
10955,75.0,0,60,2.0,0.0
10956,77.0,2,60,10.0,0.0
10957,89.0,3,60,0.0,0.0
10958,86.0,0,60,0.0,0.0
10959,74.0,1,60,11.0,0.0
10960,74.0,0,60,2.0,0.0
10961,77.0,54,60,2.0,0.0
10962,74.0,2,60,10.0,0.0
10963,82.0,0,60,0.0,0.0
10964,86.0,3,60,0.0,0.0
10965,70.0,1,60,11.0,0.0
10966,70.0,86,60,2.0,0.0
10967,74.0,0,60,2.0,0.0
10968,82.0,5,30,10.0,0.0
10969,77.0,4,30,11.0,0.0
10970,74.0,31,30,12.0,0.0
10971,82.0,5,30,10.0,0.0
10972,77.0,4,30,11.0,0.0
10973,74.0,31,30,12.0,0.0
10974,82.0,5,30,10.0,0.0
10975,77.0,4,30,11.0,0.0
10976,74.0,31,30,12.0,0.0
10977,82.0,5,30,10.0,0.0
10978,77.0,4,30,11.0,0.0
10979,74.0,31,30,12.0,0.0
10980,82.0,5,30,10.0,0.0
10981,77.0,4,30,11.0,0.0
10982,74.0,31,30,12.0,0.0
10983,82.0,5,30,10.0,0.0
10984,77.0,4,30,11.0,0.0
10985,74.0,59,30,12.0,0.0
10986,82.0,5,60,10.0,0.0
10987,77.0,4,60,11.0,0.0
10988,74.0,51,60,12.0,0.0
10989,84.0,5,60,10.0,0.0
10990,79.0,4,60,11.0,0.0
10991,75.0,51,60,12.0,0.0
10992,81.0,5,60,10.0,0.0
10993,75.0,4,60,11.0,0.0
10994,72.0,83,60,12.0,0.0
10995,84.0,5,30,10.0,0.0
10996,79.0,4,30,11.0,0.0
10997,75.0,6,30,12.0,0.0
10998,63.0,25,30,13.0,0.0
10999,84.0,5,30,10.0,0.0
11000,79.0,4,30,11.0,0.0
11001,75.0,6,30,12.0,0.0
11002,63.0,25,30,13.0,0.0
11003,84.0,5,30,10.0,0.0
11004,79.0,4,30,11.0,0.0
11005,75.0,6,30,12.0,0.0
11006,63.0,25,30,13.0,0.0
11007,84.0,5,30,10.0,0.0
11008,79.0,4,30,11.0,0.0
11009,75.0,6,30,12.0,0.0
11010,63.0,25,30,13.0,0.0
11011,84.0,5,30,10.0,0.0
11012,79.0,4,30,11.0,0.0
11013,75.0,6,30,12.0,0.0
11014,63.0,25,30,13.0,0.0
11015,84.0,5,30,10.0,0.0
11016,79.0,4,30,11.0,0.0
11017,75.0,6,30,12.0,0.0
11018,63.0,53,30,13.0,0.0
11019,84.0,5,60,10.0,0.0
11020,79.0,4,60,11.0,0.0
11021,75.0,6,60,12.0,0.0
11022,63.0,45,60,13.0,0.0
11023,86.0,5,60,10.0,0.0
11024,80.0,4,60,11.0,0.0
11025,77.0,6,60,12.0,0.0
11026,65.0,45,60,13.0,0.0
11027,83.0,5,60,10.0,0.0
11028,77.0,4,60,11.0,0.0
11029,74.0,6,60,12.0,0.0
11030,62.0,120,60,13.0,0.0
11031,64.0,3,60,13.0,0.0
11032,52.0,57,60,14.0,0.0
11033,65.0,3,60,13.0,0.0
11034,53.0,57,60,14.0,0.0
11035,62.0,3,60,13.0,0.0
11036,50.0,314,60,14.0,0.0
11037,74.0,5,30,10.0,0.0
11038,69.0,4,30,11.0,0.0
11039,65.0,31,30,12.0,0.0
11040,74.0,5,30,10.0,0.0
11041,69.0,4,30,11.0,0.0
11042,65.0,31,30,12.0,0.0
11043,74.0,5,30,10.0,0.0
11044,69.0,4,30,11.0,0.0
11045,65.0,31,30,12.0,0.0
11046,74.0,5,30,10.0,0.0
11047,69.0,4,30,11.0,0.0
11048,65.0,31,30,12.0,0.0
11049,74.0,5,30,10.0,0.0
11050,69.0,4,30,11.0,0.0
11051,65.0,31,30,12.0,0.0
11052,74.0,5,30,10.0,0.0
11053,69.0,4,30,11.0,0.0
11054,65.0,59,30,12.0,0.0
11055,74.0,5,60,10.0,0.0
11056,69.0,4,60,11.0,0.0
11057,65.0,51,60,12.0,0.0
11058,76.0,5,60,10.0,0.0
11059,70.0,4,60,11.0,0.0
11060,67.0,51,60,12.0,0.0
11061,73.0,5,60,10.0,0.0
11062,67.0,4,60,11.0,0.0
11063,64.0,126,60,12.0,0.0
11064,65.0,3,60,13.0,0.0
11065,53.0,57,60,14.0,0.0
11066,67.0,3,60,13.0,0.0
11067,55.0,57,60,14.0,0.0
11068,64.0,3,60,13.0,0.0
11069,52.0,767,60,14.0,0.0
11070,69.0,27,480,11.0,0.0
11071,69.0,40,30,10.0,0.0
11072,67.0,115,240,11.0,0.0
11073,69.0,40,30,10.0,0.0
11074,69.0,40,30,10.0,0.0
11075,69.0,40,30,10.0,0.0
11076,69.0,40,30,10.0,0.0
11077,69.0,13,30,10.0,0.0
11078,69.0,125,120,10.0,0.0
11079,65.0,27,240,11.0,0.0
11080,81.0,40,30,10.0,0.0
11081,64.0,115,240,11.0,0.0
11082,81.0,40,30,10.0,0.0
11083,81.0,40,30,10.0,0.0
11084,81.0,40,30,10.0,0.0
11085,81.0,40,30,10.0,0.0
11086,81.0,13,30,10.0,0.0
11087,81.0,125,120,10.0,0.0
11088,62.0,27,240,11.0,0.0
11089,81.0,40,30,10.0,0.0
11090,64.0,115,240,11.0,0.0
11091,81.0,40,30,10.0,0.0
11092,81.0,40,30,10.0,0.0
11093,81.0,40,30,10.0,0.0
11094,81.0,40,30,10.0,0.0
11095,81.0,13,30,10.0,0.0
11096,81.0,5,120,10.0,0.0
11097,69.0,5,2040,4.0,0.0
11098,57.0,372,120,11.0,0.0
11099,57.0,5,2040,5.0,0.0
11100,81.0,13,480,1.0,0.0
11101,57.0,0,240,3.0,0.0
11102,45.0,227,240,3.0,0.0
11103,59.0,30,240,3.0,0.0
11104,47.0,0,240,3.0,0.0
11105,79.0,3,240,1.0,0.0
11106,45.0,3,30,13.0,0.0
11107,61.0,118,240,3.0,0.0
11108,49.0,0,240,3.0,0.0
11109,33.0,37,30,14.0,0.0
11110,45.0,3,30,13.0,0.0
11111,33.0,37,30,14.0,0.0
11112,45.0,3,30,13.0,0.0
11113,33.0,37,30,14.0,0.0
11114,45.0,3,30,13.0,0.0
11115,33.0,37,30,14.0,0.0
11116,45.0,3,30,13.0,0.0
11117,33.0,34,30,14.0,0.0
11118,45.0,3,30,13.0,0.0
11119,33.0,7,30,14.0,0.0
11120,78.0,13,240,1.0,0.0
11121,45.0,3,120,13.0,0.0
11122,62.0,30,240,3.0,0.0
11123,50.0,0,240,3.0,0.0
11124,33.0,106,120,14.0,0.0
11125,88.0,2,240,0.0,0.0
11126,76.0,3,240,1.0,0.0
11127,57.0,3,30,13.0,0.0
11128,64.0,118,240,3.0,0.0
11129,52.0,0,240,3.0,0.0
11130,45.0,37,30,14.0,0.0
11131,57.0,3,30,13.0,0.0
11132,45.0,37,30,14.0,0.0
11133,57.0,3,30,13.0,0.0
11134,45.0,37,30,14.0,0.0
11135,57.0,3,30,13.0,0.0
11136,45.0,37,30,14.0,0.0
11137,57.0,3,30,13.0,0.0
11138,45.0,32,30,14.0,0.0
11139,57.0,3,30,13.0,0.0
11140,45.0,7,30,14.0,0.0
11141,86.0,2,240,0.0,0.0
11142,74.0,13,240,1.0,0.0
11143,57.0,3,120,13.0,0.0
11144,54.0,30,240,3.0,0.0
11145,66.0,0,240,3.0,0.0
11146,45.0,104,120,14.0,0.0
11147,88.0,2,240,0.0,0.0
11148,76.0,3,240,1.0,0.0
11149,57.0,3,30,13.0,0.0
11150,55.0,105,240,3.0,0.0
11151,67.0,0,240,3.0,0.0
11152,45.0,37,30,14.0,0.0
11153,57.0,3,30,13.0,0.0
11154,45.0,37,30,14.0,0.0
11155,57.0,3,30,13.0,0.0
11156,45.0,37,30,14.0,0.0
11157,57.0,3,30,13.0,0.0
11158,45.0,37,30,14.0,0.0
11159,57.0,3,30,13.0,0.0
11160,45.0,32,30,14.0,0.0
11161,57.0,3,30,13.0,0.0
11162,45.0,7,30,14.0,0.0
11163,81.0,2,120,0.0,0.0
11164,69.0,1,120,1.0,0.0
11165,57.0,2,120,13.0,0.0
11166,69.0,0,120,3.0,0.0
11167,57.0,1,120,3.0,0.0
11168,45.0,587,120,14.0,0.0
11169,69.0,27,480,11.0,0.0
11170,69.0,40,30,10.0,0.0
11171,67.0,115,240,11.0,0.0
11172,69.0,40,30,10.0,0.0
11173,69.0,40,30,10.0,0.0
11174,69.0,40,30,10.0,0.0
11175,69.0,40,30,10.0,0.0
11176,69.0,13,30,10.0,0.0
11177,69.0,125,120,10.0,0.0
11178,65.0,27,240,11.0,0.0
11179,81.0,40,30,10.0,0.0
11180,64.0,115,240,11.0,0.0
11181,81.0,40,30,10.0,0.0
11182,81.0,40,30,10.0,0.0
11183,81.0,40,30,10.0,0.0
11184,81.0,40,30,10.0,0.0
11185,81.0,13,30,10.0,0.0
11186,81.0,125,120,10.0,0.0
11187,62.0,27,240,11.0,0.0
11188,81.0,40,30,10.0,0.0
11189,64.0,115,240,11.0,0.0
11190,81.0,40,30,10.0,0.0
11191,81.0,40,30,10.0,0.0
11192,81.0,40,30,10.0,0.0
11193,81.0,40,30,10.0,0.0
11194,81.0,13,30,10.0,0.0
11195,81.0,5,120,10.0,0.0
11196,65.0,372,120,11.0,0.0
11197,65.0,1,2040,4.0,0.0
11198,53.0,5,2040,5.0,0.0
11199,89.0,4,480,0.0,0.0
11200,77.0,11,480,2.0,0.0
11201,53.0,225,240,3.0,0.0
11202,41.0,0,240,3.0,0.0
11203,43.0,0,240,3.0,0.0
11204,55.0,30,240,3.0,0.0
11205,87.0,4,240,0.0,0.0
11206,75.0,1,240,2.0,0.0
11207,41.0,3,30,13.0,0.0
11208,45.0,118,240,3.0,0.0
11209,57.0,0,240,3.0,0.0
11210,29.0,37,30,14.0,0.0
11211,41.0,3,30,13.0,0.0
11212,29.0,37,30,14.0,0.0
11213,41.0,3,30,13.0,0.0
11214,29.0,37,30,14.0,0.0
11215,41.0,3,30,13.0,0.0
11216,29.0,37,30,14.0,0.0
11217,41.0,3,30,13.0,0.0
11218,29.0,32,30,14.0,0.0
11219,41.0,3,30,13.0,0.0
11220,29.0,7,30,14.0,0.0
11221,86.0,4,240,0.0,0.0
11222,74.0,11,240,2.0,0.0
11223,41.0,3,120,13.0,0.0
11224,46.0,30,240,3.0,0.0
11225,58.0,0,240,3.0,0.0
11226,29.0,104,120,14.0,0.0
11227,84.0,4,240,0.0,0.0
11228,72.0,1,240,2.0,0.0
11229,53.0,3,30,13.0,0.0
11230,48.0,0,240,3.0,0.0
11231,60.0,118,240,3.0,0.0
11232,41.0,37,30,14.0,0.0
11233,53.0,3,30,13.0,0.0
11234,41.0,37,30,14.0,0.0
11235,53.0,3,30,13.0,0.0
11236,41.0,37,30,14.0,0.0
11237,53.0,3,30,13.0,0.0
11238,41.0,37,30,14.0,0.0
11239,53.0,3,30,13.0,0.0
11240,41.0,32,30,14.0,0.0
11241,53.0,3,30,13.0,0.0
11242,41.0,7,30,14.0,0.0
11243,82.0,4,240,0.0,0.0
11244,70.0,11,240,2.0,0.0
11245,53.0,3,120,13.0,0.0
11246,50.0,30,240,3.0,0.0
11247,62.0,0,240,3.0,0.0
11248,41.0,104,120,14.0,0.0
11249,84.0,4,240,0.0,0.0
11250,72.0,1,240,2.0,0.0
11251,53.0,3,30,13.0,0.0
11252,63.0,105,240,3.0,0.0
11253,51.0,0,240,3.0,0.0
11254,41.0,37,30,14.0,0.0
11255,53.0,3,30,13.0,0.0
11256,41.0,37,30,14.0,0.0
11257,53.0,3,30,13.0,0.0
11258,41.0,37,30,14.0,0.0
11259,53.0,3,30,13.0,0.0
11260,41.0,37,30,14.0,0.0
11261,53.0,3,30,13.0,0.0
11262,41.0,32,30,14.0,0.0
11263,53.0,3,30,13.0,0.0
11264,41.0,7,30,14.0,0.0
11265,77.0,3,120,0.0,0.0
11266,65.0,4,120,2.0,0.0
11267,53.0,2,120,13.0,0.0
11268,53.0,1,120,3.0,0.0
11269,65.0,0,120,3.0,0.0
11270,41.0,139,120,14.0,0.0
11271,65.0,40,30,11.0,0.0
11272,65.0,11,240,2.0,0.0
11273,53.0,2,480,13.0,0.0
11274,53.0,108,240,3.0,0.0
11275,41.0,14,480,14.0,0.0
11276,65.0,40,30,11.0,0.0
11277,65.0,40,30,11.0,0.0
11278,65.0,40,30,11.0,0.0
11279,65.0,40,30,11.0,0.0
11280,65.0,9,30,11.0,0.0
11281,65.0,121,120,11.0,0.0
11282,67.0,9,240,2.0,0.0
11283,55.0,1,240,3.0,0.0
11284,77.0,40,30,10.0,0.0
11285,65.0,9,480,2.0,0.0
11286,69.0,9,240,2.0,0.0
11287,51.0,2,240,13.0,0.0
11288,57.0,1,240,3.0,0.0
11289,53.0,1,480,3.0,0.0
11290,39.0,102,240,14.0,0.0
11291,77.0,40,30,10.0,0.0
11292,77.0,40,30,10.0,0.0
11293,77.0,40,30,10.0,0.0
11294,77.0,40,30,10.0,0.0
11295,77.0,14,30,10.0,0.0
11296,77.0,126,120,10.0,0.0
11297,70.0,0,240,2.0,0.0
11298,50.0,2,240,13.0,0.0
11299,58.0,0,240,3.0,0.0
11300,38.0,23,240,14.0,0.0
11301,69.0,0,240,2.0,0.0
11302,72.0,9,240,2.0,0.0
11303,53.0,40,30,12.0,0.0
11304,48.0,2,240,13.0,0.0
11305,60.0,0,240,3.0,0.0
11306,57.0,1,240,3.0,0.0
11307,36.0,111,240,14.0,0.0
11308,53.0,40,30,12.0,0.0
11309,53.0,40,30,12.0,0.0
11310,53.0,40,30,12.0,0.0
11311,53.0,40,30,12.0,0.0
11312,53.0,5,30,12.0,0.0
11313,70.0,9,240,2.0,0.0
11314,53.0,117,120,12.0,0.0
11315,46.0,2,240,13.0,0.0
11316,62.0,1,240,3.0,0.0
11317,58.0,0,240,3.0,0.0
11318,34.0,19,240,14.0,0.0
11319,84.0,2,240,0.0,0.0
11320,86.0,0,480,0.0,0.0
11321,72.0,11,240,1.0,0.0
11322,74.0,2,480,1.0,0.0
11323,65.0,40,30,11.0,0.0
11324,74.0,0,15,2.0,0.0
11325,77.0,0,480,2.0,0.0
11326,44.0,3,240,13.0,0.0
11327,62.0,0,480,3.0,0.0
11328,65.0,1,480,3.0,0.0
11329,32.0,107,240,14.0,0.0
11330,65.0,40,30,11.0,0.0
11331,65.0,40,30,11.0,0.0
11332,65.0,40,30,11.0,0.0
11333,65.0,40,30,11.0,0.0
11334,65.0,5,30,11.0,0.0
11335,71.0,0,240,1.0,0.0
11336,59.0,117,120,11.0,0.0
11337,43.0,2,240,13.0,0.0
11338,31.0,19,240,14.0,0.0
11339,83.0,2,15,0.0,0.0
11340,79.0,0,120,0.0,0.0
11341,67.0,0,120,1.0,0.0
11342,71.0,33,120,1.0,0.0
11343,67.0,40,30,11.0,0.0
11344,67.0,11,240,2.0,0.0
11345,55.0,2,480,13.0,0.0
11346,55.0,108,240,3.0,0.0
11347,43.0,14,480,14.0,0.0
11348,67.0,40,30,11.0,0.0
11349,67.0,5,30,11.0,0.0
11350,67.0,40,30,11.0,0.0
11351,67.0,40,30,11.0,0.0
11352,67.0,9,30,11.0,0.0
11353,67.0,121,120,11.0,0.0
11354,69.0,9,240,2.0,0.0
11355,57.0,1,240,3.0,0.0
11356,79.0,40,30,10.0,0.0
11357,71.0,9,240,2.0,0.0
11358,67.0,9,480,2.0,0.0
11359,53.0,2,240,13.0,0.0
11360,59.0,1,240,3.0,0.0
11361,55.0,1,480,3.0,0.0
11362,41.0,102,240,14.0,0.0
11363,79.0,40,30,10.0,0.0
11364,79.0,40,30,10.0,0.0
11365,79.0,40,30,10.0,0.0
11366,79.0,40,30,10.0,0.0
11367,79.0,14,30,10.0,0.0
11368,79.0,126,120,10.0,0.0
11369,72.0,0,240,2.0,0.0
11370,51.0,2,240,13.0,0.0
11371,60.0,0,240,3.0,0.0
11372,39.0,23,240,14.0,0.0
11373,74.0,0,240,2.0,0.0
11374,71.0,9,240,2.0,0.0
11375,55.0,40,30,12.0,0.0
11376,50.0,2,240,13.0,0.0
11377,59.0,1,240,3.0,0.0
11378,62.0,0,240,3.0,0.0
11379,38.0,111,240,14.0,0.0
11380,55.0,40,30,12.0,0.0
11381,55.0,40,30,12.0,0.0
11382,55.0,40,30,12.0,0.0
11383,55.0,40,30,12.0,0.0
11384,55.0,5,30,12.0,0.0
11385,75.0,0,240,2.0,0.0
11386,72.0,9,240,2.0,0.0
11387,55.0,117,120,12.0,0.0
11388,48.0,2,240,13.0,0.0
11389,60.0,1,240,3.0,0.0
11390,63.0,0,240,3.0,0.0
11391,36.0,19,240,14.0,0.0
11392,88.0,2,480,0.0,0.0
11393,85.0,0,480,0.0,0.0
11394,73.0,11,480,1.0,0.0
11395,76.0,0,480,1.0,0.0
11396,67.0,40,30,11.0,0.0
11397,67.0,11,360,2.0,0.0
11398,79.0,9,240,2.0,0.0
11399,46.0,2,240,13.0,0.0
11400,55.0,0,240,3.0,0.0
11401,67.0,1,240,3.0,0.0
11402,34.0,107,240,14.0,0.0
11403,67.0,40,30,11.0,0.0
11404,67.0,40,30,11.0,0.0
11405,67.0,40,30,11.0,0.0
11406,67.0,40,30,11.0,0.0
11407,67.0,9,30,11.0,0.0
11408,61.0,1,120,11.0,0.0
11409,73.0,0,120,2.0,0.0
11410,45.0,3,240,13.0,0.0
11411,64.0,105,120,3.0,0.0
11412,57.0,0,120,3.0,0.0
11413,81.0,84,420,10.0,0.0
11414,85.0,2,120,0.0,0.0
11415,69.0,0,180,6.0,0.0
11416,73.0,11,120,1.0,0.0
11417,81.0,1,180,6.0,0.0
11418,69.0,5,180,4.0,0.0
11419,73.0,40,30,11.0,0.0
11420,57.0,7,180,5.0,0.0
11421,45.0,3,120,13.0,0.0
11422,33.0,19,15,14.0,0.0
11423,73.0,40,30,11.0,0.0
11424,73.0,6,30,11.0,0.0
11425,73.0,27,30,11.0,0.0
11426,73.0,40,30,11.0,0.0
11427,73.0,126,30,11.0,0.0
11428,86.0,2,120,0.0,0.0
11429,74.0,11,120,1.0,0.0
11430,81.0,1,180,6.0,0.0
11431,69.0,0,180,6.0,0.0
11432,74.0,0,120,11.0,0.0
11433,69.0,5,180,4.0,0.0
11434,57.0,3,180,5.0,0.0
11435,47.0,3,120,13.0,0.0
11436,35.0,45,120,14.0,0.0
11437,79.0,2,120,10.0,0.0
11438,88.0,2,120,0.0,0.0
11439,76.0,11,120,1.0,0.0
11440,69.0,1,180,6.0,0.0
11441,81.0,0,180,6.0,0.0
11442,76.0,40,30,11.0,0.0
11443,69.0,5,180,4.0,0.0
11444,57.0,7,180,5.0,0.0
11445,49.0,3,120,13.0,0.0
11446,37.0,18,120,14.0,0.0
11447,76.0,40,30,11.0,0.0
11448,76.0,4,30,11.0,0.0
11449,76.0,27,30,11.0,0.0
11450,76.0,40,30,11.0,0.0
11451,76.0,124,30,11.0,0.0
11452,77.0,2,120,10.0,0.0
11453,89.0,2,120,0.0,0.0
11454,77.0,11,120,1.0,0.0
11455,81.0,1,180,6.0,0.0
11456,69.0,0,180,6.0,0.0
11457,69.0,5,180,4.0,0.0
11458,69.0,0,120,11.0,0.0
11459,57.0,91,180,5.0,0.0
11460,50.0,3,120,13.0,0.0
11461,38.0,45,120,14.0,0.0
11462,75.0,6,120,10.0,0.0
11463,67.0,9,120,2.0,0.0
11464,55.0,40,30,12.0,0.0
11465,51.0,2,120,13.0,0.0
11466,55.0,1,120,3.0,0.0
11467,39.0,22,120,14.0,0.0
11468,55.0,40,30,12.0,0.0
11469,55.0,0,30,12.0,0.0
11470,55.0,40,30,12.0,0.0
11471,55.0,40,30,12.0,0.0
11472,55.0,120,30,12.0,0.0
11473,74.0,6,120,10.0,0.0
11474,68.0,2,120,2.0,0.0
11475,56.0,7,120,12.0,0.0
11476,53.0,2,120,13.0,0.0
11477,56.0,1,120,3.0,0.0
11478,41.0,142,120,14.0,0.0
11479,72.0,0,120,10.0,0.0
11480,69.0,9,120,2.0,0.0
11481,57.0,40,30,12.0,0.0
11482,54.0,2,120,13.0,0.0
11483,57.0,1,120,3.0,0.0
11484,42.0,22,120,14.0,0.0
11485,57.0,40,30,12.0,0.0
11486,57.0,6,30,12.0,0.0
11487,57.0,40,30,12.0,0.0
11488,57.0,40,30,12.0,0.0
11489,57.0,120,30,12.0,0.0
11490,71.0,6,120,10.0,0.0
11491,62.0,2,120,2.0,0.0
11492,50.0,7,120,12.0,0.0
11493,55.0,2,120,13.0,0.0
11494,50.0,1,120,3.0,0.0
11495,43.0,138,120,14.0,0.0
11496,79.0,84,420,10.0,0.0
11497,83.0,2,120,0.0,0.0
11498,71.0,11,120,1.0,0.0
11499,79.0,1,180,6.0,0.0
11500,67.0,5,180,4.0,0.0
11501,71.0,40,30,11.0,0.0
11502,67.0,7,180,5.0,0.0
11503,43.0,3,120,13.0,0.0
11504,31.0,18,120,14.0,0.0
11505,71.0,40,30,11.0,0.0
11506,71.0,6,30,11.0,0.0
11507,71.0,27,30,11.0,0.0
11508,71.0,40,30,11.0,0.0
11509,71.0,126,30,11.0,0.0
11510,84.0,2,120,0.0,0.0
11511,79.0,1,180,6.0,0.0
11512,72.0,0,120,1.0,0.0
11513,67.0,5,180,4.0,0.0
11514,72.0,11,120,11.0,0.0
11515,67.0,3,180,5.0,0.0
11516,44.0,3,120,13.0,0.0
11517,32.0,45,120,14.0,0.0
11518,77.0,2,120,10.0,0.0
11519,86.0,2,120,0.0,0.0
11520,74.0,11,120,1.0,0.0
11521,79.0,1,180,6.0,0.0
11522,74.0,40,30,11.0,0.0
11523,67.0,5,180,4.0,0.0
11524,67.0,7,180,5.0,0.0
11525,47.0,3,120,13.0,0.0
11526,35.0,18,120,14.0,0.0
11527,74.0,40,30,11.0,0.0
11528,74.0,4,30,11.0,0.0
11529,74.0,27,30,11.0,0.0
11530,74.0,40,30,11.0,0.0
11531,74.0,124,30,11.0,0.0
11532,75.0,2,120,10.0,0.0
11533,87.0,2,120,0.0,0.0
11534,79.0,1,180,6.0,0.0
11535,75.0,11,120,1.0,0.0
11536,67.0,5,180,4.0,0.0
11537,67.0,0,120,11.0,0.0
11538,67.0,91,180,5.0,0.0
11539,48.0,3,120,13.0,0.0
11540,36.0,45,120,14.0,0.0
11541,74.0,6,120,10.0,0.0
11542,65.0,9,120,2.0,0.0
11543,53.0,40,30,12.0,0.0
11544,50.0,2,120,13.0,0.0
11545,53.0,1,120,3.0,0.0
11546,38.0,22,120,14.0,0.0
11547,53.0,40,30,12.0,0.0
11548,53.0,0,30,12.0,0.0
11549,53.0,40,30,12.0,0.0
11550,53.0,40,30,12.0,0.0
11551,53.0,120,30,12.0,0.0
11552,72.0,6,120,10.0,0.0
11553,67.0,2,120,2.0,0.0
11554,55.0,7,120,12.0,0.0
11555,51.0,2,120,13.0,0.0
11556,55.0,1,120,3.0,0.0
11557,39.0,142,120,14.0,0.0
11558,70.0,6,120,10.0,0.0
11559,67.0,9,120,2.0,0.0
11560,55.0,40,30,12.0,0.0
11561,52.0,2,120,13.0,0.0
11562,55.0,1,120,3.0,0.0
11563,40.0,22,120,14.0,0.0
11564,55.0,40,30,12.0,0.0
11565,55.0,0,30,12.0,0.0
11566,55.0,40,30,12.0,0.0
11567,55.0,40,30,12.0,0.0
11568,55.0,120,30,12.0,0.0
11569,69.0,6,120,10.0,0.0
11570,60.0,2,120,2.0,0.0
11571,48.0,7,120,12.0,0.0
11572,53.0,2,120,13.0,0.0
11573,48.0,1,120,3.0,0.0
11574,41.0,171,120,14.0,0.0
11575,77.0,5,120,10.0,0.0
11576,89.0,0,60,0.0,0.0
11577,77.0,2,60,0.0,0.0
11578,77.0,1,180,6.0,0.0
11579,65.0,0,180,6.0,0.0
11580,77.0,2,60,1.0,0.0
11581,65.0,5,180,4.0,0.0
11582,72.0,4,120,11.0,0.0
11583,65.0,0,60,2.0,0.0
11584,77.0,11,60,2.0,0.0
11585,69.0,9,120,12.0,0.0
11586,53.0,40,180,5.0,0.0
11587,65.0,3,420,13.0,0.0
11588,65.0,36,60,3.0,0.0
11589,53.0,0,60,3.0,0.0
11590,53.0,99,420,14.0,0.0
11591,53.0,11,120,15.0,0.0
11592,77.0,0,60,0.0,0.0
11593,89.0,2,60,0.0,0.0
11594,77.0,2,60,1.0,0.0
11595,65.0,11,60,2.0,0.0
11596,77.0,0,60,2.0,0.0
11597,65.0,0,60,3.0,0.0
11598,53.0,19,60,3.0,0.0
11599,77.0,2,60,0.0,0.0
11600,89.0,0,60,0.0,0.0
11601,77.0,2,60,1.0,0.0
11602,77.0,0,60,2.0,0.0
11603,65.0,11,60,2.0,0.0
11604,65.0,116,60,3.0,0.0
11605,53.0,0,60,3.0,0.0
11606,79.0,1,120,10.0,0.0
11607,89.0,0,120,0.0,0.0
11608,77.0,2,120,0.0,0.0
11609,77.0,2,120,1.0,0.0
11610,65.0,1,180,6.0,0.0
11611,77.0,0,180,6.0,0.0
11612,65.0,5,180,4.0,0.0
11613,73.0,0,120,11.0,0.0
11614,77.0,0,120,2.0,0.0
11615,65.0,4,120,2.0,0.0
11616,70.0,7,120,12.0,0.0
11617,53.0,18,180,5.0,0.0
11618,53.0,2,120,3.0,0.0
11619,65.0,0,120,3.0,0.0
11620,53.0,45,120,15.0,0.0
11621,81.0,5,120,10.0,0.0
11622,77.0,0,60,0.0,0.0
11623,89.0,2,60,0.0,0.0
11624,65.0,1,180,6.0,0.0
11625,77.0,0,180,6.0,0.0
11626,77.0,2,60,1.0,0.0
11627,72.0,4,120,11.0,0.0
11628,65.0,5,180,4.0,0.0
11629,65.0,0,60,2.0,0.0
11630,77.0,11,60,2.0,0.0
11631,65.0,6,120,12.0,0.0
11632,53.0,40,180,5.0,0.0
11633,63.0,3,120,13.0,0.0
11634,65.0,36,60,3.0,0.0
11635,53.0,0,60,3.0,0.0
11636,51.0,11,120,14.0,0.0
11637,53.0,0,120,15.0,0.0
11638,89.0,2,60,0.0,0.0
11639,77.0,0,60,0.0,0.0
11640,77.0,2,60,1.0,0.0
11641,65.0,0,60,2.0,0.0
11642,77.0,11,60,2.0,0.0
11643,53.0,19,60,3.0,0.0
11644,65.0,0,60,3.0,0.0
11645,77.0,2,60,0.0,0.0
11646,89.0,0,60,0.0,0.0
11647,77.0,2,60,1.0,0.0
11648,65.0,0,60,2.0,0.0
11649,77.0,11,60,2.0,0.0
11650,53.0,0,60,3.0,0.0
11651,65.0,116,60,3.0,0.0
11652,82.0,1,120,10.0,0.0
11653,77.0,2,120,0.0,0.0
11654,89.0,0,120,0.0,0.0
11655,77.0,2,120,1.0,0.0
11656,65.0,0,180,6.0,0.0
11657,77.0,1,180,6.0,0.0
11658,65.0,5,180,4.0,0.0
11659,73.0,0,120,11.0,0.0
11660,65.0,4,120,2.0,0.0
11661,77.0,0,120,2.0,0.0
11662,65.0,6,120,12.0,0.0
11663,53.0,120,180,5.0,0.0
11664,61.0,1,120,13.0,0.0
11665,65.0,2,120,3.0,0.0
11666,53.0,0,120,3.0,0.0
11667,49.0,45,120,14.0,0.0
11668,53.0,0,120,15.0,0.0
11669,84.0,5,120,10.0,0.0
11670,82.0,2,60,0.0,0.0
11671,65.0,0,180,6.0,0.0
11672,82.0,2,60,1.0,0.0
11673,70.0,0,60,1.0,0.0
11674,77.0,1,180,6.0,0.0
11675,75.0,4,120,11.0,0.0
11676,65.0,5,180,4.0,0.0
11677,58.0,0,60,2.0,0.0
11678,70.0,11,60,2.0,0.0
11679,63.0,6,120,12.0,0.0
11680,53.0,40,180,5.0,0.0
11681,60.0,3,120,13.0,0.0
11682,46.0,0,60,3.0,0.0
11683,58.0,36,60,3.0,0.0
11684,48.0,11,120,14.0,0.0
11685,53.0,0,120,15.0,0.0
11686,82.0,2,60,0.0,0.0
11687,82.0,0,60,1.0,0.0
11688,70.0,2,60,1.0,0.0
11689,58.0,0,60,2.0,0.0
11690,70.0,11,60,2.0,0.0
11691,46.0,0,60,3.0,0.0
11692,58.0,19,60,3.0,0.0
11693,82.0,2,60,0.0,0.0
11694,82.0,0,60,1.0,0.0
11695,70.0,2,60,1.0,0.0
11696,70.0,0,60,2.0,0.0
11697,58.0,11,60,2.0,0.0
11698,46.0,116,60,3.0,0.0
11699,58.0,0,60,3.0,0.0
11700,85.0,1,120,10.0,0.0
11701,82.0,2,120,0.0,0.0
11702,82.0,2,120,1.0,0.0
11703,65.0,0,180,6.0,0.0
11704,70.0,0,120,1.0,0.0
11705,77.0,1,180,6.0,0.0
11706,77.0,0,120,11.0,0.0
11707,65.0,5,180,4.0,0.0
11708,58.0,0,120,2.0,0.0
11709,70.0,4,120,2.0,0.0
11710,61.0,6,120,12.0,0.0
11711,53.0,120,180,5.0,0.0
11712,58.0,1,120,13.0,0.0
11713,58.0,0,120,3.0,0.0
11714,46.0,2,120,3.0,0.0
11715,46.0,0,120,14.0,0.0
11716,53.0,45,120,15.0,0.0
11717,86.0,5,120,10.0,0.0
11718,82.0,2,60,0.0,0.0
11719,77.0,1,180,6.0,0.0
11720,70.0,0,60,1.0,0.0
11721,82.0,2,60,1.0,0.0
11722,65.0,0,180,6.0,0.0
11723,77.0,4,120,11.0,0.0
11724,65.0,5,180,4.0,0.0
11725,70.0,0,60,2.0,0.0
11726,58.0,11,60,2.0,0.0
11727,59.0,6,120,12.0,0.0
11728,53.0,40,180,5.0,0.0
11729,56.0,3,120,13.0,0.0
11730,58.0,36,60,3.0,0.0
11731,46.0,0,60,3.0,0.0
11732,44.0,11,120,14.0,0.0
11733,53.0,0,120,15.0,0.0
11734,82.0,2,60,0.0,0.0
11735,82.0,0,60,1.0,0.0
11736,70.0,2,60,1.0,0.0
11737,70.0,11,60,2.0,0.0
11738,58.0,0,60,2.0,0.0
11739,58.0,19,60,3.0,0.0
11740,46.0,0,60,3.0,0.0
11741,82.0,2,60,0.0,0.0
11742,70.0,0,60,1.0,0.0
11743,82.0,2,60,1.0,0.0
11744,58.0,11,60,2.0,0.0
11745,70.0,0,60,2.0,0.0
11746,46.0,116,60,3.0,0.0
11747,58.0,0,60,3.0,0.0
11748,87.0,1,120,10.0,0.0
11749,82.0,2,120,0.0,0.0
11750,70.0,0,120,1.0,0.0
11751,79.0,1,180,6.0,0.0
11752,82.0,2,120,1.0,0.0
11753,79.0,0,120,11.0,0.0
11754,67.0,5,180,4.0,0.0
11755,58.0,0,120,2.0,0.0
11756,70.0,4,120,2.0,0.0
11757,58.0,6,120,12.0,0.0
11758,67.0,120,180,5.0,0.0
11759,55.0,1,120,13.0,0.0
11760,46.0,2,120,3.0,0.0
11761,58.0,0,120,3.0,0.0
11762,43.0,45,120,14.0,0.0
11763,75.0,5,120,10.0,0.0
11764,82.0,2,60,0.0,0.0
11765,82.0,0,60,1.0,0.0
11766,70.0,2,60,1.0,0.0
11767,75.0,1,180,6.0,0.0
11768,63.0,5,180,4.0,0.0
11769,70.0,4,120,11.0,0.0
11770,58.0,0,60,2.0,0.0
11771,70.0,11,60,2.0,0.0
11772,67.0,20,120,12.0,0.0
11773,63.0,40,180,5.0,0.0
11774,63.0,3,420,13.0,0.0
11775,51.0,0,60,3.0,0.0
11776,63.0,36,60,3.0,0.0
11777,51.0,99,420,14.0,0.0
11778,87.0,2,60,0.0,0.0
11779,75.0,2,60,1.0,0.0
11780,63.0,0,60,2.0,0.0
11781,75.0,11,60,2.0,0.0
11782,63.0,0,60,3.0,0.0
11783,51.0,19,60,3.0,0.0
11784,87.0,2,60,0.0,0.0
11785,75.0,2,60,1.0,0.0
11786,75.0,11,60,2.0,0.0
11787,63.0,0,60,2.0,0.0
11788,51.0,116,60,3.0,0.0
11789,63.0,0,60,3.0,0.0
11790,77.0,1,120,10.0,0.0
11791,87.0,2,120,0.0,0.0
11792,75.0,1,180,6.0,0.0
11793,75.0,2,120,1.0,0.0
11794,71.0,4,120,11.0,0.0
11795,63.0,5,180,4.0,0.0
11796,63.0,0,120,2.0,0.0
11797,75.0,0,120,2.0,0.0
11798,68.0,7,120,12.0,0.0
11799,63.0,18,180,5.0,0.0
11800,51.0,0,120,3.0,0.0
11801,63.0,47,120,3.0,0.0
11802,79.0,5,120,10.0,0.0
11803,87.0,2,60,0.0,0.0
11804,75.0,1,180,6.0,0.0
11805,75.0,2,60,1.0,0.0
11806,70.0,4,120,11.0,0.0
11807,63.0,5,180,4.0,0.0
11808,63.0,0,60,2.0,0.0
11809,75.0,11,60,2.0,0.0
11810,63.0,6,120,12.0,0.0
11811,63.0,40,180,5.0,0.0
11812,61.0,3,120,13.0,0.0
11813,63.0,36,60,3.0,0.0
11814,51.0,0,60,3.0,0.0
11815,49.0,11,120,14.0,0.0
11816,87.0,2,60,0.0,0.0
11817,75.0,2,60,1.0,0.0
11818,63.0,11,60,2.0,0.0
11819,75.0,0,60,2.0,0.0
11820,63.0,0,60,3.0,0.0
11821,51.0,19,60,3.0,0.0
11822,87.0,2,60,0.0,0.0
11823,75.0,2,60,1.0,0.0
11824,63.0,11,60,2.0,0.0
11825,75.0,0,60,2.0,0.0
11826,51.0,116,60,3.0,0.0
11827,63.0,0,60,3.0,0.0
11828,80.0,1,120,10.0,0.0
11829,87.0,2,120,0.0,0.0
11830,75.0,2,120,1.0,0.0
11831,75.0,1,180,6.0,0.0
11832,63.0,5,180,4.0,0.0
11833,72.0,4,120,11.0,0.0
11834,75.0,0,120,2.0,0.0
11835,63.0,0,120,2.0,0.0
11836,63.0,6,120,12.0,0.0
11837,63.0,120,180,5.0,0.0
11838,60.0,1,120,13.0,0.0
11839,51.0,2,120,3.0,0.0
11840,63.0,0,120,3.0,0.0
11841,48.0,45,120,14.0,0.0
11842,82.0,5,120,10.0,0.0
11843,87.0,2,60,0.0,0.0
11844,75.0,0,60,0.0,0.0
11845,75.0,2,60,1.0,0.0
11846,75.0,1,180,6.0,0.0
11847,73.0,4,120,11.0,0.0
11848,63.0,5,180,4.0,0.0
11849,75.0,11,60,2.0,0.0
11850,63.0,0,60,2.0,0.0
11851,61.0,6,120,12.0,0.0
11852,63.0,40,180,5.0,0.0
11853,58.0,3,120,13.0,0.0
11854,63.0,0,60,3.0,0.0
11855,51.0,36,60,3.0,0.0
11856,46.0,11,120,14.0,0.0
11857,92.0,0,60,0.0,0.0
11858,80.0,2,60,0.0,0.0
11859,80.0,2,60,1.0,0.0
11860,68.0,11,60,2.0,0.0
11861,80.0,0,60,2.0,0.0
11862,56.0,19,60,3.0,0.0
11863,92.0,0,60,0.0,0.0
11864,80.0,2,60,0.0,0.0
11865,80.0,2,60,1.0,0.0
11866,68.0,11,60,2.0,0.0
11867,80.0,0,60,2.0,0.0
11868,56.0,116,60,3.0,0.0
11869,84.0,1,120,10.0,0.0
11870,92.0,2,120,0.0,0.0
11871,80.0,0,120,0.0,0.0
11872,75.0,1,180,6.0,0.0
11873,80.0,2,120,1.0,0.0
11874,63.0,5,180,4.0,0.0
11875,75.0,4,120,11.0,0.0
11876,68.0,0,120,2.0,0.0
11877,80.0,0,120,2.0,0.0
11878,60.0,6,120,12.0,0.0
11879,63.0,120,180,5.0,0.0
11880,56.0,1,120,13.0,0.0
11881,56.0,2,120,3.0,0.0
11882,44.0,45,120,14.0,0.0
11883,84.0,5,120,10.0,0.0
11884,80.0,0,60,0.0,0.0
11885,92.0,2,60,0.0,0.0
11886,75.0,1,180,6.0,0.0
11887,80.0,2,60,1.0,0.0
11888,75.0,4,120,11.0,0.0
11889,63.0,5,180,4.0,0.0
11890,68.0,11,60,2.0,0.0
11891,80.0,0,60,2.0,0.0
11892,68.0,6,120,12.0,0.0
11893,63.0,40,180,5.0,0.0
11894,54.0,3,120,13.0,0.0
11895,56.0,36,60,3.0,0.0
11896,42.0,11,120,14.0,0.0
11897,92.0,0,60,0.0,0.0
11898,80.0,2,60,0.0,0.0
11899,80.0,2,60,1.0,0.0
11900,68.0,0,60,2.0,0.0
11901,80.0,11,60,2.0,0.0
11902,56.0,19,60,3.0,0.0
11903,80.0,0,60,0.0,0.0
11904,92.0,2,60,0.0,0.0
11905,80.0,2,60,1.0,0.0
11906,80.0,11,60,2.0,0.0
11907,68.0,0,60,2.0,0.0
11908,56.0,116,60,3.0,0.0
11909,85.0,1,120,10.0,0.0
11910,92.0,2,120,0.0,0.0
11911,80.0,0,120,0.0,0.0
11912,80.0,2,120,1.0,0.0
11913,65.0,0,180,6.0,0.0
11914,77.0,1,180,6.0,0.0
11915,68.0,5,180,4.0,0.0
11916,73.0,0,120,11.0,0.0
11917,80.0,4,120,2.0,0.0
11918,68.0,0,120,2.0,0.0
11919,68.0,6,120,12.0,0.0
11920,68.0,122,180,5.0,0.0
11921,53.0,1,120,13.0,0.0
11922,56.0,2,120,3.0,0.0
11923,41.0,45,120,14.0,0.0
11924,85.0,5,420,10.0,0.0
11925,77.0,2,120,0.0,0.0
11926,89.0,0,120,0.0,0.0
11927,65.0,0,60,6.0,0.0
11928,77.0,2,120,1.0,0.0
11929,65.0,0,120,1.0,0.0
11930,77.0,1,60,6.0,0.0
11931,65.0,5,60,4.0,0.0
11932,82.0,114,420,11.0,0.0
11933,77.0,0,120,2.0,0.0
11934,65.0,3,120,2.0,0.0
11935,53.0,6,120,12.0,0.0
11936,53.0,21,60,5.0,0.0
11937,49.0,2,120,13.0,0.0
11938,49.0,1,120,3.0,0.0
11939,53.0,0,120,3.0,0.0
11940,37.0,13,120,14.0,0.0
11941,41.0,24,90,15.0,0.0
11942,65.0,1,60,6.0,0.0
11943,77.0,0,60,6.0,0.0
11944,65.0,5,60,4.0,0.0
11945,53.0,21,60,5.0,0.0
11946,65.0,0,60,6.0,0.0
11947,77.0,1,60,6.0,0.0
11948,65.0,5,60,4.0,0.0
11949,53.0,21,60,5.0,0.0
11950,41.0,53,15,15.0,0.0
11951,79.0,1,120,0.0,0.0
11952,91.0,0,120,0.0,0.0
11953,79.0,0,120,1.0,0.0
11954,67.0,0,120,1.0,0.0
11955,77.0,1,120,6.0,0.0
11956,65.0,0,120,6.0,0.0
11957,65.0,2,120,4.0,0.0
11958,65.0,3,120,2.0,0.0
11959,77.0,0,120,2.0,0.0
11960,55.0,6,120,12.0,0.0
11961,53.0,0,120,5.0,0.0
11962,51.0,2,120,13.0,0.0
11963,55.0,0,120,3.0,0.0
11964,51.0,1,120,3.0,0.0
11965,39.0,0,120,14.0,0.0
11966,41.0,104,15,15.0,0.0
11967,84.0,2,120,10.0,0.0
11968,92.0,2,120,0.0,0.0
11969,80.0,0,120,0.0,0.0
11970,68.0,0,120,1.0,0.0
11971,77.0,0,60,6.0,0.0
11972,65.0,1,60,6.0,0.0
11973,80.0,1,120,1.0,0.0
11974,65.0,5,60,4.0,0.0
11975,80.0,1,120,11.0,0.0
11976,65.0,3,120,2.0,0.0
11977,77.0,0,120,2.0,0.0
11978,56.0,6,120,12.0,0.0
11979,53.0,21,60,5.0,0.0
11980,53.0,2,120,13.0,0.0
11981,56.0,0,120,3.0,0.0
11982,53.0,1,120,3.0,0.0
11983,41.0,13,120,14.0,0.0
11984,41.0,22,90,15.0,0.0
11985,65.0,1,60,6.0,0.0
11986,77.0,0,60,6.0,0.0
11987,65.0,5,60,4.0,0.0
11988,53.0,21,60,5.0,0.0
11989,41.0,53,90,15.0,0.0
11990,65.0,1,60,6.0,0.0
11991,77.0,0,60,6.0,0.0
11992,65.0,5,60,4.0,0.0
11993,53.0,21,60,5.0,0.0
11994,82.0,2,120,10.0,0.0
11995,82.0,1,120,0.0,0.0
11996,65.0,1,120,6.0,0.0
11997,77.0,0,120,6.0,0.0
11998,82.0,0,120,1.0,0.0
11999,70.0,0,120,1.0,0.0
12000,65.0,1,120,4.0,0.0
12001,79.0,1,120,11.0,0.0
12002,77.0,3,120,2.0,0.0
12003,65.0,0,120,2.0,0.0
12004,58.0,0,120,12.0,0.0
12005,53.0,6,120,5.0,0.0
12006,55.0,2,120,13.0,0.0
12007,58.0,1,120,3.0,0.0
12008,55.0,0,120,3.0,0.0
12009,43.0,173,120,14.0,0.0
12010,41.0,102,15,15.0,0.0
12011,80.0,2,120,10.0,0.0
12012,84.0,2,120,0.0,0.0
12013,65.0,0,60,6.0,0.0
12014,77.0,1,60,6.0,0.0
12015,84.0,1,120,1.0,0.0
12016,72.0,0,120,1.0,0.0
12017,77.0,1,120,11.0,0.0
12018,65.0,5,60,4.0,0.0
12019,65.0,3,120,2.0,0.0
12020,77.0,0,120,2.0,0.0
12021,60.0,6,120,12.0,0.0
12022,53.0,21,60,5.0,0.0
12023,56.0,2,120,13.0,0.0
12024,60.0,1,120,3.0,0.0
12025,56.0,0,120,3.0,0.0
12026,44.0,13,120,14.0,0.0
12027,77.0,0,60,6.0,0.0
12028,65.0,1,60,6.0,0.0
12029,65.0,5,60,4.0,0.0
12030,53.0,21,60,5.0,0.0
12031,41.0,22,15,15.0,0.0
12032,65.0,0,60,6.0,0.0
12033,77.0,1,60,6.0,0.0
12034,65.0,5,60,4.0,0.0
12035,53.0,21,60,5.0,0.0
12036,41.0,53,15,15.0,0.0
12037,79.0,2,120,10.0,0.0
12038,85.0,1,120,0.0,0.0
12039,73.0,1,120,1.0,0.0
12040,85.0,0,120,1.0,0.0
12041,65.0,0,120,6.0,0.0
12042,77.0,1,120,6.0,0.0
12043,65.0,0,120,4.0,0.0
12044,76.0,1,120,11.0,0.0
12045,77.0,3,120,2.0,0.0
12046,65.0,0,120,2.0,0.0
12047,61.0,0,120,12.0,0.0
12048,53.0,6,120,5.0,0.0
12049,58.0,2,120,13.0,0.0
12050,58.0,0,120,3.0,0.0
12051,61.0,1,120,3.0,0.0
12052,46.0,0,120,14.0,0.0
12053,41.0,173,120,15.0,0.0
12054,77.0,2,120,10.0,0.0
12055,86.0,2,120,0.0,0.0
12056,77.0,0,60,6.0,0.0
12057,65.0,1,60,6.0,0.0
12058,74.0,1,120,1.0,0.0
12059,86.0,0,120,1.0,0.0
12060,74.0,1,120,11.0,0.0
12061,65.0,5,60,4.0,0.0
12062,77.0,0,120,2.0,0.0
12063,65.0,3,120,2.0,0.0
12064,68.0,6,120,12.0,0.0
12065,53.0,43,60,5.0,0.0
12066,59.0,2,120,13.0,0.0
12067,59.0,0,120,3.0,0.0
12068,62.0,1,120,3.0,0.0
12069,47.0,0,120,14.0,0.0
12070,53.0,13,120,15.0,0.0
12071,65.0,0,60,6.0,0.0
12072,77.0,1,60,6.0,0.0
12073,65.0,5,60,4.0,0.0
12074,53.0,74,60,5.0,0.0
12075,65.0,1,60,6.0,0.0
12076,77.0,0,60,6.0,0.0
12077,65.0,5,60,4.0,0.0
12078,53.0,123,60,5.0,0.0
12079,76.0,2,120,10.0,0.0
12080,88.0,1,120,0.0,0.0
12081,72.0,0,120,6.0,0.0
12082,76.0,0,120,1.0,0.0
12083,60.0,1,120,6.0,0.0
12084,60.0,1,120,4.0,0.0
12085,72.0,1,120,11.0,0.0
12086,72.0,3,120,2.0,0.0
12087,60.0,0,120,2.0,0.0
12088,67.0,0,120,12.0,0.0
12089,48.0,6,120,5.0,0.0
12090,60.0,2,120,13.0,0.0
12091,64.0,1,120,3.0,0.0
12092,60.0,0,120,3.0,0.0
12093,48.0,173,120,14.0,0.0
12094,84.0,5,420,10.0,0.0
12095,76.0,2,120,0.0,0.0
12096,88.0,0,120,0.0,0.0
12097,76.0,0,120,1.0,0.0
12098,60.0,0,60,6.0,0.0
12099,64.0,2,120,1.0,0.0
12100,72.0,1,60,6.0,0.0
12101,80.0,114,420,11.0,0.0
12102,60.0,5,60,4.0,0.0
12103,72.0,0,120,2.0,0.0
12104,60.0,3,120,2.0,0.0
12105,52.0,6,120,12.0,0.0
12106,48.0,45,60,5.0,0.0
12107,48.0,2,120,13.0,0.0
12108,48.0,0,120,3.0,0.0
12109,52.0,1,120,3.0,0.0
12110,36.0,13,120,14.0,0.0
12111,60.0,0,60,6.0,0.0
12112,72.0,1,60,6.0,0.0
12113,60.0,5,60,4.0,0.0
12114,48.0,74,60,5.0,0.0
12115,72.0,0,60,6.0,0.0
12116,60.0,1,60,6.0,0.0
12117,60.0,5,60,4.0,0.0
12118,48.0,125,60,5.0,0.0
12119,89.0,1,120,0.0,0.0
12120,77.0,0,120,0.0,0.0
12121,72.0,1,120,6.0,0.0
12122,65.0,0,120,1.0,0.0
12123,60.0,0,120,6.0,0.0
12124,77.0,0,120,1.0,0.0
12125,60.0,2,120,4.0,0.0
12126,60.0,3,120,2.0,0.0
12127,72.0,0,120,2.0,0.0
12128,53.0,0,120,12.0,0.0
12129,48.0,6,120,5.0,0.0
12130,50.0,2,120,13.0,0.0
12131,53.0,0,120,3.0,0.0
12132,50.0,1,120,3.0,0.0
12133,38.0,54,120,14.0,0.0
12134,82.0,2,120,10.0,0.0
12135,91.0,0,120,0.0,0.0
12136,79.0,2,120,0.0,0.0
12137,67.0,0,120,1.0,0.0
12138,79.0,1,120,1.0,0.0
12139,60.0,1,60,6.0,0.0
12140,72.0,0,60,6.0,0.0
12141,60.0,5,60,4.0,0.0
12142,79.0,1,120,11.0,0.0
12143,60.0,0,120,2.0,0.0
12144,72.0,3,120,2.0,0.0
12145,55.0,6,120,12.0,0.0
12146,48.0,43,60,5.0,0.0
12147,52.0,2,120,13.0,0.0
12148,55.0,0,120,3.0,0.0
12149,52.0,1,120,3.0,0.0
12150,40.0,13,120,14.0,0.0
12151,60.0,0,60,6.0,0.0
12152,72.0,1,60,6.0,0.0
12153,60.0,5,60,4.0,0.0
12154,48.0,74,60,5.0,0.0
12155,60.0,1,60,6.0,0.0
12156,72.0,0,60,6.0,0.0
12157,60.0,5,60,4.0,0.0
12158,48.0,123,60,5.0,0.0
12159,80.0,2,120,10.0,0.0
12160,80.0,1,120,0.0,0.0
12161,60.0,1,120,6.0,0.0
12162,72.0,0,120,6.0,0.0
12163,68.0,1,120,1.0,0.0
12164,80.0,0,120,1.0,0.0
12165,72.0,1,120,11.0,0.0
12166,60.0,0,120,4.0,0.0
12167,60.0,0,120,2.0,0.0
12168,72.0,3,120,2.0,0.0
12169,56.0,0,120,12.0,0.0
12170,48.0,6,120,5.0,0.0
12171,53.0,2,120,13.0,0.0
12172,53.0,0,120,3.0,0.0
12173,56.0,1,120,3.0,0.0
12174,41.0,173,120,14.0,0.0
12175,79.0,2,120,10.0,0.0
12176,82.0,2,120,0.0,0.0
12177,72.0,1,60,6.0,0.0
12178,60.0,0,60,6.0,0.0
12179,82.0,0,120,1.0,0.0
12180,70.0,1,120,1.0,0.0
12181,60.0,5,60,4.0,0.0
12182,70.0,1,120,11.0,0.0
12183,72.0,0,120,2.0,0.0
12184,60.0,3,120,2.0,0.0
12185,58.0,6,120,12.0,0.0
12186,48.0,43,60,5.0,0.0
12187,55.0,2,120,13.0,0.0
12188,55.0,0,120,3.0,0.0
12189,58.0,1,120,3.0,0.0
12190,43.0,13,120,14.0,0.0
12191,72.0,0,60,6.0,0.0
12192,60.0,1,60,6.0,0.0
12193,60.0,5,60,4.0,0.0
12194,48.0,74,60,5.0,0.0
12195,60.0,0,60,6.0,0.0
12196,72.0,1,60,6.0,0.0
12197,60.0,5,60,4.0,0.0
12198,48.0,123,60,5.0,0.0
12199,77.0,2,120,10.0,0.0
12200,84.0,1,120,0.0,0.0
12201,60.0,0,120,6.0,0.0
12202,72.0,1,120,6.0,0.0
12203,84.0,1,120,1.0,0.0
12204,72.0,0,120,1.0,0.0
12205,60.0,0,120,4.0,0.0
12206,68.0,1,120,11.0,0.0
12207,72.0,0,120,2.0,0.0
12208,60.0,3,120,2.0,0.0
12209,60.0,6,120,12.0,0.0
12210,48.0,0,120,5.0,0.0
12211,56.0,2,120,13.0,0.0
12212,56.0,0,120,3.0,0.0
12213,60.0,1,120,3.0,0.0
12214,44.0,173,120,14.0,0.0
12215,75.0,2,120,10.0,0.0
12216,84.0,2,120,0.0,0.0
12217,77.0,1,60,6.0,0.0
12218,65.0,0,60,6.0,0.0
12219,84.0,1,120,1.0,0.0
12220,72.0,0,120,1.0,0.0
12221,65.0,5,60,4.0,0.0
12222,72.0,1,120,11.0,0.0
12223,72.0,0,120,2.0,0.0
12224,60.0,3,120,2.0,0.0
12225,60.0,6,120,12.0,0.0
12226,53.0,21,60,5.0,0.0
12227,57.0,2,120,13.0,0.0
12228,57.0,1,120,3.0,0.0
12229,60.0,0,120,3.0,0.0
12230,45.0,13,120,14.0,0.0
12231,65.0,0,60,6.0,0.0
12232,77.0,1,60,6.0,0.0
12233,65.0,5,60,4.0,0.0
12234,53.0,21,60,5.0,0.0
12235,53.0,22,15,15.0,0.0
12236,77.0,1,60,6.0,0.0
12237,65.0,0,60,6.0,0.0
12238,65.0,5,60,4.0,0.0
12239,53.0,21,60,5.0,0.0
12240,53.0,53,15,15.0,0.0
12241,74.0,5,120,10.0,0.0
12242,86.0,2,60,0.0,0.0
12243,86.0,2,60,1.0,0.0
12244,77.0,1,180,6.0,0.0
12245,65.0,0,180,6.0,0.0
12246,74.0,0,60,1.0,0.0
12247,65.0,5,180,4.0,0.0
12248,65.0,4,120,11.0,0.0
12249,74.0,11,60,2.0,0.0
12250,62.0,0,60,2.0,0.0
12251,62.0,6,120,12.0,0.0
12252,53.0,40,180,5.0,0.0
12253,58.0,3,120,13.0,0.0
12254,58.0,0,60,3.0,0.0
12255,62.0,36,60,3.0,0.0
12256,46.0,0,120,14.0,0.0
12257,53.0,11,120,15.0,0.0
12258,82.0,2,60,0.0,0.0
12259,70.0,0,60,1.0,0.0
12260,82.0,2,60,1.0,0.0
12261,70.0,11,60,2.0,0.0
12262,58.0,19,60,3.0,0.0
12263,82.0,2,60,0.0,0.0
12264,82.0,0,60,1.0,0.0
12265,70.0,2,60,1.0,0.0
12266,70.0,11,60,2.0,0.0
12267,58.0,65,60,3.0,0.0
12268,74.0,5,120,10.0,0.0
12269,82.0,2,60,0.0,0.0
12270,70.0,2,60,1.0,0.0
12271,82.0,0,60,1.0,0.0
12272,82.0,1,180,6.0,0.0
12273,70.0,5,180,4.0,0.0
12274,65.0,4,120,11.0,0.0
12275,70.0,11,60,2.0,0.0
12276,58.0,6,120,12.0,0.0
12277,70.0,40,180,5.0,0.0
12278,56.0,3,120,13.0,0.0
12279,58.0,36,60,3.0,0.0
12280,44.0,11,120,14.0,0.0
12281,82.0,2,60,0.0,0.0
12282,82.0,2,60,1.0,0.0
12283,70.0,0,60,1.0,0.0
12284,70.0,11,60,2.0,0.0
12285,58.0,19,60,3.0,0.0
12286,82.0,2,60,0.0,0.0
12287,70.0,0,60,1.0,0.0
12288,82.0,2,60,1.0,0.0
12289,70.0,11,60,2.0,0.0
12290,58.0,65,60,3.0,0.0
12291,75.0,5,120,10.0,0.0
12292,82.0,2,60,0.0,0.0
12293,82.0,0,60,1.0,0.0
12294,70.0,2,60,1.0,0.0
12295,82.0,1,180,6.0,0.0
12296,70.0,5,180,4.0,0.0
12297,67.0,4,120,11.0,0.0
12298,70.0,11,60,2.0,0.0
12299,58.0,6,120,12.0,0.0
12300,70.0,40,180,5.0,0.0
12301,55.0,3,120,13.0,0.0
12302,58.0,36,60,3.0,0.0
12303,43.0,11,120,14.0,0.0
12304,82.0,2,60,0.0,0.0
12305,82.0,2,60,1.0,0.0
12306,70.0,0,60,1.0,0.0
12307,70.0,11,60,2.0,0.0
12308,58.0,19,60,3.0,0.0
12309,82.0,2,60,0.0,0.0
12310,70.0,2,60,1.0,0.0
12311,82.0,0,60,1.0,0.0
12312,70.0,11,60,2.0,0.0
12313,58.0,65,60,3.0,0.0
12314,77.0,5,120,10.0,0.0
12315,82.0,2,60,0.0,0.0
12316,82.0,2,60,1.0,0.0
12317,82.0,1,180,6.0,0.0
12318,70.0,0,60,1.0,0.0
12319,70.0,5,180,4.0,0.0
12320,68.0,4,120,11.0,0.0
12321,70.0,11,60,2.0,0.0
12322,56.0,6,120,12.0,0.0
12323,70.0,40,180,5.0,0.0
12324,53.0,3,120,13.0,0.0
12325,58.0,36,60,3.0,0.0
12326,41.0,0,120,14.0,0.0
12327,53.0,11,120,15.0,0.0
12328,82.0,2,60,0.0,0.0
12329,82.0,0,60,1.0,0.0
12330,70.0,2,60,1.0,0.0
12331,70.0,11,60,2.0,0.0
12332,58.0,19,60,3.0,0.0
12333,82.0,2,60,0.0,0.0
12334,70.0,0,60,1.0,0.0
12335,82.0,2,60,1.0,0.0
12336,70.0,11,60,2.0,0.0
12337,58.0,65,60,3.0,0.0
12338,79.0,5,120,10.0,0.0
12339,82.0,2,60,0.0,0.0
12340,82.0,1,180,6.0,0.0
12341,82.0,2,60,1.0,0.0
12342,70.0,0,60,1.0,0.0
12343,70.0,5,180,4.0,0.0
12344,70.0,4,120,11.0,0.0
12345,70.0,11,60,2.0,0.0
12346,55.0,6,120,12.0,0.0
12347,70.0,40,180,5.0,0.0
12348,51.0,3,120,13.0,0.0
12349,58.0,36,60,3.0,0.0
12350,39.0,11,120,14.0,0.0
12351,87.0,0,60,0.0,0.0
12352,75.0,2,60,0.0,0.0
12353,75.0,2,60,1.0,0.0
12354,75.0,11,60,2.0,0.0
12355,63.0,19,60,3.0,0.0
12356,87.0,2,60,0.0,0.0
12357,75.0,0,60,0.0,0.0
12358,75.0,2,60,1.0,0.0
12359,75.0,11,60,2.0,0.0
12360,63.0,65,60,3.0,0.0
12361,77.0,5,120,10.0,0.0
12362,75.0,0,60,0.0,0.0
12363,87.0,2,60,0.0,0.0
12364,82.0,1,180,6.0,0.0
12365,75.0,2,60,1.0,0.0
12366,70.0,4,120,11.0,0.0
12367,70.0,5,180,4.0,0.0
12368,75.0,11,60,2.0,0.0
12369,56.0,6,120,12.0,0.0
12370,70.0,40,180,5.0,0.0
12371,53.0,3,120,13.0,0.0
12372,63.0,36,60,3.0,0.0
12373,41.0,11,120,14.0,0.0
12374,53.0,0,120,15.0,0.0
12375,75.0,0,60,0.0,0.0
12376,87.0,2,60,0.0,0.0
12377,75.0,2,60,1.0,0.0
12378,75.0,11,60,2.0,0.0
12379,63.0,19,60,3.0,0.0
12380,87.0,0,60,0.0,0.0
12381,75.0,2,60,0.0,0.0
12382,75.0,2,60,1.0,0.0
12383,75.0,11,60,2.0,0.0
12384,63.0,65,60,3.0,0.0
12385,75.0,3,120,10.0,0.0
12386,75.0,2,60,0.0,0.0
12387,87.0,0,60,0.0,0.0
12388,82.0,1,120,6.0,0.0
12389,75.0,2,60,1.0,0.0
12390,70.0,4,120,11.0,0.0
12391,70.0,1,120,4.0,0.0
12392,75.0,11,60,2.0,0.0
12393,58.0,0,120,12.0,0.0
12394,70.0,6,120,5.0,0.0
12395,55.0,3,120,13.0,0.0
12396,63.0,36,60,3.0,0.0
12397,43.0,11,120,14.0,0.0
12398,75.0,2,60,0.0,0.0
12399,87.0,0,60,0.0,0.0
12400,75.0,2,60,1.0,0.0
12401,75.0,11,60,2.0,0.0
12402,63.0,65,60,3.0,0.0
12403,87.0,0,60,0.0,0.0
12404,75.0,2,60,0.0,0.0
12405,75.0,2,60,1.0,0.0
12406,75.0,11,60,2.0,0.0
12407,63.0,65,60,3.0,0.0
12408,74.0,5,120,10.0,0.0
12409,76.0,2,60,0.0,0.0
12410,88.0,0,60,0.0,0.0
12411,76.0,2,60,1.0,0.0
12412,71.0,4,120,11.0,0.0
12413,76.0,11,60,2.0,0.0
12414,59.0,6,120,12.0,0.0
12415,56.0,3,120,13.0,0.0
12416,64.0,36,60,3.0,0.0
12417,44.0,11,120,14.0,0.0
12418,88.0,0,60,0.0,0.0
12419,76.0,2,60,0.0,0.0
12420,76.0,2,60,1.0,0.0
12421,76.0,11,60,2.0,0.0
12422,64.0,65,60,3.0,0.0
12423,76.0,2,60,0.0,0.0
12424,88.0,0,60,0.0,0.0
12425,76.0,2,60,1.0,0.0
12426,76.0,11,60,2.0,0.0
12427,64.0,65,60,3.0,0.0
12428,73.0,5,120,10.0,0.0
12429,88.0,2,60,0.0,0.0
12430,76.0,0,60,0.0,0.0
12431,76.0,2,60,1.0,0.0
12432,69.0,4,120,11.0,0.0
12433,76.0,11,60,2.0,0.0
12434,64.0,6,120,12.0,0.0
12435,57.0,3,120,13.0,0.0
12436,64.0,36,60,3.0,0.0
12437,45.0,11,120,14.0,0.0
12438,81.0,2,60,0.0,0.0
12439,69.0,0,60,1.0,0.0
12440,81.0,2,60,1.0,0.0
12441,69.0,11,60,2.0,0.0
12442,57.0,65,60,3.0,0.0
12443,81.0,2,60,0.0,0.0
12444,81.0,0,60,1.0,0.0
12445,69.0,2,60,1.0,0.0
12446,69.0,11,60,2.0,0.0
12447,57.0,65,60,3.0,0.0
12448,73.0,5,120,10.0,0.0
12449,81.0,2,60,0.0,0.0
12450,81.0,1,180,6.0,0.0
12451,69.0,0,180,6.0,0.0
12452,81.0,2,60,1.0,0.0
12453,69.0,0,60,1.0,0.0
12454,69.0,5,180,4.0,0.0
12455,64.0,4,120,11.0,0.0
12456,69.0,11,60,2.0,0.0
12457,69.0,6,120,12.0,0.0
12458,57.0,40,180,5.0,0.0
12459,55.0,3,120,13.0,0.0
12460,57.0,36,60,3.0,0.0
12461,43.0,11,120,14.0,0.0
12462,81.0,2,60,0.0,0.0
12463,69.0,2,60,1.0,0.0
12464,81.0,0,60,1.0,0.0
12465,69.0,11,60,2.0,0.0
12466,57.0,19,60,3.0,0.0
12467,81.0,2,60,0.0,0.0
12468,69.0,2,60,1.0,0.0
12469,81.0,0,60,1.0,0.0
12470,69.0,11,60,2.0,0.0
12471,57.0,65,60,3.0,0.0
12472,74.0,5,120,10.0,0.0
12473,81.0,2,60,0.0,0.0
12474,69.0,0,60,1.0,0.0
12475,81.0,2,60,1.0,0.0
12476,69.0,1,180,6.0,0.0
12477,81.0,0,180,6.0,0.0
12478,69.0,5,180,4.0,0.0
12479,65.0,4,120,11.0,0.0
12480,69.0,11,60,2.0,0.0
12481,57.0,6,120,12.0,0.0
12482,57.0,40,180,5.0,0.0
12483,53.0,3,120,13.0,0.0
12484,57.0,36,60,3.0,0.0
12485,41.0,11,120,14.0,0.0
12486,81.0,2,60,0.0,0.0
12487,81.0,0,60,1.0,0.0
12488,69.0,2,60,1.0,0.0
12489,69.0,11,60,2.0,0.0
12490,57.0,19,60,3.0,0.0
12491,81.0,2,60,0.0,0.0
12492,81.0,0,60,1.0,0.0
12493,69.0,2,60,1.0,0.0
12494,69.0,11,60,2.0,0.0
12495,57.0,65,60,3.0,0.0
12496,76.0,5,120,10.0,0.0
12497,81.0,2,60,0.0,0.0
12498,69.0,1,180,6.0,0.0
12499,81.0,0,180,6.0,0.0
12500,69.0,0,60,1.0,0.0
12501,81.0,2,60,1.0,0.0
12502,69.0,5,180,4.0,0.0
12503,67.0,4,120,11.0,0.0
12504,69.0,11,60,2.0,0.0
12505,55.0,6,120,12.0,0.0
12506,57.0,40,180,5.0,0.0
12507,52.0,3,120,13.0,0.0
12508,57.0,36,60,3.0,0.0
12509,40.0,11,120,14.0,0.0
12510,81.0,2,60,0.0,0.0
12511,81.0,0,60,1.0,0.0
12512,69.0,2,60,1.0,0.0
12513,69.0,11,60,2.0,0.0
12514,57.0,19,60,3.0,0.0
12515,81.0,2,60,0.0,0.0
12516,81.0,0,60,1.0,0.0
12517,69.0,2,60,1.0,0.0
12518,69.0,11,60,2.0,0.0
12519,57.0,65,60,3.0,0.0
12520,77.0,5,90,10.0,0.0
12521,81.0,2,60,0.0,0.0
12522,69.0,0,60,1.0,0.0
12523,81.0,0,120,6.0,0.0
12524,69.0,1,120,6.0,0.0
12525,81.0,2,60,1.0,0.0
12526,69.0,4,90,11.0,0.0
12527,69.0,5,120,4.0,0.0
12528,69.0,11,60,2.0,0.0
12529,53.0,6,90,12.0,0.0
12530,57.0,9,120,5.0,0.0
12531,50.0,3,90,13.0,0.0
12532,57.0,17,60,3.0,0.0
12533,38.0,4,90,14.0,0.0
12534,53.0,11,120,15.0,0.0
12535,86.0,2,60,0.0,0.0
12536,86.0,0,60,1.0,0.0
12537,74.0,2,60,1.0,0.0
12538,74.0,11,60,2.0,0.0
12539,62.0,57,60,3.0,0.0
12540,76.0,5,90,10.0,0.0
12541,67.0,3,90,11.0,0.0
12542,55.0,1,90,12.0,0.0
12543,52.0,3,90,13.0,0.0
12544,40.0,5,90,14.0,0.0
12545,86.0,1,60,0.0,0.0
12546,74.0,2,60,1.0,0.0
12547,86.0,0,60,1.0,0.0
12548,74.0,3,60,2.0,0.0
12549,62.0,65,60,3.0,0.0
12550,74.0,5,90,10.0,0.0
12551,86.0,2,60,0.0,0.0
12552,65.0,0,120,6.0,0.0
12553,77.0,1,120,6.0,0.0
12554,74.0,0,60,1.0,0.0
12555,86.0,2,60,1.0,0.0
12556,65.0,5,120,4.0,0.0
12557,69.0,4,90,11.0,0.0
12558,74.0,11,60,2.0,0.0
12559,57.0,6,90,12.0,0.0
12560,53.0,9,120,5.0,0.0
12561,53.0,3,90,13.0,0.0
12562,62.0,17,60,3.0,0.0
12563,41.0,4,90,14.0,0.0
12564,53.0,11,120,15.0,0.0
12565,86.0,2,60,0.0,0.0
12566,74.0,0,60,1.0,0.0
12567,86.0,2,60,1.0,0.0
12568,74.0,11,60,2.0,0.0
12569,62.0,57,60,3.0,0.0
12570,72.0,5,90,10.0,0.0
12571,69.0,3,90,11.0,0.0
12572,62.0,1,90,12.0,0.0
12573,54.0,3,90,13.0,0.0
12574,42.0,5,90,14.0,0.0
12575,86.0,1,60,0.0,0.0
12576,86.0,2,60,1.0,0.0
12577,74.0,0,60,1.0,0.0
12578,74.0,3,60,2.0,0.0
12579,62.0,65,60,3.0,0.0
12580,70.0,5,90,10.0,0.0
12581,86.0,2,60,0.0,0.0
12582,79.0,1,120,6.0,0.0
12583,86.0,2,60,1.0,0.0
12584,74.0,0,60,1.0,0.0
12585,67.0,4,90,11.0,0.0
12586,67.0,5,120,4.0,0.0
12587,74.0,11,60,2.0,0.0
12588,62.0,6,90,12.0,0.0
12589,67.0,20,120,5.0,0.0
12590,55.0,3,90,13.0,0.0
12591,62.0,17,60,3.0,0.0
12592,43.0,4,90,14.0,0.0
12593,79.0,2,60,0.0,0.0
12594,79.0,0,60,1.0,0.0
12595,67.0,2,60,1.0,0.0
12596,67.0,11,60,2.0,0.0
12597,55.0,57,60,3.0,0.0
12598,71.0,5,90,10.0,0.0
12599,62.0,3,90,11.0,0.0
12600,67.0,1,90,12.0,0.0
12601,53.0,3,90,13.0,0.0
12602,41.0,5,90,14.0,0.0
12603,79.0,1,60,0.0,0.0
12604,67.0,0,60,1.0,0.0
12605,79.0,2,60,1.0,0.0
12606,67.0,3,60,2.0,0.0
12607,55.0,65,60,3.0,0.0
12608,72.0,5,90,10.0,0.0
12609,91.0,2,60,0.0,0.0
12610,79.0,0,60,0.0,0.0
12611,79.0,0,60,1.0,0.0
12612,67.0,2,60,1.0,0.0
12613,79.0,1,120,6.0,0.0
12614,67.0,5,120,4.0,0.0
12615,67.0,4,90,11.0,0.0
12616,67.0,11,60,2.0,0.0
12617,67.0,6,90,12.0,0.0
12618,67.0,20,120,5.0,0.0
12619,51.0,3,90,13.0,0.0
12620,55.0,17,60,3.0,0.0
12621,39.0,4,90,14.0,0.0
12622,91.0,2,60,0.0,0.0
12623,79.0,0,60,0.0,0.0
12624,67.0,0,60,1.0,0.0
12625,79.0,2,60,1.0,0.0
12626,67.0,11,60,2.0,0.0
12627,55.0,57,60,3.0,0.0
12628,74.0,5,90,10.0,0.0
12629,65.0,3,90,11.0,0.0
12630,55.0,1,90,12.0,0.0
12631,50.0,3,90,13.0,0.0
12632,38.0,5,90,14.0,0.0
12633,79.0,0,60,0.0,0.0
12634,91.0,1,60,0.0,0.0
12635,79.0,2,60,1.0,0.0
12636,67.0,0,60,1.0,0.0
12637,67.0,3,60,2.0,0.0
12638,55.0,65,60,3.0,0.0
12639,75.0,5,90,10.0,0.0
12640,75.0,0,60,0.0,0.0
12641,87.0,2,60,0.0,0.0
12642,79.0,1,120,6.0,0.0
12643,75.0,2,60,1.0,0.0
12644,67.0,5,120,4.0,0.0
12645,67.0,4,90,11.0,0.0
12646,75.0,11,60,2.0,0.0
12647,55.0,6,90,12.0,0.0
12648,67.0,20,120,5.0,0.0
12649,48.0,3,90,13.0,0.0
12650,63.0,17,60,3.0,0.0
12651,36.0,4,90,14.0,0.0
12652,75.0,2,60,0.0,0.0
12653,87.0,0,60,0.0,0.0
12654,75.0,2,60,1.0,0.0
12655,75.0,11,60,2.0,0.0
12656,63.0,57,60,3.0,0.0
12657,74.0,5,90,10.0,0.0
12658,72.0,1,120,6.0,0.0
12659,60.0,0,120,6.0,0.0
12660,60.0,0,120,4.0,0.0
12661,65.0,3,90,11.0,0.0
12662,53.0,1,90,12.0,0.0
12663,50.0,3,90,13.0,0.0
12664,38.0,4,90,14.0,0.0
12665,87.0,1,60,0.0,0.0
12666,75.0,0,60,0.0,0.0
12667,75.0,2,60,1.0,0.0
12668,75.0,3,60,2.0,0.0
12669,63.0,5,60,3.0,0.0
12670,72.0,5,90,10.0,0.0
12671,84.0,2,60,0.0,0.0
12672,72.0,0,60,1.0,0.0
12673,60.0,1,120,6.0,0.0
12674,84.0,2,60,1.0,0.0
12675,72.0,0,120,6.0,0.0
12676,60.0,5,120,4.0,0.0
12677,67.0,4,90,11.0,0.0
12678,72.0,11,60,2.0,0.0
12679,55.0,6,90,12.0,0.0
12680,48.0,60,15,5.0,0.0
12681,51.0,3,90,13.0,0.0
12682,60.0,17,60,3.0,0.0
12683,39.0,4,90,14.0,0.0
12684,84.0,2,60,0.0,0.0
12685,72.0,0,60,1.0,0.0
12686,84.0,2,60,1.0,0.0
12687,72.0,11,60,2.0,0.0
12688,60.0,57,60,3.0,0.0
12689,70.0,5,90,10.0,0.0
12690,60.0,3,90,11.0,0.0
12691,67.0,1,90,12.0,0.0
12692,48.0,60,120,5.0,0.0
12693,52.0,3,90,13.0,0.0
12694,40.0,4,90,14.0,0.0
12695,84.0,1,60,0.0,0.0
12696,84.0,2,60,1.0,0.0
12697,72.0,0,60,1.0,0.0
12698,72.0,3,60,2.0,0.0
12699,60.0,0,60,3.0,0.0
12700,69.0,5,90,10.0,0.0
12701,77.0,2,60,0.0,0.0
12702,60.0,0,15,6.0,0.0
12703,65.0,0,60,1.0,0.0
12704,77.0,2,60,1.0,0.0
12705,72.0,1,15,6.0,0.0
12706,60.0,4,90,11.0,0.0
12707,60.0,5,15,4.0,0.0
12708,65.0,11,60,2.0,0.0
12709,65.0,6,90,12.0,0.0
12710,48.0,9,120,5.0,0.0
12711,53.0,3,90,13.0,0.0
12712,53.0,17,60,3.0,0.0
12713,41.0,4,90,14.0,0.0
12714,77.0,2,60,0.0,0.0
12715,65.0,2,60,1.0,0.0
12716,77.0,0,60,1.0,0.0
12717,65.0,11,60,2.0,0.0
12718,53.0,57,60,3.0,0.0
12719,69.0,5,90,10.0,0.0
12720,60.0,3,90,11.0,0.0
12721,65.0,0,120,4.0,0.0
12722,53.0,1,90,12.0,0.0
12723,51.0,3,90,13.0,0.0
12724,39.0,4,90,14.0,0.0
12725,53.0,11,15,15.0,0.0
12726,77.0,1,60,0.0,0.0
12727,77.0,0,60,1.0,0.0
12728,65.0,2,60,1.0,0.0
12729,65.0,3,60,2.0,0.0
12730,53.0,5,60,3.0,0.0
12731,70.0,5,90,10.0,0.0
12732,77.0,0,60,0.0,0.0
12733,89.0,2,60,0.0,0.0
12734,65.0,1,15,6.0,0.0
12735,77.0,0,60,1.0,0.0
12736,77.0,0,15,6.0,0.0
12737,65.0,2,60,1.0,0.0
12738,65.0,5,120,4.0,0.0
12739,62.0,4,90,11.0,0.0
12740,77.0,11,60,2.0,0.0
12741,53.0,6,90,12.0,0.0
12742,53.0,9,15,5.0,0.0
12743,50.0,3,90,13.0,0.0
12744,65.0,17,60,3.0,0.0
12745,38.0,4,90,14.0,0.0
12746,53.0,11,120,15.0,0.0
12747,89.0,2,60,0.0,0.0
12748,77.0,0,60,0.0,0.0
12749,65.0,0,60,1.0,0.0
12750,77.0,2,60,1.0,0.0
12751,77.0,11,60,2.0,0.0
12752,65.0,57,60,3.0,0.0
12753,72.0,5,90,10.0,0.0
12754,65.0,0,15,6.0,0.0
12755,77.0,1,15,6.0,0.0
12756,69.0,3,90,11.0,0.0
12757,51.0,1,90,12.0,0.0
12758,53.0,9,120,5.0,0.0
12759,48.0,3,90,13.0,0.0
12760,36.0,4,90,14.0,0.0
12761,89.0,0,60,0.0,0.0
12762,77.0,1,60,0.0,0.0
12763,65.0,2,60,1.0,0.0
12764,77.0,0,60,1.0,0.0
12765,77.0,3,60,2.0,0.0
12766,65.0,0,60,3.0,0.0
12767,74.0,5,90,10.0,0.0
12768,86.0,2,60,0.0,0.0
12769,77.0,1,120,6.0,0.0
12770,74.0,0,60,1.0,0.0
12771,86.0,2,60,1.0,0.0
12772,65.0,0,120,6.0,0.0
12773,70.0,4,90,11.0,0.0
12774,65.0,5,15,4.0,0.0
12775,74.0,11,60,2.0,0.0
12776,50.0,6,90,12.0,0.0
12777,53.0,9,120,5.0,0.0
12778,46.0,3,90,13.0,0.0
12779,62.0,17,60,3.0,0.0
12780,34.0,4,90,14.0,0.0
12781,53.0,51,15,15.0,0.0
12782,86.0,2,60,0.0,0.0
12783,74.0,2,60,1.0,0.0
12784,86.0,0,60,1.0,0.0
12785,74.0,11,60,2.0,0.0
12786,62.0,57,60,3.0,0.0
12787,74.0,5,90,10.0,0.0
12788,62.0,3,90,11.0,0.0
12789,60.0,1,90,12.0,0.0
12790,57.0,3,90,13.0,0.0
12791,45.0,5,90,14.0,0.0
12792,86.0,1,60,0.0,0.0
12793,74.0,2,60,1.0,0.0
12794,86.0,0,60,1.0,0.0
12795,74.0,3,60,2.0,0.0
12796,62.0,65,60,3.0,0.0
12797,76.0,5,90,10.0,0.0
12798,86.0,2,60,0.0,0.0
12799,86.0,2,60,1.0,0.0
12800,74.0,0,60,1.0,0.0
12801,79.0,1,120,6.0,0.0
12802,67.0,5,120,4.0,0.0
12803,64.0,4,90,11.0,0.0
12804,74.0,11,60,2.0,0.0
12805,58.0,6,90,12.0,0.0
12806,67.0,20,120,5.0,0.0
12807,55.0,3,90,13.0,0.0
12808,62.0,17,60,3.0,0.0
12809,43.0,4,90,14.0,0.0
12810,86.0,2,60,0.0,0.0
12811,86.0,2,60,1.0,0.0
12812,74.0,0,60,1.0,0.0
12813,74.0,11,60,2.0,0.0
12814,62.0,57,60,3.0,0.0
12815,77.0,5,90,10.0,0.0
12816,65.0,3,90,11.0,0.0
12817,57.0,1,90,12.0,0.0
12818,53.0,3,90,13.0,0.0
12819,41.0,5,90,14.0,0.0
12820,86.0,1,60,0.0,0.0
12821,74.0,2,60,1.0,0.0
12822,86.0,0,60,1.0,0.0
12823,74.0,3,60,2.0,0.0
12824,62.0,65,60,3.0,0.0
12825,79.0,5,90,10.0,0.0
12826,76.0,0,60,0.0,0.0
12827,88.0,2,60,0.0,0.0
12828,76.0,2,60,1.0,0.0
12829,67.0,4,90,11.0,0.0
12830,76.0,11,60,2.0,0.0
12831,55.0,6,90,12.0,0.0
12832,52.0,3,90,13.0,0.0
12833,64.0,17,60,3.0,0.0
12834,40.0,30,90,14.0,0.0
12835,88.0,2,60,0.0,0.0
12836,76.0,0,60,0.0,0.0
12837,76.0,2,60,1.0,0.0
12838,76.0,11,60,2.0,0.0
12839,64.0,57,60,3.0,0.0
12840,80.0,5,90,10.0,0.0
12841,68.0,3,90,11.0,0.0
12842,53.0,1,90,12.0,0.0
12843,50.0,3,90,13.0,0.0
12844,38.0,5,90,14.0,0.0
12845,88.0,1,60,0.0,0.0
12846,76.0,0,60,0.0,0.0
12847,76.0,2,60,1.0,0.0
12848,76.0,3,60,2.0,0.0
12849,64.0,65,60,3.0,0.0
12850,81.0,4,90,10.0,0.0
12851,81.0,2,60,0.0,0.0
12852,93.0,0,60,0.0,0.0
12853,81.0,1,90,6.0,0.0
12854,69.0,0,90,6.0,0.0
12855,81.0,2,60,1.0,0.0
12856,69.0,0,90,4.0,0.0
12857,69.0,4,90,11.0,0.0
12858,69.0,11,60,2.0,0.0
12859,52.0,1,90,12.0,0.0
12860,57.0,5,90,5.0,0.0
12861,49.0,3,90,13.0,0.0
12862,57.0,17,60,3.0,0.0
12863,37.0,30,90,14.0,0.0
12864,81.0,0,60,0.0,0.0
12865,93.0,2,60,0.0,0.0
12866,81.0,2,60,1.0,0.0
12867,69.0,11,60,2.0,0.0
12868,57.0,57,60,3.0,0.0
12869,81.0,4,90,10.0,0.0
12870,69.0,0,90,6.0,0.0
12871,81.0,1,90,6.0,0.0
12872,69.0,3,90,11.0,0.0
12873,69.0,0,90,4.0,0.0
12874,50.0,1,90,12.0,0.0
12875,57.0,0,90,5.0,0.0
12876,47.0,3,90,13.0,0.0
12877,35.0,5,90,14.0,0.0
12878,93.0,0,60,0.0,0.0
12879,81.0,1,60,0.0,0.0
12880,81.0,2,60,1.0,0.0
12881,69.0,3,60,2.0,0.0
12882,57.0,27,60,3.0,0.0
12883,81.0,5,30,10.0,0.0
12884,81.0,0,60,0.0,0.0
12885,93.0,2,60,0.0,0.0
12886,81.0,0,90,6.0,0.0
12887,69.0,1,90,6.0,0.0
12888,81.0,0,60,1.0,0.0
12889,69.0,5,90,4.0,0.0
12890,69.0,4,30,11.0,0.0
12891,69.0,3,60,2.0,0.0
12892,49.0,29,30,12.0,0.0
12893,57.0,5,90,5.0,0.0
12894,45.0,3,90,13.0,0.0
12895,57.0,21,60,3.0,0.0
12896,33.0,1,90,14.0,0.0
12897,81.0,2,30,10.0,0.0
12898,69.0,4,30,11.0,0.0
12899,57.0,4,30,12.0,0.0
12900,81.0,0,30,10.0,0.0
12901,93.0,2,60,0.0,0.0
12902,81.0,0,60,0.0,0.0
12903,81.0,2,60,1.0,0.0
12904,69.0,0,30,11.0,0.0
12905,69.0,3,60,2.0,0.0
12906,57.0,29,30,12.0,0.0
12907,57.0,27,60,3.0,0.0
12908,81.0,0,30,10.0,0.0
12909,69.0,0,90,6.0,0.0
12910,81.0,1,90,6.0,0.0
12911,69.0,3,90,4.0,0.0
12912,69.0,4,30,11.0,0.0
12913,57.0,4,30,12.0,0.0
12914,57.0,2,90,5.0,0.0
12915,47.0,3,90,13.0,0.0
12916,35.0,1,90,14.0,0.0
12917,81.0,5,30,10.0,0.0
12918,93.0,2,60,0.0,0.0
12919,81.0,0,60,0.0,0.0
12920,81.0,0,60,1.0,0.0
12921,69.0,4,30,11.0,0.0
12922,69.0,3,60,2.0,0.0
12923,57.0,25,30,12.0,0.0
12924,57.0,27,60,3.0,0.0
12925,81.0,0,30,10.0,0.0
12926,69.0,0,30,11.0,0.0
12927,57.0,4,30,12.0,0.0
12928,81.0,5,30,10.0,0.0
12929,93.0,2,60,0.0,0.0
12930,81.0,0,60,0.0,0.0
12931,81.0,1,90,6.0,0.0
12932,81.0,0,60,1.0,0.0
12933,69.0,0,90,6.0,0.0
12934,69.0,4,30,11.0,0.0
12935,69.0,5,90,4.0,0.0
12936,69.0,3,60,2.0,0.0
12937,57.0,29,30,12.0,0.0
12938,57.0,5,90,5.0,0.0
12939,49.0,0,90,13.0,0.0
12940,57.0,21,60,3.0,0.0
12941,37.0,1,90,14.0,0.0
12942,81.0,2,30,10.0,0.0
12943,69.0,4,30,11.0,0.0
12944,57.0,4,30,12.0,0.0
12945,81.0,0,30,10.0,0.0
12946,93.0,2,60,0.0,0.0
12947,81.0,0,60,0.0,0.0
12948,81.0,0,60,1.0,0.0
12949,69.0,3,30,11.0,0.0
12950,69.0,3,60,2.0,0.0
12951,57.0,29,30,12.0,0.0
12952,57.0,27,60,3.0,0.0
12953,81.0,2,30,10.0,0.0
12954,81.0,0,90,6.0,0.0
12955,69.0,1,90,6.0,0.0
12956,69.0,4,30,11.0,0.0
12957,69.0,3,90,4.0,0.0
12958,57.0,4,30,12.0,0.0
12959,57.0,0,90,5.0,0.0
12960,50.0,3,90,13.0,0.0
12961,38.0,1,90,14.0,0.0
12962,81.0,5,30,10.0,0.0
12963,81.0,0,60,0.0,0.0
12964,93.0,2,60,0.0,0.0
12965,81.0,2,60,1.0,0.0
12966,69.0,4,30,11.0,0.0
12967,69.0,3,60,2.0,0.0
12968,57.0,25,30,12.0,0.0
12969,57.0,27,60,3.0,0.0
12970,81.0,0,30,10.0,0.0
12971,69.0,0,30,11.0,0.0
12972,57.0,4,30,12.0,0.0
12973,81.0,5,30,10.0,0.0
12974,81.0,0,60,0.0,0.0
12975,93.0,2,60,0.0,0.0
12976,69.0,1,90,6.0,0.0
12977,81.0,0,90,6.0,0.0
12978,81.0,2,60,1.0,0.0
12979,69.0,5,90,4.0,0.0
12980,69.0,4,30,11.0,0.0
12981,69.0,3,60,2.0,0.0
12982,57.0,29,30,12.0,0.0
12983,57.0,0,90,5.0,0.0
12984,52.0,0,90,13.0,0.0
12985,57.0,21,60,3.0,0.0
12986,40.0,1,90,14.0,0.0
12987,81.0,0,30,10.0,0.0
12988,69.0,4,30,11.0,0.0
12989,57.0,4,30,12.0,0.0
12990,81.0,5,30,10.0,0.0
12991,93.0,0,60,0.0,0.0
12992,81.0,2,60,0.0,0.0
12993,81.0,2,60,1.0,0.0
12994,69.0,3,30,11.0,0.0
12995,69.0,3,60,2.0,0.0
12996,57.0,29,30,12.0,0.0
12997,57.0,27,60,3.0,0.0
12998,81.0,0,30,10.0,0.0
12999,69.0,0,90,6.0,0.0
13000,81.0,1,90,6.0,0.0
13001,69.0,3,90,4.0,0.0
13002,69.0,4,30,11.0,0.0
13003,57.0,4,30,12.0,0.0
13004,57.0,0,90,5.0,0.0
13005,54.0,3,90,13.0,0.0
13006,42.0,1,90,14.0,0.0
13007,81.0,5,30,10.0,0.0
13008,93.0,2,60,0.0,0.0
13009,81.0,0,60,0.0,0.0
13010,81.0,2,60,1.0,0.0
13011,69.0,4,30,11.0,0.0
13012,69.0,3,60,2.0,0.0
13013,57.0,25,30,12.0,0.0
13014,57.0,27,60,3.0,0.0
13015,81.0,0,30,10.0,0.0
13016,69.0,0,30,11.0,0.0
13017,57.0,4,30,12.0,0.0
13018,81.0,5,30,10.0,0.0
13019,81.0,0,60,0.0,0.0
13020,93.0,2,60,0.0,0.0
13021,69.0,1,90,6.0,0.0
13022,81.0,0,90,6.0,0.0
13023,81.0,0,60,1.0,0.0
13024,69.0,4,30,11.0,0.0
13025,69.0,5,90,4.0,0.0
13026,69.0,3,60,2.0,0.0
13027,57.0,29,30,12.0,0.0
13028,57.0,5,90,5.0,0.0
13029,55.0,3,90,13.0,0.0
13030,57.0,21,60,3.0,0.0
13031,43.0,1,90,14.0,0.0
13032,81.0,2,30,10.0,0.0
13033,69.0,4,30,11.0,0.0
13034,57.0,4,30,12.0,0.0
13035,81.0,0,30,10.0,0.0
13036,93.0,0,60,0.0,0.0
13037,81.0,2,60,0.0,0.0
13038,81.0,0,60,1.0,0.0
13039,69.0,0,30,11.0,0.0
13040,69.0,3,60,2.0,0.0
13041,57.0,29,30,12.0,0.0
13042,57.0,27,60,3.0,0.0
13043,81.0,2,30,10.0,0.0
13044,69.0,1,90,6.0,0.0
13045,81.0,0,90,6.0,0.0
13046,69.0,3,90,4.0,0.0
13047,69.0,4,30,11.0,0.0
13048,57.0,4,30,12.0,0.0
13049,57.0,2,90,5.0,0.0
13050,56.0,0,90,13.0,0.0
13051,44.0,1,90,14.0,0.0
13052,81.0,5,30,10.0,0.0
13053,93.0,0,60,0.0,0.0
13054,81.0,2,60,0.0,0.0
13055,81.0,0,60,1.0,0.0
13056,69.0,4,30,11.0,0.0
13057,69.0,3,60,2.0,0.0
13058,57.0,25,30,12.0,0.0
13059,57.0,27,60,3.0,0.0
13060,81.0,0,30,10.0,0.0
13061,69.0,3,30,11.0,0.0
13062,57.0,4,30,12.0,0.0
13063,81.0,5,30,10.0,0.0
13064,93.0,2,60,0.0,0.0
13065,81.0,0,60,0.0,0.0
13066,69.0,0,90,6.0,0.0
13067,81.0,1,90,6.0,0.0
13068,81.0,2,60,1.0,0.0
13069,69.0,4,30,11.0,0.0
13070,69.0,5,90,4.0,0.0
13071,69.0,3,60,2.0,0.0
13072,57.0,29,30,12.0,0.0
13073,57.0,5,90,5.0,0.0
13074,57.0,0,90,13.0,0.0
13075,57.0,21,60,3.0,0.0
13076,45.0,1,90,14.0,0.0
13077,81.0,0,30,10.0,0.0
13078,69.0,4,30,11.0,0.0
13079,57.0,4,30,12.0,0.0
13080,81.0,0,30,10.0,0.0
13081,93.0,2,60,0.0,0.0
13082,81.0,0,60,0.0,0.0
13083,81.0,2,60,1.0,0.0
13084,69.0,3,30,11.0,0.0
13085,69.0,3,60,2.0,0.0
13086,57.0,29,30,12.0,0.0
13087,57.0,27,60,3.0,0.0
13088,81.0,0,30,10.0,0.0
13089,81.0,0,90,6.0,0.0
13090,69.0,1,90,6.0,0.0
13091,69.0,3,90,4.0,0.0
13092,69.0,4,30,11.0,0.0
13093,57.0,4,30,12.0,0.0
13094,57.0,0,90,5.0,0.0
13095,59.0,0,90,13.0,0.0
13096,47.0,1,90,14.0,0.0
13097,81.0,5,30,10.0,0.0
13098,93.0,2,60,0.0,0.0
13099,81.0,0,60,0.0,0.0
13100,81.0,2,60,1.0,0.0
13101,69.0,4,30,11.0,0.0
13102,69.0,3,60,2.0,0.0
13103,57.0,25,30,12.0,0.0
13104,57.0,27,60,3.0,0.0
13105,81.0,0,30,10.0,0.0
13106,69.0,3,30,11.0,0.0
13107,57.0,4,30,12.0,0.0
13108,81.0,5,30,10.0,0.0
13109,81.0,2,60,0.0,0.0
13110,93.0,0,60,0.0,0.0
13111,69.0,1,90,6.0,0.0
13112,81.0,0,60,1.0,0.0
13113,81.0,0,90,6.0,0.0
13114,69.0,4,30,11.0,0.0
13115,69.0,5,90,4.0,0.0
13116,69.0,3,60,2.0,0.0
13117,57.0,29,30,12.0,0.0
13118,57.0,5,90,5.0,0.0
13119,61.0,3,90,13.0,0.0
13120,57.0,21,60,3.0,0.0
13121,49.0,1,90,14.0,0.0
13122,81.0,2,30,10.0,0.0
13123,69.0,4,30,11.0,0.0
13124,57.0,4,30,12.0,0.0
13125,81.0,0,30,10.0,0.0
13126,93.0,2,60,0.0,0.0
13127,81.0,0,60,0.0,0.0
13128,81.0,2,60,1.0,0.0
13129,69.0,0,30,11.0,0.0
13130,69.0,3,60,2.0,0.0
13131,57.0,29,30,12.0,0.0
13132,57.0,27,60,3.0,0.0
13133,81.0,0,30,10.0,0.0
13134,69.0,1,90,6.0,0.0
13135,81.0,0,90,6.0,0.0
13136,69.0,3,90,4.0,0.0
13137,69.0,4,30,11.0,0.0
13138,57.0,4,30,12.0,0.0
13139,57.0,2,90,5.0,0.0
13140,62.0,0,90,13.0,0.0
13141,50.0,1,90,14.0,0.0
13142,81.0,5,30,10.0,0.0
13143,93.0,2,60,0.0,0.0
13144,81.0,0,60,0.0,0.0
13145,81.0,0,60,1.0,0.0
13146,69.0,4,30,11.0,0.0
13147,69.0,3,60,2.0,0.0
13148,57.0,25,30,12.0,0.0
13149,57.0,27,60,3.0,0.0
13150,81.0,0,30,10.0,0.0
13151,69.0,3,30,11.0,0.0
13152,57.0,4,30,12.0,0.0
13153,81.0,5,30,10.0,0.0
13154,93.0,2,60,0.0,0.0
13155,81.0,0,60,0.0,0.0
13156,69.0,1,90,6.0,0.0
13157,81.0,2,60,1.0,0.0
13158,81.0,0,90,6.0,0.0
13159,69.0,4,30,11.0,0.0
13160,69.0,5,90,4.0,0.0
13161,69.0,3,60,2.0,0.0
13162,57.0,29,30,12.0,0.0
13163,57.0,5,90,5.0,0.0
13164,64.0,3,90,13.0,0.0
13165,57.0,21,60,3.0,0.0
13166,52.0,1,90,14.0,0.0
13167,81.0,0,30,10.0,0.0
13168,69.0,4,30,11.0,0.0
13169,57.0,4,30,12.0,0.0
13170,81.0,0,30,10.0,0.0
13171,93.0,2,60,0.0,0.0
13172,81.0,0,60,0.0,0.0
13173,81.0,0,60,1.0,0.0
13174,69.0,0,30,11.0,0.0
13175,69.0,3,60,2.0,0.0
13176,57.0,29,30,12.0,0.0
13177,57.0,27,60,3.0,0.0
13178,81.0,2,30,10.0,0.0
13179,69.0,1,90,6.0,0.0
13180,81.0,0,90,6.0,0.0
13181,69.0,3,90,4.0,0.0
13182,69.0,4,30,11.0,0.0
13183,57.0,4,30,12.0,0.0
13184,57.0,0,90,5.0,0.0
13185,66.0,3,90,13.0,0.0
13186,54.0,1,90,14.0,0.0
13187,81.0,5,30,10.0,0.0
13188,93.0,2,60,0.0,0.0
13189,81.0,0,60,0.0,0.0
13190,81.0,2,60,1.0,0.0
13191,69.0,4,30,11.0,0.0
13192,69.0,3,60,2.0,0.0
13193,57.0,25,30,12.0,0.0
13194,57.0,27,60,3.0,0.0
13195,81.0,0,30,10.0,0.0
13196,69.0,0,30,11.0,0.0
13197,57.0,4,30,12.0,0.0
13198,78.0,5,30,10.0,0.0
13199,81.0,0,1920,0.0,0.0
13200,93.0,2,1920,0.0,0.0
13201,81.0,1,1920,6.0,0.0
13202,69.0,0,1920,6.0,0.0
13203,69.0,0,1920,1.0,0.0
13204,81.0,0,1920,1.0,0.0
13205,69.0,1,1920,4.0,0.0
13206,74.0,4,30,11.0,0.0
13207,81.0,0,1920,2.0,0.0
13208,69.0,4,1920,2.0,0.0
13209,62.0,0,30,12.0,0.0
13210,66.0,31,30,12.0,0.0
13211,57.0,7,1920,5.0,0.0
13212,68.0,3,90,13.0,0.0
13213,57.0,43,1920,3.0,0.0
13214,56.0,1,90,14.0,0.0
13215,78.0,5,30,10.0,0.0
13216,74.0,4,30,11.0,0.0
13217,66.0,31,30,12.0,0.0
13218,62.0,0,30,12.0,0.0
13219,78.0,5,30,10.0,0.0
13220,74.0,0,30,11.0,0.0
13221,62.0,31,30,12.0,0.0
13222,66.0,0,30,12.0,0.0
13223,78.0,5,30,10.0,0.0
13224,74.0,4,30,11.0,0.0
13225,62.0,0,30,12.0,0.0
13226,66.0,31,30,12.0,0.0
13227,69.0,3,90,13.0,0.0
13228,57.0,1,90,14.0,0.0
13229,78.0,5,30,10.0,0.0
13230,74.0,4,30,11.0,0.0
13231,62.0,31,30,12.0,0.0
13232,66.0,0,30,12.0,0.0
13233,78.0,5,30,10.0,0.0
13234,74.0,0,30,11.0,0.0
13235,66.0,59,30,12.0,0.0
13236,62.0,0,30,12.0,0.0
13237,78.0,5,60,10.0,0.0
13238,74.0,4,60,11.0,0.0
13239,62.0,48,60,12.0,0.0
13240,66.0,0,60,12.0,0.0
13241,57.0,3,90,13.0,0.0
13242,45.0,0,90,14.0,0.0
13243,79.0,5,60,10.0,0.0
13244,76.0,4,60,11.0,0.0
13245,64.0,51,60,12.0,0.0
13246,67.0,0,60,12.0,0.0
13247,76.0,5,60,10.0,0.0
13248,69.0,4,60,11.0,0.0
13249,64.0,0,60,12.0,0.0
13250,57.0,48,60,12.0,0.0
13251,69.0,3,90,13.0,0.0
13252,57.0,60,90,14.0,0.0
13253,78.0,5,60,10.0,0.0
13254,74.0,4,60,11.0,0.0
13255,62.0,0,60,12.0,0.0
13256,66.0,48,60,12.0,0.0
13257,57.0,3,90,13.0,0.0
13258,45.0,5,90,14.0,0.0
13259,79.0,0,60,10.0,0.0
13260,76.0,4,60,11.0,0.0
13261,67.0,0,60,12.0,0.0
13262,76.0,5,60,10.0,0.0
13263,69.0,4,60,11.0,0.0
13264,64.0,51,15,12.0,0.0
13265,57.0,0,60,12.0,0.0
13266,69.0,3,90,13.0,0.0
13267,57.0,60,90,14.0,0.0
13268,78.0,5,60,10.0,0.0
13269,74.0,4,60,11.0,0.0
13270,62.0,0,60,12.0,0.0
13271,66.0,48,60,12.0,0.0
13272,57.0,3,90,13.0,0.0
13273,45.0,0,90,14.0,0.0
13274,79.0,5,60,10.0,0.0
13275,76.0,4,60,11.0,0.0
13276,64.0,51,60,12.0,0.0
13277,67.0,0,60,12.0,0.0
13278,76.0,5,60,10.0,0.0
13279,69.0,4,60,11.0,0.0
13280,57.0,48,60,12.0,0.0
13281,64.0,0,60,12.0,0.0
13282,69.0,3,90,13.0,0.0
13283,57.0,32,90,14.0,0.0
13284,79.0,5,30,10.0,0.0
13285,76.0,4,30,11.0,0.0
13286,64.0,0,30,12.0,0.0
13287,67.0,31,30,12.0,0.0
13288,57.0,0,90,13.0,0.0
13289,45.0,1,90,14.0,0.0
13290,79.0,5,30,10.0,0.0
13291,76.0,4,30,11.0,0.0
13292,67.0,31,30,12.0,0.0
13293,64.0,0,30,12.0,0.0
13294,79.0,5,30,10.0,0.0
13295,76.0,3,30,11.0,0.0
13296,64.0,0,30,12.0,0.0
13297,67.0,31,30,12.0,0.0
13298,79.0,5,30,10.0,0.0
13299,76.0,4,30,11.0,0.0
13300,67.0,0,30,12.0,0.0
13301,64.0,31,30,12.0,0.0
13302,69.0,0,90,13.0,0.0
13303,57.0,1,90,14.0,0.0
13304,79.0,5,30,10.0,0.0
13305,76.0,4,30,11.0,0.0
13306,64.0,31,30,12.0,0.0
13307,67.0,0,30,12.0,0.0
13308,79.0,5,30,10.0,0.0
13309,76.0,3,30,11.0,0.0
13310,67.0,0,30,12.0,0.0
13311,64.0,59,30,12.0,0.0
13312,79.0,5,60,10.0,0.0
13313,76.0,4,60,11.0,0.0
13314,64.0,0,60,12.0,0.0
13315,67.0,48,60,12.0,0.0
13316,57.0,3,90,13.0,0.0
13317,45.0,5,90,14.0,0.0
13318,81.0,0,60,10.0,0.0
13319,78.0,4,60,11.0,0.0
13320,66.0,0,60,12.0,0.0
13321,69.0,51,60,12.0,0.0
13322,78.0,5,60,10.0,0.0
13323,74.0,4,60,11.0,0.0
13324,62.0,0,60,12.0,0.0
13325,66.0,48,60,12.0,0.0
13326,69.0,3,90,13.0,0.0
13327,57.0,60,90,14.0,0.0
13328,79.0,5,60,10.0,0.0
13329,76.0,4,60,11.0,0.0
13330,67.0,0,60,12.0,0.0
13331,64.0,48,60,12.0,0.0
13332,57.0,3,90,13.0,0.0
13333,45.0,5,90,14.0,0.0
13334,81.0,0,60,10.0,0.0
13335,78.0,4,60,11.0,0.0
13336,66.0,0,60,12.0,0.0
13337,69.0,51,60,12.0,0.0
13338,78.0,5,60,10.0,0.0
13339,74.0,4,60,11.0,0.0
13340,66.0,48,60,12.0,0.0
13341,62.0,0,60,12.0,0.0
13342,69.0,3,90,13.0,0.0
13343,57.0,60,90,14.0,0.0
13344,79.0,5,60,10.0,0.0
13345,76.0,4,60,11.0,0.0
13346,67.0,48,60,12.0,0.0
13347,64.0,0,60,12.0,0.0
13348,57.0,3,90,13.0,0.0
13349,45.0,0,90,14.0,0.0
13350,81.0,5,60,10.0,0.0
13351,78.0,4,60,11.0,0.0
13352,69.0,0,60,12.0,0.0
13353,78.0,5,60,10.0,0.0
13354,74.0,4,60,11.0,0.0
13355,66.0,51,15,12.0,0.0
13356,62.0,0,60,12.0,0.0
13357,69.0,3,90,13.0,0.0
13358,57.0,2,90,14.0,0.0
13359,69.0,2,60,10.0,0.0
13360,81.0,3,60,0.0,0.0
13361,57.0,4,60,11.0,0.0
13362,57.0,111,60,12.0,0.0
13363,81.0,2,60,10.0,0.0
13364,93.0,3,60,0.0,0.0
13365,69.0,4,60,11.0,0.0
13366,69.0,111,60,12.0,0.0
13367,69.0,2,60,10.0,0.0
13368,81.0,3,60,0.0,0.0
13369,57.0,4,60,11.0,0.0
13370,57.0,111,60,12.0,0.0
13371,81.0,2,60,10.0,0.0
13372,93.0,3,60,0.0,0.0
13373,69.0,4,60,11.0,0.0
13374,69.0,111,60,12.0,0.0
13375,69.0,2,60,10.0,0.0
13376,81.0,3,60,0.0,0.0
13377,57.0,4,60,11.0,0.0
13378,57.0,111,60,12.0,0.0
13379,81.0,2,60,10.0,0.0
13380,93.0,3,60,0.0,0.0
13381,69.0,4,60,11.0,0.0
13382,69.0,111,60,12.0,0.0
13383,69.0,2,60,10.0,0.0
13384,81.0,3,60,0.0,0.0
13385,57.0,4,60,11.0,0.0
13386,57.0,111,60,12.0,0.0
13387,81.0,2,60,10.0,0.0
13388,93.0,3,60,0.0,0.0
13389,69.0,4,60,11.0,0.0
13390,69.0,128,60,12.0,0.0
13391,41.0,62,60,3.0,0.0
13392,41.0,58,120,15.0,0.0
13393,53.0,62,60,3.0,0.0
13394,53.0,58,120,15.0,0.0
13395,41.0,62,60,3.0,0.0
13396,41.0,58,120,15.0,0.0
13397,53.0,62,60,3.0,0.0
13398,53.0,58,120,15.0,0.0
13399,41.0,62,60,3.0,0.0
13400,41.0,58,120,15.0,0.0
13401,53.0,62,60,3.0,0.0
13402,53.0,58,120,15.0,0.0
13403,41.0,62,60,3.0,0.0
13404,41.0,58,120,15.0,0.0
13405,53.0,62,60,3.0,0.0
13406,53.0,58,120,15.0,0.0
13407,41.0,62,60,3.0,0.0
13408,41.0,58,120,15.0,0.0
13409,53.0,62,60,3.0,0.0
13410,53.0,58,120,15.0,0.0
13411,41.0,62,60,3.0,0.0
13412,41.0,58,120,15.0,0.0
13413,53.0,62,60,3.0,0.0
13414,53.0,58,120,15.0,0.0
13415,41.0,62,60,3.0,0.0
13416,41.0,58,120,15.0,0.0
13417,53.0,62,60,3.0,0.0
13418,53.0,58,120,15.0,0.0
13419,41.0,62,60,3.0,0.0
13420,41.0,58,120,15.0,0.0
13421,53.0,62,60,3.0,0.0
13422,53.0,11,120,15.0,0.0
13423,69.0,5,30,10.0,0.0
13424,89.0,2,720,0.0,0.0
13425,77.0,15,720,1.0,0.0
13426,65.0,35,30,11.0,0.0
13427,65.0,5,2280,4.0,0.0
13428,53.0,65,2280,5.0,0.0
13429,41.0,33,60,3.0,0.0
13430,41.0,11,120,15.0,0.0
13431,69.0,5,30,10.0,0.0
13432,65.0,2,30,11.0,0.0
13433,69.0,5,30,10.0,0.0
13434,65.0,24,30,11.0,0.0
13435,69.0,5,30,10.0,0.0
13436,65.0,35,30,11.0,0.0
13437,53.0,33,60,3.0,0.0
13438,53.0,41,120,15.0,0.0
13439,69.0,5,30,10.0,0.0
13440,65.0,2,30,11.0,0.0
13441,69.0,5,30,10.0,0.0
13442,65.0,24,30,11.0,0.0
13443,69.0,5,60,10.0,0.0
13444,65.0,12,60,11.0,0.0
13445,41.0,43,60,3.0,0.0
13446,41.0,41,120,15.0,0.0
13447,70.0,5,60,10.0,0.0
13448,67.0,14,60,11.0,0.0
13449,67.0,5,60,10.0,0.0
13450,60.0,12,60,11.0,0.0
13451,53.0,62,60,3.0,0.0
13452,53.0,41,120,15.0,0.0
13453,69.0,5,60,10.0,0.0
13454,65.0,4,60,11.0,0.0
13455,53.0,8,60,12.0,0.0
13456,57.0,0,60,12.0,0.0
13457,41.0,43,60,3.0,0.0
13458,41.0,41,120,15.0,0.0
13459,70.0,5,60,10.0,0.0
13460,67.0,4,60,11.0,0.0
13461,58.0,0,60,12.0,0.0
13462,67.0,5,60,10.0,0.0
13463,60.0,4,60,11.0,0.0
13464,55.0,10,15,12.0,0.0
13465,48.0,8,60,12.0,0.0
13466,53.0,45,60,3.0,0.0
13467,53.0,41,120,15.0,0.0
13468,69.0,2,60,10.0,0.0
13469,81.0,2,60,0.0,0.0
13470,77.0,1,60,1.0,0.0
13471,65.0,12,60,11.0,0.0
13472,41.0,43,60,3.0,0.0
13473,41.0,41,120,15.0,0.0
13474,70.0,2,60,10.0,0.0
13475,82.0,2,60,0.0,0.0
13476,79.0,1,60,1.0,0.0
13477,67.0,14,60,11.0,0.0
13478,67.0,2,60,10.0,0.0
13479,79.0,2,60,0.0,0.0
13480,72.0,1,60,1.0,0.0
13481,60.0,12,60,11.0,0.0
13482,53.0,62,60,3.0,0.0
13483,53.0,11,120,15.0,0.0
13484,70.0,5,30,10.0,0.0
13485,89.0,2,720,0.0,0.0
13486,77.0,15,720,1.0,0.0
13487,67.0,35,30,11.0,0.0
13488,41.0,33,60,3.0,0.0
13489,41.0,11,120,15.0,0.0
13490,70.0,5,30,10.0,0.0
13491,67.0,2,30,11.0,0.0
13492,70.0,5,30,10.0,0.0
13493,67.0,24,30,11.0,0.0
13494,70.0,5,30,10.0,0.0
13495,67.0,35,30,11.0,0.0
13496,53.0,33,60,3.0,0.0
13497,53.0,41,120,15.0,0.0
13498,70.0,5,30,10.0,0.0
13499,67.0,2,30,11.0,0.0
13500,70.0,5,30,10.0,0.0
13501,67.0,24,30,11.0,0.0
13502,70.0,5,60,10.0,0.0
13503,67.0,12,60,11.0,0.0
13504,41.0,43,60,3.0,0.0
13505,41.0,41,120,15.0,0.0
13506,72.0,5,60,10.0,0.0
13507,69.0,14,60,11.0,0.0
13508,69.0,5,60,10.0,0.0
13509,65.0,12,60,11.0,0.0
13510,53.0,62,60,3.0,0.0
13511,53.0,41,120,15.0,0.0
13512,70.0,5,60,10.0,0.0
13513,67.0,4,60,11.0,0.0
13514,55.0,0,60,12.0,0.0
13515,58.0,8,60,12.0,0.0
13516,41.0,43,60,3.0,0.0
13517,41.0,41,120,15.0,0.0
13518,72.0,5,60,10.0,0.0
13519,69.0,4,60,11.0,0.0
13520,60.0,10,60,12.0,0.0
13521,69.0,5,60,10.0,0.0
13522,65.0,4,60,11.0,0.0
13523,57.0,0,15,12.0,0.0
13524,53.0,8,60,12.0,0.0
13525,53.0,45,60,3.0,0.0
13526,53.0,41,120,15.0,0.0
13527,70.0,2,60,10.0,0.0
13528,82.0,2,60,0.0,0.0
13529,79.0,1,60,1.0,0.0
13530,67.0,12,60,11.0,0.0
13531,41.0,43,60,3.0,0.0
13532,41.0,41,120,15.0,0.0
13533,72.0,2,60,10.0,0.0
13534,84.0,2,60,0.0,0.0
13535,81.0,1,60,1.0,0.0
13536,69.0,14,60,11.0,0.0
13537,69.0,2,60,10.0,0.0
13538,81.0,2,60,0.0,0.0
13539,77.0,1,60,1.0,0.0
13540,65.0,12,60,11.0,0.0
13541,53.0,62,60,3.0,0.0
13542,53.0,56,120,15.0,0.0
13543,65.0,5,480,10.0,0.0
13544,89.0,2,120,0.0,0.0
13545,77.0,15,120,1.0,0.0
13546,60.0,4,240,11.0,0.0
13547,57.0,10,240,12.0,0.0
13548,41.0,2,60,13.0,0.0
13549,41.0,1,60,3.0,0.0
13550,29.0,44,60,14.0,0.0
13551,41.0,56,120,15.0,0.0
13552,53.0,2,60,13.0,0.0
13553,53.0,1,60,3.0,0.0
13554,41.0,39,60,14.0,0.0
13555,53.0,56,120,15.0,0.0
13556,88.0,2,60,0.0,0.0
13557,76.0,6,60,1.0,0.0
13558,88.0,2,120,0.0,0.0
13559,76.0,1,120,1.0,0.0
13560,62.0,4,240,11.0,0.0
13561,58.0,66,240,12.0,0.0
13562,46.0,3,60,13.0,0.0
13563,34.0,44,60,14.0,0.0
13564,86.0,2,120,0.0,0.0
13565,74.0,1,120,1.0,0.0
13566,58.0,3,60,13.0,0.0
13567,46.0,39,60,14.0,0.0
13568,66.0,1,240,10.0,0.0
13569,86.0,2,120,1.0,0.0
13570,60.0,4,240,11.0,0.0
13571,74.0,11,120,2.0,0.0
13572,57.0,3,240,12.0,0.0
13573,50.0,3,60,13.0,0.0
13574,62.0,58,120,3.0,0.0
13575,38.0,46,60,14.0,0.0
13576,62.0,3,60,13.0,0.0
13577,50.0,41,60,14.0,0.0
13578,84.0,1,60,1.0,0.0
13579,72.0,4,60,2.0,0.0
13580,60.0,63,60,3.0,0.0
13581,67.0,5,360,10.0,0.0
13582,84.0,2,120,1.0,0.0
13583,58.0,4,360,11.0,0.0
13584,72.0,11,120,2.0,0.0
13585,55.0,55,360,12.0,0.0
13586,43.0,3,60,13.0,0.0
13587,60.0,58,120,3.0,0.0
13588,31.0,46,60,14.0,0.0
13589,82.0,2,120,1.0,0.0
13590,70.0,11,120,2.0,0.0
13591,55.0,3,60,13.0,0.0
13592,58.0,52,120,3.0,0.0
13593,43.0,41,60,14.0,0.0
13594,82.0,2,60,1.0,0.0
13595,70.0,9,60,2.0,0.0
13596,43.0,2,60,13.0,0.0
13597,58.0,0,60,3.0,0.0
13598,55.0,1,60,3.0,0.0
13599,31.0,42,60,14.0,0.0
13600,66.0,5,120,10.0,0.0
13601,81.0,2,60,1.0,0.0
13602,60.0,4,120,11.0,0.0
13603,69.0,9,60,2.0,0.0
13604,57.0,55,120,12.0,0.0
13605,45.0,2,60,13.0,0.0
13606,60.0,1,60,3.0,0.0
13607,57.0,0,60,3.0,0.0
13608,33.0,42,60,14.0,0.0
13609,67.0,5,360,10.0,0.0
13610,79.0,2,60,1.0,0.0
13611,62.0,4,360,11.0,0.0
13612,67.0,9,60,2.0,0.0
13613,58.0,55,360,12.0,0.0
13614,46.0,2,60,13.0,0.0
13615,58.0,1,60,3.0,0.0
13616,62.0,0,60,3.0,0.0
13617,34.0,106,60,14.0,0.0
13618,78.0,2,60,1.0,0.0
13619,66.0,9,60,2.0,0.0
13620,58.0,2,60,13.0,0.0
13621,58.0,1,60,3.0,0.0
13622,62.0,0,60,3.0,0.0
13623,46.0,106,60,14.0,0.0
13624,79.0,2,60,1.0,0.0
13625,67.0,9,60,2.0,0.0
13626,46.0,2,60,13.0,0.0
13627,58.0,1,60,3.0,0.0
13628,62.0,0,60,3.0,0.0
13629,34.0,42,60,14.0,0.0
13630,69.0,5,120,10.0,0.0
13631,81.0,2,60,1.0,0.0
13632,60.0,0,600,4.0,0.0
13633,64.0,4,120,11.0,0.0
13634,69.0,9,60,2.0,0.0
13635,60.0,55,120,12.0,0.0
13636,48.0,52,600,5.0,0.0
13637,48.0,2,60,13.0,0.0
13638,64.0,0,60,3.0,0.0
13639,60.0,1,60,3.0,0.0
13640,36.0,42,60,14.0,0.0
13641,70.0,5,240,10.0,0.0
13642,82.0,2,60,1.0,0.0
13643,65.0,4,120,11.0,0.0
13644,70.0,9,60,2.0,0.0
13645,62.0,55,120,12.0,0.0
13646,50.0,2,60,13.0,0.0
13647,62.0,1,60,3.0,0.0
13648,65.0,0,60,3.0,0.0
13649,38.0,47,60,14.0,0.0
13650,79.0,2,60,1.0,0.0
13651,72.0,0,60,1.0,0.0
13652,67.0,59,120,11.0,0.0
13653,67.0,0,60,2.0,0.0
13654,60.0,9,60,2.0,0.0
13655,60.0,1,360,12.0,0.0
13656,52.0,2,60,13.0,0.0
13657,55.0,1,60,3.0,0.0
13658,52.0,0,60,3.0,0.0
13659,40.0,42,60,14.0,0.0
13660,69.0,5,240,10.0,0.0
13661,81.0,0,60,1.0,0.0
13662,72.0,2,60,1.0,0.0
13663,65.0,4,240,11.0,0.0
13664,60.0,9,60,2.0,0.0
13665,69.0,0,60,2.0,0.0
13666,53.0,2,60,13.0,0.0
13667,53.0,0,60,3.0,0.0
13668,57.0,1,60,3.0,0.0
13669,41.0,104,60,14.0,0.0
13670,89.0,2,60,0.0,0.0
13671,72.0,0,60,1.0,0.0
13672,77.0,2,60,1.0,0.0
13673,65.0,0,60,2.0,0.0
13674,60.0,9,60,2.0,0.0
13675,41.0,2,60,13.0,0.0
13676,57.0,0,60,3.0,0.0
13677,53.0,1,60,3.0,0.0
13678,29.0,42,60,14.0,0.0
13679,67.0,5,240,10.0,0.0
13680,55.0,0,720,10.0,0.0
13681,88.0,2,60,0.0,0.0
13682,76.0,2,60,1.0,0.0
13683,72.0,0,60,1.0,0.0
13684,67.0,0,480,4.0,0.0
13685,64.0,4,240,11.0,0.0
13686,64.0,9,60,2.0,0.0
13687,60.0,0,60,2.0,0.0
13688,60.0,53,240,12.0,0.0
13689,67.0,56,480,5.0,0.0
13690,43.0,2,60,13.0,0.0
13691,60.0,0,60,3.0,0.0
13692,55.0,1,60,3.0,0.0
13693,31.0,104,60,14.0,0.0
13694,88.0,2,60,0.0,0.0
13695,84.0,2,60,1.0,0.0
13696,72.0,9,60,2.0,0.0
13697,64.0,0,60,2.0,0.0
13698,55.0,2,60,13.0,0.0
13699,60.0,1,60,3.0,0.0
13700,43.0,42,60,14.0,0.0
13701,65.0,5,240,10.0,0.0
13702,79.0,2,60,0.0,0.0
13703,67.0,2,60,1.0,0.0
13704,62.0,4,240,11.0,0.0
13705,71.0,0,60,2.0,0.0
13706,62.0,9,60,2.0,0.0
13707,59.0,1,240,12.0,0.0
13708,43.0,2,60,13.0,0.0
13709,55.0,1,60,3.0,0.0
13710,31.0,104,60,14.0,0.0
13711,91.0,2,60,0.0,0.0
13712,79.0,2,60,1.0,0.0
13713,71.0,0,60,2.0,0.0
13714,62.0,9,60,2.0,0.0
13715,43.0,2,60,13.0,0.0
13716,67.0,1,60,3.0,0.0
13717,31.0,42,60,14.0,0.0
13718,64.0,5,240,10.0,0.0
13719,84.0,2,720,0.0,0.0
13720,72.0,71,720,1.0,0.0
13721,60.0,5,3600,4.0,0.0
13722,60.0,4,240,11.0,0.0
13723,64.0,9,60,2.0,0.0
13724,72.0,0,60,2.0,0.0
13725,60.0,21,240,12.0,0.0
13726,48.0,450,3600,5.0,0.0
13727,48.0,2,60,13.0,0.0
13728,60.0,1,60,3.0,0.0
13729,36.0,117,60,14.0,0.0
13730,48.0,3,60,13.0,0.0
13731,36.0,42,60,14.0,0.0
13732,74.0,5,30,10.0,0.0
13733,67.0,6,30,11.0,0.0
13734,62.0,29,30,12.0,0.0
13735,55.0,0,30,12.0,0.0
13736,36.0,0,60,13.0,0.0
13737,24.0,3,60,14.0,0.0
13738,74.0,5,30,10.0,0.0
13739,67.0,3,30,11.0,0.0
13740,55.0,0,30,12.0,0.0
13741,62.0,29,30,12.0,0.0
13742,74.0,5,30,10.0,0.0
13743,67.0,6,30,11.0,0.0
13744,55.0,29,30,12.0,0.0
13745,62.0,0,30,12.0,0.0
13746,74.0,5,30,10.0,0.0
13747,67.0,6,30,11.0,0.0
13748,62.0,0,30,12.0,0.0
13749,55.0,29,30,12.0,0.0
13750,48.0,0,60,13.0,0.0
13751,36.0,3,60,14.0,0.0
13752,74.0,5,30,10.0,0.0
13753,67.0,3,30,11.0,0.0
13754,55.0,0,30,12.0,0.0
13755,62.0,29,30,12.0,0.0
13756,74.0,5,30,10.0,0.0
13757,67.0,6,30,11.0,0.0
13758,55.0,0,30,12.0,0.0
13759,62.0,59,30,12.0,0.0
13760,74.0,5,60,10.0,0.0
13761,67.0,4,60,11.0,0.0
13762,62.0,6,60,12.0,0.0
13763,55.0,0,60,12.0,0.0
13764,36.0,3,60,13.0,0.0
13765,24.0,42,60,14.0,0.0
13766,76.0,5,60,10.0,0.0
13767,72.0,4,60,11.0,0.0
13768,64.0,0,60,12.0,0.0
13769,60.0,51,60,12.0,0.0
13770,72.0,5,60,10.0,0.0
13771,64.0,4,60,11.0,0.0
13772,52.0,6,60,12.0,0.0
13773,60.0,0,60,12.0,0.0
13774,48.0,3,60,13.0,0.0
13775,36.0,44,60,14.0,0.0
13776,65.0,1,240,10.0,0.0
13777,55.0,5,480,10.0,0.0
13778,86.0,1,60,0.0,0.0
13779,79.0,2,60,1.0,0.0
13780,59.0,4,240,11.0,0.0
13781,74.0,11,60,2.0,0.0
13782,67.0,0,60,2.0,0.0
13783,62.0,3,240,12.0,0.0
13784,36.0,2,60,13.0,0.0
13785,62.0,65,60,3.0,0.0
13786,55.0,0,60,3.0,0.0
13787,24.0,1,60,14.0,0.0
13788,86.0,2,60,0.0,0.0
13789,79.0,2,60,1.0,0.0
13790,67.0,0,60,2.0,0.0
13791,74.0,11,60,2.0,0.0
13792,55.0,0,60,3.0,0.0
13793,62.0,23,60,3.0,0.0
13794,48.0,3,60,13.0,0.0
13795,36.0,39,60,14.0,0.0
13796,86.0,2,60,0.0,0.0
13797,79.0,1,60,1.0,0.0
13798,67.0,0,60,2.0,0.0
13799,74.0,4,60,2.0,0.0
13800,62.0,63,60,3.0,0.0
13801,55.0,0,60,3.0,0.0
13802,64.0,0,240,10.0,0.0
13803,86.0,2,90,0.0,0.0
13804,79.0,2,90,1.0,0.0
13805,60.0,4,240,11.0,0.0
13806,67.0,11,90,2.0,0.0
13807,74.0,0,90,2.0,0.0
13808,36.0,3,60,13.0,0.0
13809,55.0,60,90,3.0,0.0
13810,62.0,0,90,3.0,0.0
13811,24.0,4,60,14.0,0.0
13812,88.0,2,60,0.0,0.0
13813,84.0,2,60,1.0,0.0
13814,76.0,0,60,2.0,0.0
13815,72.0,11,60,2.0,0.0
13816,60.0,0,60,3.0,0.0
13817,64.0,23,60,3.0,0.0
13818,48.0,3,60,13.0,0.0
13819,36.0,24,60,14.0,0.0
13820,84.0,2,60,0.0,0.0
13821,76.0,2,60,1.0,0.0
13822,64.0,11,60,2.0,0.0
13823,72.0,0,60,2.0,0.0
13824,60.0,3,60,3.0,0.0
13825,52.0,0,60,3.0,0.0
13826,74.0,5,30,10.0,0.0
13827,84.0,2,2400,0.0,0.0
13828,72.0,1,2400,1.0,0.0
13829,67.0,6,30,11.0,0.0
13830,62.0,0,30,12.0,0.0
13831,55.0,21,15,12.0,0.0
13832,36.0,0,60,13.0,0.0
13833,24.0,3,60,14.0,0.0
13834,74.0,5,30,10.0,0.0
13835,67.0,3,30,11.0,0.0
13836,55.0,29,30,12.0,0.0
13837,62.0,0,30,12.0,0.0
13838,74.0,5,30,10.0,0.0
13839,67.0,6,30,11.0,0.0
13840,55.0,0,30,12.0,0.0
13841,62.0,29,30,12.0,0.0
13842,74.0,5,30,10.0,0.0
13843,67.0,6,30,11.0,0.0
13844,55.0,29,30,12.0,0.0
13845,62.0,0,30,12.0,0.0
13846,48.0,3,60,13.0,0.0
13847,36.0,3,60,14.0,0.0
13848,74.0,5,30,10.0,0.0
13849,67.0,0,30,11.0,0.0
13850,62.0,29,30,12.0,0.0
13851,55.0,0,30,12.0,0.0
13852,74.0,5,30,10.0,0.0
13853,67.0,6,30,11.0,0.0
13854,62.0,0,30,12.0,0.0
13855,55.0,59,30,12.0,0.0
13856,74.0,5,60,10.0,0.0
13857,67.0,4,60,11.0,0.0
13858,62.0,6,60,12.0,0.0
13859,55.0,0,60,12.0,0.0
13860,36.0,3,60,13.0,0.0
13861,24.0,42,60,14.0,0.0
13862,76.0,5,60,10.0,0.0
13863,72.0,4,60,11.0,0.0
13864,64.0,51,60,12.0,0.0
13865,72.0,5,60,10.0,0.0
13866,64.0,4,60,11.0,0.0
13867,52.0,0,60,12.0,0.0
13868,60.0,0,15,12.0,0.0
13869,48.0,3,60,13.0,0.0
13870,36.0,102,60,14.0,0.0
13871,71.0,5,60,10.0,0.0
13872,71.0,4,60,11.0,0.0
13873,59.0,6,60,12.0,0.0
13874,36.0,3,60,13.0,0.0
13875,24.0,42,60,14.0,0.0
13876,72.0,5,60,10.0,0.0
13877,72.0,4,60,11.0,0.0
13878,60.0,51,60,12.0,0.0
13879,67.0,5,60,10.0,0.0
13880,67.0,4,60,11.0,0.0
13881,55.0,6,60,12.0,0.0
13882,48.0,3,60,13.0,0.0
13883,36.0,102,60,14.0,0.0
13884,65.0,5,60,10.0,0.0
13885,65.0,4,60,11.0,0.0
13886,53.0,6,60,12.0,0.0
13887,36.0,3,60,13.0,0.0
13888,24.0,42,60,14.0,0.0
13889,67.0,5,60,10.0,0.0
13890,67.0,4,60,11.0,0.0
13891,55.0,51,60,12.0,0.0
13892,64.0,5,60,10.0,0.0
13893,64.0,4,60,11.0,0.0
13894,52.0,6,60,12.0,0.0
13895,48.0,3,60,13.0,0.0
13896,36.0,102,60,14.0,0.0
13897,62.0,5,60,10.0,0.0
13898,62.0,4,60,11.0,0.0
13899,50.0,6,60,12.0,0.0
13900,36.0,3,60,13.0,0.0
13901,24.0,42,60,14.0,0.0
13902,64.0,5,60,10.0,0.0
13903,64.0,4,60,11.0,0.0
13904,52.0,51,60,12.0,0.0
13905,60.0,5,60,10.0,0.0
13906,60.0,4,60,11.0,0.0
13907,48.0,6,60,12.0,0.0
13908,48.0,3,60,13.0,0.0
13909,36.0,102,60,14.0,0.0
13910,62.0,5,60,10.0,0.0
13911,62.0,4,60,11.0,0.0
13912,50.0,6,60,12.0,0.0
13913,36.0,3,60,13.0,0.0
13914,24.0,42,60,14.0,0.0
13915,64.0,5,60,10.0,0.0
13916,64.0,4,60,11.0,0.0
13917,52.0,51,60,12.0,0.0
13918,60.0,5,60,10.0,0.0
13919,60.0,4,60,11.0,0.0
13920,48.0,6,60,12.0,0.0
13921,48.0,3,60,13.0,0.0
13922,36.0,342,60,14.0,0.0
13923,62.0,5,60,10.0,0.0
13924,62.0,4,60,11.0,0.0
13925,50.0,6,60,12.0,0.0
13926,36.0,3,60,13.0,0.0
13927,24.0,42,60,14.0,0.0
13928,64.0,5,60,10.0,0.0
13929,64.0,4,60,11.0,0.0
13930,52.0,51,60,12.0,0.0
13931,60.0,5,60,10.0,0.0
13932,60.0,4,60,11.0,0.0
13933,48.0,6,60,12.0,0.0
13934,48.0,3,60,13.0,0.0
13935,36.0,342,60,14.0,0.0
13936,62.0,5,60,10.0,0.0
13937,62.0,4,60,11.0,0.0
13938,50.0,6,60,12.0,0.0
13939,36.0,3,60,13.0,0.0
13940,24.0,42,60,14.0,0.0
13941,64.0,5,60,10.0,0.0
13942,64.0,4,60,11.0,0.0
13943,52.0,51,60,12.0,0.0
13944,60.0,5,60,10.0,0.0
13945,60.0,4,60,11.0,0.0
13946,48.0,6,60,12.0,0.0
13947,48.0,3,60,13.0,0.0
13948,36.0,44,60,14.0,0.0
13949,61.0,2,450,10.0,0.0
13950,85.0,2,450,0.0,0.0
13951,73.0,1,450,1.0,0.0
13952,61.0,1,450,11.0,0.0
13953,73.0,3,450,2.0,0.0
13954,49.0,6,450,12.0,0.0
13955,37.0,2,450,13.0,0.0
13956,49.0,1,450,3.0,0.0
13957,37.0,34,450,14.0,0.0
13958,65.0,5,30,10.0,0.0
13959,61.0,35,30,11.0,0.0
13960,65.0,5,30,10.0,0.0
13961,61.0,35,30,11.0,0.0
13962,65.0,5,30,10.0,0.0
13963,61.0,35,30,11.0,0.0
13964,65.0,5,30,10.0,0.0
13965,61.0,35,30,11.0,0.0
13966,65.0,5,30,10.0,0.0
13967,61.0,35,30,11.0,0.0
13968,65.0,5,30,10.0,0.0
13969,61.0,63,30,11.0,0.0
13970,65.0,5,60,10.0,0.0
13971,61.0,55,60,11.0,0.0
13972,66.0,5,60,10.0,0.0
13973,63.0,85,60,11.0,0.0
13974,63.0,5,90,10.0,0.0
13975,60.0,485,90,11.0,0.0
13976,61.0,2,450,10.0,0.0
13977,85.0,2,450,0.0,0.0
13978,73.0,0,450,1.0,0.0
13979,85.0,1,450,1.0,0.0
13980,61.0,1,450,11.0,0.0
13981,73.0,3,450,2.0,0.0
13982,49.0,6,450,12.0,0.0
13983,37.0,2,450,13.0,0.0
13984,49.0,1,450,3.0,0.0
13985,37.0,34,450,14.0,0.0
13986,64.0,5,30,10.0,0.0
13987,61.0,35,30,11.0,0.0
13988,64.0,5,30,10.0,0.0
13989,61.0,35,30,11.0,0.0
13990,64.0,5,30,10.0,0.0
13991,61.0,35,30,11.0,0.0
13992,64.0,5,30,10.0,0.0
13993,61.0,35,30,11.0,0.0
13994,64.0,5,30,10.0,0.0
13995,61.0,35,30,11.0,0.0
13996,64.0,5,30,10.0,0.0
13997,61.0,63,30,11.0,0.0
13998,64.0,5,60,10.0,0.0
13999,61.0,55,60,11.0,0.0
14000,66.0,5,60,10.0,0.0
14001,63.0,85,60,11.0,0.0
14002,63.0,5,90,10.0,0.0
14003,60.0,475,90,11.0,0.0
14004,61.0,2,450,10.0,0.0
14005,85.0,2,450,0.0,0.0
14006,85.0,0,450,1.0,0.0
14007,73.0,1,450,1.0,0.0
14008,61.0,1,450,11.0,0.0
14009,73.0,3,450,2.0,0.0
14010,49.0,6,450,12.0,0.0
14011,37.0,2,450,13.0,0.0
14012,49.0,1,450,3.0,0.0
14013,37.0,462,450,14.0,0.0
14014,61.0,2,450,10.0,0.0
14015,85.0,2,450,0.0,0.0
14016,73.0,0,450,1.0,0.0
14017,85.0,1,450,1.0,0.0
14018,61.0,1,450,11.0,0.0
14019,73.0,3,450,2.0,0.0
14020,49.0,6,450,12.0,0.0
14021,37.0,2,450,13.0,0.0
14022,49.0,1,450,3.0,0.0
14023,37.0,462,450,14.0,0.0
14024,61.0,2,450,10.0,0.0
14025,85.0,2,450,0.0,0.0
14026,85.0,0,450,1.0,0.0
14027,73.0,1,450,1.0,0.0
14028,61.0,1,450,11.0,0.0
14029,73.0,3,450,2.0,0.0
14030,49.0,6,450,12.0,0.0
14031,37.0,2,450,13.0,0.0
14032,49.0,1,450,3.0,0.0
14033,37.0,44,450,14.0,0.0
14034,81.0,5,30,10.0,0.0
14035,81.0,2,90,0.0,0.0
14036,81.0,2,90,1.0,0.0
14037,78.0,0,90,1.0,0.0
14038,78.0,4,30,11.0,0.0
14039,69.0,11,90,2.0,0.0
14040,54.0,31,30,12.0,0.0
14041,42.0,2,60,13.0,0.0
14042,54.0,0,90,3.0,0.0
14043,66.0,15,90,3.0,0.0
14044,30.0,3,60,14.0,0.0
14045,81.0,3,30,10.0,0.0
14046,78.0,1,30,11.0,0.0
14047,54.0,1,30,12.0,0.0
14048,81.0,5,30,10.0,0.0
14049,85.0,2,90,0.0,0.0
14050,90.0,0,90,0.0,0.0
14051,81.0,0,90,1.0,0.0
14052,78.0,4,30,11.0,0.0
14053,78.0,0,90,2.0,0.0
14054,54.0,31,30,12.0,0.0
14055,54.0,15,90,3.0,0.0
14056,81.0,5,30,10.0,0.0
14057,78.0,4,30,11.0,0.0
14058,66.0,1,30,12.0,0.0
14059,54.0,2,60,13.0,0.0
14060,42.0,3,60,14.0,0.0
14061,81.0,3,30,10.0,0.0
14062,85.0,2,90,0.0,0.0
14063,90.0,0,90,0.0,0.0
14064,78.0,2,15,1.0,0.0
14065,81.0,2,90,1.0,0.0
14066,78.0,1,30,11.0,0.0
14067,78.0,11,90,2.0,0.0
14068,66.0,11,15,2.0,0.0
14069,66.0,31,30,12.0,0.0
14070,66.0,0,15,3.0,0.0
14071,54.0,0,90,3.0,0.0
14072,81.0,5,30,10.0,0.0
14073,78.0,4,30,11.0,0.0
14074,66.0,1,30,12.0,0.0
14075,81.0,2,60,10.0,0.0
14076,90.0,2,60,0.0,0.0
14077,78.0,0,15,1.0,0.0
14078,81.0,0,60,1.0,0.0
14079,78.0,10,60,11.0,0.0
14080,66.0,11,90,2.0,0.0
14081,78.0,0,90,2.0,0.0
14082,54.0,19,30,12.0,0.0
14083,42.0,3,60,13.0,0.0
14084,66.0,24,15,3.0,0.0
14085,54.0,0,90,3.0,0.0
14086,30.0,3,60,14.0,0.0
14087,54.0,27,30,12.0,0.0
14088,83.0,1,60,10.0,0.0
14089,92.0,2,60,0.0,0.0
14090,80.0,0,60,1.0,0.0
14091,83.0,1,60,1.0,0.0
14092,80.0,36,60,11.0,0.0
14093,54.0,1,30,12.0,0.0
14094,80.0,2,60,10.0,0.0
14095,89.0,0,60,0.0,0.0
14096,85.0,0,15,0.0,0.0
14097,73.0,1,60,1.0,0.0
14098,80.0,0,60,1.0,0.0
14099,73.0,10,60,11.0,0.0
14100,78.0,11,90,2.0,0.0
14101,66.0,0,90,2.0,0.0
14102,66.0,19,30,12.0,0.0
14103,54.0,3,60,13.0,0.0
14104,66.0,0,90,3.0,0.0
14105,54.0,2,90,3.0,0.0
14106,42.0,3,60,14.0,0.0
14107,66.0,27,30,12.0,0.0
14108,66.0,40,30,12.0,0.0
14109,81.0,2,60,10.0,0.0
14110,90.0,2,60,0.0,0.0
14111,85.0,2,120,0.0,0.0
14112,78.0,1,60,1.0,0.0
14113,81.0,0,60,1.0,0.0
14114,78.0,10,60,11.0,0.0
14115,66.0,11,90,2.0,0.0
14116,78.0,0,90,2.0,0.0
14117,54.0,19,30,12.0,0.0
14118,42.0,3,60,13.0,0.0
14119,66.0,0,90,3.0,0.0
14120,54.0,1,90,3.0,0.0
14121,30.0,3,60,14.0,0.0
14122,54.0,27,30,12.0,0.0
14123,83.0,1,60,10.0,0.0
14124,92.0,0,60,0.0,0.0
14125,83.0,0,60,1.0,0.0
14126,80.0,36,60,11.0,0.0
14127,54.0,1,30,12.0,0.0
14128,80.0,18,90,10.0,0.0
14129,89.0,2,60,0.0,0.0
14130,85.0,0,60,0.0,0.0
14131,73.0,0,60,1.0,0.0
14132,80.0,1,15,1.0,0.0
14133,73.0,10,60,11.0,0.0
14134,78.0,0,90,2.0,0.0
14135,66.0,11,90,2.0,0.0
14136,66.0,21,30,12.0,0.0
14137,54.0,3,60,13.0,0.0
14138,54.0,2,90,3.0,0.0
14139,66.0,0,90,3.0,0.0
14140,42.0,3,60,14.0,0.0
14141,66.0,9,30,12.0,0.0
14142,66.0,40,30,12.0,0.0
14143,81.0,2,60,10.0,0.0
14144,90.0,2,60,0.0,0.0
14145,81.0,1,60,1.0,0.0
14146,78.0,0,60,1.0,0.0
14147,78.0,10,60,11.0,0.0
14148,78.0,0,90,2.0,0.0
14149,66.0,11,90,2.0,0.0
14150,54.0,19,30,12.0,0.0
14151,42.0,3,60,13.0,0.0
14152,66.0,0,90,3.0,0.0
14153,54.0,1,90,3.0,0.0
14154,30.0,3,60,14.0,0.0
14155,54.0,27,30,12.0,0.0
14156,83.0,1,60,10.0,0.0
14157,92.0,0,60,0.0,0.0
14158,83.0,0,60,1.0,0.0
14159,80.0,36,60,11.0,0.0
14160,54.0,1,30,12.0,0.0
14161,80.0,2,60,10.0,0.0
14162,89.0,0,60,0.0,0.0
14163,85.0,2,15,0.0,0.0
14164,80.0,1,15,1.0,0.0
14165,73.0,0,60,1.0,0.0
14166,73.0,10,60,11.0,0.0
14167,66.0,0,90,2.0,0.0
14168,78.0,11,90,2.0,0.0
14169,66.0,19,30,12.0,0.0
14170,54.0,3,60,13.0,0.0
14171,66.0,0,90,3.0,0.0
14172,54.0,2,90,3.0,0.0
14173,42.0,3,60,14.0,0.0
14174,66.0,27,30,12.0,0.0
14175,66.0,31,30,12.0,0.0
14176,83.0,5,30,10.0,0.0
14177,83.0,0,90,1.0,0.0
14178,80.0,4,30,11.0,0.0
14179,66.0,1,60,2.0,0.0
14180,78.0,0,60,2.0,0.0
14181,54.0,31,30,12.0,0.0
14182,42.0,2,60,13.0,0.0
14183,54.0,0,60,3.0,0.0
14184,66.0,27,60,3.0,0.0
14185,30.0,3,60,14.0,0.0
14186,83.0,2,30,10.0,0.0
14187,80.0,1,30,11.0,0.0
14188,54.0,1,30,12.0,0.0
14189,83.0,5,30,10.0,0.0
14190,85.0,2,15,0.0,0.0
14191,92.0,0,15,0.0,0.0
14192,80.0,1,15,1.0,0.0
14193,80.0,4,30,11.0,0.0
14194,66.0,3,60,2.0,0.0
14195,78.0,0,60,2.0,0.0
14196,54.0,31,30,12.0,0.0
14197,54.0,0,60,3.0,0.0
14198,66.0,27,60,3.0,0.0
14199,83.0,2,30,10.0,0.0
14200,80.0,4,30,11.0,0.0
14201,66.0,1,30,12.0,0.0
14202,54.0,2,60,13.0,0.0
14203,42.0,3,60,14.0,0.0
14204,83.0,3,30,10.0,0.0
14205,85.0,2,90,0.0,0.0
14206,92.0,2,15,0.0,0.0
14207,80.0,0,15,1.0,0.0
14208,83.0,1,15,1.0,0.0
14209,80.0,1,30,11.0,0.0
14210,66.0,0,60,2.0,0.0
14211,78.0,3,60,2.0,0.0
14212,66.0,31,30,12.0,0.0
14213,54.0,36,60,3.0,0.0
14214,66.0,0,60,3.0,0.0
14215,83.0,2,30,10.0,0.0
14216,80.0,4,30,11.0,0.0
14217,66.0,1,30,12.0,0.0
14218,83.0,2,60,10.0,0.0
14219,85.0,2,120,0.0,0.0
14220,92.0,2,60,0.0,0.0
14221,80.0,1,15,1.0,0.0
14222,83.0,0,15,1.0,0.0
14223,80.0,10,60,11.0,0.0
14224,66.0,11,90,2.0,0.0
14225,78.0,0,90,2.0,0.0
14226,54.0,19,30,12.0,0.0
14227,42.0,3,60,13.0,0.0
14228,66.0,0,90,3.0,0.0
14229,54.0,1,90,3.0,0.0
14230,30.0,3,60,14.0,0.0
14231,54.0,27,30,12.0,0.0
14232,85.0,1,60,10.0,0.0
14233,93.0,0,60,0.0,0.0
14234,85.0,0,60,1.0,0.0
14235,81.0,36,60,11.0,0.0
14236,54.0,1,30,12.0,0.0
14237,81.0,2,60,10.0,0.0
14238,90.0,2,60,0.0,0.0
14239,81.0,1,15,1.0,0.0
14240,78.0,1,60,1.0,0.0
14241,78.0,10,60,11.0,0.0
14242,66.0,11,90,2.0,0.0
14243,78.0,0,90,2.0,0.0
14244,66.0,19,30,12.0,0.0
14245,54.0,3,60,13.0,0.0
14246,54.0,0,90,3.0,0.0
14247,66.0,2,90,3.0,0.0
14248,42.0,3,60,14.0,0.0
14249,66.0,27,30,12.0,0.0
14250,66.0,40,30,12.0,0.0
14251,83.0,2,60,10.0,0.0
14252,85.0,2,120,0.0,0.0
14253,92.0,2,60,0.0,0.0
14254,83.0,0,60,1.0,0.0
14255,80.0,1,60,1.0,0.0
14256,80.0,10,60,11.0,0.0
14257,78.0,11,90,2.0,0.0
14258,66.0,0,90,2.0,0.0
14259,54.0,19,30,12.0,0.0
14260,42.0,3,60,13.0,0.0
14261,54.0,0,90,3.0,0.0
14262,66.0,1,90,3.0,0.0
14263,30.0,3,60,14.0,0.0
14264,54.0,27,30,12.0,0.0
14265,85.0,1,60,10.0,0.0
14266,93.0,0,60,0.0,0.0
14267,81.0,0,60,1.0,0.0
14268,85.0,1,60,1.0,0.0
14269,81.0,36,60,11.0,0.0
14270,54.0,1,30,12.0,0.0
14271,81.0,2,60,10.0,0.0
14272,90.0,2,60,0.0,0.0
14273,81.0,1,60,1.0,0.0
14274,78.0,0,60,1.0,0.0
14275,78.0,10,60,11.0,0.0
14276,78.0,11,90,2.0,0.0
14277,66.0,0,90,2.0,0.0
14278,66.0,19,30,12.0,0.0
14279,54.0,3,60,13.0,0.0
14280,54.0,0,90,3.0,0.0
14281,66.0,2,90,3.0,0.0
14282,42.0,3,60,14.0,0.0
14283,66.0,27,30,12.0,0.0
14284,66.0,40,30,12.0,0.0
14285,83.0,2,60,10.0,0.0
14286,92.0,2,60,0.0,0.0
14287,85.0,0,120,0.0,0.0
14288,83.0,1,60,1.0,0.0
14289,80.0,0,60,1.0,0.0
14290,80.0,10,60,11.0,0.0
14291,66.0,11,90,2.0,0.0
14292,78.0,0,90,2.0,0.0
14293,54.0,19,30,12.0,0.0
14294,42.0,3,60,13.0,0.0
14295,66.0,1,90,3.0,0.0
14296,54.0,0,90,3.0,0.0
14297,30.0,3,60,14.0,0.0
14298,54.0,27,30,12.0,0.0
14299,85.0,1,60,10.0,0.0
14300,93.0,2,60,0.0,0.0
14301,85.0,1,60,1.0,0.0
14302,81.0,0,60,1.0,0.0
14303,81.0,36,60,11.0,0.0
14304,54.0,1,30,12.0,0.0
14305,81.0,2,60,10.0,0.0
14306,90.0,2,60,0.0,0.0
14307,78.0,0,60,1.0,0.0
14308,81.0,1,60,1.0,0.0
14309,78.0,10,60,11.0,0.0
14310,78.0,0,90,2.0,0.0
14311,66.0,11,90,2.0,0.0
14312,66.0,19,30,12.0,0.0
14313,54.0,3,60,13.0,0.0
14314,66.0,0,90,3.0,0.0
14315,54.0,2,90,3.0,0.0
14316,42.0,3,60,14.0,0.0
14317,66.0,27,30,12.0,0.0
14318,66.0,36,30,12.0,0.0
14319,78.0,1,120,10.0,0.0
14320,90.0,2,120,0.0,0.0
14321,78.0,2,120,1.0,0.0
14322,66.0,4,30,11.0,0.0
14323,78.0,0,120,2.0,0.0
14324,66.0,11,120,2.0,0.0
14325,54.0,34,30,12.0,0.0
14326,42.0,2,60,13.0,0.0
14327,54.0,0,120,3.0,0.0
14328,66.0,20,120,3.0,0.0
14329,30.0,3,60,14.0,0.0
14330,66.0,1,30,11.0,0.0
14331,54.0,36,30,12.0,0.0
14332,66.0,3,30,11.0,0.0
14333,54.0,1,30,12.0,0.0
14334,66.0,4,30,11.0,0.0
14335,54.0,34,30,12.0,0.0
14336,54.0,2,60,13.0,0.0
14337,42.0,3,60,14.0,0.0
14338,66.0,1,30,11.0,0.0
14339,54.0,36,30,12.0,0.0
14340,76.0,1,60,10.0,0.0
14341,88.0,0,60,0.0,0.0
14342,76.0,1,60,1.0,0.0
14343,78.0,0,60,2.0,0.0
14344,66.0,11,60,2.0,0.0
14345,54.0,25,60,3.0,0.0
14346,66.0,0,60,3.0,0.0
14347,66.0,2,30,11.0,0.0
14348,54.0,0,30,12.0,0.0
14349,76.0,1,120,10.0,0.0
14350,88.0,2,120,0.0,0.0
14351,76.0,2,120,1.0,0.0
14352,66.0,4,30,11.0,0.0
14353,66.0,11,120,2.0,0.0
14354,78.0,0,120,2.0,0.0
14355,54.0,34,30,12.0,0.0
14356,47.0,2,60,13.0,0.0
14357,54.0,20,120,3.0,0.0
14358,66.0,0,120,3.0,0.0
14359,35.0,3,60,14.0,0.0
14360,66.0,1,30,11.0,0.0
14361,54.0,36,30,12.0,0.0
14362,66.0,3,30,11.0,0.0
14363,54.0,1,30,12.0,0.0
14364,74.0,2,120,10.0,0.0
14365,86.0,0,120,0.0,0.0
14366,74.0,2,120,1.0,0.0
14367,66.0,4,30,11.0,0.0
14368,54.0,34,30,12.0,0.0
14369,59.0,2,60,13.0,0.0
14370,47.0,3,60,14.0,0.0
14371,66.0,1,30,11.0,0.0
14372,54.0,34,30,12.0,0.0
14373,66.0,2,30,11.0,0.0
14374,54.0,36,30,12.0,0.0
14375,86.0,1,120,10.0,0.0
14376,86.0,2,120,0.0,0.0
14377,74.0,0,120,1.0,0.0
14378,86.0,2,120,1.0,0.0
14379,66.0,4,30,11.0,0.0
14380,78.0,0,120,2.0,0.0
14381,66.0,11,120,2.0,0.0
14382,54.0,34,30,12.0,0.0
14383,50.0,2,60,13.0,0.0
14384,54.0,20,120,3.0,0.0
14385,66.0,0,120,3.0,0.0
14386,38.0,3,60,14.0,0.0
14387,66.0,1,30,11.0,0.0
14388,54.0,36,30,12.0,0.0
14389,66.0,3,30,11.0,0.0
14390,54.0,1,30,12.0,0.0
14391,66.0,4,30,11.0,0.0
14392,54.0,34,30,12.0,0.0
14393,62.0,2,60,13.0,0.0
14394,50.0,3,60,14.0,0.0
14395,66.0,1,30,11.0,0.0
14396,54.0,36,30,12.0,0.0
14397,85.0,1,60,10.0,0.0
14398,85.0,2,60,0.0,0.0
14399,85.0,1,60,1.0,0.0
14400,73.0,0,60,1.0,0.0
14401,66.0,0,60,2.0,0.0
14402,78.0,11,60,2.0,0.0
14403,66.0,25,60,3.0,0.0
14404,54.0,0,60,3.0,0.0
14405,66.0,0,30,11.0,0.0
14406,54.0,0,30,12.0,0.0
14407,85.0,1,120,10.0,0.0
14408,85.0,2,120,0.0,0.0
14409,85.0,33,120,1.0,0.0
14410,73.0,0,120,1.0,0.0
14411,71.0,4,30,11.0,0.0
14412,67.0,9,90,2.0,0.0
14413,79.0,0,90,2.0,0.0
14414,59.0,34,30,12.0,0.0
14415,55.0,2,60,13.0,0.0
14416,67.0,0,90,3.0,0.0
14417,55.0,1,90,3.0,0.0
14418,43.0,3,60,14.0,0.0
14419,71.0,1,30,11.0,0.0
14420,59.0,27,30,12.0,0.0
14421,71.0,2,30,11.0,0.0
14422,59.0,1,30,12.0,0.0
14423,83.0,2,120,10.0,0.0
14424,83.0,0,120,0.0,0.0
14425,83.0,0,120,1.0,0.0
14426,71.0,2,120,1.0,0.0
14427,71.0,4,30,11.0,0.0
14428,67.0,0,60,2.0,0.0
14429,79.0,9,60,2.0,0.0
14430,59.0,25,30,12.0,0.0
14431,67.0,2,60,13.0,0.0
14432,55.0,0,60,3.0,0.0
14433,67.0,0,60,3.0,0.0
14434,55.0,3,60,14.0,0.0
14435,71.0,1,30,11.0,0.0
14436,59.0,34,30,12.0,0.0
14437,71.0,2,30,11.0,0.0
14438,59.0,36,30,12.0,0.0
14439,83.0,2,60,10.0,0.0
14440,83.0,2,60,0.0,0.0
14441,71.0,2,60,1.0,0.0
14442,83.0,0,60,1.0,0.0
14443,71.0,0,30,11.0,0.0
14444,68.0,4,30,11.0,0.0
14445,68.0,0,60,2.0,0.0
14446,80.0,9,60,2.0,0.0
14447,65.0,19,30,12.0,0.0
14448,65.0,2,60,13.0,0.0
14449,53.0,0,60,3.0,0.0
14450,65.0,0,60,3.0,0.0
14451,53.0,3,60,14.0,0.0
14452,68.0,0,30,11.0,0.0
14453,71.0,1,30,11.0,0.0
14454,65.0,36,30,12.0,0.0
14455,68.0,4,30,11.0,0.0
14456,71.0,0,30,11.0,0.0
14457,65.0,36,30,12.0,0.0
14458,81.0,2,60,10.0,0.0
14459,81.0,0,60,0.0,0.0
14460,93.0,2,60,0.0,0.0
14461,81.0,2,60,1.0,0.0
14462,69.0,0,60,1.0,0.0
14463,69.0,4,30,11.0,0.0
14464,78.0,0,60,2.0,0.0
14465,66.0,9,60,2.0,0.0
14466,66.0,19,30,12.0,0.0
14467,66.0,2,60,13.0,0.0
14468,66.0,0,60,3.0,0.0
14469,54.0,1,60,3.0,0.0
14470,54.0,3,60,14.0,0.0
14471,69.0,0,30,11.0,0.0
14472,66.0,36,30,12.0,0.0
14473,69.0,4,30,11.0,0.0
14474,66.0,36,30,12.0,0.0
14475,80.0,2,60,10.0,0.0
14476,80.0,2,60,0.0,0.0
14477,92.0,0,60,0.0,0.0
14478,68.0,0,60,1.0,0.0
14479,80.0,2,60,1.0,0.0
14480,68.0,4,30,11.0,0.0
14481,78.0,0,60,2.0,0.0
14482,66.0,9,60,2.0,0.0
14483,59.0,19,30,12.0,0.0
14484,59.0,2,60,13.0,0.0
14485,54.0,0,60,3.0,0.0
14486,66.0,0,60,3.0,0.0
14487,47.0,3,60,14.0,0.0
14488,68.0,1,30,11.0,0.0
14489,59.0,36,30,12.0,0.0
14490,68.0,4,30,11.0,0.0
14491,59.0,36,30,12.0,0.0
14492,78.0,2,60,10.0,0.0
14493,78.0,2,60,0.0,0.0
14494,90.0,0,60,0.0,0.0
14495,66.0,2,60,1.0,0.0
14496,78.0,0,60,1.0,0.0
14497,66.0,4,30,11.0,0.0
14498,66.0,0,60,2.0,0.0
14499,78.0,9,60,2.0,0.0
14500,57.0,19,30,12.0,0.0
14501,57.0,2,60,13.0,0.0
14502,54.0,0,60,3.0,0.0
14503,66.0,0,60,3.0,0.0
14504,45.0,3,60,14.0,0.0
14505,66.0,1,30,11.0,0.0
14506,57.0,36,30,12.0,0.0
14507,66.0,4,30,11.0,0.0
14508,57.0,36,30,12.0,0.0
14509,80.0,2,60,10.0,0.0
14510,80.0,2,60,0.0,0.0
14511,92.0,0,60,0.0,0.0
14512,68.0,2,60,1.0,0.0
14513,80.0,0,60,1.0,0.0
14514,68.0,4,30,11.0,0.0
14515,66.0,9,60,2.0,0.0
14516,78.0,0,60,2.0,0.0
14517,59.0,19,30,12.0,0.0
14518,59.0,2,60,13.0,0.0
14519,54.0,0,60,3.0,0.0
14520,66.0,0,60,3.0,0.0
14521,47.0,3,60,14.0,0.0
14522,68.0,1,30,11.0,0.0
14523,59.0,36,30,12.0,0.0
14524,68.0,4,30,11.0,0.0
14525,59.0,36,30,12.0,0.0
14526,81.0,2,60,10.0,0.0
14527,93.0,2,60,0.0,0.0
14528,81.0,0,60,0.0,0.0
14529,81.0,0,60,1.0,0.0
14530,69.0,2,60,1.0,0.0
14531,69.0,4,30,11.0,0.0
14532,78.0,9,60,2.0,0.0
14533,66.0,0,60,2.0,0.0
14534,61.0,19,30,12.0,0.0
14535,61.0,2,60,13.0,0.0
14536,54.0,1,60,3.0,0.0
14537,66.0,0,60,3.0,0.0
14538,49.0,3,60,14.0,0.0
14539,69.0,0,30,11.0,0.0
14540,61.0,36,30,12.0,0.0
14541,69.0,4,30,11.0,0.0
14542,61.0,36,30,12.0,0.0
14543,83.0,2,60,10.0,0.0
14544,83.0,2,60,0.0,0.0
14545,83.0,2,60,1.0,0.0
14546,71.0,0,60,1.0,0.0
14547,71.0,4,30,11.0,0.0
14548,66.0,9,60,2.0,0.0
14549,78.0,0,60,2.0,0.0
14550,62.0,19,30,12.0,0.0
14551,62.0,2,60,13.0,0.0
14552,66.0,1,60,3.0,0.0
14553,54.0,0,60,3.0,0.0
14554,50.0,3,60,14.0,0.0
14555,71.0,0,30,11.0,0.0
14556,62.0,36,30,12.0,0.0
14557,71.0,4,30,11.0,0.0
14558,62.0,36,30,12.0,0.0
14559,80.0,2,60,10.0,0.0
14560,80.0,2,60,0.0,0.0
14561,92.0,0,60,0.0,0.0
14562,68.0,0,60,1.0,0.0
14563,80.0,2,60,1.0,0.0
14564,68.0,4,30,11.0,0.0
14565,61.0,9,60,2.0,0.0
14566,73.0,0,60,2.0,0.0
14567,65.0,19,30,12.0,0.0
14568,65.0,2,60,13.0,0.0
14569,53.0,0,60,3.0,0.0
14570,65.0,1,60,3.0,0.0
14571,53.0,3,60,14.0,0.0
14572,68.0,0,30,11.0,0.0
14573,65.0,36,30,12.0,0.0
14574,68.0,4,30,11.0,0.0
14575,65.0,36,30,12.0,0.0
14576,81.0,2,60,10.0,0.0
14577,93.0,0,60,0.0,0.0
14578,81.0,2,60,0.0,0.0
14579,81.0,0,60,1.0,0.0
14580,69.0,2,60,1.0,0.0
14581,69.0,4,30,11.0,0.0
14582,78.0,0,60,2.0,0.0
14583,66.0,9,60,2.0,0.0
14584,66.0,19,30,12.0,0.0
14585,66.0,2,60,13.0,0.0
14586,66.0,0,60,3.0,0.0
14587,54.0,1,60,3.0,0.0
14588,54.0,3,60,14.0,0.0
14589,69.0,0,30,11.0,0.0
14590,66.0,36,30,12.0,0.0
14591,69.0,4,30,11.0,0.0
14592,66.0,36,30,12.0,0.0
14593,78.0,2,60,10.0,0.0
14594,90.0,0,60,0.0,0.0
14595,78.0,2,60,0.0,0.0
14596,66.0,2,60,1.0,0.0
14597,78.0,0,60,1.0,0.0
14598,66.0,4,30,11.0,0.0
14599,66.0,0,60,2.0,0.0
14600,78.0,9,60,2.0,0.0
14601,57.0,19,30,12.0,0.0
14602,57.0,2,60,13.0,0.0
14603,66.0,0,60,3.0,0.0
14604,54.0,1,60,3.0,0.0
14605,45.0,3,60,14.0,0.0
14606,66.0,0,30,11.0,0.0
14607,57.0,36,30,12.0,0.0
14608,66.0,4,30,11.0,0.0
14609,57.0,36,30,12.0,0.0
14610,80.0,2,60,10.0,0.0
14611,92.0,0,60,0.0,0.0
14612,80.0,2,60,0.0,0.0
14613,80.0,0,60,1.0,0.0
14614,68.0,2,60,1.0,0.0
14615,68.0,4,30,11.0,0.0
14616,66.0,0,60,2.0,0.0
14617,78.0,9,60,2.0,0.0
14618,59.0,19,30,12.0,0.0
14619,59.0,2,60,13.0,0.0
14620,54.0,0,60,3.0,0.0
14621,66.0,1,60,3.0,0.0
14622,47.0,3,60,14.0,0.0
14623,68.0,0,30,11.0,0.0
14624,59.0,36,30,12.0,0.0
14625,68.0,4,30,11.0,0.0
14626,59.0,36,30,12.0,0.0
14627,78.0,2,60,10.0,0.0
14628,78.0,2,60,0.0,0.0
14629,90.0,0,60,0.0,0.0
14630,78.0,0,60,1.0,0.0
14631,66.0,2,60,1.0,0.0
14632,66.0,4,30,11.0,0.0
14633,78.0,9,60,2.0,0.0
14634,66.0,0,60,2.0,0.0
14635,57.0,19,30,12.0,0.0
14636,57.0,2,60,13.0,0.0
14637,54.0,1,60,3.0,0.0
14638,66.0,0,60,3.0,0.0
14639,45.0,3,60,14.0,0.0
14640,66.0,0,30,11.0,0.0
14641,57.0,36,30,12.0,0.0
14642,66.0,4,30,11.0,0.0
14643,57.0,36,30,12.0,0.0
14644,80.0,2,60,10.0,0.0
14645,92.0,2,60,0.0,0.0
14646,80.0,0,60,0.0,0.0
14647,80.0,2,60,1.0,0.0
14648,68.0,0,60,1.0,0.0
14649,68.0,4,30,11.0,0.0
14650,78.0,9,60,2.0,0.0
14651,66.0,0,60,2.0,0.0
14652,59.0,19,30,12.0,0.0
14653,59.0,2,60,13.0,0.0
14654,54.0,1,60,3.0,0.0
14655,66.0,0,60,3.0,0.0
14656,47.0,3,60,14.0,0.0
14657,68.0,0,30,11.0,0.0
14658,59.0,36,30,12.0,0.0
14659,68.0,4,30,11.0,0.0
14660,59.0,36,30,12.0,0.0
14661,81.0,2,60,10.0,0.0
14662,93.0,2,60,0.0,0.0
14663,81.0,0,60,0.0,0.0
14664,69.0,2,60,1.0,0.0
14665,81.0,0,60,1.0,0.0
14666,69.0,4,30,11.0,0.0
14667,78.0,9,60,2.0,0.0
14668,66.0,0,60,2.0,0.0
14669,61.0,19,30,12.0,0.0
14670,61.0,2,60,13.0,0.0
14671,66.0,0,60,3.0,0.0
14672,54.0,1,60,3.0,0.0
14673,49.0,3,60,14.0,0.0
14674,69.0,0,30,11.0,0.0
14675,61.0,36,30,12.0,0.0
14676,69.0,4,30,11.0,0.0
14677,61.0,36,30,12.0,0.0
14678,83.0,2,60,10.0,0.0
14679,83.0,2,60,0.0,0.0
14680,83.0,2,60,1.0,0.0
14681,71.0,0,60,1.0,0.0
14682,71.0,4,30,11.0,0.0
14683,66.0,9,60,2.0,0.0
14684,78.0,0,60,2.0,0.0
14685,62.0,19,30,12.0,0.0
14686,62.0,2,60,13.0,0.0
14687,66.0,1,60,3.0,0.0
14688,54.0,0,60,3.0,0.0
14689,50.0,3,60,14.0,0.0
14690,71.0,0,30,11.0,0.0
14691,62.0,36,30,12.0,0.0
14692,71.0,4,30,11.0,0.0
14693,62.0,36,30,12.0,0.0
14694,80.0,2,60,10.0,0.0
14695,92.0,2,60,0.0,0.0
14696,80.0,0,60,0.0,0.0
14697,68.0,2,60,1.0,0.0
14698,80.0,0,60,1.0,0.0
14699,68.0,4,30,11.0,0.0
14700,73.0,9,60,2.0,0.0
14701,61.0,0,60,2.0,0.0
14702,65.0,19,30,12.0,0.0
14703,65.0,2,60,13.0,0.0
14704,53.0,0,60,3.0,0.0
14705,65.0,0,60,3.0,0.0
14706,53.0,3,60,14.0,0.0
14707,68.0,1,30,11.0,0.0
14708,65.0,36,30,12.0,0.0
14709,68.0,4,30,11.0,0.0
14710,65.0,36,30,12.0,0.0
14711,81.0,2,60,10.0,0.0
14712,93.0,2,60,0.0,0.0
14713,81.0,0,60,0.0,0.0
14714,69.0,0,60,1.0,0.0
14715,81.0,2,60,1.0,0.0
14716,69.0,4,30,11.0,0.0
14717,78.0,9,60,2.0,0.0
14718,66.0,0,60,2.0,0.0
14719,66.0,19,30,12.0,0.0
14720,66.0,2,60,13.0,0.0
14721,66.0,0,60,3.0,0.0
14722,54.0,1,60,3.0,0.0
14723,54.0,3,60,14.0,0.0
14724,69.0,0,30,11.0,0.0
14725,66.0,36,30,12.0,0.0
14726,69.0,4,30,11.0,0.0
14727,66.0,36,30,12.0,0.0
14728,78.0,2,60,10.0,0.0
14729,90.0,0,60,0.0,0.0
14730,78.0,2,60,0.0,0.0
14731,78.0,0,60,1.0,0.0
14732,66.0,2,60,1.0,0.0
14733,66.0,4,30,11.0,0.0
14734,78.0,0,60,2.0,0.0
14735,66.0,9,60,2.0,0.0
14736,57.0,19,30,12.0,0.0
14737,57.0,2,60,13.0,0.0
14738,66.0,1,60,3.0,0.0
14739,54.0,0,60,3.0,0.0
14740,45.0,3,60,14.0,0.0
14741,66.0,0,30,11.0,0.0
14742,57.0,36,30,12.0,0.0
14743,66.0,4,30,11.0,0.0
14744,57.0,36,30,12.0,0.0
14745,80.0,2,60,10.0,0.0
14746,80.0,2,60,0.0,0.0
14747,92.0,0,60,0.0,0.0
14748,80.0,0,60,1.0,0.0
14749,68.0,2,60,1.0,0.0
14750,68.0,4,30,11.0,0.0
14751,78.0,9,60,2.0,0.0
14752,66.0,0,60,2.0,0.0
14753,59.0,19,30,12.0,0.0
14754,59.0,2,60,13.0,0.0
14755,54.0,0,60,3.0,0.0
14756,66.0,0,60,3.0,0.0
14757,47.0,3,60,14.0,0.0
14758,68.0,1,30,11.0,0.0
14759,59.0,36,30,12.0,0.0
14760,68.0,4,30,11.0,0.0
14761,59.0,36,30,12.0,0.0
14762,78.0,2,60,10.0,0.0
14763,78.0,0,60,0.0,0.0
14764,90.0,2,60,0.0,0.0
14765,66.0,2,60,1.0,0.0
14766,78.0,0,60,1.0,0.0
14767,66.0,4,30,11.0,0.0
14768,78.0,9,60,2.0,0.0
14769,66.0,0,60,2.0,0.0
14770,57.0,19,30,12.0,0.0
14771,57.0,2,60,13.0,0.0
14772,54.0,0,60,3.0,0.0
14773,66.0,0,60,3.0,0.0
14774,45.0,3,60,14.0,0.0
14775,66.0,1,30,11.0,0.0
14776,57.0,36,30,12.0,0.0
14777,66.0,4,30,11.0,0.0
14778,57.0,36,30,12.0,0.0
14779,80.0,2,60,10.0,0.0
14780,80.0,0,60,0.0,0.0
14781,92.0,2,60,0.0,0.0
14782,68.0,0,60,1.0,0.0
14783,80.0,2,60,1.0,0.0
14784,68.0,4,30,11.0,0.0
14785,66.0,0,60,2.0,0.0
14786,78.0,9,60,2.0,0.0
14787,59.0,19,30,12.0,0.0
14788,59.0,2,60,13.0,0.0
14789,66.0,0,60,3.0,0.0
14790,54.0,1,60,3.0,0.0
14791,47.0,3,60,14.0,0.0
14792,68.0,0,30,11.0,0.0
14793,59.0,36,30,12.0,0.0
14794,68.0,4,30,11.0,0.0
14795,59.0,36,30,12.0,0.0
14796,81.0,2,60,10.0,0.0
14797,93.0,0,60,0.0,0.0
14798,81.0,2,60,0.0,0.0
14799,69.0,0,60,1.0,0.0
14800,81.0,2,60,1.0,0.0
14801,69.0,4,30,11.0,0.0
14802,78.0,9,60,2.0,0.0
14803,66.0,0,60,2.0,0.0
14804,61.0,19,30,12.0,0.0
14805,61.0,2,60,13.0,0.0
14806,54.0,0,60,3.0,0.0
14807,66.0,0,60,3.0,0.0
14808,49.0,3,60,14.0,0.0
14809,69.0,1,30,11.0,0.0
14810,61.0,36,30,12.0,0.0
14811,69.0,4,30,11.0,0.0
14812,61.0,36,30,12.0,0.0
14813,83.0,2,60,10.0,0.0
14814,83.0,2,60,0.0,0.0
14815,83.0,2,60,1.0,0.0
14816,71.0,0,60,1.0,0.0
14817,71.0,4,30,11.0,0.0
14818,78.0,9,60,2.0,0.0
14819,66.0,0,60,2.0,0.0
14820,62.0,19,30,12.0,0.0
14821,62.0,2,60,13.0,0.0
14822,66.0,0,60,3.0,0.0
14823,54.0,0,60,3.0,0.0
14824,50.0,3,60,14.0,0.0
14825,71.0,1,30,11.0,0.0
14826,62.0,36,30,12.0,0.0
14827,71.0,4,30,11.0,0.0
14828,62.0,36,30,12.0,0.0
14829,80.0,2,60,10.0,0.0
14830,92.0,0,60,0.0,0.0
14831,77.0,2,60,0.0,0.0
14832,77.0,0,90,6.0,0.0
14833,65.0,1,90,6.0,0.0
14834,68.0,0,60,1.0,0.0
14835,80.0,2,60,1.0,0.0
14836,68.0,4,30,11.0,0.0
14837,65.0,5,90,4.0,0.0
14838,68.0,9,60,2.0,0.0
14839,71.0,0,60,2.0,0.0
14840,65.0,19,30,12.0,0.0
14841,53.0,22,90,5.0,0.0
14842,65.0,2,60,13.0,0.0
14843,59.0,1,60,3.0,0.0
14844,56.0,0,60,3.0,0.0
14845,53.0,3,60,14.0,0.0
14846,68.0,0,30,11.0,0.0
14847,65.0,8,30,12.0,0.0
14848,68.0,4,30,11.0,0.0
14849,65.0,18,30,12.0,0.0
14850,81.0,2,60,10.0,0.0
14851,93.0,0,60,0.0,0.0
14852,77.0,2,60,0.0,0.0
14853,65.0,0,90,6.0,0.0
14854,77.0,1,90,6.0,0.0
14855,69.0,0,60,1.0,0.0
14856,81.0,2,60,1.0,0.0
14857,69.0,4,30,11.0,0.0
14858,65.0,5,90,4.0,0.0
14859,69.0,0,60,2.0,0.0
14860,72.0,9,60,2.0,0.0
14861,65.0,19,30,12.0,0.0
14862,53.0,22,90,5.0,0.0
14863,65.0,2,60,13.0,0.0
14864,60.0,0,60,3.0,0.0
14865,57.0,1,60,3.0,0.0
14866,53.0,3,60,14.0,0.0
14867,41.0,18,15,15.0,0.0
14868,69.0,0,30,11.0,0.0
14869,65.0,8,30,12.0,0.0
14870,69.0,4,30,11.0,0.0
14871,65.0,18,30,12.0,0.0
14872,77.0,2,60,10.0,0.0
14873,77.0,2,60,0.0,0.0
14874,89.0,0,60,0.0,0.0
14875,77.0,2,60,1.0,0.0
14876,77.0,0,90,6.0,0.0
14877,65.0,1,90,6.0,0.0
14878,65.0,5,90,4.0,0.0
14879,65.0,4,30,11.0,0.0
14880,65.0,0,60,2.0,0.0
14881,69.0,9,60,2.0,0.0
14882,57.0,19,30,12.0,0.0
14883,53.0,22,90,5.0,0.0
14884,57.0,2,60,13.0,0.0
14885,57.0,0,60,3.0,0.0
14886,45.0,3,60,14.0,0.0
14887,65.0,1,30,11.0,0.0
14888,57.0,8,30,12.0,0.0
14889,65.0,4,30,11.0,0.0
14890,57.0,18,30,12.0,0.0
14891,79.0,2,60,10.0,0.0
14892,79.0,0,60,0.0,0.0
14893,91.0,2,60,0.0,0.0
14894,77.0,0,90,6.0,0.0
14895,65.0,1,90,6.0,0.0
14896,79.0,2,60,1.0,0.0
14897,65.0,5,90,4.0,0.0
14898,67.0,4,30,11.0,0.0
14899,67.0,9,60,2.0,0.0
14900,58.0,19,30,12.0,0.0
14901,53.0,22,90,5.0,0.0
14902,58.0,2,60,13.0,0.0
14903,55.0,0,60,3.0,0.0
14904,46.0,3,60,14.0,0.0
14905,41.0,18,15,15.0,0.0
14906,67.0,1,30,11.0,0.0
14907,58.0,8,30,12.0,0.0
14908,67.0,4,30,11.0,0.0
14909,58.0,18,30,12.0,0.0
14910,77.0,2,60,10.0,0.0
14911,89.0,2,60,0.0,0.0
14912,77.0,0,60,0.0,0.0
14913,77.0,0,90,6.0,0.0
14914,65.0,1,90,6.0,0.0
14915,77.0,2,60,1.0,0.0
14916,65.0,4,30,11.0,0.0
14917,65.0,5,90,4.0,0.0
14918,65.0,9,60,2.0,0.0
14919,57.0,19,30,12.0,0.0
14920,53.0,22,90,5.0,0.0
14921,57.0,2,60,13.0,0.0
14922,53.0,0,60,3.0,0.0
14923,45.0,3,60,14.0,0.0
14924,65.0,1,30,11.0,0.0
14925,57.0,8,30,12.0,0.0
14926,65.0,4,30,11.0,0.0
14927,57.0,18,30,12.0,0.0
14928,79.0,2,60,10.0,0.0
14929,91.0,2,60,0.0,0.0
14930,79.0,0,60,0.0,0.0
14931,65.0,0,90,6.0,0.0
14932,77.0,1,90,6.0,0.0
14933,79.0,2,60,1.0,0.0
14934,65.0,5,90,4.0,0.0
14935,67.0,4,30,11.0,0.0
14936,67.0,9,60,2.0,0.0
14937,58.0,19,30,12.0,0.0
14938,53.0,22,90,5.0,0.0
14939,58.0,2,60,13.0,0.0
14940,55.0,1,60,3.0,0.0
14941,46.0,3,60,14.0,0.0
14942,41.0,18,15,15.0,0.0
14943,67.0,0,30,11.0,0.0
14944,58.0,8,30,12.0,0.0
14945,67.0,4,30,11.0,0.0
14946,58.0,18,30,12.0,0.0
14947,81.0,2,60,10.0,0.0
14948,81.0,0,60,0.0,0.0
14949,93.0,2,60,0.0,0.0
14950,65.0,1,90,6.0,0.0
14951,77.0,0,90,6.0,0.0
14952,81.0,2,60,1.0,0.0
14953,69.0,4,30,11.0,0.0
14954,65.0,5,90,4.0,0.0
14955,69.0,9,60,2.0,0.0
14956,60.0,19,30,12.0,0.0
14957,53.0,22,90,5.0,0.0
14958,60.0,2,60,13.0,0.0
14959,57.0,0,60,3.0,0.0
14960,48.0,3,60,14.0,0.0
14961,41.0,18,120,15.0,0.0
14962,69.0,1,30,11.0,0.0
14963,60.0,8,30,12.0,0.0
14964,69.0,4,30,11.0,0.0
14965,60.0,18,30,12.0,0.0
14966,82.0,2,60,10.0,0.0
14967,82.0,2,60,0.0,0.0
14968,77.0,0,90,6.0,0.0
14969,82.0,2,60,1.0,0.0
14970,65.0,1,90,6.0,0.0
14971,65.0,5,90,4.0,0.0
14972,70.0,4,30,11.0,0.0
14973,70.0,9,60,2.0,0.0
14974,62.0,19,30,12.0,0.0
14975,53.0,22,90,5.0,0.0
14976,62.0,2,60,13.0,0.0
14977,58.0,0,60,3.0,0.0
14978,50.0,3,60,14.0,0.0
14979,41.0,18,120,15.0,0.0
14980,70.0,1,30,11.0,0.0
14981,62.0,8,30,12.0,0.0
14982,70.0,4,30,11.0,0.0
14983,62.0,18,30,12.0,0.0
14984,79.0,2,60,10.0,0.0
14985,79.0,0,60,0.0,0.0
14986,91.0,2,60,0.0,0.0
14987,79.0,2,60,1.0,0.0
14988,67.0,4,30,11.0,0.0
14989,67.0,9,60,2.0,0.0
14990,64.0,19,30,12.0,0.0
14991,64.0,2,60,13.0,0.0
14992,55.0,1,60,3.0,0.0
14993,52.0,3,60,14.0,0.0
14994,67.0,0,30,11.0,0.0
14995,64.0,36,30,12.0,0.0
14996,67.0,4,30,11.0,0.0
14997,64.0,36,30,12.0,0.0
14998,81.0,2,60,10.0,0.0
14999,93.0,2,60,0.0,0.0
15000,81.0,0,60,0.0,0.0
15001,77.0,1,90,6.0,0.0
15002,65.0,0,90,6.0,0.0
15003,81.0,2,60,1.0,0.0
15004,69.0,4,30,11.0,0.0
15005,65.0,5,90,4.0,0.0
15006,69.0,9,60,2.0,0.0
15007,65.0,19,30,12.0,0.0
15008,53.0,22,90,5.0,0.0
15009,65.0,2,60,13.0,0.0
15010,57.0,0,60,3.0,0.0
15011,53.0,3,60,14.0,0.0
15012,69.0,1,30,11.0,0.0
15013,65.0,8,30,12.0,0.0
15014,69.0,4,30,11.0,0.0
15015,65.0,18,30,12.0,0.0
15016,77.0,2,60,10.0,0.0
15017,77.0,2,60,0.0,0.0
15018,89.0,0,60,0.0,0.0
15019,77.0,1,90,6.0,0.0
15020,77.0,2,60,1.0,0.0
15021,65.0,0,90,6.0,0.0
15022,65.0,4,30,11.0,0.0
15023,65.0,5,90,4.0,0.0
15024,65.0,9,60,2.0,0.0
15025,57.0,19,30,12.0,0.0
15026,53.0,22,90,5.0,0.0
15027,57.0,2,60,13.0,0.0
15028,53.0,0,60,3.0,0.0
15029,45.0,3,60,14.0,0.0
15030,41.0,18,15,15.0,0.0
15031,65.0,1,30,11.0,0.0
15032,57.0,8,30,12.0,0.0
15033,65.0,4,30,11.0,0.0
15034,57.0,18,30,12.0,0.0
15035,82.0,2,60,10.0,0.0
15036,82.0,2,60,0.0,0.0
15037,77.0,0,90,6.0,0.0
15038,65.0,1,90,6.0,0.0
15039,82.0,2,60,1.0,0.0
15040,65.0,5,90,4.0,0.0
15041,70.0,4,30,11.0,0.0
15042,70.0,9,60,2.0,0.0
15043,62.0,19,30,12.0,0.0
15044,53.0,22,90,5.0,0.0
15045,50.0,2,60,13.0,0.0
15046,58.0,0,60,3.0,0.0
15047,38.0,3,60,14.0,0.0
15048,41.0,18,15,15.0,0.0
15049,70.0,1,30,11.0,0.0
15050,62.0,8,30,12.0,0.0
15051,70.0,4,30,11.0,0.0
15052,62.0,18,30,12.0,0.0
15053,79.0,2,60,10.0,0.0
15054,79.0,2,60,0.0,0.0
15055,91.0,0,60,0.0,0.0
15056,79.0,2,60,1.0,0.0
15057,67.0,4,30,11.0,0.0
15058,67.0,9,60,2.0,0.0
15059,64.0,19,30,12.0,0.0
15060,52.0,2,60,13.0,0.0
15061,55.0,1,60,3.0,0.0
15062,40.0,3,60,14.0,0.0
15063,67.0,0,30,11.0,0.0
15064,64.0,36,30,12.0,0.0
15065,67.0,4,30,11.0,0.0
15066,64.0,36,30,12.0,0.0
15067,81.0,2,60,10.0,0.0
15068,93.0,2,60,0.0,0.0
15069,81.0,0,60,0.0,0.0
15070,65.0,1,90,6.0,0.0
15071,77.0,0,90,6.0,0.0
15072,81.0,2,60,1.0,0.0
15073,65.0,5,90,4.0,0.0
15074,69.0,4,30,11.0,0.0
15075,69.0,9,60,2.0,0.0
15076,65.0,19,30,12.0,0.0
15077,53.0,22,90,5.0,0.0
15078,53.0,2,60,13.0,0.0
15079,57.0,0,60,3.0,0.0
15080,41.0,3,60,14.0,0.0
15081,69.0,1,30,11.0,0.0
15082,65.0,8,30,12.0,0.0
15083,69.0,4,30,11.0,0.0
15084,65.0,18,30,12.0,0.0
15085,77.0,2,60,10.0,0.0
15086,77.0,2,60,0.0,0.0
15087,89.0,0,60,0.0,0.0
15088,77.0,2,60,1.0,0.0
15089,65.0,1,90,6.0,0.0
15090,77.0,0,90,6.0,0.0
15091,65.0,4,30,11.0,0.0
15092,65.0,5,90,4.0,0.0
15093,65.0,9,60,2.0,0.0
15094,57.0,19,30,12.0,0.0
15095,53.0,22,90,5.0,0.0
15096,57.0,2,60,13.0,0.0
15097,53.0,1,60,3.0,0.0
15098,45.0,3,60,14.0,0.0
15099,41.0,18,15,15.0,0.0
15100,65.0,0,30,11.0,0.0
15101,57.0,8,30,12.0,0.0
15102,65.0,4,30,11.0,0.0
15103,57.0,18,30,12.0,0.0
15104,82.0,2,60,10.0,0.0
15105,82.0,2,60,0.0,0.0
15106,65.0,0,90,6.0,0.0
15107,82.0,2,60,1.0,0.0
15108,77.0,1,90,6.0,0.0
15109,70.0,4,30,11.0,0.0
15110,65.0,5,90,4.0,0.0
15111,70.0,9,60,2.0,0.0
15112,50.0,19,30,12.0,0.0
15113,53.0,22,90,5.0,0.0
15114,62.0,2,60,13.0,0.0
15115,58.0,1,60,3.0,0.0
15116,50.0,3,60,14.0,0.0
15117,41.0,18,120,15.0,0.0
15118,70.0,0,30,11.0,0.0
15119,50.0,8,30,12.0,0.0
15120,70.0,4,30,11.0,0.0
15121,50.0,18,30,12.0,0.0
15122,79.0,2,60,10.0,0.0
15123,91.0,2,60,0.0,0.0
15124,79.0,0,60,0.0,0.0
15125,79.0,2,60,1.0,0.0
15126,67.0,4,30,11.0,0.0
15127,67.0,9,60,2.0,0.0
15128,52.0,19,30,12.0,0.0
15129,64.0,2,60,13.0,0.0
15130,55.0,1,60,3.0,0.0
15131,52.0,3,60,14.0,0.0
15132,67.0,0,30,11.0,0.0
15133,52.0,36,30,12.0,0.0
15134,67.0,4,30,11.0,0.0
15135,52.0,36,30,12.0,0.0
15136,81.0,2,60,10.0,0.0
15137,81.0,2,60,0.0,0.0
15138,93.0,0,60,0.0,0.0
15139,77.0,0,90,6.0,0.0
15140,81.0,2,60,1.0,0.0
15141,65.0,1,90,6.0,0.0
15142,65.0,5,90,4.0,0.0
15143,69.0,4,30,11.0,0.0
15144,69.0,9,60,2.0,0.0
15145,53.0,19,30,12.0,0.0
15146,53.0,22,90,5.0,0.0
15147,65.0,2,60,13.0,0.0
15148,57.0,1,60,3.0,0.0
15149,53.0,3,60,14.0,0.0
15150,69.0,0,30,11.0,0.0
15151,53.0,8,30,12.0,0.0
15152,69.0,4,30,11.0,0.0
15153,53.0,18,30,12.0,0.0
15154,77.0,2,60,10.0,0.0
15155,89.0,2,60,0.0,0.0
15156,77.0,0,60,0.0,0.0
15157,77.0,0,90,6.0,0.0
15158,77.0,2,60,1.0,0.0
15159,65.0,1,90,6.0,0.0
15160,65.0,4,30,11.0,0.0
15161,65.0,5,90,4.0,0.0
15162,65.0,9,60,2.0,0.0
15163,57.0,19,30,12.0,0.0
15164,53.0,22,90,5.0,0.0
15165,57.0,2,60,13.0,0.0
15166,53.0,1,60,3.0,0.0
15167,45.0,3,60,14.0,0.0
15168,41.0,18,15,15.0,0.0
15169,65.0,0,30,11.0,0.0
15170,57.0,8,30,12.0,0.0
15171,65.0,4,30,11.0,0.0
15172,57.0,18,30,12.0,0.0
15173,82.0,2,60,10.0,0.0
15174,82.0,2,60,0.0,0.0
15175,82.0,2,60,1.0,0.0
15176,65.0,0,90,6.0,0.0
15177,77.0,1,90,6.0,0.0
15178,65.0,5,90,4.0,0.0
15179,70.0,4,30,11.0,0.0
15180,70.0,9,60,2.0,0.0
15181,62.0,19,30,12.0,0.0
15182,53.0,22,90,5.0,0.0
15183,50.0,2,60,13.0,0.0
15184,58.0,0,60,3.0,0.0
15185,38.0,3,60,14.0,0.0
15186,41.0,18,120,15.0,0.0
15187,70.0,1,30,11.0,0.0
15188,62.0,8,30,12.0,0.0
15189,70.0,4,30,11.0,0.0
15190,62.0,18,30,12.0,0.0
15191,79.0,2,60,10.0,0.0
15192,91.0,0,60,0.0,0.0
15193,79.0,2,60,0.0,0.0
15194,79.0,2,60,1.0,0.0
15195,67.0,4,30,11.0,0.0
15196,67.0,9,60,2.0,0.0
15197,64.0,19,30,12.0,0.0
15198,52.0,2,60,13.0,0.0
15199,55.0,1,60,3.0,0.0
15200,40.0,3,60,14.0,0.0
15201,67.0,0,30,11.0,0.0
15202,64.0,36,30,12.0,0.0
15203,67.0,4,30,11.0,0.0
15204,64.0,36,30,12.0,0.0
15205,81.0,2,60,10.0,0.0
15206,93.0,0,60,0.0,0.0
15207,81.0,2,60,0.0,0.0
15208,77.0,1,90,6.0,0.0
15209,65.0,0,90,6.0,0.0
15210,81.0,2,60,1.0,0.0
15211,69.0,4,30,11.0,0.0
15212,65.0,5,90,4.0,0.0
15213,69.0,9,60,2.0,0.0
15214,65.0,19,30,12.0,0.0
15215,53.0,22,90,5.0,0.0
15216,53.0,2,60,13.0,0.0
15217,57.0,0,60,3.0,0.0
15218,41.0,3,60,14.0,0.0
15219,69.0,1,30,11.0,0.0
15220,65.0,8,30,12.0,0.0
15221,69.0,4,30,11.0,0.0
15222,65.0,18,30,12.0,0.0
15223,77.0,2,60,10.0,0.0
15224,89.0,2,60,0.0,0.0
15225,77.0,0,60,0.0,0.0
15226,77.0,1,90,6.0,0.0
15227,65.0,0,90,6.0,0.0
15228,77.0,2,60,1.0,0.0
15229,65.0,4,30,11.0,0.0
15230,65.0,5,90,4.0,0.0
15231,65.0,9,60,2.0,0.0
15232,57.0,19,30,12.0,0.0
15233,53.0,22,90,5.0,0.0
15234,57.0,2,60,13.0,0.0
15235,53.0,0,60,3.0,0.0
15236,45.0,3,60,14.0,0.0
15237,41.0,18,15,15.0,0.0
15238,65.0,1,30,11.0,0.0
15239,57.0,8,30,12.0,0.0
15240,65.0,4,30,11.0,0.0
15241,57.0,18,30,12.0,0.0
15242,82.0,2,60,10.0,0.0
15243,82.0,2,60,0.0,0.0
15244,77.0,1,90,6.0,0.0
15245,82.0,2,60,1.0,0.0
15246,65.0,0,90,6.0,0.0
15247,65.0,5,90,4.0,0.0
15248,70.0,4,30,11.0,0.0
15249,70.0,9,60,2.0,0.0
15250,50.0,19,30,12.0,0.0
15251,53.0,22,90,5.0,0.0
15252,62.0,2,60,13.0,0.0
15253,58.0,0,60,3.0,0.0
15254,50.0,3,60,14.0,0.0
15255,41.0,18,120,15.0,0.0
15256,70.0,1,30,11.0,0.0
15257,50.0,8,30,12.0,0.0
15258,70.0,4,30,11.0,0.0
15259,50.0,18,30,12.0,0.0
15260,79.0,2,60,10.0,0.0
15261,79.0,2,60,0.0,0.0
15262,91.0,0,60,0.0,0.0
15263,79.0,2,60,1.0,0.0
15264,67.0,4,30,11.0,0.0
15265,67.0,9,60,2.0,0.0
15266,52.0,19,30,12.0,0.0
15267,64.0,2,60,13.0,0.0
15268,55.0,0,60,3.0,0.0
15269,52.0,3,60,14.0,0.0
15270,67.0,1,30,11.0,0.0
15271,52.0,36,30,12.0,0.0
15272,67.0,4,30,11.0,0.0
15273,52.0,36,30,12.0,0.0
15274,81.0,2,60,10.0,0.0
15275,93.0,0,60,0.0,0.0
15276,81.0,2,60,0.0,0.0
15277,77.0,1,90,6.0,0.0
15278,81.0,2,60,1.0,0.0
15279,65.0,0,90,6.0,0.0
15280,65.0,5,90,4.0,0.0
15281,69.0,4,30,11.0,0.0
15282,69.0,9,60,2.0,0.0
15283,53.0,19,30,12.0,0.0
15284,53.0,22,90,5.0,0.0
15285,65.0,2,60,13.0,0.0
15286,57.0,1,60,3.0,0.0
15287,53.0,3,60,14.0,0.0
15288,41.0,18,120,15.0,0.0
15289,69.0,0,30,11.0,0.0
15290,53.0,8,30,12.0,0.0
15291,69.0,4,30,11.0,0.0
15292,53.0,18,30,12.0,0.0
15293,77.0,2,60,10.0,0.0
15294,89.0,2,60,0.0,0.0
15295,77.0,0,60,0.0,0.0
15296,77.0,2,60,1.0,0.0
15297,65.0,1,90,6.0,0.0
15298,77.0,0,90,6.0,0.0
15299,65.0,5,90,4.0,0.0
15300,65.0,4,30,11.0,0.0
15301,65.0,9,60,2.0,0.0
15302,57.0,19,30,12.0,0.0
15303,53.0,22,90,5.0,0.0
15304,57.0,2,60,13.0,0.0
15305,53.0,0,60,3.0,0.0
15306,45.0,3,60,14.0,0.0
15307,41.0,18,120,15.0,0.0
15308,65.0,1,30,11.0,0.0
15309,57.0,8,30,12.0,0.0
15310,65.0,4,30,11.0,0.0
15311,57.0,18,30,12.0,0.0
15312,82.0,2,60,10.0,0.0
15313,82.0,2,60,0.0,0.0
15314,82.0,2,60,1.0,0.0
15315,77.0,1,90,6.0,0.0
15316,65.0,0,90,6.0,0.0
15317,65.0,5,90,4.0,0.0
15318,70.0,4,30,11.0,0.0
15319,70.0,9,60,2.0,0.0
15320,62.0,19,30,12.0,0.0
15321,53.0,22,90,5.0,0.0
15322,62.0,2,60,13.0,0.0
15323,62.0,1,60,3.0,0.0
15324,58.0,0,60,3.0,0.0
15325,50.0,3,60,14.0,0.0
15326,41.0,18,120,15.0,0.0
15327,70.0,0,30,11.0,0.0
15328,62.0,8,30,12.0,0.0
15329,70.0,4,30,11.0,0.0
15330,62.0,18,30,12.0,0.0
15331,79.0,2,60,10.0,0.0
15332,91.0,2,60,0.0,0.0
15333,79.0,0,60,0.0,0.0
15334,79.0,2,60,1.0,0.0
15335,67.0,4,30,11.0,0.0
15336,67.0,9,60,2.0,0.0
15337,64.0,19,30,12.0,0.0
15338,64.0,2,60,13.0,0.0
15339,64.0,1,60,3.0,0.0
15340,67.0,0,60,3.0,0.0
15341,52.0,3,60,14.0,0.0
15342,67.0,0,30,11.0,0.0
15343,64.0,36,30,12.0,0.0
15344,67.0,4,30,11.0,0.0
15345,64.0,36,30,12.0,0.0
15346,76.0,2,60,10.0,0.0
15347,88.0,2,60,0.0,0.0
15348,76.0,0,60,0.0,0.0
15349,76.0,2,60,1.0,0.0
15350,72.0,1,90,6.0,0.0
15351,60.0,0,90,6.0,0.0
15352,60.0,5,90,4.0,0.0
15353,64.0,4,30,11.0,0.0
15354,64.0,9,60,2.0,0.0
15355,60.0,19,30,12.0,0.0
15356,48.0,22,90,5.0,0.0
15357,60.0,2,60,13.0,0.0
15358,64.0,1,60,3.0,0.0
15359,60.0,0,60,3.0,0.0
15360,48.0,3,60,14.0,0.0
15361,64.0,0,30,11.0,0.0
15362,60.0,8,30,12.0,0.0
15363,64.0,4,30,11.0,0.0
15364,60.0,36,30,12.0,0.0
15365,81.0,2,60,10.0,0.0
15366,81.0,0,60,0.0,0.0
15367,93.0,2,60,0.0,0.0
15368,81.0,2,60,1.0,0.0
15369,69.0,4,30,11.0,0.0
15370,69.0,9,60,2.0,0.0
15371,61.0,19,30,12.0,0.0
15372,61.0,2,60,13.0,0.0
15373,69.0,0,60,3.0,0.0
15374,61.0,1,60,3.0,0.0
15375,49.0,3,60,14.0,0.0
15376,69.0,0,30,11.0,0.0
15377,61.0,36,30,12.0,0.0
15378,69.0,4,30,11.0,0.0
15379,61.0,36,30,12.0,0.0
15380,77.0,2,60,10.0,0.0
15381,89.0,0,60,0.0,0.0
15382,77.0,2,60,0.0,0.0
15383,77.0,2,60,1.0,0.0
15384,72.0,0,90,6.0,0.0
15385,60.0,1,90,6.0,0.0
15386,60.0,5,90,4.0,0.0
15387,65.0,4,30,11.0,0.0
15388,65.0,9,60,2.0,0.0
15389,62.0,19,30,12.0,0.0
15390,48.0,22,90,5.0,0.0
15391,62.0,2,60,13.0,0.0
15392,62.0,1,60,3.0,0.0
15393,65.0,0,60,3.0,0.0
15394,50.0,3,60,14.0,0.0
15395,65.0,0,30,11.0,0.0
15396,62.0,8,30,12.0,0.0
15397,65.0,4,30,11.0,0.0
15398,62.0,36,30,12.0,0.0
15399,74.0,2,60,10.0,0.0
15400,86.0,2,60,0.0,0.0
15401,74.0,0,60,0.0,0.0
15402,74.0,2,60,1.0,0.0
15403,62.0,4,30,11.0,0.0
15404,62.0,9,60,2.0,0.0
15405,58.0,19,30,12.0,0.0
15406,58.0,2,60,13.0,0.0
15407,58.0,0,60,3.0,0.0
15408,62.0,0,60,3.0,0.0
15409,46.0,3,60,14.0,0.0
15410,62.0,1,30,11.0,0.0
15411,58.0,36,30,12.0,0.0
15412,62.0,4,30,11.0,0.0
15413,58.0,36,30,12.0,0.0
15414,79.0,2,60,10.0,0.0
15415,91.0,0,60,0.0,0.0
15416,79.0,2,60,0.0,0.0
15417,79.0,2,60,1.0,0.0
15418,60.0,1,90,6.0,0.0
15419,72.0,0,90,6.0,0.0
15420,60.0,5,90,4.0,0.0
15421,67.0,4,30,11.0,0.0
15422,67.0,9,60,2.0,0.0
15423,59.0,19,30,12.0,0.0
15424,48.0,22,90,5.0,0.0
15425,59.0,2,60,13.0,0.0
15426,59.0,0,60,3.0,0.0
15427,67.0,0,60,3.0,0.0
15428,47.0,3,60,14.0,0.0
15429,67.0,1,30,11.0,0.0
15430,59.0,8,30,12.0,0.0
15431,67.0,4,30,11.0,0.0
15432,59.0,36,30,12.0,0.0
15433,76.0,2,60,10.0,0.0
15434,88.0,2,60,0.0,0.0
15435,76.0,0,60,0.0,0.0
15436,76.0,2,60,1.0,0.0
15437,64.0,4,30,11.0,0.0
15438,64.0,9,60,2.0,0.0
15439,60.0,19,30,12.0,0.0
15440,60.0,2,60,13.0,0.0
15441,64.0,0,60,3.0,0.0
15442,60.0,0,60,3.0,0.0
15443,48.0,3,60,14.0,0.0
15444,64.0,1,30,11.0,0.0
15445,60.0,36,30,12.0,0.0
15446,64.0,4,30,11.0,0.0
15447,60.0,36,30,12.0,0.0
15448,72.0,2,60,10.0,0.0
15449,72.0,2,60,0.0,0.0
15450,84.0,0,60,0.0,0.0
15451,72.0,0,90,6.0,0.0
15452,72.0,2,60,1.0,0.0
15453,60.0,1,90,6.0,0.0
15454,60.0,5,90,4.0,0.0
15455,60.0,4,30,11.0,0.0
15456,60.0,9,60,2.0,0.0
15457,63.0,19,30,12.0,0.0
15458,48.0,22,90,5.0,0.0
15459,63.0,2,60,13.0,0.0
15460,63.0,1,60,3.0,0.0
15461,60.0,0,60,3.0,0.0
15462,51.0,3,60,14.0,0.0
15463,60.0,0,30,11.0,0.0
15464,63.0,8,30,12.0,0.0
15465,60.0,4,30,11.0,0.0
15466,63.0,36,30,12.0,0.0
15467,77.0,2,60,10.0,0.0
15468,77.0,0,60,0.0,0.0
15469,89.0,2,60,0.0,0.0
15470,77.0,2,60,1.0,0.0
15471,65.0,4,30,11.0,0.0
15472,65.0,9,60,2.0,0.0
15473,57.0,19,30,12.0,0.0
15474,57.0,2,60,13.0,0.0
15475,65.0,1,60,3.0,0.0
15476,57.0,0,60,3.0,0.0
15477,45.0,3,60,14.0,0.0
15478,65.0,0,30,11.0,0.0
15479,57.0,36,30,12.0,0.0
15480,65.0,4,30,11.0,0.0
15481,57.0,36,30,12.0,0.0
15482,74.0,2,60,10.0,0.0
15483,86.0,2,60,0.0,0.0
15484,74.0,0,60,0.0,0.0
15485,72.0,1,90,6.0,0.0
15486,60.0,0,90,6.0,0.0
15487,74.0,2,60,1.0,0.0
15488,60.0,5,90,4.0,0.0
15489,62.0,4,30,11.0,0.0
15490,62.0,9,60,2.0,0.0
15491,58.0,19,30,12.0,0.0
15492,48.0,22,90,5.0,0.0
15493,58.0,2,60,13.0,0.0
15494,58.0,0,60,3.0,0.0
15495,62.0,0,60,3.0,0.0
15496,46.0,3,60,14.0,0.0
15497,62.0,1,30,11.0,0.0
15498,58.0,8,30,12.0,0.0
15499,62.0,4,30,11.0,0.0
15500,58.0,36,30,12.0,0.0
15501,70.0,2,60,10.0,0.0
15502,70.0,0,60,0.0,0.0
15503,82.0,2,60,0.0,0.0
15504,70.0,2,60,1.0,0.0
15505,58.0,4,30,11.0,0.0
15506,58.0,9,60,2.0,0.0
15507,62.0,19,30,12.0,0.0
15508,62.0,2,60,13.0,0.0
15509,58.0,1,60,3.0,0.0
15510,62.0,0,60,3.0,0.0
15511,50.0,3,60,14.0,0.0
15512,58.0,0,30,11.0,0.0
15513,62.0,36,30,12.0,0.0
15514,58.0,4,30,11.0,0.0
15515,62.0,36,30,12.0,0.0
15516,76.0,2,60,10.0,0.0
15517,76.0,2,60,0.0,0.0
15518,88.0,0,60,0.0,0.0
15519,60.0,1,90,6.0,0.0
15520,76.0,2,60,1.0,0.0
15521,72.0,0,90,6.0,0.0
15522,64.0,4,30,11.0,0.0
15523,60.0,5,90,4.0,0.0
15524,64.0,9,60,2.0,0.0
15525,56.0,19,30,12.0,0.0
15526,48.0,22,90,5.0,0.0
15527,56.0,2,60,13.0,0.0
15528,56.0,0,60,3.0,0.0
15529,64.0,0,60,3.0,0.0
15530,44.0,3,60,14.0,0.0
15531,64.0,1,30,11.0,0.0
15532,56.0,8,30,12.0,0.0
15533,64.0,4,30,11.0,0.0
15534,56.0,36,30,12.0,0.0
15535,72.0,2,60,10.0,0.0
15536,84.0,2,60,0.0,0.0
15537,72.0,2,60,1.0,0.0
15538,60.0,4,30,11.0,0.0
15539,60.0,9,60,2.0,0.0
15540,57.0,19,30,12.0,0.0
15541,57.0,2,60,13.0,0.0
15542,56.0,0,60,3.0,0.0
15543,60.0,1,60,3.0,0.0
15544,45.0,3,60,14.0,0.0
15545,60.0,0,30,11.0,0.0
15546,57.0,36,30,12.0,0.0
15547,60.0,4,30,11.0,0.0
15548,57.0,36,30,12.0,0.0
15549,69.0,2,60,10.0,0.0
15550,81.0,2,60,0.0,0.0
15551,72.0,1,90,6.0,0.0
15552,60.0,0,90,6.0,0.0
15553,69.0,2,60,1.0,0.0
15554,57.0,4,30,11.0,0.0
15555,60.0,5,90,4.0,0.0
15556,57.0,9,60,2.0,0.0
15557,60.0,19,30,12.0,0.0
15558,48.0,22,90,5.0,0.0
15559,60.0,2,60,13.0,0.0
15560,57.0,0,60,3.0,0.0
15561,60.0,0,60,3.0,0.0
15562,48.0,3,60,14.0,0.0
15563,57.0,1,30,11.0,0.0
15564,60.0,8,30,12.0,0.0
15565,57.0,4,30,11.0,0.0
15566,60.0,36,30,12.0,0.0
15567,74.0,2,60,10.0,0.0
15568,86.0,2,60,0.0,0.0
15569,86.0,0,60,1.0,0.0
15570,74.0,2,60,1.0,0.0
15571,62.0,4,30,11.0,0.0
15572,62.0,0,60,2.0,0.0
15573,74.0,9,60,2.0,0.0
15574,54.0,19,30,12.0,0.0
15575,42.0,2,60,13.0,0.0
15576,62.0,0,60,3.0,0.0
15577,54.0,0,60,3.0,0.0
15578,42.0,3,60,14.0,0.0
15579,62.0,1,30,11.0,0.0
15580,54.0,36,30,12.0,0.0
15581,62.0,4,30,11.0,0.0
15582,54.0,36,30,12.0,0.0
15583,70.0,2,60,10.0,0.0
15584,82.0,2,60,0.0,0.0
15585,72.0,0,90,6.0,0.0
15586,60.0,1,90,6.0,0.0
15587,70.0,2,60,1.0,0.0
15588,81.0,0,60,1.0,0.0
15589,58.0,4,30,11.0,0.0
15590,60.0,5,90,4.0,0.0
15591,58.0,0,60,2.0,0.0
15592,70.0,9,60,2.0,0.0
15593,55.0,19,30,12.0,0.0
15594,48.0,22,90,5.0,0.0
15595,43.0,2,60,13.0,0.0
15596,55.0,0,60,3.0,0.0
15597,58.0,0,60,3.0,0.0
15598,43.0,3,60,14.0,0.0
15599,58.0,1,30,11.0,0.0
15600,55.0,8,30,12.0,0.0
15601,58.0,4,30,11.0,0.0
15602,55.0,36,30,12.0,0.0
15603,67.0,2,60,10.0,0.0
15604,79.0,2,60,0.0,0.0
15605,77.0,2,60,1.0,0.0
15606,67.0,0,60,1.0,0.0
15607,55.0,4,30,11.0,0.0
15608,67.0,0,60,2.0,0.0
15609,55.0,9,60,2.0,0.0
15610,58.0,19,30,12.0,0.0
15611,46.0,2,60,13.0,0.0
15612,55.0,1,60,3.0,0.0
15613,58.0,0,60,3.0,0.0
15614,46.0,3,60,14.0,0.0
15615,55.0,0,30,11.0,0.0
15616,58.0,36,30,12.0,0.0
15617,55.0,4,30,11.0,0.0
15618,58.0,36,30,12.0,0.0
15619,72.0,2,60,10.0,0.0
15620,84.0,2,60,0.0,0.0
15621,60.0,0,90,6.0,0.0
15622,72.0,1,90,6.0,0.0
15623,72.0,2,60,1.0,0.0
15624,84.0,0,60,1.0,0.0
15625,60.0,4,30,11.0,0.0
15626,60.0,5,90,4.0,0.0
15627,60.0,0,60,2.0,0.0
15628,72.0,9,60,2.0,0.0
15629,52.0,19,30,12.0,0.0
15630,48.0,22,90,5.0,0.0
15631,40.0,2,60,13.0,0.0
15632,60.0,0,60,3.0,0.0
15633,52.0,1,60,3.0,0.0
15634,40.0,3,60,14.0,0.0
15635,60.0,0,30,11.0,0.0
15636,52.0,8,30,12.0,0.0
15637,60.0,4,30,11.0,0.0
15638,52.0,36,30,12.0,0.0
15639,69.0,2,60,10.0,0.0
15640,81.0,2,60,0.0,0.0
15641,81.0,2,60,1.0,0.0
15642,69.0,0,60,1.0,0.0
15643,57.0,4,30,11.0,0.0
15644,57.0,0,60,2.0,0.0
15645,69.0,9,60,2.0,0.0
15646,53.0,19,30,12.0,0.0
15647,41.0,2,60,13.0,0.0
15648,53.0,0,60,3.0,0.0
15649,57.0,1,60,3.0,0.0
15650,41.0,3,60,14.0,0.0
15651,57.0,0,30,11.0,0.0
15652,53.0,36,30,12.0,0.0
15653,57.0,4,30,11.0,0.0
15654,53.0,36,30,12.0,0.0
15655,65.0,2,60,10.0,0.0
15656,77.0,2,60,0.0,0.0
15657,65.0,0,60,1.0,0.0
15658,77.0,2,60,1.0,0.0
15659,72.0,1,90,6.0,0.0
15660,60.0,0,90,6.0,0.0
15661,65.0,4,30,11.0,0.0
15662,60.0,5,90,4.0,0.0
15663,65.0,9,60,2.0,0.0
15664,57.0,19,30,12.0,0.0
15665,48.0,22,90,5.0,0.0
15666,45.0,2,60,13.0,0.0
15667,53.0,0,60,3.0,0.0
15668,57.0,0,60,3.0,0.0
15669,45.0,3,60,14.0,0.0
15670,65.0,1,30,11.0,0.0
15671,57.0,8,30,12.0,0.0
15672,65.0,4,30,11.0,0.0
15673,57.0,36,30,12.0,0.0
15674,70.0,2,60,10.0,0.0
15675,82.0,2,60,0.0,0.0
15676,70.0,0,60,1.0,0.0
15677,82.0,2,60,1.0,0.0
15678,58.0,4,30,11.0,0.0
15679,70.0,9,60,2.0,0.0
15680,50.0,19,30,12.0,0.0
15681,38.0,2,60,13.0,0.0
15682,58.0,0,60,3.0,0.0
15683,50.0,0,60,3.0,0.0
15684,38.0,3,60,14.0,0.0
15685,58.0,1,30,11.0,0.0
15686,50.0,36,30,12.0,0.0
15687,58.0,4,30,11.0,0.0
15688,50.0,36,30,12.0,0.0
15689,67.0,2,60,10.0,0.0
15690,79.0,2,60,0.0,0.0
15691,72.0,0,90,6.0,0.0
15692,67.0,2,60,1.0,0.0
15693,79.0,0,60,1.0,0.0
15694,60.0,1,90,6.0,0.0
15695,60.0,5,90,4.0,0.0
15696,55.0,4,30,11.0,0.0
15697,67.0,9,60,2.0,0.0
15698,51.0,19,30,12.0,0.0
15699,48.0,22,90,5.0,0.0
15700,39.0,2,60,13.0,0.0
15701,51.0,0,60,3.0,0.0
15702,55.0,0,60,3.0,0.0
15703,39.0,3,60,14.0,0.0
15704,55.0,1,30,11.0,0.0
15705,51.0,8,30,12.0,0.0
15706,55.0,4,30,11.0,0.0
15707,51.0,36,30,12.0,0.0
15708,64.0,2,60,10.0,0.0
15709,76.0,2,60,0.0,0.0
15710,64.0,0,60,1.0,0.0
15711,76.0,2,60,1.0,0.0
15712,55.0,4,30,11.0,0.0
15713,64.0,9,60,2.0,0.0
15714,52.0,19,30,12.0,0.0
15715,40.0,2,60,13.0,0.0
15716,52.0,1,60,3.0,0.0
15717,40.0,3,60,14.0,0.0
15718,55.0,0,30,11.0,0.0
15719,52.0,36,30,12.0,0.0
15720,55.0,4,30,11.0,0.0
15721,52.0,36,30,12.0,0.0
15722,60.0,2,60,10.0,0.0
15723,72.0,2,60,0.0,0.0
15724,72.0,0,60,1.0,0.0
15725,72.0,0,90,6.0,0.0
15726,60.0,1,90,6.0,0.0
15727,60.0,2,60,1.0,0.0
15728,55.0,0,30,11.0,0.0
15729,64.0,4,30,11.0,0.0
15730,60.0,5,90,4.0,0.0
15731,60.0,9,60,2.0,0.0
15732,55.0,19,30,12.0,0.0
15733,48.0,22,90,5.0,0.0
15734,43.0,2,60,13.0,0.0
15735,55.0,0,60,3.0,0.0
15736,43.0,3,60,14.0,0.0
15737,55.0,0,30,11.0,0.0
15738,64.0,1,30,11.0,0.0
15739,55.0,8,30,12.0,0.0
15740,64.0,4,30,11.0,0.0
15741,55.0,0,30,11.0,0.0
15742,55.0,36,30,12.0,0.0
15743,58.0,2,60,10.0,0.0
15744,70.0,2,60,0.0,0.0
15745,70.0,2,60,1.0,0.0
15746,60.0,1,90,6.0,0.0
15747,72.0,0,90,6.0,0.0
15748,55.0,4,30,11.0,0.0
15749,60.0,5,90,4.0,0.0
15750,64.0,0,30,11.0,0.0
15751,67.0,9,60,2.0,0.0
15752,70.0,0,60,2.0,0.0
15753,58.0,19,30,12.0,0.0
15754,48.0,22,90,5.0,0.0
15755,46.0,2,60,13.0,0.0
15756,55.0,0,60,3.0,0.0
15757,58.0,0,60,3.0,0.0
15758,46.0,3,60,14.0,0.0
15759,55.0,0,30,11.0,0.0
15760,64.0,1,30,11.0,0.0
15761,58.0,8,30,12.0,0.0
15762,64.0,0,30,11.0,0.0
15763,55.0,4,30,11.0,0.0
15764,58.0,36,30,12.0,0.0
15765,55.0,2,60,10.0,0.0
15766,67.0,2,60,0.0,0.0
15767,67.0,2,60,1.0,0.0
15768,60.0,1,90,6.0,0.0
15769,72.0,0,90,6.0,0.0
15770,64.0,4,30,11.0,0.0
15771,55.0,0,30,11.0,0.0
15772,60.0,5,90,4.0,0.0
15773,67.0,0,60,2.0,0.0
15774,70.0,9,60,2.0,0.0
15775,60.0,19,30,12.0,0.0
15776,48.0,22,90,5.0,0.0
15777,48.0,2,60,13.0,0.0
15778,58.0,0,60,3.0,0.0
15779,55.0,0,60,3.0,0.0
15780,48.0,3,60,14.0,0.0
15781,64.0,1,30,11.0,0.0
15782,55.0,0,30,11.0,0.0
15783,60.0,8,30,12.0,0.0
15784,55.0,0,30,11.0,0.0
15785,64.0,4,30,11.0,0.0
15786,60.0,36,30,12.0,0.0
15787,67.0,2,60,10.0,0.0
15788,79.0,2,60,0.0,0.0
15789,72.0,0,90,6.0,0.0
15790,79.0,2,60,1.0,0.0
15791,60.0,1,90,6.0,0.0
15792,60.0,5,90,4.0,0.0
15793,55.0,0,30,11.0,0.0
15794,64.0,4,30,11.0,0.0
15795,67.0,0,60,2.0,0.0
15796,70.0,9,60,2.0,0.0
15797,48.0,19,30,12.0,0.0
15798,48.0,22,90,5.0,0.0
15799,36.0,2,60,13.0,0.0
15800,58.0,1,60,3.0,0.0
15801,55.0,0,60,3.0,0.0
15802,36.0,3,60,14.0,0.0
15803,55.0,0,30,11.0,0.0
15804,64.0,0,30,11.0,0.0
15805,48.0,8,30,12.0,0.0
15806,55.0,4,30,11.0,0.0
15807,64.0,0,30,11.0,0.0
15808,48.0,36,30,12.0,0.0
15809,64.0,2,60,10.0,0.0
15810,76.0,2,60,0.0,0.0
15811,76.0,2,60,1.0,0.0
15812,60.0,1,90,6.0,0.0
15813,72.0,0,90,6.0,0.0
15814,60.0,5,90,4.0,0.0
15815,64.0,0,30,11.0,0.0
15816,55.0,4,30,11.0,0.0
15817,70.0,9,60,2.0,0.0
15818,67.0,0,60,2.0,0.0
15819,55.0,19,30,12.0,0.0
15820,48.0,22,90,5.0,0.0
15821,43.0,2,60,13.0,0.0
15822,58.0,0,60,3.0,0.0
15823,55.0,1,60,3.0,0.0
15824,43.0,3,60,14.0,0.0
15825,55.0,0,30,11.0,0.0
15826,64.0,0,30,11.0,0.0
15827,55.0,8,30,12.0,0.0
15828,64.0,4,30,11.0,0.0
15829,55.0,0,30,11.0,0.0
15830,55.0,36,30,12.0,0.0
15831,58.0,2,60,10.0,0.0
15832,70.0,2,60,0.0,0.0
15833,60.0,1,90,6.0,0.0
15834,70.0,2,60,1.0,0.0
15835,72.0,0,90,6.0,0.0
15836,60.0,5,90,4.0,0.0
15837,55.0,0,30,11.0,0.0
15838,64.0,4,30,11.0,0.0
15839,67.0,9,60,2.0,0.0
15840,70.0,0,60,2.0,0.0
15841,58.0,19,30,12.0,0.0
15842,48.0,22,90,5.0,0.0
15843,46.0,2,60,13.0,0.0
15844,58.0,0,60,3.0,0.0
15845,55.0,0,60,3.0,0.0
15846,46.0,3,60,14.0,0.0
15847,55.0,0,30,11.0,0.0
15848,64.0,1,30,11.0,0.0
15849,58.0,8,30,12.0,0.0
15850,55.0,4,30,11.0,0.0
15851,64.0,0,30,11.0,0.0
15852,58.0,36,30,12.0,0.0
15853,70.0,2,60,10.0,0.0
15854,70.0,0,60,0.0,0.0
15855,82.0,2,60,0.0,0.0
15856,72.0,1,90,6.0,0.0
15857,82.0,2,60,1.0,0.0
15858,60.0,0,90,6.0,0.0
15859,70.0,0,60,1.0,0.0
15860,64.0,4,30,11.0,0.0
15861,55.0,0,30,11.0,0.0
15862,60.0,5,90,4.0,0.0
15863,67.0,0,60,2.0,0.0
15864,70.0,9,60,2.0,0.0
15865,60.0,19,30,12.0,0.0
15866,48.0,22,90,5.0,0.0
15867,48.0,2,60,13.0,0.0
15868,55.0,1,60,3.0,0.0
15869,58.0,0,60,3.0,0.0
15870,48.0,3,60,14.0,0.0
15871,55.0,0,30,11.0,0.0
15872,64.0,0,30,11.0,0.0
15873,60.0,8,30,12.0,0.0
15874,55.0,0,30,11.0,0.0
15875,64.0,4,30,11.0,0.0
15876,60.0,36,30,12.0,0.0
15877,67.0,2,60,10.0,0.0
15878,79.0,2,60,0.0,0.0
15879,67.0,0,60,0.0,0.0
15880,67.0,2,60,1.0,0.0
15881,72.0,1,90,6.0,0.0
15882,60.0,0,90,6.0,0.0
15883,79.0,0,60,1.0,0.0
15884,64.0,0,30,11.0,0.0
15885,55.0,4,30,11.0,0.0
15886,60.0,5,90,4.0,0.0
15887,67.0,0,60,2.0,0.0
15888,70.0,9,60,2.0,0.0
15889,48.0,19,30,12.0,0.0
15890,48.0,22,90,5.0,0.0
15891,36.0,2,60,13.0,0.0
15892,55.0,0,60,3.0,0.0
15893,58.0,0,60,3.0,0.0
15894,36.0,3,60,14.0,0.0
15895,55.0,1,30,11.0,0.0
15896,64.0,0,30,11.0,0.0
15897,48.0,8,30,12.0,0.0
15898,64.0,0,30,11.0,0.0
15899,55.0,4,30,11.0,0.0
15900,48.0,36,30,12.0,0.0
15901,64.0,2,60,10.0,0.0
15902,76.0,0,60,0.0,0.0
15903,64.0,2,60,0.0,0.0
15904,72.0,1,90,6.0,0.0
15905,60.0,0,90,6.0,0.0
15906,76.0,0,60,1.0,0.0
15907,64.0,2,60,1.0,0.0
15908,55.0,0,30,11.0,0.0
15909,64.0,4,30,11.0,0.0
15910,60.0,5,90,4.0,0.0
15911,70.0,9,60,2.0,0.0
15912,67.0,0,60,2.0,0.0
15913,55.0,19,30,12.0,0.0
15914,48.0,22,90,5.0,0.0
15915,43.0,2,60,13.0,0.0
15916,58.0,0,60,3.0,0.0
15917,55.0,0,60,3.0,0.0
15918,43.0,3,60,14.0,0.0
15919,64.0,0,30,11.0,0.0
15920,55.0,1,30,11.0,0.0
15921,55.0,8,30,12.0,0.0
15922,64.0,4,30,11.0,0.0
15923,55.0,0,30,11.0,0.0
15924,55.0,36,30,12.0,0.0
15925,76.0,2,60,10.0,0.0
15926,88.0,2,60,0.0,0.0
15927,76.0,0,60,0.0,0.0
15928,82.0,0,60,1.0,0.0
15929,79.0,2,60,1.0,0.0
15930,60.0,0,90,6.0,0.0
15931,72.0,1,90,6.0,0.0
15932,55.0,4,30,11.0,0.0
15933,60.0,5,90,4.0,0.0
15934,64.0,0,30,11.0,0.0
15935,67.0,9,60,2.0,0.0
15936,70.0,0,60,2.0,0.0
15937,58.0,19,30,12.0,0.0
15938,48.0,22,90,5.0,0.0
15939,46.0,2,60,13.0,0.0
15940,58.0,0,60,3.0,0.0
15941,55.0,0,60,3.0,0.0
15942,46.0,3,60,14.0,0.0
15943,55.0,0,30,11.0,0.0
15944,64.0,1,30,11.0,0.0
15945,58.0,8,30,12.0,0.0
15946,55.0,4,30,11.0,0.0
15947,64.0,0,30,11.0,0.0
15948,58.0,36,30,12.0,0.0
15949,70.0,2,60,10.0,0.0
15950,82.0,0,60,0.0,0.0
15951,70.0,2,60,0.0,0.0
15952,72.0,0,90,6.0,0.0
15953,82.0,0,60,1.0,0.0
15954,79.0,2,60,1.0,0.0
15955,60.0,1,90,6.0,0.0
15956,60.0,5,90,4.0,0.0
15957,64.0,4,30,11.0,0.0
15958,55.0,0,30,11.0,0.0
15959,70.0,0,60,2.0,0.0
15960,67.0,9,60,2.0,0.0
15961,60.0,19,30,12.0,0.0
15962,48.0,22,90,5.0,0.0
15963,48.0,2,60,13.0,0.0
15964,55.0,1,60,3.0,0.0
15965,58.0,0,60,3.0,0.0
15966,48.0,3,60,14.0,0.0
15967,55.0,0,30,11.0,0.0
15968,64.0,0,30,11.0,0.0
15969,60.0,8,30,12.0,0.0
15970,55.0,4,30,11.0,0.0
15971,64.0,0,30,11.0,0.0
15972,60.0,36,30,12.0,0.0
15973,67.0,2,60,10.0,0.0
15974,79.0,0,60,0.0,0.0
15975,67.0,2,60,0.0,0.0
15976,72.0,0,90,6.0,0.0
15977,82.0,2,60,1.0,0.0
15978,79.0,0,60,1.0,0.0
15979,60.0,1,90,6.0,0.0
15980,60.0,5,90,4.0,0.0
15981,55.0,0,30,11.0,0.0
15982,64.0,4,30,11.0,0.0
15983,67.0,9,60,2.0,0.0
15984,70.0,0,60,2.0,0.0
15985,48.0,19,30,12.0,0.0
15986,48.0,22,90,5.0,0.0
15987,36.0,2,60,13.0,0.0
15988,58.0,0,60,3.0,0.0
15989,55.0,0,60,3.0,0.0
15990,36.0,3,60,14.0,0.0
15991,64.0,0,30,11.0,0.0
15992,55.0,1,30,11.0,0.0
15993,48.0,8,30,12.0,0.0
15994,64.0,0,30,11.0,0.0
15995,55.0,4,30,11.0,0.0
15996,48.0,36,30,12.0,0.0
15997,82.0,2,60,10.0,0.0
15998,84.0,2,60,0.0,0.0
15999,91.0,0,60,0.0,0.0
16000,60.0,0,90,6.0,0.0
16001,72.0,1,90,6.0,0.0
16002,79.0,0,60,1.0,0.0
16003,82.0,2,60,1.0,0.0
16004,60.0,5,90,4.0,0.0
16005,55.0,0,30,11.0,0.0
16006,64.0,4,30,11.0,0.0
16007,67.0,0,60,2.0,0.0
16008,70.0,9,60,2.0,0.0
16009,55.0,19,30,12.0,0.0
16010,48.0,22,90,5.0,0.0
16011,43.0,2,60,13.0,0.0
16012,58.0,1,60,3.0,0.0
16013,55.0,0,60,3.0,0.0
16014,43.0,3,60,14.0,0.0
16015,64.0,0,30,11.0,0.0
16016,55.0,0,30,11.0,0.0
16017,55.0,8,30,12.0,0.0
16018,64.0,0,30,11.0,0.0
16019,55.0,4,30,11.0,0.0
16020,55.0,36,30,12.0,0.0
16021,79.0,2,60,10.0,0.0
16022,91.0,2,60,0.0,0.0
16023,84.0,0,60,0.0,0.0
16024,79.0,0,60,1.0,0.0
16025,82.0,2,60,1.0,0.0
16026,72.0,0,90,6.0,0.0
16027,60.0,1,90,6.0,0.0
16028,55.0,4,30,11.0,0.0
16029,64.0,0,30,11.0,0.0
16030,60.0,5,90,4.0,0.0
16031,70.0,9,60,2.0,0.0
16032,67.0,0,60,2.0,0.0
16033,58.0,19,30,12.0,0.0
16034,48.0,22,90,5.0,0.0
16035,46.0,2,60,13.0,0.0
16036,58.0,0,60,3.0,0.0
16037,55.0,0,60,3.0,0.0
16038,46.0,3,60,14.0,0.0
16039,55.0,0,30,11.0,0.0
16040,64.0,1,30,11.0,0.0
16041,58.0,8,30,12.0,0.0
16042,64.0,0,30,11.0,0.0
16043,55.0,4,30,11.0,0.0
16044,58.0,36,30,12.0,0.0
16045,76.0,2,60,10.0,0.0
16046,84.0,0,60,0.0,0.0
16047,88.0,2,60,0.0,0.0
16048,60.0,1,90,6.0,0.0
16049,82.0,2,60,1.0,0.0
16050,79.0,0,60,1.0,0.0
16051,72.0,0,90,6.0,0.0
16052,60.0,5,90,4.0,0.0
16053,55.0,0,30,11.0,0.0
16054,64.0,4,30,11.0,0.0
16055,67.0,9,60,2.0,0.0
16056,70.0,0,60,2.0,0.0
16057,60.0,19,30,12.0,0.0
16058,48.0,22,90,5.0,0.0
16059,48.0,2,60,13.0,0.0
16060,58.0,0,60,3.0,0.0
16061,55.0,0,60,3.0,0.0
16062,48.0,3,60,14.0,0.0
16063,55.0,1,30,11.0,0.0
16064,64.0,0,30,11.0,0.0
16065,60.0,8,30,12.0,0.0
16066,64.0,4,30,11.0,0.0
16067,55.0,0,30,11.0,0.0
16068,60.0,36,30,12.0,0.0
16069,84.0,2,60,10.0,0.0
16070,84.0,2,60,0.0,0.0
16071,76.0,0,60,1.0,0.0
16072,72.0,0,90,6.0,0.0
16073,60.0,1,90,6.0,0.0
16074,67.0,2,60,1.0,0.0
16075,64.0,0,30,11.0,0.0
16076,55.0,4,30,11.0,0.0
16077,60.0,5,90,4.0,0.0
16078,67.0,9,60,2.0,0.0
16079,64.0,0,60,2.0,0.0
16080,48.0,19,30,12.0,0.0
16081,48.0,22,90,5.0,0.0
16082,36.0,2,60,13.0,0.0
16083,52.0,0,60,3.0,0.0
16084,55.0,0,60,3.0,0.0
16085,36.0,3,60,14.0,0.0
16086,64.0,0,30,11.0,0.0
16087,55.0,1,30,11.0,0.0
16088,48.0,8,30,12.0,0.0
16089,64.0,4,30,11.0,0.0
16090,55.0,0,30,11.0,0.0
16091,48.0,31,30,12.0,0.0
16092,69.0,0,30,10.0,0.0
16093,77.0,40,30,10.0,0.0
16094,77.0,4,480,0.0,0.0
16095,69.0,0,120,1.0,0.0
16096,77.0,1,120,1.0,0.0
16097,60.0,0,960,6.0,0.0
16098,65.0,5,960,4.0,0.0
16099,57.0,4,120,11.0,0.0
16100,65.0,0,120,11.0,0.0
16101,65.0,11,480,2.0,0.0
16102,53.0,8,120,12.0,0.0
16103,57.0,2,960,5.0,0.0
16104,53.0,3,960,13.0,0.0
16105,53.0,2,120,3.0,0.0
16106,57.0,15,240,3.0,0.0
16107,41.0,13,120,15.0,0.0
16108,65.0,40,30,10.0,0.0
16109,69.0,0,30,10.0,0.0
16110,69.0,0,30,10.0,0.0
16111,65.0,12,30,10.0,0.0
16112,65.0,40,30,10.0,0.0
16113,69.0,0,30,10.0,0.0
16114,65.0,0,30,10.0,0.0
16115,69.0,40,30,10.0,0.0
16116,65.0,25,30,10.0,0.0
16117,69.0,0,30,10.0,0.0
16118,65.0,0,30,10.0,0.0
16119,69.0,40,30,10.0,0.0
16120,53.0,15,240,3.0,0.0
16121,65.0,0,30,10.0,0.0
16122,69.0,40,30,10.0,0.0
16123,65.0,40,30,10.0,0.0
16124,69.0,0,30,10.0,0.0
16125,69.0,0,30,10.0,0.0
16126,65.0,40,30,10.0,0.0
16127,65.0,0,30,10.0,0.0
16128,69.0,40,30,10.0,0.0
16129,69.0,10,30,10.0,0.0
16130,65.0,0,30,10.0,0.0
16131,69.0,40,30,10.0,0.0
16132,65.0,0,30,10.0,0.0
16133,84.0,4,360,0.0,0.0
16134,72.0,11,360,2.0,0.0
16135,60.0,15,360,3.0,0.0
16136,69.0,40,30,10.0,0.0
16137,65.0,0,30,10.0,0.0
16138,69.0,40,30,10.0,0.0
16139,65.0,0,30,10.0,0.0
16140,69.0,0,30,10.0,0.0
16141,65.0,40,30,10.0,0.0
16142,65.0,40,30,10.0,0.0
16143,69.0,0,30,10.0,0.0
16144,65.0,40,30,10.0,0.0
16145,69.0,0,30,10.0,0.0
16146,65.0,40,30,10.0,0.0
16147,69.0,0,30,10.0,0.0
16148,65.0,0,30,10.0,0.0
16149,69.0,40,30,10.0,0.0
16150,69.0,10,30,10.0,0.0
16151,65.0,0,30,10.0,0.0
16152,69.0,40,30,10.0,0.0
16153,65.0,0,30,10.0,0.0
16154,86.0,4,120,0.0,0.0
16155,74.0,3,120,2.0,0.0
16156,62.0,3,120,3.0,0.0
16157,69.0,40,30,10.0,0.0
16158,65.0,0,30,10.0,0.0
16159,65.0,5,30,10.0,0.0
16160,69.0,0,30,10.0,0.0
16161,70.0,40,30,10.0,0.0
16162,67.0,0,30,10.0,0.0
16163,86.0,4,120,0.0,0.0
16164,60.0,0,240,6.0,0.0
16165,72.0,1,15,6.0,0.0
16166,74.0,11,120,2.0,0.0
16167,60.0,2,240,5.0,0.0
16168,53.0,3,240,13.0,0.0
16169,62.0,15,120,3.0,0.0
16170,41.0,14,15,14.0,0.0
16171,67.0,40,30,10.0,0.0
16172,70.0,0,30,10.0,0.0
16173,67.0,0,30,10.0,0.0
16174,70.0,10,30,10.0,0.0
16175,70.0,40,30,10.0,0.0
16176,67.0,0,30,10.0,0.0
16177,79.0,4,120,0.0,0.0
16178,67.0,3,120,2.0,0.0
16179,55.0,20,120,3.0,0.0
16180,70.0,0,30,10.0,0.0
16181,67.0,40,30,10.0,0.0
16182,70.0,5,30,10.0,0.0
16183,67.0,0,30,10.0,0.0
16184,70.0,0,30,10.0,0.0
16185,67.0,40,30,10.0,0.0
16186,79.0,4,120,0.0,0.0
16187,72.0,1,15,6.0,0.0
16188,67.0,0,15,4.0,0.0
16189,67.0,11,120,2.0,0.0
16190,60.0,7,240,5.0,0.0
16191,53.0,1,240,13.0,0.0
16192,55.0,2,120,3.0,0.0
16193,41.0,2,240,14.0,0.0
16194,53.0,13,120,15.0,0.0
16195,70.0,40,30,10.0,0.0
16196,67.0,0,30,10.0,0.0
16197,67.0,10,30,10.0,0.0
16198,70.0,0,30,10.0,0.0
16199,67.0,0,30,10.0,0.0
16200,70.0,40,30,10.0,0.0
16201,81.0,2,120,0.0,0.0
16202,69.0,2,120,2.0,0.0
16203,57.0,15,120,3.0,0.0
16204,70.0,40,30,10.0,0.0
16205,67.0,0,30,10.0,0.0
16206,67.0,10,30,10.0,0.0
16207,70.0,0,30,10.0,0.0
16208,70.0,0,30,10.0,0.0
16209,67.0,40,30,10.0,0.0
16210,82.0,4,120,0.0,0.0
16211,60.0,0,15,6.0,0.0
16212,72.0,0,240,6.0,0.0
16213,67.0,0,15,4.0,0.0
16214,70.0,11,120,2.0,0.0
16215,53.0,0,240,13.0,0.0
16216,58.0,2,120,3.0,0.0
16217,41.0,2,240,14.0,0.0
16218,53.0,13,120,15.0,0.0
16219,67.0,40,30,10.0,0.0
16220,70.0,0,30,10.0,0.0
16221,67.0,10,30,10.0,0.0
16222,70.0,0,30,10.0,0.0
16223,67.0,0,30,10.0,0.0
16224,70.0,40,30,10.0,0.0
16225,67.0,40,30,10.0,0.0
16226,70.0,0,30,10.0,0.0
16227,70.0,12,30,10.0,0.0
16228,67.0,0,30,10.0,0.0
16229,70.0,40,30,10.0,0.0
16230,67.0,0,30,10.0,0.0
16231,84.0,4,120,0.0,0.0
16232,60.0,1,15,6.0,0.0
16233,67.0,3,240,4.0,0.0
16234,76.0,0,240,11.0,0.0
16235,72.0,11,120,2.0,0.0
16236,64.0,1,240,12.0,0.0
16237,60.0,22,15,5.0,0.0
16238,64.0,17,240,13.0,0.0
16239,60.0,2,120,3.0,0.0
16240,41.0,1,240,14.0,0.0
16241,53.0,13,120,15.0,0.0
16242,70.0,0,30,10.0,0.0
16243,67.0,40,30,10.0,0.0
16244,70.0,10,30,10.0,0.0
16245,67.0,0,30,10.0,0.0
16246,67.0,40,30,10.0,0.0
16247,70.0,0,30,10.0,0.0
16248,67.0,40,30,10.0,0.0
16249,70.0,0,30,10.0,0.0
16250,67.0,12,30,10.0,0.0
16251,70.0,0,30,10.0,0.0
16252,69.0,0,30,10.0,0.0
16253,65.0,40,30,10.0,0.0
16254,81.0,3,480,0.0,0.0
16255,60.0,0,15,6.0,0.0
16256,72.0,1,15,6.0,0.0
16257,77.0,4,360,11.0,0.0
16258,69.0,5,240,4.0,0.0
16259,69.0,3,480,2.0,0.0
16260,65.0,6,360,12.0,0.0
16261,65.0,22,240,5.0,0.0
16262,65.0,17,360,13.0,0.0
16263,57.0,15,480,3.0,0.0
16264,41.0,2,960,14.0,0.0
16265,65.0,0,30,10.0,0.0
16266,69.0,40,30,10.0,0.0
16267,65.0,40,30,10.0,0.0
16268,69.0,0,30,10.0,0.0
16269,65.0,40,30,10.0,0.0
16270,69.0,0,30,10.0,0.0
16271,65.0,0,30,10.0,0.0
16272,69.0,40,30,10.0,0.0
16273,65.0,0,30,10.0,0.0
16274,69.0,13,30,10.0,0.0
16275,69.0,0,30,10.0,0.0
16276,65.0,40,30,10.0,0.0
16277,65.0,1,720,4.0,0.0
16278,57.0,7,720,5.0,0.0
16279,65.0,0,30,10.0,0.0
16280,69.0,40,30,10.0,0.0
16281,69.0,0,30,10.0,0.0
16282,65.0,13,30,10.0,0.0
16283,65.0,33,30,10.0,0.0
16284,69.0,0,30,10.0,0.0
16285,79.0,4,60,11.0,0.0
16286,67.0,3,60,12.0,0.0
16287,67.0,37,60,13.0,0.0
16288,69.0,3,30,10.0,0.0
16289,65.0,0,30,10.0,0.0
16290,81.0,1,60,11.0,0.0
16291,69.0,6,60,12.0,0.0
16292,69.0,2,60,13.0,0.0
16293,65.0,10,30,10.0,0.0
16294,69.0,0,30,10.0,0.0
16295,65.0,0,30,10.0,0.0
16296,69.0,40,30,10.0,0.0
16297,84.0,3,120,0.0,0.0
16298,72.0,1,120,11.0,0.0
16299,72.0,3,120,2.0,0.0
16300,60.0,6,120,12.0,0.0
16301,60.0,2,120,13.0,0.0
16302,60.0,15,120,3.0,0.0
16303,69.0,40,30,10.0,0.0
16304,65.0,0,30,10.0,0.0
16305,69.0,10,30,10.0,0.0
16306,65.0,0,30,10.0,0.0
16307,69.0,0,30,10.0,0.0
16308,65.0,10,30,10.0,0.0
16309,86.0,4,40,0.0,0.0
16310,74.0,11,40,2.0,0.0
16311,62.0,15,40,3.0,0.0
16312,69.0,0,30,10.0,0.0
16313,65.0,10,30,10.0,0.0
16314,84.0,4,40,0.0,0.0
16315,72.0,11,40,2.0,0.0
16316,60.0,15,40,3.0,0.0
16317,65.0,10,30,10.0,0.0
16318,69.0,0,30,10.0,0.0
16319,83.0,4,40,0.0,0.0
16320,71.0,11,40,2.0,0.0
16321,59.0,15,40,3.0,0.0
16322,65.0,0,30,10.0,0.0
16323,69.0,40,30,10.0,0.0
16324,84.0,4,120,0.0,0.0
16325,72.0,11,120,2.0,0.0
16326,60.0,15,120,3.0,0.0
16327,69.0,40,30,10.0,0.0
16328,65.0,0,30,10.0,0.0
16329,69.0,0,30,10.0,0.0
16330,65.0,10,30,10.0,0.0
16331,65.0,0,30,10.0,0.0
16332,69.0,40,30,10.0,0.0
16333,85.0,2,120,0.0,0.0
16334,73.0,2,120,2.0,0.0
16335,61.0,15,120,3.0,0.0
16336,65.0,0,30,10.0,0.0
16337,69.0,40,30,10.0,0.0
16338,65.0,0,30,10.0,0.0
16339,69.0,10,30,10.0,0.0
16340,70.0,40,30,10.0,0.0
16341,67.0,0,30,10.0,0.0
16342,88.0,4,120,0.0,0.0
16343,72.0,1,15,6.0,0.0
16344,67.0,1,240,4.0,0.0
16345,76.0,11,120,2.0,0.0
16346,64.0,15,120,3.0,0.0
16347,41.0,2,240,14.0,0.0
16348,70.0,40,30,10.0,0.0
16349,67.0,0,30,10.0,0.0
16350,70.0,10,30,10.0,0.0
16351,67.0,0,30,10.0,0.0
16352,70.0,0,30,10.0,0.0
16353,67.0,40,30,10.0,0.0
16354,86.0,2,120,0.0,0.0
16355,74.0,2,120,2.0,0.0
16356,62.0,15,120,3.0,0.0
16357,70.0,40,30,10.0,0.0
16358,67.0,0,30,10.0,0.0
16359,70.0,10,30,10.0,0.0
16360,67.0,0,30,10.0,0.0
16361,67.0,0,30,10.0,0.0
16362,70.0,40,30,10.0,0.0
16363,79.0,4,120,0.0,0.0
16364,72.0,0,15,6.0,0.0
16365,60.0,1,15,6.0,0.0
16366,67.0,11,120,2.0,0.0
16367,60.0,7,15,5.0,0.0
16368,55.0,2,120,3.0,0.0
16369,41.0,2,240,14.0,0.0
16370,53.0,13,120,15.0,0.0
16371,67.0,40,30,10.0,0.0
16372,70.0,0,30,10.0,0.0
16373,70.0,0,30,10.0,0.0
16374,67.0,10,30,10.0,0.0
16375,67.0,0,30,10.0,0.0
16376,70.0,40,30,10.0,0.0
16377,81.0,2,120,0.0,0.0
16378,69.0,2,120,2.0,0.0
16379,57.0,15,120,3.0,0.0
16380,67.0,40,30,10.0,0.0
16381,70.0,0,30,10.0,0.0
16382,70.0,10,30,10.0,0.0
16383,67.0,0,30,10.0,0.0
16384,70.0,40,30,10.0,0.0
16385,67.0,0,30,10.0,0.0
16386,82.0,4,120,0.0,0.0
16387,72.0,1,15,6.0,0.0
16388,60.0,0,15,6.0,0.0
16389,67.0,1,15,4.0,0.0
16390,70.0,11,120,2.0,0.0
16391,58.0,2,120,3.0,0.0
16392,41.0,2,240,14.0,0.0
16393,53.0,13,120,15.0,0.0
16394,67.0,40,30,10.0,0.0
16395,70.0,0,30,10.0,0.0
16396,67.0,10,30,10.0,0.0
16397,70.0,0,30,10.0,0.0
16398,70.0,40,30,10.0,0.0
16399,67.0,0,30,10.0,0.0
16400,67.0,40,30,10.0,0.0
16401,70.0,0,30,10.0,0.0
16402,70.0,0,30,10.0,0.0
16403,67.0,12,30,10.0,0.0
16404,67.0,0,30,10.0,0.0
16405,70.0,40,30,10.0,0.0
16406,84.0,4,120,0.0,0.0
16407,60.0,1,240,6.0,0.0
16408,72.0,1,15,6.0,0.0
16409,67.0,3,15,4.0,0.0
16410,76.0,0,240,11.0,0.0
16411,72.0,11,120,2.0,0.0
16412,64.0,1,240,12.0,0.0
16413,60.0,22,15,5.0,0.0
16414,64.0,17,240,13.0,0.0
16415,60.0,2,120,3.0,0.0
16416,41.0,1,240,14.0,0.0
16417,53.0,13,120,15.0,0.0
16418,67.0,40,30,10.0,0.0
16419,70.0,0,30,10.0,0.0
16420,70.0,10,30,10.0,0.0
16421,67.0,0,30,10.0,0.0
16422,70.0,40,30,10.0,0.0
16423,67.0,0,30,10.0,0.0
16424,70.0,40,30,10.0,0.0
16425,67.0,0,30,10.0,0.0
16426,70.0,0,30,10.0,0.0
16427,67.0,12,30,10.0,0.0
16428,65.0,5,30,10.0,0.0
16429,69.0,0,30,10.0,0.0
16430,81.0,2,120,0.0,0.0
16431,60.0,1,120,6.0,0.0
16432,72.0,0,120,6.0,0.0
16433,65.0,1,120,4.0,0.0
16434,77.0,4,30,11.0,0.0
16435,69.0,4,120,2.0,0.0
16436,65.0,31,30,12.0,0.0
16437,57.0,7,120,5.0,0.0
16438,53.0,3,90,13.0,0.0
16439,57.0,2,120,3.0,0.0
16440,41.0,1,90,14.0,0.0
16441,53.0,13,120,15.0,0.0
16442,77.0,5,30,10.0,0.0
16443,69.0,4,30,11.0,0.0
16444,60.0,31,30,12.0,0.0
16445,77.0,5,30,10.0,0.0
16446,69.0,0,30,11.0,0.0
16447,60.0,1,30,12.0,0.0
16448,77.0,5,30,10.0,0.0
16449,69.0,4,30,11.0,0.0
16450,60.0,31,30,12.0,0.0
16451,65.0,3,90,13.0,0.0
16452,53.0,1,90,14.0,0.0
16453,77.0,5,30,10.0,0.0
16454,69.0,4,30,11.0,0.0
16455,60.0,31,30,12.0,0.0
16456,77.0,5,30,10.0,0.0
16457,69.0,0,30,11.0,0.0
16458,60.0,31,30,12.0,0.0
16459,77.0,5,30,10.0,0.0
16460,89.0,0,120,0.0,0.0
16461,84.0,2,120,0.0,0.0
16462,77.0,0,120,6.0,0.0
16463,65.0,0,120,6.0,0.0
16464,81.0,1,120,1.0,0.0
16465,77.0,0,120,1.0,0.0
16466,65.0,1,120,4.0,0.0
16467,69.0,4,30,11.0,0.0
16468,69.0,0,120,2.0,0.0
16469,77.0,4,120,2.0,0.0
16470,60.0,31,30,12.0,0.0
16471,57.0,7,120,5.0,0.0
16472,65.0,3,90,13.0,0.0
16473,65.0,0,120,3.0,0.0
16474,53.0,2,120,3.0,0.0
16475,53.0,1,90,14.0,0.0
16476,53.0,13,120,15.0,0.0
16477,77.0,5,30,10.0,0.0
16478,69.0,4,30,11.0,0.0
16479,60.0,31,30,12.0,0.0
16480,77.0,5,30,10.0,0.0
16481,69.0,0,30,11.0,0.0
16482,60.0,1,30,12.0,0.0
16483,77.0,5,30,10.0,0.0
16484,69.0,4,30,11.0,0.0
16485,60.0,31,30,12.0,0.0
16486,65.0,0,90,13.0,0.0
16487,53.0,1,90,14.0,0.0
16488,77.0,5,30,10.0,0.0
16489,69.0,4,30,11.0,0.0
16490,60.0,31,30,12.0,0.0
16491,77.0,5,30,10.0,0.0
16492,69.0,3,30,11.0,0.0
16493,60.0,31,30,12.0,0.0
16494,77.0,5,30,10.0,0.0
16495,69.0,4,30,11.0,0.0
16496,62.0,31,30,12.0,0.0
16497,50.0,3,90,13.0,0.0
16498,38.0,1,90,14.0,0.0
16499,77.0,5,30,10.0,0.0
16500,69.0,4,30,11.0,0.0
16501,62.0,31,30,12.0,0.0
16502,77.0,5,30,10.0,0.0
16503,69.0,0,30,11.0,0.0
16504,62.0,31,30,12.0,0.0
16505,77.0,5,30,10.0,0.0
16506,69.0,4,30,11.0,0.0
16507,62.0,31,30,12.0,0.0
16508,62.0,3,90,13.0,0.0
16509,50.0,1,90,14.0,0.0
16510,77.0,5,30,10.0,0.0
16511,69.0,4,30,11.0,0.0
16512,62.0,31,30,12.0,0.0
16513,77.0,5,30,10.0,0.0
16514,69.0,0,30,11.0,0.0
16515,62.0,31,30,12.0,0.0
16516,77.0,5,30,10.0,0.0
16517,89.0,2,120,0.0,0.0
16518,86.0,0,120,0.0,0.0
16519,81.0,1,120,1.0,0.0
16520,77.0,0,120,6.0,0.0
16521,65.0,0,120,6.0,0.0
16522,77.0,0,120,1.0,0.0
16523,65.0,1,120,4.0,0.0
16524,69.0,4,30,11.0,0.0
16525,77.0,0,120,2.0,0.0
16526,69.0,4,120,2.0,0.0
16527,62.0,31,30,12.0,0.0
16528,57.0,7,120,5.0,0.0
16529,62.0,0,90,13.0,0.0
16530,62.0,0,120,3.0,0.0
16531,50.0,2,120,3.0,0.0
16532,50.0,1,90,14.0,0.0
16533,53.0,13,120,15.0,0.0
16534,77.0,5,30,10.0,0.0
16535,69.0,4,30,11.0,0.0
16536,62.0,31,30,12.0,0.0
16537,77.0,5,30,10.0,0.0
16538,69.0,3,30,11.0,0.0
16539,62.0,1,30,12.0,0.0
16540,77.0,5,30,10.0,0.0
16541,69.0,4,30,11.0,0.0
16542,62.0,31,30,12.0,0.0
16543,62.0,3,90,13.0,0.0
16544,50.0,1,90,14.0,0.0
16545,77.0,5,30,10.0,0.0
16546,69.0,4,30,11.0,0.0
16547,62.0,31,30,12.0,0.0
16548,77.0,5,30,10.0,0.0
16549,69.0,0,30,11.0,0.0
16550,62.0,31,30,12.0,0.0
16551,77.0,5,30,10.0,0.0
16552,74.0,4,30,11.0,0.0
16553,62.0,0,30,12.0,0.0
16554,58.0,31,30,12.0,0.0
16555,46.0,0,90,13.0,0.0
16556,34.0,1,90,14.0,0.0
16557,77.0,5,30,10.0,0.0
16558,74.0,4,30,11.0,0.0
16559,58.0,31,30,12.0,0.0
16560,62.0,0,30,12.0,0.0
16561,77.0,5,30,10.0,0.0
16562,74.0,3,30,11.0,0.0
16563,62.0,0,30,12.0,0.0
16564,58.0,31,30,12.0,0.0
16565,77.0,5,30,10.0,0.0
16566,74.0,4,30,11.0,0.0
16567,58.0,0,30,12.0,0.0
16568,62.0,31,30,12.0,0.0
16569,58.0,0,90,13.0,0.0
16570,46.0,1,90,14.0,0.0
16571,77.0,5,30,10.0,0.0
16572,74.0,4,30,11.0,0.0
16573,62.0,0,30,12.0,0.0
16574,58.0,31,30,12.0,0.0
16575,77.0,5,30,10.0,0.0
16576,74.0,3,30,11.0,0.0
16577,58.0,31,30,12.0,0.0
16578,62.0,0,30,12.0,0.0
16579,77.0,5,30,10.0,0.0
16580,86.0,2,120,0.0,0.0
16581,89.0,0,120,0.0,0.0
16582,77.0,0,120,6.0,0.0
16583,65.0,0,120,6.0,0.0
16584,77.0,1,120,1.0,0.0
16585,79.0,0,120,1.0,0.0
16586,74.0,4,30,11.0,0.0
16587,67.0,1,120,4.0,0.0
16588,69.0,0,120,2.0,0.0
16589,77.0,4,120,2.0,0.0
16590,62.0,31,30,12.0,0.0
16591,58.0,0,30,12.0,0.0
16592,65.0,7,120,5.0,0.0
16593,58.0,0,90,13.0,0.0
16594,46.0,0,120,3.0,0.0
16595,58.0,2,120,3.0,0.0
16596,46.0,1,90,14.0,0.0
16597,53.0,13,120,15.0,0.0
16598,77.0,5,30,10.0,0.0
16599,74.0,4,30,11.0,0.0
16600,62.0,31,30,12.0,0.0
16601,58.0,0,30,12.0,0.0
16602,77.0,5,30,10.0,0.0
16603,74.0,3,30,11.0,0.0
16604,58.0,1,30,12.0,0.0
16605,62.0,0,30,12.0,0.0
16606,77.0,5,30,10.0,0.0
16607,74.0,4,30,11.0,0.0
16608,58.0,0,30,12.0,0.0
16609,62.0,31,30,12.0,0.0
16610,58.0,3,90,13.0,0.0
16611,46.0,1,90,14.0,0.0
16612,77.0,5,30,10.0,0.0
16613,74.0,4,30,11.0,0.0
16614,58.0,31,30,12.0,0.0
16615,62.0,0,30,12.0,0.0
16616,77.0,5,30,10.0,0.0
16617,74.0,0,30,11.0,0.0
16618,58.0,0,30,12.0,0.0
16619,62.0,31,30,12.0,0.0
16620,76.0,5,30,10.0,0.0
16621,67.0,4,30,11.0,0.0
16622,60.0,31,30,12.0,0.0
16623,48.0,0,90,13.0,0.0
16624,36.0,1,90,14.0,0.0
16625,76.0,5,30,10.0,0.0
16626,67.0,4,30,11.0,0.0
16627,60.0,31,30,12.0,0.0
16628,76.0,5,30,10.0,0.0
16629,67.0,3,30,11.0,0.0
16630,60.0,31,30,12.0,0.0
16631,76.0,5,30,10.0,0.0
16632,67.0,4,30,11.0,0.0
16633,60.0,31,30,12.0,0.0
16634,60.0,0,90,13.0,0.0
16635,48.0,1,90,14.0,0.0
16636,76.0,5,30,10.0,0.0
16637,67.0,4,30,11.0,0.0
16638,60.0,31,30,12.0,0.0
16639,76.0,5,30,10.0,0.0
16640,67.0,3,30,11.0,0.0
16641,60.0,31,30,12.0,0.0
16642,76.0,5,30,10.0,0.0
16643,84.0,0,120,0.0,0.0
16644,88.0,2,120,0.0,0.0
16645,76.0,0,120,1.0,0.0
16646,79.0,1,120,1.0,0.0
16647,72.0,0,120,6.0,0.0
16648,60.0,0,120,6.0,0.0
16649,67.0,4,30,11.0,0.0
16650,67.0,1,120,4.0,0.0
16651,76.0,0,120,2.0,0.0
16652,67.0,4,120,2.0,0.0
16653,60.0,31,30,12.0,0.0
16654,60.0,7,120,5.0,0.0
16655,60.0,3,90,13.0,0.0
16656,48.0,15,120,3.0,0.0
16657,60.0,0,120,3.0,0.0
16658,48.0,1,90,14.0,0.0
16659,76.0,5,30,10.0,0.0
16660,67.0,4,30,11.0,0.0
16661,60.0,31,30,12.0,0.0
16662,76.0,5,30,10.0,0.0
16663,67.0,0,30,11.0,0.0
16664,60.0,1,30,12.0,0.0
16665,76.0,5,30,10.0,0.0
16666,67.0,4,30,11.0,0.0
16667,60.0,31,30,12.0,0.0
16668,60.0,3,90,13.0,0.0
16669,48.0,1,90,14.0,0.0
16670,76.0,5,30,10.0,0.0
16671,67.0,4,30,11.0,0.0
16672,60.0,31,30,12.0,0.0
16673,76.0,5,30,10.0,0.0
16674,67.0,0,30,11.0,0.0
16675,60.0,84,30,12.0,0.0
16676,77.0,2,120,10.0,0.0
16677,84.0,2,120,0.0,0.0
16678,89.0,0,120,0.0,0.0
16679,77.0,0,120,1.0,0.0
16680,69.0,2,120,1.0,0.0
16681,65.0,4,240,4.0,0.0
16682,69.0,4,90,11.0,0.0
16683,77.0,0,120,2.0,0.0
16684,69.0,11,120,2.0,0.0
16685,53.0,75,240,5.0,0.0
16686,41.0,3,480,13.0,0.0
16687,57.0,0,120,3.0,0.0
16688,53.0,28,120,3.0,0.0
16689,29.0,67,480,14.0,0.0
16690,65.0,4,90,11.0,0.0
16691,53.0,31,15,12.0,0.0
16692,69.0,0,90,11.0,0.0
16693,57.0,1,90,12.0,0.0
16694,60.0,5,3600,4.0,0.0
16695,72.0,4,90,11.0,0.0
16696,60.0,76,90,12.0,0.0
16697,48.0,7,3600,5.0,0.0
16698,60.0,4,90,11.0,0.0
16699,48.0,71,90,12.0,0.0
16700,72.0,4,60,11.0,0.0
16701,60.0,11,60,12.0,0.0
16702,60.0,4,90,11.0,0.0
16703,48.0,76,90,12.0,0.0
16704,48.0,3,360,13.0,0.0
16705,36.0,27,360,14.0,0.0
16706,65.0,4,90,11.0,0.0
16707,53.0,76,90,12.0,0.0
16708,69.0,4,90,11.0,0.0
16709,57.0,76,90,12.0,0.0
16710,72.0,4,90,11.0,0.0
16711,60.0,46,90,12.0,0.0
16712,60.0,4,90,11.0,0.0
16713,48.0,71,90,12.0,0.0
16714,50.0,3,120,13.0,0.0
16715,72.0,4,60,11.0,0.0
16716,60.0,11,60,12.0,0.0
16717,82.0,6,360,10.0,0.0
16718,60.0,4,90,11.0,0.0
16719,70.0,0,360,2.0,0.0
16720,82.0,9,360,2.0,0.0
16721,48.0,46,90,12.0,0.0
16722,50.0,3,120,13.0,0.0
16723,38.0,67,15,14.0,0.0
16724,67.0,4,90,11.0,0.0
16725,55.0,76,90,12.0,0.0
16726,43.0,3,120,13.0,0.0
16727,31.0,67,120,14.0,0.0
16728,70.0,4,90,11.0,0.0
16729,58.0,6,90,12.0,0.0
16730,72.0,4,90,11.0,0.0
16731,60.0,31,90,12.0,0.0
16732,43.0,3,120,13.0,0.0
16733,31.0,27,120,14.0,0.0
16734,60.0,4,90,11.0,0.0
16735,48.0,71,90,12.0,0.0
16736,84.0,0,120,10.0,0.0
16737,81.0,9,120,2.0,0.0
16738,69.0,0,120,2.0,0.0
16739,45.0,3,120,13.0,0.0
16740,33.0,67,120,14.0,0.0
16741,72.0,4,60,11.0,0.0
16742,60.0,2,60,12.0,0.0
16743,86.0,6,120,10.0,0.0
16744,60.0,4,90,11.0,0.0
16745,67.0,9,120,2.0,0.0
16746,79.0,0,120,2.0,0.0
16747,48.0,31,90,12.0,0.0
16748,46.0,3,120,13.0,0.0
16749,34.0,27,120,14.0,0.0
16750,67.0,4,90,11.0,0.0
16751,55.0,71,90,12.0,0.0
16752,74.0,5,120,10.0,0.0
16753,70.0,4,90,11.0,0.0
16754,58.0,76,90,12.0,0.0
16755,67.0,6,120,10.0,0.0
16756,88.0,2,240,0.0,0.0
16757,76.0,0,240,1.0,0.0
16758,72.0,4,90,11.0,0.0
16759,72.0,9,120,2.0,0.0
16760,60.0,0,120,2.0,0.0
16761,60.0,31,90,12.0,0.0
16762,48.0,3,120,13.0,0.0
16763,64.0,68,240,3.0,0.0
16764,36.0,27,120,14.0,0.0
16765,60.0,4,90,11.0,0.0
16766,48.0,71,90,12.0,0.0
16767,76.0,0,120,10.0,0.0
16768,72.0,2,60,11.0,0.0
16769,60.0,13,60,12.0,0.0
16770,77.0,6,120,10.0,0.0
16771,89.0,2,360,0.0,0.0
16772,77.0,13,360,1.0,0.0
16773,60.0,4,90,11.0,0.0
16774,72.0,39,120,2.0,0.0
16775,60.0,0,120,2.0,0.0
16776,48.0,31,90,12.0,0.0
16777,45.0,2,480,13.0,0.0
16778,65.0,28,360,3.0,0.0
16779,33.0,67,480,14.0,0.0
16780,65.0,4,90,11.0,0.0
16781,53.0,71,90,12.0,0.0
16782,72.0,5,120,10.0,0.0
16783,69.0,4,90,11.0,0.0
16784,57.0,76,90,12.0,0.0
16785,69.0,2,120,10.0,0.0
16786,72.0,4,90,11.0,0.0
16787,60.0,31,90,12.0,0.0
16788,60.0,4,90,11.0,0.0
16789,48.0,13,90,12.0,0.0
16790,65.0,0,120,10.0,0.0
16791,91.0,2,60,0.0,0.0
16792,79.0,13,60,1.0,0.0
16793,67.0,43,60,3.0,0.0
16794,72.0,2,60,11.0,0.0
16795,60.0,0,60,12.0,0.0
16796,93.0,2,60,0.0,0.0
16797,81.0,11,60,1.0,0.0
16798,69.0,1,60,3.0,0.0
16799,60.0,2,120,10.0,0.0
16800,84.0,2,120,0.0,0.0
16801,72.0,11,120,1.0,0.0
16802,60.0,4,90,11.0,0.0
16803,48.0,31,90,12.0,0.0
16804,48.0,2,120,13.0,0.0
16805,60.0,1,120,3.0,0.0
16806,36.0,27,120,14.0,0.0
16807,65.0,4,90,11.0,0.0
16808,53.0,6,90,12.0,0.0
16809,50.0,3,40,13.0,0.0
16810,38.0,37,40,14.0,0.0
16811,69.0,4,90,11.0,0.0
16812,57.0,6,90,12.0,0.0
16813,48.0,3,40,13.0,0.0
16814,36.0,27,40,14.0,0.0
16815,47.0,3,40,13.0,0.0
16816,35.0,67,40,14.0,0.0
16817,72.0,4,90,11.0,0.0
16818,60.0,46,90,12.0,0.0
16819,48.0,3,120,13.0,0.0
16820,36.0,27,120,14.0,0.0
16821,60.0,4,90,11.0,0.0
16822,48.0,71,90,12.0,0.0
16823,49.0,3,120,13.0,0.0
16824,37.0,67,120,14.0,0.0
16825,72.0,4,60,11.0,0.0
16826,60.0,11,60,12.0,0.0
16827,82.0,15,120,10.0,0.0
16828,60.0,4,90,11.0,0.0
16829,82.0,0,360,2.0,0.0
16830,70.0,9,360,2.0,0.0
16831,48.0,31,90,12.0,0.0
16832,52.0,3,120,13.0,0.0
16833,40.0,22,120,14.0,0.0
16834,67.0,4,90,11.0,0.0
16835,55.0,31,90,12.0,0.0
16836,84.0,5,40,10.0,0.0
16837,50.0,3,120,13.0,0.0
16838,38.0,67,120,14.0,0.0
16839,82.0,40,40,10.0,0.0
16840,70.0,0,60,11.0,0.0
16841,58.0,11,60,12.0,0.0
16842,81.0,4,40,10.0,0.0
16843,82.0,6,120,10.0,0.0
16844,72.0,4,90,11.0,0.0
16845,60.0,31,90,12.0,0.0
16846,43.0,3,120,13.0,0.0
16847,31.0,27,120,14.0,0.0
16848,60.0,4,90,11.0,0.0
16849,48.0,71,90,12.0,0.0
16850,84.0,4,120,10.0,0.0
16851,81.0,9,120,2.0,0.0
16852,69.0,0,120,2.0,0.0
16853,45.0,3,120,13.0,0.0
16854,33.0,67,120,14.0,0.0
16855,72.0,0,60,11.0,0.0
16856,60.0,2,60,12.0,0.0
16857,86.0,6,120,10.0,0.0
16858,60.0,4,90,11.0,0.0
16859,67.0,0,120,2.0,0.0
16860,79.0,9,120,2.0,0.0
16861,48.0,31,90,12.0,0.0
16862,46.0,3,120,13.0,0.0
16863,34.0,27,120,14.0,0.0
16864,67.0,4,90,11.0,0.0
16865,55.0,71,90,12.0,0.0
16866,74.0,5,120,10.0,0.0
16867,70.0,4,90,11.0,0.0
16868,58.0,76,90,12.0,0.0
16869,67.0,6,120,10.0,0.0
16870,88.0,2,240,0.0,0.0
16871,76.0,0,240,1.0,0.0
16872,72.0,4,90,11.0,0.0
16873,72.0,9,120,2.0,0.0
16874,60.0,0,120,2.0,0.0
16875,60.0,31,90,12.0,0.0
16876,48.0,3,120,13.0,0.0
16877,64.0,15,240,3.0,0.0
16878,36.0,27,120,14.0,0.0
16879,60.0,4,90,11.0,0.0
16880,48.0,71,90,12.0,0.0
16881,76.0,2,120,10.0,0.0
16882,72.0,0,60,11.0,0.0
16883,60.0,1,60,12.0,0.0
16884,77.0,5,30,10.0,0.0
16885,89.0,2,120,0.0,0.0
16886,65.0,0,120,6.0,0.0
16887,77.0,1,120,6.0,0.0
16888,77.0,0,120,1.0,0.0
16889,72.0,4,30,11.0,0.0
16890,65.0,1,120,4.0,0.0
16891,60.0,4,120,2.0,0.0
16892,72.0,0,120,2.0,0.0
16893,48.0,31,30,12.0,0.0
16894,53.0,7,120,5.0,0.0
16895,45.0,0,90,13.0,0.0
16896,65.0,2,120,3.0,0.0
16897,33.0,1,90,14.0,0.0
16898,53.0,13,120,15.0,0.0
16899,77.0,5,30,10.0,0.0
16900,69.0,4,30,11.0,0.0
16901,65.0,0,30,11.0,0.0
16902,60.0,31,30,12.0,0.0
16903,77.0,5,30,10.0,0.0
16904,65.0,3,30,11.0,0.0
16905,69.0,0,30,11.0,0.0
16906,60.0,1,30,12.0,0.0
16907,77.0,5,30,10.0,0.0
16908,65.0,4,30,11.0,0.0
16909,69.0,0,30,11.0,0.0
16910,60.0,31,30,12.0,0.0
16911,57.0,0,90,13.0,0.0
16912,45.0,1,90,14.0,0.0
16913,77.0,5,30,10.0,0.0
16914,69.0,4,30,11.0,0.0
16915,65.0,0,30,11.0,0.0
16916,60.0,31,30,12.0,0.0
16917,77.0,5,30,10.0,0.0
16918,69.0,0,30,11.0,0.0
16919,65.0,3,30,11.0,0.0
16920,60.0,31,30,12.0,0.0
16921,77.0,5,30,10.0,0.0
16922,84.0,2,120,0.0,0.0
16923,89.0,0,120,0.0,0.0
16924,77.0,1,120,1.0,0.0
16925,81.0,0,120,1.0,0.0
16926,77.0,0,120,6.0,0.0
16927,65.0,0,120,6.0,0.0
16928,69.0,4,30,11.0,0.0
16929,65.0,0,30,11.0,0.0
16930,69.0,1,120,4.0,0.0
16931,69.0,0,120,2.0,0.0
16932,77.0,4,120,2.0,0.0
16933,60.0,31,30,12.0,0.0
16934,65.0,7,120,5.0,0.0
16935,57.0,0,90,13.0,0.0
16936,57.0,0,120,3.0,0.0
16937,45.0,2,120,3.0,0.0
16938,45.0,1,90,14.0,0.0
16939,53.0,13,120,15.0,0.0
16940,77.0,5,30,10.0,0.0
16941,65.0,4,30,11.0,0.0
16942,69.0,0,30,11.0,0.0
16943,60.0,31,30,12.0,0.0
16944,77.0,5,30,10.0,0.0
16945,69.0,0,30,11.0,0.0
16946,65.0,3,30,11.0,0.0
16947,60.0,1,30,12.0,0.0
16948,77.0,5,30,10.0,0.0
16949,65.0,4,30,11.0,0.0
16950,69.0,0,30,11.0,0.0
16951,60.0,31,30,12.0,0.0
16952,57.0,3,90,13.0,0.0
16953,45.0,1,90,14.0,0.0
16954,77.0,5,30,10.0,0.0
16955,65.0,0,30,11.0,0.0
16956,69.0,4,30,11.0,0.0
16957,60.0,31,30,12.0,0.0
16958,77.0,5,30,10.0,0.0
16959,65.0,0,30,11.0,0.0
16960,69.0,0,30,11.0,0.0
16961,60.0,31,30,12.0,0.0
16962,77.0,5,30,10.0,0.0
16963,69.0,4,30,11.0,0.0
16964,65.0,0,30,11.0,0.0
16965,50.0,31,30,12.0,0.0
16966,50.0,3,90,13.0,0.0
16967,38.0,1,90,14.0,0.0
16968,77.0,5,30,10.0,0.0
16969,69.0,0,30,11.0,0.0
16970,65.0,4,30,11.0,0.0
16971,62.0,31,30,12.0,0.0
16972,77.0,5,30,10.0,0.0
16973,65.0,0,30,11.0,0.0
16974,69.0,0,30,11.0,0.0
16975,62.0,31,30,12.0,0.0
16976,77.0,5,30,10.0,0.0
16977,65.0,4,30,11.0,0.0
16978,69.0,0,30,11.0,0.0
16979,62.0,31,30,12.0,0.0
16980,62.0,3,90,13.0,0.0
16981,50.0,1,90,14.0,0.0
16982,77.0,5,30,10.0,0.0
16983,65.0,4,30,11.0,0.0
16984,69.0,0,30,11.0,0.0
16985,62.0,31,30,12.0,0.0
16986,77.0,5,30,10.0,0.0
16987,65.0,0,30,11.0,0.0
16988,69.0,0,30,11.0,0.0
16989,62.0,31,30,12.0,0.0
16990,77.0,5,30,10.0,0.0
16991,86.0,0,120,0.0,0.0
16992,89.0,2,120,0.0,0.0
16993,77.0,0,120,1.0,0.0
16994,65.0,0,120,6.0,0.0
16995,77.0,0,120,6.0,0.0
16996,81.0,1,120,1.0,0.0
16997,65.0,4,30,11.0,0.0
16998,69.0,1,120,4.0,0.0
16999,69.0,0,30,11.0,0.0
17000,69.0,0,120,2.0,0.0
17001,77.0,4,120,2.0,0.0
17002,62.0,31,30,12.0,0.0
17003,65.0,7,120,5.0,0.0
17004,62.0,0,90,13.0,0.0
17005,50.0,2,120,3.0,0.0
17006,62.0,0,120,3.0,0.0
17007,50.0,1,90,14.0,0.0
17008,53.0,13,120,15.0,0.0
17009,77.0,5,30,10.0,0.0
17010,69.0,0,30,11.0,0.0
17011,65.0,4,30,11.0,0.0
17012,62.0,31,30,12.0,0.0
17013,77.0,5,30,10.0,0.0
17014,65.0,3,30,11.0,0.0
17015,69.0,0,30,11.0,0.0
17016,62.0,1,30,12.0,0.0
17017,77.0,5,30,10.0,0.0
17018,69.0,4,30,11.0,0.0
17019,65.0,0,30,11.0,0.0
17020,62.0,31,30,12.0,0.0
17021,62.0,3,90,13.0,0.0
17022,50.0,1,90,14.0,0.0
17023,77.0,5,30,10.0,0.0
17024,65.0,0,30,11.0,0.0
17025,69.0,4,30,11.0,0.0
17026,62.0,31,30,12.0,0.0
17027,77.0,5,30,10.0,0.0
17028,65.0,0,30,11.0,0.0
17029,69.0,0,30,11.0,0.0
17030,62.0,31,30,12.0,0.0
17031,77.0,5,30,10.0,0.0
17032,74.0,0,30,11.0,0.0
17033,67.0,4,30,11.0,0.0
17034,62.0,0,30,12.0,0.0
17035,58.0,31,30,12.0,0.0
17036,46.0,0,90,13.0,0.0
17037,34.0,1,90,14.0,0.0
17038,77.0,5,30,10.0,0.0
17039,74.0,4,30,11.0,0.0
17040,67.0,0,30,11.0,0.0
17041,58.0,0,30,12.0,0.0
17042,62.0,31,30,12.0,0.0
17043,77.0,5,30,10.0,0.0
17044,74.0,0,30,11.0,0.0
17045,67.0,3,30,11.0,0.0
17046,58.0,31,30,12.0,0.0
17047,62.0,0,30,12.0,0.0
17048,77.0,5,30,10.0,0.0
17049,67.0,4,30,11.0,0.0
17050,74.0,0,30,11.0,0.0
17051,58.0,0,30,12.0,0.0
17052,62.0,31,30,12.0,0.0
17053,58.0,0,90,13.0,0.0
17054,46.0,1,90,14.0,0.0
17055,77.0,5,30,10.0,0.0
17056,67.0,4,30,11.0,0.0
17057,74.0,0,30,11.0,0.0
17058,58.0,31,30,12.0,0.0
17059,62.0,0,30,12.0,0.0
17060,77.0,5,30,10.0,0.0
17061,74.0,0,30,11.0,0.0
17062,67.0,3,30,11.0,0.0
17063,58.0,31,30,12.0,0.0
17064,62.0,0,30,12.0,0.0
17065,77.0,5,30,10.0,0.0
17066,89.0,2,120,0.0,0.0
17067,86.0,0,120,0.0,0.0
17068,79.0,0,120,1.0,0.0
17069,77.0,0,120,1.0,0.0
17070,65.0,0,120,6.0,0.0
17071,77.0,1,120,6.0,0.0
17072,67.0,1,120,4.0,0.0
17073,74.0,4,30,11.0,0.0
17074,67.0,0,30,11.0,0.0
17075,77.0,0,120,2.0,0.0
17076,74.0,4,120,2.0,0.0
17077,58.0,0,30,12.0,0.0
17078,62.0,31,30,12.0,0.0
17079,65.0,7,120,5.0,0.0
17080,58.0,0,90,13.0,0.0
17081,46.0,0,120,3.0,0.0
17082,58.0,2,120,3.0,0.0
17083,46.0,1,90,14.0,0.0
17084,53.0,13,120,15.0,0.0
17085,77.0,5,30,10.0,0.0
17086,67.0,0,30,11.0,0.0
17087,74.0,4,30,11.0,0.0
17088,62.0,31,30,12.0,0.0
17089,58.0,0,30,12.0,0.0
17090,77.0,5,30,10.0,0.0
17091,74.0,3,30,11.0,0.0
17092,67.0,0,30,11.0,0.0
17093,62.0,0,30,12.0,0.0
17094,58.0,1,30,12.0,0.0
17095,77.0,5,30,10.0,0.0
17096,74.0,4,30,11.0,0.0
17097,67.0,0,30,11.0,0.0
17098,62.0,0,30,12.0,0.0
17099,58.0,31,30,12.0,0.0
17100,58.0,0,90,13.0,0.0
17101,46.0,1,90,14.0,0.0
17102,77.0,5,30,10.0,0.0
17103,74.0,0,30,11.0,0.0
17104,67.0,4,30,11.0,0.0
17105,58.0,31,30,12.0,0.0
17106,62.0,0,30,12.0,0.0
17107,77.0,5,30,10.0,0.0
17108,74.0,3,30,11.0,0.0
17109,67.0,0,30,11.0,0.0
17110,58.0,31,30,12.0,0.0
17111,62.0,0,30,12.0,0.0
17112,76.0,5,30,10.0,0.0
17113,67.0,4,30,11.0,0.0
17114,48.0,31,30,12.0,0.0
17115,48.0,0,90,13.0,0.0
17116,36.0,1,90,14.0,0.0
17117,76.0,5,30,10.0,0.0
17118,67.0,4,30,11.0,0.0
17119,60.0,31,30,12.0,0.0
17120,76.0,5,30,10.0,0.0
17121,67.0,3,30,11.0,0.0
17122,60.0,31,30,12.0,0.0
17123,76.0,5,30,10.0,0.0
17124,67.0,4,30,11.0,0.0
17125,60.0,31,30,12.0,0.0
17126,60.0,3,90,13.0,0.0
17127,48.0,1,90,14.0,0.0
17128,76.0,5,30,10.0,0.0
17129,67.0,4,30,11.0,0.0
17130,60.0,31,30,12.0,0.0
17131,76.0,5,30,10.0,0.0
17132,67.0,0,30,11.0,0.0
17133,60.0,31,30,12.0,0.0
17134,76.0,5,30,10.0,0.0
17135,84.0,2,120,0.0,0.0
17136,88.0,0,120,0.0,0.0
17137,60.0,0,120,6.0,0.0
17138,72.0,1,120,6.0,0.0
17139,79.0,0,120,1.0,0.0
17140,76.0,0,120,1.0,0.0
17141,67.0,1,120,4.0,0.0
17142,67.0,4,30,11.0,0.0
17143,76.0,4,120,2.0,0.0
17144,67.0,0,120,2.0,0.0
17145,60.0,31,30,12.0,0.0
17146,60.0,7,120,5.0,0.0
17147,60.0,0,90,13.0,0.0
17148,48.0,15,120,3.0,0.0
17149,60.0,0,120,3.0,0.0
17150,48.0,1,90,14.0,0.0
17151,76.0,5,30,10.0,0.0
17152,67.0,4,30,11.0,0.0
17153,60.0,31,30,12.0,0.0
17154,76.0,5,30,10.0,0.0
17155,67.0,3,30,11.0,0.0
17156,60.0,1,30,12.0,0.0
17157,76.0,5,30,10.0,0.0
17158,67.0,4,30,11.0,0.0
17159,60.0,31,30,12.0,0.0
17160,60.0,0,90,13.0,0.0
17161,48.0,1,90,14.0,0.0
17162,76.0,5,30,10.0,0.0
17163,67.0,4,30,11.0,0.0
17164,60.0,31,30,12.0,0.0
17165,76.0,5,30,10.0,0.0
17166,67.0,3,30,11.0,0.0
17167,60.0,31,30,12.0,0.0
17168,75.0,5,30,10.0,0.0
17169,87.0,13,960,0.0,0.0
17170,69.0,0,1920,1.0,0.0
17171,75.0,1,1800,6.0,0.0
17172,81.0,2,1920,1.0,0.0
17173,57.0,4,30,11.0,0.0
17174,69.0,0,30,11.0,0.0
17175,63.0,4,1800,4.0,0.0
17176,81.0,9,1920,2.0,0.0
17177,69.0,0,1920,2.0,0.0
17178,51.0,18,30,12.0,0.0
17179,63.0,5,1800,5.0,0.0
17180,53.0,3,120,13.0,0.0
17181,57.0,1,1920,3.0,0.0
17182,53.0,0,1920,3.0,0.0
17183,41.0,1,120,14.0,0.0
17184,41.0,13,40,15.0,0.0
17185,75.0,5,30,10.0,0.0
17186,57.0,0,30,11.0,0.0
17187,69.0,4,30,11.0,0.0
17188,51.0,18,30,12.0,0.0
17189,41.0,13,40,15.0,0.0
17190,75.0,5,30,10.0,0.0
17191,69.0,4,30,11.0,0.0
17192,57.0,0,30,11.0,0.0
17193,51.0,14,30,12.0,0.0
17194,75.0,5,30,10.0,0.0
17195,69.0,4,30,11.0,0.0
17196,57.0,0,30,11.0,0.0
17197,51.0,18,30,12.0,0.0
17198,41.0,13,15,15.0,0.0
17199,75.0,5,30,10.0,0.0
17200,69.0,0,30,11.0,0.0
17201,57.0,4,30,11.0,0.0
17202,51.0,18,30,12.0,0.0
17203,75.0,5,30,10.0,0.0
17204,69.0,0,30,11.0,0.0
17205,57.0,4,30,11.0,0.0
17206,51.0,14,30,12.0,0.0
17207,41.0,13,15,15.0,0.0
17208,75.0,5,30,10.0,0.0
17209,69.0,4,30,11.0,0.0
17210,57.0,0,30,11.0,0.0
17211,51.0,18,30,12.0,0.0
17212,41.0,3,15,13.0,0.0
17213,29.0,1,15,14.0,0.0
17214,41.0,13,15,15.0,0.0
17215,75.0,5,30,10.0,0.0
17216,69.0,0,30,11.0,0.0
17217,57.0,4,30,11.0,0.0
17218,51.0,18,30,12.0,0.0
17219,41.0,13,15,15.0,0.0
17220,75.0,5,30,10.0,0.0
17221,57.0,0,30,11.0,0.0
17222,69.0,4,30,11.0,0.0
17223,51.0,14,30,12.0,0.0
17224,75.0,5,30,10.0,0.0
17225,69.0,4,30,11.0,0.0
17226,57.0,0,30,11.0,0.0
17227,51.0,18,30,12.0,0.0
17228,41.0,3,15,13.0,0.0
17229,41.0,13,15,15.0,0.0
17230,75.0,5,30,10.0,0.0
17231,57.0,4,30,11.0,0.0
17232,69.0,0,30,11.0,0.0
17233,51.0,18,30,12.0,0.0
17234,41.0,13,40,15.0,0.0
17235,75.0,5,30,10.0,0.0
17236,57.0,4,30,11.0,0.0
17237,69.0,0,30,11.0,0.0
17238,51.0,14,30,12.0,0.0
17239,75.0,5,30,10.0,0.0
17240,57.0,4,30,11.0,0.0
17241,69.0,0,30,11.0,0.0
17242,51.0,18,30,12.0,0.0
17243,41.0,3,15,13.0,0.0
17244,29.0,1,15,14.0,0.0
17245,41.0,13,15,15.0,0.0
17246,75.0,5,30,10.0,0.0
17247,69.0,4,30,11.0,0.0
17248,57.0,0,30,11.0,0.0
17249,51.0,18,30,12.0,0.0
17250,41.0,13,15,15.0,0.0
17251,75.0,5,30,10.0,0.0
17252,57.0,4,30,11.0,0.0
17253,69.0,0,30,11.0,0.0
17254,51.0,14,30,12.0,0.0
17255,41.0,13,40,15.0,0.0
17256,75.0,5,30,10.0,0.0
17257,69.0,0,30,11.0,0.0
17258,57.0,4,30,11.0,0.0
17259,51.0,18,30,12.0,0.0
17260,41.0,3,15,13.0,0.0
17261,29.0,1,120,14.0,0.0
17262,75.0,5,30,10.0,0.0
17263,69.0,0,30,11.0,0.0
17264,57.0,4,30,11.0,0.0
17265,51.0,18,30,12.0,0.0
17266,41.0,13,15,15.0,0.0
17267,75.0,5,30,10.0,0.0
17268,57.0,4,30,11.0,0.0
17269,69.0,0,30,11.0,0.0
17270,51.0,14,30,12.0,0.0
17271,41.0,13,15,15.0,0.0
17272,75.0,5,30,10.0,0.0
17273,57.0,4,30,11.0,0.0
17274,69.0,0,30,11.0,0.0
17275,51.0,18,30,12.0,0.0
17276,41.0,3,15,13.0,0.0
17277,29.0,1,120,14.0,0.0
17278,75.0,5,30,10.0,0.0
17279,57.0,4,30,11.0,0.0
17280,69.0,0,30,11.0,0.0
17281,51.0,18,30,12.0,0.0
17282,41.0,13,15,15.0,0.0
17283,75.0,5,30,10.0,0.0
17284,57.0,4,30,11.0,0.0
17285,69.0,0,30,11.0,0.0
17286,51.0,14,30,12.0,0.0
17287,75.0,5,30,10.0,0.0
17288,57.0,0,30,11.0,0.0
17289,69.0,4,30,11.0,0.0
17290,51.0,18,30,12.0,0.0
17291,41.0,3,120,13.0,0.0
17292,41.0,13,15,15.0,0.0
17293,75.0,5,30,10.0,0.0
17294,69.0,0,30,11.0,0.0
17295,57.0,4,30,11.0,0.0
17296,51.0,18,30,12.0,0.0
17297,41.0,13,40,15.0,0.0
17298,75.0,5,30,10.0,0.0
17299,57.0,4,30,11.0,0.0
17300,69.0,0,30,11.0,0.0
17301,51.0,1,30,12.0,0.0
17302,41.0,18,40,15.0,0.0
17303,77.0,2,60,10.0,0.0
17304,89.0,7,60,0.0,0.0
17305,57.0,22,30,11.0,0.0
17306,69.0,0,30,11.0,0.0
17307,53.0,8,60,12.0,0.0
17308,29.0,1,15,14.0,0.0
17309,69.0,22,30,11.0,0.0
17310,57.0,0,30,11.0,0.0
17311,41.0,1,15,15.0,0.0
17312,78.0,2,60,10.0,0.0
17313,90.0,7,60,0.0,0.0
17314,54.0,6,60,12.0,0.0
17315,69.0,0,30,11.0,0.0
17316,57.0,3,30,11.0,0.0
17317,41.0,18,40,15.0,0.0
17318,75.0,2,60,10.0,0.0
17319,87.0,7,60,0.0,0.0
17320,57.0,0,30,11.0,0.0
17321,69.0,22,30,11.0,0.0
17322,51.0,8,60,12.0,0.0
17323,41.0,3,15,13.0,0.0
17324,29.0,1,15,14.0,0.0
17325,57.0,22,30,11.0,0.0
17326,69.0,0,30,11.0,0.0
17327,41.0,1,15,15.0,0.0
17328,57.0,0,30,11.0,0.0
17329,69.0,18,30,11.0,0.0
17330,41.0,18,15,15.0,0.0
17331,77.0,2,60,10.0,0.0
17332,89.0,7,60,0.0,0.0
17333,57.0,22,30,11.0,0.0
17334,69.0,0,30,11.0,0.0
17335,53.0,8,60,12.0,0.0
17336,41.0,3,15,13.0,0.0
17337,29.0,1,120,14.0,0.0
17338,41.0,18,15,15.0,0.0
17339,57.0,0,30,11.0,0.0
17340,69.0,22,30,11.0,0.0
17341,78.0,2,60,10.0,0.0
17342,90.0,7,60,0.0,0.0
17343,54.0,6,60,12.0,0.0
17344,69.0,3,30,11.0,0.0
17345,57.0,0,30,11.0,0.0
17346,41.0,18,15,15.0,0.0
17347,75.0,2,60,10.0,0.0
17348,87.0,7,60,0.0,0.0
17349,69.0,0,30,11.0,0.0
17350,57.0,22,30,11.0,0.0
17351,51.0,8,60,12.0,0.0
17352,41.0,3,120,13.0,0.0
17353,29.0,1,120,14.0,0.0
17354,57.0,22,30,11.0,0.0
17355,69.0,0,30,11.0,0.0
17356,41.0,1,15,15.0,0.0
17357,57.0,18,30,11.0,0.0
17358,69.0,0,30,11.0,0.0
17359,41.0,18,15,15.0,0.0
17360,77.0,2,60,10.0,0.0
17361,89.0,7,60,0.0,0.0
17362,57.0,0,30,11.0,0.0
17363,69.0,22,30,11.0,0.0
17364,53.0,8,60,12.0,0.0
17365,41.0,18,15,15.0,0.0
17366,57.0,0,30,11.0,0.0
17367,69.0,22,30,11.0,0.0
17368,41.0,1,15,15.0,0.0
17369,78.0,2,60,10.0,0.0
17370,90.0,7,60,0.0,0.0
17371,54.0,6,60,12.0,0.0
17372,57.0,3,30,11.0,0.0
17373,69.0,0,30,11.0,0.0
17374,41.0,18,15,15.0,0.0
17375,75.0,2,60,10.0,0.0
17376,87.0,7,60,0.0,0.0
17377,57.0,22,30,11.0,0.0
17378,69.0,0,30,11.0,0.0
17379,51.0,8,60,12.0,0.0
17380,41.0,3,15,13.0,0.0
17381,29.0,1,15,14.0,0.0
17382,41.0,18,15,15.0,0.0
17383,57.0,0,30,11.0,0.0
17384,69.0,22,30,11.0,0.0
17385,41.0,18,40,15.0,0.0
17386,69.0,0,30,11.0,0.0
17387,57.0,18,30,11.0,0.0
17388,41.0,18,40,15.0,0.0
17389,77.0,2,60,10.0,0.0
17390,89.0,7,60,0.0,0.0
17391,69.0,0,30,11.0,0.0
17392,57.0,23,30,11.0,0.0
17393,53.0,8,60,12.0,0.0
17394,41.0,3,15,13.0,0.0
17395,29.0,1,15,14.0,0.0
17396,53.0,18,120,15.0,0.0
17397,69.0,0,30,11.0,0.0
17398,57.0,40,30,11.0,0.0
17399,78.0,2,60,10.0,0.0
17400,90.0,2,60,0.0,0.0
17401,54.0,1,60,12.0,0.0
17402,57.0,3,30,11.0,0.0
17403,69.0,0,30,11.0,0.0
17404,75.0,2,60,10.0,0.0
17405,87.0,7,60,0.0,0.0
17406,57.0,23,30,11.0,0.0
17407,69.0,0,30,11.0,0.0
17408,51.0,8,60,12.0,0.0
17409,41.0,2,120,13.0,0.0
17410,29.0,1,15,14.0,0.0
17411,69.0,40,30,11.0,0.0
17412,57.0,0,30,11.0,0.0
17413,69.0,0,30,11.0,0.0
17414,57.0,7,30,11.0,0.0
17415,76.0,2,120,10.0,0.0
17416,88.0,2,120,0.0,0.0
17417,68.0,0,120,1.0,0.0
17418,80.0,1,120,1.0,0.0
17419,64.0,0,120,4.0,0.0
17420,56.0,1,120,11.0,0.0
17421,76.0,0,120,2.0,0.0
17422,64.0,3,120,2.0,0.0
17423,52.0,1,120,12.0,0.0
17424,64.0,5,120,5.0,0.0
17425,40.0,2,120,13.0,0.0
17426,52.0,1,120,3.0,0.0
17427,28.0,222,120,14.0,0.0
17428,76.0,2,120,10.0,0.0
17429,88.0,2,120,0.0,0.0
17430,76.0,0,120,1.0,0.0
17431,79.0,0,120,1.0,0.0
17432,79.0,1,120,6.0,0.0
17433,64.0,0,120,11.0,0.0
17434,55.0,1,120,11.0,0.0
17435,67.0,0,120,4.0,0.0
17436,67.0,3,120,2.0,0.0
17437,76.0,0,120,2.0,0.0
17438,55.0,1,120,12.0,0.0
17439,52.0,0,120,12.0,0.0
17440,67.0,5,120,5.0,0.0
17441,40.0,2,120,13.0,0.0
17442,52.0,1,120,3.0,0.0
17443,40.0,0,120,3.0,0.0
17444,40.0,222,120,14.0,0.0
17445,76.0,2,120,10.0,0.0
17446,88.0,2,120,0.0,0.0
17447,76.0,0,120,1.0,0.0
17448,79.0,0,120,1.0,0.0
17449,79.0,1,120,6.0,0.0
17450,72.0,0,120,6.0,0.0
17451,76.0,0,120,11.0,0.0
17452,64.0,1,120,11.0,0.0
17453,67.0,0,120,4.0,0.0
17454,55.0,0,120,11.0,0.0
17455,67.0,0,120,2.0,0.0
17456,76.0,3,120,2.0,0.0
17457,55.0,1,120,12.0,0.0
17458,48.0,0,120,12.0,0.0
17459,60.0,5,120,5.0,0.0
17460,36.0,2,120,13.0,0.0
17461,48.0,0,120,3.0,0.0
17462,36.0,1,120,3.0,0.0
17463,36.0,222,120,14.0,0.0
17464,82.0,2,120,10.0,0.0
17465,70.0,0,120,10.0,0.0
17466,88.0,2,120,0.0,0.0
17467,91.0,0,120,0.0,0.0
17468,79.0,0,120,1.0,0.0
17469,82.0,1,120,1.0,0.0
17470,72.0,0,120,6.0,0.0
17471,60.0,0,120,6.0,0.0
17472,70.0,0,120,11.0,0.0
17473,79.0,1,120,11.0,0.0
17474,67.0,0,120,4.0,0.0
17475,70.0,0,120,2.0,0.0
17476,67.0,3,120,2.0,0.0
17477,48.0,0,120,12.0,0.0
17478,60.0,1,120,12.0,0.0
17479,60.0,5,120,5.0,0.0
17480,36.0,2,120,13.0,0.0
17481,48.0,0,120,3.0,0.0
17482,36.0,1,120,3.0,0.0
17483,36.0,422,120,14.0,0.0
17484,69.0,5,60,4.0,0.0
17485,65.0,7,60,5.0,0.0
17486,53.0,68,60,3.0,0.0
17487,57.0,0,60,3.0,0.0
17488,69.0,5,60,4.0,0.0
17489,65.0,7,60,5.0,0.0
17490,53.0,0,60,3.0,0.0
17491,57.0,68,60,3.0,0.0
17492,69.0,5,60,4.0,0.0
17493,65.0,7,60,5.0,0.0
17494,53.0,73,60,3.0,0.0
17495,57.0,0,60,3.0,0.0
17496,69.0,5,90,4.0,0.0
17497,65.0,7,90,5.0,0.0
17498,53.0,68,90,3.0,0.0
17499,57.0,0,90,3.0,0.0
17500,70.0,5,90,4.0,0.0
17501,67.0,7,90,5.0,0.0
17502,58.0,0,90,3.0,0.0
17503,67.0,5,60,4.0,0.0
17504,60.0,7,60,5.0,0.0
17505,48.0,71,60,3.0,0.0
17506,55.0,48,15,3.0,0.0
17507,79.0,5,60,10.0,0.0
17508,72.0,1,90,0.0,0.0
17509,72.0,4,60,11.0,0.0
17510,60.0,5,60,12.0,0.0
17511,67.0,0,60,12.0,0.0
17512,55.0,0,60,13.0,0.0
17513,48.0,3,60,13.0,0.0
17514,36.0,62,60,14.0,0.0
17515,43.0,0,60,14.0,0.0
17516,79.0,5,60,10.0,0.0
17517,76.0,1,90,0.0,0.0
17518,72.0,4,60,11.0,0.0
17519,67.0,0,60,12.0,0.0
17520,60.0,5,60,12.0,0.0
17521,48.0,3,60,13.0,0.0
17522,55.0,0,60,13.0,0.0
17523,36.0,0,60,14.0,0.0
17524,43.0,62,60,14.0,0.0
17525,79.0,5,60,10.0,0.0
17526,79.0,1,90,0.0,0.0
17527,72.0,4,60,11.0,0.0
17528,60.0,0,60,12.0,0.0
17529,67.0,5,60,12.0,0.0
17530,55.0,3,60,13.0,0.0
17531,48.0,0,60,13.0,0.0
17532,43.0,114,60,14.0,0.0
17533,36.0,0,60,14.0,0.0
17534,79.0,2,120,10.0,0.0
17535,84.0,3,120,0.0,0.0
17536,72.0,4,120,11.0,0.0
17537,60.0,0,120,12.0,0.0
17538,67.0,6,120,12.0,0.0
17539,55.0,0,120,13.0,0.0
17540,48.0,3,120,13.0,0.0
17541,43.0,182,120,14.0,0.0
17542,36.0,0,120,14.0,0.0
17543,70.0,5,60,4.0,0.0
17544,67.0,7,60,5.0,0.0
17545,58.0,68,60,3.0,0.0
17546,55.0,0,60,3.0,0.0
17547,70.0,5,60,4.0,0.0
17548,67.0,7,60,5.0,0.0
17549,55.0,68,60,3.0,0.0
17550,58.0,0,60,3.0,0.0
17551,70.0,5,60,4.0,0.0
17552,67.0,7,60,5.0,0.0
17553,58.0,0,60,3.0,0.0
17554,55.0,73,60,3.0,0.0
17555,70.0,5,90,4.0,0.0
17556,67.0,7,90,5.0,0.0
17557,55.0,0,90,3.0,0.0
17558,58.0,68,90,3.0,0.0
17559,72.0,5,90,4.0,0.0
17560,69.0,7,90,5.0,0.0
17561,60.0,48,90,3.0,0.0
17562,69.0,5,60,4.0,0.0
17563,65.0,7,60,5.0,0.0
17564,53.0,0,60,3.0,0.0
17565,57.0,0,15,3.0,0.0
17566,81.0,5,60,10.0,0.0
17567,77.0,1,90,0.0,0.0
17568,77.0,4,60,11.0,0.0
17569,69.0,0,60,12.0,0.0
17570,65.0,5,60,12.0,0.0
17571,53.0,3,60,13.0,0.0
17572,57.0,0,60,13.0,0.0
17573,45.0,0,60,14.0,0.0
17574,41.0,62,60,14.0,0.0
17575,81.0,5,60,10.0,0.0
17576,81.0,1,90,0.0,0.0
17577,77.0,4,60,11.0,0.0
17578,69.0,0,60,12.0,0.0
17579,65.0,5,60,12.0,0.0
17580,53.0,3,60,13.0,0.0
17581,57.0,0,60,13.0,0.0
17582,45.0,62,60,14.0,0.0
17583,41.0,0,60,14.0,0.0
17584,81.0,5,60,10.0,0.0
17585,84.0,1,90,0.0,0.0
17586,77.0,4,60,11.0,0.0
17587,65.0,0,60,12.0,0.0
17588,69.0,5,60,12.0,0.0
17589,53.0,3,60,13.0,0.0
17590,57.0,0,60,13.0,0.0
17591,41.0,114,60,14.0,0.0
17592,45.0,0,60,14.0,0.0
17593,81.0,2,120,10.0,0.0
17594,89.0,3,120,0.0,0.0
17595,77.0,4,120,11.0,0.0
17596,65.0,0,120,12.0,0.0
17597,69.0,6,120,12.0,0.0
17598,57.0,3,120,13.0,0.0
17599,53.0,0,120,13.0,0.0
17600,41.0,134,120,14.0,0.0
17601,45.0,0,120,14.0,0.0
17602,81.0,5,30,10.0,0.0
17603,81.0,0,60,0.0,0.0
17604,77.0,0,60,0.0,0.0
17605,81.0,0,60,1.0,0.0
17606,60.0,0,240,6.0,0.0
17607,77.0,2,60,1.0,0.0
17608,77.0,4,30,11.0,0.0
17609,69.0,0,60,2.0,0.0
17610,65.0,11,60,2.0,0.0
17611,53.0,0,30,12.0,0.0
17612,57.0,31,30,12.0,0.0
17613,48.0,2,240,5.0,0.0
17614,48.0,3,240,13.0,0.0
17615,57.0,20,60,3.0,0.0
17616,53.0,0,60,3.0,0.0
17617,36.0,42,240,14.0,0.0
17618,81.0,5,30,10.0,0.0
17619,77.0,2,30,11.0,0.0
17620,57.0,0,30,12.0,0.0
17621,53.0,0,30,12.0,0.0
17622,81.0,5,30,10.0,0.0
17623,77.0,0,60,0.0,0.0
17624,81.0,0,60,0.0,0.0
17625,77.0,0,60,1.0,0.0
17626,81.0,2,60,1.0,0.0
17627,77.0,4,30,11.0,0.0
17628,69.0,0,60,2.0,0.0
17629,65.0,0,60,2.0,0.0
17630,53.0,31,30,12.0,0.0
17631,57.0,0,30,12.0,0.0
17632,57.0,20,60,3.0,0.0
17633,53.0,0,60,3.0,0.0
17634,81.0,5,30,10.0,0.0
17635,77.0,2,30,11.0,0.0
17636,53.0,0,30,12.0,0.0
17637,57.0,11,30,12.0,0.0
17638,81.0,5,30,10.0,0.0
17639,81.0,0,60,0.0,0.0
17640,77.0,2,60,0.0,0.0
17641,81.0,2,60,1.0,0.0
17642,77.0,0,60,1.0,0.0
17643,77.0,4,30,11.0,0.0
17644,69.0,0,60,2.0,0.0
17645,65.0,0,60,2.0,0.0
17646,53.0,0,30,12.0,0.0
17647,57.0,31,30,12.0,0.0
17648,57.0,0,60,3.0,0.0
17649,53.0,3,60,3.0,0.0
17650,81.0,5,30,10.0,0.0
17651,77.0,0,30,11.0,0.0
17652,53.0,3,30,12.0,0.0
17653,57.0,0,30,12.0,0.0
17654,81.0,2,60,10.0,0.0
17655,79.0,0,60,0.0,0.0
17656,82.0,2,60,0.0,0.0
17657,82.0,1,60,1.0,0.0
17658,60.0,0,240,6.0,0.0
17659,72.0,1,15,6.0,0.0
17660,79.0,0,60,1.0,0.0
17661,77.0,1,60,11.0,0.0
17662,60.0,5,15,4.0,0.0
17663,70.0,0,60,2.0,0.0
17664,67.0,3,60,2.0,0.0
17665,53.0,0,60,12.0,0.0
17666,57.0,8,60,12.0,0.0
17667,46.0,3,240,13.0,0.0
17668,58.0,43,60,3.0,0.0
17669,55.0,0,60,3.0,0.0
17670,34.0,14,240,14.0,0.0
17671,82.0,5,60,10.0,0.0
17672,79.0,4,60,11.0,0.0
17673,58.0,0,60,12.0,0.0
17674,79.0,2,60,10.0,0.0
17675,79.0,2,60,0.0,0.0
17676,72.0,0,60,0.0,0.0
17677,72.0,1,60,1.0,0.0
17678,79.0,0,60,1.0,0.0
17679,72.0,1,60,11.0,0.0
17680,67.0,0,60,2.0,0.0
17681,60.0,3,60,2.0,0.0
17682,55.0,51,15,12.0,0.0
17683,48.0,8,60,12.0,0.0
17684,55.0,0,60,3.0,0.0
17685,48.0,47,60,3.0,0.0
17686,82.0,5,30,10.0,0.0
17687,79.0,0,60,0.0,0.0
17688,82.0,2,60,0.0,0.0
17689,72.0,1,15,6.0,0.0
17690,82.0,0,60,1.0,0.0
17691,79.0,2,60,1.0,0.0
17692,79.0,4,30,11.0,0.0
17693,67.0,0,60,2.0,0.0
17694,70.0,6,60,2.0,0.0
17695,58.0,21,30,12.0,0.0
17696,55.0,0,30,12.0,0.0
17697,48.0,5,15,5.0,0.0
17698,46.0,3,240,13.0,0.0
17699,55.0,4,60,3.0,0.0
17700,58.0,0,60,3.0,0.0
17701,34.0,42,240,14.0,0.0
17702,82.0,5,30,10.0,0.0
17703,79.0,0,30,11.0,0.0
17704,55.0,0,30,12.0,0.0
17705,58.0,31,30,12.0,0.0
17706,82.0,5,30,10.0,0.0
17707,79.0,4,30,11.0,0.0
17708,55.0,31,30,12.0,0.0
17709,58.0,0,30,12.0,0.0
17710,82.0,5,30,10.0,0.0
17711,72.0,0,60,0.0,0.0
17712,79.0,2,60,0.0,0.0
17713,72.0,2,60,1.0,0.0
17714,79.0,0,60,1.0,0.0
17715,79.0,4,30,11.0,0.0
17716,60.0,0,60,2.0,0.0
17717,67.0,6,60,2.0,0.0
17718,58.0,21,30,12.0,0.0
17719,55.0,0,30,12.0,0.0
17720,55.0,0,60,3.0,0.0
17721,48.0,4,60,3.0,0.0
17722,82.0,5,30,10.0,0.0
17723,79.0,0,30,11.0,0.0
17724,58.0,31,30,12.0,0.0
17725,55.0,0,30,12.0,0.0
17726,82.0,5,30,10.0,0.0
17727,79.0,4,30,11.0,0.0
17728,58.0,3,30,12.0,0.0
17729,55.0,0,30,12.0,0.0
17730,82.0,2,60,10.0,0.0
17731,81.0,0,60,0.0,0.0
17732,84.0,2,60,0.0,0.0
17733,60.0,0,15,6.0,0.0
17734,84.0,0,60,1.0,0.0
17735,81.0,1,60,1.0,0.0
17736,79.0,1,60,11.0,0.0
17737,60.0,5,15,4.0,0.0
17738,72.0,3,60,2.0,0.0
17739,69.0,0,60,2.0,0.0
17740,58.0,8,60,12.0,0.0
17741,55.0,0,60,12.0,0.0
17742,45.0,3,240,13.0,0.0
17743,60.0,43,60,3.0,0.0
17744,57.0,0,60,3.0,0.0
17745,33.0,14,240,14.0,0.0
17746,53.0,41,120,15.0,0.0
17747,84.0,5,60,10.0,0.0
17748,81.0,4,60,11.0,0.0
17749,60.0,0,60,12.0,0.0
17750,57.0,10,60,12.0,0.0
17751,81.0,2,60,10.0,0.0
17752,81.0,0,60,0.0,0.0
17753,77.0,2,60,0.0,0.0
17754,77.0,0,60,1.0,0.0
17755,81.0,1,60,1.0,0.0
17756,77.0,1,60,11.0,0.0
17757,65.0,0,60,2.0,0.0
17758,69.0,3,60,2.0,0.0
17759,53.0,8,60,12.0,0.0
17760,57.0,0,60,12.0,0.0
17761,57.0,47,60,3.0,0.0
17762,53.0,0,60,3.0,0.0
17763,81.0,5,30,10.0,0.0
17764,81.0,2,60,0.0,0.0
17765,84.0,0,60,0.0,0.0
17766,84.0,2,60,1.0,0.0
17767,72.0,1,15,6.0,0.0
17768,60.0,0,15,6.0,0.0
17769,81.0,0,60,1.0,0.0
17770,60.0,5,240,4.0,0.0
17771,77.0,4,30,11.0,0.0
17772,72.0,6,60,2.0,0.0
17773,69.0,0,60,2.0,0.0
17774,53.0,0,30,12.0,0.0
17775,57.0,21,30,12.0,0.0
17776,48.0,5,15,5.0,0.0
17777,48.0,3,240,13.0,0.0
17778,60.0,0,60,3.0,0.0
17779,57.0,0,60,3.0,0.0
17780,36.0,42,240,14.0,0.0
17781,53.0,13,120,15.0,0.0
17782,81.0,5,30,10.0,0.0
17783,77.0,4,30,11.0,0.0
17784,53.0,31,30,12.0,0.0
17785,57.0,0,30,12.0,0.0
17786,81.0,5,30,10.0,0.0
17787,77.0,4,30,11.0,0.0
17788,57.0,18,30,12.0,0.0
17789,53.0,0,30,12.0,0.0
17790,81.0,5,30,10.0,0.0
17791,81.0,2,60,0.0,0.0
17792,77.0,0,60,0.0,0.0
17793,81.0,2,60,1.0,0.0
17794,77.0,0,60,1.0,0.0
17795,77.0,4,30,11.0,0.0
17796,65.0,0,60,2.0,0.0
17797,69.0,6,60,2.0,0.0
17798,53.0,21,30,12.0,0.0
17799,57.0,0,30,12.0,0.0
17800,57.0,0,60,3.0,0.0
17801,53.0,4,60,3.0,0.0
17802,81.0,5,30,10.0,0.0
17803,77.0,0,30,11.0,0.0
17804,53.0,31,30,12.0,0.0
17805,57.0,0,30,12.0,0.0
17806,81.0,5,30,10.0,0.0
17807,77.0,4,30,11.0,0.0
17808,53.0,0,30,12.0,0.0
17809,57.0,3,30,12.0,0.0
17810,81.0,2,60,10.0,0.0
17811,82.0,2,60,0.0,0.0
17812,79.0,0,60,0.0,0.0
17813,79.0,0,60,1.0,0.0
17814,82.0,1,60,1.0,0.0
17815,77.0,1,60,11.0,0.0
17816,70.0,3,60,2.0,0.0
17817,67.0,0,60,2.0,0.0
17818,53.0,8,60,12.0,0.0
17819,57.0,0,60,12.0,0.0
17820,48.0,5,15,5.0,0.0
17821,46.0,3,240,13.0,0.0
17822,58.0,43,60,3.0,0.0
17823,55.0,0,60,3.0,0.0
17824,82.0,5,60,10.0,0.0
17825,79.0,4,60,11.0,0.0
17826,58.0,51,60,12.0,0.0
17827,55.0,0,60,12.0,0.0
17828,79.0,2,60,10.0,0.0
17829,72.0,2,60,0.0,0.0
17830,79.0,0,60,0.0,0.0
17831,79.0,0,60,1.0,0.0
17832,72.0,1,60,1.0,0.0
17833,72.0,1,60,11.0,0.0
17834,67.0,3,60,2.0,0.0
17835,60.0,0,60,2.0,0.0
17836,48.0,0,60,12.0,0.0
17837,55.0,8,60,12.0,0.0
17838,55.0,0,60,3.0,0.0
17839,48.0,47,60,3.0,0.0
17840,81.0,2,60,10.0,0.0
17841,82.0,2,60,0.0,0.0
17842,79.0,0,60,0.0,0.0
17843,72.0,1,15,6.0,0.0
17844,79.0,1,60,1.0,0.0
17845,60.0,0,15,6.0,0.0
17846,82.0,0,60,1.0,0.0
17847,77.0,1,60,11.0,0.0
17848,60.0,5,15,4.0,0.0
17849,70.0,3,60,2.0,0.0
17850,67.0,0,60,2.0,0.0
17851,53.0,0,60,12.0,0.0
17852,57.0,8,60,12.0,0.0
17853,48.0,5,240,5.0,0.0
17854,46.0,3,240,13.0,0.0
17855,55.0,43,60,3.0,0.0
17856,58.0,0,60,3.0,0.0
17857,34.0,42,15,14.0,0.0
17858,82.0,5,60,10.0,0.0
17859,79.0,4,60,11.0,0.0
17860,58.0,51,60,12.0,0.0
17861,55.0,0,60,12.0,0.0
17862,79.0,2,60,10.0,0.0
17863,79.0,0,60,0.0,0.0
17864,72.0,2,60,0.0,0.0
17865,72.0,1,60,1.0,0.0
17866,79.0,0,60,1.0,0.0
17867,72.0,1,60,11.0,0.0
17868,67.0,3,60,2.0,0.0
17869,60.0,0,60,2.0,0.0
17870,48.0,0,60,12.0,0.0
17871,55.0,8,60,12.0,0.0
17872,48.0,0,60,3.0,0.0
17873,55.0,47,60,3.0,0.0
17874,82.0,2,60,10.0,0.0
17875,81.0,2,60,0.0,0.0
17876,84.0,0,60,0.0,0.0
17877,84.0,1,60,1.0,0.0
17878,72.0,0,15,6.0,0.0
17879,81.0,0,60,1.0,0.0
17880,79.0,1,60,11.0,0.0
17881,60.0,5,240,4.0,0.0
17882,69.0,3,60,2.0,0.0
17883,72.0,0,60,2.0,0.0
17884,55.0,8,60,12.0,0.0
17885,58.0,0,60,12.0,0.0
17886,48.0,5,240,5.0,0.0
17887,45.0,3,240,13.0,0.0
17888,57.0,43,60,3.0,0.0
17889,60.0,0,60,3.0,0.0
17890,33.0,14,240,14.0,0.0
17891,53.0,41,120,15.0,0.0
17892,84.0,5,60,10.0,0.0
17893,81.0,4,60,11.0,0.0
17894,60.0,10,60,12.0,0.0
17895,81.0,2,60,10.0,0.0
17896,77.0,0,60,0.0,0.0
17897,81.0,2,60,0.0,0.0
17898,81.0,0,60,1.0,0.0
17899,77.0,1,60,1.0,0.0
17900,77.0,1,60,11.0,0.0
17901,65.0,3,60,2.0,0.0
17902,69.0,0,60,2.0,0.0
17903,57.0,0,15,12.0,0.0
17904,53.0,0,60,12.0,0.0
17905,53.0,0,60,3.0,0.0
17906,57.0,47,60,3.0,0.0
17907,81.0,5,30,10.0,0.0
17908,81.0,0,60,0.0,0.0
17909,77.0,2,60,0.0,0.0
17910,81.0,0,60,1.0,0.0
17911,72.0,1,15,6.0,0.0
17912,60.0,0,15,6.0,0.0
17913,77.0,2,60,1.0,0.0
17914,77.0,4,30,11.0,0.0
17915,65.0,0,60,2.0,0.0
17916,69.0,0,60,2.0,0.0
17917,53.0,0,30,12.0,0.0
17918,57.0,31,30,12.0,0.0
17919,48.0,2,240,5.0,0.0
17920,48.0,3,240,13.0,0.0
17921,53.0,20,60,3.0,0.0
17922,57.0,0,60,3.0,0.0
17923,36.0,42,240,14.0,0.0
17924,53.0,13,120,15.0,0.0
17925,81.0,5,30,10.0,0.0
17926,77.0,0,30,11.0,0.0
17927,53.0,11,30,12.0,0.0
17928,57.0,0,30,12.0,0.0
17929,81.0,5,30,10.0,0.0
17930,81.0,0,60,0.0,0.0
17931,77.0,0,60,0.0,0.0
17932,81.0,2,60,1.0,0.0
17933,77.0,0,60,1.0,0.0
17934,77.0,4,30,11.0,0.0
17935,69.0,0,60,2.0,0.0
17936,65.0,0,60,2.0,0.0
17937,57.0,0,30,12.0,0.0
17938,53.0,18,30,12.0,0.0
17939,53.0,20,60,3.0,0.0
17940,57.0,0,60,3.0,0.0
17941,81.0,5,30,10.0,0.0
17942,77.0,2,30,11.0,0.0
17943,57.0,11,30,12.0,0.0
17944,53.0,0,30,12.0,0.0
17945,81.0,5,30,10.0,0.0
17946,81.0,0,60,0.0,0.0
17947,77.0,0,60,0.0,0.0
17948,81.0,0,60,1.0,0.0
17949,77.0,2,60,1.0,0.0
17950,77.0,4,30,11.0,0.0
17951,65.0,3,60,2.0,0.0
17952,69.0,0,60,2.0,0.0
17953,53.0,0,30,12.0,0.0
17954,57.0,31,30,12.0,0.0
17955,53.0,3,60,3.0,0.0
17956,57.0,0,60,3.0,0.0
17957,81.0,5,30,10.0,0.0
17958,77.0,2,30,11.0,0.0
17959,53.0,0,30,12.0,0.0
17960,57.0,0,30,12.0,0.0
17961,81.0,2,60,10.0,0.0
17962,79.0,0,60,0.0,0.0
17963,82.0,2,60,0.0,0.0
17964,72.0,1,15,6.0,0.0
17965,60.0,0,15,6.0,0.0
17966,79.0,0,60,1.0,0.0
17967,82.0,1,60,1.0,0.0
17968,60.0,5,15,4.0,0.0
17969,77.0,1,60,11.0,0.0
17970,70.0,0,60,2.0,0.0
17971,67.0,3,60,2.0,0.0
17972,57.0,8,60,12.0,0.0
17973,53.0,0,60,12.0,0.0
17974,48.0,5,240,5.0,0.0
17975,55.0,0,60,3.0,0.0
17976,58.0,43,60,3.0,0.0
17977,34.0,42,240,14.0,0.0
17978,82.0,5,60,10.0,0.0
17979,79.0,4,60,11.0,0.0
17980,58.0,51,60,12.0,0.0
17981,79.0,2,60,10.0,0.0
17982,72.0,0,60,0.0,0.0
17983,79.0,2,60,0.0,0.0
17984,79.0,1,60,1.0,0.0
17985,72.0,0,60,1.0,0.0
17986,72.0,1,60,11.0,0.0
17987,60.0,0,60,2.0,0.0
17988,67.0,3,60,2.0,0.0
17989,55.0,0,15,12.0,0.0
17990,48.0,0,60,12.0,0.0
17991,48.0,47,60,3.0,0.0
17992,55.0,0,60,3.0,0.0
17993,81.0,2,60,10.0,0.0
17994,79.0,0,60,0.0,0.0
17995,82.0,2,60,0.0,0.0
17996,72.0,0,15,6.0,0.0
17997,60.0,1,240,6.0,0.0
17998,82.0,0,60,1.0,0.0
17999,79.0,1,60,1.0,0.0
18000,60.0,5,240,4.0,0.0
18001,77.0,1,60,11.0,0.0
18002,67.0,0,60,2.0,0.0
18003,70.0,3,60,2.0,0.0
18004,53.0,0,60,12.0,0.0
18005,57.0,8,60,12.0,0.0
18006,48.0,5,240,5.0,0.0
18007,46.0,3,15,13.0,0.0
18008,58.0,43,60,3.0,0.0
18009,55.0,0,60,3.0,0.0
18010,34.0,42,240,14.0,0.0
18011,82.0,5,60,10.0,0.0
18012,79.0,4,60,11.0,0.0
18013,55.0,51,60,12.0,0.0
18014,58.0,0,60,12.0,0.0
18015,79.0,2,60,10.0,0.0
18016,79.0,0,60,0.0,0.0
18017,72.0,2,60,0.0,0.0
18018,79.0,0,60,1.0,0.0
18019,72.0,1,60,1.0,0.0
18020,72.0,1,60,11.0,0.0
18021,60.0,0,60,2.0,0.0
18022,67.0,3,60,2.0,0.0
18023,48.0,8,60,12.0,0.0
18024,55.0,0,60,12.0,0.0
18025,48.0,47,60,3.0,0.0
18026,55.0,0,60,3.0,0.0
18027,82.0,2,60,10.0,0.0
18028,84.0,0,60,0.0,0.0
18029,81.0,2,60,0.0,0.0
18030,81.0,1,60,1.0,0.0
18031,84.0,0,60,1.0,0.0
18032,60.0,1,240,6.0,0.0
18033,72.0,0,240,6.0,0.0
18034,60.0,5,240,4.0,0.0
18035,79.0,1,60,11.0,0.0
18036,72.0,3,60,2.0,0.0
18037,69.0,0,60,2.0,0.0
18038,58.0,0,60,12.0,0.0
18039,55.0,8,60,12.0,0.0
18040,48.0,5,240,5.0,0.0
18041,45.0,3,240,13.0,0.0
18042,57.0,0,60,3.0,0.0
18043,60.0,43,60,3.0,0.0
18044,33.0,42,240,14.0,0.0
18045,53.0,41,120,15.0,0.0
18046,84.0,5,60,10.0,0.0
18047,81.0,4,60,11.0,0.0
18048,60.0,10,60,12.0,0.0
18049,81.0,2,60,10.0,0.0
18050,77.0,2,60,0.0,0.0
18051,81.0,0,60,0.0,0.0
18052,77.0,0,60,1.0,0.0
18053,81.0,1,60,1.0,0.0
18054,77.0,1,60,11.0,0.0
18055,65.0,3,60,2.0,0.0
18056,69.0,0,60,2.0,0.0
18057,57.0,0,15,12.0,0.0
18058,53.0,0,60,12.0,0.0
18059,57.0,47,60,3.0,0.0
18060,53.0,0,60,3.0,0.0
18061,82.0,2,60,10.0,0.0
18062,81.0,2,60,0.0,0.0
18063,84.0,0,60,0.0,0.0
18064,72.0,0,240,6.0,0.0
18065,81.0,0,60,1.0,0.0
18066,84.0,1,60,1.0,0.0
18067,79.0,1,60,11.0,0.0
18068,69.0,0,60,2.0,0.0
18069,72.0,3,60,2.0,0.0
18070,58.0,0,60,12.0,0.0
18071,55.0,8,60,12.0,0.0
18072,41.0,3,240,13.0,0.0
18073,60.0,43,60,3.0,0.0
18074,57.0,0,60,3.0,0.0
18075,29.0,14,240,14.0,0.0
18076,53.0,41,120,15.0,0.0
18077,84.0,5,60,10.0,0.0
18078,81.0,4,60,11.0,0.0
18079,57.0,10,60,12.0,0.0
18080,60.0,0,60,12.0,0.0
18081,81.0,2,60,10.0,0.0
18082,77.0,2,60,0.0,0.0
18083,81.0,0,60,0.0,0.0
18084,81.0,0,60,1.0,0.0
18085,77.0,1,60,1.0,0.0
18086,77.0,1,60,11.0,0.0
18087,65.0,3,60,2.0,0.0
18088,69.0,0,60,2.0,0.0
18089,53.0,8,60,12.0,0.0
18090,57.0,0,60,12.0,0.0
18091,57.0,47,60,3.0,0.0
18092,53.0,0,60,3.0,0.0
18093,82.0,5,30,10.0,0.0
18094,82.0,0,60,0.0,0.0
18095,79.0,2,60,0.0,0.0
18096,60.0,1,15,6.0,0.0
18097,79.0,2,60,1.0,0.0
18098,82.0,0,60,1.0,0.0
18099,60.0,5,15,4.0,0.0
18100,79.0,4,30,11.0,0.0
18101,70.0,6,60,2.0,0.0
18102,67.0,0,60,2.0,0.0
18103,55.0,0,30,12.0,0.0
18104,58.0,21,30,12.0,0.0
18105,48.0,5,15,5.0,0.0
18106,48.0,3,240,13.0,0.0
18107,55.0,4,60,3.0,0.0
18108,58.0,0,60,3.0,0.0
18109,36.0,14,240,14.0,0.0
18110,82.0,5,30,10.0,0.0
18111,79.0,0,30,11.0,0.0
18112,55.0,0,30,12.0,0.0
18113,58.0,31,30,12.0,0.0
18114,82.0,5,30,10.0,0.0
18115,79.0,4,30,11.0,0.0
18116,58.0,31,30,12.0,0.0
18117,55.0,0,30,12.0,0.0
18118,84.0,5,30,10.0,0.0
18119,84.0,0,60,0.0,0.0
18120,81.0,2,60,0.0,0.0
18121,72.0,2,60,1.0,0.0
18122,81.0,0,60,1.0,0.0
18123,81.0,4,30,11.0,0.0
18124,69.0,6,60,2.0,0.0
18125,72.0,0,60,2.0,0.0
18126,57.0,0,30,12.0,0.0
18127,60.0,21,30,12.0,0.0
18128,53.0,0,60,3.0,0.0
18129,57.0,0,60,3.0,0.0
18130,84.0,5,30,10.0,0.0
18131,81.0,4,30,11.0,0.0
18132,57.0,0,30,12.0,0.0
18133,60.0,31,30,12.0,0.0
18134,84.0,5,30,10.0,0.0
18135,81.0,4,30,11.0,0.0
18136,57.0,3,30,12.0,0.0
18137,60.0,0,30,12.0,0.0
18138,86.0,5,30,10.0,0.0
18139,86.0,2,60,0.0,0.0
18140,82.0,0,60,0.0,0.0
18141,74.0,0,60,1.0,0.0
18142,82.0,2,60,1.0,0.0
18143,72.0,0,15,6.0,0.0
18144,60.0,1,240,6.0,0.0
18145,82.0,4,30,11.0,0.0
18146,60.0,5,15,4.0,0.0
18147,74.0,0,60,2.0,0.0
18148,70.0,6,60,2.0,0.0
18149,62.0,21,30,12.0,0.0
18150,58.0,0,30,12.0,0.0
18151,48.0,5,240,5.0,0.0
18152,36.0,3,240,13.0,0.0
18153,55.0,0,60,3.0,0.0
18154,48.0,0,60,3.0,0.0
18155,36.0,14,240,14.0,0.0
18156,86.0,5,30,10.0,0.0
18157,82.0,4,30,11.0,0.0
18158,58.0,0,30,12.0,0.0
18159,62.0,31,30,12.0,0.0
18160,86.0,5,30,10.0,0.0
18161,82.0,4,30,11.0,0.0
18162,58.0,31,30,12.0,0.0
18163,62.0,0,30,12.0,0.0
18164,88.0,5,30,10.0,0.0
18165,88.0,2,60,0.0,0.0
18166,79.0,0,60,0.0,0.0
18167,79.0,2,60,1.0,0.0
18168,76.0,0,60,1.0,0.0
18169,79.0,4,30,11.0,0.0
18170,76.0,0,60,2.0,0.0
18171,67.0,6,60,2.0,0.0
18172,55.0,0,30,12.0,0.0
18173,64.0,21,30,12.0,0.0
18174,60.0,0,60,3.0,0.0
18175,48.0,0,60,3.0,0.0
18176,88.0,5,30,10.0,0.0
18177,79.0,4,30,11.0,0.0
18178,55.0,0,30,12.0,0.0
18179,64.0,31,30,12.0,0.0
18180,88.0,5,30,10.0,0.0
18181,79.0,4,30,11.0,0.0
18182,64.0,0,30,12.0,0.0
18183,55.0,3,30,12.0,0.0
18184,89.0,5,30,10.0,0.0
18185,89.0,2,480,0.0,0.0
18186,65.0,0,480,6.0,0.0
18187,69.0,0,480,1.0,0.0
18188,77.0,1,480,6.0,0.0
18189,65.0,1,480,4.0,0.0
18190,69.0,0,30,11.0,0.0
18191,77.0,4,30,11.0,0.0
18192,77.0,0,480,2.0,0.0
18193,57.0,0,30,12.0,0.0
18194,65.0,31,30,12.0,0.0
18195,57.0,5,480,5.0,0.0
18196,41.0,2,480,13.0,0.0
18197,41.0,1,480,3.0,0.0
18198,29.0,14,480,14.0,0.0
18199,41.0,13,120,15.0,0.0
18200,89.0,5,30,10.0,0.0
18201,69.0,0,30,11.0,0.0
18202,77.0,4,30,11.0,0.0
18203,57.0,0,30,12.0,0.0
18204,65.0,31,30,12.0,0.0
18205,89.0,5,30,10.0,0.0
18206,69.0,4,30,11.0,0.0
18207,77.0,0,30,11.0,0.0
18208,65.0,0,30,12.0,0.0
18209,57.0,18,30,12.0,0.0
18210,89.0,5,30,10.0,0.0
18211,77.0,0,30,11.0,0.0
18212,69.0,4,30,11.0,0.0
18213,65.0,0,30,12.0,0.0
18214,57.0,31,30,12.0,0.0
18215,89.0,5,30,10.0,0.0
18216,77.0,4,30,11.0,0.0
18217,69.0,0,30,11.0,0.0
18218,65.0,31,30,12.0,0.0
18219,57.0,0,30,12.0,0.0
18220,89.0,5,30,10.0,0.0
18221,69.0,4,30,11.0,0.0
18222,77.0,0,30,11.0,0.0
18223,65.0,0,30,12.0,0.0
18224,57.0,31,30,12.0,0.0
18225,89.0,5,30,10.0,0.0
18226,69.0,4,30,11.0,0.0
18227,77.0,0,30,11.0,0.0
18228,65.0,0,30,12.0,0.0
18229,57.0,31,30,12.0,0.0
18230,89.0,5,30,10.0,0.0
18231,77.0,0,30,11.0,0.0
18232,69.0,4,30,11.0,0.0
18233,65.0,31,30,12.0,0.0
18234,57.0,0,30,12.0,0.0
18235,89.0,5,30,10.0,0.0
18236,77.0,0,30,11.0,0.0
18237,69.0,4,30,11.0,0.0
18238,57.0,31,30,12.0,0.0
18239,65.0,0,30,12.0,0.0
18240,89.0,5,30,10.0,0.0
18241,69.0,4,30,11.0,0.0
18242,77.0,0,30,11.0,0.0
18243,57.0,0,30,12.0,0.0
18244,65.0,31,30,12.0,0.0
18245,89.0,5,30,10.0,0.0
18246,69.0,0,30,11.0,0.0
18247,77.0,4,30,11.0,0.0
18248,57.0,0,30,12.0,0.0
18249,65.0,31,30,12.0,0.0
18250,89.0,5,30,10.0,0.0
18251,77.0,4,30,11.0,0.0
18252,69.0,0,30,11.0,0.0
18253,57.0,0,30,12.0,0.0
18254,65.0,1,30,12.0,0.0
18255,69.0,5,30,10.0,0.0
18256,81.0,0,15,0.0,0.0
18257,77.0,2,480,0.0,0.0
18258,69.0,0,480,6.0,0.0
18259,77.0,0,15,1.0,0.0
18260,65.0,0,480,6.0,0.0
18261,81.0,0,480,1.0,0.0
18262,65.0,4,30,11.0,0.0
18263,69.0,0,30,11.0,0.0
18264,57.0,1,480,4.0,0.0
18265,65.0,0,480,2.0,0.0
18266,69.0,4,15,2.0,0.0
18267,53.0,31,30,12.0,0.0
18268,57.0,0,30,12.0,0.0
18269,53.0,5,480,5.0,0.0
18270,53.0,2,480,13.0,0.0
18271,53.0,1,480,3.0,0.0
18272,41.0,1,480,14.0,0.0
18273,69.0,5,30,10.0,0.0
18274,65.0,0,30,11.0,0.0
18275,69.0,2,30,11.0,0.0
18276,53.0,31,30,12.0,0.0
18277,57.0,0,30,12.0,0.0
18278,53.0,2,15,15.0,0.0
18279,69.0,5,30,10.0,0.0
18280,69.0,0,30,11.0,0.0
18281,65.0,4,30,11.0,0.0
18282,53.0,0,30,12.0,0.0
18283,57.0,18,30,12.0,0.0
18284,69.0,5,30,10.0,0.0
18285,65.0,0,30,11.0,0.0
18286,69.0,4,30,11.0,0.0
18287,57.0,31,30,12.0,0.0
18288,53.0,0,30,12.0,0.0
18289,53.0,13,15,15.0,0.0
18290,69.0,5,30,10.0,0.0
18291,69.0,0,30,11.0,0.0
18292,65.0,2,30,11.0,0.0
18293,53.0,0,30,12.0,0.0
18294,57.0,31,30,12.0,0.0
18295,53.0,2,15,15.0,0.0
18296,69.0,5,30,10.0,0.0
18297,65.0,4,30,11.0,0.0
18298,69.0,0,30,11.0,0.0
18299,53.0,0,30,12.0,0.0
18300,57.0,18,30,12.0,0.0
18301,69.0,5,30,10.0,0.0
18302,65.0,4,30,11.0,0.0
18303,69.0,0,30,11.0,0.0
18304,53.0,0,30,12.0,0.0
18305,57.0,31,30,12.0,0.0
18306,53.0,13,15,15.0,0.0
18307,69.0,5,30,10.0,0.0
18308,65.0,2,30,11.0,0.0
18309,69.0,0,30,11.0,0.0
18310,53.0,31,30,12.0,0.0
18311,57.0,0,30,12.0,0.0
18312,53.0,13,60,15.0,0.0
18313,69.0,5,30,10.0,0.0
18314,65.0,0,30,11.0,0.0
18315,69.0,4,30,11.0,0.0
18316,57.0,0,30,12.0,0.0
18317,53.0,18,30,12.0,0.0
18318,69.0,5,30,10.0,0.0
18319,69.0,4,30,11.0,0.0
18320,65.0,0,30,11.0,0.0
18321,57.0,31,30,12.0,0.0
18322,53.0,0,30,12.0,0.0
18323,69.0,5,30,10.0,0.0
18324,69.0,2,30,11.0,0.0
18325,65.0,0,30,11.0,0.0
18326,57.0,31,30,12.0,0.0
18327,53.0,0,30,12.0,0.0
18328,53.0,2,15,15.0,0.0
18329,69.0,5,30,10.0,0.0
18330,65.0,4,30,11.0,0.0
18331,69.0,0,30,11.0,0.0
18332,57.0,1,30,12.0,0.0
18333,53.0,0,30,12.0,0.0
18334,93.0,5,30,10.0,0.0
18335,93.0,0,480,0.0,0.0
18336,89.0,2,480,0.0,0.0
18337,69.0,0,480,6.0,0.0
18338,81.0,0,480,6.0,0.0
18339,69.0,1,480,4.0,0.0
18340,69.0,4,30,11.0,0.0
18341,81.0,0,30,11.0,0.0
18342,81.0,0,480,2.0,0.0
18343,77.0,4,480,2.0,0.0
18344,65.0,31,30,12.0,0.0
18345,69.0,0,30,12.0,0.0
18346,65.0,5,480,5.0,0.0
18347,41.0,2,480,13.0,0.0
18348,41.0,1,480,3.0,0.0
18349,29.0,14,480,14.0,0.0
18350,41.0,13,120,15.0,0.0
18351,93.0,5,30,10.0,0.0
18352,81.0,0,30,11.0,0.0
18353,69.0,4,30,11.0,0.0
18354,69.0,31,30,12.0,0.0
18355,65.0,0,30,12.0,0.0
18356,93.0,5,30,10.0,0.0
18357,81.0,0,30,11.0,0.0
18358,69.0,4,30,11.0,0.0
18359,65.0,18,30,12.0,0.0
18360,69.0,0,30,12.0,0.0
18361,93.0,5,30,10.0,0.0
18362,69.0,4,30,11.0,0.0
18363,81.0,0,30,11.0,0.0
18364,69.0,31,30,12.0,0.0
18365,65.0,0,30,12.0,0.0
18366,93.0,5,30,10.0,0.0
18367,81.0,4,30,11.0,0.0
18368,69.0,0,30,11.0,0.0
18369,69.0,31,30,12.0,0.0
18370,65.0,0,30,12.0,0.0
18371,93.0,5,30,10.0,0.0
18372,81.0,0,30,11.0,0.0
18373,69.0,4,30,11.0,0.0
18374,65.0,0,30,12.0,0.0
18375,69.0,31,30,12.0,0.0
18376,93.0,5,30,10.0,0.0
18377,69.0,0,30,11.0,0.0
18378,81.0,4,30,11.0,0.0
18379,69.0,31,30,12.0,0.0
18380,65.0,0,30,12.0,0.0
18381,93.0,5,30,10.0,0.0
18382,69.0,0,30,11.0,0.0
18383,81.0,4,30,11.0,0.0
18384,69.0,0,30,12.0,0.0
18385,65.0,31,30,12.0,0.0
18386,93.0,5,30,10.0,0.0
18387,69.0,0,30,11.0,0.0
18388,81.0,4,30,11.0,0.0
18389,65.0,0,30,12.0,0.0
18390,69.0,31,30,12.0,0.0
18391,93.0,5,30,10.0,0.0
18392,69.0,4,30,11.0,0.0
18393,81.0,0,30,11.0,0.0
18394,69.0,0,30,12.0,0.0
18395,65.0,31,30,12.0,0.0
18396,93.0,5,30,10.0,0.0
18397,81.0,4,30,11.0,0.0
18398,69.0,0,30,11.0,0.0
18399,69.0,0,30,12.0,0.0
18400,65.0,31,30,12.0,0.0
18401,93.0,5,30,10.0,0.0
18402,81.0,4,30,11.0,0.0
18403,69.0,0,30,11.0,0.0
18404,65.0,1,30,12.0,0.0
18405,69.0,0,30,12.0,0.0
18406,69.0,5,30,10.0,0.0
18407,77.0,0,480,0.0,0.0
18408,81.0,2,480,0.0,0.0
18409,65.0,1,480,6.0,0.0
18410,81.0,1,15,1.0,0.0
18411,77.0,0,480,1.0,0.0
18412,69.0,0,480,6.0,0.0
18413,65.0,1,480,4.0,0.0
18414,65.0,0,30,11.0,0.0
18415,69.0,4,30,11.0,0.0
18416,65.0,4,480,2.0,0.0
18417,69.0,0,480,2.0,0.0
18418,57.0,0,30,12.0,0.0
18419,53.0,31,30,12.0,0.0
18420,57.0,5,480,5.0,0.0
18421,53.0,2,480,13.0,0.0
18422,53.0,1,480,3.0,0.0
18423,41.0,1,480,14.0,0.0
18424,69.0,5,30,10.0,0.0
18425,69.0,2,30,11.0,0.0
18426,65.0,0,30,11.0,0.0
18427,53.0,0,30,12.0,0.0
18428,57.0,31,30,12.0,0.0
18429,53.0,2,15,15.0,0.0
18430,69.0,5,30,10.0,0.0
18431,65.0,0,30,11.0,0.0
18432,69.0,4,30,11.0,0.0
18433,57.0,18,30,12.0,0.0
18434,53.0,0,30,12.0,0.0
18435,69.0,5,30,10.0,0.0
18436,65.0,4,30,11.0,0.0
18437,69.0,0,30,11.0,0.0
18438,53.0,31,30,12.0,0.0
18439,57.0,0,30,12.0,0.0
18440,53.0,2,60,15.0,0.0
18441,69.0,5,30,10.0,0.0
18442,65.0,0,30,11.0,0.0
18443,69.0,2,30,11.0,0.0
18444,53.0,0,30,12.0,0.0
18445,57.0,31,30,12.0,0.0
18446,53.0,13,60,15.0,0.0
18447,69.0,5,30,10.0,0.0
18448,65.0,4,30,11.0,0.0
18449,69.0,0,30,11.0,0.0
18450,57.0,18,30,12.0,0.0
18451,53.0,0,30,12.0,0.0
18452,69.0,5,30,10.0,0.0
18453,65.0,4,30,11.0,0.0
18454,69.0,0,30,11.0,0.0
18455,57.0,31,30,12.0,0.0
18456,53.0,0,30,12.0,0.0
18457,69.0,5,30,10.0,0.0
18458,69.0,2,30,11.0,0.0
18459,65.0,0,30,11.0,0.0
18460,57.0,0,30,12.0,0.0
18461,53.0,31,30,12.0,0.0
18462,53.0,2,15,15.0,0.0
18463,69.0,5,30,10.0,0.0
18464,65.0,0,30,11.0,0.0
18465,69.0,4,30,11.0,0.0
18466,53.0,18,30,12.0,0.0
18467,57.0,0,30,12.0,0.0
18468,69.0,5,30,10.0,0.0
18469,69.0,0,30,11.0,0.0
18470,65.0,4,30,11.0,0.0
18471,53.0,0,30,12.0,0.0
18472,57.0,31,30,12.0,0.0
18473,53.0,13,15,15.0,0.0
18474,69.0,5,30,10.0,0.0
18475,65.0,2,30,11.0,0.0
18476,69.0,0,30,11.0,0.0
18477,53.0,0,30,12.0,0.0
18478,57.0,31,30,12.0,0.0
18479,53.0,13,60,15.0,0.0
18480,69.0,5,30,10.0,0.0
18481,65.0,0,30,11.0,0.0
18482,69.0,4,30,11.0,0.0
18483,57.0,0,30,12.0,0.0
18484,53.0,1,30,12.0,0.0
18485,93.0,5,30,10.0,0.0
18486,93.0,2,240,0.0,0.0
18487,89.0,0,240,0.0,0.0
18488,81.0,0,15,1.0,0.0
18489,81.0,0,30,11.0,0.0
18490,69.0,1,240,4.0,0.0
18491,69.0,4,30,11.0,0.0
18492,81.0,0,240,2.0,0.0
18493,77.0,4,240,2.0,0.0
18494,65.0,0,30,12.0,0.0
18495,69.0,31,30,12.0,0.0
18496,65.0,5,240,5.0,0.0
18497,41.0,2,240,13.0,0.0
18498,41.0,1,240,3.0,0.0
18499,29.0,14,240,14.0,0.0
18500,41.0,13,120,15.0,0.0
18501,93.0,5,30,10.0,0.0
18502,81.0,0,30,11.0,0.0
18503,69.0,4,30,11.0,0.0
18504,65.0,31,30,12.0,0.0
18505,69.0,0,30,12.0,0.0
18506,93.0,5,30,10.0,0.0
18507,81.0,0,30,11.0,0.0
18508,69.0,4,30,11.0,0.0
18509,65.0,0,30,12.0,0.0
18510,69.0,18,30,12.0,0.0
18511,93.0,5,30,10.0,0.0
18512,81.0,4,30,11.0,0.0
18513,69.0,0,30,11.0,0.0
18514,65.0,0,30,12.0,0.0
18515,69.0,31,30,12.0,0.0
18516,93.0,5,30,10.0,0.0
18517,69.0,0,30,11.0,0.0
18518,81.0,4,30,11.0,0.0
18519,65.0,0,30,12.0,0.0
18520,69.0,31,30,12.0,0.0
18521,93.0,5,30,10.0,0.0
18522,81.0,0,30,11.0,0.0
18523,69.0,4,30,11.0,0.0
18524,65.0,1,30,12.0,0.0
18525,69.0,0,30,12.0,0.0
18526,69.0,5,30,10.0,0.0
18527,81.0,2,240,0.0,0.0
18528,77.0,0,240,0.0,0.0
18529,77.0,0,240,1.0,0.0
18530,81.0,1,240,6.0,0.0
18531,69.0,0,240,6.0,0.0
18532,65.0,1,240,4.0,0.0
18533,65.0,0,30,11.0,0.0
18534,69.0,4,30,11.0,0.0
18535,65.0,4,240,2.0,0.0
18536,69.0,0,240,2.0,0.0
18537,57.0,0,30,12.0,0.0
18538,53.0,31,30,12.0,0.0
18539,57.0,5,240,5.0,0.0
18540,60.0,2,240,13.0,0.0
18541,60.0,1,240,3.0,0.0
18542,48.0,1,240,14.0,0.0
18543,53.0,2,60,15.0,0.0
18544,69.0,5,30,10.0,0.0
18545,65.0,2,30,11.0,0.0
18546,69.0,0,30,11.0,0.0
18547,53.0,0,30,12.0,0.0
18548,57.0,31,30,12.0,0.0
18549,69.0,5,30,10.0,0.0
18550,69.0,0,30,11.0,0.0
18551,65.0,4,30,11.0,0.0
18552,57.0,18,30,12.0,0.0
18553,53.0,0,30,12.0,0.0
18554,69.0,5,30,10.0,0.0
18555,69.0,0,30,11.0,0.0
18556,65.0,4,30,11.0,0.0
18557,53.0,0,30,12.0,0.0
18558,57.0,31,30,12.0,0.0
18559,53.0,13,15,15.0,0.0
18560,69.0,5,30,10.0,0.0
18561,65.0,2,30,11.0,0.0
18562,69.0,0,30,11.0,0.0
18563,53.0,0,30,12.0,0.0
18564,57.0,31,30,12.0,0.0
18565,53.0,2,15,15.0,0.0
18566,69.0,5,30,10.0,0.0
18567,65.0,0,30,11.0,0.0
18568,69.0,4,30,11.0,0.0
18569,53.0,0,30,12.0,0.0
18570,57.0,1,30,12.0,0.0
18571,93.0,5,30,10.0,0.0
18572,93.0,0,240,0.0,0.0
18573,89.0,2,240,0.0,0.0
18574,81.0,0,15,1.0,0.0
18575,69.0,4,30,11.0,0.0
18576,69.0,1,240,4.0,0.0
18577,81.0,0,30,11.0,0.0
18578,81.0,4,240,2.0,0.0
18579,77.0,0,240,2.0,0.0
18580,69.0,31,30,12.0,0.0
18581,65.0,0,30,12.0,0.0
18582,65.0,5,240,5.0,0.0
18583,41.0,2,240,13.0,0.0
18584,41.0,1,240,3.0,0.0
18585,29.0,14,240,14.0,0.0
18586,41.0,13,120,15.0,0.0
18587,93.0,5,30,10.0,0.0
18588,81.0,0,30,11.0,0.0
18589,69.0,4,30,11.0,0.0
18590,69.0,31,30,12.0,0.0
18591,65.0,0,30,12.0,0.0
18592,93.0,5,30,10.0,0.0
18593,81.0,0,30,11.0,0.0
18594,69.0,4,30,11.0,0.0
18595,65.0,0,30,12.0,0.0
18596,69.0,18,30,12.0,0.0
18597,93.0,5,30,10.0,0.0
18598,69.0,4,30,11.0,0.0
18599,81.0,0,30,11.0,0.0
18600,65.0,31,30,12.0,0.0
18601,69.0,0,30,12.0,0.0
18602,93.0,5,30,10.0,0.0
18603,69.0,0,30,11.0,0.0
18604,81.0,4,30,11.0,0.0
18605,69.0,31,30,12.0,0.0
18606,65.0,0,30,12.0,0.0
18607,93.0,5,30,10.0,0.0
18608,69.0,0,30,11.0,0.0
18609,81.0,4,30,11.0,0.0
18610,69.0,0,30,12.0,0.0
18611,65.0,1,30,12.0,0.0
18612,69.0,5,30,10.0,0.0
18613,77.0,0,240,0.0,0.0
18614,81.0,2,240,0.0,0.0
18615,81.0,1,15,1.0,0.0
18616,77.0,1,240,1.0,0.0
18617,69.0,0,240,6.0,0.0
18618,81.0,0,240,6.0,0.0
18619,69.0,0,30,11.0,0.0
18620,65.0,1,240,4.0,0.0
18621,65.0,4,30,11.0,0.0
18622,69.0,4,240,2.0,0.0
18623,65.0,0,240,2.0,0.0
18624,53.0,0,30,12.0,0.0
18625,57.0,31,30,12.0,0.0
18626,57.0,5,240,5.0,0.0
18627,60.0,2,240,13.0,0.0
18628,60.0,1,240,3.0,0.0
18629,48.0,1,240,14.0,0.0
18630,53.0,2,60,15.0,0.0
18631,69.0,5,30,10.0,0.0
18632,69.0,0,30,11.0,0.0
18633,65.0,2,30,11.0,0.0
18634,57.0,0,30,12.0,0.0
18635,53.0,31,30,12.0,0.0
18636,69.0,5,30,10.0,0.0
18637,69.0,4,30,11.0,0.0
18638,65.0,0,30,11.0,0.0
18639,57.0,18,30,12.0,0.0
18640,53.0,0,30,12.0,0.0
18641,69.0,5,30,10.0,0.0
18642,65.0,0,30,11.0,0.0
18643,69.0,4,30,11.0,0.0
18644,57.0,31,30,12.0,0.0
18645,53.0,0,30,12.0,0.0
18646,53.0,13,15,15.0,0.0
18647,69.0,5,30,10.0,0.0
18648,65.0,2,30,11.0,0.0
18649,69.0,0,30,11.0,0.0
18650,57.0,0,30,12.0,0.0
18651,53.0,31,30,12.0,0.0
18652,53.0,2,15,15.0,0.0
18653,69.0,5,30,10.0,0.0
18654,69.0,0,30,11.0,0.0
18655,65.0,4,30,11.0,0.0
18656,57.0,0,30,12.0,0.0
18657,53.0,1,30,12.0,0.0
18658,93.0,5,30,10.0,0.0
18659,89.0,2,240,0.0,0.0
18660,93.0,0,240,0.0,0.0
18661,69.0,4,30,11.0,0.0
18662,69.0,1,240,4.0,0.0
18663,81.0,0,30,11.0,0.0
18664,77.0,0,240,2.0,0.0
18665,81.0,4,240,2.0,0.0
18666,65.0,0,30,12.0,0.0
18667,69.0,31,30,12.0,0.0
18668,65.0,5,240,5.0,0.0
18669,41.0,2,240,13.0,0.0
18670,41.0,1,240,3.0,0.0
18671,29.0,14,240,14.0,0.0
18672,41.0,13,120,15.0,0.0
18673,93.0,5,30,10.0,0.0
18674,81.0,0,30,11.0,0.0
18675,69.0,4,30,11.0,0.0
18676,69.0,0,30,12.0,0.0
18677,65.0,31,30,12.0,0.0
18678,93.0,5,30,10.0,0.0
18679,81.0,4,30,11.0,0.0
18680,69.0,0,30,11.0,0.0
18681,65.0,18,30,12.0,0.0
18682,69.0,0,30,12.0,0.0
18683,93.0,5,30,10.0,0.0
18684,69.0,0,30,11.0,0.0
18685,81.0,4,30,11.0,0.0
18686,69.0,0,30,12.0,0.0
18687,65.0,31,30,12.0,0.0
18688,93.0,5,30,10.0,0.0
18689,81.0,0,30,11.0,0.0
18690,69.0,4,30,11.0,0.0
18691,65.0,0,30,12.0,0.0
18692,69.0,31,30,12.0,0.0
18693,93.0,5,30,10.0,0.0
18694,81.0,4,30,11.0,0.0
18695,69.0,0,30,11.0,0.0
18696,69.0,1,30,12.0,0.0
18697,65.0,0,30,12.0,0.0
18698,69.0,5,30,10.0,0.0
18699,81.0,2,240,0.0,0.0
18700,77.0,0,240,0.0,0.0
18701,81.0,0,240,6.0,0.0
18702,81.0,1,15,1.0,0.0
18703,77.0,1,240,1.0,0.0
18704,69.0,0,240,6.0,0.0
18705,65.0,1,240,4.0,0.0
18706,65.0,4,30,11.0,0.0
18707,69.0,0,30,11.0,0.0
18708,65.0,0,240,2.0,0.0
18709,69.0,4,240,2.0,0.0
18710,53.0,31,30,12.0,0.0
18711,57.0,0,30,12.0,0.0
18712,57.0,5,240,5.0,0.0
18713,65.0,2,240,13.0,0.0
18714,65.0,1,240,3.0,0.0
18715,53.0,1,240,14.0,0.0
18716,69.0,5,30,10.0,0.0
18717,65.0,0,30,11.0,0.0
18718,69.0,2,30,11.0,0.0
18719,53.0,0,30,12.0,0.0
18720,57.0,31,30,12.0,0.0
18721,53.0,2,15,15.0,0.0
18722,69.0,5,30,10.0,0.0
18723,65.0,0,30,11.0,0.0
18724,69.0,4,30,11.0,0.0
18725,53.0,0,30,12.0,0.0
18726,57.0,18,30,12.0,0.0
18727,69.0,5,30,10.0,0.0
18728,65.0,4,30,11.0,0.0
18729,69.0,0,30,11.0,0.0
18730,53.0,31,30,12.0,0.0
18731,57.0,0,30,12.0,0.0
18732,53.0,13,15,15.0,0.0
18733,69.0,5,30,10.0,0.0
18734,69.0,2,30,11.0,0.0
18735,65.0,0,30,11.0,0.0
18736,57.0,0,30,12.0,0.0
18737,53.0,31,30,12.0,0.0
18738,53.0,13,60,15.0,0.0
18739,69.0,5,30,10.0,0.0
18740,69.0,0,30,11.0,0.0
18741,65.0,4,30,11.0,0.0
18742,53.0,1,30,12.0,0.0
18743,57.0,0,30,12.0,0.0
18744,93.0,5,30,10.0,0.0
18745,89.0,2,240,0.0,0.0
18746,93.0,0,240,0.0,0.0
18747,81.0,0,15,1.0,0.0
18748,69.0,1,240,4.0,0.0
18749,69.0,0,30,11.0,0.0
18750,81.0,4,30,11.0,0.0
18751,81.0,0,240,2.0,0.0
18752,77.0,4,240,2.0,0.0
18753,69.0,0,30,12.0,0.0
18754,65.0,31,30,12.0,0.0
18755,65.0,5,240,5.0,0.0
18756,41.0,2,240,13.0,0.0
18757,41.0,1,240,3.0,0.0
18758,29.0,14,240,14.0,0.0
18759,41.0,13,120,15.0,0.0
18760,93.0,5,30,10.0,0.0
18761,69.0,4,30,11.0,0.0
18762,81.0,0,30,11.0,0.0
18763,69.0,31,30,12.0,0.0
18764,65.0,0,30,12.0,0.0
18765,93.0,5,30,10.0,0.0
18766,69.0,4,30,11.0,0.0
18767,81.0,0,30,11.0,0.0
18768,69.0,0,30,12.0,0.0
18769,65.0,18,30,12.0,0.0
18770,93.0,5,30,10.0,0.0
18771,81.0,0,30,11.0,0.0
18772,69.0,4,30,11.0,0.0
18773,69.0,31,30,12.0,0.0
18774,65.0,0,30,12.0,0.0
18775,93.0,5,30,10.0,0.0
18776,69.0,4,30,11.0,0.0
18777,81.0,0,30,11.0,0.0
18778,65.0,31,30,12.0,0.0
18779,69.0,0,30,12.0,0.0
18780,93.0,5,30,10.0,0.0
18781,69.0,4,30,11.0,0.0
18782,81.0,0,30,11.0,0.0
18783,69.0,0,30,12.0,0.0
18784,65.0,1,30,12.0,0.0
18785,69.0,5,30,10.0,0.0
18786,77.0,2,240,0.0,0.0
18787,81.0,0,240,0.0,0.0
18788,69.0,1,240,6.0,0.0
18789,81.0,1,15,1.0,0.0
18790,77.0,0,240,1.0,0.0
18791,65.0,0,30,11.0,0.0
18792,65.0,1,240,4.0,0.0
18793,69.0,4,30,11.0,0.0
18794,69.0,4,240,2.0,0.0
18795,65.0,0,240,2.0,0.0
18796,57.0,0,30,12.0,0.0
18797,53.0,31,30,12.0,0.0
18798,57.0,5,240,5.0,0.0
18799,65.0,2,240,13.0,0.0
18800,65.0,1,240,3.0,0.0
18801,53.0,1,240,14.0,0.0
18802,69.0,5,30,10.0,0.0
18803,69.0,0,30,11.0,0.0
18804,65.0,2,30,11.0,0.0
18805,57.0,31,30,12.0,0.0
18806,53.0,0,30,12.0,0.0
18807,53.0,2,15,15.0,0.0
18808,69.0,5,30,10.0,0.0
18809,69.0,0,30,11.0,0.0
18810,65.0,4,30,11.0,0.0
18811,53.0,0,30,12.0,0.0
18812,57.0,18,30,12.0,0.0
18813,69.0,5,30,10.0,0.0
18814,69.0,4,30,11.0,0.0
18815,65.0,0,30,11.0,0.0
18816,57.0,31,30,12.0,0.0
18817,53.0,0,30,12.0,0.0
18818,53.0,2,60,15.0,0.0
18819,69.0,5,30,10.0,0.0
18820,65.0,0,30,11.0,0.0
18821,69.0,2,30,11.0,0.0
18822,53.0,0,30,12.0,0.0
18823,57.0,31,30,12.0,0.0
18824,53.0,13,60,15.0,0.0
18825,69.0,5,30,10.0,0.0
18826,69.0,4,30,11.0,0.0
18827,65.0,0,30,11.0,0.0
18828,57.0,0,30,12.0,0.0
18829,53.0,1,30,12.0,0.0
18830,93.0,5,30,10.0,0.0
18831,93.0,30,480,0.0,0.0
18832,89.0,0,480,0.0,0.0
18833,81.0,0,15,6.0,0.0
18834,77.0,1,120,6.0,0.0
18835,69.0,4,120,4.0,0.0
18836,77.0,35,30,11.0,0.0
18837,69.0,0,120,12.0,0.0
18838,65.0,1,120,12.0,0.0
18839,65.0,7,120,5.0,0.0
18840,41.0,2,120,3.0,0.0
18841,29.0,1,5880,14.0,0.0
18842,41.0,13,120,15.0,0.0
18843,93.0,5,30,10.0,0.0
18844,77.0,35,30,11.0,0.0
18845,93.0,5,30,10.0,0.0
18846,77.0,7,30,11.0,0.0
18847,93.0,5,30,10.0,0.0
18848,77.0,35,30,11.0,0.0
18849,93.0,5,30,10.0,0.0
18850,77.0,35,30,11.0,0.0
18851,93.0,5,30,10.0,0.0
18852,77.0,35,30,11.0,0.0
18853,93.0,5,30,10.0,0.0
18854,77.0,35,30,11.0,0.0
18855,93.0,5,30,10.0,0.0
18856,77.0,35,30,11.0,0.0
18857,93.0,5,30,10.0,0.0
18858,77.0,35,30,11.0,0.0
18859,93.0,5,30,10.0,0.0
18860,77.0,35,30,11.0,0.0
18861,93.0,5,30,10.0,0.0
18862,77.0,35,30,11.0,0.0
18863,93.0,5,30,10.0,0.0
18864,77.0,5,30,11.0,0.0
18865,69.0,5,30,10.0,0.0
18866,77.0,0,480,1.0,0.0
18867,81.0,28,480,1.0,0.0
18868,81.0,35,30,11.0,0.0
18869,69.0,5,30,10.0,0.0
18870,81.0,35,30,11.0,0.0
18871,69.0,5,30,10.0,0.0
18872,81.0,35,30,11.0,0.0
18873,69.0,5,30,10.0,0.0
18874,81.0,35,30,11.0,0.0
18875,69.0,5,30,10.0,0.0
18876,81.0,35,30,11.0,0.0
18877,69.0,5,30,10.0,0.0
18878,81.0,35,30,11.0,0.0
18879,69.0,5,30,10.0,0.0
18880,81.0,35,30,11.0,0.0
18881,69.0,5,30,10.0,0.0
18882,81.0,35,30,11.0,0.0
18883,69.0,5,30,10.0,0.0
18884,81.0,35,30,11.0,0.0
18885,69.0,5,30,10.0,0.0
18886,81.0,35,30,11.0,0.0
18887,69.0,5,30,10.0,0.0
18888,81.0,35,30,11.0,0.0
18889,69.0,5,30,10.0,0.0
18890,81.0,7,30,11.0,0.0
18891,69.0,5,30,10.0,0.0
18892,65.0,35,30,11.0,0.0
18893,69.0,0,480,2.0,0.0
18894,65.0,26,480,2.0,0.0
18895,69.0,5,30,10.0,0.0
18896,65.0,35,30,11.0,0.0
18897,69.0,5,30,10.0,0.0
18898,65.0,35,30,11.0,0.0
18899,69.0,5,30,10.0,0.0
18900,65.0,35,30,11.0,0.0
18901,69.0,5,30,10.0,0.0
18902,65.0,35,30,11.0,0.0
18903,69.0,5,30,10.0,0.0
18904,65.0,35,30,11.0,0.0
18905,69.0,5,30,10.0,0.0
18906,65.0,35,30,11.0,0.0
18907,69.0,5,30,10.0,0.0
18908,65.0,35,30,11.0,0.0
18909,69.0,5,30,10.0,0.0
18910,65.0,35,30,11.0,0.0
18911,69.0,5,30,10.0,0.0
18912,65.0,35,30,11.0,0.0
18913,69.0,5,30,10.0,0.0
18914,65.0,35,30,11.0,0.0
18915,69.0,5,30,10.0,0.0
18916,65.0,9,30,11.0,0.0
18917,69.0,5,30,10.0,0.0
18918,65.0,4,30,11.0,0.0
18919,57.0,5,480,4.0,0.0
18920,53.0,31,30,12.0,0.0
18921,57.0,0,30,12.0,0.0
18922,53.0,5,480,5.0,0.0
18923,69.0,5,30,10.0,0.0
18924,65.0,4,30,11.0,0.0
18925,53.0,0,30,12.0,0.0
18926,57.0,31,30,12.0,0.0
18927,69.0,5,30,10.0,0.0
18928,65.0,4,30,11.0,0.0
18929,57.0,0,30,12.0,0.0
18930,53.0,31,30,12.0,0.0
18931,69.0,5,30,10.0,0.0
18932,65.0,4,30,11.0,0.0
18933,57.0,31,30,12.0,0.0
18934,53.0,0,30,12.0,0.0
18935,69.0,5,30,10.0,0.0
18936,65.0,4,30,11.0,0.0
18937,57.0,31,30,12.0,0.0
18938,53.0,0,30,12.0,0.0
18939,69.0,5,30,10.0,0.0
18940,65.0,4,30,11.0,0.0
18941,53.0,31,30,12.0,0.0
18942,57.0,0,30,12.0,0.0
18943,69.0,5,30,10.0,0.0
18944,65.0,4,30,11.0,0.0
18945,53.0,31,30,12.0,0.0
18946,57.0,0,30,12.0,0.0
18947,69.0,5,30,10.0,0.0
18948,65.0,4,30,11.0,0.0
18949,53.0,0,30,12.0,0.0
18950,57.0,31,30,12.0,0.0
18951,69.0,5,30,10.0,0.0
18952,65.0,4,30,11.0,0.0
18953,57.0,31,30,12.0,0.0
18954,53.0,0,30,12.0,0.0
18955,69.0,5,30,10.0,0.0
18956,65.0,4,30,11.0,0.0
18957,57.0,31,30,12.0,0.0
18958,53.0,0,30,12.0,0.0
18959,69.0,5,30,10.0,0.0
18960,65.0,4,30,11.0,0.0
18961,57.0,31,30,12.0,0.0
18962,53.0,0,30,12.0,0.0
18963,69.0,5,30,10.0,0.0
18964,65.0,4,30,11.0,0.0
18965,53.0,0,30,12.0,0.0
18966,57.0,4,30,12.0,0.0
18967,69.0,5,30,10.0,0.0
18968,65.0,10,30,11.0,0.0
18969,57.0,23,120,12.0,0.0
18970,53.0,0,120,12.0,0.0
18971,41.0,17,15,13.0,0.0
18972,45.0,25,30,13.0,0.0
18973,45.0,15,480,3.0,0.0
18974,41.0,0,480,3.0,0.0
18975,69.0,5,30,10.0,0.0
18976,65.0,10,30,11.0,0.0
18977,41.0,25,30,13.0,0.0
18978,45.0,0,30,13.0,0.0
18979,69.0,5,30,10.0,0.0
18980,65.0,10,30,11.0,0.0
18981,41.0,0,30,13.0,0.0
18982,45.0,2,30,13.0,0.0
18983,69.0,5,30,10.0,0.0
18984,65.0,10,30,11.0,0.0
18985,45.0,0,30,13.0,0.0
18986,41.0,25,30,13.0,0.0
18987,69.0,5,30,10.0,0.0
18988,65.0,10,30,11.0,0.0
18989,45.0,0,30,13.0,0.0
18990,41.0,25,30,13.0,0.0
18991,69.0,5,30,10.0,0.0
18992,65.0,10,30,11.0,0.0
18993,41.0,0,30,13.0,0.0
18994,45.0,25,30,13.0,0.0
18995,69.0,5,30,10.0,0.0
18996,65.0,10,30,11.0,0.0
18997,45.0,0,30,13.0,0.0
18998,41.0,25,30,13.0,0.0
18999,69.0,5,30,10.0,0.0
19000,65.0,10,30,11.0,0.0
19001,45.0,0,30,13.0,0.0
19002,41.0,25,30,13.0,0.0
19003,69.0,5,30,10.0,0.0
19004,65.0,10,30,11.0,0.0
19005,45.0,25,30,13.0,0.0
19006,41.0,0,30,13.0,0.0
19007,69.0,5,30,10.0,0.0
19008,65.0,10,30,11.0,0.0
19009,41.0,25,30,13.0,0.0
19010,45.0,0,30,13.0,0.0
19011,69.0,5,30,10.0,0.0
19012,65.0,10,30,11.0,0.0
19013,41.0,25,30,13.0,0.0
19014,45.0,0,30,13.0,0.0
19015,69.0,5,30,10.0,0.0
19016,65.0,10,30,11.0,0.0
19017,45.0,10,30,13.0,0.0
19018,41.0,0,30,13.0,0.0
19019,69.0,5,30,10.0,0.0
19020,65.0,4,30,11.0,0.0
19021,57.0,5,480,4.0,0.0
19022,53.0,31,30,12.0,0.0
19023,57.0,0,30,12.0,0.0
19024,53.0,22,480,5.0,0.0
19025,45.0,17,120,13.0,0.0
19026,41.0,0,120,13.0,0.0
19027,69.0,5,30,10.0,0.0
19028,65.0,4,30,11.0,0.0
19029,53.0,31,30,12.0,0.0
19030,57.0,0,30,12.0,0.0
19031,69.0,5,30,10.0,0.0
19032,65.0,4,30,11.0,0.0
19033,53.0,14,30,12.0,0.0
19034,57.0,0,30,12.0,0.0
19035,69.0,5,30,10.0,0.0
19036,65.0,4,30,11.0,0.0
19037,57.0,0,30,12.0,0.0
19038,53.0,31,30,12.0,0.0
19039,69.0,5,30,10.0,0.0
19040,65.0,4,30,11.0,0.0
19041,53.0,0,30,12.0,0.0
19042,57.0,31,30,12.0,0.0
19043,69.0,5,30,10.0,0.0
19044,65.0,4,30,11.0,0.0
19045,57.0,31,30,12.0,0.0
19046,53.0,0,30,12.0,0.0
19047,69.0,5,30,10.0,0.0
19048,65.0,4,30,11.0,0.0
19049,57.0,0,30,12.0,0.0
19050,53.0,31,30,12.0,0.0
19051,69.0,5,30,10.0,0.0
19052,65.0,4,30,11.0,0.0
19053,53.0,31,30,12.0,0.0
19054,57.0,0,30,12.0,0.0
19055,69.0,5,30,10.0,0.0
19056,65.0,4,30,11.0,0.0
19057,53.0,31,30,12.0,0.0
19058,57.0,0,30,12.0,0.0
19059,69.0,5,30,10.0,0.0
19060,65.0,4,30,11.0,0.0
19061,53.0,0,30,12.0,0.0
19062,57.0,31,30,12.0,0.0
19063,69.0,5,30,10.0,0.0
19064,65.0,4,30,11.0,0.0
19065,53.0,31,30,12.0,0.0
19066,57.0,0,30,12.0,0.0
19067,69.0,5,30,10.0,0.0
19068,65.0,4,30,11.0,0.0
19069,57.0,0,30,12.0,0.0
19070,53.0,4,30,12.0,0.0
19071,69.0,5,30,10.0,0.0
19072,65.0,35,30,11.0,0.0
19073,69.0,26,480,2.0,0.0
19074,65.0,0,480,2.0,0.0
19075,53.0,0,120,12.0,0.0
19076,57.0,23,120,12.0,0.0
19077,69.0,5,30,10.0,0.0
19078,65.0,35,30,11.0,0.0
19079,69.0,5,30,10.0,0.0
19080,65.0,12,30,11.0,0.0
19081,69.0,5,30,10.0,0.0
19082,65.0,35,30,11.0,0.0
19083,69.0,5,30,10.0,0.0
19084,65.0,35,30,11.0,0.0
19085,69.0,5,30,10.0,0.0
19086,65.0,35,30,11.0,0.0
19087,69.0,5,30,10.0,0.0
19088,65.0,35,30,11.0,0.0
19089,69.0,5,30,10.0,0.0
19090,65.0,35,30,11.0,0.0
19091,69.0,5,30,10.0,0.0
19092,65.0,35,30,11.0,0.0
19093,69.0,5,30,10.0,0.0
19094,65.0,35,30,11.0,0.0
19095,69.0,5,30,10.0,0.0
19096,65.0,35,30,11.0,0.0
19097,69.0,5,30,10.0,0.0
19098,65.0,9,30,11.0,0.0
19099,69.0,5,30,10.0,0.0
19100,81.0,0,480,1.0,0.0
19101,77.0,28,480,1.0,0.0
19102,81.0,35,30,11.0,0.0
19103,69.0,5,30,10.0,0.0
19104,81.0,35,30,11.0,0.0
19105,69.0,5,30,10.0,0.0
19106,81.0,35,30,11.0,0.0
19107,69.0,5,30,10.0,0.0
19108,81.0,35,30,11.0,0.0
19109,69.0,5,30,10.0,0.0
19110,81.0,35,30,11.0,0.0
19111,69.0,5,30,10.0,0.0
19112,81.0,35,30,11.0,0.0
19113,69.0,5,30,10.0,0.0
19114,81.0,35,30,11.0,0.0
19115,69.0,5,30,10.0,0.0
19116,81.0,35,30,11.0,0.0
19117,69.0,5,30,10.0,0.0
19118,81.0,35,30,11.0,0.0
19119,69.0,5,30,10.0,0.0
19120,81.0,35,30,11.0,0.0
19121,69.0,5,30,10.0,0.0
19122,81.0,35,30,11.0,0.0
19123,69.0,5,30,10.0,0.0
19124,81.0,7,30,11.0,0.0
19125,93.0,5,30,10.0,0.0
19126,93.0,30,240,0.0,0.0
19127,89.0,0,240,0.0,0.0
19128,77.0,35,30,11.0,0.0
19129,93.0,5,30,10.0,0.0
19130,77.0,35,30,11.0,0.0
19131,93.0,5,30,10.0,0.0
19132,77.0,35,30,11.0,0.0
19133,93.0,5,30,10.0,0.0
19134,77.0,35,30,11.0,0.0
19135,93.0,5,30,10.0,0.0
19136,77.0,35,30,11.0,0.0
19137,93.0,5,30,10.0,0.0
19138,77.0,5,30,11.0,0.0
19139,69.0,5,30,10.0,0.0
19140,81.0,0,240,0.0,0.0
19141,77.0,2,240,0.0,0.0
19142,81.0,28,240,1.0,0.0
19143,77.0,0,240,1.0,0.0
19144,81.0,35,30,11.0,0.0
19145,69.0,5,30,10.0,0.0
19146,81.0,35,30,11.0,0.0
19147,69.0,5,30,10.0,0.0
19148,81.0,35,30,11.0,0.0
19149,69.0,5,30,10.0,0.0
19150,81.0,35,30,11.0,0.0
19151,69.0,5,30,10.0,0.0
19152,81.0,35,30,11.0,0.0
19153,69.0,5,30,10.0,0.0
19154,81.0,5,30,11.0,0.0
19155,69.0,5,30,10.0,0.0
19156,65.0,0,240,1.0,0.0
19157,69.0,2,240,1.0,0.0
19158,65.0,35,30,11.0,0.0
19159,65.0,26,240,2.0,0.0
19160,69.0,0,240,2.0,0.0
19161,69.0,5,30,10.0,0.0
19162,65.0,35,30,11.0,0.0
19163,69.0,5,30,10.0,0.0
19164,65.0,35,30,11.0,0.0
19165,69.0,5,30,10.0,0.0
19166,65.0,35,30,11.0,0.0
19167,69.0,5,30,10.0,0.0
19168,65.0,35,30,11.0,0.0
19169,69.0,5,30,10.0,0.0
19170,65.0,7,30,11.0,0.0
19171,69.0,5,30,10.0,0.0
19172,65.0,4,30,11.0,0.0
19173,57.0,0,240,2.0,0.0
19174,53.0,11,240,2.0,0.0
19175,57.0,31,30,12.0,0.0
19176,53.0,0,30,12.0,0.0
19177,57.0,0,240,3.0,0.0
19178,53.0,15,240,3.0,0.0
19179,69.0,5,30,10.0,0.0
19180,65.0,4,30,11.0,0.0
19181,57.0,0,30,12.0,0.0
19182,53.0,31,30,12.0,0.0
19183,69.0,5,30,10.0,0.0
19184,65.0,4,30,11.0,0.0
19185,53.0,31,30,12.0,0.0
19186,57.0,0,30,12.0,0.0
19187,69.0,5,30,10.0,0.0
19188,65.0,4,30,11.0,0.0
19189,57.0,31,30,12.0,0.0
19190,53.0,0,30,12.0,0.0
19191,69.0,5,30,10.0,0.0
19192,65.0,4,30,11.0,0.0
19193,57.0,31,30,12.0,0.0
19194,53.0,0,30,12.0,0.0
19195,69.0,5,30,10.0,0.0
19196,65.0,4,30,11.0,0.0
19197,57.0,5,30,12.0,0.0
19198,53.0,0,30,12.0,0.0
19199,69.0,5,30,10.0,0.0
19200,65.0,10,30,11.0,0.0
19201,53.0,0,120,12.0,0.0
19202,57.0,23,120,12.0,0.0
19203,45.0,25,30,13.0,0.0
19204,41.0,0,30,13.0,0.0
19205,41.0,15,240,3.0,0.0
19206,45.0,0,240,3.0,0.0
19207,69.0,5,30,10.0,0.0
19208,65.0,10,30,11.0,0.0
19209,45.0,0,30,13.0,0.0
19210,41.0,25,30,13.0,0.0
19211,69.0,5,30,10.0,0.0
19212,65.0,10,30,11.0,0.0
19213,45.0,2,30,13.0,0.0
19214,41.0,0,30,13.0,0.0
19215,69.0,5,30,10.0,0.0
19216,65.0,10,30,11.0,0.0
19217,41.0,0,30,13.0,0.0
19218,45.0,25,30,13.0,0.0
19219,69.0,5,30,10.0,0.0
19220,65.0,10,30,11.0,0.0
19221,45.0,0,30,13.0,0.0
19222,41.0,25,30,13.0,0.0
19223,69.0,5,30,10.0,0.0
19224,65.0,10,30,11.0,0.0
19225,41.0,0,30,13.0,0.0
19226,45.0,10,30,13.0,0.0
19227,69.0,5,30,10.0,0.0
19228,57.0,5,240,4.0,0.0
19229,65.0,4,30,11.0,0.0
19230,57.0,0,30,12.0,0.0
19231,53.0,31,30,12.0,0.0
19232,53.0,7,240,5.0,0.0
19233,41.0,17,120,13.0,0.0
19234,45.0,0,120,13.0,0.0
19235,57.0,0,240,3.0,0.0
19236,53.0,15,240,3.0,0.0
19237,69.0,5,30,10.0,0.0
19238,65.0,4,30,11.0,0.0
19239,53.0,31,30,12.0,0.0
19240,57.0,0,30,12.0,0.0
19241,69.0,5,30,10.0,0.0
19242,65.0,4,30,11.0,0.0
19243,57.0,14,30,12.0,0.0
19244,53.0,0,30,12.0,0.0
19245,69.0,5,30,10.0,0.0
19246,65.0,4,30,11.0,0.0
19247,53.0,31,30,12.0,0.0
19248,57.0,0,30,12.0,0.0
19249,69.0,5,30,10.0,0.0
19250,65.0,4,30,11.0,0.0
19251,57.0,31,30,12.0,0.0
19252,53.0,0,30,12.0,0.0
19253,69.0,5,30,10.0,0.0
19254,65.0,4,30,11.0,0.0
19255,53.0,4,30,12.0,0.0
19256,57.0,0,30,12.0,0.0
19257,69.0,5,30,10.0,0.0
19258,65.0,0,240,1.0,0.0
19259,69.0,1,240,1.0,0.0
19260,65.0,35,30,11.0,0.0
19261,69.0,1,240,4.0,0.0
19262,69.0,0,240,2.0,0.0
19263,65.0,4,240,2.0,0.0
19264,53.0,0,120,12.0,0.0
19265,57.0,23,120,12.0,0.0
19266,65.0,22,240,5.0,0.0
19267,69.0,5,30,10.0,0.0
19268,65.0,35,30,11.0,0.0
19269,69.0,5,30,10.0,0.0
19270,65.0,12,30,11.0,0.0
19271,69.0,5,30,10.0,0.0
19272,65.0,35,30,11.0,0.0
19273,69.0,5,30,10.0,0.0
19274,65.0,35,30,11.0,0.0
19275,69.0,5,30,10.0,0.0
19276,65.0,7,30,11.0,0.0
19277,69.0,5,30,10.0,0.0
19278,81.0,2,240,0.0,0.0
19279,77.0,0,240,0.0,0.0
19280,81.0,0,240,1.0,0.0
19281,77.0,15,240,1.0,0.0
19282,81.0,35,30,11.0,0.0
19283,41.0,13,120,15.0,0.0
19284,69.0,5,30,10.0,0.0
19285,81.0,35,30,11.0,0.0
19286,69.0,5,30,10.0,0.0
19287,81.0,22,30,11.0,0.0
19288,69.0,5,30,10.0,0.0
19289,81.0,35,30,11.0,0.0
19290,53.0,101,120,15.0,0.0
19291,69.0,5,30,10.0,0.0
19292,81.0,35,30,11.0,0.0
19293,69.0,5,30,10.0,0.0
19294,81.0,5,30,11.0,0.0
19295,93.0,2,120,10.0,0.0
19296,93.0,3,120,0.0,0.0
19297,89.0,0,120,0.0,0.0
19298,81.0,13,120,11.0,0.0
19299,41.0,120,120,15.0,0.0
19300,53.0,43,120,15.0,0.0
19301,89.0,0,60,0.0,0.0
19302,81.0,4,60,0.0,0.0
19303,69.0,0,60,2.0,0.0
19304,77.0,11,60,2.0,0.0
19305,57.0,62,60,3.0,0.0
19306,65.0,0,60,3.0,0.0
19307,41.0,98,120,15.0,0.0
19308,53.0,103,120,15.0,0.0
19309,88.0,0,60,0.0,0.0
19310,84.0,4,60,0.0,0.0
19311,72.0,0,60,2.0,0.0
19312,76.0,11,60,2.0,0.0
19313,60.0,0,60,3.0,0.0
19314,64.0,7,60,3.0,0.0
19315,84.0,0,120,0.0,0.0
19316,88.0,4,120,0.0,0.0
19317,72.0,0,120,2.0,0.0
19318,76.0,11,120,2.0,0.0
19319,60.0,0,120,3.0,0.0
19320,64.0,2,120,3.0,0.0
19321,41.0,98,120,15.0,0.0
19322,82.0,0,120,0.0,0.0
19323,86.0,4,120,0.0,0.0
19324,70.0,0,120,2.0,0.0
19325,74.0,11,120,2.0,0.0
19326,62.0,7,120,3.0,0.0
19327,58.0,0,120,3.0,0.0
19328,53.0,43,120,15.0,0.0
19329,81.0,0,60,0.0,0.0
19330,84.0,4,60,0.0,0.0
19331,69.0,11,60,2.0,0.0
19332,72.0,0,60,2.0,0.0
19333,60.0,0,60,3.0,0.0
19334,57.0,62,60,3.0,0.0
19335,41.0,98,120,15.0,0.0
19336,53.0,41,120,15.0,0.0
19337,84.0,0,60,0.0,0.0
19338,81.0,4,60,0.0,0.0
19339,69.0,11,60,2.0,0.0
19340,72.0,0,60,2.0,0.0
19341,57.0,0,60,3.0,0.0
19342,60.0,7,60,3.0,0.0
19343,69.0,5,60,10.0,0.0
19344,84.0,3,120,0.0,0.0
19345,81.0,0,120,0.0,0.0
19346,65.0,4,60,11.0,0.0
19347,60.0,4,1080,4.0,0.0
19348,69.0,0,120,2.0,0.0
19349,72.0,3,120,2.0,0.0
19350,53.0,51,60,12.0,0.0
19351,57.0,0,60,12.0,0.0
19352,48.0,9,1080,5.0,0.0
19353,57.0,0,120,3.0,0.0
19354,60.0,2,120,3.0,0.0
19355,41.0,41,120,15.0,0.0
19356,70.0,2,60,10.0,0.0
19357,67.0,1,60,11.0,0.0
19358,55.0,0,60,12.0,0.0
19359,58.0,8,60,12.0,0.0
19360,67.0,5,60,10.0,0.0
19361,79.0,4,120,0.0,0.0
19362,82.0,0,120,0.0,0.0
19363,60.0,4,60,11.0,0.0
19364,67.0,0,120,2.0,0.0
19365,70.0,11,120,2.0,0.0
19366,55.0,53,60,12.0,0.0
19367,48.0,0,60,12.0,0.0
19368,55.0,0,120,3.0,0.0
19369,58.0,2,120,3.0,0.0
19370,53.0,41,120,15.0,0.0
19371,69.0,5,60,10.0,0.0
19372,65.0,4,60,11.0,0.0
19373,53.0,51,60,12.0,0.0
19374,57.0,0,60,12.0,0.0
19375,41.0,41,120,15.0,0.0
19376,70.0,5,60,10.0,0.0
19377,67.0,4,60,11.0,0.0
19378,58.0,0,60,12.0,0.0
19379,67.0,5,60,10.0,0.0
19380,60.0,4,60,11.0,0.0
19381,48.0,0,60,12.0,0.0
19382,55.0,10,15,12.0,0.0
19383,53.0,41,120,15.0,0.0
19384,69.0,5,60,10.0,0.0
19385,65.0,4,60,11.0,0.0
19386,57.0,0,60,12.0,0.0
19387,53.0,51,60,12.0,0.0
19388,41.0,41,120,15.0,0.0
19389,70.0,5,60,10.0,0.0
19390,67.0,4,60,11.0,0.0
19391,55.0,0,60,12.0,0.0
19392,58.0,10,60,12.0,0.0
19393,67.0,5,60,10.0,0.0
19394,60.0,4,60,11.0,0.0
19395,55.0,0,60,12.0,0.0
19396,48.0,70,60,12.0,0.0
19397,53.0,41,120,15.0,0.0
19398,69.0,5,60,10.0,0.0
19399,65.0,4,60,11.0,0.0
19400,53.0,0,60,12.0,0.0
19401,57.0,51,60,12.0,0.0
19402,41.0,41,120,15.0,0.0
19403,70.0,5,60,10.0,0.0
19404,67.0,4,60,11.0,0.0
19405,58.0,10,60,12.0,0.0
19406,67.0,5,60,10.0,0.0
19407,60.0,4,60,11.0,0.0
19408,55.0,0,15,12.0,0.0
19409,48.0,70,60,12.0,0.0
19410,53.0,101,120,15.0,0.0
19411,69.0,5,120,10.0,0.0
19412,65.0,0,120,11.0,0.0
19413,57.0,1,120,12.0,0.0
19414,53.0,0,120,12.0,0.0
19415,41.0,120,120,15.0,0.0
19416,53.0,43,120,15.0,0.0
19417,89.0,4,60,0.0,0.0
19418,81.0,0,60,0.0,0.0
19419,69.0,11,60,2.0,0.0
19420,77.0,0,60,2.0,0.0
19421,65.0,0,60,3.0,0.0
19422,57.0,62,60,3.0,0.0
19423,41.0,98,120,15.0,0.0
19424,53.0,103,120,15.0,0.0
19425,84.0,4,60,0.0,0.0
19426,88.0,0,60,0.0,0.0
19427,76.0,0,60,2.0,0.0
19428,72.0,11,60,2.0,0.0
19429,64.0,7,60,3.0,0.0
19430,60.0,0,60,3.0,0.0
19431,88.0,0,120,0.0,0.0
19432,84.0,4,120,0.0,0.0
19433,76.0,0,120,2.0,0.0
19434,72.0,11,120,2.0,0.0
19435,60.0,0,120,3.0,0.0
19436,64.0,2,120,3.0,0.0
19437,41.0,98,120,15.0,0.0
19438,82.0,4,120,0.0,0.0
19439,86.0,0,120,0.0,0.0
19440,70.0,11,120,2.0,0.0
19441,74.0,0,120,2.0,0.0
19442,58.0,0,120,3.0,0.0
19443,62.0,7,120,3.0,0.0
19444,53.0,43,120,15.0,0.0
19445,84.0,4,60,0.0,0.0
19446,81.0,0,60,0.0,0.0
19447,69.0,11,60,2.0,0.0
19448,72.0,0,60,2.0,0.0
19449,57.0,0,60,3.0,0.0
19450,60.0,62,60,3.0,0.0
19451,41.0,98,120,15.0,0.0
19452,53.0,41,120,15.0,0.0
19453,81.0,0,60,0.0,0.0
19454,84.0,4,60,0.0,0.0
19455,69.0,11,60,2.0,0.0
19456,72.0,0,60,2.0,0.0
19457,57.0,0,60,3.0,0.0
19458,60.0,7,60,3.0,0.0
19459,81.0,5,60,10.0,0.0
19460,79.0,0,1920,0.0,0.0
19461,82.0,17,960,0.0,0.0
19462,69.0,55,60,11.0,0.0
19463,60.0,1,1920,4.0,0.0
19464,70.0,4,1920,2.0,0.0
19465,67.0,0,1920,2.0,0.0
19466,48.0,7,1920,5.0,0.0
19467,58.0,2,1920,3.0,0.0
19468,55.0,0,1920,3.0,0.0
19469,41.0,41,120,15.0,0.0
19470,82.0,5,60,10.0,0.0
19471,70.0,14,60,11.0,0.0
19472,79.0,5,60,10.0,0.0
19473,67.0,74,60,11.0,0.0
19474,53.0,41,120,15.0,0.0
19475,81.0,5,60,10.0,0.0
19476,69.0,55,60,11.0,0.0
19477,41.0,41,120,15.0,0.0
19478,82.0,5,60,10.0,0.0
19479,70.0,14,60,11.0,0.0
19480,79.0,5,60,10.0,0.0
19481,67.0,74,60,11.0,0.0
19482,53.0,41,120,15.0,0.0
19483,81.0,5,60,10.0,0.0
19484,69.0,55,60,11.0,0.0
19485,41.0,41,120,15.0,0.0
19486,82.0,5,60,10.0,0.0
19487,70.0,14,60,11.0,0.0
19488,79.0,5,60,10.0,0.0
19489,67.0,74,60,11.0,0.0
19490,53.0,41,120,15.0,0.0
19491,81.0,5,60,10.0,0.0
19492,69.0,55,60,11.0,0.0
19493,41.0,41,120,15.0,0.0
19494,82.0,5,60,10.0,0.0
19495,70.0,14,60,11.0,0.0
19496,79.0,5,60,10.0,0.0
19497,67.0,57,60,11.0,0.0
19498,53.0,41,120,15.0,0.0
19499,86.0,5,60,10.0,0.0
19500,88.0,2,960,0.0,0.0
19501,60.0,0,960,6.0,0.0
19502,72.0,1,960,6.0,0.0
19503,76.0,0,960,1.0,0.0
19504,82.0,0,960,1.0,0.0
19505,74.0,4,60,11.0,0.0
19506,62.0,51,60,12.0,0.0
19507,41.0,41,120,15.0,0.0
19508,88.0,5,60,10.0,0.0
19509,76.0,4,60,11.0,0.0
19510,64.0,10,60,12.0,0.0
19511,84.0,5,60,10.0,0.0
19512,72.0,4,60,11.0,0.0
19513,60.0,70,60,12.0,0.0
19514,53.0,41,120,15.0,0.0
19515,86.0,5,60,10.0,0.0
19516,74.0,4,60,11.0,0.0
19517,62.0,51,60,12.0,0.0
19518,41.0,41,120,15.0,0.0
19519,88.0,5,60,10.0,0.0
19520,76.0,4,60,11.0,0.0
19521,64.0,10,60,12.0,0.0
19522,84.0,5,60,10.0,0.0
19523,72.0,4,60,11.0,0.0
19524,60.0,70,60,12.0,0.0
19525,53.0,41,120,15.0,0.0
19526,86.0,5,60,10.0,0.0
19527,74.0,4,60,11.0,0.0
19528,62.0,51,60,12.0,0.0
19529,41.0,41,120,15.0,0.0
19530,88.0,5,60,10.0,0.0
19531,76.0,4,60,11.0,0.0
19532,64.0,10,60,12.0,0.0
19533,84.0,5,60,10.0,0.0
19534,72.0,4,60,11.0,0.0
19535,60.0,70,60,12.0,0.0
19536,53.0,41,120,15.0,0.0
19537,86.0,5,60,10.0,0.0
19538,74.0,4,60,11.0,0.0
19539,62.0,51,60,12.0,0.0
19540,41.0,41,120,15.0,0.0
19541,88.0,5,60,10.0,0.0
19542,76.0,4,60,11.0,0.0
19543,64.0,10,60,12.0,0.0
19544,84.0,5,60,10.0,0.0
19545,72.0,4,60,11.0,0.0
19546,60.0,53,60,12.0,0.0
19547,53.0,13,120,15.0,0.0
19548,69.0,5,30,10.0,0.0
19549,93.0,0,30,10.0,0.0
19550,84.0,2,60,0.0,0.0
19551,89.0,0,60,0.0,0.0
19552,81.0,2,60,1.0,0.0
19553,77.0,0,60,1.0,0.0
19554,69.0,35,30,11.0,0.0
19555,77.0,0,30,11.0,0.0
19556,65.0,2,960,4.0,0.0
19557,65.0,1,60,2.0,0.0
19558,69.0,0,60,2.0,0.0
19559,53.0,6,120,12.0,0.0
19560,57.0,5,960,5.0,0.0
19561,41.0,3,120,13.0,0.0
19562,57.0,0,60,3.0,0.0
19563,53.0,25,60,3.0,0.0
19564,29.0,1,120,14.0,0.0
19565,69.0,0,30,10.0,0.0
19566,93.0,0,30,10.0,0.0
19567,69.0,0,30,11.0,0.0
19568,77.0,2,30,11.0,0.0
19569,41.0,8,15,15.0,0.0
19570,93.0,0,30,10.0,0.0
19571,69.0,5,30,10.0,0.0
19572,89.0,0,60,0.0,0.0
19573,84.0,0,60,0.0,0.0
19574,77.0,2,60,1.0,0.0
19575,69.0,0,60,1.0,0.0
19576,77.0,12,30,11.0,0.0
19577,69.0,0,30,11.0,0.0
19578,77.0,0,60,2.0,0.0
19579,65.0,1,60,2.0,0.0
19580,65.0,0,60,3.0,0.0
19581,53.0,25,60,3.0,0.0
19582,69.0,2,30,10.0,0.0
19583,93.0,0,30,10.0,0.0
19584,69.0,10,30,11.0,0.0
19585,77.0,0,30,11.0,0.0
19586,65.0,6,120,12.0,0.0
19587,53.0,3,120,13.0,0.0
19588,41.0,1,120,14.0,0.0
19589,69.0,5,30,10.0,0.0
19590,93.0,0,30,10.0,0.0
19591,89.0,0,60,0.0,0.0
19592,84.0,0,60,0.0,0.0
19593,77.0,0,60,1.0,0.0
19594,69.0,2,60,1.0,0.0
19595,69.0,2,30,11.0,0.0
19596,77.0,0,30,11.0,0.0
19597,77.0,1,60,2.0,0.0
19598,65.0,0,60,2.0,0.0
19599,65.0,0,60,3.0,0.0
19600,53.0,2,60,3.0,0.0
19601,53.0,33,15,15.0,0.0
19602,93.0,2,30,10.0,0.0
19603,69.0,0,30,10.0,0.0
19604,77.0,10,30,11.0,0.0
19605,69.0,0,30,11.0,0.0
19606,93.0,5,30,10.0,0.0
19607,69.0,0,30,10.0,0.0
19608,84.0,0,60,0.0,0.0
19609,89.0,0,60,0.0,0.0
19610,77.0,2,60,1.0,0.0
19611,69.0,0,60,1.0,0.0
19612,77.0,35,30,11.0,0.0
19613,69.0,0,30,11.0,0.0
19614,65.0,1,60,2.0,0.0
19615,77.0,0,60,2.0,0.0
19616,53.0,6,120,12.0,0.0
19617,41.0,3,120,13.0,0.0
19618,65.0,25,60,3.0,0.0
19619,53.0,0,60,3.0,0.0
19620,29.0,1,120,14.0,0.0
19621,41.0,8,60,15.0,0.0
19622,69.0,2,30,10.0,0.0
19623,93.0,0,30,10.0,0.0
19624,69.0,2,30,11.0,0.0
19625,77.0,0,30,11.0,0.0
19626,41.0,13,60,15.0,0.0
19627,69.0,5,30,10.0,0.0
19628,93.0,0,30,10.0,0.0
19629,89.0,0,60,0.0,0.0
19630,84.0,0,60,0.0,0.0
19631,69.0,0,60,1.0,0.0
19632,77.0,2,60,1.0,0.0
19633,77.0,0,30,11.0,0.0
19634,69.0,12,30,11.0,0.0
19635,77.0,0,60,2.0,0.0
19636,65.0,1,60,2.0,0.0
19637,53.0,0,60,3.0,0.0
19638,65.0,25,60,3.0,0.0
19639,69.0,0,30,10.0,0.0
19640,93.0,2,30,10.0,0.0
19641,77.0,0,30,11.0,0.0
19642,69.0,10,30,11.0,0.0
19643,65.0,6,120,12.0,0.0
19644,53.0,3,120,13.0,0.0
19645,41.0,1,120,14.0,0.0
19646,69.0,5,30,10.0,0.0
19647,93.0,0,30,10.0,0.0
19648,84.0,0,60,0.0,0.0
19649,89.0,0,60,0.0,0.0
19650,77.0,2,60,1.0,0.0
19651,69.0,0,60,1.0,0.0
19652,77.0,2,30,11.0,0.0
19653,69.0,0,30,11.0,0.0
19654,77.0,1,60,2.0,0.0
19655,65.0,0,60,2.0,0.0
19656,65.0,0,60,3.0,0.0
19657,53.0,2,60,3.0,0.0
19658,53.0,33,15,15.0,0.0
19659,93.0,0,30,10.0,0.0
19660,69.0,2,30,10.0,0.0
19661,77.0,0,30,11.0,0.0
19662,69.0,10,30,11.0,0.0
19663,69.0,0,30,10.0,0.0
19664,93.0,5,30,10.0,0.0
19665,84.0,2,60,0.0,0.0
19666,89.0,0,60,0.0,0.0
19667,77.0,0,60,1.0,0.0
19668,69.0,2,60,1.0,0.0
19669,69.0,0,30,11.0,0.0
19670,77.0,35,30,11.0,0.0
19671,77.0,1,60,2.0,0.0
19672,65.0,0,60,2.0,0.0
19673,53.0,6,120,12.0,0.0
19674,41.0,3,120,13.0,0.0
19675,53.0,0,60,3.0,0.0
19676,65.0,25,60,3.0,0.0
19677,29.0,1,120,14.0,0.0
19678,41.0,8,60,15.0,0.0
19679,93.0,0,30,10.0,0.0
19680,69.0,0,30,10.0,0.0
19681,77.0,2,30,11.0,0.0
19682,69.0,0,30,11.0,0.0
19683,41.0,13,60,15.0,0.0
19684,69.0,0,30,10.0,0.0
19685,93.0,5,30,10.0,0.0
19686,84.0,0,60,0.0,0.0
19687,89.0,0,60,0.0,0.0
19688,69.0,2,60,1.0,0.0
19689,77.0,0,60,1.0,0.0
19690,77.0,0,30,11.0,0.0
19691,69.0,12,30,11.0,0.0
19692,77.0,1,60,2.0,0.0
19693,65.0,0,60,2.0,0.0
19694,53.0,0,60,3.0,0.0
19695,65.0,25,60,3.0,0.0
19696,69.0,2,30,10.0,0.0
19697,93.0,0,30,10.0,0.0
19698,77.0,0,30,11.0,0.0
19699,69.0,10,30,11.0,0.0
19700,65.0,6,120,12.0,0.0
19701,53.0,3,120,13.0,0.0
19702,41.0,1,120,14.0,0.0
19703,93.0,5,30,10.0,0.0
19704,69.0,0,30,10.0,0.0
19705,84.0,2,60,0.0,0.0
19706,89.0,0,60,0.0,0.0
19707,69.0,0,60,1.0,0.0
19708,77.0,2,60,1.0,0.0
19709,77.0,2,30,11.0,0.0
19710,69.0,0,30,11.0,0.0
19711,77.0,1,60,2.0,0.0
19712,65.0,0,60,2.0,0.0
19713,65.0,2,60,3.0,0.0
19714,53.0,0,60,3.0,0.0
19715,53.0,33,15,15.0,0.0
19716,69.0,0,30,10.0,0.0
19717,93.0,0,30,10.0,0.0
19718,69.0,0,30,11.0,0.0
19719,77.0,10,30,11.0,0.0
19720,93.0,5,30,10.0,0.0
19721,69.0,0,30,10.0,0.0
19722,84.0,0,60,0.0,0.0
19723,89.0,0,60,0.0,0.0
19724,69.0,0,60,1.0,0.0
19725,77.0,2,60,1.0,0.0
19726,69.0,0,30,11.0,0.0
19727,77.0,35,30,11.0,0.0
19728,65.0,1,60,2.0,0.0
19729,77.0,0,60,2.0,0.0
19730,53.0,6,120,12.0,0.0
19731,41.0,3,120,13.0,0.0
19732,65.0,25,60,3.0,0.0
19733,53.0,0,60,3.0,0.0
19734,29.0,1,120,14.0,0.0
19735,69.0,2,30,10.0,0.0
19736,93.0,0,30,10.0,0.0
19737,69.0,0,30,11.0,0.0
19738,77.0,2,30,11.0,0.0
19739,41.0,8,15,15.0,0.0
19740,93.0,5,30,10.0,0.0
19741,69.0,0,30,10.0,0.0
19742,89.0,0,60,0.0,0.0
19743,84.0,0,60,0.0,0.0
19744,77.0,0,60,1.0,0.0
19745,69.0,2,60,1.0,0.0
19746,77.0,0,30,11.0,0.0
19747,69.0,12,30,11.0,0.0
19748,77.0,1,60,2.0,0.0
19749,65.0,0,60,2.0,0.0
19750,65.0,0,60,3.0,0.0
19751,53.0,25,60,3.0,0.0
19752,93.0,2,30,10.0,0.0
19753,69.0,0,30,10.0,0.0
19754,69.0,0,30,11.0,0.0
19755,77.0,10,30,11.0,0.0
19756,65.0,1,120,12.0,0.0
19757,53.0,3,120,13.0,0.0
19758,41.0,1,120,14.0,0.0
19759,53.0,33,60,15.0,0.0
19760,69.0,0,30,10.0,0.0
19761,93.0,5,30,10.0,0.0
19762,89.0,0,60,0.0,0.0
19763,84.0,2,60,0.0,0.0
19764,69.0,0,60,1.0,0.0
19765,77.0,2,60,1.0,0.0
19766,77.0,2,30,11.0,0.0
19767,69.0,0,30,11.0,0.0
19768,65.0,1,60,2.0,0.0
19769,77.0,0,60,2.0,0.0
19770,65.0,2,60,3.0,0.0
19771,53.0,0,60,3.0,0.0
19772,53.0,101,60,15.0,0.0
19773,69.0,0,30,10.0,0.0
19774,93.0,0,30,10.0,0.0
19775,69.0,0,30,11.0,0.0
19776,77.0,7,30,11.0,0.0
19777,93.0,0,120,10.0,0.0
19778,69.0,2,120,10.0,0.0
19779,84.0,2,120,0.0,0.0
19780,89.0,0,120,0.0,0.0
19781,77.0,1,15,6.0,0.0
19782,69.0,0,15,6.0,0.0
19783,77.0,0,120,1.0,0.0
19784,69.0,0,120,1.0,0.0
19785,77.0,0,120,11.0,0.0
19786,65.0,1,120,4.0,0.0
19787,69.0,0,120,11.0,0.0
19788,77.0,3,120,2.0,0.0
19789,65.0,0,120,2.0,0.0
19790,53.0,1,120,12.0,0.0
19791,57.0,5,120,5.0,0.0
19792,41.0,2,120,13.0,0.0
19793,41.0,1,120,3.0,0.0
19794,29.0,1,120,14.0,0.0
19795,41.0,461,120,15.0,0.0
19796,91.0,2,120,10.0,0.0
19797,88.0,2,120,0.0,0.0
19798,91.0,0,120,0.0,0.0
19799,72.0,0,120,6.0,0.0
19800,79.0,1,120,6.0,0.0
19801,79.0,0,120,1.0,0.0
19802,76.0,0,120,1.0,0.0
19803,72.0,0,120,11.0,0.0
19804,79.0,0,120,11.0,0.0
19805,64.0,0,120,11.0,0.0
19806,67.0,1,120,4.0,0.0
19807,76.0,0,120,2.0,0.0
19808,67.0,3,120,2.0,0.0
19809,60.0,0,120,12.0,0.0
19810,48.0,1,120,12.0,0.0
19811,60.0,5,120,5.0,0.0
19812,48.0,2,120,13.0,0.0
19813,48.0,1,120,3.0,0.0
19814,36.0,462,120,14.0,0.0
19815,93.0,2,120,10.0,0.0
19816,69.0,0,120,10.0,0.0
19817,84.0,2,120,0.0,0.0
19818,89.0,0,120,0.0,0.0
19819,69.0,0,120,1.0,0.0
19820,77.0,0,120,1.0,0.0
19821,69.0,0,120,6.0,0.0
19822,77.0,1,120,6.0,0.0
19823,69.0,0,120,11.0,0.0
19824,65.0,0,120,4.0,0.0
19825,77.0,1,120,11.0,0.0
19826,69.0,3,120,2.0,0.0
19827,77.0,0,120,2.0,0.0
19828,53.0,1,120,12.0,0.0
19829,57.0,5,120,5.0,0.0
19830,41.0,2,120,13.0,0.0
19831,41.0,1,120,3.0,0.0
19832,29.0,1,120,14.0,0.0
19833,41.0,461,120,15.0,0.0
19834,91.0,2,120,10.0,0.0
19835,88.0,0,120,0.0,0.0
19836,91.0,2,120,0.0,0.0
19837,79.0,0,120,6.0,0.0
19838,79.0,0,120,1.0,0.0
19839,76.0,1,120,1.0,0.0
19840,72.0,0,120,6.0,0.0
19841,67.0,0,120,4.0,0.0
19842,64.0,1,120,11.0,0.0
19843,72.0,0,120,11.0,0.0
19844,79.0,0,120,11.0,0.0
19845,76.0,3,120,2.0,0.0
19846,67.0,0,120,2.0,0.0
19847,48.0,1,120,12.0,0.0
19848,60.0,0,120,12.0,0.0
19849,60.0,5,120,5.0,0.0
19850,48.0,2,120,13.0,0.0
19851,48.0,1,120,3.0,0.0
19852,36.0,462,120,14.0,0.0
19853,93.0,0,120,10.0,0.0
19854,69.0,2,120,10.0,0.0
19855,89.0,0,120,0.0,0.0
19856,84.0,2,120,0.0,0.0
19857,69.0,0,120,6.0,0.0
19858,77.0,0,120,6.0,0.0
19859,77.0,0,120,1.0,0.0
19860,69.0,1,120,1.0,0.0
19861,65.0,0,120,4.0,0.0
19862,69.0,1,120,11.0,0.0
19863,77.0,0,120,11.0,0.0
19864,77.0,3,120,2.0,0.0
19865,69.0,0,120,2.0,0.0
19866,53.0,1,120,12.0,0.0
19867,57.0,5,120,5.0,0.0
19868,41.0,2,120,13.0,0.0
19869,41.0,1,120,3.0,0.0
19870,29.0,1,120,14.0,0.0
19871,41.0,221,120,15.0,0.0
19872,91.0,2,120,10.0,0.0
19873,88.0,0,120,0.0,0.0
19874,91.0,2,120,0.0,0.0
19875,76.0,0,120,1.0,0.0
19876,72.0,0,120,6.0,0.0
19877,79.0,1,120,1.0,0.0
19878,79.0,0,120,6.0,0.0
19879,67.0,0,120,4.0,0.0
19880,79.0,0,120,11.0,0.0
19881,64.0,1,120,11.0,0.0
19882,72.0,0,120,11.0,0.0
19883,76.0,0,120,2.0,0.0
19884,67.0,3,120,2.0,0.0
19885,60.0,0,120,12.0,0.0
19886,48.0,1,120,12.0,0.0
19887,60.0,5,120,5.0,0.0
19888,48.0,2,120,13.0,0.0
19889,48.0,1,120,3.0,0.0
19890,36.0,222,120,14.0,0.0
19891,69.0,2,120,10.0,0.0
19892,93.0,0,120,10.0,0.0
19893,89.0,0,120,0.0,0.0
19894,84.0,2,120,0.0,0.0
19895,69.0,1,120,6.0,0.0
19896,77.0,0,120,1.0,0.0
19897,77.0,0,120,6.0,0.0
19898,69.0,0,120,1.0,0.0
19899,77.0,1,120,11.0,0.0
19900,69.0,0,120,11.0,0.0
19901,65.0,0,120,4.0,0.0
19902,77.0,3,120,2.0,0.0
19903,69.0,0,120,2.0,0.0
19904,53.0,1,120,12.0,0.0
19905,57.0,5,120,5.0,0.0
19906,41.0,2,120,13.0,0.0
19907,41.0,1,120,3.0,0.0
19908,29.0,1,120,14.0,0.0
19909,41.0,221,120,15.0,0.0
19910,91.0,2,120,10.0,0.0
19911,91.0,2,120,0.0,0.0
19912,88.0,0,120,0.0,0.0
19913,79.0,0,120,1.0,0.0
19914,72.0,1,120,6.0,0.0
19915,79.0,0,120,6.0,0.0
19916,76.0,0,120,1.0,0.0
19917,79.0,0,120,11.0,0.0
19918,72.0,0,120,11.0,0.0
19919,64.0,1,120,11.0,0.0
19920,67.0,0,120,4.0,0.0
19921,76.0,0,120,2.0,0.0
19922,67.0,3,120,2.0,0.0
19923,48.0,0,120,12.0,0.0
19924,60.0,1,120,12.0,0.0
19925,60.0,5,120,5.0,0.0
19926,48.0,2,120,13.0,0.0
19927,48.0,1,120,3.0,0.0
19928,36.0,222,120,14.0,0.0
19929,69.0,2,120,10.0,0.0
19930,93.0,0,120,10.0,0.0
19931,84.0,2,120,0.0,0.0
19932,89.0,0,120,0.0,0.0
19933,77.0,0,120,1.0,0.0
19934,77.0,1,120,6.0,0.0
19935,69.0,0,120,6.0,0.0
19936,69.0,0,120,1.0,0.0
19937,69.0,1,120,11.0,0.0
19938,65.0,0,120,4.0,0.0
19939,77.0,0,120,11.0,0.0
19940,77.0,0,120,2.0,0.0
19941,69.0,3,120,2.0,0.0
19942,53.0,1,120,12.0,0.0
19943,57.0,5,120,5.0,0.0
19944,41.0,2,120,13.0,0.0
19945,41.0,1,120,3.0,0.0
19946,29.0,1,120,14.0,0.0
19947,41.0,221,120,15.0,0.0
19948,91.0,2,120,10.0,0.0
19949,91.0,0,120,0.0,0.0
19950,88.0,2,120,0.0,0.0
19951,76.0,0,120,1.0,0.0
19952,79.0,0,120,1.0,0.0
19953,79.0,0,120,6.0,0.0
19954,72.0,1,120,6.0,0.0
19955,64.0,0,120,11.0,0.0
19956,72.0,1,120,11.0,0.0
19957,79.0,0,120,11.0,0.0
19958,67.0,0,120,4.0,0.0
19959,67.0,0,120,2.0,0.0
19960,76.0,3,120,2.0,0.0
19961,60.0,0,120,12.0,0.0
19962,48.0,1,120,12.0,0.0
19963,60.0,5,120,5.0,0.0
19964,48.0,2,120,13.0,0.0
19965,48.0,1,120,3.0,0.0
19966,36.0,222,120,14.0,0.0
19967,93.0,0,120,10.0,0.0
19968,69.0,2,120,10.0,0.0
19969,84.0,2,120,0.0,0.0
19970,89.0,0,120,0.0,0.0
19971,77.0,1,120,1.0,0.0
19972,69.0,0,120,1.0,0.0
19973,69.0,0,120,6.0,0.0
19974,77.0,0,120,6.0,0.0
19975,69.0,0,120,11.0,0.0
19976,77.0,1,120,11.0,0.0
19977,65.0,0,120,4.0,0.0
19978,69.0,3,120,2.0,0.0
19979,77.0,0,120,2.0,0.0
19980,53.0,1,120,12.0,0.0
19981,57.0,5,120,5.0,0.0
19982,41.0,2,120,13.0,0.0
19983,41.0,1,120,3.0,0.0
19984,29.0,1,120,14.0,0.0
19985,41.0,221,120,15.0,0.0
19986,91.0,2,120,10.0,0.0
19987,88.0,0,120,0.0,0.0
19988,91.0,2,120,0.0,0.0
19989,79.0,0,120,6.0,0.0
19990,72.0,0,120,6.0,0.0
19991,76.0,1,120,1.0,0.0
19992,79.0,0,120,1.0,0.0
19993,64.0,0,120,11.0,0.0
19994,79.0,0,120,11.0,0.0
19995,67.0,0,120,4.0,0.0
19996,72.0,1,120,11.0,0.0
19997,76.0,3,120,2.0,0.0
19998,67.0,0,120,2.0,0.0
19999,60.0,0,120,12.0,0.0
20000,48.0,1,120,12.0,0.0
20001,60.0,5,120,5.0,0.0
20002,48.0,2,120,13.0,0.0
20003,48.0,1,120,3.0,0.0
20004,36.0,134,120,14.0,0.0
20005,69.0,5,30,10.0,0.0
20006,93.0,0,30,10.0,0.0
20007,89.0,0,60,0.0,0.0
20008,93.0,2,60,0.0,0.0
20009,77.0,2,60,1.0,0.0
20010,81.0,0,60,1.0,0.0
20011,69.0,35,30,11.0,0.0
20012,77.0,0,30,11.0,0.0
20013,65.0,1,60,2.0,0.0
20014,69.0,0,60,2.0,0.0
20015,53.0,6,120,12.0,0.0
20016,41.0,3,120,13.0,0.0
20017,57.0,25,60,3.0,0.0
20018,53.0,0,60,3.0,0.0
20019,29.0,1,120,14.0,0.0
20020,41.0,8,60,15.0,0.0
20021,69.0,0,30,10.0,0.0
20022,93.0,0,30,10.0,0.0
20023,81.0,0,30,11.0,0.0
20024,69.0,2,30,11.0,0.0
20025,41.0,13,60,15.0,0.0
20026,93.0,0,30,10.0,0.0
20027,69.0,5,30,10.0,0.0
20028,89.0,0,60,0.0,0.0
20029,93.0,0,60,0.0,0.0
20030,81.0,0,60,1.0,0.0
20031,77.0,2,60,1.0,0.0
20032,81.0,0,30,11.0,0.0
20033,69.0,12,30,11.0,0.0
20034,65.0,0,60,2.0,0.0
20035,69.0,1,60,2.0,0.0
20036,53.0,0,60,3.0,0.0
20037,57.0,25,60,3.0,0.0
20038,93.0,0,30,10.0,0.0
20039,69.0,2,30,10.0,0.0
20040,81.0,0,30,11.0,0.0
20041,69.0,10,30,11.0,0.0
20042,65.0,6,120,12.0,0.0
20043,53.0,3,120,13.0,0.0
20044,41.0,1,120,14.0,0.0
20045,53.0,33,60,15.0,0.0
20046,69.0,5,30,10.0,0.0
20047,93.0,0,30,10.0,0.0
20048,89.0,2,60,0.0,0.0
20049,93.0,0,60,0.0,0.0
20050,77.0,2,60,1.0,0.0
20051,81.0,0,60,1.0,0.0
20052,81.0,2,30,11.0,0.0
20053,69.0,0,30,11.0,0.0
20054,65.0,0,60,2.0,0.0
20055,69.0,1,60,2.0,0.0
20056,53.0,0,60,3.0,0.0
20057,57.0,2,60,3.0,0.0
20058,53.0,13,60,15.0,0.0
20059,69.0,0,30,10.0,0.0
20060,93.0,0,30,10.0,0.0
20061,81.0,10,30,11.0,0.0
20062,69.0,0,30,11.0,0.0
20063,69.0,0,30,10.0,0.0
20064,93.0,5,30,10.0,0.0
20065,93.0,0,60,0.0,0.0
20066,89.0,0,60,0.0,0.0
20067,77.0,0,60,1.0,0.0
20068,81.0,2,60,1.0,0.0
20069,81.0,35,30,11.0,0.0
20070,69.0,0,30,11.0,0.0
20071,69.0,0,60,2.0,0.0
20072,65.0,1,60,2.0,0.0
20073,53.0,6,120,12.0,0.0
20074,41.0,3,120,13.0,0.0
20075,57.0,0,60,3.0,0.0
20076,53.0,25,60,3.0,0.0
20077,29.0,1,120,14.0,0.0
20078,93.0,2,30,10.0,0.0
20079,69.0,0,30,10.0,0.0
20080,81.0,0,30,11.0,0.0
20081,69.0,2,30,11.0,0.0
20082,41.0,8,15,15.0,0.0
20083,69.0,5,30,10.0,0.0
20084,93.0,0,30,10.0,0.0
20085,93.0,0,60,0.0,0.0
20086,89.0,0,60,0.0,0.0
20087,81.0,2,60,1.0,0.0
20088,77.0,0,60,1.0,0.0
20089,69.0,0,30,11.0,0.0
20090,81.0,12,30,11.0,0.0
20091,69.0,1,60,2.0,0.0
20092,65.0,0,60,2.0,0.0
20093,53.0,0,60,3.0,0.0
20094,57.0,25,60,3.0,0.0
20095,93.0,2,30,10.0,0.0
20096,69.0,0,30,10.0,0.0
20097,69.0,0,30,11.0,0.0
20098,81.0,10,30,11.0,0.0
20099,65.0,6,120,12.0,0.0
20100,53.0,3,120,13.0,0.0
20101,41.0,1,120,14.0,0.0
20102,93.0,0,30,10.0,0.0
20103,69.0,5,30,10.0,0.0
20104,89.0,0,60,0.0,0.0
20105,93.0,0,60,0.0,0.0
20106,81.0,2,60,1.0,0.0
20107,77.0,0,60,1.0,0.0
20108,69.0,0,30,11.0,0.0
20109,81.0,2,30,11.0,0.0
20110,65.0,1,60,2.0,0.0
20111,69.0,0,60,2.0,0.0
20112,57.0,2,60,3.0,0.0
20113,53.0,0,60,3.0,0.0
20114,53.0,33,15,15.0,0.0
20115,69.0,0,30,10.0,0.0
20116,93.0,2,30,10.0,0.0
20117,69.0,0,30,11.0,0.0
20118,81.0,10,30,11.0,0.0
20119,69.0,0,30,10.0,0.0
20120,93.0,5,30,10.0,0.0
20121,89.0,0,60,0.0,0.0
20122,93.0,0,60,0.0,0.0
20123,81.0,0,60,1.0,0.0
20124,77.0,2,60,1.0,0.0
20125,81.0,0,30,11.0,0.0
20126,69.0,35,30,11.0,0.0
20127,65.0,1,60,2.0,0.0
20128,69.0,0,60,2.0,0.0
20129,53.0,6,120,12.0,0.0
20130,41.0,3,120,13.0,0.0
20131,57.0,0,60,3.0,0.0
20132,53.0,25,60,3.0,0.0
20133,29.0,1,120,14.0,0.0
20134,41.0,8,60,15.0,0.0
20135,69.0,0,30,10.0,0.0
20136,93.0,2,30,10.0,0.0
20137,81.0,2,30,11.0,0.0
20138,69.0,0,30,11.0,0.0
20139,41.0,13,60,15.0,0.0
20140,93.0,0,30,10.0,0.0
20141,69.0,5,30,10.0,0.0
20142,93.0,0,60,0.0,0.0
20143,89.0,0,60,0.0,0.0
20144,77.0,0,60,1.0,0.0
20145,81.0,2,60,1.0,0.0
20146,81.0,12,30,11.0,0.0
20147,69.0,0,30,11.0,0.0
20148,69.0,0,60,2.0,0.0
20149,65.0,1,60,2.0,0.0
20150,53.0,25,60,3.0,0.0
20151,57.0,0,60,3.0,0.0
20152,93.0,2,30,10.0,0.0
20153,69.0,0,30,10.0,0.0
20154,69.0,10,30,11.0,0.0
20155,81.0,0,30,11.0,0.0
20156,65.0,6,120,12.0,0.0
20157,53.0,3,120,13.0,0.0
20158,41.0,1,120,14.0,0.0
20159,93.0,5,30,10.0,0.0
20160,69.0,0,30,10.0,0.0
20161,93.0,0,60,0.0,0.0
20162,89.0,2,60,0.0,0.0
20163,77.0,2,60,1.0,0.0
20164,81.0,0,60,1.0,0.0
20165,69.0,0,30,11.0,0.0
20166,81.0,2,30,11.0,0.0
20167,65.0,0,60,2.0,0.0
20168,69.0,1,60,2.0,0.0
20169,57.0,2,60,3.0,0.0
20170,53.0,0,60,3.0,0.0
20171,53.0,33,15,15.0,0.0
20172,93.0,0,30,10.0,0.0
20173,69.0,0,30,10.0,0.0
20174,81.0,10,30,11.0,0.0
20175,69.0,0,30,11.0,0.0
20176,93.0,5,30,10.0,0.0
20177,69.0,0,30,10.0,0.0
20178,89.0,0,60,0.0,0.0
20179,93.0,0,60,0.0,0.0
20180,77.0,0,60,1.0,0.0
20181,81.0,2,60,1.0,0.0
20182,81.0,0,30,11.0,0.0
20183,69.0,35,30,11.0,0.0
20184,69.0,0,60,2.0,0.0
20185,65.0,1,60,2.0,0.0
20186,53.0,6,120,12.0,0.0
20187,41.0,3,120,13.0,0.0
20188,53.0,0,60,3.0,0.0
20189,57.0,25,60,3.0,0.0
20190,29.0,1,120,14.0,0.0
20191,41.0,8,60,15.0,0.0
20192,69.0,2,30,10.0,0.0
20193,93.0,0,30,10.0,0.0
20194,81.0,0,30,11.0,0.0
20195,69.0,2,30,11.0,0.0
20196,41.0,13,60,15.0,0.0
20197,93.0,0,30,10.0,0.0
20198,69.0,5,30,10.0,0.0
20199,89.0,2,60,0.0,0.0
20200,93.0,0,60,0.0,0.0
20201,81.0,0,60,1.0,0.0
20202,77.0,2,60,1.0,0.0
20203,69.0,0,30,11.0,0.0
20204,81.0,12,30,11.0,0.0
20205,65.0,0,60,2.0,0.0
20206,69.0,1,60,2.0,0.0
20207,57.0,25,60,3.0,0.0
20208,53.0,0,60,3.0,0.0
20209,93.0,0,30,10.0,0.0
20210,69.0,0,30,10.0,0.0
20211,81.0,10,30,11.0,0.0
20212,69.0,0,30,11.0,0.0
20213,65.0,1,120,12.0,0.0
20214,53.0,3,120,13.0,0.0
20215,41.0,1,120,14.0,0.0
20216,93.0,0,30,10.0,0.0
20217,69.0,5,30,10.0,0.0
20218,93.0,0,60,0.0,0.0
20219,89.0,0,60,0.0,0.0
20220,81.0,0,60,1.0,0.0
20221,77.0,2,60,1.0,0.0
20222,69.0,0,30,11.0,0.0
20223,81.0,2,30,11.0,0.0
20224,69.0,0,60,2.0,0.0
20225,65.0,1,60,2.0,0.0
20226,53.0,2,60,3.0,0.0
20227,57.0,0,60,3.0,0.0
20228,53.0,33,15,15.0,0.0
20229,69.0,2,30,10.0,0.0
20230,93.0,0,30,10.0,0.0
20231,81.0,7,30,11.0,0.0
20232,69.0,0,30,11.0,0.0
20233,69.0,2,120,10.0,0.0
20234,93.0,0,120,10.0,0.0
20235,93.0,2,120,0.0,0.0
20236,89.0,0,120,0.0,0.0
20237,81.0,0,15,6.0,0.0
20238,69.0,1,15,6.0,0.0
20239,77.0,0,120,1.0,0.0
20240,81.0,0,120,1.0,0.0
20241,81.0,0,120,11.0,0.0
20242,69.0,2,15,4.0,0.0
20243,69.0,0,120,11.0,0.0
20244,77.0,3,120,2.0,0.0
20245,65.0,0,120,2.0,0.0
20246,53.0,1,120,12.0,0.0
20247,57.0,5,15,5.0,0.0
20248,41.0,2,120,13.0,0.0
20249,57.0,0,120,3.0,0.0
20250,53.0,1,120,3.0,0.0
20251,29.0,1,120,14.0,0.0
20252,41.0,461,120,15.0,0.0
20253,69.0,2,120,10.0,0.0
20254,93.0,0,120,10.0,0.0
20255,93.0,0,120,0.0,0.0
20256,89.0,2,120,0.0,0.0
20257,81.0,1,120,1.0,0.0
20258,77.0,0,120,1.0,0.0
20259,69.0,0,120,6.0,0.0
20260,81.0,0,120,6.0,0.0
20261,69.0,0,120,11.0,0.0
20262,81.0,0,120,11.0,0.0
20263,69.0,1,120,4.0,0.0
20264,77.0,0,120,2.0,0.0
20265,65.0,3,120,2.0,0.0
20266,60.0,1,120,12.0,0.0
20267,48.0,0,120,12.0,0.0
20268,57.0,5,120,5.0,0.0
20269,48.0,2,120,13.0,0.0
20270,48.0,1,120,3.0,0.0
20271,36.0,1,120,14.0,0.0
20272,53.0,461,120,15.0,0.0
20273,69.0,2,120,10.0,0.0
20274,93.0,0,120,10.0,0.0
20275,89.0,0,120,0.0,0.0
20276,93.0,2,120,0.0,0.0
20277,77.0,0,120,1.0,0.0
20278,69.0,0,120,6.0,0.0
20279,81.0,0,120,6.0,0.0
20280,81.0,1,120,1.0,0.0
20281,81.0,1,120,11.0,0.0
20282,69.0,0,120,11.0,0.0
20283,69.0,0,120,4.0,0.0
20284,65.0,3,120,2.0,0.0
20285,77.0,0,120,2.0,0.0
20286,53.0,1,120,12.0,0.0
20287,57.0,5,120,5.0,0.0
20288,41.0,2,120,13.0,0.0
20289,41.0,1,120,3.0,0.0
20290,29.0,1,120,14.0,0.0
20291,41.0,461,120,15.0,0.0
20292,69.0,0,120,10.0,0.0
20293,93.0,2,120,10.0,0.0
20294,89.0,2,120,0.0,0.0
20295,93.0,0,120,0.0,0.0
20296,77.0,1,120,1.0,0.0
20297,81.0,0,120,6.0,0.0
20298,69.0,0,120,6.0,0.0
20299,81.0,0,120,1.0,0.0
20300,81.0,0,120,11.0,0.0
20301,69.0,0,120,11.0,0.0
20302,69.0,1,120,4.0,0.0
20303,77.0,0,120,2.0,0.0
20304,65.0,3,120,2.0,0.0
20305,60.0,0,120,12.0,0.0
20306,48.0,1,120,12.0,0.0
20307,57.0,5,120,5.0,0.0
20308,48.0,2,120,13.0,0.0
20309,48.0,1,120,3.0,0.0
20310,36.0,1,120,14.0,0.0
20311,53.0,461,120,15.0,0.0
20312,93.0,0,120,10.0,0.0
20313,69.0,2,120,10.0,0.0
20314,93.0,2,120,0.0,0.0
20315,89.0,0,120,0.0,0.0
20316,77.0,1,120,1.0,0.0
20317,81.0,0,120,1.0,0.0
20318,69.0,0,120,6.0,0.0
20319,81.0,0,120,6.0,0.0
20320,69.0,1,120,11.0,0.0
20321,69.0,0,120,4.0,0.0
20322,81.0,0,120,11.0,0.0
20323,65.0,0,120,2.0,0.0
20324,77.0,3,120,2.0,0.0
20325,53.0,1,120,12.0,0.0
20326,57.0,5,120,5.0,0.0
20327,41.0,2,120,13.0,0.0
20328,41.0,1,120,3.0,0.0
20329,29.0,1,120,14.0,0.0
20330,41.0,221,120,15.0,0.0
20331,93.0,2,120,10.0,0.0
20332,69.0,0,120,10.0,0.0
20333,93.0,0,120,0.0,0.0
20334,89.0,2,120,0.0,0.0
20335,81.0,0,120,1.0,0.0
20336,81.0,1,120,6.0,0.0
20337,77.0,0,120,1.0,0.0
20338,69.0,0,120,6.0,0.0
20339,69.0,0,120,4.0,0.0
20340,81.0,0,120,11.0,0.0
20341,69.0,1,120,11.0,0.0
20342,77.0,3,120,2.0,0.0
20343,65.0,0,120,2.0,0.0
20344,60.0,0,120,12.0,0.0
20345,48.0,1,120,12.0,0.0
20346,57.0,5,120,5.0,0.0
20347,48.0,2,120,13.0,0.0
20348,48.0,1,120,3.0,0.0
20349,36.0,1,120,14.0,0.0
20350,53.0,221,120,15.0,0.0
20351,69.0,0,120,10.0,0.0
20352,93.0,2,120,10.0,0.0
20353,93.0,0,120,0.0,0.0
20354,89.0,2,120,0.0,0.0
20355,77.0,1,120,1.0,0.0
20356,81.0,0,120,6.0,0.0
20357,69.0,0,120,6.0,0.0
20358,81.0,0,120,1.0,0.0
20359,81.0,0,120,11.0,0.0
20360,69.0,1,120,11.0,0.0
20361,69.0,0,120,4.0,0.0
20362,77.0,3,120,2.0,0.0
20363,65.0,0,120,2.0,0.0
20364,53.0,1,120,12.0,0.0
20365,57.0,5,120,5.0,0.0
20366,41.0,2,120,13.0,0.0
20367,41.0,1,120,3.0,0.0
20368,29.0,1,120,14.0,0.0
20369,41.0,221,120,15.0,0.0
20370,93.0,2,120,10.0,0.0
20371,69.0,0,120,10.0,0.0
20372,89.0,0,120,0.0,0.0
20373,93.0,2,120,0.0,0.0
20374,77.0,0,120,1.0,0.0
20375,81.0,0,120,1.0,0.0
20376,81.0,0,120,6.0,0.0
20377,69.0,1,120,6.0,0.0
20378,69.0,0,120,11.0,0.0
20379,81.0,1,120,11.0,0.0
20380,69.0,0,120,4.0,0.0
20381,77.0,3,120,2.0,0.0
20382,65.0,0,120,2.0,0.0
20383,60.0,0,120,12.0,0.0
20384,48.0,1,120,12.0,0.0
20385,57.0,5,120,5.0,0.0
20386,48.0,2,120,13.0,0.0
20387,48.0,1,120,3.0,0.0
20388,36.0,1,120,14.0,0.0
20389,53.0,221,120,15.0,0.0
20390,93.0,0,120,10.0,0.0
20391,69.0,2,120,10.0,0.0
20392,89.0,0,120,0.0,0.0
20393,93.0,2,120,0.0,0.0
20394,81.0,1,120,6.0,0.0
20395,77.0,0,120,1.0,0.0
20396,69.0,0,120,6.0,0.0
20397,81.0,0,120,1.0,0.0
20398,69.0,0,120,11.0,0.0
20399,81.0,1,120,11.0,0.0
20400,69.0,0,120,4.0,0.0
20401,65.0,3,120,2.0,0.0
20402,77.0,0,120,2.0,0.0
20403,53.0,1,120,12.0,0.0
20404,57.0,5,120,5.0,0.0
20405,41.0,2,120,13.0,0.0
20406,41.0,1,120,3.0,0.0
20407,29.0,1,120,14.0,0.0
20408,41.0,221,120,15.0,0.0
20409,93.0,2,120,10.0,0.0
20410,69.0,0,120,10.0,0.0
20411,89.0,2,120,0.0,0.0
20412,93.0,0,120,0.0,0.0
20413,81.0,0,120,1.0,0.0
20414,60.0,1,120,6.0,0.0
20415,77.0,0,120,1.0,0.0
20416,81.0,0,120,11.0,0.0
20417,69.0,0,120,11.0,0.0
20418,60.0,1,120,4.0,0.0
20419,77.0,3,120,2.0,0.0
20420,65.0,0,120,2.0,0.0
20421,60.0,0,120,12.0,0.0
20422,48.0,1,120,12.0,0.0
20423,48.0,5,120,5.0,0.0
20424,48.0,2,120,13.0,0.0
20425,48.0,1,120,3.0,0.0
20426,36.0,1,120,14.0,0.0
20427,53.0,221,120,15.0,0.0
20428,69.0,0,120,10.0,0.0
20429,93.0,2,120,10.0,0.0
20430,89.0,0,120,0.0,0.0
20431,93.0,2,120,0.0,0.0
20432,81.0,0,120,1.0,0.0
20433,65.0,0,120,6.0,0.0
20434,77.0,1,120,1.0,0.0
20435,53.0,0,120,4.0,0.0
20436,81.0,1,120,11.0,0.0
20437,69.0,0,120,11.0,0.0
20438,77.0,0,120,2.0,0.0
20439,65.0,3,120,2.0,0.0
20440,65.0,1,120,12.0,0.0
20441,53.0,5,120,5.0,0.0
20442,53.0,2,120,13.0,0.0
20443,53.0,1,120,3.0,0.0
20444,41.0,1,120,14.0,0.0
20445,53.0,221,120,15.0,0.0
20446,93.0,0,120,10.0,0.0
20447,69.0,2,120,10.0,0.0
20448,89.0,0,120,0.0,0.0
20449,93.0,2,120,0.0,0.0
20450,77.0,1,120,1.0,0.0
20451,81.0,0,120,1.0,0.0
20452,69.0,0,120,6.0,0.0
20453,81.0,0,120,11.0,0.0
20454,69.0,0,120,11.0,0.0
20455,57.0,1,120,4.0,0.0
20456,77.0,3,120,2.0,0.0
20457,65.0,0,120,2.0,0.0
20458,69.0,1,120,12.0,0.0
20459,57.0,5,120,5.0,0.0
20460,57.0,2,120,13.0,0.0
20461,57.0,1,120,3.0,0.0
20462,45.0,1,120,14.0,0.0
20463,53.0,221,120,15.0,0.0
20464,69.0,0,120,10.0,0.0
20465,93.0,2,120,10.0,0.0
20466,89.0,2,120,0.0,0.0
20467,93.0,0,120,0.0,0.0
20468,77.0,0,120,1.0,0.0
20469,81.0,1,120,1.0,0.0
20470,72.0,0,120,6.0,0.0
20471,69.0,1,120,11.0,0.0
20472,81.0,0,120,11.0,0.0
20473,60.0,0,120,4.0,0.0
20474,65.0,0,120,2.0,0.0
20475,77.0,3,120,2.0,0.0
20476,72.0,1,120,12.0,0.0
20477,60.0,5,120,5.0,0.0
20478,60.0,2,120,13.0,0.0
20479,60.0,1,120,3.0,0.0
20480,48.0,1,120,14.0,0.0
20481,53.0,461,120,15.0,0.0
20482,93.0,0,120,10.0,0.0
20483,69.0,2,120,10.0,0.0
20484,89.0,0,120,0.0,0.0
20485,93.0,2,120,0.0,0.0
20486,77.0,1,120,6.0,0.0
20487,77.0,0,120,1.0,0.0
20488,81.0,0,120,1.0,0.0
20489,81.0,1,120,11.0,0.0
20490,69.0,0,120,11.0,0.0
20491,65.0,0,120,4.0,0.0
20492,81.0,0,120,2.0,0.0
20493,77.0,3,120,2.0,0.0
20494,65.0,1,120,12.0,0.0
20495,65.0,5,120,5.0,0.0
20496,65.0,2,120,13.0,0.0
20497,65.0,1,120,3.0,0.0
20498,53.0,1,120,14.0,0.0
20499,53.0,461,120,15.0,0.0
20500,93.0,2,120,10.0,0.0
20501,69.0,0,120,10.0,0.0
20502,89.0,2,120,0.0,0.0
20503,77.0,0,120,1.0,0.0
20504,65.0,1,120,6.0,0.0
20505,69.0,0,120,11.0,0.0
20506,77.0,1,120,11.0,0.0
20507,53.0,0,120,4.0,0.0
20508,77.0,3,120,2.0,0.0
20509,65.0,0,120,2.0,0.0
20510,53.0,1,120,12.0,0.0
20511,53.0,5,120,5.0,0.0
20512,41.0,2,120,13.0,0.0
20513,41.0,1,120,3.0,0.0
20514,29.0,1,120,14.0,0.0
20515,41.0,360,120,15.0,0.0
