,note,step,duration,channel,velocity
0,51.0,0,90,14.0,0.0
1,51.0,26,90,13.0,0.0
2,56.0,94,30,14.0,0.0
3,56.0,0,30,13.0,0.0
4,60.0,0,90,14.0,0.0
5,32.0,90,240,15.0,0.0
6,60.0,120,90,13.0,0.0
7,60.0,0,90,13.0,0.0
8,60.0,30,90,14.0,0.0
9,58.0,0,30,13.0,0.0
10,58.0,0,30,14.0,0.0
11,56.0,26,90,13.0,0.0
12,56.0,0,90,14.0,0.0
13,60.0,0,30,13.0,0.0
14,60.0,214,30,14.0,0.0
15,53.0,0,210,13.0,0.0
16,37.0,0,240,15.0,0.0
17,53.0,30,210,14.0,0.0
18,57.0,90,30,13.0,0.0
19,57.0,0,30,14.0,0.0
20,58.0,26,90,14.0,0.0
21,58.0,0,90,13.0,0.0
22,60.0,0,30,13.0,0.0
23,60.0,94,30,14.0,0.0
24,61.0,0,90,13.0,0.0
25,34.0,90,120,15.0,0.0
26,61.0,26,90,14.0,0.0
27,60.0,4,30,13.0,0.0
28,60.0,0,30,14.0,0.0
29,31.0,0,120,15.0,0.0
30,58.0,30,90,13.0,0.0
31,58.0,0,90,14.0,0.0
32,61.0,0,30,13.0,0.0
33,61.0,90,30,14.0,0.0
34,55.0,26,90,13.0,0.0
35,34.0,90,120,15.0,0.0
36,55.0,0,90,14.0,0.0
37,58.0,4,30,13.0,0.0
38,58.0,0,30,14.0,0.0
39,36.0,90,240,15.0,0.0
40,52.0,0,90,14.0,0.0
41,52.0,26,90,13.0,0.0
42,55.0,0,30,14.0,0.0
43,55.0,124,30,13.0,0.0
44,60.0,0,210,14.0,0.0
45,60.0,26,210,13.0,0.0
46,58.0,0,30,13.0,0.0
47,58.0,94,30,14.0,0.0
48,57.0,0,90,13.0,0.0
49,41.0,120,120,15.0,0.0
50,57.0,26,90,14.0,0.0
51,53.0,0,30,13.0,0.0
52,53.0,4,30,14.0,0.0
53,34.0,60,120,15.0,0.0
54,58.0,0,180,14.0,0.0
55,58.0,56,180,13.0,0.0
56,61.0,0,60,14.0,0.0
57,61.0,94,60,13.0,0.0
58,55.0,0,90,13.0,0.0
59,55.0,26,90,14.0,0.0
60,39.0,112,120,15.0,0.0
61,51.0,0,30,13.0,0.0
62,51.0,4,30,14.0,0.0
63,56.0,0,120,14.0,0.0
64,56.0,8,120,13.0,0.0
65,32.0,90,120,15.0,0.0
66,56.0,26,90,14.0,0.0
67,56.0,0,90,13.0,0.0
68,60.0,0,30,13.0,0.0
69,60.0,124,30,14.0,0.0
70,27.0,232,120,15.0,0.0
71,63.0,8,360,13.0,0.0
72,63.0,120,360,14.0,0.0
73,32.0,210,120,15.0,0.0
74,60.0,0,120,14.0,0.0
75,60.0,0,120,13.0,0.0
76,48.0,0,90,14.0,0.0
77,56.0,0,90,3.0,0.0
78,36.0,0,90,15.0,0.0
79,68.0,0,90,11.0,0.0
80,63.0,0,90,12.0,0.0
81,60.0,26,90,13.0,0.0
82,51.0,0,120,13.0,0.0
83,32.0,0,30,15.0,0.0
84,72.0,0,30,11.0,0.0
85,60.0,0,30,12.0,0.0
86,56.0,0,30,13.0,0.0
87,44.0,0,30,14.0,0.0
88,60.0,364,30,3.0,0.0
89,27.0,0,360,15.0,0.0
90,75.0,120,360,11.0,0.0
91,55.0,0,360,13.0,0.0
92,58.0,0,360,12.0,0.0
93,63.0,0,360,3.0,0.0
94,51.0,0,360,13.0,0.0
95,39.0,0,360,14.0,0.0
96,44.0,0,120,14.0,0.0
97,51.0,0,120,13.0,0.0
98,56.0,0,120,13.0,0.0
99,32.0,0,120,15.0,0.0
100,60.0,206,120,3.0,0.0
101,72.0,0,120,11.0,0.0
102,60.0,0,120,12.0,0.0
103,72.0,0,90,2.0,0.0
104,75.0,0,90,2.0,0.0
105,75.0,4,120,1.0,0.0
106,80.0,22,90,0.0,0.0
107,68.0,4,90,3.0,0.0
108,68.0,0,30,2.0,0.0
109,72.0,0,30,2.0,0.0
110,68.0,0,30,3.0,0.0
111,84.0,244,30,0.0,0.0
112,75.0,4,360,2.0,0.0
113,70.0,0,360,2.0,0.0
114,75.0,60,240,1.0,0.0
115,67.0,0,360,3.0,0.0
116,63.0,0,360,3.0,0.0
117,87.0,0,360,0.0,0.0
118,77.0,52,60,1.0,0.0
119,79.0,124,60,1.0,0.0
120,85.0,0,120,0.0,0.0
121,68.0,0,360,2.0,0.0
122,65.0,128,360,3.0,0.0
123,80.0,0,360,1.0,0.0
124,73.0,232,120,2.0,0.0
125,72.0,0,240,2.0,0.0
126,84.0,0,240,0.0,0.0
127,70.0,0,120,2.0,0.0
128,75.0,120,360,1.0,0.0
129,60.0,0,360,3.0,0.0
130,82.0,232,120,0.0,0.0
131,63.0,0,360,2.0,0.0
132,80.0,0,240,0.0,0.0
133,68.0,0,240,2.0,0.0
134,70.0,0,120,2.0,0.0
135,73.0,120,120,2.0,0.0
136,75.0,0,120,1.0,0.0
137,79.0,48,240,0.0,0.0
138,63.0,0,120,3.0,0.0
139,70.0,0,120,2.0,0.0
140,73.0,0,120,2.0,0.0
141,63.0,0,120,3.0,0.0
142,75.0,0,120,1.0,0.0
143,70.0,22,90,2.0,0.0
144,63.0,0,120,3.0,0.0
145,73.0,0,120,2.0,0.0
146,79.0,40,40,0.0,0.0
147,75.0,4,120,1.0,0.0
148,80.0,10,40,0.0,0.0
149,82.0,0,40,0.0,0.0
150,67.0,124,30,2.0,0.0
151,68.0,0,120,2.0,0.0
152,80.0,0,120,0.0,0.0
153,75.0,0,120,1.0,0.0
154,56.0,120,120,3.0,0.0
155,63.0,0,120,3.0,0.0
156,72.0,0,120,2.0,0.0
157,68.0,0,60,11.0,0.0
158,56.0,60,60,12.0,0.0
159,60.0,0,60,12.0,0.0
160,72.0,56,60,11.0,0.0
161,75.0,64,60,11.0,0.0
162,63.0,0,60,12.0,0.0
163,44.0,0,360,3.0,0.0
164,56.0,0,360,3.0,0.0
165,68.0,4,360,13.0,0.0
166,53.0,0,360,14.0,0.0
167,63.0,0,60,12.0,0.0
168,75.0,56,60,11.0,0.0
169,41.0,0,360,15.0,0.0
170,73.0,0,60,11.0,0.0
171,61.0,180,60,12.0,0.0
172,60.0,0,180,12.0,0.0
173,72.0,56,180,11.0,0.0
174,60.0,64,60,12.0,0.0
175,72.0,0,60,11.0,0.0
176,48.0,0,360,14.0,0.0
177,60.0,0,60,12.0,0.0
178,51.0,4,360,3.0,0.0
179,56.0,0,360,3.0,0.0
180,63.0,0,360,13.0,0.0
181,72.0,56,60,11.0,0.0
182,36.0,0,360,15.0,0.0
183,70.0,0,60,11.0,0.0
184,58.0,180,60,12.0,0.0
185,68.0,0,180,11.0,0.0
186,56.0,56,180,12.0,0.0
187,60.0,0,120,2.0,0.0
188,63.0,0,120,2.0,0.0
189,56.0,0,60,12.0,0.0
190,68.0,116,60,11.0,0.0
191,63.0,0,120,2.0,0.0
192,51.0,0,120,3.0,0.0
193,58.0,0,120,3.0,0.0
194,58.0,0,120,13.0,0.0
195,67.0,0,240,11.0,0.0
196,55.0,0,240,12.0,0.0
197,61.0,0,120,13.0,0.0
198,51.0,120,120,14.0,0.0
199,39.0,0,120,15.0,0.0
200,61.0,0,120,2.0,0.0
201,63.0,0,120,2.0,0.0
202,58.0,0,120,13.0,0.0
203,51.0,0,120,3.0,0.0
204,58.0,48,120,3.0,0.0
205,39.0,0,120,15.0,0.0
206,61.0,0,120,13.0,0.0
207,61.0,0,120,2.0,0.0
208,51.0,0,120,14.0,0.0
209,67.0,0,40,11.0,0.0
210,61.0,0,120,13.0,0.0
211,58.0,22,90,13.0,0.0
212,51.0,0,120,3.0,0.0
213,58.0,0,90,3.0,0.0
214,39.0,0,120,15.0,0.0
215,61.0,4,120,2.0,0.0
216,55.0,40,40,12.0,0.0
217,63.0,0,120,2.0,0.0
218,51.0,120,120,14.0,0.0
219,56.0,10,40,12.0,0.0
220,68.0,0,40,11.0,0.0
221,70.0,0,40,11.0,0.0
222,58.0,0,40,12.0,0.0
223,55.0,0,30,13.0,0.0
224,55.0,4,30,3.0,0.0
225,56.0,0,120,3.0,0.0
226,51.0,0,120,3.0,0.0
227,56.0,0,120,12.0,0.0
228,44.0,0,120,14.0,0.0
229,32.0,0,120,15.0,0.0
230,68.0,160,120,11.0,0.0
231,63.0,0,120,2.0,0.0
232,56.0,0,120,13.0,0.0
233,60.0,0,120,13.0,0.0
234,60.0,0,120,2.0,0.0
235,79.0,40,40,0.0,0.0
236,75.0,0,240,1.0,0.0
237,70.0,26,90,2.0,0.0
238,73.0,120,120,2.0,0.0
239,63.0,0,240,3.0,0.0
240,80.0,10,40,0.0,0.0
241,82.0,4,40,0.0,0.0
242,67.0,0,30,2.0,0.0
243,68.0,0,120,2.0,0.0
244,72.0,0,120,2.0,0.0
245,56.0,160,120,3.0,0.0
246,80.0,0,120,0.0,0.0
247,39.0,0,120,15.0,0.0
248,63.0,0,180,3.0,0.0
249,51.0,0,180,3.0,0.0
250,79.0,0,120,1.0,0.0
251,70.0,0,120,1.0,0.0
252,67.0,40,40,11.0,0.0
253,55.0,0,120,2.0,0.0
254,51.0,0,120,14.0,0.0
255,58.0,0,120,2.0,0.0
256,82.0,0,120,0.0,0.0
257,49.0,0,40,13.0,0.0
258,79.0,60,120,0.0,0.0
259,58.0,0,40,12.0,0.0
260,68.0,0,40,11.0,0.0
261,48.0,0,40,13.0,0.0
262,56.0,36,40,12.0,0.0
263,70.0,0,40,11.0,0.0
264,49.0,0,40,13.0,0.0
265,55.0,4,40,12.0,0.0
266,44.0,0,60,14.0,0.0
267,80.0,0,60,1.0,0.0
268,56.0,0,60,2.0,0.0
269,60.0,0,60,2.0,0.0
270,32.0,0,60,15.0,0.0
271,56.0,0,60,12.0,0.0
272,48.0,0,60,13.0,0.0
273,72.0,120,60,1.0,0.0
274,68.0,0,60,11.0,0.0
275,80.0,0,60,0.0,0.0
276,44.0,0,60,14.0,0.0
277,60.0,0,60,3.0,0.0
278,51.0,0,60,3.0,0.0
279,48.0,120,60,13.0,0.0
280,56.0,0,60,12.0,0.0
281,68.0,0,60,11.0,0.0
282,72.0,0,60,1.0,0.0
283,75.0,0,60,1.0,0.0
284,60.0,0,60,2.0,0.0
285,56.0,0,60,2.0,0.0
286,80.0,0,60,0.0,0.0
287,68.0,0,60,0.0,0.0
288,32.0,0,60,15.0,0.0
289,75.0,0,60,1.0,0.0
290,51.0,0,60,3.0,0.0
291,60.0,0,60,3.0,0.0
292,72.0,0,60,1.0,0.0
293,68.0,180,60,11.0,0.0
294,32.0,0,60,15.0,0.0
295,44.0,0,60,14.0,0.0
296,60.0,0,60,2.0,0.0
297,56.0,0,60,2.0,0.0
298,68.0,0,60,0.0,0.0
299,56.0,0,60,12.0,0.0
300,80.0,0,60,0.0,0.0
301,48.0,0,60,13.0,0.0
302,75.0,0,120,1.0,0.0
303,72.0,210,120,1.0,0.0
304,44.0,0,120,14.0,0.0
305,56.0,0,120,3.0,0.0
306,32.0,0,120,15.0,0.0
307,68.0,0,120,0.0,0.0
308,80.0,0,120,0.0,0.0
309,48.0,0,120,3.0,0.0
310,56.0,0,120,12.0,0.0
311,68.0,0,120,11.0,0.0
312,60.0,0,120,2.0,0.0
313,56.0,0,120,2.0,0.0
314,48.0,0,120,13.0,0.0
315,51.0,0,90,3.0,0.0
316,63.0,26,90,2.0,0.0
317,67.0,34,30,2.0,0.0
318,55.0,0,30,3.0,0.0
319,63.0,8,120,2.0,0.0
320,48.0,40,30,13.0,0.0
321,56.0,0,120,14.0,0.0
322,44.0,30,120,15.0,0.0
323,48.0,0,120,3.0,0.0
324,56.0,0,120,3.0,0.0
325,68.0,0,120,2.0,0.0
326,56.0,40,30,13.0,0.0
327,51.0,2,30,13.0,0.0
328,68.0,0,120,2.0,0.0
329,63.0,30,120,2.0,0.0
330,56.0,0,120,3.0,0.0
331,48.0,0,120,3.0,0.0
332,56.0,0,120,14.0,0.0
333,44.0,0,120,15.0,0.0
334,48.0,40,30,13.0,0.0
335,68.0,0,120,11.0,0.0
336,63.0,0,120,12.0,0.0
337,56.0,40,30,13.0,0.0
338,51.0,10,30,13.0,0.0
339,51.0,40,30,13.0,0.0
340,58.0,0,120,3.0,0.0
341,51.0,0,120,3.0,0.0
342,67.0,0,120,2.0,0.0
343,70.0,0,120,2.0,0.0
344,70.0,0,120,11.0,0.0
345,51.0,30,120,14.0,0.0
346,67.0,0,120,12.0,0.0
347,39.0,0,120,15.0,0.0
348,58.0,40,30,13.0,0.0
349,55.0,10,30,13.0,0.0
350,60.0,38,240,3.0,0.0
351,68.0,0,240,2.0,0.0
352,72.0,0,240,2.0,0.0
353,44.0,0,120,14.0,0.0
354,51.0,40,30,13.0,0.0
355,68.0,0,120,12.0,0.0
356,72.0,0,120,11.0,0.0
357,32.0,30,120,15.0,0.0
358,56.0,0,240,3.0,0.0
359,60.0,40,30,13.0,0.0
360,56.0,10,30,13.0,0.0
361,51.0,40,30,13.0,0.0
362,56.0,40,30,13.0,0.0
363,48.0,2,30,13.0,0.0
364,51.0,40,30,13.0,0.0
365,48.0,20,90,3.0,0.0
366,56.0,0,90,3.0,0.0
367,68.0,0,90,2.0,0.0
368,63.0,0,90,2.0,0.0
369,56.0,20,30,13.0,0.0
370,58.0,6,30,13.0,0.0
371,67.0,0,30,2.0,0.0
372,70.0,34,30,2.0,0.0
373,58.0,0,30,3.0,0.0
374,51.0,0,30,3.0,0.0
375,68.0,8,120,2.0,0.0
376,56.0,0,120,14.0,0.0
377,51.0,40,30,13.0,0.0
378,44.0,30,120,15.0,0.0
379,72.0,0,120,2.0,0.0
380,56.0,0,120,3.0,0.0
381,60.0,0,120,3.0,0.0
382,60.0,40,30,13.0,0.0
383,56.0,2,30,13.0,0.0
384,72.0,0,120,2.0,0.0
385,51.0,40,30,13.0,0.0
386,72.0,0,120,11.0,0.0
387,44.0,0,120,15.0,0.0
388,56.0,0,120,3.0,0.0
389,60.0,0,120,3.0,0.0
390,68.0,0,120,12.0,0.0
391,56.0,30,120,14.0,0.0
392,68.0,0,120,2.0,0.0
393,60.0,40,30,13.0,0.0
394,56.0,10,30,13.0,0.0
395,56.0,0,120,14.0,0.0
396,73.0,0,120,2.0,0.0
397,44.0,0,120,15.0,0.0
398,58.0,0,120,3.0,0.0
399,61.0,30,120,3.0,0.0
400,70.0,0,120,12.0,0.0
401,73.0,0,120,11.0,0.0
402,51.0,40,30,13.0,0.0
403,70.0,0,120,2.0,0.0
404,61.0,40,30,13.0,0.0
405,58.0,10,30,13.0,0.0
406,44.0,0,240,15.0,0.0
407,75.0,0,120,11.0,0.0
408,56.0,0,240,14.0,0.0
409,72.0,30,120,12.0,0.0
410,51.0,40,30,13.0,0.0
411,63.0,90,240,3.0,0.0
412,60.0,0,240,3.0,0.0
413,72.0,8,240,2.0,0.0
414,75.0,0,240,2.0,0.0
415,63.0,40,30,13.0,0.0
416,60.0,10,30,13.0,0.0
417,56.0,40,30,13.0,0.0
418,60.0,40,30,13.0,0.0
419,63.0,2,30,13.0,0.0
420,75.0,98,360,2.0,0.0
421,75.0,26,90,11.0,0.0
422,72.0,0,360,2.0,0.0
423,68.0,232,120,13.0,0.0
424,77.0,4,30,11.0,0.0
425,78.0,0,240,11.0,0.0
426,69.0,0,240,13.0,0.0
427,69.0,232,240,12.0,0.0
428,75.0,0,360,2.0,0.0
429,75.0,26,90,11.0,0.0
430,72.0,90,360,2.0,0.0
431,77.0,4,30,11.0,0.0
432,78.0,8,240,11.0,0.0
433,69.0,0,240,12.0,0.0
434,69.0,4,240,13.0,0.0
435,63.0,22,90,3.0,0.0
436,75.0,0,90,1.0,0.0
437,75.0,0,90,11.0,0.0
438,87.0,0,90,0.0,0.0
439,89.0,19,30,0.0,0.0
440,77.0,0,30,11.0,0.0
441,65.0,0,30,3.0,0.0
442,77.0,0,30,1.0,0.0
443,78.0,0,360,11.0,0.0
444,90.0,0,360,0.0,0.0
445,87.0,8,360,0.0,0.0
446,60.0,0,360,3.0,0.0
447,72.0,0,360,2.0,0.0
448,66.0,0,360,3.0,0.0
449,63.0,0,360,2.0,0.0
450,44.0,0,360,14.0,0.0
451,60.0,0,360,5.0,0.0
452,72.0,0,360,5.0,0.0
453,32.0,0,360,15.0,0.0
454,48.0,15,15,6.0,0.0
455,60.0,0,360,4.0,0.0
456,78.0,0,360,1.0,0.0
457,75.0,0,360,1.0,0.0
458,75.0,0,360,12.0,0.0
459,72.0,0,360,13.0,0.0
460,48.0,0,360,4.0,0.0
461,48.0,15,15,6.0,0.0
462,48.0,15,15,6.0,0.0
463,48.0,15,15,6.0,0.0
464,48.0,15,15,6.0,0.0
465,48.0,15,15,6.0,0.0
466,48.0,15,15,6.0,0.0
467,48.0,15,15,6.0,0.0
468,48.0,15,15,6.0,0.0
469,48.0,15,15,6.0,0.0
470,48.0,15,15,6.0,0.0
471,48.0,15,15,6.0,0.0
472,48.0,15,15,6.0,0.0
473,48.0,15,15,6.0,0.0
474,48.0,15,15,6.0,0.0
475,48.0,15,15,6.0,0.0
476,48.0,15,15,6.0,0.0
477,48.0,15,15,6.0,0.0
478,48.0,15,15,6.0,0.0
479,48.0,15,15,6.0,0.0
480,48.0,15,15,6.0,0.0
481,48.0,15,15,6.0,0.0
482,48.0,7,15,6.0,0.0
483,48.0,67,15,6.0,0.0
484,67.0,0,90,3.0,0.0
485,76.0,0,90,1.0,0.0
486,79.0,0,90,1.0,0.0
487,43.0,0,90,6.0,0.0
488,72.0,0,90,5.0,0.0
489,72.0,0,90,13.0,0.0
490,48.0,0,90,4.0,0.0
491,60.0,22,90,4.0,0.0
492,64.0,4,90,3.0,0.0
493,60.0,0,90,5.0,0.0
494,43.0,0,90,14.0,0.0
495,31.0,0,90,15.0,0.0
496,91.0,0,90,0.0,0.0
497,88.0,0,90,0.0,0.0
498,72.0,0,90,2.0,0.0
499,64.0,0,90,2.0,0.0
500,79.0,19,60,11.0,0.0
501,76.0,0,90,12.0,0.0
502,67.0,0,30,13.0,0.0
503,72.0,0,30,12.0,0.0
504,60.0,0,30,3.0,0.0
505,72.0,0,30,1.0,0.0
506,76.0,0,30,1.0,0.0
507,76.0,4,20,11.0,0.0
508,88.0,0,30,0.0,0.0
509,84.0,0,30,0.0,0.0
510,64.0,94,30,3.0,0.0
511,60.0,0,90,3.0,0.0
512,72.0,0,90,1.0,0.0
513,67.0,0,90,1.0,0.0
514,55.0,0,90,3.0,0.0
515,64.0,0,90,13.0,0.0
516,67.0,0,90,12.0,0.0
517,64.0,0,90,2.0,0.0
518,31.0,0,90,15.0,0.0
519,72.0,0,90,11.0,0.0
520,72.0,0,90,5.0,0.0
521,64.0,0,90,5.0,0.0
522,43.0,0,90,14.0,0.0
523,84.0,0,90,0.0,0.0
524,55.0,0,90,11.0,0.0
525,79.0,0,90,0.0,0.0
526,43.0,0,90,6.0,0.0
527,67.0,120,90,2.0,0.0
528,64.0,0,90,11.0,0.0
529,60.0,0,90,4.0,0.0
530,52.0,0,90,4.0,0.0
531,83.0,0,90,0.0,0.0
532,59.0,0,90,3.0,0.0
533,67.0,0,90,5.0,0.0
534,55.0,0,90,13.0,0.0
535,65.0,0,90,13.0,0.0
536,43.0,142,90,6.0,0.0
537,43.0,0,90,14.0,0.0
538,86.0,0,90,0.0,0.0
539,62.0,0,90,3.0,0.0
540,74.0,0,90,5.0,0.0
541,65.0,0,90,11.0,0.0
542,71.0,0,90,12.0,0.0
543,55.0,0,90,11.0,0.0
544,74.0,0,90,11.0,0.0
545,31.0,0,90,15.0,0.0
546,65.0,0,90,2.0,0.0
547,67.0,0,90,2.0,0.0
548,55.0,0,90,12.0,0.0
549,62.0,0,90,4.0,0.0
550,74.0,0,90,1.0,0.0
551,71.0,0,90,1.0,0.0
552,55.0,0,90,4.0,0.0
553,65.0,0,90,12.0,0.0
554,60.0,0,120,4.0,0.0
555,64.0,0,120,13.0,0.0
556,36.0,8,120,15.0,0.0
557,67.0,0,120,2.0,0.0
558,64.0,0,120,2.0,0.0
559,52.0,0,120,4.0,0.0
560,48.0,0,120,14.0,0.0
561,84.0,0,120,0.0,0.0
562,76.0,0,120,0.0,0.0
563,64.0,0,120,11.0,0.0
564,55.0,0,120,11.0,0.0
565,72.0,0,120,11.0,0.0
566,48.0,0,120,6.0,0.0
567,72.0,0,120,5.0,0.0
568,55.0,0,120,13.0,0.0
569,64.0,0,120,5.0,0.0
570,60.0,0,120,3.0,0.0
571,72.0,0,120,12.0,0.0
572,48.0,0,120,13.0,0.0
573,72.0,0,120,1.0,0.0
574,64.0,120,120,12.0,0.0
575,67.0,0,120,1.0,0.0
576,55.0,0,120,12.0,0.0
577,24.0,0,120,15.0,0.0
578,36.0,86,120,14.0,0.0
579,64.0,0,90,1.0,0.0
580,52.0,0,90,4.0,0.0
581,64.0,30,90,5.0,0.0
582,67.0,34,30,1.0,0.0
583,55.0,0,30,4.0,0.0
584,67.0,0,30,5.0,0.0
585,64.0,40,30,12.0,0.0
586,64.0,0,30,11.0,0.0
587,60.0,0,120,4.0,0.0
588,72.0,0,120,5.0,0.0
589,48.0,30,120,6.0,0.0
590,36.0,0,120,15.0,0.0
591,52.0,0,120,4.0,0.0
592,64.0,0,120,1.0,0.0
593,72.0,8,120,1.0,0.0
594,48.0,0,120,14.0,0.0
595,52.0,0,30,13.0,0.0
596,64.0,0,120,5.0,0.0
597,72.0,40,30,12.0,0.0
598,60.0,0,30,13.0,0.0
599,72.0,0,30,11.0,0.0
600,55.0,0,30,13.0,0.0
601,67.0,2,30,11.0,0.0
602,67.0,0,30,12.0,0.0
603,64.0,0,30,12.0,0.0
604,64.0,0,30,11.0,0.0
605,48.0,30,120,6.0,0.0
606,60.0,0,120,4.0,0.0
607,72.0,0,120,1.0,0.0
608,64.0,0,120,1.0,0.0
609,72.0,0,120,5.0,0.0
610,64.0,0,120,5.0,0.0
611,48.0,8,120,14.0,0.0
612,52.0,0,120,4.0,0.0
613,52.0,40,30,13.0,0.0
614,36.0,0,120,15.0,0.0
615,60.0,40,30,13.0,0.0
616,72.0,0,30,12.0,0.0
617,72.0,0,30,11.0,0.0
618,67.0,2,30,12.0,0.0
619,67.0,0,30,11.0,0.0
620,55.0,0,30,13.0,0.0
621,43.0,8,120,14.0,0.0
622,67.0,0,30,12.0,0.0
623,67.0,0,120,1.0,0.0
624,55.0,40,30,13.0,0.0
625,31.0,0,120,15.0,0.0
626,74.0,0,120,1.0,0.0
627,55.0,0,120,4.0,0.0
628,67.0,0,30,11.0,0.0
629,62.0,0,120,4.0,0.0
630,74.0,0,120,5.0,0.0
631,43.0,30,120,6.0,0.0
632,67.0,0,120,5.0,0.0
633,74.0,40,30,12.0,0.0
634,74.0,0,30,11.0,0.0
635,62.0,0,30,13.0,0.0
636,71.0,0,30,11.0,0.0
637,71.0,2,30,12.0,0.0
638,59.0,0,30,13.0,0.0
639,36.0,0,240,15.0,0.0
640,67.0,0,30,12.0,0.0
641,60.0,38,240,4.0,0.0
642,64.0,0,240,4.0,0.0
643,48.0,30,120,6.0,0.0
644,67.0,0,30,11.0,0.0
645,76.0,0,240,5.0,0.0
646,72.0,0,240,5.0,0.0
647,76.0,0,240,1.0,0.0
648,48.0,0,240,14.0,0.0
649,72.0,0,240,1.0,0.0
650,55.0,40,30,13.0,0.0
651,76.0,0,30,12.0,0.0
652,64.0,40,30,13.0,0.0
653,76.0,0,30,11.0,0.0
654,60.0,0,30,13.0,0.0
655,72.0,0,30,11.0,0.0
656,72.0,10,30,12.0,0.0
657,67.0,0,30,12.0,0.0
658,67.0,0,30,11.0,0.0
659,55.0,40,30,13.0,0.0
660,64.0,0,30,12.0,0.0
661,64.0,0,30,11.0,0.0
662,52.0,40,30,13.0,0.0
663,60.0,2,30,11.0,0.0
664,60.0,0,30,12.0,0.0
665,48.0,0,30,13.0,0.0
666,64.0,0,90,5.0,0.0
667,48.0,4,90,14.0,0.0
668,36.0,0,90,15.0,0.0
669,72.0,0,90,1.0,0.0
670,60.0,0,90,4.0,0.0
671,48.0,20,90,6.0,0.0
672,55.0,0,30,13.0,0.0
673,67.0,0,30,11.0,0.0
674,64.0,0,90,1.0,0.0
675,67.0,40,30,12.0,0.0
676,52.0,0,90,4.0,0.0
677,72.0,0,90,5.0,0.0
678,60.0,0,30,13.0,0.0
679,72.0,0,30,11.0,0.0
680,72.0,16,30,12.0,0.0
681,62.0,0,30,13.0,0.0
682,74.0,0,30,11.0,0.0
683,74.0,6,30,12.0,0.0
684,48.0,30,30,6.0,0.0
685,67.0,0,30,5.0,0.0
686,74.0,4,30,5.0,0.0
687,36.0,0,30,15.0,0.0
688,74.0,0,30,1.0,0.0
689,48.0,0,30,14.0,0.0
690,67.0,0,30,1.0,0.0
691,62.0,0,30,4.0,0.0
692,55.0,0,30,4.0,0.0
693,60.0,0,120,4.0,0.0
694,36.0,0,120,15.0,0.0
695,76.0,8,120,5.0,0.0
696,64.0,0,120,4.0,0.0
697,72.0,0,120,5.0,0.0
698,67.0,0,30,11.0,0.0
699,76.0,0,120,1.0,0.0
700,48.0,0,120,14.0,0.0
701,48.0,30,120,6.0,0.0
702,72.0,0,120,1.0,0.0
703,67.0,0,30,12.0,0.0
704,55.0,40,30,13.0,0.0
705,76.0,0,30,11.0,0.0
706,76.0,0,30,12.0,0.0
707,64.0,40,30,13.0,0.0
708,72.0,2,30,12.0,0.0
709,72.0,0,30,11.0,0.0
710,60.0,0,30,13.0,0.0
711,76.0,0,120,1.0,0.0
712,36.0,8,120,15.0,0.0
713,72.0,0,120,1.0,0.0
714,48.0,30,120,6.0,0.0
715,48.0,0,120,14.0,0.0
716,60.0,0,120,4.0,0.0
717,64.0,0,120,4.0,0.0
718,76.0,0,120,5.0,0.0
719,72.0,0,120,5.0,0.0
720,67.0,0,30,11.0,0.0
721,67.0,40,30,12.0,0.0
722,55.0,0,30,13.0,0.0
723,76.0,0,30,11.0,0.0
724,76.0,0,30,12.0,0.0
725,64.0,40,30,13.0,0.0
726,72.0,0,30,12.0,0.0
727,60.0,2,30,13.0,0.0
728,72.0,0,30,11.0,0.0
729,74.0,0,120,1.0,0.0
730,74.0,0,120,5.0,0.0
731,62.0,0,120,4.0,0.0
732,36.0,0,120,15.0,0.0
733,48.0,8,120,14.0,0.0
734,67.0,0,30,12.0,0.0
735,67.0,0,30,11.0,0.0
736,55.0,40,30,13.0,0.0
737,77.0,0,120,5.0,0.0
738,65.0,0,120,4.0,0.0
739,48.0,15,120,6.0,0.0
740,77.0,0,120,1.0,0.0
741,77.0,0,30,12.0,0.0
742,77.0,40,30,11.0,0.0
743,65.0,0,30,13.0,0.0
744,62.0,0,30,13.0,0.0
745,74.0,2,30,11.0,0.0
746,74.0,0,30,12.0,0.0
747,48.0,0,240,14.0,0.0
748,79.0,0,210,1.0,0.0
749,67.0,0,30,11.0,0.0
750,36.0,8,240,15.0,0.0
751,67.0,0,210,4.0,0.0
752,64.0,0,210,4.0,0.0
753,48.0,15,15,6.0,0.0
754,55.0,0,30,13.0,0.0
755,76.0,0,210,5.0,0.0
756,67.0,15,30,12.0,0.0
757,79.0,0,210,5.0,0.0
758,76.0,0,210,1.0,0.0
759,48.0,0,15,6.0,0.0
760,48.0,15,15,6.0,0.0
761,79.0,0,30,12.0,0.0
762,79.0,0,30,11.0,0.0
763,67.0,5,30,13.0,0.0
764,48.0,10,15,6.0,0.0
765,48.0,15,15,6.0,0.0
766,48.0,15,15,6.0,0.0
767,76.0,0,30,12.0,0.0
768,76.0,10,30,11.0,0.0
769,64.0,0,30,13.0,0.0
770,48.0,5,15,6.0,0.0
771,48.0,15,15,6.0,0.0
772,48.0,15,15,6.0,0.0
773,60.0,0,30,13.0,0.0
774,72.0,0,30,12.0,0.0
775,72.0,0,30,11.0,0.0
776,48.0,15,15,6.0,0.0
777,48.0,15,15,6.0,0.0
778,55.0,0,30,13.0,0.0
779,67.0,0,30,11.0,0.0
780,67.0,5,30,12.0,0.0
781,48.0,10,15,6.0,0.0
782,48.0,15,15,6.0,0.0
783,48.0,15,15,6.0,0.0
784,52.0,0,30,13.0,0.0
785,64.0,0,30,11.0,0.0
786,64.0,2,30,12.0,0.0
787,48.0,5,15,6.0,0.0
788,48.0,30,15,6.0,0.0
789,72.0,0,90,1.0,0.0
790,36.0,4,90,15.0,0.0
791,48.0,0,30,13.0,0.0
792,64.0,0,90,4.0,0.0
793,60.0,40,30,12.0,0.0
794,72.0,0,90,5.0,0.0
795,76.0,0,90,5.0,0.0
796,76.0,0,90,1.0,0.0
797,60.0,0,90,4.0,0.0
798,60.0,0,30,11.0,0.0
799,48.0,0,90,14.0,0.0
800,48.0,20,90,6.0,0.0
801,76.0,16,30,11.0,0.0
802,64.0,0,30,13.0,0.0
803,76.0,0,30,12.0,0.0
804,77.0,0,30,12.0,0.0
805,77.0,6,30,11.0,0.0
806,65.0,0,30,13.0,0.0
807,65.0,0,30,4.0,0.0
808,62.0,0,30,4.0,0.0
809,74.0,0,30,5.0,0.0
810,48.0,15,30,6.0,0.0
811,36.0,0,30,15.0,0.0
812,48.0,0,30,14.0,0.0
813,77.0,0,30,1.0,0.0
814,74.0,0,30,1.0,0.0
815,77.0,4,30,5.0,0.0
816,48.0,8,240,14.0,0.0
817,60.0,15,30,12.0,0.0
818,76.0,5,210,5.0,0.0
819,48.0,15,15,6.0,0.0
820,79.0,0,210,5.0,0.0
821,48.0,0,30,13.0,0.0
822,36.0,0,240,15.0,0.0
823,60.0,0,30,11.0,0.0
824,67.0,0,210,4.0,0.0
825,79.0,0,210,1.0,0.0
826,76.0,0,210,1.0,0.0
827,64.0,0,210,4.0,0.0
828,48.0,0,15,6.0,0.0
829,48.0,15,15,6.0,0.0
830,79.0,0,30,11.0,0.0
831,79.0,5,30,12.0,0.0
832,67.0,0,30,13.0,0.0
833,48.0,10,15,6.0,0.0
834,48.0,15,15,6.0,0.0
835,48.0,15,15,6.0,0.0
836,76.0,0,30,11.0,0.0
837,64.0,0,30,13.0,0.0
838,76.0,10,30,12.0,0.0
839,48.0,5,15,6.0,0.0
840,48.0,15,15,6.0,0.0
841,60.0,0,30,13.0,0.0
842,72.0,0,30,11.0,0.0
843,72.0,15,30,12.0,0.0
844,48.0,15,15,6.0,0.0
845,48.0,0,15,6.0,0.0
846,48.0,15,15,6.0,0.0
847,67.0,0,30,12.0,0.0
848,67.0,0,30,11.0,0.0
849,55.0,5,30,13.0,0.0
850,48.0,10,15,6.0,0.0
851,48.0,15,15,6.0,0.0
852,48.0,15,15,6.0,0.0
853,64.0,2,30,11.0,0.0
854,64.0,0,30,12.0,0.0
855,52.0,0,30,13.0,0.0
856,48.0,0,15,6.0,0.0
857,48.0,30,15,6.0,0.0
858,36.0,4,90,15.0,0.0
859,60.0,40,30,12.0,0.0
860,76.0,0,90,1.0,0.0
861,72.0,0,90,1.0,0.0
862,48.0,0,30,13.0,0.0
863,48.0,20,90,6.0,0.0
864,76.0,0,90,5.0,0.0
865,60.0,0,30,11.0,0.0
866,48.0,0,90,14.0,0.0
867,64.0,0,90,4.0,0.0
868,60.0,0,90,4.0,0.0
869,72.0,0,90,5.0,0.0
870,72.0,0,30,12.0,0.0
871,60.0,0,30,13.0,0.0
872,64.0,16,30,13.0,0.0
873,76.0,0,30,11.0,0.0
874,62.0,0,30,13.0,0.0
875,74.0,0,30,12.0,0.0
876,77.0,0,30,11.0,0.0
877,65.0,6,30,13.0,0.0
878,48.0,120,30,6.0,0.0
879,36.0,0,30,15.0,0.0
880,48.0,0,30,14.0,0.0
881,62.0,4,30,4.0,0.0
882,77.0,0,30,1.0,0.0
883,65.0,0,30,4.0,0.0
884,74.0,0,30,5.0,0.0
885,77.0,0,30,5.0,0.0
886,74.0,0,30,1.0,0.0
887,48.0,0,120,14.0,0.0
888,79.0,210,480,5.0,0.0
889,64.0,0,120,11.0,0.0
890,72.0,0,120,11.0,0.0
891,79.0,0,120,11.0,0.0
892,76.0,0,480,5.0,0.0
893,64.0,0,120,13.0,0.0
894,48.0,0,120,6.0,0.0
895,64.0,0,840,4.0,0.0
896,67.0,112,840,4.0,0.0
897,79.0,0,480,1.0,0.0
898,76.0,0,480,1.0,0.0
899,76.0,360,120,12.0,0.0
900,67.0,0,120,13.0,0.0
901,36.0,0,120,15.0,0.0
902,70.0,26,90,11.0,0.0
903,67.0,98,360,13.0,0.0
904,70.0,0,360,12.0,0.0
905,72.0,124,30,11.0,0.0
906,55.0,232,840,3.0,0.0
907,52.0,120,720,3.0,0.0
908,73.0,0,240,11.0,0.0
909,40.0,232,240,14.0,0.0
910,67.0,98,360,13.0,0.0
911,70.0,0,360,12.0,0.0
912,70.0,26,90,11.0,0.0
913,72.0,4,30,11.0,0.0
914,73.0,0,240,11.0,0.0
915,40.0,360,600,14.0,0.0
916,67.0,0,480,13.0,0.0
917,70.0,26,90,11.0,0.0
918,70.0,0,480,12.0,0.0
919,72.0,4,30,11.0,0.0
920,52.0,8,360,3.0,0.0
921,73.0,0,360,11.0,0.0
922,58.0,0,240,3.0,0.0
923,71.0,8,720,12.0,0.0
924,68.0,0,720,13.0,0.0
925,52.0,0,360,3.0,0.0
926,74.0,352,360,11.0,0.0
927,40.0,0,360,14.0,0.0
928,59.0,0,720,3.0,0.0
929,51.0,0,360,3.0,0.0
930,39.0,0,360,14.0,0.0
931,75.0,360,360,11.0,0.0
932,50.0,0,360,3.0,0.0
933,38.0,0,360,14.0,0.0
934,77.0,0,360,11.0,0.0
935,71.0,0,360,12.0,0.0
936,59.0,0,360,3.0,0.0
937,68.0,352,360,13.0,0.0
938,49.0,0,360,3.0,0.0
939,64.0,0,360,3.0,0.0
940,79.0,360,360,11.0,0.0
941,70.0,8,360,12.0,0.0
942,37.0,0,360,14.0,0.0
943,64.0,0,360,13.0,0.0
944,48.0,352,360,3.0,0.0
945,63.0,0,360,3.0,0.0
946,63.0,0,360,13.0,0.0
947,68.0,98,720,12.0,0.0
948,80.0,0,360,11.0,0.0
949,36.0,0,360,14.0,0.0
950,77.0,0,360,11.0,0.0
951,61.0,0,360,3.0,0.0
952,49.0,0,360,3.0,0.0
953,37.0,0,360,14.0,0.0
954,61.0,0,360,13.0,0.0
955,39.0,30,90,14.0,0.0
956,39.0,0,120,15.0,0.0
957,51.0,0,120,3.0,0.0
958,58.0,0,120,3.0,0.0
959,75.0,0,120,11.0,0.0
960,58.0,0,90,13.0,0.0
961,67.0,120,120,12.0,0.0
962,51.0,90,120,13.0,0.0
963,51.0,0,120,14.0,0.0
964,63.0,330,90,3.0,0.0
965,75.0,60,720,2.0,0.0
966,32.0,0,120,15.0,0.0
967,72.0,0,120,11.0,0.0
968,51.0,0,60,13.0,0.0
969,51.0,60,60,14.0,0.0
970,60.0,0,120,12.0,0.0
971,56.0,0,60,14.0,0.0
972,56.0,60,60,13.0,0.0
973,60.0,0,60,14.0,0.0
974,32.0,0,240,15.0,0.0
975,60.0,60,60,13.0,0.0
976,60.0,0,120,12.0,0.0
977,72.0,0,120,11.0,0.0
978,58.0,0,60,14.0,0.0
979,58.0,60,60,13.0,0.0
980,56.0,0,60,13.0,0.0
981,56.0,60,60,14.0,0.0
982,55.0,60,60,14.0,0.0
983,55.0,0,60,13.0,0.0
984,56.0,56,60,13.0,0.0
985,56.0,0,60,14.0,0.0
986,60.0,4,60,13.0,0.0
987,60.0,0,60,14.0,0.0
988,37.0,0,240,15.0,0.0
989,65.0,0,120,12.0,0.0
990,65.0,60,120,11.0,0.0
991,53.0,60,60,14.0,0.0
992,75.0,0,720,2.0,0.0
993,53.0,0,60,13.0,0.0
994,57.0,0,60,14.0,0.0
995,57.0,0,60,13.0,0.0
996,58.0,0,60,14.0,0.0
997,58.0,60,60,13.0,0.0
998,57.0,0,60,13.0,0.0
999,57.0,60,60,14.0,0.0
1000,58.0,0,60,14.0,0.0
1001,58.0,56,60,13.0,0.0
1002,60.0,0,60,13.0,0.0
1003,60.0,64,60,14.0,0.0
1004,61.0,0,60,14.0,0.0
1005,34.0,0,120,15.0,0.0
1006,61.0,60,60,13.0,0.0
1007,73.0,0,120,11.0,0.0
1008,61.0,60,120,12.0,0.0
1009,60.0,0,60,13.0,0.0
1010,60.0,0,60,14.0,0.0
1011,58.0,0,120,12.0,0.0
1012,58.0,0,60,13.0,0.0
1013,70.0,60,120,11.0,0.0
1014,31.0,0,120,15.0,0.0
1015,58.0,60,60,14.0,0.0
1016,61.0,0,60,14.0,0.0
1017,61.0,0,60,13.0,0.0
1018,55.0,56,60,13.0,0.0
1019,34.0,0,120,15.0,0.0
1020,55.0,0,60,14.0,0.0
1021,61.0,60,120,12.0,0.0
1022,73.0,0,120,11.0,0.0
1023,58.0,4,60,13.0,0.0
1024,58.0,0,60,14.0,0.0
1025,52.0,60,60,14.0,0.0
1026,67.0,0,120,11.0,0.0
1027,36.0,0,120,15.0,0.0
1028,55.0,60,120,12.0,0.0
1029,52.0,0,60,13.0,0.0
1030,76.0,0,360,2.0,0.0
1031,55.0,0,60,14.0,0.0
1032,55.0,0,60,13.0,0.0
1033,60.0,60,60,14.0,0.0
1034,60.0,0,60,13.0,0.0
1035,55.0,60,60,13.0,0.0
1036,55.0,0,60,14.0,0.0
1037,36.0,60,120,15.0,0.0
1038,60.0,0,120,12.0,0.0
1039,72.0,0,120,11.0,0.0
1040,60.0,0,60,14.0,0.0
1041,60.0,56,60,13.0,0.0
1042,58.0,0,60,14.0,0.0
1043,58.0,4,60,13.0,0.0
1044,60.0,0,120,12.0,0.0
1045,57.0,0,60,14.0,0.0
1046,57.0,60,60,13.0,0.0
1047,72.0,0,120,11.0,0.0
1048,77.0,8,480,2.0,0.0
1049,41.0,60,120,15.0,0.0
1050,53.0,0,60,14.0,0.0
1051,53.0,0,60,13.0,0.0
1052,73.0,0,120,11.0,0.0
1053,58.0,0,60,14.0,0.0
1054,34.0,60,120,15.0,0.0
1055,61.0,0,120,12.0,0.0
1056,58.0,60,60,13.0,0.0
1057,60.0,0,60,14.0,0.0
1058,60.0,0,60,13.0,0.0
1059,61.0,0,60,13.0,0.0
1060,61.0,56,60,14.0,0.0
1061,58.0,64,60,14.0,0.0
1062,58.0,0,60,13.0,0.0
1063,70.0,0,120,11.0,0.0
1064,55.0,0,60,13.0,0.0
1065,39.0,0,120,15.0,0.0
1066,55.0,40,60,14.0,0.0
1067,58.0,60,120,12.0,0.0
1068,51.0,12,40,13.0,0.0
1069,51.0,0,40,14.0,0.0
1070,58.0,0,20,14.0,0.0
1071,58.0,0,20,13.0,0.0
1072,32.0,0,120,15.0,0.0
1073,56.0,60,60,13.0,0.0
1074,60.0,0,120,12.0,0.0
1075,72.0,0,120,11.0,0.0
1076,56.0,0,60,14.0,0.0
1077,75.0,0,300,2.0,0.0
1078,55.0,0,60,13.0,0.0
1079,55.0,60,60,14.0,0.0
1080,56.0,0,60,13.0,0.0
1081,56.0,56,60,14.0,0.0
1082,60.0,64,60,13.0,0.0
1083,60.0,0,60,14.0,0.0
1084,67.0,8,120,2.0,0.0
1085,62.0,0,60,13.0,0.0
1086,63.0,0,90,12.0,0.0
1087,67.0,0,120,1.0,0.0
1088,58.0,0,120,3.0,0.0
1089,70.0,0,120,1.0,0.0
1090,27.0,0,90,15.0,0.0
1091,62.0,30,60,14.0,0.0
1092,55.0,22,90,11.0,0.0
1093,63.0,0,90,11.0,0.0
1094,70.0,0,90,12.0,0.0
1095,51.0,0,120,3.0,0.0
1096,63.0,60,60,13.0,0.0
1097,75.0,0,60,2.0,0.0
1098,63.0,0,60,14.0,0.0
1099,55.0,0,90,11.0,0.0
1100,63.0,0,90,11.0,0.0
1101,63.0,22,90,12.0,0.0
1102,65.0,0,60,14.0,0.0
1103,27.0,0,90,15.0,0.0
1104,67.0,8,120,1.0,0.0
1105,70.0,0,120,1.0,0.0
1106,65.0,0,60,13.0,0.0
1107,70.0,0,90,12.0,0.0
1108,67.0,0,120,2.0,0.0
1109,58.0,0,120,3.0,0.0
1110,51.0,0,120,3.0,0.0
1111,77.0,30,60,2.0,0.0
1112,63.0,60,60,14.0,0.0
1113,63.0,0,60,13.0,0.0
1114,75.0,0,60,2.0,0.0
1115,27.0,0,90,15.0,0.0
1116,70.0,0,90,12.0,0.0
1117,74.0,30,60,2.0,0.0
1118,70.0,4,120,1.0,0.0
1119,67.0,0,120,1.0,0.0
1120,62.0,0,60,14.0,0.0
1121,58.0,0,120,3.0,0.0
1122,67.0,0,120,2.0,0.0
1123,63.0,0,90,11.0,0.0
1124,55.0,22,90,11.0,0.0
1125,51.0,0,120,3.0,0.0
1126,63.0,0,90,12.0,0.0
1127,62.0,0,60,13.0,0.0
1128,63.0,49,60,13.0,0.0
1129,63.0,0,60,14.0,0.0
1130,75.0,0,60,2.0,0.0
1131,51.0,0,60,3.0,0.0
1132,72.0,0,240,2.0,0.0
1133,72.0,0,240,1.0,0.0
1134,63.0,0,120,12.0,0.0
1135,72.0,0,120,12.0,0.0
1136,68.0,0,240,2.0,0.0
1137,60.0,44,60,3.0,0.0
1138,68.0,0,240,1.0,0.0
1139,60.0,0,120,13.0,0.0
1140,32.0,0,120,15.0,0.0
1141,60.0,0,120,14.0,0.0
1142,56.0,11,40,11.0,0.0
1143,67.0,0,40,11.0,0.0
1144,55.0,20,40,3.0,0.0
1145,58.0,60,20,3.0,0.0
1146,70.0,0,20,11.0,0.0
1147,56.0,45,60,3.0,0.0
1148,68.0,0,60,11.0,0.0
1149,36.0,0,40,15.0,0.0
1150,60.0,15,40,13.0,0.0
1151,55.0,60,60,3.0,0.0
1152,48.0,0,40,14.0,0.0
1153,63.0,0,40,12.0,0.0
1154,67.0,0,60,11.0,0.0
1155,56.0,0,60,3.0,0.0
1156,36.0,56,60,15.0,0.0
1157,68.0,0,60,11.0,0.0
1158,60.0,0,60,13.0,0.0
1159,63.0,0,60,12.0,0.0
1160,48.0,0,60,14.0,0.0
1161,60.0,0,60,12.0,0.0
1162,72.0,0,60,11.0,0.0
1163,44.0,0,60,14.0,0.0
1164,32.0,0,60,15.0,0.0
1165,56.0,0,60,13.0,0.0
1166,60.0,64,60,3.0,0.0
1167,39.0,0,360,14.0,0.0
1168,58.0,0,360,12.0,0.0
1169,51.0,0,360,13.0,0.0
1170,74.0,0,60,11.0,0.0
1171,27.0,0,360,15.0,0.0
1172,55.0,4,360,13.0,0.0
1173,62.0,60,60,3.0,0.0
1174,63.0,60,60,3.0,0.0
1175,75.0,0,60,11.0,0.0
1176,65.0,0,60,3.0,0.0
1177,77.0,60,60,11.0,0.0
1178,63.0,0,60,3.0,0.0
1179,75.0,60,60,11.0,0.0
1180,74.0,52,60,11.0,0.0
1181,62.0,0,60,3.0,0.0
1182,63.0,0,60,3.0,0.0
1183,75.0,104,60,11.0,0.0
1184,51.0,0,120,13.0,0.0
1185,32.0,0,120,15.0,0.0
1186,60.0,0,120,3.0,0.0
1187,60.0,0,120,12.0,0.0
1188,44.0,0,120,14.0,0.0
1189,56.0,60,120,13.0,0.0
1190,72.0,0,120,11.0,0.0
1191,79.0,20,40,0.0,0.0
1192,82.0,0,20,0.0,0.0
1193,80.0,45,60,0.0,0.0
1194,72.0,11,40,2.0,0.0
1195,68.0,4,60,3.0,0.0
1196,75.0,0,60,1.0,0.0
1197,79.0,56,60,0.0,0.0
1198,75.0,0,40,2.0,0.0
1199,72.0,56,60,2.0,0.0
1200,75.0,0,60,2.0,0.0
1201,75.0,0,60,1.0,0.0
1202,68.0,4,60,3.0,0.0
1203,80.0,0,60,0.0,0.0
1204,75.0,0,60,1.0,0.0
1205,72.0,64,60,2.0,0.0
1206,68.0,0,60,2.0,0.0
1207,68.0,0,60,3.0,0.0
1208,84.0,0,60,0.0,0.0
1209,70.0,0,360,2.0,0.0
1210,86.0,60,60,0.0,0.0
1211,75.0,4,360,2.0,0.0
1212,63.0,0,360,3.0,0.0
1213,67.0,0,360,3.0,0.0
1214,75.0,0,240,1.0,0.0
1215,87.0,60,60,0.0,0.0
1216,89.0,60,60,0.0,0.0
1217,87.0,60,60,0.0,0.0
1218,86.0,0,60,0.0,0.0
1219,77.0,52,60,1.0,0.0
1220,87.0,0,60,0.0,0.0
1221,79.0,124,60,1.0,0.0
1222,68.0,0,360,2.0,0.0
1223,85.0,0,120,0.0,0.0
1224,73.0,232,120,2.0,0.0
1225,65.0,0,360,3.0,0.0
1226,80.0,0,360,1.0,0.0
1227,84.0,128,240,0.0,0.0
1228,72.0,0,240,2.0,0.0
1229,63.0,0,360,2.0,0.0
1230,70.0,0,120,2.0,0.0
1231,60.0,0,360,3.0,0.0
1232,82.0,232,120,0.0,0.0
1233,75.0,0,360,1.0,0.0
1234,68.0,0,240,2.0,0.0
1235,80.0,120,240,0.0,0.0
1236,73.0,0,120,2.0,0.0
1237,63.0,0,120,3.0,0.0
1238,79.0,0,240,0.0,0.0
1239,75.0,0,120,1.0,0.0
1240,70.0,120,120,2.0,0.0
1241,75.0,0,120,1.0,0.0
1242,70.0,0,120,2.0,0.0
1243,63.0,48,120,3.0,0.0
1244,73.0,0,120,2.0,0.0
1245,79.0,40,40,0.0,0.0
1246,75.0,0,120,1.0,0.0
1247,70.0,22,90,2.0,0.0
1248,63.0,0,120,3.0,0.0
1249,73.0,4,120,2.0,0.0
1250,80.0,10,40,0.0,0.0
1251,82.0,124,40,0.0,0.0
1252,67.0,0,30,2.0,0.0
1253,72.0,0,120,2.0,0.0
1254,75.0,0,120,1.0,0.0
1255,80.0,0,120,0.0,0.0
1256,68.0,120,120,2.0,0.0
1257,63.0,0,120,3.0,0.0
1258,56.0,0,120,3.0,0.0
1259,68.0,60,60,11.0,0.0
1260,56.0,0,60,12.0,0.0
1261,72.0,56,60,11.0,0.0
1262,60.0,0,60,12.0,0.0
1263,63.0,64,60,12.0,0.0
1264,75.0,0,60,11.0,0.0
1265,53.0,0,360,14.0,0.0
1266,68.0,4,360,13.0,0.0
1267,44.0,0,360,3.0,0.0
1268,56.0,0,360,3.0,0.0
1269,75.0,0,60,11.0,0.0
1270,41.0,0,360,15.0,0.0
1271,63.0,56,60,12.0,0.0
1272,61.0,180,60,12.0,0.0
1273,73.0,0,60,11.0,0.0
1274,60.0,56,180,12.0,0.0
1275,72.0,0,180,11.0,0.0
1276,72.0,0,60,11.0,0.0
1277,60.0,64,60,12.0,0.0
1278,60.0,0,60,12.0,0.0
1279,56.0,0,360,3.0,0.0
1280,48.0,0,360,14.0,0.0
1281,36.0,4,360,15.0,0.0
1282,63.0,0,360,13.0,0.0
1283,51.0,0,360,3.0,0.0
1284,72.0,56,60,11.0,0.0
1285,58.0,0,60,12.0,0.0
1286,70.0,180,60,11.0,0.0
1287,56.0,0,180,12.0,0.0
1288,68.0,56,180,11.0,0.0
1289,63.0,0,120,2.0,0.0
1290,60.0,0,120,2.0,0.0
1291,68.0,116,60,11.0,0.0
1292,56.0,0,60,12.0,0.0
1293,61.0,0,120,13.0,0.0
1294,61.0,0,120,2.0,0.0
1295,63.0,0,120,2.0,0.0
1296,58.0,0,120,13.0,0.0
1297,51.0,0,120,14.0,0.0
1298,51.0,0,120,3.0,0.0
1299,58.0,120,120,3.0,0.0
1300,67.0,0,240,11.0,0.0
1301,55.0,0,240,12.0,0.0
1302,39.0,0,120,15.0,0.0
1303,51.0,0,120,14.0,0.0
1304,61.0,0,120,13.0,0.0
1305,39.0,0,120,15.0,0.0
1306,63.0,0,120,2.0,0.0
1307,61.0,0,120,2.0,0.0
1308,58.0,0,120,3.0,0.0
1309,58.0,48,120,13.0,0.0
1310,51.0,0,120,3.0,0.0
1311,51.0,0,120,3.0,0.0
1312,58.0,0,90,3.0,0.0
1313,58.0,22,90,13.0,0.0
1314,67.0,0,40,11.0,0.0
1315,61.0,0,120,13.0,0.0
1316,51.0,0,120,14.0,0.0
1317,55.0,40,40,12.0,0.0
1318,63.0,0,120,2.0,0.0
1319,61.0,4,120,2.0,0.0
1320,39.0,120,120,15.0,0.0
1321,68.0,0,40,11.0,0.0
1322,56.0,10,40,12.0,0.0
1323,58.0,4,40,12.0,0.0
1324,70.0,0,40,11.0,0.0
1325,55.0,0,30,13.0,0.0
1326,55.0,0,30,3.0,0.0
1327,51.0,0,120,3.0,0.0
1328,44.0,160,120,14.0,0.0
1329,56.0,0,120,13.0,0.0
1330,60.0,0,120,13.0,0.0
1331,60.0,0,120,2.0,0.0
1332,56.0,0,120,3.0,0.0
1333,63.0,0,120,2.0,0.0
1334,56.0,0,120,12.0,0.0
1335,68.0,0,120,11.0,0.0
1336,32.0,0,120,15.0,0.0
1337,79.0,40,40,0.0,0.0
1338,70.0,26,90,2.0,0.0
1339,73.0,120,120,2.0,0.0
1340,63.0,0,240,3.0,0.0
1341,75.0,0,240,1.0,0.0
1342,80.0,10,40,0.0,0.0
1343,82.0,4,40,0.0,0.0
1344,67.0,0,30,2.0,0.0
1345,80.0,160,120,0.0,0.0
1346,72.0,0,120,2.0,0.0
1347,68.0,0,120,2.0,0.0
1348,56.0,0,120,3.0,0.0
1349,79.0,0,120,0.0,0.0
1350,55.0,0,120,2.0,0.0
1351,58.0,0,120,2.0,0.0
1352,51.0,0,180,3.0,0.0
1353,70.0,0,120,1.0,0.0
1354,51.0,0,120,14.0,0.0
1355,67.0,0,40,11.0,0.0
1356,49.0,0,40,13.0,0.0
1357,58.0,40,40,12.0,0.0
1358,63.0,0,180,3.0,0.0
1359,79.0,0,120,1.0,0.0
1360,39.0,60,120,15.0,0.0
1361,82.0,0,120,0.0,0.0
1362,68.0,0,40,11.0,0.0
1363,56.0,0,40,12.0,0.0
1364,48.0,36,40,13.0,0.0
1365,55.0,0,40,12.0,0.0
1366,49.0,4,40,13.0,0.0
1367,70.0,0,40,11.0,0.0
1368,48.0,0,60,13.0,0.0
1369,68.0,120,60,11.0,0.0
1370,32.0,0,60,15.0,0.0
1371,44.0,0,60,14.0,0.0
1372,72.0,0,60,1.0,0.0
1373,80.0,0,60,0.0,0.0
1374,56.0,0,60,12.0,0.0
1375,56.0,0,60,2.0,0.0
1376,60.0,0,60,2.0,0.0
1377,80.0,0,60,1.0,0.0
1378,72.0,120,60,1.0,0.0
1379,60.0,0,60,2.0,0.0
1380,75.0,0,60,1.0,0.0
1381,80.0,0,60,0.0,0.0
1382,68.0,0,60,0.0,0.0
1383,56.0,0,60,2.0,0.0
1384,32.0,0,60,15.0,0.0
1385,44.0,0,60,14.0,0.0
1386,68.0,0,60,11.0,0.0
1387,60.0,0,60,3.0,0.0
1388,51.0,0,60,3.0,0.0
1389,48.0,0,60,13.0,0.0
1390,56.0,0,60,12.0,0.0
1391,56.0,0,60,2.0,0.0
1392,68.0,180,60,0.0,0.0
1393,72.0,0,60,1.0,0.0
1394,75.0,0,60,1.0,0.0
1395,68.0,0,60,11.0,0.0
1396,48.0,0,60,13.0,0.0
1397,80.0,0,60,0.0,0.0
1398,60.0,0,60,2.0,0.0
1399,56.0,0,60,12.0,0.0
1400,51.0,0,60,3.0,0.0
1401,60.0,0,60,3.0,0.0
1402,32.0,0,60,15.0,0.0
1403,44.0,0,60,14.0,0.0
1404,72.0,0,120,1.0,0.0
1405,56.0,0,120,12.0,0.0
1406,56.0,0,120,3.0,0.0
1407,48.0,0,120,3.0,0.0
1408,60.0,0,120,2.0,0.0
1409,56.0,210,120,2.0,0.0
1410,80.0,0,120,0.0,0.0
1411,68.0,0,120,0.0,0.0
1412,68.0,0,120,11.0,0.0
1413,75.0,0,120,1.0,0.0
1414,44.0,0,120,14.0,0.0
1415,48.0,0,120,13.0,0.0
1416,32.0,0,120,15.0,0.0
1417,51.0,0,90,3.0,0.0
1418,63.0,26,90,2.0,0.0
1419,55.0,34,30,3.0,0.0
1420,67.0,0,30,2.0,0.0
1421,63.0,0,120,2.0,0.0
1422,48.0,30,30,13.0,0.0
1423,68.0,4,120,2.0,0.0
1424,56.0,0,120,3.0,0.0
1425,48.0,0,120,3.0,0.0
1426,44.0,30,120,15.0,0.0
1427,56.0,0,120,14.0,0.0
1428,51.0,30,30,13.0,0.0
1429,56.0,22,30,13.0,0.0
1430,51.0,4,30,13.0,0.0
1431,56.0,0,120,14.0,0.0
1432,63.0,0,120,2.0,0.0
1433,68.0,30,120,2.0,0.0
1434,63.0,0,120,12.0,0.0
1435,68.0,0,120,11.0,0.0
1436,48.0,30,30,13.0,0.0
1437,44.0,0,120,15.0,0.0
1438,56.0,0,120,3.0,0.0
1439,48.0,0,120,3.0,0.0
1440,51.0,30,30,13.0,0.0
1441,56.0,26,30,13.0,0.0
1442,51.0,4,30,13.0,0.0
1443,51.0,0,120,14.0,0.0
1444,39.0,0,120,15.0,0.0
1445,51.0,30,30,13.0,0.0
1446,67.0,0,120,2.0,0.0
1447,70.0,30,120,2.0,0.0
1448,58.0,0,120,3.0,0.0
1449,51.0,0,120,3.0,0.0
1450,67.0,0,120,12.0,0.0
1451,70.0,0,120,11.0,0.0
1452,55.0,30,30,13.0,0.0
1453,58.0,26,30,13.0,0.0
1454,55.0,4,30,13.0,0.0
1455,68.0,0,120,12.0,0.0
1456,44.0,0,120,14.0,0.0
1457,72.0,30,120,11.0,0.0
1458,32.0,0,120,15.0,0.0
1459,56.0,0,240,3.0,0.0
1460,72.0,0,240,2.0,0.0
1461,68.0,0,240,2.0,0.0
1462,60.0,4,240,3.0,0.0
1463,51.0,30,30,13.0,0.0
1464,56.0,30,30,13.0,0.0
1465,60.0,30,30,13.0,0.0
1466,56.0,0,30,13.0,0.0
1467,51.0,30,30,13.0,0.0
1468,56.0,30,30,13.0,0.0
1469,51.0,22,30,13.0,0.0
1470,48.0,34,30,13.0,0.0
1471,56.0,26,90,3.0,0.0
1472,48.0,0,90,3.0,0.0
1473,63.0,0,90,2.0,0.0
1474,68.0,0,90,2.0,0.0
1475,48.0,30,30,13.0,0.0
1476,56.0,30,30,13.0,0.0
1477,51.0,0,30,13.0,0.0
1478,58.0,0,30,13.0,0.0
1479,51.0,4,30,3.0,0.0
1480,58.0,0,30,3.0,0.0
1481,70.0,0,30,2.0,0.0
1482,67.0,30,30,2.0,0.0
1483,68.0,0,120,2.0,0.0
1484,72.0,4,120,2.0,0.0
1485,56.0,0,120,3.0,0.0
1486,60.0,0,120,3.0,0.0
1487,44.0,0,120,14.0,0.0
1488,51.0,30,30,13.0,0.0
1489,32.0,30,120,15.0,0.0
1490,56.0,30,30,13.0,0.0
1491,60.0,22,30,13.0,0.0
1492,56.0,4,30,13.0,0.0
1493,72.0,0,120,11.0,0.0
1494,56.0,0,120,14.0,0.0
1495,60.0,0,120,3.0,0.0
1496,68.0,0,120,12.0,0.0
1497,72.0,0,120,2.0,0.0
1498,51.0,30,30,13.0,0.0
1499,68.0,0,120,2.0,0.0
1500,44.0,0,120,15.0,0.0
1501,56.0,30,120,3.0,0.0
1502,56.0,30,30,13.0,0.0
1503,60.0,26,30,13.0,0.0
1504,56.0,4,30,13.0,0.0
1505,70.0,0,120,12.0,0.0
1506,56.0,30,120,14.0,0.0
1507,44.0,0,120,15.0,0.0
1508,61.0,0,120,3.0,0.0
1509,73.0,0,120,2.0,0.0
1510,51.0,30,30,13.0,0.0
1511,58.0,0,120,3.0,0.0
1512,73.0,0,120,11.0,0.0
1513,70.0,0,120,2.0,0.0
1514,58.0,30,30,13.0,0.0
1515,61.0,26,30,13.0,0.0
1516,58.0,4,30,13.0,0.0
1517,51.0,30,30,13.0,0.0
1518,56.0,30,120,14.0,0.0
1519,72.0,0,120,12.0,0.0
1520,75.0,0,120,11.0,0.0
1521,75.0,0,240,2.0,0.0
1522,72.0,8,240,2.0,0.0
1523,60.0,0,240,3.0,0.0
1524,63.0,0,240,3.0,0.0
1525,44.0,0,120,15.0,0.0
1526,60.0,30,30,13.0,0.0
1527,63.0,30,30,13.0,0.0
1528,60.0,0,30,13.0,0.0
1529,56.0,30,30,13.0,0.0
1530,60.0,30,30,13.0,0.0
1531,63.0,22,30,13.0,0.0
1532,67.0,90,30,13.0,0.0
1533,68.0,56,120,13.0,0.0
1534,75.0,26,90,11.0,0.0
1535,72.0,0,360,2.0,0.0
1536,75.0,0,360,2.0,0.0
1537,77.0,4,30,11.0,0.0
1538,78.0,4,240,11.0,0.0
1539,69.0,30,30,13.0,0.0
1540,69.0,0,30,12.0,0.0
1541,69.0,0,30,12.0,0.0
1542,69.0,30,30,13.0,0.0
1543,69.0,0,30,12.0,0.0
1544,69.0,60,30,13.0,0.0
1545,69.0,56,60,12.0,0.0
1546,69.0,0,60,13.0,0.0
1547,69.0,0,60,13.0,0.0
1548,69.0,64,60,12.0,0.0
1549,69.0,30,60,12.0,0.0
1550,72.0,60,360,2.0,0.0
1551,75.0,0,360,2.0,0.0
1552,75.0,26,90,11.0,0.0
1553,69.0,0,60,13.0,0.0
1554,77.0,60,30,11.0,0.0
1555,78.0,4,240,11.0,0.0
1556,69.0,0,30,13.0,0.0
1557,69.0,30,30,12.0,0.0
1558,69.0,0,30,13.0,0.0
1559,69.0,30,30,12.0,0.0
1560,69.0,60,30,13.0,0.0
1561,69.0,0,30,12.0,0.0
1562,69.0,0,60,13.0,0.0
1563,69.0,56,60,12.0,0.0
1564,69.0,0,60,13.0,0.0
1565,69.0,4,60,12.0,0.0
1566,63.0,26,90,3.0,0.0
1567,75.0,0,90,1.0,0.0
1568,75.0,0,90,11.0,0.0
1569,87.0,0,90,0.0,0.0
1570,69.0,30,60,12.0,0.0
1571,69.0,0,60,13.0,0.0
1572,65.0,19,30,3.0,0.0
1573,77.0,0,30,11.0,0.0
1574,77.0,0,30,1.0,0.0
1575,89.0,0,30,0.0,0.0
1576,87.0,0,360,0.0,0.0
1577,48.0,11,15,6.0,0.0
1578,60.0,0,360,4.0,0.0
1579,44.0,0,30,14.0,0.0
1580,75.0,0,360,1.0,0.0
1581,72.0,0,30,13.0,0.0
1582,78.0,4,360,11.0,0.0
1583,90.0,0,360,0.0,0.0
1584,63.0,0,360,2.0,0.0
1585,72.0,0,360,2.0,0.0
1586,48.0,0,360,4.0,0.0
1587,78.0,0,360,1.0,0.0
1588,72.0,0,360,5.0,0.0
1589,60.0,0,360,5.0,0.0
1590,66.0,0,360,3.0,0.0
1591,60.0,0,360,3.0,0.0
1592,76.0,0,30,12.0,0.0
1593,32.0,4,30,15.0,0.0
1594,48.0,15,15,6.0,0.0
1595,44.0,0,30,14.0,0.0
1596,32.0,0,30,15.0,0.0
1597,76.0,4,30,12.0,0.0
1598,48.0,11,15,6.0,0.0
1599,72.0,0,30,13.0,0.0
1600,48.0,15,15,6.0,0.0
1601,72.0,0,30,13.0,0.0
1602,76.0,0,30,12.0,0.0
1603,44.0,0,30,14.0,0.0
1604,32.0,4,30,15.0,0.0
1605,48.0,11,15,6.0,0.0
1606,48.0,15,15,6.0,0.0
1607,76.0,4,30,12.0,0.0
1608,72.0,0,30,13.0,0.0
1609,44.0,0,30,14.0,0.0
1610,32.0,0,30,15.0,0.0
1611,48.0,11,15,6.0,0.0
1612,48.0,15,15,6.0,0.0
1613,76.0,0,30,12.0,0.0
1614,44.0,4,30,14.0,0.0
1615,72.0,0,30,13.0,0.0
1616,32.0,0,30,15.0,0.0
1617,48.0,11,15,6.0,0.0
1618,48.0,15,15,6.0,0.0
1619,48.0,11,15,6.0,0.0
1620,32.0,0,30,15.0,0.0
1621,44.0,0,30,14.0,0.0
1622,76.0,0,30,12.0,0.0
1623,72.0,4,30,13.0,0.0
1624,48.0,15,15,6.0,0.0
1625,72.0,4,30,13.0,0.0
1626,48.0,11,15,6.0,0.0
1627,32.0,0,30,15.0,0.0
1628,44.0,0,30,14.0,0.0
1629,76.0,0,30,12.0,0.0
1630,48.0,15,15,6.0,0.0
1631,44.0,0,30,14.0,0.0
1632,76.0,4,30,12.0,0.0
1633,48.0,11,15,6.0,0.0
1634,72.0,0,30,13.0,0.0
1635,32.0,0,30,15.0,0.0
1636,48.0,15,15,6.0,0.0
1637,48.0,11,15,6.0,0.0
1638,72.0,4,30,13.0,0.0
1639,44.0,0,30,14.0,0.0
1640,76.0,0,30,12.0,0.0
1641,32.0,0,30,15.0,0.0
1642,48.0,15,15,6.0,0.0
1643,72.0,4,30,13.0,0.0
1644,44.0,0,30,14.0,0.0
1645,48.0,11,15,6.0,0.0
1646,76.0,0,30,12.0,0.0
1647,32.0,0,30,15.0,0.0
1648,48.0,15,15,6.0,0.0
1649,32.0,0,30,15.0,0.0
1650,44.0,4,30,14.0,0.0
1651,72.0,0,30,13.0,0.0
1652,76.0,0,30,12.0,0.0
1653,48.0,11,15,6.0,0.0
1654,48.0,15,15,6.0,0.0
1655,76.0,0,30,12.0,0.0
1656,72.0,0,30,13.0,0.0
1657,48.0,7,15,6.0,0.0
1658,32.0,4,30,15.0,0.0
1659,44.0,0,30,14.0,0.0
1660,48.0,26,15,6.0,0.0
1661,60.0,0,90,5.0,0.0
1662,72.0,26,90,5.0,0.0
1663,64.0,0,90,2.0,0.0
1664,79.0,0,90,11.0,0.0
1665,48.0,0,90,4.0,0.0
1666,64.0,0,60,3.0,0.0
1667,79.0,0,90,1.0,0.0
1668,76.0,0,90,1.0,0.0
1669,72.0,30,30,13.0,0.0
1670,76.0,0,30,12.0,0.0
1671,60.0,0,90,4.0,0.0
1672,67.0,19,60,3.0,0.0
1673,72.0,0,90,2.0,0.0
1674,31.0,0,60,15.0,0.0
1675,88.0,0,90,0.0,0.0
1676,43.0,0,90,6.0,0.0
1677,91.0,0,90,0.0,0.0
1678,43.0,0,60,14.0,0.0
1679,72.0,0,30,13.0,0.0
1680,76.0,11,30,12.0,0.0
1681,36.0,0,30,15.0,0.0
1682,48.0,0,30,14.0,0.0
1683,72.0,0,30,13.0,0.0
1684,76.0,4,30,12.0,0.0
1685,52.0,0,30,14.0,0.0
1686,84.0,4,30,0.0,0.0
1687,76.0,0,30,1.0,0.0
1688,72.0,0,30,1.0,0.0
1689,76.0,0,30,11.0,0.0
1690,88.0,0,30,0.0,0.0
1691,67.0,0,30,13.0,0.0
1692,40.0,0,30,15.0,0.0
1693,60.0,0,30,3.0,0.0
1694,64.0,26,30,3.0,0.0
1695,72.0,0,30,12.0,0.0
1696,64.0,30,30,13.0,0.0
1697,67.0,0,90,2.0,0.0
1698,64.0,0,90,2.0,0.0
1699,60.0,0,90,3.0,0.0
1700,43.0,0,90,15.0,0.0
1701,43.0,0,90,6.0,0.0
1702,55.0,0,90,3.0,0.0
1703,64.0,0,90,5.0,0.0
1704,72.0,26,90,5.0,0.0
1705,79.0,0,90,0.0,0.0
1706,72.0,0,90,11.0,0.0
1707,67.0,0,30,12.0,0.0
1708,67.0,0,90,1.0,0.0
1709,64.0,0,90,11.0,0.0
1710,55.0,0,90,11.0,0.0
1711,72.0,0,90,1.0,0.0
1712,60.0,0,90,4.0,0.0
1713,84.0,0,90,0.0,0.0
1714,55.0,0,90,14.0,0.0
1715,52.0,0,90,4.0,0.0
1716,67.0,30,30,12.0,0.0
1717,64.0,0,30,13.0,0.0
1718,67.0,0,30,12.0,0.0
1719,64.0,4,30,13.0,0.0
1720,60.0,30,30,13.0,0.0
1721,64.0,0,30,12.0,0.0
1722,71.0,0,30,12.0,0.0
1723,62.0,0,90,4.0,0.0
1724,55.0,0,90,4.0,0.0
1725,67.0,0,90,5.0,0.0
1726,31.0,0,90,15.0,0.0
1727,65.0,0,90,11.0,0.0
1728,65.0,30,30,12.0,0.0
1729,67.0,0,30,13.0,0.0
1730,67.0,0,90,2.0,0.0
1731,74.0,0,90,5.0,0.0
1732,74.0,0,90,11.0,0.0
1733,55.0,0,90,11.0,0.0
1734,86.0,0,90,0.0,0.0
1735,83.0,0,90,0.0,0.0
1736,43.0,26,90,6.0,0.0
1737,43.0,0,90,14.0,0.0
1738,74.0,0,90,1.0,0.0
1739,71.0,0,90,1.0,0.0
1740,59.0,0,90,3.0,0.0
1741,65.0,0,90,2.0,0.0
1742,62.0,0,90,3.0,0.0
1743,55.0,0,30,13.0,0.0
1744,71.0,0,30,12.0,0.0
1745,65.0,30,30,12.0,0.0
1746,65.0,0,30,12.0,0.0
1747,71.0,0,30,12.0,0.0
1748,67.0,4,30,13.0,0.0
1749,71.0,116,30,12.0,0.0
1750,65.0,0,30,12.0,0.0
1751,67.0,0,30,13.0,0.0
1752,64.0,0,120,5.0,0.0
1753,84.0,0,120,0.0,0.0
1754,48.0,0,120,14.0,0.0
1755,76.0,0,120,0.0,0.0
1756,48.0,120,120,6.0,0.0
1757,72.0,0,120,1.0,0.0
1758,64.0,0,120,11.0,0.0
1759,67.0,0,120,2.0,0.0
1760,60.0,0,120,4.0,0.0
1761,52.0,0,120,4.0,0.0
1762,60.0,0,120,13.0,0.0
1763,64.0,0,120,12.0,0.0
1764,64.0,0,120,2.0,0.0
1765,36.0,8,120,15.0,0.0
1766,60.0,0,120,3.0,0.0
1767,55.0,0,120,11.0,0.0
1768,72.0,0,120,11.0,0.0
1769,72.0,0,120,5.0,0.0
1770,67.0,0,120,1.0,0.0
1771,72.0,0,120,12.0,0.0
1772,36.0,0,120,15.0,0.0
1773,36.0,86,120,14.0,0.0
1774,52.0,30,90,4.0,0.0
1775,64.0,0,90,1.0,0.0
1776,64.0,0,90,5.0,0.0
1777,55.0,0,30,4.0,0.0
1778,67.0,26,30,5.0,0.0
1779,67.0,0,30,1.0,0.0
1780,52.0,0,120,4.0,0.0
1781,60.0,8,120,4.0,0.0
1782,72.0,0,120,5.0,0.0
1783,64.0,0,20,11.0,0.0
1784,48.0,0,120,14.0,0.0
1785,64.0,0,120,5.0,0.0
1786,64.0,0,120,1.0,0.0
1787,64.0,0,20,12.0,0.0
1788,36.0,0,120,15.0,0.0
1789,72.0,0,120,1.0,0.0
1790,52.0,30,20,13.0,0.0
1791,48.0,22,120,6.0,0.0
1792,67.0,0,20,12.0,0.0
1793,67.0,0,20,11.0,0.0
1794,55.0,30,20,13.0,0.0
1795,72.0,0,20,12.0,0.0
1796,60.0,0,20,13.0,0.0
1797,72.0,30,20,11.0,0.0
1798,55.0,0,20,13.0,0.0
1799,67.0,0,20,12.0,0.0
1800,67.0,0,20,11.0,0.0
1801,48.0,0,120,14.0,0.0
1802,64.0,30,20,11.0,0.0
1803,52.0,0,120,4.0,0.0
1804,36.0,0,120,15.0,0.0
1805,60.0,0,120,4.0,0.0
1806,64.0,0,120,1.0,0.0
1807,72.0,0,120,5.0,0.0
1808,64.0,0,120,5.0,0.0
1809,64.0,0,20,12.0,0.0
1810,72.0,0,120,1.0,0.0
1811,48.0,22,120,6.0,0.0
1812,52.0,0,20,13.0,0.0
1813,67.0,0,20,12.0,0.0
1814,67.0,0,20,11.0,0.0
1815,55.0,30,20,13.0,0.0
1816,72.0,0,20,11.0,0.0
1817,60.0,0,20,13.0,0.0
1818,72.0,30,20,12.0,0.0
1819,67.0,0,20,11.0,0.0
1820,55.0,0,20,13.0,0.0
1821,67.0,8,20,12.0,0.0
1822,67.0,30,20,12.0,0.0
1823,55.0,0,20,13.0,0.0
1824,43.0,0,120,14.0,0.0
1825,62.0,0,120,4.0,0.0
1826,67.0,0,120,1.0,0.0
1827,74.0,0,120,1.0,0.0
1828,67.0,0,120,5.0,0.0
1829,43.0,22,120,6.0,0.0
1830,31.0,0,120,15.0,0.0
1831,55.0,0,120,4.0,0.0
1832,74.0,0,120,5.0,0.0
1833,67.0,0,20,11.0,0.0
1834,71.0,0,20,12.0,0.0
1835,59.0,30,20,13.0,0.0
1836,71.0,0,20,11.0,0.0
1837,62.0,0,20,13.0,0.0
1838,74.0,30,20,12.0,0.0
1839,74.0,0,20,11.0,0.0
1840,71.0,0,20,11.0,0.0
1841,59.0,8,20,13.0,0.0
1842,71.0,0,20,12.0,0.0
1843,67.0,0,20,11.0,0.0
1844,67.0,0,20,12.0,0.0
1845,55.0,30,20,13.0,0.0
1846,72.0,0,240,1.0,0.0
1847,48.0,22,120,6.0,0.0
1848,76.0,0,240,1.0,0.0
1849,48.0,0,240,14.0,0.0
1850,36.0,0,240,15.0,0.0
1851,60.0,0,240,4.0,0.0
1852,64.0,0,240,4.0,0.0
1853,76.0,0,240,5.0,0.0
1854,72.0,0,240,5.0,0.0
1855,60.0,0,20,13.0,0.0
1856,72.0,0,20,11.0,0.0
1857,72.0,30,20,12.0,0.0
1858,76.0,0,20,11.0,0.0
1859,76.0,30,20,12.0,0.0
1860,64.0,0,20,13.0,0.0
1861,72.0,0,20,11.0,0.0
1862,60.0,0,20,13.0,0.0
1863,72.0,8,20,12.0,0.0
1864,67.0,0,20,11.0,0.0
1865,67.0,0,20,12.0,0.0
1866,55.0,30,20,13.0,0.0
1867,60.0,30,20,13.0,0.0
1868,72.0,0,20,12.0,0.0
1869,72.0,0,20,11.0,0.0
1870,55.0,0,20,13.0,0.0
1871,67.0,30,20,11.0,0.0
1872,67.0,0,20,12.0,0.0
1873,52.0,0,20,13.0,0.0
1874,64.0,0,20,11.0,0.0
1875,64.0,30,20,12.0,0.0
1876,48.0,22,90,6.0,0.0
1877,64.0,0,90,1.0,0.0
1878,72.0,0,90,1.0,0.0
1879,72.0,0,90,5.0,0.0
1880,36.0,0,90,15.0,0.0
1881,60.0,4,90,4.0,0.0
1882,64.0,0,90,5.0,0.0
1883,52.0,0,90,4.0,0.0
1884,48.0,0,20,13.0,0.0
1885,48.0,0,90,14.0,0.0
1886,60.0,30,20,11.0,0.0
1887,60.0,0,20,12.0,0.0
1888,55.0,30,20,13.0,0.0
1889,67.0,0,20,11.0,0.0
1890,67.0,0,20,12.0,0.0
1891,72.0,0,20,11.0,0.0
1892,60.0,0,20,13.0,0.0
1893,72.0,4,20,12.0,0.0
1894,36.0,4,30,15.0,0.0
1895,48.0,0,30,14.0,0.0
1896,67.0,0,30,5.0,0.0
1897,48.0,22,30,6.0,0.0
1898,67.0,0,30,1.0,0.0
1899,74.0,0,30,1.0,0.0
1900,74.0,0,20,12.0,0.0
1901,62.0,0,30,4.0,0.0
1902,74.0,4,20,11.0,0.0
1903,74.0,0,30,5.0,0.0
1904,55.0,0,30,4.0,0.0
1905,62.0,0,20,13.0,0.0
1906,55.0,30,20,13.0,0.0
1907,72.0,8,120,5.0,0.0
1908,76.0,0,120,5.0,0.0
1909,48.0,0,120,14.0,0.0
1910,72.0,0,120,1.0,0.0
1911,76.0,0,120,1.0,0.0
1912,48.0,22,120,6.0,0.0
1913,60.0,0,120,4.0,0.0
1914,67.0,0,20,11.0,0.0
1915,67.0,0,20,12.0,0.0
1916,64.0,0,120,4.0,0.0
1917,36.0,0,120,15.0,0.0
1918,72.0,30,20,11.0,0.0
1919,72.0,0,20,12.0,0.0
1920,60.0,0,20,13.0,0.0
1921,64.0,30,20,13.0,0.0
1922,76.0,0,20,11.0,0.0
1923,76.0,0,20,12.0,0.0
1924,72.0,0,20,12.0,0.0
1925,72.0,0,20,11.0,0.0
1926,60.0,0,20,13.0,0.0
1927,48.0,0,120,14.0,0.0
1928,67.0,30,20,12.0,0.0
1929,76.0,0,120,1.0,0.0
1930,72.0,0,120,1.0,0.0
1931,64.0,0,120,4.0,0.0
1932,55.0,0,20,13.0,0.0
1933,36.0,0,120,15.0,0.0
1934,60.0,0,120,4.0,0.0
1935,76.0,0,120,5.0,0.0
1936,67.0,0,20,11.0,0.0
1937,48.0,22,120,6.0,0.0
1938,72.0,0,120,5.0,0.0
1939,72.0,0,20,12.0,0.0
1940,60.0,30,20,13.0,0.0
1941,72.0,0,20,11.0,0.0
1942,64.0,30,20,13.0,0.0
1943,76.0,0,20,12.0,0.0
1944,76.0,0,20,11.0,0.0
1945,60.0,0,20,13.0,0.0
1946,72.0,0,20,12.0,0.0
1947,72.0,8,20,11.0,0.0
1948,62.0,0,120,4.0,0.0
1949,67.0,0,20,12.0,0.0
1950,55.0,0,20,13.0,0.0
1951,65.0,0,120,4.0,0.0
1952,48.0,0,120,14.0,0.0
1953,74.0,0,120,5.0,0.0
1954,77.0,0,120,1.0,0.0
1955,74.0,0,120,1.0,0.0
1956,77.0,8,120,5.0,0.0
1957,48.0,15,120,6.0,0.0
1958,36.0,0,120,15.0,0.0
1959,67.0,30,20,11.0,0.0
1960,74.0,30,20,12.0,0.0
1961,74.0,0,20,11.0,0.0
1962,62.0,0,20,13.0,0.0
1963,65.0,0,20,13.0,0.0
1964,77.0,30,20,11.0,0.0
1965,77.0,0,20,12.0,0.0
1966,74.0,0,20,11.0,0.0
1967,74.0,0,20,12.0,0.0
1968,62.0,0,20,13.0,0.0
1969,67.0,0,20,12.0,0.0
1970,67.0,0,20,11.0,0.0
1971,36.0,0,30,15.0,0.0
1972,48.0,7,15,6.0,0.0
1973,76.0,7,210,5.0,0.0
1974,67.0,0,210,4.0,0.0
1975,55.0,8,20,13.0,0.0
1976,64.0,0,210,4.0,0.0
1977,76.0,0,210,1.0,0.0
1978,48.0,15,30,14.0,0.0
1979,79.0,0,210,1.0,0.0
1980,79.0,0,210,5.0,0.0
1981,48.0,0,15,6.0,0.0
1982,76.0,8,20,12.0,0.0
1983,48.0,8,210,14.0,0.0
1984,64.0,0,20,13.0,0.0
1985,48.0,7,15,6.0,0.0
1986,76.0,0,20,11.0,0.0
1987,36.0,0,210,15.0,0.0
1988,48.0,15,15,6.0,0.0
1989,67.0,0,20,13.0,0.0
1990,48.0,7,15,6.0,0.0
1991,79.0,0,20,11.0,0.0
1992,79.0,8,20,12.0,0.0
1993,48.0,15,15,6.0,0.0
1994,76.0,8,20,11.0,0.0
1995,76.0,0,20,12.0,0.0
1996,64.0,0,20,13.0,0.0
1997,48.0,7,15,6.0,0.0
1998,48.0,15,15,6.0,0.0
1999,72.0,8,20,11.0,0.0
2000,60.0,0,20,13.0,0.0
2001,72.0,0,20,12.0,0.0
2002,48.0,7,15,6.0,0.0
2003,48.0,15,15,6.0,0.0
2004,48.0,7,15,6.0,0.0
2005,67.0,8,20,11.0,0.0
2006,55.0,0,20,13.0,0.0
2007,67.0,0,20,12.0,0.0
2008,48.0,15,15,6.0,0.0
2009,64.0,0,20,12.0,0.0
2010,64.0,8,20,11.0,0.0
2011,52.0,0,20,13.0,0.0
2012,48.0,7,15,6.0,0.0
2013,48.0,15,15,6.0,0.0
2014,67.0,0,20,12.0,0.0
2015,48.0,0,15,6.0,0.0
2016,67.0,0,20,11.0,0.0
2017,55.0,0,20,13.0,0.0
2018,48.0,22,15,6.0,0.0
2019,72.0,0,90,1.0,0.0
2020,72.0,0,90,5.0,0.0
2021,60.0,30,20,11.0,0.0
2022,76.0,0,90,1.0,0.0
2023,76.0,0,90,5.0,0.0
2024,48.0,4,90,14.0,0.0
2025,36.0,0,90,15.0,0.0
2026,48.0,0,20,13.0,0.0
2027,60.0,0,90,4.0,0.0
2028,48.0,22,90,6.0,0.0
2029,60.0,0,20,12.0,0.0
2030,64.0,0,90,4.0,0.0
2031,60.0,0,20,13.0,0.0
2032,72.0,0,20,12.0,0.0
2033,72.0,30,20,11.0,0.0
2034,76.0,0,20,12.0,0.0
2035,76.0,4,20,11.0,0.0
2036,64.0,0,20,13.0,0.0
2037,48.0,0,30,14.0,0.0
2038,48.0,15,30,6.0,0.0
2039,77.0,4,20,12.0,0.0
2040,77.0,0,20,11.0,0.0
2041,65.0,0,20,13.0,0.0
2042,36.0,0,30,15.0,0.0
2043,74.0,0,30,1.0,0.0
2044,62.0,0,30,4.0,0.0
2045,65.0,0,30,4.0,0.0
2046,77.0,0,30,1.0,0.0
2047,77.0,4,30,5.0,0.0
2048,74.0,0,30,5.0,0.0
2049,67.0,0,210,4.0,0.0
2050,64.0,0,210,4.0,0.0
2051,76.0,0,210,1.0,0.0
2052,79.0,0,210,1.0,0.0
2053,67.0,8,20,11.0,0.0
2054,67.0,0,20,12.0,0.0
2055,48.0,7,15,6.0,0.0
2056,55.0,0,20,13.0,0.0
2057,76.0,0,210,5.0,0.0
2058,79.0,0,210,5.0,0.0
2059,48.0,0,30,14.0,0.0
2060,36.0,0,30,15.0,0.0
2061,48.0,15,15,6.0,0.0
2062,48.0,7,15,6.0,0.0
2063,76.0,0,20,12.0,0.0
2064,76.0,8,20,11.0,0.0
2065,64.0,0,20,13.0,0.0
2066,48.0,0,210,14.0,0.0
2067,36.0,8,210,15.0,0.0
2068,48.0,15,15,6.0,0.0
2069,67.0,0,20,13.0,0.0
2070,79.0,0,20,11.0,0.0
2071,48.0,7,15,6.0,0.0
2072,79.0,8,20,12.0,0.0
2073,48.0,15,15,6.0,0.0
2074,48.0,7,15,6.0,0.0
2075,76.0,8,20,12.0,0.0
2076,64.0,0,20,13.0,0.0
2077,76.0,0,20,11.0,0.0
2078,48.0,15,15,6.0,0.0
2079,48.0,7,15,6.0,0.0
2080,60.0,8,20,13.0,0.0
2081,72.0,0,20,11.0,0.0
2082,72.0,0,20,12.0,0.0
2083,48.0,15,15,6.0,0.0
2084,55.0,0,20,13.0,0.0
2085,67.0,0,20,11.0,0.0
2086,48.0,7,15,6.0,0.0
2087,67.0,8,20,12.0,0.0
2088,48.0,15,15,6.0,0.0
2089,64.0,0,20,11.0,0.0
2090,52.0,0,20,13.0,0.0
2091,48.0,7,15,6.0,0.0
2092,64.0,8,20,12.0,0.0
2093,48.0,15,15,6.0,0.0
2094,67.0,0,20,12.0,0.0
2095,67.0,0,20,11.0,0.0
2096,55.0,0,20,13.0,0.0
2097,48.0,7,15,6.0,0.0
2098,48.0,22,15,6.0,0.0
2099,48.0,0,90,14.0,0.0
2100,72.0,4,90,5.0,0.0
2101,48.0,0,20,13.0,0.0
2102,60.0,0,90,4.0,0.0
2103,36.0,0,90,15.0,0.0
2104,76.0,0,90,5.0,0.0
2105,60.0,30,20,11.0,0.0
2106,64.0,0,90,4.0,0.0
2107,48.0,22,90,6.0,0.0
2108,76.0,0,90,1.0,0.0
2109,72.0,0,90,1.0,0.0
2110,60.0,0,20,12.0,0.0
2111,72.0,0,20,11.0,0.0
2112,72.0,0,20,12.0,0.0
2113,60.0,30,20,13.0,0.0
2114,60.0,0,20,13.0,0.0
2115,64.0,0,20,13.0,0.0
2116,72.0,0,20,12.0,0.0
2117,76.0,4,20,11.0,0.0
2118,48.0,0,30,14.0,0.0
2119,74.0,0,30,1.0,0.0
2120,77.0,0,30,5.0,0.0
2121,65.0,0,20,13.0,0.0
2122,48.0,120,30,6.0,0.0
2123,74.0,0,30,5.0,0.0
2124,62.0,0,20,13.0,0.0
2125,77.0,0,20,11.0,0.0
2126,62.0,0,30,4.0,0.0
2127,36.0,4,30,15.0,0.0
2128,74.0,4,20,12.0,0.0
2129,65.0,0,30,4.0,0.0
2130,77.0,0,30,1.0,0.0
2131,64.0,0,120,13.0,0.0
2132,67.0,0,120,13.0,0.0
2133,48.0,0,120,14.0,0.0
2134,76.0,0,480,5.0,0.0
2135,79.0,0,480,5.0,0.0
2136,67.0,0,840,4.0,0.0
2137,36.0,0,120,15.0,0.0
2138,64.0,0,120,11.0,0.0
2139,79.0,0,120,11.0,0.0
2140,64.0,56,840,4.0,0.0
2141,72.0,0,120,11.0,0.0
2142,76.0,0,480,1.0,0.0
2143,79.0,210,480,1.0,0.0
2144,76.0,360,120,12.0,0.0
2145,48.0,0,120,6.0,0.0
2146,70.0,0,360,12.0,0.0
2147,70.0,26,90,11.0,0.0
2148,67.0,0,360,13.0,0.0
2149,72.0,60,30,11.0,0.0
2150,73.0,4,240,11.0,0.0
2151,55.0,56,840,3.0,0.0
2152,52.0,56,720,3.0,0.0
2153,40.0,30,30,14.0,0.0
2154,40.0,30,30,14.0,0.0
2155,40.0,4,30,14.0,0.0
2156,40.0,56,60,14.0,0.0
2157,40.0,64,60,14.0,0.0
2158,70.0,0,360,12.0,0.0
2159,67.0,4,360,13.0,0.0
2160,70.0,26,90,11.0,0.0
2161,40.0,30,60,14.0,0.0
2162,72.0,60,30,11.0,0.0
2163,73.0,0,240,11.0,0.0
2164,40.0,30,30,14.0,0.0
2165,40.0,30,30,14.0,0.0
2166,40.0,60,30,14.0,0.0
2167,40.0,56,60,14.0,0.0
2168,40.0,64,60,14.0,0.0
2169,70.0,8,480,12.0,0.0
2170,67.0,0,480,13.0,0.0
2171,40.0,30,60,14.0,0.0
2172,70.0,26,90,11.0,0.0
2173,72.0,4,30,11.0,0.0
2174,73.0,0,360,11.0,0.0
2175,52.0,56,720,3.0,0.0
2176,40.0,30,30,14.0,0.0
2177,40.0,30,30,14.0,0.0
2178,40.0,4,30,14.0,0.0
2179,58.0,0,240,3.0,0.0
2180,40.0,60,60,14.0,0.0
2181,40.0,60,60,14.0,0.0
2182,40.0,56,60,14.0,0.0
2183,40.0,56,60,14.0,0.0
2184,59.0,0,720,3.0,0.0
2185,74.0,0,360,11.0,0.0
2186,71.0,8,720,12.0,0.0
2187,68.0,0,720,13.0,0.0
2188,40.0,30,30,14.0,0.0
2189,40.0,30,30,14.0,0.0
2190,40.0,60,30,14.0,0.0
2191,40.0,60,60,14.0,0.0
2192,40.0,60,60,14.0,0.0
2193,40.0,64,60,14.0,0.0
2194,40.0,0,60,14.0,0.0
2195,75.0,56,360,11.0,0.0
2196,51.0,0,360,3.0,0.0
2197,39.0,30,30,14.0,0.0
2198,39.0,30,30,14.0,0.0
2199,39.0,60,30,14.0,0.0
2200,39.0,60,60,14.0,0.0
2201,39.0,60,60,14.0,0.0
2202,39.0,56,60,14.0,0.0
2203,39.0,0,60,14.0,0.0
2204,71.0,0,360,12.0,0.0
2205,68.0,0,360,13.0,0.0
2206,59.0,0,360,3.0,0.0
2207,50.0,0,360,3.0,0.0
2208,77.0,56,360,11.0,0.0
2209,38.0,30,30,14.0,0.0
2210,38.0,30,30,14.0,0.0
2211,38.0,60,30,14.0,0.0
2212,38.0,60,60,14.0,0.0
2213,38.0,60,60,14.0,0.0
2214,38.0,64,60,14.0,0.0
2215,38.0,0,60,14.0,0.0
2216,70.0,8,360,12.0,0.0
2217,64.0,0,360,3.0,0.0
2218,49.0,0,360,3.0,0.0
2219,79.0,56,360,11.0,0.0
2220,64.0,0,360,13.0,0.0
2221,37.0,30,30,14.0,0.0
2222,37.0,30,30,14.0,0.0
2223,37.0,60,30,14.0,0.0
2224,37.0,60,60,14.0,0.0
2225,37.0,60,60,14.0,0.0
2226,37.0,56,60,14.0,0.0
2227,37.0,0,60,14.0,0.0
2228,48.0,0,360,3.0,0.0
2229,63.0,56,360,3.0,0.0
2230,63.0,0,360,13.0,0.0
2231,80.0,0,360,11.0,0.0
2232,68.0,0,720,12.0,0.0
2233,36.0,30,30,14.0,0.0
2234,36.0,30,30,14.0,0.0
2235,36.0,60,30,14.0,0.0
2236,36.0,60,60,14.0,0.0
2237,36.0,60,60,14.0,0.0
2238,36.0,64,60,14.0,0.0
2239,36.0,0,60,14.0,0.0
2240,61.0,0,360,3.0,0.0
2241,49.0,0,360,3.0,0.0
2242,61.0,4,360,13.0,0.0
2243,77.0,0,360,11.0,0.0
2244,37.0,30,30,14.0,0.0
2245,37.0,30,30,14.0,0.0
2246,37.0,60,30,14.0,0.0
2247,37.0,60,60,14.0,0.0
2248,37.0,60,60,14.0,0.0
2249,37.0,56,60,14.0,0.0
2250,37.0,56,60,14.0,0.0
2251,39.0,49,60,14.0,0.0
2252,39.0,0,120,15.0,0.0
2253,75.0,45,120,11.0,0.0
2254,58.0,0,60,13.0,0.0
2255,58.0,4,60,3.0,0.0
2256,51.0,0,60,3.0,0.0
2257,67.0,0,120,12.0,0.0
2258,51.0,0,40,3.0,0.0
2259,51.0,0,40,14.0,0.0
2260,51.0,15,40,13.0,0.0
2261,63.0,60,40,13.0,0.0
2262,63.0,0,40,3.0,0.0
2263,63.0,0,40,14.0,0.0
2264,63.0,60,40,2.0,0.0
2265,75.0,60,40,2.0,0.0
2266,75.0,0,40,1.0,0.0
2267,75.0,285,40,0.0,0.0
2268,63.0,0,720,3.0,0.0
2269,75.0,0,720,1.0,0.0
2270,87.0,30,720,0.0,0.0
2271,51.0,0,30,13.0,0.0
2272,72.0,30,120,11.0,0.0
2273,32.0,0,120,15.0,0.0
2274,60.0,0,120,12.0,0.0
2275,51.0,30,30,14.0,0.0
2276,55.0,30,30,14.0,0.0
2277,55.0,0,30,13.0,0.0
2278,56.0,0,30,13.0,0.0
2279,56.0,26,30,14.0,0.0
2280,58.0,0,30,14.0,0.0
2281,58.0,4,30,13.0,0.0
2282,60.0,0,30,13.0,0.0
2283,60.0,30,30,14.0,0.0
2284,32.0,0,120,15.0,0.0
2285,60.0,0,120,12.0,0.0
2286,72.0,0,120,11.0,0.0
2287,58.0,30,30,13.0,0.0
2288,58.0,0,30,14.0,0.0
2289,56.0,0,30,13.0,0.0
2290,56.0,30,30,14.0,0.0
2291,55.0,0,30,13.0,0.0
2292,55.0,30,30,14.0,0.0
2293,72.0,0,120,11.0,0.0
2294,32.0,0,120,15.0,0.0
2295,60.0,0,120,12.0,0.0
2296,56.0,0,30,13.0,0.0
2297,56.0,30,30,14.0,0.0
2298,58.0,0,30,14.0,0.0
2299,58.0,30,30,13.0,0.0
2300,56.0,0,30,14.0,0.0
2301,56.0,30,30,13.0,0.0
2302,55.0,0,30,14.0,0.0
2303,55.0,30,30,13.0,0.0
2304,56.0,0,30,14.0,0.0
2305,56.0,30,30,13.0,0.0
2306,58.0,0,30,14.0,0.0
2307,58.0,30,30,13.0,0.0
2308,60.0,0,30,13.0,0.0
2309,72.0,0,60,11.0,0.0
2310,60.0,0,60,12.0,0.0
2311,32.0,0,60,15.0,0.0
2312,60.0,26,30,14.0,0.0
2313,56.0,0,30,13.0,0.0
2314,56.0,4,30,14.0,0.0
2315,37.0,0,120,15.0,0.0
2316,63.0,0,720,3.0,0.0
2317,87.0,0,720,0.0,0.0
2318,53.0,0,30,14.0,0.0
2319,65.0,0,120,12.0,0.0
2320,53.0,30,30,13.0,0.0
2321,75.0,0,720,1.0,0.0
2322,65.0,0,120,11.0,0.0
2323,55.0,0,30,13.0,0.0
2324,55.0,30,30,14.0,0.0
2325,53.0,30,30,14.0,0.0
2326,53.0,0,30,13.0,0.0
2327,52.0,30,30,14.0,0.0
2328,52.0,0,30,13.0,0.0
2329,53.0,30,30,14.0,0.0
2330,65.0,0,120,12.0,0.0
2331,53.0,0,30,13.0,0.0
2332,65.0,0,120,11.0,0.0
2333,37.0,0,120,15.0,0.0
2334,57.0,0,30,14.0,0.0
2335,57.0,30,30,13.0,0.0
2336,58.0,0,30,14.0,0.0
2337,58.0,30,30,13.0,0.0
2338,57.0,30,30,13.0,0.0
2339,57.0,0,30,14.0,0.0
2340,58.0,0,30,13.0,0.0
2341,58.0,30,30,14.0,0.0
2342,60.0,30,30,13.0,0.0
2343,60.0,0,30,14.0,0.0
2344,61.0,0,30,13.0,0.0
2345,37.0,0,60,15.0,0.0
2346,61.0,26,30,14.0,0.0
2347,65.0,0,60,11.0,0.0
2348,65.0,30,60,12.0,0.0
2349,60.0,0,30,13.0,0.0
2350,60.0,4,30,14.0,0.0
2351,61.0,0,120,12.0,0.0
2352,34.0,0,120,15.0,0.0
2353,73.0,0,120,11.0,0.0
2354,61.0,30,30,13.0,0.0
2355,61.0,0,30,14.0,0.0
2356,60.0,0,30,14.0,0.0
2357,60.0,30,30,13.0,0.0
2358,61.0,30,30,13.0,0.0
2359,61.0,0,30,14.0,0.0
2360,60.0,0,30,13.0,0.0
2361,60.0,30,30,14.0,0.0
2362,73.0,0,120,11.0,0.0
2363,58.0,0,30,13.0,0.0
2364,34.0,0,120,15.0,0.0
2365,61.0,0,120,12.0,0.0
2366,58.0,30,30,14.0,0.0
2367,61.0,0,30,13.0,0.0
2368,61.0,30,30,14.0,0.0
2369,56.0,30,30,14.0,0.0
2370,56.0,0,30,13.0,0.0
2371,61.0,30,30,14.0,0.0
2372,61.0,0,30,13.0,0.0
2373,55.0,0,30,13.0,0.0
2374,55.0,30,30,14.0,0.0
2375,61.0,0,30,14.0,0.0
2376,61.0,30,30,13.0,0.0
2377,73.0,30,60,11.0,0.0
2378,53.0,26,30,13.0,0.0
2379,53.0,0,30,14.0,0.0
2380,34.0,0,60,15.0,0.0
2381,61.0,0,60,12.0,0.0
2382,61.0,4,30,14.0,0.0
2383,61.0,0,30,13.0,0.0
2384,76.0,0,360,1.0,0.0
2385,52.0,0,30,14.0,0.0
2386,64.0,4,360,3.0,0.0
2387,36.0,30,120,15.0,0.0
2388,52.0,30,30,13.0,0.0
2389,88.0,0,360,0.0,0.0
2390,72.0,0,120,11.0,0.0
2391,60.0,0,120,12.0,0.0
2392,55.0,0,30,14.0,0.0
2393,55.0,30,30,13.0,0.0
2394,57.0,30,30,13.0,0.0
2395,57.0,0,30,14.0,0.0
2396,59.0,0,30,13.0,0.0
2397,59.0,0,30,14.0,0.0
2398,72.0,0,120,11.0,0.0
2399,60.0,0,30,13.0,0.0
2400,36.0,0,120,15.0,0.0
2401,60.0,30,30,14.0,0.0
2402,60.0,30,120,12.0,0.0
2403,55.0,0,30,14.0,0.0
2404,55.0,30,30,13.0,0.0
2405,57.0,30,30,14.0,0.0
2406,57.0,0,30,13.0,0.0
2407,59.0,0,30,13.0,0.0
2408,59.0,0,30,14.0,0.0
2409,60.0,30,30,13.0,0.0
2410,60.0,0,30,14.0,0.0
2411,55.0,0,30,13.0,0.0
2412,55.0,30,30,14.0,0.0
2413,60.0,0,30,14.0,0.0
2414,60.0,0,60,12.0,0.0
2415,72.0,30,60,11.0,0.0
2416,36.0,0,60,15.0,0.0
2417,60.0,22,30,13.0,0.0
2418,58.0,0,30,14.0,0.0
2419,58.0,4,30,13.0,0.0
2420,77.0,0,480,1.0,0.0
2421,89.0,0,480,0.0,0.0
2422,72.0,0,120,11.0,0.0
2423,57.0,30,30,14.0,0.0
2424,69.0,0,120,12.0,0.0
2425,65.0,8,480,3.0,0.0
2426,57.0,0,30,13.0,0.0
2427,41.0,0,120,15.0,0.0
2428,60.0,0,30,13.0,0.0
2429,60.0,30,30,14.0,0.0
2430,53.0,30,30,13.0,0.0
2431,53.0,0,30,14.0,0.0
2432,60.0,0,30,14.0,0.0
2433,60.0,30,30,13.0,0.0
2434,34.0,0,120,15.0,0.0
2435,58.0,30,30,13.0,0.0
2436,58.0,0,30,14.0,0.0
2437,70.0,0,120,12.0,0.0
2438,73.0,0,120,11.0,0.0
2439,61.0,30,30,13.0,0.0
2440,61.0,0,30,14.0,0.0
2441,53.0,30,30,14.0,0.0
2442,53.0,0,30,13.0,0.0
2443,61.0,0,30,13.0,0.0
2444,61.0,30,30,14.0,0.0
2445,60.0,30,30,14.0,0.0
2446,58.0,0,30,13.0,0.0
2447,61.0,0,30,13.0,0.0
2448,61.0,30,30,14.0,0.0
2449,56.0,26,30,13.0,0.0
2450,70.0,0,60,12.0,0.0
2451,73.0,0,60,11.0,0.0
2452,34.0,30,60,15.0,0.0
2453,56.0,0,30,14.0,0.0
2454,61.0,4,30,14.0,0.0
2455,61.0,0,30,13.0,0.0
2456,70.0,30,120,11.0,0.0
2457,55.0,30,30,13.0,0.0
2458,55.0,0,30,14.0,0.0
2459,39.0,0,120,15.0,0.0
2460,67.0,0,120,12.0,0.0
2461,60.0,30,30,14.0,0.0
2462,58.0,0,30,13.0,0.0
2463,51.0,0,30,14.0,0.0
2464,51.0,22,30,13.0,0.0
2465,58.0,0,30,14.0,0.0
2466,58.0,0,30,13.0,0.0
2467,72.0,30,120,11.0,0.0
2468,68.0,0,120,12.0,0.0
2469,56.0,30,30,14.0,0.0
2470,56.0,0,30,13.0,0.0
2471,87.0,30,240,0.0,0.0
2472,63.0,0,240,3.0,0.0
2473,32.0,0,120,15.0,0.0
2474,75.0,0,240,1.0,0.0
2475,60.0,30,30,14.0,0.0
2476,60.0,0,30,13.0,0.0
2477,51.0,30,30,13.0,0.0
2478,51.0,0,30,14.0,0.0
2479,60.0,0,30,13.0,0.0
2480,60.0,0,30,14.0,0.0
2481,56.0,0,30,13.0,0.0
2482,56.0,30,30,14.0,0.0
2483,60.0,30,30,14.0,0.0
2484,60.0,0,30,13.0,0.0
2485,68.0,0,60,12.0,0.0
2486,51.0,0,30,13.0,0.0
2487,51.0,26,30,14.0,0.0
2488,32.0,0,60,15.0,0.0
2489,72.0,0,60,11.0,0.0
2490,60.0,0,30,14.0,0.0
2491,60.0,4,30,13.0,0.0
2492,70.0,0,120,11.0,0.0
2493,87.0,4,360,0.0,0.0
2494,55.0,30,30,13.0,0.0
2495,27.0,0,120,15.0,0.0
2496,55.0,0,30,14.0,0.0
2497,63.0,0,360,3.0,0.0
2498,67.0,30,120,12.0,0.0
2499,75.0,0,360,1.0,0.0
2500,63.0,0,30,13.0,0.0
2501,63.0,30,30,14.0,0.0
2502,58.0,30,30,14.0,0.0
2503,58.0,0,30,13.0,0.0
2504,63.0,0,30,14.0,0.0
2505,63.0,0,30,13.0,0.0
2506,27.0,0,120,15.0,0.0
2507,55.0,0,30,14.0,0.0
2508,67.0,0,120,12.0,0.0
2509,70.0,0,120,12.0,0.0
2510,55.0,30,30,13.0,0.0
2511,70.0,0,120,11.0,0.0
2512,63.0,0,30,14.0,0.0
2513,63.0,30,30,13.0,0.0
2514,58.0,0,30,14.0,0.0
2515,58.0,30,30,13.0,0.0
2516,63.0,30,30,13.0,0.0
2517,63.0,0,30,14.0,0.0
2518,27.0,0,120,15.0,0.0
2519,55.0,0,30,13.0,0.0
2520,63.0,0,120,12.0,0.0
2521,55.0,30,30,14.0,0.0
2522,55.0,0,120,12.0,0.0
2523,70.0,0,120,12.0,0.0
2524,70.0,22,120,11.0,0.0
2525,63.0,0,30,14.0,0.0
2526,63.0,30,30,13.0,0.0
2527,58.0,22,30,13.0,0.0
2528,58.0,0,30,14.0,0.0
2529,63.0,4,30,13.0,0.0
2530,63.0,0,30,14.0,0.0
2531,72.0,38,20,11.0,0.0
2532,60.0,0,120,13.0,0.0
2533,60.0,0,120,14.0,0.0
2534,32.0,0,120,15.0,0.0
2535,84.0,30,120,0.0,0.0
2536,60.0,0,120,3.0,0.0
2537,72.0,0,120,1.0,0.0
2538,63.0,0,120,12.0,0.0
2539,72.0,0,120,12.0,0.0
2540,56.0,0,120,12.0,0.0
2541,63.0,30,30,11.0,0.0
2542,61.0,30,30,11.0,0.0
2543,60.0,0,30,11.0,0.0
2544,61.0,30,30,11.0,0.0
2545,63.0,30,30,11.0,0.0
2546,65.0,20,30,11.0,0.0
2547,67.0,10,20,11.0,0.0
2548,70.0,30,15,11.0,0.0
2549,68.0,30,30,11.0,0.0
2550,67.0,30,30,11.0,0.0
2551,68.0,26,30,11.0,0.0
2552,70.0,34,30,11.0,0.0
2553,51.0,30,60,13.0,0.0
2554,32.0,4,360,15.0,0.0
2555,48.0,0,60,14.0,0.0
2556,68.0,8,480,12.0,0.0
2557,72.0,30,30,11.0,0.0
2558,70.0,0,30,11.0,0.0
2559,48.0,15,40,3.0,0.0
2560,51.0,0,60,14.0,0.0
2561,56.0,0,60,13.0,0.0
2562,68.0,15,30,11.0,0.0
2563,67.0,30,30,11.0,0.0
2564,48.0,30,60,14.0,0.0
2565,60.0,15,40,3.0,0.0
2566,68.0,15,30,11.0,0.0
2567,51.0,0,60,13.0,0.0
2568,70.0,0,30,11.0,0.0
2569,56.0,0,60,13.0,0.0
2570,68.0,15,30,11.0,0.0
2571,60.0,15,40,2.0,0.0
2572,51.0,30,60,14.0,0.0
2573,67.0,0,30,11.0,0.0
2574,72.0,15,40,2.0,0.0
2575,68.0,15,30,11.0,0.0
2576,48.0,30,60,14.0,0.0
2577,51.0,0,60,13.0,0.0
2578,70.0,0,30,11.0,0.0
2579,51.0,0,60,14.0,0.0
2580,56.0,30,60,13.0,0.0
2581,72.0,22,30,11.0,0.0
2582,68.0,4,30,11.0,0.0
2583,49.0,0,60,14.0,0.0
2584,37.0,4,360,15.0,0.0
2585,65.0,30,30,11.0,0.0
2586,53.0,0,60,13.0,0.0
2587,67.0,30,30,11.0,0.0
2588,53.0,30,60,14.0,0.0
2589,56.0,0,60,13.0,0.0
2590,65.0,15,30,11.0,0.0
2591,53.0,7,40,3.0,0.0
2592,64.0,0,30,11.0,0.0
2593,65.0,15,30,11.0,0.0
2594,65.0,15,40,3.0,0.0
2595,49.0,0,60,14.0,0.0
2596,53.0,30,60,13.0,0.0
2597,70.0,30,240,12.0,0.0
2598,69.0,0,30,11.0,0.0
2599,70.0,15,30,11.0,0.0
2600,53.0,0,60,14.0,0.0
2601,58.0,0,60,13.0,0.0
2602,65.0,15,40,2.0,0.0
2603,69.0,30,30,11.0,0.0
2604,53.0,0,60,13.0,0.0
2605,70.0,15,30,11.0,0.0
2606,49.0,0,60,14.0,0.0
2607,77.0,15,40,2.0,0.0
2608,72.0,30,30,11.0,0.0
2609,58.0,0,60,13.0,0.0
2610,53.0,0,60,14.0,0.0
2611,73.0,22,30,11.0,0.0
2612,72.0,4,30,11.0,0.0
2613,73.0,30,30,11.0,0.0
2614,49.0,0,60,14.0,0.0
2615,34.0,4,360,15.0,0.0
2616,70.0,0,360,12.0,0.0
2617,53.0,30,60,13.0,0.0
2618,72.0,0,30,11.0,0.0
2619,55.0,0,60,13.0,0.0
2620,49.0,15,40,3.0,0.0
2621,53.0,30,60,14.0,0.0
2622,73.0,15,30,11.0,0.0
2623,72.0,0,30,11.0,0.0
2624,49.0,0,60,14.0,0.0
2625,61.0,15,40,3.0,0.0
2626,70.0,15,30,11.0,0.0
2627,53.0,30,60,13.0,0.0
2628,73.0,0,30,11.0,0.0
2629,53.0,0,60,14.0,0.0
2630,68.0,15,30,11.0,0.0
2631,61.0,15,40,2.0,0.0
2632,55.0,0,60,13.0,0.0
2633,73.0,30,30,11.0,0.0
2634,53.0,0,60,13.0,0.0
2635,49.0,30,60,14.0,0.0
2636,73.0,15,40,2.0,0.0
2637,67.0,15,30,11.0,0.0
2638,73.0,0,30,11.0,0.0
2639,55.0,0,60,13.0,0.0
2640,53.0,30,60,14.0,0.0
2641,65.0,22,30,11.0,0.0
2642,73.0,4,30,11.0,0.0
2643,67.0,0,240,12.0,0.0
2644,64.0,30,30,11.0,0.0
2645,52.0,0,60,14.0,0.0
2646,55.0,0,60,13.0,0.0
2647,36.0,4,360,15.0,0.0
2648,72.0,30,30,11.0,0.0
2649,60.0,0,60,13.0,0.0
2650,67.0,15,30,11.0,0.0
2651,48.0,15,40,3.0,0.0
2652,55.0,0,60,14.0,0.0
2653,72.0,30,30,11.0,0.0
2654,55.0,0,60,13.0,0.0
2655,52.0,30,60,14.0,0.0
2656,71.0,15,30,11.0,0.0
2657,60.0,15,40,3.0,0.0
2658,72.0,0,30,11.0,0.0
2659,60.0,0,60,13.0,0.0
2660,55.0,0,60,14.0,0.0
2661,60.0,15,40,2.0,0.0
2662,67.0,15,30,11.0,0.0
2663,72.0,30,30,11.0,0.0
2664,72.0,0,240,12.0,0.0
2665,55.0,30,60,13.0,0.0
2666,72.0,15,40,2.0,0.0
2667,52.0,0,60,14.0,0.0
2668,70.0,15,30,11.0,0.0
2669,72.0,0,30,11.0,0.0
2670,67.0,22,30,11.0,0.0
2671,55.0,30,60,14.0,0.0
2672,60.0,0,60,13.0,0.0
2673,72.0,4,30,11.0,0.0
2674,51.0,0,60,14.0,0.0
2675,41.0,0,120,15.0,0.0
2676,69.0,30,30,11.0,0.0
2677,53.0,30,60,13.0,0.0
2678,72.0,0,30,11.0,0.0
2679,53.0,15,40,3.0,0.0
2680,65.0,15,30,11.0,0.0
2681,53.0,0,60,14.0,0.0
2682,60.0,0,60,13.0,0.0
2683,72.0,30,30,11.0,0.0
2684,73.0,4,240,12.0,0.0
2685,70.0,15,30,11.0,0.0
2686,49.0,0,60,14.0,0.0
2687,53.0,30,60,13.0,0.0
2688,65.0,15,40,3.0,0.0
2689,34.0,0,240,15.0,0.0
2690,73.0,0,30,11.0,0.0
2691,61.0,15,40,2.0,0.0
2692,58.0,0,60,13.0,0.0
2693,65.0,15,30,11.0,0.0
2694,53.0,30,60,14.0,0.0
2695,73.0,0,30,11.0,0.0
2696,53.0,0,60,13.0,0.0
2697,73.0,15,40,2.0,0.0
2698,49.0,0,60,14.0,0.0
2699,70.0,15,30,11.0,0.0
2700,73.0,30,30,11.0,0.0
2701,58.0,0,60,13.0,0.0
2702,68.0,22,30,11.0,0.0
2703,53.0,30,60,14.0,0.0
2704,73.0,4,30,11.0,0.0
2705,39.0,30,120,15.0,0.0
2706,67.0,30,30,11.0,0.0
2707,51.0,0,60,13.0,0.0
2708,70.0,0,120,12.0,0.0
2709,49.0,0,60,14.0,0.0
2710,70.0,30,30,11.0,0.0
2711,63.0,15,30,11.0,0.0
2712,51.0,0,60,14.0,0.0
2713,51.0,15,40,3.0,0.0
2714,58.0,0,60,13.0,0.0
2715,70.0,0,30,11.0,0.0
2716,48.0,30,60,14.0,0.0
2717,63.0,15,40,3.0,0.0
2718,32.0,0,240,15.0,0.0
2719,68.0,15,30,11.0,0.0
2720,72.0,4,240,12.0,0.0
2721,51.0,0,60,13.0,0.0
2722,72.0,0,30,11.0,0.0
2723,60.0,15,40,2.0,0.0
2724,56.0,0,60,13.0,0.0
2725,63.0,15,30,11.0,0.0
2726,51.0,0,60,14.0,0.0
2727,72.0,30,30,11.0,0.0
2728,48.0,0,60,14.0,0.0
2729,72.0,15,40,2.0,0.0
2730,68.0,15,30,11.0,0.0
2731,51.0,0,60,13.0,0.0
2732,72.0,30,30,11.0,0.0
2733,51.0,30,60,14.0,0.0
2734,56.0,0,60,13.0,0.0
2735,63.0,22,30,11.0,0.0
2736,72.0,4,30,11.0,0.0
2737,63.0,0,360,12.0,0.0
2738,51.0,30,60,13.0,0.0
2739,27.0,0,360,15.0,0.0
2740,70.0,0,360,12.0,0.0
2741,67.0,30,30,11.0,0.0
2742,39.0,0,60,14.0,0.0
2743,46.0,0,60,14.0,0.0
2744,75.0,0,30,11.0,0.0
2745,55.0,0,60,13.0,0.0
2746,51.0,15,40,3.0,0.0
2747,51.0,0,60,14.0,0.0
2748,70.0,15,30,11.0,0.0
2749,75.0,30,30,11.0,0.0
2750,63.0,15,40,3.0,0.0
2751,46.0,0,60,14.0,0.0
2752,51.0,0,60,13.0,0.0
2753,67.0,15,30,11.0,0.0
2754,39.0,30,60,14.0,0.0
2755,75.0,0,30,11.0,0.0
2756,55.0,0,60,13.0,0.0
2757,70.0,15,30,11.0,0.0
2758,63.0,15,40,2.0,0.0
2759,51.0,30,60,14.0,0.0
2760,75.0,0,30,11.0,0.0
2761,51.0,30,60,13.0,0.0
2762,75.0,15,40,2.0,0.0
2763,46.0,0,60,14.0,0.0
2764,39.0,0,60,14.0,0.0
2765,67.0,15,30,11.0,0.0
2766,75.0,0,30,11.0,0.0
2767,70.0,22,30,11.0,0.0
2768,75.0,0,60,2.0,0.0
2769,51.0,56,60,14.0,0.0
2770,63.0,4,60,3.0,0.0
2771,55.0,4,60,13.0,0.0
2772,75.0,0,30,11.0,0.0
2773,44.0,0,120,14.0,0.0
2774,32.0,56,120,15.0,0.0
2775,72.0,0,60,11.0,0.0
2776,63.0,0,60,12.0,0.0
2777,72.0,60,60,12.0,0.0
2778,60.0,0,60,3.0,0.0
2779,56.0,0,60,13.0,0.0
2780,72.0,0,60,2.0,0.0
2781,48.0,0,60,6.0,0.0
2782,60.0,0,60,13.0,0.0
2783,56.0,0,60,13.0,0.0
2784,84.0,0,60,11.0,0.0
2785,75.0,0,60,11.0,0.0
2786,72.0,0,60,2.0,0.0
2787,84.0,0,60,0.0,0.0
2788,80.0,4,60,0.0,0.0
2789,72.0,0,60,1.0,0.0
2790,75.0,0,60,1.0,0.0
2791,72.0,0,60,12.0,0.0
2792,60.0,0,60,4.0,0.0
2793,72.0,0,60,5.0,0.0
2794,63.0,0,60,3.0,0.0
2795,60.0,0,60,3.0,0.0
2796,63.0,0,60,12.0,0.0
2797,68.0,0,60,2.0,0.0
2798,60.0,0,60,5.0,0.0
2799,48.0,30,60,6.0,0.0
2800,60.0,0,60,5.0,0.0
2801,75.0,0,60,11.0,0.0
2802,72.0,0,60,5.0,0.0
2803,60.0,0,60,4.0,0.0
2804,60.0,0,60,3.0,0.0
2805,72.0,0,60,2.0,0.0
2806,68.0,0,60,2.0,0.0
2807,63.0,0,60,12.0,0.0
2808,72.0,0,60,1.0,0.0
2809,75.0,4,60,1.0,0.0
2810,84.0,0,60,11.0,0.0
2811,63.0,0,60,3.0,0.0
2812,72.0,0,60,12.0,0.0
2813,84.0,0,60,0.0,0.0
2814,56.0,0,60,13.0,0.0
2815,80.0,0,60,0.0,0.0
2816,60.0,0,60,13.0,0.0
2817,51.0,0,30,14.0,0.0
2818,39.0,0,30,15.0,0.0
2819,84.0,0,60,0.0,0.0
2820,68.0,0,60,2.0,0.0
2821,72.0,0,60,2.0,0.0
2822,60.0,0,60,3.0,0.0
2823,60.0,0,60,4.0,0.0
2824,75.0,0,60,11.0,0.0
2825,84.0,0,60,11.0,0.0
2826,72.0,0,60,12.0,0.0
2827,56.0,4,60,13.0,0.0
2828,63.0,0,60,12.0,0.0
2829,80.0,0,60,0.0,0.0
2830,63.0,0,60,3.0,0.0
2831,72.0,0,60,1.0,0.0
2832,60.0,0,60,13.0,0.0
2833,75.0,0,60,1.0,0.0
2834,72.0,0,60,5.0,0.0
2835,41.0,0,30,15.0,0.0
2836,48.0,0,60,6.0,0.0
2837,60.0,0,60,5.0,0.0
2838,53.0,20,30,14.0,0.0
2839,43.0,6,20,15.0,0.0
2840,55.0,0,20,14.0,0.0
2841,46.0,30,15,15.0,0.0
2842,58.0,0,15,14.0,0.0
2843,72.0,0,60,1.0,0.0
2844,75.0,0,60,1.0,0.0
2845,56.0,0,60,13.0,0.0
2846,44.0,26,30,15.0,0.0
2847,80.0,0,60,0.0,0.0
2848,84.0,4,60,0.0,0.0
2849,56.0,0,30,14.0,0.0
2850,63.0,0,60,3.0,0.0
2851,60.0,0,60,13.0,0.0
2852,84.0,0,60,11.0,0.0
2853,48.0,0,60,6.0,0.0
2854,72.0,0,60,5.0,0.0
2855,60.0,0,60,5.0,0.0
2856,68.0,0,60,2.0,0.0
2857,60.0,0,60,4.0,0.0
2858,72.0,0,60,2.0,0.0
2859,75.0,0,60,11.0,0.0
2860,60.0,0,60,3.0,0.0
2861,72.0,0,60,12.0,0.0
2862,63.0,0,60,12.0,0.0
2863,55.0,30,30,14.0,0.0
2864,43.0,0,30,15.0,0.0
2865,80.0,0,60,0.0,0.0
2866,84.0,4,60,0.0,0.0
2867,84.0,0,60,11.0,0.0
2868,75.0,0,60,1.0,0.0
2869,72.0,0,60,1.0,0.0
2870,56.0,0,30,14.0,0.0
2871,44.0,26,30,15.0,0.0
2872,68.0,0,60,2.0,0.0
2873,72.0,0,60,2.0,0.0
2874,72.0,0,60,12.0,0.0
2875,48.0,30,60,6.0,0.0
2876,75.0,0,60,11.0,0.0
2877,63.0,0,60,12.0,0.0
2878,56.0,0,60,13.0,0.0
2879,60.0,0,60,13.0,0.0
2880,60.0,0,60,5.0,0.0
2881,72.0,0,60,5.0,0.0
2882,60.0,0,60,3.0,0.0
2883,63.0,0,60,3.0,0.0
2884,60.0,0,60,4.0,0.0
2885,46.0,0,30,15.0,0.0
2886,58.0,0,30,14.0,0.0
2887,75.0,0,60,1.0,0.0
2888,72.0,0,60,1.0,0.0
2889,84.0,0,60,0.0,0.0
2890,48.0,0,30,15.0,0.0
2891,48.0,0,60,6.0,0.0
2892,63.0,0,60,12.0,0.0
2893,72.0,0,60,12.0,0.0
2894,84.0,0,60,11.0,0.0
2895,75.0,4,60,11.0,0.0
2896,72.0,0,60,5.0,0.0
2897,63.0,0,60,3.0,0.0
2898,80.0,0,60,0.0,0.0
2899,60.0,0,60,3.0,0.0
2900,60.0,0,60,4.0,0.0
2901,72.0,0,60,2.0,0.0
2902,56.0,0,60,13.0,0.0
2903,60.0,0,60,13.0,0.0
2904,68.0,0,60,2.0,0.0
2905,60.0,0,60,5.0,0.0
2906,60.0,26,30,14.0,0.0
2907,58.0,0,30,14.0,0.0
2908,46.0,30,30,15.0,0.0
2909,75.0,0,60,1.0,0.0
2910,72.0,0,60,5.0,0.0
2911,75.0,0,60,11.0,0.0
2912,63.0,0,60,12.0,0.0
2913,72.0,0,60,12.0,0.0
2914,68.0,4,60,2.0,0.0
2915,72.0,0,60,2.0,0.0
2916,63.0,0,60,3.0,0.0
2917,72.0,0,60,1.0,0.0
2918,44.0,0,30,15.0,0.0
2919,84.0,0,60,11.0,0.0
2920,60.0,0,60,4.0,0.0
2921,60.0,0,60,13.0,0.0
2922,56.0,0,60,13.0,0.0
2923,48.0,0,60,6.0,0.0
2924,80.0,0,60,0.0,0.0
2925,60.0,0,60,3.0,0.0
2926,60.0,0,60,5.0,0.0
2927,84.0,0,60,0.0,0.0
2928,56.0,26,30,14.0,0.0
2929,55.0,0,30,14.0,0.0
2930,43.0,30,30,15.0,0.0
2931,72.0,0,60,2.0,0.0
2932,68.0,0,60,2.0,0.0
2933,72.0,4,60,1.0,0.0
2934,75.0,0,60,1.0,0.0
2935,80.0,0,60,0.0,0.0
2936,60.0,0,60,3.0,0.0
2937,44.0,0,30,15.0,0.0
2938,84.0,0,60,11.0,0.0
2939,48.0,0,60,6.0,0.0
2940,72.0,0,60,5.0,0.0
2941,84.0,0,60,0.0,0.0
2942,56.0,0,60,13.0,0.0
2943,63.0,0,60,3.0,0.0
2944,75.0,0,60,11.0,0.0
2945,60.0,0,60,13.0,0.0
2946,63.0,0,60,12.0,0.0
2947,72.0,0,60,12.0,0.0
2948,60.0,0,60,5.0,0.0
2949,60.0,0,60,4.0,0.0
2950,56.0,26,30,14.0,0.0
2951,46.0,0,30,15.0,0.0
2952,58.0,30,30,14.0,0.0
2953,72.0,0,60,5.0,0.0
2954,72.0,0,60,12.0,0.0
2955,63.0,0,60,12.0,0.0
2956,68.0,0,60,2.0,0.0
2957,63.0,0,60,3.0,0.0
2958,60.0,0,60,3.0,0.0
2959,84.0,0,60,11.0,0.0
2960,84.0,0,60,0.0,0.0
2961,80.0,4,60,0.0,0.0
2962,72.0,0,60,1.0,0.0
2963,75.0,0,60,1.0,0.0
2964,48.0,0,60,6.0,0.0
2965,60.0,0,60,13.0,0.0
2966,56.0,0,60,13.0,0.0
2967,60.0,0,60,5.0,0.0
2968,44.0,0,30,15.0,0.0
2969,60.0,0,60,4.0,0.0
2970,56.0,26,30,14.0,0.0
2971,75.0,0,60,11.0,0.0
2972,72.0,0,60,2.0,0.0
2973,55.0,0,30,14.0,0.0
2974,43.0,30,30,15.0,0.0
2975,80.0,0,60,0.0,0.0
2976,72.0,0,60,2.0,0.0
2977,68.0,4,60,2.0,0.0
2978,60.0,0,60,13.0,0.0
2979,56.0,0,60,13.0,0.0
2980,63.0,0,60,3.0,0.0
2981,56.0,26,30,14.0,0.0
2982,44.0,0,30,15.0,0.0
2983,84.0,0,60,11.0,0.0
2984,75.0,0,60,11.0,0.0
2985,63.0,0,60,12.0,0.0
2986,72.0,0,60,12.0,0.0
2987,60.0,0,60,5.0,0.0
2988,72.0,0,60,5.0,0.0
2989,72.0,0,60,1.0,0.0
2990,60.0,0,60,4.0,0.0
2991,75.0,0,60,1.0,0.0
2992,48.0,0,60,6.0,0.0
2993,84.0,0,60,0.0,0.0
2994,60.0,0,60,3.0,0.0
2995,58.0,0,30,14.0,0.0
2996,46.0,30,30,15.0,0.0
2997,60.0,0,60,13.0,0.0
2998,60.0,26,30,14.0,0.0
2999,84.0,0,60,11.0,0.0
3000,80.0,0,60,0.0,0.0
3001,63.0,0,60,3.0,0.0
3002,60.0,0,60,3.0,0.0
3003,75.0,0,60,11.0,0.0
3004,48.0,30,60,6.0,0.0
3005,75.0,0,60,1.0,0.0
3006,72.0,0,60,5.0,0.0
3007,60.0,0,60,5.0,0.0
3008,48.0,0,30,15.0,0.0
3009,84.0,0,60,0.0,0.0
3010,68.0,0,60,2.0,0.0
3011,72.0,0,60,2.0,0.0
3012,63.0,0,60,12.0,0.0
3013,60.0,4,60,4.0,0.0
3014,56.0,0,60,13.0,0.0
3015,72.0,0,60,12.0,0.0
3016,72.0,0,60,1.0,0.0
3017,56.0,0,30,14.0,0.0
3018,44.0,0,30,15.0,0.0
3019,81.0,0,60,0.0,0.0
3020,41.0,0,30,15.0,0.0
3021,72.0,0,60,12.0,0.0
3022,63.0,0,60,12.0,0.0
3023,75.0,0,60,11.0,0.0
3024,84.0,0,60,11.0,0.0
3025,77.0,0,60,1.0,0.0
3026,72.0,0,60,2.0,0.0
3027,69.0,4,60,2.0,0.0
3028,60.0,0,60,13.0,0.0
3029,53.0,26,30,14.0,0.0
3030,57.0,0,60,13.0,0.0
3031,84.0,0,60,0.0,0.0
3032,60.0,0,60,3.0,0.0
3033,63.0,0,60,3.0,0.0
3034,75.0,0,60,1.0,0.0
3035,65.0,0,60,4.0,0.0
3036,55.0,30,30,14.0,0.0
3037,43.0,0,30,15.0,0.0
3038,63.0,0,60,3.0,0.0
3039,41.0,26,30,15.0,0.0
3040,84.0,0,60,11.0,0.0
3041,75.0,0,60,11.0,0.0
3042,60.0,0,60,3.0,0.0
3043,77.0,0,60,1.0,0.0
3044,75.0,0,60,1.0,0.0
3045,65.0,0,60,4.0,0.0
3046,53.0,0,30,14.0,0.0
3047,75.0,0,60,12.0,0.0
3048,72.0,0,60,2.0,0.0
3049,69.0,0,60,2.0,0.0
3050,60.0,0,60,13.0,0.0
3051,57.0,4,60,13.0,0.0
3052,81.0,0,60,0.0,0.0
3053,84.0,0,60,0.0,0.0
3054,40.0,30,30,15.0,0.0
3055,52.0,0,30,14.0,0.0
3056,73.0,0,60,2.0,0.0
3057,70.0,0,60,2.0,0.0
3058,53.0,26,30,14.0,0.0
3059,41.0,0,30,15.0,0.0
3060,65.0,0,60,4.0,0.0
3061,73.0,0,60,12.0,0.0
3062,85.0,0,60,0.0,0.0
3063,61.0,4,60,13.0,0.0
3064,58.0,0,60,13.0,0.0
3065,58.0,0,60,3.0,0.0
3066,73.0,0,60,1.0,0.0
3067,82.0,0,60,0.0,0.0
3068,77.0,0,60,1.0,0.0
3069,82.0,0,60,11.0,0.0
3070,61.0,0,60,3.0,0.0
3071,45.0,30,30,15.0,0.0
3072,57.0,0,30,14.0,0.0
3073,70.0,0,60,2.0,0.0
3074,73.0,0,60,12.0,0.0
3075,82.0,0,60,11.0,0.0
3076,73.0,0,60,2.0,0.0
3077,82.0,0,60,0.0,0.0
3078,58.0,0,30,14.0,0.0
3079,58.0,0,60,13.0,0.0
3080,61.0,0,60,13.0,0.0
3081,46.0,26,30,15.0,0.0
3082,85.0,0,60,0.0,0.0
3083,65.0,4,60,4.0,0.0
3084,73.0,0,60,1.0,0.0
3085,58.0,0,60,3.0,0.0
3086,77.0,0,60,1.0,0.0
3087,61.0,0,60,3.0,0.0
3088,57.0,0,30,14.0,0.0
3089,45.0,30,30,15.0,0.0
3090,85.0,0,60,0.0,0.0
3091,65.0,0,60,4.0,0.0
3092,58.0,26,30,14.0,0.0
3093,46.0,0,30,15.0,0.0
3094,77.0,0,60,1.0,0.0
3095,73.0,0,60,1.0,0.0
3096,82.0,0,60,11.0,0.0
3097,61.0,0,60,13.0,0.0
3098,70.0,0,60,2.0,0.0
3099,73.0,0,60,2.0,0.0
3100,58.0,0,60,13.0,0.0
3101,58.0,4,60,3.0,0.0
3102,61.0,0,60,3.0,0.0
3103,82.0,0,60,0.0,0.0
3104,73.0,0,60,12.0,0.0
3105,48.0,0,30,15.0,0.0
3106,60.0,30,30,14.0,0.0
3107,73.0,0,60,12.0,0.0
3108,61.0,0,60,13.0,0.0
3109,58.0,0,60,13.0,0.0
3110,82.0,0,60,11.0,0.0
3111,65.0,0,60,4.0,0.0
3112,61.0,0,30,14.0,0.0
3113,77.0,0,60,1.0,0.0
3114,73.0,0,60,1.0,0.0
3115,49.0,26,30,15.0,0.0
3116,61.0,0,60,3.0,0.0
3117,85.0,0,60,0.0,0.0
3118,70.0,34,60,2.0,0.0
3119,58.0,0,60,3.0,0.0
3120,73.0,0,60,2.0,0.0
3121,82.0,0,60,0.0,0.0
3122,48.0,0,30,15.0,0.0
3123,60.0,0,30,14.0,0.0
3124,82.0,0,60,0.0,0.0
3125,85.0,0,60,0.0,0.0
3126,70.0,0,60,2.0,0.0
3127,65.0,0,60,4.0,0.0
3128,58.0,0,60,3.0,0.0
3129,73.0,4,60,2.0,0.0
3130,61.0,0,60,3.0,0.0
3131,73.0,0,60,1.0,0.0
3132,77.0,0,60,1.0,0.0
3133,61.0,0,30,14.0,0.0
3134,73.0,0,60,12.0,0.0
3135,82.0,0,60,11.0,0.0
3136,49.0,26,30,15.0,0.0
3137,58.0,0,60,13.0,0.0
3138,61.0,0,60,13.0,0.0
3139,60.0,30,30,14.0,0.0
3140,48.0,0,30,15.0,0.0
3141,65.0,0,60,4.0,0.0
3142,49.0,0,30,15.0,0.0
3143,77.0,0,60,1.0,0.0
3144,73.0,0,60,1.0,0.0
3145,85.0,0,60,0.0,0.0
3146,70.0,4,60,2.0,0.0
3147,58.0,0,60,13.0,0.0
3148,61.0,0,60,13.0,0.0
3149,73.0,0,60,12.0,0.0
3150,58.0,0,60,3.0,0.0
3151,82.0,0,60,11.0,0.0
3152,61.0,26,30,14.0,0.0
3153,61.0,0,60,3.0,0.0
3154,73.0,0,60,2.0,0.0
3155,82.0,0,60,0.0,0.0
3156,48.0,30,30,15.0,0.0
3157,60.0,0,30,14.0,0.0
3158,73.0,0,60,12.0,0.0
3159,82.0,0,60,11.0,0.0
3160,58.0,26,30,14.0,0.0
3161,77.0,0,60,1.0,0.0
3162,73.0,0,60,2.0,0.0
3163,73.0,0,60,1.0,0.0
3164,46.0,0,30,15.0,0.0
3165,85.0,4,60,0.0,0.0
3166,58.0,0,60,13.0,0.0
3167,82.0,0,60,0.0,0.0
3168,70.0,0,60,2.0,0.0
3169,58.0,0,60,3.0,0.0
3170,61.0,0,60,13.0,0.0
3171,65.0,0,60,4.0,0.0
3172,61.0,0,60,3.0,0.0
3173,61.0,30,30,14.0,0.0
3174,49.0,0,30,15.0,0.0
3175,65.0,0,60,4.0,0.0
3176,56.0,26,30,14.0,0.0
3177,56.0,0,60,13.0,0.0
3178,61.0,0,60,13.0,0.0
3179,70.0,0,60,2.0,0.0
3180,58.0,0,60,3.0,0.0
3181,61.0,0,60,3.0,0.0
3182,73.0,0,60,2.0,0.0
3183,82.0,0,60,0.0,0.0
3184,82.0,0,60,11.0,0.0
3185,73.0,0,60,12.0,0.0
3186,73.0,0,60,1.0,0.0
3187,77.0,4,60,1.0,0.0
3188,44.0,0,30,15.0,0.0
3189,85.0,0,60,0.0,0.0
3190,46.0,30,30,15.0,0.0
3191,58.0,0,30,14.0,0.0
3192,55.0,0,60,13.0,0.0
3193,74.0,0,60,2.0,0.0
3194,71.0,0,60,2.0,0.0
3195,62.0,0,60,3.0,0.0
3196,67.0,0,60,4.0,0.0
3197,62.0,4,60,13.0,0.0
3198,59.0,0,60,3.0,0.0
3199,43.0,0,60,6.0,0.0
3200,55.0,26,30,14.0,0.0
3201,43.0,0,30,15.0,0.0
3202,74.0,0,60,12.0,0.0
3203,79.0,0,60,1.0,0.0
3204,83.0,0,60,11.0,0.0
3205,74.0,0,60,1.0,0.0
3206,67.0,0,60,5.0,0.0
3207,83.0,0,60,0.0,0.0
3208,86.0,0,60,0.0,0.0
3209,55.0,0,60,4.0,0.0
3210,56.0,0,30,14.0,0.0
3211,44.0,30,30,15.0,0.0
3212,79.0,0,60,1.0,0.0
3213,67.0,0,60,5.0,0.0
3214,62.0,0,60,3.0,0.0
3215,74.0,0,60,1.0,0.0
3216,55.0,0,60,4.0,0.0
3217,67.0,0,60,4.0,0.0
3218,86.0,4,60,0.0,0.0
3219,43.0,30,60,6.0,0.0
3220,59.0,0,60,3.0,0.0
3221,74.0,0,60,2.0,0.0
3222,74.0,0,60,12.0,0.0
3223,83.0,0,60,0.0,0.0
3224,53.0,0,30,14.0,0.0
3225,41.0,26,30,15.0,0.0
3226,71.0,0,60,2.0,0.0
3227,53.0,0,60,13.0,0.0
3228,83.0,0,60,11.0,0.0
3229,55.0,0,60,13.0,0.0
3230,43.0,0,30,15.0,0.0
3231,55.0,0,30,14.0,0.0
3232,84.0,0,60,11.0,0.0
3233,52.0,0,30,14.0,0.0
3234,84.0,0,60,0.0,0.0
3235,64.0,0,60,3.0,0.0
3236,60.0,4,60,3.0,0.0
3237,88.0,0,60,0.0,0.0
3238,40.0,26,30,15.0,0.0
3239,67.0,0,60,2.0,0.0
3240,72.0,0,60,2.0,0.0
3241,76.0,0,60,12.0,0.0
3242,55.0,0,60,13.0,0.0
3243,52.0,0,60,13.0,0.0
3244,60.0,0,60,5.0,0.0
3245,76.0,0,60,1.0,0.0
3246,79.0,0,60,1.0,0.0
3247,72.0,0,60,5.0,0.0
3248,48.0,0,60,6.0,0.0
3249,60.0,0,60,4.0,0.0
3250,67.0,0,60,4.0,0.0
3251,41.0,30,30,15.0,0.0
3252,53.0,0,30,14.0,0.0
3253,60.0,0,60,13.0,0.0
3254,88.0,0,60,0.0,0.0
3255,84.0,0,60,0.0,0.0
3256,76.0,0,60,12.0,0.0
3257,72.0,0,60,12.0,0.0
3258,48.0,30,60,6.0,0.0
3259,43.0,0,30,15.0,0.0
3260,60.0,0,60,5.0,0.0
3261,67.0,0,60,4.0,0.0
3262,60.0,0,60,4.0,0.0
3263,84.0,0,60,11.0,0.0
3264,72.0,0,60,5.0,0.0
3265,64.0,0,60,3.0,0.0
3266,67.0,0,60,2.0,0.0
3267,60.0,4,60,3.0,0.0
3268,79.0,0,60,1.0,0.0
3269,76.0,0,60,1.0,0.0
3270,55.0,26,30,14.0,0.0
3271,48.0,0,60,13.0,0.0
3272,72.0,0,60,2.0,0.0
3273,40.0,0,30,15.0,0.0
3274,52.0,0,30,14.0,0.0
3275,36.0,0,30,15.0,0.0
3276,79.0,0,60,1.0,0.0
3277,76.0,0,60,1.0,0.0
3278,48.0,0,60,13.0,0.0
3279,60.0,0,60,4.0,0.0
3280,67.0,0,60,2.0,0.0
3281,84.0,0,60,11.0,0.0
3282,67.0,0,60,4.0,0.0
3283,60.0,0,60,13.0,0.0
3284,60.0,0,60,3.0,0.0
3285,48.0,26,30,14.0,0.0
3286,72.0,0,60,12.0,0.0
3287,76.0,0,60,12.0,0.0
3288,72.0,0,60,2.0,0.0
3289,48.0,0,60,6.0,0.0
3290,88.0,0,60,0.0,0.0
3291,84.0,0,60,0.0,0.0
3292,72.0,4,60,5.0,0.0
3293,60.0,0,60,5.0,0.0
3294,64.0,0,60,3.0,0.0
3295,52.0,0,30,14.0,0.0
3296,40.0,30,30,15.0,0.0
3297,79.0,0,60,1.0,0.0
3298,84.0,0,60,11.0,0.0
3299,72.0,0,60,2.0,0.0
3300,76.0,0,60,1.0,0.0
3301,67.0,0,60,2.0,0.0
3302,84.0,4,60,0.0,0.0
3303,60.0,0,60,13.0,0.0
3304,55.0,0,30,14.0,0.0
3305,60.0,0,60,3.0,0.0
3306,64.0,0,60,3.0,0.0
3307,72.0,0,60,5.0,0.0
3308,43.0,26,30,15.0,0.0
3309,60.0,0,60,5.0,0.0
3310,67.0,0,60,4.0,0.0
3311,60.0,0,60,4.0,0.0
3312,48.0,0,60,6.0,0.0
3313,76.0,0,60,12.0,0.0
3314,72.0,0,60,12.0,0.0
3315,88.0,0,60,0.0,0.0
3316,48.0,0,60,13.0,0.0
3317,59.0,0,30,14.0,0.0
3318,47.0,30,30,15.0,0.0
3319,60.0,26,30,14.0,0.0
3320,67.0,0,60,4.0,0.0
3321,60.0,0,60,4.0,0.0
3322,48.0,30,60,6.0,0.0
3323,48.0,0,30,15.0,0.0
3324,48.0,0,60,13.0,0.0
3325,76.0,0,60,12.0,0.0
3326,72.0,0,60,12.0,0.0
3327,60.0,0,60,5.0,0.0
3328,72.0,0,60,5.0,0.0
3329,60.0,0,60,3.0,0.0
3330,64.0,0,60,3.0,0.0
3331,60.0,0,60,13.0,0.0
3332,72.0,0,60,2.0,0.0
3333,76.0,0,60,1.0,0.0
3334,84.0,0,60,0.0,0.0
3335,67.0,0,60,2.0,0.0
3336,84.0,0,60,11.0,0.0
3337,79.0,0,60,1.0,0.0
3338,88.0,4,60,0.0,0.0
3339,55.0,0,30,14.0,0.0
3340,43.0,0,30,15.0,0.0
3341,72.0,30,60,5.0,0.0
3342,60.0,0,60,5.0,0.0
3343,48.0,0,60,6.0,0.0
3344,64.0,0,60,3.0,0.0
3345,79.0,0,60,1.0,0.0
3346,84.0,0,60,0.0,0.0
3347,72.0,0,60,12.0,0.0
3348,76.0,0,60,12.0,0.0
3349,60.0,0,60,13.0,0.0
3350,48.0,0,60,13.0,0.0
3351,76.0,4,60,1.0,0.0
3352,84.0,0,60,11.0,0.0
3353,48.0,26,30,15.0,0.0
3354,67.0,0,60,4.0,0.0
3355,60.0,0,60,3.0,0.0
3356,72.0,0,60,2.0,0.0
3357,67.0,0,60,2.0,0.0
3358,60.0,0,30,14.0,0.0
3359,88.0,0,60,0.0,0.0
3360,60.0,0,60,4.0,0.0
3361,46.0,0,30,15.0,0.0
3362,58.0,0,30,14.0,0.0
3363,63.0,0,60,3.0,0.0
3364,84.0,0,60,11.0,0.0
3365,75.0,0,60,2.0,0.0
3366,75.0,0,60,12.0,0.0
3367,60.0,0,60,3.0,0.0
3368,57.0,26,30,14.0,0.0
3369,72.0,0,60,2.0,0.0
3370,45.0,0,30,15.0,0.0
3371,65.0,0,60,4.0,0.0
3372,84.0,0,60,0.0,0.0
3373,89.0,0,60,0.0,0.0
3374,75.0,0,60,1.0,0.0
3375,77.0,0,60,1.0,0.0
3376,60.0,4,60,13.0,0.0
3377,57.0,0,60,13.0,0.0
3378,55.0,30,30,14.0,0.0
3379,43.0,0,30,15.0,0.0
3380,65.0,0,60,4.0,0.0
3381,57.0,0,60,13.0,0.0
3382,63.0,0,60,3.0,0.0
3383,45.0,26,30,15.0,0.0
3384,75.0,0,60,12.0,0.0
3385,60.0,0,60,13.0,0.0
3386,75.0,0,60,2.0,0.0
3387,87.0,0,60,0.0,0.0
3388,89.0,0,60,0.0,0.0
3389,57.0,0,30,14.0,0.0
3390,84.0,0,60,11.0,0.0
3391,72.0,0,60,2.0,0.0
3392,75.0,0,60,1.0,0.0
3393,84.0,0,60,1.0,0.0
3394,60.0,4,60,3.0,0.0
3395,41.0,30,30,15.0,0.0
3396,53.0,0,30,14.0,0.0
3397,65.0,0,60,4.0,0.0
3398,73.0,0,60,12.0,0.0
3399,60.0,0,60,3.0,0.0
3400,46.0,0,30,15.0,0.0
3401,58.0,4,60,13.0,0.0
3402,61.0,0,60,3.0,0.0
3403,84.0,0,60,1.0,0.0
3404,85.0,0,60,0.0,0.0
3405,58.0,26,30,14.0,0.0
3406,73.0,0,60,1.0,0.0
3407,84.0,0,60,11.0,0.0
3408,89.0,0,60,0.0,0.0
3409,72.0,0,60,2.0,0.0
3410,73.0,0,60,2.0,0.0
3411,60.0,30,30,14.0,0.0
3412,48.0,0,30,15.0,0.0
3413,58.0,0,60,13.0,0.0
3414,65.0,0,60,4.0,0.0
3415,46.0,0,30,15.0,0.0
3416,73.0,0,60,12.0,0.0
3417,84.0,0,60,11.0,0.0
3418,60.0,0,60,3.0,0.0
3419,61.0,0,60,3.0,0.0
3420,72.0,0,60,2.0,0.0
3421,73.0,0,60,2.0,0.0
3422,58.0,26,30,14.0,0.0
3423,84.0,0,60,1.0,0.0
3424,73.0,4,60,1.0,0.0
3425,89.0,0,60,0.0,0.0
3426,85.0,0,60,0.0,0.0
3427,45.0,30,30,15.0,0.0
3428,57.0,0,30,14.0,0.0
3429,46.0,26,30,15.0,0.0
3430,61.0,0,60,3.0,0.0
3431,82.0,0,60,11.0,0.0
3432,58.0,0,30,14.0,0.0
3433,73.0,0,60,1.0,0.0
3434,85.0,0,60,0.0,0.0
3435,58.0,4,60,13.0,0.0
3436,65.0,0,60,4.0,0.0
3437,89.0,0,60,0.0,0.0
3438,73.0,0,60,12.0,0.0
3439,73.0,0,60,2.0,0.0
3440,82.0,0,60,1.0,0.0
3441,70.0,0,60,2.0,0.0
3442,58.0,0,60,3.0,0.0
3443,60.0,30,30,14.0,0.0
3444,48.0,0,30,15.0,0.0
3445,73.0,0,60,2.0,0.0
3446,70.0,0,60,2.0,0.0
3447,65.0,0,60,4.0,0.0
3448,82.0,0,60,1.0,0.0
3449,73.0,0,60,12.0,0.0
3450,73.0,0,60,1.0,0.0
3451,89.0,0,60,0.0,0.0
3452,58.0,0,60,13.0,0.0
3453,85.0,0,60,0.0,0.0
3454,49.0,26,30,15.0,0.0
3455,61.0,0,30,14.0,0.0
3456,61.0,0,60,3.0,0.0
3457,58.0,0,60,3.0,0.0
3458,82.0,34,60,11.0,0.0
3459,46.0,0,30,15.0,0.0
3460,58.0,0,30,14.0,0.0
3461,73.0,4,60,1.0,0.0
3462,70.0,0,60,2.0,0.0
3463,73.0,0,60,2.0,0.0
3464,55.0,0,60,13.0,0.0
3465,85.0,0,60,0.0,0.0
3466,82.0,0,60,11.0,0.0
3467,43.0,0,30,15.0,0.0
3468,67.0,0,60,4.0,0.0
3469,73.0,0,60,12.0,0.0
3470,61.0,0,60,3.0,0.0
3471,58.0,0,60,13.0,0.0
3472,82.0,0,60,1.0,0.0
3473,58.0,0,60,3.0,0.0
3474,55.0,26,30,14.0,0.0
3475,89.0,0,60,0.0,0.0
3476,41.0,30,30,15.0,0.0
3477,53.0,0,30,14.0,0.0
3478,61.0,0,60,3.0,0.0
3479,55.0,0,60,13.0,0.0
3480,58.0,0,60,13.0,0.0
3481,58.0,0,60,3.0,0.0
3482,73.0,0,60,12.0,0.0
3483,73.0,0,60,2.0,0.0
3484,55.0,26,30,14.0,0.0
3485,70.0,0,60,2.0,0.0
3486,43.0,0,30,15.0,0.0
3487,55.0,4,60,4.0,0.0
3488,82.0,0,60,11.0,0.0
3489,87.0,0,60,0.0,0.0
3490,85.0,0,60,0.0,0.0
3491,82.0,0,60,1.0,0.0
3492,73.0,0,60,1.0,0.0
3493,39.0,30,30,15.0,0.0
3494,51.0,0,30,14.0,0.0
3495,72.0,0,60,2.0,0.0
3496,48.0,0,60,6.0,0.0
3497,82.0,0,60,11.0,0.0
3498,44.0,26,30,15.0,0.0
3499,70.0,0,60,2.0,0.0
3500,72.0,0,60,12.0,0.0
3501,60.0,0,60,5.0,0.0
3502,56.0,0,30,14.0,0.0
3503,84.0,0,60,0.0,0.0
3504,60.0,0,60,13.0,0.0
3505,56.0,0,60,13.0,0.0
3506,60.0,0,60,3.0,0.0
3507,58.0,0,60,3.0,0.0
3508,60.0,0,60,4.0,0.0
3509,48.0,4,60,4.0,0.0
3510,87.0,0,60,0.0,0.0
3511,72.0,0,60,1.0,0.0
3512,72.0,0,60,5.0,0.0
3513,82.0,0,60,1.0,0.0
3514,34.0,30,30,15.0,0.0
3515,46.0,0,30,14.0,0.0
3516,32.0,26,30,15.0,0.0
3517,44.0,0,30,14.0,0.0
3518,72.0,0,60,12.0,0.0
3519,72.0,0,60,5.0,0.0
3520,60.0,0,60,5.0,0.0
3521,72.0,4,60,1.0,0.0
3522,60.0,0,60,3.0,0.0
3523,82.0,0,60,1.0,0.0
3524,87.0,0,60,0.0,0.0
3525,84.0,0,60,0.0,0.0
3526,58.0,0,60,3.0,0.0
3527,60.0,0,60,4.0,0.0
3528,63.0,0,60,13.0,0.0
3529,51.0,0,60,13.0,0.0
3530,48.0,0,60,4.0,0.0
3531,82.0,0,60,11.0,0.0
3532,48.0,0,60,6.0,0.0
3533,72.0,0,60,2.0,0.0
3534,70.0,0,60,2.0,0.0
3535,43.0,0,30,14.0,0.0
3536,31.0,30,30,15.0,0.0
3537,80.0,0,60,1.0,0.0
3538,72.0,0,60,1.0,0.0
3539,56.0,0,60,3.0,0.0
3540,48.0,0,60,4.0,0.0
3541,60.0,4,60,4.0,0.0
3542,44.0,0,30,14.0,0.0
3543,60.0,0,60,3.0,0.0
3544,60.0,0,60,5.0,0.0
3545,87.0,0,60,0.0,0.0
3546,51.0,0,60,13.0,0.0
3547,63.0,0,60,13.0,0.0
3548,80.0,0,60,11.0,0.0
3549,48.0,0,60,6.0,0.0
3550,84.0,0,60,0.0,0.0
3551,32.0,26,30,15.0,0.0
3552,68.0,0,60,2.0,0.0
3553,72.0,0,60,2.0,0.0
3554,72.0,0,60,5.0,0.0
3555,72.0,0,60,12.0,0.0
3556,46.0,30,30,14.0,0.0
3557,34.0,0,30,15.0,0.0
3558,51.0,0,60,13.0,0.0
3559,63.0,0,60,13.0,0.0
3560,80.0,0,60,1.0,0.0
3561,72.0,0,60,1.0,0.0
3562,72.0,0,60,12.0,0.0
3563,56.0,0,60,3.0,0.0
3564,80.0,0,60,11.0,0.0
3565,84.0,0,60,0.0,0.0
3566,87.0,0,60,0.0,0.0
3567,36.0,26,30,15.0,0.0
3568,72.0,0,60,2.0,0.0
3569,68.0,4,60,2.0,0.0
3570,60.0,0,60,5.0,0.0
3571,48.0,120,60,6.0,0.0
3572,60.0,0,60,4.0,0.0
3573,48.0,0,60,4.0,0.0
3574,48.0,0,30,14.0,0.0
3575,60.0,0,60,3.0,0.0
3576,72.0,0,60,5.0,0.0
3577,50.0,0,30,14.0,0.0
3578,38.0,0,30,15.0,0.0
3579,67.0,180,360,2.0,0.0
3580,51.0,0,360,14.0,0.0
3581,58.0,4,360,3.0,0.0
3582,55.0,0,360,3.0,0.0
3583,63.0,0,120,11.0,0.0
3584,70.0,0,120,11.0,0.0
3585,79.0,0,120,11.0,0.0
3586,55.0,0,120,4.0,0.0
3587,51.0,0,150,13.0,0.0
3588,87.0,0,360,0.0,0.0
3589,70.0,4,180,12.0,0.0
3590,63.0,30,150,13.0,0.0
3591,79.0,0,360,1.0,0.0
3592,82.0,0,360,0.0,0.0
3593,75.0,0,360,1.0,0.0
3594,70.0,0,360,2.0,0.0
3595,39.0,0,360,15.0,0.0
3596,67.0,26,120,5.0,0.0
3597,43.0,0,120,6.0,0.0
3598,55.0,0,120,5.0,0.0
3599,79.0,0,30,11.0,0.0
3600,63.0,0,30,12.0,0.0
3601,51.0,30,30,13.0,0.0
3602,63.0,0,30,11.0,0.0
3603,65.0,0,30,12.0,0.0
3604,65.0,30,30,11.0,0.0
3605,53.0,0,30,13.0,0.0
3606,67.0,30,30,11.0,0.0
3607,67.0,0,30,12.0,0.0
3608,55.0,0,30,13.0,0.0
3609,68.0,30,30,12.0,0.0
3610,68.0,0,30,11.0,0.0
3611,56.0,0,30,13.0,0.0
3612,70.0,30,30,11.0,0.0
3613,58.0,0,30,13.0,0.0
3614,70.0,0,30,12.0,0.0
3615,72.0,0,30,12.0,0.0
3616,72.0,22,30,11.0,0.0
3617,60.0,0,30,13.0,0.0
3618,62.0,0,30,13.0,0.0
3619,74.0,4,30,12.0,0.0
3620,74.0,0,30,11.0,0.0
3621,63.0,0,180,2.0,0.0
3622,75.0,0,180,0.0,0.0
3623,63.0,0,180,0.0,0.0
3624,51.0,0,180,14.0,0.0
3625,63.0,30,180,13.0,0.0
3626,75.0,0,180,12.0,0.0
3627,39.0,0,180,15.0,0.0
3628,51.0,0,180,3.0,0.0
3629,63.0,0,180,1.0,0.0
3630,75.0,0,180,11.0,0.0
3631,77.0,0,30,11.0,0.0
3632,65.0,0,30,1.0,0.0
3633,77.0,0,30,12.0,0.0
3634,65.0,0,30,0.0,0.0
3635,65.0,0,30,2.0,0.0
3636,77.0,30,30,0.0,0.0
3637,41.0,0,30,15.0,0.0
3638,53.0,0,30,3.0,0.0
3639,65.0,0,30,13.0,0.0
3640,53.0,0,30,14.0,0.0
3641,55.0,0,30,3.0,0.0
3642,67.0,0,30,2.0,0.0
3643,55.0,0,30,14.0,0.0
3644,67.0,0,30,13.0,0.0
3645,43.0,0,30,15.0,0.0
3646,79.0,0,30,12.0,0.0
3647,67.0,30,30,1.0,0.0
3648,67.0,0,30,0.0,0.0
3649,79.0,0,30,0.0,0.0
3650,79.0,0,30,11.0,0.0
3651,80.0,0,30,0.0,0.0
3652,56.0,0,30,14.0,0.0
3653,68.0,0,30,1.0,0.0
3654,80.0,0,30,12.0,0.0
3655,56.0,0,30,3.0,0.0
3656,68.0,30,30,13.0,0.0
3657,68.0,0,30,2.0,0.0
3658,68.0,0,30,0.0,0.0
3659,44.0,0,30,15.0,0.0
3660,80.0,0,30,11.0,0.0
3661,70.0,0,30,13.0,0.0
3662,58.0,30,30,14.0,0.0
3663,70.0,0,30,2.0,0.0
3664,70.0,0,30,1.0,0.0
3665,46.0,0,30,15.0,0.0
3666,82.0,0,30,12.0,0.0
3667,82.0,0,30,11.0,0.0
3668,82.0,0,30,0.0,0.0
3669,70.0,0,30,0.0,0.0
3670,58.0,0,30,3.0,0.0
3671,48.0,0,30,15.0,0.0
3672,60.0,0,30,14.0,0.0
3673,84.0,0,30,12.0,0.0
3674,72.0,0,30,0.0,0.0
3675,72.0,0,30,13.0,0.0
3676,60.0,0,30,3.0,0.0
3677,84.0,0,30,11.0,0.0
3678,72.0,0,30,2.0,0.0
3679,84.0,0,30,0.0,0.0
3680,72.0,26,30,1.0,0.0
3681,74.0,0,30,1.0,0.0
3682,74.0,0,30,13.0,0.0
3683,62.0,229,30,14.0,0.0
3684,74.0,0,30,2.0,0.0
3685,74.0,0,30,0.0,0.0
3686,50.0,0,30,15.0,0.0
3687,86.0,0,30,11.0,0.0
3688,62.0,0,30,3.0,0.0
3689,86.0,0,30,12.0,0.0
3690,86.0,0,30,0.0,0.0
3691,51.0,0,240,3.0,0.0
3692,75.0,0,240,2.0,0.0
3693,63.0,0,240,3.0,0.0
3694,75.0,0,240,1.0,0.0
3695,75.0,0,240,0.0,0.0
3696,87.0,112,240,0.0,0.0
3697,75.0,0,210,13.0,0.0
3698,87.0,0,210,11.0,0.0
3699,51.0,15,210,15.0,0.0
3700,63.0,0,210,14.0,0.0
3701,87.0,0,210,12.0,0.0
3702,39.0,128,120,15.0,0.0
3703,51.0,0,120,14.0,0.0
3704,55.0,0,120,13.0,0.0
3705,61.0,0,120,11.0,0.0
3706,58.0,0,120,12.0,0.0
3707,58.0,0,120,12.0,0.0
3708,61.0,232,120,11.0,0.0
3709,51.0,0,120,14.0,0.0
3710,55.0,0,120,13.0,0.0
3711,39.0,0,120,15.0,0.0
3712,51.0,0,120,14.0,0.0
3713,55.0,0,120,13.0,0.0
3714,61.0,128,120,11.0,0.0
3715,39.0,0,120,15.0,0.0
3716,58.0,0,120,12.0,0.0
3717,55.0,0,120,13.0,0.0
3718,51.0,0,120,14.0,0.0
3719,39.0,232,120,15.0,0.0
3720,58.0,0,120,12.0,0.0
3721,61.0,0,120,11.0,0.0
3722,61.0,0,120,11.0,0.0
3723,55.0,128,120,13.0,0.0
3724,39.0,0,120,15.0,0.0
3725,58.0,0,120,12.0,0.0
3726,51.0,0,120,14.0,0.0
3727,51.0,0,120,14.0,0.0
3728,61.0,0,120,11.0,0.0
3729,39.0,0,120,15.0,0.0
3730,55.0,0,120,13.0,0.0
3731,58.0,232,120,12.0,0.0
3732,58.0,0,120,12.0,0.0
3733,39.0,0,120,15.0,0.0
3734,51.0,0,120,14.0,0.0
3735,61.0,0,120,11.0,0.0
3736,55.0,128,120,13.0,0.0
3737,58.0,0,120,12.0,0.0
3738,51.0,0,120,14.0,0.0
3739,39.0,0,120,15.0,0.0
3740,55.0,0,120,13.0,0.0
3741,61.0,180,120,11.0,0.0
3742,63.0,52,60,2.0,0.0
3743,58.0,0,120,12.0,0.0
3744,61.0,0,120,11.0,0.0
3745,39.0,0,120,15.0,0.0
3746,55.0,8,120,13.0,0.0
3747,51.0,0,120,14.0,0.0
3748,67.0,90,60,2.0,0.0
3749,61.0,0,120,11.0,0.0
3750,51.0,0,120,14.0,0.0
3751,39.0,60,120,15.0,0.0
3752,70.0,30,90,2.0,0.0
3753,55.0,0,120,13.0,0.0
3754,58.0,0,120,12.0,0.0
3755,70.0,60,60,2.0,0.0
3756,68.0,60,60,2.0,0.0
3757,67.0,52,60,2.0,0.0
3758,51.0,0,120,14.0,0.0
3759,58.0,0,120,12.0,0.0
3760,55.0,0,120,13.0,0.0
3761,39.0,0,120,15.0,0.0
3762,61.0,4,120,11.0,0.0
3763,70.0,124,60,2.0,0.0
3764,61.0,120,120,11.0,0.0
3765,55.0,0,120,13.0,0.0
3766,58.0,0,120,12.0,0.0
3767,51.0,0,120,14.0,0.0
3768,39.0,0,120,15.0,0.0
3769,73.0,60,240,2.0,0.0
3770,60.0,0,120,11.0,0.0
3771,51.0,0,120,14.0,0.0
3772,51.0,52,60,3.0,0.0
3773,39.0,8,120,15.0,0.0
3774,51.0,0,120,13.0,0.0
3775,56.0,0,120,12.0,0.0
3776,56.0,90,60,3.0,0.0
3777,51.0,0,120,13.0,0.0
3778,39.0,0,120,15.0,0.0
3779,60.0,30,90,3.0,0.0
3780,60.0,0,120,11.0,0.0
3781,51.0,60,120,14.0,0.0
3782,56.0,0,120,12.0,0.0
3783,60.0,60,60,3.0,0.0
3784,58.0,60,60,3.0,0.0
3785,60.0,0,120,11.0,0.0
3786,56.0,52,60,3.0,0.0
3787,51.0,0,120,13.0,0.0
3788,39.0,0,120,15.0,0.0
3789,56.0,0,120,12.0,0.0
3790,51.0,4,120,14.0,0.0
3791,60.0,124,60,3.0,0.0
3792,63.0,60,240,3.0,0.0
3793,51.0,0,120,14.0,0.0
3794,60.0,0,120,11.0,0.0
3795,39.0,0,120,15.0,0.0
3796,51.0,120,120,13.0,0.0
3797,56.0,0,120,12.0,0.0
3798,68.0,52,60,0.0,0.0
3799,65.0,0,120,11.0,0.0
3800,56.0,0,120,11.0,0.0
3801,51.0,0,120,13.0,0.0
3802,39.0,8,120,15.0,0.0
3803,51.0,0,120,14.0,0.0
3804,62.0,0,120,12.0,0.0
3805,74.0,90,60,0.0,0.0
3806,39.0,8,120,15.0,0.0
3807,62.0,0,120,12.0,0.0
3808,56.0,60,120,11.0,0.0
3809,65.0,0,120,11.0,0.0
3810,51.0,0,120,13.0,0.0
3811,77.0,22,90,0.0,0.0
3812,51.0,0,120,14.0,0.0
3813,77.0,60,60,0.0,0.0
3814,75.0,60,60,0.0,0.0
3815,74.0,0,60,0.0,0.0
3816,68.0,60,60,1.0,0.0
3817,74.0,90,60,1.0,0.0
3818,77.0,0,60,0.0,0.0
3819,77.0,90,90,1.0,0.0
3820,80.0,0,90,0.0,0.0
3821,77.0,0,60,1.0,0.0
3822,80.0,60,60,0.0,0.0
3823,75.0,60,60,1.0,0.0
3824,79.0,0,60,0.0,0.0
3825,72.0,0,60,2.0,0.0
3826,68.0,0,60,2.0,0.0
3827,74.0,0,60,1.0,0.0
3828,77.0,60,60,0.0,0.0
3829,65.0,0,60,2.0,0.0
3830,77.0,90,60,1.0,0.0
3831,68.0,0,60,2.0,0.0
3832,80.0,0,60,0.0,0.0
3833,62.0,0,90,2.0,0.0
3834,65.0,22,90,2.0,0.0
3835,80.0,68,120,1.0,0.0
3836,84.0,0,120,0.0,0.0
3837,84.0,0,60,0.0,0.0
3838,65.0,0,60,2.0,0.0
3839,80.0,0,60,1.0,0.0
3840,62.0,60,60,2.0,0.0
3841,67.0,0,60,2.0,0.0
3842,63.0,0,60,2.0,0.0
3843,79.0,0,60,1.0,0.0
3844,82.0,60,60,0.0,0.0
3845,80.0,60,60,0.0,0.0
3846,77.0,0,60,1.0,0.0
3847,68.0,0,60,2.0,0.0
3848,65.0,0,60,2.0,0.0
3849,79.0,0,60,0.0,0.0
3850,70.0,112,60,2.0,0.0
3851,67.0,0,60,2.0,0.0
3852,75.0,0,60,1.0,0.0
3853,77.0,68,120,0.0,0.0
3854,74.0,0,120,1.0,0.0
3855,72.0,0,120,2.0,0.0
3856,68.0,0,120,2.0,0.0
3857,68.0,60,60,2.0,0.0
3858,74.0,0,60,1.0,0.0
3859,77.0,0,60,0.0,0.0
3860,72.0,0,60,2.0,0.0
3861,79.0,0,60,0.0,0.0
3862,67.0,0,60,2.0,0.0
3863,70.0,60,60,2.0,0.0
3864,75.0,0,60,1.0,0.0
3865,80.0,56,60,0.0,0.0
3866,77.0,0,60,1.0,0.0
3867,68.0,0,60,2.0,0.0
3868,65.0,0,60,2.0,0.0
3869,63.0,0,60,2.0,0.0
3870,79.0,64,60,1.0,0.0
3871,82.0,0,60,0.0,0.0
3872,67.0,0,60,2.0,0.0
3873,84.0,0,60,0.0,0.0
3874,80.0,0,60,1.0,0.0
3875,62.0,60,60,2.0,0.0
3876,65.0,0,60,2.0,0.0
3877,67.0,0,60,2.0,0.0
3878,63.0,60,60,2.0,0.0
3879,82.0,0,60,0.0,0.0
3880,79.0,0,60,1.0,0.0
3881,65.0,60,60,2.0,0.0
3882,68.0,0,60,2.0,0.0
3883,80.0,0,60,0.0,0.0
3884,77.0,0,60,1.0,0.0
3885,75.0,60,60,1.0,0.0
3886,79.0,0,60,0.0,0.0
3887,67.0,0,60,2.0,0.0
3888,70.0,0,60,2.0,0.0
3889,74.0,0,60,1.0,0.0
3890,68.0,60,60,2.0,0.0
3891,72.0,0,60,2.0,0.0
3892,77.0,0,60,0.0,0.0
3893,70.0,60,60,2.0,0.0
3894,67.0,0,60,2.0,0.0
3895,79.0,0,60,0.0,0.0
3896,75.0,0,60,1.0,0.0
3897,77.0,0,60,1.0,0.0
3898,65.0,0,60,2.0,0.0
3899,80.0,60,60,0.0,0.0
3900,68.0,0,60,2.0,0.0
3901,82.0,56,60,0.0,0.0
3902,79.0,0,60,1.0,0.0
3903,67.0,0,60,2.0,0.0
3904,63.0,0,60,2.0,0.0
3905,65.0,0,60,2.0,0.0
3906,84.0,0,60,0.0,0.0
3907,62.0,64,60,2.0,0.0
3908,80.0,0,60,1.0,0.0
3909,62.0,0,60,2.0,0.0
3910,58.0,0,60,2.0,0.0
3911,80.0,60,60,1.0,0.0
3912,84.0,0,60,0.0,0.0
3913,63.0,0,60,2.0,0.0
3914,60.0,0,60,2.0,0.0
3915,79.0,60,60,1.0,0.0
3916,82.0,0,60,0.0,0.0
3917,65.0,60,60,2.0,0.0
3918,80.0,0,60,0.0,0.0
3919,77.0,0,60,1.0,0.0
3920,62.0,0,60,2.0,0.0
3921,67.0,60,60,2.0,0.0
3922,75.0,4,420,1.0,0.0
3923,63.0,0,60,2.0,0.0
3924,79.0,52,420,0.0,0.0
3925,65.0,60,60,2.0,0.0
3926,68.0,0,60,2.0,0.0
3927,67.0,60,60,2.0,0.0
3928,70.0,0,60,2.0,0.0
3929,72.0,0,60,2.0,0.0
3930,68.0,60,60,2.0,0.0
3931,70.0,60,60,2.0,0.0
3932,73.0,0,60,2.0,0.0
3933,75.0,56,60,2.0,0.0
3934,72.0,0,60,2.0,0.0
3935,77.0,8,120,2.0,0.0
3936,73.0,0,120,2.0,0.0
3937,80.0,0,60,0.0,0.0
3938,77.0,60,60,1.0,0.0
3939,79.0,0,60,1.0,0.0
3940,82.0,0,60,0.0,0.0
3941,77.0,60,60,2.0,0.0
3942,73.0,0,60,2.0,0.0
3943,80.0,0,60,1.0,0.0
3944,75.0,60,60,2.0,0.0
3945,72.0,0,60,2.0,0.0
3946,84.0,0,60,0.0,0.0
3947,85.0,60,60,0.0,0.0
3948,82.0,0,60,1.0,0.0
3949,70.0,0,60,2.0,0.0
3950,73.0,0,60,2.0,0.0
3951,84.0,112,60,1.0,0.0
3952,87.0,0,60,0.0,0.0
3953,72.0,0,60,2.0,0.0
3954,68.0,0,60,2.0,0.0
3955,67.0,0,120,2.0,0.0
3956,70.0,68,120,2.0,0.0
3957,89.0,0,120,0.0,0.0
3958,85.0,0,120,1.0,0.0
3959,85.0,60,60,1.0,0.0
3960,89.0,0,60,0.0,0.0
3961,70.0,0,60,2.0,0.0
3962,67.0,0,60,2.0,0.0
3963,72.0,0,60,2.0,0.0
3964,68.0,0,60,2.0,0.0
3965,87.0,60,60,0.0,0.0
3966,84.0,0,60,1.0,0.0
3967,82.0,0,60,1.0,0.0
3968,73.0,0,60,2.0,0.0
3969,70.0,0,60,2.0,0.0
3970,85.0,60,60,0.0,0.0
3971,72.0,0,60,2.0,0.0
3972,75.0,60,60,2.0,0.0
3973,84.0,0,60,0.0,0.0
3974,80.0,0,60,1.0,0.0
3975,77.0,0,60,2.0,0.0
3976,73.0,60,60,2.0,0.0
3977,79.0,0,60,1.0,0.0
3978,82.0,0,60,0.0,0.0
3979,75.0,0,60,2.0,0.0
3980,72.0,60,60,2.0,0.0
3981,80.0,0,60,1.0,0.0
3982,84.0,0,60,0.0,0.0
3983,82.0,0,60,1.0,0.0
3984,70.0,0,60,2.0,0.0
3985,73.0,60,60,2.0,0.0
3986,85.0,0,60,0.0,0.0
3987,68.0,0,60,2.0,0.0
3988,87.0,60,60,0.0,0.0
3989,72.0,0,60,2.0,0.0
3990,84.0,0,60,1.0,0.0
3991,85.0,0,60,1.0,0.0
3992,70.0,60,60,2.0,0.0
3993,89.0,0,60,0.0,0.0
3994,67.0,0,60,2.0,0.0
3995,84.0,0,60,1.0,0.0
3996,72.0,60,60,2.0,0.0
3997,68.0,0,60,2.0,0.0
3998,87.0,0,60,0.0,0.0
3999,70.0,60,60,2.0,0.0
4000,85.0,0,60,0.0,0.0
4001,82.0,0,60,1.0,0.0
4002,73.0,0,60,2.0,0.0
4003,75.0,0,60,2.0,0.0
4004,72.0,0,60,2.0,0.0
4005,80.0,56,60,1.0,0.0
4006,84.0,0,60,0.0,0.0
4007,79.0,0,60,1.0,0.0
4008,73.0,49,60,2.0,0.0
4009,77.0,0,60,2.0,0.0
4010,82.0,0,60,0.0,0.0
4011,89.0,0,40,0.0,0.0
4012,67.0,0,40,2.0,0.0
4013,70.0,0,40,2.0,0.0
4014,85.0,60,40,1.0,0.0
4015,72.0,60,40,2.0,0.0
4016,68.0,0,40,2.0,0.0
4017,87.0,0,40,0.0,0.0
4018,84.0,0,40,1.0,0.0
4019,82.0,0,40,1.0,0.0
4020,73.0,0,40,2.0,0.0
4021,70.0,0,40,2.0,0.0
4022,85.0,60,40,0.0,0.0
4023,72.0,0,40,2.0,0.0
4024,84.0,60,40,0.0,0.0
4025,75.0,0,40,2.0,0.0
4026,80.0,0,40,1.0,0.0
4027,84.0,0,40,1.0,0.0
4028,68.0,60,40,2.0,0.0
4029,65.0,0,40,2.0,0.0
4030,87.0,0,40,0.0,0.0
4031,85.0,0,40,0.0,0.0
4032,82.0,60,40,1.0,0.0
4033,67.0,0,40,2.0,0.0
4034,70.0,0,40,2.0,0.0
4035,80.0,60,40,1.0,0.0
4036,68.0,0,40,2.0,0.0
4037,72.0,0,40,2.0,0.0
4038,84.0,0,40,0.0,0.0
4039,73.0,0,40,2.0,0.0
4040,82.0,0,40,0.0,0.0
4041,79.0,0,40,1.0,0.0
4042,70.0,60,40,2.0,0.0
4043,73.0,0,40,11.0,0.0
4044,70.0,0,40,12.0,0.0
4045,40.0,0,40,15.0,0.0
4046,52.0,0,40,14.0,0.0
4047,55.0,60,40,13.0,0.0
4048,41.0,0,40,15.0,0.0
4049,68.0,0,40,12.0,0.0
4050,56.0,60,40,13.0,0.0
4051,53.0,0,40,14.0,0.0
4052,72.0,0,40,11.0,0.0
4053,67.0,0,40,12.0,0.0
4054,58.0,0,40,13.0,0.0
4055,55.0,60,40,14.0,0.0
4056,70.0,0,40,11.0,0.0
4057,43.0,0,40,15.0,0.0
4058,56.0,0,40,14.0,0.0
4059,44.0,60,40,15.0,0.0
4060,68.0,0,40,11.0,0.0
4061,60.0,0,40,13.0,0.0
4062,65.0,0,40,12.0,0.0
4063,80.0,0,40,1.0,0.0
4064,68.0,0,40,2.0,0.0
4065,65.0,0,40,2.0,0.0
4066,84.0,60,40,0.0,0.0
4067,82.0,0,40,0.0,0.0
4068,67.0,0,40,2.0,0.0
4069,79.0,0,40,1.0,0.0
4070,70.0,60,40,2.0,0.0
4071,80.0,71,40,0.0,0.0
4072,72.0,0,40,2.0,0.0
4073,68.0,0,40,2.0,0.0
4074,77.0,0,40,1.0,0.0
4075,73.0,0,60,2.0,0.0
4076,77.0,0,60,1.0,0.0
4077,79.0,0,60,0.0,0.0
4078,70.0,60,60,2.0,0.0
4079,77.0,0,60,1.0,0.0
4080,79.0,0,60,0.0,0.0
4081,73.0,0,60,2.0,0.0
4082,70.0,60,60,2.0,0.0
4083,73.0,0,60,2.0,0.0
4084,70.0,0,60,2.0,0.0
4085,79.0,0,60,0.0,0.0
4086,77.0,60,60,1.0,0.0
4087,73.0,0,60,2.0,0.0
4088,70.0,60,60,2.0,0.0
4089,77.0,0,60,1.0,0.0
4090,79.0,0,60,0.0,0.0
4091,77.0,0,60,1.0,0.0
4092,79.0,0,60,0.0,0.0
4093,73.0,0,60,2.0,0.0
4094,70.0,60,60,2.0,0.0
4095,73.0,0,60,2.0,0.0
4096,70.0,0,60,2.0,0.0
4097,79.0,0,60,0.0,0.0
4098,77.0,60,60,1.0,0.0
4099,71.0,0,60,2.0,0.0
4100,74.0,0,60,2.0,0.0
4101,79.0,60,60,0.0,0.0
4102,77.0,0,60,1.0,0.0
4103,77.0,0,60,1.0,0.0
4104,79.0,0,60,0.0,0.0
4105,74.0,60,60,2.0,0.0
4106,71.0,0,60,2.0,0.0
4107,74.0,0,60,2.0,0.0
4108,71.0,0,60,2.0,0.0
4109,77.0,64,60,1.0,0.0
4110,79.0,0,60,0.0,0.0
4111,79.0,0,60,0.0,0.0
4112,74.0,56,60,2.0,0.0
4113,71.0,0,60,2.0,0.0
4114,77.0,0,60,1.0,0.0
4115,67.0,60,60,4.0,0.0
4116,55.0,0,60,4.0,0.0
4117,67.0,60,60,4.0,0.0
4118,55.0,0,60,4.0,0.0
4119,67.0,0,60,4.0,0.0
4120,55.0,60,60,4.0,0.0
4121,67.0,60,60,4.0,0.0
4122,55.0,0,60,4.0,0.0
4123,67.0,60,60,4.0,0.0
4124,55.0,0,60,4.0,0.0
4125,67.0,0,60,4.0,0.0
4126,55.0,60,60,4.0,0.0
4127,48.0,0,90,14.0,0.0
4128,64.0,0,90,12.0,0.0
4129,64.0,0,90,1.0,0.0
4130,52.0,0,90,13.0,0.0
4131,36.0,0,90,15.0,0.0
4132,48.0,4,60,4.0,0.0
4133,60.0,0,60,4.0,0.0
4134,60.0,0,60,5.0,0.0
4135,48.0,26,60,6.0,0.0
4136,76.0,0,90,0.0,0.0
4137,52.0,0,90,3.0,0.0
4138,64.0,30,90,11.0,0.0
4139,72.0,0,60,5.0,0.0
4140,48.0,112,60,6.0,0.0
4141,72.0,0,60,5.0,0.0
4142,60.0,0,60,4.0,0.0
4143,60.0,0,60,5.0,0.0
4144,48.0,0,60,4.0,0.0
4145,55.0,0,30,13.0,0.0
4146,36.0,0,30,15.0,0.0
4147,55.0,0,30,3.0,0.0
4148,67.0,0,30,11.0,0.0
4149,67.0,0,30,1.0,0.0
4150,79.0,0,30,0.0,0.0
4151,48.0,0,30,14.0,0.0
4152,67.0,4,30,12.0,0.0
4153,36.0,0,120,15.0,0.0
4154,60.0,0,120,4.0,0.0
4155,48.0,0,120,4.0,0.0
4156,72.0,0,120,12.0,0.0
4157,64.0,0,120,1.0,0.0
4158,72.0,0,120,11.0,0.0
4159,60.0,0,120,2.0,0.0
4160,60.0,0,120,3.0,0.0
4161,52.0,0,120,3.0,0.0
4162,48.0,112,120,6.0,0.0
4163,84.0,0,120,0.0,0.0
4164,64.0,0,120,11.0,0.0
4165,60.0,0,120,5.0,0.0
4166,60.0,0,120,13.0,0.0
4167,64.0,0,120,12.0,0.0
4168,55.0,0,120,12.0,0.0
4169,76.0,0,120,0.0,0.0
4170,48.0,8,120,14.0,0.0
4171,72.0,0,120,1.0,0.0
4172,72.0,0,120,5.0,0.0
4173,55.0,0,120,11.0,0.0
4174,60.0,0,120,2.0,0.0
4175,72.0,0,120,11.0,0.0
4176,55.0,0,120,11.0,0.0
4177,64.0,0,120,11.0,0.0
4178,60.0,0,120,4.0,0.0
4179,52.0,8,120,4.0,0.0
4180,64.0,0,120,5.0,0.0
4181,52.0,0,120,3.0,0.0
4182,72.0,0,120,1.0,0.0
4183,64.0,0,120,1.0,0.0
4184,60.0,0,120,3.0,0.0
4185,72.0,0,120,5.0,0.0
4186,48.0,112,120,6.0,0.0
4187,60.0,0,120,13.0,0.0
4188,76.0,0,120,0.0,0.0
4189,84.0,0,120,0.0,0.0
4190,64.0,0,120,12.0,0.0
4191,55.0,0,120,12.0,0.0
4192,36.0,0,120,15.0,0.0
4193,72.0,0,120,12.0,0.0
4194,48.0,0,120,14.0,0.0
4195,86.0,0,120,0.0,0.0
4196,31.0,0,120,15.0,0.0
4197,62.0,8,120,2.0,0.0
4198,59.0,0,120,2.0,0.0
4199,55.0,0,120,4.0,0.0
4200,55.0,0,120,13.0,0.0
4201,67.0,0,120,5.0,0.0
4202,74.0,0,120,5.0,0.0
4203,62.0,0,120,4.0,0.0
4204,71.0,0,120,1.0,0.0
4205,55.0,0,120,12.0,0.0
4206,43.0,15,120,6.0,0.0
4207,74.0,0,120,1.0,0.0
4208,59.0,0,120,11.0,0.0
4209,50.0,0,120,3.0,0.0
4210,59.0,0,120,3.0,0.0
4211,74.0,0,120,11.0,0.0
4212,67.0,0,120,11.0,0.0
4213,71.0,0,120,12.0,0.0
4214,83.0,0,120,0.0,0.0
4215,62.0,0,120,12.0,0.0
4216,43.0,0,120,14.0,0.0
4217,60.0,0,600,4.0,0.0
4218,36.0,0,600,15.0,0.0
4219,76.0,0,600,5.0,0.0
4220,67.0,0,240,11.0,0.0
4221,72.0,0,600,5.0,0.0
4222,76.0,94,600,1.0,0.0
4223,72.0,0,600,1.0,0.0
4224,48.0,15,15,6.0,0.0
4225,48.0,0,600,14.0,0.0
4226,52.0,0,600,3.0,0.0
4227,60.0,0,600,3.0,0.0
4228,60.0,0,600,2.0,0.0
4229,72.0,0,600,12.0,0.0
4230,55.0,0,240,12.0,0.0
4231,64.0,0,240,12.0,0.0
4232,64.0,0,600,4.0,0.0
4233,48.0,0,600,13.0,0.0
4234,64.0,0,600,2.0,0.0
4235,84.0,0,600,0.0,0.0
4236,88.0,0,600,0.0,0.0
4237,60.0,0,600,13.0,0.0
4238,60.0,0,240,11.0,0.0
4239,76.0,0,600,11.0,0.0
4240,48.0,15,15,6.0,0.0
4241,48.0,15,15,6.0,0.0
4242,48.0,15,15,6.0,0.0
4243,48.0,15,15,6.0,0.0
4244,48.0,15,15,6.0,0.0
4245,48.0,15,15,6.0,0.0
4246,48.0,15,15,6.0,0.0
4247,48.0,15,15,6.0,0.0
4248,48.0,15,15,6.0,0.0
4249,48.0,15,15,6.0,0.0
4250,48.0,15,15,6.0,0.0
4251,48.0,15,15,6.0,0.0
4252,48.0,15,15,6.0,0.0
4253,48.0,15,15,6.0,0.0
4254,48.0,15,15,6.0,0.0
4255,48.0,15,15,6.0,0.0
4256,48.0,15,15,6.0,0.0
4257,48.0,15,15,6.0,0.0
4258,48.0,15,15,6.0,0.0
4259,48.0,15,15,6.0,0.0
4260,48.0,15,15,6.0,0.0
4261,48.0,15,15,6.0,0.0
4262,48.0,120,15,6.0,0.0
4263,48.0,112,120,6.0,0.0
4264,64.0,0,90,12.0,0.0
4265,36.0,4,90,15.0,0.0
4266,64.0,0,90,5.0,0.0
4267,48.0,26,90,6.0,0.0
4268,52.0,0,90,3.0,0.0
4269,52.0,0,90,4.0,0.0
4270,60.0,0,90,4.0,0.0
4271,72.0,0,90,11.0,0.0
4272,72.0,0,90,5.0,0.0
4273,60.0,0,90,2.0,0.0
4274,60.0,0,90,3.0,0.0
4275,84.0,0,90,0.0,0.0
4276,48.0,0,90,14.0,0.0
4277,64.0,0,90,1.0,0.0
4278,60.0,0,90,13.0,0.0
4279,72.0,0,90,1.0,0.0
4280,76.0,0,90,0.0,0.0
4281,50.0,0,30,3.0,0.0
4282,59.0,0,30,3.0,0.0
4283,43.0,0,30,14.0,0.0
4284,74.0,4,30,11.0,0.0
4285,55.0,0,30,13.0,0.0
4286,59.0,0,30,2.0,0.0
4287,62.0,0,30,2.0,0.0
4288,55.0,0,30,4.0,0.0
4289,31.0,0,30,15.0,0.0
4290,74.0,0,30,5.0,0.0
4291,71.0,0,30,1.0,0.0
4292,74.0,0,30,1.0,0.0
4293,67.0,0,30,5.0,0.0
4294,43.0,112,30,6.0,0.0
4295,83.0,0,30,0.0,0.0
4296,62.0,0,30,4.0,0.0
4297,71.0,0,30,12.0,0.0
4298,86.0,0,30,0.0,0.0
4299,72.0,0,120,11.0,0.0
4300,48.0,0,120,14.0,0.0
4301,64.0,0,120,11.0,0.0
4302,76.0,0,120,11.0,0.0
4303,60.0,0,120,13.0,0.0
4304,48.0,0,120,13.0,0.0
4305,64.0,0,120,12.0,0.0
4306,60.0,0,120,4.0,0.0
4307,72.0,0,120,12.0,0.0
4308,55.0,0,120,12.0,0.0
4309,72.0,0,120,1.0,0.0
4310,76.0,8,120,1.0,0.0
4311,48.0,112,120,6.0,0.0
4312,88.0,0,120,0.0,0.0
4313,84.0,0,120,0.0,0.0
4314,64.0,0,120,2.0,0.0
4315,36.0,0,120,15.0,0.0
4316,60.0,0,120,2.0,0.0
4317,72.0,0,120,5.0,0.0
4318,76.0,0,120,5.0,0.0
4319,52.0,0,120,3.0,0.0
4320,60.0,0,120,3.0,0.0
4321,64.0,0,120,4.0,0.0
4322,88.0,0,120,0.0,0.0
4323,48.0,0,120,3.0,0.0
4324,52.0,0,120,3.0,0.0
4325,55.0,0,120,12.0,0.0
4326,60.0,0,120,4.0,0.0
4327,64.0,0,120,4.0,0.0
4328,84.0,0,120,0.0,0.0
4329,64.0,0,120,12.0,0.0
4330,72.0,0,120,12.0,0.0
4331,60.0,0,120,2.0,0.0
4332,64.0,0,120,2.0,0.0
4333,72.0,0,120,1.0,0.0
4334,48.0,112,120,6.0,0.0
4335,36.0,0,120,15.0,0.0
4336,76.0,0,120,11.0,0.0
4337,76.0,0,120,1.0,0.0
4338,48.0,0,120,13.0,0.0
4339,76.0,0,120,5.0,0.0
4340,72.0,0,120,5.0,0.0
4341,72.0,0,120,11.0,0.0
4342,48.0,0,120,14.0,0.0
4343,60.0,0,120,13.0,0.0
4344,64.0,8,120,11.0,0.0
4345,65.0,0,120,2.0,0.0
4346,77.0,0,120,11.0,0.0
4347,72.0,8,120,11.0,0.0
4348,74.0,0,120,5.0,0.0
4349,86.0,0,120,0.0,0.0
4350,74.0,0,120,1.0,0.0
4351,77.0,0,120,1.0,0.0
4352,48.0,15,120,6.0,0.0
4353,77.0,0,120,5.0,0.0
4354,62.0,0,120,2.0,0.0
4355,65.0,0,120,11.0,0.0
4356,65.0,0,120,4.0,0.0
4357,60.0,0,120,13.0,0.0
4358,48.0,0,120,13.0,0.0
4359,65.0,0,120,12.0,0.0
4360,50.0,0,120,3.0,0.0
4361,53.0,0,120,3.0,0.0
4362,48.0,0,120,14.0,0.0
4363,89.0,0,120,0.0,0.0
4364,55.0,0,120,12.0,0.0
4365,74.0,0,120,12.0,0.0
4366,36.0,0,120,15.0,0.0
4367,62.0,0,120,4.0,0.0
4368,36.0,94,600,15.0,0.0
4369,55.0,0,600,3.0,0.0
4370,52.0,0,600,3.0,0.0
4371,60.0,0,600,13.0,0.0
4372,48.0,0,600,13.0,0.0
4373,55.0,15,240,12.0,0.0
4374,76.0,0,600,12.0,0.0
4375,79.0,0,600,5.0,0.0
4376,76.0,0,600,5.0,0.0
4377,64.0,0,600,4.0,0.0
4378,67.0,0,600,4.0,0.0
4379,48.0,15,15,6.0,0.0
4380,48.0,0,600,14.0,0.0
4381,67.0,0,240,12.0,0.0
4382,91.0,0,600,0.0,0.0
4383,64.0,0,600,2.0,0.0
4384,67.0,0,600,2.0,0.0
4385,76.0,0,600,1.0,0.0
4386,79.0,0,600,1.0,0.0
4387,64.0,0,240,11.0,0.0
4388,79.0,0,600,11.0,0.0
4389,88.0,0,600,0.0,0.0
4390,72.0,0,240,11.0,0.0
4391,48.0,15,15,6.0,0.0
4392,48.0,15,15,6.0,0.0
4393,48.0,15,15,6.0,0.0
4394,48.0,15,15,6.0,0.0
4395,48.0,15,15,6.0,0.0
4396,48.0,15,15,6.0,0.0
4397,48.0,15,15,6.0,0.0
4398,48.0,15,15,6.0,0.0
4399,48.0,15,15,6.0,0.0
4400,48.0,15,15,6.0,0.0
4401,48.0,15,15,6.0,0.0
4402,48.0,15,15,6.0,0.0
4403,48.0,15,15,6.0,0.0
4404,48.0,15,15,6.0,0.0
4405,48.0,0,15,6.0,0.0
4406,48.0,15,15,6.0,0.0
4407,48.0,15,15,6.0,0.0
4408,48.0,15,15,6.0,0.0
4409,48.0,15,15,6.0,0.0
4410,48.0,15,15,6.0,0.0
4411,48.0,15,15,6.0,0.0
4412,48.0,15,15,6.0,0.0
4413,48.0,120,15,6.0,0.0
4414,48.0,112,120,6.0,0.0
4415,64.0,4,90,2.0,0.0
4416,60.0,0,90,2.0,0.0
4417,48.0,26,90,6.0,0.0
4418,48.0,0,90,3.0,0.0
4419,52.0,0,90,3.0,0.0
4420,48.0,0,90,14.0,0.0
4421,72.0,0,90,12.0,0.0
4422,76.0,0,90,1.0,0.0
4423,60.0,0,90,13.0,0.0
4424,60.0,0,90,4.0,0.0
4425,84.0,0,90,0.0,0.0
4426,88.0,0,90,0.0,0.0
4427,76.0,0,90,11.0,0.0
4428,76.0,0,90,5.0,0.0
4429,72.0,0,90,5.0,0.0
4430,36.0,0,90,15.0,0.0
4431,48.0,0,90,13.0,0.0
4432,64.0,0,90,4.0,0.0
4433,72.0,0,90,1.0,0.0
4434,60.0,0,30,13.0,0.0
4435,77.0,0,30,1.0,0.0
4436,48.0,4,30,13.0,0.0
4437,48.0,15,30,6.0,0.0
4438,50.0,0,30,3.0,0.0
4439,77.0,0,30,11.0,0.0
4440,74.0,0,30,1.0,0.0
4441,74.0,0,30,12.0,0.0
4442,36.0,0,30,15.0,0.0
4443,62.0,0,30,4.0,0.0
4444,65.0,0,30,4.0,0.0
4445,74.0,0,30,5.0,0.0
4446,77.0,0,30,5.0,0.0
4447,62.0,0,30,2.0,0.0
4448,65.0,0,30,2.0,0.0
4449,48.0,0,30,14.0,0.0
4450,86.0,0,30,0.0,0.0
4451,89.0,0,30,0.0,0.0
4452,53.0,0,30,3.0,0.0
4453,48.0,0,240,13.0,0.0
4454,76.0,0,240,12.0,0.0
4455,76.0,0,240,5.0,0.0
4456,79.0,8,240,5.0,0.0
4457,55.0,0,240,12.0,0.0
4458,64.0,0,240,11.0,0.0
4459,79.0,0,240,11.0,0.0
4460,72.0,0,240,11.0,0.0
4461,79.0,0,240,1.0,0.0
4462,76.0,0,240,1.0,0.0
4463,55.0,0,240,3.0,0.0
4464,64.0,0,240,2.0,0.0
4465,36.0,0,240,15.0,0.0
4466,64.0,0,240,4.0,0.0
4467,67.0,0,240,4.0,0.0
4468,48.0,15,15,6.0,0.0
4469,48.0,0,240,14.0,0.0
4470,52.0,0,240,3.0,0.0
4471,91.0,0,240,0.0,0.0
4472,88.0,0,240,0.0,0.0
4473,60.0,0,240,13.0,0.0
4474,67.0,0,240,2.0,0.0
4475,67.0,0,240,12.0,0.0
4476,48.0,15,15,6.0,0.0
4477,48.0,15,15,6.0,0.0
4478,48.0,15,15,6.0,0.0
4479,48.0,15,15,6.0,0.0
4480,48.0,15,15,6.0,0.0
4481,48.0,15,15,6.0,0.0
4482,48.0,112,15,6.0,0.0
4483,48.0,86,120,6.0,0.0
4484,48.0,0,90,6.0,0.0
4485,36.0,26,90,15.0,0.0
4486,84.0,0,90,0.0,0.0
4487,76.0,0,90,11.0,0.0
4488,76.0,0,90,1.0,0.0
4489,72.0,0,90,5.0,0.0
4490,72.0,0,90,1.0,0.0
4491,76.0,4,90,5.0,0.0
4492,48.0,0,90,14.0,0.0
4493,52.0,0,90,3.0,0.0
4494,48.0,0,90,3.0,0.0
4495,64.0,0,90,4.0,0.0
4496,88.0,0,90,0.0,0.0
4497,72.0,0,90,12.0,0.0
4498,60.0,0,90,4.0,0.0
4499,64.0,0,90,2.0,0.0
4500,60.0,0,90,13.0,0.0
4501,60.0,0,90,2.0,0.0
4502,48.0,0,90,13.0,0.0
4503,36.0,0,30,15.0,0.0
4504,65.0,0,30,4.0,0.0
4505,62.0,0,30,4.0,0.0
4506,50.0,0,30,3.0,0.0
4507,53.0,0,30,3.0,0.0
4508,77.0,0,30,11.0,0.0
4509,74.0,0,30,12.0,0.0
4510,65.0,4,30,2.0,0.0
4511,62.0,0,30,2.0,0.0
4512,74.0,0,30,1.0,0.0
4513,77.0,0,30,1.0,0.0
4514,48.0,0,30,14.0,0.0
4515,77.0,0,30,5.0,0.0
4516,74.0,0,30,5.0,0.0
4517,48.0,15,30,6.0,0.0
4518,86.0,0,30,0.0,0.0
4519,89.0,0,30,0.0,0.0
4520,48.0,0,30,13.0,0.0
4521,60.0,0,30,13.0,0.0
4522,64.0,0,240,2.0,0.0
4523,76.0,0,240,5.0,0.0
4524,79.0,0,240,5.0,0.0
4525,67.0,0,240,12.0,0.0
4526,55.0,0,240,12.0,0.0
4527,76.0,0,240,12.0,0.0
4528,48.0,0,240,13.0,0.0
4529,60.0,0,240,13.0,0.0
4530,67.0,0,240,2.0,0.0
4531,48.0,0,240,14.0,0.0
4532,64.0,8,240,11.0,0.0
4533,88.0,0,240,0.0,0.0
4534,79.0,0,240,11.0,0.0
4535,79.0,0,240,1.0,0.0
4536,76.0,0,240,1.0,0.0
4537,64.0,0,240,4.0,0.0
4538,67.0,0,240,4.0,0.0
4539,72.0,0,240,11.0,0.0
4540,55.0,0,240,3.0,0.0
4541,48.0,15,15,6.0,0.0
4542,36.0,0,240,15.0,0.0
4543,52.0,0,240,3.0,0.0
4544,91.0,0,240,0.0,0.0
4545,48.0,15,15,6.0,0.0
4546,48.0,15,15,6.0,0.0
4547,48.0,15,15,6.0,0.0
4548,48.0,15,15,6.0,0.0
4549,48.0,15,15,6.0,0.0
4550,48.0,15,15,6.0,0.0
4551,48.0,112,15,6.0,0.0
4552,48.0,86,120,6.0,0.0
4553,76.0,4,90,11.0,0.0
4554,48.0,0,90,13.0,0.0
4555,48.0,0,90,3.0,0.0
4556,52.0,0,90,3.0,0.0
4557,60.0,0,90,13.0,0.0
4558,48.0,0,90,14.0,0.0
4559,36.0,0,90,15.0,0.0
4560,64.0,0,90,4.0,0.0
4561,72.0,0,90,12.0,0.0
4562,48.0,26,90,6.0,0.0
4563,60.0,0,90,4.0,0.0
4564,72.0,0,90,1.0,0.0
4565,76.0,0,90,1.0,0.0
4566,60.0,0,90,2.0,0.0
4567,64.0,0,90,2.0,0.0
4568,72.0,0,90,5.0,0.0
4569,76.0,0,90,5.0,0.0
4570,88.0,0,90,0.0,0.0
4571,84.0,0,90,0.0,0.0
4572,53.0,0,30,3.0,0.0
4573,74.0,0,30,12.0,0.0
4574,74.0,0,30,1.0,0.0
4575,77.0,0,30,1.0,0.0
4576,65.0,0,30,4.0,0.0
4577,48.0,0,30,14.0,0.0
4578,89.0,0,30,0.0,0.0
4579,77.0,4,30,11.0,0.0
4580,50.0,0,30,3.0,0.0
4581,65.0,0,30,2.0,0.0
4582,62.0,0,30,2.0,0.0
4583,62.0,0,30,4.0,0.0
4584,60.0,0,30,13.0,0.0
4585,48.0,0,30,13.0,0.0
4586,74.0,0,30,5.0,0.0
4587,77.0,0,30,5.0,0.0
4588,48.0,15,30,6.0,0.0
4589,86.0,0,30,0.0,0.0
4590,36.0,0,30,15.0,0.0
4591,76.0,0,840,1.0,0.0
4592,60.0,0,240,13.0,0.0
4593,48.0,0,240,13.0,0.0
4594,91.0,0,840,0.0,0.0
4595,48.0,15,360,14.0,0.0
4596,88.0,0,840,0.0,0.0
4597,55.0,0,840,3.0,0.0
4598,72.0,0,240,11.0,0.0
4599,76.0,0,840,5.0,0.0
4600,79.0,0,840,5.0,0.0
4601,79.0,0,840,1.0,0.0
4602,64.0,0,240,11.0,0.0
4603,52.0,0,840,3.0,0.0
4604,79.0,0,240,11.0,0.0
4605,64.0,0,840,4.0,0.0
4606,67.0,0,840,4.0,0.0
4607,67.0,0,240,12.0,0.0
4608,55.0,0,240,12.0,0.0
4609,76.0,15,240,12.0,0.0
4610,48.0,15,15,6.0,0.0
4611,36.0,0,360,15.0,0.0
4612,64.0,15,120,2.0,0.0
4613,67.0,0,120,2.0,0.0
4614,48.0,15,15,6.0,0.0
4615,48.0,15,15,6.0,0.0
4616,48.0,15,15,6.0,0.0
4617,48.0,15,15,6.0,0.0
4618,48.0,15,15,6.0,0.0
4619,48.0,15,15,6.0,0.0
4620,48.0,0,15,6.0,0.0
4621,48.0,15,15,6.0,0.0
4622,48.0,15,15,6.0,0.0
4623,48.0,15,15,6.0,0.0
4624,48.0,15,15,6.0,0.0
4625,48.0,15,15,6.0,0.0
4626,48.0,15,15,6.0,0.0
4627,48.0,15,15,6.0,0.0
4628,48.0,0,15,6.0,0.0
4629,48.0,15,15,6.0,0.0
4630,48.0,15,15,6.0,0.0
4631,48.0,15,15,6.0,0.0
4632,48.0,15,15,6.0,0.0
4633,48.0,15,15,6.0,0.0
4634,48.0,15,15,6.0,0.0
4635,48.0,15,15,6.0,0.0
4636,48.0,0,15,6.0,0.0
4637,36.0,8,360,15.0,0.0
4638,48.0,15,15,6.0,0.0
4639,48.0,0,360,14.0,0.0
4640,48.0,15,15,6.0,0.0
4641,48.0,15,15,6.0,0.0
4642,48.0,15,15,6.0,0.0
4643,48.0,15,15,6.0,0.0
4644,48.0,15,15,6.0,0.0
4645,48.0,15,15,6.0,0.0
4646,48.0,15,15,6.0,0.0
4647,48.0,15,15,6.0,0.0
4648,48.0,15,15,6.0,0.0
4649,48.0,15,15,6.0,0.0
4650,48.0,15,15,6.0,0.0
4651,48.0,15,15,6.0,0.0
4652,48.0,15,15,6.0,0.0
4653,48.0,15,15,6.0,0.0
4654,48.0,15,15,6.0,0.0
4655,48.0,15,90,13.0,0.0
4656,48.0,15,15,6.0,0.0
4657,60.0,0,90,11.0,0.0
4658,48.0,15,15,6.0,0.0
4659,48.0,15,15,6.0,0.0
4660,48.0,15,15,6.0,0.0
4661,48.0,15,15,6.0,0.0
4662,48.0,0,15,6.0,0.0
4663,48.0,7,15,6.0,0.0
4664,64.0,0,30,11.0,0.0
4665,52.0,0,30,13.0,0.0
4666,48.0,90,15,6.0,0.0
4667,64.0,0,120,12.0,0.0
4668,55.0,0,120,12.0,0.0
4669,48.0,0,120,14.0,0.0
4670,36.0,210,120,15.0,0.0
4671,48.0,0,120,6.0,0.0
4672,67.0,30,90,11.0,0.0
4673,55.0,0,90,13.0,0.0
4674,48.0,30,90,13.0,0.0
4675,60.0,0,90,11.0,0.0
4676,65.0,0,30,11.0,0.0
4677,53.0,90,30,13.0,0.0
4678,53.0,210,120,14.0,0.0
4679,41.0,0,120,15.0,0.0
4680,56.0,0,120,12.0,0.0
4681,68.0,30,90,11.0,0.0
4682,65.0,0,120,12.0,0.0
4683,56.0,0,90,13.0,0.0
4684,51.0,0,90,13.0,0.0
4685,63.0,26,90,11.0,0.0
4686,67.0,34,30,11.0,0.0
4687,55.0,0,30,13.0,0.0
4688,58.0,0,120,12.0,0.0
4689,67.0,30,120,12.0,0.0
4690,39.0,0,120,15.0,0.0
4691,51.0,0,120,14.0,0.0
4692,70.0,0,30,11.0,0.0
4693,58.0,40,30,13.0,0.0
4694,63.0,40,30,11.0,0.0
4695,51.0,0,30,13.0,0.0
4696,55.0,10,30,13.0,0.0
4697,67.0,0,30,11.0,0.0
4698,70.0,40,30,11.0,0.0
4699,58.0,0,30,13.0,0.0
4700,51.0,40,30,13.0,0.0
4701,63.0,0,30,11.0,0.0
4702,67.0,0,30,11.0,0.0
4703,55.0,40,30,13.0,0.0
4704,58.0,40,30,13.0,0.0
4705,70.0,0,30,11.0,0.0
4706,63.0,40,30,11.0,0.0
4707,51.0,0,30,13.0,0.0
4708,67.0,40,30,11.0,0.0
4709,55.0,0,30,13.0,0.0
4710,70.0,0,30,11.0,0.0
4711,58.0,40,30,13.0,0.0
4712,63.0,0,30,11.0,0.0
4713,51.0,40,30,13.0,0.0
4714,67.0,0,30,11.0,0.0
4715,55.0,40,30,13.0,0.0
4716,70.0,40,30,11.0,0.0
4717,58.0,0,30,13.0,0.0
4718,63.0,0,30,11.0,0.0
4719,51.0,40,30,13.0,0.0
4720,67.0,0,30,11.0,0.0
4721,55.0,40,30,13.0,0.0
4722,58.0,40,30,13.0,0.0
4723,70.0,0,30,11.0,0.0
4724,63.0,0,30,11.0,0.0
4725,51.0,40,30,13.0,0.0
4726,55.0,0,30,13.0,0.0
4727,67.0,40,30,11.0,0.0
4728,58.0,30,30,13.0,0.0
4729,70.0,0,30,11.0,0.0
4730,55.0,0,30,13.0,0.0
4731,67.0,30,30,11.0,0.0
4732,63.0,26,30,11.0,0.0
4733,51.0,0,30,13.0,0.0
4734,67.0,0,30,11.0,0.0
4735,55.0,34,30,13.0,0.0
4736,70.0,0,30,11.0,0.0
4737,58.0,30,30,13.0,0.0
4738,67.0,30,30,11.0,0.0
4739,55.0,0,30,13.0,0.0
4740,51.0,0,30,13.0,0.0
4741,63.0,26,30,11.0,0.0
4742,55.0,34,30,13.0,0.0
4743,67.0,0,30,11.0,0.0
4744,58.0,30,30,13.0,0.0
4745,70.0,0,30,11.0,0.0
4746,55.0,0,30,13.0,0.0
4747,67.0,30,30,11.0,0.0
4748,63.0,0,30,11.0,0.0
4749,51.0,26,30,13.0,0.0
4750,55.0,34,30,13.0,0.0
4751,67.0,0,30,11.0,0.0
4752,46.0,30,30,14.0,0.0
4753,70.0,0,120,11.0,0.0
4754,58.0,30,120,13.0,0.0
4755,43.0,30,30,14.0,0.0
4756,39.0,26,30,14.0,0.0
4757,43.0,4,30,14.0,0.0
4758,46.0,30,30,14.0,0.0
4759,43.0,30,30,14.0,0.0
4760,39.0,26,30,14.0,0.0
4761,43.0,34,30,14.0,0.0
4762,46.0,30,30,14.0,0.0
4763,43.0,30,30,14.0,0.0
4764,39.0,26,30,14.0,0.0
4765,43.0,34,30,14.0,0.0
4766,46.0,30,120,14.0,0.0
4767,70.0,30,30,11.0,0.0
4768,67.0,30,30,11.0,0.0
4769,63.0,30,30,11.0,0.0
4770,67.0,0,30,11.0,0.0
4771,70.0,30,30,11.0,0.0
4772,67.0,30,30,11.0,0.0
4773,63.0,30,30,11.0,0.0
4774,67.0,30,30,11.0,0.0
4775,70.0,30,30,11.0,0.0
4776,67.0,30,30,11.0,0.0
4777,63.0,30,30,11.0,0.0
4778,67.0,30,30,11.0,0.0
4779,70.0,30,30,11.0,0.0
4780,67.0,30,30,11.0,0.0
4781,63.0,30,30,11.0,0.0
4782,67.0,30,30,11.0,0.0
4783,70.0,30,30,11.0,0.0
4784,67.0,30,30,11.0,0.0
4785,63.0,30,30,11.0,0.0
4786,67.0,30,30,11.0,0.0
4787,70.0,30,30,11.0,0.0
4788,67.0,30,30,11.0,0.0
4789,63.0,26,30,11.0,0.0
4790,67.0,34,30,11.0,0.0
4791,70.0,30,30,11.0,0.0
4792,67.0,30,30,11.0,0.0
4793,63.0,30,30,11.0,0.0
4794,67.0,30,30,11.0,0.0
4795,70.0,30,30,11.0,0.0
4796,67.0,30,30,11.0,0.0
4797,63.0,30,30,11.0,0.0
4798,67.0,30,30,11.0,0.0
4799,63.0,0,40,2.0,0.0
4800,51.0,0,120,13.0,0.0
4801,56.0,30,120,13.0,0.0
4802,32.0,0,120,15.0,0.0
4803,44.0,0,120,14.0,0.0
4804,75.0,0,40,0.0,0.0
4805,51.0,15,40,3.0,0.0
4806,59.0,0,120,12.0,0.0
4807,71.0,15,30,11.0,0.0
4808,68.0,30,30,11.0,0.0
4809,63.0,22,30,11.0,0.0
4810,80.0,0,20,0.0,0.0
4811,56.0,4,20,3.0,0.0
4812,68.0,0,20,2.0,0.0
4813,68.0,4,30,11.0,0.0
4814,44.0,0,120,14.0,0.0
4815,71.0,30,30,11.0,0.0
4816,83.0,8,120,0.0,0.0
4817,32.0,0,120,15.0,0.0
4818,51.0,0,120,13.0,0.0
4819,56.0,0,120,13.0,0.0
4820,59.0,0,120,3.0,0.0
4821,71.0,0,120,2.0,0.0
4822,59.0,0,120,12.0,0.0
4823,68.0,30,30,11.0,0.0
4824,63.0,22,30,11.0,0.0
4825,68.0,30,30,11.0,0.0
4826,83.0,0,40,0.0,0.0
4827,44.0,0,120,14.0,0.0
4828,75.0,30,60,1.0,0.0
4829,59.0,0,120,12.0,0.0
4830,32.0,30,120,15.0,0.0
4831,51.0,0,120,13.0,0.0
4832,59.0,0,40,3.0,0.0
4833,71.0,15,30,11.0,0.0
4834,56.0,0,120,13.0,0.0
4835,71.0,15,40,2.0,0.0
4836,68.0,0,30,11.0,0.0
4837,63.0,22,30,11.0,0.0
4838,58.0,0,20,3.0,0.0
4839,82.0,0,20,0.0,0.0
4840,68.0,0,30,11.0,0.0
4841,70.0,8,20,2.0,0.0
4842,56.0,0,120,13.0,0.0
4843,71.0,15,30,11.0,0.0
4844,59.0,0,120,12.0,0.0
4845,44.0,0,120,14.0,0.0
4846,32.0,30,120,15.0,0.0
4847,68.0,0,40,2.0,0.0
4848,80.0,15,40,0.0,0.0
4849,51.0,0,120,13.0,0.0
4850,56.0,0,40,3.0,0.0
4851,68.0,30,30,11.0,0.0
4852,63.0,22,30,11.0,0.0
4853,68.0,4,30,11.0,0.0
4854,59.0,0,20,3.0,0.0
4855,71.0,0,20,2.0,0.0
4856,83.0,4,20,0.0,0.0
4857,51.0,0,120,14.0,0.0
4858,70.0,30,30,11.0,0.0
4859,79.0,8,240,0.0,0.0
4860,67.0,0,240,2.0,0.0
4861,51.0,0,120,13.0,0.0
4862,55.0,0,120,13.0,0.0
4863,58.0,30,120,12.0,0.0
4864,55.0,0,240,3.0,0.0
4865,39.0,0,120,15.0,0.0
4866,67.0,30,30,11.0,0.0
4867,63.0,30,30,11.0,0.0
4868,67.0,0,30,11.0,0.0
4869,51.0,0,120,14.0,0.0
4870,75.0,30,60,1.0,0.0
4871,70.0,30,30,11.0,0.0
4872,58.0,0,120,12.0,0.0
4873,39.0,0,120,15.0,0.0
4874,51.0,0,120,13.0,0.0
4875,55.0,30,120,13.0,0.0
4876,67.0,0,30,11.0,0.0
4877,63.0,22,30,11.0,0.0
4878,67.0,0,30,11.0,0.0
4879,51.0,0,120,14.0,0.0
4880,55.0,0,120,13.0,0.0
4881,51.0,30,120,13.0,0.0
4882,58.0,0,120,12.0,0.0
4883,68.0,0,40,2.0,0.0
4884,39.0,0,120,15.0,0.0
4885,56.0,0,40,3.0,0.0
4886,80.0,15,40,0.0,0.0
4887,70.0,15,30,11.0,0.0
4888,67.0,30,30,11.0,0.0
4889,63.0,22,30,11.0,0.0
4890,58.0,0,20,3.0,0.0
4891,67.0,4,30,11.0,0.0
4892,70.0,4,20,2.0,0.0
4893,82.0,0,20,0.0,0.0
4894,56.0,0,120,14.0,0.0
4895,83.0,0,120,0.0,0.0
4896,59.0,0,120,3.0,0.0
4897,71.0,8,120,2.0,0.0
4898,44.0,0,120,15.0,0.0
4899,51.0,0,120,13.0,0.0
4900,56.0,30,120,13.0,0.0
4901,59.0,0,120,12.0,0.0
4902,71.0,30,30,11.0,0.0
4903,68.0,30,30,11.0,0.0
4904,63.0,22,30,11.0,0.0
4905,68.0,0,30,11.0,0.0
4906,56.0,0,120,14.0,0.0
4907,83.0,0,40,0.0,0.0
4908,56.0,0,120,13.0,0.0
4909,75.0,30,60,1.0,0.0
4910,59.0,15,40,3.0,0.0
4911,51.0,0,120,13.0,0.0
4912,59.0,0,120,12.0,0.0
4913,71.0,0,40,2.0,0.0
4914,44.0,30,120,15.0,0.0
4915,71.0,15,30,11.0,0.0
4916,68.0,0,30,11.0,0.0
4917,63.0,22,30,11.0,0.0
4918,70.0,0,20,2.0,0.0
4919,68.0,0,30,11.0,0.0
4920,82.0,0,20,0.0,0.0
4921,58.0,8,20,3.0,0.0
4922,80.0,0,40,0.0,0.0
4923,68.0,0,40,2.0,0.0
4924,51.0,0,120,13.0,0.0
4925,56.0,0,120,13.0,0.0
4926,71.0,15,30,11.0,0.0
4927,59.0,0,120,12.0,0.0
4928,56.0,15,40,3.0,0.0
4929,56.0,0,120,14.0,0.0
4930,44.0,30,120,15.0,0.0
4931,68.0,30,30,11.0,0.0
4932,63.0,22,30,11.0,0.0
4933,72.0,4,30,11.0,0.0
4934,83.0,0,20,0.0,0.0
4935,59.0,0,20,3.0,0.0
4936,71.0,4,20,2.0,0.0
4937,61.0,8,240,3.0,0.0
4938,42.0,0,120,15.0,0.0
4939,61.0,0,120,12.0,0.0
4940,73.0,0,240,2.0,0.0
4941,54.0,0,120,14.0,0.0
4942,85.0,0,240,0.0,0.0
4943,73.0,30,30,11.0,0.0
4944,58.0,0,120,13.0,0.0
4945,54.0,30,120,13.0,0.0
4946,70.0,30,30,11.0,0.0
4947,66.0,30,30,11.0,0.0
4948,70.0,0,30,11.0,0.0
4949,61.0,0,120,12.0,0.0
4950,54.0,0,120,14.0,0.0
4951,42.0,0,120,15.0,0.0
4952,73.0,30,30,11.0,0.0
4953,54.0,0,120,13.0,0.0
4954,78.0,30,60,1.0,0.0
4955,58.0,0,120,13.0,0.0
4956,70.0,0,30,11.0,0.0
4957,66.0,22,30,11.0,0.0
4958,70.0,30,30,11.0,0.0
4959,61.0,30,120,12.0,0.0
4960,71.0,0,40,2.0,0.0
4961,54.0,0,120,14.0,0.0
4962,73.0,15,30,11.0,0.0
4963,42.0,0,120,15.0,0.0
4964,58.0,0,120,13.0,0.0
4965,54.0,0,120,13.0,0.0
4966,83.0,0,40,0.0,0.0
4967,59.0,15,40,3.0,0.0
4968,70.0,30,30,11.0,0.0
4969,66.0,22,30,11.0,0.0
4970,61.0,0,20,3.0,0.0
4971,73.0,4,20,2.0,0.0
4972,85.0,0,20,0.0,0.0
4973,70.0,4,30,11.0,0.0
4974,54.0,30,120,13.0,0.0
4975,47.0,0,120,15.0,0.0
4976,63.0,0,120,12.0,0.0
4977,63.0,8,120,3.0,0.0
4978,75.0,0,120,2.0,0.0
4979,59.0,0,120,13.0,0.0
4980,75.0,30,30,11.0,0.0
4981,59.0,0,120,14.0,0.0
4982,87.0,0,120,0.0,0.0
4983,71.0,30,30,11.0,0.0
4984,66.0,22,30,11.0,0.0
4985,71.0,0,30,11.0,0.0
4986,59.0,30,120,13.0,0.0
4987,54.0,0,120,13.0,0.0
4988,59.0,0,120,14.0,0.0
4989,75.0,15,30,11.0,0.0
4990,63.0,0,120,12.0,0.0
4991,47.0,0,120,15.0,0.0
4992,78.0,30,60,1.0,0.0
4993,63.0,0,40,3.0,0.0
4994,75.0,15,40,2.0,0.0
4995,87.0,0,40,0.0,0.0
4996,71.0,0,30,11.0,0.0
4997,66.0,22,30,11.0,0.0
4998,71.0,0,30,11.0,0.0
4999,73.0,0,20,2.0,0.0
5000,61.0,8,20,3.0,0.0
5001,85.0,0,20,0.0,0.0
5002,59.0,15,40,3.0,0.0
5003,71.0,0,40,2.0,0.0
5004,75.0,15,30,11.0,0.0
5005,54.0,0,120,13.0,0.0
5006,63.0,0,120,12.0,0.0
5007,47.0,30,120,15.0,0.0
5008,59.0,0,120,13.0,0.0
5009,59.0,0,120,14.0,0.0
5010,83.0,0,40,0.0,0.0
5011,71.0,30,30,11.0,0.0
5012,66.0,22,30,11.0,0.0
5013,75.0,4,30,11.0,0.0
5014,87.0,0,20,0.0,0.0
5015,63.0,4,20,3.0,0.0
5016,75.0,0,20,2.0,0.0
5017,61.0,8,240,3.0,0.0
5018,73.0,0,240,2.0,0.0
5019,54.0,0,120,14.0,0.0
5020,73.0,30,30,11.0,0.0
5021,42.0,0,120,15.0,0.0
5022,58.0,0,120,13.0,0.0
5023,54.0,0,120,13.0,0.0
5024,85.0,0,240,0.0,0.0
5025,61.0,30,120,12.0,0.0
5026,70.0,30,30,11.0,0.0
5027,66.0,30,30,11.0,0.0
5028,70.0,0,30,11.0,0.0
5029,42.0,30,120,15.0,0.0
5030,54.0,0,120,14.0,0.0
5031,78.0,0,60,1.0,0.0
5032,54.0,0,120,13.0,0.0
5033,73.0,30,30,11.0,0.0
5034,58.0,0,120,13.0,0.0
5035,61.0,0,120,12.0,0.0
5036,70.0,30,30,11.0,0.0
5037,66.0,22,30,11.0,0.0
5038,70.0,0,30,11.0,0.0
5039,73.0,15,30,11.0,0.0
5040,54.0,0,120,14.0,0.0
5041,58.0,0,120,13.0,0.0
5042,54.0,0,120,13.0,0.0
5043,42.0,30,120,15.0,0.0
5044,61.0,0,120,12.0,0.0
5045,63.0,0,40,3.0,0.0
5046,87.0,0,40,0.0,0.0
5047,75.0,15,40,2.0,0.0
5048,70.0,30,30,11.0,0.0
5049,66.0,22,30,11.0,0.0
5050,73.0,0,20,2.0,0.0
5051,73.0,4,30,11.0,0.0
5052,85.0,0,20,0.0,0.0
5053,61.0,4,20,3.0,0.0
5054,59.0,0,120,12.0,0.0
5055,71.0,8,120,2.0,0.0
5056,83.0,0,120,0.0,0.0
5057,56.0,0,120,14.0,0.0
5058,44.0,0,120,15.0,0.0
5059,56.0,0,120,13.0,0.0
5060,71.0,30,30,11.0,0.0
5061,51.0,0,120,13.0,0.0
5062,59.0,0,120,3.0,0.0
5063,68.0,30,30,11.0,0.0
5064,63.0,22,30,11.0,0.0
5065,68.0,30,30,11.0,0.0
5066,56.0,0,120,13.0,0.0
5067,59.0,15,40,3.0,0.0
5068,71.0,15,30,11.0,0.0
5069,44.0,30,120,15.0,0.0
5070,83.0,0,40,0.0,0.0
5071,51.0,0,120,13.0,0.0
5072,59.0,0,120,12.0,0.0
5073,71.0,0,40,2.0,0.0
5074,56.0,0,120,14.0,0.0
5075,75.0,30,60,1.0,0.0
5076,68.0,0,30,11.0,0.0
5077,63.0,22,30,11.0,0.0
5078,70.0,8,20,2.0,0.0
5079,58.0,0,20,3.0,0.0
5080,68.0,0,30,11.0,0.0
5081,82.0,0,20,0.0,0.0
5082,56.0,30,120,14.0,0.0
5083,51.0,0,120,13.0,0.0
5084,56.0,0,120,13.0,0.0
5085,44.0,0,120,15.0,0.0
5086,68.0,0,40,2.0,0.0
5087,71.0,15,30,11.0,0.0
5088,56.0,15,40,3.0,0.0
5089,80.0,0,40,0.0,0.0
5090,59.0,0,120,12.0,0.0
5091,68.0,30,30,11.0,0.0
5092,63.0,22,30,11.0,0.0
5093,72.0,4,30,11.0,0.0
5094,59.0,0,20,3.0,0.0
5095,83.0,0,20,0.0,0.0
5096,71.0,4,20,2.0,0.0
5097,55.0,0,120,13.0,0.0
5098,70.0,0,180,2.0,0.0
5099,51.0,0,120,13.0,0.0
5100,39.0,0,120,15.0,0.0
5101,51.0,30,120,14.0,0.0
5102,58.0,0,180,3.0,0.0
5103,82.0,0,180,0.0,0.0
5104,70.0,30,30,11.0,0.0
5105,58.0,0,120,12.0,0.0
5106,51.0,4,300,3.0,0.0
5107,67.0,30,30,11.0,0.0
5108,63.0,30,30,11.0,0.0
5109,67.0,0,30,11.0,0.0
5110,70.0,30,30,11.0,0.0
5111,51.0,0,60,13.0,0.0
5112,55.0,0,60,13.0,0.0
5113,75.0,0,60,1.0,0.0
5114,58.0,0,60,12.0,0.0
5115,39.0,0,60,15.0,0.0
5116,51.0,0,60,14.0,0.0
5117,63.0,30,30,11.0,0.0
5118,51.0,0,60,13.0,0.0
5119,71.0,30,30,11.0,0.0
5120,83.0,0,60,0.0,0.0
5121,32.0,30,60,15.0,0.0
5122,59.0,0,60,3.0,0.0
5123,56.0,0,60,13.0,0.0
5124,59.0,0,60,12.0,0.0
5125,71.0,0,60,2.0,0.0
5126,44.0,0,60,14.0,0.0
5127,63.0,0,30,11.0,0.0
5128,44.0,0,60,15.0,0.0
5129,56.0,0,60,13.0,0.0
5130,59.0,0,60,12.0,0.0
5131,56.0,0,60,14.0,0.0
5132,51.0,0,60,13.0,0.0
5133,68.0,26,30,11.0,0.0
5134,56.0,0,60,3.0,0.0
5135,68.0,0,60,2.0,0.0
5136,80.0,30,60,0.0,0.0
5137,63.0,0,30,11.0,0.0
5138,59.0,30,60,12.0,0.0
5139,51.0,0,60,13.0,0.0
5140,56.0,0,60,13.0,0.0
5141,56.0,0,60,14.0,0.0
5142,68.0,0,60,2.0,0.0
5143,83.0,0,60,0.0,0.0
5144,59.0,0,60,3.0,0.0
5145,56.0,0,60,3.0,0.0
5146,44.0,0,60,15.0,0.0
5147,71.0,0,60,2.0,0.0
5148,80.0,0,60,0.0,0.0
5149,71.0,26,30,11.0,0.0
5150,63.0,4,30,11.0,0.0
5151,82.0,0,180,0.0,0.0
5152,79.0,0,180,0.0,0.0
5153,39.0,0,120,15.0,0.0
5154,58.0,0,180,3.0,0.0
5155,55.0,0,180,3.0,0.0
5156,51.0,0,120,13.0,0.0
5157,55.0,0,120,13.0,0.0
5158,70.0,30,30,11.0,0.0
5159,70.0,0,180,2.0,0.0
5160,67.0,0,180,2.0,0.0
5161,51.0,30,120,14.0,0.0
5162,58.0,0,120,12.0,0.0
5163,67.0,30,30,11.0,0.0
5164,63.0,30,30,11.0,0.0
5165,67.0,0,30,11.0,0.0
5166,58.0,0,60,12.0,0.0
5167,39.0,30,60,15.0,0.0
5168,75.0,0,120,1.0,0.0
5169,55.0,0,60,13.0,0.0
5170,51.0,0,60,13.0,0.0
5171,70.0,30,30,11.0,0.0
5172,51.0,0,60,14.0,0.0
5173,63.0,0,30,11.0,0.0
5174,39.0,30,60,15.0,0.0
5175,71.0,0,60,2.0,0.0
5176,80.0,0,60,0.0,0.0
5177,56.0,0,60,13.0,0.0
5178,51.0,0,60,13.0,0.0
5179,59.0,0,60,3.0,0.0
5180,56.0,0,60,3.0,0.0
5181,51.0,0,60,14.0,0.0
5182,59.0,0,60,12.0,0.0
5183,68.0,0,60,2.0,0.0
5184,83.0,0,60,0.0,0.0
5185,71.0,30,30,11.0,0.0
5186,63.0,0,30,11.0,0.0
5187,68.0,30,30,11.0,0.0
5188,63.0,0,60,2.0,0.0
5189,59.0,0,60,12.0,0.0
5190,51.0,0,60,3.0,0.0
5191,56.0,30,60,14.0,0.0
5192,68.0,0,60,2.0,0.0
5193,51.0,0,60,13.0,0.0
5194,56.0,0,60,13.0,0.0
5195,56.0,0,60,3.0,0.0
5196,80.0,0,60,0.0,0.0
5197,75.0,0,60,0.0,0.0
5198,44.0,0,60,15.0,0.0
5199,63.0,0,30,11.0,0.0
5200,83.0,0,60,0.0,0.0
5201,71.0,26,30,11.0,0.0
5202,59.0,0,60,12.0,0.0
5203,32.0,0,60,15.0,0.0
5204,56.0,0,60,3.0,0.0
5205,56.0,0,60,13.0,0.0
5206,51.0,0,60,13.0,0.0
5207,80.0,4,60,0.0,0.0
5208,59.0,0,60,3.0,0.0
5209,68.0,0,60,2.0,0.0
5210,75.0,0,60,1.0,0.0
5211,71.0,0,60,2.0,0.0
5212,44.0,45,60,14.0,0.0
5213,63.0,0,30,11.0,0.0
5214,55.0,0,40,13.0,0.0
5215,51.0,0,40,13.0,0.0
5216,51.0,0,40,14.0,0.0
5217,58.0,0,40,3.0,0.0
5218,55.0,0,40,3.0,0.0
5219,70.0,0,40,11.0,0.0
5220,39.0,0,40,15.0,0.0
5221,58.0,0,40,12.0,0.0
5222,70.0,0,40,2.0,0.0
5223,75.0,49,60,1.0,0.0
5224,67.0,11,40,2.0,0.0
5225,82.0,0,60,0.0,0.0
5226,79.0,0,60,0.0,0.0
5227,67.0,0,40,2.0,0.0
5228,63.0,0,40,3.0,0.0
5229,63.0,15,40,12.0,0.0
5230,55.0,0,40,12.0,0.0
5231,55.0,0,40,3.0,0.0
5232,55.0,0,40,13.0,0.0
5233,51.0,0,40,13.0,0.0
5234,39.0,0,40,15.0,0.0
5235,75.0,60,120,1.0,0.0
5236,75.0,56,60,0.0,0.0
5237,75.0,0,40,11.0,0.0
5238,63.0,0,40,11.0,0.0
5239,51.0,0,40,14.0,0.0
5240,75.0,0,40,2.0,0.0
5241,75.0,4,60,0.0,0.0
5242,74.0,60,60,0.0,0.0
5243,75.0,60,60,0.0,0.0
5244,76.0,60,60,0.0,0.0
5245,77.0,60,60,0.0,0.0
5246,78.0,60,60,0.0,0.0
5247,79.0,60,60,0.0,0.0
5248,80.0,60,60,0.0,0.0
5249,69.0,60,60,2.0,0.0
5250,81.0,0,60,0.0,0.0
5251,82.0,0,60,0.0,0.0
5252,70.0,60,60,2.0,0.0
5253,72.0,0,60,2.0,0.0
5254,84.0,60,60,0.0,0.0
5255,85.0,0,60,0.0,0.0
5256,73.0,60,60,2.0,0.0
5257,87.0,0,60,0.0,0.0
5258,75.0,56,60,2.0,0.0
5259,89.0,0,60,0.0,0.0
5260,77.0,64,60,2.0,0.0
5261,69.0,0,60,2.0,0.0
5262,81.0,60,60,0.0,0.0
5263,70.0,0,60,2.0,0.0
5264,82.0,60,60,0.0,0.0
5265,84.0,0,60,0.0,0.0
5266,72.0,60,60,2.0,0.0
5267,73.0,0,60,2.0,0.0
5268,85.0,60,60,0.0,0.0
5269,60.0,60,60,12.0,0.0
5270,72.0,0,60,11.0,0.0
5271,73.0,0,60,11.0,0.0
5272,61.0,60,60,12.0,0.0
5273,75.0,56,60,11.0,0.0
5274,63.0,0,60,12.0,0.0
5275,77.0,64,60,11.0,0.0
5276,65.0,0,60,12.0,0.0
5277,69.0,0,60,11.0,0.0
5278,57.0,60,60,12.0,0.0
5279,70.0,0,60,11.0,0.0
5280,58.0,60,60,12.0,0.0
5281,72.0,60,60,11.0,0.0
5282,60.0,0,60,12.0,0.0
5283,61.0,60,60,12.0,0.0
5284,73.0,0,60,11.0,0.0
5285,57.0,60,60,14.0,0.0
5286,45.0,0,60,15.0,0.0
5287,58.0,60,60,14.0,0.0
5288,46.0,0,60,15.0,0.0
5289,60.0,0,60,14.0,0.0
5290,48.0,60,60,15.0,0.0
5291,61.0,60,60,14.0,0.0
5292,49.0,0,60,15.0,0.0
5293,51.0,0,60,15.0,0.0
5294,63.0,60,60,14.0,0.0
5295,65.0,0,60,14.0,0.0
5296,53.0,60,60,15.0,0.0
5297,63.0,0,60,14.0,0.0
5298,51.0,0,60,15.0,0.0
5299,51.0,30,30,13.0,0.0
5300,49.0,0,60,15.0,0.0
5301,61.0,30,60,14.0,0.0
5302,53.0,30,30,13.0,0.0
5303,55.0,0,30,13.0,0.0
5304,48.0,0,60,15.0,0.0
5305,60.0,30,60,14.0,0.0
5306,56.0,30,30,13.0,0.0
5307,58.0,0,30,13.0,0.0
5308,58.0,0,60,14.0,0.0
5309,60.0,30,30,13.0,0.0
5310,46.0,0,60,15.0,0.0
5311,61.0,60,30,13.0,0.0
5312,56.0,0,60,14.0,0.0
5313,63.0,0,180,13.0,0.0
5314,44.0,60,60,15.0,0.0
5315,55.0,0,60,14.0,0.0
5316,43.0,60,60,15.0,0.0
5317,41.0,30,60,15.0,0.0
5318,53.0,0,60,14.0,0.0
5319,63.0,0,30,12.0,0.0
5320,51.0,0,60,14.0,0.0
5321,65.0,30,30,12.0,0.0
5322,39.0,0,60,15.0,0.0
5323,67.0,30,30,12.0,0.0
5324,49.0,0,60,14.0,0.0
5325,37.0,30,60,15.0,0.0
5326,68.0,30,30,12.0,0.0
5327,70.0,0,30,12.0,0.0
5328,48.0,0,60,14.0,0.0
5329,36.0,60,60,15.0,0.0
5330,72.0,30,30,12.0,0.0
5331,73.0,0,30,12.0,0.0
5332,46.0,0,60,14.0,0.0
5333,34.0,60,60,15.0,0.0
5334,75.0,30,180,12.0,0.0
5335,32.0,0,60,15.0,0.0
5336,44.0,60,60,14.0,0.0
5337,31.0,0,60,15.0,0.0
5338,43.0,0,60,14.0,0.0
5339,75.0,0,30,11.0,0.0
5340,51.0,4,60,13.0,0.0
5341,77.0,26,30,11.0,0.0
5342,29.0,0,60,15.0,0.0
5343,41.0,0,60,14.0,0.0
5344,63.0,0,60,13.0,0.0
5345,79.0,30,30,11.0,0.0
5346,39.0,0,60,14.0,0.0
5347,51.0,4,60,13.0,0.0
5348,63.0,0,60,13.0,0.0
5349,80.0,26,30,11.0,0.0
5350,27.0,0,60,15.0,0.0
5351,82.0,30,30,11.0,0.0
5352,75.0,4,120,12.0,0.0
5353,51.0,0,60,13.0,0.0
5354,63.0,0,60,13.0,0.0
5355,37.0,0,60,15.0,0.0
5356,49.0,30,60,14.0,0.0
5357,84.0,26,30,11.0,0.0
5358,85.0,4,30,11.0,0.0
5359,87.0,0,180,11.0,0.0
5360,48.0,0,60,14.0,0.0
5361,70.0,0,30,0.0,0.0
5362,46.0,0,30,3.0,0.0
5363,51.0,0,60,13.0,0.0
5364,63.0,4,60,13.0,0.0
5365,58.0,22,30,2.0,0.0
5366,36.0,0,60,15.0,0.0
5367,72.0,0,30,0.0,0.0
5368,60.0,0,30,2.0,0.0
5369,48.0,30,30,3.0,0.0
5370,73.0,0,30,0.0,0.0
5371,51.0,0,60,13.0,0.0
5372,49.0,26,30,3.0,0.0
5373,75.0,0,120,12.0,0.0
5374,46.0,0,60,14.0,0.0
5375,75.0,0,60,1.0,0.0
5376,63.0,0,60,1.0,0.0
5377,34.0,0,60,15.0,0.0
5378,61.0,0,30,2.0,0.0
5379,63.0,4,60,13.0,0.0
5380,63.0,0,30,2.0,0.0
5381,75.0,0,30,0.0,0.0
5382,51.0,30,30,3.0,0.0
5383,53.0,26,30,3.0,0.0
5384,65.0,0,30,2.0,0.0
5385,51.0,0,60,13.0,0.0
5386,63.0,0,60,13.0,0.0
5387,75.0,4,60,1.0,0.0
5388,63.0,0,60,1.0,0.0
5389,77.0,0,30,0.0,0.0
5390,44.0,0,60,14.0,0.0
5391,32.0,0,60,15.0,0.0
5392,55.0,0,30,3.0,0.0
5393,67.0,30,30,2.0,0.0
5394,79.0,0,30,0.0,0.0
5395,73.0,0,60,12.0,0.0
5396,63.0,0,60,13.0,0.0
5397,51.0,0,60,13.0,0.0
5398,56.0,26,30,3.0,0.0
5399,31.0,0,60,15.0,0.0
5400,43.0,0,60,14.0,0.0
5401,85.0,0,60,11.0,0.0
5402,68.0,0,30,2.0,0.0
5403,80.0,0,30,0.0,0.0
5404,75.0,0,60,1.0,0.0
5405,63.0,30,60,1.0,0.0
5406,70.0,0,30,2.0,0.0
5407,82.0,0,30,0.0,0.0
5408,58.0,0,30,3.0,0.0
5409,63.0,4,360,1.0,0.0
5410,32.0,0,30,15.0,0.0
5411,84.0,0,450,0.0,0.0
5412,48.0,26,120,6.0,0.0
5413,63.0,0,30,13.0,0.0
5414,84.0,4,120,11.0,0.0
5415,75.0,0,360,1.0,0.0
5416,72.0,26,450,2.0,0.0
5417,60.0,0,30,13.0,0.0
5418,51.0,0,30,13.0,0.0
5419,44.0,30,30,14.0,0.0
5420,60.0,0,450,3.0,0.0
5421,48.0,0,360,4.0,0.0
5422,63.0,0,120,12.0,0.0
5423,72.0,0,120,12.0,0.0
5424,60.0,0,360,5.0,0.0
5425,72.0,26,360,5.0,0.0
5426,60.0,0,360,4.0,0.0
5427,63.0,0,30,13.0,0.0
5428,60.0,30,30,13.0,0.0
5429,32.0,0,30,15.0,0.0
5430,44.0,0,30,14.0,0.0
5431,51.0,0,30,13.0,0.0
5432,63.0,0,30,13.0,0.0
5433,32.0,26,30,15.0,0.0
5434,51.0,0,30,13.0,0.0
5435,60.0,0,30,13.0,0.0
5436,44.0,0,30,14.0,0.0
5437,32.0,0,30,15.0,0.0
5438,63.0,0,30,13.0,0.0
5439,60.0,0,30,13.0,0.0
5440,44.0,0,30,14.0,0.0
5441,51.0,4,30,13.0,0.0
5442,84.0,26,90,11.0,0.0
5443,72.0,0,90,12.0,0.0
5444,60.0,0,30,13.0,0.0
5445,44.0,0,30,14.0,0.0
5446,32.0,30,30,15.0,0.0
5447,63.0,0,30,13.0,0.0
5448,51.0,0,30,13.0,0.0
5449,60.0,0,30,13.0,0.0
5450,32.0,0,30,15.0,0.0
5451,63.0,0,30,13.0,0.0
5452,44.0,30,30,14.0,0.0
5453,51.0,0,30,13.0,0.0
5454,60.0,0,30,13.0,0.0
5455,51.0,0,30,13.0,0.0
5456,63.0,0,30,13.0,0.0
5457,32.0,4,30,15.0,0.0
5458,44.0,0,30,14.0,0.0
5459,44.0,0,30,14.0,0.0
5460,63.0,0,30,13.0,0.0
5461,51.0,0,30,13.0,0.0
5462,70.0,0,30,12.0,0.0
5463,60.0,4,30,13.0,0.0
5464,82.0,26,30,11.0,0.0
5465,32.0,0,30,15.0,0.0
5466,68.0,22,90,12.0,0.0
5467,32.0,0,30,15.0,0.0
5468,80.0,0,90,11.0,0.0
5469,44.0,0,30,14.0,0.0
5470,63.0,0,30,13.0,0.0
5471,60.0,0,30,13.0,0.0
5472,51.0,30,30,13.0,0.0
5473,63.0,0,30,13.0,0.0
5474,60.0,0,30,13.0,0.0
5475,44.0,30,30,14.0,0.0
5476,32.0,0,30,15.0,0.0
5477,51.0,0,30,13.0,0.0
5478,32.0,4,30,15.0,0.0
5479,44.0,0,30,14.0,0.0
5480,60.0,0,30,13.0,0.0
5481,63.0,0,30,13.0,0.0
5482,51.0,0,30,13.0,0.0
5483,32.0,0,30,15.0,0.0
5484,44.0,4,30,14.0,0.0
5485,72.0,0,30,12.0,0.0
5486,84.0,0,30,11.0,0.0
5487,51.0,0,30,13.0,0.0
5488,60.0,0,30,13.0,0.0
5489,63.0,0,30,13.0,0.0
5490,77.0,0,210,11.0,0.0
5491,65.0,0,210,12.0,0.0
5492,65.0,4,360,4.0,0.0
5493,37.0,30,30,15.0,0.0
5494,49.0,0,30,14.0,0.0
5495,77.0,0,360,1.0,0.0
5496,65.0,0,360,1.0,0.0
5497,65.0,0,30,13.0,0.0
5498,53.0,0,30,13.0,0.0
5499,53.0,0,30,13.0,0.0
5500,49.0,30,30,14.0,0.0
5501,37.0,0,30,15.0,0.0
5502,65.0,0,30,13.0,0.0
5503,53.0,0,30,13.0,0.0
5504,49.0,0,30,14.0,0.0
5505,37.0,0,30,15.0,0.0
5506,65.0,4,30,13.0,0.0
5507,58.0,0,30,3.0,0.0
5508,82.0,26,30,0.0,0.0
5509,53.0,0,30,13.0,0.0
5510,49.0,0,30,14.0,0.0
5511,70.0,0,30,2.0,0.0
5512,37.0,4,30,15.0,0.0
5513,65.0,0,30,13.0,0.0
5514,37.0,0,30,15.0,0.0
5515,49.0,30,30,14.0,0.0
5516,56.0,26,90,3.0,0.0
5517,65.0,0,30,13.0,0.0
5518,53.0,0,30,13.0,0.0
5519,80.0,0,90,0.0,0.0
5520,68.0,0,90,2.0,0.0
5521,37.0,0,30,15.0,0.0
5522,53.0,0,30,13.0,0.0
5523,65.0,30,30,13.0,0.0
5524,49.0,0,30,14.0,0.0
5525,53.0,0,30,13.0,0.0
5526,37.0,0,30,15.0,0.0
5527,49.0,0,30,14.0,0.0
5528,65.0,4,30,13.0,0.0
5529,81.0,26,30,11.0,0.0
5530,84.0,0,30,0.0,0.0
5531,37.0,0,30,15.0,0.0
5532,72.0,0,30,2.0,0.0
5533,49.0,4,30,14.0,0.0
5534,65.0,0,30,13.0,0.0
5535,53.0,0,30,13.0,0.0
5536,69.0,0,30,12.0,0.0
5537,60.0,0,30,3.0,0.0
5538,65.0,0,30,13.0,0.0
5539,70.0,0,90,12.0,0.0
5540,82.0,22,90,11.0,0.0
5541,49.0,0,30,14.0,0.0
5542,65.0,0,240,2.0,0.0
5543,53.0,0,30,13.0,0.0
5544,77.0,0,240,0.0,0.0
5545,53.0,0,240,3.0,0.0
5546,37.0,30,30,15.0,0.0
5547,53.0,30,30,13.0,0.0
5548,65.0,0,30,13.0,0.0
5549,49.0,0,30,14.0,0.0
5550,37.0,0,30,15.0,0.0
5551,65.0,0,30,13.0,0.0
5552,37.0,4,30,15.0,0.0
5553,49.0,0,30,14.0,0.0
5554,53.0,0,30,13.0,0.0
5555,49.0,0,30,14.0,0.0
5556,65.0,30,30,13.0,0.0
5557,72.0,0,30,12.0,0.0
5558,53.0,0,30,13.0,0.0
5559,37.0,0,30,15.0,0.0
5560,84.0,0,30,11.0,0.0
5561,67.0,0,360,4.0,0.0
5562,58.0,0,30,13.0,0.0
5563,77.0,0,360,1.0,0.0
5564,65.0,4,360,4.0,0.0
5565,79.0,0,360,1.0,0.0
5566,61.0,30,30,13.0,0.0
5567,46.0,0,30,14.0,0.0
5568,85.0,0,90,11.0,0.0
5569,43.0,0,120,6.0,0.0
5570,55.0,4,120,5.0,0.0
5571,67.0,0,120,5.0,0.0
5572,73.0,22,90,12.0,0.0
5573,34.0,0,30,15.0,0.0
5574,34.0,30,30,15.0,0.0
5575,46.0,0,30,14.0,0.0
5576,61.0,0,30,13.0,0.0
5577,58.0,0,30,13.0,0.0
5578,46.0,0,30,14.0,0.0
5579,34.0,0,30,15.0,0.0
5580,61.0,0,30,13.0,0.0
5581,58.0,4,30,13.0,0.0
5582,84.0,26,30,11.0,0.0
5583,34.0,4,30,15.0,0.0
5584,58.0,0,30,13.0,0.0
5585,46.0,0,30,14.0,0.0
5586,61.0,0,30,13.0,0.0
5587,72.0,0,30,12.0,0.0
5588,70.0,0,90,12.0,0.0
5589,73.0,0,90,2.0,0.0
5590,85.0,0,90,0.0,0.0
5591,43.0,0,30,14.0,0.0
5592,61.0,30,30,13.0,0.0
5593,49.0,0,30,13.0,0.0
5594,61.0,22,90,3.0,0.0
5595,31.0,0,30,15.0,0.0
5596,43.0,0,120,6.0,0.0
5597,82.0,0,90,11.0,0.0
5598,55.0,4,120,5.0,0.0
5599,67.0,0,120,5.0,0.0
5600,43.0,30,30,14.0,0.0
5601,61.0,0,30,13.0,0.0
5602,31.0,0,30,15.0,0.0
5603,49.0,0,30,13.0,0.0
5604,43.0,0,30,14.0,0.0
5605,61.0,0,30,13.0,0.0
5606,49.0,4,30,13.0,0.0
5607,31.0,0,30,15.0,0.0
5608,49.0,4,30,13.0,0.0
5609,61.0,0,30,13.0,0.0
5610,31.0,0,30,15.0,0.0
5611,85.0,0,30,11.0,0.0
5612,73.0,0,30,12.0,0.0
5613,72.0,26,30,2.0,0.0
5614,60.0,0,30,3.0,0.0
5615,43.0,0,30,14.0,0.0
5616,84.0,0,30,0.0,0.0
5617,82.0,0,90,0.0,0.0
5618,34.0,0,30,15.0,0.0
5619,67.0,0,120,5.0,0.0
5620,67.0,22,90,12.0,0.0
5621,61.0,0,30,13.0,0.0
5622,58.0,0,90,3.0,0.0
5623,70.0,0,90,2.0,0.0
5624,46.0,30,30,14.0,0.0
5625,49.0,0,30,13.0,0.0
5626,55.0,0,120,5.0,0.0
5627,43.0,26,120,6.0,0.0
5628,79.0,0,90,11.0,0.0
5629,49.0,0,30,13.0,0.0
5630,46.0,30,30,14.0,0.0
5631,34.0,0,30,15.0,0.0
5632,61.0,0,30,13.0,0.0
5633,49.0,0,30,13.0,0.0
5634,46.0,0,30,14.0,0.0
5635,34.0,0,30,15.0,0.0
5636,61.0,4,30,13.0,0.0
5637,49.0,0,30,13.0,0.0
5638,61.0,0,30,13.0,0.0
5639,61.0,0,30,3.0,0.0
5640,70.0,4,30,12.0,0.0
5641,46.0,0,30,14.0,0.0
5642,73.0,0,30,2.0,0.0
5643,34.0,0,30,15.0,0.0
5644,82.0,0,30,11.0,0.0
5645,85.0,0,30,0.0,0.0
5646,48.0,0,120,6.0,0.0
5647,79.0,0,360,1.0,0.0
5648,76.0,4,240,1.0,0.0
5649,55.0,0,90,3.0,0.0
5650,60.0,0,30,13.0,0.0
5651,36.0,30,30,15.0,0.0
5652,64.0,0,90,12.0,0.0
5653,79.0,22,90,0.0,0.0
5654,67.0,0,90,2.0,0.0
5655,60.0,4,120,5.0,0.0
5656,72.0,0,120,5.0,0.0
5657,60.0,0,360,4.0,0.0
5658,67.0,4,360,4.0,0.0
5659,48.0,0,30,14.0,0.0
5660,48.0,0,30,13.0,0.0
5661,76.0,0,90,11.0,0.0
5662,52.0,30,30,13.0,0.0
5663,48.0,0,30,14.0,0.0
5664,55.0,0,30,13.0,0.0
5665,36.0,0,30,15.0,0.0
5666,36.0,0,30,15.0,0.0
5667,55.0,0,30,13.0,0.0
5668,52.0,4,30,13.0,0.0
5669,48.0,0,30,14.0,0.0
5670,70.0,0,30,2.0,0.0
5671,48.0,0,30,14.0,0.0
5672,58.0,26,30,3.0,0.0
5673,52.0,0,30,13.0,0.0
5674,67.0,0,30,12.0,0.0
5675,55.0,0,30,13.0,0.0
5676,79.0,4,30,11.0,0.0
5677,82.0,0,30,0.0,0.0
5678,36.0,0,30,15.0,0.0
5679,72.0,0,210,12.0,0.0
5680,72.0,0,120,5.0,0.0
5681,60.0,0,120,5.0,0.0
5682,52.0,0,30,13.0,0.0
5683,55.0,0,30,13.0,0.0
5684,84.0,0,210,11.0,0.0
5685,36.0,0,30,15.0,0.0
5686,76.0,0,90,0.0,0.0
5687,52.0,22,90,3.0,0.0
5688,64.0,0,90,2.0,0.0
5689,48.0,26,120,6.0,0.0
5690,48.0,30,30,14.0,0.0
5691,52.0,30,30,13.0,0.0
5692,48.0,0,30,14.0,0.0
5693,55.0,0,30,13.0,0.0
5694,36.0,0,30,15.0,0.0
5695,55.0,4,30,13.0,0.0
5696,36.0,0,30,15.0,0.0
5697,48.0,0,30,14.0,0.0
5698,52.0,0,30,13.0,0.0
5699,55.0,0,30,13.0,0.0
5700,52.0,4,30,13.0,0.0
5701,79.0,0,30,0.0,0.0
5702,55.0,0,30,3.0,0.0
5703,36.0,0,30,15.0,0.0
5704,48.0,0,30,14.0,0.0
5705,67.0,0,30,2.0,0.0
5706,36.0,0,30,15.0,0.0
5707,55.0,0,30,13.0,0.0
5708,72.0,0,240,2.0,0.0
5709,60.0,0,120,5.0,0.0
5710,72.0,26,120,5.0,0.0
5711,84.0,0,240,0.0,0.0
5712,48.0,0,120,6.0,0.0
5713,48.0,30,30,14.0,0.0
5714,60.0,4,240,3.0,0.0
5715,72.0,0,240,1.0,0.0
5716,52.0,0,30,13.0,0.0
5717,48.0,30,30,14.0,0.0
5718,60.0,0,30,13.0,0.0
5719,55.0,0,30,13.0,0.0
5720,36.0,0,30,15.0,0.0
5721,55.0,26,30,13.0,0.0
5722,60.0,0,30,13.0,0.0
5723,48.0,0,30,14.0,0.0
5724,36.0,0,30,15.0,0.0
5725,70.0,0,30,12.0,0.0
5726,36.0,0,30,15.0,0.0
5727,82.0,0,30,11.0,0.0
5728,60.0,4,30,13.0,0.0
5729,48.0,0,30,14.0,0.0
5730,55.0,0,30,13.0,0.0
5731,65.0,0,360,4.0,0.0
5732,81.0,22,90,11.0,0.0
5733,60.0,0,30,13.0,0.0
5734,39.0,0,30,15.0,0.0
5735,57.0,0,30,13.0,0.0
5736,69.0,0,90,12.0,0.0
5737,77.0,0,360,1.0,0.0
5738,51.0,30,30,14.0,0.0
5739,51.0,30,30,14.0,0.0
5740,57.0,0,30,13.0,0.0
5741,39.0,0,30,15.0,0.0
5742,53.0,0,30,13.0,0.0
5743,51.0,4,30,14.0,0.0
5744,39.0,0,30,15.0,0.0
5745,53.0,0,30,13.0,0.0
5746,57.0,0,30,13.0,0.0
5747,77.0,0,30,11.0,0.0
5748,57.0,0,30,13.0,0.0
5749,65.0,0,30,12.0,0.0
5750,53.0,0,30,13.0,0.0
5751,39.0,30,30,15.0,0.0
5752,51.0,0,30,14.0,0.0
5753,65.0,0,30,13.0,0.0
5754,49.0,0,30,14.0,0.0
5755,73.0,0,90,2.0,0.0
5756,85.0,0,90,0.0,0.0
5757,82.0,0,180,11.0,0.0
5758,70.0,26,180,12.0,0.0
5759,37.0,30,30,15.0,0.0
5760,77.0,4,120,5.0,0.0
5761,73.0,0,240,1.0,0.0
5762,53.0,0,30,13.0,0.0
5763,61.0,22,90,3.0,0.0
5764,65.0,0,30,13.0,0.0
5765,37.0,0,30,15.0,0.0
5766,49.0,0,30,14.0,0.0
5767,53.0,30,30,13.0,0.0
5768,37.0,0,30,15.0,0.0
5769,65.0,0,30,13.0,0.0
5770,53.0,4,30,13.0,0.0
5771,49.0,0,30,14.0,0.0
5772,65.0,0,30,13.0,0.0
5773,53.0,0,30,13.0,0.0
5774,49.0,0,30,14.0,0.0
5775,82.0,30,30,0.0,0.0
5776,37.0,0,30,15.0,0.0
5777,58.0,0,30,3.0,0.0
5778,70.0,0,30,2.0,0.0
5779,77.0,0,120,2.0,0.0
5780,34.0,0,30,15.0,0.0
5781,49.0,30,30,13.0,0.0
5782,77.0,0,120,5.0,0.0
5783,89.0,0,120,0.0,0.0
5784,61.0,0,30,13.0,0.0
5785,46.0,0,30,14.0,0.0
5786,65.0,4,120,3.0,0.0
5787,61.0,0,30,13.0,0.0
5788,49.0,4,30,13.0,0.0
5789,34.0,0,30,15.0,0.0
5790,46.0,0,30,14.0,0.0
5791,34.0,0,30,15.0,0.0
5792,73.0,0,60,12.0,0.0
5793,46.0,0,30,14.0,0.0
5794,49.0,26,30,13.0,0.0
5795,61.0,0,30,13.0,0.0
5796,85.0,0,60,11.0,0.0
5797,49.0,30,30,13.0,0.0
5798,61.0,0,30,13.0,0.0
5799,46.0,0,30,14.0,0.0
5800,34.0,0,30,15.0,0.0
5801,51.0,30,30,13.0,0.0
5802,49.0,0,30,14.0,0.0
5803,75.0,0,360,1.0,0.0
5804,79.0,0,90,11.0,0.0
5805,63.0,0,30,13.0,0.0
5806,70.0,4,120,1.0,0.0
5807,58.0,0,120,3.0,0.0
5808,55.0,0,120,5.0,0.0
5809,67.0,0,120,5.0,0.0
5810,82.0,0,120,0.0,0.0
5811,67.0,22,90,12.0,0.0
5812,67.0,0,120,4.0,0.0
5813,43.0,26,120,6.0,0.0
5814,37.0,0,30,15.0,0.0
5815,70.0,0,120,2.0,0.0
5816,49.0,0,30,14.0,0.0
5817,37.0,30,30,15.0,0.0
5818,51.0,0,30,13.0,0.0
5819,63.0,0,30,13.0,0.0
5820,37.0,4,30,15.0,0.0
5821,49.0,0,30,14.0,0.0
5822,51.0,0,30,13.0,0.0
5823,63.0,0,30,13.0,0.0
5824,63.0,0,30,13.0,0.0
5825,49.0,4,30,14.0,0.0
5826,63.0,0,30,12.0,0.0
5827,37.0,0,30,15.0,0.0
5828,51.0,0,30,13.0,0.0
5829,75.0,0,30,11.0,0.0
5830,72.0,0,240,4.0,0.0
5831,80.0,4,120,11.0,0.0
5832,84.0,0,90,0.0,0.0
5833,36.0,0,30,15.0,0.0
5834,72.0,22,90,2.0,0.0
5835,68.0,0,120,12.0,0.0
5836,60.0,0,240,4.0,0.0
5837,63.0,30,30,13.0,0.0
5838,60.0,0,90,3.0,0.0
5839,60.0,0,120,5.0,0.0
5840,72.0,0,120,5.0,0.0
5841,48.0,26,120,6.0,0.0
5842,48.0,0,30,14.0,0.0
5843,72.0,0,240,1.0,0.0
5844,51.0,0,30,13.0,0.0
5845,36.0,0,30,15.0,0.0
5846,63.0,0,30,13.0,0.0
5847,48.0,30,30,14.0,0.0
5848,51.0,0,30,13.0,0.0
5849,51.0,0,30,13.0,0.0
5850,63.0,0,30,13.0,0.0
5851,48.0,4,30,14.0,0.0
5852,36.0,0,30,15.0,0.0
5853,36.0,0,30,15.0,0.0
5854,63.0,0,30,13.0,0.0
5855,51.0,0,30,13.0,0.0
5856,80.0,4,30,0.0,0.0
5857,56.0,0,30,3.0,0.0
5858,48.0,0,30,14.0,0.0
5859,68.0,0,30,2.0,0.0
5860,80.0,22,90,11.0,0.0
5861,48.0,26,120,6.0,0.0
5862,87.0,0,120,0.0,0.0
5863,72.0,0,120,5.0,0.0
5864,63.0,0,120,3.0,0.0
5865,32.0,0,30,15.0,0.0
5866,60.0,4,120,5.0,0.0
5867,44.0,0,30,14.0,0.0
5868,75.0,0,120,2.0,0.0
5869,48.0,0,30,13.0,0.0
5870,60.0,30,30,13.0,0.0
5871,68.0,0,90,12.0,0.0
5872,48.0,0,30,13.0,0.0
5873,60.0,0,30,13.0,0.0
5874,32.0,30,30,15.0,0.0
5875,44.0,0,30,14.0,0.0
5876,32.0,0,30,15.0,0.0
5877,44.0,0,30,14.0,0.0
5878,48.0,4,30,13.0,0.0
5879,60.0,0,30,13.0,0.0
5880,60.0,4,30,13.0,0.0
5881,48.0,0,30,13.0,0.0
5882,32.0,0,30,15.0,0.0
5883,84.0,0,30,11.0,0.0
5884,44.0,0,30,14.0,0.0
5885,72.0,0,30,12.0,0.0
5886,51.0,0,30,13.0,0.0
5887,58.0,0,30,13.0,0.0
5888,55.0,0,30,13.0,0.0
5889,58.0,0,120,3.0,0.0
5890,55.0,0,120,3.0,0.0
5891,63.0,0,30,13.0,0.0
5892,87.0,0,60,11.0,0.0
5893,82.0,26,120,0.0,0.0
5894,27.0,30,30,15.0,0.0
5895,82.0,0,120,1.0,0.0
5896,75.0,0,120,1.0,0.0
5897,43.0,0,120,6.0,0.0
5898,67.0,4,360,4.0,0.0
5899,67.0,0,120,5.0,0.0
5900,55.0,0,120,5.0,0.0
5901,39.0,0,30,14.0,0.0
5902,87.0,0,120,0.0,0.0
5903,75.0,0,120,2.0,0.0
5904,70.0,0,120,2.0,0.0
5905,75.0,26,60,12.0,0.0
5906,63.0,0,30,13.0,0.0
5907,38.0,0,30,14.0,0.0
5908,26.0,4,30,15.0,0.0
5909,51.0,0,30,13.0,0.0
5910,55.0,0,30,13.0,0.0
5911,58.0,0,30,13.0,0.0
5912,87.0,0,300,11.0,0.0
5913,27.0,0,30,15.0,0.0
5914,51.0,30,30,13.0,0.0
5915,39.0,0,30,14.0,0.0
5916,55.0,0,30,13.0,0.0
5917,63.0,0,30,13.0,0.0
5918,75.0,0,300,12.0,0.0
5919,58.0,0,30,13.0,0.0
5920,51.0,0,30,13.0,0.0
5921,55.0,0,30,13.0,0.0
5922,63.0,0,30,13.0,0.0
5923,58.0,4,30,13.0,0.0
5924,29.0,0,30,15.0,0.0
5925,41.0,0,30,14.0,0.0
5926,31.0,30,30,15.0,0.0
5927,58.0,0,30,13.0,0.0
5928,51.0,0,30,13.0,0.0
5929,43.0,0,30,14.0,0.0
5930,55.0,0,30,13.0,0.0
5931,63.0,0,30,13.0,0.0
5932,55.0,0,30,13.0,0.0
5933,63.0,30,30,13.0,0.0
5934,58.0,0,30,13.0,0.0
5935,51.0,0,30,13.0,0.0
5936,32.0,0,30,15.0,0.0
5937,44.0,0,30,14.0,0.0
5938,46.0,0,30,14.0,0.0
5939,34.0,30,30,15.0,0.0
5940,58.0,0,30,13.0,0.0
5941,51.0,0,30,13.0,0.0
5942,63.0,0,30,13.0,0.0
5943,55.0,0,30,13.0,0.0
5944,55.0,0,30,13.0,0.0
5945,48.0,0,30,14.0,0.0
5946,63.0,0,30,13.0,0.0
5947,51.0,0,30,13.0,0.0
5948,36.0,30,30,15.0,0.0
5949,58.0,0,30,13.0,0.0
5950,37.0,0,30,15.0,0.0
5951,49.0,0,30,14.0,0.0
5952,58.0,0,30,13.0,0.0
5953,51.0,0,30,13.0,0.0
5954,55.0,0,30,13.0,0.0
5955,63.0,30,30,13.0,0.0
5956,51.0,30,30,14.0,0.0
5957,55.0,0,30,13.0,0.0
5958,51.0,0,30,13.0,0.0
5959,63.0,0,30,13.0,0.0
5960,39.0,0,30,15.0,0.0
5961,58.0,0,30,13.0,0.0
5962,53.0,0,30,14.0,0.0
5963,41.0,0,30,15.0,0.0
5964,63.0,0,30,13.0,0.0
5965,51.0,26,30,13.0,0.0
5966,58.0,0,30,13.0,0.0
5967,55.0,0,30,13.0,0.0
5968,55.0,0,30,14.0,0.0
5969,51.0,30,30,13.0,0.0
5970,55.0,0,30,13.0,0.0
5971,63.0,0,30,13.0,0.0
5972,43.0,0,30,15.0,0.0
5973,58.0,0,30,13.0,0.0
5974,56.0,0,120,3.0,0.0
5975,72.0,0,120,5.0,0.0
5976,60.0,0,120,5.0,0.0
5977,44.0,0,120,15.0,0.0
5978,72.0,0,120,2.0,0.0
5979,75.0,0,120,2.0,0.0
5980,48.0,0,120,6.0,0.0
5981,72.0,30,30,12.0,0.0
5982,84.0,0,30,11.0,0.0
5983,60.0,0,120,3.0,0.0
5984,60.0,4,360,4.0,0.0
5985,72.0,0,360,4.0,0.0
5986,56.0,0,120,14.0,0.0
5987,60.0,0,30,13.0,0.0
5988,84.0,0,120,1.0,0.0
5989,75.0,26,120,1.0,0.0
5990,80.0,0,120,0.0,0.0
5991,84.0,0,120,0.0,0.0
5992,56.0,0,30,13.0,0.0
5993,63.0,0,30,13.0,0.0
5994,56.0,0,30,13.0,0.0
5995,63.0,0,30,12.0,0.0
5996,56.0,0,30,11.0,0.0
5997,51.0,30,30,13.0,0.0
5998,60.0,0,30,12.0,0.0
5999,58.0,0,30,11.0,0.0
6000,60.0,0,30,12.0,0.0
6001,63.0,0,30,12.0,0.0
6002,56.0,30,30,13.0,0.0
6003,51.0,0,30,13.0,0.0
6004,56.0,0,30,13.0,0.0
6005,60.0,4,30,11.0,0.0
6006,51.0,0,30,13.0,0.0
6007,60.0,0,30,12.0,0.0
6008,63.0,0,30,12.0,0.0
6009,51.0,0,30,13.0,0.0
6010,56.0,30,30,13.0,0.0
6011,61.0,0,30,11.0,0.0
6012,60.0,0,30,12.0,0.0
6013,63.0,0,30,12.0,0.0
6014,56.0,0,30,13.0,0.0
6015,51.0,30,30,13.0,0.0
6016,63.0,0,30,12.0,0.0
6017,60.0,0,30,12.0,0.0
6018,63.0,0,30,11.0,0.0
6019,65.0,0,30,11.0,0.0
6020,56.0,30,30,13.0,0.0
6021,63.0,0,30,12.0,0.0
6022,51.0,0,30,13.0,0.0
6023,60.0,0,30,12.0,0.0
6024,67.0,30,30,11.0,0.0
6025,63.0,0,30,12.0,0.0
6026,60.0,0,30,12.0,0.0
6027,56.0,0,30,13.0,0.0
6028,51.0,0,30,13.0,0.0
6029,63.0,0,30,12.0,0.0
6030,68.0,0,30,11.0,0.0
6031,56.0,0,90,14.0,0.0
6032,51.0,0,30,13.0,0.0
6033,44.0,0,90,15.0,0.0
6034,56.0,0,30,13.0,0.0
6035,60.0,30,30,12.0,0.0
6036,56.0,0,30,13.0,0.0
6037,60.0,30,30,12.0,0.0
6038,63.0,0,30,12.0,0.0
6039,70.0,0,30,11.0,0.0
6040,51.0,0,30,13.0,0.0
6041,56.0,0,30,13.0,0.0
6042,51.0,0,30,13.0,0.0
6043,72.0,0,30,11.0,0.0
6044,60.0,26,30,12.0,0.0
6045,63.0,0,30,12.0,0.0
6046,60.0,0,30,14.0,0.0
6047,48.0,30,30,15.0,0.0
6048,63.0,0,30,12.0,0.0
6049,51.0,0,30,13.0,0.0
6050,56.0,0,30,13.0,0.0
6051,73.0,0,30,11.0,0.0
6052,60.0,0,30,12.0,0.0
6053,51.0,0,30,13.0,0.0
6054,55.0,0,30,13.0,0.0
6055,58.0,0,30,12.0,0.0
6056,63.0,30,30,12.0,0.0
6057,82.0,26,120,1.0,0.0
6058,75.0,0,120,1.0,0.0
6059,79.0,0,120,0.0,0.0
6060,82.0,0,60,0.0,0.0
6061,63.0,0,120,11.0,0.0
6062,75.0,0,120,11.0,0.0
6063,67.0,4,360,4.0,0.0
6064,51.0,0,60,15.0,0.0
6065,51.0,0,30,3.0,0.0
6066,63.0,26,60,14.0,0.0
6067,63.0,0,30,2.0,0.0
6068,62.0,4,30,2.0,0.0
6069,55.0,0,30,13.0,0.0
6070,51.0,0,30,13.0,0.0
6071,63.0,0,30,12.0,0.0
6072,58.0,0,30,12.0,0.0
6073,50.0,0,30,3.0,0.0
6074,51.0,0,300,15.0,0.0
6075,51.0,0,30,13.0,0.0
6076,63.0,0,30,12.0,0.0
6077,63.0,30,30,2.0,0.0
6078,51.0,0,30,3.0,0.0
6079,55.0,0,30,13.0,0.0
6080,63.0,0,300,14.0,0.0
6081,58.0,0,30,12.0,0.0
6082,63.0,0,30,12.0,0.0
6083,58.0,0,30,12.0,0.0
6084,55.0,0,30,13.0,0.0
6085,53.0,0,30,3.0,0.0
6086,51.0,0,30,13.0,0.0
6087,65.0,4,30,2.0,0.0
6088,51.0,0,30,13.0,0.0
6089,63.0,0,30,12.0,0.0
6090,58.0,0,30,12.0,0.0
6091,67.0,30,30,2.0,0.0
6092,55.0,0,30,13.0,0.0
6093,55.0,0,30,3.0,0.0
6094,63.0,0,30,12.0,0.0
6095,68.0,0,30,2.0,0.0
6096,55.0,0,30,13.0,0.0
6097,56.0,0,30,3.0,0.0
6098,58.0,0,30,12.0,0.0
6099,51.0,30,30,13.0,0.0
6100,58.0,0,30,3.0,0.0
6101,63.0,0,30,12.0,0.0
6102,55.0,0,30,13.0,0.0
6103,70.0,0,30,2.0,0.0
6104,70.0,0,30,0.0,0.0
6105,58.0,30,30,2.0,0.0
6106,58.0,0,30,12.0,0.0
6107,51.0,0,30,13.0,0.0
6108,60.0,30,30,3.0,0.0
6109,63.0,0,30,12.0,0.0
6110,58.0,0,30,12.0,0.0
6111,72.0,0,30,0.0,0.0
6112,72.0,0,30,2.0,0.0
6113,60.0,0,30,2.0,0.0
6114,55.0,0,30,13.0,0.0
6115,51.0,0,30,13.0,0.0
6116,61.0,0,30,2.0,0.0
6117,58.0,30,30,12.0,0.0
6118,73.0,0,30,2.0,0.0
6119,63.0,0,30,12.0,0.0
6120,73.0,0,30,0.0,0.0
6121,61.0,0,30,3.0,0.0
6122,51.0,0,30,13.0,0.0
6123,55.0,0,30,13.0,0.0
6124,58.0,0,30,12.0,0.0
6125,63.0,30,30,12.0,0.0
6126,51.0,0,30,3.0,0.0
6127,75.0,0,30,2.0,0.0
6128,63.0,0,30,2.0,0.0
6129,55.0,0,30,13.0,0.0
6130,75.0,0,30,0.0,0.0
6131,51.0,0,30,13.0,0.0
6132,77.0,0,30,2.0,0.0
6133,58.0,0,30,12.0,0.0
6134,77.0,26,30,0.0,0.0
6135,65.0,0,30,2.0,0.0
6136,63.0,0,30,12.0,0.0
6137,55.0,0,30,13.0,0.0
6138,51.0,0,30,13.0,0.0
6139,53.0,0,30,3.0,0.0
6140,55.0,0,30,3.0,0.0
6141,67.0,0,30,2.0,0.0
6142,79.0,0,30,2.0,0.0
6143,51.0,0,30,13.0,0.0
6144,55.0,30,30,13.0,0.0
6145,63.0,0,30,12.0,0.0
6146,58.0,0,30,12.0,0.0
6147,79.0,0,30,0.0,0.0
6148,48.0,0,120,6.0,0.0
6149,44.0,0,120,3.0,0.0
6150,56.0,0,120,3.0,0.0
6151,56.0,0,30,11.0,0.0
6152,80.0,0,120,2.0,0.0
6153,48.0,0,30,15.0,0.0
6154,60.0,0,120,5.0,0.0
6155,72.0,0,120,5.0,0.0
6156,63.0,0,30,11.0,0.0
6157,72.0,0,30,11.0,0.0
6158,60.0,0,30,12.0,0.0
6159,63.0,0,30,12.0,0.0
6160,60.0,120,360,4.0,0.0
6161,56.0,30,30,13.0,0.0
6162,68.0,0,120,2.0,0.0
6163,80.0,26,120,0.0,0.0
6164,60.0,0,30,14.0,0.0
6165,84.0,0,120,1.0,0.0
6166,75.0,0,120,1.0,0.0
6167,68.0,0,30,11.0,0.0
6168,56.0,0,30,12.0,0.0
6169,56.0,0,30,13.0,0.0
6170,44.0,0,30,14.0,0.0
6171,32.0,30,30,15.0,0.0
6172,70.0,0,30,11.0,0.0
6173,34.0,0,30,15.0,0.0
6174,58.0,0,30,12.0,0.0
6175,58.0,0,30,13.0,0.0
6176,46.0,30,30,14.0,0.0
6177,36.0,0,30,15.0,0.0
6178,48.0,0,30,14.0,0.0
6179,72.0,4,30,11.0,0.0
6180,48.0,0,30,13.0,0.0
6181,60.0,0,30,12.0,0.0
6182,73.0,0,30,11.0,0.0
6183,49.0,0,30,13.0,0.0
6184,37.0,0,30,15.0,0.0
6185,61.0,30,30,12.0,0.0
6186,49.0,0,30,14.0,0.0
6187,51.0,30,30,13.0,0.0
6188,51.0,0,30,14.0,0.0
6189,39.0,0,30,15.0,0.0
6190,75.0,0,30,11.0,0.0
6191,63.0,0,30,12.0,0.0
6192,53.0,0,30,13.0,0.0
6193,41.0,0,30,15.0,0.0
6194,53.0,0,30,14.0,0.0
6195,65.0,0,30,12.0,0.0
6196,77.0,30,30,11.0,0.0
6197,67.0,0,30,12.0,0.0
6198,55.0,30,30,13.0,0.0
6199,79.0,0,30,11.0,0.0
6200,55.0,0,30,14.0,0.0
6201,43.0,0,30,15.0,0.0
6202,56.0,30,30,14.0,0.0
6203,80.0,0,90,0.0,0.0
6204,68.0,0,90,1.0,0.0
6205,56.0,0,90,2.0,0.0
6206,56.0,0,30,13.0,0.0
6207,68.0,26,90,2.0,0.0
6208,44.0,0,30,15.0,0.0
6209,68.0,0,90,0.0,0.0
6210,44.0,0,90,3.0,0.0
6211,56.0,0,90,3.0,0.0
6212,68.0,0,30,12.0,0.0
6213,80.0,0,30,11.0,0.0
6214,82.0,0,30,11.0,0.0
6215,46.0,30,30,15.0,0.0
6216,58.0,0,30,13.0,0.0
6217,58.0,0,30,14.0,0.0
6218,70.0,0,30,12.0,0.0
6219,60.0,0,30,13.0,0.0
6220,84.0,0,30,11.0,0.0
6221,72.0,0,30,12.0,0.0
6222,60.0,0,30,14.0,0.0
6223,48.0,4,30,15.0,0.0
6224,60.0,0,30,2.0,0.0
6225,85.0,0,30,11.0,0.0
6226,72.0,0,30,2.0,0.0
6227,49.0,0,30,15.0,0.0
6228,73.0,0,30,12.0,0.0
6229,61.0,0,30,13.0,0.0
6230,72.0,0,30,0.0,0.0
6231,61.0,0,30,14.0,0.0
6232,84.0,4,30,0.0,0.0
6233,48.0,0,30,3.0,0.0
6234,60.0,0,30,3.0,0.0
6235,72.0,0,30,1.0,0.0
6236,63.0,8,360,3.0,0.0
6237,87.0,0,360,0.0,0.0
6238,63.0,0,120,13.0,0.0
6239,75.0,60,240,1.0,0.0
6240,75.0,120,120,0.0,0.0
6241,75.0,0,360,2.0,0.0
6242,63.0,0,120,2.0,0.0
6243,75.0,0,120,12.0,0.0
6244,51.0,0,120,15.0,0.0
6245,87.0,0,120,11.0,0.0
6246,63.0,0,120,14.0,0.0
6247,77.0,52,60,1.0,0.0
6248,79.0,120,60,1.0,0.0
6249,85.0,0,120,0.0,0.0
6250,65.0,128,360,3.0,0.0
6251,68.0,0,360,2.0,0.0
6252,80.0,0,360,1.0,0.0
6253,73.0,232,120,2.0,0.0
6254,84.0,0,240,0.0,0.0
6255,72.0,0,240,2.0,0.0
6256,60.0,0,360,3.0,0.0
6257,70.0,232,120,2.0,0.0
6258,63.0,0,360,2.0,0.0
6259,82.0,0,120,0.0,0.0
6260,75.0,120,360,1.0,0.0
6261,68.0,0,240,2.0,0.0
6262,80.0,0,240,0.0,0.0
6263,73.0,120,120,2.0,0.0
6264,79.0,0,240,0.0,0.0
6265,70.0,0,120,2.0,0.0
6266,63.0,0,120,3.0,0.0
6267,75.0,0,120,1.0,0.0
6268,75.0,0,120,1.0,0.0
6269,70.0,0,120,2.0,0.0
6270,73.0,0,120,2.0,0.0
6271,63.0,48,120,3.0,0.0
6272,63.0,4,120,3.0,0.0
6273,75.0,0,120,1.0,0.0
6274,70.0,22,90,2.0,0.0
6275,73.0,0,120,2.0,0.0
6276,79.0,40,40,0.0,0.0
6277,80.0,10,40,0.0,0.0
6278,82.0,124,40,0.0,0.0
6279,67.0,0,30,2.0,0.0
6280,63.0,0,120,3.0,0.0
6281,80.0,0,120,0.0,0.0
6282,68.0,0,120,2.0,0.0
6283,72.0,0,120,2.0,0.0
6284,56.0,0,120,3.0,0.0
6285,75.0,120,120,1.0,0.0
6286,68.0,0,60,11.0,0.0
6287,56.0,60,60,13.0,0.0
6288,72.0,56,60,11.0,0.0
6289,60.0,0,60,13.0,0.0
6290,63.0,64,60,13.0,0.0
6291,75.0,0,60,11.0,0.0
6292,41.0,4,360,15.0,0.0
6293,56.0,0,360,12.0,0.0
6294,75.0,56,60,11.0,0.0
6295,63.0,0,60,13.0,0.0
6296,68.0,0,360,12.0,0.0
6297,53.0,0,360,14.0,0.0
6298,73.0,0,60,11.0,0.0
6299,61.0,180,60,13.0,0.0
6300,60.0,56,180,13.0,0.0
6301,72.0,0,180,11.0,0.0
6302,72.0,0,60,11.0,0.0
6303,60.0,64,60,13.0,0.0
6304,60.0,0,60,13.0,0.0
6305,36.0,0,360,15.0,0.0
6306,63.0,0,360,12.0,0.0
6307,72.0,56,60,11.0,0.0
6308,48.0,4,360,14.0,0.0
6309,70.0,0,60,11.0,0.0
6310,58.0,180,60,13.0,0.0
6311,56.0,0,180,13.0,0.0
6312,68.0,56,180,11.0,0.0
6313,56.0,116,60,13.0,0.0
6314,68.0,0,60,11.0,0.0
6315,39.0,120,120,15.0,0.0
6316,61.0,0,120,12.0,0.0
6317,67.0,0,240,11.0,0.0
6318,63.0,0,120,12.0,0.0
6319,51.0,0,120,14.0,0.0
6320,58.0,0,120,13.0,0.0
6321,51.0,0,120,14.0,0.0
6322,39.0,48,120,15.0,0.0
6323,61.0,0,120,12.0,0.0
6324,58.0,0,120,13.0,0.0
6325,63.0,0,120,12.0,0.0
6326,51.0,0,120,14.0,0.0
6327,39.0,0,120,15.0,0.0
6328,67.0,40,40,11.0,0.0
6329,61.0,0,120,12.0,0.0
6330,58.0,22,90,13.0,0.0
6331,63.0,4,120,12.0,0.0
6332,68.0,10,40,11.0,0.0
6333,70.0,0,40,11.0,0.0
6334,55.0,124,30,13.0,0.0
6335,68.0,0,120,11.0,0.0
6336,32.0,0,120,15.0,0.0
6337,56.0,0,120,13.0,0.0
6338,60.0,160,120,12.0,0.0
6339,44.0,0,120,14.0,0.0
6340,63.0,0,120,12.0,0.0
6341,51.0,0,120,3.0,0.0
6342,63.0,4,120,3.0,0.0
6343,39.0,120,120,15.0,0.0
6344,58.0,22,90,13.0,0.0
6345,79.0,0,40,0.0,0.0
6346,67.0,0,40,11.0,0.0
6347,61.0,0,120,12.0,0.0
6348,73.0,40,40,2.0,0.0
6349,51.0,0,120,14.0,0.0
6350,72.0,10,40,2.0,0.0
6351,80.0,0,40,0.0,0.0
6352,68.0,0,40,11.0,0.0
6353,70.0,0,40,11.0,0.0
6354,82.0,0,40,0.0,0.0
6355,73.0,4,40,2.0,0.0
6356,55.0,0,30,13.0,0.0
6357,63.0,0,120,3.0,0.0
6358,51.0,0,120,3.0,0.0
6359,60.0,0,120,12.0,0.0
6360,44.0,0,120,14.0,0.0
6361,56.0,0,120,13.0,0.0
6362,68.0,0,120,11.0,0.0
6363,32.0,0,120,15.0,0.0
6364,72.0,0,120,2.0,0.0
6365,80.0,160,120,0.0,0.0
6366,39.0,0,120,14.0,0.0
6367,67.0,0,40,11.0,0.0
6368,49.0,0,40,13.0,0.0
6369,58.0,40,40,12.0,0.0
6370,27.0,56,120,15.0,0.0
6371,56.0,0,40,12.0,0.0
6372,48.0,0,40,13.0,0.0
6373,68.0,36,40,11.0,0.0
6374,70.0,0,40,11.0,0.0
6375,55.0,4,40,12.0,0.0
6376,49.0,0,40,13.0,0.0
6377,44.0,60,60,14.0,0.0
6378,32.0,0,60,15.0,0.0
6379,56.0,0,60,12.0,0.0
6380,48.0,0,60,13.0,0.0
6381,68.0,4,60,11.0,0.0
6382,63.0,0,60,12.0,0.0
6383,60.0,60,60,13.0,0.0
6384,68.0,0,60,11.0,0.0
6385,32.0,0,60,15.0,0.0
6386,44.0,60,60,14.0,0.0
6387,68.0,0,60,11.0,0.0
6388,60.0,60,60,13.0,0.0
6389,63.0,0,60,12.0,0.0
6390,32.0,60,60,15.0,0.0
6391,60.0,0,60,3.0,0.0
6392,44.0,0,60,14.0,0.0
6393,60.0,60,60,13.0,0.0
6394,68.0,0,60,11.0,0.0
6395,63.0,0,60,3.0,0.0
6396,63.0,0,60,12.0,0.0
6397,66.0,10,120,3.0,0.0
6398,44.0,50,60,14.0,0.0
6399,32.0,0,60,15.0,0.0
6400,68.0,0,60,11.0,0.0
6401,63.0,0,60,12.0,0.0
6402,60.0,60,60,13.0,0.0
6403,32.0,0,60,15.0,0.0
6404,66.0,0,60,3.0,0.0
6405,44.0,60,60,14.0,0.0
6406,60.0,0,60,13.0,0.0
6407,65.0,0,60,3.0,0.0
6408,68.0,0,60,11.0,0.0
6409,63.0,60,60,12.0,0.0
6410,44.0,0,60,14.0,0.0
6411,32.0,0,60,15.0,0.0
6412,63.0,60,60,3.0,0.0
6413,68.0,0,60,11.0,0.0
6414,60.0,0,60,13.0,0.0
6415,63.0,60,60,12.0,0.0
6416,66.0,0,60,3.0,0.0
6417,44.0,0,60,14.0,0.0
6418,32.0,60,60,15.0,0.0
6419,65.0,10,240,3.0,0.0
6420,61.0,0,60,13.0,0.0
6421,65.0,0,60,12.0,0.0
6422,68.0,60,60,11.0,0.0
6423,44.0,0,60,14.0,0.0
6424,32.0,50,60,15.0,0.0
6425,68.0,0,60,11.0,0.0
6426,65.0,0,60,12.0,0.0
6427,61.0,60,60,13.0,0.0
6428,32.0,0,60,15.0,0.0
6429,44.0,0,60,14.0,0.0
6430,61.0,60,60,3.0,0.0
6431,65.0,60,60,12.0,0.0
6432,61.0,0,60,13.0,0.0
6433,68.0,0,60,11.0,0.0
6434,63.0,0,60,3.0,0.0
6435,64.0,10,120,3.0,0.0
6436,32.0,50,60,15.0,0.0
6437,44.0,0,60,14.0,0.0
6438,64.0,0,60,12.0,0.0
6439,67.0,55,60,11.0,0.0
6440,61.0,0,60,13.0,0.0
6441,32.0,0,60,15.0,0.0
6442,44.0,55,60,14.0,0.0
6443,64.0,5,60,3.0,0.0
6444,67.0,55,60,11.0,0.0
6445,61.0,0,60,13.0,0.0
6446,64.0,0,60,12.0,0.0
6447,63.0,5,60,3.0,0.0
6448,61.0,5,60,3.0,0.0
6449,44.0,0,60,14.0,0.0
6450,32.0,55,60,15.0,0.0
6451,64.0,60,60,12.0,0.0
6452,61.0,0,60,13.0,0.0
6453,67.0,0,60,11.0,0.0
6454,64.0,5,60,3.0,0.0
6455,63.0,0,240,3.0,0.0
6456,44.0,60,60,14.0,0.0
6457,32.0,0,60,15.0,0.0
6458,60.0,0,60,13.0,0.0
6459,68.0,60,60,11.0,0.0
6460,63.0,0,60,12.0,0.0
6461,44.0,0,60,14.0,0.0
6462,32.0,56,60,15.0,0.0
6463,68.0,0,60,11.0,0.0
6464,60.0,4,60,13.0,0.0
6465,63.0,45,60,12.0,0.0
6466,51.0,10,40,14.0,0.0
6467,44.0,5,60,3.0,0.0
6468,51.0,0,40,13.0,0.0
6469,32.0,45,60,15.0,0.0
6470,68.0,0,60,11.0,0.0
6471,44.0,5,60,3.0,0.0
6472,53.0,0,40,13.0,0.0
6473,53.0,10,40,14.0,0.0
6474,60.0,0,60,12.0,0.0
6475,63.0,45,60,12.0,0.0
6476,54.0,0,40,14.0,0.0
6477,32.0,45,60,15.0,0.0
6478,54.0,10,40,13.0,0.0
6479,44.0,5,60,3.0,0.0
6480,53.0,0,40,13.0,0.0
6481,53.0,10,40,14.0,0.0
6482,60.0,0,60,12.0,0.0
6483,68.0,0,60,11.0,0.0
6484,44.0,5,60,3.0,0.0
6485,63.0,45,60,12.0,0.0
6486,75.0,0,15,1.0,0.0
6487,77.0,0,15,1.0,0.0
6488,32.0,30,60,15.0,0.0
6489,60.0,45,120,3.0,0.0
6490,44.0,5,60,3.0,0.0
6491,78.0,15,90,1.0,0.0
6492,51.0,0,40,13.0,0.0
6493,51.0,10,40,14.0,0.0
6494,44.0,5,60,3.0,0.0
6495,53.0,0,40,14.0,0.0
6496,63.0,0,60,12.0,0.0
6497,60.0,0,60,12.0,0.0
6498,53.0,10,40,13.0,0.0
6499,68.0,0,60,11.0,0.0
6500,54.0,10,40,13.0,0.0
6501,54.0,0,40,14.0,0.0
6502,32.0,45,60,15.0,0.0
6503,44.0,5,60,3.0,0.0
6504,51.0,0,40,14.0,0.0
6505,68.0,0,60,11.0,0.0
6506,60.0,0,60,12.0,0.0
6507,63.0,45,60,12.0,0.0
6508,44.0,5,60,3.0,0.0
6509,51.0,10,40,13.0,0.0
6510,32.0,45,60,15.0,0.0
6511,53.0,10,40,13.0,0.0
6512,44.0,5,60,3.0,0.0
6513,53.0,0,40,14.0,0.0
6514,61.0,0,60,12.0,0.0
6515,51.0,10,40,13.0,0.0
6516,68.0,0,60,11.0,0.0
6517,44.0,5,60,3.0,0.0
6518,51.0,0,40,14.0,0.0
6519,65.0,45,60,12.0,0.0
6520,73.0,0,15,1.0,0.0
6521,75.0,0,15,1.0,0.0
6522,44.0,5,60,3.0,0.0
6523,61.0,0,120,3.0,0.0
6524,49.0,0,40,13.0,0.0
6525,32.0,30,60,15.0,0.0
6526,49.0,10,40,14.0,0.0
6527,77.0,15,90,1.0,0.0
6528,68.0,45,60,11.0,0.0
6529,44.0,5,60,3.0,0.0
6530,65.0,0,60,12.0,0.0
6531,51.0,0,40,14.0,0.0
6532,51.0,10,40,13.0,0.0
6533,61.0,0,60,12.0,0.0
6534,32.0,45,60,15.0,0.0
6535,44.0,5,60,3.0,0.0
6536,53.0,0,40,13.0,0.0
6537,53.0,10,40,14.0,0.0
6538,61.0,0,60,12.0,0.0
6539,49.0,10,40,14.0,0.0
6540,65.0,0,60,12.0,0.0
6541,44.0,5,60,3.0,0.0
6542,68.0,45,60,11.0,0.0
6543,49.0,0,40,13.0,0.0
6544,44.0,5,60,3.0,0.0
6545,52.0,10,40,14.0,0.0
6546,52.0,0,40,13.0,0.0
6547,32.0,45,60,15.0,0.0
6548,67.0,0,60,11.0,0.0
6549,58.0,0,60,11.0,0.0
6550,61.0,0,60,12.0,0.0
6551,51.0,10,40,14.0,0.0
6552,51.0,0,40,13.0,0.0
6553,44.0,5,60,3.0,0.0
6554,73.0,0,15,1.0,0.0
6555,75.0,45,15,1.0,0.0
6556,49.0,0,40,13.0,0.0
6557,76.0,15,90,1.0,0.0
6558,32.0,30,60,15.0,0.0
6559,49.0,10,40,14.0,0.0
6560,44.0,5,60,3.0,0.0
6561,61.0,45,120,3.0,0.0
6562,67.0,0,60,11.0,0.0
6563,51.0,0,40,14.0,0.0
6564,44.0,5,60,3.0,0.0
6565,51.0,10,40,13.0,0.0
6566,61.0,0,60,12.0,0.0
6567,58.0,0,60,11.0,0.0
6568,44.0,5,60,3.0,0.0
6569,52.0,0,40,13.0,0.0
6570,52.0,10,40,14.0,0.0
6571,32.0,45,60,15.0,0.0
6572,61.0,30,60,12.0,0.0
6573,49.0,0,40,13.0,0.0
6574,49.0,10,40,14.0,0.0
6575,44.0,1,60,3.0,0.0
6576,67.0,0,60,11.0,0.0
6577,58.0,0,60,11.0,0.0
6578,51.0,0,30,13.0,0.0
6579,68.0,0,120,11.0,0.0
6580,60.0,0,120,11.0,0.0
6581,60.0,0,120,3.0,0.0
6582,44.0,0,120,3.0,0.0
6583,75.0,26,120,1.0,0.0
6584,60.0,30,30,12.0,0.0
6585,51.0,0,120,14.0,0.0
6586,32.0,0,120,15.0,0.0
6587,60.0,0,30,12.0,0.0
6588,63.0,0,30,12.0,0.0
6589,51.0,0,30,13.0,0.0
6590,56.0,30,30,13.0,0.0
6591,60.0,30,30,12.0,0.0
6592,63.0,0,30,12.0,0.0
6593,56.0,0,30,13.0,0.0
6594,51.0,0,30,13.0,0.0
6595,60.0,0,30,12.0,0.0
6596,56.0,4,30,13.0,0.0
6597,51.0,0,30,13.0,0.0
6598,63.0,0,30,12.0,0.0
6599,51.0,30,30,13.0,0.0
6600,63.0,0,30,12.0,0.0
6601,60.0,0,30,12.0,0.0
6602,56.0,0,30,13.0,0.0
6603,56.0,0,30,13.0,0.0
6604,60.0,30,30,12.0,0.0
6605,63.0,0,30,12.0,0.0
6606,51.0,0,30,13.0,0.0
6607,51.0,0,30,13.0,0.0
6608,60.0,0,30,12.0,0.0
6609,63.0,0,30,12.0,0.0
6610,56.0,30,30,13.0,0.0
6611,56.0,0,30,13.0,0.0
6612,44.0,0,30,14.0,0.0
6613,56.0,26,30,11.0,0.0
6614,60.0,0,30,12.0,0.0
6615,63.0,0,30,12.0,0.0
6616,51.0,4,30,13.0,0.0
6617,63.0,0,30,12.0,0.0
6618,56.0,0,30,13.0,0.0
6619,48.0,26,90,14.0,0.0
6620,60.0,30,30,12.0,0.0
6621,51.0,0,30,13.0,0.0
6622,60.0,0,90,11.0,0.0
6623,51.0,0,30,13.0,0.0
6624,60.0,30,30,12.0,0.0
6625,63.0,0,30,12.0,0.0
6626,56.0,0,30,13.0,0.0
6627,51.0,0,30,13.0,0.0
6628,56.0,0,30,13.0,0.0
6629,60.0,0,30,12.0,0.0
6630,63.0,4,30,12.0,0.0
6631,56.0,0,30,13.0,0.0
6632,63.0,26,30,11.0,0.0
6633,51.0,0,30,14.0,0.0
6634,51.0,0,30,13.0,0.0
6635,63.0,4,30,12.0,0.0
6636,60.0,0,30,12.0,0.0
6637,56.0,0,30,13.0,0.0
6638,51.0,30,30,13.0,0.0
6639,68.0,26,120,11.0,0.0
6640,56.0,0,120,14.0,0.0
6641,63.0,0,30,12.0,0.0
6642,60.0,0,30,12.0,0.0
6643,51.0,0,30,13.0,0.0
6644,63.0,0,30,12.0,0.0
6645,60.0,30,30,12.0,0.0
6646,56.0,0,30,13.0,0.0
6647,51.0,0,30,13.0,0.0
6648,63.0,30,30,12.0,0.0
6649,60.0,0,30,12.0,0.0
6650,56.0,0,30,13.0,0.0
6651,56.0,0,30,13.0,0.0
6652,51.0,0,30,13.0,0.0
6653,60.0,0,30,12.0,0.0
6654,63.0,4,30,12.0,0.0
6655,60.0,0,30,12.0,0.0
6656,63.0,0,30,12.0,0.0
6657,56.0,0,30,13.0,0.0
6658,60.0,26,120,14.0,0.0
6659,51.0,30,30,13.0,0.0
6660,72.0,0,120,11.0,0.0
6661,51.0,0,30,13.0,0.0
6662,56.0,0,30,13.0,0.0
6663,60.0,30,30,12.0,0.0
6664,63.0,0,30,12.0,0.0
6665,51.0,0,30,13.0,0.0
6666,56.0,0,30,13.0,0.0
6667,63.0,0,30,12.0,0.0
6668,60.0,30,30,12.0,0.0
6669,56.0,4,30,13.0,0.0
6670,51.0,0,30,13.0,0.0
6671,60.0,0,30,12.0,0.0
6672,63.0,0,30,12.0,0.0
6673,67.0,0,120,4.0,0.0
6674,70.0,0,120,1.0,0.0
6675,63.0,0,120,14.0,0.0
6676,75.0,26,120,2.0,0.0
6677,63.0,0,120,3.0,0.0
6678,75.0,0,120,11.0,0.0
6679,75.0,0,120,0.0,0.0
6680,70.0,0,120,0.0,0.0
6681,75.0,0,120,1.0,0.0
6682,55.0,0,30,13.0,0.0
6683,51.0,0,30,13.0,0.0
6684,55.0,0,120,3.0,0.0
6685,58.0,0,30,12.0,0.0
6686,67.0,0,120,2.0,0.0
6687,63.0,30,30,12.0,0.0
6688,39.0,0,120,15.0,0.0
6689,63.0,30,30,12.0,0.0
6690,55.0,0,30,13.0,0.0
6691,51.0,0,30,13.0,0.0
6692,58.0,0,30,12.0,0.0
6693,63.0,30,30,12.0,0.0
6694,58.0,0,30,12.0,0.0
6695,51.0,0,30,13.0,0.0
6696,55.0,0,30,13.0,0.0
6697,51.0,0,30,13.0,0.0
6698,63.0,0,30,12.0,0.0
6699,55.0,0,30,13.0,0.0
6700,58.0,4,30,12.0,0.0
6701,68.0,0,120,2.0,0.0
6702,72.0,0,120,2.0,0.0
6703,44.0,26,120,15.0,0.0
6704,68.0,0,120,1.0,0.0
6705,56.0,0,120,3.0,0.0
6706,72.0,0,120,1.0,0.0
6707,72.0,0,120,11.0,0.0
6708,72.0,0,120,0.0,0.0
6709,60.0,0,120,3.0,0.0
6710,60.0,0,120,14.0,0.0
6711,48.0,0,120,6.0,0.0
6712,56.0,0,30,13.0,0.0
6713,60.0,0,30,12.0,0.0
6714,60.0,0,120,4.0,0.0
6715,72.0,0,120,5.0,0.0
6716,60.0,0,120,5.0,0.0
6717,51.0,30,30,13.0,0.0
6718,63.0,0,30,12.0,0.0
6719,63.0,0,30,12.0,0.0
6720,51.0,30,30,13.0,0.0
6721,56.0,0,30,13.0,0.0
6722,60.0,0,30,12.0,0.0
6723,56.0,0,30,13.0,0.0
6724,51.0,0,30,13.0,0.0
6725,60.0,30,30,12.0,0.0
6726,63.0,0,30,12.0,0.0
6727,56.0,0,30,13.0,0.0
6728,51.0,0,30,13.0,0.0
6729,63.0,0,30,12.0,0.0
6730,60.0,4,30,12.0,0.0
6731,63.0,0,30,12.0,0.0
6732,56.0,0,30,13.0,0.0
6733,51.0,0,30,13.0,0.0
6734,60.0,30,30,12.0,0.0
6735,60.0,0,30,12.0,0.0
6736,63.0,0,30,12.0,0.0
6737,56.0,30,30,13.0,0.0
6738,51.0,0,30,13.0,0.0
6739,60.0,30,30,12.0,0.0
6740,63.0,0,30,12.0,0.0
6741,56.0,0,30,13.0,0.0
6742,51.0,0,30,13.0,0.0
6743,56.0,0,30,13.0,0.0
6744,60.0,0,30,12.0,0.0
6745,44.0,0,30,14.0,0.0
6746,51.0,0,30,13.0,0.0
6747,56.0,26,30,11.0,0.0
6748,63.0,4,30,12.0,0.0
6749,51.0,0,30,13.0,0.0
6750,60.0,0,90,11.0,0.0
6751,63.0,0,30,12.0,0.0
6752,60.0,0,30,12.0,0.0
6753,48.0,26,90,14.0,0.0
6754,56.0,30,30,13.0,0.0
6755,60.0,0,30,12.0,0.0
6756,63.0,0,30,12.0,0.0
6757,56.0,30,30,13.0,0.0
6758,51.0,0,30,13.0,0.0
6759,56.0,4,30,13.0,0.0
6760,63.0,0,30,12.0,0.0
6761,60.0,0,30,12.0,0.0
6762,51.0,0,30,13.0,0.0
6763,60.0,0,30,12.0,0.0
6764,63.0,30,30,12.0,0.0
6765,51.0,0,30,13.0,0.0
6766,63.0,0,30,11.0,0.0
6767,56.0,0,30,13.0,0.0
6768,51.0,0,30,14.0,0.0
6769,68.0,16,40,11.0,0.0
6770,60.0,0,30,12.0,0.0
6771,51.0,14,30,13.0,0.0
6772,56.0,0,30,13.0,0.0
6773,63.0,0,30,12.0,0.0
6774,56.0,0,40,14.0,0.0
6775,56.0,24,30,13.0,0.0
6776,51.0,0,30,13.0,0.0
6777,60.0,0,30,12.0,0.0
6778,63.0,0,30,12.0,0.0
6779,72.0,6,40,11.0,0.0
6780,60.0,0,40,14.0,0.0
6781,51.0,30,30,13.0,0.0
6782,63.0,0,30,12.0,0.0
6783,60.0,0,30,12.0,0.0
6784,56.0,0,30,13.0,0.0
6785,75.0,0,40,11.0,0.0
6786,63.0,0,40,14.0,0.0
6787,63.0,0,30,12.0,0.0
6788,60.0,30,30,12.0,0.0
6789,51.0,0,30,13.0,0.0
6790,56.0,0,30,13.0,0.0
6791,56.0,0,30,13.0,0.0
6792,51.0,0,30,13.0,0.0
6793,63.0,0,30,12.0,0.0
6794,56.0,0,120,14.0,0.0
6795,60.0,30,30,12.0,0.0
6796,80.0,26,120,11.0,0.0
6797,63.0,0,30,12.0,0.0
6798,51.0,30,30,13.0,0.0
6799,56.0,0,30,13.0,0.0
6800,60.0,0,30,12.0,0.0
6801,63.0,0,30,12.0,0.0
6802,60.0,0,30,12.0,0.0
6803,51.0,0,30,13.0,0.0
6804,56.0,30,30,13.0,0.0
6805,56.0,0,30,13.0,0.0
6806,51.0,0,30,13.0,0.0
6807,60.0,0,30,12.0,0.0
6808,63.0,4,30,12.0,0.0
6809,51.0,0,30,13.0,0.0
6810,55.0,0,30,13.0,0.0
6811,82.0,0,120,0.0,0.0
6812,79.0,0,120,0.0,0.0
6813,79.0,0,120,1.0,0.0
6814,82.0,0,120,1.0,0.0
6815,82.0,0,120,11.0,0.0
6816,39.0,26,120,15.0,0.0
6817,75.0,0,240,2.0,0.0
6818,70.0,0,120,2.0,0.0
6819,63.0,0,30,12.0,0.0
6820,55.0,0,120,3.0,0.0
6821,58.0,30,30,12.0,0.0
6822,58.0,0,120,3.0,0.0
6823,51.0,0,120,14.0,0.0
6824,58.0,0,30,12.0,0.0
6825,51.0,0,30,13.0,0.0
6826,55.0,30,30,13.0,0.0
6827,63.0,0,30,12.0,0.0
6828,51.0,30,30,13.0,0.0
6829,55.0,0,30,13.0,0.0
6830,58.0,0,30,12.0,0.0
6831,63.0,0,30,12.0,0.0
6832,58.0,0,30,12.0,0.0
6833,63.0,4,30,12.0,0.0
6834,55.0,0,30,13.0,0.0
6835,51.0,0,30,13.0,0.0
6836,84.0,0,120,1.0,0.0
6837,80.0,0,120,1.0,0.0
6838,56.0,0,30,13.0,0.0
6839,48.0,0,120,6.0,0.0
6840,51.0,0,30,13.0,0.0
6841,60.0,0,120,3.0,0.0
6842,84.0,0,120,0.0,0.0
6843,56.0,0,120,3.0,0.0
6844,56.0,0,120,14.0,0.0
6845,60.0,0,30,12.0,0.0
6846,63.0,30,30,12.0,0.0
6847,84.0,0,120,11.0,0.0
6848,72.0,0,120,2.0,0.0
6849,60.0,0,120,5.0,0.0
6850,72.0,0,120,5.0,0.0
6851,44.0,0,120,15.0,0.0
6852,60.0,26,120,4.0,0.0
6853,80.0,0,120,0.0,0.0
6854,51.0,0,30,13.0,0.0
6855,60.0,0,30,12.0,0.0
6856,63.0,0,30,12.0,0.0
6857,56.0,30,30,13.0,0.0
6858,56.0,0,30,13.0,0.0
6859,63.0,30,30,12.0,0.0
6860,60.0,0,30,12.0,0.0
6861,51.0,0,30,13.0,0.0
6862,63.0,4,30,12.0,0.0
6863,60.0,0,30,12.0,0.0
6864,51.0,0,30,13.0,0.0
6865,56.0,0,30,13.0,0.0
6866,63.0,30,30,12.0,0.0
6867,60.0,0,30,12.0,0.0
6868,51.0,0,30,13.0,0.0
6869,56.0,0,30,13.0,0.0
6870,63.0,24,30,12.0,0.0
6871,51.0,0,30,13.0,0.0
6872,60.0,0,30,12.0,0.0
6873,56.0,0,30,13.0,0.0
6874,44.0,0,40,14.0,0.0
6875,56.0,0,40,11.0,0.0
6876,44.0,0,40,3.0,0.0
6877,56.0,6,40,2.0,0.0
6878,60.0,0,30,12.0,0.0
6879,56.0,0,30,13.0,0.0
6880,51.0,0,30,13.0,0.0
6881,63.0,30,30,12.0,0.0
6882,60.0,26,40,2.0,0.0
6883,48.0,0,40,3.0,0.0
6884,60.0,0,40,11.0,0.0
6885,48.0,0,40,14.0,0.0
6886,56.0,4,30,13.0,0.0
6887,63.0,0,30,12.0,0.0
6888,60.0,0,30,12.0,0.0
6889,51.0,0,30,13.0,0.0
6890,63.0,16,40,2.0,0.0
6891,51.0,0,40,14.0,0.0
6892,60.0,14,30,12.0,0.0
6893,63.0,0,30,12.0,0.0
6894,51.0,0,40,3.0,0.0
6895,56.0,0,30,13.0,0.0
6896,63.0,0,40,11.0,0.0
6897,51.0,0,30,13.0,0.0
6898,63.0,0,30,12.0,0.0
6899,51.0,0,30,13.0,0.0
6900,56.0,0,30,13.0,0.0
6901,60.0,24,30,12.0,0.0
6902,32.0,0,40,15.0,0.0
6903,56.0,0,40,14.0,0.0
6904,68.0,6,40,11.0,0.0
6905,68.0,0,40,2.0,0.0
6906,56.0,0,40,3.0,0.0
6907,56.0,28,30,13.0,0.0
6908,51.0,0,30,13.0,0.0
6909,63.0,0,30,12.0,0.0
6910,60.0,0,30,12.0,0.0
6911,48.0,0,40,3.0,0.0
6912,60.0,0,40,3.0,0.0
6913,60.0,30,40,14.0,0.0
6914,72.0,2,30,0.0,0.0
6915,72.0,0,40,2.0,0.0
6916,60.0,0,40,2.0,0.0
6917,36.0,0,40,15.0,0.0
6918,72.0,0,40,11.0,0.0
6919,56.0,0,30,13.0,0.0
6920,63.0,0,30,12.0,0.0
6921,51.0,0,30,13.0,0.0
6922,60.0,0,30,12.0,0.0
6923,39.0,0,40,15.0,0.0
6924,60.0,0,30,12.0,0.0
6925,63.0,0,30,12.0,0.0
6926,75.0,0,40,11.0,0.0
6927,63.0,0,40,2.0,0.0
6928,75.0,0,40,0.0,0.0
6929,75.0,4,120,1.0,0.0
6930,56.0,14,30,13.0,0.0
6931,51.0,16,40,14.0,0.0
6932,51.0,0,30,13.0,0.0
6933,51.0,0,40,3.0,0.0
6934,72.0,0,120,1.0,0.0
6935,56.0,0,30,13.0,0.0
6936,63.0,0,30,12.0,0.0
6937,60.0,24,30,12.0,0.0
6938,51.0,0,30,13.0,0.0
6939,56.0,6,40,3.0,0.0
6940,56.0,0,40,14.0,0.0
6941,44.0,0,40,15.0,0.0
6942,80.0,0,40,0.0,0.0
6943,68.0,0,40,2.0,0.0
6944,80.0,0,40,11.0,0.0
6945,63.0,0,30,12.0,0.0
6946,51.0,0,30,13.0,0.0
6947,56.0,0,30,13.0,0.0
6948,60.0,24,30,12.0,0.0
6949,60.0,0,40,14.0,0.0
6950,48.0,0,40,15.0,0.0
6951,84.0,0,40,11.0,0.0
6952,72.0,0,40,2.0,0.0
6953,84.0,2,30,0.0,0.0
6954,60.0,0,40,3.0,0.0
6955,60.0,0,30,12.0,0.0
6956,63.0,0,30,12.0,0.0
6957,56.0,124,30,13.0,0.0
6958,51.0,0,30,13.0,0.0
6959,51.0,0,120,15.0,0.0
6960,75.0,0,120,1.0,0.0
6961,70.0,0,120,1.0,0.0
6962,63.0,0,120,14.0,0.0
6963,63.0,0,120,12.0,0.0
6964,63.0,0,120,3.0,0.0
6965,58.0,0,120,12.0,0.0
6966,87.0,4,600,0.0,0.0
6967,55.0,0,120,13.0,0.0
6968,51.0,0,120,13.0,0.0
6969,87.0,0,120,11.0,0.0
6970,75.0,240,120,2.0,0.0
6971,67.0,0,480,2.0,0.0
6972,70.0,120,120,2.0,0.0
6973,75.0,60,120,1.0,0.0
6974,75.0,0,240,2.0,0.0
6975,77.0,52,60,1.0,0.0
6976,79.0,124,60,1.0,0.0
6977,65.0,0,360,3.0,0.0
6978,85.0,0,120,0.0,0.0
6979,73.0,232,120,2.0,0.0
6980,80.0,0,360,1.0,0.0
6981,68.0,0,360,2.0,0.0
6982,84.0,128,240,0.0,0.0
6983,72.0,0,240,2.0,0.0
6984,75.0,0,360,1.0,0.0
6985,60.0,120,360,3.0,0.0
6986,82.0,232,120,0.0,0.0
6987,63.0,0,360,2.0,0.0
6988,70.0,0,120,2.0,0.0
6989,80.0,0,240,0.0,0.0
6990,68.0,0,240,2.0,0.0
6991,75.0,0,120,1.0,0.0
6992,63.0,0,120,3.0,0.0
6993,70.0,0,120,2.0,0.0
6994,73.0,120,120,2.0,0.0
6995,79.0,0,240,0.0,0.0
6996,70.0,0,120,2.0,0.0
6997,75.0,0,120,1.0,0.0
6998,63.0,48,120,3.0,0.0
6999,73.0,0,120,2.0,0.0
7000,63.0,0,120,3.0,0.0
7001,70.0,22,90,2.0,0.0
7002,75.0,4,120,1.0,0.0
7003,79.0,40,40,0.0,0.0
7004,73.0,0,120,2.0,0.0
7005,80.0,10,40,0.0,0.0
7006,82.0,124,40,0.0,0.0
7007,67.0,0,30,2.0,0.0
7008,68.0,0,120,2.0,0.0
7009,72.0,120,120,2.0,0.0
7010,80.0,0,120,0.0,0.0
7011,56.0,0,120,3.0,0.0
7012,75.0,0,120,1.0,0.0
7013,63.0,0,120,3.0,0.0
7014,68.0,60,60,11.0,0.0
7015,56.0,0,60,13.0,0.0
7016,72.0,56,60,11.0,0.0
7017,60.0,0,60,13.0,0.0
7018,63.0,64,60,13.0,0.0
7019,75.0,0,60,11.0,0.0
7020,68.0,0,300,12.0,0.0
7021,56.0,0,300,3.0,0.0
7022,53.0,4,360,14.0,0.0
7023,41.0,0,360,15.0,0.0
7024,44.0,0,300,3.0,0.0
7025,56.0,56,300,13.0,0.0
7026,63.0,0,60,13.0,0.0
7027,75.0,60,60,11.0,0.0
7028,73.0,176,60,11.0,0.0
7029,61.0,0,60,13.0,0.0
7030,72.0,0,180,11.0,0.0
7031,60.0,0,180,13.0,0.0
7032,56.0,0,60,13.0,0.0
7033,72.0,0,60,11.0,0.0
7034,60.0,64,60,3.0,0.0
7035,68.0,0,60,12.0,0.0
7036,60.0,0,60,13.0,0.0
7037,56.0,0,60,3.0,0.0
7038,61.0,0,120,3.0,0.0
7039,63.0,0,60,13.0,0.0
7040,79.0,0,60,11.0,0.0
7041,49.0,0,120,14.0,0.0
7042,65.0,0,120,3.0,0.0
7043,67.0,60,60,13.0,0.0
7044,37.0,0,120,15.0,0.0
7045,75.0,0,60,12.0,0.0
7046,77.0,0,60,11.0,0.0
7047,65.0,60,60,13.0,0.0
7048,61.0,0,60,13.0,0.0
7049,73.0,0,60,12.0,0.0
7050,75.0,0,60,11.0,0.0
7051,60.0,112,60,13.0,0.0
7052,60.0,0,180,3.0,0.0
7053,72.0,0,60,12.0,0.0
7054,44.0,0,60,15.0,0.0
7055,56.0,0,60,14.0,0.0
7056,63.0,0,60,13.0,0.0
7057,63.0,0,180,3.0,0.0
7058,75.0,0,120,11.0,0.0
7059,44.0,4,120,15.0,0.0
7060,72.0,0,120,12.0,0.0
7061,56.0,0,120,14.0,0.0
7062,63.0,0,120,13.0,0.0
7063,60.0,60,120,13.0,0.0
7064,44.0,0,60,15.0,0.0
7065,63.0,0,60,13.0,0.0
7066,60.0,0,60,3.0,0.0
7067,63.0,0,60,3.0,0.0
7068,51.0,0,60,13.0,0.0
7069,72.0,0,60,2.0,0.0
7070,75.0,0,60,2.0,0.0
7071,72.0,0,60,12.0,0.0
7072,75.0,64,60,1.0,0.0
7073,87.0,0,60,0.0,0.0
7074,56.0,0,60,14.0,0.0
7075,75.0,0,60,11.0,0.0
7076,75.0,52,60,11.0,0.0
7077,55.0,0,120,3.0,0.0
7078,63.0,0,60,3.0,0.0
7079,75.0,8,120,1.0,0.0
7080,67.0,60,120,12.0,0.0
7081,79.0,0,120,1.0,0.0
7082,87.0,0,60,0.0,0.0
7083,58.0,0,120,14.0,0.0
7084,63.0,0,120,13.0,0.0
7085,51.0,0,120,13.0,0.0
7086,46.0,0,120,15.0,0.0
7087,67.0,0,120,2.0,0.0
7088,75.0,0,60,2.0,0.0
7089,85.0,0,60,0.0,0.0
7090,61.0,0,60,3.0,0.0
7091,73.0,0,60,11.0,0.0
7092,73.0,0,60,2.0,0.0
7093,60.0,0,60,14.0,0.0
7094,68.0,0,180,2.0,0.0
7095,51.0,0,60,13.0,0.0
7096,63.0,0,60,13.0,0.0
7097,72.0,0,180,2.0,0.0
7098,48.0,0,60,15.0,0.0
7099,56.0,0,180,3.0,0.0
7100,75.0,0,180,1.0,0.0
7101,80.0,0,180,1.0,0.0
7102,84.0,0,180,0.0,0.0
7103,60.0,56,180,3.0,0.0
7104,68.0,0,60,12.0,0.0
7105,72.0,112,60,11.0,0.0
7106,63.0,0,120,13.0,0.0
7107,60.0,0,120,14.0,0.0
7108,48.0,4,120,15.0,0.0
7109,72.0,0,120,11.0,0.0
7110,68.0,0,120,12.0,0.0
7111,51.0,4,120,13.0,0.0
7112,63.0,120,60,12.0,0.0
7113,51.0,0,60,13.0,0.0
7114,48.0,0,60,14.0,0.0
7115,72.0,0,60,11.0,0.0
7116,36.0,4,60,15.0,0.0
7117,49.0,0,120,14.0,0.0
7118,61.0,0,120,12.0,0.0
7119,53.0,0,120,13.0,0.0
7120,70.0,360,120,11.0,0.0
7121,37.0,0,120,15.0,0.0
7122,39.0,0,120,15.0,0.0
7123,55.0,0,120,13.0,0.0
7124,63.0,0,120,11.0,0.0
7125,61.0,540,120,12.0,0.0
7126,51.0,0,120,14.0,0.0
7127,51.0,0,360,13.0,0.0
7128,68.0,0,360,11.0,0.0
7129,60.0,112,360,12.0,0.0
7130,44.0,0,360,14.0,0.0
7131,32.0,0,360,15.0,0.0
7132,63.0,0,60,2.0,0.0
7133,51.0,60,60,3.0,0.0
7134,56.0,0,60,3.0,0.0
7135,68.0,0,60,2.0,0.0
7136,32.0,0,240,15.0,0.0
7137,60.0,0,120,3.0,0.0
7138,51.0,0,240,13.0,0.0
7139,56.0,0,120,3.0,0.0
7140,44.0,0,240,14.0,0.0
7141,60.0,8,240,12.0,0.0
7142,72.0,68,120,2.0,0.0
7143,68.0,0,240,11.0,0.0
7144,68.0,0,120,2.0,0.0
7145,60.0,0,60,3.0,0.0
7146,56.0,52,60,3.0,0.0
7147,72.0,0,60,2.0,0.0
7148,68.0,0,60,2.0,0.0
7149,51.0,0,60,3.0,0.0
7150,58.0,0,60,3.0,0.0
7151,63.0,86,60,2.0,0.0
7152,70.0,0,60,2.0,0.0
7153,44.0,4,90,14.0,0.0
7154,60.0,0,90,12.0,0.0
7155,48.0,0,90,3.0,0.0
7156,56.0,0,90,3.0,0.0
7157,68.0,0,90,11.0,0.0
7158,51.0,0,90,13.0,0.0
7159,32.0,0,90,15.0,0.0
7160,68.0,26,90,2.0,0.0
7161,60.0,0,90,2.0,0.0
7162,68.0,0,30,2.0,0.0
7163,60.0,0,30,3.0,0.0
7164,56.0,232,30,3.0,0.0
7165,72.0,0,30,2.0,0.0
7166,32.0,0,30,15.0,0.0
7167,68.0,4,30,12.0,0.0
7168,72.0,0,30,11.0,0.0
7169,51.0,0,30,13.0,0.0
7170,44.0,0,30,14.0,0.0
7171,44.0,0,360,14.0,0.0
7172,63.0,0,240,3.0,0.0
7173,72.0,0,240,2.0,0.0
7174,75.0,68,240,2.0,0.0
7175,51.0,0,360,13.0,0.0
7176,32.0,112,360,15.0,0.0
7177,75.0,0,360,11.0,0.0
7178,60.0,0,240,3.0,0.0
7179,72.0,0,360,12.0,0.0
7180,68.0,0,60,2.0,0.0
7181,48.0,0,60,3.0,0.0
7182,56.0,0,60,3.0,0.0
7183,60.0,60,60,2.0,0.0
7184,72.0,0,60,2.0,0.0
7185,60.0,0,60,3.0,0.0
7186,56.0,0,60,3.0,0.0
7187,68.0,0,60,2.0,0.0
7188,63.0,68,120,3.0,0.0
7189,60.0,0,120,3.0,0.0
7190,51.0,0,240,13.0,0.0
7191,72.0,0,120,2.0,0.0
7192,44.0,0,240,14.0,0.0
7193,75.0,0,240,11.0,0.0
7194,75.0,0,120,2.0,0.0
7195,72.0,8,240,12.0,0.0
7196,32.0,0,240,15.0,0.0
7197,63.0,0,60,3.0,0.0
7198,75.0,0,60,2.0,0.0
7199,60.0,0,60,3.0,0.0
7200,72.0,52,60,2.0,0.0
7201,61.0,0,60,3.0,0.0
7202,70.0,0,60,2.0,0.0
7203,73.0,86,60,2.0,0.0
7204,58.0,0,60,3.0,0.0
7205,51.0,0,90,13.0,0.0
7206,68.0,0,90,2.0,0.0
7207,60.0,26,90,3.0,0.0
7208,56.0,0,90,3.0,0.0
7209,72.0,0,90,11.0,0.0
7210,68.0,0,90,12.0,0.0
7211,72.0,0,90,2.0,0.0
7212,44.0,0,90,14.0,0.0
7213,32.0,4,90,15.0,0.0
7214,72.0,0,30,12.0,0.0
7215,75.0,0,30,2.0,0.0
7216,72.0,0,30,2.0,0.0
7217,44.0,0,30,14.0,0.0
7218,75.0,232,30,11.0,0.0
7219,60.0,4,30,3.0,0.0
7220,32.0,0,30,15.0,0.0
7221,63.0,0,30,3.0,0.0
7222,51.0,0,30,13.0,0.0
7223,80.0,0,720,2.0,0.0
7224,72.0,0,720,2.0,0.0
7225,44.0,0,360,14.0,0.0
7226,51.0,0,360,13.0,0.0
7227,63.0,0,720,3.0,0.0
7228,56.0,0,720,3.0,0.0
7229,80.0,98,240,11.0,0.0
7230,72.0,0,360,12.0,0.0
7231,32.0,232,360,15.0,0.0
7232,72.0,30,90,11.0,0.0
7233,75.0,0,30,11.0,0.0
7234,44.0,0,360,14.0,0.0
7235,72.0,8,240,12.0,0.0
7236,80.0,90,240,11.0,0.0
7237,51.0,232,360,13.0,0.0
7238,32.0,0,360,15.0,0.0
7239,60.0,26,90,12.0,0.0
7240,63.0,4,30,12.0,0.0
7241,80.0,0,720,2.0,0.0
7242,56.0,0,720,3.0,0.0
7243,51.0,0,240,13.0,0.0
7244,32.0,0,240,15.0,0.0
7245,72.0,8,720,2.0,0.0
7246,68.0,90,240,12.0,0.0
7247,63.0,0,720,3.0,0.0
7248,44.0,8,240,14.0,0.0
7249,36.0,0,90,15.0,0.0
7250,48.0,0,90,13.0,0.0
7251,36.0,30,90,14.0,0.0
7252,39.0,232,30,15.0,0.0
7253,51.0,0,30,13.0,0.0
7254,39.0,0,30,14.0,0.0
7255,44.0,98,240,14.0,0.0
7256,56.0,0,240,13.0,0.0
7257,44.0,0,240,15.0,0.0
7258,36.0,22,90,15.0,0.0
7259,36.0,0,90,14.0,0.0
7260,48.0,0,90,13.0,0.0
7261,39.0,112,30,15.0,0.0
7262,39.0,0,30,14.0,0.0
7263,51.0,0,30,13.0,0.0
7264,44.0,0,120,14.0,0.0
7265,56.0,0,120,3.0,0.0
7266,44.0,0,120,15.0,0.0
7267,56.0,0,120,13.0,0.0
7268,63.0,98,120,3.0,0.0
7269,80.0,0,120,2.0,0.0
7270,72.0,0,120,2.0,0.0
7271,72.0,0,120,2.0,0.0
7272,80.0,8,120,2.0,0.0
7273,36.0,0,90,15.0,0.0
7274,48.0,0,90,13.0,0.0
7275,56.0,0,120,3.0,0.0
7276,36.0,22,90,14.0,0.0
7277,63.0,0,120,3.0,0.0
7278,39.0,112,30,14.0,0.0
7279,39.0,0,30,15.0,0.0
7280,51.0,0,30,13.0,0.0
7281,72.0,0,120,2.0,0.0
7282,80.0,0,120,2.0,0.0
7283,56.0,98,120,3.0,0.0
7284,63.0,0,120,3.0,0.0
7285,56.0,0,120,13.0,0.0
7286,44.0,0,120,15.0,0.0
7287,44.0,0,120,14.0,0.0
7288,80.0,0,120,2.0,0.0
7289,72.0,0,120,2.0,0.0
7290,63.0,8,120,3.0,0.0
7291,56.0,0,120,3.0,0.0
7292,36.0,0,90,15.0,0.0
7293,36.0,0,90,14.0,0.0
7294,48.0,22,90,13.0,0.0
7295,51.0,112,30,13.0,0.0
7296,39.0,0,30,14.0,0.0
7297,39.0,0,30,15.0,0.0
7298,44.0,0,120,15.0,0.0
7299,56.0,0,120,13.0,0.0
7300,72.0,0,120,2.0,0.0
7301,80.0,0,120,2.0,0.0
7302,44.0,0,120,14.0,0.0
7303,63.0,98,120,3.0,0.0
7304,56.0,0,120,3.0,0.0
7305,48.0,22,90,13.0,0.0
7306,56.0,8,120,3.0,0.0
7307,63.0,0,120,3.0,0.0
7308,80.0,0,120,2.0,0.0
7309,72.0,0,120,2.0,0.0
7310,36.0,0,90,15.0,0.0
7311,36.0,0,90,14.0,0.0
7312,51.0,32,30,13.0,0.0
7313,39.0,0,30,15.0,0.0
7314,39.0,0,30,14.0,0.0
7315,63.0,0,40,3.0,0.0
7316,56.0,4,30,13.0,0.0
7317,44.0,0,30,14.0,0.0
7318,80.0,0,40,2.0,0.0
7319,44.0,0,30,15.0,0.0
7320,56.0,0,40,3.0,0.0
7321,72.0,36,40,2.0,0.0
7322,36.0,0,30,14.0,0.0
7323,72.0,36,40,2.0,0.0
7324,63.0,0,40,3.0,0.0
7325,56.0,0,40,3.0,0.0
7326,36.0,0,30,15.0,0.0
7327,48.0,4,30,13.0,0.0
7328,80.0,0,40,2.0,0.0
7329,63.0,0,40,3.0,0.0
7330,56.0,0,40,3.0,0.0
7331,39.0,0,30,14.0,0.0
7332,39.0,0,30,15.0,0.0
7333,51.0,4,30,13.0,0.0
7334,80.0,0,40,2.0,0.0
7335,72.0,36,40,2.0,0.0
7336,56.0,4,30,13.0,0.0
7337,63.0,0,40,3.0,0.0
7338,72.0,36,40,2.0,0.0
7339,44.0,0,30,14.0,0.0
7340,80.0,0,40,2.0,0.0
7341,44.0,0,30,15.0,0.0
7342,56.0,0,40,3.0,0.0
7343,36.0,0,30,15.0,0.0
7344,63.0,36,40,3.0,0.0
7345,48.0,4,30,13.0,0.0
7346,56.0,0,40,3.0,0.0
7347,36.0,0,30,14.0,0.0
7348,80.0,0,40,2.0,0.0
7349,72.0,0,40,2.0,0.0
7350,80.0,36,40,2.0,0.0
7351,72.0,0,40,2.0,0.0
7352,51.0,0,30,13.0,0.0
7353,39.0,4,30,15.0,0.0
7354,56.0,0,40,3.0,0.0
7355,39.0,0,30,14.0,0.0
7356,63.0,0,40,3.0,0.0
7357,56.0,0,40,3.0,0.0
7358,44.0,4,30,14.0,0.0
7359,63.0,0,40,3.0,0.0
7360,56.0,0,30,13.0,0.0
7361,44.0,0,30,15.0,0.0
7362,72.0,0,40,2.0,0.0
7363,80.0,36,40,2.0,0.0
7364,72.0,36,40,2.0,0.0
7365,80.0,0,40,2.0,0.0
7366,36.0,0,30,14.0,0.0
7367,48.0,0,30,13.0,0.0
7368,56.0,0,40,3.0,0.0
7369,36.0,4,30,15.0,0.0
7370,63.0,0,40,3.0,0.0
7371,56.0,0,40,3.0,0.0
7372,39.0,0,30,15.0,0.0
7373,80.0,0,40,2.0,0.0
7374,72.0,36,40,2.0,0.0
7375,39.0,4,30,14.0,0.0
7376,51.0,0,30,13.0,0.0
7377,63.0,0,40,3.0,0.0
7378,63.0,0,40,3.0,0.0
7379,56.0,0,30,13.0,0.0
7380,72.0,36,40,2.0,0.0
7381,80.0,0,40,2.0,0.0
7382,56.0,0,40,3.0,0.0
7383,44.0,0,30,14.0,0.0
7384,44.0,4,30,15.0,0.0
7385,48.0,4,30,13.0,0.0
7386,36.0,0,30,14.0,0.0
7387,72.0,0,40,2.0,0.0
7388,80.0,0,40,2.0,0.0
7389,36.0,0,30,15.0,0.0
7390,63.0,36,40,3.0,0.0
7391,56.0,0,40,3.0,0.0
7392,63.0,0,40,3.0,0.0
7393,80.0,0,40,2.0,0.0
7394,72.0,0,40,2.0,0.0
7395,56.0,36,40,3.0,0.0
7396,51.0,4,30,13.0,0.0
7397,39.0,0,30,15.0,0.0
7398,39.0,0,30,14.0,0.0
7399,56.0,4,30,13.0,0.0
7400,80.0,0,40,2.0,0.0
7401,56.0,0,40,3.0,0.0
7402,63.0,36,40,3.0,0.0
7403,44.0,0,30,14.0,0.0
7404,72.0,0,40,2.0,0.0
7405,32.0,0,30,15.0,0.0
7406,80.0,0,40,2.0,0.0
7407,60.0,4,30,13.0,0.0
7408,72.0,36,40,2.0,0.0
7409,56.0,0,40,3.0,0.0
7410,63.0,0,40,3.0,0.0
7411,36.0,0,30,15.0,0.0
7412,48.0,0,30,14.0,0.0
7413,51.0,0,30,14.0,0.0
7414,80.0,0,40,2.0,0.0
7415,72.0,0,40,2.0,0.0
7416,63.0,4,30,13.0,0.0
7417,56.0,36,40,3.0,0.0
7418,39.0,0,30,15.0,0.0
7419,63.0,0,40,3.0,0.0
7420,75.0,0,40,1.0,0.0
7421,72.0,0,40,1.0,0.0
7422,48.0,32,40,6.0,0.0
7423,80.0,0,40,0.0,0.0
7424,44.0,0,30,15.0,0.0
7425,60.0,0,40,5.0,0.0
7426,68.0,0,30,11.0,0.0
7427,72.0,0,40,2.0,0.0
7428,80.0,0,40,2.0,0.0
7429,56.0,4,30,14.0,0.0
7430,68.0,0,30,12.0,0.0
7431,68.0,0,30,13.0,0.0
7432,72.0,0,40,5.0,0.0
7433,63.0,4,40,3.0,0.0
7434,56.0,0,40,3.0,0.0
7435,60.0,0,40,4.0,0.0
7436,56.0,4,40,3.0,0.0
7437,80.0,0,40,2.0,0.0
7438,72.0,0,40,2.0,0.0
7439,56.0,0,30,14.0,0.0
7440,63.0,4,30,13.0,0.0
7441,60.0,0,30,13.0,0.0
7442,60.0,32,40,5.0,0.0
7443,72.0,0,40,5.0,0.0
7444,44.0,0,30,15.0,0.0
7445,63.0,0,40,3.0,0.0
7446,60.0,0,40,4.0,0.0
7447,75.0,0,40,1.0,0.0
7448,80.0,0,40,0.0,0.0
7449,48.0,0,40,6.0,0.0
7450,60.0,0,30,11.0,0.0
7451,60.0,0,30,12.0,0.0
7452,72.0,0,40,1.0,0.0
7453,60.0,0,40,4.0,0.0
7454,63.0,0,30,11.0,0.0
7455,75.0,0,40,1.0,0.0
7456,72.0,0,40,1.0,0.0
7457,56.0,0,30,14.0,0.0
7458,48.0,32,40,6.0,0.0
7459,60.0,0,40,5.0,0.0
7460,80.0,0,40,2.0,0.0
7461,72.0,0,40,5.0,0.0
7462,56.0,0,40,3.0,0.0
7463,63.0,0,40,3.0,0.0
7464,63.0,0,30,12.0,0.0
7465,63.0,4,30,13.0,0.0
7466,60.0,0,30,13.0,0.0
7467,72.0,0,40,2.0,0.0
7468,44.0,0,30,15.0,0.0
7469,80.0,4,40,0.0,0.0
7470,56.0,0,30,14.0,0.0
7471,80.0,0,40,2.0,0.0
7472,72.0,0,40,2.0,0.0
7473,75.0,0,40,1.0,0.0
7474,72.0,0,40,1.0,0.0
7475,68.0,0,30,12.0,0.0
7476,63.0,0,40,3.0,0.0
7477,56.0,36,40,3.0,0.0
7478,63.0,0,30,13.0,0.0
7479,44.0,0,30,15.0,0.0
7480,60.0,0,120,5.0,0.0
7481,60.0,4,30,13.0,0.0
7482,72.0,0,120,5.0,0.0
7483,60.0,0,40,4.0,0.0
7484,48.0,32,120,6.0,0.0
7485,80.0,0,40,0.0,0.0
7486,68.0,0,30,11.0,0.0
7487,72.0,0,30,12.0,0.0
7488,63.0,0,30,12.0,0.0
7489,60.0,4,30,13.0,0.0
7490,63.0,0,30,13.0,0.0
7491,56.0,0,30,14.0,0.0
7492,60.0,0,40,4.0,0.0
7493,72.0,0,40,2.0,0.0
7494,72.0,0,40,1.0,0.0
7495,75.0,0,40,1.0,0.0
7496,44.0,0,30,15.0,0.0
7497,80.0,36,40,0.0,0.0
7498,63.0,0,40,3.0,0.0
7499,56.0,0,40,3.0,0.0
7500,60.0,0,30,11.0,0.0
7501,80.0,0,40,2.0,0.0
7502,80.0,0,40,0.0,0.0
7503,63.0,0,30,12.0,0.0
7504,44.0,0,30,15.0,0.0
7505,63.0,0,40,3.0,0.0
7506,56.0,0,40,3.0,0.0
7507,72.0,0,30,12.0,0.0
7508,80.0,0,40,2.0,0.0
7509,56.0,4,30,14.0,0.0
7510,60.0,0,40,4.0,0.0
7511,75.0,4,40,1.0,0.0
7512,72.0,0,40,2.0,0.0
7513,60.0,0,30,13.0,0.0
7514,72.0,0,40,1.0,0.0
7515,63.0,0,30,11.0,0.0
7516,63.0,0,30,13.0,0.0
7517,63.0,0,40,3.0,0.0
7518,60.0,0,40,4.0,0.0
7519,80.0,0,40,2.0,0.0
7520,60.0,0,30,13.0,0.0
7521,63.0,0,30,13.0,0.0
7522,39.0,0,30,15.0,0.0
7523,72.0,0,40,2.0,0.0
7524,51.0,0,30,14.0,0.0
7525,56.0,36,40,3.0,0.0
7526,68.0,0,30,11.0,0.0
7527,63.0,0,30,12.0,0.0
7528,48.0,30,120,6.0,0.0
7529,72.0,4,30,12.0,0.0
7530,60.0,0,120,5.0,0.0
7531,72.0,0,120,5.0,0.0
7532,80.0,0,40,0.0,0.0
7533,72.0,0,40,1.0,0.0
7534,75.0,0,40,1.0,0.0
7535,75.0,0,40,1.0,0.0
7536,72.0,0,40,1.0,0.0
7537,63.0,0,30,13.0,0.0
7538,72.0,0,30,11.0,0.0
7539,72.0,0,40,2.0,0.0
7540,56.0,0,40,3.0,0.0
7541,63.0,0,40,3.0,0.0
7542,80.0,36,40,2.0,0.0
7543,39.0,0,30,15.0,0.0
7544,60.0,0,30,13.0,0.0
7545,63.0,0,30,12.0,0.0
7546,60.0,0,40,4.0,0.0
7547,82.0,0,40,0.0,0.0
7548,72.0,4,30,12.0,0.0
7549,51.0,0,30,14.0,0.0
7550,39.0,0,30,15.0,0.0
7551,51.0,0,30,14.0,0.0
7552,72.0,0,30,12.0,0.0
7553,63.0,0,30,13.0,0.0
7554,60.0,4,30,13.0,0.0
7555,75.0,0,30,11.0,0.0
7556,60.0,4,40,4.0,0.0
7557,80.0,0,40,2.0,0.0
7558,56.0,0,40,3.0,0.0
7559,72.0,0,40,1.0,0.0
7560,75.0,0,40,1.0,0.0
7561,63.0,0,40,3.0,0.0
7562,63.0,0,30,12.0,0.0
7563,80.0,0,40,0.0,0.0
7564,72.0,0,40,2.0,0.0
7565,72.0,0,40,11.0,0.0
7566,48.0,0,30,14.0,0.0
7567,56.0,2,30,3.0,0.0
7568,80.0,0,40,11.0,0.0
7569,72.0,0,120,5.0,0.0
7570,48.0,120,120,6.0,0.0
7571,60.0,0,40,4.0,0.0
7572,63.0,0,30,13.0,0.0
7573,60.0,0,30,13.0,0.0
7574,36.0,0,30,15.0,0.0
7575,72.0,0,30,12.0,0.0
7576,72.0,0,40,1.0,0.0
7577,75.0,34,40,1.0,0.0
7578,63.0,4,30,12.0,0.0
7579,80.0,0,30,0.0,0.0
7580,60.0,0,120,5.0,0.0
7581,68.0,0,30,2.0,0.0
7582,72.0,0,30,12.0,0.0
7583,36.0,0,30,15.0,0.0
7584,72.0,0,40,11.0,0.0
7585,80.0,0,40,11.0,0.0
7586,60.0,0,40,4.0,0.0
7587,72.0,34,40,1.0,0.0
7588,75.0,0,40,1.0,0.0
7589,48.0,0,30,14.0,0.0
7590,72.0,0,30,2.0,0.0
7591,60.0,0,30,13.0,0.0
7592,63.0,4,30,13.0,0.0
7593,63.0,0,30,12.0,0.0
7594,72.0,0,30,0.0,0.0
7595,84.0,0,30,0.0,0.0
7596,60.0,2,30,3.0,0.0
7597,48.0,0,30,14.0,0.0
7598,75.0,2,30,0.0,0.0
7599,75.0,4,40,1.0,0.0
7600,72.0,0,40,1.0,0.0
7601,60.0,4,30,13.0,0.0
7602,80.0,0,40,11.0,0.0
7603,75.0,0,30,2.0,0.0
7604,63.0,0,30,12.0,0.0
7605,63.0,0,30,13.0,0.0
7606,87.0,0,30,0.0,0.0
7607,60.0,0,40,4.0,0.0
7608,63.0,0,30,3.0,0.0
7609,36.0,0,30,15.0,0.0
7610,72.0,0,40,11.0,0.0
7611,72.0,0,30,12.0,0.0
7612,80.0,0,120,0.0,0.0
7613,63.0,0,120,12.0,0.0
7614,72.0,0,120,12.0,0.0
7615,92.0,0,120,0.0,0.0
7616,80.0,0,120,2.0,0.0
7617,44.0,0,120,14.0,0.0
7618,56.0,0,120,3.0,0.0
7619,68.0,206,120,3.0,0.0
7620,68.0,0,120,2.0,0.0
7621,60.0,0,120,13.0,0.0
7622,80.0,0,120,11.0,0.0
7623,60.0,0,120,4.0,0.0
7624,72.0,0,120,1.0,0.0
7625,75.0,0,120,1.0,0.0
7626,72.0,0,120,5.0,0.0
7627,60.0,0,120,5.0,0.0
7628,48.0,0,120,6.0,0.0
7629,72.0,0,120,11.0,0.0
7630,63.0,0,120,13.0,0.0
7631,32.0,0,120,15.0,0.0
7632,68.0,0,90,2.0,0.0
7633,56.0,0,90,3.0,0.0
7634,80.0,30,90,0.0,0.0
7635,84.0,0,30,0.0,0.0
7636,60.0,124,30,3.0,0.0
7637,72.0,0,30,2.0,0.0
7638,63.0,0,330,3.0,0.0
7639,63.0,0,120,13.0,0.0
7640,39.0,0,120,15.0,0.0
7641,63.0,0,120,12.0,0.0
7642,70.0,0,120,12.0,0.0
7643,79.0,0,120,12.0,0.0
7644,75.0,135,330,1.0,0.0
7645,75.0,0,330,0.0,0.0
7646,75.0,0,120,11.0,0.0
7647,75.0,0,330,2.0,0.0
7648,67.0,0,120,11.0,0.0
7649,82.0,0,120,11.0,0.0
7650,51.0,225,120,14.0,0.0
7651,87.0,0,330,0.0,0.0
7652,68.0,0,120,11.0,0.0
7653,72.0,0,120,2.0,0.0
7654,60.0,0,120,4.0,0.0
7655,48.0,0,120,6.0,0.0
7656,44.0,0,120,15.0,0.0
7657,56.0,0,120,14.0,0.0
7658,72.0,0,120,5.0,0.0
7659,84.0,0,120,0.0,0.0
7660,72.0,0,120,0.0,0.0
7661,68.0,0,120,13.0,0.0
7662,60.0,0,120,5.0,0.0
7663,72.0,0,120,1.0,0.0
7664,72.0,0,120,12.0,0.0
7665,60.0,0,120,3.0,0.0
7666,63.0,0,120,12.0,0.0
7667,84.0,0,120,11.0,0.0
7668,75.0,0,120,11.0,0.0
7669,80.0,210,120,12.0,0.0
7670,63.0,0,90,12.0,0.0
7671,79.0,0,90,0.0,0.0
7672,87.0,0,90,0.0,0.0
7673,82.0,0,90,11.0,0.0
7674,67.0,0,90,11.0,0.0
7675,75.0,0,90,11.0,0.0
7676,63.0,120,90,13.0,0.0
7677,75.0,0,90,1.0,0.0
7678,67.0,0,90,1.0,0.0
7679,67.0,0,90,2.0,0.0
7680,70.0,0,90,12.0,0.0
7681,51.0,0,90,14.0,0.0
7682,70.0,0,90,2.0,0.0
7683,63.0,0,90,3.0,0.0
7684,55.0,0,90,3.0,0.0
7685,39.0,0,90,15.0,0.0
7686,79.0,0,90,12.0,0.0
7687,68.0,0,90,13.0,0.0
7688,44.0,0,90,15.0,0.0
7689,84.0,0,90,0.0,0.0
7690,72.0,0,90,2.0,0.0
7691,75.0,0,90,11.0,0.0
7692,68.0,0,90,11.0,0.0
7693,84.0,0,90,11.0,0.0
7694,68.0,0,90,2.0,0.0
7695,56.0,0,90,14.0,0.0
7696,56.0,0,90,3.0,0.0
7697,63.0,0,90,12.0,0.0
7698,72.0,0,90,12.0,0.0
7699,80.0,0,90,12.0,0.0
7700,68.0,0,90,1.0,0.0
7701,72.0,0,90,1.0,0.0
7702,80.0,236,90,0.0,0.0
7703,60.0,0,90,3.0,0.0
7704,80.0,0,90,0.0,0.0
7705,56.0,30,90,3.0,0.0
7706,68.0,0,90,2.0,0.0
7707,68.0,0,90,1.0,0.0
7708,72.0,0,30,2.0,0.0
7709,84.0,0,30,0.0,0.0
7710,60.0,0,30,3.0,0.0
7711,72.0,124,30,1.0,0.0
7712,75.0,0,360,0.0,0.0
7713,79.0,0,120,12.0,0.0
7714,70.0,0,120,12.0,0.0
7715,63.0,0,120,12.0,0.0
7716,39.0,0,120,15.0,0.0
7717,87.0,0,360,0.0,0.0
7718,75.0,0,360,1.0,0.0
7719,51.0,232,120,14.0,0.0
7720,63.0,0,120,13.0,0.0
7721,79.0,0,120,11.0,0.0
7722,70.0,0,120,11.0,0.0
7723,63.0,0,120,11.0,0.0
7724,75.0,128,360,2.0,0.0
7725,63.0,0,360,3.0,0.0
7726,72.0,0,120,12.0,0.0
7727,63.0,0,120,12.0,0.0
7728,56.0,0,120,11.0,0.0
7729,56.0,0,120,12.0,0.0
7730,80.0,0,120,11.0,0.0
7731,32.0,0,120,15.0,0.0
7732,80.0,0,120,12.0,0.0
7733,48.0,0,120,6.0,0.0
7734,60.0,0,120,5.0,0.0
7735,72.0,0,120,5.0,0.0
7736,80.0,0,120,0.0,0.0
7737,68.0,0,120,0.0,0.0
7738,56.0,0,120,13.0,0.0
7739,60.0,301,120,4.0,0.0
7740,56.0,0,120,3.0,0.0
7741,80.0,0,120,1.0,0.0
7742,72.0,0,120,1.0,0.0
7743,44.0,0,120,14.0,0.0
7744,68.0,0,120,2.0,0.0
7745,63.0,0,120,11.0,0.0
7746,72.0,0,120,11.0,0.0
7747,79.0,0,60,2.0,0.0
