,note,step,duration,channel,velocity
0,55.0,0,90,3.0,0.0
1,59.0,0,15,1.0,0.0
2,67.0,0,15,0.0,0.0
3,43.0,0,15,4.0,0.0
4,62.0,30,15,2.0,0.0
5,55.0,0,30,3.0,0.0
6,62.0,0,15,2.0,0.0
7,69.0,60,120,0.0,0.0
8,38.0,0,120,4.0,0.0
9,50.0,0,120,3.0,0.0
10,66.0,0,120,1.0,0.0
11,43.0,0,60,4.0,0.0
12,67.0,0,60,1.0,0.0
13,55.0,0,60,3.0,0.0
14,71.0,270,60,0.0,0.0
15,55.0,0,90,3.0,0.0
16,43.0,0,90,4.0,0.0
17,59.0,0,15,1.0,0.0
18,67.0,30,15,0.0,0.0
19,43.0,0,30,4.0,0.0
20,62.0,0,15,2.0,0.0
21,55.0,120,30,3.0,0.0
22,69.0,0,120,0.0,0.0
23,50.0,60,120,3.0,0.0
24,66.0,0,120,1.0,0.0
25,62.0,0,180,2.0,0.0
26,38.0,0,120,4.0,0.0
27,43.0,0,60,4.0,0.0
28,71.0,0,60,0.0,0.0
29,55.0,0,60,3.0,0.0
30,67.0,270,60,1.0,0.0
31,59.0,0,90,1.0,0.0
32,71.0,0,90,0.0,0.0
33,59.0,0,90,2.0,0.0
34,43.0,0,15,4.0,0.0
35,71.0,0,30,0.0,0.0
36,59.0,120,30,2.0,0.0
37,59.0,0,30,1.0,0.0
38,55.0,30,15,3.0,0.0
39,79.0,0,120,0.0,0.0
40,67.0,0,120,1.0,0.0
41,55.0,0,120,3.0,0.0
42,59.0,120,120,2.0,0.0
43,43.0,0,120,4.0,0.0
44,64.0,0,120,1.0,0.0
45,76.0,0,120,0.0,0.0
46,59.0,0,120,2.0,0.0
47,59.0,0,120,2.0,0.0
48,71.0,120,120,0.0,0.0
49,55.0,0,15,3.0,0.0
50,43.0,120,15,4.0,0.0
51,59.0,0,120,1.0,0.0
52,66.0,360,120,1.0,0.0
53,58.0,0,120,2.0,0.0
54,42.0,0,120,4.0,0.0
55,58.0,0,360,2.0,0.0
56,54.0,0,15,3.0,0.0
57,73.0,0,15,0.0,0.0
58,66.0,0,360,1.0,0.0
59,54.0,0,15,3.0,0.0
60,42.0,90,15,4.0,0.0
61,78.0,0,90,0.0,0.0
62,70.0,0,90,1.0,0.0
63,73.0,0,30,0.0,0.0
64,42.0,0,15,4.0,0.0
65,54.0,0,30,3.0,0.0
66,66.0,30,15,2.0,0.0
67,70.0,120,30,1.0,0.0
68,75.0,0,120,0.0,0.0
69,66.0,0,15,2.0,0.0
70,35.0,0,120,4.0,0.0
71,69.0,0,120,1.0,0.0
72,47.0,60,120,3.0,0.0
73,68.0,0,60,1.0,0.0
74,76.0,270,60,0.0,0.0
75,52.0,0,60,3.0,0.0
76,64.0,0,60,2.0,0.0
77,40.0,0,60,4.0,0.0
78,76.0,0,90,0.0,0.0
79,67.0,0,90,1.0,0.0
80,71.0,0,30,0.0,0.0
81,52.0,30,15,3.0,0.0
82,40.0,0,15,4.0,0.0
83,67.0,120,30,1.0,0.0
84,64.0,0,15,2.0,0.0
85,64.0,0,15,2.0,0.0
86,73.0,0,120,0.0,0.0
87,33.0,0,120,4.0,0.0
88,45.0,0,120,3.0,0.0
89,67.0,0,120,1.0,0.0
90,74.0,120,480,0.0,0.0
91,50.0,0,600,3.0,0.0
92,62.0,120,120,2.0,0.0
93,66.0,0,120,1.0,0.0
94,67.0,0,120,1.0,0.0
95,64.0,120,120,2.0,0.0
96,68.0,120,120,1.0,0.0
97,65.0,0,120,2.0,0.0
98,66.0,0,240,2.0,0.0
99,69.0,0,240,1.0,0.0
100,72.0,0,120,0.0,0.0
101,60.0,0,120,2.0,0.0
102,69.0,120,120,0.0,0.0
103,38.0,120,15,4.0,0.0
104,66.0,0,240,1.0,0.0
105,50.0,0,240,3.0,0.0
106,62.0,240,120,2.0,0.0
107,71.0,0,120,0.0,0.0
108,31.0,0,240,4.0,0.0
109,43.0,0,240,3.0,0.0
110,67.0,0,240,1.0,0.0
111,67.0,0,240,0.0,0.0
112,59.0,60,240,2.0,0.0
113,62.0,60,60,0.0,0.0
114,62.0,0,240,1.0,0.0
115,35.0,0,240,4.0,0.0
116,47.0,120,240,3.0,0.0
117,50.0,0,60,2.0,0.0
118,67.0,60,60,0.0,0.0
119,55.0,0,60,2.0,0.0
120,59.0,0,60,2.0,0.0
121,71.0,60,60,0.0,0.0
122,62.0,0,60,2.0,0.0
123,74.0,0,60,0.0,0.0
124,62.0,60,120,2.0,0.0
125,74.0,0,120,0.0,0.0
126,36.0,0,240,4.0,0.0
127,64.0,60,240,1.0,0.0
128,48.0,0,240,3.0,0.0
129,60.0,0,60,2.0,0.0
130,72.0,60,60,0.0,0.0
131,59.0,0,60,2.0,0.0
132,71.0,0,60,0.0,0.0
133,38.0,0,240,4.0,0.0
134,66.0,60,240,1.0,0.0
135,69.0,60,60,0.0,0.0
136,57.0,0,60,2.0,0.0
137,50.0,0,240,3.0,0.0
138,60.0,60,60,2.0,0.0
139,72.0,0,60,0.0,0.0
140,71.0,0,60,0.0,0.0
141,59.0,60,60,2.0,0.0
142,57.0,0,60,2.0,0.0
143,69.0,0,60,0.0,0.0
144,67.0,0,60,0.0,0.0
145,55.0,0,60,2.0,0.0
146,31.0,0,60,4.0,0.0
147,67.0,0,60,1.0,0.0
148,59.0,0,60,1.0,0.0
149,43.0,120,60,3.0,0.0
150,31.0,0,60,4.0,0.0
151,43.0,0,60,3.0,0.0
152,62.0,0,60,0.0,0.0
153,59.0,120,60,1.0,0.0
154,50.0,0,60,2.0,0.0
155,50.0,0,60,2.0,0.0
156,31.0,0,60,4.0,0.0
157,55.0,0,60,1.0,0.0
158,43.0,150,60,3.0,0.0
159,59.0,0,60,0.0,0.0
160,59.0,30,90,10.0,0.0
161,67.0,0,15,10.0,0.0
162,59.0,60,30,10.0,0.0
163,62.0,0,120,10.0,0.0
164,69.0,0,120,10.0,0.0
165,74.0,30,30,13.0,0.0
166,78.0,30,30,13.0,0.0
167,81.0,20,30,13.0,0.0
168,67.0,0,60,10.0,0.0
169,71.0,20,60,10.0,0.0
170,83.0,30,20,13.0,0.0
171,74.0,10,20,13.0,0.0
172,79.0,30,20,13.0,0.0
173,83.0,130,20,13.0,0.0
174,86.0,90,120,13.0,0.0
175,67.0,0,90,10.0,0.0
176,62.0,0,90,0.0,0.0
177,67.0,0,15,14.0,0.0
178,59.0,0,15,1.0,0.0
179,67.0,0,30,10.0,0.0
180,59.0,30,15,10.0,0.0
181,62.0,60,30,0.0,0.0
182,62.0,0,120,1.0,0.0
183,69.0,0,120,10.0,0.0
184,62.0,0,120,10.0,0.0
185,66.0,20,120,0.0,0.0
186,69.0,0,120,14.0,0.0
187,74.0,30,30,13.0,0.0
188,78.0,30,30,13.0,0.0
189,81.0,0,30,13.0,0.0
190,67.0,0,60,10.0,0.0
191,71.0,0,60,10.0,0.0
192,83.0,30,20,13.0,0.0
193,67.0,0,60,0.0,0.0
194,71.0,20,60,14.0,0.0
195,55.0,0,60,1.0,0.0
196,74.0,10,20,13.0,0.0
197,79.0,30,20,13.0,0.0
198,83.0,130,20,13.0,0.0
199,86.0,90,120,13.0,0.0
200,71.0,0,90,0.0,0.0
201,71.0,0,15,14.0,0.0
202,67.0,30,15,1.0,0.0
203,71.0,0,30,0.0,0.0
204,71.0,60,120,0.0,0.0
205,79.0,0,120,14.0,0.0
206,91.0,30,120,13.0,0.0
207,76.0,0,120,14.0,0.0
208,67.0,0,15,1.0,0.0
209,90.0,30,30,13.0,0.0
210,88.0,0,15,13.0,0.0
211,67.0,0,120,1.0,0.0
212,71.0,0,120,14.0,0.0
213,71.0,30,15,0.0,0.0
214,86.0,30,30,13.0,0.0
215,85.0,30,30,13.0,0.0
216,83.0,30,30,13.0,0.0
217,82.0,20,30,13.0,0.0
218,73.0,0,120,14.0,0.0
219,70.0,8,120,0.0,0.0
220,90.0,30,20,13.0,0.0
221,90.0,30,20,13.0,0.0
222,90.0,10,20,13.0,0.0
223,73.0,0,120,14.0,0.0
224,66.0,0,15,1.0,0.0
225,70.0,0,120,0.0,0.0
226,92.0,7,15,13.0,0.0
227,90.0,8,15,13.0,0.0
228,92.0,7,15,13.0,0.0
229,90.0,8,15,13.0,0.0
230,92.0,7,15,13.0,0.0
231,90.0,8,15,13.0,0.0
232,92.0,7,15,13.0,0.0
233,90.0,8,15,13.0,0.0
234,92.0,7,15,13.0,0.0
235,90.0,8,15,13.0,0.0
236,92.0,7,15,13.0,0.0
237,90.0,8,15,13.0,0.0
238,92.0,7,15,13.0,0.0
239,90.0,8,15,13.0,0.0
240,92.0,7,15,13.0,0.0
241,90.0,8,15,13.0,0.0
242,92.0,7,15,13.0,0.0
243,90.0,8,15,13.0,0.0
244,92.0,7,15,13.0,0.0
245,90.0,8,15,13.0,0.0
246,92.0,7,15,13.0,0.0
247,90.0,8,15,13.0,0.0
248,92.0,7,15,13.0,0.0
249,90.0,8,15,13.0,0.0
250,92.0,7,15,13.0,0.0
251,90.0,8,15,13.0,0.0
252,92.0,7,15,13.0,0.0
253,90.0,8,15,13.0,0.0
254,92.0,7,15,13.0,0.0
255,90.0,8,15,13.0,0.0
256,92.0,7,15,13.0,0.0
257,90.0,15,15,13.0,0.0
258,89.0,15,15,13.0,0.0
259,92.0,15,15,13.0,0.0
260,90.0,15,15,13.0,0.0
261,89.0,15,15,13.0,0.0
262,90.0,30,15,13.0,0.0
263,78.0,105,30,13.0,0.0
264,66.0,0,90,1.0,0.0
265,78.0,30,90,14.0,0.0
266,70.0,0,90,0.0,0.0
267,70.0,60,30,0.0,0.0
268,66.0,0,30,1.0,0.0
269,73.0,0,30,14.0,0.0
270,66.0,0,120,0.0,0.0
271,75.0,0,120,14.0,0.0
272,59.0,0,120,1.0,0.0
273,69.0,0,120,0.0,0.0
274,87.0,30,30,13.0,0.0
275,90.0,30,30,13.0,0.0
276,88.0,20,30,13.0,0.0
277,64.0,0,60,1.0,0.0
278,88.0,30,20,13.0,0.0
279,76.0,0,60,14.0,0.0
280,68.0,20,60,0.0,0.0
281,88.0,10,20,13.0,0.0
282,92.0,30,20,13.0,0.0
283,95.0,130,20,13.0,0.0
284,100.0,90,120,13.0,0.0
285,67.0,0,90,0.0,0.0
286,64.0,0,90,1.0,0.0
287,76.0,30,90,14.0,0.0
288,71.0,0,30,14.0,0.0
289,67.0,60,30,0.0,0.0
290,64.0,0,30,1.0,0.0
291,73.0,0,120,14.0,0.0
292,67.0,0,120,0.0,0.0
293,64.0,20,120,1.0,0.0
294,57.0,0,120,1.0,0.0
295,85.0,30,30,13.0,0.0
296,88.0,30,30,13.0,0.0
297,86.0,0,15,13.0,0.0
298,62.0,0,120,1.0,0.0
299,74.0,0,360,14.0,0.0
300,66.0,120,120,0.0,0.0
301,86.0,30,20,13.0,0.0
302,90.0,30,20,13.0,0.0
303,93.0,10,20,13.0,0.0
304,98.0,120,120,13.0,0.0
305,67.0,0,120,0.0,0.0
306,64.0,0,120,1.0,0.0
307,65.0,60,120,1.0,0.0
308,68.0,0,120,0.0,0.0
309,74.0,60,120,14.0,0.0
310,69.0,0,240,0.0,0.0
311,66.0,0,240,1.0,0.0
312,85.0,30,30,13.0,0.0
313,88.0,30,30,13.0,0.0
314,86.0,0,30,13.0,0.0
315,72.0,0,120,14.0,0.0
316,83.0,30,30,13.0,0.0
317,86.0,30,30,13.0,0.0
318,84.0,0,30,13.0,0.0
319,66.0,0,240,0.0,0.0
320,62.0,60,15,2.0,0.0
321,69.0,60,120,14.0,0.0
322,62.0,0,240,1.0,0.0
323,60.0,0,240,0.0,0.0
324,80.0,30,30,13.0,0.0
325,83.0,30,30,13.0,0.0
326,81.0,0,30,13.0,0.0
327,71.0,0,120,14.0,0.0
328,81.0,30,30,13.0,0.0
329,84.0,30,30,13.0,0.0
330,83.0,240,30,13.0,0.0
331,67.0,0,240,14.0,0.0
332,55.0,0,240,2.0,0.0
333,67.0,30,240,0.0,0.0
334,55.0,0,240,1.0,0.0
335,59.0,0,240,0.0,0.0
336,79.0,30,150,13.0,0.0
337,62.0,0,60,14.0,0.0
338,62.0,0,240,0.0,0.0
339,59.0,0,240,1.0,0.0
340,59.0,75,240,2.0,0.0
341,81.0,30,30,13.0,0.0
342,67.0,30,60,14.0,0.0
343,83.0,30,30,13.0,0.0
344,84.0,0,30,13.0,0.0
345,85.0,30,30,13.0,0.0
346,71.0,30,60,14.0,0.0
347,86.0,0,30,13.0,0.0
348,88.0,30,30,13.0,0.0
349,86.0,0,30,13.0,0.0
350,60.0,0,240,1.0,0.0
351,64.0,0,240,0.0,0.0
352,74.0,0,15,14.0,0.0
353,60.0,0,240,2.0,0.0
354,85.0,15,15,13.0,0.0
355,86.0,15,15,13.0,0.0
356,88.0,15,15,13.0,0.0
357,86.0,0,15,13.0,0.0
358,72.0,15,60,14.0,0.0
359,71.0,60,60,14.0,0.0
360,83.0,15,15,13.0,0.0
361,84.0,15,15,13.0,0.0
362,86.0,15,15,13.0,0.0
363,84.0,0,15,13.0,0.0
364,62.0,0,240,2.0,0.0
365,66.0,0,240,0.0,0.0
366,69.0,15,60,14.0,0.0
367,62.0,0,240,1.0,0.0
368,80.0,15,15,13.0,0.0
369,72.0,60,60,14.0,0.0
370,81.0,15,15,13.0,0.0
371,83.0,15,15,13.0,0.0
372,81.0,0,15,13.0,0.0
373,71.0,15,60,14.0,0.0
374,69.0,0,60,14.0,0.0
375,81.0,15,15,13.0,0.0
376,83.0,15,15,13.0,0.0
377,84.0,15,15,13.0,0.0
378,83.0,20,15,13.0,0.0
379,67.0,15,60,14.0,0.0
380,55.0,0,60,2.0,0.0
381,67.0,0,60,0.0,0.0
382,55.0,0,60,1.0,0.0
383,79.0,25,20,13.0,0.0
384,74.0,15,15,13.0,0.0
385,71.0,30,15,13.0,0.0
386,74.0,30,15,13.0,0.0
387,55.0,15,60,1.0,0.0
388,59.0,0,60,0.0,0.0
389,55.0,0,60,2.0,0.0
390,62.0,0,60,14.0,0.0
391,67.0,30,15,13.0,0.0
392,62.0,15,15,13.0,0.0
393,59.0,30,15,13.0,0.0
394,62.0,75,15,13.0,0.0
395,55.0,0,60,2.0,0.0
396,59.0,0,60,14.0,0.0
397,55.0,60,60,1.0,0.0
398,55.0,0,60,0.0,0.0
399,55.0,90,120,13.0,0.0
400,47.0,0,15,3.0,0.0
401,55.0,0,15,8.0,0.0
402,50.0,30,15,2.0,0.0
403,54.0,0,120,2.0,0.0
404,50.0,0,120,3.0,0.0
405,57.0,0,120,8.0,0.0
406,74.0,20,20,13.0,0.0
407,73.0,20,20,13.0,0.0
408,74.0,20,20,13.0,0.0
409,78.0,20,20,13.0,0.0
410,81.0,15,20,13.0,0.0
411,59.0,15,60,8.0,0.0
412,43.0,0,60,3.0,0.0
413,55.0,0,60,2.0,0.0
414,83.0,20,15,13.0,0.0
415,74.0,20,15,13.0,0.0
416,73.0,5,15,13.0,0.0
417,74.0,20,15,13.0,0.0
418,79.0,20,15,13.0,0.0
419,83.0,65,15,13.0,0.0
420,31.0,0,60,4.0,0.0
421,55.0,60,60,1.0,0.0
422,67.0,0,60,0.0,0.0
423,86.0,90,120,13.0,0.0
424,50.0,0,90,2.0,0.0
425,47.0,0,90,3.0,0.0
426,47.0,0,30,3.0,0.0
427,55.0,30,15,8.0,0.0
428,50.0,0,30,2.0,0.0
429,50.0,0,120,3.0,0.0
430,54.0,0,120,2.0,0.0
431,57.0,15,120,8.0,0.0
432,74.0,20,20,13.0,0.0
433,73.0,20,20,13.0,0.0
434,74.0,20,20,13.0,0.0
435,78.0,20,20,13.0,0.0
436,81.0,0,20,13.0,0.0
437,43.0,15,60,3.0,0.0
438,55.0,0,60,2.0,0.0
439,83.0,20,15,13.0,0.0
440,59.0,0,60,8.0,0.0
441,74.0,20,15,13.0,0.0
442,73.0,5,15,13.0,0.0
443,74.0,20,15,13.0,0.0
444,79.0,20,15,13.0,0.0
445,83.0,65,15,13.0,0.0
446,86.0,90,120,13.0,0.0
447,55.0,60,60,1.0,0.0
448,67.0,0,60,0.0,0.0
449,31.0,0,60,4.0,0.0
450,55.0,0,15,2.0,0.0
451,59.0,30,15,8.0,0.0
452,55.0,0,15,3.0,0.0
453,67.0,0,120,8.0,0.0
454,55.0,0,15,3.0,0.0
455,55.0,120,15,2.0,0.0
456,91.0,20,150,13.0,0.0
457,64.0,20,120,8.0,0.0
458,55.0,0,15,3.0,0.0
459,55.0,0,15,2.0,0.0
460,59.0,0,120,8.0,0.0
461,90.0,20,20,13.0,0.0
462,88.0,20,20,13.0,0.0
463,86.0,20,20,13.0,0.0
464,85.0,20,20,13.0,0.0
465,83.0,0,20,13.0,0.0
466,54.0,0,120,3.0,0.0
467,66.0,15,60,0.0,0.0
468,66.0,0,60,1.0,0.0
469,82.0,15,15,13.0,0.0
470,30.0,0,60,4.0,0.0
471,83.0,15,15,13.0,0.0
472,84.0,15,15,13.0,0.0
473,85.0,0,15,13.0,0.0
474,86.0,15,15,13.0,0.0
475,87.0,15,15,13.0,0.0
476,88.0,15,15,13.0,0.0
477,89.0,8,15,13.0,0.0
478,54.0,0,15,2.0,0.0
479,61.0,0,15,8.0,0.0
480,30.0,0,60,4.0,0.0
481,66.0,8,60,1.0,0.0
482,54.0,8,120,3.0,0.0
483,66.0,0,60,0.0,0.0
484,92.0,7,15,13.0,0.0
485,90.0,8,15,13.0,0.0
486,92.0,7,15,13.0,0.0
487,90.0,8,15,13.0,0.0
488,92.0,7,15,13.0,0.0
489,90.0,8,15,13.0,0.0
490,92.0,7,15,13.0,0.0
491,90.0,0,15,13.0,0.0
492,92.0,7,15,13.0,0.0
493,90.0,8,15,13.0,0.0
494,92.0,7,15,13.0,0.0
495,90.0,8,15,13.0,0.0
496,92.0,7,15,13.0,0.0
497,90.0,8,15,13.0,0.0
498,92.0,7,15,13.0,0.0
499,90.0,0,15,13.0,0.0
500,92.0,7,15,13.0,0.0
501,90.0,8,15,13.0,0.0
502,92.0,7,15,13.0,0.0
503,90.0,8,15,13.0,0.0
504,92.0,7,15,13.0,0.0
505,90.0,8,15,13.0,0.0
506,92.0,7,15,13.0,0.0
507,90.0,8,15,13.0,0.0
508,92.0,7,15,13.0,0.0
509,90.0,8,15,13.0,0.0
510,92.0,7,15,13.0,0.0
511,90.0,8,15,13.0,0.0
512,92.0,7,15,13.0,0.0
513,90.0,8,15,13.0,0.0
514,92.0,7,15,13.0,0.0
515,90.0,8,15,13.0,0.0
516,95.0,7,15,13.0,0.0
517,94.0,8,15,13.0,0.0
518,95.0,7,15,13.0,0.0
519,94.0,8,15,13.0,0.0
520,95.0,7,15,13.0,0.0
521,94.0,8,15,13.0,0.0
522,95.0,7,15,13.0,0.0
523,94.0,10,15,13.0,0.0
524,97.0,10,15,13.0,0.0
525,89.0,10,15,13.0,0.0
526,92.0,25,15,13.0,0.0
527,90.0,95,30,13.0,0.0
528,58.0,0,90,2.0,0.0
529,66.0,0,90,8.0,0.0
530,61.0,0,30,8.0,0.0
531,54.0,30,15,3.0,0.0
532,54.0,0,15,2.0,0.0
533,58.0,0,30,2.0,0.0
534,47.0,15,120,3.0,0.0
535,63.0,0,120,8.0,0.0
536,57.0,0,120,2.0,0.0
537,54.0,0,120,2.0,0.0
538,87.0,20,20,13.0,0.0
539,85.0,20,20,13.0,0.0
540,87.0,20,20,13.0,0.0
541,88.0,20,20,13.0,0.0
542,90.0,0,20,13.0,0.0
543,64.0,0,60,8.0,0.0
544,88.0,20,15,13.0,0.0
545,52.0,15,60,3.0,0.0
546,52.0,0,60,2.0,0.0
547,56.0,0,60,2.0,0.0
548,88.0,20,15,13.0,0.0
549,87.0,5,15,13.0,0.0
550,88.0,20,15,13.0,0.0
551,92.0,20,15,13.0,0.0
552,95.0,65,15,13.0,0.0
553,64.0,60,60,1.0,0.0
554,64.0,0,60,0.0,0.0
555,40.0,0,120,4.0,0.0
556,100.0,90,120,13.0,0.0
557,55.0,0,90,2.0,0.0
558,64.0,30,90,8.0,0.0
559,52.0,0,15,2.0,0.0
560,52.0,0,15,3.0,0.0
561,59.0,0,30,8.0,0.0
562,52.0,0,120,2.0,0.0
563,55.0,0,15,2.0,0.0
564,61.0,0,120,8.0,0.0
565,45.0,15,120,3.0,0.0
566,86.0,25,15,13.0,0.0
567,85.0,20,20,13.0,0.0
568,83.0,20,20,13.0,0.0
569,85.0,20,20,13.0,0.0
570,86.0,20,20,13.0,0.0
571,88.0,0,20,13.0,0.0
572,86.0,20,15,13.0,0.0
573,62.0,80,480,8.0,0.0
574,50.0,60,600,3.0,0.0
575,54.0,0,120,2.0,0.0
576,50.0,60,120,2.0,0.0
577,86.0,20,15,13.0,0.0
578,85.0,20,15,13.0,0.0
579,86.0,20,15,13.0,0.0
580,90.0,20,15,13.0,0.0
581,93.0,5,15,13.0,0.0
582,62.0,0,60,1.0,0.0
583,62.0,0,60,0.0,0.0
584,38.0,60,60,4.0,0.0
585,55.0,0,120,2.0,0.0
586,52.0,0,120,2.0,0.0
587,98.0,120,120,13.0,0.0
588,56.0,80,120,2.0,0.0
589,53.0,0,120,2.0,0.0
590,57.0,0,240,2.0,0.0
591,54.0,0,240,2.0,0.0
592,85.0,20,20,13.0,0.0
593,88.0,20,20,13.0,0.0
594,86.0,0,20,13.0,0.0
595,60.0,0,120,8.0,0.0
596,83.0,20,20,13.0,0.0
597,86.0,20,20,13.0,0.0
598,84.0,0,20,13.0,0.0
599,38.0,0,60,4.0,0.0
600,57.0,80,120,8.0,0.0
601,66.0,0,60,0.0,0.0
602,50.0,0,240,2.0,0.0
603,50.0,0,240,3.0,0.0
604,60.0,20,60,1.0,0.0
605,54.0,0,240,2.0,0.0
606,80.0,20,20,13.0,0.0
607,83.0,20,20,13.0,0.0
608,81.0,0,20,13.0,0.0
609,59.0,180,120,8.0,0.0
610,81.0,20,20,13.0,0.0
611,84.0,20,20,13.0,0.0
612,83.0,0,20,13.0,0.0
613,55.0,0,240,2.0,0.0
614,43.0,0,240,3.0,0.0
615,55.0,0,240,8.0,0.0
616,67.0,60,60,0.0,0.0
617,79.0,15,120,13.0,0.0
618,31.0,15,120,4.0,0.0
619,59.0,0,60,1.0,0.0
620,50.0,0,240,2.0,0.0
621,47.0,30,240,3.0,0.0
622,50.0,0,60,8.0,0.0
623,81.0,15,15,13.0,0.0
624,79.0,15,15,13.0,0.0
625,78.0,15,15,13.0,0.0
626,55.0,0,60,8.0,0.0
627,79.0,15,15,13.0,0.0
628,81.0,15,15,13.0,0.0
629,83.0,15,15,13.0,0.0
630,84.0,15,15,13.0,0.0
631,35.0,0,120,4.0,0.0
632,85.0,15,15,13.0,0.0
633,59.0,0,60,8.0,0.0
634,62.0,0,60,0.0,0.0
635,55.0,0,60,1.0,0.0
636,86.0,15,15,13.0,0.0
637,85.0,15,15,13.0,0.0
638,86.0,15,15,13.0,0.0
639,85.0,15,15,13.0,0.0
640,86.0,15,15,13.0,0.0
641,88.0,15,15,13.0,0.0
642,86.0,0,15,13.0,0.0
643,62.0,0,15,8.0,0.0
644,48.0,0,240,3.0,0.0
645,52.0,0,240,2.0,0.0
646,86.0,15,15,13.0,0.0
647,85.0,15,15,13.0,0.0
648,86.0,15,15,13.0,0.0
649,85.0,15,15,13.0,0.0
650,86.0,15,15,13.0,0.0
651,88.0,15,15,13.0,0.0
652,86.0,0,15,13.0,0.0
653,60.0,0,60,8.0,0.0
654,60.0,15,60,1.0,0.0
655,64.0,0,60,0.0,0.0
656,36.0,0,60,4.0,0.0
657,84.0,15,15,13.0,0.0
658,83.0,15,15,13.0,0.0
659,84.0,0,15,13.0,0.0
660,83.0,15,15,13.0,0.0
661,59.0,30,60,8.0,0.0
662,84.0,15,15,13.0,0.0
663,86.0,15,15,13.0,0.0
664,84.0,0,15,13.0,0.0
665,54.0,0,240,2.0,0.0
666,60.0,0,60,1.0,0.0
667,50.0,15,240,3.0,0.0
668,38.0,0,60,4.0,0.0
669,66.0,0,60,0.0,0.0
670,57.0,15,60,8.0,0.0
671,81.0,15,15,13.0,0.0
672,80.0,15,15,13.0,0.0
673,81.0,0,15,13.0,0.0
674,60.0,30,60,8.0,0.0
675,80.0,15,15,13.0,0.0
676,81.0,15,15,13.0,0.0
677,83.0,15,15,13.0,0.0
678,81.0,0,15,13.0,0.0
679,66.0,0,60,0.0,0.0
680,59.0,0,60,8.0,0.0
681,38.0,0,60,4.0,0.0
682,60.0,0,60,1.0,0.0
683,83.0,15,15,13.0,0.0
684,81.0,15,15,13.0,0.0
685,83.0,15,15,13.0,0.0
686,81.0,15,15,13.0,0.0
687,57.0,0,60,8.0,0.0
688,83.0,15,15,13.0,0.0
689,84.0,15,15,13.0,0.0
690,83.0,0,15,13.0,0.0
691,59.0,0,60,1.0,0.0
692,79.0,15,15,13.0,0.0
693,55.0,0,60,2.0,0.0
694,43.0,0,60,3.0,0.0
695,31.0,0,60,4.0,0.0
696,55.0,90,360,8.0,0.0
697,55.0,15,60,0.0,0.0
698,67.0,0,60,0.0,0.0
699,55.0,15,15,13.0,0.0
700,57.0,15,15,13.0,0.0
701,59.0,0,15,13.0,0.0
702,60.0,15,15,13.0,0.0
703,62.0,15,15,13.0,0.0
704,64.0,15,15,13.0,0.0
705,66.0,8,15,13.0,0.0
706,67.0,7,15,13.0,0.0
707,62.0,0,60,0.0,0.0
708,50.0,0,60,2.0,0.0
709,59.0,0,60,1.0,0.0
710,31.0,10,60,4.0,0.0
711,43.0,0,60,3.0,0.0
712,69.0,8,15,13.0,0.0
713,71.0,6,15,13.0,0.0
714,72.0,9,15,13.0,0.0
715,74.0,6,15,13.0,0.0
716,76.0,9,15,13.0,0.0
717,78.0,7,15,13.0,0.0
718,79.0,0,15,13.0,0.0
719,81.0,10,15,13.0,0.0
720,83.0,10,15,13.0,0.0
721,84.0,10,15,13.0,0.0
722,86.0,10,15,13.0,0.0
723,88.0,10,15,13.0,0.0
724,90.0,60,15,13.0,0.0
725,59.0,60,60,0.0,0.0
726,91.0,0,60,13.0,0.0
727,31.0,0,60,4.0,0.0
728,55.0,0,60,1.0,0.0
729,43.0,0,60,3.0,0.0
730,50.0,0,60,2.0,0.0
731,59.0,0,90,2.0,0.0
732,67.0,30,90,0.0,0.0
733,43.0,0,15,4.0,0.0
734,62.0,0,15,1.0,0.0
735,55.0,0,15,3.0,0.0
736,59.0,0,30,2.0,0.0
737,67.0,0,30,0.0,0.0
738,69.0,60,120,0.0,0.0
739,62.0,0,180,2.0,0.0
740,50.0,0,120,3.0,0.0
741,38.0,0,120,4.0,0.0
742,66.0,0,120,1.0,0.0
743,55.0,0,60,3.0,0.0
744,55.0,0,90,10.0,0.0
745,71.0,0,90,14.0,0.0
746,67.0,30,60,1.0,0.0
747,43.0,0,60,4.0,0.0
748,71.0,0,60,0.0,0.0
749,62.0,0,15,10.0,0.0
750,59.0,0,15,8.0,0.0
751,62.0,0,15,8.0,0.0
752,67.0,30,15,14.0,0.0
753,71.0,0,15,14.0,0.0
754,62.0,0,15,8.0,0.0
755,59.0,0,15,8.0,0.0
756,62.0,120,15,10.0,0.0
757,55.0,0,15,10.0,0.0
758,67.0,90,120,14.0,0.0
759,43.0,0,90,4.0,0.0
760,55.0,0,90,3.0,0.0
761,62.0,30,15,1.0,0.0
762,59.0,0,15,2.0,0.0
763,43.0,0,30,4.0,0.0
764,67.0,0,15,0.0,0.0
765,55.0,0,30,3.0,0.0
766,50.0,0,120,3.0,0.0
767,62.0,0,180,2.0,0.0
768,38.0,0,120,4.0,0.0
769,66.0,0,120,1.0,0.0
770,69.0,60,120,0.0,0.0
771,43.0,0,60,4.0,0.0
772,67.0,30,60,1.0,0.0
773,59.0,0,90,8.0,0.0
774,67.0,0,90,14.0,0.0
775,55.0,0,60,3.0,0.0
776,62.0,0,90,10.0,0.0
777,71.0,0,60,0.0,0.0
778,71.0,0,90,14.0,0.0
779,55.0,0,15,10.0,0.0
780,62.0,30,15,8.0,0.0
781,71.0,0,30,14.0,0.0
782,67.0,0,30,14.0,0.0
783,62.0,0,30,10.0,0.0
784,67.0,0,120,14.0,0.0
785,55.0,120,15,10.0,0.0
786,59.0,0,15,8.0,0.0
787,62.0,0,15,8.0,0.0
788,71.0,90,120,14.0,0.0
789,62.0,0,120,10.0,0.0
790,55.0,30,90,3.0,0.0
791,59.0,0,90,2.0,0.0
792,59.0,0,90,1.0,0.0
793,43.0,0,15,4.0,0.0
794,71.0,0,15,0.0,0.0
795,55.0,0,30,3.0,0.0
796,59.0,0,30,1.0,0.0
797,67.0,120,120,1.0,0.0
798,43.0,0,120,4.0,0.0
799,59.0,0,15,2.0,0.0
800,79.0,0,120,0.0,0.0
801,64.0,120,120,1.0,0.0
802,59.0,0,15,2.0,0.0
803,55.0,0,15,3.0,0.0
804,76.0,0,120,0.0,0.0
805,71.0,0,120,0.0,0.0
806,59.0,120,120,2.0,0.0
807,59.0,0,120,1.0,0.0
808,43.0,0,15,4.0,0.0
809,55.0,0,120,3.0,0.0
810,42.0,0,120,4.0,0.0
811,58.0,0,120,2.0,0.0
812,73.0,0,15,0.0,0.0
813,54.0,0,15,3.0,0.0
814,42.0,0,360,4.0,0.0
815,66.0,210,15,1.0,0.0
816,58.0,0,360,2.0,0.0
817,66.0,30,90,8.0,0.0
818,66.0,0,90,14.0,0.0
819,66.0,0,30,8.0,0.0
820,66.0,120,30,14.0,0.0
821,66.0,0,120,14.0,0.0
822,66.0,90,120,8.0,0.0
823,66.0,0,90,2.0,0.0
824,78.0,0,90,0.0,0.0
825,42.0,0,15,4.0,0.0
826,73.0,0,30,0.0,0.0
827,54.0,30,15,3.0,0.0
828,70.0,0,15,1.0,0.0
829,69.0,0,120,1.0,0.0
830,47.0,60,120,3.0,0.0
831,35.0,0,120,4.0,0.0
832,75.0,0,120,0.0,0.0
833,66.0,120,15,2.0,0.0
834,76.0,0,60,0.0,0.0
835,40.0,30,60,4.0,0.0
836,64.0,0,60,2.0,0.0
837,52.0,0,60,3.0,0.0
838,68.0,0,60,1.0,0.0
839,64.0,0,15,8.0,0.0
840,76.0,0,15,14.0,0.0
841,64.0,30,15,14.0,0.0
842,64.0,0,15,14.0,0.0
843,64.0,120,15,8.0,0.0
844,76.0,0,15,14.0,0.0
845,52.0,0,90,3.0,0.0
846,67.0,0,90,1.0,0.0
847,40.0,30,90,4.0,0.0
848,76.0,0,90,0.0,0.0
849,52.0,0,30,3.0,0.0
850,64.0,0,15,2.0,0.0
851,40.0,0,30,4.0,0.0
852,71.0,0,30,0.0,0.0
853,45.0,0,120,3.0,0.0
854,64.0,0,15,2.0,0.0
855,33.0,0,120,4.0,0.0
856,67.0,120,15,1.0,0.0
857,73.0,0,120,0.0,0.0
858,66.0,0,120,1.0,0.0
859,74.0,0,90,14.0,0.0
860,54.0,0,120,8.0,0.0
861,50.0,0,120,8.0,0.0
862,62.0,120,120,2.0,0.0
863,74.0,120,480,0.0,0.0
864,62.0,30,15,14.0,0.0
865,50.0,0,15,10.0,0.0
866,62.0,0,15,10.0,0.0
867,74.0,0,30,14.0,0.0
868,55.0,0,120,8.0,0.0
869,52.0,0,120,8.0,0.0
870,74.0,0,120,14.0,0.0
871,62.0,0,120,10.0,0.0
872,62.0,0,120,14.0,0.0
873,64.0,0,120,2.0,0.0
874,67.0,0,120,1.0,0.0
875,68.0,0,120,1.0,0.0
876,62.0,0,90,14.0,0.0
877,65.0,120,120,2.0,0.0
878,53.0,0,120,8.0,0.0
879,56.0,0,120,8.0,0.0
880,50.0,90,15,10.0,0.0
881,62.0,30,90,10.0,0.0
882,74.0,0,15,14.0,0.0
883,62.0,0,30,14.0,0.0
884,50.0,0,30,10.0,0.0
885,62.0,0,30,10.0,0.0
886,54.0,0,240,8.0,0.0
887,69.0,0,240,1.0,0.0
888,74.0,0,720,14.0,0.0
889,66.0,0,240,2.0,0.0
890,50.0,0,720,10.0,0.0
891,62.0,0,720,10.0,0.0
892,57.0,0,240,8.0,0.0
893,72.0,0,120,0.0,0.0
894,69.0,0,120,0.0,0.0
895,38.0,120,15,4.0,0.0
896,50.0,0,15,3.0,0.0
897,66.0,0,240,1.0,0.0
898,50.0,0,240,8.0,0.0
899,57.0,120,120,8.0,0.0
900,60.0,0,120,2.0,0.0
901,59.0,0,120,8.0,0.0
902,62.0,240,120,2.0,0.0
903,71.0,0,120,0.0,0.0
904,31.0,60,240,4.0,0.0
905,43.0,0,240,3.0,0.0
906,43.0,0,240,8.0,0.0
907,67.0,0,240,1.0,0.0
908,67.0,0,240,0.0,0.0
909,59.0,0,240,2.0,0.0
910,50.0,0,60,8.0,0.0
911,62.0,60,60,0.0,0.0
912,50.0,0,240,2.0,0.0
913,47.0,0,240,3.0,0.0
914,47.0,0,240,8.0,0.0
915,62.0,0,240,1.0,0.0
916,55.0,0,240,10.0,0.0
917,35.0,0,240,4.0,0.0
918,62.0,0,15,14.0,0.0
919,55.0,60,60,8.0,0.0
920,67.0,0,60,14.0,0.0
921,67.0,0,60,0.0,0.0
922,71.0,0,60,14.0,0.0
923,71.0,0,60,0.0,0.0
924,59.0,60,60,8.0,0.0
925,64.0,0,240,1.0,0.0
926,52.0,0,240,2.0,0.0
927,62.0,0,15,8.0,0.0
928,48.0,0,240,8.0,0.0
929,74.0,0,15,0.0,0.0
930,48.0,60,240,3.0,0.0
931,74.0,0,15,14.0,0.0
932,60.0,0,480,14.0,0.0
933,67.0,0,15,10.0,0.0
934,55.0,0,240,10.0,0.0
935,36.0,0,240,4.0,0.0
936,72.0,0,60,14.0,0.0
937,72.0,0,60,0.0,0.0
938,60.0,60,60,8.0,0.0
939,71.0,0,60,14.0,0.0
940,71.0,0,60,0.0,0.0
941,59.0,0,60,8.0,0.0
942,69.0,0,60,0.0,0.0
943,62.0,0,240,10.0,0.0
944,66.0,0,240,1.0,0.0
945,38.0,0,240,4.0,0.0
946,50.0,0,240,10.0,0.0
947,54.0,0,240,2.0,0.0
948,69.0,60,60,14.0,0.0
949,50.0,0,240,8.0,0.0
950,57.0,0,60,8.0,0.0
951,50.0,0,240,3.0,0.0
952,60.0,60,60,8.0,0.0
953,72.0,0,60,14.0,0.0
954,72.0,0,60,0.0,0.0
955,59.0,60,60,8.0,0.0
956,71.0,0,60,0.0,0.0
957,71.0,0,60,14.0,0.0
958,69.0,0,60,0.0,0.0
959,69.0,60,60,14.0,0.0
960,57.0,0,60,8.0,0.0
961,55.0,0,300,8.0,0.0
962,67.0,0,60,13.0,0.0
963,59.0,0,300,14.0,0.0
964,43.0,240,60,3.0,0.0
965,67.0,0,300,14.0,0.0
966,31.0,0,60,4.0,0.0
967,55.0,0,60,2.0,0.0
968,59.0,0,60,1.0,0.0
969,67.0,0,60,0.0,0.0
970,67.0,10,120,13.0,0.0
971,31.0,0,60,4.0,0.0
972,59.0,0,60,1.0,0.0
973,67.0,0,60,0.0,0.0
974,43.0,70,60,3.0,0.0
975,55.0,0,60,2.0,0.0
976,69.0,10,15,13.0,0.0
977,67.0,10,15,13.0,0.0
978,66.0,10,15,13.0,0.0
979,67.0,10,15,13.0,0.0
980,62.0,10,15,13.0,0.0
981,64.0,10,15,13.0,0.0
982,66.0,10,15,13.0,0.0
983,67.0,10,15,13.0,0.0
984,69.0,10,15,13.0,0.0
985,71.0,10,15,13.0,0.0
986,72.0,120,15,13.0,0.0
987,59.0,0,300,8.0,0.0
988,74.0,180,120,13.0,0.0
989,55.0,0,300,8.0,0.0
990,67.0,70,300,14.0,0.0
991,71.0,0,300,14.0,0.0
992,71.0,10,120,13.0,0.0
993,71.0,0,60,0.0,0.0
994,67.0,0,60,1.0,0.0
995,43.0,0,60,3.0,0.0
996,55.0,0,60,2.0,0.0
997,31.0,0,60,4.0,0.0
998,72.0,10,15,13.0,0.0
999,71.0,10,15,13.0,0.0
1000,69.0,10,15,13.0,0.0
1001,71.0,10,15,13.0,0.0
1002,67.0,10,15,13.0,0.0
1003,69.0,10,15,13.0,0.0
1004,71.0,10,15,13.0,0.0
1005,72.0,10,15,13.0,0.0
1006,74.0,10,15,13.0,0.0
1007,76.0,10,15,13.0,0.0
1008,78.0,60,15,13.0,0.0
1009,55.0,0,60,8.0,0.0
1010,59.0,0,60,8.0,0.0
1011,71.0,0,60,14.0,0.0
1012,67.0,60,60,14.0,0.0
1013,79.0,10,120,13.0,0.0
1014,74.0,10,15,13.0,0.0
1015,76.0,10,15,13.0,0.0
1016,74.0,10,15,13.0,0.0
1017,72.0,10,15,13.0,0.0
1018,74.0,10,15,13.0,0.0
1019,71.0,10,15,13.0,0.0
1020,72.0,10,15,13.0,0.0
1021,74.0,10,15,13.0,0.0
1022,76.0,10,15,13.0,0.0
1023,78.0,10,15,13.0,0.0
1024,79.0,10,15,13.0,0.0
1025,81.0,60,15,13.0,0.0
1026,71.0,60,60,14.0,0.0
1027,67.0,0,60,14.0,0.0
1028,55.0,0,60,8.0,0.0
1029,59.0,0,60,8.0,0.0
1030,83.0,10,120,13.0,0.0
1031,79.0,10,15,13.0,0.0
1032,81.0,10,15,13.0,0.0
1033,79.0,10,15,13.0,0.0
1034,78.0,10,15,13.0,0.0
1035,79.0,10,15,13.0,0.0
1036,74.0,10,15,13.0,0.0
1037,76.0,10,15,13.0,0.0
1038,78.0,10,15,13.0,0.0
1039,79.0,10,15,13.0,0.0
1040,81.0,10,15,13.0,0.0
1041,83.0,10,15,13.0,0.0
1042,84.0,30,15,13.0,0.0
1043,59.0,30,60,8.0,0.0
1044,62.0,0,60,0.0,0.0
1045,31.0,0,60,4.0,0.0
1046,86.0,30,30,13.0,0.0
1047,55.0,0,60,2.0,0.0
1048,67.0,0,60,14.0,0.0
1049,71.0,0,60,14.0,0.0
1050,55.0,0,60,8.0,0.0
1051,59.0,0,60,1.0,0.0
1052,43.0,0,60,3.0,0.0
1053,85.0,0,30,13.0,0.0
1054,88.0,30,30,13.0,0.0
1055,86.0,30,30,13.0,0.0
1056,84.0,30,30,13.0,0.0
1057,83.0,30,30,13.0,0.0
1058,86.0,30,30,13.0,0.0
1059,83.0,30,30,13.0,0.0
1060,81.0,30,30,13.0,0.0
1061,79.0,30,30,13.0,0.0
1062,83.0,30,30,13.0,0.0
1063,79.0,30,30,13.0,0.0
1064,76.0,30,30,13.0,0.0
1065,74.0,30,30,13.0,0.0
1066,79.0,30,30,13.0,0.0
1067,74.0,30,30,13.0,0.0
1068,74.0,30,30,13.0,0.0
1069,72.0,30,30,13.0,0.0
1070,76.0,30,30,13.0,0.0
1071,72.0,30,30,13.0,0.0
1072,71.0,30,30,13.0,0.0
1073,69.0,30,30,13.0,0.0
1074,72.0,30,30,13.0,0.0
1075,69.0,30,30,13.0,0.0
1076,68.0,30,30,13.0,0.0
1077,69.0,20,30,13.0,0.0
1078,72.0,30,20,13.0,0.0
1079,69.0,30,20,13.0,0.0
1080,68.0,30,20,13.0,0.0
1081,69.0,30,20,13.0,0.0
1082,72.0,30,20,13.0,0.0
1083,66.0,250,20,13.0,0.0
1084,59.0,0,480,1.0,0.0
1085,43.0,0,480,3.0,0.0
1086,62.0,0,480,0.0,0.0
1087,67.0,240,240,13.0,0.0
1088,71.0,0,240,13.0,0.0
1089,55.0,180,15,2.0,0.0
1090,69.0,60,180,13.0,0.0
1091,60.0,0,480,1.0,0.0
1092,31.0,0,15,4.0,0.0
1093,64.0,0,480,0.0,0.0
1094,71.0,60,60,13.0,0.0
1095,72.0,60,60,13.0,0.0
1096,71.0,60,60,13.0,0.0
1097,69.0,60,60,13.0,0.0
1098,67.0,0,60,13.0,0.0
1099,43.0,0,15,3.0,0.0
1100,31.0,0,15,4.0,0.0
1101,60.0,0,360,0.0,0.0
1102,67.0,60,60,13.0,0.0
1103,57.0,0,360,1.0,0.0
1104,57.0,60,360,2.0,0.0
1105,66.0,60,60,13.0,0.0
1106,64.0,60,60,13.0,0.0
1107,62.0,60,15,13.0,0.0
1108,74.0,60,120,13.0,0.0
1109,66.0,0,120,0.0,0.0
1110,60.0,120,120,1.0,0.0
1111,57.0,0,120,2.0,0.0
1112,72.0,0,60,13.0,0.0
1113,70.0,240,120,13.0,0.0
1114,59.0,0,240,1.0,0.0
1115,31.0,0,240,4.0,0.0
1116,55.0,0,240,2.0,0.0
1117,43.0,0,240,3.0,0.0
1118,62.0,0,360,1.0,0.0
1119,71.0,120,240,13.0,0.0
1120,67.0,0,240,0.0,0.0
1121,60.0,0,120,1.0,0.0
1122,54.0,0,120,2.0,0.0
1123,72.0,0,120,13.0,0.0
1124,66.0,0,120,0.0,0.0
1125,45.0,240,120,3.0,0.0
1126,33.0,0,120,4.0,0.0
1127,74.0,150,240,13.0,0.0
1128,47.0,0,480,3.0,0.0
1129,35.0,0,480,4.0,0.0
1130,55.0,0,480,2.0,0.0
1131,62.0,120,480,1.0,0.0
1132,67.0,30,150,13.0,0.0
1133,83.0,20,30,13.0,0.0
1134,81.0,30,20,13.0,0.0
1135,79.0,10,20,13.0,0.0
1136,67.0,0,15,0.0,0.0
1137,78.0,150,120,13.0,0.0
1138,60.0,0,360,2.0,0.0
1139,76.0,30,150,13.0,0.0
1140,78.0,30,30,13.0,0.0
1141,79.0,30,30,13.0,0.0
1142,75.0,0,30,13.0,0.0
1143,76.0,30,30,13.0,0.0
1144,36.0,0,15,4.0,0.0
1145,48.0,0,15,3.0,0.0
1146,69.0,0,120,0.0,0.0
1147,64.0,30,15,1.0,0.0
1148,60.0,0,120,2.0,0.0
1149,71.0,30,30,13.0,0.0
1150,72.0,30,30,13.0,0.0
1151,69.0,0,30,13.0,0.0
1152,67.0,30,180,13.0,0.0
1153,38.0,0,60,4.0,0.0
1154,67.0,0,60,1.0,0.0
1155,62.0,0,60,2.0,0.0
1156,50.0,120,60,3.0,0.0
1157,71.0,0,60,0.0,0.0
1158,69.0,30,30,13.0,0.0
1159,71.0,20,30,13.0,0.0
1160,72.0,30,20,13.0,0.0
1161,74.0,30,20,13.0,0.0
1162,76.0,30,20,13.0,0.0
1163,78.0,30,20,13.0,0.0
1164,79.0,30,20,13.0,0.0
1165,81.0,30,20,13.0,0.0
1166,83.0,40,20,13.0,0.0
1167,67.0,8,30,13.0,0.0
1168,66.0,8,60,1.0,0.0
1169,38.0,0,60,4.0,0.0
1170,50.0,0,60,3.0,0.0
1171,62.0,0,60,2.0,0.0
1172,71.0,7,15,13.0,0.0
1173,72.0,0,60,0.0,0.0
1174,69.0,8,15,13.0,0.0
1175,71.0,7,15,13.0,0.0
1176,69.0,8,15,13.0,0.0
1177,71.0,7,15,13.0,0.0
1178,69.0,8,15,13.0,0.0
1179,71.0,7,15,13.0,0.0
1180,69.0,0,15,13.0,0.0
1181,71.0,7,15,13.0,0.0
1182,69.0,8,15,13.0,0.0
1183,71.0,7,15,13.0,0.0
1184,69.0,8,15,13.0,0.0
1185,71.0,7,15,13.0,0.0
1186,69.0,8,15,13.0,0.0
1187,71.0,7,15,13.0,0.0
1188,69.0,8,15,13.0,0.0
1189,71.0,7,15,13.0,0.0
1190,69.0,8,15,13.0,0.0
1191,71.0,7,15,13.0,0.0
1192,69.0,8,15,13.0,0.0
1193,71.0,7,15,13.0,0.0
1194,69.0,8,15,13.0,0.0
1195,71.0,7,15,13.0,0.0
1196,69.0,8,15,13.0,0.0
1197,71.0,7,15,13.0,0.0
1198,69.0,8,15,13.0,0.0
1199,71.0,7,15,13.0,0.0
1200,69.0,8,15,13.0,0.0
1201,71.0,7,15,13.0,0.0
1202,69.0,8,15,13.0,0.0
1203,71.0,7,15,13.0,0.0
1204,69.0,8,15,13.0,0.0
1205,71.0,7,15,13.0,0.0
1206,69.0,8,15,13.0,0.0
1207,71.0,7,15,13.0,0.0
1208,69.0,8,15,13.0,0.0
1209,71.0,7,15,13.0,0.0
1210,69.0,8,15,13.0,0.0
1211,71.0,7,15,13.0,0.0
1212,69.0,8,15,13.0,0.0
1213,71.0,7,15,13.0,0.0
1214,69.0,8,15,13.0,0.0
1215,71.0,7,15,13.0,0.0
1216,69.0,8,15,13.0,0.0
1217,71.0,7,15,13.0,0.0
1218,69.0,8,15,13.0,0.0
1219,71.0,7,15,13.0,0.0
1220,69.0,8,15,13.0,0.0
1221,71.0,7,15,13.0,0.0
1222,69.0,8,15,13.0,0.0
1223,71.0,7,15,13.0,0.0
1224,69.0,8,15,13.0,0.0
1225,71.0,7,15,13.0,0.0
1226,69.0,8,15,13.0,0.0
1227,71.0,7,15,13.0,0.0
1228,69.0,8,15,13.0,0.0
1229,71.0,7,15,13.0,0.0
1230,69.0,8,15,13.0,0.0
1231,71.0,7,15,13.0,0.0
1232,69.0,8,15,13.0,0.0
1233,71.0,7,15,13.0,0.0
1234,69.0,8,15,13.0,0.0
1235,68.0,7,15,13.0,0.0
1236,69.0,8,15,13.0,0.0
1237,83.0,7,15,13.0,0.0
1238,81.0,8,15,13.0,0.0
1239,83.0,7,15,13.0,0.0
1240,81.0,8,15,13.0,0.0
1241,83.0,7,15,13.0,0.0
1242,81.0,8,15,13.0,0.0
1243,83.0,7,15,13.0,0.0
1244,81.0,8,15,13.0,0.0
1245,83.0,7,15,13.0,0.0
1246,81.0,8,15,13.0,0.0
1247,83.0,7,15,13.0,0.0
1248,81.0,8,15,13.0,0.0
1249,83.0,7,15,13.0,0.0
1250,81.0,8,15,13.0,0.0
1251,83.0,7,15,13.0,0.0
1252,81.0,8,15,13.0,0.0
1253,83.0,7,15,13.0,0.0
1254,81.0,8,15,13.0,0.0
1255,83.0,7,15,13.0,0.0
1256,81.0,8,15,13.0,0.0
1257,83.0,7,15,13.0,0.0
1258,81.0,8,15,13.0,0.0
1259,83.0,7,15,13.0,0.0
1260,81.0,8,15,13.0,0.0
1261,83.0,7,15,13.0,0.0
1262,81.0,8,15,13.0,0.0
1263,83.0,7,15,13.0,0.0
1264,81.0,8,15,13.0,0.0
1265,83.0,7,15,13.0,0.0
1266,81.0,8,15,13.0,0.0
1267,83.0,7,15,13.0,0.0
1268,81.0,8,15,13.0,0.0
1269,83.0,7,15,13.0,0.0
1270,81.0,8,15,13.0,0.0
1271,83.0,7,15,13.0,0.0
1272,81.0,8,15,13.0,0.0
1273,83.0,7,15,13.0,0.0
1274,81.0,8,15,13.0,0.0
1275,83.0,7,15,13.0,0.0
1276,81.0,8,15,13.0,0.0
1277,83.0,7,15,13.0,0.0
1278,81.0,8,15,13.0,0.0
1279,83.0,7,15,13.0,0.0
1280,81.0,8,15,13.0,0.0
1281,83.0,7,15,13.0,0.0
1282,81.0,8,15,13.0,0.0
1283,83.0,7,15,13.0,0.0
1284,81.0,8,15,13.0,0.0
1285,83.0,7,15,13.0,0.0
1286,81.0,8,15,13.0,0.0
1287,83.0,7,15,13.0,0.0
1288,81.0,8,15,13.0,0.0
1289,83.0,7,15,13.0,0.0
1290,81.0,8,15,13.0,0.0
1291,83.0,7,15,13.0,0.0
1292,81.0,8,15,13.0,0.0
1293,83.0,7,15,13.0,0.0
1294,81.0,8,15,13.0,0.0
1295,83.0,7,15,13.0,0.0
1296,81.0,8,15,13.0,0.0
1297,83.0,7,15,13.0,0.0
1298,81.0,8,15,13.0,0.0
1299,80.0,57,15,13.0,0.0
1300,81.0,60,60,13.0,0.0
1301,80.0,60,60,13.0,0.0
1302,81.0,60,60,13.0,0.0
1303,83.0,60,60,13.0,0.0
1304,84.0,60,60,13.0,0.0
1305,85.0,60,60,13.0,0.0
1306,86.0,60,60,13.0,0.0
1307,87.0,160,60,13.0,0.0
1308,88.0,30,150,13.0,0.0
1309,86.0,30,30,13.0,0.0
1310,84.0,30,30,13.0,0.0
1311,83.0,30,30,13.0,0.0
1312,86.0,30,30,13.0,0.0
1313,84.0,30,30,13.0,0.0
1314,83.0,30,30,13.0,0.0
1315,59.0,0,60,1.0,0.0
1316,67.0,30,60,0.0,0.0
1317,81.0,30,15,13.0,0.0
1318,79.0,0,30,13.0,0.0
1319,78.0,30,30,13.0,0.0
1320,79.0,60,30,13.0,0.0
1321,81.0,50,120,13.0,0.0
1322,69.0,0,60,0.0,0.0
1323,62.0,60,60,1.0,0.0
1324,62.0,0,60,2.0,0.0
1325,55.0,0,60,2.0,0.0
1326,67.0,0,60,1.0,0.0
1327,71.0,50,60,0.0,0.0
1328,83.0,10,60,13.0,0.0
1329,38.0,60,60,4.0,0.0
1330,86.0,10,60,13.0,0.0
1331,50.0,0,60,3.0,0.0
1332,91.0,30,90,13.0,0.0
1333,31.0,0,60,4.0,0.0
1334,43.0,30,60,3.0,0.0
1335,79.0,30,30,13.0,0.0
1336,67.0,0,60,0.0,0.0
1337,81.0,30,30,13.0,0.0
1338,59.0,30,60,1.0,0.0
1339,79.0,0,30,13.0,0.0
1340,78.0,30,30,13.0,0.0
1341,79.0,30,30,13.0,0.0
1342,83.0,30,30,13.0,0.0
1343,62.0,0,60,1.0,0.0
1344,69.0,0,60,0.0,0.0
1345,81.0,30,30,13.0,0.0
1346,62.0,0,60,2.0,0.0
1347,79.0,30,30,13.0,0.0
1348,81.0,50,30,13.0,0.0
1349,71.0,50,60,0.0,0.0
1350,55.0,0,60,2.0,0.0
1351,67.0,0,60,1.0,0.0
1352,83.0,10,60,13.0,0.0
1353,50.0,0,60,3.0,0.0
1354,86.0,10,60,13.0,0.0
1355,38.0,60,60,4.0,0.0
1356,43.0,0,60,3.0,0.0
1357,31.0,120,60,4.0,0.0
1358,67.0,0,60,1.0,0.0
1359,71.0,120,60,0.0,0.0
1360,79.0,0,120,0.0,0.0
1361,91.0,60,15,13.0,0.0
1362,67.0,0,15,2.0,0.0
1363,71.0,60,15,1.0,0.0
1364,76.0,60,120,0.0,0.0
1365,88.0,60,120,13.0,0.0
1366,71.0,60,120,1.0,0.0
1367,67.0,0,120,2.0,0.0
1368,71.0,0,120,0.0,0.0
1369,83.0,60,120,13.0,0.0
1370,70.0,60,120,1.0,0.0
1371,73.0,0,120,0.0,0.0
1372,85.0,0,15,13.0,0.0
1373,66.0,0,15,2.0,0.0
1374,73.0,0,120,0.0,0.0
1375,70.0,0,120,1.0,0.0
1376,66.0,60,60,2.0,0.0
1377,54.0,60,60,2.0,0.0
1378,42.0,0,60,4.0,0.0
1379,54.0,60,60,3.0,0.0
1380,30.0,60,60,4.0,0.0
1381,42.0,0,60,3.0,0.0
1382,66.0,0,120,2.0,0.0
1383,70.0,0,120,1.0,0.0
1384,90.0,30,90,13.0,0.0
1385,73.0,0,120,0.0,0.0
1386,85.0,60,30,13.0,0.0
1387,75.0,0,120,0.0,0.0
1388,69.0,0,120,1.0,0.0
1389,87.0,0,120,13.0,0.0
1390,59.0,60,15,2.0,0.0
1391,52.0,60,60,2.0,0.0
1392,88.0,90,240,13.0,0.0
1393,68.0,0,120,1.0,0.0
1394,76.0,60,120,0.0,0.0
1395,35.0,0,60,4.0,0.0
1396,47.0,0,60,3.0,0.0
1397,40.0,60,60,3.0,0.0
1398,28.0,0,60,4.0,0.0
1399,88.0,30,90,13.0,0.0
1400,71.0,0,120,0.0,0.0
1401,67.0,0,120,1.0,0.0
1402,83.0,60,30,13.0,0.0
1403,73.0,0,120,0.0,0.0
1404,64.0,0,15,2.0,0.0
1405,85.0,0,120,13.0,0.0
1406,67.0,0,120,1.0,0.0
1407,57.0,60,60,2.0,0.0
1408,86.0,0,180,13.0,0.0
1409,74.0,0,120,0.0,0.0
1410,50.0,60,60,2.0,0.0
1411,66.0,0,120,1.0,0.0
1412,45.0,60,60,3.0,0.0
1413,33.0,0,60,4.0,0.0
1414,26.0,60,60,4.0,0.0
1415,38.0,0,60,3.0,0.0
1416,62.0,60,60,2.0,0.0
1417,66.0,0,60,1.0,0.0
1418,74.0,0,60,0.0,0.0
1419,74.0,0,60,0.0,0.0
1420,67.0,0,60,1.0,0.0
1421,64.0,0,60,2.0,0.0
1422,68.0,0,60,1.0,0.0
1423,65.0,0,60,2.0,0.0
1424,86.0,60,15,13.0,0.0
1425,74.0,60,15,0.0,0.0
1426,69.0,60,120,1.0,0.0
1427,66.0,0,120,2.0,0.0
1428,62.0,0,120,1.0,0.0
1429,86.0,60,120,13.0,0.0
1430,62.0,0,120,2.0,0.0
1431,66.0,60,120,1.0,0.0
1432,72.0,0,120,0.0,0.0
1433,84.0,60,120,13.0,0.0
1434,62.0,0,120,2.0,0.0
1435,69.0,60,120,0.0,0.0
1436,60.0,0,120,1.0,0.0
1437,81.0,60,120,13.0,0.0
1438,62.0,0,120,1.0,0.0
1439,71.0,60,120,0.0,0.0
1440,62.0,0,120,2.0,0.0
1441,83.0,0,120,13.0,0.0
1442,59.0,0,120,1.0,0.0
1443,67.0,0,120,0.0,0.0
1444,62.0,60,60,2.0,0.0
1445,67.0,60,60,2.0,0.0
1446,79.0,60,120,13.0,0.0
1447,59.0,0,60,2.0,0.0
1448,67.0,0,120,0.0,0.0
1449,62.0,0,120,1.0,0.0
1450,55.0,0,60,3.0,0.0
1451,43.0,60,60,4.0,0.0
1452,74.0,0,120,13.0,0.0
1453,67.0,0,120,1.0,0.0
1454,71.0,0,120,0.0,0.0
1455,47.0,60,60,3.0,0.0
1456,35.0,0,60,4.0,0.0
1457,79.0,60,60,13.0,0.0
1458,59.0,0,120,2.0,0.0
1459,74.0,0,120,0.0,0.0
1460,83.0,60,60,13.0,0.0
1461,62.0,60,120,1.0,0.0
1462,86.0,0,120,13.0,0.0
1463,74.0,60,120,0.0,0.0
1464,60.0,60,15,2.0,0.0
1465,86.0,0,120,13.0,0.0
1466,64.0,0,15,1.0,0.0
1467,72.0,0,120,0.0,0.0
1468,48.0,60,60,2.0,0.0
1469,36.0,0,60,4.0,0.0
1470,48.0,0,60,3.0,0.0
1471,84.0,60,120,13.0,0.0
1472,69.0,0,120,0.0,0.0
1473,59.0,60,120,2.0,0.0
1474,38.0,0,60,3.0,0.0
1475,60.0,0,120,1.0,0.0
1476,26.0,0,60,4.0,0.0
1477,81.0,60,120,13.0,0.0
1478,71.0,210,120,0.0,0.0
1479,59.0,0,120,2.0,0.0
1480,62.0,0,120,1.0,0.0
1481,83.0,0,60,13.0,0.0
1482,79.0,0,240,13.0,0.0
1483,59.0,0,480,0.0,0.0
1484,55.0,10,480,1.0,0.0
1485,50.0,0,480,2.0,0.0
1486,62.0,0,15,10.0,0.0
1487,50.0,30,15,10.0,0.0
1488,67.0,30,150,13.0,0.0
1489,50.0,30,120,10.0,0.0
1490,62.0,0,120,10.0,0.0
1491,71.0,30,30,13.0,0.0
1492,74.0,30,30,13.0,0.0
1493,79.0,0,30,13.0,0.0
1494,43.0,0,15,3.0,0.0
1495,31.0,0,15,4.0,0.0
1496,50.0,0,480,2.0,0.0
1497,57.0,0,480,1.0,0.0
1498,78.0,10,15,13.0,0.0
1499,60.0,0,480,0.0,0.0
1500,79.0,10,15,13.0,0.0
1501,81.0,90,15,13.0,0.0
1502,79.0,90,90,13.0,0.0
1503,62.0,0,90,10.0,0.0
1504,78.0,30,180,13.0,0.0
1505,62.0,60,30,10.0,0.0
1506,50.0,30,15,10.0,0.0
1507,50.0,0,15,10.0,0.0
1508,62.0,0,120,10.0,0.0
1509,84.0,30,30,13.0,0.0
1510,81.0,30,30,13.0,0.0
1511,78.0,30,30,13.0,0.0
1512,81.0,30,30,13.0,0.0
1513,72.0,30,30,13.0,0.0
1514,74.0,120,30,13.0,0.0
1515,43.0,0,15,3.0,0.0
1516,31.0,0,600,4.0,0.0
1517,59.0,10,480,0.0,0.0
1518,55.0,0,480,1.0,0.0
1519,72.0,90,120,13.0,0.0
1520,62.0,0,90,10.0,0.0
1521,71.0,15,240,13.0,0.0
1522,62.0,120,30,10.0,0.0
1523,50.0,30,15,10.0,0.0
1524,50.0,0,120,10.0,0.0
1525,62.0,0,120,10.0,0.0
1526,67.0,15,15,13.0,0.0
1527,69.0,15,15,13.0,0.0
1528,71.0,15,15,13.0,0.0
1529,72.0,15,15,13.0,0.0
1530,74.0,15,15,13.0,0.0
1531,76.0,15,15,13.0,0.0
1532,78.0,15,15,13.0,0.0
1533,79.0,0,15,13.0,0.0
1534,60.0,0,120,0.0,0.0
1535,50.0,0,15,2.0,0.0
1536,78.0,10,15,13.0,0.0
1537,57.0,0,120,1.0,0.0
1538,79.0,10,15,13.0,0.0
1539,81.0,60,15,13.0,0.0
1540,79.0,30,60,13.0,0.0
1541,78.0,100,30,13.0,0.0
1542,43.0,0,90,3.0,0.0
1543,60.0,0,90,1.0,0.0
1544,31.0,0,90,4.0,0.0
1545,66.0,0,90,0.0,0.0
1546,50.0,50,90,10.0,0.0
1547,57.0,0,90,2.0,0.0
1548,62.0,0,90,10.0,0.0
1549,84.0,30,150,13.0,0.0
1550,66.0,0,90,0.0,0.0
1551,43.0,0,90,3.0,0.0
1552,60.0,20,90,1.0,0.0
1553,57.0,0,90,2.0,0.0
1554,62.0,0,90,10.0,0.0
1555,50.0,0,90,10.0,0.0
1556,31.0,0,90,4.0,0.0
1557,81.0,30,30,13.0,0.0
1558,78.0,10,30,13.0,0.0
1559,79.0,30,30,13.0,0.0
1560,50.0,0,90,10.0,0.0
1561,81.0,30,30,13.0,0.0
1562,31.0,0,90,4.0,0.0
1563,60.0,20,90,1.0,0.0
1564,62.0,0,90,10.0,0.0
1565,66.0,0,90,0.0,0.0
1566,57.0,0,90,2.0,0.0
1567,43.0,0,90,3.0,0.0
1568,78.0,30,30,13.0,0.0
1569,72.0,10,30,13.0,0.0
1570,74.0,30,30,13.0,0.0
1571,43.0,0,60,3.0,0.0
1572,50.0,30,60,10.0,0.0
1573,62.0,0,60,10.0,0.0
1574,76.0,30,30,13.0,0.0
1575,66.0,0,60,0.0,0.0
1576,57.0,0,60,2.0,0.0
1577,31.0,0,60,4.0,0.0
1578,60.0,0,60,1.0,0.0
1579,72.0,0,30,13.0,0.0
1580,69.0,30,30,13.0,0.0
1581,71.0,30,30,13.0,0.0
1582,72.0,30,30,13.0,0.0
1583,69.0,30,30,13.0,0.0
1584,66.0,30,30,13.0,0.0
1585,67.0,30,30,13.0,0.0
1586,69.0,30,30,13.0,0.0
1587,66.0,20,30,13.0,0.0
1588,62.0,30,20,13.0,0.0
1589,64.0,30,20,13.0,0.0
1590,66.0,30,20,13.0,0.0
1591,67.0,30,20,13.0,0.0
1592,69.0,30,20,13.0,0.0
1593,71.0,30,20,13.0,0.0
1594,72.0,30,20,13.0,0.0
1595,73.0,30,20,13.0,0.0
1596,74.0,30,20,13.0,0.0
1597,75.0,160,20,13.0,0.0
1598,76.0,30,150,13.0,0.0
1599,74.0,30,30,13.0,0.0
1600,72.0,30,30,13.0,0.0
1601,71.0,30,30,13.0,0.0
1602,74.0,30,30,13.0,0.0
1603,72.0,20,30,13.0,0.0
1604,69.0,30,20,13.0,0.0
1605,71.0,250,20,13.0,0.0
1606,62.0,150,480,14.0,0.0
1607,59.0,0,480,8.0,0.0
1608,55.0,0,480,8.0,0.0
1609,67.0,0,480,14.0,0.0
1610,67.0,240,240,13.0,0.0
1611,71.0,0,240,13.0,0.0
1612,64.0,0,480,14.0,0.0
1613,69.0,0,480,14.0,0.0
1614,69.0,15,150,13.0,0.0
1615,60.0,0,480,8.0,0.0
1616,71.0,15,15,13.0,0.0
1617,69.0,15,15,13.0,0.0
1618,68.0,15,15,13.0,0.0
1619,69.0,30,15,13.0,0.0
1620,71.0,40,30,13.0,0.0
1621,74.0,40,40,13.0,0.0
1622,72.0,30,40,13.0,0.0
1623,71.0,50,30,13.0,0.0
1624,71.0,40,40,13.0,0.0
1625,69.0,30,40,13.0,0.0
1626,67.0,10,30,13.0,0.0
1627,62.0,0,480,8.0,0.0
1628,60.0,0,480,14.0,0.0
1629,66.0,120,480,14.0,0.0
1630,55.0,40,15,8.0,0.0
1631,67.0,40,40,13.0,0.0
1632,66.0,30,40,13.0,0.0
1633,64.0,140,30,13.0,0.0
1634,62.0,10,120,13.0,0.0
1635,64.0,10,15,13.0,0.0
1636,62.0,10,15,13.0,0.0
1637,61.0,10,15,13.0,0.0
1638,62.0,10,15,13.0,0.0
1639,64.0,10,15,13.0,0.0
1640,66.0,10,15,13.0,0.0
1641,67.0,10,15,13.0,0.0
1642,69.0,10,15,13.0,0.0
1643,71.0,10,15,13.0,0.0
1644,72.0,10,15,13.0,0.0
1645,73.0,30,15,13.0,0.0
1646,74.0,30,30,13.0,0.0
1647,75.0,30,30,13.0,0.0
1648,76.0,30,30,13.0,0.0
1649,69.0,0,30,13.0,0.0
1650,72.0,180,120,13.0,0.0
1651,67.0,0,240,14.0,0.0
1652,71.0,30,180,13.0,0.0
1653,59.0,0,240,14.0,0.0
1654,55.0,0,240,8.0,0.0
1655,71.0,30,30,13.0,0.0
1656,72.0,0,30,13.0,0.0
1657,74.0,7,15,13.0,0.0
1658,62.0,8,15,8.0,0.0
1659,60.0,0,120,14.0,0.0
1660,57.0,0,120,8.0,0.0
1661,72.0,8,15,13.0,0.0
1662,74.0,7,15,13.0,0.0
1663,72.0,8,15,13.0,0.0
1664,74.0,7,15,13.0,0.0
1665,72.0,8,15,13.0,0.0
1666,74.0,7,15,13.0,0.0
1667,72.0,8,15,13.0,0.0
1668,74.0,7,15,13.0,0.0
1669,72.0,8,15,13.0,0.0
1670,74.0,7,15,13.0,0.0
1671,72.0,15,15,13.0,0.0
1672,71.0,15,15,13.0,0.0
1673,72.0,240,15,13.0,0.0
1674,67.0,0,15,14.0,0.0
1675,74.0,135,240,13.0,0.0
1676,59.0,0,480,8.0,0.0
1677,62.0,0,240,14.0,0.0
1678,62.0,0,240,8.0,0.0
1679,74.0,0,240,14.0,0.0
1680,67.0,0,240,14.0,0.0
1681,55.0,15,120,13.0,0.0
1682,86.0,15,15,13.0,0.0
1683,84.0,15,15,13.0,0.0
1684,83.0,15,15,13.0,0.0
1685,81.0,15,15,13.0,0.0
1686,79.0,15,15,13.0,0.0
1687,78.0,15,15,13.0,0.0
1688,79.0,120,15,13.0,0.0
1689,60.0,0,480,8.0,0.0
1690,67.0,15,240,14.0,0.0
1691,64.0,0,480,8.0,0.0
1692,78.0,120,120,13.0,0.0
1693,76.0,0,360,14.0,0.0
1694,76.0,15,120,13.0,0.0
1695,78.0,15,15,13.0,0.0
1696,79.0,15,15,13.0,0.0
1697,78.0,15,15,13.0,0.0
1698,79.0,15,15,13.0,0.0
1699,78.0,15,15,13.0,0.0
1700,79.0,15,15,13.0,0.0
1701,75.0,0,15,13.0,0.0
1702,76.0,15,15,13.0,0.0
1703,72.0,15,15,14.0,0.0
1704,69.0,60,120,14.0,0.0
1705,75.0,15,15,13.0,0.0
1706,76.0,15,15,13.0,0.0
1707,71.0,15,15,13.0,0.0
1708,72.0,15,15,13.0,0.0
1709,71.0,15,15,13.0,0.0
1710,72.0,15,15,13.0,0.0
1711,69.0,0,15,13.0,0.0
1712,67.0,15,150,13.0,0.0
1713,62.0,0,60,8.0,0.0
1714,71.0,90,60,14.0,0.0
1715,67.0,0,60,14.0,0.0
1716,69.0,15,15,13.0,0.0
1717,67.0,15,15,13.0,0.0
1718,66.0,15,15,13.0,0.0
1719,67.0,15,15,13.0,0.0
1720,62.0,15,15,13.0,0.0
1721,64.0,15,15,13.0,0.0
1722,66.0,15,15,13.0,0.0
1723,67.0,15,15,13.0,0.0
1724,69.0,15,15,13.0,0.0
1725,71.0,15,15,13.0,0.0
1726,72.0,15,15,13.0,0.0
1727,74.0,15,15,13.0,0.0
1728,76.0,15,15,13.0,0.0
1729,78.0,15,15,13.0,0.0
1730,79.0,15,15,13.0,0.0
1731,81.0,15,15,13.0,0.0
1732,83.0,15,15,13.0,0.0
1733,84.0,15,15,13.0,0.0
1734,86.0,15,15,13.0,0.0
1735,83.0,15,15,13.0,0.0
1736,84.0,15,15,13.0,0.0
1737,81.0,8,15,13.0,0.0
1738,72.0,0,60,14.0,0.0
1739,66.0,0,60,14.0,0.0
1740,62.0,8,60,8.0,0.0
1741,83.0,7,15,13.0,0.0
1742,81.0,8,15,13.0,0.0
1743,83.0,7,15,13.0,0.0
1744,81.0,8,15,13.0,0.0
1745,83.0,7,15,13.0,0.0
1746,81.0,8,15,13.0,0.0
1747,83.0,7,15,13.0,0.0
1748,81.0,0,15,13.0,0.0
1749,83.0,7,15,13.0,0.0
1750,81.0,8,15,13.0,0.0
1751,83.0,7,15,13.0,0.0
1752,81.0,8,15,13.0,0.0
1753,83.0,7,15,13.0,0.0
1754,81.0,8,15,13.0,0.0
1755,83.0,7,15,13.0,0.0
1756,81.0,8,15,13.0,0.0
1757,88.0,7,15,13.0,0.0
1758,86.0,8,15,13.0,0.0
1759,88.0,7,15,13.0,0.0
1760,86.0,8,15,13.0,0.0
1761,88.0,7,15,13.0,0.0
1762,86.0,8,15,13.0,0.0
1763,88.0,7,15,13.0,0.0
1764,86.0,8,15,13.0,0.0
1765,88.0,7,15,13.0,0.0
1766,86.0,8,15,13.0,0.0
1767,88.0,7,15,13.0,0.0
1768,86.0,8,15,13.0,0.0
1769,88.0,7,15,13.0,0.0
1770,86.0,8,15,13.0,0.0
1771,88.0,7,15,13.0,0.0
1772,86.0,8,15,13.0,0.0
1773,64.0,7,15,13.0,0.0
1774,62.0,8,15,13.0,0.0
1775,64.0,7,15,13.0,0.0
1776,62.0,8,15,13.0,0.0
1777,64.0,7,15,13.0,0.0
1778,62.0,8,15,13.0,0.0
1779,64.0,7,15,13.0,0.0
1780,62.0,8,15,13.0,0.0
1781,64.0,7,15,13.0,0.0
1782,62.0,8,15,13.0,0.0
1783,64.0,7,15,13.0,0.0
1784,62.0,8,15,13.0,0.0
1785,64.0,7,15,13.0,0.0
1786,62.0,8,15,13.0,0.0
1787,64.0,7,15,13.0,0.0
1788,62.0,8,15,13.0,0.0
1789,38.0,0,120,4.0,0.0
1790,60.0,0,120,0.0,0.0
1791,50.0,0,120,3.0,0.0
1792,64.0,7,15,13.0,0.0
1793,57.0,0,120,1.0,0.0
1794,62.0,8,15,13.0,0.0
1795,64.0,7,15,13.0,0.0
1796,62.0,8,15,13.0,0.0
1797,64.0,7,15,13.0,0.0
1798,62.0,8,15,13.0,0.0
1799,64.0,7,15,13.0,0.0
1800,62.0,30,15,13.0,0.0
1801,64.0,30,30,13.0,0.0
1802,66.0,210,30,13.0,0.0
1803,59.0,0,480,0.0,0.0
1804,55.0,0,480,1.0,0.0
1805,50.0,0,15,2.0,0.0
1806,43.0,0,480,3.0,0.0
1807,62.0,30,15,10.0,0.0
1808,50.0,0,15,10.0,0.0
1809,62.0,0,120,10.0,0.0
1810,50.0,0,120,10.0,0.0
1811,67.0,30,15,13.0,0.0
1812,71.0,30,30,13.0,0.0
1813,74.0,30,30,13.0,0.0
1814,79.0,120,30,13.0,0.0
1815,60.0,0,480,0.0,0.0
1816,31.0,0,15,4.0,0.0
1817,57.0,120,480,1.0,0.0
1818,79.0,90,120,13.0,0.0
1819,50.0,30,90,10.0,0.0
1820,78.0,30,180,13.0,0.0
1821,62.0,0,90,10.0,0.0
1822,50.0,0,30,10.0,0.0
1823,50.0,30,120,10.0,0.0
1824,62.0,60,15,10.0,0.0
1825,84.0,30,30,13.0,0.0
1826,81.0,0,30,13.0,0.0
1827,78.0,30,30,13.0,0.0
1828,81.0,30,30,13.0,0.0
1829,72.0,30,30,13.0,0.0
1830,74.0,0,30,13.0,0.0
1831,50.0,0,15,2.0,0.0
1832,72.0,90,120,13.0,0.0
1833,59.0,10,480,0.0,0.0
1834,43.0,0,15,3.0,0.0
1835,31.0,0,480,4.0,0.0
1836,55.0,0,480,1.0,0.0
1837,71.0,0,240,13.0,0.0
1838,50.0,30,90,10.0,0.0
1839,62.0,0,90,10.0,0.0
1840,50.0,120,30,10.0,0.0
1841,62.0,0,30,10.0,0.0
1842,50.0,10,120,10.0,0.0
1843,62.0,0,120,10.0,0.0
1844,67.0,10,15,13.0,0.0
1845,69.0,10,15,13.0,0.0
1846,67.0,10,15,13.0,0.0
1847,66.0,10,15,13.0,0.0
1848,67.0,10,15,13.0,0.0
1849,69.0,10,15,13.0,0.0
1850,71.0,10,15,13.0,0.0
1851,72.0,10,15,13.0,0.0
1852,74.0,10,15,13.0,0.0
1853,76.0,10,15,13.0,0.0
1854,78.0,10,15,13.0,0.0
1855,79.0,0,15,13.0,0.0
1856,57.0,0,480,1.0,0.0
1857,78.0,10,15,13.0,0.0
1858,31.0,0,480,4.0,0.0
1859,60.0,0,480,0.0,0.0
1860,50.0,0,480,2.0,0.0
1861,79.0,10,15,13.0,0.0
1862,81.0,60,15,13.0,0.0
1863,79.0,30,60,13.0,0.0
1864,78.0,90,30,13.0,0.0
1865,84.0,30,150,13.0,0.0
1866,62.0,30,15,10.0,0.0
1867,50.0,0,15,10.0,0.0
1868,62.0,0,15,10.0,0.0
1869,50.0,30,15,10.0,0.0
1870,81.0,30,30,13.0,0.0
1871,78.0,30,30,13.0,0.0
1872,79.0,30,30,13.0,0.0
1873,81.0,30,30,13.0,0.0
1874,78.0,30,30,13.0,0.0
1875,72.0,30,30,13.0,0.0
1876,74.0,0,30,13.0,0.0
1877,43.0,60,15,3.0,0.0
1878,59.0,0,60,0.0,0.0
1879,55.0,0,60,1.0,0.0
1880,50.0,0,60,2.0,0.0
1881,31.0,90,60,4.0,0.0
1882,71.0,30,150,13.0,0.0
1883,74.0,30,30,13.0,0.0
1884,73.0,30,30,13.0,0.0
1885,74.0,30,30,13.0,0.0
1886,73.0,30,30,13.0,0.0
1887,74.0,30,30,13.0,0.0
1888,76.0,30,30,13.0,0.0
1889,74.0,30,30,13.0,0.0
1890,73.0,30,30,13.0,0.0
1891,74.0,30,30,13.0,0.0
1892,76.0,30,30,13.0,0.0
1893,74.0,60,30,13.0,0.0
1894,31.0,0,60,4.0,0.0
1895,50.0,0,60,2.0,0.0
1896,59.0,0,60,1.0,0.0
1897,67.0,0,60,0.0,0.0
1898,43.0,90,60,3.0,0.0
1899,79.0,30,15,13.0,0.0
1900,78.0,30,30,13.0,0.0
1901,79.0,30,30,13.0,0.0
1902,78.0,30,30,13.0,0.0
1903,79.0,30,30,13.0,0.0
1904,81.0,30,30,13.0,0.0
1905,79.0,30,30,13.0,0.0
1906,78.0,30,30,13.0,0.0
1907,79.0,30,30,13.0,0.0
1908,81.0,30,30,13.0,0.0
1909,79.0,30,30,13.0,0.0
1910,62.0,30,60,1.0,0.0
1911,82.0,30,30,13.0,0.0
1912,55.0,0,60,2.0,0.0
1913,71.0,0,60,0.0,0.0
1914,83.0,0,30,13.0,0.0
1915,84.0,30,30,13.0,0.0
1916,83.0,30,30,13.0,0.0
1917,82.0,30,30,13.0,0.0
1918,83.0,30,30,13.0,0.0
1919,84.0,30,30,13.0,0.0
1920,83.0,30,30,13.0,0.0
1921,85.0,30,30,13.0,0.0
1922,71.0,30,60,1.0,0.0
1923,74.0,0,60,0.0,0.0
1924,67.0,0,60,2.0,0.0
1925,86.0,0,30,13.0,0.0
1926,88.0,30,30,13.0,0.0
1927,86.0,30,30,13.0,0.0
1928,85.0,30,30,13.0,0.0
1929,86.0,30,30,13.0,0.0
1930,88.0,30,30,13.0,0.0
1931,86.0,30,30,13.0,0.0
1932,85.0,20,30,13.0,0.0
1933,86.0,30,20,13.0,0.0
1934,88.0,30,20,13.0,0.0
1935,86.0,30,20,13.0,0.0
1936,85.0,30,20,13.0,0.0
1937,86.0,30,20,13.0,0.0
1938,88.0,30,20,13.0,0.0
1939,86.0,30,20,13.0,0.0
1940,85.0,30,20,13.0,0.0
1941,86.0,30,20,13.0,0.0
1942,88.0,30,20,13.0,0.0
1943,86.0,30,20,13.0,0.0
1944,67.0,20,90,10.0,0.0
1945,85.0,30,20,13.0,0.0
1946,59.0,0,90,10.0,0.0
1947,86.0,30,20,13.0,0.0
1948,88.0,10,20,13.0,0.0
1949,67.0,20,30,10.0,0.0
1950,86.0,10,20,13.0,0.0
1951,59.0,0,30,10.0,0.0
1952,85.0,30,20,13.0,0.0
1953,69.0,20,120,10.0,0.0
1954,62.0,0,120,10.0,0.0
1955,86.0,30,20,13.0,0.0
1956,88.0,30,20,13.0,0.0
1957,86.0,10,20,13.0,0.0
1958,85.0,30,20,13.0,0.0
1959,67.0,0,60,10.0,0.0
1960,71.0,20,60,10.0,0.0
1961,86.0,10,20,13.0,0.0
1962,91.0,30,20,13.0,0.0
1963,95.0,130,20,13.0,0.0
1964,98.0,90,120,13.0,0.0
1965,59.0,30,90,1.0,0.0
1966,67.0,0,15,0.0,0.0
1967,59.0,0,30,1.0,0.0
1968,69.0,20,120,0.0,0.0
1969,62.0,0,120,1.0,0.0
1970,86.0,30,20,13.0,0.0
1971,90.0,30,20,13.0,0.0
1972,93.0,10,20,13.0,0.0
1973,95.0,30,20,13.0,0.0
1974,67.0,20,60,1.0,0.0
1975,71.0,0,60,0.0,0.0
1976,86.0,10,20,13.0,0.0
1977,91.0,30,20,13.0,0.0
1978,95.0,100,20,13.0,0.0
1979,98.0,120,90,13.0,0.0
1980,46.0,30,90,3.0,0.0
1981,55.0,0,90,1.0,0.0
1982,55.0,0,90,2.0,0.0
1983,67.0,0,90,0.0,0.0
1984,34.0,0,90,4.0,0.0
1985,55.0,0,15,2.0,0.0
1986,34.0,0,15,4.0,0.0
1987,67.0,330,15,0.0,0.0
1988,55.0,0,15,1.0,0.0
1989,46.0,0,15,3.0,0.0
1990,67.0,120,330,1.0,0.0
1991,64.0,0,330,2.0,0.0
1992,33.0,0,330,4.0,0.0
1993,73.0,0,330,0.0,0.0
1994,45.0,0,330,3.0,0.0
1995,33.0,0,90,4.0,0.0
1996,64.0,0,90,2.0,0.0
1997,73.0,0,90,0.0,0.0
1998,67.0,0,90,1.0,0.0
1999,45.0,30,90,3.0,0.0
2000,45.0,0,15,3.0,0.0
2001,73.0,210,15,0.0,0.0
2002,64.0,0,15,2.0,0.0
2003,33.0,0,15,4.0,0.0
2004,67.0,0,15,1.0,0.0
2005,74.0,0,210,0.0,0.0
2006,65.0,0,210,1.0,0.0
2007,46.0,0,210,3.0,0.0
2008,62.0,30,210,2.0,0.0
2009,34.0,0,210,4.0,0.0
2010,50.0,0,15,2.0,0.0
2011,65.0,0,15,1.0,0.0
2012,50.0,0,90,2.0,0.0
2013,34.0,0,15,4.0,0.0
2014,74.0,0,15,0.0,0.0
2015,46.0,90,15,3.0,0.0
2016,65.0,30,90,1.0,0.0
2017,62.0,0,15,1.0,0.0
2018,74.0,0,15,0.0,0.0
2019,50.0,0,15,2.0,0.0
2020,46.0,0,15,3.0,0.0
2021,65.0,0,15,1.0,0.0
2022,62.0,0,15,1.0,0.0
2023,77.0,0,90,0.0,0.0
2024,50.0,0,90,2.0,0.0
2025,34.0,90,15,4.0,0.0
2026,34.0,0,15,4.0,0.0
2027,50.0,8,15,2.0,0.0
2028,62.0,0,15,1.0,0.0
2029,46.0,0,15,3.0,0.0
2030,68.0,0,15,0.0,0.0
2031,83.0,7,15,13.0,0.0
2032,45.0,0,60,3.0,0.0
2033,69.0,8,60,0.0,0.0
2034,33.0,0,60,4.0,0.0
2035,61.0,0,60,1.0,0.0
2036,52.0,0,60,2.0,0.0
2037,81.0,8,15,13.0,0.0
2038,83.0,7,15,13.0,0.0
2039,81.0,8,15,13.0,0.0
2040,83.0,7,15,13.0,0.0
2041,81.0,8,15,13.0,0.0
2042,83.0,7,15,13.0,0.0
2043,81.0,0,15,13.0,0.0
2044,83.0,7,15,13.0,0.0
2045,81.0,8,15,13.0,0.0
2046,83.0,7,15,13.0,0.0
2047,81.0,8,15,13.0,0.0
2048,83.0,7,15,13.0,0.0
2049,81.0,8,15,13.0,0.0
2050,83.0,7,15,13.0,0.0
2051,81.0,8,15,13.0,0.0
2052,83.0,7,15,13.0,0.0
2053,81.0,8,15,13.0,0.0
2054,83.0,7,15,13.0,0.0
2055,81.0,8,15,13.0,0.0
2056,83.0,7,15,13.0,0.0
2057,81.0,8,15,13.0,0.0
2058,83.0,7,15,13.0,0.0
2059,81.0,8,15,13.0,0.0
2060,83.0,7,15,13.0,0.0
2061,81.0,8,15,13.0,0.0
2062,83.0,7,15,13.0,0.0
2063,81.0,15,15,13.0,0.0
2064,80.0,15,15,13.0,0.0
2065,81.0,15,15,13.0,0.0
2066,85.0,15,15,13.0,0.0
2067,81.0,15,15,13.0,0.0
2068,76.0,15,15,13.0,0.0
2069,73.0,15,15,13.0,0.0
2070,69.0,15,15,13.0,0.0
2071,64.0,15,15,13.0,0.0
2072,61.0,120,15,13.0,0.0
2073,57.0,120,120,13.0,0.0
2074,62.0,120,120,13.0,0.0
2075,59.0,120,120,13.0,0.0
2076,56.0,120,120,13.0,0.0
2077,59.0,360,120,13.0,0.0
2078,57.0,450,360,13.0,0.0
2079,62.0,150,30,13.0,0.0
2080,57.0,0,120,13.0,0.0
2081,62.0,0,60,13.0,0.0
2082,38.0,60,15,3.0,0.0
2083,66.0,60,60,13.0,0.0
2084,38.0,60,15,3.0,0.0
2085,69.0,0,60,13.0,0.0
2086,62.0,150,30,13.0,0.0
2087,57.0,60,120,13.0,0.0
2088,38.0,0,60,3.0,0.0
2089,38.0,0,60,3.0,0.0
2090,62.0,60,60,13.0,0.0
2091,66.0,60,60,13.0,0.0
2092,38.0,60,120,3.0,0.0
2093,69.0,0,60,13.0,0.0
2094,67.0,120,60,13.0,0.0
2095,64.0,0,120,13.0,0.0
2096,61.0,60,60,3.0,0.0
2097,66.0,0,60,13.0,0.0
2098,62.0,120,60,3.0,0.0
2099,62.0,0,120,13.0,0.0
2100,59.0,60,60,3.0,0.0
2101,64.0,30,60,13.0,0.0
2102,55.0,0,60,3.0,0.0
2103,61.0,60,30,13.0,0.0
2104,57.0,15,60,3.0,0.0
2105,61.0,30,30,13.0,0.0
2106,64.0,15,15,13.0,0.0
2107,50.0,60,60,3.0,0.0
2108,62.0,15,15,13.0,0.0
2109,64.0,15,15,13.0,0.0
2110,62.0,0,15,13.0,0.0
2111,64.0,60,60,13.0,0.0
2112,45.0,30,120,3.0,0.0
2113,62.0,150,30,13.0,0.0
2114,57.0,60,120,13.0,0.0
2115,38.0,0,60,3.0,0.0
2116,62.0,60,60,13.0,0.0
2117,38.0,0,60,3.0,0.0
2118,66.0,60,60,13.0,0.0
2119,38.0,30,120,3.0,0.0
2120,69.0,0,60,13.0,0.0
2121,62.0,150,30,13.0,0.0
2122,57.0,60,120,13.0,0.0
2123,38.0,0,60,3.0,0.0
2124,62.0,60,60,13.0,0.0
2125,38.0,0,60,3.0,0.0
2126,38.0,60,120,3.0,0.0
2127,66.0,60,60,13.0,0.0
2128,69.0,0,60,13.0,0.0
2129,67.0,120,60,13.0,0.0
2130,64.0,0,120,13.0,0.0
2131,61.0,60,60,3.0,0.0
2132,66.0,120,60,13.0,0.0
2133,62.0,0,60,3.0,0.0
2134,62.0,0,120,13.0,0.0
2135,59.0,60,60,3.0,0.0
2136,64.0,0,60,13.0,0.0
2137,55.0,60,60,3.0,0.0
2138,59.0,60,60,13.0,0.0
2139,64.0,60,60,13.0,0.0
2140,52.0,0,60,3.0,0.0
2141,61.0,60,60,13.0,0.0
2142,57.0,0,60,3.0,0.0
2143,50.0,60,120,3.0,0.0
2144,62.0,60,60,13.0,0.0
2145,57.0,120,60,13.0,0.0
2146,64.0,0,120,13.0,0.0
2147,57.0,15,60,2.0,0.0
2148,57.0,0,60,1.0,0.0
2149,61.0,0,60,0.0,0.0
2150,45.0,0,60,10.0,0.0
2151,57.0,0,60,10.0,0.0
2152,57.0,0,60,3.0,0.0
2153,62.0,60,60,0.0,0.0
2154,45.0,0,60,10.0,0.0
2155,67.0,15,15,13.0,0.0
2156,57.0,0,60,10.0,0.0
2157,50.0,0,60,3.0,0.0
2158,50.0,0,60,2.0,0.0
2159,57.0,0,60,1.0,0.0
2160,66.0,15,15,13.0,0.0
2161,67.0,15,15,13.0,0.0
2162,66.0,0,15,13.0,0.0
2163,45.0,0,120,10.0,0.0
2164,67.0,60,60,13.0,0.0
2165,57.0,0,120,2.0,0.0
2166,45.0,0,120,3.0,0.0
2167,57.0,0,120,1.0,0.0
2168,64.0,0,120,0.0,0.0
2169,64.0,0,60,13.0,0.0
2170,57.0,60,15,10.0,0.0
2171,69.0,90,60,6.0,0.0
2172,57.0,0,120,10.0,0.0
2173,64.0,0,120,10.0,0.0
2174,73.0,30,120,6.0,0.0
2175,76.0,0,120,6.0,0.0
2176,57.0,0,30,2.0,0.0
2177,61.0,0,30,1.0,0.0
2178,45.0,0,60,4.0,0.0
2179,64.0,30,30,0.0,0.0
2180,57.0,0,60,3.0,0.0
2181,62.0,0,60,10.0,0.0
2182,66.0,0,60,10.0,0.0
2183,66.0,30,30,0.0,0.0
2184,38.0,60,60,4.0,0.0
2185,78.0,0,60,6.0,0.0
2186,74.0,0,60,6.0,0.0
2187,57.0,0,30,2.0,0.0
2188,62.0,0,30,1.0,0.0
2189,50.0,0,60,3.0,0.0
2190,67.0,0,60,0.0,0.0
2191,57.0,60,90,10.0,0.0
2192,64.0,0,90,10.0,0.0
2193,33.0,30,60,4.0,0.0
2194,64.0,0,60,1.0,0.0
2195,57.0,0,60,2.0,0.0
2196,61.0,0,60,1.0,0.0
2197,45.0,0,60,3.0,0.0
2198,73.0,0,90,6.0,0.0
2199,79.0,0,90,6.0,0.0
2200,86.0,135,30,13.0,0.0
2201,81.0,45,120,13.0,0.0
2202,78.0,0,40,0.0,0.0
2203,74.0,15,40,1.0,0.0
2204,78.0,0,40,0.0,0.0
2205,86.0,60,60,13.0,0.0
2206,74.0,15,40,1.0,0.0
2207,90.0,60,60,13.0,0.0
2208,78.0,0,120,0.0,0.0
2209,74.0,0,120,1.0,0.0
2210,93.0,30,60,13.0,0.0
2211,86.0,135,30,13.0,0.0
2212,81.0,45,120,13.0,0.0
2213,74.0,0,40,1.0,0.0
2214,78.0,15,40,0.0,0.0
2215,86.0,60,60,13.0,0.0
2216,74.0,0,40,1.0,0.0
2217,78.0,15,40,0.0,0.0
2218,74.0,0,120,1.0,0.0
2219,90.0,60,60,13.0,0.0
2220,78.0,60,120,0.0,0.0
2221,93.0,0,60,13.0,0.0
2222,91.0,120,60,13.0,0.0
2223,88.0,0,120,13.0,0.0
2224,85.0,60,60,0.0,0.0
2225,90.0,0,60,13.0,0.0
2226,86.0,120,60,0.0,0.0
2227,86.0,0,120,13.0,0.0
2228,83.0,60,60,0.0,0.0
2229,79.0,30,60,0.0,0.0
2230,88.0,0,60,13.0,0.0
2231,85.0,60,30,13.0,0.0
2232,85.0,30,30,13.0,0.0
2233,81.0,15,60,0.0,0.0
2234,88.0,15,15,13.0,0.0
2235,74.0,60,60,0.0,0.0
2236,86.0,15,15,13.0,0.0
2237,88.0,15,15,13.0,0.0
2238,86.0,0,15,13.0,0.0
2239,69.0,30,120,0.0,0.0
2240,88.0,60,60,13.0,0.0
2241,86.0,135,30,13.0,0.0
2242,81.0,45,120,13.0,0.0
2243,78.0,15,40,0.0,0.0
2244,74.0,0,40,1.0,0.0
2245,86.0,60,60,13.0,0.0
2246,78.0,0,40,0.0,0.0
2247,74.0,15,40,1.0,0.0
2248,78.0,30,120,0.0,0.0
2249,74.0,0,120,1.0,0.0
2250,90.0,60,60,13.0,0.0
2251,93.0,0,60,13.0,0.0
2252,86.0,135,30,13.0,0.0
2253,81.0,45,120,13.0,0.0
2254,78.0,15,40,0.0,0.0
2255,74.0,0,40,1.0,0.0
2256,74.0,15,40,1.0,0.0
2257,86.0,60,60,13.0,0.0
2258,78.0,0,40,0.0,0.0
2259,74.0,60,120,1.0,0.0
2260,90.0,60,60,13.0,0.0
2261,78.0,0,120,0.0,0.0
2262,93.0,0,60,13.0,0.0
2263,91.0,120,60,13.0,0.0
2264,88.0,60,120,13.0,0.0
2265,85.0,0,60,0.0,0.0
2266,90.0,0,60,13.0,0.0
2267,86.0,120,60,0.0,0.0
2268,86.0,0,120,13.0,0.0
2269,83.0,60,60,0.0,0.0
2270,88.0,0,60,13.0,0.0
2271,79.0,60,60,0.0,0.0
2272,83.0,60,60,13.0,0.0
2273,76.0,60,60,0.0,0.0
2274,88.0,0,60,13.0,0.0
2275,81.0,0,60,0.0,0.0
2276,85.0,60,60,13.0,0.0
2277,74.0,60,120,0.0,0.0
2278,86.0,60,60,13.0,0.0
2279,57.0,120,60,0.0,0.0
2280,61.0,0,120,1.0,0.0
2281,64.0,0,120,0.0,0.0
2282,57.0,0,60,3.0,0.0
2283,45.0,0,60,10.0,0.0
2284,50.0,0,60,3.0,0.0
2285,66.0,0,60,0.0,0.0
2286,57.0,0,15,2.0,0.0
2287,62.0,0,60,1.0,0.0
2288,57.0,60,15,10.0,0.0
2289,45.0,0,120,3.0,0.0
2290,57.0,60,15,10.0,0.0
2291,45.0,0,15,10.0,0.0
2292,67.0,0,60,0.0,0.0
2293,64.0,0,60,1.0,0.0
2294,57.0,60,60,2.0,0.0
2295,64.0,60,60,0.0,0.0
2296,61.0,0,60,1.0,0.0
2297,57.0,0,60,2.0,0.0
2298,69.0,0,60,6.0,0.0
2299,76.0,0,120,6.0,0.0
2300,73.0,0,120,6.0,0.0
2301,57.0,90,15,10.0,0.0
2302,64.0,0,120,10.0,0.0
2303,64.0,0,30,0.0,0.0
2304,45.0,0,60,4.0,0.0
2305,57.0,30,30,2.0,0.0
2306,57.0,30,60,3.0,0.0
2307,61.0,0,30,1.0,0.0
2308,38.0,0,60,4.0,0.0
2309,62.0,0,60,10.0,0.0
2310,78.0,0,60,6.0,0.0
2311,74.0,0,60,6.0,0.0
2312,66.0,60,60,10.0,0.0
2313,66.0,30,30,0.0,0.0
2314,62.0,0,30,1.0,0.0
2315,50.0,0,60,3.0,0.0
2316,57.0,0,30,2.0,0.0
2317,73.0,0,90,6.0,0.0
2318,33.0,0,60,4.0,0.0
2319,57.0,0,60,2.0,0.0
2320,79.0,0,90,6.0,0.0
2321,45.0,0,60,3.0,0.0
2322,67.0,30,60,0.0,0.0
2323,57.0,0,90,10.0,0.0
2324,64.0,60,90,10.0,0.0
2325,64.0,0,60,1.0,0.0
2326,74.0,0,30,6.0,0.0
2327,50.0,0,60,12.0,0.0
2328,66.0,0,60,7.0,0.0
2329,62.0,0,30,1.0,0.0
2330,62.0,0,30,10.0,0.0
2331,54.0,0,60,8.0,0.0
2332,74.0,30,30,0.0,0.0
2333,62.0,0,60,11.0,0.0
2334,57.0,0,120,10.0,0.0
2335,57.0,0,120,1.0,0.0
2336,50.0,0,15,11.0,0.0
2337,50.0,0,120,12.0,0.0
2338,69.0,30,120,6.0,0.0
2339,69.0,0,120,0.0,0.0
2340,54.0,0,120,8.0,0.0
2341,57.0,120,15,8.0,0.0
2342,74.0,0,15,7.0,0.0
2343,38.0,0,60,4.0,0.0
2344,50.0,0,60,3.0,0.0
2345,62.0,0,30,10.0,0.0
2346,74.0,30,30,0.0,0.0
2347,66.0,0,15,7.0,0.0
2348,62.0,0,30,1.0,0.0
2349,62.0,0,15,11.0,0.0
2350,62.0,0,15,2.0,0.0
2351,74.0,0,30,6.0,0.0
2352,50.0,0,60,11.0,0.0
2353,50.0,0,60,12.0,0.0
2354,66.0,0,60,1.0,0.0
2355,38.0,0,15,4.0,0.0
2356,57.0,0,15,8.0,0.0
2357,78.0,0,60,6.0,0.0
2358,74.0,0,15,7.0,0.0
2359,66.0,0,60,10.0,0.0
2360,54.0,0,15,8.0,0.0
2361,50.0,0,120,12.0,0.0
2362,66.0,60,15,7.0,0.0
2363,50.0,0,15,3.0,0.0
2364,62.0,0,120,2.0,0.0
2365,78.0,60,60,0.0,0.0
2366,69.0,0,60,1.0,0.0
2367,81.0,0,60,6.0,0.0
2368,81.0,0,60,0.0,0.0
2369,69.0,0,60,10.0,0.0
2370,74.0,0,30,6.0,0.0
2371,66.0,0,60,7.0,0.0
2372,74.0,0,30,0.0,0.0
2373,74.0,0,60,7.0,0.0
2374,62.0,30,30,10.0,0.0
2375,57.0,30,15,8.0,0.0
2376,54.0,0,15,8.0,0.0
2377,62.0,0,30,1.0,0.0
2378,62.0,0,15,11.0,0.0
2379,86.0,0,30,5.0,0.0
2380,50.0,0,15,11.0,0.0
2381,66.0,0,120,7.0,0.0
2382,50.0,0,15,12.0,0.0
2383,81.0,0,120,5.0,0.0
2384,50.0,0,120,11.0,0.0
2385,62.0,0,120,11.0,0.0
2386,69.0,0,120,0.0,0.0
2387,69.0,0,120,6.0,0.0
2388,57.0,0,120,10.0,0.0
2389,57.0,120,15,8.0,0.0
2390,54.0,0,15,8.0,0.0
2391,57.0,0,120,1.0,0.0
2392,38.0,0,60,4.0,0.0
2393,62.0,0,60,2.0,0.0
2394,54.0,0,15,8.0,0.0
2395,57.0,0,60,8.0,0.0
2396,74.0,30,15,7.0,0.0
2397,62.0,0,30,10.0,0.0
2398,74.0,0,30,0.0,0.0
2399,74.0,0,30,6.0,0.0
2400,50.0,0,15,3.0,0.0
2401,50.0,0,60,12.0,0.0
2402,62.0,0,30,1.0,0.0
2403,86.0,30,30,5.0,0.0
2404,62.0,0,60,2.0,0.0
2405,74.0,0,15,7.0,0.0
2406,66.0,0,15,7.0,0.0
2407,66.0,0,60,1.0,0.0
2408,78.0,0,60,0.0,0.0
2409,62.0,0,120,2.0,0.0
2410,78.0,60,60,6.0,0.0
2411,54.0,0,120,8.0,0.0
2412,57.0,0,120,8.0,0.0
2413,38.0,0,15,4.0,0.0
2414,50.0,0,15,3.0,0.0
2415,50.0,0,120,12.0,0.0
2416,66.0,0,60,10.0,0.0
2417,62.0,0,15,11.0,0.0
2418,50.0,60,15,11.0,0.0
2419,90.0,0,60,5.0,0.0
2420,69.0,0,60,10.0,0.0
2421,93.0,0,60,5.0,0.0
2422,81.0,0,60,0.0,0.0
2423,69.0,60,60,1.0,0.0
2424,81.0,0,60,6.0,0.0
2425,79.0,0,60,6.0,0.0
2426,79.0,120,60,0.0,0.0
2427,67.0,0,60,1.0,0.0
2428,76.0,60,120,6.0,0.0
2429,45.0,0,120,11.0,0.0
2430,57.0,0,120,11.0,0.0
2431,76.0,0,120,0.0,0.0
2432,64.0,0,120,1.0,0.0
2433,45.0,0,120,12.0,0.0
2434,49.0,0,60,3.0,0.0
2435,37.0,0,60,4.0,0.0
2436,57.0,0,60,10.0,0.0
2437,61.0,0,60,2.0,0.0
2438,64.0,0,60,10.0,0.0
2439,66.0,0,60,10.0,0.0
2440,62.0,0,60,10.0,0.0
2441,50.0,0,60,3.0,0.0
2442,38.0,0,60,4.0,0.0
2443,66.0,0,60,1.0,0.0
2444,62.0,0,60,2.0,0.0
2445,78.0,0,60,0.0,0.0
2446,78.0,120,60,6.0,0.0
2447,74.0,0,120,6.0,0.0
2448,74.0,0,120,0.0,0.0
2449,50.0,0,120,12.0,0.0
2450,50.0,0,120,11.0,0.0
2451,62.0,0,120,1.0,0.0
2452,62.0,60,120,11.0,0.0
2453,50.0,0,60,10.0,0.0
2454,47.0,0,60,4.0,0.0
2455,62.0,0,60,10.0,0.0
2456,71.0,0,60,2.0,0.0
2457,88.0,0,60,5.0,0.0
2458,59.0,0,60,3.0,0.0
2459,64.0,0,60,10.0,0.0
2460,64.0,0,60,1.0,0.0
2461,57.0,0,60,3.0,0.0
2462,76.0,0,60,0.0,0.0
2463,69.0,0,60,2.0,0.0
2464,76.0,45,60,6.0,0.0
2465,67.0,0,60,10.0,0.0
2466,90.0,0,60,5.0,0.0
2467,61.0,0,60,1.0,0.0
2468,57.0,0,60,2.0,0.0
2469,73.0,0,40,0.0,0.0
2470,45.0,0,15,4.0,0.0
2471,45.0,0,60,12.0,0.0
2472,85.0,0,40,5.0,0.0
2473,57.0,0,60,3.0,0.0
2474,73.0,0,40,6.0,0.0
2475,61.0,0,40,8.0,0.0
2476,64.0,0,40,7.0,0.0
2477,73.0,15,40,7.0,0.0
2478,49.0,0,40,8.0,0.0
2479,49.0,0,40,8.0,0.0
2480,61.0,0,40,8.0,0.0
2481,57.0,0,15,11.0,0.0
2482,45.0,0,15,11.0,0.0
2483,64.0,0,60,2.0,0.0
2484,85.0,0,40,5.0,0.0
2485,64.0,0,15,10.0,0.0
2486,64.0,0,40,7.0,0.0
2487,45.0,0,60,12.0,0.0
2488,73.0,0,40,0.0,0.0
2489,73.0,0,40,7.0,0.0
2490,45.0,45,15,4.0,0.0
2491,67.0,0,60,1.0,0.0
2492,57.0,0,15,10.0,0.0
2493,57.0,0,60,3.0,0.0
2494,57.0,0,60,1.0,0.0
2495,73.0,15,40,6.0,0.0
2496,50.0,0,60,12.0,0.0
2497,76.0,0,15,0.0,0.0
2498,74.0,0,40,7.0,0.0
2499,57.0,0,60,1.0,0.0
2500,62.0,0,60,10.0,0.0
2501,66.0,0,60,10.0,0.0
2502,62.0,15,40,8.0,0.0
2503,50.0,0,60,3.0,0.0
2504,50.0,0,40,8.0,0.0
2505,66.0,0,40,7.0,0.0
2506,66.0,0,60,1.0,0.0
2507,88.0,0,15,5.0,0.0
2508,62.0,0,60,11.0,0.0
2509,50.0,60,60,11.0,0.0
2510,76.0,15,15,6.0,0.0
2511,38.0,0,60,4.0,0.0
2512,62.0,0,60,2.0,0.0
2513,74.0,0,15,0.0,0.0
2514,86.0,15,15,5.0,0.0
2515,74.0,0,15,6.0,0.0
2516,76.0,0,15,0.0,0.0
2517,88.0,0,15,5.0,0.0
2518,76.0,0,15,6.0,0.0
2519,74.0,0,15,6.0,0.0
2520,74.0,0,15,0.0,0.0
2521,86.0,0,15,5.0,0.0
2522,57.0,0,120,11.0,0.0
2523,64.0,0,120,10.0,0.0
2524,57.0,0,120,10.0,0.0
2525,76.0,0,60,6.0,0.0
2526,76.0,60,60,0.0,0.0
2527,45.0,0,60,3.0,0.0
2528,64.0,30,120,8.0,0.0
2529,61.0,0,120,8.0,0.0
2530,76.0,0,120,7.0,0.0
2531,64.0,0,60,1.0,0.0
2532,57.0,0,60,1.0,0.0
2533,45.0,0,120,12.0,0.0
2534,33.0,0,60,4.0,0.0
2535,61.0,0,120,2.0,0.0
2536,88.0,0,60,5.0,0.0
2537,45.0,0,120,11.0,0.0
2538,73.0,0,120,7.0,0.0
2539,62.0,0,60,10.0,0.0
2540,57.0,0,60,8.0,0.0
2541,62.0,30,30,1.0,0.0
2542,66.0,0,60,7.0,0.0
2543,74.0,0,30,0.0,0.0
2544,62.0,0,60,11.0,0.0
2545,74.0,0,30,6.0,0.0
2546,69.0,0,120,0.0,0.0
2547,74.0,0,15,7.0,0.0
2548,57.0,0,120,10.0,0.0
2549,50.0,0,15,12.0,0.0
2550,69.0,0,120,6.0,0.0
2551,57.0,0,120,1.0,0.0
2552,50.0,0,15,11.0,0.0
2553,54.0,120,15,8.0,0.0
2554,66.0,0,120,7.0,0.0
2555,57.0,0,120,8.0,0.0
2556,62.0,0,60,2.0,0.0
2557,38.0,0,60,4.0,0.0
2558,62.0,30,30,1.0,0.0
2559,74.0,0,30,6.0,0.0
2560,62.0,0,15,11.0,0.0
2561,50.0,0,15,11.0,0.0
2562,57.0,0,60,8.0,0.0
2563,62.0,0,60,10.0,0.0
2564,74.0,0,30,0.0,0.0
2565,50.0,30,15,3.0,0.0
2566,78.0,0,60,0.0,0.0
2567,62.0,0,15,2.0,0.0
2568,50.0,0,15,12.0,0.0
2569,54.0,0,15,8.0,0.0
2570,50.0,0,120,11.0,0.0
2571,74.0,0,15,7.0,0.0
2572,66.0,0,15,7.0,0.0
2573,66.0,60,60,10.0,0.0
2574,62.0,0,120,11.0,0.0
2575,50.0,0,15,3.0,0.0
2576,66.0,0,60,1.0,0.0
2577,38.0,60,15,4.0,0.0
2578,78.0,0,60,6.0,0.0
2579,69.0,0,60,1.0,0.0
2580,81.0,0,60,0.0,0.0
2581,81.0,30,60,6.0,0.0
2582,69.0,0,60,10.0,0.0
2583,62.0,0,60,10.0,0.0
2584,62.0,0,30,1.0,0.0
2585,74.0,0,60,7.0,0.0
2586,74.0,30,30,6.0,0.0
2587,74.0,0,30,0.0,0.0
2588,57.0,0,15,8.0,0.0
2589,54.0,0,15,8.0,0.0
2590,86.0,0,30,5.0,0.0
2591,50.0,0,60,12.0,0.0
2592,57.0,0,120,1.0,0.0
2593,57.0,0,120,10.0,0.0
2594,81.0,0,120,5.0,0.0
2595,57.0,0,15,8.0,0.0
2596,54.0,0,15,8.0,0.0
2597,69.0,0,120,6.0,0.0
2598,74.0,0,120,7.0,0.0
2599,62.0,0,15,11.0,0.0
2600,69.0,0,120,0.0,0.0
2601,66.0,0,15,7.0,0.0
2602,50.0,0,120,12.0,0.0
2603,50.0,120,15,11.0,0.0
2604,38.0,0,60,4.0,0.0
2605,74.0,0,30,0.0,0.0
2606,62.0,0,60,10.0,0.0
2607,86.0,30,30,5.0,0.0
2608,62.0,0,15,2.0,0.0
2609,74.0,0,60,7.0,0.0
2610,50.0,0,60,12.0,0.0
2611,62.0,0,30,1.0,0.0
2612,50.0,0,15,3.0,0.0
2613,74.0,0,30,6.0,0.0
2614,54.0,30,15,8.0,0.0
2615,57.0,0,60,8.0,0.0
2616,62.0,0,60,11.0,0.0
2617,90.0,60,60,5.0,0.0
2618,50.0,0,120,12.0,0.0
2619,66.0,0,60,1.0,0.0
2620,78.0,0,60,0.0,0.0
2621,78.0,0,60,6.0,0.0
2622,54.0,0,120,8.0,0.0
2623,57.0,0,120,8.0,0.0
2624,62.0,0,15,2.0,0.0
2625,66.0,0,15,7.0,0.0
2626,74.0,0,120,7.0,0.0
2627,66.0,0,60,10.0,0.0
2628,50.0,60,15,3.0,0.0
2629,50.0,0,15,11.0,0.0
2630,38.0,0,15,4.0,0.0
2631,62.0,0,120,11.0,0.0
2632,81.0,0,60,6.0,0.0
2633,81.0,0,60,0.0,0.0
2634,93.0,0,60,5.0,0.0
2635,69.0,0,60,10.0,0.0
2636,69.0,0,60,1.0,0.0
2637,67.0,120,60,1.0,0.0
2638,79.0,0,60,0.0,0.0
2639,79.0,0,60,6.0,0.0
2640,76.0,0,120,0.0,0.0
2641,45.0,0,120,11.0,0.0
2642,45.0,0,120,12.0,0.0
2643,76.0,0,120,6.0,0.0
2644,57.0,0,120,11.0,0.0
2645,64.0,0,120,1.0,0.0
2646,49.0,0,60,3.0,0.0
2647,37.0,0,60,4.0,0.0
2648,57.0,0,60,10.0,0.0
2649,61.0,0,60,2.0,0.0
2650,64.0,60,60,10.0,0.0
2651,50.0,0,60,3.0,0.0
2652,66.0,0,60,1.0,0.0
2653,38.0,0,60,4.0,0.0
2654,78.0,120,60,6.0,0.0
2655,78.0,0,60,0.0,0.0
2656,62.0,0,60,10.0,0.0
2657,66.0,0,60,10.0,0.0
2658,62.0,0,60,2.0,0.0
2659,74.0,60,120,6.0,0.0
2660,74.0,0,120,0.0,0.0
2661,62.0,0,120,11.0,0.0
2662,62.0,0,120,1.0,0.0
2663,50.0,0,120,12.0,0.0
2664,50.0,0,120,11.0,0.0
2665,35.0,0,60,4.0,0.0
2666,62.0,0,60,10.0,0.0
2667,50.0,0,60,10.0,0.0
2668,59.0,0,60,2.0,0.0
2669,47.0,0,60,3.0,0.0
2670,64.0,0,60,1.0,0.0
2671,76.0,0,60,0.0,0.0
2672,76.0,0,60,6.0,0.0
2673,67.0,0,60,10.0,0.0
2674,64.0,0,60,10.0,0.0
2675,43.0,60,15,3.0,0.0
2676,71.0,60,60,0.0,0.0
2677,55.0,0,15,2.0,0.0
2678,31.0,0,15,4.0,0.0
2679,71.0,0,60,6.0,0.0
2680,59.0,0,60,1.0,0.0
2681,76.0,0,60,0.0,0.0
2682,55.0,0,15,2.0,0.0
2683,76.0,30,60,6.0,0.0
2684,64.0,0,60,1.0,0.0
2685,43.0,0,60,3.0,0.0
2686,31.0,0,15,4.0,0.0
2687,57.0,0,60,2.0,0.0
2688,45.0,60,60,3.0,0.0
2689,61.0,30,30,1.0,0.0
2690,33.0,0,60,4.0,0.0
2691,73.0,0,30,0.0,0.0
2692,73.0,0,30,6.0,0.0
2693,35.0,0,60,4.0,0.0
2694,62.0,0,60,1.0,0.0
2695,74.0,60,60,0.0,0.0
2696,59.0,0,60,2.0,0.0
2697,47.0,0,60,3.0,0.0
2698,74.0,0,60,6.0,0.0
2699,59.0,0,60,2.0,0.0
2700,47.0,0,60,3.0,0.0
2701,35.0,0,60,4.0,0.0
2702,79.0,0,60,0.0,0.0
2703,79.0,0,60,6.0,0.0
2704,67.0,30,60,1.0,0.0
2705,61.0,0,60,2.0,0.0
2706,76.0,0,30,0.0,0.0
2707,76.0,0,30,6.0,0.0
2708,37.0,60,60,4.0,0.0
2709,49.0,0,60,3.0,0.0
2710,64.0,0,30,1.0,0.0
2711,76.0,30,30,5.0,0.0
2712,66.0,60,60,6.0,0.0
2713,50.0,0,60,8.0,0.0
2714,78.0,0,60,0.0,0.0
2715,50.0,0,60,3.0,0.0
2716,78.0,0,60,6.0,0.0
2717,66.0,0,60,1.0,0.0
2718,38.0,0,60,4.0,0.0
2719,78.0,0,60,5.0,0.0
2720,62.0,0,60,2.0,0.0
2721,66.0,0,60,7.0,0.0
2722,71.0,0,60,1.0,0.0
2723,83.0,30,60,0.0,0.0
2724,62.0,0,60,2.0,0.0
2725,83.0,0,60,5.0,0.0
2726,69.0,0,60,6.0,0.0
2727,50.0,0,60,8.0,0.0
2728,83.0,0,60,6.0,0.0
2729,50.0,0,60,3.0,0.0
2730,38.0,0,60,4.0,0.0
2731,79.0,0,30,5.0,0.0
2732,52.0,0,60,3.0,0.0
2733,71.0,0,15,7.0,0.0
2734,52.0,0,60,8.0,0.0
2735,67.0,30,30,6.0,0.0
2736,79.0,0,30,6.0,0.0
2737,40.0,60,60,4.0,0.0
2738,64.0,0,60,2.0,0.0
2739,67.0,0,30,1.0,0.0
2740,79.0,0,30,0.0,0.0
2741,50.0,0,60,10.0,0.0
2742,81.0,0,60,0.0,0.0
2743,62.0,0,60,11.0,0.0
2744,50.0,0,60,11.0,0.0
2745,62.0,0,60,10.0,0.0
2746,42.0,0,60,4.0,0.0
2747,50.0,0,120,12.0,0.0
2748,54.0,0,60,8.0,0.0
2749,69.0,0,60,1.0,0.0
2750,69.0,60,60,6.0,0.0
2751,81.0,0,60,6.0,0.0
2752,54.0,0,60,3.0,0.0
2753,66.0,0,60,2.0,0.0
2754,81.0,0,60,5.0,0.0
2755,69.0,0,60,7.0,0.0
2756,42.0,30,60,4.0,0.0
2757,74.0,0,60,7.0,0.0
2758,50.0,0,60,10.0,0.0
2759,62.0,0,60,10.0,0.0
2760,74.0,0,60,1.0,0.0
2761,54.0,0,60,3.0,0.0
2762,86.0,0,60,6.0,0.0
2763,54.0,0,60,8.0,0.0
2764,66.0,0,60,2.0,0.0
2765,74.0,0,60,6.0,0.0
2766,86.0,0,60,0.0,0.0
2767,86.0,0,60,5.0,0.0
2768,43.0,0,60,4.0,0.0
2769,62.0,0,15,11.0,0.0
2770,50.0,0,15,11.0,0.0
2771,71.0,0,30,1.0,0.0
2772,83.0,0,30,0.0,0.0
2773,83.0,0,30,6.0,0.0
2774,71.0,0,30,6.0,0.0
2775,83.0,0,30,5.0,0.0
2776,55.0,0,60,3.0,0.0
2777,62.0,0,60,10.0,0.0
2778,55.0,0,60,8.0,0.0
2779,71.0,30,30,7.0,0.0
2780,67.0,0,60,2.0,0.0
2781,50.0,0,15,10.0,0.0
2782,54.0,0,60,8.0,0.0
2783,69.0,0,60,7.0,0.0
2784,69.0,0,60,6.0,0.0
2785,81.0,0,60,0.0,0.0
2786,50.0,0,120,12.0,0.0
2787,81.0,0,60,6.0,0.0
2788,62.0,0,60,10.0,0.0
2789,54.0,0,60,3.0,0.0
2790,50.0,0,60,11.0,0.0
2791,69.0,0,60,1.0,0.0
2792,86.0,0,60,0.0,0.0
2793,42.0,60,15,4.0,0.0
2794,50.0,0,15,10.0,0.0
2795,66.0,0,15,2.0,0.0
2796,74.0,0,60,7.0,0.0
2797,54.0,30,60,8.0,0.0
2798,62.0,0,15,11.0,0.0
2799,50.0,0,60,11.0,0.0
2800,74.0,0,60,6.0,0.0
2801,86.0,0,60,6.0,0.0
2802,54.0,0,60,3.0,0.0
2803,74.0,0,60,1.0,0.0
2804,50.0,0,60,11.0,0.0
2805,62.0,0,15,10.0,0.0
2806,50.0,0,15,10.0,0.0
2807,55.0,0,60,3.0,0.0
2808,83.0,0,30,0.0,0.0
2809,55.0,0,60,8.0,0.0
2810,71.0,30,30,7.0,0.0
2811,71.0,0,30,1.0,0.0
2812,67.0,60,60,2.0,0.0
2813,83.0,0,30,6.0,0.0
2814,43.0,0,60,4.0,0.0
2815,86.0,0,15,5.0,0.0
2816,71.0,0,30,6.0,0.0
2817,81.0,0,60,0.0,0.0
2818,50.0,0,60,10.0,0.0
2819,62.0,0,15,11.0,0.0
2820,81.0,0,60,6.0,0.0
2821,69.0,0,60,6.0,0.0
2822,42.0,60,60,4.0,0.0
2823,86.0,0,15,5.0,0.0
2824,69.0,0,60,1.0,0.0
2825,62.0,0,15,10.0,0.0
2826,50.0,0,120,12.0,0.0
2827,69.0,0,60,7.0,0.0
2828,66.0,0,60,2.0,0.0
2829,54.0,0,15,3.0,0.0
2830,62.0,0,15,11.0,0.0
2831,50.0,0,15,11.0,0.0
2832,74.0,0,60,1.0,0.0
2833,74.0,0,60,6.0,0.0
2834,54.0,0,15,8.0,0.0
2835,86.0,30,60,0.0,0.0
2836,74.0,0,60,7.0,0.0
2837,86.0,0,60,6.0,0.0
2838,66.0,0,60,2.0,0.0
2839,42.0,0,60,4.0,0.0
2840,83.0,0,30,6.0,0.0
2841,71.0,0,30,6.0,0.0
2842,71.0,0,30,1.0,0.0
2843,67.0,30,60,2.0,0.0
2844,71.0,0,30,7.0,0.0
2845,55.0,0,60,8.0,0.0
2846,62.0,0,15,10.0,0.0
2847,50.0,0,15,10.0,0.0
2848,83.0,30,30,0.0,0.0
2849,43.0,0,60,4.0,0.0
2850,55.0,0,60,3.0,0.0
2851,42.0,0,60,4.0,0.0
2852,62.0,0,15,11.0,0.0
2853,50.0,0,15,11.0,0.0
2854,54.0,0,180,8.0,0.0
2855,57.0,0,180,8.0,0.0
2856,69.0,15,180,6.0,0.0
2857,86.0,0,15,5.0,0.0
2858,69.0,0,30,1.0,0.0
2859,69.0,0,180,7.0,0.0
2860,81.0,0,180,6.0,0.0
2861,50.0,0,180,10.0,0.0
2862,62.0,0,180,10.0,0.0
2863,62.0,0,30,2.0,0.0
2864,66.0,0,30,2.0,0.0
2865,50.0,0,120,12.0,0.0
2866,81.0,0,180,0.0,0.0
2867,57.0,30,30,1.0,0.0
2868,66.0,0,30,2.0,0.0
2869,62.0,0,30,2.0,0.0
2870,54.0,0,15,3.0,0.0
2871,69.0,30,15,1.0,0.0
2872,57.0,0,15,1.0,0.0
2873,66.0,0,30,2.0,0.0
2874,62.0,0,30,2.0,0.0
2875,69.0,0,15,1.0,0.0
2876,57.0,30,15,1.0,0.0
2877,57.0,0,30,1.0,0.0
2878,69.0,0,30,1.0,0.0
2879,62.0,0,15,2.0,0.0
2880,66.0,0,15,2.0,0.0
2881,54.0,30,15,3.0,0.0
2882,42.0,0,15,4.0,0.0
2883,62.0,0,15,2.0,0.0
2884,66.0,30,15,2.0,0.0
2885,57.0,0,30,1.0,0.0
2886,69.0,0,30,1.0,0.0
2887,64.0,0,30,2.0,0.0
2888,62.0,0,15,2.0,0.0
2889,59.0,0,30,1.0,0.0
2890,79.0,15,15,0.0,0.0
2891,43.0,0,60,4.0,0.0
2892,81.0,0,15,0.0,0.0
2893,79.0,0,60,0.0,0.0
2894,67.0,30,15,1.0,0.0
2895,64.0,0,30,2.0,0.0
2896,55.0,0,15,3.0,0.0
2897,62.0,0,15,2.0,0.0
2898,67.0,30,15,1.0,0.0
2899,59.0,0,15,1.0,0.0
2900,43.0,0,60,4.0,0.0
2901,59.0,15,15,1.0,0.0
2902,67.0,0,15,1.0,0.0
2903,78.0,15,15,0.0,0.0
2904,62.0,0,15,2.0,0.0
2905,64.0,0,15,2.0,0.0
2906,59.0,0,15,1.0,0.0
2907,43.0,0,60,4.0,0.0
2908,64.0,30,15,2.0,0.0
2909,76.0,0,30,0.0,0.0
2910,55.0,15,60,3.0,0.0
2911,62.0,30,15,2.0,0.0
2912,67.0,0,15,1.0,0.0
2913,59.0,0,15,1.0,0.0
2914,64.0,0,30,2.0,0.0
2915,62.0,0,30,2.0,0.0
2916,74.0,15,15,0.0,0.0
2917,57.0,0,30,1.0,0.0
2918,66.0,0,30,1.0,0.0
2919,76.0,0,15,0.0,0.0
2920,66.0,30,15,2.0,0.0
2921,74.0,15,60,0.0,0.0
2922,57.0,0,30,1.0,0.0
2923,57.0,0,15,3.0,0.0
2924,66.0,0,15,1.0,0.0
2925,57.0,0,30,1.0,0.0
2926,62.0,0,15,2.0,0.0
2927,45.0,30,15,4.0,0.0
2928,66.0,0,15,2.0,0.0
2929,62.0,0,15,2.0,0.0
2930,66.0,0,30,1.0,0.0
2931,73.0,15,15,0.0,0.0
2932,57.0,0,15,1.0,0.0
2933,66.0,0,30,1.0,0.0
2934,57.0,0,60,3.0,0.0
2935,71.0,0,30,0.0,0.0
2936,45.0,0,15,4.0,0.0
2937,62.0,30,15,2.0,0.0
2938,66.0,0,15,2.0,0.0
2939,57.0,0,15,1.0,0.0
2940,66.0,0,30,1.0,0.0
2941,62.0,0,30,2.0,0.0
2942,66.0,0,30,2.0,0.0
2943,57.0,30,15,1.0,0.0
2944,57.0,0,120,10.0,0.0
2945,69.0,0,120,6.0,0.0
2946,76.0,0,120,6.0,0.0
2947,61.0,0,30,2.0,0.0
2948,64.0,30,15,1.0,0.0
2949,57.0,0,15,1.0,0.0
2950,43.0,0,15,4.0,0.0
2951,55.0,0,15,3.0,0.0
2952,61.0,0,15,2.0,0.0
2953,57.0,30,15,1.0,0.0
2954,64.0,0,15,1.0,0.0
2955,61.0,0,15,2.0,0.0
2956,64.0,30,15,1.0,0.0
2957,57.0,0,30,1.0,0.0
2958,69.0,0,15,0.0,0.0
2959,55.0,0,15,3.0,0.0
2960,43.0,0,15,4.0,0.0
2961,57.0,0,30,1.0,0.0
2962,61.0,0,15,2.0,0.0
2963,64.0,0,15,10.0,0.0
2964,64.0,30,15,1.0,0.0
2965,57.0,0,60,10.0,0.0
2966,76.0,0,60,6.0,0.0
2967,64.0,0,30,1.0,0.0
2968,61.0,0,30,2.0,0.0
2969,57.0,0,15,1.0,0.0
2970,69.0,0,30,1.0,0.0
2971,69.0,0,15,6.0,0.0
2972,50.0,0,120,12.0,0.0
2973,62.0,0,180,10.0,0.0
2974,50.0,15,180,10.0,0.0
2975,57.0,0,180,8.0,0.0
2976,54.0,0,180,8.0,0.0
2977,86.0,0,180,5.0,0.0
2978,78.0,0,180,7.0,0.0
2979,62.0,0,180,11.0,0.0
2980,81.0,0,180,6.0,0.0
2981,74.0,0,180,7.0,0.0
2982,81.0,0,180,0.0,0.0
2983,42.0,0,60,4.0,0.0
2984,50.0,0,180,11.0,0.0
2985,66.0,30,15,2.0,0.0
2986,62.0,0,15,2.0,0.0
2987,69.0,0,30,1.0,0.0
2988,57.0,0,15,1.0,0.0
2989,54.0,0,15,3.0,0.0
2990,66.0,0,30,2.0,0.0
2991,62.0,0,30,2.0,0.0
2992,69.0,0,15,1.0,0.0
2993,57.0,30,15,1.0,0.0
2994,62.0,0,15,2.0,0.0
2995,66.0,0,15,2.0,0.0
2996,57.0,0,15,1.0,0.0
2997,42.0,0,15,4.0,0.0
2998,69.0,0,15,1.0,0.0
2999,54.0,30,15,3.0,0.0
3000,57.0,0,30,1.0,0.0
3001,66.0,0,30,2.0,0.0
3002,69.0,30,15,1.0,0.0
3003,59.0,0,30,1.0,0.0
3004,43.0,0,60,4.0,0.0
3005,79.0,15,15,0.0,0.0
3006,62.0,0,15,2.0,0.0
3007,55.0,0,60,3.0,0.0
3008,81.0,0,15,0.0,0.0
3009,64.0,0,15,2.0,0.0
3010,62.0,0,15,2.0,0.0
3011,67.0,30,15,1.0,0.0
3012,79.0,0,60,0.0,0.0
3013,43.0,0,60,4.0,0.0
3014,62.0,0,30,2.0,0.0
3015,67.0,30,15,1.0,0.0
3016,59.0,0,15,1.0,0.0
3017,64.0,15,15,2.0,0.0
3018,62.0,0,30,2.0,0.0
3019,78.0,15,15,0.0,0.0
3020,76.0,0,30,0.0,0.0
3021,67.0,0,15,1.0,0.0
3022,55.0,0,15,3.0,0.0
3023,59.0,30,15,1.0,0.0
3024,62.0,0,30,2.0,0.0
3025,43.0,0,60,4.0,0.0
3026,59.0,0,15,1.0,0.0
3027,67.0,30,15,1.0,0.0
3028,64.0,0,15,2.0,0.0
3029,62.0,0,30,2.0,0.0
3030,45.0,0,60,4.0,0.0
3031,57.0,0,60,3.0,0.0
3032,66.0,0,30,1.0,0.0
3033,74.0,15,15,0.0,0.0
3034,76.0,0,15,0.0,0.0
3035,62.0,0,15,2.0,0.0
3036,66.0,0,15,2.0,0.0
3037,57.0,30,15,1.0,0.0
3038,66.0,0,30,1.0,0.0
3039,74.0,0,60,0.0,0.0
3040,62.0,30,15,2.0,0.0
3041,57.0,0,30,1.0,0.0
3042,66.0,0,15,2.0,0.0
3043,57.0,0,60,3.0,0.0
3044,66.0,0,30,1.0,0.0
3045,62.0,15,15,2.0,0.0
3046,66.0,0,15,2.0,0.0
3047,73.0,15,15,0.0,0.0
3048,66.0,0,15,1.0,0.0
3049,57.0,0,15,1.0,0.0
3050,45.0,30,15,4.0,0.0
3051,57.0,30,60,3.0,0.0
3052,71.0,30,30,0.0,0.0
3053,62.0,0,15,2.0,0.0
3054,66.0,0,15,2.0,0.0
3055,62.0,0,15,2.0,0.0
3056,66.0,0,15,1.0,0.0
3057,66.0,0,30,2.0,0.0
3058,57.0,0,30,1.0,0.0
3059,64.0,0,30,1.0,0.0
3060,57.0,0,30,1.0,0.0
3061,69.0,0,120,6.0,0.0
3062,64.0,0,120,10.0,0.0
3063,55.0,0,60,3.0,0.0
3064,76.0,0,120,6.0,0.0
3065,61.0,30,15,2.0,0.0
3066,61.0,0,15,2.0,0.0
3067,43.0,30,15,4.0,0.0
3068,57.0,0,15,1.0,0.0
3069,64.0,0,15,1.0,0.0
3070,61.0,0,15,2.0,0.0
3071,57.0,30,15,1.0,0.0
3072,64.0,0,30,1.0,0.0
3073,61.0,30,30,2.0,0.0
3074,57.0,0,30,1.0,0.0
3075,69.0,0,15,0.0,0.0
3076,69.0,0,60,6.0,0.0
3077,55.0,0,15,3.0,0.0
3078,64.0,0,60,10.0,0.0
3079,57.0,30,15,10.0,0.0
3080,43.0,0,60,4.0,0.0
3081,76.0,0,60,6.0,0.0
3082,64.0,0,15,1.0,0.0
3083,61.0,0,30,2.0,0.0
3084,54.0,0,60,3.0,0.0
3085,54.0,0,180,8.0,0.0
3086,57.0,0,15,1.0,0.0
3087,78.0,0,180,7.0,0.0
3088,74.0,0,180,7.0,0.0
3089,57.0,0,180,8.0,0.0
3090,42.0,15,60,4.0,0.0
3091,50.0,0,180,11.0,0.0
3092,62.0,0,180,11.0,0.0
3093,66.0,0,180,10.0,0.0
3094,49.0,15,15,12.0,0.0
3095,81.0,0,180,6.0,0.0
3096,81.0,0,90,0.0,0.0
3097,69.0,0,180,6.0,0.0
3098,86.0,0,180,5.0,0.0
3099,50.0,15,15,12.0,0.0
3100,62.0,0,15,2.0,0.0
3101,69.0,0,15,1.0,0.0
3102,57.0,0,15,1.0,0.0
3103,66.0,0,15,2.0,0.0
3104,49.0,15,15,12.0,0.0
3105,50.0,0,15,12.0,0.0
3106,49.0,15,15,12.0,0.0
3107,57.0,0,30,1.0,0.0
3108,69.0,0,30,1.0,0.0
3109,50.0,0,15,12.0,0.0
3110,62.0,0,15,2.0,0.0
3111,57.0,0,30,1.0,0.0
3112,66.0,15,15,2.0,0.0
3113,69.0,0,30,1.0,0.0
3114,49.0,0,15,12.0,0.0
3115,83.0,15,15,0.0,0.0
3116,50.0,0,15,12.0,0.0
3117,42.0,0,15,4.0,0.0
3118,62.0,0,15,2.0,0.0
3119,66.0,15,15,2.0,0.0
3120,81.0,15,30,0.0,0.0
3121,54.0,0,15,3.0,0.0
3122,49.0,15,15,12.0,0.0
3123,50.0,0,15,12.0,0.0
3124,57.0,0,15,1.0,0.0
3125,62.0,0,15,2.0,0.0
3126,49.0,15,15,12.0,0.0
3127,69.0,0,15,1.0,0.0
3128,66.0,0,30,2.0,0.0
3129,50.0,0,15,12.0,0.0
3130,91.0,0,15,5.0,0.0
3131,64.0,0,30,2.0,0.0
3132,67.0,0,15,8.0,0.0
3133,62.0,0,15,10.0,0.0
3134,64.0,0,180,10.0,0.0
3135,49.0,0,15,12.0,0.0
3136,79.0,0,15,6.0,0.0
3137,79.0,15,15,0.0,0.0
3138,62.0,0,30,2.0,0.0
3139,67.0,0,30,1.0,0.0
3140,71.0,0,180,7.0,0.0
3141,67.0,0,180,7.0,0.0
3142,69.0,15,15,8.0,0.0
3143,81.0,0,15,0.0,0.0
3144,50.0,0,15,12.0,0.0
3145,93.0,0,15,5.0,0.0
3146,81.0,0,15,6.0,0.0
3147,67.0,0,60,8.0,0.0
3148,64.0,0,30,2.0,0.0
3149,59.0,0,15,1.0,0.0
3150,67.0,0,30,1.0,0.0
3151,79.0,0,60,6.0,0.0
3152,49.0,15,15,12.0,0.0
3153,91.0,0,60,5.0,0.0
3154,79.0,0,60,0.0,0.0
3155,50.0,0,15,12.0,0.0
3156,49.0,15,15,12.0,0.0
3157,62.0,0,15,2.0,0.0
3158,43.0,0,15,4.0,0.0
3159,55.0,0,15,3.0,0.0
3160,67.0,0,30,1.0,0.0
3161,59.0,0,30,1.0,0.0
3162,50.0,0,15,12.0,0.0
3163,90.0,0,30,5.0,0.0
3164,78.0,15,15,0.0,0.0
3165,66.0,0,30,8.0,0.0
3166,78.0,15,30,6.0,0.0
3167,49.0,0,15,12.0,0.0
3168,62.0,15,15,2.0,0.0
3169,64.0,0,15,2.0,0.0
3170,59.0,0,30,1.0,0.0
3171,67.0,0,30,1.0,0.0
3172,50.0,0,15,12.0,0.0
3173,55.0,0,15,3.0,0.0
3174,64.0,0,60,8.0,0.0
3175,59.0,0,30,1.0,0.0
3176,64.0,0,15,2.0,0.0
3177,88.0,0,60,5.0,0.0
3178,43.0,0,60,4.0,0.0
3179,76.0,0,30,0.0,0.0
3180,67.0,0,30,1.0,0.0
3181,62.0,0,30,2.0,0.0
3182,76.0,0,60,6.0,0.0
3183,49.0,15,15,12.0,0.0
3184,50.0,0,15,12.0,0.0
3185,49.0,15,15,12.0,0.0
3186,59.0,15,30,1.0,0.0
3187,67.0,0,30,1.0,0.0
3188,64.0,15,15,2.0,0.0
3189,50.0,0,15,12.0,0.0
3190,74.0,15,15,0.0,0.0
3191,62.0,0,15,10.0,0.0
3192,62.0,0,15,11.0,0.0
3193,50.0,0,15,11.0,0.0
3194,66.0,0,30,1.0,0.0
3195,66.0,15,180,7.0,0.0
3196,62.0,0,180,7.0,0.0
3197,62.0,0,15,2.0,0.0
3198,86.0,0,15,5.0,0.0
3199,66.0,0,180,10.0,0.0
3200,49.0,0,15,12.0,0.0
3201,74.0,0,15,6.0,0.0
3202,62.0,0,15,8.0,0.0
3203,57.0,0,30,1.0,0.0
3204,64.0,15,15,8.0,0.0
3205,50.0,0,15,12.0,0.0
3206,88.0,0,15,5.0,0.0
3207,76.0,0,15,6.0,0.0
3208,76.0,0,15,0.0,0.0
3209,74.0,0,60,0.0,0.0
3210,74.0,0,60,6.0,0.0
3211,49.0,15,15,12.0,0.0
3212,62.0,0,15,2.0,0.0
3213,62.0,0,60,8.0,0.0
3214,57.0,15,30,1.0,0.0
3215,86.0,0,60,5.0,0.0
3216,50.0,0,15,12.0,0.0
3217,57.0,0,15,3.0,0.0
3218,66.0,0,15,1.0,0.0
3219,45.0,0,15,4.0,0.0
3220,49.0,15,15,12.0,0.0
3221,57.0,0,30,1.0,0.0
3222,50.0,15,15,12.0,0.0
3223,73.0,15,15,0.0,0.0
3224,49.0,0,15,12.0,0.0
3225,62.0,0,15,2.0,0.0
3226,73.0,0,30,6.0,0.0
3227,85.0,0,30,5.0,0.0
3228,61.0,0,30,8.0,0.0
3229,57.0,0,30,1.0,0.0
3230,66.0,0,30,1.0,0.0
3231,50.0,0,15,12.0,0.0
3232,49.0,15,15,12.0,0.0
3233,83.0,0,60,5.0,0.0
3234,59.0,0,60,8.0,0.0
3235,71.0,0,60,6.0,0.0
3236,62.0,0,30,2.0,0.0
3237,57.0,0,30,1.0,0.0
3238,71.0,15,30,0.0,0.0
3239,57.0,15,15,3.0,0.0
3240,45.0,0,60,4.0,0.0
3241,50.0,0,15,12.0,0.0
3242,66.0,0,15,1.0,0.0
3243,57.0,0,30,1.0,0.0
3244,62.0,0,30,2.0,0.0
3245,49.0,15,15,12.0,0.0
3246,50.0,0,15,12.0,0.0
3247,33.0,30,60,4.0,0.0
3248,64.0,0,180,7.0,0.0
3249,69.0,15,15,0.0,0.0
3250,57.0,0,15,8.0,0.0
3251,55.0,0,30,1.0,0.0
3252,69.0,0,15,6.0,0.0
3253,64.0,0,180,10.0,0.0
3254,81.0,0,15,5.0,0.0
3255,67.0,0,180,7.0,0.0
3256,57.0,0,180,10.0,0.0
3257,45.0,0,180,11.0,0.0
3258,57.0,0,180,11.0,0.0
3259,83.0,0,15,5.0,0.0
3260,71.0,0,15,6.0,0.0
3261,59.0,30,15,8.0,0.0
3262,71.0,0,15,0.0,0.0
3263,57.0,0,60,8.0,0.0
3264,69.0,0,60,0.0,0.0
3265,61.0,0,15,2.0,0.0
3266,69.0,0,60,6.0,0.0
3267,81.0,15,60,5.0,0.0
3268,64.0,0,15,1.0,0.0
3269,45.0,0,15,3.0,0.0
3270,64.0,0,15,1.0,0.0
3271,55.0,0,15,1.0,0.0
3272,33.0,0,60,4.0,0.0
3273,55.0,0,30,1.0,0.0
3274,64.0,0,15,1.0,0.0
3275,67.0,30,30,6.0,0.0
3276,61.0,0,15,2.0,0.0
3277,67.0,15,15,0.0,0.0
3278,55.0,0,30,8.0,0.0
3279,79.0,0,30,5.0,0.0
3280,45.0,0,15,12.0,0.0
3281,45.0,120,60,3.0,0.0
3282,55.0,30,30,1.0,0.0
3283,45.0,0,60,12.0,0.0
3284,66.0,0,60,6.0,0.0
3285,33.0,0,60,4.0,0.0
3286,78.0,0,60,5.0,0.0
3287,54.0,0,60,8.0,0.0
3288,64.0,0,30,0.0,0.0
3289,64.0,0,15,1.0,0.0
3290,61.0,0,15,2.0,0.0
3291,55.0,0,30,1.0,0.0
3292,62.0,0,540,0.0,0.0
3293,50.0,60,120,8.0,0.0
3294,62.0,15,180,1.0,0.0
3295,50.0,0,120,12.0,0.0
3296,62.0,0,120,10.0,0.0
3297,54.0,0,120,10.0,0.0
3298,50.0,0,120,11.0,0.0
3299,62.0,0,120,6.0,0.0
3300,62.0,0,120,7.0,0.0
3301,38.0,90,540,4.0,0.0
3302,74.0,0,120,5.0,0.0
3303,50.0,0,180,3.0,0.0
3304,62.0,0,180,2.0,0.0
3305,61.0,0,15,2.0,0.0
3306,49.0,15,15,3.0,0.0
3307,61.0,0,15,1.0,0.0
3308,62.0,0,15,2.0,0.0
3309,62.0,0,15,1.0,0.0
3310,50.0,60,15,3.0,0.0
3311,61.0,15,60,1.0,0.0
3312,49.0,0,60,3.0,0.0
3313,61.0,0,60,2.0,0.0
3314,59.0,0,15,2.0,0.0
3315,59.0,45,15,1.0,0.0
3316,47.0,0,15,3.0,0.0
3317,57.0,120,30,1.0,0.0
3318,45.0,0,30,3.0,0.0
3319,57.0,0,30,2.0,0.0
3320,50.0,0,90,3.0,0.0
3321,62.0,0,90,1.0,0.0
3322,62.0,15,90,2.0,0.0
3323,66.0,45,15,1.0,0.0
3324,54.0,0,15,3.0,0.0
3325,66.0,0,15,2.0,0.0
3326,57.0,0,30,3.0,0.0
3327,69.0,0,30,1.0,0.0
3328,69.0,30,30,2.0,0.0
3329,79.0,0,90,6.0,0.0
3330,69.0,0,90,0.0,0.0
3331,81.0,0,90,0.0,0.0
3332,81.0,0,90,5.0,0.0
3333,45.0,15,90,3.0,0.0
3334,76.0,0,90,6.0,0.0
3335,57.0,0,90,10.0,0.0
3336,76.0,0,90,7.0,0.0
3337,73.0,0,90,7.0,0.0
3338,64.0,0,90,10.0,0.0
3339,33.0,0,90,4.0,0.0
3340,83.0,15,15,5.0,0.0
3341,57.0,0,30,10.0,0.0
3342,57.0,0,15,11.0,0.0
3343,45.0,0,15,11.0,0.0
3344,64.0,0,30,10.0,0.0
3345,55.0,0,15,8.0,0.0
3346,52.0,0,15,8.0,0.0
3347,76.0,0,30,7.0,0.0
3348,76.0,0,30,6.0,0.0
3349,45.0,0,15,12.0,0.0
3350,83.0,0,15,0.0,0.0
3351,69.0,0,15,0.0,0.0
3352,79.0,0,30,6.0,0.0
3353,55.0,0,15,8.0,0.0
3354,52.0,0,60,8.0,0.0
3355,73.0,0,15,7.0,0.0
3356,45.0,0,15,3.0,0.0
3357,45.0,120,60,12.0,0.0
3358,64.0,0,60,10.0,0.0
3359,45.0,0,15,11.0,0.0
3360,57.0,0,15,11.0,0.0
3361,79.0,0,60,6.0,0.0
3362,76.0,0,60,7.0,0.0
3363,57.0,0,60,10.0,0.0
3364,76.0,0,60,6.0,0.0
3365,33.0,30,15,4.0,0.0
3366,69.0,0,30,0.0,0.0
3367,85.0,30,30,0.0,0.0
3368,85.0,0,30,5.0,0.0
3369,50.0,0,180,3.0,0.0
3370,86.0,0,180,5.0,0.0
3371,74.0,0,180,6.0,0.0
3372,78.0,0,180,6.0,0.0
3373,50.0,0,180,8.0,0.0
3374,54.0,0,180,8.0,0.0
3375,78.0,0,180,7.0,0.0
3376,74.0,0,180,7.0,0.0
3377,50.0,0,180,10.0,0.0
3378,38.0,90,540,4.0,0.0
3379,50.0,60,120,12.0,0.0
3380,62.0,0,180,0.0,0.0
3381,69.0,0,180,0.0,0.0
3382,86.0,0,180,0.0,0.0
3383,62.0,0,180,10.0,0.0
3384,62.0,15,180,1.0,0.0
3385,50.0,0,180,11.0,0.0
3386,62.0,0,180,11.0,0.0
3387,62.0,0,180,2.0,0.0
3388,49.0,0,15,3.0,0.0
3389,61.0,0,15,2.0,0.0
3390,61.0,15,15,1.0,0.0
3391,62.0,60,15,2.0,0.0
3392,50.0,0,15,3.0,0.0
3393,62.0,0,15,1.0,0.0
3394,61.0,15,60,1.0,0.0
3395,61.0,0,60,2.0,0.0
3396,49.0,0,60,3.0,0.0
3397,59.0,45,15,2.0,0.0
3398,59.0,0,15,1.0,0.0
3399,47.0,0,15,3.0,0.0
3400,57.0,0,30,1.0,0.0
3401,57.0,120,30,2.0,0.0
3402,45.0,0,30,3.0,0.0
3403,50.0,0,90,3.0,0.0
3404,62.0,0,90,2.0,0.0
3405,62.0,15,90,1.0,0.0
3406,66.0,0,15,2.0,0.0
3407,54.0,45,15,3.0,0.0
3408,66.0,0,15,1.0,0.0
3409,69.0,0,30,2.0,0.0
3410,57.0,30,30,3.0,0.0
3411,69.0,0,30,1.0,0.0
3412,64.0,0,90,10.0,0.0
3413,69.0,0,90,0.0,0.0
3414,81.0,15,90,0.0,0.0
3415,57.0,0,90,2.0,0.0
3416,76.0,0,90,7.0,0.0
3417,45.0,0,90,12.0,0.0
3418,81.0,0,90,5.0,0.0
3419,73.0,0,90,7.0,0.0
3420,79.0,0,90,6.0,0.0
3421,79.0,0,90,1.0,0.0
3422,57.0,0,15,10.0,0.0
3423,45.0,0,15,3.0,0.0
3424,33.0,0,15,4.0,0.0
3425,76.0,0,15,6.0,0.0
3426,57.0,0,30,2.0,0.0
3427,55.0,0,15,8.0,0.0
3428,52.0,0,15,8.0,0.0
3429,45.0,0,15,11.0,0.0
3430,83.0,0,15,5.0,0.0
3431,79.0,0,30,1.0,0.0
3432,69.0,0,15,1.0,0.0
3433,57.0,0,15,11.0,0.0
3434,69.0,0,15,0.0,0.0
3435,83.0,15,15,0.0,0.0
3436,79.0,0,15,6.0,0.0
3437,76.0,0,60,6.0,0.0
3438,69.0,0,60,1.0,0.0
3439,79.0,0,60,1.0,0.0
3440,57.0,0,60,2.0,0.0
3441,57.0,30,15,11.0,0.0
3442,45.0,0,60,11.0,0.0
3443,57.0,0,15,10.0,0.0
3444,64.0,0,15,10.0,0.0
3445,73.0,0,15,7.0,0.0
3446,76.0,0,15,7.0,0.0
3447,45.0,0,15,12.0,0.0
3448,33.0,0,15,4.0,0.0
3449,52.0,0,60,8.0,0.0
3450,55.0,0,15,8.0,0.0
3451,85.0,0,30,5.0,0.0
3452,45.0,0,60,3.0,0.0
3453,69.0,0,30,0.0,0.0
3454,85.0,30,30,0.0,0.0
3455,62.0,0,60,2.0,0.0
3456,62.0,0,120,0.0,0.0
3457,86.0,0,120,0.0,0.0
3458,78.0,0,120,0.0,0.0
3459,78.0,0,120,7.0,0.0
3460,86.0,30,120,5.0,0.0
3461,54.0,0,120,8.0,0.0
3462,50.0,0,120,8.0,0.0
3463,50.0,60,60,3.0,0.0
3464,74.0,0,120,6.0,0.0
3465,78.0,0,120,6.0,0.0
3466,69.0,0,60,1.0,0.0
3467,78.0,0,60,1.0,0.0
3468,50.0,0,120,12.0,0.0
3469,74.0,0,120,7.0,0.0
3470,62.0,0,120,11.0,0.0
3471,50.0,0,120,11.0,0.0
3472,54.0,0,120,10.0,0.0
3473,62.0,0,120,10.0,0.0
3474,38.0,0,60,4.0,0.0
3475,69.0,90,30,2.0,0.0
3476,45.0,0,30,4.0,0.0
3477,57.0,0,30,3.0,0.0
3478,74.0,0,120,7.0,0.0
3479,62.0,0,120,0.0,0.0
3480,54.0,0,120,8.0,0.0
3481,50.0,0,120,8.0,0.0
3482,78.0,0,120,7.0,0.0
3483,78.0,0,120,1.0,0.0
3484,78.0,0,120,0.0,0.0
3485,86.0,0,120,0.0,0.0
3486,69.0,0,120,1.0,0.0
3487,62.0,30,120,10.0,0.0
3488,78.0,0,120,6.0,0.0
3489,74.0,0,120,6.0,0.0
3490,54.0,0,120,10.0,0.0
3491,38.0,60,60,4.0,0.0
3492,86.0,0,120,5.0,0.0
3493,62.0,0,60,2.0,0.0
3494,50.0,0,60,3.0,0.0
3495,69.0,90,30,2.0,0.0
3496,57.0,0,30,3.0,0.0
3497,45.0,0,30,4.0,0.0
3498,50.0,60,60,3.0,0.0
3499,62.0,0,60,2.0,0.0
3500,62.0,30,120,0.0,0.0
3501,50.0,0,120,8.0,0.0
3502,54.0,0,120,8.0,0.0
3503,62.0,0,120,10.0,0.0
3504,54.0,0,120,10.0,0.0
3505,69.0,0,120,1.0,0.0
3506,78.0,0,120,1.0,0.0
3507,38.0,0,60,4.0,0.0
3508,86.0,0,120,0.0,0.0
3509,78.0,0,120,0.0,0.0
3510,78.0,0,120,6.0,0.0
3511,74.0,0,120,6.0,0.0
3512,78.0,0,120,7.0,0.0
3513,74.0,0,120,7.0,0.0
3514,86.0,0,120,5.0,0.0
3515,45.0,0,30,4.0,0.0
3516,57.0,90,30,3.0,0.0
3517,69.0,0,30,2.0,0.0
3518,78.0,0,120,7.0,0.0
3519,50.0,0,120,8.0,0.0
3520,50.0,60,60,3.0,0.0
3521,74.0,0,120,7.0,0.0
3522,86.0,0,120,5.0,0.0
3523,78.0,0,120,1.0,0.0
3524,62.0,0,120,10.0,0.0
3525,69.0,0,120,1.0,0.0
3526,74.0,0,120,6.0,0.0
3527,38.0,0,60,4.0,0.0
3528,62.0,0,120,0.0,0.0
3529,78.0,0,120,0.0,0.0
3530,78.0,30,120,6.0,0.0
3531,86.0,0,120,0.0,0.0
3532,62.0,0,60,2.0,0.0
3533,54.0,0,120,10.0,0.0
3534,54.0,0,120,8.0,0.0
3535,45.0,0,30,4.0,0.0
3536,57.0,0,30,3.0,0.0
3537,69.0,150,30,2.0,0.0
3538,38.0,0,120,4.0,0.0
3539,62.0,0,120,2.0,0.0
3540,54.0,30,120,8.0,0.0
3541,50.0,0,120,3.0,0.0
3542,86.0,0,120,0.0,0.0
3543,86.0,0,120,5.0,0.0
3544,50.0,0,120,8.0,0.0
3545,62.0,0,120,0.0,0.0
3546,62.0,0,120,10.0,0.0
3547,54.0,0,120,10.0,0.0
3548,74.0,0,120,7.0,0.0
3549,74.0,0,120,6.0,0.0
3550,78.0,0,120,6.0,0.0
3551,78.0,0,120,0.0,0.0
3552,78.0,0,120,1.0,0.0
3553,69.0,0,120,1.0,0.0
3554,78.0,0,120,7.0,0.0
3555,69.0,90,30,0.0,0.0
3556,69.0,0,30,1.0,0.0
3557,57.0,0,30,2.0,0.0
3558,50.0,90,60,2.0,0.0
3559,62.0,0,60,1.0,0.0
3560,62.0,0,60,0.0,0.0
3561,69.0,0,30,1.0,0.0
3562,57.0,0,30,2.0,0.0
3563,69.0,90,30,0.0,0.0
3564,62.0,0,60,0.0,0.0
3565,62.0,90,60,1.0,0.0
3566,50.0,0,60,2.0,0.0
3567,69.0,90,30,0.0,0.0
3568,57.0,0,30,2.0,0.0
3569,69.0,0,30,1.0,0.0
3570,62.0,90,60,0.0,0.0
3571,62.0,0,60,1.0,0.0
3572,50.0,0,60,2.0,0.0
3573,69.0,0,30,0.0,0.0
3574,69.0,0,30,1.0,0.0
3575,57.0,150,30,2.0,0.0
3576,62.0,30,120,1.0,0.0
3577,50.0,0,120,2.0,0.0
3578,62.0,0,120,0.0,0.0
3579,81.0,90,30,13.0,0.0
3580,74.0,90,60,13.0,0.0
3581,81.0,45,30,13.0,0.0
3582,81.0,15,15,13.0,0.0
3583,62.0,60,30,10.0,0.0
3584,66.0,0,30,10.0,0.0
3585,93.0,30,540,13.0,0.0
3586,64.0,60,30,10.0,0.0
3587,67.0,0,30,10.0,0.0
3588,66.0,60,30,10.0,0.0
3589,69.0,0,30,10.0,0.0
3590,64.0,60,30,10.0,0.0
3591,67.0,0,30,10.0,0.0
3592,62.0,0,30,10.0,0.0
3593,66.0,60,30,10.0,0.0
3594,57.0,0,30,10.0,0.0
3595,64.0,60,30,10.0,0.0
3596,62.0,0,30,10.0,0.0
3597,54.0,60,30,10.0,0.0
3598,57.0,60,30,10.0,0.0
3599,64.0,0,30,10.0,0.0
3600,62.0,30,30,10.0,0.0
3601,66.0,0,30,10.0,0.0
3602,91.0,30,60,13.0,0.0
3603,64.0,0,30,10.0,0.0
3604,57.0,30,30,10.0,0.0
3605,90.0,30,60,13.0,0.0
3606,62.0,30,30,10.0,0.0
3607,66.0,0,30,10.0,0.0
3608,64.0,0,30,10.0,0.0
3609,67.0,30,30,10.0,0.0
3610,88.0,30,60,13.0,0.0
3611,86.0,30,60,13.0,0.0
3612,62.0,0,30,10.0,0.0
3613,54.0,30,30,10.0,0.0
3614,88.0,30,60,13.0,0.0
3615,57.0,30,30,10.0,0.0
3616,64.0,0,30,10.0,0.0
3617,66.0,30,30,10.0,0.0
3618,90.0,30,60,13.0,0.0
3619,62.0,0,30,10.0,0.0
3620,91.0,30,60,13.0,0.0
3621,64.0,30,30,10.0,0.0
3622,67.0,0,30,10.0,0.0
3623,64.0,0,30,10.0,0.0
3624,57.0,30,30,10.0,0.0
3625,88.0,30,60,13.0,0.0
3626,66.0,0,30,10.0,0.0
3627,62.0,0,30,10.0,0.0
3628,90.0,60,30,13.0,0.0
3629,88.0,30,30,13.0,0.0
3630,57.0,30,120,10.0,0.0
3631,64.0,0,120,10.0,0.0
3632,69.0,30,30,13.0,0.0
3633,71.0,30,30,13.0,0.0
3634,73.0,0,30,13.0,0.0
3635,74.0,30,30,13.0,0.0
3636,76.0,30,30,13.0,0.0
3637,78.0,30,30,13.0,0.0
3638,80.0,30,30,13.0,0.0
3639,81.0,30,30,13.0,0.0
3640,83.0,30,30,13.0,0.0
3641,85.0,30,30,13.0,0.0
3642,86.0,30,30,13.0,0.0
3643,73.0,0,30,6.0,0.0
3644,88.0,30,540,13.0,0.0
3645,69.0,60,30,7.0,0.0
3646,71.0,0,30,7.0,0.0
3647,74.0,60,30,6.0,0.0
3648,76.0,0,30,6.0,0.0
3649,73.0,60,30,7.0,0.0
3650,71.0,0,30,7.0,0.0
3651,74.0,60,30,6.0,0.0
3652,69.0,0,30,7.0,0.0
3653,73.0,60,30,6.0,0.0
3654,64.0,0,30,7.0,0.0
3655,71.0,60,30,6.0,0.0
3656,69.0,60,30,6.0,0.0
3657,61.0,0,30,7.0,0.0
3658,64.0,0,30,7.0,0.0
3659,71.0,60,30,6.0,0.0
3660,69.0,0,30,7.0,0.0
3661,73.0,30,30,6.0,0.0
3662,71.0,0,30,7.0,0.0
3663,71.0,0,30,6.0,0.0
3664,86.0,30,30,13.0,0.0
3665,76.0,30,30,13.0,0.0
3666,64.0,30,30,7.0,0.0
3667,73.0,0,30,6.0,0.0
3668,85.0,0,30,13.0,0.0
3669,76.0,30,30,13.0,0.0
3670,83.0,0,30,13.0,0.0
3671,69.0,30,30,7.0,0.0
3672,74.0,0,30,6.0,0.0
3673,76.0,30,30,13.0,0.0
3674,69.0,0,30,6.0,0.0
3675,81.0,30,30,13.0,0.0
3676,61.0,0,30,7.0,0.0
3677,76.0,30,30,13.0,0.0
3678,83.0,0,30,13.0,0.0
3679,64.0,30,30,7.0,0.0
3680,71.0,0,30,6.0,0.0
3681,76.0,30,30,13.0,0.0
3682,73.0,0,30,6.0,0.0
3683,69.0,30,30,7.0,0.0
3684,85.0,0,30,13.0,0.0
3685,76.0,30,30,13.0,0.0
3686,71.0,0,30,7.0,0.0
3687,86.0,0,30,13.0,0.0
3688,74.0,30,30,6.0,0.0
3689,76.0,30,30,13.0,0.0
3690,64.0,0,30,7.0,0.0
3691,71.0,0,30,6.0,0.0
3692,83.0,30,30,13.0,0.0
3693,76.0,30,30,13.0,0.0
3694,73.0,0,30,6.0,0.0
3695,69.0,0,60,0.0,0.0
3696,69.0,30,60,1.0,0.0
3697,57.0,0,60,8.0,0.0
3698,69.0,30,30,7.0,0.0
3699,85.0,0,30,13.0,0.0
3700,45.0,0,60,4.0,0.0
3701,57.0,0,60,3.0,0.0
3702,76.0,0,30,13.0,0.0
3703,64.0,0,120,7.0,0.0
3704,71.0,0,120,6.0,0.0
3705,71.0,60,30,0.0,0.0
3706,52.0,0,120,3.0,0.0
3707,83.0,30,120,13.0,0.0
3708,56.0,0,30,8.0,0.0
3709,68.0,0,30,1.0,0.0
3710,40.0,0,120,4.0,0.0
3711,59.0,0,30,8.0,0.0
3712,73.0,0,30,0.0,0.0
3713,61.0,0,30,8.0,0.0
3714,57.0,0,30,8.0,0.0
3715,69.0,30,30,1.0,0.0
3716,59.0,60,30,8.0,0.0
3717,62.0,0,30,8.0,0.0
3718,71.0,0,30,1.0,0.0
3719,74.0,0,30,0.0,0.0
3720,64.0,0,30,8.0,0.0
3721,61.0,0,30,8.0,0.0
3722,73.0,0,30,1.0,0.0
3723,76.0,60,30,0.0,0.0
3724,57.0,0,30,8.0,0.0
3725,61.0,0,30,8.0,0.0
3726,73.0,60,30,0.0,0.0
3727,69.0,0,30,1.0,0.0
3728,71.0,0,30,1.0,0.0
3729,52.0,0,60,3.0,0.0
3730,40.0,0,60,4.0,0.0
3731,80.0,0,30,13.0,0.0
3732,64.0,0,60,6.0,0.0
3733,74.0,0,30,0.0,0.0
3734,59.0,30,30,8.0,0.0
3735,64.0,0,60,7.0,0.0
3736,62.0,0,30,8.0,0.0
3737,76.0,30,30,13.0,0.0
3738,61.0,0,120,8.0,0.0
3739,69.0,0,120,1.0,0.0
3740,61.0,30,30,7.0,0.0
3741,33.0,0,120,4.0,0.0
3742,57.0,0,120,8.0,0.0
3743,69.0,0,30,6.0,0.0
3744,45.0,30,120,3.0,0.0
3745,73.0,0,120,0.0,0.0
3746,81.0,0,30,13.0,0.0
3747,76.0,30,30,13.0,0.0
3748,71.0,0,30,6.0,0.0
3749,83.0,0,30,13.0,0.0
3750,64.0,30,30,7.0,0.0
3751,76.0,0,30,13.0,0.0
3752,73.0,0,30,6.0,0.0
3753,69.0,30,30,7.0,0.0
3754,85.0,0,30,13.0,0.0
3755,76.0,30,30,13.0,0.0
3756,86.0,0,30,13.0,0.0
3757,74.0,30,30,6.0,0.0
3758,71.0,0,30,7.0,0.0
3759,76.0,30,30,13.0,0.0
3760,71.0,0,30,6.0,0.0
3761,64.0,30,30,7.0,0.0
3762,83.0,0,30,13.0,0.0
3763,76.0,30,30,13.0,0.0
3764,69.0,0,30,7.0,0.0
3765,69.0,0,60,0.0,0.0
3766,73.0,30,30,6.0,0.0
3767,57.0,30,60,3.0,0.0
3768,45.0,0,60,4.0,0.0
3769,69.0,0,60,1.0,0.0
3770,85.0,0,30,13.0,0.0
3771,76.0,0,30,13.0,0.0
3772,59.0,0,30,8.0,0.0
3773,56.0,60,30,8.0,0.0
3774,40.0,0,120,4.0,0.0
3775,83.0,30,120,13.0,0.0
3776,68.0,0,30,1.0,0.0
3777,52.0,0,120,3.0,0.0
3778,71.0,0,120,6.0,0.0
3779,71.0,0,30,0.0,0.0
3780,64.0,0,120,7.0,0.0
3781,61.0,30,30,8.0,0.0
3782,69.0,0,30,1.0,0.0
3783,57.0,0,30,8.0,0.0
3784,73.0,0,30,0.0,0.0
3785,59.0,0,30,8.0,0.0
3786,74.0,0,30,0.0,0.0
3787,62.0,60,30,8.0,0.0
3788,71.0,0,30,1.0,0.0
3789,73.0,0,30,1.0,0.0
3790,61.0,0,30,8.0,0.0
3791,64.0,60,30,8.0,0.0
3792,76.0,0,30,0.0,0.0
3793,73.0,60,30,0.0,0.0
3794,61.0,0,30,8.0,0.0
3795,69.0,0,30,1.0,0.0
3796,57.0,0,30,8.0,0.0
3797,52.0,0,60,3.0,0.0
3798,40.0,0,60,4.0,0.0
3799,64.0,0,60,7.0,0.0
3800,62.0,0,30,8.0,0.0
3801,80.0,0,30,13.0,0.0
3802,71.0,0,30,1.0,0.0
3803,64.0,0,60,6.0,0.0
3804,74.0,0,30,0.0,0.0
3805,59.0,30,30,8.0,0.0
3806,76.0,30,30,13.0,0.0
3807,61.0,0,30,7.0,0.0
3808,73.0,0,120,0.0,0.0
3809,81.0,0,30,13.0,0.0
3810,61.0,0,120,8.0,0.0
3811,57.0,0,120,8.0,0.0
3812,69.0,0,120,1.0,0.0
3813,45.0,0,120,3.0,0.0
3814,33.0,30,120,4.0,0.0
3815,69.0,30,30,6.0,0.0
3816,76.0,30,30,13.0,0.0
3817,83.0,30,30,13.0,0.0
3818,64.0,0,30,7.0,0.0
3819,71.0,0,30,6.0,0.0
3820,76.0,0,30,13.0,0.0
3821,73.0,30,30,6.0,0.0
3822,85.0,0,30,13.0,0.0
3823,69.0,0,30,7.0,0.0
3824,76.0,30,30,13.0,0.0
3825,71.0,30,30,7.0,0.0
3826,86.0,0,30,13.0,0.0
3827,74.0,0,30,6.0,0.0
3828,76.0,30,30,13.0,0.0
3829,64.0,30,30,7.0,0.0
3830,83.0,0,30,13.0,0.0
3831,71.0,0,30,6.0,0.0
3832,76.0,30,30,13.0,0.0
3833,57.0,0,60,3.0,0.0
3834,64.0,0,60,0.0,0.0
3835,45.0,0,60,4.0,0.0
3836,73.0,0,30,6.0,0.0
3837,61.0,0,60,1.0,0.0
3838,69.0,0,30,7.0,0.0
3839,57.0,0,60,2.0,0.0
3840,85.0,30,30,13.0,0.0
3841,76.0,30,30,13.0,0.0
3842,59.0,0,120,1.0,0.0
3843,68.0,0,120,7.0,0.0
3844,40.0,0,120,4.0,0.0
3845,56.0,0,120,2.0,0.0
3846,52.0,0,120,3.0,0.0
3847,64.0,0,120,0.0,0.0
3848,71.0,30,120,6.0,0.0
3849,83.0,30,30,13.0,0.0
3850,76.0,30,30,13.0,0.0
3851,75.0,30,30,13.0,0.0
3852,76.0,0,30,13.0,0.0
3853,80.0,30,30,13.0,0.0
3854,83.0,30,30,13.0,0.0
3855,68.0,30,120,7.0,0.0
3856,52.0,0,120,3.0,0.0
3857,88.0,30,30,13.0,0.0
3858,56.0,0,120,2.0,0.0
3859,40.0,0,120,4.0,0.0
3860,71.0,0,120,6.0,0.0
3861,59.0,0,120,1.0,0.0
3862,64.0,0,120,0.0,0.0
3863,76.0,30,30,13.0,0.0
3864,75.0,30,30,13.0,0.0
3865,76.0,0,30,13.0,0.0
3866,80.0,30,30,13.0,0.0
3867,83.0,30,30,13.0,0.0
3868,88.0,30,30,13.0,0.0
3869,52.0,0,120,3.0,0.0
3870,56.0,0,120,2.0,0.0
3871,59.0,0,120,1.0,0.0
3872,68.0,0,120,7.0,0.0
3873,71.0,0,120,6.0,0.0
3874,64.0,0,120,0.0,0.0
3875,40.0,0,120,4.0,0.0
3876,83.0,30,30,13.0,0.0
3877,80.0,30,30,13.0,0.0
3878,76.0,30,30,13.0,0.0
3879,71.0,30,30,13.0,0.0
3880,68.0,30,30,13.0,0.0
3881,64.0,30,30,13.0,0.0
3882,66.0,30,30,13.0,0.0
3883,76.0,0,30,0.0,0.0
3884,64.0,0,30,2.0,0.0
3885,64.0,30,30,1.0,0.0
3886,64.0,0,30,13.0,0.0
3887,62.0,30,30,13.0,0.0
3888,61.0,0,30,2.0,0.0
3889,73.0,30,30,0.0,0.0
3890,61.0,0,30,13.0,0.0
3891,61.0,0,30,1.0,0.0
3892,59.0,120,30,13.0,0.0
3893,73.0,0,180,6.0,0.0
3894,45.0,0,120,12.0,0.0
3895,81.0,0,180,5.0,0.0
3896,69.0,0,180,7.0,0.0
3897,69.0,0,120,0.0,0.0
3898,57.0,60,120,2.0,0.0
3899,61.0,0,120,1.0,0.0
3900,57.0,0,180,8.0,0.0
3901,64.0,120,180,11.0,0.0
3902,57.0,0,120,13.0,0.0
3903,57.0,0,180,3.0,0.0
3904,45.0,0,180,4.0,0.0
3905,64.0,0,60,1.0,0.0
3906,64.0,0,60,0.0,0.0
3907,61.0,0,60,2.0,0.0
3908,83.0,0,180,5.0,0.0
3909,56.0,0,120,2.0,0.0
3910,71.0,60,120,0.0,0.0
3911,40.0,0,180,4.0,0.0
3912,64.0,0,180,7.0,0.0
3913,52.0,0,180,3.0,0.0
3914,52.0,0,180,8.0,0.0
3915,59.0,0,120,1.0,0.0
3916,64.0,0,15,10.0,0.0
3917,74.0,120,180,6.0,0.0
3918,71.0,0,180,6.0,0.0
3919,71.0,0,180,7.0,0.0
3920,64.0,0,60,1.0,0.0
3921,64.0,0,60,0.0,0.0
3922,59.0,0,60,2.0,0.0
3923,64.0,0,15,11.0,0.0
3924,45.0,0,240,8.0,0.0
3925,61.0,0,240,1.0,0.0
3926,64.0,0,15,10.0,0.0
3927,57.0,0,240,2.0,0.0
3928,64.0,0,180,7.0,0.0
3929,45.0,60,120,12.0,0.0
3930,33.0,0,240,4.0,0.0
3931,73.0,60,180,0.0,0.0
3932,85.0,0,180,5.0,0.0
3933,45.0,0,240,3.0,0.0
3934,73.0,0,240,6.0,0.0
3935,69.0,45,240,6.0,0.0
3936,73.0,0,180,7.0,0.0
3937,69.0,0,60,7.0,0.0
3938,61.0,0,60,7.0,0.0
3939,69.0,0,60,0.0,0.0
3940,81.0,0,60,5.0,0.0
3941,85.0,60,40,13.0,0.0
3942,69.0,0,40,13.0,0.0
3943,81.0,135,40,13.0,0.0
3944,78.0,0,40,13.0,0.0
3945,78.0,60,120,13.0,0.0
3946,74.0,0,15,13.0,0.0
3947,71.0,90,15,13.0,0.0
3948,68.0,30,120,13.0,0.0
3949,52.0,30,30,3.0,0.0
3950,73.0,120,60,13.0,0.0
3951,45.0,30,30,3.0,0.0
3952,69.0,0,60,13.0,0.0
3953,52.0,60,120,3.0,0.0
3954,68.0,90,180,13.0,0.0
3955,71.0,0,180,13.0,0.0
3956,64.0,0,120,13.0,0.0
3957,76.0,30,120,13.0,0.0
3958,64.0,0,30,1.0,0.0
3959,88.0,0,30,5.0,0.0
3960,64.0,30,30,2.0,0.0
3961,76.0,0,30,0.0,0.0
3962,60.0,0,30,1.0,0.0
3963,72.0,0,30,0.0,0.0
3964,60.0,0,30,2.0,0.0
3965,84.0,150,30,5.0,0.0
3966,45.0,0,120,12.0,0.0
3967,69.0,0,180,6.0,0.0
3968,57.0,120,180,8.0,0.0
3969,60.0,60,120,1.0,0.0
3970,69.0,0,120,0.0,0.0
3971,81.0,0,180,5.0,0.0
3972,57.0,0,120,2.0,0.0
3973,57.0,0,180,3.0,0.0
3974,45.0,0,180,4.0,0.0
3975,69.0,0,180,7.0,0.0
3976,64.0,0,60,1.0,0.0
3977,60.0,0,60,2.0,0.0
3978,64.0,0,60,0.0,0.0
3979,59.0,0,120,1.0,0.0
3980,56.0,60,120,2.0,0.0
3981,83.0,0,180,5.0,0.0
3982,74.0,0,180,6.0,0.0
3983,71.0,0,180,7.0,0.0
3984,71.0,0,180,6.0,0.0
3985,40.0,0,180,4.0,0.0
3986,64.0,0,15,10.0,0.0
3987,45.0,0,120,12.0,0.0
3988,64.0,0,180,7.0,0.0
3989,64.0,0,15,11.0,0.0
3990,71.0,0,120,0.0,0.0
3991,52.0,0,180,3.0,0.0
3992,59.0,180,180,8.0,0.0
3993,56.0,0,180,8.0,0.0
3994,64.0,0,60,1.0,0.0
3995,64.0,0,60,0.0,0.0
3996,60.0,0,60,2.0,0.0
3997,84.0,60,180,5.0,0.0
3998,45.0,0,240,3.0,0.0
3999,72.0,0,240,6.0,0.0
4000,69.0,0,240,6.0,0.0
4001,64.0,0,240,10.0,0.0
4002,33.0,0,240,4.0,0.0
4003,64.0,0,240,11.0,0.0
4004,60.0,0,240,8.0,0.0
4005,57.0,45,240,8.0,0.0
4006,72.0,0,180,7.0,0.0
4007,57.0,0,240,2.0,0.0
4008,57.0,0,240,1.0,0.0
4009,72.0,0,180,0.0,0.0
4010,64.0,0,240,7.0,0.0
4011,69.0,0,60,0.0,0.0
4012,69.0,0,60,7.0,0.0
4013,81.0,0,60,5.0,0.0
4014,84.0,60,40,13.0,0.0
4015,69.0,0,40,13.0,0.0
4016,78.0,135,40,13.0,0.0
4017,81.0,0,40,13.0,0.0
4018,78.0,0,180,13.0,0.0
4019,75.0,60,120,13.0,0.0
4020,71.0,105,60,13.0,0.0
4021,62.0,0,120,1.0,0.0
4022,40.0,0,120,4.0,0.0
4023,74.0,45,120,13.0,0.0
4024,68.0,0,120,0.0,0.0
4025,59.0,0,120,2.0,0.0
4026,80.0,120,180,13.0,0.0
4027,52.0,15,40,3.0,0.0
4028,40.0,15,40,3.0,0.0
4029,76.0,0,60,13.0,0.0
4030,57.0,0,120,2.0,0.0
4031,72.0,60,180,13.0,0.0
4032,33.0,60,120,4.0,0.0
4033,81.0,0,240,13.0,0.0
4034,69.0,0,120,0.0,0.0
4035,45.0,0,120,3.0,0.0
4036,60.0,0,120,1.0,0.0
4037,69.0,45,15,13.0,0.0
4038,84.0,0,40,13.0,0.0
4039,78.0,0,40,13.0,0.0
4040,81.0,135,40,13.0,0.0
4041,78.0,105,180,13.0,0.0
4042,75.0,60,120,13.0,0.0
4043,71.0,0,60,13.0,0.0
4044,80.0,30,180,13.0,0.0
4045,40.0,0,120,4.0,0.0
4046,62.0,0,120,1.0,0.0
4047,74.0,45,120,13.0,0.0
4048,68.0,0,120,0.0,0.0
4049,59.0,0,120,2.0,0.0
4050,52.0,15,40,3.0,0.0
4051,76.0,0,60,13.0,0.0
4052,40.0,15,40,3.0,0.0
4053,45.0,0,120,3.0,0.0
4054,57.0,0,120,2.0,0.0
4055,69.0,0,120,0.0,0.0
4056,57.0,0,120,0.0,0.0
4057,73.0,0,30,13.0,0.0
4058,61.0,30,120,1.0,0.0
4059,33.0,0,120,4.0,0.0
4060,81.0,30,30,13.0,0.0
4061,69.0,30,30,13.0,0.0
4062,71.0,30,30,13.0,0.0
4063,69.0,0,30,13.0,0.0
4064,81.0,30,30,13.0,0.0
4065,73.0,0,30,13.0,0.0
4066,69.0,30,30,13.0,0.0
4067,74.0,30,30,13.0,0.0
4068,83.0,0,30,13.0,0.0
4069,69.0,30,30,13.0,0.0
4070,85.0,0,30,13.0,0.0
4071,76.0,30,30,13.0,0.0
4072,69.0,30,30,13.0,0.0
4073,86.0,30,30,13.0,0.0
4074,78.0,0,30,13.0,0.0
4075,69.0,30,30,13.0,0.0
4076,88.0,30,30,13.0,0.0
4077,79.0,0,30,13.0,0.0
4078,69.0,30,30,13.0,0.0
4079,78.0,0,30,13.0,0.0
4080,86.0,30,30,13.0,0.0
4081,69.0,30,30,13.0,0.0
4082,76.0,0,30,13.0,0.0
4083,85.0,30,30,13.0,0.0
4084,69.0,30,30,13.0,0.0
4085,62.0,0,60,8.0,0.0
4086,83.0,30,30,13.0,0.0
4087,74.0,0,30,13.0,0.0
4088,69.0,30,30,13.0,0.0
4089,73.0,0,30,13.0,0.0
4090,64.0,0,60,8.0,0.0
4091,81.0,30,30,13.0,0.0
4092,69.0,30,30,13.0,0.0
4093,80.0,30,30,13.0,0.0
4094,71.0,0,30,13.0,0.0
4095,65.0,0,60,8.0,0.0
4096,69.0,30,30,13.0,0.0
4097,57.0,0,15,10.0,0.0
4098,57.0,0,120,2.0,0.0
4099,64.0,0,120,8.0,0.0
4100,45.0,0,15,10.0,0.0
4101,33.0,30,120,4.0,0.0
4102,69.0,0,120,0.0,0.0
4103,45.0,0,120,3.0,0.0
4104,73.0,30,30,13.0,0.0
4105,81.0,0,30,13.0,0.0
4106,57.0,0,120,1.0,0.0
4107,69.0,30,30,13.0,0.0
4108,71.0,30,30,13.0,0.0
4109,69.0,0,30,13.0,0.0
4110,81.0,0,30,13.0,0.0
4111,73.0,30,30,13.0,0.0
4112,69.0,30,30,13.0,0.0
4113,83.0,0,30,13.0,0.0
4114,74.0,30,30,13.0,0.0
4115,69.0,30,30,13.0,0.0
4116,76.0,0,30,13.0,0.0
4117,85.0,30,30,13.0,0.0
4118,69.0,30,30,13.0,0.0
4119,86.0,0,30,13.0,0.0
4120,78.0,30,30,13.0,0.0
4121,69.0,30,30,13.0,0.0
4122,79.0,0,30,13.0,0.0
4123,88.0,30,30,13.0,0.0
4124,69.0,30,30,13.0,0.0
4125,78.0,30,30,13.0,0.0
4126,86.0,0,30,13.0,0.0
4127,69.0,30,30,13.0,0.0
4128,85.0,30,30,13.0,0.0
4129,76.0,0,30,13.0,0.0
4130,69.0,30,30,13.0,0.0
4131,62.0,30,60,8.0,0.0
4132,83.0,30,30,13.0,0.0
4133,74.0,0,30,13.0,0.0
4134,69.0,0,30,13.0,0.0
4135,73.0,30,30,13.0,0.0
4136,81.0,0,30,13.0,0.0
4137,64.0,0,60,8.0,0.0
4138,69.0,30,30,13.0,0.0
4139,65.0,30,60,8.0,0.0
4140,71.0,0,30,13.0,0.0
4141,80.0,30,30,13.0,0.0
4142,69.0,0,30,13.0,0.0
4143,45.0,30,120,3.0,0.0
4144,57.0,0,480,10.0,0.0
4145,33.0,0,120,4.0,0.0
4146,45.0,30,480,10.0,0.0
4147,73.0,0,30,13.0,0.0
4148,81.0,30,30,13.0,0.0
4149,69.0,0,120,0.0,0.0
4150,57.0,0,120,1.0,0.0
4151,64.0,30,180,8.0,0.0
4152,69.0,30,30,13.0,0.0
4153,71.0,30,30,13.0,0.0
4154,69.0,0,30,13.0,0.0
4155,81.0,30,30,13.0,0.0
4156,73.0,0,30,13.0,0.0
4157,69.0,0,30,13.0,0.0
4158,83.0,30,30,13.0,0.0
4159,74.0,0,30,13.0,0.0
4160,62.0,0,60,8.0,0.0
4161,69.0,30,30,13.0,0.0
4162,73.0,30,30,13.0,0.0
4163,81.0,0,30,13.0,0.0
4164,64.0,30,60,8.0,0.0
4165,69.0,0,30,13.0,0.0
4166,80.0,0,30,13.0,0.0
4167,71.0,30,30,13.0,0.0
4168,65.0,30,60,8.0,0.0
4169,69.0,0,30,13.0,0.0
4170,73.0,0,30,13.0,0.0
4171,61.0,0,180,1.0,0.0
4172,81.0,30,30,13.0,0.0
4173,57.0,0,180,3.0,0.0
4174,64.0,0,180,8.0,0.0
4175,45.0,0,180,4.0,0.0
4176,57.0,0,180,2.0,0.0
4177,69.0,30,180,0.0,0.0
4178,69.0,30,15,13.0,0.0
4179,69.0,30,15,13.0,0.0
4180,81.0,30,30,13.0,0.0
4181,73.0,0,30,13.0,0.0
4182,69.0,0,30,13.0,0.0
4183,82.0,30,30,13.0,0.0
4184,74.0,0,30,13.0,0.0
4185,62.0,0,540,1.0,0.0
4186,56.0,0,180,2.0,0.0
4187,44.0,0,180,4.0,0.0
4188,56.0,30,180,3.0,0.0
4189,65.0,0,540,8.0,0.0
4190,70.0,0,540,0.0,0.0
4191,70.0,30,30,13.0,0.0
4192,74.0,30,30,13.0,0.0
4193,82.0,0,30,13.0,0.0
4194,70.0,30,30,13.0,0.0
4195,74.0,0,30,13.0,0.0
4196,82.0,30,30,13.0,0.0
4197,70.0,0,30,13.0,0.0
4198,41.0,0,180,4.0,0.0
4199,53.0,0,180,2.0,0.0
4200,53.0,0,180,3.0,0.0
4201,82.0,30,30,13.0,0.0
4202,74.0,0,30,13.0,0.0
4203,70.0,30,30,13.0,0.0
4204,74.0,0,30,13.0,0.0
4205,82.0,30,30,13.0,0.0
4206,70.0,30,30,13.0,0.0
4207,74.0,0,30,13.0,0.0
4208,82.0,30,30,13.0,0.0
4209,70.0,30,30,13.0,0.0
4210,58.0,0,180,2.0,0.0
4211,46.0,30,300,8.0,0.0
4212,46.0,0,180,3.0,0.0
4213,82.0,0,30,13.0,0.0
4214,74.0,30,30,13.0,0.0
4215,34.0,0,180,4.0,0.0
4216,70.0,30,30,13.0,0.0
4217,74.0,0,30,13.0,0.0
4218,82.0,30,30,13.0,0.0
4219,70.0,30,30,13.0,0.0
4220,82.0,0,30,13.0,0.0
4221,74.0,30,30,13.0,0.0
4222,70.0,30,30,13.0,0.0
4223,51.0,30,60,3.0,0.0
4224,70.0,0,60,0.0,0.0
4225,39.0,0,60,4.0,0.0
4226,66.0,0,120,8.0,0.0
4227,54.0,0,60,2.0,0.0
4228,82.0,30,30,13.0,0.0
4229,63.0,0,60,1.0,0.0
4230,78.0,0,30,13.0,0.0
4231,75.0,30,30,13.0,0.0
4232,78.0,0,30,13.0,0.0
4233,82.0,30,30,13.0,0.0
4234,78.0,30,30,13.0,0.0
4235,54.0,0,120,8.0,0.0
4236,73.0,0,120,6.0,0.0
4237,76.0,30,120,6.0,0.0
4238,82.0,0,120,5.0,0.0
4239,82.0,30,30,13.0,0.0
4240,61.0,0,120,7.0,0.0
4241,66.0,0,120,8.0,0.0
4242,64.0,0,120,7.0,0.0
4243,76.0,30,30,13.0,0.0
4244,73.0,30,30,13.0,0.0
4245,76.0,0,30,13.0,0.0
4246,82.0,30,30,13.0,0.0
4247,76.0,30,30,13.0,0.0
4248,83.0,30,30,13.0,0.0
4249,62.0,0,120,7.0,0.0
4250,83.0,0,120,5.0,0.0
4251,59.0,0,120,8.0,0.0
4252,47.0,0,120,8.0,0.0
4253,59.0,0,120,7.0,0.0
4254,71.0,0,120,6.0,0.0
4255,74.0,0,120,6.0,0.0
4256,74.0,30,30,13.0,0.0
4257,73.0,30,30,13.0,0.0
4258,74.0,30,30,13.0,0.0
4259,83.0,30,30,13.0,0.0
4260,74.0,30,30,13.0,0.0
4261,80.0,30,30,13.0,0.0
4262,71.0,0,120,6.0,0.0
4263,52.0,0,120,8.0,0.0
4264,64.0,0,120,8.0,0.0
4265,80.0,0,120,5.0,0.0
4266,74.0,0,120,6.0,0.0
4267,59.0,0,120,7.0,0.0
4268,62.0,30,120,7.0,0.0
4269,74.0,30,30,13.0,0.0
4270,71.0,30,30,13.0,0.0
4271,74.0,0,30,13.0,0.0
4272,80.0,30,30,13.0,0.0
4273,74.0,30,30,13.0,0.0
4274,45.0,0,180,4.0,0.0
4275,64.0,0,120,7.0,0.0
4276,61.0,0,120,7.0,0.0
4277,73.0,30,120,6.0,0.0
4278,57.0,0,180,2.0,0.0
4279,69.0,0,180,0.0,0.0
4280,69.0,0,120,6.0,0.0
4281,45.0,0,120,8.0,0.0
4282,64.0,30,180,8.0,0.0
4283,81.0,0,120,5.0,0.0
4284,81.0,0,30,13.0,0.0
4285,73.0,30,30,13.0,0.0
4286,61.0,0,180,1.0,0.0
4287,57.0,0,180,3.0,0.0
4288,69.0,30,30,13.0,0.0
4289,69.0,30,15,13.0,0.0
4290,81.0,0,30,13.0,0.0
4291,73.0,30,30,13.0,0.0
4292,69.0,0,30,13.0,0.0
4293,65.0,0,540,8.0,0.0
4294,62.0,0,540,1.0,0.0
4295,56.0,30,180,3.0,0.0
4296,70.0,30,540,0.0,0.0
4297,56.0,0,180,2.0,0.0
4298,44.0,0,180,4.0,0.0
4299,70.0,30,30,13.0,0.0
4300,82.0,30,30,13.0,0.0
4301,74.0,30,30,13.0,0.0
4302,82.0,30,30,13.0,0.0
4303,70.0,30,30,13.0,0.0
4304,82.0,0,30,13.0,0.0
4305,53.0,30,180,2.0,0.0
4306,74.0,30,30,13.0,0.0
4307,41.0,0,180,4.0,0.0
4308,53.0,0,180,3.0,0.0
4309,82.0,30,30,13.0,0.0
4310,70.0,30,30,13.0,0.0
4311,82.0,30,30,13.0,0.0
4312,74.0,30,30,13.0,0.0
4313,82.0,0,30,13.0,0.0
4314,34.0,0,180,4.0,0.0
4315,70.0,30,30,13.0,0.0
4316,46.0,0,300,8.0,0.0
4317,46.0,0,180,3.0,0.0
4318,58.0,0,180,2.0,0.0
4319,82.0,30,30,13.0,0.0
4320,74.0,30,30,13.0,0.0
4321,82.0,30,30,13.0,0.0
4322,70.0,30,30,13.0,0.0
4323,66.0,0,120,8.0,0.0
4324,51.0,0,60,3.0,0.0
4325,63.0,30,60,1.0,0.0
4326,82.0,0,15,13.0,0.0
4327,54.0,0,60,2.0,0.0
4328,39.0,0,60,4.0,0.0
4329,70.0,0,60,0.0,0.0
4330,78.0,0,30,13.0,0.0
4331,75.0,30,30,13.0,0.0
4332,78.0,30,30,13.0,0.0
4333,82.0,30,30,13.0,0.0
4334,78.0,30,30,13.0,0.0
4335,66.0,0,120,8.0,0.0
4336,82.0,30,30,13.0,0.0
4337,73.0,0,120,6.0,0.0
4338,76.0,0,120,6.0,0.0
4339,82.0,0,120,5.0,0.0
4340,54.0,0,120,8.0,0.0
4341,61.0,0,120,7.0,0.0
4342,64.0,0,120,7.0,0.0
4343,78.0,30,30,13.0,0.0
4344,73.0,30,30,13.0,0.0
4345,78.0,30,30,13.0,0.0
4346,82.0,30,30,13.0,0.0
4347,78.0,30,30,13.0,0.0
4348,71.0,0,120,6.0,0.0
4349,83.0,30,30,13.0,0.0
4350,83.0,0,120,5.0,0.0
4351,62.0,0,120,7.0,0.0
4352,47.0,0,120,8.0,0.0
4353,59.0,30,120,8.0,0.0
4354,59.0,0,120,7.0,0.0
4355,74.0,0,120,6.0,0.0
4356,71.0,30,30,13.0,0.0
4357,74.0,30,30,13.0,0.0
4358,78.0,0,30,13.0,0.0
4359,83.0,30,30,13.0,0.0
4360,81.0,30,30,13.0,0.0
4361,80.0,30,30,13.0,0.0
4362,52.0,0,120,8.0,0.0
4363,74.0,0,120,6.0,0.0
4364,71.0,0,120,6.0,0.0
4365,80.0,0,120,5.0,0.0
4366,64.0,0,120,8.0,0.0
4367,59.0,0,120,7.0,0.0
4368,62.0,0,120,7.0,0.0
4369,71.0,30,30,13.0,0.0
4370,74.0,30,30,13.0,0.0
4371,76.0,30,30,13.0,0.0
4372,80.0,30,30,13.0,0.0
4373,76.0,0,30,13.0,0.0
4374,88.0,30,30,13.0,0.0
4375,81.0,30,720,5.0,0.0
4376,69.0,0,720,6.0,0.0
4377,73.0,0,720,6.0,0.0
4378,52.0,30,15,2.0,0.0
4379,57.0,0,720,8.0,0.0
4380,85.0,30,30,13.0,0.0
4381,81.0,30,30,13.0,0.0
4382,85.0,0,30,13.0,0.0
4383,57.0,0,30,2.0,0.0
4384,81.0,30,30,13.0,0.0
4385,76.0,30,30,13.0,0.0
4386,81.0,30,30,13.0,0.0
4387,61.0,30,60,2.0,0.0
4388,76.0,0,30,13.0,0.0
4389,73.0,30,30,13.0,0.0
4390,64.0,30,60,2.0,0.0
4391,76.0,0,30,13.0,0.0
4392,73.0,30,30,13.0,0.0
4393,69.0,30,30,13.0,0.0
4394,64.0,0,15,0.0,0.0
4395,76.0,30,30,13.0,0.0
4396,73.0,30,30,13.0,0.0
4397,69.0,30,30,13.0,0.0
4398,73.0,0,30,13.0,0.0
4399,69.0,0,30,0.0,0.0
4400,69.0,30,30,13.0,0.0
4401,64.0,30,30,13.0,0.0
4402,73.0,30,60,0.0,0.0
4403,69.0,30,30,13.0,0.0
4404,64.0,0,30,13.0,0.0
4405,61.0,30,30,13.0,0.0
4406,76.0,0,60,0.0,0.0
4407,64.0,30,30,13.0,0.0
4408,52.0,0,60,2.0,0.0
4409,61.0,30,30,13.0,0.0
4410,57.0,0,30,13.0,0.0
4411,52.0,0,720,8.0,0.0
4412,71.0,30,720,6.0,0.0
4413,74.0,0,720,6.0,0.0
4414,52.0,30,120,2.0,0.0
4415,80.0,0,720,5.0,0.0
4416,74.0,30,30,13.0,0.0
4417,71.0,30,30,13.0,0.0
4418,68.0,30,30,13.0,0.0
4419,71.0,0,30,13.0,0.0
4420,68.0,30,30,13.0,0.0
4421,56.0,0,30,2.0,0.0
4422,64.0,30,30,13.0,0.0
4423,68.0,30,30,13.0,0.0
4424,59.0,30,60,2.0,0.0
4425,64.0,0,30,13.0,0.0
4426,62.0,30,30,13.0,0.0
4427,62.0,30,60,2.0,0.0
4428,64.0,0,30,13.0,0.0
4429,62.0,30,30,13.0,0.0
4430,59.0,0,30,13.0,0.0
4431,74.0,30,30,13.0,0.0
4432,64.0,30,15,0.0,0.0
4433,71.0,30,30,13.0,0.0
4434,68.0,30,30,13.0,0.0
4435,71.0,0,30,13.0,0.0
4436,68.0,0,30,0.0,0.0
4437,68.0,30,30,13.0,0.0
4438,64.0,30,30,13.0,0.0
4439,68.0,30,30,13.0,0.0
4440,71.0,30,60,0.0,0.0
4441,64.0,0,30,13.0,0.0
4442,62.0,30,30,13.0,0.0
4443,74.0,30,60,0.0,0.0
4444,64.0,0,30,13.0,0.0
4445,52.0,0,60,3.0,0.0
4446,40.0,0,60,4.0,0.0
4447,62.0,30,30,13.0,0.0
4448,59.0,0,30,13.0,0.0
4449,64.0,0,15,8.0,0.0
4450,57.0,0,120,8.0,0.0
4451,64.0,0,180,0.0,0.0
4452,79.0,30,120,5.0,0.0
4453,69.0,0,120,6.0,0.0
4454,73.0,0,120,6.0,0.0
4455,88.0,30,30,13.0,0.0
4456,33.0,0,120,4.0,0.0
4457,45.0,0,120,3.0,0.0
4458,57.0,30,360,2.0,0.0
4459,85.0,30,30,13.0,0.0
4460,81.0,30,30,13.0,0.0
4461,85.0,0,30,13.0,0.0
4462,49.0,30,30,3.0,0.0
4463,81.0,0,30,13.0,0.0
4464,37.0,0,30,4.0,0.0
4465,76.0,30,30,13.0,0.0
4466,52.0,30,60,3.0,0.0
4467,81.0,30,30,13.0,0.0
4468,40.0,0,60,4.0,0.0
4469,67.0,0,1260,0.0,0.0
4470,76.0,0,30,13.0,0.0
4471,73.0,30,30,13.0,0.0
4472,45.0,0,60,4.0,0.0
4473,57.0,0,60,3.0,0.0
4474,76.0,30,30,13.0,0.0
4475,69.0,0,60,6.0,0.0
4476,57.0,0,60,8.0,0.0
4477,73.0,30,30,13.0,0.0
4478,69.0,0,30,13.0,0.0
4479,58.0,0,120,8.0,0.0
4480,70.0,30,120,6.0,0.0
4481,79.0,30,30,13.0,0.0
4482,58.0,0,360,2.0,0.0
4483,76.0,30,30,13.0,0.0
4484,73.0,30,30,13.0,0.0
4485,76.0,0,30,13.0,0.0
4486,73.0,30,30,13.0,0.0
4487,73.0,0,60,6.0,0.0
4488,61.0,30,60,8.0,0.0
4489,67.0,0,30,13.0,0.0
4490,64.0,0,60,8.0,0.0
4491,73.0,30,30,13.0,0.0
4492,76.0,30,60,6.0,0.0
4493,67.0,0,30,13.0,0.0
4494,79.0,30,60,6.0,0.0
4495,64.0,30,30,13.0,0.0
4496,67.0,0,60,8.0,0.0
4497,67.0,0,30,13.0,0.0
4498,64.0,30,30,13.0,0.0
4499,34.0,0,60,4.0,0.0
4500,46.0,30,60,3.0,0.0
4501,61.0,0,30,13.0,0.0
4502,33.0,30,120,4.0,0.0
4503,64.0,30,30,13.0,0.0
4504,57.0,0,360,2.0,0.0
4505,45.0,0,120,3.0,0.0
4506,61.0,30,30,13.0,0.0
4507,55.0,30,30,13.0,0.0
4508,67.0,0,30,13.0,0.0
4509,37.0,0,30,4.0,0.0
4510,49.0,0,30,3.0,0.0
4511,64.0,30,30,13.0,0.0
4512,61.0,30,30,13.0,0.0
4513,52.0,30,60,3.0,0.0
4514,64.0,30,30,13.0,0.0
4515,40.0,0,60,4.0,0.0
4516,61.0,0,30,13.0,0.0
4517,45.0,0,60,4.0,0.0
4518,55.0,30,30,13.0,0.0
4519,57.0,0,60,3.0,0.0
4520,67.0,30,30,13.0,0.0
4521,57.0,30,60,8.0,0.0
4522,64.0,30,30,13.0,0.0
4523,69.0,0,60,6.0,0.0
4524,61.0,0,30,13.0,0.0
4525,58.0,60,360,2.0,0.0
4526,79.0,0,360,5.0,0.0
4527,70.0,30,120,6.0,0.0
4528,58.0,0,120,8.0,0.0
4529,64.0,30,30,13.0,0.0
4530,61.0,30,30,13.0,0.0
4531,55.0,30,30,13.0,0.0
4532,67.0,0,30,13.0,0.0
4533,64.0,30,30,13.0,0.0
4534,73.0,0,60,6.0,0.0
4535,61.0,0,60,8.0,0.0
4536,61.0,30,30,13.0,0.0
4537,76.0,0,60,6.0,0.0
4538,64.0,30,30,13.0,0.0
4539,64.0,30,60,8.0,0.0
4540,61.0,0,30,13.0,0.0
4541,55.0,30,30,13.0,0.0
4542,67.0,30,60,8.0,0.0
4543,79.0,0,60,6.0,0.0
4544,67.0,0,30,13.0,0.0
4545,64.0,30,30,13.0,0.0
4546,46.0,0,60,3.0,0.0
4547,79.0,0,60,6.0,0.0
4548,34.0,0,60,4.0,0.0
4549,58.0,0,60,8.0,0.0
4550,61.0,0,30,13.0,0.0
4551,64.0,0,15,8.0,0.0
4552,61.0,0,15,1.0,0.0
4553,67.0,0,120,0.0,0.0
4554,45.0,0,120,3.0,0.0
4555,73.0,0,540,6.0,0.0
4556,33.0,30,120,4.0,0.0
4557,57.0,0,120,2.0,0.0
4558,79.0,0,540,6.0,0.0
4559,55.0,30,60,13.0,0.0
4560,60.0,27,30,13.0,0.0
4561,61.0,3,30,13.0,0.0
4562,63.0,27,30,13.0,0.0
4563,64.0,33,30,13.0,0.0
4564,66.0,27,30,13.0,0.0
4565,67.0,33,30,13.0,0.0
4566,72.0,27,30,13.0,0.0
4567,73.0,33,30,13.0,0.0
4568,75.0,27,30,13.0,0.0
4569,76.0,33,30,13.0,0.0
4570,79.0,27,30,13.0,0.0
4571,76.0,23,30,13.0,0.0
4572,85.0,30,20,13.0,0.0
4573,79.0,30,20,13.0,0.0
4574,88.0,30,20,13.0,0.0
4575,85.0,10,20,13.0,0.0
4576,91.0,0,60,13.0,0.0
4577,57.0,60,15,8.0,0.0
4578,79.0,0,15,6.0,0.0
4579,73.0,0,15,6.0,0.0
4580,64.0,60,15,8.0,0.0
4581,57.0,0,15,8.0,0.0
4582,64.0,0,60,8.0,0.0
4583,91.0,0,15,13.0,0.0
4584,79.0,60,15,6.0,0.0
4585,57.0,0,15,8.0,0.0
4586,79.0,0,15,6.0,0.0
4587,64.0,0,660,8.0,0.0
4588,73.0,0,15,6.0,0.0
4589,91.0,15,360,13.0,0.0
4590,45.0,0,120,3.0,0.0
4591,57.0,0,120,2.0,0.0
4592,86.0,15,15,13.0,0.0
4593,33.0,15,120,4.0,0.0
4594,64.0,0,120,1.0,0.0
4595,67.0,0,120,0.0,0.0
4596,85.0,15,15,13.0,0.0
4597,86.0,15,15,13.0,0.0
4598,85.0,15,15,13.0,0.0
4599,86.0,15,15,13.0,0.0
4600,85.0,15,15,13.0,0.0
4601,86.0,15,15,13.0,0.0
4602,85.0,0,15,13.0,0.0
4603,86.0,15,15,13.0,0.0
4604,85.0,15,15,13.0,0.0
4605,86.0,15,15,13.0,0.0
4606,85.0,8,15,13.0,0.0
4607,86.0,7,15,13.0,0.0
4608,85.0,8,15,13.0,0.0
4609,86.0,7,15,13.0,0.0
4610,85.0,8,15,13.0,0.0
4611,86.0,7,15,13.0,0.0
4612,85.0,8,15,13.0,0.0
4613,86.0,7,15,13.0,0.0
4614,85.0,15,15,13.0,0.0
4615,88.0,15,15,13.0,0.0
4616,86.0,15,15,13.0,0.0
4617,85.0,15,15,13.0,0.0
4618,62.0,150,30,13.0,0.0
4619,57.0,0,120,13.0,0.0
4620,62.0,0,60,13.0,0.0
4621,38.0,60,15,3.0,0.0
4622,66.0,60,60,13.0,0.0
4623,38.0,60,15,3.0,0.0
4624,69.0,30,60,13.0,0.0
4625,62.0,150,30,13.0,0.0
4626,57.0,60,120,13.0,0.0
4627,38.0,0,60,3.0,0.0
4628,62.0,0,60,13.0,0.0
4629,38.0,60,60,3.0,0.0
4630,38.0,0,120,3.0,0.0
4631,66.0,60,60,13.0,0.0
4632,69.0,60,60,13.0,0.0
4633,67.0,120,60,13.0,0.0
4634,64.0,60,120,13.0,0.0
4635,61.0,0,60,3.0,0.0
4636,66.0,0,60,13.0,0.0
4637,62.0,120,60,3.0,0.0
4638,62.0,60,120,13.0,0.0
4639,59.0,0,60,3.0,0.0
4640,55.0,0,60,3.0,0.0
4641,64.0,30,60,13.0,0.0
4642,61.0,60,30,13.0,0.0
4643,57.0,15,60,3.0,0.0
4644,61.0,30,30,13.0,0.0
4645,50.0,0,60,3.0,0.0
4646,64.0,15,15,13.0,0.0
4647,62.0,15,15,13.0,0.0
4648,64.0,15,15,13.0,0.0
4649,62.0,60,15,13.0,0.0
4650,45.0,30,120,3.0,0.0
4651,64.0,60,60,13.0,0.0
4652,62.0,150,30,13.0,0.0
4653,57.0,0,120,13.0,0.0
4654,38.0,60,60,3.0,0.0
4655,62.0,0,60,13.0,0.0
4656,38.0,60,60,3.0,0.0
4657,66.0,60,60,13.0,0.0
4658,38.0,0,120,3.0,0.0
4659,69.0,30,60,13.0,0.0
4660,62.0,150,30,13.0,0.0
4661,57.0,0,120,13.0,0.0
4662,62.0,0,60,13.0,0.0
4663,38.0,60,15,3.0,0.0
4664,66.0,60,60,13.0,0.0
4665,38.0,60,120,3.0,0.0
4666,69.0,0,60,13.0,0.0
4667,67.0,120,60,13.0,0.0
4668,64.0,0,120,13.0,0.0
4669,61.0,60,60,3.0,0.0
4670,66.0,0,60,13.0,0.0
4671,62.0,120,60,3.0,0.0
4672,62.0,60,120,13.0,0.0
4673,59.0,0,60,3.0,0.0
4674,64.0,60,60,13.0,0.0
4675,55.0,0,60,3.0,0.0
4676,59.0,60,60,13.0,0.0
4677,64.0,60,60,13.0,0.0
4678,52.0,0,60,3.0,0.0
4679,61.0,60,60,13.0,0.0
4680,57.0,0,60,3.0,0.0
4681,50.0,60,120,3.0,0.0
4682,62.0,60,60,13.0,0.0
4683,57.0,120,60,13.0,0.0
4684,64.0,0,120,13.0,0.0
4685,57.0,0,60,10.0,0.0
4686,57.0,0,60,1.0,0.0
4687,57.0,0,60,2.0,0.0
4688,61.0,0,60,0.0,0.0
4689,57.0,15,60,3.0,0.0
4690,62.0,0,60,0.0,0.0
4691,67.0,15,15,13.0,0.0
4692,45.0,0,15,10.0,0.0
4693,50.0,0,60,3.0,0.0
4694,50.0,60,60,2.0,0.0
4695,66.0,15,15,13.0,0.0
4696,67.0,15,15,13.0,0.0
4697,66.0,0,15,13.0,0.0
4698,45.0,0,120,3.0,0.0
4699,67.0,60,60,13.0,0.0
4700,57.0,0,15,1.0,0.0
4701,57.0,0,15,10.0,0.0
4702,45.0,0,15,10.0,0.0
4703,64.0,0,120,0.0,0.0
4704,57.0,0,120,2.0,0.0
4705,64.0,0,60,13.0,0.0
4706,69.0,0,60,6.0,0.0
4707,57.0,90,60,10.0,0.0
4708,64.0,30,120,10.0,0.0
4709,73.0,0,120,6.0,0.0
4710,76.0,0,120,6.0,0.0
4711,57.0,0,120,10.0,0.0
4712,64.0,30,30,0.0,0.0
4713,45.0,0,60,4.0,0.0
4714,57.0,0,30,2.0,0.0
4715,61.0,0,30,1.0,0.0
4716,57.0,0,60,3.0,0.0
4717,78.0,0,60,6.0,0.0
4718,50.0,60,60,3.0,0.0
4719,62.0,0,30,1.0,0.0
4720,74.0,0,60,6.0,0.0
4721,66.0,0,60,10.0,0.0
4722,62.0,0,60,10.0,0.0
4723,57.0,30,30,2.0,0.0
4724,66.0,0,30,0.0,0.0
4725,38.0,0,60,4.0,0.0
4726,64.0,0,60,1.0,0.0
4727,61.0,0,60,1.0,0.0
4728,33.0,30,60,4.0,0.0
4729,67.0,0,60,0.0,0.0
4730,79.0,0,90,6.0,0.0
4731,57.0,0,90,10.0,0.0
4732,64.0,60,90,10.0,0.0
4733,73.0,0,90,6.0,0.0
4734,45.0,0,60,3.0,0.0
4735,57.0,0,60,2.0,0.0
4736,86.0,135,30,13.0,0.0
4737,81.0,45,120,13.0,0.0
4738,78.0,0,40,0.0,0.0
4739,74.0,15,40,1.0,0.0
4740,78.0,0,40,0.0,0.0
4741,86.0,60,60,13.0,0.0
4742,74.0,15,40,1.0,0.0
4743,90.0,60,60,13.0,0.0
4744,74.0,30,120,1.0,0.0
4745,78.0,0,120,0.0,0.0
4746,93.0,0,60,13.0,0.0
4747,86.0,135,30,13.0,0.0
4748,81.0,45,120,13.0,0.0
4749,78.0,0,40,0.0,0.0
4750,74.0,15,40,1.0,0.0
4751,86.0,60,60,13.0,0.0
4752,74.0,15,40,1.0,0.0
4753,78.0,0,40,0.0,0.0
4754,78.0,0,120,0.0,0.0
4755,74.0,60,120,1.0,0.0
4756,90.0,60,60,13.0,0.0
4757,93.0,0,60,13.0,0.0
4758,91.0,120,60,13.0,0.0
4759,88.0,60,120,13.0,0.0
4760,85.0,0,60,0.0,0.0
4761,86.0,0,60,0.0,0.0
4762,90.0,120,60,13.0,0.0
4763,86.0,60,120,13.0,0.0
4764,83.0,0,60,0.0,0.0
4765,79.0,0,60,0.0,0.0
4766,88.0,30,60,13.0,0.0
4767,85.0,60,30,13.0,0.0
4768,85.0,30,30,13.0,0.0
4769,81.0,15,60,0.0,0.0
4770,88.0,15,15,13.0,0.0
4771,74.0,60,60,0.0,0.0
4772,86.0,15,15,13.0,0.0
4773,88.0,15,15,13.0,0.0
4774,86.0,0,15,13.0,0.0
4775,88.0,60,60,13.0,0.0
4776,69.0,30,120,0.0,0.0
4777,86.0,135,30,13.0,0.0
4778,81.0,45,120,13.0,0.0
4779,74.0,15,40,1.0,0.0
4780,78.0,0,40,0.0,0.0
4781,78.0,15,40,0.0,0.0
4782,86.0,60,60,13.0,0.0
4783,74.0,0,40,1.0,0.0
4784,90.0,60,60,13.0,0.0
4785,78.0,0,120,0.0,0.0
4786,74.0,30,120,1.0,0.0
4787,93.0,0,60,13.0,0.0
4788,86.0,135,30,13.0,0.0
4789,81.0,45,120,13.0,0.0
4790,74.0,15,40,1.0,0.0
4791,78.0,0,40,0.0,0.0
4792,78.0,0,40,0.0,0.0
4793,74.0,15,40,1.0,0.0
4794,86.0,60,60,13.0,0.0
4795,74.0,0,120,1.0,0.0
4796,90.0,60,60,13.0,0.0
4797,78.0,0,120,0.0,0.0
4798,93.0,60,60,13.0,0.0
4799,91.0,120,60,13.0,0.0
4800,88.0,0,120,13.0,0.0
4801,85.0,60,60,0.0,0.0
4802,86.0,120,60,0.0,0.0
4803,90.0,0,60,13.0,0.0
4804,86.0,60,120,13.0,0.0
4805,83.0,0,60,0.0,0.0
4806,79.0,0,60,0.0,0.0
4807,88.0,60,60,13.0,0.0
4808,83.0,60,60,13.0,0.0
4809,88.0,0,60,13.0,0.0
4810,76.0,60,60,0.0,0.0
4811,81.0,0,60,0.0,0.0
4812,85.0,60,60,13.0,0.0
4813,86.0,60,60,13.0,0.0
4814,74.0,60,120,0.0,0.0
4815,57.0,120,60,0.0,0.0
4816,61.0,0,120,1.0,0.0
4817,57.0,0,120,2.0,0.0
4818,64.0,60,120,0.0,0.0
4819,57.0,0,60,3.0,0.0
4820,45.0,0,60,10.0,0.0
4821,62.0,0,60,1.0,0.0
4822,50.0,0,60,3.0,0.0
4823,57.0,0,15,10.0,0.0
4824,66.0,60,60,0.0,0.0
4825,57.0,0,60,2.0,0.0
4826,64.0,0,60,1.0,0.0
4827,57.0,0,15,10.0,0.0
4828,45.0,0,15,10.0,0.0
4829,57.0,60,60,2.0,0.0
4830,45.0,60,120,3.0,0.0
4831,67.0,0,60,0.0,0.0
4832,61.0,0,60,1.0,0.0
4833,64.0,0,60,0.0,0.0
4834,57.0,0,60,2.0,0.0
4835,69.0,90,60,6.0,0.0
4836,57.0,0,60,10.0,0.0
4837,76.0,0,120,6.0,0.0
4838,73.0,0,120,6.0,0.0
4839,64.0,0,120,10.0,0.0
4840,57.0,0,120,10.0,0.0
4841,64.0,0,30,0.0,0.0
4842,57.0,0,30,2.0,0.0
4843,61.0,30,30,1.0,0.0
4844,57.0,30,60,3.0,0.0
4845,45.0,0,60,4.0,0.0
4846,62.0,0,60,10.0,0.0
4847,38.0,0,60,4.0,0.0
4848,74.0,60,60,6.0,0.0
4849,66.0,0,60,10.0,0.0
4850,50.0,0,60,3.0,0.0
4851,78.0,0,60,6.0,0.0
4852,57.0,30,30,2.0,0.0
4853,62.0,0,30,1.0,0.0
4854,66.0,0,30,0.0,0.0
4855,64.0,0,60,1.0,0.0
4856,67.0,0,60,0.0,0.0
4857,33.0,30,60,4.0,0.0
4858,64.0,0,90,10.0,0.0
4859,57.0,60,90,10.0,0.0
4860,45.0,0,60,3.0,0.0
4861,73.0,0,90,6.0,0.0
4862,79.0,0,90,6.0,0.0
4863,57.0,0,60,2.0,0.0
4864,62.0,30,30,1.0,0.0
4865,74.0,0,30,6.0,0.0
4866,54.0,0,60,8.0,0.0
4867,62.0,0,30,10.0,0.0
4868,74.0,0,30,0.0,0.0
4869,50.0,120,60,11.0,0.0
4870,62.0,0,60,11.0,0.0
4871,50.0,0,15,12.0,0.0
4872,69.0,0,120,6.0,0.0
4873,57.0,0,120,10.0,0.0
4874,74.0,0,15,7.0,0.0
4875,66.0,0,15,7.0,0.0
4876,57.0,0,15,8.0,0.0
4877,69.0,0,120,0.0,0.0
4878,50.0,0,120,11.0,0.0
4879,57.0,0,120,1.0,0.0
4880,62.0,30,120,11.0,0.0
4881,50.0,0,60,3.0,0.0
4882,50.0,0,15,12.0,0.0
4883,74.0,0,30,6.0,0.0
4884,62.0,30,30,10.0,0.0
4885,74.0,0,15,7.0,0.0
4886,66.0,0,15,7.0,0.0
4887,74.0,0,30,0.0,0.0
4888,38.0,0,15,4.0,0.0
4889,50.0,0,60,3.0,0.0
4890,62.0,0,15,2.0,0.0
4891,62.0,0,30,1.0,0.0
4892,57.0,0,15,8.0,0.0
4893,54.0,0,15,8.0,0.0
4894,50.0,0,60,11.0,0.0
4895,78.0,0,60,0.0,0.0
4896,66.0,0,15,7.0,0.0
4897,74.0,0,15,7.0,0.0
4898,54.0,0,15,8.0,0.0
4899,38.0,0,120,4.0,0.0
4900,50.0,0,120,3.0,0.0
4901,62.0,0,15,2.0,0.0
4902,50.0,0,120,11.0,0.0
4903,62.0,0,15,11.0,0.0
4904,66.0,60,60,10.0,0.0
4905,66.0,0,60,1.0,0.0
4906,50.0,0,120,12.0,0.0
4907,78.0,0,60,6.0,0.0
4908,81.0,0,60,0.0,0.0
4909,81.0,0,60,6.0,0.0
4910,69.0,0,60,1.0,0.0
4911,69.0,0,60,10.0,0.0
4912,57.0,30,15,8.0,0.0
4913,74.0,0,15,7.0,0.0
4914,66.0,0,15,7.0,0.0
4915,50.0,120,60,12.0,0.0
4916,86.0,0,30,5.0,0.0
4917,74.0,0,30,0.0,0.0
4918,62.0,0,30,1.0,0.0
4919,74.0,30,30,6.0,0.0
4920,54.0,0,15,8.0,0.0
4921,62.0,0,30,10.0,0.0
4922,62.0,0,60,11.0,0.0
4923,50.0,0,60,11.0,0.0
4924,69.0,0,120,6.0,0.0
4925,81.0,0,120,5.0,0.0
4926,57.0,0,120,10.0,0.0
4927,54.0,0,15,8.0,0.0
4928,69.0,30,120,0.0,0.0
4929,57.0,0,120,8.0,0.0
4930,57.0,0,120,1.0,0.0
4931,62.0,0,120,11.0,0.0
4932,66.0,0,120,7.0,0.0
4933,50.0,0,120,11.0,0.0
4934,50.0,0,60,3.0,0.0
4935,62.0,0,60,2.0,0.0
4936,62.0,30,30,10.0,0.0
4937,66.0,0,60,7.0,0.0
4938,38.0,0,15,4.0,0.0
4939,74.0,0,15,7.0,0.0
4940,74.0,0,30,6.0,0.0
4941,74.0,0,30,0.0,0.0
4942,50.0,0,15,12.0,0.0
4943,86.0,0,30,5.0,0.0
4944,62.0,0,30,1.0,0.0
4945,50.0,0,15,11.0,0.0
4946,62.0,0,15,2.0,0.0
4947,62.0,0,15,11.0,0.0
4948,66.0,60,60,10.0,0.0
4949,66.0,0,60,1.0,0.0
4950,50.0,0,120,12.0,0.0
4951,38.0,0,15,4.0,0.0
4952,78.0,0,60,6.0,0.0
4953,50.0,0,15,3.0,0.0
4954,78.0,0,60,0.0,0.0
4955,90.0,0,60,5.0,0.0
4956,57.0,0,15,8.0,0.0
4957,54.0,0,15,8.0,0.0
4958,74.0,60,15,7.0,0.0
4959,66.0,0,120,7.0,0.0
4960,69.0,60,60,1.0,0.0
4961,81.0,0,60,0.0,0.0
4962,93.0,0,60,5.0,0.0
4963,81.0,0,60,6.0,0.0
4964,69.0,0,60,10.0,0.0
4965,79.0,120,60,6.0,0.0
4966,79.0,0,60,0.0,0.0
4967,67.0,0,60,1.0,0.0
4968,57.0,0,120,11.0,0.0
4969,76.0,0,120,0.0,0.0
4970,64.0,0,120,1.0,0.0
4971,76.0,0,120,6.0,0.0
4972,45.0,0,120,12.0,0.0
4973,45.0,0,120,11.0,0.0
4974,37.0,0,60,4.0,0.0
4975,57.0,0,60,10.0,0.0
4976,64.0,0,60,10.0,0.0
4977,61.0,0,60,2.0,0.0
4978,49.0,60,60,3.0,0.0
4979,66.0,0,60,1.0,0.0
4980,78.0,0,60,0.0,0.0
4981,38.0,0,60,4.0,0.0
4982,62.0,120,60,2.0,0.0
4983,78.0,0,60,6.0,0.0
4984,62.0,0,60,10.0,0.0
4985,66.0,0,60,10.0,0.0
4986,50.0,0,60,3.0,0.0
4987,74.0,0,120,6.0,0.0
4988,62.0,0,120,1.0,0.0
4989,74.0,0,120,0.0,0.0
4990,50.0,60,120,12.0,0.0
4991,62.0,0,120,11.0,0.0
4992,50.0,0,120,11.0,0.0
4993,88.0,0,60,5.0,0.0
4994,59.0,0,60,3.0,0.0
4995,50.0,0,60,10.0,0.0
4996,62.0,0,60,10.0,0.0
4997,71.0,0,60,2.0,0.0
4998,47.0,0,60,4.0,0.0
4999,76.0,0,60,0.0,0.0
5000,69.0,0,60,2.0,0.0
5001,45.0,0,60,4.0,0.0
5002,76.0,45,60,6.0,0.0
5003,57.0,0,60,3.0,0.0
5004,67.0,0,60,10.0,0.0
5005,90.0,0,60,5.0,0.0
5006,64.0,0,60,1.0,0.0
5007,61.0,45,60,1.0,0.0
5008,57.0,0,60,2.0,0.0
5009,64.0,0,15,10.0,0.0
5010,73.0,0,40,7.0,0.0
5011,64.0,0,40,7.0,0.0
5012,73.0,0,40,0.0,0.0
5013,57.0,0,60,3.0,0.0
5014,73.0,0,40,6.0,0.0
5015,85.0,0,40,5.0,0.0
5016,49.0,0,40,8.0,0.0
5017,61.0,15,40,8.0,0.0
5018,45.0,0,60,4.0,0.0
5019,64.0,0,15,10.0,0.0
5020,45.0,0,15,12.0,0.0
5021,73.0,0,40,7.0,0.0
5022,57.0,0,15,10.0,0.0
5023,85.0,15,40,5.0,0.0
5024,57.0,0,60,3.0,0.0
5025,64.0,0,40,7.0,0.0
5026,49.0,0,40,8.0,0.0
5027,73.0,0,40,0.0,0.0
5028,73.0,0,40,6.0,0.0
5029,57.0,0,15,11.0,0.0
5030,45.0,0,15,11.0,0.0
5031,61.0,0,40,8.0,0.0
5032,67.0,0,60,1.0,0.0
5033,57.0,0,60,1.0,0.0
5034,45.0,0,60,4.0,0.0
5035,64.0,0,60,2.0,0.0
5036,62.0,0,60,11.0,0.0
5037,74.0,0,40,7.0,0.0
5038,66.0,0,40,7.0,0.0
5039,66.0,0,60,10.0,0.0
5040,50.0,0,60,11.0,0.0
5041,50.0,15,40,8.0,0.0
5042,62.0,0,40,8.0,0.0
5043,62.0,0,60,10.0,0.0
5044,66.0,0,60,1.0,0.0
5045,50.0,60,60,12.0,0.0
5046,38.0,0,60,4.0,0.0
5047,50.0,0,60,3.0,0.0
5048,62.0,0,60,2.0,0.0
5049,76.0,15,15,6.0,0.0
5050,76.0,0,15,0.0,0.0
5051,88.0,0,15,5.0,0.0
5052,57.0,0,60,1.0,0.0
5053,74.0,0,15,6.0,0.0
5054,74.0,0,15,0.0,0.0
5055,86.0,15,15,5.0,0.0
5056,88.0,0,15,5.0,0.0
5057,76.0,0,15,0.0,0.0
5058,76.0,0,15,6.0,0.0
5059,74.0,0,15,6.0,0.0
5060,86.0,0,15,5.0,0.0
5061,74.0,0,15,0.0,0.0
5062,57.0,0,60,1.0,0.0
5063,64.0,0,60,1.0,0.0
5064,88.0,0,120,5.0,0.0
5065,61.0,0,120,2.0,0.0
5066,33.0,0,60,4.0,0.0
5067,76.0,0,60,0.0,0.0
5068,64.0,0,120,8.0,0.0
5069,76.0,0,120,6.0,0.0
5070,45.0,60,60,3.0,0.0
5071,61.0,0,120,8.0,0.0
5072,57.0,0,120,10.0,0.0
5073,73.0,30,120,7.0,0.0
5074,57.0,0,120,11.0,0.0
5075,76.0,0,120,7.0,0.0
5076,45.0,0,120,12.0,0.0
5077,64.0,0,120,10.0,0.0
5078,45.0,0,120,11.0,0.0
5079,74.0,0,60,6.0,0.0
5080,50.0,0,60,12.0,0.0
5081,57.0,0,60,8.0,0.0
5082,86.0,0,60,5.0,0.0
5083,53.0,0,60,8.0,0.0
5084,74.0,30,30,0.0,0.0
5085,50.0,0,15,11.0,0.0
5086,62.0,0,15,11.0,0.0
5087,62.0,0,15,10.0,0.0
5088,50.0,120,15,10.0,0.0
5089,74.0,0,15,7.0,0.0
5090,65.0,0,15,7.0,0.0
5091,69.0,0,120,6.0,0.0
5092,53.0,0,120,8.0,0.0
5093,69.0,0,120,0.0,0.0
5094,81.0,30,120,5.0,0.0
5095,62.0,0,60,2.0,0.0
5096,38.0,0,60,4.0,0.0
5097,50.0,0,15,12.0,0.0
5098,50.0,0,15,10.0,0.0
5099,62.0,0,15,10.0,0.0
5100,57.0,0,15,1.0,0.0
5101,65.0,0,15,1.0,0.0
5102,38.0,0,60,4.0,0.0
5103,62.0,0,60,2.0,0.0
5104,50.0,0,15,3.0,0.0
5105,74.0,0,30,6.0,0.0
5106,74.0,0,30,0.0,0.0
5107,74.0,0,15,7.0,0.0
5108,65.0,0,15,7.0,0.0
5109,86.0,30,30,5.0,0.0
5110,62.0,0,60,11.0,0.0
5111,57.0,0,15,8.0,0.0
5112,53.0,0,60,8.0,0.0
5113,50.0,0,60,11.0,0.0
5114,89.0,0,60,5.0,0.0
5115,50.0,0,120,12.0,0.0
5116,62.0,0,120,2.0,0.0
5117,74.0,30,120,7.0,0.0
5118,65.0,60,15,1.0,0.0
5119,77.0,60,60,0.0,0.0
5120,50.0,0,120,3.0,0.0
5121,50.0,0,120,11.0,0.0
5122,62.0,0,120,11.0,0.0
5123,53.0,0,120,8.0,0.0
5124,57.0,0,15,1.0,0.0
5125,57.0,0,120,8.0,0.0
5126,50.0,0,15,10.0,0.0
5127,65.0,0,120,7.0,0.0
5128,38.0,0,120,4.0,0.0
5129,62.0,0,120,10.0,0.0
5130,77.0,0,60,6.0,0.0
5131,93.0,0,60,5.0,0.0
5132,81.0,0,60,6.0,0.0
5133,81.0,0,60,0.0,0.0
5134,74.0,0,30,1.0,0.0
5135,62.0,150,30,2.0,0.0
5136,70.0,0,120,1.0,0.0
5137,58.0,0,120,2.0,0.0
5138,77.0,0,60,6.0,0.0
5139,70.0,0,60,6.0,0.0
5140,65.0,0,60,7.0,0.0
5141,82.0,0,15,5.0,0.0
5142,74.0,0,15,7.0,0.0
5143,74.0,30,30,1.0,0.0
5144,62.0,0,30,2.0,0.0
5145,65.0,0,60,7.0,0.0
5146,58.0,0,15,8.0,0.0
5147,50.0,30,15,8.0,0.0
5148,70.0,0,60,6.0,0.0
5149,77.0,0,15,6.0,0.0
5150,65.0,0,120,7.0,0.0
5151,74.0,0,120,7.0,0.0
5152,65.0,0,60,2.0,0.0
5153,77.0,60,60,1.0,0.0
5154,58.0,0,15,8.0,0.0
5155,50.0,0,15,8.0,0.0
5156,82.0,60,15,5.0,0.0
5157,70.0,0,120,6.0,0.0
5158,70.0,0,60,2.0,0.0
5159,82.0,0,60,1.0,0.0
5160,79.0,120,60,0.0,0.0
5161,70.0,0,60,0.0,0.0
5162,82.0,0,120,5.0,0.0
5163,70.0,0,120,0.0,0.0
5164,67.0,0,15,10.0,0.0
5165,67.0,0,60,1.0,0.0
5166,39.0,0,60,4.0,0.0
5167,51.0,0,60,8.0,0.0
5168,67.0,0,60,7.0,0.0
5169,51.0,0,15,3.0,0.0
5170,70.0,0,15,7.0,0.0
5171,70.0,0,15,6.0,0.0
5172,79.0,0,15,6.0,0.0
5173,87.0,0,60,5.0,0.0
5174,63.0,0,15,2.0,0.0
5175,58.0,0,15,1.0,0.0
5176,55.0,0,15,8.0,0.0
5177,51.0,0,60,8.0,0.0
5178,67.0,0,60,1.0,0.0
5179,67.0,0,60,10.0,0.0
5180,75.0,30,30,0.0,0.0
5181,39.0,0,15,4.0,0.0
5182,63.0,0,15,2.0,0.0
5183,58.0,0,15,1.0,0.0
5184,67.0,0,120,1.0,0.0
5185,79.0,60,60,0.0,0.0
5186,55.0,0,15,8.0,0.0
5187,67.0,0,15,7.0,0.0
5188,67.0,0,120,10.0,0.0
5189,51.0,0,120,8.0,0.0
5190,51.0,0,15,3.0,0.0
5191,91.0,60,120,5.0,0.0
5192,70.0,0,120,7.0,0.0
5193,79.0,0,120,6.0,0.0
5194,70.0,60,15,6.0,0.0
5195,82.0,0,60,0.0,0.0
5196,79.0,0,60,1.0,0.0
5197,67.0,120,60,2.0,0.0
5198,72.0,0,120,1.0,0.0
5199,60.0,0,120,2.0,0.0
5200,64.0,0,60,7.0,0.0
5201,67.0,0,60,7.0,0.0
5202,72.0,0,60,6.0,0.0
5203,55.0,0,60,8.0,0.0
5204,76.0,0,60,1.0,0.0
5205,67.0,0,60,7.0,0.0
5206,52.0,0,15,8.0,0.0
5207,55.0,0,60,8.0,0.0
5208,67.0,0,15,10.0,0.0
5209,64.0,0,60,7.0,0.0
5210,84.0,60,15,5.0,0.0
5211,64.0,0,60,2.0,0.0
5212,79.0,0,15,6.0,0.0
5213,79.0,0,15,6.0,0.0
5214,72.0,0,15,6.0,0.0
5215,79.0,0,60,1.0,0.0
5216,67.0,60,60,2.0,0.0
5217,67.0,0,120,7.0,0.0
5218,64.0,0,120,7.0,0.0
5219,84.0,0,15,5.0,0.0
5220,52.0,0,120,8.0,0.0
5221,55.0,0,120,8.0,0.0
5222,67.0,60,15,10.0,0.0
5223,84.0,0,60,1.0,0.0
5224,72.0,0,60,2.0,0.0
5225,57.0,0,60,10.0,0.0
5226,81.0,0,60,0.0,0.0
5227,69.0,0,60,1.0,0.0
5228,84.0,0,60,5.0,0.0
5229,60.0,0,120,1.0,0.0
5230,72.0,0,120,0.0,0.0
5231,57.0,0,15,11.0,0.0
5232,84.0,30,120,5.0,0.0
5233,45.0,0,15,11.0,0.0
5234,57.0,0,120,10.0,0.0
5235,69.0,120,15,10.0,0.0
5236,65.0,0,60,7.0,0.0
5237,53.0,0,60,3.0,0.0
5238,69.0,0,60,7.0,0.0
5239,81.0,0,60,6.0,0.0
5240,41.0,0,60,4.0,0.0
5241,53.0,0,60,8.0,0.0
5242,57.0,0,60,8.0,0.0
5243,53.0,0,60,2.0,0.0
5244,57.0,0,60,2.0,0.0
5245,65.0,0,60,7.0,0.0
5246,69.0,0,60,7.0,0.0
5247,65.0,0,30,1.0,0.0
5248,72.0,0,15,6.0,0.0
5249,41.0,0,60,4.0,0.0
5250,57.0,0,60,8.0,0.0
5251,81.0,0,60,6.0,0.0
5252,45.0,0,60,11.0,0.0
5253,57.0,0,15,11.0,0.0
5254,57.0,0,60,10.0,0.0
5255,89.0,0,60,5.0,0.0
5256,69.0,0,60,10.0,0.0
5257,57.0,0,60,2.0,0.0
5258,77.0,30,30,0.0,0.0
5259,53.0,0,60,2.0,0.0
5260,41.0,0,120,4.0,0.0
5261,72.0,0,120,6.0,0.0
5262,81.0,0,120,6.0,0.0
5263,69.0,60,60,1.0,0.0
5264,53.0,0,15,3.0,0.0
5265,57.0,0,120,11.0,0.0
5266,57.0,0,120,10.0,0.0
5267,53.0,0,120,2.0,0.0
5268,57.0,0,120,2.0,0.0
5269,81.0,0,60,0.0,0.0
5270,93.0,0,60,5.0,0.0
5271,65.0,0,120,7.0,0.0
5272,53.0,60,15,8.0,0.0
5273,57.0,0,120,8.0,0.0
5274,72.0,0,60,1.0,0.0
5275,84.0,0,60,0.0,0.0
5276,69.0,120,60,1.0,0.0
5277,81.0,0,60,0.0,0.0
5278,57.0,0,60,11.0,0.0
5279,81.0,0,60,5.0,0.0
5280,69.0,0,15,7.0,0.0
5281,45.0,60,15,11.0,0.0
5282,69.0,0,15,10.0,0.0
5283,81.0,0,60,6.0,0.0
5284,57.0,0,60,10.0,0.0
5285,57.0,0,15,8.0,0.0
5286,54.0,0,120,8.0,0.0
5287,62.0,30,120,1.0,0.0
5288,50.0,0,120,10.0,0.0
5289,62.0,0,120,10.0,0.0
5290,62.0,0,120,0.0,0.0
5291,62.0,0,120,7.0,0.0
5292,74.0,0,120,0.0,0.0
5293,74.0,0,120,5.0,0.0
5294,74.0,0,120,6.0,0.0
5295,42.0,0,60,4.0,0.0
5296,57.0,0,60,2.0,0.0
5297,54.0,0,60,2.0,0.0
5298,62.0,0,15,11.0,0.0
5299,50.0,0,15,11.0,0.0
5300,54.0,0,15,3.0,0.0
5301,57.0,0,15,8.0,0.0
5302,54.0,0,60,8.0,0.0
5303,54.0,0,60,2.0,0.0
5304,66.0,0,30,7.0,0.0
5305,78.0,0,30,5.0,0.0
5306,66.0,0,30,10.0,0.0
5307,78.0,0,30,6.0,0.0
5308,66.0,0,30,1.0,0.0
5309,57.0,0,60,2.0,0.0
5310,78.0,30,30,0.0,0.0
5311,54.0,0,30,10.0,0.0
5312,69.0,0,60,10.0,0.0
5313,54.0,0,120,3.0,0.0
5314,42.0,0,15,4.0,0.0
5315,57.0,0,60,10.0,0.0
5316,69.0,60,60,1.0,0.0
5317,81.0,0,60,6.0,0.0
5318,69.0,0,60,7.0,0.0
5319,62.0,60,15,11.0,0.0
5320,50.0,0,15,11.0,0.0
5321,81.0,0,60,0.0,0.0
5322,81.0,0,60,5.0,0.0
5323,57.0,0,120,2.0,0.0
5324,57.0,0,15,8.0,0.0
5325,54.0,0,120,8.0,0.0
5326,54.0,0,120,2.0,0.0
5327,62.0,0,60,10.0,0.0
5328,74.0,0,60,10.0,0.0
5329,74.0,0,60,7.0,0.0
5330,86.0,0,60,6.0,0.0
5331,86.0,0,60,5.0,0.0
5332,86.0,0,60,0.0,0.0
5333,74.0,0,60,1.0,0.0
5334,81.0,120,60,13.0,0.0
5335,74.0,0,120,13.0,0.0
5336,69.0,0,60,1.0,0.0
5337,74.0,0,15,0.0,0.0
5338,78.0,0,60,13.0,0.0
5339,66.0,60,15,2.0,0.0
5340,69.0,0,15,1.0,0.0
5341,74.0,0,15,0.0,0.0
5342,81.0,60,60,13.0,0.0
5343,66.0,60,15,2.0,0.0
5344,86.0,30,60,13.0,0.0
5345,74.0,90,30,13.0,0.0
5346,81.0,60,60,13.0,0.0
5347,86.0,30,60,13.0,0.0
5348,74.0,90,30,13.0,0.0
5349,81.0,60,60,13.0,0.0
5350,86.0,30,60,13.0,0.0
5351,74.0,90,30,13.0,0.0
5352,81.0,60,60,13.0,0.0
5353,86.0,30,60,13.0,0.0
5354,74.0,90,30,13.0,0.0
5355,81.0,60,60,13.0,0.0
5356,86.0,60,60,13.0,0.0
5357,74.0,60,60,13.0,0.0
5358,81.0,60,60,13.0,0.0
5359,86.0,60,60,13.0,0.0
5360,74.0,60,60,13.0,0.0
5361,86.0,60,60,13.0,0.0
5362,86.0,60,60,13.0,0.0
5363,86.0,60,60,13.0,0.0
5364,58.0,60,180,1.0,0.0
5365,62.0,0,720,0.0,0.0
5366,43.0,0,2160,3.0,0.0
5367,31.0,0,2160,4.0,0.0
5368,55.0,0,2160,2.0,0.0
5369,86.0,60,60,13.0,0.0
5370,82.0,60,60,13.0,0.0
5371,79.0,0,60,13.0,0.0
5372,60.0,240,180,1.0,0.0
5373,81.0,60,60,13.0,0.0
5374,78.0,60,60,13.0,0.0
5375,74.0,0,60,13.0,0.0
5376,79.0,60,240,13.0,0.0
5377,58.0,0,360,1.0,0.0
5378,81.0,60,60,13.0,0.0
5379,82.0,60,60,13.0,0.0
5380,63.0,0,360,0.0,0.0
5381,60.0,0,360,1.0,0.0
5382,84.0,60,60,13.0,0.0
5383,86.0,60,60,13.0,0.0
5384,87.0,60,60,13.0,0.0
5385,89.0,60,60,13.0,0.0
5386,91.0,60,60,13.0,0.0
5387,87.0,180,60,13.0,0.0
5388,86.0,60,180,13.0,0.0
5389,58.0,60,540,1.0,0.0
5390,62.0,0,1080,0.0,0.0
5391,82.0,60,60,13.0,0.0
5392,86.0,60,60,13.0,0.0
5393,86.0,60,60,13.0,0.0
5394,86.0,60,60,13.0,0.0
5395,82.0,60,60,13.0,0.0
5396,79.0,0,60,13.0,0.0
5397,60.0,0,180,1.0,0.0
5398,81.0,60,60,13.0,0.0
5399,78.0,60,60,13.0,0.0
5400,74.0,240,60,13.0,0.0
5401,58.0,0,360,1.0,0.0
5402,79.0,60,240,13.0,0.0
5403,81.0,60,60,13.0,0.0
5404,82.0,60,60,13.0,0.0
5405,41.0,60,180,3.0,0.0
5406,57.0,0,300,1.0,0.0
5407,53.0,0,180,2.0,0.0
5408,62.0,0,180,0.0,0.0
5409,29.0,0,180,4.0,0.0
5410,81.0,60,60,13.0,0.0
5411,80.0,60,60,13.0,0.0
5412,81.0,0,60,13.0,0.0
5413,33.0,0,120,4.0,0.0
5414,61.0,0,120,0.0,0.0
5415,52.0,60,120,2.0,0.0
5416,45.0,0,120,3.0,0.0
5417,76.0,60,60,13.0,0.0
5418,79.0,0,60,13.0,0.0
5419,38.0,0,60,4.0,0.0
5420,77.0,0,60,13.0,0.0
5421,50.0,0,60,3.0,0.0
5422,57.0,0,60,1.0,0.0
5423,53.0,30,60,2.0,0.0
5424,62.0,0,120,1.0,0.0
5425,62.0,0,15,0.0,0.0
5426,38.0,30,120,4.0,0.0
5427,50.0,0,120,3.0,0.0
5428,50.0,0,120,2.0,0.0
5429,74.0,30,30,13.0,0.0
5430,73.0,30,30,13.0,0.0
5431,74.0,30,30,13.0,0.0
5432,76.0,0,30,13.0,0.0
5433,78.0,30,30,13.0,0.0
5434,79.0,30,30,13.0,0.0
5435,81.0,30,30,13.0,0.0
5436,82.0,30,30,13.0,0.0
5437,84.0,30,30,13.0,0.0
5438,81.0,30,30,13.0,0.0
5439,82.0,30,30,13.0,0.0
5440,50.0,0,60,8.0,0.0
5441,84.0,30,30,13.0,0.0
5442,86.0,30,30,13.0,0.0
5443,43.0,30,120,3.0,0.0
5444,62.0,0,60,8.0,0.0
5445,31.0,0,120,4.0,0.0
5446,85.0,30,30,13.0,0.0
5447,86.0,30,30,13.0,0.0
5448,58.0,0,60,8.0,0.0
5449,62.0,0,60,0.0,0.0
5450,82.0,0,30,13.0,0.0
5451,79.0,30,30,13.0,0.0
5452,55.0,0,15,2.0,0.0
5453,62.0,0,60,0.0,0.0
5454,58.0,0,15,1.0,0.0
5455,55.0,30,60,8.0,0.0
5456,82.0,0,30,13.0,0.0
5457,81.0,30,30,13.0,0.0
5458,43.0,0,120,3.0,0.0
5459,31.0,0,120,4.0,0.0
5460,57.0,30,60,8.0,0.0
5461,80.0,0,30,13.0,0.0
5462,81.0,30,30,13.0,0.0
5463,50.0,0,60,2.0,0.0
5464,62.0,0,60,0.0,0.0
5465,54.0,30,60,8.0,0.0
5466,78.0,0,30,13.0,0.0
5467,50.0,0,60,8.0,0.0
5468,74.0,30,30,13.0,0.0
5469,60.0,0,15,1.0,0.0
5470,62.0,0,60,0.0,0.0
5471,50.0,30,60,2.0,0.0
5472,78.0,0,30,13.0,0.0
5473,79.0,30,30,13.0,0.0
5474,55.0,60,240,8.0,0.0
5475,31.0,0,120,4.0,0.0
5476,43.0,0,120,3.0,0.0
5477,74.0,30,30,13.0,0.0
5478,70.0,30,30,13.0,0.0
5479,58.0,0,60,1.0,0.0
5480,67.0,0,30,13.0,0.0
5481,55.0,0,15,2.0,0.0
5482,62.0,30,15,0.0,0.0
5483,62.0,30,30,13.0,0.0
5484,58.0,60,60,1.0,0.0
5485,58.0,0,30,13.0,0.0
5486,43.0,0,120,3.0,0.0
5487,55.0,0,120,13.0,0.0
5488,31.0,0,120,4.0,0.0
5489,57.0,0,60,8.0,0.0
5490,55.0,0,60,2.0,0.0
5491,58.0,60,60,1.0,0.0
5492,62.0,0,15,0.0,0.0
5493,55.0,0,60,2.0,0.0
5494,58.0,0,60,1.0,0.0
5495,58.0,0,60,8.0,0.0
5496,31.0,0,120,4.0,0.0
5497,43.0,0,120,3.0,0.0
5498,60.0,30,60,8.0,0.0
5499,79.0,30,30,13.0,0.0
5500,75.0,0,30,13.0,0.0
5501,72.0,30,30,13.0,0.0
5502,62.0,0,60,8.0,0.0
5503,60.0,0,60,1.0,0.0
5504,67.0,0,30,13.0,0.0
5505,63.0,30,30,13.0,0.0
5506,63.0,0,15,0.0,0.0
5507,55.0,30,15,2.0,0.0
5508,60.0,0,60,1.0,0.0
5509,63.0,0,60,8.0,0.0
5510,60.0,60,30,13.0,0.0
5511,55.0,0,120,13.0,0.0
5512,65.0,60,60,8.0,0.0
5513,43.0,0,120,3.0,0.0
5514,31.0,0,120,4.0,0.0
5515,55.0,0,60,2.0,0.0
5516,67.0,0,60,8.0,0.0
5517,60.0,60,15,1.0,0.0
5518,63.0,0,60,8.0,0.0
5519,55.0,0,60,2.0,0.0
5520,63.0,0,15,0.0,0.0
5521,62.0,0,180,8.0,0.0
5522,31.0,0,120,4.0,0.0
5523,43.0,0,120,3.0,0.0
5524,79.0,30,30,13.0,0.0
5525,74.0,20,30,13.0,0.0
5526,70.0,30,20,13.0,0.0
5527,58.0,20,60,1.0,0.0
5528,62.0,0,60,0.0,0.0
5529,67.0,10,20,13.0,0.0
5530,62.0,30,20,13.0,0.0
5531,55.0,0,15,2.0,0.0
5532,62.0,0,60,0.0,0.0
5533,58.0,30,60,1.0,0.0
5534,58.0,10,20,13.0,0.0
5535,43.0,0,120,3.0,0.0
5536,62.0,30,30,13.0,0.0
5537,31.0,20,120,4.0,0.0
5538,58.0,0,60,8.0,0.0
5539,67.0,20,30,13.0,0.0
5540,58.0,0,60,1.0,0.0
5541,62.0,0,60,0.0,0.0
5542,62.0,0,60,8.0,0.0
5543,70.0,30,20,13.0,0.0
5544,74.0,10,20,13.0,0.0
5545,58.0,0,60,1.0,0.0
5546,55.0,0,15,2.0,0.0
5547,62.0,0,60,0.0,0.0
5548,79.0,30,20,13.0,0.0
5549,82.0,10,20,13.0,0.0
5550,62.0,0,15,8.0,0.0
5551,31.0,0,120,4.0,0.0
5552,43.0,30,120,3.0,0.0
5553,86.0,30,30,13.0,0.0
5554,85.0,30,30,13.0,0.0
5555,58.0,0,60,8.0,0.0
5556,58.0,0,60,1.0,0.0
5557,86.0,30,30,13.0,0.0
5558,82.0,0,30,13.0,0.0
5559,79.0,30,30,13.0,0.0
5560,55.0,0,60,8.0,0.0
5561,55.0,0,15,2.0,0.0
5562,62.0,0,15,0.0,0.0
5563,58.0,0,60,1.0,0.0
5564,82.0,30,30,13.0,0.0
5565,57.0,0,60,8.0,0.0
5566,31.0,0,120,4.0,0.0
5567,81.0,30,30,13.0,0.0
5568,43.0,0,120,3.0,0.0
5569,80.0,30,30,13.0,0.0
5570,81.0,30,30,13.0,0.0
5571,54.0,0,60,8.0,0.0
5572,60.0,0,60,1.0,0.0
5573,50.0,0,60,2.0,0.0
5574,78.0,30,30,13.0,0.0
5575,50.0,0,60,2.0,0.0
5576,62.0,0,15,0.0,0.0
5577,74.0,30,30,13.0,0.0
5578,60.0,0,60,1.0,0.0
5579,50.0,0,60,8.0,0.0
5580,78.0,0,30,13.0,0.0
5581,55.0,0,240,8.0,0.0
5582,79.0,30,30,13.0,0.0
5583,43.0,0,120,3.0,0.0
5584,31.0,0,120,4.0,0.0
5585,74.0,30,30,13.0,0.0
5586,55.0,0,60,2.0,0.0
5587,70.0,30,30,13.0,0.0
5588,67.0,0,30,13.0,0.0
5589,58.0,0,15,1.0,0.0
5590,62.0,30,30,13.0,0.0
5591,55.0,0,60,2.0,0.0
5592,62.0,30,15,0.0,0.0
5593,58.0,0,30,13.0,0.0
5594,55.0,30,30,13.0,0.0
5595,43.0,30,120,3.0,0.0
5596,31.0,0,120,4.0,0.0
5597,62.0,30,30,13.0,0.0
5598,62.0,0,60,0.0,0.0
5599,61.0,30,30,13.0,0.0
5600,57.0,0,60,8.0,0.0
5601,62.0,0,30,13.0,0.0
5602,58.0,30,30,13.0,0.0
5603,58.0,0,60,8.0,0.0
5604,55.0,0,15,2.0,0.0
5605,58.0,0,15,1.0,0.0
5606,62.0,0,60,0.0,0.0
5607,55.0,0,30,13.0,0.0
5608,41.0,0,120,3.0,0.0
5609,57.0,30,60,8.0,0.0
5610,57.0,30,30,13.0,0.0
5611,29.0,0,120,4.0,0.0
5612,69.0,0,30,13.0,0.0
5613,57.0,0,60,1.0,0.0
5614,56.0,30,60,8.0,0.0
5615,53.0,0,60,2.0,0.0
5616,74.0,30,30,13.0,0.0
5617,77.0,0,30,13.0,0.0
5618,62.0,0,15,0.0,0.0
5619,80.0,30,30,13.0,0.0
5620,57.0,0,60,1.0,0.0
5621,53.0,0,60,2.0,0.0
5622,57.0,30,60,8.0,0.0
5623,81.0,0,30,13.0,0.0
5624,52.0,30,60,8.0,0.0
5625,80.0,30,30,13.0,0.0
5626,33.0,0,120,4.0,0.0
5627,45.0,0,120,3.0,0.0
5628,81.0,0,30,13.0,0.0
5629,80.0,30,30,13.0,0.0
5630,61.0,0,60,0.0,0.0
5631,52.0,0,60,2.0,0.0
5632,55.0,0,60,8.0,0.0
5633,81.0,30,30,13.0,0.0
5634,57.0,0,15,1.0,0.0
5635,50.0,0,60,3.0,0.0
5636,54.0,0,60,8.0,0.0
5637,53.0,0,60,2.0,0.0
5638,38.0,0,60,4.0,0.0
5639,80.0,30,30,13.0,0.0
5640,81.0,0,30,13.0,0.0
5641,38.0,0,120,4.0,0.0
5642,62.0,0,15,0.0,0.0
5643,74.0,0,120,13.0,0.0
5644,50.0,0,120,8.0,0.0
5645,50.0,60,120,3.0,0.0
5646,50.0,0,120,2.0,0.0
5647,62.0,0,120,1.0,0.0
5648,62.0,0,60,0.0,0.0
5649,62.0,60,60,0.0,0.0
5650,62.0,60,15,0.0,0.0
5651,62.0,60,15,0.0,0.0
5652,77.0,100,60,13.0,0.0
5653,62.0,0,15,0.0,0.0
5654,86.0,20,90,13.0,0.0
5655,58.0,0,360,1.0,0.0
5656,34.0,0,360,4.0,0.0
5657,46.0,0,360,3.0,0.0
5658,87.0,20,20,13.0,0.0
5659,86.0,20,20,13.0,0.0
5660,85.0,20,20,13.0,0.0
5661,86.0,60,20,13.0,0.0
5662,89.0,60,60,13.0,0.0
5663,87.0,45,60,13.0,0.0
5664,86.0,15,40,13.0,0.0
5665,53.0,180,15,2.0,0.0
5666,29.0,0,360,4.0,0.0
5667,84.0,0,300,13.0,0.0
5668,57.0,120,180,1.0,0.0
5669,41.0,0,360,3.0,0.0
5670,60.0,0,300,0.0,0.0
5671,56.0,60,120,1.0,0.0
5672,56.0,0,60,2.0,0.0
5673,53.0,100,60,2.0,0.0
5674,86.0,0,60,13.0,0.0
5675,62.0,0,60,0.0,0.0
5676,59.0,0,60,1.0,0.0
5677,36.0,0,360,4.0,0.0
5678,48.0,300,360,3.0,0.0
5679,87.0,20,90,13.0,0.0
5680,60.0,0,360,1.0,0.0
5681,63.0,0,360,0.0,0.0
5682,87.0,20,20,13.0,0.0
5683,89.0,20,20,13.0,0.0
5684,87.0,20,20,13.0,0.0
5685,86.0,60,20,13.0,0.0
5686,91.0,60,60,13.0,0.0
5687,89.0,45,60,13.0,0.0
5688,87.0,15,40,13.0,0.0
5689,55.0,0,15,2.0,0.0
5690,43.0,0,360,3.0,0.0
5691,86.0,60,300,13.0,0.0
5692,74.0,0,60,13.0,0.0
5693,86.0,60,60,13.0,0.0
5694,58.0,0,15,1.0,0.0
5695,31.0,60,15,4.0,0.0
5696,62.0,0,15,0.0,0.0
5697,55.0,60,540,2.0,0.0
5698,82.0,60,60,13.0,0.0
5699,79.0,0,60,13.0,0.0
5700,81.0,60,60,13.0,0.0
5701,60.0,0,180,1.0,0.0
5702,78.0,60,60,13.0,0.0
5703,74.0,0,60,13.0,0.0
5704,79.0,60,60,13.0,0.0
5705,31.0,0,15,4.0,0.0
5706,58.0,0,180,1.0,0.0
5707,43.0,0,15,3.0,0.0
5708,62.0,0,180,0.0,0.0
5709,81.0,60,60,13.0,0.0
5710,82.0,0,60,13.0,0.0
5711,51.0,0,120,3.0,0.0
5712,39.0,0,120,4.0,0.0
5713,60.0,60,120,0.0,0.0
5714,84.0,60,60,13.0,0.0
5715,55.0,0,120,2.0,0.0
5716,86.0,0,60,13.0,0.0
5717,63.0,0,60,0.0,0.0
5718,67.0,0,15,1.0,0.0
5719,36.0,0,60,4.0,0.0
5720,55.0,0,60,2.0,0.0
5721,48.0,0,60,3.0,0.0
5722,87.0,0,60,13.0,0.0
5723,38.0,0,300,4.0,0.0
5724,58.0,0,180,2.0,0.0
5725,67.0,60,15,1.0,0.0
5726,86.0,60,60,13.0,0.0
5727,50.0,0,300,3.0,0.0
5728,62.0,0,300,0.0,0.0
5729,85.0,60,60,13.0,0.0
5730,86.0,60,60,13.0,0.0
5731,57.0,0,120,2.0,0.0
5732,66.0,60,120,1.0,0.0
5733,81.0,60,60,13.0,0.0
5734,84.0,0,60,13.0,0.0
5735,67.0,0,60,1.0,0.0
5736,43.0,0,60,3.0,0.0
5737,62.0,0,60,0.0,0.0
5738,82.0,0,60,13.0,0.0
5739,58.0,120,60,2.0,0.0
5740,31.0,0,60,4.0,0.0
5741,58.0,0,180,0.0,0.0
5742,79.0,60,120,13.0,0.0
5743,55.0,0,180,1.0,0.0
5744,31.0,0,180,4.0,0.0
5745,43.0,0,180,3.0,0.0
5746,55.0,180,180,2.0,0.0
5747,41.0,0,180,3.0,0.0
5748,57.0,0,180,1.0,0.0
5749,60.0,30,180,0.0,0.0
5750,29.0,0,180,4.0,0.0
5751,53.0,0,180,2.0,0.0
5752,60.0,0,60,8.0,0.0
5753,62.0,0,180,8.0,0.0
5754,34.0,0,120,4.0,0.0
5755,46.0,0,360,3.0,0.0
5756,62.0,0,60,0.0,0.0
5757,74.0,30,30,13.0,0.0
5758,70.0,0,30,13.0,0.0
5759,58.0,30,15,1.0,0.0
5760,53.0,0,15,2.0,0.0
5761,65.0,30,30,13.0,0.0
5762,70.0,0,30,13.0,0.0
5763,53.0,0,60,2.0,0.0
5764,62.0,30,15,0.0,0.0
5765,74.0,30,30,13.0,0.0
5766,58.0,0,15,1.0,0.0
5767,70.0,0,30,13.0,0.0
5768,77.0,30,30,13.0,0.0
5769,34.0,0,120,4.0,0.0
5770,65.0,30,60,8.0,0.0
5771,74.0,0,30,13.0,0.0
5772,75.0,30,30,13.0,0.0
5773,53.0,0,60,2.0,0.0
5774,63.0,0,60,8.0,0.0
5775,58.0,0,60,1.0,0.0
5776,72.0,0,30,13.0,0.0
5777,58.0,0,60,1.0,0.0
5778,53.0,30,60,2.0,0.0
5779,62.0,30,15,0.0,0.0
5780,74.0,30,30,13.0,0.0
5781,62.0,0,30,8.0,0.0
5782,70.0,0,30,13.0,0.0
5783,72.0,30,30,13.0,0.0
5784,41.0,0,360,3.0,0.0
5785,60.0,0,300,8.0,0.0
5786,29.0,0,120,4.0,0.0
5787,69.0,30,30,13.0,0.0
5788,60.0,0,60,0.0,0.0
5789,53.0,30,60,2.0,0.0
5790,65.0,30,30,13.0,0.0
5791,69.0,0,30,13.0,0.0
5792,72.0,30,30,13.0,0.0
5793,57.0,0,15,1.0,0.0
5794,60.0,0,60,0.0,0.0
5795,57.0,0,60,2.0,0.0
5796,69.0,0,30,13.0,0.0
5797,56.0,0,60,2.0,0.0
5798,53.0,0,60,2.0,0.0
5799,56.0,0,60,1.0,0.0
5800,65.0,30,30,13.0,0.0
5801,68.0,0,30,13.0,0.0
5802,53.0,0,60,2.0,0.0
5803,56.0,0,60,2.0,0.0
5804,56.0,0,60,1.0,0.0
5805,60.0,30,15,0.0,0.0
5806,72.0,30,30,13.0,0.0
5807,68.0,0,30,13.0,0.0
5808,29.0,0,60,4.0,0.0
5809,59.0,0,60,1.0,0.0
5810,62.0,30,60,0.0,0.0
5811,53.0,0,60,2.0,0.0
5812,56.0,0,60,2.0,0.0
5813,74.0,30,30,13.0,0.0
5814,62.0,0,60,8.0,0.0
5815,71.0,0,30,13.0,0.0
5816,36.0,0,120,4.0,0.0
5817,75.0,30,30,13.0,0.0
5818,48.0,0,360,3.0,0.0
5819,63.0,0,180,8.0,0.0
5820,72.0,30,30,13.0,0.0
5821,60.0,30,60,1.0,0.0
5822,67.0,30,30,13.0,0.0
5823,63.0,0,60,0.0,0.0
5824,72.0,0,30,13.0,0.0
5825,55.0,0,15,2.0,0.0
5826,75.0,30,30,13.0,0.0
5827,63.0,0,60,0.0,0.0
5828,60.0,0,60,1.0,0.0
5829,72.0,0,30,13.0,0.0
5830,79.0,30,30,13.0,0.0
5831,67.0,0,60,8.0,0.0
5832,36.0,0,120,4.0,0.0
5833,75.0,30,30,13.0,0.0
5834,63.0,0,60,0.0,0.0
5835,55.0,0,60,2.0,0.0
5836,77.0,30,30,13.0,0.0
5837,65.0,0,60,8.0,0.0
5838,74.0,30,30,13.0,0.0
5839,63.0,30,30,8.0,0.0
5840,60.0,0,15,1.0,0.0
5841,63.0,0,60,0.0,0.0
5842,75.0,0,30,13.0,0.0
5843,55.0,0,60,2.0,0.0
5844,72.0,30,30,13.0,0.0
5845,43.0,0,360,3.0,0.0
5846,62.0,0,300,8.0,0.0
5847,31.0,0,120,4.0,0.0
5848,74.0,30,30,13.0,0.0
5849,67.0,30,30,13.0,0.0
5850,55.0,0,60,2.0,0.0
5851,58.0,0,60,1.0,0.0
5852,69.0,30,30,13.0,0.0
5853,70.0,30,30,13.0,0.0
5854,62.0,0,15,0.0,0.0
5855,72.0,30,30,13.0,0.0
5856,74.0,30,30,13.0,0.0
5857,58.0,0,15,1.0,0.0
5858,55.0,0,15,2.0,0.0
5859,76.0,30,30,13.0,0.0
5860,78.0,0,30,13.0,0.0
5861,62.0,0,15,0.0,0.0
5862,55.0,0,15,2.0,0.0
5863,79.0,30,30,13.0,0.0
5864,58.0,30,15,1.0,0.0
5865,81.0,0,30,13.0,0.0
5866,82.0,30,30,13.0,0.0
5867,50.0,0,60,8.0,0.0
5868,62.0,30,15,0.0,0.0
5869,31.0,0,60,4.0,0.0
5870,58.0,0,60,1.0,0.0
5871,55.0,0,15,2.0,0.0
5872,84.0,0,30,13.0,0.0
5873,31.0,0,120,4.0,0.0
5874,86.0,30,30,13.0,0.0
5875,62.0,30,60,8.0,0.0
5876,43.0,0,120,3.0,0.0
5877,85.0,0,30,13.0,0.0
5878,86.0,30,30,13.0,0.0
5879,55.0,0,60,2.0,0.0
5880,58.0,0,60,1.0,0.0
5881,58.0,0,60,8.0,0.0
5882,82.0,30,30,13.0,0.0
5883,58.0,0,60,1.0,0.0
5884,55.0,0,60,2.0,0.0
5885,62.0,0,15,0.0,0.0
5886,79.0,30,30,13.0,0.0
5887,55.0,30,60,8.0,0.0
5888,82.0,0,30,13.0,0.0
5889,57.0,0,60,8.0,0.0
5890,81.0,30,30,13.0,0.0
5891,43.0,30,120,3.0,0.0
5892,31.0,0,120,4.0,0.0
5893,80.0,30,30,13.0,0.0
5894,62.0,0,60,0.0,0.0
5895,54.0,0,60,8.0,0.0
5896,81.0,30,30,13.0,0.0
5897,60.0,0,60,1.0,0.0
5898,78.0,0,30,13.0,0.0
5899,50.0,0,15,2.0,0.0
5900,60.0,0,60,1.0,0.0
5901,62.0,0,60,0.0,0.0
5902,74.0,30,30,13.0,0.0
5903,50.0,0,60,8.0,0.0
5904,78.0,60,30,13.0,0.0
5905,79.0,0,60,13.0,0.0
5906,55.0,30,60,8.0,0.0
5907,31.0,0,120,4.0,0.0
5908,43.0,30,120,3.0,0.0
5909,62.0,0,60,0.0,0.0
5910,82.0,30,30,13.0,0.0
5911,58.0,0,60,1.0,0.0
5912,57.0,0,60,8.0,0.0
5913,81.0,0,30,13.0,0.0
5914,67.0,30,60,0.0,0.0
5915,55.0,0,15,2.0,0.0
5916,58.0,0,60,1.0,0.0
5917,84.0,30,30,13.0,0.0
5918,58.0,0,60,8.0,0.0
5919,82.0,0,30,13.0,0.0
5920,86.0,30,30,13.0,0.0
5921,39.0,0,120,4.0,0.0
5922,51.0,0,120,3.0,0.0
5923,60.0,30,60,8.0,0.0
5924,84.0,0,30,13.0,0.0
5925,87.0,30,30,13.0,0.0
5926,62.0,30,60,8.0,0.0
5927,55.0,0,60,2.0,0.0
5928,60.0,0,60,1.0,0.0
5929,86.0,0,30,13.0,0.0
5930,63.0,30,60,1.0,0.0
5931,67.0,0,15,0.0,0.0
5932,63.0,0,60,8.0,0.0
5933,55.0,0,60,2.0,0.0
5934,36.0,0,60,4.0,0.0
5935,48.0,0,60,3.0,0.0
5936,89.0,30,30,13.0,0.0
5937,87.0,0,30,13.0,0.0
5938,62.0,30,60,8.0,0.0
5939,86.0,30,30,13.0,0.0
5940,38.0,0,120,4.0,0.0
5941,50.0,30,120,3.0,0.0
5942,74.0,0,30,13.0,0.0
5943,55.0,0,60,2.0,0.0
5944,85.0,30,30,13.0,0.0
5945,61.0,0,60,8.0,0.0
5946,74.0,0,30,13.0,0.0
5947,67.0,0,15,0.0,0.0
5948,62.0,0,60,8.0,0.0
5949,58.0,0,15,1.0,0.0
5950,86.0,30,30,13.0,0.0
5951,55.0,30,60,2.0,0.0
5952,74.0,0,30,13.0,0.0
5953,84.0,30,30,13.0,0.0
5954,38.0,0,120,4.0,0.0
5955,50.0,0,120,3.0,0.0
5956,60.0,0,60,8.0,0.0
5957,74.0,30,30,13.0,0.0
5958,81.0,30,30,13.0,0.0
5959,57.0,0,60,8.0,0.0
5960,60.0,0,60,1.0,0.0
5961,57.0,30,60,2.0,0.0
5962,74.0,0,30,13.0,0.0
5963,82.0,30,30,13.0,0.0
5964,55.0,0,60,2.0,0.0
5965,66.0,0,15,0.0,0.0
5966,43.0,0,60,3.0,0.0
5967,58.0,0,60,8.0,0.0
5968,58.0,0,60,1.0,0.0
5969,74.0,0,30,13.0,0.0
5970,67.0,0,1440,0.0,0.0
5971,55.0,0,360,2.0,0.0
5972,55.0,0,120,8.0,0.0
5973,43.0,0,360,3.0,0.0
5974,31.0,0,15,4.0,0.0
5975,58.0,180,360,1.0,0.0
5976,79.0,60,15,13.0,0.0
5977,78.0,30,30,13.0,0.0
5978,79.0,30,30,13.0,0.0
5979,78.0,30,30,13.0,0.0
5980,79.0,30,30,13.0,0.0
5981,81.0,30,30,13.0,0.0
5982,79.0,0,30,13.0,0.0
5983,45.0,0,360,3.0,0.0
5984,61.0,180,360,1.0,0.0
5985,57.0,0,360,2.0,0.0
5986,33.0,0,360,4.0,0.0
5987,79.0,30,60,13.0,0.0
5988,78.0,30,30,13.0,0.0
5989,79.0,30,30,13.0,0.0
5990,78.0,30,30,13.0,0.0
5991,79.0,30,30,13.0,0.0
5992,81.0,30,30,13.0,0.0
5993,79.0,0,30,13.0,0.0
5994,58.0,0,360,2.0,0.0
5995,46.0,0,360,3.0,0.0
5996,34.0,0,360,4.0,0.0
5997,62.0,0,360,1.0,0.0
5998,79.0,30,60,13.0,0.0
5999,78.0,30,30,13.0,0.0
6000,79.0,30,30,13.0,0.0
6001,78.0,30,30,13.0,0.0
6002,79.0,30,30,13.0,0.0
6003,81.0,30,30,13.0,0.0
6004,79.0,180,30,13.0,0.0
6005,49.0,0,360,3.0,0.0
6006,37.0,0,360,4.0,0.0
6007,57.0,0,360,2.0,0.0
6008,64.0,0,360,1.0,0.0
6009,57.0,0,2160,10.0,0.0
6010,79.0,30,60,13.0,0.0
6011,78.0,30,30,13.0,0.0
6012,76.0,30,180,6.0,0.0
6013,79.0,0,180,6.0,0.0
6014,79.0,30,30,13.0,0.0
6015,78.0,30,30,13.0,0.0
6016,79.0,30,30,13.0,0.0
6017,81.0,30,30,13.0,0.0
6018,79.0,0,30,13.0,0.0
6019,62.0,30,180,1.0,0.0
6020,57.0,0,360,2.0,0.0
6021,38.0,60,360,4.0,0.0
6022,50.0,0,360,3.0,0.0
6023,77.0,30,30,13.0,0.0
6024,65.0,0,180,0.0,0.0
6025,74.0,0,180,6.0,0.0
6026,76.0,30,30,13.0,0.0
6027,74.0,30,30,13.0,0.0
6028,73.0,30,30,13.0,0.0
6029,74.0,30,30,13.0,0.0
6030,76.0,0,30,13.0,0.0
6031,77.0,0,15,6.0,0.0
6032,81.0,0,60,6.0,0.0
6033,77.0,30,30,13.0,0.0
6034,65.0,30,60,1.0,0.0
6035,69.0,0,60,0.0,0.0
6036,79.0,0,30,13.0,0.0
6037,82.0,30,30,13.0,0.0
6038,67.0,0,60,0.0,0.0
6039,79.0,0,60,6.0,0.0
6040,76.0,30,60,6.0,0.0
6041,64.0,0,60,1.0,0.0
6042,81.0,0,30,13.0,0.0
6043,79.0,30,30,13.0,0.0
6044,65.0,0,30,0.0,0.0
6045,74.0,0,30,6.0,0.0
6046,77.0,0,30,6.0,0.0
6047,62.0,0,30,1.0,0.0
6048,77.0,0,30,13.0,0.0
6049,45.0,30,360,3.0,0.0
6050,64.0,0,180,0.0,0.0
6051,57.0,0,1440,2.0,0.0
6052,76.0,30,60,13.0,0.0
6053,61.0,0,180,1.0,0.0
6054,33.0,0,360,4.0,0.0
6055,76.0,0,180,6.0,0.0
6056,69.0,30,30,13.0,0.0
6057,68.0,30,30,13.0,0.0
6058,69.0,30,30,13.0,0.0
6059,71.0,30,30,13.0,0.0
6060,61.0,0,60,0.0,0.0
6061,73.0,0,15,6.0,0.0
6062,57.0,30,60,1.0,0.0
6063,73.0,30,30,13.0,0.0
6064,69.0,0,60,6.0,0.0
6065,69.0,0,30,13.0,0.0
6066,71.0,30,60,6.0,0.0
6067,74.0,30,30,13.0,0.0
6068,74.0,0,60,6.0,0.0
6069,62.0,0,60,0.0,0.0
6070,59.0,0,60,1.0,0.0
6071,69.0,0,30,13.0,0.0
6072,76.0,30,30,13.0,0.0
6073,61.0,0,60,1.0,0.0
6074,73.0,0,60,6.0,0.0
6075,76.0,0,60,6.0,0.0
6076,64.0,0,60,0.0,0.0
6077,69.0,0,30,13.0,0.0
6078,38.0,0,360,4.0,0.0
6079,77.0,30,30,13.0,0.0
6080,65.0,0,60,0.0,0.0
6081,74.0,0,60,6.0,0.0
6082,62.0,0,60,1.0,0.0
6083,50.0,0,360,3.0,0.0
6084,77.0,30,60,6.0,0.0
6085,76.0,0,30,13.0,0.0
6086,74.0,30,30,13.0,0.0
6087,61.0,0,60,1.0,0.0
6088,64.0,30,60,0.0,0.0
6089,76.0,0,60,6.0,0.0
6090,73.0,0,60,6.0,0.0
6091,73.0,0,30,13.0,0.0
6092,65.0,0,60,0.0,0.0
6093,62.0,0,60,1.0,0.0
6094,74.0,30,30,13.0,0.0
6095,77.0,0,60,6.0,0.0
6096,74.0,0,60,6.0,0.0
6097,76.0,30,30,13.0,0.0
6098,65.0,0,60,1.0,0.0
6099,69.0,30,60,0.0,0.0
6100,81.0,0,60,6.0,0.0
6101,77.0,0,60,6.0,0.0
6102,77.0,30,30,13.0,0.0
6103,79.0,0,30,13.0,0.0
6104,79.0,30,60,6.0,0.0
6105,64.0,0,60,1.0,0.0
6106,82.0,30,30,13.0,0.0
6107,76.0,0,60,6.0,0.0
6108,67.0,0,60,0.0,0.0
6109,81.0,0,30,13.0,0.0
6110,65.0,0,60,0.0,0.0
6111,62.0,0,60,1.0,0.0
6112,77.0,30,60,6.0,0.0
6113,74.0,0,60,6.0,0.0
6114,79.0,30,30,13.0,0.0
6115,77.0,0,30,13.0,0.0
6116,61.0,0,180,1.0,0.0
6117,33.0,0,720,4.0,0.0
6118,64.0,0,180,0.0,0.0
6119,73.0,0,180,6.0,0.0
6120,76.0,0,180,6.0,0.0
6121,76.0,30,30,13.0,0.0
6122,81.0,30,30,13.0,0.0
6123,80.0,30,30,13.0,0.0
6124,81.0,30,30,13.0,0.0
6125,79.0,30,30,13.0,0.0
6126,81.0,30,30,13.0,0.0
6127,77.0,0,180,6.0,0.0
6128,74.0,0,180,6.0,0.0
6129,62.0,0,180,1.0,0.0
6130,65.0,0,180,0.0,0.0
6131,77.0,30,30,13.0,0.0
6132,81.0,30,30,13.0,0.0
6133,86.0,30,30,13.0,0.0
6134,81.0,30,30,13.0,0.0
6135,77.0,30,30,13.0,0.0
6136,74.0,30,30,13.0,0.0
6137,73.0,0,180,6.0,0.0
6138,76.0,0,180,6.0,0.0
6139,61.0,0,180,1.0,0.0
6140,57.0,0,1080,8.0,0.0
6141,45.0,0,1080,8.0,0.0
6142,76.0,30,30,13.0,0.0
6143,64.0,30,180,0.0,0.0
6144,81.0,30,30,13.0,0.0
6145,80.0,30,30,13.0,0.0
6146,81.0,30,30,13.0,0.0
6147,79.0,30,30,13.0,0.0
6148,81.0,0,30,13.0,0.0
6149,77.0,30,30,13.0,0.0
6150,77.0,0,180,6.0,0.0
6151,74.0,0,180,6.0,0.0
6152,62.0,0,180,1.0,0.0
6153,65.0,0,180,0.0,0.0
6154,81.0,30,30,13.0,0.0
6155,86.0,30,30,13.0,0.0
6156,81.0,30,30,13.0,0.0
6157,77.0,30,30,13.0,0.0
6158,74.0,0,30,13.0,0.0
6159,76.0,0,120,13.0,0.0
6160,33.0,30,120,4.0,0.0
6161,57.0,0,120,0.0,0.0
6162,76.0,30,360,6.0,0.0
6163,73.0,120,720,6.0,0.0
6164,45.0,0,15,3.0,0.0
6165,45.0,120,15,10.0,0.0
6166,57.0,0,120,1.0,0.0
6167,57.0,0,120,10.0,0.0
6168,57.0,0,120,2.0,0.0
6169,37.0,0,30,4.0,0.0
6170,61.0,0,30,0.0,0.0
6171,61.0,0,30,1.0,0.0
6172,61.0,90,30,2.0,0.0
6173,49.0,0,30,3.0,0.0
6174,64.0,0,60,1.0,0.0
6175,52.0,60,60,3.0,0.0
6176,40.0,0,60,4.0,0.0
6177,64.0,0,60,0.0,0.0
6178,64.0,0,60,2.0,0.0
6179,45.0,0,60,4.0,0.0
6180,69.0,0,60,0.0,0.0
6181,69.0,60,60,2.0,0.0
6182,69.0,0,60,1.0,0.0
6183,57.0,0,60,3.0,0.0
6184,57.0,30,30,13.0,0.0
6185,81.0,0,720,6.0,0.0
6186,69.0,30,30,13.0,0.0
6187,68.0,30,30,13.0,0.0
6188,69.0,30,30,13.0,0.0
6189,57.0,30,30,13.0,0.0
6190,73.0,30,30,13.0,0.0
6191,64.0,30,30,13.0,0.0
6192,76.0,30,30,13.0,0.0
6193,69.0,30,30,13.0,0.0
6194,81.0,60,30,13.0,0.0
6195,34.0,0,120,4.0,0.0
6196,58.0,0,120,2.0,0.0
6197,58.0,30,360,8.0,0.0
6198,58.0,0,120,0.0,0.0
6199,74.0,120,720,6.0,0.0
6200,46.0,0,360,8.0,0.0
6201,58.0,30,120,1.0,0.0
6202,46.0,0,120,3.0,0.0
6203,62.0,0,30,0.0,0.0
6204,38.0,0,30,4.0,0.0
6205,50.0,0,30,3.0,0.0
6206,62.0,90,30,2.0,0.0
6207,62.0,0,30,1.0,0.0
6208,43.0,60,60,4.0,0.0
6209,67.0,0,60,2.0,0.0
6210,67.0,0,60,1.0,0.0
6211,55.0,0,60,3.0,0.0
6212,67.0,0,60,0.0,0.0
6213,70.0,0,60,0.0,0.0
6214,70.0,60,60,2.0,0.0
6215,70.0,0,60,1.0,0.0
6216,46.0,0,60,4.0,0.0
6217,58.0,0,60,3.0,0.0
6218,47.0,0,360,8.0,0.0
6219,59.0,30,30,13.0,0.0
6220,59.0,0,360,8.0,0.0
6221,79.0,0,840,6.0,0.0
6222,71.0,30,30,13.0,0.0
6223,70.0,30,30,13.0,0.0
6224,71.0,30,30,13.0,0.0
6225,62.0,30,30,13.0,0.0
6226,74.0,30,30,13.0,0.0
6227,67.0,30,30,13.0,0.0
6228,79.0,30,30,13.0,0.0
6229,71.0,30,30,13.0,0.0
6230,83.0,60,30,13.0,0.0
6231,60.0,30,120,1.0,0.0
6232,48.0,0,360,8.0,0.0
6233,60.0,0,360,8.0,0.0
6234,76.0,0,480,6.0,0.0
6235,60.0,0,120,0.0,0.0
6236,48.0,0,120,3.0,0.0
6237,48.0,0,120,2.0,0.0
6238,36.0,0,120,4.0,0.0
6239,40.0,0,30,4.0,0.0
6240,52.0,0,30,3.0,0.0
6241,52.0,0,30,2.0,0.0
6242,64.0,90,30,0.0,0.0
6243,64.0,0,30,1.0,0.0
6244,43.0,0,60,4.0,0.0
6245,67.0,0,60,1.0,0.0
6246,55.0,0,60,3.0,0.0
6247,67.0,60,60,0.0,0.0
6248,55.0,0,60,2.0,0.0
6249,72.0,0,60,0.0,0.0
6250,60.0,0,60,3.0,0.0
6251,72.0,30,60,1.0,0.0
6252,48.0,0,60,4.0,0.0
6253,60.0,0,60,2.0,0.0
6254,61.0,0,30,0.0,0.0
6255,61.0,30,30,1.0,0.0
6256,57.0,30,30,13.0,0.0
6257,37.0,0,120,4.0,0.0
6258,61.0,0,120,0.0,0.0
6259,61.0,30,120,8.0,0.0
6260,49.0,0,120,8.0,0.0
6261,49.0,0,120,3.0,0.0
6262,57.0,0,120,10.0,0.0
6263,64.0,30,15,10.0,0.0
6264,49.0,0,120,2.0,0.0
6265,61.0,0,120,1.0,0.0
6266,69.0,30,30,13.0,0.0
6267,68.0,30,30,13.0,0.0
6268,69.0,0,30,13.0,0.0
6269,61.0,30,30,13.0,0.0
6270,73.0,30,30,13.0,0.0
6271,64.0,30,30,13.0,0.0
6272,76.0,30,30,13.0,0.0
6273,67.0,30,30,13.0,0.0
6274,79.0,30,30,13.0,0.0
6275,69.0,30,30,13.0,0.0
6276,81.0,30,30,13.0,0.0
6277,73.0,30,30,13.0,0.0
6278,85.0,30,30,13.0,0.0
6279,76.0,30,30,13.0,0.0
6280,88.0,30,30,13.0,0.0
6281,79.0,30,30,13.0,0.0
6282,91.0,30,30,13.0,0.0
6283,79.0,30,30,13.0,0.0
6284,91.0,30,30,13.0,0.0
6285,79.0,30,30,13.0,0.0
6286,91.0,60,30,13.0,0.0
6287,62.0,120,60,13.0,0.0
6288,57.0,60,120,13.0,0.0
6289,38.0,0,60,3.0,0.0
6290,38.0,60,60,3.0,0.0
6291,62.0,0,60,13.0,0.0
6292,66.0,60,60,13.0,0.0
6293,38.0,0,120,3.0,0.0
6294,69.0,30,60,13.0,0.0
6295,62.0,150,30,13.0,0.0
6296,57.0,0,120,13.0,0.0
6297,38.0,60,60,3.0,0.0
6298,38.0,60,60,3.0,0.0
6299,62.0,0,60,13.0,0.0
6300,66.0,60,60,13.0,0.0
6301,38.0,0,120,3.0,0.0
6302,69.0,60,60,13.0,0.0
6303,67.0,120,60,13.0,0.0
6304,64.0,60,120,13.0,0.0
6305,61.0,0,60,3.0,0.0
6306,66.0,120,60,13.0,0.0
6307,62.0,0,60,3.0,0.0
6308,62.0,0,120,13.0,0.0
6309,59.0,60,60,3.0,0.0
6310,55.0,0,60,3.0,0.0
6311,64.0,30,60,13.0,0.0
6312,61.0,60,30,13.0,0.0
6313,57.0,15,60,3.0,0.0
6314,61.0,30,30,13.0,0.0
6315,50.0,0,60,3.0,0.0
6316,64.0,15,15,13.0,0.0
6317,62.0,15,15,13.0,0.0
6318,64.0,15,15,13.0,0.0
6319,62.0,60,15,13.0,0.0
6320,45.0,30,120,3.0,0.0
6321,64.0,60,60,13.0,0.0
6322,62.0,150,30,13.0,0.0
6323,57.0,60,120,13.0,0.0
6324,38.0,0,60,3.0,0.0
6325,62.0,0,60,13.0,0.0
6326,38.0,60,15,3.0,0.0
6327,66.0,60,60,13.0,0.0
6328,69.0,0,60,13.0,0.0
6329,62.0,150,30,13.0,0.0
6330,57.0,60,120,13.0,0.0
6331,38.0,0,60,3.0,0.0
6332,62.0,60,60,13.0,0.0
6333,38.0,0,60,3.0,0.0
6334,38.0,60,120,3.0,0.0
6335,66.0,60,60,13.0,0.0
6336,69.0,0,60,13.0,0.0
6337,67.0,120,60,13.0,0.0
6338,64.0,60,120,13.0,0.0
6339,61.0,0,60,3.0,0.0
6340,62.0,120,60,3.0,0.0
6341,66.0,0,60,13.0,0.0
6342,62.0,0,120,13.0,0.0
6343,59.0,60,60,3.0,0.0
6344,64.0,0,60,13.0,0.0
6345,55.0,60,60,3.0,0.0
6346,59.0,60,60,13.0,0.0
6347,64.0,0,60,13.0,0.0
6348,52.0,60,60,3.0,0.0
6349,61.0,0,60,13.0,0.0
6350,57.0,60,60,3.0,0.0
6351,50.0,60,120,3.0,0.0
6352,62.0,60,60,13.0,0.0
6353,57.0,120,60,13.0,0.0
6354,64.0,0,120,13.0,0.0
6355,57.0,0,60,10.0,0.0
6356,57.0,0,60,2.0,0.0
6357,61.0,0,60,0.0,0.0
6358,57.0,15,60,3.0,0.0
6359,50.0,0,60,2.0,0.0
6360,45.0,0,15,10.0,0.0
6361,67.0,15,15,13.0,0.0
6362,57.0,0,60,10.0,0.0
6363,62.0,0,60,0.0,0.0
6364,57.0,0,15,1.0,0.0
6365,50.0,0,60,3.0,0.0
6366,66.0,15,15,13.0,0.0
6367,67.0,15,15,13.0,0.0
6368,66.0,60,15,13.0,0.0
6369,45.0,0,120,10.0,0.0
6370,45.0,0,120,3.0,0.0
6371,64.0,0,120,0.0,0.0
6372,57.0,0,120,2.0,0.0
6373,67.0,60,60,13.0,0.0
6374,57.0,0,120,1.0,0.0
6375,64.0,0,60,13.0,0.0
6376,69.0,0,60,6.0,0.0
6377,57.0,60,15,10.0,0.0
6378,64.0,0,120,10.0,0.0
6379,76.0,0,120,6.0,0.0
6380,73.0,0,120,6.0,0.0
6381,57.0,90,15,10.0,0.0
6382,57.0,0,60,3.0,0.0
6383,57.0,0,30,2.0,0.0
6384,61.0,30,30,1.0,0.0
6385,64.0,0,30,0.0,0.0
6386,45.0,0,60,4.0,0.0
6387,78.0,60,60,6.0,0.0
6388,74.0,0,60,6.0,0.0
6389,50.0,0,60,3.0,0.0
6390,57.0,0,30,2.0,0.0
6391,38.0,0,60,4.0,0.0
6392,66.0,30,30,0.0,0.0
6393,62.0,0,30,1.0,0.0
6394,62.0,0,60,10.0,0.0
6395,66.0,0,60,10.0,0.0
6396,64.0,0,60,1.0,0.0
6397,57.0,60,90,10.0,0.0
6398,64.0,0,90,10.0,0.0
6399,61.0,0,60,1.0,0.0
6400,33.0,30,60,4.0,0.0
6401,57.0,0,60,2.0,0.0
6402,45.0,0,60,3.0,0.0
6403,79.0,0,90,6.0,0.0
6404,73.0,0,90,6.0,0.0
6405,67.0,0,60,0.0,0.0
6406,86.0,135,30,13.0,0.0
6407,81.0,45,120,13.0,0.0
6408,78.0,15,40,0.0,0.0
6409,74.0,0,40,1.0,0.0
6410,78.0,0,40,0.0,0.0
6411,74.0,15,40,1.0,0.0
6412,86.0,60,60,13.0,0.0
6413,90.0,60,60,13.0,0.0
6414,78.0,0,120,0.0,0.0
6415,74.0,30,120,1.0,0.0
6416,93.0,0,60,13.0,0.0
6417,86.0,135,30,13.0,0.0
6418,81.0,45,120,13.0,0.0
6419,78.0,15,40,0.0,0.0
6420,74.0,0,40,1.0,0.0
6421,74.0,15,40,1.0,0.0
6422,86.0,60,60,13.0,0.0
6423,78.0,0,40,0.0,0.0
6424,78.0,60,120,0.0,0.0
6425,74.0,0,120,1.0,0.0
6426,90.0,60,60,13.0,0.0
6427,93.0,0,60,13.0,0.0
6428,91.0,120,60,13.0,0.0
6429,88.0,60,120,13.0,0.0
6430,85.0,0,60,0.0,0.0
6431,90.0,120,60,13.0,0.0
6432,86.0,0,60,0.0,0.0
6433,86.0,0,120,13.0,0.0
6434,83.0,60,60,0.0,0.0
6435,79.0,0,60,0.0,0.0
6436,88.0,30,60,13.0,0.0
6437,85.0,60,30,13.0,0.0
6438,85.0,30,30,13.0,0.0
6439,81.0,15,60,0.0,0.0
6440,88.0,15,15,13.0,0.0
6441,74.0,0,60,0.0,0.0
6442,86.0,15,15,13.0,0.0
6443,88.0,15,15,13.0,0.0
6444,86.0,60,15,13.0,0.0
6445,88.0,60,60,13.0,0.0
6446,69.0,30,120,0.0,0.0
6447,86.0,135,30,13.0,0.0
6448,81.0,45,120,13.0,0.0
6449,74.0,0,40,1.0,0.0
6450,78.0,15,40,0.0,0.0
6451,78.0,0,40,0.0,0.0
6452,74.0,15,40,1.0,0.0
6453,86.0,60,60,13.0,0.0
6454,78.0,0,120,0.0,0.0
6455,90.0,60,60,13.0,0.0
6456,74.0,0,120,1.0,0.0
6457,93.0,30,60,13.0,0.0
6458,86.0,135,30,13.0,0.0
6459,81.0,45,120,13.0,0.0
6460,74.0,15,40,1.0,0.0
6461,78.0,0,40,0.0,0.0
6462,78.0,0,40,0.0,0.0
6463,74.0,15,40,1.0,0.0
6464,86.0,60,60,13.0,0.0
6465,78.0,60,120,0.0,0.0
6466,74.0,0,120,1.0,0.0
6467,90.0,60,60,13.0,0.0
6468,93.0,0,60,13.0,0.0
6469,91.0,120,60,13.0,0.0
6470,88.0,60,120,13.0,0.0
6471,85.0,0,60,0.0,0.0
6472,86.0,120,60,0.0,0.0
6473,90.0,0,60,13.0,0.0
6474,86.0,0,120,13.0,0.0
6475,83.0,60,60,0.0,0.0
6476,88.0,60,60,13.0,0.0
6477,79.0,0,60,0.0,0.0
6478,83.0,60,60,13.0,0.0
6479,88.0,60,60,13.0,0.0
6480,76.0,0,60,0.0,0.0
6481,81.0,60,60,0.0,0.0
6482,85.0,0,60,13.0,0.0
6483,74.0,60,120,0.0,0.0
6484,86.0,60,60,13.0,0.0
6485,57.0,120,60,0.0,0.0
6486,61.0,60,120,1.0,0.0
6487,64.0,0,120,0.0,0.0
6488,57.0,0,60,3.0,0.0
6489,45.0,0,60,10.0,0.0
6490,57.0,0,15,2.0,0.0
6491,57.0,0,15,10.0,0.0
6492,66.0,0,60,0.0,0.0
6493,62.0,0,60,1.0,0.0
6494,50.0,0,60,3.0,0.0
6495,64.0,60,60,1.0,0.0
6496,57.0,0,15,2.0,0.0
6497,45.0,0,120,3.0,0.0
6498,45.0,60,15,10.0,0.0
6499,67.0,0,60,0.0,0.0
6500,57.0,0,60,2.0,0.0
6501,64.0,0,60,0.0,0.0
6502,61.0,0,60,1.0,0.0
6503,57.0,60,15,10.0,0.0
6504,69.0,90,60,6.0,0.0
6505,73.0,0,120,6.0,0.0
6506,57.0,0,120,10.0,0.0
6507,64.0,0,120,10.0,0.0
6508,76.0,30,120,6.0,0.0
6509,64.0,0,30,0.0,0.0
6510,57.0,0,60,3.0,0.0
6511,57.0,30,30,2.0,0.0
6512,45.0,0,60,4.0,0.0
6513,61.0,0,30,1.0,0.0
6514,66.0,0,60,10.0,0.0
6515,50.0,0,60,3.0,0.0
6516,62.0,0,60,10.0,0.0
6517,78.0,0,60,6.0,0.0
6518,74.0,0,60,6.0,0.0
6519,38.0,60,60,4.0,0.0
6520,66.0,0,30,0.0,0.0
6521,62.0,30,30,1.0,0.0
6522,57.0,0,30,2.0,0.0
6523,33.0,0,60,4.0,0.0
6524,67.0,0,60,0.0,0.0
6525,73.0,0,90,6.0,0.0
6526,79.0,0,90,6.0,0.0
6527,57.0,60,90,10.0,0.0
6528,45.0,0,60,3.0,0.0
6529,57.0,30,60,2.0,0.0
6530,64.0,0,60,1.0,0.0
6531,64.0,0,90,10.0,0.0
6532,50.0,0,60,12.0,0.0
6533,62.0,0,30,10.0,0.0
6534,74.0,30,30,6.0,0.0
6535,62.0,0,30,1.0,0.0
6536,66.0,0,60,7.0,0.0
6537,74.0,0,30,0.0,0.0
6538,50.0,0,60,11.0,0.0
6539,62.0,0,60,11.0,0.0
6540,74.0,0,60,7.0,0.0
6541,69.0,0,120,6.0,0.0
6542,69.0,0,120,0.0,0.0
6543,66.0,0,120,7.0,0.0
6544,57.0,0,120,10.0,0.0
6545,57.0,120,15,8.0,0.0
6546,54.0,0,15,8.0,0.0
6547,62.0,0,120,11.0,0.0
6548,57.0,0,120,1.0,0.0
6549,38.0,0,60,4.0,0.0
6550,50.0,0,60,3.0,0.0
6551,74.0,0,30,6.0,0.0
6552,62.0,0,15,2.0,0.0
6553,62.0,0,30,10.0,0.0
6554,74.0,0,30,0.0,0.0
6555,62.0,30,30,1.0,0.0
6556,50.0,0,60,3.0,0.0
6557,50.0,0,15,12.0,0.0
6558,50.0,0,15,11.0,0.0
6559,74.0,30,15,7.0,0.0
6560,78.0,0,60,0.0,0.0
6561,50.0,0,15,12.0,0.0
6562,38.0,0,15,4.0,0.0
6563,78.0,0,60,6.0,0.0
6564,50.0,0,120,3.0,0.0
6565,62.0,0,120,2.0,0.0
6566,66.0,60,60,10.0,0.0
6567,62.0,0,15,11.0,0.0
6568,57.0,0,15,8.0,0.0
6569,54.0,0,15,8.0,0.0
6570,66.0,0,60,1.0,0.0
6571,50.0,60,15,11.0,0.0
6572,74.0,0,120,7.0,0.0
6573,66.0,0,15,7.0,0.0
6574,81.0,0,60,0.0,0.0
6575,81.0,0,60,6.0,0.0
6576,69.0,0,60,1.0,0.0
6577,69.0,0,60,10.0,0.0
6578,62.0,0,15,11.0,0.0
6579,57.0,0,15,8.0,0.0
6580,62.0,0,30,10.0,0.0
6581,50.0,0,15,12.0,0.0
6582,74.0,0,30,0.0,0.0
6583,86.0,0,30,5.0,0.0
6584,74.0,0,30,6.0,0.0
6585,62.0,30,30,1.0,0.0
6586,57.0,0,120,10.0,0.0
6587,74.0,0,15,7.0,0.0
6588,66.0,0,15,7.0,0.0
6589,57.0,0,120,1.0,0.0
6590,54.0,0,15,8.0,0.0
6591,62.0,0,120,11.0,0.0
6592,50.0,0,15,11.0,0.0
6593,69.0,0,120,6.0,0.0
6594,81.0,0,120,5.0,0.0
6595,69.0,0,120,0.0,0.0
6596,50.0,120,15,12.0,0.0
6597,50.0,0,60,3.0,0.0
6598,62.0,0,15,2.0,0.0
6599,38.0,30,15,4.0,0.0
6600,50.0,0,15,12.0,0.0
6601,57.0,0,15,8.0,0.0
6602,62.0,0,30,10.0,0.0
6603,54.0,0,15,8.0,0.0
6604,86.0,0,30,5.0,0.0
6605,62.0,0,30,1.0,0.0
6606,50.0,0,60,3.0,0.0
6607,74.0,30,30,0.0,0.0
6608,74.0,0,15,7.0,0.0
6609,66.0,0,15,7.0,0.0
6610,74.0,0,30,6.0,0.0
6611,54.0,0,15,8.0,0.0
6612,57.0,0,120,8.0,0.0
6613,62.0,0,15,11.0,0.0
6614,38.0,0,15,4.0,0.0
6615,74.0,0,15,7.0,0.0
6616,50.0,0,15,11.0,0.0
6617,78.0,60,60,0.0,0.0
6618,78.0,0,60,6.0,0.0
6619,66.0,0,60,10.0,0.0
6620,66.0,0,120,7.0,0.0
6621,50.0,60,120,3.0,0.0
6622,90.0,0,60,5.0,0.0
6623,66.0,0,60,1.0,0.0
6624,62.0,0,120,2.0,0.0
6625,50.0,60,15,12.0,0.0
6626,93.0,0,60,5.0,0.0
6627,81.0,0,60,0.0,0.0
6628,81.0,0,60,6.0,0.0
6629,69.0,0,60,10.0,0.0
6630,69.0,0,60,1.0,0.0
6631,79.0,0,60,6.0,0.0
6632,79.0,0,60,0.0,0.0
6633,67.0,120,60,1.0,0.0
6634,76.0,0,120,0.0,0.0
6635,57.0,0,120,11.0,0.0
6636,45.0,0,120,11.0,0.0
6637,76.0,0,120,6.0,0.0
6638,64.0,60,120,1.0,0.0
6639,45.0,0,120,12.0,0.0
6640,61.0,0,60,2.0,0.0
6641,37.0,0,60,4.0,0.0
6642,49.0,0,60,3.0,0.0
6643,64.0,0,60,10.0,0.0
6644,57.0,0,60,10.0,0.0
6645,38.0,120,60,4.0,0.0
6646,66.0,0,60,10.0,0.0
6647,50.0,0,60,3.0,0.0
6648,62.0,0,60,10.0,0.0
6649,78.0,0,60,0.0,0.0
6650,62.0,0,60,2.0,0.0
6651,66.0,0,60,1.0,0.0
6652,78.0,0,60,6.0,0.0
6653,74.0,0,120,6.0,0.0
6654,74.0,0,120,0.0,0.0
6655,62.0,0,120,1.0,0.0
6656,50.0,0,120,11.0,0.0
6657,50.0,0,120,12.0,0.0
6658,62.0,0,120,11.0,0.0
6659,71.0,0,60,2.0,0.0
6660,59.0,0,60,3.0,0.0
6661,47.0,0,60,4.0,0.0
6662,88.0,0,60,5.0,0.0
6663,50.0,60,60,10.0,0.0
6664,62.0,0,60,10.0,0.0
6665,64.0,45,60,1.0,0.0
6666,69.0,0,60,2.0,0.0
6667,57.0,0,60,3.0,0.0
6668,76.0,0,60,0.0,0.0
6669,76.0,0,60,6.0,0.0
6670,90.0,0,60,5.0,0.0
6671,45.0,0,60,4.0,0.0
6672,67.0,0,60,10.0,0.0
6673,64.0,0,60,10.0,0.0
6674,64.0,15,40,7.0,0.0
6675,85.0,0,40,5.0,0.0
6676,73.0,0,40,7.0,0.0
6677,45.0,0,60,12.0,0.0
6678,61.0,0,40,8.0,0.0
6679,57.0,0,60,2.0,0.0
6680,61.0,0,60,1.0,0.0
6681,57.0,0,60,10.0,0.0
6682,64.0,0,60,10.0,0.0
6683,73.0,0,40,0.0,0.0
6684,49.0,0,40,8.0,0.0
6685,73.0,0,40,6.0,0.0
6686,67.0,0,60,1.0,0.0
6687,45.0,0,15,4.0,0.0
6688,73.0,0,40,7.0,0.0
6689,64.0,0,40,7.0,0.0
6690,57.0,0,60,1.0,0.0
6691,57.0,0,15,11.0,0.0
6692,45.0,0,15,11.0,0.0
6693,73.0,15,40,6.0,0.0
6694,45.0,0,60,12.0,0.0
6695,64.0,15,60,2.0,0.0
6696,49.0,0,40,8.0,0.0
6697,57.0,0,60,10.0,0.0
6698,57.0,45,15,3.0,0.0
6699,85.0,0,40,5.0,0.0
6700,64.0,0,60,10.0,0.0
6701,73.0,0,40,0.0,0.0
6702,61.0,0,40,8.0,0.0
6703,66.0,0,60,10.0,0.0
6704,62.0,0,60,10.0,0.0
6705,50.0,0,40,8.0,0.0
6706,76.0,15,15,0.0,0.0
6707,76.0,0,15,6.0,0.0
6708,62.0,0,40,8.0,0.0
6709,66.0,0,60,1.0,0.0
6710,66.0,0,40,7.0,0.0
6711,38.0,60,60,4.0,0.0
6712,88.0,0,15,5.0,0.0
6713,50.0,0,60,12.0,0.0
6714,74.0,0,40,7.0,0.0
6715,50.0,0,60,3.0,0.0
6716,62.0,0,60,2.0,0.0
6717,62.0,0,60,11.0,0.0
6718,50.0,0,60,11.0,0.0
6719,86.0,15,15,5.0,0.0
6720,74.0,0,15,6.0,0.0
6721,74.0,0,15,0.0,0.0
6722,88.0,0,15,5.0,0.0
6723,76.0,15,15,0.0,0.0
6724,76.0,0,15,6.0,0.0
6725,86.0,0,15,5.0,0.0
6726,74.0,0,15,6.0,0.0
6727,74.0,0,15,0.0,0.0
6728,57.0,0,120,11.0,0.0
6729,64.0,0,60,1.0,0.0
6730,57.0,0,15,1.0,0.0
6731,45.0,60,60,3.0,0.0
6732,64.0,0,120,10.0,0.0
6733,45.0,0,120,12.0,0.0
6734,57.0,0,120,10.0,0.0
6735,64.0,0,120,8.0,0.0
6736,61.0,0,120,8.0,0.0
6737,76.0,0,120,7.0,0.0
6738,73.0,0,120,7.0,0.0
6739,61.0,30,120,2.0,0.0
6740,76.0,0,60,0.0,0.0
6741,76.0,0,60,6.0,0.0
6742,88.0,0,60,5.0,0.0
6743,45.0,0,120,11.0,0.0
6744,33.0,0,60,4.0,0.0
6745,62.0,0,60,10.0,0.0
6746,57.0,0,60,8.0,0.0
6747,74.0,0,30,0.0,0.0
6748,74.0,30,30,6.0,0.0
6749,62.0,0,30,1.0,0.0
6750,74.0,0,15,7.0,0.0
6751,66.0,0,15,7.0,0.0
6752,62.0,0,15,11.0,0.0
6753,50.0,0,15,11.0,0.0
6754,69.0,0,120,0.0,0.0
6755,57.0,0,120,8.0,0.0
6756,54.0,0,15,8.0,0.0
6757,57.0,0,120,1.0,0.0
6758,57.0,0,120,10.0,0.0
6759,50.0,120,15,12.0,0.0
6760,69.0,0,120,6.0,0.0
6761,38.0,0,60,4.0,0.0
6762,50.0,0,60,3.0,0.0
6763,62.0,0,60,2.0,0.0
6764,50.0,0,15,11.0,0.0
6765,62.0,0,15,11.0,0.0
6766,50.0,0,15,12.0,0.0
6767,74.0,30,30,6.0,0.0
6768,66.0,0,15,7.0,0.0
6769,62.0,0,60,10.0,0.0
6770,74.0,0,30,0.0,0.0
6771,62.0,0,30,1.0,0.0
6772,74.0,30,15,7.0,0.0
6773,38.0,0,60,4.0,0.0
6774,66.0,0,15,7.0,0.0
6775,66.0,0,60,1.0,0.0
6776,50.0,0,15,12.0,0.0
6777,74.0,0,120,7.0,0.0
6778,57.0,60,15,8.0,0.0
6779,50.0,0,15,3.0,0.0
6780,78.0,0,60,0.0,0.0
6781,66.0,60,60,10.0,0.0
6782,38.0,0,120,4.0,0.0
6783,54.0,0,15,8.0,0.0
6784,62.0,0,15,2.0,0.0
6785,62.0,0,15,11.0,0.0
6786,50.0,0,15,11.0,0.0
6787,78.0,0,60,6.0,0.0
6788,69.0,0,60,1.0,0.0
6789,81.0,0,60,0.0,0.0
6790,69.0,0,60,10.0,0.0
6791,81.0,0,60,6.0,0.0
6792,86.0,0,30,5.0,0.0
6793,54.0,0,15,8.0,0.0
6794,74.0,0,30,6.0,0.0
6795,74.0,0,30,0.0,0.0
6796,50.0,0,15,11.0,0.0
6797,62.0,0,15,11.0,0.0
6798,50.0,0,15,12.0,0.0
6799,62.0,30,30,1.0,0.0
6800,66.0,120,60,7.0,0.0
6801,74.0,0,60,7.0,0.0
6802,62.0,0,60,10.0,0.0
6803,81.0,0,120,5.0,0.0
6804,57.0,0,15,8.0,0.0
6805,50.0,0,15,11.0,0.0
6806,57.0,0,120,10.0,0.0
6807,69.0,0,120,0.0,0.0
6808,54.0,0,120,8.0,0.0
6809,62.0,0,120,11.0,0.0
6810,66.0,0,120,7.0,0.0
6811,74.0,0,120,7.0,0.0
6812,69.0,0,120,6.0,0.0
6813,57.0,0,120,1.0,0.0
6814,86.0,0,30,5.0,0.0
6815,62.0,0,30,1.0,0.0
6816,62.0,0,60,10.0,0.0
6817,62.0,0,15,2.0,0.0
6818,50.0,0,15,3.0,0.0
6819,74.0,30,30,0.0,0.0
6820,38.0,0,15,4.0,0.0
6821,50.0,0,15,12.0,0.0
6822,74.0,0,60,7.0,0.0
6823,66.0,0,60,7.0,0.0
6824,54.0,0,60,8.0,0.0
6825,57.0,30,15,8.0,0.0
6826,74.0,0,30,6.0,0.0
6827,78.0,0,60,0.0,0.0
6828,66.0,0,60,10.0,0.0
6829,62.0,0,15,2.0,0.0
6830,62.0,0,15,11.0,0.0
6831,50.0,0,15,11.0,0.0
6832,66.0,0,60,1.0,0.0
6833,50.0,0,120,12.0,0.0
6834,54.0,0,120,8.0,0.0
6835,57.0,0,120,8.0,0.0
6836,74.0,0,120,7.0,0.0
6837,90.0,0,60,5.0,0.0
6838,78.0,60,60,6.0,0.0
6839,50.0,60,15,3.0,0.0
6840,38.0,0,120,4.0,0.0
6841,66.0,0,120,7.0,0.0
6842,81.0,0,60,6.0,0.0
6843,81.0,0,60,0.0,0.0
6844,69.0,0,60,10.0,0.0
6845,69.0,0,60,1.0,0.0
6846,93.0,0,60,5.0,0.0
6847,67.0,120,60,1.0,0.0
6848,79.0,0,60,0.0,0.0
6849,79.0,0,60,6.0,0.0
6850,45.0,0,120,11.0,0.0
6851,45.0,0,120,12.0,0.0
6852,57.0,0,120,11.0,0.0
6853,76.0,60,120,0.0,0.0
6854,64.0,0,120,1.0,0.0
6855,76.0,0,120,6.0,0.0
6856,64.0,0,60,10.0,0.0
6857,57.0,0,60,10.0,0.0
6858,49.0,0,60,3.0,0.0
6859,37.0,0,60,4.0,0.0
6860,61.0,0,60,2.0,0.0
6861,78.0,0,60,6.0,0.0
6862,38.0,0,60,4.0,0.0
6863,66.0,0,60,1.0,0.0
6864,66.0,0,60,10.0,0.0
6865,62.0,120,60,2.0,0.0
6866,62.0,0,60,10.0,0.0
6867,50.0,0,60,3.0,0.0
6868,78.0,0,60,0.0,0.0
6869,50.0,0,120,12.0,0.0
6870,74.0,0,120,0.0,0.0
6871,74.0,0,120,6.0,0.0
6872,50.0,0,120,11.0,0.0
6873,62.0,0,120,11.0,0.0
6874,62.0,0,120,1.0,0.0
6875,62.0,60,60,10.0,0.0
6876,47.0,0,60,3.0,0.0
6877,59.0,0,60,2.0,0.0
6878,50.0,0,60,10.0,0.0
6879,35.0,0,60,4.0,0.0
6880,31.0,0,60,4.0,0.0
6881,76.0,0,60,6.0,0.0
6882,64.0,0,60,1.0,0.0
6883,76.0,60,60,0.0,0.0
6884,64.0,0,60,10.0,0.0
6885,67.0,0,60,10.0,0.0
6886,59.0,0,60,1.0,0.0
6887,55.0,0,15,2.0,0.0
6888,43.0,0,15,3.0,0.0
6889,71.0,0,60,0.0,0.0
6890,71.0,0,60,6.0,0.0
6891,64.0,0,60,1.0,0.0
6892,55.0,0,60,2.0,0.0
6893,43.0,60,15,3.0,0.0
6894,76.0,0,60,0.0,0.0
6895,31.0,0,15,4.0,0.0
6896,76.0,0,60,6.0,0.0
6897,57.0,0,60,2.0,0.0
6898,73.0,30,30,6.0,0.0
6899,45.0,0,60,3.0,0.0
6900,61.0,0,30,1.0,0.0
6901,73.0,0,30,0.0,0.0
6902,33.0,60,60,4.0,0.0
6903,74.0,0,60,0.0,0.0
6904,62.0,0,60,1.0,0.0
6905,74.0,60,60,6.0,0.0
6906,59.0,0,60,2.0,0.0
6907,35.0,0,60,4.0,0.0
6908,79.0,30,60,6.0,0.0
6909,67.0,0,60,1.0,0.0
6910,47.0,0,15,3.0,0.0
6911,35.0,0,60,4.0,0.0
6912,79.0,0,60,0.0,0.0
6913,59.0,0,60,2.0,0.0
6914,37.0,0,60,4.0,0.0
6915,49.0,0,60,3.0,0.0
6916,64.0,0,30,1.0,0.0
6917,76.0,30,30,6.0,0.0
6918,76.0,0,30,0.0,0.0
6919,61.0,60,60,2.0,0.0
6920,76.0,0,30,5.0,0.0
6921,78.0,0,60,0.0,0.0
6922,66.0,0,60,1.0,0.0
6923,66.0,0,60,6.0,0.0
6924,78.0,0,60,6.0,0.0
6925,66.0,0,60,7.0,0.0
6926,50.0,0,60,3.0,0.0
6927,78.0,60,60,5.0,0.0
6928,69.0,0,60,6.0,0.0
6929,83.0,0,60,6.0,0.0
6930,71.0,0,60,1.0,0.0
6931,62.0,0,15,2.0,0.0
6932,38.0,0,15,4.0,0.0
6933,50.0,0,15,8.0,0.0
6934,83.0,0,60,0.0,0.0
6935,50.0,0,60,3.0,0.0
6936,83.0,0,60,5.0,0.0
6937,67.0,0,30,6.0,0.0
6938,64.0,0,60,2.0,0.0
6939,52.0,60,60,3.0,0.0
6940,52.0,0,60,8.0,0.0
6941,79.0,0,30,6.0,0.0
6942,79.0,0,30,5.0,0.0
6943,40.0,0,60,4.0,0.0
6944,71.0,30,15,7.0,0.0
6945,79.0,0,30,0.0,0.0
6946,67.0,30,30,1.0,0.0
6947,81.0,0,60,0.0,0.0
6948,69.0,0,60,6.0,0.0
6949,69.0,0,60,7.0,0.0
6950,50.0,0,120,12.0,0.0
6951,69.0,0,60,1.0,0.0
6952,50.0,0,60,10.0,0.0
6953,62.0,0,60,10.0,0.0
6954,66.0,0,60,2.0,0.0
6955,81.0,0,60,5.0,0.0
6956,81.0,0,60,6.0,0.0
6957,66.0,0,60,2.0,0.0
6958,54.0,0,15,3.0,0.0
6959,86.0,0,60,6.0,0.0
6960,86.0,0,60,0.0,0.0
6961,54.0,0,15,8.0,0.0
6962,86.0,0,60,5.0,0.0
6963,62.0,0,15,11.0,0.0
6964,50.0,0,15,11.0,0.0
6965,42.0,60,15,4.0,0.0
6966,74.0,0,60,6.0,0.0
6967,74.0,0,60,7.0,0.0
6968,74.0,0,60,1.0,0.0
6969,62.0,0,15,11.0,0.0
6970,71.0,0,30,6.0,0.0
6971,83.0,30,30,6.0,0.0
6972,62.0,0,15,10.0,0.0
6973,83.0,0,30,0.0,0.0
6974,83.0,0,30,5.0,0.0
6975,43.0,0,60,4.0,0.0
6976,71.0,0,30,7.0,0.0
6977,55.0,0,60,8.0,0.0
6978,50.0,30,15,10.0,0.0
6979,71.0,0,30,1.0,0.0
6980,67.0,0,60,2.0,0.0
6981,50.0,60,60,11.0,0.0
6982,55.0,0,60,3.0,0.0
6983,69.0,0,60,1.0,0.0
6984,62.0,0,15,10.0,0.0
6985,50.0,0,15,10.0,0.0
6986,50.0,0,120,12.0,0.0
6987,69.0,0,60,7.0,0.0
6988,81.0,0,60,0.0,0.0
6989,69.0,0,60,6.0,0.0
6990,62.0,0,60,11.0,0.0
6991,50.0,0,60,11.0,0.0
6992,81.0,0,60,6.0,0.0
6993,66.0,0,15,2.0,0.0
6994,42.0,0,15,4.0,0.0
6995,62.0,0,15,10.0,0.0
6996,86.0,0,60,0.0,0.0
6997,50.0,0,60,11.0,0.0
6998,74.0,0,60,1.0,0.0
6999,54.0,0,15,3.0,0.0
7000,86.0,0,60,6.0,0.0
7001,74.0,0,60,6.0,0.0
7002,54.0,60,15,8.0,0.0
7003,74.0,0,60,7.0,0.0
7004,83.0,0,30,0.0,0.0
7005,50.0,0,15,10.0,0.0
7006,55.0,0,60,8.0,0.0
7007,43.0,0,60,4.0,0.0
7008,83.0,0,30,6.0,0.0
7009,71.0,30,30,6.0,0.0
7010,62.0,0,15,11.0,0.0
7011,55.0,60,60,3.0,0.0
7012,71.0,0,30,7.0,0.0
7013,50.0,0,60,11.0,0.0
7014,71.0,0,30,1.0,0.0
7015,86.0,0,15,5.0,0.0
7016,67.0,0,60,2.0,0.0
7017,54.0,0,60,8.0,0.0
7018,69.0,0,60,6.0,0.0
7019,62.0,0,15,10.0,0.0
7020,69.0,0,60,7.0,0.0
7021,50.0,0,15,10.0,0.0
7022,81.0,0,60,0.0,0.0
7023,86.0,0,120,5.0,0.0
7024,69.0,0,60,1.0,0.0
7025,50.0,0,120,12.0,0.0
7026,66.0,0,60,2.0,0.0
7027,54.0,0,60,3.0,0.0
7028,81.0,0,60,6.0,0.0
7029,42.0,0,15,4.0,0.0
7030,62.0,0,15,10.0,0.0
7031,74.0,0,60,1.0,0.0
7032,54.0,0,60,3.0,0.0
7033,86.0,30,60,0.0,0.0
7034,54.0,0,60,8.0,0.0
7035,74.0,0,60,7.0,0.0
7036,86.0,0,60,6.0,0.0
7037,62.0,60,15,11.0,0.0
7038,74.0,0,60,6.0,0.0
7039,50.0,0,15,11.0,0.0
7040,66.0,0,60,2.0,0.0
7041,50.0,0,15,11.0,0.0
7042,43.0,0,60,4.0,0.0
7043,83.0,0,30,6.0,0.0
7044,71.0,0,30,6.0,0.0
7045,71.0,0,30,1.0,0.0
7046,83.0,0,30,0.0,0.0
7047,67.0,0,60,2.0,0.0
7048,62.0,0,15,11.0,0.0
7049,55.0,0,60,8.0,0.0
7050,55.0,0,60,3.0,0.0
7051,62.0,0,15,10.0,0.0
7052,50.0,0,15,10.0,0.0
7053,71.0,30,30,7.0,0.0
7054,50.0,0,15,10.0,0.0
7055,66.0,0,30,2.0,0.0
7056,62.0,0,15,10.0,0.0
7057,57.0,0,180,8.0,0.0
7058,50.0,0,120,12.0,0.0
7059,62.0,30,15,11.0,0.0
7060,69.0,0,180,6.0,0.0
7061,50.0,0,180,11.0,0.0
7062,86.0,0,15,5.0,0.0
7063,81.0,15,180,0.0,0.0
7064,69.0,0,180,7.0,0.0
7065,54.0,0,60,3.0,0.0
7066,81.0,0,180,6.0,0.0
7067,54.0,0,180,8.0,0.0
7068,62.0,30,15,2.0,0.0
7069,57.0,0,15,1.0,0.0
7070,69.0,0,15,1.0,0.0
7071,66.0,0,30,2.0,0.0
7072,57.0,30,30,1.0,0.0
7073,69.0,30,15,1.0,0.0
7074,42.0,0,15,4.0,0.0
7075,66.0,0,30,2.0,0.0
7076,62.0,0,15,2.0,0.0
7077,57.0,0,30,1.0,0.0
7078,66.0,0,15,2.0,0.0
7079,69.0,30,15,1.0,0.0
7080,54.0,0,15,3.0,0.0
7081,42.0,0,15,4.0,0.0
7082,62.0,0,30,2.0,0.0
7083,57.0,0,30,1.0,0.0
7084,62.0,0,30,2.0,0.0
7085,66.0,30,15,2.0,0.0
7086,57.0,0,30,1.0,0.0
7087,69.0,0,30,1.0,0.0
7088,64.0,0,30,2.0,0.0
7089,62.0,0,30,2.0,0.0
7090,79.0,15,15,0.0,0.0
7091,67.0,0,30,1.0,0.0
7092,59.0,0,30,1.0,0.0
7093,81.0,30,15,0.0,0.0
7094,64.0,0,30,2.0,0.0
7095,59.0,30,30,1.0,0.0
7096,67.0,0,30,1.0,0.0
7097,79.0,15,60,0.0,0.0
7098,62.0,0,30,2.0,0.0
7099,55.0,0,15,3.0,0.0
7100,43.0,0,15,4.0,0.0
7101,59.0,0,30,1.0,0.0
7102,67.0,0,30,1.0,0.0
7103,59.0,0,30,1.0,0.0
7104,67.0,30,30,1.0,0.0
7105,78.0,15,15,0.0,0.0
7106,62.0,0,15,2.0,0.0
7107,64.0,0,15,2.0,0.0
7108,76.0,0,30,0.0,0.0
7109,43.0,0,60,4.0,0.0
7110,55.0,0,15,3.0,0.0
7111,62.0,0,15,2.0,0.0
7112,64.0,0,15,2.0,0.0
7113,59.0,0,30,1.0,0.0
7114,67.0,30,15,1.0,0.0
7115,62.0,0,15,2.0,0.0
7116,64.0,0,15,2.0,0.0
7117,59.0,15,30,1.0,0.0
7118,74.0,15,15,0.0,0.0
7119,57.0,0,60,3.0,0.0
7120,66.0,0,30,1.0,0.0
7121,76.0,0,15,0.0,0.0
7122,62.0,0,15,2.0,0.0
7123,66.0,0,15,2.0,0.0
7124,57.0,30,15,1.0,0.0
7125,74.0,0,60,0.0,0.0
7126,57.0,0,60,3.0,0.0
7127,66.0,30,15,1.0,0.0
7128,57.0,0,15,1.0,0.0
7129,45.0,0,15,4.0,0.0
7130,62.0,0,15,2.0,0.0
7131,66.0,0,15,2.0,0.0
7132,66.0,15,15,1.0,0.0
7133,73.0,15,15,0.0,0.0
7134,57.0,0,30,1.0,0.0
7135,66.0,30,15,1.0,0.0
7136,57.0,0,60,3.0,0.0
7137,45.0,0,15,4.0,0.0
7138,66.0,0,15,2.0,0.0
7139,71.0,0,30,0.0,0.0
7140,57.0,0,30,1.0,0.0
7141,62.0,0,30,2.0,0.0
7142,62.0,0,30,2.0,0.0
7143,66.0,30,15,2.0,0.0
7144,57.0,0,30,1.0,0.0
7145,66.0,30,30,1.0,0.0
7146,43.0,0,60,4.0,0.0
7147,69.0,0,120,6.0,0.0
7148,64.0,0,120,10.0,0.0
7149,57.0,0,120,10.0,0.0
7150,76.0,0,120,6.0,0.0
7151,57.0,30,15,1.0,0.0
7152,64.0,0,15,1.0,0.0
7153,61.0,0,15,2.0,0.0
7154,64.0,30,15,1.0,0.0
7155,61.0,0,15,2.0,0.0
7156,55.0,0,15,3.0,0.0
7157,57.0,0,15,1.0,0.0
7158,64.0,0,30,1.0,0.0
7159,43.0,30,15,4.0,0.0
7160,76.0,0,60,6.0,0.0
7161,55.0,0,15,3.0,0.0
7162,61.0,0,15,2.0,0.0
7163,64.0,30,30,1.0,0.0
7164,69.0,0,15,0.0,0.0
7165,57.0,0,15,1.0,0.0
7166,57.0,0,60,10.0,0.0
7167,64.0,0,60,10.0,0.0
7168,61.0,0,15,2.0,0.0
7169,64.0,0,30,1.0,0.0
7170,69.0,0,15,6.0,0.0
7171,81.0,0,180,6.0,0.0
7172,42.0,0,60,4.0,0.0
7173,62.0,0,180,11.0,0.0
7174,50.0,0,180,11.0,0.0
7175,81.0,0,180,0.0,0.0
7176,54.0,0,180,8.0,0.0
7177,57.0,0,180,8.0,0.0
7178,86.0,0,180,5.0,0.0
7179,74.0,0,180,7.0,0.0
7180,78.0,0,180,7.0,0.0
7181,50.0,0,180,10.0,0.0
7182,66.0,0,30,2.0,0.0
7183,50.0,0,120,12.0,0.0
7184,57.0,0,15,1.0,0.0
7185,62.0,0,180,10.0,0.0
7186,57.0,0,15,1.0,0.0
7187,69.0,0,15,1.0,0.0
7188,62.0,30,15,2.0,0.0
7189,66.0,0,30,2.0,0.0
7190,69.0,30,15,1.0,0.0
7191,57.0,0,15,1.0,0.0
7192,54.0,0,15,3.0,0.0
7193,62.0,0,15,2.0,0.0
7194,62.0,0,15,2.0,0.0
7195,69.0,0,15,1.0,0.0
7196,66.0,0,15,2.0,0.0
7197,57.0,0,30,1.0,0.0
7198,42.0,0,15,4.0,0.0
7199,54.0,0,15,3.0,0.0
7200,69.0,30,15,1.0,0.0
7201,66.0,0,30,2.0,0.0
7202,62.0,30,15,2.0,0.0
7203,66.0,0,30,2.0,0.0
7204,69.0,0,30,1.0,0.0
7205,57.0,0,15,1.0,0.0
7206,64.0,0,30,2.0,0.0
7207,62.0,0,15,2.0,0.0
7208,43.0,0,60,4.0,0.0
7209,67.0,0,30,1.0,0.0
7210,59.0,0,30,1.0,0.0
7211,79.0,15,15,0.0,0.0
7212,81.0,0,15,0.0,0.0
7213,67.0,0,30,1.0,0.0
7214,62.0,30,15,2.0,0.0
7215,79.0,15,60,0.0,0.0
7216,64.0,0,15,2.0,0.0
7217,62.0,0,30,2.0,0.0
7218,55.0,0,15,3.0,0.0
7219,67.0,0,30,1.0,0.0
7220,59.0,30,15,1.0,0.0
7221,59.0,0,30,1.0,0.0
7222,67.0,0,30,1.0,0.0
7223,64.0,0,30,2.0,0.0
7224,62.0,30,30,2.0,0.0
7225,78.0,15,15,0.0,0.0
7226,43.0,0,15,4.0,0.0
7227,55.0,0,60,3.0,0.0
7228,76.0,30,30,0.0,0.0
7229,62.0,0,30,2.0,0.0
7230,67.0,0,15,1.0,0.0
7231,59.0,0,15,1.0,0.0
7232,64.0,0,15,2.0,0.0
7233,74.0,15,15,0.0,0.0
7234,57.0,0,30,1.0,0.0
7235,62.0,15,15,2.0,0.0
7236,45.0,0,60,4.0,0.0
7237,76.0,0,15,0.0,0.0
7238,66.0,0,15,1.0,0.0
7239,74.0,0,60,0.0,0.0
7240,62.0,30,15,2.0,0.0
7241,66.0,0,15,2.0,0.0
7242,57.0,0,15,1.0,0.0
7243,62.0,0,15,2.0,0.0
7244,66.0,0,15,2.0,0.0
7245,57.0,30,15,3.0,0.0
7246,66.0,0,30,1.0,0.0
7247,73.0,15,15,0.0,0.0
7248,62.0,0,15,2.0,0.0
7249,66.0,30,30,1.0,0.0
7250,66.0,0,30,2.0,0.0
7251,57.0,0,60,3.0,0.0
7252,45.0,0,15,4.0,0.0
7253,71.0,0,30,0.0,0.0
7254,57.0,0,15,1.0,0.0
7255,66.0,0,30,1.0,0.0
7256,62.0,30,15,2.0,0.0
7257,66.0,0,15,2.0,0.0
7258,66.0,30,30,1.0,0.0
7259,57.0,0,15,1.0,0.0
7260,43.0,30,60,4.0,0.0
7261,69.0,0,120,0.0,0.0
7262,64.0,0,120,10.0,0.0
7263,57.0,0,120,10.0,0.0
7264,55.0,0,60,3.0,0.0
7265,57.0,0,15,1.0,0.0
7266,64.0,0,30,1.0,0.0
7267,57.0,0,30,1.0,0.0
7268,61.0,30,15,2.0,0.0
7269,64.0,0,15,1.0,0.0
7270,57.0,0,30,1.0,0.0
7271,43.0,0,60,4.0,0.0
7272,55.0,0,60,3.0,0.0
7273,61.0,30,15,2.0,0.0
7274,64.0,0,30,1.0,0.0
7275,64.0,0,60,10.0,0.0
7276,61.0,0,15,2.0,0.0
7277,69.0,0,60,0.0,0.0
7278,43.0,0,60,4.0,0.0
7279,57.0,0,60,10.0,0.0
7280,57.0,30,15,1.0,0.0
7281,64.0,30,30,1.0,0.0
7282,76.0,0,15,6.0,0.0
7283,69.0,0,15,6.0,0.0
7284,55.0,0,60,3.0,0.0
7285,57.0,0,15,1.0,0.0
7286,61.0,0,30,2.0,0.0
7287,64.0,0,30,1.0,0.0
7288,50.0,0,180,11.0,0.0
7289,62.0,0,180,11.0,0.0
7290,66.0,0,180,10.0,0.0
7291,57.0,15,15,1.0,0.0
7292,62.0,0,180,10.0,0.0
7293,81.0,0,90,0.0,0.0
7294,74.0,0,180,7.0,0.0
7295,78.0,15,180,7.0,0.0
7296,54.0,0,60,3.0,0.0
7297,54.0,0,180,8.0,0.0
7298,57.0,0,180,8.0,0.0
7299,69.0,0,15,6.0,0.0
7300,86.0,0,180,5.0,0.0
7301,81.0,0,180,6.0,0.0
7302,49.0,15,15,12.0,0.0
7303,42.0,0,60,4.0,0.0
7304,50.0,0,15,12.0,0.0
7305,49.0,15,15,12.0,0.0
7306,69.0,0,15,1.0,0.0
7307,57.0,0,15,1.0,0.0
7308,62.0,0,15,2.0,0.0
7309,66.0,15,15,2.0,0.0
7310,50.0,0,15,12.0,0.0
7311,62.0,0,15,2.0,0.0
7312,69.0,0,15,1.0,0.0
7313,49.0,15,15,12.0,0.0
7314,54.0,0,60,3.0,0.0
7315,66.0,0,30,2.0,0.0
7316,50.0,0,15,12.0,0.0
7317,62.0,15,15,2.0,0.0
7318,49.0,0,15,12.0,0.0
7319,57.0,0,15,1.0,0.0
7320,83.0,15,15,0.0,0.0
7321,50.0,0,15,12.0,0.0
7322,57.0,0,15,1.0,0.0
7323,69.0,15,15,1.0,0.0
7324,54.0,0,60,3.0,0.0
7325,42.0,0,15,4.0,0.0
7326,62.0,0,15,2.0,0.0
7327,66.0,0,15,2.0,0.0
7328,81.0,0,30,0.0,0.0
7329,49.0,15,15,12.0,0.0
7330,50.0,15,15,12.0,0.0
7331,57.0,0,15,1.0,0.0
7332,69.0,0,15,1.0,0.0
7333,66.0,0,15,2.0,0.0
7334,62.0,0,15,2.0,0.0
7335,49.0,15,15,12.0,0.0
7336,50.0,0,15,12.0,0.0
7337,67.0,0,30,1.0,0.0
7338,67.0,0,15,8.0,0.0
7339,59.0,0,30,1.0,0.0
7340,64.0,0,180,10.0,0.0
7341,91.0,0,15,5.0,0.0
7342,43.0,0,60,4.0,0.0
7343,62.0,0,15,2.0,0.0
7344,64.0,0,30,2.0,0.0
7345,62.0,0,180,10.0,0.0
7346,62.0,0,180,11.0,0.0
7347,55.0,0,60,3.0,0.0
7348,79.0,15,15,6.0,0.0
7349,79.0,0,15,0.0,0.0
7350,71.0,0,180,7.0,0.0
7351,49.0,0,15,12.0,0.0
7352,67.0,0,180,7.0,0.0
7353,81.0,0,15,6.0,0.0
7354,50.0,0,15,12.0,0.0
7355,69.0,15,15,8.0,0.0
7356,93.0,0,15,5.0,0.0
7357,81.0,0,15,0.0,0.0
7358,64.0,0,30,2.0,0.0
7359,62.0,0,15,2.0,0.0
7360,91.0,0,60,5.0,0.0
7361,67.0,0,60,8.0,0.0
7362,49.0,15,15,12.0,0.0
7363,79.0,0,60,6.0,0.0
7364,79.0,0,60,0.0,0.0
7365,50.0,0,15,12.0,0.0
7366,55.0,0,60,3.0,0.0
7367,67.0,15,15,1.0,0.0
7368,59.0,0,15,1.0,0.0
7369,49.0,15,15,12.0,0.0
7370,43.0,0,60,4.0,0.0
7371,50.0,15,15,12.0,0.0
7372,78.0,15,30,6.0,0.0
7373,62.0,0,15,2.0,0.0
7374,64.0,0,15,2.0,0.0
7375,78.0,0,15,0.0,0.0
7376,66.0,0,30,8.0,0.0
7377,49.0,15,15,12.0,0.0
7378,90.0,0,30,5.0,0.0
7379,50.0,0,15,12.0,0.0
7380,49.0,15,15,12.0,0.0
7381,55.0,0,60,3.0,0.0
7382,67.0,0,15,1.0,0.0
7383,59.0,0,15,1.0,0.0
7384,76.0,0,30,0.0,0.0
7385,76.0,0,60,6.0,0.0
7386,64.0,0,15,2.0,0.0
7387,62.0,0,15,2.0,0.0
7388,43.0,0,60,4.0,0.0
7389,88.0,15,60,5.0,0.0
7390,64.0,0,60,8.0,0.0
7391,50.0,0,15,12.0,0.0
7392,49.0,15,15,12.0,0.0
7393,67.0,0,15,1.0,0.0
7394,64.0,0,30,2.0,0.0
7395,59.0,15,15,1.0,0.0
7396,50.0,0,15,12.0,0.0
7397,45.0,0,60,4.0,0.0
7398,62.0,0,180,7.0,0.0
7399,66.0,0,180,7.0,0.0
7400,74.0,0,15,6.0,0.0
7401,62.0,0,15,8.0,0.0
7402,50.0,0,15,11.0,0.0
7403,62.0,0,15,2.0,0.0
7404,49.0,15,15,12.0,0.0
7405,74.0,0,15,0.0,0.0
7406,66.0,0,180,10.0,0.0
7407,86.0,0,15,5.0,0.0
7408,62.0,0,180,10.0,0.0
7409,62.0,0,180,11.0,0.0
7410,64.0,0,15,8.0,0.0
7411,76.0,0,15,6.0,0.0
7412,76.0,0,15,0.0,0.0
7413,88.0,15,15,5.0,0.0
7414,50.0,0,15,12.0,0.0
7415,74.0,0,60,6.0,0.0
7416,62.0,0,30,2.0,0.0
7417,66.0,0,15,1.0,0.0
7418,57.0,0,15,1.0,0.0
7419,62.0,0,60,8.0,0.0
7420,49.0,15,15,12.0,0.0
7421,74.0,0,60,0.0,0.0
7422,86.0,0,60,5.0,0.0
7423,50.0,0,15,12.0,0.0
7424,49.0,15,15,12.0,0.0
7425,66.0,15,30,1.0,0.0
7426,57.0,15,15,3.0,0.0
7427,50.0,0,15,12.0,0.0
7428,73.0,0,15,0.0,0.0
7429,57.0,0,15,1.0,0.0
7430,61.0,15,30,8.0,0.0
7431,85.0,0,30,5.0,0.0
7432,73.0,0,30,6.0,0.0
7433,62.0,0,15,2.0,0.0
7434,49.0,15,15,12.0,0.0
7435,50.0,0,15,12.0,0.0
7436,71.0,0,60,6.0,0.0
7437,66.0,0,15,1.0,0.0
7438,83.0,0,60,5.0,0.0
7439,57.0,0,60,3.0,0.0
7440,59.0,0,60,8.0,0.0
7441,71.0,15,30,0.0,0.0
7442,49.0,15,15,12.0,0.0
7443,45.0,0,15,4.0,0.0
7444,50.0,0,15,12.0,0.0
7445,62.0,0,15,2.0,0.0
7446,66.0,0,15,1.0,0.0
7447,57.0,0,15,1.0,0.0
7448,49.0,15,15,12.0,0.0
7449,50.0,0,15,12.0,0.0
7450,67.0,0,180,7.0,0.0
7451,69.0,0,15,6.0,0.0
7452,45.0,0,180,11.0,0.0
7453,57.0,0,180,11.0,0.0
7454,57.0,0,15,8.0,0.0
7455,61.0,0,30,2.0,0.0
7456,33.0,0,60,4.0,0.0
7457,81.0,15,15,5.0,0.0
7458,45.0,0,60,3.0,0.0
7459,57.0,0,180,10.0,0.0
7460,64.0,0,180,10.0,0.0
7461,64.0,0,30,1.0,0.0
7462,55.0,0,30,1.0,0.0
7463,69.0,0,15,0.0,0.0
7464,64.0,0,180,7.0,0.0
7465,71.0,30,15,6.0,0.0
7466,83.0,0,15,5.0,0.0
7467,59.0,0,15,8.0,0.0
7468,71.0,0,15,0.0,0.0
7469,55.0,30,30,1.0,0.0
7470,57.0,0,60,8.0,0.0
7471,61.0,0,30,2.0,0.0
7472,69.0,15,60,0.0,0.0
7473,69.0,0,60,6.0,0.0
7474,81.0,0,60,5.0,0.0
7475,64.0,0,30,1.0,0.0
7476,45.0,0,60,3.0,0.0
7477,45.0,0,15,12.0,0.0
7478,64.0,0,15,1.0,0.0
7479,55.0,0,15,1.0,0.0
7480,67.0,0,30,6.0,0.0
7481,79.0,0,30,5.0,0.0
7482,61.0,0,15,2.0,0.0
7483,55.0,30,30,8.0,0.0
7484,67.0,15,15,0.0,0.0
7485,54.0,0,60,8.0,0.0
7486,33.0,0,15,4.0,0.0
7487,45.0,120,60,12.0,0.0
7488,78.0,0,60,5.0,0.0
7489,45.0,0,60,3.0,0.0
7490,64.0,0,30,0.0,0.0
7491,66.0,0,60,6.0,0.0
7492,61.0,0,15,2.0,0.0
7493,64.0,0,15,1.0,0.0
7494,55.0,0,15,1.0,0.0
7495,61.0,0,15,2.0,0.0
7496,55.0,0,30,1.0,0.0
7497,64.0,30,15,1.0,0.0
7498,74.0,60,120,5.0,0.0
7499,62.0,0,120,6.0,0.0
7500,38.0,90,540,4.0,0.0
7501,62.0,0,120,10.0,0.0
7502,54.0,0,120,10.0,0.0
7503,62.0,15,180,2.0,0.0
7504,50.0,0,180,3.0,0.0
7505,62.0,0,540,0.0,0.0
7506,50.0,0,120,11.0,0.0
7507,62.0,0,120,7.0,0.0
7508,50.0,0,120,8.0,0.0
7509,62.0,0,180,1.0,0.0
7510,50.0,0,120,12.0,0.0
7511,61.0,0,15,2.0,0.0
7512,61.0,15,15,1.0,0.0
7513,49.0,0,15,3.0,0.0
7514,62.0,60,15,2.0,0.0
7515,62.0,0,15,1.0,0.0
7516,50.0,0,15,3.0,0.0
7517,49.0,15,60,3.0,0.0
7518,61.0,0,60,2.0,0.0
7519,61.0,0,60,1.0,0.0
7520,59.0,45,15,1.0,0.0
7521,59.0,0,15,2.0,0.0
7522,47.0,0,15,3.0,0.0
7523,45.0,0,30,3.0,0.0
7524,57.0,120,30,1.0,0.0
7525,57.0,0,30,2.0,0.0
7526,50.0,0,90,3.0,0.0
7527,62.0,15,90,1.0,0.0
7528,62.0,0,90,2.0,0.0
7529,54.0,0,15,3.0,0.0
7530,66.0,0,15,1.0,0.0
7531,66.0,45,15,2.0,0.0
7532,69.0,0,30,1.0,0.0
7533,69.0,0,30,2.0,0.0
7534,57.0,30,30,3.0,0.0
7535,79.0,0,90,6.0,0.0
7536,76.0,0,90,6.0,0.0
7537,81.0,0,90,5.0,0.0
7538,57.0,0,90,10.0,0.0
7539,81.0,0,90,0.0,0.0
7540,73.0,0,90,7.0,0.0
7541,76.0,0,90,7.0,0.0
7542,45.0,0,15,3.0,0.0
7543,45.0,0,15,12.0,0.0
7544,57.0,0,15,11.0,0.0
7545,64.0,0,15,10.0,0.0
7546,45.0,15,15,11.0,0.0
7547,33.0,0,15,4.0,0.0
7548,83.0,0,15,5.0,0.0
7549,83.0,0,15,0.0,0.0
7550,55.0,0,15,8.0,0.0
7551,69.0,0,15,0.0,0.0
7552,52.0,0,15,8.0,0.0
7553,76.0,0,15,6.0,0.0
7554,79.0,0,15,6.0,0.0
7555,73.0,0,15,7.0,0.0
7556,76.0,0,15,7.0,0.0
7557,52.0,0,15,8.0,0.0
7558,85.0,30,30,0.0,0.0
7559,55.0,0,60,8.0,0.0
7560,69.0,0,30,0.0,0.0
7561,45.0,0,15,11.0,0.0
7562,57.0,0,15,11.0,0.0
7563,45.0,0,60,12.0,0.0
7564,85.0,0,30,5.0,0.0
7565,64.0,0,60,10.0,0.0
7566,45.0,0,15,3.0,0.0
7567,57.0,30,15,10.0,0.0
7568,33.0,0,60,4.0,0.0
7569,50.0,0,180,10.0,0.0
7570,50.0,60,120,12.0,0.0
7571,38.0,90,540,4.0,0.0
7572,50.0,0,180,8.0,0.0
7573,62.0,0,180,10.0,0.0
7574,74.0,0,180,7.0,0.0
7575,62.0,0,180,0.0,0.0
7576,86.0,0,180,5.0,0.0
7577,78.0,0,180,7.0,0.0
7578,54.0,0,180,8.0,0.0
7579,62.0,0,180,1.0,0.0
7580,50.0,0,180,11.0,0.0
7581,62.0,0,180,11.0,0.0
7582,69.0,0,180,0.0,0.0
7583,86.0,0,180,0.0,0.0
7584,62.0,0,180,2.0,0.0
7585,74.0,0,180,6.0,0.0
7586,78.0,0,180,6.0,0.0
7587,50.0,15,180,3.0,0.0
7588,61.0,15,15,1.0,0.0
7589,61.0,0,15,2.0,0.0
7590,49.0,0,15,3.0,0.0
7591,50.0,0,15,3.0,0.0
7592,62.0,0,15,2.0,0.0
7593,62.0,60,15,1.0,0.0
7594,61.0,0,60,2.0,0.0
7595,61.0,15,60,1.0,0.0
7596,49.0,0,60,3.0,0.0
7597,47.0,45,15,3.0,0.0
7598,59.0,0,15,2.0,0.0
7599,59.0,0,15,1.0,0.0
7600,45.0,0,30,3.0,0.0
7601,57.0,0,30,2.0,0.0
7602,57.0,120,30,1.0,0.0
7603,62.0,15,90,2.0,0.0
7604,62.0,0,90,1.0,0.0
7605,50.0,0,90,3.0,0.0
7606,66.0,0,15,1.0,0.0
7607,54.0,0,15,3.0,0.0
7608,66.0,45,15,2.0,0.0
7609,57.0,0,30,3.0,0.0
7610,69.0,30,30,2.0,0.0
7611,69.0,0,30,1.0,0.0
7612,81.0,0,90,0.0,0.0
7613,81.0,0,90,5.0,0.0
7614,33.0,0,90,4.0,0.0
7615,64.0,0,90,10.0,0.0
7616,57.0,0,90,10.0,0.0
7617,79.0,0,90,6.0,0.0
7618,45.0,0,90,3.0,0.0
7619,76.0,0,90,7.0,0.0
7620,52.0,0,90,8.0,0.0
7621,69.0,0,15,1.0,0.0
7622,79.0,0,15,1.0,0.0
7623,57.0,0,15,11.0,0.0
7624,73.0,0,15,7.0,0.0
7625,33.0,0,30,4.0,0.0
7626,45.0,0,15,11.0,0.0
7627,76.0,0,15,6.0,0.0
7628,45.0,15,15,12.0,0.0
7629,83.0,15,15,5.0,0.0
7630,83.0,0,15,0.0,0.0
7631,69.0,0,15,0.0,0.0
7632,55.0,0,15,8.0,0.0
7633,57.0,0,15,2.0,0.0
7634,45.0,0,15,3.0,0.0
7635,57.0,0,60,11.0,0.0
7636,57.0,0,15,10.0,0.0
7637,45.0,0,60,11.0,0.0
7638,85.0,0,30,0.0,0.0
7639,57.0,0,15,2.0,0.0
7640,76.0,30,15,7.0,0.0
7641,64.0,0,15,10.0,0.0
7642,73.0,0,15,7.0,0.0
7643,52.0,0,15,8.0,0.0
7644,55.0,0,15,8.0,0.0
7645,45.0,0,15,12.0,0.0
7646,85.0,30,30,5.0,0.0
7647,69.0,0,30,0.0,0.0
7648,69.0,0,60,1.0,0.0
7649,79.0,0,15,1.0,0.0
7650,76.0,0,15,6.0,0.0
7651,33.0,0,60,4.0,0.0
7652,79.0,0,15,6.0,0.0
7653,86.0,0,120,5.0,0.0
7654,62.0,0,60,2.0,0.0
7655,62.0,30,120,11.0,0.0
7656,50.0,0,120,11.0,0.0
7657,62.0,0,120,0.0,0.0
7658,86.0,0,120,0.0,0.0
7659,78.0,0,120,0.0,0.0
7660,69.0,0,60,1.0,0.0
7661,38.0,0,60,4.0,0.0
7662,78.0,0,120,7.0,0.0
7663,74.0,0,120,7.0,0.0
7664,50.0,0,120,8.0,0.0
7665,78.0,0,120,6.0,0.0
7666,74.0,0,120,6.0,0.0
7667,50.0,0,120,12.0,0.0
7668,78.0,0,60,1.0,0.0
7669,50.0,60,60,3.0,0.0
7670,62.0,0,120,10.0,0.0
7671,54.0,0,120,8.0,0.0
7672,54.0,0,120,10.0,0.0
7673,45.0,0,30,4.0,0.0
7674,57.0,90,30,3.0,0.0
7675,69.0,0,30,2.0,0.0
7676,54.0,0,120,8.0,0.0
7677,50.0,0,120,8.0,0.0
7678,78.0,0,120,1.0,0.0
7679,38.0,0,60,4.0,0.0
7680,54.0,0,120,10.0,0.0
7681,62.0,0,120,10.0,0.0
7682,86.0,0,120,0.0,0.0
7683,74.0,0,120,7.0,0.0
7684,78.0,0,120,7.0,0.0
7685,78.0,0,120,0.0,0.0
7686,62.0,0,120,0.0,0.0
7687,78.0,0,120,6.0,0.0
7688,74.0,0,120,6.0,0.0
7689,86.0,0,120,5.0,0.0
7690,62.0,60,60,2.0,0.0
7691,50.0,0,60,3.0,0.0
7692,69.0,30,120,1.0,0.0
7693,69.0,90,30,2.0,0.0
7694,45.0,0,30,4.0,0.0
7695,57.0,0,30,3.0,0.0
7696,50.0,0,60,3.0,0.0
7697,74.0,0,120,6.0,0.0
7698,86.0,0,120,0.0,0.0
7699,50.0,0,120,8.0,0.0
7700,78.0,0,120,0.0,0.0
7701,69.0,0,120,1.0,0.0
7702,62.0,0,120,0.0,0.0
7703,78.0,0,120,1.0,0.0
7704,54.0,0,120,8.0,0.0
7705,78.0,30,120,6.0,0.0
7706,74.0,0,120,7.0,0.0
7707,78.0,0,120,7.0,0.0
7708,62.0,0,60,2.0,0.0
7709,86.0,0,120,5.0,0.0
7710,38.0,60,60,4.0,0.0
7711,62.0,0,120,10.0,0.0
7712,54.0,0,120,10.0,0.0
7713,45.0,90,30,4.0,0.0
7714,69.0,0,30,2.0,0.0
7715,57.0,0,30,3.0,0.0
7716,50.0,0,60,3.0,0.0
7717,78.0,0,120,6.0,0.0
7718,86.0,0,120,0.0,0.0
7719,74.0,30,120,6.0,0.0
7720,78.0,0,120,0.0,0.0
7721,54.0,0,120,10.0,0.0
7722,62.0,0,120,10.0,0.0
7723,69.0,0,120,1.0,0.0
7724,54.0,0,120,8.0,0.0
7725,50.0,0,120,8.0,0.0
7726,38.0,60,60,4.0,0.0
7727,78.0,0,120,1.0,0.0
7728,62.0,0,60,2.0,0.0
7729,74.0,0,120,7.0,0.0
7730,78.0,0,120,7.0,0.0
7731,86.0,0,120,5.0,0.0
7732,62.0,0,120,0.0,0.0
7733,69.0,0,30,2.0,0.0
7734,45.0,0,30,4.0,0.0
7735,57.0,150,30,3.0,0.0
7736,62.0,0,120,2.0,0.0
7737,74.0,0,120,7.0,0.0
7738,78.0,0,120,7.0,0.0
7739,78.0,0,120,1.0,0.0
7740,69.0,30,120,1.0,0.0
7741,38.0,0,120,4.0,0.0
7742,86.0,0,120,5.0,0.0
7743,86.0,0,120,0.0,0.0
7744,78.0,0,120,6.0,0.0
7745,74.0,0,120,6.0,0.0
7746,62.0,0,120,10.0,0.0
7747,54.0,0,120,10.0,0.0
7748,54.0,0,120,8.0,0.0
7749,50.0,0,120,3.0,0.0
7750,78.0,0,120,0.0,0.0
7751,62.0,0,120,0.0,0.0
7752,50.0,0,120,8.0,0.0
7753,69.0,0,30,0.0,0.0
7754,57.0,90,30,2.0,0.0
7755,69.0,0,30,1.0,0.0
7756,62.0,90,60,1.0,0.0
7757,62.0,0,60,0.0,0.0
7758,50.0,0,60,2.0,0.0
7759,57.0,0,30,2.0,0.0
7760,69.0,90,30,0.0,0.0
7761,69.0,0,30,1.0,0.0
7762,50.0,60,60,2.0,0.0
7763,62.0,60,120,13.0,0.0
7764,62.0,0,60,0.0,0.0
7765,62.0,0,60,1.0,0.0
7766,69.0,120,60,13.0,0.0
7767,62.0,60,120,13.0,0.0
7768,69.0,15,60,13.0,0.0
7769,62.0,60,30,10.0,0.0
7770,66.0,0,30,10.0,0.0
7771,69.0,15,15,13.0,0.0
7772,81.0,30,540,13.0,0.0
7773,64.0,60,30,10.0,0.0
7774,67.0,0,30,10.0,0.0
7775,69.0,60,30,10.0,0.0
7776,66.0,0,30,10.0,0.0
7777,67.0,0,30,10.0,0.0
7778,64.0,60,30,10.0,0.0
7779,62.0,60,30,10.0,0.0
7780,66.0,0,30,10.0,0.0
7781,57.0,60,30,10.0,0.0
7782,64.0,0,30,10.0,0.0
7783,62.0,60,30,10.0,0.0
7784,54.0,0,30,10.0,0.0
7785,57.0,0,30,10.0,0.0
7786,64.0,60,30,10.0,0.0
7787,66.0,30,30,10.0,0.0
7788,62.0,0,30,10.0,0.0
7789,79.0,30,60,13.0,0.0
7790,64.0,0,30,10.0,0.0
7791,57.0,30,30,10.0,0.0
7792,62.0,30,30,10.0,0.0
7793,66.0,0,30,10.0,0.0
7794,78.0,30,60,13.0,0.0
7795,76.0,30,60,13.0,0.0
7796,64.0,30,30,10.0,0.0
7797,67.0,0,30,10.0,0.0
7798,74.0,30,60,13.0,0.0
7799,54.0,0,30,10.0,0.0
7800,62.0,30,30,10.0,0.0
7801,76.0,30,60,13.0,0.0
7802,64.0,30,30,10.0,0.0
7803,57.0,0,30,10.0,0.0
7804,78.0,30,60,13.0,0.0
7805,66.0,30,30,10.0,0.0
7806,62.0,0,30,10.0,0.0
7807,79.0,30,60,13.0,0.0
7808,67.0,0,30,10.0,0.0
7809,64.0,30,30,10.0,0.0
7810,57.0,0,30,10.0,0.0
7811,64.0,30,30,10.0,0.0
7812,76.0,30,60,13.0,0.0
7813,78.0,120,60,13.0,0.0
7814,66.0,30,30,10.0,0.0
7815,62.0,0,30,10.0,0.0
7816,45.0,0,180,3.0,0.0
7817,61.0,180,180,1.0,0.0
7818,76.0,0,120,13.0,0.0
7819,57.0,60,120,10.0,0.0
7820,64.0,0,120,10.0,0.0
7821,33.0,0,180,4.0,0.0
7822,64.0,0,180,0.0,0.0
7823,62.0,0,300,10.0,0.0
7824,50.0,0,300,10.0,0.0
7825,38.0,0,180,4.0,0.0
7826,60.0,0,180,1.0,0.0
7827,57.0,0,15,2.0,0.0
7828,66.0,0,180,0.0,0.0
7829,50.0,0,180,3.0,0.0
7830,55.0,0,120,2.0,0.0
7831,67.0,0,120,0.0,0.0
7832,31.0,30,120,4.0,0.0
7833,43.0,0,120,3.0,0.0
7834,71.0,0,30,6.0,0.0
7835,67.0,60,30,7.0,0.0
7836,74.0,15,15,13.0,0.0
7837,59.0,0,120,1.0,0.0
7838,86.0,30,540,13.0,0.0
7839,69.0,0,30,7.0,0.0
7840,72.0,30,30,6.0,0.0
7841,71.0,60,30,7.0,0.0
7842,74.0,0,30,6.0,0.0
7843,72.0,60,30,6.0,0.0
7844,69.0,0,30,7.0,0.0
7845,67.0,60,30,7.0,0.0
7846,71.0,0,30,6.0,0.0
7847,62.0,0,30,7.0,0.0
7848,69.0,60,30,6.0,0.0
7849,59.0,0,30,7.0,0.0
7850,67.0,60,30,6.0,0.0
7851,69.0,0,30,6.0,0.0
7852,62.0,60,30,7.0,0.0
7853,67.0,0,30,7.0,0.0
7854,71.0,30,30,6.0,0.0
7855,84.0,0,30,13.0,0.0
7856,69.0,0,30,7.0,0.0
7857,69.0,30,30,6.0,0.0
7858,83.0,30,30,13.0,0.0
7859,62.0,0,30,7.0,0.0
7860,71.0,0,30,6.0,0.0
7861,86.0,30,30,13.0,0.0
7862,84.0,30,30,13.0,0.0
7863,72.0,0,30,6.0,0.0
7864,67.0,0,30,7.0,0.0
7865,83.0,30,30,13.0,0.0
7866,81.0,30,30,13.0,0.0
7867,59.0,0,30,7.0,0.0
7868,79.0,30,30,13.0,0.0
7869,67.0,0,30,6.0,0.0
7870,74.0,30,30,13.0,0.0
7871,62.0,0,30,7.0,0.0
7872,81.0,0,30,13.0,0.0
7873,69.0,30,30,6.0,0.0
7874,74.0,30,30,13.0,0.0
7875,83.0,0,30,13.0,0.0
7876,67.0,30,30,7.0,0.0
7877,71.0,0,30,6.0,0.0
7878,74.0,30,30,13.0,0.0
7879,69.0,30,30,7.0,0.0
7880,72.0,0,30,6.0,0.0
7881,84.0,0,30,13.0,0.0
7882,74.0,30,30,13.0,0.0
7883,69.0,30,30,6.0,0.0
7884,62.0,0,30,7.0,0.0
7885,81.0,0,30,13.0,0.0
7886,74.0,30,30,13.0,0.0
7887,71.0,0,30,6.0,0.0
7888,55.0,0,60,8.0,0.0
7889,67.0,30,30,7.0,0.0
7890,67.0,0,60,1.0,0.0
7891,55.0,0,60,3.0,0.0
7892,71.0,0,60,0.0,0.0
7893,83.0,0,30,13.0,0.0
7894,43.0,30,60,4.0,0.0
7895,74.0,0,30,13.0,0.0
7896,50.0,0,120,3.0,0.0
7897,62.0,0,120,7.0,0.0
7898,66.0,0,30,1.0,0.0
7899,69.0,0,30,0.0,0.0
7900,38.0,30,120,4.0,0.0
7901,81.0,0,120,13.0,0.0
7902,57.0,0,30,8.0,0.0
7903,54.0,60,30,8.0,0.0
7904,69.0,0,120,6.0,0.0
7905,71.0,30,30,0.0,0.0
7906,59.0,0,30,8.0,0.0
7907,67.0,0,30,1.0,0.0
7908,55.0,0,30,8.0,0.0
7909,69.0,0,30,1.0,0.0
7910,57.0,0,30,8.0,0.0
7911,60.0,0,30,8.0,0.0
7912,72.0,60,30,0.0,0.0
7913,71.0,60,30,1.0,0.0
7914,62.0,0,30,8.0,0.0
7915,74.0,0,30,0.0,0.0
7916,59.0,0,30,8.0,0.0
7917,55.0,0,30,8.0,0.0
7918,59.0,0,30,8.0,0.0
7919,71.0,60,30,0.0,0.0
7920,67.0,0,30,1.0,0.0
7921,72.0,0,30,0.0,0.0
7922,50.0,0,60,4.0,0.0
7923,62.0,0,60,3.0,0.0
7924,57.0,0,30,8.0,0.0
7925,60.0,0,30,8.0,0.0
7926,69.0,30,30,1.0,0.0
7927,78.0,0,30,13.0,0.0
7928,74.0,30,30,13.0,0.0
7929,79.0,0,30,13.0,0.0
7930,71.0,0,120,0.0,0.0
7931,43.0,0,120,4.0,0.0
7932,55.0,0,120,3.0,0.0
7933,59.0,30,120,8.0,0.0
7934,55.0,0,120,8.0,0.0
7935,67.0,0,30,6.0,0.0
7936,59.0,30,30,7.0,0.0
7937,67.0,0,120,1.0,0.0
7938,74.0,30,30,13.0,0.0
7939,81.0,0,30,13.0,0.0
7940,62.0,0,30,7.0,0.0
7941,69.0,30,30,6.0,0.0
7942,74.0,0,30,13.0,0.0
7943,83.0,0,30,13.0,0.0
7944,67.0,0,30,7.0,0.0
7945,71.0,30,30,6.0,0.0
7946,74.0,30,30,13.0,0.0
7947,67.0,0,30,7.0,0.0
7948,79.0,30,30,13.0,0.0
7949,71.0,0,30,6.0,0.0
7950,81.0,30,30,13.0,0.0
7951,71.0,0,30,7.0,0.0
7952,79.0,0,30,13.0,0.0
7953,67.0,0,60,1.0,0.0
7954,71.0,0,60,0.0,0.0
7955,79.0,30,30,6.0,0.0
7956,78.0,0,30,13.0,0.0
7957,67.0,0,30,7.0,0.0
7958,67.0,60,60,0.0,0.0
7959,76.0,30,30,13.0,0.0
7960,64.0,0,60,1.0,0.0
7961,40.0,0,15,4.0,0.0
7962,52.0,30,15,3.0,0.0
7963,76.0,0,30,6.0,0.0
7964,74.0,0,30,13.0,0.0
7965,73.0,0,120,6.0,0.0
7966,64.0,60,120,7.0,0.0
7967,57.0,0,120,3.0,0.0
7968,61.0,0,60,1.0,0.0
7969,45.0,0,120,4.0,0.0
7970,64.0,60,60,0.0,0.0
7971,73.0,0,120,13.0,0.0
7972,62.0,0,60,1.0,0.0
7973,66.0,0,60,0.0,0.0
7974,67.0,60,60,0.0,0.0
7975,64.0,0,60,1.0,0.0
7976,69.0,60,60,0.0,0.0
7977,66.0,0,60,1.0,0.0
7978,62.0,30,60,1.0,0.0
7979,66.0,0,60,0.0,0.0
7980,45.0,0,60,4.0,0.0
7981,57.0,0,60,10.0,0.0
7982,64.0,0,60,10.0,0.0
7983,73.0,0,60,6.0,0.0
7984,64.0,30,60,1.0,0.0
7985,57.0,0,60,3.0,0.0
7986,67.0,0,60,0.0,0.0
7987,85.0,30,30,13.0,0.0
7988,81.0,0,30,13.0,0.0
7989,38.0,0,120,4.0,0.0
7990,50.0,30,120,3.0,0.0
7991,74.0,0,30,6.0,0.0
7992,86.0,0,30,13.0,0.0
7993,62.0,0,120,1.0,0.0
7994,69.0,0,15,7.0,0.0
7995,66.0,0,120,0.0,0.0
7996,62.0,0,30,10.0,0.0
7997,54.0,0,30,10.0,0.0
7998,81.0,30,30,13.0,0.0
7999,76.0,0,30,6.0,0.0
8000,73.0,0,30,7.0,0.0
8001,64.0,30,30,10.0,0.0
8002,88.0,0,30,13.0,0.0
8003,57.0,0,30,10.0,0.0
8004,81.0,0,30,13.0,0.0
8005,90.0,0,30,13.0,0.0
8006,62.0,30,30,10.0,0.0
8007,74.0,0,30,7.0,0.0
8008,78.0,0,30,6.0,0.0
8009,66.0,0,30,10.0,0.0
8010,81.0,30,30,13.0,0.0
8011,76.0,0,30,7.0,0.0
8012,64.0,0,30,10.0,0.0
8013,79.0,0,30,6.0,0.0
8014,67.0,30,30,10.0,0.0
8015,91.0,0,30,13.0,0.0
8016,81.0,30,30,13.0,0.0
8017,76.0,0,30,6.0,0.0
8018,88.0,30,30,13.0,0.0
8019,73.0,0,30,7.0,0.0
8020,64.0,0,30,10.0,0.0
8021,57.0,0,30,10.0,0.0
8022,81.0,30,30,13.0,0.0
8023,66.0,0,30,10.0,0.0
8024,62.0,30,30,10.0,0.0
8025,50.0,0,60,4.0,0.0
8026,78.0,0,30,6.0,0.0
8027,90.0,0,30,13.0,0.0
8028,62.0,60,60,3.0,0.0
8029,66.0,0,60,0.0,0.0
8030,62.0,0,60,1.0,0.0
8031,74.0,0,30,7.0,0.0
8032,81.0,0,30,13.0,0.0
8033,45.0,0,120,4.0,0.0
8034,88.0,60,120,13.0,0.0
8035,76.0,0,120,6.0,0.0
8036,57.0,0,120,3.0,0.0
8037,61.0,60,60,1.0,0.0
8038,57.0,0,120,10.0,0.0
8039,73.0,0,120,7.0,0.0
8040,64.0,0,60,0.0,0.0
8041,64.0,0,120,10.0,0.0
8042,66.0,0,60,0.0,0.0
8043,62.0,0,60,1.0,0.0
8044,64.0,0,60,1.0,0.0
8045,67.0,60,60,0.0,0.0
8046,66.0,0,60,1.0,0.0
8047,69.0,60,60,0.0,0.0
8048,62.0,30,60,1.0,0.0
8049,66.0,0,60,0.0,0.0
8050,67.0,0,60,0.0,0.0
8051,57.0,0,60,3.0,0.0
8052,73.0,30,30,13.0,0.0
8053,57.0,0,60,10.0,0.0
8054,45.0,0,60,4.0,0.0
8055,73.0,0,60,6.0,0.0
8056,69.0,0,60,7.0,0.0
8057,64.0,30,60,10.0,0.0
8058,64.0,0,60,1.0,0.0
8059,69.0,0,30,13.0,0.0
8060,74.0,0,30,6.0,0.0
8061,62.0,0,120,1.0,0.0
8062,38.0,0,120,4.0,0.0
8063,66.0,0,120,0.0,0.0
8064,69.0,0,30,7.0,0.0
8065,50.0,0,120,3.0,0.0
8066,62.0,0,30,10.0,0.0
8067,54.0,0,30,10.0,0.0
8068,74.0,30,30,13.0,0.0
8069,69.0,30,30,13.0,0.0
8070,57.0,0,30,10.0,0.0
8071,64.0,0,30,10.0,0.0
8072,76.0,0,30,13.0,0.0
8073,73.0,0,30,7.0,0.0
8074,76.0,30,30,6.0,0.0
8075,69.0,30,30,13.0,0.0
8076,66.0,0,30,10.0,0.0
8077,62.0,0,30,10.0,0.0
8078,74.0,0,30,7.0,0.0
8079,78.0,30,30,6.0,0.0
8080,78.0,0,30,13.0,0.0
8081,69.0,30,30,13.0,0.0
8082,67.0,0,30,10.0,0.0
8083,64.0,30,30,10.0,0.0
8084,76.0,0,30,7.0,0.0
8085,79.0,0,30,13.0,0.0
8086,79.0,0,30,6.0,0.0
8087,69.0,30,30,13.0,0.0
8088,76.0,30,30,13.0,0.0
8089,57.0,0,30,10.0,0.0
8090,64.0,0,30,10.0,0.0
8091,73.0,0,30,7.0,0.0
8092,76.0,0,30,6.0,0.0
8093,69.0,30,30,13.0,0.0
8094,62.0,0,60,3.0,0.0
8095,62.0,0,60,1.0,0.0
8096,78.0,30,30,13.0,0.0
8097,78.0,0,30,6.0,0.0
8098,66.0,0,60,0.0,0.0
8099,50.0,0,60,4.0,0.0
8100,62.0,0,30,10.0,0.0
8101,74.0,0,30,7.0,0.0
8102,66.0,0,30,10.0,0.0
8103,69.0,30,30,13.0,0.0
8104,73.0,0,120,7.0,0.0
8105,57.0,0,120,10.0,0.0
8106,64.0,0,120,10.0,0.0
8107,57.0,0,120,3.0,0.0
8108,64.0,30,120,0.0,0.0
8109,45.0,0,120,4.0,0.0
8110,76.0,0,120,6.0,0.0
8111,61.0,0,120,1.0,0.0
8112,76.0,30,30,13.0,0.0
8113,81.0,30,30,13.0,0.0
8114,80.0,30,30,13.0,0.0
8115,81.0,0,30,13.0,0.0
8116,80.0,30,30,13.0,0.0
8117,73.0,30,30,13.0,0.0
8118,73.0,0,120,7.0,0.0
8119,64.0,0,120,10.0,0.0
8120,57.0,0,120,10.0,0.0
8121,45.0,0,120,4.0,0.0
8122,57.0,0,120,3.0,0.0
8123,64.0,0,120,0.0,0.0
8124,69.0,30,30,13.0,0.0
8125,76.0,30,120,6.0,0.0
8126,61.0,0,120,1.0,0.0
8127,76.0,30,30,13.0,0.0
8128,73.0,30,30,13.0,0.0
8129,69.0,0,30,13.0,0.0
8130,64.0,30,30,13.0,0.0
8131,61.0,30,30,13.0,0.0
8132,76.0,0,120,6.0,0.0
8133,57.0,0,120,10.0,0.0
8134,61.0,30,120,1.0,0.0
8135,57.0,0,120,2.0,0.0
8136,64.0,0,120,10.0,0.0
8137,73.0,0,120,7.0,0.0
8138,33.0,0,120,4.0,0.0
8139,45.0,0,120,3.0,0.0
8140,57.0,30,30,13.0,0.0
8141,64.0,0,120,0.0,0.0
8142,61.0,30,30,13.0,0.0
8143,64.0,30,30,13.0,0.0
8144,69.0,0,30,13.0,0.0
8145,73.0,30,30,13.0,0.0
8146,76.0,90,30,13.0,0.0
8147,81.0,30,120,13.0,0.0
8148,69.0,0,30,1.0,0.0
8149,81.0,30,30,0.0,0.0
8150,78.0,0,30,0.0,0.0
8151,66.0,150,30,1.0,0.0
8152,69.0,0,180,6.0,0.0
8153,69.0,0,180,7.0,0.0
8154,66.0,0,120,1.0,0.0
8155,54.0,0,120,2.0,0.0
8156,78.0,0,180,6.0,0.0
8157,62.0,0,120,13.0,0.0
8158,66.0,0,180,7.0,0.0
8159,50.0,0,120,12.0,0.0
8160,62.0,0,180,10.0,0.0
8161,38.0,120,180,4.0,0.0
8162,62.0,0,120,8.0,0.0
8163,50.0,0,180,8.0,0.0
8164,50.0,0,120,11.0,0.0
8165,62.0,0,120,11.0,0.0
8166,74.0,60,120,0.0,0.0
8167,86.0,0,180,5.0,0.0
8168,54.0,0,180,10.0,0.0
8169,50.0,0,180,3.0,0.0
8170,69.0,0,60,0.0,0.0
8171,57.0,0,60,1.0,0.0
8172,57.0,0,60,8.0,0.0
8173,57.0,0,60,2.0,0.0
8174,85.0,0,180,5.0,0.0
8175,79.0,0,180,6.0,0.0
8176,76.0,0,120,0.0,0.0
8177,64.0,0,120,1.0,0.0
8178,57.0,120,180,10.0,0.0
8179,76.0,0,180,6.0,0.0
8180,64.0,0,180,10.0,0.0
8181,64.0,0,120,8.0,0.0
8182,33.0,0,180,4.0,0.0
8183,45.0,0,120,12.0,0.0
8184,57.0,0,120,11.0,0.0
8185,67.0,0,180,7.0,0.0
8186,45.0,0,120,11.0,0.0
8187,55.0,60,120,2.0,0.0
8188,73.0,0,180,7.0,0.0
8189,45.0,0,180,8.0,0.0
8190,45.0,0,180,3.0,0.0
8191,57.0,0,60,1.0,0.0
8192,57.0,0,60,8.0,0.0
8193,57.0,0,60,2.0,0.0
8194,69.0,0,60,0.0,0.0
8195,66.0,60,180,1.0,0.0
8196,62.0,0,240,11.0,0.0
8197,78.0,0,180,6.0,0.0
8198,86.0,0,240,5.0,0.0
8199,74.0,0,240,6.0,0.0
8200,50.0,0,240,11.0,0.0
8201,50.0,0,240,8.0,0.0
8202,50.0,0,240,3.0,0.0
8203,78.0,0,180,0.0,0.0
8204,66.0,0,180,8.0,0.0
8205,74.0,0,240,7.0,0.0
8206,66.0,0,240,7.0,0.0
8207,57.0,0,180,2.0,0.0
8208,66.0,0,180,10.0,0.0
8209,50.0,60,120,12.0,0.0
8210,38.0,0,240,4.0,0.0
8211,62.0,0,180,10.0,0.0
8212,62.0,0,60,8.0,0.0
8213,62.0,45,60,1.0,0.0
8214,54.0,0,60,2.0,0.0
8215,74.0,0,60,0.0,0.0
8216,50.0,0,60,12.0,0.0
8217,62.0,0,60,10.0,0.0
8218,54.0,0,60,10.0,0.0
8219,78.0,60,40,13.0,0.0
8220,62.0,0,40,13.0,0.0
8221,71.0,135,40,13.0,0.0
8222,74.0,0,40,13.0,0.0
8223,67.0,0,120,13.0,0.0
8224,71.0,60,120,13.0,0.0
8225,64.0,0,60,13.0,0.0
8226,67.0,90,60,13.0,0.0
8227,61.0,0,120,13.0,0.0
8228,64.0,30,120,13.0,0.0
8229,57.0,30,30,3.0,0.0
8230,50.0,30,30,3.0,0.0
8231,66.0,120,60,13.0,0.0
8232,62.0,0,60,13.0,0.0
8233,64.0,0,180,13.0,0.0
8234,45.0,60,120,3.0,0.0
8235,61.0,90,180,13.0,0.0
8236,57.0,30,120,13.0,0.0
8237,69.0,0,120,13.0,0.0
8238,69.0,0,30,1.0,0.0
8239,81.0,0,30,0.0,0.0
8240,53.0,30,30,2.0,0.0
8241,77.0,0,30,0.0,0.0
8242,65.0,150,30,1.0,0.0
8243,57.0,0,30,2.0,0.0
8244,62.0,0,120,1.0,0.0
8245,50.0,0,180,8.0,0.0
8246,50.0,0,180,3.0,0.0
8247,65.0,0,180,7.0,0.0
8248,74.0,0,180,7.0,0.0
8249,74.0,0,180,6.0,0.0
8250,50.0,0,120,12.0,0.0
8251,62.0,0,120,8.0,0.0
8252,62.0,0,180,10.0,0.0
8253,53.0,60,120,2.0,0.0
8254,62.0,0,180,11.0,0.0
8255,50.0,0,180,11.0,0.0
8256,86.0,0,180,5.0,0.0
8257,50.0,120,180,10.0,0.0
8258,74.0,0,120,0.0,0.0
8259,38.0,0,180,4.0,0.0
8260,57.0,0,60,1.0,0.0
8261,57.0,0,60,8.0,0.0
8262,57.0,0,60,2.0,0.0
8263,69.0,0,60,0.0,0.0
8264,64.0,0,120,1.0,0.0
8265,57.0,0,180,11.0,0.0
8266,45.0,120,180,11.0,0.0
8267,45.0,0,180,3.0,0.0
8268,64.0,0,120,8.0,0.0
8269,67.0,0,180,7.0,0.0
8270,73.0,0,180,7.0,0.0
8271,33.0,0,180,4.0,0.0
8272,45.0,0,120,12.0,0.0
8273,76.0,60,120,0.0,0.0
8274,55.0,0,120,2.0,0.0
8275,45.0,0,180,8.0,0.0
8276,73.0,0,180,6.0,0.0
8277,85.0,0,180,5.0,0.0
8278,57.0,0,180,10.0,0.0
8279,76.0,0,180,6.0,0.0
8280,45.0,0,180,10.0,0.0
8281,57.0,0,60,8.0,0.0
8282,57.0,0,60,1.0,0.0
8283,69.0,0,60,0.0,0.0
8284,77.0,60,180,6.0,0.0
8285,74.0,0,300,6.0,0.0
8286,86.0,0,300,5.0,0.0
8287,65.0,0,300,7.0,0.0
8288,38.0,0,300,4.0,0.0
8289,74.0,0,300,7.0,0.0
8290,65.0,0,180,8.0,0.0
8291,77.0,0,180,0.0,0.0
8292,57.0,0,15,2.0,0.0
8293,62.0,0,240,10.0,0.0
8294,62.0,0,240,11.0,0.0
8295,50.0,60,120,12.0,0.0
8296,50.0,45,240,11.0,0.0
8297,50.0,0,300,3.0,0.0
8298,65.0,0,180,1.0,0.0
8299,50.0,0,240,10.0,0.0
8300,50.0,0,240,8.0,0.0
8301,62.0,0,60,8.0,0.0
8302,50.0,0,60,12.0,0.0
8303,74.0,0,120,0.0,0.0
8304,62.0,0,120,1.0,0.0
8305,53.0,45,120,2.0,0.0
8306,62.0,15,40,13.0,0.0
8307,77.0,0,40,13.0,0.0
8308,71.0,135,40,13.0,0.0
8309,74.0,0,40,13.0,0.0
8310,71.0,105,180,13.0,0.0
8311,68.0,60,120,13.0,0.0
8312,64.0,0,60,13.0,0.0
8313,67.0,45,120,0.0,0.0
8314,67.0,0,120,13.0,0.0
8315,73.0,120,180,13.0,0.0
8316,33.0,0,120,4.0,0.0
8317,57.0,0,120,2.0,0.0
8318,64.0,0,120,1.0,0.0
8319,57.0,15,40,3.0,0.0
8320,45.0,15,40,3.0,0.0
8321,69.0,0,60,13.0,0.0
8322,38.0,0,120,4.0,0.0
8323,74.0,0,240,13.0,0.0
8324,62.0,0,120,1.0,0.0
8325,50.0,0,120,3.0,0.0
8326,65.0,0,120,0.0,0.0
8327,65.0,60,180,13.0,0.0
8328,57.0,60,120,2.0,0.0
8329,62.0,45,15,13.0,0.0
8330,77.0,0,40,13.0,0.0
8331,74.0,135,40,13.0,0.0
8332,71.0,0,40,13.0,0.0
8333,71.0,0,180,13.0,0.0
8334,68.0,60,120,13.0,0.0
8335,64.0,105,60,13.0,0.0
8336,67.0,0,120,13.0,0.0
8337,73.0,0,180,13.0,0.0
8338,57.0,0,120,2.0,0.0
8339,67.0,0,120,0.0,0.0
8340,33.0,45,120,4.0,0.0
8341,64.0,0,120,1.0,0.0
8342,57.0,15,40,3.0,0.0
8343,45.0,15,40,3.0,0.0
8344,69.0,30,60,13.0,0.0
8345,66.0,0,120,0.0,0.0
8346,62.0,30,1860,10.0,0.0
8347,50.0,0,120,2.0,0.0
8348,66.0,0,30,13.0,0.0
8349,50.0,0,120,3.0,0.0
8350,38.0,30,120,4.0,0.0
8351,62.0,0,120,1.0,0.0
8352,74.0,30,30,13.0,0.0
8353,50.0,0,1860,10.0,0.0
8354,62.0,30,30,13.0,0.0
8355,64.0,30,30,13.0,0.0
8356,62.0,0,30,13.0,0.0
8357,66.0,0,30,13.0,0.0
8358,74.0,30,30,13.0,0.0
8359,62.0,30,30,13.0,0.0
8360,76.0,30,30,13.0,0.0
8361,67.0,0,30,13.0,0.0
8362,62.0,30,30,13.0,0.0
8363,69.0,0,30,13.0,0.0
8364,78.0,30,30,13.0,0.0
8365,62.0,30,30,13.0,0.0
8366,71.0,30,30,13.0,0.0
8367,79.0,0,30,13.0,0.0
8368,62.0,30,30,13.0,0.0
8369,72.0,30,30,13.0,0.0
8370,81.0,0,30,13.0,0.0
8371,62.0,30,30,13.0,0.0
8372,79.0,30,30,13.0,0.0
8373,71.0,0,30,13.0,0.0
8374,62.0,30,30,13.0,0.0
8375,78.0,30,30,13.0,0.0
8376,69.0,0,30,13.0,0.0
8377,62.0,30,30,13.0,0.0
8378,76.0,30,30,13.0,0.0
8379,55.0,0,60,8.0,0.0
8380,67.0,0,30,13.0,0.0
8381,62.0,30,30,13.0,0.0
8382,57.0,0,60,8.0,0.0
8383,66.0,30,30,13.0,0.0
8384,74.0,0,30,13.0,0.0
8385,62.0,30,30,13.0,0.0
8386,73.0,0,30,13.0,0.0
8387,58.0,30,60,8.0,0.0
8388,64.0,30,30,13.0,0.0
8389,62.0,0,30,13.0,0.0
8390,74.0,0,30,13.0,0.0
8391,38.0,0,120,4.0,0.0
8392,66.0,30,30,13.0,0.0
8393,50.0,0,120,3.0,0.0
8394,57.0,0,120,8.0,0.0
8395,50.0,0,120,2.0,0.0
8396,62.0,30,120,1.0,0.0
8397,62.0,0,120,0.0,0.0
8398,62.0,30,30,13.0,0.0
8399,64.0,30,30,13.0,0.0
8400,62.0,0,30,13.0,0.0
8401,66.0,30,30,13.0,0.0
8402,74.0,0,30,13.0,0.0
8403,62.0,30,30,13.0,0.0
8404,67.0,0,30,13.0,0.0
8405,76.0,30,30,13.0,0.0
8406,62.0,30,30,13.0,0.0
8407,78.0,30,30,13.0,0.0
8408,69.0,0,30,13.0,0.0
8409,62.0,30,30,13.0,0.0
8410,79.0,30,30,13.0,0.0
8411,71.0,0,30,13.0,0.0
8412,62.0,30,30,13.0,0.0
8413,81.0,0,30,13.0,0.0
8414,72.0,30,30,13.0,0.0
8415,62.0,30,30,13.0,0.0
8416,79.0,30,30,13.0,0.0
8417,71.0,0,30,13.0,0.0
8418,62.0,30,30,13.0,0.0
8419,69.0,30,30,13.0,0.0
8420,78.0,0,30,13.0,0.0
8421,62.0,30,30,13.0,0.0
8422,76.0,30,30,13.0,0.0
8423,67.0,0,30,13.0,0.0
8424,55.0,0,60,8.0,0.0
8425,62.0,30,30,13.0,0.0
8426,57.0,30,60,8.0,0.0
8427,74.0,30,30,13.0,0.0
8428,66.0,0,30,13.0,0.0
8429,62.0,0,30,13.0,0.0
8430,64.0,0,30,13.0,0.0
8431,73.0,30,30,13.0,0.0
8432,58.0,0,60,8.0,0.0
8433,62.0,30,30,13.0,0.0
8434,57.0,0,180,8.0,0.0
8435,74.0,0,30,13.0,0.0
8436,66.0,30,30,13.0,0.0
8437,62.0,30,30,13.0,0.0
8438,64.0,30,30,13.0,0.0
8439,62.0,30,30,13.0,0.0
8440,66.0,30,30,13.0,0.0
8441,74.0,0,30,13.0,0.0
8442,62.0,30,30,13.0,0.0
8443,55.0,30,60,8.0,0.0
8444,67.0,0,30,13.0,0.0
8445,76.0,30,30,13.0,0.0
8446,62.0,0,30,13.0,0.0
8447,74.0,0,30,13.0,0.0
8448,66.0,30,30,13.0,0.0
8449,57.0,0,60,8.0,0.0
8450,62.0,30,30,13.0,0.0
8451,58.0,30,60,8.0,0.0
8452,64.0,30,30,13.0,0.0
8453,73.0,0,30,13.0,0.0
8454,62.0,0,30,13.0,0.0
8455,54.0,0,180,2.0,0.0
8456,57.0,0,180,1.0,0.0
8457,50.0,0,180,4.0,0.0
8458,66.0,0,30,13.0,0.0
8459,74.0,30,30,13.0,0.0
8460,62.0,30,180,0.0,0.0
8461,62.0,0,180,3.0,0.0
8462,57.0,0,180,8.0,0.0
8463,62.0,0,15,13.0,0.0
8464,62.0,30,30,13.0,0.0
8465,74.0,30,30,13.0,0.0
8466,66.0,0,30,13.0,0.0
8467,62.0,0,30,13.0,0.0
8468,58.0,0,540,1.0,0.0
8469,58.0,0,540,8.0,0.0
8470,55.0,0,540,2.0,0.0
8471,61.0,0,180,3.0,0.0
8472,75.0,0,30,13.0,0.0
8473,63.0,0,540,0.0,0.0
8474,67.0,30,30,13.0,0.0
8475,49.0,0,180,4.0,0.0
8476,63.0,30,30,13.0,0.0
8477,75.0,30,30,13.0,0.0
8478,67.0,0,30,13.0,0.0
8479,63.0,30,30,13.0,0.0
8480,67.0,0,30,13.0,0.0
8481,75.0,30,30,13.0,0.0
8482,63.0,30,30,13.0,0.0
8483,46.0,0,180,4.0,0.0
8484,58.0,30,180,3.0,0.0
8485,75.0,0,30,13.0,0.0
8486,67.0,30,30,13.0,0.0
8487,63.0,30,30,13.0,0.0
8488,75.0,30,30,13.0,0.0
8489,67.0,0,30,13.0,0.0
8490,63.0,30,30,13.0,0.0
8491,75.0,30,30,13.0,0.0
8492,67.0,0,30,13.0,0.0
8493,63.0,0,30,13.0,0.0
8494,75.0,30,30,13.0,0.0
8495,39.0,0,180,4.0,0.0
8496,67.0,0,30,13.0,0.0
8497,51.0,30,180,3.0,0.0
8498,63.0,30,30,13.0,0.0
8499,75.0,0,30,13.0,0.0
8500,67.0,30,30,13.0,0.0
8501,63.0,30,30,13.0,0.0
8502,75.0,30,30,13.0,0.0
8503,67.0,0,30,13.0,0.0
8504,63.0,0,30,13.0,0.0
8505,59.0,0,60,1.0,0.0
8506,44.0,0,60,4.0,0.0
8507,56.0,0,60,2.0,0.0
8508,63.0,0,60,0.0,0.0
8509,59.0,0,120,8.0,0.0
8510,56.0,30,60,3.0,0.0
8511,75.0,30,30,13.0,0.0
8512,71.0,0,30,13.0,0.0
8513,68.0,30,30,13.0,0.0
8514,71.0,30,30,13.0,0.0
8515,75.0,30,30,13.0,0.0
8516,71.0,30,30,13.0,0.0
8517,69.0,0,120,7.0,0.0
8518,75.0,0,120,6.0,0.0
8519,78.0,0,120,6.0,0.0
8520,75.0,30,30,13.0,0.0
8521,66.0,0,120,7.0,0.0
8522,87.0,30,120,5.0,0.0
8523,59.0,0,120,8.0,0.0
8524,47.0,0,120,8.0,0.0
8525,69.0,30,30,13.0,0.0
8526,66.0,30,30,13.0,0.0
8527,69.0,0,30,13.0,0.0
8528,75.0,30,30,13.0,0.0
8529,69.0,30,30,13.0,0.0
8530,67.0,0,120,7.0,0.0
8531,76.0,30,30,13.0,0.0
8532,79.0,0,120,6.0,0.0
8533,52.0,0,120,8.0,0.0
8534,64.0,0,120,8.0,0.0
8535,64.0,0,120,7.0,0.0
8536,76.0,0,120,6.0,0.0
8537,88.0,0,120,5.0,0.0
8538,71.0,30,30,13.0,0.0
8539,67.0,30,30,13.0,0.0
8540,71.0,30,30,13.0,0.0
8541,76.0,30,30,13.0,0.0
8542,71.0,30,30,13.0,0.0
8543,73.0,30,30,13.0,0.0
8544,64.0,0,120,7.0,0.0
8545,67.0,0,120,7.0,0.0
8546,57.0,0,120,8.0,0.0
8547,76.0,0,120,6.0,0.0
8548,45.0,0,120,8.0,0.0
8549,73.0,0,120,6.0,0.0
8550,85.0,30,120,5.0,0.0
8551,67.0,30,30,13.0,0.0
8552,64.0,30,30,13.0,0.0
8553,67.0,0,30,13.0,0.0
8554,73.0,30,30,13.0,0.0
8555,67.0,30,30,13.0,0.0
8556,86.0,30,120,5.0,0.0
8557,50.0,0,120,8.0,0.0
8558,57.0,0,180,8.0,0.0
8559,57.0,0,180,1.0,0.0
8560,74.0,30,30,13.0,0.0
8561,62.0,0,180,0.0,0.0
8562,66.0,0,30,13.0,0.0
8563,54.0,0,180,2.0,0.0
8564,62.0,30,180,3.0,0.0
8565,50.0,0,180,4.0,0.0
8566,74.0,0,120,6.0,0.0
8567,62.0,0,120,7.0,0.0
8568,66.0,0,120,7.0,0.0
8569,78.0,0,120,6.0,0.0
8570,62.0,30,15,13.0,0.0
8571,62.0,0,30,13.0,0.0
8572,74.0,0,30,13.0,0.0
8573,66.0,30,30,13.0,0.0
8574,62.0,0,30,13.0,0.0
8575,58.0,0,540,8.0,0.0
8576,58.0,0,540,1.0,0.0
8577,61.0,30,180,3.0,0.0
8578,55.0,0,540,2.0,0.0
8579,49.0,0,180,4.0,0.0
8580,63.0,30,30,13.0,0.0
8581,75.0,30,30,13.0,0.0
8582,67.0,30,30,13.0,0.0
8583,75.0,30,30,13.0,0.0
8584,63.0,30,30,13.0,0.0
8585,75.0,0,30,13.0,0.0
8586,46.0,0,180,4.0,0.0
8587,58.0,30,180,3.0,0.0
8588,67.0,30,30,13.0,0.0
8589,75.0,30,30,13.0,0.0
8590,63.0,30,30,13.0,0.0
8591,75.0,30,30,13.0,0.0
8592,67.0,30,30,13.0,0.0
8593,75.0,0,30,13.0,0.0
8594,51.0,0,180,3.0,0.0
8595,63.0,30,30,13.0,0.0
8596,39.0,0,180,4.0,0.0
8597,75.0,30,30,13.0,0.0
8598,67.0,30,30,13.0,0.0
8599,75.0,30,30,13.0,0.0
8600,63.0,30,30,13.0,0.0
8601,75.0,0,30,13.0,0.0
8602,56.0,0,60,2.0,0.0
8603,56.0,0,60,3.0,0.0
8604,59.0,0,60,1.0,0.0
8605,63.0,30,15,0.0,0.0
8606,44.0,0,60,4.0,0.0
8607,59.0,0,120,8.0,0.0
8608,75.0,30,30,13.0,0.0
8609,71.0,30,30,13.0,0.0
8610,68.0,30,30,13.0,0.0
8611,71.0,30,30,13.0,0.0
8612,75.0,30,30,13.0,0.0
8613,71.0,30,30,13.0,0.0
8614,69.0,0,120,7.0,0.0
8615,59.0,0,120,8.0,0.0
8616,47.0,0,120,8.0,0.0
8617,75.0,30,30,13.0,0.0
8618,66.0,0,120,7.0,0.0
8619,87.0,0,120,5.0,0.0
8620,75.0,30,120,6.0,0.0
8621,69.0,30,30,13.0,0.0
8622,66.0,30,30,13.0,0.0
8623,69.0,0,30,13.0,0.0
8624,75.0,30,30,13.0,0.0
8625,69.0,30,30,13.0,0.0
8626,64.0,30,120,7.0,0.0
8627,76.0,30,30,13.0,0.0
8628,76.0,0,120,6.0,0.0
8629,67.0,0,120,7.0,0.0
8630,88.0,0,120,5.0,0.0
8631,64.0,0,120,8.0,0.0
8632,52.0,0,120,8.0,0.0
8633,67.0,30,30,13.0,0.0
8634,64.0,30,30,13.0,0.0
8635,67.0,0,30,13.0,0.0
8636,76.0,30,30,13.0,0.0
8637,67.0,30,30,13.0,0.0
8638,85.0,0,120,5.0,0.0
8639,73.0,0,120,6.0,0.0
8640,45.0,30,120,8.0,0.0
8641,73.0,30,30,13.0,0.0
8642,64.0,0,120,7.0,0.0
8643,57.0,0,120,8.0,0.0
8644,67.0,0,120,7.0,0.0
8645,67.0,30,30,13.0,0.0
8646,64.0,30,30,13.0,0.0
8647,67.0,0,30,13.0,0.0
8648,45.0,30,60,3.0,0.0
8649,73.0,30,30,13.0,0.0
8650,67.0,0,30,13.0,0.0
8651,62.0,0,120,8.0,0.0
8652,78.0,0,720,6.0,0.0
8653,81.0,30,30,13.0,0.0
8654,50.0,0,120,8.0,0.0
8655,86.0,0,720,5.0,0.0
8656,74.0,0,720,6.0,0.0
8657,45.0,30,120,3.0,0.0
8658,62.0,0,720,7.0,0.0
8659,66.0,0,720,7.0,0.0
8660,78.0,30,30,13.0,0.0
8661,74.0,30,30,13.0,0.0
8662,78.0,0,30,13.0,0.0
8663,74.0,30,30,13.0,0.0
8664,50.0,0,30,3.0,0.0
8665,69.0,30,30,13.0,0.0
8666,74.0,30,30,13.0,0.0
8667,54.0,0,60,3.0,0.0
8668,69.0,30,30,13.0,0.0
8669,57.0,30,60,3.0,0.0
8670,66.0,30,30,13.0,0.0
8671,69.0,0,30,13.0,0.0
8672,66.0,30,30,13.0,0.0
8673,57.0,0,60,0.0,0.0
8674,62.0,30,30,13.0,0.0
8675,81.0,30,30,13.0,0.0
8676,57.0,0,120,0.0,0.0
8677,78.0,30,30,13.0,0.0
8678,74.0,30,30,13.0,0.0
8679,78.0,30,30,13.0,0.0
8680,62.0,30,30,0.0,0.0
8681,74.0,0,30,13.0,0.0
8682,69.0,30,30,13.0,0.0
8683,66.0,0,60,0.0,0.0
8684,74.0,30,30,13.0,0.0
8685,69.0,30,30,13.0,0.0
8686,69.0,30,60,0.0,0.0
8687,66.0,30,30,13.0,0.0
8688,69.0,0,30,13.0,0.0
8689,66.0,30,30,13.0,0.0
8690,62.0,0,30,13.0,0.0
8691,76.0,0,720,6.0,0.0
8692,79.0,0,720,6.0,0.0
8693,64.0,0,720,7.0,0.0
8694,67.0,0,720,7.0,0.0
8695,85.0,30,720,5.0,0.0
8696,45.0,30,15,3.0,0.0
8697,79.0,30,30,13.0,0.0
8698,76.0,30,30,13.0,0.0
8699,73.0,30,30,13.0,0.0
8700,76.0,30,30,13.0,0.0
8701,49.0,30,30,3.0,0.0
8702,73.0,0,30,13.0,0.0
8703,69.0,30,30,13.0,0.0
8704,73.0,30,30,13.0,0.0
8705,52.0,0,60,3.0,0.0
8706,67.0,30,30,13.0,0.0
8707,64.0,30,30,13.0,0.0
8708,55.0,30,60,3.0,0.0
8709,67.0,0,30,13.0,0.0
8710,64.0,30,30,13.0,0.0
8711,57.0,0,60,0.0,0.0
8712,61.0,30,30,13.0,0.0
8713,79.0,30,30,13.0,0.0
8714,57.0,0,120,0.0,0.0
8715,76.0,30,30,13.0,0.0
8716,73.0,30,30,13.0,0.0
8717,76.0,30,30,13.0,0.0
8718,61.0,30,30,0.0,0.0
8719,73.0,0,30,13.0,0.0
8720,67.0,30,30,13.0,0.0
8721,73.0,30,30,13.0,0.0
8722,64.0,30,60,0.0,0.0
8723,67.0,0,30,13.0,0.0
8724,64.0,30,30,13.0,0.0
8725,67.0,0,60,0.0,0.0
8726,67.0,30,30,13.0,0.0
8727,33.0,0,60,4.0,0.0
8728,45.0,0,60,3.0,0.0
8729,64.0,30,30,13.0,0.0
8730,61.0,0,30,13.0,0.0
8731,74.0,0,120,6.0,0.0
8732,78.0,0,120,6.0,0.0
8733,62.0,0,120,7.0,0.0
8734,66.0,0,120,7.0,0.0
8735,81.0,30,30,13.0,0.0
8736,62.0,0,360,1.0,0.0
8737,90.0,0,120,5.0,0.0
8738,38.0,0,120,4.0,0.0
8739,66.0,0,360,0.0,0.0
8740,50.0,0,120,3.0,0.0
8741,78.0,30,30,13.0,0.0
8742,74.0,30,30,13.0,0.0
8743,78.0,30,30,13.0,0.0
8744,74.0,30,30,13.0,0.0
8745,42.0,0,30,4.0,0.0
8746,54.0,0,30,3.0,0.0
8747,69.0,30,30,13.0,0.0
8748,45.0,0,60,4.0,0.0
8749,57.0,0,60,3.0,0.0
8750,74.0,30,30,13.0,0.0
8751,69.0,30,30,13.0,0.0
8752,50.0,0,60,4.0,0.0
8753,66.0,30,30,13.0,0.0
8754,62.0,0,60,3.0,0.0
8755,69.0,30,30,13.0,0.0
8756,74.0,30,60,5.0,0.0
8757,66.0,30,30,13.0,0.0
8758,62.0,0,30,13.0,0.0
8759,75.0,30,120,5.0,0.0
8760,66.0,0,360,0.0,0.0
8761,69.0,30,30,13.0,0.0
8762,57.0,0,15,2.0,0.0
8763,66.0,30,30,13.0,0.0
8764,60.0,30,30,13.0,0.0
8765,69.0,0,30,13.0,0.0
8766,66.0,30,30,13.0,0.0
8767,78.0,30,60,5.0,0.0
8768,60.0,0,30,13.0,0.0
8769,69.0,30,30,13.0,0.0
8770,81.0,30,60,5.0,0.0
8771,66.0,0,30,13.0,0.0
8772,84.0,0,60,5.0,0.0
8773,60.0,30,30,13.0,0.0
8774,69.0,30,30,13.0,0.0
8775,51.0,0,60,3.0,0.0
8776,65.0,30,30,13.0,0.0
8777,39.0,0,60,4.0,0.0
8778,60.0,30,30,13.0,0.0
8779,50.0,0,120,3.0,0.0
8780,38.0,30,120,4.0,0.0
8781,60.0,0,15,1.0,0.0
8782,81.0,30,30,13.0,0.0
8783,78.0,30,30,13.0,0.0
8784,72.0,30,30,13.0,0.0
8785,78.0,0,30,13.0,0.0
8786,72.0,0,30,13.0,0.0
8787,54.0,30,30,3.0,0.0
8788,42.0,0,30,4.0,0.0
8789,69.0,30,30,13.0,0.0
8790,72.0,30,30,13.0,0.0
8791,57.0,0,60,3.0,0.0
8792,45.0,0,60,4.0,0.0
8793,69.0,30,30,13.0,0.0
8794,62.0,0,60,3.0,0.0
8795,50.0,30,60,4.0,0.0
8796,66.0,30,30,13.0,0.0
8797,69.0,0,30,13.0,0.0
8798,50.0,0,60,8.0,0.0
8799,38.0,0,60,4.0,0.0
8800,50.0,30,60,3.0,0.0
8801,66.0,30,30,13.0,0.0
8802,60.0,0,30,13.0,0.0
8803,57.0,0,15,2.0,0.0
8804,66.0,0,15,0.0,0.0
8805,72.0,30,30,13.0,0.0
8806,39.0,0,360,4.0,0.0
8807,60.0,0,1620,1.0,0.0
8808,51.0,0,360,3.0,0.0
8809,51.0,0,120,8.0,0.0
8810,69.0,30,30,13.0,0.0
8811,66.0,30,30,13.0,0.0
8812,69.0,30,30,13.0,0.0
8813,66.0,30,30,13.0,0.0
8814,54.0,0,30,8.0,0.0
8815,60.0,30,30,13.0,0.0
8816,57.0,0,60,8.0,0.0
8817,72.0,30,30,13.0,0.0
8818,69.0,30,30,13.0,0.0
8819,60.0,0,60,8.0,0.0
8820,66.0,30,30,13.0,0.0
8821,69.0,30,30,13.0,0.0
8822,66.0,30,30,13.0,0.0
8823,60.0,0,30,13.0,0.0
8824,72.0,0,15,6.0,0.0
8825,64.0,0,360,0.0,0.0
8826,52.0,0,360,3.0,0.0
8827,40.0,0,360,4.0,0.0
8828,57.0,30,30,13.0,0.0
8829,60.0,30,30,13.0,0.0
8830,64.0,30,30,13.0,0.0
8831,69.0,0,30,13.0,0.0
8832,76.0,0,30,6.0,0.0
8833,68.0,30,30,13.0,0.0
8834,69.0,30,30,13.0,0.0
8835,64.0,30,30,13.0,0.0
8836,81.0,30,60,6.0,0.0
8837,69.0,0,30,13.0,0.0
8838,72.0,30,30,13.0,0.0
8839,84.0,30,60,6.0,0.0
8840,76.0,0,30,13.0,0.0
8841,52.0,30,60,8.0,0.0
8842,72.0,30,30,13.0,0.0
8843,69.0,0,30,13.0,0.0
8844,41.0,0,360,4.0,0.0
8845,63.0,0,360,0.0,0.0
8846,63.0,30,30,13.0,0.0
8847,53.0,0,120,8.0,0.0
8848,53.0,0,360,3.0,0.0
8849,69.0,30,30,13.0,0.0
8850,72.0,30,30,13.0,0.0
8851,75.0,30,30,13.0,0.0
8852,72.0,30,30,13.0,0.0
8853,57.0,0,30,8.0,0.0
8854,69.0,30,30,13.0,0.0
8855,63.0,30,30,13.0,0.0
8856,60.0,30,60,8.0,0.0
8857,69.0,0,30,13.0,0.0
8858,72.0,30,30,13.0,0.0
8859,65.0,30,60,8.0,0.0
8860,75.0,0,30,13.0,0.0
8861,60.0,30,60,7.0,0.0
8862,72.0,30,30,13.0,0.0
8863,69.0,0,30,13.0,0.0
8864,62.0,30,720,0.0,0.0
8865,62.0,30,30,13.0,0.0
8866,54.0,0,540,3.0,0.0
8867,42.0,0,540,4.0,0.0
8868,62.0,0,120,7.0,0.0
8869,69.0,30,30,13.0,0.0
8870,72.0,30,30,13.0,0.0
8871,74.0,30,30,13.0,0.0
8872,69.0,30,30,7.0,0.0
8873,72.0,0,30,13.0,0.0
8874,69.0,30,30,13.0,0.0
8875,72.0,30,60,7.0,0.0
8876,62.0,30,30,13.0,0.0
8877,69.0,0,30,13.0,0.0
8878,74.0,0,60,7.0,0.0
8879,72.0,30,30,13.0,0.0
8880,74.0,0,30,13.0,0.0
8881,72.0,0,15,6.0,0.0
8882,74.0,30,15,6.0,0.0
8883,72.0,30,30,13.0,0.0
8884,69.0,30,30,13.0,0.0
8885,74.0,0,15,6.0,0.0
8886,62.0,30,30,13.0,0.0
8887,72.0,0,15,6.0,0.0
8888,69.0,30,30,13.0,0.0
8889,72.0,30,30,13.0,0.0
8890,74.0,30,30,13.0,0.0
8891,72.0,30,30,13.0,0.0
8892,69.0,0,30,13.0,0.0
8893,62.0,0,540,10.0,0.0
8894,62.0,30,30,13.0,0.0
8895,55.0,0,360,2.0,0.0
8896,58.0,30,360,1.0,0.0
8897,50.0,0,540,10.0,0.0
8898,43.0,0,360,4.0,0.0
8899,70.0,0,360,6.0,0.0
8900,55.0,0,360,3.0,0.0
8901,67.0,30,30,13.0,0.0
8902,70.0,30,30,13.0,0.0
8903,74.0,30,30,13.0,0.0
8904,70.0,30,30,13.0,0.0
8905,67.0,0,30,13.0,0.0
8906,62.0,30,30,13.0,0.0
8907,76.0,0,180,6.0,0.0
8908,64.0,0,180,0.0,0.0
8909,74.0,30,30,13.0,0.0
8910,86.0,30,30,13.0,0.0
8911,85.0,30,30,13.0,0.0
8912,86.0,30,30,13.0,0.0
8913,85.0,0,30,13.0,0.0
8914,56.0,0,180,3.0,0.0
8915,56.0,0,180,2.0,0.0
8916,71.0,0,180,7.0,0.0
8917,44.0,0,180,4.0,0.0
8918,77.0,0,180,6.0,0.0
8919,65.0,0,180,0.0,0.0
8920,62.0,0,180,1.0,0.0
8921,86.0,30,30,13.0,0.0
8922,59.0,0,180,1.0,0.0
8923,85.0,30,30,13.0,0.0
8924,86.0,30,30,13.0,0.0
8925,85.0,30,30,13.0,0.0
8926,86.0,30,30,13.0,0.0
8927,83.0,0,30,13.0,0.0
8928,83.0,15,15,13.0,0.0
8929,62.0,0,15,7.0,0.0
8930,66.0,0,120,7.0,0.0
8931,57.0,0,120,1.0,0.0
8932,62.0,0,120,1.0,0.0
8933,62.0,0,30,10.0,0.0
8934,66.0,0,30,10.0,0.0
8935,45.0,15,120,4.0,0.0
8936,57.0,0,120,2.0,0.0
8937,57.0,0,120,3.0,0.0
8938,78.0,0,30,6.0,0.0
8939,74.0,15,15,6.0,0.0
8940,66.0,0,120,0.0,0.0
8941,81.0,0,15,13.0,0.0
8942,83.0,15,15,13.0,0.0
8943,81.0,15,15,13.0,0.0
8944,79.0,0,30,6.0,0.0
8945,67.0,15,30,10.0,0.0
8946,64.0,0,30,10.0,0.0
8947,83.0,15,15,13.0,0.0
8948,76.0,0,30,6.0,0.0
8949,81.0,0,15,13.0,0.0
8950,83.0,15,15,13.0,0.0
8951,81.0,0,15,13.0,0.0
8952,83.0,15,15,13.0,0.0
8953,81.0,15,30,6.0,0.0
8954,78.0,0,30,6.0,0.0
8955,69.0,0,30,10.0,0.0
8956,66.0,0,30,10.0,0.0
8957,81.0,0,15,13.0,0.0
8958,83.0,15,15,13.0,0.0
8959,81.0,15,15,13.0,0.0
8960,67.0,0,30,10.0,0.0
8961,64.0,0,30,10.0,0.0
8962,83.0,15,15,13.0,0.0
8963,76.0,15,30,6.0,0.0
8964,79.0,0,30,6.0,0.0
8965,81.0,0,15,13.0,0.0
8966,83.0,15,15,13.0,0.0
8967,81.0,15,15,13.0,0.0
8968,74.0,0,30,6.0,0.0
8969,78.0,15,30,6.0,0.0
8970,83.0,15,15,13.0,0.0
8971,62.0,0,30,10.0,0.0
8972,66.0,0,30,10.0,0.0
8973,81.0,0,15,13.0,0.0
8974,83.0,15,15,13.0,0.0
8975,81.0,15,15,13.0,0.0
8976,64.0,0,30,10.0,0.0
8977,76.0,15,30,6.0,0.0
8978,69.0,0,30,6.0,0.0
8979,57.0,0,30,10.0,0.0
8980,83.0,15,15,13.0,0.0
8981,81.0,0,15,13.0,0.0
8982,83.0,15,15,13.0,0.0
8983,81.0,15,15,13.0,0.0
8984,54.0,0,30,10.0,0.0
8985,62.0,0,30,10.0,0.0
8986,74.0,0,30,6.0,0.0
8987,66.0,0,30,6.0,0.0
8988,83.0,15,15,13.0,0.0
8989,81.0,15,15,13.0,0.0
8990,83.0,15,15,13.0,0.0
8991,81.0,15,15,13.0,0.0
8992,76.0,0,30,6.0,0.0
8993,83.0,15,15,13.0,0.0
8994,57.0,0,30,10.0,0.0
8995,64.0,0,30,10.0,0.0
8996,69.0,15,30,6.0,0.0
8997,81.0,0,15,13.0,0.0
8998,83.0,15,15,13.0,0.0
8999,81.0,15,15,13.0,0.0
9000,78.0,15,30,6.0,0.0
9001,66.0,0,30,10.0,0.0
9002,62.0,0,30,10.0,0.0
9003,83.0,15,15,13.0,0.0
9004,74.0,0,30,6.0,0.0
9005,81.0,0,15,13.0,0.0
9006,83.0,15,15,13.0,0.0
9007,81.0,15,15,13.0,0.0
9008,83.0,15,15,13.0,0.0
9009,76.0,0,30,6.0,0.0
9010,69.0,15,30,6.0,0.0
9011,57.0,0,30,10.0,0.0
9012,64.0,0,30,10.0,0.0
9013,81.0,0,15,13.0,0.0
9014,83.0,15,15,13.0,0.0
9015,81.0,15,15,13.0,0.0
9016,78.0,15,30,6.0,0.0
9017,83.0,15,15,13.0,0.0
9018,74.0,0,30,6.0,0.0
9019,62.0,0,30,10.0,0.0
9020,66.0,0,30,10.0,0.0
9021,81.0,0,15,13.0,0.0
9022,83.0,15,15,13.0,0.0
9023,81.0,15,15,13.0,0.0
9024,64.0,15,30,10.0,0.0
9025,67.0,0,30,10.0,0.0
9026,79.0,0,30,6.0,0.0
9027,76.0,0,30,6.0,0.0
9028,83.0,15,15,13.0,0.0
9029,81.0,0,15,13.0,0.0
9030,83.0,15,15,13.0,0.0
9031,81.0,15,15,13.0,0.0
9032,66.0,0,30,10.0,0.0
9033,95.0,15,15,13.0,0.0
9034,62.0,0,30,10.0,0.0
9035,78.0,0,30,6.0,0.0
9036,74.0,0,30,6.0,0.0
9037,93.0,15,15,13.0,0.0
9038,95.0,15,15,13.0,0.0
9039,93.0,15,15,13.0,0.0
9040,64.0,0,30,10.0,0.0
9041,67.0,0,30,10.0,0.0
9042,76.0,0,30,6.0,0.0
9043,79.0,15,30,6.0,0.0
9044,95.0,15,15,13.0,0.0
9045,93.0,0,15,13.0,0.0
9046,95.0,15,15,13.0,0.0
9047,93.0,15,15,13.0,0.0
9048,81.0,0,30,6.0,0.0
9049,78.0,0,30,6.0,0.0
9050,66.0,0,30,10.0,0.0
9051,95.0,15,15,13.0,0.0
9052,69.0,0,30,10.0,0.0
9053,93.0,15,15,13.0,0.0
9054,95.0,15,15,13.0,0.0
9055,93.0,15,15,13.0,0.0
9056,67.0,0,30,10.0,0.0
9057,79.0,0,30,6.0,0.0
9058,95.0,15,15,13.0,0.0
9059,76.0,0,30,6.0,0.0
9060,64.0,15,30,10.0,0.0
9061,93.0,0,15,13.0,0.0
9062,95.0,15,15,13.0,0.0
9063,93.0,15,15,13.0,0.0
9064,78.0,0,30,6.0,0.0
9065,62.0,0,30,10.0,0.0
9066,66.0,0,30,10.0,0.0
9067,95.0,15,15,13.0,0.0
9068,74.0,0,30,6.0,0.0
9069,93.0,15,15,13.0,0.0
9070,95.0,15,15,13.0,0.0
9071,93.0,15,15,13.0,0.0
9072,57.0,0,30,10.0,0.0
9073,76.0,0,30,6.0,0.0
9074,69.0,0,30,6.0,0.0
9075,64.0,0,30,10.0,0.0
9076,95.0,15,15,13.0,0.0
9077,93.0,15,15,13.0,0.0
9078,95.0,15,15,13.0,0.0
9079,93.0,15,15,13.0,0.0
9080,54.0,15,30,10.0,0.0
9081,62.0,0,30,10.0,0.0
9082,74.0,0,30,6.0,0.0
9083,66.0,0,30,6.0,0.0
9084,95.0,15,15,13.0,0.0
9085,93.0,0,15,13.0,0.0
9086,95.0,15,15,13.0,0.0
9087,93.0,15,15,13.0,0.0
9088,57.0,0,30,10.0,0.0
9089,69.0,0,30,6.0,0.0
9090,76.0,15,30,6.0,0.0
9091,64.0,0,30,10.0,0.0
9092,95.0,15,15,13.0,0.0
9093,93.0,0,15,13.0,0.0
9094,95.0,15,15,13.0,0.0
9095,93.0,15,15,13.0,0.0
9096,74.0,0,30,6.0,0.0
9097,62.0,0,30,10.0,0.0
9098,66.0,0,30,10.0,0.0
9099,78.0,0,30,6.0,0.0
9100,95.0,15,15,13.0,0.0
9101,93.0,15,15,13.0,0.0
9102,95.0,15,15,13.0,0.0
9103,93.0,15,15,13.0,0.0
9104,95.0,15,15,13.0,0.0
9105,76.0,0,30,6.0,0.0
9106,69.0,15,30,6.0,0.0
9107,57.0,0,30,10.0,0.0
9108,64.0,0,30,10.0,0.0
9109,93.0,0,15,13.0,0.0
9110,95.0,15,15,13.0,0.0
9111,93.0,15,15,13.0,0.0
9112,95.0,15,15,13.0,0.0
9113,62.0,0,30,10.0,0.0
9114,66.0,0,30,10.0,0.0
9115,78.0,0,30,6.0,0.0
9116,74.0,0,30,6.0,0.0
9117,93.0,15,15,13.0,0.0
9118,95.0,15,15,13.0,0.0
9119,93.0,15,15,13.0,0.0
9120,67.0,0,30,10.0,0.0
9121,95.0,15,15,13.0,0.0
9122,64.0,0,30,10.0,0.0
9123,79.0,30,30,6.0,0.0
9124,76.0,0,30,6.0,0.0
9125,93.0,0,15,13.0,0.0
9126,92.0,30,30,13.0,0.0
9127,78.0,30,30,7.0,0.0
9128,62.0,0,60,10.0,0.0
9129,66.0,0,60,10.0,0.0
9130,42.0,0,30,4.0,0.0
9131,54.0,0,30,3.0,0.0
9132,74.0,0,60,6.0,0.0
9133,78.0,0,60,6.0,0.0
9134,66.0,0,30,7.0,0.0
9135,54.0,0,30,8.0,0.0
9136,66.0,0,30,1.0,0.0
9137,93.0,0,120,13.0,0.0
9138,66.0,0,30,1.0,0.0
9139,54.0,0,15,2.0,0.0
9140,55.0,0,30,3.0,0.0
9141,55.0,0,30,2.0,0.0
9142,79.0,0,30,7.0,0.0
9143,55.0,0,30,8.0,0.0
9144,67.0,0,30,7.0,0.0
9145,43.0,0,30,4.0,0.0
9146,67.0,30,30,1.0,0.0
9147,55.0,30,30,2.0,0.0
9148,67.0,0,30,1.0,0.0
9149,57.0,0,30,8.0,0.0
9150,69.0,0,30,7.0,0.0
9151,69.0,0,30,1.0,0.0
9152,81.0,0,30,7.0,0.0
9153,69.0,0,15,10.0,0.0
9154,81.0,0,15,6.0,0.0
9155,57.0,0,15,10.0,0.0
9156,45.0,0,30,4.0,0.0
9157,57.0,0,30,3.0,0.0
9158,69.0,30,30,1.0,0.0
9159,57.0,30,15,2.0,0.0
9160,55.0,0,30,8.0,0.0
9161,69.0,0,15,10.0,0.0
9162,79.0,0,30,7.0,0.0
9163,57.0,0,15,10.0,0.0
9164,67.0,0,30,7.0,0.0
9165,81.0,0,15,6.0,0.0
9166,43.0,30,30,4.0,0.0
9167,67.0,0,30,1.0,0.0
9168,55.0,0,30,3.0,0.0
9169,55.0,0,15,2.0,0.0
9170,67.0,0,30,1.0,0.0
9171,69.0,0,15,10.0,0.0
9172,57.0,0,15,10.0,0.0
9173,66.0,0,30,1.0,0.0
9174,66.0,0,30,7.0,0.0
9175,78.0,0,30,7.0,0.0
9176,81.0,30,15,6.0,0.0
9177,42.0,30,30,4.0,0.0
9178,54.0,0,30,3.0,0.0
9179,54.0,0,30,8.0,0.0
9180,54.0,0,15,2.0,0.0
9181,66.0,30,30,1.0,0.0
9182,76.0,30,30,7.0,0.0
9183,40.0,0,30,4.0,0.0
9184,52.0,0,30,8.0,0.0
9185,57.0,0,60,10.0,0.0
9186,64.0,0,30,7.0,0.0
9187,81.0,30,60,6.0,0.0
9188,64.0,0,30,1.0,0.0
9189,52.0,0,30,3.0,0.0
9190,69.0,0,60,10.0,0.0
9191,64.0,0,30,1.0,0.0
9192,52.0,0,15,2.0,0.0
9193,62.0,0,30,1.0,0.0
9194,38.0,0,30,4.0,0.0
9195,50.0,30,30,8.0,0.0
9196,57.0,0,60,10.0,0.0
9197,50.0,0,30,3.0,0.0
9198,50.0,0,30,2.0,0.0
9199,62.0,0,30,7.0,0.0
9200,74.0,0,30,7.0,0.0
9201,50.0,30,30,2.0,0.0
9202,62.0,0,30,1.0,0.0
9203,81.0,0,15,6.0,0.0
9204,69.0,0,15,10.0,0.0
9205,52.0,30,30,3.0,0.0
9206,64.0,0,30,1.0,0.0
9207,40.0,0,30,4.0,0.0
9208,52.0,0,30,2.0,0.0
9209,52.0,0,30,8.0,0.0
9210,76.0,0,30,7.0,0.0
9211,64.0,0,30,7.0,0.0
9212,52.0,30,30,2.0,0.0
9213,64.0,0,30,1.0,0.0
9214,54.0,0,30,2.0,0.0
9215,57.0,0,15,10.0,0.0
9216,69.0,0,15,10.0,0.0
9217,81.0,0,15,6.0,0.0
9218,66.0,0,30,7.0,0.0
9219,42.0,0,30,4.0,0.0
9220,78.0,0,30,7.0,0.0
9221,54.0,0,30,3.0,0.0
9222,54.0,0,30,8.0,0.0
9223,66.0,30,15,1.0,0.0
9224,54.0,0,30,2.0,0.0
9225,64.0,30,30,7.0,0.0
9226,52.0,0,30,3.0,0.0
9227,76.0,0,30,7.0,0.0
9228,81.0,0,15,6.0,0.0
9229,64.0,0,30,1.0,0.0
9230,57.0,0,60,10.0,0.0
9231,69.0,30,15,10.0,0.0
9232,40.0,0,30,4.0,0.0
9233,52.0,0,30,8.0,0.0
9234,52.0,0,15,2.0,0.0
9235,64.0,0,30,1.0,0.0
9236,54.0,0,30,8.0,0.0
9237,66.0,0,30,7.0,0.0
9238,54.0,0,30,3.0,0.0
9239,42.0,30,30,4.0,0.0
9240,54.0,0,30,2.0,0.0
9241,81.0,0,60,6.0,0.0
9242,78.0,0,30,7.0,0.0
9243,66.0,0,15,1.0,0.0
9244,54.0,0,30,2.0,0.0
9245,69.0,30,15,10.0,0.0
9246,55.0,0,30,3.0,0.0
9247,81.0,0,60,6.0,0.0
9248,79.0,0,30,7.0,0.0
9249,57.0,0,15,10.0,0.0
9250,43.0,0,30,4.0,0.0
9251,67.0,0,30,7.0,0.0
9252,55.0,0,30,8.0,0.0
9253,67.0,0,15,1.0,0.0
9254,55.0,30,15,2.0,0.0
9255,54.0,30,30,8.0,0.0
9256,78.0,0,60,6.0,0.0
9257,57.0,0,15,10.0,0.0
9258,54.0,0,30,3.0,0.0
9259,90.0,0,30,5.0,0.0
9260,42.0,0,30,4.0,0.0
9261,78.0,0,30,7.0,0.0
9262,66.0,0,30,7.0,0.0
9263,45.0,0,60,12.0,0.0
9264,57.0,0,60,11.0,0.0
9265,54.0,0,15,2.0,0.0
9266,66.0,0,15,1.0,0.0
9267,78.0,0,15,0.0,0.0
9268,55.0,0,30,8.0,0.0
9269,45.0,0,15,11.0,0.0
9270,55.0,0,30,3.0,0.0
9271,79.0,0,60,6.0,0.0
9272,91.0,0,30,5.0,0.0
9273,69.0,0,15,10.0,0.0
9274,57.0,0,15,10.0,0.0
9275,43.0,0,30,4.0,0.0
9276,79.0,0,30,7.0,0.0
9277,67.0,30,30,7.0,0.0
9278,55.0,0,30,2.0,0.0
9279,67.0,0,15,1.0,0.0
9280,79.0,0,15,0.0,0.0
9281,55.0,0,30,2.0,0.0
9282,81.0,0,60,6.0,0.0
9283,57.0,30,30,3.0,0.0
9284,57.0,0,30,2.0,0.0
9285,57.0,0,60,10.0,0.0
9286,69.0,0,15,10.0,0.0
9287,45.0,0,15,12.0,0.0
9288,93.0,0,30,5.0,0.0
9289,69.0,0,30,7.0,0.0
9290,57.0,0,30,8.0,0.0
9291,81.0,0,30,7.0,0.0
9292,45.0,0,30,4.0,0.0
9293,57.0,0,15,11.0,0.0
9294,45.0,30,15,11.0,0.0
9295,81.0,0,15,0.0,0.0
9296,69.0,0,15,1.0,0.0
9297,57.0,0,30,2.0,0.0
9298,67.0,0,30,1.0,0.0
9299,57.0,0,60,10.0,0.0
9300,69.0,0,15,10.0,0.0
9301,55.0,0,30,8.0,0.0
9302,79.0,0,30,0.0,0.0
9303,57.0,0,15,11.0,0.0
9304,43.0,0,30,4.0,0.0
9305,67.0,30,30,7.0,0.0
9306,79.0,0,30,7.0,0.0
9307,45.0,0,15,11.0,0.0
9308,79.0,0,60,6.0,0.0
9309,45.0,30,15,12.0,0.0
9310,91.0,0,30,5.0,0.0
9311,55.0,0,30,3.0,0.0
9312,55.0,0,15,2.0,0.0
9313,67.0,0,30,1.0,0.0
9314,79.0,0,30,0.0,0.0
9315,66.0,30,30,7.0,0.0
9316,78.0,0,60,6.0,0.0
9317,78.0,0,30,0.0,0.0
9318,54.0,0,30,2.0,0.0
9319,78.0,0,30,7.0,0.0
9320,90.0,0,30,5.0,0.0
9321,54.0,0,30,8.0,0.0
9322,57.0,0,15,11.0,0.0
9323,42.0,0,30,4.0,0.0
9324,66.0,0,30,1.0,0.0
9325,54.0,0,30,3.0,0.0
9326,78.0,0,30,0.0,0.0
9327,54.0,0,30,2.0,0.0
9328,66.0,0,30,1.0,0.0
9329,40.0,0,30,4.0,0.0
9330,57.0,30,15,10.0,0.0
9331,69.0,0,15,10.0,0.0
9332,76.0,0,60,6.0,0.0
9333,52.0,0,30,3.0,0.0
9334,45.0,0,15,11.0,0.0
9335,64.0,0,30,1.0,0.0
9336,52.0,0,30,2.0,0.0
9337,45.0,0,15,12.0,0.0
9338,88.0,30,30,5.0,0.0
9339,64.0,0,30,7.0,0.0
9340,52.0,0,30,8.0,0.0
9341,76.0,0,30,7.0,0.0
9342,52.0,0,30,2.0,0.0
9343,64.0,0,30,1.0,0.0
9344,76.0,0,15,0.0,0.0
9345,50.0,0,60,8.0,0.0
9346,62.0,0,30,1.0,0.0
9347,57.0,30,15,11.0,0.0
9348,38.0,0,60,4.0,0.0
9349,50.0,0,60,3.0,0.0
9350,86.0,0,60,5.0,0.0
9351,74.0,0,60,6.0,0.0
9352,74.0,0,30,0.0,0.0
9353,74.0,0,30,7.0,0.0
9354,62.0,0,30,7.0,0.0
9355,74.0,30,30,0.0,0.0
9356,50.0,30,15,2.0,0.0
9357,62.0,0,30,1.0,0.0
9358,52.0,30,60,3.0,0.0
9359,52.0,0,60,8.0,0.0
9360,40.0,0,60,4.0,0.0
9361,76.0,0,60,6.0,0.0
9362,57.0,0,60,11.0,0.0
9363,45.0,0,15,11.0,0.0
9364,76.0,0,30,7.0,0.0
9365,64.0,0,30,7.0,0.0
9366,45.0,0,15,12.0,0.0
9367,69.0,0,15,10.0,0.0
9368,57.0,0,15,10.0,0.0
9369,64.0,30,30,1.0,0.0
9370,88.0,0,60,5.0,0.0
9371,52.0,0,15,2.0,0.0
9372,76.0,0,15,0.0,0.0
9373,64.0,0,30,1.0,0.0
9374,45.0,0,15,12.0,0.0
9375,78.0,0,60,6.0,0.0
9376,45.0,0,15,11.0,0.0
9377,54.0,0,60,3.0,0.0
9378,90.0,0,60,5.0,0.0
9379,66.0,0,30,7.0,0.0
9380,69.0,0,15,10.0,0.0
9381,66.0,30,30,1.0,0.0
9382,42.0,0,60,4.0,0.0
9383,57.0,0,60,11.0,0.0
9384,54.0,0,60,8.0,0.0
9385,57.0,0,15,10.0,0.0
9386,78.0,0,30,7.0,0.0
9387,78.0,0,15,0.0,0.0
9388,54.0,0,15,2.0,0.0
9389,66.0,0,30,1.0,0.0
9390,40.0,0,60,4.0,0.0
9391,52.0,0,60,8.0,0.0
9392,76.0,0,30,0.0,0.0
9393,76.0,0,60,6.0,0.0
9394,76.0,0,30,7.0,0.0
9395,52.0,0,60,3.0,0.0
9396,52.0,30,30,2.0,0.0
9397,45.0,0,15,12.0,0.0
9398,64.0,0,30,7.0,0.0
9399,88.0,0,60,5.0,0.0
9400,69.0,30,15,10.0,0.0
9401,64.0,0,15,1.0,0.0
9402,76.0,0,30,0.0,0.0
9403,52.0,0,30,2.0,0.0
9404,69.0,0,15,10.0,0.0
9405,45.0,0,15,12.0,0.0
9406,66.0,0,30,7.0,0.0
9407,78.0,0,30,7.0,0.0
9408,57.0,0,15,10.0,0.0
9409,54.0,0,60,3.0,0.0
9410,78.0,0,60,6.0,0.0
9411,54.0,0,60,8.0,0.0
9412,78.0,0,30,0.0,0.0
9413,42.0,0,60,4.0,0.0
9414,90.0,0,60,5.0,0.0
9415,45.0,30,15,11.0,0.0
9416,57.0,0,15,11.0,0.0
9417,54.0,0,15,2.0,0.0
9418,78.0,0,30,0.0,0.0
9419,66.0,30,15,1.0,0.0
9420,43.0,0,60,4.0,0.0
9421,57.0,0,15,10.0,0.0
9422,69.0,0,15,10.0,0.0
9423,55.0,0,60,3.0,0.0
9424,55.0,0,30,2.0,0.0
9425,57.0,0,15,11.0,0.0
9426,45.0,30,15,11.0,0.0
9427,91.0,0,60,5.0,0.0
9428,67.0,0,30,7.0,0.0
9429,79.0,0,30,7.0,0.0
9430,79.0,30,60,6.0,0.0
9431,55.0,0,60,8.0,0.0
9432,79.0,0,15,0.0,0.0
9433,67.0,30,15,1.0,0.0
9434,55.0,0,30,2.0,0.0
9435,90.0,0,180,5.0,0.0
9436,42.0,0,60,4.0,0.0
9437,45.0,0,15,12.0,0.0
9438,66.0,0,30,1.0,0.0
9439,57.0,0,180,11.0,0.0
9440,45.0,0,180,11.0,0.0
9441,54.0,30,60,3.0,0.0
9442,69.0,0,15,10.0,0.0
9443,57.0,0,15,10.0,0.0
9444,78.0,30,180,7.0,0.0
9445,66.0,0,180,7.0,0.0
9446,78.0,0,30,0.0,0.0
9447,74.0,0,180,6.0,0.0
9448,54.0,0,60,8.0,0.0
9449,54.0,30,15,2.0,0.0
9450,66.0,0,30,1.0,0.0
9451,78.0,0,30,0.0,0.0
9452,69.0,0,30,2.0,0.0
9453,57.0,0,60,8.0,0.0
9454,45.0,30,60,4.0,0.0
9455,57.0,0,60,3.0,0.0
9456,69.0,0,15,1.0,0.0
9457,81.0,30,15,0.0,0.0
9458,69.0,0,30,2.0,0.0
9459,66.0,0,30,2.0,0.0
9460,78.0,0,30,0.0,0.0
9461,54.0,0,60,3.0,0.0
9462,42.0,0,60,4.0,0.0
9463,54.0,0,60,8.0,0.0
9464,66.0,30,15,1.0,0.0
9465,66.0,0,30,2.0,0.0
9466,78.0,0,30,0.0,0.0
9467,62.0,0,30,1.0,0.0
9468,90.0,0,180,5.0,0.0
9469,50.0,30,60,3.0,0.0
9470,38.0,0,60,4.0,0.0
9471,74.0,30,30,0.0,0.0
9472,78.0,0,15,6.0,0.0
9473,86.0,0,180,6.0,0.0
9474,50.0,0,120,12.0,0.0
9475,66.0,0,180,10.0,0.0
9476,62.0,0,30,2.0,0.0
9477,50.0,0,60,8.0,0.0
9478,62.0,0,180,10.0,0.0
9479,74.0,0,180,7.0,0.0
9480,50.0,0,180,11.0,0.0
9481,62.0,0,30,1.0,0.0
9482,74.0,0,30,0.0,0.0
9483,62.0,0,30,2.0,0.0
9484,42.0,0,60,4.0,0.0
9485,66.0,30,30,1.0,0.0
9486,54.0,0,60,8.0,0.0
9487,54.0,0,60,3.0,0.0
9488,78.0,0,15,0.0,0.0
9489,66.0,0,15,2.0,0.0
9490,66.0,0,30,1.0,0.0
9491,50.0,0,60,8.0,0.0
9492,38.0,0,60,4.0,0.0
9493,50.0,0,60,3.0,0.0
9494,62.0,0,15,1.0,0.0
9495,62.0,30,15,2.0,0.0
9496,74.0,0,15,0.0,0.0
9497,62.0,0,180,10.0,0.0
9498,62.0,0,15,11.0,0.0
9499,66.0,0,15,7.0,0.0
9500,66.0,0,180,10.0,0.0
9501,47.0,0,60,3.0,0.0
9502,47.0,0,60,8.0,0.0
9503,50.0,0,120,12.0,0.0
9504,35.0,30,60,4.0,0.0
9505,86.0,0,180,6.0,0.0
9506,78.0,0,180,6.0,0.0
9507,59.0,0,30,1.0,0.0
9508,59.0,0,30,1.0,0.0
9509,59.0,0,15,2.0,0.0
9510,71.0,30,15,0.0,0.0
9511,50.0,0,60,3.0,0.0
9512,50.0,0,60,8.0,0.0
9513,38.0,0,60,4.0,0.0
9514,62.0,30,15,2.0,0.0
9515,74.0,0,15,0.0,0.0
9516,62.0,0,15,1.0,0.0
9517,59.0,0,30,1.0,0.0
9518,35.0,0,60,4.0,0.0
9519,59.0,0,30,2.0,0.0
9520,47.0,0,60,3.0,0.0
9521,47.0,0,60,8.0,0.0
9522,59.0,0,30,1.0,0.0
9523,71.0,30,15,0.0,0.0
9524,59.0,0,30,2.0,0.0
9525,44.0,0,60,3.0,0.0
9526,44.0,0,60,8.0,0.0
9527,74.0,0,15,7.0,0.0
9528,68.0,0,30,0.0,0.0
9529,90.0,0,15,5.0,0.0
9530,50.0,0,120,12.0,0.0
9531,56.0,0,30,1.0,0.0
9532,62.0,30,15,11.0,0.0
9533,50.0,0,15,11.0,0.0
9534,32.0,0,60,4.0,0.0
9535,78.0,0,180,6.0,0.0
9536,68.0,0,30,0.0,0.0
9537,56.0,30,15,2.0,0.0
9538,56.0,30,30,1.0,0.0
9539,47.0,0,60,3.0,0.0
9540,35.0,0,60,4.0,0.0
9541,59.0,30,30,2.0,0.0
9542,71.0,0,30,0.0,0.0
9543,47.0,0,60,8.0,0.0
9544,59.0,0,15,1.0,0.0
9545,71.0,30,30,0.0,0.0
9546,59.0,0,30,2.0,0.0
9547,32.0,0,60,4.0,0.0
9548,56.0,30,30,2.0,0.0
9549,44.0,0,60,8.0,0.0
9550,44.0,0,60,3.0,0.0
9551,68.0,0,30,0.0,0.0
9552,56.0,0,30,1.0,0.0
9553,68.0,0,30,0.0,0.0
9554,56.0,0,30,2.0,0.0
9555,56.0,0,30,1.0,0.0
9556,86.0,0,15,6.0,0.0
9557,66.0,0,15,10.0,0.0
9558,62.0,0,15,10.0,0.0
9559,57.0,0,360,11.0,0.0
9560,33.0,0,360,4.0,0.0
9561,45.0,0,360,11.0,0.0
9562,57.0,0,360,2.0,0.0
9563,66.0,0,15,7.0,0.0
9564,45.0,240,120,12.0,0.0
9565,74.0,120,15,7.0,0.0
9566,45.0,0,360,3.0,0.0
9567,45.0,0,360,8.0,0.0
9568,69.0,0,360,0.0,0.0
9569,57.0,0,360,1.0,0.0
9570,78.0,0,360,6.0,0.0
9571,90.0,0,360,5.0,0.0
9572,62.0,135,40,13.0,0.0
9573,57.0,30,120,13.0,0.0
9574,62.0,90,30,13.0,0.0
9575,66.0,60,60,13.0,0.0
9576,69.0,45,60,13.0,0.0
9577,62.0,0,40,13.0,0.0
9578,66.0,135,40,13.0,0.0
9579,62.0,0,120,13.0,0.0
9580,57.0,30,120,13.0,0.0
9581,62.0,90,30,13.0,0.0
9582,66.0,0,30,13.0,0.0
9583,66.0,0,60,13.0,0.0
9584,69.0,60,15,13.0,0.0
9585,74.0,45,60,13.0,0.0
9586,69.0,0,15,13.0,0.0
9587,66.0,0,40,13.0,0.0
9588,66.0,30,120,13.0,0.0
9589,62.0,0,120,13.0,0.0
9590,69.0,90,30,13.0,0.0
9591,66.0,0,30,13.0,0.0
9592,69.0,0,60,13.0,0.0
9593,78.0,45,60,13.0,0.0
9594,74.0,60,15,13.0,0.0
9595,74.0,0,15,13.0,0.0
9596,78.0,135,40,13.0,0.0
9597,69.0,0,120,13.0,0.0
9598,74.0,30,15,13.0,0.0
9599,78.0,90,30,13.0,0.0
9600,78.0,60,60,13.0,0.0
9601,81.0,0,15,13.0,0.0
9602,86.0,0,60,13.0,0.0
9603,62.0,135,40,13.0,0.0
9604,57.0,30,120,13.0,0.0
9605,62.0,90,30,13.0,0.0
9606,65.0,60,60,13.0,0.0
9607,69.0,45,60,13.0,0.0
9608,65.0,135,40,13.0,0.0
9609,62.0,0,40,13.0,0.0
9610,57.0,30,120,13.0,0.0
9611,62.0,0,120,13.0,0.0
9612,65.0,90,30,13.0,0.0
9613,62.0,0,30,13.0,0.0
9614,69.0,0,60,13.0,0.0
9615,65.0,60,60,13.0,0.0
9616,74.0,0,60,13.0,0.0
9617,69.0,45,15,13.0,0.0
9618,65.0,135,40,13.0,0.0
9619,65.0,0,120,13.0,0.0
9620,62.0,30,120,13.0,0.0
9621,69.0,0,30,13.0,0.0
9622,65.0,90,30,13.0,0.0
9623,69.0,0,60,13.0,0.0
9624,74.0,60,60,13.0,0.0
9625,74.0,0,60,13.0,0.0
9626,77.0,45,60,13.0,0.0
9627,77.0,135,40,13.0,0.0
9628,74.0,0,40,13.0,0.0
9629,69.0,0,120,13.0,0.0
9630,77.0,0,30,13.0,0.0
9631,74.0,30,15,13.0,0.0
9632,77.0,60,60,13.0,0.0
9633,81.0,0,60,13.0,0.0
9634,81.0,45,60,13.0,0.0
9635,86.0,0,60,13.0,0.0
9636,62.0,135,40,13.0,0.0
9637,56.0,30,120,13.0,0.0
9638,62.0,90,30,13.0,0.0
9639,65.0,60,60,13.0,0.0
9640,68.0,45,60,13.0,0.0
9641,65.0,135,40,13.0,0.0
9642,74.0,0,40,13.0,0.0
9643,62.0,30,120,13.0,0.0
9644,70.0,0,120,13.0,0.0
9645,70.0,0,30,13.0,0.0
9646,74.0,90,30,13.0,0.0
9647,74.0,60,60,13.0,0.0
9648,77.0,0,60,13.0,0.0
9649,77.0,0,60,13.0,0.0
9650,82.0,45,60,13.0,0.0
9651,70.0,0,40,13.0,0.0
9652,74.0,135,40,13.0,0.0
9653,68.0,0,120,13.0,0.0
9654,62.0,45,120,13.0,0.0
9655,74.0,75,40,13.0,0.0
9656,66.0,0,40,13.0,0.0
9657,69.0,60,60,13.0,0.0
9658,76.0,0,60,13.0,0.0
9659,74.0,0,60,13.0,0.0
9660,76.0,135,40,13.0,0.0
9661,81.0,45,15,13.0,0.0
9662,76.0,0,120,13.0,0.0
9663,73.0,45,120,13.0,0.0
9664,69.0,75,40,13.0,0.0
9665,76.0,0,40,13.0,0.0
9666,76.0,0,60,13.0,0.0
9667,81.0,60,15,13.0,0.0
9668,88.0,0,60,13.0,0.0
9669,57.0,0,40,13.0,0.0
9670,62.0,75,40,13.0,0.0
9671,62.0,60,60,13.0,0.0
9672,64.0,0,60,13.0,0.0
9673,66.0,0,60,13.0,0.0
9674,74.0,0,40,13.0,0.0
9675,69.0,45,15,13.0,0.0
9676,76.0,60,60,13.0,0.0
9677,69.0,0,60,13.0,0.0
9678,81.0,45,60,13.0,0.0
9679,88.0,0,60,13.0,0.0
9680,57.0,75,40,13.0,0.0
9681,62.0,0,40,13.0,0.0
9682,64.0,60,60,13.0,0.0
9683,62.0,0,60,13.0,0.0
9684,66.0,0,60,13.0,0.0
9685,69.0,45,15,13.0,0.0
9686,74.0,0,40,13.0,0.0
9687,76.0,0,60,13.0,0.0
9688,69.0,60,60,13.0,0.0
9689,88.0,45,60,13.0,0.0
9690,81.0,0,60,13.0,0.0
9691,69.0,0,40,13.0,0.0
9692,74.0,75,40,13.0,0.0
9693,76.0,60,60,13.0,0.0
9694,69.0,0,60,13.0,0.0
9695,88.0,0,60,13.0,0.0
9696,81.0,45,60,13.0,0.0
9697,74.0,0,40,13.0,0.0
9698,69.0,75,40,13.0,0.0
9699,69.0,0,60,13.0,0.0
9700,76.0,60,60,13.0,0.0
9701,81.0,45,60,13.0,0.0
9702,88.0,0,60,13.0,0.0
9703,74.0,0,40,13.0,0.0
9704,66.0,75,40,13.0,0.0
9705,76.0,0,60,13.0,0.0
9706,69.0,60,60,13.0,0.0
9707,74.0,45,60,13.0,0.0
9708,78.0,0,60,13.0,0.0
9709,66.0,75,40,13.0,0.0
9710,74.0,0,40,13.0,0.0
9711,76.0,60,60,13.0,0.0
9712,69.0,0,60,13.0,0.0
9713,78.0,0,60,13.0,0.0
9714,74.0,45,15,13.0,0.0
9715,66.0,60,40,13.0,0.0
9716,69.0,0,60,13.0,0.0
9717,73.0,0,120,13.0,0.0
9718,78.0,15,15,13.0,0.0
9719,76.0,15,15,13.0,0.0
9720,78.0,15,15,13.0,0.0
9721,76.0,15,15,13.0,0.0
9722,78.0,15,15,13.0,0.0
9723,76.0,15,15,13.0,0.0
9724,78.0,15,15,13.0,0.0
9725,76.0,15,15,13.0,0.0
9726,78.0,15,15,13.0,0.0
9727,76.0,15,15,13.0,0.0
9728,78.0,15,15,13.0,0.0
9729,76.0,15,15,13.0,0.0
9730,78.0,15,15,13.0,0.0
9731,76.0,15,15,13.0,0.0
9732,78.0,15,15,13.0,0.0
9733,76.0,15,15,13.0,0.0
9734,78.0,15,15,13.0,0.0
9735,76.0,15,15,13.0,0.0
9736,78.0,15,15,13.0,0.0
9737,76.0,15,15,13.0,0.0
9738,78.0,15,15,13.0,0.0
9739,76.0,15,15,13.0,0.0
9740,78.0,15,15,13.0,0.0
9741,76.0,15,15,13.0,0.0
9742,78.0,15,15,13.0,0.0
9743,76.0,15,15,13.0,0.0
9744,78.0,15,15,13.0,0.0
9745,76.0,15,15,13.0,0.0
9746,78.0,15,15,13.0,0.0
9747,76.0,15,15,13.0,0.0
9748,78.0,15,15,13.0,0.0
9749,76.0,15,15,13.0,0.0
9750,78.0,15,15,13.0,0.0
9751,76.0,15,15,13.0,0.0
9752,78.0,15,15,13.0,0.0
9753,76.0,15,15,13.0,0.0
9754,78.0,15,15,13.0,0.0
9755,76.0,15,15,13.0,0.0
9756,78.0,15,15,13.0,0.0
9757,76.0,15,15,13.0,0.0
9758,78.0,15,15,13.0,0.0
9759,76.0,15,15,13.0,0.0
9760,78.0,15,15,13.0,0.0
9761,52.0,15,60,3.0,0.0
9762,40.0,0,60,4.0,0.0
9763,76.0,15,15,13.0,0.0
9764,78.0,15,15,13.0,0.0
9765,76.0,0,15,13.0,0.0
9766,33.0,15,120,4.0,0.0
9767,78.0,15,15,13.0,0.0
9768,45.0,0,120,3.0,0.0
9769,76.0,15,15,13.0,0.0
9770,78.0,15,15,13.0,0.0
9771,76.0,15,15,13.0,0.0
9772,78.0,15,15,13.0,0.0
9773,76.0,15,15,13.0,0.0
9774,78.0,15,15,13.0,0.0
9775,76.0,0,15,13.0,0.0
9776,49.0,15,30,3.0,0.0
9777,78.0,15,15,13.0,0.0
9778,37.0,0,30,4.0,0.0
9779,76.0,0,15,13.0,0.0
9780,78.0,15,15,13.0,0.0
9781,76.0,15,15,13.0,0.0
9782,40.0,15,60,4.0,0.0
9783,78.0,15,15,13.0,0.0
9784,52.0,0,60,3.0,0.0
9785,76.0,15,15,13.0,0.0
9786,78.0,15,15,13.0,0.0
9787,76.0,0,15,13.0,0.0
9788,55.0,0,60,3.0,0.0
9789,43.0,15,60,4.0,0.0
9790,78.0,15,15,13.0,0.0
9791,76.0,15,15,13.0,0.0
9792,78.0,15,15,13.0,0.0
9793,76.0,0,15,13.0,0.0
9794,78.0,15,15,13.0,0.0
9795,76.0,15,15,13.0,0.0
9796,78.0,15,15,13.0,0.0
9797,76.0,15,15,13.0,0.0
9798,78.0,15,15,13.0,0.0
9799,76.0,15,15,13.0,0.0
9800,78.0,15,15,13.0,0.0
9801,76.0,15,15,13.0,0.0
9802,78.0,15,15,13.0,0.0
9803,76.0,15,15,13.0,0.0
9804,78.0,15,15,13.0,0.0
9805,76.0,15,15,13.0,0.0
9806,78.0,15,15,13.0,0.0
9807,76.0,15,15,13.0,0.0
9808,78.0,15,15,13.0,0.0
9809,76.0,15,15,13.0,0.0
9810,78.0,15,15,13.0,0.0
9811,76.0,15,15,13.0,0.0
9812,78.0,15,15,13.0,0.0
9813,76.0,15,15,13.0,0.0
9814,78.0,15,15,13.0,0.0
9815,76.0,15,15,13.0,0.0
9816,78.0,15,15,13.0,0.0
9817,76.0,15,15,13.0,0.0
9818,43.0,0,60,4.0,0.0
9819,55.0,15,60,3.0,0.0
9820,78.0,15,15,13.0,0.0
9821,76.0,15,15,13.0,0.0
9822,78.0,15,15,13.0,0.0
9823,76.0,0,15,13.0,0.0
9824,37.0,15,120,4.0,0.0
9825,78.0,15,15,13.0,0.0
9826,49.0,0,120,3.0,0.0
9827,76.0,15,15,13.0,0.0
9828,78.0,15,15,13.0,0.0
9829,76.0,15,15,13.0,0.0
9830,78.0,15,15,13.0,0.0
9831,76.0,15,15,13.0,0.0
9832,78.0,15,15,13.0,0.0
9833,76.0,0,15,13.0,0.0
9834,52.0,0,30,3.0,0.0
9835,78.0,15,15,13.0,0.0
9836,40.0,0,30,4.0,0.0
9837,76.0,15,15,13.0,0.0
9838,78.0,15,15,13.0,0.0
9839,76.0,15,15,13.0,0.0
9840,55.0,15,60,3.0,0.0
9841,78.0,15,15,13.0,0.0
9842,43.0,0,60,4.0,0.0
9843,76.0,15,15,13.0,0.0
9844,78.0,15,15,13.0,0.0
9845,76.0,0,15,13.0,0.0
9846,46.0,0,60,4.0,0.0
9847,58.0,15,60,3.0,0.0
9848,78.0,15,15,13.0,0.0
9849,76.0,15,15,13.0,0.0
9850,78.0,15,15,13.0,0.0
9851,76.0,0,15,13.0,0.0
9852,78.0,15,15,13.0,0.0
9853,76.0,15,15,13.0,0.0
9854,78.0,15,15,13.0,0.0
9855,76.0,15,15,13.0,0.0
9856,78.0,15,15,13.0,0.0
9857,76.0,15,15,13.0,0.0
9858,78.0,15,15,13.0,0.0
9859,76.0,15,15,13.0,0.0
9860,78.0,15,15,13.0,0.0
9861,76.0,15,15,13.0,0.0
9862,78.0,15,15,13.0,0.0
9863,76.0,15,15,13.0,0.0
9864,40.0,0,30,4.0,0.0
9865,78.0,15,15,13.0,0.0
9866,52.0,0,30,3.0,0.0
9867,76.0,15,15,13.0,0.0
9868,78.0,15,15,13.0,0.0
9869,76.0,15,15,13.0,0.0
9870,78.0,15,15,13.0,0.0
9871,43.0,0,60,4.0,0.0
9872,55.0,15,60,3.0,0.0
9873,76.0,15,15,13.0,0.0
9874,78.0,15,15,13.0,0.0
9875,76.0,0,15,13.0,0.0
9876,58.0,15,60,3.0,0.0
9877,78.0,15,15,13.0,0.0
9878,46.0,0,60,4.0,0.0
9879,76.0,15,15,13.0,0.0
9880,78.0,15,15,13.0,0.0
9881,76.0,0,15,13.0,0.0
9882,78.0,15,15,13.0,0.0
9883,76.0,15,15,13.0,0.0
9884,78.0,15,15,13.0,0.0
9885,76.0,15,15,13.0,0.0
9886,78.0,15,15,13.0,0.0
9887,76.0,15,15,13.0,0.0
9888,78.0,15,15,13.0,0.0
9889,76.0,15,15,13.0,0.0
9890,78.0,15,15,13.0,0.0
9891,76.0,15,15,13.0,0.0
9892,78.0,15,15,13.0,0.0
9893,76.0,15,15,13.0,0.0
9894,43.0,0,30,4.0,0.0
9895,55.0,0,30,3.0,0.0
9896,78.0,15,15,13.0,0.0
9897,76.0,15,15,13.0,0.0
9898,78.0,15,15,13.0,0.0
9899,76.0,15,15,13.0,0.0
9900,58.0,0,60,3.0,0.0
9901,46.0,0,60,4.0,0.0
9902,78.0,15,15,13.0,0.0
9903,76.0,15,15,13.0,0.0
9904,78.0,15,15,13.0,0.0
9905,76.0,15,15,13.0,0.0
9906,49.0,0,60,4.0,0.0
9907,78.0,15,15,13.0,0.0
9908,61.0,0,60,3.0,0.0
9909,76.0,15,15,13.0,0.0
9910,78.0,15,15,13.0,0.0
9911,76.0,15,15,13.0,0.0
9912,78.0,15,15,13.0,0.0
9913,76.0,15,15,13.0,0.0
9914,78.0,15,15,13.0,0.0
9915,76.0,15,15,13.0,0.0
9916,78.0,15,15,13.0,0.0
9917,76.0,15,15,13.0,0.0
9918,78.0,15,15,13.0,0.0
9919,76.0,15,15,13.0,0.0
9920,78.0,15,15,13.0,0.0
9921,76.0,15,15,13.0,0.0
9922,78.0,15,15,13.0,0.0
9923,76.0,15,15,13.0,0.0
9924,43.0,0,30,4.0,0.0
9925,55.0,0,30,3.0,0.0
9926,78.0,15,15,13.0,0.0
9927,76.0,15,15,13.0,0.0
9928,78.0,15,15,13.0,0.0
9929,76.0,15,15,13.0,0.0
9930,58.0,0,60,3.0,0.0
9931,78.0,15,15,13.0,0.0
9932,46.0,0,60,4.0,0.0
9933,76.0,15,15,13.0,0.0
9934,78.0,15,15,13.0,0.0
9935,76.0,15,15,13.0,0.0
9936,61.0,0,60,3.0,0.0
9937,78.0,15,15,13.0,0.0
9938,49.0,0,60,4.0,0.0
9939,76.0,15,15,13.0,0.0
9940,78.0,15,15,13.0,0.0
9941,76.0,15,15,13.0,0.0
9942,78.0,15,15,13.0,0.0
9943,76.0,15,15,13.0,0.0
9944,78.0,15,15,13.0,0.0
9945,76.0,15,15,13.0,0.0
9946,78.0,15,15,13.0,0.0
9947,46.0,0,60,4.0,0.0
9948,58.0,0,60,3.0,0.0
9949,76.0,15,15,13.0,0.0
9950,78.0,15,15,13.0,0.0
9951,76.0,15,15,13.0,0.0
9952,61.0,0,60,3.0,0.0
9953,78.0,15,15,13.0,0.0
9954,49.0,15,60,4.0,0.0
9955,76.0,15,15,13.0,0.0
9956,78.0,15,15,13.0,0.0
9957,76.0,0,15,13.0,0.0
9958,78.0,15,15,13.0,0.0
9959,76.0,15,15,13.0,0.0
9960,78.0,15,15,13.0,0.0
9961,76.0,15,15,13.0,0.0
9962,46.0,0,60,4.0,0.0
9963,58.0,15,60,3.0,0.0
9964,78.0,15,15,13.0,0.0
9965,76.0,15,15,13.0,0.0
9966,78.0,15,15,13.0,0.0
9967,76.0,0,15,13.0,0.0
9968,78.0,15,15,13.0,0.0
9969,49.0,0,60,4.0,0.0
9970,61.0,15,60,3.0,0.0
9971,76.0,15,15,13.0,0.0
9972,78.0,15,15,13.0,0.0
9973,76.0,0,15,13.0,0.0
9974,78.0,15,15,13.0,0.0
9975,76.0,15,15,13.0,0.0
9976,78.0,15,15,13.0,0.0
9977,76.0,15,15,13.0,0.0
9978,78.0,15,15,13.0,0.0
9979,76.0,15,15,13.0,0.0
9980,78.0,15,15,13.0,0.0
9981,76.0,15,15,13.0,0.0
9982,78.0,15,15,13.0,0.0
9983,76.0,15,15,13.0,0.0
9984,78.0,15,15,13.0,0.0
9985,76.0,15,15,13.0,0.0
9986,78.0,15,15,13.0,0.0
9987,67.0,15,60,0.0,0.0
9988,76.0,15,15,13.0,0.0
9989,78.0,15,15,13.0,0.0
9990,76.0,0,15,13.0,0.0
9991,78.0,15,15,13.0,0.0
9992,70.0,0,60,0.0,0.0
9993,76.0,15,15,13.0,0.0
9994,78.0,15,15,13.0,0.0
9995,76.0,15,15,13.0,0.0
9996,73.0,0,60,0.0,0.0
9997,78.0,15,15,13.0,0.0
9998,76.0,15,15,13.0,0.0
9999,78.0,15,15,13.0,0.0
10000,76.0,15,15,13.0,0.0
10001,78.0,15,15,13.0,0.0
10002,76.0,15,15,13.0,0.0
10003,78.0,15,15,13.0,0.0
10004,76.0,15,15,13.0,0.0
10005,70.0,0,60,0.0,0.0
10006,78.0,15,15,13.0,0.0
10007,76.0,15,15,13.0,0.0
10008,78.0,15,15,13.0,0.0
10009,76.0,15,15,13.0,0.0
10010,73.0,0,60,0.0,0.0
10011,78.0,15,15,13.0,0.0
10012,76.0,15,15,13.0,0.0
10013,78.0,15,15,13.0,0.0
10014,76.0,15,15,13.0,0.0
10015,78.0,15,15,13.0,0.0
10016,76.0,15,15,13.0,0.0
10017,78.0,15,15,13.0,0.0
10018,76.0,15,15,13.0,0.0
10019,70.0,0,60,0.0,0.0
10020,78.0,15,15,13.0,0.0
10021,76.0,15,15,13.0,0.0
10022,78.0,15,15,13.0,0.0
10023,76.0,15,15,13.0,0.0
10024,78.0,15,15,13.0,0.0
10025,73.0,0,60,0.0,0.0
10026,76.0,15,15,13.0,0.0
10027,78.0,15,15,13.0,0.0
10028,76.0,15,15,13.0,0.0
10029,78.0,15,15,13.0,0.0
10030,76.0,15,15,13.0,0.0
10031,78.0,15,15,13.0,0.0
10032,76.0,15,15,13.0,0.0
10033,78.0,15,15,13.0,0.0
10034,67.0,0,60,1.0,0.0
10035,70.0,0,60,0.0,0.0
10036,75.0,15,15,13.0,0.0
10037,78.0,15,15,13.0,0.0
10038,75.0,15,15,13.0,0.0
10039,78.0,15,15,13.0,0.0
10040,70.0,0,60,1.0,0.0
10041,73.0,0,60,0.0,0.0
10042,75.0,15,15,13.0,0.0
10043,78.0,15,15,13.0,0.0
10044,75.0,15,15,13.0,0.0
10045,78.0,15,15,13.0,0.0
10046,75.0,15,15,13.0,0.0
10047,78.0,15,15,13.0,0.0
10048,75.0,15,15,13.0,0.0
10049,78.0,15,15,13.0,0.0
10050,70.0,15,60,0.0,0.0
10051,67.0,0,60,1.0,0.0
10052,75.0,15,15,13.0,0.0
10053,78.0,15,15,13.0,0.0
10054,75.0,0,15,13.0,0.0
10055,70.0,0,60,1.0,0.0
10056,73.0,0,60,0.0,0.0
10057,78.0,15,15,13.0,0.0
10058,75.0,15,15,13.0,0.0
10059,78.0,15,15,13.0,0.0
10060,75.0,15,15,13.0,0.0
10061,78.0,15,15,13.0,0.0
10062,75.0,15,15,13.0,0.0
10063,78.0,15,15,13.0,0.0
10064,75.0,15,15,13.0,0.0
10065,78.0,15,15,13.0,0.0
10066,67.0,15,60,1.0,0.0
10067,70.0,0,60,0.0,0.0
10068,75.0,15,15,13.0,0.0
10069,78.0,15,15,13.0,0.0
10070,75.0,0,15,13.0,0.0
10071,73.0,15,60,0.0,0.0
10072,78.0,15,15,13.0,0.0
10073,70.0,0,60,1.0,0.0
10074,75.0,15,15,13.0,0.0
10075,78.0,15,15,13.0,0.0
10076,75.0,0,15,13.0,0.0
10077,78.0,15,15,13.0,0.0
10078,75.0,15,15,13.0,0.0
10079,78.0,15,15,13.0,0.0
10080,75.0,15,15,13.0,0.0
10081,70.0,15,60,0.0,0.0
10082,67.0,0,60,1.0,0.0
10083,78.0,15,15,13.0,0.0
10084,75.0,15,15,13.0,0.0
10085,78.0,15,15,13.0,0.0
10086,75.0,0,15,13.0,0.0
10087,78.0,15,15,13.0,0.0
10088,70.0,0,60,1.0,0.0
10089,73.0,0,60,0.0,0.0
10090,75.0,15,15,13.0,0.0
10091,78.0,15,15,13.0,0.0
10092,75.0,15,15,13.0,0.0
10093,78.0,15,15,13.0,0.0
10094,75.0,15,15,13.0,0.0
10095,78.0,15,15,13.0,0.0
10096,75.0,120,15,13.0,0.0
10097,68.0,0,60,1.0,0.0
10098,72.0,0,60,0.0,0.0
10099,80.0,15,40,13.0,0.0
10100,68.0,60,60,1.0,0.0
10101,84.0,60,60,13.0,0.0
10102,72.0,0,15,0.0,0.0
10103,68.0,60,120,1.0,0.0
10104,87.0,0,60,13.0,0.0
10105,80.0,120,60,13.0,0.0
10106,75.0,0,120,13.0,0.0
10107,72.0,60,15,0.0,0.0
10108,68.0,0,15,1.0,0.0
10109,80.0,0,60,13.0,0.0
10110,72.0,0,120,0.0,0.0
10111,68.0,45,120,1.0,0.0
10112,84.0,60,60,13.0,0.0
10113,87.0,0,60,13.0,0.0
10114,87.0,135,40,13.0,0.0
10115,85.0,0,120,13.0,0.0
10116,70.0,60,60,0.0,0.0
10117,67.0,0,60,1.0,0.0
10118,67.0,0,60,0.0,0.0
10119,63.0,0,60,1.0,0.0
10120,87.0,120,60,13.0,0.0
10121,84.0,0,120,13.0,0.0
10122,68.0,0,60,1.0,0.0
10123,68.0,60,60,0.0,0.0
10124,61.0,0,60,1.0,0.0
10125,85.0,60,60,13.0,0.0
10126,70.0,0,60,0.0,0.0
10127,63.0,0,60,1.0,0.0
10128,82.0,60,60,13.0,0.0
10129,67.0,0,60,0.0,0.0
10130,67.0,0,60,0.0,0.0
10131,63.0,0,60,1.0,0.0
10132,82.0,15,60,13.0,0.0
10133,68.0,0,60,0.0,0.0
10134,85.0,15,15,13.0,0.0
10135,84.0,15,15,13.0,0.0
10136,85.0,15,15,13.0,0.0
10137,84.0,120,15,13.0,0.0
10138,63.0,0,15,1.0,0.0
10139,67.0,60,120,0.0,0.0
10140,82.0,0,120,13.0,0.0
10141,75.0,30,60,13.0,0.0
10142,72.0,0,360,6.0,0.0
10143,56.0,30,360,8.0,0.0
10144,74.0,30,30,13.0,0.0
10145,60.0,0,360,8.0,0.0
10146,75.0,30,30,13.0,0.0
10147,60.0,0,60,1.0,0.0
10148,56.0,0,60,2.0,0.0
10149,77.0,30,30,13.0,0.0
10150,44.0,30,60,3.0,0.0
10151,75.0,0,30,13.0,0.0
10152,32.0,0,15,4.0,0.0
10153,63.0,0,15,0.0,0.0
10154,80.0,30,30,13.0,0.0
10155,44.0,0,60,3.0,0.0
10156,75.0,0,30,13.0,0.0
10157,63.0,0,15,0.0,0.0
10158,32.0,0,15,4.0,0.0
10159,84.0,30,30,13.0,0.0
10160,44.0,0,120,3.0,0.0
10161,60.0,30,15,1.0,0.0
10162,56.0,0,15,2.0,0.0
10163,75.0,30,30,13.0,0.0
10164,87.0,30,30,13.0,0.0
10165,75.0,0,30,13.0,0.0
10166,84.0,30,30,13.0,0.0
10167,75.0,0,30,13.0,0.0
10168,74.0,30,30,13.0,0.0
10169,54.0,0,360,8.0,0.0
10170,60.0,0,360,8.0,0.0
10171,75.0,30,30,13.0,0.0
10172,42.0,0,60,4.0,0.0
10173,57.0,0,60,2.0,0.0
10174,77.0,30,30,13.0,0.0
10175,75.0,0,30,13.0,0.0
10176,81.0,30,30,13.0,0.0
10177,63.0,0,15,0.0,0.0
10178,60.0,0,15,1.0,0.0
10179,54.0,30,15,3.0,0.0
10180,69.0,0,30,13.0,0.0
10181,60.0,0,15,1.0,0.0
10182,63.0,0,15,0.0,0.0
10183,42.0,30,15,4.0,0.0
10184,57.0,0,15,2.0,0.0
10185,84.0,30,30,13.0,0.0
10186,54.0,0,120,3.0,0.0
10187,69.0,30,30,13.0,0.0
10188,87.0,30,30,13.0,0.0
10189,69.0,0,30,13.0,0.0
10190,84.0,30,30,13.0,0.0
10191,69.0,30,30,13.0,0.0
10192,74.0,30,30,13.0,0.0
10193,53.0,30,360,8.0,0.0
10194,60.0,0,360,8.0,0.0
10195,75.0,0,15,6.0,0.0
10196,69.0,0,15,6.0,0.0
10197,75.0,30,30,13.0,0.0
10198,77.0,30,30,13.0,0.0
10199,53.0,0,60,3.0,0.0
10200,75.0,0,30,13.0,0.0
10201,41.0,0,15,4.0,0.0
10202,63.0,0,15,0.0,0.0
10203,57.0,30,15,2.0,0.0
10204,60.0,0,15,1.0,0.0
10205,81.0,30,30,13.0,0.0
10206,53.0,0,60,3.0,0.0
10207,69.0,0,30,13.0,0.0
10208,84.0,30,30,13.0,0.0
10209,60.0,30,15,1.0,0.0
10210,63.0,0,120,0.0,0.0
10211,57.0,0,120,2.0,0.0
10212,41.0,0,15,4.0,0.0
10213,53.0,0,120,3.0,0.0
10214,69.0,30,30,13.0,0.0
10215,87.0,30,30,13.0,0.0
10216,69.0,0,30,13.0,0.0
10217,84.0,30,30,13.0,0.0
10218,69.0,0,30,13.0,0.0
10219,69.0,30,360,6.0,0.0
10220,76.0,0,360,6.0,0.0
10221,60.0,0,360,8.0,0.0
10222,75.0,30,30,13.0,0.0
10223,52.0,0,360,8.0,0.0
10224,76.0,30,30,13.0,0.0
10225,41.0,0,60,4.0,0.0
10226,77.0,30,30,13.0,0.0
10227,76.0,0,30,13.0,0.0
10228,60.0,0,15,1.0,0.0
10229,53.0,0,15,3.0,0.0
10230,57.0,0,15,2.0,0.0
10231,81.0,30,30,13.0,0.0
10232,64.0,30,15,0.0,0.0
10233,69.0,0,30,13.0,0.0
10234,64.0,0,15,0.0,0.0
10235,41.0,0,15,4.0,0.0
10236,84.0,30,30,13.0,0.0
10237,53.0,0,15,3.0,0.0
10238,60.0,0,120,1.0,0.0
10239,57.0,0,120,2.0,0.0
10240,69.0,30,30,13.0,0.0
10241,88.0,30,30,13.0,0.0
10242,69.0,30,30,13.0,0.0
10243,84.0,30,30,13.0,0.0
10244,69.0,0,30,13.0,0.0
10245,78.0,30,720,6.0,0.0
10246,69.0,30,360,6.0,0.0
10247,51.0,0,360,8.0,0.0
10248,69.0,30,30,13.0,0.0
10249,84.0,30,30,13.0,0.0
10250,57.0,0,60,2.0,0.0
10251,39.0,0,60,4.0,0.0
10252,83.0,30,30,13.0,0.0
10253,66.0,0,60,0.0,0.0
10254,84.0,0,30,13.0,0.0
10255,51.0,0,15,3.0,0.0
10256,72.0,30,30,13.0,0.0
10257,60.0,30,15,1.0,0.0
10258,66.0,0,60,0.0,0.0
10259,84.0,0,30,13.0,0.0
10260,57.0,0,15,2.0,0.0
10261,51.0,30,15,3.0,0.0
10262,39.0,0,15,4.0,0.0
10263,60.0,0,15,1.0,0.0
10264,66.0,30,120,0.0,0.0
10265,78.0,30,30,13.0,0.0
10266,84.0,30,30,13.0,0.0
10267,81.0,30,30,13.0,0.0
10268,84.0,0,30,13.0,0.0
10269,69.0,30,30,13.0,0.0
10270,84.0,0,30,13.0,0.0
10271,50.0,0,720,8.0,0.0
10272,60.0,0,15,8.0,0.0
10273,69.0,30,30,13.0,0.0
10274,69.0,0,360,6.0,0.0
10275,84.0,30,30,13.0,0.0
10276,83.0,30,30,13.0,0.0
10277,66.0,0,60,0.0,0.0
10278,60.0,0,60,1.0,0.0
10279,84.0,0,30,13.0,0.0
10280,51.0,0,15,3.0,0.0
10281,39.0,0,15,4.0,0.0
10282,72.0,30,30,13.0,0.0
10283,57.0,30,15,2.0,0.0
10284,66.0,0,60,0.0,0.0
10285,84.0,0,30,13.0,0.0
10286,39.0,0,15,4.0,0.0
10287,51.0,0,15,3.0,0.0
10288,60.0,30,15,1.0,0.0
10289,57.0,0,120,2.0,0.0
10290,66.0,0,120,0.0,0.0
10291,78.0,30,30,13.0,0.0
10292,84.0,30,30,13.0,0.0
10293,81.0,30,30,13.0,0.0
10294,84.0,0,30,13.0,0.0
10295,69.0,30,30,13.0,0.0
10296,84.0,0,30,13.0,0.0
10297,58.0,0,360,8.0,0.0
10298,55.0,30,30,13.0,0.0
10299,67.0,30,360,6.0,0.0
10300,79.0,0,720,6.0,0.0
10301,82.0,30,30,13.0,0.0
10302,67.0,0,60,0.0,0.0
10303,81.0,30,30,13.0,0.0
10304,38.0,0,60,4.0,0.0
10305,50.0,0,60,3.0,0.0
10306,82.0,0,30,13.0,0.0
10307,58.0,0,15,2.0,0.0
10308,67.0,0,60,0.0,0.0
10309,62.0,30,15,1.0,0.0
10310,38.0,0,60,4.0,0.0
10311,79.0,30,30,13.0,0.0
10312,82.0,0,30,13.0,0.0
10313,50.0,30,15,3.0,0.0
10314,79.0,30,30,13.0,0.0
10315,58.0,0,15,2.0,0.0
10316,67.0,0,120,0.0,0.0
10317,62.0,0,15,1.0,0.0
10318,38.0,0,120,4.0,0.0
10319,82.0,30,30,13.0,0.0
10320,81.0,30,30,13.0,0.0
10321,82.0,0,30,13.0,0.0
10322,79.0,30,30,13.0,0.0
10323,82.0,0,30,13.0,0.0
10324,57.0,0,360,8.0,0.0
10325,76.0,30,360,6.0,0.0
10326,79.0,30,30,13.0,0.0
10327,48.0,0,360,8.0,0.0
10328,81.0,30,30,13.0,0.0
10329,37.0,0,60,4.0,0.0
10330,64.0,0,60,1.0,0.0
10331,67.0,0,60,0.0,0.0
10332,85.0,30,30,13.0,0.0
10333,88.0,30,30,13.0,0.0
10334,67.0,0,60,0.0,0.0
10335,37.0,0,60,4.0,0.0
10336,57.0,0,15,2.0,0.0
10337,64.0,0,60,1.0,0.0
10338,49.0,0,15,3.0,0.0
10339,85.0,30,30,13.0,0.0
10340,81.0,0,30,13.0,0.0
10341,67.0,0,120,0.0,0.0
10342,57.0,30,15,2.0,0.0
10343,37.0,30,120,4.0,0.0
10344,79.0,30,30,13.0,0.0
10345,49.0,0,120,3.0,0.0
10346,64.0,0,120,1.0,0.0
10347,81.0,30,30,13.0,0.0
10348,76.0,30,30,13.0,0.0
10349,81.0,0,30,13.0,0.0
10350,79.0,30,30,13.0,0.0
10351,81.0,0,30,13.0,0.0
10352,77.0,30,30,13.0,0.0
10353,50.0,0,360,8.0,0.0
10354,74.0,15,1440,6.0,0.0
10355,57.0,30,360,8.0,0.0
10356,77.0,30,720,6.0,0.0
10357,81.0,30,30,13.0,0.0
10358,82.0,30,30,13.0,0.0
10359,83.0,0,30,13.0,0.0
10360,62.0,0,15,1.0,0.0
10361,65.0,0,15,0.0,0.0
10362,38.0,0,15,4.0,0.0
10363,57.0,0,15,2.0,0.0
10364,50.0,30,15,3.0,0.0
10365,84.0,30,30,13.0,0.0
10366,85.0,0,30,13.0,0.0
10367,57.0,0,120,2.0,0.0
10368,38.0,0,15,4.0,0.0
10369,50.0,0,15,3.0,0.0
10370,62.0,0,120,1.0,0.0
10371,86.0,30,30,13.0,0.0
10372,65.0,30,15,0.0,0.0
10373,81.0,30,30,13.0,0.0
10374,77.0,30,30,13.0,0.0
10375,74.0,0,30,13.0,0.0
10376,77.0,30,30,13.0,0.0
10377,81.0,0,30,13.0,0.0
10378,44.0,0,360,8.0,0.0
10379,86.0,30,30,13.0,0.0
10380,59.0,0,360,8.0,0.0
10381,83.0,30,30,13.0,0.0
10382,77.0,30,30,13.0,0.0
10383,62.0,0,60,1.0,0.0
10384,44.0,0,60,3.0,0.0
10385,65.0,0,60,0.0,0.0
10386,74.0,30,30,13.0,0.0
10387,59.0,0,15,2.0,0.0
10388,65.0,0,60,0.0,0.0
10389,77.0,30,30,13.0,0.0
10390,32.0,0,15,4.0,0.0
10391,44.0,0,60,3.0,0.0
10392,83.0,0,30,13.0,0.0
10393,32.0,0,15,4.0,0.0
10394,86.0,60,60,13.0,0.0
10395,62.0,0,15,1.0,0.0
10396,59.0,60,15,2.0,0.0
10397,65.0,0,120,0.0,0.0
10398,44.0,0,120,3.0,0.0
10399,88.0,0,60,13.0,0.0
10400,89.0,0,60,13.0,0.0
10401,62.0,0,720,10.0,0.0
10402,90.0,30,30,13.0,0.0
10403,66.0,0,720,10.0,0.0
10404,57.0,0,1440,8.0,0.0
10405,78.0,0,720,6.0,0.0
10406,45.0,360,1440,8.0,0.0
10407,62.0,30,30,13.0,0.0
10408,45.0,0,60,3.0,0.0
10409,57.0,30,60,2.0,0.0
10410,64.0,30,30,13.0,0.0
10411,66.0,0,30,13.0,0.0
10412,67.0,30,30,13.0,0.0
10413,33.0,0,15,4.0,0.0
10414,45.0,0,60,3.0,0.0
10415,66.0,0,15,0.0,0.0
10416,62.0,0,15,1.0,0.0
10417,69.0,30,30,13.0,0.0
10418,57.0,0,15,2.0,0.0
10419,62.0,0,120,1.0,0.0
10420,66.0,30,120,0.0,0.0
10421,33.0,0,120,4.0,0.0
10422,71.0,30,30,13.0,0.0
10423,45.0,0,120,3.0,0.0
10424,73.0,30,30,13.0,0.0
10425,74.0,30,30,13.0,0.0
10426,76.0,0,30,13.0,0.0
10427,78.0,30,30,13.0,0.0
10428,79.0,30,30,13.0,0.0
10429,81.0,30,30,13.0,0.0
10430,83.0,30,30,13.0,0.0
10431,85.0,30,30,13.0,0.0
10432,86.0,20,30,13.0,0.0
10433,88.0,20,20,13.0,0.0
10434,90.0,20,20,13.0,0.0
10435,91.0,45,20,13.0,0.0
10436,93.0,60,40,13.0,0.0
10437,91.0,60,40,13.0,0.0
10438,90.0,15,40,13.0,0.0
10439,73.0,0,720,6.0,0.0
10440,79.0,0,720,6.0,0.0
10441,64.0,0,720,10.0,0.0
10442,90.0,15,15,13.0,0.0
10443,57.0,0,720,10.0,0.0
10444,88.0,15,15,13.0,0.0
10445,90.0,15,15,13.0,0.0
10446,88.0,15,15,13.0,0.0
10447,33.0,0,60,4.0,0.0
10448,61.0,0,60,1.0,0.0
10449,90.0,15,15,13.0,0.0
10450,88.0,15,15,13.0,0.0
10451,90.0,15,15,13.0,0.0
10452,88.0,15,15,13.0,0.0
10453,67.0,0,15,0.0,0.0
10454,45.0,0,15,3.0,0.0
10455,61.0,0,60,1.0,0.0
10456,64.0,0,15,1.0,0.0
10457,57.0,0,15,2.0,0.0
10458,33.0,0,60,4.0,0.0
10459,90.0,15,15,13.0,0.0
10460,88.0,15,15,13.0,0.0
10461,90.0,15,15,13.0,0.0
10462,88.0,0,15,13.0,0.0
10463,90.0,15,15,13.0,0.0
10464,57.0,0,15,2.0,0.0
10465,33.0,0,120,4.0,0.0
10466,64.0,0,120,1.0,0.0
10467,45.0,15,15,3.0,0.0
10468,61.0,0,120,1.0,0.0
10469,67.0,0,120,0.0,0.0
10470,88.0,15,15,13.0,0.0
10471,90.0,15,15,13.0,0.0
10472,88.0,15,15,13.0,0.0
10473,90.0,15,15,13.0,0.0
10474,88.0,15,15,13.0,0.0
10475,90.0,15,15,13.0,0.0
10476,88.0,15,15,13.0,0.0
10477,90.0,15,15,13.0,0.0
10478,88.0,15,15,13.0,0.0
10479,90.0,15,15,13.0,0.0
10480,88.0,15,15,13.0,0.0
10481,90.0,15,15,13.0,0.0
10482,88.0,15,15,13.0,0.0
10483,90.0,15,15,13.0,0.0
10484,88.0,15,15,13.0,0.0
10485,90.0,15,15,13.0,0.0
10486,88.0,15,15,13.0,0.0
10487,90.0,15,15,13.0,0.0
10488,88.0,15,15,13.0,0.0
10489,90.0,15,15,13.0,0.0
10490,88.0,15,15,13.0,0.0
10491,90.0,15,15,13.0,0.0
10492,88.0,15,15,13.0,0.0
10493,90.0,15,15,13.0,0.0
10494,88.0,15,15,13.0,0.0
10495,90.0,15,15,13.0,0.0
10496,88.0,15,15,13.0,0.0
10497,90.0,15,15,13.0,0.0
10498,88.0,15,15,13.0,0.0
10499,90.0,15,15,13.0,0.0
10500,88.0,30,15,13.0,0.0
10501,87.0,30,30,13.0,0.0
10502,88.0,0,30,13.0,0.0
10503,91.0,360,360,13.0,0.0
10504,88.0,360,360,13.0,0.0
10505,83.0,360,360,13.0,0.0
10506,85.0,0,360,13.0,0.0
10507,74.0,96,60,6.0,0.0
10508,69.0,0,120,6.0,0.0
10509,86.0,0,120,13.0,0.0
10510,62.0,0,120,1.0,0.0
10511,50.0,0,120,3.0,0.0
10512,38.0,30,120,4.0,0.0
10513,66.0,0,120,0.0,0.0
10514,57.0,0,120,0.0,0.0
10515,57.0,0,90,8.0,0.0
10516,50.0,0,90,8.0,0.0
10517,74.0,24,90,7.0,0.0
10518,66.0,0,90,7.0,0.0
10519,50.0,0,120,2.0,0.0
10520,66.0,0,40,7.0,0.0
10521,74.0,0,40,7.0,0.0
10522,74.0,18,30,6.0,0.0
10523,57.0,0,40,8.0,0.0
10524,50.0,72,40,8.0,0.0
10525,74.0,0,90,7.0,0.0
10526,66.0,0,90,7.0,0.0
10527,78.0,36,60,6.0,0.0
10528,57.0,0,90,8.0,0.0
10529,50.0,24,90,8.0,0.0
10530,81.0,48,60,6.0,0.0
10531,74.0,0,40,7.0,0.0
10532,57.0,12,40,8.0,0.0
10533,50.0,0,40,8.0,0.0
10534,74.0,96,60,6.0,0.0
10535,66.0,0,40,7.0,0.0
10536,50.0,0,90,8.0,0.0
10537,69.0,48,120,6.0,0.0
10538,57.0,24,90,8.0,0.0
10539,66.0,0,90,7.0,0.0
10540,74.0,0,90,7.0,0.0
10541,57.0,12,40,8.0,0.0
10542,74.0,0,40,7.0,0.0
10543,74.0,60,60,6.0,0.0
10544,66.0,0,40,7.0,0.0
10545,50.0,0,40,8.0,0.0
10546,74.0,24,90,7.0,0.0
10547,66.0,0,90,7.0,0.0
10548,78.0,36,60,6.0,0.0
10549,57.0,0,90,8.0,0.0
10550,50.0,0,90,8.0,0.0
10551,81.0,48,60,6.0,0.0
10552,66.0,0,40,7.0,0.0
10553,57.0,0,40,8.0,0.0
10554,50.0,0,40,8.0,0.0
10555,74.0,12,40,7.0,0.0
10556,86.0,96,60,13.0,0.0
10557,91.0,0,120,13.0,0.0
10558,67.0,0,120,0.0,0.0
10559,57.0,0,120,0.0,0.0
10560,67.0,0,90,7.0,0.0
10561,50.0,0,120,2.0,0.0
10562,73.0,24,90,7.0,0.0
10563,38.0,0,120,4.0,0.0
10564,64.0,0,120,1.0,0.0
10565,50.0,48,120,3.0,0.0
10566,57.0,0,90,8.0,0.0
10567,50.0,0,90,8.0,0.0
10568,73.0,12,40,7.0,0.0
10569,88.0,60,60,13.0,0.0
10570,67.0,0,40,7.0,0.0
10571,57.0,0,40,8.0,0.0
10572,50.0,0,40,8.0,0.0
10573,57.0,45,120,0.0,0.0
10574,57.0,0,90,8.0,0.0
10575,50.0,0,120,3.0,0.0
10576,67.0,0,90,7.0,0.0
10577,85.0,36,60,13.0,0.0
10578,50.0,0,120,2.0,0.0
10579,50.0,0,90,8.0,0.0
10580,73.0,9,90,7.0,0.0
10581,67.0,0,120,0.0,0.0
10582,64.0,0,120,1.0,0.0
10583,38.0,0,120,4.0,0.0
10584,81.0,15,40,13.0,0.0
10585,67.0,0,40,7.0,0.0
10586,50.0,108,40,8.0,0.0
10587,81.0,3,40,13.0,0.0
10588,57.0,0,40,8.0,0.0
10589,73.0,0,40,7.0,0.0
10590,50.0,48,120,3.0,0.0
10591,38.0,0,120,4.0,0.0
10592,67.0,0,120,0.0,0.0
10593,50.0,24,90,8.0,0.0
10594,67.0,0,90,7.0,0.0
10595,64.0,0,120,1.0,0.0
10596,73.0,0,90,7.0,0.0
10597,57.0,0,90,8.0,0.0
10598,50.0,0,120,2.0,0.0
10599,57.0,0,120,0.0,0.0
10600,91.0,0,120,13.0,0.0
10601,50.0,0,40,8.0,0.0
10602,57.0,0,40,8.0,0.0
10603,73.0,0,40,7.0,0.0
10604,67.0,12,40,7.0,0.0
10605,88.0,60,60,13.0,0.0
10606,57.0,0,90,8.0,0.0
10607,50.0,9,90,8.0,0.0
10608,50.0,0,120,3.0,0.0
10609,64.0,0,120,1.0,0.0
10610,38.0,0,120,4.0,0.0
10611,50.0,45,120,2.0,0.0
10612,67.0,0,90,7.0,0.0
10613,73.0,0,90,7.0,0.0
10614,57.0,0,120,0.0,0.0
10615,67.0,0,120,0.0,0.0
10616,85.0,36,60,13.0,0.0
10617,81.0,15,40,13.0,0.0
10618,74.0,0,40,7.0,0.0
10619,66.0,0,40,7.0,0.0
10620,57.0,12,40,8.0,0.0
10621,50.0,0,40,8.0,0.0
10622,74.0,96,60,6.0,0.0
10623,81.0,3,40,13.0,0.0
10624,62.0,0,60,10.0,0.0
10625,86.0,0,120,13.0,0.0
10626,62.0,0,120,1.0,0.0
10627,50.0,0,120,3.0,0.0
10628,57.0,24,90,8.0,0.0
10629,66.0,0,90,7.0,0.0
10630,50.0,0,90,8.0,0.0
10631,66.0,0,120,0.0,0.0
10632,57.0,30,120,0.0,0.0
10633,50.0,0,120,2.0,0.0
10634,38.0,0,120,4.0,0.0
10635,57.0,0,120,10.0,0.0
10636,69.0,0,120,6.0,0.0
10637,74.0,0,90,7.0,0.0
10638,50.0,0,40,8.0,0.0
10639,57.0,0,40,8.0,0.0
10640,74.0,72,40,7.0,0.0
10641,74.0,0,30,6.0,0.0
10642,62.0,18,30,10.0,0.0
10643,66.0,0,40,7.0,0.0
10644,66.0,36,60,10.0,0.0
10645,78.0,0,60,6.0,0.0
10646,57.0,0,90,8.0,0.0
10647,50.0,0,90,8.0,0.0
10648,66.0,0,90,7.0,0.0
10649,74.0,24,90,7.0,0.0
10650,69.0,0,60,10.0,0.0
10651,81.0,48,60,6.0,0.0
10652,74.0,96,60,6.0,0.0
10653,66.0,0,40,7.0,0.0
10654,74.0,0,40,7.0,0.0
10655,62.0,0,60,10.0,0.0
10656,50.0,12,40,8.0,0.0
10657,57.0,0,40,8.0,0.0
10658,57.0,30,120,10.0,0.0
10659,69.0,0,120,6.0,0.0
10660,50.0,0,90,8.0,0.0
10661,57.0,0,90,8.0,0.0
10662,66.0,0,90,7.0,0.0
10663,74.0,24,90,7.0,0.0
10664,57.0,12,40,8.0,0.0
10665,50.0,0,40,8.0,0.0
10666,74.0,60,60,6.0,0.0
10667,74.0,0,40,7.0,0.0
10668,62.0,18,30,10.0,0.0
10669,66.0,0,40,7.0,0.0
10670,57.0,0,90,8.0,0.0
10671,78.0,36,60,6.0,0.0
10672,66.0,0,60,10.0,0.0
10673,74.0,0,90,7.0,0.0
10674,66.0,0,90,7.0,0.0
10675,50.0,24,90,8.0,0.0
10676,69.0,0,60,10.0,0.0
10677,81.0,48,60,6.0,0.0
10678,74.0,0,60,6.0,0.0
10679,86.0,0,60,13.0,0.0
10680,74.0,0,40,7.0,0.0
10681,66.0,12,40,7.0,0.0
10682,62.0,96,60,10.0,0.0
10683,50.0,0,40,8.0,0.0
10684,57.0,0,40,8.0,0.0
10685,50.0,0,120,3.0,0.0
10686,67.0,0,90,7.0,0.0
10687,73.0,0,90,7.0,0.0
10688,64.0,48,120,1.0,0.0
10689,50.0,0,90,8.0,0.0
10690,57.0,0,120,10.0,0.0
10691,50.0,0,120,2.0,0.0
10692,73.0,0,720,6.0,0.0
10693,91.0,0,120,13.0,0.0
10694,38.0,0,120,4.0,0.0
10695,67.0,0,120,0.0,0.0
10696,57.0,24,90,8.0,0.0
10697,57.0,0,120,0.0,0.0
10698,73.0,12,40,7.0,0.0
10699,67.0,0,40,7.0,0.0
10700,50.0,0,40,8.0,0.0
10701,57.0,0,40,8.0,0.0
10702,88.0,60,60,13.0,0.0
10703,64.0,45,120,1.0,0.0
10704,85.0,36,60,13.0,0.0
10705,38.0,0,120,4.0,0.0
10706,50.0,0,120,3.0,0.0
10707,57.0,0,120,0.0,0.0
10708,50.0,0,120,2.0,0.0
10709,67.0,0,120,0.0,0.0
10710,73.0,9,90,7.0,0.0
10711,67.0,0,90,7.0,0.0
10712,50.0,0,90,8.0,0.0
10713,57.0,0,90,8.0,0.0
10714,81.0,15,40,13.0,0.0
10715,67.0,0,40,7.0,0.0
10716,81.0,3,40,13.0,0.0
10717,57.0,0,40,8.0,0.0
10718,50.0,108,40,8.0,0.0
10719,73.0,0,40,7.0,0.0
10720,73.0,0,90,7.0,0.0
10721,57.0,0,120,0.0,0.0
10722,67.0,0,120,0.0,0.0
10723,79.0,30,360,6.0,0.0
10724,91.0,0,120,13.0,0.0
10725,57.0,0,90,8.0,0.0
10726,50.0,0,90,8.0,0.0
10727,50.0,0,120,2.0,0.0
10728,38.0,0,120,4.0,0.0
10729,64.0,48,120,1.0,0.0
10730,67.0,24,90,7.0,0.0
10731,50.0,0,120,3.0,0.0
10732,57.0,0,40,8.0,0.0
10733,88.0,60,60,13.0,0.0
10734,50.0,12,40,8.0,0.0
10735,73.0,0,40,7.0,0.0
10736,67.0,0,40,7.0,0.0
10737,50.0,0,120,3.0,0.0
10738,50.0,45,120,2.0,0.0
10739,67.0,0,120,0.0,0.0
10740,57.0,0,120,0.0,0.0
10741,67.0,0,90,7.0,0.0
10742,73.0,0,90,7.0,0.0
10743,57.0,9,90,8.0,0.0
10744,50.0,0,90,8.0,0.0
10745,38.0,0,120,4.0,0.0
10746,64.0,0,120,1.0,0.0
10747,85.0,36,60,13.0,0.0
10748,81.0,15,40,13.0,0.0
10749,50.0,0,40,8.0,0.0
10750,57.0,0,40,8.0,0.0
10751,73.0,0,40,7.0,0.0
10752,67.0,12,40,7.0,0.0
10753,81.0,3,40,13.0,0.0
10754,50.0,0,120,2.0,0.0
10755,66.0,0,720,7.0,0.0
10756,72.0,60,720,7.0,0.0
10757,60.0,0,120,0.0,0.0
10758,78.0,0,720,6.0,0.0
10759,60.0,0,720,8.0,0.0
10760,57.0,0,720,8.0,0.0
10761,72.0,0,720,6.0,0.0
10762,57.0,0,120,1.0,0.0
10763,84.0,30,30,13.0,0.0
10764,50.0,0,120,3.0,0.0
10765,86.0,30,30,13.0,0.0
10766,88.0,30,30,13.0,0.0
10767,86.0,0,30,13.0,0.0
10768,84.0,0,30,13.0,0.0
10769,50.0,0,60,3.0,0.0
10770,38.0,0,15,4.0,0.0
10771,66.0,30,30,0.0,0.0
10772,66.0,30,15,1.0,0.0
10773,83.0,0,30,13.0,0.0
10774,57.0,0,15,1.0,0.0
10775,66.0,0,15,1.0,0.0
10776,50.0,30,15,2.0,0.0
10777,81.0,30,30,13.0,0.0
10778,38.0,0,15,4.0,0.0
10779,69.0,0,60,0.0,0.0
10780,83.0,30,30,13.0,0.0
10781,72.0,0,60,0.0,0.0
10782,84.0,30,30,13.0,0.0
10783,83.0,0,30,13.0,0.0
10784,66.0,0,60,1.0,0.0
10785,57.0,0,60,1.0,0.0
10786,38.0,0,15,4.0,0.0
10787,60.0,0,60,0.0,0.0
10788,50.0,30,15,3.0,0.0
10789,81.0,30,30,13.0,0.0
10790,79.0,0,30,13.0,0.0
10791,78.0,30,30,13.0,0.0
10792,66.0,0,120,1.0,0.0
10793,57.0,0,120,1.0,0.0
10794,84.0,0,360,5.0,0.0
10795,60.0,0,120,0.0,0.0
10796,50.0,0,15,2.0,0.0
10797,50.0,30,15,3.0,0.0
10798,79.0,30,30,13.0,0.0
10799,81.0,30,30,13.0,0.0
10800,79.0,0,30,13.0,0.0
10801,78.0,30,30,13.0,0.0
10802,50.0,0,15,2.0,0.0
10803,66.0,0,60,1.0,0.0
10804,50.0,30,15,3.0,0.0
10805,57.0,0,60,1.0,0.0
10806,66.0,0,30,0.0,0.0
10807,38.0,0,15,4.0,0.0
10808,76.0,0,30,13.0,0.0
10809,74.0,30,30,13.0,0.0
10810,69.0,0,60,0.0,0.0
10811,50.0,0,120,2.0,0.0
10812,50.0,0,120,3.0,0.0
10813,76.0,30,30,13.0,0.0
10814,72.0,0,60,0.0,0.0
10815,74.0,30,30,13.0,0.0
10816,72.0,0,30,13.0,0.0
10817,71.0,30,30,13.0,0.0
10818,60.0,0,60,0.0,0.0
10819,38.0,0,15,4.0,0.0
10820,57.0,0,15,1.0,0.0
10821,66.0,30,15,1.0,0.0
10822,69.0,0,30,13.0,0.0
10823,50.0,0,15,3.0,0.0
10824,50.0,0,15,2.0,0.0
10825,55.0,0,720,8.0,0.0
10826,66.0,0,15,1.0,0.0
10827,59.0,0,720,8.0,0.0
10828,62.0,0,1440,10.0,0.0
10829,50.0,0,1440,10.0,0.0
10830,71.0,0,720,6.0,0.0
10831,79.0,0,720,6.0,0.0
10832,59.0,0,120,0.0,0.0
10833,83.0,0,720,5.0,0.0
10834,71.0,0,720,7.0,0.0
10835,71.0,30,60,13.0,0.0
10836,62.0,30,30,13.0,0.0
10837,67.0,0,30,13.0,0.0
10838,62.0,30,30,0.0,0.0
10839,50.0,0,60,2.0,0.0
10840,66.0,0,15,1.0,0.0
10841,57.0,0,15,1.0,0.0
10842,38.0,30,15,4.0,0.0
10843,71.0,0,30,13.0,0.0
10844,74.0,0,30,13.0,0.0
10845,67.0,30,60,0.0,0.0
10846,38.0,60,15,4.0,0.0
10847,50.0,0,15,3.0,0.0
10848,79.0,0,60,13.0,0.0
10849,71.0,30,60,0.0,0.0
10850,67.0,30,30,13.0,0.0
10851,71.0,0,30,13.0,0.0
10852,38.0,0,15,4.0,0.0
10853,57.0,0,15,1.0,0.0
10854,66.0,0,15,1.0,0.0
10855,74.0,30,30,13.0,0.0
10856,50.0,0,15,2.0,0.0
10857,79.0,0,30,13.0,0.0
10858,50.0,0,15,3.0,0.0
10859,83.0,30,60,13.0,0.0
10860,57.0,60,15,1.0,0.0
10861,66.0,0,15,1.0,0.0
10862,59.0,0,15,0.0,0.0
10863,38.0,0,15,4.0,0.0
10864,71.0,30,30,13.0,0.0
10865,74.0,30,30,13.0,0.0
10866,38.0,0,60,4.0,0.0
10867,66.0,0,60,1.0,0.0
10868,50.0,0,15,2.0,0.0
10869,57.0,0,60,1.0,0.0
10870,79.0,30,30,13.0,0.0
10871,62.0,0,30,0.0,0.0
10872,83.0,60,30,13.0,0.0
10873,50.0,0,15,3.0,0.0
10874,38.0,0,120,4.0,0.0
10875,67.0,30,60,0.0,0.0
10876,66.0,0,120,1.0,0.0
10877,86.0,0,60,13.0,0.0
10878,50.0,0,120,2.0,0.0
10879,74.0,30,30,13.0,0.0
10880,71.0,0,60,0.0,0.0
10881,79.0,0,30,13.0,0.0
10882,50.0,0,60,2.0,0.0
10883,83.0,30,30,13.0,0.0
10884,57.0,30,15,1.0,0.0
10885,50.0,15,60,3.0,0.0
10886,59.0,0,60,0.0,0.0
10887,38.0,0,60,4.0,0.0
10888,86.0,0,30,13.0,0.0
10889,50.0,0,720,11.0,0.0
10890,73.0,0,720,6.0,0.0
10891,57.0,0,15,1.0,0.0
10892,66.0,0,15,1.0,0.0
10893,69.0,0,720,7.0,0.0
10894,67.0,0,15,7.0,0.0
10895,50.0,15,15,12.0,0.0
10896,62.0,0,720,11.0,0.0
10897,79.0,0,720,6.0,0.0
10898,91.0,15,30,13.0,0.0
10899,85.0,0,720,5.0,0.0
10900,61.0,0,120,0.0,0.0
10901,50.0,0,120,2.0,0.0
10902,50.0,0,120,3.0,0.0
10903,55.0,0,720,8.0,0.0
10904,52.0,0,720,8.0,0.0
10905,49.0,0,15,12.0,0.0
10906,50.0,15,15,12.0,0.0
10907,90.0,15,30,13.0,0.0
10908,49.0,0,15,12.0,0.0
10909,88.0,15,30,13.0,0.0
10910,50.0,15,15,12.0,0.0
10911,49.0,0,15,12.0,0.0
10912,50.0,15,15,12.0,0.0
10913,86.0,15,30,13.0,0.0
10914,49.0,0,15,12.0,0.0
10915,66.0,0,15,1.0,0.0
10916,57.0,0,15,1.0,0.0
10917,38.0,0,15,4.0,0.0
10918,50.0,15,15,12.0,0.0
10919,85.0,0,30,13.0,0.0
10920,64.0,0,30,0.0,0.0
10921,49.0,15,15,12.0,0.0
10922,50.0,15,15,12.0,0.0
10923,83.0,0,30,13.0,0.0
10924,49.0,0,15,12.0,0.0
10925,81.0,15,30,13.0,0.0
10926,50.0,15,15,12.0,0.0
10927,50.0,0,15,2.0,0.0
10928,50.0,0,15,3.0,0.0
10929,67.0,0,60,0.0,0.0
10930,66.0,0,120,1.0,0.0
10931,57.0,0,120,1.0,0.0
10932,49.0,0,15,12.0,0.0
10933,50.0,15,15,12.0,0.0
10934,83.0,15,30,13.0,0.0
10935,49.0,0,15,12.0,0.0
10936,73.0,0,60,0.0,0.0
10937,85.0,15,30,13.0,0.0
10938,50.0,15,15,12.0,0.0
10939,49.0,0,15,12.0,0.0
10940,50.0,15,15,12.0,0.0
10941,86.0,0,30,13.0,0.0
10942,49.0,0,15,12.0,0.0
10943,61.0,0,60,0.0,0.0
10944,50.0,15,15,12.0,0.0
10945,88.0,0,30,13.0,0.0
10946,38.0,0,15,4.0,0.0
10947,50.0,0,60,3.0,0.0
10948,50.0,0,60,2.0,0.0
10949,49.0,15,15,12.0,0.0
10950,90.0,0,30,13.0,0.0
10951,50.0,15,15,12.0,0.0
10952,49.0,15,15,12.0,0.0
10953,91.0,15,30,13.0,0.0
10954,61.0,0,120,0.0,0.0
10955,57.0,0,15,1.0,0.0
10956,66.0,0,15,1.0,0.0
10957,50.0,15,15,12.0,0.0
10958,50.0,0,120,2.0,0.0
10959,49.0,0,15,12.0,0.0
10960,50.0,15,15,12.0,0.0
10961,90.0,15,30,13.0,0.0
10962,49.0,0,15,12.0,0.0
10963,88.0,0,30,13.0,0.0
10964,50.0,15,15,12.0,0.0
10965,49.0,15,15,12.0,0.0
10966,86.0,0,30,13.0,0.0
10967,50.0,15,15,12.0,0.0
10968,49.0,0,15,12.0,0.0
10969,85.0,0,30,13.0,0.0
10970,50.0,15,15,12.0,0.0
10971,38.0,0,15,4.0,0.0
10972,50.0,15,15,3.0,0.0
10973,50.0,0,60,2.0,0.0
10974,57.0,0,15,1.0,0.0
10975,66.0,0,15,1.0,0.0
10976,64.0,15,30,0.0,0.0
10977,49.0,0,15,12.0,0.0
10978,86.0,0,30,13.0,0.0
10979,50.0,15,15,12.0,0.0
10980,49.0,0,15,12.0,0.0
10981,50.0,15,15,12.0,0.0
10982,67.0,15,60,0.0,0.0
10983,50.0,0,120,3.0,0.0
10984,66.0,0,120,1.0,0.0
10985,88.0,15,30,13.0,0.0
10986,49.0,0,15,12.0,0.0
10987,50.0,15,15,12.0,0.0
10988,90.0,0,30,13.0,0.0
10989,49.0,0,15,12.0,0.0
10990,50.0,15,15,12.0,0.0
10991,73.0,15,60,0.0,0.0
10992,91.0,0,30,13.0,0.0
10993,49.0,15,15,12.0,0.0
10994,93.0,0,30,13.0,0.0
10995,50.0,15,15,12.0,0.0
10996,49.0,0,15,12.0,0.0
10997,50.0,0,15,2.0,0.0
10998,50.0,0,60,3.0,0.0
10999,50.0,15,15,12.0,0.0
11000,57.0,0,15,1.0,0.0
11001,95.0,15,30,13.0,0.0
11002,38.0,0,15,4.0,0.0
11003,61.0,0,60,0.0,0.0
11004,49.0,0,15,12.0,0.0
11005,50.0,15,15,12.0,0.0
11006,97.0,0,30,13.0,0.0
11007,49.0,0,15,12.0,0.0
11008,62.0,0,30,2.0,0.0
11009,38.0,0,15,4.0,0.0
11010,50.0,0,120,8.0,0.0
11011,98.0,0,120,13.0,0.0
11012,50.0,15,15,12.0,0.0
11013,66.0,0,120,7.0,0.0
11014,74.0,0,120,7.0,0.0
11015,66.0,0,15,1.0,0.0
11016,54.0,0,120,10.0,0.0
11017,62.0,0,120,10.0,0.0
11018,86.0,0,120,5.0,0.0
11019,74.0,0,120,6.0,0.0
11020,62.0,0,120,11.0,0.0
11021,50.0,0,120,3.0,0.0
11022,57.0,15,15,1.0,0.0
11023,62.0,0,120,0.0,0.0
11024,49.0,15,15,12.0,0.0
11025,50.0,15,15,12.0,0.0
11026,62.0,0,30,2.0,0.0
11027,49.0,0,15,12.0,0.0
11028,66.0,15,15,1.0,0.0
11029,57.0,0,15,1.0,0.0
11030,50.0,15,15,12.0,0.0
11031,49.0,0,15,12.0,0.0
11032,57.0,0,15,1.0,0.0
11033,66.0,0,15,1.0,0.0
11034,50.0,15,15,12.0,0.0
11035,62.0,15,15,2.0,0.0
11036,49.0,0,15,12.0,0.0
11037,78.0,0,15,6.0,0.0
11038,50.0,15,15,12.0,0.0
11039,54.0,0,30,8.0,0.0
11040,66.0,0,15,1.0,0.0
11041,57.0,0,15,1.0,0.0
11042,54.0,0,30,3.0,0.0
11043,90.0,0,60,5.0,0.0
11044,62.0,15,15,2.0,0.0
11045,50.0,0,15,11.0,0.0
11046,42.0,0,30,4.0,0.0
11047,49.0,0,15,12.0,0.0
11048,50.0,15,15,12.0,0.0
11049,49.0,0,15,12.0,0.0
11050,66.0,15,15,7.0,0.0
11051,62.0,0,15,11.0,0.0
11052,50.0,0,15,11.0,0.0
11053,57.0,0,60,8.0,0.0
11054,45.0,0,60,4.0,0.0
11055,62.0,0,15,2.0,0.0
11056,54.0,0,15,10.0,0.0
11057,62.0,0,15,10.0,0.0
11058,78.0,0,15,0.0,0.0
11059,74.0,0,15,0.0,0.0
11060,66.0,0,15,1.0,0.0
11061,78.0,0,15,6.0,0.0
11062,74.0,0,15,6.0,0.0
11063,57.0,0,15,1.0,0.0
11064,90.0,0,120,5.0,0.0
11065,57.0,0,60,3.0,0.0
11066,50.0,15,15,12.0,0.0
11067,74.0,0,15,7.0,0.0
11068,49.0,0,15,12.0,0.0
11069,50.0,15,15,12.0,0.0
11070,57.0,0,30,1.0,0.0
11071,49.0,0,15,12.0,0.0
11072,62.0,0,15,2.0,0.0
11073,50.0,0,60,4.0,0.0
11074,50.0,15,15,12.0,0.0
11075,62.0,0,60,3.0,0.0
11076,62.0,0,60,8.0,0.0
11077,66.0,15,15,1.0,0.0
11078,49.0,0,15,12.0,0.0
11079,62.0,15,15,2.0,0.0
11080,66.0,0,15,1.0,0.0
11081,57.0,0,15,1.0,0.0
11082,50.0,15,15,12.0,0.0
11083,49.0,0,15,12.0,0.0
11084,66.0,0,15,1.0,0.0
11085,50.0,15,30,3.0,0.0
11086,38.0,0,30,4.0,0.0
11087,50.0,0,30,8.0,0.0
11088,50.0,15,15,12.0,0.0
11089,62.0,0,15,11.0,0.0
11090,50.0,0,15,11.0,0.0
11091,49.0,0,15,12.0,0.0
11092,57.0,0,15,1.0,0.0
11093,62.0,0,15,2.0,0.0
11094,50.0,15,15,12.0,0.0
11095,49.0,0,15,12.0,0.0
11096,78.0,0,15,6.0,0.0
11097,74.0,0,15,6.0,0.0
11098,62.0,0,15,10.0,0.0
11099,54.0,0,15,10.0,0.0
11100,62.0,30,30,13.0,0.0
11101,78.0,0,15,0.0,0.0
11102,74.0,0,15,0.0,0.0
11103,50.0,0,120,11.0,0.0
11104,62.0,0,120,11.0,0.0
11105,74.0,0,15,7.0,0.0
11106,50.0,0,120,12.0,0.0
11107,66.0,0,15,7.0,0.0
11108,62.0,0,30,2.0,0.0
11109,90.0,0,15,5.0,0.0
11110,66.0,0,15,1.0,0.0
11111,57.0,30,15,1.0,0.0
11112,66.0,0,15,1.0,0.0
11113,66.0,0,30,13.0,0.0
11114,57.0,0,15,1.0,0.0
11115,69.0,30,30,13.0,0.0
11116,66.0,0,30,1.0,0.0
11117,57.0,0,30,1.0,0.0
11118,62.0,30,15,2.0,0.0
11119,74.0,0,30,13.0,0.0
11120,66.0,0,30,1.0,0.0
11121,62.0,0,30,2.0,0.0
11122,62.0,0,30,2.0,0.0
11123,57.0,0,15,1.0,0.0
11124,78.0,0,30,13.0,0.0
11125,66.0,0,30,1.0,0.0
11126,57.0,30,15,1.0,0.0
11127,81.0,0,30,13.0,0.0
11128,57.0,0,15,1.0,0.0
11129,66.0,0,15,1.0,0.0
11130,62.0,30,15,2.0,0.0
11131,86.0,30,30,13.0,0.0
11132,66.0,0,15,1.0,0.0
11133,57.0,0,15,1.0,0.0
11134,62.0,30,30,2.0,0.0
11135,85.0,0,30,13.0,0.0
11136,86.0,30,30,13.0,0.0
11137,57.0,0,30,1.0,0.0
11138,62.0,0,30,2.0,0.0
11139,66.0,0,30,1.0,0.0
11140,57.0,0,30,1.0,0.0
11141,62.0,0,30,2.0,0.0
11142,88.0,0,30,13.0,0.0
11143,66.0,30,15,1.0,0.0
11144,90.0,0,15,13.0,0.0
11145,66.0,0,15,1.0,0.0
11146,57.0,0,15,1.0,0.0
11147,62.0,30,15,2.0,0.0
11148,59.0,0,30,1.0,0.0
11149,66.0,0,15,1.0,0.0
11150,62.0,0,120,11.0,0.0
11151,50.0,0,120,11.0,0.0
11152,62.0,0,120,0.0,0.0
11153,90.0,0,120,13.0,0.0
11154,35.0,0,120,4.0,0.0
11155,47.0,0,120,3.0,0.0
11156,74.0,0,120,7.0,0.0
11157,66.0,0,120,7.0,0.0
11158,50.0,15,120,8.0,0.0
11159,62.0,0,120,10.0,0.0
11160,50.0,15,15,12.0,0.0
11161,62.0,15,30,2.0,0.0
11162,49.0,0,15,12.0,0.0
11163,50.0,15,15,12.0,0.0
11164,66.0,0,15,1.0,0.0
11165,59.0,0,30,1.0,0.0
11166,62.0,0,30,2.0,0.0
11167,49.0,15,15,12.0,0.0
11168,62.0,0,30,2.0,0.0
11169,59.0,0,30,1.0,0.0
11170,50.0,15,15,12.0,0.0
11171,49.0,15,15,12.0,0.0
11172,59.0,0,30,1.0,0.0
11173,66.0,0,15,1.0,0.0
11174,62.0,0,30,2.0,0.0
11175,50.0,15,15,12.0,0.0
11176,49.0,0,15,12.0,0.0
11177,78.0,0,60,0.0,0.0
11178,50.0,0,30,3.0,0.0
11179,66.0,0,30,1.0,0.0
11180,38.0,0,30,4.0,0.0
11181,78.0,0,15,6.0,0.0
11182,74.0,0,15,6.0,0.0
11183,90.0,0,15,5.0,0.0
11184,74.0,0,60,0.0,0.0
11185,54.0,0,15,10.0,0.0
11186,50.0,15,15,12.0,0.0
11187,54.0,0,30,8.0,0.0
11188,49.0,0,15,12.0,0.0
11189,50.0,15,15,12.0,0.0
11190,62.0,15,15,2.0,0.0
11191,59.0,0,15,1.0,0.0
11192,66.0,0,30,1.0,0.0
11193,49.0,0,15,12.0,0.0
11194,50.0,15,15,12.0,0.0
11195,66.0,15,15,7.0,0.0
11196,42.0,0,60,4.0,0.0
11197,57.0,0,60,8.0,0.0
11198,62.0,0,30,2.0,0.0
11199,54.0,0,60,3.0,0.0
11200,54.0,0,15,10.0,0.0
11201,62.0,0,15,10.0,0.0
11202,50.0,0,15,11.0,0.0
11203,62.0,0,15,11.0,0.0
11204,78.0,0,15,6.0,0.0
11205,90.0,0,120,5.0,0.0
11206,78.0,0,120,0.0,0.0
11207,74.0,0,15,7.0,0.0
11208,59.0,0,30,1.0,0.0
11209,66.0,0,30,1.0,0.0
11210,49.0,15,15,12.0,0.0
11211,62.0,15,30,2.0,0.0
11212,50.0,15,15,12.0,0.0
11213,59.0,0,30,1.0,0.0
11214,66.0,0,30,1.0,0.0
11215,49.0,0,15,12.0,0.0
11216,59.0,0,60,3.0,0.0
11217,50.0,15,15,12.0,0.0
11218,66.0,0,30,1.0,0.0
11219,47.0,0,60,4.0,0.0
11220,59.0,15,30,1.0,0.0
11221,62.0,0,60,8.0,0.0
11222,49.0,0,15,12.0,0.0
11223,62.0,0,15,2.0,0.0
11224,59.0,0,30,1.0,0.0
11225,66.0,0,30,1.0,0.0
11226,50.0,15,15,12.0,0.0
11227,49.0,0,15,12.0,0.0
11228,62.0,0,15,2.0,0.0
11229,74.0,0,15,0.0,0.0
11230,50.0,15,15,12.0,0.0
11231,47.0,0,60,3.0,0.0
11232,62.0,0,15,11.0,0.0
11233,35.0,0,60,4.0,0.0
11234,50.0,0,60,8.0,0.0
11235,50.0,0,15,11.0,0.0
11236,54.0,0,15,10.0,0.0
11237,66.0,0,30,1.0,0.0
11238,74.0,15,15,6.0,0.0
11239,78.0,0,60,6.0,0.0
11240,62.0,0,60,10.0,0.0
11241,74.0,0,60,7.0,0.0
11242,49.0,0,15,12.0,0.0
11243,50.0,15,15,12.0,0.0
11244,62.0,0,30,2.0,0.0
11245,59.0,15,15,1.0,0.0
11246,49.0,0,15,12.0,0.0
11247,62.0,30,30,13.0,0.0
11248,50.0,0,120,11.0,0.0
11249,54.0,0,15,10.0,0.0
11250,90.0,0,15,5.0,0.0
11251,62.0,0,120,11.0,0.0
11252,66.0,0,15,1.0,0.0
11253,62.0,0,120,10.0,0.0
11254,74.0,0,120,7.0,0.0
11255,66.0,0,15,7.0,0.0
11256,62.0,0,30,2.0,0.0
11257,50.0,0,120,12.0,0.0
11258,74.0,0,120,6.0,0.0
11259,78.0,0,120,6.0,0.0
11260,78.0,30,15,0.0,0.0
11261,74.0,0,15,0.0,0.0
11262,66.0,30,30,13.0,0.0
11263,59.0,0,15,1.0,0.0
11264,66.0,0,15,1.0,0.0
11265,62.0,0,15,2.0,0.0
11266,66.0,0,15,1.0,0.0
11267,69.0,0,30,13.0,0.0
11268,74.0,0,30,13.0,0.0
11269,62.0,30,30,2.0,0.0
11270,59.0,0,15,1.0,0.0
11271,66.0,30,15,1.0,0.0
11272,66.0,0,15,1.0,0.0
11273,59.0,0,15,1.0,0.0
11274,78.0,0,30,13.0,0.0
11275,62.0,30,15,2.0,0.0
11276,81.0,0,30,13.0,0.0
11277,66.0,0,30,1.0,0.0
11278,59.0,0,15,1.0,0.0
11279,62.0,30,15,2.0,0.0
11280,86.0,0,30,13.0,0.0
11281,66.0,0,30,1.0,0.0
11282,59.0,30,15,1.0,0.0
11283,85.0,0,30,13.0,0.0
11284,66.0,0,30,1.0,0.0
11285,86.0,0,30,13.0,0.0
11286,62.0,0,15,2.0,0.0
11287,59.0,30,15,1.0,0.0
11288,66.0,0,30,1.0,0.0
11289,88.0,0,30,13.0,0.0
11290,62.0,0,30,2.0,0.0
11291,62.0,0,30,2.0,0.0
11292,66.0,0,15,1.0,0.0
11293,59.0,30,15,1.0,0.0
11294,59.0,0,15,1.0,0.0
11295,90.0,30,15,13.0,0.0
11296,66.0,0,30,1.0,0.0
11297,50.0,0,120,12.0,0.0
11298,74.0,0,120,6.0,0.0
11299,88.0,0,120,5.0,0.0
11300,76.0,0,120,6.0,0.0
11301,62.0,0,120,10.0,0.0
11302,62.0,0,15,2.0,0.0
11303,43.0,0,120,3.0,0.0
11304,64.0,0,30,1.0,0.0
11305,64.0,0,120,10.0,0.0
11306,62.0,0,120,11.0,0.0
11307,50.0,0,120,11.0,0.0
11308,31.0,0,120,4.0,0.0
11309,88.0,30,30,13.0,0.0
11310,43.0,0,120,8.0,0.0
11311,79.0,0,120,0.0,0.0
11312,71.0,0,120,0.0,0.0
11313,74.0,0,120,7.0,0.0
11314,64.0,0,120,7.0,0.0
11315,64.0,0,120,0.0,0.0
11316,91.0,30,30,13.0,0.0
11317,62.0,0,15,2.0,0.0
11318,64.0,0,15,1.0,0.0
11319,88.0,0,30,13.0,0.0
11320,83.0,0,30,13.0,0.0
11321,64.0,0,15,1.0,0.0
11322,79.0,30,30,13.0,0.0
11323,62.0,30,15,2.0,0.0
11324,62.0,0,15,2.0,0.0
11325,76.0,0,30,13.0,0.0
11326,74.0,0,30,13.0,0.0
11327,64.0,30,15,1.0,0.0
11328,62.0,0,30,2.0,0.0
11329,62.0,0,30,2.0,0.0
11330,64.0,30,15,1.0,0.0
11331,55.0,30,30,13.0,0.0
11332,59.0,0,30,13.0,0.0
11333,64.0,30,15,1.0,0.0
11334,64.0,0,30,13.0,0.0
11335,62.0,0,15,2.0,0.0
11336,64.0,0,30,1.0,0.0
11337,67.0,0,30,13.0,0.0
11338,62.0,30,15,2.0,0.0
11339,71.0,0,30,13.0,0.0
11340,62.0,30,15,2.0,0.0
11341,64.0,0,30,1.0,0.0
11342,45.0,0,120,12.0,0.0
11343,33.0,0,120,4.0,0.0
11344,57.0,0,120,10.0,0.0
11345,57.0,0,120,0.0,0.0
11346,64.0,0,120,10.0,0.0
11347,64.0,0,120,7.0,0.0
11348,73.0,0,120,7.0,0.0
11349,64.0,0,120,0.0,0.0
11350,55.0,0,30,13.0,0.0
11351,45.0,0,120,3.0,0.0
11352,45.0,0,120,8.0,0.0
11353,69.0,0,120,0.0,0.0
11354,76.0,0,120,0.0,0.0
11355,88.0,0,120,5.0,0.0
11356,57.0,0,120,11.0,0.0
11357,45.0,0,120,11.0,0.0
11358,85.0,30,120,6.0,0.0
11359,76.0,0,120,6.0,0.0
11360,61.0,0,30,13.0,0.0
11361,61.0,0,15,2.0,0.0
11362,64.0,30,15,1.0,0.0
11363,64.0,0,30,13.0,0.0
11364,64.0,0,15,1.0,0.0
11365,67.0,0,30,13.0,0.0
11366,61.0,0,15,2.0,0.0
11367,64.0,30,15,1.0,0.0
11368,73.0,0,30,13.0,0.0
11369,61.0,0,15,2.0,0.0
11370,76.0,0,30,13.0,0.0
11371,64.0,30,15,1.0,0.0
11372,64.0,0,30,1.0,0.0
11373,79.0,30,30,13.0,0.0
11374,61.0,0,15,2.0,0.0
11375,85.0,0,30,13.0,0.0
11376,88.0,0,30,13.0,0.0
11377,64.0,0,15,1.0,0.0
11378,61.0,30,15,2.0,0.0
11379,91.0,0,30,13.0,0.0
11380,61.0,0,15,2.0,0.0
11381,88.0,30,30,13.0,0.0
11382,64.0,0,15,1.0,0.0
11383,61.0,30,15,2.0,0.0
11384,61.0,0,15,2.0,0.0
11385,64.0,0,30,1.0,0.0
11386,85.0,15,30,13.0,0.0
11387,38.0,0,120,4.0,0.0
11388,50.0,15,15,12.0,0.0
11389,50.0,0,120,11.0,0.0
11390,50.0,0,120,3.0,0.0
11391,54.0,0,120,10.0,0.0
11392,62.0,0,120,0.0,0.0
11393,50.0,0,120,8.0,0.0
11394,62.0,0,120,10.0,0.0
11395,86.0,0,120,13.0,0.0
11396,49.0,15,15,12.0,0.0
11397,62.0,0,15,2.0,0.0
11398,57.0,0,15,1.0,0.0
11399,66.0,0,15,1.0,0.0
11400,50.0,15,15,12.0,0.0
11401,49.0,15,15,12.0,0.0
11402,62.0,0,30,2.0,0.0
11403,66.0,0,30,1.0,0.0
11404,50.0,15,15,12.0,0.0
11405,49.0,15,15,12.0,0.0
11406,57.0,0,15,1.0,0.0
11407,50.0,15,15,12.0,0.0
11408,62.0,0,30,2.0,0.0
11409,49.0,0,15,12.0,0.0
11410,66.0,0,15,1.0,0.0
11411,78.0,0,15,6.0,0.0
11412,74.0,0,15,6.0,0.0
11413,74.0,0,60,0.0,0.0
11414,62.0,0,15,11.0,0.0
11415,42.0,15,30,4.0,0.0
11416,90.0,0,15,5.0,0.0
11417,50.0,15,15,12.0,0.0
11418,57.0,0,30,1.0,0.0
11419,54.0,0,30,3.0,0.0
11420,66.0,0,15,7.0,0.0
11421,74.0,15,15,7.0,0.0
11422,54.0,0,30,8.0,0.0
11423,49.0,0,15,12.0,0.0
11424,62.0,0,15,2.0,0.0
11425,66.0,0,15,1.0,0.0
11426,50.0,15,15,12.0,0.0
11427,57.0,0,30,1.0,0.0
11428,49.0,0,15,12.0,0.0
11429,54.0,0,15,10.0,0.0
11430,74.0,0,15,6.0,0.0
11431,78.0,0,15,6.0,0.0
11432,62.0,0,30,2.0,0.0
11433,90.0,0,120,5.0,0.0
11434,50.0,15,15,12.0,0.0
11435,62.0,0,15,10.0,0.0
11436,57.0,15,60,8.0,0.0
11437,78.0,0,15,0.0,0.0
11438,66.0,15,15,7.0,0.0
11439,45.0,0,60,4.0,0.0
11440,50.0,0,15,11.0,0.0
11441,74.0,0,15,7.0,0.0
11442,57.0,15,30,1.0,0.0
11443,66.0,0,15,1.0,0.0
11444,74.0,0,120,0.0,0.0
11445,57.0,0,60,3.0,0.0
11446,49.0,0,15,12.0,0.0
11447,50.0,15,15,12.0,0.0
11448,49.0,0,15,12.0,0.0
11449,66.0,0,15,1.0,0.0
11450,57.0,0,15,1.0,0.0
11451,50.0,15,15,12.0,0.0
11452,62.0,0,15,2.0,0.0
11453,62.0,0,60,3.0,0.0
11454,62.0,0,60,8.0,0.0
11455,49.0,0,15,12.0,0.0
11456,62.0,15,15,2.0,0.0
11457,57.0,15,30,1.0,0.0
11458,66.0,0,15,1.0,0.0
11459,50.0,15,15,12.0,0.0
11460,49.0,0,15,12.0,0.0
11461,78.0,0,15,0.0,0.0
11462,78.0,0,15,6.0,0.0
11463,62.0,0,15,10.0,0.0
11464,50.0,0,15,4.0,0.0
11465,74.0,0,15,7.0,0.0
11466,66.0,0,15,7.0,0.0
11467,50.0,0,30,8.0,0.0
11468,62.0,0,15,11.0,0.0
11469,50.0,0,15,11.0,0.0
11470,62.0,0,30,3.0,0.0
11471,54.0,0,60,10.0,0.0
11472,50.0,15,15,12.0,0.0
11473,62.0,0,15,2.0,0.0
11474,74.0,0,60,0.0,0.0
11475,57.0,0,30,1.0,0.0
11476,66.0,15,30,1.0,0.0
11477,49.0,0,15,12.0,0.0
11478,57.0,0,30,1.0,0.0
11479,62.0,0,15,2.0,0.0
11480,50.0,15,15,12.0,0.0
11481,49.0,0,15,12.0,0.0
11482,66.0,0,15,1.0,0.0
11483,62.0,30,30,13.0,0.0
11484,62.0,0,15,11.0,0.0
11485,50.0,0,15,11.0,0.0
11486,62.0,0,120,3.0,0.0
11487,50.0,0,120,12.0,0.0
11488,90.0,30,15,5.0,0.0
11489,50.0,0,120,4.0,0.0
11490,54.0,30,120,10.0,0.0
11491,62.0,0,15,10.0,0.0
11492,74.0,0,15,7.0,0.0
11493,66.0,0,15,7.0,0.0
11494,78.0,0,15,0.0,0.0
11495,78.0,0,15,6.0,0.0
11496,74.0,0,15,6.0,0.0
11497,57.0,0,30,1.0,0.0
11498,74.0,0,120,0.0,0.0
11499,66.0,0,15,1.0,0.0
11500,66.0,0,30,13.0,0.0
11501,62.0,0,15,2.0,0.0
11502,57.0,0,30,1.0,0.0
11503,66.0,0,15,1.0,0.0
11504,62.0,30,30,2.0,0.0
11505,69.0,0,30,13.0,0.0
11506,74.0,0,30,13.0,0.0
11507,66.0,0,15,1.0,0.0
11508,57.0,0,15,1.0,0.0
11509,62.0,0,30,2.0,0.0
11510,66.0,0,15,1.0,0.0
11511,57.0,0,15,1.0,0.0
11512,62.0,30,30,2.0,0.0
11513,78.0,0,30,13.0,0.0
11514,81.0,30,30,13.0,0.0
11515,66.0,0,15,1.0,0.0
11516,62.0,0,30,2.0,0.0
11517,57.0,0,30,1.0,0.0
11518,57.0,0,30,1.0,0.0
11519,66.0,0,30,1.0,0.0
11520,86.0,30,30,13.0,0.0
11521,62.0,0,30,2.0,0.0
11522,85.0,30,30,13.0,0.0
11523,62.0,0,15,2.0,0.0
11524,66.0,0,15,1.0,0.0
11525,57.0,0,15,1.0,0.0
11526,86.0,30,30,13.0,0.0
11527,66.0,0,15,1.0,0.0
11528,62.0,0,30,2.0,0.0
11529,88.0,0,30,13.0,0.0
11530,57.0,30,15,1.0,0.0
11531,62.0,0,30,2.0,0.0
11532,62.0,15,30,2.0,0.0
11533,66.0,0,15,1.0,0.0
11534,90.0,30,15,13.0,0.0
11535,57.0,0,30,1.0,0.0
11536,62.0,0,120,0.0,0.0
11537,50.0,15,15,12.0,0.0
11538,90.0,0,15,13.0,0.0
11539,35.0,0,120,4.0,0.0
11540,62.0,0,120,10.0,0.0
11541,54.0,0,120,10.0,0.0
11542,74.0,0,120,6.0,0.0
11543,74.0,0,120,7.0,0.0
11544,50.0,0,120,11.0,0.0
11545,50.0,0,120,8.0,0.0
11546,59.0,0,30,1.0,0.0
11547,78.0,0,120,6.0,0.0
11548,47.0,15,120,3.0,0.0
11549,49.0,0,15,12.0,0.0
11550,50.0,15,15,12.0,0.0
11551,62.0,0,15,2.0,0.0
11552,66.0,15,15,1.0,0.0
11553,59.0,15,30,1.0,0.0
11554,49.0,0,15,12.0,0.0
11555,50.0,15,15,12.0,0.0
11556,62.0,0,15,2.0,0.0
11557,59.0,15,30,1.0,0.0
11558,66.0,0,30,1.0,0.0
11559,49.0,0,15,12.0,0.0
11560,50.0,15,15,12.0,0.0
11561,62.0,0,15,2.0,0.0
11562,59.0,0,30,1.0,0.0
11563,66.0,0,30,1.0,0.0
11564,49.0,0,15,12.0,0.0
11565,62.0,0,15,11.0,0.0
11566,50.0,0,60,11.0,0.0
11567,59.0,0,30,1.0,0.0
11568,66.0,0,30,1.0,0.0
11569,38.0,0,30,4.0,0.0
11570,50.0,15,15,12.0,0.0
11571,62.0,0,15,2.0,0.0
11572,66.0,0,15,7.0,0.0
11573,90.0,0,15,5.0,0.0
11574,74.0,0,60,6.0,0.0
11575,50.0,0,30,3.0,0.0
11576,78.0,0,60,0.0,0.0
11577,54.0,0,30,8.0,0.0
11578,49.0,15,15,12.0,0.0
11579,59.0,0,30,1.0,0.0
11580,66.0,0,30,1.0,0.0
11581,62.0,0,15,2.0,0.0
11582,50.0,15,15,12.0,0.0
11583,49.0,0,15,12.0,0.0
11584,54.0,0,60,3.0,0.0
11585,74.0,0,15,7.0,0.0
11586,74.0,0,15,0.0,0.0
11587,54.0,15,15,10.0,0.0
11588,59.0,0,30,1.0,0.0
11589,66.0,15,30,1.0,0.0
11590,62.0,0,15,2.0,0.0
11591,57.0,0,60,8.0,0.0
11592,42.0,0,60,4.0,0.0
11593,50.0,15,15,12.0,0.0
11594,78.0,0,120,0.0,0.0
11595,78.0,0,15,6.0,0.0
11596,62.0,0,15,10.0,0.0
11597,62.0,0,15,11.0,0.0
11598,90.0,0,120,5.0,0.0
11599,49.0,0,15,12.0,0.0
11600,62.0,0,15,2.0,0.0
11601,50.0,15,15,12.0,0.0
11602,49.0,15,15,12.0,0.0
11603,62.0,0,60,8.0,0.0
11604,66.0,0,15,1.0,0.0
11605,59.0,0,15,1.0,0.0
11606,50.0,15,15,12.0,0.0
11607,49.0,0,15,12.0,0.0
11608,59.0,0,15,1.0,0.0
11609,62.0,15,15,2.0,0.0
11610,50.0,15,15,12.0,0.0
11611,66.0,0,30,1.0,0.0
11612,49.0,0,15,12.0,0.0
11613,74.0,0,60,0.0,0.0
11614,78.0,0,60,0.0,0.0
11615,50.0,15,15,12.0,0.0
11616,59.0,0,15,3.0,0.0
11617,66.0,0,15,7.0,0.0
11618,50.0,0,15,11.0,0.0
11619,59.0,0,30,1.0,0.0
11620,62.0,0,15,10.0,0.0
11621,54.0,0,15,10.0,0.0
11622,50.0,0,60,8.0,0.0
11623,74.0,15,15,6.0,0.0
11624,78.0,0,60,6.0,0.0
11625,47.0,0,15,4.0,0.0
11626,49.0,0,15,12.0,0.0
11627,66.0,0,15,1.0,0.0
11628,50.0,15,15,12.0,0.0
11629,62.0,15,15,2.0,0.0
11630,49.0,0,15,12.0,0.0
11631,59.0,0,15,1.0,0.0
11632,66.0,0,15,1.0,0.0
11633,50.0,0,120,12.0,0.0
11634,66.0,0,120,7.0,0.0
11635,74.0,0,15,7.0,0.0
11636,62.0,0,15,10.0,0.0
11637,54.0,0,120,10.0,0.0
11638,90.0,0,15,5.0,0.0
11639,78.0,0,120,6.0,0.0
11640,74.0,0,15,6.0,0.0
11641,62.0,0,30,13.0,0.0
11642,47.0,0,120,4.0,0.0
11643,74.0,0,120,0.0,0.0
11644,78.0,0,120,0.0,0.0
11645,62.0,0,15,11.0,0.0
11646,50.0,30,15,11.0,0.0
11647,59.0,30,120,3.0,0.0
11648,62.0,0,30,2.0,0.0
11649,66.0,0,30,13.0,0.0
11650,59.0,30,15,1.0,0.0
11651,69.0,0,30,13.0,0.0
11652,66.0,30,15,1.0,0.0
11653,59.0,0,15,1.0,0.0
11654,62.0,0,15,2.0,0.0
11655,62.0,0,15,2.0,0.0
11656,59.0,0,15,1.0,0.0
11657,66.0,30,15,1.0,0.0
11658,74.0,0,30,13.0,0.0
11659,78.0,0,30,13.0,0.0
11660,66.0,0,15,1.0,0.0
11661,62.0,0,15,2.0,0.0
11662,62.0,30,15,2.0,0.0
11663,81.0,0,30,13.0,0.0
11664,59.0,0,15,1.0,0.0
11665,86.0,0,30,13.0,0.0
11666,66.0,30,15,1.0,0.0
11667,59.0,0,30,1.0,0.0
11668,62.0,0,30,2.0,0.0
11669,62.0,30,30,2.0,0.0
11670,59.0,0,30,1.0,0.0
11671,66.0,30,15,1.0,0.0
11672,85.0,0,30,13.0,0.0
11673,86.0,0,30,13.0,0.0
11674,66.0,0,30,1.0,0.0
11675,59.0,0,15,1.0,0.0
11676,62.0,30,15,2.0,0.0
11677,88.0,0,30,13.0,0.0
11678,90.0,30,30,13.0,0.0
11679,66.0,30,15,1.0,0.0
11680,59.0,0,15,1.0,0.0
11681,62.0,0,15,2.0,0.0
11682,59.0,0,30,1.0,0.0
11683,66.0,0,15,1.0,0.0
11684,90.0,0,30,13.0,0.0
11685,62.0,0,120,11.0,0.0
11686,62.0,0,15,2.0,0.0
11687,88.0,0,30,13.0,0.0
11688,76.0,0,120,6.0,0.0
11689,86.0,0,120,6.0,0.0
11690,71.0,0,120,0.0,0.0
11691,64.0,0,120,0.0,0.0
11692,50.0,0,120,11.0,0.0
11693,43.0,0,120,3.0,0.0
11694,50.0,0,120,12.0,0.0
11695,31.0,0,120,4.0,0.0
11696,88.0,0,120,5.0,0.0
11697,62.0,0,120,10.0,0.0
11698,71.0,0,120,7.0,0.0
11699,64.0,0,120,10.0,0.0
11700,74.0,0,120,7.0,0.0
11701,43.0,0,120,8.0,0.0
11702,79.0,30,120,0.0,0.0
11703,91.0,30,30,13.0,0.0
11704,62.0,0,15,2.0,0.0
11705,64.0,30,15,1.0,0.0
11706,62.0,0,30,2.0,0.0
11707,88.0,30,30,13.0,0.0
11708,64.0,0,15,1.0,0.0
11709,62.0,0,30,2.0,0.0
11710,83.0,0,30,13.0,0.0
11711,79.0,0,30,13.0,0.0
11712,76.0,0,30,13.0,0.0
11713,62.0,30,15,2.0,0.0
11714,64.0,0,15,1.0,0.0
11715,71.0,0,30,13.0,0.0
11716,64.0,0,30,1.0,0.0
11717,55.0,0,30,13.0,0.0
11718,62.0,30,15,2.0,0.0
11719,62.0,30,15,2.0,0.0
11720,64.0,0,15,1.0,0.0
11721,59.0,0,30,13.0,0.0
11722,64.0,0,30,13.0,0.0
11723,62.0,30,15,2.0,0.0
11724,64.0,30,15,1.0,0.0
11725,62.0,0,15,2.0,0.0
11726,67.0,0,30,13.0,0.0
11727,62.0,0,15,2.0,0.0
11728,64.0,30,15,1.0,0.0
11729,71.0,30,30,13.0,0.0
11730,61.0,0,30,2.0,0.0
11731,76.0,0,120,0.0,0.0
11732,69.0,0,120,0.0,0.0
11733,64.0,0,120,0.0,0.0
11734,57.0,0,120,0.0,0.0
11735,45.0,0,120,8.0,0.0
11736,57.0,0,120,10.0,0.0
11737,57.0,0,120,11.0,0.0
11738,64.0,0,120,10.0,0.0
11739,88.0,0,120,5.0,0.0
11740,45.0,30,120,12.0,0.0
11741,67.0,0,120,7.0,0.0
11742,73.0,0,120,7.0,0.0
11743,85.0,0,120,6.0,0.0
11744,76.0,0,120,6.0,0.0
11745,45.0,0,120,3.0,0.0
11746,45.0,0,120,11.0,0.0
11747,55.0,30,30,13.0,0.0
11748,33.0,0,120,4.0,0.0
11749,64.0,0,30,1.0,0.0
11750,61.0,30,30,13.0,0.0
11751,61.0,0,15,2.0,0.0
11752,64.0,0,15,1.0,0.0
11753,64.0,30,30,13.0,0.0
11754,64.0,0,15,1.0,0.0
11755,67.0,0,30,13.0,0.0
11756,61.0,0,15,2.0,0.0
11757,64.0,0,15,1.0,0.0
11758,73.0,30,30,13.0,0.0
11759,61.0,0,15,2.0,0.0
11760,76.0,30,30,13.0,0.0
11761,61.0,0,30,2.0,0.0
11762,64.0,0,15,1.0,0.0
11763,79.0,30,30,13.0,0.0
11764,64.0,0,15,1.0,0.0
11765,85.0,0,30,13.0,0.0
11766,88.0,30,30,13.0,0.0
11767,61.0,30,15,2.0,0.0
11768,91.0,0,30,13.0,0.0
11769,64.0,0,15,1.0,0.0
11770,61.0,0,30,2.0,0.0
11771,88.0,0,30,13.0,0.0
11772,64.0,30,15,1.0,0.0
11773,61.0,0,15,2.0,0.0
11774,85.0,0,30,13.0,0.0
11775,64.0,30,15,1.0,0.0
11776,62.0,0,60,2.0,0.0
11777,86.0,0,60,5.0,0.0
11778,74.0,0,60,7.0,0.0
11779,62.0,0,60,7.0,0.0
11780,50.0,60,60,8.0,0.0
11781,50.0,0,60,3.0,0.0
11782,86.0,0,120,13.0,0.0
11783,62.0,0,60,0.0,0.0
11784,74.0,0,60,6.0,0.0
11785,50.0,0,120,12.0,0.0
11786,50.0,0,60,10.0,0.0
11787,62.0,0,60,10.0,0.0
11788,62.0,0,60,11.0,0.0
11789,62.0,0,60,1.0,0.0
11790,38.0,0,60,4.0,0.0
11791,74.0,0,60,1.0,0.0
11792,30.0,0,120,4.0,0.0
11793,42.0,60,120,3.0,0.0
11794,74.0,0,60,1.0,0.0
11795,62.0,60,60,2.0,0.0
11796,86.0,0,120,5.0,0.0
11797,78.0,0,120,6.0,0.0
11798,86.0,0,120,6.0,0.0
11799,66.0,0,120,7.0,0.0
11800,74.0,0,15,0.0,0.0
11801,50.0,0,15,11.0,0.0
11802,54.0,0,120,8.0,0.0
11803,42.0,0,120,8.0,0.0
11804,66.0,0,60,1.0,0.0
11805,66.0,0,60,0.0,0.0
11806,54.0,0,60,2.0,0.0
11807,62.0,0,15,11.0,0.0
11808,50.0,0,15,11.0,0.0
11809,62.0,0,60,2.0,0.0
11810,43.0,0,120,8.0,0.0
11811,62.0,0,15,10.0,0.0
11812,50.0,0,15,10.0,0.0
11813,55.0,0,120,8.0,0.0
11814,67.0,60,120,7.0,0.0
11815,74.0,60,60,1.0,0.0
11816,79.0,0,120,6.0,0.0
11817,31.0,0,120,4.0,0.0
11818,86.0,0,120,5.0,0.0
11819,43.0,0,120,3.0,0.0
11820,74.0,0,60,0.0,0.0
11821,50.0,0,120,12.0,0.0
11822,67.0,0,60,0.0,0.0
11823,55.0,0,60,2.0,0.0
11824,67.0,0,60,1.0,0.0
11825,74.0,60,60,0.0,0.0
11826,74.0,0,60,1.0,0.0
11827,32.0,0,120,4.0,0.0
11828,80.0,0,120,6.0,0.0
11829,86.0,0,15,6.0,0.0
11830,56.0,0,120,8.0,0.0
11831,44.0,0,120,8.0,0.0
11832,62.0,0,60,2.0,0.0
11833,68.0,0,120,7.0,0.0
11834,44.0,60,120,3.0,0.0
11835,56.0,0,60,2.0,0.0
11836,50.0,0,120,12.0,0.0
11837,68.0,0,60,0.0,0.0
11838,68.0,0,60,1.0,0.0
11839,74.0,0,60,1.0,0.0
11840,50.0,0,15,10.0,0.0
11841,62.0,0,15,10.0,0.0
11842,62.0,0,15,11.0,0.0
11843,50.0,0,15,11.0,0.0
11844,86.0,0,15,6.0,0.0
11845,74.0,0,60,0.0,0.0
11846,86.0,0,15,5.0,0.0
11847,69.0,0,120,7.0,0.0
11848,33.0,0,120,4.0,0.0
11849,81.0,0,120,6.0,0.0
11850,62.0,60,60,2.0,0.0
11851,45.0,0,120,3.0,0.0
11852,45.0,60,120,8.0,0.0
11853,57.0,0,120,8.0,0.0
11854,69.0,0,60,1.0,0.0
11855,57.0,0,60,2.0,0.0
11856,69.0,0,60,0.0,0.0
11857,62.0,0,15,10.0,0.0
11858,62.0,0,15,11.0,0.0
11859,50.0,0,15,11.0,0.0
11860,50.0,0,120,12.0,0.0
11861,74.0,0,60,0.0,0.0
11862,70.0,0,120,7.0,0.0
11863,34.0,0,120,4.0,0.0
11864,50.0,0,120,10.0,0.0
11865,86.0,0,15,6.0,0.0
11866,82.0,0,120,6.0,0.0
11867,62.0,60,60,2.0,0.0
11868,58.0,0,120,8.0,0.0
11869,46.0,0,120,8.0,0.0
11870,74.0,0,60,1.0,0.0
11871,70.0,0,60,1.0,0.0
11872,70.0,60,60,0.0,0.0
11873,46.0,0,15,3.0,0.0
11874,46.0,0,60,8.0,0.0
11875,86.0,0,15,5.0,0.0
11876,62.0,0,60,10.0,0.0
11877,34.0,0,60,4.0,0.0
11878,58.0,0,15,2.0,0.0
11879,50.0,0,15,10.0,0.0
11880,62.0,0,15,11.0,0.0
11881,58.0,30,30,13.0,0.0
11882,50.0,0,15,11.0,0.0
11883,34.0,0,360,4.0,0.0
11884,62.0,0,360,10.0,0.0
11885,74.0,0,15,0.0,0.0
11886,62.0,0,15,0.0,0.0
11887,58.0,0,15,8.0,0.0
11888,50.0,0,15,12.0,0.0
11889,86.0,0,15,6.0,0.0
11890,82.0,0,15,6.0,0.0
11891,65.0,0,15,1.0,0.0
11892,58.0,0,360,2.0,0.0
11893,46.0,0,360,8.0,0.0
11894,62.0,0,360,1.0,0.0
11895,70.0,0,15,7.0,0.0
11896,46.0,0,360,3.0,0.0
11897,86.0,0,360,5.0,0.0
11898,62.0,0,30,13.0,0.0
11899,50.0,30,15,12.0,0.0
11900,65.0,0,30,13.0,0.0
11901,50.0,30,15,12.0,0.0
11902,70.0,30,30,13.0,0.0
11903,50.0,30,30,12.0,0.0
11904,74.0,0,30,13.0,0.0
11905,77.0,0,30,13.0,0.0
11906,50.0,30,30,12.0,0.0
11907,82.0,30,30,13.0,0.0
11908,50.0,30,120,12.0,0.0
11909,86.0,30,30,13.0,0.0
11910,89.0,30,30,13.0,0.0
11911,86.0,0,30,13.0,0.0
11912,89.0,30,30,13.0,0.0
11913,86.0,0,30,13.0,0.0
11914,33.0,0,120,4.0,0.0
11915,81.0,30,30,13.0,0.0
11916,57.0,30,120,2.0,0.0
11917,66.0,0,120,1.0,0.0
11918,62.0,0,15,0.0,0.0
11919,45.0,0,120,3.0,0.0
11920,74.0,0,120,0.0,0.0
11921,93.0,30,30,13.0,0.0
11922,91.0,30,30,13.0,0.0
11923,90.0,0,30,13.0,0.0
11924,88.0,30,30,13.0,0.0
11925,86.0,30,30,13.0,0.0
11926,64.0,0,120,0.0,0.0
11927,85.0,30,30,13.0,0.0
11928,57.0,30,120,2.0,0.0
11929,45.0,0,120,3.0,0.0
11930,33.0,0,120,4.0,0.0
11931,67.0,0,120,1.0,0.0
11932,73.0,0,120,0.0,0.0
11933,83.0,30,30,13.0,0.0
11934,81.0,30,30,13.0,0.0
11935,79.0,0,30,13.0,0.0
11936,78.0,30,30,13.0,0.0
11937,76.0,60,30,13.0,0.0
11938,62.0,60,60,7.0,0.0
11939,62.0,0,60,0.0,0.0
11940,74.0,0,60,7.0,0.0
11941,50.0,0,60,11.0,0.0
11942,50.0,0,60,3.0,0.0
11943,74.0,0,120,13.0,0.0
11944,62.0,0,60,1.0,0.0
11945,74.0,0,60,1.0,0.0
11946,50.0,0,120,12.0,0.0
11947,74.0,0,60,6.0,0.0
11948,50.0,0,60,8.0,0.0
11949,38.0,0,60,4.0,0.0
11950,62.0,0,15,10.0,0.0
11951,30.0,0,120,4.0,0.0
11952,86.0,0,15,5.0,0.0
11953,62.0,0,15,2.0,0.0
11954,42.0,60,120,8.0,0.0
11955,54.0,0,120,8.0,0.0
11956,78.0,0,120,6.0,0.0
11957,42.0,0,120,3.0,0.0
11958,74.0,0,60,1.0,0.0
11959,62.0,0,15,11.0,0.0
11960,50.0,0,120,11.0,0.0
11961,74.0,0,15,0.0,0.0
11962,66.0,0,120,7.0,0.0
11963,50.0,0,15,10.0,0.0
11964,66.0,0,60,1.0,0.0
11965,66.0,0,60,0.0,0.0
11966,54.0,0,60,2.0,0.0
11967,74.0,0,60,1.0,0.0
11968,31.0,0,120,4.0,0.0
11969,43.0,0,120,3.0,0.0
11970,67.0,0,120,7.0,0.0
11971,86.0,0,120,5.0,0.0
11972,86.0,0,15,6.0,0.0
11973,74.0,60,60,0.0,0.0
11974,62.0,0,60,2.0,0.0
11975,43.0,0,120,8.0,0.0
11976,55.0,0,120,8.0,0.0
11977,79.0,0,120,6.0,0.0
11978,50.0,0,120,12.0,0.0
11979,67.0,0,60,1.0,0.0
11980,67.0,0,60,0.0,0.0
11981,55.0,60,60,2.0,0.0
11982,68.0,0,120,7.0,0.0
11983,74.0,0,60,0.0,0.0
11984,62.0,0,15,10.0,0.0
11985,50.0,0,15,10.0,0.0
11986,44.0,60,120,3.0,0.0
11987,56.0,0,120,8.0,0.0
11988,74.0,60,60,1.0,0.0
11989,62.0,0,15,11.0,0.0
11990,50.0,0,15,11.0,0.0
11991,44.0,0,120,8.0,0.0
11992,80.0,0,120,6.0,0.0
11993,86.0,0,120,5.0,0.0
11994,32.0,0,120,4.0,0.0
11995,62.0,0,60,2.0,0.0
11996,68.0,0,60,1.0,0.0
11997,50.0,0,120,12.0,0.0
11998,68.0,0,60,0.0,0.0
11999,56.0,0,60,2.0,0.0
12000,81.0,0,120,6.0,0.0
12001,86.0,0,15,6.0,0.0
12002,74.0,0,60,0.0,0.0
12003,57.0,0,120,8.0,0.0
12004,45.0,0,120,8.0,0.0
12005,33.0,0,120,4.0,0.0
12006,69.0,0,120,7.0,0.0
12007,50.0,0,120,11.0,0.0
12008,62.0,60,60,2.0,0.0
12009,62.0,0,15,11.0,0.0
12010,50.0,0,120,10.0,0.0
12011,62.0,0,15,10.0,0.0
12012,86.0,0,120,5.0,0.0
12013,74.0,0,60,1.0,0.0
12014,45.0,0,120,3.0,0.0
12015,69.0,0,60,1.0,0.0
12016,69.0,0,60,0.0,0.0
12017,57.0,60,60,2.0,0.0
12018,50.0,0,120,11.0,0.0
12019,62.0,0,15,11.0,0.0
12020,74.0,60,60,1.0,0.0
12021,58.0,0,120,8.0,0.0
12022,86.0,0,120,5.0,0.0
12023,50.0,0,120,10.0,0.0
12024,50.0,0,120,12.0,0.0
12025,62.0,0,120,10.0,0.0
12026,34.0,0,120,4.0,0.0
12027,46.0,0,120,3.0,0.0
12028,62.0,0,60,2.0,0.0
12029,74.0,0,60,0.0,0.0
12030,70.0,60,120,7.0,0.0
12031,70.0,0,60,0.0,0.0
12032,70.0,0,60,1.0,0.0
12033,50.0,0,60,11.0,0.0
12034,62.0,0,15,11.0,0.0
12035,62.0,0,60,0.0,0.0
12036,74.0,0,60,0.0,0.0
12037,46.0,30,60,3.0,0.0
12038,46.0,0,15,8.0,0.0
12039,86.0,0,15,6.0,0.0
12040,82.0,0,15,6.0,0.0
12041,58.0,0,15,2.0,0.0
12042,34.0,0,60,4.0,0.0
12043,86.0,0,60,5.0,0.0
12044,62.0,0,60,10.0,0.0
12045,50.0,0,60,12.0,0.0
12046,65.0,0,15,1.0,0.0
12047,62.0,0,360,1.0,0.0
12048,50.0,0,30,12.0,0.0
12049,58.0,0,15,2.0,0.0
12050,70.0,0,15,7.0,0.0
12051,50.0,0,15,10.0,0.0
12052,86.0,0,360,5.0,0.0
12053,58.0,30,30,13.0,0.0
12054,58.0,0,15,8.0,0.0
12055,46.0,0,15,8.0,0.0
12056,50.0,0,360,11.0,0.0
12057,62.0,0,360,11.0,0.0
12058,86.0,0,15,6.0,0.0
12059,82.0,0,15,6.0,0.0
12060,62.0,0,360,10.0,0.0
12061,34.0,0,360,4.0,0.0
12062,46.0,0,360,3.0,0.0
12063,50.0,30,30,12.0,0.0
12064,62.0,0,30,13.0,0.0
12065,50.0,0,30,12.0,0.0
12066,65.0,30,30,13.0,0.0
12067,70.0,0,30,13.0,0.0
12068,50.0,30,15,12.0,0.0
12069,74.0,30,30,13.0,0.0
12070,50.0,0,30,12.0,0.0
12071,77.0,30,30,13.0,0.0
12072,82.0,30,30,13.0,0.0
12073,50.0,30,120,12.0,0.0
12074,86.0,30,30,13.0,0.0
12075,89.0,30,30,13.0,0.0
12076,86.0,0,30,13.0,0.0
12077,89.0,30,30,13.0,0.0
12078,86.0,0,30,13.0,0.0
12079,57.0,0,120,2.0,0.0
12080,57.0,0,120,8.0,0.0
12081,66.0,30,120,7.0,0.0
12082,45.0,0,120,8.0,0.0
12083,62.0,0,120,7.0,0.0
12084,74.0,0,120,6.0,0.0
12085,78.0,0,120,6.0,0.0
12086,33.0,0,120,4.0,0.0
12087,81.0,30,30,13.0,0.0
12088,86.0,0,120,5.0,0.0
12089,66.0,0,120,1.0,0.0
12090,54.0,0,120,10.0,0.0
12091,45.0,0,120,3.0,0.0
12092,74.0,30,15,0.0,0.0
12093,62.0,0,15,0.0,0.0
12094,62.0,0,120,10.0,0.0
12095,93.0,30,30,13.0,0.0
12096,91.0,30,30,13.0,0.0
12097,90.0,0,30,13.0,0.0
12098,88.0,30,30,13.0,0.0
12099,86.0,30,30,13.0,0.0
12100,33.0,0,120,4.0,0.0
12101,67.0,30,120,1.0,0.0
12102,76.0,0,60,6.0,0.0
12103,79.0,0,60,6.0,0.0
12104,73.0,0,120,0.0,0.0
12105,64.0,0,120,0.0,0.0
12106,85.0,30,30,13.0,0.0
12107,85.0,0,60,5.0,0.0
12108,67.0,0,60,7.0,0.0
12109,64.0,0,60,7.0,0.0
12110,45.0,0,120,3.0,0.0
12111,57.0,0,60,10.0,0.0
12112,64.0,0,60,10.0,0.0
12113,57.0,0,120,2.0,0.0
12114,83.0,30,30,13.0,0.0
12115,81.0,30,30,13.0,0.0
12116,79.0,0,30,13.0,0.0
12117,69.0,0,60,0.0,0.0
12118,78.0,30,30,13.0,0.0
12119,81.0,0,60,5.0,0.0
12120,45.0,0,60,12.0,0.0
12121,57.0,0,60,10.0,0.0
12122,69.0,0,60,7.0,0.0
12123,57.0,0,60,11.0,0.0
12124,57.0,0,60,3.0,0.0
12125,45.0,0,60,4.0,0.0
12126,57.0,0,60,2.0,0.0
12127,69.0,0,60,6.0,0.0
12128,69.0,0,60,1.0,0.0
12129,69.0,0,60,10.0,0.0
12130,76.0,15,30,13.0,0.0
12131,38.0,15,120,4.0,0.0
12132,50.0,0,120,8.0,0.0
12133,50.0,0,120,2.0,0.0
12134,62.0,0,120,0.0,0.0
12135,50.0,15,15,12.0,0.0
12136,74.0,0,120,13.0,0.0
12137,50.0,0,300,11.0,0.0
12138,50.0,0,120,3.0,0.0
12139,86.0,0,300,5.0,0.0
12140,62.0,0,120,1.0,0.0
12141,62.0,0,300,7.0,0.0
12142,49.0,15,15,12.0,0.0
12143,50.0,15,15,12.0,0.0
12144,49.0,15,15,12.0,0.0
12145,50.0,15,15,12.0,0.0
12146,49.0,15,15,12.0,0.0
12147,50.0,15,15,12.0,0.0
12148,49.0,0,15,12.0,0.0
12149,66.0,0,30,1.0,0.0
12150,54.0,0,30,3.0,0.0
12151,66.0,0,30,0.0,0.0
12152,42.0,15,30,4.0,0.0
12153,54.0,0,30,2.0,0.0
12154,50.0,15,15,12.0,0.0
12155,54.0,0,30,8.0,0.0
12156,49.0,0,15,12.0,0.0
12157,50.0,15,15,12.0,0.0
12158,49.0,15,15,12.0,0.0
12159,57.0,15,60,2.0,0.0
12160,69.0,0,60,0.0,0.0
12161,45.0,0,60,4.0,0.0
12162,50.0,15,15,12.0,0.0
12163,69.0,0,60,1.0,0.0
12164,57.0,0,60,8.0,0.0
12165,57.0,0,60,3.0,0.0
12166,49.0,15,15,12.0,0.0
12167,50.0,15,15,12.0,0.0
12168,49.0,0,15,12.0,0.0
12169,50.0,15,15,12.0,0.0
12170,62.0,0,60,2.0,0.0
12171,74.0,0,60,0.0,0.0
12172,62.0,0,60,3.0,0.0
12173,50.0,0,60,4.0,0.0
12174,74.0,0,60,1.0,0.0
12175,62.0,0,60,8.0,0.0
12176,49.0,15,15,12.0,0.0
12177,50.0,15,15,12.0,0.0
12178,49.0,0,15,12.0,0.0
12179,50.0,0,60,8.0,0.0
12180,38.0,0,60,4.0,0.0
12181,50.0,15,15,12.0,0.0
12182,50.0,0,60,3.0,0.0
12183,62.0,0,60,1.0,0.0
12184,50.0,0,60,2.0,0.0
12185,74.0,15,15,6.0,0.0
12186,62.0,0,60,0.0,0.0
12187,62.0,15,60,7.0,0.0
12188,86.0,0,60,5.0,0.0
12189,50.0,0,60,11.0,0.0
12190,62.0,0,15,10.0,0.0
12191,50.0,0,15,10.0,0.0
12192,49.0,15,15,12.0,0.0
12193,50.0,15,15,12.0,0.0
12194,49.0,0,15,12.0,0.0
12195,66.0,0,120,0.0,0.0
12196,30.0,0,120,4.0,0.0
12197,54.0,0,300,11.0,0.0
12198,54.0,0,120,2.0,0.0
12199,54.0,0,300,10.0,0.0
12200,78.0,0,300,6.0,0.0
12201,66.0,0,120,1.0,0.0
12202,42.0,15,120,8.0,0.0
12203,50.0,15,15,12.0,0.0
12204,66.0,0,300,7.0,0.0
12205,42.0,0,120,3.0,0.0
12206,49.0,15,15,12.0,0.0
12207,50.0,15,15,12.0,0.0
12208,49.0,15,15,12.0,0.0
12209,50.0,15,15,12.0,0.0
12210,49.0,15,15,12.0,0.0
12211,50.0,15,15,12.0,0.0
12212,49.0,0,15,12.0,0.0
12213,33.0,0,30,4.0,0.0
12214,50.0,15,15,12.0,0.0
12215,57.0,0,30,2.0,0.0
12216,69.0,0,30,0.0,0.0
12217,45.0,0,30,8.0,0.0
12218,69.0,0,30,1.0,0.0
12219,45.0,15,30,3.0,0.0
12220,49.0,0,15,12.0,0.0
12221,50.0,15,15,12.0,0.0
12222,49.0,15,15,12.0,0.0
12223,50.0,0,60,8.0,0.0
12224,50.0,0,60,3.0,0.0
12225,74.0,0,60,1.0,0.0
12226,38.0,0,60,4.0,0.0
12227,74.0,15,60,0.0,0.0
12228,62.0,0,60,2.0,0.0
12229,50.0,15,15,12.0,0.0
12230,49.0,15,15,12.0,0.0
12231,50.0,15,15,12.0,0.0
12232,49.0,0,15,12.0,0.0
12233,50.0,15,15,12.0,0.0
12234,42.0,0,60,4.0,0.0
12235,66.0,0,60,2.0,0.0
12236,54.0,0,60,3.0,0.0
12237,78.0,0,60,0.0,0.0
12238,78.0,0,60,1.0,0.0
12239,54.0,15,60,8.0,0.0
12240,49.0,15,15,12.0,0.0
12241,50.0,15,15,12.0,0.0
12242,49.0,0,15,12.0,0.0
12243,30.0,0,60,4.0,0.0
12244,66.0,0,15,10.0,0.0
12245,54.0,0,60,10.0,0.0
12246,78.0,0,15,5.0,0.0
12247,54.0,0,60,2.0,0.0
12248,66.0,0,60,0.0,0.0
12249,50.0,15,15,12.0,0.0
12250,42.0,0,60,3.0,0.0
12251,54.0,0,60,11.0,0.0
12252,66.0,0,60,1.0,0.0
12253,66.0,0,60,7.0,0.0
12254,42.0,0,60,8.0,0.0
12255,78.0,0,60,6.0,0.0
12256,49.0,15,15,12.0,0.0
12257,50.0,15,15,12.0,0.0
12258,49.0,0,15,12.0,0.0
12259,57.0,0,300,11.0,0.0
12260,45.0,15,120,3.0,0.0
12261,69.0,0,300,7.0,0.0
12262,57.0,0,120,2.0,0.0
12263,33.0,0,120,4.0,0.0
12264,81.0,0,300,6.0,0.0
12265,69.0,0,120,1.0,0.0
12266,45.0,0,120,8.0,0.0
12267,50.0,15,15,12.0,0.0
12268,69.0,0,120,0.0,0.0
12269,49.0,15,15,12.0,0.0
12270,50.0,15,15,12.0,0.0
12271,49.0,15,15,12.0,0.0
12272,50.0,15,15,12.0,0.0
12273,49.0,15,15,12.0,0.0
12274,50.0,15,15,12.0,0.0
12275,49.0,0,15,12.0,0.0
12276,62.0,0,30,2.0,0.0
12277,38.0,0,30,4.0,0.0
12278,50.0,15,15,12.0,0.0
12279,74.0,0,30,1.0,0.0
12280,50.0,0,30,8.0,0.0
12281,74.0,15,30,0.0,0.0
12282,50.0,0,30,3.0,0.0
12283,49.0,0,15,12.0,0.0
12284,50.0,15,15,12.0,0.0
12285,49.0,15,15,12.0,0.0
12286,54.0,0,60,8.0,0.0
12287,54.0,0,60,3.0,0.0
12288,66.0,0,60,2.0,0.0
12289,78.0,15,60,1.0,0.0
12290,42.0,0,60,4.0,0.0
12291,50.0,15,15,12.0,0.0
12292,78.0,0,60,0.0,0.0
12293,49.0,15,15,12.0,0.0
12294,50.0,15,15,12.0,0.0
12295,49.0,0,15,12.0,0.0
12296,81.0,0,60,0.0,0.0
12297,57.0,0,60,8.0,0.0
12298,50.0,15,15,12.0,0.0
12299,45.0,15,60,4.0,0.0
12300,81.0,0,60,1.0,0.0
12301,57.0,0,60,3.0,0.0
12302,69.0,0,60,2.0,0.0
12303,49.0,15,15,12.0,0.0
12304,50.0,15,15,12.0,0.0
12305,49.0,0,15,12.0,0.0
12306,57.0,0,15,10.0,0.0
12307,69.0,0,15,10.0,0.0
12308,69.0,15,30,1.0,0.0
12309,57.0,0,30,2.0,0.0
12310,45.0,0,60,3.0,0.0
12311,81.0,0,60,6.0,0.0
12312,81.0,0,15,5.0,0.0
12313,57.0,0,60,11.0,0.0
12314,69.0,0,60,7.0,0.0
12315,45.0,0,60,8.0,0.0
12316,69.0,0,30,0.0,0.0
12317,50.0,15,15,12.0,0.0
12318,33.0,0,60,4.0,0.0
12319,49.0,0,15,12.0,0.0
12320,50.0,15,15,12.0,0.0
12321,49.0,60,15,12.0,0.0
12322,38.0,0,180,4.0,0.0
12323,62.0,30,120,11.0,0.0
12324,50.0,0,120,11.0,0.0
12325,78.0,60,60,0.0,0.0
12326,62.0,0,180,10.0,0.0
12327,86.0,0,180,5.0,0.0
12328,50.0,0,180,3.0,0.0
12329,50.0,0,120,12.0,0.0
12330,78.0,0,60,1.0,0.0
12331,81.0,0,60,1.0,0.0
12332,81.0,0,60,0.0,0.0
12333,69.0,0,30,0.0,0.0
12334,69.0,30,30,1.0,0.0
12335,62.0,0,15,2.0,0.0
12336,54.0,0,15,8.0,0.0
12337,50.0,0,15,8.0,0.0
12338,50.0,0,120,12.0,0.0
12339,78.0,0,60,1.0,0.0
12340,50.0,0,180,3.0,0.0
12341,50.0,0,15,10.0,0.0
12342,66.0,0,15,7.0,0.0
12343,62.0,0,15,7.0,0.0
12344,78.0,60,15,6.0,0.0
12345,74.0,0,15,6.0,0.0
12346,57.0,0,180,10.0,0.0
12347,78.0,60,60,0.0,0.0
12348,86.0,0,180,5.0,0.0
12349,81.0,30,60,1.0,0.0
12350,81.0,0,60,0.0,0.0
12351,69.0,30,30,0.0,0.0
12352,69.0,0,30,1.0,0.0
12353,78.0,60,60,0.0,0.0
12354,62.0,0,180,2.0,0.0
12355,50.0,0,15,10.0,0.0
12356,62.0,0,15,7.0,0.0
12357,66.0,0,720,7.0,0.0
12358,86.0,0,1560,5.0,0.0
12359,38.0,0,15,4.0,0.0
12360,78.0,0,60,1.0,0.0
12361,50.0,0,180,3.0,0.0
12362,50.0,0,120,12.0,0.0
12363,50.0,60,15,8.0,0.0
12364,81.0,30,60,1.0,0.0
12365,81.0,0,60,0.0,0.0
12366,69.0,0,30,0.0,0.0
12367,57.0,30,30,1.0,0.0
12368,78.0,0,60,0.0,0.0
12369,66.0,60,60,1.0,0.0
12370,81.0,0,60,0.0,0.0
12371,69.0,30,60,1.0,0.0
12372,69.0,30,30,0.0,0.0
12373,57.0,0,30,1.0,0.0
12374,78.0,60,60,0.0,0.0
12375,62.0,0,15,2.0,0.0
12376,66.0,0,60,1.0,0.0
12377,38.0,0,15,4.0,0.0
12378,50.0,60,15,3.0,0.0
12379,81.0,0,60,0.0,0.0
12380,69.0,60,60,1.0,0.0
12381,69.0,0,60,0.0,0.0
12382,57.0,0,60,1.0,0.0
12383,50.0,0,180,3.0,0.0
12384,38.0,0,180,4.0,0.0
12385,66.0,60,60,1.0,0.0
12386,62.0,60,15,2.0,0.0
12387,78.0,0,60,0.0,0.0
12388,81.0,60,60,0.0,0.0
12389,69.0,0,60,1.0,0.0
12390,57.0,0,60,1.0,0.0
12391,69.0,0,60,0.0,0.0
12392,62.0,0,60,1.0,0.0
12393,54.0,0,15,8.0,0.0
12394,74.0,60,60,0.0,0.0
12395,78.0,0,15,6.0,0.0
12396,74.0,0,15,6.0,0.0
12397,62.0,0,180,2.0,0.0
12398,50.0,0,720,8.0,0.0
12399,50.0,0,720,10.0,0.0
12400,62.0,0,720,7.0,0.0
12401,66.0,0,720,7.0,0.0
12402,57.0,60,15,10.0,0.0
12403,38.0,0,180,4.0,0.0
12404,66.0,60,60,1.0,0.0
12405,78.0,0,60,0.0,0.0
12406,57.0,0,60,1.0,0.0
12407,69.0,0,60,0.0,0.0
12408,62.0,60,60,1.0,0.0
12409,74.0,0,60,0.0,0.0
12410,50.0,60,15,3.0,0.0
12411,38.0,0,180,4.0,0.0
12412,78.0,60,60,0.0,0.0
12413,66.0,0,60,1.0,0.0
12414,69.0,0,60,0.0,0.0
12415,57.0,60,60,1.0,0.0
12416,50.0,0,15,3.0,0.0
12417,50.0,0,15,2.0,0.0
12418,74.0,60,60,0.0,0.0
12419,62.0,0,60,1.0,0.0
12420,66.0,0,60,1.0,0.0
12421,78.0,60,60,0.0,0.0
12422,69.0,0,60,0.0,0.0
12423,57.0,0,60,1.0,0.0
12424,74.0,0,60,0.0,0.0
12425,62.0,60,60,1.0,0.0
12426,38.0,60,15,4.0,0.0
12427,50.0,0,180,2.0,0.0
12428,78.0,0,60,0.0,0.0
12429,66.0,60,60,1.0,0.0
12430,57.0,0,60,1.0,0.0
12431,69.0,0,60,0.0,0.0
12432,66.0,120,60,13.0,0.0
12433,74.0,45,120,0.0,0.0
12434,50.0,0,15,3.0,0.0
12435,62.0,0,120,1.0,0.0
12436,50.0,0,120,2.0,0.0
12437,38.0,0,120,4.0,0.0
12438,62.0,0,120,13.0,0.0
12439,66.0,75,40,13.0,0.0
12440,69.0,60,60,13.0,0.0
12441,74.0,60,60,13.0,0.0
12442,78.0,120,60,13.0,0.0
12443,74.0,45,120,13.0,0.0
12444,78.0,75,40,13.0,0.0
12445,81.0,60,60,13.0,0.0
12446,86.0,60,15,13.0,0.0
12447,81.0,45,120,13.0,0.0
12448,86.0,75,40,13.0,0.0
12449,90.0,60,60,13.0,0.0
12450,93.0,48,60,13.0,0.0
12451,33.0,0,40,4.0,0.0
12452,57.0,0,40,2.0,0.0
12453,69.0,0,40,1.0,0.0
12454,79.0,0,40,1.0,0.0
12455,64.0,0,40,10.0,0.0
12456,79.0,0,40,6.0,0.0
12457,76.0,0,40,6.0,0.0
12458,57.0,0,40,10.0,0.0
12459,85.0,0,40,5.0,0.0
12460,45.0,0,40,8.0,0.0
12461,45.0,0,40,12.0,0.0
12462,45.0,0,40,3.0,0.0
12463,69.0,0,40,13.0,0.0
12464,85.0,0,40,0.0,0.0
12465,76.0,0,40,13.0,0.0
12466,76.0,0,40,0.0,0.0
12467,69.0,0,40,0.0,0.0
12468,85.0,0,40,13.0,0.0
12469,57.0,72,40,11.0,0.0
12470,45.0,0,40,11.0,0.0
12471,76.0,0,40,7.0,0.0
12472,73.0,0,40,7.0,0.0
12473,50.0,0,120,12.0,0.0
12474,78.0,0,60,13.0,0.0
12475,62.0,0,120,0.0,0.0
12476,78.0,0,120,0.0,0.0
12477,86.0,0,120,0.0,0.0
12478,50.0,0,120,8.0,0.0
12479,78.0,0,120,6.0,0.0
12480,74.0,0,120,6.0,0.0
12481,74.0,0,120,7.0,0.0
12482,62.0,0,60,13.0,0.0
12483,62.0,0,120,2.0,0.0
12484,86.0,60,60,13.0,0.0
12485,50.0,0,120,2.0,0.0
12486,54.0,0,120,10.0,0.0
12487,86.0,0,120,5.0,0.0
12488,50.0,0,120,3.0,0.0
12489,62.0,0,120,11.0,0.0
12490,50.0,0,120,11.0,0.0
12491,78.0,0,120,1.0,0.0
12492,69.0,0,120,1.0,0.0
12493,38.0,0,120,4.0,0.0
12494,62.0,0,120,10.0,0.0
