,note,step,duration,channel,velocity
0,60.0,0,30,0.0,0.0
1,48.0,30,30,1.0,0.0
2,59.0,30,30,0.0,0.0
3,47.0,0,30,1.0,0.0
4,60.0,0,30,0.0,0.0
5,48.0,30,30,1.0,0.0
6,59.0,0,30,0.0,0.0
7,47.0,120,30,1.0,0.0
8,48.0,120,120,1.0,0.0
9,60.0,0,0,0.0,0.0
10,48.0,120,120,1.0,0.0
11,64.0,0,120,0.0,0.0
12,48.0,0,120,1.0,0.0
13,67.0,0,120,0.0,0.0
14,76.0,0,120,0.0,0.0
15,64.0,0,240,0.0,0.0
16,72.0,0,240,0.0,0.0
17,60.0,120,0,1.0,0.0
18,48.0,120,120,1.0,0.0
19,48.0,0,120,1.0,0.0
20,36.0,30,120,1.0,0.0
21,60.0,30,30,0.0,0.0
22,48.0,0,30,1.0,0.0
23,47.0,0,30,1.0,0.0
24,59.0,30,30,0.0,0.0
25,60.0,30,30,0.0,0.0
26,48.0,0,30,1.0,0.0
27,59.0,120,30,0.0,0.0
28,47.0,0,30,1.0,0.0
29,48.0,0,120,1.0,0.0
30,60.0,120,0,0.0,0.0
31,48.0,0,120,1.0,0.0
32,60.0,0,120,1.0,0.0
33,76.0,0,120,0.0,0.0
34,67.0,0,120,0.0,0.0
35,79.0,120,120,0.0,0.0
36,48.0,0,0,1.0,0.0
37,60.0,0,120,1.0,0.0
38,76.0,0,240,0.0,0.0
39,64.0,30,240,0.0,0.0
40,72.0,0,240,0.0,0.0
41,36.0,0,120,1.0,0.0
42,48.0,0,120,1.0,0.0
43,67.0,30,30,0.0,0.0
44,55.0,0,30,1.0,0.0
45,54.0,0,30,1.0,0.0
46,66.0,30,30,0.0,0.0
47,67.0,30,30,0.0,0.0
48,55.0,0,30,1.0,0.0
49,66.0,0,30,0.0,0.0
50,54.0,120,30,1.0,0.0
51,55.0,0,120,1.0,0.0
52,67.0,120,120,0.0,0.0
53,60.0,0,120,1.0,0.0
54,72.0,120,120,0.0,0.0
55,64.0,0,120,1.0,0.0
56,76.0,120,120,0.0,0.0
57,79.0,0,120,0.0,0.0
58,55.0,120,120,1.0,0.0
59,67.0,0,120,1.0,0.0
60,83.0,0,120,0.0,0.0
61,74.0,0,120,0.0,0.0
62,71.0,0,120,0.0,0.0
63,53.0,120,120,1.0,0.0
64,65.0,0,120,1.0,0.0
65,79.0,0,120,0.0,0.0
66,52.0,0,120,1.0,0.0
67,79.0,0,120,0.0,0.0
68,72.0,0,120,0.0,0.0
69,76.0,120,120,0.0,0.0
70,64.0,0,120,1.0,0.0
71,84.0,0,120,0.0,0.0
72,74.0,0,120,0.0,0.0
73,77.0,0,120,0.0,0.0
74,79.0,0,120,0.0,0.0
75,59.0,90,120,1.0,0.0
76,47.0,0,120,1.0,0.0
77,86.0,0,120,0.0,0.0
78,74.0,30,90,0.0,0.0
79,77.0,0,90,0.0,0.0
80,55.0,0,120,1.0,0.0
81,43.0,0,120,1.0,0.0
82,79.0,90,30,0.0,0.0
83,76.0,0,30,0.0,0.0
84,60.0,120,120,1.0,0.0
85,48.0,0,120,1.0,0.0
86,72.0,0,90,0.0,0.0
87,76.0,30,90,0.0,0.0
88,77.0,0,30,0.0,0.0
89,71.0,0,120,0.0,0.0
90,74.0,0,0,0.0,0.0
91,43.0,0,120,1.0,0.0
92,55.0,0,120,1.0,0.0
93,43.0,30,120,1.0,0.0
94,60.0,30,30,0.0,0.0
95,48.0,0,30,1.0,0.0
96,59.0,30,30,0.0,0.0
97,47.0,0,30,1.0,0.0
98,48.0,0,30,1.0,0.0
99,60.0,30,30,0.0,0.0
100,47.0,0,30,1.0,0.0
101,59.0,120,30,0.0,0.0
102,60.0,0,120,0.0,0.0
103,48.0,120,0,1.0,0.0
104,60.0,120,120,0.0,0.0
105,48.0,0,0,1.0,0.0
106,67.0,0,120,0.0,0.0
107,64.0,0,120,0.0,0.0
108,76.0,120,120,0.0,0.0
109,60.0,0,0,1.0,0.0
110,64.0,0,240,0.0,0.0
111,72.0,0,240,0.0,0.0
112,36.0,30,120,1.0,0.0
113,48.0,120,0,1.0,0.0
114,60.0,0,30,0.0,0.0
115,48.0,30,30,1.0,0.0
116,47.0,30,30,1.0,0.0
117,59.0,0,30,0.0,0.0
118,48.0,0,30,1.0,0.0
119,60.0,30,30,0.0,0.0
120,59.0,0,30,0.0,0.0
121,47.0,120,30,1.0,0.0
122,60.0,120,120,0.0,0.0
123,48.0,0,120,1.0,0.0
124,48.0,120,120,1.0,0.0
125,60.0,0,120,0.0,0.0
126,79.0,0,120,0.0,0.0
127,67.0,0,120,0.0,0.0
128,60.0,120,0,1.0,0.0
129,48.0,0,0,1.0,0.0
130,76.0,0,0,0.0,0.0
131,64.0,0,240,0.0,0.0
132,72.0,0,240,0.0,0.0
133,48.0,30,120,1.0,0.0
134,36.0,0,120,1.0,0.0
135,55.0,0,30,1.0,0.0
136,67.0,30,30,0.0,0.0
137,54.0,30,30,1.0,0.0
138,66.0,0,30,0.0,0.0
139,67.0,0,30,0.0,0.0
140,55.0,30,30,1.0,0.0
141,66.0,120,30,0.0,0.0
142,54.0,0,30,1.0,0.0
143,55.0,0,120,1.0,0.0
144,67.0,120,120,0.0,0.0
145,60.0,0,120,1.0,0.0
146,72.0,120,120,0.0,0.0
147,64.0,120,120,1.0,0.0
148,76.0,0,120,0.0,0.0
149,67.0,0,120,1.0,0.0
150,55.0,0,120,1.0,0.0
151,71.0,0,120,0.0,0.0
152,79.0,120,0,0.0,0.0
153,74.0,0,120,0.0,0.0
154,65.0,0,120,1.0,0.0
155,53.0,0,120,1.0,0.0
156,83.0,0,120,0.0,0.0
157,52.0,0,120,1.0,0.0
158,64.0,120,120,1.0,0.0
159,79.0,120,0,0.0,0.0
160,84.0,0,120,0.0,0.0
161,76.0,0,120,0.0,0.0
162,72.0,0,120,0.0,0.0
163,77.0,0,120,0.0,0.0
164,74.0,0,120,0.0,0.0
165,86.0,0,120,0.0,0.0
166,79.0,0,120,0.0,0.0
167,47.0,90,120,1.0,0.0
168,59.0,0,120,1.0,0.0
169,74.0,30,90,0.0,0.0
170,77.0,0,90,0.0,0.0
171,55.0,0,120,1.0,0.0
172,43.0,0,120,1.0,0.0
173,79.0,90,30,0.0,0.0
174,76.0,0,30,0.0,0.0
175,48.0,0,120,1.0,0.0
176,72.0,0,90,0.0,0.0
177,60.0,120,120,1.0,0.0
178,76.0,30,90,0.0,0.0
179,77.0,0,30,0.0,0.0
180,74.0,0,30,0.0,0.0
181,55.0,120,120,1.0,0.0
182,43.0,0,120,1.0,0.0
183,74.0,0,120,0.0,0.0
184,71.0,0,120,0.0,0.0
185,43.0,30,120,1.0,0.0
186,79.0,30,30,0.0,0.0
187,78.0,30,30,0.0,0.0
188,79.0,30,30,0.0,0.0
189,78.0,120,30,0.0,0.0
190,74.0,0,120,0.0,0.0
191,43.0,120,120,1.0,0.0
192,79.0,0,120,0.0,0.0
193,31.0,0,120,1.0,0.0
194,71.0,0,120,0.0,0.0
195,35.0,0,120,1.0,0.0
196,47.0,0,120,1.0,0.0
197,79.0,0,120,0.0,0.0
198,71.0,0,0,0.0,0.0
199,50.0,0,120,1.0,0.0
200,38.0,0,120,1.0,0.0
201,74.0,120,0,0.0,0.0
202,43.0,0,120,1.0,0.0
203,55.0,120,120,1.0,0.0
204,74.0,0,0,0.0,0.0
205,79.0,120,0,0.0,0.0
206,71.0,0,0,0.0,0.0
207,59.0,0,120,1.0,0.0
208,47.0,30,120,1.0,0.0
209,79.0,30,30,0.0,0.0
210,50.0,0,120,1.0,0.0
211,62.0,120,120,1.0,0.0
212,80.0,30,30,0.0,0.0
213,79.0,30,30,0.0,0.0
214,80.0,0,30,0.0,0.0
215,79.0,0,120,0.0,0.0
216,71.0,0,120,0.0,0.0
217,74.0,0,120,0.0,0.0
218,77.0,0,120,0.0,0.0
219,65.0,0,120,1.0,0.0
220,53.0,120,120,1.0,0.0
221,50.0,0,120,1.0,0.0
222,62.0,0,120,1.0,0.0
223,71.0,0,0,0.0,0.0
224,59.0,120,120,1.0,0.0
225,47.0,0,120,1.0,0.0
226,79.0,0,0,0.0,0.0
227,74.0,120,0,0.0,0.0
228,77.0,0,0,0.0,0.0
229,71.0,0,0,0.0,0.0
230,79.0,0,240,0.0,0.0
231,77.0,0,0,0.0,0.0
232,74.0,30,240,0.0,0.0
233,43.0,120,120,1.0,0.0
234,55.0,0,120,1.0,0.0
235,41.0,0,120,1.0,0.0
236,53.0,0,120,1.0,0.0
237,50.0,0,120,1.0,0.0
238,38.0,0,120,1.0,0.0
239,72.0,30,30,0.0,0.0
240,71.0,30,30,0.0,0.0
241,72.0,30,30,0.0,0.0
242,71.0,120,30,0.0,0.0
243,48.0,0,120,1.0,0.0
244,36.0,120,120,1.0,0.0
245,72.0,0,120,0.0,0.0
246,76.0,120,120,0.0,0.0
247,52.0,0,120,1.0,0.0
248,55.0,120,120,1.0,0.0
249,67.0,0,120,0.0,0.0
250,79.0,0,120,0.0,0.0
251,72.0,120,120,0.0,0.0
252,84.0,0,120,0.0,0.0
253,60.0,0,120,1.0,0.0
254,88.0,0,120,0.0,0.0
255,76.0,0,120,0.0,0.0
256,64.0,120,120,1.0,0.0
257,91.0,0,120,0.0,0.0
258,79.0,120,120,0.0,0.0
259,67.0,0,120,1.0,0.0
260,89.0,0,240,0.0,0.0
261,77.0,0,240,0.0,0.0
262,62.0,0,120,1.0,0.0
263,59.0,0,120,1.0,0.0
264,55.0,0,120,1.0,0.0
265,65.0,120,0,1.0,0.0
266,62.0,0,120,1.0,0.0
267,59.0,0,120,1.0,0.0
268,55.0,30,0,1.0,0.0
269,62.0,0,120,1.0,0.0
270,65.0,0,120,1.0,0.0
271,59.0,0,120,1.0,0.0
272,88.0,30,30,0.0,0.0
273,86.0,30,30,0.0,0.0
274,84.0,30,30,0.0,0.0
275,83.0,0,30,0.0,0.0
276,64.0,120,120,1.0,0.0
277,60.0,0,120,1.0,0.0
278,84.0,0,120,0.0,0.0
279,48.0,30,120,1.0,0.0
280,79.0,30,30,0.0,0.0
281,78.0,30,30,0.0,0.0
282,79.0,30,30,0.0,0.0
283,78.0,120,30,0.0,0.0
284,31.0,0,120,1.0,0.0
285,71.0,0,120,0.0,0.0
286,74.0,0,120,0.0,0.0
287,79.0,120,120,0.0,0.0
288,43.0,0,120,1.0,0.0
289,35.0,0,120,1.0,0.0
290,47.0,120,120,1.0,0.0
291,71.0,0,120,0.0,0.0
292,79.0,0,120,0.0,0.0
293,74.0,0,0,0.0,0.0
294,71.0,0,120,0.0,0.0
295,79.0,0,120,0.0,0.0
296,38.0,0,120,1.0,0.0
297,50.0,0,120,1.0,0.0
298,55.0,0,120,1.0,0.0
299,43.0,120,120,1.0,0.0
300,74.0,120,0,0.0,0.0
301,71.0,0,240,0.0,0.0
302,47.0,0,120,1.0,0.0
303,59.0,30,120,1.0,0.0
304,79.0,0,0,0.0,0.0
305,50.0,0,120,1.0,0.0
306,62.0,120,120,1.0,0.0
307,80.0,30,30,0.0,0.0
308,79.0,30,30,0.0,0.0
309,80.0,0,30,0.0,0.0
310,71.0,0,120,0.0,0.0
311,79.0,120,120,0.0,0.0
312,77.0,0,120,0.0,0.0
313,74.0,0,120,0.0,0.0
314,65.0,0,120,1.0,0.0
315,53.0,0,120,1.0,0.0
316,62.0,0,120,1.0,0.0
317,50.0,0,120,1.0,0.0
318,79.0,0,120,0.0,0.0
319,74.0,0,120,0.0,0.0
320,77.0,0,120,0.0,0.0
321,47.0,0,120,1.0,0.0
322,59.0,120,120,1.0,0.0
323,77.0,0,120,0.0,0.0
324,79.0,0,120,0.0,0.0
325,71.0,120,0,0.0,0.0
326,79.0,0,240,0.0,0.0
327,71.0,0,240,0.0,0.0
328,74.0,0,0,0.0,0.0
329,77.0,0,240,0.0,0.0
330,43.0,120,120,1.0,0.0
331,55.0,0,120,1.0,0.0
332,41.0,0,120,1.0,0.0
333,53.0,30,120,1.0,0.0
334,72.0,30,30,0.0,0.0
335,38.0,120,120,1.0,0.0
336,50.0,0,120,1.0,0.0
337,71.0,30,30,0.0,0.0
338,72.0,30,30,0.0,0.0
339,71.0,0,30,0.0,0.0
340,36.0,0,120,1.0,0.0
341,48.0,120,120,1.0,0.0
342,72.0,0,120,0.0,0.0
343,76.0,120,120,0.0,0.0
344,52.0,0,120,1.0,0.0
345,79.0,120,120,0.0,0.0
346,67.0,0,120,0.0,0.0
347,55.0,0,120,1.0,0.0
348,72.0,0,120,0.0,0.0
349,60.0,120,120,1.0,0.0
350,84.0,0,120,0.0,0.0
351,88.0,0,120,0.0,0.0
352,76.0,0,120,0.0,0.0
353,64.0,120,120,1.0,0.0
354,79.0,0,120,0.0,0.0
355,67.0,120,120,1.0,0.0
356,91.0,0,120,0.0,0.0
357,89.0,30,240,0.0,0.0
358,77.0,0,240,0.0,0.0
359,62.0,120,0,1.0,0.0
360,55.0,0,0,1.0,0.0
361,59.0,0,0,1.0,0.0
362,65.0,0,0,1.0,0.0
363,55.0,0,0,1.0,0.0
364,59.0,0,0,1.0,0.0
365,62.0,0,0,1.0,0.0
366,65.0,0,0,1.0,0.0
367,88.0,30,30,0.0,0.0
368,86.0,30,30,0.0,0.0
369,84.0,30,30,0.0,0.0
370,83.0,0,30,0.0,0.0
371,60.0,0,120,1.0,0.0
372,84.0,0,120,0.0,0.0
373,64.0,120,120,1.0,0.0
374,48.0,120,120,1.0,0.0
375,67.0,60,120,0.0,0.0
376,48.0,60,360,1.0,0.0
377,52.0,60,60,1.0,0.0
378,72.0,0,180,0.0,0.0
379,55.0,60,60,1.0,0.0
380,52.0,60,60,1.0,0.0
381,71.0,60,60,0.0,0.0
382,55.0,0,60,1.0,0.0
383,52.0,60,60,1.0,0.0
384,72.0,0,60,0.0,0.0
385,73.0,0,60,0.0,0.0
386,55.0,0,60,1.0,0.0
387,76.0,60,60,0.0,0.0
388,53.0,0,60,1.0,0.0
389,47.0,0,360,1.0,0.0
390,74.0,0,60,0.0,0.0
391,55.0,60,60,1.0,0.0
392,53.0,0,60,1.0,0.0
393,72.0,60,60,0.0,0.0
394,55.0,0,60,1.0,0.0
395,71.0,60,60,0.0,0.0
396,53.0,60,60,1.0,0.0
397,69.0,0,60,0.0,0.0
398,55.0,0,60,1.0,0.0
399,67.0,60,60,0.0,0.0
400,48.0,0,360,1.0,0.0
401,52.0,60,60,1.0,0.0
402,55.0,0,60,1.0,0.0
403,74.0,0,15,0.0,0.0
404,72.0,60,0,0.0,0.0
405,52.0,0,60,1.0,0.0
406,55.0,0,60,1.0,0.0
407,71.0,60,60,0.0,0.0
408,52.0,60,60,1.0,0.0
409,72.0,0,60,0.0,0.0
410,74.0,0,60,0.0,0.0
411,55.0,60,60,1.0,0.0
412,71.0,0,120,0.0,0.0
413,43.0,60,60,1.0,0.0
414,55.0,60,60,1.0,0.0
415,54.0,60,60,1.0,0.0
416,55.0,60,60,1.0,0.0
417,59.0,60,60,1.0,0.0
418,67.0,0,120,0.0,0.0
419,55.0,60,60,1.0,0.0
420,62.0,60,60,1.0,0.0
421,77.0,60,180,0.0,0.0
422,55.0,60,60,1.0,0.0
423,57.0,0,60,1.0,0.0
424,55.0,60,60,1.0,0.0
425,76.0,0,60,0.0,0.0
426,57.0,0,60,1.0,0.0
427,77.0,60,60,0.0,0.0
428,79.0,0,60,0.0,0.0
429,55.0,60,60,1.0,0.0
430,77.0,0,60,0.0,0.0
431,60.0,60,60,1.0,0.0
432,76.0,60,60,0.0,0.0
433,55.0,0,60,1.0,0.0
434,74.0,0,60,0.0,0.0
435,62.0,60,60,1.0,0.0
436,72.0,0,60,0.0,0.0
437,55.0,60,60,1.0,0.0
438,64.0,0,60,1.0,0.0
439,71.0,60,60,0.0,0.0
440,55.0,0,60,1.0,0.0
441,72.0,60,60,0.0,0.0
442,65.0,60,60,1.0,0.0
443,55.0,0,60,1.0,0.0
444,65.0,60,60,1.0,0.0
445,74.0,60,0,0.0,0.0
446,55.0,60,60,1.0,0.0
447,65.0,30,60,1.0,0.0
448,74.0,0,0,0.0,0.0
449,55.0,0,60,1.0,0.0
450,76.0,120,30,0.0,0.0
451,60.0,0,120,1.0,0.0
452,64.0,0,120,1.0,0.0
453,72.0,120,120,0.0,0.0
454,48.0,120,120,1.0,0.0
455,67.0,60,120,0.0,0.0
456,52.0,60,60,1.0,0.0
457,48.0,60,360,1.0,0.0
458,72.0,0,180,0.0,0.0
459,55.0,60,60,1.0,0.0
460,52.0,60,60,1.0,0.0
461,55.0,0,60,1.0,0.0
462,71.0,60,60,0.0,0.0
463,72.0,0,60,0.0,0.0
464,52.0,60,60,1.0,0.0
465,73.0,0,60,0.0,0.0
466,55.0,0,60,1.0,0.0
467,47.0,0,360,1.0,0.0
468,76.0,60,60,0.0,0.0
469,53.0,0,60,1.0,0.0
470,74.0,0,60,0.0,0.0
471,55.0,60,60,1.0,0.0
472,72.0,0,60,0.0,0.0
473,53.0,60,60,1.0,0.0
474,55.0,0,60,1.0,0.0
475,71.0,60,60,0.0,0.0
476,53.0,0,60,1.0,0.0
477,69.0,60,60,0.0,0.0
478,67.0,60,60,0.0,0.0
479,55.0,0,60,1.0,0.0
480,48.0,60,360,1.0,0.0
481,52.0,60,60,1.0,0.0
482,72.0,60,120,0.0,0.0
483,55.0,0,60,1.0,0.0
484,74.0,0,15,0.0,0.0
485,52.0,0,60,1.0,0.0
486,72.0,60,60,0.0,0.0
487,55.0,60,60,1.0,0.0
488,71.0,0,60,0.0,0.0
489,72.0,60,60,0.0,0.0
490,52.0,0,60,1.0,0.0
491,74.0,0,60,0.0,0.0
492,55.0,0,60,1.0,0.0
493,71.0,0,120,0.0,0.0
494,43.0,60,60,1.0,0.0
495,55.0,60,60,1.0,0.0
496,54.0,60,60,1.0,0.0
497,55.0,60,60,1.0,0.0
498,67.0,0,120,0.0,0.0
499,59.0,60,60,1.0,0.0
500,55.0,60,60,1.0,0.0
501,77.0,60,180,0.0,0.0
502,62.0,60,60,1.0,0.0
503,55.0,60,60,1.0,0.0
504,57.0,0,60,1.0,0.0
505,76.0,60,60,0.0,0.0
506,55.0,0,60,1.0,0.0
507,57.0,60,60,1.0,0.0
508,77.0,0,60,0.0,0.0
509,79.0,0,60,0.0,0.0
510,55.0,60,60,1.0,0.0
511,77.0,60,60,0.0,0.0
512,60.0,0,60,1.0,0.0
513,55.0,0,60,1.0,0.0
514,76.0,60,60,0.0,0.0
515,62.0,60,60,1.0,0.0
516,74.0,0,60,0.0,0.0
517,72.0,0,60,0.0,0.0
518,55.0,60,60,1.0,0.0
519,71.0,60,60,0.0,0.0
520,64.0,0,60,1.0,0.0
521,55.0,60,60,1.0,0.0
522,72.0,0,60,0.0,0.0
523,65.0,60,60,1.0,0.0
524,55.0,0,60,1.0,0.0
525,65.0,60,60,1.0,0.0
526,74.0,60,0,0.0,0.0
527,55.0,0,60,1.0,0.0
528,65.0,30,60,1.0,0.0
529,74.0,30,90,0.0,0.0
530,55.0,0,60,1.0,0.0
531,76.0,120,30,0.0,0.0
532,72.0,0,120,0.0,0.0
533,60.0,0,120,1.0,0.0
534,64.0,120,120,1.0,0.0
535,48.0,120,120,1.0,0.0
536,64.0,60,120,0.0,0.0
537,68.0,60,60,0.0,0.0
538,76.0,0,60,0.0,0.0
539,52.0,0,60,1.0,0.0
540,54.0,60,60,1.0,0.0
541,76.0,0,60,0.0,0.0
542,69.0,0,60,0.0,0.0
543,71.0,0,60,0.0,0.0
544,56.0,0,60,1.0,0.0
545,52.0,60,60,1.0,0.0
546,68.0,0,60,0.0,0.0
547,76.0,60,0,0.0,0.0
548,54.0,0,60,1.0,0.0
549,69.0,60,60,0.0,0.0
550,56.0,0,60,1.0,0.0
551,71.0,0,60,0.0,0.0
552,76.0,0,0,0.0,0.0
553,72.0,60,60,0.0,0.0
554,57.0,0,60,1.0,0.0
555,72.0,60,60,0.0,0.0
556,71.0,60,60,0.0,0.0
557,72.0,60,60,0.0,0.0
558,71.0,60,60,0.0,0.0
559,72.0,60,60,0.0,0.0
560,48.0,60,60,1.0,0.0
561,64.0,0,60,0.0,0.0
562,72.0,0,60,0.0,0.0
563,65.0,60,60,0.0,0.0
564,50.0,0,60,1.0,0.0
565,52.0,0,60,1.0,0.0
566,67.0,0,60,0.0,0.0
567,72.0,0,0,0.0,0.0
568,64.0,0,60,0.0,0.0
569,48.0,60,60,1.0,0.0
570,72.0,0,60,0.0,0.0
571,65.0,0,60,0.0,0.0
572,50.0,0,60,1.0,0.0
573,52.0,60,60,1.0,0.0
574,72.0,60,0,0.0,0.0
575,67.0,0,60,0.0,0.0
576,69.0,0,60,0.0,0.0
577,53.0,60,60,1.0,0.0
578,69.0,60,60,0.0,0.0
579,68.0,60,60,0.0,0.0
580,69.0,60,60,0.0,0.0
581,68.0,60,60,0.0,0.0
582,69.0,60,60,0.0,0.0
583,62.0,60,60,1.0,0.0
584,77.0,60,180,0.0,0.0
585,55.0,60,60,1.0,0.0
586,57.0,0,60,1.0,0.0
587,55.0,0,60,1.0,0.0
588,76.0,60,60,0.0,0.0
589,57.0,0,60,1.0,0.0
590,77.0,60,60,0.0,0.0
591,79.0,60,60,0.0,0.0
592,55.0,0,60,1.0,0.0
593,77.0,0,60,0.0,0.0
594,60.0,60,60,1.0,0.0
595,76.0,0,60,0.0,0.0
596,55.0,60,60,1.0,0.0
597,74.0,60,60,0.0,0.0
598,62.0,0,60,1.0,0.0
599,72.0,0,60,0.0,0.0
600,55.0,60,60,1.0,0.0
601,71.0,0,60,0.0,0.0
602,64.0,60,60,1.0,0.0
603,55.0,0,60,1.0,0.0
604,72.0,60,60,0.0,0.0
605,65.0,60,60,1.0,0.0
606,55.0,0,60,1.0,0.0
607,74.0,60,0,0.0,0.0
608,65.0,60,60,1.0,0.0
609,55.0,60,60,1.0,0.0
610,74.0,30,90,0.0,0.0
611,65.0,30,60,1.0,0.0
612,55.0,120,60,1.0,0.0
613,76.0,0,30,0.0,0.0
614,64.0,0,120,1.0,0.0
615,72.0,0,120,0.0,0.0
616,60.0,120,120,1.0,0.0
617,48.0,120,120,1.0,0.0
618,64.0,60,120,0.0,0.0
619,52.0,0,60,1.0,0.0
620,68.0,0,60,0.0,0.0
621,69.0,0,60,0.0,0.0
622,76.0,60,0,0.0,0.0
623,54.0,60,60,1.0,0.0
624,76.0,0,0,0.0,0.0
625,71.0,60,60,0.0,0.0
626,56.0,0,60,1.0,0.0
627,52.0,60,60,1.0,0.0
628,68.0,0,60,0.0,0.0
629,76.0,0,0,0.0,0.0
630,69.0,0,60,0.0,0.0
631,76.0,0,60,0.0,0.0
632,54.0,60,60,1.0,0.0
633,71.0,0,60,0.0,0.0
634,76.0,0,60,0.0,0.0
635,56.0,60,60,1.0,0.0
636,57.0,0,60,1.0,0.0
637,72.0,60,0,0.0,0.0
638,71.0,60,60,0.0,0.0
639,72.0,60,60,0.0,0.0
640,71.0,60,60,0.0,0.0
641,72.0,60,0,0.0,0.0
642,64.0,0,60,0.0,0.0
643,48.0,60,60,1.0,0.0
644,65.0,0,60,0.0,0.0
645,50.0,0,60,1.0,0.0
646,72.0,60,0,0.0,0.0
647,52.0,60,60,1.0,0.0
648,67.0,0,60,0.0,0.0
649,48.0,0,60,1.0,0.0
650,64.0,0,60,0.0,0.0
651,65.0,60,60,0.0,0.0
652,72.0,60,0,0.0,0.0
653,50.0,0,60,1.0,0.0
654,52.0,60,60,1.0,0.0
655,67.0,0,60,0.0,0.0
656,72.0,0,60,0.0,0.0
657,69.0,0,60,0.0,0.0
658,53.0,60,60,1.0,0.0
659,69.0,60,60,0.0,0.0
660,68.0,60,60,0.0,0.0
661,69.0,60,60,0.0,0.0
662,68.0,60,60,0.0,0.0
663,69.0,60,60,0.0,0.0
664,77.0,60,180,0.0,0.0
665,62.0,60,60,1.0,0.0
666,55.0,60,60,1.0,0.0
667,57.0,0,60,1.0,0.0
668,55.0,60,60,1.0,0.0
669,76.0,0,60,0.0,0.0
670,57.0,0,60,1.0,0.0
671,77.0,60,60,0.0,0.0
672,79.0,0,60,0.0,0.0
673,55.0,60,60,1.0,0.0
674,77.0,60,60,0.0,0.0
675,60.0,0,60,1.0,0.0
676,55.0,60,60,1.0,0.0
677,76.0,0,60,0.0,0.0
678,62.0,0,60,1.0,0.0
679,74.0,60,60,0.0,0.0
680,55.0,60,60,1.0,0.0
681,72.0,0,60,0.0,0.0
682,71.0,60,60,0.0,0.0
683,64.0,0,60,1.0,0.0
684,72.0,0,60,0.0,0.0
685,55.0,60,60,1.0,0.0
686,65.0,60,60,1.0,0.0
687,74.0,0,120,0.0,0.0
688,55.0,60,60,1.0,0.0
689,65.0,60,60,1.0,0.0
690,55.0,0,60,1.0,0.0
691,65.0,30,60,1.0,0.0
692,74.0,60,0,0.0,0.0
693,55.0,120,60,1.0,0.0
694,76.0,0,30,0.0,0.0
695,64.0,0,120,1.0,0.0
696,60.0,120,120,1.0,0.0
697,72.0,0,120,0.0,0.0
698,48.0,450,120,1.0,0.0
699,67.0,30,90,0.0,0.0
700,71.0,0,90,0.0,0.0
701,69.0,90,30,0.0,0.0
702,72.0,0,30,0.0,0.0
703,43.0,0,120,1.0,0.0
704,74.0,30,90,0.0,0.0
705,71.0,0,90,0.0,0.0
706,73.0,0,30,0.0,0.0
707,70.0,90,30,0.0,0.0
708,47.0,0,120,1.0,0.0
709,71.0,30,90,0.0,0.0
710,62.0,0,0,0.0,0.0
711,59.0,0,0,0.0,0.0
712,74.0,0,90,0.0,0.0
713,70.0,90,30,0.0,0.0
714,73.0,0,30,0.0,0.0
715,59.0,0,0,0.0,0.0
716,62.0,0,0,0.0,0.0
717,50.0,0,120,1.0,0.0
718,74.0,30,90,0.0,0.0
719,71.0,0,90,0.0,0.0
720,73.0,0,30,0.0,0.0
721,70.0,120,30,0.0,0.0
722,55.0,120,120,1.0,0.0
723,71.0,0,240,0.0,0.0
724,74.0,0,240,0.0,0.0
725,43.0,90,120,1.0,0.0
726,76.0,30,90,0.0,0.0
727,72.0,0,90,0.0,0.0
728,68.0,0,30,0.0,0.0
729,71.0,120,30,0.0,0.0
730,72.0,0,240,0.0,0.0
731,50.0,120,120,1.0,0.0
732,69.0,90,240,0.0,0.0
733,38.0,0,120,1.0,0.0
734,71.0,30,90,0.0,0.0
735,74.0,0,90,0.0,0.0
736,69.0,120,30,0.0,0.0
737,66.0,0,30,0.0,0.0
738,71.0,0,120,0.0,0.0
739,67.0,120,120,0.0,0.0
740,43.0,0,120,1.0,0.0
741,31.0,90,120,1.0,0.0
742,67.0,30,90,0.0,0.0
743,59.0,0,90,0.0,0.0
744,62.0,0,30,0.0,0.0
745,69.0,90,30,0.0,0.0
746,67.0,0,90,0.0,0.0
747,71.0,30,90,0.0,0.0
748,43.0,0,120,1.0,0.0
749,66.0,0,30,0.0,0.0
750,69.0,90,30,0.0,0.0
751,47.0,0,120,1.0,0.0
752,67.0,0,90,0.0,0.0
753,71.0,30,90,0.0,0.0
754,66.0,90,30,0.0,0.0
755,69.0,0,30,0.0,0.0
756,51.0,0,120,1.0,0.0
757,71.0,0,90,0.0,0.0
758,67.0,30,90,0.0,0.0
759,69.0,120,30,0.0,0.0
760,66.0,0,30,0.0,0.0
761,52.0,120,120,1.0,0.0
762,71.0,0,240,0.0,0.0
763,67.0,60,240,0.0,0.0
764,54.0,0,120,1.0,0.0
765,55.0,60,120,1.0,0.0
766,69.0,60,60,0.0,0.0
767,66.0,0,60,0.0,0.0
768,67.0,0,0,0.0,0.0
769,64.0,0,0,0.0,0.0
770,45.0,0,120,1.0,0.0
771,62.0,60,60,0.0,0.0
772,66.0,0,60,0.0,0.0
773,62.0,60,60,0.0,0.0
774,66.0,0,60,0.0,0.0
775,66.0,60,60,0.0,0.0
776,69.0,0,60,0.0,0.0
777,45.0,120,120,1.0,0.0
778,64.0,0,60,0.0,0.0
779,67.0,60,60,0.0,0.0
780,64.0,0,60,0.0,0.0
781,61.0,0,60,0.0,0.0
782,50.0,120,120,1.0,0.0
783,62.0,0,120,0.0,0.0
784,62.0,90,120,1.0,0.0
785,67.0,0,90,0.0,0.0
786,71.0,30,90,0.0,0.0
787,69.0,0,30,0.0,0.0
788,72.0,90,30,0.0,0.0
789,74.0,0,90,0.0,0.0
790,71.0,30,90,0.0,0.0
791,59.0,0,120,0.0,0.0
792,43.0,0,120,1.0,0.0
793,70.0,90,30,0.0,0.0
794,73.0,0,30,0.0,0.0
795,74.0,30,90,0.0,0.0
796,62.0,0,0,0.0,0.0
797,47.0,90,120,1.0,0.0
798,71.0,0,90,0.0,0.0
799,59.0,0,120,0.0,0.0
800,70.0,0,30,0.0,0.0
801,73.0,0,30,0.0,0.0
802,74.0,30,90,0.0,0.0
803,50.0,120,120,1.0,0.0
804,71.0,0,90,0.0,0.0
805,62.0,0,120,0.0,0.0
806,59.0,0,120,0.0,0.0
807,70.0,0,30,0.0,0.0
808,73.0,0,30,0.0,0.0
809,71.0,90,240,0.0,0.0
810,74.0,0,240,0.0,0.0
811,55.0,120,120,1.0,0.0
812,43.0,0,120,1.0,0.0
813,72.0,0,90,0.0,0.0
814,76.0,30,90,0.0,0.0
815,71.0,0,30,0.0,0.0
816,68.0,120,30,0.0,0.0
817,50.0,120,120,1.0,0.0
818,69.0,90,240,0.0,0.0
819,72.0,0,240,0.0,0.0
820,38.0,0,120,1.0,0.0
821,71.0,0,90,0.0,0.0
822,74.0,30,90,0.0,0.0
823,69.0,120,30,0.0,0.0
824,66.0,0,30,0.0,0.0
825,71.0,0,120,0.0,0.0
826,67.0,0,120,0.0,0.0
827,43.0,120,120,1.0,0.0
828,31.0,90,120,1.0,0.0
829,67.0,0,90,0.0,0.0
830,59.0,30,90,0.0,0.0
831,69.0,0,30,0.0,0.0
832,62.0,90,30,0.0,0.0
833,71.0,30,90,0.0,0.0
834,67.0,0,90,0.0,0.0
835,43.0,90,120,1.0,0.0
836,69.0,0,30,0.0,0.0
837,66.0,0,30,0.0,0.0
838,71.0,30,90,0.0,0.0
839,67.0,0,90,0.0,0.0
840,47.0,0,120,1.0,0.0
841,66.0,0,30,0.0,0.0
842,69.0,90,30,0.0,0.0
843,67.0,0,90,0.0,0.0
844,51.0,120,120,1.0,0.0
845,71.0,30,90,0.0,0.0
846,69.0,0,30,0.0,0.0
847,66.0,0,30,0.0,0.0
848,71.0,0,240,0.0,0.0
849,67.0,0,240,0.0,0.0
850,52.0,120,120,1.0,0.0
851,54.0,60,120,1.0,0.0
852,55.0,60,120,1.0,0.0
853,66.0,0,60,0.0,0.0
854,69.0,60,60,0.0,0.0
855,67.0,0,60,0.0,0.0
856,64.0,0,60,0.0,0.0
857,45.0,60,120,1.0,0.0
858,67.0,60,60,0.0,0.0
859,64.0,0,60,0.0,0.0
860,66.0,0,60,0.0,0.0
861,62.0,0,60,0.0,0.0
862,66.0,0,60,0.0,0.0
863,62.0,60,60,0.0,0.0
864,66.0,0,60,0.0,0.0
865,69.0,60,60,0.0,0.0
866,45.0,120,120,1.0,0.0
867,67.0,60,60,0.0,0.0
868,64.0,0,60,0.0,0.0
869,64.0,0,60,0.0,0.0
870,61.0,0,60,0.0,0.0
871,62.0,120,120,0.0,0.0
872,50.0,0,120,1.0,0.0
873,62.0,60,120,1.0,0.0
874,74.0,60,60,0.0,0.0
875,59.0,0,120,1.0,0.0
876,79.0,120,0,0.0,0.0
877,74.0,0,120,0.0,0.0
878,62.0,0,0,1.0,0.0
879,57.0,0,120,1.0,0.0
880,72.0,120,120,0.0,0.0
881,78.0,0,120,0.0,0.0
882,62.0,0,0,1.0,0.0
883,71.0,0,120,0.0,0.0
884,79.0,120,120,0.0,0.0
885,55.0,0,120,1.0,0.0
886,54.0,120,120,1.0,0.0
887,62.0,30,240,1.0,0.0
888,69.0,0,120,0.0,0.0
889,81.0,0,240,0.0,0.0
890,50.0,0,120,1.0,0.0
891,79.0,30,30,0.0,0.0
892,54.0,0,120,1.0,0.0
893,78.0,30,30,0.0,0.0
894,76.0,30,30,0.0,0.0
895,74.0,120,30,0.0,0.0
896,55.0,0,240,1.0,0.0
897,69.0,120,120,0.0,0.0
898,72.0,0,120,0.0,0.0
899,67.0,0,120,0.0,0.0
900,71.0,90,120,0.0,0.0
901,76.0,30,90,0.0,0.0
902,48.0,0,120,1.0,0.0
903,72.0,0,0,0.0,0.0
904,69.0,0,30,0.0,0.0
905,71.0,0,120,0.0,0.0
906,50.0,0,120,1.0,0.0
907,67.0,60,120,0.0,0.0
908,69.0,0,60,0.0,0.0
909,66.0,150,60,0.0,0.0
910,67.0,30,90,0.0,0.0
911,59.0,0,90,0.0,0.0
912,69.0,0,30,0.0,0.0
913,60.0,90,30,0.0,0.0
914,43.0,0,120,1.0,0.0
915,62.0,30,90,0.0,0.0
916,71.0,0,90,0.0,0.0
917,31.0,0,120,1.0,0.0
918,61.0,0,30,0.0,0.0
919,70.0,90,30,0.0,0.0
920,62.0,0,90,0.0,0.0
921,71.0,30,90,0.0,0.0
922,35.0,90,120,1.0,0.0
923,47.0,0,120,1.0,0.0
924,61.0,0,30,0.0,0.0
925,70.0,0,30,0.0,0.0
926,62.0,0,90,0.0,0.0
927,38.0,0,120,1.0,0.0
928,71.0,30,90,0.0,0.0
929,50.0,0,120,1.0,0.0
930,70.0,0,30,0.0,0.0
931,61.0,120,30,0.0,0.0
932,55.0,0,120,1.0,0.0
933,71.0,0,240,0.0,0.0
934,62.0,0,240,0.0,0.0
935,43.0,120,120,1.0,0.0
936,53.0,90,120,1.0,0.0
937,41.0,0,120,1.0,0.0
938,72.0,0,90,0.0,0.0
939,40.0,120,240,1.0,0.0
940,52.0,0,240,1.0,0.0
941,64.0,30,90,0.0,0.0
942,59.0,120,30,0.0,0.0
943,68.0,0,30,0.0,0.0
944,60.0,90,240,0.0,0.0
945,69.0,0,240,0.0,0.0
946,39.0,0,120,1.0,0.0
947,51.0,0,120,1.0,0.0
948,38.0,0,120,1.0,0.0
949,62.0,30,90,0.0,0.0
950,71.0,0,90,0.0,0.0
951,50.0,120,120,1.0,0.0
952,66.0,0,30,0.0,0.0
953,57.0,0,30,0.0,0.0
954,67.0,120,120,0.0,0.0
955,59.0,0,120,0.0,0.0
956,43.0,0,120,1.0,0.0
957,55.0,60,120,1.0,0.0
958,74.0,60,60,0.0,0.0
959,79.0,120,0,0.0,0.0
960,74.0,0,120,0.0,0.0
961,62.0,0,120,1.0,0.0
962,59.0,0,120,1.0,0.0
963,57.0,0,120,1.0,0.0
964,72.0,120,120,0.0,0.0
965,78.0,0,120,0.0,0.0
966,62.0,0,0,1.0,0.0
967,55.0,0,120,1.0,0.0
968,79.0,0,120,0.0,0.0
969,71.0,0,120,0.0,0.0
970,81.0,0,240,0.0,0.0
971,62.0,120,0,1.0,0.0
972,54.0,0,120,1.0,0.0
973,69.0,120,120,0.0,0.0
974,50.0,30,120,1.0,0.0
975,54.0,0,120,1.0,0.0
976,79.0,30,30,0.0,0.0
977,78.0,30,30,0.0,0.0
978,76.0,30,30,0.0,0.0
979,74.0,120,30,0.0,0.0
980,72.0,0,120,0.0,0.0
981,69.0,120,120,0.0,0.0
982,55.0,90,240,1.0,0.0
983,67.0,0,120,0.0,0.0
984,71.0,0,120,0.0,0.0
985,72.0,0,90,0.0,0.0
986,76.0,30,90,0.0,0.0
987,48.0,0,120,1.0,0.0
988,72.0,0,30,0.0,0.0
989,69.0,120,30,0.0,0.0
990,50.0,60,120,1.0,0.0
991,67.0,0,120,0.0,0.0
992,71.0,0,120,0.0,0.0
993,69.0,150,60,0.0,0.0
994,66.0,0,60,0.0,0.0
995,67.0,0,90,0.0,0.0
996,59.0,30,90,0.0,0.0
997,60.0,90,30,0.0,0.0
998,69.0,0,30,0.0,0.0
999,62.0,30,90,0.0,0.0
1000,43.0,0,120,1.0,0.0
1001,31.0,0,120,1.0,0.0
1002,71.0,0,90,0.0,0.0
1003,61.0,90,30,0.0,0.0
1004,70.0,0,30,0.0,0.0
1005,47.0,90,120,1.0,0.0
1006,71.0,30,90,0.0,0.0
1007,62.0,0,90,0.0,0.0
1008,35.0,0,120,1.0,0.0
1009,61.0,0,30,0.0,0.0
1010,70.0,0,30,0.0,0.0
1011,38.0,0,120,1.0,0.0
1012,50.0,0,120,1.0,0.0
1013,71.0,30,90,0.0,0.0
1014,62.0,0,90,0.0,0.0
1015,70.0,0,30,0.0,0.0
1016,61.0,120,30,0.0,0.0
1017,55.0,120,120,1.0,0.0
1018,43.0,0,120,1.0,0.0
1019,62.0,0,240,0.0,0.0
1020,71.0,0,240,0.0,0.0
1021,53.0,90,120,1.0,0.0
1022,41.0,0,120,1.0,0.0
1023,64.0,0,90,0.0,0.0
1024,40.0,120,240,1.0,0.0
1025,52.0,0,240,1.0,0.0
1026,72.0,30,90,0.0,0.0
1027,59.0,0,30,0.0,0.0
1028,68.0,120,30,0.0,0.0
1029,69.0,90,240,0.0,0.0
1030,60.0,0,240,0.0,0.0
1031,51.0,0,120,1.0,0.0
1032,39.0,0,120,1.0,0.0
1033,50.0,120,120,1.0,0.0
1034,38.0,0,120,1.0,0.0
1035,71.0,0,90,0.0,0.0
1036,62.0,30,90,0.0,0.0
1037,57.0,0,30,0.0,0.0
1038,66.0,0,30,0.0,0.0
1039,67.0,0,120,0.0,0.0
1040,59.0,120,120,0.0,0.0
1041,43.0,0,120,1.0,0.0
1042,55.0,0,120,1.0,0.0
1043,74.0,60,60,0.0,0.0
1044,73.0,60,60,0.0,0.0
1045,74.0,60,60,0.0,0.0
1046,71.0,60,60,0.0,0.0
1047,43.0,60,120,1.0,0.0
1048,74.0,0,60,0.0,0.0
1049,67.0,60,60,0.0,0.0
1050,50.0,0,120,1.0,0.0
1051,71.0,60,60,0.0,0.0
1052,55.0,60,120,1.0,0.0
1053,62.0,60,60,0.0,0.0
1054,71.0,0,60,0.0,0.0
1055,69.0,60,60,0.0,0.0
1056,48.0,0,120,1.0,0.0
1057,72.0,60,60,0.0,0.0
1058,50.0,60,120,1.0,0.0
1059,66.0,60,60,0.0,0.0
1060,69.0,0,60,0.0,0.0
1061,54.0,0,120,1.0,0.0
1062,62.0,60,60,0.0,0.0
1063,66.0,60,60,0.0,0.0
1064,47.0,60,120,1.0,0.0
1065,67.0,60,60,0.0,0.0
1066,66.0,0,60,0.0,0.0
1067,67.0,60,60,0.0,0.0
1068,50.0,0,120,1.0,0.0
1069,69.0,60,60,0.0,0.0
1070,55.0,0,120,1.0,0.0
1071,71.0,60,60,0.0,0.0
1072,73.0,60,60,0.0,0.0
1073,74.0,60,60,0.0,0.0
1074,54.0,60,120,1.0,0.0
1075,73.0,0,60,0.0,0.0
1076,74.0,60,60,0.0,0.0
1077,57.0,0,120,1.0,0.0
1078,76.0,60,60,0.0,0.0
1079,74.0,60,60,0.0,0.0
1080,62.0,60,120,1.0,0.0
1081,72.0,0,60,0.0,0.0
1082,71.0,60,60,0.0,0.0
1083,55.0,60,120,1.0,0.0
1084,70.0,0,60,0.0,0.0
1085,59.0,60,120,1.0,0.0
1086,71.0,60,60,0.0,0.0
1087,72.0,0,60,0.0,0.0
1088,71.0,60,60,0.0,0.0
1089,51.0,0,120,1.0,0.0
1090,69.0,60,60,0.0,0.0
1091,52.0,0,120,1.0,0.0
1092,67.0,60,60,0.0,0.0
1093,71.0,60,60,0.0,0.0
1094,49.0,60,120,1.0,0.0
1095,69.0,60,60,0.0,0.0
1096,67.0,0,60,0.0,0.0
1097,50.0,0,120,1.0,0.0
1098,66.0,60,60,0.0,0.0
1099,69.0,60,60,0.0,0.0
1100,64.0,60,60,0.0,0.0
1101,43.0,60,120,1.0,0.0
1102,66.0,0,60,0.0,0.0
1103,67.0,60,60,0.0,0.0
1104,64.0,60,60,0.0,0.0
1105,45.0,120,120,1.0,0.0
1106,61.0,60,60,0.0,0.0
1107,57.0,0,60,0.0,0.0
1108,62.0,0,120,0.0,0.0
1109,50.0,120,120,1.0,0.0
1110,55.0,0,120,1.0,0.0
1111,74.0,60,60,0.0,0.0
1112,73.0,60,60,0.0,0.0
1113,74.0,60,60,0.0,0.0
1114,71.0,60,60,0.0,0.0
1115,43.0,0,120,1.0,0.0
1116,74.0,60,60,0.0,0.0
1117,67.0,60,60,0.0,0.0
1118,50.0,60,120,1.0,0.0
1119,71.0,0,60,0.0,0.0
1120,62.0,60,60,0.0,0.0
1121,55.0,60,120,1.0,0.0
1122,71.0,0,60,0.0,0.0
1123,69.0,60,60,0.0,0.0
1124,48.0,60,120,1.0,0.0
1125,72.0,0,60,0.0,0.0
1126,50.0,60,120,1.0,0.0
1127,66.0,60,60,0.0,0.0
1128,69.0,0,60,0.0,0.0
1129,62.0,60,60,0.0,0.0
1130,54.0,0,120,1.0,0.0
1131,66.0,60,60,0.0,0.0
1132,47.0,0,120,1.0,0.0
1133,67.0,60,60,0.0,0.0
1134,66.0,60,60,0.0,0.0
1135,67.0,60,60,0.0,0.0
1136,50.0,0,120,1.0,0.0
1137,69.0,60,60,0.0,0.0
1138,55.0,60,120,1.0,0.0
1139,71.0,60,60,0.0,0.0
1140,73.0,0,60,0.0,0.0
1141,54.0,60,120,1.0,0.0
1142,74.0,60,60,0.0,0.0
1143,73.0,0,60,0.0,0.0
1144,57.0,60,120,1.0,0.0
1145,74.0,60,60,0.0,0.0
1146,76.0,0,60,0.0,0.0
1147,62.0,60,120,1.0,0.0
1148,74.0,60,60,0.0,0.0
1149,72.0,0,60,0.0,0.0
1150,71.0,60,60,0.0,0.0
1151,55.0,60,120,1.0,0.0
1152,70.0,0,60,0.0,0.0
1153,71.0,60,60,0.0,0.0
1154,59.0,60,120,1.0,0.0
1155,72.0,0,60,0.0,0.0
1156,71.0,60,60,0.0,0.0
1157,51.0,0,120,1.0,0.0
1158,69.0,60,60,0.0,0.0
1159,67.0,60,60,0.0,0.0
1160,52.0,60,120,1.0,0.0
1161,71.0,0,60,0.0,0.0
1162,69.0,60,60,0.0,0.0
1163,49.0,60,120,1.0,0.0
1164,67.0,0,60,0.0,0.0
1165,66.0,60,60,0.0,0.0
1166,50.0,60,120,1.0,0.0
1167,69.0,0,60,0.0,0.0
1168,43.0,0,120,1.0,0.0
1169,64.0,60,60,0.0,0.0
1170,66.0,60,60,0.0,0.0
1171,67.0,60,60,0.0,0.0
1172,64.0,60,60,0.0,0.0
1173,61.0,60,60,0.0,0.0
1174,45.0,120,120,1.0,0.0
1175,57.0,0,60,0.0,0.0
1176,62.0,0,120,0.0,0.0
1177,50.0,120,120,1.0,0.0
1178,74.0,60,60,0.0,0.0
1179,73.0,60,60,0.0,0.0
1180,74.0,60,60,0.0,0.0
1181,76.0,60,60,0.0,0.0
1182,50.0,0,120,1.0,0.0
1183,72.0,60,60,0.0,0.0
1184,69.0,60,60,0.0,0.0
1185,71.0,60,60,0.0,0.0
1186,62.0,0,60,1.0,0.0
1187,61.0,0,60,1.0,0.0
1188,69.0,60,60,0.0,0.0
1189,62.0,60,60,1.0,0.0
1190,71.0,0,60,0.0,0.0
1191,72.0,60,60,0.0,0.0
1192,64.0,0,60,1.0,0.0
1193,69.0,0,60,0.0,0.0
1194,60.0,60,60,1.0,0.0
1195,57.0,0,60,1.0,0.0
1196,66.0,60,60,0.0,0.0
1197,59.0,0,60,1.0,0.0
1198,74.0,60,60,0.0,0.0
1199,58.0,60,60,1.0,0.0
1200,73.0,0,60,0.0,0.0
1201,59.0,60,60,1.0,0.0
1202,74.0,0,60,0.0,0.0
1203,76.0,0,60,0.0,0.0
1204,60.0,60,60,1.0,0.0
1205,72.0,0,60,0.0,0.0
1206,57.0,60,60,1.0,0.0
1207,69.0,0,60,0.0,0.0
1208,54.0,60,60,1.0,0.0
1209,71.0,60,60,0.0,0.0
1210,55.0,0,60,1.0,0.0
1211,69.0,60,60,0.0,0.0
1212,54.0,0,60,1.0,0.0
1213,55.0,0,60,1.0,0.0
1214,71.0,60,60,0.0,0.0
1215,57.0,0,60,1.0,0.0
1216,72.0,60,60,0.0,0.0
1217,69.0,0,60,0.0,0.0
1218,54.0,60,60,1.0,0.0
1219,66.0,0,60,0.0,0.0
1220,50.0,60,60,1.0,0.0
1221,74.0,0,60,0.0,0.0
1222,50.0,60,60,1.0,0.0
1223,73.0,0,60,0.0,0.0
1224,52.0,60,60,1.0,0.0
1225,74.0,0,60,0.0,0.0
1226,54.0,60,60,1.0,0.0
1227,71.0,60,60,0.0,0.0
1228,55.0,0,120,1.0,0.0
1229,74.0,60,60,0.0,0.0
1230,59.0,0,120,1.0,0.0
1231,67.0,60,60,0.0,0.0
1232,71.0,60,60,0.0,0.0
1233,47.0,60,120,1.0,0.0
1234,62.0,60,60,0.0,0.0
1235,79.0,0,60,0.0,0.0
1236,76.0,60,60,0.0,0.0
1237,48.0,0,120,1.0,0.0
1238,79.0,60,60,0.0,0.0
1239,52.0,60,120,1.0,0.0
1240,72.0,60,60,0.0,0.0
1241,76.0,0,60,0.0,0.0
1242,69.0,60,60,0.0,0.0
1243,57.0,0,120,1.0,0.0
1244,72.0,0,60,0.0,0.0
1245,50.0,0,360,1.0,0.0
1246,66.0,60,60,0.0,0.0
1247,54.0,0,120,1.0,0.0
1248,69.0,60,60,0.0,0.0
1249,62.0,60,60,0.0,0.0
1250,57.0,60,120,1.0,0.0
1251,64.0,0,60,0.0,0.0
1252,65.0,60,60,0.0,0.0
1253,60.0,0,120,1.0,0.0
1254,66.0,120,60,0.0,0.0
1255,55.0,0,180,1.0,0.0
1256,60.0,60,120,1.0,0.0
1257,69.0,0,120,0.0,0.0
1258,59.0,0,60,1.0,0.0
1259,67.0,60,60,0.0,0.0
1260,74.0,60,60,0.0,0.0
1261,73.0,60,60,0.0,0.0
1262,74.0,60,60,0.0,0.0
1263,50.0,60,120,1.0,0.0
1264,76.0,60,60,0.0,0.0
1265,72.0,0,60,0.0,0.0
1266,69.0,60,60,0.0,0.0
1267,71.0,60,60,0.0,0.0
1268,62.0,0,60,1.0,0.0
1269,61.0,60,60,1.0,0.0
1270,69.0,0,60,0.0,0.0
1271,71.0,60,60,0.0,0.0
1272,62.0,0,60,1.0,0.0
1273,64.0,0,60,1.0,0.0
1274,72.0,60,60,0.0,0.0
1275,60.0,60,60,1.0,0.0
1276,69.0,0,60,0.0,0.0
1277,66.0,0,60,0.0,0.0
1278,57.0,60,60,1.0,0.0
1279,74.0,0,60,0.0,0.0
1280,59.0,60,60,1.0,0.0
1281,58.0,60,60,1.0,0.0
1282,73.0,0,60,0.0,0.0
1283,74.0,0,60,0.0,0.0
1284,59.0,60,60,1.0,0.0
1285,76.0,0,60,0.0,0.0
1286,60.0,60,60,1.0,0.0
1287,72.0,0,60,0.0,0.0
1288,57.0,60,60,1.0,0.0
1289,54.0,60,60,1.0,0.0
1290,69.0,0,60,0.0,0.0
1291,71.0,0,60,0.0,0.0
1292,55.0,60,60,1.0,0.0
1293,69.0,60,60,0.0,0.0
1294,54.0,0,60,1.0,0.0
1295,71.0,60,60,0.0,0.0
1296,55.0,0,60,1.0,0.0
1297,57.0,60,60,1.0,0.0
1298,72.0,0,60,0.0,0.0
1299,69.0,0,60,0.0,0.0
1300,54.0,60,60,1.0,0.0
1301,66.0,60,60,0.0,0.0
1302,50.0,0,0,1.0,0.0
1303,74.0,60,60,0.0,0.0
1304,73.0,0,60,0.0,0.0
1305,52.0,60,60,1.0,0.0
1306,74.0,0,60,0.0,0.0
1307,54.0,60,60,1.0,0.0
1308,71.0,60,60,0.0,0.0
1309,55.0,0,120,1.0,0.0
1310,74.0,60,60,0.0,0.0
1311,67.0,60,60,0.0,0.0
1312,59.0,60,120,1.0,0.0
1313,71.0,0,60,0.0,0.0
1314,62.0,60,60,0.0,0.0
1315,47.0,60,120,1.0,0.0
1316,79.0,0,60,0.0,0.0
1317,76.0,60,60,0.0,0.0
1318,48.0,60,120,1.0,0.0
1319,79.0,0,60,0.0,0.0
1320,72.0,60,60,0.0,0.0
1321,52.0,60,120,1.0,0.0
1322,76.0,0,60,0.0,0.0
1323,69.0,60,60,0.0,0.0
1324,57.0,0,120,1.0,0.0
1325,72.0,0,60,0.0,0.0
1326,66.0,60,60,0.0,0.0
1327,50.0,0,360,1.0,0.0
1328,54.0,0,120,1.0,0.0
1329,69.0,60,60,0.0,0.0
1330,62.0,60,60,0.0,0.0
1331,57.0,0,120,1.0,0.0
1332,64.0,60,60,0.0,0.0
1333,65.0,60,60,0.0,0.0
1334,66.0,120,60,0.0,0.0
1335,60.0,0,0,1.0,0.0
1336,55.0,0,180,1.0,0.0
1337,69.0,0,120,0.0,0.0
1338,67.0,0,60,0.0,0.0
1339,59.0,150,60,1.0,0.0
1340,67.0,30,90,0.0,0.0
1341,71.0,0,90,0.0,0.0
1342,69.0,0,30,0.0,0.0
1343,72.0,90,30,0.0,0.0
1344,71.0,0,90,0.0,0.0
1345,74.0,30,90,0.0,0.0
1346,59.0,0,120,0.0,0.0
1347,43.0,0,120,1.0,0.0
1348,73.0,0,30,0.0,0.0
1349,70.0,0,30,0.0,0.0
1350,47.0,90,120,1.0,0.0
1351,62.0,90,0,0.0,0.0
1352,71.0,0,90,0.0,0.0
1353,74.0,30,90,0.0,0.0
1354,70.0,0,30,0.0,0.0
1355,73.0,0,30,0.0,0.0
1356,71.0,0,90,0.0,0.0
1357,59.0,0,0,0.0,0.0
1358,62.0,0,120,0.0,0.0
1359,74.0,30,90,0.0,0.0
1360,50.0,120,120,1.0,0.0
1361,73.0,0,30,0.0,0.0
1362,70.0,0,30,0.0,0.0
1363,71.0,0,240,0.0,0.0
1364,74.0,90,240,0.0,0.0
1365,55.0,120,120,1.0,0.0
1366,43.0,0,120,1.0,0.0
1367,72.0,0,90,0.0,0.0
1368,76.0,30,90,0.0,0.0
1369,71.0,120,30,0.0,0.0
1370,68.0,0,30,0.0,0.0
1371,72.0,90,240,0.0,0.0
1372,69.0,0,240,0.0,0.0
1373,50.0,120,120,1.0,0.0
1374,38.0,0,120,1.0,0.0
1375,71.0,0,90,0.0,0.0
1376,74.0,30,90,0.0,0.0
1377,69.0,120,30,0.0,0.0
1378,66.0,0,30,0.0,0.0
1379,71.0,120,120,0.0,0.0
1380,67.0,0,120,0.0,0.0
1381,43.0,0,120,1.0,0.0
1382,31.0,90,120,1.0,0.0
1383,59.0,0,90,0.0,0.0
1384,67.0,30,90,0.0,0.0
1385,62.0,90,30,0.0,0.0
1386,69.0,0,30,0.0,0.0
1387,67.0,0,90,0.0,0.0
1388,43.0,90,120,1.0,0.0
1389,71.0,30,90,0.0,0.0
1390,66.0,0,30,0.0,0.0
1391,69.0,0,30,0.0,0.0
1392,47.0,0,120,1.0,0.0
1393,71.0,30,90,0.0,0.0
1394,67.0,0,90,0.0,0.0
1395,66.0,90,30,0.0,0.0
1396,69.0,0,30,0.0,0.0
1397,71.0,0,90,0.0,0.0
1398,51.0,0,120,1.0,0.0
1399,67.0,30,90,0.0,0.0
1400,69.0,120,30,0.0,0.0
1401,66.0,0,30,0.0,0.0
1402,67.0,0,240,0.0,0.0
1403,71.0,0,240,0.0,0.0
1404,52.0,120,120,1.0,0.0
1405,54.0,60,120,1.0,0.0
1406,69.0,60,60,0.0,0.0
1407,66.0,0,60,0.0,0.0
1408,55.0,60,120,1.0,0.0
1409,64.0,0,60,0.0,0.0
1410,67.0,0,0,0.0,0.0
1411,45.0,60,120,1.0,0.0
1412,64.0,0,60,0.0,0.0
1413,62.0,0,60,0.0,0.0
1414,66.0,0,60,0.0,0.0
1415,62.0,60,60,0.0,0.0
1416,66.0,0,60,0.0,0.0
1417,69.0,0,60,0.0,0.0
1418,66.0,60,60,0.0,0.0
1419,45.0,0,120,1.0,0.0
1420,67.0,60,60,0.0,0.0
1421,64.0,0,60,0.0,0.0
1422,61.0,120,60,0.0,0.0
1423,64.0,0,60,0.0,0.0
1424,50.0,0,120,1.0,0.0
1425,62.0,120,120,0.0,0.0
1426,62.0,90,120,1.0,0.0
1427,67.0,0,90,0.0,0.0
1428,71.0,30,90,0.0,0.0
1429,69.0,0,30,0.0,0.0
1430,72.0,90,30,0.0,0.0
1431,43.0,0,120,1.0,0.0
1432,71.0,0,90,0.0,0.0
1433,59.0,0,120,0.0,0.0
1434,74.0,30,90,0.0,0.0
1435,73.0,0,30,0.0,0.0
1436,70.0,0,30,0.0,0.0
1437,74.0,0,90,0.0,0.0
1438,59.0,0,120,0.0,0.0
1439,62.0,90,0,0.0,0.0
1440,47.0,90,120,1.0,0.0
1441,71.0,30,90,0.0,0.0
1442,70.0,0,30,0.0,0.0
1443,73.0,0,30,0.0,0.0
1444,74.0,30,90,0.0,0.0
1445,71.0,0,90,0.0,0.0
1446,62.0,0,120,0.0,0.0
1447,50.0,0,120,1.0,0.0
1448,59.0,0,120,0.0,0.0
1449,70.0,120,30,0.0,0.0
1450,73.0,0,30,0.0,0.0
1451,55.0,120,120,1.0,0.0
1452,71.0,0,240,0.0,0.0
1453,74.0,0,240,0.0,0.0
1454,43.0,90,120,1.0,0.0
1455,76.0,0,90,0.0,0.0
1456,72.0,30,90,0.0,0.0
1457,68.0,120,30,0.0,0.0
1458,71.0,0,30,0.0,0.0
1459,50.0,120,120,1.0,0.0
1460,72.0,90,240,0.0,0.0
1461,69.0,0,240,0.0,0.0
1462,38.0,0,120,1.0,0.0
1463,74.0,0,90,0.0,0.0
1464,71.0,30,90,0.0,0.0
1465,69.0,120,30,0.0,0.0
1466,66.0,0,30,0.0,0.0
1467,71.0,0,120,0.0,0.0
1468,67.0,0,120,0.0,0.0
1469,43.0,120,120,1.0,0.0
1470,31.0,90,120,1.0,0.0
1471,67.0,0,90,0.0,0.0
1472,59.0,30,90,0.0,0.0
1473,69.0,90,30,0.0,0.0
1474,62.0,0,30,0.0,0.0
1475,43.0,90,120,1.0,0.0
1476,67.0,30,90,0.0,0.0
1477,71.0,0,90,0.0,0.0
1478,66.0,0,30,0.0,0.0
1479,69.0,0,30,0.0,0.0
1480,71.0,30,90,0.0,0.0
1481,67.0,0,90,0.0,0.0
1482,47.0,0,120,1.0,0.0
1483,66.0,0,30,0.0,0.0
1484,69.0,90,30,0.0,0.0
1485,51.0,0,120,1.0,0.0
1486,67.0,30,90,0.0,0.0
1487,71.0,0,90,0.0,0.0
1488,66.0,0,30,0.0,0.0
1489,69.0,120,30,0.0,0.0
1490,52.0,120,120,1.0,0.0
1491,67.0,0,240,0.0,0.0
1492,71.0,60,240,0.0,0.0
1493,54.0,0,120,1.0,0.0
1494,69.0,0,60,0.0,0.0
1495,55.0,60,120,1.0,0.0
1496,66.0,60,60,0.0,0.0
1497,64.0,0,60,0.0,0.0
1498,67.0,0,0,0.0,0.0
1499,64.0,0,60,0.0,0.0
1500,45.0,60,120,1.0,0.0
1501,66.0,0,60,0.0,0.0
1502,62.0,0,0,0.0,0.0
1503,66.0,0,60,0.0,0.0
1504,69.0,0,60,0.0,0.0
1505,66.0,60,60,0.0,0.0
1506,67.0,60,60,0.0,0.0
1507,45.0,0,120,1.0,0.0
1508,64.0,0,0,0.0,0.0
1509,61.0,120,60,0.0,0.0
1510,50.0,0,120,1.0,0.0
1511,62.0,120,120,0.0,0.0
1512,62.0,810,120,1.0,0.0
1513,70.0,30,90,0.0,0.0
1514,75.0,90,30,0.0,0.0
1515,63.0,0,240,0.0,0.0
1516,75.0,0,240,0.0,0.0
1517,51.0,0,0,1.0,0.0
1518,55.0,30,0,1.0,0.0
1519,51.0,120,0,1.0,0.0
1520,55.0,0,120,1.0,0.0
1521,70.0,30,90,0.0,0.0
1522,79.0,90,30,0.0,0.0
1523,67.0,0,240,0.0,0.0
1524,79.0,90,240,0.0,0.0
1525,55.0,30,0,1.0,0.0
1526,51.0,0,0,1.0,0.0
1527,55.0,0,120,1.0,0.0
1528,51.0,120,0,1.0,0.0
1529,70.0,30,90,0.0,0.0
1530,82.0,90,0,0.0,0.0
1531,70.0,0,240,0.0,0.0
1532,55.0,0,90,1.0,0.0
1533,51.0,30,0,1.0,0.0
1534,55.0,90,30,1.0,0.0
1535,55.0,0,90,1.0,0.0
1536,51.0,30,0,1.0,0.0
1537,80.0,30,30,0.0,0.0
1538,51.0,0,0,1.0,0.0
1539,55.0,0,0,1.0,0.0
1540,79.0,30,30,0.0,0.0
1541,77.0,0,30,0.0,0.0
1542,55.0,30,0,1.0,0.0
1543,51.0,0,0,1.0,0.0
1544,53.0,150,180,1.0,0.0
1545,56.0,0,180,1.0,0.0
1546,75.0,0,0,0.0,0.0
1547,74.0,0,60,0.0,0.0
1548,70.0,30,90,0.0,0.0
1549,80.0,120,30,0.0,0.0
1550,34.0,0,120,1.0,0.0
1551,80.0,60,180,0.0,0.0
1552,46.0,60,0,1.0,0.0
1553,58.0,0,120,1.0,0.0
1554,77.0,60,60,0.0,0.0
1555,74.0,60,60,0.0,0.0
1556,70.0,60,60,0.0,0.0
1557,68.0,60,60,0.0,0.0
1558,65.0,60,60,0.0,0.0
1559,62.0,60,60,0.0,0.0
1560,58.0,60,60,0.0,0.0
1561,46.0,0,60,1.0,0.0
1562,63.0,0,60,0.0,0.0
1563,51.0,60,60,1.0,0.0
1564,67.0,0,60,0.0,0.0
1565,55.0,90,60,1.0,0.0
1566,70.0,30,90,0.0,0.0
1567,58.0,0,120,1.0,0.0
1568,67.0,0,90,0.0,0.0
1569,68.0,0,30,0.0,0.0
1570,65.0,120,30,0.0,0.0
1571,67.0,120,120,0.0,0.0
1572,63.0,0,120,0.0,0.0
1573,46.0,0,120,1.0,0.0
1574,65.0,120,120,0.0,0.0
1575,62.0,0,120,0.0,0.0
1576,56.0,0,120,0.0,0.0
1577,51.0,120,120,1.0,0.0
1578,55.0,0,120,0.0,0.0
1579,63.0,0,120,0.0,0.0
1580,39.0,90,120,1.0,0.0
1581,70.0,30,90,0.0,0.0
1582,75.0,90,0,0.0,0.0
1583,63.0,0,240,0.0,0.0
1584,51.0,30,0,1.0,0.0
1585,55.0,0,0,1.0,0.0
1586,55.0,0,120,1.0,0.0
1587,51.0,90,120,1.0,0.0
1588,70.0,30,90,0.0,0.0
1589,79.0,90,0,0.0,0.0
1590,67.0,0,240,0.0,0.0
1591,51.0,30,90,1.0,0.0
1592,55.0,0,90,1.0,0.0
1593,51.0,0,30,1.0,0.0
1594,55.0,120,0,1.0,0.0
1595,51.0,90,120,1.0,0.0
1596,70.0,30,90,0.0,0.0
1597,82.0,90,30,0.0,0.0
1598,70.0,0,240,0.0,0.0
1599,55.0,30,90,1.0,0.0
1600,51.0,0,90,1.0,0.0
1601,82.0,0,240,0.0,0.0
1602,51.0,90,0,1.0,0.0
1603,55.0,0,0,1.0,0.0
1604,51.0,30,0,1.0,0.0
1605,80.0,30,30,0.0,0.0
1606,55.0,0,0,1.0,0.0
1607,79.0,30,30,0.0,0.0
1608,77.0,0,30,0.0,0.0
1609,55.0,30,0,1.0,0.0
1610,75.0,0,30,0.0,0.0
1611,51.0,0,0,1.0,0.0
1612,75.0,60,120,0.0,0.0
1613,53.0,150,180,1.0,0.0
1614,56.0,0,180,1.0,0.0
1615,74.0,0,60,0.0,0.0
1616,70.0,30,90,0.0,0.0
1617,80.0,120,30,0.0,0.0
1618,34.0,60,120,1.0,0.0
1619,80.0,60,180,0.0,0.0
1620,46.0,0,0,1.0,0.0
1621,58.0,60,120,1.0,0.0
1622,77.0,0,60,0.0,0.0
1623,74.0,60,60,0.0,0.0
1624,70.0,60,60,0.0,0.0
1625,68.0,60,60,0.0,0.0
1626,65.0,60,60,0.0,0.0
1627,62.0,60,60,0.0,0.0
1628,46.0,60,60,1.0,0.0
1629,58.0,0,60,0.0,0.0
1630,63.0,0,60,0.0,0.0
1631,51.0,60,60,1.0,0.0
1632,55.0,90,60,1.0,0.0
1633,67.0,0,0,0.0,0.0
1634,70.0,0,90,0.0,0.0
1635,58.0,0,120,1.0,0.0
1636,65.0,120,30,0.0,0.0
1637,68.0,0,30,0.0,0.0
1638,63.0,120,120,0.0,0.0
1639,67.0,0,120,0.0,0.0
1640,46.0,0,120,1.0,0.0
1641,62.0,0,120,0.0,0.0
1642,65.0,0,120,0.0,0.0
1643,56.0,120,120,0.0,0.0
1644,51.0,120,120,1.0,0.0
1645,63.0,0,120,0.0,0.0
1646,55.0,0,120,0.0,0.0
1647,39.0,90,120,1.0,0.0
1648,63.0,30,90,0.0,0.0
1649,63.0,60,120,0.0,0.0
1650,75.0,60,0,0.0,0.0
1651,48.0,60,60,1.0,0.0
1652,51.0,0,60,1.0,0.0
1653,74.0,0,120,0.0,0.0
1654,46.0,60,60,1.0,0.0
1655,63.0,0,120,0.0,0.0
1656,51.0,60,60,1.0,0.0
1657,72.0,60,120,0.0,0.0
1658,44.0,60,60,1.0,0.0
1659,51.0,0,60,1.0,0.0
1660,70.0,60,120,0.0,0.0
1661,63.0,0,0,0.0,0.0
1662,43.0,60,60,1.0,0.0
1663,51.0,0,60,1.0,0.0
1664,51.0,60,60,1.0,0.0
1665,51.0,60,0,1.0,0.0
1666,63.0,30,90,0.0,0.0
1667,51.0,30,0,1.0,0.0
1668,75.0,0,30,0.0,0.0
1669,75.0,60,120,0.0,0.0
1670,63.0,0,120,0.0,0.0
1671,48.0,60,60,1.0,0.0
1672,51.0,0,60,1.0,0.0
1673,46.0,60,60,1.0,0.0
1674,63.0,0,120,0.0,0.0
1675,74.0,0,120,0.0,0.0
1676,51.0,60,60,1.0,0.0
1677,44.0,60,60,1.0,0.0
1678,72.0,0,120,0.0,0.0
1679,51.0,0,60,1.0,0.0
1680,43.0,60,60,1.0,0.0
1681,70.0,0,120,0.0,0.0
1682,63.0,60,0,0.0,0.0
1683,58.0,60,60,1.0,0.0
1684,56.0,60,60,1.0,0.0
1685,55.0,60,60,1.0,0.0
1686,53.0,30,60,1.0,0.0
1687,70.0,30,90,0.0,0.0
1688,51.0,120,60,1.0,0.0
1689,80.0,0,30,0.0,0.0
1690,58.0,0,120,1.0,0.0
1691,56.0,0,120,1.0,0.0
1692,53.0,60,120,1.0,0.0
1693,68.0,0,180,0.0,0.0
1694,80.0,60,180,0.0,0.0
1695,50.0,0,120,1.0,0.0
1696,58.0,0,120,1.0,0.0
1697,56.0,0,120,1.0,0.0
1698,50.0,0,120,1.0,0.0
1699,53.0,60,120,1.0,0.0
1700,77.0,0,60,0.0,0.0
1701,74.0,60,60,0.0,0.0
1702,70.0,60,60,0.0,0.0
1703,68.0,60,60,0.0,0.0
1704,65.0,60,60,0.0,0.0
1705,62.0,60,60,0.0,0.0
1706,58.0,60,60,0.0,0.0
1707,56.0,0,60,1.0,0.0
1708,63.0,60,60,0.0,0.0
1709,55.0,0,60,1.0,0.0
1710,51.0,90,60,1.0,0.0
1711,67.0,0,0,0.0,0.0
1712,70.0,30,90,0.0,0.0
1713,58.0,0,120,1.0,0.0
1714,68.0,120,30,0.0,0.0
1715,65.0,0,30,0.0,0.0
1716,67.0,120,120,0.0,0.0
1717,63.0,0,120,0.0,0.0
1718,62.0,0,120,0.0,0.0
1719,56.0,120,120,0.0,0.0
1720,65.0,0,120,0.0,0.0
1721,46.0,0,120,1.0,0.0
1722,51.0,120,120,1.0,0.0
1723,63.0,0,120,0.0,0.0
1724,55.0,0,120,0.0,0.0
1725,39.0,90,120,1.0,0.0
1726,63.0,30,90,0.0,0.0
1727,75.0,60,30,0.0,0.0
1728,48.0,60,60,1.0,0.0
1729,75.0,60,120,0.0,0.0
1730,51.0,0,60,1.0,0.0
1731,46.0,60,60,1.0,0.0
1732,63.0,0,0,0.0,0.0
1733,74.0,60,120,0.0,0.0
1734,51.0,0,60,1.0,0.0
1735,63.0,0,120,0.0,0.0
1736,44.0,60,60,1.0,0.0
1737,72.0,0,120,0.0,0.0
1738,51.0,60,60,1.0,0.0
1739,70.0,0,120,0.0,0.0
1740,63.0,0,120,0.0,0.0
1741,43.0,60,60,1.0,0.0
1742,51.0,60,60,1.0,0.0
1743,51.0,60,60,1.0,0.0
1744,51.0,60,60,1.0,0.0
1745,51.0,30,60,1.0,0.0
1746,63.0,30,90,0.0,0.0
1747,51.0,0,60,1.0,0.0
1748,48.0,60,60,1.0,0.0
1749,63.0,0,120,0.0,0.0
1750,75.0,60,0,0.0,0.0
1751,51.0,0,60,1.0,0.0
1752,46.0,60,60,1.0,0.0
1753,74.0,0,120,0.0,0.0
1754,63.0,60,120,0.0,0.0
1755,51.0,0,60,1.0,0.0
1756,44.0,60,60,1.0,0.0
1757,72.0,0,120,0.0,0.0
1758,63.0,60,120,0.0,0.0
1759,51.0,0,60,1.0,0.0
1760,43.0,60,60,1.0,0.0
1761,70.0,0,120,0.0,0.0
1762,63.0,60,120,0.0,0.0
1763,58.0,0,60,1.0,0.0
1764,56.0,60,60,1.0,0.0
1765,55.0,60,60,1.0,0.0
1766,70.0,30,90,0.0,0.0
1767,53.0,30,60,1.0,0.0
1768,51.0,120,60,1.0,0.0
1769,80.0,0,30,0.0,0.0
1770,56.0,0,120,1.0,0.0
1771,68.0,60,180,0.0,0.0
1772,80.0,0,180,0.0,0.0
1773,50.0,0,120,1.0,0.0
1774,53.0,0,120,1.0,0.0
1775,53.0,60,120,1.0,0.0
1776,50.0,0,120,1.0,0.0
1777,58.0,60,0,1.0,0.0
1778,56.0,0,120,1.0,0.0
1779,77.0,0,60,0.0,0.0
1780,74.0,60,60,0.0,0.0
1781,70.0,60,60,0.0,0.0
1782,68.0,60,60,0.0,0.0
1783,65.0,60,60,0.0,0.0
1784,62.0,60,60,0.0,0.0
1785,58.0,0,60,0.0,0.0
1786,56.0,60,60,1.0,0.0
1787,63.0,0,60,0.0,0.0
1788,55.0,60,60,1.0,0.0
1789,51.0,0,60,1.0,0.0
1790,58.0,0,120,1.0,0.0
1791,67.0,90,0,0.0,0.0
1792,70.0,30,90,0.0,0.0
1793,68.0,120,30,0.0,0.0
1794,65.0,0,30,0.0,0.0
1795,67.0,120,120,0.0,0.0
1796,63.0,0,120,0.0,0.0
1797,56.0,120,120,0.0,0.0
1798,62.0,0,120,0.0,0.0
1799,65.0,0,120,0.0,0.0
1800,46.0,0,120,1.0,0.0
1801,63.0,0,120,0.0,0.0
1802,51.0,0,120,1.0,0.0
1803,55.0,120,120,0.0,0.0
1804,39.0,120,120,1.0,0.0
1805,58.0,60,120,0.0,0.0
1806,63.0,60,360,0.0,0.0
1807,55.0,60,60,1.0,0.0
1808,51.0,0,120,1.0,0.0
1809,58.0,60,60,1.0,0.0
1810,50.0,60,120,1.0,0.0
1811,55.0,60,60,1.0,0.0
1812,58.0,0,60,1.0,0.0
1813,55.0,60,60,1.0,0.0
1814,48.0,0,120,1.0,0.0
1815,58.0,0,60,1.0,0.0
1816,56.0,55,60,1.0,0.0
1817,46.0,0,360,1.0,0.0
1818,58.0,60,60,1.0,0.0
1819,67.0,5,15,0.0,0.0
1820,56.0,60,60,1.0,0.0
1821,65.0,0,0,0.0,0.0
1822,63.0,60,60,0.0,0.0
1823,58.0,0,60,1.0,0.0
1824,56.0,60,60,1.0,0.0
1825,65.0,0,60,0.0,0.0
1826,67.0,0,60,0.0,0.0
1827,58.0,60,60,1.0,0.0
1828,63.0,60,240,0.0,0.0
1829,55.0,60,60,1.0,0.0
1830,51.0,60,120,1.0,0.0
1831,58.0,0,60,1.0,0.0
1832,55.0,60,60,1.0,0.0
1833,50.0,0,120,1.0,0.0
1834,58.0,0,60,1.0,0.0
1835,48.0,60,120,1.0,0.0
1836,55.0,30,60,1.0,0.0
1837,65.0,30,90,0.0,0.0
1838,58.0,0,60,1.0,0.0
1839,67.0,0,30,0.0,0.0
1840,50.0,55,60,1.0,0.0
1841,46.0,0,360,1.0,0.0
1842,58.0,0,60,1.0,0.0
1843,70.0,5,15,0.0,0.0
1844,68.0,60,0,0.0,0.0
1845,50.0,0,60,1.0,0.0
1846,58.0,0,60,1.0,0.0
1847,67.0,60,60,0.0,0.0
1848,68.0,0,60,0.0,0.0
1849,50.0,60,60,1.0,0.0
1850,58.0,60,60,1.0,0.0
1851,70.0,0,60,0.0,0.0
1852,67.0,0,120,0.0,0.0
1853,51.0,60,60,1.0,0.0
1854,63.0,60,60,1.0,0.0
1855,50.0,60,60,1.0,0.0
1856,79.0,0,120,0.0,0.0
1857,62.0,60,60,1.0,0.0
1858,48.0,60,60,1.0,0.0
1859,60.0,60,60,1.0,0.0
1860,79.0,0,0,0.0,0.0
1861,47.0,60,60,1.0,0.0
1862,59.0,60,60,1.0,0.0
1863,47.0,0,60,1.0,0.0
1864,59.0,60,60,1.0,0.0
1865,77.0,0,60,0.0,0.0
1866,76.0,0,60,0.0,0.0
1867,48.0,60,60,1.0,0.0
1868,75.0,60,60,0.0,0.0
1869,60.0,0,60,1.0,0.0
1870,74.0,0,60,0.0,0.0
1871,53.0,60,60,1.0,0.0
1872,75.0,60,60,0.0,0.0
1873,58.0,0,60,1.0,0.0
1874,72.0,60,60,0.0,0.0
1875,53.0,0,60,1.0,0.0
1876,74.0,0,60,0.0,0.0
1877,58.0,60,60,1.0,0.0
1878,75.0,60,60,0.0,0.0
1879,53.0,0,60,1.0,0.0
1880,57.0,0,60,1.0,0.0
1881,77.0,60,60,0.0,0.0
1882,46.0,60,60,1.0,0.0
1883,70.0,0,120,0.0,0.0
1884,58.0,60,60,1.0,0.0
1885,57.0,60,60,1.0,0.0
1886,58.0,60,60,1.0,0.0
1887,56.0,60,60,1.0,0.0
1888,58.0,60,60,1.0,0.0
1889,51.0,0,120,1.0,0.0
1890,55.0,60,60,1.0,0.0
1891,63.0,60,360,0.0,0.0
1892,58.0,60,60,1.0,0.0
1893,50.0,60,120,1.0,0.0
1894,55.0,60,60,1.0,0.0
1895,58.0,0,60,1.0,0.0
1896,55.0,60,60,1.0,0.0
1897,48.0,0,120,1.0,0.0
1898,58.0,0,60,1.0,0.0
1899,56.0,55,60,1.0,0.0
1900,46.0,60,360,1.0,0.0
1901,58.0,60,60,1.0,0.0
1902,67.0,5,15,0.0,0.0
1903,65.0,0,0,0.0,0.0
1904,56.0,0,60,1.0,0.0
1905,58.0,60,60,1.0,0.0
1906,63.0,0,60,0.0,0.0
1907,65.0,60,60,0.0,0.0
1908,56.0,0,60,1.0,0.0
1909,58.0,0,60,1.0,0.0
1910,67.0,0,60,0.0,0.0
1911,55.0,60,60,1.0,0.0
1912,63.0,0,240,0.0,0.0
1913,51.0,0,120,1.0,0.0
1914,58.0,60,60,1.0,0.0
1915,50.0,0,120,1.0,0.0
1916,55.0,60,60,1.0,0.0
1917,58.0,60,60,1.0,0.0
1918,65.0,30,90,0.0,0.0
1919,48.0,0,120,1.0,0.0
1920,55.0,30,60,1.0,0.0
1921,58.0,0,60,1.0,0.0
1922,67.0,60,30,0.0,0.0
1923,50.0,55,60,1.0,0.0
1924,46.0,0,360,1.0,0.0
1925,58.0,60,60,1.0,0.0
1926,70.0,5,15,0.0,0.0
1927,50.0,60,60,1.0,0.0
1928,68.0,0,0,0.0,0.0
1929,67.0,0,60,0.0,0.0
1930,58.0,60,60,1.0,0.0
1931,68.0,0,60,0.0,0.0
1932,50.0,60,60,1.0,0.0
1933,70.0,60,60,0.0,0.0
1934,58.0,0,60,1.0,0.0
1935,51.0,60,60,1.0,0.0
1936,67.0,0,120,0.0,0.0
1937,63.0,60,60,1.0,0.0
1938,79.0,0,120,0.0,0.0
1939,50.0,60,60,1.0,0.0
1940,62.0,60,60,1.0,0.0
1941,48.0,60,60,1.0,0.0
1942,60.0,0,60,1.0,0.0
1943,79.0,60,0,0.0,0.0
1944,47.0,60,60,1.0,0.0
1945,59.0,60,60,1.0,0.0
1946,47.0,60,60,1.0,0.0
1947,77.0,0,60,0.0,0.0
1948,59.0,60,60,1.0,0.0
1949,48.0,0,60,1.0,0.0
1950,76.0,60,60,0.0,0.0
1951,60.0,60,60,1.0,0.0
1952,75.0,0,60,0.0,0.0
1953,74.0,60,60,0.0,0.0
1954,53.0,0,60,1.0,0.0
1955,58.0,0,60,1.0,0.0
1956,75.0,60,60,0.0,0.0
1957,72.0,0,60,0.0,0.0
1958,53.0,60,60,1.0,0.0
1959,74.0,60,60,0.0,0.0
1960,58.0,0,60,1.0,0.0
1961,75.0,60,60,0.0,0.0
1962,53.0,0,60,1.0,0.0
1963,57.0,0,60,1.0,0.0
1964,77.0,60,60,0.0,0.0
1965,70.0,0,120,0.0,0.0
1966,46.0,60,60,1.0,0.0
1967,58.0,60,60,1.0,0.0
1968,57.0,60,60,1.0,0.0
1969,58.0,60,60,1.0,0.0
1970,56.0,60,60,1.0,0.0
1971,58.0,60,60,1.0,0.0
1972,70.0,0,120,0.0,0.0
1973,46.0,60,60,1.0,0.0
1974,58.0,60,0,1.0,0.0
1975,58.0,60,0,1.0,0.0
1976,58.0,60,0,1.0,0.0
1977,70.0,0,60,0.0,0.0
1978,58.0,60,0,1.0,0.0
1979,69.0,60,60,0.0,0.0
1980,57.0,0,60,1.0,0.0
1981,70.0,60,60,0.0,0.0
1982,58.0,0,60,1.0,0.0
1983,57.0,60,60,1.0,0.0
1984,69.0,0,60,0.0,0.0
1985,70.0,0,60,0.0,0.0
1986,58.0,60,60,1.0,0.0
1987,77.0,0,60,0.0,0.0
1988,51.0,60,60,1.0,0.0
1989,58.0,0,60,1.0,0.0
1990,75.0,60,0,0.0,0.0
1991,53.0,60,60,1.0,0.0
1992,58.0,0,0,1.0,0.0
1993,74.0,60,120,0.0,0.0
1994,58.0,60,0,1.0,0.0
1995,58.0,60,60,1.0,0.0
1996,70.0,0,60,0.0,0.0
1997,58.0,60,60,1.0,0.0
1998,69.0,0,60,0.0,0.0
1999,55.0,60,60,1.0,0.0
2000,58.0,0,60,1.0,0.0
2001,70.0,60,60,0.0,0.0
2002,69.0,60,60,0.0,0.0
2003,53.0,0,60,1.0,0.0
2004,58.0,0,60,1.0,0.0
2005,70.0,60,60,0.0,0.0
2006,74.0,0,60,0.0,0.0
2007,51.0,0,60,1.0,0.0
2008,78.0,60,60,0.0,0.0
2009,79.0,0,60,0.0,0.0
2010,75.0,0,60,0.0,0.0
2011,58.0,60,60,1.0,0.0
2012,75.0,60,120,0.0,0.0
2013,79.0,0,120,0.0,0.0
2014,46.0,60,60,1.0,0.0
2015,77.0,60,120,0.0,0.0
2016,74.0,0,120,0.0,0.0
2017,58.0,0,0,1.0,0.0
2018,58.0,0,60,1.0,0.0
2019,57.0,60,60,1.0,0.0
2020,58.0,0,60,1.0,0.0
2021,70.0,60,60,0.0,0.0
2022,55.0,60,60,1.0,0.0
2023,75.0,0,240,0.0,0.0
2024,51.0,0,120,1.0,0.0
2025,58.0,60,60,1.0,0.0
2026,55.0,60,60,1.0,0.0
2027,50.0,0,120,1.0,0.0
2028,58.0,30,60,1.0,0.0
2029,55.0,30,60,1.0,0.0
2030,77.0,30,30,0.0,0.0
2031,48.0,0,120,1.0,0.0
2032,75.0,0,30,0.0,0.0
2033,74.0,30,30,0.0,0.0
2034,58.0,0,60,1.0,0.0
2035,75.0,60,30,0.0,0.0
2036,56.0,60,60,1.0,0.0
2037,46.0,0,240,1.0,0.0
2038,77.0,60,180,0.0,0.0
2039,58.0,60,60,1.0,0.0
2040,56.0,0,60,1.0,0.0
2041,58.0,60,60,1.0,0.0
2042,79.0,0,60,0.0,0.0
2043,56.0,60,60,1.0,0.0
2044,53.0,60,120,1.0,0.0
2045,80.0,0,60,0.0,0.0
2046,74.0,0,60,0.0,0.0
2047,58.0,0,60,1.0,0.0
2048,75.0,0,60,0.0,0.0
2049,51.0,0,120,1.0,0.0
2050,55.0,60,60,1.0,0.0
2051,76.0,60,60,0.0,0.0
2052,58.0,0,60,1.0,0.0
2053,56.0,0,60,1.0,0.0
2054,77.0,60,60,0.0,0.0
2055,58.0,60,60,1.0,0.0
2056,79.0,0,60,0.0,0.0
2057,56.0,60,60,1.0,0.0
2058,46.0,0,0,1.0,0.0
2059,80.0,0,60,0.0,0.0
2060,74.0,0,60,0.0,0.0
2061,58.0,0,60,1.0,0.0
2062,75.0,0,120,0.0,0.0
2063,51.0,0,60,1.0,0.0
2064,55.0,60,60,1.0,0.0
2065,58.0,60,0,1.0,0.0
2066,58.0,60,60,1.0,0.0
2067,58.0,60,0,1.0,0.0
2068,69.0,60,60,0.0,0.0
2069,55.0,0,60,1.0,0.0
2070,70.0,60,60,0.0,0.0
2071,58.0,0,60,1.0,0.0
2072,53.0,60,60,1.0,0.0
2073,69.0,0,60,0.0,0.0
2074,58.0,0,60,1.0,0.0
2075,70.0,60,60,0.0,0.0
2076,74.0,0,60,0.0,0.0
2077,78.0,0,60,0.0,0.0
2078,51.0,60,60,1.0,0.0
2079,58.0,0,60,1.0,0.0
2080,46.0,60,60,1.0,0.0
2081,79.0,0,0,0.0,0.0
2082,75.0,60,0,0.0,0.0
2083,58.0,60,0,1.0,0.0
2084,74.0,60,120,0.0,0.0
2085,77.0,0,120,0.0,0.0
2086,58.0,60,0,1.0,0.0
2087,57.0,60,60,1.0,0.0
2088,70.0,0,60,0.0,0.0
2089,58.0,60,60,1.0,0.0
2090,75.0,30,240,0.0,0.0
2091,55.0,60,60,1.0,0.0
2092,51.0,60,120,1.0,0.0
2093,58.0,0,60,1.0,0.0
2094,55.0,60,60,1.0,0.0
2095,50.0,0,120,1.0,0.0
2096,58.0,0,60,1.0,0.0
2097,55.0,30,60,1.0,0.0
2098,48.0,0,120,1.0,0.0
2099,77.0,30,30,0.0,0.0
2100,75.0,0,30,0.0,0.0
2101,58.0,0,60,1.0,0.0
2102,74.0,30,30,0.0,0.0
2103,75.0,60,30,0.0,0.0
2104,56.0,60,60,1.0,0.0
2105,77.0,0,180,0.0,0.0
2106,46.0,0,240,1.0,0.0
2107,58.0,60,60,1.0,0.0
2108,56.0,60,60,1.0,0.0
2109,79.0,60,60,0.0,0.0
2110,58.0,0,60,1.0,0.0
2111,80.0,60,60,0.0,0.0
2112,53.0,0,120,1.0,0.0
2113,56.0,0,60,1.0,0.0
2114,58.0,60,60,1.0,0.0
2115,74.0,0,60,0.0,0.0
2116,55.0,60,60,1.0,0.0
2117,51.0,0,120,1.0,0.0
2118,75.0,0,60,0.0,0.0
2119,58.0,60,60,1.0,0.0
2120,76.0,0,60,0.0,0.0
2121,46.0,0,120,1.0,0.0
2122,56.0,60,60,1.0,0.0
2123,77.0,0,60,0.0,0.0
2124,79.0,0,60,0.0,0.0
2125,58.0,60,60,1.0,0.0
2126,80.0,0,60,0.0,0.0
2127,56.0,60,60,1.0,0.0
2128,46.0,0,120,1.0,0.0
2129,74.0,60,60,0.0,0.0
2130,58.0,0,60,1.0,0.0
2131,75.0,0,120,0.0,0.0
2132,51.0,60,60,1.0,0.0
2133,55.0,0,60,1.0,0.0
2134,58.0,60,60,1.0,0.0
2135,58.0,60,60,1.0,0.0
2136,58.0,60,0,1.0,0.0
2137,58.0,60,0,1.0,0.0
2138,55.0,0,120,1.0,0.0
2139,51.0,0,120,1.0,0.0
2140,75.0,840,120,0.0,0.0
2141,58.0,60,60,0.0,0.0
2142,62.0,60,60,0.0,0.0
2143,58.0,120,120,1.0,0.0
2144,46.0,0,120,1.0,0.0
2145,65.0,120,0,0.0,0.0
2146,62.0,0,360,0.0,0.0
2147,70.0,60,360,0.0,0.0
2148,53.0,120,120,1.0,0.0
2149,58.0,0,120,1.0,0.0
2150,46.0,0,120,1.0,0.0
2151,45.0,40,120,1.0,0.0
2152,57.0,0,120,1.0,0.0
2153,74.0,60,60,0.0,0.0
2154,41.0,0,120,1.0,0.0
2155,53.0,0,120,1.0,0.0
2156,72.0,0,0,0.0,0.0
2157,71.0,40,40,0.0,0.0
2158,72.0,120,40,0.0,0.0
2159,45.0,0,120,1.0,0.0
2160,57.0,0,120,1.0,0.0
2161,65.0,120,120,0.0,0.0
2162,58.0,0,120,1.0,0.0
2163,46.0,120,120,1.0,0.0
2164,70.0,0,360,0.0,0.0
2165,74.0,0,360,0.0,0.0
2166,41.0,0,120,1.0,0.0
2167,53.0,120,120,1.0,0.0
2168,46.0,0,120,1.0,0.0
2169,58.0,0,120,1.0,0.0
2170,77.0,60,60,0.0,0.0
2171,60.0,0,120,1.0,0.0
2172,65.0,60,0,0.0,0.0
2173,48.0,120,120,1.0,0.0
2174,75.0,0,60,0.0,0.0
2175,69.0,0,0,0.0,0.0
2176,72.0,0,120,0.0,0.0
2177,65.0,0,120,0.0,0.0
2178,53.0,0,120,1.0,0.0
2179,41.0,0,120,1.0,0.0
2180,69.0,0,360,0.0,0.0
2181,60.0,120,360,0.0,0.0
2182,53.0,120,120,1.0,0.0
2183,51.0,0,120,1.0,0.0
2184,50.0,0,120,1.0,0.0
2185,70.0,0,120,0.0,0.0
2186,62.0,120,120,0.0,0.0
2187,65.0,0,0,0.0,0.0
2188,48.0,0,120,1.0,0.0
2189,63.0,120,120,0.0,0.0
2190,69.0,0,120,0.0,0.0
2191,72.0,0,120,0.0,0.0
2192,74.0,0,120,0.0,0.0
2193,70.0,0,120,0.0,0.0
2194,46.0,120,120,1.0,0.0
2195,65.0,0,120,0.0,0.0
2196,67.0,0,120,0.0,0.0
2197,51.0,120,120,1.0,0.0
2198,67.0,120,120,0.0,0.0
2199,72.0,0,120,0.0,0.0
2200,48.0,0,120,1.0,0.0
2201,53.0,120,120,1.0,0.0
2202,63.0,0,0,0.0,0.0
2203,69.0,0,120,0.0,0.0
2204,62.0,0,120,0.0,0.0
2205,70.0,0,120,0.0,0.0
2206,46.0,120,120,1.0,0.0
2207,58.0,60,60,0.0,0.0
2208,62.0,60,60,0.0,0.0
2209,70.0,0,360,0.0,0.0
2210,65.0,120,0,0.0,0.0
2211,62.0,60,360,0.0,0.0
2212,58.0,0,120,1.0,0.0
2213,46.0,120,120,1.0,0.0
2214,53.0,120,120,1.0,0.0
2215,46.0,0,120,1.0,0.0
2216,58.0,0,120,1.0,0.0
2217,45.0,40,120,1.0,0.0
2218,57.0,0,120,1.0,0.0
2219,74.0,60,60,0.0,0.0
2220,72.0,0,60,0.0,0.0
2221,41.0,0,120,1.0,0.0
2222,53.0,120,120,1.0,0.0
2223,72.0,40,40,0.0,0.0
2224,71.0,40,40,0.0,0.0
2225,72.0,0,40,0.0,0.0
2226,45.0,120,120,1.0,0.0
2227,65.0,0,120,0.0,0.0
2228,57.0,0,120,1.0,0.0
2229,70.0,0,360,0.0,0.0
2230,74.0,0,360,0.0,0.0
2231,46.0,120,120,1.0,0.0
2232,58.0,0,120,1.0,0.0
2233,53.0,120,120,1.0,0.0
2234,41.0,0,120,1.0,0.0
2235,46.0,60,120,1.0,0.0
2236,58.0,0,120,1.0,0.0
2237,65.0,0,0,0.0,0.0
2238,69.0,0,120,0.0,0.0
2239,77.0,60,60,0.0,0.0
2240,60.0,120,120,1.0,0.0
2241,48.0,0,120,1.0,0.0
2242,75.0,0,60,0.0,0.0
2243,41.0,0,120,1.0,0.0
2244,72.0,0,120,0.0,0.0
2245,65.0,0,120,0.0,0.0
2246,53.0,360,120,1.0,0.0
2247,69.0,0,120,0.0,0.0
2248,69.0,120,360,0.0,0.0
2249,65.0,0,360,0.0,0.0
2250,60.0,0,360,0.0,0.0
2251,53.0,120,120,1.0,0.0
2252,51.0,0,120,1.0,0.0
2253,62.0,0,120,0.0,0.0
2254,70.0,120,120,0.0,0.0
2255,65.0,0,120,0.0,0.0
2256,50.0,0,120,1.0,0.0
2257,48.0,120,120,1.0,0.0
2258,69.0,0,120,0.0,0.0
2259,63.0,0,120,0.0,0.0
2260,72.0,0,120,0.0,0.0
2261,46.0,0,120,1.0,0.0
2262,70.0,0,120,0.0,0.0
2263,65.0,120,120,0.0,0.0
2264,74.0,0,120,0.0,0.0
2265,51.0,0,120,1.0,0.0
2266,48.0,120,120,1.0,0.0
2267,67.0,120,0,0.0,0.0
2268,72.0,0,120,0.0,0.0
2269,63.0,0,0,0.0,0.0
2270,69.0,120,120,0.0,0.0
2271,53.0,0,120,1.0,0.0
2272,70.0,120,120,0.0,0.0
2273,46.0,0,120,1.0,0.0
2274,62.0,0,120,0.0,0.0
2275,65.0,60,60,0.0,0.0
2276,69.0,60,60,0.0,0.0
2277,72.0,120,60,0.0,0.0
2278,60.0,0,120,1.0,0.0
2279,77.0,0,360,0.0,0.0
2280,53.0,0,0,1.0,0.0
2281,57.0,120,0,1.0,0.0
2282,60.0,0,0,1.0,0.0
2283,53.0,0,0,1.0,0.0
2284,57.0,120,0,1.0,0.0
2285,53.0,40,120,1.0,0.0
2286,55.0,0,120,1.0,0.0
2287,58.0,0,120,1.0,0.0
2288,77.0,60,60,0.0,0.0
2289,76.0,0,60,0.0,0.0
2290,76.0,40,40,0.0,0.0
2291,55.0,0,120,1.0,0.0
2292,58.0,0,120,1.0,0.0
2293,74.0,40,40,0.0,0.0
2294,76.0,0,40,0.0,0.0
2295,72.0,0,120,0.0,0.0
2296,53.0,120,0,1.0,0.0
2297,58.0,0,120,1.0,0.0
2298,55.0,0,120,1.0,0.0
2299,53.0,120,0,1.0,0.0
2300,60.0,0,120,1.0,0.0
2301,57.0,120,0,1.0,0.0
2302,60.0,0,120,1.0,0.0
2303,53.0,0,120,1.0,0.0
2304,57.0,0,120,1.0,0.0
2305,53.0,0,120,1.0,0.0
2306,60.0,0,0,1.0,0.0
2307,57.0,0,60,1.0,0.0
2308,53.0,0,60,1.0,0.0
2309,77.0,60,0,0.0,0.0
2310,63.0,60,60,1.0,0.0
2311,75.0,0,60,0.0,0.0
2312,63.0,60,60,1.0,0.0
2313,75.0,0,60,0.0,0.0
2314,62.0,0,60,1.0,0.0
2315,74.0,60,60,0.0,0.0
2316,63.0,60,60,1.0,0.0
2317,75.0,0,60,0.0,0.0
2318,72.0,0,60,0.0,0.0
2319,60.0,120,60,1.0,0.0
2320,70.0,0,360,0.0,0.0
2321,65.0,0,360,0.0,0.0
2322,62.0,60,360,0.0,0.0
2323,46.0,120,120,1.0,0.0
2324,58.0,0,120,1.0,0.0
2325,41.0,120,120,1.0,0.0
2326,53.0,0,120,1.0,0.0
2327,58.0,0,120,1.0,0.0
2328,46.0,0,120,1.0,0.0
2329,45.0,0,120,1.0,0.0
2330,57.0,0,120,1.0,0.0
2331,74.0,60,60,0.0,0.0
2332,63.0,40,120,0.0,0.0
2333,65.0,0,120,0.0,0.0
2334,72.0,0,0,0.0,0.0
2335,41.0,0,120,1.0,0.0
2336,53.0,120,120,1.0,0.0
2337,71.0,40,40,0.0,0.0
2338,72.0,0,40,0.0,0.0
2339,65.0,0,120,0.0,0.0
2340,45.0,60,120,1.0,0.0
2341,57.0,0,120,1.0,0.0
2342,58.0,0,120,1.0,0.0
2343,65.0,60,60,0.0,0.0
2344,46.0,60,120,1.0,0.0
2345,74.0,0,60,0.0,0.0
2346,63.0,0,60,0.0,0.0
2347,72.0,60,60,0.0,0.0
2348,39.0,0,120,1.0,0.0
2349,51.0,60,120,1.0,0.0
2350,67.0,0,60,0.0,0.0
2351,75.0,0,60,0.0,0.0
2352,60.0,60,60,0.0,0.0
2353,69.0,0,60,0.0,0.0
2354,41.0,120,120,1.0,0.0
2355,53.0,0,120,1.0,0.0
2356,72.0,0,60,0.0,0.0
2357,63.0,0,0,0.0,0.0
2358,72.0,0,120,0.0,0.0
2359,46.0,60,120,1.0,0.0
2360,70.0,0,60,0.0,0.0
2361,62.0,60,60,0.0,0.0
2362,65.0,60,60,0.0,0.0
2363,69.0,60,60,0.0,0.0
2364,72.0,120,60,0.0,0.0
2365,57.0,0,120,1.0,0.0
2366,60.0,0,120,1.0,0.0
2367,77.0,0,360,0.0,0.0
2368,57.0,120,120,1.0,0.0
2369,60.0,0,120,1.0,0.0
2370,53.0,120,0,1.0,0.0
2371,53.0,60,120,1.0,0.0
2372,60.0,0,120,1.0,0.0
2373,57.0,0,120,1.0,0.0
2374,77.0,60,60,0.0,0.0
2375,58.0,0,120,1.0,0.0
2376,53.0,0,120,1.0,0.0
2377,76.0,0,0,0.0,0.0
2378,55.0,40,0,1.0,0.0
2379,58.0,0,120,1.0,0.0
2380,74.0,40,40,0.0,0.0
2381,76.0,0,40,0.0,0.0
2382,53.0,120,0,1.0,0.0
2383,55.0,0,0,1.0,0.0
2384,72.0,0,120,0.0,0.0
2385,58.0,0,120,1.0,0.0
2386,53.0,120,0,1.0,0.0
2387,57.0,0,120,1.0,0.0
2388,53.0,120,120,1.0,0.0
2389,60.0,120,0,1.0,0.0
2390,57.0,0,120,1.0,0.0
2391,53.0,0,0,1.0,0.0
2392,60.0,0,0,1.0,0.0
2393,57.0,0,0,1.0,0.0
2394,77.0,60,0,0.0,0.0
2395,63.0,0,0,1.0,0.0
2396,75.0,60,0,0.0,0.0
2397,62.0,0,60,1.0,0.0
2398,74.0,60,60,0.0,0.0
2399,63.0,60,60,1.0,0.0
2400,75.0,0,60,0.0,0.0
2401,60.0,0,60,1.0,0.0
2402,72.0,120,60,0.0,0.0
2403,58.0,120,120,1.0,0.0
2404,46.0,0,120,1.0,0.0
2405,62.0,0,360,0.0,0.0
2406,70.0,0,360,0.0,0.0
2407,41.0,0,120,1.0,0.0
2408,53.0,120,120,1.0,0.0
2409,46.0,0,120,1.0,0.0
2410,58.0,0,120,1.0,0.0
2411,65.0,60,0,0.0,0.0
2412,63.0,0,120,0.0,0.0
2413,74.0,60,60,0.0,0.0
2414,57.0,40,120,1.0,0.0
2415,45.0,0,120,1.0,0.0
2416,72.0,0,60,0.0,0.0
2417,41.0,0,120,1.0,0.0
2418,53.0,0,120,1.0,0.0
2419,72.0,40,40,0.0,0.0
2420,71.0,40,40,0.0,0.0
2421,72.0,120,40,0.0,0.0
2422,45.0,0,120,1.0,0.0
2423,57.0,60,120,1.0,0.0
2424,46.0,0,120,1.0,0.0
2425,58.0,60,120,1.0,0.0
2426,65.0,0,0,0.0,0.0
2427,74.0,0,60,0.0,0.0
2428,39.0,60,120,1.0,0.0
2429,51.0,0,120,1.0,0.0
2430,72.0,0,60,0.0,0.0
2431,63.0,60,60,0.0,0.0
2432,75.0,0,60,0.0,0.0
2433,67.0,0,60,0.0,0.0
2434,60.0,0,60,0.0,0.0
2435,69.0,60,60,0.0,0.0
2436,53.0,0,120,1.0,0.0
2437,41.0,120,120,1.0,0.0
2438,72.0,0,60,0.0,0.0
2439,63.0,0,60,0.0,0.0
2440,46.0,0,120,1.0,0.0
2441,72.0,60,120,0.0,0.0
2442,63.0,0,120,0.0,0.0
2443,62.0,240,60,0.0,0.0
2444,70.0,0,60,0.0,0.0
2445,65.0,60,180,0.0,0.0
2446,46.0,60,120,1.0,0.0
2447,63.0,0,60,0.0,0.0
2448,62.0,60,60,0.0,0.0
2449,50.0,0,120,1.0,0.0
2450,60.0,120,60,0.0,0.0
2451,70.0,60,180,0.0,0.0
2452,53.0,60,120,1.0,0.0
2453,58.0,0,120,0.0,0.0
2454,43.0,0,120,1.0,0.0
2455,69.0,60,60,0.0,0.0
2456,67.0,60,60,0.0,0.0
2457,46.0,120,120,1.0,0.0
2458,65.0,0,60,0.0,0.0
2459,75.0,60,180,0.0,0.0
2460,63.0,60,120,0.0,0.0
2461,51.0,0,120,1.0,0.0
2462,41.0,0,120,1.0,0.0
2463,74.0,60,60,0.0,0.0
2464,72.0,60,60,0.0,0.0
2465,48.0,0,120,1.0,0.0
2466,70.0,120,60,0.0,0.0
2467,69.0,0,120,0.0,0.0
2468,77.0,60,180,0.0,0.0
2469,51.0,60,120,1.0,0.0
2470,70.0,0,120,0.0,0.0
2471,50.0,60,120,1.0,0.0
2472,75.0,0,60,0.0,0.0
2473,46.0,180,120,1.0,0.0
2474,74.0,60,60,0.0,0.0
2475,72.0,0,60,0.0,0.0
2476,82.0,0,180,0.0,0.0
2477,86.0,60,180,0.0,0.0
2478,48.0,60,120,1.0,0.0
2479,81.0,0,60,0.0,0.0
2480,84.0,0,60,0.0,0.0
2481,82.0,0,60,0.0,0.0
2482,60.0,0,120,1.0,0.0
2483,79.0,60,60,0.0,0.0
2484,81.0,120,60,0.0,0.0
2485,77.0,0,60,0.0,0.0
2486,58.0,0,120,1.0,0.0
2487,72.0,60,180,0.0,0.0
2488,79.0,60,120,0.0,0.0
2489,76.0,0,120,0.0,0.0
2490,77.0,0,120,0.0,0.0
2491,81.0,0,120,0.0,0.0
2492,57.0,0,120,1.0,0.0
2493,70.0,60,60,0.0,0.0
2494,53.0,0,120,1.0,0.0
2495,69.0,60,60,0.0,0.0
2496,67.0,60,60,0.0,0.0
2497,77.0,0,60,0.0,0.0
2498,69.0,0,120,0.0,0.0
2499,81.0,60,0,0.0,0.0
2500,84.0,0,60,0.0,0.0
2501,58.0,60,120,1.0,0.0
2502,84.0,60,60,0.0,0.0
2503,81.0,60,0,0.0,0.0
2504,79.0,0,0,0.0,0.0
2505,82.0,0,0,0.0,0.0
2506,60.0,0,120,1.0,0.0
2507,77.0,0,60,0.0,0.0
2508,48.0,120,120,1.0,0.0
2509,77.0,0,60,0.0,0.0
2510,81.0,60,0,0.0,0.0
2511,76.0,0,60,0.0,0.0
2512,79.0,0,60,0.0,0.0
2513,77.0,0,120,0.0,0.0
2514,53.0,120,120,1.0,0.0
2515,41.0,180,120,1.0,0.0
2516,65.0,60,180,0.0,0.0
2517,46.0,60,120,1.0,0.0
2518,63.0,0,60,0.0,0.0
2519,50.0,120,120,1.0,0.0
2520,62.0,60,60,0.0,0.0
2521,60.0,0,60,0.0,0.0
2522,53.0,0,120,1.0,0.0
2523,70.0,60,180,0.0,0.0
2524,58.0,60,120,0.0,0.0
2525,43.0,60,120,1.0,0.0
2526,69.0,0,60,0.0,0.0
2527,67.0,60,60,0.0,0.0
2528,46.0,0,120,1.0,0.0
2529,65.0,120,60,0.0,0.0
2530,51.0,60,120,1.0,0.0
2531,75.0,60,180,0.0,0.0
2532,63.0,0,120,0.0,0.0
2533,41.0,0,120,1.0,0.0
2534,74.0,60,60,0.0,0.0
2535,72.0,60,60,0.0,0.0
2536,48.0,120,120,1.0,0.0
2537,70.0,0,60,0.0,0.0
2538,51.0,0,120,1.0,0.0
2539,69.0,60,120,0.0,0.0
2540,77.0,60,180,0.0,0.0
2541,50.0,0,120,1.0,0.0
2542,70.0,0,120,0.0,0.0
2543,75.0,60,60,0.0,0.0
2544,46.0,180,120,1.0,0.0
2545,74.0,60,60,0.0,0.0
2546,72.0,0,60,0.0,0.0
2547,86.0,60,180,0.0,0.0
2548,82.0,0,180,0.0,0.0
2549,48.0,0,120,1.0,0.0
2550,84.0,60,60,0.0,0.0
2551,81.0,0,60,0.0,0.0
2552,60.0,120,120,1.0,0.0
2553,82.0,0,60,0.0,0.0
2554,79.0,60,60,0.0,0.0
2555,81.0,0,60,0.0,0.0
2556,77.0,0,60,0.0,0.0
2557,79.0,60,120,0.0,0.0
2558,76.0,0,120,0.0,0.0
2559,72.0,60,180,0.0,0.0
2560,58.0,0,120,1.0,0.0
2561,81.0,0,120,0.0,0.0
2562,57.0,60,120,1.0,0.0
2563,77.0,0,120,0.0,0.0
2564,70.0,0,60,0.0,0.0
2565,69.0,60,60,0.0,0.0
2566,53.0,0,120,1.0,0.0
2567,67.0,60,60,0.0,0.0
2568,81.0,0,60,0.0,0.0
2569,77.0,60,60,0.0,0.0
2570,69.0,0,120,0.0,0.0
2571,84.0,60,60,0.0,0.0
2572,81.0,0,60,0.0,0.0
2573,58.0,0,120,1.0,0.0
2574,84.0,0,60,0.0,0.0
2575,81.0,60,60,0.0,0.0
2576,60.0,60,120,1.0,0.0
2577,79.0,60,0,0.0,0.0
2578,82.0,0,0,0.0,0.0
2579,77.0,0,60,0.0,0.0
2580,81.0,0,60,0.0,0.0
2581,81.0,60,60,0.0,0.0
2582,77.0,0,60,0.0,0.0
2583,48.0,120,120,1.0,0.0
2584,79.0,0,60,0.0,0.0
2585,76.0,0,60,0.0,0.0
2586,53.0,120,120,1.0,0.0
2587,77.0,0,120,0.0,0.0
2588,41.0,180,120,1.0,0.0
2589,65.0,60,180,0.0,0.0
2590,43.0,0,120,1.0,0.0
2591,63.0,60,60,0.0,0.0
2592,55.0,120,120,1.0,0.0
2593,62.0,60,60,0.0,0.0
2594,60.0,0,60,0.0,0.0
2595,59.0,60,120,1.0,0.0
2596,53.0,0,120,1.0,0.0
2597,79.0,60,180,0.0,0.0
2598,60.0,0,120,1.0,0.0
2599,51.0,0,120,1.0,0.0
2600,77.0,60,60,0.0,0.0
2601,48.0,120,120,1.0,0.0
2602,75.0,60,60,0.0,0.0
2603,74.0,0,60,0.0,0.0
2604,72.0,60,120,0.0,0.0
2605,63.0,60,180,0.0,0.0
2606,41.0,0,120,1.0,0.0
2607,62.0,60,60,0.0,0.0
2608,60.0,60,60,0.0,0.0
2609,53.0,0,120,1.0,0.0
2610,58.0,120,60,0.0,0.0
2611,57.0,0,120,1.0,0.0
2612,51.0,60,120,1.0,0.0
2613,77.0,60,180,0.0,0.0
2614,50.0,0,120,1.0,0.0
2615,58.0,0,120,1.0,0.0
2616,75.0,60,60,0.0,0.0
2617,74.0,60,60,0.0,0.0
2618,46.0,180,120,1.0,0.0
2619,72.0,0,60,0.0,0.0
2620,86.0,0,180,0.0,0.0
2621,77.0,60,180,0.0,0.0
2622,46.0,0,120,1.0,0.0
2623,84.0,60,60,0.0,0.0
2624,75.0,0,60,0.0,0.0
2625,58.0,180,120,1.0,0.0
2626,82.0,0,60,0.0,0.0
2627,74.0,60,60,0.0,0.0
2628,72.0,0,60,0.0,0.0
2629,81.0,0,60,0.0,0.0
2630,89.0,0,180,0.0,0.0
2631,86.0,60,180,0.0,0.0
2632,46.0,60,120,1.0,0.0
2633,84.0,0,60,0.0,0.0
2634,87.0,0,60,0.0,0.0
2635,82.0,0,60,0.0,0.0
2636,86.0,60,60,0.0,0.0
2637,58.0,60,120,1.0,0.0
2638,81.0,0,60,0.0,0.0
2639,84.0,0,60,0.0,0.0
2640,82.0,0,60,0.0,0.0
2641,86.0,60,0,0.0,0.0
2642,89.0,0,0,0.0,0.0
2643,51.0,0,120,1.0,0.0
2644,86.0,60,0,0.0,0.0
2645,87.0,0,0,0.0,0.0
2646,84.0,60,0,0.0,0.0
2647,53.0,60,120,1.0,0.0
2648,82.0,0,60,0.0,0.0
2649,86.0,0,60,0.0,0.0
2650,86.0,60,60,0.0,0.0
2651,82.0,0,60,0.0,0.0
2652,41.0,0,120,1.0,0.0
2653,81.0,0,60,0.0,0.0
2654,84.0,120,60,0.0,0.0
2655,46.0,0,120,1.0,0.0
2656,82.0,120,120,0.0,0.0
2657,58.0,180,120,1.0,0.0
2658,65.0,60,180,0.0,0.0
2659,43.0,60,120,1.0,0.0
2660,63.0,0,60,0.0,0.0
2661,55.0,120,120,1.0,0.0
2662,62.0,60,60,0.0,0.0
2663,60.0,0,60,0.0,0.0
2664,53.0,60,120,1.0,0.0
2665,59.0,0,120,1.0,0.0
2666,79.0,60,180,0.0,0.0
2667,51.0,60,120,1.0,0.0
2668,60.0,0,120,1.0,0.0
2669,77.0,0,60,0.0,0.0
2670,48.0,120,120,1.0,0.0
2671,75.0,60,60,0.0,0.0
2672,74.0,0,60,0.0,0.0
2673,63.0,60,180,0.0,0.0
2674,72.0,60,120,0.0,0.0
2675,41.0,0,120,1.0,0.0
2676,62.0,60,60,0.0,0.0
2677,53.0,120,120,1.0,0.0
2678,60.0,60,60,0.0,0.0
2679,58.0,0,60,0.0,0.0
2680,77.0,60,180,0.0,0.0
2681,57.0,0,120,1.0,0.0
2682,51.0,60,120,1.0,0.0
2683,50.0,0,120,1.0,0.0
2684,58.0,60,120,1.0,0.0
2685,75.0,0,60,0.0,0.0
2686,46.0,0,120,1.0,0.0
2687,74.0,60,60,0.0,0.0
2688,72.0,180,60,0.0,0.0
2689,86.0,0,180,0.0,0.0
2690,77.0,60,180,0.0,0.0
2691,46.0,60,120,1.0,0.0
2692,75.0,0,60,0.0,0.0
2693,84.0,0,60,0.0,0.0
2694,82.0,0,60,0.0,0.0
2695,74.0,60,60,0.0,0.0
2696,58.0,0,120,1.0,0.0
2697,81.0,0,60,0.0,0.0
2698,72.0,180,60,0.0,0.0
2699,89.0,60,180,0.0,0.0
2700,86.0,0,180,0.0,0.0
2701,46.0,0,120,1.0,0.0
2702,87.0,60,60,0.0,0.0
2703,84.0,0,60,0.0,0.0
2704,86.0,0,60,0.0,0.0
2705,82.0,60,60,0.0,0.0
2706,58.0,0,120,1.0,0.0
2707,81.0,60,60,0.0,0.0
2708,84.0,0,60,0.0,0.0
2709,82.0,0,60,0.0,0.0
2710,86.0,60,60,0.0,0.0
2711,89.0,60,60,0.0,0.0
2712,86.0,0,60,0.0,0.0
2713,51.0,0,120,1.0,0.0
2714,86.0,0,60,0.0,0.0
2715,89.0,60,60,0.0,0.0
2716,53.0,60,120,1.0,0.0
2717,87.0,0,0,0.0,0.0
2718,84.0,60,0,0.0,0.0
2719,86.0,0,60,0.0,0.0
2720,82.0,0,60,0.0,0.0
2721,41.0,0,120,1.0,0.0
2722,82.0,60,60,0.0,0.0
2723,86.0,0,60,0.0,0.0
2724,81.0,0,60,0.0,0.0
2725,84.0,120,60,0.0,0.0
2726,46.0,0,120,1.0,0.0
2727,82.0,120,120,0.0,0.0
2728,58.0,840,120,1.0,0.0
2729,74.0,0,120,0.0,0.0
2730,62.0,0,120,0.0,0.0
2731,38.0,0,120,1.0,0.0
2732,50.0,180,0,1.0,0.0
2733,62.0,0,180,0.0,0.0
2734,61.0,30,30,0.0,0.0
2735,49.0,0,30,1.0,0.0
2736,62.0,0,30,0.0,0.0
2737,50.0,30,30,1.0,0.0
2738,64.0,30,30,0.0,0.0
2739,52.0,0,30,1.0,0.0
2740,50.0,0,30,1.0,0.0
2741,62.0,30,30,0.0,0.0
2742,61.0,0,30,0.0,0.0
2743,49.0,30,30,1.0,0.0
2744,59.0,0,30,0.0,0.0
2745,47.0,120,30,1.0,0.0
2746,45.0,0,120,1.0,0.0
2747,57.0,210,120,0.0,0.0
2748,45.0,0,90,1.0,0.0
2749,57.0,0,90,0.0,0.0
2750,57.0,0,30,0.0,0.0
2751,33.0,30,0,1.0,0.0
2752,45.0,180,30,1.0,0.0
2753,43.0,0,180,1.0,0.0
2754,55.0,0,180,1.0,0.0
2755,67.0,30,180,0.0,0.0
2756,66.0,0,30,0.0,0.0
2757,54.0,30,30,1.0,0.0
2758,67.0,0,30,0.0,0.0
2759,55.0,30,30,1.0,0.0
2760,69.0,0,30,0.0,0.0
2761,57.0,30,30,1.0,0.0
2762,67.0,30,30,0.0,0.0
2763,55.0,0,30,1.0,0.0
2764,54.0,30,30,1.0,0.0
2765,66.0,0,30,0.0,0.0
2766,52.0,0,30,1.0,0.0
2767,64.0,120,30,0.0,0.0
2768,50.0,0,120,1.0,0.0
2769,62.0,240,120,0.0,0.0
2770,38.0,0,120,1.0,0.0
2771,74.0,30,180,0.0,0.0
2772,69.0,120,0,0.0,0.0
2773,66.0,0,180,0.0,0.0
2774,50.0,60,120,1.0,0.0
2775,78.0,0,180,0.0,0.0
2776,62.0,0,120,1.0,0.0
2777,50.0,0,120,1.0,0.0
2778,76.0,30,30,0.0,0.0
2779,78.0,30,30,0.0,0.0
2780,79.0,30,30,0.0,0.0
2781,78.0,30,30,0.0,0.0
2782,76.0,30,30,0.0,0.0
2783,74.0,30,0,0.0,0.0
2784,73.0,30,30,0.0,0.0
2785,71.0,30,30,0.0,0.0
2786,69.0,30,30,0.0,0.0
2787,69.0,30,30,0.0,0.0
2788,67.0,30,30,0.0,0.0
2789,66.0,30,30,0.0,0.0
2790,64.0,30,30,0.0,0.0
2791,64.0,30,30,0.0,0.0
2792,62.0,30,30,0.0,0.0
2793,61.0,30,30,0.0,0.0
2794,59.0,90,30,0.0,0.0
2795,45.0,120,120,1.0,0.0
2796,57.0,30,90,0.0,0.0
2797,64.0,0,30,0.0,0.0
2798,67.0,0,120,0.0,0.0
2799,64.0,0,120,0.0,0.0
2800,49.0,120,120,1.0,0.0
2801,57.0,0,120,0.0,0.0
2802,66.0,120,120,0.0,0.0
2803,62.0,0,120,0.0,0.0
2804,50.0,0,120,1.0,0.0
2805,64.0,0,120,0.0,0.0
2806,61.0,0,120,0.0,0.0
2807,57.0,0,0,0.0,0.0
2808,45.0,240,120,1.0,0.0
2809,38.0,0,120,1.0,0.0
2810,50.0,0,120,1.0,0.0
2811,62.0,0,120,0.0,0.0
2812,74.0,180,120,0.0,0.0
2813,50.0,30,180,1.0,0.0
2814,62.0,0,180,0.0,0.0
2815,61.0,30,30,0.0,0.0
2816,49.0,0,30,1.0,0.0
2817,50.0,0,30,1.0,0.0
2818,62.0,30,30,0.0,0.0
2819,52.0,30,30,1.0,0.0
2820,64.0,0,30,0.0,0.0
2821,50.0,0,30,1.0,0.0
2822,62.0,30,30,0.0,0.0
2823,49.0,30,30,1.0,0.0
2824,61.0,0,30,0.0,0.0
2825,59.0,120,30,0.0,0.0
2826,47.0,0,30,1.0,0.0
2827,57.0,0,120,0.0,0.0
2828,45.0,210,120,1.0,0.0
2829,33.0,0,90,1.0,0.0
2830,57.0,0,90,0.0,0.0
2831,45.0,30,0,1.0,0.0
2832,57.0,0,30,0.0,0.0
2833,33.0,180,30,1.0,0.0
2834,43.0,0,180,1.0,0.0
2835,55.0,30,180,1.0,0.0
2836,67.0,0,180,0.0,0.0
2837,66.0,0,30,0.0,0.0
2838,54.0,30,30,1.0,0.0
2839,67.0,0,30,0.0,0.0
2840,55.0,30,30,1.0,0.0
2841,57.0,0,30,1.0,0.0
2842,69.0,30,30,0.0,0.0
2843,67.0,0,30,0.0,0.0
2844,55.0,30,30,1.0,0.0
2845,66.0,0,30,0.0,0.0
2846,54.0,30,30,1.0,0.0
2847,64.0,120,30,0.0,0.0
2848,52.0,0,30,1.0,0.0
2849,62.0,240,120,0.0,0.0
2850,50.0,0,120,1.0,0.0
2851,69.0,120,120,0.0,0.0
2852,78.0,0,180,0.0,0.0
2853,74.0,30,180,0.0,0.0
2854,66.0,0,180,0.0,0.0
2855,69.0,0,180,0.0,0.0
2856,38.0,0,120,1.0,0.0
2857,50.0,60,120,1.0,0.0
2858,50.0,0,120,1.0,0.0
2859,62.0,30,120,1.0,0.0
2860,76.0,30,30,0.0,0.0
2861,78.0,0,30,0.0,0.0
2862,79.0,30,30,0.0,0.0
2863,78.0,30,30,0.0,0.0
2864,76.0,30,30,0.0,0.0
2865,74.0,30,0,0.0,0.0
2866,73.0,30,30,0.0,0.0
2867,71.0,30,30,0.0,0.0
2868,69.0,30,30,0.0,0.0
2869,69.0,30,30,0.0,0.0
2870,67.0,30,30,0.0,0.0
2871,66.0,30,30,0.0,0.0
2872,64.0,30,30,0.0,0.0
2873,64.0,30,30,0.0,0.0
2874,62.0,30,30,0.0,0.0
2875,61.0,30,30,0.0,0.0
2876,59.0,90,30,0.0,0.0
2877,45.0,0,120,1.0,0.0
2878,57.0,30,90,0.0,0.0
2879,64.0,120,30,0.0,0.0
2880,49.0,0,120,1.0,0.0
2881,67.0,120,120,0.0,0.0
2882,64.0,0,120,0.0,0.0
2883,57.0,0,0,0.0,0.0
2884,62.0,0,120,0.0,0.0
2885,66.0,0,120,0.0,0.0
2886,50.0,0,120,1.0,0.0
2887,45.0,0,120,1.0,0.0
2888,64.0,240,120,0.0,0.0
2889,61.0,0,120,0.0,0.0
2890,57.0,120,0,0.0,0.0
2891,81.0,30,120,0.0,0.0
2892,45.0,30,30,1.0,0.0
2893,69.0,30,180,0.0,0.0
2894,49.0,30,30,1.0,0.0
2895,52.0,30,30,1.0,0.0
2896,57.0,30,30,1.0,0.0
2897,45.0,30,30,1.0,0.0
2898,49.0,0,30,1.0,0.0
2899,52.0,0,30,1.0,0.0
2900,68.0,30,30,0.0,0.0
2901,57.0,30,30,1.0,0.0
2902,69.0,0,30,0.0,0.0
2903,71.0,0,30,0.0,0.0
2904,45.0,30,30,1.0,0.0
2905,69.0,30,30,0.0,0.0
2906,49.0,0,30,1.0,0.0
2907,52.0,30,30,1.0,0.0
2908,68.0,0,30,0.0,0.0
2909,57.0,30,30,1.0,0.0
2910,69.0,0,30,0.0,0.0
2911,45.0,30,30,1.0,0.0
2912,73.0,0,120,0.0,0.0
2913,50.0,30,30,1.0,0.0
2914,53.0,30,30,1.0,0.0
2915,56.0,30,30,1.0,0.0
2916,71.0,30,60,0.0,0.0
2917,45.0,30,30,1.0,0.0
2918,50.0,0,30,1.0,0.0
2919,70.0,0,30,0.0,0.0
2920,53.0,30,30,1.0,0.0
2921,71.0,0,30,0.0,0.0
2922,56.0,30,30,1.0,0.0
2923,45.0,0,30,1.0,0.0
2924,73.0,30,30,0.0,0.0
2925,50.0,30,30,1.0,0.0
2926,71.0,0,30,0.0,0.0
2927,70.0,30,30,0.0,0.0
2928,53.0,0,30,1.0,0.0
2929,56.0,30,30,1.0,0.0
2930,71.0,0,30,0.0,0.0
2931,45.0,30,30,1.0,0.0
2932,74.0,30,120,0.0,0.0
2933,52.0,30,30,1.0,0.0
2934,55.0,30,30,1.0,0.0
2935,57.0,0,30,1.0,0.0
2936,45.0,30,30,1.0,0.0
2937,73.0,0,120,0.0,0.0
2938,52.0,30,30,1.0,0.0
2939,55.0,30,30,1.0,0.0
2940,57.0,30,30,1.0,0.0
2941,45.0,30,30,1.0,0.0
2942,76.0,30,120,0.0,0.0
2943,52.0,30,30,1.0,0.0
2944,55.0,30,30,1.0,0.0
2945,57.0,0,30,1.0,0.0
2946,45.0,30,30,1.0,0.0
2947,79.0,30,120,0.0,0.0
2948,52.0,30,30,1.0,0.0
2949,55.0,30,30,1.0,0.0
2950,57.0,0,30,1.0,0.0
2951,45.0,30,30,1.0,0.0
2952,52.0,30,30,1.0,0.0
2953,55.0,30,30,1.0,0.0
2954,57.0,30,30,1.0,0.0
2955,43.0,30,30,1.0,0.0
2956,81.0,0,120,0.0,0.0
2957,49.0,30,30,1.0,0.0
2958,52.0,30,30,1.0,0.0
2959,55.0,120,30,1.0,0.0
2960,45.0,0,120,1.0,0.0
2961,74.0,30,180,0.0,0.0
2962,86.0,0,180,0.0,0.0
2963,42.0,0,120,1.0,0.0
2964,81.0,0,180,0.0,0.0
2965,50.0,60,120,1.0,0.0
2966,78.0,0,180,0.0,0.0
2967,54.0,0,120,1.0,0.0
2968,57.0,0,120,1.0,0.0
2969,62.0,30,120,1.0,0.0
2970,85.0,30,30,0.0,0.0
2971,86.0,0,30,0.0,0.0
2972,88.0,30,30,0.0,0.0
2973,86.0,30,30,0.0,0.0
2974,85.0,30,30,0.0,0.0
2975,83.0,30,0,0.0,0.0
2976,81.0,30,30,0.0,0.0
2977,79.0,30,30,0.0,0.0
2978,78.0,30,0,0.0,0.0
2979,76.0,30,30,0.0,0.0
2980,74.0,30,30,0.0,0.0
2981,73.0,30,30,0.0,0.0
2982,73.0,30,30,0.0,0.0
2983,71.0,30,30,0.0,0.0
2984,69.0,30,30,0.0,0.0
2985,68.0,90,30,0.0,0.0
2986,69.0,30,90,0.0,0.0
2987,74.0,120,30,0.0,0.0
2988,57.0,120,120,1.0,0.0
2989,69.0,0,120,0.0,0.0
2990,74.0,0,120,0.0,0.0
2991,78.0,0,120,0.0,0.0
2992,45.0,120,120,1.0,0.0
2993,67.0,0,120,0.0,0.0
2994,73.0,0,120,0.0,0.0
2995,76.0,0,120,0.0,0.0
2996,74.0,240,120,0.0,0.0
2997,66.0,0,120,0.0,0.0
2998,50.0,0,120,1.0,0.0
2999,81.0,30,120,0.0,0.0
3000,45.0,30,30,1.0,0.0
3001,69.0,0,180,0.0,0.0
3002,49.0,30,30,1.0,0.0
3003,52.0,30,30,1.0,0.0
3004,57.0,30,30,1.0,0.0
3005,45.0,30,30,1.0,0.0
3006,49.0,30,30,1.0,0.0
3007,68.0,30,30,0.0,0.0
3008,52.0,0,30,1.0,0.0
3009,69.0,0,30,0.0,0.0
3010,57.0,30,30,1.0,0.0
3011,71.0,30,30,0.0,0.0
3012,45.0,0,30,1.0,0.0
3013,69.0,30,30,0.0,0.0
3014,49.0,0,30,1.0,0.0
3015,52.0,0,30,1.0,0.0
3016,68.0,30,30,0.0,0.0
3017,57.0,0,30,1.0,0.0
3018,69.0,30,30,0.0,0.0
3019,45.0,30,30,1.0,0.0
3020,73.0,30,120,0.0,0.0
3021,50.0,30,30,1.0,0.0
3022,53.0,30,30,1.0,0.0
3023,56.0,0,30,1.0,0.0
3024,71.0,0,60,0.0,0.0
3025,45.0,30,30,1.0,0.0
3026,50.0,30,30,1.0,0.0
3027,53.0,0,30,1.0,0.0
3028,70.0,30,30,0.0,0.0
3029,56.0,0,30,1.0,0.0
3030,71.0,30,30,0.0,0.0
3031,45.0,0,30,1.0,0.0
3032,73.0,30,30,0.0,0.0
3033,50.0,30,30,1.0,0.0
3034,71.0,0,30,0.0,0.0
3035,70.0,0,30,0.0,0.0
3036,53.0,30,30,1.0,0.0
3037,71.0,30,30,0.0,0.0
3038,56.0,0,30,1.0,0.0
3039,74.0,30,120,0.0,0.0
3040,45.0,30,30,1.0,0.0
3041,52.0,30,30,1.0,0.0
3042,55.0,30,30,1.0,0.0
3043,57.0,0,30,1.0,0.0
3044,45.0,30,30,1.0,0.0
3045,73.0,0,120,0.0,0.0
3046,52.0,30,30,1.0,0.0
3047,55.0,30,30,1.0,0.0
3048,57.0,30,30,1.0,0.0
3049,45.0,30,30,1.0,0.0
3050,76.0,30,120,0.0,0.0
3051,52.0,30,30,1.0,0.0
3052,55.0,30,30,1.0,0.0
3053,57.0,0,30,1.0,0.0
3054,45.0,30,30,1.0,0.0
3055,79.0,30,120,0.0,0.0
3056,52.0,30,30,1.0,0.0
3057,55.0,30,30,1.0,0.0
3058,57.0,0,30,1.0,0.0
3059,45.0,30,30,1.0,0.0
3060,52.0,30,30,1.0,0.0
3061,55.0,30,30,1.0,0.0
3062,57.0,30,30,1.0,0.0
3063,43.0,30,30,1.0,0.0
3064,49.0,30,30,1.0,0.0
3065,52.0,30,30,1.0,0.0
3066,55.0,0,30,1.0,0.0
3067,42.0,60,120,1.0,0.0
3068,81.0,120,0,0.0,0.0
3069,45.0,0,120,1.0,0.0
3070,50.0,0,120,1.0,0.0
3071,86.0,0,180,0.0,0.0
3072,74.0,0,180,0.0,0.0
3073,78.0,0,180,0.0,0.0
3074,54.0,0,120,1.0,0.0
3075,62.0,30,120,1.0,0.0
3076,57.0,0,120,1.0,0.0
3077,85.0,30,30,0.0,0.0
3078,86.0,0,30,0.0,0.0
3079,88.0,30,30,0.0,0.0
3080,86.0,30,30,0.0,0.0
3081,85.0,30,30,0.0,0.0
3082,83.0,30,0,0.0,0.0
3083,81.0,30,30,0.0,0.0
3084,79.0,30,30,0.0,0.0
3085,78.0,30,0,0.0,0.0
3086,76.0,30,30,0.0,0.0
3087,74.0,30,30,0.0,0.0
3088,73.0,30,30,0.0,0.0
3089,73.0,30,30,0.0,0.0
3090,71.0,30,30,0.0,0.0
3091,69.0,30,30,0.0,0.0
3092,68.0,90,30,0.0,0.0
3093,69.0,30,90,0.0,0.0
3094,74.0,120,0,0.0,0.0
3095,69.0,0,120,0.0,0.0
3096,57.0,120,120,1.0,0.0
3097,78.0,0,120,0.0,0.0
3098,67.0,0,120,0.0,0.0
3099,73.0,120,120,0.0,0.0
3100,76.0,0,120,0.0,0.0
3101,45.0,0,120,1.0,0.0
3102,66.0,0,120,0.0,0.0
3103,74.0,210,120,0.0,0.0
3104,50.0,0,120,1.0,0.0
3105,74.0,30,90,0.0,0.0
3106,62.0,0,90,0.0,0.0
3107,78.0,0,30,0.0,0.0
3108,81.0,0,780,0.0,0.0
3109,66.0,60,0,0.0,0.0
3110,69.0,120,60,0.0,0.0
3111,79.0,0,60,0.0,0.0
3112,67.0,0,60,0.0,0.0
3113,76.0,0,60,0.0,0.0
3114,64.0,120,60,0.0,0.0
3115,78.0,0,60,0.0,0.0
3116,62.0,120,60,0.0,0.0
3117,66.0,0,60,0.0,0.0
3118,74.0,0,60,0.0,0.0
3119,73.0,0,60,0.0,0.0
3120,76.0,0,60,0.0,0.0
3121,57.0,120,60,0.0,0.0
3122,64.0,0,60,0.0,0.0
3123,62.0,120,60,0.0,0.0
3124,54.0,0,60,0.0,0.0
3125,69.0,0,60,0.0,0.0
3126,74.0,0,60,0.0,0.0
3127,57.0,0,60,0.0,0.0
3128,64.0,0,60,0.0,0.0
3129,76.0,0,60,0.0,0.0
3130,73.0,120,60,0.0,0.0
3131,78.0,120,60,0.0,0.0
3132,74.0,0,60,0.0,0.0
3133,62.0,0,60,0.0,0.0
3134,66.0,0,60,0.0,0.0
3135,81.0,0,60,0.0,0.0
3136,79.0,0,60,0.0,0.0
3137,76.0,120,60,0.0,0.0
3138,64.0,0,60,0.0,0.0
3139,61.0,0,60,0.0,0.0
3140,67.0,0,60,0.0,0.0
3141,81.0,0,60,0.0,0.0
3142,66.0,0,60,0.0,0.0
3143,74.0,0,60,0.0,0.0
3144,62.0,0,60,0.0,0.0
3145,78.0,120,60,0.0,0.0
3146,76.0,0,60,0.0,0.0
3147,81.0,60,120,0.0,0.0
3148,57.0,0,60,0.0,0.0
3149,64.0,0,60,0.0,0.0
3150,73.0,60,60,0.0,0.0
3151,45.0,150,60,1.0,0.0
3152,81.0,0,90,0.0,0.0
3153,57.0,30,90,1.0,0.0
3154,61.0,0,30,1.0,0.0
3155,85.0,60,30,0.0,0.0
3156,64.0,120,60,1.0,0.0
3157,61.0,0,60,1.0,0.0
3158,88.0,120,780,0.0,0.0
3159,59.0,120,60,1.0,0.0
3160,86.0,0,60,0.0,0.0
3161,83.0,0,60,0.0,0.0
3162,62.0,0,60,1.0,0.0
3163,85.0,120,60,0.0,0.0
3164,81.0,0,60,0.0,0.0
3165,57.0,0,60,1.0,0.0
3166,61.0,0,60,1.0,0.0
3167,52.0,0,60,1.0,0.0
3168,59.0,0,60,1.0,0.0
3169,83.0,0,60,0.0,0.0
3170,80.0,120,60,0.0,0.0
3171,76.0,0,60,0.0,0.0
3172,49.0,120,60,1.0,0.0
3173,57.0,0,60,1.0,0.0
3174,81.0,0,60,0.0,0.0
3175,52.0,0,60,1.0,0.0
3176,59.0,120,60,1.0,0.0
3177,83.0,0,60,0.0,0.0
3178,80.0,0,60,0.0,0.0
3179,81.0,0,60,0.0,0.0
3180,85.0,0,60,0.0,0.0
3181,61.0,0,60,1.0,0.0
3182,57.0,0,60,1.0,0.0
3183,88.0,120,60,0.0,0.0
3184,86.0,0,60,0.0,0.0
3185,83.0,0,60,0.0,0.0
3186,62.0,0,60,1.0,0.0
3187,59.0,0,60,1.0,0.0
3188,80.0,0,60,0.0,0.0
3189,59.0,0,60,1.0,0.0
3190,52.0,180,60,1.0,0.0
3191,83.0,0,60,0.0,0.0
3192,88.0,0,60,0.0,0.0
3193,81.0,120,120,0.0,0.0
3194,57.0,0,120,1.0,0.0
3195,45.0,90,120,1.0,0.0
3196,74.0,30,90,0.0,0.0
3197,62.0,0,90,0.0,0.0
3198,66.0,0,30,0.0,0.0
3199,78.0,60,30,0.0,0.0
3200,81.0,0,780,0.0,0.0
3201,66.0,120,60,0.0,0.0
3202,69.0,0,60,0.0,0.0
3203,64.0,120,60,0.0,0.0
3204,67.0,0,60,0.0,0.0
3205,79.0,0,60,0.0,0.0
3206,76.0,0,60,0.0,0.0
3207,66.0,0,60,0.0,0.0
3208,62.0,0,60,0.0,0.0
3209,78.0,120,60,0.0,0.0
3210,74.0,0,60,0.0,0.0
3211,57.0,0,60,0.0,0.0
3212,64.0,0,60,0.0,0.0
3213,76.0,120,60,0.0,0.0
3214,73.0,0,60,0.0,0.0
3215,74.0,0,60,0.0,0.0
3216,62.0,120,60,0.0,0.0
3217,54.0,0,60,0.0,0.0
3218,69.0,0,60,0.0,0.0
3219,73.0,0,60,0.0,0.0
3220,76.0,0,60,0.0,0.0
3221,57.0,120,60,0.0,0.0
3222,64.0,0,60,0.0,0.0
3223,62.0,0,60,0.0,0.0
3224,66.0,0,60,0.0,0.0
3225,78.0,120,60,0.0,0.0
3226,74.0,0,60,0.0,0.0
3227,61.0,0,60,0.0,0.0
3228,64.0,0,60,0.0,0.0
3229,67.0,0,60,0.0,0.0
3230,76.0,120,60,0.0,0.0
3231,79.0,0,60,0.0,0.0
3232,81.0,0,60,0.0,0.0
3233,62.0,0,60,0.0,0.0
3234,66.0,0,60,0.0,0.0
3235,74.0,0,60,0.0,0.0
3236,78.0,120,60,0.0,0.0
3237,81.0,0,60,0.0,0.0
3238,76.0,0,60,0.0,0.0
3239,64.0,60,60,0.0,0.0
3240,57.0,0,60,0.0,0.0
3241,81.0,60,120,0.0,0.0
3242,73.0,0,60,0.0,0.0
3243,45.0,150,60,1.0,0.0
3244,81.0,0,90,0.0,0.0
3245,57.0,30,90,1.0,0.0
3246,85.0,60,30,0.0,0.0
3247,61.0,0,30,1.0,0.0
3248,88.0,120,780,0.0,0.0
3249,61.0,120,60,1.0,0.0
3250,64.0,0,60,1.0,0.0
3251,59.0,0,60,1.0,0.0
3252,62.0,0,60,1.0,0.0
3253,83.0,0,60,0.0,0.0
3254,86.0,120,60,0.0,0.0
3255,61.0,0,60,1.0,0.0
3256,81.0,120,60,0.0,0.0
3257,85.0,0,60,0.0,0.0
3258,57.0,0,60,1.0,0.0
3259,80.0,0,60,0.0,0.0
3260,52.0,120,60,1.0,0.0
3261,83.0,0,60,0.0,0.0
3262,59.0,0,60,1.0,0.0
3263,57.0,0,60,1.0,0.0
3264,49.0,0,60,1.0,0.0
3265,76.0,120,60,0.0,0.0
3266,81.0,0,60,0.0,0.0
3267,59.0,120,60,1.0,0.0
3268,52.0,0,60,1.0,0.0
3269,83.0,0,60,0.0,0.0
3270,80.0,0,60,0.0,0.0
3271,85.0,0,60,0.0,0.0
3272,81.0,0,60,0.0,0.0
3273,57.0,0,60,1.0,0.0
3274,61.0,0,60,1.0,0.0
3275,62.0,120,60,1.0,0.0
3276,59.0,0,60,1.0,0.0
3277,83.0,0,60,0.0,0.0
3278,86.0,0,60,0.0,0.0
3279,88.0,0,60,0.0,0.0
3280,52.0,0,60,1.0,0.0
3281,83.0,0,60,0.0,0.0
3282,88.0,180,60,0.0,0.0
3283,80.0,0,60,0.0,0.0
3284,59.0,0,60,1.0,0.0
3285,57.0,0,120,1.0,0.0
3286,81.0,120,120,0.0,0.0
3287,45.0,90,120,1.0,0.0
3288,74.0,30,90,0.0,0.0
3289,78.0,120,30,0.0,0.0
3290,76.0,0,120,0.0,0.0
3291,67.0,0,120,0.0,0.0
3292,79.0,0,120,0.0,0.0
3293,61.0,0,120,0.0,0.0
3294,64.0,60,120,0.0,0.0
3295,74.0,0,60,0.0,0.0
3296,78.0,150,60,0.0,0.0
3297,62.0,0,60,0.0,0.0
3298,66.0,0,60,0.0,0.0
3299,76.0,30,90,0.0,0.0
3300,79.0,0,30,0.0,0.0
3301,81.0,120,0,0.0,0.0
3302,63.0,60,120,0.0,0.0
3303,69.0,0,120,0.0,0.0
3304,66.0,0,120,0.0,0.0
3305,78.0,0,120,0.0,0.0
3306,83.0,90,240,0.0,0.0
3307,64.0,0,60,0.0,0.0
3308,67.0,60,60,0.0,0.0
3309,76.0,0,60,0.0,0.0
3310,79.0,0,60,0.0,0.0
3311,67.0,30,90,0.0,0.0
3312,79.0,0,90,0.0,0.0
3313,71.0,0,30,0.0,0.0
3314,83.0,120,30,0.0,0.0
3315,81.0,0,120,0.0,0.0
3316,84.0,0,120,0.0,0.0
3317,72.0,0,120,0.0,0.0
3318,69.0,120,120,0.0,0.0
3319,86.0,120,240,0.0,0.0
3320,66.0,0,120,0.0,0.0
3321,67.0,0,120,0.0,0.0
3322,83.0,0,120,0.0,0.0
3323,71.0,0,120,0.0,0.0
3324,88.0,120,120,0.0,0.0
3325,64.0,0,120,0.0,0.0
3326,79.0,0,0,0.0,0.0
3327,86.0,60,120,0.0,0.0
3328,78.0,0,120,0.0,0.0
3329,69.0,0,120,0.0,0.0
3330,57.0,0,60,0.0,0.0
3331,76.0,150,60,0.0,0.0
3332,85.0,0,60,0.0,0.0
3333,74.0,0,90,0.0,0.0
3334,50.0,30,90,1.0,0.0
3335,78.0,0,30,0.0,0.0
3336,54.0,60,30,1.0,0.0
3337,81.0,0,780,0.0,0.0
3338,57.0,120,60,1.0,0.0
3339,54.0,0,60,1.0,0.0
3340,79.0,0,60,0.0,0.0
3341,76.0,0,60,0.0,0.0
3342,55.0,120,60,1.0,0.0
3343,52.0,0,60,1.0,0.0
3344,50.0,0,60,1.0,0.0
3345,54.0,120,60,1.0,0.0
3346,74.0,0,60,0.0,0.0
3347,78.0,0,60,0.0,0.0
3348,73.0,0,60,0.0,0.0
3349,76.0,120,60,0.0,0.0
3350,52.0,0,60,1.0,0.0
3351,45.0,0,60,1.0,0.0
3352,50.0,0,60,1.0,0.0
3353,42.0,0,60,1.0,0.0
3354,69.0,120,60,0.0,0.0
3355,74.0,0,60,0.0,0.0
3356,76.0,0,60,0.0,0.0
3357,52.0,120,60,1.0,0.0
3358,73.0,0,60,0.0,0.0
3359,45.0,0,60,1.0,0.0
3360,74.0,0,60,0.0,0.0
3361,78.0,0,60,0.0,0.0
3362,54.0,0,60,1.0,0.0
3363,50.0,120,60,1.0,0.0
3364,76.0,120,60,0.0,0.0
3365,81.0,0,60,0.0,0.0
3366,79.0,0,60,0.0,0.0
3367,55.0,0,60,1.0,0.0
3368,52.0,0,60,1.0,0.0
3369,52.0,0,60,1.0,0.0
3370,73.0,0,60,0.0,0.0
3371,81.0,0,60,0.0,0.0
3372,76.0,0,60,0.0,0.0
3373,45.0,120,60,1.0,0.0
3374,50.0,60,60,1.0,0.0
3375,81.0,60,120,0.0,0.0
3376,38.0,150,60,1.0,0.0
3377,74.0,30,90,0.0,0.0
3378,78.0,120,30,0.0,0.0
3379,64.0,60,120,0.0,0.0
3380,79.0,0,120,0.0,0.0
3381,76.0,0,120,0.0,0.0
3382,61.0,0,120,0.0,0.0
3383,67.0,0,120,0.0,0.0
3384,66.0,0,60,0.0,0.0
3385,74.0,150,60,0.0,0.0
3386,78.0,0,60,0.0,0.0
3387,62.0,0,60,0.0,0.0
3388,76.0,30,90,0.0,0.0
3389,79.0,120,30,0.0,0.0
3390,83.0,90,240,0.0,0.0
3391,81.0,0,0,0.0,0.0
3392,78.0,60,120,0.0,0.0
3393,66.0,0,120,0.0,0.0
3394,69.0,0,120,0.0,0.0
3395,63.0,0,120,0.0,0.0
3396,79.0,0,60,0.0,0.0
3397,76.0,0,60,0.0,0.0
3398,64.0,0,60,0.0,0.0
3399,67.0,60,60,0.0,0.0
3400,67.0,30,90,0.0,0.0
3401,79.0,0,90,0.0,0.0
3402,71.0,0,30,0.0,0.0
3403,83.0,120,30,0.0,0.0
3404,84.0,120,120,0.0,0.0
3405,81.0,0,120,0.0,0.0
3406,72.0,0,120,0.0,0.0
3407,69.0,0,120,0.0,0.0
3408,66.0,0,120,0.0,0.0
3409,86.0,120,240,0.0,0.0
3410,83.0,0,120,0.0,0.0
3411,71.0,0,120,0.0,0.0
3412,67.0,0,120,0.0,0.0
3413,79.0,0,0,0.0,0.0
3414,64.0,120,120,0.0,0.0
3415,88.0,0,120,0.0,0.0
3416,69.0,0,120,0.0,0.0
3417,86.0,60,120,0.0,0.0
3418,78.0,0,120,0.0,0.0
3419,57.0,150,60,0.0,0.0
3420,85.0,0,60,0.0,0.0
3421,76.0,0,60,0.0,0.0
3422,50.0,30,90,1.0,0.0
3423,74.0,0,90,0.0,0.0
3424,54.0,60,30,1.0,0.0
3425,78.0,0,30,0.0,0.0
3426,81.0,0,780,0.0,0.0
3427,57.0,120,60,1.0,0.0
3428,54.0,0,60,1.0,0.0
3429,52.0,120,60,1.0,0.0
3430,55.0,0,60,1.0,0.0
3431,79.0,0,60,0.0,0.0
3432,76.0,0,60,0.0,0.0
3433,54.0,120,60,1.0,0.0
3434,50.0,0,60,1.0,0.0
3435,78.0,0,60,0.0,0.0
3436,74.0,0,60,0.0,0.0
3437,45.0,120,60,1.0,0.0
3438,76.0,0,60,0.0,0.0
3439,73.0,0,60,0.0,0.0
3440,52.0,0,60,1.0,0.0
3441,69.0,0,60,0.0,0.0
3442,74.0,120,60,0.0,0.0
3443,50.0,0,60,1.0,0.0
3444,42.0,0,60,1.0,0.0
3445,76.0,0,60,0.0,0.0
3446,73.0,120,60,0.0,0.0
3447,52.0,0,60,1.0,0.0
3448,45.0,0,60,1.0,0.0
3449,78.0,0,60,0.0,0.0
3450,74.0,0,60,0.0,0.0
3451,54.0,120,60,1.0,0.0
3452,50.0,0,60,1.0,0.0
3453,55.0,120,60,1.0,0.0
3454,52.0,0,60,1.0,0.0
3455,76.0,0,60,0.0,0.0
3456,79.0,0,60,0.0,0.0
3457,81.0,0,60,0.0,0.0
3458,52.0,0,60,1.0,0.0
3459,45.0,0,60,1.0,0.0
3460,73.0,0,60,0.0,0.0
3461,76.0,120,60,0.0,0.0
3462,81.0,0,60,0.0,0.0
3463,81.0,60,120,0.0,0.0
3464,50.0,60,60,1.0,0.0
3465,38.0,870,60,1.0,0.0
3466,79.0,30,90,0.0,0.0
3467,84.0,120,30,0.0,0.0
3468,60.0,120,120,1.0,0.0
3469,48.0,0,120,1.0,0.0
3470,76.0,0,240,0.0,0.0
3471,79.0,0,240,0.0,0.0
3472,88.0,0,240,0.0,0.0
3473,60.0,0,120,0.0,0.0
3474,72.0,120,0,0.0,0.0
3475,60.0,0,120,0.0,0.0
3476,74.0,0,120,0.0,0.0
3477,77.0,0,120,0.0,0.0
3478,86.0,0,120,0.0,0.0
3479,84.0,0,120,0.0,0.0
3480,72.0,120,0,0.0,0.0
3481,76.0,0,0,0.0,0.0
3482,60.0,120,0,0.0,0.0
3483,67.0,0,120,0.0,0.0
3484,71.0,0,120,0.0,0.0
3485,60.0,0,0,0.0,0.0
3486,84.0,120,0,0.0,0.0
3487,76.0,0,0,0.0,0.0
3488,65.0,120,120,0.0,0.0
3489,69.0,0,120,0.0,0.0
3490,64.0,0,120,0.0,0.0
3491,60.0,0,0,0.0,0.0
3492,72.0,120,120,0.0,0.0
3493,84.0,0,0,0.0,0.0
3494,67.0,0,120,0.0,0.0
3495,83.0,30,120,0.0,0.0
3496,65.0,0,120,0.0,0.0
3497,71.0,0,120,0.0,0.0
3498,62.0,0,120,0.0,0.0
3499,60.0,0,120,0.0,0.0
3500,64.0,0,120,0.0,0.0
3501,67.0,0,0,0.0,0.0
3502,86.0,30,30,0.0,0.0
3503,84.0,30,30,0.0,0.0
3504,83.0,30,30,0.0,0.0
3505,84.0,120,30,0.0,0.0
3506,74.0,0,120,0.0,0.0
3507,79.0,0,120,0.0,0.0
3508,86.0,0,120,0.0,0.0
3509,67.0,0,0,0.0,0.0
3510,62.0,120,120,0.0,0.0
3511,59.0,0,120,0.0,0.0
3512,55.0,90,120,0.0,0.0
3513,79.0,30,90,0.0,0.0
3514,84.0,120,30,0.0,0.0
3515,88.0,0,240,0.0,0.0
3516,48.0,0,120,1.0,0.0
3517,60.0,120,120,1.0,0.0
3518,60.0,120,120,0.0,0.0
3519,67.0,0,120,0.0,0.0
3520,76.0,0,0,0.0,0.0
3521,68.0,0,120,0.0,0.0
3522,64.0,0,0,0.0,0.0
3523,62.0,120,120,0.0,0.0
3524,59.0,0,120,0.0,0.0
3525,88.0,0,120,0.0,0.0
3526,57.0,0,120,0.0,0.0
3527,60.0,120,120,0.0,0.0
3528,64.0,0,0,0.0,0.0
3529,69.0,0,120,0.0,0.0
3530,76.0,0,120,0.0,0.0
3531,88.0,0,120,0.0,0.0
3532,59.0,0,120,0.0,0.0
3533,62.0,0,120,0.0,0.0
3534,64.0,0,0,0.0,0.0
3535,68.0,0,120,0.0,0.0
3536,86.0,0,120,0.0,0.0
3537,74.0,120,120,0.0,0.0
3538,72.0,120,120,0.0,0.0
3539,60.0,0,120,0.0,0.0
3540,64.0,0,0,0.0,0.0
3541,69.0,0,120,0.0,0.0
3542,84.0,0,120,0.0,0.0
3543,83.0,120,120,0.0,0.0
3544,71.0,0,120,0.0,0.0
3545,67.0,0,120,0.0,0.0
3546,62.0,0,240,0.0,0.0
3547,84.0,0,120,0.0,0.0
3548,72.0,120,120,0.0,0.0
3549,69.0,0,120,0.0,0.0
3550,69.0,120,120,0.0,0.0
3551,81.0,0,120,0.0,0.0
3552,66.0,0,120,0.0,0.0
3553,62.0,0,120,0.0,0.0
3554,79.0,0,120,0.0,0.0
3555,67.0,0,120,0.0,0.0
3556,55.0,120,120,1.0,0.0
3557,43.0,90,120,1.0,0.0
3558,79.0,30,90,0.0,0.0
3559,84.0,120,30,0.0,0.0
3560,48.0,0,120,1.0,0.0
3561,60.0,120,120,1.0,0.0
3562,88.0,0,240,0.0,0.0
3563,79.0,0,240,0.0,0.0
3564,76.0,0,240,0.0,0.0
3565,60.0,120,0,0.0,0.0
3566,77.0,0,120,0.0,0.0
3567,86.0,0,120,0.0,0.0
3568,74.0,0,120,0.0,0.0
3569,72.0,0,0,0.0,0.0
3570,72.0,0,0,0.0,0.0
3571,60.0,120,0,0.0,0.0
3572,60.0,120,0,0.0,0.0
3573,84.0,0,0,0.0,0.0
3574,76.0,0,0,0.0,0.0
3575,67.0,0,120,0.0,0.0
3576,71.0,0,120,0.0,0.0
3577,76.0,120,0,0.0,0.0
3578,60.0,0,0,0.0,0.0
3579,65.0,120,120,0.0,0.0
3580,69.0,0,120,0.0,0.0
3581,84.0,0,0,0.0,0.0
3582,84.0,0,0,0.0,0.0
3583,72.0,120,120,0.0,0.0
3584,64.0,0,120,0.0,0.0
3585,60.0,0,0,0.0,0.0
3586,65.0,0,120,0.0,0.0
3587,83.0,0,120,0.0,0.0
3588,62.0,0,120,0.0,0.0
3589,67.0,0,0,0.0,0.0
3590,71.0,30,120,0.0,0.0
3591,86.0,30,30,0.0,0.0
3592,64.0,0,120,0.0,0.0
3593,60.0,0,120,0.0,0.0
3594,84.0,30,30,0.0,0.0
3595,83.0,30,30,0.0,0.0
3596,84.0,0,30,0.0,0.0
3597,67.0,120,0,0.0,0.0
3598,59.0,0,120,0.0,0.0
3599,62.0,0,120,0.0,0.0
3600,86.0,0,120,0.0,0.0
3601,79.0,0,120,0.0,0.0
3602,74.0,0,120,0.0,0.0
3603,55.0,90,120,0.0,0.0
3604,79.0,30,90,0.0,0.0
3605,84.0,120,30,0.0,0.0
3606,60.0,0,120,1.0,0.0
3607,88.0,0,240,0.0,0.0
3608,48.0,120,120,1.0,0.0
3609,76.0,0,240,0.0,0.0
3610,67.0,0,120,0.0,0.0
3611,64.0,120,120,0.0,0.0
3612,60.0,0,120,0.0,0.0
3613,62.0,0,120,0.0,0.0
3614,59.0,0,120,0.0,0.0
3615,68.0,120,120,0.0,0.0
3616,88.0,0,120,0.0,0.0
3617,88.0,0,120,0.0,0.0
3618,69.0,0,120,0.0,0.0
3619,64.0,0,0,0.0,0.0
3620,60.0,0,120,0.0,0.0
3621,57.0,0,120,0.0,0.0
3622,76.0,0,0,0.0,0.0
3623,59.0,0,120,0.0,0.0
3624,62.0,0,120,0.0,0.0
3625,64.0,120,0,0.0,0.0
3626,86.0,0,120,0.0,0.0
3627,74.0,120,120,0.0,0.0
3628,68.0,0,120,0.0,0.0
3629,72.0,0,120,0.0,0.0
3630,84.0,0,120,0.0,0.0
3631,69.0,0,120,0.0,0.0
3632,64.0,120,120,0.0,0.0
3633,60.0,0,120,0.0,0.0
3634,67.0,0,120,0.0,0.0
3635,62.0,0,240,0.0,0.0
3636,71.0,0,120,0.0,0.0
3637,83.0,120,120,0.0,0.0
3638,72.0,0,120,0.0,0.0
3639,84.0,120,120,0.0,0.0
3640,69.0,0,0,0.0,0.0
3641,81.0,0,120,0.0,0.0
3642,62.0,0,120,0.0,0.0
3643,66.0,0,120,0.0,0.0
3644,55.0,0,120,1.0,0.0
3645,67.0,0,120,0.0,0.0
3646,79.0,120,120,0.0,0.0
3647,43.0,90,120,1.0,0.0
3648,79.0,30,90,0.0,0.0
3649,86.0,60,30,0.0,0.0
3650,59.0,60,60,1.0,0.0
3651,62.0,0,60,1.0,0.0
3652,89.0,0,120,0.0,0.0
3653,55.0,60,60,1.0,0.0
3654,77.0,0,0,0.0,0.0
3655,89.0,0,60,0.0,0.0
3656,62.0,60,60,1.0,0.0
3657,59.0,0,60,1.0,0.0
3658,76.0,0,60,0.0,0.0
3659,88.0,60,60,0.0,0.0
3660,55.0,0,60,1.0,0.0
3661,64.0,0,60,1.0,0.0
3662,60.0,0,60,1.0,0.0
3663,86.0,60,60,0.0,0.0
3664,74.0,0,60,0.0,0.0
3665,84.0,0,60,0.0,0.0
3666,72.0,0,60,0.0,0.0
3667,55.0,60,60,1.0,0.0
3668,72.0,0,120,0.0,0.0
3669,62.0,60,60,1.0,0.0
3670,59.0,0,60,1.0,0.0
3671,84.0,0,120,0.0,0.0
3672,55.0,60,60,1.0,0.0
3673,62.0,60,60,1.0,0.0
3674,59.0,0,60,1.0,0.0
3675,83.0,0,120,0.0,0.0
3676,71.0,0,120,0.0,0.0
3677,55.0,60,60,1.0,0.0
3678,60.0,0,60,1.0,0.0
3679,72.0,60,60,0.0,0.0
3680,84.0,0,60,0.0,0.0
3681,64.0,0,60,1.0,0.0
3682,91.0,0,60,0.0,0.0
3683,79.0,0,60,0.0,0.0
3684,55.0,60,60,1.0,0.0
3685,91.0,0,60,0.0,0.0
3686,59.0,0,60,1.0,0.0
3687,79.0,0,60,0.0,0.0
3688,62.0,60,60,1.0,0.0
3689,55.0,60,60,1.0,0.0
3690,77.0,0,60,0.0,0.0
3691,89.0,0,0,0.0,0.0
3692,76.0,0,60,0.0,0.0
3693,62.0,60,60,1.0,0.0
3694,59.0,0,60,1.0,0.0
3695,88.0,0,60,0.0,0.0
3696,55.0,0,60,1.0,0.0
3697,74.0,60,60,0.0,0.0
3698,60.0,0,60,1.0,0.0
3699,64.0,60,60,1.0,0.0
3700,72.0,0,60,0.0,0.0
3701,86.0,0,60,0.0,0.0
3702,71.0,0,60,0.0,0.0
3703,55.0,0,60,1.0,0.0
3704,62.0,0,60,1.0,0.0
3705,65.0,60,60,1.0,0.0
3706,72.0,0,120,0.0,0.0
3707,84.0,60,0,0.0,0.0
3708,64.0,60,60,1.0,0.0
3709,61.0,0,60,1.0,0.0
3710,83.0,0,120,0.0,0.0
3711,65.0,60,60,1.0,0.0
3712,71.0,60,120,0.0,0.0
3713,62.0,0,60,1.0,0.0
3714,61.0,0,60,1.0,0.0
3715,64.0,0,60,1.0,0.0
3716,79.0,30,90,0.0,0.0
3717,65.0,0,60,1.0,0.0
3718,62.0,30,0,1.0,0.0
3719,59.0,0,60,1.0,0.0
3720,84.0,120,30,0.0,0.0
3721,76.0,0,240,0.0,0.0
3722,79.0,120,240,0.0,0.0
3723,88.0,0,240,0.0,0.0
3724,48.0,0,0,1.0,0.0
3725,60.0,120,0,1.0,0.0
3726,77.0,0,120,0.0,0.0
3727,74.0,0,120,0.0,0.0
3728,86.0,0,120,0.0,0.0
3729,60.0,0,0,1.0,0.0
3730,48.0,120,0,1.0,0.0
3731,76.0,0,120,0.0,0.0
3732,84.0,120,120,0.0,0.0
3733,56.0,0,120,1.0,0.0
3734,72.0,0,0,0.0,0.0
3735,84.0,0,120,0.0,0.0
3736,44.0,0,120,1.0,0.0
3737,72.0,0,0,0.0,0.0
3738,57.0,0,120,1.0,0.0
3739,45.0,120,120,1.0,0.0
3740,76.0,120,0,0.0,0.0
3741,41.0,0,120,1.0,0.0
3742,53.0,120,120,1.0,0.0
3743,84.0,0,0,0.0,0.0
3744,72.0,0,120,0.0,0.0
3745,81.0,0,0,0.0,0.0
3746,38.0,0,120,1.0,0.0
3747,50.0,0,120,1.0,0.0
3748,86.0,120,120,0.0,0.0
3749,43.0,0,120,1.0,0.0
3750,55.0,120,120,1.0,0.0
3751,77.0,0,0,0.0,0.0
3752,83.0,0,120,0.0,0.0
3753,74.0,0,120,0.0,0.0
3754,76.0,120,120,0.0,0.0
3755,84.0,0,120,0.0,0.0
3756,36.0,0,120,1.0,0.0
3757,72.0,0,120,0.0,0.0
3758,48.0,0,0,1.0,0.0
3759,60.0,0,120,1.0,0.0
3760,79.0,30,90,0.0,0.0
3761,86.0,60,30,0.0,0.0
3762,59.0,60,60,1.0,0.0
3763,62.0,0,60,1.0,0.0
3764,55.0,0,60,1.0,0.0
3765,77.0,0,0,0.0,0.0
3766,89.0,60,0,0.0,0.0
3767,59.0,0,60,1.0,0.0
3768,62.0,0,60,1.0,0.0
3769,55.0,0,60,1.0,0.0
3770,88.0,60,60,0.0,0.0
3771,76.0,0,60,0.0,0.0
3772,60.0,0,60,1.0,0.0
3773,64.0,0,60,1.0,0.0
3774,74.0,0,60,0.0,0.0
3775,86.0,60,60,0.0,0.0
3776,55.0,0,60,1.0,0.0
3777,84.0,60,60,0.0,0.0
3778,59.0,60,60,1.0,0.0
3779,62.0,0,60,1.0,0.0
3780,72.0,0,0,0.0,0.0
3781,84.0,60,120,0.0,0.0
3782,55.0,0,60,1.0,0.0
3783,83.0,60,120,0.0,0.0
3784,59.0,0,60,1.0,0.0
3785,71.0,0,120,0.0,0.0
3786,62.0,60,60,1.0,0.0
3787,55.0,0,60,1.0,0.0
3788,60.0,0,60,1.0,0.0
3789,72.0,60,60,0.0,0.0
3790,84.0,0,60,0.0,0.0
3791,64.0,0,60,1.0,0.0
3792,55.0,0,60,1.0,0.0
3793,91.0,0,60,0.0,0.0
3794,62.0,0,60,1.0,0.0
3795,59.0,60,60,1.0,0.0
3796,79.0,60,0,0.0,0.0
3797,91.0,0,60,0.0,0.0
3798,55.0,0,60,1.0,0.0
3799,77.0,60,60,0.0,0.0
3800,89.0,0,60,0.0,0.0
3801,76.0,0,60,0.0,0.0
3802,89.0,0,60,0.0,0.0
3803,59.0,60,60,1.0,0.0
3804,62.0,0,60,1.0,0.0
3805,55.0,0,60,1.0,0.0
3806,88.0,0,60,0.0,0.0
3807,74.0,60,60,0.0,0.0
3808,60.0,0,60,1.0,0.0
3809,64.0,60,60,1.0,0.0
3810,86.0,0,60,0.0,0.0
3811,72.0,0,60,0.0,0.0
3812,84.0,0,60,0.0,0.0
3813,71.0,0,60,0.0,0.0
3814,55.0,60,60,1.0,0.0
3815,62.0,60,60,1.0,0.0
3816,65.0,0,60,1.0,0.0
3817,72.0,0,120,0.0,0.0
3818,84.0,60,120,0.0,0.0
3819,64.0,0,60,1.0,0.0
3820,61.0,0,60,1.0,0.0
3821,62.0,0,60,1.0,0.0
3822,65.0,60,60,1.0,0.0
3823,83.0,0,120,0.0,0.0
3824,71.0,0,120,0.0,0.0
3825,64.0,60,60,1.0,0.0
3826,61.0,0,60,1.0,0.0
3827,79.0,30,90,0.0,0.0
3828,65.0,30,60,1.0,0.0
3829,62.0,0,60,1.0,0.0
3830,59.0,0,60,1.0,0.0
3831,62.0,120,60,1.0,0.0
3832,84.0,0,30,0.0,0.0
3833,76.0,0,240,0.0,0.0
3834,79.0,0,240,0.0,0.0
3835,88.0,0,240,0.0,0.0
3836,48.0,120,0,1.0,0.0
3837,60.0,0,0,1.0,0.0
3838,74.0,120,120,0.0,0.0
3839,77.0,0,120,0.0,0.0
3840,86.0,0,120,0.0,0.0
3841,60.0,0,120,1.0,0.0
3842,48.0,0,120,1.0,0.0
3843,48.0,120,120,1.0,0.0
3844,60.0,0,120,1.0,0.0
3845,76.0,0,120,0.0,0.0
3846,72.0,0,0,0.0,0.0
3847,84.0,0,0,0.0,0.0
3848,56.0,0,120,1.0,0.0
3849,44.0,0,120,1.0,0.0
3850,76.0,0,120,0.0,0.0
3851,57.0,0,120,1.0,0.0
3852,72.0,120,0,0.0,0.0
3853,76.0,0,120,0.0,0.0
3854,84.0,0,0,0.0,0.0
3855,45.0,0,120,1.0,0.0
3856,72.0,0,120,0.0,0.0
3857,81.0,0,120,0.0,0.0
3858,84.0,120,0,0.0,0.0
3859,53.0,0,120,1.0,0.0
3860,41.0,0,120,1.0,0.0
3861,50.0,0,120,1.0,0.0
3862,86.0,0,120,0.0,0.0
3863,81.0,0,120,0.0,0.0
3864,38.0,120,120,1.0,0.0
3865,43.0,0,120,1.0,0.0
3866,77.0,0,0,0.0,0.0
3867,74.0,120,120,0.0,0.0
3868,55.0,0,120,1.0,0.0
3869,83.0,0,120,0.0,0.0
3870,36.0,0,120,1.0,0.0
3871,72.0,0,120,0.0,0.0
3872,84.0,0,120,0.0,0.0
3873,76.0,120,120,0.0,0.0
3874,48.0,0,0,1.0,0.0
3875,60.0,0,120,1.0,0.0
3876,43.0,0,0,1.0,0.0
3877,55.0,30,0,0.0,0.0
3878,60.0,0,120,0.0,0.0
3879,48.0,120,120,1.0,0.0
3880,72.0,90,120,0.0,0.0
3881,67.0,0,0,0.0,0.0
3882,60.0,0,0,1.0,0.0
3883,52.0,0,0,1.0,0.0
3884,72.0,0,90,0.0,0.0
3885,52.0,30,0,1.0,0.0
3886,60.0,0,0,1.0,0.0
3887,72.0,0,30,0.0,0.0
3888,67.0,0,30,0.0,0.0
3889,55.0,0,120,1.0,0.0
3890,62.0,0,120,1.0,0.0
3891,71.0,60,120,0.0,0.0
3892,74.0,0,120,0.0,0.0
3893,67.0,0,60,0.0,0.0
3894,72.0,0,60,0.0,0.0
3895,60.0,0,60,1.0,0.0
3896,52.0,150,60,1.0,0.0
3897,43.0,0,0,1.0,0.0
3898,55.0,30,0,0.0,0.0
3899,60.0,120,120,0.0,0.0
3900,48.0,0,120,1.0,0.0
3901,72.0,0,120,0.0,0.0
3902,76.0,0,120,0.0,0.0
3903,60.0,0,120,1.0,0.0
3904,72.0,30,90,0.0,0.0
3905,76.0,0,90,0.0,0.0
3906,60.0,0,90,1.0,0.0
3907,64.0,90,0,1.0,0.0
3908,60.0,0,30,1.0,0.0
3909,64.0,120,30,1.0,0.0
3910,76.0,0,30,0.0,0.0
3911,72.0,0,30,0.0,0.0
3912,77.0,0,120,0.0,0.0
3913,55.0,0,120,1.0,0.0
3914,62.0,60,120,1.0,0.0
3915,71.0,0,120,0.0,0.0
3916,72.0,0,60,0.0,0.0
3917,76.0,0,60,0.0,0.0
3918,64.0,150,60,1.0,0.0
3919,60.0,0,60,1.0,0.0
3920,72.0,0,90,0.0,0.0
3921,60.0,30,0,0.0,0.0
3922,72.0,0,30,0.0,0.0
3923,57.0,120,120,0.0,0.0
3924,69.0,0,120,0.0,0.0
3925,84.0,0,120,0.0,0.0
3926,76.0,0,120,0.0,0.0
3927,66.0,0,90,0.0,0.0
3928,84.0,0,120,0.0,0.0
3929,81.0,90,0,0.0,0.0
3930,74.0,0,120,0.0,0.0
3931,54.0,30,0,0.0,0.0
3932,66.0,0,30,0.0,0.0
3933,55.0,120,120,0.0,0.0
3934,67.0,0,120,0.0,0.0
3935,83.0,90,120,0.0,0.0
3936,74.0,0,120,0.0,0.0
3937,79.0,0,0,0.0,0.0
3938,71.0,0,120,0.0,0.0
3939,49.0,30,90,1.0,0.0
3940,61.0,0,90,1.0,0.0
3941,61.0,120,30,1.0,0.0
3942,49.0,0,30,1.0,0.0
3943,50.0,0,120,1.0,0.0
3944,62.0,120,120,1.0,0.0
3945,79.0,0,120,0.0,0.0
3946,71.0,90,120,0.0,0.0
3947,62.0,0,90,1.0,0.0
3948,74.0,0,0,0.0,0.0
3949,69.0,0,120,0.0,0.0
3950,72.0,0,120,0.0,0.0
3951,50.0,30,90,1.0,0.0
3952,78.0,120,120,0.0,0.0
3953,62.0,0,30,1.0,0.0
3954,50.0,0,30,1.0,0.0
3955,79.0,210,120,0.0,0.0
3956,43.0,0,120,1.0,0.0
3957,55.0,0,120,1.0,0.0
3958,74.0,0,0,0.0,0.0
3959,67.0,0,120,0.0,0.0
3960,71.0,0,120,0.0,0.0
3961,55.0,0,90,0.0,0.0
3962,43.0,30,0,1.0,0.0
3963,55.0,120,30,0.0,0.0
3964,60.0,120,120,0.0,0.0
3965,48.0,0,120,1.0,0.0
3966,72.0,90,120,0.0,0.0
3967,67.0,0,120,0.0,0.0
3968,60.0,0,0,1.0,0.0
3969,52.0,0,0,1.0,0.0
3970,72.0,30,0,0.0,0.0
3971,67.0,0,0,0.0,0.0
3972,52.0,0,30,1.0,0.0
3973,60.0,120,30,1.0,0.0
3974,71.0,0,120,0.0,0.0
3975,62.0,60,120,1.0,0.0
3976,74.0,0,120,0.0,0.0
3977,55.0,0,120,1.0,0.0
3978,60.0,0,60,1.0,0.0
3979,52.0,0,60,1.0,0.0
3980,67.0,0,60,0.0,0.0
3981,72.0,150,60,0.0,0.0
3982,55.0,0,90,0.0,0.0
3983,43.0,30,0,1.0,0.0
3984,55.0,120,30,0.0,0.0
3985,48.0,0,120,1.0,0.0
3986,60.0,120,120,0.0,0.0
3987,72.0,90,0,0.0,0.0
3988,76.0,0,0,0.0,0.0
3989,60.0,0,0,1.0,0.0
3990,64.0,0,0,1.0,0.0
3991,60.0,0,30,1.0,0.0
3992,64.0,120,30,1.0,0.0
3993,76.0,0,30,0.0,0.0
3994,72.0,0,30,0.0,0.0
3995,71.0,60,120,0.0,0.0
3996,77.0,0,120,0.0,0.0
3997,55.0,0,120,1.0,0.0
3998,62.0,0,120,1.0,0.0
3999,76.0,150,60,0.0,0.0
4000,64.0,0,60,1.0,0.0
4001,72.0,0,60,0.0,0.0
4002,60.0,0,60,1.0,0.0
4003,72.0,0,90,0.0,0.0
4004,60.0,30,0,0.0,0.0
4005,72.0,0,30,0.0,0.0
4006,57.0,120,120,0.0,0.0
4007,69.0,0,120,0.0,0.0
4008,81.0,0,120,0.0,0.0
4009,76.0,90,120,0.0,0.0
4010,84.0,0,0,0.0,0.0
4011,81.0,0,120,0.0,0.0
4012,74.0,0,120,0.0,0.0
4013,66.0,30,0,0.0,0.0
4014,54.0,0,0,0.0,0.0
4015,67.0,120,120,0.0,0.0
4016,55.0,0,120,0.0,0.0
4017,74.0,90,120,0.0,0.0
4018,83.0,0,120,0.0,0.0
4019,79.0,0,0,0.0,0.0
4020,61.0,30,90,1.0,0.0
4021,71.0,0,120,0.0,0.0
4022,49.0,0,0,1.0,0.0
4023,61.0,0,30,1.0,0.0
4024,62.0,120,120,1.0,0.0
4025,50.0,0,120,1.0,0.0
4026,71.0,0,120,0.0,0.0
4027,79.0,0,120,0.0,0.0
4028,50.0,0,90,1.0,0.0
4029,78.0,0,120,0.0,0.0
4030,74.0,90,0,0.0,0.0
4031,69.0,0,120,0.0,0.0
4032,72.0,120,120,0.0,0.0
4033,50.0,0,30,1.0,0.0
4034,62.0,30,0,1.0,0.0
4035,71.0,0,120,0.0,0.0
4036,79.0,0,120,0.0,0.0
4037,74.0,0,120,0.0,0.0
4038,67.0,0,120,0.0,0.0
4039,43.0,210,120,1.0,0.0
4040,55.0,0,120,1.0,0.0
4041,43.0,30,90,1.0,0.0
4042,55.0,0,0,0.0,0.0
4043,43.0,120,30,1.0,0.0
4044,44.0,0,120,1.0,0.0
4045,56.0,60,120,0.0,0.0
4046,43.0,0,60,1.0,0.0
4047,55.0,150,60,0.0,0.0
4048,79.0,0,90,0.0,0.0
4049,55.0,0,90,1.0,0.0
4050,71.0,0,0,0.0,0.0
4051,62.0,30,0,1.0,0.0
4052,55.0,0,30,1.0,0.0
4053,79.0,120,30,0.0,0.0
4054,60.0,0,120,1.0,0.0
4055,56.0,0,120,1.0,0.0
4056,72.0,60,120,0.0,0.0
4057,78.0,0,120,0.0,0.0
4058,62.0,0,60,1.0,0.0
4059,55.0,0,60,1.0,0.0
4060,79.0,150,60,0.0,0.0
4061,71.0,0,60,0.0,0.0
4062,43.0,0,90,1.0,0.0
4063,55.0,30,0,0.0,0.0
4064,43.0,120,30,1.0,0.0
4065,54.0,0,120,0.0,0.0
4066,42.0,60,120,1.0,0.0
4067,55.0,0,60,0.0,0.0
4068,43.0,150,60,1.0,0.0
4069,55.0,30,90,1.0,0.0
4070,62.0,0,90,1.0,0.0
4071,79.0,0,0,0.0,0.0
4072,71.0,0,0,0.0,0.0
4073,62.0,0,30,1.0,0.0
4074,55.0,0,30,1.0,0.0
4075,54.0,0,120,1.0,0.0
4076,63.0,60,120,1.0,0.0
4077,81.0,0,120,0.0,0.0
4078,72.0,0,120,0.0,0.0
4079,79.0,0,60,0.0,0.0
4080,71.0,150,60,0.0,0.0
4081,62.0,0,60,1.0,0.0
4082,55.0,0,60,1.0,0.0
4083,55.0,30,90,0.0,0.0
4084,67.0,0,90,0.0,0.0
4085,55.0,120,30,0.0,0.0
4086,67.0,0,30,0.0,0.0
4087,60.0,120,120,0.0,0.0
4088,72.0,0,120,0.0,0.0
4089,76.0,0,0,0.0,0.0
4090,69.0,0,90,0.0,0.0
4091,72.0,0,0,0.0,0.0
4092,84.0,90,0,0.0,0.0
4093,57.0,30,0,0.0,0.0
4094,69.0,120,30,0.0,0.0
4095,53.0,120,120,0.0,0.0
4096,65.0,0,120,0.0,0.0
4097,74.0,0,120,0.0,0.0
4098,84.0,0,0,0.0,0.0
4099,75.0,0,120,0.0,0.0
4100,72.0,90,0,0.0,0.0
4101,66.0,0,90,0.0,0.0
4102,81.0,0,0,0.0,0.0
4103,54.0,30,90,0.0,0.0
4104,54.0,120,30,0.0,0.0
4105,66.0,0,30,0.0,0.0
4106,67.0,0,120,0.0,0.0
4107,55.0,120,120,0.0,0.0
4108,76.0,0,120,0.0,0.0
4109,84.0,0,120,0.0,0.0
4110,72.0,0,120,0.0,0.0
4111,79.0,90,120,0.0,0.0
4112,43.0,30,90,1.0,0.0
4113,77.0,0,120,0.0,0.0
4114,55.0,0,90,1.0,0.0
4115,83.0,0,120,0.0,0.0
4116,74.0,0,120,0.0,0.0
4117,79.0,120,120,0.0,0.0
4118,43.0,0,30,1.0,0.0
4119,55.0,0,30,1.0,0.0
4120,36.0,0,120,1.0,0.0
4121,48.0,0,120,1.0,0.0
4122,84.0,210,120,0.0,0.0
4123,72.0,0,120,0.0,0.0
4124,76.0,0,120,0.0,0.0
4125,79.0,0,120,0.0,0.0
4126,43.0,0,0,1.0,0.0
4127,55.0,30,0,0.0,0.0
4128,44.0,60,120,1.0,0.0
4129,56.0,0,120,0.0,0.0
4130,55.0,0,60,0.0,0.0
4131,43.0,150,60,1.0,0.0
4132,62.0,0,0,1.0,0.0
4133,55.0,0,0,1.0,0.0
4134,79.0,30,0,0.0,0.0
4135,71.0,0,0,0.0,0.0
4136,56.0,60,120,1.0,0.0
4137,78.0,0,120,0.0,0.0
4138,60.0,0,120,1.0,0.0
4139,72.0,0,120,0.0,0.0
4140,71.0,150,60,0.0,0.0
4141,79.0,0,60,0.0,0.0
4142,62.0,0,60,1.0,0.0
4143,55.0,0,60,1.0,0.0
4144,43.0,30,90,1.0,0.0
4145,55.0,0,0,0.0,0.0
4146,43.0,0,30,1.0,0.0
4147,42.0,0,120,1.0,0.0
4148,54.0,60,120,0.0,0.0
4149,43.0,0,60,1.0,0.0
4150,55.0,150,60,0.0,0.0
4151,71.0,0,90,0.0,0.0
4152,79.0,0,90,0.0,0.0
4153,55.0,30,90,1.0,0.0
4154,62.0,0,90,1.0,0.0
4155,71.0,0,30,0.0,0.0
4156,79.0,0,30,0.0,0.0
4157,55.0,120,30,1.0,0.0
4158,62.0,0,30,1.0,0.0
4159,81.0,0,120,0.0,0.0
4160,72.0,60,120,0.0,0.0
4161,54.0,0,120,1.0,0.0
4162,63.0,0,120,1.0,0.0
4163,62.0,0,60,1.0,0.0
4164,55.0,150,60,1.0,0.0
4165,79.0,0,60,0.0,0.0
4166,71.0,0,60,0.0,0.0
4167,55.0,30,90,0.0,0.0
4168,67.0,0,90,0.0,0.0
4169,55.0,120,30,0.0,0.0
4170,67.0,0,30,0.0,0.0
4171,60.0,0,120,0.0,0.0
4172,72.0,120,0,0.0,0.0
4173,76.0,0,120,0.0,0.0
4174,84.0,90,120,0.0,0.0
4175,57.0,0,90,0.0,0.0
4176,72.0,0,120,0.0,0.0
4177,76.0,0,120,0.0,0.0
4178,84.0,0,120,0.0,0.0
4179,57.0,0,30,0.0,0.0
4180,69.0,30,0,0.0,0.0
4181,65.0,0,120,0.0,0.0
4182,53.0,120,120,0.0,0.0
4183,74.0,0,120,0.0,0.0
4184,84.0,90,0,0.0,0.0
4185,81.0,0,0,0.0,0.0
4186,75.0,120,120,0.0,0.0
4187,72.0,0,0,0.0,0.0
4188,54.0,0,90,0.0,0.0
4189,66.0,30,0,0.0,0.0
4190,54.0,0,30,0.0,0.0
4191,55.0,0,120,0.0,0.0
4192,67.0,120,120,0.0,0.0
4193,72.0,0,120,0.0,0.0
4194,76.0,90,120,0.0,0.0
4195,84.0,0,120,0.0,0.0
4196,79.0,0,120,0.0,0.0
4197,77.0,0,120,0.0,0.0
4198,74.0,0,120,0.0,0.0
4199,83.0,0,120,0.0,0.0
4200,79.0,0,120,0.0,0.0
4201,43.0,30,90,1.0,0.0
4202,55.0,0,0,1.0,0.0
4203,43.0,0,30,1.0,0.0
4204,72.0,0,120,0.0,0.0
4205,76.0,0,120,0.0,0.0
4206,79.0,240,120,0.0,0.0
4207,84.0,0,120,0.0,0.0
4208,48.0,0,120,1.0,0.0
4209,36.0,0,120,1.0,0.0
