tick,type,numerator,denominator,clocks_per_click,notated_32nd_notes_per_beat,time,meta,track,tempo,program,channel,control,value,note,velocity
0,time_signature,4,4,24,8,0,1,0,,,,,,,
0,note_on,,,,,0,0,1,,,0,,,72,104
0,note_on,,,,,0,0,1,,,0,,,84,104
0,note_on,,,,,0,0,1,,,0,,,79,104
0,note_on,,,,,0,0,1,,,0,,,76,104
0,control_change,,,,,0,0,1,,,0,7,127,,
0,track_name,,,,,0,1,2,,,,,,,
0,track_name,,,,,0,1,1,,,,,,,
0,program_change,,,,,0,0,1,,0,0,,,,
0,note_on,,,,,0,0,2,,,1,,,55,104
0,note_on,,,,,0,0,2,,,1,,,48,104
0,note_on,,,,,0,0,2,,,1,,,64,104
0,control_change,,,,,0,0,2,,,1,7,127,,
0,program_change,,,,,0,0,2,,0,1,,,,
0,set_tempo,,,,,0,1,0,428571,,,,,,
0,note_on,,,,,0,0,2,,,1,,,60,104
288,note_off,,,,,0,0,2,,,1,,,48,64
288,note_off,,,,,0,0,2,,,1,,,64,64
288,note_off,,,,,0,0,2,,,1,,,55,64
288,note_off,,,,,288,0,2,,,1,,,60,64
288,note_off,,,,,0,0,1,,,0,,,76,64
288,note_off,,,,,0,0,1,,,0,,,79,64
288,note_off,,,,,0,0,1,,,0,,,84,64
288,note_off,,,,,288,0,1,,,0,,,72,64
360,note_on,,,,,72,0,1,,,0,,,64,104
360,note_on,,,,,0,0,2,,,1,,,48,104
360,note_on,,,,,0,0,2,,,1,,,36,104
360,note_on,,,,,72,0,2,,,1,,,43,104
360,note_on,,,,,0,0,1,,,0,,,60,104
360,note_on,,,,,0,0,1,,,0,,,52,104
456,note_off,,,,,96,0,2,,,1,,,48,64
456,note_off,,,,,0,0,1,,,0,,,64,64
456,note_off,,,,,0,0,1,,,0,,,60,64
456,note_off,,,,,0,0,2,,,1,,,36,64
456,note_off,,,,,0,0,2,,,1,,,43,64
456,note_off,,,,,96,0,1,,,0,,,52,64
480,note_on,,,,,24,0,2,,,1,,,48,104
480,note_on,,,,,0,0,1,,,0,,,52,104
480,note_on,,,,,0,0,2,,,1,,,43,104
480,note_on,,,,,24,0,1,,,0,,,60,104
480,note_on,,,,,0,0,2,,,1,,,36,104
480,note_on,,,,,0,0,1,,,0,,,64,104
672,note_off,,,,,192,0,2,,,1,,,43,64
672,note_off,,,,,0,0,2,,,1,,,36,64
672,note_off,,,,,0,0,2,,,1,,,48,64
705,note_off,,,,,225,0,1,,,0,,,64,64
705,note_off,,,,,0,0,1,,,0,,,52,64
705,note_off,,,,,0,0,1,,,0,,,60,64
720,note_on,,,,,15,0,1,,,0,,,53,104
720,note_on,,,,,0,0,2,,,1,,,38,104
720,note_on,,,,,48,0,2,,,1,,,50,104
720,note_on,,,,,0,0,1,,,0,,,60,104
720,note_on,,,,,0,0,1,,,0,,,65,104
816,note_off,,,,,0,0,2,,,1,,,50,64
816,note_off,,,,,96,0,2,,,1,,,38,64
816,note_off,,,,,0,0,1,,,0,,,53,64
816,note_off,,,,,0,0,1,,,0,,,60,64
816,note_off,,,,,96,0,1,,,0,,,65,64
840,note_on,,,,,0,0,2,,,1,,,40,104
840,note_on,,,,,0,0,2,,,1,,,52,104
840,note_on,,,,,0,0,1,,,0,,,55,104
840,note_on,,,,,0,0,1,,,0,,,67,104
840,note_on,,,,,24,0,1,,,0,,,60,104
840,note_on,,,,,24,0,2,,,1,,,48,104
936,note_off,,,,,96,0,1,,,0,,,67,64
936,note_off,,,,,0,0,1,,,0,,,55,64
936,note_off,,,,,0,0,1,,,0,,,60,64
936,note_off,,,,,0,0,2,,,1,,,48,64
936,note_off,,,,,0,0,2,,,1,,,52,64
936,note_off,,,,,96,0,2,,,1,,,40,64
960,note_on,,,,,0,0,1,,,0,,,60,104
960,note_on,,,,,24,0,1,,,0,,,69,104
960,note_on,,,,,0,0,2,,,1,,,53,104
960,note_on,,,,,0,0,2,,,1,,,48,104
960,note_on,,,,,24,0,2,,,1,,,41,104
960,note_on,,,,,0,0,1,,,0,,,57,104
1152,note_off,,,,,0,0,1,,,0,,,57,64
1152,note_off,,,,,0,0,2,,,1,,,48,64
1152,note_off,,,,,0,0,2,,,1,,,41,64
1152,note_off,,,,,192,0,1,,,0,,,60,64
1152,note_off,,,,,0,0,1,,,0,,,69,64
1152,note_off,,,,,192,0,2,,,1,,,53,64
1200,note_on,,,,,48,0,2,,,1,,,48,104
1200,note_on,,,,,0,0,2,,,1,,,52,104
1200,note_on,,,,,0,0,2,,,1,,,40,104
1200,note_on,,,,,48,0,1,,,0,,,55,104
1200,note_on,,,,,0,0,1,,,0,,,60,104
1200,note_on,,,,,0,0,1,,,0,,,67,104
1392,note_off,,,,,0,0,1,,,0,,,55,64
1392,note_off,,,,,0,0,1,,,0,,,60,64
1392,note_off,,,,,0,0,2,,,1,,,48,64
1392,note_off,,,,,0,0,2,,,1,,,52,64
1392,note_off,,,,,192,0,2,,,1,,,40,64
1392,note_off,,,,,192,0,1,,,0,,,67,64
1800,note_on,,,,,0,0,2,,,1,,,48,104
1800,note_on,,,,,408,0,2,,,1,,,43,104
1800,note_on,,,,,0,0,2,,,1,,,36,104
1800,note_on,,,,,408,0,1,,,0,,,52,104
1800,note_on,,,,,0,0,1,,,0,,,60,104
1800,note_on,,,,,0,0,1,,,0,,,64,104
1896,note_off,,,,,96,0,2,,,1,,,48,64
1896,note_off,,,,,0,0,2,,,1,,,43,64
1896,note_off,,,,,0,0,2,,,1,,,36,64
1896,note_off,,,,,0,0,1,,,0,,,60,64
1896,note_off,,,,,96,0,1,,,0,,,64,64
1896,note_off,,,,,0,0,1,,,0,,,52,64
1920,note_on,,,,,24,0,2,,,1,,,48,104
1920,note_on,,,,,24,0,1,,,0,,,60,104
1920,note_on,,,,,0,0,1,,,0,,,64,104
1920,note_on,,,,,0,0,2,,,1,,,36,104
1920,note_on,,,,,0,0,1,,,0,,,52,104
1920,note_on,,,,,0,0,2,,,1,,,43,104
2112,note_off,,,,,192,0,2,,,1,,,36,64
2112,note_off,,,,,0,0,2,,,1,,,43,64
2112,note_off,,,,,0,0,2,,,1,,,48,64
2112,note_off,,,,,0,0,1,,,0,,,60,64
2112,note_off,,,,,192,0,1,,,0,,,52,64
2112,note_off,,,,,0,0,1,,,0,,,64,64
2160,note_on,,,,,0,0,1,,,0,,,65,104
2160,note_on,,,,,0,0,1,,,0,,,60,104
2160,note_on,,,,,0,0,2,,,1,,,38,104
2160,note_on,,,,,48,0,2,,,1,,,50,104
2160,note_on,,,,,48,0,1,,,0,,,53,104
2256,note_off,,,,,0,0,1,,,0,,,53,64
2256,note_off,,,,,96,0,1,,,0,,,60,64
2256,note_off,,,,,96,0,2,,,1,,,38,64
2256,note_off,,,,,0,0,2,,,1,,,50,64
2256,note_off,,,,,0,0,1,,,0,,,65,64
2280,note_on,,,,,24,0,2,,,1,,,52,104
2280,note_on,,,,,0,0,2,,,1,,,40,104
2280,note_on,,,,,0,0,2,,,1,,,48,104
2280,note_on,,,,,24,0,1,,,0,,,67,104
2280,note_on,,,,,0,0,1,,,0,,,60,104
2280,note_on,,,,,0,0,1,,,0,,,55,104
2376,note_off,,,,,0,0,1,,,0,,,55,64
2376,note_off,,,,,0,0,1,,,0,,,67,64
2376,note_off,,,,,0,0,2,,,1,,,52,64
2376,note_off,,,,,0,0,2,,,1,,,40,64
2376,note_off,,,,,96,0,2,,,1,,,48,64
2376,note_off,,,,,96,0,1,,,0,,,60,64
2400,note_on,,,,,0,0,2,,,1,,,41,104
2400,note_on,,,,,24,0,2,,,1,,,53,104
2400,note_on,,,,,24,0,1,,,0,,,69,104
2400,note_on,,,,,0,0,1,,,0,,,60,104
2400,note_on,,,,,0,0,1,,,0,,,57,104
2400,note_on,,,,,0,0,2,,,1,,,48,104
2592,note_off,,,,,192,0,1,,,0,,,57,64
2592,note_off,,,,,0,0,1,,,0,,,60,64
2592,note_off,,,,,0,0,1,,,0,,,69,64
2592,note_off,,,,,0,0,2,,,1,,,41,64
2592,note_off,,,,,0,0,2,,,1,,,53,64
2592,note_off,,,,,192,0,2,,,1,,,48,64
2640,note_on,,,,,0,0,1,,,0,,,60,104
2640,note_on,,,,,0,0,1,,,0,,,55,104
2640,note_on,,,,,48,0,1,,,0,,,67,104
2640,note_on,,,,,0,0,2,,,1,,,52,104
2640,note_on,,,,,0,0,2,,,1,,,48,104
2640,note_on,,,,,48,0,2,,,1,,,40,104
2736,note_off,,,,,0,0,2,,,1,,,48,64
2736,note_off,,,,,0,0,2,,,1,,,40,64
2736,note_off,,,,,96,0,1,,,0,,,60,64
2736,note_off,,,,,0,0,1,,,0,,,55,64
2736,note_off,,,,,0,0,1,,,0,,,67,64
2736,note_off,,,,,96,0,2,,,1,,,52,64
2760,note_on,,,,,24,0,2,,,1,,,41,104
2760,note_on,,,,,0,0,2,,,1,,,48,104
2760,note_on,,,,,24,0,1,,,0,,,57,104
2760,note_on,,,,,0,0,1,,,0,,,60,104
2760,note_on,,,,,0,0,1,,,0,,,69,104
2760,note_on,,,,,0,0,2,,,1,,,53,104
2856,note_off,,,,,0,0,1,,,0,,,60,64
2856,note_off,,,,,96,0,1,,,0,,,69,64
2856,note_off,,,,,0,0,2,,,1,,,41,64
2856,note_off,,,,,0,0,1,,,0,,,57,64
2856,note_off,,,,,96,0,2,,,1,,,53,64
2856,note_off,,,,,0,0,2,,,1,,,48,64
2880,note_on,,,,,0,0,1,,,0,,,72,104
2880,note_on,,,,,0,0,1,,,0,,,70,104
2880,note_on,,,,,0,0,1,,,0,,,58,104
2880,note_on,,,,,24,0,1,,,0,,,60,104
2880,note_on,,,,,24,0,2,,,1,,,48,104
2880,note_on,,,,,0,0,2,,,1,,,43,104
2880,note_on,,,,,0,0,2,,,1,,,55,104
3072,note_off,,,,,0,0,2,,,1,,,48,64
3072,note_off,,,,,192,0,1,,,0,,,58,64
3072,note_off,,,,,192,0,2,,,1,,,55,64
3072,note_off,,,,,0,0,1,,,0,,,70,64
3072,note_off,,,,,0,0,1,,,0,,,72,64
3072,note_off,,,,,0,0,2,,,1,,,43,64
3072,note_off,,,,,0,0,1,,,0,,,60,64
3120,note_on,,,,,48,0,1,,,0,,,57,104
3120,note_on,,,,,0,0,1,,,0,,,60,104
3120,note_on,,,,,0,0,2,,,1,,,41,104
3120,note_on,,,,,0,0,2,,,1,,,48,104
3120,note_on,,,,,48,0,2,,,1,,,53,104
3120,note_on,,,,,0,0,1,,,0,,,69,104
3312,note_off,,,,,0,0,2,,,1,,,48,64
3312,note_off,,,,,0,0,2,,,1,,,53,64
3312,note_off,,,,,192,0,2,,,1,,,41,64
3312,note_off,,,,,192,0,1,,,0,,,60,64
3312,note_off,,,,,0,0,1,,,0,,,57,64
3312,note_off,,,,,0,0,1,,,0,,,69,64
3600,note_on,,,,,288,0,2,,,1,,,40,104
3600,note_on,,,,,0,0,2,,,1,,,48,104
3600,note_on,,,,,0,0,1,,,0,,,60,104
3600,note_on,,,,,0,0,1,,,0,,,55,104
3600,note_on,,,,,288,0,1,,,0,,,67,104
3600,note_on,,,,,0,0,2,,,1,,,52,104
3696,note_off,,,,,96,0,2,,,1,,,52,64
3696,note_off,,,,,0,0,2,,,1,,,48,64
3696,note_off,,,,,0,0,2,,,1,,,40,64
3696,note_off,,,,,0,0,1,,,0,,,67,64
3696,note_off,,,,,0,0,1,,,0,,,55,64
3696,note_off,,,,,96,0,1,,,0,,,60,64
3720,note_on,,,,,0,0,1,,,0,,,60,104
3720,note_on,,,,,24,0,1,,,0,,,57,104
3720,note_on,,,,,0,0,1,,,0,,,69,104
3720,note_on,,,,,24,0,2,,,1,,,48,104
3720,note_on,,,,,0,0,2,,,1,,,53,104
3720,note_on,,,,,0,0,2,,,1,,,41,104
3816,note_off,,,,,0,0,1,,,0,,,60,64
3816,note_off,,,,,96,0,1,,,0,,,69,64
3816,note_off,,,,,96,0,2,,,1,,,41,64
3816,note_off,,,,,0,0,2,,,1,,,53,64
3816,note_off,,,,,0,0,2,,,1,,,48,64
3816,note_off,,,,,0,0,1,,,0,,,57,64
3840,note_on,,,,,24,0,1,,,0,,,71,104
3840,note_on,,,,,24,0,2,,,1,,,38,104
3840,note_on,,,,,0,0,1,,,0,,,59,104
3840,note_on,,,,,0,0,1,,,0,,,65,104
3840,note_on,,,,,0,0,2,,,1,,,50,104
4032,note_off,,,,,0,0,1,,,0,,,71,64
4032,note_off,,,,,192,0,1,,,0,,,59,64
4032,note_off,,,,,0,0,1,,,0,,,65,64
4032,note_off,,,,,192,0,2,,,1,,,50,64
4032,note_off,,,,,0,0,2,,,1,,,38,64
4080,note_on,,,,,48,0,2,,,1,,,40,104
4080,note_on,,,,,0,0,2,,,1,,,52,104
4080,note_on,,,,,48,0,1,,,0,,,60,104
4080,note_on,,,,,0,0,1,,,0,,,72,104
4080,note_on,,,,,0,0,1,,,0,,,64,104
4272,note_off,,,,,192,0,1,,,0,,,64,64
4272,note_off,,,,,0,0,1,,,0,,,72,64
4272,note_off,,,,,0,0,1,,,0,,,60,64
4272,note_off,,,,,192,0,2,,,1,,,52,64
4272,note_off,,,,,0,0,2,,,1,,,40,64
4320,note_on,,,,,0,0,1,,,0,,,67,104
4320,note_on,,,,,0,0,2,,,1,,,47,104
4320,note_on,,,,,48,0,2,,,1,,,35,104
4320,note_on,,,,,48,0,1,,,0,,,62,104
4320,note_on,,,,,0,0,1,,,0,,,74,104
4512,note_off,,,,,0,0,1,,,0,,,62,64
4512,note_off,,,,,0,0,1,,,0,,,67,64
4512,note_off,,,,,0,0,2,,,1,,,35,64
4512,note_off,,,,,192,0,2,,,1,,,47,64
4512,note_off,,,,,192,0,1,,,0,,,74,64
4560,note_on,,,,,0,0,1,,,0,,,64,104
4560,note_on,,,,,48,0,1,,,0,,,67,104
4560,note_on,,,,,0,0,1,,,0,,,76,104
4560,note_on,,,,,48,0,2,,,1,,,36,104
4560,note_on,,,,,0,0,2,,,1,,,48,104
4752,note_off,,,,,192,0,2,,,1,,,48,64
4752,note_off,,,,,0,0,2,,,1,,,36,64
4752,note_off,,,,,192,0,1,,,0,,,64,64
4752,note_off,,,,,0,0,1,,,0,,,76,64
4752,note_off,,,,,0,0,1,,,0,,,67,64
4800,note_on,,,,,0,0,1,,,0,,,71,104
4800,note_on,,,,,0,0,1,,,0,,,74,104
4800,note_on,,,,,48,0,2,,,1,,,45,104
4800,note_on,,,,,0,0,2,,,1,,,38,104
4800,note_on,,,,,48,0,1,,,0,,,78,104
4800,note_on,,,,,0,0,2,,,1,,,33,104
4824,note_off,,,,,24,0,1,,,0,,,78,64
4830,note_on,,,,,6,0,1,,,0,,,79,104
4854,note_off,,,,,24,0,1,,,0,,,79,64
4860,note_on,,,,,6,0,1,,,0,,,78,104
4884,note_off,,,,,24,0,1,,,0,,,78,64
4890,note_on,,,,,6,0,1,,,0,,,79,104
4914,note_off,,,,,24,0,1,,,0,,,79,64
4920,note_on,,,,,6,0,1,,,0,,,78,104
4944,note_off,,,,,24,0,1,,,0,,,78,64
4950,note_on,,,,,6,0,1,,,0,,,79,104
4974,note_off,,,,,24,0,1,,,0,,,79,64
4980,note_on,,,,,6,0,1,,,0,,,78,104
5004,note_off,,,,,24,0,1,,,0,,,78,64
5010,note_on,,,,,6,0,1,,,0,,,79,104
5034,note_off,,,,,24,0,1,,,0,,,79,64
5040,note_on,,,,,6,0,1,,,0,,,78,104
5064,note_off,,,,,24,0,1,,,0,,,78,64
5070,note_on,,,,,6,0,1,,,0,,,79,104
5094,note_off,,,,,24,0,1,,,0,,,79,64
5100,note_on,,,,,6,0,1,,,0,,,78,104
5124,note_off,,,,,24,0,1,,,0,,,78,64
5130,note_on,,,,,6,0,1,,,0,,,79,104
5154,note_off,,,,,24,0,1,,,0,,,79,64
5160,note_on,,,,,6,0,1,,,0,,,78,104
5184,note_off,,,,,24,0,1,,,0,,,78,64
5184,note_off,,,,,0,0,1,,,0,,,71,64
5184,note_off,,,,,0,0,1,,,0,,,74,64
5184,note_off,,,,,384,0,2,,,1,,,33,64
5184,note_off,,,,,0,0,2,,,1,,,45,64
5184,note_off,,,,,0,0,2,,,1,,,38,64
5190,note_on,,,,,6,0,1,,,0,,,79,104
5214,note_off,,,,,24,0,1,,,0,,,79,64
5220,note_on,,,,,6,0,1,,,0,,,76,104
5244,note_off,,,,,24,0,1,,,0,,,76,64
5250,note_on,,,,,6,0,1,,,0,,,78,104
5274,note_off,,,,,24,0,1,,,0,,,78,64
5280,note_on,,,,,6,0,1,,,0,,,71,104
5280,note_on,,,,,0,0,1,,,0,,,79,104
5280,note_on,,,,,96,0,2,,,1,,,31,104
5280,note_on,,,,,0,0,2,,,1,,,43,104
5280,note_on,,,,,0,0,2,,,1,,,38,104
5472,note_off,,,,,0,0,2,,,1,,,31,64
5472,note_off,,,,,0,0,2,,,1,,,43,64
5472,note_off,,,,,192,0,2,,,1,,,38,64
5472,note_off,,,,,192,0,1,,,0,,,79,64
5472,note_off,,,,,0,0,1,,,0,,,71,64
5520,note_on,,,,,48,0,1,,,0,,,74,104
5520,note_on,,,,,48,0,2,,,1,,,62,104
5616,note_off,,,,,96,0,2,,,1,,,62,64
5616,note_off,,,,,96,0,1,,,0,,,74,64
5640,note_on,,,,,24,0,2,,,1,,,66,104
5640,note_on,,,,,24,0,1,,,0,,,78,104
5736,note_off,,,,,96,0,2,,,1,,,66,64
5736,note_off,,,,,96,0,1,,,0,,,78,64
5760,note_on,,,,,24,0,1,,,0,,,79,104
5760,note_on,,,,,24,0,2,,,1,,,67,104
5952,note_off,,,,,192,0,1,,,0,,,79,64
5952,note_off,,,,,192,0,2,,,1,,,67,64
6000,note_on,,,,,48,0,1,,,0,,,62,104
6000,note_on,,,,,48,0,2,,,1,,,50,104
6096,note_off,,,,,96,0,2,,,1,,,50,64
6096,note_off,,,,,96,0,1,,,0,,,62,64
6120,note_on,,,,,24,0,1,,,0,,,66,104
6120,note_on,,,,,24,0,2,,,1,,,54,104
6216,note_off,,,,,96,0,1,,,0,,,66,64
6216,note_off,,,,,96,0,2,,,1,,,54,64
6240,note_on,,,,,24,0,1,,,0,,,67,104
6240,note_on,,,,,24,0,2,,,1,,,55,104
6432,note_off,,,,,192,0,2,,,1,,,55,64
6432,note_off,,,,,192,0,1,,,0,,,67,64
6480,note_on,,,,,0,0,2,,,1,,,38,104
6480,note_on,,,,,48,0,2,,,1,,,50,104
6576,note_off,,,,,96,0,2,,,1,,,38,64
6576,note_off,,,,,0,0,2,,,1,,,50,64
6600,note_on,,,,,24,0,2,,,1,,,54,104
6600,note_on,,,,,0,0,2,,,1,,,42,104
6696,note_off,,,,,96,0,2,,,1,,,42,64
6696,note_off,,,,,0,0,2,,,1,,,54,64
6720,note_on,,,,,0,0,2,,,1,,,43,104
6720,note_on,,,,,24,0,2,,,1,,,55,104
6784,note_off,,,,,64,0,2,,,1,,,55,64
6800,note_on,,,,,16,0,2,,,1,,,59,104
6864,note_off,,,,,64,0,2,,,1,,,59,64
6880,note_on,,,,,16,0,2,,,1,,,60,104
6912,note_off,,,,,32,0,2,,,1,,,43,64
6944,note_off,,,,,32,0,2,,,1,,,60,64
6960,note_on,,,,,528,0,1,,,0,,,62,104
7024,note_off,,,,,64,0,1,,,0,,,62,64
7040,note_on,,,,,16,0,1,,,0,,,64,104
7104,note_off,,,,,64,0,1,,,0,,,64,64
7120,note_on,,,,,16,0,1,,,0,,,66,104
7184,note_off,,,,,64,0,1,,,0,,,66,64
7200,note_on,,,,,0,0,2,,,1,,,58,104
7200,note_on,,,,,256,0,2,,,1,,,55,104
7200,note_on,,,,,16,0,1,,,0,,,67,104
7248,note_off,,,,,48,0,1,,,0,,,67,64
7260,note_on,,,,,12,0,1,,,0,,,70,104
7308,note_off,,,,,48,0,1,,,0,,,70,64
7320,note_on,,,,,12,0,1,,,0,,,72,104
7368,note_off,,,,,48,0,1,,,0,,,72,64
7380,note_on,,,,,12,0,1,,,0,,,74,104
7428,note_off,,,,,48,0,1,,,0,,,74,64
7440,note_on,,,,,12,0,1,,,0,,,76,104
7488,note_off,,,,,48,0,1,,,0,,,76,64
7500,note_on,,,,,12,0,1,,,0,,,78,104
7548,note_off,,,,,48,0,1,,,0,,,78,64
7560,note_on,,,,,12,0,1,,,0,,,79,104
7584,note_off,,,,,0,0,2,,,1,,,55,64
7584,note_off,,,,,384,0,2,,,1,,,58,64
7608,note_off,,,,,48,0,1,,,0,,,79,64
7620,note_on,,,,,12,0,1,,,0,,,81,104
7668,note_off,,,,,48,0,1,,,0,,,81,64
7680,note_on,,,,,12,0,1,,,0,,,77,104
7680,note_on,,,,,96,0,2,,,1,,,46,104
7680,note_on,,,,,0,0,2,,,1,,,53,104
7680,note_on,,,,,0,0,2,,,1,,,58,104
7680,note_on,,,,,0,0,2,,,1,,,62,104
7680,note_on,,,,,0,0,1,,,0,,,70,104
7680,note_on,,,,,0,0,1,,,0,,,74,104
7680,note_on,,,,,0,0,1,,,0,,,82,104
7968,note_off,,,,,0,0,1,,,0,,,77,64
7968,note_off,,,,,0,0,2,,,1,,,46,64
7968,note_off,,,,,0,0,2,,,1,,,53,64
7968,note_off,,,,,0,0,2,,,1,,,58,64
7968,note_off,,,,,288,0,2,,,1,,,62,64
7968,note_off,,,,,0,0,1,,,0,,,74,64
7968,note_off,,,,,0,0,1,,,0,,,70,64
7968,note_off,,,,,288,0,1,,,0,,,82,64
8040,note_on,,,,,0,0,2,,,1,,,46,104
8040,note_on,,,,,72,0,2,,,1,,,34,104
8040,note_on,,,,,0,0,1,,,0,,,74,104
8040,note_on,,,,,0,0,1,,,0,,,70,104
8040,note_on,,,,,72,0,1,,,0,,,62,104
8136,note_off,,,,,96,0,1,,,0,,,70,64
8136,note_off,,,,,0,0,1,,,0,,,62,64
8136,note_off,,,,,0,0,1,,,0,,,74,64
8136,note_off,,,,,0,0,2,,,1,,,34,64
8136,note_off,,,,,96,0,2,,,1,,,46,64
8160,note_on,,,,,0,0,2,,,1,,,34,104
8160,note_on,,,,,0,0,1,,,0,,,62,104
8160,note_on,,,,,0,0,1,,,0,,,70,104
8160,note_on,,,,,24,0,1,,,0,,,74,104
8160,note_on,,,,,24,0,2,,,1,,,46,104
8352,note_off,,,,,0,0,2,,,1,,,46,64
8352,note_off,,,,,192,0,2,,,1,,,34,64
8352,note_off,,,,,192,0,1,,,0,,,62,64
8352,note_off,,,,,0,0,1,,,0,,,70,64
8352,note_off,,,,,0,0,1,,,0,,,74,64
8400,note_on,,,,,0,0,1,,,0,,,75,104
8400,note_on,,,,,48,0,1,,,0,,,70,104
8400,note_on,,,,,48,0,2,,,1,,,48,104
8400,note_on,,,,,0,0,1,,,0,,,63,104
8400,note_on,,,,,0,0,2,,,1,,,36,104
8496,note_off,,,,,96,0,2,,,1,,,36,64
8496,note_off,,,,,0,0,2,,,1,,,48,64
8496,note_off,,,,,96,0,1,,,0,,,63,64
8496,note_off,,,,,0,0,1,,,0,,,75,64
8496,note_off,,,,,0,0,1,,,0,,,70,64
8520,note_on,,,,,0,0,1,,,0,,,70,104
8520,note_on,,,,,0,0,1,,,0,,,65,104
8520,note_on,,,,,24,0,1,,,0,,,77,104
8520,note_on,,,,,24,0,2,,,1,,,50,104
8520,note_on,,,,,0,0,2,,,1,,,38,104
8616,note_off,,,,,96,0,1,,,0,,,70,64
8616,note_off,,,,,0,0,1,,,0,,,77,64
8616,note_off,,,,,0,0,1,,,0,,,65,64
8633,note_off,,,,,113,0,2,,,1,,,38,64
8633,note_off,,,,,0,0,2,,,1,,,50,64
8640,note_on,,,,,0,0,2,,,1,,,51,104
8640,note_on,,,,,24,0,1,,,0,,,70,104
8640,note_on,,,,,0,0,1,,,0,,,79,104
8640,note_on,,,,,7,0,2,,,1,,,39,104
8640,note_on,,,,,0,0,2,,,1,,,46,104
8640,note_on,,,,,0,0,1,,,0,,,67,104
8832,note_off,,,,,0,0,2,,,1,,,51,64
8832,note_off,,,,,0,0,1,,,0,,,70,64
8832,note_off,,,,,192,0,2,,,1,,,46,64
8832,note_off,,,,,0,0,2,,,1,,,39,64
8832,note_off,,,,,0,0,1,,,0,,,67,64
8832,note_off,,,,,192,0,1,,,0,,,79,64
8880,note_on,,,,,0,0,1,,,0,,,77,104
8880,note_on,,,,,48,0,1,,,0,,,65,104
8880,note_on,,,,,0,0,2,,,1,,,50,104
8880,note_on,,,,,0,0,2,,,1,,,46,104
8880,note_on,,,,,48,0,2,,,1,,,38,104
8880,note_on,,,,,0,0,1,,,0,,,70,104
9072,note_off,,,,,0,0,2,,,1,,,38,64
9072,note_off,,,,,0,0,1,,,0,,,65,64
9072,note_off,,,,,0,0,1,,,0,,,77,64
9072,note_off,,,,,192,0,1,,,0,,,70,64
9072,note_off,,,,,0,0,2,,,1,,,46,64
9072,note_off,,,,,192,0,2,,,1,,,50,64
9480,note_on,,,,,0,0,2,,,1,,,46,104
9480,note_on,,,,,408,0,2,,,1,,,34,104
9480,note_on,,,,,408,0,1,,,0,,,70,104
9480,note_on,,,,,0,0,1,,,0,,,62,104
9480,note_on,,,,,0,0,1,,,0,,,74,104
9576,note_off,,,,,0,0,2,,,1,,,34,64
9576,note_off,,,,,0,0,1,,,0,,,62,64
9576,note_off,,,,,0,0,1,,,0,,,70,64
9576,note_off,,,,,96,0,1,,,0,,,74,64
9576,note_off,,,,,96,0,2,,,1,,,46,64
9600,note_on,,,,,0,0,1,,,0,,,74,104
9600,note_on,,,,,0,0,1,,,0,,,70,104
9600,note_on,,,,,24,0,2,,,1,,,34,104
9600,note_on,,,,,0,0,2,,,1,,,46,104
9600,note_on,,,,,24,0,1,,,0,,,62,104
9792,note_off,,,,,192,0,1,,,0,,,70,64
9792,note_off,,,,,0,0,1,,,0,,,74,64
9792,note_off,,,,,0,0,1,,,0,,,62,64
9792,note_off,,,,,192,0,2,,,1,,,46,64
9792,note_off,,,,,0,0,2,,,1,,,34,64
9840,note_on,,,,,48,0,2,,,1,,,36,104
9840,note_on,,,,,0,0,2,,,1,,,48,104
9840,note_on,,,,,0,0,1,,,0,,,75,104
9840,note_on,,,,,0,0,1,,,0,,,63,104
9840,note_on,,,,,48,0,1,,,0,,,70,104
9936,note_off,,,,,0,0,2,,,1,,,36,64
9936,note_off,,,,,96,0,2,,,1,,,48,64
9936,note_off,,,,,0,0,1,,,0,,,70,64
9936,note_off,,,,,0,0,1,,,0,,,75,64
9936,note_off,,,,,96,0,1,,,0,,,63,64
9960,note_on,,,,,0,0,2,,,1,,,38,104
9960,note_on,,,,,0,0,1,,,0,,,65,104
9960,note_on,,,,,24,0,1,,,0,,,70,104
9960,note_on,,,,,24,0,2,,,1,,,50,104
9960,note_on,,,,,0,0,1,,,0,,,77,104
10056,note_off,,,,,0,0,1,,,0,,,70,64
10056,note_off,,,,,0,0,2,,,1,,,50,64
10056,note_off,,,,,96,0,1,,,0,,,65,64
10056,note_off,,,,,0,0,1,,,0,,,77,64
10056,note_off,,,,,96,0,2,,,1,,,38,64
10080,note_on,,,,,0,0,1,,,0,,,79,104
10080,note_on,,,,,24,0,2,,,1,,,46,104
10080,note_on,,,,,0,0,2,,,1,,,51,104
10080,note_on,,,,,24,0,1,,,0,,,67,104
10080,note_on,,,,,0,0,1,,,0,,,70,104
10080,note_on,,,,,0,0,2,,,1,,,39,104
10272,note_off,,,,,192,0,1,,,0,,,70,64
10272,note_off,,,,,0,0,1,,,0,,,79,64
10272,note_off,,,,,0,0,1,,,0,,,67,64
10272,note_off,,,,,192,0,2,,,1,,,51,64
10272,note_off,,,,,0,0,2,,,1,,,39,64
10272,note_off,,,,,0,0,2,,,1,,,46,64
10320,note_on,,,,,48,0,1,,,0,,,65,104
10320,note_on,,,,,0,0,1,,,0,,,70,104
10320,note_on,,,,,0,0,1,,,0,,,77,104
10320,note_on,,,,,48,0,2,,,1,,,37,104
10320,note_on,,,,,0,0,2,,,1,,,49,104
10320,note_on,,,,,0,0,2,,,1,,,46,104
10416,note_off,,,,,96,0,2,,,1,,,46,64
10416,note_off,,,,,0,0,2,,,1,,,37,64
10416,note_off,,,,,96,0,1,,,0,,,70,64
10416,note_off,,,,,0,0,2,,,1,,,49,64
10416,note_off,,,,,0,0,1,,,0,,,77,64
10416,note_off,,,,,0,0,1,,,0,,,65,64
10440,note_on,,,,,0,0,2,,,1,,,51,104
10440,note_on,,,,,24,0,2,,,1,,,39,104
10440,note_on,,,,,24,0,1,,,0,,,79,104
10440,note_on,,,,,0,0,1,,,0,,,67,104
10440,note_on,,,,,0,0,1,,,0,,,70,104
10440,note_on,,,,,0,0,2,,,1,,,46,104
10536,note_off,,,,,96,0,2,,,1,,,46,64
10536,note_off,,,,,0,0,2,,,1,,,39,64
10536,note_off,,,,,0,0,2,,,1,,,51,64
10536,note_off,,,,,96,0,1,,,0,,,70,64
10536,note_off,,,,,0,0,1,,,0,,,79,64
10536,note_off,,,,,0,0,1,,,0,,,67,64
10560,note_on,,,,,0,0,2,,,1,,,46,104
10560,note_on,,,,,24,0,2,,,1,,,53,104
10560,note_on,,,,,0,0,2,,,1,,,41,104
10560,note_on,,,,,24,0,1,,,0,,,68,104
10560,note_on,,,,,0,0,1,,,0,,,70,104
10560,note_on,,,,,0,0,1,,,0,,,80,104
10752,note_off,,,,,0,0,1,,,0,,,70,64
10752,note_off,,,,,192,0,1,,,0,,,80,64
10752,note_off,,,,,0,0,2,,,1,,,46,64
10752,note_off,,,,,192,0,2,,,1,,,41,64
10752,note_off,,,,,0,0,2,,,1,,,53,64
10752,note_off,,,,,0,0,1,,,0,,,68,64
10800,note_on,,,,,0,0,1,,,0,,,79,104
10800,note_on,,,,,0,0,1,,,0,,,67,104
10800,note_on,,,,,48,0,1,,,0,,,70,104
10800,note_on,,,,,48,0,2,,,1,,,51,104
10800,note_on,,,,,0,0,2,,,1,,,46,104
10800,note_on,,,,,0,0,2,,,1,,,39,104
10992,note_off,,,,,192,0,1,,,0,,,67,64
10992,note_off,,,,,0,0,1,,,0,,,79,64
10992,note_off,,,,,0,0,1,,,0,,,70,64
10992,note_off,,,,,0,0,2,,,1,,,51,64
10992,note_off,,,,,192,0,2,,,1,,,39,64
10992,note_off,,,,,0,0,2,,,1,,,46,64
11280,note_on,,,,,0,0,1,,,0,,,65,104
11280,note_on,,,,,288,0,2,,,1,,,38,104
11280,note_on,,,,,288,0,1,,,0,,,77,104
11280,note_on,,,,,0,0,2,,,1,,,50,104
11280,note_on,,,,,0,0,1,,,0,,,70,104
11376,note_off,,,,,0,0,1,,,0,,,77,64
11376,note_off,,,,,0,0,1,,,0,,,70,64
11376,note_off,,,,,96,0,1,,,0,,,65,64
11376,note_off,,,,,96,0,2,,,1,,,50,64
11376,note_off,,,,,0,0,2,,,1,,,38,64
11400,note_on,,,,,0,0,1,,,0,,,79,104
11400,note_on,,,,,0,0,1,,,0,,,67,104
11400,note_on,,,,,24,0,1,,,0,,,70,104
11400,note_on,,,,,24,0,2,,,1,,,39,104
11400,note_on,,,,,0,0,2,,,1,,,51,104
11496,note_off,,,,,0,0,1,,,0,,,70,64
11496,note_off,,,,,0,0,1,,,0,,,67,64
11496,note_off,,,,,96,0,2,,,1,,,51,64
11496,note_off,,,,,0,0,2,,,1,,,39,64
11496,note_off,,,,,96,0,1,,,0,,,79,64
11520,note_on,,,,,24,0,2,,,1,,,53,104
11520,note_on,,,,,24,0,1,,,0,,,79,104
11520,note_on,,,,,0,0,1,,,0,,,83,104
11520,note_on,,,,,0,0,1,,,0,,,71,104
11520,note_on,,,,,0,0,2,,,1,,,41,104
11712,note_off,,,,,192,0,1,,,0,,,71,64
11712,note_off,,,,,0,0,2,,,1,,,53,64
11712,note_off,,,,,192,0,2,,,1,,,41,64
11712,note_off,,,,,0,0,1,,,0,,,83,64
11712,note_off,,,,,0,0,1,,,0,,,79,64
11760,note_on,,,,,0,0,1,,,0,,,84,104
11760,note_on,,,,,0,0,1,,,0,,,79,104
11760,note_on,,,,,48,0,2,,,1,,,39,104
11760,note_on,,,,,0,0,2,,,1,,,51,104
11760,note_on,,,,,48,0,1,,,0,,,72,104
11952,note_off,,,,,192,0,2,,,1,,,51,64
11952,note_off,,,,,0,0,2,,,1,,,39,64
11952,note_off,,,,,0,0,1,,,0,,,72,64
11952,note_off,,,,,0,0,1,,,0,,,84,64
11952,note_off,,,,,192,0,1,,,0,,,79,64
12000,note_on,,,,,0,0,2,,,1,,,47,104
12000,note_on,,,,,48,0,1,,,0,,,86,104
12000,note_on,,,,,0,0,1,,,0,,,74,104
12000,note_on,,,,,48,0,2,,,1,,,35,104
12000,note_on,,,,,0,0,1,,,0,,,79,104
12192,note_off,,,,,192,0,1,,,0,,,79,64
12192,note_off,,,,,0,0,1,,,0,,,74,64
12192,note_off,,,,,0,0,1,,,0,,,86,64
12192,note_off,,,,,0,0,2,,,1,,,35,64
12192,note_off,,,,,192,0,2,,,1,,,47,64
12240,note_on,,,,,0,0,1,,,0,,,75,104
12240,note_on,,,,,0,0,1,,,0,,,87,104
12240,note_on,,,,,48,0,1,,,0,,,79,104
12240,note_on,,,,,0,0,2,,,1,,,36,104
12240,note_on,,,,,48,0,2,,,1,,,48,104
12432,note_off,,,,,0,0,1,,,0,,,75,64
12432,note_off,,,,,192,0,1,,,0,,,87,64
12432,note_off,,,,,0,0,2,,,1,,,48,64
12432,note_off,,,,,192,0,2,,,1,,,36,64
12432,note_off,,,,,0,0,1,,,0,,,79,64
12480,note_on,,,,,48,0,1,,,0,,,84,104
12480,note_on,,,,,0,0,1,,,0,,,89,104
12480,note_on,,,,,48,0,2,,,1,,,33,104
12480,note_on,,,,,0,0,2,,,1,,,45,104
12480,note_on,,,,,0,0,1,,,0,,,77,104
12672,note_off,,,,,192,0,2,,,1,,,45,64
12672,note_off,,,,,0,0,2,,,1,,,33,64
12672,note_off,,,,,192,0,1,,,0,,,89,64
12672,note_off,,,,,0,0,1,,,0,,,77,64
12672,note_off,,,,,0,0,1,,,0,,,84,64
12720,note_on,,,,,0,0,2,,,1,,,44,104
12720,note_on,,,,,0,0,2,,,1,,,32,104
12720,note_on,,,,,48,0,1,,,0,,,90,104
12720,note_on,,,,,0,0,1,,,0,,,86,104
12720,note_on,,,,,0,0,1,,,0,,,78,104
12720,note_on,,,,,0,0,1,,,0,,,84,104
12720,note_on,,,,,48,0,2,,,1,,,38,104
13104,note_off,,,,,0,0,1,,,0,,,86,64
13104,note_off,,,,,384,0,1,,,0,,,84,64
13104,note_off,,,,,0,0,1,,,0,,,78,64
13104,note_off,,,,,0,0,1,,,0,,,90,64
13104,note_off,,,,,0,0,2,,,1,,,38,64
13104,note_off,,,,,0,0,2,,,1,,,44,64
13104,note_off,,,,,384,0,2,,,1,,,32,64
13200,note_on,,,,,96,0,2,,,1,,,31,104
13200,note_on,,,,,0,0,1,,,0,,,84,104
13200,note_on,,,,,0,0,1,,,0,,,79,104
13200,note_on,,,,,96,0,1,,,0,,,91,104
13200,note_on,,,,,0,0,2,,,1,,,38,104
13200,note_on,,,,,0,0,1,,,0,,,86,104
13200,note_on,,,,,0,0,2,,,1,,,43,104
13632,note_off,,,,,432,0,1,,,0,,,79,64
13632,note_off,,,,,0,0,2,,,1,,,38,64
13632,note_off,,,,,0,0,2,,,1,,,31,64
13632,note_off,,,,,0,0,1,,,0,,,86,64
13632,note_off,,,,,0,0,1,,,0,,,84,64
13632,note_off,,,,,432,0,2,,,1,,,43,64
13632,note_off,,,,,0,0,1,,,0,,,91,64
13680,note_on,,,,,0,0,1,,,0,,,93,104
13680,note_on,,,,,0,0,1,,,0,,,81,104
13680,note_on,,,,,0,0,1,,,0,,,84,104
13680,note_on,,,,,48,0,2,,,1,,,30,104
13680,note_on,,,,,0,0,2,,,1,,,38,104
13680,note_on,,,,,0,0,2,,,1,,,42,104
13680,note_on,,,,,48,0,1,,,0,,,86,104
14064,note_off,,,,,0,0,1,,,0,,,81,64
14064,note_off,,,,,384,0,1,,,0,,,93,64
14064,note_off,,,,,0,0,1,,,0,,,84,64
14064,note_off,,,,,0,0,2,,,1,,,30,64
14064,note_off,,,,,384,0,2,,,1,,,42,64
14064,note_off,,,,,0,0,1,,,0,,,86,64
14064,note_off,,,,,0,0,2,,,1,,,38,64
14160,note_on,,,,,96,0,2,,,1,,,38,104
14160,note_on,,,,,0,0,1,,,0,,,84,104
14160,note_on,,,,,0,0,1,,,0,,,86,104
14160,note_on,,,,,96,0,1,,,0,,,93,104
14160,note_on,,,,,0,0,1,,,0,,,81,104
14160,note_on,,,,,0,0,2,,,1,,,30,104
14160,note_on,,,,,0,0,2,,,1,,,42,104
14352,note_off,,,,,0,0,2,,,1,,,38,64
14352,note_off,,,,,0,0,2,,,1,,,30,64
14352,note_off,,,,,192,0,2,,,1,,,42,64
14400,note_on,,,,,0,0,2,,,1,,,38,104
14400,note_on,,,,,0,0,2,,,1,,,31,104
14400,note_on,,,,,48,0,2,,,1,,,43,104
14496,note_off,,,,,0,0,2,,,1,,,43,64
14496,note_off,,,,,96,0,2,,,1,,,31,64
14496,note_off,,,,,0,0,2,,,1,,,38,64
14496,note_off,,,,,0,0,1,,,0,,,86,64
14496,note_off,,,,,0,0,1,,,0,,,93,64
14496,note_off,,,,,0,0,1,,,0,,,81,64
14496,note_off,,,,,336,0,1,,,0,,,84,64
14520,note_on,,,,,0,0,1,,,0,,,83,104
14520,note_on,,,,,0,0,1,,,0,,,79,104
14520,note_on,,,,,24,0,1,,,0,,,91,104
14616,note_off,,,,,0,0,1,,,0,,,79,64
14616,note_off,,,,,96,0,1,,,0,,,83,64
14616,note_off,,,,,0,0,1,,,0,,,91,64
14640,note_on,,,,,0,0,2,,,1,,,59,104
14640,note_on,,,,,0,0,2,,,1,,,50,104
14640,note_on,,,,,0,0,2,,,1,,,53,104
14640,note_on,,,,,144,0,2,,,1,,,55,104
14640,note_on,,,,,0,0,1,,,0,,,77,104
14640,note_on,,,,,24,0,1,,,0,,,89,104
14736,note_off,,,,,0,0,1,,,0,,,89,64
14736,note_off,,,,,96,0,1,,,0,,,77,64
14760,note_on,,,,,0,0,1,,,0,,,74,104
14760,note_on,,,,,24,0,1,,,0,,,86,104
14856,note_off,,,,,96,0,1,,,0,,,74,64
14856,note_off,,,,,0,0,1,,,0,,,86,64
14880,note_on,,,,,0,0,1,,,0,,,71,104
14880,note_on,,,,,24,0,1,,,0,,,83,104
14976,note_off,,,,,96,0,1,,,0,,,71,64
14976,note_off,,,,,0,0,1,,,0,,,83,64
15000,note_on,,,,,24,0,1,,,0,,,79,104
15000,note_on,,,,,0,0,1,,,0,,,67,104
15024,note_off,,,,,384,0,2,,,1,,,59,64
15024,note_off,,,,,0,0,2,,,1,,,53,64
15024,note_off,,,,,0,0,2,,,1,,,50,64
15024,note_off,,,,,0,0,2,,,1,,,55,64
15096,note_off,,,,,96,0,1,,,0,,,67,64
15096,note_off,,,,,0,0,1,,,0,,,79,64
15120,note_on,,,,,0,0,2,,,1,,,43,104
15120,note_on,,,,,96,0,2,,,1,,,31,104
15120,note_on,,,,,24,0,1,,,0,,,65,104
15120,note_on,,,,,0,0,1,,,0,,,77,104
15216,note_off,,,,,96,0,1,,,0,,,77,64
15216,note_off,,,,,0,0,1,,,0,,,65,64
15240,note_on,,,,,0,0,1,,,0,,,74,104
15240,note_on,,,,,24,0,1,,,0,,,62,104
15312,note_off,,,,,192,0,2,,,1,,,43,64
15312,note_off,,,,,0,0,2,,,1,,,31,64
15336,note_off,,,,,0,0,1,,,0,,,62,64
15336,note_off,,,,,96,0,1,,,0,,,74,64
15360,note_on,,,,,0,0,2,,,1,,,43,104
15360,note_on,,,,,0,0,1,,,0,,,60,104
15360,note_on,,,,,0,0,1,,,0,,,64,104
15360,note_on,,,,,24,0,1,,,0,,,72,104
15360,note_on,,,,,48,0,2,,,1,,,36,104
15360,note_on,,,,,0,0,2,,,1,,,48,104
15552,note_off,,,,,0,0,2,,,1,,,36,64
15552,note_off,,,,,192,0,2,,,1,,,48,64
15552,note_off,,,,,0,0,2,,,1,,,43,64
15648,note_off,,,,,0,0,1,,,0,,,72,64
15648,note_off,,,,,0,0,1,,,0,,,64,64
15648,note_off,,,,,288,0,1,,,0,,,60,64
15720,note_on,,,,,168,0,2,,,1,,,52,71
15720,note_on,,,,,0,0,2,,,1,,,48,71
15816,note_off,,,,,96,0,2,,,1,,,48,64
15816,note_off,,,,,0,0,2,,,1,,,52,64
15840,note_on,,,,,24,0,2,,,1,,,48,71
15840,note_on,,,,,0,0,2,,,1,,,52,71
16032,note_off,,,,,192,0,2,,,1,,,52,64
16032,note_off,,,,,0,0,2,,,1,,,48,64
16080,note_on,,,,,48,0,2,,,1,,,53,71
16080,note_on,,,,,0,0,2,,,1,,,50,71
16176,note_off,,,,,0,0,2,,,1,,,53,64
16176,note_off,,,,,96,0,2,,,1,,,50,64
16200,note_on,,,,,552,0,1,,,0,,,60,71
16200,note_on,,,,,24,0,2,,,1,,,55,71
16200,note_on,,,,,0,0,2,,,1,,,52,71
16296,note_off,,,,,96,0,1,,,0,,,60,64
16296,note_off,,,,,96,0,2,,,1,,,52,64
16296,note_off,,,,,0,0,2,,,1,,,55,64
16320,note_on,,,,,24,0,1,,,0,,,60,71
16320,note_on,,,,,0,0,2,,,1,,,53,71
16320,note_on,,,,,24,0,2,,,1,,,57,71
16416,note_off,,,,,96,0,2,,,1,,,53,64
16416,note_off,,,,,0,0,2,,,1,,,57,64
16512,note_off,,,,,192,0,1,,,0,,,60,64
16560,note_on,,,,,144,0,2,,,1,,,55,71
16560,note_on,,,,,0,0,2,,,1,,,52,71
16560,note_on,,,,,48,0,1,,,0,,,62,71
16656,note_off,,,,,96,0,2,,,1,,,52,64
16656,note_off,,,,,0,0,2,,,1,,,55,64
16656,note_off,,,,,96,0,1,,,0,,,62,64
16680,note_on,,,,,24,0,1,,,0,,,64,71
16776,note_off,,,,,96,0,1,,,0,,,64,64
16800,note_on,,,,,144,0,2,,,1,,,55,71
16800,note_on,,,,,0,0,2,,,1,,,59,71
16800,note_on,,,,,24,0,1,,,0,,,65,71
16992,note_off,,,,,0,0,2,,,1,,,55,64
16992,note_off,,,,,192,0,2,,,1,,,59,64
16992,note_off,,,,,192,0,1,,,0,,,65,64
17040,note_on,,,,,48,0,1,,,0,,,65,71
17040,note_on,,,,,0,0,2,,,1,,,60,71
17040,note_on,,,,,48,0,2,,,1,,,57,71
17136,note_off,,,,,96,0,1,,,0,,,65,64
17136,note_off,,,,,96,0,2,,,1,,,60,64
17136,note_off,,,,,0,0,2,,,1,,,57,64
17160,note_on,,,,,0,0,1,,,0,,,65,71
17160,note_on,,,,,24,0,1,,,0,,,67,71
17160,note_on,,,,,24,0,2,,,1,,,59,71
17160,note_on,,,,,0,0,2,,,1,,,62,71
17256,note_off,,,,,0,0,2,,,1,,,59,64
17256,note_off,,,,,96,0,2,,,1,,,62,64
17256,note_off,,,,,96,0,1,,,0,,,65,64
17256,note_off,,,,,0,0,1,,,0,,,67,64
17280,note_on,,,,,24,0,2,,,1,,,60,71
17280,note_on,,,,,24,0,1,,,0,,,67,71
17280,note_on,,,,,0,0,2,,,1,,,65,71
17472,note_off,,,,,192,0,2,,,1,,,65,64
17472,note_off,,,,,192,0,1,,,0,,,67,64
17520,note_on,,,,,48,0,1,,,0,,,69,71
17520,note_on,,,,,48,0,2,,,1,,,64,71
17616,note_off,,,,,96,0,1,,,0,,,69,64
17616,note_off,,,,,0,0,2,,,1,,,64,64
17616,note_off,,,,,96,0,2,,,1,,,60,64
17640,note_on,,,,,0,0,2,,,1,,,55,71
17640,note_on,,,,,24,0,2,,,1,,,62,71
17640,note_on,,,,,24,0,1,,,0,,,79,71
17640,note_on,,,,,0,0,1,,,0,,,71,71
17736,note_off,,,,,96,0,2,,,1,,,55,64
17736,note_off,,,,,0,0,2,,,1,,,62,64
17736,note_off,,,,,0,0,1,,,0,,,79,64
17736,note_off,,,,,96,0,1,,,0,,,71,64
17760,note_on,,,,,24,0,2,,,1,,,60,71
17760,note_on,,,,,0,0,1,,,0,,,72,71
17760,note_on,,,,,24,0,1,,,0,,,79,71
17760,note_on,,,,,0,0,2,,,1,,,64,71
17952,note_off,,,,,192,0,1,,,0,,,72,64
17952,note_off,,,,,192,0,2,,,1,,,64,64
17952,note_off,,,,,0,0,2,,,1,,,60,64
18000,note_on,,,,,48,0,1,,,0,,,74,71
18000,note_on,,,,,0,0,2,,,1,,,62,71
18000,note_on,,,,,48,0,2,,,1,,,55,71
18048,note_off,,,,,48,0,1,,,0,,,79,64
18096,note_off,,,,,0,0,2,,,1,,,55,64
18096,note_off,,,,,48,0,1,,,0,,,74,64
18096,note_off,,,,,96,0,2,,,1,,,62,64
18120,note_on,,,,,24,0,2,,,1,,,52,71
18120,note_on,,,,,24,0,1,,,0,,,76,71
18120,note_on,,,,,0,0,2,,,1,,,60,71
18120,note_on,,,,,0,0,1,,,0,,,79,71
18216,note_off,,,,,0,0,1,,,0,,,76,64
18216,note_off,,,,,96,0,2,,,1,,,60,64
18216,note_off,,,,,0,0,2,,,1,,,52,64
18216,note_off,,,,,96,0,1,,,0,,,79,64
18240,note_on,,,,,0,0,2,,,1,,,55,71
18240,note_on,,,,,24,0,2,,,1,,,59,71
18240,note_on,,,,,24,0,1,,,0,,,79,71
18240,note_on,,,,,0,0,1,,,0,,,79,71
18336,note_off,,,,,96,0,1,,,0,,,79,64
18360,note_on,,,,,24,0,1,,,0,,,78,71
18456,note_off,,,,,96,0,1,,,0,,,78,64
18480,note_on,,,,,24,0,1,,,0,,,81,71
18528,note_off,,,,,0,0,2,,,1,,,59,64
18528,note_off,,,,,48,0,1,,,0,,,79,64
18528,note_off,,,,,288,0,2,,,1,,,55,64
18576,note_off,,,,,48,0,1,,,0,,,81,64
18600,note_on,,,,,72,0,2,,,1,,,64,71
18600,note_on,,,,,0,0,1,,,0,,,76,71
18600,note_on,,,,,24,0,1,,,0,,,79,71
18600,note_on,,,,,0,0,2,,,1,,,60,71
18696,note_off,,,,,96,0,2,,,1,,,60,64
18696,note_off,,,,,0,0,2,,,1,,,64,64
18696,note_off,,,,,0,0,1,,,0,,,79,64
18696,note_off,,,,,96,0,1,,,0,,,76,64
18720,note_on,,,,,0,0,2,,,1,,,60,71
18720,note_on,,,,,0,0,1,,,0,,,76,71
18720,note_on,,,,,24,0,1,,,0,,,79,71
18720,note_on,,,,,24,0,2,,,1,,,64,71
18816,note_off,,,,,96,0,1,,,0,,,79,64
18840,note_on,,,,,24,0,1,,,0,,,78,71
18936,note_off,,,,,96,0,1,,,0,,,78,64
18960,note_on,,,,,24,0,1,,,0,,,81,71
19008,note_off,,,,,0,0,2,,,1,,,64,64
19008,note_off,,,,,288,0,2,,,1,,,60,64
19008,note_off,,,,,48,0,1,,,0,,,76,64
19056,note_off,,,,,48,0,1,,,0,,,81,64
19080,note_on,,,,,24,0,1,,,0,,,79,71
19080,note_on,,,,,0,0,2,,,1,,,67,71
19080,note_on,,,,,72,0,2,,,1,,,64,71
19080,note_on,,,,,0,0,1,,,0,,,72,71
19176,note_off,,,,,0,0,2,,,1,,,64,64
19176,note_off,,,,,96,0,2,,,1,,,67,64
19176,note_off,,,,,96,0,1,,,0,,,72,64
19176,note_off,,,,,0,0,1,,,0,,,79,64
19200,note_on,,,,,0,0,2,,,1,,,67,71
19200,note_on,,,,,24,0,2,,,1,,,64,71
19200,note_on,,,,,0,0,1,,,0,,,73,71
19200,note_on,,,,,24,0,1,,,0,,,82,110
19392,note_off,,,,,0,0,2,,,1,,,64,64
19392,note_off,,,,,192,0,2,,,1,,,67,64
19392,note_off,,,,,0,0,1,,,0,,,82,64
19392,note_off,,,,,192,0,1,,,0,,,73,64
19440,note_on,,,,,48,0,2,,,1,,,65,71
19440,note_on,,,,,0,0,1,,,0,,,81,71
19440,note_on,,,,,48,0,1,,,0,,,74,71
19536,note_off,,,,,96,0,1,,,0,,,81,64
19536,note_off,,,,,0,0,1,,,0,,,74,64
19536,note_off,,,,,96,0,2,,,1,,,65,64
19680,note_on,,,,,144,0,2,,,1,,,53,71
19680,note_on,,,,,0,0,2,,,1,,,50,71
19872,note_off,,,,,192,0,2,,,1,,,50,64
19872,note_off,,,,,0,0,2,,,1,,,53,64
19920,note_on,,,,,0,0,2,,,1,,,55,71
19920,note_on,,,,,48,0,2,,,1,,,52,71
20016,note_off,,,,,0,0,2,,,1,,,52,64
20016,note_off,,,,,96,0,2,,,1,,,55,64
20040,note_on,,,,,0,0,2,,,1,,,57,71
20040,note_on,,,,,24,0,2,,,1,,,53,71
20040,note_on,,,,,504,0,1,,,0,,,62,71
20136,note_off,,,,,0,0,2,,,1,,,53,64
20136,note_off,,,,,96,0,2,,,1,,,57,64
20136,note_off,,,,,96,0,1,,,0,,,62,64
20160,note_on,,,,,24,0,1,,,0,,,62,71
20160,note_on,,,,,24,0,2,,,1,,,58,71
20160,note_on,,,,,0,0,2,,,1,,,55,71
20256,note_off,,,,,96,0,2,,,1,,,55,64
20256,note_off,,,,,0,0,2,,,1,,,58,64
20352,note_off,,,,,192,0,1,,,0,,,62,64
20400,note_on,,,,,0,0,2,,,1,,,53,71
20400,note_on,,,,,48,0,1,,,0,,,64,71
20400,note_on,,,,,144,0,2,,,1,,,57,71
20496,note_off,,,,,0,0,2,,,1,,,57,64
20496,note_off,,,,,96,0,2,,,1,,,53,64
20496,note_off,,,,,96,0,1,,,0,,,64,64
20520,note_on,,,,,24,0,1,,,0,,,65,71
20616,note_off,,,,,96,0,1,,,0,,,65,64
20640,note_on,,,,,144,0,2,,,1,,,57,71
20640,note_on,,,,,0,0,2,,,1,,,61,71
20640,note_on,,,,,24,0,1,,,0,,,67,71
20832,note_off,,,,,192,0,1,,,0,,,67,64
20832,note_off,,,,,192,0,2,,,1,,,61,64
20832,note_off,,,,,0,0,2,,,1,,,57,64
20880,note_on,,,,,48,0,1,,,0,,,67,71
20880,note_on,,,,,48,0,2,,,1,,,59,71
20880,note_on,,,,,0,0,2,,,1,,,62,71
20976,note_off,,,,,96,0,2,,,1,,,62,64
20976,note_off,,,,,96,0,1,,,0,,,67,64
20976,note_off,,,,,0,0,2,,,1,,,59,64
21000,note_on,,,,,24,0,1,,,0,,,67,71
21000,note_on,,,,,0,0,1,,,0,,,69,71
21000,note_on,,,,,24,0,2,,,1,,,64,71
21000,note_on,,,,,0,0,2,,,1,,,61,71
21096,note_off,,,,,96,0,1,,,0,,,69,64
21096,note_off,,,,,96,0,2,,,1,,,61,64
21096,note_off,,,,,0,0,2,,,1,,,64,64
21096,note_off,,,,,0,0,1,,,0,,,67,64
21120,note_on,,,,,24,0,2,,,1,,,62,71
21120,note_on,,,,,24,0,1,,,0,,,69,71
21120,note_on,,,,,0,0,2,,,1,,,67,71
21312,note_off,,,,,192,0,1,,,0,,,69,64
21312,note_off,,,,,192,0,2,,,1,,,67,64
21360,note_on,,,,,48,0,1,,,0,,,71,71
21360,note_on,,,,,48,0,2,,,1,,,65,71
21456,note_off,,,,,96,0,2,,,1,,,62,64
21456,note_off,,,,,0,0,2,,,1,,,65,64
21456,note_off,,,,,96,0,1,,,0,,,71,64
21480,note_on,,,,,24,0,1,,,0,,,73,71
21480,note_on,,,,,24,0,2,,,1,,,64,71
21480,note_on,,,,,0,0,2,,,1,,,57,71
21480,note_on,,,,,0,0,1,,,0,,,81,71
21576,note_off,,,,,0,0,1,,,0,,,73,64
21576,note_off,,,,,96,0,1,,,0,,,81,64
21576,note_off,,,,,96,0,2,,,1,,,57,64
21576,note_off,,,,,0,0,2,,,1,,,64,64
21600,note_on,,,,,0,0,2,,,1,,,65,71
21600,note_on,,,,,0,0,1,,,0,,,81,71
21600,note_on,,,,,24,0,1,,,0,,,74,71
21600,note_on,,,,,24,0,2,,,1,,,62,71
21792,note_off,,,,,192,0,2,,,1,,,65,64
21792,note_off,,,,,192,0,1,,,0,,,74,64
21792,note_off,,,,,0,0,2,,,1,,,62,64
21840,note_on,,,,,0,0,2,,,1,,,64,71
21840,note_on,,,,,48,0,1,,,0,,,76,71
21840,note_on,,,,,48,0,2,,,1,,,57,71
21888,note_off,,,,,48,0,1,,,0,,,81,64
21936,note_off,,,,,48,0,1,,,0,,,76,64
21936,note_off,,,,,0,0,2,,,1,,,57,64
21936,note_off,,,,,96,0,2,,,1,,,64,64
21960,note_on,,,,,24,0,1,,,0,,,77,71
21960,note_on,,,,,0,0,1,,,0,,,81,71
21960,note_on,,,,,0,0,2,,,1,,,53,71
21960,note_on,,,,,24,0,2,,,1,,,62,71
22056,note_off,,,,,96,0,1,,,0,,,81,64
22056,note_off,,,,,0,0,1,,,0,,,77,64
22056,note_off,,,,,96,0,2,,,1,,,53,64
22056,note_off,,,,,0,0,2,,,1,,,62,64
22080,note_on,,,,,0,0,1,,,0,,,79,71
22080,note_on,,,,,24,0,1,,,0,,,81,71
22080,note_on,,,,,24,0,2,,,1,,,61,71
22080,note_on,,,,,0,0,2,,,1,,,57,71
22176,note_off,,,,,96,0,1,,,0,,,81,64
22200,note_on,,,,,24,0,1,,,0,,,80,71
22296,note_off,,,,,96,0,1,,,0,,,80,64
22320,note_on,,,,,24,0,1,,,0,,,82,71
22368,note_off,,,,,48,0,1,,,0,,,79,64
22368,note_off,,,,,0,0,2,,,1,,,61,64
22368,note_off,,,,,288,0,2,,,1,,,57,64
22416,note_off,,,,,48,0,1,,,0,,,82,64
22440,note_on,,,,,24,0,1,,,0,,,77,71
22440,note_on,,,,,0,0,1,,,0,,,81,71
22440,note_on,,,,,0,0,2,,,1,,,65,71
22440,note_on,,,,,72,0,2,,,1,,,62,71
22536,note_off,,,,,0,0,1,,,0,,,77,64
22536,note_off,,,,,96,0,2,,,1,,,65,64
22536,note_off,,,,,96,0,1,,,0,,,81,64
22536,note_off,,,,,0,0,2,,,1,,,62,64
22560,note_on,,,,,24,0,1,,,0,,,77,71
22560,note_on,,,,,24,0,2,,,1,,,62,71
22560,note_on,,,,,0,0,2,,,1,,,65,71
22560,note_on,,,,,0,0,1,,,0,,,81,71
22656,note_off,,,,,96,0,1,,,0,,,81,64
22680,note_on,,,,,24,0,1,,,0,,,80,71
22776,note_off,,,,,96,0,1,,,0,,,80,64
22800,note_on,,,,,24,0,1,,,0,,,82,71
22848,note_off,,,,,0,0,2,,,1,,,62,64
22848,note_off,,,,,48,0,1,,,0,,,77,64
22848,note_off,,,,,288,0,2,,,1,,,65,64
22896,note_off,,,,,48,0,1,,,0,,,82,64
22920,note_on,,,,,0,0,2,,,1,,,65,71
22920,note_on,,,,,72,0,2,,,1,,,69,71
22920,note_on,,,,,0,0,1,,,0,,,81,71
22920,note_on,,,,,24,0,1,,,0,,,74,71
23016,note_off,,,,,96,0,1,,,0,,,81,64
23016,note_off,,,,,0,0,1,,,0,,,74,64
23016,note_off,,,,,96,0,2,,,1,,,65,64
23016,note_off,,,,,0,0,2,,,1,,,69,64
23040,note_on,,,,,24,0,1,,,0,,,84,110
23040,note_on,,,,,0,0,1,,,0,,,69,71
23040,note_on,,,,,0,0,1,,,0,,,66,71
23040,note_on,,,,,0,0,1,,,0,,,75,71
23232,note_off,,,,,192,0,1,,,0,,,75,64
23232,note_off,,,,,0,0,1,,,0,,,66,64
23232,note_off,,,,,0,0,1,,,0,,,69,64
23232,note_off,,,,,0,0,1,,,0,,,84,64
23280,note_on,,,,,48,0,1,,,0,,,83,71
23280,note_on,,,,,0,0,1,,,0,,,67,71
23280,note_on,,,,,0,0,1,,,0,,,76,71
23376,note_off,,,,,0,0,1,,,0,,,67,64
23376,note_off,,,,,96,0,1,,,0,,,76,64
23376,note_off,,,,,0,0,1,,,0,,,83,64
23520,note_on,,,,,0,0,2,,,1,,,55,71
23520,note_on,,,,,504,0,2,,,1,,,52,71
23712,note_off,,,,,0,0,2,,,1,,,52,64
23712,note_off,,,,,192,0,2,,,1,,,55,64
23760,note_on,,,,,0,0,2,,,1,,,54,71
23760,note_on,,,,,48,0,2,,,1,,,57,71
23856,note_off,,,,,0,0,2,,,1,,,57,64
23856,note_off,,,,,96,0,2,,,1,,,54,64
23880,note_on,,,,,0,0,2,,,1,,,55,71
23880,note_on,,,,,24,0,2,,,1,,,59,71
23976,note_off,,,,,0,0,2,,,1,,,59,64
23976,note_off,,,,,96,0,2,,,1,,,55,64
24000,note_on,,,,,0,0,2,,,1,,,57,71
24000,note_on,,,,,24,0,2,,,1,,,60,110
24000,note_on,,,,,624,0,1,,,0,,,88,110
24000,note_on,,,,,0,0,1,,,0,,,78,71
24192,note_off,,,,,192,0,1,,,0,,,88,64
24240,note_on,,,,,48,0,1,,,0,,,87,71
24288,note_off,,,,,0,0,2,,,1,,,60,64
24288,note_off,,,,,288,0,2,,,1,,,57,64
24336,note_off,,,,,96,0,1,,,0,,,87,64
24336,note_off,,,,,0,0,1,,,0,,,78,64
24480,note_on,,,,,0,0,1,,,0,,,64,71
24480,note_on,,,,,144,0,1,,,0,,,55,71
24672,note_off,,,,,0,0,1,,,0,,,55,64
24672,note_off,,,,,192,0,1,,,0,,,64,64
24720,note_on,,,,,0,0,1,,,0,,,57,71
24720,note_on,,,,,48,0,1,,,0,,,66,71
24816,note_off,,,,,0,0,1,,,0,,,66,64
24816,note_off,,,,,96,0,1,,,0,,,57,64
24840,note_on,,,,,24,0,1,,,0,,,59,71
24840,note_on,,,,,0,0,1,,,0,,,67,71
24936,note_off,,,,,0,0,1,,,0,,,59,64
24936,note_off,,,,,96,0,1,,,0,,,67,64
24960,note_on,,,,,672,0,2,,,1,,,63,110
24960,note_on,,,,,0,0,2,,,1,,,60,71
24960,note_on,,,,,0,0,2,,,1,,,69,71
24960,note_on,,,,,0,0,1,,,0,,,91,71
24960,note_on,,,,,24,0,1,,,0,,,81,110
25152,note_off,,,,,0,0,1,,,0,,,81,64
25152,note_off,,,,,192,0,1,,,0,,,91,64
25152,note_off,,,,,192,0,2,,,1,,,69,64
25152,note_off,,,,,0,0,2,,,1,,,60,64
25152,note_off,,,,,0,0,2,,,1,,,63,64
25200,note_on,,,,,48,0,1,,,0,,,90,71
25313,note_off,,,,,113,0,1,,,0,,,90,64
25320,note_on,,,,,168,0,2,,,1,,,60,71
25320,note_on,,,,,0,0,2,,,1,,,69,71
25320,note_on,,,,,0,0,2,,,1,,,63,71
25416,note_off,,,,,96,0,2,,,1,,,69,64
25416,note_off,,,,,0,0,2,,,1,,,63,64
25416,note_off,,,,,0,0,2,,,1,,,60,64
25440,note_on,,,,,0,0,1,,,0,,,82,71
25440,note_on,,,,,0,0,2,,,1,,,64,71
25440,note_on,,,,,0,0,2,,,1,,,70,71
25440,note_on,,,,,24,0,2,,,1,,,61,110
25440,note_on,,,,,127,0,1,,,0,,,93,110
25632,note_off,,,,,192,0,1,,,0,,,82,64
25632,note_off,,,,,0,0,1,,,0,,,93,64
25680,note_on,,,,,48,0,1,,,0,,,91,71
25728,note_off,,,,,0,0,2,,,1,,,70,64
25728,note_off,,,,,0,0,2,,,1,,,61,64
25728,note_off,,,,,288,0,2,,,1,,,64,64
25776,note_off,,,,,96,0,1,,,0,,,91,64
26280,note_on,,,,,552,0,2,,,1,,,51,91
26280,note_on,,,,,0,0,2,,,1,,,47,91
26376,note_off,,,,,96,0,2,,,1,,,47,64
26376,note_off,,,,,0,0,2,,,1,,,51,64
26400,note_on,,,,,24,0,2,,,1,,,51,91
26400,note_on,,,,,0,0,2,,,1,,,47,91
26592,note_off,,,,,192,0,2,,,1,,,47,64
26592,note_off,,,,,0,0,2,,,1,,,51,64
26640,note_on,,,,,48,0,2,,,1,,,52,91
26640,note_on,,,,,0,0,2,,,1,,,49,91
26736,note_off,,,,,0,0,2,,,1,,,52,64
26736,note_off,,,,,96,0,2,,,1,,,49,64
26760,note_on,,,,,0,0,2,,,1,,,54,91
26760,note_on,,,,,24,0,2,,,1,,,51,91
26856,note_off,,,,,96,0,2,,,1,,,54,64
26856,note_off,,,,,0,0,2,,,1,,,51,64
26880,note_on,,,,,0,0,1,,,0,,,76,91
26880,note_on,,,,,24,0,2,,,1,,,52,91
26880,note_on,,,,,0,0,2,,,1,,,56,91
26880,note_on,,,,,1104,0,1,,,0,,,64,91
27072,note_off,,,,,192,0,1,,,0,,,76,64
27072,note_off,,,,,0,0,1,,,0,,,64,64
27105,note_off,,,,,0,0,2,,,1,,,52,64
27105,note_off,,,,,225,0,2,,,1,,,56,64
27120,note_on,,,,,15,0,2,,,1,,,56,91
27120,note_on,,,,,0,0,2,,,1,,,59,91
27120,note_on,,,,,48,0,1,,,0,,,75,91
27216,note_off,,,,,96,0,2,,,1,,,59,64
27216,note_off,,,,,0,0,2,,,1,,,56,64
27216,note_off,,,,,96,0,1,,,0,,,75,64
27240,note_on,,,,,24,0,2,,,1,,,61,91
27240,note_on,,,,,0,0,2,,,1,,,57,91
27240,note_on,,,,,24,0,1,,,0,,,73,91
27336,note_off,,,,,96,0,1,,,0,,,73,64
27336,note_off,,,,,0,0,2,,,1,,,61,64
27336,note_off,,,,,96,0,2,,,1,,,57,64
27360,note_on,,,,,0,0,2,,,1,,,59,91
27360,note_on,,,,,24,0,2,,,1,,,63,91
27360,note_on,,,,,24,0,1,,,0,,,81,91
27360,note_on,,,,,0,0,1,,,0,,,71,91
27552,note_off,,,,,0,0,2,,,1,,,63,64
27552,note_off,,,,,192,0,2,,,1,,,59,64
27552,note_off,,,,,192,0,1,,,0,,,71,64
27552,note_off,,,,,0,0,1,,,0,,,81,64
27600,note_on,,,,,48,0,1,,,0,,,64,91
27600,note_on,,,,,0,0,1,,,0,,,61,91
27600,note_on,,,,,0,0,1,,,0,,,80,91
27696,note_off,,,,,0,0,1,,,0,,,64,64
27696,note_off,,,,,0,0,1,,,0,,,80,64
27696,note_off,,,,,96,0,1,,,0,,,61,64
27720,note_on,,,,,0,0,1,,,0,,,78,91
27720,note_on,,,,,0,0,1,,,0,,,66,91
27720,note_on,,,,,24,0,1,,,0,,,63,91
27816,note_off,,,,,0,0,1,,,0,,,63,64
27816,note_off,,,,,0,0,1,,,0,,,66,64
27816,note_off,,,,,96,0,1,,,0,,,78,64
27840,note_on,,,,,24,0,1,,,0,,,76,91
27840,note_on,,,,,0,0,1,,,0,,,83,91
27840,note_on,,,,,0,0,2,,,1,,,64,91
27840,note_on,,,,,288,0,2,,,1,,,68,91
28032,note_off,,,,,192,0,1,,,0,,,83,64
28032,note_off,,,,,0,0,2,,,1,,,68,64
28032,note_off,,,,,192,0,2,,,1,,,64,64
28080,note_on,,,,,0,0,2,,,1,,,69,91
28080,note_on,,,,,48,0,2,,,1,,,66,91
28080,note_on,,,,,48,0,1,,,0,,,81,91
28176,note_off,,,,,96,0,1,,,0,,,81,64
28176,note_off,,,,,96,0,2,,,1,,,69,64
28176,note_off,,,,,0,0,2,,,1,,,66,64
28200,note_on,,,,,24,0,1,,,0,,,80,91
28200,note_on,,,,,24,0,2,,,1,,,71,91
28200,note_on,,,,,0,0,2,,,1,,,68,91
28224,note_off,,,,,24,0,1,,,0,,,76,64
28296,note_off,,,,,72,0,1,,,0,,,80,64
28296,note_off,,,,,96,0,2,,,1,,,68,64
28296,note_off,,,,,0,0,2,,,1,,,71,64
28320,note_on,,,,,24,0,2,,,1,,,69,104
28320,note_on,,,,,0,0,2,,,1,,,72,104
28320,note_on,,,,,0,0,1,,,0,,,76,104
28320,note_on,,,,,24,0,1,,,0,,,78,104
28416,note_off,,,,,96,0,2,,,1,,,72,64
28416,note_off,,,,,0,0,2,,,1,,,69,64
28416,note_off,,,,,96,0,1,,,0,,,78,64
28440,note_on,,,,,24,0,2,,,1,,,70,104
28440,note_on,,,,,0,0,2,,,1,,,73,104
28440,note_on,,,,,24,0,1,,,0,,,79,104
28512,note_off,,,,,72,0,1,,,0,,,76,64
28536,note_off,,,,,24,0,1,,,0,,,79,64
28536,note_off,,,,,96,0,2,,,1,,,73,64
28536,note_off,,,,,0,0,2,,,1,,,70,64
28560,note_on,,,,,0,0,2,,,1,,,70,104
28560,note_on,,,,,0,0,1,,,0,,,76,104
28560,note_on,,,,,24,0,1,,,0,,,79,110
28560,note_on,,,,,24,0,2,,,1,,,73,110
28752,note_off,,,,,0,0,1,,,0,,,79,64
28752,note_off,,,,,192,0,1,,,0,,,76,64
28752,note_off,,,,,192,0,2,,,1,,,70,64
28752,note_off,,,,,0,0,2,,,1,,,73,64
28800,note_on,,,,,0,0,2,,,1,,,70,104
28800,note_on,,,,,48,0,2,,,1,,,73,104
28800,note_on,,,,,0,0,1,,,0,,,76,104
28800,note_on,,,,,48,0,1,,,0,,,79,104
28896,note_off,,,,,96,0,1,,,0,,,79,64
28913,note_off,,,,,113,0,2,,,1,,,70,64
28913,note_off,,,,,0,0,2,,,1,,,73,64
28920,note_on,,,,,24,0,1,,,0,,,78,104
28920,note_on,,,,,0,0,2,,,1,,,69,104
28920,note_on,,,,,7,0,2,,,1,,,72,104
28992,note_off,,,,,72,0,1,,,0,,,76,64
29016,note_off,,,,,24,0,1,,,0,,,78,64
29016,note_off,,,,,96,0,2,,,1,,,69,64
29016,note_off,,,,,0,0,2,,,1,,,72,64
29040,note_on,,,,,24,0,2,,,1,,,69,104
29040,note_on,,,,,0,0,2,,,1,,,72,104
29040,note_on,,,,,24,0,1,,,0,,,78,104
29040,note_on,,,,,0,0,1,,,0,,,76,104
29136,note_off,,,,,96,0,1,,,0,,,78,64
29136,note_off,,,,,0,0,2,,,1,,,69,64
29136,note_off,,,,,96,0,2,,,1,,,72,64
29160,note_on,,,,,24,0,2,,,1,,,73,104
29160,note_on,,,,,0,0,2,,,1,,,70,104
29160,note_on,,,,,24,0,1,,,0,,,79,104
29232,note_off,,,,,72,0,1,,,0,,,76,64
29256,note_off,,,,,24,0,1,,,0,,,79,64
29256,note_off,,,,,96,0,2,,,1,,,70,64
29256,note_off,,,,,0,0,2,,,1,,,73,64
29280,note_on,,,,,24,0,2,,,1,,,70,104
29280,note_on,,,,,0,0,1,,,0,,,76,104
29280,note_on,,,,,24,0,1,,,0,,,79,104
29280,note_on,,,,,0,0,2,,,1,,,73,104
29376,note_off,,,,,96,0,1,,,0,,,79,64
29376,note_off,,,,,96,0,2,,,1,,,73,64
29376,note_off,,,,,0,0,2,,,1,,,70,64
29400,note_on,,,,,24,0,1,,,0,,,80,104
29400,note_on,,,,,24,0,2,,,1,,,74,104
29400,note_on,,,,,0,0,2,,,1,,,71,104
29472,note_off,,,,,72,0,1,,,0,,,76,64
29496,note_off,,,,,24,0,1,,,0,,,80,64
29496,note_off,,,,,0,0,2,,,1,,,74,64
29496,note_off,,,,,96,0,2,,,1,,,71,64
29520,note_on,,,,,24,0,2,,,1,,,71,104
29520,note_on,,,,,0,0,2,,,1,,,74,104
29520,note_on,,,,,0,0,1,,,0,,,76,104
29520,note_on,,,,,24,0,1,,,0,,,80,104
29856,note_off,,,,,336,0,2,,,1,,,71,64
29856,note_off,,,,,336,0,1,,,0,,,80,64
29856,note_off,,,,,0,0,2,,,1,,,74,64
29880,note_on,,,,,24,0,2,,,1,,,70,104
29880,note_on,,,,,0,0,2,,,1,,,73,104
29880,note_on,,,,,24,0,1,,,0,,,79,104
29952,note_off,,,,,72,0,1,,,0,,,76,64
29976,note_off,,,,,24,0,1,,,0,,,79,64
29976,note_off,,,,,96,0,2,,,1,,,73,64
29976,note_off,,,,,0,0,2,,,1,,,70,64
30000,note_on,,,,,24,0,1,,,0,,,79,104
30000,note_on,,,,,24,0,2,,,1,,,70,104
30000,note_on,,,,,0,0,1,,,0,,,76,104
30000,note_on,,,,,0,0,2,,,1,,,73,104
30096,note_off,,,,,96,0,2,,,1,,,73,64
30096,note_off,,,,,0,0,2,,,1,,,70,64
30096,note_off,,,,,96,0,1,,,0,,,79,64
30120,note_on,,,,,24,0,2,,,1,,,74,104
30120,note_on,,,,,24,0,1,,,0,,,80,104
30120,note_on,,,,,0,0,2,,,1,,,71,104
30192,note_off,,,,,72,0,1,,,0,,,76,64
30216,note_off,,,,,96,0,2,,,1,,,71,64
30216,note_off,,,,,0,0,2,,,1,,,74,64
30216,note_off,,,,,24,0,1,,,0,,,80,64
30240,note_on,,,,,24,0,2,,,1,,,71,104
30240,note_on,,,,,0,0,2,,,1,,,74,104
30240,note_on,,,,,24,0,1,,,0,,,80,104
30240,note_on,,,,,0,0,1,,,0,,,76,104
30336,note_off,,,,,96,0,2,,,1,,,74,64
30336,note_off,,,,,0,0,2,,,1,,,71,64
30336,note_off,,,,,96,0,1,,,0,,,80,64
30360,note_on,,,,,24,0,2,,,1,,,72,104
30360,note_on,,,,,24,0,1,,,0,,,81,104
30432,note_off,,,,,72,0,1,,,0,,,76,64
30456,note_off,,,,,24,0,1,,,0,,,81,64
30456,note_off,,,,,96,0,2,,,1,,,72,64
30480,note_on,,,,,24,0,2,,,1,,,72,104
30480,note_on,,,,,0,0,1,,,0,,,76,104
30480,note_on,,,,,24,0,1,,,0,,,81,104
30816,note_off,,,,,0,0,1,,,0,,,81,64
30816,note_off,,,,,336,0,1,,,0,,,76,64
30816,note_off,,,,,336,0,2,,,1,,,72,64
30840,note_on,,,,,24,0,2,,,1,,,73,104
30840,note_on,,,,,0,0,1,,,0,,,76,104
30840,note_on,,,,,24,0,1,,,0,,,82,104
30936,note_off,,,,,96,0,2,,,1,,,73,64
30936,note_off,,,,,96,0,1,,,0,,,76,64
30936,note_off,,,,,0,0,1,,,0,,,82,64
30960,note_on,,,,,24,0,1,,,0,,,82,104
30960,note_on,,,,,24,0,2,,,1,,,73,104
30960,note_on,,,,,0,0,1,,,0,,,76,104
31056,note_off,,,,,0,0,1,,,0,,,82,64
31056,note_off,,,,,96,0,1,,,0,,,76,64
31056,note_off,,,,,96,0,2,,,1,,,73,64
31080,note_on,,,,,24,0,2,,,1,,,70,104
31080,note_on,,,,,24,0,1,,,0,,,85,104
31080,note_on,,,,,0,0,1,,,0,,,79,104
31176,note_off,,,,,96,0,2,,,1,,,70,64
31176,note_off,,,,,96,0,1,,,0,,,79,64
31176,note_off,,,,,0,0,1,,,0,,,85,64
31200,note_on,,,,,24,0,2,,,1,,,70,104
31200,note_on,,,,,0,0,1,,,0,,,79,104
31200,note_on,,,,,24,0,1,,,0,,,85,104
31296,note_off,,,,,96,0,2,,,1,,,70,64
31296,note_off,,,,,96,0,1,,,0,,,79,64
31296,note_off,,,,,0,0,1,,,0,,,85,64
31320,note_on,,,,,0,0,1,,,0,,,88,104
31320,note_on,,,,,24,0,2,,,1,,,67,104
31320,note_on,,,,,24,0,1,,,0,,,82,104
31416,note_off,,,,,0,0,1,,,0,,,82,64
31416,note_off,,,,,96,0,2,,,1,,,67,64
31416,note_off,,,,,96,0,1,,,0,,,88,64
31440,note_on,,,,,0,0,1,,,0,,,82,104
31440,note_on,,,,,24,0,2,,,1,,,67,104
31440,note_on,,,,,24,0,1,,,0,,,88,104
31536,note_off,,,,,0,0,1,,,0,,,88,64
31536,note_off,,,,,96,0,1,,,0,,,82,64
31536,note_off,,,,,96,0,2,,,1,,,67,64
31560,note_on,,,,,0,0,1,,,0,,,85,104
31560,note_on,,,,,24,0,1,,,0,,,91,104
31560,note_on,,,,,24,0,2,,,1,,,58,104
31656,note_off,,,,,0,0,1,,,0,,,91,64
31656,note_off,,,,,96,0,1,,,0,,,85,64
31656,note_off,,,,,96,0,2,,,1,,,58,64
31680,note_on,,,,,24,0,1,,,0,,,59,104
31680,note_on,,,,,0,0,1,,,0,,,90,104
31680,note_on,,,,,0,0,1,,,0,,,87,104
31776,note_off,,,,,96,0,1,,,0,,,90,64
31776,note_off,,,,,0,0,1,,,0,,,59,64
31776,note_off,,,,,0,0,1,,,0,,,87,64
31800,note_on,,,,,144,0,2,,,1,,,47,104
31896,note_off,,,,,96,0,2,,,1,,,47,64
31920,note_on,,,,,0,0,2,,,1,,,48,104
31920,note_on,,,,,24,0,2,,,1,,,60,104
32040,note_on,,,,,264,0,1,,,0,,,66,104
32160,note_on,,,,,120,0,1,,,0,,,69,104
32160,note_on,,,,,0,0,1,,,0,,,78,104
32208,note_off,,,,,288,0,2,,,1,,,48,64
32208,note_off,,,,,0,0,2,,,1,,,60,64
32280,note_on,,,,,72,0,2,,,1,,,35,104
32376,note_off,,,,,96,0,2,,,1,,,35,64
32400,note_on,,,,,24,0,2,,,1,,,48,104
32400,note_on,,,,,0,0,2,,,1,,,36,104
32448,note_off,,,,,288,0,1,,,0,,,78,64
32520,note_on,,,,,72,0,1,,,0,,,76,104
32592,note_off,,,,,192,0,2,,,1,,,36,64
32592,note_off,,,,,0,0,2,,,1,,,48,64
32616,note_off,,,,,96,0,1,,,0,,,76,64
32640,note_on,,,,,24,0,1,,,0,,,75,104
32736,note_off,,,,,0,0,1,,,0,,,66,64
32736,note_off,,,,,0,0,1,,,0,,,75,64
32736,note_off,,,,,96,0,1,,,0,,,69,64
32760,note_on,,,,,168,0,2,,,1,,,47,104
32856,note_off,,,,,96,0,2,,,1,,,47,64
32880,note_on,,,,,24,0,2,,,1,,,60,104
32880,note_on,,,,,0,0,2,,,1,,,48,104
33000,note_on,,,,,264,0,1,,,0,,,78,104
33072,note_off,,,,,0,0,2,,,1,,,60,64
33072,note_off,,,,,192,0,2,,,1,,,48,64
33120,note_on,,,,,0,0,1,,,0,,,90,104
33120,note_on,,,,,120,0,1,,,0,,,81,104
33240,note_on,,,,,168,0,2,,,1,,,35,104
33336,note_off,,,,,96,0,2,,,1,,,35,64
33360,note_on,,,,,0,0,2,,,1,,,36,104
33360,note_on,,,,,24,0,2,,,1,,,48,104
33408,note_off,,,,,288,0,1,,,0,,,90,64
33480,note_on,,,,,72,0,1,,,0,,,88,104
33504,note_off,,,,,24,0,1,,,0,,,78,64
33504,note_off,,,,,0,0,1,,,0,,,81,64
33552,note_off,,,,,192,0,2,,,1,,,36,64
33552,note_off,,,,,0,0,2,,,1,,,48,64
33576,note_off,,,,,72,0,1,,,0,,,88,64
33600,note_on,,,,,0,0,2,,,1,,,47,104
33600,note_on,,,,,0,0,1,,,0,,,87,104
33600,note_on,,,,,48,0,2,,,1,,,35,104
33600,note_on,,,,,0,0,1,,,0,,,81,104
33600,note_on,,,,,24,0,1,,,0,,,78,104
33696,note_off,,,,,96,0,1,,,0,,,87,64
33696,note_off,,,,,0,0,1,,,0,,,81,64
33696,note_off,,,,,0,0,1,,,0,,,78,64
33696,note_off,,,,,0,0,2,,,1,,,35,64
33696,note_off,,,,,96,0,2,,,1,,,47,64
33840,note_on,,,,,144,0,2,,,1,,,59,104
33840,note_on,,,,,0,0,2,,,1,,,54,104
33840,note_on,,,,,0,0,2,,,1,,,51,104
33840,note_on,,,,,0,0,1,,,0,,,93,104
33840,note_on,,,,,0,0,1,,,0,,,87,104
33840,note_on,,,,,0,0,1,,,0,,,90,104
33840,note_on,,,,,144,0,1,,,0,,,81,104
33840,note_on,,,,,0,0,2,,,1,,,47,104
33936,note_off,,,,,0,0,2,,,1,,,54,64
33936,note_off,,,,,96,0,2,,,1,,,47,64
33936,note_off,,,,,0,0,1,,,0,,,81,64
33936,note_off,,,,,0,0,1,,,0,,,90,64
33936,note_off,,,,,0,0,1,,,0,,,87,64
33936,note_off,,,,,96,0,1,,,0,,,93,64
33936,note_off,,,,,0,0,2,,,1,,,59,64
33936,note_off,,,,,0,0,2,,,1,,,51,64
34320,note_on,,,,,384,0,1,,,0,,,66,104
34512,note_off,,,,,192,0,1,,,0,,,66,64
34560,note_on,,,,,48,0,1,,,0,,,69,104
34680,note_on,,,,,744,0,2,,,1,,,60,104
34776,note_off,,,,,96,0,2,,,1,,,60,64
34800,note_on,,,,,24,0,2,,,1,,,64,104
34896,note_off,,,,,96,0,2,,,1,,,64,64
34920,note_on,,,,,24,0,2,,,1,,,76,104
35016,note_off,,,,,96,0,2,,,1,,,76,64
35136,note_off,,,,,576,0,1,,,0,,,69,64
35280,note_on,,,,,144,0,1,,,0,,,66,104
35472,note_off,,,,,192,0,1,,,0,,,66,64
35520,note_on,,,,,48,0,1,,,0,,,69,104
35640,note_on,,,,,624,0,2,,,1,,,59,104
35736,note_off,,,,,96,0,2,,,1,,,59,64
35760,note_on,,,,,24,0,2,,,1,,,63,104
35856,note_off,,,,,96,0,2,,,1,,,63,64
35880,note_on,,,,,24,0,2,,,1,,,75,104
35976,note_off,,,,,96,0,2,,,1,,,75,64
36096,note_off,,,,,576,0,1,,,0,,,69,64
36240,note_on,,,,,144,0,1,,,0,,,66,71
36432,note_off,,,,,192,0,1,,,0,,,66,64
36480,note_on,,,,,48,0,1,,,0,,,69,71
36600,note_on,,,,,624,0,2,,,1,,,60,71
36696,note_off,,,,,96,0,2,,,1,,,60,64
36720,note_on,,,,,24,0,2,,,1,,,64,71
36816,note_off,,,,,96,0,2,,,1,,,64,64
36840,note_on,,,,,24,0,2,,,1,,,60,71
36864,note_off,,,,,384,0,1,,,0,,,69,64
36936,note_off,,,,,96,0,2,,,1,,,60,64
36960,note_on,,,,,24,0,2,,,1,,,64,71
36960,note_on,,,,,96,0,1,,,0,,,71,71
37056,note_off,,,,,96,0,2,,,1,,,64,64
37080,note_on,,,,,24,0,2,,,1,,,60,71
37176,note_off,,,,,96,0,2,,,1,,,60,64
37200,note_on,,,,,24,0,2,,,1,,,64,71
37248,note_off,,,,,288,0,1,,,0,,,71,64
37296,note_off,,,,,96,0,2,,,1,,,64,64
37320,note_on,,,,,24,0,2,,,1,,,69,71
37320,note_on,,,,,72,0,1,,,0,,,72,71
37416,note_off,,,,,96,0,1,,,0,,,72,64
37416,note_off,,,,,96,0,2,,,1,,,69,64
37440,note_on,,,,,24,0,1,,,0,,,72,71
37560,note_on,,,,,144,0,2,,,1,,,62,71
37656,note_off,,,,,96,0,2,,,1,,,62,64
37680,note_on,,,,,24,0,2,,,1,,,65,71
37776,note_off,,,,,96,0,2,,,1,,,65,64
37800,note_on,,,,,24,0,2,,,1,,,62,71
37824,note_off,,,,,384,0,1,,,0,,,72,64
37896,note_off,,,,,96,0,2,,,1,,,62,64
37920,note_on,,,,,24,0,2,,,1,,,65,71
37920,note_on,,,,,96,0,1,,,0,,,71,71
38016,note_off,,,,,96,0,2,,,1,,,65,64
38040,note_on,,,,,24,0,2,,,1,,,62,71
38112,note_off,,,,,192,0,1,,,0,,,71,64
38136,note_off,,,,,96,0,2,,,1,,,62,64
38160,note_on,,,,,24,0,2,,,1,,,65,71
38256,note_off,,,,,96,0,2,,,1,,,65,64
38280,note_on,,,,,168,0,1,,,0,,,74,71
38280,note_on,,,,,24,0,2,,,1,,,69,71
38376,note_off,,,,,96,0,1,,,0,,,74,64
38376,note_off,,,,,96,0,2,,,1,,,69,64
38400,note_on,,,,,24,0,1,,,0,,,77,71
38520,note_on,,,,,144,0,2,,,1,,,52,71
38616,note_off,,,,,96,0,2,,,1,,,52,64
38640,note_on,,,,,24,0,2,,,1,,,56,71
38736,note_off,,,,,96,0,2,,,1,,,56,64
38760,note_on,,,,,24,0,2,,,1,,,52,71
38784,note_off,,,,,384,0,1,,,0,,,77,64
38856,note_off,,,,,96,0,2,,,1,,,52,64
38880,note_on,,,,,96,0,1,,,0,,,76,71
38880,note_on,,,,,24,0,2,,,1,,,56,71
38976,note_off,,,,,96,0,2,,,1,,,56,64
39000,note_on,,,,,24,0,2,,,1,,,52,71
39096,note_off,,,,,96,0,2,,,1,,,52,64
39120,note_on,,,,,24,0,2,,,1,,,56,71
39168,note_off,,,,,288,0,1,,,0,,,76,64
39216,note_off,,,,,96,0,2,,,1,,,56,64
39240,note_on,,,,,24,0,2,,,1,,,62,71
39240,note_on,,,,,72,0,1,,,0,,,71,71
39336,note_off,,,,,96,0,2,,,1,,,62,64
39336,note_off,,,,,96,0,1,,,0,,,71,64
39360,note_on,,,,,24,0,1,,,0,,,74,71
39480,note_on,,,,,144,0,2,,,1,,,57,71
39576,note_off,,,,,96,0,2,,,1,,,57,64
39600,note_on,,,,,24,0,2,,,1,,,64,71
39696,note_off,,,,,96,0,2,,,1,,,64,64
39720,note_on,,,,,24,0,2,,,1,,,57,71
39744,note_off,,,,,384,0,1,,,0,,,74,64
39816,note_off,,,,,96,0,2,,,1,,,57,64
39840,note_on,,,,,96,0,1,,,0,,,72,71
39840,note_on,,,,,24,0,2,,,1,,,64,71
39936,note_off,,,,,96,0,2,,,1,,,64,64
39960,note_on,,,,,24,0,2,,,1,,,57,71
40032,note_off,,,,,192,0,1,,,0,,,72,64
40056,note_off,,,,,96,0,2,,,1,,,57,64
40080,note_on,,,,,24,0,2,,,1,,,64,71
40176,note_off,,,,,96,0,2,,,1,,,64,64
40200,note_on,,,,,24,0,2,,,1,,,69,71
40296,note_off,,,,,96,0,2,,,1,,,69,64
40320,note_on,,,,,288,0,1,,,0,,,72,71
40440,note_on,,,,,144,0,2,,,1,,,45,71
40536,note_off,,,,,96,0,2,,,1,,,45,64
40560,note_on,,,,,24,0,2,,,1,,,52,71
40656,note_off,,,,,96,0,2,,,1,,,52,64
40680,note_on,,,,,24,0,2,,,1,,,45,71
40704,note_off,,,,,384,0,1,,,0,,,72,64
40776,note_off,,,,,96,0,2,,,1,,,45,64
40800,note_on,,,,,96,0,1,,,0,,,72,71
40800,note_on,,,,,24,0,2,,,1,,,52,71
40800,note_on,,,,,0,0,1,,,0,,,72,71
40896,note_off,,,,,96,0,2,,,1,,,52,64
40920,note_on,,,,,24,0,2,,,1,,,45,71
41016,note_off,,,,,96,0,2,,,1,,,45,64
41040,note_on,,,,,24,0,2,,,1,,,52,71
41088,note_off,,,,,288,0,1,,,0,,,72,64
41136,note_off,,,,,96,0,2,,,1,,,52,64
41160,note_on,,,,,72,0,1,,,0,,,74,71
41160,note_on,,,,,24,0,2,,,1,,,54,71
41184,note_off,,,,,24,0,1,,,0,,,72,64
41256,note_off,,,,,96,0,2,,,1,,,54,64
41256,note_off,,,,,72,0,1,,,0,,,74,64
41280,note_on,,,,,24,0,1,,,0,,,72,71
41280,note_on,,,,,0,0,1,,,0,,,76,71
41400,note_on,,,,,144,0,2,,,1,,,43,71
41472,note_off,,,,,192,0,1,,,0,,,76,64
41472,note_off,,,,,0,0,1,,,0,,,72,64
41496,note_off,,,,,96,0,2,,,1,,,43,64
41520,note_on,,,,,24,0,2,,,1,,,52,71
41616,note_off,,,,,96,0,2,,,1,,,52,64
41640,note_on,,,,,24,0,2,,,1,,,55,81
41736,note_off,,,,,96,0,2,,,1,,,55,64
41760,note_on,,,,,288,0,1,,,0,,,76,81
41760,note_on,,,,,0,0,1,,,0,,,79,81
41760,note_on,,,,,24,0,2,,,1,,,60,81
41856,note_off,,,,,96,0,2,,,1,,,60,64
41880,note_on,,,,,24,0,2,,,1,,,55,81
41976,note_off,,,,,96,0,2,,,1,,,55,64
42000,note_on,,,,,24,0,2,,,1,,,52,81
42096,note_off,,,,,96,0,2,,,1,,,52,64
42120,note_on,,,,,24,0,2,,,1,,,48,81
42216,note_off,,,,,96,0,2,,,1,,,48,64
42240,note_on,,,,,24,0,2,,,1,,,42,81
42336,note_off,,,,,96,0,2,,,1,,,42,64
42360,note_on,,,,,24,0,2,,,1,,,47,81
42432,note_off,,,,,0,0,1,,,0,,,76,64
42432,note_off,,,,,672,0,1,,,0,,,79,64
42456,note_off,,,,,96,0,2,,,1,,,47,64
42480,note_on,,,,,24,0,2,,,1,,,52,81
42576,note_off,,,,,96,0,2,,,1,,,52,64
42600,note_on,,,,,24,0,2,,,1,,,55,91
42696,note_off,,,,,96,0,2,,,1,,,55,64
42720,note_on,,,,,0,0,1,,,0,,,83,91
42720,note_on,,,,,288,0,1,,,0,,,79,91
42720,note_on,,,,,24,0,2,,,1,,,40,91
42816,note_off,,,,,96,0,2,,,1,,,40,64
42840,note_on,,,,,24,0,2,,,1,,,47,91
42936,note_off,,,,,96,0,2,,,1,,,47,64
42960,note_on,,,,,24,0,2,,,1,,,52,91
43056,note_off,,,,,96,0,2,,,1,,,52,64
43080,note_on,,,,,24,0,2,,,1,,,55,91
43176,note_off,,,,,96,0,2,,,1,,,55,64
43200,note_on,,,,,24,0,2,,,1,,,35,91
43296,note_off,,,,,96,0,2,,,1,,,35,64
43320,note_on,,,,,24,0,2,,,1,,,47,91
43392,note_off,,,,,672,0,1,,,0,,,79,64
43392,note_off,,,,,0,0,1,,,0,,,83,64
43416,note_off,,,,,96,0,2,,,1,,,47,64
43440,note_on,,,,,24,0,2,,,1,,,50,91
43536,note_off,,,,,96,0,2,,,1,,,50,64
43560,note_on,,,,,24,0,2,,,1,,,55,91
43656,note_off,,,,,96,0,2,,,1,,,55,64
43680,note_on,,,,,288,0,1,,,0,,,79,104
43680,note_on,,,,,0,0,1,,,0,,,74,104
43680,note_on,,,,,0,0,1,,,0,,,86,104
43680,note_on,,,,,24,0,2,,,1,,,67,104
43776,note_off,,,,,96,0,2,,,1,,,67,64
43800,note_on,,,,,24,0,2,,,1,,,62,104
43896,note_off,,,,,96,0,2,,,1,,,62,64
43920,note_on,,,,,24,0,2,,,1,,,59,104
44016,note_off,,,,,96,0,2,,,1,,,59,64
44040,note_on,,,,,24,0,2,,,1,,,55,104
44136,note_off,,,,,96,0,2,,,1,,,55,64
44160,note_on,,,,,24,0,2,,,1,,,47,104
44256,note_off,,,,,96,0,2,,,1,,,47,64
44280,note_on,,,,,24,0,2,,,1,,,50,104
44376,note_off,,,,,96,0,2,,,1,,,50,64
44400,note_on,,,,,24,0,2,,,1,,,55,104
44448,note_off,,,,,768,0,1,,,0,,,74,64
44448,note_off,,,,,0,0,1,,,0,,,79,64
44448,note_off,,,,,0,0,1,,,0,,,86,64
44496,note_off,,,,,96,0,2,,,1,,,55,64
44520,note_on,,,,,24,0,2,,,1,,,62,104
44520,note_on,,,,,72,0,1,,,0,,,83,104
44616,note_off,,,,,96,0,1,,,0,,,83,64
44616,note_off,,,,,96,0,2,,,1,,,62,64
44640,note_on,,,,,24,0,1,,,0,,,84,104
44640,note_on,,,,,0,0,1,,,0,,,78,104
44760,note_on,,,,,144,0,2,,,1,,,51,104
44856,note_off,,,,,96,0,2,,,1,,,51,64
44880,note_on,,,,,24,0,2,,,1,,,57,104
44928,note_off,,,,,288,0,1,,,0,,,84,64
44976,note_off,,,,,96,0,2,,,1,,,57,64
45000,note_on,,,,,24,0,2,,,1,,,60,104
45000,note_on,,,,,72,0,1,,,0,,,81,104
45024,note_off,,,,,24,0,1,,,0,,,78,64
45096,note_off,,,,,72,0,1,,,0,,,81,64
45096,note_off,,,,,96,0,2,,,1,,,60,64
45120,note_on,,,,,24,0,1,,,0,,,79,91
45240,note_on,,,,,144,0,2,,,1,,,52,104
45336,note_off,,,,,96,0,2,,,1,,,52,64
45360,note_on,,,,,24,0,2,,,1,,,55,104
45456,note_off,,,,,96,0,2,,,1,,,55,64
45480,note_on,,,,,24,0,2,,,1,,,60,104
45504,note_off,,,,,384,0,1,,,0,,,79,64
45576,note_off,,,,,96,0,2,,,1,,,60,64
45600,note_on,,,,,96,0,1,,,0,,,72,91
45600,note_on,,,,,0,0,1,,,0,,,81,91
45720,note_on,,,,,144,0,2,,,1,,,53,104
45816,note_off,,,,,96,0,2,,,1,,,53,64
45840,note_on,,,,,24,0,2,,,1,,,57,104
45888,note_off,,,,,288,0,1,,,0,,,81,64
45936,note_off,,,,,96,0,2,,,1,,,57,64
45960,note_on,,,,,24,0,2,,,1,,,60,104
45960,note_on,,,,,72,0,1,,,0,,,77,91
45984,note_off,,,,,24,0,1,,,0,,,72,64
46056,note_off,,,,,96,0,2,,,1,,,60,64
46056,note_off,,,,,72,0,1,,,0,,,77,64
46080,note_on,,,,,0,0,1,,,0,,,76,81
46080,note_on,,,,,24,0,1,,,0,,,72,81
46200,note_on,,,,,144,0,2,,,1,,,55,81
46296,note_off,,,,,96,0,2,,,1,,,55,64
46320,note_on,,,,,24,0,2,,,1,,,60,81
46416,note_off,,,,,96,0,2,,,1,,,60,64
46440,note_on,,,,,24,0,2,,,1,,,64,81
46464,note_off,,,,,0,0,1,,,0,,,72,64
46464,note_off,,,,,384,0,1,,,0,,,76,64
46536,note_off,,,,,96,0,2,,,1,,,64,64
46560,note_on,,,,,0,0,2,,,1,,,56,81
46560,note_on,,,,,24,0,2,,,1,,,56,81
46560,note_on,,,,,0,0,1,,,0,,,77,81
46560,note_on,,,,,96,0,1,,,0,,,71,81
46656,note_off,,,,,96,0,2,,,1,,,56,64
46680,note_on,,,,,24,0,2,,,1,,,62,81
46776,note_off,,,,,96,0,2,,,1,,,62,64
46800,note_on,,,,,24,0,2,,,1,,,65,81
46896,note_off,,,,,96,0,2,,,1,,,65,64
46920,note_on,,,,,24,0,2,,,1,,,68,81
46944,note_off,,,,,384,0,1,,,0,,,71,64
46944,note_off,,,,,24,0,2,,,1,,,56,64
47016,note_off,,,,,72,0,2,,,1,,,68,64
47040,note_on,,,,,96,0,1,,,0,,,72,81
47040,note_on,,,,,24,0,2,,,1,,,57,81
47040,note_on,,,,,0,0,2,,,1,,,57,81
47136,note_off,,,,,96,0,2,,,1,,,57,64
47160,note_on,,,,,24,0,2,,,1,,,60,81
47256,note_off,,,,,96,0,2,,,1,,,60,64
47280,note_on,,,,,24,0,2,,,1,,,65,81
47328,note_off,,,,,288,0,1,,,0,,,77,64
47376,note_off,,,,,96,0,2,,,1,,,65,64
47400,note_on,,,,,72,0,1,,,0,,,76,81
47400,note_on,,,,,24,0,2,,,1,,,69,81
47424,note_off,,,,,24,0,1,,,0,,,72,64
47424,note_off,,,,,24,0,2,,,1,,,57,64
47496,note_off,,,,,72,0,2,,,1,,,69,64
47496,note_off,,,,,72,0,1,,,0,,,76,64
47520,note_on,,,,,0,0,1,,,0,,,78,81
47520,note_on,,,,,24,0,2,,,1,,,59,81
47520,note_on,,,,,0,0,2,,,1,,,59,81
47520,note_on,,,,,24,0,1,,,0,,,69,81
47616,note_off,,,,,96,0,2,,,1,,,59,64
47640,note_on,,,,,24,0,2,,,1,,,63,81
47736,note_off,,,,,96,0,2,,,1,,,63,64
47760,note_on,,,,,24,0,2,,,1,,,66,81
47808,note_off,,,,,288,0,1,,,0,,,78,64
47856,note_off,,,,,96,0,2,,,1,,,66,64
47880,note_on,,,,,24,0,2,,,1,,,71,81
47880,note_on,,,,,72,0,1,,,0,,,75,81
47904,note_off,,,,,24,0,2,,,1,,,59,64
47904,note_off,,,,,24,0,1,,,0,,,69,64
47976,note_off,,,,,72,0,2,,,1,,,71,64
47976,note_off,,,,,72,0,1,,,0,,,75,64
48000,note_on,,,,,24,0,2,,,1,,,64,81
48000,note_on,,,,,0,0,1,,,0,,,76,58
48000,note_on,,,,,0,0,1,,,0,,,84,58
48000,note_on,,,,,24,0,1,,,0,,,88,58
48096,note_off,,,,,96,0,2,,,1,,,64,64
48120,note_on,,,,,24,0,2,,,1,,,52,81
48216,note_off,,,,,96,0,2,,,1,,,52,64
48240,note_on,,,,,24,0,2,,,1,,,64,81
48336,note_off,,,,,96,0,2,,,1,,,64,64
48360,note_on,,,,,24,0,2,,,1,,,52,81
48384,note_off,,,,,384,0,1,,,0,,,84,64
48384,note_off,,,,,0,0,1,,,0,,,88,64
48456,note_off,,,,,96,0,2,,,1,,,52,64
48480,note_on,,,,,24,0,2,,,1,,,59,81
48480,note_on,,,,,0,0,1,,,0,,,86,58
48480,note_on,,,,,0,0,2,,,1,,,62,81
48480,note_on,,,,,96,0,1,,,0,,,83,58
48576,note_off,,,,,96,0,2,,,1,,,62,64
48576,note_off,,,,,0,0,2,,,1,,,59,64
48600,note_on,,,,,24,0,2,,,1,,,52,81
48672,note_off,,,,,0,0,1,,,0,,,83,64
48672,note_off,,,,,192,0,1,,,0,,,86,64
48696,note_off,,,,,96,0,2,,,1,,,52,64
48720,note_on,,,,,0,0,1,,,0,,,84,58
48720,note_on,,,,,48,0,1,,,0,,,88,58
48720,note_on,,,,,24,0,2,,,1,,,60,81
48720,note_on,,,,,0,0,2,,,1,,,64,81
48768,note_off,,,,,48,0,1,,,0,,,76,64
48816,note_off,,,,,96,0,2,,,1,,,64,64
48816,note_off,,,,,0,0,2,,,1,,,60,64
48840,note_on,,,,,24,0,2,,,1,,,52,81
48912,note_off,,,,,144,0,1,,,0,,,84,64
48912,note_off,,,,,0,0,1,,,0,,,88,64
48936,note_off,,,,,96,0,2,,,1,,,52,64
48960,note_on,,,,,24,0,2,,,1,,,62,81
48960,note_on,,,,,48,0,1,,,0,,,89,58
48960,note_on,,,,,0,0,1,,,0,,,86,58
48960,note_on,,,,,0,0,1,,,0,,,76,58
48960,note_on,,,,,0,0,2,,,1,,,65,81
49056,note_off,,,,,96,0,2,,,1,,,65,64
49056,note_off,,,,,0,0,2,,,1,,,62,64
49080,note_on,,,,,24,0,2,,,1,,,52,81
49176,note_off,,,,,96,0,2,,,1,,,52,64
49200,note_on,,,,,24,0,2,,,1,,,62,81
49200,note_on,,,,,0,0,2,,,1,,,59,81
49248,note_off,,,,,288,0,1,,,0,,,86,64
49248,note_off,,,,,0,0,1,,,0,,,89,64
49296,note_off,,,,,0,0,2,,,1,,,62,64
49296,note_off,,,,,96,0,2,,,1,,,59,64
49320,note_on,,,,,0,0,1,,,0,,,86,58
49320,note_on,,,,,24,0,2,,,1,,,52,81
49320,note_on,,,,,72,0,1,,,0,,,83,58
49416,note_off,,,,,96,0,1,,,0,,,86,64
49416,note_off,,,,,0,0,1,,,0,,,83,64
49416,note_off,,,,,96,0,2,,,1,,,52,64
49440,note_on,,,,,24,0,2,,,1,,,59,81
49440,note_on,,,,,0,0,2,,,1,,,56,81
49440,note_on,,,,,24,0,1,,,0,,,80,58
49440,note_on,,,,,0,0,1,,,0,,,83,58
49536,note_off,,,,,96,0,2,,,1,,,56,64
49536,note_off,,,,,0,0,2,,,1,,,59,64
49560,note_on,,,,,24,0,2,,,1,,,52,81
49632,note_off,,,,,192,0,1,,,0,,,83,64
49632,note_off,,,,,0,0,1,,,0,,,80,64
49656,note_off,,,,,96,0,2,,,1,,,52,64
49680,note_on,,,,,0,0,2,,,1,,,57,81
49680,note_on,,,,,48,0,1,,,0,,,81,58
49680,note_on,,,,,0,0,1,,,0,,,84,58
49680,note_on,,,,,24,0,2,,,1,,,60,81
49728,note_off,,,,,48,0,1,,,0,,,76,64
49776,note_off,,,,,0,0,2,,,1,,,60,64
49776,note_off,,,,,96,0,2,,,1,,,57,64
49800,note_on,,,,,24,0,2,,,1,,,52,81
49872,note_off,,,,,144,0,1,,,0,,,84,64
49872,note_off,,,,,0,0,1,,,0,,,81,64
49896,note_off,,,,,96,0,2,,,1,,,52,64
49920,note_on,,,,,48,0,1,,,0,,,83,58
49920,note_on,,,,,0,0,1,,,0,,,86,58
49920,note_on,,,,,0,0,1,,,0,,,76,58
49920,note_on,,,,,0,0,2,,,1,,,62,81
49920,note_on,,,,,24,0,2,,,1,,,59,81
50016,note_off,,,,,0,0,2,,,1,,,59,64
50016,note_off,,,,,96,0,2,,,1,,,62,64
50040,note_on,,,,,24,0,2,,,1,,,52,81
50112,note_off,,,,,0,0,1,,,0,,,83,64
50112,note_off,,,,,192,0,1,,,0,,,86,64
50136,note_off,,,,,96,0,2,,,1,,,52,64
50160,note_on,,,,,24,0,2,,,1,,,60,81
50160,note_on,,,,,0,0,2,,,1,,,57,81
50160,note_on,,,,,0,0,1,,,0,,,84,58
50160,note_on,,,,,48,0,1,,,0,,,81,58
50256,note_off,,,,,96,0,2,,,1,,,57,64
50256,note_off,,,,,0,0,2,,,1,,,60,64
50280,note_on,,,,,24,0,2,,,1,,,52,81
50352,note_off,,,,,0,0,1,,,0,,,81,64
50352,note_off,,,,,192,0,1,,,0,,,84,64
50376,note_off,,,,,96,0,2,,,1,,,52,64
50400,note_on,,,,,0,0,1,,,0,,,79,58
50400,note_on,,,,,48,0,1,,,0,,,83,58
50400,note_on,,,,,0,0,2,,,1,,,55,81
50400,note_on,,,,,24,0,2,,,1,,,59,81
50496,note_off,,,,,0,0,2,,,1,,,59,64
50496,note_off,,,,,96,0,2,,,1,,,55,64
50520,note_on,,,,,24,0,2,,,1,,,52,81
50592,note_off,,,,,192,0,1,,,0,,,79,64
50592,note_off,,,,,0,0,1,,,0,,,83,64
50616,note_off,,,,,96,0,2,,,1,,,52,64
50640,note_on,,,,,24,0,2,,,1,,,57,81
50640,note_on,,,,,0,0,1,,,0,,,77,58
50640,note_on,,,,,48,0,1,,,0,,,81,58
50640,note_on,,,,,0,0,2,,,1,,,53,81
50688,note_off,,,,,48,0,1,,,0,,,76,64
50736,note_off,,,,,96,0,2,,,1,,,53,64
50736,note_off,,,,,0,0,2,,,1,,,57,64
50760,note_on,,,,,24,0,2,,,1,,,52,81
50832,note_off,,,,,144,0,1,,,0,,,77,64
50832,note_off,,,,,0,0,1,,,0,,,81,64
50856,note_off,,,,,96,0,2,,,1,,,52,64
50880,note_on,,,,,0,0,1,,,0,,,80,58
50880,note_on,,,,,24,0,2,,,1,,,56,81
50880,note_on,,,,,0,0,1,,,0,,,76,58
50880,note_on,,,,,48,0,1,,,0,,,76,58
50976,note_off,,,,,96,0,2,,,1,,,56,64
51000,note_on,,,,,24,0,2,,,1,,,52,81
51096,note_off,,,,,96,0,2,,,1,,,52,64
51120,note_on,,,,,0,0,2,,,1,,,54,81
51120,note_on,,,,,24,0,2,,,1,,,57,81
51168,note_off,,,,,288,0,1,,,0,,,80,64
51168,note_off,,,,,0,0,1,,,0,,,76,64
51216,note_off,,,,,96,0,2,,,1,,,54,64
51216,note_off,,,,,0,0,2,,,1,,,57,64
51240,note_on,,,,,24,0,2,,,1,,,52,81
51240,note_on,,,,,72,0,1,,,0,,,78,58
51240,note_on,,,,,0,0,1,,,0,,,81,58
51336,note_off,,,,,96,0,1,,,0,,,81,64
51336,note_off,,,,,0,0,1,,,0,,,78,64
51336,note_off,,,,,96,0,2,,,1,,,52,64
51360,note_on,,,,,0,0,1,,,0,,,83,58
51360,note_on,,,,,24,0,2,,,1,,,56,81
51360,note_on,,,,,0,0,2,,,1,,,59,81
51360,note_on,,,,,24,0,1,,,0,,,80,58
51456,note_off,,,,,96,0,1,,,0,,,76,64
51456,note_off,,,,,96,0,2,,,1,,,59,64
51456,note_off,,,,,0,0,2,,,1,,,56,64
51480,note_on,,,,,24,0,2,,,1,,,52,81
51552,note_off,,,,,0,0,1,,,0,,,80,64
51552,note_off,,,,,96,0,1,,,0,,,83,64
51576,note_off,,,,,96,0,2,,,1,,,52,64
51600,note_on,,,,,48,0,1,,,0,,,76,58
51600,note_on,,,,,24,0,2,,,1,,,56,81
51696,note_off,,,,,96,0,2,,,1,,,56,64
51720,note_on,,,,,24,0,2,,,1,,,52,81
51816,note_off,,,,,96,0,2,,,1,,,52,64
51840,note_on,,,,,240,0,1,,,0,,,84,58
51840,note_on,,,,,0,0,1,,,0,,,88,58
51840,note_on,,,,,24,0,2,,,1,,,60,81
51840,note_on,,,,,0,0,2,,,1,,,64,81
51936,note_off,,,,,0,0,2,,,1,,,60,64
51936,note_off,,,,,96,0,2,,,1,,,64,64
51960,note_on,,,,,24,0,2,,,1,,,52,81
52056,note_off,,,,,96,0,2,,,1,,,52,64
52080,note_on,,,,,0,0,2,,,1,,,60,81
52080,note_on,,,,,24,0,2,,,1,,,64,81
52176,note_off,,,,,96,0,2,,,1,,,60,64
52176,note_off,,,,,0,0,2,,,1,,,64,64
52200,note_on,,,,,24,0,2,,,1,,,52,81
52224,note_off,,,,,384,0,1,,,0,,,88,64
52224,note_off,,,,,0,0,1,,,0,,,84,64
52296,note_off,,,,,96,0,2,,,1,,,52,64
52320,note_on,,,,,0,0,1,,,0,,,86,58
52320,note_on,,,,,96,0,1,,,0,,,83,58
52320,note_on,,,,,0,0,2,,,1,,,62,81
52320,note_on,,,,,24,0,2,,,1,,,59,81
52416,note_off,,,,,96,0,2,,,1,,,62,64
52416,note_off,,,,,0,0,2,,,1,,,59,64
52440,note_on,,,,,24,0,2,,,1,,,52,81
52512,note_off,,,,,192,0,1,,,0,,,86,64
52512,note_off,,,,,0,0,1,,,0,,,83,64
52536,note_off,,,,,96,0,2,,,1,,,52,64
52560,note_on,,,,,24,0,2,,,1,,,64,81
52560,note_on,,,,,0,0,1,,,0,,,88,58
52560,note_on,,,,,0,0,2,,,1,,,60,81
52560,note_on,,,,,48,0,1,,,0,,,84,58
52608,note_off,,,,,48,0,1,,,0,,,76,64
52656,note_off,,,,,0,0,2,,,1,,,64,64
52656,note_off,,,,,96,0,2,,,1,,,60,64
52680,note_on,,,,,24,0,2,,,1,,,52,81
52752,note_off,,,,,0,0,1,,,0,,,84,64
52752,note_off,,,,,144,0,1,,,0,,,88,64
52776,note_off,,,,,96,0,2,,,1,,,52,64
52800,note_on,,,,,0,0,1,,,0,,,76,58
52800,note_on,,,,,0,0,1,,,0,,,91,58
52800,note_on,,,,,0,0,2,,,1,,,64,81
52800,note_on,,,,,48,0,1,,,0,,,88,58
52800,note_on,,,,,24,0,2,,,1,,,67,81
52896,note_off,,,,,0,0,2,,,1,,,67,64
52896,note_off,,,,,96,0,2,,,1,,,64,64
52920,note_on,,,,,24,0,2,,,1,,,52,81
53016,note_off,,,,,96,0,2,,,1,,,52,64
53040,note_on,,,,,0,0,2,,,1,,,65,81
53040,note_on,,,,,24,0,2,,,1,,,62,81
53088,note_off,,,,,0,0,1,,,0,,,88,64
53088,note_off,,,,,288,0,1,,,0,,,91,64
53136,note_off,,,,,96,0,2,,,1,,,65,64
53136,note_off,,,,,0,0,2,,,1,,,62,64
53160,note_on,,,,,24,0,2,,,1,,,52,81
53160,note_on,,,,,0,0,1,,,0,,,89,58
53160,note_on,,,,,72,0,1,,,0,,,86,58
53256,note_off,,,,,0,0,1,,,0,,,86,64
53256,note_off,,,,,96,0,1,,,0,,,89,64
53256,note_off,,,,,96,0,2,,,1,,,52,64
53280,note_on,,,,,0,0,1,,,0,,,83,58
53280,note_on,,,,,24,0,1,,,0,,,86,58
53280,note_on,,,,,0,0,2,,,1,,,59,81
53280,note_on,,,,,24,0,2,,,1,,,62,81
53376,note_off,,,,,0,0,2,,,1,,,62,64
53376,note_off,,,,,96,0,2,,,1,,,59,64
53400,note_on,,,,,24,0,2,,,1,,,52,81
53472,note_off,,,,,0,0,1,,,0,,,86,64
53472,note_off,,,,,192,0,1,,,0,,,83,64
53496,note_off,,,,,96,0,2,,,1,,,52,64
53520,note_on,,,,,24,0,2,,,1,,,65,81
53520,note_on,,,,,0,0,2,,,1,,,62,81
53520,note_on,,,,,0,0,1,,,0,,,86,58
53520,note_on,,,,,48,0,1,,,0,,,89,58
53568,note_off,,,,,48,0,1,,,0,,,76,64
53616,note_off,,,,,96,0,2,,,1,,,62,64
53616,note_off,,,,,0,0,2,,,1,,,65,64
53640,note_on,,,,,24,0,2,,,1,,,52,81
53712,note_off,,,,,0,0,1,,,0,,,89,64
53712,note_off,,,,,144,0,1,,,0,,,86,64
53736,note_off,,,,,96,0,2,,,1,,,52,64
53760,note_on,,,,,48,0,1,,,0,,,84,58
53760,note_on,,,,,0,0,1,,,0,,,88,58
53760,note_on,,,,,0,0,2,,,1,,,64,81
53760,note_on,,,,,24,0,2,,,1,,,60,81
53760,note_on,,,,,0,0,1,,,0,,,76,58
53856,note_off,,,,,96,0,2,,,1,,,64,64
53856,note_off,,,,,0,0,2,,,1,,,60,64
53880,note_on,,,,,24,0,2,,,1,,,52,81
53952,note_off,,,,,0,0,1,,,0,,,84,64
53952,note_off,,,,,192,0,1,,,0,,,88,64
53976,note_off,,,,,96,0,2,,,1,,,52,64
54000,note_on,,,,,24,0,2,,,1,,,60,81
54000,note_on,,,,,0,0,1,,,0,,,84,58
54000,note_on,,,,,48,0,1,,,0,,,81,58
54000,note_on,,,,,0,0,2,,,1,,,57,81
54096,note_off,,,,,0,0,2,,,1,,,60,64
54096,note_off,,,,,96,0,2,,,1,,,57,64
54120,note_on,,,,,24,0,2,,,1,,,52,81
54192,note_off,,,,,0,0,1,,,0,,,81,64
54192,note_off,,,,,192,0,1,,,0,,,84,64
54216,note_off,,,,,96,0,2,,,1,,,52,64
54240,note_on,,,,,48,0,1,,,0,,,83,58
54240,note_on,,,,,0,0,1,,,0,,,86,58
54240,note_on,,,,,24,0,2,,,1,,,62,81
54240,note_on,,,,,0,0,2,,,1,,,59,81
54336,note_off,,,,,96,0,2,,,1,,,59,64
54336,note_off,,,,,0,0,2,,,1,,,62,64
54360,note_on,,,,,24,0,2,,,1,,,52,81
54432,note_off,,,,,0,0,1,,,0,,,83,64
54432,note_off,,,,,192,0,1,,,0,,,86,64
54456,note_off,,,,,96,0,2,,,1,,,52,64
54480,note_on,,,,,0,0,2,,,1,,,59,81
54480,note_on,,,,,24,0,2,,,1,,,56,81
54480,note_on,,,,,48,0,1,,,0,,,83,58
54480,note_on,,,,,0,0,1,,,0,,,80,58
54528,note_off,,,,,48,0,1,,,0,,,76,64
54576,note_off,,,,,96,0,2,,,1,,,59,64
54576,note_off,,,,,0,0,2,,,1,,,56,64
54600,note_on,,,,,24,0,2,,,1,,,52,81
54672,note_off,,,,,0,0,1,,,0,,,83,64
54672,note_off,,,,,144,0,1,,,0,,,80,64
54696,note_off,,,,,96,0,2,,,1,,,52,64
54720,note_on,,,,,0,0,1,,,0,,,84,58
54720,note_on,,,,,0,0,1,,,0,,,76,58
54720,note_on,,,,,24,0,2,,,1,,,60,81
54720,note_on,,,,,0,0,2,,,1,,,57,81
54720,note_on,,,,,48,0,1,,,0,,,81,58
54816,note_off,,,,,96,0,2,,,1,,,57,64
54816,note_off,,,,,0,0,2,,,1,,,60,64
54840,note_on,,,,,24,0,2,,,1,,,52,81
54912,note_off,,,,,192,0,1,,,0,,,84,64
54912,note_off,,,,,0,0,1,,,0,,,81,64
54936,note_off,,,,,96,0,2,,,1,,,52,64
54960,note_on,,,,,48,0,1,,,0,,,78,58
54960,note_on,,,,,0,0,1,,,0,,,81,58
54960,note_on,,,,,24,0,2,,,1,,,57,81
54960,note_on,,,,,0,0,2,,,1,,,54,81
55056,note_off,,,,,96,0,2,,,1,,,54,64
55056,note_off,,,,,0,0,2,,,1,,,57,64
55080,note_on,,,,,24,0,2,,,1,,,52,81
55152,note_off,,,,,192,0,1,,,0,,,81,64
55152,note_off,,,,,0,0,1,,,0,,,78,64
55176,note_off,,,,,96,0,2,,,1,,,52,64
55200,note_on,,,,,48,0,1,,,0,,,80,58
55200,note_on,,,,,0,0,1,,,0,,,83,58
55200,note_on,,,,,0,0,2,,,1,,,59,81
55200,note_on,,,,,24,0,2,,,1,,,56,81
55296,note_off,,,,,96,0,1,,,0,,,76,64
55296,note_off,,,,,96,0,2,,,1,,,59,64
55296,note_off,,,,,0,0,2,,,1,,,56,64
55320,note_on,,,,,24,0,2,,,1,,,52,81
55392,note_off,,,,,96,0,1,,,0,,,83,64
55392,note_off,,,,,0,0,1,,,0,,,80,64
55416,note_off,,,,,96,0,2,,,1,,,52,64
55440,note_on,,,,,24,0,2,,,1,,,56,81
55440,note_on,,,,,48,0,1,,,0,,,76,58
55536,note_off,,,,,96,0,2,,,1,,,56,64
55560,note_on,,,,,24,0,2,,,1,,,52,81
55632,note_off,,,,,192,0,1,,,0,,,76,64
55656,note_off,,,,,96,0,2,,,1,,,52,64
55680,note_on,,,,,24,0,2,,,1,,,60,81
55776,note_off,,,,,96,0,2,,,1,,,60,64
55800,note_on,,,,,168,0,1,,,0,,,64,58
55800,note_on,,,,,24,0,2,,,1,,,57,81
55896,note_off,,,,,96,0,1,,,0,,,64,64
55896,note_off,,,,,96,0,2,,,1,,,57,64
55920,note_on,,,,,24,0,1,,,0,,,69,58
55920,note_on,,,,,24,0,2,,,1,,,52,81
56016,note_off,,,,,96,0,1,,,0,,,69,64
56016,note_off,,,,,96,0,2,,,1,,,52,64
56040,note_on,,,,,24,0,2,,,1,,,48,81
56040,note_on,,,,,24,0,1,,,0,,,76,58
56136,note_off,,,,,96,0,2,,,1,,,48,64
56136,note_off,,,,,96,0,1,,,0,,,76,64
56160,note_on,,,,,24,0,2,,,1,,,60,81
56256,note_off,,,,,96,0,2,,,1,,,60,64
56280,note_on,,,,,24,0,2,,,1,,,57,81
56280,note_on,,,,,144,0,1,,,0,,,64,58
56376,note_off,,,,,96,0,2,,,1,,,57,64
56376,note_off,,,,,96,0,1,,,0,,,64,64
56400,note_on,,,,,24,0,2,,,1,,,52,81
56400,note_on,,,,,24,0,1,,,0,,,71,58
56496,note_off,,,,,96,0,1,,,0,,,71,64
56496,note_off,,,,,96,0,2,,,1,,,52,64
56520,note_on,,,,,24,0,1,,,0,,,76,58
56520,note_on,,,,,24,0,2,,,1,,,48,81
56616,note_off,,,,,96,0,1,,,0,,,76,64
56616,note_off,,,,,96,0,2,,,1,,,48,64
56640,note_on,,,,,24,0,2,,,1,,,62,81
56736,note_off,,,,,96,0,2,,,1,,,62,64
56760,note_on,,,,,24,0,2,,,1,,,57,81
56760,note_on,,,,,144,0,1,,,0,,,69,58
56856,note_off,,,,,96,0,2,,,1,,,57,64
56856,note_off,,,,,96,0,1,,,0,,,69,64
56880,note_on,,,,,24,0,2,,,1,,,53,81
56880,note_on,,,,,24,0,1,,,0,,,72,58
56976,note_off,,,,,96,0,1,,,0,,,72,64
56976,note_off,,,,,96,0,2,,,1,,,53,64
57000,note_on,,,,,24,0,2,,,1,,,50,81
57000,note_on,,,,,24,0,1,,,0,,,77,58
57096,note_off,,,,,96,0,1,,,0,,,77,64
57096,note_off,,,,,96,0,2,,,1,,,50,64
57120,note_on,,,,,24,0,2,,,1,,,62,81
57216,note_off,,,,,96,0,2,,,1,,,62,64
57240,note_on,,,,,24,0,2,,,1,,,57,81
57240,note_on,,,,,144,0,1,,,0,,,65,58
57336,note_off,,,,,96,0,1,,,0,,,65,64
57336,note_off,,,,,96,0,2,,,1,,,57,64
57360,note_on,,,,,24,0,1,,,0,,,71,58
57360,note_on,,,,,24,0,2,,,1,,,53,81
57456,note_off,,,,,96,0,1,,,0,,,71,64
57456,note_off,,,,,96,0,2,,,1,,,53,64
57480,note_on,,,,,24,0,1,,,0,,,77,58
57480,note_on,,,,,24,0,2,,,1,,,50,81
57576,note_off,,,,,96,0,1,,,0,,,77,64
57576,note_off,,,,,96,0,2,,,1,,,50,64
57600,note_on,,,,,24,0,2,,,1,,,62,81
57696,note_off,,,,,96,0,2,,,1,,,62,64
57720,note_on,,,,,24,0,2,,,1,,,59,81
57720,note_on,,,,,144,0,1,,,0,,,69,58
57816,note_off,,,,,96,0,2,,,1,,,59,64
57816,note_off,,,,,96,0,1,,,0,,,69,64
57840,note_on,,,,,24,0,2,,,1,,,57,81
57840,note_on,,,,,24,0,1,,,0,,,77,58
57936,note_off,,,,,96,0,1,,,0,,,77,64
57936,note_off,,,,,96,0,2,,,1,,,57,64
57960,note_on,,,,,24,0,2,,,1,,,52,81
57960,note_on,,,,,24,0,1,,,0,,,83,58
58056,note_off,,,,,96,0,1,,,0,,,83,64
58056,note_off,,,,,96,0,2,,,1,,,52,64
58080,note_on,,,,,24,0,2,,,1,,,62,81
58176,note_off,,,,,96,0,2,,,1,,,62,64
58200,note_on,,,,,24,0,2,,,1,,,59,81
58200,note_on,,,,,144,0,1,,,0,,,68,58
58296,note_off,,,,,96,0,2,,,1,,,59,64
58296,note_off,,,,,96,0,1,,,0,,,68,64
58320,note_on,,,,,24,0,2,,,1,,,56,81
58320,note_on,,,,,24,0,1,,,0,,,76,58
58416,note_off,,,,,96,0,2,,,1,,,56,64
58416,note_off,,,,,96,0,1,,,0,,,76,64
58440,note_on,,,,,24,0,2,,,1,,,52,81
58440,note_on,,,,,24,0,1,,,0,,,83,58
58536,note_off,,,,,96,0,1,,,0,,,83,64
58536,note_off,,,,,96,0,2,,,1,,,52,64
58560,note_on,,,,,24,0,2,,,1,,,69,81
58656,note_off,,,,,96,0,2,,,1,,,69,64
58680,note_on,,,,,144,0,1,,,0,,,74,58
58680,note_on,,,,,24,0,2,,,1,,,65,81
58776,note_off,,,,,96,0,1,,,0,,,74,64
58776,note_off,,,,,96,0,2,,,1,,,65,64
58800,note_on,,,,,24,0,2,,,1,,,64,81
58800,note_on,,,,,24,0,1,,,0,,,83,58
58896,note_off,,,,,96,0,1,,,0,,,83,64
58896,note_off,,,,,96,0,2,,,1,,,64,64
58920,note_on,,,,,24,0,1,,,0,,,88,58
58920,note_on,,,,,24,0,2,,,1,,,60,81
59016,note_off,,,,,96,0,1,,,0,,,88,64
59016,note_off,,,,,96,0,2,,,1,,,60,64
59040,note_on,,,,,24,0,2,,,1,,,69,81
59136,note_off,,,,,96,0,2,,,1,,,69,64
59160,note_on,,,,,24,0,2,,,1,,,64,81
59160,note_on,,,,,144,0,1,,,0,,,72,58
59256,note_off,,,,,96,0,1,,,0,,,72,64
59256,note_off,,,,,96,0,2,,,1,,,64,64
59280,note_on,,,,,24,0,1,,,0,,,81,58
59280,note_on,,,,,24,0,2,,,1,,,60,81
59376,note_off,,,,,96,0,1,,,0,,,81,64
59376,note_off,,,,,96,0,2,,,1,,,60,64
59400,note_on,,,,,24,0,1,,,0,,,88,58
59400,note_on,,,,,24,0,2,,,1,,,57,81
59496,note_off,,,,,96,0,2,,,1,,,57,64
59496,note_off,,,,,96,0,1,,,0,,,88,64
59520,note_on,,,,,24,0,2,,,1,,,38,71
59616,note_off,,,,,96,0,2,,,1,,,38,64
59640,note_on,,,,,24,0,2,,,1,,,50,71
59736,note_off,,,,,96,0,2,,,1,,,50,64
59760,note_on,,,,,0,0,1,,,0,,,71,58
59760,note_on,,,,,0,0,1,,,0,,,69,58
59760,note_on,,,,,264,0,1,,,0,,,65,58
59760,note_on,,,,,24,0,2,,,1,,,53,71
59880,note_on,,,,,120,0,2,,,1,,,57,71
60000,note_on,,,,,120,0,2,,,1,,,62,71
60048,note_off,,,,,0,0,1,,,0,,,71,64
60048,note_off,,,,,0,0,1,,,0,,,69,64
60048,note_off,,,,,288,0,1,,,0,,,65,64
60060,note_on,,,,,12,0,1,,,0,,,72,58
60108,note_off,,,,,48,0,1,,,0,,,72,64
60120,note_on,,,,,12,0,1,,,0,,,71,58
60168,note_off,,,,,48,0,1,,,0,,,71,64
60180,note_on,,,,,12,0,1,,,0,,,69,58
60228,note_off,,,,,48,0,1,,,0,,,69,64
60240,note_on,,,,,12,0,1,,,0,,,71,58
60288,note_off,,,,,48,0,1,,,0,,,71,64
60300,note_on,,,,,12,0,1,,,0,,,72,58
60348,note_off,,,,,48,0,1,,,0,,,72,64
60360,note_on,,,,,12,0,1,,,0,,,74,58
60408,note_off,,,,,48,0,1,,,0,,,74,64
60420,note_on,,,,,12,0,1,,,0,,,76,58
60468,note_off,,,,,48,0,1,,,0,,,76,64
60480,note_on,,,,,12,0,1,,,0,,,79,110
60672,note_off,,,,,192,0,1,,,0,,,79,64
60720,note_on,,,,,48,0,1,,,0,,,77,58
60864,note_off,,,,,0,0,2,,,1,,,53,64
60864,note_off,,,,,0,0,2,,,1,,,57,64
60864,note_off,,,,,864,0,2,,,1,,,62,64
60912,note_off,,,,,192,0,1,,,0,,,77,64
61440,note_on,,,,,576,0,2,,,1,,,38,71
61536,note_off,,,,,96,0,2,,,1,,,38,64
61560,note_on,,,,,24,0,2,,,1,,,50,71
61656,note_off,,,,,96,0,2,,,1,,,50,64
61680,note_on,,,,,768,0,1,,,0,,,65,58
61680,note_on,,,,,24,0,2,,,1,,,53,71
61680,note_on,,,,,0,0,1,,,0,,,71,58
61680,note_on,,,,,0,0,1,,,0,,,68,58
61800,note_on,,,,,120,0,2,,,1,,,56,71
61920,note_on,,,,,120,0,2,,,1,,,59,71
61968,note_off,,,,,288,0,1,,,0,,,65,64
61968,note_off,,,,,0,0,1,,,0,,,68,64
61968,note_off,,,,,0,0,1,,,0,,,71,64
61980,note_on,,,,,12,0,1,,,0,,,72,58
62028,note_off,,,,,48,0,1,,,0,,,72,64
62040,note_on,,,,,12,0,1,,,0,,,71,58
62088,note_off,,,,,48,0,1,,,0,,,71,64
62100,note_on,,,,,12,0,1,,,0,,,70,58
62148,note_off,,,,,48,0,1,,,0,,,70,64
62160,note_on,,,,,12,0,1,,,0,,,71,58
62208,note_off,,,,,48,0,1,,,0,,,71,64
62220,note_on,,,,,12,0,1,,,0,,,72,58
62268,note_off,,,,,48,0,1,,,0,,,72,64
62280,note_on,,,,,12,0,1,,,0,,,74,58
62328,note_off,,,,,48,0,1,,,0,,,74,64
62340,note_on,,,,,12,0,1,,,0,,,76,58
62388,note_off,,,,,48,0,1,,,0,,,76,64
62400,note_on,,,,,12,0,1,,,0,,,79,58
62592,note_off,,,,,672,0,2,,,1,,,56,64
62592,note_off,,,,,0,0,2,,,1,,,53,64
62592,note_off,,,,,0,0,2,,,1,,,59,64
62592,note_off,,,,,192,0,1,,,0,,,79,64
62640,note_on,,,,,48,0,1,,,0,,,77,58
62736,note_off,,,,,96,0,1,,,0,,,77,64
62880,note_on,,,,,0,0,1,,,0,,,74,58
62880,note_on,,,,,0,0,1,,,0,,,70,58
62880,note_on,,,,,0,0,1,,,0,,,58,58
62880,note_on,,,,,0,0,1,,,0,,,56,58
62880,note_on,,,,,0,0,1,,,0,,,62,58
62880,note_on,,,,,144,0,1,,,0,,,84,110
62880,note_on,,,,,0,0,1,,,0,,,65,58
63072,note_off,,,,,192,0,1,,,0,,,84,64
63120,note_on,,,,,48,0,1,,,0,,,82,58
63168,note_off,,,,,0,0,1,,,0,,,56,64
63168,note_off,,,,,0,0,1,,,0,,,70,64
63168,note_off,,,,,0,0,1,,,0,,,58,64
63168,note_off,,,,,48,0,1,,,0,,,62,64
63168,note_off,,,,,0,0,1,,,0,,,65,64
63216,note_off,,,,,48,0,1,,,0,,,82,64
63216,note_off,,,,,0,0,1,,,0,,,74,64
63840,note_on,,,,,1248,0,2,,,1,,,43,110
63888,note_off,,,,,48,0,2,,,1,,,43,64
63900,note_on,,,,,12,0,2,,,1,,,44,71
63948,note_off,,,,,48,0,2,,,1,,,44,64
63960,note_on,,,,,12,0,2,,,1,,,43,71
64008,note_off,,,,,48,0,2,,,1,,,43,64
64020,note_on,,,,,12,0,2,,,1,,,42,71
64068,note_off,,,,,48,0,2,,,1,,,42,64
64080,note_on,,,,,12,0,2,,,1,,,43,71
64128,note_off,,,,,48,0,2,,,1,,,43,64
64140,note_on,,,,,12,0,2,,,1,,,46,71
64188,note_off,,,,,48,0,2,,,1,,,46,64
64200,note_on,,,,,12,0,2,,,1,,,51,71
64248,note_off,,,,,48,0,2,,,1,,,51,64
64260,note_on,,,,,12,0,2,,,1,,,55,71
64308,note_off,,,,,48,0,2,,,1,,,55,64
64320,note_on,,,,,0,0,1,,,0,,,72,71
64320,note_on,,,,,1104,0,1,,,0,,,62,71
64320,note_on,,,,,0,0,2,,,1,,,58,71
64320,note_on,,,,,12,0,2,,,1,,,56,71
64368,note_off,,,,,48,0,1,,,0,,,62,64
64380,note_on,,,,,12,0,1,,,0,,,63,71
64428,note_off,,,,,48,0,1,,,0,,,63,64
64440,note_on,,,,,12,0,1,,,0,,,62,71
64488,note_off,,,,,48,0,1,,,0,,,62,64
64500,note_on,,,,,12,0,1,,,0,,,61,71
64512,note_off,,,,,12,0,1,,,0,,,72,64
64548,note_off,,,,,36,0,1,,,0,,,61,64
64560,note_on,,,,,12,0,1,,,0,,,62,71
64560,note_on,,,,,0,0,1,,,0,,,70,71
64608,note_off,,,,,48,0,1,,,0,,,62,64
64608,note_off,,,,,288,0,2,,,1,,,58,64
64608,note_off,,,,,0,0,2,,,1,,,56,64
64620,note_on,,,,,12,0,1,,,0,,,65,71
64656,note_off,,,,,36,0,1,,,0,,,70,64
64668,note_off,,,,,12,0,1,,,0,,,65,64
64680,note_on,,,,,12,0,1,,,0,,,68,71
64728,note_off,,,,,48,0,1,,,0,,,68,64
64740,note_on,,,,,12,0,1,,,0,,,70,71
64788,note_off,,,,,48,0,1,,,0,,,70,64
64800,note_on,,,,,12,0,1,,,0,,,75,71
64800,note_on,,,,,192,0,2,,,1,,,55,71
64848,note_off,,,,,48,0,2,,,1,,,55,64
64860,note_on,,,,,12,0,2,,,1,,,56,71
64908,note_off,,,,,48,0,2,,,1,,,56,64
64920,note_on,,,,,12,0,2,,,1,,,55,71
64968,note_off,,,,,48,0,2,,,1,,,55,64
64980,note_on,,,,,12,0,2,,,1,,,54,71
65028,note_off,,,,,48,0,2,,,1,,,54,64
65040,note_on,,,,,12,0,2,,,1,,,55,71
65088,note_off,,,,,48,0,2,,,1,,,55,64
65088,note_off,,,,,288,0,1,,,0,,,75,64
65100,note_on,,,,,12,0,2,,,1,,,58,71
65148,note_off,,,,,48,0,2,,,1,,,58,64
65160,note_on,,,,,12,0,2,,,1,,,63,71
65208,note_off,,,,,48,0,2,,,1,,,63,64
65220,note_on,,,,,12,0,2,,,1,,,67,71
65268,note_off,,,,,48,0,2,,,1,,,67,64
65280,note_on,,,,,12,0,2,,,1,,,70,71
65280,note_on,,,,,192,0,1,,,0,,,84,71
65280,note_on,,,,,0,0,1,,,0,,,74,71
65280,note_on,,,,,0,0,2,,,1,,,68,71
65328,note_off,,,,,48,0,1,,,0,,,74,64
65340,note_on,,,,,12,0,1,,,0,,,75,71
65388,note_off,,,,,48,0,1,,,0,,,75,64
65400,note_on,,,,,12,0,1,,,0,,,74,71
65448,note_off,,,,,48,0,1,,,0,,,74,64
65460,note_on,,,,,12,0,1,,,0,,,73,71
65472,note_off,,,,,12,0,1,,,0,,,84,64
65508,note_off,,,,,36,0,1,,,0,,,73,64
65520,note_on,,,,,0,0,1,,,0,,,82,71
65520,note_on,,,,,12,0,1,,,0,,,74,71
65568,note_off,,,,,48,0,1,,,0,,,74,64
65568,note_off,,,,,288,0,2,,,1,,,68,64
65568,note_off,,,,,0,0,2,,,1,,,70,64
65580,note_on,,,,,12,0,1,,,0,,,77,71
65616,note_off,,,,,36,0,1,,,0,,,82,64
65628,note_off,,,,,12,0,1,,,0,,,77,64
65640,note_on,,,,,12,0,1,,,0,,,80,71
65688,note_off,,,,,48,0,1,,,0,,,80,64
65700,note_on,,,,,12,0,1,,,0,,,82,71
65748,note_off,,,,,48,0,1,,,0,,,82,64
65760,note_on,,,,,192,0,2,,,1,,,80,71
65760,note_on,,,,,12,0,1,,,0,,,96,71
65760,note_on,,,,,0,0,1,,,0,,,86,71
65808,note_off,,,,,48,0,2,,,1,,,80,64
65820,note_on,,,,,12,0,2,,,1,,,77,71
65868,note_off,,,,,48,0,2,,,1,,,77,64
65880,note_on,,,,,12,0,2,,,1,,,74,71
65928,note_off,,,,,48,0,2,,,1,,,74,64
65940,note_on,,,,,12,0,2,,,1,,,70,71
65952,note_off,,,,,192,0,1,,,0,,,96,64
65988,note_off,,,,,48,0,2,,,1,,,70,64
66000,note_on,,,,,48,0,1,,,0,,,94,71
66000,note_on,,,,,12,0,2,,,1,,,68,71
66048,note_off,,,,,48,0,2,,,1,,,68,64
66060,note_on,,,,,12,0,2,,,1,,,65,71
66096,note_off,,,,,96,0,1,,,0,,,86,64
66108,note_off,,,,,48,0,2,,,1,,,65,64
66120,note_on,,,,,12,0,2,,,1,,,62,71
66168,note_off,,,,,48,0,2,,,1,,,62,64
66180,note_on,,,,,12,0,2,,,1,,,56,71
66228,note_off,,,,,48,0,2,,,1,,,56,64
66240,note_on,,,,,12,0,2,,,1,,,57,71
66336,note_off,,,,,240,0,1,,,0,,,94,64
66360,note_on,,,,,24,0,1,,,0,,,93,71
66456,note_off,,,,,96,0,1,,,0,,,93,64
66480,note_on,,,,,24,0,1,,,0,,,92,71
66576,note_off,,,,,96,0,1,,,0,,,92,64
66600,note_on,,,,,24,0,1,,,0,,,91,71
66696,note_off,,,,,96,0,1,,,0,,,91,64
66720,note_on,,,,,24,0,1,,,0,,,90,71
66720,note_on,,,,,0,0,2,,,1,,,62,71
66720,note_on,,,,,480,0,2,,,1,,,53,71
66816,note_off,,,,,96,0,1,,,0,,,90,64
66840,note_on,,,,,24,0,1,,,0,,,89,71
66936,note_off,,,,,96,0,1,,,0,,,89,64
66960,note_on,,,,,24,0,1,,,0,,,88,71
67056,note_off,,,,,96,0,1,,,0,,,88,64
67080,note_on,,,,,24,0,1,,,0,,,87,71
67104,note_off,,,,,384,0,2,,,1,,,62,64
67104,note_off,,,,,0,0,2,,,1,,,53,64
67176,note_off,,,,,96,0,1,,,0,,,87,64
67200,note_on,,,,,96,0,2,,,1,,,64,71
67200,note_on,,,,,0,0,2,,,1,,,52,71
67200,note_on,,,,,24,0,1,,,0,,,86,71
67296,note_off,,,,,96,0,1,,,0,,,86,64
67320,note_on,,,,,24,0,1,,,0,,,85,71
67416,note_off,,,,,96,0,1,,,0,,,85,64
67440,note_on,,,,,24,0,1,,,0,,,84,71
67536,note_off,,,,,96,0,1,,,0,,,84,64
67560,note_on,,,,,24,0,1,,,0,,,83,71
67584,note_off,,,,,384,0,2,,,1,,,52,64
67584,note_off,,,,,0,0,2,,,1,,,64,64
67656,note_off,,,,,96,0,1,,,0,,,83,64
67680,note_on,,,,,24,0,1,,,0,,,82,71
67680,note_on,,,,,96,0,2,,,1,,,65,71
67680,note_on,,,,,0,0,2,,,1,,,50,71
67776,note_off,,,,,96,0,1,,,0,,,82,64
67800,note_on,,,,,24,0,1,,,0,,,81,71
67896,note_off,,,,,96,0,1,,,0,,,81,64
67920,note_on,,,,,24,0,1,,,0,,,80,71
68016,note_off,,,,,96,0,1,,,0,,,80,64
68040,note_on,,,,,24,0,1,,,0,,,79,71
68136,note_off,,,,,96,0,1,,,0,,,79,64
68160,note_on,,,,,24,0,1,,,0,,,78,71
68256,note_off,,,,,96,0,1,,,0,,,78,64
68280,note_on,,,,,24,0,1,,,0,,,77,71
68376,note_off,,,,,96,0,1,,,0,,,77,64
68400,note_on,,,,,24,0,1,,,0,,,76,71
68496,note_off,,,,,96,0,1,,,0,,,76,64
68520,note_on,,,,,24,0,1,,,0,,,75,71
68544,note_off,,,,,864,0,2,,,1,,,50,64
68544,note_off,,,,,0,0,2,,,1,,,65,64
68616,note_off,,,,,96,0,1,,,0,,,75,64
68640,note_on,,,,,0,0,2,,,1,,,62,71
68640,note_on,,,,,96,0,2,,,1,,,53,71
68640,note_on,,,,,24,0,1,,,0,,,74,71
68736,note_off,,,,,96,0,1,,,0,,,74,64
68760,note_on,,,,,24,0,1,,,0,,,73,71
68856,note_off,,,,,96,0,1,,,0,,,73,64
68880,note_on,,,,,24,0,1,,,0,,,72,71
68928,note_off,,,,,288,0,2,,,1,,,57,64
68976,note_off,,,,,96,0,1,,,0,,,72,64
69000,note_on,,,,,24,0,1,,,0,,,71,71
69024,note_off,,,,,0,0,2,,,1,,,53,64
69024,note_off,,,,,96,0,2,,,1,,,62,64
69096,note_off,,,,,96,0,1,,,0,,,71,64
69120,note_on,,,,,0,0,2,,,1,,,52,71
69120,note_on,,,,,96,0,2,,,1,,,60,71
69120,note_on,,,,,0,0,2,,,1,,,57,71
69360,note_on,,,,,264,0,1,,,0,,,72,71
69504,note_off,,,,,0,0,2,,,1,,,60,64
69504,note_off,,,,,0,0,2,,,1,,,52,64
69504,note_off,,,,,384,0,2,,,1,,,57,64
69552,note_off,,,,,192,0,1,,,0,,,72,64
69600,note_on,,,,,48,0,1,,,0,,,75,71
69792,note_off,,,,,192,0,1,,,0,,,75,64
69840,note_on,,,,,48,0,1,,,0,,,81,71
70032,note_off,,,,,192,0,1,,,0,,,81,64
70080,note_on,,,,,576,0,2,,,1,,,52,71
70080,note_on,,,,,0,0,2,,,1,,,56,71
70080,note_on,,,,,0,0,2,,,1,,,59,71
70320,note_on,,,,,240,0,2,,,1,,,65,71
70320,note_on,,,,,288,0,1,,,0,,,77,71
70464,note_off,,,,,144,0,2,,,1,,,59,64
70464,note_off,,,,,0,0,2,,,1,,,56,64
70464,note_off,,,,,0,0,2,,,1,,,52,64
70512,note_off,,,,,48,0,2,,,1,,,65,64
70512,note_off,,,,,192,0,1,,,0,,,77,64
70560,note_on,,,,,48,0,1,,,0,,,76,71
70560,note_on,,,,,48,0,2,,,1,,,64,71
70752,note_off,,,,,192,0,2,,,1,,,64,64
70752,note_off,,,,,192,0,1,,,0,,,76,64
70800,note_on,,,,,48,0,1,,,0,,,68,71
70800,note_on,,,,,48,0,2,,,1,,,56,71
70992,note_off,,,,,192,0,2,,,1,,,56,64
70992,note_off,,,,,192,0,1,,,0,,,68,64
71040,note_on,,,,,0,0,1,,,0,,,81,58
71040,note_on,,,,,48,0,1,,,0,,,77,58
71040,note_on,,,,,48,0,2,,,1,,,45,58
71040,note_on,,,,,0,0,2,,,1,,,57,58
71136,note_off,,,,,96,0,1,,,0,,,77,64
71160,note_on,,,,,24,0,1,,,0,,,69,58
71256,note_off,,,,,96,0,1,,,0,,,69,64
71280,note_on,,,,,24,0,1,,,0,,,77,58
71376,note_off,,,,,96,0,1,,,0,,,77,64
71400,note_on,,,,,24,0,1,,,0,,,69,58
71424,note_off,,,,,384,0,2,,,1,,,57,64
71424,note_off,,,,,0,0,2,,,1,,,45,64
71424,note_off,,,,,24,0,1,,,0,,,81,64
71496,note_off,,,,,72,0,1,,,0,,,69,64
71520,note_on,,,,,24,0,1,,,0,,,76,58
71520,note_on,,,,,0,0,1,,,0,,,67,58
71520,note_on,,,,,0,0,1,,,0,,,79,58
71520,note_on,,,,,96,0,2,,,1,,,64,58
71616,note_off,,,,,96,0,2,,,1,,,64,64
71640,note_on,,,,,24,0,2,,,1,,,57,58
71712,note_off,,,,,192,0,1,,,0,,,79,64
71712,note_off,,,,,0,0,1,,,0,,,67,64
71712,note_off,,,,,0,0,1,,,0,,,76,64
71736,note_off,,,,,96,0,2,,,1,,,57,64
71760,note_on,,,,,0,0,1,,,0,,,69,58
71760,note_on,,,,,48,0,1,,,0,,,81,58
71760,note_on,,,,,24,0,2,,,1,,,65,58
71760,note_on,,,,,0,0,1,,,0,,,77,58
71856,note_off,,,,,96,0,2,,,1,,,65,64
71880,note_on,,,,,24,0,2,,,1,,,57,58
71952,note_off,,,,,192,0,1,,,0,,,69,64
71952,note_off,,,,,0,0,1,,,0,,,77,64
71952,note_off,,,,,0,0,1,,,0,,,81,64
71976,note_off,,,,,96,0,2,,,1,,,57,64
72000,note_on,,,,,48,0,1,,,0,,,79,58
72000,note_on,,,,,24,0,2,,,1,,,70,58
72000,note_on,,,,,0,0,2,,,1,,,67,58
72000,note_on,,,,,0,0,1,,,0,,,82,58
72096,note_off,,,,,96,0,2,,,1,,,67,64
72096,note_off,,,,,0,0,2,,,1,,,70,64
72120,note_on,,,,,24,0,2,,,1,,,57,58
72216,note_off,,,,,96,0,2,,,1,,,57,64
72240,note_on,,,,,0,0,2,,,1,,,67,58
72240,note_on,,,,,24,0,2,,,1,,,64,58
72288,note_off,,,,,0,0,1,,,0,,,79,64
72288,note_off,,,,,288,0,1,,,0,,,82,64
72336,note_off,,,,,0,0,2,,,1,,,64,64
72336,note_off,,,,,96,0,2,,,1,,,67,64
72360,note_on,,,,,24,0,2,,,1,,,57,58
72360,note_on,,,,,0,0,1,,,0,,,76,58
72360,note_on,,,,,72,0,1,,,0,,,79,58
72456,note_off,,,,,96,0,2,,,1,,,57,64
72456,note_off,,,,,0,0,1,,,0,,,79,64
72456,note_off,,,,,96,0,1,,,0,,,76,64
72480,note_on,,,,,0,0,1,,,0,,,73,58
72480,note_on,,,,,24,0,1,,,0,,,76,58
72480,note_on,,,,,24,0,2,,,1,,,64,58
72480,note_on,,,,,0,0,2,,,1,,,61,58
72576,note_off,,,,,96,0,2,,,1,,,61,64
72576,note_off,,,,,0,0,2,,,1,,,64,64
72600,note_on,,,,,24,0,2,,,1,,,57,58
72672,note_off,,,,,192,0,1,,,0,,,73,64
72672,note_off,,,,,0,0,1,,,0,,,76,64
72696,note_off,,,,,96,0,2,,,1,,,57,64
72720,note_on,,,,,0,0,2,,,1,,,62,58
72720,note_on,,,,,24,0,2,,,1,,,65,58
72720,note_on,,,,,48,0,1,,,0,,,77,58
72720,note_on,,,,,0,0,1,,,0,,,74,58
72816,note_off,,,,,96,0,2,,,1,,,62,64
72816,note_off,,,,,0,0,2,,,1,,,65,64
72840,note_on,,,,,24,0,2,,,1,,,57,58
72912,note_off,,,,,192,0,1,,,0,,,74,64
72912,note_off,,,,,0,0,1,,,0,,,77,64
72936,note_off,,,,,96,0,2,,,1,,,57,64
72960,note_on,,,,,48,0,1,,,0,,,79,58
72960,note_on,,,,,0,0,1,,,0,,,76,58
72960,note_on,,,,,24,0,2,,,1,,,67,58
72960,note_on,,,,,0,0,2,,,1,,,64,58
73056,note_off,,,,,0,0,2,,,1,,,67,64
73056,note_off,,,,,96,0,2,,,1,,,64,64
73080,note_on,,,,,24,0,2,,,1,,,57,58
73152,note_off,,,,,0,0,1,,,0,,,79,64
73152,note_off,,,,,192,0,1,,,0,,,76,64
73176,note_off,,,,,96,0,2,,,1,,,57,64
73200,note_on,,,,,0,0,2,,,1,,,65,58
73200,note_on,,,,,24,0,2,,,1,,,62,58
73200,note_on,,,,,48,0,1,,,0,,,74,58
73200,note_on,,,,,0,0,1,,,0,,,77,58
73296,note_off,,,,,0,0,2,,,1,,,62,64
73296,note_off,,,,,96,0,2,,,1,,,65,64
73320,note_on,,,,,24,0,2,,,1,,,57,58
73392,note_off,,,,,192,0,1,,,0,,,77,64
73392,note_off,,,,,0,0,1,,,0,,,74,64
73416,note_off,,,,,96,0,2,,,1,,,57,64
73440,note_on,,,,,0,0,1,,,0,,,76,58
73440,note_on,,,,,0,0,2,,,1,,,60,58
73440,note_on,,,,,48,0,1,,,0,,,72,58
73440,note_on,,,,,24,0,2,,,1,,,64,58
73536,note_off,,,,,0,0,2,,,1,,,64,64
73536,note_off,,,,,96,0,2,,,1,,,60,64
73560,note_on,,,,,24,0,2,,,1,,,57,58
73632,note_off,,,,,0,0,1,,,0,,,72,64
73632,note_off,,,,,192,0,1,,,0,,,76,64
73656,note_off,,,,,96,0,2,,,1,,,57,64
73680,note_on,,,,,0,0,1,,,0,,,70,58
73680,note_on,,,,,48,0,1,,,0,,,74,58
73680,note_on,,,,,24,0,2,,,1,,,62,58
73680,note_on,,,,,0,0,2,,,1,,,58,58
73776,note_off,,,,,96,0,2,,,1,,,58,64
73776,note_off,,,,,0,0,2,,,1,,,62,64
73800,note_on,,,,,24,0,2,,,1,,,57,58
73872,note_off,,,,,192,0,1,,,0,,,70,64
73872,note_off,,,,,0,0,1,,,0,,,74,64
73896,note_off,,,,,96,0,2,,,1,,,57,64
73920,note_on,,,,,0,0,1,,,0,,,69,58
73920,note_on,,,,,24,0,2,,,1,,,61,58
73920,note_on,,,,,48,0,1,,,0,,,73,58
74016,note_off,,,,,96,0,2,,,1,,,61,64
74040,note_on,,,,,24,0,2,,,1,,,57,58
74136,note_off,,,,,96,0,2,,,1,,,57,64
74160,note_on,,,,,0,0,2,,,1,,,59,58
74160,note_on,,,,,24,0,2,,,1,,,62,58
74208,note_off,,,,,288,0,1,,,0,,,69,64
74208,note_off,,,,,0,0,1,,,0,,,73,64
74256,note_off,,,,,0,0,2,,,1,,,62,64
74256,note_off,,,,,96,0,2,,,1,,,59,64
74280,note_on,,,,,24,0,2,,,1,,,57,58
74280,note_on,,,,,0,0,1,,,0,,,74,58
74280,note_on,,,,,72,0,1,,,0,,,71,58
74376,note_off,,,,,96,0,2,,,1,,,57,64
74376,note_off,,,,,0,0,1,,,0,,,71,64
74376,note_off,,,,,96,0,1,,,0,,,74,64
74400,note_on,,,,,0,0,1,,,0,,,73,58
74400,note_on,,,,,24,0,1,,,0,,,76,58
74400,note_on,,,,,24,0,2,,,1,,,61,58
74400,note_on,,,,,0,0,2,,,1,,,64,58
74496,note_off,,,,,96,0,2,,,1,,,64,64
74496,note_off,,,,,0,0,2,,,1,,,61,64
74520,note_on,,,,,24,0,2,,,1,,,57,58
74592,note_off,,,,,192,0,1,,,0,,,73,64
74592,note_off,,,,,0,0,1,,,0,,,76,64
74616,note_off,,,,,96,0,2,,,1,,,57,64
74640,note_on,,,,,24,0,2,,,1,,,64,58
74640,note_on,,,,,0,0,2,,,1,,,61,58
74736,note_off,,,,,0,0,2,,,1,,,64,64
74736,note_off,,,,,96,0,2,,,1,,,61,64
74760,note_on,,,,,24,0,2,,,1,,,57,58
74856,note_off,,,,,96,0,2,,,1,,,57,64
74880,note_on,,,,,24,0,2,,,1,,,69,58
74880,note_on,,,,,288,0,1,,,0,,,85,58
74880,note_on,,,,,0,0,1,,,0,,,81,58
74976,note_off,,,,,96,0,2,,,1,,,69,64
75000,note_on,,,,,24,0,2,,,1,,,57,58
75096,note_off,,,,,96,0,2,,,1,,,57,64
75120,note_on,,,,,24,0,2,,,1,,,69,58
75168,note_off,,,,,0,0,1,,,0,,,85,64
75168,note_off,,,,,288,0,1,,,0,,,81,64
75216,note_off,,,,,96,0,2,,,1,,,69,64
75240,note_on,,,,,0,0,1,,,0,,,86,58
75240,note_on,,,,,24,0,2,,,1,,,57,58
75240,note_on,,,,,72,0,1,,,0,,,83,58
75336,note_off,,,,,96,0,1,,,0,,,86,64
75336,note_off,,,,,96,0,2,,,1,,,57,64
75336,note_off,,,,,0,0,1,,,0,,,83,64
75360,note_on,,,,,24,0,1,,,0,,,88,58
75360,note_on,,,,,0,0,1,,,0,,,85,58
75360,note_on,,,,,24,0,2,,,1,,,69,58
75456,note_off,,,,,96,0,2,,,1,,,69,64
75480,note_on,,,,,24,0,2,,,1,,,57,58
75552,note_off,,,,,192,0,1,,,0,,,85,64
75552,note_off,,,,,0,0,1,,,0,,,88,64
75576,note_off,,,,,96,0,2,,,1,,,57,64
75600,note_on,,,,,24,0,2,,,1,,,69,58
75696,note_off,,,,,96,0,2,,,1,,,69,64
75720,note_on,,,,,24,0,2,,,1,,,57,58
75816,note_off,,,,,96,0,2,,,1,,,57,64
75840,note_on,,,,,288,0,1,,,0,,,72,71
75840,note_on,,,,,0,0,1,,,0,,,69,71
75840,note_on,,,,,24,0,2,,,1,,,64,71
75936,note_off,,,,,96,0,2,,,1,,,64,64
75960,note_on,,,,,24,0,2,,,1,,,57,71
76056,note_off,,,,,96,0,2,,,1,,,57,64
76080,note_on,,,,,24,0,2,,,1,,,64,71
76128,note_off,,,,,0,0,1,,,0,,,72,64
76128,note_off,,,,,288,0,1,,,0,,,69,64
76176,note_off,,,,,96,0,2,,,1,,,64,64
76200,note_on,,,,,24,0,2,,,1,,,57,71
76200,note_on,,,,,0,0,1,,,0,,,71,71
76200,note_on,,,,,72,0,1,,,0,,,74,71
76296,note_off,,,,,96,0,1,,,0,,,71,64
76296,note_off,,,,,96,0,2,,,1,,,57,64
76296,note_off,,,,,0,0,1,,,0,,,74,64
76320,note_on,,,,,24,0,2,,,1,,,64,71
76320,note_on,,,,,24,0,1,,,0,,,72,71
76320,note_on,,,,,0,0,1,,,0,,,76,71
76416,note_off,,,,,96,0,2,,,1,,,64,64
76440,note_on,,,,,24,0,2,,,1,,,57,71
76536,note_off,,,,,96,0,2,,,1,,,57,64
76560,note_on,,,,,24,0,2,,,1,,,64,71
76656,note_off,,,,,96,0,2,,,1,,,64,64
76680,note_on,,,,,24,0,2,,,1,,,57,71
76776,note_off,,,,,96,0,2,,,1,,,57,64
76800,note_on,,,,,24,0,2,,,1,,,67,71
76896,note_off,,,,,96,0,2,,,1,,,67,64
76920,note_on,,,,,24,0,2,,,1,,,55,71
77016,note_off,,,,,96,0,2,,,1,,,55,64
77040,note_on,,,,,24,0,2,,,1,,,67,71
77088,note_off,,,,,768,0,1,,,0,,,72,64
77088,note_off,,,,,0,0,1,,,0,,,76,64
77136,note_off,,,,,96,0,2,,,1,,,67,64
77160,note_on,,,,,72,0,1,,,0,,,74,71
77160,note_on,,,,,0,0,1,,,0,,,77,71
77160,note_on,,,,,24,0,2,,,1,,,55,71
77256,note_off,,,,,0,0,1,,,0,,,74,64
77256,note_off,,,,,96,0,1,,,0,,,77,64
77256,note_off,,,,,96,0,2,,,1,,,55,64
77280,note_on,,,,,24,0,1,,,0,,,79,71
77280,note_on,,,,,0,0,1,,,0,,,76,71
77280,note_on,,,,,24,0,2,,,1,,,67,71
77376,note_off,,,,,96,0,2,,,1,,,67,64
77400,note_on,,,,,24,0,2,,,1,,,55,71
77496,note_off,,,,,96,0,2,,,1,,,55,64
77520,note_on,,,,,24,0,2,,,1,,,67,71
77616,note_off,,,,,96,0,2,,,1,,,67,64
77640,note_on,,,,,24,0,2,,,1,,,55,71
77664,note_off,,,,,384,0,1,,,0,,,76,64
77736,note_off,,,,,96,0,2,,,1,,,55,64
77760,note_on,,,,,24,0,2,,,1,,,66,81
77760,note_on,,,,,0,0,1,,,0,,,72,81
77760,note_on,,,,,96,0,1,,,0,,,75,81
77856,note_off,,,,,96,0,2,,,1,,,66,64
77880,note_on,,,,,24,0,2,,,1,,,55,81
77976,note_off,,,,,96,0,2,,,1,,,55,64
78000,note_on,,,,,24,0,2,,,1,,,66,81
78048,note_off,,,,,288,0,1,,,0,,,79,64
78096,note_off,,,,,96,0,2,,,1,,,66,64
78120,note_on,,,,,72,0,1,,,0,,,81,81
78120,note_on,,,,,24,0,2,,,1,,,55,81
78144,note_off,,,,,24,0,1,,,0,,,72,64
78144,note_off,,,,,0,0,1,,,0,,,75,64
78216,note_off,,,,,72,0,1,,,0,,,81,64
78216,note_off,,,,,96,0,2,,,1,,,55,64
78240,note_on,,,,,0,0,1,,,0,,,83,81
78240,note_on,,,,,24,0,2,,,1,,,65,81
78240,note_on,,,,,24,0,1,,,0,,,74,81
78240,note_on,,,,,0,0,1,,,0,,,79,81
78336,note_off,,,,,96,0,2,,,1,,,65,64
78360,note_on,,,,,24,0,2,,,1,,,55,81
78456,note_off,,,,,96,0,2,,,1,,,55,64
78480,note_on,,,,,24,0,2,,,1,,,65,81
78576,note_off,,,,,96,0,2,,,1,,,65,64
78600,note_on,,,,,24,0,2,,,1,,,55,81
78624,note_off,,,,,384,0,1,,,0,,,79,64
78624,note_off,,,,,0,0,1,,,0,,,74,64
78696,note_off,,,,,96,0,2,,,1,,,55,64
78720,note_on,,,,,0,0,1,,,0,,,79,81
78720,note_on,,,,,24,0,2,,,1,,,64,81
78720,note_on,,,,,96,0,1,,,0,,,72,81
78816,note_off,,,,,96,0,2,,,1,,,64,64
78840,note_on,,,,,24,0,2,,,1,,,55,81
78936,note_off,,,,,96,0,2,,,1,,,55,64
78960,note_on,,,,,24,0,2,,,1,,,64,81
79008,note_off,,,,,288,0,1,,,0,,,83,64
79056,note_off,,,,,96,0,2,,,1,,,64,64
79080,note_on,,,,,24,0,2,,,1,,,55,81
79080,note_on,,,,,72,0,1,,,0,,,84,81
79104,note_off,,,,,24,0,1,,,0,,,79,64
79104,note_off,,,,,0,0,1,,,0,,,72,64
79176,note_off,,,,,72,0,1,,,0,,,84,64
79176,note_off,,,,,96,0,2,,,1,,,55,64
79200,note_on,,,,,0,0,1,,,0,,,77,81
79200,note_on,,,,,24,0,1,,,0,,,83,81
79200,note_on,,,,,0,0,1,,,0,,,86,81
79200,note_on,,,,,0,0,1,,,0,,,74,81
79200,note_on,,,,,24,0,2,,,1,,,62,81
79296,note_off,,,,,96,0,2,,,1,,,62,64
79320,note_on,,,,,24,0,2,,,1,,,55,81
79416,note_off,,,,,96,0,2,,,1,,,55,64
79440,note_on,,,,,24,0,2,,,1,,,62,81
79536,note_off,,,,,96,0,2,,,1,,,62,64
79560,note_on,,,,,24,0,2,,,1,,,55,81
79584,note_off,,,,,0,0,1,,,0,,,83,64
79584,note_off,,,,,0,0,1,,,0,,,77,64
79584,note_off,,,,,384,0,1,,,0,,,74,64
79656,note_off,,,,,96,0,2,,,1,,,55,64
79680,note_on,,,,,96,0,1,,,0,,,76,91
79680,note_on,,,,,0,0,1,,,0,,,79,91
79680,note_on,,,,,24,0,2,,,1,,,60,91
79776,note_off,,,,,96,0,2,,,1,,,60,64
79800,note_on,,,,,24,0,2,,,1,,,55,91
79896,note_off,,,,,96,0,2,,,1,,,55,64
79920,note_on,,,,,24,0,2,,,1,,,60,91
79968,note_off,,,,,288,0,1,,,0,,,86,64
80016,note_off,,,,,96,0,2,,,1,,,60,64
80040,note_on,,,,,72,0,1,,,0,,,88,91
80040,note_on,,,,,24,0,2,,,1,,,55,91
80064,note_off,,,,,0,0,1,,,0,,,76,64
80064,note_off,,,,,24,0,1,,,0,,,79,64
80136,note_off,,,,,72,0,1,,,0,,,88,64
80136,note_off,,,,,96,0,2,,,1,,,55,64
80160,note_on,,,,,24,0,1,,,0,,,86,91
80160,note_on,,,,,0,0,1,,,0,,,89,91
80160,note_on,,,,,24,0,2,,,1,,,59,91
80160,note_on,,,,,0,0,1,,,0,,,77,91
80256,note_off,,,,,96,0,2,,,1,,,59,64
80280,note_on,,,,,24,0,2,,,1,,,55,91
80376,note_off,,,,,96,0,2,,,1,,,55,64
80400,note_on,,,,,24,0,2,,,1,,,59,91
80496,note_off,,,,,96,0,2,,,1,,,59,64
80520,note_on,,,,,24,0,2,,,1,,,55,91
80616,note_off,,,,,96,0,2,,,1,,,55,64
80640,note_on,,,,,24,0,2,,,1,,,67,91
80736,note_off,,,,,96,0,2,,,1,,,67,64
80736,note_off,,,,,576,0,1,,,0,,,77,64
80736,note_off,,,,,0,0,1,,,0,,,89,64
80736,note_off,,,,,0,0,1,,,0,,,86,64
80760,note_on,,,,,24,0,2,,,1,,,55,91
80760,note_on,,,,,24,0,1,,,0,,,88,91
80760,note_on,,,,,0,0,1,,,0,,,85,91
80760,note_on,,,,,0,0,1,,,0,,,76,91
80856,note_off,,,,,0,0,1,,,0,,,88,64
80856,note_off,,,,,0,0,1,,,0,,,85,64
80856,note_off,,,,,96,0,1,,,0,,,76,64
80856,note_off,,,,,96,0,2,,,1,,,55,64
80880,note_on,,,,,24,0,1,,,0,,,89,91
80880,note_on,,,,,0,0,1,,,0,,,77,91
80880,note_on,,,,,24,0,2,,,1,,,67,91
80880,note_on,,,,,0,0,1,,,0,,,86,91
80976,note_off,,,,,96,0,2,,,1,,,67,64
80976,note_off,,,,,0,0,1,,,0,,,89,64
80976,note_off,,,,,0,0,1,,,0,,,86,64
80976,note_off,,,,,96,0,1,,,0,,,77,64
81000,note_on,,,,,0,0,1,,,0,,,88,91
81000,note_on,,,,,0,0,1,,,0,,,76,91
81000,note_on,,,,,24,0,2,,,1,,,55,91
81000,note_on,,,,,24,0,1,,,0,,,85,91
81096,note_off,,,,,96,0,2,,,1,,,55,64
81096,note_off,,,,,96,0,1,,,0,,,76,64
81096,note_off,,,,,0,0,1,,,0,,,88,64
81096,note_off,,,,,0,0,1,,,0,,,85,64
81120,note_on,,,,,0,0,1,,,0,,,89,91
81120,note_on,,,,,24,0,1,,,0,,,77,91
81120,note_on,,,,,0,0,1,,,0,,,86,91
81120,note_on,,,,,24,0,2,,,1,,,67,91
81216,note_off,,,,,96,0,1,,,0,,,89,64
81216,note_off,,,,,0,0,1,,,0,,,86,64
81216,note_off,,,,,0,0,1,,,0,,,77,64
81216,note_off,,,,,96,0,2,,,1,,,67,64
81240,note_on,,,,,24,0,2,,,1,,,55,91
81240,note_on,,,,,24,0,1,,,0,,,85,91
81240,note_on,,,,,0,0,1,,,0,,,76,91
81240,note_on,,,,,0,0,1,,,0,,,88,91
81336,note_off,,,,,96,0,2,,,1,,,55,64
81336,note_off,,,,,0,0,1,,,0,,,85,64
81336,note_off,,,,,0,0,1,,,0,,,76,64
81336,note_off,,,,,96,0,1,,,0,,,88,64
81360,note_on,,,,,24,0,2,,,1,,,67,91
81360,note_on,,,,,0,0,1,,,0,,,77,91
81360,note_on,,,,,0,0,1,,,0,,,89,91
81360,note_on,,,,,24,0,1,,,0,,,86,91
81456,note_off,,,,,96,0,1,,,0,,,89,64
81456,note_off,,,,,0,0,1,,,0,,,86,64
81456,note_off,,,,,0,0,1,,,0,,,77,64
81456,note_off,,,,,96,0,2,,,1,,,67,64
81480,note_on,,,,,0,0,1,,,0,,,76,91
81480,note_on,,,,,0,0,1,,,0,,,85,91
81480,note_on,,,,,24,0,1,,,0,,,88,91
81480,note_on,,,,,24,0,2,,,1,,,55,91
81576,note_off,,,,,0,0,1,,,0,,,88,64
81576,note_off,,,,,0,0,1,,,0,,,85,64
81576,note_off,,,,,96,0,1,,,0,,,76,64
81576,note_off,,,,,96,0,2,,,1,,,55,64
81600,note_on,,,,,0,0,2,,,1,,,65,91
81600,note_on,,,,,24,0,2,,,1,,,55,91
81600,note_on,,,,,0,0,1,,,0,,,89,104
81600,note_on,,,,,0,0,1,,,0,,,91,104
81600,note_on,,,,,24,0,1,,,0,,,101,104
81600,note_on,,,,,0,0,2,,,1,,,62,104
81600,note_on,,,,,0,0,2,,,1,,,71,104
81648,note_off,,,,,48,0,1,,,0,,,91,64
81648,note_off,,,,,0,0,1,,,0,,,89,64
81648,note_off,,,,,0,0,1,,,0,,,101,64
81660,note_on,,,,,12,0,1,,,0,,,98,104
81696,note_off,,,,,0,0,2,,,1,,,55,64
81696,note_off,,,,,0,0,2,,,1,,,65,64
81696,note_off,,,,,0,0,2,,,1,,,62,64
81696,note_off,,,,,96,0,2,,,1,,,71,64
81708,note_off,,,,,48,0,1,,,0,,,98,64
81720,note_on,,,,,0,0,2,,,1,,,76,104
81720,note_on,,,,,24,0,2,,,1,,,64,104
81720,note_on,,,,,12,0,1,,,0,,,95,104
81768,note_off,,,,,48,0,1,,,0,,,95,64
81780,note_on,,,,,12,0,1,,,0,,,91,104
81816,note_off,,,,,0,0,2,,,1,,,64,64
81816,note_off,,,,,96,0,2,,,1,,,76,64
81828,note_off,,,,,48,0,1,,,0,,,91,64
81840,note_on,,,,,24,0,2,,,1,,,65,104
81840,note_on,,,,,0,0,2,,,1,,,77,104
81840,note_on,,,,,12,0,1,,,0,,,89,104
81888,note_off,,,,,48,0,1,,,0,,,89,64
81900,note_on,,,,,12,0,1,,,0,,,86,104
81936,note_off,,,,,0,0,2,,,1,,,65,64
81936,note_off,,,,,96,0,2,,,1,,,77,64
81948,note_off,,,,,48,0,1,,,0,,,86,64
81960,note_on,,,,,12,0,1,,,0,,,83,104
81960,note_on,,,,,24,0,2,,,1,,,61,104
81960,note_on,,,,,0,0,2,,,1,,,73,104
82008,note_off,,,,,48,0,1,,,0,,,83,64
82020,note_on,,,,,12,0,1,,,0,,,79,104
82056,note_off,,,,,0,0,2,,,1,,,61,64
82056,note_off,,,,,96,0,2,,,1,,,73,64
82068,note_off,,,,,48,0,1,,,0,,,79,64
82080,note_on,,,,,12,0,1,,,0,,,89,104
82080,note_on,,,,,0,0,2,,,1,,,62,104
82080,note_on,,,,,24,0,2,,,1,,,74,104
82128,note_off,,,,,48,0,1,,,0,,,89,64
82140,note_on,,,,,12,0,1,,,0,,,86,104
82176,note_off,,,,,0,0,2,,,1,,,74,64
82176,note_off,,,,,96,0,2,,,1,,,62,64
82188,note_off,,,,,48,0,1,,,0,,,86,64
82200,note_on,,,,,24,0,2,,,1,,,70,104
82200,note_on,,,,,0,0,2,,,1,,,58,104
82200,note_on,,,,,12,0,1,,,0,,,83,104
82248,note_off,,,,,48,0,1,,,0,,,83,64
82260,note_on,,,,,12,0,1,,,0,,,79,104
82296,note_off,,,,,0,0,2,,,1,,,70,64
82296,note_off,,,,,96,0,2,,,1,,,58,64
82308,note_off,,,,,48,0,1,,,0,,,79,64
82320,note_on,,,,,24,0,2,,,1,,,71,104
82320,note_on,,,,,0,0,2,,,1,,,59,104
82320,note_on,,,,,12,0,1,,,0,,,77,104
82368,note_off,,,,,48,0,1,,,0,,,77,64
82380,note_on,,,,,12,0,1,,,0,,,74,104
82416,note_off,,,,,96,0,2,,,1,,,59,64
82416,note_off,,,,,0,0,2,,,1,,,71,64
82428,note_off,,,,,48,0,1,,,0,,,74,64
82440,note_on,,,,,0,0,2,,,1,,,67,104
82440,note_on,,,,,24,0,2,,,1,,,55,104
82440,note_on,,,,,12,0,1,,,0,,,71,104
82488,note_off,,,,,48,0,1,,,0,,,71,64
82500,note_on,,,,,12,0,1,,,0,,,67,104
82536,note_off,,,,,0,0,2,,,1,,,55,64
82536,note_off,,,,,96,0,2,,,1,,,67,64
82548,note_off,,,,,48,0,1,,,0,,,67,64
82560,note_on,,,,,12,0,1,,,0,,,89,104
82608,note_off,,,,,48,0,1,,,0,,,89,64
82620,note_on,,,,,12,0,1,,,0,,,86,104
82668,note_off,,,,,48,0,1,,,0,,,86,64
82680,note_on,,,,,12,0,1,,,0,,,83,104
82680,note_on,,,,,0,0,2,,,1,,,52,104
82680,note_on,,,,,144,0,2,,,1,,,40,104
82728,note_off,,,,,48,0,1,,,0,,,83,64
82740,note_on,,,,,12,0,1,,,0,,,79,104
82776,note_off,,,,,0,0,2,,,1,,,40,64
82776,note_off,,,,,96,0,2,,,1,,,52,64
82788,note_off,,,,,48,0,1,,,0,,,79,64
82800,note_on,,,,,12,0,1,,,0,,,77,104
82800,note_on,,,,,0,0,2,,,1,,,41,104
82800,note_on,,,,,24,0,2,,,1,,,53,104
82848,note_off,,,,,48,0,1,,,0,,,77,64
82860,note_on,,,,,12,0,1,,,0,,,74,104
82896,note_off,,,,,96,0,2,,,1,,,41,64
82896,note_off,,,,,0,0,2,,,1,,,53,64
82908,note_off,,,,,48,0,1,,,0,,,74,64
82920,note_on,,,,,24,0,2,,,1,,,37,104
82920,note_on,,,,,0,0,2,,,1,,,49,104
82920,note_on,,,,,12,0,1,,,0,,,71,104
82968,note_off,,,,,48,0,1,,,0,,,71,64
82980,note_on,,,,,12,0,1,,,0,,,67,104
83016,note_off,,,,,0,0,2,,,1,,,37,64
83016,note_off,,,,,96,0,2,,,1,,,49,64
83028,note_off,,,,,48,0,1,,,0,,,67,64
83040,note_on,,,,,24,0,2,,,1,,,38,104
83040,note_on,,,,,12,0,1,,,0,,,65,104
83040,note_on,,,,,0,0,2,,,1,,,50,104
83072,note_off,,,,,32,0,1,,,0,,,65,64
83080,note_on,,,,,8,0,1,,,0,,,62,104
83112,note_off,,,,,32,0,1,,,0,,,62,64
83120,note_on,,,,,8,0,1,,,0,,,59,104
83136,note_off,,,,,96,0,2,,,1,,,50,64
83136,note_off,,,,,0,0,2,,,1,,,38,64
83152,note_off,,,,,32,0,1,,,0,,,59,64
83160,note_on,,,,,24,0,2,,,1,,,46,104
83160,note_on,,,,,8,0,1,,,0,,,55,104
83160,note_on,,,,,0,0,2,,,1,,,34,104
83192,note_off,,,,,32,0,1,,,0,,,55,64
83200,note_on,,,,,8,0,1,,,0,,,59,104
83232,note_off,,,,,32,0,1,,,0,,,59,64
83240,note_on,,,,,8,0,1,,,0,,,62,104
83256,note_off,,,,,0,0,2,,,1,,,46,64
83256,note_off,,,,,96,0,2,,,1,,,34,64
83272,note_off,,,,,32,0,1,,,0,,,62,64
83280,note_on,,,,,8,0,1,,,0,,,65,104
83280,note_on,,,,,0,0,2,,,1,,,47,104
83280,note_on,,,,,24,0,2,,,1,,,35,104
83312,note_off,,,,,32,0,1,,,0,,,65,64
83320,note_on,,,,,8,0,1,,,0,,,67,104
83352,note_off,,,,,32,0,1,,,0,,,67,64
83360,note_on,,,,,8,0,1,,,0,,,74,104
83376,note_off,,,,,96,0,2,,,1,,,47,64
83376,note_off,,,,,0,0,2,,,1,,,35,64
83392,note_off,,,,,32,0,1,,,0,,,74,64
83400,note_on,,,,,8,0,1,,,0,,,77,104
83400,note_on,,,,,24,0,2,,,1,,,31,104
83400,note_on,,,,,0,0,2,,,1,,,43,104
83432,note_off,,,,,32,0,1,,,0,,,77,64
83440,note_on,,,,,8,0,1,,,0,,,79,104
83472,note_off,,,,,32,0,1,,,0,,,79,64
83480,note_on,,,,,8,0,1,,,0,,,83,104
83496,note_off,,,,,96,0,2,,,1,,,43,64
83496,note_off,,,,,0,0,2,,,1,,,31,64
83512,note_off,,,,,32,0,1,,,0,,,83,64
83520,note_on,,,,,24,0,2,,,1,,,64,104
83520,note_on,,,,,0,0,2,,,1,,,48,104
83520,note_on,,,,,0,0,2,,,1,,,55,104
83520,note_on,,,,,0,0,2,,,1,,,60,104
83520,time_signature,4,4,24,8,83520,1,0,,,,,,,
83520,note_on,,,,,8,0,1,,,0,,,76,104
83520,note_on,,,,,0,0,1,,,0,,,79,104
83520,note_on,,,,,0,0,1,,,0,,,84,104
83520,note_on,,,,,0,0,1,,,0,,,72,104
83808,note_off,,,,,288,0,1,,,0,,,72,64
83808,note_off,,,,,0,0,1,,,0,,,79,64
83808,note_off,,,,,0,0,1,,,0,,,76,64
83808,note_off,,,,,0,0,1,,,0,,,84,64
83808,note_off,,,,,0,0,2,,,1,,,64,64
83808,note_off,,,,,0,0,2,,,1,,,48,64
83808,note_off,,,,,288,0,2,,,1,,,60,64
83808,note_off,,,,,0,0,2,,,1,,,55,64
83880,note_on,,,,,0,0,1,,,0,,,52,104
83880,note_on,,,,,72,0,1,,,0,,,64,104
83880,note_on,,,,,0,0,2,,,1,,,48,104
83880,note_on,,,,,0,0,2,,,1,,,36,104
83880,note_on,,,,,72,0,2,,,1,,,43,104
83880,note_on,,,,,0,0,1,,,0,,,60,104
83976,note_off,,,,,0,0,2,,,1,,,43,64
83976,note_off,,,,,0,0,2,,,1,,,36,64
83976,note_off,,,,,0,0,1,,,0,,,64,64
83976,note_off,,,,,96,0,2,,,1,,,48,64
83976,note_off,,,,,96,0,1,,,0,,,52,64
83976,note_off,,,,,0,0,1,,,0,,,60,64
84000,note_on,,,,,0,0,1,,,0,,,52,104
84000,note_on,,,,,24,0,2,,,1,,,48,104
84000,note_on,,,,,0,0,2,,,1,,,36,104
84000,note_on,,,,,0,0,2,,,1,,,43,104
84000,note_on,,,,,0,0,1,,,0,,,64,104
84000,note_on,,,,,24,0,1,,,0,,,60,104
84192,note_off,,,,,192,0,2,,,1,,,43,64
84192,note_off,,,,,0,0,2,,,1,,,36,64
84192,note_off,,,,,0,0,2,,,1,,,48,64
84225,note_off,,,,,0,0,1,,,0,,,52,64
84225,note_off,,,,,0,0,1,,,0,,,60,64
84225,note_off,,,,,225,0,1,,,0,,,64,64
84240,note_on,,,,,0,0,2,,,1,,,38,104
84240,note_on,,,,,15,0,1,,,0,,,53,104
84240,note_on,,,,,48,0,2,,,1,,,50,104
84240,note_on,,,,,0,0,1,,,0,,,65,104
84240,note_on,,,,,0,0,1,,,0,,,60,104
84336,note_off,,,,,0,0,1,,,0,,,53,64
84336,note_off,,,,,96,0,1,,,0,,,65,64
84336,note_off,,,,,0,0,1,,,0,,,60,64
84336,note_off,,,,,96,0,2,,,1,,,38,64
84336,note_off,,,,,0,0,2,,,1,,,50,64
84360,note_on,,,,,24,0,1,,,0,,,60,104
84360,note_on,,,,,0,0,1,,,0,,,55,104
84360,note_on,,,,,0,0,1,,,0,,,67,104
84360,note_on,,,,,0,0,2,,,1,,,40,104
84360,note_on,,,,,0,0,2,,,1,,,52,104
84360,note_on,,,,,24,0,2,,,1,,,48,104
84456,note_off,,,,,96,0,1,,,0,,,67,64
84456,note_off,,,,,0,0,2,,,1,,,48,64
84456,note_off,,,,,0,0,1,,,0,,,60,64
84456,note_off,,,,,0,0,1,,,0,,,55,64
84456,note_off,,,,,0,0,2,,,1,,,52,64
84456,note_off,,,,,96,0,2,,,1,,,40,64
84480,note_on,,,,,0,0,1,,,0,,,60,104
84480,note_on,,,,,0,0,2,,,1,,,53,104
84480,note_on,,,,,0,0,2,,,1,,,48,104
84480,note_on,,,,,0,0,1,,,0,,,57,104
84480,note_on,,,,,24,0,1,,,0,,,69,104
84480,note_on,,,,,24,0,2,,,1,,,41,104
84672,note_off,,,,,0,0,1,,,0,,,69,64
84672,note_off,,,,,192,0,1,,,0,,,60,64
84672,note_off,,,,,0,0,1,,,0,,,57,64
84672,note_off,,,,,0,0,2,,,1,,,48,64
84672,note_off,,,,,0,0,2,,,1,,,41,64
84672,note_off,,,,,192,0,2,,,1,,,53,64
84720,note_on,,,,,0,0,1,,,0,,,67,104
84720,note_on,,,,,0,0,1,,,0,,,60,104
84720,note_on,,,,,48,0,1,,,0,,,55,104
84720,note_on,,,,,48,0,2,,,1,,,48,104
84720,note_on,,,,,0,0,2,,,1,,,52,104
84720,note_on,,,,,0,0,2,,,1,,,40,104
84912,note_off,,,,,192,0,1,,,0,,,67,64
84912,note_off,,,,,192,0,2,,,1,,,40,64
84912,note_off,,,,,0,0,2,,,1,,,52,64
84912,note_off,,,,,0,0,1,,,0,,,55,64
84912,note_off,,,,,0,0,2,,,1,,,48,64
84912,note_off,,,,,0,0,1,,,0,,,60,64
85320,note_on,,,,,408,0,1,,,0,,,52,104
85320,note_on,,,,,0,0,1,,,0,,,60,104
85320,note_on,,,,,0,0,1,,,0,,,64,104
85320,note_on,,,,,0,0,2,,,1,,,48,104
85320,note_on,,,,,408,0,2,,,1,,,43,104
85320,note_on,,,,,0,0,2,,,1,,,36,104
85416,note_off,,,,,0,0,2,,,1,,,43,64
85416,note_off,,,,,0,0,2,,,1,,,36,64
85416,note_off,,,,,0,0,1,,,0,,,52,64
85416,note_off,,,,,96,0,2,,,1,,,48,64
85416,note_off,,,,,96,0,1,,,0,,,64,64
85416,note_off,,,,,0,0,1,,,0,,,60,64
85440,note_on,,,,,24,0,1,,,0,,,60,104
85440,note_on,,,,,0,0,1,,,0,,,64,104
85440,note_on,,,,,0,0,1,,,0,,,52,104
85440,note_on,,,,,24,0,2,,,1,,,48,104
85440,note_on,,,,,0,0,2,,,1,,,43,104
85440,note_on,,,,,0,0,2,,,1,,,36,104
85632,note_off,,,,,192,0,1,,,0,,,52,64
85632,note_off,,,,,0,0,1,,,0,,,64,64
85632,note_off,,,,,0,0,1,,,0,,,60,64
85632,note_off,,,,,0,0,2,,,1,,,43,64
85632,note_off,,,,,192,0,2,,,1,,,36,64
85632,note_off,,,,,0,0,2,,,1,,,48,64
85680,note_on,,,,,0,0,1,,,0,,,65,104
85680,note_on,,,,,0,0,1,,,0,,,60,104
85680,note_on,,,,,0,0,2,,,1,,,38,104
85680,note_on,,,,,48,0,2,,,1,,,50,104
85680,note_on,,,,,48,0,1,,,0,,,53,104
85776,note_off,,,,,96,0,1,,,0,,,60,64
85776,note_off,,,,,0,0,1,,,0,,,65,64
85776,note_off,,,,,0,0,1,,,0,,,53,64
85776,note_off,,,,,0,0,2,,,1,,,50,64
85776,note_off,,,,,96,0,2,,,1,,,38,64
85800,note_on,,,,,0,0,2,,,1,,,48,104
85800,note_on,,,,,0,0,2,,,1,,,40,104
85800,note_on,,,,,24,0,2,,,1,,,52,104
85800,note_on,,,,,24,0,1,,,0,,,67,104
85800,note_on,,,,,0,0,1,,,0,,,60,104
85800,note_on,,,,,0,0,1,,,0,,,55,104
85896,note_off,,,,,0,0,1,,,0,,,67,64
85896,note_off,,,,,0,0,1,,,0,,,55,64
85896,note_off,,,,,96,0,1,,,0,,,60,64
85896,note_off,,,,,96,0,2,,,1,,,48,64
85896,note_off,,,,,0,0,2,,,1,,,40,64
85896,note_off,,,,,0,0,2,,,1,,,52,64
85920,note_on,,,,,0,0,1,,,0,,,60,104
85920,note_on,,,,,0,0,2,,,1,,,48,104
85920,note_on,,,,,0,0,2,,,1,,,41,104
85920,note_on,,,,,24,0,2,,,1,,,53,104
85920,note_on,,,,,24,0,1,,,0,,,69,104
85920,note_on,,,,,0,0,1,,,0,,,57,104
86112,note_off,,,,,0,0,1,,,0,,,60,64
86112,note_off,,,,,192,0,2,,,1,,,48,64
86112,note_off,,,,,0,0,2,,,1,,,41,64
86112,note_off,,,,,0,0,2,,,1,,,53,64
86112,note_off,,,,,0,0,1,,,0,,,69,64
86112,note_off,,,,,192,0,1,,,0,,,57,64
86160,note_on,,,,,0,0,1,,,0,,,60,104
86160,note_on,,,,,0,0,1,,,0,,,55,104
86160,note_on,,,,,48,0,1,,,0,,,67,104
86160,note_on,,,,,48,0,2,,,1,,,40,104
86160,note_on,,,,,0,0,2,,,1,,,52,104
86160,note_on,,,,,0,0,2,,,1,,,48,104
86256,note_off,,,,,0,0,2,,,1,,,40,64
86256,note_off,,,,,0,0,2,,,1,,,48,64
86256,note_off,,,,,96,0,2,,,1,,,52,64
86256,note_off,,,,,96,0,1,,,0,,,60,64
86256,note_off,,,,,0,0,1,,,0,,,55,64
86256,note_off,,,,,0,0,1,,,0,,,67,64
86280,note_on,,,,,0,0,2,,,1,,,53,104
86280,note_on,,,,,0,0,1,,,0,,,69,104
86280,note_on,,,,,0,0,1,,,0,,,60,104
86280,note_on,,,,,24,0,1,,,0,,,57,104
86280,note_on,,,,,24,0,2,,,1,,,41,104
86280,note_on,,,,,0,0,2,,,1,,,48,104
86376,note_off,,,,,96,0,2,,,1,,,53,64
86376,note_off,,,,,96,0,1,,,0,,,69,64
86376,note_off,,,,,0,0,1,,,0,,,60,64
86376,note_off,,,,,0,0,1,,,0,,,57,64
86376,note_off,,,,,0,0,2,,,1,,,48,64
86376,note_off,,,,,0,0,2,,,1,,,41,64
86400,note_on,,,,,0,0,1,,,0,,,72,104
86400,note_on,,,,,0,0,1,,,0,,,70,104
86400,note_on,,,,,0,0,1,,,0,,,58,104
86400,note_on,,,,,24,0,1,,,0,,,60,104
86400,note_on,,,,,0,0,2,,,1,,,55,104
86400,note_on,,,,,24,0,2,,,1,,,48,104
86400,note_on,,,,,0,0,2,,,1,,,43,104
86592,note_off,,,,,0,0,1,,,0,,,60,64
86592,note_off,,,,,0,0,1,,,0,,,72,64
86592,note_off,,,,,0,0,1,,,0,,,70,64
86592,note_off,,,,,192,0,1,,,0,,,58,64
86592,note_off,,,,,192,0,2,,,1,,,55,64
86592,note_off,,,,,0,0,2,,,1,,,43,64
86592,note_off,,,,,0,0,2,,,1,,,48,64
86640,note_on,,,,,0,0,2,,,1,,,41,104
86640,note_on,,,,,0,0,2,,,1,,,48,104
86640,note_on,,,,,48,0,2,,,1,,,53,104
86640,note_on,,,,,0,0,1,,,0,,,60,104
86640,note_on,,,,,48,0,1,,,0,,,57,104
86640,note_on,,,,,0,0,1,,,0,,,69,104
86832,note_off,,,,,192,0,2,,,1,,,41,64
86832,note_off,,,,,0,0,1,,,0,,,69,64
86832,note_off,,,,,0,0,2,,,1,,,48,64
86832,note_off,,,,,192,0,1,,,0,,,60,64
86832,note_off,,,,,0,0,1,,,0,,,57,64
86832,note_off,,,,,0,0,2,,,1,,,53,64
87120,note_on,,,,,288,0,2,,,1,,,40,104
87120,note_on,,,,,0,0,2,,,1,,,48,104
87120,note_on,,,,,0,0,2,,,1,,,52,104
87120,note_on,,,,,288,0,1,,,0,,,67,104
87120,note_on,,,,,0,0,1,,,0,,,55,104
87120,note_on,,,,,0,0,1,,,0,,,60,104
87216,note_off,,,,,0,0,2,,,1,,,40,64
87216,note_off,,,,,0,0,1,,,0,,,67,64
87216,note_off,,,,,96,0,1,,,0,,,60,64
87216,note_off,,,,,0,0,2,,,1,,,48,64
87216,note_off,,,,,96,0,2,,,1,,,52,64
87216,note_off,,,,,0,0,1,,,0,,,55,64
87240,note_on,,,,,24,0,1,,,0,,,57,104
87240,note_on,,,,,0,0,2,,,1,,,53,104
87240,note_on,,,,,0,0,1,,,0,,,69,104
87240,note_on,,,,,0,0,2,,,1,,,41,104
87240,note_on,,,,,0,0,1,,,0,,,60,104
87240,note_on,,,,,24,0,2,,,1,,,48,104
87336,note_off,,,,,96,0,2,,,1,,,41,64
87336,note_off,,,,,0,0,2,,,1,,,53,64
87336,note_off,,,,,0,0,2,,,1,,,48,64
87336,note_off,,,,,96,0,1,,,0,,,69,64
87336,note_off,,,,,0,0,1,,,0,,,60,64
87336,note_off,,,,,0,0,1,,,0,,,57,64
87360,note_on,,,,,0,0,1,,,0,,,59,104
87360,note_on,,,,,24,0,2,,,1,,,38,104
87360,note_on,,,,,0,0,2,,,1,,,50,104
87360,note_on,,,,,0,0,1,,,0,,,65,104
87360,note_on,,,,,24,0,1,,,0,,,71,104
87552,note_off,,,,,192,0,1,,,0,,,59,64
87552,note_off,,,,,0,0,2,,,1,,,38,64
87552,note_off,,,,,0,0,1,,,0,,,71,64
87552,note_off,,,,,192,0,2,,,1,,,50,64
87552,note_off,,,,,0,0,1,,,0,,,65,64
87600,note_on,,,,,0,0,1,,,0,,,72,104
87600,note_on,,,,,0,0,1,,,0,,,64,104
87600,note_on,,,,,48,0,1,,,0,,,60,104
87600,note_on,,,,,48,0,2,,,1,,,40,104
87600,note_on,,,,,0,0,2,,,1,,,52,104
87792,note_off,,,,,0,0,2,,,1,,,40,64
87792,note_off,,,,,192,0,1,,,0,,,64,64
87792,note_off,,,,,0,0,1,,,0,,,72,64
87792,note_off,,,,,0,0,1,,,0,,,60,64
87792,note_off,,,,,192,0,2,,,1,,,52,64
87840,note_on,,,,,0,0,2,,,1,,,47,104
87840,note_on,,,,,48,0,1,,,0,,,62,104
87840,note_on,,,,,0,0,1,,,0,,,67,104
87840,note_on,,,,,0,0,1,,,0,,,74,104
87840,note_on,,,,,48,0,2,,,1,,,35,104
88032,note_off,,,,,192,0,1,,,0,,,74,64
88032,note_off,,,,,0,0,2,,,1,,,35,64
88032,note_off,,,,,192,0,2,,,1,,,47,64
88032,note_off,,,,,0,0,1,,,0,,,62,64
88032,note_off,,,,,0,0,1,,,0,,,67,64
88080,note_on,,,,,0,0,1,,,0,,,76,104
88080,note_on,,,,,0,0,1,,,0,,,64,104
88080,note_on,,,,,0,0,2,,,1,,,48,104
88080,note_on,,,,,48,0,2,,,1,,,36,104
88080,note_on,,,,,48,0,1,,,0,,,67,104
88272,note_off,,,,,192,0,1,,,0,,,64,64
88272,note_off,,,,,0,0,1,,,0,,,76,64
88272,note_off,,,,,0,0,1,,,0,,,67,64
88272,note_off,,,,,0,0,2,,,1,,,36,64
88272,note_off,,,,,192,0,2,,,1,,,48,64
88320,note_on,,,,,48,0,2,,,1,,,45,104
88320,note_on,,,,,0,0,2,,,1,,,38,104
88320,note_on,,,,,0,0,1,,,0,,,71,104
88320,note_on,,,,,0,0,1,,,0,,,74,104
88320,note_on,,,,,48,0,1,,,0,,,78,104
88320,note_on,,,,,0,0,2,,,1,,,33,104
88344,note_off,,,,,24,0,1,,,0,,,78,64
88350,note_on,,,,,6,0,1,,,0,,,79,104
88374,note_off,,,,,24,0,1,,,0,,,79,64
88380,note_on,,,,,6,0,1,,,0,,,78,104
88404,note_off,,,,,24,0,1,,,0,,,78,64
88410,note_on,,,,,6,0,1,,,0,,,79,104
88434,note_off,,,,,24,0,1,,,0,,,79,64
88440,note_on,,,,,6,0,1,,,0,,,78,104
88464,note_off,,,,,24,0,1,,,0,,,78,64
88470,note_on,,,,,6,0,1,,,0,,,79,104
88494,note_off,,,,,24,0,1,,,0,,,79,64
88500,note_on,,,,,6,0,1,,,0,,,78,104
88524,note_off,,,,,24,0,1,,,0,,,78,64
88530,note_on,,,,,6,0,1,,,0,,,79,104
88554,note_off,,,,,24,0,1,,,0,,,79,64
88560,note_on,,,,,6,0,1,,,0,,,78,104
88584,note_off,,,,,24,0,1,,,0,,,78,64
88590,note_on,,,,,6,0,1,,,0,,,79,104
88614,note_off,,,,,24,0,1,,,0,,,79,64
88620,note_on,,,,,6,0,1,,,0,,,78,104
88644,note_off,,,,,24,0,1,,,0,,,78,64
88650,note_on,,,,,6,0,1,,,0,,,79,104
88674,note_off,,,,,24,0,1,,,0,,,79,64
88680,note_on,,,,,6,0,1,,,0,,,78,104
88704,note_off,,,,,384,0,2,,,1,,,33,64
88704,note_off,,,,,0,0,2,,,1,,,38,64
88704,note_off,,,,,0,0,2,,,1,,,45,64
88704,note_off,,,,,0,0,1,,,0,,,74,64
88704,note_off,,,,,24,0,1,,,0,,,78,64
88704,note_off,,,,,0,0,1,,,0,,,71,64
88710,note_on,,,,,6,0,1,,,0,,,79,104
88734,note_off,,,,,24,0,1,,,0,,,79,64
88740,note_on,,,,,6,0,1,,,0,,,76,104
88764,note_off,,,,,24,0,1,,,0,,,76,64
88770,note_on,,,,,6,0,1,,,0,,,78,104
88794,note_off,,,,,24,0,1,,,0,,,78,64
88800,note_on,,,,,0,0,1,,,0,,,79,104
88800,note_on,,,,,96,0,2,,,1,,,31,104
88800,note_on,,,,,0,0,2,,,1,,,43,104
88800,note_on,,,,,0,0,2,,,1,,,38,104
88800,note_on,,,,,6,0,1,,,0,,,71,104
88992,note_off,,,,,192,0,2,,,1,,,38,64
88992,note_off,,,,,0,0,2,,,1,,,31,64
88992,note_off,,,,,0,0,2,,,1,,,43,64
88992,note_off,,,,,0,0,1,,,0,,,71,64
88992,note_off,,,,,192,0,1,,,0,,,79,64
89040,note_on,,,,,48,0,1,,,0,,,74,104
89040,note_on,,,,,48,0,2,,,1,,,62,104
89136,note_off,,,,,96,0,1,,,0,,,74,64
89136,note_off,,,,,96,0,2,,,1,,,62,64
89160,note_on,,,,,24,0,1,,,0,,,78,104
89160,note_on,,,,,24,0,2,,,1,,,66,104
89256,note_off,,,,,96,0,1,,,0,,,78,64
89256,note_off,,,,,96,0,2,,,1,,,66,64
89280,note_on,,,,,24,0,1,,,0,,,79,104
89280,note_on,,,,,24,0,2,,,1,,,67,104
89472,note_off,,,,,192,0,2,,,1,,,67,64
89472,note_off,,,,,192,0,1,,,0,,,79,64
89520,note_on,,,,,48,0,1,,,0,,,62,104
89520,note_on,,,,,48,0,2,,,1,,,50,104
89616,note_off,,,,,96,0,2,,,1,,,50,64
89616,note_off,,,,,96,0,1,,,0,,,62,64
89640,note_on,,,,,24,0,1,,,0,,,66,104
89640,note_on,,,,,24,0,2,,,1,,,54,104
89736,note_off,,,,,96,0,1,,,0,,,66,64
89736,note_off,,,,,96,0,2,,,1,,,54,64
89760,note_on,,,,,24,0,1,,,0,,,67,104
89760,note_on,,,,,24,0,2,,,1,,,55,104
89952,note_off,,,,,192,0,1,,,0,,,67,64
89952,note_off,,,,,192,0,2,,,1,,,55,64
90000,note_on,,,,,48,0,2,,,1,,,50,104
90000,note_on,,,,,0,0,2,,,1,,,38,104
90096,note_off,,,,,96,0,2,,,1,,,38,64
90096,note_off,,,,,0,0,2,,,1,,,50,64
90120,note_on,,,,,24,0,2,,,1,,,54,104
90120,note_on,,,,,0,0,2,,,1,,,42,104
90216,note_off,,,,,96,0,2,,,1,,,42,64
90216,note_off,,,,,0,0,2,,,1,,,54,64
90240,note_on,,,,,24,0,2,,,1,,,55,104
90240,note_on,,,,,0,0,2,,,1,,,43,104
90304,note_off,,,,,64,0,2,,,1,,,55,64
90320,note_on,,,,,16,0,2,,,1,,,59,104
90384,note_off,,,,,64,0,2,,,1,,,59,64
90400,note_on,,,,,16,0,2,,,1,,,60,104
90432,note_off,,,,,32,0,2,,,1,,,43,64
90464,note_off,,,,,32,0,2,,,1,,,60,64
90480,note_on,,,,,528,0,1,,,0,,,62,104
90544,note_off,,,,,64,0,1,,,0,,,62,64
90560,note_on,,,,,16,0,1,,,0,,,64,104
90624,note_off,,,,,64,0,1,,,0,,,64,64
90640,note_on,,,,,16,0,1,,,0,,,66,104
90704,note_off,,,,,64,0,1,,,0,,,66,64
90720,note_on,,,,,0,0,2,,,1,,,58,104
90720,note_on,,,,,16,0,1,,,0,,,67,104
90720,note_on,,,,,256,0,2,,,1,,,55,104
90768,note_off,,,,,48,0,1,,,0,,,67,64
90780,note_on,,,,,12,0,1,,,0,,,70,104
90828,note_off,,,,,48,0,1,,,0,,,70,64
90840,note_on,,,,,12,0,1,,,0,,,72,104
90888,note_off,,,,,48,0,1,,,0,,,72,64
90900,note_on,,,,,12,0,1,,,0,,,74,104
90948,note_off,,,,,48,0,1,,,0,,,74,64
90960,note_on,,,,,12,0,1,,,0,,,76,104
91008,note_off,,,,,48,0,1,,,0,,,76,64
91020,note_on,,,,,12,0,1,,,0,,,78,104
91068,note_off,,,,,48,0,1,,,0,,,78,64
91080,note_on,,,,,12,0,1,,,0,,,79,104
91104,note_off,,,,,0,0,2,,,1,,,55,64
91104,note_off,,,,,384,0,2,,,1,,,58,64
91128,note_off,,,,,48,0,1,,,0,,,79,64
91140,note_on,,,,,12,0,1,,,0,,,81,104
91188,note_off,,,,,48,0,1,,,0,,,81,64
91200,note_on,,,,,0,0,1,,,0,,,70,104
91200,note_on,,,,,0,0,1,,,0,,,74,104
91200,note_on,,,,,96,0,2,,,1,,,46,104
91200,note_on,,,,,0,0,1,,,0,,,82,104
91200,note_on,,,,,12,0,1,,,0,,,77,104
91200,note_on,,,,,0,0,2,,,1,,,53,104
91200,note_on,,,,,0,0,2,,,1,,,58,104
91200,note_on,,,,,0,0,2,,,1,,,62,104
91488,note_off,,,,,288,0,2,,,1,,,62,64
91488,note_off,,,,,0,0,2,,,1,,,58,64
91488,note_off,,,,,0,0,2,,,1,,,53,64
91488,note_off,,,,,0,0,2,,,1,,,46,64
91488,note_off,,,,,0,0,1,,,0,,,77,64
91488,note_off,,,,,0,0,1,,,0,,,74,64
91488,note_off,,,,,288,0,1,,,0,,,82,64
91488,note_off,,,,,0,0,1,,,0,,,70,64
91560,note_on,,,,,0,0,1,,,0,,,74,104
91560,note_on,,,,,72,0,2,,,1,,,34,104
91560,note_on,,,,,0,0,2,,,1,,,46,104
91560,note_on,,,,,72,0,1,,,0,,,62,104
91560,note_on,,,,,0,0,1,,,0,,,70,104
91656,note_off,,,,,0,0,2,,,1,,,34,64
91656,note_off,,,,,0,0,1,,,0,,,62,64
91656,note_off,,,,,96,0,2,,,1,,,46,64
91656,note_off,,,,,0,0,1,,,0,,,74,64
91656,note_off,,,,,96,0,1,,,0,,,70,64
91680,note_on,,,,,24,0,1,,,0,,,74,104
91680,note_on,,,,,0,0,1,,,0,,,70,104
91680,note_on,,,,,24,0,2,,,1,,,46,104
91680,note_on,,,,,0,0,2,,,1,,,34,104
91680,note_on,,,,,0,0,1,,,0,,,62,104
91872,note_off,,,,,192,0,1,,,0,,,62,64
91872,note_off,,,,,0,0,1,,,0,,,70,64
91872,note_off,,,,,0,0,1,,,0,,,74,64
91872,note_off,,,,,0,0,2,,,1,,,46,64
91872,note_off,,,,,192,0,2,,,1,,,34,64
91920,note_on,,,,,0,0,1,,,0,,,75,104
91920,note_on,,,,,0,0,1,,,0,,,63,104
91920,note_on,,,,,0,0,2,,,1,,,36,104
91920,note_on,,,,,48,0,2,,,1,,,48,104
91920,note_on,,,,,48,0,1,,,0,,,70,104
92016,note_off,,,,,96,0,1,,,0,,,63,64
92016,note_off,,,,,0,0,1,,,0,,,75,64
92016,note_off,,,,,0,0,1,,,0,,,70,64
92016,note_off,,,,,0,0,2,,,1,,,48,64
92016,note_off,,,,,96,0,2,,,1,,,36,64
92040,note_on,,,,,24,0,2,,,1,,,50,104
92040,note_on,,,,,0,0,2,,,1,,,38,104
92040,note_on,,,,,24,0,1,,,0,,,77,104
92040,note_on,,,,,0,0,1,,,0,,,70,104
92040,note_on,,,,,0,0,1,,,0,,,65,104
92136,note_off,,,,,0,0,1,,,0,,,77,64
92136,note_off,,,,,0,0,1,,,0,,,65,64
92136,note_off,,,,,96,0,1,,,0,,,70,64
92153,note_off,,,,,113,0,2,,,1,,,38,64
92153,note_off,,,,,0,0,2,,,1,,,50,64
92160,note_on,,,,,0,0,2,,,1,,,46,104
92160,note_on,,,,,0,0,2,,,1,,,51,104
92160,note_on,,,,,7,0,2,,,1,,,39,104
92160,note_on,,,,,24,0,1,,,0,,,70,104
92160,note_on,,,,,0,0,1,,,0,,,67,104
92160,note_on,,,,,0,0,1,,,0,,,79,104
92352,note_off,,,,,0,0,1,,,0,,,70,64
92352,note_off,,,,,0,0,1,,,0,,,67,64
92352,note_off,,,,,192,0,1,,,0,,,79,64
92352,note_off,,,,,192,0,2,,,1,,,46,64
92352,note_off,,,,,0,0,2,,,1,,,51,64
92352,note_off,,,,,0,0,2,,,1,,,39,64
92400,note_on,,,,,48,0,1,,,0,,,65,104
92400,note_on,,,,,48,0,2,,,1,,,38,104
92400,note_on,,,,,0,0,2,,,1,,,46,104
92400,note_on,,,,,0,0,2,,,1,,,50,104
92400,note_on,,,,,0,0,1,,,0,,,77,104
92400,note_on,,,,,0,0,1,,,0,,,70,104
92592,note_off,,,,,192,0,2,,,1,,,50,64
92592,note_off,,,,,0,0,2,,,1,,,46,64
92592,note_off,,,,,0,0,2,,,1,,,38,64
92592,note_off,,,,,192,0,1,,,0,,,70,64
92592,note_off,,,,,0,0,1,,,0,,,77,64
92592,note_off,,,,,0,0,1,,,0,,,65,64
93000,note_on,,,,,408,0,1,,,0,,,70,104
93000,note_on,,,,,408,0,2,,,1,,,34,104
93000,note_on,,,,,0,0,2,,,1,,,46,104
93000,note_on,,,,,0,0,1,,,0,,,62,104
93000,note_on,,,,,0,0,1,,,0,,,74,104
93096,note_off,,,,,0,0,2,,,1,,,34,64
93096,note_off,,,,,96,0,1,,,0,,,74,64
93096,note_off,,,,,0,0,1,,,0,,,62,64
93096,note_off,,,,,0,0,1,,,0,,,70,64
93096,note_off,,,,,96,0,2,,,1,,,46,64
93120,note_on,,,,,0,0,1,,,0,,,70,104
93120,note_on,,,,,0,0,1,,,0,,,74,104
93120,note_on,,,,,24,0,1,,,0,,,62,104
93120,note_on,,,,,24,0,2,,,1,,,34,104
93120,note_on,,,,,0,0,2,,,1,,,46,104
93312,note_off,,,,,0,0,1,,,0,,,62,64
93312,note_off,,,,,0,0,1,,,0,,,74,64
93312,note_off,,,,,192,0,1,,,0,,,70,64
93312,note_off,,,,,0,0,2,,,1,,,34,64
93312,note_off,,,,,192,0,2,,,1,,,46,64
93360,note_on,,,,,48,0,1,,,0,,,70,104
93360,note_on,,,,,0,0,2,,,1,,,48,104
93360,note_on,,,,,48,0,2,,,1,,,36,104
93360,note_on,,,,,0,0,1,,,0,,,75,104
93360,note_on,,,,,0,0,1,,,0,,,63,104
93456,note_off,,,,,0,0,2,,,1,,,36,64
93456,note_off,,,,,96,0,1,,,0,,,63,64
93456,note_off,,,,,96,0,2,,,1,,,48,64
93456,note_off,,,,,0,0,1,,,0,,,70,64
93456,note_off,,,,,0,0,1,,,0,,,75,64
93480,note_on,,,,,0,0,2,,,1,,,38,104
93480,note_on,,,,,0,0,1,,,0,,,65,104
93480,note_on,,,,,0,0,1,,,0,,,77,104
93480,note_on,,,,,24,0,1,,,0,,,70,104
93480,note_on,,,,,24,0,2,,,1,,,50,104
93576,note_off,,,,,0,0,1,,,0,,,70,64
93576,note_off,,,,,96,0,2,,,1,,,38,64
93576,note_off,,,,,0,0,1,,,0,,,77,64
93576,note_off,,,,,96,0,1,,,0,,,65,64
93576,note_off,,,,,0,0,2,,,1,,,50,64
93600,note_on,,,,,0,0,2,,,1,,,51,104
93600,note_on,,,,,0,0,2,,,1,,,39,104
93600,note_on,,,,,24,0,1,,,0,,,67,104
93600,note_on,,,,,0,0,1,,,0,,,70,104
93600,note_on,,,,,24,0,2,,,1,,,46,104
93600,note_on,,,,,0,0,1,,,0,,,79,104
93792,note_off,,,,,192,0,2,,,1,,,51,64
93792,note_off,,,,,0,0,2,,,1,,,39,64
93792,note_off,,,,,0,0,2,,,1,,,46,64
93792,note_off,,,,,192,0,1,,,0,,,70,64
93792,note_off,,,,,0,0,1,,,0,,,67,64
93792,note_off,,,,,0,0,1,,,0,,,79,64
93840,note_on,,,,,0,0,2,,,1,,,46,104
93840,note_on,,,,,0,0,2,,,1,,,49,104
93840,note_on,,,,,48,0,1,,,0,,,65,104
93840,note_on,,,,,0,0,1,,,0,,,77,104
93840,note_on,,,,,48,0,2,,,1,,,37,104
93840,note_on,,,,,0,0,1,,,0,,,70,104
93936,note_off,,,,,96,0,1,,,0,,,70,64
93936,note_off,,,,,0,0,1,,,0,,,77,64
93936,note_off,,,,,0,0,1,,,0,,,65,64
93936,note_off,,,,,96,0,2,,,1,,,46,64
93936,note_off,,,,,0,0,2,,,1,,,49,64
93936,note_off,,,,,0,0,2,,,1,,,37,64
93960,note_on,,,,,0,0,2,,,1,,,51,104
93960,note_on,,,,,24,0,1,,,0,,,79,104
93960,note_on,,,,,0,0,1,,,0,,,67,104
93960,note_on,,,,,24,0,2,,,1,,,39,104
93960,note_on,,,,,0,0,2,,,1,,,46,104
93960,note_on,,,,,0,0,1,,,0,,,70,104
94056,note_off,,,,,0,0,2,,,1,,,51,64
94056,note_off,,,,,0,0,1,,,0,,,67,64
94056,note_off,,,,,96,0,1,,,0,,,70,64
94056,note_off,,,,,0,0,1,,,0,,,79,64
94056,note_off,,,,,96,0,2,,,1,,,46,64
94056,note_off,,,,,0,0,2,,,1,,,39,64
94080,note_on,,,,,0,0,1,,,0,,,80,104
94080,note_on,,,,,0,0,1,,,0,,,70,104
94080,note_on,,,,,24,0,1,,,0,,,68,104
94080,note_on,,,,,24,0,2,,,1,,,53,104
94080,note_on,,,,,0,0,2,,,1,,,46,104
94080,note_on,,,,,0,0,2,,,1,,,41,104
94272,note_off,,,,,0,0,1,,,0,,,70,64
94272,note_off,,,,,192,0,1,,,0,,,80,64
94272,note_off,,,,,0,0,1,,,0,,,68,64
94272,note_off,,,,,0,0,2,,,1,,,46,64
94272,note_off,,,,,0,0,2,,,1,,,53,64
94272,note_off,,,,,192,0,2,,,1,,,41,64
94320,note_on,,,,,48,0,1,,,0,,,70,104
94320,note_on,,,,,48,0,2,,,1,,,51,104
94320,note_on,,,,,0,0,2,,,1,,,46,104
94320,note_on,,,,,0,0,2,,,1,,,39,104
94320,note_on,,,,,0,0,1,,,0,,,79,104
94320,note_on,,,,,0,0,1,,,0,,,67,104
94512,note_off,,,,,192,0,2,,,1,,,39,64
94512,note_off,,,,,0,0,2,,,1,,,46,64
94512,note_off,,,,,0,0,2,,,1,,,51,64
94512,note_off,,,,,192,0,1,,,0,,,67,64
94512,note_off,,,,,0,0,1,,,0,,,79,64
94512,note_off,,,,,0,0,1,,,0,,,70,64
94800,note_on,,,,,0,0,1,,,0,,,65,104
94800,note_on,,,,,0,0,2,,,1,,,50,104
94800,note_on,,,,,0,0,1,,,0,,,70,104
94800,note_on,,,,,288,0,2,,,1,,,38,104
94800,note_on,,,,,288,0,1,,,0,,,77,104
94896,note_off,,,,,0,0,2,,,1,,,38,64
94896,note_off,,,,,0,0,1,,,0,,,77,64
94896,note_off,,,,,96,0,1,,,0,,,65,64
94896,note_off,,,,,0,0,1,,,0,,,70,64
94896,note_off,,,,,96,0,2,,,1,,,50,64
94920,note_on,,,,,24,0,2,,,1,,,39,104
94920,note_on,,,,,24,0,1,,,0,,,70,104
94920,note_on,,,,,0,0,1,,,0,,,67,104
94920,note_on,,,,,0,0,2,,,1,,,51,104
94920,note_on,,,,,0,0,1,,,0,,,79,104
95016,note_off,,,,,0,0,1,,,0,,,67,64
95016,note_off,,,,,96,0,1,,,0,,,79,64
95016,note_off,,,,,96,0,2,,,1,,,51,64
95016,note_off,,,,,0,0,2,,,1,,,39,64
95016,note_off,,,,,0,0,1,,,0,,,70,64
95040,note_on,,,,,24,0,1,,,0,,,79,104
95040,note_on,,,,,24,0,2,,,1,,,53,104
95040,note_on,,,,,0,0,2,,,1,,,41,104
95040,note_on,,,,,0,0,1,,,0,,,71,104
95040,note_on,,,,,0,0,1,,,0,,,83,104
95232,note_off,,,,,192,0,2,,,1,,,41,64
95232,note_off,,,,,0,0,2,,,1,,,53,64
95232,note_off,,,,,0,0,1,,,0,,,79,64
95232,note_off,,,,,0,0,1,,,0,,,83,64
95232,note_off,,,,,192,0,1,,,0,,,71,64
95280,note_on,,,,,0,0,2,,,1,,,51,104
95280,note_on,,,,,48,0,1,,,0,,,72,104
95280,note_on,,,,,0,0,1,,,0,,,84,104
95280,note_on,,,,,0,0,1,,,0,,,79,104
95280,note_on,,,,,48,0,2,,,1,,,39,104
95472,note_off,,,,,0,0,1,,,0,,,72,64
95472,note_off,,,,,192,0,2,,,1,,,51,64
95472,note_off,,,,,0,0,2,,,1,,,39,64
95472,note_off,,,,,192,0,1,,,0,,,79,64
95472,note_off,,,,,0,0,1,,,0,,,84,64
95520,note_on,,,,,48,0,2,,,1,,,35,104
95520,note_on,,,,,0,0,2,,,1,,,47,104
95520,note_on,,,,,0,0,1,,,0,,,74,104
95520,note_on,,,,,0,0,1,,,0,,,79,104
95520,note_on,,,,,48,0,1,,,0,,,86,104
95712,note_off,,,,,192,0,1,,,0,,,79,64
95712,note_off,,,,,0,0,1,,,0,,,86,64
95712,note_off,,,,,0,0,2,,,1,,,35,64
95712,note_off,,,,,0,0,1,,,0,,,74,64
95712,note_off,,,,,192,0,2,,,1,,,47,64
95760,note_on,,,,,48,0,1,,,0,,,79,104
95760,note_on,,,,,0,0,1,,,0,,,75,104
95760,note_on,,,,,0,0,1,,,0,,,87,104
95760,note_on,,,,,0,0,2,,,1,,,36,104
95760,note_on,,,,,48,0,2,,,1,,,48,104
95952,note_off,,,,,192,0,2,,,1,,,36,64
95952,note_off,,,,,0,0,2,,,1,,,48,64
95952,note_off,,,,,0,0,1,,,0,,,79,64
95952,note_off,,,,,0,0,1,,,0,,,75,64
95952,note_off,,,,,192,0,1,,,0,,,87,64
96000,note_on,,,,,48,0,1,,,0,,,84,104
96000,note_on,,,,,0,0,1,,,0,,,89,104
96000,note_on,,,,,0,0,1,,,0,,,77,104
96000,note_on,,,,,48,0,2,,,1,,,33,104
96000,note_on,,,,,0,0,2,,,1,,,45,104
96192,note_off,,,,,0,0,1,,,0,,,77,64
96192,note_off,,,,,192,0,1,,,0,,,89,64
96192,note_off,,,,,192,0,2,,,1,,,45,64
96192,note_off,,,,,0,0,1,,,0,,,84,64
96192,note_off,,,,,0,0,2,,,1,,,33,64
96240,note_on,,,,,0,0,1,,,0,,,84,104
96240,note_on,,,,,0,0,1,,,0,,,78,104
96240,note_on,,,,,0,0,2,,,1,,,44,104
96240,note_on,,,,,48,0,1,,,0,,,90,104
96240,note_on,,,,,0,0,2,,,1,,,32,104
96240,note_on,,,,,48,0,2,,,1,,,38,104
96240,note_on,,,,,0,0,1,,,0,,,86,104
96624,note_off,,,,,0,0,2,,,1,,,38,64
96624,note_off,,,,,0,0,2,,,1,,,44,64
96624,note_off,,,,,384,0,2,,,1,,,32,64
96624,note_off,,,,,384,0,1,,,0,,,84,64
96624,note_off,,,,,0,0,1,,,0,,,78,64
96624,note_off,,,,,0,0,1,,,0,,,86,64
96624,note_off,,,,,0,0,1,,,0,,,90,64
96720,note_on,,,,,0,0,2,,,1,,,43,104
96720,note_on,,,,,0,0,1,,,0,,,86,104
96720,note_on,,,,,0,0,2,,,1,,,38,104
96720,note_on,,,,,96,0,1,,,0,,,91,104
96720,note_on,,,,,0,0,1,,,0,,,79,104
96720,note_on,,,,,0,0,1,,,0,,,84,104
96720,note_on,,,,,96,0,2,,,1,,,31,104
97152,note_off,,,,,0,0,1,,,0,,,84,64
97152,note_off,,,,,0,0,2,,,1,,,31,64
97152,note_off,,,,,0,0,2,,,1,,,38,64
97152,note_off,,,,,432,0,2,,,1,,,43,64
97152,note_off,,,,,432,0,1,,,0,,,79,64
97152,note_off,,,,,0,0,1,,,0,,,91,64
97152,note_off,,,,,0,0,1,,,0,,,86,64
97200,note_on,,,,,48,0,2,,,1,,,30,104
97200,note_on,,,,,0,0,2,,,1,,,38,104
97200,note_on,,,,,0,0,2,,,1,,,42,104
97200,note_on,,,,,48,0,1,,,0,,,86,104
97200,note_on,,,,,0,0,1,,,0,,,81,104
97200,note_on,,,,,0,0,1,,,0,,,84,104
97200,note_on,,,,,0,0,1,,,0,,,93,104
97584,note_off,,,,,384,0,2,,,1,,,42,64
97584,note_off,,,,,0,0,2,,,1,,,38,64
97584,note_off,,,,,0,0,2,,,1,,,30,64
97584,note_off,,,,,0,0,1,,,0,,,84,64
97584,note_off,,,,,384,0,1,,,0,,,93,64
97584,note_off,,,,,0,0,1,,,0,,,86,64
97584,note_off,,,,,0,0,1,,,0,,,81,64
97680,note_on,,,,,96,0,1,,,0,,,93,104
97680,note_on,,,,,0,0,1,,,0,,,86,104
97680,note_on,,,,,0,0,1,,,0,,,84,104
97680,note_on,,,,,0,0,1,,,0,,,81,104
97680,note_on,,,,,96,0,2,,,1,,,38,104
97680,note_on,,,,,0,0,2,,,1,,,30,104
97680,note_on,,,,,0,0,2,,,1,,,42,104
97872,note_off,,,,,192,0,2,,,1,,,42,64
97872,note_off,,,,,0,0,2,,,1,,,30,64
97872,note_off,,,,,0,0,2,,,1,,,38,64
97920,note_on,,,,,0,0,2,,,1,,,31,104
97920,note_on,,,,,48,0,2,,,1,,,43,104
97920,note_on,,,,,0,0,2,,,1,,,38,104
98016,note_off,,,,,0,0,2,,,1,,,43,64
98016,note_off,,,,,0,0,2,,,1,,,38,64
98016,note_off,,,,,336,0,1,,,0,,,84,64
98016,note_off,,,,,0,0,1,,,0,,,81,64
98016,note_off,,,,,0,0,1,,,0,,,93,64
98016,note_off,,,,,0,0,1,,,0,,,86,64
98016,note_off,,,,,96,0,2,,,1,,,31,64
98040,note_on,,,,,0,0,1,,,0,,,83,104
98040,note_on,,,,,24,0,1,,,0,,,91,104
98040,note_on,,,,,0,0,1,,,0,,,79,104
98136,note_off,,,,,0,0,1,,,0,,,91,64
98136,note_off,,,,,0,0,1,,,0,,,79,64
98136,note_off,,,,,96,0,1,,,0,,,83,64
98160,note_on,,,,,0,0,2,,,1,,,53,104
98160,note_on,,,,,24,0,1,,,0,,,89,104
98160,note_on,,,,,0,0,2,,,1,,,59,104
98160,note_on,,,,,144,0,2,,,1,,,55,104
98160,note_on,,,,,0,0,1,,,0,,,77,104
98160,note_on,,,,,0,0,2,,,1,,,50,104
98256,note_off,,,,,0,0,1,,,0,,,89,64
98256,note_off,,,,,96,0,1,,,0,,,77,64
98280,note_on,,,,,24,0,1,,,0,,,86,104
98280,note_on,,,,,0,0,1,,,0,,,74,104
98376,note_off,,,,,96,0,1,,,0,,,74,64
98376,note_off,,,,,0,0,1,,,0,,,86,64
98400,note_on,,,,,0,0,1,,,0,,,71,104
98400,note_on,,,,,24,0,1,,,0,,,83,104
98496,note_off,,,,,0,0,1,,,0,,,83,64
98496,note_off,,,,,96,0,1,,,0,,,71,64
98520,note_on,,,,,0,0,1,,,0,,,67,104
98520,note_on,,,,,24,0,1,,,0,,,79,104
98544,note_off,,,,,384,0,2,,,1,,,59,64
98544,note_off,,,,,0,0,2,,,1,,,53,64
98544,note_off,,,,,0,0,2,,,1,,,50,64
98544,note_off,,,,,0,0,2,,,1,,,55,64
98616,note_off,,,,,0,0,1,,,0,,,79,64
98616,note_off,,,,,96,0,1,,,0,,,67,64
98640,note_on,,,,,96,0,2,,,1,,,31,104
98640,note_on,,,,,0,0,2,,,1,,,43,104
98640,note_on,,,,,0,0,1,,,0,,,77,104
98640,note_on,,,,,24,0,1,,,0,,,65,104
98736,note_off,,,,,96,0,1,,,0,,,77,64
98736,note_off,,,,,0,0,1,,,0,,,65,64
98760,note_on,,,,,24,0,1,,,0,,,62,104
98760,note_on,,,,,0,0,1,,,0,,,74,104
98832,note_off,,,,,0,0,2,,,1,,,31,64
98832,note_off,,,,,192,0,2,,,1,,,43,64
98856,note_off,,,,,96,0,1,,,0,,,74,64
98856,note_off,,,,,0,0,1,,,0,,,62,64
98880,note_on,,,,,48,0,2,,,1,,,36,104
98880,note_on,,,,,0,0,2,,,1,,,43,104
98880,note_on,,,,,0,0,2,,,1,,,48,104
98880,note_on,,,,,24,0,1,,,0,,,72,104
98880,note_on,,,,,0,0,1,,,0,,,64,104
98880,note_on,,,,,0,0,1,,,0,,,60,104
99072,note_off,,,,,192,0,2,,,1,,,48,64
99072,note_off,,,,,0,0,2,,,1,,,43,64
99072,note_off,,,,,0,0,2,,,1,,,36,64
99168,note_off,,,,,288,0,1,,,0,,,60,64
99168,note_off,,,,,0,0,1,,,0,,,64,64
99168,note_off,,,,,0,0,1,,,0,,,72,64
99240,note_on,,,,,168,0,2,,,1,,,52,71
99240,note_on,,,,,0,0,2,,,1,,,48,71
99336,note_off,,,,,96,0,2,,,1,,,48,64
99336,note_off,,,,,0,0,2,,,1,,,52,64
99360,note_on,,,,,24,0,2,,,1,,,48,71
99360,note_on,,,,,0,0,2,,,1,,,52,71
99552,note_off,,,,,0,0,2,,,1,,,48,64
99552,note_off,,,,,192,0,2,,,1,,,52,64
99600,note_on,,,,,48,0,2,,,1,,,53,71
99600,note_on,,,,,0,0,2,,,1,,,50,71
99696,note_off,,,,,96,0,2,,,1,,,50,64
99696,note_off,,,,,0,0,2,,,1,,,53,64
99720,note_on,,,,,24,0,2,,,1,,,55,71
99720,note_on,,,,,0,0,2,,,1,,,52,71
99720,note_on,,,,,552,0,1,,,0,,,60,71
99816,note_off,,,,,0,0,2,,,1,,,55,64
99816,note_off,,,,,96,0,2,,,1,,,52,64
99816,note_off,,,,,96,0,1,,,0,,,60,64
99840,note_on,,,,,24,0,2,,,1,,,57,71
99840,note_on,,,,,24,0,1,,,0,,,60,71
99840,note_on,,,,,0,0,2,,,1,,,53,71
99936,note_off,,,,,0,0,2,,,1,,,57,64
99936,note_off,,,,,96,0,2,,,1,,,53,64
100032,note_off,,,,,192,0,1,,,0,,,60,64
100080,note_on,,,,,48,0,1,,,0,,,62,71
100080,note_on,,,,,0,0,2,,,1,,,52,71
100080,note_on,,,,,144,0,2,,,1,,,55,71
100176,note_off,,,,,0,0,2,,,1,,,55,64
100176,note_off,,,,,96,0,1,,,0,,,62,64
100176,note_off,,,,,96,0,2,,,1,,,52,64
100200,note_on,,,,,24,0,1,,,0,,,64,71
100296,note_off,,,,,96,0,1,,,0,,,64,64
100320,note_on,,,,,144,0,2,,,1,,,55,71
100320,note_on,,,,,0,0,2,,,1,,,59,71
100320,note_on,,,,,24,0,1,,,0,,,65,71
100512,note_off,,,,,0,0,2,,,1,,,55,64
100512,note_off,,,,,192,0,1,,,0,,,65,64
100512,note_off,,,,,192,0,2,,,1,,,59,64
100560,note_on,,,,,48,0,2,,,1,,,57,71
100560,note_on,,,,,48,0,1,,,0,,,65,71
100560,note_on,,,,,0,0,2,,,1,,,60,71
100656,note_off,,,,,96,0,2,,,1,,,60,64
100656,note_off,,,,,96,0,1,,,0,,,65,64
100656,note_off,,,,,0,0,2,,,1,,,57,64
100680,note_on,,,,,24,0,2,,,1,,,59,71
100680,note_on,,,,,0,0,2,,,1,,,62,71
100680,note_on,,,,,0,0,1,,,0,,,65,71
100680,note_on,,,,,24,0,1,,,0,,,67,71
100776,note_off,,,,,0,0,2,,,1,,,59,64
100776,note_off,,,,,96,0,1,,,0,,,65,64
100776,note_off,,,,,96,0,2,,,1,,,62,64
100776,note_off,,,,,0,0,1,,,0,,,67,64
100800,note_on,,,,,24,0,2,,,1,,,60,71
100800,note_on,,,,,24,0,1,,,0,,,67,71
100800,note_on,,,,,0,0,2,,,1,,,65,71
100992,note_off,,,,,192,0,1,,,0,,,67,64
100992,note_off,,,,,192,0,2,,,1,,,65,64
101040,note_on,,,,,48,0,1,,,0,,,69,71
101040,note_on,,,,,48,0,2,,,1,,,64,71
101136,note_off,,,,,96,0,2,,,1,,,60,64
101136,note_off,,,,,0,0,2,,,1,,,64,64
101136,note_off,,,,,96,0,1,,,0,,,69,64
101160,note_on,,,,,0,0,1,,,0,,,71,71
101160,note_on,,,,,24,0,1,,,0,,,79,71
101160,note_on,,,,,24,0,2,,,1,,,62,71
101160,note_on,,,,,0,0,2,,,1,,,55,71
101256,note_off,,,,,96,0,1,,,0,,,71,64
101256,note_off,,,,,96,0,2,,,1,,,55,64
101256,note_off,,,,,0,0,2,,,1,,,62,64
101256,note_off,,,,,0,0,1,,,0,,,79,64
101280,note_on,,,,,24,0,2,,,1,,,60,71
101280,note_on,,,,,0,0,2,,,1,,,64,71
101280,note_on,,,,,0,0,1,,,0,,,72,71
101280,note_on,,,,,24,0,1,,,0,,,79,71
101472,note_off,,,,,192,0,2,,,1,,,64,64
101472,note_off,,,,,192,0,1,,,0,,,72,64
101472,note_off,,,,,0,0,2,,,1,,,60,64
101520,note_on,,,,,48,0,1,,,0,,,74,71
101520,note_on,,,,,0,0,2,,,1,,,62,71
101520,note_on,,,,,48,0,2,,,1,,,55,71
101568,note_off,,,,,48,0,1,,,0,,,79,64
101616,note_off,,,,,48,0,1,,,0,,,74,64
101616,note_off,,,,,0,0,2,,,1,,,55,64
101616,note_off,,,,,96,0,2,,,1,,,62,64
101640,note_on,,,,,0,0,1,,,0,,,79,71
101640,note_on,,,,,24,0,2,,,1,,,52,71
101640,note_on,,,,,24,0,1,,,0,,,76,71
101640,note_on,,,,,0,0,2,,,1,,,60,71
101736,note_off,,,,,0,0,1,,,0,,,76,64
101736,note_off,,,,,96,0,1,,,0,,,79,64
101736,note_off,,,,,96,0,2,,,1,,,60,64
101736,note_off,,,,,0,0,2,,,1,,,52,64
101760,note_on,,,,,24,0,1,,,0,,,79,71
101760,note_on,,,,,24,0,2,,,1,,,59,71
101760,note_on,,,,,0,0,2,,,1,,,55,71
101760,note_on,,,,,0,0,1,,,0,,,79,71
101856,note_off,,,,,96,0,1,,,0,,,79,64
101880,note_on,,,,,24,0,1,,,0,,,78,71
101976,note_off,,,,,96,0,1,,,0,,,78,64
102000,note_on,,,,,24,0,1,,,0,,,81,71
102048,note_off,,,,,288,0,2,,,1,,,55,64
102048,note_off,,,,,48,0,1,,,0,,,79,64
102048,note_off,,,,,0,0,2,,,1,,,59,64
102096,note_off,,,,,48,0,1,,,0,,,81,64
102120,note_on,,,,,0,0,2,,,1,,,60,71
102120,note_on,,,,,24,0,1,,,0,,,79,71
102120,note_on,,,,,0,0,1,,,0,,,76,71
102120,note_on,,,,,72,0,2,,,1,,,64,71
102216,note_off,,,,,0,0,2,,,1,,,64,64
102216,note_off,,,,,96,0,2,,,1,,,60,64
102216,note_off,,,,,96,0,1,,,0,,,76,64
102216,note_off,,,,,0,0,1,,,0,,,79,64
102240,note_on,,,,,0,0,2,,,1,,,60,71
102240,note_on,,,,,24,0,2,,,1,,,64,71
102240,note_on,,,,,24,0,1,,,0,,,79,71
102240,note_on,,,,,0,0,1,,,0,,,76,71
102336,note_off,,,,,96,0,1,,,0,,,79,64
102360,note_on,,,,,24,0,1,,,0,,,78,71
102456,note_off,,,,,96,0,1,,,0,,,78,64
102480,note_on,,,,,24,0,1,,,0,,,81,71
102528,note_off,,,,,0,0,2,,,1,,,64,64
102528,note_off,,,,,48,0,1,,,0,,,76,64
102528,note_off,,,,,288,0,2,,,1,,,60,64
102576,note_off,,,,,48,0,1,,,0,,,81,64
102600,note_on,,,,,72,0,2,,,1,,,64,71
102600,note_on,,,,,24,0,1,,,0,,,79,71
102600,note_on,,,,,0,0,1,,,0,,,72,71
102600,note_on,,,,,0,0,2,,,1,,,67,71
102696,note_off,,,,,96,0,2,,,1,,,67,64
102696,note_off,,,,,0,0,2,,,1,,,64,64
102696,note_off,,,,,0,0,1,,,0,,,79,64
102696,note_off,,,,,96,0,1,,,0,,,72,64
102720,note_on,,,,,0,0,2,,,1,,,67,71
102720,note_on,,,,,0,0,1,,,0,,,73,71
102720,note_on,,,,,24,0,2,,,1,,,64,71
102720,note_on,,,,,24,0,1,,,0,,,82,110
102912,note_off,,,,,0,0,2,,,1,,,64,64
102912,note_off,,,,,192,0,1,,,0,,,73,64
102912,note_off,,,,,0,0,1,,,0,,,82,64
102912,note_off,,,,,192,0,2,,,1,,,67,64
102960,note_on,,,,,48,0,2,,,1,,,65,71
102960,note_on,,,,,0,0,1,,,0,,,81,71
102960,note_on,,,,,48,0,1,,,0,,,74,71
103056,note_off,,,,,96,0,2,,,1,,,65,64
103056,note_off,,,,,0,0,1,,,0,,,74,64
103056,note_off,,,,,96,0,1,,,0,,,81,64
103200,note_on,,,,,144,0,2,,,1,,,53,71
103200,note_on,,,,,0,0,2,,,1,,,50,71
103392,note_off,,,,,192,0,2,,,1,,,50,64
103392,note_off,,,,,0,0,2,,,1,,,53,64
103440,note_on,,,,,48,0,2,,,1,,,52,71
103440,note_on,,,,,0,0,2,,,1,,,55,71
103536,note_off,,,,,96,0,2,,,1,,,55,64
103536,note_off,,,,,0,0,2,,,1,,,52,64
103560,note_on,,,,,24,0,2,,,1,,,53,71
103560,note_on,,,,,0,0,2,,,1,,,57,71
103560,note_on,,,,,504,0,1,,,0,,,62,71
103656,note_off,,,,,0,0,2,,,1,,,53,64
103656,note_off,,,,,96,0,2,,,1,,,57,64
103656,note_off,,,,,96,0,1,,,0,,,62,64
103680,note_on,,,,,24,0,1,,,0,,,62,71
103680,note_on,,,,,24,0,2,,,1,,,58,71
103680,note_on,,,,,0,0,2,,,1,,,55,71
103776,note_off,,,,,0,0,2,,,1,,,58,64
103776,note_off,,,,,96,0,2,,,1,,,55,64
103872,note_off,,,,,192,0,1,,,0,,,62,64
103920,note_on,,,,,48,0,1,,,0,,,64,71
103920,note_on,,,,,0,0,2,,,1,,,53,71
103920,note_on,,,,,144,0,2,,,1,,,57,71
104016,note_off,,,,,0,0,2,,,1,,,57,64
104016,note_off,,,,,96,0,2,,,1,,,53,64
104016,note_off,,,,,96,0,1,,,0,,,64,64
104040,note_on,,,,,24,0,1,,,0,,,65,71
104136,note_off,,,,,96,0,1,,,0,,,65,64
104160,note_on,,,,,0,0,2,,,1,,,61,71
104160,note_on,,,,,144,0,2,,,1,,,57,71
104160,note_on,,,,,24,0,1,,,0,,,67,71
104352,note_off,,,,,0,0,2,,,1,,,57,64
104352,note_off,,,,,192,0,2,,,1,,,61,64
104352,note_off,,,,,192,0,1,,,0,,,67,64
104400,note_on,,,,,0,0,2,,,1,,,62,71
104400,note_on,,,,,48,0,2,,,1,,,59,71
104400,note_on,,,,,48,0,1,,,0,,,67,71
104496,note_off,,,,,96,0,2,,,1,,,62,64
104496,note_off,,,,,96,0,1,,,0,,,67,64
104496,note_off,,,,,0,0,2,,,1,,,59,64
104520,note_on,,,,,24,0,1,,,0,,,67,71
104520,note_on,,,,,0,0,2,,,1,,,61,71
104520,note_on,,,,,0,0,1,,,0,,,69,71
104520,note_on,,,,,24,0,2,,,1,,,64,71
104616,note_off,,,,,96,0,1,,,0,,,69,64
104616,note_off,,,,,96,0,2,,,1,,,61,64
104616,note_off,,,,,0,0,1,,,0,,,67,64
104616,note_off,,,,,0,0,2,,,1,,,64,64
104640,note_on,,,,,24,0,1,,,0,,,69,71
104640,note_on,,,,,24,0,2,,,1,,,62,71
104640,note_on,,,,,0,0,2,,,1,,,67,71
104832,note_off,,,,,192,0,1,,,0,,,69,64
104832,note_off,,,,,192,0,2,,,1,,,67,64
104880,note_on,,,,,48,0,1,,,0,,,71,71
104880,note_on,,,,,48,0,2,,,1,,,65,71
104976,note_off,,,,,0,0,2,,,1,,,65,64
104976,note_off,,,,,96,0,2,,,1,,,62,64
104976,note_off,,,,,96,0,1,,,0,,,71,64
105000,note_on,,,,,24,0,2,,,1,,,64,71
105000,note_on,,,,,24,0,1,,,0,,,73,71
105000,note_on,,,,,0,0,1,,,0,,,81,71
105000,note_on,,,,,0,0,2,,,1,,,57,71
105096,note_off,,,,,0,0,1,,,0,,,73,64
105096,note_off,,,,,96,0,2,,,1,,,57,64
105096,note_off,,,,,0,0,2,,,1,,,64,64
105096,note_off,,,,,96,0,1,,,0,,,81,64
105120,note_on,,,,,0,0,1,,,0,,,81,71
105120,note_on,,,,,24,0,2,,,1,,,62,71
105120,note_on,,,,,0,0,2,,,1,,,65,71
105120,note_on,,,,,24,0,1,,,0,,,74,71
105312,note_off,,,,,192,0,1,,,0,,,74,64
105312,note_off,,,,,192,0,2,,,1,,,65,64
105312,note_off,,,,,0,0,2,,,1,,,62,64
105360,note_on,,,,,48,0,2,,,1,,,57,71
105360,note_on,,,,,48,0,1,,,0,,,76,71
105360,note_on,,,,,0,0,2,,,1,,,64,71
105408,note_off,,,,,48,0,1,,,0,,,81,64
105456,note_off,,,,,0,0,2,,,1,,,57,64
105456,note_off,,,,,96,0,2,,,1,,,64,64
105456,note_off,,,,,48,0,1,,,0,,,76,64
105480,note_on,,,,,0,0,2,,,1,,,53,71
105480,note_on,,,,,0,0,1,,,0,,,81,71
105480,note_on,,,,,24,0,2,,,1,,,62,71
105480,note_on,,,,,24,0,1,,,0,,,77,71
105576,note_off,,,,,0,0,2,,,1,,,62,64
105576,note_off,,,,,96,0,2,,,1,,,53,64
105576,note_off,,,,,96,0,1,,,0,,,81,64
105576,note_off,,,,,0,0,1,,,0,,,77,64
105600,note_on,,,,,24,0,1,,,0,,,81,71
105600,note_on,,,,,24,0,2,,,1,,,61,71
105600,note_on,,,,,0,0,2,,,1,,,57,71
105600,note_on,,,,,0,0,1,,,0,,,79,71
105696,note_off,,,,,96,0,1,,,0,,,81,64
105720,note_on,,,,,24,0,1,,,0,,,80,71
105816,note_off,,,,,96,0,1,,,0,,,80,64
105840,note_on,,,,,24,0,1,,,0,,,82,71
105888,note_off,,,,,0,0,2,,,1,,,61,64
105888,note_off,,,,,288,0,2,,,1,,,57,64
105888,note_off,,,,,48,0,1,,,0,,,79,64
105936,note_off,,,,,48,0,1,,,0,,,82,64
105960,note_on,,,,,0,0,2,,,1,,,65,71
105960,note_on,,,,,24,0,1,,,0,,,77,71
105960,note_on,,,,,0,0,1,,,0,,,81,71
105960,note_on,,,,,72,0,2,,,1,,,62,71
106056,note_off,,,,,0,0,2,,,1,,,62,64
106056,note_off,,,,,96,0,2,,,1,,,65,64
106056,note_off,,,,,96,0,1,,,0,,,81,64
106056,note_off,,,,,0,0,1,,,0,,,77,64
106080,note_on,,,,,0,0,1,,,0,,,81,71
106080,note_on,,,,,24,0,1,,,0,,,77,71
106080,note_on,,,,,24,0,2,,,1,,,62,71
106080,note_on,,,,,0,0,2,,,1,,,65,71
106176,note_off,,,,,96,0,1,,,0,,,81,64
106200,note_on,,,,,24,0,1,,,0,,,80,71
106296,note_off,,,,,96,0,1,,,0,,,80,64
106320,note_on,,,,,24,0,1,,,0,,,82,71
106368,note_off,,,,,0,0,2,,,1,,,62,64
106368,note_off,,,,,288,0,2,,,1,,,65,64
106368,note_off,,,,,48,0,1,,,0,,,77,64
106416,note_off,,,,,48,0,1,,,0,,,82,64
106440,note_on,,,,,24,0,1,,,0,,,74,71
106440,note_on,,,,,0,0,2,,,1,,,65,71
106440,note_on,,,,,72,0,2,,,1,,,69,71
106440,note_on,,,,,0,0,1,,,0,,,81,71
106536,note_off,,,,,96,0,2,,,1,,,65,64
106536,note_off,,,,,96,0,1,,,0,,,81,64
106536,note_off,,,,,0,0,1,,,0,,,74,64
106536,note_off,,,,,0,0,2,,,1,,,69,64
106560,note_on,,,,,24,0,1,,,0,,,84,110
106560,note_on,,,,,0,0,1,,,0,,,69,71
106560,note_on,,,,,0,0,1,,,0,,,66,71
106560,note_on,,,,,0,0,1,,,0,,,75,71
106752,note_off,,,,,0,0,1,,,0,,,69,64
106752,note_off,,,,,192,0,1,,,0,,,75,64
106752,note_off,,,,,0,0,1,,,0,,,84,64
106752,note_off,,,,,0,0,1,,,0,,,66,64
106800,note_on,,,,,48,0,1,,,0,,,83,71
106800,note_on,,,,,0,0,1,,,0,,,76,71
106800,note_on,,,,,0,0,1,,,0,,,67,71
106896,note_off,,,,,96,0,1,,,0,,,76,64
106896,note_off,,,,,0,0,1,,,0,,,67,64
106896,note_off,,,,,0,0,1,,,0,,,83,64
107040,note_on,,,,,504,0,2,,,1,,,52,71
107040,note_on,,,,,0,0,2,,,1,,,55,71
107232,note_off,,,,,192,0,2,,,1,,,55,64
107232,note_off,,,,,0,0,2,,,1,,,52,64
107280,note_on,,,,,48,0,2,,,1,,,57,71
107280,note_on,,,,,0,0,2,,,1,,,54,71
107376,note_off,,,,,0,0,2,,,1,,,57,64
107376,note_off,,,,,96,0,2,,,1,,,54,64
107400,note_on,,,,,0,0,2,,,1,,,55,71
107400,note_on,,,,,24,0,2,,,1,,,59,71
107496,note_off,,,,,96,0,2,,,1,,,55,64
107496,note_off,,,,,0,0,2,,,1,,,59,64
107520,note_on,,,,,0,0,2,,,1,,,57,71
107520,note_on,,,,,0,0,1,,,0,,,78,71
107520,note_on,,,,,24,0,2,,,1,,,60,110
107520,note_on,,,,,624,0,1,,,0,,,88,110
107712,note_off,,,,,192,0,1,,,0,,,88,64
107760,note_on,,,,,48,0,1,,,0,,,87,71
107808,note_off,,,,,288,0,2,,,1,,,57,64
107808,note_off,,,,,0,0,2,,,1,,,60,64
107856,note_off,,,,,96,0,1,,,0,,,87,64
107856,note_off,,,,,0,0,1,,,0,,,78,64
108000,note_on,,,,,0,0,1,,,0,,,64,71
108000,note_on,,,,,144,0,1,,,0,,,55,71
108192,note_off,,,,,192,0,1,,,0,,,64,64
108192,note_off,,,,,0,0,1,,,0,,,55,64
108240,note_on,,,,,48,0,1,,,0,,,66,71
108240,note_on,,,,,0,0,1,,,0,,,57,71
108336,note_off,,,,,96,0,1,,,0,,,57,64
108336,note_off,,,,,0,0,1,,,0,,,66,64
108360,note_on,,,,,24,0,1,,,0,,,59,71
108360,note_on,,,,,0,0,1,,,0,,,67,71
108456,note_off,,,,,0,0,1,,,0,,,59,64
108456,note_off,,,,,96,0,1,,,0,,,67,64
108480,note_on,,,,,0,0,2,,,1,,,69,71
108480,note_on,,,,,672,0,2,,,1,,,63,110
108480,note_on,,,,,0,0,2,,,1,,,60,71
108480,note_on,,,,,24,0,1,,,0,,,81,110
108480,note_on,,,,,0,0,1,,,0,,,91,71
108672,note_off,,,,,192,0,2,,,1,,,69,64
108672,note_off,,,,,192,0,1,,,0,,,91,64
108672,note_off,,,,,0,0,1,,,0,,,81,64
108672,note_off,,,,,0,0,2,,,1,,,60,64
108672,note_off,,,,,0,0,2,,,1,,,63,64
108720,note_on,,,,,48,0,1,,,0,,,90,71
108833,note_off,,,,,113,0,1,,,0,,,90,64
108840,note_on,,,,,168,0,2,,,1,,,60,71
108840,note_on,,,,,0,0,2,,,1,,,63,71
108840,note_on,,,,,0,0,2,,,1,,,69,71
108936,note_off,,,,,96,0,2,,,1,,,69,64
108936,note_off,,,,,0,0,2,,,1,,,63,64
108936,note_off,,,,,0,0,2,,,1,,,60,64
108960,note_on,,,,,0,0,2,,,1,,,70,71
108960,note_on,,,,,0,0,2,,,1,,,64,71
108960,note_on,,,,,24,0,2,,,1,,,61,110
108960,note_on,,,,,127,0,1,,,0,,,93,110
108960,note_on,,,,,0,0,1,,,0,,,82,71
109152,note_off,,,,,192,0,1,,,0,,,82,64
109152,note_off,,,,,0,0,1,,,0,,,93,64
109200,note_on,,,,,48,0,1,,,0,,,91,71
109248,note_off,,,,,0,0,2,,,1,,,61,64
109248,note_off,,,,,0,0,2,,,1,,,70,64
109248,note_off,,,,,288,0,2,,,1,,,64,64
109296,note_off,,,,,96,0,1,,,0,,,91,64
109800,note_on,,,,,0,0,2,,,1,,,47,91
109800,note_on,,,,,552,0,2,,,1,,,51,91
109896,note_off,,,,,0,0,2,,,1,,,51,64
109896,note_off,,,,,96,0,2,,,1,,,47,64
109920,note_on,,,,,24,0,2,,,1,,,51,91
109920,note_on,,,,,0,0,2,,,1,,,47,91
110112,note_off,,,,,192,0,2,,,1,,,47,64
110112,note_off,,,,,0,0,2,,,1,,,51,64
110160,note_on,,,,,48,0,2,,,1,,,52,91
110160,note_on,,,,,0,0,2,,,1,,,49,91
110256,note_off,,,,,0,0,2,,,1,,,52,64
110256,note_off,,,,,96,0,2,,,1,,,49,64
110280,note_on,,,,,0,0,2,,,1,,,54,91
110280,note_on,,,,,24,0,2,,,1,,,51,91
110376,note_off,,,,,0,0,2,,,1,,,51,64
110376,note_off,,,,,96,0,2,,,1,,,54,64
110400,note_on,,,,,0,0,2,,,1,,,56,91
110400,note_on,,,,,24,0,2,,,1,,,52,91
110400,note_on,,,,,0,0,1,,,0,,,76,91
110400,note_on,,,,,1104,0,1,,,0,,,64,91
110592,note_off,,,,,0,0,1,,,0,,,64,64
110592,note_off,,,,,192,0,1,,,0,,,76,64
110625,note_off,,,,,225,0,2,,,1,,,56,64
110625,note_off,,,,,0,0,2,,,1,,,52,64
110640,note_on,,,,,48,0,1,,,0,,,75,91
110640,note_on,,,,,0,0,2,,,1,,,59,91
110640,note_on,,,,,15,0,2,,,1,,,56,91
110736,note_off,,,,,96,0,2,,,1,,,59,64
110736,note_off,,,,,0,0,2,,,1,,,56,64
110736,note_off,,,,,96,0,1,,,0,,,75,64
110760,note_on,,,,,24,0,1,,,0,,,73,91
110760,note_on,,,,,0,0,2,,,1,,,57,91
110760,note_on,,,,,24,0,2,,,1,,,61,91
110856,note_off,,,,,0,0,2,,,1,,,61,64
110856,note_off,,,,,96,0,2,,,1,,,57,64
110856,note_off,,,,,96,0,1,,,0,,,73,64
110880,note_on,,,,,24,0,2,,,1,,,63,91
110880,note_on,,,,,0,0,2,,,1,,,59,91
110880,note_on,,,,,24,0,1,,,0,,,81,91
110880,note_on,,,,,0,0,1,,,0,,,71,91
111072,note_off,,,,,192,0,1,,,0,,,71,64
111072,note_off,,,,,0,0,2,,,1,,,63,64
111072,note_off,,,,,192,0,2,,,1,,,59,64
111072,note_off,,,,,0,0,1,,,0,,,81,64
111120,note_on,,,,,0,0,1,,,0,,,61,91
111120,note_on,,,,,0,0,1,,,0,,,80,91
111120,note_on,,,,,48,0,1,,,0,,,64,91
111216,note_off,,,,,96,0,1,,,0,,,61,64
111216,note_off,,,,,0,0,1,,,0,,,80,64
111216,note_off,,,,,0,0,1,,,0,,,64,64
111240,note_on,,,,,24,0,1,,,0,,,63,91
111240,note_on,,,,,0,0,1,,,0,,,66,91
111240,note_on,,,,,0,0,1,,,0,,,78,91
111336,note_off,,,,,96,0,1,,,0,,,78,64
111336,note_off,,,,,0,0,1,,,0,,,66,64
111336,note_off,,,,,0,0,1,,,0,,,63,64
111360,note_on,,,,,288,0,2,,,1,,,68,91
111360,note_on,,,,,24,0,1,,,0,,,76,91
111360,note_on,,,,,0,0,2,,,1,,,64,91
111360,note_on,,,,,0,0,1,,,0,,,83,91
111552,note_off,,,,,192,0,1,,,0,,,83,64
111552,note_off,,,,,0,0,2,,,1,,,68,64
111552,note_off,,,,,192,0,2,,,1,,,64,64
111600,note_on,,,,,0,0,2,,,1,,,69,91
111600,note_on,,,,,48,0,2,,,1,,,66,91
111600,note_on,,,,,48,0,1,,,0,,,81,91
111696,note_off,,,,,96,0,1,,,0,,,81,64
111696,note_off,,,,,96,0,2,,,1,,,69,64
111696,note_off,,,,,0,0,2,,,1,,,66,64
111720,note_on,,,,,24,0,2,,,1,,,71,91
111720,note_on,,,,,0,0,2,,,1,,,68,91
111720,note_on,,,,,24,0,1,,,0,,,80,91
111744,note_off,,,,,24,0,1,,,0,,,76,64
111816,note_off,,,,,72,0,1,,,0,,,80,64
111816,note_off,,,,,96,0,2,,,1,,,68,64
111816,note_off,,,,,0,0,2,,,1,,,71,64
111840,note_on,,,,,24,0,1,,,0,,,78,104
111840,note_on,,,,,0,0,1,,,0,,,76,104
111840,note_on,,,,,0,0,2,,,1,,,72,104
111840,note_on,,,,,24,0,2,,,1,,,69,104
111936,note_off,,,,,0,0,2,,,1,,,69,64
111936,note_off,,,,,96,0,1,,,0,,,78,64
111936,note_off,,,,,96,0,2,,,1,,,72,64
111960,note_on,,,,,24,0,1,,,0,,,79,104
111960,note_on,,,,,24,0,2,,,1,,,70,104
111960,note_on,,,,,0,0,2,,,1,,,73,104
112032,note_off,,,,,72,0,1,,,0,,,76,64
112056,note_off,,,,,0,0,2,,,1,,,70,64
112056,note_off,,,,,96,0,2,,,1,,,73,64
112056,note_off,,,,,24,0,1,,,0,,,79,64
112080,note_on,,,,,0,0,2,,,1,,,70,104
112080,note_on,,,,,24,0,2,,,1,,,73,110
112080,note_on,,,,,0,0,1,,,0,,,76,104
112080,note_on,,,,,24,0,1,,,0,,,79,110
112272,note_off,,,,,0,0,2,,,1,,,73,64
112272,note_off,,,,,192,0,2,,,1,,,70,64
112272,note_off,,,,,0,0,1,,,0,,,79,64
112272,note_off,,,,,192,0,1,,,0,,,76,64
112320,note_on,,,,,0,0,2,,,1,,,70,104
112320,note_on,,,,,48,0,2,,,1,,,73,104
112320,note_on,,,,,0,0,1,,,0,,,76,104
112320,note_on,,,,,48,0,1,,,0,,,79,104
112416,note_off,,,,,96,0,1,,,0,,,79,64
112433,note_off,,,,,113,0,2,,,1,,,70,64
112433,note_off,,,,,0,0,2,,,1,,,73,64
112440,note_on,,,,,0,0,2,,,1,,,69,104
112440,note_on,,,,,7,0,2,,,1,,,72,104
112440,note_on,,,,,24,0,1,,,0,,,78,104
112512,note_off,,,,,72,0,1,,,0,,,76,64
112536,note_off,,,,,24,0,1,,,0,,,78,64
112536,note_off,,,,,0,0,2,,,1,,,72,64
112536,note_off,,,,,96,0,2,,,1,,,69,64
112560,note_on,,,,,24,0,2,,,1,,,69,104
112560,note_on,,,,,0,0,1,,,0,,,76,104
112560,note_on,,,,,0,0,2,,,1,,,72,104
112560,note_on,,,,,24,0,1,,,0,,,78,104
112656,note_off,,,,,0,0,2,,,1,,,69,64
112656,note_off,,,,,96,0,1,,,0,,,78,64
112656,note_off,,,,,96,0,2,,,1,,,72,64
112680,note_on,,,,,24,0,1,,,0,,,79,104
112680,note_on,,,,,0,0,2,,,1,,,70,104
112680,note_on,,,,,24,0,2,,,1,,,73,104
112752,note_off,,,,,72,0,1,,,0,,,76,64
112776,note_off,,,,,96,0,2,,,1,,,70,64
112776,note_off,,,,,0,0,2,,,1,,,73,64
112776,note_off,,,,,24,0,1,,,0,,,79,64
112800,note_on,,,,,0,0,1,,,0,,,76,104
112800,note_on,,,,,0,0,2,,,1,,,73,104
112800,note_on,,,,,24,0,2,,,1,,,70,104
112800,note_on,,,,,24,0,1,,,0,,,79,104
112896,note_off,,,,,0,0,2,,,1,,,70,64
112896,note_off,,,,,96,0,2,,,1,,,73,64
112896,note_off,,,,,96,0,1,,,0,,,79,64
112920,note_on,,,,,24,0,2,,,1,,,74,104
112920,note_on,,,,,0,0,2,,,1,,,71,104
112920,note_on,,,,,24,0,1,,,0,,,80,104
112992,note_off,,,,,72,0,1,,,0,,,76,64
113016,note_off,,,,,96,0,2,,,1,,,71,64
113016,note_off,,,,,24,0,1,,,0,,,80,64
113016,note_off,,,,,0,0,2,,,1,,,74,64
113040,note_on,,,,,24,0,2,,,1,,,71,104
113040,note_on,,,,,0,0,2,,,1,,,74,104
113040,note_on,,,,,24,0,1,,,0,,,80,104
113040,note_on,,,,,0,0,1,,,0,,,76,104
113376,note_off,,,,,0,0,2,,,1,,,74,64
113376,note_off,,,,,336,0,2,,,1,,,71,64
113376,note_off,,,,,336,0,1,,,0,,,80,64
113400,note_on,,,,,0,0,2,,,1,,,73,104
113400,note_on,,,,,24,0,2,,,1,,,70,104
113400,note_on,,,,,24,0,1,,,0,,,79,104
113472,note_off,,,,,72,0,1,,,0,,,76,64
113496,note_off,,,,,0,0,2,,,1,,,70,64
113496,note_off,,,,,96,0,2,,,1,,,73,64
113496,note_off,,,,,24,0,1,,,0,,,79,64
113520,note_on,,,,,24,0,1,,,0,,,79,104
113520,note_on,,,,,0,0,1,,,0,,,76,104
113520,note_on,,,,,24,0,2,,,1,,,70,104
113520,note_on,,,,,0,0,2,,,1,,,73,104
113616,note_off,,,,,96,0,1,,,0,,,79,64
113616,note_off,,,,,96,0,2,,,1,,,73,64
113616,note_off,,,,,0,0,2,,,1,,,70,64
113640,note_on,,,,,24,0,1,,,0,,,80,104
113640,note_on,,,,,0,0,2,,,1,,,71,104
113640,note_on,,,,,24,0,2,,,1,,,74,104
113712,note_off,,,,,72,0,1,,,0,,,76,64
113736,note_off,,,,,24,0,1,,,0,,,80,64
113736,note_off,,,,,96,0,2,,,1,,,71,64
113736,note_off,,,,,0,0,2,,,1,,,74,64
113760,note_on,,,,,24,0,1,,,0,,,80,104
113760,note_on,,,,,24,0,2,,,1,,,71,104
113760,note_on,,,,,0,0,2,,,1,,,74,104
113760,note_on,,,,,0,0,1,,,0,,,76,104
113856,note_off,,,,,96,0,1,,,0,,,80,64
113856,note_off,,,,,0,0,2,,,1,,,71,64
113856,note_off,,,,,96,0,2,,,1,,,74,64
113880,note_on,,,,,24,0,2,,,1,,,72,104
113880,note_on,,,,,24,0,1,,,0,,,81,104
113952,note_off,,,,,72,0,1,,,0,,,76,64
113976,note_off,,,,,24,0,1,,,0,,,81,64
113976,note_off,,,,,96,0,2,,,1,,,72,64
114000,note_on,,,,,24,0,2,,,1,,,72,104
114000,note_on,,,,,24,0,1,,,0,,,81,104
114000,note_on,,,,,0,0,1,,,0,,,76,104
114336,note_off,,,,,336,0,2,,,1,,,72,64
114336,note_off,,,,,336,0,1,,,0,,,76,64
114336,note_off,,,,,0,0,1,,,0,,,81,64
114360,note_on,,,,,24,0,1,,,0,,,82,104
114360,note_on,,,,,0,0,1,,,0,,,76,104
114360,note_on,,,,,24,0,2,,,1,,,73,104
114456,note_off,,,,,96,0,1,,,0,,,76,64
114456,note_off,,,,,0,0,1,,,0,,,82,64
114456,note_off,,,,,96,0,2,,,1,,,73,64
114480,note_on,,,,,24,0,2,,,1,,,73,104
114480,note_on,,,,,24,0,1,,,0,,,82,104
114480,note_on,,,,,0,0,1,,,0,,,76,104
114576,note_off,,,,,96,0,2,,,1,,,73,64
114576,note_off,,,,,96,0,1,,,0,,,76,64
114576,note_off,,,,,0,0,1,,,0,,,82,64
114600,note_on,,,,,24,0,2,,,1,,,70,104
114600,note_on,,,,,24,0,1,,,0,,,85,104
114600,note_on,,,,,0,0,1,,,0,,,79,104
114696,note_off,,,,,0,0,1,,,0,,,85,64
114696,note_off,,,,,96,0,2,,,1,,,70,64
114696,note_off,,,,,96,0,1,,,0,,,79,64
114720,note_on,,,,,24,0,1,,,0,,,85,104
114720,note_on,,,,,0,0,1,,,0,,,79,104
114720,note_on,,,,,24,0,2,,,1,,,70,104
114816,note_off,,,,,96,0,1,,,0,,,79,64
114816,note_off,,,,,96,0,2,,,1,,,70,64
114816,note_off,,,,,0,0,1,,,0,,,85,64
114840,note_on,,,,,24,0,2,,,1,,,67,104
114840,note_on,,,,,24,0,1,,,0,,,82,104
114840,note_on,,,,,0,0,1,,,0,,,88,104
114936,note_off,,,,,96,0,2,,,1,,,67,64
114936,note_off,,,,,96,0,1,,,0,,,88,64
114936,note_off,,,,,0,0,1,,,0,,,82,64
114960,note_on,,,,,24,0,1,,,0,,,88,104
114960,note_on,,,,,0,0,1,,,0,,,82,104
114960,note_on,,,,,24,0,2,,,1,,,67,104
115056,note_off,,,,,96,0,1,,,0,,,82,64
115056,note_off,,,,,0,0,1,,,0,,,88,64
115056,note_off,,,,,96,0,2,,,1,,,67,64
115080,note_on,,,,,24,0,1,,,0,,,91,104
115080,note_on,,,,,0,0,1,,,0,,,85,104
115080,note_on,,,,,24,0,2,,,1,,,58,104
115176,note_off,,,,,96,0,2,,,1,,,58,64
115176,note_off,,,,,96,0,1,,,0,,,85,64
115176,note_off,,,,,0,0,1,,,0,,,91,64
115200,note_on,,,,,0,0,1,,,0,,,87,104
115200,note_on,,,,,24,0,1,,,0,,,59,104
115200,note_on,,,,,0,0,1,,,0,,,90,104
115296,note_off,,,,,0,0,1,,,0,,,59,64
115296,note_off,,,,,96,0,1,,,0,,,90,64
115296,note_off,,,,,0,0,1,,,0,,,87,64
115320,note_on,,,,,144,0,2,,,1,,,47,104
115416,note_off,,,,,96,0,2,,,1,,,47,64
115440,note_on,,,,,0,0,2,,,1,,,48,104
115440,note_on,,,,,24,0,2,,,1,,,60,104
115560,note_on,,,,,264,0,1,,,0,,,66,104
115680,note_on,,,,,120,0,1,,,0,,,69,104
115680,note_on,,,,,0,0,1,,,0,,,78,104
115728,note_off,,,,,0,0,2,,,1,,,60,64
115728,note_off,,,,,288,0,2,,,1,,,48,64
115800,note_on,,,,,72,0,2,,,1,,,35,104
115896,note_off,,,,,96,0,2,,,1,,,35,64
115920,note_on,,,,,24,0,2,,,1,,,48,104
115920,note_on,,,,,0,0,2,,,1,,,36,104
115968,note_off,,,,,288,0,1,,,0,,,78,64
116040,note_on,,,,,72,0,1,,,0,,,76,104
116112,note_off,,,,,0,0,2,,,1,,,48,64
116112,note_off,,,,,192,0,2,,,1,,,36,64
116136,note_off,,,,,96,0,1,,,0,,,76,64
116160,note_on,,,,,24,0,1,,,0,,,75,104
116256,note_off,,,,,0,0,1,,,0,,,66,64
116256,note_off,,,,,0,0,1,,,0,,,75,64
116256,note_off,,,,,96,0,1,,,0,,,69,64
116280,note_on,,,,,168,0,2,,,1,,,47,104
116376,note_off,,,,,96,0,2,,,1,,,47,64
116400,note_on,,,,,24,0,2,,,1,,,60,104
116400,note_on,,,,,0,0,2,,,1,,,48,104
116520,note_on,,,,,264,0,1,,,0,,,78,104
116592,note_off,,,,,192,0,2,,,1,,,48,64
116592,note_off,,,,,0,0,2,,,1,,,60,64
116640,note_on,,,,,0,0,1,,,0,,,90,104
116640,note_on,,,,,120,0,1,,,0,,,81,104
116760,note_on,,,,,168,0,2,,,1,,,35,104
116856,note_off,,,,,96,0,2,,,1,,,35,64
116880,note_on,,,,,24,0,2,,,1,,,48,104
116880,note_on,,,,,0,0,2,,,1,,,36,104
116928,note_off,,,,,288,0,1,,,0,,,90,64
117000,note_on,,,,,72,0,1,,,0,,,88,104
117024,note_off,,,,,24,0,1,,,0,,,78,64
117024,note_off,,,,,0,0,1,,,0,,,81,64
117072,note_off,,,,,0,0,2,,,1,,,48,64
117072,note_off,,,,,192,0,2,,,1,,,36,64
117096,note_off,,,,,72,0,1,,,0,,,88,64
117120,note_on,,,,,0,0,2,,,1,,,47,104
117120,note_on,,,,,48,0,2,,,1,,,35,104
117120,note_on,,,,,0,0,1,,,0,,,81,104
117120,note_on,,,,,24,0,1,,,0,,,78,104
117120,note_on,,,,,0,0,1,,,0,,,87,104
117216,note_off,,,,,96,0,1,,,0,,,87,64
117216,note_off,,,,,0,0,1,,,0,,,81,64
117216,note_off,,,,,0,0,1,,,0,,,78,64
117216,note_off,,,,,96,0,2,,,1,,,47,64
117216,note_off,,,,,0,0,2,,,1,,,35,64
117360,note_on,,,,,0,0,2,,,1,,,51,104
117360,note_on,,,,,0,0,1,,,0,,,90,104
117360,note_on,,,,,144,0,1,,,0,,,81,104
117360,note_on,,,,,0,0,1,,,0,,,87,104
117360,note_on,,,,,144,0,2,,,1,,,59,104
117360,note_on,,,,,0,0,2,,,1,,,54,104
117360,note_on,,,,,0,0,2,,,1,,,47,104
117360,note_on,,,,,0,0,1,,,0,,,93,104
117456,note_off,,,,,96,0,1,,,0,,,93,64
117456,note_off,,,,,0,0,1,,,0,,,81,64
117456,note_off,,,,,0,0,1,,,0,,,90,64
117456,note_off,,,,,0,0,1,,,0,,,87,64
117456,note_off,,,,,96,0,2,,,1,,,47,64
117456,note_off,,,,,0,0,2,,,1,,,59,64
117456,note_off,,,,,0,0,2,,,1,,,54,64
117456,note_off,,,,,0,0,2,,,1,,,51,64
117840,note_on,,,,,384,0,1,,,0,,,66,104
118032,note_off,,,,,192,0,1,,,0,,,66,64
118080,note_on,,,,,48,0,1,,,0,,,69,104
118200,note_on,,,,,744,0,2,,,1,,,60,104
118296,note_off,,,,,96,0,2,,,1,,,60,64
118320,note_on,,,,,24,0,2,,,1,,,64,104
118416,note_off,,,,,96,0,2,,,1,,,64,64
118440,note_on,,,,,24,0,2,,,1,,,76,104
118536,note_off,,,,,96,0,2,,,1,,,76,64
118656,note_off,,,,,576,0,1,,,0,,,69,64
118800,note_on,,,,,144,0,1,,,0,,,66,104
118992,note_off,,,,,192,0,1,,,0,,,66,64
119040,note_on,,,,,48,0,1,,,0,,,69,104
119160,note_on,,,,,624,0,2,,,1,,,59,104
119256,note_off,,,,,96,0,2,,,1,,,59,64
119280,note_on,,,,,24,0,2,,,1,,,63,104
119376,note_off,,,,,96,0,2,,,1,,,63,64
119400,note_on,,,,,24,0,2,,,1,,,75,104
119496,note_off,,,,,96,0,2,,,1,,,75,64
119616,note_off,,,,,576,0,1,,,0,,,69,64
119760,note_on,,,,,144,0,1,,,0,,,66,71
119952,note_off,,,,,192,0,1,,,0,,,66,64
120000,note_on,,,,,48,0,1,,,0,,,69,71
120120,note_on,,,,,624,0,2,,,1,,,60,71
120216,note_off,,,,,96,0,2,,,1,,,60,64
120240,note_on,,,,,24,0,2,,,1,,,64,71
120336,note_off,,,,,96,0,2,,,1,,,64,64
120360,note_on,,,,,24,0,2,,,1,,,60,71
120384,note_off,,,,,384,0,1,,,0,,,69,64
120456,note_off,,,,,96,0,2,,,1,,,60,64
120480,note_on,,,,,96,0,1,,,0,,,71,71
120480,note_on,,,,,24,0,2,,,1,,,64,71
120576,note_off,,,,,96,0,2,,,1,,,64,64
120600,note_on,,,,,24,0,2,,,1,,,60,71
120696,note_off,,,,,96,0,2,,,1,,,60,64
120720,note_on,,,,,24,0,2,,,1,,,64,71
120768,note_off,,,,,288,0,1,,,0,,,71,64
120816,note_off,,,,,96,0,2,,,1,,,64,64
120840,note_on,,,,,24,0,2,,,1,,,69,71
120840,note_on,,,,,72,0,1,,,0,,,72,71
120936,note_off,,,,,96,0,2,,,1,,,69,64
120936,note_off,,,,,96,0,1,,,0,,,72,64
120960,note_on,,,,,24,0,1,,,0,,,72,71
121080,note_on,,,,,144,0,2,,,1,,,62,71
121176,note_off,,,,,96,0,2,,,1,,,62,64
121200,note_on,,,,,24,0,2,,,1,,,65,71
121296,note_off,,,,,96,0,2,,,1,,,65,64
121320,note_on,,,,,24,0,2,,,1,,,62,71
121344,note_off,,,,,384,0,1,,,0,,,72,64
121416,note_off,,,,,96,0,2,,,1,,,62,64
121440,note_on,,,,,96,0,1,,,0,,,71,71
121440,note_on,,,,,24,0,2,,,1,,,65,71
121536,note_off,,,,,96,0,2,,,1,,,65,64
121560,note_on,,,,,24,0,2,,,1,,,62,71
121632,note_off,,,,,192,0,1,,,0,,,71,64
121656,note_off,,,,,96,0,2,,,1,,,62,64
121680,note_on,,,,,24,0,2,,,1,,,65,71
121776,note_off,,,,,96,0,2,,,1,,,65,64
121800,note_on,,,,,24,0,2,,,1,,,69,71
121800,note_on,,,,,168,0,1,,,0,,,74,71
121896,note_off,,,,,96,0,1,,,0,,,74,64
121896,note_off,,,,,96,0,2,,,1,,,69,64
121920,note_on,,,,,24,0,1,,,0,,,77,71
122040,note_on,,,,,144,0,2,,,1,,,52,71
122136,note_off,,,,,96,0,2,,,1,,,52,64
122160,note_on,,,,,24,0,2,,,1,,,56,71
122256,note_off,,,,,96,0,2,,,1,,,56,64
122280,note_on,,,,,24,0,2,,,1,,,52,71
122304,note_off,,,,,384,0,1,,,0,,,77,64
122376,note_off,,,,,96,0,2,,,1,,,52,64
122400,note_on,,,,,24,0,2,,,1,,,56,71
122400,note_on,,,,,96,0,1,,,0,,,76,71
122496,note_off,,,,,96,0,2,,,1,,,56,64
122520,note_on,,,,,24,0,2,,,1,,,52,71
122616,note_off,,,,,96,0,2,,,1,,,52,64
122640,note_on,,,,,24,0,2,,,1,,,56,71
122688,note_off,,,,,288,0,1,,,0,,,76,64
122736,note_off,,,,,96,0,2,,,1,,,56,64
122760,note_on,,,,,72,0,1,,,0,,,71,71
122760,note_on,,,,,24,0,2,,,1,,,62,71
122856,note_off,,,,,96,0,1,,,0,,,71,64
122856,note_off,,,,,96,0,2,,,1,,,62,64
122880,note_on,,,,,24,0,1,,,0,,,74,71
123000,note_on,,,,,144,0,2,,,1,,,57,71
123096,note_off,,,,,96,0,2,,,1,,,57,64
123120,note_on,,,,,24,0,2,,,1,,,64,71
123216,note_off,,,,,96,0,2,,,1,,,64,64
123240,note_on,,,,,24,0,2,,,1,,,57,71
123264,note_off,,,,,384,0,1,,,0,,,74,64
123336,note_off,,,,,96,0,2,,,1,,,57,64
123360,note_on,,,,,96,0,1,,,0,,,72,71
123360,note_on,,,,,24,0,2,,,1,,,64,71
123456,note_off,,,,,96,0,2,,,1,,,64,64
123480,note_on,,,,,24,0,2,,,1,,,57,71
123552,note_off,,,,,192,0,1,,,0,,,72,64
123576,note_off,,,,,96,0,2,,,1,,,57,64
123600,note_on,,,,,24,0,2,,,1,,,64,71
123696,note_off,,,,,96,0,2,,,1,,,64,64
123720,note_on,,,,,24,0,2,,,1,,,69,71
123816,note_off,,,,,96,0,2,,,1,,,69,64
123840,note_on,,,,,288,0,1,,,0,,,72,71
123960,note_on,,,,,144,0,2,,,1,,,45,71
124056,note_off,,,,,96,0,2,,,1,,,45,64
124080,note_on,,,,,24,0,2,,,1,,,52,71
124176,note_off,,,,,96,0,2,,,1,,,52,64
124200,note_on,,,,,24,0,2,,,1,,,45,71
124224,note_off,,,,,384,0,1,,,0,,,72,64
124296,note_off,,,,,96,0,2,,,1,,,45,64
124320,note_on,,,,,0,0,1,,,0,,,72,71
124320,note_on,,,,,96,0,1,,,0,,,72,71
124320,note_on,,,,,24,0,2,,,1,,,52,71
124416,note_off,,,,,96,0,2,,,1,,,52,64
124440,note_on,,,,,24,0,2,,,1,,,45,71
124536,note_off,,,,,96,0,2,,,1,,,45,64
124560,note_on,,,,,24,0,2,,,1,,,52,71
124608,note_off,,,,,288,0,1,,,0,,,72,64
124656,note_off,,,,,96,0,2,,,1,,,52,64
124680,note_on,,,,,24,0,2,,,1,,,54,71
124680,note_on,,,,,72,0,1,,,0,,,74,71
124704,note_off,,,,,24,0,1,,,0,,,72,64
124776,note_off,,,,,96,0,2,,,1,,,54,64
124776,note_off,,,,,72,0,1,,,0,,,74,64
124800,note_on,,,,,0,0,1,,,0,,,76,71
124800,note_on,,,,,24,0,1,,,0,,,72,71
124920,note_on,,,,,144,0,2,,,1,,,43,71
124992,note_off,,,,,0,0,1,,,0,,,72,64
124992,note_off,,,,,192,0,1,,,0,,,76,64
125016,note_off,,,,,96,0,2,,,1,,,43,64
125040,note_on,,,,,24,0,2,,,1,,,52,71
125136,note_off,,,,,96,0,2,,,1,,,52,64
125160,note_on,,,,,24,0,2,,,1,,,55,81
125256,note_off,,,,,96,0,2,,,1,,,55,64
125280,note_on,,,,,288,0,1,,,0,,,76,81
125280,note_on,,,,,0,0,1,,,0,,,79,81
125280,note_on,,,,,24,0,2,,,1,,,60,81
125376,note_off,,,,,96,0,2,,,1,,,60,64
125400,note_on,,,,,24,0,2,,,1,,,55,81
125496,note_off,,,,,96,0,2,,,1,,,55,64
125520,note_on,,,,,24,0,2,,,1,,,52,81
125616,note_off,,,,,96,0,2,,,1,,,52,64
125640,note_on,,,,,24,0,2,,,1,,,48,81
125736,note_off,,,,,96,0,2,,,1,,,48,64
125760,note_on,,,,,24,0,2,,,1,,,42,81
125856,note_off,,,,,96,0,2,,,1,,,42,64
125880,note_on,,,,,24,0,2,,,1,,,47,81
125952,note_off,,,,,672,0,1,,,0,,,79,64
125952,note_off,,,,,0,0,1,,,0,,,76,64
125976,note_off,,,,,96,0,2,,,1,,,47,64
126000,note_on,,,,,24,0,2,,,1,,,52,81
126096,note_off,,,,,96,0,2,,,1,,,52,64
126120,note_on,,,,,24,0,2,,,1,,,55,91
126216,note_off,,,,,96,0,2,,,1,,,55,64
126240,note_on,,,,,24,0,2,,,1,,,40,91
126240,note_on,,,,,0,0,1,,,0,,,83,91
126240,note_on,,,,,288,0,1,,,0,,,79,91
126336,note_off,,,,,96,0,2,,,1,,,40,64
126360,note_on,,,,,24,0,2,,,1,,,47,91
126456,note_off,,,,,96,0,2,,,1,,,47,64
126480,note_on,,,,,24,0,2,,,1,,,52,91
126576,note_off,,,,,96,0,2,,,1,,,52,64
126600,note_on,,,,,24,0,2,,,1,,,55,91
126696,note_off,,,,,96,0,2,,,1,,,55,64
126720,note_on,,,,,24,0,2,,,1,,,35,91
126816,note_off,,,,,96,0,2,,,1,,,35,64
126840,note_on,,,,,24,0,2,,,1,,,47,91
126912,note_off,,,,,0,0,1,,,0,,,83,64
126912,note_off,,,,,672,0,1,,,0,,,79,64
126936,note_off,,,,,96,0,2,,,1,,,47,64
126960,note_on,,,,,24,0,2,,,1,,,50,91
127056,note_off,,,,,96,0,2,,,1,,,50,64
127080,note_on,,,,,24,0,2,,,1,,,55,91
127176,note_off,,,,,96,0,2,,,1,,,55,64
127200,note_on,,,,,24,0,2,,,1,,,67,104
127200,note_on,,,,,0,0,1,,,0,,,86,104
127200,note_on,,,,,288,0,1,,,0,,,79,104
127200,note_on,,,,,0,0,1,,,0,,,74,104
127296,note_off,,,,,96,0,2,,,1,,,67,64
127320,note_on,,,,,24,0,2,,,1,,,62,104
127416,note_off,,,,,96,0,2,,,1,,,62,64
127440,note_on,,,,,24,0,2,,,1,,,59,104
127536,note_off,,,,,96,0,2,,,1,,,59,64
127560,note_on,,,,,24,0,2,,,1,,,55,104
127656,note_off,,,,,96,0,2,,,1,,,55,64
127680,note_on,,,,,24,0,2,,,1,,,47,104
127776,note_off,,,,,96,0,2,,,1,,,47,64
127800,note_on,,,,,24,0,2,,,1,,,50,104
127896,note_off,,,,,96,0,2,,,1,,,50,64
127920,note_on,,,,,24,0,2,,,1,,,55,104
127968,note_off,,,,,0,0,1,,,0,,,79,64
127968,note_off,,,,,768,0,1,,,0,,,74,64
127968,note_off,,,,,0,0,1,,,0,,,86,64
128016,note_off,,,,,96,0,2,,,1,,,55,64
128040,note_on,,,,,24,0,2,,,1,,,62,104
128040,note_on,,,,,72,0,1,,,0,,,83,104
128136,note_off,,,,,96,0,2,,,1,,,62,64
128136,note_off,,,,,96,0,1,,,0,,,83,64
128160,note_on,,,,,24,0,1,,,0,,,84,104
128160,note_on,,,,,0,0,1,,,0,,,78,104
128280,note_on,,,,,144,0,2,,,1,,,51,104
128376,note_off,,,,,96,0,2,,,1,,,51,64
128400,note_on,,,,,24,0,2,,,1,,,57,104
128448,note_off,,,,,288,0,1,,,0,,,84,64
128496,note_off,,,,,96,0,2,,,1,,,57,64
128520,note_on,,,,,24,0,2,,,1,,,60,104
128520,note_on,,,,,72,0,1,,,0,,,81,104
128544,note_off,,,,,24,0,1,,,0,,,78,64
128616,note_off,,,,,96,0,2,,,1,,,60,64
128616,note_off,,,,,72,0,1,,,0,,,81,64
128640,note_on,,,,,24,0,1,,,0,,,79,91
128760,note_on,,,,,144,0,2,,,1,,,52,104
128856,note_off,,,,,96,0,2,,,1,,,52,64
128880,note_on,,,,,24,0,2,,,1,,,55,104
128976,note_off,,,,,96,0,2,,,1,,,55,64
129000,note_on,,,,,24,0,2,,,1,,,60,104
129024,note_off,,,,,384,0,1,,,0,,,79,64
129096,note_off,,,,,96,0,2,,,1,,,60,64
129120,note_on,,,,,96,0,1,,,0,,,72,91
129120,note_on,,,,,0,0,1,,,0,,,81,91
129240,note_on,,,,,144,0,2,,,1,,,53,104
129336,note_off,,,,,96,0,2,,,1,,,53,64
129360,note_on,,,,,24,0,2,,,1,,,57,104
129408,note_off,,,,,288,0,1,,,0,,,81,64
129456,note_off,,,,,96,0,2,,,1,,,57,64
129480,note_on,,,,,72,0,1,,,0,,,77,91
129480,note_on,,,,,24,0,2,,,1,,,60,104
129504,note_off,,,,,24,0,1,,,0,,,72,64
129576,note_off,,,,,96,0,2,,,1,,,60,64
129576,note_off,,,,,72,0,1,,,0,,,77,64
129600,note_on,,,,,0,0,1,,,0,,,76,81
129600,note_on,,,,,24,0,1,,,0,,,72,81
129720,note_on,,,,,144,0,2,,,1,,,55,81
129816,note_off,,,,,96,0,2,,,1,,,55,64
129840,note_on,,,,,24,0,2,,,1,,,60,81
129936,note_off,,,,,96,0,2,,,1,,,60,64
129960,note_on,,,,,24,0,2,,,1,,,64,81
129984,note_off,,,,,384,0,1,,,0,,,76,64
129984,note_off,,,,,0,0,1,,,0,,,72,64
130056,note_off,,,,,96,0,2,,,1,,,64,64
130080,note_on,,,,,24,0,2,,,1,,,56,81
130080,note_on,,,,,0,0,2,,,1,,,56,81
130080,note_on,,,,,0,0,1,,,0,,,77,81
130080,note_on,,,,,96,0,1,,,0,,,71,81
130176,note_off,,,,,96,0,2,,,1,,,56,64
130200,note_on,,,,,24,0,2,,,1,,,62,81
130296,note_off,,,,,96,0,2,,,1,,,62,64
130320,note_on,,,,,24,0,2,,,1,,,65,81
130416,note_off,,,,,96,0,2,,,1,,,65,64
130440,note_on,,,,,24,0,2,,,1,,,68,81
130464,note_off,,,,,24,0,2,,,1,,,56,64
130464,note_off,,,,,384,0,1,,,0,,,71,64
130536,note_off,,,,,72,0,2,,,1,,,68,64
130560,note_on,,,,,0,0,2,,,1,,,57,81
130560,note_on,,,,,24,0,2,,,1,,,57,81
130560,note_on,,,,,96,0,1,,,0,,,72,81
130656,note_off,,,,,96,0,2,,,1,,,57,64
130680,note_on,,,,,24,0,2,,,1,,,60,81
130776,note_off,,,,,96,0,2,,,1,,,60,64
130800,note_on,,,,,24,0,2,,,1,,,65,81
130848,note_off,,,,,288,0,1,,,0,,,77,64
130896,note_off,,,,,96,0,2,,,1,,,65,64
130920,note_on,,,,,24,0,2,,,1,,,69,81
130920,note_on,,,,,72,0,1,,,0,,,76,81
130944,note_off,,,,,24,0,2,,,1,,,57,64
130944,note_off,,,,,24,0,1,,,0,,,72,64
131016,note_off,,,,,72,0,2,,,1,,,69,64
131016,note_off,,,,,72,0,1,,,0,,,76,64
131040,note_on,,,,,0,0,2,,,1,,,59,81
131040,note_on,,,,,24,0,2,,,1,,,59,81
131040,note_on,,,,,0,0,1,,,0,,,78,81
131040,note_on,,,,,24,0,1,,,0,,,69,81
131136,note_off,,,,,96,0,2,,,1,,,59,64
131160,note_on,,,,,24,0,2,,,1,,,63,81
131256,note_off,,,,,96,0,2,,,1,,,63,64
131280,note_on,,,,,24,0,2,,,1,,,66,81
131328,note_off,,,,,288,0,1,,,0,,,78,64
131376,note_off,,,,,96,0,2,,,1,,,66,64
131400,note_on,,,,,24,0,2,,,1,,,71,81
131400,note_on,,,,,72,0,1,,,0,,,75,81
131424,note_off,,,,,24,0,1,,,0,,,69,64
131424,note_off,,,,,24,0,2,,,1,,,59,64
131496,note_off,,,,,72,0,1,,,0,,,75,64
131496,note_off,,,,,72,0,2,,,1,,,71,64
131520,note_on,,,,,0,0,1,,,0,,,84,58
131520,note_on,,,,,24,0,1,,,0,,,88,58
131520,note_on,,,,,24,0,2,,,1,,,64,81
131520,note_on,,,,,0,0,1,,,0,,,76,58
131616,note_off,,,,,96,0,2,,,1,,,64,64
131640,note_on,,,,,24,0,2,,,1,,,52,81
131736,note_off,,,,,96,0,2,,,1,,,52,64
131760,note_on,,,,,24,0,2,,,1,,,64,81
131856,note_off,,,,,96,0,2,,,1,,,64,64
131880,note_on,,,,,24,0,2,,,1,,,52,81
131904,note_off,,,,,0,0,1,,,0,,,88,64
131904,note_off,,,,,384,0,1,,,0,,,84,64
131976,note_off,,,,,96,0,2,,,1,,,52,64
132000,note_on,,,,,0,0,2,,,1,,,62,81
132000,note_on,,,,,24,0,2,,,1,,,59,81
132000,note_on,,,,,0,0,1,,,0,,,86,58
132000,note_on,,,,,96,0,1,,,0,,,83,58
132096,note_off,,,,,96,0,2,,,1,,,62,64
132096,note_off,,,,,0,0,2,,,1,,,59,64
132120,note_on,,,,,24,0,2,,,1,,,52,81
132192,note_off,,,,,0,0,1,,,0,,,83,64
132192,note_off,,,,,192,0,1,,,0,,,86,64
132216,note_off,,,,,96,0,2,,,1,,,52,64
132240,note_on,,,,,0,0,1,,,0,,,84,58
132240,note_on,,,,,48,0,1,,,0,,,88,58
132240,note_on,,,,,0,0,2,,,1,,,64,81
132240,note_on,,,,,24,0,2,,,1,,,60,81
132288,note_off,,,,,48,0,1,,,0,,,76,64
132336,note_off,,,,,96,0,2,,,1,,,64,64
132336,note_off,,,,,0,0,2,,,1,,,60,64
132360,note_on,,,,,24,0,2,,,1,,,52,81
132432,note_off,,,,,144,0,1,,,0,,,84,64
132432,note_off,,,,,0,0,1,,,0,,,88,64
132456,note_off,,,,,96,0,2,,,1,,,52,64
132480,note_on,,,,,0,0,1,,,0,,,76,58
132480,note_on,,,,,0,0,1,,,0,,,86,58
132480,note_on,,,,,0,0,2,,,1,,,65,81
132480,note_on,,,,,24,0,2,,,1,,,62,81
132480,note_on,,,,,48,0,1,,,0,,,89,58
132576,note_off,,,,,0,0,2,,,1,,,62,64
132576,note_off,,,,,96,0,2,,,1,,,65,64
132600,note_on,,,,,24,0,2,,,1,,,52,81
132696,note_off,,,,,96,0,2,,,1,,,52,64
132720,note_on,,,,,24,0,2,,,1,,,62,81
132720,note_on,,,,,0,0,2,,,1,,,59,81
132768,note_off,,,,,288,0,1,,,0,,,86,64
132768,note_off,,,,,0,0,1,,,0,,,89,64
132816,note_off,,,,,0,0,2,,,1,,,62,64
132816,note_off,,,,,96,0,2,,,1,,,59,64
132840,note_on,,,,,72,0,1,,,0,,,83,58
132840,note_on,,,,,0,0,1,,,0,,,86,58
132840,note_on,,,,,24,0,2,,,1,,,52,81
132936,note_off,,,,,96,0,2,,,1,,,52,64
132936,note_off,,,,,0,0,1,,,0,,,83,64
132936,note_off,,,,,96,0,1,,,0,,,86,64
132960,note_on,,,,,24,0,2,,,1,,,59,81
132960,note_on,,,,,0,0,2,,,1,,,56,81
132960,note_on,,,,,0,0,1,,,0,,,83,58
132960,note_on,,,,,24,0,1,,,0,,,80,58
133056,note_off,,,,,96,0,2,,,1,,,56,64
133056,note_off,,,,,0,0,2,,,1,,,59,64
133080,note_on,,,,,24,0,2,,,1,,,52,81
133152,note_off,,,,,192,0,1,,,0,,,83,64
133152,note_off,,,,,0,0,1,,,0,,,80,64
133176,note_off,,,,,96,0,2,,,1,,,52,64
133200,note_on,,,,,0,0,1,,,0,,,84,58
133200,note_on,,,,,48,0,1,,,0,,,81,58
133200,note_on,,,,,0,0,2,,,1,,,57,81
133200,note_on,,,,,24,0,2,,,1,,,60,81
133248,note_off,,,,,48,0,1,,,0,,,76,64
133296,note_off,,,,,0,0,2,,,1,,,60,64
133296,note_off,,,,,96,0,2,,,1,,,57,64
133320,note_on,,,,,24,0,2,,,1,,,52,81
133392,note_off,,,,,144,0,1,,,0,,,84,64
133392,note_off,,,,,0,0,1,,,0,,,81,64
133416,note_off,,,,,96,0,2,,,1,,,52,64
133440,note_on,,,,,0,0,2,,,1,,,62,81
133440,note_on,,,,,0,0,1,,,0,,,76,58
133440,note_on,,,,,24,0,2,,,1,,,59,81
133440,note_on,,,,,0,0,1,,,0,,,86,58
133440,note_on,,,,,48,0,1,,,0,,,83,58
133536,note_off,,,,,0,0,2,,,1,,,59,64
133536,note_off,,,,,96,0,2,,,1,,,62,64
133560,note_on,,,,,24,0,2,,,1,,,52,81
133632,note_off,,,,,192,0,1,,,0,,,86,64
133632,note_off,,,,,0,0,1,,,0,,,83,64
133656,note_off,,,,,96,0,2,,,1,,,52,64
133680,note_on,,,,,24,0,2,,,1,,,60,81
133680,note_on,,,,,0,0,2,,,1,,,57,81
133680,note_on,,,,,48,0,1,,,0,,,81,58
133680,note_on,,,,,0,0,1,,,0,,,84,58
133776,note_off,,,,,96,0,2,,,1,,,57,64
133776,note_off,,,,,0,0,2,,,1,,,60,64
133800,note_on,,,,,24,0,2,,,1,,,52,81
133872,note_off,,,,,192,0,1,,,0,,,84,64
133872,note_off,,,,,0,0,1,,,0,,,81,64
133896,note_off,,,,,96,0,2,,,1,,,52,64
133920,note_on,,,,,0,0,1,,,0,,,79,58
133920,note_on,,,,,48,0,1,,,0,,,83,58
133920,note_on,,,,,0,0,2,,,1,,,55,81
133920,note_on,,,,,24,0,2,,,1,,,59,81
134016,note_off,,,,,96,0,2,,,1,,,55,64
134016,note_off,,,,,0,0,2,,,1,,,59,64
134040,note_on,,,,,24,0,2,,,1,,,52,81
134112,note_off,,,,,0,0,1,,,0,,,83,64
134112,note_off,,,,,192,0,1,,,0,,,79,64
134136,note_off,,,,,96,0,2,,,1,,,52,64
134160,note_on,,,,,0,0,1,,,0,,,77,58
134160,note_on,,,,,24,0,2,,,1,,,57,81
134160,note_on,,,,,0,0,2,,,1,,,53,81
134160,note_on,,,,,48,0,1,,,0,,,81,58
134208,note_off,,,,,48,0,1,,,0,,,76,64
134256,note_off,,,,,0,0,2,,,1,,,57,64
134256,note_off,,,,,96,0,2,,,1,,,53,64
134280,note_on,,,,,24,0,2,,,1,,,52,81
134352,note_off,,,,,144,0,1,,,0,,,77,64
134352,note_off,,,,,0,0,1,,,0,,,81,64
134376,note_off,,,,,96,0,2,,,1,,,52,64
134400,note_on,,,,,24,0,2,,,1,,,56,81
134400,note_on,,,,,48,0,1,,,0,,,76,58
134400,note_on,,,,,0,0,1,,,0,,,80,58
134400,note_on,,,,,0,0,1,,,0,,,76,58
134496,note_off,,,,,96,0,2,,,1,,,56,64
134520,note_on,,,,,24,0,2,,,1,,,52,81
134616,note_off,,,,,96,0,2,,,1,,,52,64
134640,note_on,,,,,24,0,2,,,1,,,57,81
134640,note_on,,,,,0,0,2,,,1,,,54,81
134688,note_off,,,,,0,0,1,,,0,,,76,64
134688,note_off,,,,,288,0,1,,,0,,,80,64
134736,note_off,,,,,0,0,2,,,1,,,57,64
134736,note_off,,,,,96,0,2,,,1,,,54,64
134760,note_on,,,,,0,0,1,,,0,,,81,58
134760,note_on,,,,,72,0,1,,,0,,,78,58
134760,note_on,,,,,24,0,2,,,1,,,52,81
134856,note_off,,,,,96,0,2,,,1,,,52,64
134856,note_off,,,,,0,0,1,,,0,,,78,64
134856,note_off,,,,,96,0,1,,,0,,,81,64
134880,note_on,,,,,24,0,2,,,1,,,56,81
134880,note_on,,,,,0,0,2,,,1,,,59,81
134880,note_on,,,,,0,0,1,,,0,,,83,58
134880,note_on,,,,,24,0,1,,,0,,,80,58
134976,note_off,,,,,0,0,2,,,1,,,56,64
134976,note_off,,,,,96,0,2,,,1,,,59,64
134976,note_off,,,,,96,0,1,,,0,,,76,64
135000,note_on,,,,,24,0,2,,,1,,,52,81
135072,note_off,,,,,0,0,1,,,0,,,80,64
135072,note_off,,,,,96,0,1,,,0,,,83,64
135096,note_off,,,,,96,0,2,,,1,,,52,64
135120,note_on,,,,,24,0,2,,,1,,,56,81
135120,note_on,,,,,48,0,1,,,0,,,76,58
135216,note_off,,,,,96,0,2,,,1,,,56,64
135240,note_on,,,,,24,0,2,,,1,,,52,81
135336,note_off,,,,,96,0,2,,,1,,,52,64
135360,note_on,,,,,0,0,2,,,1,,,64,81
135360,note_on,,,,,24,0,2,,,1,,,60,81
135360,note_on,,,,,240,0,1,,,0,,,84,58
135360,note_on,,,,,0,0,1,,,0,,,88,58
135456,note_off,,,,,96,0,2,,,1,,,64,64
135456,note_off,,,,,0,0,2,,,1,,,60,64
135480,note_on,,,,,24,0,2,,,1,,,52,81
135576,note_off,,,,,96,0,2,,,1,,,52,64
135600,note_on,,,,,24,0,2,,,1,,,64,81
135600,note_on,,,,,0,0,2,,,1,,,60,81
135696,note_off,,,,,96,0,2,,,1,,,60,64
135696,note_off,,,,,0,0,2,,,1,,,64,64
135720,note_on,,,,,24,0,2,,,1,,,52,81
135744,note_off,,,,,384,0,1,,,0,,,88,64
135744,note_off,,,,,0,0,1,,,0,,,84,64
135816,note_off,,,,,96,0,2,,,1,,,52,64
135840,note_on,,,,,24,0,2,,,1,,,59,81
135840,note_on,,,,,0,0,2,,,1,,,62,81
135840,note_on,,,,,0,0,1,,,0,,,86,58
135840,note_on,,,,,96,0,1,,,0,,,83,58
135936,note_off,,,,,96,0,2,,,1,,,62,64
135936,note_off,,,,,0,0,2,,,1,,,59,64
135960,note_on,,,,,24,0,2,,,1,,,52,81
136032,note_off,,,,,192,0,1,,,0,,,86,64
136032,note_off,,,,,0,0,1,,,0,,,83,64
136056,note_off,,,,,96,0,2,,,1,,,52,64
136080,note_on,,,,,48,0,1,,,0,,,84,58
136080,note_on,,,,,0,0,1,,,0,,,88,58
136080,note_on,,,,,24,0,2,,,1,,,64,81
136080,note_on,,,,,0,0,2,,,1,,,60,81
136128,note_off,,,,,48,0,1,,,0,,,76,64
136176,note_off,,,,,0,0,2,,,1,,,64,64
136176,note_off,,,,,96,0,2,,,1,,,60,64
136200,note_on,,,,,24,0,2,,,1,,,52,81
136272,note_off,,,,,0,0,1,,,0,,,84,64
136272,note_off,,,,,144,0,1,,,0,,,88,64
136296,note_off,,,,,96,0,2,,,1,,,52,64
136320,note_on,,,,,24,0,2,,,1,,,67,81
136320,note_on,,,,,0,0,2,,,1,,,64,81
136320,note_on,,,,,0,0,1,,,0,,,76,58
136320,note_on,,,,,48,0,1,,,0,,,88,58
136320,note_on,,,,,0,0,1,,,0,,,91,58
136416,note_off,,,,,0,0,2,,,1,,,67,64
136416,note_off,,,,,96,0,2,,,1,,,64,64
136440,note_on,,,,,24,0,2,,,1,,,52,81
136536,note_off,,,,,96,0,2,,,1,,,52,64
136560,note_on,,,,,24,0,2,,,1,,,62,81
136560,note_on,,,,,0,0,2,,,1,,,65,81
136608,note_off,,,,,0,0,1,,,0,,,88,64
136608,note_off,,,,,288,0,1,,,0,,,91,64
136656,note_off,,,,,96,0,2,,,1,,,65,64
136656,note_off,,,,,0,0,2,,,1,,,62,64
136680,note_on,,,,,24,0,2,,,1,,,52,81
136680,note_on,,,,,0,0,1,,,0,,,89,58
136680,note_on,,,,,72,0,1,,,0,,,86,58
136776,note_off,,,,,96,0,1,,,0,,,89,64
136776,note_off,,,,,96,0,2,,,1,,,52,64
136776,note_off,,,,,0,0,1,,,0,,,86,64
136800,note_on,,,,,24,0,2,,,1,,,62,81
136800,note_on,,,,,0,0,1,,,0,,,83,58
136800,note_on,,,,,24,0,1,,,0,,,86,58
136800,note_on,,,,,0,0,2,,,1,,,59,81
136896,note_off,,,,,0,0,2,,,1,,,62,64
136896,note_off,,,,,96,0,2,,,1,,,59,64
136920,note_on,,,,,24,0,2,,,1,,,52,81
136992,note_off,,,,,192,0,1,,,0,,,83,64
136992,note_off,,,,,0,0,1,,,0,,,86,64
137016,note_off,,,,,96,0,2,,,1,,,52,64
137040,note_on,,,,,0,0,2,,,1,,,62,81
137040,note_on,,,,,0,0,1,,,0,,,86,58
137040,note_on,,,,,48,0,1,,,0,,,89,58
137040,note_on,,,,,24,0,2,,,1,,,65,81
137088,note_off,,,,,48,0,1,,,0,,,76,64
137136,note_off,,,,,0,0,2,,,1,,,65,64
137136,note_off,,,,,96,0,2,,,1,,,62,64
137160,note_on,,,,,24,0,2,,,1,,,52,81
137232,note_off,,,,,0,0,1,,,0,,,89,64
137232,note_off,,,,,144,0,1,,,0,,,86,64
137256,note_off,,,,,96,0,2,,,1,,,52,64
137280,note_on,,,,,0,0,2,,,1,,,64,81
137280,note_on,,,,,24,0,2,,,1,,,60,81
137280,note_on,,,,,48,0,1,,,0,,,84,58
137280,note_on,,,,,0,0,1,,,0,,,88,58
137280,note_on,,,,,0,0,1,,,0,,,76,58
137376,note_off,,,,,96,0,2,,,1,,,64,64
137376,note_off,,,,,0,0,2,,,1,,,60,64
137400,note_on,,,,,24,0,2,,,1,,,52,81
137472,note_off,,,,,192,0,1,,,0,,,88,64
137472,note_off,,,,,0,0,1,,,0,,,84,64
137496,note_off,,,,,96,0,2,,,1,,,52,64
137520,note_on,,,,,0,0,2,,,1,,,57,81
137520,note_on,,,,,24,0,2,,,1,,,60,81
137520,note_on,,,,,0,0,1,,,0,,,84,58
137520,note_on,,,,,48,0,1,,,0,,,81,58
137616,note_off,,,,,96,0,2,,,1,,,57,64
137616,note_off,,,,,0,0,2,,,1,,,60,64
137640,note_on,,,,,24,0,2,,,1,,,52,81
137712,note_off,,,,,0,0,1,,,0,,,81,64
137712,note_off,,,,,192,0,1,,,0,,,84,64
137736,note_off,,,,,96,0,2,,,1,,,52,64
137760,note_on,,,,,24,0,2,,,1,,,62,81
137760,note_on,,,,,48,0,1,,,0,,,83,58
137760,note_on,,,,,0,0,1,,,0,,,86,58
137760,note_on,,,,,0,0,2,,,1,,,59,81
137856,note_off,,,,,96,0,2,,,1,,,59,64
137856,note_off,,,,,0,0,2,,,1,,,62,64
137880,note_on,,,,,24,0,2,,,1,,,52,81
137952,note_off,,,,,0,0,1,,,0,,,83,64
137952,note_off,,,,,192,0,1,,,0,,,86,64
137976,note_off,,,,,96,0,2,,,1,,,52,64
138000,note_on,,,,,24,0,2,,,1,,,56,81
138000,note_on,,,,,0,0,2,,,1,,,59,81
138000,note_on,,,,,0,0,1,,,0,,,80,58
138000,note_on,,,,,48,0,1,,,0,,,83,58
138048,note_off,,,,,48,0,1,,,0,,,76,64
138096,note_off,,,,,96,0,2,,,1,,,59,64
138096,note_off,,,,,0,0,2,,,1,,,56,64
138120,note_on,,,,,24,0,2,,,1,,,52,81
138192,note_off,,,,,144,0,1,,,0,,,80,64
138192,note_off,,,,,0,0,1,,,0,,,83,64
138216,note_off,,,,,96,0,2,,,1,,,52,64
138240,note_on,,,,,0,0,1,,,0,,,84,58
138240,note_on,,,,,48,0,1,,,0,,,81,58
138240,note_on,,,,,0,0,1,,,0,,,76,58
138240,note_on,,,,,0,0,2,,,1,,,57,81
138240,note_on,,,,,24,0,2,,,1,,,60,81
138336,note_off,,,,,96,0,2,,,1,,,57,64
138336,note_off,,,,,0,0,2,,,1,,,60,64
138360,note_on,,,,,24,0,2,,,1,,,52,81
138432,note_off,,,,,192,0,1,,,0,,,84,64
138432,note_off,,,,,0,0,1,,,0,,,81,64
138456,note_off,,,,,96,0,2,,,1,,,52,64
138480,note_on,,,,,48,0,1,,,0,,,78,58
138480,note_on,,,,,0,0,1,,,0,,,81,58
138480,note_on,,,,,24,0,2,,,1,,,57,81
138480,note_on,,,,,0,0,2,,,1,,,54,81
138576,note_off,,,,,96,0,2,,,1,,,54,64
138576,note_off,,,,,0,0,2,,,1,,,57,64
138600,note_on,,,,,24,0,2,,,1,,,52,81
138672,note_off,,,,,0,0,1,,,0,,,78,64
138672,note_off,,,,,192,0,1,,,0,,,81,64
138696,note_off,,,,,96,0,2,,,1,,,52,64
138720,note_on,,,,,24,0,2,,,1,,,56,81
138720,note_on,,,,,0,0,2,,,1,,,59,81
138720,note_on,,,,,0,0,1,,,0,,,83,58
138720,note_on,,,,,48,0,1,,,0,,,80,58
138816,note_off,,,,,96,0,2,,,1,,,59,64
138816,note_off,,,,,0,0,2,,,1,,,56,64
138816,note_off,,,,,96,0,1,,,0,,,76,64
138840,note_on,,,,,24,0,2,,,1,,,52,81
138912,note_off,,,,,0,0,1,,,0,,,80,64
138912,note_off,,,,,96,0,1,,,0,,,83,64
138936,note_off,,,,,96,0,2,,,1,,,52,64
138960,note_on,,,,,24,0,2,,,1,,,56,81
138960,note_on,,,,,48,0,1,,,0,,,76,58
139056,note_off,,,,,96,0,2,,,1,,,56,64
139080,note_on,,,,,24,0,2,,,1,,,52,81
139152,note_off,,,,,192,0,1,,,0,,,76,64
139176,note_off,,,,,96,0,2,,,1,,,52,64
139200,note_on,,,,,24,0,2,,,1,,,60,81
139296,note_off,,,,,96,0,2,,,1,,,60,64
139320,note_on,,,,,168,0,1,,,0,,,64,58
139320,note_on,,,,,24,0,2,,,1,,,57,81
139416,note_off,,,,,96,0,2,,,1,,,57,64
139416,note_off,,,,,96,0,1,,,0,,,64,64
139440,note_on,,,,,24,0,2,,,1,,,52,81
139440,note_on,,,,,24,0,1,,,0,,,69,58
139536,note_off,,,,,96,0,2,,,1,,,52,64
139536,note_off,,,,,96,0,1,,,0,,,69,64
139560,note_on,,,,,24,0,1,,,0,,,76,58
139560,note_on,,,,,24,0,2,,,1,,,48,81
139656,note_off,,,,,96,0,1,,,0,,,76,64
139656,note_off,,,,,96,0,2,,,1,,,48,64
139680,note_on,,,,,24,0,2,,,1,,,60,81
139776,note_off,,,,,96,0,2,,,1,,,60,64
139800,note_on,,,,,144,0,1,,,0,,,64,58
139800,note_on,,,,,24,0,2,,,1,,,57,81
139896,note_off,,,,,96,0,1,,,0,,,64,64
139896,note_off,,,,,96,0,2,,,1,,,57,64
139920,note_on,,,,,24,0,2,,,1,,,52,81
139920,note_on,,,,,24,0,1,,,0,,,71,58
140016,note_off,,,,,96,0,2,,,1,,,52,64
140016,note_off,,,,,96,0,1,,,0,,,71,64
140040,note_on,,,,,24,0,1,,,0,,,76,58
140040,note_on,,,,,24,0,2,,,1,,,48,81
140136,note_off,,,,,96,0,1,,,0,,,76,64
140136,note_off,,,,,96,0,2,,,1,,,48,64
140160,note_on,,,,,24,0,2,,,1,,,62,81
140256,note_off,,,,,96,0,2,,,1,,,62,64
140280,note_on,,,,,144,0,1,,,0,,,69,58
140280,note_on,,,,,24,0,2,,,1,,,57,81
140376,note_off,,,,,96,0,1,,,0,,,69,64
140376,note_off,,,,,96,0,2,,,1,,,57,64
140400,note_on,,,,,24,0,1,,,0,,,72,58
140400,note_on,,,,,24,0,2,,,1,,,53,81
140496,note_off,,,,,96,0,1,,,0,,,72,64
140496,note_off,,,,,96,0,2,,,1,,,53,64
140520,note_on,,,,,24,0,1,,,0,,,77,58
140520,note_on,,,,,24,0,2,,,1,,,50,81
140616,note_off,,,,,96,0,1,,,0,,,77,64
140616,note_off,,,,,96,0,2,,,1,,,50,64
140640,note_on,,,,,24,0,2,,,1,,,62,81
140736,note_off,,,,,96,0,2,,,1,,,62,64
140760,note_on,,,,,24,0,2,,,1,,,57,81
140760,note_on,,,,,144,0,1,,,0,,,65,58
140856,note_off,,,,,96,0,2,,,1,,,57,64
140856,note_off,,,,,96,0,1,,,0,,,65,64
140880,note_on,,,,,24,0,2,,,1,,,53,81
140880,note_on,,,,,24,0,1,,,0,,,71,58
140976,note_off,,,,,96,0,2,,,1,,,53,64
140976,note_off,,,,,96,0,1,,,0,,,71,64
141000,note_on,,,,,24,0,2,,,1,,,50,81
141000,note_on,,,,,24,0,1,,,0,,,77,58
141096,note_off,,,,,96,0,2,,,1,,,50,64
141096,note_off,,,,,96,0,1,,,0,,,77,64
141120,note_on,,,,,24,0,2,,,1,,,62,81
141216,note_off,,,,,96,0,2,,,1,,,62,64
141240,note_on,,,,,144,0,1,,,0,,,69,58
141240,note_on,,,,,24,0,2,,,1,,,59,81
141336,note_off,,,,,96,0,2,,,1,,,59,64
141336,note_off,,,,,96,0,1,,,0,,,69,64
141360,note_on,,,,,24,0,1,,,0,,,77,58
141360,note_on,,,,,24,0,2,,,1,,,57,81
141456,note_off,,,,,96,0,2,,,1,,,57,64
141456,note_off,,,,,96,0,1,,,0,,,77,64
141480,note_on,,,,,24,0,1,,,0,,,83,58
141480,note_on,,,,,24,0,2,,,1,,,52,81
141576,note_off,,,,,96,0,1,,,0,,,83,64
141576,note_off,,,,,96,0,2,,,1,,,52,64
141600,note_on,,,,,24,0,2,,,1,,,62,81
141696,note_off,,,,,96,0,2,,,1,,,62,64
141720,note_on,,,,,144,0,1,,,0,,,68,58
141720,note_on,,,,,24,0,2,,,1,,,59,81
141816,note_off,,,,,96,0,1,,,0,,,68,64
141816,note_off,,,,,96,0,2,,,1,,,59,64
141840,note_on,,,,,24,0,1,,,0,,,76,58
141840,note_on,,,,,24,0,2,,,1,,,56,81
141936,note_off,,,,,96,0,2,,,1,,,56,64
141936,note_off,,,,,96,0,1,,,0,,,76,64
141960,note_on,,,,,24,0,1,,,0,,,83,58
141960,note_on,,,,,24,0,2,,,1,,,52,81
142056,note_off,,,,,96,0,2,,,1,,,52,64
142056,note_off,,,,,96,0,1,,,0,,,83,64
142080,note_on,,,,,24,0,2,,,1,,,69,81
142176,note_off,,,,,96,0,2,,,1,,,69,64
142200,note_on,,,,,24,0,2,,,1,,,65,81
142200,note_on,,,,,144,0,1,,,0,,,74,58
142296,note_off,,,,,96,0,2,,,1,,,65,64
142296,note_off,,,,,96,0,1,,,0,,,74,64
142320,note_on,,,,,24,0,1,,,0,,,83,58
142320,note_on,,,,,24,0,2,,,1,,,64,81
142416,note_off,,,,,96,0,1,,,0,,,83,64
142416,note_off,,,,,96,0,2,,,1,,,64,64
142440,note_on,,,,,24,0,2,,,1,,,60,81
142440,note_on,,,,,24,0,1,,,0,,,88,58
142536,note_off,,,,,96,0,1,,,0,,,88,64
142536,note_off,,,,,96,0,2,,,1,,,60,64
142560,note_on,,,,,24,0,2,,,1,,,69,81
142656,note_off,,,,,96,0,2,,,1,,,69,64
142680,note_on,,,,,24,0,2,,,1,,,64,81
142680,note_on,,,,,144,0,1,,,0,,,72,58
142776,note_off,,,,,96,0,1,,,0,,,72,64
142776,note_off,,,,,96,0,2,,,1,,,64,64
142800,note_on,,,,,24,0,2,,,1,,,60,81
142800,note_on,,,,,24,0,1,,,0,,,81,58
142896,note_off,,,,,96,0,2,,,1,,,60,64
142896,note_off,,,,,96,0,1,,,0,,,81,64
142920,note_on,,,,,24,0,1,,,0,,,88,58
142920,note_on,,,,,24,0,2,,,1,,,57,81
143016,note_off,,,,,96,0,1,,,0,,,88,64
143016,note_off,,,,,96,0,2,,,1,,,57,64
143040,note_on,,,,,24,0,2,,,1,,,38,71
143136,note_off,,,,,96,0,2,,,1,,,38,64
143160,note_on,,,,,24,0,2,,,1,,,50,71
143256,note_off,,,,,96,0,2,,,1,,,50,64
143280,note_on,,,,,0,0,1,,,0,,,71,58
143280,note_on,,,,,0,0,1,,,0,,,69,58
143280,note_on,,,,,264,0,1,,,0,,,65,58
143280,note_on,,,,,24,0,2,,,1,,,53,71
143400,note_on,,,,,120,0,2,,,1,,,57,71
143520,note_on,,,,,120,0,2,,,1,,,62,71
143568,note_off,,,,,0,0,1,,,0,,,71,64
143568,note_off,,,,,288,0,1,,,0,,,65,64
143568,note_off,,,,,0,0,1,,,0,,,69,64
143580,note_on,,,,,12,0,1,,,0,,,72,58
143628,note_off,,,,,48,0,1,,,0,,,72,64
143640,note_on,,,,,12,0,1,,,0,,,71,58
143688,note_off,,,,,48,0,1,,,0,,,71,64
143700,note_on,,,,,12,0,1,,,0,,,69,58
143748,note_off,,,,,48,0,1,,,0,,,69,64
143760,note_on,,,,,12,0,1,,,0,,,71,58
143808,note_off,,,,,48,0,1,,,0,,,71,64
143820,note_on,,,,,12,0,1,,,0,,,72,58
143868,note_off,,,,,48,0,1,,,0,,,72,64
143880,note_on,,,,,12,0,1,,,0,,,74,58
143928,note_off,,,,,48,0,1,,,0,,,74,64
143940,note_on,,,,,12,0,1,,,0,,,76,58
143988,note_off,,,,,48,0,1,,,0,,,76,64
144000,note_on,,,,,12,0,1,,,0,,,79,110
144192,note_off,,,,,192,0,1,,,0,,,79,64
144240,note_on,,,,,48,0,1,,,0,,,77,58
144384,note_off,,,,,0,0,2,,,1,,,57,64
144384,note_off,,,,,864,0,2,,,1,,,62,64
144384,note_off,,,,,0,0,2,,,1,,,53,64
144432,note_off,,,,,192,0,1,,,0,,,77,64
144960,note_on,,,,,576,0,2,,,1,,,38,71
145056,note_off,,,,,96,0,2,,,1,,,38,64
145080,note_on,,,,,24,0,2,,,1,,,50,71
145176,note_off,,,,,96,0,2,,,1,,,50,64
145200,note_on,,,,,24,0,2,,,1,,,53,71
145200,note_on,,,,,768,0,1,,,0,,,65,58
145200,note_on,,,,,0,0,1,,,0,,,68,58
145200,note_on,,,,,0,0,1,,,0,,,71,58
145320,note_on,,,,,120,0,2,,,1,,,56,71
145440,note_on,,,,,120,0,2,,,1,,,59,71
145488,note_off,,,,,288,0,1,,,0,,,65,64
145488,note_off,,,,,0,0,1,,,0,,,68,64
145488,note_off,,,,,0,0,1,,,0,,,71,64
145500,note_on,,,,,12,0,1,,,0,,,72,58
145548,note_off,,,,,48,0,1,,,0,,,72,64
145560,note_on,,,,,12,0,1,,,0,,,71,58
145608,note_off,,,,,48,0,1,,,0,,,71,64
145620,note_on,,,,,12,0,1,,,0,,,70,58
145668,note_off,,,,,48,0,1,,,0,,,70,64
145680,note_on,,,,,12,0,1,,,0,,,71,58
145728,note_off,,,,,48,0,1,,,0,,,71,64
145740,note_on,,,,,12,0,1,,,0,,,72,58
145788,note_off,,,,,48,0,1,,,0,,,72,64
145800,note_on,,,,,12,0,1,,,0,,,74,58
145848,note_off,,,,,48,0,1,,,0,,,74,64
145860,note_on,,,,,12,0,1,,,0,,,76,58
145908,note_off,,,,,48,0,1,,,0,,,76,64
145920,note_on,,,,,12,0,1,,,0,,,79,58
146112,note_off,,,,,672,0,2,,,1,,,56,64
146112,note_off,,,,,0,0,2,,,1,,,59,64
146112,note_off,,,,,192,0,1,,,0,,,79,64
146112,note_off,,,,,0,0,2,,,1,,,53,64
146160,note_on,,,,,48,0,1,,,0,,,77,58
146256,note_off,,,,,96,0,1,,,0,,,77,64
146400,note_on,,,,,0,0,1,,,0,,,58,58
146400,note_on,,,,,0,0,1,,,0,,,56,58
146400,note_on,,,,,0,0,1,,,0,,,62,58
146400,note_on,,,,,144,0,1,,,0,,,84,110
146400,note_on,,,,,0,0,1,,,0,,,74,58
146400,note_on,,,,,0,0,1,,,0,,,65,58
146400,note_on,,,,,0,0,1,,,0,,,70,58
146592,note_off,,,,,192,0,1,,,0,,,84,64
146640,note_on,,,,,48,0,1,,,0,,,82,58
146688,note_off,,,,,0,0,1,,,0,,,65,64
146688,note_off,,,,,0,0,1,,,0,,,70,64
146688,note_off,,,,,0,0,1,,,0,,,58,64
146688,note_off,,,,,0,0,1,,,0,,,56,64
146688,note_off,,,,,48,0,1,,,0,,,62,64
146736,note_off,,,,,0,0,1,,,0,,,74,64
146736,note_off,,,,,48,0,1,,,0,,,82,64
147360,note_on,,,,,1248,0,2,,,1,,,43,110
147408,note_off,,,,,48,0,2,,,1,,,43,64
147420,note_on,,,,,12,0,2,,,1,,,44,71
147468,note_off,,,,,48,0,2,,,1,,,44,64
147480,note_on,,,,,12,0,2,,,1,,,43,71
147528,note_off,,,,,48,0,2,,,1,,,43,64
147540,note_on,,,,,12,0,2,,,1,,,42,71
147588,note_off,,,,,48,0,2,,,1,,,42,64
147600,note_on,,,,,12,0,2,,,1,,,43,71
147648,note_off,,,,,48,0,2,,,1,,,43,64
147660,note_on,,,,,12,0,2,,,1,,,46,71
147708,note_off,,,,,48,0,2,,,1,,,46,64
147720,note_on,,,,,12,0,2,,,1,,,51,71
147768,note_off,,,,,48,0,2,,,1,,,51,64
147780,note_on,,,,,12,0,2,,,1,,,55,71
147828,note_off,,,,,48,0,2,,,1,,,55,64
147840,note_on,,,,,12,0,2,,,1,,,56,71
147840,note_on,,,,,0,0,2,,,1,,,58,71
147840,note_on,,,,,1104,0,1,,,0,,,62,71
147840,note_on,,,,,0,0,1,,,0,,,72,71
147888,note_off,,,,,48,0,1,,,0,,,62,64
147900,note_on,,,,,12,0,1,,,0,,,63,71
147948,note_off,,,,,48,0,1,,,0,,,63,64
147960,note_on,,,,,12,0,1,,,0,,,62,71
148008,note_off,,,,,48,0,1,,,0,,,62,64
148020,note_on,,,,,12,0,1,,,0,,,61,71
148032,note_off,,,,,12,0,1,,,0,,,72,64
148068,note_off,,,,,36,0,1,,,0,,,61,64
148080,note_on,,,,,12,0,1,,,0,,,62,71
148080,note_on,,,,,0,0,1,,,0,,,70,71
148128,note_off,,,,,48,0,1,,,0,,,62,64
148128,note_off,,,,,288,0,2,,,1,,,58,64
148128,note_off,,,,,0,0,2,,,1,,,56,64
148140,note_on,,,,,12,0,1,,,0,,,65,71
148176,note_off,,,,,36,0,1,,,0,,,70,64
148188,note_off,,,,,12,0,1,,,0,,,65,64
148200,note_on,,,,,12,0,1,,,0,,,68,71
148248,note_off,,,,,48,0,1,,,0,,,68,64
148260,note_on,,,,,12,0,1,,,0,,,70,71
148308,note_off,,,,,48,0,1,,,0,,,70,64
148320,note_on,,,,,192,0,2,,,1,,,55,71
148320,note_on,,,,,12,0,1,,,0,,,75,71
148368,note_off,,,,,48,0,2,,,1,,,55,64
148380,note_on,,,,,12,0,2,,,1,,,56,71
148428,note_off,,,,,48,0,2,,,1,,,56,64
148440,note_on,,,,,12,0,2,,,1,,,55,71
148488,note_off,,,,,48,0,2,,,1,,,55,64
148500,note_on,,,,,12,0,2,,,1,,,54,71
148548,note_off,,,,,48,0,2,,,1,,,54,64
148560,note_on,,,,,12,0,2,,,1,,,55,71
148608,note_off,,,,,288,0,1,,,0,,,75,64
148608,note_off,,,,,48,0,2,,,1,,,55,64
148620,note_on,,,,,12,0,2,,,1,,,58,71
148668,note_off,,,,,48,0,2,,,1,,,58,64
148680,note_on,,,,,12,0,2,,,1,,,63,71
148728,note_off,,,,,48,0,2,,,1,,,63,64
148740,note_on,,,,,12,0,2,,,1,,,67,71
148788,note_off,,,,,48,0,2,,,1,,,67,64
148800,note_on,,,,,192,0,1,,,0,,,84,71
148800,note_on,,,,,12,0,2,,,1,,,70,71
148800,note_on,,,,,0,0,2,,,1,,,68,71
148800,note_on,,,,,0,0,1,,,0,,,74,71
148848,note_off,,,,,48,0,1,,,0,,,74,64
148860,note_on,,,,,12,0,1,,,0,,,75,71
148908,note_off,,,,,48,0,1,,,0,,,75,64
148920,note_on,,,,,12,0,1,,,0,,,74,71
148968,note_off,,,,,48,0,1,,,0,,,74,64
148980,note_on,,,,,12,0,1,,,0,,,73,71
148992,note_off,,,,,12,0,1,,,0,,,84,64
149028,note_off,,,,,36,0,1,,,0,,,73,64
149040,note_on,,,,,0,0,1,,,0,,,82,71
149040,note_on,,,,,12,0,1,,,0,,,74,71
149088,note_off,,,,,288,0,2,,,1,,,68,64
149088,note_off,,,,,48,0,1,,,0,,,74,64
149088,note_off,,,,,0,0,2,,,1,,,70,64
149100,note_on,,,,,12,0,1,,,0,,,77,71
149136,note_off,,,,,36,0,1,,,0,,,82,64
149148,note_off,,,,,12,0,1,,,0,,,77,64
149160,note_on,,,,,12,0,1,,,0,,,80,71
149208,note_off,,,,,48,0,1,,,0,,,80,64
149220,note_on,,,,,12,0,1,,,0,,,82,71
149268,note_off,,,,,48,0,1,,,0,,,82,64
149280,note_on,,,,,192,0,2,,,1,,,80,71
149280,note_on,,,,,12,0,1,,,0,,,96,71
149280,note_on,,,,,0,0,1,,,0,,,86,71
149328,note_off,,,,,48,0,2,,,1,,,80,64
149340,note_on,,,,,12,0,2,,,1,,,77,71
149388,note_off,,,,,48,0,2,,,1,,,77,64
149400,note_on,,,,,12,0,2,,,1,,,74,71
149448,note_off,,,,,48,0,2,,,1,,,74,64
149460,note_on,,,,,12,0,2,,,1,,,70,71
149472,note_off,,,,,192,0,1,,,0,,,96,64
149508,note_off,,,,,48,0,2,,,1,,,70,64
149520,note_on,,,,,48,0,1,,,0,,,94,71
149520,note_on,,,,,12,0,2,,,1,,,68,71
149568,note_off,,,,,48,0,2,,,1,,,68,64
149580,note_on,,,,,12,0,2,,,1,,,65,71
149616,note_off,,,,,96,0,1,,,0,,,86,64
149628,note_off,,,,,48,0,2,,,1,,,65,64
149640,note_on,,,,,12,0,2,,,1,,,62,71
149688,note_off,,,,,48,0,2,,,1,,,62,64
149700,note_on,,,,,12,0,2,,,1,,,56,71
149748,note_off,,,,,48,0,2,,,1,,,56,64
149760,note_on,,,,,12,0,2,,,1,,,57,71
149856,note_off,,,,,240,0,1,,,0,,,94,64
149880,note_on,,,,,24,0,1,,,0,,,93,71
149976,note_off,,,,,96,0,1,,,0,,,93,64
150000,note_on,,,,,24,0,1,,,0,,,92,71
150096,note_off,,,,,96,0,1,,,0,,,92,64
150120,note_on,,,,,24,0,1,,,0,,,91,71
150216,note_off,,,,,96,0,1,,,0,,,91,64
150240,note_on,,,,,0,0,2,,,1,,,62,71
150240,note_on,,,,,24,0,1,,,0,,,90,71
150240,note_on,,,,,480,0,2,,,1,,,53,71
150336,note_off,,,,,96,0,1,,,0,,,90,64
150360,note_on,,,,,24,0,1,,,0,,,89,71
150456,note_off,,,,,96,0,1,,,0,,,89,64
150480,note_on,,,,,24,0,1,,,0,,,88,71
150576,note_off,,,,,96,0,1,,,0,,,88,64
150600,note_on,,,,,24,0,1,,,0,,,87,71
150624,note_off,,,,,384,0,2,,,1,,,62,64
150624,note_off,,,,,0,0,2,,,1,,,53,64
150696,note_off,,,,,96,0,1,,,0,,,87,64
150720,note_on,,,,,24,0,1,,,0,,,86,71
150720,note_on,,,,,0,0,2,,,1,,,52,71
150720,note_on,,,,,96,0,2,,,1,,,64,71
150816,note_off,,,,,96,0,1,,,0,,,86,64
150840,note_on,,,,,24,0,1,,,0,,,85,71
150936,note_off,,,,,96,0,1,,,0,,,85,64
150960,note_on,,,,,24,0,1,,,0,,,84,71
151056,note_off,,,,,96,0,1,,,0,,,84,64
151080,note_on,,,,,24,0,1,,,0,,,83,71
151104,note_off,,,,,384,0,2,,,1,,,52,64
151104,note_off,,,,,0,0,2,,,1,,,64,64
151176,note_off,,,,,96,0,1,,,0,,,83,64
151200,note_on,,,,,24,0,1,,,0,,,82,71
151200,note_on,,,,,96,0,2,,,1,,,65,71
151200,note_on,,,,,0,0,2,,,1,,,50,71
151296,note_off,,,,,96,0,1,,,0,,,82,64
151320,note_on,,,,,24,0,1,,,0,,,81,71
151416,note_off,,,,,96,0,1,,,0,,,81,64
151440,note_on,,,,,24,0,1,,,0,,,80,71
151536,note_off,,,,,96,0,1,,,0,,,80,64
151560,note_on,,,,,24,0,1,,,0,,,79,71
151656,note_off,,,,,96,0,1,,,0,,,79,64
151680,note_on,,,,,24,0,1,,,0,,,78,71
151776,note_off,,,,,96,0,1,,,0,,,78,64
151800,note_on,,,,,24,0,1,,,0,,,77,71
151896,note_off,,,,,96,0,1,,,0,,,77,64
151920,note_on,,,,,24,0,1,,,0,,,76,71
152016,note_off,,,,,96,0,1,,,0,,,76,64
152040,note_on,,,,,24,0,1,,,0,,,75,71
152064,note_off,,,,,864,0,2,,,1,,,50,64
152064,note_off,,,,,0,0,2,,,1,,,65,64
152136,note_off,,,,,96,0,1,,,0,,,75,64
152160,note_on,,,,,0,0,2,,,1,,,62,71
152160,note_on,,,,,24,0,1,,,0,,,74,71
152160,note_on,,,,,96,0,2,,,1,,,53,71
152256,note_off,,,,,96,0,1,,,0,,,74,64
152280,note_on,,,,,24,0,1,,,0,,,73,71
152376,note_off,,,,,96,0,1,,,0,,,73,64
152400,note_on,,,,,24,0,1,,,0,,,72,71
152448,note_off,,,,,288,0,2,,,1,,,57,64
152496,note_off,,,,,96,0,1,,,0,,,72,64
152520,note_on,,,,,24,0,1,,,0,,,71,71
152544,note_off,,,,,0,0,2,,,1,,,53,64
152544,note_off,,,,,96,0,2,,,1,,,62,64
152616,note_off,,,,,96,0,1,,,0,,,71,64
152640,note_on,,,,,96,0,2,,,1,,,60,71
152640,note_on,,,,,0,0,2,,,1,,,57,71
152640,note_on,,,,,0,0,2,,,1,,,52,71
152880,note_on,,,,,264,0,1,,,0,,,72,71
153024,note_off,,,,,0,0,2,,,1,,,60,64
153024,note_off,,,,,0,0,2,,,1,,,52,64
153024,note_off,,,,,384,0,2,,,1,,,57,64
153072,note_off,,,,,192,0,1,,,0,,,72,64
153120,note_on,,,,,48,0,1,,,0,,,75,71
153312,note_off,,,,,192,0,1,,,0,,,75,64
153360,note_on,,,,,48,0,1,,,0,,,81,71
153552,note_off,,,,,192,0,1,,,0,,,81,64
153600,note_on,,,,,0,0,2,,,1,,,59,71
153600,note_on,,,,,0,0,2,,,1,,,56,71
153600,note_on,,,,,576,0,2,,,1,,,52,71
153840,note_on,,,,,288,0,1,,,0,,,77,71
153840,note_on,,,,,240,0,2,,,1,,,65,71
153984,note_off,,,,,144,0,2,,,1,,,59,64
153984,note_off,,,,,0,0,2,,,1,,,56,64
153984,note_off,,,,,0,0,2,,,1,,,52,64
154032,note_off,,,,,192,0,1,,,0,,,77,64
154032,note_off,,,,,48,0,2,,,1,,,65,64
154080,note_on,,,,,48,0,1,,,0,,,76,71
154080,note_on,,,,,48,0,2,,,1,,,64,71
154272,note_off,,,,,192,0,1,,,0,,,76,64
154272,note_off,,,,,192,0,2,,,1,,,64,64
154320,note_on,,,,,48,0,2,,,1,,,56,71
154320,note_on,,,,,48,0,1,,,0,,,68,71
154512,note_off,,,,,192,0,1,,,0,,,68,64
154512,note_off,,,,,192,0,2,,,1,,,56,64
154560,note_on,,,,,0,0,2,,,1,,,57,58
154560,note_on,,,,,0,0,1,,,0,,,81,58
154560,note_on,,,,,48,0,2,,,1,,,45,58
154560,note_on,,,,,48,0,1,,,0,,,77,58
154656,note_off,,,,,96,0,1,,,0,,,77,64
154680,note_on,,,,,24,0,1,,,0,,,69,58
154776,note_off,,,,,96,0,1,,,0,,,69,64
154800,note_on,,,,,24,0,1,,,0,,,77,58
154896,note_off,,,,,96,0,1,,,0,,,77,64
154920,note_on,,,,,24,0,1,,,0,,,69,58
154944,note_off,,,,,0,0,2,,,1,,,45,64
154944,note_off,,,,,24,0,1,,,0,,,81,64
154944,note_off,,,,,384,0,2,,,1,,,57,64
155016,note_off,,,,,72,0,1,,,0,,,69,64
155040,note_on,,,,,96,0,2,,,1,,,64,58
155040,note_on,,,,,0,0,1,,,0,,,79,58
155040,note_on,,,,,0,0,1,,,0,,,67,58
155040,note_on,,,,,24,0,1,,,0,,,76,58
155136,note_off,,,,,96,0,2,,,1,,,64,64
155160,note_on,,,,,24,0,2,,,1,,,57,58
155232,note_off,,,,,192,0,1,,,0,,,79,64
155232,note_off,,,,,0,0,1,,,0,,,67,64
155232,note_off,,,,,0,0,1,,,0,,,76,64
155256,note_off,,,,,96,0,2,,,1,,,57,64
155280,note_on,,,,,48,0,1,,,0,,,81,58
155280,note_on,,,,,0,0,1,,,0,,,69,58
155280,note_on,,,,,0,0,1,,,0,,,77,58
155280,note_on,,,,,24,0,2,,,1,,,65,58
155376,note_off,,,,,96,0,2,,,1,,,65,64
155400,note_on,,,,,24,0,2,,,1,,,57,58
155472,note_off,,,,,192,0,1,,,0,,,69,64
155472,note_off,,,,,0,0,1,,,0,,,81,64
155472,note_off,,,,,0,0,1,,,0,,,77,64
155496,note_off,,,,,96,0,2,,,1,,,57,64
155520,note_on,,,,,48,0,1,,,0,,,79,58
155520,note_on,,,,,0,0,1,,,0,,,82,58
155520,note_on,,,,,24,0,2,,,1,,,70,58
155520,note_on,,,,,0,0,2,,,1,,,67,58
155616,note_off,,,,,96,0,2,,,1,,,67,64
155616,note_off,,,,,0,0,2,,,1,,,70,64
155640,note_on,,,,,24,0,2,,,1,,,57,58
155736,note_off,,,,,96,0,2,,,1,,,57,64
155760,note_on,,,,,24,0,2,,,1,,,64,58
155760,note_on,,,,,0,0,2,,,1,,,67,58
155808,note_off,,,,,288,0,1,,,0,,,82,64
155808,note_off,,,,,0,0,1,,,0,,,79,64
155856,note_off,,,,,96,0,2,,,1,,,67,64
155856,note_off,,,,,0,0,2,,,1,,,64,64
155880,note_on,,,,,0,0,1,,,0,,,76,58
155880,note_on,,,,,72,0,1,,,0,,,79,58
155880,note_on,,,,,24,0,2,,,1,,,57,58
155976,note_off,,,,,96,0,2,,,1,,,57,64
155976,note_off,,,,,0,0,1,,,0,,,79,64
155976,note_off,,,,,96,0,1,,,0,,,76,64
156000,note_on,,,,,0,0,2,,,1,,,61,58
156000,note_on,,,,,0,0,1,,,0,,,73,58
156000,note_on,,,,,24,0,1,,,0,,,76,58
156000,note_on,,,,,24,0,2,,,1,,,64,58
156096,note_off,,,,,96,0,2,,,1,,,61,64
156096,note_off,,,,,0,0,2,,,1,,,64,64
156120,note_on,,,,,24,0,2,,,1,,,57,58
156192,note_off,,,,,0,0,1,,,0,,,76,64
156192,note_off,,,,,192,0,1,,,0,,,73,64
156216,note_off,,,,,96,0,2,,,1,,,57,64
156240,note_on,,,,,24,0,2,,,1,,,65,58
156240,note_on,,,,,0,0,1,,,0,,,74,58
156240,note_on,,,,,48,0,1,,,0,,,77,58
156240,note_on,,,,,0,0,2,,,1,,,62,58
156336,note_off,,,,,0,0,2,,,1,,,65,64
156336,note_off,,,,,96,0,2,,,1,,,62,64
156360,note_on,,,,,24,0,2,,,1,,,57,58
156432,note_off,,,,,192,0,1,,,0,,,74,64
156432,note_off,,,,,0,0,1,,,0,,,77,64
156456,note_off,,,,,96,0,2,,,1,,,57,64
156480,note_on,,,,,48,0,1,,,0,,,79,58
156480,note_on,,,,,0,0,1,,,0,,,76,58
156480,note_on,,,,,24,0,2,,,1,,,67,58
156480,note_on,,,,,0,0,2,,,1,,,64,58
156576,note_off,,,,,0,0,2,,,1,,,67,64
156576,note_off,,,,,96,0,2,,,1,,,64,64
156600,note_on,,,,,24,0,2,,,1,,,57,58
156672,note_off,,,,,192,0,1,,,0,,,76,64
156672,note_off,,,,,0,0,1,,,0,,,79,64
156696,note_off,,,,,96,0,2,,,1,,,57,64
156720,note_on,,,,,0,0,2,,,1,,,65,58
156720,note_on,,,,,24,0,2,,,1,,,62,58
156720,note_on,,,,,48,0,1,,,0,,,74,58
156720,note_on,,,,,0,0,1,,,0,,,77,58
156816,note_off,,,,,96,0,2,,,1,,,65,64
156816,note_off,,,,,0,0,2,,,1,,,62,64
156840,note_on,,,,,24,0,2,,,1,,,57,58
156912,note_off,,,,,0,0,1,,,0,,,74,64
156912,note_off,,,,,192,0,1,,,0,,,77,64
156936,note_off,,,,,96,0,2,,,1,,,57,64
156960,note_on,,,,,0,0,2,,,1,,,60,58
156960,note_on,,,,,48,0,1,,,0,,,72,58
156960,note_on,,,,,24,0,2,,,1,,,64,58
156960,note_on,,,,,0,0,1,,,0,,,76,58
157056,note_off,,,,,96,0,2,,,1,,,60,64
157056,note_off,,,,,0,0,2,,,1,,,64,64
157080,note_on,,,,,24,0,2,,,1,,,57,58
157152,note_off,,,,,192,0,1,,,0,,,76,64
157152,note_off,,,,,0,0,1,,,0,,,72,64
157176,note_off,,,,,96,0,2,,,1,,,57,64
157200,note_on,,,,,48,0,1,,,0,,,74,58
157200,note_on,,,,,24,0,2,,,1,,,62,58
157200,note_on,,,,,0,0,2,,,1,,,58,58
157200,note_on,,,,,0,0,1,,,0,,,70,58
157296,note_off,,,,,96,0,2,,,1,,,58,64
157296,note_off,,,,,0,0,2,,,1,,,62,64
157320,note_on,,,,,24,0,2,,,1,,,57,58
157392,note_off,,,,,0,0,1,,,0,,,74,64
157392,note_off,,,,,192,0,1,,,0,,,70,64
157416,note_off,,,,,96,0,2,,,1,,,57,64
157440,note_on,,,,,0,0,1,,,0,,,69,58
157440,note_on,,,,,24,0,2,,,1,,,61,58
157440,note_on,,,,,48,0,1,,,0,,,73,58
157536,note_off,,,,,96,0,2,,,1,,,61,64
157560,note_on,,,,,24,0,2,,,1,,,57,58
157656,note_off,,,,,96,0,2,,,1,,,57,64
157680,note_on,,,,,24,0,2,,,1,,,62,58
157680,note_on,,,,,0,0,2,,,1,,,59,58
157728,note_off,,,,,0,0,1,,,0,,,73,64
157728,note_off,,,,,288,0,1,,,0,,,69,64
157776,note_off,,,,,96,0,2,,,1,,,59,64
157776,note_off,,,,,0,0,2,,,1,,,62,64
157800,note_on,,,,,72,0,1,,,0,,,71,58
157800,note_on,,,,,0,0,1,,,0,,,74,58
157800,note_on,,,,,24,0,2,,,1,,,57,58
157896,note_off,,,,,96,0,2,,,1,,,57,64
157896,note_off,,,,,96,0,1,,,0,,,74,64
157896,note_off,,,,,0,0,1,,,0,,,71,64
157920,note_on,,,,,24,0,1,,,0,,,76,58
157920,note_on,,,,,0,0,1,,,0,,,73,58
157920,note_on,,,,,0,0,2,,,1,,,64,58
157920,note_on,,,,,24,0,2,,,1,,,61,58
158016,note_off,,,,,0,0,2,,,1,,,61,64
158016,note_off,,,,,96,0,2,,,1,,,64,64
158040,note_on,,,,,24,0,2,,,1,,,57,58
158112,note_off,,,,,0,0,1,,,0,,,76,64
158112,note_off,,,,,192,0,1,,,0,,,73,64
158136,note_off,,,,,96,0,2,,,1,,,57,64
158160,note_on,,,,,0,0,2,,,1,,,61,58
158160,note_on,,,,,24,0,2,,,1,,,64,58
158256,note_off,,,,,96,0,2,,,1,,,61,64
158256,note_off,,,,,0,0,2,,,1,,,64,64
158280,note_on,,,,,24,0,2,,,1,,,57,58
158376,note_off,,,,,96,0,2,,,1,,,57,64
158400,note_on,,,,,0,0,1,,,0,,,81,58
158400,note_on,,,,,24,0,2,,,1,,,69,58
158400,note_on,,,,,288,0,1,,,0,,,85,58
158496,note_off,,,,,96,0,2,,,1,,,69,64
158520,note_on,,,,,24,0,2,,,1,,,57,58
158616,note_off,,,,,96,0,2,,,1,,,57,64
158640,note_on,,,,,24,0,2,,,1,,,69,58
158688,note_off,,,,,0,0,1,,,0,,,85,64
158688,note_off,,,,,288,0,1,,,0,,,81,64
158736,note_off,,,,,96,0,2,,,1,,,69,64
158760,note_on,,,,,72,0,1,,,0,,,83,58
158760,note_on,,,,,0,0,1,,,0,,,86,58
158760,note_on,,,,,24,0,2,,,1,,,57,58
158856,note_off,,,,,0,0,1,,,0,,,83,64
158856,note_off,,,,,96,0,1,,,0,,,86,64
158856,note_off,,,,,96,0,2,,,1,,,57,64
158880,note_on,,,,,24,0,1,,,0,,,88,58
158880,note_on,,,,,24,0,2,,,1,,,69,58
158880,note_on,,,,,0,0,1,,,0,,,85,58
158976,note_off,,,,,96,0,2,,,1,,,69,64
159000,note_on,,,,,24,0,2,,,1,,,57,58
159072,note_off,,,,,192,0,1,,,0,,,85,64
159072,note_off,,,,,0,0,1,,,0,,,88,64
159096,note_off,,,,,96,0,2,,,1,,,57,64
159120,note_on,,,,,24,0,2,,,1,,,69,58
159216,note_off,,,,,96,0,2,,,1,,,69,64
159240,note_on,,,,,24,0,2,,,1,,,57,58
159336,note_off,,,,,96,0,2,,,1,,,57,64
159360,note_on,,,,,288,0,1,,,0,,,72,71
159360,note_on,,,,,0,0,1,,,0,,,69,71
159360,note_on,,,,,24,0,2,,,1,,,64,71
159456,note_off,,,,,96,0,2,,,1,,,64,64
159480,note_on,,,,,24,0,2,,,1,,,57,71
159576,note_off,,,,,96,0,2,,,1,,,57,64
159600,note_on,,,,,24,0,2,,,1,,,64,71
159648,note_off,,,,,0,0,1,,,0,,,72,64
159648,note_off,,,,,288,0,1,,,0,,,69,64
159696,note_off,,,,,96,0,2,,,1,,,64,64
159720,note_on,,,,,72,0,1,,,0,,,74,71
159720,note_on,,,,,0,0,1,,,0,,,71,71
159720,note_on,,,,,24,0,2,,,1,,,57,71
159816,note_off,,,,,96,0,1,,,0,,,71,64
159816,note_off,,,,,0,0,1,,,0,,,74,64
159816,note_off,,,,,96,0,2,,,1,,,57,64
159840,note_on,,,,,0,0,1,,,0,,,76,71
159840,note_on,,,,,24,0,1,,,0,,,72,71
159840,note_on,,,,,24,0,2,,,1,,,64,71
159936,note_off,,,,,96,0,2,,,1,,,64,64
159960,note_on,,,,,24,0,2,,,1,,,57,71
160056,note_off,,,,,96,0,2,,,1,,,57,64
160080,note_on,,,,,24,0,2,,,1,,,64,71
160176,note_off,,,,,96,0,2,,,1,,,64,64
160200,note_on,,,,,24,0,2,,,1,,,57,71
160296,note_off,,,,,96,0,2,,,1,,,57,64
160320,note_on,,,,,24,0,2,,,1,,,67,71
160416,note_off,,,,,96,0,2,,,1,,,67,64
160440,note_on,,,,,24,0,2,,,1,,,55,71
160536,note_off,,,,,96,0,2,,,1,,,55,64
160560,note_on,,,,,24,0,2,,,1,,,67,71
160608,note_off,,,,,768,0,1,,,0,,,72,64
160608,note_off,,,,,0,0,1,,,0,,,76,64
160656,note_off,,,,,96,0,2,,,1,,,67,64
160680,note_on,,,,,24,0,2,,,1,,,55,71
160680,note_on,,,,,72,0,1,,,0,,,74,71
160680,note_on,,,,,0,0,1,,,0,,,77,71
160776,note_off,,,,,96,0,2,,,1,,,55,64
160776,note_off,,,,,96,0,1,,,0,,,77,64
160776,note_off,,,,,0,0,1,,,0,,,74,64
160800,note_on,,,,,24,0,2,,,1,,,67,71
160800,note_on,,,,,0,0,1,,,0,,,76,71
160800,note_on,,,,,24,0,1,,,0,,,79,71
160896,note_off,,,,,96,0,2,,,1,,,67,64
160920,note_on,,,,,24,0,2,,,1,,,55,71
161016,note_off,,,,,96,0,2,,,1,,,55,64
161040,note_on,,,,,24,0,2,,,1,,,67,71
161136,note_off,,,,,96,0,2,,,1,,,67,64
161160,note_on,,,,,24,0,2,,,1,,,55,71
161184,note_off,,,,,384,0,1,,,0,,,76,64
161256,note_off,,,,,96,0,2,,,1,,,55,64
161280,note_on,,,,,24,0,2,,,1,,,66,81
161280,note_on,,,,,96,0,1,,,0,,,75,81
161280,note_on,,,,,0,0,1,,,0,,,72,81
161376,note_off,,,,,96,0,2,,,1,,,66,64
161400,note_on,,,,,24,0,2,,,1,,,55,81
161496,note_off,,,,,96,0,2,,,1,,,55,64
161520,note_on,,,,,24,0,2,,,1,,,66,81
161568,note_off,,,,,288,0,1,,,0,,,79,64
161616,note_off,,,,,96,0,2,,,1,,,66,64
161640,note_on,,,,,72,0,1,,,0,,,81,81
161640,note_on,,,,,24,0,2,,,1,,,55,81
161664,note_off,,,,,0,0,1,,,0,,,75,64
161664,note_off,,,,,24,0,1,,,0,,,72,64
161736,note_off,,,,,96,0,2,,,1,,,55,64
161736,note_off,,,,,72,0,1,,,0,,,81,64
161760,note_on,,,,,24,0,1,,,0,,,74,81
161760,note_on,,,,,0,0,1,,,0,,,79,81
161760,note_on,,,,,0,0,1,,,0,,,83,81
161760,note_on,,,,,24,0,2,,,1,,,65,81
161856,note_off,,,,,96,0,2,,,1,,,65,64
161880,note_on,,,,,24,0,2,,,1,,,55,81
161976,note_off,,,,,96,0,2,,,1,,,55,64
162000,note_on,,,,,24,0,2,,,1,,,65,81
162096,note_off,,,,,96,0,2,,,1,,,65,64
162120,note_on,,,,,24,0,2,,,1,,,55,81
162144,note_off,,,,,0,0,1,,,0,,,74,64
162144,note_off,,,,,384,0,1,,,0,,,79,64
162216,note_off,,,,,96,0,2,,,1,,,55,64
162240,note_on,,,,,0,0,1,,,0,,,79,81
162240,note_on,,,,,96,0,1,,,0,,,72,81
162240,note_on,,,,,24,0,2,,,1,,,64,81
162336,note_off,,,,,96,0,2,,,1,,,64,64
162360,note_on,,,,,24,0,2,,,1,,,55,81
162456,note_off,,,,,96,0,2,,,1,,,55,64
162480,note_on,,,,,24,0,2,,,1,,,64,81
162528,note_off,,,,,288,0,1,,,0,,,83,64
162576,note_off,,,,,96,0,2,,,1,,,64,64
162600,note_on,,,,,72,0,1,,,0,,,84,81
162600,note_on,,,,,24,0,2,,,1,,,55,81
162624,note_off,,,,,0,0,1,,,0,,,72,64
162624,note_off,,,,,24,0,1,,,0,,,79,64
162696,note_off,,,,,96,0,2,,,1,,,55,64
162696,note_off,,,,,72,0,1,,,0,,,84,64
162720,note_on,,,,,0,0,1,,,0,,,86,81
162720,note_on,,,,,24,0,1,,,0,,,83,81
162720,note_on,,,,,0,0,1,,,0,,,74,81
162720,note_on,,,,,0,0,1,,,0,,,77,81
162720,note_on,,,,,24,0,2,,,1,,,62,81
162816,note_off,,,,,96,0,2,,,1,,,62,64
162840,note_on,,,,,24,0,2,,,1,,,55,81
162936,note_off,,,,,96,0,2,,,1,,,55,64
162960,note_on,,,,,24,0,2,,,1,,,62,81
163056,note_off,,,,,96,0,2,,,1,,,62,64
163080,note_on,,,,,24,0,2,,,1,,,55,81
163104,note_off,,,,,0,0,1,,,0,,,83,64
163104,note_off,,,,,0,0,1,,,0,,,77,64
163104,note_off,,,,,384,0,1,,,0,,,74,64
163176,note_off,,,,,96,0,2,,,1,,,55,64
163200,note_on,,,,,0,0,1,,,0,,,79,91
163200,note_on,,,,,24,0,2,,,1,,,60,91
163200,note_on,,,,,96,0,1,,,0,,,76,91
163296,note_off,,,,,96,0,2,,,1,,,60,64
163320,note_on,,,,,24,0,2,,,1,,,55,91
163416,note_off,,,,,96,0,2,,,1,,,55,64
163440,note_on,,,,,24,0,2,,,1,,,60,91
163488,note_off,,,,,288,0,1,,,0,,,86,64
163536,note_off,,,,,96,0,2,,,1,,,60,64
163560,note_on,,,,,72,0,1,,,0,,,88,91
163560,note_on,,,,,24,0,2,,,1,,,55,91
163584,note_off,,,,,24,0,1,,,0,,,79,64
163584,note_off,,,,,0,0,1,,,0,,,76,64
163656,note_off,,,,,96,0,2,,,1,,,55,64
163656,note_off,,,,,72,0,1,,,0,,,88,64
163680,note_on,,,,,24,0,2,,,1,,,59,91
163680,note_on,,,,,0,0,1,,,0,,,89,91
163680,note_on,,,,,0,0,1,,,0,,,77,91
163680,note_on,,,,,24,0,1,,,0,,,86,91
163776,note_off,,,,,96,0,2,,,1,,,59,64
163800,note_on,,,,,24,0,2,,,1,,,55,91
163896,note_off,,,,,96,0,2,,,1,,,55,64
163920,note_on,,,,,24,0,2,,,1,,,59,91
164016,note_off,,,,,96,0,2,,,1,,,59,64
164040,note_on,,,,,24,0,2,,,1,,,55,91
164136,note_off,,,,,96,0,2,,,1,,,55,64
164160,note_on,,,,,24,0,2,,,1,,,67,91
164256,note_off,,,,,96,0,2,,,1,,,67,64
164256,note_off,,,,,576,0,1,,,0,,,77,64
164256,note_off,,,,,0,0,1,,,0,,,89,64
164256,note_off,,,,,0,0,1,,,0,,,86,64
164280,note_on,,,,,24,0,2,,,1,,,55,91
164280,note_on,,,,,0,0,1,,,0,,,85,91
164280,note_on,,,,,0,0,1,,,0,,,76,91
164280,note_on,,,,,24,0,1,,,0,,,88,91
164376,note_off,,,,,96,0,1,,,0,,,76,64
164376,note_off,,,,,0,0,1,,,0,,,85,64
164376,note_off,,,,,0,0,1,,,0,,,88,64
164376,note_off,,,,,96,0,2,,,1,,,55,64
164400,note_on,,,,,24,0,2,,,1,,,67,91
164400,note_on,,,,,0,0,1,,,0,,,77,91
164400,note_on,,,,,0,0,1,,,0,,,86,91
164400,note_on,,,,,24,0,1,,,0,,,89,91
164496,note_off,,,,,96,0,1,,,0,,,77,64
164496,note_off,,,,,0,0,1,,,0,,,86,64
164496,note_off,,,,,0,0,1,,,0,,,89,64
164496,note_off,,,,,96,0,2,,,1,,,67,64
164520,note_on,,,,,24,0,1,,,0,,,85,91
164520,note_on,,,,,0,0,1,,,0,,,88,91
164520,note_on,,,,,0,0,1,,,0,,,76,91
164520,note_on,,,,,24,0,2,,,1,,,55,91
164616,note_off,,,,,96,0,1,,,0,,,76,64
164616,note_off,,,,,0,0,1,,,0,,,88,64
164616,note_off,,,,,0,0,1,,,0,,,85,64
164616,note_off,,,,,96,0,2,,,1,,,55,64
164640,note_on,,,,,24,0,1,,,0,,,77,91
164640,note_on,,,,,0,0,1,,,0,,,86,91
164640,note_on,,,,,24,0,2,,,1,,,67,91
164640,note_on,,,,,0,0,1,,,0,,,89,91
164736,note_off,,,,,96,0,2,,,1,,,67,64
164736,note_off,,,,,96,0,1,,,0,,,89,64
164736,note_off,,,,,0,0,1,,,0,,,77,64
164736,note_off,,,,,0,0,1,,,0,,,86,64
164760,note_on,,,,,24,0,2,,,1,,,55,91
164760,note_on,,,,,0,0,1,,,0,,,88,91
164760,note_on,,,,,24,0,1,,,0,,,85,91
164760,note_on,,,,,0,0,1,,,0,,,76,91
164856,note_off,,,,,96,0,2,,,1,,,55,64
164856,note_off,,,,,0,0,1,,,0,,,76,64
164856,note_off,,,,,96,0,1,,,0,,,88,64
164856,note_off,,,,,0,0,1,,,0,,,85,64
164880,note_on,,,,,24,0,1,,,0,,,86,91
164880,note_on,,,,,0,0,1,,,0,,,89,91
164880,note_on,,,,,0,0,1,,,0,,,77,91
164880,note_on,,,,,24,0,2,,,1,,,67,91
164976,note_off,,,,,96,0,2,,,1,,,67,64
164976,note_off,,,,,96,0,1,,,0,,,89,64
164976,note_off,,,,,0,0,1,,,0,,,77,64
164976,note_off,,,,,0,0,1,,,0,,,86,64
165000,note_on,,,,,24,0,2,,,1,,,55,91
165000,note_on,,,,,0,0,1,,,0,,,85,91
165000,note_on,,,,,0,0,1,,,0,,,76,91
165000,note_on,,,,,24,0,1,,,0,,,88,91
165096,note_off,,,,,0,0,1,,,0,,,85,64
165096,note_off,,,,,0,0,1,,,0,,,88,64
165096,note_off,,,,,96,0,2,,,1,,,55,64
165096,note_off,,,,,96,0,1,,,0,,,76,64
165120,note_on,,,,,0,0,2,,,1,,,71,104
165120,note_on,,,,,24,0,1,,,0,,,91,104
165120,note_on,,,,,0,0,1,,,0,,,101,104
165120,note_on,,,,,0,0,1,,,0,,,89,104
165120,note_on,,,,,24,0,2,,,1,,,55,104
165120,note_on,,,,,0,0,2,,,1,,,65,104
165120,note_on,,,,,0,0,2,,,1,,,62,104
165168,note_off,,,,,0,0,1,,,0,,,91,64
165168,note_off,,,,,48,0,1,,,0,,,89,64
165168,note_off,,,,,0,0,1,,,0,,,101,64
165180,note_on,,,,,12,0,1,,,0,,,98,104
165216,note_off,,,,,0,0,2,,,1,,,55,64
165216,note_off,,,,,0,0,2,,,1,,,65,64
165216,note_off,,,,,96,0,2,,,1,,,71,64
165216,note_off,,,,,0,0,2,,,1,,,62,64
165228,note_off,,,,,48,0,1,,,0,,,98,64
165240,note_on,,,,,12,0,1,,,0,,,95,104
165240,note_on,,,,,0,0,2,,,1,,,76,104
165240,note_on,,,,,24,0,2,,,1,,,64,104
165288,note_off,,,,,48,0,1,,,0,,,95,64
165300,note_on,,,,,12,0,1,,,0,,,91,104
165336,note_off,,,,,0,0,2,,,1,,,64,64
165336,note_off,,,,,96,0,2,,,1,,,76,64
165348,note_off,,,,,48,0,1,,,0,,,91,64
165360,note_on,,,,,24,0,2,,,1,,,77,104
165360,note_on,,,,,0,0,2,,,1,,,65,104
165360,note_on,,,,,12,0,1,,,0,,,89,104
165408,note_off,,,,,48,0,1,,,0,,,89,64
165420,note_on,,,,,12,0,1,,,0,,,86,104
165456,note_off,,,,,0,0,2,,,1,,,77,64
165456,note_off,,,,,96,0,2,,,1,,,65,64
165468,note_off,,,,,48,0,1,,,0,,,86,64
165480,note_on,,,,,0,0,2,,,1,,,61,104
165480,note_on,,,,,12,0,1,,,0,,,83,104
165480,note_on,,,,,24,0,2,,,1,,,73,104
165528,note_off,,,,,48,0,1,,,0,,,83,64
165540,note_on,,,,,12,0,1,,,0,,,79,104
165576,note_off,,,,,96,0,2,,,1,,,61,64
165576,note_off,,,,,0,0,2,,,1,,,73,64
165588,note_off,,,,,48,0,1,,,0,,,79,64
165600,note_on,,,,,24,0,2,,,1,,,74,104
165600,note_on,,,,,0,0,2,,,1,,,62,104
165600,note_on,,,,,12,0,1,,,0,,,89,104
165648,note_off,,,,,48,0,1,,,0,,,89,64
165660,note_on,,,,,12,0,1,,,0,,,86,104
165696,note_off,,,,,96,0,2,,,1,,,62,64
165696,note_off,,,,,0,0,2,,,1,,,74,64
165708,note_off,,,,,48,0,1,,,0,,,86,64
165720,note_on,,,,,12,0,1,,,0,,,83,104
165768,note_off,,,,,48,0,1,,,0,,,83,64
165780,note_on,,,,,12,0,1,,,0,,,79,104
165828,note_off,,,,,48,0,1,,,0,,,79,64
165840,note_on,,,,,12,0,1,,,0,,,77,104
165888,note_off,,,,,48,0,1,,,0,,,77,64
165900,note_on,,,,,12,0,1,,,0,,,74,104
165948,note_off,,,,,48,0,1,,,0,,,74,64
165960,note_on,,,,,12,0,1,,,0,,,71,104
166008,note_off,,,,,48,0,1,,,0,,,71,64
166020,note_on,,,,,12,0,1,,,0,,,67,104
166068,note_off,,,,,48,0,1,,,0,,,67,64
166080,note_on,,,,,12,0,1,,,0,,,77,104
166128,note_off,,,,,48,0,1,,,0,,,77,64
166140,note_on,,,,,12,0,1,,,0,,,74,104
166188,note_off,,,,,48,0,1,,,0,,,74,64
166200,note_on,,,,,504,0,2,,,1,,,52,104
166200,note_on,,,,,12,0,1,,,0,,,71,104
166248,note_off,,,,,48,0,1,,,0,,,71,64
166260,note_on,,,,,12,0,1,,,0,,,67,104
166296,note_off,,,,,96,0,2,,,1,,,52,64
166308,note_off,,,,,48,0,1,,,0,,,67,64
166320,note_on,,,,,24,0,2,,,1,,,53,104
166320,note_on,,,,,12,0,1,,,0,,,65,104
166368,note_off,,,,,48,0,1,,,0,,,65,64
166380,note_on,,,,,12,0,1,,,0,,,62,104
166416,note_off,,,,,96,0,2,,,1,,,53,64
166428,note_off,,,,,48,0,1,,,0,,,62,64
166440,note_on,,,,,12,0,1,,,0,,,59,104
166440,note_on,,,,,24,0,2,,,1,,,49,104
166488,note_off,,,,,48,0,1,,,0,,,59,64
166500,note_on,,,,,12,0,1,,,0,,,55,104
166536,note_off,,,,,96,0,2,,,1,,,49,64
166548,note_off,,,,,48,0,1,,,0,,,55,64
166560,note_on,,,,,12,0,1,,,0,,,65,104
166560,note_on,,,,,24,0,2,,,1,,,50,104
166608,note_off,,,,,48,0,1,,,0,,,65,64
166620,note_on,,,,,12,0,1,,,0,,,62,104
166656,note_off,,,,,96,0,2,,,1,,,50,64
166668,note_off,,,,,48,0,1,,,0,,,62,64
166680,note_on,,,,,12,0,1,,,0,,,59,104
166728,note_off,,,,,48,0,1,,,0,,,59,64
166740,note_on,,,,,12,0,1,,,0,,,55,104
166788,note_off,,,,,48,0,1,,,0,,,55,64
166800,note_on,,,,,144,0,2,,,1,,,53,104
166848,note_off,,,,,48,0,2,,,1,,,53,64
166860,note_on,,,,,12,0,2,,,1,,,50,104
166908,note_off,,,,,48,0,2,,,1,,,50,64
166920,note_on,,,,,12,0,2,,,1,,,47,104
166968,note_off,,,,,48,0,2,,,1,,,47,64
166980,note_on,,,,,12,0,2,,,1,,,43,104
167028,note_off,,,,,48,0,2,,,1,,,43,64
167040,note_on,,,,,12,0,2,,,1,,,31,71
167040,note_on,,,,,252,0,1,,,0,,,67,71
167040,note_on,,,,,0,0,1,,,0,,,63,71
167136,note_off,,,,,96,0,2,,,1,,,31,64
167160,note_on,,,,,120,0,1,,,0,,,55,71
167256,note_off,,,,,96,0,1,,,0,,,55,64
167280,note_on,,,,,24,0,1,,,0,,,56,71
167376,note_off,,,,,96,0,1,,,0,,,56,64
167400,note_on,,,,,24,0,1,,,0,,,55,71
167424,note_off,,,,,24,0,1,,,0,,,63,64
167424,note_off,,,,,0,0,1,,,0,,,67,64
167496,note_off,,,,,72,0,1,,,0,,,55,64
167520,note_on,,,,,384,0,2,,,1,,,62,71
167520,note_on,,,,,0,0,2,,,1,,,65,71
167640,note_on,,,,,120,0,2,,,1,,,55,71
167712,note_off,,,,,72,0,2,,,1,,,65,64
167712,note_off,,,,,0,0,2,,,1,,,62,64
167736,note_off,,,,,24,0,2,,,1,,,55,64
167760,note_on,,,,,24,0,2,,,1,,,63,71
167760,note_on,,,,,0,0,2,,,1,,,67,71
167880,note_on,,,,,120,0,2,,,1,,,55,71
167952,note_off,,,,,72,0,2,,,1,,,67,64
167952,note_off,,,,,0,0,2,,,1,,,63,64
167976,note_off,,,,,24,0,2,,,1,,,55,64
168000,note_on,,,,,504,0,1,,,0,,,79,71
168000,note_on,,,,,24,0,2,,,1,,,68,71
168000,note_on,,,,,0,0,2,,,1,,,65,71
168120,note_on,,,,,120,0,2,,,1,,,55,71
168216,note_off,,,,,96,0,2,,,1,,,55,64
168240,note_on,,,,,24,0,2,,,1,,,56,71
168288,note_off,,,,,0,0,2,,,1,,,68,64
168288,note_off,,,,,48,0,2,,,1,,,65,64
168336,note_off,,,,,48,0,2,,,1,,,56,64
168360,note_on,,,,,24,0,2,,,1,,,55,71
168360,note_on,,,,,0,0,2,,,1,,,62,71
168360,note_on,,,,,0,0,2,,,1,,,65,71
168384,note_off,,,,,384,0,1,,,0,,,79,64
168456,note_off,,,,,96,0,2,,,1,,,65,64
168456,note_off,,,,,0,0,2,,,1,,,62,64
168456,note_off,,,,,0,0,2,,,1,,,55,64
168480,note_on,,,,,96,0,1,,,0,,,77,71
168480,note_on,,,,,24,0,2,,,1,,,59,71
168480,note_on,,,,,0,0,2,,,1,,,62,71
168600,note_on,,,,,120,0,2,,,1,,,55,71
168672,note_off,,,,,0,0,2,,,1,,,59,64
168672,note_off,,,,,72,0,2,,,1,,,62,64
168672,note_off,,,,,192,0,1,,,0,,,77,64
168696,note_off,,,,,24,0,2,,,1,,,55,64
168720,note_on,,,,,48,0,1,,,0,,,79,71
168720,note_on,,,,,24,0,2,,,1,,,60,71
168720,note_on,,,,,0,0,2,,,1,,,63,71
168840,note_on,,,,,120,0,2,,,1,,,55,71
168912,note_off,,,,,192,0,1,,,0,,,79,64
168912,note_off,,,,,72,0,2,,,1,,,63,64
168912,note_off,,,,,0,0,2,,,1,,,60,64
168936,note_off,,,,,24,0,2,,,1,,,55,64
168960,note_on,,,,,0,0,2,,,1,,,65,71
168960,note_on,,,,,48,0,1,,,0,,,80,71
168960,note_on,,,,,24,0,2,,,1,,,62,71
169080,note_on,,,,,120,0,2,,,1,,,55,71
169152,note_off,,,,,72,0,2,,,1,,,65,64
169152,note_off,,,,,0,0,2,,,1,,,62,64
169176,note_off,,,,,24,0,2,,,1,,,55,64
169200,note_on,,,,,0,0,2,,,1,,,60,71
169200,note_on,,,,,24,0,2,,,1,,,63,71
169248,note_off,,,,,288,0,1,,,0,,,80,64
169320,note_on,,,,,120,0,2,,,1,,,55,71
169320,note_on,,,,,72,0,1,,,0,,,77,71
169392,note_off,,,,,72,0,2,,,1,,,60,64
169392,note_off,,,,,0,0,2,,,1,,,63,64
169416,note_off,,,,,96,0,1,,,0,,,77,64
169416,note_off,,,,,24,0,2,,,1,,,55,64
169440,note_on,,,,,24,0,2,,,1,,,58,71
169440,note_on,,,,,0,0,2,,,1,,,62,71
169440,note_on,,,,,24,0,1,,,0,,,74,71
169560,note_on,,,,,120,0,2,,,1,,,55,71
169632,note_off,,,,,192,0,1,,,0,,,74,64
169632,note_off,,,,,72,0,2,,,1,,,62,64
169632,note_off,,,,,0,0,2,,,1,,,58,64
169656,note_off,,,,,24,0,2,,,1,,,55,64
169680,note_on,,,,,48,0,1,,,0,,,75,71
169680,note_on,,,,,0,0,2,,,1,,,56,71
169680,note_on,,,,,24,0,2,,,1,,,60,71
169800,note_on,,,,,120,0,2,,,1,,,55,71
169872,note_off,,,,,192,0,1,,,0,,,75,64
169872,note_off,,,,,72,0,2,,,1,,,56,64
169872,note_off,,,,,0,0,2,,,1,,,60,64
169896,note_off,,,,,24,0,2,,,1,,,55,64
169920,note_on,,,,,24,0,2,,,1,,,59,71
169920,note_on,,,,,48,0,1,,,0,,,74,71
169920,note_on,,,,,0,0,1,,,0,,,77,71
170040,note_on,,,,,120,0,2,,,1,,,55,71
170112,note_off,,,,,192,0,1,,,0,,,77,64
170112,note_off,,,,,0,0,1,,,0,,,74,64
170136,note_off,,,,,96,0,2,,,1,,,55,64
170160,note_on,,,,,48,0,1,,,0,,,75,71
170160,note_on,,,,,0,0,1,,,0,,,72,71
170160,note_on,,,,,24,0,2,,,1,,,56,71
170208,note_off,,,,,48,0,2,,,1,,,59,64
170256,note_off,,,,,48,0,2,,,1,,,56,64
170280,note_on,,,,,24,0,2,,,1,,,55,71
170280,note_on,,,,,0,0,2,,,1,,,60,71
170352,note_off,,,,,0,0,1,,,0,,,75,64
170352,note_off,,,,,192,0,1,,,0,,,72,64
170376,note_off,,,,,96,0,2,,,1,,,60,64
170376,note_off,,,,,0,0,2,,,1,,,55,64
170400,note_on,,,,,0,0,1,,,0,,,70,71
170400,note_on,,,,,48,0,1,,,0,,,74,71
170400,note_on,,,,,24,0,2,,,1,,,62,71
170520,note_on,,,,,120,0,2,,,1,,,55,71
170592,note_off,,,,,192,0,1,,,0,,,70,64
170592,note_off,,,,,72,0,2,,,1,,,62,64
170592,note_off,,,,,0,0,1,,,0,,,74,64
170616,note_off,,,,,24,0,2,,,1,,,55,64
170640,note_on,,,,,0,0,1,,,0,,,68,71
170640,note_on,,,,,48,0,1,,,0,,,72,71
170760,note_on,,,,,144,0,2,,,1,,,55,71
170832,note_off,,,,,192,0,1,,,0,,,68,64
170832,note_off,,,,,0,0,1,,,0,,,72,64
170856,note_off,,,,,96,0,2,,,1,,,55,64
170880,note_on,,,,,24,0,2,,,1,,,62,71
170880,note_on,,,,,48,0,1,,,0,,,71,71
170880,note_on,,,,,0,0,2,,,1,,,67,71
171000,note_on,,,,,120,0,2,,,1,,,55,71
171096,note_off,,,,,96,0,2,,,1,,,55,64
171120,note_on,,,,,24,0,2,,,1,,,56,71
171168,note_off,,,,,288,0,1,,,0,,,71,64
171216,note_off,,,,,96,0,2,,,1,,,56,64
171240,note_on,,,,,72,0,1,,,0,,,69,71
171240,note_on,,,,,0,0,1,,,0,,,72,71
171240,note_on,,,,,24,0,2,,,1,,,55,71
171264,note_off,,,,,24,0,2,,,1,,,67,64
171264,note_off,,,,,0,0,2,,,1,,,62,64
171336,note_off,,,,,96,0,1,,,0,,,72,64
171336,note_off,,,,,72,0,2,,,1,,,55,64
171336,note_off,,,,,0,0,1,,,0,,,69,64
171360,note_on,,,,,24,0,1,,,0,,,74,71
171360,note_on,,,,,24,0,2,,,1,,,65,71
171360,note_on,,,,,0,0,2,,,1,,,62,71
171480,note_on,,,,,120,0,2,,,1,,,55,71
171552,note_off,,,,,192,0,1,,,0,,,74,64
171552,note_off,,,,,72,0,2,,,1,,,62,64
171552,note_off,,,,,0,0,2,,,1,,,65,64
171576,note_off,,,,,24,0,2,,,1,,,55,64
171600,note_on,,,,,24,0,2,,,1,,,63,71
171600,note_on,,,,,0,0,2,,,1,,,67,71
171720,note_on,,,,,120,0,2,,,1,,,55,71
171792,note_off,,,,,72,0,2,,,1,,,67,64
171792,note_off,,,,,0,0,2,,,1,,,63,64
171816,note_off,,,,,24,0,2,,,1,,,55,64
171840,note_on,,,,,24,0,2,,,1,,,70,71
171840,note_on,,,,,288,0,1,,,0,,,75,71
171840,note_on,,,,,0,0,1,,,0,,,79,71
171840,note_on,,,,,0,0,2,,,1,,,67,71
171936,note_off,,,,,96,0,2,,,1,,,67,64
171960,note_on,,,,,24,0,2,,,1,,,55,71
172056,note_off,,,,,96,0,2,,,1,,,55,64
172080,note_on,,,,,24,0,2,,,1,,,56,71
172128,note_off,,,,,48,0,2,,,1,,,70,64
172128,note_off,,,,,0,0,1,,,0,,,75,64
172128,note_off,,,,,288,0,1,,,0,,,79,64
172176,note_off,,,,,48,0,2,,,1,,,56,64
172200,note_on,,,,,0,0,2,,,1,,,55,71
172200,note_on,,,,,72,0,1,,,0,,,77,71
172200,note_on,,,,,0,0,1,,,0,,,74,71
172200,note_on,,,,,24,0,2,,,1,,,68,71
172296,note_off,,,,,96,0,2,,,1,,,55,64
172296,note_off,,,,,0,0,2,,,1,,,68,64
172320,note_on,,,,,24,0,2,,,1,,,65,71
172440,note_on,,,,,120,0,2,,,1,,,55,71
172488,note_off,,,,,288,0,1,,,0,,,74,64
172488,note_off,,,,,0,0,1,,,0,,,77,64
172512,note_off,,,,,72,0,2,,,1,,,65,64
172536,note_off,,,,,24,0,2,,,1,,,55,64
172560,note_on,,,,,0,0,2,,,1,,,67,71
172560,note_on,,,,,24,0,2,,,1,,,70,71
172560,note_on,,,,,0,0,1,,,0,,,79,71
172560,note_on,,,,,72,0,1,,,0,,,75,71
172656,note_off,,,,,96,0,2,,,1,,,67,64
172656,note_off,,,,,0,0,2,,,1,,,70,64
172680,note_on,,,,,24,0,2,,,1,,,68,71
172680,note_on,,,,,0,0,2,,,1,,,65,71
172776,note_off,,,,,96,0,2,,,1,,,65,64
172776,note_off,,,,,0,0,2,,,1,,,68,64
172785,note_off,,,,,225,0,1,,,0,,,79,64
172785,note_off,,,,,0,0,1,,,0,,,75,64
172800,note_on,,,,,15,0,1,,,0,,,82,71
172800,note_on,,,,,0,0,1,,,0,,,75,71
172800,note_on,,,,,0,0,2,,,1,,,67,71
172800,note_on,,,,,24,0,2,,,1,,,63,71
172896,note_off,,,,,96,0,2,,,1,,,63,64
172920,note_on,,,,,24,0,2,,,1,,,55,71
172992,note_off,,,,,72,0,2,,,1,,,67,64
173016,note_off,,,,,24,0,2,,,1,,,55,64
173040,note_on,,,,,24,0,2,,,1,,,60,71
173040,note_on,,,,,0,0,2,,,1,,,63,71
173088,note_off,,,,,288,0,1,,,0,,,82,64
173136,note_off,,,,,96,0,2,,,1,,,60,64
173160,note_on,,,,,24,0,2,,,1,,,55,71
173160,note_on,,,,,72,0,1,,,0,,,80,71
173184,note_off,,,,,24,0,1,,,0,,,75,64
173232,note_off,,,,,72,0,2,,,1,,,63,64
173256,note_off,,,,,24,0,2,,,1,,,55,64
173256,note_off,,,,,72,0,1,,,0,,,80,64
173280,note_on,,,,,24,0,2,,,1,,,62,71
173280,note_on,,,,,24,0,1,,,0,,,74,71
173280,note_on,,,,,0,0,1,,,0,,,77,71
173280,note_on,,,,,0,0,2,,,1,,,65,71
173376,note_off,,,,,96,0,2,,,1,,,62,64
173400,note_on,,,,,24,0,2,,,1,,,55,71
173472,note_off,,,,,192,0,1,,,0,,,77,64
173472,note_off,,,,,0,0,1,,,0,,,74,64
173472,note_off,,,,,72,0,2,,,1,,,65,64
173496,note_off,,,,,24,0,2,,,1,,,55,64
173520,note_on,,,,,48,0,1,,,0,,,77,71
173520,note_on,,,,,0,0,2,,,1,,,59,71
173520,note_on,,,,,24,0,2,,,1,,,62,71
173520,note_on,,,,,0,0,1,,,0,,,80,71
173616,note_off,,,,,96,0,2,,,1,,,59,64
173640,note_on,,,,,24,0,2,,,1,,,55,71
173712,note_off,,,,,192,0,1,,,0,,,80,64
173712,note_off,,,,,0,0,1,,,0,,,77,64
173712,note_off,,,,,72,0,2,,,1,,,62,64
173736,note_off,,,,,24,0,2,,,1,,,55,64
173760,note_on,,,,,24,0,2,,,1,,,63,71
173760,note_on,,,,,0,0,2,,,1,,,60,71
173760,note_on,,,,,48,0,1,,,0,,,75,71
173760,note_on,,,,,0,0,1,,,0,,,79,71
173856,note_off,,,,,96,0,2,,,1,,,60,64
173880,note_on,,,,,24,0,2,,,1,,,55,71
173952,note_off,,,,,72,0,2,,,1,,,63,64
173952,note_off,,,,,192,0,1,,,0,,,79,64
173952,note_off,,,,,0,0,1,,,0,,,75,64
173976,note_off,,,,,24,0,2,,,1,,,55,64
174000,note_on,,,,,24,0,2,,,1,,,60,71
174000,note_on,,,,,0,0,1,,,0,,,75,71
174000,note_on,,,,,48,0,1,,,0,,,72,71
174000,note_on,,,,,0,0,2,,,1,,,57,71
174096,note_off,,,,,96,0,2,,,1,,,57,64
174120,note_on,,,,,24,0,2,,,1,,,55,71
174192,note_off,,,,,72,0,2,,,1,,,60,64
174192,note_off,,,,,0,0,1,,,0,,,72,64
174192,note_off,,,,,192,0,1,,,0,,,75,64
174216,note_off,,,,,24,0,2,,,1,,,55,64
174240,note_on,,,,,48,0,1,,,0,,,77,71
174240,note_on,,,,,0,0,1,,,0,,,74,71
174240,note_on,,,,,0,0,2,,,1,,,62,71
174240,note_on,,,,,24,0,2,,,1,,,59,71
174336,note_off,,,,,96,0,2,,,1,,,59,64
174360,note_on,,,,,24,0,2,,,1,,,55,71
174432,note_off,,,,,192,0,1,,,0,,,74,64
174432,note_off,,,,,72,0,2,,,1,,,62,64
174432,note_off,,,,,0,0,1,,,0,,,77,64
174456,note_off,,,,,24,0,2,,,1,,,55,64
174480,note_on,,,,,48,0,1,,,0,,,71,71
174480,note_on,,,,,0,0,1,,,0,,,74,71
174600,note_on,,,,,144,0,2,,,1,,,55,71
174672,note_off,,,,,192,0,1,,,0,,,74,64
174672,note_off,,,,,0,0,1,,,0,,,71,64
174720,note_on,,,,,120,0,2,,,1,,,51,58
174720,note_on,,,,,48,0,1,,,0,,,75,58
174720,note_on,,,,,0,0,1,,,0,,,72,58
174720,note_on,,,,,0,0,2,,,1,,,60,58
174816,note_off,,,,,96,0,1,,,0,,,72,64
174840,note_on,,,,,24,0,1,,,0,,,67,58
174936,note_off,,,,,96,0,1,,,0,,,67,64
174960,note_on,,,,,24,0,1,,,0,,,72,58
175056,note_off,,,,,96,0,1,,,0,,,72,64
175080,note_on,,,,,24,0,1,,,0,,,67,58
175104,note_off,,,,,0,0,2,,,1,,,51,64
175104,note_off,,,,,0,0,2,,,1,,,55,64
175104,note_off,,,,,384,0,2,,,1,,,60,64
175104,note_off,,,,,24,0,1,,,0,,,75,64
175176,note_off,,,,,72,0,1,,,0,,,67,64
175200,note_on,,,,,0,0,2,,,1,,,56,58
175200,note_on,,,,,0,0,2,,,1,,,61,58
175200,note_on,,,,,96,0,2,,,1,,,53,58
175200,note_on,,,,,24,0,1,,,0,,,73,58
175200,note_on,,,,,0,0,1,,,0,,,68,58
175296,note_off,,,,,96,0,1,,,0,,,68,64
175320,note_on,,,,,24,0,1,,,0,,,65,58
175416,note_off,,,,,96,0,1,,,0,,,65,64
175440,note_on,,,,,24,0,1,,,0,,,68,58
175536,note_off,,,,,96,0,1,,,0,,,68,64
175560,note_on,,,,,24,0,1,,,0,,,65,58
175584,note_off,,,,,24,0,1,,,0,,,73,64
175584,note_off,,,,,0,0,2,,,1,,,53,64
175584,note_off,,,,,0,0,2,,,1,,,61,64
175584,note_off,,,,,384,0,2,,,1,,,56,64
175656,note_off,,,,,72,0,1,,,0,,,65,64
175680,note_on,,,,,96,0,2,,,1,,,62,58
175680,note_on,,,,,0,0,1,,,0,,,67,58
175680,note_on,,,,,24,0,1,,,0,,,71,58
175680,note_on,,,,,0,0,2,,,1,,,55,58
175776,note_off,,,,,96,0,1,,,0,,,67,64
175800,note_on,,,,,24,0,1,,,0,,,59,58
175896,note_off,,,,,96,0,1,,,0,,,59,64
175920,note_on,,,,,24,0,1,,,0,,,67,58
176016,note_off,,,,,96,0,1,,,0,,,67,64
176040,note_on,,,,,24,0,1,,,0,,,59,58
176064,note_off,,,,,24,0,1,,,0,,,71,64
176064,note_off,,,,,384,0,2,,,1,,,55,64
176064,note_off,,,,,0,0,2,,,1,,,62,64
176136,note_off,,,,,72,0,1,,,0,,,59,64
176160,note_on,,,,,24,0,1,,,0,,,67,58
176256,note_off,,,,,96,0,1,,,0,,,67,64
176280,note_on,,,,,24,0,1,,,0,,,59,58
176376,note_off,,,,,96,0,1,,,0,,,59,64
176400,note_on,,,,,24,0,1,,,0,,,55,58
176520,note_on,,,,,456,0,2,,,1,,,43,58
176592,note_off,,,,,192,0,1,,,0,,,55,64
176640,note_on,,,,,120,0,2,,,1,,,48,58
176640,note_on,,,,,48,0,1,,,0,,,75,58
176640,note_on,,,,,0,0,1,,,0,,,72,58
176640,note_on,,,,,0,0,2,,,1,,,39,58
176768,note_off,,,,,128,0,1,,,0,,,72,64
176800,note_on,,,,,32,0,1,,,0,,,67,58
176928,note_off,,,,,128,0,1,,,0,,,67,64
176960,note_on,,,,,32,0,1,,,0,,,72,58
177024,note_off,,,,,384,0,2,,,1,,,39,64
177024,note_off,,,,,0,0,2,,,1,,,43,64
177024,note_off,,,,,0,0,2,,,1,,,48,64
177024,note_off,,,,,64,0,1,,,0,,,75,64
177088,note_off,,,,,64,0,1,,,0,,,72,64
177120,note_on,,,,,32,0,1,,,0,,,73,58
177120,note_on,,,,,96,0,2,,,1,,,41,58
177120,note_on,,,,,0,0,2,,,1,,,49,58
177120,note_on,,,,,0,0,2,,,1,,,44,58
177120,note_on,,,,,0,0,1,,,0,,,68,58
177248,note_off,,,,,128,0,1,,,0,,,68,64
177280,note_on,,,,,32,0,1,,,0,,,65,58
177408,note_off,,,,,128,0,1,,,0,,,65,64
177440,note_on,,,,,32,0,1,,,0,,,68,58
177504,note_off,,,,,0,0,2,,,1,,,41,64
177504,note_off,,,,,0,0,2,,,1,,,49,64
177504,note_off,,,,,384,0,2,,,1,,,44,64
177504,note_off,,,,,64,0,1,,,0,,,73,64
177568,note_off,,,,,64,0,1,,,0,,,68,64
177600,note_on,,,,,0,0,1,,,0,,,71,58
177600,note_on,,,,,96,0,2,,,1,,,43,58
177600,note_on,,,,,0,0,2,,,1,,,50,58
177600,note_on,,,,,32,0,1,,,0,,,67,58
177728,note_off,,,,,128,0,1,,,0,,,67,64
177760,note_on,,,,,32,0,1,,,0,,,59,58
177888,note_off,,,,,128,0,1,,,0,,,59,64
177920,note_on,,,,,32,0,1,,,0,,,67,58
177984,note_off,,,,,384,0,2,,,1,,,50,64
177984,note_off,,,,,0,0,2,,,1,,,43,64
178048,note_off,,,,,128,0,1,,,0,,,67,64
178080,note_on,,,,,32,0,1,,,0,,,55,58
178176,note_off,,,,,96,0,1,,,0,,,55,64
178176,note_off,,,,,0,0,1,,,0,,,71,64
178320,note_on,,,,,336,0,2,,,1,,,31,58
178320,note_on,,,,,0,0,2,,,1,,,43,58
178512,note_off,,,,,192,0,2,,,1,,,43,64
178512,note_off,,,,,0,0,2,,,1,,,31,64
178560,note_on,,,,,0,0,1,,,0,,,70,104
178560,note_on,,,,,0,0,1,,,0,,,82,104
178560,note_on,,,,,384,0,1,,,0,,,75,104
178560,note_on,,,,,0,0,2,,,1,,,43,58
178560,note_on,,,,,48,0,2,,,1,,,55,58
178656,note_off,,,,,0,0,1,,,0,,,75,64
178656,note_off,,,,,0,0,1,,,0,,,82,64
178656,note_off,,,,,96,0,1,,,0,,,70,64
178680,note_on,,,,,24,0,1,,,0,,,70,104
178680,note_on,,,,,0,0,1,,,0,,,75,104
178680,note_on,,,,,0,0,1,,,0,,,82,104
178872,note_off,,,,,0,0,1,,,0,,,82,64
178872,note_off,,,,,0,0,1,,,0,,,70,64
178872,note_off,,,,,192,0,1,,,0,,,75,64
178920,note_on,,,,,48,0,1,,,0,,,70,104
178920,note_on,,,,,0,0,1,,,0,,,82,104
178920,note_on,,,,,0,0,1,,,0,,,75,104
178944,note_off,,,,,384,0,2,,,1,,,43,64
178944,note_off,,,,,0,0,2,,,1,,,55,64
179040,note_on,,,,,0,0,2,,,1,,,41,58
179040,note_on,,,,,96,0,2,,,1,,,53,58
179112,note_off,,,,,0,0,1,,,0,,,82,64
179112,note_off,,,,,0,0,1,,,0,,,70,64
179112,note_off,,,,,192,0,1,,,0,,,75,64
179160,note_on,,,,,48,0,1,,,0,,,74,104
179160,note_on,,,,,0,0,1,,,0,,,80,104
179160,note_on,,,,,0,0,1,,,0,,,70,104
179160,note_on,,,,,0,0,1,,,0,,,82,104
179232,note_off,,,,,192,0,2,,,1,,,41,64
179232,note_off,,,,,0,0,2,,,1,,,53,64
179280,note_on,,,,,0,0,2,,,1,,,55,58
179280,note_on,,,,,48,0,2,,,1,,,43,58
179352,note_off,,,,,0,0,1,,,0,,,74,64
179352,note_off,,,,,0,0,1,,,0,,,80,64
179352,note_off,,,,,0,0,1,,,0,,,70,64
179352,note_off,,,,,192,0,1,,,0,,,82,64
179400,note_on,,,,,0,0,1,,,0,,,70,104
179400,note_on,,,,,0,0,1,,,0,,,75,104
179400,note_on,,,,,48,0,1,,,0,,,79,104
179400,note_on,,,,,0,0,1,,,0,,,82,104
179472,note_off,,,,,0,0,2,,,1,,,43,64
179472,note_off,,,,,192,0,2,,,1,,,55,64
179520,note_on,,,,,48,0,2,,,1,,,44,58
179520,note_on,,,,,0,0,2,,,1,,,56,58
179616,note_off,,,,,0,0,1,,,0,,,70,64
179616,note_off,,,,,0,0,1,,,0,,,82,64
179616,note_off,,,,,0,0,1,,,0,,,79,64
179616,note_off,,,,,216,0,1,,,0,,,75,64
179640,note_on,,,,,0,0,1,,,0,,,74,104
179640,note_on,,,,,24,0,1,,,0,,,77,104
179640,note_on,,,,,0,0,1,,,0,,,82,104
179640,note_on,,,,,0,0,1,,,0,,,70,104
179808,note_off,,,,,288,0,2,,,1,,,56,64
179808,note_off,,,,,0,0,2,,,1,,,44,64
179832,note_off,,,,,192,0,1,,,0,,,82,64
179832,note_off,,,,,0,0,1,,,0,,,74,64
179832,note_off,,,,,0,0,1,,,0,,,70,64
179832,note_off,,,,,0,0,1,,,0,,,77,64
179880,note_on,,,,,72,0,2,,,1,,,53,58
179880,note_on,,,,,0,0,1,,,0,,,82,104
179880,note_on,,,,,0,0,2,,,1,,,41,58
179880,note_on,,,,,0,0,1,,,0,,,70,104
179880,note_on,,,,,48,0,1,,,0,,,80,104
179880,note_on,,,,,0,0,1,,,0,,,74,104
179976,note_off,,,,,96,0,2,,,1,,,41,64
179976,note_off,,,,,0,0,2,,,1,,,53,64
180000,note_on,,,,,24,0,2,,,1,,,50,58
180000,note_on,,,,,0,0,2,,,1,,,38,58
180072,note_off,,,,,192,0,1,,,0,,,82,64
180072,note_off,,,,,0,0,1,,,0,,,74,64
180072,note_off,,,,,0,0,1,,,0,,,70,64
180072,note_off,,,,,0,0,1,,,0,,,80,64
180120,note_on,,,,,0,0,1,,,0,,,70,104
180120,note_on,,,,,0,0,1,,,0,,,77,104
180120,note_on,,,,,0,0,1,,,0,,,80,104
180120,note_on,,,,,48,0,1,,,0,,,82,104
180192,note_off,,,,,192,0,2,,,1,,,38,64
180192,note_off,,,,,0,0,2,,,1,,,50,64
180240,note_on,,,,,48,0,2,,,1,,,39,58
180240,note_on,,,,,0,0,2,,,1,,,51,58
180312,note_off,,,,,0,0,1,,,0,,,82,64
180312,note_off,,,,,0,0,1,,,0,,,70,64
180312,note_off,,,,,0,0,1,,,0,,,80,64
180312,note_off,,,,,192,0,1,,,0,,,77,64
180360,note_on,,,,,0,0,1,,,0,,,75,104
180360,note_on,,,,,0,0,1,,,0,,,79,104
180360,note_on,,,,,48,0,1,,,0,,,82,104
180360,note_on,,,,,0,0,1,,,0,,,70,104
180432,note_off,,,,,0,0,2,,,1,,,39,64
180432,note_off,,,,,192,0,2,,,1,,,51,64
180480,note_on,,,,,0,0,2,,,1,,,53,58
180480,note_on,,,,,48,0,2,,,1,,,41,58
180576,note_off,,,,,216,0,1,,,0,,,70,64
180576,note_off,,,,,0,0,1,,,0,,,82,64
180576,note_off,,,,,0,0,1,,,0,,,79,64
180576,note_off,,,,,0,0,1,,,0,,,75,64
180600,note_on,,,,,0,0,1,,,0,,,74,104
180600,note_on,,,,,0,0,1,,,0,,,86,104
180600,note_on,,,,,0,0,1,,,0,,,80,104
180600,note_on,,,,,24,0,1,,,0,,,82,104
180672,note_off,,,,,0,0,2,,,1,,,41,64
180672,note_off,,,,,192,0,2,,,1,,,53,64
180720,note_on,,,,,48,0,2,,,1,,,39,58
180720,note_on,,,,,0,0,2,,,1,,,51,58
180792,note_off,,,,,0,0,1,,,0,,,86,64
180792,note_off,,,,,0,0,1,,,0,,,82,64
180792,note_off,,,,,0,0,1,,,0,,,80,64
180792,note_off,,,,,192,0,1,,,0,,,74,64
180840,note_on,,,,,48,0,1,,,0,,,75,104
180840,note_on,,,,,0,0,1,,,0,,,87,104
180840,note_on,,,,,0,0,1,,,0,,,82,104
180840,note_on,,,,,0,0,1,,,0,,,79,104
180912,note_off,,,,,0,0,2,,,1,,,39,64
180912,note_off,,,,,192,0,2,,,1,,,51,64
180960,note_on,,,,,0,0,2,,,1,,,38,58
180960,note_on,,,,,48,0,2,,,1,,,50,58
181032,note_off,,,,,0,0,1,,,0,,,75,64
181032,note_off,,,,,192,0,1,,,0,,,79,64
181032,note_off,,,,,0,0,1,,,0,,,82,64
181032,note_off,,,,,0,0,1,,,0,,,87,64
181080,note_on,,,,,0,0,1,,,0,,,89,104
181080,note_on,,,,,48,0,1,,,0,,,82,104
181080,note_on,,,,,0,0,1,,,0,,,80,104
181080,note_on,,,,,0,0,1,,,0,,,77,104
181152,note_off,,,,,192,0,2,,,1,,,38,64
181152,note_off,,,,,0,0,2,,,1,,,50,64
181200,note_on,,,,,0,0,2,,,1,,,48,58
181200,note_on,,,,,48,0,2,,,1,,,36,58
181272,note_off,,,,,0,0,1,,,0,,,80,64
181272,note_off,,,,,0,0,1,,,0,,,89,64
181272,note_off,,,,,0,0,1,,,0,,,82,64
181272,note_off,,,,,192,0,1,,,0,,,77,64
181320,note_on,,,,,48,0,1,,,0,,,87,104
181320,note_on,,,,,0,0,1,,,0,,,79,104
181320,note_on,,,,,0,0,1,,,0,,,91,104
181392,note_off,,,,,0,0,2,,,1,,,36,64
181392,note_off,,,,,192,0,2,,,1,,,48,64
181416,note_off,,,,,96,0,1,,,0,,,91,64
181416,note_off,,,,,0,0,1,,,0,,,79,64
181416,note_off,,,,,0,0,1,,,0,,,87,64
181440,note_on,,,,,48,0,2,,,1,,,47,58
181440,note_on,,,,,24,0,1,,,0,,,89,104
181440,note_on,,,,,0,0,1,,,0,,,86,104
181440,note_on,,,,,0,0,1,,,0,,,80,104
181440,note_on,,,,,0,0,1,,,0,,,92,104
181440,note_on,,,,,0,0,2,,,1,,,35,58
181536,note_off,,,,,0,0,1,,,0,,,80,64
181536,note_off,,,,,0,0,1,,,0,,,86,64
181536,note_off,,,,,0,0,1,,,0,,,89,64
181536,note_off,,,,,96,0,1,,,0,,,92,64
181560,note_on,,,,,24,0,1,,,0,,,92,104
181560,note_on,,,,,0,0,1,,,0,,,86,104
181560,note_on,,,,,0,0,1,,,0,,,89,104
181560,note_on,,,,,0,0,1,,,0,,,80,104
181752,note_off,,,,,192,0,1,,,0,,,80,64
181752,note_off,,,,,0,0,1,,,0,,,89,64
181752,note_off,,,,,0,0,1,,,0,,,86,64
181752,note_off,,,,,0,0,1,,,0,,,92,64
181800,note_on,,,,,48,0,1,,,0,,,92,104
181800,note_on,,,,,0,0,1,,,0,,,86,104
181800,note_on,,,,,0,0,1,,,0,,,80,104
181800,note_on,,,,,0,0,1,,,0,,,89,104
181824,note_off,,,,,0,0,2,,,1,,,47,64
181824,note_off,,,,,384,0,2,,,1,,,35,64
181920,note_on,,,,,0,0,2,,,1,,,34,58
181920,note_on,,,,,96,0,2,,,1,,,46,58
181992,note_off,,,,,0,0,1,,,0,,,86,64
181992,note_off,,,,,0,0,1,,,0,,,92,64
181992,note_off,,,,,0,0,1,,,0,,,80,64
181992,note_off,,,,,192,0,1,,,0,,,89,64
182040,note_on,,,,,0,0,1,,,0,,,80,104
182040,note_on,,,,,48,0,1,,,0,,,86,104
182040,note_on,,,,,0,0,1,,,0,,,89,104
182040,note_on,,,,,0,0,1,,,0,,,92,104
182112,note_off,,,,,0,0,2,,,1,,,46,64
182112,note_off,,,,,192,0,2,,,1,,,34,64
182160,note_on,,,,,48,0,2,,,1,,,33,58
182160,note_on,,,,,0,0,2,,,1,,,45,58
182232,note_off,,,,,192,0,1,,,0,,,80,64
182232,note_off,,,,,0,0,1,,,0,,,89,64
182232,note_off,,,,,0,0,1,,,0,,,92,64
182232,note_off,,,,,0,0,1,,,0,,,86,64
182280,note_on,,,,,48,0,1,,,0,,,93,104
182280,note_on,,,,,0,0,1,,,0,,,86,104
182280,note_on,,,,,0,0,1,,,0,,,81,104
182280,note_on,,,,,0,0,1,,,0,,,89,104
182352,note_off,,,,,192,0,2,,,1,,,45,64
182352,note_off,,,,,0,0,2,,,1,,,33,64
182376,note_off,,,,,0,0,1,,,0,,,86,64
182376,note_off,,,,,0,0,1,,,0,,,89,64
182376,note_off,,,,,0,0,1,,,0,,,93,64
182376,note_off,,,,,96,0,1,,,0,,,81,64
182400,note_on,,,,,24,0,1,,,0,,,89,116
182400,note_on,,,,,0,0,1,,,0,,,82,116
182400,note_on,,,,,0,0,1,,,0,,,86,116
182400,note_on,,,,,0,0,1,,,0,,,94,116
182400,note_on,,,,,48,0,2,,,1,,,32,116
182424,note_off,,,,,24,0,2,,,1,,,32,64
182430,note_on,,,,,6,0,2,,,1,,,44,116
182454,note_off,,,,,24,0,2,,,1,,,44,64
182460,note_on,,,,,0,0,2,,,1,,,58,116
182460,note_on,,,,,0,0,2,,,1,,,62,116
182460,note_on,,,,,6,0,2,,,1,,,65,116
182460,note_on,,,,,0,0,2,,,1,,,56,116
182736,note_off,,,,,0,0,2,,,1,,,58,64
182736,note_off,,,,,0,0,2,,,1,,,56,64
182736,note_off,,,,,0,0,2,,,1,,,65,64
182736,note_off,,,,,276,0,2,,,1,,,62,64
182760,note_on,,,,,0,0,2,,,1,,,58,116
182760,note_on,,,,,24,0,2,,,1,,,46,116
182784,note_off,,,,,0,0,1,,,0,,,82,64
182784,note_off,,,,,0,0,1,,,0,,,89,64
182784,note_off,,,,,384,0,1,,,0,,,94,64
182784,note_off,,,,,0,0,1,,,0,,,86,64
182856,note_off,,,,,0,0,2,,,1,,,46,64
182856,note_off,,,,,96,0,2,,,1,,,58,64
182880,note_on,,,,,24,0,2,,,1,,,58,116
182880,note_on,,,,,96,0,1,,,0,,,89,116
182880,note_on,,,,,0,0,1,,,0,,,80,116
182880,note_on,,,,,0,0,1,,,0,,,92,116
182880,note_on,,,,,0,0,1,,,0,,,86,116
182880,note_on,,,,,0,0,2,,,1,,,46,116
183072,note_off,,,,,192,0,1,,,0,,,92,64
183072,note_off,,,,,0,0,1,,,0,,,80,64
183072,note_off,,,,,0,0,1,,,0,,,89,64
183072,note_off,,,,,0,0,1,,,0,,,86,64
183105,note_off,,,,,225,0,2,,,1,,,46,64
183105,note_off,,,,,0,0,2,,,1,,,58,64
183120,note_on,,,,,0,0,1,,,0,,,86,116
183120,note_on,,,,,0,0,1,,,0,,,94,116
183120,note_on,,,,,15,0,2,,,1,,,60,116
183120,note_on,,,,,0,0,1,,,0,,,82,116
183120,note_on,,,,,48,0,1,,,0,,,89,116
183120,note_on,,,,,0,0,2,,,1,,,48,116
183216,note_off,,,,,96,0,2,,,1,,,48,64
183216,note_off,,,,,0,0,2,,,1,,,60,64
183240,note_on,,,,,24,0,2,,,1,,,50,116
183240,note_on,,,,,0,0,2,,,1,,,62,116
183312,note_off,,,,,0,0,1,,,0,,,94,64
183312,note_off,,,,,0,0,1,,,0,,,82,64
183312,note_off,,,,,0,0,1,,,0,,,89,64
183312,note_off,,,,,192,0,1,,,0,,,86,64
183336,note_off,,,,,0,0,2,,,1,,,50,64
183336,note_off,,,,,96,0,2,,,1,,,62,64
183360,note_on,,,,,0,0,2,,,1,,,59,116
183360,note_on,,,,,0,0,2,,,1,,,56,116
183360,note_on,,,,,0,0,2,,,1,,,51,116
183360,note_on,,,,,0,0,1,,,0,,,87,116
183360,note_on,,,,,0,0,1,,,0,,,92,116
183360,note_on,,,,,48,0,1,,,0,,,95,116
183360,note_on,,,,,24,0,2,,,1,,,63,116
183360,note_on,,,,,0,0,1,,,0,,,83,116
183552,note_off,,,,,0,0,2,,,1,,,59,64
183552,note_off,,,,,0,0,2,,,1,,,56,64
183552,note_off,,,,,0,0,2,,,1,,,63,64
183552,note_off,,,,,192,0,2,,,1,,,51,64
183600,note_on,,,,,48,0,2,,,1,,,44,116
183600,note_on,,,,,0,0,2,,,1,,,32,116
183648,note_off,,,,,0,0,1,,,0,,,95,64
183648,note_off,,,,,288,0,1,,,0,,,83,64
183648,note_off,,,,,0,0,1,,,0,,,87,64
183648,note_off,,,,,0,0,1,,,0,,,92,64
183720,note_on,,,,,72,0,1,,,0,,,92,116
183720,note_on,,,,,0,0,1,,,0,,,80,116
183792,note_off,,,,,0,0,2,,,1,,,44,64
183792,note_off,,,,,192,0,2,,,1,,,32,64
183816,note_off,,,,,0,0,1,,,0,,,92,64
183816,note_off,,,,,96,0,1,,,0,,,80,64
183840,note_on,,,,,24,0,1,,,0,,,87,116
183840,note_on,,,,,0,0,1,,,0,,,75,116
184032,note_off,,,,,192,0,1,,,0,,,75,64
184032,note_off,,,,,0,0,1,,,0,,,87,64
184080,note_on,,,,,0,0,2,,,1,,,51,116
184080,note_on,,,,,0,0,2,,,1,,,56,116
184080,note_on,,,,,48,0,1,,,0,,,95,116
184080,note_on,,,,,0,0,1,,,0,,,92,116
184080,note_on,,,,,0,0,1,,,0,,,87,116
184080,note_on,,,,,0,0,1,,,0,,,83,116
184080,note_on,,,,,0,0,2,,,1,,,59,116
184080,note_on,,,,,288,0,2,,,1,,,63,116
184272,note_off,,,,,0,0,1,,,0,,,92,64
184272,note_off,,,,,0,0,1,,,0,,,87,64
184272,note_off,,,,,192,0,1,,,0,,,83,64
184272,note_off,,,,,0,0,1,,,0,,,95,64
184272,note_off,,,,,0,0,2,,,1,,,63,64
184272,note_off,,,,,192,0,2,,,1,,,51,64
184272,note_off,,,,,0,0,2,,,1,,,59,64
184272,note_off,,,,,0,0,2,,,1,,,56,64
184320,note_on,,,,,48,0,1,,,0,,,96,116
184320,note_on,,,,,0,0,1,,,0,,,92,116
184320,note_on,,,,,0,0,1,,,0,,,87,116
184320,note_on,,,,,0,0,1,,,0,,,84,116
184320,note_on,,,,,0,0,2,,,1,,,60,116
184320,note_on,,,,,0,0,2,,,1,,,63,116
184320,note_on,,,,,0,0,2,,,1,,,68,116
184320,note_on,,,,,0,0,2,,,1,,,56,116
184320,note_on,,,,,48,0,2,,,1,,,54,116
184560,note_on,,,,,240,0,2,,,1,,,30,116
184560,note_on,,,,,0,0,2,,,1,,,42,116
184608,note_off,,,,,48,0,2,,,1,,,60,64
184608,note_off,,,,,0,0,2,,,1,,,63,64
184608,note_off,,,,,0,0,2,,,1,,,68,64
184608,note_off,,,,,0,0,2,,,1,,,56,64
184608,note_off,,,,,0,0,2,,,1,,,54,64
184656,note_off,,,,,0,0,2,,,1,,,30,64
184656,note_off,,,,,48,0,2,,,1,,,42,64
184680,note_on,,,,,0,0,2,,,1,,,56,116
184680,note_on,,,,,0,0,2,,,1,,,42,116
184680,note_on,,,,,24,0,2,,,1,,,44,116
184704,note_off,,,,,0,0,1,,,0,,,96,64
184704,note_off,,,,,0,0,1,,,0,,,87,64
184704,note_off,,,,,0,0,1,,,0,,,92,64
184704,note_off,,,,,384,0,1,,,0,,,84,64
184776,note_off,,,,,0,0,2,,,1,,,44,64
184776,note_off,,,,,96,0,2,,,1,,,56,64
184776,note_off,,,,,0,0,2,,,1,,,42,64
184800,note_on,,,,,0,0,1,,,0,,,82,116
184800,note_on,,,,,0,0,1,,,0,,,94,116
184800,note_on,,,,,0,0,2,,,1,,,56,116
184800,note_on,,,,,0,0,2,,,1,,,44,116
184800,note_on,,,,,24,0,2,,,1,,,42,116
184800,note_on,,,,,96,0,1,,,0,,,87,116
184992,note_off,,,,,192,0,1,,,0,,,94,64
184992,note_off,,,,,0,0,1,,,0,,,82,64
184992,note_off,,,,,0,0,1,,,0,,,87,64
184992,note_off,,,,,0,0,2,,,1,,,44,64
184992,note_off,,,,,192,0,2,,,1,,,56,64
184992,note_off,,,,,0,0,2,,,1,,,42,64
185040,note_on,,,,,48,0,1,,,0,,,84,116
185040,note_on,,,,,0,0,1,,,0,,,96,116
185040,note_on,,,,,0,0,1,,,0,,,92,116
185040,note_on,,,,,48,0,2,,,1,,,49,116
185040,note_on,,,,,0,0,1,,,0,,,87,116
185040,note_on,,,,,0,0,2,,,1,,,61,116
185136,note_off,,,,,96,0,2,,,1,,,61,64
185136,note_off,,,,,0,0,2,,,1,,,49,64
185160,note_on,,,,,24,0,2,,,1,,,63,116
185160,note_on,,,,,0,0,2,,,1,,,51,116
185232,note_off,,,,,0,0,1,,,0,,,84,64
185232,note_off,,,,,0,0,1,,,0,,,87,64
185232,note_off,,,,,0,0,1,,,0,,,92,64
185232,note_off,,,,,192,0,1,,,0,,,96,64
185256,note_off,,,,,0,0,2,,,1,,,63,64
185256,note_off,,,,,96,0,2,,,1,,,51,64
185280,note_on,,,,,0,0,1,,,0,,,85,116
185280,note_on,,,,,0,0,1,,,0,,,97,116
185280,note_on,,,,,0,0,2,,,1,,,65,116
185280,note_on,,,,,0,0,2,,,1,,,61,116
185280,note_on,,,,,24,0,2,,,1,,,53,116
185280,note_on,,,,,48,0,1,,,0,,,92,116
185280,note_on,,,,,0,0,2,,,1,,,56,116
185472,note_off,,,,,192,0,2,,,1,,,61,64
185472,note_off,,,,,0,0,2,,,1,,,65,64
185472,note_off,,,,,0,0,2,,,1,,,56,64
185472,note_off,,,,,0,0,2,,,1,,,53,64
185520,note_on,,,,,48,0,2,,,1,,,29,116
185520,note_on,,,,,0,0,2,,,1,,,41,116
185568,note_off,,,,,288,0,1,,,0,,,97,64
185568,note_off,,,,,0,0,1,,,0,,,85,64
185568,note_off,,,,,0,0,1,,,0,,,92,64
185640,note_on,,,,,0,0,1,,,0,,,80,116
185640,note_on,,,,,72,0,1,,,0,,,92,116
185712,note_off,,,,,0,0,2,,,1,,,29,64
185712,note_off,,,,,192,0,2,,,1,,,41,64
185736,note_off,,,,,0,0,1,,,0,,,92,64
185736,note_off,,,,,96,0,1,,,0,,,80,64
185760,note_on,,,,,0,0,1,,,0,,,89,116
185760,note_on,,,,,24,0,1,,,0,,,77,116
185952,note_off,,,,,0,0,1,,,0,,,77,64
185952,note_off,,,,,192,0,1,,,0,,,89,64
186000,note_on,,,,,0,0,2,,,1,,,61,116
186000,note_on,,,,,0,0,2,,,1,,,56,116
186000,note_on,,,,,0,0,1,,,0,,,85,116
186000,note_on,,,,,48,0,1,,,0,,,92,116
186000,note_on,,,,,0,0,1,,,0,,,97,116
186000,note_on,,,,,288,0,2,,,1,,,65,116
186000,note_on,,,,,0,0,2,,,1,,,53,116
186192,note_off,,,,,192,0,1,,,0,,,97,64
186192,note_off,,,,,0,0,1,,,0,,,92,64
186192,note_off,,,,,192,0,2,,,1,,,53,64
186192,note_off,,,,,0,0,2,,,1,,,56,64
186192,note_off,,,,,0,0,2,,,1,,,61,64
186192,note_off,,,,,0,0,2,,,1,,,65,64
186192,note_off,,,,,0,0,1,,,0,,,85,64
186240,note_on,,,,,48,0,1,,,0,,,92,116
186240,note_on,,,,,0,0,1,,,0,,,98,116
186240,note_on,,,,,0,0,1,,,0,,,86,116
186240,note_on,,,,,0,0,1,,,0,,,95,116
186240,note_on,,,,,48,0,2,,,1,,,77,116
186240,note_on,,,,,0,0,2,,,1,,,71,116
186240,note_on,,,,,0,0,2,,,1,,,65,116
186240,note_on,,,,,0,0,2,,,1,,,68,116
186336,note_off,,,,,0,0,2,,,1,,,68,64
186336,note_off,,,,,0,0,2,,,1,,,77,64
186336,note_off,,,,,96,0,2,,,1,,,65,64
186336,note_off,,,,,0,0,2,,,1,,,71,64
186360,note_on,,,,,24,0,2,,,1,,,71,116
186360,note_on,,,,,0,0,2,,,1,,,59,116
186456,note_off,,,,,96,0,2,,,1,,,59,64
186456,note_off,,,,,0,0,2,,,1,,,71,64
186480,note_on,,,,,0,0,2,,,1,,,56,116
186480,note_on,,,,,24,0,2,,,1,,,68,116
186576,note_off,,,,,96,0,2,,,1,,,56,64
186576,note_off,,,,,0,0,2,,,1,,,68,64
186600,note_on,,,,,0,0,2,,,1,,,65,116
186600,note_on,,,,,24,0,2,,,1,,,53,116
186624,note_off,,,,,384,0,1,,,0,,,95,64
186624,note_off,,,,,0,0,1,,,0,,,86,64
186624,note_off,,,,,0,0,1,,,0,,,98,64
186624,note_off,,,,,0,0,1,,,0,,,92,64
186696,note_off,,,,,96,0,2,,,1,,,65,64
186696,note_off,,,,,0,0,2,,,1,,,53,64
186720,note_on,,,,,24,0,2,,,1,,,62,116
186720,note_on,,,,,96,0,1,,,0,,,95,116
186720,note_on,,,,,0,0,1,,,0,,,84,116
186720,note_on,,,,,0,0,1,,,0,,,92,116
186720,note_on,,,,,0,0,1,,,0,,,96,116
186720,note_on,,,,,0,0,2,,,1,,,50,116
186816,note_off,,,,,96,0,2,,,1,,,50,64
186816,note_off,,,,,0,0,2,,,1,,,62,64
186840,note_on,,,,,24,0,2,,,1,,,59,116
186840,note_on,,,,,0,0,2,,,1,,,47,116
186912,note_off,,,,,0,0,1,,,0,,,95,64
186912,note_off,,,,,0,0,1,,,0,,,84,64
186912,note_off,,,,,0,0,1,,,0,,,92,64
186912,note_off,,,,,192,0,1,,,0,,,96,64
186936,note_off,,,,,0,0,2,,,1,,,59,64
186936,note_off,,,,,96,0,2,,,1,,,47,64
186960,note_on,,,,,0,0,2,,,1,,,44,116
186960,note_on,,,,,24,0,2,,,1,,,56,116
186960,note_on,,,,,0,0,1,,,0,,,95,116
186960,note_on,,,,,48,0,1,,,0,,,98,116
186960,note_on,,,,,0,0,1,,,0,,,92,116
186960,note_on,,,,,0,0,1,,,0,,,86,116
187056,note_off,,,,,0,0,2,,,1,,,56,64
187056,note_off,,,,,96,0,2,,,1,,,44,64
187080,note_on,,,,,24,0,2,,,1,,,41,116
187080,note_on,,,,,0,0,2,,,1,,,53,116
187152,note_off,,,,,0,0,1,,,0,,,98,64
187152,note_off,,,,,0,0,1,,,0,,,92,64
187152,note_off,,,,,0,0,1,,,0,,,86,64
187152,note_off,,,,,192,0,1,,,0,,,95,64
187176,note_off,,,,,96,0,2,,,1,,,53,64
187176,note_off,,,,,0,0,2,,,1,,,41,64
187200,note_on,,,,,0,0,2,,,1,,,48,116
187200,note_on,,,,,0,0,2,,,1,,,42,116
187200,note_on,,,,,0,0,2,,,1,,,45,116
187200,note_on,,,,,24,0,2,,,1,,,57,116
187200,note_on,,,,,0,0,1,,,0,,,89,116
187200,note_on,,,,,0,0,2,,,1,,,51,116
187200,note_on,,,,,0,0,1,,,0,,,101,116
187200,note_on,,,,,48,0,1,,,0,,,93,116
187200,note_on,,,,,0,0,1,,,0,,,96,116
187296,note_off,,,,,96,0,1,,,0,,,96,64
187296,note_off,,,,,0,0,2,,,1,,,42,64
187296,note_off,,,,,0,0,2,,,1,,,45,64
187296,note_off,,,,,0,0,2,,,1,,,48,64
187296,note_off,,,,,96,0,2,,,1,,,51,64
187296,note_off,,,,,0,0,1,,,0,,,93,64
187296,note_off,,,,,0,0,1,,,0,,,89,64
187296,note_off,,,,,0,0,2,,,1,,,57,64
187296,note_off,,,,,0,0,1,,,0,,,101,64
187320,note_on,,,,,0,0,1,,,0,,,99,116
187320,note_on,,,,,0,0,1,,,0,,,87,116
187320,note_on,,,,,24,0,1,,,0,,,75,116
187416,note_off,,,,,96,0,1,,,0,,,87,64
187416,note_off,,,,,0,0,1,,,0,,,99,64
187416,note_off,,,,,0,0,1,,,0,,,75,64
187440,note_on,,,,,24,0,1,,,0,,,72,116
187440,note_on,,,,,0,0,1,,,0,,,96,116
187440,note_on,,,,,0,0,1,,,0,,,84,116
187536,note_off,,,,,96,0,1,,,0,,,84,64
187536,note_off,,,,,0,0,1,,,0,,,96,64
187536,note_off,,,,,0,0,1,,,0,,,72,64
187560,note_on,,,,,0,0,1,,,0,,,69,116
187560,note_on,,,,,0,0,1,,,0,,,81,116
187560,note_on,,,,,24,0,1,,,0,,,93,116
187656,note_off,,,,,0,0,1,,,0,,,81,64
187656,note_off,,,,,96,0,1,,,0,,,69,64
187656,note_off,,,,,0,0,1,,,0,,,93,64
187680,note_on,,,,,24,0,1,,,0,,,78,116
187680,note_on,,,,,0,0,1,,,0,,,66,116
187680,note_on,,,,,0,0,1,,,0,,,90,116
187776,note_off,,,,,96,0,1,,,0,,,90,64
187776,note_off,,,,,0,0,1,,,0,,,66,64
187776,note_off,,,,,0,0,1,,,0,,,78,64
187800,note_on,,,,,24,0,1,,,0,,,87,116
187800,note_on,,,,,0,0,1,,,0,,,75,116
187800,note_on,,,,,504,0,2,,,1,,,63,116
187896,note_off,,,,,96,0,1,,,0,,,75,64
187896,note_off,,,,,96,0,2,,,1,,,63,64
187896,note_off,,,,,0,0,1,,,0,,,87,64
187920,note_on,,,,,24,0,1,,,0,,,84,116
187920,note_on,,,,,0,0,1,,,0,,,72,116
187920,note_on,,,,,24,0,2,,,1,,,60,116
188016,note_off,,,,,0,0,1,,,0,,,84,64
188016,note_off,,,,,96,0,2,,,1,,,60,64
188016,note_off,,,,,96,0,1,,,0,,,72,64
188040,note_on,,,,,24,0,1,,,0,,,81,116
188040,note_on,,,,,0,0,1,,,0,,,69,116
188040,note_on,,,,,24,0,2,,,1,,,57,116
188136,note_off,,,,,0,0,1,,,0,,,81,64
188136,note_off,,,,,96,0,1,,,0,,,69,64
188136,note_off,,,,,96,0,2,,,1,,,57,64
188160,note_on,,,,,0,0,1,,,0,,,66,116
188160,note_on,,,,,24,0,1,,,0,,,78,116
188160,note_on,,,,,24,0,2,,,1,,,54,116
188256,note_off,,,,,96,0,2,,,1,,,54,64
188256,note_off,,,,,96,0,1,,,0,,,66,64
188256,note_off,,,,,0,0,1,,,0,,,78,64
188280,note_on,,,,,24,0,1,,,0,,,75,116
188280,note_on,,,,,0,0,1,,,0,,,63,116
188280,note_on,,,,,24,0,2,,,1,,,51,116
188376,note_off,,,,,0,0,1,,,0,,,75,64
188376,note_off,,,,,96,0,1,,,0,,,63,64
188376,note_off,,,,,96,0,2,,,1,,,51,64
188400,note_on,,,,,0,0,1,,,0,,,60,116
188400,note_on,,,,,24,0,1,,,0,,,72,116
188400,note_on,,,,,24,0,2,,,1,,,48,116
188496,note_off,,,,,0,0,1,,,0,,,72,64
188496,note_off,,,,,96,0,1,,,0,,,60,64
188496,note_off,,,,,96,0,2,,,1,,,48,64
188520,note_on,,,,,0,0,1,,,0,,,69,116
188520,note_on,,,,,24,0,2,,,1,,,45,116
188520,note_on,,,,,24,0,1,,,0,,,57,116
188616,note_off,,,,,96,0,1,,,0,,,69,64
188616,note_off,,,,,0,0,1,,,0,,,57,64
188616,note_off,,,,,96,0,2,,,1,,,45,64
188640,note_on,,,,,24,0,2,,,1,,,42,116
188640,note_on,,,,,24,0,1,,,0,,,54,116
188640,note_on,,,,,0,0,1,,,0,,,66,116
188736,note_off,,,,,96,0,2,,,1,,,42,64
188736,note_off,,,,,96,0,1,,,0,,,66,64
188736,note_off,,,,,0,0,1,,,0,,,54,64
188760,note_on,,,,,24,0,2,,,1,,,39,116
188760,note_on,,,,,24,0,1,,,0,,,63,116
188760,note_on,,,,,0,0,1,,,0,,,51,116
188856,note_off,,,,,96,0,1,,,0,,,51,64
188856,note_off,,,,,0,0,1,,,0,,,63,64
188856,note_off,,,,,96,0,2,,,1,,,39,64
188880,note_on,,,,,24,0,2,,,1,,,60,116
188880,note_on,,,,,0,0,2,,,1,,,48,116
188880,note_on,,,,,0,0,2,,,1,,,36,116
188976,note_off,,,,,96,0,2,,,1,,,36,64
188976,note_off,,,,,0,0,2,,,1,,,48,64
188976,note_off,,,,,0,0,2,,,1,,,60,64
189000,note_on,,,,,0,0,2,,,1,,,30,116
189000,note_on,,,,,24,0,2,,,1,,,54,116
189000,note_on,,,,,0,0,2,,,1,,,42,116
189096,note_off,,,,,96,0,2,,,1,,,30,64
189096,note_off,,,,,0,0,2,,,1,,,42,64
189096,note_off,,,,,0,0,2,,,1,,,54,64
189120,note_on,,,,,0,0,2,,,1,,,31,116
189120,note_on,,,,,0,0,2,,,1,,,48,116
189120,note_on,,,,,0,0,2,,,1,,,55,116
189120,note_on,,,,,24,0,2,,,1,,,43,116
189120,note_on,,,,,0,0,2,,,1,,,60,116
189240,note_on,,,,,384,0,1,,,0,,,55,116
189336,note_off,,,,,96,0,1,,,0,,,55,64
189360,note_on,,,,,24,0,1,,,0,,,60,116
189456,note_off,,,,,96,0,1,,,0,,,60,64
189480,note_on,,,,,24,0,1,,,0,,,63,116
189504,note_off,,,,,0,0,2,,,1,,,60,64
189504,note_off,,,,,0,0,2,,,1,,,55,64
189504,note_off,,,,,0,0,2,,,1,,,43,64
189504,note_off,,,,,384,0,2,,,1,,,48,64
189504,note_off,,,,,0,0,2,,,1,,,31,64
189576,note_off,,,,,96,0,1,,,0,,,63,64
189600,note_on,,,,,0,0,2,,,1,,,62,116
189600,note_on,,,,,24,0,1,,,0,,,66,116
189600,note_on,,,,,96,0,2,,,1,,,50,116
189696,note_off,,,,,96,0,1,,,0,,,66,64
189720,note_on,,,,,24,0,1,,,0,,,67,116
189816,note_off,,,,,96,0,1,,,0,,,67,64
189840,note_on,,,,,24,0,1,,,0,,,72,116
189888,note_off,,,,,0,0,2,,,1,,,50,64
189888,note_off,,,,,288,0,2,,,1,,,62,64
189936,note_off,,,,,96,0,1,,,0,,,72,64
189960,note_on,,,,,24,0,1,,,0,,,75,116
189960,note_on,,,,,0,0,2,,,1,,,63,116
189960,note_on,,,,,72,0,2,,,1,,,51,116
190056,note_off,,,,,0,0,2,,,1,,,51,64
190056,note_off,,,,,96,0,2,,,1,,,63,64
190056,note_off,,,,,96,0,1,,,0,,,75,64
190080,note_on,,,,,24,0,1,,,0,,,78,116
190176,note_off,,,,,96,0,1,,,0,,,78,64
190200,note_on,,,,,24,0,1,,,0,,,79,116
190200,note_on,,,,,144,0,2,,,1,,,31,116
190296,note_off,,,,,96,0,1,,,0,,,79,64
190296,note_off,,,,,96,0,2,,,1,,,31,64
190320,note_on,,,,,24,0,2,,,1,,,36,116
190416,note_off,,,,,96,0,2,,,1,,,36,64
190440,note_on,,,,,144,0,1,,,0,,,87,116
190440,note_on,,,,,0,0,1,,,0,,,79,116
190440,note_on,,,,,24,0,2,,,1,,,39,116
190440,note_on,,,,,0,0,1,,,0,,,75,116
190536,note_off,,,,,0,0,1,,,0,,,87,64
190536,note_off,,,,,0,0,1,,,0,,,75,64
190536,note_off,,,,,96,0,1,,,0,,,79,64
190536,note_off,,,,,96,0,2,,,1,,,39,64
190560,note_on,,,,,0,0,1,,,0,,,87,116
190560,note_on,,,,,0,0,1,,,0,,,75,116
190560,note_on,,,,,24,0,1,,,0,,,79,116
190560,note_on,,,,,24,0,2,,,1,,,43,116
190656,note_off,,,,,96,0,2,,,1,,,43,64
190680,note_on,,,,,24,0,2,,,1,,,48,116
190752,note_off,,,,,192,0,1,,,0,,,87,64
190752,note_off,,,,,0,0,1,,,0,,,79,64
190752,note_off,,,,,0,0,1,,,0,,,75,64
190776,note_off,,,,,96,0,2,,,1,,,48,64
190800,note_on,,,,,48,0,1,,,0,,,77,116
190800,note_on,,,,,0,0,1,,,0,,,74,116
190800,note_on,,,,,0,0,1,,,0,,,86,116
190800,note_on,,,,,24,0,2,,,1,,,51,116
190896,note_off,,,,,96,0,2,,,1,,,51,64
190896,note_off,,,,,96,0,1,,,0,,,86,64
190896,note_off,,,,,0,0,1,,,0,,,74,64
190896,note_off,,,,,0,0,1,,,0,,,77,64
190920,note_on,,,,,24,0,1,,,0,,,84,116
190920,note_on,,,,,24,0,2,,,1,,,55,116
190920,note_on,,,,,0,0,1,,,0,,,75,116
190920,note_on,,,,,0,0,1,,,0,,,72,116
191016,note_off,,,,,96,0,2,,,1,,,55,64
191016,note_off,,,,,0,0,1,,,0,,,84,64
191016,note_off,,,,,0,0,1,,,0,,,75,64
191016,note_off,,,,,96,0,1,,,0,,,72,64
191040,note_on,,,,,24,0,2,,,1,,,61,116
191040,note_on,,,,,0,0,2,,,1,,,49,116
191160,note_on,,,,,144,0,1,,,0,,,67,116
191256,note_off,,,,,96,0,1,,,0,,,67,64
191280,note_on,,,,,24,0,1,,,0,,,73,116
191376,note_off,,,,,96,0,1,,,0,,,73,64
191400,note_on,,,,,24,0,1,,,0,,,76,116
191424,note_off,,,,,384,0,2,,,1,,,49,64
191424,note_off,,,,,0,0,2,,,1,,,61,64
191496,note_off,,,,,96,0,1,,,0,,,76,64
191520,note_on,,,,,24,0,1,,,0,,,78,116
191520,note_on,,,,,0,0,2,,,1,,,62,116
191520,note_on,,,,,96,0,2,,,1,,,50,116
191616,note_off,,,,,96,0,1,,,0,,,78,64
191640,note_on,,,,,24,0,1,,,0,,,79,116
191736,note_off,,,,,96,0,1,,,0,,,79,64
191760,note_on,,,,,24,0,1,,,0,,,85,116
191808,note_off,,,,,0,0,2,,,1,,,50,64
191808,note_off,,,,,288,0,2,,,1,,,62,64
191856,note_off,,,,,96,0,1,,,0,,,85,64
191880,note_on,,,,,0,0,2,,,1,,,52,116
191880,note_on,,,,,24,0,1,,,0,,,88,116
191880,note_on,,,,,72,0,2,,,1,,,64,116
191976,note_off,,,,,96,0,2,,,1,,,52,64
191976,note_off,,,,,0,0,2,,,1,,,64,64
191976,note_off,,,,,96,0,1,,,0,,,88,64
192000,note_on,,,,,24,0,1,,,0,,,90,116
192096,note_off,,,,,96,0,1,,,0,,,90,64
192120,note_on,,,,,24,0,1,,,0,,,91,116
192120,note_on,,,,,144,0,2,,,1,,,31,116
192216,note_off,,,,,96,0,2,,,1,,,31,64
192216,note_off,,,,,96,0,1,,,0,,,91,64
192240,note_on,,,,,24,0,2,,,1,,,37,116
192336,note_off,,,,,96,0,2,,,1,,,37,64
192360,note_on,,,,,0,0,1,,,0,,,79,116
192360,note_on,,,,,24,0,2,,,1,,,40,116
192360,note_on,,,,,0,0,1,,,0,,,76,116
192360,note_on,,,,,144,0,1,,,0,,,88,116
192456,note_off,,,,,0,0,1,,,0,,,76,64
192456,note_off,,,,,0,0,1,,,0,,,88,64
192456,note_off,,,,,96,0,1,,,0,,,79,64
192456,note_off,,,,,96,0,2,,,1,,,40,64
192480,note_on,,,,,0,0,1,,,0,,,79,116
192480,note_on,,,,,0,0,1,,,0,,,76,116
192480,note_on,,,,,24,0,1,,,0,,,88,116
192480,note_on,,,,,24,0,2,,,1,,,43,116
192576,note_off,,,,,96,0,2,,,1,,,43,64
192600,note_on,,,,,24,0,2,,,1,,,49,116
192696,note_off,,,,,96,0,2,,,1,,,49,64
192705,note_off,,,,,0,0,1,,,0,,,76,64
192705,note_off,,,,,0,0,1,,,0,,,88,64
192705,note_off,,,,,225,0,1,,,0,,,79,64
192720,note_on,,,,,24,0,2,,,1,,,52,116
192720,note_on,,,,,0,0,1,,,0,,,77,116
192720,note_on,,,,,15,0,1,,,0,,,74,116
192720,note_on,,,,,0,0,1,,,0,,,86,116
192816,note_off,,,,,96,0,1,,,0,,,77,64
192816,note_off,,,,,0,0,1,,,0,,,86,64
192816,note_off,,,,,0,0,1,,,0,,,74,64
192816,note_off,,,,,96,0,2,,,1,,,52,64
192840,note_on,,,,,24,0,2,,,1,,,55,116
192840,note_on,,,,,24,0,1,,,0,,,73,116
192840,note_on,,,,,0,0,1,,,0,,,85,116
192840,note_on,,,,,0,0,1,,,0,,,76,116
192936,note_off,,,,,96,0,1,,,0,,,76,64
192936,note_off,,,,,0,0,1,,,0,,,85,64
192936,note_off,,,,,0,0,1,,,0,,,73,64
192936,note_off,,,,,96,0,2,,,1,,,55,64
192960,note_on,,,,,24,0,2,,,1,,,62,116
192960,note_on,,,,,0,0,2,,,1,,,50,116
193080,note_on,,,,,144,0,1,,,0,,,65,116
193176,note_off,,,,,96,0,1,,,0,,,65,64
193200,note_on,,,,,24,0,1,,,0,,,68,116
193296,note_off,,,,,96,0,1,,,0,,,68,64
193320,note_on,,,,,0,0,1,,,0,,,80,116
193320,note_on,,,,,24,0,1,,,0,,,89,116
193320,note_on,,,,,0,0,1,,,0,,,77,116
193344,note_off,,,,,384,0,2,,,1,,,50,64
193344,note_off,,,,,0,0,2,,,1,,,62,64
193416,note_off,,,,,0,0,1,,,0,,,80,64
193416,note_off,,,,,96,0,1,,,0,,,77,64
193416,note_off,,,,,0,0,1,,,0,,,89,64
193440,note_on,,,,,24,0,1,,,0,,,89,116
193440,note_on,,,,,0,0,1,,,0,,,77,116
193440,note_on,,,,,0,0,2,,,1,,,64,116
193440,note_on,,,,,96,0,2,,,1,,,52,116
193440,note_on,,,,,0,0,1,,,0,,,80,116
193632,note_off,,,,,192,0,1,,,0,,,80,64
193632,note_off,,,,,0,0,1,,,0,,,89,64
193632,note_off,,,,,0,0,1,,,0,,,77,64
193680,note_on,,,,,48,0,1,,,0,,,79,116
193680,note_on,,,,,0,0,1,,,0,,,76,116
193680,note_on,,,,,0,0,1,,,0,,,88,116
193728,note_off,,,,,0,0,2,,,1,,,52,64
193728,note_off,,,,,288,0,2,,,1,,,64,64
193776,note_off,,,,,0,0,1,,,0,,,76,64
193776,note_off,,,,,96,0,1,,,0,,,88,64
193776,note_off,,,,,0,0,1,,,0,,,79,64
193800,note_on,,,,,0,0,2,,,1,,,65,116
193800,note_on,,,,,72,0,2,,,1,,,53,116
193800,note_on,,,,,0,0,1,,,0,,,74,116
193800,note_on,,,,,24,0,1,,,0,,,77,116
193800,note_on,,,,,0,0,1,,,0,,,86,116
193896,note_off,,,,,0,0,1,,,0,,,77,64
193896,note_off,,,,,0,0,1,,,0,,,86,64
193896,note_off,,,,,96,0,1,,,0,,,74,64
193896,note_off,,,,,96,0,2,,,1,,,65,64
193896,note_off,,,,,0,0,2,,,1,,,53,64
193920,note_on,,,,,24,0,1,,,0,,,89,116
193920,note_on,,,,,0,0,1,,,0,,,86,116
193920,note_on,,,,,0,0,1,,,0,,,80,116
193920,note_on,,,,,0,0,1,,,0,,,92,116
194112,note_off,,,,,192,0,1,,,0,,,92,64
194112,note_off,,,,,0,0,1,,,0,,,89,64
194112,note_off,,,,,0,0,1,,,0,,,80,64
194112,note_off,,,,,0,0,1,,,0,,,86,64
194160,note_on,,,,,0,0,1,,,0,,,91,116
194160,note_on,,,,,0,0,1,,,0,,,79,116
194160,note_on,,,,,48,0,1,,,0,,,87,116
194160,note_on,,,,,0,0,2,,,1,,,47,116
194160,note_on,,,,,264,0,2,,,1,,,59,116
194256,note_off,,,,,0,0,1,,,0,,,87,64
194256,note_off,,,,,0,0,1,,,0,,,79,64
194256,note_off,,,,,96,0,1,,,0,,,91,64
194280,note_on,,,,,0,0,1,,,0,,,86,116
194280,note_on,,,,,0,0,1,,,0,,,89,116
194280,note_on,,,,,24,0,1,,,0,,,77,116
194352,note_off,,,,,0,0,2,,,1,,,59,64
194352,note_off,,,,,192,0,2,,,1,,,47,64
194376,note_off,,,,,96,0,1,,,0,,,86,64
194376,note_off,,,,,0,0,1,,,0,,,89,64
194376,note_off,,,,,0,0,1,,,0,,,77,64
194400,note_on,,,,,24,0,1,,,0,,,89,116
194400,note_on,,,,,0,0,1,,,0,,,92,116
194400,note_on,,,,,0,0,1,,,0,,,98,116
194400,note_on,,,,,0,0,1,,,0,,,86,116
194400,note_on,,,,,0,0,2,,,1,,,48,116
194400,note_on,,,,,48,0,2,,,1,,,60,116
194592,note_off,,,,,0,0,1,,,0,,,89,64
194592,note_off,,,,,0,0,1,,,0,,,92,64
194592,note_off,,,,,0,0,1,,,0,,,98,64
194592,note_off,,,,,192,0,1,,,0,,,86,64
194640,note_on,,,,,0,0,1,,,0,,,92,116
194640,note_on,,,,,0,0,1,,,0,,,96,116
194640,note_on,,,,,48,0,1,,,0,,,84,116
194640,note_on,,,,,0,0,1,,,0,,,89,116
194688,note_off,,,,,288,0,2,,,1,,,48,64
194688,note_off,,,,,0,0,2,,,1,,,60,64
194736,note_off,,,,,96,0,1,,,0,,,96,64
194736,note_off,,,,,0,0,1,,,0,,,84,64
194736,note_off,,,,,0,0,1,,,0,,,89,64
194736,note_off,,,,,0,0,1,,,0,,,92,64
194760,note_on,,,,,72,0,2,,,1,,,50,116
194760,note_on,,,,,0,0,2,,,1,,,62,116
194760,note_on,,,,,0,0,1,,,0,,,95,116
194760,note_on,,,,,24,0,1,,,0,,,89,116
194760,note_on,,,,,0,0,1,,,0,,,83,116
194760,note_on,,,,,0,0,1,,,0,,,92,116
194856,note_off,,,,,96,0,2,,,1,,,62,64
194856,note_off,,,,,96,0,1,,,0,,,83,64
194856,note_off,,,,,0,0,1,,,0,,,89,64
194856,note_off,,,,,0,0,2,,,1,,,50,64
194856,note_off,,,,,0,0,1,,,0,,,92,64
194856,note_off,,,,,0,0,1,,,0,,,95,64
194880,note_on,,,,,24,0,1,,,0,,,89,116
194880,note_on,,,,,0,0,1,,,0,,,98,116
194880,note_on,,,,,0,0,1,,,0,,,92,116
194880,note_on,,,,,0,0,1,,,0,,,101,116
195072,note_off,,,,,192,0,1,,,0,,,101,64
195072,note_off,,,,,0,0,1,,,0,,,92,64
195072,note_off,,,,,0,0,1,,,0,,,98,64
195072,note_off,,,,,0,0,1,,,0,,,89,64
195120,note_on,,,,,264,0,2,,,1,,,55,116
195120,note_on,,,,,0,0,1,,,0,,,99,116
195120,note_on,,,,,48,0,1,,,0,,,96,116
195120,note_on,,,,,0,0,1,,,0,,,87,116
195120,note_on,,,,,0,0,2,,,1,,,43,116
195216,note_off,,,,,96,0,1,,,0,,,87,64
195216,note_off,,,,,0,0,1,,,0,,,99,64
195216,note_off,,,,,0,0,1,,,0,,,96,64
195240,note_on,,,,,24,0,1,,,0,,,95,116
195240,note_on,,,,,0,0,1,,,0,,,86,116
195240,note_on,,,,,0,0,1,,,0,,,98,116
195312,note_off,,,,,0,0,2,,,1,,,55,64
195312,note_off,,,,,192,0,2,,,1,,,43,64
195336,note_off,,,,,96,0,1,,,0,,,98,64
195336,note_off,,,,,0,0,1,,,0,,,86,64
195336,note_off,,,,,0,0,1,,,0,,,95,64
195360,note_on,,,,,0,0,1,,,0,,,93,116
195360,note_on,,,,,0,0,2,,,1,,,57,116
195360,note_on,,,,,48,0,2,,,1,,,45,116
195360,note_on,,,,,24,0,1,,,0,,,84,116
195360,note_on,,,,,0,0,1,,,0,,,96,116
195456,note_off,,,,,96,0,1,,,0,,,93,64
195456,note_off,,,,,0,0,1,,,0,,,96,64
195456,note_off,,,,,0,0,1,,,0,,,84,64
195480,note_on,,,,,0,0,1,,,0,,,91,116
195480,note_on,,,,,24,0,1,,,0,,,83,116
195480,note_on,,,,,0,0,1,,,0,,,95,116
195576,note_off,,,,,0,0,1,,,0,,,83,64
195576,note_off,,,,,96,0,1,,,0,,,91,64
195576,note_off,,,,,0,0,1,,,0,,,95,64
195600,note_on,,,,,0,0,1,,,0,,,81,116
195600,note_on,,,,,0,0,1,,,0,,,93,116
195600,note_on,,,,,24,0,1,,,0,,,89,116
195648,note_off,,,,,0,0,2,,,1,,,45,64
195648,note_off,,,,,288,0,2,,,1,,,57,64
195696,note_off,,,,,0,0,1,,,0,,,89,64
195696,note_off,,,,,0,0,1,,,0,,,81,64
195696,note_off,,,,,96,0,1,,,0,,,93,64
195720,note_on,,,,,0,0,1,,,0,,,80,116
195720,note_on,,,,,0,0,2,,,1,,,47,116
195720,note_on,,,,,72,0,2,,,1,,,59,116
195720,note_on,,,,,0,0,1,,,0,,,92,116
195720,note_on,,,,,24,0,1,,,0,,,89,116
195816,note_off,,,,,96,0,2,,,1,,,47,64
195816,note_off,,,,,96,0,1,,,0,,,80,64
195816,note_off,,,,,0,0,1,,,0,,,89,64
195816,note_off,,,,,0,0,1,,,0,,,92,64
195816,note_off,,,,,0,0,2,,,1,,,59,64
195840,note_on,,,,,24,0,1,,,0,,,78,116
195840,note_on,,,,,0,0,1,,,0,,,90,116
195936,note_off,,,,,0,0,1,,,0,,,78,64
195936,note_off,,,,,96,0,1,,,0,,,90,64
195960,note_on,,,,,24,0,1,,,0,,,79,116
195960,note_on,,,,,0,0,1,,,0,,,91,116
195960,note_on,,,,,144,0,2,,,1,,,41,116
196056,note_off,,,,,96,0,1,,,0,,,91,64
196056,note_off,,,,,0,0,1,,,0,,,79,64
196056,note_off,,,,,96,0,2,,,1,,,41,64
196080,note_on,,,,,24,0,2,,,1,,,47,116
196080,note_on,,,,,0,0,2,,,1,,,53,116
196176,note_off,,,,,96,0,2,,,1,,,53,64
196176,note_off,,,,,0,0,2,,,1,,,47,64
196200,note_on,,,,,144,0,1,,,0,,,80,116
196200,note_on,,,,,0,0,1,,,0,,,86,116
196200,note_on,,,,,0,0,1,,,0,,,92,116
196200,note_on,,,,,0,0,1,,,0,,,83,116
196200,note_on,,,,,24,0,2,,,1,,,41,116
196296,note_off,,,,,96,0,1,,,0,,,83,64
196296,note_off,,,,,96,0,2,,,1,,,41,64
196296,note_off,,,,,0,0,1,,,0,,,80,64
196296,note_off,,,,,0,0,1,,,0,,,86,64
196296,note_off,,,,,0,0,1,,,0,,,92,64
196320,note_on,,,,,0,0,1,,,0,,,86,116
196320,note_on,,,,,0,0,1,,,0,,,80,116
196320,note_on,,,,,0,0,1,,,0,,,83,116
196320,note_on,,,,,24,0,1,,,0,,,92,116
196440,note_on,,,,,144,0,2,,,1,,,47,116
196512,note_off,,,,,0,0,1,,,0,,,92,64
196512,note_off,,,,,0,0,1,,,0,,,86,64
196512,note_off,,,,,0,0,1,,,0,,,80,64
196512,note_off,,,,,192,0,1,,,0,,,83,64
196536,note_off,,,,,96,0,2,,,1,,,47,64
196560,note_on,,,,,48,0,1,,,0,,,91,116
196560,note_on,,,,,0,0,2,,,1,,,59,116
196560,note_on,,,,,24,0,2,,,1,,,53,116
196560,note_on,,,,,0,0,1,,,0,,,79,116
196656,note_off,,,,,0,0,2,,,1,,,53,64
196656,note_off,,,,,96,0,2,,,1,,,59,64
196656,note_off,,,,,0,0,1,,,0,,,91,64
196656,note_off,,,,,96,0,1,,,0,,,79,64
196680,note_on,,,,,0,0,1,,,0,,,77,116
196680,note_on,,,,,24,0,1,,,0,,,89,116
196680,note_on,,,,,24,0,2,,,1,,,47,116
196776,note_off,,,,,0,0,1,,,0,,,89,64
196776,note_off,,,,,96,0,1,,,0,,,77,64
196776,note_off,,,,,96,0,2,,,1,,,47,64
196800,note_on,,,,,24,0,1,,,0,,,66,116
196800,note_on,,,,,0,0,1,,,0,,,78,116
196896,note_off,,,,,96,0,1,,,0,,,78,64
196896,note_off,,,,,0,0,1,,,0,,,66,64
196920,note_on,,,,,144,0,2,,,1,,,41,116
196920,note_on,,,,,24,0,1,,,0,,,67,116
196920,note_on,,,,,0,0,1,,,0,,,79,116
197016,note_off,,,,,0,0,1,,,0,,,67,64
197016,note_off,,,,,96,0,1,,,0,,,79,64
197016,note_off,,,,,96,0,2,,,1,,,41,64
197040,note_on,,,,,24,0,2,,,1,,,47,116
197040,note_on,,,,,0,0,2,,,1,,,53,116
197136,note_off,,,,,96,0,2,,,1,,,53,64
197136,note_off,,,,,0,0,2,,,1,,,47,64
197160,note_on,,,,,0,0,1,,,0,,,80,116
197160,note_on,,,,,144,0,1,,,0,,,92,116
197160,note_on,,,,,0,0,1,,,0,,,86,116
197160,note_on,,,,,24,0,2,,,1,,,41,116
197160,note_on,,,,,0,0,1,,,0,,,83,116
197256,note_off,,,,,0,0,1,,,0,,,80,64
197256,note_off,,,,,0,0,1,,,0,,,92,64
197256,note_off,,,,,96,0,1,,,0,,,86,64
197256,note_off,,,,,0,0,1,,,0,,,83,64
197256,note_off,,,,,96,0,2,,,1,,,41,64
197280,note_on,,,,,24,0,1,,,0,,,80,116
197280,note_on,,,,,0,0,1,,,0,,,92,116
197280,note_on,,,,,0,0,1,,,0,,,83,116
197280,note_on,,,,,0,0,1,,,0,,,86,116
197400,note_on,,,,,144,0,2,,,1,,,47,116
197472,note_off,,,,,0,0,1,,,0,,,83,64
197472,note_off,,,,,0,0,1,,,0,,,92,64
197472,note_off,,,,,192,0,1,,,0,,,86,64
197472,note_off,,,,,0,0,1,,,0,,,80,64
197496,note_off,,,,,96,0,2,,,1,,,47,64
197520,note_on,,,,,0,0,1,,,0,,,91,116
197520,note_on,,,,,24,0,2,,,1,,,53,116
197520,note_on,,,,,48,0,1,,,0,,,79,116
197520,note_on,,,,,0,0,2,,,1,,,59,116
197616,note_off,,,,,96,0,2,,,1,,,59,64
197616,note_off,,,,,0,0,2,,,1,,,53,64
197616,note_off,,,,,96,0,1,,,0,,,91,64
197616,note_off,,,,,0,0,1,,,0,,,79,64
197640,note_on,,,,,24,0,2,,,1,,,47,116
197640,note_on,,,,,24,0,1,,,0,,,89,116
197640,note_on,,,,,0,0,1,,,0,,,77,116
197736,note_off,,,,,96,0,2,,,1,,,47,64
197736,note_off,,,,,96,0,1,,,0,,,77,64
197736,note_off,,,,,0,0,1,,,0,,,89,64
197760,note_on,,,,,24,0,1,,,0,,,80,116
197760,note_on,,,,,0,0,1,,,0,,,68,116
197856,note_off,,,,,96,0,1,,,0,,,68,64
197856,note_off,,,,,0,0,1,,,0,,,80,64
197880,note_on,,,,,0,0,1,,,0,,,69,116
197880,note_on,,,,,24,0,1,,,0,,,81,116
197880,note_on,,,,,144,0,2,,,1,,,40,116
197976,note_off,,,,,96,0,2,,,1,,,40,64
197976,note_off,,,,,96,0,1,,,0,,,69,64
197976,note_off,,,,,0,0,1,,,0,,,81,64
198000,note_on,,,,,0,0,2,,,1,,,52,116
198000,note_on,,,,,24,0,2,,,1,,,42,116
198096,note_off,,,,,96,0,2,,,1,,,52,64
198096,note_off,,,,,0,0,2,,,1,,,42,64
198120,note_on,,,,,0,0,1,,,0,,,90,116
198120,note_on,,,,,0,0,1,,,0,,,95,116
198120,note_on,,,,,24,0,2,,,1,,,40,116
198120,note_on,,,,,144,0,1,,,0,,,83,116
198216,note_off,,,,,96,0,2,,,1,,,40,64
198216,note_off,,,,,0,0,1,,,0,,,83,64
198216,note_off,,,,,0,0,1,,,0,,,90,64
198216,note_off,,,,,96,0,1,,,0,,,95,64
198240,note_on,,,,,0,0,1,,,0,,,83,116
198240,note_on,,,,,0,0,1,,,0,,,95,116
198240,note_on,,,,,24,0,1,,,0,,,90,116
198360,note_on,,,,,144,0,2,,,1,,,38,116
198432,note_off,,,,,0,0,1,,,0,,,90,64
198432,note_off,,,,,192,0,1,,,0,,,83,64
198432,note_off,,,,,0,0,1,,,0,,,95,64
198456,note_off,,,,,96,0,2,,,1,,,38,64
198480,note_on,,,,,0,0,1,,,0,,,90,116
198480,note_on,,,,,0,0,2,,,1,,,42,116
198480,note_on,,,,,24,0,2,,,1,,,50,116
198480,note_on,,,,,48,0,1,,,0,,,78,116
198576,note_off,,,,,96,0,1,,,0,,,90,64
198576,note_off,,,,,0,0,1,,,0,,,78,64
198576,note_off,,,,,0,0,2,,,1,,,50,64
198576,note_off,,,,,96,0,2,,,1,,,42,64
198600,note_on,,,,,0,0,1,,,0,,,83,116
198600,note_on,,,,,24,0,2,,,1,,,38,116
198600,note_on,,,,,24,0,1,,,0,,,71,116
198696,note_off,,,,,0,0,1,,,0,,,71,64
198696,note_off,,,,,96,0,2,,,1,,,38,64
198696,note_off,,,,,96,0,1,,,0,,,83,64
198720,note_on,,,,,0,0,1,,,0,,,83,116
198720,note_on,,,,,24,0,1,,,0,,,71,116
198816,note_off,,,,,0,0,1,,,0,,,71,64
198816,note_off,,,,,96,0,1,,,0,,,83,64
198840,note_on,,,,,24,0,1,,,0,,,73,116
198840,note_on,,,,,0,0,1,,,0,,,85,116
198840,note_on,,,,,144,0,2,,,1,,,37,116
198936,note_off,,,,,96,0,1,,,0,,,85,64
198936,note_off,,,,,0,0,1,,,0,,,73,64
198936,note_off,,,,,96,0,2,,,1,,,37,64
198960,note_on,,,,,0,0,2,,,1,,,49,116
198960,note_on,,,,,24,0,2,,,1,,,42,116
199056,note_off,,,,,0,0,2,,,1,,,42,64
199056,note_off,,,,,96,0,2,,,1,,,49,64
199080,note_on,,,,,24,0,2,,,1,,,37,116
199080,note_on,,,,,144,0,1,,,0,,,86,116
199080,note_on,,,,,0,0,1,,,0,,,98,116
199080,note_on,,,,,0,0,1,,,0,,,90,116
199176,note_off,,,,,0,0,1,,,0,,,86,64
199176,note_off,,,,,0,0,1,,,0,,,90,64
199176,note_off,,,,,96,0,1,,,0,,,98,64
199176,note_off,,,,,96,0,2,,,1,,,37,64
199200,note_on,,,,,0,0,1,,,0,,,86,116
199200,note_on,,,,,24,0,1,,,0,,,90,116
199200,note_on,,,,,0,0,1,,,0,,,98,116
199320,note_on,,,,,144,0,2,,,1,,,35,116
199392,note_off,,,,,0,0,1,,,0,,,86,64
199392,note_off,,,,,0,0,1,,,0,,,90,64
199392,note_off,,,,,192,0,1,,,0,,,98,64
199416,note_off,,,,,96,0,2,,,1,,,35,64
199440,note_on,,,,,0,0,1,,,0,,,95,116
199440,note_on,,,,,48,0,1,,,0,,,83,116
199440,note_on,,,,,0,0,2,,,1,,,42,116
199440,note_on,,,,,24,0,2,,,1,,,50,116
199536,note_off,,,,,96,0,2,,,1,,,42,64
199536,note_off,,,,,0,0,2,,,1,,,50,64
199536,note_off,,,,,96,0,1,,,0,,,95,64
199536,note_off,,,,,0,0,1,,,0,,,83,64
199560,note_on,,,,,0,0,1,,,0,,,90,116
199560,note_on,,,,,24,0,1,,,0,,,78,116
199560,note_on,,,,,24,0,2,,,1,,,35,116
199656,note_off,,,,,96,0,2,,,1,,,35,64
199656,note_off,,,,,96,0,1,,,0,,,90,64
199656,note_off,,,,,0,0,1,,,0,,,78,64
199680,note_on,,,,,24,0,2,,,1,,,64,116
199680,note_on,,,,,24,0,1,,,0,,,95,116
199680,note_on,,,,,0,0,1,,,0,,,100,116
199680,note_on,,,,,0,0,1,,,0,,,76,116
199680,note_on,,,,,0,0,1,,,0,,,71,116
199680,note_on,,,,,0,0,1,,,0,,,67,116
199680,note_on,,,,,0,0,1,,,0,,,91,116
199680,note_on,,,,,0,0,1,,,0,,,88,116
199872,note_off,,,,,192,0,2,,,1,,,64,64
199872,note_off,,,,,0,0,1,,,0,,,71,64
199872,note_off,,,,,192,0,1,,,0,,,76,64
199872,note_off,,,,,0,0,1,,,0,,,67,64
199872,note_off,,,,,0,0,1,,,0,,,95,64
199872,note_off,,,,,0,0,1,,,0,,,100,64
199872,note_off,,,,,0,0,1,,,0,,,88,64
199872,note_off,,,,,0,0,1,,,0,,,91,64
199920,note_on,,,,,48,0,2,,,1,,,37,116
199920,note_on,,,,,0,0,2,,,1,,,49,116
200112,note_off,,,,,0,0,2,,,1,,,37,64
200112,note_off,,,,,192,0,2,,,1,,,49,64
200160,note_on,,,,,0,0,1,,,0,,,98,116
200160,note_on,,,,,0,0,1,,,0,,,71,116
200160,note_on,,,,,0,0,1,,,0,,,95,116
200160,note_on,,,,,0,0,1,,,0,,,67,116
200160,note_on,,,,,0,0,1,,,0,,,74,116
200160,note_on,,,,,288,0,1,,,0,,,86,116
200160,note_on,,,,,0,0,1,,,0,,,91,116
200160,note_on,,,,,48,0,2,,,1,,,62,116
200352,note_off,,,,,0,0,1,,,0,,,91,64
200352,note_off,,,,,0,0,1,,,0,,,86,64
200352,note_off,,,,,0,0,1,,,0,,,74,64
200352,note_off,,,,,0,0,1,,,0,,,67,64
200352,note_off,,,,,0,0,1,,,0,,,95,64
200352,note_off,,,,,0,0,1,,,0,,,98,64
200352,note_off,,,,,192,0,1,,,0,,,71,64
200352,note_off,,,,,192,0,2,,,1,,,62,64
200400,note_on,,,,,48,0,2,,,1,,,38,116
200400,note_on,,,,,0,0,2,,,1,,,50,116
200592,note_off,,,,,192,0,2,,,1,,,50,64
200592,note_off,,,,,0,0,2,,,1,,,38,64
200640,note_on,,,,,48,0,2,,,1,,,61,116
200640,note_on,,,,,0,0,1,,,0,,,67,116
200640,note_on,,,,,0,0,1,,,0,,,97,116
200640,note_on,,,,,288,0,1,,,0,,,73,116
200640,note_on,,,,,0,0,1,,,0,,,71,116
200640,note_on,,,,,0,0,1,,,0,,,95,116
200640,note_on,,,,,0,0,1,,,0,,,85,116
200640,note_on,,,,,0,0,1,,,0,,,91,116
200832,note_off,,,,,192,0,2,,,1,,,61,64
200832,note_off,,,,,0,0,1,,,0,,,73,64
200832,note_off,,,,,0,0,1,,,0,,,71,64
200832,note_off,,,,,192,0,1,,,0,,,67,64
200832,note_off,,,,,0,0,1,,,0,,,91,64
200832,note_off,,,,,0,0,1,,,0,,,85,64
200832,note_off,,,,,0,0,1,,,0,,,97,64
200832,note_off,,,,,0,0,1,,,0,,,95,64
200880,note_on,,,,,48,0,2,,,1,,,52,116
200880,note_on,,,,,0,0,2,,,1,,,40,116
201072,note_off,,,,,192,0,2,,,1,,,40,64
201072,note_off,,,,,0,0,2,,,1,,,52,64
201120,note_on,,,,,48,0,2,,,1,,,61,116
201120,note_on,,,,,0,0,2,,,1,,,58,116
201120,note_on,,,,,0,0,1,,,0,,,70,116
201120,note_on,,,,,288,0,1,,,0,,,82,116
201120,note_on,,,,,0,0,1,,,0,,,94,116
201120,note_on,,,,,0,0,1,,,0,,,85,116
201120,note_on,,,,,0,0,1,,,0,,,66,116
201120,note_on,,,,,0,0,1,,,0,,,90,116
201312,note_off,,,,,192,0,2,,,1,,,58,64
201312,note_off,,,,,0,0,1,,,0,,,66,64
201312,note_off,,,,,0,0,1,,,0,,,70,64
201312,note_off,,,,,0,0,1,,,0,,,85,64
201312,note_off,,,,,0,0,1,,,0,,,94,64
201312,note_off,,,,,0,0,1,,,0,,,82,64
201312,note_off,,,,,0,0,2,,,1,,,61,64
201312,note_off,,,,,192,0,1,,,0,,,90,64
201360,note_on,,,,,0,0,2,,,1,,,42,116
201360,note_on,,,,,48,0,2,,,1,,,30,116
201552,note_off,,,,,0,0,2,,,1,,,30,64
201552,note_off,,,,,192,0,2,,,1,,,42,64
201600,note_on,,,,,0,0,2,,,1,,,47,116
201600,note_on,,,,,48,0,2,,,1,,,35,116
201840,note_on,,,,,528,0,1,,,0,,,54,116
201904,note_off,,,,,64,0,1,,,0,,,54,64
201920,note_on,,,,,16,0,1,,,0,,,59,116
201984,note_off,,,,,0,0,2,,,1,,,35,64
201984,note_off,,,,,384,0,2,,,1,,,47,64
201984,note_off,,,,,64,0,1,,,0,,,59,64
202000,note_on,,,,,16,0,1,,,0,,,66,116
202064,note_off,,,,,64,0,1,,,0,,,66,64
202080,note_on,,,,,96,0,2,,,1,,,49,116
202080,note_on,,,,,0,0,2,,,1,,,37,116
202080,note_on,,,,,16,0,1,,,0,,,66,116
202176,note_off,,,,,96,0,1,,,0,,,66,64
202200,note_on,,,,,24,0,1,,,0,,,78,116
202296,note_off,,,,,96,0,1,,,0,,,78,64
202320,note_on,,,,,24,0,1,,,0,,,70,116
202368,note_off,,,,,0,0,2,,,1,,,49,64
202368,note_off,,,,,288,0,2,,,1,,,37,64
202416,note_off,,,,,96,0,1,,,0,,,70,64
202440,note_on,,,,,24,0,1,,,0,,,71,116
202440,note_on,,,,,72,0,2,,,1,,,50,116
202440,note_on,,,,,0,0,2,,,1,,,38,116
202536,note_off,,,,,96,0,2,,,1,,,38,64
202536,note_off,,,,,0,0,2,,,1,,,50,64
202536,note_off,,,,,96,0,1,,,0,,,71,64
202560,note_on,,,,,24,0,2,,,1,,,50,116
202560,note_on,,,,,0,0,2,,,1,,,38,116
202800,note_on,,,,,264,0,1,,,0,,,54,116
202864,note_off,,,,,64,0,1,,,0,,,54,64
202880,note_on,,,,,16,0,1,,,0,,,59,116
202944,note_off,,,,,384,0,2,,,1,,,38,64
202944,note_off,,,,,64,0,1,,,0,,,59,64
202944,note_off,,,,,0,0,2,,,1,,,50,64
202960,note_on,,,,,16,0,1,,,0,,,66,116
203024,note_off,,,,,64,0,1,,,0,,,66,64
203040,note_on,,,,,16,0,1,,,0,,,66,116
203040,note_on,,,,,0,0,2,,,1,,,40,116
203040,note_on,,,,,96,0,2,,,1,,,52,116
203136,note_off,,,,,96,0,1,,,0,,,66,64
203160,note_on,,,,,24,0,1,,,0,,,78,116
203256,note_off,,,,,96,0,1,,,0,,,78,64
203280,note_on,,,,,24,0,1,,,0,,,73,116
203328,note_off,,,,,0,0,2,,,1,,,52,64
203328,note_off,,,,,288,0,2,,,1,,,40,64
203376,note_off,,,,,96,0,1,,,0,,,73,64
203400,note_on,,,,,0,0,2,,,1,,,42,116
203400,note_on,,,,,72,0,2,,,1,,,54,116
203400,note_on,,,,,24,0,1,,,0,,,74,116
203496,note_off,,,,,0,0,2,,,1,,,54,64
203496,note_off,,,,,96,0,2,,,1,,,42,64
203496,note_off,,,,,96,0,1,,,0,,,74,64
203520,note_on,,,,,0,0,2,,,1,,,57,116
203520,note_on,,,,,24,0,2,,,1,,,45,116
203712,note_off,,,,,192,0,2,,,1,,,57,64
203712,note_off,,,,,0,0,2,,,1,,,45,64
203760,note_on,,,,,264,0,1,,,0,,,71,116
203824,note_off,,,,,64,0,1,,,0,,,71,64
203840,note_on,,,,,16,0,1,,,0,,,83,116
203880,note_on,,,,,0,0,2,,,1,,,59,116
203880,note_on,,,,,168,0,2,,,1,,,64,116
203904,note_off,,,,,64,0,1,,,0,,,83,64
203920,note_on,,,,,16,0,1,,,0,,,83,116
203976,note_off,,,,,96,0,2,,,1,,,59,64
203976,note_off,,,,,0,0,2,,,1,,,64,64
203984,note_off,,,,,64,0,1,,,0,,,83,64
204000,note_on,,,,,24,0,2,,,1,,,55,116
204000,note_on,,,,,0,0,2,,,1,,,64,116
204000,note_on,,,,,0,0,2,,,1,,,59,116
204000,note_on,,,,,16,0,1,,,0,,,95,116
204064,note_off,,,,,64,0,1,,,0,,,95,64
204080,note_on,,,,,16,0,1,,,0,,,94,116
204144,note_off,,,,,64,0,1,,,0,,,94,64
204160,note_on,,,,,16,0,1,,,0,,,97,116
204192,note_off,,,,,192,0,2,,,1,,,64,64
204192,note_off,,,,,0,0,2,,,1,,,59,64
204224,note_off,,,,,64,0,1,,,0,,,97,64
204240,note_on,,,,,16,0,1,,,0,,,95,116
204240,note_on,,,,,48,0,2,,,1,,,63,116
204240,note_on,,,,,0,0,2,,,1,,,66,116
204304,note_off,,,,,64,0,1,,,0,,,95,64
204320,note_on,,,,,16,0,1,,,0,,,91,116
204336,note_off,,,,,96,0,2,,,1,,,66,64
204336,note_off,,,,,0,0,2,,,1,,,63,64
204360,note_on,,,,,24,0,2,,,1,,,67,116
204360,note_on,,,,,0,0,2,,,1,,,64,116
204384,note_off,,,,,64,0,1,,,0,,,91,64
204400,note_on,,,,,16,0,1,,,0,,,88,116
204456,note_off,,,,,0,0,2,,,1,,,67,64
204456,note_off,,,,,96,0,2,,,1,,,64,64
204464,note_off,,,,,64,0,1,,,0,,,88,64
204480,note_on,,,,,0,0,2,,,1,,,64,116
204480,note_on,,,,,16,0,1,,,0,,,82,116
204480,note_on,,,,,24,0,2,,,1,,,67,116
204544,note_off,,,,,64,0,1,,,0,,,82,64
204560,note_on,,,,,16,0,1,,,0,,,85,116
204624,note_off,,,,,64,0,1,,,0,,,85,64
204640,note_on,,,,,16,0,1,,,0,,,82,116
204672,note_off,,,,,192,0,2,,,1,,,55,64
204672,note_off,,,,,0,0,2,,,1,,,64,64
204672,note_off,,,,,0,0,2,,,1,,,67,64
204704,note_off,,,,,64,0,1,,,0,,,82,64
204720,note_on,,,,,0,0,1,,,0,,,69,116
204720,note_on,,,,,0,0,2,,,1,,,40,116
204720,note_on,,,,,16,0,1,,,0,,,79,116
204720,note_on,,,,,48,0,2,,,1,,,52,116
204784,note_off,,,,,64,0,1,,,0,,,79,64
204800,note_on,,,,,16,0,1,,,0,,,82,116
204816,note_off,,,,,16,0,1,,,0,,,69,64
204840,note_on,,,,,24,0,1,,,0,,,70,116
204864,note_off,,,,,24,0,1,,,0,,,82,64
204880,note_on,,,,,16,0,1,,,0,,,79,116
204912,note_off,,,,,0,0,2,,,1,,,52,64
204912,note_off,,,,,192,0,2,,,1,,,40,64
204936,note_off,,,,,56,0,1,,,0,,,70,64
204944,note_off,,,,,8,0,1,,,0,,,79,64
204960,note_on,,,,,16,0,1,,,0,,,79,116
204960,note_on,,,,,0,0,2,,,1,,,37,116
204960,note_on,,,,,48,0,2,,,1,,,49,116
204960,note_on,,,,,0,0,1,,,0,,,70,116
205024,note_off,,,,,64,0,1,,,0,,,79,64
205040,note_on,,,,,16,0,1,,,0,,,82,116
205104,note_off,,,,,64,0,1,,,0,,,82,64
205120,note_on,,,,,16,0,1,,,0,,,79,116
205152,note_off,,,,,32,0,1,,,0,,,70,64
205152,note_off,,,,,0,0,2,,,1,,,49,64
205152,note_off,,,,,192,0,2,,,1,,,37,64
205184,note_off,,,,,32,0,1,,,0,,,79,64
205200,note_on,,,,,0,0,2,,,1,,,33,116
205200,note_on,,,,,48,0,2,,,1,,,45,116
205200,note_on,,,,,0,0,1,,,0,,,76,116
205200,note_on,,,,,16,0,1,,,0,,,71,116
205264,note_off,,,,,64,0,1,,,0,,,76,64
205280,note_on,,,,,16,0,1,,,0,,,79,116
205296,note_off,,,,,16,0,1,,,0,,,71,64
205320,note_on,,,,,24,0,1,,,0,,,73,116
205344,note_off,,,,,24,0,1,,,0,,,79,64
205360,note_on,,,,,16,0,1,,,0,,,76,116
205392,note_off,,,,,192,0,2,,,1,,,33,64
205392,note_off,,,,,0,0,2,,,1,,,45,64
205416,note_off,,,,,56,0,1,,,0,,,73,64
205424,note_off,,,,,8,0,1,,,0,,,76,64
205440,note_on,,,,,0,0,1,,,0,,,74,116
205440,note_on,,,,,16,0,1,,,0,,,62,116
205440,note_on,,,,,0,0,1,,,0,,,66,116
205680,note_on,,,,,288,0,2,,,1,,,38,116
205744,note_off,,,,,64,0,2,,,1,,,38,64
205760,note_on,,,,,16,0,2,,,1,,,45,116
205824,note_off,,,,,0,0,1,,,0,,,62,64
205824,note_off,,,,,0,0,1,,,0,,,66,64
205824,note_off,,,,,384,0,1,,,0,,,74,64
205824,note_off,,,,,64,0,2,,,1,,,45,64
205840,note_on,,,,,16,0,2,,,1,,,50,116
205904,note_off,,,,,64,0,2,,,1,,,50,64
205920,note_on,,,,,0,0,1,,,0,,,64,116
205920,note_on,,,,,0,0,1,,,0,,,69,116
205920,note_on,,,,,16,0,2,,,1,,,50,116
205920,note_on,,,,,96,0,1,,,0,,,76,116
206016,note_off,,,,,96,0,2,,,1,,,50,64
206040,note_on,,,,,24,0,2,,,1,,,62,116
206136,note_off,,,,,96,0,2,,,1,,,62,64
206160,note_on,,,,,24,0,2,,,1,,,56,116
206208,note_off,,,,,0,0,1,,,0,,,64,64
206208,note_off,,,,,0,0,1,,,0,,,76,64
206208,note_off,,,,,288,0,1,,,0,,,69,64
206256,note_off,,,,,96,0,2,,,1,,,56,64
206280,note_on,,,,,0,0,1,,,0,,,66,116
206280,note_on,,,,,0,0,1,,,0,,,69,116
206280,note_on,,,,,24,0,2,,,1,,,57,116
206280,note_on,,,,,72,0,1,,,0,,,78,116
206376,note_off,,,,,0,0,1,,,0,,,78,64
206376,note_off,,,,,0,0,1,,,0,,,66,64
206376,note_off,,,,,96,0,1,,,0,,,69,64
206376,note_off,,,,,96,0,2,,,1,,,57,64
206400,note_on,,,,,0,0,1,,,0,,,69,116
206400,note_on,,,,,24,0,1,,,0,,,66,116
206400,note_on,,,,,0,0,1,,,0,,,78,116
206640,note_on,,,,,264,0,2,,,1,,,38,116
206704,note_off,,,,,64,0,2,,,1,,,38,64
206720,note_on,,,,,16,0,2,,,1,,,45,116
206784,note_off,,,,,384,0,1,,,0,,,78,64
206784,note_off,,,,,0,0,1,,,0,,,69,64
206784,note_off,,,,,0,0,1,,,0,,,66,64
206784,note_off,,,,,64,0,2,,,1,,,45,64
206800,note_on,,,,,16,0,2,,,1,,,50,116
206864,note_off,,,,,64,0,2,,,1,,,50,64
206880,note_on,,,,,96,0,1,,,0,,,67,116
206880,note_on,,,,,0,0,1,,,0,,,79,116
206880,note_on,,,,,16,0,2,,,1,,,50,116
206880,note_on,,,,,0,0,1,,,0,,,74,116
206976,note_off,,,,,96,0,2,,,1,,,50,64
207000,note_on,,,,,24,0,2,,,1,,,62,116
207096,note_off,,,,,96,0,2,,,1,,,62,64
207120,note_on,,,,,24,0,2,,,1,,,56,116
207168,note_off,,,,,0,0,1,,,0,,,67,64
207168,note_off,,,,,288,0,1,,,0,,,74,64
207168,note_off,,,,,0,0,1,,,0,,,79,64
207216,note_off,,,,,96,0,2,,,1,,,56,64
207240,note_on,,,,,24,0,2,,,1,,,57,116
207240,note_on,,,,,72,0,1,,,0,,,81,116
207240,note_on,,,,,0,0,1,,,0,,,74,116
207240,note_on,,,,,0,0,1,,,0,,,69,116
207336,note_off,,,,,96,0,2,,,1,,,57,64
207336,note_off,,,,,0,0,1,,,0,,,81,64
207336,note_off,,,,,0,0,1,,,0,,,69,64
207336,note_off,,,,,96,0,1,,,0,,,74,64
207360,note_on,,,,,0,0,1,,,0,,,85,116
207360,note_on,,,,,24,0,1,,,0,,,73,116
207552,note_off,,,,,192,0,1,,,0,,,85,64
207552,note_off,,,,,0,0,1,,,0,,,73,64
207600,note_on,,,,,264,0,2,,,1,,,44,116
207680,note_off,,,,,80,0,2,,,1,,,44,64
207680,note_on,,,,,0,0,2,,,1,,,56,116
207720,note_on,,,,,168,0,1,,,0,,,86,116
207760,note_on,,,,,0,0,2,,,1,,,56,116
207760,note_off,,,,,80,0,2,,,1,,,56,64
207816,note_off,,,,,96,0,1,,,0,,,86,64
207840,note_on,,,,,0,0,1,,,0,,,83,116
207840,note_on,,,,,0,0,1,,,0,,,86,116
207840,note_on,,,,,0,0,1,,,0,,,68,116
207840,note_off,,,,,80,0,2,,,1,,,56,64
207840,note_on,,,,,24,0,1,,,0,,,71,116
207840,note_on,,,,,0,0,1,,,0,,,74,116
207904,note_off,,,,,64,0,1,,,0,,,68,64
207920,note_on,,,,,16,0,1,,,0,,,66,116
207984,note_off,,,,,64,0,1,,,0,,,66,64
208000,note_on,,,,,16,0,1,,,0,,,69,116
208032,note_off,,,,,0,0,1,,,0,,,74,64
208032,note_off,,,,,0,0,1,,,0,,,71,64
208032,note_off,,,,,32,0,1,,,0,,,86,64
208064,note_off,,,,,32,0,1,,,0,,,69,64
208080,note_on,,,,,0,0,1,,,0,,,88,116
208080,note_on,,,,,16,0,1,,,0,,,68,116
208080,note_on,,,,,0,0,1,,,0,,,76,116
208144,note_off,,,,,64,0,1,,,0,,,68,64
208160,note_on,,,,,16,0,1,,,0,,,65,116
208176,note_off,,,,,16,0,1,,,0,,,76,64
208176,note_off,,,,,0,0,1,,,0,,,88,64
208200,note_on,,,,,24,0,1,,,0,,,77,116
208200,note_on,,,,,0,0,1,,,0,,,89,116
208224,note_off,,,,,24,0,1,,,0,,,65,64
208224,note_off,,,,,0,0,1,,,0,,,83,64
208240,note_on,,,,,16,0,1,,,0,,,62,116
208296,note_off,,,,,56,0,1,,,0,,,89,64
208296,note_off,,,,,0,0,1,,,0,,,77,64
208304,note_off,,,,,8,0,1,,,0,,,62,64
208320,note_on,,,,,16,0,1,,,0,,,89,116
208320,note_on,,,,,0,0,1,,,0,,,77,116
208320,note_on,,,,,0,0,1,,,0,,,86,116
208320,note_on,,,,,480,0,2,,,1,,,59,116
208384,note_off,,,,,64,0,2,,,1,,,59,64
208400,note_on,,,,,16,0,2,,,1,,,56,116
208464,note_off,,,,,64,0,2,,,1,,,56,64
208480,note_on,,,,,16,0,2,,,1,,,53,116
208512,note_off,,,,,192,0,1,,,0,,,86,64
208512,note_off,,,,,0,0,1,,,0,,,89,64
208512,note_off,,,,,0,0,1,,,0,,,77,64
208544,note_off,,,,,64,0,2,,,1,,,53,64
208560,note_on,,,,,16,0,2,,,1,,,49,116
208560,note_on,,,,,48,0,1,,,0,,,87,116
208560,note_on,,,,,0,0,1,,,0,,,91,116
208560,note_on,,,,,0,0,1,,,0,,,79,116
208624,note_off,,,,,64,0,2,,,1,,,49,64
208640,note_on,,,,,16,0,2,,,1,,,53,116
208656,note_off,,,,,96,0,1,,,0,,,91,64
208656,note_off,,,,,0,0,1,,,0,,,87,64
208656,note_off,,,,,0,0,1,,,0,,,79,64
208680,note_on,,,,,0,0,1,,,0,,,89,116
208680,note_on,,,,,0,0,1,,,0,,,92,116
208680,note_on,,,,,24,0,1,,,0,,,80,116
208704,note_off,,,,,64,0,2,,,1,,,53,64
208720,note_on,,,,,16,0,2,,,1,,,49,116
208776,note_off,,,,,0,0,1,,,0,,,80,64
208776,note_off,,,,,96,0,1,,,0,,,89,64
208776,note_off,,,,,0,0,1,,,0,,,92,64
208784,note_off,,,,,64,0,2,,,1,,,49,64
208800,note_on,,,,,16,0,2,,,1,,,47,116
208800,note_on,,,,,24,0,1,,,0,,,92,116
208800,note_on,,,,,0,0,1,,,0,,,80,116
208800,note_on,,,,,0,0,1,,,0,,,89,116
208864,note_off,,,,,64,0,2,,,1,,,47,64
208880,note_on,,,,,16,0,2,,,1,,,49,116
208944,note_off,,,,,64,0,2,,,1,,,49,64
208960,note_on,,,,,16,0,2,,,1,,,47,116
208992,note_off,,,,,0,0,1,,,0,,,92,64
208992,note_off,,,,,192,0,1,,,0,,,89,64
208992,note_off,,,,,0,0,1,,,0,,,80,64
209024,note_off,,,,,64,0,2,,,1,,,47,64
209040,note_on,,,,,0,0,1,,,0,,,92,116
209040,note_on,,,,,48,0,1,,,0,,,85,116
209040,note_on,,,,,0,0,1,,,0,,,97,116
209040,note_on,,,,,16,0,2,,,1,,,44,116
209040,note_on,,,,,0,0,1,,,0,,,89,116
209104,note_off,,,,,64,0,2,,,1,,,44,64
209120,note_on,,,,,16,0,2,,,1,,,47,116
209184,note_off,,,,,64,0,2,,,1,,,47,64
209200,note_on,,,,,16,0,2,,,1,,,44,116
209232,note_off,,,,,0,0,1,,,0,,,92,64
209232,note_off,,,,,192,0,1,,,0,,,97,64
209232,note_off,,,,,0,0,1,,,0,,,89,64
209232,note_off,,,,,0,0,1,,,0,,,85,64
209264,note_off,,,,,64,0,2,,,1,,,44,64
209280,note_on,,,,,16,0,2,,,1,,,42,116
209280,note_on,,,,,0,0,2,,,1,,,54,116
209520,note_on,,,,,288,0,1,,,0,,,57,116
209584,note_off,,,,,64,0,1,,,0,,,57,64
209600,note_on,,,,,16,0,1,,,0,,,66,116
209664,note_off,,,,,0,0,2,,,1,,,42,64
209664,note_off,,,,,64,0,1,,,0,,,66,64
209664,note_off,,,,,384,0,2,,,1,,,54,64
209680,note_on,,,,,16,0,1,,,0,,,73,116
209744,note_off,,,,,64,0,1,,,0,,,73,64
209760,note_on,,,,,0,0,2,,,1,,,56,116
209760,note_on,,,,,16,0,1,,,0,,,73,116
209760,note_on,,,,,96,0,2,,,1,,,44,116
209856,note_off,,,,,96,0,1,,,0,,,73,64
209880,note_on,,,,,24,0,1,,,0,,,85,116
209976,note_off,,,,,96,0,1,,,0,,,85,64
210000,note_on,,,,,24,0,1,,,0,,,77,116
210048,note_off,,,,,288,0,2,,,1,,,56,64
210048,note_off,,,,,0,0,2,,,1,,,44,64
210096,note_off,,,,,96,0,1,,,0,,,77,64
210120,note_on,,,,,72,0,2,,,1,,,57,116
210120,note_on,,,,,0,0,2,,,1,,,45,116
210120,note_on,,,,,24,0,1,,,0,,,78,116
210216,note_off,,,,,0,0,2,,,1,,,57,64
210216,note_off,,,,,96,0,2,,,1,,,45,64
210216,note_off,,,,,96,0,1,,,0,,,78,64
210240,note_on,,,,,0,0,2,,,1,,,45,116
210240,note_on,,,,,24,0,2,,,1,,,57,116
210480,note_on,,,,,264,0,1,,,0,,,61,116
210544,note_off,,,,,64,0,1,,,0,,,61,64
210560,note_on,,,,,16,0,1,,,0,,,66,116
210624,note_off,,,,,384,0,2,,,1,,,45,64
210624,note_off,,,,,0,0,2,,,1,,,57,64
210624,note_off,,,,,64,0,1,,,0,,,66,64
210640,note_on,,,,,16,0,1,,,0,,,73,116
210704,note_off,,,,,64,0,1,,,0,,,73,64
210720,note_on,,,,,0,0,2,,,1,,,47,116
210720,note_on,,,,,96,0,2,,,1,,,59,116
210720,note_on,,,,,16,0,1,,,0,,,73,116
210816,note_off,,,,,96,0,1,,,0,,,73,64
210840,note_on,,,,,24,0,1,,,0,,,85,116
210936,note_off,,,,,96,0,1,,,0,,,85,64
210960,note_on,,,,,24,0,1,,,0,,,80,116
211008,note_off,,,,,288,0,2,,,1,,,47,64
211008,note_off,,,,,0,0,2,,,1,,,59,64
211056,note_off,,,,,96,0,1,,,0,,,80,64
211080,note_on,,,,,72,0,2,,,1,,,49,116
211080,note_on,,,,,0,0,2,,,1,,,61,116
211080,note_on,,,,,24,0,1,,,0,,,81,116
211176,note_off,,,,,96,0,2,,,1,,,61,64
211176,note_off,,,,,0,0,2,,,1,,,49,64
211176,note_off,,,,,96,0,1,,,0,,,81,64
211200,note_on,,,,,24,0,1,,,0,,,64,116
211200,note_on,,,,,0,0,1,,,0,,,52,116
211392,note_off,,,,,192,0,1,,,0,,,52,64
211392,note_off,,,,,0,0,1,,,0,,,64,64
211440,note_on,,,,,48,0,1,,,0,,,66,116
211504,note_off,,,,,64,0,1,,,0,,,66,64
211520,note_on,,,,,16,0,1,,,0,,,78,116
211560,note_on,,,,,384,0,2,,,1,,,66,116
211560,note_on,,,,,0,0,2,,,1,,,69,116
211584,note_off,,,,,64,0,1,,,0,,,78,64
211600,note_on,,,,,16,0,1,,,0,,,78,116
211656,note_off,,,,,0,0,2,,,1,,,66,64
211656,note_off,,,,,96,0,2,,,1,,,69,64
211664,note_off,,,,,64,0,1,,,0,,,78,64
211680,note_on,,,,,0,0,2,,,1,,,62,116
211680,note_on,,,,,0,0,2,,,1,,,69,116
211680,note_on,,,,,24,0,2,,,1,,,66,116
211680,note_on,,,,,16,0,1,,,0,,,90,116
211744,note_off,,,,,64,0,1,,,0,,,90,64
211760,note_on,,,,,16,0,1,,,0,,,89,116
211824,note_off,,,,,64,0,1,,,0,,,89,64
211840,note_on,,,,,16,0,1,,,0,,,91,116
211872,note_off,,,,,192,0,2,,,1,,,69,64
211872,note_off,,,,,0,0,2,,,1,,,66,64
211904,note_off,,,,,64,0,1,,,0,,,91,64
211920,note_on,,,,,0,0,2,,,1,,,71,116
211920,note_on,,,,,48,0,2,,,1,,,67,116
211920,note_on,,,,,16,0,1,,,0,,,90,116
211984,note_off,,,,,64,0,1,,,0,,,90,64
212000,note_on,,,,,16,0,1,,,0,,,84,116
212016,note_off,,,,,96,0,2,,,1,,,71,64
212016,note_off,,,,,0,0,2,,,1,,,67,64
212040,note_on,,,,,24,0,2,,,1,,,69,116
212040,note_on,,,,,0,0,2,,,1,,,72,116
212064,note_off,,,,,64,0,1,,,0,,,84,64
212064,note_off,,,,,24,0,2,,,1,,,62,64
212080,note_on,,,,,16,0,1,,,0,,,81,116
212136,note_off,,,,,0,0,2,,,1,,,69,64
212136,note_off,,,,,72,0,2,,,1,,,72,64
212144,note_off,,,,,64,0,1,,,0,,,81,64
212160,note_on,,,,,0,0,1,,,0,,,78,116
212160,note_on,,,,,16,0,1,,,0,,,72,116
212160,note_on,,,,,0,0,1,,,0,,,69,116
212224,note_off,,,,,64,0,1,,,0,,,78,64
212240,note_on,,,,,16,0,1,,,0,,,81,116
212304,note_off,,,,,64,0,1,,,0,,,81,64
212320,note_on,,,,,16,0,1,,,0,,,78,116
212352,note_off,,,,,32,0,1,,,0,,,69,64
212352,note_off,,,,,0,0,1,,,0,,,72,64
212384,note_off,,,,,32,0,1,,,0,,,78,64
212400,note_on,,,,,16,0,1,,,0,,,79,116
212400,note_on,,,,,264,0,2,,,1,,,45,116
212400,note_on,,,,,0,0,2,,,1,,,57,116
212464,note_off,,,,,64,0,1,,,0,,,79,64
212480,note_on,,,,,16,0,1,,,0,,,83,116
212544,note_off,,,,,64,0,1,,,0,,,83,64
212560,note_on,,,,,16,0,1,,,0,,,84,116
212560,note_on,,,,,0,0,1,,,0,,,72,116
212560,note_on,,,,,0,0,1,,,0,,,81,116
212592,note_off,,,,,0,0,2,,,1,,,45,64
212592,note_off,,,,,192,0,2,,,1,,,57,64
212624,note_off,,,,,64,0,1,,,0,,,81,64
212624,note_off,,,,,0,0,1,,,0,,,72,64
212624,note_off,,,,,0,0,1,,,0,,,84,64
212640,note_on,,,,,16,0,1,,,0,,,72,116
212640,note_on,,,,,0,0,1,,,0,,,81,116
212640,note_on,,,,,0,0,2,,,1,,,54,116
212640,note_on,,,,,48,0,2,,,1,,,42,116
212704,note_off,,,,,64,0,1,,,0,,,81,64
212704,note_off,,,,,0,0,1,,,0,,,72,64
212720,note_on,,,,,16,0,1,,,0,,,84,116
212784,note_off,,,,,64,0,1,,,0,,,84,64
212800,note_on,,,,,0,0,1,,,0,,,81,116
212800,note_on,,,,,16,0,1,,,0,,,72,116
212832,note_off,,,,,0,0,2,,,1,,,42,64
212832,note_off,,,,,192,0,2,,,1,,,54,64
212864,note_off,,,,,64,0,1,,,0,,,81,64
212864,note_off,,,,,0,0,1,,,0,,,72,64
212880,note_on,,,,,16,0,1,,,0,,,74,116
212880,note_on,,,,,0,0,1,,,0,,,83,116
212880,note_on,,,,,48,0,2,,,1,,,38,116
212880,note_on,,,,,0,0,2,,,1,,,50,116
212944,note_off,,,,,0,0,1,,,0,,,74,64
212944,note_off,,,,,64,0,1,,,0,,,83,64
212960,note_on,,,,,16,0,1,,,0,,,86,116
213024,note_off,,,,,64,0,1,,,0,,,86,64
213040,note_on,,,,,0,0,1,,,0,,,87,116
213040,note_on,,,,,16,0,1,,,0,,,84,116
213040,note_on,,,,,0,0,1,,,0,,,75,116
213072,note_off,,,,,0,0,2,,,1,,,38,64
213072,note_off,,,,,192,0,2,,,1,,,50,64
213104,note_off,,,,,64,0,1,,,0,,,75,64
213104,note_off,,,,,0,0,1,,,0,,,87,64
213104,note_off,,,,,0,0,1,,,0,,,84,64
213120,note_on,,,,,48,0,2,,,1,,,36,116
213184,note_off,,,,,64,0,2,,,1,,,36,64
213188,note_on,,,,,4,0,2,,,1,,,38,116
213252,note_off,,,,,64,0,2,,,1,,,38,64
213256,note_on,,,,,4,0,2,,,1,,,36,116
213320,note_off,,,,,64,0,2,,,1,,,36,64
213324,note_on,,,,,4,0,2,,,1,,,38,116
213388,note_off,,,,,64,0,2,,,1,,,38,64
213392,note_on,,,,,4,0,2,,,1,,,36,116
213456,note_off,,,,,64,0,2,,,1,,,36,64
213460,note_on,,,,,4,0,2,,,1,,,38,116
213524,note_off,,,,,64,0,2,,,1,,,38,64
213528,note_on,,,,,4,0,2,,,1,,,36,116
213592,note_off,,,,,64,0,2,,,1,,,36,64
213600,note_on,,,,,0,0,1,,,0,,,60,116
213600,note_on,,,,,0,0,1,,,0,,,84,116
213600,note_on,,,,,0,0,1,,,0,,,69,116
213600,note_on,,,,,0,0,1,,,0,,,81,116
213600,note_on,,,,,496,0,1,,,0,,,72,116
213792,note_off,,,,,0,0,1,,,0,,,60,64
213792,note_off,,,,,0,0,1,,,0,,,69,64
213792,note_off,,,,,0,0,1,,,0,,,72,64
213792,note_off,,,,,0,0,1,,,0,,,84,64
213792,note_off,,,,,192,0,1,,,0,,,81,64
213840,note_on,,,,,48,0,1,,,0,,,62,116
213840,note_on,,,,,0,0,1,,,0,,,71,116
213840,note_on,,,,,0,0,1,,,0,,,83,116
213840,note_on,,,,,0,0,1,,,0,,,86,116
213840,note_on,,,,,0,0,1,,,0,,,74,116
213936,note_off,,,,,0,0,1,,,0,,,71,64
213936,note_off,,,,,96,0,1,,,0,,,74,64
213936,note_off,,,,,0,0,1,,,0,,,86,64
213936,note_off,,,,,0,0,1,,,0,,,83,64
213936,note_off,,,,,0,0,1,,,0,,,62,64
213960,note_on,,,,,24,0,1,,,0,,,63,116
213960,note_on,,,,,0,0,1,,,0,,,87,116
213960,note_on,,,,,0,0,1,,,0,,,75,116
213960,note_on,,,,,0,0,1,,,0,,,84,116
213960,note_on,,,,,0,0,1,,,0,,,72,116
214056,note_off,,,,,0,0,1,,,0,,,84,64
214056,note_off,,,,,0,0,1,,,0,,,75,64
214056,note_off,,,,,0,0,1,,,0,,,87,64
214056,note_off,,,,,0,0,1,,,0,,,63,64
214056,note_off,,,,,96,0,1,,,0,,,72,64
214080,note_on,,,,,488,0,2,,,1,,,36,110
214144,note_off,,,,,64,0,2,,,1,,,36,64
214148,note_on,,,,,4,0,2,,,1,,,38,116
214212,note_off,,,,,64,0,2,,,1,,,38,64
214216,note_on,,,,,4,0,2,,,1,,,36,116
214280,note_off,,,,,64,0,2,,,1,,,36,64
214284,note_on,,,,,4,0,2,,,1,,,38,116
214348,note_off,,,,,64,0,2,,,1,,,38,64
214352,note_on,,,,,4,0,2,,,1,,,36,116
214416,note_off,,,,,64,0,2,,,1,,,36,64
214420,note_on,,,,,4,0,2,,,1,,,38,116
214484,note_off,,,,,64,0,2,,,1,,,38,64
214488,note_on,,,,,4,0,2,,,1,,,36,116
214552,note_off,,,,,64,0,2,,,1,,,36,64
214560,note_on,,,,,0,0,1,,,0,,,81,116
214560,note_on,,,,,0,0,1,,,0,,,69,116
214560,note_on,,,,,0,0,1,,,0,,,84,116
214560,note_on,,,,,0,0,1,,,0,,,60,116
214560,note_on,,,,,504,0,1,,,0,,,72,116
214752,note_off,,,,,192,0,1,,,0,,,84,64
214752,note_off,,,,,0,0,1,,,0,,,69,64
214752,note_off,,,,,0,0,1,,,0,,,81,64
214752,note_off,,,,,0,0,1,,,0,,,60,64
214752,note_off,,,,,0,0,1,,,0,,,72,64
214800,note_on,,,,,0,0,1,,,0,,,71,116
214800,note_on,,,,,0,0,1,,,0,,,86,116
214800,note_on,,,,,0,0,1,,,0,,,62,116
214800,note_on,,,,,48,0,1,,,0,,,83,116
214800,note_on,,,,,0,0,1,,,0,,,74,116
214896,note_off,,,,,0,0,1,,,0,,,83,64
214896,note_off,,,,,0,0,1,,,0,,,86,64
214896,note_off,,,,,0,0,1,,,0,,,71,64
214896,note_off,,,,,96,0,1,,,0,,,62,64
214896,note_off,,,,,0,0,1,,,0,,,74,64
214920,note_on,,,,,0,0,1,,,0,,,87,116
214920,note_on,,,,,0,0,1,,,0,,,75,116
214920,note_on,,,,,0,0,1,,,0,,,84,116
214920,note_on,,,,,24,0,1,,,0,,,72,116
214920,note_on,,,,,0,0,1,,,0,,,63,116
215016,note_off,,,,,0,0,1,,,0,,,87,64
215016,note_off,,,,,0,0,1,,,0,,,84,64
215016,note_off,,,,,0,0,1,,,0,,,75,64
215016,note_off,,,,,96,0,1,,,0,,,63,64
215016,note_off,,,,,0,0,1,,,0,,,72,64
215040,note_on,,,,,488,0,2,,,1,,,36,110
215104,note_off,,,,,64,0,2,,,1,,,36,64
215120,note_on,,,,,16,0,2,,,1,,,38,116
215184,note_off,,,,,64,0,2,,,1,,,38,64
215200,note_on,,,,,16,0,2,,,1,,,36,116
215264,note_off,,,,,64,0,2,,,1,,,36,64
215280,note_on,,,,,16,0,2,,,1,,,38,81
215344,note_off,,,,,64,0,2,,,1,,,38,64
215360,note_on,,,,,16,0,2,,,1,,,36,81
215424,note_off,,,,,64,0,2,,,1,,,36,64
215440,note_on,,,,,16,0,2,,,1,,,38,81
215504,note_off,,,,,64,0,2,,,1,,,38,64
215520,note_on,,,,,16,0,2,,,1,,,36,81
215584,note_off,,,,,64,0,2,,,1,,,36,64
215600,note_on,,,,,16,0,2,,,1,,,38,81
215664,note_off,,,,,64,0,2,,,1,,,38,64
215680,note_on,,,,,16,0,2,,,1,,,36,81
215744,note_off,,,,,64,0,2,,,1,,,36,64
215760,note_on,,,,,16,0,2,,,1,,,38,71
215824,note_off,,,,,64,0,2,,,1,,,38,64
215840,note_on,,,,,16,0,2,,,1,,,36,71
215904,note_off,,,,,64,0,2,,,1,,,36,64
215920,note_on,,,,,16,0,2,,,1,,,38,71
215984,note_off,,,,,64,0,2,,,1,,,38,64
216000,note_on,,,,,0,0,1,,,0,,,88,58
216000,note_on,,,,,16,0,2,,,1,,,36,58
216000,note_on,,,,,984,0,1,,,0,,,76,58
216000,note_on,,,,,0,0,1,,,0,,,84,58
216096,note_off,,,,,96,0,2,,,1,,,36,64
216192,note_off,,,,,0,0,1,,,0,,,88,64
216192,note_off,,,,,0,0,1,,,0,,,76,64
216192,note_off,,,,,192,0,1,,,0,,,84,64
216240,note_on,,,,,0,0,1,,,0,,,83,58
216240,note_on,,,,,0,0,1,,,0,,,74,58
216240,note_on,,,,,48,0,1,,,0,,,86,58
216336,note_off,,,,,0,0,1,,,0,,,83,64
216336,note_off,,,,,96,0,1,,,0,,,74,64
216336,note_off,,,,,0,0,1,,,0,,,86,64
216360,note_on,,,,,24,0,1,,,0,,,72,58
216360,note_on,,,,,0,0,1,,,0,,,84,58
216360,note_on,,,,,0,0,1,,,0,,,81,58
216456,note_off,,,,,96,0,1,,,0,,,81,64
216456,note_off,,,,,0,0,1,,,0,,,84,64
216456,note_off,,,,,0,0,1,,,0,,,72,64
216480,note_on,,,,,24,0,1,,,0,,,81,58
216480,note_on,,,,,0,0,1,,,0,,,84,58
216480,note_on,,,,,0,0,1,,,0,,,72,58
216672,note_off,,,,,192,0,1,,,0,,,72,64
216672,note_off,,,,,0,0,1,,,0,,,84,64
216672,note_off,,,,,0,0,1,,,0,,,81,64
216720,note_on,,,,,0,0,1,,,0,,,83,58
216720,note_on,,,,,48,0,1,,,0,,,79,58
216720,note_on,,,,,0,0,1,,,0,,,71,58
216816,note_off,,,,,96,0,1,,,0,,,71,64
216816,note_off,,,,,0,0,1,,,0,,,83,64
216816,note_off,,,,,0,0,1,,,0,,,79,64
216840,note_on,,,,,24,0,1,,,0,,,78,58
216840,note_on,,,,,0,0,1,,,0,,,81,58
216840,note_on,,,,,0,0,1,,,0,,,69,58
216936,note_off,,,,,96,0,1,,,0,,,69,64
216936,note_off,,,,,0,0,1,,,0,,,78,64
216936,note_off,,,,,0,0,1,,,0,,,81,64
216960,note_on,,,,,0,0,2,,,1,,,72,58
216960,note_on,,,,,864,0,2,,,1,,,76,58
216960,note_on,,,,,24,0,1,,,0,,,78,58
216960,note_on,,,,,0,0,2,,,1,,,64,58
216960,note_on,,,,,0,0,1,,,0,,,81,58
216960,note_on,,,,,0,0,1,,,0,,,69,58
217152,note_off,,,,,192,0,1,,,0,,,69,64
217152,note_off,,,,,0,0,1,,,0,,,81,64
217152,note_off,,,,,0,0,1,,,0,,,78,64
217185,note_off,,,,,0,0,2,,,1,,,76,64
217185,note_off,,,,,225,0,2,,,1,,,72,64
217185,note_off,,,,,0,0,2,,,1,,,64,64
217200,note_on,,,,,48,0,1,,,0,,,83,58
217200,note_on,,,,,0,0,1,,,0,,,79,58
217200,note_on,,,,,15,0,2,,,1,,,62,58
217200,note_on,,,,,0,0,2,,,1,,,71,58
217200,note_on,,,,,0,0,2,,,1,,,74,58
217296,note_off,,,,,96,0,1,,,0,,,79,64
217296,note_off,,,,,0,0,1,,,0,,,83,64
217296,note_off,,,,,96,0,2,,,1,,,74,64
217296,note_off,,,,,0,0,2,,,1,,,71,64
217296,note_off,,,,,0,0,2,,,1,,,62,64
217320,note_on,,,,,24,0,2,,,1,,,60,58
217320,note_on,,,,,0,0,2,,,1,,,72,58
217320,note_on,,,,,0,0,2,,,1,,,69,58
217320,note_on,,,,,0,0,1,,,0,,,84,58
217320,note_on,,,,,24,0,1,,,0,,,81,58
217416,note_off,,,,,0,0,2,,,1,,,60,64
217416,note_off,,,,,0,0,1,,,0,,,81,64
217416,note_off,,,,,96,0,2,,,1,,,69,64
217416,note_off,,,,,0,0,2,,,1,,,72,64
217416,note_off,,,,,96,0,1,,,0,,,84,64
217440,note_on,,,,,0,0,2,,,1,,,72,58
217440,note_on,,,,,24,0,2,,,1,,,64,58
217440,note_on,,,,,24,0,1,,,0,,,81,58
217440,note_on,,,,,0,0,1,,,0,,,84,58
217440,note_on,,,,,0,0,2,,,1,,,60,58
217632,note_off,,,,,0,0,1,,,0,,,81,64
217632,note_off,,,,,192,0,2,,,1,,,60,64
217632,note_off,,,,,0,0,2,,,1,,,72,64
217632,note_off,,,,,0,0,2,,,1,,,64,64
217632,note_off,,,,,192,0,1,,,0,,,84,64
217680,note_on,,,,,0,0,2,,,1,,,71,58
217680,note_on,,,,,0,0,1,,,0,,,83,58
217680,note_on,,,,,0,0,2,,,1,,,62,58
217680,note_on,,,,,48,0,2,,,1,,,59,58
217680,note_on,,,,,48,0,1,,,0,,,86,58
217776,note_off,,,,,96,0,1,,,0,,,83,64
217776,note_off,,,,,0,0,1,,,0,,,86,64
217776,note_off,,,,,0,0,2,,,1,,,59,64
217776,note_off,,,,,96,0,2,,,1,,,71,64
217776,note_off,,,,,0,0,2,,,1,,,62,64
217800,note_on,,,,,24,0,2,,,1,,,69,58
217800,note_on,,,,,0,0,2,,,1,,,60,58
217800,note_on,,,,,0,0,1,,,0,,,88,58
217800,note_on,,,,,24,0,1,,,0,,,84,58
217800,note_on,,,,,0,0,2,,,1,,,57,58
217896,note_off,,,,,96,0,2,,,1,,,60,64
217896,note_off,,,,,0,0,2,,,1,,,57,64
217896,note_off,,,,,0,0,2,,,1,,,69,64
217896,note_off,,,,,0,0,1,,,0,,,84,64
217896,note_off,,,,,96,0,1,,,0,,,88,64
217920,note_on,,,,,24,0,1,,,0,,,88,58
217920,note_on,,,,,0,0,2,,,1,,,69,58
217920,note_on,,,,,0,0,2,,,1,,,60,58
217920,note_on,,,,,0,0,1,,,0,,,91,58
217920,note_on,,,,,24,0,2,,,1,,,57,58
218112,note_off,,,,,0,0,2,,,1,,,57,64
218112,note_off,,,,,192,0,2,,,1,,,69,64
218112,note_off,,,,,0,0,1,,,0,,,88,64
218112,note_off,,,,,192,0,1,,,0,,,91,64
218112,note_off,,,,,0,0,2,,,1,,,60,64
218160,note_on,,,,,48,0,2,,,1,,,62,58
218160,note_on,,,,,0,0,1,,,0,,,90,58
218160,note_on,,,,,48,0,1,,,0,,,86,58
218160,note_on,,,,,0,0,2,,,1,,,59,58
218160,note_on,,,,,0,0,2,,,1,,,71,58
218256,note_off,,,,,96,0,2,,,1,,,59,64
218256,note_off,,,,,96,0,1,,,0,,,90,64
218256,note_off,,,,,0,0,1,,,0,,,86,64
218256,note_off,,,,,0,0,2,,,1,,,71,64
218256,note_off,,,,,0,0,2,,,1,,,62,64
218280,note_on,,,,,0,0,2,,,1,,,72,58
218280,note_on,,,,,0,0,2,,,1,,,60,58
218280,note_on,,,,,0,0,1,,,0,,,88,58
218280,note_on,,,,,24,0,1,,,0,,,84,58
218280,note_on,,,,,24,0,2,,,1,,,64,58
218376,note_off,,,,,96,0,2,,,1,,,60,64
218376,note_off,,,,,0,0,2,,,1,,,72,64
218376,note_off,,,,,0,0,2,,,1,,,64,64
218376,note_off,,,,,0,0,1,,,0,,,84,64
218376,note_off,,,,,96,0,1,,,0,,,88,64
218400,note_on,,,,,24,0,2,,,1,,,60,58
218400,note_on,,,,,0,0,2,,,1,,,64,58
218400,note_on,,,,,0,0,2,,,1,,,72,58
218400,note_on,,,,,0,0,1,,,0,,,88,58
218400,note_on,,,,,24,0,1,,,0,,,84,58
218592,note_off,,,,,0,0,1,,,0,,,84,64
218592,note_off,,,,,192,0,1,,,0,,,88,64
218592,note_off,,,,,192,0,2,,,1,,,72,64
218592,note_off,,,,,0,0,2,,,1,,,64,64
218592,note_off,,,,,0,0,2,,,1,,,60,64
218640,note_on,,,,,0,0,1,,,0,,,86,58
218640,note_on,,,,,48,0,1,,,0,,,83,58
218640,note_on,,,,,0,0,2,,,1,,,66,58
218640,note_on,,,,,48,0,2,,,1,,,62,58
218640,note_on,,,,,0,0,2,,,1,,,74,58
218736,note_off,,,,,96,0,1,,,0,,,86,64
218736,note_off,,,,,0,0,1,,,0,,,83,64
218736,note_off,,,,,96,0,2,,,1,,,66,64
218736,note_off,,,,,0,0,2,,,1,,,74,64
218736,note_off,,,,,0,0,2,,,1,,,62,64
218760,note_on,,,,,0,0,1,,,0,,,84,58
218760,note_on,,,,,24,0,1,,,0,,,81,58
218760,note_on,,,,,24,0,2,,,1,,,64,58
218760,note_on,,,,,0,0,2,,,1,,,67,58
218760,note_on,,,,,0,0,2,,,1,,,76,58
218856,note_off,,,,,0,0,1,,,0,,,81,64
218856,note_off,,,,,96,0,1,,,0,,,84,64
218856,note_off,,,,,0,0,2,,,1,,,67,64
218856,note_off,,,,,0,0,2,,,1,,,64,64
218856,note_off,,,,,96,0,2,,,1,,,76,64
218880,note_on,,,,,24,0,2,,,1,,,76,58
218880,note_on,,,,,0,0,2,,,1,,,79,58
218880,note_on,,,,,0,0,2,,,1,,,67,58
218880,note_on,,,,,24,0,1,,,0,,,84,58
218880,note_on,,,,,0,0,1,,,0,,,81,58
219072,note_off,,,,,192,0,2,,,1,,,79,64
219072,note_off,,,,,0,0,2,,,1,,,67,64
219072,note_off,,,,,0,0,2,,,1,,,76,64
219072,note_off,,,,,192,0,1,,,0,,,81,64
219072,note_off,,,,,0,0,1,,,0,,,84,64
219120,note_on,,,,,0,0,1,,,0,,,86,58
219120,note_on,,,,,48,0,2,,,1,,,78,58
219120,note_on,,,,,0,0,2,,,1,,,66,58
219120,note_on,,,,,0,0,2,,,1,,,74,58
219120,note_on,,,,,48,0,1,,,0,,,83,58
219216,note_off,,,,,96,0,2,,,1,,,74,64
219216,note_off,,,,,96,0,1,,,0,,,86,64
219216,note_off,,,,,0,0,2,,,1,,,66,64
219216,note_off,,,,,0,0,1,,,0,,,83,64
219216,note_off,,,,,0,0,2,,,1,,,78,64
219240,note_on,,,,,24,0,2,,,1,,,64,58
219240,note_on,,,,,0,0,2,,,1,,,76,58
219240,note_on,,,,,0,0,1,,,0,,,84,58
219240,note_on,,,,,24,0,1,,,0,,,88,58
219240,note_on,,,,,0,0,2,,,1,,,72,58
219336,note_off,,,,,0,0,2,,,1,,,64,64
219336,note_off,,,,,0,0,1,,,0,,,88,64
219336,note_off,,,,,0,0,2,,,1,,,76,64
219336,note_off,,,,,96,0,2,,,1,,,72,64
219336,note_off,,,,,96,0,1,,,0,,,84,64
219360,note_on,,,,,0,0,1,,,0,,,88,58
219360,note_on,,,,,24,0,2,,,1,,,76,58
219360,note_on,,,,,24,0,1,,,0,,,84,58
219360,note_on,,,,,0,0,2,,,1,,,64,58
219360,note_on,,,,,0,0,2,,,1,,,67,58
219552,note_off,,,,,0,0,1,,,0,,,84,64
219552,note_off,,,,,192,0,1,,,0,,,88,64
219552,note_off,,,,,0,0,2,,,1,,,67,64
219552,note_off,,,,,0,0,2,,,1,,,76,64
219552,note_off,,,,,192,0,2,,,1,,,64,64
219600,note_on,,,,,0,0,2,,,1,,,62,58
219600,note_on,,,,,0,0,2,,,1,,,74,58
219600,note_on,,,,,48,0,1,,,0,,,90,58
219600,note_on,,,,,0,0,1,,,0,,,86,58
219600,note_on,,,,,48,0,2,,,1,,,66,58
219696,note_off,,,,,0,0,2,,,1,,,74,64
219696,note_off,,,,,96,0,1,,,0,,,86,64
219696,note_off,,,,,0,0,1,,,0,,,90,64
219696,note_off,,,,,0,0,2,,,1,,,66,64
219696,note_off,,,,,96,0,2,,,1,,,62,64
219720,note_on,,,,,24,0,1,,,0,,,88,58
219720,note_on,,,,,0,0,2,,,1,,,72,58
219720,note_on,,,,,0,0,2,,,1,,,60,58
219720,note_on,,,,,24,0,2,,,1,,,64,58
219720,note_on,,,,,0,0,1,,,0,,,91,58
219816,note_off,,,,,0,0,1,,,0,,,88,64
219816,note_off,,,,,0,0,2,,,1,,,64,64
219816,note_off,,,,,0,0,2,,,1,,,60,64
219816,note_off,,,,,96,0,2,,,1,,,72,64
219816,note_off,,,,,96,0,1,,,0,,,91,64
219840,note_on,,,,,0,0,2,,,1,,,64,58
219840,note_on,,,,,24,0,1,,,0,,,91,58
219840,note_on,,,,,0,0,1,,,0,,,95,58
219840,note_on,,,,,0,0,2,,,1,,,60,58
219840,note_on,,,,,24,0,2,,,1,,,72,58
220032,note_off,,,,,0,0,1,,,0,,,91,64
220032,note_off,,,,,0,0,2,,,1,,,72,64
220032,note_off,,,,,192,0,2,,,1,,,64,64
220032,note_off,,,,,0,0,2,,,1,,,60,64
220032,note_off,,,,,192,0,1,,,0,,,95,64
220080,note_on,,,,,0,0,2,,,1,,,74,58
220080,note_on,,,,,0,0,2,,,1,,,66,58
220080,note_on,,,,,48,0,2,,,1,,,62,58
220080,note_on,,,,,0,0,1,,,0,,,90,58
220080,note_on,,,,,48,0,1,,,0,,,93,58
220176,note_off,,,,,0,0,2,,,1,,,66,64
220176,note_off,,,,,96,0,2,,,1,,,74,64
220176,note_off,,,,,0,0,1,,,0,,,93,64
220176,note_off,,,,,96,0,1,,,0,,,90,64
220176,note_off,,,,,0,0,2,,,1,,,62,64
220200,note_on,,,,,0,0,2,,,1,,,76,58
220200,note_on,,,,,0,0,2,,,1,,,67,58
220200,note_on,,,,,24,0,1,,,0,,,88,58
220200,note_on,,,,,0,0,1,,,0,,,91,58
220200,note_on,,,,,24,0,2,,,1,,,64,58
220296,note_off,,,,,96,0,2,,,1,,,76,64
220296,note_off,,,,,96,0,1,,,0,,,91,64
220296,note_off,,,,,0,0,1,,,0,,,88,64
220296,note_off,,,,,0,0,2,,,1,,,67,64
220296,note_off,,,,,0,0,2,,,1,,,64,64
220320,note_on,,,,,0,0,2,,,1,,,76,58
220320,note_on,,,,,24,0,2,,,1,,,67,58
220320,note_on,,,,,24,0,1,,,0,,,88,58
220320,note_on,,,,,0,0,1,,,0,,,91,58
220320,note_on,,,,,0,0,2,,,1,,,64,58
220512,note_off,,,,,0,0,2,,,1,,,76,64
220512,note_off,,,,,0,0,2,,,1,,,67,64
220512,note_off,,,,,192,0,2,,,1,,,64,64
220512,note_off,,,,,0,0,1,,,0,,,88,64
220512,note_off,,,,,192,0,1,,,0,,,91,64
220560,note_on,,,,,0,0,1,,,0,,,90,58
220560,note_on,,,,,48,0,2,,,1,,,69,58
220560,note_on,,,,,0,0,2,,,1,,,66,58
220560,note_on,,,,,0,0,2,,,1,,,78,58
220560,note_on,,,,,48,0,1,,,0,,,86,58
220656,note_off,,,,,0,0,1,,,0,,,86,64
220656,note_off,,,,,96,0,1,,,0,,,90,64
220656,note_off,,,,,96,0,2,,,1,,,78,64
220656,note_off,,,,,0,0,2,,,1,,,66,64
220656,note_off,,,,,0,0,2,,,1,,,69,64
220680,note_on,,,,,24,0,2,,,1,,,71,58
220680,note_on,,,,,0,0,2,,,1,,,67,58
220680,note_on,,,,,0,0,1,,,0,,,84,58
220680,note_on,,,,,0,0,2,,,1,,,79,58
220680,note_on,,,,,24,0,1,,,0,,,88,58
220776,note_off,,,,,96,0,2,,,1,,,67,64
220776,note_off,,,,,96,0,1,,,0,,,84,64
220776,note_off,,,,,0,0,1,,,0,,,88,64
220776,note_off,,,,,0,0,2,,,1,,,79,64
220776,note_off,,,,,0,0,2,,,1,,,71,64
220800,note_on,,,,,0,0,1,,,0,,,88,58
220800,note_on,,,,,24,0,2,,,1,,,79,58
220800,note_on,,,,,0,0,2,,,1,,,71,58
220800,note_on,,,,,24,0,1,,,0,,,84,58
220800,note_on,,,,,0,0,2,,,1,,,83,58
220992,note_off,,,,,192,0,2,,,1,,,83,64
220992,note_off,,,,,192,0,1,,,0,,,88,64
220992,note_off,,,,,0,0,1,,,0,,,84,64
220992,note_off,,,,,0,0,2,,,1,,,79,64
220992,note_off,,,,,0,0,2,,,1,,,71,64
221040,note_on,,,,,0,0,1,,,0,,,86,58
221040,note_on,,,,,48,0,1,,,0,,,90,58
221040,note_on,,,,,0,0,2,,,1,,,81,58
221040,note_on,,,,,0,0,2,,,1,,,69,58
221040,note_on,,,,,48,0,2,,,1,,,78,58
221136,note_off,,,,,0,0,1,,,0,,,90,64
221136,note_off,,,,,96,0,1,,,0,,,86,64
221136,note_off,,,,,96,0,2,,,1,,,69,64
221136,note_off,,,,,0,0,2,,,1,,,81,64
221136,note_off,,,,,0,0,2,,,1,,,78,64
221160,note_on,,,,,24,0,1,,,0,,,91,58
221160,note_on,,,,,0,0,2,,,1,,,76,58
221160,note_on,,,,,0,0,1,,,0,,,88,58
221160,note_on,,,,,24,0,2,,,1,,,79,58
221160,note_on,,,,,0,0,2,,,1,,,67,58
221256,note_off,,,,,0,0,1,,,0,,,91,64
221256,note_off,,,,,96,0,1,,,0,,,88,64
221256,note_off,,,,,96,0,2,,,1,,,67,64
221256,note_off,,,,,0,0,2,,,1,,,76,64
221256,note_off,,,,,0,0,2,,,1,,,79,64
221280,note_on,,,,,24,0,2,,,1,,,71,58
221280,note_on,,,,,24,0,1,,,0,,,91,58
221280,note_on,,,,,0,0,1,,,0,,,88,58
221280,note_on,,,,,0,0,2,,,1,,,67,58
221280,note_on,,,,,0,0,2,,,1,,,79,58
221472,note_off,,,,,192,0,2,,,1,,,67,64
221472,note_off,,,,,0,0,2,,,1,,,79,64
221472,note_off,,,,,192,0,1,,,0,,,88,64
221472,note_off,,,,,0,0,1,,,0,,,91,64
221472,note_off,,,,,0,0,2,,,1,,,71,64
221520,note_on,,,,,0,0,1,,,0,,,93,58
221520,note_on,,,,,48,0,1,,,0,,,90,58
221520,note_on,,,,,0,0,2,,,1,,,69,58
221520,note_on,,,,,48,0,2,,,1,,,78,58
221520,note_on,,,,,0,0,2,,,1,,,66,58
221616,note_off,,,,,0,0,2,,,1,,,78,64
221616,note_off,,,,,96,0,2,,,1,,,66,64
221616,note_off,,,,,0,0,1,,,0,,,90,64
221616,note_off,,,,,96,0,1,,,0,,,93,64
221616,note_off,,,,,0,0,2,,,1,,,69,64
221640,note_on,,,,,24,0,1,,,0,,,91,58
221640,note_on,,,,,0,0,2,,,1,,,76,58
221640,note_on,,,,,0,0,2,,,1,,,64,58
221640,note_on,,,,,24,0,2,,,1,,,67,58
221640,note_on,,,,,0,0,1,,,0,,,95,58
221736,note_off,,,,,96,0,1,,,0,,,95,64
221736,note_off,,,,,0,0,2,,,1,,,64,64
221736,note_off,,,,,0,0,2,,,1,,,67,64
221736,note_off,,,,,0,0,1,,,0,,,91,64
221736,note_off,,,,,96,0,2,,,1,,,76,64
221760,note_on,,,,,24,0,2,,,1,,,72,58
221760,note_on,,,,,0,0,2,,,1,,,67,58
221760,note_on,,,,,0,0,2,,,1,,,76,58
221760,note_on,,,,,0,0,2,,,1,,,64,58
221760,time_signature,2,4,24,8,138240,1,0,,,,,,,
221760,note_on,,,,,0,0,1,,,0,,,84,58
221760,note_on,,,,,0,0,1,,,0,,,83,58
221760,note_on,,,,,0,0,1,,,0,,,95,58
221760,note_on,,,,,24,0,1,,,0,,,91,58
221952,note_off,,,,,192,0,2,,,1,,,64,64
221952,note_off,,,,,192,0,1,,,0,,,95,64
221952,note_off,,,,,0,0,1,,,0,,,83,64
221952,note_off,,,,,0,0,1,,,0,,,84,64
221952,note_off,,,,,0,0,1,,,0,,,91,64
221952,note_off,,,,,0,0,2,,,1,,,72,64
221952,note_off,,,,,0,0,2,,,1,,,67,64
221952,note_off,,,,,0,0,2,,,1,,,76,64
222000,note_on,,,,,48,0,1,,,0,,,84,58
222000,note_on,,,,,0,0,1,,,0,,,93,58
222000,note_on,,,,,48,0,2,,,1,,,76,58
222000,note_on,,,,,0,0,2,,,1,,,67,58
222000,note_on,,,,,0,0,2,,,1,,,72,58
222000,note_on,,,,,0,0,2,,,1,,,64,58
222000,note_on,,,,,0,0,1,,,0,,,81,58
222096,note_off,,,,,0,0,1,,,0,,,93,64
222096,note_off,,,,,96,0,2,,,1,,,64,64
222096,note_off,,,,,0,0,2,,,1,,,72,64
222096,note_off,,,,,0,0,2,,,1,,,67,64
222096,note_off,,,,,0,0,2,,,1,,,76,64
222096,note_off,,,,,0,0,1,,,0,,,84,64
222096,note_off,,,,,96,0,1,,,0,,,81,64
222120,note_on,,,,,0,0,1,,,0,,,91,58
222120,note_on,,,,,0,0,1,,,0,,,84,58
222120,note_on,,,,,24,0,1,,,0,,,79,58
222120,note_on,,,,,0,0,2,,,1,,,76,58
222120,note_on,,,,,0,0,2,,,1,,,67,58
222120,note_on,,,,,0,0,2,,,1,,,64,58
222120,note_on,,,,,24,0,2,,,1,,,72,58
222216,note_off,,,,,96,0,1,,,0,,,91,64
222216,note_off,,,,,96,0,2,,,1,,,64,64
222216,note_off,,,,,0,0,2,,,1,,,67,64
222216,note_off,,,,,0,0,2,,,1,,,76,64
222216,note_off,,,,,0,0,2,,,1,,,72,64
222216,note_off,,,,,0,0,1,,,0,,,84,64
222216,note_off,,,,,0,0,1,,,0,,,79,64
222240,note_on,,,,,24,0,2,,,1,,,57,58
222304,note_off,,,,,64,0,2,,,1,,,57,64
222308,note_on,,,,,4,0,2,,,1,,,59,58
222372,note_off,,,,,64,0,2,,,1,,,59,64
222376,note_on,,,,,4,0,2,,,1,,,57,58
222440,note_off,,,,,64,0,2,,,1,,,57,64
222444,note_on,,,,,4,0,2,,,1,,,59,58
222508,note_off,,,,,64,0,2,,,1,,,59,64
222512,note_on,,,,,4,0,2,,,1,,,57,58
222576,note_off,,,,,64,0,2,,,1,,,57,64
222580,note_on,,,,,4,0,2,,,1,,,59,58
222644,note_off,,,,,64,0,2,,,1,,,59,64
222648,note_on,,,,,4,0,2,,,1,,,57,58
222712,note_off,,,,,64,0,2,,,1,,,57,64
222720,time_signature,4,4,24,8,960,1,0,,,,,,,
222720,note_on,,,,,0,0,1,,,0,,,72,58
222720,note_on,,,,,504,0,1,,,0,,,79,58
222720,note_on,,,,,0,0,1,,,0,,,71,58
222720,note_on,,,,,0,0,1,,,0,,,76,58
222912,note_off,,,,,192,0,1,,,0,,,76,64
222912,note_off,,,,,0,0,1,,,0,,,72,64
222912,note_off,,,,,0,0,1,,,0,,,71,64
222912,note_off,,,,,0,0,1,,,0,,,79,64
222960,note_on,,,,,0,0,1,,,0,,,78,58
222960,note_on,,,,,0,0,1,,,0,,,69,58
222960,note_on,,,,,48,0,1,,,0,,,72,58
223056,note_off,,,,,0,0,1,,,0,,,72,64
223056,note_off,,,,,0,0,1,,,0,,,69,64
223056,note_off,,,,,96,0,1,,,0,,,78,64
223080,note_on,,,,,24,0,1,,,0,,,72,58
223080,note_on,,,,,0,0,1,,,0,,,69,58
223080,note_on,,,,,0,0,1,,,0,,,76,58
223080,note_on,,,,,0,0,1,,,0,,,67,58
223176,note_off,,,,,0,0,1,,,0,,,76,64
223176,note_off,,,,,0,0,1,,,0,,,69,64
223176,note_off,,,,,96,0,1,,,0,,,67,64
223176,note_off,,,,,0,0,1,,,0,,,72,64
223200,note_on,,,,,488,0,2,,,1,,,45,58
223264,note_off,,,,,64,0,2,,,1,,,45,64
223268,note_on,,,,,4,0,2,,,1,,,47,58
223332,note_off,,,,,64,0,2,,,1,,,47,64
223336,note_on,,,,,4,0,2,,,1,,,45,58
223400,note_off,,,,,64,0,2,,,1,,,45,64
223404,note_on,,,,,4,0,2,,,1,,,47,58
223468,note_off,,,,,64,0,2,,,1,,,47,64
223472,note_on,,,,,4,0,2,,,1,,,45,58
223536,note_off,,,,,64,0,2,,,1,,,45,64
223540,note_on,,,,,4,0,2,,,1,,,47,58
223604,note_off,,,,,64,0,2,,,1,,,47,64
223608,note_on,,,,,4,0,2,,,1,,,45,58
223672,note_off,,,,,64,0,2,,,1,,,45,64
223680,note_on,,,,,0,0,2,,,1,,,64,58
223680,note_on,,,,,0,0,2,,,1,,,76,58
223680,note_on,,,,,0,0,2,,,1,,,72,58
223680,note_on,,,,,8,0,2,,,1,,,67,58
223680,note_on,,,,,0,0,1,,,0,,,84,58
223680,time_signature,2,4,24,8,960,1,0,,,,,,,
223680,note_on,,,,,504,0,1,,,0,,,83,58
223680,note_on,,,,,0,0,1,,,0,,,95,58
223872,note_off,,,,,0,0,2,,,1,,,76,64
223872,note_off,,,,,0,0,1,,,0,,,83,64
223872,note_off,,,,,0,0,1,,,0,,,84,64
223872,note_off,,,,,192,0,1,,,0,,,95,64
223872,note_off,,,,,192,0,2,,,1,,,64,64
223872,note_off,,,,,0,0,2,,,1,,,67,64
223872,note_off,,,,,0,0,2,,,1,,,72,64
223920,note_on,,,,,0,0,2,,,1,,,64,58
223920,note_on,,,,,0,0,1,,,0,,,93,58
223920,note_on,,,,,0,0,2,,,1,,,76,58
223920,note_on,,,,,0,0,1,,,0,,,84,58
223920,note_on,,,,,48,0,1,,,0,,,81,58
223920,note_on,,,,,48,0,2,,,1,,,72,58
224016,note_off,,,,,0,0,1,,,0,,,81,64
224016,note_off,,,,,0,0,1,,,0,,,84,64
224016,note_off,,,,,96,0,1,,,0,,,93,64
224016,note_off,,,,,96,0,2,,,1,,,76,64
224016,note_off,,,,,0,0,2,,,1,,,64,64
224016,note_off,,,,,0,0,2,,,1,,,72,64
224040,note_on,,,,,0,0,2,,,1,,,72,58
224040,note_on,,,,,24,0,1,,,0,,,79,58
224040,note_on,,,,,24,0,2,,,1,,,76,58
224040,note_on,,,,,0,0,1,,,0,,,84,58
224040,note_on,,,,,0,0,1,,,0,,,91,58
224040,note_on,,,,,0,0,2,,,1,,,64,58
224136,note_off,,,,,0,0,1,,,0,,,84,64
224136,note_off,,,,,0,0,1,,,0,,,79,64
224136,note_off,,,,,0,0,2,,,1,,,76,64
224136,note_off,,,,,0,0,2,,,1,,,64,64
224136,note_off,,,,,96,0,2,,,1,,,72,64
224136,note_off,,,,,96,0,1,,,0,,,91,64
224160,note_on,,,,,24,0,2,,,1,,,57,58
224224,note_off,,,,,64,0,2,,,1,,,57,64
224228,note_on,,,,,4,0,2,,,1,,,59,58
224292,note_off,,,,,64,0,2,,,1,,,59,64
224296,note_on,,,,,4,0,2,,,1,,,57,58
224360,note_off,,,,,64,0,2,,,1,,,57,64
224364,note_on,,,,,4,0,2,,,1,,,59,58
224428,note_off,,,,,64,0,2,,,1,,,59,64
224432,note_on,,,,,4,0,2,,,1,,,57,58
224496,note_off,,,,,64,0,2,,,1,,,57,64
224500,note_on,,,,,4,0,2,,,1,,,59,58
224564,note_off,,,,,64,0,2,,,1,,,59,64
224568,note_on,,,,,4,0,2,,,1,,,57,58
224632,note_off,,,,,64,0,2,,,1,,,57,64
224640,note_on,,,,,0,0,1,,,0,,,72,58
224640,note_on,,,,,0,0,1,,,0,,,79,58
224640,note_on,,,,,504,0,1,,,0,,,76,58
224640,end_of_track,,,,,0,1,0,,,,,,,
224640,time_signature,4,4,24,8,960,1,0,,,,,,,
224640,note_on,,,,,0,0,1,,,0,,,71,58
224832,note_off,,,,,192,0,1,,,0,,,79,64
224832,note_off,,,,,0,0,1,,,0,,,71,64
224832,note_off,,,,,0,0,1,,,0,,,72,64
224832,note_off,,,,,0,0,1,,,0,,,76,64
224880,note_on,,,,,0,0,1,,,0,,,72,58
224880,note_on,,,,,48,0,1,,,0,,,78,58
224880,note_on,,,,,0,0,1,,,0,,,69,58
224976,note_off,,,,,0,0,1,,,0,,,69,64
224976,note_off,,,,,0,0,1,,,0,,,78,64
224976,note_off,,,,,96,0,1,,,0,,,72,64
225000,note_on,,,,,0,0,1,,,0,,,72,58
225000,note_on,,,,,0,0,1,,,0,,,67,58
225000,note_on,,,,,24,0,1,,,0,,,76,58
225000,note_on,,,,,0,0,1,,,0,,,69,58
225096,note_off,,,,,96,0,1,,,0,,,67,64
225096,note_off,,,,,0,0,1,,,0,,,72,64
225096,note_off,,,,,0,0,1,,,0,,,69,64
225096,note_off,,,,,0,0,1,,,0,,,76,64
225120,note_on,,,,,488,0,2,,,1,,,45,58
225184,note_off,,,,,64,0,2,,,1,,,45,64
225188,note_on,,,,,4,0,2,,,1,,,47,58
225252,note_off,,,,,64,0,2,,,1,,,47,64
225256,note_on,,,,,4,0,2,,,1,,,45,58
225320,note_off,,,,,64,0,2,,,1,,,45,64
225324,note_on,,,,,4,0,2,,,1,,,47,58
225388,note_off,,,,,64,0,2,,,1,,,47,64
225392,note_on,,,,,4,0,2,,,1,,,45,58
225456,note_off,,,,,64,0,2,,,1,,,45,64
225460,note_on,,,,,4,0,2,,,1,,,47,58
225524,note_off,,,,,64,0,2,,,1,,,47,64
225528,note_on,,,,,4,0,2,,,1,,,45,58
225600,note_on,,,,,72,0,2,,,1,,,38,58
225600,note_on,,,,,504,0,1,,,0,,,96,58
225600,note_on,,,,,0,0,1,,,0,,,91,58
225600,note_on,,,,,0,0,1,,,0,,,93,58
225600,note_on,,,,,0,0,1,,,0,,,100,58
225664,note_off,,,,,64,0,2,,,1,,,38,64
225680,note_on,,,,,16,0,2,,,1,,,40,58
225744,note_off,,,,,64,0,2,,,1,,,40,64
225760,note_on,,,,,16,0,2,,,1,,,38,58
225792,note_off,,,,,0,0,1,,,0,,,93,64
225792,note_off,,,,,0,0,1,,,0,,,96,64
225792,note_off,,,,,0,0,1,,,0,,,91,64
225792,note_off,,,,,192,0,1,,,0,,,100,64
225824,note_off,,,,,64,0,2,,,1,,,38,64
225840,note_on,,,,,16,0,2,,,1,,,40,58
225840,note_on,,,,,0,0,1,,,0,,,96,58
225840,note_on,,,,,0,0,1,,,0,,,93,58
225840,note_on,,,,,48,0,1,,,0,,,91,58
225904,note_off,,,,,64,0,2,,,1,,,40,64
225920,note_on,,,,,16,0,2,,,1,,,38,58
225936,note_off,,,,,96,0,1,,,0,,,96,64
225936,note_off,,,,,0,0,1,,,0,,,91,64
225936,note_off,,,,,0,0,1,,,0,,,93,64
225960,note_on,,,,,0,0,1,,,0,,,88,58
225960,note_on,,,,,24,0,1,,,0,,,91,58
225960,note_on,,,,,0,0,1,,,0,,,93,58
225984,note_off,,,,,64,0,2,,,1,,,38,64
226000,note_on,,,,,16,0,2,,,1,,,40,58
226056,note_off,,,,,0,0,1,,,0,,,93,64
226056,note_off,,,,,0,0,1,,,0,,,91,64
226056,note_off,,,,,96,0,1,,,0,,,88,64
226064,note_off,,,,,64,0,2,,,1,,,40,64
226080,note_on,,,,,0,0,1,,,0,,,88,58
226080,note_on,,,,,16,0,2,,,1,,,38,58
226080,note_on,,,,,24,0,1,,,0,,,91,58
226080,note_on,,,,,0,0,1,,,0,,,84,58
226144,note_off,,,,,64,0,2,,,1,,,38,64
226160,note_on,,,,,16,0,2,,,1,,,40,58
226224,note_off,,,,,64,0,2,,,1,,,40,64
226240,note_on,,,,,16,0,2,,,1,,,38,58
226272,note_off,,,,,192,0,1,,,0,,,88,64
226272,note_off,,,,,0,0,1,,,0,,,84,64
226272,note_off,,,,,0,0,1,,,0,,,91,64
226304,note_off,,,,,64,0,2,,,1,,,38,64
226320,note_on,,,,,48,0,1,,,0,,,88,58
226320,note_on,,,,,0,0,1,,,0,,,84,58
226320,note_on,,,,,0,0,1,,,0,,,81,58
226320,note_on,,,,,16,0,2,,,1,,,40,58
226384,note_off,,,,,64,0,2,,,1,,,40,64
226400,note_on,,,,,16,0,2,,,1,,,38,58
226416,note_off,,,,,0,0,1,,,0,,,88,64
226416,note_off,,,,,0,0,1,,,0,,,81,64
226416,note_off,,,,,96,0,1,,,0,,,84,64
226440,note_on,,,,,0,0,1,,,0,,,79,58
226440,note_on,,,,,0,0,1,,,0,,,81,58
226440,note_on,,,,,24,0,1,,,0,,,84,58
226464,note_off,,,,,64,0,2,,,1,,,38,64
226480,note_on,,,,,16,0,2,,,1,,,40,58
226536,note_off,,,,,0,0,1,,,0,,,79,64
226536,note_off,,,,,0,0,1,,,0,,,84,64
226536,note_off,,,,,96,0,1,,,0,,,81,64
226544,note_off,,,,,64,0,2,,,1,,,40,64
226560,note_on,,,,,16,0,2,,,1,,,38,58
226560,note_on,,,,,24,0,1,,,0,,,79,58
226560,note_on,,,,,0,0,1,,,0,,,76,58
226560,note_on,,,,,0,0,1,,,0,,,81,58
226624,note_off,,,,,64,0,2,,,1,,,38,64
226640,note_on,,,,,16,0,2,,,1,,,40,58
226704,note_off,,,,,64,0,2,,,1,,,40,64
226720,note_on,,,,,16,0,2,,,1,,,38,58
226752,note_off,,,,,192,0,1,,,0,,,81,64
226752,note_off,,,,,0,0,1,,,0,,,76,64
226752,note_off,,,,,0,0,1,,,0,,,79,64
226784,note_off,,,,,64,0,2,,,1,,,38,64
226800,note_on,,,,,48,0,1,,,0,,,72,58
226800,note_on,,,,,0,0,1,,,0,,,76,58
226800,note_on,,,,,0,0,1,,,0,,,79,58
226800,note_on,,,,,16,0,2,,,1,,,40,58
226864,note_off,,,,,64,0,2,,,1,,,40,64
226880,note_on,,,,,16,0,2,,,1,,,38,58
226896,note_off,,,,,0,0,1,,,0,,,72,64
226896,note_off,,,,,0,0,1,,,0,,,76,64
226896,note_off,,,,,96,0,1,,,0,,,79,64
226920,note_on,,,,,0,0,1,,,0,,,76,58
226920,note_on,,,,,0,0,1,,,0,,,72,58
226920,note_on,,,,,24,0,1,,,0,,,69,58
226944,note_off,,,,,64,0,2,,,1,,,38,64
226960,note_on,,,,,16,0,2,,,1,,,40,58
227016,note_off,,,,,96,0,1,,,0,,,72,64
227016,note_off,,,,,0,0,1,,,0,,,69,64
227016,note_off,,,,,0,0,1,,,0,,,76,64
227024,note_off,,,,,64,0,2,,,1,,,40,64
227040,note_on,,,,,24,0,1,,,0,,,69,58
227040,note_on,,,,,0,0,1,,,0,,,67,58
227040,note_on,,,,,0,0,1,,,0,,,72,58
227040,note_on,,,,,16,0,2,,,1,,,38,58
227104,note_off,,,,,64,0,2,,,1,,,38,64
227120,note_on,,,,,16,0,2,,,1,,,40,58
227184,note_off,,,,,64,0,2,,,1,,,40,64
227200,note_on,,,,,16,0,2,,,1,,,38,58
227232,note_off,,,,,192,0,1,,,0,,,72,64
227232,note_off,,,,,0,0,1,,,0,,,67,64
227232,note_off,,,,,0,0,1,,,0,,,69,64
227264,note_off,,,,,64,0,2,,,1,,,38,64
227280,note_on,,,,,0,0,1,,,0,,,69,58
227280,note_on,,,,,16,0,2,,,1,,,40,58
227280,note_on,,,,,48,0,1,,,0,,,67,58
227280,note_on,,,,,0,0,1,,,0,,,64,58
227344,note_off,,,,,64,0,2,,,1,,,40,64
227360,note_on,,,,,16,0,2,,,1,,,38,58
227376,note_off,,,,,0,0,1,,,0,,,64,64
227376,note_off,,,,,0,0,1,,,0,,,67,64
227376,note_off,,,,,96,0,1,,,0,,,69,64
227400,note_on,,,,,24,0,1,,,0,,,60,58
227400,note_on,,,,,0,0,1,,,0,,,64,58
227400,note_on,,,,,0,0,1,,,0,,,67,58
227424,note_off,,,,,64,0,2,,,1,,,38,64
227440,note_on,,,,,16,0,2,,,1,,,40,58
227496,note_off,,,,,96,0,1,,,0,,,67,64
227496,note_off,,,,,0,0,1,,,0,,,64,64
227496,note_off,,,,,0,0,1,,,0,,,60,64
227504,note_off,,,,,64,0,2,,,1,,,40,64
227520,note_on,,,,,0,0,1,,,0,,,57,58
227520,note_on,,,,,16,0,2,,,1,,,38,58
227520,note_on,,,,,0,0,1,,,0,,,55,58
227520,note_on,,,,,24,0,1,,,0,,,64,58
227520,note_on,,,,,0,0,1,,,0,,,60,58
227584,note_off,,,,,64,0,2,,,1,,,38,64
227600,note_on,,,,,16,0,2,,,1,,,40,58
227664,note_off,,,,,64,0,2,,,1,,,40,64
227680,note_on,,,,,16,0,2,,,1,,,38,58
227744,note_off,,,,,64,0,2,,,1,,,38,64
227760,note_on,,,,,16,0,2,,,1,,,40,58
227824,note_off,,,,,64,0,2,,,1,,,40,64
227840,note_on,,,,,16,0,2,,,1,,,38,58
227904,note_off,,,,,64,0,2,,,1,,,38,64
227920,note_on,,,,,16,0,2,,,1,,,40,58
227984,note_off,,,,,64,0,2,,,1,,,40,64
228000,note_on,,,,,16,0,2,,,1,,,36,58
228064,note_off,,,,,64,0,2,,,1,,,36,64
228080,note_on,,,,,16,0,2,,,1,,,38,58
228144,note_off,,,,,64,0,2,,,1,,,38,64
228160,note_on,,,,,16,0,2,,,1,,,36,58
228224,note_off,,,,,64,0,2,,,1,,,36,64
228240,note_on,,,,,16,0,2,,,1,,,38,58
228288,note_off,,,,,768,0,1,,,0,,,55,64
228288,note_off,,,,,48,0,2,,,1,,,45,64
228304,note_off,,,,,16,0,2,,,1,,,38,64
228320,note_on,,,,,16,0,2,,,1,,,36,58
228384,note_off,,,,,64,0,2,,,1,,,36,64
228400,note_on,,,,,16,0,2,,,1,,,38,58
228464,note_off,,,,,64,0,2,,,1,,,38,64
228480,note_on,,,,,0,0,2,,,1,,,36,58
228480,note_on,,,,,16,0,2,,,1,,,54,58
228544,note_off,,,,,64,0,2,,,1,,,36,64
228560,note_on,,,,,16,0,2,,,1,,,38,58
228624,note_off,,,,,64,0,2,,,1,,,38,64
228640,note_on,,,,,16,0,2,,,1,,,36,58
228704,note_off,,,,,64,0,2,,,1,,,36,64
228720,note_on,,,,,16,0,2,,,1,,,38,58
228784,note_off,,,,,64,0,2,,,1,,,38,64
228800,note_on,,,,,16,0,2,,,1,,,36,58
228864,note_off,,,,,64,0,2,,,1,,,36,64
228880,note_on,,,,,16,0,2,,,1,,,38,58
228930,note_off,,,,,642,0,1,,,0,,,64,64
228944,note_off,,,,,64,0,2,,,1,,,38,64
228960,note_on,,,,,30,0,1,,,0,,,62,58
228960,note_on,,,,,16,0,2,,,1,,,33,58
229024,note_off,,,,,64,0,2,,,1,,,33,64
229040,note_on,,,,,16,0,2,,,1,,,38,58
229104,note_off,,,,,64,0,2,,,1,,,38,64
229120,note_on,,,,,16,0,2,,,1,,,33,58
229184,note_off,,,,,64,0,2,,,1,,,33,64
229200,note_on,,,,,16,0,2,,,1,,,38,58
229248,note_off,,,,,48,0,2,,,1,,,54,64
229264,note_off,,,,,16,0,2,,,1,,,38,64
229280,note_on,,,,,16,0,2,,,1,,,33,58
229344,note_off,,,,,0,0,1,,,0,,,60,64
229344,note_off,,,,,64,0,2,,,1,,,33,64
229344,note_off,,,,,0,0,1,,,0,,,57,64
229344,note_off,,,,,384,0,1,,,0,,,62,64
229360,note_on,,,,,16,0,2,,,1,,,38,58
229424,note_off,,,,,64,0,2,,,1,,,38,64
229440,note_on,,,,,96,0,1,,,0,,,71,71
229440,note_on,,,,,16,0,2,,,1,,,31,71
229536,note_off,,,,,96,0,2,,,1,,,31,64
229560,note_on,,,,,24,0,2,,,1,,,59,71
229656,note_off,,,,,96,0,2,,,1,,,59,64
229680,note_on,,,,,24,0,2,,,1,,,64,71
229776,note_off,,,,,96,0,2,,,1,,,64,64
229800,note_on,,,,,24,0,2,,,1,,,62,71
229824,note_off,,,,,384,0,1,,,0,,,71,64
229896,note_off,,,,,96,0,2,,,1,,,62,64
229920,note_on,,,,,24,0,2,,,1,,,69,71
229920,note_on,,,,,96,0,1,,,0,,,72,71
230016,note_off,,,,,96,0,2,,,1,,,69,64
230040,note_on,,,,,24,0,2,,,1,,,67,71
230136,note_off,,,,,96,0,2,,,1,,,67,64
230160,note_on,,,,,24,0,2,,,1,,,62,71
230208,note_off,,,,,288,0,1,,,0,,,72,64
230256,note_off,,,,,96,0,2,,,1,,,62,64
230280,note_on,,,,,72,0,1,,,0,,,74,71
230280,note_on,,,,,24,0,2,,,1,,,59,71
230376,note_off,,,,,96,0,1,,,0,,,74,64
230376,note_off,,,,,96,0,2,,,1,,,59,64
230400,note_on,,,,,24,0,1,,,0,,,74,71
230400,note_on,,,,,0,0,1,,,0,,,79,71
230520,note_on,,,,,144,0,2,,,1,,,52,71
230616,note_off,,,,,96,0,2,,,1,,,52,64
230640,note_on,,,,,24,0,2,,,1,,,59,71
230736,note_off,,,,,96,0,2,,,1,,,59,64
230760,note_on,,,,,24,0,2,,,1,,,57,71
230784,note_off,,,,,384,0,1,,,0,,,79,64
230784,note_off,,,,,0,0,1,,,0,,,74,64
230856,note_off,,,,,96,0,2,,,1,,,57,64
230880,note_on,,,,,96,0,1,,,0,,,73,71
230880,note_on,,,,,0,0,1,,,0,,,81,71
230880,note_on,,,,,24,0,2,,,1,,,66,71
230976,note_off,,,,,96,0,2,,,1,,,66,64
231000,note_on,,,,,24,0,2,,,1,,,64,71
231072,note_off,,,,,192,0,1,,,0,,,73,64
231096,note_off,,,,,96,0,2,,,1,,,64,64
231120,note_on,,,,,24,0,2,,,1,,,61,71
231168,note_off,,,,,96,0,1,,,0,,,81,64
231216,note_off,,,,,96,0,2,,,1,,,61,64
231240,note_on,,,,,24,0,2,,,1,,,55,71
231240,note_on,,,,,72,0,1,,,0,,,76,71
231240,note_on,,,,,0,0,1,,,0,,,83,71
231336,note_off,,,,,96,0,2,,,1,,,55,64
231336,note_off,,,,,96,0,1,,,0,,,83,64
231336,note_off,,,,,0,0,1,,,0,,,76,64
231360,note_on,,,,,24,0,1,,,0,,,79,71
231360,note_on,,,,,0,0,1,,,0,,,83,71
231480,note_on,,,,,144,0,2,,,1,,,50,71
231576,note_off,,,,,96,0,2,,,1,,,50,64
231600,note_on,,,,,24,0,2,,,1,,,64,71
231696,note_off,,,,,96,0,2,,,1,,,64,64
231720,note_on,,,,,24,0,2,,,1,,,62,71
231744,note_off,,,,,0,0,1,,,0,,,79,64
231744,note_off,,,,,384,0,1,,,0,,,83,64
231816,note_off,,,,,96,0,2,,,1,,,62,64
231840,note_on,,,,,0,0,1,,,0,,,81,71
231840,note_on,,,,,96,0,1,,,0,,,78,71
231840,note_on,,,,,24,0,2,,,1,,,73,71
231936,note_off,,,,,96,0,2,,,1,,,73,64
231960,note_on,,,,,24,0,2,,,1,,,69,71
232032,note_off,,,,,192,0,1,,,0,,,81,64
232032,note_off,,,,,0,0,1,,,0,,,78,64
232056,note_off,,,,,96,0,2,,,1,,,69,64
232080,note_on,,,,,24,0,2,,,1,,,66,71
232176,note_off,,,,,96,0,2,,,1,,,66,64
232200,note_on,,,,,24,0,2,,,1,,,62,71
232200,note_on,,,,,0,0,1,,,0,,,72,71
232200,note_on,,,,,168,0,1,,,0,,,84,71
232296,note_off,,,,,96,0,1,,,0,,,72,64
232296,note_off,,,,,0,0,1,,,0,,,84,64
232296,note_off,,,,,96,0,2,,,1,,,62,64
232320,note_on,,,,,24,0,1,,,0,,,88,71
232320,note_on,,,,,0,0,1,,,0,,,70,71
232440,note_on,,,,,144,0,2,,,1,,,55,71
232536,note_off,,,,,96,0,2,,,1,,,55,64
232560,note_on,,,,,24,0,2,,,1,,,64,71
232656,note_off,,,,,96,0,2,,,1,,,64,64
232680,note_on,,,,,24,0,2,,,1,,,62,71
232704,note_off,,,,,384,0,1,,,0,,,70,64
232704,note_off,,,,,0,0,1,,,0,,,88,64
232776,note_off,,,,,96,0,2,,,1,,,62,64
232800,note_on,,,,,24,0,2,,,1,,,69,71
232800,note_on,,,,,96,0,1,,,0,,,86,71
232800,note_on,,,,,0,0,1,,,0,,,71,71
232896,note_off,,,,,96,0,2,,,1,,,69,64
232920,note_on,,,,,24,0,2,,,1,,,67,71
232992,note_off,,,,,192,0,1,,,0,,,71,64
232992,note_off,,,,,0,0,1,,,0,,,86,64
233016,note_off,,,,,96,0,2,,,1,,,67,64
233040,note_on,,,,,24,0,2,,,1,,,62,71
233136,note_off,,,,,96,0,2,,,1,,,62,64
233160,note_on,,,,,24,0,2,,,1,,,59,71
233256,note_off,,,,,96,0,2,,,1,,,59,64
233280,note_on,,,,,288,0,1,,,0,,,67,91
233400,note_on,,,,,144,0,2,,,1,,,40,91
233496,note_off,,,,,96,0,2,,,1,,,40,64
233520,note_on,,,,,24,0,2,,,1,,,54,91
233616,note_off,,,,,96,0,2,,,1,,,54,64
233640,note_on,,,,,24,0,2,,,1,,,52,91
233664,note_off,,,,,384,0,1,,,0,,,67,64
233736,note_off,,,,,96,0,2,,,1,,,52,64
233760,note_on,,,,,24,0,2,,,1,,,60,91
233760,note_on,,,,,96,0,1,,,0,,,69,91
233856,note_off,,,,,96,0,2,,,1,,,60,64
233880,note_on,,,,,24,0,2,,,1,,,59,91
233976,note_off,,,,,96,0,2,,,1,,,59,64
234000,note_on,,,,,24,0,2,,,1,,,55,91
234048,note_off,,,,,288,0,1,,,0,,,69,64
234096,note_off,,,,,96,0,2,,,1,,,55,64
234120,note_on,,,,,24,0,2,,,1,,,52,91
234120,note_on,,,,,72,0,1,,,0,,,71,91
234216,note_off,,,,,96,0,1,,,0,,,71,64
234216,note_off,,,,,96,0,2,,,1,,,52,64
234240,note_on,,,,,0,0,1,,,0,,,76,91
234240,note_on,,,,,24,0,1,,,0,,,71,91
234360,note_on,,,,,144,0,2,,,1,,,49,91
234456,note_off,,,,,96,0,2,,,1,,,49,64
234480,note_on,,,,,24,0,2,,,1,,,55,91
234576,note_off,,,,,96,0,2,,,1,,,55,64
234600,note_on,,,,,24,0,2,,,1,,,54,91
234624,note_off,,,,,384,0,1,,,0,,,76,64
234624,note_off,,,,,0,0,1,,,0,,,71,64
234696,note_off,,,,,96,0,2,,,1,,,54,64
234720,note_on,,,,,96,0,1,,,0,,,70,91
234720,note_on,,,,,0,0,1,,,0,,,78,91
234720,note_on,,,,,24,0,2,,,1,,,64,91
234816,note_off,,,,,96,0,2,,,1,,,64,64
234840,note_on,,,,,24,0,2,,,1,,,61,91
234912,note_off,,,,,192,0,1,,,0,,,70,64
234936,note_off,,,,,96,0,2,,,1,,,61,64
234960,note_on,,,,,24,0,2,,,1,,,58,91
235008,note_off,,,,,96,0,1,,,0,,,78,64
235056,note_off,,,,,96,0,2,,,1,,,58,64
235080,note_on,,,,,24,0,2,,,1,,,54,91
235080,note_on,,,,,0,0,1,,,0,,,79,91
235080,note_on,,,,,72,0,1,,,0,,,76,91
235176,note_off,,,,,96,0,2,,,1,,,54,64
235176,note_off,,,,,0,0,1,,,0,,,76,64
235176,note_off,,,,,96,0,1,,,0,,,79,64
235200,note_on,,,,,0,0,1,,,0,,,83,91
235200,note_on,,,,,24,0,1,,,0,,,79,91
235320,note_on,,,,,144,0,2,,,1,,,42,91
235416,note_off,,,,,96,0,2,,,1,,,42,64
235440,note_on,,,,,24,0,2,,,1,,,62,91
235536,note_off,,,,,96,0,2,,,1,,,62,64
235560,note_on,,,,,24,0,2,,,1,,,61,91
235584,note_off,,,,,0,0,1,,,0,,,79,64
235584,note_off,,,,,384,0,1,,,0,,,83,64
235656,note_off,,,,,96,0,2,,,1,,,61,64
235680,note_on,,,,,96,0,1,,,0,,,82,91
235680,note_on,,,,,0,0,1,,,0,,,78,91
235680,note_on,,,,,24,0,2,,,1,,,66,91
235776,note_off,,,,,96,0,2,,,1,,,66,64
235800,note_on,,,,,24,0,2,,,1,,,64,91
235872,note_off,,,,,192,0,1,,,0,,,78,64
235872,note_off,,,,,0,0,1,,,0,,,82,64
235896,note_off,,,,,96,0,2,,,1,,,64,64
235920,note_on,,,,,24,0,2,,,1,,,61,91
236016,note_off,,,,,96,0,2,,,1,,,61,64
236040,note_on,,,,,24,0,2,,,1,,,54,91
236040,note_on,,,,,168,0,1,,,0,,,88,91
236040,note_on,,,,,0,0,1,,,0,,,73,91
236136,note_off,,,,,96,0,2,,,1,,,54,64
236136,note_off,,,,,96,0,1,,,0,,,73,64
236136,note_off,,,,,0,0,1,,,0,,,88,64
236160,note_on,,,,,24,0,1,,,0,,,85,91
236160,note_on,,,,,0,0,1,,,0,,,76,91
236280,note_on,,,,,144,0,2,,,1,,,47,91
236376,note_off,,,,,96,0,2,,,1,,,47,64
236400,note_on,,,,,24,0,2,,,1,,,61,91
236496,note_off,,,,,96,0,2,,,1,,,61,64
236520,note_on,,,,,24,0,2,,,1,,,59,91
236544,note_off,,,,,384,0,1,,,0,,,76,64
236544,note_off,,,,,0,0,1,,,0,,,85,64
236616,note_off,,,,,96,0,2,,,1,,,59,64
236640,note_on,,,,,24,0,2,,,1,,,55,91
236640,note_on,,,,,0,0,1,,,0,,,74,91
236640,note_on,,,,,96,0,1,,,0,,,86,91
236736,note_off,,,,,96,0,2,,,1,,,55,64
236760,note_on,,,,,24,0,2,,,1,,,54,91
236832,note_off,,,,,0,0,1,,,0,,,86,64
236832,note_off,,,,,192,0,1,,,0,,,74,64
236856,note_off,,,,,96,0,2,,,1,,,54,64
236880,note_on,,,,,24,0,2,,,1,,,50,91
236976,note_off,,,,,96,0,2,,,1,,,50,64
237000,note_on,,,,,24,0,2,,,1,,,47,91
237096,note_off,,,,,96,0,2,,,1,,,47,64
237120,note_on,,,,,24,0,2,,,1,,,54,58
237120,note_on,,,,,0,0,2,,,1,,,62,58
237120,note_on,,,,,0,0,2,,,1,,,45,58
237216,note_off,,,,,96,0,2,,,1,,,45,64
237360,note_on,,,,,528,0,1,,,0,,,69,58
237424,note_off,,,,,64,0,1,,,0,,,69,64
237440,note_on,,,,,16,0,1,,,0,,,81,58
237504,note_off,,,,,64,0,1,,,0,,,81,64
237504,note_off,,,,,0,0,2,,,1,,,54,64
237504,note_off,,,,,288,0,2,,,1,,,62,64
237520,note_on,,,,,16,0,1,,,0,,,81,58
237584,note_off,,,,,64,0,1,,,0,,,81,64
237600,note_on,,,,,0,0,2,,,1,,,64,58
237600,note_on,,,,,16,0,1,,,0,,,93,58
237600,note_on,,,,,96,0,2,,,1,,,57,58
237664,note_off,,,,,64,0,1,,,0,,,93,64
237680,note_on,,,,,16,0,1,,,0,,,92,58
237744,note_off,,,,,64,0,1,,,0,,,92,64
237760,note_on,,,,,16,0,1,,,0,,,95,58
237824,note_off,,,,,64,0,1,,,0,,,95,64
237840,note_on,,,,,16,0,1,,,0,,,93,58
237888,note_off,,,,,288,0,2,,,1,,,64,64
237888,note_off,,,,,0,0,2,,,1,,,57,64
237904,note_off,,,,,64,0,1,,,0,,,93,64
237920,note_on,,,,,16,0,1,,,0,,,90,58
237960,note_on,,,,,0,0,2,,,1,,,66,58
237960,note_on,,,,,72,0,2,,,1,,,62,58
237984,note_off,,,,,64,0,1,,,0,,,90,64
238000,note_on,,,,,16,0,1,,,0,,,81,58
238056,note_off,,,,,0,0,2,,,1,,,62,64
238056,note_off,,,,,96,0,2,,,1,,,66,64
238064,note_off,,,,,64,0,1,,,0,,,81,64
238080,note_on,,,,,24,0,2,,,1,,,62,58
238080,note_on,,,,,0,0,2,,,1,,,66,58
238320,note_on,,,,,256,0,1,,,0,,,69,58
238384,note_off,,,,,64,0,1,,,0,,,69,64
238400,note_on,,,,,16,0,1,,,0,,,81,58
238464,note_off,,,,,0,0,2,,,1,,,62,64
238464,note_off,,,,,384,0,2,,,1,,,66,64
238464,note_off,,,,,64,0,1,,,0,,,81,64
238480,note_on,,,,,16,0,1,,,0,,,81,58
238544,note_off,,,,,64,0,1,,,0,,,81,64
238560,note_on,,,,,96,0,2,,,1,,,57,58
238560,note_on,,,,,16,0,1,,,0,,,93,58
238560,note_on,,,,,0,0,2,,,1,,,64,58
238624,note_off,,,,,64,0,1,,,0,,,93,64
238640,note_on,,,,,16,0,1,,,0,,,92,58
238704,note_off,,,,,64,0,1,,,0,,,92,64
238720,note_on,,,,,16,0,1,,,0,,,95,58
238752,note_off,,,,,0,0,2,,,1,,,57,64
238752,note_off,,,,,192,0,2,,,1,,,64,64
238784,note_off,,,,,64,0,1,,,0,,,95,64
238800,note_on,,,,,16,0,1,,,0,,,93,58
238864,note_off,,,,,64,0,1,,,0,,,93,64
238880,note_on,,,,,16,0,1,,,0,,,88,58
238920,note_on,,,,,168,0,2,,,1,,,64,58
238920,note_on,,,,,0,0,2,,,1,,,57,58
238944,note_off,,,,,64,0,1,,,0,,,88,64
238960,note_on,,,,,16,0,1,,,0,,,81,58
239016,note_off,,,,,96,0,2,,,1,,,57,64
239016,note_off,,,,,0,0,2,,,1,,,64,64
239024,note_off,,,,,64,0,1,,,0,,,81,64
239040,note_on,,,,,16,0,1,,,0,,,66,58
239040,note_on,,,,,0,0,1,,,0,,,69,58
239280,note_on,,,,,264,0,2,,,1,,,33,58
239344,note_off,,,,,64,0,2,,,1,,,33,64
239360,note_on,,,,,16,0,2,,,1,,,45,58
239424,note_off,,,,,64,0,2,,,1,,,45,64
239424,note_off,,,,,0,0,1,,,0,,,66,64
239424,note_off,,,,,384,0,1,,,0,,,69,64
239440,note_on,,,,,16,0,2,,,1,,,45,58
239504,note_off,,,,,64,0,2,,,1,,,45,64
239520,note_on,,,,,96,0,1,,,0,,,66,58
239520,note_on,,,,,0,0,1,,,0,,,62,58
239520,note_on,,,,,16,0,2,,,1,,,57,58
239584,note_off,,,,,64,0,2,,,1,,,57,64
239600,note_on,,,,,16,0,2,,,1,,,56,58
239664,note_off,,,,,64,0,2,,,1,,,56,64
239680,note_on,,,,,16,0,2,,,1,,,59,58
239744,note_off,,,,,64,0,2,,,1,,,59,64
239760,note_on,,,,,16,0,2,,,1,,,57,58
239808,note_off,,,,,288,0,1,,,0,,,62,64
239808,note_off,,,,,0,0,1,,,0,,,66,64
239824,note_off,,,,,64,0,2,,,1,,,57,64
239840,note_on,,,,,16,0,2,,,1,,,54,58
239880,note_on,,,,,72,0,1,,,0,,,64,58
239880,note_on,,,,,0,0,1,,,0,,,57,58
239904,note_off,,,,,64,0,2,,,1,,,54,64
239920,note_on,,,,,16,0,2,,,1,,,45,58
239976,note_off,,,,,0,0,1,,,0,,,64,64
239976,note_off,,,,,96,0,1,,,0,,,57,64
239984,note_off,,,,,64,0,2,,,1,,,45,64
240000,note_on,,,,,0,0,1,,,0,,,69,58
240000,note_on,,,,,24,0,1,,,0,,,66,58
240240,note_on,,,,,256,0,2,,,1,,,33,58
240304,note_off,,,,,64,0,2,,,1,,,33,64
240320,note_on,,,,,16,0,2,,,1,,,45,58
240384,note_off,,,,,0,0,1,,,0,,,66,64
240384,note_off,,,,,64,0,2,,,1,,,45,64
240384,note_off,,,,,384,0,1,,,0,,,69,64
240400,note_on,,,,,16,0,2,,,1,,,45,58
240464,note_off,,,,,64,0,2,,,1,,,45,64
240480,note_on,,,,,96,0,1,,,0,,,62,58
240480,note_on,,,,,16,0,2,,,1,,,57,58
240480,note_on,,,,,0,0,1,,,0,,,66,58
240544,note_off,,,,,64,0,2,,,1,,,57,64
240560,note_on,,,,,16,0,2,,,1,,,56,58
240624,note_off,,,,,64,0,2,,,1,,,56,64
240640,note_on,,,,,16,0,2,,,1,,,59,58
240704,note_off,,,,,64,0,2,,,1,,,59,64
240720,note_on,,,,,16,0,2,,,1,,,57,58
240768,note_off,,,,,0,0,1,,,0,,,62,64
240768,note_off,,,,,288,0,1,,,0,,,66,64
240784,note_off,,,,,64,0,2,,,1,,,57,64
240800,note_on,,,,,16,0,2,,,1,,,54,58
240840,note_on,,,,,0,0,1,,,0,,,64,58
240840,note_on,,,,,72,0,1,,,0,,,57,58
240864,note_off,,,,,64,0,2,,,1,,,54,64
240880,note_on,,,,,16,0,2,,,1,,,47,58
240936,note_off,,,,,96,0,1,,,0,,,64,64
240936,note_off,,,,,0,0,1,,,0,,,57,64
240944,note_off,,,,,64,0,2,,,1,,,47,64
240960,note_on,,,,,0,0,2,,,1,,,45,58
240960,note_on,,,,,0,0,2,,,1,,,62,58
240960,note_on,,,,,16,0,2,,,1,,,54,58
241056,note_off,,,,,96,0,2,,,1,,,45,64
241200,note_on,,,,,264,0,1,,,0,,,69,58
241264,note_off,,,,,64,0,1,,,0,,,69,64
241280,note_on,,,,,16,0,1,,,0,,,81,58
241344,note_off,,,,,64,0,1,,,0,,,81,64
241344,note_off,,,,,288,0,2,,,1,,,62,64
241344,note_off,,,,,0,0,2,,,1,,,54,64
241360,note_on,,,,,16,0,1,,,0,,,81,58
241424,note_off,,,,,64,0,1,,,0,,,81,64
241440,note_on,,,,,16,0,1,,,0,,,93,58
241440,note_on,,,,,96,0,2,,,1,,,57,58
241440,note_on,,,,,0,0,2,,,1,,,64,58
241504,note_off,,,,,64,0,1,,,0,,,93,64
241520,note_on,,,,,16,0,1,,,0,,,92,58
241584,note_off,,,,,64,0,1,,,0,,,92,64
241600,note_on,,,,,16,0,1,,,0,,,95,58
241664,note_off,,,,,64,0,1,,,0,,,95,64
241680,note_on,,,,,16,0,1,,,0,,,93,58
241728,note_off,,,,,0,0,2,,,1,,,57,64
241728,note_off,,,,,288,0,2,,,1,,,64,64
241744,note_off,,,,,64,0,1,,,0,,,93,64
241760,note_on,,,,,16,0,1,,,0,,,90,58
241800,note_on,,,,,72,0,2,,,1,,,62,58
241800,note_on,,,,,0,0,2,,,1,,,66,58
241824,note_off,,,,,64,0,1,,,0,,,90,64
241840,note_on,,,,,16,0,1,,,0,,,81,58
241896,note_off,,,,,0,0,2,,,1,,,62,64
241896,note_off,,,,,96,0,2,,,1,,,66,64
241904,note_off,,,,,64,0,1,,,0,,,81,64
241920,note_on,,,,,24,0,2,,,1,,,62,58
241920,note_on,,,,,0,0,2,,,1,,,66,58
242160,note_on,,,,,256,0,1,,,0,,,69,58
242224,note_off,,,,,64,0,1,,,0,,,69,64
242240,note_on,,,,,16,0,1,,,0,,,81,58
242304,note_off,,,,,64,0,1,,,0,,,81,64
242304,note_off,,,,,384,0,2,,,1,,,66,64
242304,note_off,,,,,0,0,2,,,1,,,62,64
242320,note_on,,,,,16,0,1,,,0,,,81,58
242384,note_off,,,,,64,0,1,,,0,,,81,64
242400,note_on,,,,,16,0,1,,,0,,,93,58
242400,note_on,,,,,96,0,2,,,1,,,64,58
242400,note_on,,,,,0,0,2,,,1,,,57,58
242464,note_off,,,,,64,0,1,,,0,,,93,64
242480,note_on,,,,,16,0,1,,,0,,,92,58
242544,note_off,,,,,64,0,1,,,0,,,92,64
242560,note_on,,,,,16,0,1,,,0,,,95,58
242592,note_off,,,,,192,0,2,,,1,,,57,64
242592,note_off,,,,,0,0,2,,,1,,,64,64
242624,note_off,,,,,64,0,1,,,0,,,95,64
242640,note_on,,,,,16,0,1,,,0,,,93,58
242704,note_off,,,,,64,0,1,,,0,,,93,64
242720,note_on,,,,,16,0,1,,,0,,,88,58
242760,note_on,,,,,0,0,2,,,1,,,57,58
242760,note_on,,,,,168,0,2,,,1,,,64,58
242784,note_off,,,,,64,0,1,,,0,,,88,64
242800,note_on,,,,,16,0,1,,,0,,,81,58
242856,note_off,,,,,96,0,2,,,1,,,57,64
242856,note_off,,,,,0,0,2,,,1,,,64,64
242864,note_off,,,,,64,0,1,,,0,,,81,64
242880,note_on,,,,,24,0,2,,,1,,,67,58
242880,note_on,,,,,0,0,2,,,1,,,71,58
243120,note_on,,,,,256,0,1,,,0,,,73,58
243184,note_off,,,,,64,0,1,,,0,,,73,64
243200,note_on,,,,,16,0,1,,,0,,,85,58
243264,note_off,,,,,64,0,1,,,0,,,85,64
243264,note_off,,,,,384,0,2,,,1,,,71,64
243264,note_off,,,,,0,0,2,,,1,,,67,64
243280,note_on,,,,,16,0,1,,,0,,,85,58
243344,note_off,,,,,64,0,1,,,0,,,85,64
243360,note_on,,,,,0,0,2,,,1,,,64,58
243360,note_on,,,,,16,0,1,,,0,,,95,58
243360,note_on,,,,,96,0,2,,,1,,,67,58
243424,note_off,,,,,64,0,1,,,0,,,95,64
243440,note_on,,,,,16,0,1,,,0,,,94,58
243504,note_off,,,,,64,0,1,,,0,,,94,64
243520,note_on,,,,,16,0,1,,,0,,,97,58
243584,note_off,,,,,64,0,1,,,0,,,97,64
243600,note_on,,,,,16,0,1,,,0,,,95,58
243648,note_off,,,,,288,0,2,,,1,,,64,64
243648,note_off,,,,,0,0,2,,,1,,,67,64
243664,note_off,,,,,64,0,1,,,0,,,95,64
243680,note_on,,,,,16,0,1,,,0,,,91,58
243720,note_on,,,,,72,0,2,,,1,,,64,58
243720,note_on,,,,,0,0,2,,,1,,,61,58
243744,note_off,,,,,64,0,1,,,0,,,91,64
243760,note_on,,,,,16,0,1,,,0,,,88,58
243816,note_off,,,,,0,0,2,,,1,,,64,64
243816,note_off,,,,,96,0,2,,,1,,,61,64
243824,note_off,,,,,64,0,1,,,0,,,88,64
243840,note_on,,,,,0,0,2,,,1,,,71,58
243840,note_on,,,,,24,0,2,,,1,,,67,58
244080,note_on,,,,,256,0,1,,,0,,,73,58
244144,note_off,,,,,64,0,1,,,0,,,73,64
244160,note_on,,,,,16,0,1,,,0,,,85,58
244224,note_off,,,,,384,0,2,,,1,,,71,64
244224,note_off,,,,,0,0,2,,,1,,,67,64
244224,note_off,,,,,64,0,1,,,0,,,85,64
244240,note_on,,,,,16,0,1,,,0,,,85,58
244304,note_off,,,,,64,0,1,,,0,,,85,64
244320,note_on,,,,,16,0,1,,,0,,,95,58
244320,note_on,,,,,0,0,2,,,1,,,64,58
244320,note_on,,,,,96,0,2,,,1,,,67,58
244384,note_off,,,,,64,0,1,,,0,,,95,64
244400,note_on,,,,,16,0,1,,,0,,,94,58
244464,note_off,,,,,64,0,1,,,0,,,94,64
244480,note_on,,,,,16,0,1,,,0,,,97,58
244544,note_off,,,,,64,0,1,,,0,,,97,64
244560,note_on,,,,,16,0,1,,,0,,,95,58
244608,note_off,,,,,0,0,2,,,1,,,67,64
244608,note_off,,,,,288,0,2,,,1,,,64,64
244624,note_off,,,,,64,0,1,,,0,,,95,64
244640,note_on,,,,,16,0,1,,,0,,,91,58
244680,note_on,,,,,72,0,2,,,1,,,64,58
244680,note_on,,,,,0,0,2,,,1,,,61,58
244704,note_off,,,,,64,0,1,,,0,,,91,64
244720,note_on,,,,,16,0,1,,,0,,,88,58
244776,note_off,,,,,96,0,2,,,1,,,61,64
244776,note_off,,,,,0,0,2,,,1,,,64,64
244784,note_off,,,,,64,0,1,,,0,,,88,64
244800,note_on,,,,,24,0,2,,,1,,,67,58
244800,note_on,,,,,0,0,2,,,1,,,70,58
245040,note_on,,,,,256,0,1,,,0,,,73,58
245104,note_off,,,,,64,0,1,,,0,,,73,64
245120,note_on,,,,,16,0,1,,,0,,,85,58
245184,note_off,,,,,0,0,2,,,1,,,67,64
245184,note_off,,,,,64,0,1,,,0,,,85,64
245184,note_off,,,,,384,0,2,,,1,,,70,64
245200,note_on,,,,,16,0,1,,,0,,,85,58
245264,note_off,,,,,64,0,1,,,0,,,85,64
245280,note_on,,,,,96,0,2,,,1,,,64,58
245280,note_on,,,,,0,0,2,,,1,,,67,58
245280,note_on,,,,,16,0,1,,,0,,,94,58
245344,note_off,,,,,64,0,1,,,0,,,94,64
245360,note_on,,,,,16,0,1,,,0,,,93,58
245424,note_off,,,,,64,0,1,,,0,,,93,64
245440,note_on,,,,,16,0,1,,,0,,,96,58
245504,note_off,,,,,64,0,1,,,0,,,96,64
245520,note_on,,,,,16,0,1,,,0,,,94,58
245568,note_off,,,,,288,0,2,,,1,,,67,64
245568,note_off,,,,,0,0,2,,,1,,,64,64
245584,note_off,,,,,64,0,1,,,0,,,94,64
245600,note_on,,,,,16,0,1,,,0,,,91,58
245640,note_on,,,,,0,0,2,,,1,,,61,58
245640,note_on,,,,,72,0,2,,,1,,,64,58
245664,note_off,,,,,64,0,1,,,0,,,91,64
245680,note_on,,,,,16,0,1,,,0,,,88,58
245736,note_off,,,,,96,0,2,,,1,,,61,64
245736,note_off,,,,,0,0,2,,,1,,,64,64
245744,note_off,,,,,64,0,1,,,0,,,88,64
245760,note_on,,,,,0,0,2,,,1,,,70,58
245760,note_on,,,,,24,0,2,,,1,,,67,58
245840,note_on,,,,,96,0,1,,,0,,,85,58
245904,note_off,,,,,64,0,1,,,0,,,85,64
245920,note_on,,,,,16,0,1,,,0,,,96,58
245952,note_off,,,,,192,0,2,,,1,,,70,64
245952,note_off,,,,,0,0,2,,,1,,,67,64
245984,note_off,,,,,64,0,1,,,0,,,96,64
246000,note_on,,,,,48,0,2,,,1,,,64,58
246000,note_on,,,,,0,0,2,,,1,,,67,58
246000,note_on,,,,,16,0,1,,,0,,,95,58
246064,note_off,,,,,64,0,1,,,0,,,95,64
246080,note_on,,,,,16,0,1,,,0,,,91,58
246128,note_off,,,,,0,0,2,,,1,,,64,64
246128,note_off,,,,,128,0,2,,,1,,,67,64
246144,note_off,,,,,64,0,1,,,0,,,91,64
246160,note_on,,,,,16,0,1,,,0,,,88,58
246160,note_on,,,,,32,0,2,,,1,,,64,58
246160,note_on,,,,,0,0,2,,,1,,,61,58
246224,note_off,,,,,64,0,2,,,1,,,61,64
246224,note_off,,,,,64,0,1,,,0,,,88,64
246224,note_off,,,,,0,0,2,,,1,,,64,64
246240,note_on,,,,,0,0,2,,,1,,,67,58
246240,note_on,,,,,16,0,2,,,1,,,70,58
246320,note_on,,,,,96,0,1,,,0,,,85,58
246384,note_off,,,,,64,0,1,,,0,,,85,64
246400,note_on,,,,,16,0,1,,,0,,,96,58
246432,note_off,,,,,192,0,2,,,1,,,67,64
246432,note_off,,,,,0,0,2,,,1,,,70,64
246464,note_off,,,,,64,0,1,,,0,,,96,64
246480,note_on,,,,,48,0,2,,,1,,,67,58
246480,note_on,,,,,0,0,2,,,1,,,64,58
246480,note_on,,,,,16,0,1,,,0,,,94,58
246544,note_off,,,,,64,0,1,,,0,,,94,64
246560,note_on,,,,,16,0,1,,,0,,,91,58
246608,note_off,,,,,0,0,2,,,1,,,67,64
246608,note_off,,,,,128,0,2,,,1,,,64,64
246624,note_off,,,,,64,0,1,,,0,,,91,64
246640,note_on,,,,,32,0,2,,,1,,,61,58
246640,note_on,,,,,16,0,1,,,0,,,88,58
246640,note_on,,,,,0,0,2,,,1,,,64,58
246704,note_off,,,,,64,0,2,,,1,,,64,64
246704,note_off,,,,,0,0,2,,,1,,,61,64
246704,note_off,,,,,64,0,1,,,0,,,88,64
246720,note_on,,,,,0,0,2,,,1,,,67,58
246720,note_on,,,,,16,0,2,,,1,,,70,58
246720,note_on,,,,,16,0,1,,,0,,,94,58
246784,note_off,,,,,0,0,2,,,1,,,70,64
246784,note_off,,,,,64,0,2,,,1,,,67,64
246784,note_off,,,,,64,0,1,,,0,,,94,64
246800,note_on,,,,,16,0,2,,,1,,,64,58
246800,note_on,,,,,16,0,1,,,0,,,91,58
246864,note_off,,,,,64,0,2,,,1,,,64,64
246864,note_off,,,,,64,0,1,,,0,,,91,64
246880,note_on,,,,,16,0,2,,,1,,,61,58
246880,note_on,,,,,16,0,1,,,0,,,88,58
246944,note_off,,,,,64,0,2,,,1,,,61,64
246944,note_off,,,,,64,0,1,,,0,,,88,64
246960,note_on,,,,,16,0,1,,,0,,,94,58
246960,note_on,,,,,16,0,2,,,1,,,73,58
247024,note_off,,,,,64,0,1,,,0,,,94,64
247024,note_off,,,,,64,0,2,,,1,,,73,64
247040,note_on,,,,,16,0,1,,,0,,,91,58
247040,note_on,,,,,16,0,2,,,1,,,70,58
247104,note_off,,,,,64,0,1,,,0,,,91,64
247104,note_off,,,,,64,0,2,,,1,,,70,64
247120,note_on,,,,,16,0,1,,,0,,,88,58
247120,note_on,,,,,16,0,2,,,1,,,67,58
247184,note_off,,,,,64,0,1,,,0,,,88,64
247184,note_off,,,,,64,0,2,,,1,,,67,64
247200,note_on,,,,,16,0,1,,,0,,,94,58
247200,note_on,,,,,16,0,2,,,1,,,76,58
247264,note_off,,,,,64,0,2,,,1,,,76,64
247264,note_off,,,,,64,0,1,,,0,,,94,64
247280,note_on,,,,,16,0,1,,,0,,,91,58
247280,note_on,,,,,16,0,2,,,1,,,73,58
247344,note_off,,,,,64,0,1,,,0,,,91,64
247344,note_off,,,,,64,0,2,,,1,,,73,64
247360,note_on,,,,,16,0,1,,,0,,,88,58
247360,note_on,,,,,16,0,2,,,1,,,70,58
247424,note_off,,,,,64,0,2,,,1,,,70,64
247424,note_off,,,,,64,0,1,,,0,,,88,64
247440,note_on,,,,,16,0,1,,,0,,,94,58
247440,note_on,,,,,16,0,2,,,1,,,79,58
247504,note_off,,,,,64,0,1,,,0,,,94,64
247504,note_off,,,,,64,0,2,,,1,,,79,64
247520,note_on,,,,,16,0,2,,,1,,,76,58
247520,note_on,,,,,16,0,1,,,0,,,91,58
247584,note_off,,,,,64,0,1,,,0,,,91,64
247584,note_off,,,,,64,0,2,,,1,,,76,64
247600,note_on,,,,,16,0,2,,,1,,,73,58
247600,note_on,,,,,16,0,1,,,0,,,88,58
247664,note_off,,,,,64,0,2,,,1,,,73,64
247664,note_off,,,,,64,0,1,,,0,,,88,64
247680,note_on,,,,,16,0,1,,,0,,,82,104
247680,note_on,,,,,0,0,1,,,0,,,94,104
247744,note_off,,,,,0,0,1,,,0,,,82,64
247744,note_off,,,,,64,0,1,,,0,,,94,64
247760,note_on,,,,,16,0,1,,,0,,,91,104
247824,note_off,,,,,64,0,1,,,0,,,91,64
247840,note_on,,,,,16,0,1,,,0,,,88,104
247904,note_off,,,,,64,0,1,,,0,,,88,64
247920,note_on,,,,,256,0,2,,,1,,,52,58
247920,note_on,,,,,16,0,1,,,0,,,94,104
247920,note_on,,,,,0,0,1,,,0,,,82,104
247920,note_on,,,,,0,0,2,,,1,,,64,58
247984,note_off,,,,,64,0,1,,,0,,,82,64
247984,note_off,,,,,0,0,1,,,0,,,94,64
248000,note_on,,,,,16,0,1,,,0,,,91,104
248016,note_off,,,,,96,0,2,,,1,,,64,64
248016,note_off,,,,,0,0,2,,,1,,,52,64
248040,note_on,,,,,24,0,2,,,1,,,61,58
248040,note_on,,,,,0,0,2,,,1,,,49,58
248064,note_off,,,,,64,0,1,,,0,,,91,64
248080,note_on,,,,,16,0,1,,,0,,,88,104
248136,note_off,,,,,0,0,2,,,1,,,61,64
248136,note_off,,,,,96,0,2,,,1,,,49,64
248144,note_off,,,,,64,0,1,,,0,,,88,64
248160,note_on,,,,,16,0,1,,,0,,,82,104
248160,note_on,,,,,0,0,1,,,0,,,94,104
248160,note_on,,,,,0,0,2,,,1,,,46,58
248160,note_on,,,,,24,0,2,,,1,,,58,58
248224,note_off,,,,,0,0,1,,,0,,,82,64
248224,note_off,,,,,64,0,1,,,0,,,94,64
248240,note_on,,,,,16,0,1,,,0,,,91,104
248256,note_off,,,,,0,0,2,,,1,,,58,64
248256,note_off,,,,,96,0,2,,,1,,,46,64
248280,note_on,,,,,24,0,2,,,1,,,43,58
248280,note_on,,,,,0,0,2,,,1,,,55,58
248304,note_off,,,,,64,0,1,,,0,,,91,64
248320,note_on,,,,,16,0,1,,,0,,,88,104
248376,note_off,,,,,0,0,2,,,1,,,43,64
248376,note_off,,,,,96,0,2,,,1,,,55,64
248384,note_off,,,,,64,0,1,,,0,,,88,64
248400,note_on,,,,,0,0,2,,,1,,,52,58
248400,note_on,,,,,0,0,1,,,0,,,94,104
248400,note_on,,,,,24,0,2,,,1,,,40,58
248400,note_on,,,,,16,0,1,,,0,,,82,104
248464,note_off,,,,,64,0,1,,,0,,,94,64
248464,note_off,,,,,0,0,1,,,0,,,82,64
248480,note_on,,,,,16,0,1,,,0,,,91,104
248496,note_off,,,,,96,0,2,,,1,,,52,64
248496,note_off,,,,,0,0,2,,,1,,,40,64
248520,note_on,,,,,24,0,2,,,1,,,37,58
248520,note_on,,,,,0,0,2,,,1,,,49,58
248544,note_off,,,,,64,0,1,,,0,,,91,64
248560,note_on,,,,,16,0,1,,,0,,,88,104
248616,note_off,,,,,96,0,2,,,1,,,49,64
248616,note_off,,,,,0,0,2,,,1,,,37,64
248624,note_off,,,,,64,0,1,,,0,,,88,64
248640,note_on,,,,,16,0,1,,,0,,,94,116
248640,note_on,,,,,0,0,2,,,1,,,36,116
248640,note_on,,,,,24,0,2,,,1,,,48,116
248640,note_on,,,,,0,0,2,,,1,,,43,116
248640,note_on,,,,,0,0,1,,,0,,,82,116
248640,note_on,,,,,0,0,1,,,0,,,88,116
248640,note_on,,,,,0,0,1,,,0,,,91,116
248928,note_off,,,,,288,0,1,,,0,,,82,64
248928,note_off,,,,,0,0,2,,,1,,,48,64
248928,note_off,,,,,288,0,2,,,1,,,43,64
248928,note_off,,,,,0,0,2,,,1,,,36,64
248928,note_off,,,,,0,0,1,,,0,,,94,64
248928,note_off,,,,,0,0,1,,,0,,,91,64
248928,note_off,,,,,0,0,1,,,0,,,88,64
249000,note_on,,,,,0,0,1,,,0,,,64,116
249000,note_on,,,,,0,0,1,,,0,,,52,116
249000,note_on,,,,,72,0,1,,,0,,,60,116
249000,note_on,,,,,0,0,2,,,1,,,48,116
249000,note_on,,,,,0,0,2,,,1,,,43,116
249000,note_on,,,,,72,0,2,,,1,,,36,116
249000,note_on,,,,,0,0,1,,,0,,,58,116
249096,note_off,,,,,0,0,2,,,1,,,36,64
249096,note_off,,,,,96,0,2,,,1,,,48,64
249096,note_off,,,,,0,0,1,,,0,,,60,64
249096,note_off,,,,,0,0,1,,,0,,,52,64
249096,note_off,,,,,0,0,1,,,0,,,58,64
249096,note_off,,,,,96,0,1,,,0,,,64,64
249096,note_off,,,,,0,0,2,,,1,,,43,64
249120,note_on,,,,,0,0,1,,,0,,,58,116
249120,note_on,,,,,0,0,2,,,1,,,36,116
249120,note_on,,,,,0,0,2,,,1,,,48,116
249120,note_on,,,,,0,0,1,,,0,,,52,116
249120,note_on,,,,,24,0,1,,,0,,,64,116
249120,note_on,,,,,24,0,2,,,1,,,43,116
249120,note_on,,,,,0,0,1,,,0,,,60,116
249312,note_off,,,,,0,0,1,,,0,,,52,64
249312,note_off,,,,,0,0,2,,,1,,,36,64
249312,note_off,,,,,192,0,2,,,1,,,48,64
249312,note_off,,,,,0,0,1,,,0,,,64,64
249312,note_off,,,,,0,0,1,,,0,,,58,64
249312,note_off,,,,,0,0,2,,,1,,,43,64
249312,note_off,,,,,192,0,1,,,0,,,60,64
249360,note_on,,,,,0,0,2,,,1,,,38,116
249360,note_on,,,,,0,0,1,,,0,,,60,116
249360,note_on,,,,,48,0,2,,,1,,,50,116
249360,note_on,,,,,48,0,1,,,0,,,65,116
249360,note_on,,,,,0,0,1,,,0,,,53,116
249456,note_off,,,,,96,0,1,,,0,,,60,64
249456,note_off,,,,,0,0,2,,,1,,,50,64
249456,note_off,,,,,96,0,2,,,1,,,38,64
249456,note_off,,,,,0,0,1,,,0,,,53,64
249456,note_off,,,,,0,0,1,,,0,,,65,64
249480,note_on,,,,,0,0,2,,,1,,,52,116
249480,note_on,,,,,0,0,2,,,1,,,40,116
249480,note_on,,,,,24,0,2,,,1,,,48,116
249480,note_on,,,,,0,0,1,,,0,,,67,116
249480,note_on,,,,,0,0,1,,,0,,,60,116
249480,note_on,,,,,24,0,1,,,0,,,55,116
249576,note_off,,,,,96,0,1,,,0,,,67,64
249576,note_off,,,,,96,0,2,,,1,,,52,64
249576,note_off,,,,,0,0,1,,,0,,,60,64
249576,note_off,,,,,0,0,2,,,1,,,48,64
249576,note_off,,,,,0,0,2,,,1,,,40,64
249576,note_off,,,,,0,0,1,,,0,,,55,64
249600,note_on,,,,,0,0,2,,,1,,,41,116
249600,note_on,,,,,0,0,1,,,0,,,69,116
249600,note_on,,,,,0,0,2,,,1,,,48,116
249600,note_on,,,,,24,0,1,,,0,,,57,116
249600,note_on,,,,,0,0,1,,,0,,,60,116
249600,note_on,,,,,24,0,2,,,1,,,53,116
249792,note_off,,,,,0,0,1,,,0,,,57,64
249792,note_off,,,,,192,0,1,,,0,,,69,64
249792,note_off,,,,,0,0,1,,,0,,,60,64
249792,note_off,,,,,192,0,2,,,1,,,48,64
249792,note_off,,,,,0,0,2,,,1,,,41,64
249792,note_off,,,,,0,0,2,,,1,,,53,64
249840,note_on,,,,,0,0,2,,,1,,,52,116
249840,note_on,,,,,0,0,1,,,0,,,55,116
249840,note_on,,,,,0,0,2,,,1,,,48,116
249840,note_on,,,,,48,0,1,,,0,,,67,116
249840,note_on,,,,,0,0,1,,,0,,,60,116
249840,note_on,,,,,48,0,2,,,1,,,40,116
250032,note_off,,,,,0,0,1,,,0,,,67,64
250032,note_off,,,,,0,0,1,,,0,,,60,64
250032,note_off,,,,,192,0,1,,,0,,,55,64
250032,note_off,,,,,192,0,2,,,1,,,52,64
250032,note_off,,,,,0,0,2,,,1,,,48,64
250032,note_off,,,,,0,0,2,,,1,,,40,64
250440,note_on,,,,,0,0,1,,,0,,,64,116
250440,note_on,,,,,0,0,1,,,0,,,52,116
250440,note_on,,,,,0,0,1,,,0,,,58,116
250440,note_on,,,,,408,0,1,,,0,,,60,116
250440,note_on,,,,,0,0,2,,,1,,,43,116
250440,note_on,,,,,0,0,2,,,1,,,48,116
250440,note_on,,,,,408,0,2,,,1,,,36,116
250536,note_off,,,,,0,0,1,,,0,,,60,64
250536,note_off,,,,,0,0,1,,,0,,,58,64
250536,note_off,,,,,96,0,1,,,0,,,64,64
250536,note_off,,,,,0,0,2,,,1,,,36,64
250536,note_off,,,,,0,0,1,,,0,,,52,64
250536,note_off,,,,,96,0,2,,,1,,,48,64
250536,note_off,,,,,0,0,2,,,1,,,43,64
250560,note_on,,,,,24,0,2,,,1,,,43,116
250560,note_on,,,,,0,0,2,,,1,,,36,116
250560,note_on,,,,,24,0,1,,,0,,,64,116
250560,note_on,,,,,0,0,1,,,0,,,60,116
250560,note_on,,,,,0,0,1,,,0,,,58,116
250560,note_on,,,,,0,0,1,,,0,,,52,116
250560,note_on,,,,,0,0,2,,,1,,,48,116
250752,note_off,,,,,192,0,2,,,1,,,36,64
250752,note_off,,,,,0,0,2,,,1,,,48,64
250752,note_off,,,,,0,0,2,,,1,,,43,64
250785,note_off,,,,,225,0,1,,,0,,,52,64
250785,note_off,,,,,0,0,1,,,0,,,58,64
250785,note_off,,,,,0,0,1,,,0,,,60,64
250785,note_off,,,,,0,0,1,,,0,,,64,64
250800,note_on,,,,,15,0,1,,,0,,,65,116
250800,note_on,,,,,0,0,1,,,0,,,53,116
250800,note_on,,,,,0,0,1,,,0,,,60,116
250800,note_on,,,,,48,0,2,,,1,,,38,116
250800,note_on,,,,,0,0,2,,,1,,,50,116
250896,note_off,,,,,0,0,2,,,1,,,38,64
250896,note_off,,,,,96,0,2,,,1,,,50,64
250896,note_off,,,,,0,0,1,,,0,,,53,64
250896,note_off,,,,,96,0,1,,,0,,,60,64
250896,note_off,,,,,0,0,1,,,0,,,65,64
250920,note_on,,,,,24,0,1,,,0,,,67,116
250920,note_on,,,,,0,0,1,,,0,,,55,116
250920,note_on,,,,,0,0,2,,,1,,,52,116
250920,note_on,,,,,0,0,2,,,1,,,48,116
250920,note_on,,,,,24,0,2,,,1,,,40,116
250920,note_on,,,,,0,0,1,,,0,,,60,116
251016,note_off,,,,,0,0,2,,,1,,,48,64
251016,note_off,,,,,96,0,2,,,1,,,52,64
251016,note_off,,,,,0,0,2,,,1,,,40,64
251016,note_off,,,,,96,0,1,,,0,,,55,64
251016,note_off,,,,,0,0,1,,,0,,,60,64
251016,note_off,,,,,0,0,1,,,0,,,67,64
251040,note_on,,,,,0,0,2,,,1,,,41,116
251040,note_on,,,,,0,0,2,,,1,,,48,116
251040,note_on,,,,,24,0,1,,,0,,,69,116
251040,note_on,,,,,24,0,2,,,1,,,53,116
251040,note_on,,,,,0,0,1,,,0,,,57,116
251040,note_on,,,,,0,0,1,,,0,,,60,116
251232,note_off,,,,,192,0,1,,,0,,,57,64
251232,note_off,,,,,0,0,1,,,0,,,60,64
251232,note_off,,,,,0,0,1,,,0,,,69,64
251232,note_off,,,,,0,0,2,,,1,,,53,64
251232,note_off,,,,,0,0,2,,,1,,,41,64
251232,note_off,,,,,192,0,2,,,1,,,48,64
251280,note_on,,,,,0,0,2,,,1,,,52,116
251280,note_on,,,,,0,0,2,,,1,,,40,116
251280,note_on,,,,,48,0,2,,,1,,,48,116
251280,note_on,,,,,0,0,1,,,0,,,55,116
251280,note_on,,,,,0,0,1,,,0,,,67,116
251280,note_on,,,,,48,0,1,,,0,,,60,116
251376,note_off,,,,,96,0,2,,,1,,,52,64
251376,note_off,,,,,0,0,2,,,1,,,48,64
251376,note_off,,,,,0,0,1,,,0,,,67,64
251376,note_off,,,,,96,0,1,,,0,,,55,64
251376,note_off,,,,,0,0,2,,,1,,,40,64
251376,note_off,,,,,0,0,1,,,0,,,60,64
251400,note_on,,,,,24,0,2,,,1,,,48,116
251400,note_on,,,,,0,0,2,,,1,,,41,116
251400,note_on,,,,,0,0,1,,,0,,,57,116
251400,note_on,,,,,0,0,1,,,0,,,69,116
251400,note_on,,,,,0,0,2,,,1,,,53,116
251400,note_on,,,,,24,0,1,,,0,,,60,116
251496,note_off,,,,,96,0,1,,,0,,,69,64
251496,note_off,,,,,0,0,1,,,0,,,57,64
251496,note_off,,,,,0,0,1,,,0,,,60,64
251496,note_off,,,,,0,0,2,,,1,,,41,64
251496,note_off,,,,,96,0,2,,,1,,,53,64
251496,note_off,,,,,0,0,2,,,1,,,48,64
251520,note_on,,,,,0,0,2,,,1,,,43,116
251520,note_on,,,,,24,0,1,,,0,,,60,116
251520,note_on,,,,,0,0,1,,,0,,,70,116
251520,note_on,,,,,0,0,1,,,0,,,58,116
251520,note_on,,,,,24,0,2,,,1,,,48,116
251520,note_on,,,,,0,0,2,,,1,,,55,116
251712,note_off,,,,,0,0,1,,,0,,,60,64
251712,note_off,,,,,0,0,1,,,0,,,70,64
251712,note_off,,,,,192,0,1,,,0,,,58,64
251712,note_off,,,,,0,0,2,,,1,,,48,64
251712,note_off,,,,,0,0,2,,,1,,,55,64
251712,note_off,,,,,192,0,2,,,1,,,43,64
251760,note_on,,,,,0,0,1,,,0,,,60,116
251760,note_on,,,,,48,0,1,,,0,,,57,116
251760,note_on,,,,,0,0,1,,,0,,,69,116
251760,note_on,,,,,48,0,2,,,1,,,41,116
251760,note_on,,,,,0,0,2,,,1,,,53,116
251760,note_on,,,,,0,0,2,,,1,,,48,116
251952,note_off,,,,,192,0,2,,,1,,,48,64
251952,note_off,,,,,0,0,2,,,1,,,53,64
251952,note_off,,,,,0,0,2,,,1,,,41,64
251952,note_off,,,,,0,0,1,,,0,,,57,64
251952,note_off,,,,,0,0,1,,,0,,,60,64
251952,note_off,,,,,192,0,1,,,0,,,69,64
252240,note_on,,,,,0,0,2,,,1,,,52,116
252240,note_on,,,,,0,0,1,,,0,,,55,116
252240,note_on,,,,,288,0,2,,,1,,,40,116
252240,note_on,,,,,0,0,2,,,1,,,48,116
252240,note_on,,,,,288,0,1,,,0,,,60,116
252240,note_on,,,,,0,0,1,,,0,,,67,116
252336,note_off,,,,,96,0,2,,,1,,,52,64
252336,note_off,,,,,0,0,2,,,1,,,40,64
252336,note_off,,,,,0,0,2,,,1,,,48,64
252336,note_off,,,,,0,0,1,,,0,,,60,64
252336,note_off,,,,,0,0,1,,,0,,,55,64
252336,note_off,,,,,96,0,1,,,0,,,67,64
252360,note_on,,,,,0,0,1,,,0,,,69,116
252360,note_on,,,,,0,0,1,,,0,,,57,116
252360,note_on,,,,,24,0,1,,,0,,,60,116
252360,note_on,,,,,0,0,2,,,1,,,53,116
252360,note_on,,,,,0,0,2,,,1,,,48,116
252360,note_on,,,,,24,0,2,,,1,,,41,116
252456,note_off,,,,,0,0,1,,,0,,,60,64
252456,note_off,,,,,0,0,2,,,1,,,48,64
252456,note_off,,,,,96,0,2,,,1,,,53,64
252456,note_off,,,,,0,0,2,,,1,,,41,64
252456,note_off,,,,,96,0,1,,,0,,,69,64
252456,note_off,,,,,0,0,1,,,0,,,57,64
252480,note_on,,,,,24,0,1,,,0,,,67,116
252480,note_on,,,,,24,0,2,,,1,,,38,116
252480,note_on,,,,,0,0,1,,,0,,,59,116
252480,note_on,,,,,0,0,1,,,0,,,71,116
252480,note_on,,,,,0,0,1,,,0,,,65,116
252480,note_on,,,,,0,0,2,,,1,,,50,116
252672,note_off,,,,,192,0,1,,,0,,,71,64
252672,note_off,,,,,0,0,1,,,0,,,59,64
252672,note_off,,,,,0,0,1,,,0,,,67,64
252672,note_off,,,,,192,0,2,,,1,,,50,64
252672,note_off,,,,,0,0,1,,,0,,,65,64
252672,note_off,,,,,0,0,2,,,1,,,38,64
252720,note_on,,,,,48,0,2,,,1,,,40,116
252720,note_on,,,,,0,0,2,,,1,,,52,116
252720,note_on,,,,,0,0,1,,,0,,,60,116
252720,note_on,,,,,0,0,1,,,0,,,64,116
252720,note_on,,,,,48,0,1,,,0,,,67,116
252720,note_on,,,,,0,0,1,,,0,,,72,116
252912,note_off,,,,,0,0,1,,,0,,,60,64
252912,note_off,,,,,0,0,1,,,0,,,64,64
252912,note_off,,,,,0,0,1,,,0,,,67,64
252912,note_off,,,,,192,0,1,,,0,,,72,64
252912,note_off,,,,,0,0,2,,,1,,,40,64
252912,note_off,,,,,192,0,2,,,1,,,52,64
252960,note_on,,,,,0,0,1,,,0,,,74,116
252960,note_on,,,,,0,0,2,,,1,,,47,116
252960,note_on,,,,,48,0,2,,,1,,,35,116
252960,note_on,,,,,0,0,1,,,0,,,67,116
252960,note_on,,,,,48,0,1,,,0,,,62,116
253152,note_off,,,,,0,0,1,,,0,,,62,64
253152,note_off,,,,,192,0,1,,,0,,,74,64
253152,note_off,,,,,0,0,1,,,0,,,67,64
253152,note_off,,,,,0,0,2,,,1,,,35,64
253152,note_off,,,,,192,0,2,,,1,,,47,64
253200,note_on,,,,,0,0,2,,,1,,,48,116
253200,note_on,,,,,48,0,2,,,1,,,36,116
253200,note_on,,,,,48,0,1,,,0,,,67,116
253200,note_on,,,,,0,0,1,,,0,,,76,116
253200,note_on,,,,,0,0,1,,,0,,,64,116
253392,note_off,,,,,0,0,2,,,1,,,36,64
253392,note_off,,,,,192,0,2,,,1,,,48,64
253392,note_off,,,,,192,0,1,,,0,,,64,64
253392,note_off,,,,,0,0,1,,,0,,,76,64
253392,note_off,,,,,0,0,1,,,0,,,67,64
253440,note_on,,,,,48,0,1,,,0,,,72,116
253440,note_on,,,,,0,0,2,,,1,,,38,116
253440,note_on,,,,,0,0,1,,,0,,,78,116
253440,note_on,,,,,48,0,2,,,1,,,33,116
253440,note_on,,,,,0,0,2,,,1,,,45,116
253440,note_on,,,,,0,0,1,,,0,,,74,116
253464,note_off,,,,,24,0,1,,,0,,,78,64
253470,note_on,,,,,6,0,1,,,0,,,79,116
253494,note_off,,,,,24,0,1,,,0,,,79,64
253500,note_on,,,,,6,0,1,,,0,,,78,116
253524,note_off,,,,,24,0,1,,,0,,,78,64
253530,note_on,,,,,6,0,1,,,0,,,79,116
253554,note_off,,,,,24,0,1,,,0,,,79,64
253560,note_on,,,,,6,0,1,,,0,,,78,116
253584,note_off,,,,,24,0,1,,,0,,,78,64
253590,note_on,,,,,6,0,1,,,0,,,79,116
253614,note_off,,,,,24,0,1,,,0,,,79,64
253620,note_on,,,,,6,0,1,,,0,,,78,116
253644,note_off,,,,,24,0,1,,,0,,,78,64
253650,note_on,,,,,6,0,1,,,0,,,79,116
253674,note_off,,,,,24,0,1,,,0,,,79,64
253680,note_on,,,,,6,0,1,,,0,,,78,116
253704,note_off,,,,,24,0,1,,,0,,,78,64
253710,note_on,,,,,6,0,1,,,0,,,79,116
253734,note_off,,,,,24,0,1,,,0,,,79,64
253740,note_on,,,,,6,0,1,,,0,,,78,116
253764,note_off,,,,,24,0,1,,,0,,,78,64
253770,note_on,,,,,6,0,1,,,0,,,79,116
253794,note_off,,,,,24,0,1,,,0,,,79,64
253800,note_on,,,,,6,0,1,,,0,,,78,116
253824,note_off,,,,,0,0,2,,,1,,,33,64
253824,note_off,,,,,24,0,1,,,0,,,78,64
253824,note_off,,,,,0,0,1,,,0,,,74,64
253824,note_off,,,,,0,0,1,,,0,,,72,64
253824,note_off,,,,,384,0,2,,,1,,,45,64
253824,note_off,,,,,0,0,2,,,1,,,38,64
253830,note_on,,,,,6,0,1,,,0,,,79,116
253854,note_off,,,,,24,0,1,,,0,,,79,64
253860,note_on,,,,,6,0,1,,,0,,,76,116
253884,note_off,,,,,24,0,1,,,0,,,76,64
253890,note_on,,,,,6,0,1,,,0,,,78,116
253914,note_off,,,,,24,0,1,,,0,,,78,64
253920,note_on,,,,,6,0,1,,,0,,,71,116
253920,note_on,,,,,0,0,1,,,0,,,79,116
253920,note_on,,,,,0,0,2,,,1,,,38,116
253920,note_on,,,,,0,0,2,,,1,,,43,116
253920,note_on,,,,,96,0,2,,,1,,,31,116
254112,note_off,,,,,0,0,2,,,1,,,31,64
254112,note_off,,,,,192,0,2,,,1,,,38,64
254112,note_off,,,,,0,0,2,,,1,,,43,64
254112,note_off,,,,,192,0,1,,,0,,,79,64
254112,note_off,,,,,0,0,1,,,0,,,71,64
254160,note_on,,,,,48,0,2,,,1,,,62,116
254160,note_on,,,,,48,0,1,,,0,,,74,116
254256,note_off,,,,,96,0,2,,,1,,,62,64
254256,note_off,,,,,96,0,1,,,0,,,74,64
254280,note_on,,,,,24,0,2,,,1,,,66,116
254280,note_on,,,,,24,0,1,,,0,,,78,116
254376,note_off,,,,,96,0,2,,,1,,,66,64
254376,note_off,,,,,96,0,1,,,0,,,78,64
254400,note_on,,,,,24,0,2,,,1,,,67,116
254400,note_on,,,,,24,0,1,,,0,,,79,116
254592,note_off,,,,,192,0,1,,,0,,,79,64
254592,note_off,,,,,192,0,2,,,1,,,67,64
254640,note_on,,,,,48,0,1,,,0,,,62,116
254640,note_on,,,,,48,0,2,,,1,,,50,116
254736,note_off,,,,,96,0,1,,,0,,,62,64
254736,note_off,,,,,96,0,2,,,1,,,50,64
254760,note_on,,,,,24,0,2,,,1,,,54,116
254760,note_on,,,,,24,0,1,,,0,,,66,116
254856,note_off,,,,,96,0,1,,,0,,,66,64
254856,note_off,,,,,96,0,2,,,1,,,54,64
254880,note_on,,,,,24,0,1,,,0,,,67,116
254880,note_on,,,,,24,0,2,,,1,,,55,116
255072,note_off,,,,,192,0,2,,,1,,,55,64
255072,note_off,,,,,192,0,1,,,0,,,67,64
255120,note_on,,,,,48,0,2,,,1,,,38,116
255120,note_on,,,,,0,0,2,,,1,,,50,116
255216,note_off,,,,,96,0,2,,,1,,,50,64
255216,note_off,,,,,0,0,2,,,1,,,38,64
255240,note_on,,,,,24,0,2,,,1,,,42,116
255240,note_on,,,,,0,0,2,,,1,,,54,116
255336,note_off,,,,,96,0,2,,,1,,,54,64
255336,note_off,,,,,0,0,2,,,1,,,42,64
255360,note_on,,,,,24,0,2,,,1,,,43,116
255360,note_on,,,,,288,0,1,,,0,,,55,116
255408,note_off,,,,,48,0,1,,,0,,,55,64
255420,note_on,,,,,12,0,1,,,0,,,59,116
255468,note_off,,,,,48,0,1,,,0,,,59,64
255480,note_on,,,,,12,0,1,,,0,,,60,116
255528,note_off,,,,,48,0,1,,,0,,,60,64
255540,note_on,,,,,12,0,1,,,0,,,62,116
255552,note_off,,,,,192,0,2,,,1,,,43,64
255588,note_off,,,,,48,0,1,,,0,,,62,64
255600,note_on,,,,,12,0,1,,,0,,,64,116
255648,note_off,,,,,48,0,1,,,0,,,64,64
255660,note_on,,,,,12,0,1,,,0,,,66,116
255708,note_off,,,,,48,0,1,,,0,,,66,64
255720,note_on,,,,,12,0,1,,,0,,,67,116
255768,note_off,,,,,48,0,1,,,0,,,67,64
255780,note_on,,,,,12,0,1,,,0,,,69,116
255828,note_off,,,,,48,0,1,,,0,,,69,64
255840,note_on,,,,,12,0,1,,,0,,,71,116
255840,note_on,,,,,0,0,2,,,1,,,55,116
255840,note_on,,,,,0,0,2,,,1,,,59,116
255840,note_on,,,,,288,0,2,,,1,,,62,116
255888,note_off,,,,,48,0,1,,,0,,,71,64
255900,note_on,,,,,12,0,1,,,0,,,74,116
255948,note_off,,,,,48,0,1,,,0,,,74,64
255960,note_on,,,,,12,0,1,,,0,,,76,116
256008,note_off,,,,,48,0,1,,,0,,,76,64
256020,note_on,,,,,12,0,1,,,0,,,78,116
256032,note_off,,,,,0,0,2,,,1,,,59,64
256032,note_off,,,,,192,0,2,,,1,,,55,64
256032,note_off,,,,,0,0,2,,,1,,,62,64
256068,note_off,,,,,48,0,1,,,0,,,78,64
256080,note_on,,,,,12,0,1,,,0,,,79,116
256128,note_off,,,,,48,0,1,,,0,,,79,64
256140,note_on,,,,,12,0,1,,,0,,,83,116
256188,note_off,,,,,48,0,1,,,0,,,83,64
256200,note_on,,,,,12,0,1,,,0,,,84,116
256248,note_off,,,,,48,0,1,,,0,,,84,64
256260,note_on,,,,,12,0,1,,,0,,,86,116
256308,note_off,,,,,48,0,1,,,0,,,86,64
256320,note_on,,,,,0,0,2,,,1,,,51,116
256320,note_on,,,,,0,0,2,,,1,,,48,116
256320,note_on,,,,,0,0,2,,,1,,,55,116
256320,note_on,,,,,288,0,2,,,1,,,60,116
256320,note_on,,,,,0,0,1,,,0,,,84,116
256320,note_on,,,,,0,0,1,,,0,,,79,116
256320,note_on,,,,,12,0,1,,,0,,,75,116
256320,note_on,,,,,0,0,1,,,0,,,87,116
256608,note_off,,,,,0,0,2,,,1,,,55,64
256608,note_off,,,,,0,0,2,,,1,,,51,64
256608,note_off,,,,,0,0,2,,,1,,,60,64
256608,note_off,,,,,0,0,1,,,0,,,84,64
256608,note_off,,,,,288,0,2,,,1,,,48,64
256608,note_off,,,,,288,0,1,,,0,,,87,64
256608,note_off,,,,,0,0,1,,,0,,,79,64
256608,note_off,,,,,0,0,1,,,0,,,75,64
256680,note_on,,,,,72,0,1,,,0,,,63,116
256680,note_on,,,,,0,0,1,,,0,,,60,116
256680,note_on,,,,,0,0,1,,,0,,,51,116
256680,note_on,,,,,0,0,2,,,1,,,43,116
256680,note_on,,,,,72,0,2,,,1,,,36,116
256680,note_on,,,,,0,0,2,,,1,,,48,116
256776,note_off,,,,,0,0,1,,,0,,,63,64
256776,note_off,,,,,96,0,2,,,1,,,43,64
256776,note_off,,,,,96,0,1,,,0,,,51,64
256776,note_off,,,,,0,0,2,,,1,,,36,64
256776,note_off,,,,,0,0,2,,,1,,,48,64
256776,note_off,,,,,0,0,1,,,0,,,60,64
256800,note_on,,,,,0,0,2,,,1,,,36,116
256800,note_on,,,,,24,0,2,,,1,,,48,116
256800,note_on,,,,,0,0,2,,,1,,,43,116
256800,note_on,,,,,0,0,1,,,0,,,63,116
256800,note_on,,,,,0,0,1,,,0,,,51,116
256800,note_on,,,,,24,0,1,,,0,,,60,116
256992,note_off,,,,,0,0,2,,,1,,,48,64
256992,note_off,,,,,0,0,2,,,1,,,36,64
256992,note_off,,,,,192,0,2,,,1,,,43,64
257025,note_off,,,,,0,0,1,,,0,,,60,64
257025,note_off,,,,,0,0,1,,,0,,,63,64
257025,note_off,,,,,225,0,1,,,0,,,51,64
257040,note_on,,,,,0,0,1,,,0,,,53,116
257040,note_on,,,,,0,0,1,,,0,,,65,116
257040,note_on,,,,,0,0,2,,,1,,,50,116
257040,note_on,,,,,48,0,2,,,1,,,38,116
257040,note_on,,,,,15,0,1,,,0,,,60,116
257136,note_off,,,,,0,0,1,,,0,,,60,64
257136,note_off,,,,,0,0,2,,,1,,,38,64
257136,note_off,,,,,96,0,2,,,1,,,50,64
257136,note_off,,,,,96,0,1,,,0,,,65,64
257136,note_off,,,,,0,0,1,,,0,,,53,64
257160,note_on,,,,,0,0,1,,,0,,,55,116
257160,note_on,,,,,0,0,2,,,1,,,51,116
257160,note_on,,,,,0,0,1,,,0,,,67,116
257160,note_on,,,,,24,0,2,,,1,,,39,116
257160,note_on,,,,,24,0,1,,,0,,,60,116
257256,note_off,,,,,96,0,2,,,1,,,51,64
257256,note_off,,,,,96,0,1,,,0,,,67,64
257256,note_off,,,,,0,0,1,,,0,,,55,64
257256,note_off,,,,,0,0,1,,,0,,,60,64
257256,note_off,,,,,0,0,2,,,1,,,39,64
257280,note_on,,,,,0,0,2,,,1,,,53,116
257280,note_on,,,,,0,0,2,,,1,,,41,116
257280,note_on,,,,,24,0,1,,,0,,,56,116
257280,note_on,,,,,0,0,1,,,0,,,60,116
257280,note_on,,,,,24,0,2,,,1,,,48,116
257280,note_on,,,,,0,0,1,,,0,,,68,116
257472,note_off,,,,,0,0,1,,,0,,,60,64
257472,note_off,,,,,0,0,1,,,0,,,56,64
257472,note_off,,,,,0,0,2,,,1,,,48,64
257472,note_off,,,,,0,0,2,,,1,,,53,64
257472,note_off,,,,,192,0,2,,,1,,,41,64
257472,note_off,,,,,192,0,1,,,0,,,68,64
257520,note_on,,,,,0,0,2,,,1,,,48,116
257520,note_on,,,,,48,0,2,,,1,,,41,116
257520,note_on,,,,,0,0,2,,,1,,,53,116
257520,note_on,,,,,48,0,1,,,0,,,68,116
257520,note_on,,,,,0,0,1,,,0,,,56,116
257520,note_on,,,,,0,0,1,,,0,,,60,116
257712,note_off,,,,,0,0,1,,,0,,,60,64
257712,note_off,,,,,192,0,1,,,0,,,56,64
257712,note_off,,,,,192,0,2,,,1,,,53,64
257712,note_off,,,,,0,0,2,,,1,,,48,64
257712,note_off,,,,,0,0,2,,,1,,,41,64
257712,note_off,,,,,0,0,1,,,0,,,68,64
258000,note_on,,,,,288,0,1,,,0,,,68,116
258000,note_on,,,,,0,0,1,,,0,,,80,116
258000,note_on,,,,,288,0,2,,,1,,,44,116
258000,note_on,,,,,0,0,2,,,1,,,56,116
258192,note_off,,,,,0,0,1,,,0,,,68,64
258192,note_off,,,,,192,0,1,,,0,,,80,64
258192,note_off,,,,,192,0,2,,,1,,,56,64
258192,note_off,,,,,0,0,2,,,1,,,44,64
258240,note_on,,,,,0,0,1,,,0,,,80,116
258240,note_on,,,,,0,0,1,,,0,,,89,116
258240,note_on,,,,,48,0,1,,,0,,,77,110
258240,note_on,,,,,48,0,2,,,1,,,61,110
258240,note_on,,,,,0,0,2,,,1,,,65,116
258240,note_on,,,,,0,0,2,,,1,,,49,116
258240,note_on,,,,,0,0,2,,,1,,,56,116
258528,note_off,,,,,0,0,2,,,1,,,61,64
258528,note_off,,,,,0,0,2,,,1,,,56,64
258528,note_off,,,,,0,0,2,,,1,,,65,64
258528,note_off,,,,,288,0,2,,,1,,,49,64
258528,note_off,,,,,0,0,1,,,0,,,89,64
258528,note_off,,,,,288,0,1,,,0,,,80,64
258528,note_off,,,,,0,0,1,,,0,,,77,64
258600,note_on,,,,,72,0,1,,,0,,,65,116
258600,note_on,,,,,0,0,2,,,1,,,37,116
258600,note_on,,,,,72,0,2,,,1,,,49,116
258600,note_on,,,,,0,0,1,,,0,,,53,116
258600,note_on,,,,,0,0,1,,,0,,,61,116
258696,note_off,,,,,96,0,1,,,0,,,61,64
258696,note_off,,,,,0,0,1,,,0,,,53,64
258696,note_off,,,,,0,0,1,,,0,,,65,64
258696,note_off,,,,,0,0,2,,,1,,,49,64
258696,note_off,,,,,96,0,2,,,1,,,37,64
258720,note_on,,,,,0,0,1,,,0,,,53,116
258720,note_on,,,,,24,0,2,,,1,,,37,116
258720,note_on,,,,,0,0,2,,,1,,,49,116
258720,note_on,,,,,0,0,1,,,0,,,61,116
258720,note_on,,,,,24,0,1,,,0,,,65,116
258912,note_off,,,,,0,0,2,,,1,,,37,64
258912,note_off,,,,,192,0,2,,,1,,,49,64
258912,note_off,,,,,0,0,1,,,0,,,65,64
258912,note_off,,,,,192,0,1,,,0,,,61,64
258912,note_off,,,,,0,0,1,,,0,,,53,64
258960,note_on,,,,,48,0,2,,,1,,,39,116
258960,note_on,,,,,0,0,1,,,0,,,66,116
258960,note_on,,,,,0,0,1,,,0,,,61,116
258960,note_on,,,,,0,0,2,,,1,,,51,116
258960,note_on,,,,,48,0,1,,,0,,,54,116
259056,note_off,,,,,96,0,1,,,0,,,61,64
259056,note_off,,,,,0,0,1,,,0,,,66,64
259056,note_off,,,,,0,0,1,,,0,,,54,64
259056,note_off,,,,,96,0,2,,,1,,,51,64
259056,note_off,,,,,0,0,2,,,1,,,39,64
259080,note_on,,,,,0,0,1,,,0,,,68,116
259080,note_on,,,,,0,0,1,,,0,,,61,116
259080,note_on,,,,,24,0,1,,,0,,,56,116
259080,note_on,,,,,24,0,2,,,1,,,41,116
259080,note_on,,,,,0,0,2,,,1,,,53,116
259176,note_off,,,,,96,0,2,,,1,,,53,64
259176,note_off,,,,,96,0,1,,,0,,,61,64
259176,note_off,,,,,0,0,1,,,0,,,68,64
259176,note_off,,,,,0,0,1,,,0,,,56,64
259176,note_off,,,,,0,0,2,,,1,,,41,64
259200,note_on,,,,,24,0,1,,,0,,,57,116
259200,note_on,,,,,0,0,1,,,0,,,66,116
259200,note_on,,,,,0,0,1,,,0,,,69,116
259200,note_on,,,,,0,0,2,,,1,,,42,116
259200,note_on,,,,,24,0,2,,,1,,,49,116
259200,note_on,,,,,0,0,2,,,1,,,54,116
259392,note_off,,,,,0,0,1,,,0,,,66,64
259392,note_off,,,,,192,0,1,,,0,,,69,64
259392,note_off,,,,,0,0,1,,,0,,,57,64
259392,note_off,,,,,192,0,2,,,1,,,42,64
259392,note_off,,,,,0,0,2,,,1,,,54,64
259392,note_off,,,,,0,0,2,,,1,,,49,64
259440,note_on,,,,,48,0,2,,,1,,,54,116
259440,note_on,,,,,0,0,2,,,1,,,49,116
259440,note_on,,,,,0,0,2,,,1,,,42,116
259440,note_on,,,,,48,0,1,,,0,,,57,116
259440,note_on,,,,,0,0,1,,,0,,,69,116
259440,note_on,,,,,0,0,1,,,0,,,66,116
259632,note_off,,,,,192,0,1,,,0,,,66,64
259632,note_off,,,,,0,0,1,,,0,,,57,64
259632,note_off,,,,,0,0,1,,,0,,,69,64
259632,note_off,,,,,0,0,2,,,1,,,49,64
259632,note_off,,,,,0,0,2,,,1,,,54,64
259632,note_off,,,,,192,0,2,,,1,,,42,64
259920,note_on,,,,,0,0,2,,,1,,,45,116
259920,note_on,,,,,288,0,2,,,1,,,57,116
259920,note_on,,,,,0,0,1,,,0,,,81,116
259920,note_on,,,,,288,0,1,,,0,,,69,116
260112,note_off,,,,,0,0,2,,,1,,,57,64
260112,note_off,,,,,192,0,2,,,1,,,45,64
260112,note_off,,,,,0,0,1,,,0,,,69,64
260112,note_off,,,,,192,0,1,,,0,,,81,64
260160,note_on,,,,,0,0,1,,,0,,,90,116
260160,note_on,,,,,0,0,1,,,0,,,81,116
260160,note_on,,,,,48,0,1,,,0,,,78,116
260160,note_on,,,,,0,0,2,,,1,,,50,116
260160,note_on,,,,,0,0,2,,,1,,,57,116
260160,note_on,,,,,0,0,2,,,1,,,62,116
260160,note_on,,,,,48,0,2,,,1,,,66,110
260448,note_off,,,,,0,0,2,,,1,,,66,64
260448,note_off,,,,,0,0,1,,,0,,,81,64
260448,note_off,,,,,288,0,1,,,0,,,90,64
260448,note_off,,,,,288,0,2,,,1,,,50,64
260448,note_off,,,,,0,0,2,,,1,,,57,64
260448,note_off,,,,,0,0,2,,,1,,,62,64
260448,note_off,,,,,0,0,1,,,0,,,78,64
260520,note_on,,,,,72,0,2,,,1,,,38,116
260520,note_on,,,,,0,0,1,,,0,,,54,116
260520,note_on,,,,,72,0,1,,,0,,,66,116
260520,note_on,,,,,0,0,2,,,1,,,50,116
260520,note_on,,,,,0,0,1,,,0,,,62,116
260616,note_off,,,,,0,0,2,,,1,,,38,64
260616,note_off,,,,,0,0,1,,,0,,,66,64
260616,note_off,,,,,96,0,2,,,1,,,50,64
260616,note_off,,,,,0,0,1,,,0,,,62,64
260616,note_off,,,,,96,0,1,,,0,,,54,64
260640,note_on,,,,,0,0,2,,,1,,,50,116
260640,note_on,,,,,24,0,1,,,0,,,62,116
260640,note_on,,,,,24,0,2,,,1,,,38,116
260640,note_on,,,,,0,0,1,,,0,,,66,116
260640,note_on,,,,,0,0,1,,,0,,,54,116
260832,note_off,,,,,0,0,1,,,0,,,62,64
260832,note_off,,,,,0,0,1,,,0,,,54,64
260832,note_off,,,,,192,0,1,,,0,,,66,64
260832,note_off,,,,,0,0,2,,,1,,,38,64
260832,note_off,,,,,192,0,2,,,1,,,50,64
260880,note_on,,,,,48,0,1,,,0,,,62,116
260880,note_on,,,,,0,0,1,,,0,,,55,116
260880,note_on,,,,,0,0,2,,,1,,,52,116
260880,note_on,,,,,48,0,2,,,1,,,40,116
260880,note_on,,,,,0,0,1,,,0,,,67,116
260976,note_off,,,,,0,0,2,,,1,,,40,64
260976,note_off,,,,,96,0,1,,,0,,,55,64
260976,note_off,,,,,0,0,1,,,0,,,67,64
260976,note_off,,,,,0,0,1,,,0,,,62,64
260976,note_off,,,,,96,0,2,,,1,,,52,64
261000,note_on,,,,,0,0,2,,,1,,,42,116
261000,note_on,,,,,24,0,2,,,1,,,54,116
261000,note_on,,,,,24,0,1,,,0,,,62,116
261000,note_on,,,,,0,0,1,,,0,,,69,116
261000,note_on,,,,,0,0,1,,,0,,,57,116
261096,note_off,,,,,96,0,1,,,0,,,57,64
261096,note_off,,,,,0,0,1,,,0,,,69,64
261096,note_off,,,,,0,0,2,,,1,,,54,64
261096,note_off,,,,,96,0,2,,,1,,,42,64
261096,note_off,,,,,0,0,1,,,0,,,62,64
261120,note_on,,,,,0,0,1,,,0,,,62,116
261120,note_on,,,,,0,0,2,,,1,,,50,116
261120,note_on,,,,,0,0,2,,,1,,,43,116
261120,note_on,,,,,24,0,2,,,1,,,55,116
261120,note_on,,,,,0,0,1,,,0,,,70,116
261120,note_on,,,,,24,0,1,,,0,,,58,116
261312,note_off,,,,,0,0,2,,,1,,,50,64
261312,note_off,,,,,0,0,2,,,1,,,55,64
261312,note_off,,,,,192,0,2,,,1,,,43,64
261312,note_off,,,,,192,0,1,,,0,,,70,64
261312,note_off,,,,,0,0,1,,,0,,,62,64
261312,note_off,,,,,0,0,1,,,0,,,58,64
261360,note_on,,,,,48,0,2,,,1,,,50,116
261360,note_on,,,,,0,0,2,,,1,,,42,116
261360,note_on,,,,,0,0,2,,,1,,,54,116
261360,note_on,,,,,48,0,1,,,0,,,62,116
261360,note_on,,,,,0,0,1,,,0,,,69,116
261360,note_on,,,,,0,0,1,,,0,,,57,116
261552,note_off,,,,,0,0,1,,,0,,,62,64
261552,note_off,,,,,0,0,1,,,0,,,69,64
261552,note_off,,,,,192,0,1,,,0,,,57,64
261552,note_off,,,,,192,0,2,,,1,,,54,64
261552,note_off,,,,,0,0,2,,,1,,,42,64
261552,note_off,,,,,0,0,2,,,1,,,50,64
261840,note_on,,,,,0,0,1,,,0,,,67,116
261840,note_on,,,,,0,0,2,,,1,,,51,116
261840,note_on,,,,,0,0,1,,,0,,,73,116
261840,note_on,,,,,288,0,1,,,0,,,61,116
261840,note_on,,,,,288,0,2,,,1,,,39,116
262032,note_off,,,,,192,0,2,,,1,,,51,64
262032,note_off,,,,,0,0,2,,,1,,,39,64
262032,note_off,,,,,0,0,1,,,0,,,61,64
262032,note_off,,,,,192,0,1,,,0,,,73,64
262032,note_off,,,,,0,0,1,,,0,,,67,64
262080,note_on,,,,,48,0,1,,,0,,,62,116
262080,note_on,,,,,0,0,1,,,0,,,66,116
262080,note_on,,,,,0,0,1,,,0,,,74,116
262080,note_on,,,,,0,0,2,,,1,,,38,116
262080,note_on,,,,,48,0,2,,,1,,,50,116
262176,note_off,,,,,0,0,2,,,1,,,50,64
262176,note_off,,,,,96,0,2,,,1,,,38,64
262176,note_off,,,,,96,0,1,,,0,,,74,64
262176,note_off,,,,,0,0,1,,,0,,,62,64
262176,note_off,,,,,0,0,1,,,0,,,66,64
262200,note_on,,,,,24,0,2,,,1,,,50,116
262296,note_off,,,,,96,0,2,,,1,,,50,64
262320,note_on,,,,,24,0,2,,,1,,,63,116
262320,note_on,,,,,0,0,2,,,1,,,51,116
262440,note_on,,,,,264,0,1,,,0,,,69,116
262512,note_off,,,,,0,0,2,,,1,,,63,64
262512,note_off,,,,,192,0,2,,,1,,,51,64
262560,note_on,,,,,120,0,1,,,0,,,81,116
262560,note_on,,,,,0,0,1,,,0,,,72,116
262680,note_on,,,,,168,0,2,,,1,,,38,116
262776,note_off,,,,,96,0,2,,,1,,,38,64
262800,note_on,,,,,24,0,2,,,1,,,39,116
262800,note_on,,,,,0,0,2,,,1,,,51,116
262848,note_off,,,,,0,0,1,,,0,,,81,64
262848,note_off,,,,,0,0,1,,,0,,,72,64
262848,note_off,,,,,288,0,1,,,0,,,69,64
262920,note_on,,,,,72,0,1,,,0,,,79,116
262992,note_off,,,,,0,0,2,,,1,,,39,64
262992,note_off,,,,,192,0,2,,,1,,,51,64
263016,note_off,,,,,96,0,1,,,0,,,79,64
263040,note_on,,,,,24,0,1,,,0,,,78,116
263136,note_off,,,,,96,0,1,,,0,,,78,64
263160,note_on,,,,,168,0,2,,,1,,,50,116
263256,note_off,,,,,96,0,2,,,1,,,50,64
263280,note_on,,,,,24,0,2,,,1,,,51,116
263280,note_on,,,,,0,0,2,,,1,,,63,116
263400,note_on,,,,,264,0,1,,,0,,,81,116
263472,note_off,,,,,0,0,2,,,1,,,51,64
263472,note_off,,,,,192,0,2,,,1,,,63,64
263520,note_on,,,,,120,0,1,,,0,,,93,116
263520,note_on,,,,,0,0,1,,,0,,,84,116
263640,note_on,,,,,168,0,2,,,1,,,50,116
263736,note_off,,,,,96,0,2,,,1,,,50,64
263760,note_on,,,,,24,0,2,,,1,,,39,116
263760,note_on,,,,,0,0,2,,,1,,,51,116
263808,note_off,,,,,288,0,1,,,0,,,84,64
263808,note_off,,,,,0,0,1,,,0,,,81,64
263808,note_off,,,,,0,0,1,,,0,,,93,64
263880,note_on,,,,,72,0,1,,,0,,,93,116
263880,note_on,,,,,0,0,1,,,0,,,84,116
263880,note_on,,,,,0,0,1,,,0,,,81,116
263952,note_off,,,,,192,0,2,,,1,,,51,64
263952,note_off,,,,,0,0,2,,,1,,,39,64
263976,note_off,,,,,0,0,1,,,0,,,84,64
263976,note_off,,,,,96,0,1,,,0,,,81,64
263976,note_off,,,,,0,0,1,,,0,,,93,64
264000,note_on,,,,,0,0,2,,,1,,,40,116
264000,note_on,,,,,24,0,1,,,0,,,92,116
264000,note_on,,,,,48,0,2,,,1,,,52,116
264000,note_on,,,,,0,0,1,,,0,,,83,116
264000,note_on,,,,,0,0,1,,,0,,,80,116
264096,note_off,,,,,96,0,1,,,0,,,80,64
264096,note_off,,,,,0,0,1,,,0,,,83,64
264096,note_off,,,,,0,0,1,,,0,,,92,64
264096,note_off,,,,,0,0,2,,,1,,,52,64
264096,note_off,,,,,96,0,2,,,1,,,40,64
264120,note_on,,,,,24,0,2,,,1,,,52,116
264216,note_off,,,,,96,0,2,,,1,,,52,64
264240,note_on,,,,,0,0,2,,,1,,,53,116
264240,note_on,,,,,24,0,2,,,1,,,65,116
264360,note_on,,,,,264,0,1,,,0,,,71,116
264432,note_off,,,,,192,0,2,,,1,,,53,64
264432,note_off,,,,,0,0,2,,,1,,,65,64
264480,note_on,,,,,120,0,1,,,0,,,74,116
264480,note_on,,,,,0,0,1,,,0,,,83,116
264600,note_on,,,,,168,0,2,,,1,,,40,116
264696,note_off,,,,,96,0,2,,,1,,,40,64
264720,note_on,,,,,0,0,2,,,1,,,53,116
264720,note_on,,,,,24,0,2,,,1,,,41,116
264768,note_off,,,,,0,0,1,,,0,,,74,64
264768,note_off,,,,,0,0,1,,,0,,,71,64
264768,note_off,,,,,288,0,1,,,0,,,83,64
264840,note_on,,,,,72,0,1,,,0,,,81,116
264912,note_off,,,,,192,0,2,,,1,,,53,64
264912,note_off,,,,,0,0,2,,,1,,,41,64
264936,note_off,,,,,96,0,1,,,0,,,81,64
264960,note_on,,,,,0,0,1,,,0,,,80,116
264960,note_on,,,,,0,0,1,,,0,,,71,116
264960,note_on,,,,,24,0,1,,,0,,,74,116
265056,note_off,,,,,0,0,1,,,0,,,74,64
265056,note_off,,,,,96,0,1,,,0,,,80,64
265056,note_off,,,,,0,0,1,,,0,,,71,64
265080,note_on,,,,,168,0,2,,,1,,,52,116
265176,note_off,,,,,96,0,2,,,1,,,52,64
265200,note_on,,,,,0,0,2,,,1,,,53,116
265200,note_on,,,,,24,0,2,,,1,,,65,116
265320,note_on,,,,,264,0,1,,,0,,,83,116
265392,note_off,,,,,0,0,2,,,1,,,65,64
265392,note_off,,,,,192,0,2,,,1,,,53,64
265440,note_on,,,,,120,0,1,,,0,,,86,116
265440,note_on,,,,,0,0,1,,,0,,,95,116
265560,note_on,,,,,168,0,2,,,1,,,40,116
265656,note_off,,,,,96,0,2,,,1,,,40,64
265680,note_on,,,,,0,0,2,,,1,,,53,116
265680,note_on,,,,,24,0,2,,,1,,,41,116
265728,note_off,,,,,0,0,1,,,0,,,86,64
265728,note_off,,,,,288,0,1,,,0,,,95,64
265728,note_off,,,,,0,0,1,,,0,,,83,64
265800,note_on,,,,,72,0,1,,,0,,,84,116
265920,note_on,,,,,120,0,1,,,0,,,96,116
265920,note_on,,,,,0,0,1,,,0,,,87,116
266016,note_off,,,,,336,0,2,,,1,,,41,64
266016,note_off,,,,,0,0,2,,,1,,,53,64
266040,note_on,,,,,24,0,2,,,1,,,41,116
266136,note_off,,,,,96,0,2,,,1,,,41,64
266160,note_on,,,,,24,0,2,,,1,,,54,116
266160,note_on,,,,,0,0,2,,,1,,,42,116
266208,note_off,,,,,0,0,1,,,0,,,84,64
266208,note_off,,,,,0,0,1,,,0,,,96,64
266208,note_off,,,,,288,0,1,,,0,,,87,64
266280,note_on,,,,,72,0,1,,,0,,,84,116
266400,note_on,,,,,120,0,1,,,0,,,87,116
266400,note_on,,,,,0,0,1,,,0,,,96,116
266448,note_off,,,,,288,0,2,,,1,,,42,64
266448,note_off,,,,,0,0,2,,,1,,,54,64
266520,note_on,,,,,72,0,2,,,1,,,43,116
266640,note_on,,,,,120,0,2,,,1,,,55,116
266688,note_off,,,,,0,0,1,,,0,,,84,64
266688,note_off,,,,,0,0,1,,,0,,,87,64
266688,note_off,,,,,288,0,1,,,0,,,96,64
266760,note_on,,,,,72,0,1,,,0,,,84,116
266880,note_on,,,,,120,0,1,,,0,,,96,116
266880,note_on,,,,,0,0,1,,,0,,,87,116
266976,note_off,,,,,0,0,2,,,1,,,43,64
266976,note_off,,,,,336,0,2,,,1,,,55,64
267000,note_on,,,,,24,0,2,,,1,,,43,116
267096,note_off,,,,,96,0,2,,,1,,,43,64
267120,note_on,,,,,24,0,2,,,1,,,45,116
267120,note_on,,,,,0,0,2,,,1,,,57,116
267168,note_off,,,,,0,0,1,,,0,,,96,64
267168,note_off,,,,,288,0,1,,,0,,,87,64
267168,note_off,,,,,0,0,1,,,0,,,84,64
267240,note_on,,,,,72,0,1,,,0,,,82,116
267360,note_on,,,,,120,0,1,,,0,,,86,116
267360,note_on,,,,,0,0,1,,,0,,,94,116
267408,note_off,,,,,0,0,2,,,1,,,45,64
267408,note_off,,,,,288,0,2,,,1,,,57,64
267480,note_on,,,,,72,0,2,,,1,,,46,116
267600,note_on,,,,,120,0,2,,,1,,,58,116
267648,note_off,,,,,288,0,1,,,0,,,94,64
267648,note_off,,,,,0,0,1,,,0,,,82,64
267648,note_off,,,,,0,0,1,,,0,,,86,64
267720,note_on,,,,,72,0,1,,,0,,,81,116
267840,note_on,,,,,120,0,1,,,0,,,87,116
267840,note_on,,,,,0,0,1,,,0,,,93,116
267936,note_off,,,,,0,0,2,,,1,,,58,64
267936,note_off,,,,,336,0,2,,,1,,,46,64
267960,note_on,,,,,24,0,2,,,1,,,46,116
268056,note_off,,,,,96,0,2,,,1,,,46,64
268080,note_on,,,,,24,0,2,,,1,,,48,116
268080,note_on,,,,,0,0,2,,,1,,,60,116
268128,note_off,,,,,288,0,1,,,0,,,93,64
268128,note_off,,,,,0,0,1,,,0,,,81,64
268128,note_off,,,,,0,0,1,,,0,,,87,64
268200,note_on,,,,,72,0,1,,,0,,,79,116
268320,note_on,,,,,0,0,1,,,0,,,88,116
268320,note_on,,,,,0,0,1,,,0,,,82,116
268320,note_on,,,,,120,0,1,,,0,,,91,116
268368,note_off,,,,,0,0,2,,,1,,,48,64
268368,note_off,,,,,288,0,2,,,1,,,60,64
268440,note_on,,,,,72,0,2,,,1,,,48,116
268536,note_off,,,,,96,0,2,,,1,,,48,64
268560,note_on,,,,,0,0,2,,,1,,,61,116
268560,note_on,,,,,24,0,2,,,1,,,49,116
268608,note_off,,,,,288,0,1,,,0,,,88,64
268608,note_off,,,,,0,0,1,,,0,,,91,64
268608,note_off,,,,,0,0,1,,,0,,,79,64
268608,note_off,,,,,0,0,1,,,0,,,82,64
268680,note_on,,,,,72,0,1,,,0,,,78,116
268752,note_off,,,,,0,0,2,,,1,,,49,64
268752,note_off,,,,,192,0,2,,,1,,,61,64
268776,note_off,,,,,96,0,1,,,0,,,78,64
268800,note_on,,,,,0,0,1,,,0,,,81,116
268800,note_on,,,,,0,0,2,,,1,,,50,116
268800,note_on,,,,,24,0,1,,,0,,,86,116
268800,note_on,,,,,48,0,2,,,1,,,62,116
268800,note_on,,,,,0,0,1,,,0,,,90,116
268896,note_off,,,,,96,0,2,,,1,,,50,64
268896,note_off,,,,,0,0,1,,,0,,,86,64
268896,note_off,,,,,96,0,1,,,0,,,90,64
268896,note_off,,,,,0,0,2,,,1,,,62,64
268896,note_off,,,,,0,0,1,,,0,,,81,64
268920,note_on,,,,,24,0,1,,,0,,,74,116
269016,note_off,,,,,96,0,1,,,0,,,74,64
269040,note_on,,,,,24,0,1,,,0,,,78,116
269040,note_on,,,,,0,0,1,,,0,,,86,116
269040,note_on,,,,,0,0,1,,,0,,,81,116
269136,note_off,,,,,0,0,1,,,0,,,78,64
269136,note_off,,,,,0,0,1,,,0,,,81,64
269136,note_off,,,,,96,0,1,,,0,,,86,64
269160,note_on,,,,,24,0,1,,,0,,,69,116
269256,note_off,,,,,96,0,1,,,0,,,69,64
269280,note_on,,,,,24,0,1,,,0,,,78,116
269280,note_on,,,,,0,0,1,,,0,,,74,116
269280,note_on,,,,,0,0,1,,,0,,,81,116
269280,note_on,,,,,0,0,2,,,1,,,54,116
269280,note_on,,,,,0,0,2,,,1,,,50,116
269280,note_on,,,,,384,0,2,,,1,,,57,116
269376,note_off,,,,,96,0,2,,,1,,,54,64
269376,note_off,,,,,0,0,2,,,1,,,50,64
269376,note_off,,,,,0,0,1,,,0,,,74,64
269376,note_off,,,,,0,0,1,,,0,,,78,64
269376,note_off,,,,,0,0,2,,,1,,,57,64
269376,note_off,,,,,96,0,1,,,0,,,81,64
269400,note_on,,,,,24,0,1,,,0,,,66,116
269496,note_off,,,,,96,0,1,,,0,,,66,64
269520,note_on,,,,,0,0,1,,,0,,,74,116
269520,note_on,,,,,24,0,1,,,0,,,78,116
269520,note_on,,,,,0,0,1,,,0,,,69,116
269616,note_off,,,,,0,0,1,,,0,,,74,64
269616,note_off,,,,,96,0,1,,,0,,,69,64
269616,note_off,,,,,0,0,1,,,0,,,78,64
269640,note_on,,,,,24,0,1,,,0,,,62,116
269736,note_off,,,,,96,0,1,,,0,,,62,64
269760,note_on,,,,,24,0,1,,,0,,,66,116
269760,note_on,,,,,0,0,1,,,0,,,69,116
269760,note_on,,,,,0,0,2,,,1,,,38,116
269760,note_on,,,,,0,0,2,,,1,,,45,116
269760,note_on,,,,,384,0,2,,,1,,,54,116
269760,note_on,,,,,0,0,1,,,0,,,74,116
269856,note_off,,,,,96,0,1,,,0,,,74,64
269856,note_off,,,,,0,0,1,,,0,,,66,64
269856,note_off,,,,,96,0,2,,,1,,,38,64
269856,note_off,,,,,0,0,2,,,1,,,45,64
269856,note_off,,,,,0,0,2,,,1,,,54,64
269856,note_off,,,,,0,0,1,,,0,,,69,64
270480,note_on,,,,,624,0,1,,,0,,,69,104
270672,note_off,,,,,192,0,1,,,0,,,69,64
270720,note_on,,,,,48,0,1,,,0,,,72,104
270840,note_on,,,,,984,0,2,,,1,,,63,116
270936,note_off,,,,,96,0,2,,,1,,,63,64
270960,note_on,,,,,24,0,2,,,1,,,67,116
271056,note_off,,,,,96,0,2,,,1,,,67,64
271080,note_on,,,,,24,0,2,,,1,,,79,116
271104,note_off,,,,,384,0,1,,,0,,,72,64
271176,note_off,,,,,96,0,2,,,1,,,79,64
271440,note_on,,,,,336,0,1,,,0,,,69,71
271632,note_off,,,,,192,0,1,,,0,,,69,64
271680,note_on,,,,,48,0,1,,,0,,,72,71
271800,note_on,,,,,624,0,2,,,1,,,62,116
271896,note_off,,,,,96,0,2,,,1,,,62,64
271920,note_on,,,,,24,0,2,,,1,,,66,116
272016,note_off,,,,,96,0,2,,,1,,,66,64
272040,note_on,,,,,24,0,2,,,1,,,78,116
272064,note_off,,,,,384,0,1,,,0,,,72,64
272136,note_off,,,,,96,0,2,,,1,,,78,64
272400,note_on,,,,,336,0,1,,,0,,,69,71
272592,note_off,,,,,192,0,1,,,0,,,69,64
272640,note_on,,,,,48,0,1,,,0,,,72,71
272760,note_on,,,,,624,0,2,,,1,,,63,116
272856,note_off,,,,,96,0,2,,,1,,,63,64
272880,note_on,,,,,24,0,2,,,1,,,67,116
272976,note_off,,,,,96,0,2,,,1,,,67,64
273000,note_on,,,,,24,0,2,,,1,,,63,116
273024,note_off,,,,,384,0,1,,,0,,,72,64
273096,note_off,,,,,96,0,2,,,1,,,63,64
273120,note_on,,,,,96,0,1,,,0,,,74,71
273120,note_on,,,,,24,0,2,,,1,,,67,116
273216,note_off,,,,,96,0,2,,,1,,,67,64
273240,note_on,,,,,24,0,2,,,1,,,63,116
273336,note_off,,,,,96,0,2,,,1,,,63,64
273360,note_on,,,,,24,0,2,,,1,,,67,116
273408,note_off,,,,,288,0,1,,,0,,,74,64
273456,note_off,,,,,96,0,2,,,1,,,67,64
273480,note_on,,,,,72,0,1,,,0,,,75,71
273480,note_on,,,,,24,0,2,,,1,,,72,116
273576,note_off,,,,,96,0,1,,,0,,,75,64
273576,note_off,,,,,96,0,2,,,1,,,72,64
273600,note_on,,,,,24,0,1,,,0,,,75,71
273720,note_on,,,,,144,0,2,,,1,,,65,116
273816,note_off,,,,,96,0,2,,,1,,,65,64
273840,note_on,,,,,24,0,2,,,1,,,68,116
273936,note_off,,,,,96,0,2,,,1,,,68,64
273960,note_on,,,,,24,0,2,,,1,,,65,116
273984,note_off,,,,,384,0,1,,,0,,,75,64
274056,note_off,,,,,96,0,2,,,1,,,65,64
274080,note_on,,,,,96,0,1,,,0,,,74,71
274080,note_on,,,,,24,0,2,,,1,,,68,116
274176,note_off,,,,,96,0,2,,,1,,,68,64
274200,note_on,,,,,24,0,2,,,1,,,65,116
274272,note_off,,,,,192,0,1,,,0,,,74,64
274296,note_off,,,,,96,0,2,,,1,,,65,64
274320,note_on,,,,,24,0,2,,,1,,,68,116
274416,note_off,,,,,96,0,2,,,1,,,68,64
274440,note_on,,,,,168,0,1,,,0,,,77,71
274440,note_on,,,,,24,0,2,,,1,,,72,116
274536,note_off,,,,,96,0,2,,,1,,,72,64
274536,note_off,,,,,96,0,1,,,0,,,77,64
274560,note_on,,,,,24,0,1,,,0,,,80,71
274680,note_on,,,,,144,0,2,,,1,,,55,116
274776,note_off,,,,,96,0,2,,,1,,,55,64
274800,note_on,,,,,24,0,2,,,1,,,59,116
274896,note_off,,,,,96,0,2,,,1,,,59,64
274920,note_on,,,,,24,0,2,,,1,,,55,116
274944,note_off,,,,,384,0,1,,,0,,,80,64
275016,note_off,,,,,96,0,2,,,1,,,55,64
275040,note_on,,,,,24,0,2,,,1,,,59,116
275040,note_on,,,,,96,0,1,,,0,,,79,71
275136,note_off,,,,,96,0,2,,,1,,,59,64
275160,note_on,,,,,24,0,2,,,1,,,55,116
275256,note_off,,,,,96,0,2,,,1,,,55,64
275280,note_on,,,,,24,0,2,,,1,,,59,116
275328,note_off,,,,,288,0,1,,,0,,,79,64
275376,note_off,,,,,96,0,2,,,1,,,59,64
275400,note_on,,,,,72,0,1,,,0,,,74,71
275400,note_on,,,,,24,0,2,,,1,,,65,116
275496,note_off,,,,,96,0,1,,,0,,,74,64
275496,note_off,,,,,96,0,2,,,1,,,65,64
275520,note_on,,,,,24,0,1,,,0,,,77,71
275640,note_on,,,,,144,0,2,,,1,,,60,116
275753,note_off,,,,,113,0,2,,,1,,,60,64
275760,note_on,,,,,7,0,2,,,1,,,67,116
275856,note_off,,,,,96,0,2,,,1,,,67,64
275880,note_on,,,,,24,0,2,,,1,,,60,116
275904,note_off,,,,,384,0,1,,,0,,,77,64
275976,note_off,,,,,96,0,2,,,1,,,60,64
276000,note_on,,,,,24,0,2,,,1,,,67,116
276000,note_on,,,,,96,0,1,,,0,,,75,71
276096,note_off,,,,,96,0,2,,,1,,,67,64
276120,note_on,,,,,24,0,2,,,1,,,60,116
276192,note_off,,,,,192,0,1,,,0,,,75,64
276216,note_off,,,,,96,0,2,,,1,,,60,64
276240,note_on,,,,,24,0,2,,,1,,,67,116
276336,note_off,,,,,96,0,2,,,1,,,67,64
276360,note_on,,,,,24,0,2,,,1,,,72,116
276456,note_off,,,,,96,0,2,,,1,,,72,64
276480,note_on,,,,,288,0,1,,,0,,,75,71
276600,note_on,,,,,144,0,2,,,1,,,48,116
276696,note_off,,,,,96,0,2,,,1,,,48,64
276720,note_on,,,,,24,0,2,,,1,,,55,116
276816,note_off,,,,,96,0,2,,,1,,,55,64
276840,note_on,,,,,24,0,2,,,1,,,48,116
276864,note_off,,,,,384,0,1,,,0,,,75,64
276936,note_off,,,,,96,0,2,,,1,,,48,64
276960,note_on,,,,,24,0,2,,,1,,,55,116
276960,note_on,,,,,0,0,1,,,0,,,75,71
276960,note_on,,,,,96,0,1,,,0,,,75,71
277056,note_off,,,,,96,0,2,,,1,,,55,64
277080,note_on,,,,,24,0,2,,,1,,,48,116
277176,note_off,,,,,96,0,2,,,1,,,48,64
277200,note_on,,,,,24,0,2,,,1,,,55,116
277248,note_off,,,,,288,0,1,,,0,,,75,64
277296,note_off,,,,,96,0,2,,,1,,,55,64
277320,note_on,,,,,72,0,1,,,0,,,77,71
277320,note_on,,,,,24,0,2,,,1,,,57,116
277344,note_off,,,,,24,0,1,,,0,,,75,64
277416,note_off,,,,,72,0,1,,,0,,,77,64
277416,note_off,,,,,96,0,2,,,1,,,57,64
277440,note_on,,,,,0,0,1,,,0,,,75,81
277440,note_on,,,,,24,0,1,,,0,,,79,81
277560,note_on,,,,,144,0,2,,,1,,,46,81
277632,note_off,,,,,0,0,1,,,0,,,79,64
277632,note_off,,,,,192,0,1,,,0,,,75,64
277656,note_off,,,,,96,0,2,,,1,,,46,64
277680,note_on,,,,,24,0,2,,,1,,,55,81
277776,note_off,,,,,96,0,2,,,1,,,55,64
277800,note_on,,,,,24,0,2,,,1,,,58,81
277896,note_off,,,,,96,0,2,,,1,,,58,64
277920,note_on,,,,,24,0,2,,,1,,,63,81
277920,note_on,,,,,288,0,1,,,0,,,79,81
277920,note_on,,,,,0,0,1,,,0,,,82,81
278016,note_off,,,,,96,0,2,,,1,,,63,64
278040,note_on,,,,,24,0,2,,,1,,,58,81
278136,note_off,,,,,96,0,2,,,1,,,58,64
278160,note_on,,,,,24,0,2,,,1,,,55,81
278256,note_off,,,,,96,0,2,,,1,,,55,64
278280,note_on,,,,,24,0,2,,,1,,,51,81
278376,note_off,,,,,96,0,2,,,1,,,51,64
278400,note_on,,,,,24,0,2,,,1,,,45,91
278496,note_off,,,,,96,0,2,,,1,,,45,64
278520,note_on,,,,,24,0,2,,,1,,,50,91
278592,note_off,,,,,672,0,1,,,0,,,82,64
278592,note_off,,,,,0,0,1,,,0,,,79,64
278616,note_off,,,,,96,0,2,,,1,,,50,64
278640,note_on,,,,,24,0,2,,,1,,,55,91
278736,note_off,,,,,96,0,2,,,1,,,55,64
278760,note_on,,,,,24,0,2,,,1,,,58,91
278856,note_off,,,,,96,0,2,,,1,,,58,64
278880,note_on,,,,,0,0,1,,,0,,,86,91
278880,note_on,,,,,288,0,1,,,0,,,82,91
278880,note_on,,,,,24,0,2,,,1,,,43,91
278976,note_off,,,,,96,0,2,,,1,,,43,64
279000,note_on,,,,,24,0,2,,,1,,,50,91
279096,note_off,,,,,96,0,2,,,1,,,50,64
279120,note_on,,,,,24,0,2,,,1,,,55,91
279216,note_off,,,,,96,0,2,,,1,,,55,64
279240,note_on,,,,,24,0,2,,,1,,,58,91
279336,note_off,,,,,96,0,2,,,1,,,58,64
279360,note_on,,,,,24,0,2,,,1,,,38,91
279456,note_off,,,,,96,0,2,,,1,,,38,64
279480,note_on,,,,,24,0,2,,,1,,,50,91
279552,note_off,,,,,672,0,1,,,0,,,86,64
279552,note_off,,,,,0,0,1,,,0,,,82,64
279576,note_off,,,,,96,0,2,,,1,,,50,64
279600,note_on,,,,,24,0,2,,,1,,,53,91
279696,note_off,,,,,96,0,2,,,1,,,53,64
279720,note_on,,,,,24,0,2,,,1,,,58,91
279810,note_on,,,,,258,0,1,,,0,,,82,91
279810,note_on,,,,,0,0,1,,,0,,,77,91
279816,note_off,,,,,96,0,2,,,1,,,58,64
279825,note_off,,,,,0,0,1,,,0,,,82,64
279825,note_off,,,,,15,0,1,,,0,,,77,64
279840,note_on,,,,,24,0,2,,,1,,,70,91
279870,note_on,,,,,45,0,1,,,0,,,82,91
279870,note_on,,,,,0,0,1,,,0,,,77,91
279870,note_on,,,,,0,0,1,,,0,,,89,91
279936,note_off,,,,,96,0,2,,,1,,,70,64
279960,note_on,,,,,24,0,2,,,1,,,65,91
280056,note_off,,,,,96,0,2,,,1,,,65,64
280080,note_on,,,,,24,0,2,,,1,,,62,91
280176,note_off,,,,,96,0,2,,,1,,,62,64
280200,note_on,,,,,24,0,2,,,1,,,58,91
280296,note_off,,,,,96,0,2,,,1,,,58,64
280320,note_on,,,,,24,0,2,,,1,,,50,91
280416,note_off,,,,,96,0,2,,,1,,,50,64
280440,note_on,,,,,24,0,2,,,1,,,53,91
280536,note_off,,,,,96,0,2,,,1,,,53,64
280560,note_on,,,,,24,0,2,,,1,,,58,91
280608,note_off,,,,,0,0,1,,,0,,,77,64
280608,note_off,,,,,0,0,1,,,0,,,82,64
280608,note_off,,,,,738,0,1,,,0,,,89,64
280656,note_off,,,,,96,0,2,,,1,,,58,64
280680,note_on,,,,,24,0,2,,,1,,,65,91
280680,note_on,,,,,72,0,1,,,0,,,86,91
280776,note_off,,,,,96,0,1,,,0,,,86,64
280776,note_off,,,,,96,0,2,,,1,,,65,64
280800,note_on,,,,,0,0,1,,,0,,,81,91
280800,note_on,,,,,24,0,1,,,0,,,87,91
280920,note_on,,,,,144,0,2,,,1,,,54,91
281016,note_off,,,,,96,0,2,,,1,,,54,64
281040,note_on,,,,,24,0,2,,,1,,,60,91
281088,note_off,,,,,288,0,1,,,0,,,81,64
281088,note_off,,,,,0,0,1,,,0,,,87,64
281136,note_off,,,,,96,0,2,,,1,,,60,64
281160,note_on,,,,,72,0,1,,,0,,,84,91
281160,note_on,,,,,24,0,2,,,1,,,63,91
281256,note_off,,,,,96,0,1,,,0,,,84,64
281256,note_off,,,,,96,0,2,,,1,,,63,64
281280,note_on,,,,,24,0,1,,,0,,,82,91
281400,note_on,,,,,144,0,2,,,1,,,55,91
281496,note_off,,,,,96,0,2,,,1,,,55,64
281520,note_on,,,,,24,0,2,,,1,,,58,91
281616,note_off,,,,,96,0,2,,,1,,,58,64
281640,note_on,,,,,24,0,2,,,1,,,63,91
281664,note_off,,,,,384,0,1,,,0,,,82,64
281736,note_off,,,,,96,0,2,,,1,,,63,64
281760,note_on,,,,,96,0,1,,,0,,,75,91
281760,note_on,,,,,0,0,1,,,0,,,84,91
281880,note_on,,,,,144,0,2,,,1,,,56,91
281976,note_off,,,,,96,0,2,,,1,,,56,64
282000,note_on,,,,,24,0,2,,,1,,,60,91
282048,note_off,,,,,288,0,1,,,0,,,84,64
282096,note_off,,,,,96,0,2,,,1,,,60,64
282120,note_on,,,,,72,0,1,,,0,,,80,91
282120,note_on,,,,,24,0,2,,,1,,,63,91
282216,note_off,,,,,96,0,2,,,1,,,63,64
282216,note_off,,,,,96,0,1,,,0,,,80,64
282240,note_on,,,,,24,0,1,,,0,,,79,81
282360,note_on,,,,,144,0,2,,,1,,,58,81
282456,note_off,,,,,96,0,2,,,1,,,58,64
282480,note_on,,,,,24,0,2,,,1,,,63,81
282576,note_off,,,,,96,0,2,,,1,,,63,64
282600,note_on,,,,,24,0,2,,,1,,,67,81
282624,note_off,,,,,0,0,1,,,0,,,75,64
282624,note_off,,,,,384,0,1,,,0,,,79,64
282696,note_off,,,,,96,0,2,,,1,,,67,64
282720,note_on,,,,,0,0,2,,,1,,,59,81
282720,note_on,,,,,96,0,1,,,0,,,80,81
282720,note_on,,,,,0,0,1,,,0,,,74,81
282720,note_on,,,,,24,0,2,,,1,,,59,81
282816,note_off,,,,,96,0,2,,,1,,,59,64
282840,note_on,,,,,24,0,2,,,1,,,65,81
282936,note_off,,,,,96,0,2,,,1,,,65,64
282960,note_on,,,,,24,0,2,,,1,,,68,81
283056,note_off,,,,,96,0,2,,,1,,,68,64
283080,note_on,,,,,24,0,2,,,1,,,71,81
283104,note_off,,,,,24,0,2,,,1,,,59,64
283104,note_off,,,,,384,0,1,,,0,,,74,64
283176,note_off,,,,,72,0,2,,,1,,,71,64
283200,note_on,,,,,0,0,2,,,1,,,60,71
283200,note_on,,,,,96,0,1,,,0,,,75,71
283200,note_on,,,,,24,0,2,,,1,,,60,71
283296,note_off,,,,,96,0,2,,,1,,,60,64
283320,note_on,,,,,24,0,2,,,1,,,63,71
283416,note_off,,,,,96,0,2,,,1,,,63,64
283440,note_on,,,,,24,0,2,,,1,,,68,71
283488,note_off,,,,,288,0,1,,,0,,,80,64
283536,note_off,,,,,96,0,2,,,1,,,68,64
283560,note_on,,,,,72,0,1,,,0,,,79,71
283560,note_on,,,,,24,0,2,,,1,,,72,71
283584,note_off,,,,,24,0,2,,,1,,,60,64
283584,note_off,,,,,24,0,1,,,0,,,75,64
283656,note_off,,,,,72,0,2,,,1,,,72,64
283656,note_off,,,,,72,0,1,,,0,,,79,64
283680,note_on,,,,,24,0,1,,,0,,,72,71
283680,note_on,,,,,0,0,1,,,0,,,81,71
283680,note_on,,,,,24,0,2,,,1,,,62,71
283680,note_on,,,,,0,0,2,,,1,,,62,71
283776,note_off,,,,,96,0,2,,,1,,,62,64
283800,note_on,,,,,24,0,2,,,1,,,66,71
283896,note_off,,,,,96,0,2,,,1,,,66,64
283920,note_on,,,,,24,0,2,,,1,,,69,71
283968,note_off,,,,,288,0,1,,,0,,,81,64
284016,note_off,,,,,96,0,2,,,1,,,69,64
284040,note_on,,,,,72,0,1,,,0,,,78,71
284040,note_on,,,,,24,0,2,,,1,,,72,71
284064,note_off,,,,,24,0,1,,,0,,,72,64
284064,note_off,,,,,24,0,2,,,1,,,62,64
284136,note_off,,,,,72,0,1,,,0,,,78,64
284136,note_off,,,,,72,0,2,,,1,,,72,64
284160,note_on,,,,,24,0,2,,,1,,,67,58
284160,note_on,,,,,24,0,1,,,0,,,91,58
284160,note_on,,,,,0,0,1,,,0,,,87,58
284160,note_on,,,,,0,0,1,,,0,,,79,58
284256,note_off,,,,,96,0,2,,,1,,,67,64
284280,note_on,,,,,24,0,2,,,1,,,55,58
284376,note_off,,,,,96,0,2,,,1,,,55,64
284400,note_on,,,,,24,0,2,,,1,,,67,58
284496,note_off,,,,,96,0,2,,,1,,,67,64
284520,note_on,,,,,24,0,2,,,1,,,55,58
284544,note_off,,,,,384,0,1,,,0,,,87,64
284544,note_off,,,,,0,0,1,,,0,,,91,64
284616,note_off,,,,,96,0,2,,,1,,,55,64
284640,note_on,,,,,96,0,1,,,0,,,89,58
284640,note_on,,,,,0,0,1,,,0,,,86,58
284640,note_on,,,,,0,0,2,,,1,,,62,58
284640,note_on,,,,,24,0,2,,,1,,,65,58
284736,note_off,,,,,0,0,2,,,1,,,65,64
284736,note_off,,,,,96,0,2,,,1,,,62,64
284760,note_on,,,,,24,0,2,,,1,,,55,58
284832,note_off,,,,,0,0,1,,,0,,,89,64
284832,note_off,,,,,192,0,1,,,0,,,86,64
284856,note_off,,,,,96,0,2,,,1,,,55,64
284880,note_on,,,,,48,0,1,,,0,,,91,58
284880,note_on,,,,,0,0,1,,,0,,,87,58
284880,note_on,,,,,0,0,2,,,1,,,63,58
284880,note_on,,,,,24,0,2,,,1,,,67,58
284928,note_off,,,,,48,0,1,,,0,,,79,64
284976,note_off,,,,,0,0,2,,,1,,,67,64
284976,note_off,,,,,96,0,2,,,1,,,63,64
285000,note_on,,,,,24,0,2,,,1,,,55,58
285072,note_off,,,,,144,0,1,,,0,,,87,64
285072,note_off,,,,,0,0,1,,,0,,,91,64
285096,note_off,,,,,96,0,2,,,1,,,55,64
285120,note_on,,,,,24,0,2,,,1,,,65,58
285120,note_on,,,,,0,0,1,,,0,,,92,58
285120,note_on,,,,,0,0,1,,,0,,,79,58
285120,note_on,,,,,0,0,2,,,1,,,68,58
285120,note_on,,,,,48,0,1,,,0,,,89,58
285216,note_off,,,,,0,0,2,,,1,,,65,64
285216,note_off,,,,,96,0,2,,,1,,,68,64
285240,note_on,,,,,24,0,2,,,1,,,55,58
285336,note_off,,,,,96,0,2,,,1,,,55,64
285360,note_on,,,,,24,0,2,,,1,,,65,58
285360,note_on,,,,,0,0,2,,,1,,,62,58
285408,note_off,,,,,0,0,1,,,0,,,89,64
285408,note_off,,,,,288,0,1,,,0,,,92,64
285456,note_off,,,,,96,0,2,,,1,,,62,64
285456,note_off,,,,,0,0,2,,,1,,,65,64
285480,note_on,,,,,0,0,1,,,0,,,89,58
285480,note_on,,,,,72,0,1,,,0,,,86,58
285480,note_on,,,,,24,0,2,,,1,,,55,58
285576,note_off,,,,,96,0,1,,,0,,,89,64
285576,note_off,,,,,96,0,2,,,1,,,55,64
285576,note_off,,,,,0,0,1,,,0,,,86,64
285600,note_on,,,,,24,0,1,,,0,,,86,58
285600,note_on,,,,,24,0,2,,,1,,,59,58
285600,note_on,,,,,0,0,1,,,0,,,83,58
285600,note_on,,,,,0,0,2,,,1,,,62,58
285696,note_off,,,,,96,0,2,,,1,,,62,64
285696,note_off,,,,,0,0,2,,,1,,,59,64
285720,note_on,,,,,24,0,2,,,1,,,55,58
285792,note_off,,,,,192,0,1,,,0,,,83,64
285792,note_off,,,,,0,0,1,,,0,,,86,64
285816,note_off,,,,,96,0,2,,,1,,,55,64
285840,note_on,,,,,0,0,2,,,1,,,63,58
285840,note_on,,,,,0,0,1,,,0,,,84,58
285840,note_on,,,,,48,0,1,,,0,,,87,58
285840,note_on,,,,,24,0,2,,,1,,,60,58
285888,note_off,,,,,48,0,1,,,0,,,79,64
285936,note_off,,,,,96,0,2,,,1,,,63,64
285936,note_off,,,,,0,0,2,,,1,,,60,64
285960,note_on,,,,,24,0,2,,,1,,,55,58
286032,note_off,,,,,0,0,1,,,0,,,87,64
286032,note_off,,,,,144,0,1,,,0,,,84,64
286056,note_off,,,,,96,0,2,,,1,,,55,64
286080,note_on,,,,,48,0,1,,,0,,,86,58
286080,note_on,,,,,0,0,1,,,0,,,89,58
286080,note_on,,,,,0,0,1,,,0,,,79,58
286080,note_on,,,,,0,0,2,,,1,,,65,58
286080,note_on,,,,,24,0,2,,,1,,,62,58
286176,note_off,,,,,0,0,2,,,1,,,62,64
286176,note_off,,,,,96,0,2,,,1,,,65,64
286200,note_on,,,,,24,0,2,,,1,,,55,58
286272,note_off,,,,,0,0,1,,,0,,,86,64
286272,note_off,,,,,192,0,1,,,0,,,89,64
286296,note_off,,,,,96,0,2,,,1,,,55,64
286320,note_on,,,,,24,0,2,,,1,,,63,58
286320,note_on,,,,,0,0,1,,,0,,,84,58
286320,note_on,,,,,48,0,1,,,0,,,87,58
286320,note_on,,,,,0,0,2,,,1,,,60,58
286416,note_off,,,,,0,0,2,,,1,,,63,64
286416,note_off,,,,,96,0,2,,,1,,,60,64
286440,note_on,,,,,24,0,2,,,1,,,55,58
286512,note_off,,,,,0,0,1,,,0,,,87,64
286512,note_off,,,,,192,0,1,,,0,,,84,64
286536,note_off,,,,,96,0,2,,,1,,,55,64
286560,note_on,,,,,48,0,1,,,0,,,86,58
286560,note_on,,,,,0,0,2,,,1,,,58,58
286560,note_on,,,,,24,0,2,,,1,,,62,58
286560,note_on,,,,,0,0,1,,,0,,,82,58
286656,note_off,,,,,0,0,2,,,1,,,62,64
286656,note_off,,,,,96,0,2,,,1,,,58,64
286680,note_on,,,,,24,0,2,,,1,,,55,58
286752,note_off,,,,,192,0,1,,,0,,,82,64
286752,note_off,,,,,0,0,1,,,0,,,86,64
286776,note_off,,,,,96,0,2,,,1,,,55,64
286800,note_on,,,,,24,0,2,,,1,,,56,58
286800,note_on,,,,,0,0,1,,,0,,,80,58
286800,note_on,,,,,0,0,2,,,1,,,60,58
286800,note_on,,,,,48,0,1,,,0,,,84,58
286848,note_off,,,,,48,0,1,,,0,,,79,64
286896,note_off,,,,,96,0,2,,,1,,,60,64
286896,note_off,,,,,0,0,2,,,1,,,56,64
286920,note_on,,,,,24,0,2,,,1,,,55,58
286992,note_off,,,,,144,0,1,,,0,,,80,64
286992,note_off,,,,,0,0,1,,,0,,,84,64
287016,note_off,,,,,96,0,2,,,1,,,55,64
287040,note_on,,,,,0,0,1,,,0,,,79,58
287040,note_on,,,,,24,0,2,,,1,,,59,58
287040,note_on,,,,,48,0,1,,,0,,,79,58
287040,note_on,,,,,0,0,1,,,0,,,83,58
287136,note_off,,,,,96,0,2,,,1,,,59,64
287160,note_on,,,,,24,0,2,,,1,,,55,58
287256,note_off,,,,,96,0,2,,,1,,,55,64
287280,note_on,,,,,0,0,2,,,1,,,57,58
287280,note_on,,,,,24,0,2,,,1,,,60,58
287328,note_off,,,,,288,0,1,,,0,,,83,64
287328,note_off,,,,,0,0,1,,,0,,,79,64
287376,note_off,,,,,96,0,2,,,1,,,57,64
287376,note_off,,,,,0,0,2,,,1,,,60,64
287400,note_on,,,,,24,0,2,,,1,,,55,58
287400,note_on,,,,,0,0,1,,,0,,,81,58
287400,note_on,,,,,72,0,1,,,0,,,84,58
287496,note_off,,,,,0,0,1,,,0,,,84,64
287496,note_off,,,,,96,0,1,,,0,,,81,64
287496,note_off,,,,,96,0,2,,,1,,,55,64
287520,note_on,,,,,24,0,1,,,0,,,83,58
287520,note_on,,,,,0,0,1,,,0,,,86,58
287520,note_on,,,,,24,0,2,,,1,,,59,58
287520,note_on,,,,,0,0,2,,,1,,,62,58
287616,note_off,,,,,96,0,1,,,0,,,79,64
287616,note_off,,,,,0,0,2,,,1,,,59,64
287616,note_off,,,,,96,0,2,,,1,,,62,64
287640,note_on,,,,,24,0,2,,,1,,,55,58
287712,note_off,,,,,0,0,1,,,0,,,83,64
287712,note_off,,,,,96,0,1,,,0,,,86,64
287736,note_off,,,,,96,0,2,,,1,,,55,64
287760,note_on,,,,,48,0,1,,,0,,,79,58
287760,note_on,,,,,24,0,2,,,1,,,59,58
287760,note_on,,,,,0,0,1,,,0,,,79,58
287856,note_off,,,,,96,0,2,,,1,,,59,64
287880,note_on,,,,,24,0,2,,,1,,,55,58
287952,note_off,,,,,192,0,1,,,0,,,79,64
287952,note_off,,,,,0,0,1,,,0,,,79,64
287976,note_off,,,,,96,0,2,,,1,,,55,64
288000,note_on,,,,,0,0,2,,,1,,,63,58
288000,note_on,,,,,0,0,1,,,0,,,79,58
288000,note_on,,,,,0,0,1,,,0,,,87,58
288000,note_on,,,,,48,0,1,,,0,,,91,58
288000,note_on,,,,,24,0,2,,,1,,,67,58
288096,note_off,,,,,0,0,2,,,1,,,67,64
288096,note_off,,,,,96,0,2,,,1,,,63,64
288120,note_on,,,,,24,0,2,,,1,,,55,58
288216,note_off,,,,,96,0,2,,,1,,,55,64
288240,note_on,,,,,0,0,2,,,1,,,67,58
288240,note_on,,,,,24,0,2,,,1,,,63,58
288336,note_off,,,,,96,0,2,,,1,,,67,64
288336,note_off,,,,,0,0,2,,,1,,,63,64
288360,note_on,,,,,24,0,2,,,1,,,55,58
288384,note_off,,,,,0,0,1,,,0,,,91,64
288384,note_off,,,,,384,0,1,,,0,,,87,64
288456,note_off,,,,,96,0,2,,,1,,,55,64
288480,note_on,,,,,0,0,2,,,1,,,65,58
288480,note_on,,,,,0,0,1,,,0,,,86,58
288480,note_on,,,,,96,0,1,,,0,,,89,58
288480,note_on,,,,,24,0,2,,,1,,,62,58
288576,note_off,,,,,96,0,2,,,1,,,65,64
288576,note_off,,,,,0,0,2,,,1,,,62,64
288600,note_on,,,,,24,0,2,,,1,,,55,58
288672,note_off,,,,,192,0,1,,,0,,,86,64
288672,note_off,,,,,0,0,1,,,0,,,89,64
288696,note_off,,,,,96,0,2,,,1,,,55,64
288720,note_on,,,,,0,0,1,,,0,,,87,58
288720,note_on,,,,,48,0,1,,,0,,,91,58
288720,note_on,,,,,0,0,2,,,1,,,63,58
288720,note_on,,,,,24,0,2,,,1,,,67,58
288768,note_off,,,,,48,0,1,,,0,,,79,64
288816,note_off,,,,,96,0,2,,,1,,,63,64
288816,note_off,,,,,0,0,2,,,1,,,67,64
288840,note_on,,,,,24,0,2,,,1,,,55,58
288912,note_off,,,,,144,0,1,,,0,,,87,64
288912,note_off,,,,,0,0,1,,,0,,,91,64
288936,note_off,,,,,96,0,2,,,1,,,55,64
288960,note_on,,,,,24,0,2,,,1,,,70,58
288960,note_on,,,,,0,0,1,,,0,,,79,58
288960,note_on,,,,,0,0,1,,,0,,,94,58
288960,note_on,,,,,48,0,1,,,0,,,91,58
288960,note_on,,,,,0,0,2,,,1,,,67,58
289056,note_off,,,,,0,0,2,,,1,,,70,64
289056,note_off,,,,,96,0,2,,,1,,,67,64
289080,note_on,,,,,24,0,2,,,1,,,55,58
289176,note_off,,,,,96,0,2,,,1,,,55,64
289200,note_on,,,,,0,0,2,,,1,,,68,58
289200,note_on,,,,,24,0,2,,,1,,,65,58
289248,note_off,,,,,288,0,1,,,0,,,94,64
289248,note_off,,,,,0,0,1,,,0,,,91,64
289296,note_off,,,,,0,0,2,,,1,,,65,64
289296,note_off,,,,,96,0,2,,,1,,,68,64
289320,note_on,,,,,24,0,2,,,1,,,55,58
289320,note_on,,,,,72,0,1,,,0,,,92,58
289320,note_on,,,,,0,0,1,,,0,,,89,58
289416,note_off,,,,,96,0,1,,,0,,,89,64
289416,note_off,,,,,0,0,1,,,0,,,92,64
289416,note_off,,,,,96,0,2,,,1,,,55,64
289440,note_on,,,,,24,0,2,,,1,,,62,58
289440,note_on,,,,,24,0,1,,,0,,,86,58
289440,note_on,,,,,0,0,1,,,0,,,89,58
289440,note_on,,,,,0,0,2,,,1,,,65,58
289536,note_off,,,,,0,0,2,,,1,,,62,64
289536,note_off,,,,,96,0,2,,,1,,,65,64
289560,note_on,,,,,24,0,2,,,1,,,55,58
289632,note_off,,,,,192,0,1,,,0,,,89,64
289632,note_off,,,,,0,0,1,,,0,,,86,64
289656,note_off,,,,,96,0,2,,,1,,,55,64
289680,note_on,,,,,48,0,1,,,0,,,92,58
289680,note_on,,,,,0,0,2,,,1,,,65,58
289680,note_on,,,,,0,0,1,,,0,,,89,58
289680,note_on,,,,,24,0,2,,,1,,,68,58
289728,note_off,,,,,48,0,1,,,0,,,79,64
289776,note_off,,,,,96,0,2,,,1,,,65,64
289776,note_off,,,,,0,0,2,,,1,,,68,64
289800,note_on,,,,,24,0,2,,,1,,,55,58
289872,note_off,,,,,0,0,1,,,0,,,92,64
289872,note_off,,,,,144,0,1,,,0,,,89,64
289896,note_off,,,,,96,0,2,,,1,,,55,64
289920,note_on,,,,,0,0,1,,,0,,,79,58
289920,note_on,,,,,24,0,2,,,1,,,63,58
289920,note_on,,,,,0,0,2,,,1,,,67,58
289920,note_on,,,,,0,0,1,,,0,,,91,58
289920,note_on,,,,,48,0,1,,,0,,,87,58
290016,note_off,,,,,96,0,2,,,1,,,67,64
290016,note_off,,,,,0,0,2,,,1,,,63,64
290040,note_on,,,,,24,0,2,,,1,,,55,58
290112,note_off,,,,,192,0,1,,,0,,,91,64
290112,note_off,,,,,0,0,1,,,0,,,87,64
290136,note_off,,,,,96,0,2,,,1,,,55,64
290160,note_on,,,,,0,0,2,,,1,,,60,58
290160,note_on,,,,,24,0,2,,,1,,,63,58
290160,note_on,,,,,0,0,1,,,0,,,87,58
290160,note_on,,,,,48,0,1,,,0,,,84,58
290256,note_off,,,,,96,0,2,,,1,,,60,64
290256,note_off,,,,,0,0,2,,,1,,,63,64
290280,note_on,,,,,24,0,2,,,1,,,55,58
290352,note_off,,,,,0,0,1,,,0,,,84,64
290352,note_off,,,,,192,0,1,,,0,,,87,64
290376,note_off,,,,,96,0,2,,,1,,,55,64
290400,note_on,,,,,0,0,1,,,0,,,89,58
290400,note_on,,,,,48,0,1,,,0,,,86,58
290400,note_on,,,,,24,0,2,,,1,,,65,58
290400,note_on,,,,,0,0,2,,,1,,,62,58
290496,note_off,,,,,96,0,2,,,1,,,62,64
290496,note_off,,,,,0,0,2,,,1,,,65,64
290520,note_on,,,,,24,0,2,,,1,,,55,58
290592,note_off,,,,,0,0,1,,,0,,,86,64
290592,note_off,,,,,192,0,1,,,0,,,89,64
290616,note_off,,,,,96,0,2,,,1,,,55,64
290640,note_on,,,,,0,0,1,,,0,,,83,58
290640,note_on,,,,,24,0,2,,,1,,,62,58
290640,note_on,,,,,48,0,1,,,0,,,86,58
290640,note_on,,,,,0,0,2,,,1,,,59,58
290688,note_off,,,,,48,0,1,,,0,,,79,64
290736,note_off,,,,,96,0,2,,,1,,,59,64
290736,note_off,,,,,0,0,2,,,1,,,62,64
290760,note_on,,,,,24,0,2,,,1,,,55,58
290832,note_off,,,,,0,0,1,,,0,,,86,64
290832,note_off,,,,,144,0,1,,,0,,,83,64
290856,note_off,,,,,96,0,2,,,1,,,55,64
290880,note_on,,,,,0,0,1,,,0,,,79,58
290880,note_on,,,,,48,0,1,,,0,,,84,58
290880,note_on,,,,,0,0,1,,,0,,,87,58
290880,note_on,,,,,0,0,2,,,1,,,60,58
290880,note_on,,,,,24,0,2,,,1,,,63,58
290976,note_off,,,,,96,0,2,,,1,,,60,64
290976,note_off,,,,,0,0,2,,,1,,,63,64
291000,note_on,,,,,24,0,2,,,1,,,55,58
291072,note_off,,,,,192,0,1,,,0,,,87,64
291072,note_off,,,,,0,0,1,,,0,,,84,64
291096,note_off,,,,,96,0,2,,,1,,,55,64
291120,note_on,,,,,0,0,2,,,1,,,60,58
291120,note_on,,,,,0,0,1,,,0,,,81,58
291120,note_on,,,,,48,0,1,,,0,,,84,58
291120,note_on,,,,,24,0,2,,,1,,,57,58
291216,note_off,,,,,96,0,2,,,1,,,60,64
291216,note_off,,,,,0,0,2,,,1,,,57,64
291240,note_on,,,,,24,0,2,,,1,,,55,58
291312,note_off,,,,,0,0,1,,,0,,,84,64
291312,note_off,,,,,192,0,1,,,0,,,81,64
291336,note_off,,,,,96,0,2,,,1,,,55,64
291360,note_on,,,,,0,0,2,,,1,,,59,58
291360,note_on,,,,,48,0,1,,,0,,,86,58
291360,note_on,,,,,0,0,1,,,0,,,83,58
291360,note_on,,,,,24,0,2,,,1,,,62,58
291456,note_off,,,,,96,0,2,,,1,,,59,64
291456,note_off,,,,,0,0,2,,,1,,,62,64
291480,note_on,,,,,24,0,2,,,1,,,55,58
291552,note_off,,,,,192,0,1,,,0,,,83,64
291552,note_off,,,,,0,0,1,,,0,,,86,64
291576,note_off,,,,,96,0,2,,,1,,,55,64
291600,note_on,,,,,48,0,1,,,0,,,79,58
291600,note_on,,,,,24,0,2,,,1,,,59,58
291648,note_off,,,,,48,0,1,,,0,,,79,64
291696,note_off,,,,,96,0,2,,,1,,,59,64
291720,note_on,,,,,24,0,2,,,1,,,55,58
291792,note_off,,,,,144,0,1,,,0,,,79,64
291816,note_off,,,,,96,0,2,,,1,,,55,64
291840,note_on,,,,,24,0,2,,,1,,,63,58
291936,note_off,,,,,96,0,2,,,1,,,63,64
291960,note_on,,,,,168,0,1,,,0,,,67,58
291960,note_on,,,,,24,0,2,,,1,,,60,58
292056,note_off,,,,,96,0,1,,,0,,,67,64
292056,note_off,,,,,96,0,2,,,1,,,60,64
292080,note_on,,,,,24,0,1,,,0,,,72,58
292080,note_on,,,,,24,0,2,,,1,,,55,58
292176,note_off,,,,,96,0,1,,,0,,,72,64
292176,note_off,,,,,96,0,2,,,1,,,55,64
292200,note_on,,,,,24,0,1,,,0,,,79,58
292200,note_on,,,,,24,0,2,,,1,,,51,58
292296,note_off,,,,,96,0,1,,,0,,,79,64
292296,note_off,,,,,96,0,2,,,1,,,51,64
292320,note_on,,,,,24,0,2,,,1,,,63,58
292416,note_off,,,,,96,0,2,,,1,,,63,64
292440,note_on,,,,,24,0,2,,,1,,,60,58
292440,note_on,,,,,144,0,1,,,0,,,67,58
292536,note_off,,,,,96,0,1,,,0,,,67,64
292536,note_off,,,,,96,0,2,,,1,,,60,64
292560,note_on,,,,,24,0,1,,,0,,,74,58
292560,note_on,,,,,24,0,2,,,1,,,55,58
292656,note_off,,,,,96,0,1,,,0,,,74,64
292656,note_off,,,,,96,0,2,,,1,,,55,64
292680,note_on,,,,,24,0,2,,,1,,,51,58
292680,note_on,,,,,24,0,1,,,0,,,79,58
292776,note_off,,,,,96,0,1,,,0,,,79,64
292776,note_off,,,,,96,0,2,,,1,,,51,64
292800,note_on,,,,,24,0,2,,,1,,,65,58
292896,note_off,,,,,96,0,2,,,1,,,65,64
292920,note_on,,,,,144,0,1,,,0,,,72,58
292920,note_on,,,,,24,0,2,,,1,,,60,58
293016,note_off,,,,,96,0,1,,,0,,,72,64
293016,note_off,,,,,96,0,2,,,1,,,60,64
293040,note_on,,,,,24,0,1,,,0,,,75,58
293040,note_on,,,,,24,0,2,,,1,,,56,58
293136,note_off,,,,,96,0,1,,,0,,,75,64
293136,note_off,,,,,96,0,2,,,1,,,56,64
293160,note_on,,,,,24,0,1,,,0,,,80,58
293160,note_on,,,,,24,0,2,,,1,,,53,58
293256,note_off,,,,,96,0,2,,,1,,,53,64
293256,note_off,,,,,96,0,1,,,0,,,80,64
293280,note_on,,,,,24,0,2,,,1,,,65,58
293376,note_off,,,,,96,0,2,,,1,,,65,64
293400,note_on,,,,,144,0,1,,,0,,,68,58
293400,note_on,,,,,24,0,2,,,1,,,60,58
293496,note_off,,,,,96,0,1,,,0,,,68,64
293496,note_off,,,,,96,0,2,,,1,,,60,64
293520,note_on,,,,,24,0,2,,,1,,,56,58
293520,note_on,,,,,24,0,1,,,0,,,74,58
293616,note_off,,,,,96,0,2,,,1,,,56,64
293616,note_off,,,,,96,0,1,,,0,,,74,64
293640,note_on,,,,,24,0,1,,,0,,,80,58
293640,note_on,,,,,24,0,2,,,1,,,53,58
293736,note_off,,,,,96,0,2,,,1,,,53,64
293736,note_off,,,,,96,0,1,,,0,,,80,64
293760,note_on,,,,,24,0,2,,,1,,,65,58
293856,note_off,,,,,96,0,2,,,1,,,65,64
293880,note_on,,,,,144,0,1,,,0,,,72,58
293880,note_on,,,,,24,0,2,,,1,,,62,58
293976,note_off,,,,,96,0,1,,,0,,,72,64
293976,note_off,,,,,96,0,2,,,1,,,62,64
294000,note_on,,,,,24,0,1,,,0,,,80,58
294000,note_on,,,,,24,0,2,,,1,,,60,58
294096,note_off,,,,,96,0,2,,,1,,,60,64
294096,note_off,,,,,96,0,1,,,0,,,80,64
294120,note_on,,,,,24,0,1,,,0,,,86,58
294120,note_on,,,,,24,0,2,,,1,,,55,58
294216,note_off,,,,,96,0,1,,,0,,,86,64
294216,note_off,,,,,96,0,2,,,1,,,55,64
294240,note_on,,,,,24,0,2,,,1,,,65,58
294336,note_off,,,,,96,0,2,,,1,,,65,64
294360,note_on,,,,,144,0,1,,,0,,,71,58
294360,note_on,,,,,24,0,2,,,1,,,62,58
294456,note_off,,,,,96,0,1,,,0,,,71,64
294456,note_off,,,,,96,0,2,,,1,,,62,64
294480,note_on,,,,,24,0,2,,,1,,,59,58
294480,note_on,,,,,24,0,1,,,0,,,79,58
294576,note_off,,,,,96,0,1,,,0,,,79,64
294576,note_off,,,,,96,0,2,,,1,,,59,64
294600,note_on,,,,,24,0,1,,,0,,,86,58
294600,note_on,,,,,24,0,2,,,1,,,55,58
294696,note_off,,,,,96,0,2,,,1,,,55,64
294696,note_off,,,,,96,0,1,,,0,,,86,64
294720,note_on,,,,,24,0,2,,,1,,,72,58
294816,note_off,,,,,96,0,2,,,1,,,72,64
294840,note_on,,,,,24,0,2,,,1,,,67,58
294840,note_on,,,,,144,0,1,,,0,,,77,58
294936,note_off,,,,,96,0,1,,,0,,,77,64
294936,note_off,,,,,96,0,2,,,1,,,67,64
294960,note_on,,,,,24,0,2,,,1,,,65,58
294960,note_on,,,,,24,0,1,,,0,,,86,58
295056,note_off,,,,,96,0,2,,,1,,,65,64
295056,note_off,,,,,96,0,1,,,0,,,86,64
295080,note_on,,,,,24,0,2,,,1,,,60,58
295080,note_on,,,,,24,0,1,,,0,,,91,58
295176,note_off,,,,,96,0,1,,,0,,,91,64
295176,note_off,,,,,96,0,2,,,1,,,60,64
295200,note_on,,,,,24,0,2,,,1,,,72,58
295296,note_off,,,,,96,0,2,,,1,,,72,64
295320,note_on,,,,,24,0,2,,,1,,,67,58
295320,note_on,,,,,144,0,1,,,0,,,75,58
295416,note_off,,,,,96,0,2,,,1,,,67,64
295416,note_off,,,,,96,0,1,,,0,,,75,64
295440,note_on,,,,,24,0,2,,,1,,,63,58
295440,note_on,,,,,24,0,1,,,0,,,84,58
295536,note_off,,,,,96,0,1,,,0,,,84,64
295536,note_off,,,,,96,0,2,,,1,,,63,64
295560,note_on,,,,,24,0,1,,,0,,,91,58
295560,note_on,,,,,24,0,2,,,1,,,60,58
295656,note_off,,,,,96,0,1,,,0,,,91,64
295656,note_off,,,,,96,0,2,,,1,,,60,64
295680,note_on,,,,,24,0,2,,,1,,,41,58
295776,note_off,,,,,96,0,2,,,1,,,41,64
295800,note_on,,,,,24,0,2,,,1,,,53,58
295896,note_off,,,,,96,0,2,,,1,,,53,64
295920,note_on,,,,,0,0,1,,,0,,,74,58
295920,note_on,,,,,0,0,1,,,0,,,72,58
295920,note_on,,,,,264,0,1,,,0,,,68,58
295920,note_on,,,,,24,0,2,,,1,,,56,58
296016,note_off,,,,,96,0,2,,,1,,,56,64
296040,note_on,,,,,0,0,2,,,1,,,56,58
296040,note_on,,,,,24,0,2,,,1,,,60,58
296160,note_on,,,,,120,0,2,,,1,,,65,58
296208,note_off,,,,,0,0,1,,,0,,,68,64
296208,note_off,,,,,0,0,1,,,0,,,72,64
296208,note_off,,,,,288,0,1,,,0,,,74,64
296220,note_on,,,,,12,0,1,,,0,,,75,58
296268,note_off,,,,,48,0,1,,,0,,,75,64
296280,note_on,,,,,12,0,1,,,0,,,74,58
296328,note_off,,,,,48,0,1,,,0,,,74,64
296340,note_on,,,,,12,0,1,,,0,,,72,58
296388,note_off,,,,,48,0,1,,,0,,,72,64
296400,note_on,,,,,12,0,1,,,0,,,74,58
296448,note_off,,,,,48,0,1,,,0,,,74,64
296460,note_on,,,,,12,0,1,,,0,,,75,58
296508,note_off,,,,,48,0,1,,,0,,,75,64
296520,note_on,,,,,12,0,1,,,0,,,77,58
296568,note_off,,,,,48,0,1,,,0,,,77,64
296580,note_on,,,,,12,0,1,,,0,,,79,58
296628,note_off,,,,,48,0,1,,,0,,,79,64
296640,note_on,,,,,12,0,1,,,0,,,82,110
296832,note_off,,,,,192,0,1,,,0,,,82,64
296880,note_on,,,,,48,0,1,,,0,,,80,58
297024,note_off,,,,,864,0,2,,,1,,,56,64
297024,note_off,,,,,0,0,2,,,1,,,65,64
297024,note_off,,,,,0,0,2,,,1,,,60,64
297072,note_off,,,,,192,0,1,,,0,,,80,64
297600,note_on,,,,,576,0,2,,,1,,,41,71
297696,note_off,,,,,96,0,2,,,1,,,41,64
297720,note_on,,,,,24,0,2,,,1,,,53,71
297816,note_off,,,,,96,0,2,,,1,,,53,64
297840,note_on,,,,,0,0,1,,,0,,,74,71
297840,note_on,,,,,0,0,1,,,0,,,71,71
297840,note_on,,,,,768,0,1,,,0,,,68,71
297840,note_on,,,,,24,0,2,,,1,,,56,71
297936,note_off,,,,,96,0,2,,,1,,,56,64
297960,note_on,,,,,24,0,2,,,1,,,56,71
297960,note_on,,,,,0,0,2,,,1,,,59,71
298032,note_off,,,,,0,0,1,,,0,,,68,64
298032,note_off,,,,,192,0,1,,,0,,,74,64
298032,note_off,,,,,0,0,1,,,0,,,71,64
298080,note_on,,,,,120,0,2,,,1,,,62,71
298080,note_on,,,,,48,0,1,,,0,,,68,71
298080,note_on,,,,,0,0,1,,,0,,,74,71
298080,note_on,,,,,0,0,1,,,0,,,71,71
298128,note_off,,,,,48,0,1,,,0,,,71,64
298128,note_off,,,,,0,0,1,,,0,,,74,64
298128,note_off,,,,,0,0,1,,,0,,,68,64
298140,note_on,,,,,12,0,1,,,0,,,75,71
298188,note_off,,,,,48,0,1,,,0,,,75,64
298200,note_on,,,,,12,0,1,,,0,,,74,71
298248,note_off,,,,,48,0,1,,,0,,,74,64
298260,note_on,,,,,12,0,1,,,0,,,73,71
298308,note_off,,,,,48,0,1,,,0,,,73,64
298320,note_on,,,,,12,0,1,,,0,,,74,71
298368,note_off,,,,,48,0,1,,,0,,,74,64
298380,note_on,,,,,12,0,1,,,0,,,75,71
298428,note_off,,,,,48,0,1,,,0,,,75,64
298440,note_on,,,,,12,0,1,,,0,,,77,71
298488,note_off,,,,,48,0,1,,,0,,,77,64
298500,note_on,,,,,12,0,1,,,0,,,79,71
298548,note_off,,,,,48,0,1,,,0,,,79,64
298560,note_on,,,,,12,0,1,,,0,,,82,71
298752,note_off,,,,,672,0,2,,,1,,,62,64
298752,note_off,,,,,0,0,2,,,1,,,56,64
298752,note_off,,,,,0,0,2,,,1,,,59,64
298752,note_off,,,,,192,0,1,,,0,,,82,64
298800,note_on,,,,,48,0,1,,,0,,,80,71
298913,note_off,,,,,113,0,1,,,0,,,80,64
299040,note_on,,,,,127,0,1,,,0,,,77,71
299040,note_on,,,,,0,0,1,,,0,,,61,71
299040,note_on,,,,,0,0,1,,,0,,,87,71
299040,note_on,,,,,0,0,1,,,0,,,71,71
299040,note_on,,,,,0,0,1,,,0,,,68,71
299232,note_off,,,,,192,0,1,,,0,,,87,64
299280,note_on,,,,,48,0,1,,,0,,,85,71
299328,note_off,,,,,0,0,1,,,0,,,68,64
299328,note_off,,,,,48,0,1,,,0,,,61,64
299328,note_off,,,,,0,0,1,,,0,,,71,64
299376,note_off,,,,,0,0,1,,,0,,,77,64
299376,note_off,,,,,48,0,1,,,0,,,85,64
300000,note_on,,,,,1248,0,2,,,1,,,46,71
300048,note_off,,,,,48,0,2,,,1,,,46,64
300060,note_on,,,,,12,0,2,,,1,,,47,71
300108,note_off,,,,,48,0,2,,,1,,,47,64
300120,note_on,,,,,12,0,2,,,1,,,46,71
300168,note_off,,,,,48,0,2,,,1,,,46,64
300180,note_on,,,,,12,0,2,,,1,,,45,71
300228,note_off,,,,,48,0,2,,,1,,,45,64
300240,note_on,,,,,12,0,2,,,1,,,46,71
300288,note_off,,,,,48,0,2,,,1,,,46,64
300300,note_on,,,,,12,0,2,,,1,,,49,71
300348,note_off,,,,,48,0,2,,,1,,,49,64
300360,note_on,,,,,12,0,2,,,1,,,54,71
300408,note_off,,,,,48,0,2,,,1,,,54,64
300420,note_on,,,,,12,0,2,,,1,,,58,71
300468,note_off,,,,,48,0,2,,,1,,,58,64
300480,note_on,,,,,12,0,2,,,1,,,61,71
300480,note_on,,,,,0,0,2,,,1,,,59,71
300480,note_on,,,,,0,0,1,,,0,,,65,71
300480,note_on,,,,,1104,0,1,,,0,,,75,71
300528,note_off,,,,,48,0,1,,,0,,,65,64
300540,note_on,,,,,12,0,1,,,0,,,66,71
300588,note_off,,,,,48,0,1,,,0,,,66,64
300600,note_on,,,,,12,0,1,,,0,,,65,71
300648,note_off,,,,,48,0,1,,,0,,,65,64
300660,note_on,,,,,12,0,1,,,0,,,64,71
300672,note_off,,,,,12,0,1,,,0,,,75,64
300708,note_off,,,,,36,0,1,,,0,,,64,64
300720,note_on,,,,,12,0,1,,,0,,,73,71
300720,note_on,,,,,0,0,1,,,0,,,65,71
300768,note_off,,,,,48,0,1,,,0,,,65,64
300768,note_off,,,,,288,0,2,,,1,,,59,64
300768,note_off,,,,,0,0,2,,,1,,,61,64
300780,note_on,,,,,12,0,1,,,0,,,68,71
300816,note_off,,,,,36,0,1,,,0,,,73,64
300828,note_off,,,,,12,0,1,,,0,,,68,64
300840,note_on,,,,,12,0,1,,,0,,,71,71
300888,note_off,,,,,48,0,1,,,0,,,71,64
300900,note_on,,,,,12,0,1,,,0,,,74,71
300948,note_off,,,,,48,0,1,,,0,,,74,64
300960,note_on,,,,,192,0,2,,,1,,,58,71
300960,note_on,,,,,12,0,1,,,0,,,87,71
300960,note_on,,,,,0,0,1,,,0,,,78,71
301008,note_off,,,,,48,0,2,,,1,,,58,64
301020,note_on,,,,,12,0,2,,,1,,,59,71
301068,note_off,,,,,48,0,2,,,1,,,59,64
301080,note_on,,,,,12,0,2,,,1,,,58,71
301128,note_off,,,,,48,0,2,,,1,,,58,64
301140,note_on,,,,,12,0,2,,,1,,,57,71
301152,note_off,,,,,192,0,1,,,0,,,87,64
301188,note_off,,,,,48,0,2,,,1,,,57,64
301200,note_on,,,,,48,0,1,,,0,,,85,71
301200,note_on,,,,,12,0,2,,,1,,,58,71
301248,note_off,,,,,48,0,2,,,1,,,58,64
301248,note_off,,,,,48,0,1,,,0,,,78,64
301260,note_on,,,,,12,0,2,,,1,,,61,71
301296,note_off,,,,,48,0,1,,,0,,,85,64
301308,note_off,,,,,48,0,2,,,1,,,61,64
301320,note_on,,,,,12,0,2,,,1,,,66,71
301368,note_off,,,,,48,0,2,,,1,,,66,64
301380,note_on,,,,,12,0,2,,,1,,,70,71
301428,note_off,,,,,48,0,2,,,1,,,70,64
301440,note_on,,,,,144,0,1,,,0,,,77,71
301440,note_on,,,,,12,0,2,,,1,,,73,71
301440,note_on,,,,,0,0,2,,,1,,,71,71
301440,note_on,,,,,0,0,1,,,0,,,87,71
301488,note_off,,,,,48,0,1,,,0,,,77,64
301500,note_on,,,,,12,0,1,,,0,,,78,71
301548,note_off,,,,,48,0,1,,,0,,,78,64
301560,note_on,,,,,12,0,1,,,0,,,77,71
301608,note_off,,,,,48,0,1,,,0,,,77,64
301620,note_on,,,,,12,0,1,,,0,,,76,71
301632,note_off,,,,,12,0,1,,,0,,,87,64
301668,note_off,,,,,36,0,1,,,0,,,76,64
301680,note_on,,,,,12,0,1,,,0,,,77,71
301680,note_on,,,,,0,0,1,,,0,,,85,71
301728,note_off,,,,,0,0,2,,,1,,,73,64
301728,note_off,,,,,288,0,2,,,1,,,71,64
301728,note_off,,,,,48,0,1,,,0,,,77,64
301740,note_on,,,,,12,0,1,,,0,,,80,71
301776,note_off,,,,,36,0,1,,,0,,,85,64
301788,note_off,,,,,12,0,1,,,0,,,80,64
301800,note_on,,,,,12,0,1,,,0,,,83,71
301848,note_off,,,,,48,0,1,,,0,,,83,64
301860,note_on,,,,,12,0,1,,,0,,,86,71
301908,note_off,,,,,48,0,1,,,0,,,86,64
301920,note_on,,,,,192,0,2,,,1,,,83,71
301920,note_on,,,,,12,0,1,,,0,,,99,71
301920,note_on,,,,,0,0,1,,,0,,,89,71
301968,note_off,,,,,48,0,2,,,1,,,83,64
301980,note_on,,,,,12,0,2,,,1,,,80,71
302028,note_off,,,,,48,0,2,,,1,,,80,64
302040,note_on,,,,,12,0,2,,,1,,,77,71
302088,note_off,,,,,48,0,2,,,1,,,77,64
302100,note_on,,,,,12,0,2,,,1,,,73,71
302112,note_off,,,,,192,0,1,,,0,,,99,64
302148,note_off,,,,,48,0,2,,,1,,,73,64
302160,note_on,,,,,12,0,2,,,1,,,71,71
302160,note_on,,,,,48,0,1,,,0,,,97,71
302208,note_off,,,,,48,0,1,,,0,,,89,64
302208,note_off,,,,,48,0,2,,,1,,,71,64
302220,note_on,,,,,12,0,2,,,1,,,68,71
302268,note_off,,,,,48,0,2,,,1,,,68,64
302280,note_on,,,,,12,0,2,,,1,,,65,71
302328,note_off,,,,,48,0,2,,,1,,,65,64
302340,note_on,,,,,12,0,2,,,1,,,59,71
302388,note_off,,,,,48,0,2,,,1,,,59,64
302400,note_on,,,,,12,0,2,,,1,,,60,71
302496,note_off,,,,,288,0,1,,,0,,,97,64
302520,note_on,,,,,24,0,1,,,0,,,96,71
302616,note_off,,,,,96,0,1,,,0,,,96,64
302640,note_on,,,,,24,0,1,,,0,,,95,71
302736,note_off,,,,,96,0,1,,,0,,,95,64
302760,note_on,,,,,24,0,1,,,0,,,94,71
302856,note_off,,,,,96,0,1,,,0,,,94,64
302880,note_on,,,,,480,0,2,,,1,,,65,71
302880,note_on,,,,,0,0,2,,,1,,,56,71
302880,note_on,,,,,24,0,1,,,0,,,93,71
302976,note_off,,,,,96,0,1,,,0,,,93,64
303000,note_on,,,,,24,0,1,,,0,,,92,71
303096,note_off,,,,,96,0,1,,,0,,,92,64
303120,note_on,,,,,24,0,1,,,0,,,91,71
303216,note_off,,,,,96,0,1,,,0,,,91,64
303240,note_on,,,,,24,0,1,,,0,,,90,71
303264,note_off,,,,,384,0,2,,,1,,,56,64
303264,note_off,,,,,0,0,2,,,1,,,65,64
303336,note_off,,,,,96,0,1,,,0,,,90,64
303360,note_on,,,,,0,0,2,,,1,,,55,71
303360,note_on,,,,,24,0,1,,,0,,,89,71
303360,note_on,,,,,96,0,2,,,1,,,67,71
303456,note_off,,,,,96,0,1,,,0,,,89,64
303480,note_on,,,,,24,0,1,,,0,,,88,71
303576,note_off,,,,,96,0,1,,,0,,,88,64
303600,note_on,,,,,24,0,1,,,0,,,87,71
303696,note_off,,,,,96,0,1,,,0,,,87,64
303720,note_on,,,,,24,0,1,,,0,,,86,71
303744,note_off,,,,,384,0,2,,,1,,,55,64
303744,note_off,,,,,0,0,2,,,1,,,67,64
303816,note_off,,,,,96,0,1,,,0,,,86,64
303840,note_on,,,,,96,0,2,,,1,,,68,71
303840,note_on,,,,,0,0,2,,,1,,,53,71
303840,note_on,,,,,24,0,1,,,0,,,85,71
303936,note_off,,,,,96,0,1,,,0,,,85,64
303960,note_on,,,,,24,0,1,,,0,,,84,71
304056,note_off,,,,,96,0,1,,,0,,,84,64
304080,note_on,,,,,24,0,1,,,0,,,83,71
304176,note_off,,,,,96,0,1,,,0,,,83,64
304200,note_on,,,,,24,0,1,,,0,,,82,71
304296,note_off,,,,,96,0,1,,,0,,,82,64
304320,note_on,,,,,24,0,1,,,0,,,81,71
304416,note_off,,,,,96,0,1,,,0,,,81,64
304440,note_on,,,,,24,0,1,,,0,,,80,71
304536,note_off,,,,,96,0,1,,,0,,,80,64
304560,note_on,,,,,24,0,1,,,0,,,79,71
304656,note_off,,,,,96,0,1,,,0,,,79,64
304680,note_on,,,,,24,0,1,,,0,,,78,71
304704,note_off,,,,,0,0,2,,,1,,,68,64
304704,note_off,,,,,864,0,2,,,1,,,53,64
304776,note_off,,,,,96,0,1,,,0,,,78,64
304800,note_on,,,,,0,0,2,,,1,,,56,71
304800,note_on,,,,,96,0,2,,,1,,,65,71
304800,note_on,,,,,24,0,1,,,0,,,77,71
304896,note_off,,,,,96,0,1,,,0,,,77,64
304920,note_on,,,,,24,0,1,,,0,,,76,71
305016,note_off,,,,,96,0,1,,,0,,,76,64
305040,note_on,,,,,24,0,1,,,0,,,75,71
305088,note_off,,,,,288,0,2,,,1,,,60,64
305136,note_off,,,,,96,0,1,,,0,,,75,64
305160,note_on,,,,,24,0,1,,,0,,,74,71
305184,note_off,,,,,96,0,2,,,1,,,56,64
305184,note_off,,,,,0,0,2,,,1,,,65,64
305256,note_off,,,,,96,0,1,,,0,,,74,64
305280,note_on,,,,,96,0,2,,,1,,,63,71
305280,note_on,,,,,0,0,2,,,1,,,55,71
305280,note_on,,,,,0,0,2,,,1,,,60,71
305520,note_on,,,,,264,0,1,,,0,,,75,71
305664,note_off,,,,,0,0,2,,,1,,,60,64
305664,note_off,,,,,384,0,2,,,1,,,55,64
305664,note_off,,,,,0,0,2,,,1,,,63,64
305712,note_off,,,,,192,0,1,,,0,,,75,64
305760,note_on,,,,,48,0,1,,,0,,,78,71
305952,note_off,,,,,192,0,1,,,0,,,78,64
306000,note_on,,,,,48,0,1,,,0,,,84,71
306192,note_off,,,,,192,0,1,,,0,,,84,64
306240,note_on,,,,,576,0,2,,,1,,,55,71
306240,note_on,,,,,0,0,2,,,1,,,59,71
306240,note_on,,,,,0,0,2,,,1,,,62,71
306480,note_on,,,,,240,0,2,,,1,,,68,71
306480,note_on,,,,,288,0,1,,,0,,,80,71
306624,note_off,,,,,0,0,2,,,1,,,55,64
306624,note_off,,,,,0,0,2,,,1,,,59,64
306624,note_off,,,,,144,0,2,,,1,,,62,64
306672,note_off,,,,,192,0,1,,,0,,,80,64
306672,note_off,,,,,48,0,2,,,1,,,68,64
306720,note_on,,,,,48,0,1,,,0,,,79,71
306720,note_on,,,,,48,0,2,,,1,,,67,71
306912,note_off,,,,,192,0,1,,,0,,,79,64
306912,note_off,,,,,192,0,2,,,1,,,67,64
306960,note_on,,,,,48,0,2,,,1,,,59,71
306960,note_on,,,,,48,0,1,,,0,,,71,71
307152,note_off,,,,,192,0,1,,,0,,,71,64
307152,note_off,,,,,192,0,2,,,1,,,59,64
307200,note_on,,,,,0,0,1,,,0,,,84,58
307200,note_on,,,,,48,0,1,,,0,,,80,58
307200,note_on,,,,,0,0,2,,,1,,,60,58
307200,note_on,,,,,48,0,2,,,1,,,48,58
307296,note_off,,,,,96,0,1,,,0,,,80,64
307320,note_on,,,,,24,0,1,,,0,,,72,58
307416,note_off,,,,,96,0,1,,,0,,,72,64
307440,note_on,,,,,24,0,1,,,0,,,80,58
307536,note_off,,,,,96,0,1,,,0,,,80,64
307560,note_on,,,,,24,0,1,,,0,,,72,58
307584,note_off,,,,,24,0,1,,,0,,,84,64
307584,note_off,,,,,384,0,2,,,1,,,60,64
307584,note_off,,,,,0,0,2,,,1,,,48,64
307656,note_off,,,,,72,0,1,,,0,,,72,64
307680,note_on,,,,,0,0,1,,,0,,,70,58
307680,note_on,,,,,24,0,1,,,0,,,79,58
307680,note_on,,,,,0,0,1,,,0,,,82,58
307680,note_on,,,,,96,0,2,,,1,,,67,58
307776,note_off,,,,,96,0,2,,,1,,,67,64
307800,note_on,,,,,24,0,2,,,1,,,60,58
307872,note_off,,,,,192,0,1,,,0,,,82,64
307872,note_off,,,,,0,0,1,,,0,,,70,64
307872,note_off,,,,,0,0,1,,,0,,,79,64
307896,note_off,,,,,96,0,2,,,1,,,60,64
307920,note_on,,,,,0,0,1,,,0,,,80,58
307920,note_on,,,,,0,0,1,,,0,,,84,58
307920,note_on,,,,,48,0,1,,,0,,,72,58
307920,note_on,,,,,24,0,2,,,1,,,67,58
308016,note_off,,,,,96,0,2,,,1,,,67,64
308040,note_on,,,,,24,0,2,,,1,,,60,58
308112,note_off,,,,,0,0,1,,,0,,,84,64
308112,note_off,,,,,0,0,1,,,0,,,72,64
308112,note_off,,,,,192,0,1,,,0,,,80,64
308136,note_off,,,,,96,0,2,,,1,,,60,64
308160,note_on,,,,,0,0,2,,,1,,,70,58
308160,note_on,,,,,48,0,1,,,0,,,82,58
308160,note_on,,,,,24,0,2,,,1,,,73,58
308160,note_on,,,,,0,0,1,,,0,,,85,58
308256,note_off,,,,,96,0,2,,,1,,,70,64
308256,note_off,,,,,0,0,2,,,1,,,73,64
308280,note_on,,,,,24,0,2,,,1,,,60,58
308376,note_off,,,,,96,0,2,,,1,,,60,64
308400,note_on,,,,,0,0,2,,,1,,,67,58
308400,note_on,,,,,24,0,2,,,1,,,70,58
308448,note_off,,,,,288,0,1,,,0,,,85,64
308448,note_off,,,,,0,0,1,,,0,,,82,64
308496,note_off,,,,,0,0,2,,,1,,,70,64
308496,note_off,,,,,96,0,2,,,1,,,67,64
308520,note_on,,,,,72,0,1,,,0,,,82,58
308520,note_on,,,,,0,0,1,,,0,,,79,58
308520,note_on,,,,,24,0,2,,,1,,,60,58
308616,note_off,,,,,96,0,2,,,1,,,60,64
308616,note_off,,,,,96,0,1,,,0,,,79,64
308616,note_off,,,,,0,0,1,,,0,,,82,64
308640,note_on,,,,,0,0,1,,,0,,,76,58
308640,note_on,,,,,24,0,2,,,1,,,64,58
308640,note_on,,,,,24,0,1,,,0,,,79,58
308640,note_on,,,,,0,0,2,,,1,,,67,58
308736,note_off,,,,,0,0,2,,,1,,,64,64
308736,note_off,,,,,96,0,2,,,1,,,67,64
308760,note_on,,,,,24,0,2,,,1,,,60,58
308832,note_off,,,,,0,0,1,,,0,,,79,64
308832,note_off,,,,,192,0,1,,,0,,,76,64
308856,note_off,,,,,96,0,2,,,1,,,60,64
308880,note_on,,,,,24,0,2,,,1,,,68,58
308880,note_on,,,,,0,0,1,,,0,,,80,58
308880,note_on,,,,,0,0,2,,,1,,,65,58
308880,note_on,,,,,48,0,1,,,0,,,77,58
308976,note_off,,,,,0,0,2,,,1,,,68,64
308976,note_off,,,,,96,0,2,,,1,,,65,64
309000,note_on,,,,,24,0,2,,,1,,,60,58
309072,note_off,,,,,0,0,1,,,0,,,77,64
309072,note_off,,,,,192,0,1,,,0,,,80,64
309096,note_off,,,,,96,0,2,,,1,,,60,64
309120,note_on,,,,,24,0,2,,,1,,,67,58
309120,note_on,,,,,0,0,2,,,1,,,70,58
309120,note_on,,,,,48,0,1,,,0,,,79,58
309120,note_on,,,,,0,0,1,,,0,,,82,58
309216,note_off,,,,,96,0,2,,,1,,,70,64
309216,note_off,,,,,0,0,2,,,1,,,67,64
309240,note_on,,,,,24,0,2,,,1,,,60,58
309312,note_off,,,,,0,0,1,,,0,,,79,64
309312,note_off,,,,,192,0,1,,,0,,,82,64
309336,note_off,,,,,96,0,2,,,1,,,60,64
309360,note_on,,,,,24,0,2,,,1,,,65,58
309360,note_on,,,,,0,0,2,,,1,,,68,58
309360,note_on,,,,,0,0,1,,,0,,,77,58
309360,note_on,,,,,48,0,1,,,0,,,80,58
309456,note_off,,,,,0,0,2,,,1,,,65,64
309456,note_off,,,,,96,0,2,,,1,,,68,64
309480,note_on,,,,,24,0,2,,,1,,,60,58
309552,note_off,,,,,0,0,1,,,0,,,80,64
309552,note_off,,,,,192,0,1,,,0,,,77,64
309576,note_off,,,,,96,0,2,,,1,,,60,64
309600,note_on,,,,,0,0,1,,,0,,,75,58
309600,note_on,,,,,48,0,1,,,0,,,79,58
309600,note_on,,,,,0,0,2,,,1,,,67,58
309600,note_on,,,,,24,0,2,,,1,,,63,58
309696,note_off,,,,,0,0,2,,,1,,,63,64
309696,note_off,,,,,96,0,2,,,1,,,67,64
309720,note_on,,,,,24,0,2,,,1,,,60,58
309792,note_off,,,,,0,0,1,,,0,,,79,64
309792,note_off,,,,,192,0,1,,,0,,,75,64
309816,note_off,,,,,96,0,2,,,1,,,60,64
309840,note_on,,,,,0,0,1,,,0,,,77,58
309840,note_on,,,,,48,0,1,,,0,,,73,58
309840,note_on,,,,,24,0,2,,,1,,,65,58
309840,note_on,,,,,0,0,2,,,1,,,61,58
309936,note_off,,,,,0,0,2,,,1,,,65,64
309936,note_off,,,,,96,0,2,,,1,,,61,64
309960,note_on,,,,,24,0,2,,,1,,,60,58
310032,note_off,,,,,0,0,1,,,0,,,73,64
310032,note_off,,,,,192,0,1,,,0,,,77,64
310056,note_off,,,,,96,0,2,,,1,,,60,64
310080,note_on,,,,,0,0,1,,,0,,,72,58
310080,note_on,,,,,48,0,1,,,0,,,76,58
310080,note_on,,,,,24,0,2,,,1,,,64,58
310176,note_off,,,,,96,0,2,,,1,,,64,64
310200,note_on,,,,,24,0,2,,,1,,,60,58
310296,note_off,,,,,96,0,2,,,1,,,60,64
310320,note_on,,,,,0,0,2,,,1,,,65,58
310320,note_on,,,,,24,0,2,,,1,,,62,58
310368,note_off,,,,,288,0,1,,,0,,,72,64
310368,note_off,,,,,0,0,1,,,0,,,76,64
310416,note_off,,,,,0,0,2,,,1,,,62,64
310416,note_off,,,,,96,0,2,,,1,,,65,64
310440,note_on,,,,,24,0,2,,,1,,,60,58
310440,note_on,,,,,72,0,1,,,0,,,77,58
310440,note_on,,,,,0,0,1,,,0,,,74,58
310536,note_off,,,,,96,0,2,,,1,,,60,64
310536,note_off,,,,,96,0,1,,,0,,,74,64
310536,note_off,,,,,0,0,1,,,0,,,77,64
310560,note_on,,,,,0,0,2,,,1,,,67,58
310560,note_on,,,,,24,0,2,,,1,,,64,58
310560,note_on,,,,,24,0,1,,,0,,,79,58
310560,note_on,,,,,0,0,1,,,0,,,76,58
310656,note_off,,,,,96,0,2,,,1,,,67,64
310656,note_off,,,,,0,0,2,,,1,,,64,64
310680,note_on,,,,,24,0,2,,,1,,,60,58
310752,note_off,,,,,0,0,1,,,0,,,79,64
310752,note_off,,,,,192,0,1,,,0,,,76,64
310776,note_off,,,,,96,0,2,,,1,,,60,64
310800,note_on,,,,,0,0,1,,,0,,,84,58
310800,note_on,,,,,48,0,1,,,0,,,72,58
310992,note_off,,,,,192,0,1,,,0,,,84,64
310992,note_off,,,,,0,0,1,,,0,,,72,64
311040,note_on,,,,,48,0,1,,,0,,,73,71
311040,note_on,,,,,264,0,2,,,1,,,49,71
311040,note_on,,,,,0,0,1,,,0,,,85,71
311069,note_off,,,,,29,0,2,,,1,,,49,64
311070,note_on,,,,,1,0,2,,,1,,,61,71
311142,note_off,,,,,72,0,2,,,1,,,61,64
311280,note_on,,,,,138,0,2,,,1,,,59,71
311376,note_off,,,,,96,0,2,,,1,,,59,64
311400,note_on,,,,,24,0,2,,,1,,,61,71
311424,note_off,,,,,384,0,1,,,0,,,85,64
311496,note_off,,,,,96,0,2,,,1,,,61,64
311520,note_on,,,,,24,0,2,,,1,,,62,71
311520,note_on,,,,,0,0,1,,,0,,,83,71
311520,note_on,,,,,96,0,1,,,0,,,80,71
311616,note_off,,,,,96,0,2,,,1,,,62,64
311640,note_on,,,,,24,0,2,,,1,,,59,71
311712,note_off,,,,,0,0,1,,,0,,,80,64
311712,note_off,,,,,192,0,1,,,0,,,83,64
311736,note_off,,,,,96,0,2,,,1,,,59,64
311760,note_on,,,,,0,0,1,,,0,,,85,71
311760,note_on,,,,,48,0,1,,,0,,,81,71
311760,note_on,,,,,24,0,2,,,1,,,56,71
311808,note_off,,,,,48,0,1,,,0,,,73,64
311856,note_off,,,,,96,0,2,,,1,,,56,64
311880,note_on,,,,,24,0,2,,,1,,,57,71
311952,note_off,,,,,144,0,1,,,0,,,85,64
311952,note_off,,,,,0,0,1,,,0,,,81,64
311976,note_off,,,,,96,0,2,,,1,,,57,64
312000,note_on,,,,,0,0,1,,,0,,,86,71
312000,note_on,,,,,0,0,1,,,0,,,73,71
312000,note_on,,,,,24,0,2,,,1,,,59,71
312000,note_on,,,,,48,0,1,,,0,,,83,71
312096,note_off,,,,,96,0,2,,,1,,,59,64
312120,note_on,,,,,24,0,2,,,1,,,56,71
312216,note_off,,,,,96,0,2,,,1,,,56,64
312240,note_on,,,,,24,0,2,,,1,,,53,71
312288,note_off,,,,,288,0,1,,,0,,,86,64
312288,note_off,,,,,0,0,1,,,0,,,83,64
312336,note_off,,,,,96,0,2,,,1,,,53,64
312360,note_on,,,,,24,0,2,,,1,,,54,71
312360,note_on,,,,,0,0,1,,,0,,,83,71
312360,note_on,,,,,72,0,1,,,0,,,80,71
312456,note_off,,,,,96,0,2,,,1,,,54,64
312456,note_off,,,,,0,0,1,,,0,,,80,64
312456,note_off,,,,,96,0,1,,,0,,,83,64
312480,note_on,,,,,24,0,2,,,1,,,56,71
312480,note_on,,,,,24,0,1,,,0,,,77,71
312480,note_on,,,,,0,0,1,,,0,,,80,71
312576,note_off,,,,,96,0,2,,,1,,,56,64
312576,note_off,,,,,96,0,1,,,0,,,73,64
312600,note_on,,,,,24,0,2,,,1,,,53,71
312672,note_off,,,,,0,0,1,,,0,,,77,64
312672,note_off,,,,,96,0,1,,,0,,,80,64
312696,note_off,,,,,96,0,2,,,1,,,53,64
312720,note_on,,,,,24,0,2,,,1,,,49,71
312720,note_on,,,,,0,0,1,,,0,,,73,71
312720,note_on,,,,,0,0,1,,,0,,,85,71
312720,note_on,,,,,0,0,1,,,0,,,83,71
312720,note_on,,,,,48,0,1,,,0,,,73,71
312816,note_off,,,,,96,0,2,,,1,,,49,64
312912,note_off,,,,,0,0,1,,,0,,,83,64
312912,note_off,,,,,0,0,1,,,0,,,85,64
312912,note_off,,,,,192,0,1,,,0,,,73,64
312912,note_off,,,,,0,0,1,,,0,,,73,64
312960,note_on,,,,,48,0,1,,,0,,,78,104
312960,note_on,,,,,0,0,1,,,0,,,82,104
312960,note_on,,,,,0,0,1,,,0,,,90,104
312960,note_on,,,,,144,0,2,,,1,,,54,104
312984,note_off,,,,,24,0,2,,,1,,,54,64
312990,note_on,,,,,6,0,2,,,1,,,66,104
313062,note_off,,,,,72,0,2,,,1,,,66,64
313200,note_on,,,,,138,0,2,,,1,,,64,104
313296,note_off,,,,,96,0,2,,,1,,,64,64
313320,note_on,,,,,24,0,2,,,1,,,66,104
313344,note_off,,,,,384,0,1,,,0,,,82,64
313344,note_off,,,,,0,0,1,,,0,,,90,64
313416,note_off,,,,,96,0,2,,,1,,,66,64
313440,note_on,,,,,0,0,1,,,0,,,85,104
313440,note_on,,,,,24,0,2,,,1,,,67,104
313440,note_on,,,,,96,0,1,,,0,,,88,104
313536,note_off,,,,,96,0,2,,,1,,,67,64
313560,note_on,,,,,24,0,2,,,1,,,64,104
313632,note_off,,,,,192,0,1,,,0,,,85,64
313632,note_off,,,,,0,0,1,,,0,,,88,64
313656,note_off,,,,,96,0,2,,,1,,,64,64
313680,note_on,,,,,48,0,1,,,0,,,86,104
313680,note_on,,,,,0,0,1,,,0,,,90,104
313680,note_on,,,,,24,0,2,,,1,,,61,104
313728,note_off,,,,,48,0,1,,,0,,,78,64
313776,note_off,,,,,96,0,2,,,1,,,61,64
313800,note_on,,,,,24,0,2,,,1,,,62,104
313872,note_off,,,,,144,0,1,,,0,,,90,64
313872,note_off,,,,,0,0,1,,,0,,,86,64
313896,note_off,,,,,96,0,2,,,1,,,62,64
313920,note_on,,,,,24,0,2,,,1,,,64,104
313920,note_on,,,,,0,0,1,,,0,,,78,104
313920,note_on,,,,,48,0,1,,,0,,,88,104
313920,note_on,,,,,0,0,1,,,0,,,91,104
314016,note_off,,,,,96,0,2,,,1,,,64,64
314040,note_on,,,,,24,0,2,,,1,,,61,104
314136,note_off,,,,,96,0,2,,,1,,,61,64
314160,note_on,,,,,24,0,2,,,1,,,58,104
314208,note_off,,,,,288,0,1,,,0,,,91,64
314208,note_off,,,,,0,0,1,,,0,,,88,64
314256,note_off,,,,,96,0,2,,,1,,,58,64
314280,note_on,,,,,0,0,1,,,0,,,85,104
314280,note_on,,,,,72,0,1,,,0,,,88,104
314280,note_on,,,,,24,0,2,,,1,,,59,104
314376,note_off,,,,,0,0,1,,,0,,,88,64
314376,note_off,,,,,96,0,1,,,0,,,85,64
314376,note_off,,,,,96,0,2,,,1,,,59,64
314400,note_on,,,,,0,0,1,,,0,,,82,104
314400,note_on,,,,,24,0,2,,,1,,,61,104
314400,note_on,,,,,24,0,1,,,0,,,85,104
314496,note_off,,,,,96,0,2,,,1,,,61,64
314496,note_off,,,,,96,0,1,,,0,,,78,64
314520,note_on,,,,,24,0,2,,,1,,,58,104
314592,note_off,,,,,96,0,1,,,0,,,82,64
314592,note_off,,,,,0,0,1,,,0,,,85,64
314616,note_off,,,,,96,0,2,,,1,,,58,64
314640,note_on,,,,,0,0,1,,,0,,,90,104
314640,note_on,,,,,24,0,2,,,1,,,54,104
314640,note_on,,,,,48,0,1,,,0,,,88,104
314640,note_on,,,,,0,0,1,,,0,,,78,104
314736,note_off,,,,,96,0,2,,,1,,,54,64
314832,note_off,,,,,192,0,1,,,0,,,90,64
314832,note_off,,,,,0,0,1,,,0,,,78,64
314832,note_off,,,,,0,0,1,,,0,,,88,64
314880,note_on,,,,,144,0,2,,,1,,,59,104
314880,note_on,,,,,0,0,2,,,1,,,47,104
314880,note_on,,,,,0,0,1,,,0,,,87,104
314880,note_on,,,,,0,0,1,,,0,,,83,104
314880,note_on,,,,,0,0,1,,,0,,,93,104
314880,note_on,,,,,48,0,1,,,0,,,95,104
314976,note_off,,,,,0,0,1,,,0,,,93,64
314976,note_off,,,,,0,0,1,,,0,,,95,64
314976,note_off,,,,,96,0,1,,,0,,,87,64
314976,note_off,,,,,0,0,1,,,0,,,83,64
315120,note_on,,,,,144,0,1,,,0,,,93,104
315120,note_on,,,,,0,0,1,,,0,,,81,104
315216,note_off,,,,,0,0,1,,,0,,,93,64
315216,note_off,,,,,96,0,1,,,0,,,81,64
315240,note_on,,,,,24,0,1,,,0,,,95,104
315240,note_on,,,,,0,0,1,,,0,,,83,104
315264,note_off,,,,,384,0,2,,,1,,,47,64
315264,note_off,,,,,0,0,2,,,1,,,59,64
315336,note_off,,,,,0,0,1,,,0,,,95,64
315336,note_off,,,,,96,0,1,,,0,,,83,64
315360,note_on,,,,,0,0,1,,,0,,,84,104
315360,note_on,,,,,24,0,1,,,0,,,96,104
315360,note_on,,,,,96,0,2,,,1,,,45,104
315360,note_on,,,,,0,0,2,,,1,,,57,104
315456,note_off,,,,,96,0,1,,,0,,,84,64
315456,note_off,,,,,0,0,1,,,0,,,96,64
315480,note_on,,,,,24,0,1,,,0,,,81,104
315480,note_on,,,,,0,0,1,,,0,,,93,104
315552,note_off,,,,,192,0,2,,,1,,,57,64
315552,note_off,,,,,0,0,2,,,1,,,45,64
315576,note_off,,,,,96,0,1,,,0,,,93,64
315576,note_off,,,,,0,0,1,,,0,,,81,64
315600,note_on,,,,,24,0,1,,,0,,,78,104
315600,note_on,,,,,0,0,2,,,1,,,47,104
315600,note_on,,,,,0,0,1,,,0,,,90,104
315600,note_on,,,,,48,0,2,,,1,,,59,104
315696,note_off,,,,,0,0,1,,,0,,,78,64
315696,note_off,,,,,96,0,1,,,0,,,90,64
315720,note_on,,,,,0,0,1,,,0,,,91,104
315720,note_on,,,,,24,0,1,,,0,,,79,104
315792,note_off,,,,,192,0,2,,,1,,,47,64
315792,note_off,,,,,0,0,2,,,1,,,59,64
315816,note_off,,,,,0,0,1,,,0,,,79,64
315816,note_off,,,,,96,0,1,,,0,,,91,64
315840,note_on,,,,,24,0,1,,,0,,,93,104
315840,note_on,,,,,48,0,2,,,1,,,48,104
315840,note_on,,,,,0,0,1,,,0,,,81,104
315840,note_on,,,,,0,0,2,,,1,,,60,104
315936,note_off,,,,,0,0,1,,,0,,,93,64
315936,note_off,,,,,96,0,1,,,0,,,81,64
315960,note_on,,,,,0,0,1,,,0,,,90,104
315960,note_on,,,,,24,0,1,,,0,,,78,104
316056,note_off,,,,,0,0,1,,,0,,,78,64
316056,note_off,,,,,96,0,1,,,0,,,90,64
316080,note_on,,,,,0,0,1,,,0,,,72,104
316080,note_on,,,,,24,0,1,,,0,,,84,104
316128,note_off,,,,,0,0,2,,,1,,,48,64
316128,note_off,,,,,288,0,2,,,1,,,60,64
316176,note_off,,,,,0,0,1,,,0,,,84,64
316176,note_off,,,,,96,0,1,,,0,,,72,64
316200,note_on,,,,,72,0,2,,,1,,,57,104
316200,note_on,,,,,0,0,2,,,1,,,45,104
316200,note_on,,,,,0,0,1,,,0,,,74,104
316200,note_on,,,,,24,0,1,,,0,,,86,104
316296,note_off,,,,,0,0,1,,,0,,,86,64
316296,note_off,,,,,96,0,1,,,0,,,74,64
316296,note_off,,,,,0,0,2,,,1,,,57,64
316296,note_off,,,,,96,0,2,,,1,,,45,64
316320,note_on,,,,,0,0,1,,,0,,,87,104
316320,note_on,,,,,24,0,1,,,0,,,75,104
316320,note_on,,,,,0,0,2,,,1,,,42,104
316320,note_on,,,,,24,0,2,,,1,,,54,104
316416,note_off,,,,,0,0,1,,,0,,,75,64
316416,note_off,,,,,96,0,1,,,0,,,87,64
316440,note_on,,,,,24,0,1,,,0,,,72,104
316440,note_on,,,,,0,0,1,,,0,,,84,104
316512,note_off,,,,,192,0,2,,,1,,,42,64
316512,note_off,,,,,0,0,2,,,1,,,54,64
316536,note_off,,,,,0,0,1,,,0,,,72,64
316536,note_off,,,,,96,0,1,,,0,,,84,64
316560,note_on,,,,,0,0,1,,,0,,,69,104
316560,note_on,,,,,48,0,2,,,1,,,43,104
316560,note_on,,,,,0,0,2,,,1,,,55,104
316560,note_on,,,,,24,0,1,,,0,,,81,104
316656,note_off,,,,,0,0,1,,,0,,,81,64
316656,note_off,,,,,96,0,1,,,0,,,69,64
316680,note_on,,,,,24,0,1,,,0,,,83,104
316680,note_on,,,,,0,0,1,,,0,,,71,104
316752,note_off,,,,,0,0,2,,,1,,,43,64
316752,note_off,,,,,192,0,2,,,1,,,55,64
316776,note_off,,,,,96,0,1,,,0,,,71,64
316776,note_off,,,,,0,0,1,,,0,,,83,64
316800,note_on,,,,,0,0,1,,,0,,,84,104
316800,note_on,,,,,24,0,1,,,0,,,72,104
316800,note_on,,,,,48,0,2,,,1,,,57,104
316800,note_on,,,,,0,0,2,,,1,,,45,104
316896,note_off,,,,,96,0,1,,,0,,,84,64
316896,note_off,,,,,0,0,1,,,0,,,72,64
316920,note_on,,,,,0,0,1,,,0,,,69,104
316920,note_on,,,,,24,0,1,,,0,,,81,104
317016,note_off,,,,,96,0,1,,,0,,,69,64
317016,note_off,,,,,0,0,1,,,0,,,81,64
317040,note_on,,,,,24,0,1,,,0,,,66,104
317040,note_on,,,,,0,0,1,,,0,,,78,104
317088,note_off,,,,,0,0,2,,,1,,,57,64
317088,note_off,,,,,288,0,2,,,1,,,45,64
317136,note_off,,,,,0,0,1,,,0,,,66,64
317136,note_off,,,,,96,0,1,,,0,,,78,64
317160,note_on,,,,,72,0,2,,,1,,,54,104
317160,note_on,,,,,24,0,1,,,0,,,79,104
317160,note_on,,,,,0,0,2,,,1,,,42,104
317160,note_on,,,,,0,0,1,,,0,,,67,104
317256,note_off,,,,,96,0,2,,,1,,,42,64
317256,note_off,,,,,96,0,1,,,0,,,67,64
317256,note_off,,,,,0,0,1,,,0,,,79,64
317256,note_off,,,,,0,0,2,,,1,,,54,64
317280,note_on,,,,,0,0,2,,,1,,,39,104
317280,note_on,,,,,24,0,2,,,1,,,51,104
317280,note_on,,,,,24,0,1,,,0,,,69,104
317280,note_on,,,,,0,0,1,,,0,,,81,104
317376,note_off,,,,,96,0,1,,,0,,,81,64
317376,note_off,,,,,0,0,1,,,0,,,69,64
317400,note_on,,,,,24,0,1,,,0,,,66,104
317400,note_on,,,,,0,0,1,,,0,,,78,104
317472,note_off,,,,,0,0,2,,,1,,,51,64
317472,note_off,,,,,192,0,2,,,1,,,39,64
317496,note_off,,,,,96,0,1,,,0,,,78,64
317496,note_off,,,,,0,0,1,,,0,,,66,64
317520,note_on,,,,,0,0,2,,,1,,,40,104
317520,note_on,,,,,48,0,2,,,1,,,52,104
317640,note_on,,,,,0,0,1,,,0,,,69,104
317640,note_on,,,,,0,0,1,,,0,,,73,104
317640,note_on,,,,,144,0,1,,,0,,,79,104
317640,note_on,,,,,0,0,1,,,0,,,67,104
317712,note_off,,,,,0,0,2,,,1,,,52,64
317712,note_off,,,,,192,0,2,,,1,,,40,64
317736,note_off,,,,,96,0,1,,,0,,,67,64
317736,note_off,,,,,0,0,1,,,0,,,73,64
317736,note_off,,,,,0,0,1,,,0,,,69,64
317736,note_off,,,,,0,0,1,,,0,,,79,64
317760,note_on,,,,,0,0,2,,,1,,,48,104
317760,note_on,,,,,48,0,2,,,1,,,36,104
317880,note_on,,,,,0,0,1,,,0,,,81,104
317880,note_on,,,,,144,0,1,,,0,,,75,104
317880,note_on,,,,,0,0,1,,,0,,,78,104
317880,note_on,,,,,0,0,1,,,0,,,69,104
317952,note_off,,,,,192,0,2,,,1,,,48,64
317952,note_off,,,,,0,0,2,,,1,,,36,64
317976,note_off,,,,,96,0,1,,,0,,,78,64
317976,note_off,,,,,0,0,1,,,0,,,69,64
317976,note_off,,,,,0,0,1,,,0,,,75,64
317976,note_off,,,,,0,0,1,,,0,,,81,64
318000,note_on,,,,,0,0,2,,,1,,,37,104
318000,note_on,,,,,48,0,2,,,1,,,49,104
318120,note_on,,,,,0,0,1,,,0,,,69,104
318120,note_on,,,,,144,0,1,,,0,,,79,104
318120,note_on,,,,,0,0,1,,,0,,,81,104
318120,note_on,,,,,0,0,1,,,0,,,76,104
318192,note_off,,,,,0,0,2,,,1,,,49,64
318192,note_off,,,,,192,0,2,,,1,,,37,64
318216,note_off,,,,,0,0,1,,,0,,,76,64
318216,note_off,,,,,96,0,1,,,0,,,81,64
318216,note_off,,,,,0,0,1,,,0,,,69,64
318216,note_off,,,,,0,0,1,,,0,,,79,64
318240,note_on,,,,,48,0,2,,,1,,,33,104
318240,note_on,,,,,0,0,2,,,1,,,45,104
318360,note_on,,,,,0,0,1,,,0,,,84,104
318360,note_on,,,,,144,0,1,,,0,,,78,104
318360,note_on,,,,,0,0,1,,,0,,,75,104
318360,note_on,,,,,0,0,1,,,0,,,72,104
318432,note_off,,,,,192,0,2,,,1,,,45,64
318432,note_off,,,,,0,0,2,,,1,,,33,64
318456,note_off,,,,,96,0,1,,,0,,,84,64
318456,note_off,,,,,0,0,1,,,0,,,75,64
318456,note_off,,,,,0,0,1,,,0,,,72,64
318456,note_off,,,,,0,0,1,,,0,,,78,64
318480,note_on,,,,,0,0,2,,,1,,,31,104
318480,note_on,,,,,48,0,2,,,1,,,43,104
318600,note_on,,,,,0,0,1,,,0,,,73,104
318600,note_on,,,,,144,0,1,,,0,,,76,104
318600,note_on,,,,,0,0,1,,,0,,,85,104
318600,note_on,,,,,0,0,1,,,0,,,81,104
318624,note_off,,,,,0,0,2,,,1,,,43,64
318624,note_off,,,,,144,0,2,,,1,,,31,64
318660,note_on,,,,,36,0,2,,,1,,,29,104
318689,note_off,,,,,29,0,2,,,1,,,29,64
318690,note_on,,,,,1,0,2,,,1,,,41,104
318696,note_off,,,,,0,0,1,,,0,,,81,64
318696,note_off,,,,,96,0,1,,,0,,,73,64
318696,note_off,,,,,0,0,1,,,0,,,85,64
318696,note_off,,,,,0,0,1,,,0,,,76,64
318714,note_off,,,,,24,0,2,,,1,,,41,64
318720,note_on,,,,,6,0,2,,,1,,,53,116
318720,note_on,,,,,24,0,1,,,0,,,91,116
318720,note_on,,,,,0,0,1,,,0,,,82,116
318720,note_on,,,,,0,0,1,,,0,,,94,116
318720,note_on,,,,,0,0,1,,,0,,,85,116
318720,note_on,,,,,0,0,2,,,1,,,64,116
318720,note_on,,,,,0,0,2,,,1,,,61,116
318720,note_on,,,,,0,0,2,,,1,,,58,116
319104,note_off,,,,,0,0,2,,,1,,,64,64
319104,note_off,,,,,0,0,1,,,0,,,91,64
319104,note_off,,,,,0,0,1,,,0,,,85,64
319104,note_off,,,,,0,0,1,,,0,,,82,64
319104,note_off,,,,,0,0,2,,,1,,,53,64
319104,note_off,,,,,384,0,1,,,0,,,94,64
319104,note_off,,,,,384,0,2,,,1,,,58,64
319104,note_off,,,,,0,0,2,,,1,,,61,64
319200,note_on,,,,,0,0,1,,,0,,,93,116
319200,note_on,,,,,0,0,1,,,0,,,86,116
319200,note_on,,,,,96,0,2,,,1,,,62,116
319200,note_on,,,,,0,0,1,,,0,,,81,116
319200,note_on,,,,,0,0,2,,,1,,,65,116
319200,note_on,,,,,0,0,2,,,1,,,57,116
319200,note_on,,,,,0,0,2,,,1,,,53,116
319200,note_on,,,,,96,0,1,,,0,,,89,116
319392,note_off,,,,,0,0,2,,,1,,,62,64
319392,note_off,,,,,0,0,2,,,1,,,65,64
319392,note_off,,,,,0,0,2,,,1,,,53,64
319392,note_off,,,,,192,0,2,,,1,,,57,64
319392,note_off,,,,,0,0,1,,,0,,,89,64
319392,note_off,,,,,0,0,1,,,0,,,81,64
319392,note_off,,,,,0,0,1,,,0,,,93,64
319392,note_off,,,,,192,0,1,,,0,,,86,64
319560,note_on,,,,,168,0,2,,,1,,,29,116
319560,note_on,,,,,0,0,1,,,0,,,73,116
319560,note_on,,,,,168,0,1,,,0,,,85,116
319608,note_off,,,,,48,0,2,,,1,,,29,64
319620,note_on,,,,,12,0,2,,,1,,,41,116
319656,note_off,,,,,96,0,1,,,0,,,73,64
319656,note_off,,,,,0,0,1,,,0,,,85,64
319668,note_off,,,,,48,0,2,,,1,,,41,64
319680,note_on,,,,,24,0,1,,,0,,,82,116
319680,note_on,,,,,0,0,1,,,0,,,85,116
319680,note_on,,,,,0,0,1,,,0,,,94,116
319680,note_on,,,,,0,0,2,,,1,,,53,116
319680,note_on,,,,,0,0,2,,,1,,,58,116
319680,note_on,,,,,0,0,2,,,1,,,61,116
319680,note_on,,,,,12,0,2,,,1,,,64,116
319680,note_on,,,,,0,0,1,,,0,,,91,116
320064,note_off,,,,,384,0,2,,,1,,,53,64
320064,note_off,,,,,0,0,2,,,1,,,61,64
320064,note_off,,,,,0,0,2,,,1,,,64,64
320064,note_off,,,,,0,0,2,,,1,,,58,64
320064,note_off,,,,,0,0,1,,,0,,,82,64
320064,note_off,,,,,0,0,1,,,0,,,85,64
320064,note_off,,,,,0,0,1,,,0,,,91,64
320064,note_off,,,,,384,0,1,,,0,,,94,64
320160,note_on,,,,,0,0,1,,,0,,,81,116
320160,note_on,,,,,0,0,1,,,0,,,86,116
320160,note_on,,,,,0,0,1,,,0,,,89,116
320160,note_on,,,,,96,0,1,,,0,,,93,116
320160,note_on,,,,,96,0,2,,,1,,,57,116
320160,note_on,,,,,0,0,2,,,1,,,53,116
320160,note_on,,,,,0,0,2,,,1,,,65,116
320160,note_on,,,,,0,0,2,,,1,,,62,116
320352,note_off,,,,,0,0,1,,,0,,,86,64
320352,note_off,,,,,0,0,2,,,1,,,57,64
320352,note_off,,,,,0,0,2,,,1,,,62,64
320352,note_off,,,,,0,0,2,,,1,,,65,64
320352,note_off,,,,,192,0,2,,,1,,,53,64
320352,note_off,,,,,192,0,1,,,0,,,81,64
320352,note_off,,,,,0,0,1,,,0,,,89,64
320352,note_off,,,,,0,0,1,,,0,,,93,64
320520,note_on,,,,,0,0,1,,,0,,,74,116
320520,note_on,,,,,168,0,1,,,0,,,86,116
320520,note_on,,,,,168,0,2,,,1,,,29,116
320568,note_off,,,,,48,0,2,,,1,,,29,64
320580,note_on,,,,,12,0,2,,,1,,,41,116
320616,note_off,,,,,0,0,1,,,0,,,86,64
320616,note_off,,,,,96,0,1,,,0,,,74,64
320628,note_off,,,,,48,0,2,,,1,,,41,64
320640,note_on,,,,,12,0,2,,,1,,,40,116
320640,note_on,,,,,0,0,2,,,1,,,28,116
320640,note_on,,,,,0,0,1,,,0,,,92,116
320640,note_on,,,,,0,0,1,,,0,,,83,116
320640,note_on,,,,,0,0,1,,,0,,,86,116
320640,note_on,,,,,24,0,1,,,0,,,95,116
321024,note_off,,,,,0,0,1,,,0,,,95,64
321024,note_off,,,,,384,0,2,,,1,,,28,64
321024,note_off,,,,,0,0,2,,,1,,,40,64
321024,note_off,,,,,0,0,1,,,0,,,86,64
321024,note_off,,,,,0,0,1,,,0,,,83,64
321024,note_off,,,,,384,0,1,,,0,,,92,64
321120,note_on,,,,,96,0,2,,,1,,,45,116
321120,note_on,,,,,0,0,2,,,1,,,33,116
321120,note_on,,,,,0,0,2,,,1,,,40,116
321120,note_on,,,,,0,0,1,,,0,,,85,116
321120,note_on,,,,,96,0,1,,,0,,,97,116
321120,note_on,,,,,0,0,1,,,0,,,93,116
321120,note_on,,,,,0,0,1,,,0,,,88,116
321504,note_off,,,,,0,0,2,,,1,,,45,64
321504,note_off,,,,,0,0,2,,,1,,,33,64
321504,note_off,,,,,384,0,2,,,1,,,40,64
321504,note_off,,,,,384,0,1,,,0,,,85,64
321504,note_off,,,,,0,0,1,,,0,,,93,64
321504,note_off,,,,,0,0,1,,,0,,,88,64
321504,note_off,,,,,0,0,1,,,0,,,97,64
321600,note_on,,,,,96,0,1,,,0,,,98,116
321600,note_on,,,,,0,0,1,,,0,,,86,116
321600,note_on,,,,,0,0,1,,,0,,,93,116
321600,note_on,,,,,96,0,2,,,1,,,41,116
321600,note_on,,,,,0,0,2,,,1,,,38,116
321600,note_on,,,,,0,0,2,,,1,,,29,116
321984,note_off,,,,,384,0,2,,,1,,,29,64
321984,note_off,,,,,0,0,1,,,0,,,98,64
321984,note_off,,,,,0,0,1,,,0,,,86,64
321984,note_off,,,,,384,0,1,,,0,,,93,64
321984,note_off,,,,,0,0,2,,,1,,,41,64
321984,note_off,,,,,0,0,2,,,1,,,38,64
322080,note_on,,,,,0,0,1,,,0,,,93,116
322080,note_on,,,,,96,0,1,,,0,,,101,116
322080,note_on,,,,,0,0,1,,,0,,,89,116
322080,note_on,,,,,96,0,2,,,1,,,26,116
322080,note_on,,,,,0,0,2,,,1,,,38,116
322080,note_on,,,,,0,0,2,,,1,,,33,116
322464,note_off,,,,,384,0,2,,,1,,,33,64
322464,note_off,,,,,0,0,2,,,1,,,38,64
322464,note_off,,,,,0,0,2,,,1,,,26,64
322464,note_off,,,,,384,0,1,,,0,,,89,64
322464,note_off,,,,,0,0,1,,,0,,,101,64
322464,note_off,,,,,0,0,1,,,0,,,93,64
322560,note_on,,,,,0,0,1,,,0,,,84,116
322560,note_on,,,,,0,0,1,,,0,,,88,116
322560,note_on,,,,,0,0,2,,,1,,,31,116
322560,note_on,,,,,96,0,2,,,1,,,43,116
322560,note_on,,,,,0,0,1,,,0,,,96,116
322560,note_on,,,,,96,0,1,,,0,,,91,116
322848,note_off,,,,,288,0,1,,,0,,,96,64
322848,note_off,,,,,0,0,1,,,0,,,88,64
322848,note_off,,,,,0,0,1,,,0,,,84,64
322848,note_off,,,,,0,0,1,,,0,,,91,64
322920,note_on,,,,,72,0,1,,,0,,,88,116
322920,note_on,,,,,0,0,1,,,0,,,84,116
322920,note_on,,,,,0,0,1,,,0,,,76,116
322944,note_off,,,,,0,0,2,,,1,,,43,64
322944,note_off,,,,,384,0,2,,,1,,,31,64
323016,note_off,,,,,96,0,1,,,0,,,84,64
323016,note_off,,,,,0,0,1,,,0,,,76,64
323016,note_off,,,,,0,0,1,,,0,,,88,64
323040,note_on,,,,,96,0,2,,,1,,,43,116
323040,note_on,,,,,24,0,1,,,0,,,84,116
323040,note_on,,,,,0,0,1,,,0,,,76,116
323040,note_on,,,,,0,0,1,,,0,,,88,116
323040,note_on,,,,,0,0,2,,,1,,,60,116
323040,note_on,,,,,0,0,2,,,1,,,52,116
323232,note_off,,,,,0,0,1,,,0,,,88,64
323232,note_off,,,,,192,0,1,,,0,,,76,64
323232,note_off,,,,,0,0,1,,,0,,,84,64
323280,note_on,,,,,0,0,1,,,0,,,89,116
323280,note_on,,,,,0,0,1,,,0,,,77,116
323280,note_on,,,,,48,0,1,,,0,,,86,116
323376,note_off,,,,,96,0,1,,,0,,,77,64
323376,note_off,,,,,0,0,1,,,0,,,89,64
323376,note_off,,,,,0,0,1,,,0,,,86,64
323400,note_on,,,,,0,0,1,,,0,,,91,116
323400,note_on,,,,,24,0,1,,,0,,,88,116
323400,note_on,,,,,0,0,1,,,0,,,79,116
323424,note_off,,,,,0,0,2,,,1,,,43,64
323424,note_off,,,,,0,0,2,,,1,,,60,64
323424,note_off,,,,,384,0,2,,,1,,,52,64
323496,note_off,,,,,0,0,1,,,0,,,88,64
323496,note_off,,,,,0,0,1,,,0,,,91,64
323496,note_off,,,,,96,0,1,,,0,,,79,64
323520,note_on,,,,,0,0,1,,,0,,,89,116
323520,note_on,,,,,0,0,2,,,1,,,43,116
323520,note_on,,,,,96,0,2,,,1,,,50,116
323520,note_on,,,,,0,0,2,,,1,,,59,116
323520,note_on,,,,,0,0,1,,,0,,,81,116
323520,note_on,,,,,24,0,1,,,0,,,93,116
323712,note_off,,,,,192,0,2,,,1,,,59,64
323712,note_off,,,,,0,0,1,,,0,,,93,64
323712,note_off,,,,,0,0,1,,,0,,,81,64
323712,note_off,,,,,192,0,1,,,0,,,89,64
323760,note_on,,,,,48,0,2,,,1,,,60,116
323760,note_on,,,,,0,0,1,,,0,,,81,116
323760,note_on,,,,,0,0,1,,,0,,,89,116
323760,note_on,,,,,48,0,1,,,0,,,93,116
323856,note_off,,,,,96,0,2,,,1,,,60,64
323880,note_on,,,,,24,0,2,,,1,,,62,116
323904,note_off,,,,,24,0,2,,,1,,,43,64
323904,note_off,,,,,0,0,2,,,1,,,50,64
323952,note_off,,,,,0,0,1,,,0,,,93,64
323952,note_off,,,,,0,0,1,,,0,,,89,64
323952,note_off,,,,,192,0,1,,,0,,,81,64
323976,note_off,,,,,72,0,2,,,1,,,62,64
324000,note_on,,,,,48,0,1,,,0,,,79,116
324000,note_on,,,,,0,0,1,,,0,,,88,116
324000,note_on,,,,,0,0,1,,,0,,,91,116
324000,note_on,,,,,0,0,2,,,1,,,52,116
324000,note_on,,,,,24,0,2,,,1,,,43,116
324000,note_on,,,,,0,0,2,,,1,,,64,116
324192,note_off,,,,,192,0,2,,,1,,,64,64
324192,note_off,,,,,192,0,1,,,0,,,88,64
324192,note_off,,,,,0,0,1,,,0,,,91,64
324192,note_off,,,,,0,0,1,,,0,,,79,64
324240,note_on,,,,,48,0,2,,,1,,,60,116
324240,note_on,,,,,48,0,1,,,0,,,88,116
324240,note_on,,,,,0,0,1,,,0,,,96,116
324240,note_on,,,,,0,0,1,,,0,,,84,116
324336,note_off,,,,,96,0,1,,,0,,,96,64
324336,note_off,,,,,0,0,1,,,0,,,88,64
324336,note_off,,,,,0,0,1,,,0,,,84,64
324336,note_off,,,,,96,0,2,,,1,,,60,64
324360,note_on,,,,,24,0,1,,,0,,,98,116
324360,note_on,,,,,0,0,1,,,0,,,91,116
324360,note_on,,,,,0,0,1,,,0,,,86,116
324360,note_on,,,,,24,0,2,,,1,,,59,116
324384,note_off,,,,,0,0,2,,,1,,,43,64
324384,note_off,,,,,24,0,2,,,1,,,52,64
324456,note_off,,,,,96,0,1,,,0,,,86,64
324456,note_off,,,,,0,0,1,,,0,,,91,64
324456,note_off,,,,,72,0,2,,,1,,,59,64
324456,note_off,,,,,0,0,1,,,0,,,98,64
324480,note_on,,,,,24,0,1,,,0,,,100,116
324480,note_on,,,,,0,0,1,,,0,,,88,116
324480,note_on,,,,,0,0,1,,,0,,,97,116
324480,note_on,,,,,0,0,2,,,1,,,49,116
324480,note_on,,,,,0,0,2,,,1,,,57,116
324480,note_on,,,,,24,0,2,,,1,,,43,116
324672,note_off,,,,,0,0,1,,,0,,,88,64
324672,note_off,,,,,192,0,1,,,0,,,97,64
324672,note_off,,,,,192,0,2,,,1,,,57,64
324672,note_off,,,,,0,0,1,,,0,,,100,64
324720,note_on,,,,,0,0,1,,,0,,,100,116
324720,note_on,,,,,48,0,2,,,1,,,61,116
324720,note_on,,,,,0,0,1,,,0,,,88,116
324720,note_on,,,,,48,0,1,,,0,,,97,116
324816,note_off,,,,,96,0,2,,,1,,,61,64
324840,note_on,,,,,24,0,2,,,1,,,64,116
324864,note_off,,,,,0,0,2,,,1,,,43,64
324864,note_off,,,,,24,0,2,,,1,,,49,64
324912,note_off,,,,,0,0,1,,,0,,,97,64
324912,note_off,,,,,0,0,1,,,0,,,100,64
324912,note_off,,,,,192,0,1,,,0,,,88,64
324936,note_off,,,,,72,0,2,,,1,,,64,64
324960,note_on,,,,,0,0,1,,,0,,,81,116
324960,note_on,,,,,0,0,1,,,0,,,89,116
324960,note_on,,,,,48,0,1,,,0,,,93,116
324960,note_on,,,,,0,0,2,,,1,,,65,116
324960,note_on,,,,,0,0,2,,,1,,,43,116
324960,note_on,,,,,24,0,2,,,1,,,50,116
325152,note_off,,,,,192,0,2,,,1,,,65,64
325152,note_off,,,,,192,0,1,,,0,,,81,64
325152,note_off,,,,,0,0,1,,,0,,,93,64
325152,note_off,,,,,0,0,1,,,0,,,89,64
325200,note_on,,,,,0,0,1,,,0,,,86,116
325200,note_on,,,,,0,0,1,,,0,,,95,116
325200,note_on,,,,,48,0,1,,,0,,,98,116
325200,note_on,,,,,48,0,2,,,1,,,62,116
325296,note_off,,,,,0,0,1,,,0,,,98,64
325296,note_off,,,,,0,0,1,,,0,,,95,64
325296,note_off,,,,,96,0,1,,,0,,,86,64
325296,note_off,,,,,96,0,2,,,1,,,62,64
325320,note_on,,,,,24,0,2,,,1,,,60,116
325320,note_on,,,,,24,0,1,,,0,,,96,116
325320,note_on,,,,,0,0,1,,,0,,,100,116
325320,note_on,,,,,0,0,1,,,0,,,88,116
325344,note_off,,,,,24,0,2,,,1,,,43,64
325344,note_off,,,,,0,0,2,,,1,,,50,64
325416,note_off,,,,,72,0,2,,,1,,,60,64
325416,note_off,,,,,0,0,1,,,0,,,96,64
325416,note_off,,,,,0,0,1,,,0,,,100,64
325416,note_off,,,,,96,0,1,,,0,,,88,64
325440,note_on,,,,,0,0,2,,,1,,,59,116
325440,note_on,,,,,0,0,2,,,1,,,43,116
325440,note_on,,,,,0,0,1,,,0,,,101,116
325440,note_on,,,,,0,0,1,,,0,,,89,116
325440,note_on,,,,,24,0,1,,,0,,,98,116
325440,note_on,,,,,24,0,2,,,1,,,50,116
325632,note_off,,,,,0,0,1,,,0,,,98,64
325632,note_off,,,,,0,0,1,,,0,,,89,64
325632,note_off,,,,,192,0,1,,,0,,,101,64
325632,note_off,,,,,192,0,2,,,1,,,59,64
325680,note_on,,,,,48,0,1,,,0,,,86,116
325680,note_on,,,,,0,0,1,,,0,,,95,116
325680,note_on,,,,,0,0,1,,,0,,,98,116
325680,note_on,,,,,48,0,2,,,1,,,62,116
325776,note_off,,,,,0,0,1,,,0,,,86,64
325776,note_off,,,,,0,0,1,,,0,,,98,64
325776,note_off,,,,,96,0,1,,,0,,,95,64
325776,note_off,,,,,96,0,2,,,1,,,62,64
325800,note_on,,,,,24,0,2,,,1,,,63,116
325800,note_on,,,,,0,0,1,,,0,,,93,116
325800,note_on,,,,,24,0,1,,,0,,,96,116
325800,note_on,,,,,0,0,1,,,0,,,84,116
325824,note_off,,,,,0,0,2,,,1,,,50,64
325824,note_off,,,,,24,0,2,,,1,,,43,64
325896,note_off,,,,,0,0,1,,,0,,,84,64
325896,note_off,,,,,0,0,1,,,0,,,96,64
325896,note_off,,,,,96,0,1,,,0,,,93,64
325896,note_off,,,,,72,0,2,,,1,,,63,64
325920,note_on,,,,,0,0,1,,,0,,,83,116
325920,note_on,,,,,0,0,1,,,0,,,95,116
325920,note_on,,,,,24,0,2,,,1,,,43,116
325920,note_on,,,,,0,0,2,,,1,,,52,116
325920,note_on,,,,,24,0,1,,,0,,,91,116
325920,note_on,,,,,0,0,2,,,1,,,64,116
326112,note_off,,,,,0,0,1,,,0,,,91,64
326112,note_off,,,,,192,0,2,,,1,,,64,64
326112,note_off,,,,,192,0,1,,,0,,,83,64
326112,note_off,,,,,0,0,1,,,0,,,95,64
326160,note_on,,,,,0,0,1,,,0,,,96,116
326160,note_on,,,,,48,0,1,,,0,,,84,116
326160,note_on,,,,,0,0,1,,,0,,,93,116
326160,note_on,,,,,48,0,2,,,1,,,60,116
326256,note_off,,,,,96,0,2,,,1,,,60,64
326256,note_off,,,,,96,0,1,,,0,,,96,64
326256,note_off,,,,,0,0,1,,,0,,,93,64
326256,note_off,,,,,0,0,1,,,0,,,84,64
326280,note_on,,,,,24,0,2,,,1,,,59,116
326280,note_on,,,,,24,0,1,,,0,,,98,116
326280,note_on,,,,,0,0,1,,,0,,,86,116
326280,note_on,,,,,0,0,1,,,0,,,95,116
326304,note_off,,,,,0,0,2,,,1,,,43,64
326304,note_off,,,,,24,0,2,,,1,,,52,64
326376,note_off,,,,,96,0,1,,,0,,,95,64
326376,note_off,,,,,0,0,1,,,0,,,86,64
326376,note_off,,,,,0,0,1,,,0,,,98,64
326376,note_off,,,,,72,0,2,,,1,,,59,64
326400,note_on,,,,,0,0,2,,,1,,,57,116
326400,note_on,,,,,0,0,2,,,1,,,43,116
326400,note_on,,,,,24,0,2,,,1,,,48,116
326400,note_on,,,,,24,0,1,,,0,,,100,116
326400,note_on,,,,,0,0,1,,,0,,,88,116
326400,note_on,,,,,0,0,1,,,0,,,96,116
326592,note_off,,,,,0,0,1,,,0,,,88,64
326592,note_off,,,,,192,0,2,,,1,,,57,64
326592,note_off,,,,,192,0,1,,,0,,,96,64
326592,note_off,,,,,0,0,1,,,0,,,100,64
326640,note_on,,,,,0,0,1,,,0,,,93,116
326640,note_on,,,,,48,0,2,,,1,,,60,116
326640,note_on,,,,,48,0,1,,,0,,,96,116
326640,note_on,,,,,0,0,1,,,0,,,84,116
326736,note_off,,,,,96,0,1,,,0,,,93,64
326736,note_off,,,,,0,0,1,,,0,,,84,64
326736,note_off,,,,,0,0,1,,,0,,,96,64
326736,note_off,,,,,96,0,2,,,1,,,60,64
326760,note_on,,,,,0,0,1,,,0,,,91,116
326760,note_on,,,,,24,0,2,,,1,,,61,116
326760,note_on,,,,,24,0,1,,,0,,,95,116
326760,note_on,,,,,0,0,1,,,0,,,83,116
326784,note_off,,,,,24,0,2,,,1,,,43,64
326784,note_off,,,,,0,0,2,,,1,,,48,64
326856,note_off,,,,,72,0,2,,,1,,,61,64
326856,note_off,,,,,96,0,1,,,0,,,91,64
326856,note_off,,,,,0,0,1,,,0,,,95,64
326856,note_off,,,,,0,0,1,,,0,,,83,64
326880,note_on,,,,,0,0,1,,,0,,,81,116
326880,note_on,,,,,0,0,2,,,1,,,62,116
326880,note_on,,,,,0,0,2,,,1,,,43,116
326880,note_on,,,,,24,0,2,,,1,,,50,116
326880,note_on,,,,,0,0,1,,,0,,,93,116
326880,note_on,,,,,24,0,1,,,0,,,89,116
327072,note_off,,,,,0,0,1,,,0,,,93,64
327072,note_off,,,,,0,0,1,,,0,,,89,64
327072,note_off,,,,,192,0,1,,,0,,,81,64
327072,note_off,,,,,192,0,2,,,1,,,62,64
327120,note_on,,,,,48,0,1,,,0,,,83,116
327120,note_on,,,,,48,0,2,,,1,,,59,116
327120,note_on,,,,,0,0,1,,,0,,,95,116
327120,note_on,,,,,0,0,1,,,0,,,91,116
327216,note_off,,,,,96,0,2,,,1,,,59,64
327216,note_off,,,,,0,0,1,,,0,,,95,64
327216,note_off,,,,,0,0,1,,,0,,,83,64
327216,note_off,,,,,96,0,1,,,0,,,91,64
327240,note_on,,,,,0,0,1,,,0,,,93,116
327240,note_on,,,,,0,0,1,,,0,,,84,116
327240,note_on,,,,,24,0,2,,,1,,,57,116
327240,note_on,,,,,24,0,1,,,0,,,96,116
327264,note_off,,,,,0,0,2,,,1,,,50,64
327264,note_off,,,,,24,0,2,,,1,,,43,64
327336,note_off,,,,,96,0,1,,,0,,,84,64
327336,note_off,,,,,0,0,1,,,0,,,96,64
327336,note_off,,,,,72,0,2,,,1,,,57,64
327336,note_off,,,,,0,0,1,,,0,,,93,64
327360,note_on,,,,,0,0,1,,,0,,,98,116
327360,note_on,,,,,0,0,1,,,0,,,95,116
327360,note_on,,,,,24,0,1,,,0,,,86,116
327360,note_on,,,,,0,0,2,,,1,,,43,116
327360,note_on,,,,,0,0,2,,,1,,,55,116
327360,note_on,,,,,24,0,2,,,1,,,47,116
327552,note_off,,,,,192,0,2,,,1,,,55,64
327552,note_off,,,,,0,0,1,,,0,,,86,64
327552,note_off,,,,,0,0,1,,,0,,,95,64
327552,note_off,,,,,192,0,1,,,0,,,98,64
327600,note_on,,,,,0,0,1,,,0,,,91,116
327600,note_on,,,,,0,0,1,,,0,,,95,116
327600,note_on,,,,,48,0,1,,,0,,,83,116
327600,note_on,,,,,48,0,2,,,1,,,57,116
327696,note_off,,,,,96,0,2,,,1,,,57,64
327696,note_off,,,,,96,0,1,,,0,,,91,64
327696,note_off,,,,,0,0,1,,,0,,,95,64
327696,note_off,,,,,0,0,1,,,0,,,83,64
327720,note_on,,,,,24,0,2,,,1,,,59,116
327720,note_on,,,,,24,0,1,,,0,,,81,116
327720,note_on,,,,,0,0,1,,,0,,,89,116
327720,note_on,,,,,0,0,1,,,0,,,93,116
327744,note_off,,,,,0,0,2,,,1,,,47,64
327744,note_off,,,,,24,0,2,,,1,,,43,64
327816,note_off,,,,,72,0,2,,,1,,,59,64
327816,note_off,,,,,96,0,1,,,0,,,93,64
327816,note_off,,,,,0,0,1,,,0,,,89,64
327816,note_off,,,,,0,0,1,,,0,,,81,64
327840,note_on,,,,,0,0,1,,,0,,,91,116
327840,note_on,,,,,0,0,1,,,0,,,79,116
327840,note_on,,,,,0,0,2,,,1,,,60,116
327840,note_on,,,,,0,0,2,,,1,,,48,116
327840,note_on,,,,,24,0,2,,,1,,,43,116
327840,note_on,,,,,24,0,1,,,0,,,88,116
328032,note_off,,,,,0,0,1,,,0,,,79,64
328032,note_off,,,,,0,0,1,,,0,,,88,64
328032,note_off,,,,,192,0,1,,,0,,,91,64
328032,note_off,,,,,192,0,2,,,1,,,60,64
328080,note_on,,,,,48,0,2,,,1,,,62,116
328080,note_on,,,,,48,0,1,,,0,,,77,116
328080,note_on,,,,,0,0,1,,,0,,,86,116
328080,note_on,,,,,0,0,1,,,0,,,89,116
328176,note_off,,,,,96,0,2,,,1,,,62,64
328176,note_off,,,,,96,0,1,,,0,,,89,64
328176,note_off,,,,,0,0,1,,,0,,,86,64
328176,note_off,,,,,0,0,1,,,0,,,77,64
328200,note_on,,,,,24,0,1,,,0,,,88,116
328200,note_on,,,,,24,0,2,,,1,,,64,116
328200,note_on,,,,,0,0,1,,,0,,,76,116
328200,note_on,,,,,0,0,1,,,0,,,84,116
328224,note_off,,,,,0,0,2,,,1,,,43,64
328224,note_off,,,,,24,0,2,,,1,,,48,64
328296,note_off,,,,,0,0,1,,,0,,,84,64
328296,note_off,,,,,72,0,2,,,1,,,64,64
328296,note_off,,,,,96,0,1,,,0,,,76,64
328296,note_off,,,,,0,0,1,,,0,,,88,64
328320,note_on,,,,,0,0,1,,,0,,,81,116
328320,note_on,,,,,0,0,1,,,0,,,87,116
328320,note_on,,,,,0,0,1,,,0,,,78,116
328320,note_on,,,,,0,0,1,,,0,,,84,116
328320,note_on,,,,,24,0,2,,,1,,,66,116
328320,note_on,,,,,0,0,2,,,1,,,54,116
328320,note_on,,,,,0,0,2,,,1,,,48,116
328320,note_on,,,,,0,0,2,,,1,,,43,116
328320,note_on,,,,,24,0,1,,,0,,,75,116
328512,note_off,,,,,0,0,1,,,0,,,75,64
328512,note_off,,,,,0,0,2,,,1,,,54,64
328512,note_off,,,,,192,0,2,,,1,,,43,64
328512,note_off,,,,,0,0,2,,,1,,,48,64
328512,note_off,,,,,0,0,1,,,0,,,81,64
328512,note_off,,,,,0,0,2,,,1,,,66,64
328512,note_off,,,,,0,0,1,,,0,,,87,64
328512,note_off,,,,,0,0,1,,,0,,,78,64
328512,note_off,,,,,192,0,1,,,0,,,84,64
328560,note_on,,,,,0,0,2,,,1,,,48,116
328560,note_on,,,,,0,0,2,,,1,,,54,116
328560,note_on,,,,,0,0,2,,,1,,,63,116
328560,note_on,,,,,48,0,1,,,0,,,84,116
328560,note_on,,,,,0,0,1,,,0,,,72,116
328560,note_on,,,,,0,0,1,,,0,,,75,116
328560,note_on,,,,,0,0,1,,,0,,,81,116
328560,note_on,,,,,48,0,2,,,1,,,43,116
328560,note_on,,,,,0,0,1,,,0,,,78,116
328944,note_off,,,,,384,0,2,,,1,,,63,64
328944,note_off,,,,,0,0,2,,,1,,,54,64
328944,note_off,,,,,0,0,2,,,1,,,48,64
328944,note_off,,,,,0,0,2,,,1,,,43,64
329010,note_off,,,,,450,0,1,,,0,,,81,64
329010,note_off,,,,,0,0,1,,,0,,,72,64
329010,note_off,,,,,0,0,1,,,0,,,75,64
329010,note_off,,,,,0,0,1,,,0,,,78,64
329010,note_off,,,,,0,0,1,,,0,,,84,64
329040,note_on,,,,,0,0,2,,,1,,,60,116
329040,note_on,,,,,0,0,2,,,1,,,48,116
329040,note_on,,,,,0,0,2,,,1,,,54,116
329040,note_on,,,,,96,0,2,,,1,,,43,116
329040,note_on,,,,,30,0,1,,,0,,,81,116
329040,note_on,,,,,0,0,1,,,0,,,75,116
329040,note_on,,,,,0,0,1,,,0,,,78,116
329040,note_on,,,,,0,0,1,,,0,,,69,116
329040,note_on,,,,,0,0,1,,,0,,,72,116
329232,note_off,,,,,0,0,2,,,1,,,54,64
329232,note_off,,,,,192,0,1,,,0,,,69,64
329232,note_off,,,,,0,0,1,,,0,,,72,64
329232,note_off,,,,,0,0,1,,,0,,,75,64
329232,note_off,,,,,0,0,1,,,0,,,78,64
329232,note_off,,,,,0,0,1,,,0,,,81,64
329232,note_off,,,,,192,0,2,,,1,,,60,64
329232,note_off,,,,,0,0,2,,,1,,,48,64
329232,note_off,,,,,0,0,2,,,1,,,43,64
329280,note_on,,,,,0,0,2,,,1,,,55,116
329280,note_on,,,,,0,0,2,,,1,,,59,116
329280,note_on,,,,,0,0,2,,,1,,,50,116
329280,note_on,,,,,0,0,1,,,0,,,74,116
329280,note_on,,,,,0,0,1,,,0,,,77,116
329280,note_on,,,,,0,0,1,,,0,,,71,116
329280,note_on,,,,,0,0,1,,,0,,,79,116
329280,note_on,,,,,48,0,2,,,1,,,43,116
329280,note_on,,,,,48,0,1,,,0,,,67,116
329472,note_off,,,,,192,0,2,,,1,,,50,64
329472,note_off,,,,,0,0,2,,,1,,,59,64
329472,note_off,,,,,0,0,2,,,1,,,55,64
329472,note_off,,,,,0,0,2,,,1,,,43,64
329472,note_off,,,,,192,0,1,,,0,,,77,64
329472,note_off,,,,,0,0,1,,,0,,,74,64
329472,note_off,,,,,0,0,1,,,0,,,79,64
329472,note_off,,,,,0,0,1,,,0,,,71,64
329472,note_off,,,,,0,0,1,,,0,,,67,64
329520,note_on,,,,,0,0,2,,,1,,,43,116
329520,note_on,,,,,48,0,2,,,1,,,47,116
329520,note_on,,,,,48,0,1,,,0,,,67,116
329584,note_off,,,,,64,0,1,,,0,,,67,64
329600,note_on,,,,,16,0,1,,,0,,,79,116
329616,note_off,,,,,96,0,2,,,1,,,43,64
329616,note_off,,,,,0,0,2,,,1,,,47,64
329664,note_off,,,,,64,0,1,,,0,,,79,64
329680,note_on,,,,,16,0,1,,,0,,,77,116
329700,note_on,,,,,84,0,2,,,1,,,47,116
329744,note_off,,,,,64,0,1,,,0,,,77,64
329748,note_off,,,,,48,0,2,,,1,,,47,64
329760,note_on,,,,,12,0,2,,,1,,,49,116
329760,note_on,,,,,0,0,1,,,0,,,79,116
329760,note_on,,,,,0,0,2,,,1,,,43,116
329760,note_on,,,,,16,0,1,,,0,,,82,116
329824,note_off,,,,,0,0,1,,,0,,,82,64
329824,note_off,,,,,64,0,1,,,0,,,79,64
329840,note_on,,,,,16,0,1,,,0,,,89,116
329904,note_off,,,,,64,0,1,,,0,,,89,64
329920,note_on,,,,,16,0,1,,,0,,,88,116
329952,note_off,,,,,192,0,2,,,1,,,49,64
329984,note_off,,,,,64,0,1,,,0,,,88,64
330000,note_on,,,,,16,0,1,,,0,,,67,116
330000,note_on,,,,,48,0,2,,,1,,,61,116
330000,note_on,,,,,0,0,1,,,0,,,70,116
330064,note_off,,,,,64,0,1,,,0,,,70,64
330064,note_off,,,,,0,0,1,,,0,,,67,64
330080,note_on,,,,,16,0,1,,,0,,,77,116
330144,note_off,,,,,64,0,1,,,0,,,77,64
330160,note_on,,,,,16,0,1,,,0,,,76,116
330192,note_off,,,,,192,0,2,,,1,,,61,64
330224,note_off,,,,,64,0,1,,,0,,,76,64
330240,note_on,,,,,0,0,1,,,0,,,69,116
330240,note_on,,,,,16,0,1,,,0,,,65,116
330240,note_on,,,,,48,0,2,,,1,,,62,116
330304,note_off,,,,,64,0,1,,,0,,,69,64
330304,note_off,,,,,0,0,1,,,0,,,65,64
330320,note_on,,,,,16,0,1,,,0,,,76,116
330336,note_off,,,,,0,0,2,,,1,,,62,64
330336,note_off,,,,,96,0,2,,,1,,,43,64
330384,note_off,,,,,64,0,1,,,0,,,76,64
330400,note_on,,,,,16,0,1,,,0,,,74,116
330464,note_off,,,,,64,0,1,,,0,,,74,64
330480,note_on,,,,,0,0,2,,,1,,,43,116
330480,note_on,,,,,144,0,2,,,1,,,50,116
330480,note_on,,,,,16,0,1,,,0,,,81,116
330480,note_on,,,,,0,0,1,,,0,,,77,116
330544,note_off,,,,,0,0,1,,,0,,,81,64
330544,note_off,,,,,64,0,1,,,0,,,77,64
330560,note_on,,,,,16,0,1,,,0,,,88,116
330576,note_off,,,,,96,0,2,,,1,,,50,64
330624,note_off,,,,,64,0,1,,,0,,,88,64
330640,note_on,,,,,16,0,1,,,0,,,86,116
330660,note_on,,,,,84,0,2,,,1,,,50,116
330672,note_off,,,,,12,0,2,,,1,,,43,64
330704,note_off,,,,,64,0,1,,,0,,,86,64
330708,note_off,,,,,36,0,2,,,1,,,50,64
330720,note_on,,,,,12,0,2,,,1,,,51,116
330720,note_on,,,,,0,0,1,,,0,,,84,116
330720,note_on,,,,,16,0,1,,,0,,,81,116
330720,note_on,,,,,0,0,2,,,1,,,43,116
330784,note_off,,,,,0,0,1,,,0,,,81,64
330784,note_off,,,,,64,0,1,,,0,,,84,64
330800,note_on,,,,,16,0,1,,,0,,,91,116
330864,note_off,,,,,64,0,1,,,0,,,91,64
330880,note_on,,,,,16,0,1,,,0,,,90,116
330912,note_off,,,,,192,0,2,,,1,,,51,64
330944,note_off,,,,,64,0,1,,,0,,,90,64
330960,note_on,,,,,48,0,2,,,1,,,63,116
330960,note_on,,,,,16,0,1,,,0,,,69,116
330960,note_on,,,,,0,0,1,,,0,,,72,116
331024,note_off,,,,,64,0,1,,,0,,,72,64
331024,note_off,,,,,0,0,1,,,0,,,69,64
331040,note_on,,,,,16,0,1,,,0,,,79,116
331104,note_off,,,,,64,0,1,,,0,,,79,64
331120,note_on,,,,,16,0,1,,,0,,,78,116
331152,note_off,,,,,192,0,2,,,1,,,63,64
331184,note_off,,,,,64,0,1,,,0,,,78,64
331200,note_on,,,,,16,0,1,,,0,,,72,116
331200,note_on,,,,,0,0,1,,,0,,,67,116
331200,note_on,,,,,48,0,2,,,1,,,64,116
331264,note_off,,,,,64,0,1,,,0,,,67,64
331264,note_off,,,,,0,0,1,,,0,,,72,64
331280,note_on,,,,,16,0,1,,,0,,,81,116
331296,note_off,,,,,0,0,2,,,1,,,64,64
331296,note_off,,,,,96,0,2,,,1,,,43,64
331344,note_off,,,,,64,0,1,,,0,,,81,64
331360,note_on,,,,,16,0,1,,,0,,,79,116
331424,note_off,,,,,64,0,1,,,0,,,79,64
331440,note_on,,,,,0,0,2,,,1,,,52,116
331440,note_on,,,,,16,0,1,,,0,,,84,116
331440,note_on,,,,,144,0,2,,,1,,,43,116
331440,note_on,,,,,0,0,1,,,0,,,79,116
331504,note_off,,,,,64,0,1,,,0,,,79,64
331504,note_off,,,,,0,0,1,,,0,,,84,64
331520,note_on,,,,,16,0,1,,,0,,,93,116
331536,note_off,,,,,96,0,2,,,1,,,52,64
331584,note_off,,,,,64,0,1,,,0,,,93,64
331600,note_on,,,,,16,0,1,,,0,,,91,116
331620,note_on,,,,,84,0,2,,,1,,,52,116
331632,note_off,,,,,12,0,2,,,1,,,43,64
331664,note_off,,,,,64,0,1,,,0,,,91,64
331668,note_off,,,,,36,0,2,,,1,,,52,64
331680,note_on,,,,,12,0,2,,,1,,,53,116
331680,note_on,,,,,0,0,2,,,1,,,43,116
331680,note_on,,,,,0,0,1,,,0,,,86,116
331680,note_on,,,,,16,0,1,,,0,,,84,116
331744,note_off,,,,,64,0,1,,,0,,,86,64
331744,note_off,,,,,0,0,1,,,0,,,84,64
331760,note_on,,,,,16,0,1,,,0,,,95,116
331824,note_off,,,,,64,0,1,,,0,,,95,64
331840,note_on,,,,,16,0,1,,,0,,,93,116
331872,note_off,,,,,192,0,2,,,1,,,53,64
331904,note_off,,,,,64,0,1,,,0,,,93,64
331920,note_on,,,,,48,0,2,,,1,,,65,116
331920,note_on,,,,,0,0,1,,,0,,,72,116
331920,note_on,,,,,16,0,1,,,0,,,74,116
331984,note_off,,,,,0,0,1,,,0,,,74,64
331984,note_off,,,,,64,0,1,,,0,,,72,64
332000,note_on,,,,,16,0,1,,,0,,,83,116
332016,note_off,,,,,96,0,2,,,1,,,65,64
332064,note_off,,,,,64,0,1,,,0,,,83,64
332064,note_off,,,,,48,0,2,,,1,,,43,64
332080,note_on,,,,,16,0,1,,,0,,,81,116
332100,note_on,,,,,36,0,2,,,1,,,53,116
332144,note_off,,,,,64,0,1,,,0,,,81,64
332148,note_off,,,,,48,0,2,,,1,,,53,64
332160,note_on,,,,,12,0,2,,,1,,,54,116
332160,note_on,,,,,0,0,1,,,0,,,74,116
332160,note_on,,,,,16,0,1,,,0,,,72,116
332160,note_on,,,,,0,0,2,,,1,,,43,116
332224,note_off,,,,,0,0,1,,,0,,,72,64
332224,note_off,,,,,64,0,1,,,0,,,74,64
332240,note_on,,,,,16,0,1,,,0,,,83,116
332304,note_off,,,,,64,0,1,,,0,,,83,64
332320,note_on,,,,,16,0,1,,,0,,,81,116
332352,note_off,,,,,192,0,2,,,1,,,54,64
332384,note_off,,,,,64,0,1,,,0,,,81,64
332400,note_on,,,,,16,0,1,,,0,,,84,116
332400,note_on,,,,,48,0,2,,,1,,,66,116
332400,note_on,,,,,0,0,1,,,0,,,86,116
332464,note_off,,,,,0,0,1,,,0,,,84,64
332464,note_off,,,,,64,0,1,,,0,,,86,64
332480,note_on,,,,,16,0,1,,,0,,,95,116
332496,note_off,,,,,96,0,2,,,1,,,66,64
332544,note_off,,,,,48,0,2,,,1,,,43,64
332544,note_off,,,,,64,0,1,,,0,,,95,64
332560,note_on,,,,,16,0,1,,,0,,,93,116
332580,note_on,,,,,36,0,2,,,1,,,54,116
332610,note_on,,,,,30,0,2,,,1,,,43,116
332610,note_on,,,,,0,0,2,,,1,,,50,116
332624,note_off,,,,,64,0,1,,,0,,,93,64
332625,note_off,,,,,0,0,2,,,1,,,43,64
332625,note_off,,,,,15,0,2,,,1,,,50,64
332628,note_off,,,,,3,0,2,,,1,,,54,64
332640,note_on,,,,,0,0,1,,,0,,,95,116
332640,note_on,,,,,16,0,1,,,0,,,89,116
332670,note_on,,,,,0,0,2,,,1,,,50,116
332670,note_on,,,,,0,0,2,,,1,,,53,116
332670,note_on,,,,,0,0,2,,,1,,,43,116
332670,note_on,,,,,42,0,2,,,1,,,55,116
332704,note_off,,,,,0,0,1,,,0,,,89,64
332704,note_off,,,,,64,0,1,,,0,,,95,64
332720,note_on,,,,,16,0,1,,,0,,,100,116
332784,note_off,,,,,64,0,1,,,0,,,100,64
332800,note_on,,,,,16,0,1,,,0,,,98,116
332862,note_off,,,,,192,0,2,,,1,,,43,64
332862,note_off,,,,,0,0,2,,,1,,,53,64
332862,note_off,,,,,0,0,2,,,1,,,50,64
332862,note_off,,,,,0,0,2,,,1,,,55,64
332864,note_off,,,,,64,0,1,,,0,,,98,64
332880,note_on,,,,,0,0,1,,,0,,,83,116
332880,note_on,,,,,16,0,1,,,0,,,77,116
332910,note_on,,,,,0,0,2,,,1,,,67,116
332910,note_on,,,,,48,0,2,,,1,,,65,116
332910,note_on,,,,,0,0,2,,,1,,,62,116
332910,note_on,,,,,0,0,2,,,1,,,55,116
332944,note_off,,,,,64,0,1,,,0,,,83,64
332944,note_off,,,,,0,0,1,,,0,,,77,64
332960,note_on,,,,,16,0,1,,,0,,,88,116
333024,note_off,,,,,64,0,1,,,0,,,88,64
333040,note_on,,,,,16,0,1,,,0,,,86,116
333102,note_off,,,,,192,0,2,,,1,,,62,64
333102,note_off,,,,,0,0,2,,,1,,,55,64
333102,note_off,,,,,0,0,2,,,1,,,67,64
333102,note_off,,,,,0,0,2,,,1,,,65,64
333104,note_off,,,,,64,0,1,,,0,,,86,64
333120,note_on,,,,,16,0,1,,,0,,,72,116
333120,note_on,,,,,0,0,1,,,0,,,76,116
333120,note_on,,,,,0,0,1,,,0,,,84,116
333120,note_on,,,,,18,0,2,,,1,,,31,116
333184,note_off,,,,,64,0,2,,,1,,,31,64
333200,note_on,,,,,16,0,2,,,1,,,43,116
333264,note_off,,,,,64,0,2,,,1,,,43,64
333280,note_on,,,,,16,0,2,,,1,,,43,116
333312,note_off,,,,,192,0,1,,,0,,,84,64
333312,note_off,,,,,0,0,1,,,0,,,76,64
333312,note_off,,,,,0,0,1,,,0,,,72,64
333344,note_off,,,,,64,0,2,,,1,,,43,64
333360,note_on,,,,,48,0,1,,,0,,,64,116
333360,note_on,,,,,0,0,1,,,0,,,72,116
333360,note_on,,,,,0,0,1,,,0,,,60,116
333360,note_on,,,,,16,0,2,,,1,,,55,116
333424,note_off,,,,,64,0,2,,,1,,,55,64
333440,note_on,,,,,16,0,2,,,1,,,54,116
333456,note_off,,,,,0,0,1,,,0,,,64,64
333456,note_off,,,,,96,0,1,,,0,,,72,64
333456,note_off,,,,,0,0,1,,,0,,,60,64
333504,note_off,,,,,64,0,2,,,1,,,54,64
333520,note_on,,,,,16,0,2,,,1,,,57,116
333540,note_on,,,,,0,0,1,,,0,,,60,116
333540,note_on,,,,,0,0,1,,,0,,,64,116
333540,note_on,,,,,84,0,1,,,0,,,72,116
333584,note_off,,,,,64,0,2,,,1,,,57,64
333588,note_off,,,,,48,0,1,,,0,,,60,64
333588,note_off,,,,,0,0,1,,,0,,,72,64
333588,note_off,,,,,0,0,1,,,0,,,64,64
333600,note_on,,,,,16,0,2,,,1,,,55,116
333600,note_on,,,,,0,0,1,,,0,,,61,116
333600,note_on,,,,,0,0,1,,,0,,,64,116
333600,note_on,,,,,0,0,1,,,0,,,73,116
333600,note_on,,,,,12,0,1,,,0,,,70,116
333664,note_off,,,,,64,0,2,,,1,,,55,64
333680,note_on,,,,,16,0,2,,,1,,,52,116
333744,note_off,,,,,64,0,2,,,1,,,52,64
333760,note_on,,,,,16,0,2,,,1,,,46,116
333792,note_off,,,,,0,0,1,,,0,,,70,64
333792,note_off,,,,,0,0,1,,,0,,,73,64
333792,note_off,,,,,0,0,1,,,0,,,64,64
333792,note_off,,,,,192,0,1,,,0,,,61,64
333824,note_off,,,,,64,0,2,,,1,,,46,64
333840,note_on,,,,,16,0,2,,,1,,,43,116
333840,note_on,,,,,0,0,1,,,0,,,85,116
333840,note_on,,,,,48,0,1,,,0,,,82,116
333840,note_on,,,,,0,0,1,,,0,,,76,116
333840,note_on,,,,,0,0,1,,,0,,,73,116
333904,note_off,,,,,64,0,2,,,1,,,43,64
333920,note_on,,,,,16,0,2,,,1,,,40,116
333984,note_off,,,,,64,0,2,,,1,,,40,64
334000,note_on,,,,,16,0,2,,,1,,,34,116
334032,note_off,,,,,0,0,1,,,0,,,76,64
334032,note_off,,,,,192,0,1,,,0,,,73,64
334032,note_off,,,,,0,0,1,,,0,,,82,64
334032,note_off,,,,,0,0,1,,,0,,,85,64
334064,note_off,,,,,64,0,2,,,1,,,34,64
334080,note_on,,,,,0,0,1,,,0,,,77,116
334080,note_on,,,,,16,0,2,,,1,,,29,116
334080,note_on,,,,,0,0,1,,,0,,,82,116
334080,note_on,,,,,0,0,1,,,0,,,74,116
334080,note_on,,,,,48,0,1,,,0,,,86,116
334144,note_off,,,,,64,0,2,,,1,,,29,64
334160,note_on,,,,,16,0,2,,,1,,,41,116
334224,note_off,,,,,64,0,2,,,1,,,41,64
334240,note_on,,,,,16,0,2,,,1,,,41,116
334272,note_off,,,,,192,0,1,,,0,,,82,64
334272,note_off,,,,,0,0,1,,,0,,,74,64
334272,note_off,,,,,0,0,1,,,0,,,77,64
334272,note_off,,,,,0,0,1,,,0,,,86,64
334304,note_off,,,,,64,0,2,,,1,,,41,64
334320,note_on,,,,,0,0,1,,,0,,,74,116
334320,note_on,,,,,16,0,2,,,1,,,52,116
334320,note_on,,,,,0,0,1,,,0,,,70,116
334320,note_on,,,,,48,0,1,,,0,,,62,116
334384,note_off,,,,,64,0,2,,,1,,,52,64
334400,note_on,,,,,16,0,2,,,1,,,55,116
334416,note_off,,,,,0,0,1,,,0,,,62,64
334416,note_off,,,,,0,0,1,,,0,,,74,64
334416,note_off,,,,,96,0,1,,,0,,,70,64
334464,note_off,,,,,64,0,2,,,1,,,55,64
334480,note_on,,,,,16,0,2,,,1,,,53,116
334500,note_on,,,,,0,0,1,,,0,,,74,116
334500,note_on,,,,,0,0,1,,,0,,,70,116
334500,note_on,,,,,84,0,1,,,0,,,62,116
334544,note_off,,,,,64,0,2,,,1,,,53,64
334548,note_off,,,,,0,0,1,,,0,,,62,64
334548,note_off,,,,,48,0,1,,,0,,,74,64
334548,note_off,,,,,0,0,1,,,0,,,70,64
334560,note_on,,,,,0,0,1,,,0,,,73,116
334560,note_on,,,,,0,0,1,,,0,,,70,116
334560,note_on,,,,,0,0,1,,,0,,,76,116
334560,note_on,,,,,16,0,2,,,1,,,52,116
334560,note_on,,,,,12,0,1,,,0,,,64,116
334624,note_off,,,,,64,0,2,,,1,,,52,64
334640,note_on,,,,,16,0,2,,,1,,,49,116
334704,note_off,,,,,64,0,2,,,1,,,49,64
334720,note_on,,,,,16,0,2,,,1,,,46,116
334752,note_off,,,,,192,0,1,,,0,,,70,64
334752,note_off,,,,,0,0,1,,,0,,,76,64
334752,note_off,,,,,0,0,1,,,0,,,73,64
334752,note_off,,,,,0,0,1,,,0,,,64,64
334784,note_off,,,,,64,0,2,,,1,,,46,64
334800,note_on,,,,,16,0,2,,,1,,,43,116
334800,note_on,,,,,0,0,1,,,0,,,82,116
334800,note_on,,,,,48,0,1,,,0,,,76,116
334800,note_on,,,,,0,0,1,,,0,,,85,116
334800,note_on,,,,,0,0,1,,,0,,,88,116
334864,note_off,,,,,64,0,2,,,1,,,43,64
334880,note_on,,,,,16,0,2,,,1,,,40,116
334944,note_off,,,,,64,0,2,,,1,,,40,64
334960,note_on,,,,,16,0,2,,,1,,,37,116
334992,note_off,,,,,192,0,1,,,0,,,88,64
334992,note_off,,,,,0,0,1,,,0,,,82,64
334992,note_off,,,,,0,0,1,,,0,,,85,64
334992,note_off,,,,,0,0,1,,,0,,,76,64
335024,note_off,,,,,64,0,2,,,1,,,37,64
335040,note_on,,,,,16,0,2,,,1,,,26,116
335040,note_on,,,,,0,0,1,,,0,,,89,116
335040,note_on,,,,,0,0,1,,,0,,,86,116
335040,note_on,,,,,0,0,1,,,0,,,81,116
335040,note_on,,,,,48,0,1,,,0,,,77,116
335104,note_off,,,,,64,0,2,,,1,,,26,64
335120,note_on,,,,,16,0,2,,,1,,,38,116
335184,note_off,,,,,64,0,2,,,1,,,38,64
335200,note_on,,,,,16,0,2,,,1,,,38,116
335232,note_off,,,,,0,0,1,,,0,,,77,64
335232,note_off,,,,,192,0,1,,,0,,,89,64
335232,note_off,,,,,0,0,1,,,0,,,86,64
335232,note_off,,,,,0,0,1,,,0,,,81,64
335264,note_off,,,,,64,0,2,,,1,,,38,64
335280,note_on,,,,,48,0,1,,,0,,,69,116
335280,note_on,,,,,0,0,1,,,0,,,65,116
335280,note_on,,,,,16,0,2,,,1,,,50,116
335280,note_on,,,,,0,0,1,,,0,,,77,116
335280,note_on,,,,,0,0,1,,,0,,,74,116
335344,note_off,,,,,64,0,2,,,1,,,50,64
335360,note_on,,,,,16,0,2,,,1,,,49,116
335376,note_off,,,,,0,0,1,,,0,,,65,64
335376,note_off,,,,,0,0,1,,,0,,,77,64
335376,note_off,,,,,0,0,1,,,0,,,69,64
335376,note_off,,,,,96,0,1,,,0,,,74,64
335424,note_off,,,,,64,0,2,,,1,,,49,64
335440,note_on,,,,,16,0,2,,,1,,,52,116
335460,note_on,,,,,0,0,1,,,0,,,65,116
335460,note_on,,,,,0,0,1,,,0,,,69,116
335460,note_on,,,,,0,0,1,,,0,,,74,116
335460,note_on,,,,,84,0,1,,,0,,,77,116
335504,note_off,,,,,64,0,2,,,1,,,52,64
335508,note_off,,,,,48,0,1,,,0,,,74,64
335508,note_off,,,,,0,0,1,,,0,,,65,64
335508,note_off,,,,,0,0,1,,,0,,,69,64
335508,note_off,,,,,0,0,1,,,0,,,77,64
335520,note_on,,,,,0,0,1,,,0,,,72,116
335520,note_on,,,,,16,0,2,,,1,,,50,116
335520,note_on,,,,,0,0,1,,,0,,,77,116
335520,note_on,,,,,12,0,1,,,0,,,69,116
335520,note_on,,,,,0,0,1,,,0,,,81,116
335584,note_off,,,,,64,0,2,,,1,,,50,64
335600,note_on,,,,,16,0,2,,,1,,,45,116
335664,note_off,,,,,64,0,2,,,1,,,45,64
335680,note_on,,,,,16,0,2,,,1,,,41,116
335712,note_off,,,,,192,0,1,,,0,,,77,64
335712,note_off,,,,,0,0,1,,,0,,,72,64
335712,note_off,,,,,0,0,1,,,0,,,81,64
335712,note_off,,,,,0,0,1,,,0,,,69,64
335744,note_off,,,,,64,0,2,,,1,,,41,64
335760,note_on,,,,,16,0,2,,,1,,,38,116
335760,note_on,,,,,0,0,1,,,0,,,93,116
335760,note_on,,,,,0,0,1,,,0,,,89,116
335760,note_on,,,,,0,0,1,,,0,,,81,116
335760,note_on,,,,,48,0,1,,,0,,,84,116
335824,note_off,,,,,64,0,2,,,1,,,38,64
335840,note_on,,,,,16,0,2,,,1,,,33,116
335904,note_off,,,,,64,0,2,,,1,,,33,64
335920,note_on,,,,,16,0,2,,,1,,,29,116
335984,note_off,,,,,64,0,2,,,1,,,29,64
336000,note_on,,,,,16,0,2,,,1,,,31,116
336064,note_off,,,,,64,0,2,,,1,,,31,64
336080,note_on,,,,,16,0,2,,,1,,,43,116
336144,note_off,,,,,64,0,2,,,1,,,43,64
336160,note_on,,,,,16,0,2,,,1,,,43,116
336192,note_off,,,,,0,0,1,,,0,,,89,64
336192,note_off,,,,,0,0,1,,,0,,,84,64
336192,note_off,,,,,432,0,1,,,0,,,81,64
336192,note_off,,,,,0,0,1,,,0,,,93,64
336224,note_off,,,,,64,0,2,,,1,,,43,64
336240,note_on,,,,,48,0,1,,,0,,,93,116
336240,note_on,,,,,0,0,1,,,0,,,84,116
336240,note_on,,,,,0,0,1,,,0,,,81,116
336240,note_on,,,,,0,0,1,,,0,,,89,116
336240,note_on,,,,,16,0,2,,,1,,,55,116
336304,note_off,,,,,64,0,2,,,1,,,55,64
336320,note_on,,,,,16,0,2,,,1,,,54,116
336384,note_off,,,,,64,0,2,,,1,,,54,64
336400,note_on,,,,,16,0,2,,,1,,,55,116
336464,note_off,,,,,64,0,2,,,1,,,55,64
336480,note_on,,,,,16,0,2,,,1,,,43,116
336544,note_off,,,,,64,0,2,,,1,,,43,64
336560,note_on,,,,,16,0,2,,,1,,,55,116
336624,note_off,,,,,384,0,1,,,0,,,84,64
336624,note_off,,,,,0,0,1,,,0,,,93,64
336624,note_off,,,,,0,0,1,,,0,,,89,64
336624,note_off,,,,,0,0,1,,,0,,,81,64
336624,note_off,,,,,64,0,2,,,1,,,55,64
336640,note_on,,,,,16,0,2,,,1,,,55,116
336704,note_off,,,,,64,0,2,,,1,,,55,64
336720,note_on,,,,,96,0,1,,,0,,,83,116
336720,note_on,,,,,16,0,2,,,1,,,67,116
336720,note_on,,,,,0,0,1,,,0,,,91,116
336720,note_on,,,,,0,0,1,,,0,,,88,116
336720,note_on,,,,,0,0,1,,,0,,,79,116
336784,note_off,,,,,64,0,2,,,1,,,67,64
336800,note_on,,,,,16,0,2,,,1,,,66,116
336864,note_off,,,,,64,0,2,,,1,,,66,64
336880,note_on,,,,,16,0,2,,,1,,,69,116
336944,note_off,,,,,64,0,2,,,1,,,69,64
336960,note_on,,,,,16,0,2,,,1,,,67,116
337024,note_off,,,,,64,0,2,,,1,,,67,64
337040,note_on,,,,,16,0,2,,,1,,,64,116
337104,note_off,,,,,64,0,2,,,1,,,64,64
337120,note_on,,,,,16,0,2,,,1,,,59,116
337152,note_off,,,,,432,0,1,,,0,,,79,64
337152,note_off,,,,,0,0,1,,,0,,,83,64
337152,note_off,,,,,0,0,1,,,0,,,88,64
337152,note_off,,,,,0,0,1,,,0,,,91,64
337184,note_off,,,,,64,0,2,,,1,,,59,64
337200,note_on,,,,,0,0,1,,,0,,,83,116
337200,note_on,,,,,16,0,2,,,1,,,55,116
337200,note_on,,,,,0,0,1,,,0,,,86,116
337200,note_on,,,,,0,0,1,,,0,,,89,116
337200,note_on,,,,,48,0,1,,,0,,,77,116
337264,note_off,,,,,64,0,2,,,1,,,55,64
337280,note_on,,,,,16,0,2,,,1,,,50,116
337344,note_off,,,,,64,0,2,,,1,,,50,64
337360,note_on,,,,,16,0,2,,,1,,,47,116
337424,note_off,,,,,64,0,2,,,1,,,47,64
337440,note_on,,,,,16,0,2,,,1,,,43,116
337504,note_off,,,,,64,0,2,,,1,,,43,64
337520,note_on,,,,,16,0,2,,,1,,,38,116
337584,note_off,,,,,384,0,1,,,0,,,86,64
337584,note_off,,,,,0,0,1,,,0,,,89,64
337584,note_off,,,,,0,0,1,,,0,,,83,64
337584,note_off,,,,,0,0,1,,,0,,,77,64
337584,note_off,,,,,64,0,2,,,1,,,38,64
337600,note_on,,,,,16,0,2,,,1,,,35,116
337664,note_off,,,,,64,0,2,,,1,,,35,64
337680,note_on,,,,,0,0,1,,,0,,,77,116
337680,note_on,,,,,16,0,2,,,1,,,31,116
337680,note_on,,,,,0,0,1,,,0,,,79,116
337680,note_on,,,,,0,0,1,,,0,,,83,116
337680,note_on,,,,,96,0,1,,,0,,,71,116
337744,note_off,,,,,64,0,2,,,1,,,31,64
337760,note_on,,,,,16,0,2,,,1,,,38,116
337824,note_off,,,,,64,0,2,,,1,,,38,64
337840,note_on,,,,,16,0,2,,,1,,,43,116
337872,note_off,,,,,0,0,1,,,0,,,79,64
337872,note_off,,,,,0,0,1,,,0,,,83,64
337872,note_off,,,,,0,0,1,,,0,,,71,64
337872,note_off,,,,,192,0,1,,,0,,,77,64
337904,note_off,,,,,64,0,2,,,1,,,43,64
337920,note_on,,,,,16,0,2,,,1,,,36,116
337920,note_on,,,,,0,0,1,,,0,,,79,116
337920,note_on,,,,,48,0,1,,,0,,,76,116
337920,note_on,,,,,0,0,1,,,0,,,84,116
337920,note_on,,,,,0,0,1,,,0,,,72,116
338112,note_off,,,,,0,0,1,,,0,,,79,64
338112,note_off,,,,,0,0,1,,,0,,,76,64
338112,note_off,,,,,0,0,1,,,0,,,72,64
338112,note_off,,,,,192,0,1,,,0,,,84,64
338112,note_off,,,,,192,0,2,,,1,,,36,64
338280,note_on,,,,,0,0,2,,,1,,,60,116
338280,note_on,,,,,0,0,2,,,1,,,48,116
338280,note_on,,,,,168,0,1,,,0,,,72,116
338280,note_on,,,,,0,0,1,,,0,,,64,116
338280,note_on,,,,,168,0,2,,,1,,,55,116
338280,note_on,,,,,0,0,1,,,0,,,76,116
338376,note_off,,,,,0,0,1,,,0,,,64,64
338376,note_off,,,,,96,0,1,,,0,,,76,64
338376,note_off,,,,,0,0,1,,,0,,,72,64
338376,note_off,,,,,0,0,2,,,1,,,55,64
338376,note_off,,,,,0,0,2,,,1,,,60,64
338376,note_off,,,,,96,0,2,,,1,,,48,64
338400,note_on,,,,,0,0,2,,,1,,,55,116
338400,note_on,,,,,24,0,1,,,0,,,64,116
338400,note_on,,,,,0,0,1,,,0,,,76,116
338400,note_on,,,,,0,0,1,,,0,,,72,116
338400,note_on,,,,,24,0,2,,,1,,,48,116
338400,note_on,,,,,0,0,2,,,1,,,60,116
338592,note_off,,,,,192,0,2,,,1,,,60,64
338592,note_off,,,,,0,0,2,,,1,,,55,64
338592,note_off,,,,,0,0,2,,,1,,,48,64
338592,note_off,,,,,0,0,1,,,0,,,64,64
338592,note_off,,,,,0,0,1,,,0,,,72,64
338592,note_off,,,,,192,0,1,,,0,,,76,64
338640,note_on,,,,,0,0,1,,,0,,,72,116
338640,note_on,,,,,0,0,1,,,0,,,77,116
338640,note_on,,,,,48,0,1,,,0,,,65,116
338640,note_on,,,,,48,0,2,,,1,,,50,116
338640,note_on,,,,,0,0,2,,,1,,,62,116
338736,note_off,,,,,96,0,1,,,0,,,77,64
338736,note_off,,,,,0,0,1,,,0,,,72,64
338736,note_off,,,,,0,0,1,,,0,,,65,64
338736,note_off,,,,,96,0,2,,,1,,,62,64
338736,note_off,,,,,0,0,2,,,1,,,50,64
338760,note_on,,,,,24,0,1,,,0,,,72,116
338760,note_on,,,,,0,0,1,,,0,,,67,116
338760,note_on,,,,,0,0,1,,,0,,,79,116
338760,note_on,,,,,0,0,2,,,1,,,64,116
338760,note_on,,,,,24,0,2,,,1,,,52,116
338856,note_off,,,,,96,0,2,,,1,,,64,64
338856,note_off,,,,,0,0,1,,,0,,,67,64
338856,note_off,,,,,96,0,1,,,0,,,79,64
338856,note_off,,,,,0,0,1,,,0,,,72,64
338856,note_off,,,,,0,0,2,,,1,,,52,64
338880,note_on,,,,,24,0,2,,,1,,,53,116
338880,note_on,,,,,0,0,2,,,1,,,65,116
338880,note_on,,,,,0,0,2,,,1,,,60,116
338880,note_on,,,,,24,0,1,,,0,,,81,116
338880,note_on,,,,,0,0,1,,,0,,,72,116
338880,note_on,,,,,0,0,1,,,0,,,69,116
339072,note_off,,,,,0,0,2,,,1,,,60,64
339072,note_off,,,,,192,0,1,,,0,,,69,64
339072,note_off,,,,,0,0,1,,,0,,,72,64
339072,note_off,,,,,0,0,1,,,0,,,81,64
339072,note_off,,,,,0,0,2,,,1,,,53,64
339072,note_off,,,,,192,0,2,,,1,,,65,64
339120,note_on,,,,,0,0,1,,,0,,,67,116
339120,note_on,,,,,0,0,1,,,0,,,72,116
339120,note_on,,,,,0,0,2,,,1,,,64,116
339120,note_on,,,,,0,0,2,,,1,,,52,116
339120,note_on,,,,,48,0,2,,,1,,,60,116
339120,note_on,,,,,48,0,1,,,0,,,79,116
339312,note_off,,,,,0,0,1,,,0,,,79,64
339312,note_off,,,,,192,0,1,,,0,,,72,64
339312,note_off,,,,,192,0,2,,,1,,,64,64
339312,note_off,,,,,0,0,2,,,1,,,52,64
339312,note_off,,,,,0,0,2,,,1,,,60,64
339312,note_off,,,,,0,0,1,,,0,,,67,64
339720,note_on,,,,,0,0,2,,,1,,,52,116
339720,note_on,,,,,0,0,2,,,1,,,60,116
339720,note_on,,,,,0,0,2,,,1,,,45,116
339720,note_on,,,,,408,0,2,,,1,,,33,116
339720,note_on,,,,,0,0,2,,,1,,,57,116
339816,note_off,,,,,96,0,2,,,1,,,45,64
339816,note_off,,,,,0,0,2,,,1,,,60,64
339816,note_off,,,,,0,0,2,,,1,,,57,64
339816,note_off,,,,,0,0,2,,,1,,,33,64
339816,note_off,,,,,0,0,2,,,1,,,52,64
339840,note_on,,,,,0,0,1,,,0,,,57,116
339840,note_on,,,,,528,0,1,,,0,,,52,116
339840,note_on,,,,,0,0,2,,,1,,,45,116
339840,note_on,,,,,24,0,2,,,1,,,33,116
339840,note_on,,,,,0,0,1,,,0,,,60,116
340224,note_off,,,,,0,0,1,,,0,,,57,64
340224,note_off,,,,,0,0,1,,,0,,,52,64
340224,note_off,,,,,0,0,2,,,1,,,33,64
340224,note_off,,,,,384,0,2,,,1,,,45,64
340224,note_off,,,,,384,0,1,,,0,,,60,64
340320,note_on,,,,,0,0,2,,,1,,,41,116
340320,note_on,,,,,96,0,1,,,0,,,57,116
340320,note_on,,,,,0,0,1,,,0,,,60,116
340320,note_on,,,,,0,0,1,,,0,,,62,116
340320,note_on,,,,,96,0,2,,,1,,,29,116
340512,note_off,,,,,192,0,2,,,1,,,41,64
340512,note_off,,,,,0,0,1,,,0,,,60,64
340512,note_off,,,,,192,0,1,,,0,,,62,64
340512,note_off,,,,,0,0,2,,,1,,,29,64
340512,note_off,,,,,0,0,1,,,0,,,57,64
340560,note_on,,,,,48,0,2,,,1,,,40,116
340560,note_on,,,,,48,0,1,,,0,,,57,116
340560,note_on,,,,,0,0,1,,,0,,,60,116
340560,note_on,,,,,0,0,1,,,0,,,64,116
340560,note_on,,,,,0,0,2,,,1,,,28,116
340752,note_off,,,,,192,0,1,,,0,,,64,64
340752,note_off,,,,,0,0,1,,,0,,,60,64
340752,note_off,,,,,0,0,1,,,0,,,57,64
340752,note_off,,,,,192,0,2,,,1,,,28,64
340752,note_off,,,,,0,0,2,,,1,,,40,64
340800,note_on,,,,,0,0,1,,,0,,,57,116
340800,note_on,,,,,0,0,2,,,1,,,38,116
340800,note_on,,,,,48,0,2,,,1,,,26,116
340800,note_on,,,,,0,0,1,,,0,,,60,116
340800,note_on,,,,,48,0,1,,,0,,,65,116
341184,note_off,,,,,384,0,1,,,0,,,60,64
341184,note_off,,,,,0,0,1,,,0,,,57,64
341184,note_off,,,,,0,0,2,,,1,,,26,64
341184,note_off,,,,,384,0,2,,,1,,,38,64
341280,note_on,,,,,96,0,1,,,0,,,55,116
341280,note_on,,,,,0,0,1,,,0,,,59,116
341280,note_on,,,,,96,0,2,,,1,,,31,116
341280,note_on,,,,,0,0,2,,,1,,,38,116
341568,note_off,,,,,288,0,1,,,0,,,65,64
341664,note_off,,,,,0,0,2,,,1,,,31,64
341664,note_off,,,,,0,0,1,,,0,,,55,64
341664,note_off,,,,,96,0,1,,,0,,,59,64
341664,note_off,,,,,384,0,2,,,1,,,38,64
341760,note_on,,,,,0,0,2,,,1,,,36,116
341760,note_on,,,,,0,0,1,,,0,,,64,116
341760,note_on,,,,,0,0,1,,,0,,,60,116
341760,note_on,,,,,96,0,1,,,0,,,55,116
341760,note_on,,,,,96,0,2,,,1,,,24,116
342528,note_off,,,,,768,0,2,,,1,,,36,64
342528,note_off,,,,,0,0,1,,,0,,,55,64
342528,end_of_track,,,,,0,1,1,,,,,,,
342528,note_off,,,,,768,0,1,,,0,,,64,64
342528,note_off,,,,,0,0,1,,,0,,,60,64
342528,note_off,,,,,0,0,2,,,1,,,24,64
342528,end_of_track,,,,,0,1,2,,,,,,,
