tick,type,numerator,denominator,clocks_per_click,notated_32nd_notes_per_beat,time,meta,track,key,tempo,port,program,channel,control,value,note,velocity
0,time_signature,3,4,24,8,0,1,0,,,,,,,,,
0,control_change,,,,,0,0,2,,,,,1,64,0,,
0,note_on,,,,,0,0,2,,,,,1,,,44,65
0,control_change,,,,,0,0,2,,,,,1,64,127,,
0,program_change,,,,,0,0,2,,,,0,1,,,,
0,track_name,,,,,0,1,2,,,,,,,,,
0,midi_port,,,,,0,1,2,,,0,,,,,,
0,control_change,,,,,0,0,2,,,,,1,10,52,,
0,note_on,,,,,0,0,1,,,,,0,,,72,78
0,control_change,,,,,0,0,2,,,,,1,7,122,,
0,control_change,,,,,0,0,1,,,,,0,10,72,,
0,note_on,,,,,0,0,1,,,,,0,,,63,78
0,midi_port,,,,,0,1,1,,,0,,,,,,
0,end_of_track,,,,,0,1,0,,,,,,,,,
0,program_change,,,,,0,0,1,,,,0,0,,,,
0,key_signature,,,,,0,1,0,C,,,,,,,,
0,control_change,,,,,0,0,1,,,,,0,7,127,,
0,track_name,,,,,0,1,1,,,,,,,,,
0,set_tempo,,,,,0,1,0,,476190,,,,,,,
240,note_on,,,,,240,0,2,,,,,1,,,44,0
240,note_on,,,,,0,0,2,,,,,1,,,51,65
240,note_on,,,,,0,0,2,,,,,1,,,56,65
240,note_on,,,,,0,0,2,,,,,1,,,60,65
356,control_change,,,,,116,0,2,,,,,1,64,0,,
360,note_on,,,,,0,0,1,,,,,0,,,68,78
360,note_on,,,,,0,0,1,,,,,0,,,60,78
360,note_on,,,,,0,0,1,,,,,0,,,63,0
360,note_on,,,,,360,0,1,,,,,0,,,72,0
365,control_change,,,,,9,0,2,,,,,1,64,0,,
480,note_on,,,,,0,0,1,,,,,0,,,60,78
480,note_on,,,,,0,0,2,,,,,1,,,51,0
480,note_on,,,,,0,0,2,,,,,1,,,51,65
480,note_on,,,,,0,0,2,,,,,1,,,48,65
480,note_on,,,,,120,0,1,,,,,0,,,68,0
480,note_on,,,,,0,0,2,,,,,1,,,56,0
480,note_on,,,,,115,0,2,,,,,1,,,60,0
480,note_on,,,,,0,0,2,,,,,1,,,56,65
480,note_on,,,,,0,0,1,,,,,0,,,60,0
480,note_on,,,,,0,0,1,,,,,0,,,68,78
600,note_on,,,,,120,0,1,,,,,0,,,68,0
600,note_on,,,,,0,0,1,,,,,0,,,60,0
600,note_on,,,,,0,0,1,,,,,0,,,63,78
600,note_on,,,,,0,0,1,,,,,0,,,72,78
720,note_on,,,,,0,0,1,,,,,0,,,72,78
720,note_on,,,,,0,0,1,,,,,0,,,63,78
720,note_on,,,,,0,0,1,,,,,0,,,63,0
720,note_on,,,,,120,0,1,,,,,0,,,72,0
720,note_on,,,,,0,0,2,,,,,1,,,32,65
720,note_on,,,,,0,0,2,,,,,1,,,48,0
720,note_on,,,,,0,0,2,,,,,1,,,51,0
720,note_on,,,,,240,0,2,,,,,1,,,56,0
731,control_change,,,,,11,0,2,,,,,1,64,0,,
741,control_change,,,,,10,0,2,,,,,1,64,127,,
960,note_on,,,,,219,0,2,,,,,1,,,32,0
960,note_on,,,,,0,0,2,,,,,1,,,51,65
960,note_on,,,,,0,0,2,,,,,1,,,56,65
960,note_on,,,,,0,0,2,,,,,1,,,60,65
1080,note_on,,,,,360,0,1,,,,,0,,,72,0
1080,note_on,,,,,0,0,1,,,,,0,,,63,0
1080,note_on,,,,,0,0,1,,,,,0,,,60,78
1080,note_on,,,,,0,0,1,,,,,0,,,68,78
1106,control_change,,,,,146,0,2,,,,,1,64,0,,
1116,control_change,,,,,10,0,2,,,,,1,64,0,,
1200,note_on,,,,,0,0,1,,,,,0,,,68,78
1200,note_on,,,,,0,0,1,,,,,0,,,60,78
1200,note_on,,,,,0,0,2,,,,,1,,,48,65
1200,note_on,,,,,0,0,1,,,,,0,,,60,0
1200,note_on,,,,,0,0,2,,,,,1,,,56,65
1200,note_on,,,,,0,0,2,,,,,1,,,51,65
1200,note_on,,,,,84,0,2,,,,,1,,,60,0
1200,note_on,,,,,0,0,2,,,,,1,,,56,0
1200,note_on,,,,,120,0,1,,,,,0,,,68,0
1200,note_on,,,,,0,0,2,,,,,1,,,51,0
1320,note_on,,,,,120,0,1,,,,,0,,,68,0
1320,note_on,,,,,0,0,1,,,,,0,,,60,0
1320,note_on,,,,,0,0,1,,,,,0,,,63,78
1320,note_on,,,,,0,0,1,,,,,0,,,72,78
1440,note_on,,,,,120,0,1,,,,,0,,,72,0
1440,note_on,,,,,0,0,2,,,,,1,,,51,0
1440,note_on,,,,,0,0,2,,,,,1,,,44,65
1440,note_on,,,,,0,0,1,,,,,0,,,73,78
1440,note_on,,,,,0,0,1,,,,,0,,,68,78
1440,note_on,,,,,0,0,1,,,,,0,,,65,78
1440,note_on,,,,,0,0,1,,,,,0,,,63,0
1440,note_on,,,,,240,0,2,,,,,1,,,56,0
1440,note_on,,,,,0,0,2,,,,,1,,,48,0
1453,control_change,,,,,13,0,2,,,,,1,64,127,,
1620,note_on,,,,,0,0,1,,,,,0,,,75,78
1620,note_on,,,,,180,0,1,,,,,0,,,73,0
1650,note_on,,,,,30,0,1,,,,,0,,,75,0
1650,note_on,,,,,0,0,1,,,,,0,,,73,78
1680,note_on,,,,,0,0,2,,,,,1,,,61,65
1680,note_on,,,,,227,0,2,,,,,1,,,44,0
1680,note_on,,,,,0,0,2,,,,,1,,,49,65
1680,note_on,,,,,0,0,2,,,,,1,,,53,65
1680,note_on,,,,,30,0,1,,,,,0,,,73,0
1680,note_on,,,,,0,0,1,,,,,0,,,65,0
1680,note_on,,,,,0,0,1,,,,,0,,,63,78
1680,note_on,,,,,0,0,1,,,,,0,,,68,78
1680,note_on,,,,,0,0,1,,,,,0,,,72,78
1680,note_on,,,,,0,0,1,,,,,0,,,68,0
1920,note_on,,,,,0,0,1,,,,,0,,,68,78
1920,note_on,,,,,0,0,1,,,,,0,,,61,78
1920,note_on,,,,,0,0,1,,,,,0,,,63,0
1920,note_on,,,,,0,0,1,,,,,0,,,68,0
1920,note_on,,,,,240,0,2,,,,,1,,,61,0
1920,note_on,,,,,0,0,2,,,,,1,,,53,0
1920,note_on,,,,,0,0,2,,,,,1,,,53,65
1920,note_on,,,,,0,0,2,,,,,1,,,56,65
1920,note_on,,,,,0,0,2,,,,,1,,,49,0
1920,note_on,,,,,240,0,1,,,,,0,,,72,0
1920,note_on,,,,,0,0,1,,,,,0,,,70,78
1925,control_change,,,,,5,0,2,,,,,1,64,0,,
2160,note_on,,,,,0,0,1,,,,,0,,,68,0
2160,note_on,,,,,0,0,1,,,,,0,,,61,0
2160,note_on,,,,,0,0,1,,,,,0,,,63,78
2160,note_on,,,,,0,0,1,,,,,0,,,68,78
2160,note_on,,,,,0,0,1,,,,,0,,,72,78
2160,note_on,,,,,0,0,2,,,,,1,,,53,0
2160,note_on,,,,,235,0,2,,,,,1,,,56,0
2160,note_on,,,,,0,0,2,,,,,1,,,32,65
2160,note_on,,,,,240,0,1,,,,,0,,,70,0
2184,control_change,,,,,24,0,2,,,,,1,64,127,,
2400,note_on,,,,,0,0,2,,,,,1,,,60,65
2400,note_on,,,,,0,0,2,,,,,1,,,56,65
2400,note_on,,,,,0,0,2,,,,,1,,,51,65
2400,note_on,,,,,216,0,2,,,,,1,,,32,0
2520,note_on,,,,,0,0,1,,,,,0,,,63,0
2520,note_on,,,,,0,0,1,,,,,0,,,68,0
2520,note_on,,,,,360,0,1,,,,,0,,,72,0
2520,note_on,,,,,0,0,1,,,,,0,,,68,78
2521,control_change,,,,,121,0,2,,,,,1,64,0,,
2530,control_change,,,,,9,0,2,,,,,1,64,0,,
2640,note_on,,,,,0,0,1,,,,,0,,,68,78
2640,note_on,,,,,110,0,2,,,,,1,,,60,0
2640,note_on,,,,,0,0,2,,,,,1,,,56,65
2640,note_on,,,,,0,0,2,,,,,1,,,51,65
2640,note_on,,,,,0,0,2,,,,,1,,,48,65
2640,note_on,,,,,0,0,2,,,,,1,,,51,0
2640,note_on,,,,,0,0,2,,,,,1,,,56,0
2640,note_on,,,,,120,0,1,,,,,0,,,68,0
2760,note_on,,,,,0,0,1,,,,,0,,,75,78
2760,note_on,,,,,120,0,1,,,,,0,,,68,0
2760,note_on,,,,,0,0,1,,,,,0,,,72,78
2880,note_on,,,,,0,0,2,,,,,1,,,48,0
2880,note_on,,,,,0,0,2,,,,,1,,,41,65
2880,note_on,,,,,0,0,2,,,,,1,,,51,0
2880,note_on,,,,,240,0,2,,,,,1,,,56,0
2880,note_on,,,,,120,0,1,,,,,0,,,75,0
2880,note_on,,,,,0,0,1,,,,,0,,,72,78
2880,note_on,,,,,0,0,1,,,,,0,,,68,78
2880,note_on,,,,,0,0,1,,,,,0,,,72,0
2880,note_on,,,,,0,0,1,,,,,0,,,77,78
2904,control_change,,,,,24,0,2,,,,,1,64,127,,
3120,note_on,,,,,0,0,2,,,,,1,,,65,65
3120,note_on,,,,,216,0,2,,,,,1,,,41,0
3120,note_on,,,,,0,0,2,,,,,1,,,56,65
3120,note_on,,,,,0,0,2,,,,,1,,,60,65
3120,note_on,,,,,0,0,2,,,,,1,,,53,65
3240,note_on,,,,,0,0,1,,,,,0,,,68,78
3240,note_on,,,,,0,0,1,,,,,0,,,72,78
3240,note_on,,,,,0,0,1,,,,,0,,,68,0
3240,note_on,,,,,0,0,1,,,,,0,,,72,0
3240,note_on,,,,,360,0,1,,,,,0,,,77,0
3243,control_change,,,,,123,0,2,,,,,1,64,0,,
3252,control_change,,,,,9,0,2,,,,,1,64,0,,
3360,note_on,,,,,0,0,1,,,,,0,,,68,78
3360,note_on,,,,,0,0,1,,,,,0,,,68,0
3360,note_on,,,,,120,0,1,,,,,0,,,72,0
3360,note_on,,,,,0,0,1,,,,,0,,,72,78
3360,note_on,,,,,108,0,2,,,,,1,,,65,0
3360,note_on,,,,,0,0,2,,,,,1,,,44,65
3360,note_on,,,,,0,0,2,,,,,1,,,60,0
3360,note_on,,,,,0,0,2,,,,,1,,,56,0
3360,note_on,,,,,0,0,2,,,,,1,,,53,0
3360,note_on,,,,,0,0,2,,,,,1,,,51,65
3480,note_on,,,,,0,0,1,,,,,0,,,68,0
3480,note_on,,,,,120,0,1,,,,,0,,,72,0
3480,note_on,,,,,0,0,1,,,,,0,,,75,78
3600,note_on,,,,,0,0,1,,,,,0,,,77,78
3600,note_on,,,,,120,0,1,,,,,0,,,75,0
3600,note_on,,,,,0,0,1,,,,,0,,,72,78
3600,note_on,,,,,0,0,1,,,,,0,,,68,78
3600,note_on,,,,,240,0,2,,,,,1,,,51,0
3600,note_on,,,,,0,0,2,,,,,1,,,44,0
3600,note_on,,,,,0,0,2,,,,,1,,,41,65
3624,control_change,,,,,24,0,2,,,,,1,64,127,,
3840,note_on,,,,,216,0,2,,,,,1,,,41,0
3840,note_on,,,,,0,0,2,,,,,1,,,53,65
3840,note_on,,,,,0,0,2,,,,,1,,,56,65
3840,note_on,,,,,0,0,2,,,,,1,,,60,65
3840,note_on,,,,,0,0,2,,,,,1,,,65,65
3960,note_on,,,,,360,0,1,,,,,0,,,77,0
3960,note_on,,,,,0,0,1,,,,,0,,,72,0
3960,note_on,,,,,0,0,1,,,,,0,,,68,0
3960,note_on,,,,,0,0,1,,,,,0,,,68,78
3960,note_on,,,,,0,0,1,,,,,0,,,72,78
3964,control_change,,,,,124,0,2,,,,,1,64,0,,
4080,note_on,,,,,0,0,2,,,,,1,,,51,65
4080,note_on,,,,,116,0,2,,,,,1,,,65,0
4080,note_on,,,,,0,0,2,,,,,1,,,53,0
4080,note_on,,,,,120,0,1,,,,,0,,,72,0
4080,note_on,,,,,0,0,1,,,,,0,,,68,0
4080,note_on,,,,,0,0,1,,,,,0,,,68,78
4080,note_on,,,,,0,0,2,,,,,1,,,44,65
4080,note_on,,,,,0,0,2,,,,,1,,,60,0
4080,note_on,,,,,0,0,1,,,,,0,,,72,78
4080,note_on,,,,,0,0,2,,,,,1,,,56,0
4200,note_on,,,,,0,0,1,,,,,0,,,68,0
4200,note_on,,,,,0,0,1,,,,,0,,,75,78
4200,note_on,,,,,120,0,1,,,,,0,,,72,0
4320,note_on,,,,,120,0,1,,,,,0,,,75,0
4320,note_on,,,,,0,0,1,,,,,0,,,67,78
4320,note_on,,,,,0,0,1,,,,,0,,,79,78
4320,note_on,,,,,0,0,2,,,,,1,,,39,65
4320,note_on,,,,,0,0,2,,,,,1,,,44,0
4320,note_on,,,,,240,0,2,,,,,1,,,51,0
4320,note_on,,,,,0,0,1,,,,,0,,,72,78
4332,control_change,,,,,12,0,2,,,,,1,64,127,,
4440,note_on,,,,,120,0,1,,,,,0,,,79,0
4440,note_on,,,,,0,0,1,,,,,0,,,77,78
4560,note_on,,,,,0,0,1,,,,,0,,,72,78
4560,note_on,,,,,0,0,1,,,,,0,,,75,78
4560,note_on,,,,,0,0,1,,,,,0,,,72,0
4560,note_on,,,,,120,0,1,,,,,0,,,77,0
4560,note_on,,,,,0,0,1,,,,,0,,,67,78
4560,note_on,,,,,0,0,2,,,,,1,,,51,65
4560,note_on,,,,,0,0,2,,,,,1,,,55,65
4560,note_on,,,,,228,0,2,,,,,1,,,39,0
4560,note_on,,,,,0,0,2,,,,,1,,,60,65
4560,note_on,,,,,0,0,1,,,,,0,,,67,0
4800,note_on,,,,,240,0,2,,,,,1,,,60,0
4800,note_on,,,,,0,0,2,,,,,1,,,55,0
4800,note_on,,,,,0,0,2,,,,,1,,,51,0
4800,note_on,,,,,0,0,2,,,,,1,,,43,65
4800,note_on,,,,,0,0,2,,,,,1,,,53,65
4800,note_on,,,,,0,0,1,,,,,0,,,74,78
4800,note_on,,,,,0,0,1,,,,,0,,,71,78
4800,note_on,,,,,0,0,1,,,,,0,,,65,78
4800,note_on,,,,,0,0,1,,,,,0,,,67,0
4800,note_on,,,,,0,0,1,,,,,0,,,72,0
4800,note_on,,,,,240,0,1,,,,,0,,,75,0
4800,note_on,,,,,0,0,2,,,,,1,,,59,65
4802,control_change,,,,,2,0,2,,,,,1,64,0,,
4811,control_change,,,,,9,0,2,,,,,1,64,0,,
5040,note_on,,,,,229,0,2,,,,,1,,,59,0
5040,note_on,,,,,0,0,2,,,,,1,,,36,65
5040,note_on,,,,,0,0,2,,,,,1,,,43,0
5040,note_on,,,,,0,0,1,,,,,0,,,65,0
5040,note_on,,,,,0,0,1,,,,,0,,,75,78
5040,note_on,,,,,240,0,1,,,,,0,,,74,0
5040,note_on,,,,,0,0,1,,,,,0,,,72,78
5040,note_on,,,,,0,0,1,,,,,0,,,67,78
5040,note_on,,,,,0,0,2,,,,,1,,,53,0
5040,note_on,,,,,0,0,1,,,,,0,,,71,0
5052,control_change,,,,,12,0,2,,,,,1,64,0,,
5061,control_change,,,,,9,0,2,,,,,1,64,127,,
5280,note_on,,,,,0,0,2,,,,,1,,,60,65
5280,note_on,,,,,219,0,2,,,,,1,,,36,0
5280,note_on,,,,,0,0,2,,,,,1,,,55,65
5280,note_on,,,,,0,0,2,,,,,1,,,51,65
5400,note_on,,,,,0,0,1,,,,,0,,,67,78
5400,note_on,,,,,0,0,1,,,,,0,,,63,78
5400,note_on,,,,,0,0,1,,,,,0,,,67,0
5400,note_on,,,,,360,0,1,,,,,0,,,75,0
5400,note_on,,,,,0,0,1,,,,,0,,,72,0
5514,control_change,,,,,234,0,2,,,,,1,64,0,,
5520,note_on,,,,,0,0,2,,,,,1,,,51,65
5520,note_on,,,,,6,0,2,,,,,1,,,60,0
5520,note_on,,,,,0,0,2,,,,,1,,,48,65
5520,note_on,,,,,0,0,2,,,,,1,,,51,0
5520,note_on,,,,,0,0,2,,,,,1,,,55,0
5520,note_on,,,,,120,0,1,,,,,0,,,67,0
5520,note_on,,,,,0,0,1,,,,,0,,,63,0
5520,note_on,,,,,0,0,1,,,,,0,,,63,78
5520,note_on,,,,,0,0,1,,,,,0,,,67,78
5523,control_change,,,,,3,0,2,,,,,1,64,0,,
5640,note_on,,,,,0,0,1,,,,,0,,,63,0
5640,note_on,,,,,120,0,1,,,,,0,,,67,0
5640,note_on,,,,,0,0,1,,,,,0,,,72,78
5760,note_on,,,,,0,0,2,,,,,1,,,48,0
5760,note_on,,,,,237,0,2,,,,,1,,,51,0
5760,note_on,,,,,0,0,2,,,,,1,,,44,65
5760,note_on,,,,,120,0,1,,,,,0,,,72,0
5760,note_on,,,,,0,0,1,,,,,0,,,63,78
5760,note_on,,,,,0,0,1,,,,,0,,,72,78
5764,control_change,,,,,4,0,2,,,,,1,64,127,,
6000,note_on,,,,,0,0,2,,,,,1,,,56,65
6000,note_on,,,,,0,0,2,,,,,1,,,60,65
6000,note_on,,,,,0,0,2,,,,,1,,,51,65
6000,note_on,,,,,236,0,2,,,,,1,,,44,0
6101,control_change,,,,,101,0,2,,,,,1,64,0,,
6110,control_change,,,,,9,0,2,,,,,1,64,0,,
6120,note_on,,,,,0,0,1,,,,,0,,,60,78
6120,note_on,,,,,0,0,1,,,,,0,,,63,0
6120,note_on,,,,,360,0,1,,,,,0,,,72,0
6120,note_on,,,,,0,0,1,,,,,0,,,68,78
6240,note_on,,,,,0,0,1,,,,,0,,,60,0
6240,note_on,,,,,0,0,1,,,,,0,,,60,78
6240,note_on,,,,,0,0,1,,,,,0,,,68,78
6240,note_on,,,,,0,0,2,,,,,1,,,56,0
6240,note_on,,,,,0,0,2,,,,,1,,,51,0
6240,note_on,,,,,0,0,2,,,,,1,,,48,65
6240,note_on,,,,,0,0,2,,,,,1,,,51,65
6240,note_on,,,,,0,0,2,,,,,1,,,56,65
6240,note_on,,,,,120,0,1,,,,,0,,,68,0
6240,note_on,,,,,130,0,2,,,,,1,,,60,0
6360,note_on,,,,,120,0,1,,,,,0,,,68,0
6360,note_on,,,,,0,0,1,,,,,0,,,60,0
6360,note_on,,,,,0,0,1,,,,,0,,,63,78
6360,note_on,,,,,0,0,1,,,,,0,,,72,78
6480,note_on,,,,,120,0,1,,,,,0,,,72,0
6480,note_on,,,,,0,0,1,,,,,0,,,63,0
6480,note_on,,,,,0,0,2,,,,,1,,,32,65
6480,note_on,,,,,0,0,2,,,,,1,,,48,0
6480,note_on,,,,,0,0,2,,,,,1,,,51,0
6480,note_on,,,,,240,0,2,,,,,1,,,56,0
6480,note_on,,,,,0,0,1,,,,,0,,,63,78
6480,note_on,,,,,0,0,1,,,,,0,,,72,78
6495,control_change,,,,,15,0,2,,,,,1,64,127,,
6720,note_on,,,,,0,0,2,,,,,1,,,51,65
6720,note_on,,,,,0,0,2,,,,,1,,,56,65
6720,note_on,,,,,0,0,2,,,,,1,,,60,65
6720,note_on,,,,,225,0,2,,,,,1,,,32,0
6840,note_on,,,,,0,0,1,,,,,0,,,68,78
6840,note_on,,,,,0,0,1,,,,,0,,,60,78
6840,note_on,,,,,0,0,1,,,,,0,,,63,0
6840,note_on,,,,,360,0,1,,,,,0,,,72,0
6880,control_change,,,,,160,0,2,,,,,1,64,0,,
6960,note_on,,,,,0,0,1,,,,,0,,,68,78
6960,note_on,,,,,0,0,1,,,,,0,,,60,78
6960,note_on,,,,,0,0,1,,,,,0,,,60,0
6960,note_on,,,,,120,0,1,,,,,0,,,68,0
6960,note_on,,,,,0,0,2,,,,,1,,,51,65
6960,note_on,,,,,80,0,2,,,,,1,,,60,0
6960,note_on,,,,,0,0,2,,,,,1,,,56,0
6960,note_on,,,,,0,0,2,,,,,1,,,51,0
6960,note_on,,,,,0,0,2,,,,,1,,,48,65
6960,note_on,,,,,0,0,2,,,,,1,,,56,65
7080,note_on,,,,,120,0,1,,,,,0,,,68,0
7080,note_on,,,,,0,0,1,,,,,0,,,60,0
7080,note_on,,,,,0,0,1,,,,,0,,,63,78
7080,note_on,,,,,0,0,1,,,,,0,,,72,78
7188,control_change,,,,,228,0,2,,,,,1,64,0,,
7198,control_change,,,,,10,0,2,,,,,1,64,127,,
7200,note_on,,,,,0,0,2,,,,,1,,,48,0
7200,note_on,,,,,0,0,2,,,,,1,,,51,0
7200,note_on,,,,,2,0,2,,,,,1,,,56,0
7200,note_on,,,,,120,0,1,,,,,0,,,72,0
7200,note_on,,,,,0,0,1,,,,,0,,,63,0
7200,note_on,,,,,0,0,1,,,,,0,,,65,78
7200,note_on,,,,,0,0,1,,,,,0,,,68,78
7200,note_on,,,,,0,0,1,,,,,0,,,73,78
7200,note_on,,,,,0,0,2,,,,,1,,,44,65
7380,note_on,,,,,180,0,1,,,,,0,,,73,0
7380,note_on,,,,,0,0,1,,,,,0,,,75,78
7410,note_on,,,,,30,0,1,,,,,0,,,75,0
7410,note_on,,,,,0,0,1,,,,,0,,,73,78
7440,note_on,,,,,0,0,1,,,,,0,,,68,78
7440,note_on,,,,,0,0,1,,,,,0,,,72,78
7440,note_on,,,,,0,0,1,,,,,0,,,63,78
7440,note_on,,,,,0,0,1,,,,,0,,,68,0
7440,note_on,,,,,30,0,1,,,,,0,,,73,0
7440,note_on,,,,,240,0,2,,,,,1,,,44,0
7440,note_on,,,,,0,0,2,,,,,1,,,49,65
7440,note_on,,,,,0,0,2,,,,,1,,,53,65
7440,note_on,,,,,0,0,2,,,,,1,,,61,65
7440,note_on,,,,,0,0,1,,,,,0,,,65,0
7669,control_change,,,,,229,0,2,,,,,1,64,0,,
7679,control_change,,,,,10,0,2,,,,,1,64,0,,
7680,note_on,,,,,0,0,1,,,,,0,,,63,0
7680,note_on,,,,,0,0,2,,,,,1,,,53,65
7680,note_on,,,,,0,0,1,,,,,0,,,70,78
7680,note_on,,,,,0,0,1,,,,,0,,,68,78
7680,note_on,,,,,0,0,1,,,,,0,,,61,78
7680,note_on,,,,,240,0,1,,,,,0,,,72,0
7680,note_on,,,,,0,0,1,,,,,0,,,68,0
7680,note_on,,,,,0,0,2,,,,,1,,,53,0
7680,note_on,,,,,1,0,2,,,,,1,,,61,0
7680,note_on,,,,,0,0,2,,,,,1,,,49,0
7680,note_on,,,,,0,0,2,,,,,1,,,56,65
7910,control_change,,,,,230,0,2,,,,,1,64,0,,
7919,control_change,,,,,9,0,2,,,,,1,64,127,,
7920,note_on,,,,,0,0,1,,,,,0,,,68,78
7920,note_on,,,,,0,0,1,,,,,0,,,72,78
7920,note_on,,,,,1,0,2,,,,,1,,,56,0
7920,note_on,,,,,0,0,2,,,,,1,,,32,65
7920,note_on,,,,,0,0,2,,,,,1,,,53,0
7920,note_on,,,,,0,0,1,,,,,0,,,61,0
7920,note_on,,,,,0,0,1,,,,,0,,,63,78
7920,note_on,,,,,0,0,1,,,,,0,,,68,0
7920,note_on,,,,,240,0,1,,,,,0,,,70,0
8160,note_on,,,,,240,0,2,,,,,1,,,32,0
8160,note_on,,,,,0,0,2,,,,,1,,,51,65
8160,note_on,,,,,0,0,2,,,,,1,,,56,65
8160,note_on,,,,,0,0,2,,,,,1,,,60,65
8266,control_change,,,,,106,0,2,,,,,1,64,0,,
8275,control_change,,,,,9,0,2,,,,,1,64,0,,
8280,note_on,,,,,360,0,1,,,,,0,,,72,0
8280,note_on,,,,,0,0,1,,,,,0,,,68,0
8280,note_on,,,,,0,0,1,,,,,0,,,63,0
8280,note_on,,,,,0,0,1,,,,,0,,,68,78
8400,note_on,,,,,125,0,2,,,,,1,,,60,0
8400,note_on,,,,,0,0,2,,,,,1,,,56,65
8400,note_on,,,,,0,0,2,,,,,1,,,51,65
8400,note_on,,,,,0,0,2,,,,,1,,,48,65
8400,note_on,,,,,0,0,2,,,,,1,,,51,0
8400,note_on,,,,,0,0,1,,,,,0,,,68,78
8400,note_on,,,,,120,0,1,,,,,0,,,68,0
8400,note_on,,,,,0,0,2,,,,,1,,,56,0
8520,note_on,,,,,0,0,1,,,,,0,,,75,78
8520,note_on,,,,,120,0,1,,,,,0,,,68,0
8520,note_on,,,,,0,0,1,,,,,0,,,72,78
8640,note_on,,,,,240,0,2,,,,,1,,,56,0
8640,note_on,,,,,0,0,1,,,,,0,,,72,78
8640,note_on,,,,,0,0,1,,,,,0,,,77,78
8640,note_on,,,,,0,0,2,,,,,1,,,48,0
8640,note_on,,,,,0,0,2,,,,,1,,,51,0
8640,note_on,,,,,0,0,2,,,,,1,,,41,65
8640,note_on,,,,,120,0,1,,,,,0,,,75,0
8640,note_on,,,,,0,0,1,,,,,0,,,72,0
8640,note_on,,,,,0,0,1,,,,,0,,,68,78
8641,control_change,,,,,1,0,2,,,,,1,64,127,,
8880,note_on,,,,,0,0,2,,,,,1,,,65,65
8880,note_on,,,,,0,0,2,,,,,1,,,60,65
8880,note_on,,,,,0,0,2,,,,,1,,,56,65
8880,note_on,,,,,0,0,2,,,,,1,,,53,65
8880,note_on,,,,,239,0,2,,,,,1,,,41,0
8997,control_change,,,,,117,0,2,,,,,1,64,0,,
9000,note_on,,,,,360,0,1,,,,,0,,,77,0
9000,note_on,,,,,0,0,1,,,,,0,,,72,0
9000,note_on,,,,,0,0,1,,,,,0,,,68,0
9000,note_on,,,,,0,0,1,,,,,0,,,68,78
9000,note_on,,,,,0,0,1,,,,,0,,,72,78
9007,control_change,,,,,10,0,2,,,,,1,64,0,,
9120,note_on,,,,,0,0,2,,,,,1,,,53,0
9120,note_on,,,,,0,0,2,,,,,1,,,56,0
9120,note_on,,,,,0,0,2,,,,,1,,,44,65
9120,note_on,,,,,0,0,2,,,,,1,,,51,65
9120,note_on,,,,,113,0,2,,,,,1,,,65,0
9120,note_on,,,,,0,0,2,,,,,1,,,60,0
9120,note_on,,,,,0,0,1,,,,,0,,,72,78
9120,note_on,,,,,0,0,1,,,,,0,,,68,78
9120,note_on,,,,,0,0,1,,,,,0,,,68,0
9120,note_on,,,,,120,0,1,,,,,0,,,72,0
9240,note_on,,,,,0,0,1,,,,,0,,,75,78
9240,note_on,,,,,120,0,1,,,,,0,,,72,0
9240,note_on,,,,,0,0,1,,,,,0,,,68,0
9360,note_on,,,,,240,0,2,,,,,1,,,51,0
9360,note_on,,,,,0,0,1,,,,,0,,,72,78
9360,note_on,,,,,0,0,2,,,,,1,,,41,65
9360,note_on,,,,,0,0,1,,,,,0,,,68,78
9360,note_on,,,,,120,0,1,,,,,0,,,75,0
9360,note_on,,,,,0,0,1,,,,,0,,,77,78
9360,note_on,,,,,0,0,2,,,,,1,,,44,0
9373,control_change,,,,,13,0,2,,,,,1,64,127,,
9600,note_on,,,,,0,0,2,,,,,1,,,65,65
9600,note_on,,,,,0,0,2,,,,,1,,,60,65
9600,note_on,,,,,227,0,2,,,,,1,,,41,0
9600,note_on,,,,,0,0,2,,,,,1,,,53,65
9600,note_on,,,,,0,0,2,,,,,1,,,56,65
9700,control_change,,,,,100,0,2,,,,,1,64,0,,
9709,control_change,,,,,9,0,2,,,,,1,64,0,,
9720,note_on,,,,,0,0,1,,,,,0,,,72,78
9720,note_on,,,,,0,0,1,,,,,0,,,68,0
9720,note_on,,,,,0,0,1,,,,,0,,,72,0
9720,note_on,,,,,360,0,1,,,,,0,,,77,0
9720,note_on,,,,,0,0,1,,,,,0,,,68,78
9840,note_on,,,,,0,0,2,,,,,1,,,53,0
9840,note_on,,,,,0,0,2,,,,,1,,,56,0
9840,note_on,,,,,0,0,2,,,,,1,,,60,0
9840,note_on,,,,,0,0,2,,,,,1,,,44,65
9840,note_on,,,,,0,0,2,,,,,1,,,51,65
9840,note_on,,,,,0,0,1,,,,,0,,,68,78
9840,note_on,,,,,0,0,1,,,,,0,,,68,0
9840,note_on,,,,,120,0,1,,,,,0,,,72,0
9840,note_on,,,,,131,0,2,,,,,1,,,65,0
9840,note_on,,,,,0,0,1,,,,,0,,,72,78
9960,note_on,,,,,0,0,1,,,,,0,,,75,78
9960,note_on,,,,,0,0,1,,,,,0,,,68,0
9960,note_on,,,,,120,0,1,,,,,0,,,72,0
10075,control_change,,,,,235,0,2,,,,,1,64,0,,
10080,note_on,,,,,120,0,1,,,,,0,,,75,0
10080,note_on,,,,,0,0,2,,,,,1,,,44,0
10080,note_on,,,,,0,0,1,,,,,0,,,67,78
10080,note_on,,,,,0,0,1,,,,,0,,,72,78
10080,note_on,,,,,0,0,1,,,,,0,,,79,78
10080,note_on,,,,,0,0,2,,,,,1,,,39,65
10080,note_on,,,,,5,0,2,,,,,1,,,51,0
10085,control_change,,,,,5,0,2,,,,,1,64,127,,
10200,note_on,,,,,120,0,1,,,,,0,,,79,0
10200,note_on,,,,,0,0,1,,,,,0,,,77,78
10320,note_on,,,,,120,0,1,,,,,0,,,77,0
10320,note_on,,,,,0,0,1,,,,,0,,,72,0
10320,note_on,,,,,0,0,1,,,,,0,,,67,0
10320,note_on,,,,,0,0,1,,,,,0,,,67,78
10320,note_on,,,,,0,0,1,,,,,0,,,72,78
10320,note_on,,,,,0,0,1,,,,,0,,,75,78
10320,note_on,,,,,0,0,2,,,,,1,,,60,65
10320,note_on,,,,,0,0,2,,,,,1,,,55,65
10320,note_on,,,,,0,0,2,,,,,1,,,51,65
10320,note_on,,,,,235,0,2,,,,,1,,,39,0
10537,control_change,,,,,217,0,2,,,,,1,64,0,,
10547,control_change,,,,,10,0,2,,,,,1,64,0,,
10560,note_on,,,,,0,0,1,,,,,0,,,71,78
10560,note_on,,,,,240,0,1,,,,,0,,,75,0
10560,note_on,,,,,0,0,1,,,,,0,,,65,78
10560,note_on,,,,,0,0,1,,,,,0,,,74,78
10560,note_on,,,,,0,0,1,,,,,0,,,67,0
10560,note_on,,,,,0,0,1,,,,,0,,,72,0
10560,note_on,,,,,0,0,2,,,,,1,,,59,65
10560,note_on,,,,,0,0,2,,,,,1,,,53,65
10560,note_on,,,,,0,0,2,,,,,1,,,43,65
10560,note_on,,,,,0,0,2,,,,,1,,,51,0
10560,note_on,,,,,0,0,2,,,,,1,,,55,0
10560,note_on,,,,,13,0,2,,,,,1,,,60,0
10800,note_on,,,,,0,0,1,,,,,0,,,71,0
10800,note_on,,,,,0,0,1,,,,,0,,,65,0
10800,note_on,,,,,0,0,1,,,,,0,,,72,78
10800,note_on,,,,,0,0,1,,,,,0,,,75,78
10800,note_on,,,,,240,0,1,,,,,0,,,74,0
10800,note_on,,,,,0,0,1,,,,,0,,,67,78
10800,note_on,,,,,0,0,2,,,,,1,,,43,0
10800,note_on,,,,,240,0,2,,,,,1,,,59,0
10800,note_on,,,,,0,0,2,,,,,1,,,36,65
10800,note_on,,,,,0,0,2,,,,,1,,,53,0
10826,control_change,,,,,26,0,2,,,,,1,64,0,,
10835,control_change,,,,,9,0,2,,,,,1,64,127,,
11040,note_on,,,,,0,0,2,,,,,1,,,60,65
11040,note_on,,,,,0,0,2,,,,,1,,,55,65
11040,note_on,,,,,0,0,2,,,,,1,,,51,65
11040,note_on,,,,,205,0,2,,,,,1,,,36,0
11160,note_on,,,,,0,0,1,,,,,0,,,67,0
11160,note_on,,,,,0,0,1,,,,,0,,,63,78
11160,note_on,,,,,360,0,1,,,,,0,,,75,0
11160,note_on,,,,,0,0,1,,,,,0,,,72,78
11160,note_on,,,,,0,0,1,,,,,0,,,72,0
11160,note_on,,,,,0,0,1,,,,,0,,,67,78
11259,control_change,,,,,219,0,2,,,,,1,64,0,,
11268,control_change,,,,,9,0,2,,,,,1,64,0,,
11280,note_on,,,,,0,0,1,,,,,0,,,63,78
11280,note_on,,,,,0,0,1,,,,,0,,,63,0
11280,note_on,,,,,0,0,1,,,,,0,,,67,0
11280,note_on,,,,,120,0,1,,,,,0,,,72,0
11280,note_on,,,,,0,0,1,,,,,0,,,72,78
11280,note_on,,,,,12,0,2,,,,,1,,,60,0
11280,note_on,,,,,0,0,2,,,,,1,,,55,0
11280,note_on,,,,,0,0,2,,,,,1,,,55,65
11280,note_on,,,,,0,0,2,,,,,1,,,48,65
11280,note_on,,,,,0,0,2,,,,,1,,,51,65
11280,note_on,,,,,0,0,1,,,,,0,,,67,78
11280,note_on,,,,,0,0,2,,,,,1,,,51,0
11400,note_on,,,,,120,0,1,,,,,0,,,72,0
11400,note_on,,,,,0,0,1,,,,,0,,,67,0
11400,note_on,,,,,0,0,1,,,,,0,,,63,0
11400,note_on,,,,,0,0,1,,,,,0,,,75,78
11520,note_on,,,,,0,0,1,,,,,0,,,70,78
11520,note_on,,,,,120,0,1,,,,,0,,,75,0
11520,note_on,,,,,0,0,1,,,,,0,,,63,78
11520,note_on,,,,,0,0,1,,,,,0,,,67,78
11520,note_on,,,,,0,0,1,,,,,0,,,75,78
11520,note_on,,,,,0,0,1,,,,,0,,,73,78
11520,note_on,,,,,240,0,2,,,,,1,,,55,0
11520,note_on,,,,,0,0,2,,,,,1,,,51,0
11520,note_on,,,,,0,0,2,,,,,1,,,48,0
11520,note_on,,,,,0,0,2,,,,,1,,,39,65
11538,control_change,,,,,18,0,2,,,,,1,64,0,,
11547,control_change,,,,,9,0,2,,,,,1,64,127,,
11760,note_on,,,,,213,0,2,,,,,1,,,39,0
11760,note_on,,,,,0,0,2,,,,,1,,,51,65
11760,note_on,,,,,0,0,2,,,,,1,,,55,65
11760,note_on,,,,,0,0,2,,,,,1,,,61,65
11880,note_on,,,,,360,0,1,,,,,0,,,75,0
11880,note_on,,,,,0,0,1,,,,,0,,,70,0
11880,note_on,,,,,0,0,1,,,,,0,,,63,0
11880,note_on,,,,,0,0,1,,,,,0,,,63,78
11880,note_on,,,,,0,0,1,,,,,0,,,67,78
11880,note_on,,,,,0,0,1,,,,,0,,,67,0
11880,note_on,,,,,0,0,1,,,,,0,,,73,0
11880,note_on,,,,,0,0,1,,,,,0,,,70,78
12000,note_on,,,,,0,0,2,,,,,1,,,55,65
12000,note_on,,,,,0,0,2,,,,,1,,,51,65
12000,note_on,,,,,0,0,2,,,,,1,,,51,0
12000,note_on,,,,,0,0,2,,,,,1,,,55,0
12000,note_on,,,,,240,0,2,,,,,1,,,61,0
12000,note_on,,,,,120,0,1,,,,,0,,,70,0
12000,note_on,,,,,0,0,1,,,,,0,,,63,78
12000,note_on,,,,,0,0,1,,,,,0,,,67,0
12000,note_on,,,,,0,0,1,,,,,0,,,63,0
12000,note_on,,,,,0,0,1,,,,,0,,,67,78
12000,note_on,,,,,0,0,1,,,,,0,,,70,78
12120,note_on,,,,,120,0,1,,,,,0,,,70,0
12120,note_on,,,,,0,0,1,,,,,0,,,67,0
12120,note_on,,,,,0,0,1,,,,,0,,,75,78
12120,note_on,,,,,0,0,1,,,,,0,,,73,78
12120,note_on,,,,,0,0,1,,,,,0,,,63,0
12192,control_change,,,,,192,0,2,,,,,1,64,0,,
12202,control_change,,,,,10,0,2,,,,,1,64,0,,
12240,note_on,,,,,0,0,2,,,,,1,,,44,65
12240,note_on,,,,,0,0,2,,,,,1,,,51,0
12240,note_on,,,,,38,0,2,,,,,1,,,55,0
12240,note_on,,,,,0,0,1,,,,,0,,,73,0
12240,note_on,,,,,120,0,1,,,,,0,,,75,0
12240,note_on,,,,,0,0,1,,,,,0,,,75,78
12240,note_on,,,,,0,0,1,,,,,0,,,72,78
12240,note_on,,,,,0,0,1,,,,,0,,,63,78
12240,note_on,,,,,0,0,1,,,,,0,,,68,78
12269,control_change,,,,,29,0,2,,,,,1,64,127,,
12480,note_on,,,,,0,0,2,,,,,1,,,51,65
12480,note_on,,,,,211,0,2,,,,,1,,,44,0
12480,note_on,,,,,0,0,2,,,,,1,,,56,65
12480,note_on,,,,,0,0,2,,,,,1,,,60,65
12600,note_on,,,,,0,0,1,,,,,0,,,63,0
12600,note_on,,,,,0,0,1,,,,,0,,,68,0
12600,note_on,,,,,0,0,1,,,,,0,,,72,0
12600,note_on,,,,,0,0,1,,,,,0,,,68,78
12600,note_on,,,,,0,0,1,,,,,0,,,72,78
12600,note_on,,,,,360,0,1,,,,,0,,,75,0
12720,note_on,,,,,120,0,1,,,,,0,,,72,0
12720,note_on,,,,,0,0,1,,,,,0,,,68,0
12720,note_on,,,,,0,0,1,,,,,0,,,68,78
12720,note_on,,,,,0,0,1,,,,,0,,,72,78
12720,note_on,,,,,240,0,2,,,,,1,,,60,0
12720,note_on,,,,,0,0,2,,,,,1,,,56,65
12720,note_on,,,,,0,0,2,,,,,1,,,51,65
12720,note_on,,,,,0,0,2,,,,,1,,,51,0
12720,note_on,,,,,0,0,2,,,,,1,,,56,0
12840,note_on,,,,,120,0,1,,,,,0,,,72,0
12840,note_on,,,,,0,0,1,,,,,0,,,75,78
12840,note_on,,,,,0,0,1,,,,,0,,,68,0
12885,control_change,,,,,165,0,2,,,,,1,64,0,,
12960,note_on,,,,,120,0,1,,,,,0,,,75,0
12960,note_on,,,,,0,0,1,,,,,0,,,68,78
12960,note_on,,,,,0,0,1,,,,,0,,,72,78
12960,note_on,,,,,0,0,1,,,,,0,,,75,78
12960,note_on,,,,,0,0,1,,,,,0,,,78,78
12960,note_on,,,,,0,0,1,,,,,0,,,80,78
12960,note_on,,,,,0,0,2,,,,,1,,,32,65
12960,note_on,,,,,75,0,2,,,,,1,,,56,0
12960,note_on,,,,,0,0,2,,,,,1,,,51,0
12962,control_change,,,,,2,0,2,,,,,1,64,0,,
12972,control_change,,,,,10,0,2,,,,,1,64,127,,
13200,note_on,,,,,228,0,2,,,,,1,,,32,0
13200,note_on,,,,,0,0,2,,,,,1,,,56,65
13200,note_on,,,,,0,0,2,,,,,1,,,60,65
13200,note_on,,,,,0,0,2,,,,,1,,,66,65
13320,note_on,,,,,0,0,1,,,,,0,,,75,78
13320,note_on,,,,,0,0,1,,,,,0,,,68,78
13320,note_on,,,,,0,0,1,,,,,0,,,78,0
13320,note_on,,,,,0,0,1,,,,,0,,,72,0
13320,note_on,,,,,360,0,1,,,,,0,,,80,0
13320,note_on,,,,,0,0,1,,,,,0,,,68,0
13320,note_on,,,,,0,0,1,,,,,0,,,75,0
13320,note_on,,,,,0,0,1,,,,,0,,,72,78
13440,note_on,,,,,0,0,2,,,,,1,,,56,0
13440,note_on,,,,,240,0,2,,,,,1,,,66,0
13440,note_on,,,,,0,0,2,,,,,1,,,60,0
13440,note_on,,,,,0,0,2,,,,,1,,,60,65
13440,note_on,,,,,0,0,2,,,,,1,,,56,65
13440,note_on,,,,,0,0,1,,,,,0,,,72,78
13440,note_on,,,,,0,0,1,,,,,0,,,75,78
13440,note_on,,,,,120,0,1,,,,,0,,,75,0
13440,note_on,,,,,0,0,1,,,,,0,,,68,78
13440,note_on,,,,,0,0,1,,,,,0,,,68,0
13440,note_on,,,,,0,0,1,,,,,0,,,72,0
13560,note_on,,,,,0,0,1,,,,,0,,,80,78
13560,note_on,,,,,0,0,1,,,,,0,,,78,78
13560,note_on,,,,,0,0,1,,,,,0,,,68,0
13560,note_on,,,,,0,0,1,,,,,0,,,72,0
13560,note_on,,,,,120,0,1,,,,,0,,,75,0
13607,control_change,,,,,167,0,2,,,,,1,64,0,,
13616,control_change,,,,,9,0,2,,,,,1,64,0,,
13680,note_on,,,,,64,0,2,,,,,1,,,60,0
13680,note_on,,,,,0,0,2,,,,,1,,,56,0
13680,note_on,,,,,120,0,1,,,,,0,,,80,0
13680,note_on,,,,,0,0,2,,,,,1,,,37,65
13680,note_on,,,,,0,0,1,,,,,0,,,80,78
13680,note_on,,,,,0,0,1,,,,,0,,,77,78
13680,note_on,,,,,0,0,1,,,,,0,,,73,78
13680,note_on,,,,,0,0,1,,,,,0,,,78,0
13680,note_on,,,,,0,0,1,,,,,0,,,68,78
13693,control_change,,,,,13,0,2,,,,,1,64,0,,
13703,control_change,,,,,10,0,2,,,,,1,64,127,,
13920,note_on,,,,,217,0,2,,,,,1,,,37,0
13920,note_on,,,,,0,0,2,,,,,1,,,56,65
13920,note_on,,,,,0,0,2,,,,,1,,,61,65
13920,note_on,,,,,0,0,2,,,,,1,,,65,65
14040,note_on,,,,,0,0,1,,,,,0,,,68,78
14040,note_on,,,,,360,0,1,,,,,0,,,80,0
14040,note_on,,,,,0,0,1,,,,,0,,,68,0
14040,note_on,,,,,0,0,1,,,,,0,,,73,0
14040,note_on,,,,,0,0,1,,,,,0,,,77,0
14040,note_on,,,,,0,0,1,,,,,0,,,73,78
14040,note_on,,,,,0,0,1,,,,,0,,,77,78
14160,note_on,,,,,0,0,1,,,,,0,,,77,78
14160,note_on,,,,,0,0,1,,,,,0,,,68,0
14160,note_on,,,,,0,0,1,,,,,0,,,73,78
14160,note_on,,,,,0,0,1,,,,,0,,,68,78
14160,note_on,,,,,0,0,1,,,,,0,,,73,0
14160,note_on,,,,,0,0,2,,,,,1,,,61,65
14160,note_on,,,,,0,0,2,,,,,1,,,56,65
14160,note_on,,,,,0,0,2,,,,,1,,,56,0
14160,note_on,,,,,0,0,2,,,,,1,,,61,0
14160,note_on,,,,,240,0,2,,,,,1,,,65,0
14160,note_on,,,,,120,0,1,,,,,0,,,77,0
14280,note_on,,,,,0,0,1,,,,,0,,,80,78
14280,note_on,,,,,0,0,1,,,,,0,,,68,0
14280,note_on,,,,,0,0,1,,,,,0,,,73,0
14280,note_on,,,,,120,0,1,,,,,0,,,77,0
14300,control_change,,,,,140,0,2,,,,,1,64,0,,
14309,control_change,,,,,9,0,2,,,,,1,64,0,,
14386,control_change,,,,,77,0,2,,,,,1,64,0,,
14396,control_change,,,,,10,0,2,,,,,1,64,127,,
14400,note_on,,,,,0,0,1,,,,,0,,,68,78
14400,note_on,,,,,0,0,2,,,,,1,,,46,65
14400,note_on,,,,,0,0,1,,,,,0,,,70,78
14400,note_on,,,,,0,0,1,,,,,0,,,74,78
14400,note_on,,,,,0,0,1,,,,,0,,,77,78
14400,note_on,,,,,0,0,1,,,,,0,,,82,78
14400,note_on,,,,,4,0,2,,,,,1,,,61,0
14400,note_on,,,,,0,0,2,,,,,1,,,56,0
14400,note_on,,,,,0,0,2,,,,,1,,,34,65
14400,note_on,,,,,120,0,1,,,,,0,,,80,0
14640,note_on,,,,,0,0,2,,,,,1,,,65,65
14640,note_on,,,,,240,0,2,,,,,1,,,46,0
14640,note_on,,,,,0,0,2,,,,,1,,,34,0
14640,note_on,,,,,0,0,2,,,,,1,,,56,65
14640,note_on,,,,,0,0,2,,,,,1,,,58,65
14640,note_on,,,,,0,0,2,,,,,1,,,62,65
14760,note_on,,,,,0,0,1,,,,,0,,,74,78
14760,note_on,,,,,0,0,1,,,,,0,,,68,0
14760,note_on,,,,,0,0,1,,,,,0,,,77,0
14760,note_on,,,,,0,0,1,,,,,0,,,70,78
14760,note_on,,,,,0,0,1,,,,,0,,,74,0
14760,note_on,,,,,0,0,1,,,,,0,,,77,78
14760,note_on,,,,,360,0,1,,,,,0,,,82,0
14760,note_on,,,,,0,0,1,,,,,0,,,70,0
14880,note_on,,,,,0,0,1,,,,,0,,,74,0
14880,note_on,,,,,0,0,1,,,,,0,,,70,0
14880,note_on,,,,,0,0,1,,,,,0,,,70,78
14880,note_on,,,,,0,0,1,,,,,0,,,74,78
14880,note_on,,,,,0,0,1,,,,,0,,,77,78
14880,note_on,,,,,120,0,1,,,,,0,,,77,0
14880,note_on,,,,,0,0,2,,,,,1,,,53,65
14880,note_on,,,,,0,0,2,,,,,1,,,62,0
14880,note_on,,,,,0,0,2,,,,,1,,,58,0
14880,note_on,,,,,0,0,2,,,,,1,,,56,0
14880,note_on,,,,,240,0,2,,,,,1,,,65,0
14880,note_on,,,,,0,0,2,,,,,1,,,58,65
14880,note_on,,,,,0,0,2,,,,,1,,,62,65
15000,note_on,,,,,120,0,1,,,,,0,,,77,0
15000,note_on,,,,,0,0,1,,,,,0,,,80,78
15000,note_on,,,,,0,0,1,,,,,0,,,70,0
15000,note_on,,,,,0,0,1,,,,,0,,,74,0
15120,note_on,,,,,0,0,2,,,,,1,,,53,0
15120,note_on,,,,,0,0,2,,,,,1,,,39,65
15120,note_on,,,,,240,0,2,,,,,1,,,62,0
15120,note_on,,,,,120,0,1,,,,,0,,,80,0
15120,note_on,,,,,0,0,1,,,,,0,,,70,78
15120,note_on,,,,,0,0,1,,,,,0,,,73,78
15120,note_on,,,,,0,0,1,,,,,0,,,80,78
15120,note_on,,,,,0,0,2,,,,,1,,,58,0
15214,control_change,,,,,94,0,2,,,,,1,64,0,,
15223,control_change,,,,,9,0,2,,,,,1,64,0,,
15240,note_on,,,,,120,0,1,,,,,0,,,80,0
15240,note_on,,,,,0,0,1,,,,,0,,,79,78
15291,control_change,,,,,68,0,2,,,,,1,64,127,,
15360,note_on,,,,,0,0,1,,,,,0,,,77,78
15360,note_on,,,,,69,0,2,,,,,1,,,39,0
15360,note_on,,,,,0,0,1,,,,,0,,,68,78
15360,note_on,,,,,0,0,2,,,,,1,,,58,65
15360,note_on,,,,,0,0,1,,,,,0,,,70,0
15360,note_on,,,,,0,0,1,,,,,0,,,73,0
15360,note_on,,,,,0,0,2,,,,,1,,,51,65
15360,note_on,,,,,0,0,1,,,,,0,,,73,78
15360,note_on,,,,,120,0,1,,,,,0,,,79,0
15360,note_on,,,,,0,0,2,,,,,1,,,61,65
15600,note_on,,,,,0,0,2,,,,,1,,,58,65
15600,note_on,,,,,0,0,2,,,,,1,,,51,0
15600,note_on,,,,,0,0,2,,,,,1,,,58,0
15600,note_on,,,,,240,0,2,,,,,1,,,61,0
15600,note_on,,,,,240,0,1,,,,,0,,,77,0
15600,note_on,,,,,0,0,1,,,,,0,,,73,0
15600,note_on,,,,,0,0,1,,,,,0,,,68,0
15600,note_on,,,,,0,0,1,,,,,0,,,67,78
15600,note_on,,,,,0,0,1,,,,,0,,,73,78
15600,note_on,,,,,0,0,1,,,,,0,,,75,78
15600,note_on,,,,,0,0,2,,,,,1,,,51,65
15600,note_on,,,,,0,0,2,,,,,1,,,63,65
15628,control_change,,,,,28,0,2,,,,,1,64,0,,
15637,control_change,,,,,9,0,2,,,,,1,64,0,,
15840,note_on,,,,,0,0,2,,,,,1,,,51,0
15840,note_on,,,,,203,0,2,,,,,1,,,63,0
15840,note_on,,,,,0,0,1,,,,,0,,,73,0
15840,note_on,,,,,240,0,1,,,,,0,,,75,0
15840,note_on,,,,,0,0,1,,,,,0,,,72,78
15840,note_on,,,,,0,0,1,,,,,0,,,67,0
15840,note_on,,,,,0,0,1,,,,,0,,,63,78
15840,note_on,,,,,0,0,2,,,,,1,,,58,0
15840,note_on,,,,,0,0,2,,,,,1,,,44,65
15849,control_change,,,,,9,0,2,,,,,1,64,0,,
15858,control_change,,,,,9,0,2,,,,,1,64,127,,
16080,note_on,,,,,0,0,2,,,,,1,,,51,65
16080,note_on,,,,,0,0,2,,,,,1,,,56,65
16080,note_on,,,,,0,0,2,,,,,1,,,60,65
16080,note_on,,,,,222,0,2,,,,,1,,,44,0
16200,note_on,,,,,360,0,1,,,,,0,,,72,0
16200,note_on,,,,,0,0,1,,,,,0,,,63,0
16200,note_on,,,,,0,0,1,,,,,0,,,60,78
16200,note_on,,,,,0,0,1,,,,,0,,,68,78
16205,control_change,,,,,125,0,2,,,,,1,64,0,,
16215,control_change,,,,,10,0,2,,,,,1,64,0,,
16320,note_on,,,,,120,0,1,,,,,0,,,68,0
16320,note_on,,,,,0,0,2,,,,,1,,,51,65
16320,note_on,,,,,0,0,1,,,,,0,,,60,78
16320,note_on,,,,,0,0,1,,,,,0,,,68,78
16320,note_on,,,,,0,0,2,,,,,1,,,56,65
16320,note_on,,,,,0,0,2,,,,,1,,,48,65
16320,note_on,,,,,0,0,2,,,,,1,,,51,0
16320,note_on,,,,,0,0,2,,,,,1,,,56,0
16320,note_on,,,,,105,0,2,,,,,1,,,60,0
16320,note_on,,,,,0,0,1,,,,,0,,,60,0
16440,note_on,,,,,0,0,1,,,,,0,,,63,78
16440,note_on,,,,,0,0,1,,,,,0,,,72,78
16440,note_on,,,,,0,0,1,,,,,0,,,60,0
16440,note_on,,,,,120,0,1,,,,,0,,,68,0
16560,note_on,,,,,0,0,2,,,,,1,,,32,65
16560,note_on,,,,,0,0,2,,,,,1,,,48,0
16560,note_on,,,,,240,0,2,,,,,1,,,56,0
16560,note_on,,,,,0,0,2,,,,,1,,,51,0
16560,note_on,,,,,120,0,1,,,,,0,,,72,0
16560,note_on,,,,,0,0,1,,,,,0,,,63,0
16560,note_on,,,,,0,0,1,,,,,0,,,72,78
16560,note_on,,,,,0,0,1,,,,,0,,,63,78
16572,control_change,,,,,12,0,2,,,,,1,64,127,,
16800,note_on,,,,,0,0,2,,,,,1,,,60,65
16800,note_on,,,,,0,0,2,,,,,1,,,56,65
16800,note_on,,,,,0,0,2,,,,,1,,,51,65
16800,note_on,,,,,228,0,2,,,,,1,,,32,0
16917,control_change,,,,,117,0,2,,,,,1,64,0,,
16920,note_on,,,,,0,0,1,,,,,0,,,63,0
16920,note_on,,,,,0,0,1,,,,,0,,,68,78
16920,note_on,,,,,360,0,1,,,,,0,,,72,0
16920,note_on,,,,,0,0,1,,,,,0,,,60,78
16927,control_change,,,,,10,0,2,,,,,1,64,0,,
17040,note_on,,,,,0,0,2,,,,,1,,,51,65
17040,note_on,,,,,0,0,2,,,,,1,,,56,0
17040,note_on,,,,,0,0,1,,,,,0,,,68,78
17040,note_on,,,,,0,0,1,,,,,0,,,60,78
17040,note_on,,,,,0,0,1,,,,,0,,,60,0
17040,note_on,,,,,113,0,2,,,,,1,,,60,0
17040,note_on,,,,,0,0,2,,,,,1,,,56,65
17040,note_on,,,,,0,0,2,,,,,1,,,48,65
17040,note_on,,,,,0,0,2,,,,,1,,,51,0
17040,note_on,,,,,120,0,1,,,,,0,,,68,0
17160,note_on,,,,,0,0,1,,,,,0,,,60,0
17160,note_on,,,,,0,0,1,,,,,0,,,63,78
17160,note_on,,,,,0,0,1,,,,,0,,,72,78
17160,note_on,,,,,120,0,1,,,,,0,,,68,0
17280,note_on,,,,,0,0,1,,,,,0,,,68,78
17280,note_on,,,,,120,0,1,,,,,0,,,72,0
17280,note_on,,,,,0,0,1,,,,,0,,,63,0
17280,note_on,,,,,0,0,1,,,,,0,,,65,78
17280,note_on,,,,,0,0,1,,,,,0,,,73,78
17280,note_on,,,,,240,0,2,,,,,1,,,56,0
17280,note_on,,,,,0,0,2,,,,,1,,,51,0
17280,note_on,,,,,0,0,2,,,,,1,,,48,0
17280,note_on,,,,,0,0,2,,,,,1,,,44,65
17292,control_change,,,,,12,0,2,,,,,1,64,127,,
17460,note_on,,,,,0,0,1,,,,,0,,,75,44
17460,note_on,,,,,180,0,1,,,,,0,,,73,0
17490,note_on,,,,,0,0,1,,,,,0,,,73,105
17490,note_on,,,,,30,0,1,,,,,0,,,75,0
17520,note_on,,,,,0,0,1,,,,,0,,,63,78
17520,note_on,,,,,0,0,1,,,,,0,,,72,78
17520,note_on,,,,,0,0,1,,,,,0,,,68,0
17520,note_on,,,,,30,0,1,,,,,0,,,73,0
17520,note_on,,,,,0,0,1,,,,,0,,,65,0
17520,note_on,,,,,0,0,1,,,,,0,,,68,78
17520,note_on,,,,,0,0,2,,,,,1,,,61,65
17520,note_on,,,,,0,0,2,,,,,1,,,53,65
17520,note_on,,,,,0,0,2,,,,,1,,,49,65
17520,note_on,,,,,228,0,2,,,,,1,,,44,0
17706,control_change,,,,,186,0,2,,,,,1,64,0,,
17760,note_on,,,,,54,0,2,,,,,1,,,61,0
17760,note_on,,,,,0,0,2,,,,,1,,,53,0
17760,note_on,,,,,0,0,2,,,,,1,,,56,65
17760,note_on,,,,,240,0,1,,,,,0,,,72,0
17760,note_on,,,,,0,0,1,,,,,0,,,68,0
17760,note_on,,,,,0,0,1,,,,,0,,,63,0
17760,note_on,,,,,0,0,1,,,,,0,,,61,78
17760,note_on,,,,,0,0,1,,,,,0,,,68,78
17760,note_on,,,,,0,0,1,,,,,0,,,70,78
17760,note_on,,,,,0,0,2,,,,,1,,,49,0
17760,note_on,,,,,0,0,2,,,,,1,,,53,65
17985,control_change,,,,,225,0,2,,,,,1,64,0,,
18000,note_on,,,,,15,0,2,,,,,1,,,56,0
18000,note_on,,,,,0,0,2,,,,,1,,,53,0
18000,note_on,,,,,0,0,2,,,,,1,,,32,65
18000,note_on,,,,,0,0,1,,,,,0,,,63,78
18000,note_on,,,,,0,0,1,,,,,0,,,72,78
18000,note_on,,,,,0,0,1,,,,,0,,,68,78
18000,note_on,,,,,0,0,1,,,,,0,,,61,0
18000,note_on,,,,,0,0,1,,,,,0,,,68,0
18000,note_on,,,,,240,0,1,,,,,0,,,70,0
18024,control_change,,,,,24,0,2,,,,,1,64,127,,
18240,note_on,,,,,216,0,2,,,,,1,,,32,0
18240,note_on,,,,,0,0,2,,,,,1,,,56,65
18240,note_on,,,,,0,0,2,,,,,1,,,51,65
18240,note_on,,,,,0,0,2,,,,,1,,,60,65
18351,control_change,,,,,111,0,2,,,,,1,64,0,,
18360,control_change,,,,,9,0,2,,,,,1,64,0,,
18360,note_on,,,,,0,0,1,,,,,0,,,63,0
18360,note_on,,,,,0,0,1,,,,,0,,,68,78
18360,note_on,,,,,0,0,1,,,,,0,,,68,0
18360,note_on,,,,,360,0,1,,,,,0,,,72,0
18480,note_on,,,,,0,0,2,,,,,1,,,56,0
18480,note_on,,,,,0,0,2,,,,,1,,,51,0
18480,note_on,,,,,0,0,2,,,,,1,,,48,65
18480,note_on,,,,,120,0,1,,,,,0,,,68,0
18480,note_on,,,,,0,0,1,,,,,0,,,68,78
18480,note_on,,,,,0,0,2,,,,,1,,,51,65
18480,note_on,,,,,120,0,2,,,,,1,,,60,0
18480,note_on,,,,,0,0,2,,,,,1,,,56,65
18600,note_on,,,,,120,0,1,,,,,0,,,68,0
18600,note_on,,,,,0,0,1,,,,,0,,,72,78
18600,note_on,,,,,0,0,1,,,,,0,,,75,78
18720,note_on,,,,,120,0,1,,,,,0,,,75,0
18720,note_on,,,,,0,0,1,,,,,0,,,72,0
18720,note_on,,,,,0,0,1,,,,,0,,,68,78
18720,note_on,,,,,0,0,1,,,,,0,,,72,78
18720,note_on,,,,,0,0,1,,,,,0,,,77,78
18720,note_on,,,,,240,0,2,,,,,1,,,56,0
18720,note_on,,,,,0,0,2,,,,,1,,,41,65
18720,note_on,,,,,0,0,2,,,,,1,,,48,0
18720,note_on,,,,,0,0,2,,,,,1,,,51,0
18736,control_change,,,,,16,0,2,,,,,1,64,127,,
18960,note_on,,,,,0,0,2,,,,,1,,,65,65
18960,note_on,,,,,0,0,2,,,,,1,,,60,65
18960,note_on,,,,,0,0,2,,,,,1,,,56,65
18960,note_on,,,,,0,0,2,,,,,1,,,53,65
18960,note_on,,,,,224,0,2,,,,,1,,,41,0
19073,control_change,,,,,113,0,2,,,,,1,64,0,,
19080,note_on,,,,,0,0,1,,,,,0,,,68,0
19080,note_on,,,,,0,0,1,,,,,0,,,68,78
19080,note_on,,,,,360,0,1,,,,,0,,,77,0
19080,note_on,,,,,0,0,1,,,,,0,,,72,0
19080,note_on,,,,,0,0,1,,,,,0,,,72,78
19082,control_change,,,,,9,0,2,,,,,1,64,0,,
19200,note_on,,,,,0,0,1,,,,,0,,,68,78
19200,note_on,,,,,118,0,2,,,,,1,,,65,0
19200,note_on,,,,,0,0,2,,,,,1,,,51,65
19200,note_on,,,,,0,0,2,,,,,1,,,44,65
19200,note_on,,,,,0,0,2,,,,,1,,,60,0
19200,note_on,,,,,0,0,2,,,,,1,,,56,0
19200,note_on,,,,,0,0,2,,,,,1,,,53,0
19200,note_on,,,,,120,0,1,,,,,0,,,72,0
19200,note_on,,,,,0,0,1,,,,,0,,,68,0
19200,note_on,,,,,0,0,1,,,,,0,,,72,78
19320,note_on,,,,,120,0,1,,,,,0,,,72,0
19320,note_on,,,,,0,0,1,,,,,0,,,68,0
19320,note_on,,,,,0,0,1,,,,,0,,,75,78
19440,note_on,,,,,0,0,1,,,,,0,,,68,78
19440,note_on,,,,,120,0,1,,,,,0,,,75,0
19440,note_on,,,,,0,0,1,,,,,0,,,77,78
19440,note_on,,,,,0,0,2,,,,,1,,,41,65
19440,note_on,,,,,0,0,2,,,,,1,,,44,0
19440,note_on,,,,,240,0,2,,,,,1,,,51,0
19440,note_on,,,,,0,0,1,,,,,0,,,72,78
19452,control_change,,,,,12,0,2,,,,,1,64,127,,
19680,note_on,,,,,0,0,2,,,,,1,,,65,65
19680,note_on,,,,,0,0,2,,,,,1,,,60,65
19680,note_on,,,,,0,0,2,,,,,1,,,53,65
19680,note_on,,,,,0,0,2,,,,,1,,,56,65
19680,note_on,,,,,228,0,2,,,,,1,,,41,0
19775,control_change,,,,,95,0,2,,,,,1,64,0,,
19785,control_change,,,,,10,0,2,,,,,1,64,0,,
19800,note_on,,,,,0,0,1,,,,,0,,,68,0
19800,note_on,,,,,0,0,1,,,,,0,,,72,0
19800,note_on,,,,,360,0,1,,,,,0,,,77,0
19800,note_on,,,,,0,0,1,,,,,0,,,68,78
19800,note_on,,,,,0,0,1,,,,,0,,,72,78
19920,note_on,,,,,0,0,2,,,,,1,,,60,0
19920,note_on,,,,,120,0,1,,,,,0,,,72,0
19920,note_on,,,,,0,0,1,,,,,0,,,68,0
19920,note_on,,,,,0,0,1,,,,,0,,,68,78
19920,note_on,,,,,0,0,2,,,,,1,,,56,0
19920,note_on,,,,,135,0,2,,,,,1,,,65,0
19920,note_on,,,,,0,0,2,,,,,1,,,53,0
19920,note_on,,,,,0,0,1,,,,,0,,,72,78
19920,note_on,,,,,0,0,2,,,,,1,,,44,65
19920,note_on,,,,,0,0,2,,,,,1,,,51,65
20040,note_on,,,,,0,0,1,,,,,0,,,68,0
20040,note_on,,,,,0,0,1,,,,,0,,,75,78
20040,note_on,,,,,120,0,1,,,,,0,,,72,0
20160,note_on,,,,,0,0,2,,,,,1,,,44,0
20160,note_on,,,,,0,0,2,,,,,1,,,36,65
20160,note_on,,,,,120,0,1,,,,,0,,,75,0
20160,note_on,,,,,240,0,2,,,,,1,,,51,0
20160,note_on,,,,,0,0,1,,,,,0,,,80,78
20160,note_on,,,,,0,0,1,,,,,0,,,68,78
20170,control_change,,,,,10,0,2,,,,,1,64,0,,
20179,control_change,,,,,9,0,2,,,,,1,64,127,,
20280,note_on,,,,,120,0,1,,,,,0,,,80,0
20280,note_on,,,,,0,0,1,,,,,0,,,75,78
20391,control_change,,,,,212,0,2,,,,,1,64,0,,
20400,note_on,,,,,120,0,1,,,,,0,,,75,0
20400,note_on,,,,,0,0,1,,,,,0,,,67,78
20400,note_on,,,,,0,0,1,,,,,0,,,73,78
20400,note_on,,,,,0,0,1,,,,,0,,,68,0
20400,note_on,,,,,9,0,2,,,,,1,,,36,0
20400,control_change,,,,,0,0,2,,,,,1,64,0,,
20400,note_on,,,,,0,0,2,,,,,1,,,39,65
20640,note_on,,,,,240,0,2,,,,,1,,,39,0
20640,note_on,,,,,0,0,2,,,,,1,,,51,65
20640,note_on,,,,,0,0,2,,,,,1,,,55,65
20640,note_on,,,,,0,0,1,,,,,0,,,70,78
20640,note_on,,,,,0,0,1,,,,,0,,,63,78
20640,note_on,,,,,0,0,1,,,,,0,,,61,78
20640,note_on,,,,,0,0,1,,,,,0,,,67,0
20640,note_on,,,,,240,0,1,,,,,0,,,73,0
20862,control_change,,,,,222,0,2,,,,,1,64,0,,
20880,note_on,,,,,18,0,2,,,,,1,,,55,0
20880,note_on,,,,,0,0,2,,,,,1,,,51,0
20880,note_on,,,,,0,0,1,,,,,0,,,60,78
20880,note_on,,,,,0,0,1,,,,,0,,,63,0
20880,note_on,,,,,240,0,1,,,,,0,,,70,0
20880,note_on,,,,,0,0,1,,,,,0,,,68,78
20880,note_on,,,,,0,0,2,,,,,1,,,44,65
20880,note_on,,,,,0,0,1,,,,,0,,,61,0
20880,note_on,,,,,0,0,1,,,,,0,,,63,78
20892,control_change,,,,,12,0,2,,,,,1,64,127,,
21120,note_on,,,,,240,0,1,,,,,0,,,68,0
21120,note_on,,,,,0,0,1,,,,,0,,,63,0
21120,note_on,,,,,0,0,1,,,,,0,,,60,0
21120,note_on,,,,,0,0,2,,,,,1,,,56,65
21120,note_on,,,,,0,0,2,,,,,1,,,51,65
21120,note_on,,,,,228,0,2,,,,,1,,,44,0
21240,note_on,,,,,120,0,1,,,,,0,,,63,78
21240,note_on,,,,,0,0,1,,,,,0,,,68,78
21240,note_on,,,,,0,0,1,,,,,0,,,72,78
21360,note_on,,,,,0,0,2,,,,,1,,,51,65
21360,note_on,,,,,0,0,2,,,,,1,,,51,0
21360,note_on,,,,,240,0,2,,,,,1,,,56,0
21360,note_on,,,,,0,0,1,,,,,0,,,68,78
21360,note_on,,,,,0,0,2,,,,,1,,,56,65
21360,note_on,,,,,0,0,1,,,,,0,,,63,78
21360,note_on,,,,,0,0,1,,,,,0,,,63,0
21360,note_on,,,,,0,0,1,,,,,0,,,68,0
21360,note_on,,,,,120,0,1,,,,,0,,,72,0
21360,note_on,,,,,0,0,1,,,,,0,,,72,78
21360,note_on,,,,,0,0,2,,,,,1,,,60,65
21480,note_on,,,,,0,0,1,,,,,0,,,75,78
21480,note_on,,,,,0,0,1,,,,,0,,,63,0
21480,note_on,,,,,120,0,1,,,,,0,,,72,0
21480,note_on,,,,,0,0,1,,,,,0,,,68,0
21526,control_change,,,,,166,0,2,,,,,1,64,0,,
21536,control_change,,,,,10,0,2,,,,,1,64,0,,
21600,note_on,,,,,0,0,1,,,,,0,,,70,78
21600,note_on,,,,,0,0,1,,,,,0,,,67,78
21600,note_on,,,,,0,0,1,,,,,0,,,63,78
21600,note_on,,,,,0,0,1,,,,,0,,,73,78
21600,note_on,,,,,120,0,1,,,,,0,,,75,0
21600,note_on,,,,,0,0,1,,,,,0,,,75,78
21600,note_on,,,,,64,0,2,,,,,1,,,60,0
21600,note_on,,,,,0,0,2,,,,,1,,,56,0
21600,note_on,,,,,0,0,2,,,,,1,,,51,0
21600,note_on,,,,,0,0,2,,,,,1,,,39,65
21613,control_change,,,,,13,0,2,,,,,1,64,127,,
21840,note_on,,,,,227,0,2,,,,,1,,,39,0
21840,note_on,,,,,0,0,2,,,,,1,,,51,65
21840,note_on,,,,,0,0,2,,,,,1,,,55,65
21840,note_on,,,,,0,0,2,,,,,1,,,61,65
21960,note_on,,,,,360,0,1,,,,,0,,,75,0
21960,note_on,,,,,0,0,1,,,,,0,,,70,78
21960,note_on,,,,,0,0,1,,,,,0,,,67,78
21960,note_on,,,,,0,0,1,,,,,0,,,63,78
21960,note_on,,,,,0,0,1,,,,,0,,,73,0
21960,note_on,,,,,0,0,1,,,,,0,,,67,0
21960,note_on,,,,,0,0,1,,,,,0,,,63,0
21960,note_on,,,,,0,0,1,,,,,0,,,70,0
22080,note_on,,,,,120,0,1,,,,,0,,,70,0
22080,note_on,,,,,0,0,1,,,,,0,,,67,0
22080,note_on,,,,,0,0,1,,,,,0,,,63,0
22080,note_on,,,,,0,0,1,,,,,0,,,63,78
22080,note_on,,,,,0,0,1,,,,,0,,,67,78
22080,note_on,,,,,0,0,1,,,,,0,,,70,78
22080,note_on,,,,,0,0,2,,,,,1,,,55,65
22080,note_on,,,,,0,0,2,,,,,1,,,51,0
22080,note_on,,,,,0,0,2,,,,,1,,,51,65
22080,note_on,,,,,0,0,2,,,,,1,,,55,0
22080,note_on,,,,,240,0,2,,,,,1,,,61,0
22152,control_change,,,,,72,0,2,,,,,1,64,0,,
22200,note_on,,,,,0,0,1,,,,,0,,,75,78
22200,note_on,,,,,120,0,1,,,,,0,,,70,0
22200,note_on,,,,,0,0,1,,,,,0,,,63,0
22200,note_on,,,,,0,0,1,,,,,0,,,73,78
22200,note_on,,,,,0,0,1,,,,,0,,,67,0
22258,control_change,,,,,106,0,2,,,,,1,64,0,,
22320,note_on,,,,,0,0,1,,,,,0,,,73,0
22320,note_on,,,,,0,0,1,,,,,0,,,63,78
22320,note_on,,,,,0,0,1,,,,,0,,,68,78
22320,note_on,,,,,0,0,1,,,,,0,,,72,78
22320,note_on,,,,,0,0,1,,,,,0,,,75,78
22320,note_on,,,,,62,0,2,,,,,1,,,55,0
22320,note_on,,,,,0,0,2,,,,,1,,,51,0
22320,note_on,,,,,0,0,2,,,,,1,,,44,65
22320,note_on,,,,,120,0,1,,,,,0,,,75,0
22335,control_change,,,,,15,0,2,,,,,1,64,127,,
22560,note_on,,,,,0,0,2,,,,,1,,,51,65
22560,note_on,,,,,225,0,2,,,,,1,,,44,0
22560,note_on,,,,,0,0,2,,,,,1,,,56,65
22560,note_on,,,,,0,0,2,,,,,1,,,60,65
22680,note_on,,,,,360,0,1,,,,,0,,,75,0
22680,note_on,,,,,0,0,1,,,,,0,,,68,0
22680,note_on,,,,,0,0,1,,,,,0,,,72,78
22680,note_on,,,,,0,0,1,,,,,0,,,68,78
22680,note_on,,,,,0,0,1,,,,,0,,,72,0
22680,note_on,,,,,0,0,1,,,,,0,,,63,0
22800,note_on,,,,,0,0,1,,,,,0,,,68,0
22800,note_on,,,,,0,0,2,,,,,1,,,56,65
22800,note_on,,,,,0,0,2,,,,,1,,,51,65
22800,note_on,,,,,0,0,2,,,,,1,,,51,0
22800,note_on,,,,,120,0,1,,,,,0,,,72,0
22800,note_on,,,,,240,0,2,,,,,1,,,60,0
22800,note_on,,,,,0,0,1,,,,,0,,,68,78
22800,note_on,,,,,0,0,1,,,,,0,,,72,78
22800,note_on,,,,,0,0,2,,,,,1,,,56,0
22826,control_change,,,,,26,0,2,,,,,1,64,0,,
22835,control_change,,,,,9,0,2,,,,,1,64,0,,
22920,note_on,,,,,0,0,1,,,,,0,,,75,78
22920,note_on,,,,,0,0,1,,,,,0,,,68,0
22920,note_on,,,,,120,0,1,,,,,0,,,72,0
23040,note_on,,,,,120,0,1,,,,,0,,,75,0
23040,note_on,,,,,0,0,1,,,,,0,,,80,78
23040,note_on,,,,,0,0,1,,,,,0,,,78,78
23040,note_on,,,,,0,0,1,,,,,0,,,75,78
23040,note_on,,,,,0,0,1,,,,,0,,,68,78
23040,note_on,,,,,205,0,2,,,,,1,,,56,0
23040,note_on,,,,,0,0,2,,,,,1,,,51,0
23040,note_on,,,,,0,0,2,,,,,1,,,32,65
23040,note_on,,,,,0,0,1,,,,,0,,,72,78
23052,control_change,,,,,12,0,2,,,,,1,64,127,,
23280,note_on,,,,,228,0,2,,,,,1,,,32,0
23280,note_on,,,,,0,0,2,,,,,1,,,56,65
23280,note_on,,,,,0,0,2,,,,,1,,,60,65
23280,note_on,,,,,0,0,2,,,,,1,,,66,65
23400,note_on,,,,,0,0,1,,,,,0,,,68,78
23400,note_on,,,,,0,0,1,,,,,0,,,72,78
23400,note_on,,,,,0,0,1,,,,,0,,,75,78
23400,note_on,,,,,0,0,1,,,,,0,,,68,0
23400,note_on,,,,,0,0,1,,,,,0,,,72,0
23400,note_on,,,,,360,0,1,,,,,0,,,80,0
23400,note_on,,,,,0,0,1,,,,,0,,,78,0
23400,note_on,,,,,0,0,1,,,,,0,,,75,0
23509,control_change,,,,,229,0,2,,,,,1,64,0,,
23520,note_on,,,,,0,0,2,,,,,1,,,56,0
23520,note_on,,,,,0,0,2,,,,,1,,,60,65
23520,note_on,,,,,0,0,2,,,,,1,,,56,65
23520,note_on,,,,,0,0,1,,,,,0,,,72,0
23520,note_on,,,,,0,0,1,,,,,0,,,68,0
23520,note_on,,,,,0,0,1,,,,,0,,,68,78
23520,note_on,,,,,0,0,1,,,,,0,,,72,78
23520,note_on,,,,,0,0,2,,,,,1,,,60,0
23520,note_on,,,,,11,0,2,,,,,1,,,66,0
23520,note_on,,,,,120,0,1,,,,,0,,,75,0
23520,note_on,,,,,0,0,1,,,,,0,,,75,78
23557,control_change,,,,,37,0,2,,,,,1,64,0,,
23640,note_on,,,,,120,0,1,,,,,0,,,75,0
23640,note_on,,,,,0,0,1,,,,,0,,,72,0
23640,note_on,,,,,0,0,1,,,,,0,,,68,0
23640,note_on,,,,,0,0,1,,,,,0,,,78,78
23640,note_on,,,,,0,0,1,,,,,0,,,80,78
23760,note_on,,,,,0,0,2,,,,,1,,,37,65
23760,note_on,,,,,0,0,2,,,,,1,,,56,0
23760,note_on,,,,,0,0,1,,,,,0,,,80,78
23760,note_on,,,,,0,0,1,,,,,0,,,77,78
23760,note_on,,,,,0,0,1,,,,,0,,,68,78
23760,note_on,,,,,0,0,1,,,,,0,,,78,0
23760,note_on,,,,,120,0,1,,,,,0,,,80,0
23760,note_on,,,,,0,0,1,,,,,0,,,73,78
23760,note_on,,,,,203,0,2,,,,,1,,,60,0
23772,control_change,,,,,12,0,2,,,,,1,64,127,,
24000,note_on,,,,,228,0,2,,,,,1,,,37,0
24000,note_on,,,,,0,0,2,,,,,1,,,65,65
24000,note_on,,,,,0,0,2,,,,,1,,,61,65
24000,note_on,,,,,0,0,2,,,,,1,,,56,65
24120,note_on,,,,,0,0,1,,,,,0,,,68,0
24120,note_on,,,,,360,0,1,,,,,0,,,80,0
24120,note_on,,,,,0,0,1,,,,,0,,,73,0
24120,note_on,,,,,0,0,1,,,,,0,,,77,78
24120,note_on,,,,,0,0,1,,,,,0,,,73,78
24120,note_on,,,,,0,0,1,,,,,0,,,68,78
24120,note_on,,,,,0,0,1,,,,,0,,,77,0
24240,note_on,,,,,0,0,1,,,,,0,,,68,0
24240,note_on,,,,,0,0,2,,,,,1,,,61,65
24240,note_on,,,,,0,0,2,,,,,1,,,56,65
24240,note_on,,,,,0,0,2,,,,,1,,,56,0
24240,note_on,,,,,0,0,2,,,,,1,,,61,0
24240,note_on,,,,,240,0,2,,,,,1,,,65,0
24240,note_on,,,,,0,0,1,,,,,0,,,77,78
24240,note_on,,,,,0,0,1,,,,,0,,,73,78
24240,note_on,,,,,0,0,1,,,,,0,,,68,78
24240,note_on,,,,,120,0,1,,,,,0,,,77,0
24240,note_on,,,,,0,0,1,,,,,0,,,73,0
24259,control_change,,,,,19,0,2,,,,,1,64,0,,
24269,control_change,,,,,10,0,2,,,,,1,64,0,,
24360,note_on,,,,,0,0,1,,,,,0,,,73,0
24360,note_on,,,,,0,0,1,,,,,0,,,68,0
24360,note_on,,,,,120,0,1,,,,,0,,,77,0
24360,note_on,,,,,0,0,1,,,,,0,,,80,78
24480,note_on,,,,,120,0,1,,,,,0,,,80,0
24480,note_on,,,,,0,0,1,,,,,0,,,68,78
24480,note_on,,,,,0,0,1,,,,,0,,,70,78
24480,note_on,,,,,0,0,1,,,,,0,,,74,78
24480,note_on,,,,,0,0,1,,,,,0,,,77,78
24480,note_on,,,,,0,0,1,,,,,0,,,82,78
24480,note_on,,,,,0,0,2,,,,,1,,,46,65
24480,note_on,,,,,0,0,2,,,,,1,,,34,65
24480,note_on,,,,,0,0,2,,,,,1,,,56,0
24480,note_on,,,,,211,0,2,,,,,1,,,61,0
24492,control_change,,,,,12,0,2,,,,,1,64,127,,
24720,note_on,,,,,0,0,2,,,,,1,,,58,65
24720,note_on,,,,,0,0,2,,,,,1,,,56,65
24720,note_on,,,,,0,0,2,,,,,1,,,34,0
24720,note_on,,,,,228,0,2,,,,,1,,,46,0
24720,note_on,,,,,0,0,2,,,,,1,,,65,65
24720,note_on,,,,,0,0,2,,,,,1,,,62,65
24840,note_on,,,,,0,0,1,,,,,0,,,77,78
24840,note_on,,,,,0,0,1,,,,,0,,,74,78
24840,note_on,,,,,0,0,1,,,,,0,,,70,78
24840,note_on,,,,,0,0,1,,,,,0,,,77,0
24840,note_on,,,,,0,0,1,,,,,0,,,70,0
24840,note_on,,,,,0,0,1,,,,,0,,,68,0
24840,note_on,,,,,0,0,1,,,,,0,,,74,0
24840,note_on,,,,,360,0,1,,,,,0,,,82,0
24960,note_on,,,,,0,0,2,,,,,1,,,58,0
24960,note_on,,,,,0,0,2,,,,,1,,,56,0
24960,note_on,,,,,0,0,2,,,,,1,,,58,65
24960,note_on,,,,,0,0,2,,,,,1,,,62,0
24960,note_on,,,,,0,0,2,,,,,1,,,53,65
24960,note_on,,,,,0,0,1,,,,,0,,,77,78
24960,note_on,,,,,0,0,2,,,,,1,,,62,65
24960,note_on,,,,,0,0,1,,,,,0,,,70,78
24960,note_on,,,,,0,0,1,,,,,0,,,70,0
24960,note_on,,,,,0,0,1,,,,,0,,,74,0
24960,note_on,,,,,120,0,1,,,,,0,,,77,0
24960,note_on,,,,,240,0,2,,,,,1,,,65,0
24960,note_on,,,,,0,0,1,,,,,0,,,74,78
25080,note_on,,,,,120,0,1,,,,,0,,,77,0
25080,note_on,,,,,0,0,1,,,,,0,,,74,0
25080,note_on,,,,,0,0,1,,,,,0,,,70,0
25080,note_on,,,,,0,0,1,,,,,0,,,80,78
25200,note_on,,,,,0,0,2,,,,,1,,,58,0
25200,note_on,,,,,240,0,2,,,,,1,,,62,0
25200,note_on,,,,,0,0,2,,,,,1,,,39,65
25200,note_on,,,,,0,0,1,,,,,0,,,80,78
25200,note_on,,,,,0,0,2,,,,,1,,,53,0
25200,note_on,,,,,0,0,1,,,,,0,,,70,78
25200,note_on,,,,,120,0,1,,,,,0,,,80,0
25200,note_on,,,,,0,0,1,,,,,0,,,73,78
25202,control_change,,,,,2,0,2,,,,,1,64,0,,
25212,control_change,,,,,10,0,2,,,,,1,64,0,,
25270,control_change,,,,,58,0,2,,,,,1,64,0,,
25279,control_change,,,,,9,0,2,,,,,1,64,127,,
25320,note_on,,,,,120,0,1,,,,,0,,,80,0
25320,note_on,,,,,0,0,1,,,,,0,,,79,78
25440,note_on,,,,,0,0,1,,,,,0,,,68,78
25440,note_on,,,,,0,0,1,,,,,0,,,70,0
25440,note_on,,,,,0,0,1,,,,,0,,,73,0
25440,note_on,,,,,161,0,2,,,,,1,,,39,0
25440,note_on,,,,,0,0,1,,,,,0,,,77,78
25440,note_on,,,,,0,0,2,,,,,1,,,51,65
25440,note_on,,,,,0,0,2,,,,,1,,,58,65
25440,note_on,,,,,0,0,2,,,,,1,,,61,65
25440,note_on,,,,,120,0,1,,,,,0,,,79,0
25440,note_on,,,,,0,0,1,,,,,0,,,73,78
25680,note_on,,,,,0,0,1,,,,,0,,,75,78
25680,note_on,,,,,0,0,1,,,,,0,,,73,0
25680,note_on,,,,,0,0,1,,,,,0,,,68,0
25680,note_on,,,,,0,0,1,,,,,0,,,67,78
25680,note_on,,,,,240,0,2,,,,,1,,,61,0
25680,note_on,,,,,0,0,2,,,,,1,,,58,0
25680,note_on,,,,,0,0,2,,,,,1,,,51,0
25680,note_on,,,,,0,0,2,,,,,1,,,51,65
25680,note_on,,,,,0,0,2,,,,,1,,,58,65
25680,note_on,,,,,0,0,2,,,,,1,,,63,65
25680,note_on,,,,,240,0,1,,,,,0,,,77,0
25680,note_on,,,,,0,0,1,,,,,0,,,73,78
25684,control_change,,,,,4,0,2,,,,,1,64,0,,
25703,control_change,,,,,19,0,2,,,,,1,64,0,,
25895,control_change,,,,,192,0,2,,,,,1,64,0,,
25920,note_on,,,,,0,0,2,,,,,1,,,58,0
25920,note_on,,,,,0,0,2,,,,,1,,,32,65
25920,note_on,,,,,25,0,2,,,,,1,,,63,0
25920,note_on,,,,,0,0,1,,,,,0,,,84,78
25920,note_on,,,,,0,0,1,,,,,0,,,75,78
25920,note_on,,,,,0,0,1,,,,,0,,,67,0
25920,note_on,,,,,0,0,1,,,,,0,,,73,0
25920,note_on,,,,,240,0,1,,,,,0,,,75,0
25920,note_on,,,,,0,0,2,,,,,1,,,51,0
25932,control_change,,,,,12,0,2,,,,,1,64,127,,
26160,note_on,,,,,0,0,1,,,,,0,,,75,0
26160,note_on,,,,,240,0,1,,,,,0,,,84,0
26160,note_on,,,,,228,0,2,,,,,1,,,32,0
26160,note_on,,,,,0,0,2,,,,,1,,,51,65
26160,note_on,,,,,0,0,2,,,,,1,,,56,65
26160,note_on,,,,,0,0,2,,,,,1,,,60,65
26239,note_on,,,,,0,0,1,,,,,0,,,68,78
26239,note_on,,,,,79,0,1,,,,,0,,,60,78
26319,note_on,,,,,80,0,1,,,,,0,,,68,0
26319,note_on,,,,,0,0,1,,,,,0,,,72,78
26319,note_on,,,,,0,0,1,,,,,0,,,63,78
26319,note_on,,,,,0,0,1,,,,,0,,,60,0
26399,note_on,,,,,0,0,1,,,,,0,,,63,0
26399,note_on,,,,,80,0,1,,,,,0,,,72,0
26400,note_on,,,,,0,0,2,,,,,1,,,51,0
26400,note_on,,,,,0,0,2,,,,,1,,,48,65
26400,note_on,,,,,240,0,2,,,,,1,,,60,0
26400,note_on,,,,,0,0,1,,,,,0,,,80,78
26400,note_on,,,,,1,0,1,,,,,0,,,72,78
26400,note_on,,,,,0,0,2,,,,,1,,,51,65
26400,note_on,,,,,0,0,2,,,,,1,,,56,0
26400,note_on,,,,,0,0,2,,,,,1,,,56,65
26479,note_on,,,,,0,0,1,,,,,0,,,84,78
26479,note_on,,,,,0,0,1,,,,,0,,,75,78
26479,note_on,,,,,0,0,1,,,,,0,,,72,0
26479,note_on,,,,,79,0,1,,,,,0,,,80,0
26559,note_on,,,,,0,0,1,,,,,0,,,80,78
26559,note_on,,,,,0,0,1,,,,,0,,,72,78
26559,note_on,,,,,0,0,1,,,,,0,,,75,0
26559,note_on,,,,,80,0,1,,,,,0,,,84,0
26639,note_on,,,,,0,0,1,,,,,0,,,72,0
26639,note_on,,,,,80,0,1,,,,,0,,,80,0
26640,note_on,,,,,0,0,2,,,,,1,,,51,0
26640,note_on,,,,,0,0,2,,,,,1,,,48,0
26640,note_on,,,,,0,0,2,,,,,1,,,32,65
26640,note_on,,,,,240,0,2,,,,,1,,,56,0
26640,note_on,,,,,0,0,1,,,,,0,,,84,78
26640,note_on,,,,,1,0,1,,,,,0,,,75,78
26880,note_on,,,,,0,0,1,,,,,0,,,75,0
26880,note_on,,,,,240,0,1,,,,,0,,,84,0
26880,note_on,,,,,0,0,2,,,,,1,,,60,65
26880,note_on,,,,,0,0,2,,,,,1,,,56,65
26880,note_on,,,,,0,0,2,,,,,1,,,51,65
26880,note_on,,,,,240,0,2,,,,,1,,,32,0
26959,note_on,,,,,79,0,1,,,,,0,,,60,78
26959,note_on,,,,,0,0,1,,,,,0,,,68,78
27039,note_on,,,,,0,0,1,,,,,0,,,60,0
27039,note_on,,,,,80,0,1,,,,,0,,,68,0
27039,note_on,,,,,0,0,1,,,,,0,,,63,78
27039,note_on,,,,,0,0,1,,,,,0,,,72,78
27119,note_on,,,,,0,0,1,,,,,0,,,63,0
27119,note_on,,,,,80,0,1,,,,,0,,,72,0
27120,note_on,,,,,0,0,2,,,,,1,,,51,65
27120,note_on,,,,,0,0,1,,,,,0,,,80,78
27120,note_on,,,,,1,0,1,,,,,0,,,72,78
27120,note_on,,,,,0,0,2,,,,,1,,,56,0
27120,note_on,,,,,0,0,2,,,,,1,,,51,0
27120,note_on,,,,,0,0,2,,,,,1,,,56,65
27120,note_on,,,,,240,0,2,,,,,1,,,60,0
27120,note_on,,,,,0,0,2,,,,,1,,,48,65
27199,note_on,,,,,0,0,1,,,,,0,,,84,78
27199,note_on,,,,,79,0,1,,,,,0,,,80,0
27199,note_on,,,,,0,0,1,,,,,0,,,75,78
27199,note_on,,,,,0,0,1,,,,,0,,,72,0
27279,note_on,,,,,0,0,1,,,,,0,,,72,78
27279,note_on,,,,,0,0,1,,,,,0,,,80,78
27279,note_on,,,,,0,0,1,,,,,0,,,75,0
27279,note_on,,,,,80,0,1,,,,,0,,,84,0
27358,control_change,,,,,238,0,2,,,,,1,64,0,,
27359,note_on,,,,,0,0,1,,,,,0,,,72,0
27359,note_on,,,,,80,0,1,,,,,0,,,80,0
27360,note_on,,,,,0,0,1,,,,,0,,,80,78
27360,note_on,,,,,0,0,1,,,,,0,,,85,78
27360,note_on,,,,,1,0,1,,,,,0,,,77,78
27360,note_on,,,,,2,0,2,,,,,1,,,56,0
27360,note_on,,,,,0,0,2,,,,,1,,,37,65
27360,note_on,,,,,0,0,2,,,,,1,,,48,0
27360,note_on,,,,,0,0,2,,,,,1,,,51,0
27368,control_change,,,,,8,0,2,,,,,1,64,0,,
27425,control_change,,,,,57,0,2,,,,,1,64,0,,
27435,control_change,,,,,10,0,2,,,,,1,64,127,,
27540,note_on,,,,,180,0,1,,,,,0,,,85,0
27540,note_on,,,,,0,0,1,,,,,0,,,87,78
27570,note_on,,,,,30,0,1,,,,,0,,,87,0
27570,note_on,,,,,0,0,1,,,,,0,,,85,78
27600,note_on,,,,,0,0,2,,,,,1,,,56,65
27600,note_on,,,,,0,0,2,,,,,1,,,49,65
27600,note_on,,,,,165,0,2,,,,,1,,,37,0
27600,note_on,,,,,30,0,1,,,,,0,,,85,0
27600,note_on,,,,,0,0,1,,,,,0,,,80,0
27600,note_on,,,,,0,0,1,,,,,0,,,77,0
27600,note_on,,,,,0,0,1,,,,,0,,,75,78
27600,note_on,,,,,0,0,1,,,,,0,,,80,78
27600,note_on,,,,,0,0,1,,,,,0,,,84,78
27840,note_on,,,,,240,0,1,,,,,0,,,84,0
27840,note_on,,,,,0,0,1,,,,,0,,,73,78
27840,note_on,,,,,0,0,1,,,,,0,,,75,0
27840,note_on,,,,,0,0,2,,,,,1,,,49,0
27840,note_on,,,,,0,0,1,,,,,0,,,80,78
27840,note_on,,,,,0,0,1,,,,,0,,,82,78
27840,note_on,,,,,0,0,2,,,,,1,,,53,65
27840,note_on,,,,,0,0,2,,,,,1,,,56,65
27840,note_on,,,,,0,0,1,,,,,0,,,80,0
27840,note_on,,,,,240,0,2,,,,,1,,,56,0
28080,note_on,,,,,240,0,2,,,,,1,,,56,0
28080,note_on,,,,,0,0,2,,,,,1,,,32,65
28080,note_on,,,,,0,0,2,,,,,1,,,53,0
28080,note_on,,,,,0,0,1,,,,,0,,,80,78
28080,note_on,,,,,0,0,1,,,,,0,,,75,78
28080,note_on,,,,,0,0,1,,,,,0,,,73,0
28080,note_on,,,,,0,0,1,,,,,0,,,80,0
28080,note_on,,,,,240,0,1,,,,,0,,,82,0
28080,note_on,,,,,0,0,1,,,,,0,,,84,78
28147,control_change,,,,,67,0,2,,,,,1,64,0,,
28205,control_change,,,,,58,0,2,,,,,1,64,127,,
28320,note_on,,,,,0,0,2,,,,,1,,,51,65
28320,note_on,,,,,115,0,2,,,,,1,,,32,0
28320,note_on,,,,,0,0,2,,,,,1,,,60,65
28320,note_on,,,,,0,0,1,,,,,0,,,75,0
28320,note_on,,,,,0,0,1,,,,,0,,,80,0
28320,note_on,,,,,240,0,1,,,,,0,,,84,0
28320,note_on,,,,,0,0,2,,,,,1,,,56,65
28399,note_on,,,,,0,0,1,,,,,0,,,68,78
28399,note_on,,,,,79,0,1,,,,,0,,,60,78
28479,note_on,,,,,0,0,1,,,,,0,,,72,78
28479,note_on,,,,,0,0,1,,,,,0,,,63,78
28479,note_on,,,,,80,0,1,,,,,0,,,68,0
28479,note_on,,,,,0,0,1,,,,,0,,,60,0
28559,note_on,,,,,80,0,1,,,,,0,,,72,0
28559,note_on,,,,,0,0,1,,,,,0,,,63,0
28560,note_on,,,,,1,0,1,,,,,0,,,72,78
28560,note_on,,,,,0,0,1,,,,,0,,,80,78
28560,note_on,,,,,0,0,2,,,,,1,,,56,0
28560,note_on,,,,,0,0,2,,,,,1,,,51,0
28560,note_on,,,,,240,0,2,,,,,1,,,60,0
28560,note_on,,,,,0,0,2,,,,,1,,,51,65
28560,note_on,,,,,0,0,2,,,,,1,,,56,65
28560,note_on,,,,,0,0,2,,,,,1,,,48,65
28590,control_change,,,,,30,0,2,,,,,1,64,0,,
28599,control_change,,,,,9,0,2,,,,,1,64,0,,
28639,note_on,,,,,0,0,1,,,,,0,,,84,78
28639,note_on,,,,,0,0,1,,,,,0,,,75,78
28639,note_on,,,,,0,0,1,,,,,0,,,72,0
28639,note_on,,,,,79,0,1,,,,,0,,,80,0
28719,note_on,,,,,80,0,1,,,,,0,,,84,0
28719,note_on,,,,,0,0,1,,,,,0,,,75,0
28719,note_on,,,,,0,0,1,,,,,0,,,77,78
28719,note_on,,,,,0,0,1,,,,,0,,,84,78
28800,note_on,,,,,0,0,1,,,,,0,,,89,78
28800,note_on,,,,,0,0,2,,,,,1,,,41,65
28800,note_on,,,,,201,0,2,,,,,1,,,56,0
28800,note_on,,,,,0,0,2,,,,,1,,,51,0
28800,note_on,,,,,0,0,2,,,,,1,,,48,0
28800,note_on,,,,,81,0,1,,,,,0,,,80,78
28824,control_change,,,,,24,0,2,,,,,1,64,127,,
29040,note_on,,,,,240,0,1,,,,,0,,,89,0
29040,note_on,,,,,0,0,1,,,,,0,,,84,0
29040,note_on,,,,,0,0,1,,,,,0,,,80,0
29040,note_on,,,,,0,0,2,,,,,1,,,60,65
29040,note_on,,,,,0,0,2,,,,,1,,,56,65
29040,note_on,,,,,0,0,2,,,,,1,,,53,65
29040,note_on,,,,,216,0,2,,,,,1,,,41,0
29040,note_on,,,,,0,0,1,,,,,0,,,77,0
29119,note_on,,,,,0,0,1,,,,,0,,,68,78
29119,note_on,,,,,79,0,1,,,,,0,,,60,78
29199,note_on,,,,,0,0,1,,,,,0,,,72,78
29199,note_on,,,,,80,0,1,,,,,0,,,68,0
29199,note_on,,,,,0,0,1,,,,,0,,,60,0
29199,note_on,,,,,0,0,1,,,,,0,,,63,78
29254,control_change,,,,,214,0,2,,,,,1,64,0,,
29263,control_change,,,,,9,0,2,,,,,1,64,0,,
29279,note_on,,,,,80,0,1,,,,,0,,,72,0
29279,note_on,,,,,0,0,1,,,,,0,,,63,0
29280,note_on,,,,,0,0,2,,,,,1,,,51,65
29280,note_on,,,,,0,0,2,,,,,1,,,44,65
29280,note_on,,,,,0,0,2,,,,,1,,,53,0
29280,note_on,,,,,0,0,2,,,,,1,,,56,0
29280,note_on,,,,,17,0,2,,,,,1,,,60,0
29280,note_on,,,,,1,0,1,,,,,0,,,72,78
29280,note_on,,,,,0,0,1,,,,,0,,,80,78
29280,note_on,,,,,0,0,2,,,,,1,,,56,65
29359,note_on,,,,,0,0,1,,,,,0,,,75,78
29359,note_on,,,,,79,0,1,,,,,0,,,80,0
29359,note_on,,,,,0,0,1,,,,,0,,,72,0
29359,note_on,,,,,0,0,1,,,,,0,,,84,78
29439,note_on,,,,,80,0,1,,,,,0,,,84,0
29439,note_on,,,,,0,0,1,,,,,0,,,75,0
29439,note_on,,,,,0,0,1,,,,,0,,,77,78
29439,note_on,,,,,0,0,1,,,,,0,,,84,78
29504,control_change,,,,,224,0,2,,,,,1,64,0,,
29520,note_on,,,,,16,0,2,,,,,1,,,56,0
29520,note_on,,,,,0,0,2,,,,,1,,,51,0
29520,note_on,,,,,0,0,2,,,,,1,,,41,65
29520,note_on,,,,,81,0,1,,,,,0,,,80,78
29520,note_on,,,,,0,0,1,,,,,0,,,89,78
29520,note_on,,,,,0,0,2,,,,,1,,,44,0
29544,control_change,,,,,24,0,2,,,,,1,64,127,,
29760,note_on,,,,,0,0,1,,,,,0,,,84,0
29760,note_on,,,,,0,0,2,,,,,1,,,60,65
29760,note_on,,,,,216,0,2,,,,,1,,,41,0
29760,note_on,,,,,240,0,1,,,,,0,,,89,0
29760,note_on,,,,,0,0,1,,,,,0,,,77,0
29760,note_on,,,,,0,0,2,,,,,1,,,56,65
29760,note_on,,,,,0,0,1,,,,,0,,,80,0
29760,note_on,,,,,0,0,2,,,,,1,,,53,65
29839,note_on,,,,,0,0,1,,,,,0,,,68,78
29839,note_on,,,,,79,0,1,,,,,0,,,60,78
29919,note_on,,,,,0,0,1,,,,,0,,,63,78
29919,note_on,,,,,0,0,1,,,,,0,,,72,78
29919,note_on,,,,,0,0,1,,,,,0,,,60,0
29919,note_on,,,,,80,0,1,,,,,0,,,68,0
29966,control_change,,,,,206,0,2,,,,,1,64,0,,
29985,control_change,,,,,19,0,2,,,,,1,64,0,,
29999,note_on,,,,,0,0,1,,,,,0,,,63,0
29999,note_on,,,,,80,0,1,,,,,0,,,72,0
30000,note_on,,,,,1,0,1,,,,,0,,,72,78
30000,note_on,,,,,0,0,2,,,,,1,,,56,0
30000,note_on,,,,,0,0,2,,,,,1,,,53,0
30000,note_on,,,,,0,0,2,,,,,1,,,44,65
30000,note_on,,,,,0,0,2,,,,,1,,,51,65
30000,note_on,,,,,0,0,2,,,,,1,,,56,65
30000,note_on,,,,,0,0,1,,,,,0,,,80,78
30000,note_on,,,,,15,0,2,,,,,1,,,60,0
30079,note_on,,,,,79,0,1,,,,,0,,,80,0
30079,note_on,,,,,0,0,1,,,,,0,,,72,0
30079,note_on,,,,,0,0,1,,,,,0,,,75,78
30079,note_on,,,,,0,0,1,,,,,0,,,84,78
30159,note_on,,,,,0,0,1,,,,,0,,,80,78
30159,note_on,,,,,0,0,1,,,,,0,,,84,78
30159,note_on,,,,,80,0,1,,,,,0,,,84,0
30159,note_on,,,,,0,0,1,,,,,0,,,75,0
30240,note_on,,,,,81,0,1,,,,,0,,,92,78
30240,note_on,,,,,240,0,2,,,,,1,,,56,0
30240,note_on,,,,,0,0,2,,,,,1,,,51,0
30240,note_on,,,,,0,0,2,,,,,1,,,44,0
30240,note_on,,,,,0,0,2,,,,,1,,,36,65
30264,control_change,,,,,24,0,2,,,,,1,64,127,,
30360,note_on,,,,,120,0,1,,,,,0,,,92,0
30360,note_on,,,,,0,0,1,,,,,0,,,87,78
30476,control_change,,,,,212,0,2,,,,,1,64,0,,
30480,note_on,,,,,4,0,2,,,,,1,,,36,0
30480,note_on,,,,,0,0,1,,,,,0,,,80,0
30480,note_on,,,,,0,0,1,,,,,0,,,85,78
30480,note_on,,,,,0,0,1,,,,,0,,,79,78
30480,note_on,,,,,0,0,1,,,,,0,,,73,78
30480,note_on,,,,,0,0,2,,,,,1,,,39,65
30480,note_on,,,,,0,0,1,,,,,0,,,84,0
30480,note_on,,,,,120,0,1,,,,,0,,,87,0
30504,control_change,,,,,24,0,2,,,,,1,64,127,,
30720,note_on,,,,,0,0,2,,,,,1,,,61,65
30720,note_on,,,,,0,0,2,,,,,1,,,55,65
30720,note_on,,,,,0,0,2,,,,,1,,,51,65
30720,note_on,,,,,216,0,2,,,,,1,,,39,0
30720,note_on,,,,,240,0,1,,,,,0,,,85,0
30720,note_on,,,,,0,0,1,,,,,0,,,79,0
30720,note_on,,,,,0,0,1,,,,,0,,,73,0
30720,note_on,,,,,0,0,1,,,,,0,,,70,78
30720,note_on,,,,,0,0,1,,,,,0,,,73,78
30720,note_on,,,,,0,0,1,,,,,0,,,82,78
30960,note_on,,,,,0,0,2,,,,,1,,,32,65
30960,note_on,,,,,0,0,2,,,,,1,,,55,0
30960,note_on,,,,,240,0,2,,,,,1,,,61,0
30960,note_on,,,,,0,0,2,,,,,1,,,51,0
30960,note_on,,,,,240,0,1,,,,,0,,,82,0
30960,note_on,,,,,0,0,1,,,,,0,,,72,78
30960,note_on,,,,,0,0,1,,,,,0,,,80,78
30960,note_on,,,,,0,0,1,,,,,0,,,73,0
30960,note_on,,,,,0,0,1,,,,,0,,,68,78
30960,note_on,,,,,0,0,1,,,,,0,,,70,0
31015,control_change,,,,,55,0,2,,,,,1,64,0,,
31024,control_change,,,,,9,0,2,,,,,1,64,0,,
31082,control_change,,,,,58,0,2,,,,,1,64,0,,
31092,control_change,,,,,10,0,2,,,,,1,64,127,,
31200,note_on,,,,,0,0,1,,,,,0,,,72,0
31200,note_on,,,,,0,0,2,,,,,1,,,56,65
31200,note_on,,,,,0,0,2,,,,,1,,,51,65
31200,note_on,,,,,108,0,2,,,,,1,,,32,0
31200,note_on,,,,,0,0,2,,,,,1,,,60,65
31200,note_on,,,,,240,0,1,,,,,0,,,80,0
31200,note_on,,,,,0,0,1,,,,,0,,,68,0
31440,note_on,,,,,0,0,2,,,,,1,,,51,0
31440,note_on,,,,,0,0,2,,,,,1,,,56,0
31440,note_on,,,,,240,0,2,,,,,1,,,60,0
31448,control_change,,,,,248,0,1,,,,,0,64,0,,
31448,end_of_track,,,,,0,1,1,,,,,,,,,
31457,control_change,,,,,17,0,2,,,,,1,64,0,,
31457,end_of_track,,,,,0,1,2,,,,,,,,,
