tick,type,time,meta,track,numerator,denominator,clocks_per_click,notated_32nd_notes_per_beat,key,tempo,control,value,channel,program,pitch,note,velocity
0,track_name,0,1,0,,,,,,,,,,,,,
0,control_change,0,0,2,,,,,,,64,0,2,,,,
0,control_change,0,0,2,,,,,,,64,0,2,,,,
0,control_change,0,0,2,,,,,,,10,73,2,,,,
0,control_change,0,0,2,,,,,,,91,100,2,,,,
0,control_change,0,0,2,,,,,,,93,30,2,,,,
0,control_change,0,0,2,,,,,,,1,0,2,,,,
0,program_change,0,0,2,,,,,,,,,2,0,,,
0,pitchwheel,0,0,2,,,,,,,,,2,,0,,
0,track_name,0,1,3,,,,,,,,,,,,,
0,control_change,0,0,3,,,,,,,0,0,3,,,,
0,control_change,0,0,3,,,,,,,0,0,3,,,,
0,control_change,0,0,3,,,,,,,32,0,3,,,,
0,control_change,0,0,3,,,,,,,32,0,3,,,,
0,program_change,0,0,3,,,,,,,,,3,0,,,
0,control_change,0,0,2,,,,,,,7,122,2,,,,
0,program_change,0,0,2,,,,,,,,,2,0,,,
0,control_change,0,0,2,,,,,,,32,0,2,,,,
0,control_change,0,0,2,,,,,,,32,0,2,,,,
0,control_change,0,0,1,,,,,,,0,0,1,,,,
0,control_change,0,0,1,,,,,,,32,0,1,,,,
0,control_change,0,0,1,,,,,,,32,0,1,,,,
0,control_change,0,0,1,,,,,,,64,0,1,,,,
0,control_change,0,0,1,,,,,,,7,127,1,,,,
0,control_change,0,0,1,,,,,,,1,0,1,,,,
0,control_change,0,0,1,,,,,,,93,30,1,,,,
0,control_change,0,0,1,,,,,,,91,100,1,,,,
0,control_change,0,0,1,,,,,,,10,73,1,,,,
0,program_change,0,0,1,,,,,,,,,1,0,,,
0,program_change,0,0,1,,,,,,,,,1,0,,,
0,pitchwheel,0,0,1,,,,,,,,,1,,0,,
0,track_name,0,1,2,,,,,,,,,,,,,
0,control_change,0,0,2,,,,,,,0,0,2,,,,
0,control_change,0,0,2,,,,,,,0,0,2,,,,
0,program_change,0,0,3,,,,,,,,,3,0,,,
0,control_change,0,0,3,,,,,,,64,0,3,,,,
0,control_change,0,0,3,,,,,,,64,0,3,,,,
0,control_change,0,0,3,,,,,,,10,64,3,,,,
0,track_name,0,1,5,,,,,,,,,,,,,
0,control_change,0,0,5,,,,,,,0,0,5,,,,
0,control_change,0,0,5,,,,,,,0,0,5,,,,
0,control_change,0,0,5,,,,,,,32,0,5,,,,
0,control_change,0,0,5,,,,,,,32,0,5,,,,
0,program_change,0,0,5,,,,,,,,,5,0,,,
0,program_change,0,0,5,,,,,,,,,5,0,,,
0,control_change,0,0,5,,,,,,,64,0,5,,,,
0,control_change,0,0,5,,,,,,,64,0,5,,,,
0,control_change,0,0,5,,,,,,,10,55,5,,,,
0,control_change,0,0,5,,,,,,,91,100,5,,,,
0,control_change,0,0,5,,,,,,,93,30,5,,,,
0,control_change,0,0,5,,,,,,,1,0,5,,,,
0,pitchwheel,0,0,5,,,,,,,,,5,,0,,
0,control_change,0,0,5,,,,,,,7,125,5,,,,
0,control_change,0,0,4,,,,,,,7,120,4,,,,
0,control_change,0,0,1,,,,,,,0,0,1,,,,
0,pitchwheel,0,0,4,,,,,,,,,4,,0,,
0,control_change,0,0,4,,,,,,,93,30,4,,,,
0,control_change,0,0,3,,,,,,,93,30,3,,,,
0,control_change,0,0,3,,,,,,,1,0,3,,,,
0,pitchwheel,0,0,3,,,,,,,,,3,,0,,
0,control_change,0,0,3,,,,,,,7,112,3,,,,
0,track_name,0,1,4,,,,,,,,,,,,,
0,control_change,0,0,4,,,,,,,0,0,4,,,,
0,control_change,0,0,4,,,,,,,0,0,4,,,,
0,control_change,0,0,4,,,,,,,32,0,4,,,,
0,control_change,0,0,4,,,,,,,32,0,4,,,,
0,program_change,0,0,4,,,,,,,,,4,0,,,
0,program_change,0,0,4,,,,,,,,,4,0,,,
0,control_change,0,0,4,,,,,,,64,0,4,,,,
0,control_change,0,0,4,,,,,,,64,0,4,,,,
0,control_change,0,0,4,,,,,,,10,55,4,,,,
0,control_change,0,0,4,,,,,,,91,100,4,,,,
0,control_change,0,0,4,,,,,,,1,0,4,,,,
0,track_name,0,1,1,,,,,,,,,,,,,
0,control_change,0,0,3,,,,,,,91,100,3,,,,
0,set_tempo,0,1,0,,,,,,500000,,,,,,,
0,marker,0,1,0,,,,,,,,,,,,,
0,key_signature,0,1,0,,,,,E,,,,,,,,
0,time_signature,0,1,0,6,8,24,8,,,,,,,,,
960,set_tempo,960,1,0,,,,,,1363636,,,,,,,
1200,note_on,1200,0,1,,,,,,,,,1,,,70,46
1200,note_on,1200,0,5,,,,,,,,,5,,,39,46
1240,control_change,1240,0,2,,,,,,,64,127,2,,,,
1240,control_change,1240,0,3,,,,,,,64,127,3,,,,
1240,control_change,40,0,5,,,,,,,64,127,5,,,,
1240,control_change,40,0,1,,,,,,,64,127,1,,,,
1240,control_change,1240,0,4,,,,,,,64,127,4,,,,
1320,set_tempo,360,1,0,,,,,,1395348,,,,,,,
1440,note_on,200,0,2,,,,,,,,,2,,,63,47
1440,note_on,0,0,1,,,,,,,,,1,,,75,47
1440,note_off,200,0,1,,,,,,,,,1,,,70,0
1440,note_on,200,0,4,,,,,,,,,4,,,55,47
1440,note_off,200,0,5,,,,,,,,,5,,,39,0
1440,note_on,0,0,5,,,,,,,,,5,,,51,47
1440,marker,0,1,0,,,,,,,,,,,,,
1440,set_tempo,120,1,0,,,,,,1363636,,,,,,,
1680,note_on,240,0,1,,,,,,,,,1,,,74,48
1920,note_off,240,0,1,,,,,,,,,1,,,74,0
1920,note_off,480,0,4,,,,,,,,,4,,,55,0
1920,note_on,0,0,4,,,,,,,,,4,,,55,49
1920,note_on,0,0,1,,,,,,,,,1,,,72,49
1920,note_off,480,0,2,,,,,,,,,2,,,63,0
1920,note_off,0,0,1,,,,,,,,,1,,,75,0
1920,note_on,0,0,5,,,,,,,,,5,,,51,49
1920,note_off,480,0,5,,,,,,,,,5,,,51,0
1920,note_on,0,0,2,,,,,,,,,2,,,75,49
1920,note_on,0,0,2,,,,,,,,,2,,,63,49
2160,note_on,0,0,5,,,,,,,,,5,,,51,50
2160,note_off,0,0,5,,,,,,,,,5,,,51,0
2160,control_change,240,0,5,,,,,,,64,0,5,,,,
2160,control_change,240,0,4,,,,,,,64,0,4,,,,
2160,note_off,0,0,4,,,,,,,,,4,,,55,0
2160,note_on,0,0,4,,,,,,,,,4,,,55,50
2160,note_on,0,0,1,,,,,,,,,1,,,70,50
2160,note_off,0,0,1,,,,,,,,,1,,,72,0
2160,control_change,240,0,2,,,,,,,64,0,2,,,,
2160,note_off,0,0,2,,,,,,,,,2,,,75,0
2160,control_change,920,0,3,,,,,,,64,0,3,,,,
2160,note_off,0,0,2,,,,,,,,,2,,,63,0
2160,control_change,240,0,1,,,,,,,64,0,1,,,,
2160,note_on,0,0,2,,,,,,,,,2,,,63,50
2160,note_on,0,0,2,,,,,,,,,2,,,75,50
2200,control_change,40,0,5,,,,,,,64,127,5,,,,
2200,control_change,40,0,3,,,,,,,64,127,3,,,,
2200,control_change,40,0,2,,,,,,,64,127,2,,,,
2200,control_change,40,0,4,,,,,,,64,127,4,,,,
2200,control_change,40,0,1,,,,,,,64,127,1,,,,
2640,note_on,0,0,5,,,,,,,,,5,,,39,53
2640,note_off,440,0,5,,,,,,,,,5,,,51,0
2640,note_on,0,0,1,,,,,,,,,1,,,68,53
2640,note_off,440,0,1,,,,,,,,,1,,,70,0
2640,note_on,0,0,2,,,,,,,,,2,,,75,53
2640,note_on,0,0,2,,,,,,,,,2,,,63,53
2640,note_off,440,0,2,,,,,,,,,2,,,75,0
2640,note_off,440,0,4,,,,,,,,,4,,,55,0
2640,note_off,0,0,2,,,,,,,,,2,,,63,0
2760,note_on,0,0,1,,,,,,,,,1,,,67,53
2760,note_off,120,0,1,,,,,,,,,1,,,68,0
2880,control_change,240,0,4,,,,,,,64,0,4,,,,
2880,note_off,0,0,2,,,,,,,,,2,,,75,0
2880,note_on,0,0,4,,,,,,,,,4,,,55,55
2880,marker,1440,1,0,,,,,,,,,,,,,
2880,control_change,240,0,2,,,,,,,64,0,2,,,,
2880,note_off,0,0,5,,,,,,,,,5,,,39,0
2880,note_on,0,0,1,,,,,,,,,1,,,65,55
2880,note_on,0,0,5,,,,,,,,,5,,,51,55
2880,control_change,240,0,5,,,,,,,64,0,5,,,,
2880,control_change,120,0,1,,,,,,,64,0,1,,,,
2880,control_change,680,0,3,,,,,,,64,0,3,,,,
2880,note_off,0,0,1,,,,,,,,,1,,,67,0
2880,note_off,0,0,2,,,,,,,,,2,,,63,0
2880,note_on,0,0,2,,,,,,,,,2,,,75,55
2920,control_change,40,0,4,,,,,,,64,127,4,,,,
2920,control_change,40,0,3,,,,,,,64,127,3,,,,
2920,control_change,40,0,2,,,,,,,64,127,2,,,,
2920,control_change,40,0,5,,,,,,,64,127,5,,,,
2920,control_change,40,0,1,,,,,,,64,127,1,,,,
3120,note_on,0,0,1,,,,,,,,,1,,,63,51
3120,note_off,200,0,1,,,,,,,,,1,,,65,0
3360,note_on,0,0,2,,,,,,,,,2,,,75,47
3360,note_off,440,0,2,,,,,,,,,2,,,75,0
3360,note_off,240,0,1,,,,,,,,,1,,,63,0
3360,note_on,0,0,1,,,,,,,,,1,,,67,47
3360,note_on,0,0,5,,,,,,,,,5,,,51,47
3360,note_off,440,0,4,,,,,,,,,4,,,55,0
3360,note_on,0,0,4,,,,,,,,,4,,,55,47
3360,note_off,440,0,5,,,,,,,,,5,,,51,0
3600,note_off,0,0,5,,,,,,,,,5,,,51,0
3600,control_change,240,0,5,,,,,,,64,0,5,,,,
3600,note_off,0,0,4,,,,,,,,,4,,,55,0
3600,note_on,0,0,4,,,,,,,,,4,,,55,43
3600,note_on,0,0,5,,,,,,,,,5,,,51,43
3600,control_change,240,0,4,,,,,,,64,0,4,,,,
3600,note_on,0,0,2,,,,,,,,,2,,,75,43
3600,note_on,0,0,2,,,,,,,,,2,,,63,43
3600,note_off,0,0,2,,,,,,,,,2,,,75,0
3600,control_change,240,0,2,,,,,,,64,0,2,,,,
3600,control_change,680,0,3,,,,,,,64,0,3,,,,
3600,control_change,240,0,1,,,,,,,64,0,1,,,,
3600,note_off,0,0,1,,,,,,,,,1,,,67,0
3600,note_on,0,0,1,,,,,,,,,1,,,70,43
3640,control_change,40,0,5,,,,,,,64,127,5,,,,
3640,control_change,40,0,2,,,,,,,64,127,2,,,,
3640,control_change,40,0,1,,,,,,,64,127,1,,,,
3640,control_change,40,0,3,,,,,,,64,127,3,,,,
3640,control_change,40,0,4,,,,,,,64,127,4,,,,
3960,set_tempo,1080,1,0,,,,,,1395348,,,,,,,
4080,control_change,440,0,1,,,,,,,64,0,1,,,,
4080,note_off,0,0,1,,,,,,,,,1,,,70,0
4080,note_on,0,0,1,,,,,,,,,1,,,72,45
4080,control_change,440,0,4,,,,,,,64,0,4,,,,
4080,set_tempo,120,1,0,,,,,,1363636,,,,,,,
4080,note_off,0,0,2,,,,,,,,,2,,,75,0
4080,note_off,0,0,2,,,,,,,,,2,,,63,0
4080,note_on,0,0,2,,,,,,,,,2,,,63,45
4080,note_on,0,0,5,,,,,,,,,5,,,31,45
4080,note_off,0,0,5,,,,,,,,,5,,,51,0
4080,control_change,440,0,5,,,,,,,64,0,5,,,,
4080,note_on,0,0,2,,,,,,,,,2,,,75,45
4080,note_off,0,0,4,,,,,,,,,4,,,55,0
4080,control_change,440,0,3,,,,,,,64,0,3,,,,
4080,control_change,440,0,2,,,,,,,64,0,2,,,,
4120,control_change,40,0,5,,,,,,,64,127,5,,,,
4120,control_change,40,0,2,,,,,,,64,127,2,,,,
4120,control_change,40,0,1,,,,,,,64,127,1,,,,
4120,control_change,40,0,3,,,,,,,64,127,3,,,,
4120,control_change,40,0,4,,,,,,,64,127,4,,,,
4200,note_on,0,0,1,,,,,,,,,1,,,74,45
4200,set_tempo,120,1,0,,,,,,1395348,,,,,,,
4200,note_off,80,0,1,,,,,,,,,1,,,72,0
4320,control_change,200,0,5,,,,,,,64,0,5,,,,
4320,note_off,0,0,1,,,,,,,,,1,,,74,0
4320,note_on,0,0,1,,,,,,,,,1,,,75,48
4320,control_change,200,0,4,,,,,,,64,0,4,,,,
4320,note_on,0,0,4,,,,,,,,,4,,,51,46
4320,note_on,0,0,4,,,,,,,,,4,,,55,46
4320,note_off,0,0,5,,,,,,,,,5,,,31,0
4320,marker,0,1,0,,,,,,,,,,,,,
4320,set_tempo,120,1,0,,,,,,1363636,,,,,,,
4320,note_on,0,0,2,,,,,,,,,2,,,63,46
4320,note_off,0,0,2,,,,,,,,,2,,,63,0
4320,note_off,0,0,2,,,,,,,,,2,,,75,0
4320,control_change,200,0,2,,,,,,,64,0,2,,,,
4320,note_on,0,0,5,,,,,,,,,5,,,43,46
4320,control_change,120,0,1,,,,,,,64,0,1,,,,
4320,control_change,200,0,3,,,,,,,64,0,3,,,,
4360,control_change,40,0,3,,,,,,,64,127,3,,,,
4360,control_change,40,0,5,,,,,,,64,127,5,,,,
4360,control_change,40,0,4,,,,,,,64,127,4,,,,
4360,control_change,40,0,2,,,,,,,64,127,2,,,,
4360,control_change,40,0,1,,,,,,,64,127,1,,,,
4560,note_on,200,0,1,,,,,,,,,1,,,74,47
4800,note_off,0,0,1,,,,,,,,,1,,,75,0
4800,note_off,440,0,5,,,,,,,,,5,,,43,0
4800,note_on,0,0,5,,,,,,,,,5,,,43,48
4800,note_off,440,0,2,,,,,,,,,2,,,63,0
4800,note_on,0,0,2,,,,,,,,,2,,,63,48
4800,note_on,0,0,1,,,,,,,,,1,,,72,48
4800,note_on,0,0,4,,,,,,,,,4,,,55,48
4800,note_on,0,0,4,,,,,,,,,4,,,51,48
4800,note_off,0,0,4,,,,,,,,,4,,,51,0
4800,note_off,440,0,4,,,,,,,,,4,,,55,0
4800,note_on,0,0,2,,,,,,,,,2,,,75,48
4800,note_off,240,0,1,,,,,,,,,1,,,74,0
5040,note_off,0,0,4,,,,,,,,,4,,,51,0
5040,control_change,240,0,4,,,,,,,64,0,4,,,,
5040,note_on,0,0,4,,,,,,,,,4,,,55,49
5040,control_change,240,0,1,,,,,,,64,0,1,,,,
5040,note_on,0,0,5,,,,,,,,,5,,,43,49
5040,note_off,0,0,5,,,,,,,,,5,,,43,0
5040,control_change,240,0,5,,,,,,,64,0,5,,,,
5040,note_off,0,0,1,,,,,,,,,1,,,72,0
5040,note_off,0,0,4,,,,,,,,,4,,,55,0
5040,note_on,0,0,4,,,,,,,,,4,,,51,49
5040,note_on,0,0,1,,,,,,,,,1,,,70,49
5040,note_off,0,0,2,,,,,,,,,2,,,75,0
5040,note_off,0,0,2,,,,,,,,,2,,,63,0
5040,note_on,0,0,2,,,,,,,,,2,,,63,49
5040,note_on,0,0,2,,,,,,,,,2,,,75,49
5040,control_change,680,0,3,,,,,,,64,0,3,,,,
5040,control_change,240,0,2,,,,,,,64,0,2,,,,
5080,control_change,40,0,3,,,,,,,64,127,3,,,,
5080,control_change,40,0,2,,,,,,,64,127,2,,,,
5080,control_change,40,0,1,,,,,,,64,127,1,,,,
5080,control_change,40,0,5,,,,,,,64,127,5,,,,
5080,control_change,40,0,4,,,,,,,64,127,4,,,,
5520,note_on,0,0,2,,,,,,,,,2,,,63,50
5520,note_off,0,0,5,,,,,,,,,5,,,43,0
5520,note_off,0,0,4,,,,,,,,,4,,,51,0
5520,control_change,440,0,2,,,,,,,64,0,2,,,,
5520,note_off,0,0,2,,,,,,,,,2,,,75,0
5520,note_on,0,0,2,,,,,,,,,2,,,75,50
5520,note_on,0,0,5,,,,,,,,,5,,,34,50
5520,control_change,440,0,5,,,,,,,64,0,5,,,,
5520,note_off,0,0,2,,,,,,,,,2,,,63,0
5520,control_change,440,0,3,,,,,,,64,0,3,,,,
5520,control_change,440,0,4,,,,,,,64,0,4,,,,
5520,note_on,0,0,1,,,,,,,,,1,,,68,50
5520,note_off,0,0,1,,,,,,,,,1,,,70,0
5520,control_change,440,0,1,,,,,,,64,0,1,,,,
5520,note_off,0,0,4,,,,,,,,,4,,,55,0
5560,control_change,40,0,1,,,,,,,64,127,1,,,,
5560,control_change,40,0,5,,,,,,,64,127,5,,,,
5560,control_change,40,0,2,,,,,,,64,127,2,,,,
5560,control_change,40,0,3,,,,,,,64,127,3,,,,
5560,control_change,40,0,4,,,,,,,64,127,4,,,,
5640,note_on,80,0,1,,,,,,,,,1,,,67,51
5760,note_off,0,0,5,,,,,,,,,5,,,34,0
5760,note_off,0,0,1,,,,,,,,,1,,,68,0
5760,control_change,200,0,3,,,,,,,64,0,3,,,,
5760,note_on,0,0,5,,,,,,,,,5,,,46,53
5760,note_on,0,0,1,,,,,,,,,1,,,70,53
5760,note_off,0,0,1,,,,,,,,,1,,,67,0
5760,control_change,120,0,1,,,,,,,64,0,1,,,,
5760,control_change,200,0,5,,,,,,,64,0,5,,,,
5760,note_on,0,0,2,,,,,,,,,2,,,75,53
5760,control_change,200,0,4,,,,,,,64,0,4,,,,
5760,note_off,0,0,2,,,,,,,,,2,,,75,0
5760,note_off,0,0,2,,,,,,,,,2,,,63,0
5760,control_change,200,0,2,,,,,,,64,0,2,,,,
5760,note_on,0,0,4,,,,,,,,,4,,,55,53
5800,control_change,40,0,1,,,,,,,64,127,1,,,,
5800,control_change,40,0,4,,,,,,,64,127,4,,,,
5800,control_change,40,0,5,,,,,,,64,127,5,,,,
5800,control_change,40,0,3,,,,,,,64,127,3,,,,
5800,control_change,40,0,2,,,,,,,64,127,2,,,,
6000,note_off,200,0,1,,,,,,,,,1,,,70,0
6000,note_on,0,0,1,,,,,,,,,1,,,63,50
6200,note_on,200,0,1,,,,,,,,,1,,,67,47
6240,note_on,0,0,2,,,,,,,,,2,,,74,47
6240,note_on,0,0,4,,,,,,,,,4,,,56,47
6240,control_change,440,0,2,,,,,,,64,0,2,,,,
6240,control_change,440,0,4,,,,,,,64,0,4,,,,
6240,note_off,0,0,2,,,,,,,,,2,,,75,0
6240,note_off,0,0,1,,,,,,,,,1,,,63,0
6240,note_on,0,0,1,,,,,,,,,1,,,65,47
6240,note_on,0,0,5,,,,,,,,,5,,,46,47
6240,note_off,0,0,5,,,,,,,,,5,,,46,0
6240,control_change,440,0,5,,,,,,,64,0,5,,,,
6240,control_change,440,0,3,,,,,,,64,0,3,,,,
6240,control_change,40,0,1,,,,,,,64,0,1,,,,
6240,note_off,0,0,4,,,,,,,,,4,,,55,0
6260,note_off,20,0,1,,,,,,,,,1,,,67,0
6280,control_change,40,0,2,,,,,,,64,127,2,,,,
6280,control_change,40,0,4,,,,,,,64,127,4,,,,
6280,control_change,40,0,3,,,,,,,64,127,3,,,,
6280,control_change,40,0,5,,,,,,,64,127,5,,,,
6280,control_change,20,0,1,,,,,,,64,127,1,,,,
6480,control_change,200,0,4,,,,,,,64,0,4,,,,
6480,note_off,0,0,4,,,,,,,,,4,,,56,0
6480,note_on,0,0,4,,,,,,,,,4,,,55,44
6480,control_change,200,0,3,,,,,,,64,0,3,,,,
6480,note_off,0,0,1,,,,,,,,,1,,,65,0
6480,note_off,0,0,2,,,,,,,,,2,,,74,0
6480,note_on,0,0,1,,,,,,,,,1,,,63,44
6480,note_on,0,0,2,,,,,,,,,2,,,75,44
6480,control_change,200,0,2,,,,,,,64,0,2,,,,
6480,control_change,200,0,5,,,,,,,64,0,5,,,,
6480,note_off,0,0,5,,,,,,,,,5,,,46,0
6480,control_change,200,0,1,,,,,,,64,0,1,,,,
6480,note_on,0,0,5,,,,,,,,,5,,,51,44
6520,control_change,40,0,1,,,,,,,64,127,1,,,,
6520,control_change,40,0,2,,,,,,,64,127,2,,,,
6520,control_change,40,0,3,,,,,,,64,127,3,,,,
6520,control_change,40,0,4,,,,,,,64,127,4,,,,
6520,control_change,40,0,5,,,,,,,64,127,5,,,,
6720,set_tempo,2400,1,0,,,,,,1395348,,,,,,,
6840,note_on,0,0,1,,,,,,,,,1,,,67,47
6840,set_tempo,120,1,0,,,,,,1363636,,,,,,,
6840,note_off,320,0,1,,,,,,,,,1,,,63,0
6960,note_on,0,0,5,,,,,,,,,5,,,39,48
6960,note_on,0,0,1,,,,,,,,,1,,,70,48
6960,note_off,440,0,2,,,,,,,,,2,,,75,0
6960,note_off,440,0,5,,,,,,,,,5,,,51,0
6960,note_off,120,0,1,,,,,,,,,1,,,67,0
6960,note_off,440,0,4,,,,,,,,,4,,,55,0
7080,note_off,120,0,1,,,,,,,,,1,,,70,0
7080,set_tempo,240,1,0,,,,,,1395348,,,,,,,
7080,note_on,0,0,1,,,,,,,,,1,,,79,49
7200,note_off,0,0,1,,,,,,,,,1,,,79,0
7200,control_change,240,0,4,,,,,,,64,0,4,,,,
7200,note_on,0,0,4,,,,,,,,,4,,,60,53
7200,note_on,0,0,1,,,,,,,,,1,,,77,53
7200,note_on,0,0,2,,,,,,,,,2,,,68,53
7200,control_change,240,0,5,,,,,,,64,0,5,,,,
7200,note_on,0,0,5,,,,,,,,,5,,,51,53
7200,set_tempo,120,1,0,,,,,,1363636,,,,,,,
7200,control_change,680,0,3,,,,,,,64,0,3,,,,
7200,control_change,240,0,2,,,,,,,64,0,2,,,,
7200,note_on,0,0,2,,,,,,,,,2,,,80,53
7200,note_off,0,0,5,,,,,,,,,5,,,39,0
7200,control_change,120,0,1,,,,,,,64,0,1,,,,
7240,control_change,40,0,1,,,,,,,64,127,1,,,,
7240,control_change,40,0,5,,,,,,,64,127,5,,,,
7240,control_change,40,0,2,,,,,,,64,127,2,,,,
7240,control_change,40,0,4,,,,,,,64,127,4,,,,
7240,control_change,40,0,3,,,,,,,64,127,3,,,,
7440,note_off,200,0,1,,,,,,,,,1,,,77,0
7440,note_on,0,0,1,,,,,,,,,1,,,72,51
7680,note_off,440,0,4,,,,,,,,,4,,,60,0
7680,note_off,240,0,1,,,,,,,,,1,,,72,0
7680,note_on,0,0,1,,,,,,,,,1,,,74,49
7680,note_on,0,0,2,,,,,,,,,2,,,77,49
7680,note_off,0,0,2,,,,,,,,,2,,,80,0
7680,note_off,440,0,2,,,,,,,,,2,,,68,0
7680,note_off,440,0,5,,,,,,,,,5,,,51,0
7680,note_on,0,0,5,,,,,,,,,5,,,51,49
7680,note_on,0,0,4,,,,,,,,,4,,,56,49
7680,note_on,0,0,2,,,,,,,,,2,,,65,49
7920,note_off,0,0,4,,,,,,,,,4,,,56,0
7920,control_change,240,0,4,,,,,,,64,0,4,,,,
7920,note_on,0,0,2,,,,,,,,,2,,,79,47
7920,note_on,0,0,2,,,,,,,,,2,,,67,47
7920,note_off,0,0,2,,,,,,,,,2,,,77,0
7920,note_off,0,0,2,,,,,,,,,2,,,65,0
7920,control_change,240,0,2,,,,,,,64,0,2,,,,
7920,note_on,0,0,4,,,,,,,,,4,,,58,47
7920,note_off,0,0,1,,,,,,,,,1,,,74,0
7920,note_on,0,0,1,,,,,,,,,1,,,70,47
7920,control_change,680,0,3,,,,,,,64,0,3,,,,
7920,control_change,240,0,1,,,,,,,64,0,1,,,,
7920,control_change,240,0,5,,,,,,,64,0,5,,,,
7920,note_on,0,0,5,,,,,,,,,5,,,51,47
7920,note_off,0,0,5,,,,,,,,,5,,,51,0
7960,control_change,40,0,2,,,,,,,64,127,2,,,,
7960,control_change,40,0,5,,,,,,,64,127,5,,,,
7960,control_change,40,0,3,,,,,,,64,127,3,,,,
7960,control_change,40,0,4,,,,,,,64,127,4,,,,
7960,control_change,40,0,1,,,,,,,64,127,1,,,,
8160,set_tempo,960,1,0,,,,,,1395348,,,,,,,
8280,note_on,0,0,1,,,,,,,,,1,,,75,51
8280,note_off,320,0,1,,,,,,,,,1,,,70,0
8280,set_tempo,120,1,0,,,,,,1363636,,,,,,,
8400,note_on,0,0,5,,,,,,,,,5,,,39,52
8400,note_off,440,0,5,,,,,,,,,5,,,51,0
8400,note_on,0,0,2,,,,,,,,,2,,,70,52
8400,note_off,0,0,2,,,,,,,,,2,,,67,0
8400,note_off,440,0,2,,,,,,,,,2,,,79,0
8400,note_off,120,0,1,,,,,,,,,1,,,75,0
8400,note_on,0,0,1,,,,,,,,,1,,,79,52
8400,note_off,440,0,4,,,,,,,,,4,,,58,0
8400,note_on,0,0,2,,,,,,,,,2,,,82,52
8520,set_tempo,240,1,0,,,,,,1395348,,,,,,,
8520,note_on,0,0,1,,,,,,,,,1,,,75,54
8520,note_off,120,0,1,,,,,,,,,1,,,79,0
8640,control_change,120,0,1,,,,,,,64,0,1,,,,
8640,control_change,680,0,3,,,,,,,64,0,3,,,,
8640,note_off,0,0,1,,,,,,,,,1,,,75,0
8640,control_change,240,0,5,,,,,,,64,0,5,,,,
8640,note_on,0,0,4,,,,,,,,,4,,,60,58
8640,control_change,240,0,2,,,,,,,64,0,2,,,,
8640,note_off,0,0,2,,,,,,,,,2,,,82,0
8640,note_off,0,0,2,,,,,,,,,2,,,70,0
8640,note_on,0,0,2,,,,,,,,,2,,,80,58
8640,note_on,0,0,2,,,,,,,,,2,,,68,58
8640,control_change,240,0,4,,,,,,,64,0,4,,,,
8640,note_off,0,0,5,,,,,,,,,5,,,39,0
8640,set_tempo,120,1,0,,,,,,1363636,,,,,,,
8640,note_on,0,0,1,,,,,,,,,1,,,77,58
8640,note_on,0,0,5,,,,,,,,,5,,,51,58
8680,control_change,40,0,3,,,,,,,64,127,3,,,,
8680,control_change,40,0,1,,,,,,,64,127,1,,,,
8680,control_change,40,0,4,,,,,,,64,127,4,,,,
8680,control_change,40,0,5,,,,,,,64,127,5,,,,
8680,control_change,40,0,2,,,,,,,64,127,2,,,,
8880,note_on,0,0,1,,,,,,,,,1,,,72,56
8880,note_off,200,0,1,,,,,,,,,1,,,77,0
9120,control_change,440,0,2,,,,,,,64,0,2,,,,
9120,note_off,0,0,2,,,,,,,,,2,,,68,0
9120,note_off,0,0,2,,,,,,,,,2,,,80,0
9120,note_on,0,0,2,,,,,,,,,2,,,77,53
9120,note_on,0,0,4,,,,,,,,,4,,,56,53
9120,note_off,0,0,4,,,,,,,,,4,,,60,0
9120,note_on,0,0,5,,,,,,,,,5,,,51,53
9120,control_change,440,0,4,,,,,,,64,0,4,,,,
9120,note_on,0,0,2,,,,,,,,,2,,,65,53
9120,control_change,440,0,5,,,,,,,64,0,5,,,,
9120,note_off,0,0,5,,,,,,,,,5,,,51,0
9120,control_change,240,0,1,,,,,,,64,0,1,,,,
9120,control_change,440,0,3,,,,,,,64,0,3,,,,
9120,note_off,0,0,1,,,,,,,,,1,,,72,0
9120,note_on,0,0,1,,,,,,,,,1,,,74,53
9160,control_change,40,0,2,,,,,,,64,127,2,,,,
9160,control_change,40,0,3,,,,,,,64,127,3,,,,
9160,control_change,40,0,4,,,,,,,64,127,4,,,,
9160,control_change,40,0,5,,,,,,,64,127,5,,,,
9160,control_change,40,0,1,,,,,,,64,127,1,,,,
9360,note_off,0,0,2,,,,,,,,,2,,,77,0
9360,note_off,0,0,2,,,,,,,,,2,,,65,0
9360,note_on,0,0,2,,,,,,,,,2,,,67,51
9360,note_on,0,0,2,,,,,,,,,2,,,79,51
9360,control_change,200,0,2,,,,,,,64,0,2,,,,
9360,note_off,0,0,1,,,,,,,,,1,,,74,0
9360,note_off,0,0,4,,,,,,,,,4,,,56,0
9360,note_off,0,0,5,,,,,,,,,5,,,51,0
9360,control_change,200,0,5,,,,,,,64,0,5,,,,
9360,control_change,200,0,3,,,,,,,64,0,3,,,,
9360,note_on,0,0,5,,,,,,,,,5,,,51,51
9360,note_on,0,0,1,,,,,,,,,1,,,75,51
9360,control_change,200,0,1,,,,,,,64,0,1,,,,
9360,note_on,0,0,4,,,,,,,,,4,,,58,51
9360,control_change,200,0,4,,,,,,,64,0,4,,,,
9400,control_change,40,0,5,,,,,,,64,127,5,,,,
9400,control_change,40,0,4,,,,,,,64,127,4,,,,
9400,control_change,40,0,2,,,,,,,64,127,2,,,,
9400,control_change,40,0,1,,,,,,,64,127,1,,,,
9400,control_change,40,0,3,,,,,,,64,127,3,,,,
9600,note_on,0,0,1,,,,,,,,,1,,,70,52
9600,note_off,200,0,1,,,,,,,,,1,,,75,0
9840,control_change,240,0,1,,,,,,,64,0,1,,,,
9840,note_off,0,0,1,,,,,,,,,1,,,70,0
9840,note_on,0,0,1,,,,,,,,,1,,,75,59
9840,note_on,0,0,5,,,,,,,,,5,,,51,59
9840,note_off,0,0,2,,,,,,,,,2,,,79,0
9840,control_change,440,0,5,,,,,,,64,0,5,,,,
9840,note_off,0,0,5,,,,,,,,,5,,,51,0
9840,note_on,0,0,5,,,,,,,,,5,,,39,59
9840,note_on,0,0,2,,,,,,,,,2,,,72,59
9840,note_on,0,0,2,,,,,,,,,2,,,67,59
9840,note_off,0,0,2,,,,,,,,,2,,,67,0
9840,control_change,440,0,3,,,,,,,64,0,3,,,,
9840,control_change,440,0,2,,,,,,,64,0,2,,,,
9840,note_off,0,0,4,,,,,,,,,4,,,58,0
9840,control_change,440,0,4,,,,,,,64,0,4,,,,
9880,control_change,40,0,1,,,,,,,64,127,1,,,,
9880,control_change,40,0,2,,,,,,,64,127,2,,,,
9880,control_change,40,0,4,,,,,,,64,127,4,,,,
9880,control_change,40,0,3,,,,,,,64,127,3,,,,
9880,control_change,40,0,5,,,,,,,64,127,5,,,,
10080,note_off,0,0,2,,,,,,,,,2,,,67,0
10080,note_on,0,0,1,,,,,,,,,1,,,77,61
10080,note_on,0,0,1,,,,,,,,,1,,,65,61
10080,note_off,0,0,1,,,,,,,,,1,,,75,0
10080,control_change,200,0,1,,,,,,,64,0,1,,,,
10080,note_on,0,0,2,,,,,,,,,2,,,74,61
10080,note_off,0,0,2,,,,,,,,,2,,,72,0
10080,control_change,200,0,2,,,,,,,64,0,2,,,,
10080,control_change,200,0,5,,,,,,,64,0,5,,,,
10080,control_change,200,0,3,,,,,,,64,0,3,,,,
10080,note_off,0,0,5,,,,,,,,,5,,,39,0
10080,note_on,0,0,5,,,,,,,,,5,,,46,61
10080,note_on,0,0,5,,,,,,,,,5,,,58,61
10080,control_change,200,0,4,,,,,,,64,0,4,,,,
10080,note_off,0,0,5,,,,,,,,,5,,,51,0
10120,control_change,40,0,1,,,,,,,64,127,1,,,,
10120,control_change,40,0,4,,,,,,,64,127,4,,,,
10120,control_change,40,0,2,,,,,,,64,127,2,,,,
10120,control_change,40,0,3,,,,,,,64,127,3,,,,
10120,control_change,40,0,5,,,,,,,64,127,5,,,,
10320,note_off,200,0,5,,,,,,,,,5,,,58,0
10320,note_on,0,0,5,,,,,,,,,5,,,45,64
10320,note_off,0,0,5,,,,,,,,,5,,,46,0
10320,note_on,0,0,5,,,,,,,,,5,,,57,64
10560,control_change,440,0,1,,,,,,,64,0,1,,,,
10560,note_off,0,0,1,,,,,,,,,1,,,77,0
10560,note_off,0,0,1,,,,,,,,,1,,,65,0
10560,note_on,0,0,1,,,,,,,,,1,,,70,66
10560,note_on,0,0,1,,,,,,,,,1,,,82,66
10560,note_off,0,0,5,,,,,,,,,5,,,45,0
10560,note_off,0,0,5,,,,,,,,,5,,,57,0
10560,note_on,0,0,5,,,,,,,,,5,,,43,66
10560,note_on,0,0,5,,,,,,,,,5,,,55,66
10560,control_change,440,0,3,,,,,,,64,0,3,,,,
10560,control_change,240,0,5,,,,,,,64,0,5,,,,
10560,note_on,0,0,2,,,,,,,,,2,,,74,66
10560,note_off,0,0,2,,,,,,,,,2,,,74,0
10560,control_change,440,0,2,,,,,,,64,0,2,,,,
10560,control_change,440,0,4,,,,,,,64,0,4,,,,
10600,control_change,40,0,3,,,,,,,64,127,3,,,,
10600,control_change,40,0,2,,,,,,,64,127,2,,,,
10600,control_change,40,0,4,,,,,,,64,127,4,,,,
10600,control_change,40,0,1,,,,,,,64,127,1,,,,
10600,control_change,40,0,5,,,,,,,64,127,5,,,,
10800,note_on,0,0,5,,,,,,,,,5,,,53,68
10800,note_off,0,0,5,,,,,,,,,5,,,55,0
10800,control_change,200,0,4,,,,,,,64,0,4,,,,
10800,control_change,200,0,2,,,,,,,64,0,2,,,,
10800,control_change,200,0,1,,,,,,,64,0,1,,,,
10800,note_on,0,0,5,,,,,,,,,5,,,41,68
10800,note_off,0,0,5,,,,,,,,,5,,,43,0
10800,control_change,200,0,3,,,,,,,64,0,3,,,,
10800,control_change,200,0,5,,,,,,,64,0,5,,,,
10840,control_change,40,0,3,,,,,,,64,127,3,,,,
10840,control_change,40,0,5,,,,,,,64,127,5,,,,
10840,control_change,40,0,4,,,,,,,64,127,4,,,,
10840,control_change,40,0,2,,,,,,,64,127,2,,,,
10840,control_change,40,0,1,,,,,,,64,127,1,,,,
11040,note_on,0,0,2,,,,,,,,,2,,,70,64
11040,note_off,200,0,2,,,,,,,,,2,,,74,0
11040,note_off,0,0,1,,,,,,,,,1,,,70,0
11040,note_off,200,0,1,,,,,,,,,1,,,82,0
11040,note_on,0,0,2,,,,,,,,,2,,,74,64
11280,note_on,0,0,2,,,,,,,,,2,,,70,61
11280,control_change,240,0,2,,,,,,,64,0,2,,,,
11280,note_off,0,0,2,,,,,,,,,2,,,70,0
11280,note_off,0,0,2,,,,,,,,,2,,,74,0
11280,control_change,440,0,3,,,,,,,64,0,3,,,,
11280,note_on,0,0,2,,,,,,,,,2,,,77,61
11280,note_off,0,0,5,,,,,,,,,5,,,41,0
11280,control_change,440,0,5,,,,,,,64,0,5,,,,
11280,control_change,440,0,4,,,,,,,64,0,4,,,,
11280,note_on,0,0,5,,,,,,,,,5,,,39,61
11280,control_change,240,0,1,,,,,,,64,0,1,,,,
11280,note_on,0,0,1,,,,,,,,,1,,,81,61
11280,note_on,0,0,5,,,,,,,,,5,,,51,61
11280,note_off,0,0,5,,,,,,,,,5,,,53,0
11320,control_change,40,0,4,,,,,,,64,127,4,,,,
11320,control_change,40,0,3,,,,,,,64,127,3,,,,
11320,control_change,40,0,1,,,,,,,64,127,1,,,,
11320,control_change,40,0,2,,,,,,,64,127,2,,,,
11400,note_on,0,0,5,,,,,,,,,5,,,38,60
11400,note_on,0,0,5,,,,,,,,,5,,,50,60
11400,note_off,0,0,5,,,,,,,,,5,,,39,0
11400,note_off,120,0,5,,,,,,,,,5,,,51,0
11520,note_off,0,0,1,,,,,,,,,1,,,81,0
11520,control_change,200,0,1,,,,,,,64,0,1,,,,
11520,control_change,200,0,4,,,,,,,64,0,4,,,,
11520,note_on,0,0,1,,,,,,,,,1,,,79,58
11520,control_change,200,0,3,,,,,,,64,0,3,,,,
11520,note_off,0,0,2,,,,,,,,,2,,,70,0
11520,note_off,0,0,5,,,,,,,,,5,,,50,0
11520,note_on,0,0,5,,,,,,,,,5,,,53,58
11520,note_off,0,0,5,,,,,,,,,5,,,38,0
11520,control_change,120,0,5,,,,,,,64,0,5,,,,
11520,control_change,200,0,2,,,,,,,64,0,2,,,,
11520,note_on,0,0,2,,,,,,,,,2,,,70,58
11520,note_on,0,0,2,,,,,,,,,2,,,75,58
11520,note_off,0,0,2,,,,,,,,,2,,,77,0
11520,note_on,0,0,5,,,,,,,,,5,,,41,58
11560,control_change,40,0,5,,,,,,,64,127,5,,,,
11560,control_change,40,0,4,,,,,,,64,127,4,,,,
11560,control_change,40,0,3,,,,,,,64,127,3,,,,
11560,control_change,40,0,2,,,,,,,64,127,2,,,,
11560,control_change,40,0,1,,,,,,,64,127,1,,,,
11760,note_on,0,0,2,,,,,,,,,2,,,69,55
11760,note_on,0,0,1,,,,,,,,,1,,,77,55
11760,note_off,200,0,1,,,,,,,,,1,,,79,0
11760,note_off,200,0,2,,,,,,,,,2,,,70,0
11760,note_off,0,0,2,,,,,,,,,2,,,75,0
11760,note_on,0,0,2,,,,,,,,,2,,,74,55
11955,note_off,395,0,5,,,,,,,,,5,,,41,0
11958,note_off,3,0,5,,,,,,,,,5,,,53,0
11958,note_off,198,0,1,,,,,,,,,1,,,77,0
11962,note_off,202,0,2,,,,,,,,,2,,,74,0
11966,note_off,4,0,2,,,,,,,,,2,,,69,0
12000,control_change,34,0,2,,,,,,,64,0,2,,,,
12000,control_change,42,0,5,,,,,,,64,0,5,,,,
12000,note_on,0,0,2,,,,,,,,,2,,,72,52
12000,control_change,42,0,1,,,,,,,64,0,1,,,,
12000,control_change,440,0,3,,,,,,,64,0,3,,,,
12000,note_on,0,0,5,,,,,,,,,5,,,46,49
12000,note_on,0,0,1,,,,,,,,,1,,,75,52
12000,note_on,0,0,2,,,,,,,,,2,,,67,52
12000,note_on,0,0,5,,,,,,,,,5,,,34,52
12000,control_change,440,0,4,,,,,,,64,0,4,,,,
12040,control_change,40,0,5,,,,,,,64,127,5,,,,
12040,control_change,40,0,2,,,,,,,64,127,2,,,,
12040,control_change,40,0,3,,,,,,,64,127,3,,,,
12040,control_change,40,0,4,,,,,,,64,127,4,,,,
12040,control_change,40,0,1,,,,,,,64,127,1,,,,
12120,note_off,80,0,1,,,,,,,,,1,,,75,0
12120,note_on,0,0,2,,,,,,,,,2,,,65,51
12120,note_on,0,0,2,,,,,,,,,2,,,70,51
12120,note_off,0,0,2,,,,,,,,,2,,,67,0
12120,note_off,80,0,2,,,,,,,,,2,,,72,0
12120,note_on,0,0,1,,,,,,,,,1,,,74,51
12180,set_tempo,3540,1,0,,,,,,1395348,,,,,,,
12200,note_on,80,0,2,,,,,,,,,2,,,63,49
12236,note_off,196,0,5,,,,,,,,,5,,,46,0
12240,note_on,0,0,2,,,,,,,,,2,,,72,49
12240,control_change,200,0,3,,,,,,,64,0,3,,,,
12240,note_off,0,0,2,,,,,,,,,2,,,70,0
12240,note_off,0,0,2,,,,,,,,,2,,,65,0
12240,control_change,40,0,2,,,,,,,64,0,2,,,,
12240,control_change,200,0,4,,,,,,,64,0,4,,,,
12240,note_off,0,0,5,,,,,,,,,5,,,34,0
12240,note_on,0,0,5,,,,,,,,,5,,,34,52
12240,note_on,0,0,5,,,,,,,,,5,,,46,52
12240,note_on,0,0,1,,,,,,,,,1,,,77,49
12240,note_off,0,0,1,,,,,,,,,1,,,74,0
12240,control_change,120,0,1,,,,,,,64,0,1,,,,
12240,control_change,4,0,5,,,,,,,64,0,5,,,,
12240,note_on,0,0,2,,,,,,,,,2,,,68,49
12241,note_off,1,0,5,,,,,,,,,5,,,34,0
12280,control_change,40,0,2,,,,,,,64,127,2,,,,
12280,control_change,39,0,5,,,,,,,64,127,5,,,,
12280,control_change,40,0,3,,,,,,,64,127,3,,,,
12280,control_change,40,0,4,,,,,,,64,127,4,,,,
12280,control_change,40,0,1,,,,,,,64,127,1,,,,
12475,note_off,195,0,2,,,,,,,,,2,,,63,0
12480,note_on,0,0,1,,,,,,,,,1,,,70,47
12480,note_off,200,0,1,,,,,,,,,1,,,77,0
12480,note_off,5,0,2,,,,,,,,,2,,,72,0
12480,note_on,0,0,2,,,,,,,,,2,,,62,47
12620,set_tempo,440,1,0,,,,,,1428571,,,,,,,
12716,note_off,436,0,5,,,,,,,,,5,,,46,0
12720,control_change,440,0,3,,,,,,,64,0,3,,,,
12720,control_change,440,0,4,,,,,,,64,0,4,,,,
12720,control_change,240,0,2,,,,,,,64,0,2,,,,
12720,note_off,0,0,2,,,,,,,,,2,,,62,0
12720,note_off,0,0,2,,,,,,,,,2,,,68,0
12720,note_on,0,0,2,,,,,,,,,2,,,63,43
12720,note_on,0,0,4,,,,,,,,,4,,,56,43
12720,note_on,0,0,1,,,,,,,,,1,,,72,43
12720,note_on,0,0,5,,,,,,,,,5,,,46,43
12720,control_change,4,0,5,,,,,,,64,0,5,,,,
12720,note_on,0,0,2,,,,,,,,,2,,,60,43
12720,note_off,0,0,1,,,,,,,,,1,,,70,0
12720,control_change,240,0,1,,,,,,,64,0,1,,,,
12760,control_change,40,0,5,,,,,,,64,127,5,,,,
12760,control_change,40,0,4,,,,,,,64,127,4,,,,
12760,control_change,40,0,2,,,,,,,64,127,2,,,,
12760,control_change,40,0,1,,,,,,,64,127,1,,,,
12760,control_change,40,0,3,,,,,,,64,127,3,,,,
12780,set_tempo,160,1,0,,,,,,1578947,,,,,,,
12840,note_off,80,0,1,,,,,,,,,1,,,72,0
12840,note_on,0,0,1,,,,,,,,,1,,,70,41
12840,set_tempo,60,1,0,,,,,,2727272,,,,,,,
12840,note_off,0,0,2,,,,,,,,,2,,,63,0
12840,note_off,80,0,2,,,,,,,,,2,,,60,0
12840,note_on,0,0,2,,,,,,,,,2,,,62,41
12840,note_on,0,0,2,,,,,,,,,2,,,65,41
12920,note_on,160,0,5,,,,,,,,,5,,,39,42
12960,control_change,120,0,2,,,,,,,64,0,2,,,,
12960,note_off,0,0,2,,,,,,,,,2,,,62,0
12960,set_tempo,120,1,0,,,,,,1363636,,,,,,,
12960,note_off,0,0,2,,,,,,,,,2,,,65,0
12960,note_off,0,0,4,,,,,,,,,4,,,56,0
12960,control_change,120,0,1,,,,,,,64,0,1,,,,
12960,note_off,0,0,1,,,,,,,,,1,,,70,0
12960,note_on,0,0,1,,,,,,,,,1,,,75,42
12960,control_change,40,0,5,,,,,,,64,0,5,,,,
12960,control_change,200,0,4,,,,,,,64,0,4,,,,
12960,note_off,0,0,5,,,,,,,,,5,,,46,0
12960,control_change,200,0,3,,,,,,,64,0,3,,,,
12960,note_on,0,0,4,,,,,,,,,4,,,55,42
12960,note_on,0,0,2,,,,,,,,,2,,,63,42
13000,control_change,40,0,3,,,,,,,64,127,3,,,,
13000,control_change,40,0,2,,,,,,,64,127,2,,,,
13000,control_change,40,0,5,,,,,,,64,127,5,,,,
13000,control_change,40,0,4,,,,,,,64,127,4,,,,
13000,control_change,40,0,1,,,,,,,64,127,1,,,,
13200,note_on,200,0,1,,,,,,,,,1,,,74,43
13400,note_off,400,0,5,,,,,,,,,5,,,39,0
13440,note_off,440,0,2,,,,,,,,,2,,,63,0
13440,note_on,0,0,2,,,,,,,,,2,,,75,45
13440,note_on,0,0,2,,,,,,,,,2,,,63,45
13440,note_off,440,0,4,,,,,,,,,4,,,55,0
13440,note_off,240,0,1,,,,,,,,,1,,,74,0
13440,note_on,0,0,1,,,,,,,,,1,,,72,45
13440,note_on,0,0,4,,,,,,,,,4,,,55,45
13440,note_on,40,0,5,,,,,,,,,5,,,51,45
13440,note_off,0,0,1,,,,,,,,,1,,,75,0
13680,control_change,240,0,5,,,,,,,64,0,5,,,,
13680,note_off,0,0,5,,,,,,,,,5,,,51,0
13680,note_on,0,0,5,,,,,,,,,5,,,51,46
13680,control_change,680,0,3,,,,,,,64,0,3,,,,
13680,note_on,0,0,2,,,,,,,,,2,,,63,46
13680,note_off,0,0,2,,,,,,,,,2,,,63,0
13680,control_change,240,0,2,,,,,,,64,0,2,,,,
13680,note_on,0,0,4,,,,,,,,,4,,,55,46
13680,note_off,0,0,4,,,,,,,,,4,,,55,0
13680,control_change,240,0,4,,,,,,,64,0,4,,,,
13680,note_on,0,0,1,,,,,,,,,1,,,70,46
13680,note_off,0,0,1,,,,,,,,,1,,,72,0
13680,control_change,240,0,1,,,,,,,64,0,1,,,,
13680,note_off,0,0,2,,,,,,,,,2,,,75,0
13680,note_on,0,0,2,,,,,,,,,2,,,75,46
13720,control_change,40,0,5,,,,,,,64,127,5,,,,
13720,control_change,40,0,3,,,,,,,64,127,3,,,,
13720,control_change,40,0,4,,,,,,,64,127,4,,,,
13720,control_change,40,0,2,,,,,,,64,127,2,,,,
13720,control_change,40,0,1,,,,,,,64,127,1,,,,
14160,note_off,440,0,1,,,,,,,,,1,,,70,0
14160,note_off,440,0,4,,,,,,,,,4,,,55,0
14160,note_off,440,0,2,,,,,,,,,2,,,75,0
14160,note_on,0,0,2,,,,,,,,,2,,,75,49
14160,note_on,0,0,1,,,,,,,,,1,,,68,49
14160,note_on,0,0,2,,,,,,,,,2,,,63,49
14160,note_on,0,0,5,,,,,,,,,5,,,39,49
14160,note_off,440,0,5,,,,,,,,,5,,,51,0
14160,note_off,0,0,2,,,,,,,,,2,,,63,0
14280,note_off,120,0,1,,,,,,,,,1,,,68,0
14280,note_on,0,0,1,,,,,,,,,1,,,67,50
14400,note_on,0,0,5,,,,,,,,,5,,,51,53
14400,note_off,0,0,5,,,,,,,,,5,,,39,0
14400,control_change,240,0,5,,,,,,,64,0,5,,,,
14400,note_off,0,0,1,,,,,,,,,1,,,67,0
14400,control_change,120,0,1,,,,,,,64,0,1,,,,
14400,note_on,0,0,1,,,,,,,,,1,,,65,53
14400,note_on,0,0,4,,,,,,,,,4,,,55,53
14400,control_change,680,0,3,,,,,,,64,0,3,,,,
14400,control_change,240,0,4,,,,,,,64,0,4,,,,
14400,control_change,240,0,2,,,,,,,64,0,2,,,,
14400,note_on,0,0,2,,,,,,,,,2,,,75,53
14400,note_off,0,0,2,,,,,,,,,2,,,63,0
14400,note_off,0,0,2,,,,,,,,,2,,,75,0
14440,control_change,40,0,2,,,,,,,64,127,2,,,,
14440,control_change,40,0,4,,,,,,,64,127,4,,,,
14440,control_change,40,0,1,,,,,,,64,127,1,,,,
14440,control_change,40,0,5,,,,,,,64,127,5,,,,
14440,control_change,40,0,3,,,,,,,64,127,3,,,,
14640,note_on,0,0,1,,,,,,,,,1,,,63,51
14640,note_off,200,0,1,,,,,,,,,1,,,65,0
14880,note_on,0,0,4,,,,,,,,,4,,,55,47
14880,note_off,440,0,4,,,,,,,,,4,,,55,0
14880,note_on,0,0,2,,,,,,,,,2,,,75,47
14880,note_off,440,0,5,,,,,,,,,5,,,51,0
14880,note_on,0,0,5,,,,,,,,,5,,,51,47
14880,note_off,240,0,1,,,,,,,,,1,,,63,0
14880,note_off,440,0,2,,,,,,,,,2,,,75,0
14880,note_on,0,0,1,,,,,,,,,1,,,67,47
15120,note_on,0,0,5,,,,,,,,,5,,,51,44
15120,note_off,0,0,1,,,,,,,,,1,,,67,0
15120,note_on,0,0,1,,,,,,,,,1,,,70,44
15120,note_off,0,0,4,,,,,,,,,4,,,55,0
15120,control_change,240,0,4,,,,,,,64,0,4,,,,
15120,control_change,240,0,5,,,,,,,64,0,5,,,,
15120,note_off,0,0,5,,,,,,,,,5,,,51,0
15120,control_change,680,0,3,,,,,,,64,0,3,,,,
15120,note_on,0,0,2,,,,,,,,,2,,,75,44
15120,note_on,0,0,2,,,,,,,,,2,,,63,44
15120,note_off,0,0,2,,,,,,,,,2,,,75,0
15120,control_change,240,0,2,,,,,,,64,0,2,,,,
15120,control_change,240,0,1,,,,,,,64,0,1,,,,
15120,note_on,0,0,4,,,,,,,,,4,,,55,44
15160,control_change,40,0,5,,,,,,,64,127,5,,,,
15160,control_change,40,0,3,,,,,,,64,127,3,,,,
15160,control_change,40,0,2,,,,,,,64,127,2,,,,
15160,control_change,40,0,4,,,,,,,64,127,4,,,,
15160,control_change,40,0,1,,,,,,,64,127,1,,,,
15480,set_tempo,2520,1,0,,,,,,1395348,,,,,,,
15600,set_tempo,120,1,0,,,,,,1363636,,,,,,,
15600,note_on,0,0,2,,,,,,,,,2,,,75,46
15600,note_on,0,0,1,,,,,,,,,1,,,72,46
15600,note_off,0,0,1,,,,,,,,,1,,,70,0
15600,control_change,440,0,1,,,,,,,64,0,1,,,,
15600,note_off,0,0,2,,,,,,,,,2,,,75,0
15600,control_change,440,0,2,,,,,,,64,0,2,,,,
15600,note_on,0,0,2,,,,,,,,,2,,,63,46
15600,control_change,440,0,3,,,,,,,64,0,3,,,,
15600,note_off,0,0,2,,,,,,,,,2,,,63,0
15600,control_change,440,0,5,,,,,,,64,0,5,,,,
15600,note_off,0,0,5,,,,,,,,,5,,,51,0
15600,note_on,0,0,5,,,,,,,,,5,,,36,46
15600,note_off,0,0,4,,,,,,,,,4,,,55,0
15600,control_change,440,0,4,,,,,,,64,0,4,,,,
15640,control_change,40,0,5,,,,,,,64,127,5,,,,
15640,control_change,40,0,4,,,,,,,64,127,4,,,,
15640,control_change,40,0,1,,,,,,,64,127,1,,,,
15640,control_change,40,0,2,,,,,,,64,127,2,,,,
15640,control_change,40,0,3,,,,,,,64,127,3,,,,
15720,note_off,80,0,1,,,,,,,,,1,,,72,0
15720,note_on,0,0,1,,,,,,,,,1,,,74,47
15720,set_tempo,120,1,0,,,,,,1395348,,,,,,,
15840,note_off,200,0,5,,,,,,,,,5,,,36,0
15840,note_on,0,0,5,,,,,,,,,5,,,48,48
15840,note_off,200,0,2,,,,,,,,,2,,,75,0
15840,note_off,120,0,1,,,,,,,,,1,,,74,0
15840,note_on,0,0,2,,,,,,,,,2,,,63,48
15840,note_on,0,0,1,,,,,,,,,1,,,75,48
15840,note_off,0,0,2,,,,,,,,,2,,,63,0
15840,set_tempo,120,1,0,,,,,,1363636,,,,,,,
15840,note_on,200,0,4,,,,,,,,,4,,,55,48
16080,note_on,240,0,1,,,,,,,,,1,,,74,49
16320,note_off,480,0,2,,,,,,,,,2,,,63,0
16320,note_on,0,0,2,,,,,,,,,2,,,75,51
16320,note_on,0,0,5,,,,,,,,,5,,,48,51
16320,note_off,480,0,5,,,,,,,,,5,,,48,0
16320,note_off,480,0,4,,,,,,,,,4,,,55,0
16320,note_on,0,0,1,,,,,,,,,1,,,72,51
16320,note_off,0,0,1,,,,,,,,,1,,,75,0
16320,note_off,240,0,1,,,,,,,,,1,,,74,0
16320,note_on,0,0,2,,,,,,,,,2,,,63,51
16320,note_on,0,0,4,,,,,,,,,4,,,55,51
16560,note_on,0,0,2,,,,,,,,,2,,,63,53
16560,note_off,0,0,2,,,,,,,,,2,,,75,0
16560,note_off,240,0,2,,,,,,,,,2,,,63,0
16560,note_on,0,0,2,,,,,,,,,2,,,75,53
16560,note_off,240,0,1,,,,,,,,,1,,,72,0
16560,note_off,240,0,5,,,,,,,,,5,,,48,0
16560,note_on,0,0,1,,,,,,,,,1,,,70,53
16560,note_on,0,0,4,,,,,,,,,4,,,55,53
16560,note_off,240,0,4,,,,,,,,,4,,,55,0
16560,note_on,0,0,5,,,,,,,,,5,,,48,53
17040,note_on,0,0,2,,,,,,,,,2,,,75,55
17040,control_change,1400,0,3,,,,,,,64,0,3,,,,
17040,control_change,480,0,2,,,,,,,64,0,2,,,,
17040,note_off,0,0,2,,,,,,,,,2,,,63,0
17040,note_off,0,0,2,,,,,,,,,2,,,75,0
17040,note_on,0,0,2,,,,,,,,,2,,,63,55
17040,note_off,0,0,5,,,,,,,,,5,,,48,0
17040,control_change,480,0,5,,,,,,,64,0,5,,,,
17040,control_change,480,0,4,,,,,,,64,0,4,,,,
17040,note_off,0,0,4,,,,,,,,,4,,,55,0
17040,control_change,480,0,1,,,,,,,64,0,1,,,,
17040,note_off,0,0,1,,,,,,,,,1,,,70,0
17040,note_on,0,0,1,,,,,,,,,1,,,69,55
17040,note_on,0,0,5,,,,,,,,,5,,,41,55
17080,control_change,40,0,2,,,,,,,64,127,2,,,,
17080,control_change,40,0,4,,,,,,,64,127,4,,,,
17080,control_change,40,0,1,,,,,,,64,127,1,,,,
17080,control_change,40,0,3,,,,,,,64,127,3,,,,
17080,control_change,40,0,5,,,,,,,64,127,5,,,,
17160,note_on,80,0,1,,,,,,,,,1,,,67,56
17280,note_on,200,0,4,,,,,,,,,4,,,60,58
17280,note_on,0,0,2,,,,,,,,,2,,,75,58
17280,note_on,0,0,2,,,,,,,,,2,,,65,58
17280,note_on,0,0,5,,,,,,,,,5,,,53,58
17280,note_off,120,0,1,,,,,,,,,1,,,67,0
17280,note_off,0,0,1,,,,,,,,,1,,,69,0
17280,note_on,0,0,1,,,,,,,,,1,,,69,58
17280,note_off,0,0,2,,,,,,,,,2,,,75,0
17280,note_off,200,0,2,,,,,,,,,2,,,63,0
17280,note_off,200,0,5,,,,,,,,,5,,,41,0
17520,note_on,0,0,1,,,,,,,,,1,,,70,60
17520,note_off,240,0,1,,,,,,,,,1,,,69,0
17760,note_on,0,0,4,,,,,,,,,4,,,57,64
17760,note_off,0,0,2,,,,,,,,,2,,,65,0
17760,control_change,240,0,1,,,,,,,64,0,1,,,,
17760,note_off,0,0,1,,,,,,,,,1,,,70,0
17760,control_change,480,0,4,,,,,,,64,0,4,,,,
17760,note_off,0,0,2,,,,,,,,,2,,,75,0
17760,control_change,480,0,2,,,,,,,64,0,2,,,,
17760,note_on,0,0,2,,,,,,,,,2,,,65,64
17760,note_on,0,0,2,,,,,,,,,2,,,75,64
17760,note_off,0,0,4,,,,,,,,,4,,,60,0
17760,control_change,680,0,3,,,,,,,64,0,3,,,,
17760,note_on,0,0,1,,,,,,,,,1,,,72,64
17760,control_change,480,0,5,,,,,,,64,0,5,,,,
17760,note_on,0,0,5,,,,,,,,,5,,,53,64
17760,note_off,0,0,5,,,,,,,,,5,,,53,0
17800,control_change,40,0,4,,,,,,,64,127,4,,,,
17800,control_change,40,0,2,,,,,,,64,127,2,,,,
17800,control_change,40,0,5,,,,,,,64,127,5,,,,
17800,control_change,40,0,1,,,,,,,64,127,1,,,,
17800,control_change,40,0,3,,,,,,,64,127,3,,,,
18000,control_change,200,0,5,,,,,,,64,0,5,,,,
18000,note_off,0,0,2,,,,,,,,,2,,,65,0
18000,note_on,0,0,2,,,,,,,,,2,,,77,68
18000,note_on,0,0,2,,,,,,,,,2,,,65,68
18000,note_on,0,0,2,,,,,,,,,2,,,70,68
18000,control_change,200,0,3,,,,,,,64,0,3,,,,
18000,control_change,200,0,2,,,,,,,64,0,2,,,,
18000,note_on,0,0,5,,,,,,,,,5,,,46,68
18000,note_off,0,0,2,,,,,,,,,2,,,75,0
18000,control_change,200,0,1,,,,,,,64,0,1,,,,
18000,note_off,0,0,1,,,,,,,,,1,,,72,0
18000,note_on,0,0,1,,,,,,,,,1,,,75,68
18000,note_on,0,0,4,,,,,,,,,4,,,58,68
18000,note_off,0,0,4,,,,,,,,,4,,,57,0
18000,control_change,200,0,4,,,,,,,64,0,4,,,,
18000,note_off,0,0,5,,,,,,,,,5,,,53,0
18040,control_change,40,0,1,,,,,,,64,127,1,,,,
18040,control_change,40,0,5,,,,,,,64,127,5,,,,
18040,control_change,40,0,3,,,,,,,64,127,3,,,,
18040,control_change,40,0,4,,,,,,,64,127,4,,,,
18040,control_change,40,0,2,,,,,,,64,127,2,,,,
18360,note_off,320,0,1,,,,,,,,,1,,,75,0
18360,note_on,0,0,1,,,,,,,,,1,,,74,61
18360,note_off,320,0,2,,,,,,,,,2,,,70,0
18360,note_off,0,0,2,,,,,,,,,2,,,65,0
18480,control_change,120,0,2,,,,,,,64,0,2,,,,
18480,note_off,0,0,2,,,,,,,,,2,,,77,0
18480,note_on,0,0,2,,,,,,,,,2,,,82,56
18480,control_change,120,0,1,,,,,,,64,0,1,,,,
18480,note_on,0,0,4,,,,,,,,,4,,,62,56
18480,control_change,440,0,5,,,,,,,64,0,5,,,,
18480,note_off,0,0,5,,,,,,,,,5,,,46,0
18480,note_on,0,0,5,,,,,,,,,5,,,58,56
18480,control_change,440,0,3,,,,,,,64,0,3,,,,
18480,note_off,0,0,1,,,,,,,,,1,,,74,0
18480,note_on,0,0,1,,,,,,,,,1,,,72,56
18480,control_change,440,0,4,,,,,,,64,0,4,,,,
18480,note_off,0,0,4,,,,,,,,,4,,,58,0
18480,note_on,0,0,4,,,,,,,,,4,,,68,56
18520,control_change,40,0,1,,,,,,,64,127,1,,,,
18520,control_change,40,0,5,,,,,,,64,127,5,,,,
18520,control_change,40,0,2,,,,,,,64,127,2,,,,
18520,control_change,40,0,3,,,,,,,64,127,3,,,,
18520,control_change,40,0,4,,,,,,,64,127,4,,,,
18560,set_tempo,2720,1,0,,,,,,1395348,,,,,,,
18600,note_on,0,0,1,,,,,,,,,1,,,70,51
18600,note_off,80,0,1,,,,,,,,,1,,,72,0
18600,set_tempo,40,1,0,,,,,,1818181,,,,,,,
18680,note_on,160,0,5,,,,,,,,,5,,,51,42
18708,note_off,28,0,5,,,,,,,,,5,,,58,0
18720,control_change,200,0,2,,,,,,,64,0,2,,,,
18720,note_off,0,0,1,,,,,,,,,1,,,70,0
18720,note_off,0,0,2,,,,,,,,,2,,,82,0
18720,note_on,0,0,2,,,,,,,,,2,,,75,42
18720,control_change,12,0,5,,,,,,,64,0,5,,,,
18720,note_on,0,0,1,,,,,,,,,1,,,87,42
18720,control_change,120,0,1,,,,,,,64,0,1,,,,
18720,note_off,0,0,4,,,,,,,,,4,,,68,0
18720,control_change,200,0,3,,,,,,,64,0,3,,,,
18720,note_on,0,0,4,,,,,,,,,4,,,67,42
18720,note_off,0,0,4,,,,,,,,,4,,,62,0
18720,control_change,200,0,4,,,,,,,64,0,4,,,,
18720,set_tempo,120,1,0,,,,,,1363636,,,,,,,
18740,note_on,20,0,4,,,,,,,,,4,,,58,42
18760,control_change,40,0,1,,,,,,,64,127,1,,,,
18760,control_change,20,0,4,,,,,,,64,127,4,,,,
18760,control_change,40,0,5,,,,,,,64,127,5,,,,
18760,control_change,40,0,2,,,,,,,64,127,2,,,,
18760,control_change,40,0,3,,,,,,,64,127,3,,,,
18960,note_on,200,0,1,,,,,,,,,1,,,86,43
19160,note_off,400,0,5,,,,,,,,,5,,,51,0
19160,note_on,0,0,5,,,,,,,,,5,,,51,44
19170,note_off,410,0,4,,,,,,,,,4,,,58,0
19180,note_on,10,0,4,,,,,,,,,4,,,58,44
19200,note_on,0,0,4,,,,,,,,,4,,,67,44
19200,note_off,20,0,4,,,,,,,,,4,,,67,0
19200,note_off,440,0,2,,,,,,,,,2,,,75,0
19200,note_on,0,0,2,,,,,,,,,2,,,75,44
19200,note_off,0,0,1,,,,,,,,,1,,,87,0
19200,note_off,240,0,1,,,,,,,,,1,,,86,0
19200,note_on,0,0,2,,,,,,,,,2,,,87,44
19200,note_on,0,0,1,,,,,,,,,1,,,84,44
19440,note_on,240,0,2,,,,,,,,,2,,,74,45
19440,note_on,0,0,1,,,,,,,,,1,,,82,45
19440,note_off,240,0,1,,,,,,,,,1,,,84,0
19660,note_off,460,0,4,,,,,,,,,4,,,58,0
19676,note_off,516,0,5,,,,,,,,,5,,,51,0
19680,control_change,20,0,4,,,,,,,64,0,4,,,,
19680,control_change,4,0,5,,,,,,,64,0,5,,,,
19680,control_change,920,0,3,,,,,,,64,0,3,,,,
19680,note_off,0,0,4,,,,,,,,,4,,,67,0
19680,note_on,0,0,4,,,,,,,,,4,,,58,46
19680,note_on,0,0,5,,,,,,,,,5,,,51,46
19680,control_change,240,0,2,,,,,,,64,0,2,,,,
19680,note_off,0,0,2,,,,,,,,,2,,,74,0
19680,note_off,0,0,2,,,,,,,,,2,,,75,0
19680,note_off,0,0,2,,,,,,,,,2,,,87,0
19680,note_on,0,0,2,,,,,,,,,2,,,75,46
19680,note_on,0,0,2,,,,,,,,,2,,,72,46
19680,note_on,0,0,1,,,,,,,,,1,,,80,46
19680,note_off,0,0,1,,,,,,,,,1,,,82,0
19680,control_change,240,0,1,,,,,,,64,0,1,,,,
19720,control_change,40,0,3,,,,,,,64,127,3,,,,
19720,control_change,40,0,5,,,,,,,64,127,5,,,,
19720,control_change,40,0,1,,,,,,,64,127,1,,,,
19720,control_change,40,0,4,,,,,,,64,127,4,,,,
19720,control_change,40,0,2,,,,,,,64,127,2,,,,
19920,note_off,200,0,1,,,,,,,,,1,,,80,0
19920,note_off,200,0,2,,,,,,,,,2,,,72,0
19920,note_on,0,0,1,,,,,,,,,1,,,79,48
19920,note_on,0,0,2,,,,,,,,,2,,,70,48
20160,note_off,440,0,4,,,,,,,,,4,,,58,0
20160,note_on,0,0,4,,,,,,,,,4,,,58,50
20160,note_on,0,0,2,,,,,,,,,2,,,68,50
20160,note_off,240,0,1,,,,,,,,,1,,,79,0
20160,note_on,0,0,1,,,,,,,,,1,,,77,50
20160,note_off,240,0,2,,,,,,,,,2,,,70,0
20160,note_off,440,0,5,,,,,,,,,5,,,51,0
20160,note_on,0,0,5,,,,,,,,,5,,,51,50
20160,note_on,0,0,2,,,,,,,,,2,,,75,50
20160,note_off,0,0,2,,,,,,,,,2,,,75,0
20400,note_off,240,0,1,,,,,,,,,1,,,77,0
20400,note_on,0,0,1,,,,,,,,,1,,,75,49
20400,note_off,240,0,2,,,,,,,,,2,,,68,0
20400,note_on,0,0,2,,,,,,,,,2,,,67,49
20520,note_on,0,0,2,,,,,,,,,2,,,65,48
20520,note_off,120,0,2,,,,,,,,,2,,,67,0
20640,note_off,0,0,2,,,,,,,,,2,,,75,0
20640,note_off,120,0,2,,,,,,,,,2,,,65,0
20640,note_on,0,0,4,,,,,,,,,4,,,55,47
20640,note_on,0,0,1,,,,,,,,,1,,,72,47
20640,note_off,240,0,1,,,,,,,,,1,,,75,0
20640,note_off,480,0,4,,,,,,,,,4,,,58,0
20640,note_off,480,0,5,,,,,,,,,5,,,51,0
20640,note_on,0,0,5,,,,,,,,,5,,,51,47
20640,note_on,0,0,2,,,,,,,,,2,,,63,47
20760,note_on,0,0,2,,,,,,,,,2,,,67,46
20760,note_off,120,0,2,,,,,,,,,2,,,63,0
20880,note_on,0,0,1,,,,,,,,,1,,,70,45
20880,note_off,240,0,1,,,,,,,,,1,,,72,0
20880,note_off,120,0,2,,,,,,,,,2,,,67,0
21120,note_on,0,0,4,,,,,,,,,4,,,55,43
21120,control_change,240,0,2,,,,,,,64,0,2,,,,
21120,control_change,240,0,1,,,,,,,64,0,1,,,,
21120,note_on,0,0,5,,,,,,,,,5,,,43,43
21120,note_on,0,0,4,,,,,,,,,4,,,51,43
21120,control_change,1400,0,3,,,,,,,64,0,3,,,,
21120,control_change,480,0,4,,,,,,,64,0,4,,,,
21120,note_off,0,0,4,,,,,,,,,4,,,55,0
21120,control_change,480,0,5,,,,,,,64,0,5,,,,
21120,note_off,0,0,5,,,,,,,,,5,,,51,0
21160,control_change,40,0,2,,,,,,,64,127,2,,,,
21160,control_change,40,0,3,,,,,,,64,127,3,,,,
21160,control_change,40,0,4,,,,,,,64,127,4,,,,
21160,control_change,40,0,1,,,,,,,64,127,1,,,,
21160,control_change,40,0,5,,,,,,,64,127,5,,,,
21240,set_tempo,2520,1,0,,,,,,1395348,,,,,,,
21360,note_off,200,0,1,,,,,,,,,1,,,70,0
21360,note_on,0,0,1,,,,,,,,,1,,,72,42
21360,set_tempo,120,1,0,,,,,,1363636,,,,,,,
21360,note_on,200,0,2,,,,,,,,,2,,,63,42
21480,note_on,0,0,1,,,,,,,,,1,,,74,42
21480,set_tempo,120,1,0,,,,,,1395348,,,,,,,
21480,note_off,120,0,1,,,,,,,,,1,,,72,0
21600,note_on,0,0,4,,,,,,,,,4,,,55,43
21600,note_on,0,0,4,,,,,,,,,4,,,51,43
21600,note_off,0,0,4,,,,,,,,,4,,,51,0
21600,note_off,0,0,4,,,,,,,,,4,,,55,0
21600,control_change,440,0,4,,,,,,,64,0,4,,,,
21600,control_change,240,0,2,,,,,,,64,0,2,,,,
21600,note_on,0,0,2,,,,,,,,,2,,,63,43
21600,note_off,0,0,2,,,,,,,,,2,,,63,0
21600,control_change,440,0,3,,,,,,,64,0,3,,,,
21600,control_change,440,0,5,,,,,,,64,0,5,,,,
21600,control_change,120,0,1,,,,,,,64,0,1,,,,
21600,note_off,0,0,1,,,,,,,,,1,,,74,0
21600,note_on,0,0,1,,,,,,,,,1,,,75,43
21600,set_tempo,120,1,0,,,,,,1363636,,,,,,,
21600,note_on,0,0,5,,,,,,,,,5,,,45,43
21600,note_off,0,0,5,,,,,,,,,5,,,43,0
21640,control_change,40,0,4,,,,,,,64,127,4,,,,
21640,control_change,40,0,5,,,,,,,64,127,5,,,,
21640,control_change,40,0,1,,,,,,,64,127,1,,,,
21640,control_change,40,0,2,,,,,,,64,127,2,,,,
21640,control_change,40,0,3,,,,,,,64,127,3,,,,
21840,note_on,200,0,1,,,,,,,,,1,,,74,45
22080,note_on,0,0,4,,,,,,,,,4,,,55,47
22080,control_change,240,0,1,,,,,,,64,0,1,,,,
22080,note_off,0,0,1,,,,,,,,,1,,,74,0
22080,note_off,0,0,1,,,,,,,,,1,,,75,0
22080,note_on,0,0,1,,,,,,,,,1,,,72,47
22080,note_on,0,0,4,,,,,,,,,4,,,51,47
22080,control_change,440,0,4,,,,,,,64,0,4,,,,
22080,control_change,440,0,3,,,,,,,64,0,3,,,,
22080,note_on,0,0,2,,,,,,,,,2,,,75,47
22080,control_change,440,0,5,,,,,,,64,0,5,,,,
22080,note_off,0,0,5,,,,,,,,,5,,,45,0
22080,note_on,0,0,5,,,,,,,,,5,,,46,47
22080,control_change,440,0,2,,,,,,,64,0,2,,,,
22080,note_off,0,0,2,,,,,,,,,2,,,63,0
22080,note_off,0,0,4,,,,,,,,,4,,,55,0
22080,note_off,0,0,4,,,,,,,,,4,,,51,0
22080,note_on,0,0,2,,,,,,,,,2,,,63,47
22120,control_change,40,0,1,,,,,,,64,127,1,,,,
22120,control_change,40,0,2,,,,,,,64,127,2,,,,
22120,control_change,40,0,5,,,,,,,64,127,5,,,,
22120,control_change,40,0,4,,,,,,,64,127,4,,,,
22120,control_change,40,0,3,,,,,,,64,127,3,,,,
22320,note_off,200,0,1,,,,,,,,,1,,,72,0
22320,note_on,0,0,1,,,,,,,,,1,,,70,48
22560,control_change,440,0,4,,,,,,,64,0,4,,,,
22560,note_off,0,0,4,,,,,,,,,4,,,51,0
22560,control_change,240,0,1,,,,,,,64,0,1,,,,
22560,note_on,0,0,5,,,,,,,,,5,,,48,50
22560,control_change,440,0,3,,,,,,,64,0,3,,,,
22560,note_on,0,0,2,,,,,,,,,2,,,63,50
22560,note_on,0,0,2,,,,,,,,,2,,,75,50
22560,note_on,0,0,4,,,,,,,,,4,,,51,50
22560,note_on,0,0,4,,,,,,,,,4,,,55,50
22560,note_off,0,0,4,,,,,,,,,4,,,55,0
22560,control_change,440,0,5,,,,,,,64,0,5,,,,
22560,control_change,440,0,2,,,,,,,64,0,2,,,,
22560,note_off,0,0,2,,,,,,,,,2,,,75,0
22560,note_off,0,0,5,,,,,,,,,5,,,46,0
22560,note_off,0,0,2,,,,,,,,,2,,,63,0
22600,control_change,40,0,3,,,,,,,64,127,3,,,,
22600,control_change,40,0,2,,,,,,,64,127,2,,,,
22600,control_change,40,0,5,,,,,,,64,127,5,,,,
22600,control_change,40,0,1,,,,,,,64,127,1,,,,
22600,control_change,40,0,4,,,,,,,64,127,4,,,,
22800,note_on,0,0,1,,,,,,,,,1,,,68,51
22800,note_off,200,0,1,,,,,,,,,1,,,70,0
22920,note_off,120,0,1,,,,,,,,,1,,,68,0
22920,note_on,0,0,1,,,,,,,,,1,,,67,52
22920,set_tempo,1320,1,0,,,,,,1395348,,,,,,,
23040,note_on,0,0,1,,,,,,,,,1,,,70,55
23040,control_change,440,0,5,,,,,,,64,0,5,,,,
23040,note_on,0,0,5,,,,,,,,,5,,,46,55
23040,control_change,120,0,1,,,,,,,64,0,1,,,,
23040,note_off,0,0,1,,,,,,,,,1,,,67,0
23040,control_change,440,0,3,,,,,,,64,0,3,,,,
23040,note_off,0,0,5,,,,,,,,,5,,,48,0
23040,note_on,0,0,2,,,,,,,,,2,,,75,55
23040,control_change,440,0,2,,,,,,,64,0,2,,,,
23040,note_off,0,0,2,,,,,,,,,2,,,63,0
23040,note_off,0,0,2,,,,,,,,,2,,,75,0
23040,note_on,0,0,4,,,,,,,,,4,,,55,55
23040,control_change,440,0,4,,,,,,,64,0,4,,,,
23040,note_off,0,0,4,,,,,,,,,4,,,55,0
23040,note_off,0,0,4,,,,,,,,,4,,,51,0
23080,control_change,40,0,1,,,,,,,64,127,1,,,,
23080,control_change,40,0,5,,,,,,,64,127,5,,,,
23080,control_change,40,0,4,,,,,,,64,127,4,,,,
23080,control_change,40,0,2,,,,,,,64,127,2,,,,
23080,control_change,40,0,3,,,,,,,64,127,3,,,,
23280,note_on,0,0,1,,,,,,,,,1,,,63,52
23280,note_off,200,0,1,,,,,,,,,1,,,70,0
23480,note_on,200,0,1,,,,,,,,,1,,,67,50
23520,control_change,440,0,2,,,,,,,64,0,2,,,,
23520,note_off,0,0,2,,,,,,,,,2,,,75,0
23520,note_on,0,0,2,,,,,,,,,2,,,74,49
23520,note_off,0,0,5,,,,,,,,,5,,,46,0
23520,note_on,0,0,5,,,,,,,,,5,,,46,49
23520,control_change,440,0,3,,,,,,,64,0,3,,,,
23520,control_change,440,0,5,,,,,,,64,0,5,,,,
23520,note_off,0,0,1,,,,,,,,,1,,,63,0
23520,set_tempo,600,1,0,,,,,,1500000,,,,,,,
23520,note_on,0,0,1,,,,,,,,,1,,,65,49
23520,note_off,0,0,4,,,,,,,,,4,,,55,0
23520,note_on,0,0,4,,,,,,,,,4,,,56,49
23520,control_change,440,0,4,,,,,,,64,0,4,,,,
23520,control_change,40,0,1,,,,,,,64,0,1,,,,
23540,note_off,20,0,1,,,,,,,,,1,,,67,0
23760,note_off,240,0,4,,,,,,,,,4,,,56,0
23760,note_on,0,0,2,,,,,,,,,2,,,75,45
23760,note_on,0,0,4,,,,,,,,,4,,,55,45
23760,note_on,0,0,1,,,,,,,,,1,,,63,45
23760,note_off,220,0,1,,,,,,,,,1,,,65,0
23760,note_on,0,0,5,,,,,,,,,5,,,51,45
23760,note_off,240,0,5,,,,,,,,,5,,,46,0
23760,set_tempo,240,1,0,,,,,,1666666,,,,,,,
23760,note_off,240,0,2,,,,,,,,,2,,,74,0
24240,note_off,480,0,4,,,,,,,,,4,,,55,0
24240,note_on,0,0,1,,,,,,,,,1,,,64,47
24240,note_off,480,0,1,,,,,,,,,1,,,63,0
24240,note_on,0,0,1,,,,,,,,,1,,,76,47
24240,note_off,480,0,5,,,,,,,,,5,,,51,0
24240,note_on,0,0,5,,,,,,,,,5,,,40,47
24240,note_on,0,0,5,,,,,,,,,5,,,52,47
24240,note_off,480,0,2,,,,,,,,,2,,,75,0
24240,set_tempo,480,1,0,,,,,,1363636,,,,,,,
24360,note_on,0,0,1,,,,,,,,,1,,,78,49
24360,note_off,0,0,1,,,,,,,,,1,,,64,0
24360,note_off,120,0,5,,,,,,,,,5,,,52,0
24360,note_off,0,0,5,,,,,,,,,5,,,40,0
24360,note_on,0,0,5,,,,,,,,,5,,,42,49
24360,note_on,0,0,5,,,,,,,,,5,,,54,49
24360,note_on,0,0,1,,,,,,,,,1,,,66,49
24360,note_off,120,0,1,,,,,,,,,1,,,76,0
24420,set_tempo,180,1,0,,,,,,1395348,,,,,,,
24480,set_tempo,60,1,0,,,,,,1363636,,,,,,,
24480,note_off,120,0,1,,,,,,,,,1,,,78,0
24480,note_on,0,0,1,,,,,,,,,1,,,80,55
24480,note_on,0,0,1,,,,,,,,,1,,,68,55
24480,note_off,0,0,1,,,,,,,,,1,,,66,0
24480,note_off,120,0,5,,,,,,,,,5,,,54,0
24480,note_off,0,0,5,,,,,,,,,5,,,42,0
24480,note_on,0,0,5,,,,,,,,,5,,,56,55
24480,note_on,0,0,5,,,,,,,,,5,,,44,55
24720,note_on,0,0,1,,,,,,,,,1,,,66,53
24720,note_on,0,0,5,,,,,,,,,5,,,54,53
24720,note_on,0,0,5,,,,,,,,,5,,,42,53
24720,note_off,0,0,5,,,,,,,,,5,,,44,0
24720,note_off,240,0,5,,,,,,,,,5,,,56,0
24720,note_on,0,0,1,,,,,,,,,1,,,78,53
24720,note_off,240,0,1,,,,,,,,,1,,,80,0
24720,note_off,0,0,1,,,,,,,,,1,,,68,0
24960,note_on,0,0,5,,,,,,,,,5,,,40,50
24960,note_off,0,0,1,,,,,,,,,1,,,78,0
24960,note_off,240,0,1,,,,,,,,,1,,,66,0
24960,note_off,240,0,5,,,,,,,,,5,,,54,0
24960,note_off,0,0,5,,,,,,,,,5,,,42,0
24960,note_on,0,0,1,,,,,,,,,1,,,64,50
24960,note_on,0,0,1,,,,,,,,,1,,,76,50
24960,note_on,0,0,5,,,,,,,,,5,,,52,50
25200,note_off,0,0,1,,,,,,,,,1,,,76,0
25200,note_off,240,0,1,,,,,,,,,1,,,64,0
25200,note_on,0,0,5,,,,,,,,,5,,,51,47
25200,note_on,0,0,5,,,,,,,,,5,,,39,47
25200,note_off,0,0,5,,,,,,,,,5,,,40,0
25200,note_off,240,0,5,,,,,,,,,5,,,52,0
25200,note_on,0,0,1,,,,,,,,,1,,,75,47
25200,note_on,0,0,1,,,,,,,,,1,,,63,47
25440,set_tempo,960,1,0,,,,,,1395348,,,,,,,
25680,control_change,1440,0,4,,,,,,,64,0,4,,,,
25680,control_change,2160,0,3,,,,,,,64,0,3,,,,
25680,note_on,0,0,1,,,,,,,,,1,,,51,48
25680,note_off,0,0,1,,,,,,,,,1,,,75,0
25680,note_off,0,0,1,,,,,,,,,1,,,63,0
25680,control_change,480,0,1,,,,,,,64,0,1,,,,
25680,note_on,0,0,1,,,,,,,,,1,,,63,48
25680,note_on,0,0,2,,,,,,,,,2,,,61,48
25680,control_change,1440,0,2,,,,,,,64,0,2,,,,
25680,control_change,480,0,5,,,,,,,64,0,5,,,,
25680,note_off,0,0,5,,,,,,,,,5,,,51,0
25680,note_off,0,0,5,,,,,,,,,5,,,39,0
25680,note_on,0,0,5,,,,,,,,,5,,,49,48
25680,note_on,0,0,5,,,,,,,,,5,,,37,48
25680,set_tempo,240,1,0,,,,,,1363636,,,,,,,
25720,control_change,40,0,2,,,,,,,64,127,2,,,,
25720,control_change,40,0,1,,,,,,,64,127,1,,,,
25720,control_change,40,0,3,,,,,,,64,127,3,,,,
25720,control_change,40,0,4,,,,,,,64,127,4,,,,
25800,note_on,0,0,5,,,,,,,,,5,,,47,50
25800,note_off,0,0,5,,,,,,,,,5,,,49,0
25800,note_off,120,0,5,,,,,,,,,5,,,37,0
25800,note_on,0,0,5,,,,,,,,,5,,,35,50
25920,note_off,0,0,1,,,,,,,,,1,,,63,0
25920,note_on,0,0,2,,,,,,,,,2,,,59,53
25920,note_off,0,0,2,,,,,,,,,2,,,61,0
25920,control_change,200,0,2,,,,,,,64,0,2,,,,
25920,note_off,0,0,5,,,,,,,,,5,,,35,0
25920,control_change,200,0,3,,,,,,,64,0,3,,,,
25920,control_change,120,0,5,,,,,,,64,0,5,,,,
25920,note_off,0,0,1,,,,,,,,,1,,,51,0
25920,note_on,0,0,1,,,,,,,,,1,,,63,53
25920,note_on,0,0,5,,,,,,,,,5,,,34,53
25920,note_on,0,0,5,,,,,,,,,5,,,46,53
25920,note_on,0,0,1,,,,,,,,,1,,,51,53
25920,control_change,200,0,4,,,,,,,64,0,4,,,,
25920,control_change,200,0,1,,,,,,,64,0,1,,,,
25920,note_off,0,0,5,,,,,,,,,5,,,47,0
25960,control_change,40,0,1,,,,,,,64,127,1,,,,
25960,control_change,40,0,3,,,,,,,64,127,3,,,,
25960,control_change,40,0,4,,,,,,,64,127,4,,,,
25960,control_change,40,0,5,,,,,,,64,127,5,,,,
25960,control_change,40,0,2,,,,,,,64,127,2,,,,
26160,note_off,200,0,5,,,,,,,,,5,,,46,0
26160,note_off,0,0,5,,,,,,,,,5,,,34,0
26160,note_on,0,0,5,,,,,,,,,5,,,32,48
26160,note_on,0,0,5,,,,,,,,,5,,,44,48
26400,control_change,440,0,2,,,,,,,64,0,2,,,,
26400,note_on,0,0,1,,,,,,,,,1,,,51,44
26400,note_off,0,0,1,,,,,,,,,1,,,63,0
26400,note_off,0,0,1,,,,,,,,,1,,,51,0
26400,control_change,440,0,1,,,,,,,64,0,1,,,,
26400,control_change,440,0,4,,,,,,,64,0,4,,,,
26400,note_on,0,0,5,,,,,,,,,5,,,47,44
26400,note_off,0,0,5,,,,,,,,,5,,,44,0
26400,note_off,0,0,5,,,,,,,,,5,,,32,0
26400,control_change,240,0,5,,,,,,,64,0,5,,,,
26400,note_on,0,0,1,,,,,,,,,1,,,63,44
26400,control_change,440,0,3,,,,,,,64,0,3,,,,
26400,note_on,0,0,2,,,,,,,,,2,,,56,44
26400,note_off,0,0,2,,,,,,,,,2,,,59,0
26400,note_on,0,0,5,,,,,,,,,5,,,35,44
26440,control_change,40,0,5,,,,,,,64,127,5,,,,
26440,control_change,40,0,3,,,,,,,64,127,3,,,,
26440,control_change,40,0,1,,,,,,,64,127,1,,,,
26440,control_change,40,0,2,,,,,,,64,127,2,,,,
26440,control_change,40,0,4,,,,,,,64,127,4,,,,
26590,set_tempo,910,1,0,,,,,,1395348,,,,,,,
26640,note_off,0,0,1,,,,,,,,,1,,,51,0
26640,note_on,0,0,1,,,,,,,,,1,,,51,39
26640,control_change,0,0,4,,,,,,,64,0,4,,,,
26640,control_change,200,0,5,,,,,,,64,0,5,,,,
26640,control_change,0,0,5,,,,,,,64,0,5,,,,
26640,note_off,0,0,5,,,,,,,,,5,,,47,0
26640,note_off,0,0,5,,,,,,,,,5,,,35,0
26640,note_on,0,0,5,,,,,,,,,5,,,39,39
26640,control_change,0,0,2,,,,,,,64,0,2,,,,
26640,control_change,200,0,3,,,,,,,64,0,3,,,,
26640,control_change,0,0,3,,,,,,,64,0,3,,,,
26640,control_change,200,0,4,,,,,,,64,0,4,,,,
26640,note_off,0,0,2,,,,,,,,,2,,,56,0
26640,control_change,200,0,2,,,,,,,64,0,2,,,,
26640,control_change,0,0,1,,,,,,,64,0,1,,,,
26640,control_change,200,0,1,,,,,,,64,0,1,,,,
26640,note_on,0,0,1,,,,,,,,,1,,,63,39
26640,note_off,0,0,1,,,,,,,,,1,,,63,0
26680,control_change,40,0,4,,,,,,,64,127,4,,,,
26680,control_change,40,0,2,,,,,,,64,127,2,,,,
26680,control_change,40,0,3,,,,,,,64,127,3,,,,
26680,control_change,40,0,1,,,,,,,64,127,1,,,,
26680,control_change,40,0,5,,,,,,,64,127,5,,,,
27110,set_tempo,520,1,0,,,,,,1363636,,,,,,,
27120,control_change,440,0,4,,,,,,,64,0,4,,,,
27120,control_change,440,0,2,,,,,,,64,0,2,,,,
27120,note_on,0,0,4,,,,,,,,,4,,,61,48
27120,note_off,0,0,1,,,,,,,,,1,,,63,0
27120,note_off,0,0,1,,,,,,,,,1,,,51,0
27120,control_change,440,0,1,,,,,,,64,0,1,,,,
27120,note_on,0,0,5,,,,,,,,,5,,,51,48
27120,note_off,0,0,5,,,,,,,,,5,,,39,0
27120,control_change,440,0,3,,,,,,,64,0,3,,,,
27120,note_on,0,0,1,,,,,,,,,1,,,76,48
27120,control_change,440,0,5,,,,,,,64,0,5,,,,
27120,note_on,0,0,1,,,,,,,,,1,,,64,48
27160,control_change,40,0,5,,,,,,,64,127,5,,,,
27160,control_change,40,0,2,,,,,,,64,127,2,,,,
27160,control_change,40,0,4,,,,,,,64,127,4,,,,
27160,control_change,40,0,3,,,,,,,64,127,3,,,,
27160,control_change,40,0,1,,,,,,,64,127,1,,,,
27240,note_off,80,0,1,,,,,,,,,1,,,76,0
27240,note_off,0,0,1,,,,,,,,,1,,,64,0
27240,note_on,0,0,1,,,,,,,,,1,,,66,51
27240,note_on,0,0,1,,,,,,,,,1,,,78,51
27300,set_tempo,190,1,0,,,,,,1395348,,,,,,,
27360,note_on,0,0,5,,,,,,,,,5,,,51,57
27360,note_off,0,0,5,,,,,,,,,5,,,51,0
27360,control_change,200,0,3,,,,,,,64,0,3,,,,
27360,control_change,200,0,5,,,,,,,64,0,5,,,,
27360,control_change,120,0,1,,,,,,,64,0,1,,,,
27360,set_tempo,60,1,0,,,,,,1363636,,,,,,,
27360,control_change,200,0,4,,,,,,,64,0,4,,,,
27360,note_off,0,0,4,,,,,,,,,4,,,61,0
27360,note_on,0,0,4,,,,,,,,,4,,,59,57
27360,note_off,0,0,1,,,,,,,,,1,,,78,0
27360,note_off,0,0,1,,,,,,,,,1,,,66,0
27360,note_on,0,0,1,,,,,,,,,1,,,68,57
27360,note_on,0,0,1,,,,,,,,,1,,,80,57
27360,control_change,200,0,2,,,,,,,64,0,2,,,,
27400,control_change,40,0,5,,,,,,,64,127,5,,,,
27400,control_change,40,0,1,,,,,,,64,127,1,,,,
27400,control_change,40,0,2,,,,,,,64,127,2,,,,
27400,control_change,40,0,3,,,,,,,64,127,3,,,,
27400,control_change,40,0,4,,,,,,,64,127,4,,,,
27600,note_on,0,0,1,,,,,,,,,1,,,66,54
27600,note_off,0,0,1,,,,,,,,,1,,,68,0
27600,note_off,200,0,1,,,,,,,,,1,,,80,0
27600,note_on,0,0,1,,,,,,,,,1,,,78,54
27840,note_off,0,0,1,,,,,,,,,1,,,66,0
27840,note_on,0,0,1,,,,,,,,,1,,,76,52
27840,note_on,0,0,5,,,,,,,,,5,,,51,52
27840,note_off,440,0,5,,,,,,,,,5,,,51,0
27840,note_on,0,0,1,,,,,,,,,1,,,64,52
27840,note_on,0,0,4,,,,,,,,,4,,,56,52
27840,note_off,440,0,4,,,,,,,,,4,,,59,0
27840,note_off,240,0,1,,,,,,,,,1,,,78,0
28080,note_on,0,0,5,,,,,,,,,5,,,51,49
28080,note_off,0,0,5,,,,,,,,,5,,,51,0
28080,control_change,240,0,1,,,,,,,64,0,1,,,,
28080,note_off,0,0,1,,,,,,,,,1,,,64,0
28080,note_off,0,0,1,,,,,,,,,1,,,76,0
28080,note_on,0,0,1,,,,,,,,,1,,,63,49
28080,note_on,0,0,1,,,,,,,,,1,,,75,49
28080,control_change,240,0,5,,,,,,,64,0,5,,,,
28080,note_off,0,0,4,,,,,,,,,4,,,56,0
28080,control_change,680,0,2,,,,,,,64,0,2,,,,
28080,control_change,680,0,3,,,,,,,64,0,3,,,,
28080,control_change,240,0,4,,,,,,,64,0,4,,,,
28100,set_tempo,740,1,0,,,,,,1395348,,,,,,,
28120,control_change,40,0,2,,,,,,,64,127,2,,,,
28120,control_change,40,0,1,,,,,,,64,127,1,,,,
28120,control_change,40,0,5,,,,,,,64,127,5,,,,
28120,control_change,40,0,3,,,,,,,64,127,3,,,,
28120,control_change,40,0,4,,,,,,,64,127,4,,,,
28560,set_tempo,460,1,0,,,,,,1363636,,,,,,,
28560,note_on,0,0,5,,,,,,,,,5,,,49,43
28560,control_change,440,0,2,,,,,,,64,0,2,,,,
28560,note_off,0,0,5,,,,,,,,,5,,,51,0
28560,control_change,440,0,5,,,,,,,64,0,5,,,,
28560,note_on,0,0,5,,,,,,,,,5,,,37,43
28560,control_change,440,0,4,,,,,,,64,0,4,,,,
28560,note_on,0,0,1,,,,,,,,,1,,,64,43
28560,note_on,0,0,1,,,,,,,,,1,,,76,43
28560,control_change,440,0,3,,,,,,,64,0,3,,,,
28560,note_off,0,0,1,,,,,,,,,1,,,63,0
28560,note_off,0,0,1,,,,,,,,,1,,,75,0
28560,control_change,440,0,1,,,,,,,64,0,1,,,,
28600,control_change,40,0,3,,,,,,,64,127,3,,,,
28600,control_change,40,0,1,,,,,,,64,127,1,,,,
28600,control_change,40,0,4,,,,,,,64,127,4,,,,
28600,control_change,40,0,5,,,,,,,64,127,5,,,,
28600,control_change,40,0,2,,,,,,,64,127,2,,,,
28680,note_on,0,0,1,,,,,,,,,1,,,66,45
28680,note_off,0,0,1,,,,,,,,,1,,,76,0
28680,note_off,80,0,1,,,,,,,,,1,,,64,0
28680,note_on,0,0,1,,,,,,,,,1,,,78,45
28680,note_on,80,0,2,,,,,,,,,2,,,75,45
28740,set_tempo,180,1,0,,,,,,1395348,,,,,,,
28800,control_change,120,0,2,,,,,,,64,0,2,,,,
28800,note_off,0,0,1,,,,,,,,,1,,,78,0
28800,note_off,0,0,1,,,,,,,,,1,,,66,0
28800,note_on,0,0,1,,,,,,,,,1,,,68,48
28800,set_tempo,60,1,0,,,,,,1363636,,,,,,,
28800,note_on,0,0,5,,,,,,,,,5,,,34,48
28800,note_on,0,0,5,,,,,,,,,5,,,46,48
28800,note_off,0,0,5,,,,,,,,,5,,,49,0
28800,control_change,200,0,5,,,,,,,64,0,5,,,,
28800,control_change,200,0,3,,,,,,,64,0,3,,,,
28800,control_change,120,0,1,,,,,,,64,0,1,,,,
28800,note_off,0,0,5,,,,,,,,,5,,,37,0
28800,control_change,200,0,4,,,,,,,64,0,4,,,,
28800,note_off,0,0,2,,,,,,,,,2,,,75,0
28800,note_on,0,0,2,,,,,,,,,2,,,76,48
28800,note_on,0,0,1,,,,,,,,,1,,,80,48
28840,control_change,40,0,4,,,,,,,64,127,4,,,,
28840,control_change,40,0,5,,,,,,,64,127,5,,,,
28840,control_change,40,0,2,,,,,,,64,127,2,,,,
28840,control_change,40,0,1,,,,,,,64,127,1,,,,
28840,control_change,40,0,3,,,,,,,64,127,3,,,,
29040,note_off,0,0,1,,,,,,,,,1,,,68,0
29040,note_on,0,0,1,,,,,,,,,1,,,66,44
29040,note_on,0,0,1,,,,,,,,,1,,,78,44
29040,note_off,200,0,1,,,,,,,,,1,,,80,0
29040,note_off,200,0,2,,,,,,,,,2,,,76,0
29040,note_on,0,0,2,,,,,,,,,2,,,75,44
29160,set_tempo,360,1,0,,,,,,1395348,,,,,,,
29280,note_on,0,0,1,,,,,,,,,1,,,76,41
29280,note_on,0,0,1,,,,,,,,,1,,,64,41
29280,note_off,0,0,1,,,,,,,,,1,,,66,0
29280,control_change,440,0,4,,,,,,,64,0,4,,,,
29280,note_off,0,0,2,,,,,,,,,2,,,75,0
29280,control_change,240,0,2,,,,,,,64,0,2,,,,
29280,note_on,0,0,5,,,,,,,,,5,,,31,41
29280,note_on,0,0,5,,,,,,,,,5,,,43,41
29280,control_change,440,0,3,,,,,,,64,0,3,,,,
29280,note_off,0,0,5,,,,,,,,,5,,,34,0
29280,control_change,440,0,5,,,,,,,64,0,5,,,,
29280,note_off,0,0,1,,,,,,,,,1,,,78,0
29280,control_change,240,0,1,,,,,,,64,0,1,,,,
29280,note_on,0,0,2,,,,,,,,,2,,,73,41
29280,note_off,0,0,5,,,,,,,,,5,,,46,0
29320,control_change,40,0,2,,,,,,,64,127,2,,,,
29320,control_change,40,0,5,,,,,,,64,127,5,,,,
29320,control_change,40,0,3,,,,,,,64,127,3,,,,
29320,control_change,40,0,4,,,,,,,64,127,4,,,,
29320,control_change,40,0,1,,,,,,,64,127,1,,,,
29400,set_tempo,240,1,0,,,,,,1428571,,,,,,,
29520,note_on,0,0,1,,,,,,,,,1,,,75,37
29520,note_on,0,0,1,,,,,,,,,1,,,63,37
29520,note_on,0,0,2,,,,,,,,,2,,,71,37
29520,note_off,200,0,2,,,,,,,,,2,,,73,0
29520,note_off,0,0,1,,,,,,,,,1,,,64,0
29520,note_off,200,0,1,,,,,,,,,1,,,76,0
29640,set_tempo,240,1,0,,,,,,1578947,,,,,,,
29760,set_tempo,120,1,0,,,,,,1764705,,,,,,,
29760,control_change,440,0,3,,,,,,,64,0,3,,,,
29760,note_on,0,0,1,,,,,,,,,1,,,73,33
29760,control_change,240,0,2,,,,,,,64,0,2,,,,
29760,note_off,0,0,2,,,,,,,,,2,,,71,0
29760,note_on,0,0,2,,,,,,,,,2,,,70,33
29760,control_change,440,0,4,,,,,,,64,0,4,,,,
29760,note_on,0,0,1,,,,,,,,,1,,,61,33
29760,control_change,240,0,1,,,,,,,64,0,1,,,,
29760,note_off,0,0,1,,,,,,,,,1,,,75,0
29760,control_change,440,0,5,,,,,,,64,0,5,,,,
29760,note_off,0,0,5,,,,,,,,,5,,,31,0
29760,note_off,0,0,5,,,,,,,,,5,,,43,0
29760,note_on,0,0,5,,,,,,,,,5,,,32,33
29760,note_on,0,0,5,,,,,,,,,5,,,44,33
29760,note_off,0,0,1,,,,,,,,,1,,,63,0
29800,control_change,40,0,1,,,,,,,64,127,1,,,,
29800,control_change,40,0,3,,,,,,,64,127,3,,,,
29800,control_change,40,0,4,,,,,,,64,127,4,,,,
29800,control_change,40,0,5,,,,,,,64,127,5,,,,
29800,control_change,40,0,2,,,,,,,64,127,2,,,,
30000,note_off,200,0,2,,,,,,,,,2,,,70,0
30000,note_on,0,0,2,,,,,,,,,2,,,68,28
30000,set_tempo,240,1,0,,,,,,674157,,,,,,,
30000,note_off,200,0,1,,,,,,,,,1,,,73,0
30000,note_off,0,0,1,,,,,,,,,1,,,61,0
30000,note_on,0,0,1,,,,,,,,,1,,,71,28
30000,note_on,0,0,1,,,,,,,,,1,,,59,28
30240,note_off,240,0,2,,,,,,,,,2,,,68,0
30240,note_off,440,0,5,,,,,,,,,5,,,44,0
30240,note_off,240,0,1,,,,,,,,,1,,,59,0
30240,note_off,0,0,1,,,,,,,,,1,,,71,0
30240,note_off,0,0,5,,,,,,,,,5,,,32,0
31680,control_change,1880,0,4,,,,,,,64,0,4,,,,
31680,note_on,0,0,5,,,,,,,,,5,,,34,32
31680,control_change,1440,0,2,,,,,,,64,0,2,,,,
31680,control_change,1880,0,3,,,,,,,64,0,3,,,,
31680,control_change,1440,0,5,,,,,,,64,0,5,,,,
31680,set_tempo,1680,1,0,,,,,,1363636,,,,,,,
31680,control_change,1440,0,1,,,,,,,64,0,1,,,,
31720,control_change,40,0,3,,,,,,,64,127,3,,,,
31720,control_change,40,0,4,,,,,,,64,127,4,,,,
31720,control_change,40,0,1,,,,,,,64,127,1,,,,
31720,control_change,40,0,2,,,,,,,64,127,2,,,,
31720,control_change,40,0,5,,,,,,,64,127,5,,,,
31800,note_on,80,0,4,,,,,,,,,4,,,46,33
31800,note_off,80,0,5,,,,,,,,,5,,,34,0
31920,note_on,200,0,2,,,,,,,,,2,,,66,34
31920,note_on,0,0,4,,,,,,,,,4,,,51,34
31920,note_off,120,0,4,,,,,,,,,4,,,46,0
31920,note_on,200,0,1,,,,,,,,,1,,,70,34
32040,note_off,120,0,4,,,,,,,,,4,,,51,0
32040,note_on,0,0,4,,,,,,,,,4,,,54,36
32160,note_off,120,0,4,,,,,,,,,4,,,54,0
32160,note_off,240,0,1,,,,,,,,,1,,,70,0
32160,note_off,240,0,2,,,,,,,,,2,,,66,0
32160,note_on,0,0,4,,,,,,,,,4,,,58,38
32400,control_change,680,0,3,,,,,,,64,0,3,,,,
32400,note_on,0,0,2,,,,,,,,,2,,,68,42
32400,control_change,240,0,2,,,,,,,64,0,2,,,,
32400,control_change,600,0,5,,,,,,,64,0,5,,,,
32400,note_on,0,0,5,,,,,,,,,5,,,34,42
32400,control_change,240,0,4,,,,,,,64,0,4,,,,
32400,note_off,0,0,4,,,,,,,,,4,,,58,0
32400,note_on,0,0,1,,,,,,,,,1,,,71,42
32400,control_change,240,0,1,,,,,,,64,0,1,,,,
32440,control_change,40,0,5,,,,,,,64,127,5,,,,
32440,control_change,40,0,1,,,,,,,64,127,1,,,,
32440,control_change,40,0,2,,,,,,,64,127,2,,,,
32440,control_change,40,0,4,,,,,,,64,127,4,,,,
32440,control_change,40,0,3,,,,,,,64,127,3,,,,
32520,note_off,80,0,5,,,,,,,,,5,,,34,0
32520,note_on,80,0,4,,,,,,,,,4,,,46,40
32640,note_off,200,0,2,,,,,,,,,2,,,68,0
32640,note_on,0,0,4,,,,,,,,,4,,,53,38
32640,note_off,120,0,4,,,,,,,,,4,,,46,0
32640,note_off,200,0,1,,,,,,,,,1,,,71,0
32640,note_on,0,0,4,,,,,,,,,4,,,59,38
32760,note_off,120,0,4,,,,,,,,,4,,,53,0
32760,note_on,0,0,4,,,,,,,,,4,,,56,36
32880,note_off,120,0,4,,,,,,,,,4,,,56,0
32880,note_off,0,0,4,,,,,,,,,4,,,59,0
32880,note_on,0,0,4,,,,,,,,,4,,,65,35
32880,note_on,240,0,1,,,,,,,,,1,,,68,35
33000,set_tempo,1320,1,0,,,,,,1428571,,,,,,,
33120,note_off,0,0,4,,,,,,,,,4,,,65,0
33120,control_change,240,0,1,,,,,,,64,0,1,,,,
33120,note_off,0,0,1,,,,,,,,,1,,,68,0
33120,note_on,0,0,4,,,,,,,,,4,,,56,34
33120,control_change,600,0,5,,,,,,,64,0,5,,,,
33120,control_change,240,0,4,,,,,,,64,0,4,,,,
33120,control_change,680,0,3,,,,,,,64,0,3,,,,
33120,note_on,0,0,5,,,,,,,,,5,,,34,34
33120,set_tempo,120,1,0,,,,,,1363636,,,,,,,
33120,control_change,480,0,2,,,,,,,64,0,2,,,,
33160,control_change,40,0,4,,,,,,,64,127,4,,,,
33160,control_change,40,0,2,,,,,,,64,127,2,,,,
33160,control_change,40,0,5,,,,,,,64,127,5,,,,
33160,control_change,40,0,3,,,,,,,64,127,3,,,,
33160,control_change,40,0,1,,,,,,,64,127,1,,,,
33240,note_on,80,0,4,,,,,,,,,4,,,46,36
33240,note_off,80,0,5,,,,,,,,,5,,,34,0
33360,note_on,0,0,4,,,,,,,,,4,,,50,37
33360,note_off,0,0,4,,,,,,,,,4,,,56,0
33360,note_on,200,0,1,,,,,,,,,1,,,80,37
33360,note_on,200,0,2,,,,,,,,,2,,,77,37
33360,note_off,120,0,4,,,,,,,,,4,,,46,0
33480,note_off,120,0,4,,,,,,,,,4,,,50,0
33480,note_on,0,0,4,,,,,,,,,4,,,53,39
33600,note_off,120,0,4,,,,,,,,,4,,,53,0
33600,note_off,240,0,1,,,,,,,,,1,,,80,0
33600,note_off,240,0,2,,,,,,,,,2,,,77,0
33600,note_on,0,0,4,,,,,,,,,4,,,68,41
33840,control_change,240,0,2,,,,,,,64,0,2,,,,
33840,note_off,0,0,4,,,,,,,,,4,,,68,0
33840,control_change,240,0,4,,,,,,,64,0,4,,,,
33840,control_change,680,0,3,,,,,,,64,0,3,,,,
33840,control_change,240,0,1,,,,,,,64,0,1,,,,
33840,note_on,0,0,5,,,,,,,,,5,,,34,44
33840,control_change,600,0,5,,,,,,,64,0,5,,,,
33840,note_on,0,0,1,,,,,,,,,1,,,82,44
33840,note_on,0,0,2,,,,,,,,,2,,,78,44
33880,control_change,40,0,2,,,,,,,64,127,2,,,,
33880,control_change,40,0,3,,,,,,,64,127,3,,,,
33880,control_change,40,0,4,,,,,,,64,127,4,,,,
33880,control_change,40,0,5,,,,,,,64,127,5,,,,
33880,control_change,40,0,1,,,,,,,64,127,1,,,,
33960,note_on,80,0,4,,,,,,,,,4,,,46,42
33960,note_off,80,0,5,,,,,,,,,5,,,34,0
34080,note_on,0,0,4,,,,,,,,,4,,,51,40
34080,note_off,120,0,4,,,,,,,,,4,,,46,0
34080,note_off,200,0,2,,,,,,,,,2,,,78,0
34080,note_off,200,0,1,,,,,,,,,1,,,82,0
34080,note_on,0,0,4,,,,,,,,,4,,,70,40
34200,note_on,0,0,4,,,,,,,,,4,,,54,38
34200,note_off,120,0,4,,,,,,,,,4,,,51,0
34320,note_off,0,0,4,,,,,,,,,4,,,70,0
34320,note_on,0,0,4,,,,,,,,,4,,,75,36
34320,note_off,120,0,4,,,,,,,,,4,,,54,0
34320,note_on,240,0,1,,,,,,,,,1,,,78,36
34440,set_tempo,1320,1,0,,,,,,1428571,,,,,,,
34560,control_change,480,0,2,,,,,,,64,0,2,,,,
34560,note_off,0,0,1,,,,,,,,,1,,,78,0
34560,set_tempo,120,1,0,,,,,,1363636,,,,,,,
34560,control_change,680,0,3,,,,,,,64,0,3,,,,
34560,control_change,240,0,4,,,,,,,64,0,4,,,,
34560,note_on,0,0,5,,,,,,,,,5,,,34,34
34560,control_change,600,0,5,,,,,,,64,0,5,,,,
34560,control_change,240,0,1,,,,,,,64,0,1,,,,
34560,note_off,0,0,4,,,,,,,,,4,,,75,0
34560,note_on,0,0,4,,,,,,,,,4,,,66,34
34600,control_change,40,0,4,,,,,,,64,127,4,,,,
34600,control_change,40,0,3,,,,,,,64,127,3,,,,
34600,control_change,40,0,1,,,,,,,64,127,1,,,,
34600,control_change,40,0,5,,,,,,,64,127,5,,,,
34600,control_change,40,0,2,,,,,,,64,127,2,,,,
34680,note_on,80,0,4,,,,,,,,,4,,,46,35
34680,note_off,80,0,5,,,,,,,,,5,,,34,0
34800,note_on,200,0,1,,,,,,,,,1,,,66,37
34800,note_on,200,0,2,,,,,,,,,2,,,63,37
34800,note_off,120,0,4,,,,,,,,,4,,,46,0
34800,note_off,0,0,4,,,,,,,,,4,,,66,0
34800,note_on,0,0,4,,,,,,,,,4,,,47,37
34920,note_off,120,0,4,,,,,,,,,4,,,47,0
34920,note_on,0,0,4,,,,,,,,,4,,,51,38
35040,note_on,0,0,4,,,,,,,,,4,,,54,40
35040,note_off,240,0,1,,,,,,,,,1,,,66,0
35040,note_off,120,0,4,,,,,,,,,4,,,51,0
35040,note_off,240,0,2,,,,,,,,,2,,,63,0
35280,control_change,240,0,1,,,,,,,64,0,1,,,,
35280,note_on,0,0,1,,,,,,,,,1,,,65,44
35280,note_off,0,0,4,,,,,,,,,4,,,54,0
35280,control_change,600,0,5,,,,,,,64,0,5,,,,
35280,control_change,240,0,4,,,,,,,64,0,4,,,,
35280,note_on,0,0,5,,,,,,,,,5,,,32,44
35280,control_change,680,0,3,,,,,,,64,0,3,,,,
35280,control_change,240,0,2,,,,,,,64,0,2,,,,
35280,note_on,0,0,2,,,,,,,,,2,,,59,44
35280,note_on,0,0,2,,,,,,,,,2,,,63,44
35320,control_change,40,0,4,,,,,,,64,127,4,,,,
35320,control_change,40,0,3,,,,,,,64,127,3,,,,
35320,control_change,40,0,1,,,,,,,64,127,1,,,,
35320,control_change,40,0,5,,,,,,,64,127,5,,,,
35320,control_change,40,0,2,,,,,,,64,127,2,,,,
35400,note_on,80,0,4,,,,,,,,,4,,,44,42
35400,note_off,80,0,5,,,,,,,,,5,,,32,0
35520,note_off,0,0,2,,,,,,,,,2,,,59,0
35520,note_off,200,0,2,,,,,,,,,2,,,63,0
35520,note_off,200,0,1,,,,,,,,,1,,,65,0
35520,note_on,0,0,4,,,,,,,,,4,,,53,40
35520,note_on,0,0,4,,,,,,,,,4,,,47,40
35520,note_off,120,0,4,,,,,,,,,4,,,44,0
35640,note_off,120,0,4,,,,,,,,,4,,,47,0
35640,note_on,0,0,4,,,,,,,,,4,,,51,37
35760,note_on,0,0,4,,,,,,,,,4,,,59,35
35760,note_off,0,0,4,,,,,,,,,4,,,53,0
35760,note_off,120,0,4,,,,,,,,,4,,,51,0
35760,note_on,240,0,2,,,,,,,,,2,,,63,35
35760,note_on,240,0,1,,,,,,,,,1,,,65,35
35880,set_tempo,1320,1,0,,,,,,1428571,,,,,,,
36000,note_off,0,0,4,,,,,,,,,4,,,59,0
36000,control_change,680,0,3,,,,,,,64,0,3,,,,
36000,note_on,0,0,5,,,,,,,,,5,,,32,35
36000,control_change,240,0,2,,,,,,,64,0,2,,,,
36000,control_change,600,0,5,,,,,,,64,0,5,,,,
36000,control_change,240,0,1,,,,,,,64,0,1,,,,
36000,control_change,240,0,4,,,,,,,64,0,4,,,,
36000,note_off,0,0,1,,,,,,,,,1,,,65,0
36000,set_tempo,120,1,0,,,,,,1363636,,,,,,,
36000,note_off,0,0,2,,,,,,,,,2,,,63,0
36040,control_change,40,0,3,,,,,,,64,127,3,,,,
36040,control_change,40,0,4,,,,,,,64,127,4,,,,
36040,control_change,40,0,2,,,,,,,64,127,2,,,,
36040,control_change,40,0,5,,,,,,,64,127,5,,,,
36040,control_change,40,0,1,,,,,,,64,127,1,,,,
36120,note_on,80,0,4,,,,,,,,,4,,,44,35
36120,note_off,80,0,5,,,,,,,,,5,,,32,0
36240,note_on,200,0,1,,,,,,,,,1,,,77,36
36240,note_off,120,0,4,,,,,,,,,4,,,44,0
36240,note_on,200,0,2,,,,,,,,,2,,,70,36
36240,note_on,0,0,2,,,,,,,,,2,,,73,36
36240,note_on,0,0,4,,,,,,,,,4,,,46,36
36360,note_on,0,0,4,,,,,,,,,4,,,49,37
36360,note_off,120,0,4,,,,,,,,,4,,,46,0
36480,note_off,240,0,1,,,,,,,,,1,,,77,0
36480,note_off,0,0,2,,,,,,,,,2,,,70,0
36480,note_off,240,0,2,,,,,,,,,2,,,73,0
36480,note_on,0,0,4,,,,,,,,,4,,,65,38
36480,note_off,120,0,4,,,,,,,,,4,,,49,0
36720,note_on,0,0,5,,,,,,,,,5,,,30,42
36720,control_change,600,0,5,,,,,,,64,0,5,,,,
36720,control_change,240,0,4,,,,,,,64,0,4,,,,
36720,control_change,680,0,3,,,,,,,64,0,3,,,,
36720,control_change,240,0,2,,,,,,,64,0,2,,,,
36720,note_on,0,0,2,,,,,,,,,2,,,70,42
36720,note_on,0,0,2,,,,,,,,,2,,,73,42
36720,note_off,0,0,4,,,,,,,,,4,,,65,0
36720,control_change,240,0,1,,,,,,,64,0,1,,,,
36720,note_on,0,0,1,,,,,,,,,1,,,75,42
36760,control_change,40,0,1,,,,,,,64,127,1,,,,
36760,control_change,40,0,5,,,,,,,64,127,5,,,,
36760,control_change,40,0,2,,,,,,,64,127,2,,,,
36760,control_change,40,0,3,,,,,,,64,127,3,,,,
36760,control_change,40,0,4,,,,,,,64,127,4,,,,
36840,note_off,80,0,5,,,,,,,,,5,,,30,0
36840,note_on,80,0,4,,,,,,,,,4,,,42,39
36960,note_off,200,0,1,,,,,,,,,1,,,75,0
36960,note_off,120,0,4,,,,,,,,,4,,,42,0
36960,note_on,0,0,4,,,,,,,,,4,,,46,36
36960,note_off,0,0,2,,,,,,,,,2,,,73,0
36960,note_off,200,0,2,,,,,,,,,2,,,70,0
36960,note_on,0,0,4,,,,,,,,,4,,,63,36
37080,note_off,120,0,4,,,,,,,,,4,,,46,0
37080,note_on,0,0,4,,,,,,,,,4,,,49,33
37200,note_on,240,0,1,,,,,,,,,1,,,75,30
37200,note_on,240,0,2,,,,,,,,,2,,,73,30
37200,note_off,120,0,4,,,,,,,,,4,,,49,0
37200,note_on,0,0,4,,,,,,,,,4,,,70,30
37200,note_off,0,0,4,,,,,,,,,4,,,63,0
37320,set_tempo,1320,1,0,,,,,,1428571,,,,,,,
37440,note_off,0,0,2,,,,,,,,,2,,,73,0
37440,control_change,240,0,4,,,,,,,64,0,4,,,,
37440,note_off,0,0,4,,,,,,,,,4,,,70,0
37440,note_on,0,0,5,,,,,,,,,5,,,30,27
37440,set_tempo,120,1,0,,,,,,1363636,,,,,,,
37440,control_change,240,0,2,,,,,,,64,0,2,,,,
37440,note_off,0,0,1,,,,,,,,,1,,,75,0
37440,control_change,240,0,1,,,,,,,64,0,1,,,,
37440,control_change,600,0,5,,,,,,,64,0,5,,,,
37440,control_change,680,0,3,,,,,,,64,0,3,,,,
37480,control_change,40,0,5,,,,,,,64,127,5,,,,
37480,control_change,40,0,4,,,,,,,64,127,4,,,,
37480,control_change,40,0,1,,,,,,,64,127,1,,,,
37480,control_change,40,0,3,,,,,,,64,127,3,,,,
37480,control_change,40,0,2,,,,,,,64,127,2,,,,
37560,note_on,80,0,4,,,,,,,,,4,,,42,29
37560,note_off,80,0,5,,,,,,,,,5,,,30,0
37680,note_on,200,0,2,,,,,,,,,2,,,58,30
37680,note_on,0,0,2,,,,,,,,,2,,,60,30
37680,note_on,200,0,1,,,,,,,,,1,,,64,30
37680,note_off,120,0,4,,,,,,,,,4,,,42,0
37680,note_on,0,0,4,,,,,,,,,4,,,46,30
37800,note_off,120,0,4,,,,,,,,,4,,,46,0
37800,note_on,0,0,4,,,,,,,,,4,,,48,32
37920,note_off,240,0,2,,,,,,,,,2,,,60,0
37920,note_off,0,0,2,,,,,,,,,2,,,58,0
37920,note_on,0,0,4,,,,,,,,,4,,,52,35
37920,note_off,120,0,4,,,,,,,,,4,,,48,0
37920,note_off,240,0,1,,,,,,,,,1,,,64,0
38160,control_change,240,0,4,,,,,,,64,0,4,,,,
38160,control_change,240,0,1,,,,,,,64,0,1,,,,
38160,note_off,0,0,4,,,,,,,,,4,,,52,0
38160,control_change,680,0,3,,,,,,,64,0,3,,,,
38160,note_on,0,0,5,,,,,,,,,5,,,29,39
38160,control_change,600,0,5,,,,,,,64,0,5,,,,
38160,note_on,0,0,2,,,,,,,,,2,,,60,39
38160,note_on,0,0,2,,,,,,,,,2,,,58,39
38160,control_change,240,0,2,,,,,,,64,0,2,,,,
38160,note_on,0,0,1,,,,,,,,,1,,,65,39
38200,control_change,40,0,5,,,,,,,64,127,5,,,,
38200,control_change,40,0,4,,,,,,,64,127,4,,,,
38200,control_change,40,0,1,,,,,,,64,127,1,,,,
38200,control_change,40,0,3,,,,,,,64,127,3,,,,
38200,control_change,40,0,2,,,,,,,64,127,2,,,,
38280,note_on,80,0,4,,,,,,,,,4,,,41,37
38280,note_off,80,0,5,,,,,,,,,5,,,29,0
38400,note_on,0,0,4,,,,,,,,,4,,,46,36
38400,note_on,0,0,4,,,,,,,,,4,,,53,36
38400,note_off,120,0,4,,,,,,,,,4,,,41,0
38400,note_off,200,0,1,,,,,,,,,1,,,65,0
38400,note_off,0,0,2,,,,,,,,,2,,,58,0
38400,note_off,200,0,2,,,,,,,,,2,,,60,0
38520,note_on,0,0,4,,,,,,,,,4,,,48,34
38520,note_off,120,0,4,,,,,,,,,4,,,46,0
38640,note_off,120,0,4,,,,,,,,,4,,,48,0
38640,note_off,0,0,4,,,,,,,,,4,,,53,0
38640,note_on,0,0,4,,,,,,,,,4,,,58,33
38640,note_on,240,0,1,,,,,,,,,1,,,60,33
38760,set_tempo,1320,1,0,,,,,,1428571,,,,,,,
38880,note_on,0,0,4,,,,,,,,,4,,,51,33
38880,set_tempo,120,1,0,,,,,,1363636,,,,,,,
38880,control_change,680,0,3,,,,,,,64,0,3,,,,
38880,control_change,480,0,2,,,,,,,64,0,2,,,,
38880,control_change,600,0,5,,,,,,,64,0,5,,,,
38880,note_on,0,0,5,,,,,,,,,5,,,53,33
38880,note_on,0,0,5,,,,,,,,,5,,,41,33
38880,control_change,240,0,4,,,,,,,64,0,4,,,,
38880,note_off,0,0,4,,,,,,,,,4,,,58,0
38880,note_on,0,0,2,,,,,,,,,2,,,75,33
38880,note_on,0,0,4,,,,,,,,,4,,,45,33
38880,note_on,0,0,2,,,,,,,,,2,,,69,33
38880,control_change,240,0,1,,,,,,,64,0,1,,,,
38880,note_off,0,0,1,,,,,,,,,1,,,60,0
38880,note_on,0,0,1,,,,,,,,,1,,,65,33
38880,note_on,0,0,1,,,,,,,,,1,,,77,33
39120,note_on,240,0,2,,,,,,,,,2,,,73,30
39120,note_on,240,0,4,,,,,,,,,4,,,49,30
39360,note_on,0,0,2,,,,,,,,,2,,,72,28
39360,note_off,240,0,2,,,,,,,,,2,,,73,0
39360,note_off,240,0,4,,,,,,,,,4,,,49,0
39360,note_on,0,0,4,,,,,,,,,4,,,48,28
39480,set_tempo,600,1,0,,,,,,1428571,,,,,,,
39600,note_off,0,0,1,,,,,,,,,1,,,65,0
39600,note_on,0,0,4,,,,,,,,,4,,,46,25
39600,note_on,0,0,5,,,,,,,,,5,,,53,25
39600,note_on,0,0,5,,,,,,,,,5,,,41,25
39600,note_off,0,0,5,,,,,,,,,5,,,53,0
39600,note_on,0,0,2,,,,,,,,,2,,,75,25
39600,note_off,0,0,2,,,,,,,,,2,,,69,0
39600,note_off,720,0,1,,,,,,,,,1,,,77,0
39600,note_off,0,0,2,,,,,,,,,2,,,75,0
39600,note_off,240,0,2,,,,,,,,,2,,,72,0
39600,note_on,0,0,1,,,,,,,,,1,,,77,25
39600,note_on,0,0,1,,,,,,,,,1,,,65,25
39600,note_on,0,0,2,,,,,,,,,2,,,70,25
39600,note_on,0,0,4,,,,,,,,,4,,,51,25
39600,note_off,720,0,5,,,,,,,,,5,,,41,0
39600,note_off,0,0,4,,,,,,,,,4,,,51,0
39600,note_off,0,0,4,,,,,,,,,4,,,45,0
39600,note_off,240,0,4,,,,,,,,,4,,,48,0
40080,note_on,480,0,4,,,,,,,,,4,,,49,20
40080,note_off,480,0,2,,,,,,,,,2,,,75,0
40080,note_on,0,0,2,,,,,,,,,2,,,73,20
40080,set_tempo,600,1,0,,,,,,2068965,,,,,,,
40085,note_off,5,0,4,,,,,,,,,4,,,51,0
40320,note_on,0,0,5,,,,,,,,,5,,,30,34
40320,control_change,720,0,5,,,,,,,64,0,5,,,,
40320,note_off,0,0,5,,,,,,,,,5,,,53,0
40320,control_change,720,0,1,,,,,,,64,0,1,,,,
40320,note_off,0,0,1,,,,,,,,,1,,,77,0
40320,control_change,1440,0,3,,,,,,,64,0,3,,,,
40320,note_off,0,0,5,,,,,,,,,5,,,41,0
40320,note_off,0,0,2,,,,,,,,,2,,,70,0
40320,note_off,0,0,2,,,,,,,,,2,,,73,0
40320,control_change,240,0,2,,,,,,,64,0,2,,,,
40320,note_off,0,0,1,,,,,,,,,1,,,65,0
40320,note_off,0,0,4,,,,,,,,,4,,,46,0
40320,note_off,0,0,4,,,,,,,,,4,,,49,0
40320,control_change,235,0,4,,,,,,,64,0,4,,,,
40320,set_tempo,240,1,0,,,,,,1363636,,,,,,,
40360,control_change,40,0,5,,,,,,,64,127,5,,,,
40360,control_change,40,0,2,,,,,,,64,127,2,,,,
40360,control_change,40,0,3,,,,,,,64,127,3,,,,
40360,control_change,40,0,4,,,,,,,64,127,4,,,,
40360,control_change,40,0,1,,,,,,,64,127,1,,,,
40440,note_off,80,0,5,,,,,,,,,5,,,30,0
40440,note_on,80,0,4,,,,,,,,,4,,,42,36
40560,note_off,120,0,4,,,,,,,,,4,,,42,0
40560,note_on,200,0,2,,,,,,,,,2,,,60,37
40560,note_on,0,0,2,,,,,,,,,2,,,58,37
40560,note_on,0,0,4,,,,,,,,,4,,,46,37
40560,note_on,200,0,1,,,,,,,,,1,,,64,37
40680,note_off,120,0,4,,,,,,,,,4,,,46,0
40680,note_on,0,0,4,,,,,,,,,4,,,48,38
40800,note_off,120,0,4,,,,,,,,,4,,,48,0
40800,note_on,0,0,4,,,,,,,,,4,,,52,40
40800,note_off,0,0,2,,,,,,,,,2,,,60,0
40800,note_off,240,0,2,,,,,,,,,2,,,58,0
40800,note_off,240,0,1,,,,,,,,,1,,,64,0
41040,note_on,0,0,1,,,,,,,,,1,,,66,44
41040,control_change,240,0,4,,,,,,,64,0,4,,,,
41040,note_off,0,0,4,,,,,,,,,4,,,52,0
41040,note_on,0,0,5,,,,,,,,,5,,,24,44
41040,control_change,240,0,1,,,,,,,64,0,1,,,,
41040,note_on,0,0,2,,,,,,,,,2,,,58,44
41040,note_on,0,0,2,,,,,,,,,2,,,63,44
41040,control_change,240,0,2,,,,,,,64,0,2,,,,
41040,control_change,600,0,5,,,,,,,64,0,5,,,,
41040,control_change,680,0,3,,,,,,,64,0,3,,,,
41080,control_change,40,0,5,,,,,,,64,127,5,,,,
41080,control_change,40,0,2,,,,,,,64,127,2,,,,
41080,control_change,40,0,3,,,,,,,64,127,3,,,,
41080,control_change,40,0,1,,,,,,,64,127,1,,,,
41080,control_change,40,0,4,,,,,,,64,127,4,,,,
41160,note_off,80,0,5,,,,,,,,,5,,,24,0
41160,note_on,80,0,4,,,,,,,,,4,,,36,42
41280,note_off,200,0,2,,,,,,,,,2,,,58,0
41280,note_off,120,0,4,,,,,,,,,4,,,36,0
41280,note_on,0,0,4,,,,,,,,,4,,,54,39
41280,note_off,200,0,1,,,,,,,,,1,,,66,0
41280,note_on,0,0,4,,,,,,,,,4,,,39,39
41280,note_off,0,0,2,,,,,,,,,2,,,63,0
41400,note_off,120,0,4,,,,,,,,,4,,,39,0
41400,note_on,0,0,4,,,,,,,,,4,,,46,36
41520,note_off,120,0,4,,,,,,,,,4,,,46,0
41520,note_on,240,0,1,,,,,,,,,1,,,60,34
41520,note_off,0,0,4,,,,,,,,,4,,,54,0
41520,note_on,0,0,4,,,,,,,,,4,,,51,34
41520,note_on,240,0,2,,,,,,,,,2,,,54,34
41640,set_tempo,1320,1,0,,,,,,1428571,,,,,,,
41760,control_change,240,0,2,,,,,,,64,0,2,,,,
41760,note_on,0,0,5,,,,,,,,,5,,,53,31
41760,note_on,0,0,5,,,,,,,,,5,,,41,31
41760,control_change,600,0,5,,,,,,,64,0,5,,,,
41760,control_change,240,0,4,,,,,,,64,0,4,,,,
41760,note_on,0,0,4,,,,,,,,,4,,,51,31
41760,note_on,0,0,4,,,,,,,,,4,,,45,31
41760,control_change,680,0,3,,,,,,,64,0,3,,,,
41760,note_on,0,0,2,,,,,,,,,2,,,75,31
41760,note_off,0,0,2,,,,,,,,,2,,,54,0
41760,note_off,0,0,4,,,,,,,,,4,,,51,0
41760,note_on,0,0,2,,,,,,,,,2,,,69,31
41760,set_tempo,120,1,0,,,,,,1363636,,,,,,,
41760,control_change,240,0,1,,,,,,,64,0,1,,,,
41760,note_on,0,0,1,,,,,,,,,1,,,77,31
41760,note_on,0,0,1,,,,,,,,,1,,,65,31
41760,note_off,0,0,1,,,,,,,,,1,,,60,0
42000,note_on,240,0,4,,,,,,,,,4,,,49,29
42000,note_on,240,0,2,,,,,,,,,2,,,73,29
42240,note_on,0,0,4,,,,,,,,,4,,,48,28
42240,note_on,0,0,2,,,,,,,,,2,,,72,28
42240,note_off,240,0,2,,,,,,,,,2,,,73,0
42240,note_off,240,0,4,,,,,,,,,4,,,49,0
42360,set_tempo,600,1,0,,,,,,1428571,,,,,,,
42480,note_off,0,0,5,,,,,,,,,5,,,41,0
42480,note_on,0,0,1,,,,,,,,,1,,,80,27
42480,note_on,0,0,1,,,,,,,,,1,,,68,27
42480,note_off,0,0,1,,,,,,,,,1,,,65,0
42480,note_off,720,0,1,,,,,,,,,1,,,77,0
42480,note_off,240,0,4,,,,,,,,,4,,,48,0
42480,note_on,0,0,4,,,,,,,,,4,,,46,27
42480,note_off,720,0,5,,,,,,,,,5,,,53,0
42480,note_on,0,0,4,,,,,,,,,4,,,50,27
42480,note_on,0,0,5,,,,,,,,,5,,,44,27
42480,note_off,0,0,4,,,,,,,,,4,,,51,0
42480,note_on,0,0,2,,,,,,,,,2,,,74,27
42480,note_on,0,0,2,,,,,,,,,2,,,70,27
42480,note_off,0,0,2,,,,,,,,,2,,,75,0
42480,note_off,0,0,2,,,,,,,,,2,,,69,0
42480,note_off,240,0,2,,,,,,,,,2,,,72,0
42480,note_off,0,0,4,,,,,,,,,4,,,45,0
42480,note_on,0,0,5,,,,,,,,,5,,,56,27
42720,note_on,0,0,5,,,,,,,,,5,,,54,25
42720,note_on,0,0,5,,,,,,,,,5,,,42,25
42720,note_off,240,0,5,,,,,,,,,5,,,44,0
42720,note_on,240,0,1,,,,,,,,,1,,,78,25
42720,note_on,0,0,1,,,,,,,,,1,,,66,25
42725,note_off,0,0,1,,,,,,,,,1,,,68,0
42725,note_off,5,0,1,,,,,,,,,1,,,80,0
42725,note_off,5,0,5,,,,,,,,,5,,,56,0
42960,note_off,235,0,1,,,,,,,,,1,,,66,0
42960,note_on,0,0,1,,,,,,,,,1,,,77,22
42960,note_on,0,0,1,,,,,,,,,1,,,65,22
42960,note_on,0,0,5,,,,,,,,,5,,,53,22
42960,set_tempo,600,1,0,,,,,,2400000,,,,,,,
42960,note_on,0,0,5,,,,,,,,,5,,,41,22
42960,note_off,0,0,1,,,,,,,,,1,,,78,0
42960,note_off,0,0,5,,,,,,,,,5,,,42,0
42960,note_off,235,0,5,,,,,,,,,5,,,54,0
43200,control_change,240,0,5,,,,,,,64,0,5,,,,
43200,note_off,0,0,2,,,,,,,,,2,,,74,0
43200,control_change,720,0,2,,,,,,,64,0,2,,,,
43200,set_tempo,240,1,0,,,,,,1363636,,,,,,,
43200,control_change,1440,0,3,,,,,,,64,0,3,,,,
43200,note_off,0,0,2,,,,,,,,,2,,,70,0
43200,note_off,0,0,5,,,,,,,,,5,,,41,0
43200,note_off,0,0,5,,,,,,,,,5,,,53,0
43200,control_change,240,0,1,,,,,,,64,0,1,,,,
43200,note_off,0,0,1,,,,,,,,,1,,,65,0
43200,note_off,0,0,1,,,,,,,,,1,,,77,0
43200,note_off,0,0,4,,,,,,,,,4,,,50,0
43200,note_off,0,0,4,,,,,,,,,4,,,46,0
43200,note_on,0,0,5,,,,,,,,,5,,,39,38
43200,control_change,720,0,4,,,,,,,64,0,4,,,,
43240,control_change,40,0,5,,,,,,,64,127,5,,,,
43240,control_change,40,0,3,,,,,,,64,127,3,,,,
43240,control_change,40,0,1,,,,,,,64,127,1,,,,
43240,control_change,40,0,2,,,,,,,64,127,2,,,,
43240,control_change,40,0,4,,,,,,,64,127,4,,,,
43320,note_on,80,0,4,,,,,,,,,4,,,46,40
43320,note_off,80,0,5,,,,,,,,,5,,,39,0
43440,note_on,200,0,2,,,,,,,,,2,,,66,41
43440,note_on,0,0,4,,,,,,,,,4,,,51,41
43440,note_on,200,0,1,,,,,,,,,1,,,70,41
43440,note_off,120,0,4,,,,,,,,,4,,,46,0
43560,note_on,0,0,4,,,,,,,,,4,,,54,43
43560,note_off,120,0,4,,,,,,,,,4,,,51,0
43680,note_on,0,0,4,,,,,,,,,4,,,58,44
43680,note_off,120,0,4,,,,,,,,,4,,,54,0
43680,note_off,240,0,1,,,,,,,,,1,,,70,0
43680,note_off,240,0,2,,,,,,,,,2,,,66,0
43920,note_on,0,0,5,,,,,,,,,5,,,32,46
43920,control_change,680,0,3,,,,,,,64,0,3,,,,
43920,note_on,0,0,1,,,,,,,,,1,,,71,46
43920,control_change,240,0,4,,,,,,,64,0,4,,,,
43920,note_off,0,0,4,,,,,,,,,4,,,58,0
43920,control_change,240,0,1,,,,,,,64,0,1,,,,
43920,control_change,600,0,5,,,,,,,64,0,5,,,,
43920,note_on,0,0,2,,,,,,,,,2,,,68,46
43920,control_change,240,0,2,,,,,,,64,0,2,,,,
43960,control_change,40,0,4,,,,,,,64,127,4,,,,
43960,control_change,40,0,2,,,,,,,64,127,2,,,,
43960,control_change,40,0,1,,,,,,,64,127,1,,,,
43960,control_change,40,0,3,,,,,,,64,127,3,,,,
43960,control_change,40,0,5,,,,,,,64,127,5,,,,
44040,note_on,80,0,4,,,,,,,,,4,,,44,44
44040,note_off,80,0,5,,,,,,,,,5,,,32,0
44160,note_off,200,0,1,,,,,,,,,1,,,71,0
44160,note_on,0,0,4,,,,,,,,,4,,,59,42
44160,note_off,120,0,4,,,,,,,,,4,,,44,0
44160,note_off,200,0,2,,,,,,,,,2,,,68,0
44160,note_on,0,0,4,,,,,,,,,4,,,47,42
44280,note_off,120,0,4,,,,,,,,,4,,,47,0
44280,note_on,0,0,4,,,,,,,,,4,,,52,39
44400,note_off,120,0,4,,,,,,,,,4,,,52,0
44400,note_off,0,0,4,,,,,,,,,4,,,59,0
44400,note_on,0,0,4,,,,,,,,,4,,,64,37
44400,note_on,240,0,1,,,,,,,,,1,,,68,37
44520,set_tempo,1320,1,0,,,,,,1428571,,,,,,,
44640,control_change,240,0,4,,,,,,,64,0,4,,,,
44640,note_off,0,0,1,,,,,,,,,1,,,68,0
44640,control_change,480,0,2,,,,,,,64,0,2,,,,
44640,note_on,0,0,4,,,,,,,,,4,,,56,39
44640,set_tempo,120,1,0,,,,,,1363636,,,,,,,
44640,control_change,600,0,5,,,,,,,64,0,5,,,,
44640,note_on,0,0,5,,,,,,,,,5,,,34,39
44640,control_change,240,0,1,,,,,,,64,0,1,,,,
44640,note_off,0,0,4,,,,,,,,,4,,,64,0
44640,control_change,680,0,3,,,,,,,64,0,3,,,,
44680,control_change,40,0,1,,,,,,,64,127,1,,,,
44680,control_change,40,0,2,,,,,,,64,127,2,,,,
44680,control_change,40,0,4,,,,,,,64,127,4,,,,
44680,control_change,40,0,3,,,,,,,64,127,3,,,,
44680,control_change,40,0,5,,,,,,,64,127,5,,,,
44760,note_on,80,0,4,,,,,,,,,4,,,46,41
44760,note_off,80,0,5,,,,,,,,,5,,,34,0
44880,note_off,120,0,4,,,,,,,,,4,,,46,0
44880,note_on,200,0,1,,,,,,,,,1,,,80,43
44880,note_off,0,0,4,,,,,,,,,4,,,56,0
44880,note_on,0,0,4,,,,,,,,,4,,,49,43
44880,note_on,200,0,2,,,,,,,,,2,,,73,43
44880,note_on,0,0,2,,,,,,,,,2,,,70,43
44880,note_on,0,0,2,,,,,,,,,2,,,76,43
45000,note_off,120,0,4,,,,,,,,,4,,,49,0
45000,note_on,0,0,4,,,,,,,,,4,,,52,45
45120,note_off,240,0,2,,,,,,,,,2,,,76,0
45120,note_off,0,0,2,,,,,,,,,2,,,70,0
45120,note_off,0,0,2,,,,,,,,,2,,,73,0
45120,note_off,240,0,1,,,,,,,,,1,,,80,0
45120,note_off,120,0,4,,,,,,,,,4,,,52,0
45120,note_on,0,0,4,,,,,,,,,4,,,68,47
45360,control_change,680,0,3,,,,,,,64,0,3,,,,
45360,control_change,240,0,2,,,,,,,64,0,2,,,,
45360,note_on,0,0,2,,,,,,,,,2,,,73,53
45360,control_change,240,0,4,,,,,,,64,0,4,,,,
45360,note_on,0,0,2,,,,,,,,,2,,,79,53
45360,note_off,0,0,4,,,,,,,,,4,,,68,0
45360,note_on,0,0,4,,,,,,,,,4,,,39,53
45360,note_on,0,0,1,,,,,,,,,1,,,82,53
45360,control_change,600,0,5,,,,,,,64,0,5,,,,
45360,note_on,0,0,5,,,,,,,,,5,,,27,53
45360,control_change,240,0,1,,,,,,,64,0,1,,,,
45400,control_change,40,0,5,,,,,,,64,127,5,,,,
45400,control_change,40,0,1,,,,,,,64,127,1,,,,
45400,control_change,40,0,3,,,,,,,64,127,3,,,,
45400,control_change,40,0,2,,,,,,,64,127,2,,,,
45400,control_change,40,0,4,,,,,,,64,127,4,,,,
45480,note_off,80,0,5,,,,,,,,,5,,,27,0
45480,note_off,80,0,4,,,,,,,,,4,,,39,0
45480,note_on,0,0,4,,,,,,,,,4,,,46,50
45600,note_off,0,0,2,,,,,,,,,2,,,79,0
45600,note_off,200,0,2,,,,,,,,,2,,,73,0
45600,note_on,0,0,4,,,,,,,,,4,,,51,47
45600,note_on,0,0,4,,,,,,,,,4,,,70,47
45600,note_off,120,0,4,,,,,,,,,4,,,46,0
45600,note_off,200,0,1,,,,,,,,,1,,,82,0
45720,note_off,120,0,4,,,,,,,,,4,,,51,0
45720,note_on,0,0,4,,,,,,,,,4,,,55,45
45840,note_on,240,0,1,,,,,,,,,1,,,73,42
45840,note_on,240,0,2,,,,,,,,,2,,,70,42
45840,note_off,120,0,4,,,,,,,,,4,,,55,0
45840,note_off,0,0,4,,,,,,,,,4,,,70,0
45840,note_on,0,0,4,,,,,,,,,4,,,61,42
45960,set_tempo,1320,1,0,,,,,,1428571,,,,,,,
46080,control_change,600,0,5,,,,,,,64,0,5,,,,
46080,set_tempo,120,1,0,,,,,,1363636,,,,,,,
46080,control_change,240,0,4,,,,,,,64,0,4,,,,
46080,note_off,0,0,4,,,,,,,,,4,,,61,0
46080,control_change,240,0,1,,,,,,,64,0,1,,,,
46080,control_change,240,0,2,,,,,,,64,0,2,,,,
46080,note_off,0,0,1,,,,,,,,,1,,,73,0
46080,note_on,0,0,5,,,,,,,,,5,,,32,45
46080,note_off,0,0,2,,,,,,,,,2,,,70,0
46080,control_change,680,0,3,,,,,,,64,0,3,,,,
46120,control_change,40,0,1,,,,,,,64,127,1,,,,
46120,control_change,40,0,5,,,,,,,64,127,5,,,,
46120,control_change,40,0,2,,,,,,,64,127,2,,,,
46120,control_change,40,0,4,,,,,,,64,127,4,,,,
46120,control_change,40,0,3,,,,,,,64,127,3,,,,
46200,note_off,80,0,5,,,,,,,,,5,,,32,0
46200,note_on,80,0,4,,,,,,,,,4,,,39,46
46320,note_off,120,0,4,,,,,,,,,4,,,39,0
46320,note_on,0,0,4,,,,,,,,,4,,,44,48
46320,note_on,200,0,2,,,,,,,,,2,,,60,48
46320,note_on,200,0,1,,,,,,,,,1,,,66,48
46320,note_on,0,0,2,,,,,,,,,2,,,63,48
46440,note_off,120,0,4,,,,,,,,,4,,,44,0
46440,note_on,0,0,4,,,,,,,,,4,,,48,50
46560,note_off,0,0,2,,,,,,,,,2,,,60,0
46560,note_off,120,0,4,,,,,,,,,4,,,48,0
46560,note_on,0,0,4,,,,,,,,,4,,,54,52
46560,note_off,240,0,2,,,,,,,,,2,,,63,0
46560,note_off,240,0,1,,,,,,,,,1,,,66,0
46800,note_on,0,0,2,,,,,,,,,2,,,63,56
46800,note_off,0,0,4,,,,,,,,,4,,,54,0
46800,note_on,0,0,5,,,,,,,,,5,,,32,56
46800,control_change,600,0,5,,,,,,,64,0,5,,,,
46800,control_change,240,0,4,,,,,,,64,0,4,,,,
46800,control_change,680,0,3,,,,,,,64,0,3,,,,
46800,note_on,0,0,2,,,,,,,,,2,,,59,56
46800,control_change,240,0,2,,,,,,,64,0,2,,,,
46800,control_change,240,0,1,,,,,,,64,0,1,,,,
46800,note_on,0,0,1,,,,,,,,,1,,,66,56
46840,control_change,40,0,5,,,,,,,64,127,5,,,,
46840,control_change,40,0,4,,,,,,,64,127,4,,,,
46840,control_change,40,0,3,,,,,,,64,127,3,,,,
46840,control_change,40,0,1,,,,,,,64,127,1,,,,
46840,control_change,40,0,2,,,,,,,64,127,2,,,,
46920,note_off,80,0,5,,,,,,,,,5,,,32,0
46920,note_on,80,0,4,,,,,,,,,4,,,39,55
47040,note_off,200,0,2,,,,,,,,,2,,,59,0
47040,note_on,0,0,4,,,,,,,,,4,,,54,53
47040,note_on,0,0,4,,,,,,,,,4,,,44,53
47040,note_off,120,0,4,,,,,,,,,4,,,39,0
47040,note_off,0,0,2,,,,,,,,,2,,,63,0
47040,note_off,200,0,1,,,,,,,,,1,,,66,0
47160,note_off,120,0,4,,,,,,,,,4,,,44,0
47160,note_on,0,0,4,,,,,,,,,4,,,47,51
47280,note_on,240,0,2,,,,,,,,,2,,,63,49
47280,note_on,240,0,1,,,,,,,,,1,,,64,49
47280,note_on,0,0,4,,,,,,,,,4,,,59,49
47280,note_off,120,0,4,,,,,,,,,4,,,47,0
47280,note_off,0,0,4,,,,,,,,,4,,,54,0
47400,set_tempo,1320,1,0,,,,,,1428571,,,,,,,
47520,control_change,240,0,4,,,,,,,64,0,4,,,,
47520,note_off,0,0,1,,,,,,,,,1,,,64,0
47520,control_change,240,0,1,,,,,,,64,0,1,,,,
47520,control_change,240,0,2,,,,,,,64,0,2,,,,
47520,note_off,0,0,2,,,,,,,,,2,,,63,0
47520,control_change,600,0,5,,,,,,,64,0,5,,,,
47520,control_change,680,0,3,,,,,,,64,0,3,,,,
47520,note_on,0,0,5,,,,,,,,,5,,,34,48
47520,note_off,0,0,4,,,,,,,,,4,,,59,0
47520,set_tempo,120,1,0,,,,,,1363636,,,,,,,
47560,control_change,40,0,2,,,,,,,64,127,2,,,,
47560,control_change,40,0,3,,,,,,,64,127,3,,,,
47560,control_change,40,0,5,,,,,,,64,127,5,,,,
47560,control_change,40,0,1,,,,,,,64,127,1,,,,
47560,control_change,40,0,4,,,,,,,64,127,4,,,,
47640,note_on,80,0,4,,,,,,,,,4,,,46,49
47640,note_off,80,0,5,,,,,,,,,5,,,34,0
47760,note_on,0,0,2,,,,,,,,,2,,,73,50
47760,note_on,0,0,2,,,,,,,,,2,,,76,50
47760,note_on,200,0,2,,,,,,,,,2,,,70,50
47760,note_on,0,0,4,,,,,,,,,4,,,49,50
47760,note_on,200,0,1,,,,,,,,,1,,,80,50
47760,note_off,120,0,4,,,,,,,,,4,,,46,0
47880,note_off,120,0,4,,,,,,,,,4,,,49,0
47880,note_on,0,0,4,,,,,,,,,4,,,52,51
48000,note_off,240,0,1,,,,,,,,,1,,,80,0
48000,note_on,0,0,4,,,,,,,,,4,,,68,53
48000,note_off,120,0,4,,,,,,,,,4,,,52,0
48000,note_off,240,0,2,,,,,,,,,2,,,73,0
48000,note_off,0,0,2,,,,,,,,,2,,,76,0
48000,note_off,0,0,2,,,,,,,,,2,,,70,0
48240,control_change,240,0,1,,,,,,,64,0,1,,,,
48240,note_on,0,0,1,,,,,,,,,1,,,77,56
48240,control_change,600,0,5,,,,,,,64,0,5,,,,
48240,note_on,0,0,5,,,,,,,,,5,,,31,56
48240,note_on,0,0,2,,,,,,,,,2,,,70,56
48240,note_off,0,0,4,,,,,,,,,4,,,68,0
48240,note_on,0,0,2,,,,,,,,,2,,,73,56
48240,control_change,240,0,2,,,,,,,64,0,2,,,,
48240,control_change,680,0,3,,,,,,,64,0,3,,,,
48240,control_change,240,0,4,,,,,,,64,0,4,,,,
48280,control_change,40,0,2,,,,,,,64,127,2,,,,
48280,control_change,40,0,1,,,,,,,64,127,1,,,,
48280,control_change,40,0,5,,,,,,,64,127,5,,,,
48280,control_change,40,0,4,,,,,,,64,127,4,,,,
48280,control_change,40,0,3,,,,,,,64,127,3,,,,
48360,note_off,80,0,5,,,,,,,,,5,,,31,0
48360,note_on,80,0,4,,,,,,,,,4,,,43,53
48480,note_on,0,0,4,,,,,,,,,4,,,46,50
48480,note_on,0,0,4,,,,,,,,,4,,,64,50
48480,note_off,200,0,1,,,,,,,,,1,,,77,0
48480,note_off,120,0,4,,,,,,,,,4,,,43,0
48480,note_off,0,0,2,,,,,,,,,2,,,70,0
48480,note_off,200,0,2,,,,,,,,,2,,,73,0
48600,note_on,0,0,4,,,,,,,,,4,,,51,47
48600,note_off,120,0,4,,,,,,,,,4,,,46,0
48720,note_on,240,0,1,,,,,,,,,1,,,75,44
48720,note_off,120,0,4,,,,,,,,,4,,,51,0
48720,note_off,0,0,4,,,,,,,,,4,,,64,0
48720,note_on,240,0,2,,,,,,,,,2,,,73,44
48720,note_on,0,0,4,,,,,,,,,4,,,70,44
48840,set_tempo,1320,1,0,,,,,,1428571,,,,,,,
48960,set_tempo,120,1,0,,,,,,1363636,,,,,,,
48960,note_on,0,0,5,,,,,,,,,5,,,32,42
48960,control_change,600,0,5,,,,,,,64,0,5,,,,
48960,control_change,240,0,2,,,,,,,64,0,2,,,,
48960,note_off,0,0,2,,,,,,,,,2,,,73,0
48960,control_change,240,0,1,,,,,,,64,0,1,,,,
48960,control_change,680,0,3,,,,,,,64,0,3,,,,
48960,note_off,0,0,1,,,,,,,,,1,,,75,0
48960,note_off,0,0,4,,,,,,,,,4,,,70,0
48960,control_change,240,0,4,,,,,,,64,0,4,,,,
49000,control_change,40,0,5,,,,,,,64,127,5,,,,
49000,control_change,40,0,1,,,,,,,64,127,1,,,,
49000,control_change,40,0,4,,,,,,,64,127,4,,,,
49000,control_change,40,0,3,,,,,,,64,127,3,,,,
49000,control_change,40,0,2,,,,,,,64,127,2,,,,
49080,note_off,80,0,5,,,,,,,,,5,,,32,0
49080,note_on,80,0,4,,,,,,,,,4,,,39,44
49200,note_on,200,0,1,,,,,,,,,1,,,62,45
49200,note_off,120,0,4,,,,,,,,,4,,,39,0
49200,note_on,0,0,4,,,,,,,,,4,,,44,45
49200,note_on,200,0,2,,,,,,,,,2,,,59,45
49320,note_off,120,0,4,,,,,,,,,4,,,44,0
49320,note_on,0,0,4,,,,,,,,,4,,,47,47
49440,note_off,240,0,1,,,,,,,,,1,,,62,0
49440,note_off,120,0,4,,,,,,,,,4,,,47,0
49440,note_on,0,0,4,,,,,,,,,4,,,53,48
49440,note_off,240,0,2,,,,,,,,,2,,,59,0
49680,control_change,240,0,4,,,,,,,64,0,4,,,,
49680,control_change,680,0,3,,,,,,,64,0,3,,,,
49680,note_off,0,0,4,,,,,,,,,4,,,53,0
49680,control_change,600,0,5,,,,,,,64,0,5,,,,
49680,control_change,240,0,2,,,,,,,64,0,2,,,,
49680,note_on,0,0,2,,,,,,,,,2,,,58,53
49680,note_on,0,0,1,,,,,,,,,1,,,63,53
49680,control_change,240,0,1,,,,,,,64,0,1,,,,
49680,note_on,0,0,5,,,,,,,,,5,,,30,53
49720,control_change,40,0,3,,,,,,,64,127,3,,,,
49720,control_change,40,0,1,,,,,,,64,127,1,,,,
49720,control_change,40,0,2,,,,,,,64,127,2,,,,
49720,control_change,40,0,4,,,,,,,64,127,4,,,,
49720,control_change,40,0,5,,,,,,,64,127,5,,,,
49800,note_off,80,0,5,,,,,,,,,5,,,30,0
49800,note_on,80,0,4,,,,,,,,,4,,,39,50
49920,note_off,200,0,1,,,,,,,,,1,,,63,0
49920,note_off,120,0,4,,,,,,,,,4,,,39,0
49920,note_off,200,0,2,,,,,,,,,2,,,58,0
49920,note_on,0,0,4,,,,,,,,,4,,,42,48
49920,note_on,0,0,4,,,,,,,,,4,,,51,48
50040,note_on,0,0,4,,,,,,,,,4,,,46,45
50040,note_off,120,0,4,,,,,,,,,4,,,42,0
50160,note_on,240,0,1,,,,,,,,,1,,,58,43
50160,note_off,0,0,4,,,,,,,,,4,,,51,0
50160,note_off,120,0,4,,,,,,,,,4,,,46,0
50160,note_on,0,0,4,,,,,,,,,4,,,54,43
50280,set_tempo,1320,1,0,,,,,,1428571,,,,,,,
50400,control_change,240,0,4,,,,,,,64,0,4,,,,
50400,note_on,0,0,1,,,,,,,,,1,,,58,42
50400,set_tempo,120,1,0,,,,,,1363636,,,,,,,
50400,note_off,0,0,4,,,,,,,,,4,,,54,0
50400,note_on,0,0,4,,,,,,,,,4,,,50,42
50400,control_change,240,0,1,,,,,,,64,0,1,,,,
50400,note_off,0,0,1,,,,,,,,,1,,,58,0
50400,note_on,0,0,2,,,,,,,,,2,,,62,42
50400,note_on,0,0,2,,,,,,,,,2,,,68,42
50400,control_change,480,0,2,,,,,,,64,0,2,,,,
50400,control_change,680,0,3,,,,,,,64,0,3,,,,
50400,control_change,600,0,5,,,,,,,64,0,5,,,,
50400,note_on,0,0,5,,,,,,,,,5,,,56,42
50400,note_on,0,0,5,,,,,,,,,5,,,46,42
50400,note_on,0,0,1,,,,,,,,,1,,,70,42
50640,note_on,240,0,2,,,,,,,,,2,,,66,41
50640,note_on,240,0,4,,,,,,,,,4,,,54,41
50880,note_off,240,0,4,,,,,,,,,4,,,54,0
50880,note_on,0,0,4,,,,,,,,,4,,,53,39
50880,note_on,0,0,2,,,,,,,,,2,,,65,39
50880,note_off,240,0,2,,,,,,,,,2,,,66,0
51000,set_tempo,600,1,0,,,,,,1428571,,,,,,,
51120,note_off,240,0,4,,,,,,,,,4,,,53,0
51120,note_off,0,0,4,,,,,,,,,4,,,50,0
51120,note_on,0,0,4,,,,,,,,,4,,,51,38
51120,note_on,0,0,1,,,,,,,,,1,,,70,38
51120,note_on,0,0,1,,,,,,,,,1,,,58,38
51120,note_off,0,0,5,,,,,,,,,5,,,56,0
51120,note_off,720,0,1,,,,,,,,,1,,,70,0
51120,note_on,0,0,5,,,,,,,,,5,,,46,38
51120,note_on,0,0,2,,,,,,,,,2,,,68,38
51120,note_on,0,0,2,,,,,,,,,2,,,63,38
51120,note_off,0,0,2,,,,,,,,,2,,,68,0
51120,note_off,0,0,2,,,,,,,,,2,,,62,0
51120,note_on,0,0,5,,,,,,,,,5,,,56,38
51120,note_off,720,0,5,,,,,,,,,5,,,46,0
51120,note_off,240,0,2,,,,,,,,,2,,,65,0
51120,note_off,0,0,1,,,,,,,,,1,,,58,0
51600,set_tempo,600,1,0,,,,,,2068965,,,,,,,
51600,note_off,480,0,2,,,,,,,,,2,,,68,0
51600,note_on,480,0,4,,,,,,,,,4,,,54,35
51600,note_off,480,0,5,,,,,,,,,5,,,56,0
51600,note_on,0,0,2,,,,,,,,,2,,,66,35
51840,control_change,240,0,4,,,,,,,64,0,4,,,,
51840,note_off,0,0,4,,,,,,,,,4,,,54,0
51840,note_off,0,0,4,,,,,,,,,4,,,51,0
51840,control_change,240,0,5,,,,,,,64,0,5,,,,
51840,note_off,0,0,5,,,,,,,,,5,,,46,0
51840,note_on,0,0,5,,,,,,,,,5,,,32,31
51840,control_change,240,0,2,,,,,,,64,0,2,,,,
51840,note_off,0,0,2,,,,,,,,,2,,,66,0
51840,note_off,0,0,2,,,,,,,,,2,,,63,0
51840,control_change,720,0,1,,,,,,,64,0,1,,,,
51840,set_tempo,240,1,0,,,,,,1363636,,,,,,,
51840,note_off,0,0,1,,,,,,,,,1,,,70,0
51840,note_off,0,0,1,,,,,,,,,1,,,58,0
51880,control_change,40,0,1,,,,,,,64,127,1,,,,
51880,control_change,40,0,2,,,,,,,64,127,2,,,,
51880,control_change,40,0,4,,,,,,,64,127,4,,,,
51880,control_change,40,0,5,,,,,,,64,127,5,,,,
51960,note_on,80,0,4,,,,,,,,,4,,,44,33
51960,note_off,80,0,5,,,,,,,,,5,,,32,0
52080,note_on,0,0,2,,,,,,,,,2,,,71,35
52080,note_on,200,0,2,,,,,,,,,2,,,68,35
52080,note_off,120,0,4,,,,,,,,,4,,,44,0
52080,note_on,0,0,4,,,,,,,,,4,,,47,35
52080,note_on,200,0,1,,,,,,,,,1,,,76,35
52200,note_off,120,0,4,,,,,,,,,4,,,47,0
52200,note_on,0,0,4,,,,,,,,,4,,,52,37
52320,note_off,240,0,1,,,,,,,,,1,,,76,0
52320,note_off,120,0,4,,,,,,,,,4,,,52,0
52320,note_on,0,0,4,,,,,,,,,4,,,64,38
52320,note_off,240,0,2,,,,,,,,,2,,,71,0
52320,note_off,0,0,2,,,,,,,,,2,,,68,0
52560,note_on,0,0,1,,,,,,,,,1,,,75,44
52560,control_change,240,0,1,,,,,,,64,0,1,,,,
52560,control_change,240,0,4,,,,,,,64,0,4,,,,
52560,control_change,600,0,5,,,,,,,64,0,5,,,,
52560,note_on,0,0,5,,,,,,,,,5,,,34,44
52560,note_off,0,0,4,,,,,,,,,4,,,64,0
52560,control_change,240,0,2,,,,,,,64,0,2,,,,
52560,note_on,0,0,2,,,,,,,,,2,,,66,44
52560,note_on,0,0,2,,,,,,,,,2,,,70,44
52600,control_change,40,0,4,,,,,,,64,127,4,,,,
52600,control_change,40,0,1,,,,,,,64,127,1,,,,
52600,control_change,40,0,5,,,,,,,64,127,5,,,,
52600,control_change,40,0,2,,,,,,,64,127,2,,,,
52680,note_off,80,0,5,,,,,,,,,5,,,34,0
52680,note_on,80,0,4,,,,,,,,,4,,,42,42
52800,note_off,200,0,1,,,,,,,,,1,,,75,0
52800,note_off,200,0,2,,,,,,,,,2,,,70,0
52800,note_off,0,0,2,,,,,,,,,2,,,66,0
52800,note_off,120,0,4,,,,,,,,,4,,,42,0
52800,note_on,0,0,4,,,,,,,,,4,,,46,39
52800,note_on,0,0,4,,,,,,,,,4,,,63,39
52920,note_off,120,0,4,,,,,,,,,4,,,46,0
52920,note_on,0,0,4,,,,,,,,,4,,,51,37
53040,note_off,0,0,4,,,,,,,,,4,,,63,0
53040,note_on,240,0,1,,,,,,,,,1,,,70,35
53040,note_on,0,0,4,,,,,,,,,4,,,66,35
53040,note_off,120,0,4,,,,,,,,,4,,,51,0
53160,set_tempo,1320,1,0,,,,,,1428571,,,,,,,
53280,control_change,600,0,5,,,,,,,64,0,5,,,,
53280,note_on,0,0,5,,,,,,,,,5,,,44,35
53280,control_change,480,0,2,,,,,,,64,0,2,,,,
53280,note_off,0,0,1,,,,,,,,,1,,,70,0
53280,control_change,240,0,1,,,,,,,64,0,1,,,,
53280,note_on,0,0,2,,,,,,,,,2,,,50,35
53280,note_on,0,0,2,,,,,,,,,2,,,56,35
53280,control_change,240,0,4,,,,,,,64,0,4,,,,
53280,note_off,0,0,4,,,,,,,,,4,,,66,0
53280,note_on,0,0,4,,,,,,,,,4,,,46,35
53280,note_on,0,0,1,,,,,,,,,1,,,58,35
53760,note_off,480,0,5,,,,,,,,,5,,,44,0
53760,note_on,0,0,5,,,,,,,,,5,,,42,32
53880,set_tempo,720,1,0,,,,,,1500000,,,,,,,
54000,note_on,0,0,4,,,,,,,,,4,,,46,31
54000,note_off,720,0,4,,,,,,,,,4,,,46,0
54000,note_off,720,0,2,,,,,,,,,2,,,50,0
54000,note_off,0,0,2,,,,,,,,,2,,,56,0
54000,note_on,0,0,2,,,,,,,,,2,,,56,31
54000,note_on,0,0,2,,,,,,,,,2,,,50,31
54000,note_on,0,0,1,,,,,,,,,1,,,58,31
54000,note_off,720,0,1,,,,,,,,,1,,,58,0
54240,note_on,0,0,5,,,,,,,,,5,,,41,29
54240,note_off,480,0,5,,,,,,,,,5,,,42,0
54600,set_tempo,720,1,0,,,,,,1578947,,,,,,,
54720,note_on,0,0,2,,,,,,,,,2,,,51,26
54720,note_off,0,0,2,,,,,,,,,2,,,56,0
54720,note_off,720,0,1,,,,,,,,,1,,,58,0
54720,note_off,720,0,2,,,,,,,,,2,,,50,0
54720,note_on,0,0,2,,,,,,,,,2,,,55,26
54720,note_on,0,0,1,,,,,,,,,1,,,63,26
54720,note_off,720,0,4,,,,,,,,,4,,,46,0
54720,note_off,480,0,5,,,,,,,,,5,,,41,0
54720,note_on,0,0,5,,,,,,,,,5,,,61,26
54720,note_on,0,0,5,,,,,,,,,5,,,39,26
54720,note_on,0,0,5,,,,,,,,,5,,,49,26
55200,note_off,480,0,1,,,,,,,,,1,,,63,0
55200,note_off,480,0,5,,,,,,,,,5,,,49,0
55200,note_on,0,0,5,,,,,,,,,5,,,59,23
55200,note_on,0,0,5,,,,,,,,,5,,,47,23
55320,set_tempo,720,1,0,,,,,,1666666,,,,,,,
55440,note_off,720,0,2,,,,,,,,,2,,,51,0
55440,note_off,0,0,2,,,,,,,,,2,,,55,0
55440,note_on,240,0,1,,,,,,,,,1,,,63,22
55440,note_on,0,0,2,,,,,,,,,2,,,51,22
55440,note_on,0,0,2,,,,,,,,,2,,,55,22
55440,note_off,0,0,5,,,,,,,,,5,,,61,0
55440,note_off,240,0,5,,,,,,,,,5,,,39,0
55440,note_on,0,0,5,,,,,,,,,5,,,39,22
55680,note_off,240,0,5,,,,,,,,,5,,,47,0
55680,set_tempo,360,1,0,,,,,,2727272,,,,,,,
55680,note_on,0,0,5,,,,,,,,,5,,,58,20
55680,note_off,0,0,5,,,,,,,,,5,,,59,0
55680,note_on,0,0,5,,,,,,,,,5,,,46,20
56118,note_off,438,0,5,,,,,,,,,5,,,46,0
56118,note_off,0,0,5,,,,,,,,,5,,,39,0
56118,note_off,678,0,2,,,,,,,,,2,,,55,0
56118,note_off,0,0,5,,,,,,,,,5,,,58,0
56120,note_on,2,0,5,,,,,,,,,5,,,39,30
56122,note_off,682,0,1,,,,,,,,,1,,,63,0
56126,note_off,8,0,2,,,,,,,,,2,,,51,0
56140,note_on,1420,0,4,,,,,,,,,4,,,46,30
56160,control_change,40,0,5,,,,,,,64,0,5,,,,
56160,control_change,38,0,1,,,,,,,64,0,1,,,,
56160,note_on,0,0,4,,,,,,,,,4,,,55,30
56160,note_on,0,0,1,,,,,,,,,1,,,63,30
56160,set_tempo,480,1,0,,,,,,1363636,,,,,,,
56160,control_change,20,0,4,,,,,,,64,0,4,,,,
56160,control_change,34,0,2,,,,,,,64,0,2,,,,
56160,note_on,0,0,2,,,,,,,,,2,,,67,30
56160,note_on,0,0,1,,,,,,,,,1,,,75,30
56200,control_change,40,0,1,,,,,,,64,127,1,,,,
56200,control_change,40,0,2,,,,,,,64,127,2,,,,
56200,control_change,40,0,5,,,,,,,64,127,5,,,,
56200,control_change,40,0,4,,,,,,,64,127,4,,,,
56400,note_off,200,0,2,,,,,,,,,2,,,67,0
56400,note_on,0,0,1,,,,,,,,,1,,,62,31
56400,note_on,0,0,1,,,,,,,,,1,,,74,31
56400,note_off,0,0,1,,,,,,,,,1,,,75,0
56400,note_off,200,0,1,,,,,,,,,1,,,63,0
56640,note_off,0,0,4,,,,,,,,,4,,,46,0
56640,note_on,0,0,2,,,,,,,,,2,,,79,32
56640,note_on,240,0,2,,,,,,,,,2,,,63,32
56640,note_on,0,0,1,,,,,,,,,1,,,60,32
56640,note_on,0,0,1,,,,,,,,,1,,,72,32
56640,note_off,0,0,1,,,,,,,,,1,,,74,0
56640,note_off,240,0,1,,,,,,,,,1,,,62,0
56640,note_on,0,0,2,,,,,,,,,2,,,75,32
56640,note_on,0,0,2,,,,,,,,,2,,,87,32
56640,note_off,440,0,5,,,,,,,,,5,,,39,0
56640,note_off,440,0,4,,,,,,,,,4,,,55,0
56880,note_off,0,0,2,,,,,,,,,2,,,63,0
56880,note_on,0,0,2,,,,,,,,,2,,,63,33
56880,note_on,0,0,2,,,,,,,,,2,,,79,33
56880,note_on,0,0,2,,,,,,,,,2,,,75,33
56880,note_on,0,0,2,,,,,,,,,2,,,87,33
56880,note_off,0,0,1,,,,,,,,,1,,,60,0
56880,note_off,0,0,1,,,,,,,,,1,,,72,0
56880,control_change,240,0,2,,,,,,,64,0,2,,,,
56880,note_on,0,0,1,,,,,,,,,1,,,70,33
56880,note_on,0,0,1,,,,,,,,,1,,,58,33
56880,note_off,0,0,2,,,,,,,,,2,,,79,0
56880,note_off,0,0,2,,,,,,,,,2,,,87,0
56880,note_off,0,0,2,,,,,,,,,2,,,75,0
56880,control_change,240,0,5,,,,,,,64,0,5,,,,
56880,control_change,240,0,4,,,,,,,64,0,4,,,,
56880,control_change,240,0,1,,,,,,,64,0,1,,,,
56920,control_change,40,0,1,,,,,,,64,127,1,,,,
56920,control_change,40,0,5,,,,,,,64,127,5,,,,
56920,control_change,40,0,4,,,,,,,64,127,4,,,,
56920,control_change,40,0,2,,,,,,,64,127,2,,,,
57360,note_off,0,0,2,,,,,,,,,2,,,79,0
57360,note_off,0,0,1,,,,,,,,,1,,,70,0
57360,note_off,440,0,1,,,,,,,,,1,,,58,0
57360,note_on,440,0,5,,,,,,,,,5,,,39,34
57360,note_off,0,0,2,,,,,,,,,2,,,63,0
57360,note_on,0,0,1,,,,,,,,,1,,,56,34
57360,note_off,0,0,2,,,,,,,,,2,,,75,0
57360,note_off,440,0,2,,,,,,,,,2,,,87,0
57360,note_on,440,0,4,,,,,,,,,4,,,46,34
57360,note_on,0,0,1,,,,,,,,,1,,,68,34
57480,note_off,0,0,1,,,,,,,,,1,,,68,0
57480,note_off,120,0,1,,,,,,,,,1,,,56,0
57480,note_on,0,0,1,,,,,,,,,1,,,67,35
57480,note_on,0,0,1,,,,,,,,,1,,,55,35
57600,control_change,120,0,1,,,,,,,64,0,1,,,,
57600,note_off,0,0,1,,,,,,,,,1,,,55,0
57600,note_on,0,0,1,,,,,,,,,1,,,53,37
57600,control_change,240,0,5,,,,,,,64,0,5,,,,
57600,note_off,0,0,1,,,,,,,,,1,,,67,0
57600,control_change,240,0,2,,,,,,,64,0,2,,,,
57600,note_on,0,0,5,,,,,,,,,5,,,39,37
57600,control_change,240,0,4,,,,,,,64,0,4,,,,
57600,note_off,0,0,4,,,,,,,,,4,,,46,0
57600,note_on,0,0,4,,,,,,,,,4,,,46,37
57600,note_on,0,0,1,,,,,,,,,1,,,65,37
57600,note_off,0,0,5,,,,,,,,,5,,,39,0
57640,control_change,40,0,4,,,,,,,64,127,4,,,,
57640,control_change,40,0,1,,,,,,,64,127,1,,,,
57640,control_change,40,0,5,,,,,,,64,127,5,,,,
57640,control_change,40,0,2,,,,,,,64,127,2,,,,
57840,note_off,200,0,5,,,,,,,,,5,,,39,0
57840,note_off,200,0,1,,,,,,,,,1,,,53,0
57840,note_on,0,0,1,,,,,,,,,1,,,51,34
57840,note_off,200,0,4,,,,,,,,,4,,,46,0
57840,note_on,0,0,1,,,,,,,,,1,,,63,34
57840,note_off,0,0,1,,,,,,,,,1,,,65,0
58080,note_off,240,0,1,,,,,,,,,1,,,51,0
58080,note_on,0,0,1,,,,,,,,,1,,,67,32
58080,note_off,0,0,1,,,,,,,,,1,,,63,0
58080,note_on,440,0,2,,,,,,,,,2,,,63,32
58080,note_on,0,0,2,,,,,,,,,2,,,75,32
58080,note_on,0,0,1,,,,,,,,,1,,,55,32
58080,note_on,0,0,2,,,,,,,,,2,,,79,32
58080,note_on,0,0,2,,,,,,,,,2,,,87,32
58320,control_change,480,0,4,,,,,,,64,0,4,,,,
58320,note_off,0,0,1,,,,,,,,,1,,,67,0
58320,note_on,0,0,1,,,,,,,,,1,,,70,29
58320,note_on,0,0,1,,,,,,,,,1,,,58,29
58320,control_change,480,0,5,,,,,,,64,0,5,,,,
58320,note_off,0,0,1,,,,,,,,,1,,,55,0
58320,control_change,240,0,2,,,,,,,64,0,2,,,,
58320,note_off,0,0,2,,,,,,,,,2,,,79,0
58320,note_off,0,0,2,,,,,,,,,2,,,75,0
58320,note_off,0,0,2,,,,,,,,,2,,,87,0
58320,note_off,0,0,2,,,,,,,,,2,,,63,0
58320,note_on,0,0,2,,,,,,,,,2,,,63,29
58320,note_on,0,0,2,,,,,,,,,2,,,87,29
58320,note_on,0,0,2,,,,,,,,,2,,,75,29
58320,note_on,0,0,2,,,,,,,,,2,,,79,29
58320,control_change,240,0,1,,,,,,,64,0,1,,,,
58360,control_change,40,0,4,,,,,,,64,127,4,,,,
58360,control_change,40,0,1,,,,,,,64,127,1,,,,
58360,control_change,40,0,5,,,,,,,64,127,5,,,,
58360,control_change,40,0,2,,,,,,,64,127,2,,,,
58680,set_tempo,2520,1,0,,,,,,1395348,,,,,,,
58800,note_off,440,0,2,,,,,,,,,2,,,79,0
58800,note_on,0,0,1,,,,,,,,,1,,,60,30
58800,note_on,0,0,1,,,,,,,,,1,,,72,30
58800,note_off,0,0,1,,,,,,,,,1,,,70,0
58800,note_off,440,0,1,,,,,,,,,1,,,58,0
58800,note_on,440,0,5,,,,,,,,,5,,,43,30
58800,note_on,440,0,4,,,,,,,,,4,,,51,30
58800,note_off,0,0,2,,,,,,,,,2,,,75,0
58800,set_tempo,120,1,0,,,,,,1363636,,,,,,,
58800,note_off,0,0,2,,,,,,,,,2,,,63,0
58800,note_off,0,0,2,,,,,,,,,2,,,87,0
58920,note_on,0,0,1,,,,,,,,,1,,,74,30
58920,set_tempo,120,1,0,,,,,,1395348,,,,,,,
58920,note_off,120,0,1,,,,,,,,,1,,,60,0
58920,note_off,0,0,1,,,,,,,,,1,,,72,0
58920,note_on,0,0,1,,,,,,,,,1,,,62,30
59040,note_on,0,0,5,,,,,,,,,5,,,43,30
59040,control_change,240,0,5,,,,,,,64,0,5,,,,
59040,note_on,0,0,2,,,,,,,,,2,,,70,30
59040,control_change,240,0,2,,,,,,,64,0,2,,,,
59040,note_on,0,0,4,,,,,,,,,4,,,51,30
59040,note_off,0,0,5,,,,,,,,,5,,,43,0
59040,note_off,0,0,1,,,,,,,,,1,,,62,0
59040,control_change,120,0,1,,,,,,,64,0,1,,,,
59040,control_change,240,0,4,,,,,,,64,0,4,,,,
59040,note_off,0,0,4,,,,,,,,,4,,,51,0
59040,set_tempo,120,1,0,,,,,,1363636,,,,,,,
59040,note_on,0,0,1,,,,,,,,,1,,,75,30
59040,note_on,0,0,1,,,,,,,,,1,,,63,30
59040,note_off,0,0,1,,,,,,,,,1,,,74,0
59080,control_change,40,0,5,,,,,,,64,127,5,,,,
59080,control_change,40,0,1,,,,,,,64,127,1,,,,
59080,control_change,40,0,2,,,,,,,64,127,2,,,,
59080,control_change,40,0,4,,,,,,,64,127,4,,,,
59280,note_off,200,0,1,,,,,,,,,1,,,75,0
59280,note_off,0,0,1,,,,,,,,,1,,,63,0
59280,note_on,0,0,1,,,,,,,,,1,,,74,31
59280,note_on,0,0,1,,,,,,,,,1,,,62,31
59280,note_off,200,0,2,,,,,,,,,2,,,70,0
59520,note_on,0,0,2,,,,,,,,,2,,,87,31
59520,note_on,240,0,2,,,,,,,,,2,,,63,31
59520,note_on,0,0,1,,,,,,,,,1,,,72,31
59520,note_off,440,0,4,,,,,,,,,4,,,51,0
59520,note_on,0,0,1,,,,,,,,,1,,,60,31
59520,note_on,0,0,2,,,,,,,,,2,,,79,31
59520,note_off,0,0,1,,,,,,,,,1,,,74,0
59520,note_off,440,0,5,,,,,,,,,5,,,43,0
59520,note_off,240,0,1,,,,,,,,,1,,,62,0
59520,note_on,0,0,2,,,,,,,,,2,,,75,31
59760,control_change,240,0,1,,,,,,,64,0,1,,,,
59760,control_change,240,0,2,,,,,,,64,0,2,,,,
59760,note_off,0,0,1,,,,,,,,,1,,,72,0
59760,note_off,0,0,2,,,,,,,,,2,,,75,0
59760,note_off,0,0,2,,,,,,,,,2,,,87,0
59760,note_on,0,0,2,,,,,,,,,2,,,63,32
59760,note_on,0,0,2,,,,,,,,,2,,,87,32
59760,note_on,0,0,2,,,,,,,,,2,,,75,32
59760,note_on,0,0,2,,,,,,,,,2,,,79,32
59760,control_change,240,0,4,,,,,,,64,0,4,,,,
59760,note_on,0,0,1,,,,,,,,,1,,,58,32
59760,note_on,0,0,1,,,,,,,,,1,,,70,32
59760,control_change,240,0,5,,,,,,,64,0,5,,,,
59760,note_off,0,0,2,,,,,,,,,2,,,79,0
59760,note_off,0,0,2,,,,,,,,,2,,,63,0
59760,note_off,0,0,1,,,,,,,,,1,,,60,0
59800,control_change,40,0,5,,,,,,,64,127,5,,,,
59800,control_change,40,0,1,,,,,,,64,127,1,,,,
59800,control_change,40,0,2,,,,,,,64,127,2,,,,
59800,control_change,40,0,4,,,,,,,64,127,4,,,,
60240,note_on,440,0,4,,,,,,,,,4,,,46,33
60240,note_off,0,0,2,,,,,,,,,2,,,87,0
60240,note_off,0,0,2,,,,,,,,,2,,,75,0
60240,note_off,440,0,2,,,,,,,,,2,,,79,0
60240,note_off,0,0,2,,,,,,,,,2,,,63,0
60240,note_on,0,0,1,,,,,,,,,1,,,56,33
60240,note_off,0,0,1,,,,,,,,,1,,,70,0
60240,note_on,0,0,1,,,,,,,,,1,,,68,33
60240,note_on,440,0,5,,,,,,,,,5,,,34,33
60240,note_off,440,0,1,,,,,,,,,1,,,58,0
60360,note_off,120,0,1,,,,,,,,,1,,,68,0
60360,note_off,0,0,1,,,,,,,,,1,,,56,0
60360,note_on,0,0,1,,,,,,,,,1,,,55,33
60360,note_on,0,0,1,,,,,,,,,1,,,67,33
60480,note_on,0,0,5,,,,,,,,,5,,,46,35
60480,note_off,0,0,5,,,,,,,,,5,,,34,0
60480,control_change,120,0,1,,,,,,,64,0,1,,,,
60480,note_off,0,0,1,,,,,,,,,1,,,67,0
60480,note_off,0,0,4,,,,,,,,,4,,,46,0
60480,note_on,0,0,4,,,,,,,,,4,,,51,35
60480,control_change,240,0,5,,,,,,,64,0,5,,,,
60480,control_change,240,0,4,,,,,,,64,0,4,,,,
60480,note_on,0,0,1,,,,,,,,,1,,,70,35
60480,note_on,0,0,4,,,,,,,,,4,,,55,35
60480,note_off,0,0,1,,,,,,,,,1,,,55,0
60480,control_change,240,0,2,,,,,,,64,0,2,,,,
60480,note_on,0,0,1,,,,,,,,,1,,,58,35
60520,control_change,40,0,2,,,,,,,64,127,2,,,,
60520,control_change,40,0,5,,,,,,,64,127,5,,,,
60520,control_change,40,0,4,,,,,,,64,127,4,,,,
60520,control_change,40,0,1,,,,,,,64,127,1,,,,
60720,note_on,0,0,1,,,,,,,,,1,,,63,31
60720,note_off,200,0,1,,,,,,,,,1,,,70,0
60920,note_on,200,0,1,,,,,,,,,1,,,67,29
60960,note_on,440,0,2,,,,,,,,,2,,,62,28
60960,note_on,0,0,4,,,,,,,,,4,,,46,28
60960,note_on,0,0,5,,,,,,,,,5,,,34,28
60960,note_on,0,0,1,,,,,,,,,1,,,65,28
60960,note_off,0,0,1,,,,,,,,,1,,,58,0
60960,note_off,40,0,1,,,,,,,,,1,,,63,0
60960,note_off,440,0,5,,,,,,,,,5,,,46,0
60960,note_off,0,0,4,,,,,,,,,4,,,51,0
60960,note_on,0,0,2,,,,,,,,,2,,,56,28
60960,note_off,440,0,4,,,,,,,,,4,,,55,0
60980,note_off,20,0,1,,,,,,,,,1,,,67,0
61200,note_on,0,0,1,,,,,,,,,1,,,63,25
61200,note_off,0,0,1,,,,,,,,,1,,,65,0
61200,control_change,220,0,1,,,,,,,64,0,1,,,,
61200,control_change,240,0,2,,,,,,,64,0,2,,,,
61200,note_on,0,0,4,,,,,,,,,4,,,46,25
61200,note_off,0,0,4,,,,,,,,,4,,,46,0
61200,control_change,240,0,4,,,,,,,64,0,4,,,,
61200,note_off,0,0,2,,,,,,,,,2,,,56,0
61200,note_on,0,0,5,,,,,,,,,5,,,39,25
61200,note_off,0,0,5,,,,,,,,,5,,,34,0
61200,control_change,240,0,5,,,,,,,64,0,5,,,,
61200,note_off,0,0,2,,,,,,,,,2,,,62,0
61200,note_on,0,0,2,,,,,,,,,2,,,55,25
61240,control_change,40,0,5,,,,,,,64,127,5,,,,
61240,control_change,40,0,4,,,,,,,64,127,4,,,,
61240,control_change,40,0,2,,,,,,,64,127,2,,,,
61240,control_change,40,0,1,,,,,,,64,127,1,,,,
61440,set_tempo,2400,1,0,,,,,,1395348,,,,,,,
61560,note_on,0,0,1,,,,,,,,,1,,,67,46
61560,set_tempo,120,1,0,,,,,,1363636,,,,,,,
61560,note_off,320,0,1,,,,,,,,,1,,,63,0
61680,note_on,0,0,5,,,,,,,,,5,,,39,48
61680,note_off,440,0,5,,,,,,,,,5,,,39,0
61680,note_off,120,0,1,,,,,,,,,1,,,67,0
61680,note_off,440,0,4,,,,,,,,,4,,,46,0
61680,note_on,0,0,1,,,,,,,,,1,,,70,48
61680,note_on,0,0,2,,,,,,,,,2,,,67,48
61680,note_off,440,0,2,,,,,,,,,2,,,55,0
61800,set_tempo,240,1,0,,,,,,1395348,,,,,,,
61800,note_off,120,0,1,,,,,,,,,1,,,70,0
61800,note_on,0,0,1,,,,,,,,,1,,,79,50
61920,control_change,120,0,1,,,,,,,64,0,1,,,,
61920,control_change,240,0,4,,,,,,,64,0,4,,,,
61920,note_on,0,0,4,,,,,,,,,4,,,60,53
61920,note_on,0,0,5,,,,,,,,,5,,,51,53
61920,note_off,0,0,1,,,,,,,,,1,,,79,0
61920,note_on,0,0,2,,,,,,,,,2,,,68,53
61920,control_change,240,0,5,,,,,,,64,0,5,,,,
61920,note_on,0,0,2,,,,,,,,,2,,,80,53
61920,note_on,0,0,1,,,,,,,,,1,,,77,53
61920,control_change,240,0,2,,,,,,,64,0,2,,,,
61920,set_tempo,120,1,0,,,,,,1363636,,,,,,,
61920,note_off,0,0,2,,,,,,,,,2,,,67,0
61920,note_off,0,0,5,,,,,,,,,5,,,39,0
61960,control_change,40,0,5,,,,,,,64,127,5,,,,
61960,control_change,40,0,2,,,,,,,64,127,2,,,,
61960,control_change,40,0,4,,,,,,,64,127,4,,,,
61960,control_change,40,0,1,,,,,,,64,127,1,,,,
62160,note_on,0,0,1,,,,,,,,,1,,,72,50
62160,note_off,200,0,1,,,,,,,,,1,,,77,0
62400,note_on,0,0,1,,,,,,,,,1,,,74,48
62400,note_on,0,0,5,,,,,,,,,5,,,51,48
62400,note_off,440,0,5,,,,,,,,,5,,,51,0
62400,note_on,0,0,4,,,,,,,,,4,,,56,48
62400,note_off,0,0,2,,,,,,,,,2,,,80,0
62400,note_on,0,0,2,,,,,,,,,2,,,65,48
62400,note_off,440,0,2,,,,,,,,,2,,,68,0
62400,note_on,0,0,2,,,,,,,,,2,,,77,48
62400,note_off,240,0,1,,,,,,,,,1,,,72,0
62400,note_off,440,0,4,,,,,,,,,4,,,60,0
62640,control_change,240,0,5,,,,,,,64,0,5,,,,
62640,control_change,240,0,2,,,,,,,64,0,2,,,,
62640,note_off,0,0,5,,,,,,,,,5,,,51,0
62640,note_off,0,0,2,,,,,,,,,2,,,77,0
62640,control_change,240,0,4,,,,,,,64,0,4,,,,
62640,control_change,240,0,1,,,,,,,64,0,1,,,,
62640,note_off,0,0,1,,,,,,,,,1,,,74,0
62640,note_on,0,0,1,,,,,,,,,1,,,79,45
62640,note_on,0,0,1,,,,,,,,,1,,,67,45
62640,note_off,0,0,2,,,,,,,,,2,,,65,0
62640,note_on,0,0,5,,,,,,,,,5,,,51,45
62640,note_off,0,0,4,,,,,,,,,4,,,56,0
62640,note_on,0,0,4,,,,,,,,,4,,,58,45
62680,control_change,40,0,2,,,,,,,64,127,2,,,,
62680,control_change,40,0,4,,,,,,,64,127,4,,,,
62680,control_change,40,0,5,,,,,,,64,127,5,,,,
62680,control_change,40,0,1,,,,,,,64,127,1,,,,
63000,note_on,320,0,2,,,,,,,,,2,,,75,51
63115,note_off,435,0,1,,,,,,,,,1,,,79,0
63120,note_on,0,0,1,,,,,,,,,1,,,70,52
63120,note_on,0,0,1,,,,,,,,,1,,,82,52
63120,note_off,5,0,1,,,,,,,,,1,,,67,0
63120,note_on,0,0,2,,,,,,,,,2,,,79,52
63120,note_off,120,0,2,,,,,,,,,2,,,75,0
63120,note_off,440,0,4,,,,,,,,,4,,,58,0
63120,note_off,440,0,5,,,,,,,,,5,,,51,0
63120,note_on,0,0,5,,,,,,,,,5,,,39,52
63240,note_off,120,0,2,,,,,,,,,2,,,79,0
63240,set_tempo,1320,1,0,,,,,,1395348,,,,,,,
63240,note_on,0,0,2,,,,,,,,,2,,,75,54
63360,note_off,0,0,5,,,,,,,,,5,,,39,0
63360,control_change,120,0,2,,,,,,,64,0,2,,,,
63360,set_tempo,120,1,0,,,,,,1363636,,,,,,,
63360,note_on,0,0,4,,,,,,,,,4,,,60,59
63360,control_change,240,0,5,,,,,,,64,0,5,,,,
63360,note_on,0,0,1,,,,,,,,,1,,,68,59
63360,note_off,0,0,2,,,,,,,,,2,,,75,0
63360,note_off,0,0,1,,,,,,,,,1,,,70,0
63360,note_off,0,0,1,,,,,,,,,1,,,82,0
63360,control_change,240,0,1,,,,,,,64,0,1,,,,
63360,note_on,0,0,1,,,,,,,,,1,,,80,59
63360,note_on,0,0,5,,,,,,,,,5,,,51,59
63360,control_change,240,0,4,,,,,,,64,0,4,,,,
63360,note_on,0,0,2,,,,,,,,,2,,,77,59
63400,control_change,40,0,1,,,,,,,64,127,1,,,,
63400,control_change,40,0,5,,,,,,,64,127,5,,,,
63400,control_change,40,0,2,,,,,,,64,127,2,,,,
63400,control_change,40,0,4,,,,,,,64,127,4,,,,
63480,note_on,0,0,2,,,,,,,,,2,,,75,58
63480,note_off,80,0,2,,,,,,,,,2,,,77,0
63600,note_on,0,0,2,,,,,,,,,2,,,77,56
63600,note_off,120,0,2,,,,,,,,,2,,,75,0
63720,note_off,120,0,2,,,,,,,,,2,,,77,0
63720,note_on,0,0,2,,,,,,,,,2,,,72,55
63840,note_off,440,0,4,,,,,,,,,4,,,60,0
63840,note_on,0,0,2,,,,,,,,,2,,,75,54
63840,note_off,120,0,2,,,,,,,,,2,,,72,0
63840,note_on,0,0,5,,,,,,,,,5,,,51,54
63840,note_on,0,0,4,,,,,,,,,4,,,56,54
63840,note_on,0,0,1,,,,,,,,,1,,,65,54
63840,note_on,0,0,1,,,,,,,,,1,,,77,54
63840,note_off,0,0,1,,,,,,,,,1,,,80,0
63840,note_off,440,0,5,,,,,,,,,5,,,51,0
63840,note_off,440,0,1,,,,,,,,,1,,,68,0
63960,note_off,120,0,2,,,,,,,,,2,,,75,0
63960,note_on,0,0,2,,,,,,,,,2,,,74,53
64080,note_on,0,0,5,,,,,,,,,5,,,51,51
64080,note_off,0,0,5,,,,,,,,,5,,,51,0
64080,control_change,240,0,5,,,,,,,64,0,5,,,,
64080,note_on,0,0,1,,,,,,,,,1,,,79,51
64080,note_on,0,0,1,,,,,,,,,1,,,67,51
64080,note_off,0,0,1,,,,,,,,,1,,,77,0
64080,note_off,0,0,1,,,,,,,,,1,,,65,0
64080,control_change,240,0,1,,,,,,,64,0,1,,,,
64080,control_change,120,0,2,,,,,,,64,0,2,,,,
64080,note_off,0,0,2,,,,,,,,,2,,,74,0
64080,note_on,0,0,4,,,,,,,,,4,,,58,51
64080,control_change,240,0,4,,,,,,,64,0,4,,,,
64080,note_off,0,0,4,,,,,,,,,4,,,56,0
64080,note_on,0,0,2,,,,,,,,,2,,,75,51
64120,control_change,40,0,2,,,,,,,64,127,2,,,,
64120,control_change,40,0,4,,,,,,,64,127,4,,,,
64120,control_change,40,0,1,,,,,,,64,127,1,,,,
64120,control_change,40,0,5,,,,,,,64,127,5,,,,
64200,note_off,80,0,2,,,,,,,,,2,,,75,0
64200,note_on,0,0,2,,,,,,,,,2,,,74,50
64320,note_off,120,0,2,,,,,,,,,2,,,74,0
64320,note_on,0,0,2,,,,,,,,,2,,,75,49
64440,note_off,120,0,2,,,,,,,,,2,,,75,0
64440,note_on,0,0,2,,,,,,,,,2,,,70,48
64560,note_on,0,0,5,,,,,,,,,5,,,51,52
64560,note_off,440,0,5,,,,,,,,,5,,,51,0
64560,note_on,0,0,5,,,,,,,,,5,,,39,52
64560,note_on,0,0,2,,,,,,,,,2,,,67,52
64560,note_off,440,0,1,,,,,,,,,1,,,79,0
64560,note_off,440,0,4,,,,,,,,,4,,,58,0
64560,note_on,0,0,2,,,,,,,,,2,,,72,52
64560,note_off,0,0,1,,,,,,,,,1,,,67,0
64560,note_on,0,0,1,,,,,,,,,1,,,63,52
64560,note_on,0,0,1,,,,,,,,,1,,,75,52
64560,note_off,120,0,2,,,,,,,,,2,,,70,0
64680,note_on,0,0,2,,,,,,,,,2,,,70,53
64680,note_off,120,0,2,,,,,,,,,2,,,72,0
64800,note_off,0,0,5,,,,,,,,,5,,,39,0
64800,note_on,0,0,5,,,,,,,,,5,,,46,53
64800,note_on,0,0,5,,,,,,,,,5,,,58,53
64800,control_change,240,0,4,,,,,,,64,0,4,,,,
64800,note_off,0,0,2,,,,,,,,,2,,,70,0
64800,control_change,120,0,2,,,,,,,64,0,2,,,,
64800,note_on,0,0,2,,,,,,,,,2,,,74,53
64800,note_off,0,0,5,,,,,,,,,5,,,51,0
64800,note_off,0,0,2,,,,,,,,,2,,,67,0
64800,control_change,240,0,1,,,,,,,64,0,1,,,,
64800,control_change,240,0,5,,,,,,,64,0,5,,,,
64800,note_off,0,0,1,,,,,,,,,1,,,63,0
64800,note_on,0,0,1,,,,,,,,,1,,,65,53
64800,note_off,0,0,1,,,,,,,,,1,,,75,0
64800,note_on,0,0,1,,,,,,,,,1,,,77,53
64840,control_change,40,0,5,,,,,,,64,127,5,,,,
64840,control_change,40,0,4,,,,,,,64,127,4,,,,
64840,control_change,40,0,2,,,,,,,64,127,2,,,,
64840,control_change,40,0,1,,,,,,,64,127,1,,,,
64920,note_off,80,0,2,,,,,,,,,2,,,74,0
64920,note_on,0,0,2,,,,,,,,,2,,,72,54
65040,note_on,0,0,2,,,,,,,,,2,,,74,55
65040,note_off,120,0,2,,,,,,,,,2,,,72,0
65040,note_off,200,0,5,,,,,,,,,5,,,58,0
65040,note_off,0,0,5,,,,,,,,,5,,,46,0
65040,note_on,0,0,5,,,,,,,,,5,,,57,55
65040,note_on,0,0,5,,,,,,,,,5,,,45,55
65160,note_on,0,0,2,,,,,,,,,2,,,70,55
65160,note_off,120,0,2,,,,,,,,,2,,,74,0
65280,control_change,440,0,1,,,,,,,64,0,1,,,,
65280,note_off,0,0,1,,,,,,,,,1,,,77,0
65280,note_off,0,0,5,,,,,,,,,5,,,57,0
65280,note_on,0,0,5,,,,,,,,,5,,,43,56
65280,note_on,0,0,5,,,,,,,,,5,,,55,56
65280,note_off,0,0,1,,,,,,,,,1,,,65,0
65280,control_change,440,0,4,,,,,,,64,0,4,,,,
65280,note_on,0,0,1,,,,,,,,,1,,,63,56
65280,note_on,0,0,1,,,,,,,,,1,,,75,56
65280,note_off,0,0,5,,,,,,,,,5,,,45,0
65280,note_on,0,0,4,,,,,,,,,4,,,46,56
65280,control_change,240,0,5,,,,,,,64,0,5,,,,
65280,control_change,120,0,2,,,,,,,64,0,2,,,,
65280,note_off,0,0,2,,,,,,,,,2,,,70,0
65280,note_on,0,0,2,,,,,,,,,2,,,72,56
65320,control_change,40,0,4,,,,,,,64,127,4,,,,
65320,control_change,40,0,1,,,,,,,64,127,1,,,,
65320,control_change,40,0,2,,,,,,,64,127,2,,,,
65320,control_change,40,0,5,,,,,,,64,127,5,,,,
65400,note_off,80,0,2,,,,,,,,,2,,,72,0
65400,note_on,0,0,2,,,,,,,,,2,,,70,57
65520,note_off,0,0,1,,,,,,,,,1,,,75,0
65520,control_change,200,0,4,,,,,,,64,0,4,,,,
65520,note_on,0,0,5,,,,,,,,,5,,,41,57
65520,note_off,0,0,5,,,,,,,,,5,,,43,0
65520,note_off,0,0,5,,,,,,,,,5,,,55,0
65520,control_change,200,0,5,,,,,,,64,0,5,,,,
65520,note_on,0,0,5,,,,,,,,,5,,,53,57
65520,note_off,0,0,2,,,,,,,,,2,,,70,0
65520,note_on,0,0,2,,,,,,,,,2,,,74,57
65520,note_off,0,0,4,,,,,,,,,4,,,46,0
65520,control_change,120,0,2,,,,,,,64,0,2,,,,
65520,note_on,0,0,1,,,,,,,,,1,,,65,57
65520,note_on,0,0,1,,,,,,,,,1,,,77,57
65520,control_change,200,0,1,,,,,,,64,0,1,,,,
65520,note_off,0,0,1,,,,,,,,,1,,,63,0
65520,note_on,0,0,4,,,,,,,,,4,,,46,57
65560,control_change,40,0,2,,,,,,,64,127,2,,,,
65560,control_change,40,0,5,,,,,,,64,127,5,,,,
65560,control_change,40,0,4,,,,,,,64,127,4,,,,
65560,control_change,40,0,1,,,,,,,64,127,1,,,,
65640,note_off,80,0,2,,,,,,,,,2,,,74,0
65640,note_on,0,0,2,,,,,,,,,2,,,72,58
65760,note_off,120,0,2,,,,,,,,,2,,,72,0
65760,note_on,0,0,2,,,,,,,,,2,,,74,59
65880,note_off,120,0,2,,,,,,,,,2,,,74,0
65880,note_on,0,0,2,,,,,,,,,2,,,70,59
66000,note_on,0,0,1,,,,,,,,,1,,,69,60
66000,note_off,0,0,1,,,,,,,,,1,,,77,0
66000,note_off,0,0,1,,,,,,,,,1,,,65,0
66000,control_change,440,0,4,,,,,,,64,0,4,,,,
66000,control_change,440,0,1,,,,,,,64,0,1,,,,
66000,control_change,120,0,2,,,,,,,64,0,2,,,,
66000,note_off,0,0,2,,,,,,,,,2,,,70,0
66000,note_on,0,0,2,,,,,,,,,2,,,77,60
66000,note_off,0,0,5,,,,,,,,,5,,,53,0
66000,note_off,0,0,5,,,,,,,,,5,,,41,0
66000,note_on,0,0,5,,,,,,,,,5,,,51,60
66000,note_on,0,0,5,,,,,,,,,5,,,39,60
66000,note_off,0,0,4,,,,,,,,,4,,,46,0
66000,note_on,0,0,1,,,,,,,,,1,,,81,60
66000,control_change,440,0,5,,,,,,,64,0,5,,,,
66040,control_change,40,0,1,,,,,,,64,127,1,,,,
66040,control_change,40,0,4,,,,,,,64,127,4,,,,
66040,control_change,40,0,2,,,,,,,64,127,2,,,,
66120,note_on,80,0,2,,,,,,,,,2,,,70,61
66120,note_on,0,0,5,,,,,,,,,5,,,38,61
66120,note_on,0,0,5,,,,,,,,,5,,,50,61
66120,note_off,0,0,5,,,,,,,,,5,,,51,0
66120,note_off,120,0,5,,,,,,,,,5,,,39,0
66240,note_on,0,0,5,,,,,,,,,5,,,41,61
66240,note_off,0,0,5,,,,,,,,,5,,,50,0
66240,note_off,0,0,5,,,,,,,,,5,,,38,0
66240,control_change,120,0,5,,,,,,,64,0,5,,,,
66240,control_change,200,0,4,,,,,,,64,0,4,,,,
66240,note_on,0,0,5,,,,,,,,,5,,,53,61
66240,control_change,120,0,2,,,,,,,64,0,2,,,,
66240,note_on,0,0,1,,,,,,,,,1,,,67,61
66240,note_off,0,0,1,,,,,,,,,1,,,69,0
66240,note_off,0,0,1,,,,,,,,,1,,,81,0
66240,control_change,200,0,1,,,,,,,64,0,1,,,,
66240,note_off,0,0,2,,,,,,,,,2,,,70,0
66240,note_on,0,0,1,,,,,,,,,1,,,79,61
66240,note_off,0,0,2,,,,,,,,,2,,,77,0
66240,note_on,0,0,2,,,,,,,,,2,,,70,61
66240,note_on,0,0,2,,,,,,,,,2,,,75,61
66280,control_change,40,0,5,,,,,,,64,127,5,,,,
66280,control_change,40,0,1,,,,,,,64,127,1,,,,
66280,control_change,40,0,2,,,,,,,64,127,2,,,,
66280,control_change,40,0,4,,,,,,,64,127,4,,,,
66360,note_off,80,0,2,,,,,,,,,2,,,70,0
66360,note_on,0,0,2,,,,,,,,,2,,,67,62
66480,note_off,0,0,2,,,,,,,,,2,,,75,0
66480,note_on,0,0,1,,,,,,,,,1,,,77,62
66480,note_off,0,0,1,,,,,,,,,1,,,67,0
66480,note_off,200,0,1,,,,,,,,,1,,,79,0
66480,note_on,0,0,2,,,,,,,,,2,,,74,62
66480,note_on,0,0,2,,,,,,,,,2,,,69,62
66480,note_off,120,0,2,,,,,,,,,2,,,67,0
66600,note_off,120,0,2,,,,,,,,,2,,,69,0
66600,note_on,0,0,2,,,,,,,,,2,,,65,63
66720,note_on,0,0,2,,,,,,,,,2,,,67,64
66720,note_off,0,0,2,,,,,,,,,2,,,74,0
66720,note_off,0,0,2,,,,,,,,,2,,,65,0
66720,control_change,120,0,2,,,,,,,64,0,2,,,,
66720,note_on,0,0,2,,,,,,,,,2,,,72,64
66720,control_change,440,0,4,,,,,,,64,0,4,,,,
66720,note_on,0,0,1,,,,,,,,,1,,,75,64
66720,note_off,0,0,1,,,,,,,,,1,,,77,0
66720,control_change,240,0,1,,,,,,,64,0,1,,,,
66720,note_on,0,0,5,,,,,,,,,5,,,34,64
66720,control_change,440,0,5,,,,,,,64,0,5,,,,
66720,note_off,0,0,5,,,,,,,,,5,,,53,0
66720,note_on,0,0,5,,,,,,,,,5,,,46,64
66720,note_off,0,0,5,,,,,,,,,5,,,41,0
66760,control_change,40,0,5,,,,,,,64,127,5,,,,
66760,control_change,40,0,2,,,,,,,64,127,2,,,,
66760,control_change,40,0,4,,,,,,,64,127,4,,,,
66760,control_change,40,0,1,,,,,,,64,127,1,,,,
66840,note_off,0,0,2,,,,,,,,,2,,,67,0
66840,note_off,80,0,2,,,,,,,,,2,,,72,0
66840,note_off,80,0,1,,,,,,,,,1,,,75,0
66840,note_on,0,0,2,,,,,,,,,2,,,70,64
66840,note_on,0,0,1,,,,,,,,,1,,,74,64
66840,note_on,0,0,2,,,,,,,,,2,,,65,64
66900,set_tempo,3540,1,0,,,,,,1395348,,,,,,,
66960,control_change,200,0,5,,,,,,,64,0,5,,,,
66960,note_off,0,0,5,,,,,,,,,5,,,46,0
66960,note_off,0,0,5,,,,,,,,,5,,,34,0
66960,note_on,0,0,2,,,,,,,,,2,,,63,67
66960,note_off,0,0,2,,,,,,,,,2,,,70,0
66960,note_off,0,0,2,,,,,,,,,2,,,65,0
66960,note_on,0,0,2,,,,,,,,,2,,,68,67
66960,note_on,0,0,5,,,,,,,,,5,,,46,67
66960,control_change,200,0,4,,,,,,,64,0,4,,,,
66960,note_on,0,0,1,,,,,,,,,1,,,72,67
66960,note_off,0,0,1,,,,,,,,,1,,,74,0
66960,control_change,120,0,1,,,,,,,64,0,1,,,,
66960,control_change,120,0,2,,,,,,,64,0,2,,,,
66960,note_on,0,0,5,,,,,,,,,5,,,34,67
67000,control_change,40,0,4,,,,,,,64,127,4,,,,
67000,control_change,40,0,1,,,,,,,64,127,1,,,,
67000,control_change,40,0,5,,,,,,,64,127,5,,,,
67000,control_change,40,0,2,,,,,,,64,127,2,,,,
67080,note_off,80,0,2,,,,,,,,,2,,,63,0
67080,note_on,0,0,2,,,,,,,,,2,,,60,61
67200,note_off,120,0,2,,,,,,,,,2,,,60,0
67200,note_off,0,0,2,,,,,,,,,2,,,68,0
67200,note_on,0,0,2,,,,,,,,,2,,,62,56
67200,note_on,0,0,2,,,,,,,,,2,,,67,56
67200,note_on,0,0,1,,,,,,,,,1,,,70,56
67200,note_off,200,0,1,,,,,,,,,1,,,72,0
67320,note_on,120,0,2,,,,,,,,,2,,,58,51
67340,set_tempo,440,1,0,,,,,,1428571,,,,,,,
67440,note_off,0,0,5,,,,,,,,,5,,,46,0
67440,control_change,440,0,5,,,,,,,64,0,5,,,,
67440,note_on,0,0,2,,,,,,,,,2,,,68,45
67440,note_on,0,0,1,,,,,,,,,1,,,70,45
67440,note_off,0,0,1,,,,,,,,,1,,,70,0
67440,control_change,240,0,1,,,,,,,64,0,1,,,,
67440,note_on,0,0,2,,,,,,,,,2,,,60,45
67440,note_on,0,0,2,,,,,,,,,2,,,63,45
67440,note_off,0,0,2,,,,,,,,,2,,,62,0
67440,control_change,440,0,4,,,,,,,64,0,4,,,,
67440,note_off,0,0,2,,,,,,,,,2,,,58,0
67440,control_change,120,0,2,,,,,,,64,0,2,,,,
67440,note_on,0,0,5,,,,,,,,,5,,,46,45
67440,note_off,0,0,5,,,,,,,,,5,,,34,0
67440,note_off,0,0,2,,,,,,,,,2,,,67,0
67480,control_change,40,0,4,,,,,,,64,127,4,,,,
67480,control_change,40,0,5,,,,,,,64,127,5,,,,
67480,control_change,40,0,1,,,,,,,64,127,1,,,,
67480,control_change,40,0,2,,,,,,,64,127,2,,,,
67500,set_tempo,160,1,0,,,,,,1500000,,,,,,,
67560,note_off,80,0,2,,,,,,,,,2,,,60,0
67560,set_tempo,60,1,0,,,,,,2727272,,,,,,,
67560,note_off,0,0,2,,,,,,,,,2,,,63,0
67560,note_on,80,0,4,,,,,,,,,4,,,56,38
67560,note_on,0,0,2,,,,,,,,,2,,,65,38
67560,note_on,0,0,2,,,,,,,,,2,,,62,38
67638,note_off,78,0,2,,,,,,,,,2,,,62,0
67638,note_off,78,0,4,,,,,,,,,4,,,56,0
67638,note_off,0,0,2,,,,,,,,,2,,,68,0
67640,note_on,160,0,5,,,,,,,,,5,,,39,40
67642,note_off,162,0,1,,,,,,,,,1,,,70,0
67642,note_off,2,0,5,,,,,,,,,5,,,46,0
67646,note_off,8,0,2,,,,,,,,,2,,,65,0
67680,control_change,34,0,2,,,,,,,64,0,2,,,,
67680,note_on,0,0,4,,,,,,,,,4,,,55,40
67680,control_change,0,0,4,,,,,,,64,0,4,,,,
67680,control_change,42,0,4,,,,,,,64,0,4,,,,
67680,control_change,0,0,2,,,,,,,64,0,2,,,,
67680,set_tempo,120,1,0,,,,,,1363636,,,,,,,
67680,note_on,0,0,2,,,,,,,,,2,,,63,40
67680,control_change,0,0,5,,,,,,,64,0,5,,,,
67680,control_change,38,0,5,,,,,,,64,0,5,,,,
67680,control_change,38,0,1,,,,,,,64,0,1,,,,
67680,note_on,0,0,1,,,,,,,,,1,,,75,40
67680,control_change,0,0,1,,,,,,,64,0,1,,,,
67720,control_change,40,0,2,,,,,,,64,127,2,,,,
67720,control_change,40,0,1,,,,,,,64,127,1,,,,
67720,control_change,0,0,2,,,,,,,64,127,2,,,,
67720,control_change,0,0,5,,,,,,,64,127,5,,,,
67720,control_change,0,0,4,,,,,,,64,127,4,,,,
67720,control_change,40,0,4,,,,,,,64,127,4,,,,
67720,control_change,40,0,5,,,,,,,64,127,5,,,,
67720,control_change,0,0,1,,,,,,,64,127,1,,,,
67920,note_on,200,0,1,,,,,,,,,1,,,74,40
68160,note_on,0,0,5,,,,,,,,,5,,,51,41
68160,note_off,240,0,1,,,,,,,,,1,,,74,0
68160,note_off,0,0,1,,,,,,,,,1,,,75,0
68160,note_on,0,0,1,,,,,,,,,1,,,72,41
68160,note_off,440,0,2,,,,,,,,,2,,,63,0
68160,note_off,440,0,5,,,,,,,,,5,,,39,0
68160,note_on,0,0,2,,,,,,,,,2,,,75,41
68160,note_on,0,0,2,,,,,,,,,2,,,63,41
68160,note_on,0,0,4,,,,,,,,,4,,,55,41
68160,note_off,440,0,4,,,,,,,,,4,,,55,0
68400,note_on,0,0,4,,,,,,,,,4,,,55,42
68400,note_off,0,0,4,,,,,,,,,4,,,55,0
68400,control_change,240,0,4,,,,,,,64,0,4,,,,
68400,control_change,240,0,2,,,,,,,64,0,2,,,,
68400,note_off,0,0,2,,,,,,,,,2,,,63,0
68400,note_off,0,0,2,,,,,,,,,2,,,75,0
68400,note_on,0,0,2,,,,,,,,,2,,,75,42
68400,note_on,0,0,2,,,,,,,,,2,,,63,42
68400,control_change,240,0,5,,,,,,,64,0,5,,,,
68400,note_off,0,0,1,,,,,,,,,1,,,72,0
68400,note_on,0,0,1,,,,,,,,,1,,,70,42
68400,control_change,240,0,1,,,,,,,64,0,1,,,,
68400,note_off,0,0,5,,,,,,,,,5,,,51,0
68400,note_on,0,0,5,,,,,,,,,5,,,51,42
68440,control_change,40,0,2,,,,,,,64,127,2,,,,
68440,control_change,40,0,4,,,,,,,64,127,4,,,,
68440,control_change,40,0,5,,,,,,,64,127,5,,,,
68440,control_change,40,0,1,,,,,,,64,127,1,,,,
68880,note_on,0,0,1,,,,,,,,,1,,,68,44
68880,note_on,0,0,2,,,,,,,,,2,,,75,44
68880,note_off,440,0,5,,,,,,,,,5,,,51,0
68880,note_on,0,0,5,,,,,,,,,5,,,39,44
68880,note_off,440,0,1,,,,,,,,,1,,,70,0
68880,note_off,440,0,2,,,,,,,,,2,,,63,0
68880,note_off,0,0,2,,,,,,,,,2,,,75,0
68880,note_off,440,0,4,,,,,,,,,4,,,55,0
68880,note_on,0,0,2,,,,,,,,,2,,,63,44
69000,note_off,120,0,1,,,,,,,,,1,,,68,0
69000,note_on,0,0,1,,,,,,,,,1,,,67,44
69120,control_change,240,0,5,,,,,,,64,0,5,,,,
69120,note_off,0,0,5,,,,,,,,,5,,,39,0
69120,note_on,0,0,5,,,,,,,,,5,,,51,47
69120,note_on,0,0,2,,,,,,,,,2,,,75,47
69120,note_off,0,0,2,,,,,,,,,2,,,63,0
69120,note_off,0,0,2,,,,,,,,,2,,,75,0
69120,note_on,0,0,1,,,,,,,,,1,,,65,47
69120,note_off,0,0,1,,,,,,,,,1,,,67,0
69120,control_change,120,0,1,,,,,,,64,0,1,,,,
69120,control_change,240,0,4,,,,,,,64,0,4,,,,
69120,control_change,240,0,2,,,,,,,64,0,2,,,,
69120,note_on,0,0,4,,,,,,,,,4,,,55,47
69160,control_change,40,0,2,,,,,,,64,127,2,,,,
69160,control_change,40,0,5,,,,,,,64,127,5,,,,
69160,control_change,40,0,1,,,,,,,64,127,1,,,,
69160,control_change,40,0,4,,,,,,,64,127,4,,,,
69360,note_off,200,0,1,,,,,,,,,1,,,65,0
69360,note_on,0,0,1,,,,,,,,,1,,,63,44
69600,note_off,440,0,2,,,,,,,,,2,,,75,0
69600,note_off,240,0,1,,,,,,,,,1,,,63,0
69600,note_on,0,0,1,,,,,,,,,1,,,67,41
69600,note_on,0,0,2,,,,,,,,,2,,,75,41
69600,note_off,440,0,5,,,,,,,,,5,,,51,0
69600,note_on,0,0,5,,,,,,,,,5,,,51,41
69600,note_off,440,0,4,,,,,,,,,4,,,55,0
69600,note_on,0,0,4,,,,,,,,,4,,,55,41
69840,control_change,240,0,2,,,,,,,64,0,2,,,,
69840,note_off,0,0,2,,,,,,,,,2,,,75,0
69840,note_on,0,0,2,,,,,,,,,2,,,63,36
69840,note_on,0,0,2,,,,,,,,,2,,,75,36
69840,note_off,0,0,4,,,,,,,,,4,,,55,0
69840,control_change,240,0,4,,,,,,,64,0,4,,,,
69840,note_on,0,0,4,,,,,,,,,4,,,55,36
69840,note_off,0,0,5,,,,,,,,,5,,,51,0
69840,control_change,240,0,5,,,,,,,64,0,5,,,,
69840,note_on,0,0,1,,,,,,,,,1,,,70,36
69840,note_off,0,0,1,,,,,,,,,1,,,67,0
69840,control_change,240,0,1,,,,,,,64,0,1,,,,
69840,note_on,0,0,5,,,,,,,,,5,,,51,36
69880,control_change,40,0,2,,,,,,,64,127,2,,,,
69880,control_change,40,0,4,,,,,,,64,127,4,,,,
69880,control_change,40,0,1,,,,,,,64,127,1,,,,
69880,control_change,40,0,5,,,,,,,64,127,5,,,,
70200,set_tempo,2520,1,0,,,,,,1395348,,,,,,,
70320,note_off,0,0,5,,,,,,,,,5,,,51,0
70320,note_off,0,0,1,,,,,,,,,1,,,70,0
70320,note_on,0,0,1,,,,,,,,,1,,,72,43
70320,control_change,440,0,4,,,,,,,64,0,4,,,,
70320,note_off,0,0,4,,,,,,,,,4,,,55,0
70320,set_tempo,120,1,0,,,,,,1363636,,,,,,,
70320,note_on,0,0,5,,,,,,,,,5,,,36,43
70320,control_change,440,0,1,,,,,,,64,0,1,,,,
70320,control_change,440,0,5,,,,,,,64,0,5,,,,
70320,note_on,0,0,2,,,,,,,,,2,,,75,43
70320,note_on,0,0,2,,,,,,,,,2,,,63,43
70320,note_off,0,0,2,,,,,,,,,2,,,63,0
70320,control_change,440,0,2,,,,,,,64,0,2,,,,
70320,note_off,0,0,2,,,,,,,,,2,,,75,0
70360,control_change,40,0,2,,,,,,,64,127,2,,,,
70360,control_change,40,0,4,,,,,,,64,127,4,,,,
70360,control_change,40,0,5,,,,,,,64,127,5,,,,
70360,control_change,40,0,1,,,,,,,64,127,1,,,,
70440,note_off,80,0,1,,,,,,,,,1,,,72,0
70440,note_on,0,0,1,,,,,,,,,1,,,74,43
70440,set_tempo,120,1,0,,,,,,1395348,,,,,,,
70560,note_off,0,0,5,,,,,,,,,5,,,36,0
70560,set_tempo,120,1,0,,,,,,1363636,,,,,,,
70560,note_on,0,0,5,,,,,,,,,5,,,48,44
70560,control_change,200,0,5,,,,,,,64,0,5,,,,
70560,note_on,0,0,1,,,,,,,,,1,,,75,46
70560,note_on,0,0,4,,,,,,,,,4,,,55,44
70560,note_off,0,0,1,,,,,,,,,1,,,74,0
70560,control_change,120,0,1,,,,,,,64,0,1,,,,
70560,note_on,0,0,2,,,,,,,,,2,,,63,44
70560,note_off,0,0,2,,,,,,,,,2,,,63,0
70560,note_off,0,0,2,,,,,,,,,2,,,75,0
70560,control_change,200,0,2,,,,,,,64,0,2,,,,
70560,control_change,200,0,4,,,,,,,64,0,4,,,,
70600,control_change,40,0,2,,,,,,,64,127,2,,,,
70600,control_change,40,0,5,,,,,,,64,127,5,,,,
70600,control_change,40,0,1,,,,,,,64,127,1,,,,
70600,control_change,40,0,4,,,,,,,64,127,4,,,,
70800,note_on,200,0,1,,,,,,,,,1,,,74,44
71040,note_off,240,0,1,,,,,,,,,1,,,74,0
71040,note_on,0,0,4,,,,,,,,,4,,,55,45
71040,note_off,0,0,1,,,,,,,,,1,,,75,0
71040,note_off,440,0,5,,,,,,,,,5,,,48,0
71040,note_on,0,0,5,,,,,,,,,5,,,48,45
71040,note_on,0,0,1,,,,,,,,,1,,,72,45
71040,note_on,0,0,2,,,,,,,,,2,,,63,45
71040,note_off,440,0,2,,,,,,,,,2,,,63,0
71040,note_off,440,0,4,,,,,,,,,4,,,55,0
71040,note_on,0,0,2,,,,,,,,,2,,,75,45
71280,control_change,240,0,1,,,,,,,64,0,1,,,,
71280,note_off,0,0,2,,,,,,,,,2,,,75,0
71280,note_on,0,0,2,,,,,,,,,2,,,75,46
71280,note_on,0,0,4,,,,,,,,,4,,,55,46
71280,note_off,0,0,4,,,,,,,,,4,,,55,0
71280,control_change,240,0,4,,,,,,,64,0,4,,,,
71280,control_change,240,0,2,,,,,,,64,0,2,,,,
71280,note_off,0,0,2,,,,,,,,,2,,,63,0
71280,note_on,0,0,1,,,,,,,,,1,,,70,46
71280,note_on,0,0,2,,,,,,,,,2,,,63,46
71280,note_off,0,0,1,,,,,,,,,1,,,72,0
71280,control_change,240,0,5,,,,,,,64,0,5,,,,
71280,note_off,0,0,5,,,,,,,,,5,,,48,0
71280,note_on,0,0,5,,,,,,,,,5,,,48,46
71320,control_change,40,0,1,,,,,,,64,127,1,,,,
71320,control_change,40,0,4,,,,,,,64,127,4,,,,
71320,control_change,40,0,2,,,,,,,64,127,2,,,,
71320,control_change,40,0,5,,,,,,,64,127,5,,,,
71760,control_change,440,0,1,,,,,,,64,0,1,,,,
71760,note_off,0,0,1,,,,,,,,,1,,,70,0
71760,note_on,0,0,1,,,,,,,,,1,,,69,48
71760,note_on,0,0,2,,,,,,,,,2,,,75,48
71760,note_off,0,0,4,,,,,,,,,4,,,55,0
71760,control_change,440,0,4,,,,,,,64,0,4,,,,
71760,note_on,0,0,2,,,,,,,,,2,,,63,48
71760,control_change,440,0,2,,,,,,,64,0,2,,,,
71760,note_off,0,0,2,,,,,,,,,2,,,63,0
71760,note_off,0,0,2,,,,,,,,,2,,,75,0
71760,note_on,0,0,5,,,,,,,,,5,,,38,48
71760,note_off,0,0,5,,,,,,,,,5,,,48,0
71760,control_change,440,0,5,,,,,,,64,0,5,,,,
71800,control_change,40,0,5,,,,,,,64,127,5,,,,
71800,control_change,40,0,4,,,,,,,64,127,4,,,,
71800,control_change,40,0,1,,,,,,,64,127,1,,,,
71800,control_change,40,0,2,,,,,,,64,127,2,,,,
71880,note_on,0,0,1,,,,,,,,,1,,,67,49
71880,note_off,80,0,1,,,,,,,,,1,,,69,0
72000,note_on,0,0,5,,,,,,,,,5,,,50,51
72000,note_on,0,0,4,,,,,,,,,4,,,54,51
72000,note_off,0,0,2,,,,,,,,,2,,,75,0
72000,note_off,0,0,2,,,,,,,,,2,,,63,0
72000,control_change,200,0,2,,,,,,,64,0,2,,,,
72000,note_off,0,0,5,,,,,,,,,5,,,38,0
72000,control_change,200,0,5,,,,,,,64,0,5,,,,
72000,control_change,200,0,4,,,,,,,64,0,4,,,,
72000,note_on,0,0,4,,,,,,,,,4,,,60,51
72000,note_on,0,0,1,,,,,,,,,1,,,69,51
72000,note_off,0,0,1,,,,,,,,,1,,,67,0
72000,control_change,120,0,1,,,,,,,64,0,1,,,,
72000,note_on,0,0,2,,,,,,,,,2,,,75,51
72000,note_on,0,0,2,,,,,,,,,2,,,63,51
72040,control_change,40,0,4,,,,,,,64,127,4,,,,
72040,control_change,40,0,2,,,,,,,64,127,2,,,,
72040,control_change,40,0,5,,,,,,,64,127,5,,,,
72040,control_change,40,0,1,,,,,,,64,127,1,,,,
72240,note_on,0,0,1,,,,,,,,,1,,,70,48
72240,note_off,200,0,1,,,,,,,,,1,,,69,0
72480,note_on,0,0,2,,,,,,,,,2,,,74,45
72480,note_off,0,0,5,,,,,,,,,5,,,50,0
72480,control_change,440,0,5,,,,,,,64,0,5,,,,
72480,control_change,440,0,2,,,,,,,64,0,2,,,,
72480,note_off,0,0,2,,,,,,,,,2,,,75,0
72480,note_on,0,0,2,,,,,,,,,2,,,62,45
72480,note_on,0,0,5,,,,,,,,,5,,,50,45
72480,note_off,0,0,2,,,,,,,,,2,,,63,0
72480,note_off,0,0,4,,,,,,,,,4,,,54,0
72480,note_on,0,0,1,,,,,,,,,1,,,72,45
72480,note_on,0,0,4,,,,,,,,,4,,,54,45
72480,note_off,0,0,1,,,,,,,,,1,,,70,0
72480,control_change,440,0,4,,,,,,,64,0,4,,,,
72480,control_change,240,0,1,,,,,,,64,0,1,,,,
72480,note_off,0,0,4,,,,,,,,,4,,,60,0
72480,note_on,0,0,4,,,,,,,,,4,,,57,45
72520,control_change,40,0,1,,,,,,,64,127,1,,,,
72520,control_change,40,0,2,,,,,,,64,127,2,,,,
72520,control_change,40,0,4,,,,,,,64,127,4,,,,
72520,control_change,40,0,5,,,,,,,64,127,5,,,,
72720,control_change,200,0,1,,,,,,,64,0,1,,,,
72720,note_on,0,0,2,,,,,,,,,2,,,62,43
72720,control_change,200,0,5,,,,,,,64,0,5,,,,
72720,note_off,0,0,5,,,,,,,,,5,,,50,0
72720,control_change,200,0,2,,,,,,,64,0,2,,,,
72720,note_off,0,0,2,,,,,,,,,2,,,62,0
72720,note_off,0,0,2,,,,,,,,,2,,,74,0
72720,note_on,0,0,2,,,,,,,,,2,,,74,43
72720,note_on,0,0,1,,,,,,,,,1,,,70,43
72720,note_on,0,0,4,,,,,,,,,4,,,55,43
72720,note_off,0,0,4,,,,,,,,,4,,,57,0
72720,note_off,0,0,4,,,,,,,,,4,,,54,0
72720,control_change,200,0,4,,,,,,,64,0,4,,,,
72720,note_on,0,0,5,,,,,,,,,5,,,43,43
72720,note_off,0,0,1,,,,,,,,,1,,,72,0
72760,control_change,40,0,2,,,,,,,64,127,2,,,,
72760,control_change,40,0,4,,,,,,,64,127,4,,,,
72760,control_change,40,0,1,,,,,,,64,127,1,,,,
72760,control_change,40,0,5,,,,,,,64,127,5,,,,
72960,set_tempo,2400,1,0,,,,,,1395348,,,,,,,
73072,note_off,312,0,2,,,,,,,,,2,,,74,0
73080,note_off,320,0,1,,,,,,,,,1,,,70,0
73080,set_tempo,120,1,0,,,,,,1363636,,,,,,,
73080,note_on,8,0,2,,,,,,,,,2,,,74,52
73200,note_off,0,0,4,,,,,,,,,4,,,55,0
73200,note_on,0,0,4,,,,,,,,,4,,,62,54
73200,note_on,0,0,4,,,,,,,,,4,,,70,54
73200,control_change,440,0,5,,,,,,,64,0,5,,,,
73200,control_change,440,0,4,,,,,,,64,0,4,,,,
73200,note_on,0,0,5,,,,,,,,,5,,,58,54
73200,note_off,0,0,5,,,,,,,,,5,,,43,0
73200,control_change,120,0,2,,,,,,,64,0,2,,,,
73200,note_on,0,0,2,,,,,,,,,2,,,72,54
73200,note_off,0,0,2,,,,,,,,,2,,,62,0
73200,note_off,0,0,2,,,,,,,,,2,,,74,0
73200,note_on,0,0,1,,,,,,,,,1,,,82,54
73200,control_change,120,0,1,,,,,,,64,0,1,,,,
73240,control_change,40,0,2,,,,,,,64,127,2,,,,
73240,control_change,40,0,4,,,,,,,64,127,4,,,,
73240,control_change,40,0,5,,,,,,,64,127,5,,,,
73240,control_change,40,0,1,,,,,,,64,127,1,,,,
73280,set_tempo,200,1,0,,,,,,1395348,,,,,,,
73320,note_on,0,0,2,,,,,,,,,2,,,70,55
73320,note_off,80,0,2,,,,,,,,,2,,,72,0
73320,set_tempo,40,1,0,,,,,,1818181,,,,,,,
73400,note_on,160,0,5,,,,,,,,,5,,,51,56
73402,note_off,162,0,4,,,,,,,,,4,,,62,0
73402,note_off,162,0,1,,,,,,,,,1,,,82,0
73402,note_off,82,0,2,,,,,,,,,2,,,70,0
73402,note_off,2,0,5,,,,,,,,,5,,,58,0
73420,note_on,18,0,4,,,,,,,,,4,,,58,56
73440,note_on,0,0,1,,,,,,,,,1,,,87,56
73440,control_change,38,0,1,,,,,,,64,0,1,,,,
73440,set_tempo,120,1,0,,,,,,1363636,,,,,,,
73440,note_on,0,0,4,,,,,,,,,4,,,67,56
73440,note_off,0,0,4,,,,,,,,,4,,,70,0
73440,control_change,38,0,5,,,,,,,64,0,5,,,,
73440,control_change,38,0,2,,,,,,,64,0,2,,,,
73440,control_change,20,0,4,,,,,,,64,0,4,,,,
73440,note_on,0,0,2,,,,,,,,,2,,,75,56
73480,control_change,40,0,4,,,,,,,64,127,4,,,,
73480,control_change,40,0,5,,,,,,,64,127,5,,,,
73480,control_change,40,0,1,,,,,,,64,127,1,,,,
73480,control_change,40,0,2,,,,,,,64,127,2,,,,
73800,note_off,320,0,1,,,,,,,,,1,,,87,0
73800,note_on,0,0,1,,,,,,,,,1,,,86,58
73880,note_off,400,0,5,,,,,,,,,5,,,51,0
73880,note_on,0,0,5,,,,,,,,,5,,,51,58
73900,note_off,420,0,4,,,,,,,,,4,,,58,0
73920,note_off,440,0,2,,,,,,,,,2,,,75,0
73920,note_on,0,0,4,,,,,,,,,4,,,67,58
73920,note_off,20,0,4,,,,,,,,,4,,,67,0
73920,note_on,0,0,1,,,,,,,,,1,,,87,58
73920,note_on,0,0,4,,,,,,,,,4,,,58,58
73920,note_off,120,0,1,,,,,,,,,1,,,86,0
73920,note_on,0,0,2,,,,,,,,,2,,,75,58
74040,note_on,0,0,1,,,,,,,,,1,,,84,59
74040,note_off,120,0,1,,,,,,,,,1,,,87,0
74120,note_off,240,0,5,,,,,,,,,5,,,51,0
74120,note_on,0,0,5,,,,,,,,,5,,,51,60
74160,control_change,40,0,5,,,,,,,64,0,5,,,,
74160,note_on,0,0,4,,,,,,,,,4,,,67,60
74160,note_on,0,0,4,,,,,,,,,4,,,58,60
74160,note_off,0,0,4,,,,,,,,,4,,,58,0
74160,note_off,0,0,1,,,,,,,,,1,,,84,0
74160,control_change,240,0,4,,,,,,,64,0,4,,,,
74160,control_change,240,0,2,,,,,,,64,0,2,,,,
74160,note_on,0,0,1,,,,,,,,,1,,,87,60
74160,control_change,120,0,1,,,,,,,64,0,1,,,,
74160,note_off,0,0,4,,,,,,,,,4,,,67,0
74200,control_change,40,0,4,,,,,,,64,127,4,,,,
74200,control_change,40,0,5,,,,,,,64,127,5,,,,
74200,control_change,40,0,2,,,,,,,64,127,2,,,,
74200,control_change,40,0,1,,,,,,,64,127,1,,,,
74280,note_off,80,0,1,,,,,,,,,1,,,87,0
74280,note_on,0,0,1,,,,,,,,,1,,,82,60
74280,note_on,80,0,2,,,,,,,,,2,,,74,60
74295,note_off,15,0,2,,,,,,,,,2,,,75,0
74400,note_off,105,0,2,,,,,,,,,2,,,74,0
74400,note_on,0,0,2,,,,,,,,,2,,,75,61
74520,note_off,120,0,2,,,,,,,,,2,,,75,0
74520,note_on,240,0,1,,,,,,,,,1,,,80,61
74520,note_on,0,0,2,,,,,,,,,2,,,72,61
74535,note_off,15,0,1,,,,,,,,,1,,,82,0
74600,note_off,400,0,5,,,,,,,,,5,,,51,0
74640,note_on,0,0,2,,,,,,,,,2,,,75,62
74640,note_off,120,0,2,,,,,,,,,2,,,72,0
74640,note_on,40,0,5,,,,,,,,,5,,,51,62
74640,note_off,440,0,4,,,,,,,,,4,,,67,0
74640,note_off,0,0,4,,,,,,,,,4,,,58,0
74640,note_on,0,0,4,,,,,,,,,4,,,58,62
74760,note_off,120,0,2,,,,,,,,,2,,,75,0
74760,note_on,0,0,2,,,,,,,,,2,,,70,63
74760,note_on,225,0,1,,,,,,,,,1,,,79,63
74765,note_off,5,0,1,,,,,,,,,1,,,80,0
74880,control_change,120,0,2,,,,,,,64,0,2,,,,
74880,note_on,0,0,4,,,,,,,,,4,,,58,67
74880,note_off,0,0,1,,,,,,,,,1,,,79,0
74880,note_on,0,0,1,,,,,,,,,1,,,77,67
74880,note_off,0,0,4,,,,,,,,,4,,,58,0
74880,control_change,240,0,4,,,,,,,64,0,4,,,,
74880,control_change,240,0,5,,,,,,,64,0,5,,,,
74880,note_off,0,0,5,,,,,,,,,5,,,51,0
74880,note_on,0,0,5,,,,,,,,,5,,,51,67
74880,control_change,115,0,1,,,,,,,64,0,1,,,,
74920,control_change,40,0,5,,,,,,,64,127,5,,,,
74920,control_change,40,0,4,,,,,,,64,127,4,,,,
74920,control_change,40,0,2,,,,,,,64,127,2,,,,
74920,control_change,40,0,1,,,,,,,64,127,1,,,,
75000,note_on,80,0,2,,,,,,,,,2,,,68,65
75000,note_on,0,0,1,,,,,,,,,1,,,74,65
75000,note_off,80,0,1,,,,,,,,,1,,,77,0
75020,note_off,20,0,2,,,,,,,,,2,,,70,0
75120,note_on,0,0,1,,,,,,,,,1,,,75,64
75120,note_off,120,0,1,,,,,,,,,1,,,74,0
75240,note_off,120,0,1,,,,,,,,,1,,,75,0
75240,note_on,220,0,2,,,,,,,,,2,,,67,62
75240,note_on,0,0,1,,,,,,,,,1,,,79,62
75245,note_off,5,0,2,,,,,,,,,2,,,68,0
75307,note_off,387,0,5,,,,,,,,,5,,,51,0
75320,note_on,13,0,5,,,,,,,,,5,,,51,60
75340,note_on,420,0,4,,,,,,,,,4,,,56,60
75360,note_on,0,0,2,,,,,,,,,2,,,65,60
75360,note_off,115,0,2,,,,,,,,,2,,,67,0
75360,note_off,120,0,1,,,,,,,,,1,,,79,0
75360,note_on,0,0,1,,,,,,,,,1,,,82,60
75360,note_off,20,0,4,,,,,,,,,4,,,58,0
75480,note_on,0,0,2,,,,,,,,,2,,,62,58
75480,note_off,120,0,2,,,,,,,,,2,,,65,0
75560,note_on,0,0,5,,,,,,,,,5,,,51,56
75560,note_off,240,0,5,,,,,,,,,5,,,51,0
75580,note_off,220,0,4,,,,,,,,,4,,,56,0
75600,control_change,40,0,5,,,,,,,64,0,5,,,,
75600,note_off,0,0,2,,,,,,,,,2,,,62,0
75600,note_on,0,0,2,,,,,,,,,2,,,63,56
75600,control_change,240,0,1,,,,,,,64,0,1,,,,
75600,control_change,20,0,4,,,,,,,64,0,4,,,,
75600,control_change,120,0,2,,,,,,,64,0,2,,,,
75620,note_on,20,0,4,,,,,,,,,4,,,55,56
75640,control_change,20,0,4,,,,,,,64,127,4,,,,
75640,control_change,40,0,2,,,,,,,64,127,2,,,,
75640,control_change,40,0,5,,,,,,,64,127,5,,,,
75640,control_change,40,0,1,,,,,,,64,127,1,,,,
75720,note_on,80,0,2,,,,,,,,,2,,,67,58
75725,note_off,5,0,2,,,,,,,,,2,,,63,0
75840,note_on,0,0,2,,,,,,,,,2,,,70,59
75840,note_off,115,0,2,,,,,,,,,2,,,67,0
75960,note_on,320,0,1,,,,,,,,,1,,,72,61
75965,note_off,5,0,1,,,,,,,,,1,,,82,0
76040,note_off,400,0,5,,,,,,,,,5,,,51,0
76080,note_on,0,0,4,,,,,,,,,4,,,51,62
76080,note_on,0,0,4,,,,,,,,,4,,,55,62
76080,control_change,440,0,4,,,,,,,64,0,4,,,,
76080,note_on,0,0,1,,,,,,,,,1,,,74,62
76080,note_off,0,0,1,,,,,,,,,1,,,72,0
76080,control_change,115,0,1,,,,,,,64,0,1,,,,
76080,control_change,40,0,5,,,,,,,64,0,5,,,,
76080,note_on,0,0,5,,,,,,,,,5,,,43,62
76080,control_change,240,0,2,,,,,,,64,0,2,,,,
76100,note_off,20,0,4,,,,,,,,,4,,,55,0
76120,control_change,40,0,2,,,,,,,64,127,2,,,,
76120,control_change,20,0,4,,,,,,,64,127,4,,,,
76120,control_change,40,0,5,,,,,,,64,127,5,,,,
76120,control_change,40,0,1,,,,,,,64,127,1,,,,
76200,note_on,0,0,1,,,,,,,,,1,,,77,64
76200,note_off,80,0,1,,,,,,,,,1,,,74,0
76200,set_tempo,2760,1,0,,,,,,1395348,,,,,,,
76320,set_tempo,120,1,0,,,,,,1363636,,,,,,,
76320,note_on,0,0,5,,,,,,,,,5,,,45,67
76320,note_off,0,0,5,,,,,,,,,5,,,43,0
76320,note_on,0,0,2,,,,,,,,,2,,,63,67
76320,control_change,200,0,2,,,,,,,64,0,2,,,,
76320,control_change,200,0,4,,,,,,,64,0,4,,,,
76320,control_change,200,0,5,,,,,,,64,0,5,,,,
76320,note_on,0,0,1,,,,,,,,,1,,,75,67
76320,control_change,120,0,1,,,,,,,64,0,1,,,,
76320,note_off,0,0,1,,,,,,,,,1,,,77,0
76325,note_off,5,0,2,,,,,,,,,2,,,70,0
76360,control_change,40,0,1,,,,,,,64,127,1,,,,
76360,control_change,35,0,2,,,,,,,64,127,2,,,,
76360,control_change,40,0,5,,,,,,,64,127,5,,,,
76360,control_change,40,0,4,,,,,,,64,127,4,,,,
76560,note_on,200,0,1,,,,,,,,,1,,,74,63
76800,control_change,440,0,5,,,,,,,64,0,5,,,,
76800,note_off,0,0,5,,,,,,,,,5,,,45,0
76800,note_on,0,0,5,,,,,,,,,5,,,46,60
76800,control_change,440,0,4,,,,,,,64,0,4,,,,
76800,note_off,0,0,4,,,,,,,,,4,,,51,0
76800,note_off,0,0,4,,,,,,,,,4,,,55,0
76800,note_on,0,0,2,,,,,,,,,2,,,75,60
76800,note_on,0,0,2,,,,,,,,,2,,,63,60
76800,control_change,440,0,2,,,,,,,64,0,2,,,,
76800,note_on,0,0,4,,,,,,,,,4,,,51,60
76800,note_off,0,0,2,,,,,,,,,2,,,63,0
76800,note_on,0,0,4,,,,,,,,,4,,,55,60
76800,control_change,240,0,1,,,,,,,64,0,1,,,,
76800,note_off,0,0,1,,,,,,,,,1,,,74,0
76800,note_off,0,0,1,,,,,,,,,1,,,75,0
76800,note_on,0,0,1,,,,,,,,,1,,,72,60
76840,control_change,40,0,4,,,,,,,64,127,4,,,,
76840,control_change,40,0,1,,,,,,,64,127,1,,,,
76840,control_change,40,0,5,,,,,,,64,127,5,,,,
76840,control_change,40,0,2,,,,,,,64,127,2,,,,
77040,note_off,200,0,1,,,,,,,,,1,,,72,0
77040,note_on,0,0,1,,,,,,,,,1,,,70,58
77280,note_off,0,0,4,,,,,,,,,4,,,55,0
77280,note_off,0,0,4,,,,,,,,,4,,,51,0
77280,note_on,0,0,4,,,,,,,,,4,,,51,55
77280,control_change,440,0,2,,,,,,,64,0,2,,,,
77280,note_off,0,0,2,,,,,,,,,2,,,75,0
77280,control_change,440,0,5,,,,,,,64,0,5,,,,
77280,note_on,0,0,2,,,,,,,,,2,,,63,55
77280,note_on,0,0,5,,,,,,,,,5,,,48,55
77280,note_off,0,0,5,,,,,,,,,5,,,46,0
77280,control_change,440,0,4,,,,,,,64,0,4,,,,
77280,note_on,0,0,4,,,,,,,,,4,,,55,55
77280,note_on,0,0,2,,,,,,,,,2,,,75,55
77280,note_off,0,0,2,,,,,,,,,2,,,63,0
77280,control_change,240,0,1,,,,,,,64,0,1,,,,
77320,control_change,40,0,5,,,,,,,64,127,5,,,,
77320,control_change,40,0,1,,,,,,,64,127,1,,,,
77320,control_change,40,0,4,,,,,,,64,127,4,,,,
77320,control_change,40,0,2,,,,,,,64,127,2,,,,
77520,note_on,0,0,1,,,,,,,,,1,,,68,53
77520,note_off,200,0,1,,,,,,,,,1,,,70,0
77640,note_on,0,0,1,,,,,,,,,1,,,67,52
77640,note_off,120,0,1,,,,,,,,,1,,,68,0
77640,set_tempo,1320,1,0,,,,,,1395348,,,,,,,
77760,note_off,0,0,2,,,,,,,,,2,,,63,0
77760,note_off,0,0,4,,,,,,,,,4,,,51,0
77760,note_on,0,0,4,,,,,,,,,4,,,55,50
77760,note_on,0,0,1,,,,,,,,,1,,,70,50
77760,control_change,440,0,5,,,,,,,64,0,5,,,,
77760,note_on,0,0,2,,,,,,,,,2,,,75,50
77760,note_on,0,0,5,,,,,,,,,5,,,46,50
77760,note_off,0,0,5,,,,,,,,,5,,,48,0
77760,note_off,0,0,1,,,,,,,,,1,,,67,0
77760,control_change,120,0,1,,,,,,,64,0,1,,,,
77760,note_off,0,0,4,,,,,,,,,4,,,55,0
77760,control_change,440,0,2,,,,,,,64,0,2,,,,
77760,note_off,0,0,2,,,,,,,,,2,,,75,0
77760,control_change,440,0,4,,,,,,,64,0,4,,,,
77800,control_change,40,0,2,,,,,,,64,127,2,,,,
77800,control_change,40,0,1,,,,,,,64,127,1,,,,
77800,control_change,40,0,4,,,,,,,64,127,4,,,,
77800,control_change,40,0,5,,,,,,,64,127,5,,,,
78000,note_off,200,0,1,,,,,,,,,1,,,70,0
78000,note_on,0,0,1,,,,,,,,,1,,,63,48
78240,note_off,0,0,4,,,,,,,,,4,,,55,0
78240,note_off,0,0,5,,,,,,,,,5,,,46,0
78240,control_change,440,0,2,,,,,,,64,0,2,,,,
78240,note_off,0,0,2,,,,,,,,,2,,,75,0
78240,note_on,0,0,2,,,,,,,,,2,,,74,45
78240,control_change,240,0,1,,,,,,,64,0,1,,,,
78240,note_off,0,0,1,,,,,,,,,1,,,63,0
78240,note_on,0,0,1,,,,,,,,,1,,,67,45
78240,control_change,440,0,4,,,,,,,64,0,4,,,,
78240,note_on,0,0,5,,,,,,,,,5,,,46,45
78240,set_tempo,600,1,0,,,,,,1500000,,,,,,,
78240,control_change,440,0,5,,,,,,,64,0,5,,,,
78240,note_on,0,0,4,,,,,,,,,4,,,56,45
78280,control_change,40,0,1,,,,,,,64,127,1,,,,
78280,control_change,40,0,5,,,,,,,64,127,5,,,,
78280,control_change,40,0,4,,,,,,,64,127,4,,,,
78280,control_change,40,0,2,,,,,,,64,127,2,,,,
78360,note_on,0,0,1,,,,,,,,,1,,,65,42
78360,note_off,80,0,1,,,,,,,,,1,,,67,0
78480,set_tempo,240,1,0,,,,,,1666666,,,,,,,
78915,note_off,635,0,2,,,,,,,,,2,,,74,0
78918,note_off,638,0,4,,,,,,,,,4,,,56,0
78918,note_off,558,0,1,,,,,,,,,1,,,65,0
78920,note_on,640,0,5,,,,,,,,,5,,,44,59
78922,note_off,2,0,5,,,,,,,,,5,,,46,0
78940,note_on,22,0,4,,,,,,,,,4,,,51,59
78960,control_change,38,0,5,,,,,,,64,0,5,,,,
78960,control_change,20,0,4,,,,,,,64,0,4,,,,
78960,set_tempo,480,1,0,,,,,,1363636,,,,,,,
78960,note_on,0,0,4,,,,,,,,,4,,,60,59
78960,note_on,0,0,2,,,,,,,,,2,,,75,59
78960,note_on,0,0,2,,,,,,,,,2,,,63,59
78960,control_change,45,0,2,,,,,,,64,0,2,,,,
78960,control_change,42,0,1,,,,,,,64,0,1,,,,
78960,note_on,0,0,1,,,,,,,,,1,,,72,59
79000,control_change,40,0,2,,,,,,,64,127,2,,,,
79000,control_change,40,0,5,,,,,,,64,127,5,,,,
79000,control_change,40,0,4,,,,,,,64,127,4,,,,
79000,control_change,40,0,1,,,,,,,64,127,1,,,,
79200,note_on,0,0,1,,,,,,,,,1,,,70,54
79200,note_off,200,0,1,,,,,,,,,1,,,72,0
79640,note_off,640,0,5,,,,,,,,,5,,,44,0
79660,note_off,660,0,4,,,,,,,,,4,,,51,0
79680,control_change,20,0,4,,,,,,,64,0,4,,,,
79680,note_off,0,0,4,,,,,,,,,4,,,60,0
79680,note_on,0,0,4,,,,,,,,,4,,,51,50
79680,note_on,0,0,2,,,,,,,,,2,,,63,50
79680,note_on,0,0,2,,,,,,,,,2,,,75,50
79680,note_off,0,0,2,,,,,,,,,2,,,63,0
79680,control_change,680,0,2,,,,,,,64,0,2,,,,
79680,note_on,0,0,5,,,,,,,,,5,,,48,50
79680,note_off,0,0,2,,,,,,,,,2,,,75,0
79680,control_change,40,0,5,,,,,,,64,0,5,,,,
79680,control_change,480,0,1,,,,,,,64,0,1,,,,
79680,note_on,0,0,1,,,,,,,,,1,,,69,50
79685,note_off,5,0,1,,,,,,,,,1,,,70,0
79720,control_change,40,0,2,,,,,,,64,127,2,,,,
79720,control_change,35,0,1,,,,,,,64,127,1,,,,
79720,control_change,40,0,4,,,,,,,64,127,4,,,,
79720,control_change,40,0,5,,,,,,,64,127,5,,,,
79920,note_on,0,0,1,,,,,,,,,1,,,68,48
79920,note_off,200,0,1,,,,,,,,,1,,,69,0
80160,set_tempo,1200,1,0,,,,,,1395348,,,,,,,
80400,note_off,0,0,2,,,,,,,,,2,,,75,0
80400,note_off,0,0,2,,,,,,,,,2,,,63,0
80400,control_change,680,0,2,,,,,,,64,0,2,,,,
80400,set_tempo,240,1,0,,,,,,1363636,,,,,,,
80400,note_on,0,0,5,,,,,,,,,5,,,46,44
80400,control_change,680,0,5,,,,,,,64,0,5,,,,
80400,note_off,0,0,5,,,,,,,,,5,,,48,0
80400,note_on,0,0,1,,,,,,,,,1,,,67,44
80400,note_off,0,0,1,,,,,,,,,1,,,68,0
80400,note_on,0,0,2,,,,,,,,,2,,,63,44
80400,control_change,680,0,4,,,,,,,64,0,4,,,,
80400,note_off,0,0,4,,,,,,,,,4,,,51,0
80400,note_on,0,0,4,,,,,,,,,4,,,55,44
80400,control_change,480,0,1,,,,,,,64,0,1,,,,
80400,note_on,0,0,2,,,,,,,,,2,,,75,44
80440,control_change,40,0,5,,,,,,,64,127,5,,,,
80440,control_change,40,0,1,,,,,,,64,127,1,,,,
80440,control_change,40,0,2,,,,,,,64,127,2,,,,
80440,control_change,40,0,4,,,,,,,64,127,4,,,,
80640,note_off,200,0,1,,,,,,,,,1,,,67,0
80640,note_on,0,0,1,,,,,,,,,1,,,70,42
80880,set_tempo,480,1,0,,,,,,1395348,,,,,,,
80880,note_off,240,0,1,,,,,,,,,1,,,70,0
80880,note_on,0,0,1,,,,,,,,,1,,,63,40
80880,note_off,440,0,2,,,,,,,,,2,,,63,0
81120,note_on,0,0,4,,,,,,,,,4,,,56,37
81120,note_off,0,0,5,,,,,,,,,5,,,46,0
81120,control_change,680,0,5,,,,,,,64,0,5,,,,
81120,set_tempo,240,1,0,,,,,,1428571,,,,,,,
81120,control_change,240,0,2,,,,,,,64,0,2,,,,
81120,control_change,680,0,4,,,,,,,64,0,4,,,,
81120,note_on,0,0,5,,,,,,,,,5,,,46,37
81120,note_off,0,0,4,,,,,,,,,4,,,55,0
81120,note_on,0,0,2,,,,,,,,,2,,,74,37
81120,note_off,0,0,2,,,,,,,,,2,,,75,0
81120,control_change,240,0,1,,,,,,,64,0,1,,,,
81120,note_off,0,0,1,,,,,,,,,1,,,63,0
81120,note_on,0,0,1,,,,,,,,,1,,,67,37
81160,control_change,40,0,1,,,,,,,64,127,1,,,,
81160,control_change,40,0,4,,,,,,,64,127,4,,,,
81160,control_change,40,0,2,,,,,,,64,127,2,,,,
81160,control_change,40,0,5,,,,,,,64,127,5,,,,
81240,note_off,80,0,1,,,,,,,,,1,,,67,0
81240,note_on,0,0,1,,,,,,,,,1,,,65,36
81830,set_tempo,710,1,0,,,,,,1666666,,,,,,,
81960,note_on,720,0,1,,,,,,,,,1,,,63,30
81960,set_tempo,130,1,0,,,,,,1935483,,,,,,,
81965,note_off,5,0,1,,,,,,,,,1,,,65,0
82080,note_on,0,0,2,,,,,,,,,2,,,75,29
82080,note_off,0,0,2,,,,,,,,,2,,,74,0
82080,note_off,0,0,1,,,,,,,,,1,,,63,0
82080,control_change,920,0,2,,,,,,,64,0,2,,,,
82080,control_change,115,0,1,,,,,,,64,0,1,,,,
82080,note_on,0,0,5,,,,,,,,,5,,,51,29
82080,note_on,0,0,4,,,,,,,,,4,,,55,29
82080,note_off,0,0,4,,,,,,,,,4,,,56,0
82080,control_change,920,0,4,,,,,,,64,0,4,,,,
82080,note_on,0,0,1,,,,,,,,,1,,,63,29
82080,note_off,0,0,5,,,,,,,,,5,,,46,0
82080,control_change,920,0,5,,,,,,,64,0,5,,,,
82120,control_change,40,0,1,,,,,,,64,127,1,,,,
82120,control_change,40,0,4,,,,,,,64,127,4,,,,
82120,control_change,40,0,2,,,,,,,64,127,2,,,,
82120,control_change,40,0,5,,,,,,,64,127,5,,,,
82560,note_off,440,0,4,,,,,,,,,4,,,55,0
82560,note_off,440,0,5,,,,,,,,,5,,,51,0
82560,note_off,440,0,2,,,,,,,,,2,,,75,0
82560,note_off,440,0,1,,,,,,,,,1,,,63,0
82800,note_on,0,0,2,,,,,,,,,2,,,55,26
82800,note_on,240,0,2,,,,,,,,,2,,,46,26
82800,note_on,240,0,1,,,,,,,,,1,,,58,26
82800,note_on,240,0,5,,,,,,,,,5,,,39,26
82800,note_on,0,0,5,,,,,,,,,5,,,27,26
82800,set_tempo,840,1,0,,,,,,2727272,,,,,,,
83280,note_off,480,0,1,,,,,,,,,1,,,58,0
83280,note_off,480,0,5,,,,,,,,,5,,,27,0
83280,note_off,0,0,5,,,,,,,,,5,,,39,0
83280,note_off,480,0,2,,,,,,,,,2,,,55,0
83280,note_off,0,0,2,,,,,,,,,2,,,46,0
83520,note_on,0,0,5,,,,,,,,,5,,,63,21
83520,note_on,240,0,5,,,,,,,,,5,,,51,21
83520,note_on,240,0,2,,,,,,,,,2,,,75,21
83520,note_on,0,0,2,,,,,,,,,2,,,67,21
83520,note_on,240,0,1,,,,,,,,,1,,,79,21
83520,note_on,960,0,4,,,,,,,,,4,,,55,21
84250,set_tempo,1450,1,0,,,,,,500000,,,,,,,
85440,control_change,1920,0,1,,,,,,,64,0,1,,,,
85440,note_off,0,0,1,,,,,,,,,1,,,79,0
85440,control_change,1920,0,4,,,,,,,64,0,4,,,,
85440,note_off,0,0,5,,,,,,,,,5,,,51,0
85440,control_change,1920,0,5,,,,,,,64,0,5,,,,
85440,note_off,0,0,5,,,,,,,,,5,,,63,0
85440,control_change,1920,0,2,,,,,,,64,0,2,,,,
85440,control_change,35040,0,3,,,,,,,64,0,3,,,,
85440,note_off,0,0,2,,,,,,,,,2,,,75,0
85440,note_off,0,0,2,,,,,,,,,2,,,67,0
85440,note_off,0,0,4,,,,,,,,,4,,,55,0
86400,time_signature,2150,1,0,3,8,24,8,,,,,,,,,
86400,set_tempo,0,1,0,,,,,,500000,,,,,,,
86400,marker,0,1,0,,,,,,,,,,,,,
87120,set_tempo,720,1,0,,,,,,1034482,,,,,,,
87540,note_on,2100,0,1,,,,,,,,,1,,,73,40
87600,control_change,60,0,1,,,,,,,64,0,1,,,,
87600,note_on,0,0,1,,,,,,,,,1,,,72,41
87600,note_on,0,0,5,,,,,,,,,5,,,39,41
87600,control_change,2160,0,3,,,,,,,64,0,3,,,,
87600,note_off,0,0,1,,,,,,,,,1,,,73,0
87600,control_change,2160,0,5,,,,,,,64,0,5,,,,
87640,control_change,40,0,1,,,,,,,64,127,1,,,,
87640,control_change,40,0,5,,,,,,,64,127,5,,,,
87640,control_change,40,0,3,,,,,,,64,127,3,,,,
87660,note_off,20,0,1,,,,,,,,,1,,,72,0
87660,note_on,20,0,3,,,,,,,,,3,,,66,41
87720,note_on,0,0,3,,,,,,,,,3,,,60,41
87720,note_off,60,0,3,,,,,,,,,3,,,66,0
87780,note_off,60,0,3,,,,,,,,,3,,,60,0
87780,note_on,120,0,1,,,,,,,,,1,,,72,41
87800,set_tempo,680,1,0,,,,,,1052631,,,,,,,
87840,note_off,0,0,1,,,,,,,,,1,,,72,0
87840,note_off,0,0,5,,,,,,,,,5,,,39,0
87840,note_on,0,0,1,,,,,,,,,1,,,70,42
87840,control_change,200,0,5,,,,,,,64,0,5,,,,
87840,set_tempo,40,1,0,,,,,,1034482,,,,,,,
87840,control_change,60,0,1,,,,,,,64,0,1,,,,
87840,control_change,60,0,3,,,,,,,64,0,3,,,,
87840,note_on,0,0,5,,,,,,,,,5,,,37,42
87880,control_change,40,0,1,,,,,,,64,127,1,,,,
87880,control_change,40,0,5,,,,,,,64,127,5,,,,
87880,control_change,40,0,3,,,,,,,64,127,3,,,,
87900,note_off,20,0,1,,,,,,,,,1,,,70,0
87900,note_on,20,0,3,,,,,,,,,3,,,65,42
87960,note_off,60,0,3,,,,,,,,,3,,,65,0
87960,note_on,0,0,3,,,,,,,,,3,,,58,42
88020,note_off,60,0,3,,,,,,,,,3,,,58,0
88020,note_on,0,0,3,,,,,,,,,3,,,52,43
88080,note_off,60,0,3,,,,,,,,,3,,,52,0
88080,note_on,0,0,3,,,,,,,,,3,,,53,43
88080,note_off,200,0,5,,,,,,,,,5,,,37,0
88140,note_on,0,0,3,,,,,,,,,3,,,58,43
88140,note_off,60,0,3,,,,,,,,,3,,,53,0
88200,note_on,0,0,3,,,,,,,,,3,,,65,44
88200,note_off,60,0,3,,,,,,,,,3,,,58,0
88260,note_off,60,0,3,,,,,,,,,3,,,65,0
88260,note_on,360,0,1,,,,,,,,,1,,,70,44
88320,note_on,0,0,5,,,,,,,,,5,,,39,44
88320,note_on,0,0,1,,,,,,,,,1,,,72,44
88320,control_change,240,0,5,,,,,,,64,0,5,,,,
88320,note_off,0,0,1,,,,,,,,,1,,,70,0
88320,control_change,60,0,1,,,,,,,64,0,1,,,,
88320,control_change,60,0,3,,,,,,,64,0,3,,,,
88360,control_change,40,0,5,,,,,,,64,127,5,,,,
88360,control_change,40,0,3,,,,,,,64,127,3,,,,
88360,control_change,40,0,1,,,,,,,64,127,1,,,,
88380,note_on,20,0,3,,,,,,,,,3,,,66,45
88380,note_off,20,0,1,,,,,,,,,1,,,72,0
88440,note_on,0,0,3,,,,,,,,,3,,,60,45
88440,note_off,60,0,3,,,,,,,,,3,,,66,0
88500,note_off,60,0,3,,,,,,,,,3,,,60,0
88500,note_on,120,0,1,,,,,,,,,1,,,72,45
88520,set_tempo,680,1,0,,,,,,1052631,,,,,,,
88560,note_on,0,0,5,,,,,,,,,5,,,37,45
88560,note_off,0,0,1,,,,,,,,,1,,,72,0
88560,note_off,0,0,5,,,,,,,,,5,,,39,0
88560,set_tempo,40,1,0,,,,,,1034482,,,,,,,
88560,control_change,200,0,5,,,,,,,64,0,5,,,,
88560,control_change,60,0,3,,,,,,,64,0,3,,,,
88560,control_change,60,0,1,,,,,,,64,0,1,,,,
88560,note_on,0,0,1,,,,,,,,,1,,,77,45
88600,control_change,40,0,5,,,,,,,64,127,5,,,,
88600,control_change,40,0,1,,,,,,,64,127,1,,,,
88600,control_change,40,0,3,,,,,,,64,127,3,,,,
88620,note_on,20,0,3,,,,,,,,,3,,,70,46
88620,note_off,20,0,1,,,,,,,,,1,,,77,0
88680,note_off,60,0,3,,,,,,,,,3,,,70,0
88680,note_on,0,0,3,,,,,,,,,3,,,65,46
88740,note_off,60,0,3,,,,,,,,,3,,,65,0
88740,note_on,0,0,3,,,,,,,,,3,,,57,46
88800,note_off,200,0,5,,,,,,,,,5,,,37,0
88800,note_off,60,0,3,,,,,,,,,3,,,57,0
88800,note_on,0,0,3,,,,,,,,,3,,,58,47
88860,note_on,0,0,3,,,,,,,,,3,,,65,47
88860,note_off,60,0,3,,,,,,,,,3,,,58,0
88920,note_off,60,0,3,,,,,,,,,3,,,65,0
88920,note_on,0,0,3,,,,,,,,,3,,,70,47
88980,note_off,60,0,3,,,,,,,,,3,,,70,0
88980,note_on,360,0,1,,,,,,,,,1,,,77,48
89040,control_change,240,0,5,,,,,,,64,0,5,,,,
89040,note_on,0,0,5,,,,,,,,,5,,,34,48
89040,note_on,0,0,1,,,,,,,,,1,,,80,48
89040,note_off,0,0,1,,,,,,,,,1,,,77,0
89040,control_change,60,0,3,,,,,,,64,0,3,,,,
89040,control_change,60,0,1,,,,,,,64,0,1,,,,
89080,control_change,40,0,3,,,,,,,64,127,3,,,,
89080,control_change,40,0,1,,,,,,,64,127,1,,,,
89080,control_change,40,0,5,,,,,,,64,127,5,,,,
89100,note_on,20,0,3,,,,,,,,,3,,,73,48
89100,note_off,20,0,1,,,,,,,,,1,,,80,0
89160,note_off,60,0,3,,,,,,,,,3,,,73,0
89160,note_on,0,0,3,,,,,,,,,3,,,68,48
89220,note_on,120,0,1,,,,,,,,,1,,,80,49
89220,note_off,60,0,3,,,,,,,,,3,,,68,0
89240,set_tempo,680,1,0,,,,,,1052631,,,,,,,
89280,note_off,0,0,5,,,,,,,,,5,,,34,0
89280,control_change,60,0,1,,,,,,,64,0,1,,,,
89280,note_off,0,0,1,,,,,,,,,1,,,80,0
89280,note_on,0,0,1,,,,,,,,,1,,,78,49
89280,control_change,200,0,5,,,,,,,64,0,5,,,,
89280,control_change,60,0,3,,,,,,,64,0,3,,,,
89280,set_tempo,40,1,0,,,,,,1034482,,,,,,,
89280,note_on,0,0,5,,,,,,,,,5,,,39,49
89320,control_change,40,0,5,,,,,,,64,127,5,,,,
89320,control_change,40,0,1,,,,,,,64,127,1,,,,
89320,control_change,40,0,3,,,,,,,64,127,3,,,,
89340,note_on,20,0,3,,,,,,,,,3,,,73,49
89340,note_off,20,0,1,,,,,,,,,1,,,78,0
89400,note_on,0,0,3,,,,,,,,,3,,,66,50
89400,note_off,60,0,3,,,,,,,,,3,,,73,0
89460,note_on,0,0,3,,,,,,,,,3,,,57,50
89460,note_off,60,0,3,,,,,,,,,3,,,66,0
89520,note_on,0,0,3,,,,,,,,,3,,,58,50
89520,note_off,60,0,3,,,,,,,,,3,,,57,0
89520,note_off,200,0,5,,,,,,,,,5,,,39,0
89580,note_on,0,0,3,,,,,,,,,3,,,61,51
89580,note_off,60,0,3,,,,,,,,,3,,,58,0
89640,note_off,60,0,3,,,,,,,,,3,,,61,0
89640,note_on,0,0,3,,,,,,,,,3,,,70,51
89700,note_off,60,0,3,,,,,,,,,3,,,70,0
89700,note_on,360,0,1,,,,,,,,,1,,,73,51
89760,note_on,0,0,5,,,,,,,,,5,,,32,51
89760,note_on,0,0,1,,,,,,,,,1,,,78,51
89760,note_off,0,0,1,,,,,,,,,1,,,73,0
89760,control_change,60,0,1,,,,,,,64,0,1,,,,
89760,control_change,60,0,3,,,,,,,64,0,3,,,,
89760,control_change,240,0,5,,,,,,,64,0,5,,,,
89800,control_change,40,0,3,,,,,,,64,127,3,,,,
89800,control_change,40,0,5,,,,,,,64,127,5,,,,
89800,control_change,40,0,1,,,,,,,64,127,1,,,,
89820,note_on,20,0,3,,,,,,,,,3,,,72,52
89820,note_off,20,0,1,,,,,,,,,1,,,78,0
89880,note_off,60,0,3,,,,,,,,,3,,,72,0
89880,note_on,0,0,3,,,,,,,,,3,,,66,52
89940,note_on,120,0,1,,,,,,,,,1,,,78,52
89940,note_off,60,0,3,,,,,,,,,3,,,66,0
89960,set_tempo,680,1,0,,,,,,1052631,,,,,,,
90000,control_change,60,0,1,,,,,,,64,0,1,,,,
90000,set_tempo,40,1,0,,,,,,1034482,,,,,,,
90000,note_off,0,0,5,,,,,,,,,5,,,32,0
90000,note_on,0,0,5,,,,,,,,,5,,,37,53
90000,note_on,0,0,1,,,,,,,,,1,,,77,53
90000,note_off,0,0,1,,,,,,,,,1,,,78,0
90000,control_change,60,0,3,,,,,,,64,0,3,,,,
90000,control_change,200,0,5,,,,,,,64,0,5,,,,
90040,control_change,40,0,3,,,,,,,64,127,3,,,,
90040,control_change,40,0,5,,,,,,,64,127,5,,,,
90040,control_change,40,0,1,,,,,,,64,127,1,,,,
90060,note_on,20,0,3,,,,,,,,,3,,,72,53
90060,note_off,20,0,1,,,,,,,,,1,,,77,0
90120,note_on,0,0,3,,,,,,,,,3,,,65,53
90120,note_off,60,0,3,,,,,,,,,3,,,72,0
90180,note_on,0,0,3,,,,,,,,,3,,,55,54
90180,note_off,60,0,3,,,,,,,,,3,,,65,0
90240,note_on,0,0,3,,,,,,,,,3,,,56,54
90240,note_off,60,0,3,,,,,,,,,3,,,55,0
90240,note_off,200,0,5,,,,,,,,,5,,,37,0
90300,note_on,0,0,3,,,,,,,,,3,,,60,54
90300,note_off,60,0,3,,,,,,,,,3,,,56,0
90360,note_on,0,0,3,,,,,,,,,3,,,68,54
90360,note_off,60,0,3,,,,,,,,,3,,,60,0
90420,note_on,360,0,1,,,,,,,,,1,,,72,55
90420,note_off,60,0,3,,,,,,,,,3,,,68,0
90480,note_on,0,0,1,,,,,,,,,1,,,77,55
90480,control_change,60,0,1,,,,,,,64,0,1,,,,
90480,control_change,240,0,5,,,,,,,64,0,5,,,,
90480,note_on,0,0,5,,,,,,,,,5,,,30,55
90480,note_off,0,0,1,,,,,,,,,1,,,72,0
90480,control_change,60,0,3,,,,,,,64,0,3,,,,
90520,control_change,40,0,1,,,,,,,64,127,1,,,,
90520,control_change,40,0,5,,,,,,,64,127,5,,,,
90520,control_change,40,0,3,,,,,,,64,127,3,,,,
90540,note_on,20,0,3,,,,,,,,,3,,,70,55
90540,note_off,20,0,1,,,,,,,,,1,,,77,0
90600,note_on,0,0,3,,,,,,,,,3,,,65,56
90600,note_off,60,0,3,,,,,,,,,3,,,70,0
90660,note_on,120,0,1,,,,,,,,,1,,,77,56
90660,note_off,60,0,3,,,,,,,,,3,,,65,0
90680,set_tempo,680,1,0,,,,,,1052631,,,,,,,
90720,note_on,0,0,1,,,,,,,,,1,,,75,56
90720,note_on,0,0,5,,,,,,,,,5,,,36,56
90720,control_change,200,0,5,,,,,,,64,0,5,,,,
90720,set_tempo,40,1,0,,,,,,1034482,,,,,,,
90720,control_change,60,0,1,,,,,,,64,0,1,,,,
90720,note_off,0,0,5,,,,,,,,,5,,,30,0
90720,note_off,0,0,1,,,,,,,,,1,,,77,0
90720,control_change,60,0,3,,,,,,,64,0,3,,,,
90760,control_change,40,0,3,,,,,,,64,127,3,,,,
90760,control_change,40,0,1,,,,,,,64,127,1,,,,
90760,control_change,40,0,5,,,,,,,64,127,5,,,,
90780,note_off,20,0,1,,,,,,,,,1,,,75,0
90780,note_on,20,0,3,,,,,,,,,3,,,70,57
90840,note_off,60,0,3,,,,,,,,,3,,,70,0
90840,note_on,0,0,3,,,,,,,,,3,,,63,57
90900,note_off,60,0,3,,,,,,,,,3,,,63,0
90900,note_on,120,0,1,,,,,,,,,1,,,73,57
90960,note_off,0,0,5,,,,,,,,,5,,,36,0
90960,control_change,200,0,5,,,,,,,64,0,5,,,,
90960,control_change,60,0,3,,,,,,,64,0,3,,,,
90960,note_on,0,0,1,,,,,,,,,1,,,72,58
90960,note_off,0,0,1,,,,,,,,,1,,,73,0
90960,control_change,60,0,1,,,,,,,64,0,1,,,,
90960,note_on,0,0,5,,,,,,,,,5,,,39,58
91000,control_change,40,0,3,,,,,,,64,127,3,,,,
91000,control_change,40,0,5,,,,,,,64,127,5,,,,
91000,control_change,40,0,1,,,,,,,64,127,1,,,,
91020,note_on,20,0,3,,,,,,,,,3,,,66,58
91020,note_off,20,0,1,,,,,,,,,1,,,72,0
91080,note_on,0,0,3,,,,,,,,,3,,,60,58
91080,note_off,60,0,3,,,,,,,,,3,,,66,0
91140,note_on,0,0,3,,,,,,,,,3,,,53,58
91140,note_off,60,0,3,,,,,,,,,3,,,60,0
91200,control_change,60,0,3,,,,,,,64,0,3,,,,
91200,note_off,0,0,5,,,,,,,,,5,,,39,0
91200,control_change,200,0,5,,,,,,,64,0,5,,,,
91200,control_change,180,0,1,,,,,,,64,0,1,,,,
91200,note_on,0,0,3,,,,,,,,,3,,,54,59
91240,control_change,40,0,3,,,,,,,64,127,3,,,,
91240,control_change,40,0,1,,,,,,,64,127,1,,,,
91240,control_change,40,0,5,,,,,,,64,127,5,,,,
91260,note_off,0,0,3,,,,,,,,,3,,,53,0
91260,note_on,0,0,3,,,,,,,,,3,,,58,59
91260,note_off,20,0,3,,,,,,,,,3,,,54,0
91320,note_on,0,0,3,,,,,,,,,3,,,66,59
91320,note_off,60,0,3,,,,,,,,,3,,,58,0
91380,note_on,140,0,1,,,,,,,,,1,,,77,60
91380,note_off,60,0,3,,,,,,,,,3,,,66,0
91400,set_tempo,680,1,0,,,,,,1052631,,,,,,,
91440,control_change,60,0,3,,,,,,,64,0,3,,,,
91440,set_tempo,40,1,0,,,,,,1034482,,,,,,,
91440,control_change,200,0,5,,,,,,,64,0,5,,,,
91440,note_on,0,0,5,,,,,,,,,5,,,29,60
91440,control_change,60,0,1,,,,,,,64,0,1,,,,
91440,note_off,0,0,1,,,,,,,,,1,,,77,0
91440,note_on,0,0,1,,,,,,,,,1,,,75,60
91480,control_change,40,0,5,,,,,,,64,127,5,,,,
91480,control_change,40,0,3,,,,,,,64,127,3,,,,
91480,control_change,40,0,1,,,,,,,64,127,1,,,,
91500,note_on,20,0,3,,,,,,,,,3,,,69,60
91500,note_off,20,0,1,,,,,,,,,1,,,75,0
91560,note_off,60,0,3,,,,,,,,,3,,,69,0
91560,note_on,0,0,3,,,,,,,,,3,,,63,61
91620,note_off,60,0,3,,,,,,,,,3,,,63,0
91620,note_on,120,0,1,,,,,,,,,1,,,73,61
91680,note_off,60,0,1,,,,,,,,,1,,,73,0
91680,note_on,0,0,5,,,,,,,,,5,,,41,61
91680,note_off,200,0,5,,,,,,,,,5,,,29,0
91680,note_on,0,0,1,,,,,,,,,1,,,72,61
91740,note_off,60,0,1,,,,,,,,,1,,,72,0
91740,note_on,120,0,3,,,,,,,,,3,,,69,61
91800,note_on,0,0,3,,,,,,,,,3,,,63,62
91800,note_off,60,0,3,,,,,,,,,3,,,69,0
91860,note_on,0,0,3,,,,,,,,,3,,,52,62
91860,note_off,60,0,3,,,,,,,,,3,,,63,0
91920,note_on,60,0,3,,,,,,,,,3,,,53,62
91920,note_off,240,0,5,,,,,,,,,5,,,41,0
91980,note_off,60,0,3,,,,,,,,,3,,,53,0
91980,note_off,0,0,3,,,,,,,,,3,,,52,0
91980,note_on,0,0,3,,,,,,,,,3,,,57,63
92040,note_off,60,0,3,,,,,,,,,3,,,57,0
92040,note_on,0,0,3,,,,,,,,,3,,,65,63
92100,note_off,60,0,3,,,,,,,,,3,,,65,0
92100,note_on,360,0,1,,,,,,,,,1,,,78,63
92120,set_tempo,680,1,0,,,,,,1052631,,,,,,,
92160,control_change,60,0,3,,,,,,,64,0,3,,,,
92160,note_off,0,0,1,,,,,,,,,1,,,78,0
92160,set_tempo,40,1,0,,,,,,1034482,,,,,,,
92160,control_change,240,0,5,,,,,,,64,0,5,,,,
92160,control_change,60,0,1,,,,,,,64,0,1,,,,
92160,note_on,0,0,1,,,,,,,,,1,,,77,63
92200,control_change,40,0,5,,,,,,,64,127,5,,,,
92200,control_change,40,0,3,,,,,,,64,127,3,,,,
92200,control_change,40,0,1,,,,,,,64,127,1,,,,
92220,note_on,20,0,3,,,,,,,,,3,,,72,62
92280,note_on,0,0,3,,,,,,,,,3,,,69,61
92280,note_off,60,0,3,,,,,,,,,3,,,72,0
92340,note_on,140,0,5,,,,,,,,,5,,,65,60
92340,note_off,60,0,3,,,,,,,,,3,,,69,0
92400,control_change,60,0,3,,,,,,,64,0,3,,,,
92400,note_off,0,0,1,,,,,,,,,1,,,77,0
92400,note_on,0,0,1,,,,,,,,,1,,,76,59
92400,note_off,0,0,5,,,,,,,,,5,,,65,0
92400,control_change,60,0,5,,,,,,,64,0,5,,,,
92400,control_change,200,0,1,,,,,,,64,0,1,,,,
92440,control_change,40,0,1,,,,,,,64,127,1,,,,
92440,control_change,40,0,5,,,,,,,64,127,5,,,,
92440,control_change,40,0,3,,,,,,,64,127,3,,,,
92460,note_on,20,0,3,,,,,,,,,3,,,72,58
92520,note_off,60,0,3,,,,,,,,,3,,,72,0
92520,note_on,0,0,3,,,,,,,,,3,,,69,57
92580,note_on,140,0,5,,,,,,,,,5,,,65,56
92580,note_off,60,0,3,,,,,,,,,3,,,69,0
92640,note_off,0,0,5,,,,,,,,,5,,,65,0
92640,note_on,0,0,1,,,,,,,,,1,,,75,55
92640,note_off,0,0,1,,,,,,,,,1,,,76,0
92640,control_change,200,0,1,,,,,,,64,0,1,,,,
92640,control_change,60,0,3,,,,,,,64,0,3,,,,
92640,control_change,60,0,5,,,,,,,64,0,5,,,,
92680,control_change,40,0,3,,,,,,,64,127,3,,,,
92680,control_change,40,0,5,,,,,,,64,127,5,,,,
92680,control_change,40,0,1,,,,,,,64,127,1,,,,
92700,note_on,20,0,3,,,,,,,,,3,,,72,54
92760,note_off,60,0,3,,,,,,,,,3,,,72,0
92760,note_on,0,0,3,,,,,,,,,3,,,69,53
92820,note_off,60,0,3,,,,,,,,,3,,,69,0
92820,note_on,140,0,5,,,,,,,,,5,,,65,53
92840,set_tempo,680,1,0,,,,,,1052631,,,,,,,
92880,note_off,0,0,1,,,,,,,,,1,,,75,0
92880,control_change,60,0,5,,,,,,,64,0,5,,,,
92880,note_off,0,0,5,,,,,,,,,5,,,65,0
92880,set_tempo,40,1,0,,,,,,1034482,,,,,,,
92880,control_change,200,0,1,,,,,,,64,0,1,,,,
92880,note_on,0,0,1,,,,,,,,,1,,,73,52
92880,control_change,60,0,3,,,,,,,64,0,3,,,,
92920,control_change,40,0,3,,,,,,,64,127,3,,,,
92920,control_change,40,0,5,,,,,,,64,127,5,,,,
92920,control_change,40,0,1,,,,,,,64,127,1,,,,
92940,note_on,20,0,5,,,,,,,,,5,,,69,51
93000,note_on,0,0,5,,,,,,,,,5,,,66,50
93000,note_off,60,0,5,,,,,,,,,5,,,69,0
93060,note_on,0,0,5,,,,,,,,,5,,,61,49
93060,note_off,60,0,5,,,,,,,,,5,,,66,0
93120,note_on,0,0,5,,,,,,,,,5,,,57,48
93120,note_off,60,0,5,,,,,,,,,5,,,61,0
93120,note_off,200,0,1,,,,,,,,,1,,,73,0
93180,note_on,0,0,5,,,,,,,,,5,,,54,47
93180,note_off,60,0,5,,,,,,,,,5,,,57,0
93240,note_off,60,0,5,,,,,,,,,5,,,54,0
93240,note_on,0,0,5,,,,,,,,,5,,,49,46
93300,note_off,60,0,5,,,,,,,,,5,,,49,0
93300,note_on,0,0,5,,,,,,,,,5,,,45,44
93360,note_on,0,0,5,,,,,,,,,5,,,42,43
93360,note_off,60,0,5,,,,,,,,,5,,,45,0
93420,note_off,60,0,5,,,,,,,,,5,,,42,0
93420,note_on,0,0,5,,,,,,,,,5,,,37,42
93480,note_off,60,0,5,,,,,,,,,5,,,37,0
93480,note_on,0,0,5,,,,,,,,,5,,,33,41
93540,note_off,60,0,5,,,,,,,,,5,,,33,0
93540,note_on,0,0,5,,,,,,,,,5,,,30,40
93600,control_change,8160,0,4,,,,,,,64,127,4,,,,
93600,note_off,60,0,5,,,,,,,,,5,,,30,0
93600,note_on,0,0,5,,,,,,,,,5,,,27,39
93660,note_on,60,0,4,,,,,,,,,4,,,39,38
93720,note_on,0,0,4,,,,,,,,,4,,,42,37
93720,note_off,60,0,4,,,,,,,,,4,,,39,0
93780,note_on,0,0,4,,,,,,,,,4,,,45,36
93780,note_off,60,0,4,,,,,,,,,4,,,42,0
93840,note_off,240,0,5,,,,,,,,,5,,,27,0
93840,note_on,0,0,4,,,,,,,,,4,,,51,35
93840,note_off,60,0,4,,,,,,,,,4,,,45,0
93900,set_tempo,1020,1,0,,,,,,1071428,,,,,,,
93900,note_off,60,0,4,,,,,,,,,4,,,51,0
93900,note_on,0,0,4,,,,,,,,,4,,,54,34
93960,note_off,60,0,4,,,,,,,,,4,,,54,0
93960,note_on,0,0,4,,,,,,,,,4,,,57,32
93960,set_tempo,60,1,0,,,,,,1176470,,,,,,,
94020,note_off,60,0,4,,,,,,,,,4,,,57,0
94020,set_tempo,60,1,0,,,,,,1034482,,,,,,,
94020,note_on,900,0,1,,,,,,,,,1,,,73,44
94080,note_off,0,0,1,,,,,,,,,1,,,73,0
94080,control_change,60,0,1,,,,,,,64,0,1,,,,
94080,note_on,0,0,1,,,,,,,,,1,,,72,44
94080,note_on,0,0,5,,,,,,,,,5,,,39,44
94080,control_change,60,0,4,,,,,,,64,0,4,,,,
94080,control_change,1160,0,3,,,,,,,64,0,3,,,,
94080,control_change,240,0,5,,,,,,,64,0,5,,,,
94120,control_change,40,0,3,,,,,,,64,127,3,,,,
94120,control_change,40,0,5,,,,,,,64,127,5,,,,
94120,control_change,40,0,1,,,,,,,64,127,1,,,,
94140,note_on,20,0,3,,,,,,,,,3,,,67,44
94140,note_off,20,0,1,,,,,,,,,1,,,72,0
94200,note_on,0,0,3,,,,,,,,,3,,,60,45
94200,note_off,60,0,3,,,,,,,,,3,,,67,0
94260,note_off,60,0,3,,,,,,,,,3,,,60,0
94260,note_on,120,0,1,,,,,,,,,1,,,72,45
94280,set_tempo,260,1,0,,,,,,1052631,,,,,,,
94320,control_change,60,0,1,,,,,,,64,0,1,,,,
94320,note_off,0,0,1,,,,,,,,,1,,,72,0
94320,note_on,0,0,1,,,,,,,,,1,,,70,46
94320,note_on,0,0,5,,,,,,,,,5,,,37,46
94320,note_off,0,0,5,,,,,,,,,5,,,39,0
94320,set_tempo,40,1,0,,,,,,1034482,,,,,,,
94320,control_change,200,0,5,,,,,,,64,0,5,,,,
94320,control_change,60,0,3,,,,,,,64,0,3,,,,
94360,control_change,40,0,5,,,,,,,64,127,5,,,,
94360,control_change,40,0,3,,,,,,,64,127,3,,,,
94360,control_change,40,0,1,,,,,,,64,127,1,,,,
94380,note_on,20,0,3,,,,,,,,,3,,,65,46
94380,note_off,20,0,1,,,,,,,,,1,,,70,0
94440,note_on,0,0,3,,,,,,,,,3,,,58,46
94440,note_off,60,0,3,,,,,,,,,3,,,65,0
94500,note_on,0,0,3,,,,,,,,,3,,,52,47
94500,note_off,60,0,3,,,,,,,,,3,,,58,0
94560,note_off,60,0,3,,,,,,,,,3,,,52,0
94560,note_off,200,0,5,,,,,,,,,5,,,37,0
94560,note_on,0,0,3,,,,,,,,,3,,,53,47
94620,note_off,60,0,3,,,,,,,,,3,,,53,0
94620,note_on,0,0,3,,,,,,,,,3,,,58,47
94680,note_on,0,0,3,,,,,,,,,3,,,65,48
94680,note_off,60,0,3,,,,,,,,,3,,,58,0
94740,note_on,360,0,1,,,,,,,,,1,,,70,48
94740,note_off,60,0,3,,,,,,,,,3,,,65,0
94800,note_on,0,0,1,,,,,,,,,1,,,72,49
94800,note_off,0,0,1,,,,,,,,,1,,,70,0
94800,control_change,60,0,1,,,,,,,64,0,1,,,,
94800,control_change,240,0,5,,,,,,,64,0,5,,,,
94800,note_on,0,0,5,,,,,,,,,5,,,39,49
94800,control_change,60,0,3,,,,,,,64,0,3,,,,
94840,control_change,40,0,1,,,,,,,64,127,1,,,,
94840,control_change,40,0,3,,,,,,,64,127,3,,,,
94840,control_change,40,0,5,,,,,,,64,127,5,,,,
94860,note_off,20,0,1,,,,,,,,,1,,,72,0
94860,note_on,20,0,3,,,,,,,,,3,,,67,49
94920,note_off,60,0,3,,,,,,,,,3,,,67,0
94920,note_on,0,0,3,,,,,,,,,3,,,60,49
94980,note_off,60,0,3,,,,,,,,,3,,,60,0
94980,note_on,120,0,1,,,,,,,,,1,,,72,50
95000,set_tempo,680,1,0,,,,,,1052631,,,,,,,
95040,control_change,60,0,3,,,,,,,64,0,3,,,,
95040,control_change,200,0,5,,,,,,,64,0,5,,,,
95040,set_tempo,40,1,0,,,,,,1034482,,,,,,,
95040,note_on,0,0,5,,,,,,,,,5,,,37,50
95040,note_off,0,0,5,,,,,,,,,5,,,39,0
95040,control_change,60,0,1,,,,,,,64,0,1,,,,
95040,note_on,0,0,1,,,,,,,,,1,,,77,50
95040,note_off,0,0,1,,,,,,,,,1,,,72,0
95080,control_change,40,0,1,,,,,,,64,127,1,,,,
95080,control_change,40,0,3,,,,,,,64,127,3,,,,
95080,control_change,40,0,5,,,,,,,64,127,5,,,,
95100,note_off,20,0,1,,,,,,,,,1,,,77,0
95100,note_on,20,0,3,,,,,,,,,3,,,72,50
95160,note_off,60,0,3,,,,,,,,,3,,,72,0
95160,note_on,0,0,3,,,,,,,,,3,,,65,51
95220,note_off,60,0,3,,,,,,,,,3,,,65,0
95220,note_on,0,0,3,,,,,,,,,3,,,57,51
95280,note_off,60,0,3,,,,,,,,,3,,,57,0
95280,note_on,0,0,3,,,,,,,,,3,,,58,52
95280,note_off,200,0,5,,,,,,,,,5,,,37,0
95340,note_off,60,0,3,,,,,,,,,3,,,58,0
95340,note_on,0,0,3,,,,,,,,,3,,,65,52
95400,note_off,60,0,3,,,,,,,,,3,,,65,0
95400,note_on,0,0,3,,,,,,,,,3,,,70,52
95460,note_off,60,0,3,,,,,,,,,3,,,70,0
95460,note_on,360,0,1,,,,,,,,,1,,,77,53
95520,note_on,0,0,5,,,,,,,,,5,,,36,53
95520,control_change,60,0,3,,,,,,,64,0,3,,,,
95520,control_change,60,0,1,,,,,,,64,0,1,,,,
95520,note_off,0,0,1,,,,,,,,,1,,,77,0
95520,note_on,0,0,1,,,,,,,,,1,,,82,53
95520,control_change,240,0,5,,,,,,,64,0,5,,,,
95560,control_change,40,0,3,,,,,,,64,127,3,,,,
95560,control_change,40,0,5,,,,,,,64,127,5,,,,
95560,control_change,40,0,1,,,,,,,64,127,1,,,,
95580,note_off,20,0,1,,,,,,,,,1,,,82,0
95580,note_on,20,0,3,,,,,,,,,3,,,76,53
95640,note_on,0,0,3,,,,,,,,,3,,,70,54
95640,note_off,60,0,3,,,,,,,,,3,,,76,0
95700,note_on,120,0,1,,,,,,,,,1,,,82,54
95700,note_off,60,0,3,,,,,,,,,3,,,70,0
95720,set_tempo,680,1,0,,,,,,1052631,,,,,,,
95760,control_change,200,0,5,,,,,,,64,0,5,,,,
95760,note_on,0,0,1,,,,,,,,,1,,,81,55
95760,control_change,60,0,3,,,,,,,64,0,3,,,,
95760,control_change,60,0,1,,,,,,,64,0,1,,,,
95760,note_off,0,0,5,,,,,,,,,5,,,36,0
95760,note_on,0,0,5,,,,,,,,,5,,,41,55
95760,set_tempo,40,1,0,,,,,,1034482,,,,,,,
95760,note_off,0,0,1,,,,,,,,,1,,,82,0
95800,control_change,40,0,1,,,,,,,64,127,1,,,,
95800,control_change,40,0,3,,,,,,,64,127,3,,,,
95800,control_change,40,0,5,,,,,,,64,127,5,,,,
95820,note_off,20,0,1,,,,,,,,,1,,,81,0
95820,note_on,20,0,3,,,,,,,,,3,,,75,55
95880,note_on,0,0,3,,,,,,,,,3,,,69,55
95880,note_off,60,0,3,,,,,,,,,3,,,75,0
95940,note_on,0,0,3,,,,,,,,,3,,,59,56
95940,note_off,60,0,3,,,,,,,,,3,,,69,0
96000,note_off,60,0,3,,,,,,,,,3,,,59,0
96000,note_on,0,0,3,,,,,,,,,3,,,60,56
96000,note_off,200,0,5,,,,,,,,,5,,,41,0
96060,note_off,60,0,3,,,,,,,,,3,,,60,0
96060,note_on,0,0,3,,,,,,,,,3,,,63,57
96120,note_off,60,0,3,,,,,,,,,3,,,63,0
96120,note_on,0,0,3,,,,,,,,,3,,,72,57
96180,note_off,60,0,3,,,,,,,,,3,,,72,0
96180,note_on,360,0,1,,,,,,,,,1,,,77,57
96240,control_change,60,0,1,,,,,,,64,0,1,,,,
96240,note_off,0,0,1,,,,,,,,,1,,,77,0
96240,note_on,0,0,1,,,,,,,,,1,,,80,58
96240,control_change,240,0,5,,,,,,,64,0,5,,,,
96240,note_on,0,0,5,,,,,,,,,5,,,34,58
96240,control_change,60,0,3,,,,,,,64,0,3,,,,
96280,control_change,40,0,1,,,,,,,64,127,1,,,,
96280,control_change,40,0,5,,,,,,,64,127,5,,,,
96280,control_change,40,0,3,,,,,,,64,127,3,,,,
96300,note_off,20,0,1,,,,,,,,,1,,,80,0
96300,note_on,20,0,3,,,,,,,,,3,,,74,58
96360,note_off,60,0,3,,,,,,,,,3,,,74,0
96360,note_on,0,0,3,,,,,,,,,3,,,68,58
96420,note_on,120,0,1,,,,,,,,,1,,,80,59
96420,note_off,60,0,3,,,,,,,,,3,,,68,0
96440,set_tempo,680,1,0,,,,,,1052631,,,,,,,
96480,note_on,0,0,1,,,,,,,,,1,,,79,59
96480,note_off,0,0,1,,,,,,,,,1,,,80,0
96480,control_change,60,0,1,,,,,,,64,0,1,,,,
96480,control_change,60,0,3,,,,,,,64,0,3,,,,
96480,set_tempo,40,1,0,,,,,,1034482,,,,,,,
96480,note_on,0,0,5,,,,,,,,,5,,,39,59
96480,control_change,200,0,5,,,,,,,64,0,5,,,,
96480,note_off,0,0,5,,,,,,,,,5,,,34,0
96520,control_change,40,0,3,,,,,,,64,127,3,,,,
96520,control_change,40,0,5,,,,,,,64,127,5,,,,
96520,control_change,40,0,1,,,,,,,64,127,1,,,,
96540,note_on,20,0,3,,,,,,,,,3,,,73,60
96540,note_off,20,0,1,,,,,,,,,1,,,79,0
96600,note_off,60,0,3,,,,,,,,,3,,,73,0
96600,note_on,0,0,3,,,,,,,,,3,,,67,60
96660,note_off,60,0,3,,,,,,,,,3,,,67,0
96660,note_on,0,0,3,,,,,,,,,3,,,57,60
96720,note_off,200,0,5,,,,,,,,,5,,,39,0
96720,note_off,60,0,3,,,,,,,,,3,,,57,0
96720,note_on,0,0,3,,,,,,,,,3,,,58,61
96780,note_off,60,0,3,,,,,,,,,3,,,58,0
96780,note_on,0,0,3,,,,,,,,,3,,,61,61
96840,note_on,0,0,3,,,,,,,,,3,,,70,61
96840,note_off,60,0,3,,,,,,,,,3,,,61,0
96900,note_on,360,0,1,,,,,,,,,1,,,75,62
96900,note_off,60,0,3,,,,,,,,,3,,,70,0
96960,note_on,0,0,1,,,,,,,,,1,,,78,62
96960,control_change,60,0,3,,,,,,,64,0,3,,,,
96960,control_change,60,0,1,,,,,,,64,0,1,,,,
96960,note_on,0,0,5,,,,,,,,,5,,,32,62
96960,control_change,240,0,5,,,,,,,64,0,5,,,,
96960,note_off,0,0,1,,,,,,,,,1,,,75,0
97000,control_change,40,0,1,,,,,,,64,127,1,,,,
97000,control_change,40,0,3,,,,,,,64,127,3,,,,
97000,control_change,40,0,5,,,,,,,64,127,5,,,,
97020,note_on,20,0,3,,,,,,,,,3,,,72,63
97020,note_off,20,0,1,,,,,,,,,1,,,78,0
97080,note_off,60,0,3,,,,,,,,,3,,,72,0
97080,note_on,0,0,3,,,,,,,,,3,,,66,63
97140,note_off,60,0,3,,,,,,,,,3,,,66,0
97140,note_on,120,0,1,,,,,,,,,1,,,78,63
97160,set_tempo,680,1,0,,,,,,1052631,,,,,,,
97200,control_change,60,0,3,,,,,,,64,0,3,,,,
97200,set_tempo,40,1,0,,,,,,1034482,,,,,,,
97200,note_off,0,0,1,,,,,,,,,1,,,78,0
97200,note_on,0,0,1,,,,,,,,,1,,,77,64
97200,control_change,60,0,1,,,,,,,64,0,1,,,,
97200,note_on,0,0,5,,,,,,,,,5,,,37,64
97200,note_off,0,0,5,,,,,,,,,5,,,32,0
97200,control_change,200,0,5,,,,,,,64,0,5,,,,
97240,control_change,40,0,3,,,,,,,64,127,3,,,,
97240,control_change,40,0,1,,,,,,,64,127,1,,,,
97240,control_change,40,0,5,,,,,,,64,127,5,,,,
97260,note_off,20,0,1,,,,,,,,,1,,,77,0
97260,note_on,20,0,3,,,,,,,,,3,,,71,64
97320,note_on,0,0,3,,,,,,,,,3,,,65,65
97320,note_off,60,0,3,,,,,,,,,3,,,71,0
97380,note_off,60,0,3,,,,,,,,,3,,,65,0
97380,note_on,120,0,1,,,,,,,,,1,,,75,65
97440,note_on,0,0,5,,,,,,,,,5,,,49,65
97440,note_off,200,0,5,,,,,,,,,5,,,37,0
97440,note_off,60,0,1,,,,,,,,,1,,,75,0
97440,note_on,0,0,1,,,,,,,,,1,,,73,65
97500,note_on,120,0,3,,,,,,,,,3,,,71,66
97500,note_off,60,0,1,,,,,,,,,1,,,73,0
97560,note_off,60,0,3,,,,,,,,,3,,,71,0
97560,note_on,0,0,3,,,,,,,,,3,,,65,66
97620,note_on,0,0,3,,,,,,,,,3,,,55,66
97620,note_off,60,0,3,,,,,,,,,3,,,65,0
97680,note_off,60,0,3,,,,,,,,,3,,,55,0
97680,note_off,240,0,5,,,,,,,,,5,,,49,0
97680,note_on,0,0,3,,,,,,,,,3,,,56,67
97740,note_off,60,0,3,,,,,,,,,3,,,56,0
97740,note_on,0,0,3,,,,,,,,,3,,,59,67
97800,note_on,0,0,3,,,,,,,,,3,,,68,68
97800,note_off,60,0,3,,,,,,,,,3,,,59,0
97860,note_on,360,0,1,,,,,,,,,1,,,76,68
97860,note_off,60,0,3,,,,,,,,,3,,,68,0
97880,set_tempo,680,1,0,,,,,,1052631,,,,,,,
97920,control_change,60,0,3,,,,,,,64,0,3,,,,
97920,note_off,0,0,1,,,,,,,,,1,,,76,0
97920,note_on,0,0,1,,,,,,,,,1,,,77,68
97920,set_tempo,40,1,0,,,,,,1034482,,,,,,,
97920,control_change,240,0,5,,,,,,,64,0,5,,,,
97920,note_on,0,0,5,,,,,,,,,5,,,36,68
97920,control_change,60,0,1,,,,,,,64,0,1,,,,
97960,control_change,40,0,3,,,,,,,64,127,3,,,,
97960,control_change,40,0,5,,,,,,,64,127,5,,,,
97960,control_change,40,0,1,,,,,,,64,127,1,,,,
97980,note_on,20,0,3,,,,,,,,,3,,,68,69
97980,note_off,20,0,1,,,,,,,,,1,,,77,0
98040,note_off,60,0,3,,,,,,,,,3,,,68,0
98040,note_on,0,0,3,,,,,,,,,3,,,65,69
98100,note_off,60,0,3,,,,,,,,,3,,,65,0
98100,note_on,120,0,1,,,,,,,,,1,,,73,69
98160,note_off,200,0,5,,,,,,,,,5,,,36,0
98160,note_on,0,0,5,,,,,,,,,5,,,48,70
98160,note_on,0,0,1,,,,,,,,,1,,,72,70
98160,note_off,60,0,1,,,,,,,,,1,,,73,0
98220,note_off,60,0,1,,,,,,,,,1,,,72,0
98220,note_on,120,0,3,,,,,,,,,3,,,68,70
98280,note_on,0,0,3,,,,,,,,,3,,,65,71
98280,note_off,60,0,3,,,,,,,,,3,,,68,0
98340,note_on,0,0,3,,,,,,,,,3,,,52,71
98340,note_off,60,0,3,,,,,,,,,3,,,65,0
98400,note_off,240,0,5,,,,,,,,,5,,,48,0
98400,note_off,60,0,3,,,,,,,,,3,,,52,0
98400,note_on,0,0,3,,,,,,,,,3,,,53,71
98460,note_off,60,0,3,,,,,,,,,3,,,53,0
98460,note_on,0,0,3,,,,,,,,,3,,,56,72
98520,note_off,60,0,3,,,,,,,,,3,,,56,0
98520,note_on,0,0,3,,,,,,,,,3,,,65,72
98580,note_on,360,0,1,,,,,,,,,1,,,72,72
98580,note_off,60,0,3,,,,,,,,,3,,,65,0
98600,set_tempo,680,1,0,,,,,,1052631,,,,,,,
98640,note_off,0,0,1,,,,,,,,,1,,,72,0
98640,control_change,60,0,1,,,,,,,64,0,1,,,,
98640,set_tempo,40,1,0,,,,,,1034482,,,,,,,
98640,control_change,60,0,3,,,,,,,64,0,3,,,,
98640,note_on,0,0,1,,,,,,,,,1,,,73,73
98640,control_change,240,0,5,,,,,,,64,0,5,,,,
98680,control_change,40,0,5,,,,,,,64,127,5,,,,
98680,control_change,40,0,1,,,,,,,64,127,1,,,,
98680,control_change,40,0,3,,,,,,,64,127,3,,,,
98700,note_on,20,0,3,,,,,,,,,3,,,67,73
98760,note_off,60,0,3,,,,,,,,,3,,,67,0
98760,note_on,0,0,3,,,,,,,,,3,,,64,74
98820,note_on,140,0,5,,,,,,,,,5,,,60,74
98820,note_off,60,0,3,,,,,,,,,3,,,64,0
98880,note_off,0,0,5,,,,,,,,,5,,,60,0
98880,control_change,200,0,1,,,,,,,64,0,1,,,,
98880,note_off,0,0,1,,,,,,,,,1,,,73,0
98880,note_on,0,0,1,,,,,,,,,1,,,70,74
98880,control_change,60,0,3,,,,,,,64,0,3,,,,
98880,control_change,60,0,5,,,,,,,64,0,5,,,,
98920,control_change,40,0,5,,,,,,,64,127,5,,,,
98920,control_change,40,0,3,,,,,,,64,127,3,,,,
98920,control_change,40,0,1,,,,,,,64,127,1,,,,
98940,note_on,20,0,3,,,,,,,,,3,,,67,75
99000,note_on,0,0,3,,,,,,,,,3,,,61,75
99000,note_off,60,0,3,,,,,,,,,3,,,67,0
99060,note_on,140,0,5,,,,,,,,,5,,,60,76
99060,note_off,60,0,3,,,,,,,,,3,,,61,0
99120,note_on,0,0,1,,,,,,,,,1,,,67,76
99120,control_change,60,0,3,,,,,,,64,0,3,,,,
99120,control_change,60,0,5,,,,,,,64,0,5,,,,
99120,note_off,0,0,1,,,,,,,,,1,,,70,0
99120,control_change,200,0,1,,,,,,,64,0,1,,,,
99120,note_off,0,0,5,,,,,,,,,5,,,60,0
99160,control_change,40,0,3,,,,,,,64,127,3,,,,
99160,control_change,40,0,1,,,,,,,64,127,1,,,,
99160,control_change,40,0,5,,,,,,,64,127,5,,,,
99180,note_on,20,0,3,,,,,,,,,3,,,64,76
99240,note_off,60,0,3,,,,,,,,,3,,,64,0
99240,note_on,0,0,3,,,,,,,,,3,,,58,77
99300,note_on,140,0,5,,,,,,,,,5,,,60,77
99300,note_off,60,0,3,,,,,,,,,3,,,58,0
99320,set_tempo,680,1,0,,,,,,1052631,,,,,,,
99360,set_tempo,40,1,0,,,,,,1034482,,,,,,,
99360,note_off,0,0,5,,,,,,,,,5,,,60,0
99360,control_change,60,0,3,,,,,,,64,0,3,,,,
99360,control_change,200,0,1,,,,,,,64,0,1,,,,
99360,note_off,0,0,1,,,,,,,,,1,,,67,0
99360,note_on,0,0,1,,,,,,,,,1,,,70,79
99360,control_change,60,0,5,,,,,,,64,0,5,,,,
99400,control_change,40,0,3,,,,,,,64,127,3,,,,
99400,control_change,40,0,5,,,,,,,64,127,5,,,,
99400,control_change,40,0,1,,,,,,,64,127,1,,,,
99420,note_off,20,0,1,,,,,,,,,1,,,70,0
99420,note_on,20,0,5,,,,,,,,,5,,,65,78
99480,note_off,60,0,5,,,,,,,,,5,,,65,0
99480,note_on,0,0,5,,,,,,,,,5,,,60,77
99540,note_on,0,0,5,,,,,,,,,5,,,53,77
99540,note_off,60,0,5,,,,,,,,,5,,,60,0
99600,note_on,0,0,5,,,,,,,,,5,,,48,76
99600,note_off,60,0,5,,,,,,,,,5,,,53,0
99660,note_on,0,0,5,,,,,,,,,5,,,44,75
99660,note_off,60,0,5,,,,,,,,,5,,,48,0
99720,note_off,60,0,5,,,,,,,,,5,,,44,0
99720,note_on,0,0,5,,,,,,,,,5,,,41,74
99720,note_on,320,0,3,,,,,,,,,3,,,68,74
99780,note_off,60,0,3,,,,,,,,,3,,,68,0
99780,note_off,60,0,5,,,,,,,,,5,,,41,0
99780,note_on,0,0,5,,,,,,,,,5,,,36,74
99780,note_on,360,0,1,,,,,,,,,1,,,80,74
99840,note_off,0,0,5,,,,,,,,,5,,,36,0
99840,control_change,60,0,3,,,,,,,64,0,3,,,,
99840,note_on,0,0,5,,,,,,,,,5,,,32,73
99840,control_change,60,0,5,,,,,,,64,0,5,,,,
99840,note_on,0,0,1,,,,,,,,,1,,,78,73
99840,note_off,0,0,1,,,,,,,,,1,,,80,0
99840,control_change,60,0,1,,,,,,,64,0,1,,,,
99880,control_change,40,0,1,,,,,,,64,127,1,,,,
99880,control_change,40,0,5,,,,,,,64,127,5,,,,
99880,control_change,40,0,3,,,,,,,64,127,3,,,,
99900,note_off,20,0,1,,,,,,,,,1,,,78,0
99900,note_on,0,0,5,,,,,,,,,5,,,44,72
99900,note_off,20,0,5,,,,,,,,,5,,,32,0
99900,note_on,20,0,3,,,,,,,,,3,,,72,72
99960,note_off,60,0,3,,,,,,,,,3,,,72,0
99960,note_off,60,0,5,,,,,,,,,5,,,44,0
99960,note_on,0,0,3,,,,,,,,,3,,,66,71
100020,note_on,120,0,1,,,,,,,,,1,,,78,71
100020,note_off,60,0,3,,,,,,,,,3,,,66,0
100040,set_tempo,680,1,0,,,,,,1052631,,,,,,,
100080,note_on,0,0,1,,,,,,,,,1,,,77,70
100080,control_change,60,0,3,,,,,,,64,0,3,,,,
100080,control_change,120,0,5,,,,,,,64,0,5,,,,
100080,note_off,0,0,1,,,,,,,,,1,,,78,0
100080,control_change,60,0,1,,,,,,,64,0,1,,,,
100080,note_on,0,0,5,,,,,,,,,5,,,37,70
100080,set_tempo,40,1,0,,,,,,1034482,,,,,,,
100120,control_change,40,0,1,,,,,,,64,127,1,,,,
100120,control_change,40,0,3,,,,,,,64,127,3,,,,
100120,control_change,40,0,5,,,,,,,64,127,5,,,,
100140,note_on,20,0,3,,,,,,,,,3,,,71,69
100140,note_off,20,0,5,,,,,,,,,5,,,37,0
100140,note_off,20,0,1,,,,,,,,,1,,,77,0
100200,note_off,60,0,3,,,,,,,,,3,,,71,0
100200,note_on,0,0,3,,,,,,,,,3,,,65,68
100260,note_off,60,0,3,,,,,,,,,3,,,65,0
100260,note_on,120,0,1,,,,,,,,,1,,,75,68
100320,note_on,0,0,1,,,,,,,,,1,,,73,67
100320,note_off,60,0,1,,,,,,,,,1,,,75,0
100320,note_on,180,0,5,,,,,,,,,5,,,49,67
100380,note_on,120,0,3,,,,,,,,,3,,,71,66
100380,note_off,60,0,1,,,,,,,,,1,,,73,0
100380,note_off,60,0,5,,,,,,,,,5,,,49,0
100440,note_off,60,0,3,,,,,,,,,3,,,71,0
100440,note_on,0,0,3,,,,,,,,,3,,,65,65
100500,note_on,0,0,3,,,,,,,,,3,,,55,65
100500,note_off,60,0,3,,,,,,,,,3,,,65,0
100560,note_off,60,0,3,,,,,,,,,3,,,55,0
100560,note_on,0,0,3,,,,,,,,,3,,,56,64
100620,note_on,0,0,3,,,,,,,,,3,,,59,63
100620,note_off,60,0,3,,,,,,,,,3,,,56,0
100680,note_off,60,0,3,,,,,,,,,3,,,59,0
100680,note_on,0,0,3,,,,,,,,,3,,,68,62
100740,note_off,60,0,3,,,,,,,,,3,,,68,0
100740,note_on,360,0,1,,,,,,,,,1,,,74,61
100760,set_tempo,680,1,0,,,,,,1052631,,,,,,,
100800,control_change,60,0,3,,,,,,,64,0,3,,,,
100800,control_change,60,0,1,,,,,,,64,0,1,,,,
100800,control_change,420,0,5,,,,,,,64,0,5,,,,
100800,note_on,0,0,5,,,,,,,,,5,,,37,61
100800,note_off,0,0,1,,,,,,,,,1,,,74,0
100800,note_on,0,0,1,,,,,,,,,1,,,73,61
100800,set_tempo,40,1,0,,,,,,1034482,,,,,,,
100840,control_change,40,0,5,,,,,,,64,127,5,,,,
100840,control_change,40,0,1,,,,,,,64,127,1,,,,
100840,control_change,40,0,3,,,,,,,64,127,3,,,,
100860,note_off,20,0,5,,,,,,,,,5,,,37,0
100860,note_on,20,0,3,,,,,,,,,3,,,68,60
100860,note_off,20,0,1,,,,,,,,,1,,,73,0
100920,note_off,60,0,3,,,,,,,,,3,,,68,0
100920,note_on,0,0,3,,,,,,,,,3,,,65,59
100980,note_off,60,0,3,,,,,,,,,3,,,65,0
100980,note_on,120,0,1,,,,,,,,,1,,,72,58
101040,note_on,0,0,1,,,,,,,,,1,,,71,58
101040,note_off,60,0,1,,,,,,,,,1,,,72,0
101040,note_on,180,0,5,,,,,,,,,5,,,49,58
101100,note_off,60,0,1,,,,,,,,,1,,,71,0
101100,note_off,60,0,5,,,,,,,,,5,,,49,0
101100,note_on,120,0,3,,,,,,,,,3,,,68,57
101160,note_on,0,0,3,,,,,,,,,3,,,62,56
101160,note_off,60,0,3,,,,,,,,,3,,,68,0
101220,note_on,0,0,3,,,,,,,,,3,,,52,55
101220,note_off,60,0,3,,,,,,,,,3,,,62,0
101280,note_on,0,0,3,,,,,,,,,3,,,53,55
101280,note_off,60,0,3,,,,,,,,,3,,,52,0
101340,note_on,0,0,3,,,,,,,,,3,,,56,54
101340,note_off,60,0,3,,,,,,,,,3,,,53,0
101400,note_on,0,0,3,,,,,,,,,3,,,65,53
101400,note_off,60,0,3,,,,,,,,,3,,,56,0
101460,note_off,60,0,3,,,,,,,,,3,,,65,0
101460,note_on,360,0,1,,,,,,,,,1,,,73,52
101480,set_tempo,680,1,0,,,,,,1052631,,,,,,,
101520,control_change,420,0,5,,,,,,,64,0,5,,,,
101520,control_change,60,0,3,,,,,,,64,0,3,,,,
101520,set_tempo,40,1,0,,,,,,1034482,,,,,,,
101520,control_change,60,0,1,,,,,,,64,0,1,,,,
101520,note_off,0,0,1,,,,,,,,,1,,,73,0
101520,note_on,0,0,1,,,,,,,,,1,,,71,52
101560,control_change,40,0,3,,,,,,,64,127,3,,,,
101560,control_change,40,0,5,,,,,,,64,127,5,,,,
101560,control_change,40,0,1,,,,,,,64,127,1,,,,
101580,note_on,20,0,3,,,,,,,,,3,,,68,51
101640,note_off,60,0,3,,,,,,,,,3,,,68,0
101640,note_on,0,0,3,,,,,,,,,3,,,62,50
101700,note_off,60,0,3,,,,,,,,,3,,,62,0
101700,note_on,140,0,5,,,,,,,,,5,,,30,49
101760,control_change,60,0,3,,,,,,,64,0,3,,,,
101760,note_off,0,0,1,,,,,,,,,1,,,71,0
101760,note_on,0,0,1,,,,,,,,,1,,,69,49
101760,control_change,200,0,1,,,,,,,64,0,1,,,,
101760,note_off,0,0,5,,,,,,,,,5,,,30,0
101760,control_change,60,0,5,,,,,,,64,0,5,,,,
101800,control_change,40,0,3,,,,,,,64,127,3,,,,
101800,control_change,40,0,5,,,,,,,64,127,5,,,,
101800,control_change,40,0,1,,,,,,,64,127,1,,,,
101820,note_on,20,0,3,,,,,,,,,3,,,66,48
101880,note_off,60,0,3,,,,,,,,,3,,,66,0
101880,note_on,0,0,3,,,,,,,,,3,,,61,47
101940,note_off,60,0,3,,,,,,,,,3,,,61,0
101940,note_on,140,0,5,,,,,,,,,5,,,30,46
102000,note_off,0,0,1,,,,,,,,,1,,,69,0
102000,control_change,200,0,1,,,,,,,64,0,1,,,,
102000,control_change,60,0,5,,,,,,,64,0,5,,,,
102000,note_off,0,0,5,,,,,,,,,5,,,30,0
102000,note_on,0,0,1,,,,,,,,,1,,,68,46
102000,control_change,60,0,3,,,,,,,64,0,3,,,,
102040,control_change,40,0,5,,,,,,,64,127,5,,,,
102040,control_change,40,0,1,,,,,,,64,127,1,,,,
102040,control_change,40,0,3,,,,,,,64,127,3,,,,
102060,note_on,20,0,3,,,,,,,,,3,,,65,45
102120,note_off,60,0,3,,,,,,,,,3,,,65,0
102120,note_on,0,0,3,,,,,,,,,3,,,59,44
102180,note_off,60,0,3,,,,,,,,,3,,,59,0
102180,note_on,140,0,5,,,,,,,,,5,,,30,43
102200,set_tempo,680,1,0,,,,,,1052631,,,,,,,
102240,control_change,60,0,5,,,,,,,64,0,5,,,,
102240,note_off,0,0,5,,,,,,,,,5,,,30,0
102240,set_tempo,40,1,0,,,,,,1034482,,,,,,,
102240,control_change,200,0,1,,,,,,,64,0,1,,,,
102240,note_on,0,0,1,,,,,,,,,1,,,66,43
102240,note_off,0,0,1,,,,,,,,,1,,,68,0
102240,control_change,60,0,3,,,,,,,64,0,3,,,,
102280,control_change,40,0,5,,,,,,,64,127,5,,,,
102280,control_change,40,0,1,,,,,,,64,127,1,,,,
102280,control_change,40,0,3,,,,,,,64,127,3,,,,
102300,note_on,20,0,5,,,,,,,,,5,,,62,42
102360,note_off,60,0,5,,,,,,,,,5,,,62,0
102360,note_on,0,0,5,,,,,,,,,5,,,57,41
102420,note_off,60,0,5,,,,,,,,,5,,,57,0
102420,note_on,0,0,5,,,,,,,,,5,,,54,40
102480,note_off,60,0,5,,,,,,,,,5,,,54,0
102480,note_on,0,0,5,,,,,,,,,5,,,50,40
102480,note_off,200,0,1,,,,,,,,,1,,,66,0
102540,note_off,60,0,5,,,,,,,,,5,,,50,0
102540,note_on,0,0,5,,,,,,,,,5,,,45,39
102600,note_on,0,0,5,,,,,,,,,5,,,42,38
102600,note_off,60,0,5,,,,,,,,,5,,,45,0
102660,note_on,0,0,5,,,,,,,,,5,,,38,37
102660,note_off,60,0,5,,,,,,,,,5,,,42,0
102720,note_off,60,0,5,,,,,,,,,5,,,38,0
102720,note_on,0,0,5,,,,,,,,,5,,,33,37
102780,note_off,60,0,5,,,,,,,,,5,,,33,0
102780,note_on,0,0,5,,,,,,,,,5,,,30,36
102840,note_on,0,0,5,,,,,,,,,5,,,33,35
102840,note_off,60,0,5,,,,,,,,,5,,,30,0
102900,note_off,60,0,5,,,,,,,,,5,,,33,0
102900,set_tempo,660,1,0,,,,,,1071428,,,,,,,
102900,note_on,0,0,5,,,,,,,,,5,,,38,34
102960,note_on,0,0,5,,,,,,,,,5,,,42,34
102960,note_off,60,0,5,,,,,,,,,5,,,38,0
103040,note_off,80,0,5,,,,,,,,,5,,,42,0
103040,note_on,760,0,3,,,,,,,,,3,,,45,33
103080,set_tempo,180,1,0,,,,,,1111111,,,,,,,
103120,note_off,80,0,3,,,,,,,,,3,,,45,0
103120,note_on,0,0,3,,,,,,,,,3,,,50,32
103140,set_tempo,60,1,0,,,,,,1176470,,,,,,,
103200,note_on,0,0,3,,,,,,,,,3,,,54,31
103200,note_off,80,0,3,,,,,,,,,3,,,50,0
103200,set_tempo,60,1,0,,,,,,750000,,,,,,,
103320,note_off,120,0,3,,,,,,,,,3,,,54,0
103980,control_change,660,0,3,,,,,,,64,0,3,,,,
103980,control_change,940,0,5,,,,,,,64,0,5,,,,
103980,control_change,1500,0,1,,,,,,,64,0,1,,,,
103980,control_change,18540,0,2,,,,,,,64,0,2,,,,
103980,control_change,9900,0,4,,,,,,,64,0,4,,,,
104040,set_tempo,840,1,0,,,,,,1034482,,,,,,,
104040,note_on,0,0,5,,,,,,,,,5,,,32,49
104040,note_on,0,0,2,,,,,,,,,2,,,56,49
104040,control_change,60,0,4,,,,,,,64,0,4,,,,
104040,control_change,60,0,1,,,,,,,64,0,1,,,,
104040,note_on,0,0,1,,,,,,,,,1,,,65,49
104040,control_change,60,0,5,,,,,,,64,0,5,,,,
104040,note_on,0,0,2,,,,,,,,,2,,,60,49
104040,control_change,60,0,2,,,,,,,64,0,2,,,,
104040,control_change,60,0,3,,,,,,,64,0,3,,,,
104160,note_off,120,0,1,,,,,,,,,1,,,65,0
104160,note_off,120,0,2,,,,,,,,,2,,,56,0
104160,note_on,0,0,1,,,,,,,,,1,,,63,48
104160,note_on,0,0,2,,,,,,,,,2,,,54,48
104280,note_off,120,0,2,,,,,,,,,2,,,54,0
104280,note_on,0,0,1,,,,,,,,,1,,,63,46
104280,note_off,120,0,1,,,,,,,,,1,,,63,0
104280,note_off,0,0,2,,,,,,,,,2,,,60,0
104280,note_on,0,0,2,,,,,,,,,2,,,54,46
104280,note_on,0,0,2,,,,,,,,,2,,,60,46
104280,note_on,240,0,5,,,,,,,,,5,,,37,46
104295,note_off,15,0,5,,,,,,,,,5,,,32,0
104360,set_tempo,320,1,0,,,,,,1052631,,,,,,,
104400,note_on,0,0,2,,,,,,,,,2,,,53,44
104400,note_off,105,0,5,,,,,,,,,5,,,37,0
104400,note_on,0,0,5,,,,,,,,,5,,,37,44
104400,note_off,120,0,1,,,,,,,,,1,,,63,0
104400,note_on,0,0,1,,,,,,,,,1,,,61,44
104400,note_off,120,0,2,,,,,,,,,2,,,60,0
104400,set_tempo,40,1,0,,,,,,1034482,,,,,,,
104400,note_off,0,0,2,,,,,,,,,2,,,54,0
104520,note_on,120,0,5,,,,,,,,,5,,,43,45
104640,note_off,120,0,5,,,,,,,,,5,,,43,0
104640,note_on,0,0,5,,,,,,,,,5,,,44,45
104760,note_on,0,0,2,,,,,,,,,2,,,65,51
104760,note_off,360,0,2,,,,,,,,,2,,,53,0
104760,note_off,360,0,1,,,,,,,,,1,,,61,0
104760,note_on,0,0,1,,,,,,,,,1,,,73,51
104760,note_on,720,0,4,,,,,,,,,4,,,56,51
104760,note_off,120,0,5,,,,,,,,,5,,,37,0
104880,note_on,0,0,1,,,,,,,,,1,,,75,49
104880,note_on,0,0,2,,,,,,,,,2,,,66,49
104880,note_on,0,0,2,,,,,,,,,2,,,72,49
104880,note_off,120,0,1,,,,,,,,,1,,,73,0
104880,note_off,120,0,2,,,,,,,,,2,,,65,0
105000,note_off,0,0,2,,,,,,,,,2,,,66,0
105000,note_on,0,0,1,,,,,,,,,1,,,75,47
105000,note_off,120,0,1,,,,,,,,,1,,,75,0
105000,note_on,0,0,2,,,,,,,,,2,,,72,47
105000,note_off,120,0,2,,,,,,,,,2,,,72,0
105000,note_on,0,0,5,,,,,,,,,5,,,49,47
105000,note_off,240,0,5,,,,,,,,,5,,,44,0
105000,note_on,0,0,2,,,,,,,,,2,,,66,47
105080,set_tempo,680,1,0,,,,,,1052631,,,,,,,
105120,note_on,0,0,2,,,,,,,,,2,,,77,44
105120,note_off,0,0,2,,,,,,,,,2,,,66,0
105120,note_on,0,0,2,,,,,,,,,2,,,65,44
105120,note_off,120,0,2,,,,,,,,,2,,,72,0
105120,note_off,120,0,1,,,,,,,,,1,,,75,0
105120,set_tempo,40,1,0,,,,,,1034482,,,,,,,
105120,note_on,0,0,1,,,,,,,,,1,,,80,44
105240,note_on,480,0,4,,,,,,,,,4,,,60,47
105245,note_off,5,0,4,,,,,,,,,4,,,56,0
105360,note_on,0,0,4,,,,,,,,,4,,,61,47
105360,note_off,115,0,4,,,,,,,,,4,,,60,0
105475,note_off,355,0,2,,,,,,,,,2,,,65,0
105480,note_off,5,0,2,,,,,,,,,2,,,77,0
105480,note_on,0,0,2,,,,,,,,,2,,,73,49
105480,note_off,360,0,1,,,,,,,,,1,,,80,0
105480,note_on,0,0,1,,,,,,,,,1,,,77,49
105600,note_off,120,0,2,,,,,,,,,2,,,73,0
105600,note_on,0,0,5,,,,,,,,,5,,,49,52
105600,note_off,600,0,5,,,,,,,,,5,,,49,0
105600,note_on,0,0,2,,,,,,,,,2,,,66,52
105600,note_off,120,0,1,,,,,,,,,1,,,77,0
105600,note_on,0,0,1,,,,,,,,,1,,,82,52
105600,note_on,240,0,4,,,,,,,,,4,,,56,52
105600,note_on,0,0,2,,,,,,,,,2,,,78,52
105720,note_off,120,0,1,,,,,,,,,1,,,82,0
105720,note_off,120,0,2,,,,,,,,,2,,,66,0
105720,note_off,0,0,2,,,,,,,,,2,,,78,0
105720,note_on,0,0,2,,,,,,,,,2,,,72,49
105720,note_on,0,0,1,,,,,,,,,1,,,75,49
105800,set_tempo,680,1,0,,,,,,1052631,,,,,,,
105840,note_off,120,0,2,,,,,,,,,2,,,72,0
105840,set_tempo,40,1,0,,,,,,1034482,,,,,,,
105840,note_on,0,0,2,,,,,,,,,2,,,77,47
105840,note_off,240,0,4,,,,,,,,,4,,,61,0
105840,note_on,0,0,2,,,,,,,,,2,,,65,47
105840,note_on,0,0,1,,,,,,,,,1,,,80,47
105840,note_off,120,0,1,,,,,,,,,1,,,75,0
105960,note_on,120,0,4,,,,,,,,,4,,,55,49
105970,note_off,10,0,4,,,,,,,,,4,,,56,0
106080,note_on,0,0,4,,,,,,,,,4,,,56,50
106080,note_off,110,0,4,,,,,,,,,4,,,55,0
106195,note_off,355,0,2,,,,,,,,,2,,,77,0
106200,note_on,0,0,1,,,,,,,,,1,,,77,52
106200,note_off,360,0,1,,,,,,,,,1,,,80,0
106200,note_off,5,0,2,,,,,,,,,2,,,65,0
106200,note_on,0,0,2,,,,,,,,,2,,,73,52
106200,note_on,0,0,2,,,,,,,,,2,,,61,52
106320,note_off,0,0,2,,,,,,,,,2,,,73,0
106320,note_on,0,0,2,,,,,,,,,2,,,68,56
106320,note_on,0,0,5,,,,,,,,,5,,,46,56
106320,note_off,720,0,5,,,,,,,,,5,,,49,0
106320,note_off,120,0,2,,,,,,,,,2,,,61,0
106320,note_on,240,0,4,,,,,,,,,4,,,53,56
106320,note_off,120,0,1,,,,,,,,,1,,,77,0
106320,note_on,0,0,1,,,,,,,,,1,,,72,56
106440,note_off,120,0,1,,,,,,,,,1,,,72,0
106440,note_on,0,0,1,,,,,,,,,1,,,73,52
106440,note_off,120,0,2,,,,,,,,,2,,,68,0
106440,note_on,0,0,2,,,,,,,,,2,,,70,52
106440,note_on,0,0,2,,,,,,,,,2,,,58,52
106520,set_tempo,680,1,0,,,,,,1052631,,,,,,,
106555,note_off,235,0,4,,,,,,,,,4,,,53,0
106560,note_on,0,0,5,,,,,,,,,5,,,39,50
106560,control_change,120,0,2,,,,,,,64,0,2,,,,
106560,note_off,0,0,2,,,,,,,,,2,,,58,0
106560,note_off,0,0,2,,,,,,,,,2,,,70,0
106560,note_off,0,0,4,,,,,,,,,4,,,56,0
106560,note_off,0,0,5,,,,,,,,,5,,,46,0
106560,control_change,2520,0,3,,,,,,,64,0,3,,,,
106560,note_on,0,0,2,,,,,,,,,2,,,65,50
106560,set_tempo,40,1,0,,,,,,1034482,,,,,,,
106560,control_change,240,0,5,,,,,,,64,127,5,,,,
106560,note_on,0,0,1,,,,,,,,,1,,,68,50
106560,note_off,0,0,1,,,,,,,,,1,,,73,0
106560,control_change,120,0,1,,,,,,,64,0,1,,,,
106560,control_change,5,0,4,,,,,,,64,0,4,,,,
106600,control_change,40,0,4,,,,,,,64,127,4,,,,
106600,control_change,40,0,2,,,,,,,64,127,2,,,,
106600,control_change,40,0,1,,,,,,,64,127,1,,,,
106600,control_change,40,0,3,,,,,,,64,127,3,,,,
106680,note_off,120,0,5,,,,,,,,,5,,,39,0
106680,note_on,80,0,4,,,,,,,,,4,,,46,51
106800,note_on,0,0,4,,,,,,,,,4,,,51,52
106800,note_off,120,0,4,,,,,,,,,4,,,46,0
106910,note_off,310,0,2,,,,,,,,,2,,,65,0
106920,control_change,240,0,5,,,,,,,64,0,5,,,,
106920,note_on,0,0,2,,,,,,,,,2,,,63,53
106920,control_change,10,0,2,,,,,,,64,0,2,,,,
106920,control_change,320,0,3,,,,,,,64,0,3,,,,
106920,note_on,0,0,1,,,,,,,,,1,,,66,53
106920,note_off,0,0,1,,,,,,,,,1,,,68,0
106920,control_change,120,0,4,,,,,,,64,0,4,,,,
106920,control_change,320,0,1,,,,,,,64,0,1,,,,
106920,note_on,0,0,4,,,,,,,,,4,,,58,53
106920,note_off,0,0,4,,,,,,,,,4,,,51,0
107040,note_off,120,0,1,,,,,,,,,1,,,66,0
107040,note_off,120,0,4,,,,,,,,,4,,,58,0
107040,note_on,0,0,1,,,,,,,,,1,,,66,54
107040,note_off,120,0,2,,,,,,,,,2,,,63,0
107040,note_on,0,0,2,,,,,,,,,2,,,63,54
107160,note_on,120,0,2,,,,,,,,,2,,,58,56
107160,note_on,120,0,4,,,,,,,,,4,,,46,56
107240,set_tempo,680,1,0,,,,,,1052631,,,,,,,
107275,note_off,235,0,1,,,,,,,,,1,,,66,0
107275,note_off,115,0,2,,,,,,,,,2,,,63,0
107280,set_tempo,40,1,0,,,,,,1034482,,,,,,,
107280,note_on,0,0,2,,,,,,,,,2,,,65,55
107280,note_off,120,0,4,,,,,,,,,4,,,46,0
107280,note_off,5,0,2,,,,,,,,,2,,,58,0
107280,note_on,360,0,5,,,,,,,,,5,,,38,55
107280,note_on,5,0,1,,,,,,,,,1,,,68,55
107280,note_on,0,0,4,,,,,,,,,4,,,47,55
107280,note_on,0,0,2,,,,,,,,,2,,,59,55
107400,note_off,120,0,2,,,,,,,,,2,,,59,0
107400,note_on,0,0,2,,,,,,,,,2,,,58,53
107400,note_off,120,0,4,,,,,,,,,4,,,47,0
107400,note_on,0,0,4,,,,,,,,,4,,,46,53
107520,note_on,0,0,5,,,,,,,,,5,,,39,54
107520,note_on,0,0,2,,,,,,,,,2,,,57,54
107520,note_off,0,0,2,,,,,,,,,2,,,65,0
107520,note_off,120,0,2,,,,,,,,,2,,,58,0
107520,note_off,240,0,1,,,,,,,,,1,,,68,0
107520,note_off,240,0,5,,,,,,,,,5,,,38,0
107520,note_on,0,0,4,,,,,,,,,4,,,45,54
107520,note_off,120,0,4,,,,,,,,,4,,,46,0
107520,note_on,0,0,2,,,,,,,,,2,,,63,54
107520,note_on,0,0,1,,,,,,,,,1,,,66,54
107640,note_off,120,0,2,,,,,,,,,2,,,57,0
107640,note_off,120,0,4,,,,,,,,,4,,,45,0
107640,note_on,0,0,4,,,,,,,,,4,,,46,54
107640,note_on,0,0,2,,,,,,,,,2,,,58,54
107760,note_on,0,0,1,,,,,,,,,1,,,66,55
107760,note_off,120,0,2,,,,,,,,,2,,,58,0
107760,note_off,0,0,2,,,,,,,,,2,,,63,0
107760,note_on,0,0,4,,,,,,,,,4,,,47,55
107760,note_off,240,0,1,,,,,,,,,1,,,66,0
107760,note_on,0,0,2,,,,,,,,,2,,,63,55
107760,note_on,0,0,2,,,,,,,,,2,,,59,55
107760,note_on,0,0,5,,,,,,,,,5,,,39,55
107760,note_off,240,0,5,,,,,,,,,5,,,39,0
107760,note_off,120,0,4,,,,,,,,,4,,,46,0
107880,note_on,0,0,4,,,,,,,,,4,,,48,55
107880,note_on,0,0,2,,,,,,,,,2,,,60,55
107880,note_off,120,0,2,,,,,,,,,2,,,59,0
107880,note_off,120,0,4,,,,,,,,,4,,,47,0
107960,set_tempo,680,1,0,,,,,,1052631,,,,,,,
108000,note_off,120,0,4,,,,,,,,,4,,,48,0
108000,set_tempo,40,1,0,,,,,,1034482,,,,,,,
108000,note_off,240,0,5,,,,,,,,,5,,,39,0
108000,note_off,120,0,2,,,,,,,,,2,,,60,0
108000,note_off,0,0,2,,,,,,,,,2,,,63,0
108000,note_on,0,0,2,,,,,,,,,2,,,63,55
108000,note_on,0,0,2,,,,,,,,,2,,,56,55
108000,note_off,240,0,1,,,,,,,,,1,,,66,0
108000,note_on,0,0,1,,,,,,,,,1,,,66,55
108000,note_on,0,0,5,,,,,,,,,5,,,41,55
108000,note_on,0,0,4,,,,,,,,,4,,,51,55
108120,note_on,0,0,2,,,,,,,,,2,,,61,56
108120,note_off,120,0,2,,,,,,,,,2,,,63,0
108120,note_on,0,0,4,,,,,,,,,4,,,49,56
108120,note_off,120,0,4,,,,,,,,,4,,,51,0
108240,note_off,120,0,2,,,,,,,,,2,,,61,0
108240,note_off,240,0,5,,,,,,,,,5,,,41,0
108240,note_off,120,0,4,,,,,,,,,4,,,49,0
108240,note_on,0,0,4,,,,,,,,,4,,,48,56
108240,note_off,240,0,1,,,,,,,,,1,,,66,0
108240,note_on,0,0,1,,,,,,,,,1,,,65,56
108240,note_on,0,0,2,,,,,,,,,2,,,56,56
108240,note_on,0,0,2,,,,,,,,,2,,,60,56
108240,note_off,0,0,2,,,,,,,,,2,,,56,0
108240,note_on,0,0,5,,,,,,,,,5,,,41,56
108360,note_off,120,0,4,,,,,,,,,4,,,48,0
108360,note_on,0,0,4,,,,,,,,,4,,,49,56
108360,note_on,0,0,2,,,,,,,,,2,,,61,56
108360,note_off,120,0,2,,,,,,,,,2,,,60,0
108480,note_on,0,0,4,,,,,,,,,4,,,48,57
108480,note_off,120,0,4,,,,,,,,,4,,,49,0
108480,note_on,0,0,1,,,,,,,,,1,,,65,57
108480,note_off,120,0,2,,,,,,,,,2,,,61,0
108480,note_off,0,0,2,,,,,,,,,2,,,56,0
108480,note_on,0,0,2,,,,,,,,,2,,,60,57
108480,note_on,0,0,5,,,,,,,,,5,,,37,57
108480,note_off,240,0,5,,,,,,,,,5,,,41,0
108480,note_on,0,0,2,,,,,,,,,2,,,53,57
108480,note_off,240,0,1,,,,,,,,,1,,,65,0
108600,note_off,120,0,2,,,,,,,,,2,,,60,0
108600,note_on,0,0,4,,,,,,,,,4,,,46,57
108600,note_off,120,0,4,,,,,,,,,4,,,48,0
108600,note_on,0,0,2,,,,,,,,,2,,,58,57
108680,set_tempo,680,1,0,,,,,,1052631,,,,,,,
108720,note_off,120,0,4,,,,,,,,,4,,,46,0
108720,note_on,0,0,1,,,,,,,,,1,,,65,59
108720,note_on,0,0,2,,,,,,,,,2,,,57,59
108720,note_on,0,0,4,,,,,,,,,4,,,45,59
108720,note_off,120,0,2,,,,,,,,,2,,,58,0
108720,note_off,240,0,5,,,,,,,,,5,,,37,0
108720,note_on,0,0,5,,,,,,,,,5,,,42,59
108720,note_off,240,0,1,,,,,,,,,1,,,65,0
108720,set_tempo,40,1,0,,,,,,1034482,,,,,,,
108720,note_off,0,0,2,,,,,,,,,2,,,53,0
108720,note_on,0,0,2,,,,,,,,,2,,,53,59
108840,note_on,0,0,2,,,,,,,,,2,,,58,57
108840,note_off,120,0,2,,,,,,,,,2,,,57,0
108840,note_on,0,0,4,,,,,,,,,4,,,46,57
108840,note_off,120,0,4,,,,,,,,,4,,,45,0
108960,note_off,120,0,4,,,,,,,,,4,,,46,0
108960,note_off,120,0,2,,,,,,,,,2,,,58,0
108960,note_off,0,0,2,,,,,,,,,2,,,53,0
108960,note_on,0,0,2,,,,,,,,,2,,,51,54
108960,note_on,0,0,1,,,,,,,,,1,,,63,54
108960,note_off,240,0,1,,,,,,,,,1,,,65,0
108960,note_off,240,0,5,,,,,,,,,5,,,42,0
108960,note_on,0,0,2,,,,,,,,,2,,,61,54
108960,note_on,0,0,5,,,,,,,,,5,,,42,54
108960,note_on,0,0,4,,,,,,,,,4,,,49,54
109080,note_off,120,0,4,,,,,,,,,4,,,49,0
109080,note_on,0,0,4,,,,,,,,,4,,,48,52
109080,note_on,0,0,2,,,,,,,,,2,,,60,52
109080,note_off,120,0,2,,,,,,,,,2,,,61,0
109200,note_on,0,0,5,,,,,,,,,5,,,42,50
109200,note_off,240,0,1,,,,,,,,,1,,,63,0
109200,note_off,240,0,5,,,,,,,,,5,,,42,0
109200,note_on,0,0,2,,,,,,,,,2,,,52,50
109200,note_off,0,0,2,,,,,,,,,2,,,51,0
109200,note_off,120,0,2,,,,,,,,,2,,,60,0
109200,note_on,0,0,2,,,,,,,,,2,,,58,50
109200,note_on,0,0,4,,,,,,,,,4,,,46,50
109200,note_on,0,0,1,,,,,,,,,1,,,64,50
109200,note_off,120,0,4,,,,,,,,,4,,,48,0
109320,note_on,0,0,4,,,,,,,,,4,,,48,48
109320,note_off,120,0,2,,,,,,,,,2,,,58,0
109320,note_on,0,0,2,,,,,,,,,2,,,60,48
109320,note_off,120,0,4,,,,,,,,,4,,,46,0
109400,set_tempo,680,1,0,,,,,,1052631,,,,,,,
109440,note_on,0,0,5,,,,,,,,,5,,,41,45
109440,note_off,240,0,1,,,,,,,,,1,,,64,0
109440,note_on,0,0,1,,,,,,,,,1,,,65,45
109440,note_off,240,0,5,,,,,,,,,5,,,42,0
109440,note_off,120,0,2,,,,,,,,,2,,,60,0
109440,note_off,0,0,2,,,,,,,,,2,,,52,0
109440,note_on,0,0,2,,,,,,,,,2,,,58,45
109440,note_on,0,0,2,,,,,,,,,2,,,53,45
109680,set_tempo,280,1,0,,,,,,1132075,,,,,,,
109680,note_on,240,0,2,,,,,,,,,2,,,57,41
109685,note_off,5,0,2,,,,,,,,,2,,,58,0
109758,note_off,73,0,2,,,,,,,,,2,,,53,0
109758,note_off,318,0,1,,,,,,,,,1,,,65,0
109766,note_off,326,0,5,,,,,,,,,5,,,41,0
109766,note_off,446,0,4,,,,,,,,,4,,,48,0
109766,note_off,8,0,2,,,,,,,,,2,,,57,0
109800,note_on,42,0,1,,,,,,,,,1,,,65,61
109800,note_on,34,0,5,,,,,,,,,5,,,32,61
109800,note_on,0,0,2,,,,,,,,,2,,,56,61
109800,set_tempo,120,1,0,,,,,,1034482,,,,,,,
109800,note_on,34,0,2,,,,,,,,,2,,,60,61
109920,note_on,0,0,2,,,,,,,,,2,,,54,59
109920,note_on,0,0,1,,,,,,,,,1,,,63,59
109920,note_off,120,0,1,,,,,,,,,1,,,65,0
109920,note_off,120,0,2,,,,,,,,,2,,,56,0
110040,note_on,0,0,2,,,,,,,,,2,,,54,58
110040,note_off,240,0,5,,,,,,,,,5,,,32,0
110040,note_on,0,0,5,,,,,,,,,5,,,37,58
110040,note_off,120,0,2,,,,,,,,,2,,,54,0
110040,note_on,0,0,2,,,,,,,,,2,,,60,58
110040,note_off,0,0,2,,,,,,,,,2,,,60,0
110040,note_off,120,0,1,,,,,,,,,1,,,63,0
110040,note_on,0,0,1,,,,,,,,,1,,,63,58
110120,set_tempo,320,1,0,,,,,,1052631,,,,,,,
110160,note_on,0,0,2,,,,,,,,,2,,,53,56
110160,set_tempo,40,1,0,,,,,,1034482,,,,,,,
110160,note_off,120,0,1,,,,,,,,,1,,,63,0
110160,note_on,0,0,1,,,,,,,,,1,,,61,56
110160,note_off,120,0,2,,,,,,,,,2,,,54,0
110160,note_off,0,0,2,,,,,,,,,2,,,60,0
110275,note_off,235,0,5,,,,,,,,,5,,,37,0
110280,note_on,5,0,5,,,,,,,,,5,,,43,56
110400,note_off,120,0,5,,,,,,,,,5,,,43,0
110400,note_on,0,0,5,,,,,,,,,5,,,44,57
110515,note_off,355,0,1,,,,,,,,,1,,,61,0
110515,note_off,355,0,2,,,,,,,,,2,,,53,0
110520,note_on,754,0,4,,,,,,,,,4,,,56,65
110520,note_on,5,0,2,,,,,,,,,2,,,65,65
110520,note_on,5,0,1,,,,,,,,,1,,,73,65
110640,note_on,0,0,1,,,,,,,,,1,,,75,63
110640,note_off,120,0,1,,,,,,,,,1,,,73,0
110640,note_off,120,0,2,,,,,,,,,2,,,65,0
110640,note_on,0,0,2,,,,,,,,,2,,,66,63
110640,note_on,0,0,2,,,,,,,,,2,,,72,63
110760,note_off,120,0,1,,,,,,,,,1,,,75,0
110760,note_on,0,0,1,,,,,,,,,1,,,75,62
110760,note_on,0,0,2,,,,,,,,,2,,,72,62
110760,note_on,360,0,5,,,,,,,,,5,,,49,62
110760,note_off,120,0,2,,,,,,,,,2,,,72,0
110760,note_off,0,0,2,,,,,,,,,2,,,66,0
110760,note_on,0,0,2,,,,,,,,,2,,,66,62
110840,set_tempo,680,1,0,,,,,,1052631,,,,,,,
110880,note_off,120,0,1,,,,,,,,,1,,,75,0
110880,note_on,0,0,2,,,,,,,,,2,,,65,60
110880,note_on,0,0,1,,,,,,,,,1,,,80,60
110880,note_off,0,0,2,,,,,,,,,2,,,66,0
110880,note_off,120,0,2,,,,,,,,,2,,,72,0
110880,note_on,0,0,2,,,,,,,,,2,,,77,60
110880,set_tempo,40,1,0,,,,,,1034482,,,,,,,
110885,note_off,125,0,5,,,,,,,,,5,,,44,0
111000,note_on,480,0,4,,,,,,,,,4,,,58,60
111005,note_off,5,0,4,,,,,,,,,4,,,56,0
111120,note_off,115,0,4,,,,,,,,,4,,,58,0
111120,note_on,0,0,4,,,,,,,,,4,,,59,61
111240,note_on,0,0,2,,,,,,,,,2,,,73,62
111240,note_off,0,0,2,,,,,,,,,2,,,77,0
111240,note_off,360,0,2,,,,,,,,,2,,,65,0
111240,note_off,360,0,1,,,,,,,,,1,,,80,0
111240,note_on,0,0,1,,,,,,,,,1,,,77,62
111350,note_off,465,0,5,,,,,,,,,5,,,49,0
111360,note_off,120,0,2,,,,,,,,,2,,,73,0
111360,note_on,0,0,2,,,,,,,,,2,,,66,62
111360,note_on,0,0,2,,,,,,,,,2,,,78,62
111360,note_on,10,0,5,,,,,,,,,5,,,49,62
111360,note_off,120,0,1,,,,,,,,,1,,,77,0
111360,note_on,0,0,1,,,,,,,,,1,,,82,62
111480,note_on,0,0,2,,,,,,,,,2,,,71,69
111480,note_off,120,0,2,,,,,,,,,2,,,66,0
111480,note_off,120,0,1,,,,,,,,,1,,,82,0
111480,note_off,0,0,2,,,,,,,,,2,,,78,0
111480,note_on,0,0,1,,,,,,,,,1,,,75,69
111560,set_tempo,680,1,0,,,,,,1052631,,,,,,,
111600,note_on,0,0,2,,,,,,,,,2,,,65,64
111600,note_on,0,0,2,,,,,,,,,2,,,77,64
111600,note_off,120,0,2,,,,,,,,,2,,,71,0
111600,set_tempo,40,1,0,,,,,,1034482,,,,,,,
111600,note_off,120,0,1,,,,,,,,,1,,,75,0
111600,note_on,0,0,1,,,,,,,,,1,,,80,64
111720,note_off,600,0,4,,,,,,,,,4,,,59,0
111720,note_on,0,0,4,,,,,,,,,4,,,58,64
111840,note_off,120,0,4,,,,,,,,,4,,,58,0
111840,note_on,0,0,4,,,,,,,,,4,,,59,65
111955,note_off,355,0,1,,,,,,,,,1,,,80,0
111955,note_off,355,0,2,,,,,,,,,2,,,77,0
111960,note_on,5,0,1,,,,,,,,,1,,,77,66
111960,note_off,5,0,2,,,,,,,,,2,,,65,0
111960,note_on,0,0,2,,,,,,,,,2,,,61,66
111960,note_on,0,0,2,,,,,,,,,2,,,73,66
112075,note_off,715,0,5,,,,,,,,,5,,,49,0
112080,note_on,0,0,2,,,,,,,,,2,,,68,66
112080,note_on,0,0,1,,,,,,,,,1,,,71,66
112080,note_on,240,0,4,,,,,,,,,4,,,53,66
112080,note_off,120,0,1,,,,,,,,,1,,,77,0
112080,note_on,5,0,5,,,,,,,,,5,,,49,66
112080,note_off,120,0,2,,,,,,,,,2,,,61,0
112080,note_off,0,0,2,,,,,,,,,2,,,73,0
112085,note_off,5,0,4,,,,,,,,,4,,,59,0
112200,note_off,120,0,2,,,,,,,,,2,,,68,0
112200,note_on,0,0,2,,,,,,,,,2,,,58,70
112200,note_on,0,0,2,,,,,,,,,2,,,70,70
112200,note_on,0,0,1,,,,,,,,,1,,,73,70
112200,note_off,120,0,1,,,,,,,,,1,,,71,0
112280,set_tempo,680,1,0,,,,,,1052631,,,,,,,
112320,control_change,120,0,2,,,,,,,64,0,2,,,,
112320,note_off,0,0,2,,,,,,,,,2,,,58,0
112320,note_off,0,0,2,,,,,,,,,2,,,70,0
112320,note_on,0,0,2,,,,,,,,,2,,,65,68
112320,control_change,235,0,4,,,,,,,64,0,4,,,,
112320,control_change,5400,0,3,,,,,,,64,0,3,,,,
112320,note_on,0,0,5,,,,,,,,,5,,,42,68
112320,control_change,240,0,5,,,,,,,64,127,5,,,,
112320,set_tempo,40,1,0,,,,,,1034482,,,,,,,
112320,note_on,0,0,1,,,,,,,,,1,,,69,68
112320,note_off,0,0,1,,,,,,,,,1,,,73,0
112320,note_off,0,0,4,,,,,,,,,4,,,53,0
112320,control_change,120,0,1,,,,,,,64,0,1,,,,
112325,note_off,5,0,5,,,,,,,,,5,,,49,0
112360,control_change,40,0,3,,,,,,,64,127,3,,,,
112360,control_change,40,0,4,,,,,,,64,127,4,,,,
112360,control_change,40,0,1,,,,,,,64,127,1,,,,
112360,control_change,40,0,2,,,,,,,64,127,2,,,,
112440,note_off,115,0,5,,,,,,,,,5,,,42,0
112440,note_on,80,0,4,,,,,,,,,4,,,49,68
112560,note_on,0,0,4,,,,,,,,,4,,,54,69
112560,note_off,120,0,4,,,,,,,,,4,,,49,0
112680,control_change,320,0,1,,,,,,,64,0,1,,,,
112680,control_change,240,0,5,,,,,,,64,0,5,,,,
112680,note_on,0,0,4,,,,,,,,,4,,,61,75
112680,control_change,320,0,3,,,,,,,64,0,3,,,,
112680,control_change,320,0,2,,,,,,,64,0,2,,,,
112680,note_off,0,0,4,,,,,,,,,4,,,54,0
112680,control_change,120,0,4,,,,,,,64,0,4,,,,
112680,note_on,0,0,1,,,,,,,,,1,,,70,75
112680,note_off,0,0,2,,,,,,,,,2,,,65,0
112680,note_on,0,0,2,,,,,,,,,2,,,66,75
112685,note_off,5,0,1,,,,,,,,,1,,,69,0
112800,note_on,0,0,2,,,,,,,,,2,,,66,73
112800,note_on,0,0,1,,,,,,,,,1,,,70,73
112800,note_off,120,0,4,,,,,,,,,4,,,61,0
112800,note_off,120,0,2,,,,,,,,,2,,,66,0
112800,note_off,115,0,1,,,,,,,,,1,,,70,0
112920,note_on,120,0,4,,,,,,,,,4,,,49,71
112920,note_on,120,0,2,,,,,,,,,2,,,61,71
113000,set_tempo,680,1,0,,,,,,1052631,,,,,,,
113035,note_off,115,0,2,,,,,,,,,2,,,66,0
113040,note_off,120,0,4,,,,,,,,,4,,,49,0
113040,note_on,0,0,4,,,,,,,,,4,,,50,69
113040,note_on,0,0,1,,,,,,,,,1,,,69,69
113040,note_off,240,0,1,,,,,,,,,1,,,70,0
113040,set_tempo,40,1,0,,,,,,1034482,,,,,,,
113040,note_off,5,0,2,,,,,,,,,2,,,61,0
113040,note_on,0,0,2,,,,,,,,,2,,,66,69
113040,note_on,0,0,2,,,,,,,,,2,,,62,69
113040,note_on,360,0,5,,,,,,,,,5,,,42,69
113160,note_on,0,0,4,,,,,,,,,4,,,49,72
113160,note_off,120,0,2,,,,,,,,,2,,,62,0
113160,note_on,0,0,2,,,,,,,,,2,,,61,72
113160,note_off,120,0,4,,,,,,,,,4,,,50,0
113280,note_off,120,0,4,,,,,,,,,4,,,49,0
113280,note_off,240,0,5,,,,,,,,,5,,,42,0
113280,note_off,240,0,1,,,,,,,,,1,,,69,0
113280,note_on,0,0,5,,,,,,,,,5,,,42,73
113280,note_on,0,0,1,,,,,,,,,1,,,70,73
113280,note_off,120,0,2,,,,,,,,,2,,,61,0
113280,note_off,0,0,2,,,,,,,,,2,,,66,0
113280,note_on,0,0,2,,,,,,,,,2,,,66,73
113280,note_on,0,0,2,,,,,,,,,2,,,60,73
113280,note_on,0,0,4,,,,,,,,,4,,,48,73
113400,note_off,120,0,4,,,,,,,,,4,,,48,0
113400,note_on,0,0,4,,,,,,,,,4,,,49,73
113400,note_on,0,0,2,,,,,,,,,2,,,61,73
113400,note_off,120,0,2,,,,,,,,,2,,,60,0
113520,note_off,240,0,5,,,,,,,,,5,,,42,0
113520,note_on,0,0,5,,,,,,,,,5,,,42,74
113520,note_on,0,0,1,,,,,,,,,1,,,70,74
113520,note_off,240,0,1,,,,,,,,,1,,,70,0
113520,note_on,0,0,4,,,,,,,,,4,,,50,74
113520,note_off,0,0,2,,,,,,,,,2,,,66,0
113520,note_off,120,0,4,,,,,,,,,4,,,49,0
113520,note_on,0,0,2,,,,,,,,,2,,,62,74
113520,note_on,0,0,2,,,,,,,,,2,,,66,74
113520,note_off,120,0,2,,,,,,,,,2,,,61,0
113640,note_on,0,0,2,,,,,,,,,2,,,61,75
113640,note_off,120,0,2,,,,,,,,,2,,,62,0
113640,note_off,120,0,4,,,,,,,,,4,,,50,0
113640,note_on,0,0,4,,,,,,,,,4,,,49,75
113720,set_tempo,680,1,0,,,,,,1052631,,,,,,,
113760,note_off,120,0,4,,,,,,,,,4,,,49,0
113760,note_on,0,0,1,,,,,,,,,1,,,71,75
113760,note_off,240,0,1,,,,,,,,,1,,,70,0
113760,note_off,0,0,2,,,,,,,,,2,,,66,0
113760,note_on,0,0,5,,,,,,,,,5,,,41,75
113760,note_off,240,0,5,,,,,,,,,5,,,42,0
113760,note_off,120,0,2,,,,,,,,,2,,,61,0
113760,note_on,0,0,4,,,,,,,,,4,,,51,75
113760,note_on,0,0,2,,,,,,,,,2,,,68,75
113760,note_on,0,0,2,,,,,,,,,2,,,63,75
113760,set_tempo,40,1,0,,,,,,1034482,,,,,,,
113880,note_off,120,0,2,,,,,,,,,2,,,63,0
113880,note_on,0,0,4,,,,,,,,,4,,,49,76
113880,note_off,120,0,4,,,,,,,,,4,,,51,0
113880,note_on,0,0,2,,,,,,,,,2,,,61,76
114000,note_off,0,0,2,,,,,,,,,2,,,68,0
114000,note_on,0,0,1,,,,,,,,,1,,,70,77
114000,note_off,240,0,1,,,,,,,,,1,,,71,0
114000,note_on,0,0,5,,,,,,,,,5,,,42,77
114000,note_off,240,0,5,,,,,,,,,5,,,41,0
114000,note_on,0,0,4,,,,,,,,,4,,,48,77
114000,note_on,0,0,2,,,,,,,,,2,,,60,77
114000,note_on,0,0,2,,,,,,,,,2,,,66,77
114000,note_off,120,0,4,,,,,,,,,4,,,49,0
114000,note_off,120,0,2,,,,,,,,,2,,,61,0
114120,note_on,0,0,2,,,,,,,,,2,,,61,77
114120,note_off,120,0,2,,,,,,,,,2,,,60,0
114120,note_on,0,0,4,,,,,,,,,4,,,49,77
114120,note_off,120,0,4,,,,,,,,,4,,,48,0
114240,note_off,120,0,2,,,,,,,,,2,,,61,0
114240,note_off,0,0,2,,,,,,,,,2,,,66,0
114240,note_on,0,0,2,,,,,,,,,2,,,55,78
114240,note_off,240,0,5,,,,,,,,,5,,,42,0
114240,note_on,0,0,2,,,,,,,,,2,,,63,78
114240,note_on,0,0,5,,,,,,,,,5,,,46,78
114240,note_on,0,0,4,,,,,,,,,4,,,51,78
114240,note_on,0,0,1,,,,,,,,,1,,,67,78
114240,note_off,120,0,4,,,,,,,,,4,,,49,0
114240,note_off,240,0,1,,,,,,,,,1,,,70,0
114360,note_on,0,0,2,,,,,,,,,2,,,61,79
114360,note_off,120,0,2,,,,,,,,,2,,,63,0
114360,note_off,120,0,4,,,,,,,,,4,,,51,0
114360,note_on,0,0,4,,,,,,,,,4,,,49,79
114440,set_tempo,680,1,0,,,,,,1052631,,,,,,,
114480,note_off,240,0,1,,,,,,,,,1,,,67,0
114480,set_tempo,40,1,0,,,,,,1034482,,,,,,,
114480,note_on,0,0,1,,,,,,,,,1,,,68,77
114480,note_off,120,0,2,,,,,,,,,2,,,61,0
114480,note_on,0,0,2,,,,,,,,,2,,,53,77
114480,note_on,0,0,2,,,,,,,,,2,,,56,77
114480,note_on,0,0,2,,,,,,,,,2,,,65,77
114480,note_off,240,0,5,,,,,,,,,5,,,46,0
114480,note_on,0,0,5,,,,,,,,,5,,,44,77
114480,note_off,0,0,2,,,,,,,,,2,,,55,0
114600,note_on,0,0,4,,,,,,,,,4,,,49,74
114600,note_off,240,0,4,,,,,,,,,4,,,49,0
114600,note_off,120,0,2,,,,,,,,,2,,,65,0
114600,note_on,0,0,2,,,,,,,,,2,,,61,74
114600,note_off,0,0,2,,,,,,,,,2,,,53,0
114720,note_on,0,0,4,,,,,,,,,4,,,51,70
114720,note_off,120,0,4,,,,,,,,,4,,,49,0
114720,note_off,240,0,5,,,,,,,,,5,,,44,0
114720,note_on,0,0,5,,,,,,,,,5,,,44,70
114720,note_on,0,0,2,,,,,,,,,2,,,54,70
114720,note_off,0,0,2,,,,,,,,,2,,,56,0
114720,note_off,120,0,2,,,,,,,,,2,,,61,0
114720,note_on,0,0,2,,,,,,,,,2,,,60,70
114720,note_off,240,0,1,,,,,,,,,1,,,68,0
114720,note_on,0,0,1,,,,,,,,,1,,,66,70
114840,note_off,120,0,4,,,,,,,,,4,,,51,0
114840,note_on,0,0,2,,,,,,,,,2,,,58,67
114840,note_on,0,0,4,,,,,,,,,4,,,49,67
114840,note_off,120,0,2,,,,,,,,,2,,,60,0
114960,note_on,0,0,2,,,,,,,,,2,,,56,63
114960,note_off,120,0,2,,,,,,,,,2,,,58,0
114960,note_on,0,0,4,,,,,,,,,4,,,48,63
114960,note_off,120,0,4,,,,,,,,,4,,,49,0
115080,note_off,120,0,2,,,,,,,,,2,,,56,0
115080,note_off,120,0,4,,,,,,,,,4,,,48,0
115080,set_tempo,600,1,0,,,,,,1071428,,,,,,,
115080,note_on,0,0,2,,,,,,,,,2,,,60,60
115200,note_off,120,0,2,,,,,,,,,2,,,60,0
115200,note_off,0,0,2,,,,,,,,,2,,,54,0
115200,note_off,480,0,5,,,,,,,,,5,,,44,0
115200,note_on,0,0,5,,,,,,,,,5,,,37,57
115200,note_on,0,0,1,,,,,,,,,1,,,65,57
115200,note_off,480,0,1,,,,,,,,,1,,,66,0
115200,note_on,0,0,2,,,,,,,,,2,,,53,57
115320,note_on,120,0,2,,,,,,,,,2,,,63,53
115380,set_tempo,300,1,0,,,,,,1111111,,,,,,,
115440,note_off,120,0,2,,,,,,,,,2,,,63,0
115440,set_tempo,60,1,0,,,,,,2727272,,,,,,,
115440,note_on,0,0,2,,,,,,,,,2,,,61,50
115560,note_off,120,0,2,,,,,,,,,2,,,53,0
115560,set_tempo,120,1,0,,,,,,1034482,,,,,,,
115560,note_off,360,0,5,,,,,,,,,5,,,37,0
115563,note_off,3,0,2,,,,,,,,,2,,,61,0
115567,note_off,367,0,1,,,,,,,,,1,,,65,0
115620,note_on,0,0,1,,,,,,,,,1,,,61,52
115620,note_on,60,0,5,,,,,,,,,5,,,49,52
115620,note_on,53,0,1,,,,,,,,,1,,,73,52
115668,note_off,0,0,1,,,,,,,,,1,,,73,0
115668,note_off,48,0,1,,,,,,,,,1,,,61,0
115668,note_off,48,0,5,,,,,,,,,5,,,49,0
115680,note_on,0,0,1,,,,,,,,,1,,,72,53
115680,note_on,12,0,1,,,,,,,,,1,,,60,53
115680,note_on,12,0,5,,,,,,,,,5,,,48,53
115776,note_off,0,0,1,,,,,,,,,1,,,60,0
115776,note_off,96,0,1,,,,,,,,,1,,,72,0
115776,note_off,96,0,5,,,,,,,,,5,,,48,0
115860,note_on,0,0,1,,,,,,,,,1,,,72,54
115860,note_on,84,0,1,,,,,,,,,1,,,60,54
115860,note_on,84,0,5,,,,,,,,,5,,,48,54
115880,set_tempo,320,1,0,,,,,,1052631,,,,,,,
115908,note_off,48,0,1,,,,,,,,,1,,,72,0
115908,note_off,48,0,5,,,,,,,,,5,,,48,0
115908,note_off,0,0,1,,,,,,,,,1,,,60,0
115920,control_change,12,0,5,,,,,,,64,0,5,,,,
115920,note_on,0,0,5,,,,,,,,,5,,,46,54
115920,control_change,357,0,2,,,,,,,64,0,2,,,,
115920,set_tempo,40,1,0,,,,,,1034482,,,,,,,
115920,control_change,840,0,4,,,,,,,64,0,4,,,,
115920,note_on,0,0,1,,,,,,,,,1,,,70,54
115920,note_on,0,0,1,,,,,,,,,1,,,58,54
115920,control_change,3240,0,3,,,,,,,64,0,3,,,,
115920,control_change,12,0,1,,,,,,,64,0,1,,,,
115960,control_change,40,0,1,,,,,,,64,127,1,,,,
115960,control_change,40,0,3,,,,,,,64,127,3,,,,
115960,control_change,40,0,2,,,,,,,64,127,2,,,,
115960,control_change,40,0,5,,,,,,,64,127,5,,,,
115960,control_change,40,0,4,,,,,,,64,127,4,,,,
116100,note_on,0,0,5,,,,,,,,,5,,,40,56
116100,note_off,140,0,5,,,,,,,,,5,,,46,0
116160,control_change,200,0,3,,,,,,,64,0,3,,,,
116160,control_change,60,0,5,,,,,,,64,0,5,,,,
116160,note_off,0,0,1,,,,,,,,,1,,,70,0
116160,control_change,200,0,4,,,,,,,64,0,4,,,,
116160,control_change,200,0,1,,,,,,,64,0,1,,,,
116160,note_on,0,0,1,,,,,,,,,1,,,65,56
116160,control_change,200,0,2,,,,,,,64,0,2,,,,
116160,note_on,0,0,5,,,,,,,,,5,,,41,56
116160,note_off,0,0,5,,,,,,,,,5,,,40,0
116160,note_off,0,0,1,,,,,,,,,1,,,58,0
116200,control_change,40,0,2,,,,,,,64,127,2,,,,
116200,control_change,40,0,1,,,,,,,64,127,1,,,,
116200,control_change,40,0,5,,,,,,,64,127,5,,,,
116200,control_change,40,0,3,,,,,,,64,127,3,,,,
116200,control_change,40,0,4,,,,,,,64,127,4,,,,
116220,note_on,20,0,3,,,,,,,,,3,,,45,57
116220,note_off,20,0,5,,,,,,,,,5,,,41,0
116280,note_off,60,0,3,,,,,,,,,3,,,45,0
116280,note_on,0,0,3,,,,,,,,,3,,,53,57
116340,note_off,60,0,3,,,,,,,,,3,,,53,0
116340,note_on,120,0,5,,,,,,,,,5,,,41,58
116400,control_change,200,0,1,,,,,,,64,0,1,,,,
116400,control_change,200,0,4,,,,,,,64,0,4,,,,
116400,note_off,0,0,1,,,,,,,,,1,,,65,0
116400,note_on,0,0,5,,,,,,,,,5,,,42,58
116400,control_change,200,0,2,,,,,,,64,0,2,,,,
116400,control_change,60,0,5,,,,,,,64,0,5,,,,
116400,control_change,60,0,3,,,,,,,64,0,3,,,,
116400,note_off,0,0,5,,,,,,,,,5,,,41,0
116440,control_change,40,0,5,,,,,,,64,127,5,,,,
116440,control_change,40,0,3,,,,,,,64,127,3,,,,
116440,control_change,40,0,4,,,,,,,64,127,4,,,,
116440,control_change,40,0,2,,,,,,,64,127,2,,,,
116440,control_change,40,0,1,,,,,,,64,127,1,,,,
116460,note_off,20,0,5,,,,,,,,,5,,,42,0
116460,note_on,20,0,3,,,,,,,,,3,,,46,58
116520,note_on,0,0,3,,,,,,,,,3,,,54,59
116520,note_off,60,0,3,,,,,,,,,3,,,46,0
116580,note_off,60,0,3,,,,,,,,,3,,,54,0
116580,note_on,140,0,1,,,,,,,,,1,,,77,59
116600,set_tempo,680,1,0,,,,,,1052631,,,,,,,
116640,set_tempo,40,1,0,,,,,,1034482,,,,,,,
116640,note_off,60,0,1,,,,,,,,,1,,,77,0
116640,note_on,0,0,1,,,,,,,,,1,,,76,60
116700,note_on,120,0,3,,,,,,,,,3,,,73,60
116700,note_off,60,0,1,,,,,,,,,1,,,76,0
116760,note_off,60,0,3,,,,,,,,,3,,,73,0
116760,note_on,0,0,3,,,,,,,,,3,,,64,61
116820,note_off,60,0,3,,,,,,,,,3,,,64,0
116820,note_on,120,0,1,,,,,,,,,1,,,76,61
116820,note_on,360,0,5,,,,,,,,,5,,,54,61
116880,control_change,60,0,5,,,,,,,64,0,5,,,,
116880,control_change,440,0,2,,,,,,,64,0,2,,,,
116880,control_change,440,0,4,,,,,,,64,0,4,,,,
116880,control_change,60,0,1,,,,,,,64,0,1,,,,
116880,note_off,0,0,1,,,,,,,,,1,,,76,0
116880,note_off,0,0,5,,,,,,,,,5,,,54,0
116880,control_change,60,0,3,,,,,,,64,0,3,,,,
116880,note_on,0,0,1,,,,,,,,,1,,,75,62
116880,note_on,0,0,5,,,,,,,,,5,,,55,62
116920,control_change,40,0,2,,,,,,,64,127,2,,,,
116920,control_change,40,0,4,,,,,,,64,127,4,,,,
116920,control_change,40,0,5,,,,,,,64,127,5,,,,
116920,control_change,40,0,3,,,,,,,64,127,3,,,,
116920,control_change,40,0,1,,,,,,,64,127,1,,,,
116940,note_on,0,0,3,,,,,,,,,3,,,58,62
116940,note_on,20,0,3,,,,,,,,,3,,,73,62
116940,note_off,20,0,1,,,,,,,,,1,,,75,0
116940,note_off,20,0,5,,,,,,,,,5,,,55,0
117000,note_on,0,0,3,,,,,,,,,3,,,63,62
117000,note_off,0,0,3,,,,,,,,,3,,,73,0
117000,note_on,0,0,3,,,,,,,,,3,,,67,62
117000,note_off,60,0,3,,,,,,,,,3,,,58,0
117060,note_off,60,0,3,,,,,,,,,3,,,67,0
117060,note_off,0,0,3,,,,,,,,,3,,,63,0
117060,note_on,120,0,5,,,,,,,,,5,,,55,63
117120,control_change,60,0,3,,,,,,,64,0,3,,,,
117120,control_change,200,0,2,,,,,,,64,0,2,,,,
117120,control_change,200,0,4,,,,,,,64,0,4,,,,
117120,control_change,180,0,1,,,,,,,64,0,1,,,,
117120,control_change,60,0,5,,,,,,,64,0,5,,,,
117120,note_off,0,0,5,,,,,,,,,5,,,55,0
117120,note_on,0,0,5,,,,,,,,,5,,,56,63
117160,control_change,40,0,2,,,,,,,64,127,2,,,,
117160,control_change,40,0,1,,,,,,,64,127,1,,,,
117160,control_change,40,0,5,,,,,,,64,127,5,,,,
117160,control_change,40,0,3,,,,,,,64,127,3,,,,
117160,control_change,40,0,4,,,,,,,64,127,4,,,,
117180,note_off,20,0,5,,,,,,,,,5,,,56,0
117180,note_on,20,0,3,,,,,,,,,3,,,60,64
117240,note_off,60,0,3,,,,,,,,,3,,,60,0
117240,note_on,0,0,3,,,,,,,,,3,,,68,64
117300,note_on,140,0,1,,,,,,,,,1,,,80,65
117300,note_off,60,0,3,,,,,,,,,3,,,68,0
117320,set_tempo,680,1,0,,,,,,1052631,,,,,,,
117360,set_tempo,40,1,0,,,,,,1034482,,,,,,,
117360,note_off,60,0,1,,,,,,,,,1,,,80,0
117360,note_on,0,0,1,,,,,,,,,1,,,78,65
117420,note_on,120,0,3,,,,,,,,,3,,,75,66
117420,note_off,60,0,1,,,,,,,,,1,,,78,0
117480,note_off,60,0,3,,,,,,,,,3,,,75,0
117480,note_on,0,0,3,,,,,,,,,3,,,66,66
117540,note_off,60,0,3,,,,,,,,,3,,,66,0
117540,note_on,360,0,5,,,,,,,,,5,,,44,66
117540,note_on,120,0,1,,,,,,,,,1,,,78,66
117600,note_on,0,0,5,,,,,,,,,5,,,45,67
117600,control_change,60,0,3,,,,,,,64,0,3,,,,
117600,note_off,0,0,1,,,,,,,,,1,,,78,0
117600,control_change,60,0,1,,,,,,,64,0,1,,,,
117600,control_change,60,0,5,,,,,,,64,0,5,,,,
117600,control_change,440,0,4,,,,,,,64,0,4,,,,
117600,control_change,440,0,2,,,,,,,64,0,2,,,,
117600,note_off,0,0,5,,,,,,,,,5,,,44,0
117600,note_on,0,0,1,,,,,,,,,1,,,77,67
117640,control_change,40,0,4,,,,,,,64,127,4,,,,
117640,control_change,40,0,5,,,,,,,64,127,5,,,,
117640,control_change,40,0,1,,,,,,,64,127,1,,,,
117640,control_change,40,0,2,,,,,,,64,127,2,,,,
117640,control_change,40,0,3,,,,,,,64,127,3,,,,
117660,note_on,0,0,3,,,,,,,,,3,,,48,67
117660,note_off,20,0,1,,,,,,,,,1,,,77,0
117660,note_off,20,0,5,,,,,,,,,5,,,45,0
117660,note_on,20,0,3,,,,,,,,,3,,,75,67
117720,note_off,60,0,3,,,,,,,,,3,,,48,0
117720,note_off,0,0,3,,,,,,,,,3,,,75,0
117720,note_on,0,0,3,,,,,,,,,3,,,65,68
117720,note_on,0,0,3,,,,,,,,,3,,,57,68
117780,note_off,60,0,3,,,,,,,,,3,,,57,0
117780,note_off,0,0,3,,,,,,,,,3,,,65,0
117780,note_on,120,0,5,,,,,,,,,5,,,45,68
117840,control_change,200,0,2,,,,,,,64,0,2,,,,
117840,note_off,0,0,5,,,,,,,,,5,,,45,0
117840,note_on,0,0,5,,,,,,,,,5,,,46,69
117840,control_change,60,0,5,,,,,,,64,0,5,,,,
117840,control_change,180,0,1,,,,,,,64,0,1,,,,
117840,control_change,200,0,4,,,,,,,64,0,4,,,,
117840,control_change,60,0,3,,,,,,,64,0,3,,,,
117880,control_change,40,0,3,,,,,,,64,127,3,,,,
117880,control_change,40,0,1,,,,,,,64,127,1,,,,
117880,control_change,40,0,5,,,,,,,64,127,5,,,,
117880,control_change,40,0,2,,,,,,,64,127,2,,,,
117880,control_change,40,0,4,,,,,,,64,127,4,,,,
117900,note_off,20,0,5,,,,,,,,,5,,,46,0
117900,note_on,20,0,3,,,,,,,,,3,,,50,69
117960,note_off,60,0,3,,,,,,,,,3,,,50,0
117960,note_on,0,0,3,,,,,,,,,3,,,58,70
118020,note_on,140,0,1,,,,,,,,,1,,,82,70
118020,note_off,60,0,3,,,,,,,,,3,,,58,0
118040,set_tempo,680,1,0,,,,,,1052631,,,,,,,
118080,note_on,0,0,1,,,,,,,,,1,,,80,70
118080,note_off,60,0,1,,,,,,,,,1,,,82,0
118080,set_tempo,40,1,0,,,,,,1034482,,,,,,,
118140,note_on,120,0,3,,,,,,,,,3,,,77,71
118140,note_on,240,0,5,,,,,,,,,5,,,58,71
118140,note_off,60,0,1,,,,,,,,,1,,,80,0
118200,control_change,60,0,3,,,,,,,64,0,3,,,,
118200,control_change,320,0,4,,,,,,,64,0,4,,,,
118200,control_change,60,0,1,,,,,,,64,0,1,,,,
118200,note_off,0,0,3,,,,,,,,,3,,,77,0
118200,note_on,0,0,3,,,,,,,,,3,,,68,71
118200,note_on,0,0,5,,,,,,,,,5,,,59,71
118200,note_off,0,0,5,,,,,,,,,5,,,58,0
118200,control_change,60,0,5,,,,,,,64,0,5,,,,
118200,control_change,320,0,2,,,,,,,64,0,2,,,,
118240,control_change,40,0,1,,,,,,,64,127,1,,,,
118240,control_change,40,0,2,,,,,,,64,127,2,,,,
118240,control_change,40,0,3,,,,,,,64,127,3,,,,
118240,control_change,40,0,4,,,,,,,64,127,4,,,,
118240,control_change,40,0,5,,,,,,,64,127,5,,,,
118260,note_off,20,0,3,,,,,,,,,3,,,68,0
118260,note_off,20,0,5,,,,,,,,,5,,,59,0
118260,note_on,0,0,3,,,,,,,,,3,,,62,72
118320,note_on,0,0,3,,,,,,,,,3,,,71,72
118320,note_off,60,0,3,,,,,,,,,3,,,62,0
118380,note_off,60,0,3,,,,,,,,,3,,,71,0
118380,note_on,140,0,1,,,,,,,,,1,,,82,73
118380,note_on,120,0,5,,,,,,,,,5,,,59,73
118440,control_change,200,0,2,,,,,,,64,0,2,,,,
118440,note_on,0,0,5,,,,,,,,,5,,,60,73
118440,control_change,60,0,5,,,,,,,64,0,5,,,,
118440,note_on,0,0,1,,,,,,,,,1,,,80,73
118440,note_off,0,0,1,,,,,,,,,1,,,82,0
118440,control_change,60,0,1,,,,,,,64,0,1,,,,
118440,note_off,0,0,5,,,,,,,,,5,,,59,0
118440,control_change,200,0,4,,,,,,,64,0,4,,,,
118440,control_change,60,0,3,,,,,,,64,0,3,,,,
118480,control_change,40,0,4,,,,,,,64,127,4,,,,
118480,control_change,40,0,3,,,,,,,64,127,3,,,,
118480,control_change,40,0,1,,,,,,,64,127,1,,,,
118480,control_change,40,0,5,,,,,,,64,127,5,,,,
118480,control_change,40,0,2,,,,,,,64,127,2,,,,
118500,note_off,20,0,5,,,,,,,,,5,,,60,0
118500,note_on,0,0,3,,,,,,,,,3,,,65,74
118500,note_off,20,0,1,,,,,,,,,1,,,80,0
118500,note_on,20,0,3,,,,,,,,,3,,,77,74
118560,note_on,0,0,3,,,,,,,,,3,,,68,74
118560,note_off,60,0,3,,,,,,,,,3,,,65,0
118560,note_off,0,0,3,,,,,,,,,3,,,77,0
118560,note_on,0,0,3,,,,,,,,,3,,,72,74
118620,note_on,120,0,5,,,,,,,,,5,,,60,74
118620,note_off,0,0,3,,,,,,,,,3,,,72,0
118620,note_off,60,0,3,,,,,,,,,3,,,68,0
118680,note_on,0,0,5,,,,,,,,,5,,,61,75
118680,control_change,60,0,5,,,,,,,64,0,5,,,,
118680,control_change,200,0,2,,,,,,,64,0,2,,,,
118680,note_off,0,0,5,,,,,,,,,5,,,60,0
118680,control_change,200,0,4,,,,,,,64,0,4,,,,
118680,control_change,60,0,3,,,,,,,64,0,3,,,,
118680,control_change,180,0,1,,,,,,,64,0,1,,,,
118720,control_change,40,0,4,,,,,,,64,127,4,,,,
118720,control_change,40,0,2,,,,,,,64,127,2,,,,
118720,control_change,40,0,5,,,,,,,64,127,5,,,,
118720,control_change,40,0,3,,,,,,,64,127,3,,,,
118720,control_change,40,0,1,,,,,,,64,127,1,,,,
118740,note_off,20,0,5,,,,,,,,,5,,,61,0
118740,note_on,20,0,3,,,,,,,,,3,,,65,75
118740,note_on,20,0,1,,,,,,,,,1,,,82,75
118760,set_tempo,680,1,0,,,,,,1052631,,,,,,,
118800,set_tempo,40,1,0,,,,,,1034482,,,,,,,
118800,note_off,60,0,3,,,,,,,,,3,,,65,0
118800,note_on,60,0,5,,,,,,,,,5,,,73,75
118800,note_on,0,0,1,,,,,,,,,1,,,80,75
118800,note_off,60,0,1,,,,,,,,,1,,,82,0
118860,note_off,60,0,5,,,,,,,,,5,,,73,0
118860,note_on,60,0,3,,,,,,,,,3,,,77,74
118860,note_off,60,0,1,,,,,,,,,1,,,80,0
118920,note_off,60,0,3,,,,,,,,,3,,,77,0
118920,note_on,0,0,3,,,,,,,,,3,,,71,74
118980,note_on,120,0,5,,,,,,,,,5,,,70,73
118980,note_off,60,0,3,,,,,,,,,3,,,71,0
119040,note_off,60,0,5,,,,,,,,,5,,,70,0
119040,note_on,0,0,5,,,,,,,,,5,,,68,72
119100,note_on,0,0,5,,,,,,,,,5,,,65,72
119100,note_off,60,0,5,,,,,,,,,5,,,68,0
119160,note_off,60,0,5,,,,,,,,,5,,,65,0
119160,note_on,0,0,5,,,,,,,,,5,,,59,71
119220,note_on,360,0,1,,,,,,,,,1,,,58,70
119220,note_off,60,0,5,,,,,,,,,5,,,59,0
119280,note_on,60,0,5,,,,,,,,,5,,,56,70
119280,note_off,60,0,1,,,,,,,,,1,,,58,0
119340,note_off,60,0,5,,,,,,,,,5,,,56,0
119340,note_on,0,0,5,,,,,,,,,5,,,53,69
119400,note_off,60,0,5,,,,,,,,,5,,,53,0
119400,note_on,0,0,5,,,,,,,,,5,,,47,68
119460,note_off,60,0,5,,,,,,,,,5,,,47,0
119460,note_on,180,0,1,,,,,,,,,1,,,36,68
119520,note_off,60,0,1,,,,,,,,,1,,,36,0
119520,note_on,60,0,5,,,,,,,,,5,,,37,67
119580,note_off,60,0,5,,,,,,,,,5,,,37,0
119580,note_on,0,0,5,,,,,,,,,5,,,44,66
119640,note_off,60,0,5,,,,,,,,,5,,,44,0
119640,note_on,0,0,5,,,,,,,,,5,,,47,66
119700,note_on,180,0,1,,,,,,,,,1,,,48,65
119700,note_off,60,0,5,,,,,,,,,5,,,47,0
119760,note_on,60,0,5,,,,,,,,,5,,,49,64
119760,note_off,60,0,1,,,,,,,,,1,,,48,0
119820,note_off,60,0,5,,,,,,,,,5,,,49,0
119820,note_on,0,0,5,,,,,,,,,5,,,56,64
119880,note_on,0,0,5,,,,,,,,,5,,,59,63
119880,note_off,60,0,5,,,,,,,,,5,,,56,0
119940,note_off,60,0,5,,,,,,,,,5,,,59,0
119940,note_on,180,0,1,,,,,,,,,1,,,60,62
120000,note_on,60,0,5,,,,,,,,,5,,,61,62
120000,note_off,60,0,1,,,,,,,,,1,,,60,0
120060,note_on,0,0,5,,,,,,,,,5,,,68,61
120060,note_off,60,0,5,,,,,,,,,5,,,61,0
120120,note_on,0,0,5,,,,,,,,,5,,,71,60
120120,note_off,60,0,5,,,,,,,,,5,,,68,0
120180,note_off,60,0,5,,,,,,,,,5,,,71,0
120180,note_on,180,0,1,,,,,,,,,1,,,80,60
120200,set_tempo,1400,1,0,,,,,,1052631,,,,,,,
120240,control_change,60,0,1,,,,,,,64,0,1,,,,
120240,control_change,1260,0,3,,,,,,,64,0,3,,,,
120240,control_change,1520,0,4,,,,,,,64,0,4,,,,
120240,control_change,1520,0,2,,,,,,,64,0,2,,,,
120240,note_off,0,0,1,,,,,,,,,1,,,80,0
120240,set_tempo,40,1,0,,,,,,1034482,,,,,,,
120240,control_change,60,0,5,,,,,,,64,0,5,,,,
120240,note_on,0,0,1,,,,,,,,,1,,,79,59
120280,control_change,40,0,3,,,,,,,64,127,3,,,,
120280,control_change,40,0,5,,,,,,,64,127,5,,,,
120280,control_change,40,0,4,,,,,,,64,127,4,,,,
120280,control_change,40,0,1,,,,,,,64,127,1,,,,
120280,control_change,40,0,2,,,,,,,64,127,2,,,,
120300,note_on,20,0,5,,,,,,,,,5,,,76,59
120300,note_off,20,0,1,,,,,,,,,1,,,79,0
120360,note_on,0,0,5,,,,,,,,,5,,,70,58
120360,note_off,60,0,5,,,,,,,,,5,,,76,0
120420,note_on,120,0,1,,,,,,,,,1,,,68,57
120420,note_off,60,0,5,,,,,,,,,5,,,70,0
120480,note_on,60,0,5,,,,,,,,,5,,,67,57
120480,note_off,60,0,1,,,,,,,,,1,,,68,0
120540,note_off,60,0,5,,,,,,,,,5,,,67,0
120540,note_on,0,0,5,,,,,,,,,5,,,64,56
120600,note_off,60,0,5,,,,,,,,,5,,,64,0
120600,note_on,0,0,5,,,,,,,,,5,,,58,55
120660,note_on,180,0,1,,,,,,,,,1,,,56,55
120660,note_off,60,0,5,,,,,,,,,5,,,58,0
120720,note_on,60,0,5,,,,,,,,,5,,,55,54
120720,note_off,60,0,1,,,,,,,,,1,,,56,0
120780,note_off,60,0,5,,,,,,,,,5,,,55,0
120780,note_on,0,0,5,,,,,,,,,5,,,52,53
120840,note_off,60,0,5,,,,,,,,,5,,,52,0
120840,note_on,0,0,5,,,,,,,,,5,,,46,53
120900,note_off,60,0,5,,,,,,,,,5,,,46,0
120900,note_on,180,0,1,,,,,,,,,1,,,35,52
120960,note_on,60,0,5,,,,,,,,,5,,,36,51
120960,note_off,60,0,1,,,,,,,,,1,,,35,0
121020,note_off,60,0,5,,,,,,,,,5,,,36,0
121020,note_on,0,0,5,,,,,,,,,5,,,43,51
121080,note_off,60,0,5,,,,,,,,,5,,,43,0
121080,note_on,0,0,5,,,,,,,,,5,,,46,50
121140,note_off,60,0,5,,,,,,,,,5,,,46,0
121140,note_on,180,0,1,,,,,,,,,1,,,47,49
121200,note_on,60,0,5,,,,,,,,,5,,,48,49
121200,note_off,60,0,1,,,,,,,,,1,,,47,0
121260,note_on,0,0,5,,,,,,,,,5,,,55,48
121260,note_off,60,0,5,,,,,,,,,5,,,48,0
121320,note_on,0,0,5,,,,,,,,,5,,,58,47
121320,note_off,60,0,5,,,,,,,,,5,,,55,0
121380,note_on,180,0,1,,,,,,,,,1,,,59,47
121380,note_off,60,0,5,,,,,,,,,5,,,58,0
121440,control_change,1160,0,3,,,,,,,64,0,3,,,,
121440,control_change,60,0,1,,,,,,,64,0,1,,,,
121440,note_off,0,0,1,,,,,,,,,1,,,59,0
121440,control_change,60,0,5,,,,,,,64,0,5,,,,
121440,control_change,1160,0,4,,,,,,,64,0,4,,,,
121440,control_change,1160,0,2,,,,,,,64,0,2,,,,
121440,note_on,0,0,5,,,,,,,,,5,,,60,46
121480,control_change,40,0,4,,,,,,,64,127,4,,,,
121480,control_change,40,0,2,,,,,,,64,127,2,,,,
121480,control_change,40,0,3,,,,,,,64,127,3,,,,
121480,control_change,40,0,5,,,,,,,64,127,5,,,,
121480,control_change,40,0,1,,,,,,,64,127,1,,,,
121500,note_on,0,0,5,,,,,,,,,5,,,67,45
121500,set_tempo,1260,1,0,,,,,,1071428,,,,,,,
121500,note_off,20,0,5,,,,,,,,,5,,,60,0
121560,note_on,0,0,5,,,,,,,,,5,,,70,45
121560,note_on,0,0,2,,,,,,,,,2,,,82,45
121560,note_on,0,0,2,,,,,,,,,2,,,79,45
121560,note_off,60,0,5,,,,,,,,,5,,,67,0
121560,note_on,80,0,1,,,,,,,,,1,,,85,45
121560,note_on,80,0,2,,,,,,,,,2,,,76,45
121620,note_off,60,0,5,,,,,,,,,5,,,70,0
121680,control_change,200,0,4,,,,,,,64,0,4,,,,
121680,control_change,120,0,2,,,,,,,64,0,2,,,,
121680,control_change,200,0,3,,,,,,,64,0,3,,,,
121680,note_on,0,0,1,,,,,,,,,1,,,84,43
121680,note_off,0,0,1,,,,,,,,,1,,,85,0
121680,control_change,120,0,1,,,,,,,64,0,1,,,,
121680,control_change,60,0,5,,,,,,,64,0,5,,,,
121800,note_off,0,0,2,,,,,,,,,2,,,76,0
121800,note_on,0,0,4,,,,,,,,,4,,,64,42
121800,note_off,0,0,2,,,,,,,,,2,,,79,0
121800,note_off,120,0,2,,,,,,,,,2,,,82,0
121800,note_on,120,0,5,,,,,,,,,5,,,59,42
121800,set_tempo,300,1,0,,,,,,1111111,,,,,,,
121800,note_on,120,0,4,,,,,,,,,4,,,67,42
121800,note_off,120,0,1,,,,,,,,,1,,,84,0
121920,note_off,120,0,5,,,,,,,,,5,,,59,0
121920,note_on,0,0,5,,,,,,,,,5,,,60,41
121998,note_off,0,0,4,,,,,,,,,4,,,67,0
121998,note_off,198,0,4,,,,,,,,,4,,,64,0
121998,note_off,78,0,5,,,,,,,,,5,,,60,0
122040,note_on,240,0,2,,,,,,,,,2,,,70,40
122040,note_on,0,0,2,,,,,,,,,2,,,63,40
122040,note_on,0,0,2,,,,,,,,,2,,,66,40
122040,note_on,240,0,1,,,,,,,,,1,,,73,40
122160,note_off,120,0,1,,,,,,,,,1,,,73,0
122160,note_on,0,0,1,,,,,,,,,1,,,72,39
122238,note_off,198,0,2,,,,,,,,,2,,,63,0
122238,note_off,0,0,2,,,,,,,,,2,,,70,0
122238,note_off,0,0,2,,,,,,,,,2,,,66,0
122238,note_off,78,0,1,,,,,,,,,1,,,72,0
122280,set_tempo,480,1,0,,,,,,1176470,,,,,,,
122280,note_on,282,0,4,,,,,,,,,4,,,51,38
122280,note_on,0,0,4,,,,,,,,,4,,,54,38
122280,note_on,282,0,5,,,,,,,,,5,,,47,38
122400,set_tempo,120,1,0,,,,,,1224489,,,,,,,
122400,note_on,0,0,5,,,,,,,,,5,,,48,36
122400,note_off,120,0,5,,,,,,,,,5,,,47,0
122478,note_off,198,0,4,,,,,,,,,4,,,54,0
122478,note_off,0,0,4,,,,,,,,,4,,,51,0
122478,note_off,78,0,5,,,,,,,,,5,,,48,0
122520,set_tempo,120,1,0,,,,,,1500000,,,,,,,
122520,note_on,0,0,2,,,,,,,,,2,,,53,35
122520,note_on,0,0,2,,,,,,,,,2,,,57,35
122520,note_on,282,0,2,,,,,,,,,2,,,51,35
122520,note_on,282,0,1,,,,,,,,,1,,,61,35
122640,note_on,0,0,1,,,,,,,,,1,,,60,34
122640,set_tempo,120,1,0,,,,,,2727272,,,,,,,
122640,note_off,120,0,1,,,,,,,,,1,,,61,0
122760,set_tempo,120,1,0,,,,,,1034482,,,,,,,
122760,note_on,282,0,5,,,,,,,,,5,,,28,33
122880,control_change,120,0,5,,,,,,,64,0,5,,,,
122880,note_off,0,0,5,,,,,,,,,5,,,28,0
122880,note_on,0,0,5,,,,,,,,,5,,,29,32
122880,control_change,240,0,1,,,,,,,64,0,1,,,,
122880,control_change,360,0,2,,,,,,,64,0,2,,,,
122880,control_change,402,0,4,,,,,,,64,0,4,,,,
122880,control_change,1200,0,3,,,,,,,64,0,3,,,,
122920,control_change,40,0,1,,,,,,,64,127,1,,,,
122920,control_change,40,0,2,,,,,,,64,127,2,,,,
122920,control_change,40,0,3,,,,,,,64,127,3,,,,
122920,control_change,40,0,4,,,,,,,64,127,4,,,,
122920,control_change,40,0,5,,,,,,,64,127,5,,,,
123000,note_off,80,0,2,,,,,,,,,2,,,57,0
123000,note_off,0,0,2,,,,,,,,,2,,,53,0
123000,note_off,0,0,2,,,,,,,,,2,,,51,0
123000,note_off,80,0,1,,,,,,,,,1,,,60,0
123060,note_off,140,0,5,,,,,,,,,5,,,29,0
123060,note_on,0,0,5,,,,,,,,,5,,,41,34
123120,note_off,60,0,5,,,,,,,,,5,,,41,0
123120,note_on,0,0,5,,,,,,,,,5,,,45,35
123180,note_off,60,0,5,,,,,,,,,5,,,45,0
123180,note_on,0,0,5,,,,,,,,,5,,,48,35
123240,note_off,60,0,5,,,,,,,,,5,,,48,0
123240,note_on,0,0,5,,,,,,,,,5,,,51,36
123240,note_on,240,0,1,,,,,,,,,1,,,85,36
123300,note_on,0,0,5,,,,,,,,,5,,,54,36
123300,note_off,60,0,5,,,,,,,,,5,,,51,0
123300,note_on,380,0,3,,,,,,,,,3,,,75,36
123300,note_off,60,0,1,,,,,,,,,1,,,85,0
123360,note_on,0,0,5,,,,,,,,,5,,,57,36
123360,note_off,60,0,5,,,,,,,,,5,,,54,0
123360,note_off,60,0,3,,,,,,,,,3,,,75,0
123360,note_on,60,0,1,,,,,,,,,1,,,84,36
123420,note_off,60,0,5,,,,,,,,,5,,,57,0
123420,note_off,60,0,1,,,,,,,,,1,,,84,0
123420,note_on,0,0,5,,,,,,,,,5,,,60,37
123420,note_on,60,0,3,,,,,,,,,3,,,78,37
123480,note_on,0,0,5,,,,,,,,,5,,,66,37
123480,note_off,60,0,3,,,,,,,,,3,,,78,0
123480,note_off,60,0,5,,,,,,,,,5,,,60,0
123480,note_on,60,0,1,,,,,,,,,1,,,82,37
123540,note_on,0,0,5,,,,,,,,,5,,,63,38
123540,note_off,60,0,1,,,,,,,,,1,,,82,0
123540,note_off,60,0,5,,,,,,,,,5,,,66,0
123540,note_on,60,0,3,,,,,,,,,3,,,72,38
123600,note_on,0,0,5,,,,,,,,,5,,,54,38
123600,note_off,60,0,3,,,,,,,,,3,,,72,0
123600,note_on,60,0,1,,,,,,,,,1,,,81,38
123600,note_off,60,0,5,,,,,,,,,5,,,63,0
123660,note_on,60,0,3,,,,,,,,,3,,,75,38
123660,note_off,60,0,5,,,,,,,,,5,,,54,0
123660,note_on,0,0,5,,,,,,,,,5,,,57,38
123660,note_off,60,0,1,,,,,,,,,1,,,81,0
123720,note_off,60,0,3,,,,,,,,,3,,,75,0
123720,note_on,60,0,1,,,,,,,,,1,,,80,39
123720,note_off,60,0,5,,,,,,,,,5,,,57,0
123720,note_on,0,0,5,,,,,,,,,5,,,63,39
123780,note_off,60,0,5,,,,,,,,,5,,,63,0
123780,note_off,60,0,1,,,,,,,,,1,,,80,0
123780,note_on,0,0,5,,,,,,,,,5,,,60,39
123780,note_on,60,0,3,,,,,,,,,3,,,69,39
123840,note_off,60,0,5,,,,,,,,,5,,,60,0
123840,note_on,0,0,5,,,,,,,,,5,,,51,40
123840,note_off,60,0,3,,,,,,,,,3,,,69,0
123840,note_on,60,0,1,,,,,,,,,1,,,78,40
123900,note_off,60,0,1,,,,,,,,,1,,,78,0
123900,note_off,60,0,5,,,,,,,,,5,,,51,0
123900,note_on,0,0,5,,,,,,,,,5,,,54,40
123900,note_on,60,0,3,,,,,,,,,3,,,72,40
123960,note_off,60,0,5,,,,,,,,,5,,,54,0
123960,note_on,0,0,5,,,,,,,,,5,,,60,40
123960,note_on,60,0,1,,,,,,,,,1,,,77,40
123960,note_off,60,0,3,,,,,,,,,3,,,72,0
124020,note_on,60,0,3,,,,,,,,,3,,,66,41
124020,note_off,60,0,1,,,,,,,,,1,,,77,0
124020,note_on,0,0,5,,,,,,,,,5,,,57,41
124020,note_off,60,0,5,,,,,,,,,5,,,60,0
124080,note_on,60,0,1,,,,,,,,,1,,,75,41
124080,note_off,60,0,3,,,,,,,,,3,,,66,0
124080,note_on,0,0,5,,,,,,,,,5,,,48,41
124080,note_off,60,0,5,,,,,,,,,5,,,57,0
124140,note_on,0,0,5,,,,,,,,,5,,,51,42
124140,note_off,60,0,1,,,,,,,,,1,,,75,0
124140,note_off,60,0,5,,,,,,,,,5,,,48,0
124140,note_on,60,0,3,,,,,,,,,3,,,69,42
124200,note_off,60,0,3,,,,,,,,,3,,,69,0
124200,note_off,60,0,5,,,,,,,,,5,,,51,0
124200,note_on,0,0,5,,,,,,,,,5,,,57,42
124260,note_off,60,0,5,,,,,,,,,5,,,57,0
124260,note_on,0,0,5,,,,,,,,,5,,,54,42
124320,note_on,0,0,5,,,,,,,,,5,,,51,43
124320,note_off,60,0,5,,,,,,,,,5,,,54,0
124380,note_on,0,0,5,,,,,,,,,5,,,48,43
124380,note_off,60,0,5,,,,,,,,,5,,,51,0
124440,control_change,240,0,3,,,,,,,64,0,3,,,,
124440,control_change,1440,0,2,,,,,,,64,0,2,,,,
124440,note_on,0,0,5,,,,,,,,,5,,,45,43
124440,note_off,0,0,5,,,,,,,,,5,,,48,0
124440,control_change,60,0,5,,,,,,,64,0,5,,,,
124440,control_change,1520,0,4,,,,,,,64,0,4,,,,
124440,note_on,0,0,1,,,,,,,,,1,,,73,43
124440,control_change,300,0,1,,,,,,,64,0,1,,,,
124500,note_off,60,0,5,,,,,,,,,5,,,45,0
124500,note_on,0,0,5,,,,,,,,,5,,,42,42
124500,note_off,60,0,1,,,,,,,,,1,,,73,0
124500,note_on,60,0,3,,,,,,,,,3,,,63,42
124520,set_tempo,1760,1,0,,,,,,1052631,,,,,,,
124560,control_change,120,0,4,,,,,,,64,0,4,,,,
124560,control_change,120,0,2,,,,,,,64,0,2,,,,
124560,control_change,60,0,3,,,,,,,64,0,3,,,,
124560,set_tempo,40,1,0,,,,,,1034482,,,,,,,
124560,note_on,0,0,5,,,,,,,,,5,,,39,42
124560,note_off,0,0,5,,,,,,,,,5,,,42,0
124560,control_change,60,0,5,,,,,,,64,0,5,,,,
124560,note_on,0,0,1,,,,,,,,,1,,,72,42
124560,control_change,60,0,1,,,,,,,64,0,1,,,,
124560,note_off,0,0,3,,,,,,,,,3,,,63,0
124600,control_change,40,0,5,,,,,,,64,127,5,,,,
124600,control_change,40,0,2,,,,,,,64,127,2,,,,
124600,control_change,40,0,3,,,,,,,64,127,3,,,,
124600,control_change,40,0,4,,,,,,,64,127,4,,,,
124600,control_change,40,0,1,,,,,,,64,127,1,,,,
124620,note_off,20,0,5,,,,,,,,,5,,,39,0
124620,note_off,20,0,1,,,,,,,,,1,,,72,0
124620,note_on,20,0,3,,,,,,,,,3,,,66,41
124620,note_on,0,0,3,,,,,,,,,3,,,45,41
124680,note_off,60,0,3,,,,,,,,,3,,,45,0
124680,note_off,0,0,3,,,,,,,,,3,,,66,0
124680,note_on,0,0,3,,,,,,,,,3,,,54,40
124740,note_off,60,0,3,,,,,,,,,3,,,54,0
124920,control_change,320,0,2,,,,,,,64,0,2,,,,
124920,control_change,320,0,4,,,,,,,64,0,4,,,,
124920,control_change,180,0,3,,,,,,,64,0,3,,,,
124920,note_on,0,0,5,,,,,,,,,5,,,39,38
124920,control_change,300,0,5,,,,,,,64,0,5,,,,
124920,control_change,300,0,1,,,,,,,64,0,1,,,,
124920,note_on,0,0,1,,,,,,,,,1,,,73,38
124960,control_change,40,0,3,,,,,,,64,127,3,,,,
124960,control_change,40,0,4,,,,,,,64,127,4,,,,
124960,control_change,40,0,5,,,,,,,64,127,5,,,,
124960,control_change,40,0,2,,,,,,,64,127,2,,,,
124960,control_change,40,0,1,,,,,,,64,127,1,,,,
124980,note_on,20,0,3,,,,,,,,,3,,,65,37
124980,note_off,20,0,5,,,,,,,,,5,,,39,0
124980,note_on,0,0,3,,,,,,,,,3,,,44,37
124980,note_off,20,0,1,,,,,,,,,1,,,73,0
125040,note_on,60,0,1,,,,,,,,,1,,,71,37
125040,note_off,0,0,3,,,,,,,,,3,,,65,0
125040,note_on,0,0,3,,,,,,,,,3,,,53,37
125040,note_off,60,0,3,,,,,,,,,3,,,44,0
125100,note_off,60,0,3,,,,,,,,,3,,,53,0
125100,note_on,0,0,3,,,,,,,,,3,,,68,36
125100,note_off,60,0,1,,,,,,,,,1,,,71,0
125160,note_off,60,0,3,,,,,,,,,3,,,68,0
125160,note_on,0,0,3,,,,,,,,,3,,,59,36
125220,note_off,60,0,3,,,,,,,,,3,,,59,0
125220,note_on,120,0,1,,,,,,,,,1,,,71,35
125240,set_tempo,680,1,0,,,,,,1052631,,,,,,,
125280,control_change,60,0,3,,,,,,,64,0,3,,,,
125280,note_on,0,0,1,,,,,,,,,1,,,70,36
125280,control_change,320,0,2,,,,,,,64,0,2,,,,
125280,note_off,0,0,1,,,,,,,,,1,,,71,0
125280,control_change,60,0,1,,,,,,,64,0,1,,,,
125280,set_tempo,40,1,0,,,,,,1034482,,,,,,,
125280,control_change,320,0,4,,,,,,,64,0,4,,,,
125280,control_change,300,0,5,,,,,,,64,0,5,,,,
125280,note_on,0,0,5,,,,,,,,,5,,,38,36
125320,control_change,40,0,5,,,,,,,64,127,5,,,,
125320,control_change,40,0,3,,,,,,,64,127,3,,,,
125320,control_change,40,0,1,,,,,,,64,127,1,,,,
125320,control_change,40,0,4,,,,,,,64,127,4,,,,
125320,control_change,40,0,2,,,,,,,64,127,2,,,,
125340,note_on,20,0,3,,,,,,,,,3,,,68,36
125340,note_off,20,0,5,,,,,,,,,5,,,38,0
125340,note_off,20,0,1,,,,,,,,,1,,,70,0
125400,note_off,60,0,3,,,,,,,,,3,,,68,0
125400,note_on,0,0,3,,,,,,,,,3,,,58,36
125460,note_off,60,0,3,,,,,,,,,3,,,58,0
125460,note_on,0,0,3,,,,,,,,,3,,,52,36
125520,note_off,60,0,3,,,,,,,,,3,,,52,0
125520,note_on,0,0,3,,,,,,,,,3,,,53,37
125580,note_off,60,0,3,,,,,,,,,3,,,53,0
125580,note_on,0,0,3,,,,,,,,,3,,,56,37
125640,note_off,60,0,3,,,,,,,,,3,,,56,0
125640,note_on,0,0,3,,,,,,,,,3,,,65,37
125700,note_off,60,0,3,,,,,,,,,3,,,65,0
125700,note_on,360,0,1,,,,,,,,,1,,,70,37
125760,note_on,0,0,1,,,,,,,,,1,,,71,38
125760,note_off,0,0,1,,,,,,,,,1,,,70,0
125760,control_change,60,0,3,,,,,,,64,0,3,,,,
125760,control_change,60,0,1,,,,,,,64,0,1,,,,
125760,note_on,0,0,5,,,,,,,,,5,,,39,38
125760,control_change,420,0,5,,,,,,,64,0,5,,,,
125760,control_change,440,0,4,,,,,,,64,0,4,,,,
125760,control_change,440,0,2,,,,,,,64,0,2,,,,
125800,control_change,40,0,3,,,,,,,64,127,3,,,,
125800,control_change,40,0,5,,,,,,,64,127,5,,,,
125800,control_change,40,0,4,,,,,,,64,127,4,,,,
125800,control_change,40,0,1,,,,,,,64,127,1,,,,
125800,control_change,40,0,2,,,,,,,64,127,2,,,,
125820,note_off,20,0,1,,,,,,,,,1,,,71,0
125820,note_on,20,0,3,,,,,,,,,3,,,68,38
125820,note_off,20,0,5,,,,,,,,,5,,,39,0
125880,note_on,0,0,3,,,,,,,,,3,,,59,38
125880,note_off,60,0,3,,,,,,,,,3,,,68,0
125940,note_on,120,0,1,,,,,,,,,1,,,71,39
125940,note_off,60,0,3,,,,,,,,,3,,,59,0
125960,set_tempo,680,1,0,,,,,,1052631,,,,,,,
126000,control_change,200,0,2,,,,,,,64,0,2,,,,
126000,note_on,0,0,5,,,,,,,,,5,,,38,39
126000,control_change,180,0,5,,,,,,,64,0,5,,,,
126000,note_on,0,0,1,,,,,,,,,1,,,77,39
126000,control_change,60,0,3,,,,,,,64,0,3,,,,
126000,control_change,200,0,4,,,,,,,64,0,4,,,,
126000,control_change,60,0,1,,,,,,,64,0,1,,,,
126000,note_off,0,0,1,,,,,,,,,1,,,71,0
126000,set_tempo,40,1,0,,,,,,1034482,,,,,,,
126040,control_change,40,0,3,,,,,,,64,127,3,,,,
126040,control_change,40,0,5,,,,,,,64,127,5,,,,
126040,control_change,40,0,4,,,,,,,64,127,4,,,,
126040,control_change,40,0,2,,,,,,,64,127,2,,,,
126040,control_change,40,0,1,,,,,,,64,127,1,,,,
126060,note_on,20,0,3,,,,,,,,,3,,,68,39
126060,note_off,20,0,5,,,,,,,,,5,,,38,0
126060,note_off,20,0,1,,,,,,,,,1,,,77,0
126120,note_off,60,0,3,,,,,,,,,3,,,68,0
126120,note_on,0,0,3,,,,,,,,,3,,,65,39
126180,note_on,0,0,3,,,,,,,,,3,,,57,40
126180,note_off,60,0,3,,,,,,,,,3,,,65,0
126240,note_on,0,0,3,,,,,,,,,3,,,58,40
126240,note_off,60,0,3,,,,,,,,,3,,,57,0
126300,note_off,60,0,3,,,,,,,,,3,,,58,0
126300,note_on,0,0,3,,,,,,,,,3,,,65,40
126360,note_on,0,0,3,,,,,,,,,3,,,70,40
126360,note_off,60,0,3,,,,,,,,,3,,,65,0
126420,note_on,360,0,1,,,,,,,,,1,,,77,41
126420,note_off,60,0,3,,,,,,,,,3,,,70,0
126480,note_off,0,0,1,,,,,,,,,1,,,77,0
126480,control_change,60,0,1,,,,,,,64,0,1,,,,
126480,note_on,0,0,1,,,,,,,,,1,,,80,41
126480,control_change,440,0,2,,,,,,,64,0,2,,,,
126480,control_change,440,0,4,,,,,,,64,0,4,,,,
126480,control_change,420,0,5,,,,,,,64,0,5,,,,
126480,note_on,0,0,5,,,,,,,,,5,,,34,41
126480,control_change,60,0,3,,,,,,,64,0,3,,,,
126520,control_change,40,0,3,,,,,,,64,127,3,,,,
126520,control_change,40,0,1,,,,,,,64,127,1,,,,
126520,control_change,40,0,5,,,,,,,64,127,5,,,,
126520,control_change,40,0,4,,,,,,,64,127,4,,,,
126520,control_change,40,0,2,,,,,,,64,127,2,,,,
126540,note_off,20,0,5,,,,,,,,,5,,,34,0
126540,note_on,20,0,3,,,,,,,,,3,,,74,41
126540,note_off,20,0,1,,,,,,,,,1,,,80,0
126600,note_off,60,0,3,,,,,,,,,3,,,74,0
126600,note_on,0,0,3,,,,,,,,,3,,,68,42
126660,note_off,60,0,3,,,,,,,,,3,,,68,0
126660,note_on,120,0,1,,,,,,,,,1,,,80,42
126680,set_tempo,680,1,0,,,,,,1052631,,,,,,,
126720,note_off,0,0,1,,,,,,,,,1,,,80,0
126720,control_change,60,0,3,,,,,,,64,0,3,,,,
126720,control_change,60,0,1,,,,,,,64,0,1,,,,
126720,note_on,0,0,1,,,,,,,,,1,,,78,42
126720,control_change,200,0,2,,,,,,,64,0,2,,,,
126720,control_change,200,0,4,,,,,,,64,0,4,,,,
126720,control_change,180,0,5,,,,,,,64,0,5,,,,
126720,note_on,0,0,5,,,,,,,,,5,,,39,42
126720,set_tempo,40,1,0,,,,,,1034482,,,,,,,
126760,control_change,40,0,3,,,,,,,64,127,3,,,,
126760,control_change,40,0,2,,,,,,,64,127,2,,,,
126760,control_change,40,0,4,,,,,,,64,127,4,,,,
126760,control_change,40,0,1,,,,,,,64,127,1,,,,
126760,control_change,40,0,5,,,,,,,64,127,5,,,,
126780,note_off,20,0,1,,,,,,,,,1,,,78,0
126780,note_off,20,0,5,,,,,,,,,5,,,39,0
126780,note_on,20,0,3,,,,,,,,,3,,,75,42
126840,note_on,0,0,3,,,,,,,,,3,,,66,43
126840,note_off,60,0,3,,,,,,,,,3,,,75,0
126900,note_off,60,0,3,,,,,,,,,3,,,66,0
126900,note_on,0,0,3,,,,,,,,,3,,,57,43
126960,note_on,0,0,3,,,,,,,,,3,,,58,43
126960,note_off,60,0,3,,,,,,,,,3,,,57,0
127020,note_on,0,0,3,,,,,,,,,3,,,61,43
127020,note_off,60,0,3,,,,,,,,,3,,,58,0
127080,note_on,0,0,3,,,,,,,,,3,,,70,44
127080,note_off,60,0,3,,,,,,,,,3,,,61,0
127140,note_on,360,0,1,,,,,,,,,1,,,73,44
127140,note_off,60,0,3,,,,,,,,,3,,,70,0
127200,note_off,0,0,1,,,,,,,,,1,,,73,0
127200,control_change,440,0,4,,,,,,,64,0,4,,,,
127200,control_change,60,0,1,,,,,,,64,0,1,,,,
127200,control_change,420,0,5,,,,,,,64,0,5,,,,
127200,note_on,0,0,5,,,,,,,,,5,,,32,44
127200,control_change,440,0,2,,,,,,,64,0,2,,,,
127200,note_on,0,0,1,,,,,,,,,1,,,78,44
127200,control_change,60,0,3,,,,,,,64,0,3,,,,
127240,control_change,40,0,4,,,,,,,64,127,4,,,,
127240,control_change,40,0,2,,,,,,,64,127,2,,,,
127240,control_change,40,0,1,,,,,,,64,127,1,,,,
127240,control_change,40,0,5,,,,,,,64,127,5,,,,
127240,control_change,40,0,3,,,,,,,64,127,3,,,,
127260,note_off,20,0,1,,,,,,,,,1,,,78,0
127260,note_off,20,0,5,,,,,,,,,5,,,32,0
127260,note_on,20,0,3,,,,,,,,,3,,,72,45
127320,note_on,0,0,3,,,,,,,,,3,,,66,45
127320,note_off,60,0,3,,,,,,,,,3,,,72,0
127380,note_on,120,0,1,,,,,,,,,1,,,78,45
127380,note_off,60,0,3,,,,,,,,,3,,,66,0
127400,set_tempo,680,1,0,,,,,,1052631,,,,,,,
127440,control_change,200,0,2,,,,,,,64,0,2,,,,
127440,set_tempo,40,1,0,,,,,,1034482,,,,,,,
127440,control_change,180,0,5,,,,,,,64,0,5,,,,
127440,note_on,0,0,5,,,,,,,,,5,,,37,45
127440,note_on,0,0,1,,,,,,,,,1,,,77,45
127440,control_change,60,0,3,,,,,,,64,0,3,,,,
127440,control_change,60,0,1,,,,,,,64,0,1,,,,
127440,note_off,0,0,1,,,,,,,,,1,,,78,0
127440,control_change,200,0,4,,,,,,,64,0,4,,,,
127480,control_change,40,0,3,,,,,,,64,127,3,,,,
127480,control_change,40,0,2,,,,,,,64,127,2,,,,
127480,control_change,40,0,1,,,,,,,64,127,1,,,,
127480,control_change,40,0,4,,,,,,,64,127,4,,,,
127480,control_change,40,0,5,,,,,,,64,127,5,,,,
127500,note_on,20,0,3,,,,,,,,,3,,,72,46
127500,note_off,20,0,1,,,,,,,,,1,,,77,0
127500,note_off,20,0,5,,,,,,,,,5,,,37,0
127560,note_on,0,0,3,,,,,,,,,3,,,65,46
127560,note_off,60,0,3,,,,,,,,,3,,,72,0
127620,note_off,60,0,3,,,,,,,,,3,,,65,0
127620,note_on,0,0,3,,,,,,,,,3,,,55,46
127680,note_on,0,0,3,,,,,,,,,3,,,56,46
127680,note_off,60,0,3,,,,,,,,,3,,,55,0
127740,note_on,0,0,3,,,,,,,,,3,,,60,47
127740,note_off,60,0,3,,,,,,,,,3,,,56,0
127800,note_off,60,0,3,,,,,,,,,3,,,60,0
127800,note_on,0,0,3,,,,,,,,,3,,,68,47
127860,note_off,60,0,3,,,,,,,,,3,,,68,0
127860,note_on,360,0,1,,,,,,,,,1,,,72,47
127920,note_on,0,0,5,,,,,,,,,5,,,30,48
127920,control_change,440,0,4,,,,,,,64,0,4,,,,
127920,control_change,60,0,1,,,,,,,64,0,1,,,,
127920,control_change,420,0,5,,,,,,,64,0,5,,,,
127920,note_on,0,0,1,,,,,,,,,1,,,77,48
127920,note_off,0,0,1,,,,,,,,,1,,,72,0
127920,control_change,440,0,2,,,,,,,64,0,2,,,,
127920,control_change,60,0,3,,,,,,,64,0,3,,,,
127960,control_change,40,0,5,,,,,,,64,127,5,,,,
127960,control_change,40,0,2,,,,,,,64,127,2,,,,
127960,control_change,40,0,4,,,,,,,64,127,4,,,,
127960,control_change,40,0,3,,,,,,,64,127,3,,,,
127960,control_change,40,0,1,,,,,,,64,127,1,,,,
127980,note_off,20,0,1,,,,,,,,,1,,,77,0
127980,note_off,20,0,5,,,,,,,,,5,,,30,0
127980,note_on,20,0,3,,,,,,,,,3,,,70,48
128040,note_off,60,0,3,,,,,,,,,3,,,70,0
128040,note_on,0,0,3,,,,,,,,,3,,,65,48
128100,note_off,60,0,3,,,,,,,,,3,,,65,0
128100,note_on,120,0,1,,,,,,,,,1,,,77,48
128120,set_tempo,680,1,0,,,,,,1052631,,,,,,,
128160,set_tempo,40,1,0,,,,,,1034482,,,,,,,
128160,control_change,200,0,4,,,,,,,64,0,4,,,,
128160,note_on,0,0,5,,,,,,,,,5,,,36,49
128160,control_change,180,0,5,,,,,,,64,0,5,,,,
128160,note_on,0,0,1,,,,,,,,,1,,,75,49
128160,note_off,0,0,1,,,,,,,,,1,,,77,0
128160,control_change,60,0,1,,,,,,,64,0,1,,,,
128160,control_change,200,0,2,,,,,,,64,0,2,,,,
128160,control_change,60,0,3,,,,,,,64,0,3,,,,
128200,control_change,40,0,1,,,,,,,64,127,1,,,,
128200,control_change,40,0,4,,,,,,,64,127,4,,,,
128200,control_change,40,0,3,,,,,,,64,127,3,,,,
128200,control_change,40,0,5,,,,,,,64,127,5,,,,
128200,control_change,40,0,2,,,,,,,64,127,2,,,,
128220,note_on,20,0,3,,,,,,,,,3,,,70,49
128220,note_off,20,0,5,,,,,,,,,5,,,36,0
128220,note_off,20,0,1,,,,,,,,,1,,,75,0
128280,note_on,0,0,3,,,,,,,,,3,,,63,49
128280,note_off,60,0,3,,,,,,,,,3,,,70,0
128340,note_off,60,0,3,,,,,,,,,3,,,63,0
128340,note_on,120,0,1,,,,,,,,,1,,,73,50
128400,note_on,0,0,1,,,,,,,,,1,,,72,50
128400,control_change,60,0,1,,,,,,,64,0,1,,,,
128400,note_off,0,0,1,,,,,,,,,1,,,73,0
128400,control_change,60,0,3,,,,,,,64,0,3,,,,
128400,control_change,180,0,5,,,,,,,64,0,5,,,,
128400,note_on,0,0,5,,,,,,,,,5,,,39,50
128400,control_change,200,0,2,,,,,,,64,0,2,,,,
128400,control_change,200,0,4,,,,,,,64,0,4,,,,
128440,control_change,40,0,3,,,,,,,64,127,3,,,,
128440,control_change,40,0,1,,,,,,,64,127,1,,,,
128440,control_change,40,0,5,,,,,,,64,127,5,,,,
128440,control_change,40,0,2,,,,,,,64,127,2,,,,
128440,control_change,40,0,4,,,,,,,64,127,4,,,,
128460,note_on,20,0,3,,,,,,,,,3,,,66,50
128460,note_off,20,0,1,,,,,,,,,1,,,72,0
128460,note_off,20,0,5,,,,,,,,,5,,,39,0
128520,note_off,60,0,3,,,,,,,,,3,,,66,0
128520,note_on,0,0,3,,,,,,,,,3,,,60,50
128580,note_off,60,0,3,,,,,,,,,3,,,60,0
128580,note_on,0,0,3,,,,,,,,,3,,,53,51
128640,note_off,60,0,3,,,,,,,,,3,,,53,0
128640,note_on,0,0,3,,,,,,,,,3,,,54,51
128700,note_off,60,0,3,,,,,,,,,3,,,54,0
128700,note_on,0,0,3,,,,,,,,,3,,,58,51
128760,note_on,0,0,3,,,,,,,,,3,,,66,51
128760,note_off,60,0,3,,,,,,,,,3,,,58,0
128820,note_on,360,0,1,,,,,,,,,1,,,77,52
128820,note_off,60,0,3,,,,,,,,,3,,,66,0
128840,set_tempo,680,1,0,,,,,,1052631,,,,,,,
128880,note_on,0,0,1,,,,,,,,,1,,,75,52
128880,control_change,440,0,2,,,,,,,64,0,2,,,,
128880,note_on,0,0,5,,,,,,,,,5,,,29,52
128880,control_change,440,0,4,,,,,,,64,0,4,,,,
128880,control_change,420,0,5,,,,,,,64,0,5,,,,
128880,control_change,60,0,3,,,,,,,64,0,3,,,,
128880,control_change,60,0,1,,,,,,,64,0,1,,,,
128880,set_tempo,40,1,0,,,,,,1034482,,,,,,,
128880,note_off,0,0,1,,,,,,,,,1,,,77,0
128920,control_change,40,0,4,,,,,,,64,127,4,,,,
128920,control_change,40,0,1,,,,,,,64,127,1,,,,
128920,control_change,40,0,2,,,,,,,64,127,2,,,,
128920,control_change,40,0,5,,,,,,,64,127,5,,,,
128920,control_change,40,0,3,,,,,,,64,127,3,,,,
128940,note_off,20,0,5,,,,,,,,,5,,,29,0
128940,note_on,20,0,3,,,,,,,,,3,,,69,52
128940,note_off,20,0,1,,,,,,,,,1,,,75,0
129000,note_off,60,0,3,,,,,,,,,3,,,69,0
129000,note_on,0,0,3,,,,,,,,,3,,,63,53
129060,note_off,60,0,3,,,,,,,,,3,,,63,0
129060,note_on,120,0,1,,,,,,,,,1,,,73,53
129120,control_change,200,0,2,,,,,,,64,0,2,,,,
129120,control_change,180,0,5,,,,,,,64,0,5,,,,
129120,control_change,200,0,4,,,,,,,64,0,4,,,,
129120,note_on,0,0,5,,,,,,,,,5,,,41,53
129120,note_on,0,0,1,,,,,,,,,1,,,72,53
129120,note_off,0,0,1,,,,,,,,,1,,,73,0
129120,control_change,60,0,1,,,,,,,64,0,1,,,,
129120,control_change,60,0,3,,,,,,,64,0,3,,,,
129160,control_change,40,0,1,,,,,,,64,127,1,,,,
129160,control_change,40,0,2,,,,,,,64,127,2,,,,
129160,control_change,40,0,4,,,,,,,64,127,4,,,,
129160,control_change,40,0,5,,,,,,,64,127,5,,,,
129160,control_change,40,0,3,,,,,,,64,127,3,,,,
129180,note_off,20,0,1,,,,,,,,,1,,,72,0
129180,note_off,20,0,5,,,,,,,,,5,,,41,0
129180,note_on,20,0,3,,,,,,,,,3,,,69,53
129240,note_off,60,0,3,,,,,,,,,3,,,69,0
129240,note_on,0,0,3,,,,,,,,,3,,,63,54
129300,note_off,60,0,3,,,,,,,,,3,,,63,0
129300,note_on,0,0,3,,,,,,,,,3,,,52,54
129360,note_off,60,0,3,,,,,,,,,3,,,52,0
129360,note_on,0,0,3,,,,,,,,,3,,,53,54
129420,note_off,60,0,3,,,,,,,,,3,,,53,0
129420,note_on,0,0,3,,,,,,,,,3,,,57,54
129480,note_off,60,0,3,,,,,,,,,3,,,57,0
129480,note_on,0,0,3,,,,,,,,,3,,,65,55
129540,note_on,360,0,1,,,,,,,,,1,,,78,55
129540,note_off,60,0,3,,,,,,,,,3,,,65,0
129560,set_tempo,680,1,0,,,,,,1052631,,,,,,,
129600,note_off,0,0,1,,,,,,,,,1,,,78,0
129600,control_change,420,0,5,,,,,,,64,0,5,,,,
129600,control_change,60,0,3,,,,,,,64,0,3,,,,
129600,control_change,440,0,2,,,,,,,64,0,2,,,,
129600,control_change,440,0,4,,,,,,,64,0,4,,,,
129600,note_on,0,0,1,,,,,,,,,1,,,77,57
129600,set_tempo,40,1,0,,,,,,1034482,,,,,,,
129600,control_change,60,0,1,,,,,,,64,0,1,,,,
129640,control_change,40,0,2,,,,,,,64,127,2,,,,
129640,control_change,40,0,1,,,,,,,64,127,1,,,,
129640,control_change,40,0,4,,,,,,,64,127,4,,,,
129640,control_change,40,0,5,,,,,,,64,127,5,,,,
129640,control_change,40,0,3,,,,,,,64,127,3,,,,
129660,note_on,20,0,3,,,,,,,,,3,,,72,57
129720,note_on,0,0,3,,,,,,,,,3,,,69,57
129720,note_off,60,0,3,,,,,,,,,3,,,72,0
129780,note_off,60,0,3,,,,,,,,,3,,,69,0
129780,note_on,140,0,5,,,,,,,,,5,,,65,56
129840,note_off,200,0,1,,,,,,,,,1,,,77,0
129840,note_on,0,0,1,,,,,,,,,1,,,76,56
129840,note_off,60,0,5,,,,,,,,,5,,,65,0
129900,note_on,120,0,3,,,,,,,,,3,,,72,55
129960,note_on,0,0,3,,,,,,,,,3,,,69,55
129960,note_off,60,0,3,,,,,,,,,3,,,72,0
130020,note_on,180,0,5,,,,,,,,,5,,,65,54
130020,note_off,60,0,3,,,,,,,,,3,,,69,0
130075,note_off,235,0,1,,,,,,,,,1,,,76,0
130080,note_off,0,0,5,,,,,,,,,5,,,65,0
130080,control_change,440,0,2,,,,,,,64,0,2,,,,
130080,note_on,0,0,1,,,,,,,,,1,,,75,54
130080,control_change,5,0,1,,,,,,,64,0,1,,,,
130080,control_change,60,0,5,,,,,,,64,0,5,,,,
130080,control_change,60,0,3,,,,,,,64,0,3,,,,
130080,control_change,440,0,4,,,,,,,64,0,4,,,,
130120,control_change,40,0,2,,,,,,,64,127,2,,,,
130120,control_change,40,0,4,,,,,,,64,127,4,,,,
130120,control_change,40,0,3,,,,,,,64,127,3,,,,
130120,control_change,40,0,1,,,,,,,64,127,1,,,,
130120,control_change,40,0,5,,,,,,,64,127,5,,,,
130140,note_on,20,0,3,,,,,,,,,3,,,72,53
130200,note_off,60,0,3,,,,,,,,,3,,,72,0
130200,note_on,0,0,3,,,,,,,,,3,,,69,53
130260,note_on,140,0,5,,,,,,,,,5,,,65,53
130260,note_off,60,0,3,,,,,,,,,3,,,69,0
130280,set_tempo,680,1,0,,,,,,1052631,,,,,,,
130315,note_off,195,0,1,,,,,,,,,1,,,75,0
130320,set_tempo,40,1,0,,,,,,1034482,,,,,,,
130320,control_change,200,0,2,,,,,,,64,0,2,,,,
130320,control_change,60,0,3,,,,,,,64,0,3,,,,
130320,control_change,5,0,1,,,,,,,64,0,1,,,,
130320,note_on,0,0,1,,,,,,,,,1,,,73,52
130320,control_change,200,0,4,,,,,,,64,0,4,,,,
130320,note_off,0,0,5,,,,,,,,,5,,,65,0
130320,control_change,60,0,5,,,,,,,64,0,5,,,,
130360,control_change,40,0,1,,,,,,,64,127,1,,,,
130360,control_change,40,0,3,,,,,,,64,127,3,,,,
130360,control_change,40,0,4,,,,,,,64,127,4,,,,
130360,control_change,40,0,2,,,,,,,64,127,2,,,,
130360,control_change,40,0,5,,,,,,,64,127,5,,,,
130380,note_on,20,0,5,,,,,,,,,5,,,69,52
130440,note_on,0,0,5,,,,,,,,,5,,,66,51
130440,note_off,60,0,5,,,,,,,,,5,,,69,0
130500,note_on,0,0,5,,,,,,,,,5,,,61,51
130500,note_off,60,0,5,,,,,,,,,5,,,66,0
130560,note_off,60,0,5,,,,,,,,,5,,,61,0
130560,note_on,0,0,5,,,,,,,,,5,,,57,50
130560,note_off,200,0,1,,,,,,,,,1,,,73,0
130620,note_on,0,0,5,,,,,,,,,5,,,54,50
130620,note_off,60,0,5,,,,,,,,,5,,,57,0
130680,note_on,0,0,5,,,,,,,,,5,,,49,50
130680,note_off,60,0,5,,,,,,,,,5,,,54,0
130740,note_off,60,0,5,,,,,,,,,5,,,49,0
130740,note_on,0,0,5,,,,,,,,,5,,,45,49
130800,note_on,0,0,5,,,,,,,,,5,,,42,49
130800,note_off,60,0,5,,,,,,,,,5,,,45,0
130860,note_on,0,0,5,,,,,,,,,5,,,37,48
130860,note_off,60,0,5,,,,,,,,,5,,,42,0
130920,note_on,0,0,5,,,,,,,,,5,,,33,48
130920,note_off,60,0,5,,,,,,,,,5,,,37,0
130980,note_on,0,0,5,,,,,,,,,5,,,30,47
130980,note_off,60,0,5,,,,,,,,,5,,,33,0
131040,note_on,0,0,5,,,,,,,,,5,,,27,47
131040,note_off,60,0,5,,,,,,,,,5,,,30,0
131100,note_on,540,0,1,,,,,,,,,1,,,85,47
131160,note_on,0,0,1,,,,,,,,,1,,,83,46
131160,note_on,800,0,3,,,,,,,,,3,,,39,46
131160,note_off,120,0,5,,,,,,,,,5,,,27,0
131160,note_off,60,0,1,,,,,,,,,1,,,85,0
131220,note_off,60,0,3,,,,,,,,,3,,,39,0
131220,note_off,60,0,1,,,,,,,,,1,,,83,0
131220,note_on,0,0,1,,,,,,,,,1,,,81,46
131220,note_on,0,0,3,,,,,,,,,3,,,42,46
131280,note_on,0,0,3,,,,,,,,,3,,,45,45
131280,note_off,60,0,3,,,,,,,,,3,,,42,0
131280,note_off,60,0,1,,,,,,,,,1,,,81,0
131280,note_on,0,0,1,,,,,,,,,1,,,80,45
131340,note_off,60,0,1,,,,,,,,,1,,,80,0
131340,note_on,0,0,1,,,,,,,,,1,,,78,45
131340,note_off,60,0,3,,,,,,,,,3,,,45,0
131340,note_on,0,0,3,,,,,,,,,3,,,51,45
131400,note_off,60,0,1,,,,,,,,,1,,,78,0
131400,note_on,0,0,1,,,,,,,,,1,,,75,44
131400,note_off,60,0,3,,,,,,,,,3,,,51,0
131460,set_tempo,1140,1,0,,,,,,1071428,,,,,,,
131460,note_off,60,0,1,,,,,,,,,1,,,75,0
131460,note_on,0,0,1,,,,,,,,,1,,,73,44
131520,control_change,1160,0,4,,,,,,,64,0,4,,,,
131520,note_on,0,0,5,,,,,,,,,5,,,39,44
131520,control_change,1160,0,2,,,,,,,64,0,2,,,,
131520,note_off,0,0,1,,,,,,,,,1,,,73,0
131520,note_on,0,0,1,,,,,,,,,1,,,72,44
131520,set_tempo,60,1,0,,,,,,1034482,,,,,,,
131520,control_change,120,0,3,,,,,,,64,0,3,,,,
131520,control_change,60,0,1,,,,,,,64,0,1,,,,
131520,control_change,360,0,5,,,,,,,64,0,5,,,,
131560,control_change,40,0,5,,,,,,,64,127,5,,,,
131560,control_change,40,0,3,,,,,,,64,127,3,,,,
131560,control_change,40,0,1,,,,,,,64,127,1,,,,
131560,control_change,40,0,4,,,,,,,64,127,4,,,,
131560,control_change,40,0,2,,,,,,,64,127,2,,,,
131580,note_on,20,0,3,,,,,,,,,3,,,67,42
131580,note_off,20,0,1,,,,,,,,,1,,,72,0
131580,note_off,20,0,5,,,,,,,,,5,,,39,0
131640,note_off,60,0,3,,,,,,,,,3,,,67,0
131640,note_on,0,0,3,,,,,,,,,3,,,60,42
131700,note_on,120,0,1,,,,,,,,,1,,,72,42
131700,note_off,60,0,3,,,,,,,,,3,,,60,0
131720,set_tempo,200,1,0,,,,,,1052631,,,,,,,
131760,control_change,60,0,1,,,,,,,64,0,1,,,,
131760,note_off,0,0,1,,,,,,,,,1,,,72,0
131760,note_on,0,0,1,,,,,,,,,1,,,70,43
131760,note_on,0,0,5,,,,,,,,,5,,,37,43
131760,set_tempo,40,1,0,,,,,,1034482,,,,,,,
131760,control_change,200,0,4,,,,,,,64,0,4,,,,
131760,control_change,200,0,2,,,,,,,64,0,2,,,,
131760,control_change,180,0,5,,,,,,,64,0,5,,,,
131760,control_change,60,0,3,,,,,,,64,0,3,,,,
131800,control_change,40,0,5,,,,,,,64,127,5,,,,
131800,control_change,40,0,4,,,,,,,64,127,4,,,,
131800,control_change,40,0,2,,,,,,,64,127,2,,,,
131800,control_change,40,0,3,,,,,,,64,127,3,,,,
131800,control_change,40,0,1,,,,,,,64,127,1,,,,
131820,note_off,20,0,1,,,,,,,,,1,,,70,0
131820,note_on,20,0,3,,,,,,,,,3,,,65,43
131820,note_off,20,0,5,,,,,,,,,5,,,37,0
131880,note_off,60,0,3,,,,,,,,,3,,,65,0
131880,note_on,0,0,3,,,,,,,,,3,,,58,43
131940,note_off,60,0,3,,,,,,,,,3,,,58,0
131940,note_on,0,0,3,,,,,,,,,3,,,52,43
132000,note_on,0,0,3,,,,,,,,,3,,,53,44
132000,note_off,60,0,3,,,,,,,,,3,,,52,0
132060,note_off,60,0,3,,,,,,,,,3,,,53,0
132060,note_on,0,0,3,,,,,,,,,3,,,58,44
132120,note_off,60,0,3,,,,,,,,,3,,,58,0
132120,note_on,0,0,3,,,,,,,,,3,,,65,44
132180,note_on,360,0,1,,,,,,,,,1,,,70,45
132180,note_off,60,0,3,,,,,,,,,3,,,65,0
132240,control_change,440,0,4,,,,,,,64,0,4,,,,
132240,control_change,440,0,2,,,,,,,64,0,2,,,,
132240,note_on,0,0,1,,,,,,,,,1,,,73,45
132240,note_off,0,0,1,,,,,,,,,1,,,70,0
132240,control_change,60,0,1,,,,,,,64,0,1,,,,
132240,note_on,0,0,5,,,,,,,,,5,,,37,45
132240,control_change,60,0,3,,,,,,,64,0,3,,,,
132240,control_change,420,0,5,,,,,,,64,0,5,,,,
132280,control_change,40,0,3,,,,,,,64,127,3,,,,
132280,control_change,40,0,5,,,,,,,64,127,5,,,,
132280,control_change,40,0,2,,,,,,,64,127,2,,,,
132280,control_change,40,0,1,,,,,,,64,127,1,,,,
132280,control_change,40,0,4,,,,,,,64,127,4,,,,
132300,note_off,20,0,1,,,,,,,,,1,,,73,0
132300,note_on,20,0,3,,,,,,,,,3,,,66,45
132300,note_off,20,0,5,,,,,,,,,5,,,37,0
132360,note_off,60,0,3,,,,,,,,,3,,,66,0
132360,note_on,0,0,3,,,,,,,,,3,,,58,46
132420,note_off,60,0,3,,,,,,,,,3,,,58,0
132420,note_on,120,0,1,,,,,,,,,1,,,73,46
132440,set_tempo,680,1,0,,,,,,1052631,,,,,,,
132480,control_change,180,0,5,,,,,,,64,0,5,,,,
132480,note_on,0,0,5,,,,,,,,,5,,,39,46
132480,control_change,200,0,4,,,,,,,64,0,4,,,,
132480,note_on,0,0,1,,,,,,,,,1,,,78,46
132480,control_change,200,0,2,,,,,,,64,0,2,,,,
132480,control_change,60,0,1,,,,,,,64,0,1,,,,
132480,set_tempo,40,1,0,,,,,,1034482,,,,,,,
132480,control_change,60,0,3,,,,,,,64,0,3,,,,
132480,note_off,0,0,1,,,,,,,,,1,,,73,0
132520,control_change,40,0,3,,,,,,,64,127,3,,,,
132520,control_change,40,0,5,,,,,,,64,127,5,,,,
132520,control_change,40,0,1,,,,,,,64,127,1,,,,
132520,control_change,40,0,4,,,,,,,64,127,4,,,,
132520,control_change,40,0,2,,,,,,,64,127,2,,,,
132540,note_on,20,0,3,,,,,,,,,3,,,71,47
132540,note_off,20,0,5,,,,,,,,,5,,,39,0
132540,note_off,20,0,1,,,,,,,,,1,,,78,0
132600,note_off,60,0,3,,,,,,,,,3,,,71,0
132600,note_on,0,0,3,,,,,,,,,3,,,66,47
132660,note_off,60,0,3,,,,,,,,,3,,,66,0
132660,note_on,0,0,3,,,,,,,,,3,,,53,47
132720,note_on,0,0,3,,,,,,,,,3,,,54,48
132720,note_off,60,0,3,,,,,,,,,3,,,53,0
132780,note_off,60,0,3,,,,,,,,,3,,,54,0
132780,note_on,0,0,3,,,,,,,,,3,,,59,48
132840,note_off,60,0,3,,,,,,,,,3,,,59,0
132840,note_on,0,0,3,,,,,,,,,3,,,66,48
132900,note_off,60,0,3,,,,,,,,,3,,,66,0
132900,note_on,360,0,1,,,,,,,,,1,,,75,49
132960,note_off,0,0,1,,,,,,,,,1,,,75,0
132960,control_change,440,0,4,,,,,,,64,0,4,,,,
132960,control_change,440,0,2,,,,,,,64,0,2,,,,
132960,control_change,60,0,1,,,,,,,64,0,1,,,,
132960,control_change,60,0,3,,,,,,,64,0,3,,,,
132960,note_on,0,0,5,,,,,,,,,5,,,40,49
132960,control_change,420,0,5,,,,,,,64,0,5,,,,
132960,note_on,0,0,1,,,,,,,,,1,,,73,49
133000,control_change,40,0,1,,,,,,,64,127,1,,,,
133000,control_change,40,0,4,,,,,,,64,127,4,,,,
133000,control_change,40,0,3,,,,,,,64,127,3,,,,
133000,control_change,40,0,5,,,,,,,64,127,5,,,,
133000,control_change,40,0,2,,,,,,,64,127,2,,,,
133020,note_off,20,0,1,,,,,,,,,1,,,73,0
133020,note_off,20,0,5,,,,,,,,,5,,,40,0
133020,note_on,20,0,3,,,,,,,,,3,,,67,49
133080,note_off,60,0,3,,,,,,,,,3,,,67,0
133080,note_on,0,0,3,,,,,,,,,3,,,58,49
133140,note_on,120,0,1,,,,,,,,,1,,,73,50
133140,note_off,60,0,3,,,,,,,,,3,,,58,0
133160,set_tempo,680,1,0,,,,,,1052631,,,,,,,
133200,note_on,0,0,5,,,,,,,,,5,,,39,50
133200,control_change,180,0,5,,,,,,,64,0,5,,,,
133200,set_tempo,40,1,0,,,,,,1034482,,,,,,,
133200,control_change,200,0,2,,,,,,,64,0,2,,,,
133200,control_change,200,0,4,,,,,,,64,0,4,,,,
133200,note_on,0,0,1,,,,,,,,,1,,,71,50
133200,note_off,0,0,1,,,,,,,,,1,,,73,0
133200,control_change,60,0,3,,,,,,,64,0,3,,,,
133200,control_change,60,0,1,,,,,,,64,0,1,,,,
133240,control_change,40,0,1,,,,,,,64,127,1,,,,
133240,control_change,40,0,2,,,,,,,64,127,2,,,,
133240,control_change,40,0,3,,,,,,,64,127,3,,,,
133240,control_change,40,0,4,,,,,,,64,127,4,,,,
133240,control_change,40,0,5,,,,,,,64,127,5,,,,
133260,note_off,20,0,1,,,,,,,,,1,,,71,0
133260,note_on,20,0,3,,,,,,,,,3,,,66,50
133260,note_off,20,0,5,,,,,,,,,5,,,39,0
133320,note_on,0,0,3,,,,,,,,,3,,,59,51
133320,note_off,60,0,3,,,,,,,,,3,,,66,0
133380,note_off,60,0,3,,,,,,,,,3,,,59,0
133380,note_on,0,0,3,,,,,,,,,3,,,53,51
133440,note_off,60,0,3,,,,,,,,,3,,,53,0
133440,note_on,0,0,3,,,,,,,,,3,,,54,51
133500,note_on,0,0,3,,,,,,,,,3,,,59,52
133500,note_off,60,0,3,,,,,,,,,3,,,54,0
133560,note_on,0,0,3,,,,,,,,,3,,,66,52
133560,note_off,60,0,3,,,,,,,,,3,,,59,0
133620,note_off,60,0,3,,,,,,,,,3,,,66,0
133620,note_on,360,0,1,,,,,,,,,1,,,71,52
133680,note_on,0,0,5,,,,,,,,,5,,,42,53
133680,note_on,0,0,1,,,,,,,,,1,,,75,53
133680,note_off,0,0,1,,,,,,,,,1,,,71,0
133680,control_change,60,0,3,,,,,,,64,0,3,,,,
133680,note_on,0,0,3,,,,,,,,,3,,,72,53
133680,control_change,440,0,4,,,,,,,64,0,4,,,,
133680,control_change,440,0,2,,,,,,,64,0,2,,,,
133680,control_change,420,0,5,,,,,,,64,0,5,,,,
133680,control_change,60,0,1,,,,,,,64,0,1,,,,
133720,control_change,40,0,5,,,,,,,64,127,5,,,,
133720,control_change,40,0,1,,,,,,,64,127,1,,,,
133720,control_change,40,0,3,,,,,,,64,127,3,,,,
133720,control_change,40,0,4,,,,,,,64,127,4,,,,
133720,control_change,40,0,2,,,,,,,64,127,2,,,,
133740,note_off,20,0,5,,,,,,,,,5,,,42,0
133740,note_off,20,0,1,,,,,,,,,1,,,75,0
133740,note_on,0,0,3,,,,,,,,,3,,,68,53
133740,note_off,20,0,3,,,,,,,,,3,,,72,0
133800,note_off,60,0,3,,,,,,,,,3,,,68,0
133800,note_on,0,0,3,,,,,,,,,3,,,60,53
133860,note_on,120,0,1,,,,,,,,,1,,,75,54
133860,note_off,60,0,3,,,,,,,,,3,,,60,0
133880,set_tempo,680,1,0,,,,,,1052631,,,,,,,
133920,control_change,200,0,2,,,,,,,64,0,2,,,,
133920,set_tempo,40,1,0,,,,,,1034482,,,,,,,
133920,control_change,180,0,5,,,,,,,64,0,5,,,,
133920,control_change,60,0,3,,,,,,,64,0,3,,,,
133920,note_on,0,0,5,,,,,,,,,5,,,41,54
133920,control_change,200,0,4,,,,,,,64,0,4,,,,
133920,note_off,0,0,1,,,,,,,,,1,,,75,0
133920,control_change,60,0,1,,,,,,,64,0,1,,,,
133920,note_on,0,0,1,,,,,,,,,1,,,80,54
133960,control_change,40,0,5,,,,,,,64,127,5,,,,
133960,control_change,40,0,2,,,,,,,64,127,2,,,,
133960,control_change,40,0,1,,,,,,,64,127,1,,,,
133960,control_change,40,0,4,,,,,,,64,127,4,,,,
133960,control_change,40,0,3,,,,,,,64,127,3,,,,
133980,note_off,20,0,5,,,,,,,,,5,,,41,0
133980,note_on,20,0,3,,,,,,,,,3,,,73,54
133980,note_off,20,0,1,,,,,,,,,1,,,80,0
134040,note_on,0,0,3,,,,,,,,,3,,,68,55
134040,note_off,60,0,3,,,,,,,,,3,,,73,0
134100,note_on,0,0,3,,,,,,,,,3,,,55,55
134100,note_off,60,0,3,,,,,,,,,3,,,68,0
134160,note_off,60,0,3,,,,,,,,,3,,,55,0
134160,note_on,0,0,3,,,,,,,,,3,,,56,55
134220,note_off,60,0,3,,,,,,,,,3,,,56,0
134220,note_on,0,0,3,,,,,,,,,3,,,61,55
134280,note_on,0,0,3,,,,,,,,,3,,,68,56
134280,note_off,60,0,3,,,,,,,,,3,,,61,0
134340,note_off,60,0,3,,,,,,,,,3,,,68,0
134340,note_on,360,0,1,,,,,,,,,1,,,73,56
134400,control_change,60,0,3,,,,,,,64,0,3,,,,
134400,note_on,0,0,5,,,,,,,,,5,,,40,56
134400,control_change,440,0,4,,,,,,,64,0,4,,,,
134400,control_change,420,0,5,,,,,,,64,0,5,,,,
134400,control_change,440,0,2,,,,,,,64,0,2,,,,
134400,note_off,0,0,1,,,,,,,,,1,,,73,0
134400,note_on,0,0,1,,,,,,,,,1,,,80,56
134400,control_change,60,0,1,,,,,,,64,0,1,,,,
134440,control_change,40,0,4,,,,,,,64,127,4,,,,
134440,control_change,40,0,1,,,,,,,64,127,1,,,,
134440,control_change,40,0,3,,,,,,,64,127,3,,,,
134440,control_change,40,0,5,,,,,,,64,127,5,,,,
134440,control_change,40,0,2,,,,,,,64,127,2,,,,
134460,note_on,20,0,3,,,,,,,,,3,,,73,57
134460,note_off,20,0,5,,,,,,,,,5,,,40,0
134460,note_off,20,0,1,,,,,,,,,1,,,80,0
134520,note_off,60,0,3,,,,,,,,,3,,,73,0
134520,note_on,0,0,3,,,,,,,,,3,,,68,57
134580,note_off,60,0,3,,,,,,,,,3,,,68,0
134580,note_on,120,0,1,,,,,,,,,1,,,80,57
134600,set_tempo,680,1,0,,,,,,1052631,,,,,,,
134640,control_change,60,0,3,,,,,,,64,0,3,,,,
134640,control_change,200,0,4,,,,,,,64,0,4,,,,
134640,note_off,0,0,1,,,,,,,,,1,,,80,0
134640,note_on,0,0,1,,,,,,,,,1,,,85,58
134640,control_change,200,0,2,,,,,,,64,0,2,,,,
134640,control_change,180,0,5,,,,,,,64,0,5,,,,
134640,set_tempo,40,1,0,,,,,,1034482,,,,,,,
134640,note_on,0,0,5,,,,,,,,,5,,,39,58
134640,control_change,60,0,1,,,,,,,64,0,1,,,,
134680,control_change,40,0,5,,,,,,,64,127,5,,,,
134680,control_change,40,0,1,,,,,,,64,127,1,,,,
134680,control_change,40,0,2,,,,,,,64,127,2,,,,
134680,control_change,40,0,4,,,,,,,64,127,4,,,,
134680,control_change,40,0,3,,,,,,,64,127,3,,,,
134700,note_on,20,0,3,,,,,,,,,3,,,79,58
134700,note_off,20,0,5,,,,,,,,,5,,,39,0
134700,note_off,20,0,1,,,,,,,,,1,,,85,0
134760,note_off,60,0,3,,,,,,,,,3,,,79,0
134760,note_on,0,0,3,,,,,,,,,3,,,73,58
134820,note_off,60,0,3,,,,,,,,,3,,,73,0
134820,note_on,0,0,3,,,,,,,,,3,,,57,59
134880,note_on,0,0,3,,,,,,,,,3,,,58,59
134880,note_off,60,0,3,,,,,,,,,3,,,57,0
134940,note_on,0,0,3,,,,,,,,,3,,,61,59
134940,note_off,60,0,3,,,,,,,,,3,,,58,0
135000,note_off,60,0,3,,,,,,,,,3,,,61,0
135000,note_on,0,0,3,,,,,,,,,3,,,70,60
135060,note_on,360,0,1,,,,,,,,,1,,,73,60
135060,note_off,60,0,3,,,,,,,,,3,,,70,0
135120,control_change,420,0,5,,,,,,,64,0,5,,,,
135120,note_on,0,0,5,,,,,,,,,5,,,38,60
135120,control_change,440,0,2,,,,,,,64,0,2,,,,
135120,control_change,440,0,4,,,,,,,64,0,4,,,,
135120,control_change,60,0,1,,,,,,,64,0,1,,,,
135120,note_off,0,0,1,,,,,,,,,1,,,73,0
135120,note_on,0,0,1,,,,,,,,,1,,,78,60
135120,control_change,60,0,3,,,,,,,64,0,3,,,,
135160,control_change,40,0,2,,,,,,,64,127,2,,,,
135160,control_change,40,0,5,,,,,,,64,127,5,,,,
135160,control_change,40,0,1,,,,,,,64,127,1,,,,
135160,control_change,40,0,3,,,,,,,64,127,3,,,,
135160,control_change,40,0,4,,,,,,,64,127,4,,,,
135180,note_on,20,0,3,,,,,,,,,3,,,72,61
135180,note_off,20,0,5,,,,,,,,,5,,,38,0
135180,note_off,20,0,1,,,,,,,,,1,,,78,0
135240,note_off,60,0,3,,,,,,,,,3,,,72,0
135240,note_on,0,0,3,,,,,,,,,3,,,66,61
135300,note_off,60,0,3,,,,,,,,,3,,,66,0
135300,note_on,120,0,1,,,,,,,,,1,,,78,61
135320,set_tempo,680,1,0,,,,,,1052631,,,,,,,
135360,set_tempo,40,1,0,,,,,,1034482,,,,,,,
135360,control_change,200,0,2,,,,,,,64,0,2,,,,
135360,note_on,0,0,5,,,,,,,,,5,,,37,61
135360,note_off,0,0,1,,,,,,,,,1,,,78,0
135360,note_on,0,0,1,,,,,,,,,1,,,83,61
135360,control_change,60,0,1,,,,,,,64,0,1,,,,
135360,control_change,180,0,5,,,,,,,64,0,5,,,,
135360,control_change,200,0,4,,,,,,,64,0,4,,,,
135360,control_change,60,0,3,,,,,,,64,0,3,,,,
135400,control_change,40,0,4,,,,,,,64,127,4,,,,
135400,control_change,40,0,2,,,,,,,64,127,2,,,,
135400,control_change,40,0,5,,,,,,,64,127,5,,,,
135400,control_change,40,0,3,,,,,,,64,127,3,,,,
135400,control_change,40,0,1,,,,,,,64,127,1,,,,
135420,note_off,20,0,5,,,,,,,,,5,,,37,0
135420,note_off,20,0,1,,,,,,,,,1,,,83,0
135420,note_on,20,0,3,,,,,,,,,3,,,77,62
135480,note_on,0,0,3,,,,,,,,,3,,,71,62
135480,note_off,60,0,3,,,,,,,,,3,,,77,0
135540,note_off,60,0,3,,,,,,,,,3,,,71,0
135540,note_on,0,0,3,,,,,,,,,3,,,55,62
135600,note_on,0,0,3,,,,,,,,,3,,,56,63
135600,note_off,60,0,3,,,,,,,,,3,,,55,0
135660,note_on,0,0,3,,,,,,,,,3,,,59,63
135660,note_off,60,0,3,,,,,,,,,3,,,56,0
135720,note_off,60,0,3,,,,,,,,,3,,,59,0
135720,note_on,0,0,3,,,,,,,,,3,,,68,63
135780,note_on,360,0,1,,,,,,,,,1,,,74,64
135780,note_off,60,0,3,,,,,,,,,3,,,68,0
135840,control_change,60,0,3,,,,,,,64,0,3,,,,
135840,control_change,440,0,4,,,,,,,64,0,4,,,,
135840,control_change,420,0,5,,,,,,,64,0,5,,,,
135840,note_on,0,0,5,,,,,,,,,5,,,36,64
135840,note_on,0,0,1,,,,,,,,,1,,,76,64
135840,control_change,60,0,1,,,,,,,64,0,1,,,,
135840,control_change,440,0,2,,,,,,,64,0,2,,,,
135840,note_off,0,0,1,,,,,,,,,1,,,74,0
135880,control_change,40,0,1,,,,,,,64,127,1,,,,
135880,control_change,40,0,5,,,,,,,64,127,5,,,,
135880,control_change,40,0,4,,,,,,,64,127,4,,,,
135880,control_change,40,0,3,,,,,,,64,127,3,,,,
135880,control_change,40,0,2,,,,,,,64,127,2,,,,
135900,note_off,20,0,5,,,,,,,,,5,,,36,0
135900,note_on,20,0,3,,,,,,,,,3,,,70,64
135900,note_off,20,0,1,,,,,,,,,1,,,76,0
135960,note_off,60,0,3,,,,,,,,,3,,,70,0
135960,note_on,0,0,3,,,,,,,,,3,,,64,65
136020,note_on,120,0,1,,,,,,,,,1,,,76,65
136020,note_off,60,0,3,,,,,,,,,3,,,64,0
136040,set_tempo,680,1,0,,,,,,1052631,,,,,,,
136080,note_on,0,0,5,,,,,,,,,5,,,35,65
136080,control_change,180,0,5,,,,,,,64,0,5,,,,
136080,control_change,60,0,1,,,,,,,64,0,1,,,,
136080,note_off,0,0,1,,,,,,,,,1,,,76,0
136080,note_on,0,0,1,,,,,,,,,1,,,81,65
136080,control_change,200,0,2,,,,,,,64,0,2,,,,
136080,control_change,60,0,3,,,,,,,64,0,3,,,,
136080,control_change,200,0,4,,,,,,,64,0,4,,,,
136080,set_tempo,40,1,0,,,,,,1034482,,,,,,,
136120,control_change,40,0,4,,,,,,,64,127,4,,,,
136120,control_change,40,0,2,,,,,,,64,127,2,,,,
136120,control_change,40,0,3,,,,,,,64,127,3,,,,
136120,control_change,40,0,5,,,,,,,64,127,5,,,,
136120,control_change,40,0,1,,,,,,,64,127,1,,,,
136140,note_off,20,0,1,,,,,,,,,1,,,81,0
136140,note_off,20,0,5,,,,,,,,,5,,,35,0
136140,note_on,20,0,3,,,,,,,,,3,,,75,66
136200,note_on,0,0,3,,,,,,,,,3,,,69,66
136200,note_off,60,0,3,,,,,,,,,3,,,75,0
136260,note_off,60,0,3,,,,,,,,,3,,,69,0
136260,note_on,120,0,5,,,,,,,,,5,,,59,66
136320,note_off,60,0,5,,,,,,,,,5,,,59,0
136320,note_on,180,0,1,,,,,,,,,1,,,78,67
136380,note_off,60,0,1,,,,,,,,,1,,,78,0
136380,note_on,120,0,3,,,,,,,,,3,,,75,67
136440,note_off,60,0,3,,,,,,,,,3,,,75,0
136440,note_on,0,0,3,,,,,,,,,3,,,69,67
136500,note_off,60,0,3,,,,,,,,,3,,,69,0
136500,note_on,180,0,5,,,,,,,,,5,,,47,67
136560,note_on,180,0,1,,,,,,,,,1,,,75,68
136560,note_off,60,0,5,,,,,,,,,5,,,47,0
136620,note_off,60,0,1,,,,,,,,,1,,,75,0
136620,note_on,120,0,3,,,,,,,,,3,,,69,68
136680,note_on,0,0,3,,,,,,,,,3,,,66,68
136680,note_off,60,0,3,,,,,,,,,3,,,69,0
136740,note_off,60,0,3,,,,,,,,,3,,,66,0
136740,note_on,180,0,5,,,,,,,,,5,,,35,69
136800,note_off,60,0,5,,,,,,,,,5,,,35,0
136800,note_on,180,0,1,,,,,,,,,1,,,69,69
136860,note_off,60,0,1,,,,,,,,,1,,,69,0
136860,note_on,120,0,3,,,,,,,,,3,,,63,69
136920,note_on,0,0,3,,,,,,,,,3,,,57,70
136920,note_off,60,0,3,,,,,,,,,3,,,63,0
136980,note_on,180,0,5,,,,,,,,,5,,,47,70
136980,note_off,60,0,3,,,,,,,,,3,,,57,0
137040,note_on,180,0,1,,,,,,,,,1,,,68,70
137040,note_off,60,0,5,,,,,,,,,5,,,47,0
137100,note_on,120,0,3,,,,,,,,,3,,,63,71
137100,note_off,60,0,1,,,,,,,,,1,,,68,0
137160,note_off,60,0,3,,,,,,,,,3,,,63,0
137160,note_on,0,0,3,,,,,,,,,3,,,57,71
137220,note_off,60,0,3,,,,,,,,,3,,,57,0
137220,note_on,180,0,5,,,,,,,,,5,,,35,71
137280,note_off,60,0,5,,,,,,,,,5,,,35,0
137280,note_on,180,0,1,,,,,,,,,1,,,66,72
137340,note_on,120,0,3,,,,,,,,,3,,,63,72
137340,note_off,60,0,1,,,,,,,,,1,,,66,0
137400,note_off,60,0,3,,,,,,,,,3,,,63,0
137400,set_tempo,1320,1,0,,,,,,1071428,,,,,,,
137400,note_on,0,0,3,,,,,,,,,3,,,57,72
137460,set_tempo,60,1,0,,,,,,1132075,,,,,,,
137460,note_off,60,0,3,,,,,,,,,3,,,57,0
137460,note_on,180,0,5,,,,,,,,,5,,,47,73
137480,note_on,0,0,1,,,,,,,,,1,,,57,73
137480,note_on,140,0,1,,,,,,,,,1,,,65,73
137480,note_on,0,0,1,,,,,,,,,1,,,63,73
137520,note_on,0,0,4,,,,,,,,,4,,,41,73
137520,set_tempo,60,1,0,,,,,,1034482,,,,,,,
137520,control_change,60,0,3,,,,,,,64,0,3,,,,
137520,control_change,40,0,1,,,,,,,64,0,1,,,,
137520,control_change,60,0,5,,,,,,,64,0,5,,,,
137520,note_off,0,0,5,,,,,,,,,5,,,47,0
137520,note_on,0,0,5,,,,,,,,,5,,,48,73
137520,note_on,0,0,1,,,,,,,,,1,,,87,73
137520,control_change,1400,0,2,,,,,,,64,0,2,,,,
137520,control_change,1400,0,4,,,,,,,64,0,4,,,,
137520,note_on,0,0,5,,,,,,,,,5,,,36,73
137560,control_change,40,0,4,,,,,,,64,127,4,,,,
137560,control_change,40,0,5,,,,,,,64,127,5,,,,
137560,control_change,40,0,1,,,,,,,64,127,1,,,,
137560,control_change,40,0,3,,,,,,,64,127,3,,,,
137560,control_change,40,0,2,,,,,,,64,127,2,,,,
137580,note_off,0,0,5,,,,,,,,,5,,,36,0
137580,note_off,20,0,4,,,,,,,,,4,,,41,0
137580,note_off,20,0,1,,,,,,,,,1,,,87,0
137580,note_on,20,0,3,,,,,,,,,3,,,81,73
137580,note_off,20,0,5,,,,,,,,,5,,,48,0
137640,note_off,60,0,3,,,,,,,,,3,,,81,0
137640,note_on,0,0,3,,,,,,,,,3,,,75,73
137700,note_on,120,0,4,,,,,,,,,4,,,65,74
137700,note_on,120,0,5,,,,,,,,,5,,,60,74
137700,note_off,60,0,3,,,,,,,,,3,,,75,0
137760,note_off,60,0,5,,,,,,,,,5,,,60,0
137760,note_on,0,0,1,,,,,,,,,1,,,80,74
137760,note_off,0,0,1,,,,,,,,,1,,,63,0
137760,note_off,180,0,1,,,,,,,,,1,,,57,0
137760,note_off,60,0,4,,,,,,,,,4,,,65,0
137763,note_off,3,0,1,,,,,,,,,1,,,65,0
137820,note_off,57,0,1,,,,,,,,,1,,,80,0
137820,note_on,120,0,3,,,,,,,,,3,,,75,74
137880,note_on,0,0,3,,,,,,,,,3,,,69,75
137880,note_off,60,0,3,,,,,,,,,3,,,75,0
137940,note_off,60,0,3,,,,,,,,,3,,,69,0
137940,note_on,180,0,5,,,,,,,,,5,,,53,75
137940,note_on,180,0,4,,,,,,,,,4,,,60,75
138000,note_off,60,0,4,,,,,,,,,4,,,60,0
138000,note_off,60,0,5,,,,,,,,,5,,,53,0
138000,note_on,180,0,1,,,,,,,,,1,,,75,75
138060,note_on,120,0,3,,,,,,,,,3,,,69,76
138060,note_off,60,0,1,,,,,,,,,1,,,75,0
138120,note_off,60,0,3,,,,,,,,,3,,,69,0
138120,note_on,0,0,3,,,,,,,,,3,,,63,76
138180,note_on,180,0,5,,,,,,,,,5,,,48,76
138180,note_on,180,0,4,,,,,,,,,4,,,53,76
138180,note_off,60,0,3,,,,,,,,,3,,,63,0
138240,note_on,180,0,1,,,,,,,,,1,,,69,77
138240,note_off,60,0,5,,,,,,,,,5,,,48,0
138240,note_off,60,0,4,,,,,,,,,4,,,53,0
138300,note_on,120,0,3,,,,,,,,,3,,,63,77
138300,note_off,60,0,1,,,,,,,,,1,,,69,0
138360,note_on,0,0,3,,,,,,,,,3,,,57,77
138360,note_off,60,0,3,,,,,,,,,3,,,63,0
138420,note_on,180,0,5,,,,,,,,,5,,,41,78
138420,note_on,180,0,4,,,,,,,,,4,,,48,78
138420,note_off,60,0,3,,,,,,,,,3,,,57,0
138480,control_change,920,0,2,,,,,,,64,0,2,,,,
138480,note_on,0,0,1,,,,,,,,,1,,,68,78
138480,control_change,180,0,1,,,,,,,64,0,1,,,,
138480,control_change,60,0,5,,,,,,,64,0,5,,,,
138480,control_change,60,0,4,,,,,,,64,0,4,,,,
138480,note_off,0,0,4,,,,,,,,,4,,,48,0
138480,control_change,60,0,3,,,,,,,64,0,3,,,,
138520,control_change,40,0,1,,,,,,,64,127,1,,,,
138520,control_change,40,0,2,,,,,,,64,127,2,,,,
138520,control_change,40,0,3,,,,,,,64,127,3,,,,
138520,control_change,40,0,4,,,,,,,64,127,4,,,,
138520,control_change,40,0,5,,,,,,,64,127,5,,,,
138540,note_off,20,0,1,,,,,,,,,1,,,68,0
138540,note_on,20,0,3,,,,,,,,,3,,,63,78
138600,note_off,60,0,3,,,,,,,,,3,,,63,0
138600,note_on,0,0,3,,,,,,,,,3,,,57,79
138660,note_off,140,0,5,,,,,,,,,5,,,41,0
138660,note_off,60,0,3,,,,,,,,,3,,,57,0
138660,note_on,0,0,5,,,,,,,,,5,,,29,79
138720,note_on,180,0,1,,,,,,,,,1,,,66,79
138780,note_on,120,0,3,,,,,,,,,3,,,63,77
138780,note_off,60,0,1,,,,,,,,,1,,,66,0
138840,note_off,60,0,3,,,,,,,,,3,,,63,0
138840,note_on,0,0,3,,,,,,,,,3,,,57,76
138900,set_tempo,1380,1,0,,,,,,1071428,,,,,,,
138900,note_on,0,0,4,,,,,,,,,4,,,48,75
138900,control_change,240,0,5,,,,,,,64,0,5,,,,
138900,note_off,0,0,5,,,,,,,,,5,,,29,0
138900,control_change,380,0,4,,,,,,,64,0,4,,,,
138900,note_on,0,0,5,,,,,,,,,5,,,41,75
138900,note_off,0,0,3,,,,,,,,,3,,,57,0
138900,control_change,60,0,3,,,,,,,64,0,3,,,,
138900,control_change,120,0,1,,,,,,,64,0,1,,,,
138900,control_change,380,0,2,,,,,,,64,0,2,,,,
138940,control_change,40,0,4,,,,,,,64,127,4,,,,
138940,control_change,40,0,2,,,,,,,64,127,2,,,,
138940,control_change,40,0,5,,,,,,,64,127,5,,,,
138940,control_change,40,0,1,,,,,,,64,127,1,,,,
138940,control_change,40,0,3,,,,,,,64,127,3,,,,
138960,note_on,20,0,1,,,,,,,,,1,,,65,73
138960,note_off,20,0,4,,,,,,,,,4,,,48,0
139020,note_on,80,0,3,,,,,,,,,3,,,60,72
139020,note_off,60,0,1,,,,,,,,,1,,,65,0
139080,note_off,60,0,3,,,,,,,,,3,,,60,0
139080,note_on,0,0,3,,,,,,,,,3,,,57,70
139140,note_off,0,0,3,,,,,,,,,3,,,57,0
139140,set_tempo,240,1,0,,,,,,1132075,,,,,,,
139140,control_change,120,0,1,,,,,,,64,0,1,,,,
139140,note_off,0,0,5,,,,,,,,,5,,,41,0
139140,control_change,200,0,5,,,,,,,64,0,5,,,,
139140,control_change,60,0,3,,,,,,,64,0,3,,,,
139140,note_on,0,0,5,,,,,,,,,5,,,29,69
139140,control_change,200,0,2,,,,,,,64,0,2,,,,
139140,control_change,180,0,4,,,,,,,64,0,4,,,,
139180,control_change,40,0,1,,,,,,,64,127,1,,,,
139180,control_change,40,0,3,,,,,,,64,127,3,,,,
139180,control_change,40,0,4,,,,,,,64,127,4,,,,
139180,control_change,40,0,2,,,,,,,64,127,2,,,,
139180,control_change,40,0,5,,,,,,,64,127,5,,,,
139200,note_on,20,0,1,,,,,,,,,1,,,64,68
139260,note_on,80,0,3,,,,,,,,,3,,,60,66
139260,note_off,60,0,1,,,,,,,,,1,,,64,0
139320,note_on,0,0,3,,,,,,,,,3,,,57,65
139320,note_off,60,0,3,,,,,,,,,3,,,60,0
139380,control_change,200,0,4,,,,,,,64,0,4,,,,
139380,control_change,120,0,1,,,,,,,64,0,1,,,,
139380,control_change,200,0,2,,,,,,,64,0,2,,,,
139380,note_on,0,0,4,,,,,,,,,4,,,48,64
139380,note_on,0,0,5,,,,,,,,,5,,,41,64
139380,note_off,0,0,5,,,,,,,,,5,,,29,0
139380,set_tempo,240,1,0,,,,,,1224489,,,,,,,
139380,control_change,200,0,5,,,,,,,64,0,5,,,,
139380,note_off,0,0,3,,,,,,,,,3,,,57,0
139380,control_change,60,0,3,,,,,,,64,0,3,,,,
139420,control_change,40,0,5,,,,,,,64,127,5,,,,
139420,control_change,40,0,4,,,,,,,64,127,4,,,,
139420,control_change,40,0,1,,,,,,,64,127,1,,,,
139420,control_change,40,0,2,,,,,,,64,127,2,,,,
139420,control_change,40,0,3,,,,,,,64,127,3,,,,
139440,note_off,20,0,4,,,,,,,,,4,,,48,0
139440,note_on,20,0,1,,,,,,,,,1,,,63,62
139520,set_tempo,140,1,0,,,,,,1276595,,,,,,,
139520,note_on,100,0,3,,,,,,,,,3,,,60,60
139586,note_off,66,0,3,,,,,,,,,3,,,60,0
139600,set_tempo,80,1,0,,,,,,1500000,,,,,,,
139600,note_on,14,0,3,,,,,,,,,3,,,57,56
139620,note_off,200,0,5,,,,,,,,,5,,,41,0
139657,note_off,57,0,3,,,,,,,,,3,,,57,0
139680,note_on,60,0,5,,,,,,,,,5,,,29,52
139680,set_tempo,80,1,0,,,,,,2727272,,,,,,,
139681,note_off,241,0,1,,,,,,,,,1,,,63,0
139920,note_off,240,0,5,,,,,,,,,5,,,29,0
139980,control_change,60,0,5,,,,,,,64,0,5,,,,
139980,control_change,560,0,2,,,,,,,64,0,2,,,,
139980,control_change,540,0,4,,,,,,,64,0,4,,,,
139980,control_change,299,0,1,,,,,,,64,0,1,,,,
139980,set_tempo,300,1,0,,,,,,2727272,,,,,,,
139980,control_change,323,0,3,,,,,,,64,0,3,,,,
139980,control_change,0,0,1,,,,,,,64,0,1,,,,
139980,control_change,0,0,1,,,,,,,64,0,1,,,,
140040,control_change,60,0,2,,,,,,,64,0,2,,,,
140040,note_on,0,0,2,,,,,,,,,2,,,53,59
140040,note_on,0,0,2,,,,,,,,,2,,,57,59
140040,note_on,0,0,5,,,,,,,,,5,,,41,59
140040,control_change,60,0,3,,,,,,,64,0,3,,,,
140040,control_change,60,0,4,,,,,,,64,0,4,,,,
140040,note_on,0,0,1,,,,,,,,,1,,,62,59
140040,control_change,60,0,1,,,,,,,64,0,1,,,,
140040,control_change,60,0,5,,,,,,,64,0,5,,,,
140040,set_tempo,60,1,0,,,,,,1111111,,,,,,,
140160,note_on,120,0,4,,,,,,,,,4,,,51,57
140160,note_on,0,0,1,,,,,,,,,1,,,60,57
140160,note_off,120,0,1,,,,,,,,,1,,,62,0
140277,note_off,237,0,5,,,,,,,,,5,,,41,0
140280,note_off,120,0,4,,,,,,,,,4,,,51,0
140280,note_on,0,0,4,,,,,,,,,4,,,51,54
140280,note_off,240,0,2,,,,,,,,,2,,,57,0
140280,note_on,0,0,2,,,,,,,,,2,,,57,54
140280,note_on,0,0,2,,,,,,,,,2,,,53,54
140280,note_off,0,0,2,,,,,,,,,2,,,53,0
140280,note_on,3,0,5,,,,,,,,,5,,,41,54
140280,note_on,0,0,1,,,,,,,,,1,,,60,54
140280,note_off,120,0,1,,,,,,,,,1,,,60,0
140360,set_tempo,320,1,0,,,,,,1132075,,,,,,,
140400,note_off,120,0,2,,,,,,,,,2,,,57,0
140400,note_off,120,0,4,,,,,,,,,4,,,51,0
140400,note_on,0,0,1,,,,,,,,,1,,,58,52
140400,note_off,120,0,1,,,,,,,,,1,,,60,0
140400,set_tempo,40,1,0,,,,,,1111111,,,,,,,
140400,note_on,0,0,4,,,,,,,,,4,,,50,52
140520,note_on,0,0,5,,,,,,,,,5,,,40,53
140520,note_off,240,0,5,,,,,,,,,5,,,41,0
140640,note_on,0,0,5,,,,,,,,,5,,,41,55
140640,note_off,120,0,5,,,,,,,,,5,,,40,0
140760,note_on,0,0,1,,,,,,,,,1,,,76,57
140760,note_off,360,0,1,,,,,,,,,1,,,58,0
140760,note_off,360,0,2,,,,,,,,,2,,,53,0
140880,note_on,0,0,1,,,,,,,,,1,,,77,58
140880,note_off,120,0,1,,,,,,,,,1,,,76,0
141000,note_off,120,0,1,,,,,,,,,1,,,77,0
141000,note_on,0,0,1,,,,,,,,,1,,,74,60
141120,note_on,0,0,1,,,,,,,,,1,,,70,61
141120,note_off,120,0,1,,,,,,,,,1,,,74,0
141240,note_on,0,0,1,,,,,,,,,1,,,65,63
141240,note_off,120,0,1,,,,,,,,,1,,,70,0
141360,note_on,0,0,1,,,,,,,,,1,,,62,64
141360,note_off,120,0,1,,,,,,,,,1,,,65,0
141440,set_tempo,1040,1,0,,,,,,1132075,,,,,,,
141477,note_off,837,0,5,,,,,,,,,5,,,41,0
141480,set_tempo,40,1,0,,,,,,1111111,,,,,,,
141480,note_off,120,0,1,,,,,,,,,1,,,62,0
141480,note_on,0,0,1,,,,,,,,,1,,,65,73
141480,note_off,1080,0,4,,,,,,,,,4,,,50,0
141480,note_on,720,0,2,,,,,,,,,2,,,56,73
141480,note_on,0,0,2,,,,,,,,,2,,,61,73
141480,note_on,3,0,5,,,,,,,,,5,,,41,73
141600,note_on,120,0,2,,,,,,,,,2,,,57,68
141600,note_off,120,0,1,,,,,,,,,1,,,65,0
141600,note_on,0,0,1,,,,,,,,,1,,,63,70
141600,note_on,0,0,2,,,,,,,,,2,,,60,70
141600,note_on,120,0,4,,,,,,,,,4,,,54,70
141605,note_off,0,0,2,,,,,,,,,2,,,56,0
141605,note_off,5,0,2,,,,,,,,,2,,,61,0
141714,note_off,234,0,5,,,,,,,,,5,,,41,0
141720,note_off,115,0,2,,,,,,,,,2,,,60,0
141720,note_off,0,0,2,,,,,,,,,2,,,57,0
141720,note_on,0,0,2,,,,,,,,,2,,,57,68
141720,note_on,0,0,4,,,,,,,,,4,,,54,68
141720,note_on,0,0,1,,,,,,,,,1,,,63,68
141720,note_off,120,0,1,,,,,,,,,1,,,63,0
141720,note_on,6,0,5,,,,,,,,,5,,,41,68
141720,note_off,120,0,4,,,,,,,,,4,,,54,0
141720,note_on,0,0,2,,,,,,,,,2,,,60,68
141800,set_tempo,320,1,0,,,,,,1132075,,,,,,,
141840,note_on,0,0,1,,,,,,,,,1,,,61,65
141840,note_off,120,0,1,,,,,,,,,1,,,63,0
141840,note_on,0,0,4,,,,,,,,,4,,,53,65
141840,note_off,120,0,2,,,,,,,,,2,,,60,0
141840,note_off,0,0,2,,,,,,,,,2,,,57,0
141840,set_tempo,40,1,0,,,,,,1111111,,,,,,,
141840,note_off,120,0,4,,,,,,,,,4,,,54,0
141840,note_on,0,0,2,,,,,,,,,2,,,56,68
141960,note_on,0,0,5,,,,,,,,,5,,,40,66
141960,note_off,240,0,5,,,,,,,,,5,,,41,0
142080,note_off,120,0,5,,,,,,,,,5,,,40,0
142080,note_on,0,0,5,,,,,,,,,5,,,41,67
142197,note_off,357,0,1,,,,,,,,,1,,,61,0
142200,note_on,3,0,1,,,,,,,,,1,,,79,69
142200,note_off,360,0,2,,,,,,,,,2,,,56,0
142320,note_off,120,0,1,,,,,,,,,1,,,79,0
142320,note_on,0,0,1,,,,,,,,,1,,,80,70
142440,note_off,120,0,1,,,,,,,,,1,,,80,0
142440,note_on,0,0,1,,,,,,,,,1,,,77,72
142560,note_on,0,0,1,,,,,,,,,1,,,73,73
142560,note_off,120,0,1,,,,,,,,,1,,,77,0
142680,note_off,120,0,1,,,,,,,,,1,,,73,0
142680,note_on,0,0,1,,,,,,,,,1,,,68,75
142800,note_off,120,0,1,,,,,,,,,1,,,68,0
142800,note_on,0,0,1,,,,,,,,,1,,,65,77
142880,set_tempo,1040,1,0,,,,,,1132075,,,,,,,
142911,note_off,831,0,5,,,,,,,,,5,,,41,0
142917,note_off,1077,0,4,,,,,,,,,4,,,53,0
142920,note_on,9,0,5,,,,,,,,,5,,,41,85
142920,note_off,120,0,1,,,,,,,,,1,,,65,0
142920,note_on,0,0,1,,,,,,,,,1,,,73,85
142920,set_tempo,40,1,0,,,,,,1111111,,,,,,,
143040,note_off,120,0,1,,,,,,,,,1,,,73,0
143040,note_on,0,0,1,,,,,,,,,1,,,72,83
143040,note_on,0,0,2,,,,,,,,,2,,,60,83
143040,note_on,123,0,4,,,,,,,,,4,,,51,83
143040,note_on,840,0,2,,,,,,,,,2,,,66,83
143040,note_on,0,0,2,,,,,,,,,2,,,57,83
143151,note_off,231,0,5,,,,,,,,,5,,,41,0
143160,note_on,9,0,5,,,,,,,,,5,,,41,81
143160,note_on,0,0,1,,,,,,,,,1,,,72,81
143160,note_off,120,0,1,,,,,,,,,1,,,72,0
143240,set_tempo,320,1,0,,,,,,1132075,,,,,,,
143274,note_off,234,0,2,,,,,,,,,2,,,60,0
143274,note_off,0,0,2,,,,,,,,,2,,,57,0
143277,note_off,237,0,4,,,,,,,,,4,,,51,0
143277,note_off,3,0,2,,,,,,,,,2,,,66,0
143280,note_on,0,0,1,,,,,,,,,1,,,70,79
143280,note_on,3,0,4,,,,,,,,,4,,,53,79
143280,note_on,0,0,4,,,,,,,,,4,,,50,79
143280,note_on,0,0,2,,,,,,,,,2,,,65,79
143280,note_off,120,0,1,,,,,,,,,1,,,72,0
143280,set_tempo,40,1,0,,,,,,1111111,,,,,,,
143280,note_on,3,0,2,,,,,,,,,2,,,58,79
143400,note_on,0,0,5,,,,,,,,,5,,,40,77
143400,note_off,240,0,5,,,,,,,,,5,,,41,0
143520,note_off,120,0,5,,,,,,,,,5,,,40,0
143520,note_on,0,0,5,,,,,,,,,5,,,41,76
143637,note_off,357,0,1,,,,,,,,,1,,,70,0
143640,note_on,3,0,1,,,,,,,,,1,,,70,75
143754,note_off,474,0,4,,,,,,,,,4,,,50,0
143754,note_off,0,0,4,,,,,,,,,4,,,53,0
143757,note_off,477,0,2,,,,,,,,,2,,,65,0
143757,note_off,0,0,2,,,,,,,,,2,,,58,0
143760,note_on,0,0,4,,,,,,,,,4,,,49,72
143760,note_off,120,0,1,,,,,,,,,1,,,70,0
143760,note_on,3,0,2,,,,,,,,,2,,,59,72
143760,note_on,0,0,1,,,,,,,,,1,,,71,72
143760,note_on,6,0,4,,,,,,,,,4,,,53,72
143760,note_on,0,0,2,,,,,,,,,2,,,65,72
143880,note_off,120,0,1,,,,,,,,,1,,,71,0
143880,note_on,0,0,1,,,,,,,,,1,,,71,74
143960,set_tempo,680,1,0,,,,,,1132075,,,,,,,
143997,note_off,0,0,2,,,,,,,,,2,,,59,0
143997,note_off,237,0,2,,,,,,,,,2,,,65,0
143997,note_off,237,0,4,,,,,,,,,4,,,49,0
144000,note_off,120,0,1,,,,,,,,,1,,,71,0
144000,note_on,0,0,1,,,,,,,,,1,,,72,78
144000,note_off,3,0,4,,,,,,,,,4,,,53,0
144000,note_on,3,0,2,,,,,,,,,2,,,60,78
144000,note_on,0,0,4,,,,,,,,,4,,,48,78
144000,note_on,0,0,2,,,,,,,,,2,,,64,78
144000,set_tempo,40,1,0,,,,,,1111111,,,,,,,
144000,note_on,0,0,4,,,,,,,,,4,,,55,78
144120,note_on,600,0,5,,,,,,,,,5,,,40,70
144123,note_off,3,0,5,,,,,,,,,5,,,41,0
144240,note_off,117,0,5,,,,,,,,,5,,,40,0
144240,note_on,0,0,5,,,,,,,,,5,,,41,69
144354,note_off,354,0,1,,,,,,,,,1,,,72,0
144360,note_on,6,0,1,,,,,,,,,1,,,72,68
144474,note_off,0,0,4,,,,,,,,,4,,,55,0
144474,note_off,474,0,4,,,,,,,,,4,,,48,0
144474,note_off,474,0,2,,,,,,,,,2,,,60,0
144477,note_off,3,0,2,,,,,,,,,2,,,64,0
144480,note_off,120,0,1,,,,,,,,,1,,,72,0
144480,note_on,0,0,1,,,,,,,,,1,,,70,65
144480,note_on,0,0,4,,,,,,,,,4,,,48,65
144480,note_on,6,0,4,,,,,,,,,4,,,55,65
144480,note_on,3,0,2,,,,,,,,,2,,,58,65
144480,note_on,0,0,2,,,,,,,,,2,,,63,65
144600,note_off,120,0,1,,,,,,,,,1,,,70,0
144600,note_on,0,0,1,,,,,,,,,1,,,70,68
144680,set_tempo,680,1,0,,,,,,1132075,,,,,,,
144717,note_off,237,0,4,,,,,,,,,4,,,55,0
144720,note_on,0,0,4,,,,,,,,,4,,,53,70
144720,note_on,0,0,2,,,,,,,,,2,,,56,70
144720,note_on,0,0,2,,,,,,,,,2,,,65,70
144720,note_off,0,0,2,,,,,,,,,2,,,58,0
144720,note_off,240,0,2,,,,,,,,,2,,,63,0
144720,note_off,3,0,4,,,,,,,,,4,,,48,0
144720,set_tempo,40,1,0,,,,,,1111111,,,,,,,
144720,note_on,0,0,4,,,,,,,,,4,,,49,70
144720,note_on,0,0,1,,,,,,,,,1,,,68,70
144720,note_off,120,0,1,,,,,,,,,1,,,70,0
144837,note_off,597,0,5,,,,,,,,,5,,,41,0
144840,note_on,3,0,5,,,,,,,,,5,,,40,64
144960,note_off,120,0,5,,,,,,,,,5,,,40,0
144960,note_on,0,0,5,,,,,,,,,5,,,41,62
145074,note_off,354,0,1,,,,,,,,,1,,,68,0
145080,note_on,6,0,1,,,,,,,,,1,,,68,61
145194,note_off,474,0,4,,,,,,,,,4,,,53,0
145194,note_off,474,0,2,,,,,,,,,2,,,65,0
145197,note_off,3,0,2,,,,,,,,,2,,,56,0
145200,note_on,0,0,1,,,,,,,,,1,,,69,61
145200,note_on,0,0,2,,,,,,,,,2,,,63,61
145200,note_off,120,0,1,,,,,,,,,1,,,68,0
145200,note_on,3,0,2,,,,,,,,,2,,,57,61
145200,note_on,0,0,4,,,,,,,,,4,,,47,61
145200,note_on,0,0,4,,,,,,,,,4,,,53,61
145200,note_off,6,0,4,,,,,,,,,4,,,49,0
145320,note_on,0,0,1,,,,,,,,,1,,,69,62
145320,note_off,120,0,1,,,,,,,,,1,,,69,0
145320,set_tempo,600,1,0,,,,,,1176470,,,,,,,
145431,note_off,231,0,4,,,,,,,,,4,,,53,0
145434,note_off,234,0,2,,,,,,,,,2,,,57,0
145437,note_off,6,0,4,,,,,,,,,4,,,47,0
145437,note_off,3,0,2,,,,,,,,,2,,,63,0
145440,note_on,3,0,4,,,,,,,,,4,,,46,66
145440,note_on,0,0,1,,,,,,,,,1,,,70,66
145440,note_off,120,0,1,,,,,,,,,1,,,69,0
145440,note_on,0,0,4,,,,,,,,,4,,,53,66
145440,note_on,3,0,2,,,,,,,,,2,,,62,66
145440,note_on,0,0,2,,,,,,,,,2,,,58,66
145560,note_on,600,0,5,,,,,,,,,5,,,40,57
145563,note_off,3,0,5,,,,,,,,,5,,,41,0
145680,note_on,0,0,5,,,,,,,,,5,,,41,56
145680,note_off,117,0,5,,,,,,,,,5,,,40,0
145794,note_off,354,0,2,,,,,,,,,2,,,58,0
145800,note_on,0,0,1,,,,,,,,,1,,,58,55
145800,note_off,360,0,1,,,,,,,,,1,,,70,0
145914,note_off,474,0,4,,,,,,,,,4,,,53,0
145917,note_off,123,0,2,,,,,,,,,2,,,62,0
145920,note_off,120,0,1,,,,,,,,,1,,,58,0
145920,note_on,0,0,1,,,,,,,,,1,,,61,54
145920,note_on,0,0,4,,,,,,,,,4,,,53,54
145920,note_off,6,0,4,,,,,,,,,4,,,46,0
145920,note_on,3,0,2,,,,,,,,,2,,,58,54
145920,note_on,0,0,4,,,,,,,,,4,,,46,54
146040,note_off,120,0,1,,,,,,,,,1,,,61,0
146040,note_on,0,0,1,,,,,,,,,1,,,61,55
146040,set_tempo,720,1,0,,,,,,1224489,,,,,,,
146160,note_off,0,0,4,,,,,,,,,4,,,46,0
146160,note_on,0,0,4,,,,,,,,,4,,,53,57
146160,note_on,0,0,4,,,,,,,,,4,,,48,57
146160,note_off,120,0,1,,,,,,,,,1,,,61,0
146160,note_on,0,0,2,,,,,,,,,2,,,60,57
146160,note_on,0,0,2,,,,,,,,,2,,,58,57
146160,note_off,240,0,2,,,,,,,,,2,,,58,0
146160,note_off,240,0,4,,,,,,,,,4,,,53,0
146160,note_on,0,0,1,,,,,,,,,1,,,65,57
146280,note_on,0,0,5,,,,,,,,,5,,,40,50
146280,note_off,600,0,5,,,,,,,,,5,,,41,0
146400,note_off,120,0,5,,,,,,,,,5,,,40,0
146400,note_on,0,0,5,,,,,,,,,5,,,41,49
146514,note_off,354,0,4,,,,,,,,,4,,,48,0
146514,note_off,0,0,4,,,,,,,,,4,,,53,0
146517,note_off,357,0,2,,,,,,,,,2,,,60,0
146517,note_off,0,0,2,,,,,,,,,2,,,58,0
146520,note_off,360,0,1,,,,,,,,,1,,,65,0
146520,note_on,6,0,4,,,,,,,,,4,,,53,48
146640,note_on,120,0,1,,,,,,,,,1,,,60,46
146760,note_off,120,0,1,,,,,,,,,1,,,60,0
146760,note_on,0,0,1,,,,,,,,,1,,,60,48
146760,set_tempo,720,1,0,,,,,,1333333,,,,,,,
146760,note_off,240,0,4,,,,,,,,,4,,,53,0
146880,note_off,120,0,1,,,,,,,,,1,,,60,0
146880,note_on,0,0,1,,,,,,,,,1,,,63,50
146880,note_on,0,0,5,,,,,,,,,5,,,29,50
146880,note_off,480,0,5,,,,,,,,,5,,,41,0
146880,note_on,363,0,2,,,,,,,,,2,,,57,50
146880,note_on,0,0,2,,,,,,,,,2,,,54,50
147120,note_on,0,0,2,,,,,,,,,2,,,53,43
147120,note_on,0,0,2,,,,,,,,,2,,,56,43
147120,note_off,240,0,2,,,,,,,,,2,,,54,0
147120,note_on,0,0,1,,,,,,,,,1,,,61,43
147120,note_off,240,0,1,,,,,,,,,1,,,63,0
147120,note_off,0,0,2,,,,,,,,,2,,,57,0
147360,note_off,0,0,2,,,,,,,,,2,,,56,0
147360,note_on,0,0,1,,,,,,,,,1,,,60,40
147360,note_off,240,0,1,,,,,,,,,1,,,61,0
147360,note_on,0,0,2,,,,,,,,,2,,,51,40
147360,set_tempo,600,1,0,,,,,,1428571,,,,,,,
147360,note_off,240,0,2,,,,,,,,,2,,,53,0
147360,note_on,0,0,2,,,,,,,,,2,,,56,40
147600,control_change,840,0,4,,,,,,,64,0,4,,,,
147600,control_change,240,0,2,,,,,,,64,0,2,,,,
147600,note_on,0,0,5,,,,,,,,,5,,,22,38
147600,control_change,7560,0,3,,,,,,,64,0,3,,,,
147600,note_off,0,0,5,,,,,,,,,5,,,29,0
147600,control_change,720,0,5,,,,,,,64,127,5,,,,
147600,control_change,240,0,1,,,,,,,64,0,1,,,,
147640,control_change,40,0,2,,,,,,,64,127,2,,,,
147640,control_change,40,0,1,,,,,,,64,127,1,,,,
147640,control_change,40,0,4,,,,,,,64,127,4,,,,
147640,control_change,40,0,3,,,,,,,64,127,3,,,,
147720,note_off,120,0,5,,,,,,,,,5,,,22,0
147720,note_on,80,0,4,,,,,,,,,4,,,34,37
147840,note_off,120,0,4,,,,,,,,,4,,,34,0
147840,note_on,0,0,4,,,,,,,,,4,,,41,36
147960,note_on,0,0,4,,,,,,,,,4,,,46,35
147960,note_off,120,0,4,,,,,,,,,4,,,41,0
148080,note_off,120,0,4,,,,,,,,,4,,,46,0
148080,note_on,0,0,4,,,,,,,,,4,,,49,34
148080,note_off,0,0,2,,,,,,,,,2,,,56,0
148080,note_off,440,0,1,,,,,,,,,1,,,60,0
148080,note_on,0,0,1,,,,,,,,,1,,,58,34
148080,note_off,440,0,2,,,,,,,,,2,,,51,0
148200,set_tempo,840,1,0,,,,,,1500000,,,,,,,
148200,note_off,120,0,4,,,,,,,,,4,,,49,0
148200,note_on,0,0,4,,,,,,,,,4,,,53,33
148320,note_on,600,0,5,,,,,,,,,5,,,46,32
148320,note_off,120,0,4,,,,,,,,,4,,,53,0
148320,note_off,240,0,1,,,,,,,,,1,,,58,0
148320,note_on,0,0,4,,,,,,,,,4,,,49,32
148320,note_on,0,0,1,,,,,,,,,1,,,58,32
148440,note_off,120,0,1,,,,,,,,,1,,,58,0
148440,note_on,0,0,1,,,,,,,,,1,,,61,30
148560,note_off,120,0,1,,,,,,,,,1,,,61,0
148560,note_on,0,0,1,,,,,,,,,1,,,65,29
148680,note_on,0,0,1,,,,,,,,,1,,,70,28
148680,note_off,120,0,1,,,,,,,,,1,,,65,0
148764,set_tempo,564,1,0,,,,,,1578947,,,,,,,
148800,note_off,120,0,1,,,,,,,,,1,,,70,0
148800,note_off,480,0,5,,,,,,,,,5,,,46,0
148800,note_on,0,0,5,,,,,,,,,5,,,34,27
148800,note_on,0,0,1,,,,,,,,,1,,,73,27
148800,note_off,480,0,4,,,,,,,,,4,,,49,0
148920,note_on,0,0,1,,,,,,,,,1,,,89,26
148920,note_on,840,0,2,,,,,,,,,2,,,77,26
148920,set_tempo,156,1,0,,,,,,2727272,,,,,,,
148920,note_off,120,0,1,,,,,,,,,1,,,73,0
149040,note_off,120,0,2,,,,,,,,,2,,,77,0
149040,note_on,0,0,1,,,,,,,,,1,,,94,25
149040,note_on,240,0,4,,,,,,,,,4,,,49,25
149040,note_on,0,0,5,,,,,,,,,5,,,34,25
149040,note_off,240,0,5,,,,,,,,,5,,,34,0
149040,note_on,0,0,2,,,,,,,,,2,,,82,25
149040,note_on,0,0,4,,,,,,,,,4,,,41,25
149040,note_off,120,0,1,,,,,,,,,1,,,89,0
150480,note_off,0,0,1,,,,,,,,,1,,,94,0
150480,note_off,1440,0,4,,,,,,,,,4,,,41,0
150480,note_off,0,0,4,,,,,,,,,4,,,49,0
150480,note_off,0,0,5,,,,,,,,,5,,,34,0
150480,control_change,1440,0,1,,,,,,,64,0,1,,,,
150480,note_off,1440,0,2,,,,,,,,,2,,,82,0
150480,control_change,1440,0,5,,,,,,,64,0,5,,,,
150480,set_tempo,1560,1,0,,,,,,500000,,,,,,,
151200,marker,0,1,0,,,,,,,,,,,,,
151200,time_signature,720,1,0,2,4,24,8,,,,,,,,,
151920,note_on,0,0,1,,,,,,,,,1,,,61,34
151920,control_change,1440,0,1,,,,,,,64,0,1,,,,
151920,set_tempo,720,1,0,,,,,,1111111,,,,,,,
151920,note_on,0,0,5,,,,,,,,,5,,,37,34
151920,control_change,1440,0,5,,,,,,,64,0,5,,,,
151920,control_change,4280,0,3,,,,,,,64,0,3,,,,
151920,control_change,1440,0,2,,,,,,,64,0,2,,,,
151920,control_change,1440,0,4,,,,,,,64,0,4,,,,
151920,note_on,0,0,4,,,,,,,,,4,,,49,34
152040,note_off,120,0,1,,,,,,,,,1,,,61,0
152040,note_on,0,0,1,,,,,,,,,1,,,63,35
152040,note_on,0,0,5,,,,,,,,,5,,,39,35
152040,note_off,120,0,5,,,,,,,,,5,,,37,0
152040,note_off,120,0,4,,,,,,,,,4,,,49,0
152040,note_on,0,0,4,,,,,,,,,4,,,51,35
152120,set_tempo,200,1,0,,,,,,1132075,,,,,,,
152160,note_on,0,0,1,,,,,,,,,1,,,64,37
152160,note_on,0,0,5,,,,,,,,,5,,,40,37
152160,note_off,120,0,5,,,,,,,,,5,,,39,0
152160,note_off,120,0,4,,,,,,,,,4,,,51,0
152160,note_on,0,0,4,,,,,,,,,4,,,52,37
152160,set_tempo,40,1,0,,,,,,1111111,,,,,,,
152160,note_off,120,0,1,,,,,,,,,1,,,63,0
152400,note_on,0,0,4,,,,,,,,,4,,,51,35
152400,note_on,0,0,5,,,,,,,,,5,,,39,35
152400,note_off,240,0,5,,,,,,,,,5,,,40,0
152400,note_off,240,0,1,,,,,,,,,1,,,64,0
152400,note_on,0,0,1,,,,,,,,,1,,,63,35
152400,note_off,240,0,4,,,,,,,,,4,,,52,0
152520,note_off,120,0,5,,,,,,,,,5,,,39,0
152520,note_on,0,0,4,,,,,,,,,4,,,52,34
152520,note_on,0,0,5,,,,,,,,,5,,,40,34
152520,note_off,120,0,4,,,,,,,,,4,,,51,0
152520,note_off,120,0,1,,,,,,,,,1,,,63,0
152520,note_on,0,0,1,,,,,,,,,1,,,64,34
152640,note_off,120,0,4,,,,,,,,,4,,,52,0
152640,note_off,120,0,1,,,,,,,,,1,,,64,0
152640,note_off,120,0,5,,,,,,,,,5,,,40,0
152640,note_on,0,0,4,,,,,,,,,4,,,51,33
152640,note_on,0,0,5,,,,,,,,,5,,,39,33
152640,note_on,0,0,1,,,,,,,,,1,,,63,33
152767,set_tempo,607,1,0,,,,,,1132075,,,,,,,
152880,note_off,240,0,5,,,,,,,,,5,,,39,0
152880,note_off,240,0,4,,,,,,,,,4,,,51,0
152880,note_on,0,0,5,,,,,,,,,5,,,37,33
152880,set_tempo,113,1,0,,,,,,1111111,,,,,,,
152880,note_on,0,0,1,,,,,,,,,1,,,61,33
152880,note_off,240,0,1,,,,,,,,,1,,,63,0
152880,note_on,0,0,4,,,,,,,,,4,,,49,33
153000,note_off,120,0,4,,,,,,,,,4,,,49,0
153000,note_on,0,0,4,,,,,,,,,4,,,51,36
153000,note_off,120,0,5,,,,,,,,,5,,,37,0
153000,note_off,120,0,1,,,,,,,,,1,,,61,0
153000,note_on,0,0,5,,,,,,,,,5,,,39,36
153000,note_on,0,0,1,,,,,,,,,1,,,63,36
153080,set_tempo,200,1,0,,,,,,1132075,,,,,,,
153120,note_off,120,0,1,,,,,,,,,1,,,63,0
153120,note_on,0,0,1,,,,,,,,,1,,,66,38
153120,note_on,0,0,5,,,,,,,,,5,,,42,38
153120,note_off,120,0,5,,,,,,,,,5,,,39,0
153120,set_tempo,40,1,0,,,,,,1111111,,,,,,,
153120,note_off,120,0,4,,,,,,,,,4,,,51,0
153120,note_on,0,0,4,,,,,,,,,4,,,54,38
153240,note_off,120,0,4,,,,,,,,,4,,,54,0
153240,note_on,0,0,4,,,,,,,,,4,,,52,39
153240,note_off,120,0,5,,,,,,,,,5,,,42,0
153240,note_on,0,0,5,,,,,,,,,5,,,40,39
153240,note_off,120,0,1,,,,,,,,,1,,,66,0
153240,note_on,0,0,1,,,,,,,,,1,,,64,39
153360,note_on,0,0,5,,,,,,,,,5,,,39,37
153360,note_off,120,0,4,,,,,,,,,4,,,52,0
153360,note_on,0,0,4,,,,,,,,,4,,,51,37
153360,note_off,120,0,1,,,,,,,,,1,,,64,0
153360,note_off,120,0,5,,,,,,,,,5,,,40,0
153360,note_on,0,0,1,,,,,,,,,1,,,63,37
153480,note_off,120,0,1,,,,,,,,,1,,,63,0
153480,note_on,0,0,5,,,,,,,,,5,,,40,36
153480,note_on,0,0,1,,,,,,,,,1,,,64,36
153480,note_off,120,0,4,,,,,,,,,4,,,51,0
153480,note_on,0,0,4,,,,,,,,,4,,,52,36
153480,note_off,120,0,5,,,,,,,,,5,,,39,0
153600,note_off,120,0,5,,,,,,,,,5,,,40,0
153600,note_on,0,0,5,,,,,,,,,5,,,39,35
153600,note_off,120,0,4,,,,,,,,,4,,,52,0
153600,note_off,120,0,1,,,,,,,,,1,,,64,0
153600,note_on,0,0,1,,,,,,,,,1,,,63,35
153600,note_on,0,0,4,,,,,,,,,4,,,51,35
153726,set_tempo,606,1,0,,,,,,1176470,,,,,,,
153840,note_on,0,0,1,,,,,,,,,1,,,64,35
153840,note_off,240,0,1,,,,,,,,,1,,,63,0
153840,set_tempo,114,1,0,,,,,,1111111,,,,,,,
153840,note_off,240,0,5,,,,,,,,,5,,,39,0
153840,note_on,0,0,5,,,,,,,,,5,,,40,35
153840,note_off,240,0,4,,,,,,,,,4,,,51,0
153840,note_on,0,0,4,,,,,,,,,4,,,52,35
153960,note_off,120,0,4,,,,,,,,,4,,,52,0
153960,note_off,120,0,1,,,,,,,,,1,,,64,0
153960,note_on,0,0,5,,,,,,,,,5,,,42,36
153960,note_off,120,0,5,,,,,,,,,5,,,40,0
153960,note_on,0,0,1,,,,,,,,,1,,,66,36
153960,note_on,0,0,4,,,,,,,,,4,,,54,36
154040,set_tempo,200,1,0,,,,,,1132075,,,,,,,
154080,note_off,120,0,1,,,,,,,,,1,,,66,0
154080,note_on,0,0,1,,,,,,,,,1,,,68,38
154080,set_tempo,40,1,0,,,,,,1111111,,,,,,,
154080,note_on,0,0,5,,,,,,,,,5,,,44,38
154080,note_on,0,0,4,,,,,,,,,4,,,56,38
154080,note_off,120,0,5,,,,,,,,,5,,,42,0
154080,note_off,120,0,4,,,,,,,,,4,,,54,0
154320,note_on,0,0,5,,,,,,,,,5,,,42,40
154320,note_off,240,0,5,,,,,,,,,5,,,44,0
154320,note_on,0,0,1,,,,,,,,,1,,,66,40
154320,note_off,240,0,4,,,,,,,,,4,,,56,0
154320,note_on,0,0,4,,,,,,,,,4,,,54,40
154320,note_off,240,0,1,,,,,,,,,1,,,68,0
154440,note_on,0,0,4,,,,,,,,,4,,,56,41
154440,note_on,0,0,1,,,,,,,,,1,,,68,41
154440,note_off,120,0,5,,,,,,,,,5,,,42,0
154440,note_on,0,0,5,,,,,,,,,5,,,44,41
154440,note_off,120,0,4,,,,,,,,,4,,,54,0
154440,note_off,120,0,1,,,,,,,,,1,,,66,0
154560,note_off,120,0,4,,,,,,,,,4,,,56,0
154560,note_on,0,0,4,,,,,,,,,4,,,57,42
154560,note_on,0,0,5,,,,,,,,,5,,,45,42
154560,note_on,0,0,1,,,,,,,,,1,,,69,42
154560,note_off,120,0,1,,,,,,,,,1,,,68,0
154560,note_off,120,0,5,,,,,,,,,5,,,44,0
154800,note_off,240,0,4,,,,,,,,,4,,,57,0
154800,note_on,0,0,1,,,,,,,,,1,,,68,44
154800,note_off,240,0,1,,,,,,,,,1,,,69,0
154800,note_off,240,0,5,,,,,,,,,5,,,45,0
154800,note_on,0,0,4,,,,,,,,,4,,,56,44
154800,note_on,0,0,5,,,,,,,,,5,,,44,44
154920,note_off,120,0,5,,,,,,,,,5,,,44,0
154920,note_on,0,0,4,,,,,,,,,4,,,57,46
154920,note_off,120,0,4,,,,,,,,,4,,,56,0
154920,note_off,120,0,1,,,,,,,,,1,,,68,0
154920,note_on,0,0,1,,,,,,,,,1,,,69,46
154920,note_on,0,0,5,,,,,,,,,5,,,45,46
155000,set_tempo,920,1,0,,,,,,1132075,,,,,,,
155040,note_on,0,0,1,,,,,,,,,1,,,71,49
155040,note_on,0,0,4,,,,,,,,,4,,,59,49
155040,note_off,120,0,4,,,,,,,,,4,,,57,0
155040,note_off,120,0,1,,,,,,,,,1,,,69,0
155040,note_off,120,0,5,,,,,,,,,5,,,45,0
155040,note_on,0,0,5,,,,,,,,,5,,,47,49
155040,set_tempo,40,1,0,,,,,,1111111,,,,,,,
155280,note_off,240,0,1,,,,,,,,,1,,,71,0
155280,note_off,240,0,5,,,,,,,,,5,,,47,0
155280,note_off,240,0,4,,,,,,,,,4,,,59,0
155280,note_on,0,0,4,,,,,,,,,4,,,56,45
155280,note_on,0,0,1,,,,,,,,,1,,,68,45
155280,note_on,0,0,5,,,,,,,,,5,,,44,45
155400,note_on,0,0,5,,,,,,,,,5,,,45,44
155400,note_off,120,0,5,,,,,,,,,5,,,44,0
155400,note_off,120,0,4,,,,,,,,,4,,,56,0
155400,note_on,0,0,4,,,,,,,,,4,,,57,44
155400,note_off,120,0,1,,,,,,,,,1,,,68,0
155400,note_on,0,0,1,,,,,,,,,1,,,69,44
155520,note_off,120,0,1,,,,,,,,,1,,,69,0
155520,note_on,0,0,5,,,,,,,,,5,,,42,43
155520,note_off,120,0,5,,,,,,,,,5,,,45,0
155520,note_on,0,0,1,,,,,,,,,1,,,66,43
155520,note_on,0,0,4,,,,,,,,,4,,,54,43
155520,note_off,120,0,4,,,,,,,,,4,,,57,0
155760,note_on,0,0,1,,,,,,,,,1,,,68,42
155760,note_on,0,0,5,,,,,,,,,5,,,40,42
155760,note_off,240,0,5,,,,,,,,,5,,,42,0
155760,note_off,240,0,1,,,,,,,,,1,,,66,0
155760,note_on,3840,0,2,,,,,,,,,2,,,61,42
155760,note_off,240,0,4,,,,,,,,,4,,,54,0
155760,note_on,0,0,4,,,,,,,,,4,,,52,42
155760,note_on,0,0,4,,,,,,,,,4,,,56,42
155760,note_on,0,0,4,,,,,,,,,4,,,49,42
155880,note_on,0,0,1,,,,,,,,,1,,,64,41
155880,note_off,120,0,5,,,,,,,,,5,,,40,0
155880,note_on,0,0,5,,,,,,,,,5,,,44,41
155880,note_off,120,0,1,,,,,,,,,1,,,68,0
155940,set_tempo,900,1,0,,,,,,1132075,,,,,,,
156000,note_on,0,0,2,,,,,,,,,2,,,59,40
156000,note_off,240,0,2,,,,,,,,,2,,,61,0
156000,note_off,120,0,5,,,,,,,,,5,,,44,0
156000,note_on,0,0,4,,,,,,,,,4,,,54,40
156000,note_on,0,0,5,,,,,,,,,5,,,42,40
156000,note_off,0,0,4,,,,,,,,,4,,,52,0
156000,note_off,0,0,4,,,,,,,,,4,,,56,0
156000,note_off,120,0,1,,,,,,,,,1,,,64,0
156000,note_off,240,0,4,,,,,,,,,4,,,49,0
156000,note_on,0,0,1,,,,,,,,,1,,,63,40
156240,note_on,0,0,5,,,,,,,,,5,,,39,38
156240,note_off,240,0,5,,,,,,,,,5,,,42,0
156240,note_on,0,0,4,,,,,,,,,4,,,51,38
156240,note_off,240,0,4,,,,,,,,,4,,,54,0
156360,note_off,360,0,1,,,,,,,,,1,,,63,0
156360,note_off,360,0,2,,,,,,,,,2,,,59,0
156360,note_on,0,0,2,,,,,,,,,2,,,57,37
156360,note_on,0,0,1,,,,,,,,,1,,,61,37
156420,set_tempo,480,1,0,,,,,,1176470,,,,,,,
156480,note_off,240,0,4,,,,,,,,,4,,,51,0
156480,note_off,120,0,2,,,,,,,,,2,,,57,0
156480,note_on,0,0,5,,,,,,,,,5,,,44,36
156480,note_off,240,0,5,,,,,,,,,5,,,39,0
156480,note_off,120,0,1,,,,,,,,,1,,,61,0
156480,note_on,0,0,1,,,,,,,,,1,,,60,36
156480,note_on,0,0,4,,,,,,,,,4,,,56,36
156660,set_tempo,240,1,0,,,,,,1578947,,,,,,,
156720,note_on,240,0,2,,,,,,,,,2,,,49,36
156720,note_on,0,0,1,,,,,,,,,1,,,61,36
156720,set_tempo,60,1,0,,,,,,1111111,,,,,,,
156720,note_off,240,0,4,,,,,,,,,4,,,56,0
156720,note_off,240,0,5,,,,,,,,,5,,,44,0
156720,note_off,240,0,1,,,,,,,,,1,,,60,0
156840,note_on,0,0,2,,,,,,,,,2,,,51,38
156840,note_on,0,0,1,,,,,,,,,1,,,63,38
156840,note_off,120,0,1,,,,,,,,,1,,,61,0
156840,note_off,120,0,2,,,,,,,,,2,,,49,0
156920,set_tempo,200,1,0,,,,,,1132075,,,,,,,
156960,note_off,120,0,1,,,,,,,,,1,,,63,0
156960,note_on,240,0,5,,,,,,,,,5,,,37,42
156960,note_off,120,0,2,,,,,,,,,2,,,51,0
156960,note_on,0,0,1,,,,,,,,,1,,,64,42
156960,note_on,0,0,2,,,,,,,,,2,,,52,42
156960,set_tempo,40,1,0,,,,,,1111111,,,,,,,
157080,note_on,360,0,4,,,,,,,,,4,,,44,40
157200,note_off,120,0,4,,,,,,,,,4,,,44,0
157200,note_off,240,0,1,,,,,,,,,1,,,64,0
157200,note_off,240,0,5,,,,,,,,,5,,,37,0
157200,note_off,240,0,2,,,,,,,,,2,,,52,0
157200,note_on,0,0,2,,,,,,,,,2,,,51,38
157200,note_on,0,0,1,,,,,,,,,1,,,63,38
157320,note_on,0,0,2,,,,,,,,,2,,,52,37
157320,note_off,120,0,1,,,,,,,,,1,,,63,0
157320,note_on,0,0,1,,,,,,,,,1,,,64,37
157320,note_off,120,0,2,,,,,,,,,2,,,51,0
157440,note_off,120,0,2,,,,,,,,,2,,,52,0
157440,note_on,240,0,5,,,,,,,,,5,,,32,36
157440,note_on,0,0,1,,,,,,,,,1,,,63,36
157440,note_off,120,0,1,,,,,,,,,1,,,64,0
157440,note_on,0,0,2,,,,,,,,,2,,,51,36
157560,note_on,360,0,4,,,,,,,,,4,,,44,35
157575,set_tempo,615,1,0,,,,,,1132075,,,,,,,
157680,set_tempo,105,1,0,,,,,,1111111,,,,,,,
157680,note_on,0,0,1,,,,,,,,,1,,,61,38
157680,note_off,240,0,1,,,,,,,,,1,,,63,0
157680,note_off,120,0,4,,,,,,,,,4,,,44,0
157680,note_off,240,0,5,,,,,,,,,5,,,32,0
157680,note_off,240,0,2,,,,,,,,,2,,,51,0
157680,note_on,0,0,2,,,,,,,,,2,,,49,38
157800,note_off,120,0,1,,,,,,,,,1,,,61,0
157800,note_on,0,0,1,,,,,,,,,1,,,63,42
157800,note_off,120,0,2,,,,,,,,,2,,,49,0
157800,note_on,0,0,2,,,,,,,,,2,,,51,42
157880,set_tempo,200,1,0,,,,,,1132075,,,,,,,
157920,note_on,240,0,5,,,,,,,,,5,,,37,45
157920,note_on,0,0,2,,,,,,,,,2,,,54,45
157920,note_off,120,0,2,,,,,,,,,2,,,51,0
157920,note_off,120,0,1,,,,,,,,,1,,,63,0
157920,note_on,0,0,1,,,,,,,,,1,,,66,45
157920,set_tempo,40,1,0,,,,,,1111111,,,,,,,
158040,note_on,0,0,2,,,,,,,,,2,,,52,44
158040,note_on,360,0,4,,,,,,,,,4,,,44,44
158040,note_on,0,0,1,,,,,,,,,1,,,64,44
158040,note_off,120,0,1,,,,,,,,,1,,,66,0
158040,note_off,120,0,2,,,,,,,,,2,,,54,0
158160,note_on,0,0,2,,,,,,,,,2,,,51,43
158160,note_off,120,0,2,,,,,,,,,2,,,52,0
158160,note_on,0,0,1,,,,,,,,,1,,,63,43
158160,note_off,240,0,5,,,,,,,,,5,,,37,0
158160,note_off,120,0,1,,,,,,,,,1,,,64,0
158160,note_off,120,0,4,,,,,,,,,4,,,44,0
158280,note_on,0,0,1,,,,,,,,,1,,,64,42
158280,note_off,120,0,1,,,,,,,,,1,,,63,0
158280,note_on,0,0,2,,,,,,,,,2,,,52,42
158280,note_off,120,0,2,,,,,,,,,2,,,51,0
158400,note_off,120,0,1,,,,,,,,,1,,,64,0
158400,note_on,240,0,5,,,,,,,,,5,,,32,41
158400,note_off,120,0,2,,,,,,,,,2,,,52,0
158400,note_on,0,0,2,,,,,,,,,2,,,51,41
158400,note_on,0,0,1,,,,,,,,,1,,,63,41
158514,set_tempo,594,1,0,,,,,,1176470,,,,,,,
158520,note_on,360,0,4,,,,,,,,,4,,,44,40
158640,note_on,0,0,2,,,,,,,,,2,,,52,40
158640,set_tempo,126,1,0,,,,,,1111111,,,,,,,
158640,note_on,0,0,1,,,,,,,,,1,,,64,40
158640,note_off,240,0,1,,,,,,,,,1,,,63,0
158640,note_off,240,0,2,,,,,,,,,2,,,51,0
158640,note_off,240,0,5,,,,,,,,,5,,,32,0
158640,note_off,120,0,4,,,,,,,,,4,,,44,0
158760,note_on,0,0,2,,,,,,,,,2,,,54,42
158760,note_on,0,0,1,,,,,,,,,1,,,66,42
158760,note_off,120,0,1,,,,,,,,,1,,,64,0
158760,note_off,120,0,2,,,,,,,,,2,,,52,0
158840,set_tempo,200,1,0,,,,,,1132075,,,,,,,
158880,note_on,0,0,2,,,,,,,,,2,,,56,43
158880,note_on,240,0,5,,,,,,,,,5,,,40,43
158880,note_off,120,0,1,,,,,,,,,1,,,66,0
158880,note_on,0,0,1,,,,,,,,,1,,,68,43
158880,note_off,120,0,2,,,,,,,,,2,,,54,0
158880,set_tempo,40,1,0,,,,,,1111111,,,,,,,
159000,note_on,360,0,4,,,,,,,,,4,,,49,44
159120,note_off,240,0,5,,,,,,,,,5,,,40,0
159120,note_off,120,0,4,,,,,,,,,4,,,49,0
159120,note_off,240,0,2,,,,,,,,,2,,,56,0
159120,note_on,0,0,1,,,,,,,,,1,,,66,46
159120,note_off,240,0,1,,,,,,,,,1,,,68,0
159120,note_on,0,0,2,,,,,,,,,2,,,54,46
159240,note_on,0,0,1,,,,,,,,,1,,,68,47
159240,note_off,120,0,1,,,,,,,,,1,,,66,0
159240,note_on,0,0,2,,,,,,,,,2,,,56,47
159240,note_off,120,0,2,,,,,,,,,2,,,54,0
159360,note_off,120,0,2,,,,,,,,,2,,,56,0
159360,note_on,0,0,2,,,,,,,,,2,,,58,48
159360,note_on,240,0,5,,,,,,,,,5,,,37,48
159360,note_off,120,0,1,,,,,,,,,1,,,68,0
159360,note_on,0,0,1,,,,,,,,,1,,,70,48
159480,note_on,360,0,4,,,,,,,,,4,,,52,50
159600,note_off,120,0,4,,,,,,,,,4,,,52,0
159600,note_off,240,0,1,,,,,,,,,1,,,70,0
159600,note_on,0,0,1,,,,,,,,,1,,,68,51
159600,note_off,240,0,2,,,,,,,,,2,,,58,0
159600,note_on,0,0,2,,,,,,,,,2,,,56,51
159600,note_off,240,0,5,,,,,,,,,5,,,37,0
159720,note_off,120,0,1,,,,,,,,,1,,,68,0
159720,note_on,0,0,1,,,,,,,,,1,,,70,52
159720,note_on,0,0,2,,,,,,,,,2,,,58,52
159720,note_off,120,0,2,,,,,,,,,2,,,56,0
159800,set_tempo,920,1,0,,,,,,1132075,,,,,,,
159840,note_off,120,0,2,,,,,,,,,2,,,58,0
159840,note_on,0,0,1,,,,,,,,,1,,,71,54
159840,note_off,120,0,1,,,,,,,,,1,,,70,0
159840,note_on,240,0,5,,,,,,,,,5,,,35,54
159840,note_on,0,0,2,,,,,,,,,2,,,59,54
159840,set_tempo,40,1,0,,,,,,1111111,,,,,,,
159960,note_on,360,0,4,,,,,,,,,4,,,51,55
160080,note_off,240,0,2,,,,,,,,,2,,,59,0
160080,note_on,0,0,2,,,,,,,,,2,,,56,56
160080,note_off,240,0,5,,,,,,,,,5,,,35,0
160080,note_on,0,0,1,,,,,,,,,1,,,68,56
160080,note_off,120,0,4,,,,,,,,,4,,,51,0
160080,note_off,240,0,1,,,,,,,,,1,,,71,0
160200,note_on,0,0,2,,,,,,,,,2,,,58,58
160200,note_off,120,0,2,,,,,,,,,2,,,56,0
160200,note_off,120,0,1,,,,,,,,,1,,,68,0
160200,note_on,0,0,1,,,,,,,,,1,,,70,58
160320,note_off,120,0,1,,,,,,,,,1,,,70,0
160320,note_off,120,0,2,,,,,,,,,2,,,58,0
160320,note_on,0,0,2,,,,,,,,,2,,,54,62
160320,note_on,0,0,1,,,,,,,,,1,,,66,62
160320,note_on,240,0,5,,,,,,,,,5,,,37,62
160440,note_on,360,0,4,,,,,,,,,4,,,44,59
160560,note_off,240,0,5,,,,,,,,,5,,,37,0
160560,note_off,240,0,2,,,,,,,,,2,,,54,0
160560,note_on,0,0,2,,,,,,,,,2,,,52,55
160560,note_off,120,0,4,,,,,,,,,4,,,44,0
160560,note_off,240,0,1,,,,,,,,,1,,,66,0
160560,note_on,0,0,1,,,,,,,,,1,,,64,55
160680,note_off,120,0,2,,,,,,,,,2,,,52,0
160680,note_on,0,0,2,,,,,,,,,2,,,49,52
160680,note_off,120,0,1,,,,,,,,,1,,,64,0
160680,note_on,0,0,1,,,,,,,,,1,,,61,52
160740,set_tempo,900,1,0,,,,,,1132075,,,,,,,
160800,note_off,120,0,2,,,,,,,,,2,,,49,0
160800,note_on,0,0,1,,,,,,,,,1,,,59,49
160800,note_on,0,0,2,,,,,,,,,2,,,56,49
160800,note_off,120,0,1,,,,,,,,,1,,,61,0
160800,note_on,240,0,5,,,,,,,,,5,,,39,49
160920,note_on,360,0,4,,,,,,,,,4,,,51,44
161040,note_off,120,0,4,,,,,,,,,4,,,51,0
161040,note_off,240,0,2,,,,,,,,,2,,,56,0
161040,note_on,0,0,2,,,,,,,,,2,,,55,41
161040,note_off,240,0,5,,,,,,,,,5,,,39,0
161040,note_off,240,0,1,,,,,,,,,1,,,59,0
161040,note_on,0,0,1,,,,,,,,,1,,,58,41
161220,set_tempo,480,1,0,,,,,,1176470,,,,,,,
161280,note_off,240,0,1,,,,,,,,,1,,,58,0
161280,note_on,240,0,5,,,,,,,,,5,,,32,37
161280,note_on,0,0,1,,,,,,,,,1,,,56,37
161280,note_off,240,0,2,,,,,,,,,2,,,55,0
161400,note_on,360,0,4,,,,,,,,,4,,,44,35
161460,set_tempo,240,1,0,,,,,,1578947,,,,,,,
161520,note_on,0,0,1,,,,,,,,,1,,,68,36
161520,note_off,120,0,4,,,,,,,,,4,,,44,0
161520,note_off,240,0,1,,,,,,,,,1,,,56,0
161520,note_off,240,0,5,,,,,,,,,5,,,32,0
161520,set_tempo,60,1,0,,,,,,1111111,,,,,,,
161700,set_tempo,180,1,0,,,,,,1132075,,,,,,,
161740,set_tempo,40,1,0,,,,,,1111111,,,,,,,
161760,note_off,240,0,1,,,,,,,,,1,,,68,0
161760,note_on,0,0,1,,,,,,,,,1,,,69,41
161760,note_on,240,0,4,,,,,,,,,4,,,57,41
161760,note_on,240,0,5,,,,,,,,,5,,,45,41
162000,note_off,240,0,5,,,,,,,,,5,,,45,0
162000,note_off,240,0,1,,,,,,,,,1,,,69,0
162000,note_on,0,0,1,,,,,,,,,1,,,64,39
162000,note_on,0,0,5,,,,,,,,,5,,,40,39
162000,note_off,240,0,4,,,,,,,,,4,,,57,0
162240,note_on,240,0,4,,,,,,,,,4,,,49,37
162240,note_on,0,0,5,,,,,,,,,5,,,37,37
162240,note_off,240,0,5,,,,,,,,,5,,,40,0
162240,note_on,0,0,1,,,,,,,,,1,,,61,37
162240,note_off,240,0,1,,,,,,,,,1,,,64,0
162480,note_off,240,0,1,,,,,,,,,1,,,61,0
162480,note_off,240,0,4,,,,,,,,,4,,,49,0
162480,note_on,0,0,5,,,,,,,,,5,,,40,35
162480,note_off,240,0,5,,,,,,,,,5,,,37,0
162480,note_on,0,0,1,,,,,,,,,1,,,64,35
162720,note_on,0,0,5,,,,,,,,,5,,,44,41
162720,note_on,240,0,4,,,,,,,,,4,,,56,41
162720,note_off,240,0,5,,,,,,,,,5,,,40,0
162720,note_on,0,0,1,,,,,,,,,1,,,68,41
162720,note_off,240,0,1,,,,,,,,,1,,,64,0
162960,note_off,240,0,4,,,,,,,,,4,,,56,0
162960,note_off,240,0,5,,,,,,,,,5,,,44,0
162960,note_on,0,0,5,,,,,,,,,5,,,39,39
162960,note_off,240,0,1,,,,,,,,,1,,,68,0
162960,note_on,0,0,1,,,,,,,,,1,,,63,39
163200,note_on,0,0,1,,,,,,,,,1,,,59,37
163200,note_on,240,0,4,,,,,,,,,4,,,47,37
163200,note_off,240,0,1,,,,,,,,,1,,,63,0
163200,note_on,0,0,5,,,,,,,,,5,,,35,37
163200,note_off,240,0,5,,,,,,,,,5,,,39,0
163440,note_on,0,0,5,,,,,,,,,5,,,39,36
163440,note_off,240,0,5,,,,,,,,,5,,,35,0
163440,note_off,240,0,4,,,,,,,,,4,,,47,0
163440,note_on,0,0,1,,,,,,,,,1,,,63,36
163440,note_off,240,0,1,,,,,,,,,1,,,59,0
163680,note_on,240,0,4,,,,,,,,,4,,,54,43
163680,note_off,240,0,5,,,,,,,,,5,,,39,0
163680,note_off,240,0,1,,,,,,,,,1,,,63,0
163680,note_on,0,0,5,,,,,,,,,5,,,42,43
163680,note_on,0,0,1,,,,,,,,,1,,,66,43
163920,note_on,0,0,1,,,,,,,,,1,,,64,42
163920,note_off,240,0,1,,,,,,,,,1,,,66,0
163920,note_on,0,0,4,,,,,,,,,4,,,52,42
163920,note_off,240,0,4,,,,,,,,,4,,,54,0
163920,note_on,0,0,5,,,,,,,,,5,,,40,42
163920,note_off,240,0,5,,,,,,,,,5,,,42,0
164040,note_on,0,0,1,,,,,,,,,1,,,63,41
164040,note_off,120,0,1,,,,,,,,,1,,,64,0
164040,note_on,0,0,5,,,,,,,,,5,,,39,41
164040,note_off,120,0,4,,,,,,,,,4,,,52,0
164040,note_on,0,0,4,,,,,,,,,4,,,51,41
164040,note_off,120,0,5,,,,,,,,,5,,,40,0
164160,note_on,0,0,1,,,,,,,,,1,,,61,40
164160,note_off,120,0,5,,,,,,,,,5,,,39,0
164160,note_on,0,0,5,,,,,,,,,5,,,37,40
164160,note_off,120,0,4,,,,,,,,,4,,,51,0
164160,note_on,0,0,4,,,,,,,,,4,,,49,40
164160,note_off,120,0,1,,,,,,,,,1,,,63,0
164400,note_off,240,0,4,,,,,,,,,4,,,49,0
164400,note_on,0,0,5,,,,,,,,,5,,,35,39
164400,note_on,0,0,4,,,,,,,,,4,,,47,39
164400,note_off,240,0,5,,,,,,,,,5,,,37,0
164400,note_off,240,0,1,,,,,,,,,1,,,61,0
164400,note_on,0,0,1,,,,,,,,,1,,,59,39
164520,note_off,120,0,4,,,,,,,,,4,,,47,0
164520,note_on,0,0,1,,,,,,,,,1,,,58,38
164520,note_on,0,0,5,,,,,,,,,5,,,34,38
164520,note_off,120,0,5,,,,,,,,,5,,,35,0
164520,note_on,0,0,4,,,,,,,,,4,,,46,38
164520,note_off,120,0,1,,,,,,,,,1,,,59,0
164640,note_off,120,0,4,,,,,,,,,4,,,46,0
164640,note_on,0,0,4,,,,,,,,,4,,,51,45
164640,note_off,120,0,1,,,,,,,,,1,,,58,0
164640,note_on,0,0,1,,,,,,,,,1,,,63,45
164640,note_on,0,0,5,,,,,,,,,5,,,39,45
164640,note_off,120,0,5,,,,,,,,,5,,,34,0
164880,note_on,0,0,5,,,,,,,,,5,,,40,43
164880,note_off,240,0,4,,,,,,,,,4,,,51,0
164880,note_on,0,0,1,,,,,,,,,1,,,64,43
164880,note_off,240,0,1,,,,,,,,,1,,,63,0
164880,note_on,0,0,4,,,,,,,,,4,,,52,43
164880,note_off,240,0,5,,,,,,,,,5,,,39,0
165120,note_on,0,0,1,,,,,,,,,1,,,61,42
165120,note_off,240,0,1,,,,,,,,,1,,,64,0
165120,note_on,0,0,5,,,,,,,,,5,,,37,42
165120,note_off,240,0,5,,,,,,,,,5,,,40,0
165120,note_off,240,0,4,,,,,,,,,4,,,52,0
165120,note_on,0,0,4,,,,,,,,,4,,,49,42
165360,note_on,0,0,1,,,,,,,,,1,,,63,40
165360,note_off,240,0,1,,,,,,,,,1,,,61,0
165360,note_off,240,0,4,,,,,,,,,4,,,49,0
165360,note_on,0,0,4,,,,,,,,,4,,,51,40
165360,note_off,240,0,5,,,,,,,,,5,,,37,0
165360,note_on,0,0,5,,,,,,,,,5,,,39,40
165600,note_off,240,0,1,,,,,,,,,1,,,63,0
165600,note_on,4320,0,2,,,,,,,,,2,,,55,43
165600,note_on,0,0,1,,,,,,,,,1,,,61,43
165600,note_off,240,0,4,,,,,,,,,4,,,51,0
165600,note_off,240,0,5,,,,,,,,,5,,,39,0
165600,note_on,0,0,5,,,,,,,,,5,,,32,43
165600,note_on,0,0,4,,,,,,,,,4,,,44,43
165600,note_on,0,0,4,,,,,,,,,4,,,52,43
165840,note_off,240,0,1,,,,,,,,,1,,,61,0
165840,note_off,240,0,2,,,,,,,,,2,,,55,0
165840,note_on,0,0,2,,,,,,,,,2,,,59,41
165840,note_on,0,0,2,,,,,,,,,2,,,56,41
165840,note_on,0,0,4,,,,,,,,,4,,,51,41
165840,note_off,240,0,4,,,,,,,,,4,,,52,0
166080,note_on,0,0,4,,,,,,,,,4,,,49,39
166080,note_on,0,0,2,,,,,,,,,2,,,54,39
166080,note_on,0,0,2,,,,,,,,,2,,,58,39
166080,note_off,0,0,2,,,,,,,,,2,,,59,0
166080,note_off,240,0,2,,,,,,,,,2,,,56,0
166080,note_off,240,0,4,,,,,,,,,4,,,51,0
166320,note_off,0,0,4,,,,,,,,,4,,,44,0
166320,note_on,0,0,4,,,,,,,,,4,,,44,47
166320,note_off,240,0,4,,,,,,,,,4,,,49,0
166320,note_on,0,0,1,,,,,,,,,1,,,80,47
166320,note_on,0,0,2,,,,,,,,,2,,,47,47
166320,note_on,0,0,2,,,,,,,,,2,,,56,47
166320,note_off,0,0,2,,,,,,,,,2,,,58,0
166320,note_off,240,0,2,,,,,,,,,2,,,54,0
166320,note_off,720,0,5,,,,,,,,,5,,,32,0
166320,note_on,480,0,1,,,,,,,,,1,,,68,47
166520,set_tempo,4780,1,0,,,,,,1132075,,,,,,,
166560,control_change,240,0,1,,,,,,,64,0,1,,,,
166560,note_off,0,0,2,,,,,,,,,2,,,56,0
166560,note_off,0,0,2,,,,,,,,,2,,,47,0
166560,control_change,240,0,2,,,,,,,64,0,2,,,,
166560,control_change,14640,0,3,,,,,,,64,0,3,,,,
166560,control_change,240,0,5,,,,,,,64,0,5,,,,
166560,note_on,0,0,5,,,,,,,,,5,,,49,51
166560,control_change,240,0,4,,,,,,,64,0,4,,,,
166560,note_on,0,0,4,,,,,,,,,4,,,52,51
166560,note_on,0,0,1,,,,,,,,,1,,,81,51
166560,note_on,0,0,1,,,,,,,,,1,,,69,51
166560,note_off,0,0,1,,,,,,,,,1,,,68,0
166560,note_off,0,0,1,,,,,,,,,1,,,80,0
166560,set_tempo,40,1,0,,,,,,1111111,,,,,,,
166560,note_off,0,0,4,,,,,,,,,4,,,44,0
166600,control_change,40,0,5,,,,,,,64,127,5,,,,
166600,control_change,40,0,3,,,,,,,64,127,3,,,,
166600,control_change,40,0,4,,,,,,,64,127,4,,,,
166600,control_change,40,0,2,,,,,,,64,127,2,,,,
166600,control_change,40,0,1,,,,,,,64,127,1,,,,
166680,note_off,80,0,4,,,,,,,,,4,,,52,0
166680,note_on,0,0,4,,,,,,,,,4,,,52,50
166800,note_off,0,0,1,,,,,,,,,1,,,69,0
166800,note_off,200,0,1,,,,,,,,,1,,,81,0
166800,note_on,0,0,1,,,,,,,,,1,,,64,49
166800,note_on,0,0,1,,,,,,,,,1,,,76,49
166920,note_on,0,0,4,,,,,,,,,4,,,57,48
166920,note_off,240,0,4,,,,,,,,,4,,,52,0
167040,control_change,240,0,1,,,,,,,64,0,1,,,,
167040,note_on,0,0,4,,,,,,,,,4,,,56,47
167040,note_off,0,0,4,,,,,,,,,4,,,57,0
167040,control_change,120,0,4,,,,,,,64,0,4,,,,
167040,note_off,0,0,1,,,,,,,,,1,,,64,0
167040,note_off,0,0,1,,,,,,,,,1,,,76,0
167040,note_on,0,0,1,,,,,,,,,1,,,61,47
167040,note_on,0,0,1,,,,,,,,,1,,,73,47
167040,control_change,440,0,5,,,,,,,64,0,5,,,,
167040,note_off,0,0,5,,,,,,,,,5,,,49,0
167040,note_on,0,0,5,,,,,,,,,5,,,52,47
167040,control_change,440,0,2,,,,,,,64,0,2,,,,
167040,control_change,440,0,3,,,,,,,64,0,3,,,,
167080,control_change,40,0,2,,,,,,,64,127,2,,,,
167080,control_change,40,0,4,,,,,,,64,127,4,,,,
167080,control_change,40,0,1,,,,,,,64,127,1,,,,
167080,control_change,40,0,5,,,,,,,64,127,5,,,,
167080,control_change,40,0,3,,,,,,,64,127,3,,,,
167160,note_off,80,0,5,,,,,,,,,5,,,52,0
167160,note_on,0,0,5,,,,,,,,,5,,,52,46
167280,note_off,0,0,1,,,,,,,,,1,,,61,0
167280,note_off,200,0,1,,,,,,,,,1,,,73,0
167280,note_on,0,0,1,,,,,,,,,1,,,64,45
167280,note_on,0,0,1,,,,,,,,,1,,,76,45
167400,note_on,0,0,5,,,,,,,,,5,,,49,44
167400,note_off,240,0,5,,,,,,,,,5,,,52,0
167520,control_change,240,0,1,,,,,,,64,0,1,,,,
167520,note_off,0,0,1,,,,,,,,,1,,,64,0
167520,note_on,0,0,1,,,,,,,,,1,,,68,49
167520,note_off,0,0,1,,,,,,,,,1,,,76,0
167520,control_change,440,0,3,,,,,,,64,0,3,,,,
167520,control_change,440,0,4,,,,,,,64,0,4,,,,
167520,note_off,0,0,4,,,,,,,,,4,,,56,0
167520,control_change,440,0,2,,,,,,,64,0,2,,,,
167520,note_on,0,0,5,,,,,,,,,5,,,47,49
167520,note_off,0,0,5,,,,,,,,,5,,,49,0
167520,note_on,0,0,1,,,,,,,,,1,,,80,49
167520,note_on,0,0,4,,,,,,,,,4,,,51,49
167520,control_change,120,0,5,,,,,,,64,0,5,,,,
167560,control_change,40,0,2,,,,,,,64,127,2,,,,
167560,control_change,40,0,1,,,,,,,64,127,1,,,,
167560,control_change,40,0,5,,,,,,,64,127,5,,,,
167560,control_change,40,0,4,,,,,,,64,127,4,,,,
167560,control_change,40,0,3,,,,,,,64,127,3,,,,
167640,note_off,80,0,4,,,,,,,,,4,,,51,0
167640,note_on,0,0,4,,,,,,,,,4,,,51,48
167760,note_on,0,0,1,,,,,,,,,1,,,75,47
167760,note_on,0,0,1,,,,,,,,,1,,,63,47
167760,note_off,0,0,1,,,,,,,,,1,,,68,0
167760,note_off,200,0,1,,,,,,,,,1,,,80,0
167880,note_on,0,0,4,,,,,,,,,4,,,56,46
167880,note_off,240,0,4,,,,,,,,,4,,,51,0
168000,control_change,440,0,2,,,,,,,64,0,2,,,,
168000,note_on,0,0,1,,,,,,,,,1,,,59,45
168000,note_off,0,0,1,,,,,,,,,1,,,63,0
168000,note_off,0,0,1,,,,,,,,,1,,,75,0
168000,control_change,240,0,1,,,,,,,64,0,1,,,,
168000,note_on,0,0,5,,,,,,,,,5,,,51,45
168000,note_on,0,0,1,,,,,,,,,1,,,71,45
168000,note_off,0,0,4,,,,,,,,,4,,,56,0
168000,control_change,440,0,5,,,,,,,64,0,5,,,,
168000,control_change,440,0,3,,,,,,,64,0,3,,,,
168000,note_on,0,0,4,,,,,,,,,4,,,54,45
168000,control_change,120,0,4,,,,,,,64,0,4,,,,
168000,note_off,0,0,5,,,,,,,,,5,,,47,0
168040,control_change,40,0,3,,,,,,,64,127,3,,,,
168040,control_change,40,0,4,,,,,,,64,127,4,,,,
168040,control_change,40,0,1,,,,,,,64,127,1,,,,
168040,control_change,40,0,5,,,,,,,64,127,5,,,,
168040,control_change,40,0,2,,,,,,,64,127,2,,,,
168120,note_off,80,0,5,,,,,,,,,5,,,51,0
168120,note_on,0,0,5,,,,,,,,,5,,,51,44
168240,note_on,0,0,1,,,,,,,,,1,,,63,43
168240,note_on,0,0,1,,,,,,,,,1,,,75,43
168240,note_off,0,0,1,,,,,,,,,1,,,71,0
168240,note_off,200,0,1,,,,,,,,,1,,,59,0
168360,note_on,0,0,5,,,,,,,,,5,,,47,42
168360,note_off,240,0,5,,,,,,,,,5,,,51,0
168480,note_on,0,0,5,,,,,,,,,5,,,46,47
168480,control_change,120,0,5,,,,,,,64,0,5,,,,
168480,control_change,440,0,2,,,,,,,64,0,2,,,,
168480,control_change,440,0,3,,,,,,,64,0,3,,,,
168480,note_off,0,0,5,,,,,,,,,5,,,47,0
168480,note_on,0,0,1,,,,,,,,,1,,,66,47
168480,control_change,240,0,1,,,,,,,64,0,1,,,,
168480,note_off,0,0,1,,,,,,,,,1,,,63,0
168480,note_off,0,0,1,,,,,,,,,1,,,75,0
168480,note_on,0,0,1,,,,,,,,,1,,,78,47
168480,note_on,0,0,4,,,,,,,,,4,,,49,47
168480,note_off,0,0,4,,,,,,,,,4,,,54,0
168480,control_change,440,0,4,,,,,,,64,0,4,,,,
168520,control_change,40,0,5,,,,,,,64,127,5,,,,
168520,control_change,40,0,1,,,,,,,64,127,1,,,,
168520,control_change,40,0,3,,,,,,,64,127,3,,,,
168520,control_change,40,0,4,,,,,,,64,127,4,,,,
168520,control_change,40,0,2,,,,,,,64,127,2,,,,
168600,note_on,0,0,4,,,,,,,,,4,,,49,46
168600,note_off,80,0,4,,,,,,,,,4,,,49,0
168720,note_on,0,0,1,,,,,,,,,1,,,76,45
168720,note_off,200,0,1,,,,,,,,,1,,,78,0
168720,note_off,0,0,1,,,,,,,,,1,,,66,0
168720,note_on,0,0,1,,,,,,,,,1,,,64,45
168840,note_on,0,0,4,,,,,,,,,4,,,54,44
168840,note_off,120,0,1,,,,,,,,,1,,,76,0
168840,note_off,0,0,1,,,,,,,,,1,,,64,0
168840,note_on,0,0,1,,,,,,,,,1,,,75,44
168840,note_on,0,0,1,,,,,,,,,1,,,63,44
168840,note_off,240,0,4,,,,,,,,,4,,,49,0
168960,note_off,0,0,4,,,,,,,,,4,,,54,0
168960,control_change,440,0,2,,,,,,,64,0,2,,,,
168960,note_off,0,0,1,,,,,,,,,1,,,75,0
168960,note_on,0,0,1,,,,,,,,,1,,,73,43
168960,control_change,120,0,4,,,,,,,64,0,4,,,,
168960,note_off,0,0,1,,,,,,,,,1,,,63,0
168960,note_on,0,0,1,,,,,,,,,1,,,61,43
168960,note_on,0,0,4,,,,,,,,,4,,,52,43
168960,control_change,120,0,1,,,,,,,64,0,1,,,,
168960,control_change,440,0,3,,,,,,,64,0,3,,,,
168960,control_change,440,0,5,,,,,,,64,0,5,,,,
168960,note_off,0,0,5,,,,,,,,,5,,,46,0
168960,note_on,0,0,5,,,,,,,,,5,,,45,43
169000,control_change,40,0,3,,,,,,,64,127,3,,,,
169000,control_change,40,0,5,,,,,,,64,127,5,,,,
169000,control_change,40,0,4,,,,,,,64,127,4,,,,
169000,control_change,40,0,1,,,,,,,64,127,1,,,,
169000,control_change,40,0,2,,,,,,,64,127,2,,,,
169080,note_on,0,0,4,,,,,,,,,4,,,52,42
169080,note_off,80,0,4,,,,,,,,,4,,,52,0
169200,note_off,200,0,1,,,,,,,,,1,,,61,0
169200,note_on,0,0,1,,,,,,,,,1,,,63,41
169200,note_on,0,0,1,,,,,,,,,1,,,75,41
169200,note_off,0,0,1,,,,,,,,,1,,,73,0
169320,note_off,0,0,1,,,,,,,,,1,,,75,0
169320,note_on,0,0,1,,,,,,,,,1,,,76,40
169320,note_on,0,0,1,,,,,,,,,1,,,64,40
169320,note_off,120,0,1,,,,,,,,,1,,,63,0
169320,note_on,0,0,4,,,,,,,,,4,,,49,40
169320,note_off,240,0,4,,,,,,,,,4,,,52,0
169440,control_change,440,0,2,,,,,,,64,0,2,,,,
169440,control_change,440,0,5,,,,,,,64,0,5,,,,
169440,note_off,0,0,5,,,,,,,,,5,,,45,0
169440,note_on,0,0,5,,,,,,,,,5,,,44,43
169440,control_change,120,0,4,,,,,,,64,0,4,,,,
169440,note_off,0,0,4,,,,,,,,,4,,,49,0
169440,note_on,0,0,1,,,,,,,,,1,,,56,43
169440,control_change,440,0,3,,,,,,,64,0,3,,,,
169440,note_off,0,0,1,,,,,,,,,1,,,64,0
169440,control_change,120,0,1,,,,,,,64,0,1,,,,
169440,note_off,0,0,1,,,,,,,,,1,,,76,0
169560,note_on,0,0,4,,,,,,,,,4,,,52,42
169560,note_on,120,0,4,,,,,,,,,4,,,49,42
169560,note_on,0,0,2,,,,,,,,,2,,,61,42
169560,note_on,120,0,2,,,,,,,,,2,,,64,42
169680,note_off,0,0,4,,,,,,,,,4,,,49,0
169680,note_off,120,0,2,,,,,,,,,2,,,61,0
169680,note_off,120,0,4,,,,,,,,,4,,,52,0
169680,note_off,240,0,1,,,,,,,,,1,,,56,0
169680,note_off,240,0,5,,,,,,,,,5,,,44,0
169680,note_on,0,0,5,,,,,,,,,5,,,45,41
169680,note_on,0,0,1,,,,,,,,,1,,,57,41
169680,note_off,0,0,2,,,,,,,,,2,,,64,0
169800,note_on,120,0,2,,,,,,,,,2,,,64,40
169800,note_on,120,0,4,,,,,,,,,4,,,49,40
169800,note_on,0,0,4,,,,,,,,,4,,,52,40
169800,note_on,0,0,2,,,,,,,,,2,,,61,40
169920,note_off,240,0,5,,,,,,,,,5,,,45,0
169920,note_on,0,0,5,,,,,,,,,5,,,42,39
169920,note_off,0,0,2,,,,,,,,,2,,,64,0
169920,note_off,120,0,2,,,,,,,,,2,,,61,0
169920,note_off,120,0,4,,,,,,,,,4,,,52,0
169920,note_off,240,0,1,,,,,,,,,1,,,57,0
169920,note_on,0,0,1,,,,,,,,,1,,,54,39
169920,note_off,0,0,4,,,,,,,,,4,,,49,0
170040,note_on,0,0,4,,,,,,,,,4,,,51,38
170040,note_on,0,0,2,,,,,,,,,2,,,61,38
170040,note_on,120,0,2,,,,,,,,,2,,,63,38
170040,note_on,120,0,4,,,,,,,,,4,,,49,38
170160,note_off,240,0,1,,,,,,,,,1,,,54,0
170160,note_on,0,0,1,,,,,,,,,1,,,56,37
170160,note_off,120,0,2,,,,,,,,,2,,,61,0
170160,note_on,0,0,5,,,,,,,,,5,,,44,37
170160,note_off,240,0,5,,,,,,,,,5,,,42,0
170160,note_off,0,0,4,,,,,,,,,4,,,49,0
170160,note_off,0,0,2,,,,,,,,,2,,,63,0
170160,note_off,120,0,4,,,,,,,,,4,,,51,0
170280,note_on,0,0,2,,,,,,,,,2,,,63,36
170280,note_on,120,0,4,,,,,,,,,4,,,48,36
170280,note_on,0,0,4,,,,,,,,,4,,,51,36
170280,note_on,120,0,2,,,,,,,,,2,,,60,36
170400,note_off,240,0,1,,,,,,,,,1,,,56,0
170400,note_on,0,0,1,,,,,,,,,1,,,54,39
170400,note_off,120,0,4,,,,,,,,,4,,,51,0
170400,note_off,240,0,5,,,,,,,,,5,,,44,0
170400,note_on,0,0,4,,,,,,,,,4,,,45,39
170400,note_on,0,0,4,,,,,,,,,4,,,49,39
170400,note_off,0,0,4,,,,,,,,,4,,,48,0
170400,note_off,0,0,2,,,,,,,,,2,,,60,0
170400,note_on,0,0,5,,,,,,,,,5,,,37,39
170400,note_off,120,0,2,,,,,,,,,2,,,63,0
170640,note_on,0,0,4,,,,,,,,,4,,,44,38
170640,note_off,240,0,4,,,,,,,,,4,,,45,0
170640,note_on,0,0,1,,,,,,,,,1,,,52,38
170640,note_off,240,0,1,,,,,,,,,1,,,54,0
170880,note_off,240,0,4,,,,,,,,,4,,,44,0
170880,note_on,0,0,4,,,,,,,,,4,,,42,36
170880,note_on,0,0,1,,,,,,,,,1,,,51,36
170880,note_off,240,0,1,,,,,,,,,1,,,52,0
171120,note_off,240,0,4,,,,,,,,,4,,,42,0
171120,note_off,240,0,1,,,,,,,,,1,,,51,0
171120,note_off,0,0,4,,,,,,,,,4,,,49,0
171120,note_on,0,0,4,,,,,,,,,4,,,40,41
171120,note_on,0,0,1,,,,,,,,,1,,,49,41
171120,note_on,0,0,1,,,,,,,,,1,,,61,41
171120,set_tempo,4560,1,0,,,,,,1111111,,,,,,,
171120,note_on,0,0,5,,,,,,,,,5,,,37,41
171120,note_off,720,0,5,,,,,,,,,5,,,37,0
171240,note_off,120,0,1,,,,,,,,,1,,,61,0
171240,note_on,0,0,1,,,,,,,,,1,,,63,43
171320,set_tempo,200,1,0,,,,,,1132075,,,,,,,
171360,note_on,0,0,2,,,,,,,,,2,,,69,45
171360,control_change,960,0,2,,,,,,,64,0,2,,,,
171360,control_change,240,0,4,,,,,,,64,0,4,,,,
171360,note_off,0,0,4,,,,,,,,,4,,,40,0
171360,note_on,0,0,1,,,,,,,,,1,,,64,45
171360,control_change,1920,0,3,,,,,,,64,0,3,,,,
171360,note_off,0,0,1,,,,,,,,,1,,,49,0
171360,note_off,0,0,1,,,,,,,,,1,,,63,0
171360,control_change,120,0,1,,,,,,,64,0,1,,,,
171360,set_tempo,40,1,0,,,,,,1111111,,,,,,,
171360,note_on,0,0,5,,,,,,,,,5,,,42,45
171360,note_off,0,0,5,,,,,,,,,5,,,37,0
171360,control_change,240,0,5,,,,,,,64,0,5,,,,
171360,note_on,0,0,2,,,,,,,,,2,,,73,45
171400,control_change,40,0,1,,,,,,,64,127,1,,,,
171400,control_change,40,0,4,,,,,,,64,127,4,,,,
171400,control_change,40,0,2,,,,,,,64,127,2,,,,
171400,control_change,40,0,5,,,,,,,64,127,5,,,,
171400,control_change,40,0,3,,,,,,,64,127,3,,,,
171480,note_off,80,0,5,,,,,,,,,5,,,42,0
171480,note_on,80,0,4,,,,,,,,,4,,,49,44
171600,note_off,200,0,2,,,,,,,,,2,,,73,0
171600,note_on,0,0,2,,,,,,,,,2,,,73,42
171600,note_off,200,0,1,,,,,,,,,1,,,64,0
171600,note_on,0,0,1,,,,,,,,,1,,,63,42
171600,note_on,0,0,2,,,,,,,,,2,,,69,42
171600,note_off,120,0,4,,,,,,,,,4,,,49,0
171600,note_on,0,0,4,,,,,,,,,4,,,54,42
171600,note_off,0,0,2,,,,,,,,,2,,,69,0
171720,note_off,120,0,4,,,,,,,,,4,,,54,0
171720,note_on,0,0,1,,,,,,,,,1,,,64,41
171720,note_off,120,0,1,,,,,,,,,1,,,63,0
171720,note_on,0,0,4,,,,,,,,,4,,,57,41
171840,note_on,0,0,1,,,,,,,,,1,,,63,40
171840,control_change,120,0,1,,,,,,,64,0,1,,,,
171840,control_change,360,0,5,,,,,,,64,0,5,,,,
171840,note_on,0,0,5,,,,,,,,,5,,,54,40
171840,control_change,440,0,3,,,,,,,64,0,3,,,,
171840,control_change,120,0,4,,,,,,,64,0,4,,,,
171840,note_off,0,0,1,,,,,,,,,1,,,64,0
171840,control_change,240,0,2,,,,,,,64,0,2,,,,
171840,note_on,0,0,2,,,,,,,,,2,,,69,40
171840,note_on,0,0,2,,,,,,,,,2,,,73,40
171840,note_off,0,0,2,,,,,,,,,2,,,73,0
171840,note_off,0,0,2,,,,,,,,,2,,,69,0
171880,control_change,40,0,2,,,,,,,64,127,2,,,,
171880,control_change,40,0,3,,,,,,,64,127,3,,,,
171880,control_change,40,0,1,,,,,,,64,127,1,,,,
171880,control_change,40,0,5,,,,,,,64,127,5,,,,
171880,control_change,40,0,4,,,,,,,64,127,4,,,,
171982,set_tempo,622,1,0,,,,,,1132075,,,,,,,
172080,note_off,200,0,1,,,,,,,,,1,,,63,0
172080,note_on,0,0,1,,,,,,,,,1,,,61,41
172080,set_tempo,98,1,0,,,,,,1111111,,,,,,,
172200,note_off,120,0,1,,,,,,,,,1,,,61,0
172200,note_on,0,0,1,,,,,,,,,1,,,63,44
172280,set_tempo,200,1,0,,,,,,1132075,,,,,,,
172320,note_off,0,0,2,,,,,,,,,2,,,73,0
172320,note_off,0,0,2,,,,,,,,,2,,,69,0
172320,note_on,0,0,2,,,,,,,,,2,,,69,46
172320,control_change,440,0,3,,,,,,,64,0,3,,,,
172320,note_off,0,0,1,,,,,,,,,1,,,63,0
172320,note_on,0,0,1,,,,,,,,,1,,,66,46
172320,note_on,0,0,2,,,,,,,,,2,,,73,46
172320,note_off,0,0,4,,,,,,,,,4,,,57,0
172320,control_change,440,0,4,,,,,,,64,0,4,,,,
172320,set_tempo,40,1,0,,,,,,1111111,,,,,,,
172320,control_change,120,0,1,,,,,,,64,0,1,,,,
172320,note_off,0,0,5,,,,,,,,,5,,,54,0
172320,control_change,440,0,5,,,,,,,64,0,5,,,,
172320,note_on,0,0,5,,,,,,,,,5,,,45,46
172320,control_change,440,0,2,,,,,,,64,0,2,,,,
172360,control_change,40,0,2,,,,,,,64,127,2,,,,
172360,control_change,40,0,1,,,,,,,64,127,1,,,,
172360,control_change,40,0,4,,,,,,,64,127,4,,,,
172360,control_change,40,0,5,,,,,,,64,127,5,,,,
172360,control_change,40,0,3,,,,,,,64,127,3,,,,
172440,note_on,80,0,4,,,,,,,,,4,,,49,47
172440,note_on,0,0,1,,,,,,,,,1,,,64,47
172440,note_off,80,0,1,,,,,,,,,1,,,66,0
172440,note_off,80,0,5,,,,,,,,,5,,,45,0
172560,note_on,0,0,4,,,,,,,,,4,,,54,45
172560,note_on,0,0,1,,,,,,,,,1,,,63,45
172560,note_off,120,0,1,,,,,,,,,1,,,64,0
172560,note_off,120,0,4,,,,,,,,,4,,,49,0
172560,note_on,0,0,2,,,,,,,,,2,,,73,45
172560,note_off,0,0,2,,,,,,,,,2,,,73,0
172560,note_off,200,0,2,,,,,,,,,2,,,69,0
172560,note_on,0,0,2,,,,,,,,,2,,,69,45
172680,note_off,120,0,4,,,,,,,,,4,,,54,0
172680,note_on,0,0,4,,,,,,,,,4,,,57,43
172680,note_off,120,0,1,,,,,,,,,1,,,63,0
172680,note_on,0,0,1,,,,,,,,,1,,,64,43
172800,control_change,120,0,4,,,,,,,64,0,4,,,,
172800,note_on,0,0,2,,,,,,,,,2,,,73,42
172800,control_change,440,0,3,,,,,,,64,0,3,,,,
172800,note_off,0,0,1,,,,,,,,,1,,,64,0
172800,note_on,0,0,2,,,,,,,,,2,,,69,42
172800,control_change,360,0,5,,,,,,,64,0,5,,,,
172800,note_on,0,0,5,,,,,,,,,5,,,54,42
172800,note_on,0,0,1,,,,,,,,,1,,,63,42
172800,control_change,240,0,2,,,,,,,64,0,2,,,,
172800,control_change,120,0,1,,,,,,,64,0,1,,,,
172800,note_off,0,0,2,,,,,,,,,2,,,73,0
172800,note_off,0,0,2,,,,,,,,,2,,,69,0
172840,control_change,40,0,1,,,,,,,64,127,1,,,,
172840,control_change,40,0,4,,,,,,,64,127,4,,,,
172840,control_change,40,0,3,,,,,,,64,127,3,,,,
172840,control_change,40,0,2,,,,,,,64,127,2,,,,
172840,control_change,40,0,5,,,,,,,64,127,5,,,,
172926,set_tempo,606,1,0,,,,,,1176470,,,,,,,
173040,set_tempo,114,1,0,,,,,,1111111,,,,,,,
173040,note_on,0,0,1,,,,,,,,,1,,,64,41
173040,note_off,200,0,1,,,,,,,,,1,,,63,0
173160,note_off,120,0,1,,,,,,,,,1,,,64,0
173160,note_on,0,0,1,,,,,,,,,1,,,66,42
173240,set_tempo,200,1,0,,,,,,1132075,,,,,,,
173280,note_on,0,0,5,,,,,,,,,5,,,40,43
173280,control_change,120,0,1,,,,,,,64,0,1,,,,
173280,note_off,0,0,1,,,,,,,,,1,,,66,0
173280,note_on,0,0,1,,,,,,,,,1,,,68,43
173280,note_off,0,0,4,,,,,,,,,4,,,57,0
173280,control_change,440,0,4,,,,,,,64,0,4,,,,
173280,note_off,0,0,5,,,,,,,,,5,,,54,0
173280,control_change,440,0,5,,,,,,,64,0,5,,,,
173280,set_tempo,40,1,0,,,,,,1111111,,,,,,,
173280,control_change,440,0,2,,,,,,,64,0,2,,,,
173280,note_off,0,0,2,,,,,,,,,2,,,69,0
173280,note_off,0,0,2,,,,,,,,,2,,,73,0
173280,note_on,0,0,2,,,,,,,,,2,,,64,43
173280,note_on,0,0,2,,,,,,,,,2,,,73,43
173280,control_change,440,0,3,,,,,,,64,0,3,,,,
173320,control_change,40,0,1,,,,,,,64,127,1,,,,
173320,control_change,40,0,3,,,,,,,64,127,3,,,,
173320,control_change,40,0,4,,,,,,,64,127,4,,,,
173320,control_change,40,0,5,,,,,,,64,127,5,,,,
173320,control_change,40,0,2,,,,,,,64,127,2,,,,
173400,note_on,80,0,4,,,,,,,,,4,,,52,44
173400,note_off,80,0,5,,,,,,,,,5,,,40,0
173520,note_off,0,0,2,,,,,,,,,2,,,64,0
173520,note_on,0,0,4,,,,,,,,,4,,,56,45
173520,note_off,120,0,4,,,,,,,,,4,,,52,0
173520,note_off,200,0,2,,,,,,,,,2,,,73,0
173520,note_on,0,0,1,,,,,,,,,1,,,66,45
173520,note_on,0,0,2,,,,,,,,,2,,,73,45
173520,note_off,200,0,1,,,,,,,,,1,,,68,0
173520,note_on,0,0,2,,,,,,,,,2,,,64,45
173640,note_off,120,0,1,,,,,,,,,1,,,66,0
173640,note_off,120,0,4,,,,,,,,,4,,,56,0
173640,note_on,0,0,4,,,,,,,,,4,,,61,46
173640,note_on,0,0,1,,,,,,,,,1,,,68,46
173760,note_on,0,0,1,,,,,,,,,1,,,69,47
173760,note_off,0,0,1,,,,,,,,,1,,,68,0
173760,control_change,120,0,1,,,,,,,64,0,1,,,,
173760,control_change,240,0,2,,,,,,,64,0,2,,,,
173760,control_change,120,0,4,,,,,,,64,0,4,,,,
173760,note_on,0,0,2,,,,,,,,,2,,,64,47
173760,control_change,440,0,3,,,,,,,64,0,3,,,,
173760,note_on,0,0,2,,,,,,,,,2,,,73,47
173760,note_on,0,0,5,,,,,,,,,5,,,37,47
173760,control_change,360,0,5,,,,,,,64,0,5,,,,
173760,note_off,0,0,2,,,,,,,,,2,,,73,0
173760,note_off,0,0,2,,,,,,,,,2,,,64,0
173760,note_off,0,0,4,,,,,,,,,4,,,61,0
173800,control_change,40,0,4,,,,,,,64,127,4,,,,
173800,control_change,40,0,2,,,,,,,64,127,2,,,,
173800,control_change,40,0,3,,,,,,,64,127,3,,,,
173800,control_change,40,0,1,,,,,,,64,127,1,,,,
173800,control_change,40,0,5,,,,,,,64,127,5,,,,
173880,note_on,80,0,4,,,,,,,,,4,,,52,48
173880,note_off,80,0,5,,,,,,,,,5,,,37,0
174000,note_off,200,0,2,,,,,,,,,2,,,73,0
174000,note_off,0,0,2,,,,,,,,,2,,,64,0
174000,note_on,0,0,2,,,,,,,,,2,,,64,49
174000,note_on,0,0,2,,,,,,,,,2,,,73,49
174000,note_on,0,0,1,,,,,,,,,1,,,68,49
174000,note_off,200,0,1,,,,,,,,,1,,,69,0
174000,note_off,120,0,4,,,,,,,,,4,,,52,0
174000,note_on,0,0,4,,,,,,,,,4,,,57,49
174120,note_off,120,0,1,,,,,,,,,1,,,68,0
174120,note_on,0,0,1,,,,,,,,,1,,,69,50
174120,note_on,0,0,4,,,,,,,,,4,,,61,50
174120,note_off,120,0,4,,,,,,,,,4,,,57,0
174200,set_tempo,920,1,0,,,,,,1132075,,,,,,,
174240,control_change,120,0,4,,,,,,,64,0,4,,,,
174240,note_on,0,0,5,,,,,,,,,5,,,39,51
174240,control_change,360,0,5,,,,,,,64,0,5,,,,
174240,set_tempo,40,1,0,,,,,,1111111,,,,,,,
174240,control_change,120,0,1,,,,,,,64,0,1,,,,
174240,note_off,0,0,4,,,,,,,,,4,,,61,0
174240,control_change,440,0,3,,,,,,,64,0,3,,,,
174240,note_off,0,0,2,,,,,,,,,2,,,73,0
174240,note_on,0,0,2,,,,,,,,,2,,,75,51
174240,note_on,0,0,2,,,,,,,,,2,,,66,51
174240,note_off,0,0,2,,,,,,,,,2,,,64,0
174240,note_off,0,0,1,,,,,,,,,1,,,69,0
174240,note_on,0,0,1,,,,,,,,,1,,,71,51
174240,control_change,240,0,2,,,,,,,64,0,2,,,,
174280,control_change,40,0,5,,,,,,,64,127,5,,,,
174280,control_change,40,0,2,,,,,,,64,127,2,,,,
174280,control_change,40,0,4,,,,,,,64,127,4,,,,
174280,control_change,40,0,3,,,,,,,64,127,3,,,,
174280,control_change,40,0,1,,,,,,,64,127,1,,,,
174360,note_on,80,0,4,,,,,,,,,4,,,51,52
174360,note_off,80,0,5,,,,,,,,,5,,,39,0
174480,control_change,200,0,2,,,,,,,64,0,2,,,,
174480,control_change,200,0,3,,,,,,,64,0,3,,,,
174480,note_on,0,0,1,,,,,,,,,1,,,68,53
174480,control_change,120,0,5,,,,,,,64,0,5,,,,
174480,note_off,0,0,1,,,,,,,,,1,,,71,0
174480,note_on,0,0,2,,,,,,,,,2,,,73,53
174480,note_on,0,0,2,,,,,,,,,2,,,64,53
174480,note_off,0,0,2,,,,,,,,,2,,,66,0
174480,note_off,0,0,2,,,,,,,,,2,,,75,0
174480,note_on,0,0,5,,,,,,,,,5,,,40,53
174480,control_change,200,0,1,,,,,,,64,0,1,,,,
174480,control_change,120,0,4,,,,,,,64,0,4,,,,
174480,note_off,0,0,4,,,,,,,,,4,,,51,0
174520,control_change,40,0,2,,,,,,,64,127,2,,,,
174520,control_change,40,0,1,,,,,,,64,127,1,,,,
174520,control_change,40,0,4,,,,,,,64,127,4,,,,
174520,control_change,40,0,3,,,,,,,64,127,3,,,,
174520,control_change,40,0,5,,,,,,,64,127,5,,,,
174600,note_off,80,0,5,,,,,,,,,5,,,40,0
174600,note_on,0,0,1,,,,,,,,,1,,,69,54
174600,note_off,80,0,1,,,,,,,,,1,,,68,0
174600,note_on,80,0,4,,,,,,,,,4,,,52,54
174720,note_on,0,0,1,,,,,,,,,1,,,66,55
174720,control_change,200,0,3,,,,,,,64,0,3,,,,
174720,control_change,120,0,1,,,,,,,64,0,1,,,,
174720,note_off,0,0,4,,,,,,,,,4,,,52,0
174720,control_change,120,0,4,,,,,,,64,0,4,,,,
174720,note_on,0,0,5,,,,,,,,,5,,,42,55
174720,note_off,0,0,1,,,,,,,,,1,,,69,0
174720,control_change,120,0,5,,,,,,,64,0,5,,,,
174720,note_on,0,0,2,,,,,,,,,2,,,72,55
174720,note_on,0,0,2,,,,,,,,,2,,,63,55
174720,note_off,0,0,2,,,,,,,,,2,,,64,0
174720,note_off,0,0,2,,,,,,,,,2,,,73,0
174720,control_change,200,0,2,,,,,,,64,0,2,,,,
174760,control_change,40,0,4,,,,,,,64,127,4,,,,
174760,control_change,40,0,1,,,,,,,64,127,1,,,,
174760,control_change,40,0,2,,,,,,,64,127,2,,,,
174760,control_change,40,0,3,,,,,,,64,127,3,,,,
174760,control_change,40,0,5,,,,,,,64,127,5,,,,
174840,note_on,80,0,4,,,,,,,,,4,,,54,56
174840,note_off,80,0,5,,,,,,,,,5,,,42,0
174960,note_on,0,0,5,,,,,,,,,5,,,44,57
174960,control_change,120,0,5,,,,,,,64,0,5,,,,
174960,control_change,200,0,3,,,,,,,64,0,3,,,,
174960,note_on,0,0,2,,,,,,,,,2,,,61,57
174960,note_off,0,0,2,,,,,,,,,2,,,63,0
174960,control_change,200,0,2,,,,,,,64,0,2,,,,
174960,note_on,0,0,2,,,,,,,,,2,,,73,57
174960,note_off,0,0,2,,,,,,,,,2,,,72,0
174960,note_off,0,0,1,,,,,,,,,1,,,66,0
174960,note_off,0,0,4,,,,,,,,,4,,,54,0
174960,control_change,120,0,4,,,,,,,64,0,4,,,,
174960,note_on,0,0,1,,,,,,,,,1,,,68,57
174960,control_change,200,0,1,,,,,,,64,0,1,,,,
175000,control_change,40,0,3,,,,,,,64,127,3,,,,
175000,control_change,40,0,4,,,,,,,64,127,4,,,,
175000,control_change,40,0,2,,,,,,,64,127,2,,,,
175000,control_change,40,0,1,,,,,,,64,127,1,,,,
175000,control_change,40,0,5,,,,,,,64,127,5,,,,
175080,note_off,80,0,1,,,,,,,,,1,,,68,0
175080,note_on,80,0,4,,,,,,,,,4,,,56,58
175080,note_on,0,0,1,,,,,,,,,1,,,64,58
175080,note_off,80,0,5,,,,,,,,,5,,,44,0
175140,set_tempo,900,1,0,,,,,,1132075,,,,,,,
175200,note_off,0,0,1,,,,,,,,,1,,,64,0
175200,control_change,120,0,1,,,,,,,64,0,1,,,,
175200,control_change,120,0,5,,,,,,,64,0,5,,,,
175200,note_on,0,0,2,,,,,,,,,2,,,71,61
175200,note_off,0,0,2,,,,,,,,,2,,,61,0
175200,control_change,200,0,2,,,,,,,64,0,2,,,,
175200,note_on,0,0,2,,,,,,,,,2,,,63,61
175200,note_off,0,0,2,,,,,,,,,2,,,73,0
175200,note_on,0,0,1,,,,,,,,,1,,,66,61
175200,control_change,120,0,4,,,,,,,64,0,4,,,,
175200,note_on,0,0,5,,,,,,,,,5,,,42,61
175200,note_off,0,0,4,,,,,,,,,4,,,56,0
175200,control_change,200,0,3,,,,,,,64,0,3,,,,
175240,control_change,40,0,4,,,,,,,64,127,4,,,,
175240,control_change,40,0,3,,,,,,,64,127,3,,,,
175240,control_change,40,0,1,,,,,,,64,127,1,,,,
175240,control_change,40,0,5,,,,,,,64,127,5,,,,
175240,control_change,40,0,2,,,,,,,64,127,2,,,,
175320,note_off,80,0,5,,,,,,,,,5,,,42,0
175320,note_on,80,0,4,,,,,,,,,4,,,54,57
175440,control_change,200,0,2,,,,,,,64,0,2,,,,
175440,note_on,0,0,5,,,,,,,,,5,,,39,54
175440,control_change,200,0,3,,,,,,,64,0,3,,,,
175440,control_change,120,0,4,,,,,,,64,0,4,,,,
175440,note_off,0,0,4,,,,,,,,,4,,,54,0
175440,control_change,200,0,1,,,,,,,64,0,1,,,,
175440,control_change,120,0,5,,,,,,,64,0,5,,,,
175480,control_change,40,0,4,,,,,,,64,127,4,,,,
175480,control_change,40,0,5,,,,,,,64,127,5,,,,
175480,control_change,40,0,1,,,,,,,64,127,1,,,,
175480,control_change,40,0,2,,,,,,,64,127,2,,,,
175480,control_change,40,0,3,,,,,,,64,127,3,,,,
175560,note_off,0,0,2,,,,,,,,,2,,,71,0
175560,note_on,80,0,4,,,,,,,,,4,,,51,51
175560,note_off,80,0,2,,,,,,,,,2,,,63,0
175560,note_on,0,0,2,,,,,,,,,2,,,61,51
175560,note_on,0,0,2,,,,,,,,,2,,,69,51
175560,note_off,80,0,5,,,,,,,,,5,,,39,0
175620,set_tempo,480,1,0,,,,,,1176470,,,,,,,
175680,note_on,0,0,1,,,,,,,,,1,,,63,48
175680,note_off,0,0,1,,,,,,,,,1,,,66,0
175680,control_change,200,0,3,,,,,,,64,0,3,,,,
175680,control_change,200,0,1,,,,,,,64,0,1,,,,
175680,note_on,0,0,2,,,,,,,,,2,,,68,48
175680,note_on,0,0,5,,,,,,,,,5,,,44,48
175680,control_change,120,0,4,,,,,,,64,0,4,,,,
175680,control_change,120,0,2,,,,,,,64,0,2,,,,
175680,note_off,0,0,2,,,,,,,,,2,,,69,0
175680,note_off,0,0,2,,,,,,,,,2,,,61,0
175680,control_change,120,0,5,,,,,,,64,0,5,,,,
175680,note_on,0,0,2,,,,,,,,,2,,,60,48
175680,note_off,0,0,4,,,,,,,,,4,,,51,0
175720,control_change,40,0,3,,,,,,,64,127,3,,,,
175720,control_change,40,0,2,,,,,,,64,127,2,,,,
175720,control_change,40,0,1,,,,,,,64,127,1,,,,
175720,control_change,40,0,5,,,,,,,64,127,5,,,,
175720,control_change,40,0,4,,,,,,,64,127,4,,,,
175860,set_tempo,240,1,0,,,,,,1578947,,,,,,,
175920,note_off,0,0,2,,,,,,,,,2,,,68,0
175920,note_on,0,0,2,,,,,,,,,2,,,73,47
175920,note_on,0,0,2,,,,,,,,,2,,,69,47
175920,note_on,0,0,1,,,,,,,,,1,,,61,47
175920,note_off,0,0,1,,,,,,,,,1,,,63,0
175920,control_change,200,0,1,,,,,,,64,0,1,,,,
175920,set_tempo,60,1,0,,,,,,1111111,,,,,,,
175920,note_off,0,0,2,,,,,,,,,2,,,60,0
175920,control_change,200,0,2,,,,,,,64,0,2,,,,
175920,note_on,0,0,5,,,,,,,,,5,,,42,47
175920,control_change,200,0,5,,,,,,,64,0,5,,,,
175920,control_change,200,0,3,,,,,,,64,0,3,,,,
175920,note_off,0,0,5,,,,,,,,,5,,,44,0
175920,control_change,200,0,4,,,,,,,64,0,4,,,,
175960,control_change,40,0,5,,,,,,,64,127,5,,,,
175960,control_change,40,0,2,,,,,,,64,127,2,,,,
175960,control_change,40,0,3,,,,,,,64,127,3,,,,
175960,control_change,40,0,1,,,,,,,64,127,1,,,,
175960,control_change,40,0,4,,,,,,,64,127,4,,,,
176040,note_on,80,0,4,,,,,,,,,4,,,49,50
176040,note_off,80,0,1,,,,,,,,,1,,,61,0
176040,note_off,80,0,5,,,,,,,,,5,,,42,0
176040,note_on,0,0,1,,,,,,,,,1,,,63,50
176120,set_tempo,200,1,0,,,,,,1132075,,,,,,,
176160,note_on,120,0,5,,,,,,,,,5,,,54,54
176160,note_off,120,0,1,,,,,,,,,1,,,63,0
176160,note_on,0,0,1,,,,,,,,,1,,,64,54
176160,note_off,200,0,2,,,,,,,,,2,,,69,0
176160,note_on,0,0,2,,,,,,,,,2,,,73,54
176160,note_on,0,0,2,,,,,,,,,2,,,69,54
176160,note_off,120,0,4,,,,,,,,,4,,,49,0
176160,set_tempo,40,1,0,,,,,,1111111,,,,,,,
176160,note_off,0,0,2,,,,,,,,,2,,,73,0
176280,note_off,120,0,5,,,,,,,,,5,,,54,0
176280,note_on,120,0,4,,,,,,,,,4,,,57,53
176400,note_on,0,0,2,,,,,,,,,2,,,69,52
176400,note_on,0,0,2,,,,,,,,,2,,,73,52
176400,note_off,0,0,2,,,,,,,,,2,,,73,0
176400,control_change,120,0,5,,,,,,,64,0,5,,,,
176400,control_change,240,0,2,,,,,,,64,0,2,,,,
176400,note_off,0,0,1,,,,,,,,,1,,,64,0
176400,note_on,0,0,1,,,,,,,,,1,,,63,52
176400,control_change,440,0,3,,,,,,,64,0,3,,,,
176400,control_change,120,0,4,,,,,,,64,0,4,,,,
176400,note_off,0,0,4,,,,,,,,,4,,,57,0
176400,note_off,0,0,2,,,,,,,,,2,,,69,0
176400,note_on,0,0,4,,,,,,,,,4,,,54,52
176400,control_change,240,0,1,,,,,,,64,0,1,,,,
176440,control_change,40,0,2,,,,,,,64,127,2,,,,
176440,control_change,40,0,4,,,,,,,64,127,4,,,,
176440,control_change,40,0,5,,,,,,,64,127,5,,,,
176440,control_change,40,0,1,,,,,,,64,127,1,,,,
176440,control_change,40,0,3,,,,,,,64,127,3,,,,
176520,note_on,0,0,4,,,,,,,,,4,,,57,52
176520,note_on,0,0,1,,,,,,,,,1,,,64,52
176520,note_off,80,0,1,,,,,,,,,1,,,63,0
176520,note_off,80,0,4,,,,,,,,,4,,,54,0
176640,note_on,0,0,4,,,,,,,,,4,,,54,51
176640,note_on,0,0,2,,,,,,,,,2,,,73,51
176640,note_off,120,0,4,,,,,,,,,4,,,57,0
176640,note_off,120,0,1,,,,,,,,,1,,,64,0
176640,note_on,0,0,1,,,,,,,,,1,,,63,51
176640,note_on,0,0,2,,,,,,,,,2,,,69,51
176640,note_off,0,0,2,,,,,,,,,2,,,73,0
176640,note_off,200,0,2,,,,,,,,,2,,,69,0
176760,note_off,120,0,4,,,,,,,,,4,,,54,0
176760,note_on,0,0,4,,,,,,,,,4,,,49,50
176782,set_tempo,622,1,0,,,,,,1132075,,,,,,,
176880,note_on,0,0,1,,,,,,,,,1,,,61,52
176880,control_change,440,0,3,,,,,,,64,0,3,,,,
176880,note_on,0,0,5,,,,,,,,,5,,,45,52
176880,control_change,440,0,5,,,,,,,64,0,5,,,,
176880,control_change,120,0,4,,,,,,,64,0,4,,,,
176880,note_on,0,0,2,,,,,,,,,2,,,73,52
176880,note_off,0,0,2,,,,,,,,,2,,,73,0
176880,note_off,0,0,4,,,,,,,,,4,,,49,0
176880,note_off,0,0,2,,,,,,,,,2,,,69,0
176880,control_change,240,0,1,,,,,,,64,0,1,,,,
176880,set_tempo,98,1,0,,,,,,1111111,,,,,,,
176880,note_on,0,0,2,,,,,,,,,2,,,69,52
176880,note_off,0,0,1,,,,,,,,,1,,,63,0
176880,control_change,240,0,2,,,,,,,64,0,2,,,,
176920,control_change,40,0,1,,,,,,,64,127,1,,,,
176920,control_change,40,0,4,,,,,,,64,127,4,,,,
176920,control_change,40,0,2,,,,,,,64,127,2,,,,
176920,control_change,40,0,3,,,,,,,64,127,3,,,,
176920,control_change,40,0,5,,,,,,,64,127,5,,,,
177000,note_off,80,0,5,,,,,,,,,5,,,45,0
177000,note_off,80,0,1,,,,,,,,,1,,,61,0
177000,note_on,80,0,4,,,,,,,,,4,,,49,54
177000,note_on,0,0,1,,,,,,,,,1,,,63,54
177080,set_tempo,200,1,0,,,,,,1132075,,,,,,,
177120,note_on,0,0,2,,,,,,,,,2,,,73,58
177120,note_off,0,0,2,,,,,,,,,2,,,73,0
177120,note_off,200,0,2,,,,,,,,,2,,,69,0
177120,note_on,0,0,4,,,,,,,,,4,,,57,58
177120,note_off,120,0,4,,,,,,,,,4,,,49,0
177120,note_on,0,0,1,,,,,,,,,1,,,66,58
177120,note_off,120,0,1,,,,,,,,,1,,,63,0
177120,set_tempo,40,1,0,,,,,,1111111,,,,,,,
177120,note_on,0,0,2,,,,,,,,,2,,,69,58
177240,note_on,0,0,1,,,,,,,,,1,,,64,57
177240,note_off,120,0,4,,,,,,,,,4,,,57,0
177240,note_on,0,0,4,,,,,,,,,4,,,54,57
177240,note_off,120,0,1,,,,,,,,,1,,,66,0
177360,note_on,0,0,2,,,,,,,,,2,,,73,56
177360,note_on,0,0,2,,,,,,,,,2,,,69,56
177360,control_change,120,0,4,,,,,,,64,0,4,,,,
177360,control_change,440,0,3,,,,,,,64,0,3,,,,
177360,control_change,240,0,2,,,,,,,64,0,2,,,,
177360,note_on,0,0,4,,,,,,,,,4,,,57,56
177360,note_off,0,0,4,,,,,,,,,4,,,54,0
177360,note_off,0,0,2,,,,,,,,,2,,,69,0
177360,note_on,0,0,1,,,,,,,,,1,,,63,56
177360,note_off,0,0,2,,,,,,,,,2,,,73,0
177360,control_change,360,0,5,,,,,,,64,0,5,,,,
177360,control_change,120,0,1,,,,,,,64,0,1,,,,
177360,note_off,0,0,1,,,,,,,,,1,,,64,0
177400,control_change,40,0,2,,,,,,,64,127,2,,,,
177400,control_change,40,0,3,,,,,,,64,127,3,,,,
177400,control_change,40,0,1,,,,,,,64,127,1,,,,
177400,control_change,40,0,5,,,,,,,64,127,5,,,,
177400,control_change,40,0,4,,,,,,,64,127,4,,,,
177480,note_on,0,0,4,,,,,,,,,4,,,54,56
177480,note_on,0,0,1,,,,,,,,,1,,,64,56
177480,note_off,80,0,4,,,,,,,,,4,,,57,0
177480,note_off,80,0,1,,,,,,,,,1,,,63,0
177600,note_off,120,0,4,,,,,,,,,4,,,54,0
177600,note_on,0,0,2,,,,,,,,,2,,,69,55
177600,note_on,0,0,2,,,,,,,,,2,,,73,55
177600,note_off,0,0,2,,,,,,,,,2,,,73,0
177600,note_off,120,0,1,,,,,,,,,1,,,64,0
177600,note_on,0,0,1,,,,,,,,,1,,,63,55
177600,note_off,200,0,2,,,,,,,,,2,,,69,0
177600,note_on,0,0,4,,,,,,,,,4,,,49,55
177720,note_on,0,0,4,,,,,,,,,4,,,45,54
177720,note_off,120,0,4,,,,,,,,,4,,,49,0
177726,set_tempo,606,1,0,,,,,,1176470,,,,,,,
177840,note_off,0,0,2,,,,,,,,,2,,,73,0
177840,control_change,240,0,2,,,,,,,64,0,2,,,,
177840,note_off,0,0,4,,,,,,,,,4,,,45,0
177840,control_change,120,0,4,,,,,,,64,0,4,,,,
177840,note_off,0,0,2,,,,,,,,,2,,,69,0
177840,set_tempo,114,1,0,,,,,,1111111,,,,,,,
177840,note_off,0,0,1,,,,,,,,,1,,,63,0
177840,control_change,240,0,1,,,,,,,64,0,1,,,,
177840,note_on,0,0,2,,,,,,,,,2,,,69,54
177840,control_change,440,0,3,,,,,,,64,0,3,,,,
177840,control_change,440,0,5,,,,,,,64,0,5,,,,
177840,note_on,0,0,5,,,,,,,,,5,,,39,54
177840,note_on,0,0,1,,,,,,,,,1,,,64,54
177840,note_on,0,0,2,,,,,,,,,2,,,73,54
177880,control_change,40,0,1,,,,,,,64,127,1,,,,
177880,control_change,40,0,4,,,,,,,64,127,4,,,,
177880,control_change,40,0,3,,,,,,,64,127,3,,,,
177880,control_change,40,0,5,,,,,,,64,127,5,,,,
177880,control_change,40,0,2,,,,,,,64,127,2,,,,
177960,note_on,80,0,4,,,,,,,,,4,,,51,56
177960,note_off,80,0,5,,,,,,,,,5,,,39,0
177960,note_off,80,0,1,,,,,,,,,1,,,64,0
177960,note_on,0,0,1,,,,,,,,,1,,,66,56
178040,set_tempo,200,1,0,,,,,,1132075,,,,,,,
178080,note_off,0,0,4,,,,,,,,,4,,,51,0
178080,control_change,120,0,4,,,,,,,64,0,4,,,,
178080,control_change,120,0,5,,,,,,,64,0,5,,,,
178080,note_on,0,0,5,,,,,,,,,5,,,40,58
178080,control_change,200,0,3,,,,,,,64,0,3,,,,
178080,set_tempo,40,1,0,,,,,,1111111,,,,,,,
178080,note_on,0,0,2,,,,,,,,,2,,,73,58
178080,note_on,0,0,1,,,,,,,,,1,,,68,58
178080,note_off,0,0,1,,,,,,,,,1,,,66,0
178080,control_change,120,0,1,,,,,,,64,0,1,,,,
178080,note_on,0,0,2,,,,,,,,,2,,,64,58
178080,note_off,0,0,2,,,,,,,,,2,,,69,0
178080,note_off,0,0,2,,,,,,,,,2,,,73,0
178080,control_change,200,0,2,,,,,,,64,0,2,,,,
178120,control_change,40,0,3,,,,,,,64,127,3,,,,
178120,control_change,40,0,2,,,,,,,64,127,2,,,,
178120,control_change,40,0,1,,,,,,,64,127,1,,,,
178120,control_change,40,0,4,,,,,,,64,127,4,,,,
178120,control_change,40,0,5,,,,,,,64,127,5,,,,
178200,note_off,80,0,5,,,,,,,,,5,,,40,0
178200,note_on,80,0,4,,,,,,,,,4,,,52,59
178320,note_off,0,0,2,,,,,,,,,2,,,64,0
178320,note_on,0,0,2,,,,,,,,,2,,,64,61
178320,note_on,0,0,1,,,,,,,,,1,,,66,61
178320,note_off,200,0,1,,,,,,,,,1,,,68,0
178320,note_on,0,0,2,,,,,,,,,2,,,73,61
178320,note_off,200,0,2,,,,,,,,,2,,,73,0
178320,note_off,120,0,4,,,,,,,,,4,,,52,0
178320,note_on,0,0,4,,,,,,,,,4,,,56,61
178440,note_off,120,0,1,,,,,,,,,1,,,66,0
178440,note_on,0,0,1,,,,,,,,,1,,,68,62
178440,note_off,120,0,4,,,,,,,,,4,,,56,0
178440,note_on,0,0,4,,,,,,,,,4,,,61,62
178560,control_change,440,0,3,,,,,,,64,0,3,,,,
178560,note_on,0,0,2,,,,,,,,,2,,,76,64
178560,note_on,0,0,2,,,,,,,,,2,,,64,64
178560,note_off,0,0,4,,,,,,,,,4,,,61,0
178560,note_off,0,0,2,,,,,,,,,2,,,73,0
178560,control_change,240,0,2,,,,,,,64,0,2,,,,
178560,control_change,360,0,5,,,,,,,64,0,5,,,,
178560,note_on,0,0,5,,,,,,,,,5,,,37,64
178560,note_off,0,0,2,,,,,,,,,2,,,64,0
178560,control_change,120,0,4,,,,,,,64,0,4,,,,
178560,note_on,0,0,1,,,,,,,,,1,,,70,64
178560,note_off,0,0,1,,,,,,,,,1,,,68,0
178560,control_change,120,0,1,,,,,,,64,0,1,,,,
178600,control_change,40,0,3,,,,,,,64,127,3,,,,
178600,control_change,40,0,4,,,,,,,64,127,4,,,,
178600,control_change,40,0,1,,,,,,,64,127,1,,,,
178600,control_change,40,0,5,,,,,,,64,127,5,,,,
178600,control_change,40,0,2,,,,,,,64,127,2,,,,
178680,note_on,80,0,4,,,,,,,,,4,,,52,66
178680,note_off,80,0,5,,,,,,,,,5,,,37,0
178800,note_off,200,0,2,,,,,,,,,2,,,76,0
178800,note_off,0,0,2,,,,,,,,,2,,,64,0
178800,note_on,0,0,1,,,,,,,,,1,,,68,67
178800,note_on,0,0,2,,,,,,,,,2,,,76,67
178800,note_off,120,0,4,,,,,,,,,4,,,52,0
178800,note_off,200,0,1,,,,,,,,,1,,,70,0
178800,note_on,0,0,4,,,,,,,,,4,,,58,67
178800,note_on,0,0,2,,,,,,,,,2,,,64,67
178920,note_on,0,0,4,,,,,,,,,4,,,61,69
178920,note_off,120,0,1,,,,,,,,,1,,,68,0
178920,note_off,120,0,4,,,,,,,,,4,,,58,0
178920,note_on,0,0,1,,,,,,,,,1,,,70,69
179000,set_tempo,920,1,0,,,,,,1132075,,,,,,,
179040,control_change,120,0,4,,,,,,,64,0,4,,,,
179040,control_change,120,0,1,,,,,,,64,0,1,,,,
179040,note_off,0,0,1,,,,,,,,,1,,,70,0
179040,note_on,0,0,1,,,,,,,,,1,,,71,73
179040,control_change,360,0,5,,,,,,,64,0,5,,,,
179040,note_on,0,0,5,,,,,,,,,5,,,39,73
179040,set_tempo,40,1,0,,,,,,1111111,,,,,,,
179040,control_change,440,0,3,,,,,,,64,0,3,,,,
179040,note_on,0,0,2,,,,,,,,,2,,,66,73
179040,note_on,0,0,2,,,,,,,,,2,,,75,73
179040,note_off,0,0,2,,,,,,,,,2,,,64,0
179040,note_off,0,0,2,,,,,,,,,2,,,76,0
179040,control_change,240,0,2,,,,,,,64,0,2,,,,
179040,note_off,0,0,4,,,,,,,,,4,,,61,0
179080,control_change,40,0,1,,,,,,,64,127,1,,,,
179080,control_change,40,0,3,,,,,,,64,127,3,,,,
179080,control_change,40,0,5,,,,,,,64,127,5,,,,
179080,control_change,40,0,2,,,,,,,64,127,2,,,,
179080,control_change,40,0,4,,,,,,,64,127,4,,,,
179160,note_off,80,0,5,,,,,,,,,5,,,39,0
179160,note_on,80,0,4,,,,,,,,,4,,,51,70
179280,control_change,120,0,5,,,,,,,64,0,5,,,,
179280,note_on,0,0,1,,,,,,,,,1,,,68,67
179280,note_off,0,0,1,,,,,,,,,1,,,71,0
179280,control_change,200,0,1,,,,,,,64,0,1,,,,
179280,control_change,200,0,3,,,,,,,64,0,3,,,,
179280,note_on,0,0,2,,,,,,,,,2,,,64,67
179280,note_on,0,0,2,,,,,,,,,2,,,73,67
179280,note_off,0,0,2,,,,,,,,,2,,,75,0
179280,note_off,0,0,2,,,,,,,,,2,,,66,0
179280,control_change,200,0,2,,,,,,,64,0,2,,,,
179280,note_on,0,0,5,,,,,,,,,5,,,40,67
179280,note_off,0,0,4,,,,,,,,,4,,,51,0
179280,control_change,120,0,4,,,,,,,64,0,4,,,,
179320,control_change,40,0,1,,,,,,,64,127,1,,,,
179320,control_change,40,0,3,,,,,,,64,127,3,,,,
179320,control_change,40,0,4,,,,,,,64,127,4,,,,
179320,control_change,40,0,5,,,,,,,64,127,5,,,,
179320,control_change,40,0,2,,,,,,,64,127,2,,,,
179400,note_off,80,0,5,,,,,,,,,5,,,40,0
179400,note_on,0,0,1,,,,,,,,,1,,,70,65
179400,note_off,80,0,1,,,,,,,,,1,,,68,0
179400,note_on,80,0,4,,,,,,,,,4,,,52,65
179520,note_on,0,0,5,,,,,,,,,5,,,42,62
179520,note_on,0,0,1,,,,,,,,,1,,,66,62
179520,note_off,0,0,1,,,,,,,,,1,,,70,0
179520,control_change,120,0,1,,,,,,,64,0,1,,,,
179520,note_on,0,0,2,,,,,,,,,2,,,71,62
179520,note_on,0,0,2,,,,,,,,,2,,,63,62
179520,note_off,0,0,2,,,,,,,,,2,,,73,0
179520,control_change,120,0,5,,,,,,,64,0,5,,,,
179520,note_off,0,0,4,,,,,,,,,4,,,52,0
179520,control_change,200,0,3,,,,,,,64,0,3,,,,
179520,note_off,0,0,2,,,,,,,,,2,,,64,0
179520,control_change,200,0,2,,,,,,,64,0,2,,,,
179520,control_change,120,0,4,,,,,,,64,0,4,,,,
179560,control_change,40,0,5,,,,,,,64,127,5,,,,
179560,control_change,40,0,1,,,,,,,64,127,1,,,,
179560,control_change,40,0,3,,,,,,,64,127,3,,,,
179560,control_change,40,0,4,,,,,,,64,127,4,,,,
179560,control_change,40,0,2,,,,,,,64,127,2,,,,
179640,note_on,80,0,4,,,,,,,,,4,,,54,59
179640,note_off,80,0,5,,,,,,,,,5,,,42,0
179760,control_change,120,0,5,,,,,,,64,0,5,,,,
179760,note_on,0,0,2,,,,,,,,,2,,,68,56
179760,note_on,0,0,5,,,,,,,,,5,,,34,56
179760,control_change,200,0,2,,,,,,,64,0,2,,,,
179760,note_off,0,0,2,,,,,,,,,2,,,63,0
179760,note_on,0,0,2,,,,,,,,,2,,,56,56
179760,note_off,0,0,2,,,,,,,,,2,,,71,0
179760,note_off,0,0,4,,,,,,,,,4,,,54,0
179760,control_change,200,0,3,,,,,,,64,0,3,,,,
179760,control_change,200,0,1,,,,,,,64,0,1,,,,
179760,note_off,0,0,1,,,,,,,,,1,,,66,0
179760,note_on,0,0,1,,,,,,,,,1,,,64,56
179760,control_change,120,0,4,,,,,,,64,0,4,,,,
179800,control_change,40,0,3,,,,,,,64,127,3,,,,
179800,control_change,40,0,4,,,,,,,64,127,4,,,,
179800,control_change,40,0,5,,,,,,,64,127,5,,,,
179800,control_change,40,0,2,,,,,,,64,127,2,,,,
179800,control_change,40,0,1,,,,,,,64,127,1,,,,
179880,note_off,80,0,5,,,,,,,,,5,,,34,0
179880,note_on,0,0,1,,,,,,,,,1,,,61,54
179880,note_off,80,0,1,,,,,,,,,1,,,64,0
179880,note_on,80,0,4,,,,,,,,,4,,,46,54
179940,set_tempo,900,1,0,,,,,,1132075,,,,,,,
180000,note_on,0,0,5,,,,,,,,,5,,,39,53
180000,note_off,0,0,4,,,,,,,,,4,,,46,0
180000,control_change,120,0,4,,,,,,,64,0,4,,,,
180000,control_change,200,0,2,,,,,,,64,0,2,,,,
180000,note_off,0,0,2,,,,,,,,,2,,,68,0
180000,note_off,0,0,2,,,,,,,,,2,,,56,0
180000,note_on,0,0,4,,,,,,,,,4,,,56,53
180000,note_on,0,0,4,,,,,,,,,4,,,59,53
180000,control_change,120,0,5,,,,,,,64,0,5,,,,
180000,control_change,200,0,3,,,,,,,64,0,3,,,,
180000,control_change,120,0,1,,,,,,,64,0,1,,,,
180000,note_off,0,0,1,,,,,,,,,1,,,61,0
180000,note_on,0,0,1,,,,,,,,,1,,,63,53
180120,note_on,120,0,4,,,,,,,,,4,,,51,48
180240,note_off,120,0,4,,,,,,,,,4,,,51,0
180240,note_off,0,0,4,,,,,,,,,4,,,56,0
180240,note_off,240,0,5,,,,,,,,,5,,,39,0
180240,note_off,0,0,4,,,,,,,,,4,,,59,0
180240,note_on,0,0,1,,,,,,,,,1,,,63,42
180240,note_on,0,0,4,,,,,,,,,4,,,58,42
180240,note_off,240,0,1,,,,,,,,,1,,,63,0
180240,note_on,0,0,4,,,,,,,,,4,,,55,42
180420,set_tempo,480,1,0,,,,,,1176470,,,,,,,
180480,note_off,0,0,4,,,,,,,,,4,,,58,0
180480,note_off,240,0,1,,,,,,,,,1,,,63,0
180480,note_on,240,0,5,,,,,,,,,5,,,32,34
180480,note_off,240,0,4,,,,,,,,,4,,,55,0
180480,note_on,0,0,1,,,,,,,,,1,,,56,34
180600,note_on,120,0,4,,,,,,,,,4,,,44,31
180660,set_tempo,240,1,0,,,,,,1578947,,,,,,,
180720,note_off,120,0,4,,,,,,,,,4,,,44,0
180720,note_on,0,0,4,,,,,,,,,4,,,56,36
180720,note_off,240,0,5,,,,,,,,,5,,,32,0
180720,set_tempo,60,1,0,,,,,,1111111,,,,,,,
180720,note_off,240,0,1,,,,,,,,,1,,,56,0
180720,note_on,0,0,1,,,,,,,,,1,,,68,36
180900,set_tempo,180,1,0,,,,,,1132075,,,,,,,
180940,set_tempo,40,1,0,,,,,,1111111,,,,,,,
180960,note_off,240,0,1,,,,,,,,,1,,,68,0
180960,note_off,240,0,4,,,,,,,,,4,,,56,0
180960,note_on,0,0,1,,,,,,,,,1,,,69,39
180960,note_on,240,0,5,,,,,,,,,5,,,45,39
180960,note_on,0,0,4,,,,,,,,,4,,,57,39
181200,note_off,240,0,4,,,,,,,,,4,,,57,0
181200,note_on,0,0,1,,,,,,,,,1,,,64,37
181200,note_off,240,0,1,,,,,,,,,1,,,69,0
181200,note_on,0,0,5,,,,,,,,,5,,,40,37
181200,note_off,240,0,5,,,,,,,,,5,,,45,0
181440,note_on,0,0,5,,,,,,,,,5,,,37,34
181440,note_off,240,0,5,,,,,,,,,5,,,40,0
181440,note_on,0,0,1,,,,,,,,,1,,,61,34
181440,note_off,240,0,1,,,,,,,,,1,,,64,0
181440,note_on,240,0,4,,,,,,,,,4,,,49,34
181680,note_off,240,0,4,,,,,,,,,4,,,49,0
181680,note_on,0,0,5,,,,,,,,,5,,,40,32
181680,note_off,240,0,5,,,,,,,,,5,,,37,0
181680,note_on,0,0,1,,,,,,,,,1,,,64,32
181680,note_off,240,0,1,,,,,,,,,1,,,61,0
181920,note_on,0,0,1,,,,,,,,,1,,,68,37
181920,note_off,240,0,1,,,,,,,,,1,,,64,0
181920,note_off,240,0,5,,,,,,,,,5,,,40,0
181920,note_on,240,0,4,,,,,,,,,4,,,56,37
181920,note_on,0,0,5,,,,,,,,,5,,,44,37
182160,note_on,0,0,1,,,,,,,,,1,,,63,35
182160,note_off,240,0,4,,,,,,,,,4,,,56,0
182160,note_off,240,0,5,,,,,,,,,5,,,44,0
182160,note_off,240,0,1,,,,,,,,,1,,,68,0
182160,note_on,0,0,5,,,,,,,,,5,,,39,35
182400,note_on,240,0,4,,,,,,,,,4,,,47,33
182400,note_off,240,0,1,,,,,,,,,1,,,63,0
182400,note_off,240,0,5,,,,,,,,,5,,,39,0
182400,note_on,0,0,1,,,,,,,,,1,,,59,33
182400,note_on,0,0,5,,,,,,,,,5,,,35,33
182640,note_off,240,0,1,,,,,,,,,1,,,59,0
182640,note_on,0,0,1,,,,,,,,,1,,,63,31
182640,note_off,240,0,4,,,,,,,,,4,,,47,0
182640,note_off,240,0,5,,,,,,,,,5,,,35,0
182640,note_on,0,0,5,,,,,,,,,5,,,39,31
182880,note_off,240,0,1,,,,,,,,,1,,,63,0
182880,note_on,0,0,1,,,,,,,,,1,,,66,33
182880,note_off,240,0,5,,,,,,,,,5,,,39,0
182880,note_on,0,0,5,,,,,,,,,5,,,42,33
182880,note_on,240,0,4,,,,,,,,,4,,,54,33
183120,note_on,0,0,5,,,,,,,,,5,,,40,32
183120,note_off,240,0,5,,,,,,,,,5,,,42,0
183120,note_off,240,0,4,,,,,,,,,4,,,54,0
183120,note_on,0,0,4,,,,,,,,,4,,,52,32
183120,note_off,240,0,1,,,,,,,,,1,,,66,0
183120,note_on,0,0,1,,,,,,,,,1,,,64,32
183240,note_on,0,0,4,,,,,,,,,4,,,51,31
183240,note_on,0,0,5,,,,,,,,,5,,,39,31
183240,note_off,120,0,5,,,,,,,,,5,,,40,0
183240,note_off,120,0,4,,,,,,,,,4,,,52,0
183240,note_on,0,0,1,,,,,,,,,1,,,63,31
183240,note_off,120,0,1,,,,,,,,,1,,,64,0
183360,note_on,0,0,1,,,,,,,,,1,,,61,30
183360,note_off,120,0,1,,,,,,,,,1,,,63,0
183360,note_on,0,0,5,,,,,,,,,5,,,37,30
183360,note_off,120,0,4,,,,,,,,,4,,,51,0
183360,note_off,120,0,5,,,,,,,,,5,,,39,0
183360,note_on,0,0,4,,,,,,,,,4,,,49,30
183600,note_off,240,0,1,,,,,,,,,1,,,61,0
183600,note_on,0,0,1,,,,,,,,,1,,,59,29
183600,note_on,0,0,4,,,,,,,,,4,,,47,29
183600,note_on,0,0,5,,,,,,,,,5,,,35,29
183600,note_off,240,0,5,,,,,,,,,5,,,37,0
183600,note_off,240,0,4,,,,,,,,,4,,,49,0
183720,note_on,0,0,1,,,,,,,,,1,,,58,28
183720,note_off,120,0,5,,,,,,,,,5,,,35,0
183720,note_on,0,0,5,,,,,,,,,5,,,34,28
183720,note_on,0,0,4,,,,,,,,,4,,,46,28
183720,note_off,120,0,4,,,,,,,,,4,,,47,0
183720,note_off,120,0,1,,,,,,,,,1,,,59,0
183840,note_off,120,0,1,,,,,,,,,1,,,58,0
183840,note_on,0,0,4,,,,,,,,,4,,,51,31
183840,note_on,0,0,5,,,,,,,,,5,,,39,31
183840,note_off,120,0,5,,,,,,,,,5,,,34,0
183840,note_on,0,0,1,,,,,,,,,1,,,63,31
183840,note_off,120,0,4,,,,,,,,,4,,,46,0
184080,note_off,240,0,4,,,,,,,,,4,,,51,0
184080,note_on,0,0,4,,,,,,,,,4,,,52,29
184080,note_on,0,0,5,,,,,,,,,5,,,40,29
184080,note_on,0,0,1,,,,,,,,,1,,,64,29
184080,note_off,240,0,5,,,,,,,,,5,,,39,0
184080,note_off,240,0,1,,,,,,,,,1,,,63,0
184320,note_off,240,0,1,,,,,,,,,1,,,64,0
184320,note_off,240,0,5,,,,,,,,,5,,,40,0
184320,note_on,0,0,4,,,,,,,,,4,,,49,27
184320,note_off,240,0,4,,,,,,,,,4,,,52,0
184320,note_on,0,0,1,,,,,,,,,1,,,61,27
184320,note_on,0,0,5,,,,,,,,,5,,,37,27
184560,note_off,240,0,1,,,,,,,,,1,,,61,0
184560,note_on,0,0,5,,,,,,,,,5,,,39,25
184560,note_off,240,0,4,,,,,,,,,4,,,49,0
184560,note_on,0,0,4,,,,,,,,,4,,,51,25
184560,note_off,240,0,5,,,,,,,,,5,,,37,0
184560,note_on,0,0,1,,,,,,,,,1,,,63,25
184800,note_off,240,0,4,,,,,,,,,4,,,51,0
184800,note_on,0,0,4,,,,,,,,,4,,,44,26
184800,note_on,0,0,4,,,,,,,,,4,,,52,26
184800,note_on,0,0,1,,,,,,,,,1,,,61,26
184800,note_off,240,0,1,,,,,,,,,1,,,63,0
184800,note_off,240,0,5,,,,,,,,,5,,,39,0
184800,note_on,0,0,5,,,,,,,,,5,,,32,26
184800,note_on,4800,0,2,,,,,,,,,2,,,55,26
185040,note_off,240,0,4,,,,,,,,,4,,,52,0
185040,note_off,240,0,1,,,,,,,,,1,,,61,0
185040,note_off,240,0,2,,,,,,,,,2,,,55,0
185040,note_on,0,0,2,,,,,,,,,2,,,59,23
185040,note_on,0,0,4,,,,,,,,,4,,,56,23
185040,note_on,0,0,4,,,,,,,,,4,,,51,23
185280,note_off,240,0,4,,,,,,,,,4,,,56,0
185280,note_off,0,0,4,,,,,,,,,4,,,51,0
185280,note_on,0,0,4,,,,,,,,,4,,,54,20
185280,note_on,0,0,4,,,,,,,,,4,,,49,20
185280,note_off,240,0,2,,,,,,,,,2,,,59,0
185280,note_on,0,0,2,,,,,,,,,2,,,58,20
185520,note_on,0,0,2,,,,,,,,,2,,,56,52
185520,note_off,240,0,2,,,,,,,,,2,,,58,0
185520,note_off,0,0,4,,,,,,,,,4,,,44,0
185520,note_off,0,0,4,,,,,,,,,4,,,54,0
185520,note_off,240,0,4,,,,,,,,,4,,,49,0
185520,note_on,0,0,1,,,,,,,,,1,,,68,52
185520,note_off,720,0,5,,,,,,,,,5,,,32,0
185520,note_on,0,0,5,,,,,,,,,5,,,44,52
185520,note_on,480,0,1,,,,,,,,,1,,,80,52
185520,note_on,0,0,4,,,,,,,,,4,,,47,52
185720,set_tempo,4780,1,0,,,,,,1132075,,,,,,,
185760,note_off,0,0,5,,,,,,,,,5,,,44,0
185760,note_off,0,0,2,,,,,,,,,2,,,56,0
185760,control_change,240,0,2,,,,,,,64,0,2,,,,
185760,control_change,5760,0,3,,,,,,,64,0,3,,,,
185760,note_on,0,0,1,,,,,,,,,1,,,69,57
185760,note_on,0,0,1,,,,,,,,,1,,,81,57
185760,note_off,0,0,1,,,,,,,,,1,,,80,0
185760,note_off,0,0,1,,,,,,,,,1,,,68,0
185760,control_change,240,0,1,,,,,,,64,0,1,,,,
185760,control_change,240,0,5,,,,,,,64,0,5,,,,
185760,set_tempo,40,1,0,,,,,,1111111,,,,,,,
185760,note_on,0,0,5,,,,,,,,,5,,,49,57
185760,control_change,240,0,4,,,,,,,64,0,4,,,,
185760,note_off,0,0,4,,,,,,,,,4,,,47,0
185760,note_on,0,0,4,,,,,,,,,4,,,52,57
185800,control_change,40,0,5,,,,,,,64,127,5,,,,
185800,control_change,40,0,2,,,,,,,64,127,2,,,,
185800,control_change,40,0,4,,,,,,,64,127,4,,,,
185800,control_change,40,0,1,,,,,,,64,127,1,,,,
185800,control_change,40,0,3,,,,,,,64,127,3,,,,
185880,note_off,80,0,4,,,,,,,,,4,,,52,0
185880,note_on,0,0,4,,,,,,,,,4,,,52,56
186000,note_off,0,0,1,,,,,,,,,1,,,81,0
186000,note_on,0,0,1,,,,,,,,,1,,,76,55
186000,note_off,200,0,1,,,,,,,,,1,,,69,0
186000,note_on,0,0,1,,,,,,,,,1,,,64,55
186120,note_off,240,0,4,,,,,,,,,4,,,52,0
186120,note_on,0,0,4,,,,,,,,,4,,,57,53
186240,note_on,0,0,4,,,,,,,,,4,,,56,52
186240,control_change,120,0,4,,,,,,,64,0,4,,,,
186240,note_off,0,0,4,,,,,,,,,4,,,57,0
186240,note_off,0,0,1,,,,,,,,,1,,,64,0
186240,note_off,0,0,1,,,,,,,,,1,,,76,0
186240,control_change,240,0,1,,,,,,,64,0,1,,,,
186240,note_on,0,0,5,,,,,,,,,5,,,52,52
186240,note_on,0,0,1,,,,,,,,,1,,,61,52
186240,note_off,0,0,5,,,,,,,,,5,,,49,0
186240,control_change,440,0,5,,,,,,,64,0,5,,,,
186240,control_change,440,0,2,,,,,,,64,0,2,,,,
186240,note_on,0,0,1,,,,,,,,,1,,,73,52
186240,control_change,440,0,3,,,,,,,64,0,3,,,,
186280,control_change,40,0,1,,,,,,,64,127,1,,,,
186280,control_change,40,0,2,,,,,,,64,127,2,,,,
186280,control_change,40,0,4,,,,,,,64,127,4,,,,
186280,control_change,40,0,5,,,,,,,64,127,5,,,,
186280,control_change,40,0,3,,,,,,,64,127,3,,,,
186360,note_on,0,0,5,,,,,,,,,5,,,52,51
186360,note_off,80,0,5,,,,,,,,,5,,,52,0
186480,note_off,0,0,1,,,,,,,,,1,,,73,0
186480,note_off,200,0,1,,,,,,,,,1,,,61,0
186480,note_on,0,0,1,,,,,,,,,1,,,76,49
186480,note_on,0,0,1,,,,,,,,,1,,,64,49
186600,note_on,0,0,5,,,,,,,,,5,,,49,48
186600,note_off,240,0,5,,,,,,,,,5,,,52,0
186720,control_change,440,0,2,,,,,,,64,0,2,,,,
186720,note_on,0,0,5,,,,,,,,,5,,,47,55
186720,control_change,120,0,5,,,,,,,64,0,5,,,,
186720,note_on,0,0,1,,,,,,,,,1,,,68,55
186720,note_on,0,0,1,,,,,,,,,1,,,80,55
186720,note_off,0,0,1,,,,,,,,,1,,,64,0
186720,note_off,0,0,1,,,,,,,,,1,,,76,0
186720,note_off,0,0,4,,,,,,,,,4,,,56,0
186720,control_change,440,0,4,,,,,,,64,0,4,,,,
186720,note_on,0,0,4,,,,,,,,,4,,,51,55
186720,note_off,0,0,5,,,,,,,,,5,,,49,0
186720,control_change,240,0,1,,,,,,,64,0,1,,,,
186720,control_change,440,0,3,,,,,,,64,0,3,,,,
186760,control_change,40,0,4,,,,,,,64,127,4,,,,
186760,control_change,40,0,1,,,,,,,64,127,1,,,,
186760,control_change,40,0,3,,,,,,,64,127,3,,,,
186760,control_change,40,0,5,,,,,,,64,127,5,,,,
186760,control_change,40,0,2,,,,,,,64,127,2,,,,
186840,note_off,80,0,4,,,,,,,,,4,,,51,0
186840,note_on,0,0,4,,,,,,,,,4,,,51,54
186960,note_off,0,0,1,,,,,,,,,1,,,80,0
186960,note_on,0,0,1,,,,,,,,,1,,,63,52
186960,note_off,200,0,1,,,,,,,,,1,,,68,0
186960,note_on,0,0,1,,,,,,,,,1,,,75,52
187080,note_off,240,0,4,,,,,,,,,4,,,51,0
187080,note_on,0,0,4,,,,,,,,,4,,,56,51
187200,control_change,440,0,5,,,,,,,64,0,5,,,,
187200,control_change,440,0,2,,,,,,,64,0,2,,,,
187200,control_change,120,0,4,,,,,,,64,0,4,,,,
187200,note_off,0,0,4,,,,,,,,,4,,,56,0
187200,note_on,0,0,4,,,,,,,,,4,,,54,49
187200,control_change,440,0,3,,,,,,,64,0,3,,,,
187200,control_change,240,0,1,,,,,,,64,0,1,,,,
187200,note_off,0,0,1,,,,,,,,,1,,,63,0
187200,note_on,0,0,1,,,,,,,,,1,,,59,49
187200,note_on,0,0,1,,,,,,,,,1,,,71,49
187200,note_off,0,0,1,,,,,,,,,1,,,75,0
187200,note_on,0,0,5,,,,,,,,,5,,,51,49
187200,note_off,0,0,5,,,,,,,,,5,,,47,0
187240,control_change,40,0,4,,,,,,,64,127,4,,,,
187240,control_change,40,0,5,,,,,,,64,127,5,,,,
187240,control_change,40,0,3,,,,,,,64,127,3,,,,
187240,control_change,40,0,2,,,,,,,64,127,2,,,,
187240,control_change,40,0,1,,,,,,,64,127,1,,,,
187320,note_on,0,0,5,,,,,,,,,5,,,51,48
187320,note_off,80,0,5,,,,,,,,,5,,,51,0
187440,note_on,0,0,1,,,,,,,,,1,,,75,46
187440,note_on,0,0,1,,,,,,,,,1,,,63,46
187440,note_off,0,0,1,,,,,,,,,1,,,59,0
187440,note_off,200,0,1,,,,,,,,,1,,,71,0
187560,note_off,240,0,5,,,,,,,,,5,,,51,0
187560,note_on,0,0,5,,,,,,,,,5,,,47,44
187680,control_change,120,0,5,,,,,,,64,0,5,,,,
187680,note_off,0,0,5,,,,,,,,,5,,,47,0
187680,note_on,0,0,5,,,,,,,,,5,,,46,49
187680,control_change,240,0,1,,,,,,,64,0,1,,,,
187680,control_change,440,0,2,,,,,,,64,0,2,,,,
187680,note_off,0,0,1,,,,,,,,,1,,,75,0
187680,note_off,0,0,1,,,,,,,,,1,,,63,0
187680,note_on,0,0,1,,,,,,,,,1,,,78,49
187680,note_on,0,0,1,,,,,,,,,1,,,66,49
187680,note_on,0,0,4,,,,,,,,,4,,,49,49
187680,note_off,0,0,4,,,,,,,,,4,,,54,0
187680,control_change,440,0,4,,,,,,,64,0,4,,,,
187680,control_change,440,0,3,,,,,,,64,0,3,,,,
187720,control_change,40,0,2,,,,,,,64,127,2,,,,
187720,control_change,40,0,1,,,,,,,64,127,1,,,,
187720,control_change,40,0,5,,,,,,,64,127,5,,,,
187720,control_change,40,0,3,,,,,,,64,127,3,,,,
187720,control_change,40,0,4,,,,,,,64,127,4,,,,
187800,note_off,80,0,4,,,,,,,,,4,,,49,0
187800,note_on,0,0,4,,,,,,,,,4,,,49,48
187920,note_on,0,0,1,,,,,,,,,1,,,76,46
187920,note_off,0,0,1,,,,,,,,,1,,,78,0
187920,note_on,0,0,1,,,,,,,,,1,,,64,46
187920,note_off,200,0,1,,,,,,,,,1,,,66,0
188040,note_off,120,0,1,,,,,,,,,1,,,64,0
188040,note_on,0,0,1,,,,,,,,,1,,,63,45
188040,note_on,0,0,1,,,,,,,,,1,,,75,45
188040,note_off,240,0,4,,,,,,,,,4,,,49,0
188040,note_on,0,0,4,,,,,,,,,4,,,54,45
188040,note_off,0,0,1,,,,,,,,,1,,,76,0
188160,control_change,120,0,1,,,,,,,64,0,1,,,,
188160,control_change,440,0,2,,,,,,,64,0,2,,,,
188160,note_off,0,0,1,,,,,,,,,1,,,75,0
188160,note_off,0,0,1,,,,,,,,,1,,,63,0
188160,note_on,0,0,1,,,,,,,,,1,,,61,44
188160,control_change,440,0,3,,,,,,,64,0,3,,,,
188160,note_on,0,0,4,,,,,,,,,4,,,52,44
188160,note_off,0,0,4,,,,,,,,,4,,,54,0
188160,control_change,120,0,4,,,,,,,64,0,4,,,,
188160,note_on,0,0,5,,,,,,,,,5,,,45,44
188160,note_off,0,0,5,,,,,,,,,5,,,46,0
188160,control_change,440,0,5,,,,,,,64,0,5,,,,
188160,note_on,0,0,1,,,,,,,,,1,,,73,44
188200,control_change,40,0,4,,,,,,,64,127,4,,,,
188200,control_change,40,0,2,,,,,,,64,127,2,,,,
188200,control_change,40,0,1,,,,,,,64,127,1,,,,
188200,control_change,40,0,3,,,,,,,64,127,3,,,,
188200,control_change,40,0,5,,,,,,,64,127,5,,,,
188280,note_off,80,0,4,,,,,,,,,4,,,52,0
188280,note_on,0,0,4,,,,,,,,,4,,,52,43
188400,note_off,0,0,1,,,,,,,,,1,,,61,0
188400,note_on,0,0,1,,,,,,,,,1,,,63,42
188400,note_on,0,0,1,,,,,,,,,1,,,75,42
188400,note_off,200,0,1,,,,,,,,,1,,,73,0
188520,note_on,0,0,4,,,,,,,,,4,,,49,40
188520,note_off,0,0,1,,,,,,,,,1,,,63,0
188520,note_off,240,0,4,,,,,,,,,4,,,52,0
188520,note_on,0,0,1,,,,,,,,,1,,,76,40
188520,note_on,0,0,1,,,,,,,,,1,,,64,40
188520,note_off,120,0,1,,,,,,,,,1,,,75,0
188640,note_off,0,0,1,,,,,,,,,1,,,76,0
188640,control_change,120,0,1,,,,,,,64,0,1,,,,
188640,control_change,440,0,2,,,,,,,64,0,2,,,,
188640,note_on,0,0,5,,,,,,,,,5,,,44,47
188640,control_change,440,0,5,,,,,,,64,0,5,,,,
188640,note_on,0,0,1,,,,,,,,,1,,,68,47
188640,control_change,440,0,3,,,,,,,64,0,3,,,,
188640,note_off,0,0,4,,,,,,,,,4,,,49,0
188640,control_change,120,0,4,,,,,,,64,0,4,,,,
188640,note_off,0,0,5,,,,,,,,,5,,,45,0
188640,note_off,0,0,1,,,,,,,,,1,,,64,0
188760,note_on,0,0,4,,,,,,,,,4,,,49,46
188760,note_on,120,0,4,,,,,,,,,4,,,52,46
188760,note_on,120,0,2,,,,,,,,,2,,,61,46
188760,note_on,0,0,2,,,,,,,,,2,,,64,46
188760,note_on,120,0,5,,,,,,,,,5,,,56,46
188880,note_on,0,0,1,,,,,,,,,1,,,69,45
188880,note_off,120,0,5,,,,,,,,,5,,,56,0
188880,note_off,120,0,2,,,,,,,,,2,,,64,0
188880,note_off,0,0,2,,,,,,,,,2,,,61,0
188880,note_off,0,0,5,,,,,,,,,5,,,44,0
188880,note_on,0,0,5,,,,,,,,,5,,,45,45
188880,note_off,120,0,4,,,,,,,,,4,,,49,0
188880,note_off,240,0,1,,,,,,,,,1,,,68,0
188880,note_off,0,0,4,,,,,,,,,4,,,52,0
189000,note_on,120,0,5,,,,,,,,,5,,,57,44
189000,note_on,120,0,2,,,,,,,,,2,,,61,44
189000,note_on,0,0,2,,,,,,,,,2,,,64,44
189000,note_on,120,0,4,,,,,,,,,4,,,49,44
189000,note_on,0,0,4,,,,,,,,,4,,,52,44
189120,note_off,240,0,1,,,,,,,,,1,,,69,0
189120,note_off,0,0,4,,,,,,,,,4,,,49,0
189120,note_on,0,0,5,,,,,,,,,5,,,42,43
189120,note_off,0,0,5,,,,,,,,,5,,,45,0
189120,note_off,120,0,5,,,,,,,,,5,,,57,0
189120,note_off,120,0,2,,,,,,,,,2,,,64,0
189120,note_off,0,0,2,,,,,,,,,2,,,61,0
189120,note_on,0,0,1,,,,,,,,,1,,,66,43
189120,note_off,120,0,4,,,,,,,,,4,,,52,0
189240,note_on,120,0,4,,,,,,,,,4,,,51,42
189240,note_on,0,0,4,,,,,,,,,4,,,49,42
189240,note_on,0,0,2,,,,,,,,,2,,,63,42
189240,note_on,120,0,2,,,,,,,,,2,,,61,42
189240,note_on,120,0,5,,,,,,,,,5,,,54,42
189360,note_off,120,0,4,,,,,,,,,4,,,49,0
189360,note_on,0,0,1,,,,,,,,,1,,,68,41
189360,note_off,120,0,5,,,,,,,,,5,,,54,0
189360,note_off,0,0,4,,,,,,,,,4,,,51,0
189360,note_off,120,0,2,,,,,,,,,2,,,63,0
189360,note_off,0,0,2,,,,,,,,,2,,,61,0
189360,note_off,0,0,5,,,,,,,,,5,,,42,0
189360,note_off,240,0,1,,,,,,,,,1,,,66,0
189360,note_on,0,0,5,,,,,,,,,5,,,44,41
189480,set_tempo,3720,1,0,,,,,,1132075,,,,,,,
189480,note_on,120,0,5,,,,,,,,,5,,,56,40
189480,note_on,0,0,4,,,,,,,,,4,,,48,40
189480,note_on,0,0,2,,,,,,,,,2,,,60,40
189480,note_on,120,0,2,,,,,,,,,2,,,63,40
189480,note_on,120,0,4,,,,,,,,,4,,,51,40
189600,note_off,0,0,2,,,,,,,,,2,,,63,0
189600,note_off,0,0,4,,,,,,,,,4,,,51,0
189600,note_off,120,0,5,,,,,,,,,5,,,56,0
189600,note_on,0,0,4,,,,,,,,,4,,,45,39
189600,note_on,0,0,4,,,,,,,,,4,,,49,39
189600,note_off,120,0,2,,,,,,,,,2,,,60,0
189600,note_off,120,0,4,,,,,,,,,4,,,48,0
189600,note_off,240,0,1,,,,,,,,,1,,,68,0
189600,note_on,0,0,1,,,,,,,,,1,,,61,39
189600,note_on,0,0,1,,,,,,,,,1,,,54,39
189600,note_on,0,0,5,,,,,,,,,5,,,37,39
189600,note_off,0,0,5,,,,,,,,,5,,,44,0
189840,note_off,240,0,1,,,,,,,,,1,,,54,0
189840,note_on,0,0,4,,,,,,,,,4,,,44,36
189840,note_on,0,0,1,,,,,,,,,1,,,52,36
189840,note_off,240,0,4,,,,,,,,,4,,,45,0
190020,set_tempo,540,1,0,,,,,,1176470,,,,,,,
190080,note_on,0,0,4,,,,,,,,,4,,,42,34
190080,note_off,240,0,4,,,,,,,,,4,,,44,0
190080,note_on,0,0,1,,,,,,,,,1,,,51,34
190080,note_off,240,0,1,,,,,,,,,1,,,52,0
190080,set_tempo,60,1,0,,,,,,1363636,,,,,,,
190320,note_off,240,0,1,,,,,,,,,1,,,61,0
190320,note_on,0,0,1,,,,,,,,,1,,,61,44
190320,note_on,0,0,1,,,,,,,,,1,,,49,44
190320,note_on,0,0,5,,,,,,,,,5,,,37,44
190320,set_tempo,240,1,0,,,,,,1176470,,,,,,,
190320,note_off,720,0,5,,,,,,,,,5,,,37,0
190320,note_on,0,0,4,,,,,,,,,4,,,40,44
190320,note_off,0,0,4,,,,,,,,,4,,,49,0
190320,note_off,240,0,4,,,,,,,,,4,,,42,0
190320,note_off,0,0,1,,,,,,,,,1,,,51,0
190320,note_on,0,0,1,,,,,,,,,1,,,73,44
190440,note_off,120,0,1,,,,,,,,,1,,,61,0
190440,note_on,0,0,1,,,,,,,,,1,,,63,47
190440,note_off,0,0,1,,,,,,,,,1,,,73,0
190440,note_on,0,0,1,,,,,,,,,1,,,75,47
190500,set_tempo,180,1,0,,,,,,1200000,,,,,,,
190560,control_change,240,0,5,,,,,,,64,0,5,,,,
190560,control_change,960,0,2,,,,,,,64,0,2,,,,
190560,note_off,0,0,4,,,,,,,,,4,,,40,0
190560,note_on,0,0,1,,,,,,,,,1,,,76,50
190560,note_off,0,0,5,,,,,,,,,5,,,37,0
190560,note_on,0,0,2,,,,,,,,,2,,,68,50
190560,note_on,0,0,2,,,,,,,,,2,,,73,50
190560,set_tempo,60,1,0,,,,,,1176470,,,,,,,
190560,control_change,1920,0,3,,,,,,,64,0,3,,,,
190560,control_change,120,0,1,,,,,,,64,0,1,,,,
190560,note_off,0,0,1,,,,,,,,,1,,,75,0
190560,note_off,0,0,1,,,,,,,,,1,,,63,0
190560,note_off,0,0,1,,,,,,,,,1,,,49,0
190560,control_change,240,0,4,,,,,,,64,0,4,,,,
190560,note_on,0,0,5,,,,,,,,,5,,,37,50
190560,note_on,0,0,1,,,,,,,,,1,,,64,50
190600,control_change,40,0,1,,,,,,,64,127,1,,,,
190600,control_change,40,0,4,,,,,,,64,127,4,,,,
190600,control_change,40,0,5,,,,,,,64,127,5,,,,
190600,control_change,40,0,2,,,,,,,64,127,2,,,,
190600,control_change,40,0,3,,,,,,,64,127,3,,,,
190800,note_on,200,0,4,,,,,,,,,4,,,44,47
190800,note_on,0,0,4,,,,,,,,,4,,,49,47
191040,note_on,240,0,4,,,,,,,,,4,,,52,45
191040,note_on,0,0,4,,,,,,,,,4,,,56,45
191280,note_off,680,0,1,,,,,,,,,1,,,64,0
191280,note_off,0,0,1,,,,,,,,,1,,,76,0
191280,note_on,0,0,1,,,,,,,,,1,,,75,45
191280,note_on,0,0,1,,,,,,,,,1,,,63,45
191280,note_off,680,0,2,,,,,,,,,2,,,73,0
191280,note_off,0,0,2,,,,,,,,,2,,,68,0
191400,note_off,0,0,1,,,,,,,,,1,,,75,0
191400,note_on,0,0,1,,,,,,,,,1,,,76,47
191400,note_on,0,0,1,,,,,,,,,1,,,64,47
191400,note_off,120,0,1,,,,,,,,,1,,,63,0
191460,set_tempo,900,1,0,,,,,,1200000,,,,,,,
191520,note_on,0,0,2,,,,,,,,,2,,,68,48
191520,control_change,920,0,3,,,,,,,64,0,3,,,,
191520,control_change,120,0,1,,,,,,,64,0,1,,,,
191520,set_tempo,60,1,0,,,,,,1176470,,,,,,,
191520,note_off,0,0,1,,,,,,,,,1,,,64,0
191520,note_off,0,0,1,,,,,,,,,1,,,76,0
191520,note_on,0,0,1,,,,,,,,,1,,,63,48
191520,note_on,0,0,1,,,,,,,,,1,,,75,48
191520,control_change,480,0,4,,,,,,,64,0,4,,,,
191520,note_off,0,0,4,,,,,,,,,4,,,56,0
191520,note_off,0,0,4,,,,,,,,,4,,,52,0
191520,control_change,240,0,2,,,,,,,64,0,2,,,,
191520,note_off,0,0,5,,,,,,,,,5,,,37,0
191520,note_on,0,0,5,,,,,,,,,5,,,37,48
191520,control_change,920,0,5,,,,,,,64,0,5,,,,
191520,note_off,0,0,4,,,,,,,,,4,,,49,0
191520,note_off,0,0,4,,,,,,,,,4,,,44,0
191520,note_on,0,0,2,,,,,,,,,2,,,73,48
191560,control_change,40,0,2,,,,,,,64,127,2,,,,
191560,control_change,40,0,3,,,,,,,64,127,3,,,,
191560,control_change,40,0,5,,,,,,,64,127,5,,,,
191560,control_change,40,0,1,,,,,,,64,127,1,,,,
191560,control_change,40,0,4,,,,,,,64,127,4,,,,
191760,note_on,200,0,4,,,,,,,,,4,,,44,46
191760,note_on,0,0,4,,,,,,,,,4,,,49,46
192000,note_on,240,0,4,,,,,,,,,4,,,51,44
192000,note_on,0,0,4,,,,,,,,,4,,,56,44
192240,note_off,0,0,1,,,,,,,,,1,,,63,0
192240,note_on,0,0,1,,,,,,,,,1,,,61,43
192240,note_off,0,0,2,,,,,,,,,2,,,68,0
192240,note_off,680,0,2,,,,,,,,,2,,,73,0
192240,note_on,0,0,1,,,,,,,,,1,,,73,43
192240,note_off,680,0,1,,,,,,,,,1,,,75,0
192360,note_off,0,0,1,,,,,,,,,1,,,73,0
192360,note_off,120,0,1,,,,,,,,,1,,,61,0
192360,note_on,0,0,1,,,,,,,,,1,,,75,45
192360,note_on,0,0,1,,,,,,,,,1,,,63,45
192420,set_tempo,900,1,0,,,,,,1200000,,,,,,,
192480,note_on,0,0,2,,,,,,,,,2,,,73,47
192480,control_change,480,0,4,,,,,,,64,0,4,,,,
192480,set_tempo,60,1,0,,,,,,1176470,,,,,,,
192480,control_change,240,0,2,,,,,,,64,0,2,,,,
192480,note_on,0,0,2,,,,,,,,,2,,,68,47
192480,note_on,0,0,5,,,,,,,,,5,,,37,47
192480,note_off,0,0,5,,,,,,,,,5,,,37,0
192480,control_change,920,0,5,,,,,,,64,0,5,,,,
192480,note_off,0,0,4,,,,,,,,,4,,,56,0
192480,control_change,120,0,1,,,,,,,64,0,1,,,,
192480,note_off,0,0,1,,,,,,,,,1,,,75,0
192480,note_on,0,0,1,,,,,,,,,1,,,78,47
192480,note_off,0,0,4,,,,,,,,,4,,,49,0
192480,note_off,0,0,4,,,,,,,,,4,,,44,0
192480,note_on,0,0,1,,,,,,,,,1,,,66,47
192480,control_change,920,0,3,,,,,,,64,0,3,,,,
192480,note_off,0,0,1,,,,,,,,,1,,,63,0
192480,note_off,0,0,4,,,,,,,,,4,,,51,0
192520,control_change,40,0,3,,,,,,,64,127,3,,,,
192520,control_change,40,0,4,,,,,,,64,127,4,,,,
192520,control_change,40,0,5,,,,,,,64,127,5,,,,
192520,control_change,40,0,1,,,,,,,64,127,1,,,,
192520,control_change,40,0,2,,,,,,,64,127,2,,,,
192720,note_on,200,0,4,,,,,,,,,4,,,44,45
192720,note_on,0,0,4,,,,,,,,,4,,,49,45
192840,note_on,0,0,1,,,,,,,,,1,,,76,43
192840,note_on,0,0,1,,,,,,,,,1,,,64,43
192840,note_off,0,0,1,,,,,,,,,1,,,78,0
192840,note_off,320,0,1,,,,,,,,,1,,,66,0
192960,note_off,0,0,1,,,,,,,,,1,,,64,0
192960,note_on,0,0,1,,,,,,,,,1,,,63,42
192960,control_change,440,0,5,,,,,,,64,0,5,,,,
192960,control_change,440,0,3,,,,,,,64,0,3,,,,
192960,control_change,120,0,1,,,,,,,64,0,1,,,,
192960,control_change,440,0,2,,,,,,,64,0,2,,,,
192960,note_on,0,0,1,,,,,,,,,1,,,75,42
192960,note_off,0,0,1,,,,,,,,,1,,,76,0
192960,control_change,240,0,4,,,,,,,64,0,4,,,,
192960,note_on,0,0,4,,,,,,,,,4,,,52,42
192960,note_on,0,0,4,,,,,,,,,4,,,56,42
193000,control_change,40,0,1,,,,,,,64,127,1,,,,
193000,control_change,40,0,3,,,,,,,64,127,3,,,,
193000,control_change,40,0,4,,,,,,,64,127,4,,,,
193000,control_change,40,0,2,,,,,,,64,127,2,,,,
193000,control_change,40,0,5,,,,,,,64,127,5,,,,
193080,note_on,0,0,1,,,,,,,,,1,,,64,41
193080,note_on,0,0,1,,,,,,,,,1,,,76,41
193080,note_off,80,0,1,,,,,,,,,1,,,63,0
193080,note_off,0,0,1,,,,,,,,,1,,,75,0
193200,note_on,0,0,1,,,,,,,,,1,,,66,40
193200,note_off,0,0,1,,,,,,,,,1,,,76,0
193200,note_off,120,0,1,,,,,,,,,1,,,64,0
193200,note_on,0,0,1,,,,,,,,,1,,,78,40
193320,note_on,0,0,1,,,,,,,,,1,,,76,38
193320,note_on,0,0,1,,,,,,,,,1,,,64,38
193320,note_off,120,0,1,,,,,,,,,1,,,78,0
193320,note_off,0,0,1,,,,,,,,,1,,,66,0
193380,set_tempo,900,1,0,,,,,,1224489,,,,,,,
193440,control_change,440,0,2,,,,,,,64,0,2,,,,
193440,control_change,120,0,1,,,,,,,64,0,1,,,,
193440,note_on,0,0,1,,,,,,,,,1,,,75,41
193440,note_on,0,0,1,,,,,,,,,1,,,63,41
193440,control_change,440,0,3,,,,,,,64,0,3,,,,
193440,note_on,0,0,2,,,,,,,,,2,,,73,41
193440,note_on,0,0,2,,,,,,,,,2,,,68,41
193440,note_off,0,0,2,,,,,,,,,2,,,68,0
193440,note_off,0,0,2,,,,,,,,,2,,,73,0
193440,note_off,0,0,1,,,,,,,,,1,,,76,0
193440,note_off,0,0,4,,,,,,,,,4,,,44,0
193440,note_off,0,0,4,,,,,,,,,4,,,52,0
193440,note_off,0,0,4,,,,,,,,,4,,,56,0
193440,control_change,440,0,4,,,,,,,64,0,4,,,,
193440,control_change,440,0,5,,,,,,,64,0,5,,,,
193440,note_off,0,0,5,,,,,,,,,5,,,37,0
193440,note_on,0,0,5,,,,,,,,,5,,,37,41
193440,note_off,0,0,1,,,,,,,,,1,,,64,0
193440,note_off,0,0,4,,,,,,,,,4,,,49,0
193480,control_change,40,0,1,,,,,,,64,127,1,,,,
193480,control_change,40,0,3,,,,,,,64,127,3,,,,
193480,control_change,40,0,5,,,,,,,64,127,5,,,,
193480,control_change,40,0,2,,,,,,,64,127,2,,,,
193480,control_change,40,0,4,,,,,,,64,127,4,,,,
193560,note_off,80,0,1,,,,,,,,,1,,,75,0
193560,note_off,0,0,1,,,,,,,,,1,,,63,0
193560,note_on,0,0,1,,,,,,,,,1,,,76,39
193560,note_on,0,0,1,,,,,,,,,1,,,64,39
193640,set_tempo,260,1,0,,,,,,1276595,,,,,,,
193680,note_off,120,0,1,,,,,,,,,1,,,64,0
193680,note_on,0,0,1,,,,,,,,,1,,,75,38
193680,note_on,0,0,4,,,,,,,,,4,,,49,38
193680,note_on,200,0,4,,,,,,,,,4,,,44,38
193680,note_off,0,0,1,,,,,,,,,1,,,76,0
193680,note_on,0,0,1,,,,,,,,,1,,,63,38
193860,set_tempo,220,1,0,,,,,,1333333,,,,,,,
193920,control_change,440,0,5,,,,,,,64,0,5,,,,
193920,note_on,0,0,2,,,,,,,,,2,,,72,36
193920,note_off,0,0,4,,,,,,,,,4,,,49,0
193920,note_off,0,0,2,,,,,,,,,2,,,68,0
193920,note_off,0,0,2,,,,,,,,,2,,,73,0
193920,control_change,440,0,2,,,,,,,64,0,2,,,,
193920,control_change,240,0,4,,,,,,,64,0,4,,,,
193920,control_change,440,0,3,,,,,,,64,0,3,,,,
193920,note_on,0,0,4,,,,,,,,,4,,,56,36
193920,note_on,0,0,4,,,,,,,,,4,,,51,36
193920,control_change,240,0,1,,,,,,,64,0,1,,,,
193920,note_on,0,0,2,,,,,,,,,2,,,66,36
193960,control_change,40,0,3,,,,,,,64,127,3,,,,
193960,control_change,40,0,5,,,,,,,64,127,5,,,,
193960,control_change,40,0,2,,,,,,,64,127,2,,,,
193960,control_change,40,0,1,,,,,,,64,127,1,,,,
193960,control_change,40,0,4,,,,,,,64,127,4,,,,
194160,note_on,0,0,4,,,,,,,,,4,,,60,34
194160,note_off,0,0,4,,,,,,,,,4,,,44,0
194160,note_off,0,0,4,,,,,,,,,4,,,56,0
194160,note_off,200,0,4,,,,,,,,,4,,,51,0
194160,note_on,0,0,4,,,,,,,,,4,,,54,34
194170,set_tempo,310,1,0,,,,,,1428571,,,,,,,
194280,note_on,320,0,1,,,,,,,,,1,,,61,33
194280,note_on,0,0,1,,,,,,,,,1,,,73,33
194287,note_off,7,0,1,,,,,,,,,1,,,75,0
194287,note_off,0,0,1,,,,,,,,,1,,,63,0
194290,set_tempo,120,1,0,,,,,,1666666,,,,,,,
194400,note_on,0,0,1,,,,,,,,,1,,,73,33
194400,note_on,0,0,5,,,,,,,,,5,,,37,33
194400,note_off,0,0,1,,,,,,,,,1,,,61,0
194400,note_off,0,0,1,,,,,,,,,1,,,73,0
194400,control_change,113,0,1,,,,,,,64,0,1,,,,
194400,note_off,0,0,5,,,,,,,,,5,,,37,0
194400,control_change,440,0,5,,,,,,,64,0,5,,,,
194400,note_on,0,0,1,,,,,,,,,1,,,61,33
194400,note_on,0,0,2,,,,,,,,,2,,,68,33
194400,control_change,440,0,2,,,,,,,64,0,2,,,,
194400,note_off,0,0,4,,,,,,,,,4,,,54,0
194400,note_on,0,0,2,,,,,,,,,2,,,64,33
194400,note_off,0,0,2,,,,,,,,,2,,,66,0
194400,control_change,440,0,3,,,,,,,64,0,3,,,,
194400,note_off,0,0,2,,,,,,,,,2,,,72,0
194400,note_off,0,0,4,,,,,,,,,4,,,60,0
194400,control_change,240,0,4,,,,,,,64,0,4,,,,
194440,control_change,40,0,5,,,,,,,64,127,5,,,,
194440,control_change,40,0,1,,,,,,,64,127,1,,,,
194440,control_change,40,0,4,,,,,,,64,127,4,,,,
194440,control_change,40,0,2,,,,,,,64,127,2,,,,
194440,control_change,40,0,3,,,,,,,64,127,3,,,,
194640,note_on,0,0,4,,,,,,,,,4,,,44,30
194640,note_on,0,0,4,,,,,,,,,4,,,56,30
194640,note_on,200,0,4,,,,,,,,,4,,,52,30
194640,set_tempo,350,1,0,,,,,,1764705,,,,,,,
194880,note_off,240,0,4,,,,,,,,,4,,,44,0
194880,note_on,0,0,4,,,,,,,,,4,,,49,26
195120,note_off,0,0,4,,,,,,,,,4,,,52,0
195120,note_off,680,0,2,,,,,,,,,2,,,68,0
195120,note_off,0,0,2,,,,,,,,,2,,,64,0
195120,note_off,680,0,1,,,,,,,,,1,,,73,0
195120,note_off,0,0,1,,,,,,,,,1,,,61,0
195120,note_off,240,0,4,,,,,,,,,4,,,49,0
195120,note_off,0,0,4,,,,,,,,,4,,,56,0
195360,note_off,920,0,5,,,,,,,,,5,,,37,0
196080,control_change,960,0,2,,,,,,,64,0,2,,,,
196080,set_tempo,1440,1,0,,,,,,1034482,,,,,,,
196080,control_change,1640,0,3,,,,,,,64,0,3,,,,
196080,control_change,960,0,4,,,,,,,64,0,4,,,,
196080,control_change,720,0,5,,,,,,,64,0,5,,,,
196080,control_change,960,0,1,,,,,,,64,0,1,,,,
196120,control_change,40,0,5,,,,,,,64,127,5,,,,
196120,control_change,40,0,2,,,,,,,64,127,2,,,,
196120,control_change,40,0,3,,,,,,,64,127,3,,,,
196120,control_change,40,0,4,,,,,,,64,127,4,,,,
196120,control_change,40,0,1,,,,,,,64,127,1,,,,
196200,note_on,0,0,1,,,,,,,,,1,,,64,41
196200,note_on,80,0,1,,,,,,,,,1,,,52,41
196320,note_on,200,0,4,,,,,,,,,4,,,61,41
196320,note_off,120,0,1,,,,,,,,,1,,,52,0
196320,note_on,200,0,5,,,,,,,,,5,,,33,41
196440,note_on,0,0,4,,,,,,,,,4,,,52,42
196440,note_off,120,0,4,,,,,,,,,4,,,61,0
196560,note_on,0,0,4,,,,,,,,,4,,,61,43
196560,note_off,120,0,4,,,,,,,,,4,,,52,0
196680,note_off,0,0,4,,,,,,,,,4,,,61,0
196680,control_change,120,0,4,,,,,,,64,0,4,,,,
196680,control_change,560,0,3,,,,,,,64,0,3,,,,
196680,note_off,0,0,1,,,,,,,,,1,,,64,0
196680,note_on,0,0,1,,,,,,,,,1,,,77,43
196680,note_on,0,0,1,,,,,,,,,1,,,65,43
196680,control_change,360,0,5,,,,,,,64,0,5,,,,
196680,control_change,560,0,2,,,,,,,64,0,2,,,,
196680,control_change,360,0,1,,,,,,,64,0,1,,,,
196720,control_change,40,0,3,,,,,,,64,127,3,,,,
196720,control_change,40,0,5,,,,,,,64,127,5,,,,
196720,control_change,40,0,2,,,,,,,64,127,2,,,,
196720,control_change,40,0,1,,,,,,,64,127,1,,,,
196720,control_change,40,0,4,,,,,,,64,127,4,,,,
196800,note_on,80,0,4,,,,,,,,,4,,,62,44
196920,note_on,0,0,4,,,,,,,,,4,,,59,45
196920,note_off,120,0,4,,,,,,,,,4,,,62,0
197040,note_off,120,0,4,,,,,,,,,4,,,59,0
197040,note_on,0,0,4,,,,,,,,,4,,,52,45
197155,note_off,435,0,1,,,,,,,,,1,,,77,0
197155,note_off,0,0,1,,,,,,,,,1,,,65,0
197160,note_on,0,0,1,,,,,,,,,1,,,64,46
197160,control_change,5,0,1,,,,,,,64,0,1,,,,
197160,control_change,440,0,2,,,,,,,64,0,2,,,,
197160,note_on,0,0,1,,,,,,,,,1,,,76,46
197160,control_change,440,0,3,,,,,,,64,0,3,,,,
197160,note_off,0,0,4,,,,,,,,,4,,,52,0
197160,control_change,440,0,5,,,,,,,64,0,5,,,,
197160,control_change,120,0,4,,,,,,,64,0,4,,,,
197200,control_change,40,0,2,,,,,,,64,127,2,,,,
197200,control_change,40,0,5,,,,,,,64,127,5,,,,
197200,control_change,40,0,3,,,,,,,64,127,3,,,,
197200,control_change,40,0,1,,,,,,,64,127,1,,,,
197200,control_change,40,0,4,,,,,,,64,127,4,,,,
197280,note_on,0,0,5,,,,,,,,,5,,,45,47
197280,note_off,80,0,5,,,,,,,,,5,,,33,0
197280,note_on,80,0,4,,,,,,,,,4,,,73,47
197400,note_on,0,0,4,,,,,,,,,4,,,64,47
197400,note_off,120,0,4,,,,,,,,,4,,,73,0
197520,note_off,120,0,4,,,,,,,,,4,,,64,0
197520,note_on,0,0,4,,,,,,,,,4,,,73,48
197640,note_off,0,0,1,,,,,,,,,1,,,76,0
197640,control_change,440,0,1,,,,,,,64,0,1,,,,
197640,control_change,360,0,5,,,,,,,64,0,5,,,,
197640,note_off,0,0,1,,,,,,,,,1,,,64,0
197640,control_change,120,0,4,,,,,,,64,0,4,,,,
197640,control_change,440,0,3,,,,,,,64,0,3,,,,
197640,note_on,0,0,1,,,,,,,,,1,,,83,49
197640,note_on,0,0,1,,,,,,,,,1,,,95,49
197640,note_on,0,0,4,,,,,,,,,4,,,77,49
197640,note_off,0,0,4,,,,,,,,,4,,,73,0
197640,control_change,440,0,2,,,,,,,64,0,2,,,,
197680,control_change,40,0,5,,,,,,,64,127,5,,,,
197680,control_change,40,0,3,,,,,,,64,127,3,,,,
197680,control_change,40,0,4,,,,,,,64,127,4,,,,
197680,control_change,40,0,1,,,,,,,64,127,1,,,,
197680,control_change,40,0,2,,,,,,,64,127,2,,,,
197760,note_on,0,0,4,,,,,,,,,4,,,74,49
197760,note_off,80,0,4,,,,,,,,,4,,,77,0
197880,note_on,0,0,4,,,,,,,,,4,,,64,50
197880,note_off,120,0,4,,,,,,,,,4,,,74,0
198000,note_off,120,0,4,,,,,,,,,4,,,64,0
198000,note_on,0,0,4,,,,,,,,,4,,,74,51
198115,note_off,435,0,1,,,,,,,,,1,,,83,0
198120,control_change,440,0,5,,,,,,,64,0,5,,,,
198120,note_off,0,0,1,,,,,,,,,1,,,95,0
198120,control_change,5,0,1,,,,,,,64,0,1,,,,
198120,control_change,440,0,2,,,,,,,64,0,2,,,,
198120,control_change,440,0,3,,,,,,,64,0,3,,,,
198120,note_on,0,0,1,,,,,,,,,1,,,80,51
198120,control_change,120,0,4,,,,,,,64,0,4,,,,
198120,note_off,0,0,4,,,,,,,,,4,,,74,0
198120,note_on,0,0,1,,,,,,,,,1,,,68,51
198160,control_change,40,0,3,,,,,,,64,127,3,,,,
198160,control_change,40,0,5,,,,,,,64,127,5,,,,
198160,control_change,40,0,1,,,,,,,64,127,1,,,,
198160,control_change,40,0,4,,,,,,,64,127,4,,,,
198160,control_change,40,0,2,,,,,,,64,127,2,,,,
198240,note_on,0,0,5,,,,,,,,,5,,,45,52
198240,note_off,80,0,5,,,,,,,,,5,,,45,0
198240,note_on,80,0,4,,,,,,,,,4,,,76,52
198240,note_off,80,0,1,,,,,,,,,1,,,68,0
198360,note_off,120,0,4,,,,,,,,,4,,,76,0
198360,note_on,0,0,4,,,,,,,,,4,,,68,52
198480,note_off,120,0,4,,,,,,,,,4,,,68,0
198480,note_on,0,0,4,,,,,,,,,4,,,76,53
198600,note_off,0,0,1,,,,,,,,,1,,,80,0
198600,note_on,0,0,1,,,,,,,,,1,,,69,54
198600,note_on,0,0,1,,,,,,,,,1,,,81,54
198600,control_change,360,0,1,,,,,,,64,0,1,,,,
198600,control_change,440,0,3,,,,,,,64,0,3,,,,
198600,control_change,360,0,5,,,,,,,64,0,5,,,,
198600,control_change,440,0,2,,,,,,,64,0,2,,,,
198600,control_change,120,0,4,,,,,,,64,0,4,,,,
198600,note_off,0,0,4,,,,,,,,,4,,,76,0
198600,note_on,0,0,4,,,,,,,,,4,,,66,54
198640,control_change,40,0,5,,,,,,,64,127,5,,,,
198640,control_change,40,0,2,,,,,,,64,127,2,,,,
198640,control_change,40,0,1,,,,,,,64,127,1,,,,
198640,control_change,40,0,3,,,,,,,64,127,3,,,,
198640,control_change,40,0,4,,,,,,,64,127,4,,,,
198720,note_on,0,0,4,,,,,,,,,4,,,62,54
198720,note_off,80,0,4,,,,,,,,,4,,,66,0
198840,note_on,0,0,4,,,,,,,,,4,,,54,55
198840,note_off,120,0,4,,,,,,,,,4,,,62,0
198960,note_off,120,0,4,,,,,,,,,4,,,54,0
198960,note_on,0,0,4,,,,,,,,,4,,,62,56
199075,note_off,435,0,1,,,,,,,,,1,,,69,0
199080,control_change,440,0,2,,,,,,,64,0,2,,,,
199080,control_change,440,0,5,,,,,,,64,0,5,,,,
199080,control_change,120,0,4,,,,,,,64,0,4,,,,
199080,note_off,0,0,4,,,,,,,,,4,,,62,0
199080,control_change,5,0,1,,,,,,,64,0,1,,,,
199080,note_off,0,0,1,,,,,,,,,1,,,81,0
199080,note_on,0,0,1,,,,,,,,,1,,,60,56
199080,control_change,440,0,3,,,,,,,64,0,3,,,,
199080,note_on,0,0,1,,,,,,,,,1,,,72,56
199120,control_change,40,0,3,,,,,,,64,127,3,,,,
199120,control_change,40,0,5,,,,,,,64,127,5,,,,
199120,control_change,40,0,1,,,,,,,64,127,1,,,,
199120,control_change,40,0,4,,,,,,,64,127,4,,,,
199120,control_change,40,0,2,,,,,,,64,127,2,,,,
199200,note_off,80,0,5,,,,,,,,,5,,,45,0
199200,note_on,0,0,5,,,,,,,,,5,,,33,59
199320,note_on,200,0,4,,,,,,,,,4,,,42,58
199320,note_off,120,0,5,,,,,,,,,5,,,33,0
199440,note_off,120,0,4,,,,,,,,,4,,,42,0
199440,note_on,320,0,2,,,,,,,,,2,,,63,57
199440,note_on,0,0,4,,,,,,,,,4,,,45,57
199560,note_on,0,0,4,,,,,,,,,4,,,48,56
199560,note_off,120,0,4,,,,,,,,,4,,,45,0
199680,note_on,0,0,2,,,,,,,,,2,,,66,55
199680,note_on,0,0,4,,,,,,,,,4,,,51,55
199680,note_off,120,0,4,,,,,,,,,4,,,48,0
199680,note_off,240,0,2,,,,,,,,,2,,,63,0
199800,note_on,0,0,4,,,,,,,,,4,,,54,54
199800,note_off,120,0,4,,,,,,,,,4,,,51,0
199920,note_off,240,0,2,,,,,,,,,2,,,66,0
199920,note_off,120,0,4,,,,,,,,,4,,,54,0
199920,note_on,0,0,2,,,,,,,,,2,,,68,53
199920,note_on,0,0,4,,,,,,,,,4,,,59,53
200040,note_off,120,0,4,,,,,,,,,4,,,59,0
200040,note_on,0,0,4,,,,,,,,,4,,,57,52
200160,note_off,120,0,4,,,,,,,,,4,,,57,0
200160,note_on,0,0,4,,,,,,,,,4,,,54,51
200160,note_off,240,0,2,,,,,,,,,2,,,68,0
200160,note_on,0,0,2,,,,,,,,,2,,,71,51
200280,note_on,0,0,4,,,,,,,,,4,,,51,50
200280,note_off,120,0,4,,,,,,,,,4,,,54,0
200400,note_off,120,0,4,,,,,,,,,4,,,51,0
200400,note_on,0,0,2,,,,,,,,,2,,,69,49
200400,note_on,0,0,4,,,,,,,,,4,,,48,49
200400,note_off,240,0,2,,,,,,,,,2,,,71,0
200520,control_change,120,0,4,,,,,,,64,0,4,,,,
200520,control_change,1200,0,5,,,,,,,64,0,5,,,,
200520,control_change,1400,0,1,,,,,,,64,0,1,,,,
200520,control_change,1400,0,3,,,,,,,64,0,3,,,,
200520,note_off,0,0,4,,,,,,,,,4,,,48,0
200520,control_change,120,0,2,,,,,,,64,0,2,,,,
200520,note_on,0,0,4,,,,,,,,,4,,,47,47
200640,note_off,120,0,2,,,,,,,,,2,,,69,0
200640,note_on,0,0,4,,,,,,,,,4,,,45,46
200640,note_off,120,0,4,,,,,,,,,4,,,47,0
200640,note_on,0,0,2,,,,,,,,,2,,,66,46
200760,note_on,0,0,4,,,,,,,,,4,,,48,47
200760,note_off,120,0,4,,,,,,,,,4,,,45,0
200820,set_tempo,4740,1,0,,,,,,1071428,,,,,,,
200875,note_off,355,0,1,,,,,,,,,1,,,60,0
200880,note_on,0,0,4,,,,,,,,,4,,,51,46
200880,set_tempo,60,1,0,,,,,,1132075,,,,,,,
200880,note_off,120,0,4,,,,,,,,,4,,,48,0
200880,note_off,240,0,2,,,,,,,,,2,,,66,0
200880,note_off,5,0,1,,,,,,,,,1,,,72,0
201000,control_change,480,0,3,,,,,,,64,0,3,,,,
201000,set_tempo,120,1,0,,,,,,1034482,,,,,,,
201000,note_on,0,0,1,,,,,,,,,1,,,64,50
201000,control_change,120,0,1,,,,,,,64,0,1,,,,
201000,note_on,0,0,1,,,,,,,,,1,,,52,50
201000,note_off,0,0,4,,,,,,,,,4,,,51,0
201000,control_change,120,0,2,,,,,,,64,0,2,,,,
201000,control_change,480,0,5,,,,,,,64,0,5,,,,
201000,control_change,120,0,4,,,,,,,64,0,4,,,,
201040,control_change,40,0,4,,,,,,,64,127,4,,,,
201040,control_change,40,0,5,,,,,,,64,127,5,,,,
201040,control_change,40,0,2,,,,,,,64,127,2,,,,
201040,control_change,40,0,1,,,,,,,64,127,1,,,,
201040,control_change,40,0,3,,,,,,,64,127,3,,,,
201120,note_on,80,0,4,,,,,,,,,4,,,61,51
201120,note_on,80,0,5,,,,,,,,,5,,,33,51
201120,note_off,80,0,1,,,,,,,,,1,,,52,0
201240,note_on,0,0,4,,,,,,,,,4,,,52,52
201240,note_off,120,0,4,,,,,,,,,4,,,61,0
201360,note_on,0,0,4,,,,,,,,,4,,,61,52
201360,note_off,120,0,4,,,,,,,,,4,,,52,0
201480,note_off,0,0,4,,,,,,,,,4,,,61,0
201480,control_change,120,0,4,,,,,,,64,0,4,,,,
201480,note_on,0,0,4,,,,,,,,,4,,,63,53
201480,control_change,360,0,1,,,,,,,64,0,1,,,,
201480,note_on,0,0,1,,,,,,,,,1,,,65,53
201480,control_change,360,0,5,,,,,,,64,0,5,,,,
201480,control_change,440,0,2,,,,,,,64,0,2,,,,
201480,control_change,440,0,3,,,,,,,64,0,3,,,,
201480,note_on,0,0,1,,,,,,,,,1,,,77,53
201485,note_off,5,0,1,,,,,,,,,1,,,64,0
201520,control_change,40,0,5,,,,,,,64,127,5,,,,
201520,control_change,40,0,3,,,,,,,64,127,3,,,,
201520,control_change,40,0,2,,,,,,,64,127,2,,,,
201520,control_change,35,0,1,,,,,,,64,127,1,,,,
201520,control_change,40,0,4,,,,,,,64,127,4,,,,
201600,note_off,80,0,4,,,,,,,,,4,,,63,0
201600,note_on,0,0,4,,,,,,,,,4,,,59,54
201720,note_off,120,0,4,,,,,,,,,4,,,59,0
201720,note_on,0,0,4,,,,,,,,,4,,,52,54
201840,note_off,120,0,4,,,,,,,,,4,,,52,0
201840,note_on,0,0,4,,,,,,,,,4,,,59,55
201960,control_change,440,0,3,,,,,,,64,0,3,,,,
201960,control_change,440,0,5,,,,,,,64,0,5,,,,
201960,note_off,0,0,4,,,,,,,,,4,,,59,0
201960,note_on,0,0,1,,,,,,,,,1,,,76,56
201960,note_on,0,0,1,,,,,,,,,1,,,64,56
201960,control_change,440,0,2,,,,,,,64,0,2,,,,
201960,control_change,120,0,4,,,,,,,64,0,4,,,,
201960,note_off,0,0,1,,,,,,,,,1,,,65,0
201960,control_change,440,0,1,,,,,,,64,0,1,,,,
201960,note_off,0,0,1,,,,,,,,,1,,,77,0
202000,control_change,40,0,1,,,,,,,64,127,1,,,,
202000,control_change,40,0,5,,,,,,,64,127,5,,,,
202000,control_change,40,0,4,,,,,,,64,127,4,,,,
202000,control_change,40,0,3,,,,,,,64,127,3,,,,
202000,control_change,40,0,2,,,,,,,64,127,2,,,,
202080,note_off,80,0,1,,,,,,,,,1,,,64,0
202080,note_on,0,0,5,,,,,,,,,5,,,45,56
202080,note_on,80,0,4,,,,,,,,,4,,,73,56
202080,note_off,80,0,5,,,,,,,,,5,,,33,0
202200,note_off,120,0,4,,,,,,,,,4,,,73,0
202200,note_on,0,0,4,,,,,,,,,4,,,64,57
202320,note_off,120,0,4,,,,,,,,,4,,,64,0
202320,note_on,0,0,4,,,,,,,,,4,,,73,58
202435,note_off,355,0,1,,,,,,,,,1,,,76,0
202440,note_on,0,0,1,,,,,,,,,1,,,85,58
202440,control_change,440,0,2,,,,,,,64,0,2,,,,
202440,note_on,0,0,1,,,,,,,,,1,,,97,58
202440,control_change,440,0,3,,,,,,,64,0,3,,,,
202440,control_change,5,0,1,,,,,,,64,0,1,,,,
202440,control_change,360,0,5,,,,,,,64,0,5,,,,
202440,note_on,0,0,4,,,,,,,,,4,,,75,58
202440,control_change,120,0,4,,,,,,,64,0,4,,,,
202440,note_off,0,0,4,,,,,,,,,4,,,73,0
202480,control_change,40,0,2,,,,,,,64,127,2,,,,
202480,control_change,40,0,3,,,,,,,64,127,3,,,,
202480,control_change,40,0,4,,,,,,,64,127,4,,,,
202480,control_change,40,0,1,,,,,,,64,127,1,,,,
202480,control_change,40,0,5,,,,,,,64,127,5,,,,
202560,note_on,0,0,4,,,,,,,,,4,,,66,59
202560,note_off,80,0,4,,,,,,,,,4,,,75,0
202680,note_off,120,0,4,,,,,,,,,4,,,66,0
202680,note_on,0,0,4,,,,,,,,,4,,,63,60
202800,note_on,0,0,4,,,,,,,,,4,,,66,60
202800,note_off,120,0,4,,,,,,,,,4,,,63,0
202920,control_change,440,0,2,,,,,,,64,0,2,,,,
202920,control_change,440,0,5,,,,,,,64,0,5,,,,
202920,note_off,0,0,4,,,,,,,,,4,,,66,0
202920,note_on,0,0,1,,,,,,,,,1,,,78,61
202920,note_on,0,0,1,,,,,,,,,1,,,66,61
202920,note_off,0,0,1,,,,,,,,,1,,,97,0
202920,note_off,0,0,1,,,,,,,,,1,,,85,0
202920,control_change,440,0,1,,,,,,,64,0,1,,,,
202920,control_change,120,0,4,,,,,,,64,0,4,,,,
202920,control_change,440,0,3,,,,,,,64,0,3,,,,
202960,control_change,40,0,2,,,,,,,64,127,2,,,,
202960,control_change,40,0,5,,,,,,,64,127,5,,,,
202960,control_change,40,0,1,,,,,,,64,127,1,,,,
202960,control_change,40,0,3,,,,,,,64,127,3,,,,
202960,control_change,40,0,4,,,,,,,64,127,4,,,,
203040,note_off,80,0,5,,,,,,,,,5,,,45,0
203040,note_on,0,0,5,,,,,,,,,5,,,44,62
203040,note_off,80,0,1,,,,,,,,,1,,,66,0
203040,note_on,80,0,4,,,,,,,,,4,,,75,62
203160,note_on,0,0,4,,,,,,,,,4,,,66,63
203160,note_off,120,0,4,,,,,,,,,4,,,75,0
203280,note_on,0,0,4,,,,,,,,,4,,,75,63
203280,note_off,120,0,4,,,,,,,,,4,,,66,0
203400,control_change,440,0,2,,,,,,,64,0,2,,,,
203400,note_on,0,0,4,,,,,,,,,4,,,64,64
203400,note_off,0,0,4,,,,,,,,,4,,,75,0
203400,control_change,120,0,4,,,,,,,64,0,4,,,,
203400,control_change,360,0,5,,,,,,,64,0,5,,,,
203400,control_change,360,0,1,,,,,,,64,0,1,,,,
203400,note_off,0,0,1,,,,,,,,,1,,,78,0
203400,note_on,0,0,1,,,,,,,,,1,,,71,64
203400,note_on,0,0,1,,,,,,,,,1,,,83,64
203400,control_change,440,0,3,,,,,,,64,0,3,,,,
203440,control_change,40,0,1,,,,,,,64,127,1,,,,
203440,control_change,40,0,2,,,,,,,64,127,2,,,,
203440,control_change,40,0,5,,,,,,,64,127,5,,,,
203440,control_change,40,0,4,,,,,,,64,127,4,,,,
203440,control_change,40,0,3,,,,,,,64,127,3,,,,
203520,note_on,0,0,4,,,,,,,,,4,,,56,65
203520,note_off,80,0,4,,,,,,,,,4,,,64,0
203640,note_on,0,0,4,,,,,,,,,4,,,52,65
203640,note_off,120,0,4,,,,,,,,,4,,,56,0
203760,note_on,0,0,4,,,,,,,,,4,,,56,66
203760,note_off,120,0,4,,,,,,,,,4,,,52,0
203870,note_off,430,0,1,,,,,,,,,1,,,71,0
203880,note_on,0,0,1,,,,,,,,,1,,,71,67
203880,note_off,0,0,4,,,,,,,,,4,,,56,0
203880,control_change,120,0,4,,,,,,,64,0,4,,,,
203880,control_change,440,0,5,,,,,,,64,0,5,,,,
203880,control_change,440,0,2,,,,,,,64,0,2,,,,
203880,control_change,440,0,3,,,,,,,64,0,3,,,,
203880,control_change,10,0,1,,,,,,,64,0,1,,,,
203880,note_off,0,0,1,,,,,,,,,1,,,83,0
203880,note_on,0,0,1,,,,,,,,,1,,,59,67
203920,control_change,40,0,5,,,,,,,64,127,5,,,,
203920,control_change,40,0,2,,,,,,,64,127,2,,,,
203920,control_change,40,0,4,,,,,,,64,127,4,,,,
203920,control_change,40,0,1,,,,,,,64,127,1,,,,
203920,control_change,40,0,3,,,,,,,64,127,3,,,,
204000,note_on,0,0,5,,,,,,,,,5,,,42,67
204000,note_off,80,0,5,,,,,,,,,5,,,44,0
204120,note_on,200,0,4,,,,,,,,,4,,,49,63
204120,note_off,120,0,5,,,,,,,,,5,,,42,0
204240,note_on,0,0,4,,,,,,,,,4,,,61,62
204240,note_off,120,0,4,,,,,,,,,4,,,49,0
204240,note_on,0,0,4,,,,,,,,,4,,,52,62
204360,control_change,440,0,3,,,,,,,64,0,3,,,,
204360,note_on,0,0,5,,,,,,,,,5,,,42,61
204360,control_change,440,0,2,,,,,,,64,0,2,,,,
204360,note_off,0,0,4,,,,,,,,,4,,,61,0
204360,control_change,120,0,4,,,,,,,64,0,4,,,,
204360,control_change,440,0,1,,,,,,,64,0,1,,,,
204360,control_change,240,0,5,,,,,,,64,0,5,,,,
204360,note_off,0,0,4,,,,,,,,,4,,,52,0
204400,control_change,40,0,3,,,,,,,64,127,3,,,,
204400,control_change,40,0,5,,,,,,,64,127,5,,,,
204400,control_change,40,0,4,,,,,,,64,127,4,,,,
204400,control_change,40,0,1,,,,,,,64,127,1,,,,
204400,control_change,40,0,2,,,,,,,64,127,2,,,,
204480,note_on,0,0,1,,,,,,,,,1,,,57,59
204480,note_on,80,0,2,,,,,,,,,2,,,64,59
204480,note_off,80,0,5,,,,,,,,,5,,,42,0
204480,note_on,0,0,1,,,,,,,,,1,,,69,59
204480,note_off,0,0,1,,,,,,,,,1,,,59,0
204480,note_off,80,0,1,,,,,,,,,1,,,71,0
204480,note_on,0,0,5,,,,,,,,,5,,,35,59
204600,note_off,120,0,5,,,,,,,,,5,,,35,0
204600,note_on,200,0,4,,,,,,,,,4,,,47,58
204720,note_on,0,0,4,,,,,,,,,4,,,54,56
204720,note_on,0,0,2,,,,,,,,,2,,,63,56
204720,note_off,240,0,2,,,,,,,,,2,,,64,0
204720,note_off,120,0,4,,,,,,,,,4,,,47,0
204840,note_off,0,0,4,,,,,,,,,4,,,54,0
204840,control_change,120,0,4,,,,,,,64,0,4,,,,
204840,control_change,120,0,2,,,,,,,64,0,2,,,,
204840,control_change,240,0,5,,,,,,,64,0,5,,,,
204840,control_change,440,0,3,,,,,,,64,0,3,,,,
204840,note_on,0,0,4,,,,,,,,,4,,,47,55
204840,control_change,360,0,1,,,,,,,64,0,1,,,,
204880,control_change,40,0,2,,,,,,,64,127,2,,,,
204880,control_change,40,0,4,,,,,,,64,127,4,,,,
204880,control_change,40,0,1,,,,,,,64,127,1,,,,
204880,control_change,40,0,3,,,,,,,64,127,3,,,,
204880,control_change,40,0,5,,,,,,,64,127,5,,,,
204960,control_change,80,0,1,,,,,,,64,0,1,,,,
204960,note_on,0,0,5,,,,,,,,,5,,,28,53
204960,note_on,0,0,1,,,,,,,,,1,,,68,53
204960,note_on,0,0,1,,,,,,,,,1,,,56,53
204960,control_change,80,0,3,,,,,,,64,0,3,,,,
204960,note_off,0,0,1,,,,,,,,,1,,,57,0
204960,note_off,0,0,1,,,,,,,,,1,,,69,0
204960,note_on,0,0,2,,,,,,,,,2,,,66,53
204960,control_change,80,0,2,,,,,,,64,0,2,,,,
204960,note_off,0,0,2,,,,,,,,,2,,,63,0
204960,control_change,80,0,4,,,,,,,64,0,4,,,,
204960,note_off,0,0,4,,,,,,,,,4,,,47,0
204960,control_change,80,0,5,,,,,,,64,0,5,,,,
205000,control_change,40,0,2,,,,,,,64,127,2,,,,
205000,control_change,40,0,5,,,,,,,64,127,5,,,,
205000,control_change,40,0,3,,,,,,,64,127,3,,,,
205000,control_change,40,0,1,,,,,,,64,127,1,,,,
205000,control_change,40,0,4,,,,,,,64,127,4,,,,
205080,note_on,80,0,4,,,,,,,,,4,,,40,52
205200,note_off,120,0,4,,,,,,,,,4,,,40,0
205200,note_on,200,0,2,,,,,,,,,2,,,64,51
205200,note_on,0,0,4,,,,,,,,,4,,,44,51
205205,note_off,5,0,2,,,,,,,,,2,,,66,0
205320,note_on,0,0,4,,,,,,,,,4,,,47,49
205320,note_off,120,0,4,,,,,,,,,4,,,44,0
205440,note_off,235,0,2,,,,,,,,,2,,,64,0
205440,note_on,0,0,2,,,,,,,,,2,,,62,48
205440,note_on,0,0,4,,,,,,,,,4,,,52,48
205440,note_off,120,0,4,,,,,,,,,4,,,47,0
205560,note_on,0,0,4,,,,,,,,,4,,,56,46
205560,note_off,120,0,4,,,,,,,,,4,,,52,0
205680,note_off,680,0,1,,,,,,,,,1,,,68,0
205680,note_on,0,0,4,,,,,,,,,4,,,59,46
205680,note_off,120,0,4,,,,,,,,,4,,,56,0
205690,note_off,10,0,1,,,,,,,,,1,,,56,0
205740,set_tempo,4740,1,0,,,,,,1071428,,,,,,,
205795,note_off,355,0,2,,,,,,,,,2,,,62,0
205800,note_on,0,0,1,,,,,,,,,1,,,61,47
205800,control_change,800,0,5,,,,,,,64,0,5,,,,
205800,control_change,0,0,5,,,,,,,64,0,5,,,,
205800,control_change,120,0,4,,,,,,,64,0,4,,,,
205800,note_on,0,0,1,,,,,,,,,1,,,49,47
205800,control_change,0,0,4,,,,,,,64,0,4,,,,
205800,control_change,110,0,1,,,,,,,64,0,1,,,,
205800,note_off,0,0,4,,,,,,,,,4,,,59,0
205800,control_change,800,0,3,,,,,,,64,0,3,,,,
205800,control_change,0,0,3,,,,,,,64,0,3,,,,
205800,control_change,0,0,2,,,,,,,64,0,2,,,,
205800,control_change,5,0,2,,,,,,,64,0,2,,,,
205800,control_change,0,0,1,,,,,,,64,0,1,,,,
205800,set_tempo,60,1,0,,,,,,1132075,,,,,,,
205840,control_change,40,0,2,,,,,,,64,127,2,,,,
205840,control_change,40,0,5,,,,,,,64,127,5,,,,
205840,control_change,40,0,4,,,,,,,64,127,4,,,,
205840,control_change,40,0,3,,,,,,,64,127,3,,,,
205840,control_change,40,0,1,,,,,,,64,127,1,,,,
205920,note_on,80,0,4,,,,,,,,,4,,,56,48
205920,note_off,80,0,5,,,,,,,,,5,,,28,0
205920,note_on,0,0,5,,,,,,,,,5,,,41,48
205920,set_tempo,120,1,0,,,,,,1034482,,,,,,,
205920,note_off,80,0,1,,,,,,,,,1,,,49,0
206040,note_on,0,0,4,,,,,,,,,4,,,49,48
206040,note_off,120,0,4,,,,,,,,,4,,,56,0
206160,note_on,0,0,4,,,,,,,,,4,,,56,49
206160,note_off,120,0,4,,,,,,,,,4,,,49,0
206280,control_change,360,0,1,,,,,,,64,0,1,,,,
206280,note_on,0,0,1,,,,,,,,,1,,,74,50
206280,control_change,120,0,4,,,,,,,64,0,4,,,,
206280,note_off,0,0,4,,,,,,,,,4,,,56,0
206280,note_on,0,0,4,,,,,,,,,4,,,59,50
206280,control_change,360,0,5,,,,,,,64,0,5,,,,
206280,note_off,0,0,1,,,,,,,,,1,,,61,0
206280,control_change,440,0,2,,,,,,,64,0,2,,,,
206280,control_change,440,0,3,,,,,,,64,0,3,,,,
206280,note_on,0,0,1,,,,,,,,,1,,,62,50
206320,control_change,40,0,4,,,,,,,64,127,4,,,,
206320,control_change,40,0,5,,,,,,,64,127,5,,,,
206320,control_change,40,0,1,,,,,,,64,127,1,,,,
206320,control_change,40,0,2,,,,,,,64,127,2,,,,
206320,control_change,40,0,3,,,,,,,64,127,3,,,,
206400,note_on,0,0,4,,,,,,,,,4,,,56,51
206400,note_off,80,0,4,,,,,,,,,4,,,59,0
206520,note_off,120,0,4,,,,,,,,,4,,,56,0
206520,note_on,0,0,4,,,,,,,,,4,,,49,52
206640,note_off,120,0,4,,,,,,,,,4,,,49,0
206640,note_on,0,0,4,,,,,,,,,4,,,56,53
206760,note_off,0,0,1,,,,,,,,,1,,,74,0
206760,control_change,120,0,4,,,,,,,64,0,4,,,,
206760,note_off,0,0,4,,,,,,,,,4,,,56,0
206760,control_change,440,0,5,,,,,,,64,0,5,,,,
206760,control_change,440,0,2,,,,,,,64,0,2,,,,
206760,control_change,440,0,3,,,,,,,64,0,3,,,,
206760,note_off,0,0,1,,,,,,,,,1,,,62,0
206760,control_change,440,0,1,,,,,,,64,0,1,,,,
206760,note_on,0,0,1,,,,,,,,,1,,,61,54
206760,note_on,0,0,1,,,,,,,,,1,,,73,54
206800,control_change,40,0,4,,,,,,,64,127,4,,,,
206800,control_change,40,0,2,,,,,,,64,127,2,,,,
206800,control_change,40,0,5,,,,,,,64,127,5,,,,
206800,control_change,40,0,3,,,,,,,64,127,3,,,,
206800,control_change,40,0,1,,,,,,,64,127,1,,,,
206880,note_on,0,0,5,,,,,,,,,5,,,40,55
206880,note_off,80,0,5,,,,,,,,,5,,,41,0
206880,note_off,80,0,1,,,,,,,,,1,,,61,0
206880,note_on,80,0,4,,,,,,,,,4,,,67,55
207000,note_on,0,0,4,,,,,,,,,4,,,61,56
207000,note_off,120,0,4,,,,,,,,,4,,,67,0
207120,note_on,0,0,4,,,,,,,,,4,,,67,57
207120,note_off,120,0,4,,,,,,,,,4,,,61,0
207240,note_on,0,0,1,,,,,,,,,1,,,86,57
207240,note_off,0,0,1,,,,,,,,,1,,,73,0
207240,note_off,0,0,4,,,,,,,,,4,,,67,0
207240,control_change,360,0,5,,,,,,,64,0,5,,,,
207240,control_change,120,0,4,,,,,,,64,0,4,,,,
207240,note_on,0,0,4,,,,,,,,,4,,,70,57
207240,note_on,0,0,1,,,,,,,,,1,,,74,57
207240,control_change,360,0,1,,,,,,,64,0,1,,,,
207240,control_change,440,0,2,,,,,,,64,0,2,,,,
207240,control_change,440,0,3,,,,,,,64,0,3,,,,
207280,control_change,40,0,5,,,,,,,64,127,5,,,,
207280,control_change,40,0,2,,,,,,,64,127,2,,,,
207280,control_change,40,0,1,,,,,,,64,127,1,,,,
207280,control_change,40,0,3,,,,,,,64,127,3,,,,
207280,control_change,40,0,4,,,,,,,64,127,4,,,,
207360,note_on,0,0,4,,,,,,,,,4,,,67,58
207360,note_off,80,0,4,,,,,,,,,4,,,70,0
207480,note_on,0,0,4,,,,,,,,,4,,,58,59
207480,note_off,120,0,4,,,,,,,,,4,,,67,0
207600,note_off,120,0,4,,,,,,,,,4,,,58,0
207600,note_on,0,0,4,,,,,,,,,4,,,67,60
207720,control_change,440,0,3,,,,,,,64,0,3,,,,
207720,control_change,440,0,2,,,,,,,64,0,2,,,,
207720,control_change,120,0,4,,,,,,,64,0,4,,,,
207720,control_change,440,0,1,,,,,,,64,0,1,,,,
207720,note_off,0,0,1,,,,,,,,,1,,,74,0
207720,note_off,0,0,1,,,,,,,,,1,,,86,0
207720,note_on,0,0,1,,,,,,,,,1,,,73,61
207720,control_change,440,0,5,,,,,,,64,0,5,,,,
207720,note_off,0,0,4,,,,,,,,,4,,,67,0
207720,note_on,0,0,1,,,,,,,,,1,,,61,61
207760,control_change,40,0,4,,,,,,,64,127,4,,,,
207760,control_change,40,0,2,,,,,,,64,127,2,,,,
207760,control_change,40,0,5,,,,,,,64,127,5,,,,
207760,control_change,40,0,3,,,,,,,64,127,3,,,,
207760,control_change,40,0,1,,,,,,,64,127,1,,,,
207840,note_off,80,0,1,,,,,,,,,1,,,61,0
207840,note_on,0,0,5,,,,,,,,,5,,,39,62
207840,note_off,80,0,5,,,,,,,,,5,,,40,0
207840,note_on,80,0,4,,,,,,,,,4,,,67,62
207960,note_off,120,0,4,,,,,,,,,4,,,67,0
207960,note_on,0,0,4,,,,,,,,,4,,,61,63
208080,note_off,120,0,4,,,,,,,,,4,,,61,0
208080,note_on,0,0,4,,,,,,,,,4,,,67,64
208195,note_off,355,0,1,,,,,,,,,1,,,73,0
208200,control_change,120,0,4,,,,,,,64,0,4,,,,
208200,note_on,0,0,4,,,,,,,,,4,,,64,65
208200,note_on,0,0,1,,,,,,,,,1,,,70,65
208200,control_change,440,0,3,,,,,,,64,0,3,,,,
208200,control_change,5,0,1,,,,,,,64,0,1,,,,
208200,control_change,360,0,5,,,,,,,64,0,5,,,,
208200,control_change,440,0,2,,,,,,,64,0,2,,,,
208200,note_off,0,0,4,,,,,,,,,4,,,67,0
208200,note_on,0,0,1,,,,,,,,,1,,,58,65
208240,control_change,40,0,3,,,,,,,64,127,3,,,,
208240,control_change,40,0,2,,,,,,,64,127,2,,,,
208240,control_change,40,0,1,,,,,,,64,127,1,,,,
208240,control_change,40,0,4,,,,,,,64,127,4,,,,
208240,control_change,40,0,5,,,,,,,64,127,5,,,,
208320,note_off,80,0,4,,,,,,,,,4,,,64,0
208320,note_on,0,0,4,,,,,,,,,4,,,55,66
208440,note_off,120,0,4,,,,,,,,,4,,,55,0
208440,note_on,0,0,4,,,,,,,,,4,,,51,66
208560,note_off,120,0,4,,,,,,,,,4,,,51,0
208560,note_on,0,0,4,,,,,,,,,4,,,55,67
208680,control_change,440,0,3,,,,,,,64,0,3,,,,
208680,control_change,440,0,1,,,,,,,64,0,1,,,,
208680,note_off,0,0,1,,,,,,,,,1,,,58,0
208680,note_off,0,0,1,,,,,,,,,1,,,70,0
208680,control_change,440,0,5,,,,,,,64,0,5,,,,
208680,note_off,0,0,4,,,,,,,,,4,,,55,0
208680,control_change,440,0,2,,,,,,,64,0,2,,,,
208680,control_change,120,0,4,,,,,,,64,0,4,,,,
208680,note_on,0,0,2,,,,,,,,,2,,,62,68
208720,control_change,40,0,5,,,,,,,64,127,5,,,,
208720,control_change,40,0,3,,,,,,,64,127,3,,,,
208720,control_change,40,0,2,,,,,,,64,127,2,,,,
208720,control_change,40,0,1,,,,,,,64,127,1,,,,
208720,control_change,40,0,4,,,,,,,64,127,4,,,,
208800,control_change,80,0,3,,,,,,,64,0,3,,,,
208800,control_change,80,0,2,,,,,,,64,0,2,,,,
208800,control_change,80,0,1,,,,,,,64,0,1,,,,
208800,note_on,0,0,1,,,,,,,,,1,,,71,73
208800,control_change,80,0,4,,,,,,,64,0,4,,,,
208800,note_on,0,0,5,,,,,,,,,5,,,26,73
208800,note_off,0,0,5,,,,,,,,,5,,,39,0
208800,control_change,80,0,5,,,,,,,64,0,5,,,,
208920,note_off,120,0,5,,,,,,,,,5,,,26,0
208920,note_on,120,0,2,,,,,,,,,2,,,61,72
208920,note_on,120,0,4,,,,,,,,,4,,,38,72
208925,note_off,5,0,2,,,,,,,,,2,,,62,0
209040,note_off,0,0,1,,,,,,,,,1,,,71,0
209040,control_change,120,0,5,,,,,,,64,0,5,,,,
209040,control_change,115,0,2,,,,,,,64,0,2,,,,
209040,note_off,0,0,4,,,,,,,,,4,,,38,0
209040,control_change,120,0,4,,,,,,,64,0,4,,,,
209040,control_change,240,0,3,,,,,,,64,0,3,,,,
209040,note_on,0,0,1,,,,,,,,,1,,,69,71
209040,control_change,240,0,1,,,,,,,64,0,1,,,,
209080,control_change,40,0,5,,,,,,,64,127,5,,,,
209080,control_change,40,0,2,,,,,,,64,127,2,,,,
209080,control_change,40,0,1,,,,,,,64,127,1,,,,
209080,control_change,40,0,3,,,,,,,64,127,3,,,,
209080,control_change,40,0,4,,,,,,,64,127,4,,,,
209160,note_off,80,0,2,,,,,,,,,2,,,61,0
209160,note_on,0,0,2,,,,,,,,,2,,,59,70
209280,note_on,0,0,1,,,,,,,,,1,,,67,69
209280,control_change,200,0,3,,,,,,,64,0,3,,,,
209280,control_change,200,0,5,,,,,,,64,0,5,,,,
209280,note_on,0,0,5,,,,,,,,,5,,,38,69
209280,control_change,200,0,1,,,,,,,64,0,1,,,,
209280,note_off,0,0,1,,,,,,,,,1,,,69,0
209280,control_change,200,0,4,,,,,,,64,0,4,,,,
209280,control_change,120,0,2,,,,,,,64,0,2,,,,
209395,note_off,115,0,2,,,,,,,,,2,,,59,0
209400,note_on,5,0,2,,,,,,,,,2,,,56,68
209400,note_off,120,0,5,,,,,,,,,5,,,38,0
209400,note_on,120,0,4,,,,,,,,,4,,,50,68
209520,control_change,120,0,5,,,,,,,64,0,5,,,,
209520,note_on,0,0,1,,,,,,,,,1,,,65,67
209520,note_off,0,0,1,,,,,,,,,1,,,67,0
209520,note_off,0,0,4,,,,,,,,,4,,,50,0
209520,control_change,120,0,4,,,,,,,64,0,4,,,,
209520,control_change,120,0,2,,,,,,,64,0,2,,,,
209520,control_change,240,0,1,,,,,,,64,0,1,,,,
209520,control_change,240,0,3,,,,,,,64,0,3,,,,
209560,control_change,40,0,1,,,,,,,64,127,1,,,,
209560,control_change,40,0,5,,,,,,,64,127,5,,,,
209560,control_change,40,0,4,,,,,,,64,127,4,,,,
209560,control_change,40,0,2,,,,,,,64,127,2,,,,
209560,control_change,40,0,3,,,,,,,64,127,3,,,,
209640,note_on,80,0,2,,,,,,,,,2,,,57,66
209645,note_off,5,0,2,,,,,,,,,2,,,56,0
209760,control_change,200,0,1,,,,,,,64,0,1,,,,
209760,note_on,0,0,1,,,,,,,,,1,,,66,66
209760,control_change,200,0,4,,,,,,,64,0,4,,,,
209760,note_on,0,0,5,,,,,,,,,5,,,33,66
209760,control_change,200,0,3,,,,,,,64,0,3,,,,
209760,control_change,115,0,2,,,,,,,64,0,2,,,,
209760,control_change,200,0,5,,,,,,,64,0,5,,,,
209765,note_off,5,0,1,,,,,,,,,1,,,65,0
209880,note_off,120,0,5,,,,,,,,,5,,,33,0
209880,note_on,0,0,2,,,,,,,,,2,,,59,65
209880,note_off,120,0,2,,,,,,,,,2,,,57,0
209880,note_on,120,0,4,,,,,,,,,4,,,45,65
209995,note_off,230,0,1,,,,,,,,,1,,,66,0
210000,control_change,240,0,3,,,,,,,64,0,3,,,,
210000,note_on,0,0,1,,,,,,,,,1,,,68,64
210000,control_change,5,0,1,,,,,,,64,0,1,,,,
210000,note_off,0,0,4,,,,,,,,,4,,,45,0
210000,control_change,120,0,5,,,,,,,64,0,5,,,,
210000,control_change,120,0,2,,,,,,,64,0,2,,,,
210000,control_change,120,0,4,,,,,,,64,0,4,,,,
210040,control_change,40,0,3,,,,,,,64,127,3,,,,
210040,control_change,40,0,4,,,,,,,64,127,4,,,,
210040,control_change,40,0,5,,,,,,,64,127,5,,,,
210040,control_change,40,0,1,,,,,,,64,127,1,,,,
210040,control_change,40,0,2,,,,,,,64,127,2,,,,
210120,note_on,0,0,2,,,,,,,,,2,,,60,63
210120,note_off,80,0,2,,,,,,,,,2,,,59,0
210240,control_change,200,0,4,,,,,,,64,0,4,,,,
210240,note_on,0,0,5,,,,,,,,,5,,,30,62
210240,control_change,200,0,5,,,,,,,64,0,5,,,,
210240,control_change,200,0,1,,,,,,,64,0,1,,,,
210240,note_on,0,0,1,,,,,,,,,1,,,69,62
210240,control_change,200,0,3,,,,,,,64,0,3,,,,
210240,note_off,0,0,1,,,,,,,,,1,,,68,0
210240,control_change,120,0,2,,,,,,,64,0,2,,,,
210245,note_off,5,0,2,,,,,,,,,2,,,60,0
210360,note_off,120,0,5,,,,,,,,,5,,,30,0
210360,note_on,120,0,4,,,,,,,,,4,,,42,61
210360,note_on,115,0,2,,,,,,,,,2,,,51,61
210480,control_change,120,0,2,,,,,,,64,0,2,,,,
210480,control_change,120,0,5,,,,,,,64,0,5,,,,
210480,control_change,240,0,3,,,,,,,64,0,3,,,,
210480,note_off,0,0,4,,,,,,,,,4,,,42,0
210480,control_change,120,0,4,,,,,,,64,0,4,,,,
210480,control_change,240,0,1,,,,,,,64,0,1,,,,
210480,note_off,0,0,1,,,,,,,,,1,,,69,0
210480,note_on,0,0,1,,,,,,,,,1,,,60,60
210520,control_change,40,0,5,,,,,,,64,127,5,,,,
210520,control_change,40,0,3,,,,,,,64,127,3,,,,
210520,control_change,40,0,2,,,,,,,64,127,2,,,,
210520,control_change,40,0,4,,,,,,,64,127,4,,,,
210520,control_change,40,0,1,,,,,,,64,127,1,,,,
210600,note_off,80,0,1,,,,,,,,,1,,,60,0
210600,note_on,0,0,1,,,,,,,,,1,,,61,60
210600,note_on,0,0,1,,,,,,,,,1,,,49,60
210600,note_off,80,0,2,,,,,,,,,2,,,51,0
210720,note_on,0,0,5,,,,,,,,,5,,,29,61
210720,control_change,200,0,3,,,,,,,64,0,3,,,,
210720,note_on,0,0,4,,,,,,,,,4,,,56,61
210720,note_off,0,0,1,,,,,,,,,1,,,49,0
210720,control_change,120,0,1,,,,,,,64,0,1,,,,
210720,note_on,0,0,5,,,,,,,,,5,,,41,61
210720,control_change,120,0,2,,,,,,,64,0,2,,,,
210720,control_change,200,0,5,,,,,,,64,0,5,,,,
210720,control_change,200,0,4,,,,,,,64,0,4,,,,
210760,control_change,40,0,1,,,,,,,64,127,1,,,,
210760,control_change,40,0,4,,,,,,,64,127,4,,,,
210760,control_change,40,0,2,,,,,,,64,127,2,,,,
210760,control_change,40,0,3,,,,,,,64,127,3,,,,
210760,control_change,40,0,5,,,,,,,64,127,5,,,,
210840,note_on,0,0,4,,,,,,,,,4,,,49,61
210840,note_off,0,0,5,,,,,,,,,5,,,41,0
210840,note_off,80,0,4,,,,,,,,,4,,,56,0
210840,note_off,80,0,5,,,,,,,,,5,,,29,0
210960,control_change,200,0,3,,,,,,,64,0,3,,,,
210960,control_change,120,0,4,,,,,,,64,0,4,,,,
210960,note_on,0,0,4,,,,,,,,,4,,,56,62
210960,control_change,200,0,2,,,,,,,64,0,2,,,,
210960,control_change,120,0,5,,,,,,,64,0,5,,,,
210960,note_off,0,0,4,,,,,,,,,4,,,49,0
210960,control_change,200,0,1,,,,,,,64,0,1,,,,
211075,note_off,115,0,1,,,,,,,,,1,,,61,0
211080,note_on,5,0,1,,,,,,,,,1,,,74,63
211080,note_on,0,0,4,,,,,,,,,4,,,59,63
211080,note_off,120,0,4,,,,,,,,,4,,,56,0
211080,note_on,0,0,1,,,,,,,,,1,,,62,63
211200,control_change,240,0,5,,,,,,,64,0,5,,,,
211200,note_on,0,0,4,,,,,,,,,4,,,56,64
211200,control_change,240,0,2,,,,,,,64,0,2,,,,
211200,note_off,0,0,4,,,,,,,,,4,,,59,0
211200,control_change,120,0,1,,,,,,,64,0,1,,,,
211200,control_change,240,0,3,,,,,,,64,0,3,,,,
211200,control_change,120,0,4,,,,,,,64,0,4,,,,
211240,control_change,40,0,1,,,,,,,64,127,1,,,,
211240,control_change,40,0,2,,,,,,,64,127,2,,,,
211240,control_change,40,0,3,,,,,,,64,127,3,,,,
211240,control_change,40,0,5,,,,,,,64,127,5,,,,
211240,control_change,40,0,4,,,,,,,64,127,4,,,,
211320,note_off,80,0,4,,,,,,,,,4,,,56,0
211320,note_on,0,0,4,,,,,,,,,4,,,49,64
211440,note_on,0,0,4,,,,,,,,,4,,,56,65
211440,note_off,120,0,4,,,,,,,,,4,,,49,0
211555,note_off,315,0,1,,,,,,,,,1,,,62,0
211560,control_change,320,0,2,,,,,,,64,0,2,,,,
211560,control_change,0,0,4,,,,,,,64,0,4,,,,
211560,note_off,0,0,4,,,,,,,,,4,,,56,0
211560,control_change,0,0,2,,,,,,,64,0,2,,,,
211560,control_change,120,0,4,,,,,,,64,0,4,,,,
211560,control_change,0,0,1,,,,,,,64,0,1,,,,
211560,control_change,0,0,3,,,,,,,64,0,3,,,,
211560,control_change,5,0,1,,,,,,,64,0,1,,,,
211560,note_off,0,0,1,,,,,,,,,1,,,74,0
211560,note_on,0,0,1,,,,,,,,,1,,,61,66
211560,control_change,320,0,5,,,,,,,64,0,5,,,,
211560,control_change,0,0,5,,,,,,,64,0,5,,,,
211560,control_change,320,0,3,,,,,,,64,0,3,,,,
211560,note_on,0,0,1,,,,,,,,,1,,,73,66
211600,control_change,40,0,1,,,,,,,64,127,1,,,,
211600,control_change,40,0,3,,,,,,,64,127,3,,,,
211600,control_change,40,0,4,,,,,,,64,127,4,,,,
211600,control_change,40,0,2,,,,,,,64,127,2,,,,
211600,control_change,40,0,5,,,,,,,64,127,5,,,,
211680,note_off,80,0,1,,,,,,,,,1,,,61,0
211680,note_on,0,0,5,,,,,,,,,5,,,47,66
211680,note_on,80,0,5,,,,,,,,,5,,,35,66
211680,note_on,80,0,4,,,,,,,,,4,,,68,66
211800,note_off,120,0,5,,,,,,,,,5,,,47,0
211800,note_off,120,0,4,,,,,,,,,4,,,68,0
211800,note_on,0,0,4,,,,,,,,,4,,,61,67
211800,note_off,0,0,5,,,,,,,,,5,,,35,0
211920,note_off,120,0,4,,,,,,,,,4,,,61,0
211920,note_on,0,0,4,,,,,,,,,4,,,68,68
212040,control_change,240,0,5,,,,,,,64,0,5,,,,
212040,control_change,120,0,4,,,,,,,64,0,4,,,,
212040,note_off,0,0,4,,,,,,,,,4,,,68,0
212040,note_on,0,0,4,,,,,,,,,4,,,65,68
212040,control_change,440,0,2,,,,,,,64,0,2,,,,
212040,note_on,0,0,1,,,,,,,,,1,,,86,68
212040,note_on,0,0,1,,,,,,,,,1,,,74,68
212040,note_off,0,0,1,,,,,,,,,1,,,73,0
212040,control_change,360,0,1,,,,,,,64,0,1,,,,
212040,control_change,440,0,3,,,,,,,64,0,3,,,,
212080,control_change,40,0,2,,,,,,,64,127,2,,,,
212080,control_change,40,0,4,,,,,,,64,127,4,,,,
212080,control_change,40,0,1,,,,,,,64,127,1,,,,
212080,control_change,40,0,3,,,,,,,64,127,3,,,,
212080,control_change,40,0,5,,,,,,,64,127,5,,,,
212160,note_on,0,0,4,,,,,,,,,4,,,56,69
212160,note_off,80,0,4,,,,,,,,,4,,,65,0
212280,note_off,120,0,4,,,,,,,,,4,,,56,0
212280,note_on,0,0,4,,,,,,,,,4,,,53,70
212400,note_on,0,0,4,,,,,,,,,4,,,56,70
212400,note_off,120,0,4,,,,,,,,,4,,,53,0
212520,control_change,440,0,5,,,,,,,64,0,5,,,,
212520,control_change,440,0,2,,,,,,,64,0,2,,,,
212520,note_off,0,0,4,,,,,,,,,4,,,56,0
212520,note_on,0,0,1,,,,,,,,,1,,,73,71
212520,note_off,0,0,1,,,,,,,,,1,,,74,0
212520,note_off,0,0,1,,,,,,,,,1,,,86,0
212520,control_change,440,0,1,,,,,,,64,0,1,,,,
212520,control_change,440,0,3,,,,,,,64,0,3,,,,
212520,control_change,120,0,4,,,,,,,64,0,4,,,,
212560,control_change,40,0,1,,,,,,,64,127,1,,,,
212560,control_change,40,0,2,,,,,,,64,127,2,,,,
212560,control_change,40,0,3,,,,,,,64,127,3,,,,
212560,control_change,40,0,4,,,,,,,64,127,4,,,,
212560,control_change,40,0,5,,,,,,,64,127,5,,,,
212640,note_on,80,0,5,,,,,,,,,5,,,34,72
212640,note_on,80,0,2,,,,,,,,,2,,,67,72
212760,note_on,0,0,2,,,,,,,,,2,,,64,72
212760,note_on,200,0,4,,,,,,,,,4,,,46,72
212760,note_off,120,0,2,,,,,,,,,2,,,67,0
212880,note_off,120,0,2,,,,,,,,,2,,,64,0
212880,note_on,0,0,2,,,,,,,,,2,,,67,73
212880,note_off,120,0,4,,,,,,,,,4,,,46,0
212880,note_on,0,0,4,,,,,,,,,4,,,50,73
212880,note_on,0,0,1,,,,,,,,,1,,,74,73
212880,note_off,320,0,1,,,,,,,,,1,,,73,0
213000,control_change,120,0,1,,,,,,,64,0,1,,,,
213000,control_change,120,0,4,,,,,,,64,0,4,,,,
213000,note_off,0,0,4,,,,,,,,,4,,,50,0
213000,note_on,0,0,4,,,,,,,,,4,,,55,74
213000,control_change,440,0,3,,,,,,,64,0,3,,,,
213000,control_change,120,0,2,,,,,,,64,0,2,,,,
213000,control_change,360,0,5,,,,,,,64,0,5,,,,
213000,note_on,0,0,2,,,,,,,,,2,,,62,74
213000,note_off,0,0,2,,,,,,,,,2,,,67,0
213001,note_off,1,0,2,,,,,,,,,2,,,62,0
213040,control_change,40,0,3,,,,,,,64,127,3,,,,
213040,control_change,40,0,5,,,,,,,64,127,5,,,,
213040,control_change,40,0,1,,,,,,,64,127,1,,,,
213040,control_change,39,0,2,,,,,,,64,127,2,,,,
213040,control_change,40,0,4,,,,,,,64,127,4,,,,
213120,note_off,80,0,5,,,,,,,,,5,,,34,0
213120,note_off,80,0,1,,,,,,,,,1,,,74,0
213120,note_off,80,0,4,,,,,,,,,4,,,55,0
213120,note_on,0,0,4,,,,,,,,,4,,,52,75
213120,note_on,0,0,5,,,,,,,,,5,,,46,75
213120,note_on,80,0,2,,,,,,,,,2,,,68,75
213120,note_on,0,0,1,,,,,,,,,1,,,73,75
213240,note_off,120,0,4,,,,,,,,,4,,,52,0
213240,note_on,0,0,4,,,,,,,,,4,,,55,75
213240,note_on,0,0,2,,,,,,,,,2,,,64,75
213240,note_off,120,0,2,,,,,,,,,2,,,68,0
213360,note_off,120,0,2,,,,,,,,,2,,,64,0
213360,note_off,240,0,1,,,,,,,,,1,,,73,0
213360,note_on,0,0,1,,,,,,,,,1,,,74,76
213360,note_on,0,0,4,,,,,,,,,4,,,50,76
213360,note_on,0,0,2,,,,,,,,,2,,,68,76
213360,note_off,120,0,4,,,,,,,,,4,,,55,0
213480,control_change,120,0,4,,,,,,,64,0,4,,,,
213480,note_on,0,0,4,,,,,,,,,4,,,55,77
213480,note_off,0,0,4,,,,,,,,,4,,,50,0
213480,control_change,440,0,3,,,,,,,64,0,3,,,,
213480,control_change,120,0,1,,,,,,,64,0,1,,,,
213480,control_change,360,0,5,,,,,,,64,0,5,,,,
213480,note_on,0,0,2,,,,,,,,,2,,,62,77
213480,note_off,0,0,2,,,,,,,,,2,,,68,0
213480,control_change,120,0,2,,,,,,,64,0,2,,,,
213600,control_change,120,0,5,,,,,,,64,0,5,,,,
213600,note_on,0,0,5,,,,,,,,,5,,,33,79
213600,note_off,0,0,5,,,,,,,,,5,,,46,0
213600,note_off,120,0,1,,,,,,,,,1,,,74,0
213600,note_on,0,0,1,,,,,,,,,1,,,75,79
213600,control_change,120,0,4,,,,,,,64,0,4,,,,
213600,note_off,120,0,2,,,,,,,,,2,,,62,0
213600,note_off,0,0,4,,,,,,,,,4,,,55,0
213640,control_change,40,0,4,,,,,,,64,127,4,,,,
213640,control_change,40,0,5,,,,,,,64,127,5,,,,
213720,note_off,80,0,5,,,,,,,,,5,,,33,0
213720,note_on,120,0,2,,,,,,,,,2,,,66,78
213720,note_on,80,0,4,,,,,,,,,4,,,45,78
213840,note_off,120,0,4,,,,,,,,,4,,,45,0
213840,note_off,240,0,1,,,,,,,,,1,,,75,0
213840,note_on,0,0,1,,,,,,,,,1,,,76,76
213840,note_on,0,0,4,,,,,,,,,4,,,49,76
213960,note_off,120,0,4,,,,,,,,,4,,,49,0
213960,note_on,240,0,2,,,,,,,,,2,,,67,74
213960,note_on,0,0,4,,,,,,,,,4,,,52,74
213965,note_off,5,0,2,,,,,,,,,2,,,66,0
214080,note_on,0,0,1,,,,,,,,,1,,,73,72
214080,note_off,240,0,1,,,,,,,,,1,,,76,0
214080,note_on,0,0,4,,,,,,,,,4,,,45,72
214080,note_off,0,0,4,,,,,,,,,4,,,52,0
214080,control_change,120,0,4,,,,,,,64,0,4,,,,
214120,control_change,40,0,4,,,,,,,64,127,4,,,,
214200,note_on,0,0,4,,,,,,,,,4,,,49,71
214200,note_off,80,0,4,,,,,,,,,4,,,45,0
214200,note_on,0,0,2,,,,,,,,,2,,,64,71
214200,note_off,235,0,2,,,,,,,,,2,,,67,0
214315,note_off,235,0,1,,,,,,,,,1,,,73,0
214320,note_off,120,0,4,,,,,,,,,4,,,49,0
214320,note_on,5,0,1,,,,,,,,,1,,,69,69
214320,note_on,0,0,4,,,,,,,,,4,,,52,69
214440,note_off,240,0,2,,,,,,,,,2,,,64,0
214440,note_on,0,0,4,,,,,,,,,4,,,57,67
214440,note_off,120,0,4,,,,,,,,,4,,,52,0
214440,note_on,0,0,2,,,,,,,,,2,,,61,67
214550,note_off,110,0,2,,,,,,,,,2,,,61,0
214560,note_off,0,0,4,,,,,,,,,4,,,57,0
214560,control_change,840,0,5,,,,,,,64,0,5,,,,
214560,note_on,0,0,5,,,,,,,,,5,,,38,65
214560,note_on,0,0,1,,,,,,,,,1,,,67,65
214560,note_on,0,0,2,,,,,,,,,2,,,57,65
214560,control_change,10,0,2,,,,,,,64,0,2,,,,
214560,control_change,120,0,4,,,,,,,64,0,4,,,,
214560,control_change,240,0,1,,,,,,,64,0,1,,,,
214560,control_change,1080,0,3,,,,,,,64,0,3,,,,
214565,note_off,5,0,1,,,,,,,,,1,,,69,0
214600,control_change,35,0,1,,,,,,,64,127,1,,,,
214600,control_change,40,0,5,,,,,,,64,127,5,,,,
214600,control_change,40,0,2,,,,,,,64,127,2,,,,
214600,control_change,40,0,3,,,,,,,64,127,3,,,,
214600,control_change,40,0,4,,,,,,,64,127,4,,,,
214680,note_on,80,0,4,,,,,,,,,4,,,45,63
214680,note_off,80,0,5,,,,,,,,,5,,,38,0
214800,note_on,0,0,4,,,,,,,,,4,,,50,60
214800,note_off,120,0,4,,,,,,,,,4,,,45,0
214920,control_change,120,0,4,,,,,,,64,0,4,,,,
214920,note_off,0,0,4,,,,,,,,,4,,,50,0
214920,control_change,320,0,1,,,,,,,64,0,1,,,,
214920,control_change,320,0,2,,,,,,,64,0,2,,,,
214920,note_off,0,0,2,,,,,,,,,2,,,57,0
214920,note_on,0,0,4,,,,,,,,,4,,,45,58
214920,note_on,0,0,2,,,,,,,,,2,,,59,58
214920,control_change,320,0,3,,,,,,,64,0,3,,,,
214920,control_change,240,0,5,,,,,,,64,0,5,,,,
215040,note_off,0,0,2,,,,,,,,,2,,,59,0
215040,note_on,0,0,2,,,,,,,,,2,,,60,56
215040,control_change,120,0,1,,,,,,,64,0,1,,,,
215040,note_on,0,0,1,,,,,,,,,1,,,66,56
215040,control_change,120,0,3,,,,,,,64,0,3,,,,
215040,control_change,120,0,5,,,,,,,64,0,5,,,,
215040,note_off,0,0,4,,,,,,,,,4,,,45,0
215040,note_on,0,0,5,,,,,,,,,5,,,39,56
215040,control_change,120,0,2,,,,,,,64,0,2,,,,
215040,control_change,120,0,4,,,,,,,64,0,4,,,,
215045,note_off,5,0,1,,,,,,,,,1,,,67,0
215080,control_change,40,0,4,,,,,,,64,127,4,,,,
215080,control_change,35,0,1,,,,,,,64,127,1,,,,
215080,control_change,40,0,3,,,,,,,64,127,3,,,,
215080,control_change,40,0,2,,,,,,,64,127,2,,,,
215080,control_change,40,0,5,,,,,,,64,127,5,,,,
215160,note_on,80,0,4,,,,,,,,,4,,,45,52
215160,note_off,80,0,5,,,,,,,,,5,,,39,0
215280,note_off,120,0,4,,,,,,,,,4,,,45,0
215280,note_on,0,0,4,,,,,,,,,4,,,51,44
215340,set_tempo,9420,1,0,,,,,,1071428,,,,,,,
215400,control_change,120,0,4,,,,,,,64,0,4,,,,
215400,note_off,0,0,4,,,,,,,,,4,,,51,0
215400,set_tempo,60,1,0,,,,,,1132075,,,,,,,
215400,control_change,320,0,3,,,,,,,64,0,3,,,,
215400,note_off,0,0,2,,,,,,,,,2,,,60,0
215400,control_change,320,0,2,,,,,,,64,0,2,,,,
215400,note_off,0,0,1,,,,,,,,,1,,,66,0
215400,control_change,240,0,5,,,,,,,64,0,5,,,,
215400,note_on,0,0,1,,,,,,,,,1,,,64,44
215400,note_on,0,0,1,,,,,,,,,1,,,52,44
215400,control_change,320,0,1,,,,,,,64,0,1,,,,
215440,control_change,40,0,5,,,,,,,64,127,5,,,,
215440,control_change,40,0,1,,,,,,,64,127,1,,,,
215440,control_change,40,0,2,,,,,,,64,127,2,,,,
215440,control_change,40,0,3,,,,,,,64,127,3,,,,
215440,control_change,40,0,4,,,,,,,64,127,4,,,,
215460,set_tempo,60,1,0,,,,,,1034482,,,,,,,
215520,note_off,80,0,1,,,,,,,,,1,,,52,0
215520,note_on,80,0,4,,,,,,,,,4,,,61,45
215520,set_tempo,60,1,0,,,,,,1034482,,,,,,,
215520,note_on,80,0,5,,,,,,,,,5,,,40,45
215640,note_on,0,0,4,,,,,,,,,4,,,52,45
215640,note_off,120,0,4,,,,,,,,,4,,,61,0
215640,note_off,120,0,5,,,,,,,,,5,,,40,0
215760,note_off,120,0,4,,,,,,,,,4,,,52,0
215760,note_on,0,0,4,,,,,,,,,4,,,61,46
215880,note_on,0,0,1,,,,,,,,,1,,,77,46
215880,note_on,0,0,1,,,,,,,,,1,,,65,46
215880,note_off,0,0,1,,,,,,,,,1,,,64,0
215880,control_change,360,0,1,,,,,,,64,0,1,,,,
215880,control_change,120,0,4,,,,,,,64,0,4,,,,
215880,control_change,440,0,2,,,,,,,64,0,2,,,,
215880,note_on,0,0,4,,,,,,,,,4,,,62,46
215880,control_change,440,0,3,,,,,,,64,0,3,,,,
215880,note_off,0,0,4,,,,,,,,,4,,,61,0
215880,control_change,240,0,5,,,,,,,64,0,5,,,,
215920,control_change,40,0,4,,,,,,,64,127,4,,,,
215920,control_change,40,0,2,,,,,,,64,127,2,,,,
215920,control_change,40,0,1,,,,,,,64,127,1,,,,
215920,control_change,40,0,3,,,,,,,64,127,3,,,,
215920,control_change,40,0,5,,,,,,,64,127,5,,,,
216000,note_on,0,0,4,,,,,,,,,4,,,59,47
216000,note_off,80,0,4,,,,,,,,,4,,,62,0
216120,note_off,120,0,4,,,,,,,,,4,,,59,0
216120,note_on,0,0,4,,,,,,,,,4,,,52,47
216240,note_off,120,0,4,,,,,,,,,4,,,52,0
216240,note_on,0,0,4,,,,,,,,,4,,,59,48
216360,note_on,0,0,1,,,,,,,,,1,,,76,48
216360,control_change,440,0,5,,,,,,,64,0,5,,,,
216360,control_change,440,0,2,,,,,,,64,0,2,,,,
216360,control_change,120,0,4,,,,,,,64,0,4,,,,
216360,note_off,0,0,4,,,,,,,,,4,,,59,0
216360,note_on,0,0,1,,,,,,,,,1,,,64,48
216360,control_change,440,0,1,,,,,,,64,0,1,,,,
216360,note_off,0,0,1,,,,,,,,,1,,,65,0
216360,control_change,440,0,3,,,,,,,64,0,3,,,,
216365,note_off,5,0,1,,,,,,,,,1,,,77,0
216400,control_change,40,0,3,,,,,,,64,127,3,,,,
216400,control_change,40,0,4,,,,,,,64,127,4,,,,
216400,control_change,40,0,2,,,,,,,64,127,2,,,,
216400,control_change,40,0,5,,,,,,,64,127,5,,,,
216400,control_change,35,0,1,,,,,,,64,127,1,,,,
216480,note_on,80,0,4,,,,,,,,,4,,,73,49
216480,note_off,80,0,1,,,,,,,,,1,,,64,0
216480,note_on,80,0,5,,,,,,,,,5,,,40,49
216600,note_off,120,0,4,,,,,,,,,4,,,73,0
216600,note_on,0,0,4,,,,,,,,,4,,,64,49
216600,note_off,120,0,5,,,,,,,,,5,,,40,0
216720,note_off,120,0,4,,,,,,,,,4,,,64,0
216720,note_on,0,0,4,,,,,,,,,4,,,73,50
216840,control_change,440,0,3,,,,,,,64,0,3,,,,
216840,control_change,360,0,1,,,,,,,64,0,1,,,,
216840,control_change,120,0,4,,,,,,,64,0,4,,,,
216840,note_off,0,0,4,,,,,,,,,4,,,73,0
216840,note_on,0,0,4,,,,,,,,,4,,,77,50
216840,control_change,440,0,2,,,,,,,64,0,2,,,,
216840,control_change,240,0,5,,,,,,,64,0,5,,,,
216840,note_on,0,0,1,,,,,,,,,1,,,95,50
216840,note_on,0,0,1,,,,,,,,,1,,,83,50
216845,note_off,5,0,1,,,,,,,,,1,,,76,0
216880,control_change,40,0,5,,,,,,,64,127,5,,,,
216880,control_change,35,0,1,,,,,,,64,127,1,,,,
216880,control_change,40,0,2,,,,,,,64,127,2,,,,
216880,control_change,40,0,4,,,,,,,64,127,4,,,,
216880,control_change,40,0,3,,,,,,,64,127,3,,,,
216960,note_off,80,0,4,,,,,,,,,4,,,77,0
216960,note_on,0,0,4,,,,,,,,,4,,,74,51
217080,note_on,0,0,4,,,,,,,,,4,,,64,51
217080,note_off,120,0,4,,,,,,,,,4,,,74,0
217200,note_on,0,0,4,,,,,,,,,4,,,74,52
217200,note_off,120,0,4,,,,,,,,,4,,,64,0
217315,note_off,435,0,1,,,,,,,,,1,,,95,0
217315,note_off,0,0,1,,,,,,,,,1,,,83,0
217320,note_on,0,0,1,,,,,,,,,1,,,80,53
217320,note_on,0,0,1,,,,,,,,,1,,,68,53
217320,note_off,120,0,4,,,,,,,,,4,,,74,0
217320,control_change,5,0,1,,,,,,,64,0,1,,,,
217360,control_change,40,0,1,,,,,,,64,127,1,,,,
217440,note_off,80,0,1,,,,,,,,,1,,,68,0
217440,note_on,120,0,4,,,,,,,,,4,,,76,55
217440,note_on,560,0,5,,,,,,,,,5,,,33,55
217560,note_off,120,0,5,,,,,,,,,5,,,33,0
217560,note_off,120,0,4,,,,,,,,,4,,,76,0
217560,note_on,0,0,4,,,,,,,,,4,,,68,53
217680,note_off,120,0,4,,,,,,,,,4,,,68,0
217680,note_on,0,0,4,,,,,,,,,4,,,76,51
217795,note_off,355,0,1,,,,,,,,,1,,,80,0
217800,control_change,120,0,4,,,,,,,64,0,4,,,,
217800,control_change,240,0,5,,,,,,,64,0,5,,,,
217800,note_on,0,0,4,,,,,,,,,4,,,66,49
217800,control_change,920,0,3,,,,,,,64,0,3,,,,
217800,control_change,920,0,2,,,,,,,64,0,2,,,,
217800,note_off,0,0,4,,,,,,,,,4,,,76,0
217800,note_on,0,0,1,,,,,,,,,1,,,69,49
217800,control_change,5,0,1,,,,,,,64,0,1,,,,
217800,note_on,0,0,1,,,,,,,,,1,,,81,49
217840,control_change,40,0,2,,,,,,,64,127,2,,,,
217840,control_change,40,0,5,,,,,,,64,127,5,,,,
217840,control_change,40,0,4,,,,,,,64,127,4,,,,
217840,control_change,40,0,3,,,,,,,64,127,3,,,,
217840,control_change,40,0,1,,,,,,,64,127,1,,,,
217920,note_off,80,0,4,,,,,,,,,4,,,66,0
217920,note_on,0,0,4,,,,,,,,,4,,,62,47
218040,note_off,120,0,4,,,,,,,,,4,,,62,0
218040,note_on,0,0,4,,,,,,,,,4,,,54,45
218160,note_off,120,0,4,,,,,,,,,4,,,54,0
218160,note_on,0,0,4,,,,,,,,,4,,,62,43
218280,note_off,440,0,1,,,,,,,,,1,,,69,0
218280,note_on,0,0,1,,,,,,,,,1,,,60,41
218280,note_off,0,0,1,,,,,,,,,1,,,81,0
218280,note_on,0,0,1,,,,,,,,,1,,,72,41
218280,note_off,120,0,4,,,,,,,,,4,,,62,0
218400,control_change,120,0,4,,,,,,,64,0,4,,,,
218400,control_change,560,0,2,,,,,,,64,0,2,,,,
218400,control_change,560,0,5,,,,,,,64,0,5,,,,
218400,note_on,0,0,5,,,,,,,,,5,,,33,38
218400,control_change,560,0,3,,,,,,,64,0,3,,,,
218400,control_change,120,0,1,,,,,,,64,0,1,,,,
218440,control_change,40,0,1,,,,,,,64,127,1,,,,
218440,control_change,40,0,3,,,,,,,64,127,3,,,,
218440,control_change,40,0,5,,,,,,,64,127,5,,,,
218440,control_change,40,0,2,,,,,,,64,127,2,,,,
218440,control_change,40,0,4,,,,,,,64,127,4,,,,
218520,note_off,80,0,5,,,,,,,,,5,,,33,0
218520,note_on,80,0,4,,,,,,,,,4,,,39,38
218640,note_on,200,0,2,,,,,,,,,2,,,63,39
218640,note_on,0,0,4,,,,,,,,,4,,,45,39
218640,note_off,120,0,4,,,,,,,,,4,,,39,0
218760,note_off,120,0,4,,,,,,,,,4,,,45,0
218760,note_on,0,0,4,,,,,,,,,4,,,48,39
218880,note_off,120,0,4,,,,,,,,,4,,,48,0
218880,note_on,0,0,4,,,,,,,,,4,,,51,40
218880,note_off,240,0,2,,,,,,,,,2,,,63,0
218880,note_on,0,0,2,,,,,,,,,2,,,66,40
219000,note_off,120,0,4,,,,,,,,,4,,,51,0
219000,note_on,0,0,4,,,,,,,,,4,,,54,40
219120,note_on,0,0,4,,,,,,,,,4,,,59,40
219120,note_off,240,0,2,,,,,,,,,2,,,66,0
219120,note_on,0,0,2,,,,,,,,,2,,,68,40
219120,note_off,120,0,4,,,,,,,,,4,,,54,0
219240,note_off,120,0,4,,,,,,,,,4,,,59,0
219240,note_on,0,0,4,,,,,,,,,4,,,57,41
219360,note_on,0,0,2,,,,,,,,,2,,,71,41
219360,note_off,120,0,4,,,,,,,,,4,,,57,0
219360,note_off,240,0,2,,,,,,,,,2,,,68,0
219480,note_on,120,0,4,,,,,,,,,4,,,57,42
219600,note_on,0,0,2,,,,,,,,,2,,,69,42
219600,note_off,240,0,2,,,,,,,,,2,,,71,0
219600,note_on,0,0,4,,,,,,,,,4,,,54,42
219600,note_off,120,0,4,,,,,,,,,4,,,57,0
219720,control_change,1280,0,3,,,,,,,64,0,3,,,,
219720,control_change,120,0,4,,,,,,,64,0,4,,,,
219720,note_off,0,0,4,,,,,,,,,4,,,54,0
219720,note_on,0,0,4,,,,,,,,,4,,,51,43
219720,control_change,1200,0,5,,,,,,,64,0,5,,,,
219720,control_change,1280,0,1,,,,,,,64,0,1,,,,
219720,control_change,120,0,2,,,,,,,64,0,2,,,,
219840,note_off,120,0,2,,,,,,,,,2,,,69,0
219840,note_on,0,0,2,,,,,,,,,2,,,66,43
219840,note_on,0,0,4,,,,,,,,,4,,,48,43
219840,note_off,120,0,4,,,,,,,,,4,,,51,0
219960,note_on,0,0,4,,,,,,,,,4,,,57,44
219960,note_off,120,0,4,,,,,,,,,4,,,48,0
220072,note_off,352,0,1,,,,,,,,,1,,,60,0
220080,note_on,0,0,4,,,,,,,,,4,,,63,44
220080,note_off,8,0,1,,,,,,,,,1,,,72,0
220080,note_off,240,0,2,,,,,,,,,2,,,66,0
220080,note_off,120,0,4,,,,,,,,,4,,,57,0
220140,set_tempo,4620,1,0,,,,,,1071428,,,,,,,
220200,note_on,0,0,1,,,,,,,,,1,,,52,44
220200,control_change,120,0,1,,,,,,,64,0,1,,,,
220200,control_change,480,0,5,,,,,,,64,0,5,,,,
220200,set_tempo,60,1,0,,,,,,1132075,,,,,,,
220200,control_change,480,0,3,,,,,,,64,0,3,,,,
220200,control_change,120,0,4,,,,,,,64,0,4,,,,
220200,note_off,0,0,4,,,,,,,,,4,,,63,0
220200,control_change,120,0,2,,,,,,,64,0,2,,,,
220200,note_on,0,0,1,,,,,,,,,1,,,64,44
220240,control_change,40,0,5,,,,,,,64,127,5,,,,
220240,control_change,40,0,1,,,,,,,64,127,1,,,,
220240,control_change,40,0,2,,,,,,,64,127,2,,,,
220240,control_change,40,0,4,,,,,,,64,127,4,,,,
220240,control_change,40,0,3,,,,,,,64,127,3,,,,
220260,set_tempo,60,1,0,,,,,,1034482,,,,,,,
220320,note_on,80,0,5,,,,,,,,,5,,,33,45
220320,set_tempo,60,1,0,,,,,,1034482,,,,,,,
220320,note_off,80,0,1,,,,,,,,,1,,,52,0
220320,note_on,80,0,4,,,,,,,,,4,,,61,45
220440,note_on,0,0,4,,,,,,,,,4,,,52,45
220440,note_off,120,0,4,,,,,,,,,4,,,61,0
220440,note_off,120,0,5,,,,,,,,,5,,,33,0
220560,note_off,120,0,4,,,,,,,,,4,,,52,0
220560,note_on,0,0,4,,,,,,,,,4,,,61,46
220680,note_on,0,0,4,,,,,,,,,4,,,62,46
220680,note_off,0,0,4,,,,,,,,,4,,,61,0
220680,control_change,120,0,4,,,,,,,64,0,4,,,,
220680,control_change,240,0,5,,,,,,,64,0,5,,,,
220680,note_on,0,0,1,,,,,,,,,1,,,65,46
220680,control_change,360,0,1,,,,,,,64,0,1,,,,
220680,control_change,440,0,2,,,,,,,64,0,2,,,,
220680,note_on,0,0,1,,,,,,,,,1,,,77,46
220680,control_change,440,0,3,,,,,,,64,0,3,,,,
220690,note_off,10,0,1,,,,,,,,,1,,,64,0
220720,control_change,40,0,3,,,,,,,64,127,3,,,,
220720,control_change,40,0,2,,,,,,,64,127,2,,,,
220720,control_change,30,0,1,,,,,,,64,127,1,,,,
220720,control_change,40,0,4,,,,,,,64,127,4,,,,
220720,control_change,40,0,5,,,,,,,64,127,5,,,,
220800,note_on,0,0,4,,,,,,,,,4,,,59,47
220800,note_off,80,0,4,,,,,,,,,4,,,62,0
220920,note_off,120,0,4,,,,,,,,,4,,,59,0
220920,note_on,0,0,4,,,,,,,,,4,,,52,47
221040,note_on,0,0,4,,,,,,,,,4,,,59,47
221040,note_off,120,0,4,,,,,,,,,4,,,52,0
221160,control_change,440,0,3,,,,,,,64,0,3,,,,
221160,note_on,0,0,1,,,,,,,,,1,,,76,48
221160,control_change,440,0,2,,,,,,,64,0,2,,,,
221160,note_off,0,0,4,,,,,,,,,4,,,59,0
221160,control_change,440,0,5,,,,,,,64,0,5,,,,
221160,note_on,0,0,1,,,,,,,,,1,,,52,48
221160,note_off,0,0,1,,,,,,,,,1,,,65,0
221160,note_off,0,0,1,,,,,,,,,1,,,77,0
221160,control_change,440,0,1,,,,,,,64,0,1,,,,
221160,control_change,120,0,4,,,,,,,64,0,4,,,,
221200,control_change,40,0,2,,,,,,,64,127,2,,,,
221200,control_change,40,0,4,,,,,,,64,127,4,,,,
221200,control_change,40,0,3,,,,,,,64,127,3,,,,
221200,control_change,40,0,5,,,,,,,64,127,5,,,,
221200,control_change,40,0,1,,,,,,,64,127,1,,,,
221280,note_off,80,0,1,,,,,,,,,1,,,52,0
221280,note_on,80,0,4,,,,,,,,,4,,,73,48
221280,note_on,80,0,5,,,,,,,,,5,,,45,48
221400,note_off,120,0,4,,,,,,,,,4,,,73,0
221400,note_on,0,0,4,,,,,,,,,4,,,64,49
221400,note_off,120,0,5,,,,,,,,,5,,,45,0
221520,note_on,0,0,4,,,,,,,,,4,,,73,49
221520,note_off,120,0,4,,,,,,,,,4,,,64,0
221640,control_change,440,0,3,,,,,,,64,0,3,,,,
221640,control_change,440,0,2,,,,,,,64,0,2,,,,
221640,control_change,120,0,4,,,,,,,64,0,4,,,,
221640,note_on,0,0,1,,,,,,,,,1,,,85,50
221640,control_change,240,0,5,,,,,,,64,0,5,,,,
221640,control_change,360,0,1,,,,,,,64,0,1,,,,
221640,note_on,0,0,1,,,,,,,,,1,,,97,50
221640,note_off,0,0,4,,,,,,,,,4,,,73,0
221640,note_on,0,0,4,,,,,,,,,4,,,79,50
221655,note_off,15,0,1,,,,,,,,,1,,,76,0
221680,control_change,40,0,2,,,,,,,64,127,2,,,,
221680,control_change,40,0,5,,,,,,,64,127,5,,,,
221680,control_change,40,0,4,,,,,,,64,127,4,,,,
221680,control_change,40,0,3,,,,,,,64,127,3,,,,
221680,control_change,25,0,1,,,,,,,64,127,1,,,,
221760,note_off,80,0,4,,,,,,,,,4,,,79,0
221760,note_on,0,0,4,,,,,,,,,4,,,76,50
221880,note_on,0,0,4,,,,,,,,,4,,,67,51
221880,note_off,120,0,4,,,,,,,,,4,,,76,0
222000,note_on,0,0,4,,,,,,,,,4,,,76,51
222000,note_off,120,0,4,,,,,,,,,4,,,67,0
222120,control_change,120,0,4,,,,,,,64,0,4,,,,
222120,control_change,440,0,2,,,,,,,64,0,2,,,,
222120,control_change,440,0,3,,,,,,,64,0,3,,,,
222120,control_change,440,0,1,,,,,,,64,0,1,,,,
222120,control_change,440,0,5,,,,,,,64,0,5,,,,
222120,note_on,0,0,1,,,,,,,,,1,,,70,51
222120,note_off,0,0,4,,,,,,,,,4,,,76,0
222120,note_on,0,0,1,,,,,,,,,1,,,82,51
222125,note_off,0,0,1,,,,,,,,,1,,,85,0
222125,note_off,5,0,1,,,,,,,,,1,,,97,0
222160,control_change,35,0,1,,,,,,,64,127,1,,,,
222160,control_change,40,0,4,,,,,,,64,127,4,,,,
222160,control_change,40,0,3,,,,,,,64,127,3,,,,
222160,control_change,40,0,2,,,,,,,64,127,2,,,,
222160,control_change,40,0,5,,,,,,,64,127,5,,,,
222240,note_on,80,0,5,,,,,,,,,5,,,39,52
222240,note_on,80,0,4,,,,,,,,,4,,,73,52
222240,note_off,80,0,1,,,,,,,,,1,,,70,0
222360,note_off,120,0,4,,,,,,,,,4,,,73,0
222360,note_on,0,0,4,,,,,,,,,4,,,70,52
222360,note_off,120,0,5,,,,,,,,,5,,,39,0
222480,note_off,120,0,4,,,,,,,,,4,,,70,0
222480,note_on,0,0,4,,,,,,,,,4,,,73,53
222600,note_on,0,0,1,,,,,,,,,1,,,71,53
222600,control_change,440,0,3,,,,,,,64,0,3,,,,
222600,control_change,440,0,2,,,,,,,64,0,2,,,,
222600,note_on,0,0,4,,,,,,,,,4,,,74,53
222600,control_change,240,0,5,,,,,,,64,0,5,,,,
222600,note_off,0,0,4,,,,,,,,,4,,,73,0
222600,control_change,120,0,4,,,,,,,64,0,4,,,,
222600,note_on,0,0,1,,,,,,,,,1,,,83,53
222600,control_change,360,0,1,,,,,,,64,0,1,,,,
222605,note_off,5,0,1,,,,,,,,,1,,,82,0
222640,control_change,40,0,4,,,,,,,64,127,4,,,,
222640,control_change,40,0,3,,,,,,,64,127,3,,,,
222640,control_change,35,0,1,,,,,,,64,127,1,,,,
222640,control_change,40,0,5,,,,,,,64,127,5,,,,
222640,control_change,40,0,2,,,,,,,64,127,2,,,,
222720,note_off,80,0,4,,,,,,,,,4,,,74,0
222720,note_on,0,0,4,,,,,,,,,4,,,66,54
222840,note_off,120,0,4,,,,,,,,,4,,,66,0
222840,note_on,0,0,4,,,,,,,,,4,,,62,54
222960,note_off,120,0,4,,,,,,,,,4,,,62,0
222960,note_on,0,0,4,,,,,,,,,4,,,66,55
223080,note_off,120,0,4,,,,,,,,,4,,,66,0
223080,note_off,440,0,1,,,,,,,,,1,,,71,0
223080,note_on,0,0,1,,,,,,,,,1,,,53,55
223080,note_on,0,0,1,,,,,,,,,1,,,65,55
223090,note_off,10,0,1,,,,,,,,,1,,,83,0
223200,control_change,560,0,2,,,,,,,64,0,2,,,,
223200,control_change,110,0,1,,,,,,,64,0,1,,,,
223200,note_on,0,0,5,,,,,,,,,5,,,28,55
223200,control_change,560,0,5,,,,,,,64,0,5,,,,
223200,control_change,120,0,4,,,,,,,64,0,4,,,,
223200,control_change,560,0,3,,,,,,,64,0,3,,,,
223240,control_change,40,0,5,,,,,,,64,127,5,,,,
223240,control_change,40,0,4,,,,,,,64,127,4,,,,
223240,control_change,40,0,1,,,,,,,64,127,1,,,,
223240,control_change,40,0,3,,,,,,,64,127,3,,,,
223240,control_change,40,0,2,,,,,,,64,127,2,,,,
223320,note_on,80,0,4,,,,,,,,,4,,,40,54
223440,note_on,200,0,2,,,,,,,,,2,,,58,52
223440,note_on,0,0,4,,,,,,,,,4,,,44,52
223440,note_off,120,0,4,,,,,,,,,4,,,40,0
223560,note_on,0,0,4,,,,,,,,,4,,,50,50
223560,note_off,120,0,4,,,,,,,,,4,,,44,0
223680,note_on,0,0,1,,,,,,,,,1,,,52,48
223680,control_change,440,0,3,,,,,,,64,0,3,,,,
223680,control_change,120,0,4,,,,,,,64,0,4,,,,
223680,control_change,440,0,1,,,,,,,64,0,1,,,,
223680,note_off,0,0,1,,,,,,,,,1,,,65,0
223680,note_off,0,0,1,,,,,,,,,1,,,53,0
223680,note_on,0,0,4,,,,,,,,,4,,,44,48
223680,note_off,0,0,5,,,,,,,,,5,,,28,0
223680,control_change,440,0,5,,,,,,,64,0,5,,,,
223680,note_on,0,0,1,,,,,,,,,1,,,64,48
223680,control_change,240,0,2,,,,,,,64,0,2,,,,
223680,note_off,0,0,2,,,,,,,,,2,,,58,0
223680,note_on,0,0,2,,,,,,,,,2,,,59,48
223680,note_off,0,0,4,,,,,,,,,4,,,50,0
223720,control_change,40,0,1,,,,,,,64,127,1,,,,
223720,control_change,40,0,2,,,,,,,64,127,2,,,,
223720,control_change,40,0,3,,,,,,,64,127,3,,,,
223720,control_change,40,0,5,,,,,,,64,127,5,,,,
223720,control_change,40,0,4,,,,,,,64,127,4,,,,
223800,note_off,80,0,4,,,,,,,,,4,,,44,0
223800,note_on,0,0,4,,,,,,,,,4,,,40,47
223920,note_on,0,0,4,,,,,,,,,4,,,44,45
223920,note_on,0,0,2,,,,,,,,,2,,,61,45
223920,note_off,200,0,2,,,,,,,,,2,,,59,0
223920,note_off,120,0,4,,,,,,,,,4,,,40,0
224040,note_off,120,0,4,,,,,,,,,4,,,44,0
224040,note_on,0,0,4,,,,,,,,,4,,,50,43
224100,set_tempo,3780,1,0,,,,,,1071428,,,,,,,
224160,note_on,0,0,5,,,,,,,,,5,,,33,41
224160,control_change,440,0,5,,,,,,,64,0,5,,,,
224160,note_on,0,0,1,,,,,,,,,1,,,62,41
224160,note_off,0,0,4,,,,,,,,,4,,,50,0
224160,note_on,0,0,2,,,,,,,,,2,,,59,41
224160,note_off,0,0,2,,,,,,,,,2,,,61,0
224160,control_change,240,0,2,,,,,,,64,0,2,,,,
224160,control_change,440,0,1,,,,,,,64,0,1,,,,
224160,note_off,0,0,1,,,,,,,,,1,,,64,0
224160,control_change,440,0,3,,,,,,,64,0,3,,,,
224160,note_off,0,0,1,,,,,,,,,1,,,52,0
224160,control_change,120,0,4,,,,,,,64,0,4,,,,
224160,note_on,0,0,1,,,,,,,,,1,,,52,41
224200,control_change,40,0,3,,,,,,,64,127,3,,,,
224200,control_change,40,0,4,,,,,,,64,127,4,,,,
224200,control_change,40,0,5,,,,,,,64,127,5,,,,
224200,control_change,40,0,1,,,,,,,64,127,1,,,,
224200,control_change,40,0,2,,,,,,,64,127,2,,,,
224280,note_on,80,0,4,,,,,,,,,4,,,40,38
224400,note_off,120,0,4,,,,,,,,,4,,,40,0
224400,note_on,0,0,4,,,,,,,,,4,,,44,36
224460,set_tempo,360,1,0,,,,,,1111111,,,,,,,
224520,set_tempo,60,1,0,,,,,,1176470,,,,,,,
224520,note_on,0,0,4,,,,,,,,,4,,,45,33
224520,note_off,120,0,4,,,,,,,,,4,,,44,0
224640,note_off,0,0,1,,,,,,,,,1,,,62,0
224640,control_change,440,0,2,,,,,,,64,0,2,,,,
224640,note_on,0,0,1,,,,,,,,,1,,,61,30
224640,note_off,0,0,4,,,,,,,,,4,,,45,0
224640,control_change,120,0,4,,,,,,,64,0,4,,,,
224640,note_on,0,0,2,,,,,,,,,2,,,57,30
224640,control_change,440,0,5,,,,,,,64,0,5,,,,
224640,control_change,440,0,3,,,,,,,64,0,3,,,,
224640,set_tempo,120,1,0,,,,,,1071428,,,,,,,
224640,note_off,0,0,2,,,,,,,,,2,,,59,0
224640,control_change,440,0,1,,,,,,,64,0,1,,,,
224680,control_change,40,0,2,,,,,,,64,127,2,,,,
224680,control_change,40,0,1,,,,,,,64,127,1,,,,
224680,control_change,40,0,5,,,,,,,64,127,5,,,,
224680,control_change,40,0,4,,,,,,,64,127,4,,,,
224680,control_change,40,0,3,,,,,,,64,127,3,,,,
224880,note_off,0,0,1,,,,,,,,,1,,,52,0
224880,note_off,200,0,1,,,,,,,,,1,,,61,0
224880,note_off,200,0,2,,,,,,,,,2,,,57,0
224880,note_off,200,0,5,,,,,,,,,5,,,33,0
225840,control_change,960,0,2,,,,,,,64,0,2,,,,
225840,note_on,0,0,5,,,,,,,,,5,,,32,33
225840,set_tempo,1200,1,0,,,,,,1111111,,,,,,,
225840,note_on,0,0,1,,,,,,,,,1,,,72,33
225840,note_on,0,0,2,,,,,,,,,2,,,78,33
225840,control_change,1160,0,4,,,,,,,64,0,4,,,,
225840,control_change,1160,0,3,,,,,,,64,0,3,,,,
225840,control_change,960,0,5,,,,,,,64,0,5,,,,
225840,control_change,960,0,1,,,,,,,64,0,1,,,,
225880,control_change,40,0,1,,,,,,,64,127,1,,,,
225880,control_change,40,0,5,,,,,,,64,127,5,,,,
225880,control_change,40,0,2,,,,,,,64,127,2,,,,
225880,control_change,40,0,3,,,,,,,64,127,3,,,,
225880,control_change,40,0,4,,,,,,,64,127,4,,,,
225960,note_off,80,0,1,,,,,,,,,1,,,72,0
225960,set_tempo,120,1,0,,,,,,1132075,,,,,,,
225960,note_on,0,0,1,,,,,,,,,1,,,73,34
226080,note_on,0,0,1,,,,,,,,,1,,,69,36
226080,control_change,200,0,5,,,,,,,64,0,5,,,,
226080,note_off,0,0,5,,,,,,,,,5,,,32,0
226080,note_on,0,0,5,,,,,,,,,5,,,44,36
226080,note_off,0,0,1,,,,,,,,,1,,,73,0
226080,control_change,120,0,1,,,,,,,64,0,1,,,,
226080,control_change,200,0,3,,,,,,,64,0,3,,,,
226080,note_on,0,0,4,,,,,,,,,4,,,54,36
226080,control_change,200,0,4,,,,,,,64,0,4,,,,
226080,control_change,200,0,2,,,,,,,64,0,2,,,,
226080,note_off,0,0,2,,,,,,,,,2,,,78,0
226080,note_on,0,0,2,,,,,,,,,2,,,78,36
226080,note_on,0,0,2,,,,,,,,,2,,,75,36
226080,set_tempo,120,1,0,,,,,,1111111,,,,,,,
226080,note_on,0,0,4,,,,,,,,,4,,,51,36
226200,note_off,120,0,1,,,,,,,,,1,,,69,0
226200,note_on,0,0,1,,,,,,,,,1,,,71,37
226320,note_on,0,0,1,,,,,,,,,1,,,66,36
226320,note_off,120,0,1,,,,,,,,,1,,,71,0
226320,note_on,0,0,2,,,,,,,,,2,,,75,36
226320,note_off,0,0,2,,,,,,,,,2,,,78,0
226320,note_off,240,0,2,,,,,,,,,2,,,75,0
226320,note_on,0,0,2,,,,,,,,,2,,,72,36
226440,note_on,0,0,1,,,,,,,,,1,,,68,35
226440,note_off,120,0,1,,,,,,,,,1,,,66,0
226560,note_off,120,0,1,,,,,,,,,1,,,68,0
226560,note_on,0,0,1,,,,,,,,,1,,,63,35
226560,note_on,0,0,2,,,,,,,,,2,,,69,35
226560,note_on,0,0,2,,,,,,,,,2,,,72,35
226560,note_off,240,0,2,,,,,,,,,2,,,72,0
226560,note_off,0,0,2,,,,,,,,,2,,,75,0
226680,note_on,0,0,1,,,,,,,,,1,,,64,34
226680,note_off,120,0,1,,,,,,,,,1,,,63,0
226800,note_on,0,0,5,,,,,,,,,5,,,32,33
226800,note_off,0,0,4,,,,,,,,,4,,,54,0
226800,control_change,720,0,5,,,,,,,64,0,5,,,,
226800,note_off,0,0,2,,,,,,,,,2,,,72,0
226800,note_off,0,0,4,,,,,,,,,4,,,51,0
226800,note_off,0,0,2,,,,,,,,,2,,,69,0
226800,note_off,0,0,5,,,,,,,,,5,,,44,0
226800,note_on,0,0,2,,,,,,,,,2,,,69,33
226800,control_change,720,0,4,,,,,,,64,0,4,,,,
226800,control_change,120,0,1,,,,,,,64,0,1,,,,
226800,note_off,0,0,1,,,,,,,,,1,,,64,0
226800,note_on,0,0,1,,,,,,,,,1,,,60,33
226800,control_change,720,0,3,,,,,,,64,0,3,,,,
226800,note_on,0,0,2,,,,,,,,,2,,,66,33
226800,control_change,240,0,2,,,,,,,64,0,2,,,,
226840,control_change,40,0,2,,,,,,,64,127,2,,,,
226840,control_change,40,0,1,,,,,,,64,127,1,,,,
226840,control_change,40,0,5,,,,,,,64,127,5,,,,
226840,control_change,40,0,4,,,,,,,64,127,4,,,,
226840,control_change,40,0,3,,,,,,,64,127,3,,,,
226920,note_off,80,0,1,,,,,,,,,1,,,60,0
226920,note_on,0,0,1,,,,,,,,,1,,,61,33
227040,control_change,200,0,2,,,,,,,64,0,2,,,,
227040,control_change,200,0,4,,,,,,,64,0,4,,,,
227040,note_on,0,0,4,,,,,,,,,4,,,54,32
227040,note_on,0,0,4,,,,,,,,,4,,,51,32
227040,note_on,0,0,2,,,,,,,,,2,,,66,32
227040,note_on,0,0,2,,,,,,,,,2,,,69,32
227040,note_off,0,0,2,,,,,,,,,2,,,66,0
227040,note_off,0,0,2,,,,,,,,,2,,,69,0
227040,note_on,0,0,5,,,,,,,,,5,,,44,32
227040,note_off,0,0,5,,,,,,,,,5,,,32,0
227040,control_change,200,0,5,,,,,,,64,0,5,,,,
227040,control_change,200,0,3,,,,,,,64,0,3,,,,
227040,control_change,120,0,1,,,,,,,64,0,1,,,,
227040,note_off,0,0,1,,,,,,,,,1,,,61,0
227040,note_on,0,0,1,,,,,,,,,1,,,63,32
227280,note_on,0,0,2,,,,,,,,,2,,,66,31
227280,note_on,0,0,2,,,,,,,,,2,,,68,31
227280,note_off,0,0,2,,,,,,,,,2,,,69,0
227280,note_on,0,0,1,,,,,,,,,1,,,60,31
227280,note_off,240,0,1,,,,,,,,,1,,,63,0
227280,note_off,240,0,2,,,,,,,,,2,,,66,0
227400,note_off,120,0,1,,,,,,,,,1,,,60,0
227400,note_on,0,0,1,,,,,,,,,1,,,61,30
227520,note_on,0,0,2,,,,,,,,,2,,,68,30
227520,note_off,120,0,1,,,,,,,,,1,,,61,0
227520,note_on,0,0,1,,,,,,,,,1,,,63,30
227520,note_off,0,0,2,,,,,,,,,2,,,68,0
227520,note_on,0,0,2,,,,,,,,,2,,,66,30
227520,note_off,240,0,2,,,,,,,,,2,,,66,0
227760,control_change,240,0,2,,,,,,,64,0,2,,,,
227760,note_off,0,0,2,,,,,,,,,2,,,66,0
227760,note_off,0,0,2,,,,,,,,,2,,,68,0
227760,control_change,720,0,3,,,,,,,64,0,3,,,,
227760,note_on,0,0,2,,,,,,,,,2,,,69,31
227760,note_on,0,0,2,,,,,,,,,2,,,66,31
227760,note_off,0,0,4,,,,,,,,,4,,,54,0
227760,control_change,720,0,5,,,,,,,64,0,5,,,,
227760,note_off,0,0,5,,,,,,,,,5,,,44,0
227760,control_change,720,0,4,,,,,,,64,0,4,,,,
227760,note_on,0,0,1,,,,,,,,,1,,,59,31
227760,note_off,0,0,4,,,,,,,,,4,,,51,0
227760,control_change,240,0,1,,,,,,,64,0,1,,,,
227760,note_off,0,0,1,,,,,,,,,1,,,63,0
227760,note_on,0,0,5,,,,,,,,,5,,,38,31
227800,control_change,40,0,4,,,,,,,64,127,4,,,,
227800,control_change,40,0,2,,,,,,,64,127,2,,,,
227800,control_change,40,0,1,,,,,,,64,127,1,,,,
227800,control_change,40,0,3,,,,,,,64,127,3,,,,
227800,control_change,40,0,5,,,,,,,64,127,5,,,,
227880,note_on,0,0,1,,,,,,,,,1,,,61,29
227880,set_tempo,1800,1,0,,,,,,1132075,,,,,,,
227880,note_off,80,0,1,,,,,,,,,1,,,59,0
228000,control_change,120,0,1,,,,,,,64,0,1,,,,
228000,note_off,0,0,1,,,,,,,,,1,,,61,0
228000,control_change,200,0,2,,,,,,,64,0,2,,,,
228000,note_off,0,0,2,,,,,,,,,2,,,66,0
228000,note_off,0,0,2,,,,,,,,,2,,,69,0
228000,note_on,0,0,2,,,,,,,,,2,,,69,28
228000,note_on,0,0,4,,,,,,,,,4,,,50,28
228000,note_on,0,0,1,,,,,,,,,1,,,62,28
228000,control_change,200,0,4,,,,,,,64,0,4,,,,
228000,note_on,0,0,4,,,,,,,,,4,,,54,28
228000,note_on,0,0,2,,,,,,,,,2,,,66,28
228000,note_off,0,0,5,,,,,,,,,5,,,38,0
228000,note_on,0,0,5,,,,,,,,,5,,,47,28
228000,control_change,200,0,3,,,,,,,64,0,3,,,,
228000,control_change,200,0,5,,,,,,,64,0,5,,,,
228240,note_off,0,0,2,,,,,,,,,2,,,69,0
228240,note_off,240,0,1,,,,,,,,,1,,,62,0
228240,note_on,0,0,1,,,,,,,,,1,,,59,25
228240,note_on,0,0,2,,,,,,,,,2,,,66,25
228240,note_on,0,0,2,,,,,,,,,2,,,68,25
228240,note_off,240,0,2,,,,,,,,,2,,,66,0
228300,set_tempo,420,1,0,,,,,,1176470,,,,,,,
228360,note_on,0,0,1,,,,,,,,,1,,,61,23
228360,note_off,120,0,1,,,,,,,,,1,,,59,0
228360,set_tempo,60,1,0,,,,,,1428571,,,,,,,
228480,control_change,480,0,5,,,,,,,64,0,5,,,,
228480,note_on,0,0,2,,,,,,,,,2,,,66,22
228480,note_on,0,0,2,,,,,,,,,2,,,68,22
228480,control_change,480,0,4,,,,,,,64,0,4,,,,
228480,note_off,0,0,2,,,,,,,,,2,,,66,0
228480,control_change,240,0,2,,,,,,,64,0,2,,,,
228480,control_change,480,0,3,,,,,,,64,0,3,,,,
228480,note_off,0,0,2,,,,,,,,,2,,,68,0
228480,set_tempo,120,1,0,,,,,,689655,,,,,,,
228480,note_on,0,0,1,,,,,,,,,1,,,62,22
228480,note_off,0,0,1,,,,,,,,,1,,,61,0
228480,control_change,120,0,1,,,,,,,64,0,1,,,,
228520,control_change,40,0,3,,,,,,,64,127,3,,,,
228520,control_change,40,0,1,,,,,,,64,127,1,,,,
228520,control_change,40,0,2,,,,,,,64,127,2,,,,
228520,control_change,40,0,4,,,,,,,64,127,4,,,,
228520,control_change,40,0,5,,,,,,,64,127,5,,,,
228720,note_off,200,0,4,,,,,,,,,4,,,50,0
228720,note_off,0,0,2,,,,,,,,,2,,,68,0
228720,note_off,200,0,2,,,,,,,,,2,,,66,0
228720,note_off,200,0,1,,,,,,,,,1,,,62,0
228720,note_off,0,0,4,,,,,,,,,4,,,54,0
228720,note_off,200,0,5,,,,,,,,,5,,,47,0
229680,control_change,960,0,2,,,,,,,64,0,2,,,,
229680,note_on,0,0,2,,,,,,,,,2,,,80,43
229680,control_change,960,0,5,,,,,,,64,0,5,,,,
229680,control_change,960,0,4,,,,,,,64,0,4,,,,
229680,control_change,1160,0,3,,,,,,,64,0,3,,,,
229680,note_on,0,0,5,,,,,,,,,5,,,34,43
229680,control_change,960,0,1,,,,,,,64,0,1,,,,
229680,note_on,0,0,1,,,,,,,,,1,,,74,43
229680,set_tempo,1200,1,0,,,,,,1111111,,,,,,,
229720,control_change,40,0,2,,,,,,,64,127,2,,,,
229720,control_change,40,0,4,,,,,,,64,127,4,,,,
229720,control_change,40,0,1,,,,,,,64,127,1,,,,
229720,control_change,40,0,3,,,,,,,64,127,3,,,,
229720,control_change,40,0,5,,,,,,,64,127,5,,,,
229800,note_on,0,0,1,,,,,,,,,1,,,75,45
229800,note_off,80,0,1,,,,,,,,,1,,,74,0
229800,set_tempo,120,1,0,,,,,,1132075,,,,,,,
229920,note_on,0,0,1,,,,,,,,,1,,,71,48
229920,control_change,200,0,5,,,,,,,64,0,5,,,,
229920,set_tempo,120,1,0,,,,,,1111111,,,,,,,
229920,note_off,0,0,5,,,,,,,,,5,,,34,0
229920,note_off,0,0,1,,,,,,,,,1,,,75,0
229920,control_change,120,0,1,,,,,,,64,0,1,,,,
229920,note_on,0,0,5,,,,,,,,,5,,,46,48
229920,control_change,200,0,4,,,,,,,64,0,4,,,,
229920,control_change,200,0,3,,,,,,,64,0,3,,,,
229920,note_on,0,0,4,,,,,,,,,4,,,53,48
229920,note_on,0,0,4,,,,,,,,,4,,,56,48
229920,control_change,200,0,2,,,,,,,64,0,2,,,,
229920,note_off,0,0,2,,,,,,,,,2,,,80,0
229920,note_on,0,0,2,,,,,,,,,2,,,80,48
229920,note_on,0,0,2,,,,,,,,,2,,,77,48
230040,note_off,120,0,1,,,,,,,,,1,,,71,0
230040,note_on,0,0,1,,,,,,,,,1,,,73,46
230160,note_on,0,0,2,,,,,,,,,2,,,77,46
230160,note_off,240,0,2,,,,,,,,,2,,,77,0
230160,note_on,0,0,1,,,,,,,,,1,,,68,46
230160,note_off,120,0,1,,,,,,,,,1,,,73,0
230160,note_off,0,0,2,,,,,,,,,2,,,80,0
230160,note_on,0,0,2,,,,,,,,,2,,,74,46
230280,note_on,0,0,1,,,,,,,,,1,,,70,45
230280,note_off,120,0,1,,,,,,,,,1,,,68,0
230400,note_off,240,0,2,,,,,,,,,2,,,74,0
230400,note_off,120,0,1,,,,,,,,,1,,,70,0
230400,note_on,0,0,1,,,,,,,,,1,,,65,44
230400,note_off,0,0,2,,,,,,,,,2,,,77,0
230400,note_on,0,0,2,,,,,,,,,2,,,71,44
230400,note_on,0,0,2,,,,,,,,,2,,,74,44
230520,note_off,120,0,1,,,,,,,,,1,,,65,0
230520,note_on,0,0,1,,,,,,,,,1,,,66,44
230640,note_on,0,0,2,,,,,,,,,2,,,71,43
230640,note_on,0,0,2,,,,,,,,,2,,,68,43
230640,control_change,720,0,4,,,,,,,64,0,4,,,,
230640,note_on,0,0,5,,,,,,,,,5,,,34,43
230640,note_off,0,0,5,,,,,,,,,5,,,46,0
230640,note_off,0,0,2,,,,,,,,,2,,,71,0
230640,control_change,720,0,3,,,,,,,64,0,3,,,,
230640,note_off,0,0,1,,,,,,,,,1,,,66,0
230640,control_change,720,0,5,,,,,,,64,0,5,,,,
230640,note_off,0,0,4,,,,,,,,,4,,,56,0
230640,control_change,120,0,1,,,,,,,64,0,1,,,,
230640,control_change,240,0,2,,,,,,,64,0,2,,,,
230640,note_off,0,0,2,,,,,,,,,2,,,74,0
230640,note_off,0,0,4,,,,,,,,,4,,,53,0
230640,note_on,0,0,1,,,,,,,,,1,,,62,43
230680,control_change,40,0,3,,,,,,,64,127,3,,,,
230680,control_change,40,0,5,,,,,,,64,127,5,,,,
230680,control_change,40,0,2,,,,,,,64,127,2,,,,
230680,control_change,40,0,1,,,,,,,64,127,1,,,,
230680,control_change,40,0,4,,,,,,,64,127,4,,,,
230760,note_on,0,0,1,,,,,,,,,1,,,63,42
230760,note_off,80,0,1,,,,,,,,,1,,,62,0
230880,note_on,0,0,1,,,,,,,,,1,,,65,41
230880,control_change,200,0,3,,,,,,,64,0,3,,,,
230880,control_change,200,0,5,,,,,,,64,0,5,,,,
230880,note_off,0,0,5,,,,,,,,,5,,,34,0
230880,note_on,0,0,5,,,,,,,,,5,,,46,41
230880,note_on,0,0,4,,,,,,,,,4,,,53,41
230880,note_on,0,0,4,,,,,,,,,4,,,56,41
230880,note_on,0,0,2,,,,,,,,,2,,,71,41
230880,note_off,0,0,1,,,,,,,,,1,,,63,0
230880,note_on,0,0,2,,,,,,,,,2,,,68,41
230880,note_off,0,0,2,,,,,,,,,2,,,71,0
230880,note_off,0,0,2,,,,,,,,,2,,,68,0
230880,control_change,200,0,2,,,,,,,64,0,2,,,,
230880,control_change,120,0,1,,,,,,,64,0,1,,,,
230880,control_change,200,0,4,,,,,,,64,0,4,,,,
231120,note_off,0,0,2,,,,,,,,,2,,,71,0
231120,note_off,240,0,2,,,,,,,,,2,,,68,0
231120,note_on,0,0,1,,,,,,,,,1,,,62,40
231120,note_off,240,0,1,,,,,,,,,1,,,65,0
231120,note_on,0,0,2,,,,,,,,,2,,,68,40
231120,note_on,0,0,2,,,,,,,,,2,,,70,40
231240,note_off,120,0,1,,,,,,,,,1,,,62,0
231240,note_on,0,0,1,,,,,,,,,1,,,63,39
231360,note_on,0,0,2,,,,,,,,,2,,,68,39
231360,note_off,0,0,2,,,,,,,,,2,,,70,0
231360,note_off,240,0,2,,,,,,,,,2,,,68,0
231360,note_on,0,0,2,,,,,,,,,2,,,70,39
231360,note_on,0,0,1,,,,,,,,,1,,,65,39
231360,note_off,120,0,1,,,,,,,,,1,,,63,0
231600,note_off,0,0,5,,,,,,,,,5,,,46,0
231600,control_change,720,0,3,,,,,,,64,0,3,,,,
231600,note_off,0,0,4,,,,,,,,,4,,,56,0
231600,note_on,0,0,2,,,,,,,,,2,,,68,37
231600,note_on,0,0,2,,,,,,,,,2,,,71,37
231600,note_off,0,0,2,,,,,,,,,2,,,70,0
231600,note_off,0,0,2,,,,,,,,,2,,,68,0
231600,control_change,240,0,2,,,,,,,64,0,2,,,,
231600,control_change,720,0,5,,,,,,,64,0,5,,,,
231600,control_change,240,0,1,,,,,,,64,0,1,,,,
231600,note_off,0,0,4,,,,,,,,,4,,,53,0
231600,control_change,720,0,4,,,,,,,64,0,4,,,,
231600,note_on,0,0,5,,,,,,,,,5,,,40,37
231600,note_off,0,0,1,,,,,,,,,1,,,65,0
231600,note_on,0,0,1,,,,,,,,,1,,,61,37
231640,control_change,40,0,4,,,,,,,64,127,4,,,,
231640,control_change,40,0,3,,,,,,,64,127,3,,,,
231640,control_change,40,0,1,,,,,,,64,127,1,,,,
231640,control_change,40,0,5,,,,,,,64,127,5,,,,
231640,control_change,40,0,2,,,,,,,64,127,2,,,,
231720,note_off,80,0,1,,,,,,,,,1,,,61,0
231720,set_tempo,1800,1,0,,,,,,1132075,,,,,,,
231720,note_on,0,0,1,,,,,,,,,1,,,63,36
231840,control_change,200,0,3,,,,,,,64,0,3,,,,
231840,control_change,200,0,4,,,,,,,64,0,4,,,,
231840,note_on,0,0,4,,,,,,,,,4,,,56,35
231840,note_on,0,0,4,,,,,,,,,4,,,52,35
231840,control_change,200,0,2,,,,,,,64,0,2,,,,
231840,control_change,200,0,5,,,,,,,64,0,5,,,,
231840,note_on,0,0,5,,,,,,,,,5,,,49,35
231840,note_off,0,0,5,,,,,,,,,5,,,40,0
231840,note_on,0,0,2,,,,,,,,,2,,,68,35
231840,note_on,0,0,2,,,,,,,,,2,,,71,35
231840,note_off,0,0,2,,,,,,,,,2,,,71,0
231840,note_off,0,0,2,,,,,,,,,2,,,68,0
231840,note_on,0,0,1,,,,,,,,,1,,,64,35
231840,note_off,0,0,1,,,,,,,,,1,,,63,0
231840,control_change,120,0,1,,,,,,,64,0,1,,,,
232080,note_on,0,0,2,,,,,,,,,2,,,68,33
232080,note_on,0,0,2,,,,,,,,,2,,,70,33
232080,note_off,240,0,2,,,,,,,,,2,,,68,0
232080,note_on,0,0,1,,,,,,,,,1,,,61,33
232080,note_off,240,0,1,,,,,,,,,1,,,64,0
232080,note_off,0,0,2,,,,,,,,,2,,,71,0
232140,set_tempo,420,1,0,,,,,,1176470,,,,,,,
232200,set_tempo,60,1,0,,,,,,1428571,,,,,,,
232200,note_off,120,0,1,,,,,,,,,1,,,61,0
232200,note_on,0,0,1,,,,,,,,,1,,,63,31
232320,note_on,0,0,1,,,,,,,,,1,,,64,30
232320,control_change,240,0,2,,,,,,,64,0,2,,,,
232320,note_off,0,0,2,,,,,,,,,2,,,68,0
232320,note_off,0,0,2,,,,,,,,,2,,,70,0
232320,note_on,0,0,2,,,,,,,,,2,,,70,30
232320,note_on,0,0,2,,,,,,,,,2,,,68,30
232320,control_change,480,0,3,,,,,,,64,0,3,,,,
232320,control_change,480,0,4,,,,,,,64,0,4,,,,
232320,note_off,0,0,1,,,,,,,,,1,,,63,0
232320,control_change,120,0,1,,,,,,,64,0,1,,,,
232320,set_tempo,120,1,0,,,,,,689655,,,,,,,
232320,control_change,480,0,5,,,,,,,64,0,5,,,,
232360,control_change,40,0,5,,,,,,,64,127,5,,,,
232360,control_change,40,0,4,,,,,,,64,127,4,,,,
232360,control_change,40,0,3,,,,,,,64,127,3,,,,
232360,control_change,40,0,2,,,,,,,64,127,2,,,,
232360,control_change,40,0,1,,,,,,,64,127,1,,,,
232560,note_off,0,0,2,,,,,,,,,2,,,70,0
232560,note_off,200,0,2,,,,,,,,,2,,,68,0
232560,note_off,200,0,5,,,,,,,,,5,,,49,0
232560,note_off,200,0,1,,,,,,,,,1,,,64,0
232560,note_off,0,0,4,,,,,,,,,4,,,56,0
232560,note_off,200,0,4,,,,,,,,,4,,,52,0
233520,control_change,960,0,2,,,,,,,64,0,2,,,,
233520,set_tempo,1200,1,0,,,,,,1111111,,,,,,,
233520,control_change,960,0,5,,,,,,,64,0,5,,,,
233520,note_on,0,0,2,,,,,,,,,2,,,70,41
233520,note_on,0,0,1,,,,,,,,,1,,,61,41
233520,control_change,960,0,1,,,,,,,64,0,1,,,,
233520,note_on,0,0,2,,,,,,,,,2,,,73,41
233520,control_change,1160,0,3,,,,,,,64,0,3,,,,
233520,control_change,960,0,4,,,,,,,64,0,4,,,,
233560,control_change,40,0,2,,,,,,,64,127,2,,,,
233560,control_change,40,0,4,,,,,,,64,127,4,,,,
233560,control_change,40,0,1,,,,,,,64,127,1,,,,
233560,control_change,40,0,3,,,,,,,64,127,3,,,,
233560,control_change,40,0,5,,,,,,,64,127,5,,,,
233640,note_off,80,0,1,,,,,,,,,1,,,61,0
233640,note_on,0,0,1,,,,,,,,,1,,,63,43
233720,set_tempo,200,1,0,,,,,,1132075,,,,,,,
233760,control_change,200,0,5,,,,,,,64,0,5,,,,
233760,note_on,0,0,5,,,,,,,,,5,,,39,49
233760,set_tempo,40,1,0,,,,,,1111111,,,,,,,
233760,control_change,200,0,3,,,,,,,64,0,3,,,,
233760,note_off,0,0,1,,,,,,,,,1,,,63,0
233760,note_off,0,0,2,,,,,,,,,2,,,73,0
233760,control_change,120,0,1,,,,,,,64,0,1,,,,
233760,control_change,200,0,4,,,,,,,64,0,4,,,,
233760,control_change,200,0,2,,,,,,,64,0,2,,,,
233760,note_off,0,0,2,,,,,,,,,2,,,70,0
233760,note_on,0,0,2,,,,,,,,,2,,,73,49
233760,note_on,0,0,2,,,,,,,,,2,,,70,49
233760,note_on,0,0,1,,,,,,,,,1,,,64,49
233800,control_change,40,0,5,,,,,,,64,127,5,,,,
233800,control_change,40,0,2,,,,,,,64,127,2,,,,
233800,control_change,40,0,4,,,,,,,64,127,4,,,,
233800,control_change,40,0,1,,,,,,,64,127,1,,,,
233800,control_change,40,0,3,,,,,,,64,127,3,,,,
233880,note_off,80,0,5,,,,,,,,,5,,,39,0
233880,note_on,80,0,4,,,,,,,,,4,,,46,48
234000,note_on,0,0,1,,,,,,,,,1,,,63,46
234000,note_on,0,0,4,,,,,,,,,4,,,55,46
234000,note_off,200,0,1,,,,,,,,,1,,,64,0
234000,note_off,120,0,4,,,,,,,,,4,,,46,0
234000,note_off,200,0,2,,,,,,,,,2,,,70,0
234000,note_on,0,0,2,,,,,,,,,2,,,70,46
234000,note_off,0,0,2,,,,,,,,,2,,,73,0
234120,note_on,0,0,1,,,,,,,,,1,,,64,45
234120,note_off,120,0,4,,,,,,,,,4,,,55,0
234120,note_off,120,0,1,,,,,,,,,1,,,63,0
234240,note_on,0,0,5,,,,,,,,,5,,,39,44
234240,control_change,120,0,1,,,,,,,64,0,1,,,,
234240,note_off,0,0,1,,,,,,,,,1,,,64,0
234240,note_on,0,0,1,,,,,,,,,1,,,63,44
234240,control_change,360,0,5,,,,,,,64,0,5,,,,
234240,control_change,120,0,4,,,,,,,64,0,4,,,,
234240,note_off,0,0,2,,,,,,,,,2,,,70,0
234240,note_on,0,0,2,,,,,,,,,2,,,70,44
234240,control_change,440,0,3,,,,,,,64,0,3,,,,
234240,control_change,240,0,2,,,,,,,64,0,2,,,,
234280,control_change,40,0,3,,,,,,,64,127,3,,,,
234280,control_change,40,0,2,,,,,,,64,127,2,,,,
234280,control_change,40,0,1,,,,,,,64,127,1,,,,
234280,control_change,40,0,5,,,,,,,64,127,5,,,,
234280,control_change,40,0,4,,,,,,,64,127,4,,,,
234360,note_off,80,0,5,,,,,,,,,5,,,39,0
234360,note_on,80,0,4,,,,,,,,,4,,,46,42
234440,set_tempo,680,1,0,,,,,,1132075,,,,,,,
234480,note_off,200,0,1,,,,,,,,,1,,,63,0
234480,note_on,0,0,1,,,,,,,,,1,,,61,45
234480,note_on,0,0,4,,,,,,,,,4,,,55,45
234480,set_tempo,40,1,0,,,,,,1111111,,,,,,,
234480,note_on,0,0,2,,,,,,,,,2,,,73,45
234480,note_off,200,0,2,,,,,,,,,2,,,70,0
234480,note_off,120,0,4,,,,,,,,,4,,,46,0
234480,note_on,0,0,2,,,,,,,,,2,,,70,45
234600,note_on,0,0,1,,,,,,,,,1,,,63,47
234600,note_off,120,0,1,,,,,,,,,1,,,61,0
234600,note_off,120,0,4,,,,,,,,,4,,,55,0
234680,set_tempo,200,1,0,,,,,,1132075,,,,,,,
234720,note_on,0,0,1,,,,,,,,,1,,,66,51
234720,note_off,0,0,1,,,,,,,,,1,,,63,0
234720,set_tempo,40,1,0,,,,,,1111111,,,,,,,
234720,control_change,120,0,1,,,,,,,64,0,1,,,,
234720,note_on,0,0,5,,,,,,,,,5,,,32,51
234720,control_change,240,0,2,,,,,,,64,0,2,,,,
234720,control_change,440,0,3,,,,,,,64,0,3,,,,
234720,control_change,120,0,4,,,,,,,64,0,4,,,,
234720,note_off,0,0,2,,,,,,,,,2,,,70,0
234720,note_off,0,0,2,,,,,,,,,2,,,73,0
234720,note_on,0,0,2,,,,,,,,,2,,,73,51
234720,note_on,0,0,2,,,,,,,,,2,,,69,51
234720,control_change,360,0,5,,,,,,,64,0,5,,,,
234760,control_change,40,0,5,,,,,,,64,127,5,,,,
234760,control_change,40,0,3,,,,,,,64,127,3,,,,
234760,control_change,40,0,4,,,,,,,64,127,4,,,,
234760,control_change,40,0,1,,,,,,,64,127,1,,,,
234760,control_change,40,0,2,,,,,,,64,127,2,,,,
234840,note_off,80,0,1,,,,,,,,,1,,,66,0
234840,note_on,80,0,4,,,,,,,,,4,,,44,50
234840,note_on,0,0,1,,,,,,,,,1,,,64,50
234840,note_off,80,0,5,,,,,,,,,5,,,32,0
234960,note_on,0,0,2,,,,,,,,,2,,,69,49
234960,note_on,0,0,2,,,,,,,,,2,,,72,49
234960,note_off,200,0,2,,,,,,,,,2,,,69,0
234960,note_on,0,0,1,,,,,,,,,1,,,63,49
234960,note_on,0,0,4,,,,,,,,,4,,,54,49
234960,note_off,120,0,4,,,,,,,,,4,,,44,0
234960,note_off,0,0,2,,,,,,,,,2,,,73,0
234960,note_off,120,0,1,,,,,,,,,1,,,64,0
235080,note_off,120,0,4,,,,,,,,,4,,,54,0
235080,note_on,0,0,1,,,,,,,,,1,,,64,48
235080,note_off,120,0,1,,,,,,,,,1,,,63,0
235200,note_off,0,0,2,,,,,,,,,2,,,69,0
235200,control_change,440,0,3,,,,,,,64,0,3,,,,
235200,control_change,120,0,4,,,,,,,64,0,4,,,,
235200,note_on,0,0,1,,,,,,,,,1,,,63,47
235200,note_off,0,0,1,,,,,,,,,1,,,64,0
235200,control_change,120,0,1,,,,,,,64,0,1,,,,
235200,note_off,0,0,2,,,,,,,,,2,,,72,0
235200,control_change,240,0,2,,,,,,,64,0,2,,,,
235200,control_change,360,0,5,,,,,,,64,0,5,,,,
235200,note_on,0,0,5,,,,,,,,,5,,,32,47
235200,note_on,0,0,2,,,,,,,,,2,,,72,47
235200,note_on,0,0,2,,,,,,,,,2,,,69,47
235240,control_change,40,0,4,,,,,,,64,127,4,,,,
235240,control_change,40,0,2,,,,,,,64,127,2,,,,
235240,control_change,40,0,3,,,,,,,64,127,3,,,,
235240,control_change,40,0,5,,,,,,,64,127,5,,,,
235240,control_change,40,0,1,,,,,,,64,127,1,,,,
235320,note_off,80,0,5,,,,,,,,,5,,,32,0
235320,note_on,80,0,4,,,,,,,,,4,,,44,46
235320,set_tempo,600,1,0,,,,,,1132075,,,,,,,
235440,note_on,0,0,2,,,,,,,,,2,,,69,48
235440,note_off,0,0,2,,,,,,,,,2,,,69,0
235440,note_on,0,0,2,,,,,,,,,2,,,72,48
235440,note_off,200,0,1,,,,,,,,,1,,,63,0
235440,note_on,0,0,1,,,,,,,,,1,,,64,48
235440,note_off,200,0,2,,,,,,,,,2,,,72,0
235440,set_tempo,120,1,0,,,,,,1111111,,,,,,,
235440,note_off,120,0,4,,,,,,,,,4,,,44,0
235440,note_on,0,0,4,,,,,,,,,4,,,54,48
235560,note_on,0,0,1,,,,,,,,,1,,,66,49
235560,note_off,120,0,1,,,,,,,,,1,,,64,0
235560,note_off,120,0,4,,,,,,,,,4,,,54,0
235640,set_tempo,200,1,0,,,,,,1132075,,,,,,,
235680,control_change,120,0,4,,,,,,,64,0,4,,,,
235680,control_change,240,0,2,,,,,,,64,0,2,,,,
235680,note_off,0,0,2,,,,,,,,,2,,,72,0
235680,note_off,0,0,2,,,,,,,,,2,,,69,0
235680,note_on,0,0,2,,,,,,,,,2,,,64,50
235680,note_off,0,0,1,,,,,,,,,1,,,66,0
235680,control_change,360,0,5,,,,,,,64,0,5,,,,
235680,note_on,0,0,5,,,,,,,,,5,,,40,50
235680,control_change,440,0,3,,,,,,,64,0,3,,,,
235680,control_change,120,0,1,,,,,,,64,0,1,,,,
235680,set_tempo,40,1,0,,,,,,1111111,,,,,,,
235680,note_on,0,0,2,,,,,,,,,2,,,73,50
235680,note_on,0,0,1,,,,,,,,,1,,,68,50
235720,control_change,40,0,5,,,,,,,64,127,5,,,,
235720,control_change,40,0,2,,,,,,,64,127,2,,,,
235720,control_change,40,0,1,,,,,,,64,127,1,,,,
235720,control_change,40,0,4,,,,,,,64,127,4,,,,
235720,control_change,40,0,3,,,,,,,64,127,3,,,,
235800,note_off,80,0,5,,,,,,,,,5,,,40,0
235800,note_on,80,0,4,,,,,,,,,4,,,52,51
235920,note_off,200,0,2,,,,,,,,,2,,,73,0
235920,note_off,0,0,2,,,,,,,,,2,,,64,0
235920,note_off,200,0,1,,,,,,,,,1,,,68,0
235920,note_on,0,0,2,,,,,,,,,2,,,73,51
235920,note_off,120,0,4,,,,,,,,,4,,,52,0
235920,note_on,0,0,4,,,,,,,,,4,,,56,51
235920,note_on,0,0,2,,,,,,,,,2,,,64,51
235920,note_on,0,0,1,,,,,,,,,1,,,66,51
236040,note_off,120,0,4,,,,,,,,,4,,,56,0
236040,note_on,0,0,1,,,,,,,,,1,,,68,52
236040,note_off,120,0,1,,,,,,,,,1,,,66,0
236160,note_off,0,0,2,,,,,,,,,2,,,73,0
236160,control_change,120,0,4,,,,,,,64,0,4,,,,
236160,note_off,0,0,2,,,,,,,,,2,,,64,0
236160,note_on,0,0,2,,,,,,,,,2,,,64,53
236160,note_on,0,0,2,,,,,,,,,2,,,73,53
236160,control_change,360,0,5,,,,,,,64,0,5,,,,
236160,note_on,0,0,1,,,,,,,,,1,,,69,53
236160,note_off,0,0,1,,,,,,,,,1,,,68,0
236160,control_change,120,0,1,,,,,,,64,0,1,,,,
236160,control_change,440,0,3,,,,,,,64,0,3,,,,
236160,control_change,240,0,2,,,,,,,64,0,2,,,,
236160,note_on,0,0,5,,,,,,,,,5,,,37,53
236200,control_change,40,0,2,,,,,,,64,127,2,,,,
236200,control_change,40,0,3,,,,,,,64,127,3,,,,
236200,control_change,40,0,5,,,,,,,64,127,5,,,,
236200,control_change,40,0,1,,,,,,,64,127,1,,,,
236200,control_change,40,0,4,,,,,,,64,127,4,,,,
236280,note_off,80,0,5,,,,,,,,,5,,,37,0
236280,note_on,80,0,4,,,,,,,,,4,,,52,54
236400,note_on,0,0,2,,,,,,,,,2,,,64,55
236400,note_on,0,0,1,,,,,,,,,1,,,68,55
236400,note_off,200,0,1,,,,,,,,,1,,,69,0
236400,note_off,120,0,4,,,,,,,,,4,,,52,0
236400,note_off,200,0,2,,,,,,,,,2,,,73,0
236400,note_on,0,0,4,,,,,,,,,4,,,57,55
236400,note_on,0,0,2,,,,,,,,,2,,,73,55
236400,note_off,0,0,2,,,,,,,,,2,,,64,0
236520,note_off,120,0,4,,,,,,,,,4,,,57,0
236520,note_off,120,0,1,,,,,,,,,1,,,68,0
236520,note_on,0,0,1,,,,,,,,,1,,,69,56
236600,set_tempo,920,1,0,,,,,,1132075,,,,,,,
236640,note_off,0,0,1,,,,,,,,,1,,,69,0
236640,control_change,440,0,3,,,,,,,64,0,3,,,,
236640,control_change,240,0,2,,,,,,,64,0,2,,,,
236640,note_off,0,0,2,,,,,,,,,2,,,73,0
236640,note_off,0,0,2,,,,,,,,,2,,,64,0
236640,note_on,0,0,2,,,,,,,,,2,,,66,57
236640,note_on,0,0,2,,,,,,,,,2,,,75,57
236640,control_change,120,0,1,,,,,,,64,0,1,,,,
236640,note_on,0,0,1,,,,,,,,,1,,,71,57
236640,control_change,120,0,4,,,,,,,64,0,4,,,,
236640,set_tempo,40,1,0,,,,,,1111111,,,,,,,
236640,control_change,360,0,5,,,,,,,64,0,5,,,,
236640,note_on,0,0,5,,,,,,,,,5,,,39,57
236680,control_change,40,0,4,,,,,,,64,127,4,,,,
236680,control_change,40,0,2,,,,,,,64,127,2,,,,
236680,control_change,40,0,5,,,,,,,64,127,5,,,,
236680,control_change,40,0,3,,,,,,,64,127,3,,,,
236680,control_change,40,0,1,,,,,,,64,127,1,,,,
236760,note_off,80,0,5,,,,,,,,,5,,,39,0
236760,note_on,80,0,4,,,,,,,,,4,,,51,57
236880,control_change,120,0,5,,,,,,,64,0,5,,,,
236880,note_on,0,0,5,,,,,,,,,5,,,40,58
236880,note_off,0,0,4,,,,,,,,,4,,,51,0
236880,control_change,120,0,4,,,,,,,64,0,4,,,,
236880,control_change,200,0,3,,,,,,,64,0,3,,,,
236880,note_on,0,0,2,,,,,,,,,2,,,64,58
236880,note_off,0,0,2,,,,,,,,,2,,,75,0
236880,note_on,0,0,2,,,,,,,,,2,,,73,58
236880,note_on,0,0,1,,,,,,,,,1,,,68,58
236880,note_off,0,0,1,,,,,,,,,1,,,71,0
236880,control_change,200,0,1,,,,,,,64,0,1,,,,
236880,control_change,200,0,2,,,,,,,64,0,2,,,,
236880,note_off,0,0,2,,,,,,,,,2,,,66,0
236920,control_change,40,0,3,,,,,,,64,127,3,,,,
236920,control_change,40,0,2,,,,,,,64,127,2,,,,
236920,control_change,40,0,4,,,,,,,64,127,4,,,,
236920,control_change,40,0,1,,,,,,,64,127,1,,,,
236920,control_change,40,0,5,,,,,,,64,127,5,,,,
237000,note_on,80,0,4,,,,,,,,,4,,,52,59
237000,note_off,80,0,1,,,,,,,,,1,,,68,0
237000,note_off,80,0,5,,,,,,,,,5,,,40,0
237000,note_on,0,0,1,,,,,,,,,1,,,69,59
237120,note_off,0,0,2,,,,,,,,,2,,,73,0
237120,note_off,0,0,2,,,,,,,,,2,,,64,0
237120,note_on,0,0,2,,,,,,,,,2,,,63,60
237120,note_on,0,0,2,,,,,,,,,2,,,72,60
237120,note_on,0,0,1,,,,,,,,,1,,,66,60
237120,control_change,200,0,2,,,,,,,64,0,2,,,,
237120,note_on,0,0,5,,,,,,,,,5,,,42,60
237120,note_off,0,0,1,,,,,,,,,1,,,69,0
237120,control_change,120,0,1,,,,,,,64,0,1,,,,
237120,control_change,120,0,5,,,,,,,64,0,5,,,,
237120,control_change,120,0,4,,,,,,,64,0,4,,,,
237120,note_off,0,0,4,,,,,,,,,4,,,52,0
237120,control_change,200,0,3,,,,,,,64,0,3,,,,
237160,control_change,40,0,1,,,,,,,64,127,1,,,,
237160,control_change,40,0,3,,,,,,,64,127,3,,,,
237160,control_change,40,0,2,,,,,,,64,127,2,,,,
237160,control_change,40,0,5,,,,,,,64,127,5,,,,
237160,control_change,40,0,4,,,,,,,64,127,4,,,,
237240,note_off,80,0,5,,,,,,,,,5,,,42,0
237240,note_on,80,0,4,,,,,,,,,4,,,54,61
237360,note_off,0,0,4,,,,,,,,,4,,,54,0
237360,note_off,0,0,2,,,,,,,,,2,,,63,0
237360,note_on,0,0,1,,,,,,,,,1,,,68,62
237360,note_off,0,0,1,,,,,,,,,1,,,66,0
237360,control_change,200,0,1,,,,,,,64,0,1,,,,
237360,control_change,200,0,2,,,,,,,64,0,2,,,,
237360,note_off,0,0,2,,,,,,,,,2,,,72,0
237360,control_change,120,0,4,,,,,,,64,0,4,,,,
237360,note_on,0,0,2,,,,,,,,,2,,,61,62
237360,note_on,0,0,2,,,,,,,,,2,,,73,62
237360,control_change,120,0,5,,,,,,,64,0,5,,,,
237360,control_change,200,0,3,,,,,,,64,0,3,,,,
237360,note_on,0,0,5,,,,,,,,,5,,,40,62
237400,control_change,40,0,5,,,,,,,64,127,5,,,,
237400,control_change,40,0,4,,,,,,,64,127,4,,,,
237400,control_change,40,0,1,,,,,,,64,127,1,,,,
237400,control_change,40,0,3,,,,,,,64,127,3,,,,
237400,control_change,40,0,2,,,,,,,64,127,2,,,,
237480,note_off,80,0,5,,,,,,,,,5,,,40,0
237480,note_on,80,0,4,,,,,,,,,4,,,49,63
237480,note_off,80,0,1,,,,,,,,,1,,,68,0
237480,note_on,0,0,1,,,,,,,,,1,,,64,63
237540,set_tempo,900,1,0,,,,,,1132075,,,,,,,
237600,control_change,120,0,1,,,,,,,64,0,1,,,,
237600,note_off,0,0,1,,,,,,,,,1,,,64,0
237600,note_on,0,0,1,,,,,,,,,1,,,66,66
237600,control_change,120,0,5,,,,,,,64,0,5,,,,
237600,note_off,0,0,2,,,,,,,,,2,,,73,0
237600,note_on,0,0,2,,,,,,,,,2,,,63,66
237600,note_on,0,0,2,,,,,,,,,2,,,71,66
237600,note_on,0,0,5,,,,,,,,,5,,,42,66
237600,control_change,200,0,3,,,,,,,64,0,3,,,,
237600,control_change,120,0,4,,,,,,,64,0,4,,,,
237600,note_off,0,0,4,,,,,,,,,4,,,49,0
237600,control_change,200,0,2,,,,,,,64,0,2,,,,
237600,note_off,0,0,2,,,,,,,,,2,,,61,0
237640,control_change,40,0,5,,,,,,,64,127,5,,,,
237640,control_change,40,0,3,,,,,,,64,127,3,,,,
237640,control_change,40,0,4,,,,,,,64,127,4,,,,
237640,control_change,40,0,1,,,,,,,64,127,1,,,,
237640,control_change,40,0,2,,,,,,,64,127,2,,,,
237720,note_on,80,0,4,,,,,,,,,4,,,54,63
237720,note_off,80,0,5,,,,,,,,,5,,,42,0
237840,note_off,120,0,4,,,,,,,,,4,,,54,0
237840,note_on,120,0,5,,,,,,,,,5,,,39,61
237960,note_on,0,0,2,,,,,,,,,2,,,61,59
237960,note_on,120,0,4,,,,,,,,,4,,,51,59
237960,note_on,0,0,2,,,,,,,,,2,,,69,59
237960,note_off,0,0,2,,,,,,,,,2,,,63,0
237960,note_off,320,0,2,,,,,,,,,2,,,71,0
237960,note_off,120,0,5,,,,,,,,,5,,,39,0
238020,set_tempo,480,1,0,,,,,,1176470,,,,,,,
238080,control_change,120,0,5,,,,,,,64,0,5,,,,
238080,note_on,0,0,5,,,,,,,,,5,,,44,58
238080,note_off,0,0,1,,,,,,,,,1,,,66,0
238080,note_on,0,0,2,,,,,,,,,2,,,60,58
238080,control_change,120,0,4,,,,,,,64,0,4,,,,
238080,note_on,0,0,2,,,,,,,,,2,,,68,58
238080,control_change,440,0,1,,,,,,,64,0,1,,,,
238080,note_off,0,0,4,,,,,,,,,4,,,51,0
238080,control_change,440,0,3,,,,,,,64,0,3,,,,
238080,control_change,120,0,2,,,,,,,64,0,2,,,,
238080,note_off,0,0,2,,,,,,,,,2,,,69,0
238080,note_off,0,0,2,,,,,,,,,2,,,61,0
238080,note_on,0,0,1,,,,,,,,,1,,,63,58
238120,control_change,40,0,3,,,,,,,64,127,3,,,,
238120,control_change,40,0,5,,,,,,,64,127,5,,,,
238120,control_change,40,0,4,,,,,,,64,127,4,,,,
238120,control_change,40,0,1,,,,,,,64,127,1,,,,
238120,control_change,40,0,2,,,,,,,64,127,2,,,,
238200,note_on,80,0,4,,,,,,,,,4,,,56,56
238200,note_off,80,0,5,,,,,,,,,5,,,44,0
238260,set_tempo,240,1,0,,,,,,1578947,,,,,,,
238320,note_on,0,0,5,,,,,,,,,5,,,49,60
238320,control_change,120,0,5,,,,,,,64,0,5,,,,
238320,control_change,200,0,3,,,,,,,64,0,3,,,,
238320,set_tempo,60,1,0,,,,,,1111111,,,,,,,
238320,control_change,200,0,2,,,,,,,64,0,2,,,,
238320,note_off,0,0,4,,,,,,,,,4,,,56,0
238320,note_on,0,0,4,,,,,,,,,4,,,57,60
238320,note_off,0,0,2,,,,,,,,,2,,,68,0
238320,note_off,0,0,2,,,,,,,,,2,,,60,0
238320,note_on,0,0,2,,,,,,,,,2,,,69,60
238320,note_on,0,0,2,,,,,,,,,2,,,73,60
238320,control_change,200,0,1,,,,,,,64,0,1,,,,
238320,note_off,0,0,1,,,,,,,,,1,,,63,0
238320,note_on,0,0,1,,,,,,,,,1,,,61,60
238320,control_change,120,0,4,,,,,,,64,0,4,,,,
238360,control_change,40,0,4,,,,,,,64,127,4,,,,
238360,control_change,40,0,2,,,,,,,64,127,2,,,,
238360,control_change,40,0,1,,,,,,,64,127,1,,,,
238360,control_change,40,0,3,,,,,,,64,127,3,,,,
238360,control_change,40,0,5,,,,,,,64,127,5,,,,
238440,note_off,80,0,5,,,,,,,,,5,,,49,0
238440,note_off,80,0,4,,,,,,,,,4,,,57,0
238440,note_on,0,0,4,,,,,,,,,4,,,52,63
238440,note_on,0,0,1,,,,,,,,,1,,,63,63
238440,note_off,80,0,1,,,,,,,,,1,,,61,0
238520,set_tempo,200,1,0,,,,,,1132075,,,,,,,
238560,control_change,200,0,2,,,,,,,64,0,2,,,,
238560,control_change,200,0,3,,,,,,,64,0,3,,,,
238560,set_tempo,40,1,0,,,,,,1111111,,,,,,,
238560,note_on,0,0,2,,,,,,,,,2,,,69,68
238560,note_off,0,0,2,,,,,,,,,2,,,69,0
238560,note_off,0,0,2,,,,,,,,,2,,,73,0
238560,note_on,0,0,2,,,,,,,,,2,,,73,68
238560,note_off,0,0,4,,,,,,,,,4,,,52,0
238560,note_on,0,0,1,,,,,,,,,1,,,64,68
238560,note_off,0,0,1,,,,,,,,,1,,,63,0
238560,control_change,120,0,1,,,,,,,64,0,1,,,,
238560,control_change,120,0,4,,,,,,,64,0,4,,,,
238560,control_change,120,0,5,,,,,,,64,0,5,,,,
238560,note_on,0,0,5,,,,,,,,,5,,,49,68
238600,control_change,40,0,3,,,,,,,64,127,3,,,,
238600,control_change,40,0,4,,,,,,,64,127,4,,,,
238600,control_change,40,0,5,,,,,,,64,127,5,,,,
238600,control_change,40,0,2,,,,,,,64,127,2,,,,
238600,control_change,40,0,1,,,,,,,64,127,1,,,,
238680,note_on,0,0,5,,,,,,,,,5,,,45,67
238680,note_off,80,0,5,,,,,,,,,5,,,49,0
238800,note_off,200,0,2,,,,,,,,,2,,,73,0
238800,note_off,0,0,2,,,,,,,,,2,,,69,0
238800,note_on,0,0,2,,,,,,,,,2,,,69,66
238800,note_on,0,0,2,,,,,,,,,2,,,73,66
238800,note_off,200,0,1,,,,,,,,,1,,,64,0
238800,note_on,0,0,1,,,,,,,,,1,,,63,66
238800,note_off,120,0,5,,,,,,,,,5,,,45,0
238800,note_on,0,0,5,,,,,,,,,5,,,37,66
238920,note_on,0,0,5,,,,,,,,,5,,,45,65
238920,note_on,0,0,1,,,,,,,,,1,,,64,65
238920,note_off,120,0,5,,,,,,,,,5,,,37,0
238920,note_off,120,0,1,,,,,,,,,1,,,63,0
239040,note_on,0,0,1,,,,,,,,,1,,,63,64
239040,control_change,120,0,1,,,,,,,64,0,1,,,,
239040,note_off,0,0,1,,,,,,,,,1,,,64,0
239040,control_change,440,0,3,,,,,,,64,0,3,,,,
239040,control_change,120,0,5,,,,,,,64,0,5,,,,
239040,control_change,440,0,4,,,,,,,64,0,4,,,,
239040,note_on,0,0,2,,,,,,,,,2,,,73,64
239040,note_on,0,0,2,,,,,,,,,2,,,69,64
239040,note_off,0,0,2,,,,,,,,,2,,,69,0
239040,note_off,0,0,2,,,,,,,,,2,,,73,0
239040,control_change,240,0,2,,,,,,,64,0,2,,,,
239040,note_off,0,0,5,,,,,,,,,5,,,45,0
239040,note_on,0,0,5,,,,,,,,,5,,,42,64
239080,control_change,40,0,1,,,,,,,64,127,1,,,,
239080,control_change,40,0,2,,,,,,,64,127,2,,,,
239080,control_change,40,0,4,,,,,,,64,127,4,,,,
239080,control_change,40,0,3,,,,,,,64,127,3,,,,
239080,control_change,40,0,5,,,,,,,64,127,5,,,,
239160,note_off,80,0,5,,,,,,,,,5,,,42,0
239160,note_on,0,0,5,,,,,,,,,5,,,49,62
239175,set_tempo,615,1,0,,,,,,1132075,,,,,,,
239280,note_on,0,0,2,,,,,,,,,2,,,73,67
239280,note_on,0,0,1,,,,,,,,,1,,,61,67
239280,set_tempo,105,1,0,,,,,,1111111,,,,,,,
239280,note_off,120,0,5,,,,,,,,,5,,,49,0
239280,note_off,200,0,2,,,,,,,,,2,,,73,0
239280,note_off,0,0,2,,,,,,,,,2,,,69,0
239280,note_on,200,0,4,,,,,,,,,4,,,57,67
239280,note_off,200,0,1,,,,,,,,,1,,,63,0
239280,note_on,0,0,2,,,,,,,,,2,,,69,67
239400,note_off,120,0,1,,,,,,,,,1,,,61,0
239400,note_off,120,0,4,,,,,,,,,4,,,57,0
239400,note_on,0,0,1,,,,,,,,,1,,,63,71
239400,note_on,0,0,4,,,,,,,,,4,,,52,71
239480,set_tempo,200,1,0,,,,,,1132075,,,,,,,
239520,note_off,0,0,1,,,,,,,,,1,,,63,0
239520,control_change,240,0,5,,,,,,,64,0,5,,,,
239520,control_change,440,0,3,,,,,,,64,0,3,,,,
239520,control_change,120,0,4,,,,,,,64,0,4,,,,
239520,control_change,120,0,1,,,,,,,64,0,1,,,,
239520,note_off,0,0,4,,,,,,,,,4,,,52,0
239520,set_tempo,40,1,0,,,,,,1111111,,,,,,,
239520,note_on,0,0,2,,,,,,,,,2,,,73,75
239520,note_on,0,0,2,,,,,,,,,2,,,69,75
239520,note_off,0,0,2,,,,,,,,,2,,,69,0
239520,note_off,0,0,2,,,,,,,,,2,,,73,0
239520,control_change,240,0,2,,,,,,,64,0,2,,,,
239520,note_on,0,0,4,,,,,,,,,4,,,49,75
239520,note_on,0,0,1,,,,,,,,,1,,,66,75
239560,control_change,40,0,4,,,,,,,64,127,4,,,,
239560,control_change,40,0,5,,,,,,,64,127,5,,,,
239560,control_change,40,0,2,,,,,,,64,127,2,,,,
239560,control_change,40,0,3,,,,,,,64,127,3,,,,
239560,control_change,40,0,1,,,,,,,64,127,1,,,,
239640,note_off,80,0,4,,,,,,,,,4,,,49,0
239640,note_on,0,0,1,,,,,,,,,1,,,64,74
239640,note_off,80,0,1,,,,,,,,,1,,,66,0
239640,note_on,0,0,4,,,,,,,,,4,,,45,74
239760,note_off,200,0,2,,,,,,,,,2,,,73,0
239760,note_off,0,0,2,,,,,,,,,2,,,69,0
239760,note_on,0,0,2,,,,,,,,,2,,,69,73
239760,note_on,0,0,2,,,,,,,,,2,,,73,73
239760,note_on,200,0,5,,,,,,,,,5,,,37,73
239760,note_off,120,0,4,,,,,,,,,4,,,45,0
239760,note_off,120,0,1,,,,,,,,,1,,,64,0
239760,note_on,0,0,1,,,,,,,,,1,,,63,73
239880,note_on,120,0,4,,,,,,,,,4,,,45,72
239880,note_off,120,0,1,,,,,,,,,1,,,63,0
239880,note_on,0,0,1,,,,,,,,,1,,,64,72
239880,note_off,120,0,5,,,,,,,,,5,,,37,0
240000,control_change,120,0,1,,,,,,,64,0,1,,,,
240000,note_off,0,0,1,,,,,,,,,1,,,64,0
240000,note_on,0,0,1,,,,,,,,,1,,,63,71
240000,note_off,0,0,2,,,,,,,,,2,,,73,0
240000,note_off,0,0,2,,,,,,,,,2,,,69,0
240000,note_on,0,0,5,,,,,,,,,5,,,42,71
240000,control_change,120,0,5,,,,,,,64,0,5,,,,
240000,note_off,0,0,4,,,,,,,,,4,,,45,0
240000,control_change,120,0,4,,,,,,,64,0,4,,,,
240000,note_on,0,0,2,,,,,,,,,2,,,73,71
240000,note_on,0,0,2,,,,,,,,,2,,,69,71
240000,control_change,440,0,3,,,,,,,64,0,3,,,,
240000,control_change,240,0,2,,,,,,,64,0,2,,,,
240040,control_change,40,0,3,,,,,,,64,127,3,,,,
240040,control_change,40,0,5,,,,,,,64,127,5,,,,
240040,control_change,40,0,4,,,,,,,64,127,4,,,,
240040,control_change,40,0,2,,,,,,,64,127,2,,,,
240040,control_change,40,0,1,,,,,,,64,127,1,,,,
240120,note_off,80,0,5,,,,,,,,,5,,,42,0
240120,note_on,80,0,4,,,,,,,,,4,,,49,70
240126,set_tempo,606,1,0,,,,,,1176470,,,,,,,
240240,note_on,0,0,2,,,,,,,,,2,,,73,73
240240,set_tempo,114,1,0,,,,,,1111111,,,,,,,
240240,note_off,200,0,1,,,,,,,,,1,,,63,0
240240,note_on,0,0,1,,,,,,,,,1,,,64,73
240240,note_on,0,0,4,,,,,,,,,4,,,57,73
240240,note_off,120,0,4,,,,,,,,,4,,,49,0
240240,note_off,200,0,2,,,,,,,,,2,,,73,0
240240,note_off,0,0,2,,,,,,,,,2,,,69,0
240240,note_on,0,0,2,,,,,,,,,2,,,69,73
240360,note_off,120,0,4,,,,,,,,,4,,,57,0
240360,note_on,0,0,1,,,,,,,,,1,,,66,75
240360,note_on,0,0,4,,,,,,,,,4,,,51,75
240360,note_off,120,0,1,,,,,,,,,1,,,64,0
240440,set_tempo,200,1,0,,,,,,1132075,,,,,,,
240480,control_change,360,0,5,,,,,,,64,0,5,,,,
240480,note_on,0,0,5,,,,,,,,,5,,,40,76
240480,note_off,0,0,1,,,,,,,,,1,,,66,0
240480,control_change,120,0,4,,,,,,,64,0,4,,,,
240480,control_change,120,0,1,,,,,,,64,0,1,,,,
240480,set_tempo,40,1,0,,,,,,1111111,,,,,,,
240480,control_change,440,0,3,,,,,,,64,0,3,,,,
240480,control_change,240,0,2,,,,,,,64,0,2,,,,
240480,note_off,0,0,2,,,,,,,,,2,,,73,0
240480,note_off,0,0,2,,,,,,,,,2,,,69,0
240480,note_on,0,0,2,,,,,,,,,2,,,64,76
240480,note_on,0,0,2,,,,,,,,,2,,,73,76
240480,note_on,0,0,1,,,,,,,,,1,,,68,76
240480,note_off,0,0,4,,,,,,,,,4,,,51,0
240520,control_change,40,0,3,,,,,,,64,127,3,,,,
240520,control_change,40,0,2,,,,,,,64,127,2,,,,
240520,control_change,40,0,1,,,,,,,64,127,1,,,,
240520,control_change,40,0,4,,,,,,,64,127,4,,,,
240520,control_change,40,0,5,,,,,,,64,127,5,,,,
240600,note_off,80,0,5,,,,,,,,,5,,,40,0
240600,note_on,80,0,4,,,,,,,,,4,,,52,77
240720,note_on,0,0,1,,,,,,,,,1,,,66,78
240720,note_off,200,0,2,,,,,,,,,2,,,73,0
240720,note_off,200,0,1,,,,,,,,,1,,,68,0
240720,note_on,0,0,4,,,,,,,,,4,,,56,78
240720,note_off,0,0,2,,,,,,,,,2,,,64,0
240720,note_off,120,0,4,,,,,,,,,4,,,52,0
240720,note_on,0,0,2,,,,,,,,,2,,,64,78
240720,note_on,0,0,2,,,,,,,,,2,,,73,78
240840,note_on,0,0,1,,,,,,,,,1,,,68,79
240840,note_off,120,0,1,,,,,,,,,1,,,66,0
240840,note_on,0,0,4,,,,,,,,,4,,,61,79
240840,note_off,120,0,4,,,,,,,,,4,,,56,0
240960,note_off,0,0,2,,,,,,,,,2,,,64,0
240960,control_change,440,0,3,,,,,,,64,0,3,,,,
240960,note_off,0,0,1,,,,,,,,,1,,,68,0
240960,note_on,0,0,1,,,,,,,,,1,,,70,80
240960,control_change,240,0,2,,,,,,,64,0,2,,,,
240960,note_off,0,0,2,,,,,,,,,2,,,73,0
240960,control_change,120,0,1,,,,,,,64,0,1,,,,
240960,note_on,0,0,2,,,,,,,,,2,,,76,80
240960,control_change,360,0,5,,,,,,,64,0,5,,,,
240960,control_change,120,0,4,,,,,,,64,0,4,,,,
240960,note_on,0,0,2,,,,,,,,,2,,,64,80
240960,note_off,0,0,4,,,,,,,,,4,,,61,0
240960,note_on,0,0,5,,,,,,,,,5,,,37,80
241000,control_change,40,0,5,,,,,,,64,127,5,,,,
241000,control_change,40,0,3,,,,,,,64,127,3,,,,
241000,control_change,40,0,4,,,,,,,64,127,4,,,,
241000,control_change,40,0,1,,,,,,,64,127,1,,,,
241000,control_change,40,0,2,,,,,,,64,127,2,,,,
241080,note_off,80,0,5,,,,,,,,,5,,,37,0
241080,note_on,80,0,4,,,,,,,,,4,,,52,81
241200,note_off,200,0,2,,,,,,,,,2,,,76,0
241200,note_on,0,0,4,,,,,,,,,4,,,58,82
241200,note_off,200,0,1,,,,,,,,,1,,,70,0
241200,note_on,0,0,1,,,,,,,,,1,,,68,82
241200,note_on,0,0,2,,,,,,,,,2,,,76,82
241200,note_on,0,0,2,,,,,,,,,2,,,64,82
241200,note_off,0,0,2,,,,,,,,,2,,,64,0
241200,note_off,120,0,4,,,,,,,,,4,,,52,0
241320,note_off,120,0,1,,,,,,,,,1,,,68,0
241320,note_on,0,0,1,,,,,,,,,1,,,70,83
241320,note_off,120,0,4,,,,,,,,,4,,,58,0
241320,note_on,0,0,4,,,,,,,,,4,,,61,83
241400,set_tempo,920,1,0,,,,,,1132075,,,,,,,
241440,control_change,360,0,5,,,,,,,64,0,5,,,,
241440,note_on,0,0,1,,,,,,,,,1,,,71,84
241440,note_off,0,0,1,,,,,,,,,1,,,70,0
241440,control_change,120,0,1,,,,,,,64,0,1,,,,
241440,control_change,240,0,2,,,,,,,64,0,2,,,,
241440,note_off,0,0,2,,,,,,,,,2,,,76,0
241440,note_off,0,0,2,,,,,,,,,2,,,64,0
241440,note_off,0,0,4,,,,,,,,,4,,,61,0
241440,control_change,120,0,4,,,,,,,64,0,4,,,,
241440,note_on,0,0,2,,,,,,,,,2,,,66,84
241440,control_change,440,0,3,,,,,,,64,0,3,,,,
241440,note_on,0,0,2,,,,,,,,,2,,,75,84
241440,set_tempo,40,1,0,,,,,,1111111,,,,,,,
241440,note_on,0,0,5,,,,,,,,,5,,,35,84
241480,control_change,40,0,2,,,,,,,64,127,2,,,,
241480,control_change,40,0,1,,,,,,,64,127,1,,,,
241480,control_change,40,0,5,,,,,,,64,127,5,,,,
241480,control_change,40,0,4,,,,,,,64,127,4,,,,
241480,control_change,40,0,3,,,,,,,64,127,3,,,,
241560,note_on,80,0,4,,,,,,,,,4,,,51,85
241560,note_off,80,0,5,,,,,,,,,5,,,35,0
241680,note_off,0,0,1,,,,,,,,,1,,,71,0
241680,control_change,200,0,1,,,,,,,64,0,1,,,,
241680,control_change,200,0,3,,,,,,,64,0,3,,,,
241680,control_change,200,0,2,,,,,,,64,0,2,,,,
241680,control_change,120,0,5,,,,,,,64,0,5,,,,
241680,note_on,0,0,5,,,,,,,,,5,,,37,87
241680,note_off,0,0,2,,,,,,,,,2,,,66,0
241680,note_on,0,0,1,,,,,,,,,1,,,68,87
241680,note_on,0,0,2,,,,,,,,,2,,,73,87
241680,note_on,0,0,2,,,,,,,,,2,,,64,87
241680,note_off,0,0,4,,,,,,,,,4,,,51,0
241680,control_change,120,0,4,,,,,,,64,0,4,,,,
241680,note_off,0,0,2,,,,,,,,,2,,,75,0
241720,control_change,40,0,1,,,,,,,64,127,1,,,,
241720,control_change,40,0,4,,,,,,,64,127,4,,,,
241720,control_change,40,0,3,,,,,,,64,127,3,,,,
241720,control_change,40,0,2,,,,,,,64,127,2,,,,
241720,control_change,40,0,5,,,,,,,64,127,5,,,,
241800,note_on,0,0,1,,,,,,,,,1,,,70,88
241800,note_off,80,0,1,,,,,,,,,1,,,68,0
241800,note_off,80,0,5,,,,,,,,,5,,,37,0
241800,note_on,80,0,4,,,,,,,,,4,,,52,88
241920,control_change,120,0,4,,,,,,,64,0,4,,,,
241920,control_change,200,0,3,,,,,,,64,0,3,,,,
241920,control_change,120,0,1,,,,,,,64,0,1,,,,
241920,note_off,0,0,1,,,,,,,,,1,,,70,0
241920,note_on,0,0,1,,,,,,,,,1,,,66,89
241920,note_on,0,0,2,,,,,,,,,2,,,63,89
241920,note_off,0,0,2,,,,,,,,,2,,,73,0
241920,note_on,0,0,2,,,,,,,,,2,,,71,89
241920,note_off,0,0,4,,,,,,,,,4,,,52,0
241920,control_change,120,0,5,,,,,,,64,0,5,,,,
241920,note_off,0,0,2,,,,,,,,,2,,,64,0
241920,note_on,0,0,5,,,,,,,,,5,,,39,89
241920,control_change,200,0,2,,,,,,,64,0,2,,,,
241960,control_change,40,0,5,,,,,,,64,127,5,,,,
241960,control_change,40,0,3,,,,,,,64,127,3,,,,
241960,control_change,40,0,1,,,,,,,64,127,1,,,,
241960,control_change,40,0,4,,,,,,,64,127,4,,,,
241960,control_change,40,0,2,,,,,,,64,127,2,,,,
242040,note_on,80,0,4,,,,,,,,,4,,,54,90
242040,note_off,80,0,5,,,,,,,,,5,,,39,0
242160,control_change,200,0,1,,,,,,,64,0,1,,,,
242160,note_on,0,0,2,,,,,,,,,2,,,64,91
242160,note_off,0,0,2,,,,,,,,,2,,,63,0
242160,note_off,0,0,2,,,,,,,,,2,,,71,0
242160,control_change,200,0,2,,,,,,,64,0,2,,,,
242160,control_change,120,0,4,,,,,,,64,0,4,,,,
242160,note_on,0,0,1,,,,,,,,,1,,,71,91
242160,note_off,0,0,1,,,,,,,,,1,,,66,0
242160,control_change,200,0,3,,,,,,,64,0,3,,,,
242160,note_on,0,0,2,,,,,,,,,2,,,68,91
242160,note_on,0,0,5,,,,,,,,,5,,,37,91
242160,control_change,120,0,5,,,,,,,64,0,5,,,,
242160,note_off,0,0,4,,,,,,,,,4,,,54,0
242200,control_change,40,0,3,,,,,,,64,127,3,,,,
242200,control_change,40,0,5,,,,,,,64,127,5,,,,
242200,control_change,40,0,2,,,,,,,64,127,2,,,,
242200,control_change,40,0,4,,,,,,,64,127,4,,,,
242200,control_change,40,0,1,,,,,,,64,127,1,,,,
242280,note_off,80,0,2,,,,,,,,,2,,,68,0
242280,note_on,0,0,2,,,,,,,,,2,,,70,92
242280,note_off,80,0,5,,,,,,,,,5,,,37,0
242280,note_off,80,0,1,,,,,,,,,1,,,71,0
242280,note_on,80,0,4,,,,,,,,,4,,,52,92
242280,note_on,0,0,1,,,,,,,,,1,,,73,92
242360,set_tempo,920,1,0,,,,,,1132075,,,,,,,
242400,control_change,120,0,1,,,,,,,64,0,1,,,,
242400,control_change,200,0,3,,,,,,,64,0,3,,,,
242400,note_off,0,0,1,,,,,,,,,1,,,73,0
242400,control_change,120,0,5,,,,,,,64,0,5,,,,
242400,note_on,0,0,5,,,,,,,,,5,,,35,95
242400,note_on,0,0,1,,,,,,,,,1,,,75,95
242400,set_tempo,40,1,0,,,,,,1111111,,,,,,,
242400,note_on,0,0,2,,,,,,,,,2,,,66,95
242400,note_off,0,0,2,,,,,,,,,2,,,70,0
242400,note_off,0,0,2,,,,,,,,,2,,,64,0
242400,note_on,0,0,2,,,,,,,,,2,,,63,95
242400,control_change,120,0,2,,,,,,,64,0,2,,,,
242400,control_change,120,0,4,,,,,,,64,0,4,,,,
242400,note_off,0,0,4,,,,,,,,,4,,,52,0
242440,control_change,40,0,4,,,,,,,64,127,4,,,,
242440,control_change,40,0,3,,,,,,,64,127,3,,,,
242440,control_change,40,0,2,,,,,,,64,127,2,,,,
242440,control_change,40,0,1,,,,,,,64,127,1,,,,
242440,control_change,40,0,5,,,,,,,64,127,5,,,,
242520,note_off,80,0,5,,,,,,,,,5,,,35,0
242520,note_on,0,0,1,,,,,,,,,1,,,71,92
242520,note_off,80,0,1,,,,,,,,,1,,,75,0
242520,note_on,80,0,4,,,,,,,,,4,,,51,92
242640,note_off,0,0,4,,,,,,,,,4,,,51,0
242640,control_change,120,0,5,,,,,,,64,0,5,,,,
242640,note_on,0,0,1,,,,,,,,,1,,,68,90
242640,note_on,0,0,5,,,,,,,,,5,,,37,90
242640,control_change,120,0,1,,,,,,,64,0,1,,,,
242640,control_change,120,0,4,,,,,,,64,0,4,,,,
242640,note_off,0,0,1,,,,,,,,,1,,,71,0
242640,note_off,0,0,2,,,,,,,,,2,,,63,0
242640,note_off,0,0,2,,,,,,,,,2,,,66,0
242640,control_change,200,0,3,,,,,,,64,0,3,,,,
242640,control_change,200,0,2,,,,,,,64,0,2,,,,
242640,note_on,0,0,2,,,,,,,,,2,,,64,90
242680,control_change,40,0,4,,,,,,,64,127,4,,,,
242680,control_change,40,0,1,,,,,,,64,127,1,,,,
242680,control_change,40,0,2,,,,,,,64,127,2,,,,
242680,control_change,40,0,3,,,,,,,64,127,3,,,,
242680,control_change,40,0,5,,,,,,,64,127,5,,,,
242760,note_off,80,0,2,,,,,,,,,2,,,64,0
242760,note_on,0,0,2,,,,,,,,,2,,,61,88
242760,note_off,80,0,5,,,,,,,,,5,,,37,0
242760,note_off,80,0,1,,,,,,,,,1,,,68,0
242760,note_on,0,0,1,,,,,,,,,1,,,70,88
242760,note_on,80,0,4,,,,,,,,,4,,,52,88
242880,control_change,120,0,5,,,,,,,64,0,5,,,,
242880,note_on,0,0,5,,,,,,,,,5,,,39,86
242880,note_off,0,0,4,,,,,,,,,4,,,52,0
242880,control_change,200,0,3,,,,,,,64,0,3,,,,
242880,note_on,0,0,2,,,,,,,,,2,,,54,86
242880,note_on,0,0,2,,,,,,,,,2,,,59,86
242880,note_on,0,0,1,,,,,,,,,1,,,66,86
242880,note_off,0,0,1,,,,,,,,,1,,,70,0
242880,control_change,120,0,1,,,,,,,64,0,1,,,,
242880,control_change,120,0,4,,,,,,,64,0,4,,,,
242880,control_change,120,0,2,,,,,,,64,0,2,,,,
242880,note_off,0,0,2,,,,,,,,,2,,,61,0
242920,control_change,40,0,4,,,,,,,64,127,4,,,,
242920,control_change,40,0,2,,,,,,,64,127,2,,,,
242920,control_change,40,0,3,,,,,,,64,127,3,,,,
242920,control_change,40,0,1,,,,,,,64,127,1,,,,
242920,control_change,40,0,5,,,,,,,64,127,5,,,,
243000,note_off,80,0,1,,,,,,,,,1,,,66,0
243000,note_on,80,0,4,,,,,,,,,4,,,47,83
243000,note_off,80,0,5,,,,,,,,,5,,,39,0
243000,note_on,0,0,1,,,,,,,,,1,,,63,83
243120,control_change,120,0,4,,,,,,,64,0,4,,,,
243120,note_on,0,0,4,,,,,,,,,4,,,44,81
243120,note_on,0,0,1,,,,,,,,,1,,,61,81
243120,note_off,0,0,1,,,,,,,,,1,,,63,0
243120,note_off,0,0,4,,,,,,,,,4,,,47,0
243120,control_change,120,0,1,,,,,,,64,0,1,,,,
243120,control_change,120,0,5,,,,,,,64,0,5,,,,
243120,control_change,200,0,2,,,,,,,64,0,2,,,,
243120,note_off,0,0,2,,,,,,,,,2,,,59,0
243120,note_off,0,0,2,,,,,,,,,2,,,54,0
243120,note_on,0,0,2,,,,,,,,,2,,,53,81
243120,note_on,0,0,2,,,,,,,,,2,,,59,81
243120,control_change,200,0,3,,,,,,,64,0,3,,,,
243160,control_change,40,0,4,,,,,,,64,127,4,,,,
243160,control_change,40,0,1,,,,,,,64,127,1,,,,
243160,control_change,40,0,5,,,,,,,64,127,5,,,,
243160,control_change,40,0,2,,,,,,,64,127,2,,,,
243160,control_change,40,0,3,,,,,,,64,127,3,,,,
243240,note_off,80,0,1,,,,,,,,,1,,,61,0
243240,note_on,0,0,1,,,,,,,,,1,,,63,79
243240,note_off,80,0,4,,,,,,,,,4,,,44,0
243240,note_on,80,0,5,,,,,,,,,5,,,37,79
243300,set_tempo,900,1,0,,,,,,1132075,,,,,,,
243360,control_change,200,0,3,,,,,,,64,0,3,,,,
243360,note_off,0,0,5,,,,,,,,,5,,,37,0
243360,note_on,0,0,5,,,,,,,,,5,,,39,77
243360,control_change,120,0,1,,,,,,,64,0,1,,,,
243360,note_off,0,0,1,,,,,,,,,1,,,63,0
243360,note_on,0,0,1,,,,,,,,,1,,,59,77
243360,control_change,120,0,5,,,,,,,64,0,5,,,,
243360,note_on,0,0,2,,,,,,,,,2,,,56,77
243360,control_change,200,0,2,,,,,,,64,0,2,,,,
243360,control_change,120,0,4,,,,,,,64,0,4,,,,
243360,note_off,0,0,2,,,,,,,,,2,,,53,0
243360,note_off,0,0,2,,,,,,,,,2,,,59,0
243400,control_change,40,0,4,,,,,,,64,127,4,,,,
243400,control_change,40,0,2,,,,,,,64,127,2,,,,
243400,control_change,40,0,1,,,,,,,64,127,1,,,,
243400,control_change,40,0,5,,,,,,,64,127,5,,,,
243400,control_change,40,0,3,,,,,,,64,127,3,,,,
243480,note_off,80,0,5,,,,,,,,,5,,,39,0
243480,note_on,80,0,4,,,,,,,,,4,,,51,72
243600,control_change,200,0,3,,,,,,,64,0,3,,,,
243600,note_off,0,0,1,,,,,,,,,1,,,59,0
243600,control_change,120,0,5,,,,,,,64,0,5,,,,
243600,control_change,200,0,2,,,,,,,64,0,2,,,,
243600,note_off,0,0,2,,,,,,,,,2,,,56,0
243600,note_on,0,0,2,,,,,,,,,2,,,55,67
243600,control_change,200,0,1,,,,,,,64,0,1,,,,
243600,note_on,0,0,1,,,,,,,,,1,,,58,67
243600,control_change,120,0,4,,,,,,,64,0,4,,,,
243600,note_off,0,0,4,,,,,,,,,4,,,51,0
243780,set_tempo,480,1,0,,,,,,1176470,,,,,,,
243840,note_on,0,0,1,,,,,,,,,1,,,56,57
243840,note_off,0,0,1,,,,,,,,,1,,,58,0
243840,control_change,240,0,1,,,,,,,64,0,1,,,,
243840,note_on,0,0,5,,,,,,,,,5,,,32,57
243840,control_change,240,0,3,,,,,,,64,0,3,,,,
243840,control_change,240,0,5,,,,,,,64,0,5,,,,
243840,note_off,0,0,2,,,,,,,,,2,,,55,0
243840,control_change,240,0,2,,,,,,,64,0,2,,,,
243840,control_change,240,0,4,,,,,,,64,0,4,,,,
243880,control_change,40,0,3,,,,,,,64,127,3,,,,
243880,control_change,40,0,4,,,,,,,64,127,4,,,,
243880,control_change,40,0,1,,,,,,,64,127,1,,,,
243880,control_change,40,0,2,,,,,,,64,127,2,,,,
243880,control_change,40,0,5,,,,,,,64,127,5,,,,
243960,note_on,80,0,4,,,,,,,,,4,,,44,52
243960,note_off,80,0,5,,,,,,,,,5,,,32,0
244020,set_tempo,240,1,0,,,,,,1578947,,,,,,,
244080,note_on,0,0,1,,,,,,,,,1,,,68,45
244080,note_off,0,0,1,,,,,,,,,1,,,56,0
244080,control_change,200,0,2,,,,,,,64,0,2,,,,
244080,note_off,0,0,4,,,,,,,,,4,,,44,0
244080,control_change,120,0,4,,,,,,,64,0,4,,,,
244080,control_change,200,0,1,,,,,,,64,0,1,,,,
244080,set_tempo,60,1,0,,,,,,1132075,,,,,,,
244080,control_change,200,0,3,,,,,,,64,0,3,,,,
244080,control_change,120,0,5,,,,,,,64,0,5,,,,
244200,set_tempo,120,1,0,,,,,,1111111,,,,,,,
244320,note_on,240,0,4,,,,,,,,,4,,,57,51
244320,note_on,0,0,1,,,,,,,,,1,,,69,51
244320,set_tempo,120,1,0,,,,,,1111111,,,,,,,
244320,note_off,240,0,1,,,,,,,,,1,,,68,0
244320,note_on,240,0,5,,,,,,,,,5,,,45,51
244560,note_off,240,0,1,,,,,,,,,1,,,69,0
244560,note_on,0,0,1,,,,,,,,,1,,,64,47
244560,note_off,240,0,5,,,,,,,,,5,,,45,0
244560,note_on,0,0,5,,,,,,,,,5,,,40,47
244560,note_off,240,0,4,,,,,,,,,4,,,57,0
244800,note_off,240,0,5,,,,,,,,,5,,,40,0
244800,note_on,0,0,5,,,,,,,,,5,,,37,44
244800,note_on,240,0,4,,,,,,,,,4,,,49,44
244800,note_off,240,0,1,,,,,,,,,1,,,64,0
244800,note_on,0,0,1,,,,,,,,,1,,,61,44
245040,note_off,240,0,5,,,,,,,,,5,,,37,0
245040,note_on,0,0,5,,,,,,,,,5,,,40,41
245040,note_off,240,0,4,,,,,,,,,4,,,49,0
245040,note_off,240,0,1,,,,,,,,,1,,,61,0
245040,note_on,0,0,1,,,,,,,,,1,,,64,41
245280,note_on,0,0,1,,,,,,,,,1,,,68,47
245280,note_on,0,0,5,,,,,,,,,5,,,44,47
245280,note_off,240,0,5,,,,,,,,,5,,,40,0
245280,note_off,240,0,1,,,,,,,,,1,,,64,0
245280,note_on,240,0,4,,,,,,,,,4,,,56,47
245520,note_off,240,0,1,,,,,,,,,1,,,68,0
245520,note_on,0,0,1,,,,,,,,,1,,,63,44
245520,note_off,240,0,4,,,,,,,,,4,,,56,0
245520,note_off,240,0,5,,,,,,,,,5,,,44,0
245520,note_on,0,0,5,,,,,,,,,5,,,39,44
245760,note_on,240,0,4,,,,,,,,,4,,,47,41
245760,note_on,0,0,1,,,,,,,,,1,,,59,41
245760,note_off,240,0,1,,,,,,,,,1,,,63,0
245760,note_on,0,0,5,,,,,,,,,5,,,35,41
245760,note_off,240,0,5,,,,,,,,,5,,,39,0
246000,note_on,0,0,5,,,,,,,,,5,,,39,38
246000,note_off,240,0,4,,,,,,,,,4,,,47,0
246000,note_off,240,0,1,,,,,,,,,1,,,59,0
246000,note_on,0,0,1,,,,,,,,,1,,,63,38
246000,note_off,240,0,5,,,,,,,,,5,,,35,0
246240,note_on,0,0,1,,,,,,,,,1,,,66,42
246240,note_off,240,0,5,,,,,,,,,5,,,39,0
246240,note_on,0,0,5,,,,,,,,,5,,,42,42
246240,note_on,240,0,4,,,,,,,,,4,,,54,42
246240,note_off,240,0,1,,,,,,,,,1,,,63,0
246480,note_off,240,0,1,,,,,,,,,1,,,66,0
246480,note_on,0,0,1,,,,,,,,,1,,,64,41
246480,note_off,240,0,4,,,,,,,,,4,,,54,0
246480,note_off,240,0,5,,,,,,,,,5,,,42,0
246480,note_on,0,0,4,,,,,,,,,4,,,52,41
246480,note_on,0,0,5,,,,,,,,,5,,,40,41
246600,note_off,120,0,4,,,,,,,,,4,,,52,0
246600,note_off,120,0,1,,,,,,,,,1,,,64,0
246600,note_on,0,0,1,,,,,,,,,1,,,63,40
246600,note_on,0,0,5,,,,,,,,,5,,,39,40
246600,note_on,0,0,4,,,,,,,,,4,,,51,40
246600,note_off,120,0,5,,,,,,,,,5,,,40,0
246720,note_off,120,0,4,,,,,,,,,4,,,51,0
246720,note_on,0,0,1,,,,,,,,,1,,,61,39
246720,note_on,0,0,4,,,,,,,,,4,,,49,39
246720,note_off,120,0,5,,,,,,,,,5,,,39,0
246720,note_off,120,0,1,,,,,,,,,1,,,63,0
246720,note_on,0,0,5,,,,,,,,,5,,,37,39
246960,note_on,0,0,4,,,,,,,,,4,,,47,37
246960,note_off,240,0,1,,,,,,,,,1,,,61,0
246960,note_off,240,0,4,,,,,,,,,4,,,49,0
246960,note_off,240,0,5,,,,,,,,,5,,,37,0
246960,note_on,0,0,5,,,,,,,,,5,,,35,37
246960,note_on,0,0,1,,,,,,,,,1,,,59,37
247080,note_on,0,0,1,,,,,,,,,1,,,58,36
247080,note_off,120,0,1,,,,,,,,,1,,,59,0
247080,note_on,0,0,4,,,,,,,,,4,,,46,36
247080,note_off,120,0,5,,,,,,,,,5,,,35,0
247080,note_on,0,0,5,,,,,,,,,5,,,34,36
247080,note_off,120,0,4,,,,,,,,,4,,,47,0
247200,note_on,0,0,4,,,,,,,,,4,,,51,41
247200,note_off,120,0,1,,,,,,,,,1,,,58,0
247200,note_on,0,0,1,,,,,,,,,1,,,63,41
247200,note_off,120,0,4,,,,,,,,,4,,,46,0
247200,note_off,120,0,5,,,,,,,,,5,,,34,0
247200,note_on,0,0,5,,,,,,,,,5,,,39,41
247440,note_off,240,0,1,,,,,,,,,1,,,63,0
247440,note_off,240,0,4,,,,,,,,,4,,,51,0
247440,note_on,0,0,5,,,,,,,,,5,,,40,38
247440,note_off,240,0,5,,,,,,,,,5,,,39,0
247440,note_on,0,0,1,,,,,,,,,1,,,64,38
247440,note_on,0,0,4,,,,,,,,,4,,,52,38
247680,note_on,0,0,5,,,,,,,,,5,,,37,35
247680,note_on,0,0,4,,,,,,,,,4,,,49,35
247680,note_off,240,0,4,,,,,,,,,4,,,52,0
247680,note_off,240,0,5,,,,,,,,,5,,,40,0
247680,note_off,240,0,1,,,,,,,,,1,,,64,0
247680,note_on,0,0,1,,,,,,,,,1,,,61,35
247920,note_off,240,0,4,,,,,,,,,4,,,49,0
247920,note_off,240,0,5,,,,,,,,,5,,,37,0
247920,note_on,0,0,5,,,,,,,,,5,,,39,31
247920,note_on,0,0,1,,,,,,,,,1,,,63,31
247920,note_off,240,0,1,,,,,,,,,1,,,61,0
247920,note_on,0,0,4,,,,,,,,,4,,,51,31
248160,note_on,0,0,5,,,,,,,,,5,,,52,33
248160,note_off,240,0,1,,,,,,,,,1,,,63,0
248160,note_off,240,0,5,,,,,,,,,5,,,39,0
248160,note_on,0,0,5,,,,,,,,,5,,,32,33
248160,note_on,0,0,5,,,,,,,,,5,,,44,33
248160,note_off,240,0,4,,,,,,,,,4,,,51,0
248160,note_on,0,0,4,,,,,,,,,4,,,55,33
248160,note_on,0,0,1,,,,,,,,,1,,,61,33
248400,note_on,4320,0,2,,,,,,,,,2,,,59,32
248400,note_on,0,0,4,,,,,,,,,4,,,56,32
248400,note_off,240,0,4,,,,,,,,,4,,,55,0
248400,note_on,0,0,5,,,,,,,,,5,,,51,32
248400,note_off,240,0,5,,,,,,,,,5,,,52,0
248400,note_off,240,0,1,,,,,,,,,1,,,61,0
248640,note_off,240,0,2,,,,,,,,,2,,,59,0
248640,note_off,240,0,4,,,,,,,,,4,,,56,0
248640,note_on,0,0,4,,,,,,,,,4,,,54,29
248640,note_on,0,0,2,,,,,,,,,2,,,58,29
248640,note_off,240,0,5,,,,,,,,,5,,,51,0
248640,note_on,0,0,5,,,,,,,,,5,,,49,29
248880,note_off,240,0,4,,,,,,,,,4,,,54,0
248880,note_on,0,0,4,,,,,,,,,4,,,47,47
248880,note_on,480,0,1,,,,,,,,,1,,,68,47
248880,note_on,0,0,1,,,,,,,,,1,,,80,47
248880,note_off,0,0,5,,,,,,,,,5,,,49,0
248880,note_off,0,0,5,,,,,,,,,5,,,44,0
248880,note_off,240,0,5,,,,,,,,,5,,,32,0
248880,note_off,240,0,2,,,,,,,,,2,,,58,0
248880,note_on,0,0,2,,,,,,,,,2,,,56,47
248880,note_on,0,0,5,,,,,,,,,5,,,44,47
249000,set_tempo,4680,1,0,,,,,,1132075,,,,,,,
249120,note_off,0,0,5,,,,,,,,,5,,,44,0
249120,note_on,0,0,1,,,,,,,,,1,,,69,53
249120,note_on,0,0,1,,,,,,,,,1,,,81,53
249120,control_change,240,0,2,,,,,,,64,0,2,,,,
249120,note_off,0,0,2,,,,,,,,,2,,,56,0
249120,control_change,240,0,5,,,,,,,64,0,5,,,,
249120,set_tempo,120,1,0,,,,,,1111111,,,,,,,
249120,control_change,5040,0,3,,,,,,,64,0,3,,,,
249120,note_on,0,0,5,,,,,,,,,5,,,49,53
249120,note_off,0,0,1,,,,,,,,,1,,,68,0
249120,note_off,0,0,4,,,,,,,,,4,,,47,0
249120,control_change,240,0,1,,,,,,,64,0,1,,,,
249120,note_off,0,0,1,,,,,,,,,1,,,80,0
249120,control_change,240,0,4,,,,,,,64,0,4,,,,
249120,note_on,0,0,4,,,,,,,,,4,,,52,53
249160,control_change,40,0,3,,,,,,,64,127,3,,,,
249160,control_change,40,0,4,,,,,,,64,127,4,,,,
249160,control_change,40,0,2,,,,,,,64,127,2,,,,
249160,control_change,40,0,5,,,,,,,64,127,5,,,,
249160,control_change,40,0,1,,,,,,,64,127,1,,,,
249240,note_off,80,0,4,,,,,,,,,4,,,52,0
249240,note_on,0,0,4,,,,,,,,,4,,,52,51
249240,note_off,80,0,5,,,,,,,,,5,,,49,0
249360,note_off,200,0,1,,,,,,,,,1,,,81,0
249360,note_off,0,0,1,,,,,,,,,1,,,69,0
249360,note_on,0,0,1,,,,,,,,,1,,,76,50
249360,note_on,0,0,1,,,,,,,,,1,,,64,50
249360,note_off,120,0,4,,,,,,,,,4,,,52,0
249480,note_on,120,0,4,,,,,,,,,4,,,57,49
249600,note_off,0,0,4,,,,,,,,,4,,,57,0
249600,control_change,360,0,5,,,,,,,64,0,5,,,,
249600,note_on,0,0,5,,,,,,,,,5,,,52,48
249600,control_change,440,0,2,,,,,,,64,0,2,,,,
249600,control_change,120,0,4,,,,,,,64,0,4,,,,
249600,control_change,440,0,3,,,,,,,64,0,3,,,,
249600,note_on,0,0,1,,,,,,,,,1,,,61,48
249600,note_on,0,0,1,,,,,,,,,1,,,73,48
249600,note_off,0,0,1,,,,,,,,,1,,,76,0
249600,note_off,0,0,1,,,,,,,,,1,,,64,0
249600,control_change,240,0,1,,,,,,,64,0,1,,,,
249600,note_on,0,0,4,,,,,,,,,4,,,56,48
249640,control_change,40,0,2,,,,,,,64,127,2,,,,
249640,control_change,40,0,5,,,,,,,64,127,5,,,,
249640,control_change,40,0,3,,,,,,,64,127,3,,,,
249640,control_change,40,0,4,,,,,,,64,127,4,,,,
249640,control_change,40,0,1,,,,,,,64,127,1,,,,
249720,note_off,80,0,5,,,,,,,,,5,,,52,0
249720,note_on,0,0,5,,,,,,,,,5,,,52,47
249720,note_off,80,0,4,,,,,,,,,4,,,56,0
249840,note_on,0,0,1,,,,,,,,,1,,,76,45
249840,note_on,0,0,1,,,,,,,,,1,,,64,45
249840,note_off,200,0,1,,,,,,,,,1,,,61,0
249840,note_off,120,0,5,,,,,,,,,5,,,52,0
249840,note_off,0,0,1,,,,,,,,,1,,,73,0
249960,note_on,120,0,5,,,,,,,,,5,,,49,44
250080,note_off,0,0,1,,,,,,,,,1,,,64,0
250080,note_on,0,0,1,,,,,,,,,1,,,80,51
250080,control_change,240,0,1,,,,,,,64,0,1,,,,
250080,control_change,120,0,5,,,,,,,64,0,5,,,,
250080,note_off,0,0,5,,,,,,,,,5,,,49,0
250080,note_on,0,0,5,,,,,,,,,5,,,47,51
250080,note_on,0,0,1,,,,,,,,,1,,,68,51
250080,note_on,0,0,4,,,,,,,,,4,,,51,51
250080,control_change,360,0,4,,,,,,,64,0,4,,,,
250080,control_change,440,0,3,,,,,,,64,0,3,,,,
250080,note_off,0,0,1,,,,,,,,,1,,,76,0
250080,control_change,440,0,2,,,,,,,64,0,2,,,,
250120,control_change,40,0,5,,,,,,,64,127,5,,,,
250120,control_change,40,0,4,,,,,,,64,127,4,,,,
250120,control_change,40,0,3,,,,,,,64,127,3,,,,
250120,control_change,40,0,1,,,,,,,64,127,1,,,,
250120,control_change,40,0,2,,,,,,,64,127,2,,,,
250200,note_off,80,0,4,,,,,,,,,4,,,51,0
250200,note_on,0,0,4,,,,,,,,,4,,,51,49
250200,note_off,80,0,5,,,,,,,,,5,,,47,0
250320,note_off,120,0,4,,,,,,,,,4,,,51,0
250320,note_on,0,0,1,,,,,,,,,1,,,75,48
250320,note_off,0,0,1,,,,,,,,,1,,,80,0
250320,note_off,200,0,1,,,,,,,,,1,,,68,0
250320,note_on,0,0,1,,,,,,,,,1,,,63,48
250440,note_on,120,0,4,,,,,,,,,4,,,56,46
250560,control_change,120,0,4,,,,,,,64,0,4,,,,
250560,note_on,0,0,5,,,,,,,,,5,,,51,45
250560,control_change,360,0,5,,,,,,,64,0,5,,,,
250560,control_change,440,0,2,,,,,,,64,0,2,,,,
250560,note_off,0,0,4,,,,,,,,,4,,,56,0
250560,control_change,240,0,1,,,,,,,64,0,1,,,,
250560,note_off,0,0,1,,,,,,,,,1,,,63,0
250560,note_off,0,0,1,,,,,,,,,1,,,75,0
250560,note_on,0,0,1,,,,,,,,,1,,,59,45
250560,control_change,440,0,3,,,,,,,64,0,3,,,,
250560,note_on,0,0,1,,,,,,,,,1,,,71,45
250560,note_on,0,0,4,,,,,,,,,4,,,54,45
250600,control_change,40,0,1,,,,,,,64,127,1,,,,
250600,control_change,40,0,4,,,,,,,64,127,4,,,,
250600,control_change,40,0,2,,,,,,,64,127,2,,,,
250600,control_change,40,0,5,,,,,,,64,127,5,,,,
250600,control_change,40,0,3,,,,,,,64,127,3,,,,
250680,note_off,80,0,4,,,,,,,,,4,,,54,0
250680,note_off,80,0,5,,,,,,,,,5,,,51,0
250680,note_on,0,0,5,,,,,,,,,5,,,51,43
250800,note_off,120,0,5,,,,,,,,,5,,,51,0
250800,note_off,0,0,1,,,,,,,,,1,,,59,0
250800,note_off,200,0,1,,,,,,,,,1,,,71,0
250800,note_on,0,0,1,,,,,,,,,1,,,75,42
250800,note_on,0,0,1,,,,,,,,,1,,,63,42
250920,note_on,120,0,5,,,,,,,,,5,,,47,40
251040,control_change,120,0,5,,,,,,,64,0,5,,,,
251040,control_change,440,0,2,,,,,,,64,0,2,,,,
251040,note_on,0,0,5,,,,,,,,,5,,,46,45
251040,note_on,0,0,4,,,,,,,,,4,,,49,45
251040,control_change,440,0,3,,,,,,,64,0,3,,,,
251040,control_change,360,0,4,,,,,,,64,0,4,,,,
251040,note_on,0,0,1,,,,,,,,,1,,,78,45
251040,note_on,0,0,1,,,,,,,,,1,,,66,45
251040,note_off,0,0,1,,,,,,,,,1,,,75,0
251040,control_change,240,0,1,,,,,,,64,0,1,,,,
251040,note_off,0,0,5,,,,,,,,,5,,,47,0
251040,note_off,0,0,1,,,,,,,,,1,,,63,0
251080,control_change,40,0,5,,,,,,,64,127,5,,,,
251080,control_change,40,0,4,,,,,,,64,127,4,,,,
251080,control_change,40,0,1,,,,,,,64,127,1,,,,
251080,control_change,40,0,3,,,,,,,64,127,3,,,,
251080,control_change,40,0,2,,,,,,,64,127,2,,,,
251160,note_off,80,0,5,,,,,,,,,5,,,46,0
251160,note_on,0,0,4,,,,,,,,,4,,,49,44
251160,note_off,80,0,4,,,,,,,,,4,,,49,0
251280,note_off,200,0,1,,,,,,,,,1,,,78,0
251280,note_off,0,0,1,,,,,,,,,1,,,66,0
251280,note_on,0,0,1,,,,,,,,,1,,,64,43
251280,note_on,0,0,1,,,,,,,,,1,,,76,43
251280,note_off,120,0,4,,,,,,,,,4,,,49,0
251400,note_on,0,0,1,,,,,,,,,1,,,75,42
251400,note_on,120,0,4,,,,,,,,,4,,,54,42
251400,note_off,120,0,1,,,,,,,,,1,,,76,0
251400,note_on,0,0,1,,,,,,,,,1,,,63,42
251400,note_off,0,0,1,,,,,,,,,1,,,64,0
251520,control_change,360,0,5,,,,,,,64,0,5,,,,
251520,note_on,0,0,4,,,,,,,,,4,,,52,41
251520,note_on,0,0,5,,,,,,,,,5,,,45,41
251520,control_change,120,0,4,,,,,,,64,0,4,,,,
251520,control_change,440,0,3,,,,,,,64,0,3,,,,
251520,note_off,0,0,4,,,,,,,,,4,,,54,0
251520,control_change,120,0,1,,,,,,,64,0,1,,,,
251520,note_off,0,0,1,,,,,,,,,1,,,75,0
251520,control_change,440,0,2,,,,,,,64,0,2,,,,
251520,note_on,0,0,1,,,,,,,,,1,,,61,41
251520,note_on,0,0,1,,,,,,,,,1,,,73,41
251520,note_off,0,0,1,,,,,,,,,1,,,63,0
251560,control_change,40,0,5,,,,,,,64,127,5,,,,
251560,control_change,40,0,2,,,,,,,64,127,2,,,,
251560,control_change,40,0,1,,,,,,,64,127,1,,,,
251560,control_change,40,0,4,,,,,,,64,127,4,,,,
251560,control_change,40,0,3,,,,,,,64,127,3,,,,
251640,note_on,0,0,4,,,,,,,,,4,,,52,40
251640,note_off,80,0,5,,,,,,,,,5,,,45,0
251640,note_off,80,0,4,,,,,,,,,4,,,52,0
251760,note_on,0,0,1,,,,,,,,,1,,,75,39
251760,note_off,0,0,1,,,,,,,,,1,,,73,0
251760,note_off,120,0,4,,,,,,,,,4,,,52,0
251760,note_off,200,0,1,,,,,,,,,1,,,61,0
251760,note_on,0,0,1,,,,,,,,,1,,,63,39
251880,note_on,0,0,1,,,,,,,,,1,,,64,38
251880,note_off,0,0,1,,,,,,,,,1,,,75,0
251880,note_off,120,0,1,,,,,,,,,1,,,63,0
251880,note_on,0,0,1,,,,,,,,,1,,,76,38
251880,note_on,120,0,4,,,,,,,,,4,,,49,38
252000,note_off,0,0,1,,,,,,,,,1,,,76,0
252000,control_change,440,0,3,,,,,,,64,0,3,,,,
252000,control_change,440,0,2,,,,,,,64,0,2,,,,
252000,note_off,0,0,1,,,,,,,,,1,,,64,0
252000,note_on,0,0,5,,,,,,,,,5,,,44,43
252000,control_change,360,0,5,,,,,,,64,0,5,,,,
252000,note_on,0,0,1,,,,,,,,,1,,,68,43
252000,note_off,0,0,4,,,,,,,,,4,,,49,0
252000,control_change,120,0,4,,,,,,,64,0,4,,,,
252000,control_change,120,0,1,,,,,,,64,0,1,,,,
252120,note_on,120,0,2,,,,,,,,,2,,,64,42
252120,note_on,0,0,2,,,,,,,,,2,,,61,42
252120,note_on,120,0,4,,,,,,,,,4,,,52,42
252120,note_on,0,0,4,,,,,,,,,4,,,49,42
252120,note_on,0,0,4,,,,,,,,,4,,,56,42
252240,note_off,240,0,5,,,,,,,,,5,,,44,0
252240,note_on,0,0,5,,,,,,,,,5,,,45,41
252240,note_off,0,0,2,,,,,,,,,2,,,64,0
252240,note_off,240,0,1,,,,,,,,,1,,,68,0
252240,note_off,120,0,2,,,,,,,,,2,,,61,0
252240,note_off,0,0,4,,,,,,,,,4,,,52,0
252240,note_off,120,0,4,,,,,,,,,4,,,56,0
252240,note_on,0,0,1,,,,,,,,,1,,,69,41
252240,note_off,0,0,4,,,,,,,,,4,,,49,0
252360,note_on,120,0,2,,,,,,,,,2,,,61,40
252360,note_on,0,0,4,,,,,,,,,4,,,57,40
252360,note_on,0,0,4,,,,,,,,,4,,,49,40
252360,note_on,0,0,2,,,,,,,,,2,,,64,40
252360,note_on,120,0,4,,,,,,,,,4,,,52,40
252480,note_off,240,0,5,,,,,,,,,5,,,45,0
252480,note_on,0,0,5,,,,,,,,,5,,,42,39
252480,note_off,240,0,1,,,,,,,,,1,,,69,0
252480,note_on,0,0,1,,,,,,,,,1,,,66,39
252480,note_off,0,0,4,,,,,,,,,4,,,52,0
252480,note_off,0,0,4,,,,,,,,,4,,,49,0
252480,note_off,120,0,2,,,,,,,,,2,,,64,0
252480,note_off,0,0,2,,,,,,,,,2,,,61,0
252480,note_off,120,0,4,,,,,,,,,4,,,57,0
252600,note_on,120,0,2,,,,,,,,,2,,,63,38
252600,note_on,0,0,4,,,,,,,,,4,,,49,38
252600,note_on,120,0,4,,,,,,,,,4,,,51,38
252600,note_on,0,0,2,,,,,,,,,2,,,61,38
252600,note_on,0,0,4,,,,,,,,,4,,,54,38
252720,note_off,240,0,1,,,,,,,,,1,,,66,0
252720,note_on,0,0,5,,,,,,,,,5,,,44,37
252720,note_off,240,0,5,,,,,,,,,5,,,42,0
252720,note_off,120,0,4,,,,,,,,,4,,,54,0
252720,note_on,0,0,1,,,,,,,,,1,,,68,37
252720,note_off,0,0,4,,,,,,,,,4,,,49,0
252720,note_off,120,0,2,,,,,,,,,2,,,61,0
252720,note_off,0,0,2,,,,,,,,,2,,,63,0
252720,note_off,0,0,4,,,,,,,,,4,,,51,0
252840,set_tempo,3720,1,0,,,,,,1132075,,,,,,,
252840,note_on,0,0,2,,,,,,,,,2,,,60,36
252840,note_on,120,0,2,,,,,,,,,2,,,63,36
252840,note_on,120,0,4,,,,,,,,,4,,,48,36
252840,note_on,0,0,4,,,,,,,,,4,,,51,36
252840,note_on,0,0,4,,,,,,,,,4,,,56,36
252960,note_off,240,0,5,,,,,,,,,5,,,44,0
252960,note_on,0,0,5,,,,,,,,,5,,,45,37
252960,note_on,0,0,5,,,,,,,,,5,,,37,37
252960,note_on,0,0,1,,,,,,,,,1,,,61,37
252960,note_off,0,0,2,,,,,,,,,2,,,63,0
252960,note_off,120,0,2,,,,,,,,,2,,,60,0
252960,note_off,0,0,4,,,,,,,,,4,,,48,0
252960,note_off,120,0,4,,,,,,,,,4,,,56,0
252960,note_off,0,0,4,,,,,,,,,4,,,51,0
252960,note_on,0,0,4,,,,,,,,,4,,,54,37
252960,note_off,240,0,1,,,,,,,,,1,,,68,0
253200,note_on,0,0,4,,,,,,,,,4,,,52,33
253200,note_off,240,0,4,,,,,,,,,4,,,54,0
253200,note_on,0,0,5,,,,,,,,,5,,,44,33
253200,note_off,240,0,5,,,,,,,,,5,,,45,0
253320,set_tempo,480,1,0,,,,,,1176470,,,,,,,
253440,note_on,0,0,4,,,,,,,,,4,,,51,29
253440,note_off,240,0,4,,,,,,,,,4,,,52,0
253440,note_on,0,0,5,,,,,,,,,5,,,42,29
253440,note_off,240,0,5,,,,,,,,,5,,,44,0
253440,set_tempo,120,1,0,,,,,,1333333,,,,,,,
253680,set_tempo,240,1,0,,,,,,1176470,,,,,,,
253680,note_on,0,0,1,,,,,,,,,1,,,61,43
253680,note_on,0,0,5,,,,,,,,,5,,,40,43
253680,note_off,240,0,5,,,,,,,,,5,,,42,0
253680,note_on,0,0,4,,,,,,,,,4,,,49,43
253680,note_off,240,0,4,,,,,,,,,4,,,51,0
253680,note_off,720,0,1,,,,,,,,,1,,,61,0
253680,note_on,0,0,1,,,,,,,,,1,,,73,43
253800,note_on,0,0,1,,,,,,,,,1,,,63,45
253800,note_off,120,0,1,,,,,,,,,1,,,61,0
253800,note_off,0,0,1,,,,,,,,,1,,,73,0
253800,note_on,0,0,1,,,,,,,,,1,,,75,45
253860,set_tempo,180,1,0,,,,,,1200000,,,,,,,
253920,note_off,0,0,5,,,,,,,,,5,,,37,0
253920,note_off,0,0,5,,,,,,,,,5,,,40,0
253920,control_change,240,0,5,,,,,,,64,0,5,,,,
253920,note_on,0,0,5,,,,,,,,,5,,,34,49
253920,control_change,120,0,1,,,,,,,64,0,1,,,,
253920,note_on,0,0,1,,,,,,,,,1,,,76,49
253920,note_off,0,0,1,,,,,,,,,1,,,75,0
253920,note_off,0,0,1,,,,,,,,,1,,,63,0
253920,control_change,240,0,4,,,,,,,64,0,4,,,,
253920,note_off,0,0,4,,,,,,,,,4,,,49,0
253920,set_tempo,60,1,0,,,,,,1176470,,,,,,,
253920,note_on,0,0,1,,,,,,,,,1,,,64,49
253920,control_change,1920,0,3,,,,,,,64,0,3,,,,
253920,control_change,960,0,2,,,,,,,64,0,2,,,,
253920,note_on,0,0,2,,,,,,,,,2,,,68,49
253920,note_on,0,0,2,,,,,,,,,2,,,73,49
253960,control_change,40,0,1,,,,,,,64,127,1,,,,
253960,control_change,40,0,4,,,,,,,64,127,4,,,,
253960,control_change,40,0,2,,,,,,,64,127,2,,,,
253960,control_change,40,0,3,,,,,,,64,127,3,,,,
253960,control_change,40,0,5,,,,,,,64,127,5,,,,
254040,note_off,80,0,5,,,,,,,,,5,,,34,0
254040,note_on,80,0,4,,,,,,,,,4,,,49,48
254160,note_on,0,0,4,,,,,,,,,4,,,52,48
254160,note_off,120,0,4,,,,,,,,,4,,,49,0
254280,note_on,0,0,4,,,,,,,,,4,,,56,47
254280,note_off,120,0,4,,,,,,,,,4,,,52,0
254400,note_off,120,0,4,,,,,,,,,4,,,56,0
254400,note_on,0,0,4,,,,,,,,,4,,,61,46
254520,note_off,120,0,4,,,,,,,,,4,,,61,0
254640,note_off,0,0,1,,,,,,,,,1,,,64,0
254640,note_on,0,0,1,,,,,,,,,1,,,75,48
254640,note_off,680,0,1,,,,,,,,,1,,,76,0
254640,note_on,0,0,1,,,,,,,,,1,,,63,48
254640,note_off,680,0,2,,,,,,,,,2,,,73,0
254640,note_off,0,0,2,,,,,,,,,2,,,68,0
254760,note_on,0,0,1,,,,,,,,,1,,,64,50
254760,note_off,120,0,1,,,,,,,,,1,,,63,0
254760,note_on,0,0,1,,,,,,,,,1,,,76,50
254760,note_off,0,0,1,,,,,,,,,1,,,75,0
254820,set_tempo,900,1,0,,,,,,1200000,,,,,,,
254880,note_on,0,0,5,,,,,,,,,5,,,39,53
254880,control_change,360,0,4,,,,,,,64,0,4,,,,
254880,control_change,840,0,5,,,,,,,64,0,5,,,,
254880,set_tempo,60,1,0,,,,,,1176470,,,,,,,
254880,control_change,920,0,3,,,,,,,64,0,3,,,,
254880,control_change,240,0,2,,,,,,,64,0,2,,,,
254880,note_on,0,0,2,,,,,,,,,2,,,73,53
254880,note_on,0,0,2,,,,,,,,,2,,,67,53
254880,note_on,0,0,1,,,,,,,,,1,,,75,53
254880,control_change,120,0,1,,,,,,,64,0,1,,,,
254880,note_on,0,0,1,,,,,,,,,1,,,63,53
254880,note_off,0,0,1,,,,,,,,,1,,,64,0
254880,note_off,0,0,1,,,,,,,,,1,,,76,0
254920,control_change,40,0,1,,,,,,,64,127,1,,,,
254920,control_change,40,0,4,,,,,,,64,127,4,,,,
254920,control_change,40,0,3,,,,,,,64,127,3,,,,
254920,control_change,40,0,5,,,,,,,64,127,5,,,,
254920,control_change,40,0,2,,,,,,,64,127,2,,,,
255000,note_on,80,0,4,,,,,,,,,4,,,49,50
255000,note_off,80,0,5,,,,,,,,,5,,,39,0
255120,note_off,120,0,4,,,,,,,,,4,,,49,0
255120,note_on,0,0,4,,,,,,,,,4,,,55,49
255240,note_off,120,0,4,,,,,,,,,4,,,55,0
255240,note_on,0,0,4,,,,,,,,,4,,,58,48
255360,note_on,0,0,4,,,,,,,,,4,,,61,46
255360,note_off,120,0,4,,,,,,,,,4,,,58,0
255480,note_off,120,0,4,,,,,,,,,4,,,61,0
255600,note_on,0,0,1,,,,,,,,,1,,,61,49
255600,note_on,0,0,1,,,,,,,,,1,,,73,49
255600,note_off,680,0,2,,,,,,,,,2,,,67,0
255600,note_off,0,0,2,,,,,,,,,2,,,73,0
255600,note_off,680,0,1,,,,,,,,,1,,,75,0
255600,note_off,0,0,1,,,,,,,,,1,,,63,0
255720,note_off,0,0,1,,,,,,,,,1,,,61,0
255720,note_off,120,0,1,,,,,,,,,1,,,73,0
255720,note_on,0,0,1,,,,,,,,,1,,,75,52
255720,note_on,0,0,1,,,,,,,,,1,,,63,52
255780,set_tempo,900,1,0,,,,,,1200000,,,,,,,
255840,control_change,120,0,1,,,,,,,64,0,1,,,,
255840,note_off,0,0,1,,,,,,,,,1,,,63,0
255840,note_on,0,0,1,,,,,,,,,1,,,78,54
255840,set_tempo,60,1,0,,,,,,1176470,,,,,,,
255840,note_on,0,0,5,,,,,,,,,5,,,27,54
255840,control_change,840,0,5,,,,,,,64,0,5,,,,
255840,note_on,0,0,2,,,,,,,,,2,,,73,54
255840,control_change,240,0,2,,,,,,,64,0,2,,,,
255840,control_change,920,0,3,,,,,,,64,0,3,,,,
255840,note_on,0,0,2,,,,,,,,,2,,,69,54
255840,control_change,360,0,4,,,,,,,64,0,4,,,,
255840,note_off,0,0,1,,,,,,,,,1,,,75,0
255840,note_on,0,0,1,,,,,,,,,1,,,66,54
255880,control_change,40,0,4,,,,,,,64,127,4,,,,
255880,control_change,40,0,2,,,,,,,64,127,2,,,,
255880,control_change,40,0,5,,,,,,,64,127,5,,,,
255880,control_change,40,0,3,,,,,,,64,127,3,,,,
255880,control_change,40,0,1,,,,,,,64,127,1,,,,
255960,note_on,80,0,4,,,,,,,,,4,,,49,52
255960,note_off,80,0,5,,,,,,,,,5,,,27,0
256080,note_off,120,0,4,,,,,,,,,4,,,49,0
256080,note_on,0,0,4,,,,,,,,,4,,,54,50
256200,note_off,120,0,4,,,,,,,,,4,,,54,0
256200,note_on,0,0,4,,,,,,,,,4,,,57,48
256320,note_on,0,0,4,,,,,,,,,4,,,61,46
256320,note_off,120,0,4,,,,,,,,,4,,,57,0
256440,note_off,560,0,1,,,,,,,,,1,,,66,0
256440,note_off,0,0,1,,,,,,,,,1,,,78,0
256440,note_on,0,0,1,,,,,,,,,1,,,64,44
256440,note_on,0,0,1,,,,,,,,,1,,,76,44
256440,note_off,120,0,4,,,,,,,,,4,,,61,0
256560,note_off,0,0,1,,,,,,,,,1,,,64,0
256560,note_off,120,0,1,,,,,,,,,1,,,76,0
256560,note_on,0,0,1,,,,,,,,,1,,,63,42
256560,note_on,0,0,1,,,,,,,,,1,,,75,42
256680,note_off,120,0,1,,,,,,,,,1,,,63,0
256680,note_off,0,0,1,,,,,,,,,1,,,75,0
256680,note_on,0,0,1,,,,,,,,,1,,,76,40
256680,note_on,0,0,1,,,,,,,,,1,,,64,40
256740,set_tempo,900,1,0,,,,,,1224489,,,,,,,
256800,control_change,840,0,5,,,,,,,64,0,5,,,,
256800,control_change,360,0,4,,,,,,,64,0,4,,,,
256800,note_on,0,0,5,,,,,,,,,5,,,32,42
256800,control_change,120,0,1,,,,,,,64,0,1,,,,
256800,note_off,0,0,1,,,,,,,,,1,,,64,0
256800,note_off,0,0,1,,,,,,,,,1,,,76,0
256800,note_on,0,0,1,,,,,,,,,1,,,66,42
256800,note_on,0,0,1,,,,,,,,,1,,,78,42
256800,note_on,0,0,2,,,,,,,,,2,,,73,42
256800,note_on,0,0,2,,,,,,,,,2,,,68,42
256800,note_off,0,0,2,,,,,,,,,2,,,73,0
256800,note_off,0,0,2,,,,,,,,,2,,,69,0
256800,control_change,920,0,2,,,,,,,64,0,2,,,,
256800,control_change,920,0,3,,,,,,,64,0,3,,,,
256840,control_change,40,0,4,,,,,,,64,127,4,,,,
256840,control_change,40,0,2,,,,,,,64,127,2,,,,
256840,control_change,40,0,3,,,,,,,64,127,3,,,,
256840,control_change,40,0,5,,,,,,,64,127,5,,,,
256840,control_change,40,0,1,,,,,,,64,127,1,,,,
256920,note_off,80,0,5,,,,,,,,,5,,,32,0
256920,note_on,80,0,4,,,,,,,,,4,,,49,41
256920,note_on,0,0,1,,,,,,,,,1,,,64,41
256920,note_on,0,0,1,,,,,,,,,1,,,76,41
256920,note_off,0,0,1,,,,,,,,,1,,,66,0
256920,note_off,80,0,1,,,,,,,,,1,,,78,0
257000,set_tempo,260,1,0,,,,,,1276595,,,,,,,
257040,note_on,0,0,1,,,,,,,,,1,,,63,39
257040,note_on,0,0,1,,,,,,,,,1,,,75,39
257040,note_off,0,0,1,,,,,,,,,1,,,76,0
257040,note_off,120,0,1,,,,,,,,,1,,,64,0
257040,note_on,0,0,4,,,,,,,,,4,,,56,39
257040,note_off,120,0,4,,,,,,,,,4,,,49,0
257160,note_off,120,0,1,,,,,,,,,1,,,63,0
257160,note_off,0,0,1,,,,,,,,,1,,,75,0
257160,note_off,120,0,4,,,,,,,,,4,,,56,0
257160,note_on,0,0,4,,,,,,,,,4,,,61,38
257160,note_on,0,0,1,,,,,,,,,1,,,64,38
257160,note_on,0,0,1,,,,,,,,,1,,,76,38
257220,set_tempo,220,1,0,,,,,,1333333,,,,,,,
257280,note_off,0,0,2,,,,,,,,,2,,,73,0
257280,note_off,0,0,2,,,,,,,,,2,,,68,0
257280,control_change,120,0,4,,,,,,,64,0,4,,,,
257280,note_off,0,0,4,,,,,,,,,4,,,61,0
257280,control_change,440,0,3,,,,,,,64,0,3,,,,
257280,control_change,360,0,5,,,,,,,64,0,5,,,,
257280,control_change,440,0,2,,,,,,,64,0,2,,,,
257280,note_on,0,0,5,,,,,,,,,5,,,44,36
257280,note_on,0,0,1,,,,,,,,,1,,,75,36
257280,note_off,0,0,1,,,,,,,,,1,,,76,0
257280,note_off,0,0,1,,,,,,,,,1,,,64,0
257280,control_change,120,0,1,,,,,,,64,0,1,,,,
257280,note_on,0,0,2,,,,,,,,,2,,,72,36
257280,note_on,0,0,2,,,,,,,,,2,,,66,36
257280,note_on,0,0,1,,,,,,,,,1,,,63,36
257320,control_change,40,0,1,,,,,,,64,127,1,,,,
257320,control_change,40,0,5,,,,,,,64,127,5,,,,
257320,control_change,40,0,3,,,,,,,64,127,3,,,,
257320,control_change,40,0,2,,,,,,,64,127,2,,,,
257320,control_change,40,0,4,,,,,,,64,127,4,,,,
257400,note_off,80,0,5,,,,,,,,,5,,,44,0
257400,note_on,80,0,4,,,,,,,,,4,,,56,35
257400,note_on,0,0,4,,,,,,,,,4,,,51,35
257520,note_off,120,0,4,,,,,,,,,4,,,51,0
257520,note_off,0,0,4,,,,,,,,,4,,,56,0
257520,note_on,0,0,4,,,,,,,,,4,,,60,33
257520,note_on,0,0,4,,,,,,,,,4,,,54,33
257530,set_tempo,310,1,0,,,,,,1428571,,,,,,,
257640,note_off,320,0,1,,,,,,,,,1,,,63,0
257640,note_on,0,0,1,,,,,,,,,1,,,61,32
257640,note_on,0,0,1,,,,,,,,,1,,,73,32
257640,note_off,120,0,4,,,,,,,,,4,,,60,0
257640,note_off,0,0,4,,,,,,,,,4,,,54,0
257640,note_off,0,0,1,,,,,,,,,1,,,75,0
257650,set_tempo,120,1,0,,,,,,2222222,,,,,,,
257760,note_on,0,0,2,,,,,,,,,2,,,64,35
257760,note_off,0,0,2,,,,,,,,,2,,,72,0
257760,note_off,0,0,2,,,,,,,,,2,,,66,0
257760,control_change,440,0,2,,,,,,,64,0,2,,,,
257760,control_change,120,0,4,,,,,,,64,0,4,,,,
257760,note_on,0,0,2,,,,,,,,,2,,,68,35
257760,control_change,440,0,3,,,,,,,64,0,3,,,,
257760,note_on,0,0,5,,,,,,,,,5,,,37,35
257760,control_change,120,0,1,,,,,,,64,0,1,,,,
257760,note_off,0,0,1,,,,,,,,,1,,,73,0
257760,note_off,0,0,1,,,,,,,,,1,,,61,0
257760,note_on,0,0,1,,,,,,,,,1,,,61,35
257760,note_on,0,0,1,,,,,,,,,1,,,73,35
257760,control_change,360,0,5,,,,,,,64,0,5,,,,
257800,control_change,40,0,2,,,,,,,64,127,2,,,,
257800,control_change,40,0,1,,,,,,,64,127,1,,,,
257800,control_change,40,0,3,,,,,,,64,127,3,,,,
257800,control_change,40,0,4,,,,,,,64,127,4,,,,
257800,control_change,40,0,5,,,,,,,64,127,5,,,,
258000,note_off,200,0,5,,,,,,,,,5,,,37,0
258240,set_tempo,590,1,0,,,,,,2400000,,,,,,,
258240,note_on,0,0,4,,,,,,,,,4,,,56,30
258240,note_on,440,0,4,,,,,,,,,4,,,52,30
258240,note_on,240,0,5,,,,,,,,,5,,,44,30
258720,set_tempo,480,1,0,,,,,,2727272,,,,,,,
258720,end_of_track,0,1,0,,,,,,,,,,,,,
258720,note_off,480,0,5,,,,,,,,,5,,,44,0
258720,note_on,0,0,5,,,,,,,,,5,,,49,24
259680,control_change,960,0,5,,,,,,,64,0,5,,,,
259680,end_of_track,0,1,2,,,,,,,,,,,,,
259680,note_off,0,0,4,,,,,,,,,4,,,52,0
259680,note_off,0,0,4,,,,,,,,,4,,,56,0
259680,control_change,1440,0,4,,,,,,,64,0,4,,,,
259680,note_off,0,0,5,,,,,,,,,5,,,49,0
259680,control_change,1880,0,1,,,,,,,64,0,1,,,,
259680,note_off,0,0,1,,,,,,,,,1,,,73,0
259680,note_off,0,0,1,,,,,,,,,1,,,61,0
259680,end_of_track,0,1,1,,,,,,,,,,,,,
259680,end_of_track,0,1,3,,,,,,,,,,,,,
259680,control_change,1880,0,3,,,,,,,64,0,3,,,,
259680,control_change,1880,0,2,,,,,,,64,0,2,,,,
259680,note_off,0,0,2,,,,,,,,,2,,,68,0
259680,note_off,0,0,2,,,,,,,,,2,,,64,0
259680,end_of_track,0,1,4,,,,,,,,,,,,,
259680,end_of_track,0,1,5,,,,,,,,,,,,,
