tick,type,numerator,denominator,clocks_per_click,notated_32nd_notes_per_beat,time,meta,track,tempo,data,program,channel,control,value,note,velocity
0,time_signature,4,4,24,8,0,1,0,,,,,,,,
0,control_change,,,,,0,0,14,,,,12,7,123,,
0,program_change,,,,,0,0,14,,,48,12,,,,
0,sequencer_specific,,,,,0,1,14,,"(67, 0, 1, 0)",,,,,,
0,sequencer_specific,,,,,0,1,4,,"(67, 0, 1, 0)",,,,,,
0,program_change,,,,,0,0,4,,,71,2,,,,
0,control_change,,,,,0,0,4,,,,2,7,87,,
0,control_change,,,,,0,0,4,,,,2,91,85,,
0,control_change,,,,,0,0,14,,,,12,91,80,,
0,control_change,,,,,0,0,4,,,,2,10,68,,
0,control_change,,,,,0,0,13,,,,11,10,40,,
0,control_change,,,,,0,0,13,,,,11,91,80,,
0,control_change,,,,,0,0,13,,,,11,7,123,,
0,program_change,,,,,0,0,13,,,48,11,,,,
0,sequencer_specific,,,,,0,1,13,,"(67, 0, 1, 0)",,,,,,
0,sequencer_specific,,,,,0,1,16,,"(67, 0, 1, 0)",,,,,,
0,program_change,,,,,0,0,16,,,48,14,,,,
0,program_change,,,,,0,0,7,,,70,3,,,,
0,control_change,,,,,0,0,16,,,,14,7,124,,
0,control_change,,,,,0,0,14,,,,12,10,98,,
0,control_change,,,,,0,0,3,,,,1,91,85,,
0,control_change,,,,,0,0,1,,,,0,7,88,,
0,control_change,,,,,0,0,1,,,,0,91,85,,
0,control_change,,,,,0,0,1,,,,0,10,54,,
0,control_change,,,,,0,0,15,,,,13,10,84,,
0,control_change,,,,,0,0,15,,,,13,91,85,,
0,control_change,,,,,0,0,15,,,,13,7,124,,
0,program_change,,,,,0,0,15,,,48,13,,,,
0,control_change,,,,,0,0,3,,,,1,10,64,,
0,sequencer_specific,,,,,0,1,15,,"(67, 0, 1, 0)",,,,,,
0,program_change,,,,,0,0,2,,,73,0,,,,
0,control_change,,,,,0,0,2,,,,0,7,87,,
0,control_change,,,,,0,0,2,,,,0,91,85,,
0,control_change,,,,,0,0,2,,,,0,10,54,,
0,sequencer_specific,,,,,0,1,3,,"(67, 0, 1, 0)",,,,,,
0,program_change,,,,,0,0,3,,,68,1,,,,
0,control_change,,,,,0,0,3,,,,1,7,89,,
0,sequencer_specific,,,,,0,1,2,,"(67, 0, 1, 0)",,,,,,
0,control_change,,,,,0,0,16,,,,14,91,90,,
0,control_change,,,,,0,0,16,,,,14,10,96,,
0,control_change,,,,,0,0,12,,,,10,10,28,,
0,control_change,,,,,0,0,10,,,,6,7,124,,
0,program_change,,,,,0,0,10,,,56,6,,,,
0,sequencer_specific,,,,,0,1,10,,"(67, 0, 1, 0)",,,,,,
0,control_change,,,,,0,0,9,,,,5,91,75,,
0,control_change,,,,,0,0,9,,,,5,10,38,,
0,control_change,,,,,0,0,9,,,,5,7,119,,
0,program_change,,,,,0,0,9,,,60,5,,,,
0,control_change,,,,,0,0,10,,,,6,10,92,,
0,sequencer_specific,,,,,0,1,9,,"(67, 0, 1, 0)",,,,,,
0,control_change,,,,,0,0,8,,,,4,91,75,,
0,control_change,,,,,0,0,8,,,,4,7,119,,
0,program_change,,,,,0,0,8,,,60,4,,,,
0,sequencer_specific,,,,,0,1,8,,"(67, 0, 1, 0)",,,,,,
0,control_change,,,,,0,0,7,,,,3,10,72,,
0,control_change,,,,,0,0,7,,,,3,91,85,,
0,control_change,,,,,0,0,7,,,,3,7,89,,
0,control_change,,,,,0,0,8,,,,4,10,36,,
0,control_change,,,,,0,0,10,,,,6,91,75,,
0,control_change,,,,,0,0,6,,,,3,10,72,,
0,control_change,,,,,0,0,6,,,,3,91,85,,
0,control_change,,,,,0,0,12,,,,10,91,75,,
0,control_change,,,,,0,0,12,,,,10,7,126,,
0,program_change,,,,,0,0,12,,,48,10,,,,
0,sequencer_specific,,,,,0,1,12,,"(67, 0, 1, 0)",,,,,,
0,control_change,,,,,0,0,11,,,,7,91,75,,
0,control_change,,,,,0,0,11,,,,7,10,56,,
0,control_change,,,,,0,0,11,,,,7,7,99,,
0,program_change,,,,,0,0,11,,,47,7,,,,
0,sequencer_specific,,,,,0,1,11,,"(67, 0, 1, 0)",,,,,,
0,sequencer_specific,,,,,0,1,5,,"(67, 0, 1, 0)",,,,,,
0,program_change,,,,,0,0,5,,,71,2,,,,
0,control_change,,,,,0,0,5,,,,2,7,85,,
0,control_change,,,,,0,0,5,,,,2,91,85,,
0,control_change,,,,,0,0,5,,,,2,10,68,,
0,sequencer_specific,,,,,0,1,6,,"(67, 0, 1, 0)",,,,,,
0,program_change,,,,,0,0,6,,,70,3,,,,
0,control_change,,,,,0,0,6,,,,3,7,90,,
0,program_change,,,,,0,0,1,,,73,0,,,,
0,sequencer_specific,,,,,0,1,1,,"(67, 0, 1, 0)",,,,,,
0,sequencer_specific,,,,,0,1,7,,"(67, 0, 1, 0)",,,,,,
0,set_tempo,,,,,0,1,0,483871,,,,,,,
1440,note_on,,,,,1440,0,13,,,,11,,,71,63
1440,note_on,,,,,1440,0,12,,,,10,,,83,70
1920,note_on,,,,,1920,0,16,,,,14,,,40,63
1920,note_on,,,,,0,0,13,,,,11,,,67,63
1920,note_on,,,,,0,0,12,,,,10,,,79,70
1920,note_on,,,,,480,0,13,,,,11,,,71,0
1920,note_on,,,,,0,0,8,,,,4,,,64,63
1920,note_on,,,,,1920,0,8,,,,4,,,52,63
1920,note_on,,,,,480,0,12,,,,10,,,83,0
1920,note_on,,,,,1920,0,15,,,,13,,,40,63
1920,set_tempo,,,,,1920,1,0,441176,,,,,,,
2160,note_on,,,,,0,0,15,,,,13,,,47,63
2160,note_on,,,,,240,0,15,,,,13,,,40,0
2400,note_on,,,,,0,0,4,,,,2,,,71,63
2400,note_on,,,,,2400,0,4,,,,2,,,67,63
2400,note_on,,,,,0,0,6,,,,3,,,55,63
2400,note_on,,,,,0,0,15,,,,13,,,55,63
2400,note_on,,,,,0,0,1,,,,0,,,79,63
2400,note_on,,,,,2400,0,1,,,,0,,,83,63
2400,note_on,,,,,240,0,15,,,,13,,,47,0
2400,note_on,,,,,2400,0,6,,,,3,,,59,63
2640,note_on,,,,,240,0,15,,,,13,,,55,0
2640,note_on,,,,,0,0,15,,,,13,,,59,63
2688,note_on,,,,,768,0,16,,,,14,,,40,0
2688,note_on,,,,,768,0,13,,,,11,,,67,0
2688,note_on,,,,,768,0,12,,,,10,,,79,0
2784,note_on,,,,,0,0,1,,,,0,,,83,0
2784,note_on,,,,,0,0,6,,,,3,,,59,0
2784,note_on,,,,,0,0,4,,,,2,,,67,0
2784,note_on,,,,,384,0,4,,,,2,,,71,0
2784,note_on,,,,,384,0,1,,,,0,,,79,0
2784,note_on,,,,,384,0,6,,,,3,,,55,0
2880,note_on,,,,,2880,0,14,,,,12,,,59,63
2880,note_on,,,,,0,0,14,,,,12,,,55,63
2880,note_on,,,,,0,0,15,,,,13,,,52,63
2880,note_on,,,,,240,0,15,,,,13,,,59,0
3120,note_on,,,,,240,0,14,,,,12,,,55,0
3120,note_on,,,,,0,0,14,,,,12,,,59,63
3120,note_on,,,,,0,0,14,,,,12,,,64,63
3120,note_on,,,,,0,0,14,,,,12,,,59,0
3264,note_on,,,,,384,0,15,,,,13,,,52,0
3360,note_on,,,,,672,0,13,,,,11,,,64,63
3360,note_on,,,,,0,0,4,,,,2,,,67,63
3360,note_on,,,,,576,0,4,,,,2,,,64,63
3360,note_on,,,,,576,0,1,,,,0,,,76,63
3360,note_on,,,,,672,0,12,,,,10,,,76,70
3360,note_on,,,,,576,0,6,,,,3,,,55,63
3360,note_on,,,,,240,0,14,,,,12,,,59,0
3360,note_on,,,,,0,0,14,,,,12,,,64,0
3360,note_on,,,,,0,0,14,,,,12,,,67,63
3360,note_on,,,,,0,0,14,,,,12,,,64,63
3360,note_on,,,,,0,0,6,,,,3,,,52,63
3360,note_on,,,,,0,0,1,,,,0,,,79,63
3600,note_on,,,,,0,0,14,,,,12,,,67,63
3600,note_on,,,,,0,0,14,,,,12,,,67,0
3600,note_on,,,,,0,0,14,,,,12,,,71,63
3600,note_on,,,,,240,0,14,,,,12,,,64,0
3744,note_on,,,,,384,0,6,,,,3,,,52,0
3744,note_on,,,,,0,0,6,,,,3,,,55,0
3744,note_on,,,,,0,0,4,,,,2,,,64,0
3744,note_on,,,,,384,0,4,,,,2,,,67,0
3744,note_on,,,,,384,0,1,,,,0,,,79,0
3744,note_on,,,,,0,0,1,,,,0,,,76,0
3840,note_on,,,,,480,0,13,,,,11,,,64,0
3840,note_on,,,,,480,0,12,,,,10,,,76,0
3840,note_on,,,,,0,0,12,,,,10,,,84,70
3840,note_on,,,,,576,0,15,,,,13,,,40,63
3840,note_on,,,,,1152,0,16,,,,14,,,40,63
3840,note_on,,,,,0,0,13,,,,11,,,72,63
3840,note_on,,,,,0,0,14,,,,12,,,57,63
3840,note_on,,,,,0,0,14,,,,12,,,64,63
3840,note_on,,,,,0,0,14,,,,12,,,67,0
3840,note_on,,,,,240,0,14,,,,12,,,71,0
4080,note_on,,,,,240,0,15,,,,13,,,40,0
4080,note_on,,,,,0,0,15,,,,13,,,48,63
4224,note_on,,,,,0,0,14,,,,12,,,64,0
4224,note_on,,,,,384,0,14,,,,12,,,57,0
4320,note_on,,,,,0,0,1,,,,0,,,72,63
4320,note_on,,,,,0,0,15,,,,13,,,57,63
4320,note_on,,,,,240,0,15,,,,13,,,48,0
4320,note_on,,,,,576,0,6,,,,3,,,52,63
4320,note_on,,,,,0,0,4,,,,2,,,64,63
4320,note_on,,,,,576,0,1,,,,0,,,76,63
4320,note_on,,,,,0,0,6,,,,3,,,48,63
4320,note_on,,,,,576,0,4,,,,2,,,60,63
4560,note_on,,,,,240,0,15,,,,13,,,57,0
4560,note_on,,,,,0,0,15,,,,13,,,60,63
4608,note_on,,,,,768,0,13,,,,11,,,72,0
4608,note_on,,,,,768,0,16,,,,14,,,40,0
4608,note_on,,,,,768,0,12,,,,10,,,84,0
4704,note_on,,,,,0,0,4,,,,2,,,60,0
4704,note_on,,,,,384,0,6,,,,3,,,48,0
4704,note_on,,,,,0,0,6,,,,3,,,52,0
4704,note_on,,,,,0,0,1,,,,0,,,76,0
4704,note_on,,,,,384,0,1,,,,0,,,72,0
4704,note_on,,,,,384,0,4,,,,2,,,64,0
4800,note_on,,,,,576,0,14,,,,12,,,60,63
4800,note_on,,,,,0,0,14,,,,12,,,57,63
4800,note_on,,,,,0,0,15,,,,13,,,52,63
4800,note_on,,,,,240,0,15,,,,13,,,60,0
5040,note_on,,,,,0,0,14,,,,12,,,60,63
5040,note_on,,,,,240,0,14,,,,12,,,57,0
5040,note_on,,,,,0,0,14,,,,12,,,60,0
5040,note_on,,,,,0,0,14,,,,12,,,64,63
5184,note_on,,,,,384,0,15,,,,13,,,52,0
5280,note_on,,,,,576,0,4,,,,2,,,72,63
5280,note_on,,,,,0,0,4,,,,2,,,69,63
5280,note_on,,,,,0,0,14,,,,12,,,64,63
5280,note_on,,,,,576,0,6,,,,3,,,57,63
5280,note_on,,,,,0,0,6,,,,3,,,60,63
5280,note_on,,,,,0,0,1,,,,0,,,84,63
5280,note_on,,,,,576,0,1,,,,0,,,81,63
5280,note_on,,,,,0,0,14,,,,12,,,69,63
5280,note_on,,,,,0,0,14,,,,12,,,64,0
5280,note_on,,,,,240,0,14,,,,12,,,60,0
5280,note_on,,,,,672,0,13,,,,11,,,69,63
5280,note_on,,,,,672,0,12,,,,10,,,81,70
5520,note_on,,,,,0,0,14,,,,12,,,69,0
5520,note_on,,,,,240,0,14,,,,12,,,64,0
5520,note_on,,,,,0,0,14,,,,12,,,69,63
5520,note_on,,,,,0,0,14,,,,12,,,72,63
5664,note_on,,,,,3744,0,8,,,,4,,,64,0
5664,note_on,,,,,384,0,4,,,,2,,,69,0
5664,note_on,,,,,0,0,4,,,,2,,,72,0
5664,note_on,,,,,384,0,6,,,,3,,,60,0
5664,note_on,,,,,384,0,1,,,,0,,,84,0
5664,note_on,,,,,0,0,1,,,,0,,,81,0
5664,note_on,,,,,0,0,6,,,,3,,,57,0
5760,note_on,,,,,0,0,14,,,,12,,,63,63
5760,note_on,,,,,96,0,8,,,,4,,,59,63
5760,note_on,,,,,0,0,14,,,,12,,,57,63
5760,note_on,,,,,240,0,14,,,,12,,,72,0
5760,note_on,,,,,480,0,12,,,,10,,,81,0
5760,note_on,,,,,576,0,15,,,,13,,,40,63
5760,note_on,,,,,1152,0,16,,,,14,,,40,63
5760,set_tempo,,,,,3840,1,0,437956,,,,,,,
5760,note_on,,,,,0,0,13,,,,11,,,66,63
5760,note_on,,,,,480,0,13,,,,11,,,69,0
5760,note_on,,,,,0,0,14,,,,12,,,69,0
5760,note_on,,,,,0,0,12,,,,10,,,78,70
6000,note_on,,,,,240,0,15,,,,13,,,40,0
6000,note_on,,,,,0,0,15,,,,13,,,47,63
6144,note_on,,,,,0,0,14,,,,12,,,63,0
6144,note_on,,,,,384,0,14,,,,12,,,57,0
6240,note_on,,,,,576,0,6,,,,3,,,57,63
6240,note_on,,,,,240,0,15,,,,13,,,47,0
6240,note_on,,,,,0,0,15,,,,13,,,54,63
6240,note_on,,,,,576,0,1,,,,0,,,81,63
6240,note_on,,,,,0,0,1,,,,0,,,78,63
6240,note_on,,,,,0,0,6,,,,3,,,54,63
6240,note_on,,,,,576,0,4,,,,2,,,66,63
6240,note_on,,,,,0,0,4,,,,2,,,69,63
6480,note_on,,,,,240,0,15,,,,13,,,54,0
6480,note_on,,,,,0,0,15,,,,13,,,57,63
6528,note_on,,,,,768,0,12,,,,10,,,78,0
6528,note_on,,,,,768,0,13,,,,11,,,66,0
6528,note_on,,,,,768,0,16,,,,14,,,40,0
6624,note_on,,,,,0,0,4,,,,2,,,66,0
6624,note_on,,,,,384,0,4,,,,2,,,69,0
6624,note_on,,,,,384,0,6,,,,3,,,54,0
6624,note_on,,,,,0,0,6,,,,3,,,57,0
6624,note_on,,,,,0,0,1,,,,0,,,81,0
6624,note_on,,,,,384,0,1,,,,0,,,78,0
6720,note_on,,,,,0,0,15,,,,13,,,47,63
6720,note_on,,,,,240,0,15,,,,13,,,57,0
6720,note_on,,,,,576,0,14,,,,12,,,54,63
6720,note_on,,,,,0,0,14,,,,12,,,59,63
6960,note_on,,,,,0,0,14,,,,12,,,63,63
6960,note_on,,,,,0,0,14,,,,12,,,57,63
6960,note_on,,,,,0,0,14,,,,12,,,54,0
6960,note_on,,,,,240,0,14,,,,12,,,59,0
7104,note_on,,,,,384,0,15,,,,13,,,47,0
7200,note_on,,,,,672,0,13,,,,11,,,63,63
7200,note_on,,,,,240,0,14,,,,12,,,63,0
7200,note_on,,,,,0,0,14,,,,12,,,57,0
7200,note_on,,,,,0,0,4,,,,2,,,63,63
7200,note_on,,,,,576,0,4,,,,2,,,66,63
7200,note_on,,,,,0,0,14,,,,12,,,66,63
7200,note_on,,,,,0,0,14,,,,12,,,63,63
7200,note_on,,,,,0,0,1,,,,0,,,78,63
7200,note_on,,,,,576,0,1,,,,0,,,75,63
7200,note_on,,,,,672,0,12,,,,10,,,75,70
7200,note_on,,,,,576,0,6,,,,3,,,51,63
7200,note_on,,,,,0,0,6,,,,3,,,54,63
7440,note_on,,,,,240,0,14,,,,12,,,63,0
7440,note_on,,,,,0,0,14,,,,12,,,69,63
7440,note_on,,,,,0,0,14,,,,12,,,66,0
7440,note_on,,,,,0,0,14,,,,12,,,66,63
7584,note_on,,,,,0,0,6,,,,3,,,51,0
7584,note_on,,,,,0,0,4,,,,2,,,66,0
7584,note_on,,,,,384,0,4,,,,2,,,63,0
7584,note_on,,,,,0,0,1,,,,0,,,75,0
7584,note_on,,,,,384,0,1,,,,0,,,78,0
7584,note_on,,,,,384,0,6,,,,3,,,54,0
7584,note_on,,,,,1824,0,8,,,,4,,,59,0
7680,note_on,,,,,480,0,12,,,,10,,,75,0
7680,note_on,,,,,0,0,12,,,,10,,,83,70
7680,note_on,,,,,480,0,13,,,,11,,,63,0
7680,note_on,,,,,0,0,13,,,,11,,,71,63
7680,note_on,,,,,1152,0,16,,,,14,,,40,63
7680,note_on,,,,,0,0,14,,,,12,,,66,0
7680,note_on,,,,,0,0,14,,,,12,,,59,63
7680,note_on,,,,,0,0,14,,,,12,,,55,63
7680,note_on,,,,,576,0,15,,,,13,,,40,63
7680,note_on,,,,,96,0,8,,,,4,,,55,63
7680,note_on,,,,,240,0,14,,,,12,,,69,0
7920,note_on,,,,,240,0,15,,,,13,,,40,0
7920,note_on,,,,,0,0,15,,,,13,,,47,63
8064,note_on,,,,,384,0,14,,,,12,,,55,0
8064,note_on,,,,,0,0,14,,,,12,,,59,0
8160,note_on,,,,,0,0,4,,,,2,,,63,63
8160,note_on,,,,,0,0,1,,,,0,,,71,63
8160,note_on,,,,,0,0,6,,,,3,,,47,63
8160,note_on,,,,,576,0,6,,,,3,,,51,63
8160,note_on,,,,,576,0,1,,,,0,,,75,63
8160,note_on,,,,,240,0,15,,,,13,,,47,0
8160,note_on,,,,,0,0,15,,,,13,,,55,63
8160,note_on,,,,,576,0,4,,,,2,,,59,63
8400,note_on,,,,,240,0,15,,,,13,,,55,0
8400,note_on,,,,,0,0,15,,,,13,,,59,63
8448,note_on,,,,,768,0,13,,,,11,,,71,0
8448,note_on,,,,,768,0,16,,,,14,,,40,0
8448,note_on,,,,,768,0,12,,,,10,,,83,0
8544,note_on,,,,,0,0,1,,,,0,,,75,0
8544,note_on,,,,,384,0,4,,,,2,,,63,0
8544,note_on,,,,,384,0,1,,,,0,,,71,0
8544,note_on,,,,,0,0,6,,,,3,,,51,0
8544,note_on,,,,,0,0,4,,,,2,,,59,0
8544,note_on,,,,,384,0,6,,,,3,,,47,0
8640,note_on,,,,,0,0,15,,,,13,,,52,63
8640,note_on,,,,,576,0,14,,,,12,,,52,63
8640,note_on,,,,,0,0,14,,,,12,,,55,63
8640,note_on,,,,,240,0,15,,,,13,,,59,0
8880,note_on,,,,,0,0,14,,,,12,,,52,0
8880,note_on,,,,,0,0,14,,,,12,,,59,63
8880,note_on,,,,,0,0,14,,,,12,,,55,63
8880,note_on,,,,,240,0,14,,,,12,,,55,0
9024,note_on,,,,,384,0,15,,,,13,,,52,0
9120,note_on,,,,,576,0,4,,,,2,,,71,63
9120,note_on,,,,,0,0,4,,,,2,,,67,63
9120,note_on,,,,,672,0,12,,,,10,,,88,90
9120,note_on,,,,,0,0,1,,,,0,,,83,63
9120,note_on,,,,,240,0,14,,,,12,,,55,0
9120,note_on,,,,,0,0,14,,,,12,,,59,63
9120,note_on,,,,,0,0,14,,,,12,,,64,63
9120,note_on,,,,,576,0,1,,,,0,,,79,63
9120,note_on,,,,,576,0,6,,,,3,,,55,63
9120,note_on,,,,,0,0,6,,,,3,,,59,63
9120,note_on,,,,,672,0,13,,,,11,,,76,63
9120,note_on,,,,,0,0,14,,,,12,,,59,0
9360,note_on,,,,,240,0,14,,,,12,,,64,0
9360,note_on,,,,,0,0,14,,,,12,,,59,0
9360,note_on,,,,,0,0,14,,,,12,,,64,63
9360,note_on,,,,,0,0,14,,,,12,,,67,63
9504,note_on,,,,,0,0,6,,,,3,,,55,0
9504,note_on,,,,,384,0,6,,,,3,,,59,0
9504,note_on,,,,,0,0,4,,,,2,,,71,0
9504,note_on,,,,,384,0,4,,,,2,,,67,0
9504,note_on,,,,,0,0,1,,,,0,,,79,0
9504,note_on,,,,,384,0,1,,,,0,,,83,0
9600,note_on,,,,,0,0,14,,,,12,,,64,62
9600,note_on,,,,,0,0,14,,,,12,,,64,0
9600,note_on,,,,,240,0,14,,,,12,,,67,0
9600,note_on,,,,,0,0,13,,,,11,,,64,63
9600,set_tempo,,,,,3840,1,0,434783,,,,,,,
9600,note_on,,,,,0,0,14,,,,12,,,72,62
9600,note_on,,,,,576,0,15,,,,13,,,36,63
9600,note_on,,,,,1152,0,16,,,,14,,,36,63
9600,note_on,,,,,0,0,9,,,,5,,,64,63
9600,note_on,,,,,480,0,13,,,,11,,,76,0
9600,note_on,,,,,480,0,12,,,,10,,,88,0
9600,note_on,,,,,9600,0,9,,,,5,,,60,63
9600,note_on,,,,,0,0,12,,,,10,,,76,70
9840,note_on,,,,,240,0,15,,,,13,,,36,0
9840,note_on,,,,,0,0,15,,,,13,,,43,63
9984,note_on,,,,,384,0,14,,,,12,,,64,0
9984,note_on,,,,,0,0,8,,,,4,,,52,0
9984,note_on,,,,,0,0,14,,,,12,,,72,0
9984,note_on,,,,,2304,0,8,,,,4,,,55,0
10080,note_on,,,,,240,0,15,,,,13,,,43,0
10080,note_on,,,,,0,0,1,,,,0,,,84,63
10080,note_on,,,,,576,0,1,,,,0,,,88,63
10080,note_on,,,,,0,0,4,,,,2,,,72,63
10080,note_on,,,,,576,0,4,,,,2,,,76,63
10080,note_on,,,,,576,0,6,,,,3,,,60,63
10080,note_on,,,,,0,0,6,,,,3,,,64,63
10080,note_on,,,,,0,0,15,,,,13,,,52,63
10320,note_on,,,,,240,0,15,,,,13,,,52,0
10320,note_on,,,,,0,0,15,,,,13,,,55,63
10368,note_on,,,,,768,0,12,,,,10,,,76,0
10368,note_on,,,,,768,0,16,,,,14,,,36,0
10368,note_on,,,,,768,0,13,,,,11,,,64,0
10464,note_on,,,,,384,0,1,,,,0,,,84,0
10464,note_on,,,,,0,0,1,,,,0,,,88,0
10464,note_on,,,,,384,0,6,,,,3,,,64,0
10464,note_on,,,,,0,0,6,,,,3,,,60,0
10464,note_on,,,,,0,0,4,,,,2,,,76,0
10464,note_on,,,,,384,0,4,,,,2,,,72,0
10560,note_on,,,,,0,0,14,,,,12,,,60,62
10560,note_on,,,,,240,0,15,,,,13,,,55,0
10560,note_on,,,,,0,0,15,,,,13,,,48,63
10560,note_on,,,,,576,0,14,,,,12,,,52,62
10800,note_on,,,,,0,0,14,,,,12,,,52,0
10800,note_on,,,,,240,0,14,,,,12,,,60,0
10800,note_on,,,,,0,0,14,,,,12,,,55,62
10800,note_on,,,,,0,0,14,,,,12,,,64,62
10944,note_on,,,,,384,0,15,,,,13,,,48,0
11040,note_on,,,,,576,0,4,,,,2,,,60,63
11040,note_on,,,,,0,0,4,,,,2,,,64,63
11040,note_on,,,,,672,0,12,,,,10,,,79,70
11040,note_on,,,,,672,0,13,,,,11,,,67,63
11040,note_on,,,,,576,0,1,,,,0,,,76,63
11040,note_on,,,,,0,0,1,,,,0,,,72,63
11040,note_on,,,,,0,0,14,,,,12,,,67,62
11040,note_on,,,,,0,0,14,,,,12,,,60,62
11040,note_on,,,,,0,0,14,,,,12,,,64,0
11040,note_on,,,,,240,0,14,,,,12,,,55,0
11040,note_on,,,,,0,0,6,,,,3,,,52,63
11040,note_on,,,,,576,0,6,,,,3,,,48,63
11280,note_on,,,,,0,0,14,,,,12,,,64,62
11280,note_on,,,,,0,0,14,,,,12,,,60,0
11280,note_on,,,,,240,0,14,,,,12,,,67,0
11280,note_on,,,,,0,0,14,,,,12,,,72,62
11424,note_on,,,,,0,0,6,,,,3,,,48,0
11424,note_on,,,,,384,0,6,,,,3,,,52,0
11424,note_on,,,,,384,0,1,,,,0,,,72,0
11424,note_on,,,,,384,0,4,,,,2,,,64,0
11424,note_on,,,,,0,0,1,,,,0,,,76,0
11424,note_on,,,,,0,0,4,,,,2,,,60,0
11520,note_on,,,,,1152,0,16,,,,14,,,31,63
11520,note_on,,,,,1920,0,9,,,,5,,,64,0
11520,note_on,,,,,0,0,9,,,,5,,,60,0
11520,note_on,,,,,0,0,14,,,,12,,,71,62
11520,note_on,,,,,480,0,12,,,,10,,,79,0
11520,note_on,,,,,0,0,9,,,,5,,,55,63
11520,note_on,,,,,0,0,9,,,,5,,,62,63
11520,note_on,,,,,0,0,14,,,,12,,,64,0
11520,note_on,,,,,480,0,13,,,,11,,,67,0
11520,note_on,,,,,0,0,13,,,,11,,,71,63
11520,note_on,,,,,0,0,12,,,,10,,,83,70
11520,note_on,,,,,240,0,14,,,,12,,,72,0
11520,note_on,,,,,576,0,15,,,,13,,,43,63
11520,note_on,,,,,0,0,14,,,,12,,,62,62
11760,note_on,,,,,0,0,15,,,,13,,,50,63
11760,note_on,,,,,240,0,15,,,,13,,,43,0
11904,note_on,,,,,384,0,14,,,,12,,,62,0
11904,note_on,,,,,0,0,14,,,,12,,,71,0
12000,note_on,,,,,576,0,6,,,,3,,,50,63
12000,note_on,,,,,0,0,4,,,,2,,,62,63
12000,note_on,,,,,0,0,15,,,,13,,,55,63
12000,note_on,,,,,240,0,15,,,,13,,,50,0
12000,note_on,,,,,576,0,1,,,,0,,,71,63
12000,note_on,,,,,0,0,1,,,,0,,,74,63
12000,note_on,,,,,0,0,6,,,,3,,,47,63
12000,note_on,,,,,576,0,4,,,,2,,,59,63
12240,note_on,,,,,0,0,15,,,,13,,,59,63
12240,note_on,,,,,240,0,15,,,,13,,,55,0
12288,note_on,,,,,768,0,13,,,,11,,,71,0
12288,note_on,,,,,768,0,16,,,,14,,,31,0
12288,note_on,,,,,768,0,12,,,,10,,,83,0
12384,note_on,,,,,384,0,6,,,,3,,,47,0
12384,note_on,,,,,0,0,1,,,,0,,,71,0
12384,note_on,,,,,0,0,4,,,,2,,,59,0
12384,note_on,,,,,384,0,4,,,,2,,,62,0
12384,note_on,,,,,0,0,6,,,,3,,,50,0
12384,note_on,,,,,384,0,1,,,,0,,,74,0
12480,note_on,,,,,240,0,15,,,,13,,,59,0
12480,note_on,,,,,576,0,14,,,,12,,,59,62
12480,note_on,,,,,0,0,15,,,,13,,,50,63
12480,note_on,,,,,0,0,14,,,,12,,,55,62
12720,note_on,,,,,0,0,14,,,,12,,,62,62
12720,note_on,,,,,0,0,14,,,,12,,,59,62
12720,note_on,,,,,0,0,14,,,,12,,,59,0
12720,note_on,,,,,240,0,14,,,,12,,,55,0
12864,note_on,,,,,384,0,15,,,,13,,,50,0
12960,note_on,,,,,0,0,14,,,,12,,,62,62
12960,note_on,,,,,240,0,14,,,,12,,,62,0
12960,note_on,,,,,0,0,14,,,,12,,,59,0
12960,note_on,,,,,0,0,1,,,,0,,,83,63
12960,note_on,,,,,576,0,1,,,,0,,,79,63
12960,note_on,,,,,0,0,14,,,,12,,,67,62
12960,note_on,,,,,576,0,4,,,,2,,,71,63
12960,note_on,,,,,672,0,12,,,,10,,,86,90
12960,note_on,,,,,672,0,13,,,,11,,,74,63
12960,note_on,,,,,0,0,4,,,,2,,,67,63
12960,note_on,,,,,0,0,6,,,,3,,,55,63
12960,note_on,,,,,576,0,6,,,,3,,,59,63
13200,note_on,,,,,0,0,14,,,,12,,,67,0
13200,note_on,,,,,0,0,14,,,,12,,,71,62
13200,note_on,,,,,0,0,14,,,,12,,,67,62
13200,note_on,,,,,240,0,14,,,,12,,,62,0
13344,note_on,,,,,384,0,6,,,,3,,,55,0
13344,note_on,,,,,384,0,1,,,,0,,,83,0
13344,note_on,,,,,0,0,1,,,,0,,,79,0
13344,note_on,,,,,384,0,4,,,,2,,,67,0
13344,note_on,,,,,1824,0,9,,,,5,,,62,0
13344,note_on,,,,,0,0,9,,,,5,,,55,0
13344,note_on,,,,,0,0,4,,,,2,,,71,0
13344,note_on,,,,,0,0,6,,,,3,,,59,0
13440,note_on,,,,,96,0,9,,,,5,,,62,63
13440,note_on,,,,,0,0,9,,,,5,,,65,63
13440,note_on,,,,,0,0,12,,,,10,,,74,70
13440,note_on,,,,,0,0,13,,,,11,,,62,63
13440,note_on,,,,,480,0,13,,,,11,,,74,0
13440,note_on,,,,,576,0,15,,,,13,,,38,63
13440,note_on,,,,,0,0,14,,,,12,,,65,62
13440,note_on,,,,,0,0,14,,,,12,,,74,62
13440,note_on,,,,,240,0,14,,,,12,,,67,0
13440,note_on,,,,,480,0,12,,,,10,,,86,0
13440,note_on,,,,,1152,0,16,,,,14,,,38,63
13440,note_on,,,,,0,0,14,,,,12,,,71,0
13680,note_on,,,,,0,0,15,,,,13,,,45,63
13680,note_on,,,,,240,0,15,,,,13,,,38,0
13824,note_on,,,,,0,0,14,,,,12,,,74,0
13824,note_on,,,,,384,0,14,,,,12,,,65,0
13920,note_on,,,,,576,0,1,,,,0,,,86,63
13920,note_on,,,,,0,0,6,,,,3,,,62,63
13920,note_on,,,,,576,0,6,,,,3,,,53,63
13920,note_on,,,,,0,0,1,,,,0,,,77,63
13920,note_on,,,,,0,0,15,,,,13,,,53,63
13920,note_on,,,,,0,0,4,,,,2,,,65,63
13920,note_on,,,,,576,0,4,,,,2,,,74,63
13920,note_on,,,,,240,0,15,,,,13,,,45,0
14160,note_on,,,,,240,0,15,,,,13,,,53,0
14160,note_on,,,,,0,0,15,,,,13,,,57,63
14208,note_on,,,,,768,0,13,,,,11,,,62,0
14208,note_on,,,,,768,0,12,,,,10,,,74,0
14208,note_on,,,,,768,0,16,,,,14,,,38,0
14304,note_on,,,,,0,0,6,,,,3,,,53,0
14304,note_on,,,,,384,0,6,,,,3,,,62,0
14304,note_on,,,,,0,0,1,,,,0,,,86,0
14304,note_on,,,,,384,0,4,,,,2,,,65,0
14304,note_on,,,,,0,0,4,,,,2,,,74,0
14304,note_on,,,,,384,0,1,,,,0,,,77,0
14400,note_on,,,,,0,0,15,,,,13,,,50,63
14400,note_on,,,,,0,0,14,,,,12,,,62,62
14400,note_on,,,,,576,0,14,,,,12,,,53,62
14400,note_on,,,,,240,0,15,,,,13,,,57,0
14640,note_on,,,,,0,0,14,,,,12,,,65,62
14640,note_on,,,,,0,0,14,,,,12,,,53,0
14640,note_on,,,,,240,0,14,,,,12,,,62,0
14640,note_on,,,,,0,0,14,,,,12,,,57,62
14784,note_on,,,,,384,0,15,,,,13,,,50,0
14880,note_on,,,,,672,0,12,,,,10,,,77,70
14880,note_on,,,,,576,0,6,,,,3,,,53,63
14880,note_on,,,,,0,0,6,,,,3,,,50,63
14880,note_on,,,,,0,0,1,,,,0,,,77,63
14880,note_on,,,,,0,0,4,,,,2,,,62,63
14880,note_on,,,,,576,0,4,,,,2,,,65,63
14880,note_on,,,,,240,0,14,,,,12,,,65,0
14880,note_on,,,,,0,0,14,,,,12,,,57,0
14880,note_on,,,,,0,0,14,,,,12,,,69,62
14880,note_on,,,,,576,0,1,,,,0,,,74,63
14880,note_on,,,,,0,0,14,,,,12,,,62,62
14880,note_on,,,,,672,0,13,,,,11,,,65,63
15120,note_on,,,,,0,0,14,,,,12,,,69,0
15120,note_on,,,,,0,0,14,,,,12,,,74,62
15120,note_on,,,,,0,0,14,,,,12,,,65,62
15120,note_on,,,,,240,0,14,,,,12,,,62,0
15264,note_on,,,,,0,0,6,,,,3,,,53,0
15264,note_on,,,,,384,0,6,,,,3,,,50,0
15264,note_on,,,,,384,0,1,,,,0,,,77,0
15264,note_on,,,,,0,0,4,,,,2,,,65,0
15264,note_on,,,,,384,0,4,,,,2,,,62,0
15264,note_on,,,,,0,0,1,,,,0,,,74,0
15360,note_on,,,,,1920,0,9,,,,5,,,65,0
15360,note_on,,,,,0,0,14,,,,12,,,74,0
15360,note_on,,,,,0,0,14,,,,12,,,72,62
15360,note_on,,,,,0,0,12,,,,10,,,81,70
15360,note_on,,,,,480,0,12,,,,10,,,77,0
15360,note_on,,,,,0,0,14,,,,12,,,64,62
15360,note_on,,,,,0,0,9,,,,5,,,64,63
15360,note_on,,,,,0,0,9,,,,5,,,62,0
15360,note_on,,,,,240,0,14,,,,12,,,65,0
15360,note_on,,,,,0,0,13,,,,11,,,69,63
15360,note_on,,,,,480,0,13,,,,11,,,65,0
15360,note_on,,,,,0,0,9,,,,5,,,60,63
15360,note_on,,,,,576,0,15,,,,13,,,45,63
15360,note_on,,,,,1152,0,16,,,,14,,,33,63
15600,note_on,,,,,0,0,15,,,,13,,,52,63
15600,note_on,,,,,240,0,15,,,,13,,,45,0
15744,note_on,,,,,0,0,14,,,,12,,,72,0
15744,note_on,,,,,384,0,14,,,,12,,,64,0
15840,note_on,,,,,576,0,6,,,,3,,,52,63
15840,note_on,,,,,0,0,6,,,,3,,,45,63
15840,note_on,,,,,0,0,4,,,,2,,,64,63
15840,note_on,,,,,576,0,4,,,,2,,,60,63
15840,note_on,,,,,0,0,15,,,,13,,,57,63
15840,note_on,,,,,0,0,1,,,,0,,,76,63
15840,note_on,,,,,576,0,1,,,,0,,,72,63
15840,note_on,,,,,240,0,15,,,,13,,,52,0
16080,note_on,,,,,240,0,15,,,,13,,,57,0
16080,note_on,,,,,0,0,15,,,,13,,,60,63
16128,note_on,,,,,768,0,13,,,,11,,,69,0
16128,note_on,,,,,768,0,12,,,,10,,,81,0
16128,note_on,,,,,768,0,16,,,,14,,,33,0
16224,note_on,,,,,384,0,1,,,,0,,,76,0
16224,note_on,,,,,384,0,4,,,,2,,,64,0
16224,note_on,,,,,0,0,4,,,,2,,,60,0
16224,note_on,,,,,384,0,6,,,,3,,,45,0
16224,note_on,,,,,0,0,6,,,,3,,,52,0
16224,note_on,,,,,0,0,1,,,,0,,,72,0
16320,note_on,,,,,0,0,15,,,,13,,,52,63
16320,note_on,,,,,240,0,15,,,,13,,,60,0
16320,note_on,,,,,576,0,14,,,,12,,,57,62
16320,note_on,,,,,0,0,14,,,,12,,,60,62
16560,note_on,,,,,0,0,14,,,,12,,,64,62
16560,note_on,,,,,0,0,14,,,,12,,,57,0
16560,note_on,,,,,240,0,14,,,,12,,,60,0
16560,note_on,,,,,0,0,14,,,,12,,,60,62
16704,note_on,,,,,384,0,15,,,,13,,,52,0
16800,note_on,,,,,240,0,14,,,,12,,,60,0
16800,note_on,,,,,0,0,6,,,,3,,,60,63
16800,note_on,,,,,672,0,13,,,,11,,,72,63
16800,note_on,,,,,0,0,14,,,,12,,,69,62
16800,note_on,,,,,0,0,14,,,,12,,,64,62
16800,note_on,,,,,0,0,4,,,,2,,,60,63
16800,note_on,,,,,576,0,6,,,,3,,,57,63
16800,note_on,,,,,576,0,4,,,,2,,,69,63
16800,note_on,,,,,672,0,12,,,,10,,,84,70
16800,note_on,,,,,0,0,1,,,,0,,,81,63
16800,note_on,,,,,576,0,1,,,,0,,,72,63
16800,note_on,,,,,0,0,14,,,,12,,,64,0
17040,note_on,,,,,0,0,14,,,,12,,,72,62
17040,note_on,,,,,240,0,14,,,,12,,,69,0
17040,note_on,,,,,0,0,14,,,,12,,,64,0
17040,note_on,,,,,0,0,14,,,,12,,,69,62
17184,note_on,,,,,384,0,1,,,,0,,,81,0
17184,note_on,,,,,0,0,1,,,,0,,,72,0
17184,note_on,,,,,384,0,6,,,,3,,,60,0
17184,note_on,,,,,0,0,6,,,,3,,,57,0
17184,note_on,,,,,1824,0,9,,,,5,,,64,0
17184,note_on,,,,,384,0,4,,,,2,,,60,0
17184,note_on,,,,,0,0,9,,,,5,,,60,0
17184,note_on,,,,,0,0,4,,,,2,,,69,0
17280,note_on,,,,,0,0,12,,,,10,,,72,70
17280,note_on,,,,,480,0,12,,,,10,,,84,0
17280,note_on,,,,,1152,0,16,,,,14,,,39,63
17280,note_on,,,,,576,0,15,,,,13,,,39,63
17280,note_on,,,,,240,0,14,,,,12,,,72,0
17280,note_on,,,,,0,0,14,,,,12,,,66,62
17280,note_on,,,,,480,0,13,,,,11,,,72,0
17280,note_on,,,,,0,0,14,,,,12,,,57,62
17280,note_on,,,,,0,0,13,,,,11,,,60,63
17280,note_on,,,,,0,0,14,,,,12,,,69,0
17520,note_on,,,,,0,0,15,,,,13,,,48,63
17520,note_on,,,,,240,0,15,,,,13,,,39,0
17664,note_on,,,,,0,0,14,,,,12,,,66,0
17664,note_on,,,,,384,0,14,,,,12,,,57,0
17760,note_on,,,,,576,0,4,,,,2,,,69,63
17760,note_on,,,,,0,0,4,,,,2,,,66,63
17760,note_on,,,,,576,0,1,,,,0,,,78,63
17760,note_on,,,,,0,0,1,,,,0,,,81,63
17760,note_on,,,,,576,0,9,,,,5,,,48,63
17760,note_on,,,,,0,0,15,,,,13,,,54,63
17760,note_on,,,,,576,0,6,,,,3,,,57,63
17760,note_on,,,,,0,0,6,,,,3,,,51,63
17760,note_on,,,,,0,0,9,,,,5,,,60,63
17760,note_on,,,,,240,0,15,,,,13,,,48,0
18000,note_on,,,,,0,0,15,,,,13,,,57,63
18000,note_on,,,,,240,0,15,,,,13,,,54,0
18240,note_on,,,,,0,0,14,,,,12,,,54,63
18240,note_on,,,,,240,0,15,,,,13,,,57,0
18240,note_on,,,,,0,0,15,,,,13,,,48,63
18240,note_on,,,,,576,0,14,,,,12,,,57,63
18432,note_on,,,,,1152,0,16,,,,14,,,39,0
18480,note_on,,,,,0,0,14,,,,12,,,60,63
18480,note_on,,,,,1200,0,13,,,,11,,,60,0
18480,note_on,,,,,0,0,13,,,,11,,,59,63
18480,note_on,,,,,1200,0,12,,,,10,,,72,0
18480,note_on,,,,,0,0,12,,,,10,,,71,70
18480,note_on,,,,,240,0,14,,,,12,,,54,0
18480,note_on,,,,,0,0,14,,,,12,,,57,0
18480,note_on,,,,,0,0,14,,,,12,,,57,63
18528,note_on,,,,,0,0,9,,,,5,,,48,0
18528,note_on,,,,,768,0,9,,,,5,,,60,0
18528,note_on,,,,,0,0,1,,,,0,,,78,0
18528,note_on,,,,,0,0,6,,,,3,,,57,0
18528,note_on,,,,,768,0,6,,,,3,,,51,0
18528,note_on,,,,,768,0,4,,,,2,,,66,0
18528,note_on,,,,,0,0,4,,,,2,,,69,0
18528,note_on,,,,,768,0,1,,,,0,,,81,0
18624,note_on,,,,,384,0,15,,,,13,,,48,0
18720,note_on,,,,,0,0,6,,,,3,,,51,63
18720,note_on,,,,,240,0,12,,,,10,,,71,0
18720,note_on,,,,,192,0,6,,,,3,,,57,63
18720,note_on,,,,,0,0,14,,,,12,,,66,63
18720,note_on,,,,,0,0,12,,,,10,,,72,70
18720,note_on,,,,,0,0,14,,,,12,,,60,63
18720,note_on,,,,,240,0,14,,,,12,,,60,0
18720,note_on,,,,,288,0,16,,,,14,,,39,63
18720,note_on,,,,,240,0,13,,,,11,,,59,0
18720,note_on,,,,,192,0,9,,,,5,,,48,63
18720,note_on,,,,,0,0,14,,,,12,,,57,0
18720,note_on,,,,,0,0,13,,,,11,,,60,63
18720,note_on,,,,,0,0,4,,,,2,,,69,63
18720,note_on,,,,,192,0,1,,,,0,,,78,63
18720,note_on,,,,,192,0,4,,,,2,,,66,63
18720,note_on,,,,,0,0,9,,,,5,,,60,63
18720,note_on,,,,,0,0,1,,,,0,,,81,63
18960,note_on,,,,,0,0,14,,,,12,,,69,63
18960,note_on,,,,,0,0,14,,,,12,,,66,63
18960,note_on,,,,,0,0,13,,,,11,,,57,63
18960,note_on,,,,,240,0,14,,,,12,,,66,0
18960,note_on,,,,,240,0,13,,,,11,,,60,0
18960,note_on,,,,,240,0,12,,,,10,,,72,0
18960,note_on,,,,,0,0,12,,,,10,,,69,70
18960,note_on,,,,,0,0,14,,,,12,,,60,0
19104,note_on,,,,,0,0,9,,,,5,,,48,0
19104,note_on,,,,,384,0,9,,,,5,,,60,0
19104,note_on,,,,,0,0,1,,,,0,,,78,0
19104,note_on,,,,,384,0,16,,,,14,,,39,0
19104,note_on,,,,,384,0,1,,,,0,,,81,0
19104,note_on,,,,,0,0,4,,,,2,,,66,0
19104,note_on,,,,,0,0,6,,,,3,,,57,0
19104,note_on,,,,,384,0,6,,,,3,,,51,0
19104,note_on,,,,,384,0,4,,,,2,,,69,0
19200,note_on,,,,,96,0,16,,,,14,,,40,70
19200,note_on,,,,,240,0,14,,,,12,,,69,0
19200,note_on,,,,,0,0,14,,,,12,,,66,0
19200,note_on,,,,,0,0,14,,,,12,,,57,63
19200,note_on,,,,,0,0,14,,,,12,,,60,63
19200,note_on,,,,,240,0,13,,,,11,,,57,0
19200,note_on,,,,,0,0,12,,,,10,,,84,70
19200,note_on,,,,,240,0,12,,,,10,,,69,0
19200,note_on,,,,,576,0,15,,,,13,,,40,70
19200,note_on,,,,,0,0,13,,,,11,,,72,63
19392,note_on,,,,,192,0,15,,,,13,,,40,0
19440,note_on,,,,,48,0,15,,,,13,,,48,70
19584,note_on,,,,,0,0,14,,,,12,,,57,0
19584,note_on,,,,,384,0,14,,,,12,,,60,0
19680,note_on,,,,,0,0,1,,,,0,,,81,70
19680,note_on,,,,,240,0,15,,,,13,,,48,0
19680,note_on,,,,,0,0,15,,,,13,,,52,70
19680,note_on,,,,,576,0,9,,,,5,,,60,70
19680,note_on,,,,,0,0,4,,,,2,,,64,70
19680,note_on,,,,,576,0,4,,,,2,,,69,70
19680,note_on,,,,,576,0,6,,,,3,,,57,70
19680,note_on,,,,,0,0,6,,,,3,,,52,70
19680,note_on,,,,,0,0,9,,,,5,,,48,70
19680,note_on,,,,,576,0,1,,,,0,,,76,70
19920,note_on,,,,,0,0,15,,,,13,,,57,70
19920,note_on,,,,,240,0,15,,,,13,,,52,0
20160,note_on,,,,,0,0,14,,,,12,,,57,70
20160,note_on,,,,,0,0,15,,,,13,,,48,70
20160,note_on,,,,,240,0,15,,,,13,,,57,0
20160,note_on,,,,,576,0,14,,,,12,,,52,70
20352,note_on,,,,,1152,0,16,,,,14,,,40,0
20400,note_on,,,,,0,0,13,,,,11,,,69,70
20400,note_on,,,,,1200,0,13,,,,11,,,72,0
20400,note_on,,,,,0,0,12,,,,10,,,81,80
20400,note_on,,,,,1200,0,12,,,,10,,,84,0
20400,note_on,,,,,0,0,14,,,,12,,,57,70
20400,note_on,,,,,240,0,14,,,,12,,,57,0
20400,note_on,,,,,0,0,14,,,,12,,,52,0
20400,note_on,,,,,0,0,14,,,,12,,,60,70
20448,note_on,,,,,0,0,9,,,,5,,,60,0
20448,note_on,,,,,768,0,9,,,,5,,,48,0
20448,note_on,,,,,768,0,6,,,,3,,,52,0
20448,note_on,,,,,0,0,1,,,,0,,,76,0
20448,note_on,,,,,0,0,6,,,,3,,,57,0
20448,note_on,,,,,768,0,4,,,,2,,,64,0
20448,note_on,,,,,0,0,4,,,,2,,,69,0
20448,note_on,,,,,768,0,1,,,,0,,,81,0
20544,note_on,,,,,384,0,15,,,,13,,,48,0
20640,note_on,,,,,0,0,4,,,,2,,,60,70
20640,note_on,,,,,0,0,12,,,,10,,,76,80
20640,note_on,,,,,192,0,6,,,,3,,,57,70
20640,note_on,,,,,0,0,6,,,,3,,,52,70
20640,note_on,,,,,0,0,9,,,,5,,,48,70
20640,note_on,,,,,192,0,9,,,,5,,,60,70
20640,note_on,,,,,240,0,12,,,,10,,,81,0
20640,note_on,,,,,192,0,4,,,,2,,,69,70
20640,note_on,,,,,0,0,13,,,,11,,,64,70
20640,note_on,,,,,240,0,13,,,,11,,,69,0
20640,note_on,,,,,192,0,1,,,,0,,,81,70
20640,note_on,,,,,288,0,16,,,,14,,,40,70
20640,note_on,,,,,0,0,1,,,,0,,,72,70
20640,note_on,,,,,0,0,14,,,,12,,,64,70
20640,note_on,,,,,0,0,14,,,,12,,,60,70
20640,note_on,,,,,0,0,14,,,,12,,,57,0
20640,note_on,,,,,240,0,14,,,,12,,,60,0
20880,note_on,,,,,240,0,13,,,,11,,,64,0
20880,note_on,,,,,240,0,12,,,,10,,,76,0
20880,note_on,,,,,0,0,14,,,,12,,,69,70
20880,note_on,,,,,0,0,14,,,,12,,,64,70
20880,note_on,,,,,0,0,14,,,,12,,,60,0
20880,note_on,,,,,240,0,14,,,,12,,,64,0
20880,note_on,,,,,0,0,13,,,,11,,,62,70
20880,note_on,,,,,0,0,12,,,,10,,,74,80
21024,note_on,,,,,384,0,1,,,,0,,,72,0
21024,note_on,,,,,0,0,4,,,,2,,,69,0
21024,note_on,,,,,384,0,4,,,,2,,,60,0
21024,note_on,,,,,384,0,6,,,,3,,,52,0
21024,note_on,,,,,0,0,9,,,,5,,,60,0
21024,note_on,,,,,384,0,9,,,,5,,,48,0
21024,note_on,,,,,384,0,16,,,,14,,,40,0
21024,note_on,,,,,0,0,6,,,,3,,,57,0
21024,note_on,,,,,0,0,1,,,,0,,,81,0
21120,note_on,,,,,576,0,15,,,,13,,,41,80
21120,note_on,,,,,0,0,14,,,,12,,,57,70
21120,note_on,,,,,0,0,13,,,,11,,,60,70
21120,note_on,,,,,240,0,12,,,,10,,,74,0
21120,note_on,,,,,0,0,12,,,,10,,,72,80
21120,note_on,,,,,96,0,16,,,,14,,,41,80
21120,note_on,,,,,240,0,14,,,,12,,,69,0
21120,note_on,,,,,0,0,14,,,,12,,,64,0
21120,note_on,,,,,240,0,13,,,,11,,,62,0
21120,note_on,,,,,0,0,14,,,,12,,,60,70
21360,note_on,,,,,0,0,15,,,,13,,,48,80
21360,note_on,,,,,240,0,15,,,,13,,,41,0
21504,note_on,,,,,0,0,14,,,,12,,,57,0
21504,note_on,,,,,384,0,14,,,,12,,,60,0
21600,note_on,,,,,0,0,4,,,,2,,,69,80
21600,note_on,,,,,576,0,4,,,,2,,,63,80
21600,note_on,,,,,240,0,15,,,,13,,,48,0
21600,note_on,,,,,0,0,15,,,,13,,,53,80
21600,note_on,,,,,576,0,1,,,,0,,,75,80
21600,note_on,,,,,0,0,1,,,,0,,,81,80
21600,note_on,,,,,576,0,9,,,,5,,,48,80
21600,note_on,,,,,0,0,9,,,,5,,,60,80
21600,note_on,,,,,576,0,6,,,,3,,,57,80
21600,note_on,,,,,0,0,6,,,,3,,,53,80
21840,note_on,,,,,240,0,15,,,,13,,,53,0
21840,note_on,,,,,0,0,15,,,,13,,,57,80
22080,note_on,,,,,576,0,14,,,,12,,,57,80
22080,note_on,,,,,240,0,15,,,,13,,,57,0
22080,note_on,,,,,0,0,14,,,,12,,,51,80
22080,note_on,,,,,0,0,15,,,,13,,,48,80
22272,note_on,,,,,1152,0,16,,,,14,,,41,0
22320,note_on,,,,,240,0,14,,,,12,,,51,0
22320,note_on,,,,,1200,0,13,,,,11,,,60,0
22320,note_on,,,,,0,0,14,,,,12,,,57,80
22320,note_on,,,,,0,0,14,,,,12,,,60,80
22320,note_on,,,,,1200,0,12,,,,10,,,72,0
22320,note_on,,,,,0,0,12,,,,10,,,71,92
22320,note_on,,,,,0,0,14,,,,12,,,57,0
22320,note_on,,,,,0,0,13,,,,11,,,59,80
22368,note_on,,,,,768,0,1,,,,0,,,81,0
22368,note_on,,,,,0,0,1,,,,0,,,75,0
22368,note_on,,,,,0,0,6,,,,3,,,57,0
22368,note_on,,,,,768,0,6,,,,3,,,53,0
22368,note_on,,,,,0,0,4,,,,2,,,63,0
22368,note_on,,,,,768,0,4,,,,2,,,69,0
22368,note_on,,,,,768,0,9,,,,5,,,60,0
22368,note_on,,,,,0,0,9,,,,5,,,48,0
22464,note_on,,,,,384,0,15,,,,13,,,48,0
22560,note_on,,,,,240,0,12,,,,10,,,71,0
22560,note_on,,,,,240,0,13,,,,11,,,59,0
22560,note_on,,,,,0,0,13,,,,11,,,60,80
22560,note_on,,,,,192,0,6,,,,3,,,53,80
22560,note_on,,,,,192,0,4,,,,2,,,63,80
22560,note_on,,,,,0,0,4,,,,2,,,69,80
22560,note_on,,,,,0,0,12,,,,10,,,72,92
22560,note_on,,,,,0,0,6,,,,3,,,57,80
22560,note_on,,,,,288,0,16,,,,14,,,41,80
22560,note_on,,,,,240,0,14,,,,12,,,60,0
22560,note_on,,,,,192,0,1,,,,0,,,75,80
22560,note_on,,,,,0,0,1,,,,0,,,81,80
22560,note_on,,,,,0,0,14,,,,12,,,60,92
22560,note_on,,,,,0,0,14,,,,12,,,63,92
22560,note_on,,,,,192,0,9,,,,5,,,60,80
22560,note_on,,,,,0,0,9,,,,5,,,48,80
22560,note_on,,,,,0,0,14,,,,12,,,57,0
22800,note_on,,,,,0,0,14,,,,12,,,63,0
22800,note_on,,,,,240,0,14,,,,12,,,60,0
22800,note_on,,,,,240,0,12,,,,10,,,72,0
22800,note_on,,,,,0,0,12,,,,10,,,69,92
22800,note_on,,,,,0,0,14,,,,12,,,69,92
22800,note_on,,,,,240,0,13,,,,11,,,60,0
22800,note_on,,,,,0,0,13,,,,11,,,57,80
22800,note_on,,,,,0,0,14,,,,12,,,63,92
22944,note_on,,,,,0,0,9,,,,5,,,60,0
22944,note_on,,,,,384,0,9,,,,5,,,48,0
22944,note_on,,,,,384,0,16,,,,14,,,41,0
22944,note_on,,,,,0,0,1,,,,0,,,75,0
22944,note_on,,,,,384,0,1,,,,0,,,81,0
22944,note_on,,,,,0,0,6,,,,3,,,53,0
22944,note_on,,,,,384,0,6,,,,3,,,57,0
22944,note_on,,,,,384,0,4,,,,2,,,69,0
22944,note_on,,,,,0,0,4,,,,2,,,63,0
23040,note_on,,,,,96,0,16,,,,14,,,42,92
23040,note_on,,,,,0,0,14,,,,12,,,57,92
23040,note_on,,,,,0,0,14,,,,12,,,63,0
23040,note_on,,,,,0,0,14,,,,12,,,60,92
23040,note_on,,,,,240,0,12,,,,10,,,69,0
23040,note_on,,,,,0,0,12,,,,10,,,84,105
23040,note_on,,,,,240,0,14,,,,12,,,69,0
23040,note_on,,,,,240,0,13,,,,11,,,57,0
23040,note_on,,,,,0,0,13,,,,11,,,72,80
23040,note_on,,,,,576,0,15,,,,13,,,42,92
23280,note_on,,,,,0,0,15,,,,13,,,48,92
23280,note_on,,,,,240,0,15,,,,13,,,42,0
23424,note_on,,,,,384,0,14,,,,12,,,60,0
23424,note_on,,,,,0,0,14,,,,12,,,57,0
23520,note_on,,,,,240,0,15,,,,13,,,48,0
23520,note_on,,,,,576,0,6,,,,3,,,54,92
23520,note_on,,,,,576,0,9,,,,5,,,60,92
23520,note_on,,,,,0,0,1,,,,0,,,81,92
23520,note_on,,,,,0,0,6,,,,3,,,57,92
23520,note_on,,,,,576,0,1,,,,0,,,75,92
23520,note_on,,,,,0,0,9,,,,5,,,48,92
23520,note_on,,,,,0,0,15,,,,13,,,51,92
23520,note_on,,,,,576,0,4,,,,2,,,69,92
23520,note_on,,,,,0,0,4,,,,2,,,63,92
23760,note_on,,,,,0,0,15,,,,13,,,57,92
23760,note_on,,,,,240,0,15,,,,13,,,51,0
24000,note_on,,,,,576,0,14,,,,12,,,57,92
24000,note_on,,,,,0,0,15,,,,13,,,48,70
24000,note_on,,,,,0,0,14,,,,12,,,51,92
24000,note_on,,,,,240,0,15,,,,13,,,57,0
24192,note_on,,,,,1152,0,16,,,,14,,,42,0
24240,note_on,,,,,0,0,14,,,,12,,,60,70
24240,note_on,,,,,240,0,14,,,,12,,,51,0
24240,note_on,,,,,0,0,14,,,,12,,,57,70
24240,note_on,,,,,0,0,12,,,,10,,,81,80
24240,note_on,,,,,1200,0,13,,,,11,,,72,0
24240,note_on,,,,,0,0,13,,,,11,,,69,63
24240,note_on,,,,,0,0,14,,,,12,,,57,0
24240,note_on,,,,,1200,0,12,,,,10,,,84,0
24288,note_on,,,,,0,0,4,,,,2,,,69,0
24288,note_on,,,,,768,0,4,,,,2,,,63,0
24288,note_on,,,,,0,0,6,,,,3,,,54,0
24288,note_on,,,,,768,0,1,,,,0,,,81,0
24288,note_on,,,,,0,0,9,,,,5,,,60,0
24288,note_on,,,,,0,0,1,,,,0,,,75,0
24288,note_on,,,,,768,0,9,,,,5,,,48,0
24288,note_on,,,,,768,0,6,,,,3,,,57,0
24384,note_on,,,,,384,0,15,,,,13,,,48,0
24480,note_on,,,,,240,0,14,,,,12,,,57,0
24480,note_on,,,,,0,0,13,,,,11,,,63,63
24480,note_on,,,,,240,0,13,,,,11,,,69,0
24480,note_on,,,,,0,0,14,,,,12,,,60,0
24480,note_on,,,,,0,0,14,,,,12,,,63,63
24480,note_on,,,,,0,0,14,,,,12,,,60,63
24480,note_on,,,,,0,0,12,,,,10,,,75,80
24480,note_on,,,,,192,0,1,,,,0,,,84,63
24480,note_on,,,,,240,0,12,,,,10,,,81,0
24480,note_on,,,,,192,0,9,,,,5,,,48,92
24480,note_on,,,,,0,0,9,,,,5,,,60,63
24480,note_on,,,,,0,0,6,,,,3,,,54,92
24480,note_on,,,,,192,0,6,,,,3,,,57,92
24480,note_on,,,,,288,0,16,,,,14,,,42,92
24480,note_on,,,,,0,0,4,,,,2,,,72,92
24480,note_on,,,,,192,0,4,,,,2,,,63,92
24480,note_on,,,,,0,0,1,,,,0,,,75,63
24720,note_on,,,,,0,0,14,,,,12,,,63,0
24720,note_on,,,,,240,0,14,,,,12,,,60,0
24720,note_on,,,,,0,0,14,,,,12,,,69,63
24720,note_on,,,,,0,0,14,,,,12,,,63,63
24720,note_on,,,,,0,0,12,,,,10,,,74,80
24720,note_on,,,,,240,0,12,,,,10,,,75,0
24864,note_on,,,,,384,0,6,,,,3,,,54,0
24864,note_on,,,,,0,0,9,,,,5,,,48,0
24864,note_on,,,,,384,0,9,,,,5,,,60,0
24864,note_on,,,,,384,0,13,,,,11,,,63,0
24864,note_on,,,,,0,0,1,,,,0,,,84,0
24864,note_on,,,,,384,0,1,,,,0,,,75,0
24864,note_on,,,,,384,0,4,,,,2,,,72,0
24864,note_on,,,,,0,0,6,,,,3,,,57,0
24864,note_on,,,,,0,0,4,,,,2,,,63,0
24864,note_on,,,,,384,0,16,,,,14,,,42,0
24960,note_on,,,,,0,0,14,,,,12,,,64,63
24960,note_on,,,,,0,0,14,,,,12,,,60,63
24960,note_on,,,,,0,0,14,,,,12,,,63,0
24960,note_on,,,,,240,0,14,,,,12,,,69,0
24960,note_on,,,,,96,0,16,,,,14,,,43,70
24960,note_on,,,,,0,0,12,,,,10,,,72,70
24960,note_on,,,,,576,0,15,,,,13,,,43,63
24960,note_on,,,,,96,0,13,,,,11,,,64,63
24960,note_on,,,,,240,0,12,,,,10,,,74,0
25200,note_on,,,,,0,0,15,,,,13,,,52,63
25200,note_on,,,,,240,0,15,,,,13,,,43,0
25344,note_on,,,,,0,0,14,,,,12,,,60,0
25344,note_on,,,,,384,0,14,,,,12,,,64,0
25344,note_on,,,,,384,0,12,,,,10,,,72,0
25344,note_on,,,,,384,0,16,,,,14,,,43,0
25344,note_on,,,,,384,0,13,,,,11,,,64,0
25440,note_on,,,,,0,0,4,,,,2,,,72,63
25440,note_on,,,,,0,0,14,,,,12,,,67,63
25440,note_on,,,,,576,0,1,,,,0,,,76,63
25440,note_on,,,,,0,0,1,,,,0,,,84,63
25440,note_on,,,,,576,0,4,,,,2,,,76,63
25440,note_on,,,,,576,0,6,,,,3,,,55,63
25440,note_on,,,,,96,0,14,,,,12,,,64,63
25440,note_on,,,,,576,0,9,,,,5,,,64,63
25440,note_on,,,,,0,0,9,,,,5,,,67,63
25440,note_on,,,,,0,0,15,,,,13,,,60,63
25440,note_on,,,,,240,0,15,,,,13,,,52,0
25680,note_on,,,,,240,0,15,,,,13,,,60,0
25680,note_on,,,,,240,0,14,,,,12,,,67,0
25680,note_on,,,,,0,0,14,,,,12,,,64,0
25680,note_on,,,,,336,0,13,,,,11,,,72,63
25680,note_on,,,,,0,0,14,,,,12,,,55,63
25680,note_on,,,,,0,0,14,,,,12,,,64,63
25680,note_on,,,,,336,0,12,,,,10,,,76,70
25824,note_on,,,,,0,0,9,,,,5,,,64,0
25824,note_on,,,,,384,0,9,,,,5,,,67,0
25824,note_on,,,,,384,0,4,,,,2,,,72,0
25824,note_on,,,,,0,0,4,,,,2,,,76,0
25824,note_on,,,,,384,0,1,,,,0,,,84,0
25824,note_on,,,,,0,0,1,,,,0,,,76,0
25824,note_on,,,,,384,0,6,,,,3,,,55,0
25872,note_on,,,,,0,0,14,,,,12,,,64,0
25872,note_on,,,,,192,0,14,,,,12,,,55,0
25920,note_on,,,,,0,0,12,,,,10,,,71,70
25920,note_on,,,,,240,0,15,,,,13,,,44,63
25920,note_on,,,,,0,0,14,,,,12,,,62,63
25920,note_on,,,,,48,0,14,,,,12,,,65,63
25920,note_on,,,,,0,0,13,,,,11,,,65,63
25920,note_on,,,,,240,0,12,,,,10,,,76,0
25920,note_on,,,,,576,0,16,,,,14,,,44,70
25920,note_on,,,,,240,0,13,,,,11,,,72,0
26160,note_on,,,,,240,0,15,,,,13,,,44,0
26160,note_on,,,,,0,0,15,,,,13,,,53,63
26304,note_on,,,,,384,0,13,,,,11,,,65,0
26304,note_on,,,,,384,0,16,,,,14,,,44,0
26304,note_on,,,,,384,0,14,,,,12,,,62,0
26304,note_on,,,,,0,0,14,,,,12,,,65,0
26304,note_on,,,,,384,0,12,,,,10,,,71,0
26400,note_on,,,,,240,0,15,,,,13,,,53,0
26400,note_on,,,,,0,0,15,,,,13,,,59,63
26400,note_on,,,,,0,0,9,,,,5,,,65,63
26400,note_on,,,,,0,0,1,,,,0,,,74,63
26400,note_on,,,,,576,0,1,,,,0,,,83,63
26400,note_on,,,,,0,0,4,,,,2,,,77,63
26400,note_on,,,,,576,0,6,,,,3,,,56,63
26400,note_on,,,,,576,0,9,,,,5,,,62,63
26400,note_on,,,,,576,0,4,,,,2,,,71,63
26640,note_on,,,,,336,0,12,,,,10,,,74,70
26640,note_on,,,,,336,0,13,,,,11,,,71,63
26640,note_on,,,,,240,0,15,,,,13,,,59,0
26640,note_on,,,,,0,0,14,,,,12,,,53,63
26640,note_on,,,,,336,0,14,,,,12,,,59,63
26784,note_on,,,,,0,0,9,,,,5,,,62,0
26784,note_on,,,,,384,0,9,,,,5,,,65,0
26784,note_on,,,,,0,0,4,,,,2,,,71,0
26784,note_on,,,,,384,0,4,,,,2,,,77,0
26784,note_on,,,,,384,0,1,,,,0,,,74,0
26784,note_on,,,,,0,0,1,,,,0,,,83,0
26784,note_on,,,,,384,0,6,,,,3,,,56,0
26880,note_on,,,,,0,0,14,,,,12,,,60,63
26880,note_on,,,,,0,0,12,,,,10,,,69,70
26880,note_on,,,,,240,0,12,,,,10,,,74,0
26880,note_on,,,,,240,0,14,,,,12,,,53,0
26880,note_on,,,,,0,0,14,,,,12,,,64,63
26880,note_on,,,,,0,0,14,,,,12,,,59,0
26880,note_on,,,,,0,0,13,,,,11,,,64,63
26880,note_on,,,,,576,0,16,,,,14,,,45,70
26880,note_on,,,,,240,0,15,,,,13,,,45,63
26880,note_on,,,,,240,0,13,,,,11,,,71,0
27120,note_on,,,,,0,0,15,,,,13,,,52,63
27120,note_on,,,,,240,0,15,,,,13,,,45,0
27264,note_on,,,,,384,0,13,,,,11,,,64,0
27264,note_on,,,,,0,0,14,,,,12,,,60,0
27264,note_on,,,,,384,0,14,,,,12,,,64,0
27264,note_on,,,,,384,0,12,,,,10,,,69,0
27264,note_on,,,,,384,0,16,,,,14,,,45,0
27360,note_on,,,,,576,0,1,,,,0,,,72,63
27360,note_on,,,,,0,0,15,,,,13,,,60,63
27360,note_on,,,,,0,0,4,,,,2,,,72,63
27360,note_on,,,,,576,0,4,,,,2,,,69,63
27360,note_on,,,,,240,0,15,,,,13,,,52,0
27360,note_on,,,,,0,0,1,,,,0,,,81,63
27360,note_on,,,,,0,0,9,,,,5,,,64,63
27360,note_on,,,,,576,0,9,,,,5,,,60,63
27360,note_on,,,,,576,0,6,,,,3,,,57,63
27600,note_on,,,,,0,0,14,,,,12,,,52,63
27600,note_on,,,,,336,0,14,,,,12,,,57,63
27600,note_on,,,,,336,0,12,,,,10,,,72,70
27600,note_on,,,,,336,0,13,,,,11,,,69,63
27600,note_on,,,,,240,0,15,,,,13,,,60,0
27744,note_on,,,,,384,0,9,,,,5,,,64,0
27744,note_on,,,,,0,0,9,,,,5,,,60,0
27744,note_on,,,,,384,0,4,,,,2,,,72,0
27744,note_on,,,,,0,0,4,,,,2,,,69,0
27744,note_on,,,,,384,0,1,,,,0,,,81,0
27744,note_on,,,,,384,0,6,,,,3,,,57,0
27744,note_on,,,,,0,0,1,,,,0,,,72,0
27840,note_on,,,,,576,0,16,,,,14,,,35,70
27840,note_on,,,,,240,0,15,,,,13,,,47,63
27840,note_on,,,,,240,0,14,,,,12,,,52,0
27840,note_on,,,,,240,0,13,,,,11,,,69,0
27840,note_on,,,,,0,0,13,,,,11,,,62,63
27840,note_on,,,,,0,0,14,,,,12,,,57,0
27840,note_on,,,,,0,0,14,,,,12,,,59,63
27840,note_on,,,,,0,0,12,,,,10,,,68,70
27840,note_on,,,,,0,0,14,,,,12,,,62,63
27840,note_on,,,,,240,0,12,,,,10,,,72,0
28080,note_on,,,,,240,0,15,,,,13,,,47,0
28080,note_on,,,,,0,0,15,,,,13,,,50,63
28224,note_on,,,,,384,0,14,,,,12,,,59,0
28224,note_on,,,,,0,0,14,,,,12,,,62,0
28224,note_on,,,,,384,0,12,,,,10,,,68,0
28224,note_on,,,,,384,0,16,,,,14,,,35,0
28224,note_on,,,,,384,0,13,,,,11,,,62,0
28320,note_on,,,,,240,0,15,,,,13,,,50,0
28320,note_on,,,,,0,0,15,,,,13,,,56,63
28320,note_on,,,,,576,0,6,,,,3,,,56,63
28320,note_on,,,,,0,0,1,,,,0,,,74,63
28320,note_on,,,,,576,0,1,,,,0,,,80,63
28320,note_on,,,,,0,0,6,,,,3,,,47,63
28320,note_on,,,,,576,0,4,,,,2,,,68,63
28320,note_on,,,,,0,0,4,,,,2,,,74,63
28320,note_on,,,,,0,0,9,,,,5,,,59,63
28320,note_on,,,,,576,0,9,,,,5,,,62,63
28560,note_on,,,,,240,0,15,,,,13,,,56,0
28560,note_on,,,,,336,0,14,,,,12,,,50,63
28560,note_on,,,,,336,0,12,,,,10,,,71,70
28560,note_on,,,,,336,0,13,,,,11,,,68,63
28704,note_on,,,,,0,0,6,,,,3,,,56,0
28704,note_on,,,,,384,0,1,,,,0,,,74,0
28704,note_on,,,,,0,0,4,,,,2,,,68,0
28704,note_on,,,,,384,0,4,,,,2,,,74,0
28704,note_on,,,,,0,0,1,,,,0,,,80,0
28704,note_on,,,,,0,0,9,,,,5,,,62,0
28704,note_on,,,,,384,0,9,,,,5,,,59,0
28704,note_on,,,,,384,0,6,,,,3,,,47,0
28752,note_on,,,,,192,0,14,,,,12,,,50,0
28800,note_on,,,,,240,0,15,,,,13,,,48,70
28800,note_on,,,,,48,0,14,,,,12,,,52,70
28800,note_on,,,,,0,0,1,,,,0,,,81,63
28800,note_on,,,,,0,0,6,,,,3,,,57,63
28800,note_on,,,,,96,0,6,,,,3,,,48,63
28800,note_on,,,,,576,0,16,,,,14,,,36,70
28800,note_on,,,,,96,0,1,,,,0,,,76,63
28800,note_on,,,,,0,0,8,,,,4,,,64,63
28800,note_on,,,,,18816,0,8,,,,4,,,52,63
28800,note_on,,,,,0,0,13,,,,11,,,64,63
28800,note_on,,,,,240,0,13,,,,11,,,68,0
28800,note_on,,,,,240,0,12,,,,10,,,71,0
28800,note_on,,,,,0,0,12,,,,10,,,69,70
28800,note_on,,,,,96,0,4,,,,2,,,64,63
28800,note_on,,,,,0,0,4,,,,2,,,69,63
29040,note_on,,,,,240,0,14,,,,12,,,52,0
29040,note_on,,,,,0,0,14,,,,12,,,48,70
29280,note_on,,,,,0,0,14,,,,12,,,52,70
29280,note_on,,,,,240,0,14,,,,12,,,48,0
29280,note_on,,,,,480,0,12,,,,10,,,69,0
29280,note_on,,,,,0,0,12,,,,10,,,67,74
29520,note_on,,,,,0,0,14,,,,12,,,57,70
29520,note_on,,,,,240,0,14,,,,12,,,52,0
29712,note_on,,,,,192,0,14,,,,12,,,57,0
29760,note_on,,,,,0,0,12,,,,10,,,66,79
29760,note_on,,,,,960,0,1,,,,0,,,81,0
29760,note_on,,,,,960,0,13,,,,11,,,64,0
29760,note_on,,,,,0,0,13,,,,11,,,58,73
29760,note_on,,,,,0,0,1,,,,0,,,82,70
29760,note_on,,,,,960,0,4,,,,2,,,69,0
29760,note_on,,,,,960,0,6,,,,3,,,57,0
29760,note_on,,,,,0,0,6,,,,3,,,58,63
29760,note_on,,,,,0,0,14,,,,12,,,58,70
29760,note_on,,,,,480,0,12,,,,10,,,67,0
29760,note_on,,,,,0,0,4,,,,2,,,70,70
29760,note_on,,,,,48,0,14,,,,12,,,52,70
29952,note_on,,,,,1152,0,15,,,,13,,,48,0
29952,note_on,,,,,1152,0,16,,,,14,,,36,0
30240,note_on,,,,,288,0,16,,,,14,,,36,70
30240,note_on,,,,,288,0,15,,,,13,,,48,70
30240,note_on,,,,,480,0,12,,,,10,,,66,0
30240,note_on,,,,,0,0,12,,,,10,,,64,84
30528,note_on,,,,,768,0,14,,,,12,,,58,0
30528,note_on,,,,,0,0,14,,,,12,,,52,0
30624,note_on,,,,,384,0,15,,,,13,,,48,0
30624,note_on,,,,,384,0,16,,,,14,,,36,0
30696,note_on,,,,,456,0,12,,,,10,,,64,0
30700,note_on,,,,,940,0,13,,,,11,,,58,0
30720,note_on,,,,,24,0,12,,,,10,,,70,92
30720,note_on,,,,,96,0,16,,,,14,,,30,80
30720,note_on,,,,,0,0,6,,,,3,,,61,70
30720,note_on,,,,,0,0,6,,,,3,,,42,70
30720,note_on,,,,,0,0,6,,,,3,,,48,0
30720,note_on,,,,,960,0,6,,,,3,,,58,0
30720,note_on,,,,,96,0,15,,,,13,,,42,80
30720,note_on,,,,,192,0,14,,,,12,,,52,70
30720,note_on,,,,,20,0,13,,,,11,,,61,80
30960,note_on,,,,,240,0,14,,,,12,,,52,0
30960,note_on,,,,,0,0,14,,,,12,,,49,70
31200,note_on,,,,,480,0,12,,,,10,,,70,0
31200,note_on,,,,,0,0,12,,,,10,,,67,97
31200,note_on,,,,,0,0,14,,,,12,,,52,70
31200,note_on,,,,,240,0,14,,,,12,,,49,0
31440,note_on,,,,,0,0,14,,,,12,,,58,70
31440,note_on,,,,,240,0,14,,,,12,,,52,0
31680,note_on,,,,,1920,0,1,,,,0,,,82,0
31680,note_on,,,,,480,0,12,,,,10,,,67,0
31680,note_on,,,,,0,0,12,,,,10,,,66,102
31680,note_on,,,,,240,0,14,,,,12,,,58,0
31680,note_on,,,,,0,0,14,,,,12,,,52,92
31680,note_on,,,,,0,0,1,,,,0,,,85,80
31680,note_on,,,,,0,0,6,,,,3,,,58,80
31680,note_on,,,,,0,0,14,,,,12,,,61,70
31680,note_on,,,,,960,0,6,,,,3,,,61,0
31680,note_on,,,,,1920,0,4,,,,2,,,70,0
31680,note_on,,,,,0,0,4,,,,2,,,73,80
31680,note_on,,,,,960,0,13,,,,11,,,61,0
31680,note_on,,,,,0,0,13,,,,11,,,58,90
31872,note_on,,,,,1152,0,16,,,,14,,,30,0
31872,note_on,,,,,1152,0,15,,,,13,,,42,0
32160,note_on,,,,,288,0,15,,,,13,,,42,80
32160,note_on,,,,,0,0,12,,,,10,,,64,107
32160,note_on,,,,,480,0,12,,,,10,,,66,0
32160,note_on,,,,,288,0,16,,,,14,,,30,80
32448,note_on,,,,,0,0,14,,,,12,,,61,0
32448,note_on,,,,,768,0,14,,,,12,,,52,0
32544,note_on,,,,,384,0,16,,,,14,,,30,0
32544,note_on,,,,,3744,0,8,,,,4,,,64,0
32544,note_on,,,,,384,0,15,,,,13,,,42,0
32544,note_on,,,,,0,0,8,,,,4,,,52,0
32592,note_on,,,,,0,0,4,,,,2,,,64,0
32592,note_on,,,,,912,0,4,,,,2,,,73,0
32592,note_on,,,,,912,0,1,,,,0,,,85,0
32592,note_on,,,,,0,0,1,,,,0,,,76,0
32616,note_on,,,,,456,0,12,,,,10,,,64,0
32620,note_on,,,,,940,0,13,,,,11,,,58,0
32640,set_tempo,,,,,23040,1,0,447761,,,,,,,
32640,note_on,,,,,192,0,14,,,,12,,,55,92
32640,note_on,,,,,48,0,1,,,,0,,,76,92
32640,note_on,,,,,0,0,1,,,,0,,,79,92
32640,note_on,,,,,20,0,13,,,,11,,,59,92
32640,note_on,,,,,0,0,6,,,,3,,,64,92
32640,note_on,,,,,96,0,16,,,,14,,,35,105
32640,note_on,,,,,0,0,6,,,,3,,,55,92
32640,note_on,,,,,3936,0,9,,,,5,,,64,80
32640,note_on,,,,,0,0,9,,,,5,,,67,80
32640,note_on,,,,,96,0,15,,,,13,,,47,105
32640,note_on,,,,,960,0,6,,,,3,,,58,0
32640,note_on,,,,,0,0,6,,,,3,,,42,0
32640,note_on,,,,,24,0,12,,,,10,,,59,116
32640,note_on,,,,,96,0,8,,,,4,,,47,80
32640,note_on,,,,,0,0,8,,,,4,,,59,80
32640,note_on,,,,,0,0,4,,,,2,,,71,92
32640,note_on,,,,,48,0,4,,,,2,,,67,92
32880,note_on,,,,,0,0,14,,,,12,,,52,92
32880,note_on,,,,,240,0,14,,,,12,,,55,0
32880,note_on,,,,,0,0,13,,,,11,,,55,92
32880,note_on,,,,,240,0,13,,,,11,,,59,0
33120,set_tempo,,,,,480,1,0,454545,,,,,,,
33120,note_on,,,,,0,0,13,,,,11,,,59,92
33120,note_on,,,,,240,0,13,,,,11,,,55,0
33120,note_on,,,,,0,0,14,,,,12,,,55,92
33120,note_on,,,,,240,0,14,,,,12,,,52,0
33360,note_on,,,,,0,0,13,,,,11,,,64,92
33360,note_on,,,,,0,0,14,,,,12,,,59,92
33360,note_on,,,,,240,0,14,,,,12,,,55,0
33360,note_on,,,,,240,0,13,,,,11,,,59,0
33360,note_on,,,,,720,0,12,,,,10,,,59,0
33360,note_on,,,,,0,0,12,,,,10,,,71,116
33552,note_on,,,,,192,0,13,,,,11,,,64,0
33552,note_on,,,,,192,0,14,,,,12,,,59,0
33552,note_on,,,,,912,0,15,,,,13,,,47,0
33552,note_on,,,,,912,0,16,,,,14,,,35,0
33588,note_on,,,,,228,0,12,,,,10,,,71,0
33600,note_on,,,,,12,0,12,,,,10,,,71,116
33600,note_on,,,,,48,0,15,,,,13,,,47,105
33600,note_on,,,,,48,0,13,,,,11,,,67,92
33600,note_on,,,,,48,0,14,,,,12,,,64,92
33600,set_tempo,,,,,480,1,0,461538,,,,,,,
33600,note_on,,,,,48,0,16,,,,14,,,35,105
33600,note_on,,,,,33600,0,3,,,,1,,,71,105
33840,note_on,,,,,240,0,13,,,,11,,,67,0
33840,note_on,,,,,0,0,13,,,,11,,,64,92
33840,note_on,,,,,240,0,14,,,,12,,,64,0
33840,note_on,,,,,0,0,14,,,,12,,,59,92
34080,set_tempo,,,,,480,1,0,465116,,,,,,,
34080,note_on,,,,,0,0,13,,,,11,,,67,92
34080,note_on,,,,,240,0,14,,,,12,,,59,0
34080,note_on,,,,,0,0,14,,,,12,,,64,92
34080,note_on,,,,,240,0,13,,,,11,,,64,0
34320,note_on,,,,,0,0,3,,,,1,,,83,105
34320,note_on,,,,,0,0,14,,,,12,,,67,92
34320,note_on,,,,,720,0,3,,,,1,,,71,0
34320,note_on,,,,,240,0,14,,,,12,,,64,0
34320,note_on,,,,,0,0,13,,,,11,,,71,92
34320,note_on,,,,,240,0,13,,,,11,,,67,0
34512,note_on,,,,,912,0,16,,,,14,,,35,0
34512,note_on,,,,,192,0,14,,,,12,,,67,0
34512,note_on,,,,,192,0,13,,,,11,,,71,0
34512,note_on,,,,,912,0,15,,,,13,,,47,0
34512,note_on,,,,,192,0,3,,,,1,,,83,0
34560,note_on,,,,,48,0,13,,,,11,,,63,92
34560,note_on,,,,,48,0,3,,,,1,,,84,92
34560,set_tempo,,,,,480,1,0,472441,,,,,,,
34560,note_on,,,,,1920,0,4,,,,2,,,71,0
34560,note_on,,,,,0,0,6,,,,3,,,66,80
34560,note_on,,,,,0,0,6,,,,3,,,55,0
34560,note_on,,,,,1920,0,6,,,,3,,,64,0
34560,note_on,,,,,48,0,15,,,,13,,,59,105
34560,note_on,,,,,1920,0,9,,,,5,,,67,0
34560,note_on,,,,,0,0,9,,,,5,,,64,0
34560,note_on,,,,,0,0,9,,,,5,,,63,70
34560,note_on,,,,,0,0,9,,,,5,,,66,70
34560,note_on,,,,,48,0,16,,,,14,,,47,105
34560,note_on,,,,,0,0,6,,,,3,,,59,80
34560,note_on,,,,,48,0,14,,,,12,,,66,92
34560,note_on,,,,,0,0,1,,,,0,,,75,80
34560,note_on,,,,,0,0,4,,,,2,,,67,0
34560,note_on,,,,,0,0,4,,,,2,,,69,80
34560,note_on,,,,,0,0,4,,,,2,,,75,80
34560,note_on,,,,,0,0,1,,,,0,,,69,80
34560,note_on,,,,,0,0,1,,,,0,,,76,0
34560,note_on,,,,,1920,0,1,,,,0,,,79,0
34944,note_on,,,,,0,0,9,,,,5,,,63,0
34944,note_on,,,,,384,0,9,,,,5,,,66,0
34944,note_on,,,,,384,0,4,,,,2,,,75,0
34944,note_on,,,,,384,0,15,,,,13,,,59,0
34944,note_on,,,,,0,0,4,,,,2,,,69,0
34944,note_on,,,,,384,0,14,,,,12,,,66,0
34944,note_on,,,,,384,0,13,,,,11,,,63,0
34944,note_on,,,,,384,0,16,,,,14,,,47,0
35016,note_on,,,,,1416,0,12,,,,10,,,71,0
35040,note_on,,,,,24,0,12,,,,10,,,69,116
35040,set_tempo,,,,,480,1,0,480000,,,,,,,
35400,note_on,,,,,360,0,12,,,,10,,,69,0
35400,note_on,,,,,0,0,12,,,,10,,,71,106
35460,note_on,,,,,60,0,12,,,,10,,,71,0
35460,note_on,,,,,0,0,12,,,,10,,,69,104
35508,note_on,,,,,48,0,12,,,,10,,,69,0
35520,note_on,,,,,12,0,12,,,,10,,,67,102
35520,set_tempo,,,,,480,1,0,487805,,,,,,,
35520,note_on,,,,,0,0,6,,,,3,,,63,80
35520,note_on,,,,,960,0,6,,,,3,,,66,0
36000,note_on,,,,,1056,0,13,,,,11,,,83,63
36000,note_on,,,,,1440,0,3,,,,1,,,84,0
36000,set_tempo,,,,,480,1,0,491803,,,,,,,
36000,note_on,,,,,1056,0,14,,,,12,,,71,63
36000,note_on,,,,,480,0,12,,,,10,,,67,0
36000,note_on,,,,,0,0,12,,,,10,,,66,87
36000,note_on,,,,,0,0,3,,,,1,,,75,92
36240,note_on,,,,,0,0,13,,,,11,,,71,63
36240,note_on,,,,,240,0,13,,,,11,,,83,0
36480,note_on,,,,,0,0,8,,,,4,,,67,63
36480,note_on,,,,,0,0,8,,,,4,,,64,63
36480,note_on,,,,,480,0,3,,,,1,,,75,0
36480,note_on,,,,,240,0,13,,,,11,,,71,0
36480,note_on,,,,,0,0,8,,,,4,,,47,0
36480,note_on,,,,,3840,0,8,,,,4,,,59,0
36480,note_on,,,,,0,0,13,,,,11,,,79,63
36480,note_on,,,,,0,0,1,,,,0,,,67,63
36480,note_on,,,,,0,0,1,,,,0,,,75,0
36480,note_on,,,,,1920,0,1,,,,0,,,69,0
36480,note_on,,,,,0,0,6,,,,3,,,59,0
36480,note_on,,,,,0,0,6,,,,3,,,52,63
36480,set_tempo,,,,,480,1,0,434783,,,,,,,
36480,note_on,,,,,0,0,3,,,,1,,,76,63
36480,note_on,,,,,0,0,1,,,,0,,,76,63
36480,note_on,,,,,0,0,6,,,,3,,,59,63
36480,note_on,,,,,960,0,6,,,,3,,,63,0
36480,note_on,,,,,480,0,12,,,,10,,,66,0
36480,note_on,,,,,0,0,12,,,,10,,,64,63
36720,note_on,,,,,0,0,14,,,,12,,,69,63
36720,note_on,,,,,720,0,14,,,,12,,,71,0
36720,note_on,,,,,0,0,13,,,,11,,,67,63
36720,note_on,,,,,240,0,13,,,,11,,,79,0
36864,note_on,,,,,0,0,6,,,,3,,,52,0
36864,note_on,,,,,384,0,6,,,,3,,,59,0
36864,note_on,,,,,0,0,1,,,,0,,,67,0
36864,note_on,,,,,384,0,1,,,,0,,,76,0
36864,note_on,,,,,384,0,12,,,,10,,,64,0
36864,note_on,,,,,384,0,3,,,,1,,,76,0
36876,note_on,,,,,156,0,13,,,,11,,,67,0
36960,note_on,,,,,2016,0,15,,,,13,,,52,63
36960,note_on,,,,,240,0,14,,,,12,,,69,0
36960,note_on,,,,,0,0,14,,,,12,,,67,63
36960,note_on,,,,,2016,0,16,,,,14,,,40,63
37200,note_on,,,,,0,0,14,,,,12,,,66,63
37200,note_on,,,,,240,0,14,,,,12,,,67,0
37344,note_on,,,,,384,0,15,,,,13,,,52,0
37344,note_on,,,,,384,0,16,,,,14,,,40,0
37440,note_on,,,,,0,0,14,,,,12,,,67,63
37440,note_on,,,,,240,0,14,,,,12,,,66,0
37680,note_on,,,,,240,0,14,,,,12,,,67,0
37680,note_on,,,,,0,0,14,,,,12,,,66,63
37920,note_on,,,,,2976,0,4,,,,2,,,76,63
37920,note_on,,,,,240,0,14,,,,12,,,66,0
37920,note_on,,,,,0,0,14,,,,12,,,64,63
37920,note_on,,,,,1056,0,6,,,,3,,,64,63
37920,note_on,,,,,576,0,15,,,,13,,,48,63
37920,note_on,,,,,576,0,16,,,,14,,,36,63
37920,note_on,,,,,1056,0,12,,,,10,,,64,63
38160,note_on,,,,,0,0,14,,,,12,,,63,63
38160,note_on,,,,,240,0,14,,,,12,,,64,0
38160,note_on,,,,,240,0,12,,,,10,,,64,0
38160,note_on,,,,,0,0,12,,,,10,,,76,63
38304,note_on,,,,,384,0,15,,,,13,,,48,0
38304,note_on,,,,,384,0,16,,,,14,,,36,0
38400,note_on,,,,,0,0,14,,,,12,,,64,63
38400,note_on,,,,,0,0,8,,,,4,,,66,63
38400,note_on,,,,,1920,0,8,,,,4,,,67,0
38400,note_on,,,,,240,0,12,,,,10,,,76,0
38400,note_on,,,,,0,0,12,,,,10,,,72,63
38400,note_on,,,,,240,0,14,,,,12,,,63,0
38640,note_on,,,,,240,0,12,,,,10,,,72,0
38640,note_on,,,,,0,0,12,,,,10,,,84,63
38640,note_on,,,,,0,0,6,,,,3,,,62,63
38640,note_on,,,,,720,0,6,,,,3,,,64,0
38640,note_on,,,,,720,0,4,,,,2,,,76,0
38640,note_on,,,,,0,0,4,,,,2,,,74,63
38784,note_on,,,,,384,0,14,,,,12,,,64,0
38832,note_on,,,,,192,0,12,,,,10,,,84,0
38880,note_on,,,,,0,0,6,,,,3,,,60,63
38880,note_on,,,,,576,0,15,,,,13,,,45,63
38880,note_on,,,,,240,0,6,,,,3,,,62,0
38880,note_on,,,,,576,0,16,,,,14,,,33,63
38880,note_on,,,,,240,0,4,,,,2,,,74,0
38880,note_on,,,,,0,0,4,,,,2,,,72,63
39120,note_on,,,,,240,0,4,,,,2,,,72,0
39120,note_on,,,,,0,0,4,,,,2,,,71,63
39120,note_on,,,,,240,0,6,,,,3,,,60,0
39120,note_on,,,,,0,0,6,,,,3,,,59,63
39264,note_on,,,,,384,0,15,,,,13,,,45,0
39264,note_on,,,,,384,0,16,,,,14,,,33,0
39360,note_on,,,,,0,0,6,,,,3,,,60,63
39360,note_on,,,,,960,0,8,,,,4,,,66,0
39360,note_on,,,,,0,0,8,,,,4,,,69,63
39360,note_on,,,,,240,0,4,,,,2,,,71,0
39360,note_on,,,,,0,0,4,,,,2,,,72,63
39360,note_on,,,,,240,0,6,,,,3,,,59,0
39600,note_on,,,,,0,0,6,,,,3,,,59,63
39600,note_on,,,,,240,0,6,,,,3,,,60,0
39600,note_on,,,,,240,0,4,,,,2,,,72,0
39600,note_on,,,,,0,0,4,,,,2,,,71,63
39840,note_on,,,,,0,0,4,,,,2,,,69,63
39840,note_on,,,,,240,0,6,,,,3,,,59,0
39840,note_on,,,,,240,0,4,,,,2,,,71,0
39840,note_on,,,,,576,0,16,,,,14,,,42,63
39840,note_on,,,,,576,0,15,,,,13,,,54,63
39840,note_on,,,,,1056,0,14,,,,12,,,69,63
39840,note_on,,,,,2964,0,13,,,,11,,,81,63
39840,note_on,,,,,2976,0,3,,,,1,,,81,63
39840,note_on,,,,,0,0,6,,,,3,,,57,63
40080,note_on,,,,,0,0,4,,,,2,,,67,63
40080,note_on,,,,,240,0,4,,,,2,,,69,0
40080,note_on,,,,,240,0,6,,,,3,,,57,0
40080,note_on,,,,,0,0,6,,,,3,,,55,63
40080,note_on,,,,,0,0,13,,,,11,,,69,63
40080,note_on,,,,,240,0,13,,,,11,,,81,0
40224,note_on,,,,,384,0,15,,,,13,,,54,0
40224,note_on,,,,,384,0,16,,,,14,,,42,0
40320,note_on,,,,,0,0,4,,,,2,,,69,63
40320,note_on,,,,,960,0,8,,,,4,,,64,0
40320,note_on,,,,,0,0,6,,,,3,,,57,63
40320,note_on,,,,,240,0,6,,,,3,,,55,0
40320,note_on,,,,,240,0,4,,,,2,,,67,0
40320,note_on,,,,,0,0,8,,,,4,,,66,63
40320,note_on,,,,,0,0,13,,,,11,,,78,63
40320,note_on,,,,,240,0,13,,,,11,,,69,0
40560,note_on,,,,,720,0,14,,,,12,,,69,0
40560,note_on,,,,,0,0,13,,,,11,,,66,63
40560,note_on,,,,,0,0,14,,,,12,,,67,63
40560,note_on,,,,,0,0,3,,,,1,,,79,63
40560,note_on,,,,,240,0,13,,,,11,,,78,0
40560,note_on,,,,,720,0,3,,,,1,,,81,0
40704,note_on,,,,,384,0,6,,,,3,,,57,0
40704,note_on,,,,,384,0,4,,,,2,,,69,0
40752,note_on,,,,,192,0,13,,,,11,,,66,0
40800,note_on,,,,,0,0,14,,,,12,,,66,63
40800,note_on,,,,,240,0,14,,,,12,,,67,0
40800,note_on,,,,,240,0,3,,,,1,,,79,0
40800,note_on,,,,,576,0,16,,,,14,,,39,63
40800,note_on,,,,,576,0,15,,,,13,,,51,63
40800,note_on,,,,,0,0,3,,,,1,,,78,63
41040,note_on,,,,,0,0,14,,,,12,,,64,63
41040,note_on,,,,,240,0,3,,,,1,,,78,0
41040,note_on,,,,,0,0,3,,,,1,,,76,63
41040,note_on,,,,,240,0,14,,,,12,,,66,0
41184,note_on,,,,,384,0,16,,,,14,,,39,0
41184,note_on,,,,,384,0,15,,,,13,,,51,0
41280,note_on,,,,,0,0,8,,,,4,,,66,63
41280,note_on,,,,,0,0,8,,,,4,,,63,63
41280,note_on,,,,,0,0,8,,,,4,,,69,0
41280,note_on,,,,,240,0,14,,,,12,,,64,0
41280,note_on,,,,,0,0,14,,,,12,,,66,63
41280,note_on,,,,,960,0,8,,,,4,,,66,0
41280,note_on,,,,,0,0,3,,,,1,,,78,63
41280,note_on,,,,,240,0,3,,,,1,,,76,0
41520,note_on,,,,,0,0,14,,,,12,,,64,63
41520,note_on,,,,,0,0,3,,,,1,,,76,63
41520,note_on,,,,,240,0,3,,,,1,,,78,0
41520,note_on,,,,,240,0,14,,,,12,,,66,0
41760,note_on,,,,,4896,0,1,,,,0,,,87,63
41760,note_on,,,,,576,0,16,,,,14,,,35,63
41760,note_on,,,,,240,0,14,,,,12,,,64,0
41760,note_on,,,,,2928,0,12,,,,10,,,63,63
41760,note_on,,,,,576,0,15,,,,13,,,47,63
41760,note_on,,,,,1056,0,6,,,,3,,,63,63
41760,note_on,,,,,0,0,3,,,,1,,,75,63
41760,note_on,,,,,240,0,3,,,,1,,,76,0
41760,note_on,,,,,1056,0,4,,,,2,,,75,63
41760,note_on,,,,,0,0,14,,,,12,,,63,63
42000,note_on,,,,,0,0,14,,,,12,,,61,63
42000,note_on,,,,,240,0,14,,,,12,,,63,0
42000,note_on,,,,,240,0,3,,,,1,,,75,0
42000,note_on,,,,,0,0,3,,,,1,,,73,63
42000,note_on,,,,,240,0,12,,,,10,,,63,0
42000,note_on,,,,,0,0,12,,,,10,,,75,63
42144,note_on,,,,,384,0,16,,,,14,,,35,0
42144,note_on,,,,,384,0,15,,,,13,,,47,0
42240,note_on,,,,,0,0,3,,,,1,,,75,63
42240,note_on,,,,,0,0,14,,,,12,,,63,63
42240,note_on,,,,,240,0,14,,,,12,,,61,0
42240,note_on,,,,,240,0,3,,,,1,,,73,0
42240,note_on,,,,,0,0,12,,,,10,,,71,63
42240,note_on,,,,,240,0,12,,,,10,,,75,0
42432,note_on,,,,,672,0,6,,,,3,,,63,0
42432,note_on,,,,,672,0,4,,,,2,,,75,0
42432,note_on,,,,,672,0,1,,,,0,,,87,0
42480,note_on,,,,,48,0,4,,,,2,,,73,63
42480,note_on,,,,,240,0,12,,,,10,,,71,0
42480,note_on,,,,,48,0,1,,,,0,,,85,63
42480,note_on,,,,,48,0,6,,,,3,,,61,63
42480,note_on,,,,,0,0,12,,,,10,,,83,63
42624,note_on,,,,,384,0,14,,,,12,,,63,0
42624,note_on,,,,,384,0,3,,,,1,,,75,0
42672,note_on,,,,,192,0,12,,,,10,,,83,0
42720,note_on,,,,,576,0,16,,,,14,,,31,63
42720,note_on,,,,,240,0,6,,,,3,,,61,0
42720,note_on,,,,,0,0,6,,,,3,,,59,63
42720,note_on,,,,,240,0,4,,,,2,,,73,0
42720,note_on,,,,,0,0,1,,,,0,,,83,63
42720,note_on,,,,,240,0,1,,,,0,,,85,0
42720,note_on,,,,,0,0,4,,,,2,,,71,63
42720,note_on,,,,,576,0,15,,,,13,,,43,63
42960,note_on,,,,,240,0,1,,,,0,,,83,0
42960,note_on,,,,,0,0,1,,,,0,,,81,63
42960,note_on,,,,,0,0,4,,,,2,,,69,63
42960,note_on,,,,,240,0,4,,,,2,,,71,0
42960,note_on,,,,,0,0,6,,,,3,,,57,63
42960,note_on,,,,,240,0,6,,,,3,,,59,0
43104,note_on,,,,,384,0,15,,,,13,,,43,0
43104,note_on,,,,,384,0,16,,,,14,,,31,0
43200,note_on,,,,,240,0,4,,,,2,,,69,0
43200,note_on,,,,,0,0,4,,,,2,,,71,63
43200,note_on,,,,,0,0,6,,,,3,,,59,63
43200,note_on,,,,,240,0,1,,,,0,,,81,0
43200,note_on,,,,,0,0,1,,,,0,,,83,63
43200,note_on,,,,,1920,0,8,,,,4,,,66,0
43200,note_on,,,,,0,0,8,,,,4,,,63,0
43200,note_on,,,,,0,0,8,,,,4,,,67,63
43200,note_on,,,,,0,0,8,,,,4,,,64,63
43200,note_on,,,,,240,0,6,,,,3,,,57,0
43200,note_on,,,,,8256,0,9,,,,5,,,67,63
43200,note_on,,,,,0,0,9,,,,5,,,55,63
43440,note_on,,,,,240,0,1,,,,0,,,83,0
43440,note_on,,,,,240,0,4,,,,2,,,71,0
43440,note_on,,,,,0,0,1,,,,0,,,81,63
43440,note_on,,,,,0,0,4,,,,2,,,69,63
43440,note_on,,,,,240,0,6,,,,3,,,59,0
43440,note_on,,,,,0,0,6,,,,3,,,57,63
43680,note_on,,,,,576,0,15,,,,13,,,52,63
43680,note_on,,,,,240,0,1,,,,0,,,81,0
43680,note_on,,,,,0,0,1,,,,0,,,79,63
43680,note_on,,,,,240,0,6,,,,3,,,57,0
43680,note_on,,,,,0,0,6,,,,3,,,55,63
43680,note_on,,,,,0,0,4,,,,2,,,67,63
43680,note_on,,,,,240,0,4,,,,2,,,69,0
43680,note_on,,,,,1008,0,12,,,,10,,,88,63
43680,note_on,,,,,576,0,16,,,,14,,,40,63
43920,note_on,,,,,240,0,6,,,,3,,,55,0
43920,note_on,,,,,0,0,4,,,,2,,,66,63
43920,note_on,,,,,240,0,4,,,,2,,,67,0
43920,note_on,,,,,240,0,1,,,,0,,,79,0
43920,note_on,,,,,0,0,1,,,,0,,,78,63
43920,note_on,,,,,240,0,12,,,,10,,,88,0
43920,note_on,,,,,0,0,12,,,,10,,,75,63
43920,note_on,,,,,0,0,6,,,,3,,,54,63
43968,note_on,,,,,768,0,8,,,,4,,,64,0
43968,note_on,,,,,0,0,8,,,,4,,,67,0
44064,note_on,,,,,384,0,16,,,,14,,,40,0
44064,note_on,,,,,384,0,15,,,,13,,,52,0
44160,note_on,,,,,0,0,12,,,,10,,,76,63
44160,note_on,,,,,0,0,1,,,,0,,,79,63
44160,note_on,,,,,240,0,1,,,,0,,,78,0
44160,note_on,,,,,1536,0,3,,,,1,,,76,63
44160,note_on,,,,,0,0,3,,,,1,,,72,63
44160,note_on,,,,,240,0,4,,,,2,,,66,0
44160,note_on,,,,,0,0,4,,,,2,,,67,63
44160,note_on,,,,,0,0,14,,,,12,,,60,63
44160,note_on,,,,,1536,0,14,,,,12,,,64,63
44160,note_on,,,,,0,0,6,,,,3,,,55,63
44160,note_on,,,,,240,0,6,,,,3,,,54,0
44160,note_on,,,,,240,0,12,,,,10,,,75,0
44400,note_on,,,,,240,0,3,,,,1,,,72,0
44400,note_on,,,,,0,0,3,,,,1,,,76,0
44400,note_on,,,,,0,0,3,,,,1,,,67,63
44400,note_on,,,,,0,0,3,,,,1,,,74,63
44400,note_on,,,,,0,0,14,,,,12,,,64,0
44400,note_on,,,,,240,0,12,,,,10,,,76,0
44400,note_on,,,,,0,0,12,,,,10,,,64,63
44400,note_on,,,,,240,0,14,,,,12,,,60,0
44400,note_on,,,,,0,0,14,,,,12,,,55,63
44400,note_on,,,,,0,0,14,,,,12,,,62,63
44544,note_on,,,,,384,0,1,,,,0,,,79,0
44544,note_on,,,,,384,0,6,,,,3,,,55,0
44544,note_on,,,,,384,0,4,,,,2,,,67,0
44592,note_on,,,,,192,0,12,,,,10,,,64,0
44640,note_on,,,,,0,0,14,,,,12,,,55,0
44640,note_on,,,,,0,0,14,,,,12,,,60,63
44640,note_on,,,,,0,0,14,,,,12,,,52,63
44640,note_on,,,,,240,0,3,,,,1,,,74,0
44640,note_on,,,,,0,0,3,,,,1,,,67,0
44640,note_on,,,,,576,0,16,,,,14,,,48,63
44640,note_on,,,,,0,0,3,,,,1,,,64,63
44640,note_on,,,,,0,0,3,,,,1,,,72,63
44640,note_on,,,,,576,0,15,,,,13,,,60,63
44640,note_on,,,,,240,0,14,,,,12,,,62,0
44880,note_on,,,,,0,0,14,,,,12,,,52,0
44880,note_on,,,,,0,0,3,,,,1,,,72,0
44880,note_on,,,,,0,0,3,,,,1,,,74,63
44880,note_on,,,,,240,0,14,,,,12,,,60,0
44880,note_on,,,,,240,0,3,,,,1,,,64,0
44880,note_on,,,,,0,0,14,,,,12,,,62,63
44880,note_on,,,,,0,0,3,,,,1,,,67,63
44880,note_on,,,,,0,0,14,,,,12,,,55,63
45024,note_on,,,,,384,0,16,,,,14,,,48,0
45024,note_on,,,,,384,0,15,,,,13,,,60,0
45120,note_on,,,,,0,0,14,,,,12,,,55,0
45120,note_on,,,,,0,0,14,,,,12,,,60,63
45120,note_on,,,,,240,0,14,,,,12,,,62,0
45120,note_on,,,,,0,0,1,,,,0,,,76,63
45120,note_on,,,,,0,0,3,,,,1,,,76,63
45120,note_on,,,,,576,0,1,,,,0,,,72,63
45120,note_on,,,,,0,0,14,,,,12,,,64,63
45120,note_on,,,,,0,0,3,,,,1,,,72,63
45120,note_on,,,,,0,0,4,,,,2,,,60,63
45120,note_on,,,,,576,0,4,,,,2,,,64,63
45120,note_on,,,,,576,0,6,,,,3,,,48,63
45120,note_on,,,,,0,0,6,,,,3,,,52,63
45120,note_on,,,,,240,0,3,,,,1,,,74,0
45120,note_on,,,,,0,0,3,,,,1,,,67,0
45360,note_on,,,,,0,0,1,,,,0,,,74,63
45360,note_on,,,,,0,0,1,,,,0,,,79,63
45360,note_on,,,,,0,0,1,,,,0,,,72,0
45360,note_on,,,,,0,0,6,,,,3,,,50,63
45360,note_on,,,,,240,0,1,,,,0,,,76,0
45360,note_on,,,,,0,0,6,,,,3,,,55,63
45360,note_on,,,,,0,0,4,,,,2,,,62,63
45360,note_on,,,,,0,0,4,,,,2,,,64,0
45360,note_on,,,,,240,0,4,,,,2,,,60,0
45360,note_on,,,,,240,0,6,,,,3,,,52,0
45360,note_on,,,,,0,0,6,,,,3,,,48,0
45360,note_on,,,,,0,0,4,,,,2,,,67,63
45504,note_on,,,,,384,0,14,,,,12,,,64,0
45504,note_on,,,,,0,0,14,,,,12,,,60,0
45504,note_on,,,,,0,0,3,,,,1,,,72,0
45504,note_on,,,,,384,0,3,,,,1,,,76,0
45600,note_on,,,,,576,0,16,,,,14,,,36,63
45600,note_on,,,,,0,0,1,,,,0,,,75,63
45600,note_on,,,,,0,0,1,,,,0,,,84,63
45600,note_on,,,,,0,0,1,,,,0,,,74,0
45600,note_on,,,,,240,0,1,,,,0,,,79,0
45600,note_on,,,,,576,0,15,,,,13,,,48,63
45600,note_on,,,,,0,0,6,,,,3,,,51,63
45600,note_on,,,,,0,0,6,,,,3,,,50,0
45600,note_on,,,,,0,0,6,,,,3,,,60,63
45600,note_on,,,,,4848,0,13,,,,11,,,67,63
45600,note_on,,,,,240,0,4,,,,2,,,62,0
45600,note_on,,,,,0,0,4,,,,2,,,67,0
45600,note_on,,,,,0,0,4,,,,2,,,72,63
45600,note_on,,,,,0,0,4,,,,2,,,63,63
45600,note_on,,,,,240,0,6,,,,3,,,55,0
45840,note_on,,,,,0,0,1,,,,0,,,81,63
45840,note_on,,,,,0,0,4,,,,2,,,66,63
45840,note_on,,,,,0,0,4,,,,2,,,69,63
45840,note_on,,,,,240,0,1,,,,0,,,75,0
45840,note_on,,,,,0,0,1,,,,0,,,84,0
45840,note_on,,,,,0,0,1,,,,0,,,78,63
45840,note_on,,,,,240,0,4,,,,2,,,63,0
45840,note_on,,,,,240,0,6,,,,3,,,51,0
45840,note_on,,,,,240,0,13,,,,11,,,67,0
45840,note_on,,,,,0,0,6,,,,3,,,60,0
45840,note_on,,,,,0,0,4,,,,2,,,72,0
45840,note_on,,,,,0,0,13,,,,11,,,79,63
45840,note_on,,,,,0,0,6,,,,3,,,57,63
45840,note_on,,,,,0,0,6,,,,3,,,54,63
45984,note_on,,,,,384,0,16,,,,14,,,36,0
45984,note_on,,,,,384,0,15,,,,13,,,48,0
46080,note_on,,,,,0,0,6,,,,3,,,59,63
46080,note_on,,,,,240,0,1,,,,0,,,78,0
46080,note_on,,,,,0,0,1,,,,0,,,81,0
46080,note_on,,,,,0,0,1,,,,0,,,83,63
46080,note_on,,,,,0,0,1,,,,0,,,79,63
46080,note_on,,,,,0,0,6,,,,3,,,54,0
46080,note_on,,,,,240,0,6,,,,3,,,57,0
46080,note_on,,,,,240,0,13,,,,11,,,79,0
46080,note_on,,,,,0,0,14,,,,12,,,59,63
46080,note_on,,,,,0,0,3,,,,1,,,74,63
46080,note_on,,,,,576,0,3,,,,1,,,71,63
46080,note_on,,,,,0,0,13,,,,11,,,71,63
46080,note_on,,,,,576,0,14,,,,12,,,62,63
46080,note_on,,,,,0,0,6,,,,3,,,55,63
46080,note_on,,,,,0,0,4,,,,2,,,71,63
46080,note_on,,,,,240,0,4,,,,2,,,66,0
46080,note_on,,,,,0,0,4,,,,2,,,67,63
46080,note_on,,,,,0,0,4,,,,2,,,69,0
46320,note_on,,,,,0,0,14,,,,12,,,57,63
46320,note_on,,,,,0,0,3,,,,1,,,69,63
46320,note_on,,,,,0,0,3,,,,1,,,71,0
46320,note_on,,,,,240,0,3,,,,1,,,74,0
46320,note_on,,,,,0,0,14,,,,12,,,60,63
46320,note_on,,,,,0,0,14,,,,12,,,62,0
46320,note_on,,,,,0,0,3,,,,1,,,72,63
46320,note_on,,,,,240,0,14,,,,12,,,59,0
46320,note_on,,,,,0,0,13,,,,11,,,83,63
46320,note_on,,,,,240,0,13,,,,11,,,71,0
46464,note_on,,,,,0,0,4,,,,2,,,67,0
46464,note_on,,,,,384,0,6,,,,3,,,55,0
46464,note_on,,,,,384,0,4,,,,2,,,71,0
46464,note_on,,,,,0,0,6,,,,3,,,59,0
46464,note_on,,,,,384,0,1,,,,0,,,79,0
46464,note_on,,,,,0,0,1,,,,0,,,83,0
46512,note_on,,,,,192,0,13,,,,11,,,83,0
46560,note_on,,,,,0,0,3,,,,1,,,71,63
46560,note_on,,,,,0,0,3,,,,1,,,69,0
46560,note_on,,,,,0,0,3,,,,1,,,67,63
46560,note_on,,,,,240,0,3,,,,1,,,72,0
46560,note_on,,,,,576,0,15,,,,13,,,43,63
46560,note_on,,,,,576,0,16,,,,14,,,31,63
46560,note_on,,,,,240,0,14,,,,12,,,60,0
46560,note_on,,,,,0,0,14,,,,12,,,57,0
46560,note_on,,,,,0,0,14,,,,12,,,55,63
46560,note_on,,,,,0,0,14,,,,12,,,59,63
46800,note_on,,,,,0,0,3,,,,1,,,72,63
46800,note_on,,,,,240,0,14,,,,12,,,59,0
46800,note_on,,,,,0,0,3,,,,1,,,69,63
46800,note_on,,,,,0,0,3,,,,1,,,67,0
46800,note_on,,,,,240,0,3,,,,1,,,71,0
46800,note_on,,,,,0,0,14,,,,12,,,60,63
46800,note_on,,,,,0,0,14,,,,12,,,57,63
46800,note_on,,,,,0,0,14,,,,12,,,55,0
46944,note_on,,,,,384,0,16,,,,14,,,31,0
46944,note_on,,,,,384,0,15,,,,13,,,43,0
47040,note_on,,,,,240,0,14,,,,12,,,57,0
47040,note_on,,,,,0,0,14,,,,12,,,60,0
47040,note_on,,,,,576,0,6,,,,3,,,58,63
47040,note_on,,,,,0,0,14,,,,12,,,62,63
47040,note_on,,,,,0,0,14,,,,12,,,58,63
47040,note_on,,,,,576,0,1,,,,0,,,86,63
47040,note_on,,,,,0,0,1,,,,0,,,82,63
47040,note_on,,,,,0,0,4,,,,2,,,74,63
47040,note_on,,,,,240,0,3,,,,1,,,72,0
47040,note_on,,,,,0,0,3,,,,1,,,74,63
47040,note_on,,,,,0,0,3,,,,1,,,70,63
47040,note_on,,,,,0,0,6,,,,3,,,62,63
47040,note_on,,,,,576,0,4,,,,2,,,70,63
47040,note_on,,,,,0,0,3,,,,1,,,69,0
47280,note_on,,,,,0,0,6,,,,3,,,57,63
47280,note_on,,,,,0,0,6,,,,3,,,60,63
47280,note_on,,,,,240,0,1,,,,0,,,82,0
47280,note_on,,,,,240,0,6,,,,3,,,62,0
47280,note_on,,,,,0,0,1,,,,0,,,84,63
47280,note_on,,,,,0,0,4,,,,2,,,72,63
47280,note_on,,,,,0,0,4,,,,2,,,69,63
47280,note_on,,,,,0,0,4,,,,2,,,70,0
47280,note_on,,,,,240,0,4,,,,2,,,74,0
47280,note_on,,,,,0,0,6,,,,3,,,58,0
47280,note_on,,,,,0,0,1,,,,0,,,81,63
47280,note_on,,,,,0,0,1,,,,0,,,86,0
47424,note_on,,,,,384,0,14,,,,12,,,58,0
47424,note_on,,,,,0,0,14,,,,12,,,62,0
47424,note_on,,,,,0,0,3,,,,1,,,74,0
47424,note_on,,,,,384,0,3,,,,1,,,70,0
47520,note_on,,,,,576,0,16,,,,14,,,43,63
47520,note_on,,,,,0,0,1,,,,0,,,79,63
47520,note_on,,,,,0,0,1,,,,0,,,82,63
47520,note_on,,,,,0,0,1,,,,0,,,81,0
47520,note_on,,,,,240,0,4,,,,2,,,72,0
47520,note_on,,,,,0,0,4,,,,2,,,69,0
47520,note_on,,,,,0,0,4,,,,2,,,67,63
47520,note_on,,,,,240,0,1,,,,0,,,84,0
47520,note_on,,,,,0,0,6,,,,3,,,60,0
47520,note_on,,,,,0,0,6,,,,3,,,58,63
47520,note_on,,,,,0,0,6,,,,3,,,55,63
47520,note_on,,,,,2928,0,12,,,,10,,,86,63
47520,note_on,,,,,576,0,15,,,,13,,,55,63
47520,note_on,,,,,240,0,6,,,,3,,,57,0
47520,note_on,,,,,0,0,4,,,,2,,,70,63
47760,note_on,,,,,0,0,12,,,,10,,,73,63
47760,note_on,,,,,240,0,12,,,,10,,,86,0
47760,note_on,,,,,0,0,1,,,,0,,,76,63
47760,note_on,,,,,240,0,1,,,,0,,,79,0
47760,note_on,,,,,240,0,4,,,,2,,,70,0
47760,note_on,,,,,0,0,4,,,,2,,,67,0
47760,note_on,,,,,0,0,4,,,,2,,,67,63
47760,note_on,,,,,0,0,4,,,,2,,,64,63
47760,note_on,,,,,240,0,6,,,,3,,,55,0
47760,note_on,,,,,0,0,6,,,,3,,,52,63
47760,note_on,,,,,0,0,6,,,,3,,,55,63
47760,note_on,,,,,0,0,6,,,,3,,,58,0
47760,note_on,,,,,0,0,1,,,,0,,,82,0
47760,note_on,,,,,0,0,1,,,,0,,,79,63
47904,note_on,,,,,0,0,9,,,,5,,,67,0
47904,note_on,,,,,384,0,16,,,,14,,,43,0
47904,note_on,,,,,4704,0,9,,,,5,,,55,0
47904,note_on,,,,,384,0,15,,,,13,,,55,0
48000,note_on,,,,,576,0,14,,,,12,,,66,63
48000,note_on,,,,,576,0,3,,,,1,,,74,63
48000,note_on,,,,,0,0,6,,,,3,,,54,63
48000,note_on,,,,,240,0,6,,,,3,,,55,0
48000,note_on,,,,,0,0,9,,,,5,,,66,63
48000,note_on,,,,,0,0,12,,,,10,,,74,63
48000,note_on,,,,,240,0,12,,,,10,,,73,0
48000,note_on,,,,,0,0,6,,,,3,,,57,63
48000,note_on,,,,,0,0,6,,,,3,,,52,0
48000,note_on,,,,,96,0,9,,,,5,,,62,63
48000,note_on,,,,,0,0,3,,,,1,,,78,63
48000,note_on,,,,,0,0,14,,,,12,,,62,63
48000,note_on,,,,,0,0,4,,,,2,,,69,63
48000,note_on,,,,,0,0,1,,,,0,,,79,0
48000,note_on,,,,,0,0,1,,,,0,,,81,63
48000,note_on,,,,,240,0,1,,,,0,,,76,0
48000,note_on,,,,,0,0,1,,,,0,,,78,63
48000,note_on,,,,,240,0,4,,,,2,,,64,0
48000,note_on,,,,,0,0,4,,,,2,,,66,63
48000,note_on,,,,,0,0,4,,,,2,,,67,0
48240,note_on,,,,,0,0,3,,,,1,,,69,63
48240,note_on,,,,,240,0,12,,,,10,,,74,0
48240,note_on,,,,,0,0,14,,,,12,,,57,63
48240,note_on,,,,,0,0,14,,,,12,,,64,63
48240,note_on,,,,,0,0,14,,,,12,,,66,0
48240,note_on,,,,,0,0,12,,,,10,,,62,63
48240,note_on,,,,,240,0,14,,,,12,,,62,0
48240,note_on,,,,,240,0,3,,,,1,,,78,0
48240,note_on,,,,,0,0,3,,,,1,,,74,0
48240,note_on,,,,,0,0,3,,,,1,,,76,63
48384,note_on,,,,,0,0,1,,,,0,,,81,0
48384,note_on,,,,,384,0,1,,,,0,,,78,0
48384,note_on,,,,,384,0,6,,,,3,,,54,0
48384,note_on,,,,,0,0,6,,,,3,,,57,0
48384,note_on,,,,,384,0,4,,,,2,,,69,0
48384,note_on,,,,,0,0,4,,,,2,,,66,0
48432,note_on,,,,,192,0,12,,,,10,,,62,0
48480,note_on,,,,,0,0,3,,,,1,,,66,63
48480,note_on,,,,,0,0,3,,,,1,,,74,63
48480,note_on,,,,,576,0,16,,,,14,,,50,63
48480,note_on,,,,,576,0,15,,,,13,,,62,63
48480,note_on,,,,,0,0,3,,,,1,,,69,0
48480,note_on,,,,,240,0,3,,,,1,,,76,0
48480,note_on,,,,,0,0,14,,,,12,,,62,63
48480,note_on,,,,,0,0,14,,,,12,,,54,63
48480,note_on,,,,,240,0,14,,,,12,,,57,0
48480,note_on,,,,,0,0,14,,,,12,,,64,0
48720,note_on,,,,,240,0,14,,,,12,,,54,0
48720,note_on,,,,,0,0,14,,,,12,,,62,0
48720,note_on,,,,,0,0,14,,,,12,,,57,63
48720,note_on,,,,,0,0,3,,,,1,,,69,63
48720,note_on,,,,,0,0,14,,,,12,,,64,63
48720,note_on,,,,,0,0,3,,,,1,,,76,63
48720,note_on,,,,,0,0,3,,,,1,,,66,0
48720,note_on,,,,,240,0,3,,,,1,,,74,0
48864,note_on,,,,,384,0,16,,,,14,,,50,0
48864,note_on,,,,,384,0,15,,,,13,,,62,0
48960,note_on,,,,,0,0,6,,,,3,,,50,63
48960,note_on,,,,,576,0,1,,,,0,,,74,63
48960,note_on,,,,,0,0,4,,,,2,,,66,63
48960,note_on,,,,,576,0,6,,,,3,,,54,63
48960,note_on,,,,,576,0,4,,,,2,,,62,63
48960,note_on,,,,,0,0,14,,,,12,,,66,63
48960,note_on,,,,,0,0,3,,,,1,,,74,63
48960,note_on,,,,,0,0,1,,,,0,,,78,63
48960,note_on,,,,,0,0,3,,,,1,,,76,0
48960,note_on,,,,,0,0,3,,,,1,,,78,63
48960,note_on,,,,,240,0,14,,,,12,,,64,0
48960,note_on,,,,,240,0,3,,,,1,,,69,0
48960,note_on,,,,,0,0,14,,,,12,,,62,63
48960,note_on,,,,,0,0,14,,,,12,,,57,0
49200,note_on,,,,,0,0,4,,,,2,,,69,63
49200,note_on,,,,,0,0,6,,,,3,,,52,63
49200,note_on,,,,,240,0,6,,,,3,,,50,0
49200,note_on,,,,,240,0,4,,,,2,,,66,0
49200,note_on,,,,,0,0,6,,,,3,,,54,0
49200,note_on,,,,,0,0,6,,,,3,,,57,63
49200,note_on,,,,,0,0,4,,,,2,,,64,63
49200,note_on,,,,,0,0,1,,,,0,,,76,63
49200,note_on,,,,,0,0,1,,,,0,,,81,63
49200,note_on,,,,,0,0,1,,,,0,,,74,0
49200,note_on,,,,,240,0,1,,,,0,,,78,0
49200,note_on,,,,,0,0,4,,,,2,,,62,0
49344,note_on,,,,,384,0,14,,,,12,,,66,0
49344,note_on,,,,,0,0,14,,,,12,,,62,0
49344,note_on,,,,,384,0,3,,,,1,,,74,0
49344,note_on,,,,,0,0,3,,,,1,,,78,0
49440,note_on,,,,,2928,0,13,,,,11,,,65,63
49440,note_on,,,,,576,0,16,,,,14,,,38,63
49440,note_on,,,,,0,0,1,,,,0,,,86,63
49440,note_on,,,,,0,0,1,,,,0,,,77,63
49440,note_on,,,,,0,0,1,,,,0,,,81,0
49440,note_on,,,,,576,0,15,,,,13,,,50,63
49440,note_on,,,,,240,0,1,,,,0,,,76,0
49440,note_on,,,,,240,0,6,,,,3,,,52,0
49440,note_on,,,,,240,0,4,,,,2,,,64,0
49440,note_on,,,,,0,0,6,,,,3,,,53,63
49440,note_on,,,,,0,0,9,,,,5,,,65,63
49440,note_on,,,,,0,0,9,,,,5,,,62,63
49440,note_on,,,,,0,0,4,,,,2,,,65,63
49440,note_on,,,,,1440,0,9,,,,5,,,66,0
49440,note_on,,,,,0,0,9,,,,5,,,62,0
49440,note_on,,,,,0,0,6,,,,3,,,57,0
49440,note_on,,,,,0,0,4,,,,2,,,69,0
49440,note_on,,,,,0,0,6,,,,3,,,62,63
49440,note_on,,,,,0,0,4,,,,2,,,74,63
49680,note_on,,,,,0,0,1,,,,0,,,77,0
49680,note_on,,,,,0,0,1,,,,0,,,83,63
49680,note_on,,,,,0,0,1,,,,0,,,80,63
49680,note_on,,,,,240,0,13,,,,11,,,65,0
49680,note_on,,,,,0,0,4,,,,2,,,71,63
49680,note_on,,,,,0,0,4,,,,2,,,68,63
49680,note_on,,,,,0,0,4,,,,2,,,74,0
49680,note_on,,,,,240,0,4,,,,2,,,65,0
49680,note_on,,,,,240,0,1,,,,0,,,86,0
49680,note_on,,,,,0,0,13,,,,11,,,77,63
49680,note_on,,,,,0,0,6,,,,3,,,59,63
49680,note_on,,,,,0,0,6,,,,3,,,56,63
49680,note_on,,,,,240,0,6,,,,3,,,62,0
49680,note_on,,,,,0,0,6,,,,3,,,53,0
49824,note_on,,,,,384,0,16,,,,14,,,38,0
49824,note_on,,,,,384,0,15,,,,13,,,50,0
49920,note_on,,,,,240,0,6,,,,3,,,59,0
49920,note_on,,,,,240,0,13,,,,11,,,77,0
49920,note_on,,,,,0,0,1,,,,0,,,85,63
49920,note_on,,,,,0,0,1,,,,0,,,81,63
49920,note_on,,,,,0,0,13,,,,11,,,69,63
49920,note_on,,,,,0,0,1,,,,0,,,83,0
49920,note_on,,,,,0,0,14,,,,12,,,64,63
49920,note_on,,,,,0,0,9,,,,5,,,61,63
49920,note_on,,,,,0,0,9,,,,5,,,64,63
49920,note_on,,,,,0,0,9,,,,5,,,62,0
49920,note_on,,,,,480,0,9,,,,5,,,65,0
49920,note_on,,,,,0,0,6,,,,3,,,56,0
49920,note_on,,,,,576,0,14,,,,12,,,61,63
49920,note_on,,,,,0,0,6,,,,3,,,61,63
49920,note_on,,,,,240,0,1,,,,0,,,80,0
49920,note_on,,,,,240,0,4,,,,2,,,71,0
49920,note_on,,,,,0,0,4,,,,2,,,69,63
49920,note_on,,,,,0,0,6,,,,3,,,57,63
49920,note_on,,,,,0,0,4,,,,2,,,73,63
49920,note_on,,,,,0,0,3,,,,1,,,76,63
49920,note_on,,,,,576,0,3,,,,1,,,73,63
49920,note_on,,,,,0,0,4,,,,2,,,68,0
50160,note_on,,,,,0,0,3,,,,1,,,74,63
50160,note_on,,,,,0,0,3,,,,1,,,71,63
50160,note_on,,,,,0,0,3,,,,1,,,73,0
50160,note_on,,,,,240,0,3,,,,1,,,76,0
50160,note_on,,,,,0,0,14,,,,12,,,61,0
50160,note_on,,,,,0,0,14,,,,12,,,59,63
50160,note_on,,,,,0,0,14,,,,12,,,62,63
50160,note_on,,,,,240,0,13,,,,11,,,69,0
50160,note_on,,,,,0,0,13,,,,11,,,81,63
50160,note_on,,,,,240,0,14,,,,12,,,64,0
50304,note_on,,,,,0,0,6,,,,3,,,61,0
50304,note_on,,,,,0,0,4,,,,2,,,69,0
50304,note_on,,,,,384,0,4,,,,2,,,73,0
50304,note_on,,,,,384,0,6,,,,3,,,57,0
50304,note_on,,,,,384,0,1,,,,0,,,85,0
50304,note_on,,,,,0,0,1,,,,0,,,81,0
50352,note_on,,,,,192,0,13,,,,11,,,81,0
50400,note_on,,,,,576,0,15,,,,13,,,45,63
50400,note_on,,,,,240,0,3,,,,1,,,74,0
50400,note_on,,,,,0,0,14,,,,12,,,59,0
50400,note_on,,,,,0,0,3,,,,1,,,73,63
50400,note_on,,,,,0,0,3,,,,1,,,69,63
50400,note_on,,,,,240,0,14,,,,12,,,62,0
50400,note_on,,,,,576,0,16,,,,14,,,33,63
50400,note_on,,,,,0,0,3,,,,1,,,71,0
50400,note_on,,,,,0,0,14,,,,12,,,61,63
50400,note_on,,,,,0,0,14,,,,12,,,57,63
50640,note_on,,,,,0,0,14,,,,12,,,62,63
50640,note_on,,,,,0,0,14,,,,12,,,59,63
50640,note_on,,,,,240,0,14,,,,12,,,57,0
50640,note_on,,,,,0,0,3,,,,1,,,71,63
50640,note_on,,,,,0,0,3,,,,1,,,74,63
50640,note_on,,,,,0,0,3,,,,1,,,73,0
50640,note_on,,,,,240,0,3,,,,1,,,69,0
50640,note_on,,,,,0,0,14,,,,12,,,61,0
50784,note_on,,,,,384,0,16,,,,14,,,33,0
50784,note_on,,,,,384,0,15,,,,13,,,45,0
50880,note_on,,,,,0,0,14,,,,12,,,64,63
50880,note_on,,,,,0,0,14,,,,12,,,62,0
50880,note_on,,,,,0,0,14,,,,12,,,60,63
50880,note_on,,,,,240,0,14,,,,12,,,59,0
50880,note_on,,,,,0,0,1,,,,0,,,88,63
50880,note_on,,,,,960,0,9,,,,5,,,61,0
50880,note_on,,,,,576,0,4,,,,2,,,76,63
50880,note_on,,,,,0,0,3,,,,1,,,72,63
50880,note_on,,,,,0,0,3,,,,1,,,76,63
50880,note_on,,,,,0,0,3,,,,1,,,74,0
50880,note_on,,,,,240,0,3,,,,1,,,71,0
50880,note_on,,,,,0,0,9,,,,5,,,60,63
50880,note_on,,,,,0,0,9,,,,5,,,64,63
50880,note_on,,,,,0,0,9,,,,5,,,64,0
50880,note_on,,,,,576,0,1,,,,0,,,84,63
50880,note_on,,,,,0,0,6,,,,3,,,64,63
50880,note_on,,,,,576,0,6,,,,3,,,60,63
50880,note_on,,,,,0,0,4,,,,2,,,72,63
51120,note_on,,,,,0,0,6,,,,3,,,62,63
51120,note_on,,,,,0,0,6,,,,3,,,59,63
51120,note_on,,,,,0,0,1,,,,0,,,84,0
51120,note_on,,,,,0,0,1,,,,0,,,83,63
51120,note_on,,,,,0,0,1,,,,0,,,86,63
51120,note_on,,,,,0,0,6,,,,3,,,60,0
51120,note_on,,,,,240,0,4,,,,2,,,72,0
51120,note_on,,,,,0,0,4,,,,2,,,76,0
51120,note_on,,,,,0,0,4,,,,2,,,74,63
51120,note_on,,,,,240,0,1,,,,0,,,88,0
51120,note_on,,,,,0,0,4,,,,2,,,71,63
51120,note_on,,,,,240,0,6,,,,3,,,64,0
51264,note_on,,,,,0,0,3,,,,1,,,76,0
51264,note_on,,,,,384,0,3,,,,1,,,72,0
51264,note_on,,,,,0,0,14,,,,12,,,60,0
51264,note_on,,,,,384,0,14,,,,12,,,64,0
51360,note_on,,,,,0,0,14,,,,12,,,60,63
51360,note_on,,,,,576,0,15,,,,13,,,57,63
51360,note_on,,,,,0,0,4,,,,2,,,74,0
51360,note_on,,,,,2928,0,12,,,,10,,,84,70
51360,note_on,,,,,1008,0,13,,,,11,,,72,63
51360,note_on,,,,,0,0,4,,,,2,,,72,63
51360,note_on,,,,,0,0,4,,,,2,,,69,63
51360,note_on,,,,,576,0,16,,,,14,,,45,63
51360,note_on,,,,,96,0,14,,,,12,,,57,63
51360,note_on,,,,,0,0,6,,,,3,,,60,63
51360,note_on,,,,,240,0,4,,,,2,,,71,0
51360,note_on,,,,,0,0,1,,,,0,,,84,63
51360,note_on,,,,,0,0,1,,,,0,,,81,63
51360,note_on,,,,,0,0,1,,,,0,,,83,0
51360,note_on,,,,,240,0,1,,,,0,,,86,0
51360,note_on,,,,,0,0,6,,,,3,,,57,63
51360,note_on,,,,,0,0,6,,,,3,,,62,0
51360,note_on,,,,,240,0,6,,,,3,,,59,0
51600,note_on,,,,,240,0,6,,,,3,,,60,0
51600,note_on,,,,,0,0,4,,,,2,,,67,63
51600,note_on,,,,,0,0,4,,,,2,,,72,0
51600,note_on,,,,,240,0,4,,,,2,,,69,0
51600,note_on,,,,,0,0,6,,,,3,,,57,0
51600,note_on,,,,,0,0,4,,,,2,,,71,63
51600,note_on,,,,,0,0,6,,,,3,,,55,63
51600,note_on,,,,,0,0,6,,,,3,,,59,63
51600,note_on,,,,,0,0,1,,,,0,,,83,63
51600,note_on,,,,,0,0,1,,,,0,,,79,63
51600,note_on,,,,,0,0,1,,,,0,,,81,0
51600,note_on,,,,,240,0,1,,,,0,,,84,0
51648,note_on,,,,,288,0,13,,,,11,,,72,0
51648,note_on,,,,,0,0,14,,,,12,,,57,0
51648,note_on,,,,,288,0,14,,,,12,,,60,0
51648,note_on,,,,,288,0,12,,,,10,,,84,0
51648,note_on,,,,,288,0,15,,,,13,,,57,0
51744,note_on,,,,,384,0,16,,,,14,,,45,0
51792,note_on,,,,,0,0,9,,,,5,,,64,0
51792,note_on,,,,,912,0,9,,,,5,,,60,0
51840,note_on,,,,,0,0,1,,,,0,,,81,63
51840,note_on,,,,,0,0,14,,,,12,,,57,63
51840,note_on,,,,,0,0,1,,,,0,,,78,63
51840,note_on,,,,,240,0,6,,,,3,,,59,0
51840,note_on,,,,,192,0,14,,,,12,,,54,63
51840,note_on,,,,,240,0,1,,,,0,,,83,0
51840,note_on,,,,,0,0,1,,,,0,,,79,0
51840,note_on,,,,,0,0,6,,,,3,,,55,0
51840,note_on,,,,,0,0,4,,,,2,,,69,63
51840,note_on,,,,,0,0,4,,,,2,,,66,63
51840,note_on,,,,,0,0,4,,,,2,,,67,0
51840,note_on,,,,,240,0,4,,,,2,,,71,0
51840,note_on,,,,,192,0,12,,,,10,,,72,70
51840,note_on,,,,,192,0,13,,,,11,,,60,63
51840,note_on,,,,,192,0,15,,,,13,,,39,63
51840,note_on,,,,,0,0,6,,,,3,,,54,63
51840,note_on,,,,,96,0,16,,,,14,,,39,63
51840,note_on,,,,,0,0,6,,,,3,,,57,63
52080,note_on,,,,,0,0,15,,,,13,,,45,63
52080,note_on,,,,,240,0,15,,,,13,,,39,0
52224,note_on,,,,,384,0,6,,,,3,,,57,0
52224,note_on,,,,,0,0,4,,,,2,,,66,0
52224,note_on,,,,,384,0,4,,,,2,,,69,0
52224,note_on,,,,,384,0,1,,,,0,,,81,0
52224,note_on,,,,,0,0,1,,,,0,,,78,0
52224,note_on,,,,,0,0,6,,,,3,,,54,0
52320,note_on,,,,,1056,0,3,,,,1,,,72,63
52320,note_on,,,,,0,0,15,,,,13,,,54,63
52320,note_on,,,,,240,0,15,,,,13,,,45,0
52320,note_on,,,,,0,0,8,,,,4,,,66,63
52320,note_on,,,,,8352,0,8,,,,4,,,69,63
52320,note_on,,,,,0,0,1,,,,0,,,78,63
52320,note_on,,,,,0,0,3,,,,1,,,69,63
52320,note_on,,,,,0,0,6,,,,3,,,57,63
52320,note_on,,,,,96,0,6,,,,3,,,51,63
52320,note_on,,,,,96,0,1,,,,0,,,81,63
52320,note_on,,,,,528,0,9,,,,5,,,60,63
52560,note_on,,,,,0,0,15,,,,13,,,57,63
52560,note_on,,,,,240,0,15,,,,13,,,54,0
52608,note_on,,,,,0,0,14,,,,12,,,54,0
52608,note_on,,,,,768,0,14,,,,12,,,57,0
52752,note_on,,,,,192,0,15,,,,13,,,57,0
52800,note_on,,,,,192,0,14,,,,12,,,57,63
52800,note_on,,,,,0,0,14,,,,12,,,54,63
52800,note_on,,,,,48,0,15,,,,13,,,51,63
52992,note_on,,,,,1152,0,16,,,,14,,,39,0
53040,note_on,,,,,240,0,14,,,,12,,,54,0
53040,note_on,,,,,0,0,14,,,,12,,,57,0
53040,note_on,,,,,0,0,14,,,,12,,,57,63
53040,note_on,,,,,0,0,12,,,,10,,,71,70
53040,note_on,,,,,0,0,13,,,,11,,,59,63
53040,note_on,,,,,0,0,14,,,,12,,,60,63
53040,note_on,,,,,1200,0,12,,,,10,,,72,0
53040,note_on,,,,,1200,0,13,,,,11,,,60,0
53088,note_on,,,,,768,0,8,,,,4,,,66,0
53088,note_on,,,,,768,0,3,,,,1,,,69,0
53088,note_on,,,,,0,0,8,,,,4,,,69,0
53088,note_on,,,,,768,0,1,,,,0,,,78,0
53088,note_on,,,,,0,0,6,,,,3,,,51,0
53088,note_on,,,,,0,0,3,,,,1,,,72,0
53088,note_on,,,,,768,0,9,,,,5,,,60,0
53088,note_on,,,,,768,0,6,,,,3,,,57,0
53088,note_on,,,,,0,0,1,,,,0,,,81,0
53280,note_on,,,,,0,0,12,,,,10,,,72,70
53280,note_on,,,,,0,0,13,,,,11,,,60,63
53280,note_on,,,,,192,0,3,,,,1,,,72,63
53280,note_on,,,,,192,0,9,,,,5,,,60,63
53280,note_on,,,,,0,0,3,,,,1,,,69,63
53280,note_on,,,,,0,0,1,,,,0,,,78,63
53280,note_on,,,,,240,0,12,,,,10,,,71,0
53280,note_on,,,,,240,0,13,,,,11,,,59,0
53280,note_on,,,,,192,0,1,,,,0,,,81,63
53280,note_on,,,,,288,0,16,,,,14,,,39,63
53280,note_on,,,,,0,0,14,,,,12,,,66,63
53280,note_on,,,,,0,0,8,,,,4,,,66,63
53280,note_on,,,,,192,0,8,,,,4,,,69,63
53280,note_on,,,,,0,0,14,,,,12,,,60,0
53280,note_on,,,,,240,0,14,,,,12,,,57,0
53280,note_on,,,,,192,0,6,,,,3,,,57,63
53280,note_on,,,,,0,0,6,,,,3,,,51,63
53280,note_on,,,,,0,0,14,,,,12,,,60,63
53520,note_on,,,,,240,0,14,,,,12,,,60,0
53520,note_on,,,,,0,0,14,,,,12,,,66,0
53520,note_on,,,,,240,0,12,,,,10,,,72,0
53520,note_on,,,,,0,0,13,,,,11,,,57,63
53520,note_on,,,,,240,0,13,,,,11,,,60,0
53520,note_on,,,,,0,0,14,,,,12,,,69,63
53520,note_on,,,,,0,0,14,,,,12,,,66,63
53520,note_on,,,,,0,0,12,,,,10,,,69,70
53568,note_on,,,,,768,0,15,,,,13,,,51,0
53664,note_on,,,,,384,0,3,,,,1,,,69,0
53664,note_on,,,,,0,0,3,,,,1,,,72,0
53664,note_on,,,,,0,0,8,,,,4,,,69,0
53664,note_on,,,,,384,0,8,,,,4,,,66,0
53664,note_on,,,,,0,0,1,,,,0,,,81,0
53664,note_on,,,,,384,0,1,,,,0,,,78,0
53664,note_on,,,,,384,0,9,,,,5,,,60,0
53664,note_on,,,,,384,0,16,,,,14,,,39,0
53664,note_on,,,,,384,0,6,,,,3,,,51,0
53664,note_on,,,,,0,0,6,,,,3,,,57,0
53712,note_on,,,,,192,0,12,,,,10,,,69,0
53712,note_on,,,,,0,0,14,,,,12,,,69,0
53712,note_on,,,,,192,0,13,,,,11,,,57,0
53712,note_on,,,,,192,0,14,,,,12,,,66,0
53760,note_on,,,,,0,0,14,,,,12,,,54,63
53760,note_on,,,,,48,0,14,,,,12,,,57,63
53760,note_on,,,,,192,0,15,,,,13,,,38,63
53760,note_on,,,,,48,0,13,,,,11,,,72,63
53760,note_on,,,,,48,0,12,,,,10,,,84,70
53760,note_on,,,,,96,0,16,,,,14,,,38,63
54000,note_on,,,,,0,0,15,,,,13,,,45,63
54000,note_on,,,,,240,0,15,,,,13,,,38,0
54240,note_on,,,,,576,0,1,,,,0,,,81,63
54240,note_on,,,,,0,0,1,,,,0,,,84,63
54240,note_on,,,,,240,0,15,,,,13,,,45,0
54240,note_on,,,,,0,0,3,,,,1,,,78,63
54240,note_on,,,,,576,0,3,,,,1,,,69,63
54240,note_on,,,,,0,0,8,,,,4,,,69,63
54240,note_on,,,,,576,0,9,,,,5,,,60,63
54240,note_on,,,,,576,0,8,,,,4,,,66,63
54240,note_on,,,,,576,0,6,,,,3,,,50,63
54240,note_on,,,,,0,0,6,,,,3,,,57,63
54240,note_on,,,,,0,0,15,,,,13,,,54,63
54480,note_on,,,,,0,0,15,,,,13,,,57,63
54480,note_on,,,,,240,0,15,,,,13,,,54,0
54528,note_on,,,,,0,0,14,,,,12,,,57,0
54528,note_on,,,,,768,0,14,,,,12,,,54,0
54672,note_on,,,,,192,0,15,,,,13,,,57,0
54720,note_on,,,,,192,0,14,,,,12,,,57,63
54720,note_on,,,,,0,0,14,,,,12,,,54,63
54720,note_on,,,,,48,0,15,,,,13,,,50,63
54912,note_on,,,,,1152,0,16,,,,14,,,38,0
54960,note_on,,,,,0,0,14,,,,12,,,60,63
54960,note_on,,,,,0,0,13,,,,11,,,69,63
54960,note_on,,,,,1200,0,13,,,,11,,,72,0
54960,note_on,,,,,1200,0,12,,,,10,,,84,0
54960,note_on,,,,,0,0,12,,,,10,,,81,70
54960,note_on,,,,,0,0,14,,,,12,,,57,63
54960,note_on,,,,,0,0,14,,,,12,,,57,0
54960,note_on,,,,,240,0,14,,,,12,,,54,0
55008,note_on,,,,,0,0,1,,,,0,,,81,0
55008,note_on,,,,,768,0,1,,,,0,,,84,0
55008,note_on,,,,,768,0,3,,,,1,,,78,0
55008,note_on,,,,,0,0,6,,,,3,,,50,0
55008,note_on,,,,,768,0,8,,,,4,,,69,0
55008,note_on,,,,,768,0,9,,,,5,,,60,0
55008,note_on,,,,,768,0,6,,,,3,,,57,0
55008,note_on,,,,,0,0,8,,,,4,,,66,0
55008,note_on,,,,,0,0,3,,,,1,,,69,0
55200,note_on,,,,,240,0,14,,,,12,,,57,0
55200,note_on,,,,,192,0,1,,,,0,,,81,63
55200,note_on,,,,,0,0,13,,,,11,,,66,63
55200,note_on,,,,,0,0,14,,,,12,,,66,63
55200,note_on,,,,,0,0,14,,,,12,,,60,63
55200,note_on,,,,,0,0,14,,,,12,,,60,0
55200,note_on,,,,,192,0,6,,,,3,,,57,63
55200,note_on,,,,,240,0,13,,,,11,,,69,0
55200,note_on,,,,,0,0,1,,,,0,,,84,63
55200,note_on,,,,,240,0,12,,,,10,,,81,0
55200,note_on,,,,,0,0,3,,,,1,,,78,63
55200,note_on,,,,,192,0,3,,,,1,,,69,63
55200,note_on,,,,,192,0,9,,,,5,,,60,63
55200,note_on,,,,,0,0,6,,,,3,,,50,63
55200,note_on,,,,,0,0,12,,,,10,,,78,70
55200,note_on,,,,,192,0,8,,,,4,,,69,63
55200,note_on,,,,,288,0,16,,,,14,,,38,63
55200,note_on,,,,,0,0,8,,,,4,,,66,63
55440,note_on,,,,,240,0,12,,,,10,,,78,0
55440,note_on,,,,,0,0,12,,,,10,,,72,70
55440,note_on,,,,,0,0,14,,,,12,,,69,63
55440,note_on,,,,,0,0,14,,,,12,,,66,63
55440,note_on,,,,,0,0,13,,,,11,,,60,63
55440,note_on,,,,,240,0,13,,,,11,,,66,0
55440,note_on,,,,,0,0,14,,,,12,,,60,0
55440,note_on,,,,,240,0,14,,,,12,,,66,0
55488,note_on,,,,,768,0,15,,,,13,,,50,0
55584,note_on,,,,,0,0,1,,,,0,,,81,0
55584,note_on,,,,,384,0,16,,,,14,,,38,0
55584,note_on,,,,,0,0,8,,,,4,,,69,0
55584,note_on,,,,,384,0,9,,,,5,,,60,0
55584,note_on,,,,,0,0,6,,,,3,,,57,0
55584,note_on,,,,,384,0,6,,,,3,,,50,0
55584,note_on,,,,,0,0,3,,,,1,,,69,0
55584,note_on,,,,,384,0,3,,,,1,,,78,0
55584,note_on,,,,,384,0,8,,,,4,,,66,0
55584,note_on,,,,,384,0,1,,,,0,,,84,0
55632,note_on,,,,,192,0,13,,,,11,,,60,0
55632,note_on,,,,,0,0,14,,,,12,,,66,0
55632,note_on,,,,,192,0,14,,,,12,,,69,0
55632,note_on,,,,,192,0,12,,,,10,,,72,0
55680,note_on,,,,,48,0,12,,,,10,,,73,70
55680,note_on,,,,,96,0,16,,,,14,,,37,70
55680,note_on,,,,,48,0,13,,,,11,,,61,63
55680,note_on,,,,,0,0,14,,,,12,,,54,63
55680,note_on,,,,,48,0,14,,,,12,,,57,63
55680,note_on,,,,,192,0,15,,,,13,,,37,70
55920,note_on,,,,,240,0,15,,,,13,,,37,0
55920,note_on,,,,,0,0,15,,,,13,,,45,70
56160,note_on,,,,,240,0,15,,,,13,,,45,0
56160,note_on,,,,,576,0,9,,,,5,,,61,63
56160,note_on,,,,,576,0,8,,,,4,,,69,63
56160,note_on,,,,,0,0,8,,,,4,,,66,63
56160,note_on,,,,,576,0,6,,,,3,,,49,63
56160,note_on,,,,,0,0,6,,,,3,,,57,63
56160,note_on,,,,,0,0,3,,,,1,,,69,63
56160,note_on,,,,,0,0,1,,,,0,,,85,70
56160,note_on,,,,,576,0,1,,,,0,,,81,70
56160,note_on,,,,,0,0,15,,,,13,,,54,70
56160,note_on,,,,,576,0,3,,,,1,,,66,63
56400,note_on,,,,,240,0,15,,,,13,,,54,0
56400,note_on,,,,,0,0,15,,,,13,,,57,70
56448,note_on,,,,,768,0,14,,,,12,,,54,0
56448,note_on,,,,,0,0,14,,,,12,,,57,0
56592,note_on,,,,,192,0,15,,,,13,,,57,0
56640,note_on,,,,,192,0,14,,,,12,,,57,63
56640,note_on,,,,,0,0,14,,,,12,,,54,63
56640,note_on,,,,,48,0,15,,,,13,,,49,70
56832,note_on,,,,,1152,0,16,,,,14,,,37,0
56880,note_on,,,,,1200,0,12,,,,10,,,73,0
56880,note_on,,,,,1200,0,13,,,,11,,,61,0
56880,note_on,,,,,0,0,12,,,,10,,,72,70
56880,note_on,,,,,0,0,14,,,,12,,,57,63
56880,note_on,,,,,0,0,14,,,,12,,,61,63
56880,note_on,,,,,0,0,14,,,,12,,,57,0
56880,note_on,,,,,240,0,14,,,,12,,,54,0
56880,note_on,,,,,0,0,13,,,,11,,,60,63
56928,note_on,,,,,768,0,8,,,,4,,,66,0
56928,note_on,,,,,0,0,8,,,,4,,,69,0
56928,note_on,,,,,768,0,6,,,,3,,,57,0
56928,note_on,,,,,768,0,3,,,,1,,,69,0
56928,note_on,,,,,0,0,6,,,,3,,,49,0
56928,note_on,,,,,0,0,1,,,,0,,,81,0
56928,note_on,,,,,768,0,1,,,,0,,,85,0
56928,note_on,,,,,768,0,9,,,,5,,,61,0
56928,note_on,,,,,0,0,3,,,,1,,,66,0
57120,note_on,,,,,288,0,16,,,,14,,,37,70
57120,note_on,,,,,192,0,3,,,,1,,,66,63
57120,note_on,,,,,240,0,14,,,,12,,,61,0
57120,note_on,,,,,0,0,14,,,,12,,,57,0
57120,note_on,,,,,0,0,14,,,,12,,,61,63
57120,note_on,,,,,0,0,14,,,,12,,,66,63
57120,note_on,,,,,0,0,3,,,,1,,,69,63
57120,note_on,,,,,192,0,9,,,,5,,,61,63
57120,note_on,,,,,0,0,12,,,,10,,,73,70
57120,note_on,,,,,192,0,8,,,,4,,,69,63
57120,note_on,,,,,0,0,8,,,,4,,,66,63
57120,note_on,,,,,0,0,1,,,,0,,,85,70
57120,note_on,,,,,192,0,1,,,,0,,,81,70
57120,note_on,,,,,192,0,6,,,,3,,,57,63
57120,note_on,,,,,0,0,6,,,,3,,,49,63
57120,note_on,,,,,0,0,13,,,,11,,,61,63
57120,note_on,,,,,240,0,13,,,,11,,,60,0
57120,note_on,,,,,240,0,12,,,,10,,,72,0
57360,note_on,,,,,0,0,13,,,,11,,,57,63
57360,note_on,,,,,240,0,13,,,,11,,,61,0
57360,note_on,,,,,0,0,14,,,,12,,,69,63
57360,note_on,,,,,0,0,14,,,,12,,,61,0
57360,note_on,,,,,240,0,14,,,,12,,,66,0
57360,note_on,,,,,0,0,12,,,,10,,,69,70
57360,note_on,,,,,240,0,12,,,,10,,,73,0
57360,note_on,,,,,0,0,14,,,,12,,,66,63
57408,note_on,,,,,768,0,15,,,,13,,,49,0
57504,note_on,,,,,384,0,9,,,,5,,,61,0
57504,note_on,,,,,0,0,6,,,,3,,,57,0
57504,note_on,,,,,384,0,6,,,,3,,,49,0
57504,note_on,,,,,384,0,16,,,,14,,,37,0
57504,note_on,,,,,0,0,1,,,,0,,,81,0
57504,note_on,,,,,0,0,3,,,,1,,,66,0
57504,note_on,,,,,384,0,3,,,,1,,,69,0
57504,note_on,,,,,384,0,8,,,,4,,,66,0
57504,note_on,,,,,384,0,1,,,,0,,,85,0
57504,note_on,,,,,0,0,8,,,,4,,,69,0
57552,note_on,,,,,192,0,14,,,,12,,,66,0
57552,note_on,,,,,0,0,14,,,,12,,,69,0
57552,note_on,,,,,192,0,13,,,,11,,,57,0
57552,note_on,,,,,192,0,12,,,,10,,,69,0
57600,note_on,,,,,192,0,15,,,,13,,,36,70
57600,note_on,,,,,48,0,12,,,,10,,,86,70
57600,note_on,,,,,48,0,13,,,,11,,,74,63
57600,note_on,,,,,48,0,14,,,,12,,,57,63
57600,note_on,,,,,96,0,16,,,,14,,,36,70
57600,note_on,,,,,0,0,14,,,,12,,,54,63
57840,note_on,,,,,240,0,15,,,,13,,,36,0
57840,note_on,,,,,0,0,15,,,,13,,,45,70
58080,note_on,,,,,0,0,1,,,,0,,,86,70
58080,note_on,,,,,576,0,1,,,,0,,,81,70
58080,note_on,,,,,576,0,3,,,,1,,,69,70
58080,note_on,,,,,0,0,3,,,,1,,,78,70
58080,note_on,,,,,576,0,6,,,,3,,,48,70
58080,note_on,,,,,0,0,6,,,,3,,,57,70
58080,note_on,,,,,576,0,9,,,,5,,,62,70
58080,note_on,,,,,0,0,15,,,,13,,,54,70
58080,note_on,,,,,240,0,15,,,,13,,,45,0
58080,note_on,,,,,576,0,8,,,,4,,,66,70
58080,note_on,,,,,0,0,8,,,,4,,,69,70
58320,note_on,,,,,0,0,15,,,,13,,,57,70
58320,note_on,,,,,240,0,15,,,,13,,,54,0
58368,note_on,,,,,0,0,14,,,,12,,,57,0
58368,note_on,,,,,768,0,14,,,,12,,,54,0
58512,note_on,,,,,192,0,15,,,,13,,,57,0
58560,note_on,,,,,0,0,14,,,,12,,,54,63
58560,note_on,,,,,192,0,14,,,,12,,,57,63
58560,note_on,,,,,48,0,15,,,,13,,,48,70
58752,note_on,,,,,1152,0,16,,,,14,,,36,0
58800,note_on,,,,,0,0,12,,,,10,,,81,70
58800,note_on,,,,,1200,0,12,,,,10,,,86,0
58800,note_on,,,,,0,0,13,,,,11,,,69,63
58800,note_on,,,,,1200,0,13,,,,11,,,74,0
58800,note_on,,,,,0,0,14,,,,12,,,57,0
58800,note_on,,,,,0,0,14,,,,12,,,57,63
58800,note_on,,,,,0,0,14,,,,12,,,62,63
58800,note_on,,,,,240,0,14,,,,12,,,54,0
58848,note_on,,,,,768,0,9,,,,5,,,62,0
58848,note_on,,,,,768,0,1,,,,0,,,86,0
58848,note_on,,,,,0,0,1,,,,0,,,81,0
58848,note_on,,,,,0,0,8,,,,4,,,66,0
58848,note_on,,,,,768,0,8,,,,4,,,69,0
58848,note_on,,,,,768,0,6,,,,3,,,57,0
58848,note_on,,,,,0,0,3,,,,1,,,69,0
58848,note_on,,,,,768,0,3,,,,1,,,78,0
58848,note_on,,,,,0,0,6,,,,3,,,48,0
59040,note_on,,,,,240,0,14,,,,12,,,57,0
59040,note_on,,,,,0,0,12,,,,10,,,78,70
59040,note_on,,,,,288,0,16,,,,14,,,36,70
59040,note_on,,,,,192,0,3,,,,1,,,69,70
59040,note_on,,,,,0,0,14,,,,12,,,62,0
59040,note_on,,,,,0,0,3,,,,1,,,78,70
59040,note_on,,,,,240,0,12,,,,10,,,81,0
59040,note_on,,,,,192,0,8,,,,4,,,69,70
59040,note_on,,,,,0,0,8,,,,4,,,66,70
59040,note_on,,,,,192,0,1,,,,0,,,81,70
59040,note_on,,,,,0,0,1,,,,0,,,86,70
59040,note_on,,,,,240,0,13,,,,11,,,69,0
59040,note_on,,,,,0,0,14,,,,12,,,66,63
59040,note_on,,,,,0,0,14,,,,12,,,62,63
59040,note_on,,,,,0,0,13,,,,11,,,66,63
59040,note_on,,,,,192,0,9,,,,5,,,62,70
59040,note_on,,,,,192,0,6,,,,3,,,57,70
59040,note_on,,,,,0,0,6,,,,3,,,48,70
59280,note_on,,,,,0,0,14,,,,12,,,62,0
59280,note_on,,,,,0,0,14,,,,12,,,66,63
59280,note_on,,,,,0,0,14,,,,12,,,69,63
59280,note_on,,,,,240,0,14,,,,12,,,66,0
59280,note_on,,,,,0,0,13,,,,11,,,62,63
59280,note_on,,,,,240,0,12,,,,10,,,78,0
59280,note_on,,,,,240,0,13,,,,11,,,66,0
59280,note_on,,,,,0,0,12,,,,10,,,74,70
59328,note_on,,,,,768,0,15,,,,13,,,48,0
59424,note_on,,,,,0,0,8,,,,4,,,69,0
59424,note_on,,,,,384,0,9,,,,5,,,62,0
59424,note_on,,,,,384,0,8,,,,4,,,66,0
59424,note_on,,,,,0,0,1,,,,0,,,81,0
59424,note_on,,,,,384,0,1,,,,0,,,86,0
59424,note_on,,,,,0,0,3,,,,1,,,69,0
59424,note_on,,,,,384,0,3,,,,1,,,78,0
59424,note_on,,,,,0,0,6,,,,3,,,57,0
59424,note_on,,,,,384,0,6,,,,3,,,48,0
59424,note_on,,,,,384,0,16,,,,14,,,36,0
59472,note_on,,,,,192,0,13,,,,11,,,62,0
59472,note_on,,,,,0,0,14,,,,12,,,66,0
59472,note_on,,,,,192,0,14,,,,12,,,69,0
59472,note_on,,,,,192,0,12,,,,10,,,74,0
59520,note_on,,,,,0,0,8,,,,4,,,69,70
59520,note_on,,,,,48,0,12,,,,10,,,75,80
59520,note_on,,,,,96,0,3,,,,1,,,69,70
59520,note_on,,,,,0,0,1,,,,0,,,87,70
59520,note_on,,,,,96,0,8,,,,4,,,66,70
59520,note_on,,,,,0,0,3,,,,1,,,75,70
59520,note_on,,,,,96,0,16,,,,14,,,35,70
59520,note_on,,,,,48,0,14,,,,12,,,54,70
59520,note_on,,,,,0,0,14,,,,12,,,57,70
59520,note_on,,,,,96,0,6,,,,3,,,47,70
59520,note_on,,,,,0,0,6,,,,3,,,54,70
59520,note_on,,,,,48,0,13,,,,11,,,63,70
59520,note_on,,,,,96,0,9,,,,5,,,63,70
59520,note_on,,,,,96,0,1,,,,0,,,81,70
59520,note_on,,,,,192,0,15,,,,13,,,47,70
59904,note_on,,,,,384,0,8,,,,4,,,69,0
59904,note_on,,,,,0,0,8,,,,4,,,66,0
59904,note_on,,,,,384,0,14,,,,12,,,57,0
59904,note_on,,,,,384,0,3,,,,1,,,75,0
59904,note_on,,,,,384,0,9,,,,5,,,63,0
59904,note_on,,,,,384,0,12,,,,10,,,75,0
59904,note_on,,,,,384,0,1,,,,0,,,87,0
59904,note_on,,,,,0,0,1,,,,0,,,81,0
59904,note_on,,,,,0,0,3,,,,1,,,69,0
59904,note_on,,,,,0,0,6,,,,3,,,47,0
59904,note_on,,,,,0,0,14,,,,12,,,54,0
59904,note_on,,,,,384,0,13,,,,11,,,63,0
59904,note_on,,,,,384,0,6,,,,3,,,54,0
60000,note_on,,,,,0,0,6,,,,3,,,52,70
60000,note_on,,,,,96,0,6,,,,3,,,55,70
60000,note_on,,,,,0,0,8,,,,4,,,64,70
60000,note_on,,,,,0,0,1,,,,0,,,83,70
60000,note_on,,,,,96,0,1,,,,0,,,79,70
60000,note_on,,,,,7776,0,4,,,,2,,,67,70
60000,note_on,,,,,96,0,8,,,,4,,,67,70
60000,note_on,,,,,96,0,13,,,,11,,,59,70
60000,note_on,,,,,0,0,4,,,,2,,,71,70
60000,note_on,,,,,96,0,14,,,,12,,,55,70
60240,note_on,,,,,0,0,13,,,,11,,,64,70
60240,note_on,,,,,240,0,14,,,,12,,,55,0
60240,note_on,,,,,0,0,14,,,,12,,,59,70
60240,note_on,,,,,240,0,13,,,,11,,,59,0
60240,note_on,,,,,336,0,12,,,,10,,,79,80
60288,note_on,,,,,768,0,16,,,,14,,,35,0
60288,note_on,,,,,768,0,15,,,,13,,,47,0
60432,note_on,,,,,192,0,14,,,,12,,,59,0
60432,note_on,,,,,192,0,13,,,,11,,,64,0
60480,note_on,,,,,48,0,14,,,,12,,,64,70
60480,note_on,,,,,48,0,13,,,,11,,,67,70
60480,note_on,,,,,0,0,12,,,,10,,,72,80
60480,note_on,,,,,0,0,6,,,,3,,,59,70
60480,note_on,,,,,0,0,6,,,,3,,,55,70
60480,note_on,,,,,192,0,15,,,,13,,,59,70
60480,note_on,,,,,480,0,6,,,,3,,,52,0
60480,note_on,,,,,192,0,16,,,,14,,,47,70
60480,note_on,,,,,240,0,12,,,,10,,,79,0
60480,note_on,,,,,0,0,6,,,,3,,,55,0
60720,note_on,,,,,0,0,13,,,,11,,,71,70
60720,note_on,,,,,0,0,14,,,,12,,,67,70
60720,note_on,,,,,240,0,13,,,,11,,,67,0
60720,note_on,,,,,240,0,14,,,,12,,,64,0
60864,note_on,,,,,384,0,6,,,,3,,,55,0
60864,note_on,,,,,0,0,6,,,,3,,,59,0
60864,note_on,,,,,384,0,12,,,,10,,,72,0
60912,note_on,,,,,0,0,1,,,,0,,,79,0
60912,note_on,,,,,912,0,1,,,,0,,,83,0
60912,note_on,,,,,0,0,8,,,,4,,,67,0
60912,note_on,,,,,912,0,8,,,,4,,,64,0
60912,note_on,,,,,0,0,4,,,,2,,,67,0
60912,note_on,,,,,912,0,4,,,,2,,,71,0
60960,note_on,,,,,240,0,14,,,,12,,,67,0
60960,note_on,,,,,240,0,13,,,,11,,,71,0
60960,note_on,,,,,48,0,1,,,,0,,,81,70
60960,note_on,,,,,0,0,6,,,,3,,,60,70
60960,note_on,,,,,96,0,6,,,,3,,,57,70
60960,note_on,,,,,48,0,8,,,,4,,,66,70
60960,note_on,,,,,0,0,4,,,,2,,,66,70
60960,note_on,,,,,48,0,4,,,,2,,,69,70
60960,note_on,,,,,0,0,1,,,,0,,,78,70
60960,note_on,,,,,0,0,13,,,,11,,,69,70
60960,note_on,,,,,0,0,14,,,,12,,,66,70
61200,note_on,,,,,240,0,13,,,,11,,,69,0
61200,note_on,,,,,0,0,13,,,,11,,,72,70
61200,note_on,,,,,0,0,14,,,,12,,,69,70
61200,note_on,,,,,240,0,14,,,,12,,,66,0
61200,note_on,,,,,336,0,12,,,,10,,,78,80
61392,note_on,,,,,192,0,13,,,,11,,,72,0
61392,note_on,,,,,192,0,14,,,,12,,,69,0
61440,note_on,,,,,0,0,6,,,,3,,,57,70
61440,note_on,,,,,0,0,6,,,,3,,,54,70
61440,note_on,,,,,48,0,13,,,,11,,,66,70
61440,note_on,,,,,48,0,14,,,,12,,,63,70
61440,note_on,,,,,0,0,6,,,,3,,,57,0
61440,note_on,,,,,480,0,8,,,,4,,,63,70
61440,note_on,,,,,0,0,12,,,,10,,,71,80
61440,note_on,,,,,240,0,12,,,,10,,,78,0
61440,note_on,,,,,480,0,6,,,,3,,,60,0
61680,note_on,,,,,240,0,13,,,,11,,,66,0
61680,note_on,,,,,0,0,13,,,,11,,,69,70
61680,note_on,,,,,240,0,14,,,,12,,,63,0
61680,note_on,,,,,0,0,14,,,,12,,,66,70
61824,note_on,,,,,0,0,6,,,,3,,,54,0
61824,note_on,,,,,384,0,6,,,,3,,,57,0
61824,note_on,,,,,384,0,12,,,,10,,,71,0
61896,note_on,,,,,936,0,1,,,,0,,,78,0
61896,note_on,,,,,0,0,1,,,,0,,,81,0
61896,note_on,,,,,0,0,4,,,,2,,,69,0
61896,note_on,,,,,936,0,4,,,,2,,,66,0
61920,note_on,,,,,0,0,8,,,,4,,,64,70
61920,note_on,,,,,0,0,8,,,,4,,,66,0
61920,note_on,,,,,480,0,8,,,,4,,,63,0
61920,note_on,,,,,0,0,4,,,,2,,,67,70
61920,note_on,,,,,240,0,13,,,,11,,,69,0
61920,note_on,,,,,24,0,4,,,,2,,,64,70
61920,note_on,,,,,96,0,6,,,,3,,,59,70
61920,note_on,,,,,0,0,6,,,,3,,,55,70
61920,note_on,,,,,0,0,13,,,,11,,,67,70
61920,note_on,,,,,240,0,14,,,,12,,,66,0
61920,note_on,,,,,24,0,1,,,,0,,,76,70
61920,note_on,,,,,0,0,1,,,,0,,,79,70
61920,note_on,,,,,2016,0,3,,,,1,,,79,70
61920,note_on,,,,,0,0,14,,,,12,,,64,70
61920,note_on,,,,,0,0,3,,,,1,,,83,70
62160,note_on,,,,,240,0,14,,,,12,,,64,0
62160,note_on,,,,,336,0,12,,,,10,,,76,80
62160,note_on,,,,,240,0,13,,,,11,,,67,0
62160,note_on,,,,,0,0,13,,,,11,,,71,70
62160,note_on,,,,,0,0,14,,,,12,,,67,70
62208,note_on,,,,,1728,0,15,,,,13,,,59,0
62208,note_on,,,,,1728,0,16,,,,14,,,47,0
62352,note_on,,,,,192,0,14,,,,12,,,67,0
62352,note_on,,,,,192,0,13,,,,11,,,71,0
62400,note_on,,,,,192,0,16,,,,14,,,35,70
62400,note_on,,,,,0,0,6,,,,3,,,59,0
62400,note_on,,,,,480,0,8,,,,4,,,61,70
62400,note_on,,,,,480,0,6,,,,3,,,55,0
62400,note_on,,,,,0,0,6,,,,3,,,52,70
62400,note_on,,,,,0,0,6,,,,3,,,55,70
62400,note_on,,,,,48,0,13,,,,11,,,64,70
62400,note_on,,,,,192,0,15,,,,13,,,47,70
62400,note_on,,,,,48,0,14,,,,12,,,61,70
62400,note_on,,,,,240,0,12,,,,10,,,76,0
62400,note_on,,,,,0,0,12,,,,10,,,69,80
62640,note_on,,,,,240,0,14,,,,12,,,61,0
62640,note_on,,,,,0,0,14,,,,12,,,64,70
62640,note_on,,,,,0,0,13,,,,11,,,67,70
62640,note_on,,,,,240,0,13,,,,11,,,64,0
62784,note_on,,,,,384,0,6,,,,3,,,52,0
62784,note_on,,,,,384,0,12,,,,10,,,69,0
62784,note_on,,,,,0,0,6,,,,3,,,55,0
62832,note_on,,,,,0,0,4,,,,2,,,64,0
62832,note_on,,,,,0,0,3,,,,1,,,79,0
62832,note_on,,,,,912,0,1,,,,0,,,79,0
62832,note_on,,,,,912,0,4,,,,2,,,67,0
62832,note_on,,,,,0,0,1,,,,0,,,76,0
62832,note_on,,,,,912,0,3,,,,1,,,83,0
62880,note_on,,,,,0,0,14,,,,12,,,63,70
62880,note_on,,,,,240,0,14,,,,12,,,64,0
62880,note_on,,,,,0,0,4,,,,2,,,66,70
62880,note_on,,,,,0,0,13,,,,11,,,66,70
62880,note_on,,,,,240,0,13,,,,11,,,67,0
62880,note_on,,,,,0,0,3,,,,1,,,79,70
62880,note_on,,,,,48,0,3,,,,1,,,76,70
62880,note_on,,,,,96,0,6,,,,3,,,57,70
62880,note_on,,,,,48,0,1,,,,0,,,78,70
62880,note_on,,,,,0,0,8,,,,4,,,63,70
62880,note_on,,,,,0,0,8,,,,4,,,64,0
62880,note_on,,,,,480,0,8,,,,4,,,61,0
62880,note_on,,,,,0,0,6,,,,3,,,54,70
62880,note_on,,,,,0,0,1,,,,0,,,75,70
62880,note_on,,,,,48,0,4,,,,2,,,63,70
63120,note_on,,,,,240,0,14,,,,12,,,63,0
63120,note_on,,,,,0,0,13,,,,11,,,69,70
63120,note_on,,,,,240,0,13,,,,11,,,66,0
63120,note_on,,,,,0,0,14,,,,12,,,66,70
63120,note_on,,,,,336,0,12,,,,10,,,75,80
63168,note_on,,,,,768,0,16,,,,14,,,35,0
63168,note_on,,,,,768,0,15,,,,13,,,47,0
63264,note_on,,,,,384,0,6,,,,3,,,54,0
63264,note_on,,,,,0,0,6,,,,3,,,57,0
63264,note_on,,,,,384,0,8,,,,4,,,63,0
63312,note_on,,,,,192,0,14,,,,12,,,66,0
63312,note_on,,,,,192,0,13,,,,11,,,69,0
63336,note_on,,,,,456,0,4,,,,2,,,66,0
63336,note_on,,,,,456,0,1,,,,0,,,75,0
63336,note_on,,,,,0,0,3,,,,1,,,76,0
63336,note_on,,,,,456,0,3,,,,1,,,79,0
63336,note_on,,,,,0,0,1,,,,0,,,78,0
63336,note_on,,,,,0,0,4,,,,2,,,63,0
63360,note_on,,,,,0,0,6,,,,3,,,55,70
63360,note_on,,,,,0,0,12,,,,10,,,71,80
63360,note_on,,,,,24,0,4,,,,2,,,64,70
63360,note_on,,,,,96,0,6,,,,3,,,52,70
63360,note_on,,,,,48,0,14,,,,12,,,64,70
63360,note_on,,,,,48,0,13,,,,11,,,67,70
63360,note_on,,,,,240,0,12,,,,10,,,75,0
63360,note_on,,,,,0,0,8,,,,4,,,64,70
63360,note_on,,,,,96,0,8,,,,4,,,59,70
63360,note_on,,,,,24,0,1,,,,0,,,76,70
63360,note_on,,,,,192,0,16,,,,14,,,43,70
63360,note_on,,,,,192,0,15,,,,13,,,43,70
63552,note_on,,,,,192,0,15,,,,13,,,43,0
63600,note_on,,,,,48,0,15,,,,13,,,52,70
63648,note_on,,,,,288,0,12,,,,10,,,71,0
63648,note_on,,,,,288,0,6,,,,3,,,55,0
63648,note_on,,,,,288,0,13,,,,11,,,67,0
63648,note_on,,,,,0,0,6,,,,3,,,52,0
63648,note_on,,,,,288,0,1,,,,0,,,76,0
63648,note_on,,,,,288,0,4,,,,2,,,64,0
63648,note_on,,,,,288,0,8,,,,4,,,64,0
63648,note_on,,,,,0,0,8,,,,4,,,59,0
63744,note_on,,,,,384,0,14,,,,12,,,64,0
63792,note_on,,,,,192,0,15,,,,13,,,52,0
63840,note_on,,,,,48,0,15,,,,13,,,55,70
63840,note_on,,,,,0,0,3,,,,1,,,79,70
63840,note_on,,,,,504,0,3,,,,1,,,83,70
63840,note_on,,,,,192,0,12,,,,10,,,83,80
63840,note_on,,,,,192,0,8,,,,4,,,71,70
63840,note_on,,,,,0,0,8,,,,4,,,67,70
63840,note_on,,,,,192,0,13,,,,11,,,79,70
64032,note_on,,,,,192,0,15,,,,13,,,55,0
64080,note_on,,,,,48,0,15,,,,13,,,59,70
64272,note_on,,,,,192,0,15,,,,13,,,59,0
64320,note_on,,,,,48,0,15,,,,13,,,52,70
64320,note_on,,,,,576,0,14,,,,12,,,55,70
64320,note_on,,,,,0,0,14,,,,12,,,59,70
64512,note_on,,,,,1152,0,16,,,,14,,,43,0
64560,note_on,,,,,720,0,13,,,,11,,,79,0
64560,note_on,,,,,720,0,12,,,,10,,,83,0
64560,note_on,,,,,0,0,12,,,,10,,,82,80
64560,note_on,,,,,240,0,14,,,,12,,,59,0
64560,note_on,,,,,0,0,14,,,,12,,,55,0
64560,note_on,,,,,0,0,14,,,,12,,,64,70
64560,note_on,,,,,0,0,14,,,,12,,,59,70
64560,note_on,,,,,0,0,13,,,,11,,,78,70
64608,note_on,,,,,768,0,3,,,,1,,,79,0
64608,note_on,,,,,0,0,3,,,,1,,,83,0
64608,note_on,,,,,768,0,8,,,,4,,,67,0
64608,note_on,,,,,0,0,8,,,,4,,,71,0
64704,note_on,,,,,384,0,15,,,,13,,,52,0
64800,note_on,,,,,240,0,13,,,,11,,,78,0
64800,note_on,,,,,0,0,13,,,,11,,,79,70
64800,note_on,,,,,288,0,16,,,,14,,,43,70
64800,note_on,,,,,0,0,12,,,,10,,,83,80
64800,note_on,,,,,240,0,12,,,,10,,,82,0
64800,note_on,,,,,192,0,8,,,,4,,,64,70
64800,note_on,,,,,0,0,8,,,,4,,,67,70
64800,note_on,,,,,240,0,14,,,,12,,,59,0
64800,note_on,,,,,192,0,3,,,,1,,,79,70
64800,note_on,,,,,0,0,3,,,,1,,,76,70
64800,note_on,,,,,0,0,14,,,,12,,,64,0
64800,note_on,,,,,0,0,14,,,,12,,,67,70
64800,note_on,,,,,0,0,14,,,,12,,,64,70
64800,note_on,,,,,96,0,15,,,,13,,,43,70
65040,note_on,,,,,0,0,14,,,,12,,,71,70
65040,note_on,,,,,240,0,13,,,,11,,,79,0
65040,note_on,,,,,0,0,13,,,,11,,,76,70
65040,note_on,,,,,240,0,14,,,,12,,,64,0
65040,note_on,,,,,240,0,12,,,,10,,,83,0
65040,note_on,,,,,0,0,14,,,,12,,,67,70
65040,note_on,,,,,0,0,12,,,,10,,,79,80
65040,note_on,,,,,0,0,14,,,,12,,,67,0
65184,note_on,,,,,384,0,3,,,,1,,,76,0
65184,note_on,,,,,384,0,16,,,,14,,,43,0
65184,note_on,,,,,384,0,8,,,,4,,,67,0
65184,note_on,,,,,384,0,15,,,,13,,,43,0
65184,note_on,,,,,0,0,8,,,,4,,,64,0
65184,note_on,,,,,0,0,3,,,,1,,,79,0
65232,note_on,,,,,192,0,13,,,,11,,,76,0
65232,note_on,,,,,192,0,12,,,,10,,,79,0
65280,note_on,,,,,0,0,14,,,,12,,,64,70
65280,note_on,,,,,96,0,15,,,,13,,,45,80
65280,note_on,,,,,0,0,14,,,,12,,,61,70
65280,note_on,,,,,240,0,14,,,,12,,,71,0
65280,note_on,,,,,0,0,14,,,,12,,,67,0
65280,note_on,,,,,96,0,16,,,,14,,,45,80
65472,note_on,,,,,192,0,15,,,,13,,,45,0
65520,note_on,,,,,48,0,15,,,,13,,,52,80
65664,note_on,,,,,0,0,14,,,,12,,,61,0
65664,note_on,,,,,384,0,14,,,,12,,,64,0
65712,note_on,,,,,192,0,15,,,,13,,,52,0
65760,note_on,,,,,2112,0,1,,,,0,,,79,80
65760,note_on,,,,,2112,0,4,,,,2,,,73,80
65760,note_on,,,,,0,0,4,,,,2,,,67,80
65760,note_on,,,,,48,0,15,,,,13,,,57,80
65760,note_on,,,,,0,0,1,,,,0,,,85,80
65760,note_on,,,,,528,0,12,,,,10,,,91,80
65760,note_on,,,,,2112,0,6,,,,3,,,64,80
65760,note_on,,,,,528,0,13,,,,11,,,88,80
65760,note_on,,,,,0,0,6,,,,3,,,57,80
65952,note_on,,,,,192,0,15,,,,13,,,57,0
66000,note_on,,,,,48,0,15,,,,13,,,61,80
66192,note_on,,,,,192,0,15,,,,13,,,61,0
66240,note_on,,,,,48,0,15,,,,13,,,52,80
66240,note_on,,,,,576,0,14,,,,12,,,61,80
66240,note_on,,,,,0,0,14,,,,12,,,57,80
66432,note_on,,,,,1152,0,16,,,,14,,,45,0
66480,note_on,,,,,0,0,14,,,,12,,,61,0
66480,note_on,,,,,0,0,14,,,,12,,,64,80
66480,note_on,,,,,0,0,14,,,,12,,,61,80
66480,note_on,,,,,720,0,12,,,,10,,,91,0
66480,note_on,,,,,0,0,12,,,,10,,,88,80
66480,note_on,,,,,240,0,14,,,,12,,,57,0
66480,note_on,,,,,720,0,13,,,,11,,,88,0
66480,note_on,,,,,0,0,13,,,,11,,,85,80
66528,note_on,,,,,768,0,1,,,,0,,,85,0
66528,note_on,,,,,0,0,1,,,,0,,,79,0
66528,note_on,,,,,768,0,4,,,,2,,,67,0
66528,note_on,,,,,0,0,6,,,,3,,,64,0
66528,note_on,,,,,768,0,6,,,,3,,,57,0
66528,note_on,,,,,0,0,4,,,,2,,,73,0
66624,note_on,,,,,384,0,15,,,,13,,,52,0
66720,note_on,,,,,96,0,15,,,,13,,,45,80
66720,note_on,,,,,192,0,4,,,,2,,,64,80
66720,note_on,,,,,240,0,12,,,,10,,,88,0
66720,note_on,,,,,0,0,4,,,,2,,,73,80
66720,note_on,,,,,0,0,12,,,,10,,,85,80
66720,note_on,,,,,0,0,14,,,,12,,,64,80
66720,note_on,,,,,240,0,13,,,,11,,,85,0
66720,note_on,,,,,240,0,14,,,,12,,,61,0
66720,note_on,,,,,0,0,14,,,,12,,,67,80
66720,note_on,,,,,0,0,13,,,,11,,,79,80
66720,note_on,,,,,0,0,1,,,,0,,,85,80
66720,note_on,,,,,0,0,6,,,,3,,,67,80
66720,note_on,,,,,192,0,6,,,,3,,,57,80
66720,note_on,,,,,288,0,16,,,,14,,,45,80
66720,note_on,,,,,0,0,14,,,,12,,,64,0
66720,note_on,,,,,192,0,1,,,,0,,,79,80
66960,note_on,,,,,240,0,12,,,,10,,,85,0
66960,note_on,,,,,0,0,12,,,,10,,,79,80
66960,note_on,,,,,0,0,14,,,,12,,,67,80
66960,note_on,,,,,240,0,13,,,,11,,,79,0
66960,note_on,,,,,0,0,13,,,,11,,,76,80
66960,note_on,,,,,0,0,14,,,,12,,,73,80
66960,note_on,,,,,0,0,14,,,,12,,,64,0
66960,note_on,,,,,240,0,14,,,,12,,,67,0
67104,note_on,,,,,0,0,4,,,,2,,,64,0
67104,note_on,,,,,384,0,1,,,,0,,,85,0
67104,note_on,,,,,0,0,1,,,,0,,,79,0
67104,note_on,,,,,384,0,16,,,,14,,,45,0
67104,note_on,,,,,0,0,6,,,,3,,,57,0
67104,note_on,,,,,384,0,4,,,,2,,,73,0
67104,note_on,,,,,384,0,6,,,,3,,,67,0
67104,note_on,,,,,384,0,15,,,,13,,,45,0
67152,note_on,,,,,192,0,13,,,,11,,,76,0
67152,note_on,,,,,192,0,12,,,,10,,,79,0
67200,note_on,,,,,96,0,15,,,,13,,,46,80
67200,note_on,,,,,0,0,14,,,,12,,,64,80
67200,note_on,,,,,0,0,14,,,,12,,,61,80
67200,note_on,,,,,0,0,14,,,,12,,,67,0
67200,note_on,,,,,96,0,16,,,,14,,,46,92
67200,note_on,,,,,240,0,14,,,,12,,,73,0
67392,note_on,,,,,192,0,15,,,,13,,,46,0
67440,note_on,,,,,48,0,15,,,,13,,,52,80
67584,note_on,,,,,0,0,14,,,,12,,,61,0
67584,note_on,,,,,384,0,14,,,,12,,,64,0
67632,note_on,,,,,192,0,15,,,,13,,,52,0
67680,note_on,,,,,2496,0,8,,,,4,,,64,80
67680,note_on,,,,,528,0,13,,,,11,,,76,80
67680,note_on,,,,,0,0,8,,,,4,,,67,80
67680,note_on,,,,,528,0,12,,,,10,,,79,92
67680,note_on,,,,,48,0,15,,,,13,,,55,80
67680,note_on,,,,,2496,0,3,,,,1,,,79,80
67680,note_on,,,,,0,0,3,,,,1,,,76,80
67872,note_on,,,,,192,0,15,,,,13,,,55,0
67920,note_on,,,,,48,0,15,,,,13,,,61,80
68112,note_on,,,,,192,0,15,,,,13,,,61,0
68160,note_on,,,,,48,0,15,,,,13,,,52,92
68160,note_on,,,,,0,0,14,,,,12,,,55,80
68160,note_on,,,,,576,0,14,,,,12,,,52,80
68352,note_on,,,,,1152,0,16,,,,14,,,46,0
68400,note_on,,,,,0,0,14,,,,12,,,61,80
68400,note_on,,,,,0,0,14,,,,12,,,52,0
68400,note_on,,,,,240,0,14,,,,12,,,55,0
68400,note_on,,,,,0,0,12,,,,10,,,78,92
68400,note_on,,,,,0,0,13,,,,11,,,75,80
68400,note_on,,,,,0,0,14,,,,12,,,55,80
68400,note_on,,,,,720,0,12,,,,10,,,79,0
68400,note_on,,,,,720,0,13,,,,11,,,76,0
68448,note_on,,,,,0,0,3,,,,1,,,79,0
68448,note_on,,,,,768,0,8,,,,4,,,67,0
68448,note_on,,,,,0,0,8,,,,4,,,64,0
68448,note_on,,,,,768,0,3,,,,1,,,76,0
68544,note_on,,,,,384,0,15,,,,13,,,52,0
68640,note_on,,,,,192,0,3,,,,1,,,73,80
68640,note_on,,,,,0,0,3,,,,1,,,76,80
68640,note_on,,,,,288,0,16,,,,14,,,46,92
68640,note_on,,,,,192,0,8,,,,4,,,61,80
68640,note_on,,,,,240,0,13,,,,11,,,75,0
68640,note_on,,,,,96,0,15,,,,13,,,46,92
68640,note_on,,,,,0,0,13,,,,11,,,76,80
68640,note_on,,,,,0,0,8,,,,4,,,64,80
68640,note_on,,,,,240,0,14,,,,12,,,55,0
68640,note_on,,,,,0,0,14,,,,12,,,61,0
68640,note_on,,,,,0,0,14,,,,12,,,64,80
68640,note_on,,,,,0,0,14,,,,12,,,61,80
68640,note_on,,,,,240,0,12,,,,10,,,78,0
68640,note_on,,,,,0,0,12,,,,10,,,79,92
68880,note_on,,,,,240,0,13,,,,11,,,76,0
68880,note_on,,,,,0,0,14,,,,12,,,64,80
68880,note_on,,,,,240,0,14,,,,12,,,64,0
68880,note_on,,,,,0,0,14,,,,12,,,61,0
68880,note_on,,,,,0,0,14,,,,12,,,67,80
68880,note_on,,,,,0,0,12,,,,10,,,76,92
68880,note_on,,,,,240,0,12,,,,10,,,79,0
68880,note_on,,,,,0,0,13,,,,11,,,73,80
69024,note_on,,,,,0,0,3,,,,1,,,73,0
69024,note_on,,,,,0,0,8,,,,4,,,61,0
69024,note_on,,,,,384,0,8,,,,4,,,64,0
69024,note_on,,,,,384,0,15,,,,13,,,46,0
69024,note_on,,,,,384,0,16,,,,14,,,46,0
69024,note_on,,,,,384,0,3,,,,1,,,76,0
69072,note_on,,,,,192,0,13,,,,11,,,73,0
69072,note_on,,,,,192,0,12,,,,10,,,76,0
69120,note_on,,,,,96,0,15,,,,13,,,42,92
69120,note_on,,,,,0,0,14,,,,12,,,64,0
69120,note_on,,,,,0,0,14,,,,12,,,58,80
69120,note_on,,,,,0,0,14,,,,12,,,61,80
69120,note_on,,,,,96,0,16,,,,14,,,42,92
69120,note_on,,,,,240,0,14,,,,12,,,67,0
69360,note_on,,,,,240,0,15,,,,13,,,42,0
69360,note_on,,,,,0,0,15,,,,13,,,52,92
69504,note_on,,,,,384,0,14,,,,12,,,61,0
69504,note_on,,,,,0,0,14,,,,12,,,58,0
69600,note_on,,,,,0,0,4,,,,2,,,64,80
69600,note_on,,,,,0,0,15,,,,13,,,58,92
69600,note_on,,,,,0,0,1,,,,0,,,76,80
69600,note_on,,,,,2496,0,1,,,,0,,,82,80
69600,note_on,,,,,2496,0,6,,,,3,,,54,80
69600,note_on,,,,,0,0,6,,,,3,,,61,80
69600,note_on,,,,,240,0,15,,,,13,,,52,0
69600,note_on,,,,,2496,0,4,,,,2,,,70,80
69600,note_on,,,,,528,0,13,,,,11,,,85,92
69600,note_on,,,,,528,0,12,,,,10,,,88,105
69840,note_on,,,,,0,0,15,,,,13,,,61,92
69840,note_on,,,,,240,0,15,,,,13,,,58,0
70032,note_on,,,,,192,0,15,,,,13,,,61,0
70080,note_on,,,,,48,0,15,,,,13,,,52,92
70080,note_on,,,,,576,0,14,,,,12,,,58,92
70080,note_on,,,,,0,0,14,,,,12,,,54,92
70272,note_on,,,,,1152,0,16,,,,14,,,42,0
70320,note_on,,,,,720,0,12,,,,10,,,88,0
70320,note_on,,,,,0,0,12,,,,10,,,85,105
70320,note_on,,,,,0,0,13,,,,11,,,82,92
70320,note_on,,,,,0,0,14,,,,12,,,58,92
70320,note_on,,,,,240,0,14,,,,12,,,54,0
70320,note_on,,,,,0,0,14,,,,12,,,58,0
70320,note_on,,,,,720,0,13,,,,11,,,85,0
70320,note_on,,,,,0,0,14,,,,12,,,61,92
70368,note_on,,,,,0,0,4,,,,2,,,70,0
70368,note_on,,,,,768,0,6,,,,3,,,61,0
70368,note_on,,,,,768,0,1,,,,0,,,76,0
70368,note_on,,,,,0,0,6,,,,3,,,54,0
70368,note_on,,,,,0,0,1,,,,0,,,82,0
70368,note_on,,,,,768,0,4,,,,2,,,64,0
70464,note_on,,,,,384,0,15,,,,13,,,52,0
70560,note_on,,,,,240,0,14,,,,12,,,58,0
70560,note_on,,,,,192,0,1,,,,0,,,73,80
70560,note_on,,,,,0,0,1,,,,0,,,82,80
70560,note_on,,,,,0,0,14,,,,12,,,61,0
70560,note_on,,,,,0,0,13,,,,11,,,76,92
70560,note_on,,,,,240,0,13,,,,11,,,82,0
70560,note_on,,,,,0,0,14,,,,12,,,64,92
70560,note_on,,,,,192,0,6,,,,3,,,64,80
70560,note_on,,,,,0,0,14,,,,12,,,61,92
70560,note_on,,,,,0,0,12,,,,10,,,82,105
70560,note_on,,,,,240,0,12,,,,10,,,85,0
70560,note_on,,,,,192,0,4,,,,2,,,70,80
70560,note_on,,,,,96,0,15,,,,13,,,42,92
70560,note_on,,,,,288,0,16,,,,14,,,30,92
70560,note_on,,,,,0,0,4,,,,2,,,61,80
70560,note_on,,,,,0,0,6,,,,3,,,54,80
70800,note_on,,,,,240,0,14,,,,12,,,61,0
70800,note_on,,,,,0,0,14,,,,12,,,64,0
70800,note_on,,,,,0,0,14,,,,12,,,70,92
70800,note_on,,,,,0,0,14,,,,12,,,64,92
70800,note_on,,,,,0,0,12,,,,10,,,76,105
70800,note_on,,,,,0,0,13,,,,11,,,73,92
70800,note_on,,,,,240,0,13,,,,11,,,76,0
70800,note_on,,,,,240,0,12,,,,10,,,82,0
70944,note_on,,,,,384,0,6,,,,3,,,54,0
70944,note_on,,,,,0,0,6,,,,3,,,64,0
70944,note_on,,,,,0,0,4,,,,2,,,70,0
70944,note_on,,,,,384,0,4,,,,2,,,61,0
70944,note_on,,,,,384,0,16,,,,14,,,30,0
70944,note_on,,,,,384,0,15,,,,13,,,42,0
70944,note_on,,,,,384,0,1,,,,0,,,82,0
70944,note_on,,,,,0,0,1,,,,0,,,73,0
70992,note_on,,,,,192,0,12,,,,10,,,76,0
70992,note_on,,,,,192,0,13,,,,11,,,73,0
71040,note_on,,,,,0,0,14,,,,12,,,70,0
71040,note_on,,,,,48,0,13,,,,11,,,66,92
71040,note_on,,,,,48,0,12,,,,10,,,75,105
71040,note_on,,,,,240,0,14,,,,12,,,64,0
71040,note_on,,,,,96,0,15,,,,13,,,47,92
71040,note_on,,,,,0,0,6,,,,3,,,59,92
71040,note_on,,,,,96,0,16,,,,14,,,35,92
71040,note_on,,,,,96,0,1,,,,0,,,81,80
71040,note_on,,,,,96,0,6,,,,3,,,63,92
71040,note_on,,,,,96,0,4,,,,2,,,63,92
71040,note_on,,,,,0,0,4,,,,2,,,71,92
71040,note_on,,,,,0,0,1,,,,0,,,75,80
71040,note_on,,,,,0,0,14,,,,12,,,63,92
71040,note_on,,,,,0,0,14,,,,12,,,71,92
71424,note_on,,,,,0,0,4,,,,2,,,63,0
71424,note_on,,,,,384,0,13,,,,11,,,66,0
71424,note_on,,,,,384,0,12,,,,10,,,75,0
71424,note_on,,,,,0,0,6,,,,3,,,63,0
71424,note_on,,,,,384,0,6,,,,3,,,59,0
71424,note_on,,,,,384,0,4,,,,2,,,71,0
71424,note_on,,,,,384,0,15,,,,13,,,47,0
71424,note_on,,,,,384,0,14,,,,12,,,71,0
71424,note_on,,,,,0,0,1,,,,0,,,81,0
71424,note_on,,,,,384,0,16,,,,14,,,35,0
71424,note_on,,,,,0,0,14,,,,12,,,63,0
71424,note_on,,,,,384,0,1,,,,0,,,75,0
71520,note_on,,,,,96,0,15,,,,13,,,59,105
71520,note_on,,,,,0,0,3,,,,1,,,71,92
71520,note_on,,,,,2496,0,3,,,,1,,,83,92
71520,note_on,,,,,0,0,8,,,,4,,,67,92
71520,note_on,,,,,96,0,6,,,,3,,,55,92
71520,note_on,,,,,96,0,16,,,,14,,,47,105
71520,note_on,,,,,96,0,4,,,,2,,,71,92
71520,note_on,,,,,0,0,6,,,,3,,,59,92
71520,note_on,,,,,0,0,1,,,,0,,,83,92
71520,note_on,,,,,96,0,1,,,,0,,,79,92
71520,note_on,,,,,0,0,4,,,,2,,,67,92
71520,note_on,,,,,96,0,14,,,,12,,,67,112
71520,note_on,,,,,2496,0,8,,,,4,,,71,92
71520,note_on,,,,,96,0,13,,,,11,,,71,112
71760,note_on,,,,,336,0,12,,,,10,,,79,105
71904,note_on,,,,,0,0,6,,,,3,,,55,0
71904,note_on,,,,,0,0,3,,,,1,,,83,0
71904,note_on,,,,,384,0,3,,,,1,,,71,0
71904,note_on,,,,,384,0,8,,,,4,,,67,0
71904,note_on,,,,,0,0,8,,,,4,,,71,0
71904,note_on,,,,,384,0,6,,,,3,,,59,0
72000,note_on,,,,,96,0,6,,,,3,,,52,92
72000,note_on,,,,,240,0,12,,,,10,,,79,0
72000,note_on,,,,,0,0,12,,,,10,,,72,105
72000,note_on,,,,,96,0,3,,,,1,,,72,92
72000,note_on,,,,,0,0,6,,,,3,,,55,92
72000,note_on,,,,,0,0,3,,,,1,,,84,92
72000,note_on,,,,,96,0,8,,,,4,,,64,92
72000,note_on,,,,,0,0,8,,,,4,,,67,92
72096,note_on,,,,,576,0,14,,,,12,,,67,0
72096,note_on,,,,,576,0,13,,,,11,,,71,0
72240,note_on,,,,,144,0,13,,,,11,,,67,92
72240,note_on,,,,,144,0,14,,,,12,,,64,92
72384,note_on,,,,,384,0,12,,,,10,,,72,0
72432,note_on,,,,,912,0,16,,,,14,,,47,0
72432,note_on,,,,,0,0,4,,,,2,,,71,0
72432,note_on,,,,,912,0,15,,,,13,,,59,0
72432,note_on,,,,,912,0,1,,,,0,,,83,0
72432,note_on,,,,,0,0,1,,,,0,,,79,0
72432,note_on,,,,,912,0,4,,,,2,,,67,0
72480,note_on,,,,,0,0,8,,,,4,,,64,0
72480,note_on,,,,,480,0,6,,,,3,,,55,0
72480,note_on,,,,,0,0,6,,,,3,,,52,0
72480,note_on,,,,,0,0,6,,,,3,,,54,92
72480,note_on,,,,,0,0,6,,,,3,,,57,92
72480,note_on,,,,,48,0,1,,,,0,,,78,92
72480,note_on,,,,,0,0,8,,,,4,,,69,92
72480,note_on,,,,,0,0,13,,,,11,,,69,92
72480,note_on,,,,,480,0,8,,,,4,,,67,0
72480,note_on,,,,,48,0,16,,,,14,,,47,105
72480,note_on,,,,,0,0,1,,,,0,,,81,92
72480,note_on,,,,,240,0,14,,,,12,,,64,0
72480,note_on,,,,,48,0,15,,,,13,,,59,105
72480,note_on,,,,,240,0,13,,,,11,,,67,0
72480,note_on,,,,,0,0,8,,,,4,,,66,92
72480,note_on,,,,,48,0,4,,,,2,,,69,92
72480,note_on,,,,,0,0,4,,,,2,,,66,92
72480,note_on,,,,,0,0,14,,,,12,,,66,92
72720,note_on,,,,,336,0,12,,,,10,,,78,105
72768,note_on,,,,,0,0,3,,,,1,,,72,0
72768,note_on,,,,,768,0,3,,,,1,,,84,0
72864,note_on,,,,,0,0,8,,,,4,,,69,0
72864,note_on,,,,,384,0,6,,,,3,,,57,0
72864,note_on,,,,,384,0,8,,,,4,,,66,0
72864,note_on,,,,,0,0,6,,,,3,,,54,0
72960,note_on,,,,,0,0,6,,,,3,,,54,92
72960,note_on,,,,,96,0,6,,,,3,,,51,92
72960,note_on,,,,,192,0,3,,,,1,,,71,92
72960,note_on,,,,,0,0,3,,,,1,,,83,92
72960,note_on,,,,,96,0,8,,,,4,,,66,92
72960,note_on,,,,,0,0,8,,,,4,,,63,92
72960,note_on,,,,,240,0,12,,,,10,,,78,0
72960,note_on,,,,,0,0,12,,,,10,,,71,105
73152,note_on,,,,,672,0,13,,,,11,,,69,0
73152,note_on,,,,,672,0,14,,,,12,,,66,0
73200,note_on,,,,,48,0,14,,,,12,,,63,92
73200,note_on,,,,,48,0,13,,,,11,,,66,92
73344,note_on,,,,,384,0,12,,,,10,,,71,0
73416,note_on,,,,,0,0,4,,,,2,,,69,0
73416,note_on,,,,,936,0,15,,,,13,,,59,0
73416,note_on,,,,,936,0,4,,,,2,,,66,0
73416,note_on,,,,,936,0,16,,,,14,,,47,0
73416,note_on,,,,,936,0,1,,,,0,,,81,0
73416,note_on,,,,,0,0,1,,,,0,,,78,0
73440,note_on,,,,,0,0,4,,,,2,,,67,92
73440,note_on,,,,,0,0,13,,,,11,,,67,92
73440,note_on,,,,,0,0,6,,,,3,,,55,92
73440,note_on,,,,,0,0,6,,,,3,,,52,92
73440,note_on,,,,,0,0,6,,,,3,,,51,0
73440,note_on,,,,,24,0,4,,,,2,,,64,92
73440,note_on,,,,,480,0,6,,,,3,,,54,0
73440,note_on,,,,,24,0,1,,,,0,,,79,92
73440,note_on,,,,,0,0,1,,,,0,,,76,92
73440,note_on,,,,,0,0,14,,,,12,,,64,92
73440,note_on,,,,,480,0,8,,,,4,,,63,0
73440,note_on,,,,,0,0,8,,,,4,,,66,0
73440,note_on,,,,,0,0,8,,,,4,,,67,92
73440,note_on,,,,,0,0,8,,,,4,,,64,92
73440,note_on,,,,,24,0,15,,,,13,,,59,105
73440,note_on,,,,,24,0,16,,,,14,,,47,105
73440,note_on,,,,,240,0,13,,,,11,,,66,0
73440,note_on,,,,,240,0,14,,,,12,,,63,0
73680,note_on,,,,,336,0,12,,,,10,,,76,105
73728,note_on,,,,,0,0,3,,,,1,,,71,0
73728,note_on,,,,,768,0,3,,,,1,,,83,0
73824,note_on,,,,,0,0,8,,,,4,,,67,0
73824,note_on,,,,,384,0,8,,,,4,,,64,0
73824,note_on,,,,,0,0,6,,,,3,,,52,0
73824,note_on,,,,,384,0,6,,,,3,,,55,0
73920,note_on,,,,,0,0,8,,,,4,,,61,92
73920,note_on,,,,,96,0,8,,,,4,,,64,92
73920,note_on,,,,,192,0,3,,,,1,,,69,92
73920,note_on,,,,,240,0,12,,,,10,,,76,0
73920,note_on,,,,,0,0,12,,,,10,,,69,105
73920,note_on,,,,,0,0,6,,,,3,,,52,92
73920,note_on,,,,,0,0,3,,,,1,,,81,92
73920,note_on,,,,,96,0,6,,,,3,,,49,92
74016,note_on,,,,,576,0,14,,,,12,,,64,0
74016,note_on,,,,,576,0,13,,,,11,,,67,0
74160,note_on,,,,,144,0,14,,,,12,,,61,92
74160,note_on,,,,,144,0,13,,,,11,,,64,92
74304,note_on,,,,,384,0,12,,,,10,,,69,0
74304,note_on,,,,,384,0,3,,,,1,,,81,0
74304,note_on,,,,,0,0,3,,,,1,,,69,0
74352,note_on,,,,,0,0,4,,,,2,,,64,0
74352,note_on,,,,,912,0,4,,,,2,,,67,0
74352,note_on,,,,,912,0,16,,,,14,,,47,0
74352,note_on,,,,,912,0,1,,,,0,,,76,0
74352,note_on,,,,,0,0,1,,,,0,,,79,0
74352,note_on,,,,,912,0,15,,,,13,,,59,0
74400,note_on,,,,,0,0,8,,,,4,,,64,0
74400,note_on,,,,,480,0,8,,,,4,,,61,0
74400,note_on,,,,,0,0,1,,,,0,,,78,92
74400,note_on,,,,,240,0,14,,,,12,,,61,0
74400,note_on,,,,,0,0,3,,,,1,,,75,92
74400,note_on,,,,,96,0,3,,,,1,,,78,92
74400,note_on,,,,,0,0,8,,,,4,,,63,92
74400,note_on,,,,,48,0,1,,,,0,,,75,92
74400,note_on,,,,,0,0,14,,,,12,,,63,92
74400,note_on,,,,,0,0,8,,,,4,,,66,92
74400,note_on,,,,,0,0,6,,,,3,,,49,0
74400,note_on,,,,,0,0,6,,,,3,,,54,92
74400,note_on,,,,,74400,0,10,,,,6,,,59,92
74400,note_on,,,,,0,0,10,,,,6,,,71,92
74400,note_on,,,,,0,0,4,,,,2,,,63,92
74400,note_on,,,,,240,0,13,,,,11,,,64,0
74400,note_on,,,,,48,0,4,,,,2,,,66,92
74400,note_on,,,,,0,0,6,,,,3,,,51,92
74400,note_on,,,,,480,0,6,,,,3,,,52,0
74400,note_on,,,,,48,0,15,,,,13,,,45,105
74400,note_on,,,,,48,0,16,,,,14,,,33,105
74400,note_on,,,,,0,0,13,,,,11,,,66,92
74640,note_on,,,,,336,0,12,,,,10,,,75,105
74664,note_on,,,,,264,0,15,,,,13,,,45,0
74664,note_on,,,,,0,0,10,,,,6,,,59,0
74664,note_on,,,,,264,0,16,,,,14,,,33,0
74664,note_on,,,,,264,0,10,,,,6,,,71,0
74688,note_on,,,,,288,0,3,,,,1,,,75,0
74688,note_on,,,,,0,0,3,,,,1,,,78,0
74688,note_on,,,,,0,0,4,,,,2,,,66,0
74688,note_on,,,,,288,0,4,,,,2,,,63,0
74688,note_on,,,,,0,0,1,,,,0,,,75,0
74688,note_on,,,,,288,0,1,,,,0,,,78,0
74784,note_on,,,,,384,0,8,,,,4,,,66,0
74784,note_on,,,,,0,0,8,,,,4,,,63,0
74784,note_on,,,,,384,0,6,,,,3,,,54,0
74784,note_on,,,,,0,0,6,,,,3,,,51,0
74880,note_on,,,,,192,0,3,,,,1,,,83,92
74880,note_on,,,,,0,0,3,,,,1,,,75,92
74880,note_on,,,,,0,0,1,,,,0,,,83,92
74880,note_on,,,,,192,0,1,,,,0,,,75,92
74880,note_on,,,,,216,0,16,,,,14,,,31,105
74880,note_on,,,,,96,0,6,,,,3,,,43,92
74880,note_on,,,,,0,0,6,,,,3,,,55,92
74880,note_on,,,,,240,0,12,,,,10,,,75,0
74880,note_on,,,,,0,0,12,,,,10,,,83,105
74880,note_on,,,,,0,0,10,,,,6,,,64,92
74880,note_on,,,,,192,0,4,,,,2,,,71,92
74880,note_on,,,,,216,0,10,,,,6,,,76,92
74880,note_on,,,,,216,0,15,,,,13,,,43,105
74880,note_on,,,,,0,0,8,,,,4,,,63,92
74880,note_on,,,,,0,0,4,,,,2,,,63,92
74880,note_on,,,,,96,0,8,,,,4,,,66,92
75072,note_on,,,,,672,0,14,,,,12,,,63,0
75072,note_on,,,,,672,0,13,,,,11,,,66,0
75120,note_on,,,,,48,0,14,,,,12,,,66,92
75120,note_on,,,,,48,0,13,,,,11,,,75,92
75144,note_on,,,,,0,0,10,,,,6,,,76,0
75144,note_on,,,,,264,0,15,,,,13,,,43,0
75144,note_on,,,,,264,0,16,,,,14,,,31,0
75144,note_on,,,,,264,0,10,,,,6,,,64,0
75168,note_on,,,,,0,0,3,,,,1,,,83,0
75168,note_on,,,,,288,0,3,,,,1,,,75,0
75168,note_on,,,,,0,0,1,,,,0,,,75,0
75168,note_on,,,,,0,0,4,,,,2,,,71,0
75168,note_on,,,,,0,0,6,,,,3,,,43,0
75168,note_on,,,,,288,0,4,,,,2,,,63,0
75168,note_on,,,,,288,0,1,,,,0,,,83,0
75168,note_on,,,,,288,0,8,,,,4,,,63,0
75168,note_on,,,,,0,0,8,,,,4,,,66,0
75168,note_on,,,,,288,0,6,,,,3,,,55,0
75264,note_on,,,,,384,0,12,,,,10,,,83,0
75360,note_on,,,,,192,0,4,,,,2,,,67,92
75360,note_on,,,,,0,0,4,,,,2,,,71,92
75360,note_on,,,,,96,0,12,,,,10,,,88,105
75360,note_on,,,,,192,0,3,,,,1,,,88,92
75360,note_on,,,,,192,0,8,,,,4,,,71,92
75360,note_on,,,,,0,0,8,,,,4,,,67,92
75360,note_on,,,,,0,0,3,,,,1,,,76,92
75360,note_on,,,,,240,0,14,,,,12,,,66,0
75360,note_on,,,,,0,0,14,,,,12,,,67,92
75360,note_on,,,,,0,0,13,,,,11,,,71,92
75360,note_on,,,,,240,0,13,,,,11,,,75,0
75360,note_on,,,,,192,0,1,,,,0,,,79,92
75360,note_on,,,,,0,0,1,,,,0,,,83,92
75600,note_on,,,,,456,0,15,,,,13,,,60,105
75600,note_on,,,,,456,0,16,,,,14,,,48,105
75600,note_on,,,,,0,0,6,,,,3,,,48,92
75600,note_on,,,,,432,0,6,,,,3,,,60,92
75840,note_on,,,,,240,0,15,,,,13,,,60,0
75840,note_on,,,,,0,0,15,,,,13,,,54,105
75840,note_on,,,,,240,0,16,,,,14,,,48,0
75840,note_on,,,,,240,0,6,,,,3,,,48,0
75840,note_on,,,,,0,0,16,,,,14,,,42,105
75840,note_on,,,,,0,0,6,,,,3,,,42,92
75840,note_on,,,,,0,0,6,,,,3,,,54,92
75840,note_on,,,,,0,0,6,,,,3,,,60,0
75936,note_on,,,,,576,0,13,,,,11,,,71,0
75936,note_on,,,,,576,0,14,,,,12,,,67,0
76080,note_on,,,,,0,0,4,,,,2,,,67,0
76080,note_on,,,,,144,0,13,,,,11,,,72,92
76080,note_on,,,,,0,0,4,,,,2,,,69,92
76080,note_on,,,,,720,0,4,,,,2,,,71,0
76080,note_on,,,,,0,0,8,,,,4,,,71,0
76080,note_on,,,,,0,0,8,,,,4,,,66,92
76080,note_on,,,,,720,0,8,,,,4,,,67,0
76080,note_on,,,,,0,0,8,,,,4,,,69,92
76080,note_on,,,,,144,0,14,,,,12,,,69,92
76080,note_on,,,,,0,0,1,,,,0,,,81,92
76080,note_on,,,,,0,0,1,,,,0,,,84,92
76080,note_on,,,,,0,0,1,,,,0,,,79,0
76080,note_on,,,,,0,0,4,,,,2,,,72,92
76080,note_on,,,,,720,0,1,,,,0,,,83,0
76128,note_on,,,,,768,0,3,,,,1,,,76,0
76128,note_on,,,,,0,0,3,,,,1,,,88,0
76224,note_on,,,,,384,0,15,,,,13,,,54,0
76224,note_on,,,,,384,0,16,,,,14,,,42,0
76224,note_on,,,,,384,0,6,,,,3,,,42,0
76224,note_on,,,,,0,0,6,,,,3,,,54,0
76272,note_on,,,,,192,0,4,,,,2,,,72,0
76272,note_on,,,,,192,0,1,,,,0,,,81,0
76272,note_on,,,,,0,0,8,,,,4,,,66,0
76272,note_on,,,,,192,0,8,,,,4,,,69,0
76272,note_on,,,,,912,0,12,,,,10,,,88,0
76272,note_on,,,,,0,0,4,,,,2,,,69,0
76272,note_on,,,,,0,0,1,,,,0,,,84,0
76320,note_on,,,,,240,0,14,,,,12,,,69,0
76320,note_on,,,,,0,0,14,,,,12,,,66,92
76320,note_on,,,,,0,0,3,,,,1,,,86,92
76320,note_on,,,,,0,0,4,,,,2,,,69,92
76320,note_on,,,,,0,0,1,,,,0,,,78,92
76320,note_on,,,,,192,0,3,,,,1,,,74,92
76320,note_on,,,,,48,0,12,,,,10,,,86,105
76320,note_on,,,,,48,0,4,,,,2,,,66,92
76320,note_on,,,,,240,0,13,,,,11,,,72,0
76320,note_on,,,,,48,0,1,,,,0,,,81,92
76320,note_on,,,,,0,0,8,,,,4,,,66,92
76320,note_on,,,,,48,0,8,,,,4,,,69,92
76320,note_on,,,,,0,0,13,,,,11,,,69,92
76560,note_on,,,,,336,0,16,,,,14,,,47,105
76560,note_on,,,,,0,0,6,,,,3,,,59,92
76560,note_on,,,,,336,0,6,,,,3,,,47,92
76560,note_on,,,,,336,0,15,,,,13,,,59,105
76800,note_on,,,,,0,0,6,,,,3,,,47,0
76800,note_on,,,,,0,0,6,,,,3,,,40,92
76800,note_on,,,,,0,0,6,,,,3,,,52,92
76800,note_on,,,,,240,0,6,,,,3,,,59,0
76800,note_on,,,,,0,0,16,,,,14,,,40,105
76800,note_on,,,,,240,0,15,,,,13,,,59,0
76800,note_on,,,,,0,0,15,,,,13,,,52,105
76800,note_on,,,,,240,0,16,,,,14,,,47,0
76992,note_on,,,,,672,0,14,,,,12,,,66,0
76992,note_on,,,,,672,0,13,,,,11,,,69,0
77040,note_on,,,,,48,0,13,,,,11,,,71,92
77040,note_on,,,,,0,0,4,,,,2,,,71,92
77040,note_on,,,,,0,0,8,,,,4,,,64,92
77040,note_on,,,,,0,0,8,,,,4,,,67,92
77040,note_on,,,,,0,0,8,,,,4,,,69,0
77040,note_on,,,,,720,0,8,,,,4,,,66,0
77040,note_on,,,,,0,0,4,,,,2,,,67,92
77040,note_on,,,,,0,0,4,,,,2,,,66,0
77040,note_on,,,,,48,0,14,,,,12,,,67,92
77040,note_on,,,,,720,0,4,,,,2,,,69,0
77040,note_on,,,,,0,0,1,,,,0,,,79,92
77040,note_on,,,,,0,0,1,,,,0,,,83,92
77040,note_on,,,,,720,0,1,,,,0,,,78,0
77040,note_on,,,,,0,0,1,,,,0,,,81,0
77184,note_on,,,,,384,0,16,,,,14,,,40,0
77184,note_on,,,,,0,0,3,,,,1,,,74,0
77184,note_on,,,,,384,0,15,,,,13,,,52,0
77184,note_on,,,,,864,0,3,,,,1,,,86,0
77184,note_on,,,,,0,0,6,,,,3,,,40,0
77184,note_on,,,,,384,0,6,,,,3,,,52,0
77232,note_on,,,,,0,0,1,,,,0,,,79,0
77232,note_on,,,,,192,0,1,,,,0,,,83,0
77232,note_on,,,,,192,0,4,,,,2,,,71,0
77232,note_on,,,,,0,0,4,,,,2,,,67,0
77232,note_on,,,,,192,0,8,,,,4,,,64,0
77232,note_on,,,,,0,0,8,,,,4,,,67,0
77256,note_on,,,,,936,0,12,,,,10,,,86,0
77280,note_on,,,,,48,0,1,,,,0,,,76,92
77280,note_on,,,,,0,0,1,,,,0,,,79,92
77280,note_on,,,,,0,0,8,,,,4,,,67,92
77280,note_on,,,,,48,0,8,,,,4,,,64,92
77280,note_on,,,,,0,0,4,,,,2,,,67,92
77280,note_on,,,,,0,0,14,,,,12,,,64,92
77280,note_on,,,,,24,0,12,,,,10,,,84,105
77280,note_on,,,,,240,0,13,,,,11,,,71,0
77280,note_on,,,,,0,0,13,,,,11,,,67,92
77280,note_on,,,,,0,0,3,,,,1,,,84,92
77280,note_on,,,,,96,0,3,,,,1,,,72,92
77280,note_on,,,,,48,0,4,,,,2,,,64,92
77280,note_on,,,,,240,0,14,,,,12,,,67,0
77520,note_on,,,,,336,0,16,,,,14,,,45,105
77520,note_on,,,,,336,0,15,,,,13,,,57,105
77520,note_on,,,,,0,0,6,,,,3,,,45,92
77520,note_on,,,,,336,0,6,,,,3,,,57,92
77760,note_on,,,,,240,0,15,,,,13,,,57,0
77760,note_on,,,,,0,0,15,,,,13,,,50,105
77760,note_on,,,,,240,0,16,,,,14,,,45,0
77760,note_on,,,,,0,0,16,,,,14,,,38,105
77760,note_on,,,,,0,0,6,,,,3,,,38,92
77760,note_on,,,,,0,0,6,,,,3,,,50,92
77760,note_on,,,,,0,0,6,,,,3,,,57,0
77760,note_on,,,,,240,0,6,,,,3,,,45,0
77856,note_on,,,,,576,0,14,,,,12,,,64,0
77856,note_on,,,,,576,0,13,,,,11,,,67,0
78000,note_on,,,,,720,0,4,,,,2,,,67,0
78000,note_on,,,,,0,0,4,,,,2,,,64,0
78000,note_on,,,,,0,0,1,,,,0,,,76,0
78000,note_on,,,,,0,0,4,,,,2,,,69,92
78000,note_on,,,,,0,0,1,,,,0,,,78,92
78000,note_on,,,,,0,0,1,,,,0,,,81,92
78000,note_on,,,,,720,0,8,,,,4,,,67,0
78000,note_on,,,,,0,0,8,,,,4,,,62,92
78000,note_on,,,,,0,0,8,,,,4,,,66,92
78000,note_on,,,,,144,0,13,,,,11,,,69,92
78000,note_on,,,,,720,0,1,,,,0,,,79,0
78000,note_on,,,,,0,0,4,,,,2,,,66,92
78000,note_on,,,,,0,0,8,,,,4,,,64,0
78000,note_on,,,,,144,0,14,,,,12,,,66,92
78048,note_on,,,,,0,0,3,,,,1,,,72,0
78048,note_on,,,,,768,0,3,,,,1,,,84,0
78144,note_on,,,,,0,0,4,,,,2,,,69,0
78144,note_on,,,,,0,0,1,,,,0,,,78,0
78144,note_on,,,,,144,0,1,,,,0,,,81,0
78144,note_on,,,,,384,0,15,,,,13,,,50,0
78144,note_on,,,,,144,0,4,,,,2,,,66,0
78144,note_on,,,,,144,0,8,,,,4,,,66,0
78144,note_on,,,,,384,0,16,,,,14,,,38,0
78144,note_on,,,,,0,0,6,,,,3,,,50,0
78144,note_on,,,,,384,0,6,,,,3,,,38,0
78144,note_on,,,,,0,0,8,,,,4,,,62,0
78192,note_on,,,,,912,0,12,,,,10,,,84,0
78240,note_on,,,,,96,0,8,,,,4,,,66,92
78240,note_on,,,,,0,0,3,,,,1,,,71,92
78240,note_on,,,,,192,0,3,,,,1,,,83,92
78240,note_on,,,,,0,0,4,,,,2,,,66,92
78240,note_on,,,,,96,0,4,,,,2,,,62,92
78240,note_on,,,,,48,0,12,,,,10,,,83,105
78240,note_on,,,,,0,0,14,,,,12,,,62,92
78240,note_on,,,,,3096,0,10,,,,6,,,59,92
78240,note_on,,,,,0,0,8,,,,4,,,62,92
78240,note_on,,,,,0,0,1,,,,0,,,78,92
78240,note_on,,,,,0,0,13,,,,11,,,66,92
78240,note_on,,,,,240,0,13,,,,11,,,69,0
78240,note_on,,,,,240,0,14,,,,12,,,66,0
78240,note_on,,,,,0,0,10,,,,6,,,71,92
78240,note_on,,,,,96,0,1,,,,0,,,74,92
78480,note_on,,,,,336,0,6,,,,3,,,55,92
78480,note_on,,,,,336,0,15,,,,13,,,55,105
78480,note_on,,,,,336,0,16,,,,14,,,43,105
78480,note_on,,,,,0,0,6,,,,3,,,43,92
78528,note_on,,,,,0,0,1,,,,0,,,74,0
78528,note_on,,,,,0,0,10,,,,6,,,59,0
78528,note_on,,,,,288,0,3,,,,1,,,71,0
78528,note_on,,,,,288,0,10,,,,6,,,71,0
78528,note_on,,,,,288,0,8,,,,4,,,62,0
78528,note_on,,,,,0,0,3,,,,1,,,83,0
78528,note_on,,,,,0,0,8,,,,4,,,66,0
78528,note_on,,,,,288,0,4,,,,2,,,66,0
78528,note_on,,,,,0,0,4,,,,2,,,62,0
78528,note_on,,,,,288,0,1,,,,0,,,78,0
78624,note_on,,,,,384,0,13,,,,11,,,66,0
78624,note_on,,,,,384,0,14,,,,12,,,62,0
78720,note_on,,,,,0,0,6,,,,3,,,55,0
78720,note_on,,,,,0,0,4,,,,2,,,64,92
78720,note_on,,,,,192,0,4,,,,2,,,67,92
78720,note_on,,,,,0,0,16,,,,14,,,37,105
78720,note_on,,,,,240,0,16,,,,14,,,43,0
78720,note_on,,,,,0,0,8,,,,4,,,64,92
78720,note_on,,,,,192,0,8,,,,4,,,52,92
78720,note_on,,,,,0,0,15,,,,13,,,49,105
78720,note_on,,,,,0,0,1,,,,0,,,79,92
78720,note_on,,,,,240,0,15,,,,13,,,55,0
78720,note_on,,,,,192,0,10,,,,6,,,64,92
78720,note_on,,,,,0,0,10,,,,6,,,76,92
78720,note_on,,,,,0,0,6,,,,3,,,49,92
78720,note_on,,,,,0,0,6,,,,3,,,37,92
78720,note_on,,,,,192,0,1,,,,0,,,76,92
78720,note_on,,,,,96,0,13,,,,11,,,64,92
78720,note_on,,,,,192,0,3,,,,1,,,76,92
78720,note_on,,,,,0,0,3,,,,1,,,79,92
78720,note_on,,,,,96,0,14,,,,12,,,67,92
78720,note_on,,,,,240,0,6,,,,3,,,43,0
78912,note_on,,,,,672,0,12,,,,10,,,83,0
78912,note_on,,,,,192,0,13,,,,11,,,64,0
78912,note_on,,,,,192,0,14,,,,12,,,67,0
78960,note_on,,,,,48,0,12,,,,10,,,82,116
78960,note_on,,,,,0,0,14,,,,12,,,67,92
78960,note_on,,,,,48,0,13,,,,11,,,76,92
78960,note_on,,,,,48,0,14,,,,12,,,64,92
78960,note_on,,,,,0,0,13,,,,11,,,79,92
79008,note_on,,,,,288,0,3,,,,1,,,79,0
79008,note_on,,,,,0,0,3,,,,1,,,76,0
79008,note_on,,,,,0,0,10,,,,6,,,64,0
79008,note_on,,,,,288,0,8,,,,4,,,64,0
79008,note_on,,,,,288,0,6,,,,3,,,49,0
79008,note_on,,,,,0,0,6,,,,3,,,37,0
79008,note_on,,,,,288,0,4,,,,2,,,64,0
79008,note_on,,,,,0,0,4,,,,2,,,67,0
79008,note_on,,,,,288,0,1,,,,0,,,79,0
79008,note_on,,,,,0,0,1,,,,0,,,76,0
79008,note_on,,,,,0,0,8,,,,4,,,52,0
79008,note_on,,,,,288,0,10,,,,6,,,76,0
79104,note_on,,,,,384,0,16,,,,14,,,37,0
79104,note_on,,,,,384,0,15,,,,13,,,49,0
79152,note_on,,,,,192,0,12,,,,10,,,82,0
79152,note_on,,,,,192,0,14,,,,12,,,67,0
79152,note_on,,,,,0,0,14,,,,12,,,64,0
79152,note_on,,,,,192,0,13,,,,11,,,79,0
79152,note_on,,,,,0,0,13,,,,11,,,76,0
79200,note_on,,,,,0,0,14,,,,12,,,64,92
79200,note_on,,,,,48,0,13,,,,11,,,76,92
79200,note_on,,,,,0,0,13,,,,11,,,79,92
79200,note_on,,,,,96,0,15,,,,13,,,54,105
79200,note_on,,,,,0,0,6,,,,3,,,64,92
79200,note_on,,,,,192,0,6,,,,3,,,67,92
79200,note_on,,,,,192,0,4,,,,2,,,76,92
79200,note_on,,,,,0,0,4,,,,2,,,79,92
79200,note_on,,,,,48,0,12,,,,10,,,82,116
79200,note_on,,,,,48,0,14,,,,12,,,67,92
79200,note_on,,,,,96,0,16,,,,14,,,42,105
79392,note_on,,,,,192,0,12,,,,10,,,82,0
79440,note_on,,,,,0,0,6,,,,3,,,67,0
79440,note_on,,,,,240,0,6,,,,3,,,64,0
79440,note_on,,,,,0,0,6,,,,3,,,62,92
79440,note_on,,,,,0,0,6,,,,3,,,66,92
79440,note_on,,,,,48,0,12,,,,10,,,86,116
79440,note_on,,,,,0,0,13,,,,11,,,74,92
79440,note_on,,,,,0,0,4,,,,2,,,78,92
79440,note_on,,,,,0,0,14,,,,12,,,67,0
79440,note_on,,,,,0,0,14,,,,12,,,62,92
79440,note_on,,,,,0,0,14,,,,12,,,66,92
79440,note_on,,,,,0,0,13,,,,11,,,76,0
79440,note_on,,,,,0,0,4,,,,2,,,74,92
79440,note_on,,,,,240,0,14,,,,12,,,64,0
79440,note_on,,,,,240,0,13,,,,11,,,79,0
79440,note_on,,,,,0,0,13,,,,11,,,78,92
79440,note_on,,,,,0,0,4,,,,2,,,76,0
79440,note_on,,,,,240,0,4,,,,2,,,79,0
79632,note_on,,,,,192,0,13,,,,11,,,74,0
79632,note_on,,,,,0,0,4,,,,2,,,74,0
79632,note_on,,,,,192,0,4,,,,2,,,78,0
79632,note_on,,,,,192,0,6,,,,3,,,66,0
79632,note_on,,,,,0,0,14,,,,12,,,62,0
79632,note_on,,,,,192,0,14,,,,12,,,66,0
79632,note_on,,,,,0,0,13,,,,11,,,78,0
79632,note_on,,,,,0,0,6,,,,3,,,62,0
79680,note_on,,,,,240,0,12,,,,10,,,86,0
79680,note_on,,,,,672,0,8,,,,4,,,67,92
79680,note_on,,,,,0,0,12,,,,10,,,79,116
79680,note_on,,,,,0,0,8,,,,4,,,71,92
79680,note_on,,,,,0,0,4,,,,2,,,74,92
79680,note_on,,,,,48,0,4,,,,2,,,78,92
79680,note_on,,,,,0,0,6,,,,3,,,62,92
79680,note_on,,,,,48,0,6,,,,3,,,66,92
79920,note_on,,,,,288,0,14,,,,12,,,62,92
79920,note_on,,,,,0,0,14,,,,12,,,66,92
79920,note_on,,,,,0,0,13,,,,11,,,74,92
79920,note_on,,,,,288,0,13,,,,11,,,78,92
79968,note_on,,,,,768,0,15,,,,13,,,54,0
79968,note_on,,,,,768,0,16,,,,14,,,42,0
80064,note_on,,,,,384,0,12,,,,10,,,79,0
80112,note_on,,,,,192,0,13,,,,11,,,74,0
80112,note_on,,,,,0,0,14,,,,12,,,62,0
80112,note_on,,,,,192,0,14,,,,12,,,66,0
80112,note_on,,,,,0,0,13,,,,11,,,78,0
80160,note_on,,,,,48,0,14,,,,12,,,66,92
80160,note_on,,,,,0,0,14,,,,12,,,62,92
80160,note_on,,,,,192,0,16,,,,14,,,30,105
80160,note_on,,,,,192,0,15,,,,13,,,42,105
80160,note_on,,,,,48,0,13,,,,11,,,78,92
80160,note_on,,,,,0,0,13,,,,11,,,74,92
80400,note_on,,,,,240,0,13,,,,11,,,74,0
80400,note_on,,,,,0,0,13,,,,11,,,78,0
80400,note_on,,,,,0,0,13,,,,11,,,76,92
80400,note_on,,,,,0,0,14,,,,12,,,66,0
80400,note_on,,,,,0,0,13,,,,11,,,73,92
80400,note_on,,,,,336,0,12,,,,10,,,85,116
80400,note_on,,,,,0,0,14,,,,12,,,64,92
80400,note_on,,,,,720,0,4,,,,2,,,74,0
80400,note_on,,,,,0,0,14,,,,12,,,61,92
80400,note_on,,,,,0,0,6,,,,3,,,64,92
80400,note_on,,,,,0,0,6,,,,3,,,61,92
80400,note_on,,,,,0,0,6,,,,3,,,66,0
80400,note_on,,,,,720,0,6,,,,3,,,62,0
80400,note_on,,,,,240,0,14,,,,12,,,62,0
80400,note_on,,,,,0,0,4,,,,2,,,73,92
80400,note_on,,,,,0,0,4,,,,2,,,76,92
80400,note_on,,,,,0,0,4,,,,2,,,78,0
80592,note_on,,,,,0,0,6,,,,3,,,61,0
80592,note_on,,,,,0,0,4,,,,2,,,73,0
80592,note_on,,,,,192,0,4,,,,2,,,76,0
80592,note_on,,,,,0,0,13,,,,11,,,76,0
80592,note_on,,,,,192,0,6,,,,3,,,64,0
80592,note_on,,,,,192,0,14,,,,12,,,61,0
80592,note_on,,,,,0,0,8,,,,4,,,67,0
80592,note_on,,,,,912,0,8,,,,4,,,71,0
80592,note_on,,,,,0,0,14,,,,12,,,64,0
80592,note_on,,,,,192,0,13,,,,11,,,73,0
80640,note_on,,,,,0,0,4,,,,2,,,73,92
80640,note_on,,,,,0,0,12,,,,10,,,78,116
80640,note_on,,,,,240,0,12,,,,10,,,85,0
80640,note_on,,,,,0,0,6,,,,3,,,61,92
80640,note_on,,,,,48,0,4,,,,2,,,76,92
80640,note_on,,,,,0,0,8,,,,4,,,66,92
80640,note_on,,,,,48,0,8,,,,4,,,69,92
80640,note_on,,,,,48,0,6,,,,3,,,64,92
80880,note_on,,,,,288,0,14,,,,12,,,61,92
80880,note_on,,,,,0,0,14,,,,12,,,64,92
80880,note_on,,,,,0,0,13,,,,11,,,73,92
80880,note_on,,,,,288,0,13,,,,11,,,76,92
81024,note_on,,,,,864,0,15,,,,13,,,42,0
81024,note_on,,,,,864,0,16,,,,14,,,30,0
81024,note_on,,,,,384,0,12,,,,10,,,78,0
81072,note_on,,,,,0,0,13,,,,11,,,76,0
81072,note_on,,,,,0,0,14,,,,12,,,61,0
81072,note_on,,,,,192,0,14,,,,12,,,64,0
81072,note_on,,,,,192,0,13,,,,11,,,73,0
81120,note_on,,,,,96,0,16,,,,14,,,42,105
81120,note_on,,,,,48,0,13,,,,11,,,76,92
81120,note_on,,,,,0,0,13,,,,11,,,73,92
81120,note_on,,,,,96,0,15,,,,13,,,54,105
81120,note_on,,,,,0,0,14,,,,12,,,61,92
81120,note_on,,,,,48,0,14,,,,12,,,64,92
81360,note_on,,,,,0,0,4,,,,2,,,76,0
81360,note_on,,,,,0,0,14,,,,12,,,62,92
81360,note_on,,,,,0,0,14,,,,12,,,64,0
81360,note_on,,,,,0,0,6,,,,3,,,59,92
81360,note_on,,,,,240,0,14,,,,12,,,61,0
81360,note_on,,,,,720,0,4,,,,2,,,73,0
81360,note_on,,,,,0,0,6,,,,3,,,62,92
81360,note_on,,,,,0,0,6,,,,3,,,64,0
81360,note_on,,,,,720,0,6,,,,3,,,61,0
81360,note_on,,,,,336,0,12,,,,10,,,83,116
81360,note_on,,,,,0,0,4,,,,2,,,74,92
81360,note_on,,,,,2352,0,3,,,,1,,,71,92
81360,note_on,,,,,240,0,13,,,,11,,,73,0
81360,note_on,,,,,0,0,13,,,,11,,,76,0
81360,note_on,,,,,0,0,13,,,,11,,,74,92
81360,note_on,,,,,0,0,13,,,,11,,,71,92
81360,note_on,,,,,2352,0,1,,,,0,,,83,92
81360,note_on,,,,,0,0,4,,,,2,,,71,92
81360,note_on,,,,,0,0,14,,,,12,,,59,92
81504,note_on,,,,,384,0,16,,,,14,,,42,0
81504,note_on,,,,,384,0,15,,,,13,,,54,0
81552,note_on,,,,,192,0,14,,,,12,,,59,0
81552,note_on,,,,,192,0,4,,,,2,,,74,0
81552,note_on,,,,,0,0,4,,,,2,,,71,0
81552,note_on,,,,,192,0,6,,,,3,,,59,0
81552,note_on,,,,,0,0,14,,,,12,,,62,0
81552,note_on,,,,,192,0,13,,,,11,,,71,0
81552,note_on,,,,,912,0,8,,,,4,,,66,0
81552,note_on,,,,,0,0,8,,,,4,,,69,0
81552,note_on,,,,,0,0,6,,,,3,,,62,0
81552,note_on,,,,,0,0,13,,,,11,,,74,0
81600,note_on,,,,,0,0,12,,,,10,,,76,116
81600,note_on,,,,,96,0,15,,,,13,,,42,105
81600,note_on,,,,,0,0,13,,,,11,,,74,92
81600,note_on,,,,,0,0,4,,,,2,,,67,92
81600,note_on,,,,,48,0,4,,,,2,,,76,92
81600,note_on,,,,,240,0,12,,,,10,,,83,0
81600,note_on,,,,,240,0,3,,,,1,,,71,0
81600,note_on,,,,,48,0,6,,,,3,,,55,92
81600,note_on,,,,,48,0,13,,,,11,,,71,92
81600,note_on,,,,,0,0,6,,,,3,,,64,92
81600,note_on,,,,,240,0,1,,,,0,,,83,0
81600,note_on,,,,,0,0,1,,,,0,,,79,92
81600,note_on,,,,,0,0,8,,,,4,,,67,92
81600,note_on,,,,,0,0,1,,,,0,,,88,92
81600,note_on,,,,,48,0,8,,,,4,,,64,92
81600,note_on,,,,,0,0,14,,,,12,,,62,92
81600,note_on,,,,,0,0,3,,,,1,,,79,92
81600,note_on,,,,,48,0,14,,,,12,,,59,92
81600,note_on,,,,,96,0,16,,,,14,,,30,105
81600,note_on,,,,,0,0,3,,,,1,,,76,92
81792,note_on,,,,,192,0,12,,,,10,,,76,0
81840,note_on,,,,,240,0,13,,,,11,,,74,0
81840,note_on,,,,,0,0,13,,,,11,,,71,0
81840,note_on,,,,,48,0,12,,,,10,,,81,116
81840,note_on,,,,,0,0,14,,,,12,,,57,92
81840,note_on,,,,,0,0,14,,,,12,,,61,92
81840,note_on,,,,,0,0,14,,,,12,,,59,0
81840,note_on,,,,,240,0,14,,,,12,,,62,0
81840,note_on,,,,,0,0,13,,,,11,,,73,92
81840,note_on,,,,,0,0,13,,,,11,,,69,92
81984,note_on,,,,,384,0,15,,,,13,,,42,0
81984,note_on,,,,,384,0,16,,,,14,,,30,0
82032,note_on,,,,,0,0,14,,,,12,,,61,0
82032,note_on,,,,,192,0,14,,,,12,,,57,0
82032,note_on,,,,,192,0,13,,,,11,,,69,0
82032,note_on,,,,,0,0,13,,,,11,,,73,0
82080,note_on,,,,,0,0,8,,,,4,,,62,92
82080,note_on,,,,,0,0,3,,,,1,,,74,92
82080,note_on,,,,,0,0,8,,,,4,,,64,0
82080,note_on,,,,,480,0,8,,,,4,,,67,0
82080,note_on,,,,,48,0,13,,,,11,,,73,92
82080,note_on,,,,,0,0,3,,,,1,,,78,92
82080,note_on,,,,,0,0,3,,,,1,,,76,0
82080,note_on,,,,,480,0,3,,,,1,,,79,0
82080,note_on,,,,,0,0,13,,,,11,,,69,92
82080,note_on,,,,,0,0,8,,,,4,,,66,92
82080,note_on,,,,,0,0,6,,,,3,,,62,92
82080,note_on,,,,,0,0,1,,,,0,,,86,92
82080,note_on,,,,,240,0,12,,,,10,,,81,0
82080,note_on,,,,,0,0,12,,,,10,,,74,116
82080,note_on,,,,,480,0,6,,,,3,,,64,0
82080,note_on,,,,,96,0,16,,,,14,,,42,105
82080,note_on,,,,,48,0,14,,,,12,,,57,92
82080,note_on,,,,,0,0,14,,,,12,,,61,92
82080,note_on,,,,,0,0,1,,,,0,,,78,92
82080,note_on,,,,,0,0,6,,,,3,,,55,0
82080,note_on,,,,,0,0,6,,,,3,,,54,92
82080,note_on,,,,,96,0,15,,,,13,,,54,105
82080,note_on,,,,,0,0,4,,,,2,,,66,92
82080,note_on,,,,,480,0,4,,,,2,,,67,0
82080,note_on,,,,,0,0,4,,,,2,,,76,0
82080,note_on,,,,,0,0,1,,,,0,,,79,0
82080,note_on,,,,,480,0,1,,,,0,,,88,0
82080,note_on,,,,,0,0,4,,,,2,,,74,92
82272,note_on,,,,,192,0,12,,,,10,,,74,0
82320,note_on,,,,,0,0,13,,,,11,,,71,92
82320,note_on,,,,,0,0,13,,,,11,,,67,92
82320,note_on,,,,,0,0,13,,,,11,,,73,0
82320,note_on,,,,,240,0,13,,,,11,,,69,0
82320,note_on,,,,,0,0,14,,,,12,,,59,92
82320,note_on,,,,,240,0,14,,,,12,,,61,0
82320,note_on,,,,,0,0,14,,,,12,,,57,0
82320,note_on,,,,,0,0,14,,,,12,,,55,92
82320,note_on,,,,,48,0,12,,,,10,,,79,116
82464,note_on,,,,,0,0,6,,,,3,,,62,0
82464,note_on,,,,,384,0,3,,,,1,,,74,0
82464,note_on,,,,,0,0,3,,,,1,,,78,0
82464,note_on,,,,,384,0,8,,,,4,,,62,0
82464,note_on,,,,,384,0,6,,,,3,,,54,0
82464,note_on,,,,,0,0,8,,,,4,,,66,0
82464,note_on,,,,,384,0,4,,,,2,,,66,0
82464,note_on,,,,,0,0,4,,,,2,,,74,0
82464,note_on,,,,,384,0,1,,,,0,,,78,0
82464,note_on,,,,,384,0,15,,,,13,,,54,0
82464,note_on,,,,,0,0,1,,,,0,,,86,0
82464,note_on,,,,,384,0,16,,,,14,,,42,0
82512,note_on,,,,,0,0,13,,,,11,,,67,0
82512,note_on,,,,,192,0,14,,,,12,,,55,0
82512,note_on,,,,,0,0,14,,,,12,,,59,0
82512,note_on,,,,,192,0,13,,,,11,,,71,0
82560,note_on,,,,,96,0,16,,,,14,,,30,105
82560,note_on,,,,,96,0,15,,,,13,,,42,105
82560,note_on,,,,,0,0,6,,,,3,,,61,92
82560,note_on,,,,,96,0,6,,,,3,,,52,92
82560,note_on,,,,,96,0,4,,,,2,,,64,92
82560,note_on,,,,,0,0,4,,,,2,,,73,92
82560,note_on,,,,,0,0,8,,,,4,,,64,92
82560,note_on,,,,,48,0,14,,,,12,,,59,92
82560,note_on,,,,,96,0,8,,,,4,,,61,92
82560,note_on,,,,,240,0,12,,,,10,,,79,0
82560,note_on,,,,,0,0,12,,,,10,,,73,116
82560,note_on,,,,,48,0,13,,,,11,,,67,92
82560,note_on,,,,,96,0,1,,,,0,,,85,92
82560,note_on,,,,,0,0,1,,,,0,,,88,92
82560,note_on,,,,,96,0,3,,,,1,,,73,92
82560,note_on,,,,,0,0,3,,,,1,,,76,92
82560,note_on,,,,,0,0,14,,,,12,,,55,92
82560,note_on,,,,,0,0,13,,,,11,,,71,92
82752,note_on,,,,,192,0,12,,,,10,,,73,0
82800,note_on,,,,,0,0,13,,,,11,,,67,0
82800,note_on,,,,,0,0,14,,,,12,,,59,0
82800,note_on,,,,,0,0,13,,,,11,,,66,92
82800,note_on,,,,,0,0,13,,,,11,,,69,92
82800,note_on,,,,,48,0,12,,,,10,,,78,116
82800,note_on,,,,,240,0,14,,,,12,,,55,0
82800,note_on,,,,,0,0,14,,,,12,,,54,92
82800,note_on,,,,,0,0,14,,,,12,,,57,92
82800,note_on,,,,,240,0,13,,,,11,,,71,0
82944,note_on,,,,,384,0,16,,,,14,,,30,0
82944,note_on,,,,,384,0,15,,,,13,,,42,0
82992,note_on,,,,,0,0,14,,,,12,,,54,0
82992,note_on,,,,,192,0,14,,,,12,,,57,0
82992,note_on,,,,,192,0,13,,,,11,,,69,0
82992,note_on,,,,,0,0,13,,,,11,,,66,0
83040,note_on,,,,,0,0,3,,,,1,,,71,92
83040,note_on,,,,,0,0,3,,,,1,,,74,92
83040,note_on,,,,,0,0,3,,,,1,,,73,0
83040,note_on,,,,,480,0,3,,,,1,,,76,0
83040,note_on,,,,,0,0,6,,,,3,,,50,92
83040,note_on,,,,,0,0,1,,,,0,,,83,92
83040,note_on,,,,,0,0,1,,,,0,,,86,92
83040,note_on,,,,,0,0,1,,,,0,,,85,0
83040,note_on,,,,,480,0,1,,,,0,,,88,0
83040,note_on,,,,,240,0,12,,,,10,,,78,0
83040,note_on,,,,,0,0,6,,,,3,,,52,0
83040,note_on,,,,,480,0,6,,,,3,,,61,0
83040,set_tempo,,,,,46560,1,0,441176,,,,,,,
83040,note_on,,,,,0,0,6,,,,3,,,59,92
83040,note_on,,,,,0,0,14,,,,12,,,54,92
83040,note_on,,,,,0,0,4,,,,2,,,71,92
83040,note_on,,,,,0,0,4,,,,2,,,62,92
83040,note_on,,,,,0,0,4,,,,2,,,64,0
83040,note_on,,,,,480,0,4,,,,2,,,73,0
83040,note_on,,,,,96,0,15,,,,13,,,54,105
83040,note_on,,,,,48,0,14,,,,12,,,57,92
83040,note_on,,,,,96,0,16,,,,14,,,42,105
83040,note_on,,,,,0,0,12,,,,10,,,71,116
83040,note_on,,,,,0,0,8,,,,4,,,61,0
83040,note_on,,,,,0,0,8,,,,4,,,62,92
83040,note_on,,,,,0,0,8,,,,4,,,59,92
83040,note_on,,,,,48,0,13,,,,11,,,66,92
83040,note_on,,,,,0,0,13,,,,11,,,69,92
83040,note_on,,,,,480,0,8,,,,4,,,64,0
83232,note_on,,,,,192,0,12,,,,10,,,71,0
83280,note_on,,,,,0,0,14,,,,12,,,57,0
83280,note_on,,,,,0,0,13,,,,11,,,67,92
83280,note_on,,,,,0,0,13,,,,11,,,66,0
83280,note_on,,,,,240,0,14,,,,12,,,54,0
83280,note_on,,,,,0,0,14,,,,12,,,55,92
83280,note_on,,,,,0,0,14,,,,12,,,52,92
83280,note_on,,,,,48,0,12,,,,10,,,76,116
83280,note_on,,,,,0,0,13,,,,11,,,64,92
83280,note_on,,,,,240,0,13,,,,11,,,69,0
83424,note_on,,,,,384,0,4,,,,2,,,71,0
83424,note_on,,,,,384,0,16,,,,14,,,42,0
83424,note_on,,,,,0,0,4,,,,2,,,62,0
83424,note_on,,,,,0,0,6,,,,3,,,50,0
83424,note_on,,,,,384,0,6,,,,3,,,59,0
83424,note_on,,,,,0,0,8,,,,4,,,59,0
83424,note_on,,,,,384,0,1,,,,0,,,83,0
83424,note_on,,,,,384,0,8,,,,4,,,62,0
83424,note_on,,,,,384,0,3,,,,1,,,71,0
83424,note_on,,,,,0,0,3,,,,1,,,74,0
83424,note_on,,,,,0,0,1,,,,0,,,86,0
83424,note_on,,,,,384,0,15,,,,13,,,54,0
83472,note_on,,,,,0,0,14,,,,12,,,52,0
83472,note_on,,,,,192,0,13,,,,11,,,64,0
83472,note_on,,,,,0,0,13,,,,11,,,67,0
83472,note_on,,,,,192,0,14,,,,12,,,55,0
83520,note_on,,,,,96,0,4,,,,2,,,61,92
83520,note_on,,,,,96,0,15,,,,13,,,42,105
83520,note_on,,,,,0,0,14,,,,12,,,55,92
83520,note_on,,,,,48,0,14,,,,12,,,52,92
83520,note_on,,,,,0,0,13,,,,11,,,64,92
83520,note_on,,,,,0,0,4,,,,2,,,70,92
83520,set_tempo,,,,,480,1,0,451128,,,,,,,
83520,note_on,,,,,96,0,8,,,,4,,,61,92
83520,note_on,,,,,240,0,12,,,,10,,,76,0
83520,note_on,,,,,0,0,12,,,,10,,,70,116
83520,note_on,,,,,0,0,1,,,,0,,,82,92
83520,note_on,,,,,96,0,1,,,,0,,,85,92
83520,note_on,,,,,96,0,3,,,,1,,,70,92
83520,note_on,,,,,96,0,16,,,,14,,,30,105
83520,note_on,,,,,0,0,3,,,,1,,,73,92
83520,note_on,,,,,0,0,6,,,,3,,,58,92
83520,note_on,,,,,96,0,6,,,,3,,,49,92
83520,note_on,,,,,48,0,13,,,,11,,,67,92
83520,note_on,,,,,0,0,8,,,,4,,,58,105
83760,note_on,,,,,0,0,14,,,,12,,,50,92
83760,note_on,,,,,0,0,13,,,,11,,,67,0
83760,note_on,,,,,240,0,13,,,,11,,,64,0
83760,note_on,,,,,240,0,14,,,,12,,,55,0
83760,note_on,,,,,0,0,14,,,,12,,,52,0
83760,note_on,,,,,0,0,14,,,,12,,,54,92
83760,note_on,,,,,0,0,13,,,,11,,,66,92
83760,note_on,,,,,0,0,13,,,,11,,,62,92
83904,note_on,,,,,384,0,6,,,,3,,,49,0
83904,note_on,,,,,384,0,8,,,,4,,,61,0
83904,note_on,,,,,384,0,15,,,,13,,,42,0
83904,note_on,,,,,384,0,16,,,,14,,,30,0
83952,note_on,,,,,0,0,14,,,,12,,,54,0
83952,note_on,,,,,192,0,14,,,,12,,,50,0
83952,note_on,,,,,192,0,13,,,,11,,,62,0
83952,note_on,,,,,0,0,13,,,,11,,,66,0
84000,note_on,,,,,0,0,13,,,,11,,,62,92
84000,note_on,,,,,96,0,8,,,,4,,,66,105
84000,note_on,,,,,96,0,6,,,,3,,,42,92
84000,set_tempo,,,,,480,1,0,458015,,,,,,,
84000,note_on,,,,,48,0,13,,,,11,,,66,92
84000,note_on,,,,,0,0,14,,,,12,,,50,92
84000,note_on,,,,,96,0,16,,,,14,,,42,105
84000,note_on,,,,,96,0,15,,,,13,,,54,105
84000,note_on,,,,,48,0,14,,,,12,,,54,92
84096,note_on,,,,,576,0,12,,,,10,,,70,0
84240,note_on,,,,,240,0,13,,,,11,,,62,0
84240,note_on,,,,,0,0,13,,,,11,,,66,0
84240,note_on,,,,,0,0,14,,,,12,,,52,92
84240,note_on,,,,,0,0,14,,,,12,,,49,92
84240,note_on,,,,,0,0,14,,,,12,,,54,0
84240,note_on,,,,,240,0,14,,,,12,,,50,0
84240,note_on,,,,,0,0,13,,,,11,,,64,92
84240,note_on,,,,,144,0,12,,,,10,,,70,116
84240,note_on,,,,,0,0,13,,,,11,,,61,92
84384,note_on,,,,,384,0,16,,,,14,,,42,0
84384,note_on,,,,,384,0,8,,,,4,,,66,0
84384,note_on,,,,,0,0,8,,,,4,,,58,0
84384,note_on,,,,,384,0,15,,,,13,,,54,0
84384,note_on,,,,,384,0,6,,,,3,,,42,0
84384,note_on,,,,,0,0,6,,,,3,,,58,0
84432,note_on,,,,,192,0,13,,,,11,,,61,0
84432,note_on,,,,,192,0,12,,,,10,,,70,0
84432,note_on,,,,,0,0,14,,,,12,,,52,0
84432,note_on,,,,,192,0,14,,,,12,,,49,0
84432,note_on,,,,,0,0,13,,,,11,,,64,0
84480,note_on,,,,,0,0,14,,,,12,,,49,92
84480,note_on,,,,,0,0,4,,,,2,,,59,92
84480,note_on,,,,,0,0,3,,,,1,,,70,0
84480,note_on,,,,,960,0,4,,,,2,,,70,0
84480,note_on,,,,,960,0,3,,,,1,,,73,0
84480,note_on,,,,,960,0,1,,,,0,,,82,0
84480,note_on,,,,,0,0,1,,,,0,,,85,0
84480,note_on,,,,,96,0,16,,,,14,,,43,116
84480,note_on,,,,,48,0,12,,,,10,,,71,116
84480,note_on,,,,,0,0,4,,,,2,,,61,0
84480,note_on,,,,,0,0,4,,,,2,,,71,92
84480,note_on,,,,,0,0,1,,,,0,,,83,92
84480,set_tempo,,,,,480,1,0,465116,,,,,,,
84480,note_on,,,,,0,0,3,,,,1,,,71,92
84480,note_on,,,,,0,0,6,,,,3,,,43,92
84480,note_on,,,,,96,0,6,,,,3,,,59,92
84480,note_on,,,,,48,0,13,,,,11,,,61,92
84480,note_on,,,,,48,0,14,,,,12,,,52,92
84480,note_on,,,,,96,0,8,,,,4,,,59,105
84480,note_on,,,,,96,0,15,,,,13,,,55,116
84480,note_on,,,,,0,0,13,,,,11,,,64,92
84720,note_on,,,,,240,0,14,,,,12,,,49,0
84720,note_on,,,,,0,0,13,,,,11,,,61,0
84720,note_on,,,,,0,0,13,,,,11,,,59,92
84720,note_on,,,,,0,0,14,,,,12,,,50,92
84720,note_on,,,,,0,0,14,,,,12,,,47,92
84720,note_on,,,,,0,0,14,,,,12,,,52,0
84720,note_on,,,,,240,0,13,,,,11,,,64,0
84720,note_on,,,,,0,0,13,,,,11,,,62,92
84768,note_on,,,,,288,0,4,,,,2,,,59,0
84768,note_on,,,,,0,0,4,,,,2,,,71,0
84768,note_on,,,,,288,0,1,,,,0,,,83,0
84768,note_on,,,,,0,0,6,,,,3,,,59,0
84768,note_on,,,,,288,0,3,,,,1,,,71,0
84768,note_on,,,,,288,0,6,,,,3,,,43,0
84768,note_on,,,,,288,0,12,,,,10,,,71,0
84864,note_on,,,,,384,0,8,,,,4,,,59,0
84912,note_on,,,,,432,0,15,,,,13,,,55,0
84912,note_on,,,,,192,0,14,,,,12,,,50,0
84912,note_on,,,,,0,0,14,,,,12,,,47,0
84912,note_on,,,,,192,0,13,,,,11,,,62,0
84912,note_on,,,,,0,0,13,,,,11,,,59,0
84912,note_on,,,,,432,0,16,,,,14,,,43,0
84960,note_on,,,,,0,0,6,,,,3,,,52,92
84960,note_on,,,,,48,0,15,,,,13,,,47,116
84960,note_on,,,,,192,0,4,,,,2,,,67,92
84960,note_on,,,,,0,0,4,,,,2,,,64,92
84960,note_on,,,,,192,0,12,,,,10,,,74,116
84960,note_on,,,,,0,0,13,,,,11,,,67,92
84960,note_on,,,,,0,0,14,,,,12,,,55,92
84960,note_on,,,,,48,0,14,,,,12,,,52,92
84960,note_on,,,,,96,0,8,,,,4,,,59,105
84960,note_on,,,,,0,0,1,,,,0,,,83,105
84960,note_on,,,,,192,0,1,,,,0,,,86,105
84960,set_tempo,,,,,480,1,0,472441,,,,,,,
84960,note_on,,,,,48,0,13,,,,11,,,64,92
84960,note_on,,,,,0,0,3,,,,1,,,71,92
84960,note_on,,,,,192,0,3,,,,1,,,74,92
84960,note_on,,,,,192,0,6,,,,3,,,55,92
84960,note_on,,,,,48,0,16,,,,14,,,35,116
85200,note_on,,,,,0,0,13,,,,11,,,62,105
85200,note_on,,,,,0,0,13,,,,11,,,66,105
85200,note_on,,,,,0,0,14,,,,12,,,50,105
85200,note_on,,,,,0,0,14,,,,12,,,54,105
85200,note_on,,,,,0,0,14,,,,12,,,52,0
85200,note_on,,,,,240,0,14,,,,12,,,55,0
85200,note_on,,,,,0,0,13,,,,11,,,64,0
85200,note_on,,,,,240,0,13,,,,11,,,67,0
85200,note_on,,,,,240,0,4,,,,2,,,64,0
85200,note_on,,,,,0,0,4,,,,2,,,67,0
85200,note_on,,,,,0,0,4,,,,2,,,62,105
85200,note_on,,,,,0,0,4,,,,2,,,66,105
85200,note_on,,,,,0,0,6,,,,3,,,54,105
85200,note_on,,,,,0,0,6,,,,3,,,50,105
85200,note_on,,,,,0,0,6,,,,3,,,55,0
85200,note_on,,,,,240,0,6,,,,3,,,52,0
85392,note_on,,,,,0,0,13,,,,11,,,62,0
85392,note_on,,,,,192,0,13,,,,11,,,66,0
85392,note_on,,,,,192,0,4,,,,2,,,66,0
85392,note_on,,,,,0,0,4,,,,2,,,62,0
85392,note_on,,,,,432,0,15,,,,13,,,47,0
85392,note_on,,,,,432,0,16,,,,14,,,35,0
85392,note_on,,,,,0,0,14,,,,12,,,54,0
85392,note_on,,,,,192,0,14,,,,12,,,50,0
85392,note_on,,,,,192,0,6,,,,3,,,54,0
85392,note_on,,,,,0,0,6,,,,3,,,50,0
85440,note_on,,,,,480,0,12,,,,10,,,74,0
85440,note_on,,,,,0,0,12,,,,10,,,70,116
85440,note_on,,,,,480,0,1,,,,0,,,83,0
85440,note_on,,,,,0,0,1,,,,0,,,86,0
85440,note_on,,,,,0,0,1,,,,0,,,82,105
85440,note_on,,,,,48,0,16,,,,14,,,38,116
85440,note_on,,,,,0,0,4,,,,2,,,62,105
85440,note_on,,,,,480,0,8,,,,4,,,59,0
85440,note_on,,,,,0,0,13,,,,11,,,62,105
85440,note_on,,,,,48,0,13,,,,11,,,66,105
85440,note_on,,,,,0,0,8,,,,4,,,62,105
85440,set_tempo,,,,,480,1,0,483871,,,,,,,
85440,note_on,,,,,0,0,14,,,,12,,,54,105
85440,note_on,,,,,48,0,14,,,,12,,,50,105
85440,note_on,,,,,48,0,4,,,,2,,,66,105
85440,note_on,,,,,48,0,15,,,,13,,,50,116
85440,note_on,,,,,0,0,3,,,,1,,,70,105
85440,note_on,,,,,48,0,6,,,,3,,,54,105
85440,note_on,,,,,0,0,6,,,,3,,,50,105
85440,note_on,,,,,0,0,3,,,,1,,,66,105
85440,note_on,,,,,0,0,1,,,,0,,,78,105
85440,note_on,,,,,0,0,3,,,,1,,,74,0
85440,note_on,,,,,480,0,3,,,,1,,,71,0
85872,note_on,,,,,432,0,16,,,,14,,,38,0
85872,note_on,,,,,432,0,15,,,,13,,,50,0
85920,note_on,,,,,0,0,6,,,,3,,,48,105
85920,note_on,,,,,48,0,16,,,,14,,,26,116
85920,note_on,,,,,0,0,16,,,,14,,,38,116
85920,note_on,,,,,0,0,14,,,,12,,,48,105
85920,note_on,,,,,0,0,1,,,,0,,,76,105
85920,note_on,,,,,480,0,1,,,,0,,,78,0
85920,note_on,,,,,480,0,13,,,,11,,,62,0
85920,note_on,,,,,0,0,13,,,,11,,,66,0
85920,note_on,,,,,0,0,13,,,,11,,,60,105
85920,note_on,,,,,0,0,13,,,,11,,,64,105
85920,note_on,,,,,0,0,14,,,,12,,,52,105
85920,note_on,,,,,0,0,14,,,,12,,,50,0
85920,note_on,,,,,0,0,4,,,,2,,,60,105
85920,note_on,,,,,480,0,14,,,,12,,,54,0
85920,note_on,,,,,0,0,3,,,,1,,,64,105
85920,note_on,,,,,480,0,3,,,,1,,,66,0
85920,note_on,,,,,48,0,15,,,,13,,,38,116
85920,note_on,,,,,480,0,6,,,,3,,,50,0
85920,set_tempo,,,,,480,1,0,491803,,,,,,,
85920,note_on,,,,,0,0,6,,,,3,,,54,0
85920,note_on,,,,,480,0,4,,,,2,,,62,0
85920,note_on,,,,,0,0,4,,,,2,,,66,0
85920,note_on,,,,,0,0,4,,,,2,,,64,105
85920,note_on,,,,,0,0,6,,,,3,,,52,105
86016,note_on,,,,,576,0,12,,,,10,,,70,0
86160,note_on,,,,,144,0,12,,,,10,,,70,116
86352,note_on,,,,,912,0,8,,,,4,,,62,0
86352,note_on,,,,,432,0,16,,,,14,,,38,0
86352,note_on,,,,,0,0,16,,,,14,,,26,0
86352,note_on,,,,,432,0,15,,,,13,,,38,0
86352,note_on,,,,,192,0,12,,,,10,,,70,0
86400,note_on,,,,,48,0,16,,,,14,,,31,105
86400,note_on,,,,,48,0,12,,,,10,,,71,116
86400,note_on,,,,,0,0,3,,,,1,,,71,92
86400,note_on,,,,,480,0,4,,,,2,,,60,0
86400,note_on,,,,,0,0,4,,,,2,,,64,0
86400,note_on,,,,,0,0,4,,,,2,,,59,92
86400,note_on,,,,,0,0,4,,,,2,,,62,92
86400,note_on,,,,,48,0,8,,,,4,,,62,92
86400,note_on,,,,,48,0,15,,,,13,,,43,105
86400,set_tempo,,,,,480,1,0,461538,,,,,,,
86400,note_on,,,,,0,0,1,,,,0,,,83,92
86400,note_on,,,,,0,0,6,,,,3,,,47,92
86400,note_on,,,,,0,0,14,,,,12,,,50,105
86400,note_on,,,,,0,0,6,,,,3,,,50,92
86400,note_on,,,,,480,0,3,,,,1,,,64,0
86400,note_on,,,,,0,0,3,,,,1,,,70,0
86400,note_on,,,,,0,0,1,,,,0,,,82,0
86400,note_on,,,,,0,0,13,,,,11,,,62,105
86400,note_on,,,,,480,0,6,,,,3,,,52,0
86400,note_on,,,,,0,0,6,,,,3,,,48,0
86400,note_on,,,,,0,0,14,,,,12,,,52,0
86400,note_on,,,,,0,0,13,,,,11,,,59,105
86400,note_on,,,,,480,0,14,,,,12,,,48,0
86400,note_on,,,,,480,0,1,,,,0,,,76,0
86400,note_on,,,,,0,0,13,,,,11,,,60,0
86400,note_on,,,,,480,0,13,,,,11,,,64,0
86688,note_on,,,,,0,0,13,,,,11,,,59,0
86688,note_on,,,,,0,0,6,,,,3,,,50,0
86688,note_on,,,,,288,0,12,,,,10,,,71,0
86688,note_on,,,,,0,0,4,,,,2,,,59,0
86688,note_on,,,,,288,0,13,,,,11,,,62,0
86688,note_on,,,,,288,0,8,,,,4,,,62,0
86688,note_on,,,,,288,0,15,,,,13,,,43,0
86688,note_on,,,,,288,0,16,,,,14,,,31,0
86688,note_on,,,,,288,0,14,,,,12,,,50,0
86688,note_on,,,,,288,0,4,,,,2,,,62,0
86688,note_on,,,,,288,0,6,,,,3,,,47,0
86784,note_on,,,,,384,0,3,,,,1,,,71,0
86784,note_on,,,,,384,0,1,,,,0,,,83,0
86880,note_on,,,,,192,0,14,,,,12,,,59,105
86880,note_on,,,,,192,0,12,,,,10,,,86,116
86880,note_on,,,,,192,0,13,,,,11,,,74,105
86880,note_on,,,,,192,0,15,,,,13,,,55,105
87360,note_on,,,,,480,0,12,,,,10,,,86,0
87360,note_on,,,,,480,0,13,,,,11,,,74,0
87360,note_on,,,,,0,0,13,,,,11,,,73,105
87360,note_on,,,,,0,0,12,,,,10,,,85,116
87792,note_on,,,,,912,0,14,,,,12,,,59,0
87792,note_on,,,,,912,0,15,,,,13,,,55,0
87840,note_on,,,,,48,0,14,,,,12,,,61,105
87840,note_on,,,,,48,0,15,,,,13,,,57,105
87840,note_on,,,,,0,0,13,,,,11,,,71,105
87840,note_on,,,,,0,0,12,,,,10,,,83,116
87840,note_on,,,,,480,0,12,,,,10,,,85,0
87840,note_on,,,,,480,0,13,,,,11,,,73,0
88320,note_on,,,,,0,0,12,,,,10,,,81,116
88320,note_on,,,,,480,0,12,,,,10,,,83,0
88320,set_tempo,,,,,1920,1,0,454545,,,,,,,
88320,note_on,,,,,480,0,13,,,,11,,,71,0
88320,note_on,,,,,0,0,13,,,,11,,,69,105
88776,note_on,,,,,936,0,14,,,,12,,,61,0
88776,note_on,,,,,936,0,15,,,,13,,,57,0
88800,note_on,,,,,480,0,12,,,,10,,,81,0
88800,note_on,,,,,0,0,12,,,,10,,,79,116
88800,note_on,,,,,480,0,13,,,,11,,,69,0
88800,note_on,,,,,24,0,14,,,,12,,,59,105
88800,note_on,,,,,24,0,15,,,,13,,,62,105
88800,note_on,,,,,0,0,13,,,,11,,,67,105
89256,note_on,,,,,456,0,12,,,,10,,,79,0
89256,note_on,,,,,456,0,13,,,,11,,,67,0
89280,note_on,,,,,0,0,15,,,,13,,,61,105
89280,note_on,,,,,0,0,14,,,,12,,,57,105
89280,note_on,,,,,480,0,14,,,,12,,,59,0
89280,note_on,,,,,480,0,15,,,,13,,,62,0
89280,note_on,,,,,24,0,12,,,,10,,,74,116
89280,note_on,,,,,24,0,13,,,,11,,,62,105
89760,note_on,,,,,480,0,14,,,,12,,,57,0
89760,note_on,,,,,0,0,15,,,,13,,,59,105
89760,note_on,,,,,0,0,14,,,,12,,,55,105
89760,note_on,,,,,480,0,15,,,,13,,,61,0
90240,set_tempo,,,,,1920,1,0,447761,,,,,,,
90240,note_on,,,,,480,0,15,,,,13,,,59,0
90240,note_on,,,,,0,0,15,,,,13,,,57,105
90240,note_on,,,,,480,0,14,,,,12,,,55,0
90240,note_on,,,,,0,0,14,,,,12,,,54,105
90696,note_on,,,,,1416,0,12,,,,10,,,74,0
90696,note_on,,,,,1416,0,13,,,,11,,,62,0
90720,note_on,,,,,0,0,14,,,,12,,,52,105
90720,note_on,,,,,0,0,15,,,,13,,,55,105
90720,note_on,,,,,24,0,13,,,,11,,,61,105
90720,note_on,,,,,480,0,15,,,,13,,,57,0
90720,note_on,,,,,24,0,12,,,,10,,,73,116
90720,note_on,,,,,480,0,14,,,,12,,,54,0
91104,note_on,,,,,384,0,15,,,,13,,,55,0
91104,note_on,,,,,384,0,14,,,,12,,,52,0
91200,note_on,,,,,4512,0,16,,,,14,,,38,105
91200,note_on,,,,,0,0,12,,,,10,,,70,116
91200,note_on,,,,,480,0,12,,,,10,,,73,0
91200,note_on,,,,,0,0,4,,,,2,,,66,92
91200,note_on,,,,,96,0,14,,,,12,,,54,105
91200,note_on,,,,,4512,0,4,,,,2,,,62,92
91200,note_on,,,,,0,0,13,,,,11,,,58,105
91200,note_on,,,,,480,0,13,,,,11,,,61,0
91200,note_on,,,,,0,0,6,,,,3,,,54,92
91200,note_on,,,,,4512,0,6,,,,3,,,50,92
91200,note_on,,,,,96,0,15,,,,13,,,38,105
91344,note_on,,,,,144,0,14,,,,12,,,54,0
91344,note_on,,,,,144,0,15,,,,13,,,38,0
91440,note_on,,,,,96,0,14,,,,12,,,50,105
91440,note_on,,,,,96,0,15,,,,13,,,38,105
91680,note_on,,,,,240,0,14,,,,12,,,50,0
91680,note_on,,,,,0,0,14,,,,12,,,54,105
91680,note_on,,,,,240,0,15,,,,13,,,38,0
91680,note_on,,,,,0,0,15,,,,13,,,50,105
91920,note_on,,,,,0,0,13,,,,11,,,59,105
91920,note_on,,,,,720,0,13,,,,11,,,58,0
91920,note_on,,,,,720,0,12,,,,10,,,70,0
91920,note_on,,,,,0,0,12,,,,10,,,71,116
91968,note_on,,,,,0,0,6,,,,3,,,50,0
91968,note_on,,,,,768,0,6,,,,3,,,54,0
91968,note_on,,,,,0,0,4,,,,2,,,62,0
91968,note_on,,,,,768,0,4,,,,2,,,66,0
92064,note_on,,,,,384,0,15,,,,13,,,50,0
92148,note_on,,,,,228,0,12,,,,10,,,71,0
92148,note_on,,,,,228,0,13,,,,11,,,59,0
92160,note_on,,,,,12,0,13,,,,11,,,62,105
92160,note_on,,,,,96,0,15,,,,13,,,38,105
92160,note_on,,,,,192,0,6,,,,3,,,54,92
92160,note_on,,,,,192,0,4,,,,2,,,62,92
92160,note_on,,,,,0,0,4,,,,2,,,71,92
92160,note_on,,,,,12,0,12,,,,10,,,74,116
92160,set_tempo,,,,,1920,1,0,434783,,,,,,,
92160,note_on,,,,,0,0,6,,,,3,,,59,92
92304,note_on,,,,,144,0,15,,,,13,,,38,0
92304,note_on,,,,,624,0,14,,,,12,,,54,0
92400,note_on,,,,,96,0,15,,,,13,,,50,105
92400,note_on,,,,,96,0,14,,,,12,,,54,105
92640,note_on,,,,,480,0,4,,,,2,,,71,0
92640,note_on,,,,,0,0,4,,,,2,,,71,92
92640,note_on,,,,,0,0,4,,,,2,,,62,0
92640,note_on,,,,,0,0,6,,,,3,,,54,0
92640,note_on,,,,,0,0,6,,,,3,,,62,92
92640,note_on,,,,,0,0,6,,,,3,,,59,92
92640,note_on,,,,,240,0,14,,,,12,,,54,0
92640,note_on,,,,,0,0,14,,,,12,,,59,105
92640,note_on,,,,,240,0,15,,,,13,,,50,0
92640,note_on,,,,,0,0,15,,,,13,,,54,105
92640,note_on,,,,,480,0,6,,,,3,,,59,0
92640,note_on,,,,,0,0,4,,,,2,,,74,92
92880,note_on,,,,,720,0,12,,,,10,,,74,0
92880,note_on,,,,,720,0,13,,,,11,,,62,0
92880,note_on,,,,,0,0,13,,,,11,,,66,105
92880,note_on,,,,,0,0,12,,,,10,,,78,116
92928,note_on,,,,,1728,0,16,,,,14,,,38,0
93024,note_on,,,,,384,0,4,,,,2,,,71,0
93024,note_on,,,,,0,0,4,,,,2,,,74,0
93024,note_on,,,,,384,0,6,,,,3,,,59,0
93024,note_on,,,,,0,0,6,,,,3,,,62,0
93024,note_on,,,,,384,0,15,,,,13,,,54,0
93108,note_on,,,,,228,0,12,,,,10,,,78,0
93108,note_on,,,,,228,0,13,,,,11,,,66,0
93120,note_on,,,,,96,0,15,,,,13,,,50,105
93120,note_on,,,,,12,0,13,,,,11,,,71,105
93120,note_on,,,,,0,0,4,,,,2,,,78,92
93120,note_on,,,,,12,0,12,,,,10,,,83,116
93120,note_on,,,,,0,0,6,,,,3,,,66,92
93120,note_on,,,,,96,0,4,,,,2,,,74,92
93120,note_on,,,,,192,0,16,,,,14,,,50,105
93120,note_on,,,,,96,0,6,,,,3,,,62,92
93216,note_on,,,,,576,0,14,,,,12,,,59,0
93312,note_on,,,,,192,0,15,,,,13,,,50,0
93360,note_on,,,,,144,0,14,,,,12,,,62,105
93360,note_on,,,,,48,0,15,,,,13,,,59,105
93600,note_on,,,,,480,0,4,,,,2,,,78,0
93600,note_on,,,,,0,0,15,,,,13,,,62,105
93600,note_on,,,,,240,0,15,,,,13,,,59,0
93600,note_on,,,,,240,0,14,,,,12,,,62,0
93600,note_on,,,,,0,0,4,,,,2,,,74,92
93600,note_on,,,,,0,0,14,,,,12,,,66,105
93600,note_on,,,,,480,0,6,,,,3,,,66,0
93600,note_on,,,,,0,0,6,,,,3,,,62,0
93600,note_on,,,,,0,0,6,,,,3,,,59,92
93600,note_on,,,,,0,0,6,,,,3,,,62,92
93600,note_on,,,,,0,0,4,,,,2,,,71,92
93600,note_on,,,,,0,0,4,,,,2,,,74,0
93840,note_on,,,,,720,0,13,,,,11,,,71,0
93840,note_on,,,,,720,0,12,,,,10,,,83,0
93840,note_on,,,,,240,0,15,,,,13,,,62,0
93840,note_on,,,,,0,0,15,,,,13,,,66,105
93840,note_on,,,,,0,0,13,,,,11,,,74,105
93840,note_on,,,,,0,0,14,,,,12,,,71,105
93840,note_on,,,,,240,0,14,,,,12,,,66,0
93840,note_on,,,,,0,0,12,,,,10,,,86,116
93984,note_on,,,,,384,0,4,,,,2,,,71,0
93984,note_on,,,,,0,0,4,,,,2,,,74,0
93984,note_on,,,,,384,0,6,,,,3,,,62,0
93984,note_on,,,,,0,0,6,,,,3,,,59,0
94068,note_on,,,,,228,0,12,,,,10,,,86,0
94068,note_on,,,,,228,0,13,,,,11,,,74,0
94080,note_on,,,,,96,0,4,,,,2,,,66,92
94080,note_on,,,,,0,0,4,,,,2,,,71,92
94080,note_on,,,,,240,0,15,,,,13,,,66,0
94080,note_on,,,,,0,0,15,,,,13,,,50,105
94080,note_on,,,,,0,0,15,,,,13,,,59,105
94080,note_on,,,,,0,0,6,,,,3,,,59,92
94080,note_on,,,,,12,0,12,,,,10,,,90,116
94080,note_on,,,,,0,0,14,,,,12,,,74,105
94080,note_on,,,,,240,0,14,,,,12,,,71,0
94080,note_on,,,,,12,0,13,,,,11,,,78,105
94080,note_on,,,,,96,0,6,,,,3,,,50,92
94368,note_on,,,,,288,0,13,,,,11,,,78,0
94368,note_on,,,,,0,0,15,,,,13,,,50,0
94368,note_on,,,,,288,0,15,,,,13,,,59,0
94368,note_on,,,,,0,0,4,,,,2,,,66,0
94368,note_on,,,,,288,0,4,,,,2,,,71,0
94368,note_on,,,,,288,0,14,,,,12,,,74,0
94368,note_on,,,,,0,0,6,,,,3,,,50,0
94368,note_on,,,,,288,0,6,,,,3,,,59,0
94368,note_on,,,,,1248,0,16,,,,14,,,50,0
94368,note_on,,,,,288,0,12,,,,10,,,90,0
94560,note_on,,,,,192,0,12,,,,10,,,91,116
94560,note_on,,,,,0,0,1,,,,0,,,91,92
94560,note_on,,,,,7776,0,1,,,,0,,,88,92
94560,note_on,,,,,192,0,16,,,,14,,,36,105
94560,note_on,,,,,192,0,15,,,,13,,,36,105
94560,note_on,,,,,192,0,13,,,,11,,,76,105
94560,note_on,,,,,192,0,14,,,,12,,,52,105
94560,note_on,,,,,0,0,4,,,,2,,,72,92
94560,note_on,,,,,192,0,4,,,,2,,,64,92
94560,note_on,,,,,0,0,6,,,,3,,,52,92
94560,note_on,,,,,192,0,6,,,,3,,,36,92
94800,note_on,,,,,240,0,14,,,,12,,,52,0
94800,note_on,,,,,0,0,14,,,,12,,,55,105
94800,note_on,,,,,0,0,15,,,,13,,,43,105
94800,note_on,,,,,240,0,15,,,,13,,,36,0
95040,note_on,,,,,0,0,1,,,,0,,,88,0
95040,note_on,,,,,480,0,1,,,,0,,,91,0
95040,note_on,,,,,0,0,13,,,,11,,,74,105
95040,note_on,,,,,240,0,15,,,,13,,,43,0
95040,note_on,,,,,0,0,15,,,,13,,,52,105
95040,note_on,,,,,0,0,14,,,,12,,,60,105
95040,note_on,,,,,480,0,13,,,,11,,,76,0
95040,note_on,,,,,240,0,14,,,,12,,,55,0
95040,note_on,,,,,480,0,12,,,,10,,,91,0
95040,note_on,,,,,0,0,1,,,,0,,,90,92
95040,note_on,,,,,0,0,12,,,,10,,,90,116
95040,note_on,,,,,0,0,1,,,,0,,,86,92
95280,note_on,,,,,0,0,14,,,,12,,,64,105
95280,note_on,,,,,240,0,14,,,,12,,,60,0
95280,note_on,,,,,240,0,15,,,,13,,,52,0
95280,note_on,,,,,0,0,15,,,,13,,,55,105
95328,note_on,,,,,0,0,6,,,,3,,,36,0
95328,note_on,,,,,768,0,6,,,,3,,,52,0
95328,note_on,,,,,768,0,16,,,,14,,,36,0
95328,note_on,,,,,768,0,4,,,,2,,,72,0
95328,note_on,,,,,0,0,4,,,,2,,,64,0
95472,note_on,,,,,192,0,15,,,,13,,,55,0
95472,note_on,,,,,192,0,14,,,,12,,,64,0
95520,note_on,,,,,48,0,14,,,,12,,,54,105
95520,note_on,,,,,0,0,12,,,,10,,,88,116
95520,note_on,,,,,48,0,15,,,,13,,,50,105
95520,note_on,,,,,480,0,12,,,,10,,,90,0
95520,note_on,,,,,192,0,16,,,,14,,,38,105
95520,note_on,,,,,0,0,1,,,,0,,,84,92
95520,note_on,,,,,0,0,6,,,,3,,,54,92
95520,note_on,,,,,192,0,4,,,,2,,,69,92
95520,note_on,,,,,480,0,1,,,,0,,,90,0
95520,note_on,,,,,480,0,13,,,,11,,,74,0
95520,note_on,,,,,0,0,1,,,,0,,,86,0
95520,note_on,,,,,192,0,6,,,,3,,,38,92
95520,note_on,,,,,0,0,4,,,,2,,,66,92
95520,note_on,,,,,0,0,13,,,,11,,,72,105
95520,note_on,,,,,0,0,1,,,,0,,,88,92
95760,note_on,,,,,0,0,15,,,,13,,,54,105
95760,note_on,,,,,240,0,15,,,,13,,,50,0
95760,note_on,,,,,240,0,14,,,,12,,,54,0
95760,note_on,,,,,0,0,14,,,,12,,,57,105
96000,note_on,,,,,0,0,1,,,,0,,,84,92
96000,note_on,,,,,0,0,1,,,,0,,,86,92
96000,note_on,,,,,240,0,15,,,,13,,,54,0
96000,note_on,,,,,0,0,15,,,,13,,,57,105
96000,note_on,,,,,0,0,1,,,,0,,,84,0
96000,note_on,,,,,480,0,1,,,,0,,,88,0
96000,note_on,,,,,480,0,13,,,,11,,,72,0
96000,note_on,,,,,0,0,12,,,,10,,,86,116
96000,note_on,,,,,480,0,12,,,,10,,,88,0
96000,note_on,,,,,0,0,13,,,,11,,,71,105
96000,note_on,,,,,0,0,14,,,,12,,,60,105
96000,note_on,,,,,240,0,14,,,,12,,,57,0
96240,note_on,,,,,240,0,14,,,,12,,,60,0
96240,note_on,,,,,240,0,15,,,,13,,,57,0
96240,note_on,,,,,0,0,15,,,,13,,,62,105
96240,note_on,,,,,0,0,14,,,,12,,,66,105
96384,note_on,,,,,0,0,6,,,,3,,,38,0
96384,note_on,,,,,0,0,4,,,,2,,,69,0
96384,note_on,,,,,864,0,4,,,,2,,,66,0
96384,note_on,,,,,864,0,16,,,,14,,,38,0
96384,note_on,,,,,864,0,6,,,,3,,,54,0
96432,note_on,,,,,192,0,15,,,,13,,,62,0
96432,note_on,,,,,192,0,14,,,,12,,,66,0
96480,note_on,,,,,480,0,13,,,,11,,,71,0
96480,note_on,,,,,0,0,13,,,,11,,,72,105
96480,note_on,,,,,0,0,12,,,,10,,,84,116
96480,note_on,,,,,480,0,12,,,,10,,,86,0
96480,note_on,,,,,0,0,6,,,,3,,,40,92
96480,note_on,,,,,96,0,6,,,,3,,,55,92
96480,note_on,,,,,0,0,9,,,,5,,,67,92
96480,note_on,,,,,36576,0,9,,,,5,,,64,92
96480,note_on,,,,,48,0,14,,,,12,,,55,105
96480,note_on,,,,,48,0,15,,,,13,,,52,105
96480,note_on,,,,,96,0,16,,,,14,,,40,105
96480,note_on,,,,,9696,0,3,,,,1,,,76,92
96480,note_on,,,,,0,0,4,,,,2,,,76,92
96480,note_on,,,,,96,0,4,,,,2,,,79,92
96480,note_on,,,,,0,0,3,,,,1,,,79,92
96480,note_on,,,,,0,0,1,,,,0,,,84,92
96480,note_on,,,,,480,0,1,,,,0,,,86,0
96480,note_on,,,,,0,0,1,,,,0,,,84,0
96720,note_on,,,,,0,0,15,,,,13,,,55,105
96720,note_on,,,,,0,0,14,,,,12,,,60,105
96720,note_on,,,,,240,0,14,,,,12,,,55,0
96720,note_on,,,,,240,0,15,,,,13,,,52,0
96936,note_on,,,,,456,0,13,,,,11,,,72,0
96936,note_on,,,,,456,0,12,,,,10,,,84,0
96960,note_on,,,,,480,0,9,,,,5,,,67,0
96960,note_on,,,,,0,0,4,,,,2,,,78,92
96960,note_on,,,,,0,0,4,,,,2,,,74,92
96960,note_on,,,,,24,0,13,,,,11,,,67,105
96960,note_on,,,,,24,0,12,,,,10,,,79,116
96960,note_on,,,,,480,0,4,,,,2,,,76,0
96960,note_on,,,,,0,0,1,,,,0,,,79,105
96960,note_on,,,,,0,0,15,,,,13,,,60,105
96960,note_on,,,,,240,0,15,,,,13,,,55,0
96960,note_on,,,,,0,0,9,,,,5,,,62,92
96960,note_on,,,,,0,0,9,,,,5,,,66,92
96960,note_on,,,,,0,0,9,,,,5,,,64,0
96960,note_on,,,,,0,0,4,,,,2,,,79,0
96960,note_on,,,,,480,0,1,,,,0,,,84,0
96960,note_on,,,,,0,0,3,,,,1,,,74,92
96960,note_on,,,,,0,0,3,,,,1,,,78,92
96960,note_on,,,,,480,0,3,,,,1,,,79,0
96960,note_on,,,,,0,0,3,,,,1,,,76,0
96960,note_on,,,,,0,0,14,,,,12,,,64,105
96960,note_on,,,,,240,0,14,,,,12,,,60,0
97200,note_on,,,,,0,0,15,,,,13,,,64,105
97200,note_on,,,,,240,0,15,,,,13,,,60,0
97200,note_on,,,,,0,0,14,,,,12,,,67,105
97200,note_on,,,,,240,0,14,,,,12,,,64,0
97392,note_on,,,,,192,0,14,,,,12,,,67,0
97392,note_on,,,,,192,0,15,,,,13,,,64,0
97440,note_on,,,,,48,0,15,,,,13,,,55,105
97440,note_on,,,,,480,0,3,,,,1,,,74,0
97440,note_on,,,,,0,0,4,,,,2,,,74,0
97440,note_on,,,,,48,0,14,,,,12,,,60,105
97440,note_on,,,,,480,0,4,,,,2,,,78,0
97440,note_on,,,,,0,0,4,,,,2,,,76,92
97440,note_on,,,,,0,0,9,,,,5,,,66,0
97440,note_on,,,,,0,0,9,,,,5,,,60,92
97440,note_on,,,,,0,0,9,,,,5,,,64,92
97440,note_on,,,,,0,0,3,,,,1,,,76,92
97440,note_on,,,,,0,0,4,,,,2,,,72,92
97440,note_on,,,,,0,0,3,,,,1,,,72,92
97440,note_on,,,,,0,0,3,,,,1,,,78,0
97440,note_on,,,,,480,0,9,,,,5,,,62,0
97680,note_on,,,,,240,0,14,,,,12,,,60,0
97680,note_on,,,,,0,0,15,,,,13,,,60,105
97680,note_on,,,,,0,0,14,,,,12,,,64,105
97680,note_on,,,,,240,0,15,,,,13,,,55,0
97872,note_on,,,,,192,0,14,,,,12,,,64,0
97872,note_on,,,,,192,0,15,,,,13,,,60,0
97920,note_on,,,,,48,0,14,,,,12,,,55,105
97920,note_on,,,,,0,0,4,,,,2,,,76,0
97920,note_on,,,,,0,0,3,,,,1,,,76,0
97920,note_on,,,,,480,0,4,,,,2,,,72,0
97920,note_on,,,,,0,0,4,,,,2,,,74,92
97920,note_on,,,,,480,0,3,,,,1,,,72,0
97920,note_on,,,,,0,0,3,,,,1,,,74,92
97920,note_on,,,,,0,0,3,,,,1,,,71,92
97920,note_on,,,,,0,0,9,,,,5,,,62,92
97920,note_on,,,,,0,0,9,,,,5,,,59,92
97920,note_on,,,,,0,0,9,,,,5,,,60,0
97920,note_on,,,,,480,0,9,,,,5,,,64,0
97920,note_on,,,,,48,0,15,,,,13,,,52,105
97920,note_on,,,,,0,0,4,,,,2,,,71,92
98160,note_on,,,,,0,0,15,,,,13,,,55,105
98160,note_on,,,,,240,0,15,,,,13,,,52,0
98160,note_on,,,,,240,0,14,,,,12,,,55,0
98160,note_on,,,,,0,0,14,,,,12,,,60,105
98304,note_on,,,,,0,0,6,,,,3,,,55,0
98304,note_on,,,,,1824,0,6,,,,3,,,40,0
98304,note_on,,,,,1824,0,16,,,,14,,,40,0
98352,note_on,,,,,192,0,14,,,,12,,,60,0
98352,note_on,,,,,192,0,15,,,,13,,,55,0
98400,note_on,,,,,0,0,4,,,,2,,,71,0
98400,note_on,,,,,0,0,3,,,,1,,,72,92
98400,note_on,,,,,0,0,3,,,,1,,,71,0
98400,note_on,,,,,480,0,3,,,,1,,,74,0
98400,note_on,,,,,0,0,9,,,,5,,,60,92
98400,note_on,,,,,0,0,9,,,,5,,,59,0
98400,note_on,,,,,480,0,9,,,,5,,,62,0
98400,note_on,,,,,48,0,15,,,,13,,,51,105
98400,note_on,,,,,480,0,4,,,,2,,,74,0
98400,note_on,,,,,96,0,16,,,,14,,,39,105
98400,note_on,,,,,48,0,14,,,,12,,,55,105
98400,note_on,,,,,0,0,12,,,,10,,,81,116
98400,note_on,,,,,0,0,13,,,,11,,,69,105
98400,note_on,,,,,96,0,6,,,,3,,,40,92
98400,note_on,,,,,0,0,6,,,,3,,,50,92
98400,note_on,,,,,0,0,4,,,,2,,,72,92
98400,note_on,,,,,1440,0,12,,,,10,,,79,0
98400,note_on,,,,,1440,0,13,,,,11,,,67,0
98640,note_on,,,,,0,0,14,,,,12,,,60,105
98640,note_on,,,,,240,0,14,,,,12,,,55,0
98640,note_on,,,,,0,0,15,,,,13,,,55,105
98640,note_on,,,,,240,0,15,,,,13,,,51,0
98688,note_on,,,,,1728,0,1,,,,0,,,79,0
98784,note_on,,,,,384,0,9,,,,5,,,60,0
98784,note_on,,,,,384,0,6,,,,3,,,50,0
98784,note_on,,,,,0,0,6,,,,3,,,40,0
98784,note_on,,,,,384,0,16,,,,14,,,39,0
98832,note_on,,,,,192,0,14,,,,12,,,60,0
98832,note_on,,,,,192,0,15,,,,13,,,55,0
98880,note_on,,,,,0,0,3,,,,1,,,67,92
98880,note_on,,,,,0,0,9,,,,5,,,43,80
98880,note_on,,,,,96,0,9,,,,5,,,55,80
98880,note_on,,,,,48,0,15,,,,13,,,50,105
98880,note_on,,,,,0,0,10,,,,6,,,74,92
98880,note_on,,,,,19872,0,10,,,,6,,,67,92
98880,note_on,,,,,48,0,14,,,,12,,,55,105
98880,note_on,,,,,0,0,13,,,,11,,,72,105
98880,note_on,,,,,0,0,4,,,,2,,,67,92
98880,note_on,,,,,96,0,6,,,,3,,,50,92
98880,note_on,,,,,0,0,6,,,,3,,,38,92
98880,note_on,,,,,480,0,4,,,,2,,,72,0
98880,note_on,,,,,480,0,13,,,,11,,,69,0
98880,note_on,,,,,480,0,3,,,,1,,,72,0
98880,note_on,,,,,192,0,1,,,,0,,,79,105
98880,note_on,,,,,96,0,16,,,,14,,,38,105
98880,note_on,,,,,12192,0,8,,,,4,,,55,80
98880,note_on,,,,,0,0,12,,,,10,,,84,116
98880,note_on,,,,,480,0,12,,,,10,,,81,0
99120,note_on,,,,,240,0,14,,,,12,,,55,0
99120,note_on,,,,,0,0,15,,,,13,,,55,105
99120,note_on,,,,,240,0,15,,,,13,,,50,0
99120,note_on,,,,,0,0,14,,,,12,,,62,105
99312,note_on,,,,,192,0,15,,,,13,,,55,0
99312,note_on,,,,,192,0,14,,,,12,,,62,0
99360,note_on,,,,,48,0,14,,,,12,,,55,105
99360,note_on,,,,,48,0,15,,,,13,,,50,105
99600,note_on,,,,,240,0,14,,,,12,,,55,0
99600,note_on,,,,,0,0,12,,,,10,,,83,116
99600,note_on,,,,,720,0,13,,,,11,,,72,0
99600,note_on,,,,,0,0,13,,,,11,,,71,105
99600,note_on,,,,,720,0,12,,,,10,,,84,0
99600,note_on,,,,,0,0,15,,,,13,,,55,105
99600,note_on,,,,,240,0,15,,,,13,,,50,0
99600,note_on,,,,,0,0,14,,,,12,,,62,105
99648,note_on,,,,,768,0,16,,,,14,,,38,0
99648,note_on,,,,,768,0,9,,,,5,,,43,0
99648,note_on,,,,,0,0,6,,,,3,,,50,0
99648,note_on,,,,,0,0,10,,,,6,,,67,0
99648,note_on,,,,,768,0,10,,,,6,,,74,0
99648,note_on,,,,,768,0,8,,,,4,,,55,0
99648,note_on,,,,,768,0,3,,,,1,,,67,0
99648,note_on,,,,,768,0,4,,,,2,,,67,0
99648,note_on,,,,,768,0,1,,,,0,,,79,0
99648,note_on,,,,,768,0,6,,,,3,,,38,0
99648,note_on,,,,,0,0,9,,,,5,,,55,0
99792,note_on,,,,,192,0,15,,,,13,,,55,0
99792,note_on,,,,,192,0,14,,,,12,,,62,0
99792,note_on,,,,,192,0,13,,,,11,,,71,0
99828,note_on,,,,,228,0,12,,,,10,,,83,0
99840,note_on,,,,,12,0,12,,,,10,,,79,116
99840,note_on,,,,,192,0,9,,,,5,,,55,80
99840,note_on,,,,,0,0,9,,,,5,,,59,80
99840,note_on,,,,,192,0,8,,,,4,,,59,80
99840,note_on,,,,,0,0,8,,,,4,,,55,80
99840,note_on,,,,,192,0,16,,,,14,,,35,105
99840,note_on,,,,,192,0,3,,,,1,,,67,92
99840,note_on,,,,,192,0,10,,,,6,,,67,92
99840,note_on,,,,,48,0,15,,,,13,,,47,105
99840,note_on,,,,,0,0,10,,,,6,,,74,92
99840,note_on,,,,,192,0,1,,,,0,,,79,105
99840,note_on,,,,,192,0,6,,,,3,,,47,92
99840,note_on,,,,,192,0,4,,,,2,,,67,92
99840,note_on,,,,,48,0,13,,,,11,,,67,105
99840,note_on,,,,,48,0,14,,,,12,,,50,105
99840,set_tempo,,,,,7680,1,0,447761,,,,,,,
100080,note_on,,,,,240,0,14,,,,12,,,50,0
100080,note_on,,,,,0,0,15,,,,13,,,50,105
100080,note_on,,,,,0,0,14,,,,12,,,55,105
100080,note_on,,,,,240,0,15,,,,13,,,47,0
100272,note_on,,,,,192,0,14,,,,12,,,55,0
100272,note_on,,,,,192,0,15,,,,13,,,50,0
100320,note_on,,,,,0,0,9,,,,5,,,59,80
100320,note_on,,,,,0,0,9,,,,5,,,55,0
100320,note_on,,,,,48,0,14,,,,12,,,50,105
100320,note_on,,,,,0,0,8,,,,4,,,62,80
100320,note_on,,,,,0,0,8,,,,4,,,59,80
100320,note_on,,,,,480,0,9,,,,5,,,59,0
100320,note_on,,,,,480,0,8,,,,4,,,55,0
100320,note_on,,,,,48,0,15,,,,13,,,47,105
100320,note_on,,,,,0,0,8,,,,4,,,59,0
100320,note_on,,,,,0,0,9,,,,5,,,62,80
100560,note_on,,,,,0,0,15,,,,13,,,50,105
100560,note_on,,,,,720,0,12,,,,10,,,79,0
100560,note_on,,,,,240,0,14,,,,12,,,50,0
100560,note_on,,,,,0,0,14,,,,12,,,55,105
100560,note_on,,,,,240,0,15,,,,13,,,47,0
100560,note_on,,,,,0,0,13,,,,11,,,62,105
100560,note_on,,,,,720,0,13,,,,11,,,67,0
100560,note_on,,,,,0,0,12,,,,10,,,74,116
100608,note_on,,,,,768,0,3,,,,1,,,67,0
100608,note_on,,,,,768,0,1,,,,0,,,79,0
100608,note_on,,,,,768,0,16,,,,14,,,35,0
100608,note_on,,,,,768,0,4,,,,2,,,67,0
100608,note_on,,,,,768,0,10,,,,6,,,74,0
100608,note_on,,,,,0,0,10,,,,6,,,67,0
100608,note_on,,,,,768,0,6,,,,3,,,47,0
100704,note_on,,,,,384,0,8,,,,4,,,62,0
100704,note_on,,,,,384,0,9,,,,5,,,62,0
100704,note_on,,,,,0,0,9,,,,5,,,59,0
100704,note_on,,,,,0,0,8,,,,4,,,59,0
100752,note_on,,,,,192,0,14,,,,12,,,55,0
100752,note_on,,,,,192,0,15,,,,13,,,50,0
100752,note_on,,,,,192,0,13,,,,11,,,62,0
100788,note_on,,,,,228,0,12,,,,10,,,74,0
100800,note_on,,,,,192,0,6,,,,3,,,53,92
100800,note_on,,,,,192,0,4,,,,2,,,67,92
100800,note_on,,,,,192,0,1,,,,0,,,79,105
100800,note_on,,,,,192,0,10,,,,6,,,74,92
100800,note_on,,,,,48,0,14,,,,12,,,55,105
100800,note_on,,,,,48,0,13,,,,11,,,59,105
100800,note_on,,,,,12,0,12,,,,10,,,71,116
100800,note_on,,,,,0,0,6,,,,3,,,41,92
100800,note_on,,,,,0,0,10,,,,6,,,71,92
100800,note_on,,,,,192,0,3,,,,1,,,67,92
100800,note_on,,,,,96,0,9,,,,5,,,67,80
100800,note_on,,,,,0,0,8,,,,4,,,62,80
100800,note_on,,,,,0,0,9,,,,5,,,62,80
100800,note_on,,,,,96,0,8,,,,4,,,67,80
100800,note_on,,,,,48,0,15,,,,13,,,41,105
100800,note_on,,,,,192,0,16,,,,14,,,29,105
101040,note_on,,,,,240,0,13,,,,11,,,59,0
101040,note_on,,,,,0,0,13,,,,11,,,62,105
101040,note_on,,,,,240,0,14,,,,12,,,55,0
101040,note_on,,,,,0,0,14,,,,12,,,59,105
101232,note_on,,,,,192,0,13,,,,11,,,62,0
101232,note_on,,,,,192,0,14,,,,12,,,59,0
101280,note_on,,,,,0,0,9,,,,5,,,62,80
101280,note_on,,,,,0,0,9,,,,5,,,59,80
101280,note_on,,,,,480,0,8,,,,4,,,62,0
101280,note_on,,,,,0,0,8,,,,4,,,59,80
101280,note_on,,,,,0,0,8,,,,4,,,67,0
101280,note_on,,,,,48,0,14,,,,12,,,55,105
101280,note_on,,,,,0,0,8,,,,4,,,62,80
101280,note_on,,,,,480,0,9,,,,5,,,62,0
101280,note_on,,,,,0,0,9,,,,5,,,67,0
101280,note_on,,,,,48,0,13,,,,11,,,59,105
101520,note_on,,,,,720,0,12,,,,10,,,71,0
101520,note_on,,,,,0,0,12,,,,10,,,67,116
101520,note_on,,,,,240,0,13,,,,11,,,59,0
101520,note_on,,,,,0,0,13,,,,11,,,60,105
101520,note_on,,,,,240,0,14,,,,12,,,55,0
101520,note_on,,,,,0,0,14,,,,12,,,59,105
101568,note_on,,,,,768,0,16,,,,14,,,29,0
101568,note_on,,,,,768,0,3,,,,1,,,67,0
101568,note_on,,,,,768,0,15,,,,13,,,41,0
101568,note_on,,,,,0,0,6,,,,3,,,53,0
101568,note_on,,,,,768,0,6,,,,3,,,41,0
101568,note_on,,,,,768,0,4,,,,2,,,67,0
101568,note_on,,,,,768,0,10,,,,6,,,71,0
101568,note_on,,,,,0,0,10,,,,6,,,74,0
101568,note_on,,,,,768,0,1,,,,0,,,79,0
101664,note_on,,,,,384,0,9,,,,5,,,59,0
101664,note_on,,,,,0,0,9,,,,5,,,62,0
101664,note_on,,,,,0,0,8,,,,4,,,59,0
101664,note_on,,,,,384,0,8,,,,4,,,62,0
101712,note_on,,,,,192,0,14,,,,12,,,59,0
101712,note_on,,,,,192,0,13,,,,11,,,60,0
101748,note_on,,,,,228,0,12,,,,10,,,67,0
101760,note_on,,,,,192,0,10,,,,6,,,78,105
101760,note_on,,,,,0,0,9,,,,5,,,61,105
101760,note_on,,,,,96,0,9,,,,5,,,54,105
101760,note_on,,,,,48,0,14,,,,12,,,61,92
101760,set_tempo,,,,,1920,1,0,422535,,,,,,,
101760,note_on,,,,,192,0,16,,,,14,,,30,105
101760,note_on,,,,,192,0,3,,,,1,,,66,92
101760,note_on,,,,,0,0,6,,,,3,,,54,92
101760,note_on,,,,,96,0,8,,,,4,,,66,92
101760,note_on,,,,,192,0,15,,,,13,,,42,105
101760,note_on,,,,,192,0,6,,,,3,,,42,92
101760,note_on,,,,,192,0,1,,,,0,,,78,92
101760,note_on,,,,,192,0,4,,,,2,,,66,92
101760,note_on,,,,,48,0,13,,,,11,,,58,92
101760,note_on,,,,,12,0,12,,,,10,,,66,105
102144,note_on,,,,,384,0,14,,,,12,,,61,0
102144,note_on,,,,,0,0,9,,,,5,,,54,0
102144,note_on,,,,,384,0,9,,,,5,,,61,0
102144,note_on,,,,,384,0,8,,,,4,,,66,0
102144,note_on,,,,,384,0,10,,,,6,,,78,0
102144,note_on,,,,,384,0,13,,,,11,,,58,0
102144,note_on,,,,,384,0,12,,,,10,,,66,0
102144,note_on,,,,,384,0,16,,,,14,,,30,0
102144,note_on,,,,,384,0,15,,,,13,,,42,0
102336,note_on,,,,,0,0,6,,,,3,,,42,0
102336,note_on,,,,,576,0,4,,,,2,,,66,0
102336,note_on,,,,,576,0,3,,,,1,,,66,0
102336,note_on,,,,,576,0,1,,,,0,,,78,0
102336,note_on,,,,,576,0,6,,,,3,,,54,0
102480,note_on,,,,,144,0,6,,,,3,,,54,92
102480,note_on,,,,,144,0,4,,,,2,,,66,92
102480,note_on,,,,,144,0,3,,,,1,,,66,92
102600,note_on,,,,,0,0,3,,,,1,,,70,92
102600,note_on,,,,,120,0,4,,,,2,,,66,0
102600,note_on,,,,,0,0,6,,,,3,,,58,92
102600,note_on,,,,,120,0,6,,,,3,,,54,0
102600,note_on,,,,,120,0,3,,,,1,,,66,0
102600,note_on,,,,,0,0,4,,,,2,,,70,92
102720,note_on,,,,,120,0,4,,,,2,,,70,0
102720,note_on,,,,,0,0,4,,,,2,,,73,92
102720,note_on,,,,,120,0,6,,,,3,,,58,0
102720,note_on,,,,,0,0,3,,,,1,,,73,92
102720,note_on,,,,,120,0,3,,,,1,,,70,0
102720,note_on,,,,,0,0,6,,,,3,,,61,92
102720,note_on,,,,,576,0,9,,,,5,,,61,105
102912,note_on,,,,,192,0,4,,,,2,,,73,0
102912,note_on,,,,,192,0,3,,,,1,,,73,0
102912,note_on,,,,,192,0,6,,,,3,,,61,0
102976,note_on,,,,,256,0,9,,,,5,,,61,0
103040,note_on,,,,,128,0,4,,,,2,,,70,92
103040,note_on,,,,,128,0,6,,,,3,,,58,92
103040,note_on,,,,,64,0,9,,,,5,,,58,105
103040,note_on,,,,,128,0,3,,,,1,,,70,92
103232,note_on,,,,,192,0,6,,,,3,,,58,0
103232,note_on,,,,,192,0,4,,,,2,,,70,0
103232,note_on,,,,,192,0,3,,,,1,,,70,0
103296,note_on,,,,,256,0,9,,,,5,,,58,0
103360,note_on,,,,,64,0,9,,,,5,,,62,105
103360,note_on,,,,,128,0,3,,,,1,,,74,92
103360,note_on,,,,,128,0,6,,,,3,,,62,92
103360,note_on,,,,,128,0,4,,,,2,,,74,92
103552,note_on,,,,,192,0,6,,,,3,,,62,0
103552,note_on,,,,,192,0,3,,,,1,,,74,0
103552,note_on,,,,,192,0,4,,,,2,,,74,0
103616,note_on,,,,,256,0,9,,,,5,,,62,0
103680,note_on,,,,,128,0,3,,,,1,,,73,112
103680,note_on,,,,,128,0,4,,,,2,,,73,112
103680,note_on,,,,,64,0,9,,,,5,,,61,125
103680,note_on,,,,,128,0,6,,,,3,,,61,112
104256,note_on,,,,,576,0,4,,,,2,,,73,0
104256,note_on,,,,,576,0,3,,,,1,,,73,0
104256,note_on,,,,,576,0,6,,,,3,,,61,0
104256,note_on,,,,,576,0,9,,,,5,,,61,0
104400,note_on,,,,,144,0,3,,,,1,,,70,92
104400,note_on,,,,,144,0,4,,,,2,,,70,92
104400,note_on,,,,,144,0,6,,,,3,,,58,92
104400,note_on,,,,,144,0,9,,,,5,,,58,105
104544,note_on,,,,,144,0,4,,,,2,,,70,0
104544,note_on,,,,,144,0,6,,,,3,,,58,0
104544,note_on,,,,,144,0,3,,,,1,,,70,0
104544,note_on,,,,,144,0,9,,,,5,,,58,0
104640,note_on,,,,,96,0,3,,,,1,,,66,92
104640,note_on,,,,,96,0,4,,,,2,,,66,92
104640,note_on,,,,,96,0,6,,,,3,,,54,92
104640,note_on,,,,,96,0,9,,,,5,,,54,105
104928,note_on,,,,,288,0,3,,,,1,,,66,0
104928,note_on,,,,,288,0,9,,,,5,,,54,0
104928,note_on,,,,,288,0,6,,,,3,,,54,0
104928,note_on,,,,,288,0,4,,,,2,,,66,0
105120,note_on,,,,,192,0,3,,,,1,,,78,92
105120,note_on,,,,,192,0,9,,,,5,,,66,105
105120,note_on,,,,,192,0,6,,,,3,,,66,92
105120,note_on,,,,,192,0,4,,,,2,,,78,92
105408,note_on,,,,,288,0,3,,,,1,,,78,0
105408,note_on,,,,,288,0,9,,,,5,,,66,0
105408,note_on,,,,,288,0,6,,,,3,,,66,0
105408,note_on,,,,,288,0,4,,,,2,,,78,0
105600,note_on,,,,,192,0,3,,,,1,,,74,112
105600,note_on,,,,,192,0,9,,,,5,,,62,125
105600,note_on,,,,,192,0,6,,,,3,,,62,112
105600,note_on,,,,,192,0,4,,,,2,,,74,112
106176,note_on,,,,,576,0,9,,,,5,,,62,0
106176,note_on,,,,,576,0,4,,,,2,,,74,0
106176,note_on,,,,,576,0,6,,,,3,,,62,0
106176,note_on,,,,,576,0,3,,,,1,,,74,0
106320,note_on,,,,,144,0,6,,,,3,,,61,92
106320,note_on,,,,,144,0,4,,,,2,,,73,92
106320,note_on,,,,,144,0,9,,,,5,,,61,105
106320,note_on,,,,,144,0,3,,,,1,,,73,92
106464,note_on,,,,,144,0,4,,,,2,,,73,0
106464,note_on,,,,,144,0,6,,,,3,,,61,0
106464,note_on,,,,,144,0,9,,,,5,,,61,0
106464,note_on,,,,,144,0,3,,,,1,,,73,0
106560,note_on,,,,,96,0,9,,,,5,,,61,105
106560,note_on,,,,,96,0,4,,,,2,,,73,92
106560,note_on,,,,,96,0,6,,,,3,,,61,92
106560,note_on,,,,,96,0,3,,,,1,,,73,92
106848,note_on,,,,,288,0,3,,,,1,,,73,0
106848,note_on,,,,,288,0,4,,,,2,,,73,0
106848,note_on,,,,,288,0,9,,,,5,,,61,0
106848,note_on,,,,,288,0,6,,,,3,,,61,0
107040,note_on,,,,,4704,0,1,,,,0,,,93,92
107040,note_on,,,,,4896,0,15,,,,13,,,42,105
107040,note_on,,,,,0,0,13,,,,11,,,66,92
107040,note_on,,,,,4896,0,13,,,,11,,,78,92
107040,note_on,,,,,192,0,9,,,,5,,,58,105
107040,note_on,,,,,4896,0,8,,,,4,,,66,92
107040,note_on,,,,,0,0,1,,,,0,,,82,92
107040,note_on,,,,,4896,0,14,,,,12,,,73,92
107040,note_on,,,,,0,0,14,,,,12,,,70,92
107040,note_on,,,,,192,0,6,,,,3,,,42,92
107040,note_on,,,,,4896,0,16,,,,14,,,30,105
107040,note_on,,,,,192,0,3,,,,1,,,70,92
107040,note_on,,,,,4896,0,12,,,,10,,,90,105
107040,note_on,,,,,192,0,4,,,,2,,,70,92
107040,note_on,,,,,0,0,6,,,,3,,,58,92
107328,note_on,,,,,288,0,16,,,,14,,,30,0
107328,note_on,,,,,288,0,8,,,,4,,,66,0
107328,note_on,,,,,288,0,3,,,,1,,,70,0
107328,note_on,,,,,288,0,9,,,,5,,,58,0
107328,note_on,,,,,288,0,13,,,,11,,,66,0
107328,note_on,,,,,0,0,13,,,,11,,,78,0
107328,note_on,,,,,288,0,12,,,,10,,,90,0
107328,note_on,,,,,288,0,15,,,,13,,,42,0
107328,note_on,,,,,288,0,4,,,,2,,,70,0
107328,note_on,,,,,288,0,6,,,,3,,,58,0
107328,note_on,,,,,0,0,6,,,,3,,,42,0
107328,note_on,,,,,288,0,14,,,,12,,,70,0
107328,note_on,,,,,0,0,14,,,,12,,,73,0
107424,note_on,,,,,0,0,1,,,,0,,,93,0
107424,note_on,,,,,384,0,1,,,,0,,,82,0
107520,note_on,,,,,96,0,1,,,,0,,,78,92
107520,note_on,,,,,0,0,1,,,,0,,,86,92
107520,note_on,,,,,192,0,4,,,,2,,,66,92
107520,note_on,,,,,192,0,8,,,,4,,,59,92
107520,note_on,,,,,0,0,8,,,,4,,,66,92
107520,note_on,,,,,192,0,3,,,,1,,,66,92
107520,note_on,,,,,192,0,12,,,,10,,,86,105
107520,note_on,,,,,192,0,16,,,,14,,,35,105
107520,note_on,,,,,192,0,9,,,,5,,,54,92
107520,note_on,,,,,0,0,14,,,,12,,,74,92
107520,note_on,,,,,192,0,14,,,,12,,,71,92
107520,note_on,,,,,192,0,15,,,,13,,,47,105
107520,note_on,,,,,192,0,13,,,,11,,,66,92
107520,note_on,,,,,0,0,13,,,,11,,,74,92
107520,note_on,,,,,0,0,6,,,,3,,,54,92
107520,note_on,,,,,192,0,6,,,,3,,,47,92
107904,note_on,,,,,384,0,6,,,,3,,,54,0
107904,note_on,,,,,384,0,3,,,,1,,,66,0
107904,note_on,,,,,0,0,6,,,,3,,,47,0
107904,note_on,,,,,384,0,4,,,,2,,,66,0
108096,note_on,,,,,576,0,14,,,,12,,,74,0
108096,note_on,,,,,0,0,14,,,,12,,,71,0
108096,note_on,,,,,576,0,12,,,,10,,,86,0
108096,note_on,,,,,576,0,16,,,,14,,,35,0
108096,note_on,,,,,576,0,8,,,,4,,,66,0
108096,note_on,,,,,0,0,8,,,,4,,,59,0
108096,note_on,,,,,576,0,9,,,,5,,,54,0
108096,note_on,,,,,576,0,15,,,,13,,,47,0
108096,note_on,,,,,576,0,13,,,,11,,,74,0
108096,note_on,,,,,0,0,13,,,,11,,,66,0
108096,note_on,,,,,576,0,1,,,,0,,,86,0
108096,note_on,,,,,0,0,1,,,,0,,,78,0
108240,note_on,,,,,144,0,14,,,,12,,,65,92
108240,note_on,,,,,144,0,8,,,,4,,,65,92
108240,note_on,,,,,0,0,14,,,,12,,,68,92
108240,note_on,,,,,144,0,9,,,,5,,,61,92
108240,note_on,,,,,144,0,15,,,,13,,,49,105
108240,note_on,,,,,144,0,16,,,,14,,,37,105
108240,note_on,,,,,0,0,8,,,,4,,,56,92
108240,note_on,,,,,144,0,13,,,,11,,,73,92
108240,note_on,,,,,0,0,1,,,,0,,,77,92
108240,note_on,,,,,0,0,13,,,,11,,,65,92
108240,note_on,,,,,144,0,1,,,,0,,,85,92
108240,note_on,,,,,144,0,12,,,,10,,,85,105
108384,note_on,,,,,144,0,1,,,,0,,,77,0
108384,note_on,,,,,144,0,8,,,,4,,,56,0
108384,note_on,,,,,0,0,8,,,,4,,,65,0
108384,note_on,,,,,144,0,9,,,,5,,,61,0
108384,note_on,,,,,0,0,1,,,,0,,,85,0
108384,note_on,,,,,144,0,15,,,,13,,,49,0
108384,note_on,,,,,0,0,14,,,,12,,,65,0
108384,note_on,,,,,0,0,13,,,,11,,,73,0
108384,note_on,,,,,144,0,13,,,,11,,,65,0
108384,note_on,,,,,144,0,12,,,,10,,,85,0
108384,note_on,,,,,144,0,16,,,,14,,,37,0
108384,note_on,,,,,144,0,14,,,,12,,,68,0
108480,note_on,,,,,0,0,8,,,,4,,,56,92
108480,note_on,,,,,96,0,14,,,,12,,,68,92
108480,note_on,,,,,96,0,8,,,,4,,,65,92
108480,note_on,,,,,0,0,14,,,,12,,,65,92
108480,note_on,,,,,96,0,12,,,,10,,,85,105
108480,note_on,,,,,0,0,1,,,,0,,,85,92
108480,note_on,,,,,96,0,15,,,,13,,,49,105
108480,note_on,,,,,96,0,16,,,,14,,,37,105
108480,note_on,,,,,96,0,13,,,,11,,,73,92
108480,note_on,,,,,0,0,13,,,,11,,,65,92
108480,note_on,,,,,96,0,1,,,,0,,,77,92
108480,note_on,,,,,96,0,9,,,,5,,,61,92
108768,note_on,,,,,288,0,13,,,,11,,,65,0
108768,note_on,,,,,288,0,15,,,,13,,,49,0
108768,note_on,,,,,0,0,1,,,,0,,,77,0
108768,note_on,,,,,288,0,16,,,,14,,,37,0
108768,note_on,,,,,0,0,14,,,,12,,,68,0
108768,note_on,,,,,288,0,14,,,,12,,,65,0
108768,note_on,,,,,0,0,8,,,,4,,,65,0
108768,note_on,,,,,288,0,9,,,,5,,,61,0
108768,note_on,,,,,0,0,13,,,,11,,,73,0
108768,note_on,,,,,288,0,8,,,,4,,,56,0
108768,note_on,,,,,288,0,1,,,,0,,,85,0
108768,note_on,,,,,288,0,12,,,,10,,,85,0
108960,note_on,,,,,0,0,1,,,,0,,,82,92
108960,note_on,,,,,192,0,1,,,,0,,,78,92
108960,note_on,,,,,1056,0,6,,,,3,,,42,92
108960,note_on,,,,,192,0,12,,,,10,,,82,105
108960,note_on,,,,,192,0,15,,,,13,,,42,105
108960,note_on,,,,,0,0,13,,,,11,,,66,92
108960,note_on,,,,,0,0,14,,,,12,,,70,92
108960,note_on,,,,,192,0,16,,,,14,,,30,105
108960,note_on,,,,,0,0,4,,,,2,,,66,92
108960,note_on,,,,,192,0,13,,,,11,,,70,92
108960,note_on,,,,,0,0,3,,,,1,,,70,92
108960,note_on,,,,,1056,0,4,,,,2,,,70,92
108960,note_on,,,,,1056,0,3,,,,1,,,66,92
108960,note_on,,,,,0,0,8,,,,4,,,58,92
108960,note_on,,,,,192,0,9,,,,5,,,61,92
108960,note_on,,,,,192,0,14,,,,12,,,61,92
108960,note_on,,,,,192,0,8,,,,4,,,66,92
108960,note_on,,,,,0,0,9,,,,5,,,58,92
109248,note_on,,,,,288,0,12,,,,10,,,82,0
109248,note_on,,,,,0,0,13,,,,11,,,70,0
109248,note_on,,,,,0,0,9,,,,5,,,61,0
109248,note_on,,,,,288,0,9,,,,5,,,58,0
109248,note_on,,,,,288,0,13,,,,11,,,66,0
109248,note_on,,,,,0,0,4,,,,2,,,70,0
109248,note_on,,,,,0,0,1,,,,0,,,78,0
109248,note_on,,,,,288,0,16,,,,14,,,30,0
109248,note_on,,,,,288,0,1,,,,0,,,82,0
109248,note_on,,,,,288,0,15,,,,13,,,42,0
109248,note_on,,,,,288,0,4,,,,2,,,66,0
109248,note_on,,,,,0,0,3,,,,1,,,66,0
109248,note_on,,,,,0,0,14,,,,12,,,61,0
109248,note_on,,,,,288,0,3,,,,1,,,70,0
109248,note_on,,,,,288,0,8,,,,4,,,58,0
109248,note_on,,,,,288,0,14,,,,12,,,70,0
109248,note_on,,,,,0,0,8,,,,4,,,66,0
109344,note_on,,,,,384,0,6,,,,3,,,42,0
109440,note_on,,,,,192,0,16,,,,14,,,42,105
109440,note_on,,,,,0,0,4,,,,2,,,73,92
109440,note_on,,,,,0,0,3,,,,1,,,70,80
109440,note_on,,,,,192,0,3,,,,1,,,66,80
109440,note_on,,,,,192,0,13,,,,11,,,66,92
109440,note_on,,,,,0,0,13,,,,11,,,70,92
109440,note_on,,,,,192,0,14,,,,12,,,58,92
109440,note_on,,,,,192,0,4,,,,2,,,70,92
109440,note_on,,,,,96,0,6,,,,3,,,54,92
109440,note_on,,,,,192,0,12,,,,10,,,78,105
109440,note_on,,,,,192,0,15,,,,13,,,54,116
109440,note_on,,,,,192,0,9,,,,5,,,54,83
109440,note_on,,,,,192,0,1,,,,0,,,78,80
109440,note_on,,,,,0,0,14,,,,12,,,66,92
109728,note_on,,,,,288,0,6,,,,3,,,54,0
109728,note_on,,,,,288,0,3,,,,1,,,70,0
109728,note_on,,,,,288,0,13,,,,11,,,70,0
109728,note_on,,,,,288,0,1,,,,0,,,78,0
109728,note_on,,,,,0,0,3,,,,1,,,66,0
109728,note_on,,,,,288,0,16,,,,14,,,42,0
109728,note_on,,,,,288,0,4,,,,2,,,73,0
109728,note_on,,,,,0,0,4,,,,2,,,70,0
109728,note_on,,,,,288,0,14,,,,12,,,66,0
109728,note_on,,,,,288,0,12,,,,10,,,78,0
109728,note_on,,,,,0,0,14,,,,12,,,58,0
109728,note_on,,,,,0,0,13,,,,11,,,66,0
110160,note_on,,,,,432,0,14,,,,12,,,64,92
110160,note_on,,,,,432,0,6,,,,3,,,49,92
110160,note_on,,,,,0,0,6,,,,3,,,61,92
110160,note_on,,,,,432,0,16,,,,14,,,49,105
110304,note_on,,,,,144,0,14,,,,12,,,64,0
110304,note_on,,,,,144,0,6,,,,3,,,61,0
110304,note_on,,,,,0,0,6,,,,3,,,49,0
110304,note_on,,,,,144,0,16,,,,14,,,49,0
110400,note_on,,,,,0,0,15,,,,13,,,64,116
110400,note_on,,,,,0,0,6,,,,3,,,61,92
110400,note_on,,,,,96,0,6,,,,3,,,49,92
110400,note_on,,,,,672,0,4,,,,2,,,66,92
110400,note_on,,,,,0,0,4,,,,2,,,58,92
110400,note_on,,,,,0,0,12,,,,10,,,66,92
110400,note_on,,,,,96,0,14,,,,12,,,64,92
110400,note_on,,,,,960,0,15,,,,13,,,54,0
110400,note_on,,,,,672,0,1,,,,0,,,78,80
110400,program_change,,,,,672,0,12,,,45,10,,,,
110400,note_on,,,,,0,0,9,,,,5,,,61,63
110400,program_change,,,,,672,0,13,,,45,11,,,,
110400,note_on,,,,,96,0,16,,,,14,,,49,105
110400,note_on,,,,,0,0,13,,,,11,,,58,70
110400,note_on,,,,,0,0,13,,,,11,,,66,70
110400,note_on,,,,,0,0,9,,,,5,,,64,63
110400,note_on,,,,,1152,0,8,,,,4,,,64,105
110400,note_on,,,,,960,0,9,,,,5,,,54,0
110688,note_on,,,,,0,0,9,,,,5,,,61,0
110688,note_on,,,,,288,0,9,,,,5,,,64,0
110688,note_on,,,,,288,0,14,,,,12,,,64,0
110688,note_on,,,,,288,0,1,,,,0,,,78,0
110688,note_on,,,,,0,0,6,,,,3,,,49,0
110688,note_on,,,,,0,0,4,,,,2,,,66,0
110688,note_on,,,,,288,0,4,,,,2,,,58,0
110688,note_on,,,,,288,0,16,,,,14,,,49,0
110688,note_on,,,,,288,0,6,,,,3,,,61,0
110784,note_on,,,,,384,0,13,,,,11,,,66,0
110784,note_on,,,,,0,0,13,,,,11,,,58,0
110784,note_on,,,,,384,0,12,,,,10,,,66,0
110880,note_on,,,,,192,0,6,,,,3,,,58,92
110880,note_on,,,,,0,0,6,,,,3,,,46,92
110880,note_on,,,,,192,0,16,,,,14,,,46,105
110880,note_on,,,,,192,0,14,,,,12,,,61,92
111168,note_on,,,,,288,0,6,,,,3,,,46,0
111168,note_on,,,,,0,0,6,,,,3,,,58,0
111168,note_on,,,,,288,0,14,,,,12,,,61,0
111168,note_on,,,,,288,0,16,,,,14,,,46,0
111360,note_on,,,,,0,0,12,,,,10,,,70,92
111360,note_on,,,,,0,0,9,,,,5,,,61,92
111360,note_on,,,,,672,0,9,,,,5,,,58,92
111360,note_on,,,,,192,0,16,,,,14,,,42,105
111360,note_on,,,,,576,0,13,,,,11,,,70,70
111360,note_on,,,,,0,0,13,,,,11,,,66,70
111360,note_on,,,,,576,0,12,,,,10,,,78,92
111360,note_on,,,,,0,0,4,,,,2,,,78,92
111360,note_on,,,,,672,0,4,,,,2,,,70,92
111360,note_on,,,,,672,0,1,,,,0,,,82,80
111360,note_on,,,,,192,0,14,,,,12,,,58,92
111360,note_on,,,,,192,0,6,,,,3,,,42,92
111360,note_on,,,,,0,0,6,,,,3,,,54,92
111360,note_on,,,,,0,0,1,,,,0,,,90,80
111648,note_on,,,,,288,0,1,,,,0,,,90,0
111648,note_on,,,,,0,0,4,,,,2,,,70,0
111648,note_on,,,,,288,0,14,,,,12,,,58,0
111648,note_on,,,,,0,0,9,,,,5,,,58,0
111648,note_on,,,,,288,0,9,,,,5,,,61,0
111648,note_on,,,,,0,0,6,,,,3,,,42,0
111648,note_on,,,,,288,0,6,,,,3,,,54,0
111648,note_on,,,,,288,0,4,,,,2,,,78,0
111648,note_on,,,,,288,0,16,,,,14,,,42,0
111648,note_on,,,,,0,0,1,,,,0,,,82,0
111744,note_on,,,,,384,0,13,,,,11,,,66,0
111744,note_on,,,,,0,0,12,,,,10,,,78,0
111744,note_on,,,,,384,0,12,,,,10,,,70,0
111744,note_on,,,,,1344,0,15,,,,13,,,64,0
111744,note_on,,,,,1344,0,8,,,,4,,,64,0
111744,note_on,,,,,0,0,13,,,,11,,,70,0
111840,note_on,,,,,192,0,6,,,,3,,,38,92
111840,note_on,,,,,96,0,15,,,,13,,,66,116
111840,note_on,,,,,0,0,6,,,,3,,,50,92
111840,note_on,,,,,192,0,14,,,,12,,,54,92
111840,note_on,,,,,96,0,8,,,,4,,,66,105
111840,note_on,,,,,192,0,16,,,,14,,,38,105
112128,note_on,,,,,288,0,16,,,,14,,,38,0
112128,note_on,,,,,288,0,14,,,,12,,,54,0
112128,note_on,,,,,0,0,6,,,,3,,,38,0
112128,note_on,,,,,288,0,6,,,,3,,,50,0
112224,note_on,,,,,384,0,8,,,,4,,,66,0
112320,note_on,,,,,0,0,15,,,,13,,,64,116
112320,note_on,,,,,192,0,16,,,,14,,,35,105
112320,note_on,,,,,0,0,13,,,,11,,,62,70
112320,note_on,,,,,576,0,12,,,,10,,,71,92
112320,note_on,,,,,576,0,13,,,,11,,,71,70
112320,note_on,,,,,480,0,15,,,,13,,,66,0
112320,note_on,,,,,672,0,4,,,,2,,,66,92
112320,note_on,,,,,192,0,6,,,,3,,,47,92
112320,note_on,,,,,672,0,9,,,,5,,,59,92
112320,note_on,,,,,0,0,9,,,,5,,,62,92
112320,note_on,,,,,672,0,1,,,,0,,,83,80
112320,note_on,,,,,0,0,6,,,,3,,,35,92
112320,note_on,,,,,96,0,8,,,,4,,,64,105
112320,note_on,,,,,192,0,14,,,,12,,,50,92
112320,note_on,,,,,0,0,4,,,,2,,,71,92
112608,note_on,,,,,288,0,14,,,,12,,,50,0
112608,note_on,,,,,288,0,1,,,,0,,,83,0
112608,note_on,,,,,0,0,9,,,,5,,,59,0
112608,note_on,,,,,288,0,9,,,,5,,,62,0
112608,note_on,,,,,0,0,4,,,,2,,,66,0
112608,note_on,,,,,288,0,4,,,,2,,,71,0
112608,note_on,,,,,288,0,16,,,,14,,,35,0
112608,note_on,,,,,288,0,6,,,,3,,,35,0
112608,note_on,,,,,0,0,6,,,,3,,,47,0
112704,note_on,,,,,384,0,12,,,,10,,,71,0
112704,note_on,,,,,0,0,13,,,,11,,,71,0
112704,note_on,,,,,384,0,8,,,,4,,,64,0
112704,note_on,,,,,384,0,13,,,,11,,,62,0
112800,note_on,,,,,0,0,15,,,,13,,,62,116
112800,note_on,,,,,96,0,8,,,,4,,,62,105
112800,note_on,,,,,480,0,15,,,,13,,,64,0
113184,note_on,,,,,384,0,8,,,,4,,,62,0
113256,note_on,,,,,456,0,15,,,,13,,,62,0
113280,note_on,,,,,96,0,8,,,,4,,,67,105
113280,note_on,,,,,24,0,15,,,,13,,,67,116
114000,note_on,,,,,1392,0,16,,,,14,,,50,105
114000,note_on,,,,,1392,0,6,,,,3,,,62,92
114000,note_on,,,,,1392,0,14,,,,12,,,66,92
114000,note_on,,,,,0,0,6,,,,3,,,50,92
114144,note_on,,,,,0,0,6,,,,3,,,62,0
114144,note_on,,,,,144,0,6,,,,3,,,50,0
114144,note_on,,,,,144,0,16,,,,14,,,50,0
114144,note_on,,,,,144,0,14,,,,12,,,66,0
114192,note_on,,,,,912,0,15,,,,13,,,67,0
114192,note_on,,,,,912,0,8,,,,4,,,67,0
114240,note_on,,,,,1536,0,13,,,,11,,,59,70
114240,note_on,,,,,48,0,8,,,,4,,,66,105
114240,note_on,,,,,96,0,6,,,,3,,,50,92
114240,note_on,,,,,0,0,6,,,,3,,,62,92
114240,note_on,,,,,1536,0,12,,,,10,,,71,92
114240,note_on,,,,,48,0,15,,,,13,,,66,116
114240,note_on,,,,,1632,0,4,,,,2,,,71,92
114240,note_on,,,,,1632,0,9,,,,5,,,62,92
114240,note_on,,,,,0,0,9,,,,5,,,59,92
114240,note_on,,,,,96,0,14,,,,12,,,66,92
114240,note_on,,,,,1632,0,1,,,,0,,,71,80
114240,note_on,,,,,96,0,16,,,,14,,,50,105
114528,note_on,,,,,288,0,14,,,,12,,,66,0
114528,note_on,,,,,288,0,4,,,,2,,,71,0
114528,note_on,,,,,288,0,1,,,,0,,,71,0
114528,note_on,,,,,288,0,9,,,,5,,,59,0
114528,note_on,,,,,0,0,9,,,,5,,,62,0
114528,note_on,,,,,288,0,16,,,,14,,,50,0
114528,note_on,,,,,288,0,6,,,,3,,,62,0
114528,note_on,,,,,0,0,6,,,,3,,,50,0
114624,note_on,,,,,384,0,13,,,,11,,,59,0
114624,note_on,,,,,384,0,12,,,,10,,,71,0
114720,note_on,,,,,0,0,6,,,,3,,,59,92
114720,note_on,,,,,192,0,14,,,,12,,,62,92
114720,note_on,,,,,192,0,16,,,,14,,,47,105
114720,note_on,,,,,192,0,6,,,,3,,,47,92
115008,note_on,,,,,288,0,6,,,,3,,,59,0
115008,note_on,,,,,288,0,14,,,,12,,,62,0
115008,note_on,,,,,288,0,16,,,,14,,,47,0
115008,note_on,,,,,0,0,6,,,,3,,,47,0
115200,note_on,,,,,576,0,12,,,,10,,,83,92
115200,note_on,,,,,192,0,14,,,,12,,,59,92
115200,note_on,,,,,672,0,4,,,,2,,,79,92
115200,note_on,,,,,0,0,4,,,,2,,,83,92
115200,note_on,,,,,0,0,9,,,,5,,,55,92
115200,note_on,,,,,0,0,6,,,,3,,,55,92
115200,note_on,,,,,672,0,9,,,,5,,,59,92
115200,note_on,,,,,192,0,6,,,,3,,,43,92
115200,note_on,,,,,576,0,13,,,,11,,,67,70
115200,note_on,,,,,0,0,13,,,,11,,,71,70
115200,note_on,,,,,672,0,1,,,,0,,,79,80
115200,note_on,,,,,0,0,1,,,,0,,,83,80
115200,note_on,,,,,192,0,16,,,,14,,,43,105
115488,note_on,,,,,288,0,4,,,,2,,,83,0
115488,note_on,,,,,288,0,6,,,,3,,,55,0
115488,note_on,,,,,0,0,6,,,,3,,,43,0
115488,note_on,,,,,0,0,9,,,,5,,,59,0
115488,note_on,,,,,288,0,9,,,,5,,,55,0
115488,note_on,,,,,0,0,1,,,,0,,,79,0
115488,note_on,,,,,0,0,4,,,,2,,,79,0
115488,note_on,,,,,288,0,1,,,,0,,,83,0
115488,note_on,,,,,288,0,14,,,,12,,,59,0
115488,note_on,,,,,288,0,16,,,,14,,,43,0
115584,note_on,,,,,0,0,13,,,,11,,,67,0
115584,note_on,,,,,384,0,13,,,,11,,,71,0
115584,note_on,,,,,384,0,12,,,,10,,,83,0
115656,note_on,,,,,1416,0,8,,,,4,,,66,0
115656,note_on,,,,,1416,0,15,,,,13,,,66,0
115680,note_on,,,,,24,0,8,,,,4,,,61,105
115680,note_on,,,,,24,0,15,,,,13,,,61,116
115680,note_on,,,,,192,0,6,,,,3,,,40,92
115680,note_on,,,,,0,0,6,,,,3,,,52,92
115680,note_on,,,,,192,0,16,,,,14,,,40,105
115680,note_on,,,,,192,0,14,,,,12,,,55,92
115968,note_on,,,,,0,0,6,,,,3,,,40,0
115968,note_on,,,,,288,0,14,,,,12,,,55,0
115968,note_on,,,,,288,0,16,,,,14,,,40,0
115968,note_on,,,,,288,0,6,,,,3,,,52,0
116160,note_on,,,,,672,0,1,,,,0,,,76,80
116160,note_on,,,,,0,0,1,,,,0,,,79,80
116160,note_on,,,,,0,0,13,,,,11,,,76,70
116160,note_on,,,,,576,0,13,,,,11,,,67,70
116160,note_on,,,,,672,0,9,,,,5,,,55,92
116160,note_on,,,,,0,0,9,,,,5,,,64,92
116160,note_on,,,,,0,0,8,,,,4,,,62,105
116160,note_on,,,,,480,0,8,,,,4,,,61,0
116160,note_on,,,,,480,0,15,,,,13,,,61,0
116160,note_on,,,,,0,0,15,,,,13,,,62,116
116160,note_on,,,,,0,0,4,,,,2,,,79,92
116160,note_on,,,,,672,0,4,,,,2,,,76,92
116160,note_on,,,,,192,0,16,,,,14,,,37,105
116160,note_on,,,,,192,0,6,,,,3,,,37,92
116160,note_on,,,,,576,0,12,,,,10,,,79,92
116160,note_on,,,,,192,0,14,,,,12,,,52,92
116160,note_on,,,,,0,0,6,,,,3,,,49,92
116448,note_on,,,,,0,0,6,,,,3,,,37,0
116448,note_on,,,,,288,0,14,,,,12,,,52,0
116448,note_on,,,,,288,0,6,,,,3,,,49,0
116448,note_on,,,,,0,0,4,,,,2,,,76,0
116448,note_on,,,,,288,0,9,,,,5,,,64,0
116448,note_on,,,,,0,0,9,,,,5,,,55,0
116448,note_on,,,,,288,0,4,,,,2,,,79,0
116448,note_on,,,,,0,0,1,,,,0,,,76,0
116448,note_on,,,,,288,0,16,,,,14,,,37,0
116448,note_on,,,,,288,0,1,,,,0,,,79,0
116544,note_on,,,,,384,0,12,,,,10,,,79,0
116544,note_on,,,,,0,0,13,,,,11,,,67,0
116544,note_on,,,,,384,0,13,,,,11,,,76,0
116640,note_on,,,,,480,0,15,,,,13,,,62,0
116640,note_on,,,,,0,0,8,,,,4,,,64,105
116640,note_on,,,,,480,0,8,,,,4,,,62,0
116640,note_on,,,,,0,0,15,,,,13,,,64,116
117096,note_on,,,,,456,0,15,,,,13,,,64,0
117096,note_on,,,,,456,0,8,,,,4,,,64,0
117120,note_on,,,,,24,0,15,,,,13,,,58,116
117120,note_on,,,,,24,0,8,,,,4,,,58,105
117840,note_on,,,,,1392,0,6,,,,3,,,55,92
117840,note_on,,,,,1392,0,16,,,,14,,,43,105
117840,note_on,,,,,1392,0,14,,,,12,,,59,92
117984,note_on,,,,,144,0,6,,,,3,,,55,0
117984,note_on,,,,,144,0,16,,,,14,,,43,0
117984,note_on,,,,,144,0,14,,,,12,,,59,0
118032,note_on,,,,,912,0,8,,,,4,,,58,0
118032,note_on,,,,,912,0,15,,,,13,,,58,0
118080,note_on,,,,,1536,0,13,,,,11,,,67,70
118080,note_on,,,,,0,0,13,,,,11,,,71,70
118080,note_on,,,,,1536,0,12,,,,10,,,83,92
118080,note_on,,,,,1632,0,9,,,,5,,,59,92
118080,note_on,,,,,0,0,4,,,,2,,,74,92
118080,note_on,,,,,1632,0,4,,,,2,,,71,92
118080,note_on,,,,,96,0,6,,,,3,,,55,92
118080,note_on,,,,,1632,0,1,,,,0,,,83,80
118080,note_on,,,,,0,0,9,,,,5,,,62,92
118080,note_on,,,,,96,0,16,,,,14,,,43,105
118080,note_on,,,,,48,0,15,,,,13,,,59,116
118080,note_on,,,,,48,0,8,,,,4,,,59,105
118080,note_on,,,,,96,0,14,,,,12,,,59,92
118368,note_on,,,,,0,0,9,,,,5,,,59,0
118368,note_on,,,,,288,0,16,,,,14,,,43,0
118368,note_on,,,,,288,0,6,,,,3,,,55,0
118368,note_on,,,,,0,0,4,,,,2,,,71,0
118368,note_on,,,,,288,0,4,,,,2,,,74,0
118368,note_on,,,,,288,0,1,,,,0,,,83,0
118368,note_on,,,,,288,0,9,,,,5,,,62,0
118368,note_on,,,,,288,0,14,,,,12,,,59,0
118464,note_on,,,,,0,0,13,,,,11,,,67,0
118464,note_on,,,,,384,0,13,,,,11,,,71,0
118464,note_on,,,,,384,0,12,,,,10,,,83,0
118560,note_on,,,,,192,0,6,,,,3,,,52,92
118560,note_on,,,,,192,0,16,,,,14,,,40,105
118560,note_on,,,,,192,0,14,,,,12,,,55,92
118848,note_on,,,,,288,0,6,,,,3,,,52,0
118848,note_on,,,,,288,0,14,,,,12,,,55,0
118848,note_on,,,,,288,0,16,,,,14,,,40,0
119040,note_on,,,,,672,0,1,,,,0,,,88,80
119040,note_on,,,,,192,0,14,,,,12,,,52,92
119040,note_on,,,,,576,0,13,,,,11,,,67,70
119040,note_on,,,,,0,0,13,,,,11,,,76,70
119040,note_on,,,,,192,0,16,,,,14,,,37,105
119040,note_on,,,,,672,0,9,,,,5,,,55,92
119040,note_on,,,,,0,0,9,,,,5,,,64,92
119040,note_on,,,,,192,0,6,,,,3,,,49,92
119040,note_on,,,,,0,0,4,,,,2,,,73,92
119040,note_on,,,,,672,0,4,,,,2,,,76,92
119040,note_on,,,,,576,0,12,,,,10,,,88,92
119328,note_on,,,,,288,0,9,,,,5,,,64,0
119328,note_on,,,,,288,0,16,,,,14,,,37,0
119328,note_on,,,,,288,0,6,,,,3,,,49,0
119328,note_on,,,,,288,0,14,,,,12,,,52,0
119328,note_on,,,,,0,0,9,,,,5,,,55,0
119424,note_on,,,,,384,0,12,,,,10,,,88,0
119424,note_on,,,,,1344,0,15,,,,13,,,59,0
119424,note_on,,,,,384,0,1,,,,0,,,88,0
119424,note_on,,,,,1344,0,8,,,,4,,,59,0
119424,note_on,,,,,0,0,13,,,,11,,,67,0
119424,note_on,,,,,384,0,4,,,,2,,,73,0
119424,note_on,,,,,0,0,4,,,,2,,,76,0
119424,note_on,,,,,384,0,13,,,,11,,,76,0
119520,note_on,,,,,96,0,8,,,,4,,,61,105
119520,note_on,,,,,192,0,14,,,,12,,,49,92
119520,note_on,,,,,192,0,6,,,,3,,,46,92
119520,note_on,,,,,96,0,15,,,,13,,,61,116
119520,note_on,,,,,192,0,16,,,,14,,,34,105
119808,note_on,,,,,288,0,14,,,,12,,,49,0
119808,note_on,,,,,288,0,6,,,,3,,,46,0
119808,note_on,,,,,288,0,16,,,,14,,,34,0
120000,note_on,,,,,576,0,4,,,,2,,,70,92
120000,note_on,,,,,0,0,9,,,,5,,,58,92
120000,note_on,,,,,576,0,13,,,,11,,,70,70
120000,note_on,,,,,0,0,13,,,,11,,,64,70
120000,note_on,,,,,576,0,12,,,,10,,,82,92
120000,note_on,,,,,0,0,4,,,,2,,,73,92
120000,note_on,,,,,672,0,9,,,,5,,,64,92
120000,note_on,,,,,480,0,8,,,,4,,,61,0
120000,note_on,,,,,192,0,16,,,,14,,,30,105
120000,note_on,,,,,0,0,15,,,,13,,,62,116
120000,note_on,,,,,0,0,8,,,,4,,,62,105
120000,note_on,,,,,192,0,6,,,,3,,,42,92
120000,note_on,,,,,480,0,15,,,,13,,,61,0
120000,note_on,,,,,576,0,1,,,,0,,,82,80
120000,note_on,,,,,192,0,14,,,,12,,,54,92
120288,note_on,,,,,288,0,16,,,,14,,,30,0
120288,note_on,,,,,0,0,9,,,,5,,,64,0
120288,note_on,,,,,288,0,9,,,,5,,,58,0
120288,note_on,,,,,288,0,6,,,,3,,,42,0
120288,note_on,,,,,288,0,14,,,,12,,,54,0
120384,note_on,,,,,384,0,1,,,,0,,,82,0
120384,note_on,,,,,384,0,13,,,,11,,,64,0
120384,note_on,,,,,0,0,13,,,,11,,,70,0
120384,note_on,,,,,384,0,12,,,,10,,,82,0
120384,note_on,,,,,384,0,4,,,,2,,,73,0
120384,note_on,,,,,0,0,4,,,,2,,,70,0
120480,note_on,,,,,480,0,15,,,,13,,,62,0
120480,note_on,,,,,0,0,8,,,,4,,,58,105
120480,note_on,,,,,0,0,15,,,,13,,,58,116
120480,note_on,,,,,480,0,8,,,,4,,,62,0
120864,note_on,,,,,384,0,8,,,,4,,,58,0
120936,note_on,,,,,456,0,15,,,,13,,,58,0
120960,note_on,,,,,11232,0,3,,,,1,,,85,80
120960,note_on,,,,,0,0,3,,,,1,,,76,80
120960,note_on,,,,,96,0,8,,,,4,,,64,92
120960,note_on,,,,,0,0,8,,,,4,,,61,92
120960,note_on,,,,,0,0,4,,,,2,,,73,92
120960,note_on,,,,,0,0,1,,,,0,,,76,80
120960,note_on,,,,,576,0,1,,,,0,,,85,80
120960,note_on,,,,,24,0,15,,,,13,,,61,116
120960,note_on,,,,,576,0,4,,,,2,,,64,92
121440,note_on,,,,,1152,0,9,,,,5,,,62,92
121440,note_on,,,,,0,0,9,,,,5,,,59,92
121680,note_on,,,,,0,0,6,,,,3,,,67,92
121680,note_on,,,,,1392,0,16,,,,14,,,55,105
121680,note_on,,,,,1392,0,6,,,,3,,,55,92
121680,note_on,,,,,1392,0,14,,,,12,,,71,92
121728,note_on,,,,,288,0,9,,,,5,,,59,0
121728,note_on,,,,,0,0,9,,,,5,,,62,0
121824,note_on,,,,,0,0,6,,,,3,,,55,0
121824,note_on,,,,,144,0,6,,,,3,,,67,0
121824,note_on,,,,,144,0,14,,,,12,,,71,0
121824,note_on,,,,,144,0,16,,,,14,,,55,0
121872,note_on,,,,,912,0,4,,,,2,,,73,0
121872,note_on,,,,,0,0,4,,,,2,,,64,0
121872,note_on,,,,,912,0,15,,,,13,,,61,0
121872,note_on,,,,,0,0,1,,,,0,,,85,0
121872,note_on,,,,,0,0,8,,,,4,,,64,0
121872,note_on,,,,,912,0,8,,,,4,,,61,0
121872,note_on,,,,,0,0,3,,,,1,,,85,0
121872,note_on,,,,,912,0,3,,,,1,,,76,0
121872,note_on,,,,,912,0,1,,,,0,,,76,0
121920,note_on,,,,,48,0,8,,,,4,,,59,92
121920,note_on,,,,,1536,0,12,,,,10,,,71,92
121920,note_on,,,,,0,0,8,,,,4,,,62,92
121920,note_on,,,,,48,0,3,,,,1,,,74,80
121920,note_on,,,,,96,0,6,,,,3,,,67,92
121920,note_on,,,,,0,0,6,,,,3,,,55,92
121920,note_on,,,,,0,0,1,,,,0,,,83,80
121920,note_on,,,,,0,0,13,,,,11,,,62,70
121920,note_on,,,,,48,0,1,,,,0,,,74,80
121920,note_on,,,,,1536,0,13,,,,11,,,71,70
121920,note_on,,,,,48,0,15,,,,13,,,59,116
121920,note_on,,,,,96,0,16,,,,14,,,55,105
121920,note_on,,,,,96,0,14,,,,12,,,71,92
121920,note_on,,,,,0,0,3,,,,1,,,83,80
121920,note_on,,,,,48,0,4,,,,2,,,62,92
121920,note_on,,,,,0,0,4,,,,2,,,71,92
122208,note_on,,,,,0,0,6,,,,3,,,67,0
122208,note_on,,,,,288,0,6,,,,3,,,55,0
122208,note_on,,,,,288,0,16,,,,14,,,55,0
122208,note_on,,,,,288,0,14,,,,12,,,71,0
122304,note_on,,,,,384,0,13,,,,11,,,62,0
122304,note_on,,,,,0,0,13,,,,11,,,71,0
122304,note_on,,,,,384,0,12,,,,10,,,71,0
122376,note_on,,,,,456,0,8,,,,4,,,62,0
122400,note_on,,,,,192,0,14,,,,12,,,67,92
122400,note_on,,,,,0,0,1,,,,0,,,79,80
122400,note_on,,,,,192,0,6,,,,3,,,64,92
122400,note_on,,,,,192,0,16,,,,14,,,52,105
122400,note_on,,,,,0,0,4,,,,2,,,67,92
122400,note_on,,,,,480,0,4,,,,2,,,62,0
122400,note_on,,,,,480,0,3,,,,1,,,74,0
122400,note_on,,,,,0,0,3,,,,1,,,79,80
122400,note_on,,,,,0,0,6,,,,3,,,52,92
122400,note_on,,,,,24,0,8,,,,4,,,67,92
122400,note_on,,,,,480,0,1,,,,0,,,74,0
122688,note_on,,,,,288,0,6,,,,3,,,52,0
122688,note_on,,,,,288,0,16,,,,14,,,52,0
122688,note_on,,,,,288,0,14,,,,12,,,67,0
122688,note_on,,,,,0,0,6,,,,3,,,64,0
122880,note_on,,,,,576,0,13,,,,11,,,76,70
122880,note_on,,,,,192,0,16,,,,14,,,49,105
122880,note_on,,,,,0,0,13,,,,11,,,67,70
122880,note_on,,,,,576,0,12,,,,10,,,76,92
122880,note_on,,,,,0,0,9,,,,5,,,55,92
122880,note_on,,,,,192,0,6,,,,3,,,49,92
122880,note_on,,,,,0,0,6,,,,3,,,61,92
122880,note_on,,,,,1152,0,9,,,,5,,,64,92
122880,note_on,,,,,192,0,14,,,,12,,,64,92
123168,note_on,,,,,288,0,14,,,,12,,,64,0
123168,note_on,,,,,288,0,16,,,,14,,,49,0
123168,note_on,,,,,288,0,6,,,,3,,,61,0
123168,note_on,,,,,0,0,6,,,,3,,,49,0
123168,note_on,,,,,0,0,9,,,,5,,,64,0
123168,note_on,,,,,288,0,9,,,,5,,,55,0
123264,note_on,,,,,0,0,8,,,,4,,,59,0
123264,note_on,,,,,1344,0,15,,,,13,,,59,0
123264,note_on,,,,,384,0,13,,,,11,,,67,0
123264,note_on,,,,,0,0,13,,,,11,,,76,0
123264,note_on,,,,,864,0,8,,,,4,,,67,0
123264,note_on,,,,,384,0,12,,,,10,,,76,0
123360,note_on,,,,,0,0,8,,,,4,,,61,92
123360,note_on,,,,,0,0,6,,,,3,,,58,92
123360,note_on,,,,,192,0,14,,,,12,,,61,92
123360,note_on,,,,,0,0,4,,,,2,,,64,92
123360,note_on,,,,,0,0,4,,,,2,,,73,92
123360,note_on,,,,,0,0,4,,,,2,,,71,0
123360,note_on,,,,,960,0,4,,,,2,,,67,0
123360,note_on,,,,,96,0,15,,,,13,,,61,116
123360,note_on,,,,,96,0,8,,,,4,,,64,92
123360,note_on,,,,,192,0,6,,,,3,,,46,92
123360,note_on,,,,,960,0,1,,,,0,,,79,0
123360,note_on,,,,,0,0,1,,,,0,,,83,0
123360,note_on,,,,,0,0,1,,,,0,,,76,80
123360,note_on,,,,,192,0,16,,,,14,,,46,105
123360,note_on,,,,,960,0,3,,,,1,,,79,0
123360,note_on,,,,,0,0,3,,,,1,,,83,0
123360,note_on,,,,,0,0,3,,,,1,,,76,80
123360,note_on,,,,,0,0,3,,,,1,,,85,80
123360,note_on,,,,,0,0,1,,,,0,,,85,80
123648,note_on,,,,,288,0,16,,,,14,,,46,0
123648,note_on,,,,,288,0,6,,,,3,,,58,0
123648,note_on,,,,,288,0,14,,,,12,,,61,0
123648,note_on,,,,,0,0,6,,,,3,,,46,0
123840,note_on,,,,,0,0,4,,,,2,,,66,92
123840,note_on,,,,,0,0,4,,,,2,,,73,0
123840,note_on,,,,,0,0,6,,,,3,,,54,92
123840,note_on,,,,,192,0,6,,,,3,,,42,92
123840,note_on,,,,,0,0,13,,,,11,,,74,70
123840,note_on,,,,,576,0,13,,,,11,,,66,70
123840,note_on,,,,,192,0,16,,,,14,,,42,105
123840,note_on,,,,,480,0,4,,,,2,,,64,0
123840,note_on,,,,,0,0,4,,,,2,,,74,92
123840,note_on,,,,,0,0,9,,,,5,,,62,92
123840,note_on,,,,,0,0,8,,,,4,,,64,0
123840,note_on,,,,,0,0,3,,,,1,,,76,0
123840,note_on,,,,,0,0,8,,,,4,,,66,92
123840,note_on,,,,,0,0,8,,,,4,,,62,92
123840,note_on,,,,,0,0,15,,,,13,,,62,116
123840,note_on,,,,,480,0,15,,,,13,,,61,0
123840,note_on,,,,,480,0,8,,,,4,,,61,0
123840,note_on,,,,,0,0,3,,,,1,,,86,80
123840,note_on,,,,,480,0,1,,,,0,,,85,0
123840,note_on,,,,,0,0,1,,,,0,,,76,0
123840,note_on,,,,,0,0,1,,,,0,,,78,80
123840,note_on,,,,,0,0,1,,,,0,,,86,80
123840,note_on,,,,,672,0,9,,,,5,,,59,92
123840,note_on,,,,,576,0,12,,,,10,,,74,92
123840,note_on,,,,,480,0,3,,,,1,,,85,0
123840,note_on,,,,,192,0,14,,,,12,,,66,92
123840,note_on,,,,,0,0,3,,,,1,,,78,80
124128,note_on,,,,,288,0,16,,,,14,,,42,0
124128,note_on,,,,,0,0,9,,,,5,,,59,0
124128,note_on,,,,,288,0,9,,,,5,,,62,0
124128,note_on,,,,,288,0,14,,,,12,,,66,0
124128,note_on,,,,,288,0,6,,,,3,,,54,0
124128,note_on,,,,,0,0,6,,,,3,,,42,0
124224,note_on,,,,,384,0,12,,,,10,,,74,0
124224,note_on,,,,,0,0,13,,,,11,,,66,0
124224,note_on,,,,,384,0,13,,,,11,,,74,0
124320,note_on,,,,,0,0,3,,,,1,,,86,0
124320,note_on,,,,,0,0,3,,,,1,,,83,80
124320,program_change,,,,,96,0,12,,,48,10,,,,
124320,note_on,,,,,480,0,3,,,,1,,,78,0
124320,note_on,,,,,0,0,3,,,,1,,,77,80
124320,note_on,,,,,480,0,1,,,,0,,,86,0
124320,program_change,,,,,96,0,13,,,48,11,,,,
124320,note_on,,,,,0,0,1,,,,0,,,77,80
124320,note_on,,,,,0,0,1,,,,0,,,83,80
124320,note_on,,,,,0,0,1,,,,0,,,78,0
124320,note_on,,,,,0,0,15,,,,13,,,59,116
124320,note_on,,,,,480,0,15,,,,13,,,62,0
124320,note_on,,,,,0,0,8,,,,4,,,65,92
124320,note_on,,,,,0,0,8,,,,4,,,59,92
124320,note_on,,,,,0,0,8,,,,4,,,62,0
124320,note_on,,,,,480,0,8,,,,4,,,66,0
124320,note_on,,,,,0,0,4,,,,2,,,71,92
124320,note_on,,,,,0,0,4,,,,2,,,65,92
124320,note_on,,,,,192,0,14,,,,12,,,65,92
124320,note_on,,,,,480,0,4,,,,2,,,66,0
124320,note_on,,,,,0,0,4,,,,2,,,74,0
124608,note_on,,,,,288,0,14,,,,12,,,65,0
124776,note_on,,,,,0,0,1,,,,0,,,83,0
124776,note_on,,,,,456,0,4,,,,2,,,71,0
124776,note_on,,,,,0,0,4,,,,2,,,65,0
124776,note_on,,,,,456,0,3,,,,1,,,83,0
124776,note_on,,,,,456,0,1,,,,0,,,77,0
124776,note_on,,,,,0,0,3,,,,1,,,77,0
124800,note_on,,,,,192,0,14,,,,12,,,66,92
124800,note_on,,,,,0,0,15,,,,13,,,54,116
124800,note_on,,,,,0,0,8,,,,4,,,66,92
124800,note_on,,,,,480,0,12,,,,10,,,78,105
124800,note_on,,,,,480,0,8,,,,4,,,65,0
124800,note_on,,,,,0,0,8,,,,4,,,59,0
124800,note_on,,,,,480,0,15,,,,13,,,59,0
124800,note_on,,,,,480,0,13,,,,11,,,66,105
125088,note_on,,,,,288,0,8,,,,4,,,66,0
125088,note_on,,,,,288,0,14,,,,12,,,66,0
125088,note_on,,,,,288,0,15,,,,13,,,54,0
125520,note_on,,,,,744,0,1,,,,0,,,85,92
125520,note_on,,,,,432,0,15,,,,13,,,46,105
125520,note_on,,,,,744,0,3,,,,1,,,85,92
125520,note_on,,,,,0,0,3,,,,1,,,73,92
125520,note_on,,,,,1392,0,6,,,,3,,,46,92
125520,note_on,,,,,1392,0,16,,,,14,,,34,105
125520,note_on,,,,,432,0,14,,,,12,,,73,105
125520,note_on,,,,,744,0,4,,,,2,,,73,92
125664,note_on,,,,,144,0,3,,,,1,,,73,0
125664,note_on,,,,,144,0,14,,,,12,,,73,0
125664,note_on,,,,,0,0,3,,,,1,,,85,0
125664,note_on,,,,,144,0,15,,,,13,,,46,0
125664,note_on,,,,,144,0,4,,,,2,,,73,0
125664,note_on,,,,,144,0,1,,,,0,,,85,0
125664,note_on,,,,,144,0,16,,,,14,,,34,0
125664,note_on,,,,,144,0,6,,,,3,,,46,0
125760,note_on,,,,,1632,0,9,,,,5,,,61,92
125760,note_on,,,,,672,0,8,,,,4,,,66,92
125760,note_on,,,,,96,0,16,,,,14,,,34,105
125760,note_on,,,,,96,0,14,,,,12,,,73,105
125760,note_on,,,,,96,0,4,,,,2,,,73,92
125760,note_on,,,,,0,0,13,,,,11,,,76,105
125760,note_on,,,,,96,0,3,,,,1,,,73,92
125760,note_on,,,,,0,0,12,,,,10,,,88,105
125760,note_on,,,,,96,0,15,,,,13,,,46,105
125760,note_on,,,,,960,0,13,,,,11,,,66,0
125760,note_on,,,,,96,0,1,,,,0,,,85,92
125760,note_on,,,,,0,0,9,,,,5,,,64,92
125760,note_on,,,,,0,0,3,,,,1,,,85,92
125760,note_on,,,,,96,0,6,,,,3,,,46,92
125760,note_on,,,,,960,0,12,,,,10,,,78,0
126048,note_on,,,,,288,0,4,,,,2,,,73,0
126048,note_on,,,,,288,0,9,,,,5,,,64,0
126048,note_on,,,,,288,0,15,,,,13,,,46,0
126048,note_on,,,,,0,0,9,,,,5,,,61,0
126048,note_on,,,,,288,0,1,,,,0,,,85,0
126048,note_on,,,,,288,0,8,,,,4,,,66,0
126048,note_on,,,,,288,0,16,,,,14,,,34,0
126048,note_on,,,,,288,0,6,,,,3,,,46,0
126048,note_on,,,,,0,0,3,,,,1,,,73,0
126048,note_on,,,,,288,0,3,,,,1,,,85,0
126048,note_on,,,,,288,0,14,,,,12,,,73,0
126240,note_on,,,,,192,0,15,,,,13,,,42,105
126240,note_on,,,,,0,0,3,,,,1,,,82,92
126240,note_on,,,,,192,0,3,,,,1,,,73,92
126240,note_on,,,,,0,0,4,,,,2,,,73,92
126240,note_on,,,,,192,0,1,,,,0,,,82,92
126240,note_on,,,,,192,0,4,,,,2,,,70,92
126240,note_on,,,,,192,0,6,,,,3,,,42,92
126240,note_on,,,,,192,0,14,,,,12,,,70,105
126240,note_on,,,,,192,0,16,,,,14,,,30,105
126528,note_on,,,,,288,0,16,,,,14,,,30,0
126528,note_on,,,,,288,0,15,,,,13,,,42,0
126528,note_on,,,,,288,0,14,,,,12,,,70,0
126528,note_on,,,,,288,0,6,,,,3,,,42,0
126528,note_on,,,,,288,0,4,,,,2,,,73,0
126528,note_on,,,,,288,0,1,,,,0,,,82,0
126528,note_on,,,,,0,0,4,,,,2,,,70,0
126528,note_on,,,,,288,0,3,,,,1,,,82,0
126528,note_on,,,,,0,0,3,,,,1,,,73,0
126720,note_on,,,,,192,0,15,,,,13,,,50,105
126720,note_on,,,,,192,0,16,,,,14,,,38,105
126720,note_on,,,,,192,0,3,,,,1,,,70,92
126720,note_on,,,,,0,0,3,,,,1,,,78,92
126720,note_on,,,,,192,0,14,,,,12,,,66,105
126720,note_on,,,,,192,0,1,,,,0,,,78,92
126720,note_on,,,,,192,0,6,,,,3,,,50,92
126720,note_on,,,,,672,0,9,,,,5,,,58,92
126720,note_on,,,,,0,0,4,,,,2,,,73,92
126720,note_on,,,,,192,0,4,,,,2,,,70,92
126720,note_on,,,,,0,0,9,,,,5,,,61,92
126720,note_on,,,,,672,0,8,,,,4,,,66,92
127008,note_on,,,,,288,0,1,,,,0,,,78,0
127008,note_on,,,,,288,0,6,,,,3,,,50,0
127008,note_on,,,,,288,0,14,,,,12,,,66,0
127008,note_on,,,,,288,0,16,,,,14,,,38,0
127008,note_on,,,,,288,0,8,,,,4,,,66,0
127008,note_on,,,,,0,0,9,,,,5,,,58,0
127008,note_on,,,,,288,0,9,,,,5,,,61,0
127008,note_on,,,,,288,0,3,,,,1,,,78,0
127008,note_on,,,,,288,0,15,,,,13,,,50,0
127008,note_on,,,,,0,0,3,,,,1,,,70,0
127008,note_on,,,,,288,0,4,,,,2,,,73,0
127008,note_on,,,,,0,0,4,,,,2,,,70,0
127176,note_on,,,,,1416,0,12,,,,10,,,88,0
127176,note_on,,,,,1416,0,13,,,,11,,,76,0
127200,note_on,,,,,24,0,13,,,,11,,,78,105
127200,note_on,,,,,192,0,15,,,,13,,,47,105
127200,note_on,,,,,192,0,6,,,,3,,,47,92
127200,note_on,,,,,192,0,1,,,,0,,,74,92
127200,note_on,,,,,192,0,14,,,,12,,,62,105
127200,note_on,,,,,0,0,4,,,,2,,,74,92
127200,note_on,,,,,0,0,3,,,,1,,,74,92
127200,note_on,,,,,192,0,3,,,,1,,,71,92
127200,note_on,,,,,192,0,16,,,,14,,,35,105
127200,note_on,,,,,24,0,12,,,,10,,,90,105
127200,note_on,,,,,192,0,4,,,,2,,,71,92
127488,note_on,,,,,288,0,4,,,,2,,,74,0
127488,note_on,,,,,288,0,3,,,,1,,,74,0
127488,note_on,,,,,288,0,1,,,,0,,,74,0
127488,note_on,,,,,288,0,16,,,,14,,,35,0
127488,note_on,,,,,0,0,4,,,,2,,,71,0
127488,note_on,,,,,288,0,6,,,,3,,,47,0
127488,note_on,,,,,288,0,15,,,,13,,,47,0
127488,note_on,,,,,288,0,14,,,,12,,,62,0
127488,note_on,,,,,0,0,3,,,,1,,,71,0
127680,note_on,,,,,192,0,4,,,,2,,,67,92
127680,note_on,,,,,0,0,12,,,,10,,,88,105
127680,note_on,,,,,0,0,9,,,,5,,,67,92
127680,note_on,,,,,192,0,6,,,,3,,,54,92
127680,note_on,,,,,192,0,1,,,,0,,,71,92
127680,note_on,,,,,0,0,13,,,,11,,,76,105
127680,note_on,,,,,480,0,13,,,,11,,,78,0
127680,note_on,,,,,192,0,3,,,,1,,,67,92
127680,note_on,,,,,0,0,3,,,,1,,,71,92
127680,note_on,,,,,672,0,9,,,,5,,,55,92
127680,note_on,,,,,0,0,8,,,,4,,,62,92
127680,note_on,,,,,0,0,4,,,,2,,,71,92
127680,note_on,,,,,480,0,12,,,,10,,,90,0
127680,note_on,,,,,192,0,15,,,,13,,,55,105
127680,note_on,,,,,192,0,16,,,,14,,,43,105
127680,note_on,,,,,192,0,14,,,,12,,,59,105
127680,note_on,,,,,672,0,8,,,,4,,,59,92
127968,note_on,,,,,288,0,15,,,,13,,,55,0
127968,note_on,,,,,0,0,3,,,,1,,,67,0
127968,note_on,,,,,288,0,3,,,,1,,,71,0
127968,note_on,,,,,288,0,16,,,,14,,,43,0
127968,note_on,,,,,0,0,9,,,,5,,,55,0
127968,note_on,,,,,288,0,6,,,,3,,,54,0
127968,note_on,,,,,288,0,9,,,,5,,,67,0
127968,note_on,,,,,288,0,4,,,,2,,,71,0
127968,note_on,,,,,288,0,8,,,,4,,,62,0
127968,note_on,,,,,288,0,14,,,,12,,,59,0
127968,note_on,,,,,0,0,8,,,,4,,,59,0
127968,note_on,,,,,0,0,4,,,,2,,,67,0
127968,note_on,,,,,288,0,1,,,,0,,,71,0
128160,note_on,,,,,480,0,13,,,,11,,,76,0
128160,note_on,,,,,0,0,13,,,,11,,,74,105
128160,note_on,,,,,0,0,12,,,,10,,,86,105
128160,note_on,,,,,480,0,12,,,,10,,,88,0
128616,note_on,,,,,456,0,13,,,,11,,,74,0
128616,note_on,,,,,456,0,12,,,,10,,,86,0
128640,note_on,,,,,24,0,13,,,,11,,,81,105
128640,note_on,,,,,24,0,12,,,,10,,,93,105
129360,note_on,,,,,1392,0,15,,,,13,,,49,105
129360,note_on,,,,,1392,0,4,,,,2,,,76,92
129360,note_on,,,,,1392,0,1,,,,0,,,88,92
129360,note_on,,,,,1392,0,3,,,,1,,,76,92
129360,note_on,,,,,0,0,3,,,,1,,,88,92
129360,note_on,,,,,1392,0,16,,,,14,,,37,105
129360,note_on,,,,,1392,0,14,,,,12,,,76,105
129360,note_on,,,,,1392,0,6,,,,3,,,49,92
129504,note_on,,,,,144,0,1,,,,0,,,88,0
129504,note_on,,,,,144,0,15,,,,13,,,49,0
129504,note_on,,,,,144,0,3,,,,1,,,88,0
129504,note_on,,,,,0,0,3,,,,1,,,76,0
129504,note_on,,,,,144,0,16,,,,14,,,37,0
129504,note_on,,,,,144,0,14,,,,12,,,76,0
129504,note_on,,,,,144,0,6,,,,3,,,49,0
129504,note_on,,,,,144,0,4,,,,2,,,76,0
129552,note_on,,,,,912,0,13,,,,11,,,81,0
129552,note_on,,,,,912,0,12,,,,10,,,93,0
129600,note_on,,,,,96,0,3,,,,1,,,76,92
129600,note_on,,,,,96,0,1,,,,0,,,88,92
129600,note_on,,,,,96,0,15,,,,13,,,49,105
129600,note_on,,,,,96,0,16,,,,14,,,37,105
129600,note_on,,,,,48,0,13,,,,11,,,79,105
129600,note_on,,,,,1632,0,9,,,,5,,,57,92
129600,note_on,,,,,0,0,9,,,,5,,,67,92
129600,note_on,,,,,0,0,3,,,,1,,,88,92
129600,note_on,,,,,48,0,12,,,,10,,,91,105
129600,note_on,,,,,1632,0,8,,,,4,,,64,92
129600,note_on,,,,,96,0,14,,,,12,,,76,105
129600,note_on,,,,,96,0,4,,,,2,,,76,92
129600,note_on,,,,,96,0,6,,,,3,,,49,92
129888,note_on,,,,,288,0,3,,,,1,,,88,0
129888,note_on,,,,,288,0,1,,,,0,,,88,0
129888,note_on,,,,,288,0,15,,,,13,,,49,0
129888,note_on,,,,,288,0,14,,,,12,,,76,0
129888,note_on,,,,,288,0,8,,,,4,,,64,0
129888,note_on,,,,,288,0,6,,,,3,,,49,0
129888,note_on,,,,,288,0,9,,,,5,,,67,0
129888,note_on,,,,,0,0,9,,,,5,,,57,0
129888,note_on,,,,,288,0,16,,,,14,,,37,0
129888,note_on,,,,,0,0,3,,,,1,,,76,0
129888,note_on,,,,,288,0,4,,,,2,,,76,0
130080,note_on,,,,,192,0,15,,,,13,,,45,105
130080,note_on,,,,,192,0,6,,,,3,,,45,92
130080,note_on,,,,,192,0,16,,,,14,,,33,105
130080,note_on,,,,,192,0,4,,,,2,,,76,92
130080,note_on,,,,,192,0,14,,,,12,,,73,105
130080,note_on,,,,,0,0,3,,,,1,,,76,92
130080,note_on,,,,,192,0,1,,,,0,,,85,92
130080,note_on,,,,,0,0,4,,,,2,,,73,92
130080,note_on,,,,,192,0,3,,,,1,,,85,92
130368,note_on,,,,,288,0,1,,,,0,,,85,0
130368,note_on,,,,,288,0,14,,,,12,,,73,0
130368,note_on,,,,,0,0,3,,,,1,,,85,0
130368,note_on,,,,,288,0,3,,,,1,,,76,0
130368,note_on,,,,,288,0,16,,,,14,,,33,0
130368,note_on,,,,,288,0,15,,,,13,,,45,0
130368,note_on,,,,,0,0,4,,,,2,,,76,0
130368,note_on,,,,,288,0,6,,,,3,,,45,0
130368,note_on,,,,,288,0,4,,,,2,,,73,0
130560,note_on,,,,,192,0,1,,,,0,,,81,92
130560,note_on,,,,,192,0,16,,,,14,,,42,105
130560,note_on,,,,,192,0,3,,,,1,,,73,92
130560,note_on,,,,,192,0,4,,,,2,,,76,92
130560,note_on,,,,,0,0,3,,,,1,,,81,92
130560,note_on,,,,,0,0,4,,,,2,,,73,92
130560,note_on,,,,,192,0,6,,,,3,,,54,92
130560,note_on,,,,,672,0,8,,,,4,,,61,92
130560,note_on,,,,,672,0,9,,,,5,,,57,92
130560,note_on,,,,,0,0,9,,,,5,,,64,92
130560,note_on,,,,,192,0,14,,,,12,,,69,105
130560,note_on,,,,,192,0,15,,,,13,,,54,105
130848,note_on,,,,,0,0,9,,,,5,,,57,0
130848,note_on,,,,,288,0,15,,,,13,,,54,0
130848,note_on,,,,,0,0,4,,,,2,,,76,0
130848,note_on,,,,,288,0,4,,,,2,,,73,0
130848,note_on,,,,,288,0,16,,,,14,,,42,0
130848,note_on,,,,,288,0,9,,,,5,,,64,0
130848,note_on,,,,,288,0,1,,,,0,,,81,0
130848,note_on,,,,,288,0,14,,,,12,,,69,0
130848,note_on,,,,,288,0,3,,,,1,,,81,0
130848,note_on,,,,,0,0,3,,,,1,,,73,0
130848,note_on,,,,,288,0,8,,,,4,,,61,0
130848,note_on,,,,,288,0,6,,,,3,,,54,0
131016,note_on,,,,,1416,0,13,,,,11,,,79,0
131016,note_on,,,,,1416,0,12,,,,10,,,91,0
131040,note_on,,,,,192,0,3,,,,1,,,74,92
131040,note_on,,,,,24,0,13,,,,11,,,78,105
131040,note_on,,,,,0,0,3,,,,1,,,78,92
131040,note_on,,,,,192,0,14,,,,12,,,66,105
131040,note_on,,,,,192,0,6,,,,3,,,50,92
131040,note_on,,,,,24,0,12,,,,10,,,90,105
131040,note_on,,,,,0,0,4,,,,2,,,74,92
131040,note_on,,,,,192,0,1,,,,0,,,78,92
131040,note_on,,,,,192,0,16,,,,14,,,38,105
131040,note_on,,,,,192,0,4,,,,2,,,78,92
131040,note_on,,,,,192,0,15,,,,13,,,50,105
131328,note_on,,,,,288,0,15,,,,13,,,50,0
131328,note_on,,,,,0,0,3,,,,1,,,74,0
131328,note_on,,,,,288,0,3,,,,1,,,78,0
131328,note_on,,,,,288,0,14,,,,12,,,66,0
131328,note_on,,,,,288,0,16,,,,14,,,38,0
131328,note_on,,,,,288,0,4,,,,2,,,74,0
131328,note_on,,,,,0,0,4,,,,2,,,78,0
131328,note_on,,,,,288,0,6,,,,3,,,50,0
131328,note_on,,,,,288,0,1,,,,0,,,78,0
131520,note_on,,,,,192,0,3,,,,1,,,74,92
131520,note_on,,,,,192,0,6,,,,3,,,59,92
131520,note_on,,,,,672,0,8,,,,4,,,59,92
131520,note_on,,,,,0,0,3,,,,1,,,66,92
131520,note_on,,,,,0,0,9,,,,5,,,66,92
131520,note_on,,,,,672,0,9,,,,5,,,62,92
131520,note_on,,,,,192,0,14,,,,12,,,62,105
131520,note_on,,,,,192,0,16,,,,14,,,47,105
131520,note_on,,,,,192,0,4,,,,2,,,66,92
131520,note_on,,,,,480,0,13,,,,11,,,78,0
131520,note_on,,,,,0,0,12,,,,10,,,85,105
131520,note_on,,,,,192,0,15,,,,13,,,59,105
131520,note_on,,,,,480,0,12,,,,10,,,90,0
131520,note_on,,,,,0,0,4,,,,2,,,74,92
131520,note_on,,,,,0,0,13,,,,11,,,73,105
131520,note_on,,,,,192,0,1,,,,0,,,74,92
131808,note_on,,,,,288,0,8,,,,4,,,59,0
131808,note_on,,,,,288,0,16,,,,14,,,47,0
131808,note_on,,,,,0,0,9,,,,5,,,62,0
131808,note_on,,,,,288,0,6,,,,3,,,59,0
131808,note_on,,,,,288,0,14,,,,12,,,62,0
131808,note_on,,,,,0,0,3,,,,1,,,74,0
131808,note_on,,,,,288,0,3,,,,1,,,66,0
131808,note_on,,,,,288,0,1,,,,0,,,74,0
131808,note_on,,,,,288,0,15,,,,13,,,59,0
131808,note_on,,,,,288,0,4,,,,2,,,74,0
131808,note_on,,,,,0,0,4,,,,2,,,66,0
131808,note_on,,,,,288,0,9,,,,5,,,66,0
132000,note_on,,,,,0,0,13,,,,11,,,74,105
132000,note_on,,,,,480,0,13,,,,11,,,73,0
132000,note_on,,,,,0,0,12,,,,10,,,86,105
132000,note_on,,,,,480,0,12,,,,10,,,85,0
132456,note_on,,,,,456,0,13,,,,11,,,74,0
132456,note_on,,,,,456,0,12,,,,10,,,86,0
132480,note_on,,,,,24,0,13,,,,11,,,70,105
132480,note_on,,,,,24,0,12,,,,10,,,82,105
133200,note_on,,,,,1392,0,4,,,,2,,,83,92
133200,note_on,,,,,1392,0,14,,,,12,,,71,105
133200,note_on,,,,,1392,0,6,,,,3,,,43,92
133200,note_on,,,,,0,0,4,,,,2,,,74,92
133200,note_on,,,,,0,0,3,,,,1,,,74,92
133200,note_on,,,,,1392,0,16,,,,14,,,31,105
133200,note_on,,,,,1392,0,15,,,,13,,,43,105
133200,note_on,,,,,0,0,1,,,,0,,,83,92
133200,note_on,,,,,1392,0,1,,,,0,,,86,92
133200,note_on,,,,,1392,0,3,,,,1,,,83,92
133344,note_on,,,,,144,0,6,,,,3,,,43,0
133344,note_on,,,,,0,0,3,,,,1,,,83,0
133344,note_on,,,,,144,0,16,,,,14,,,31,0
133344,note_on,,,,,144,0,15,,,,13,,,43,0
133344,note_on,,,,,144,0,4,,,,2,,,74,0
133344,note_on,,,,,0,0,1,,,,0,,,86,0
133344,note_on,,,,,144,0,1,,,,0,,,83,0
133344,note_on,,,,,144,0,3,,,,1,,,74,0
133344,note_on,,,,,0,0,4,,,,2,,,83,0
133344,note_on,,,,,144,0,14,,,,12,,,71,0
133392,note_on,,,,,912,0,12,,,,10,,,82,0
133392,note_on,,,,,912,0,13,,,,11,,,70,0
133440,note_on,,,,,0,0,4,,,,2,,,83,92
133440,note_on,,,,,96,0,6,,,,3,,,43,92
133440,note_on,,,,,0,0,3,,,,1,,,74,92
133440,note_on,,,,,96,0,3,,,,1,,,83,92
133440,note_on,,,,,1632,0,8,,,,4,,,59,92
133440,note_on,,,,,96,0,4,,,,2,,,74,92
133440,note_on,,,,,96,0,16,,,,14,,,31,105
133440,note_on,,,,,96,0,14,,,,12,,,71,105
133440,note_on,,,,,1632,0,9,,,,5,,,62,92
133440,note_on,,,,,0,0,9,,,,5,,,55,92
133440,note_on,,,,,48,0,13,,,,11,,,71,105
133440,note_on,,,,,96,0,15,,,,13,,,43,105
133440,note_on,,,,,96,0,1,,,,0,,,86,92
133440,note_on,,,,,0,0,8,,,,4,,,55,92
133440,note_on,,,,,0,0,1,,,,0,,,83,92
133440,note_on,,,,,48,0,12,,,,10,,,83,105
133728,note_on,,,,,288,0,8,,,,4,,,55,0
133728,note_on,,,,,0,0,8,,,,4,,,59,0
133728,note_on,,,,,288,0,15,,,,13,,,43,0
133728,note_on,,,,,288,0,3,,,,1,,,74,0
133728,note_on,,,,,288,0,6,,,,3,,,43,0
133728,note_on,,,,,0,0,1,,,,0,,,86,0
133728,note_on,,,,,0,0,3,,,,1,,,83,0
133728,note_on,,,,,288,0,1,,,,0,,,83,0
133728,note_on,,,,,288,0,16,,,,14,,,31,0
133728,note_on,,,,,0,0,9,,,,5,,,62,0
133728,note_on,,,,,288,0,14,,,,12,,,71,0
133728,note_on,,,,,288,0,9,,,,5,,,55,0
133728,note_on,,,,,288,0,4,,,,2,,,83,0
133728,note_on,,,,,0,0,4,,,,2,,,74,0
133920,note_on,,,,,0,0,4,,,,2,,,79,92
133920,note_on,,,,,192,0,14,,,,12,,,67,105
133920,note_on,,,,,192,0,16,,,,14,,,28,105
133920,note_on,,,,,192,0,6,,,,3,,,40,92
133920,note_on,,,,,192,0,15,,,,13,,,40,105
133920,note_on,,,,,192,0,3,,,,1,,,79,92
133920,note_on,,,,,0,0,3,,,,1,,,76,92
133920,note_on,,,,,0,0,1,,,,0,,,91,92
133920,note_on,,,,,192,0,1,,,,0,,,83,92
133920,note_on,,,,,192,0,4,,,,2,,,76,92
134208,note_on,,,,,0,0,4,,,,2,,,76,0
134208,note_on,,,,,0,0,1,,,,0,,,83,0
134208,note_on,,,,,288,0,1,,,,0,,,91,0
134208,note_on,,,,,288,0,4,,,,2,,,79,0
134208,note_on,,,,,288,0,14,,,,12,,,67,0
134208,note_on,,,,,0,0,3,,,,1,,,79,0
134208,note_on,,,,,288,0,3,,,,1,,,76,0
134208,note_on,,,,,288,0,16,,,,14,,,28,0
134208,note_on,,,,,288,0,6,,,,3,,,40,0
134208,note_on,,,,,288,0,15,,,,13,,,40,0
134400,note_on,,,,,192,0,14,,,,12,,,64,105
134400,note_on,,,,,0,0,9,,,,5,,,64,92
134400,note_on,,,,,192,0,3,,,,1,,,67,92
134400,note_on,,,,,192,0,6,,,,3,,,49,92
134400,note_on,,,,,192,0,1,,,,0,,,79,92
134400,note_on,,,,,0,0,1,,,,0,,,88,92
134400,note_on,,,,,672,0,9,,,,5,,,55,92
134400,note_on,,,,,192,0,4,,,,2,,,69,92
134400,note_on,,,,,0,0,3,,,,1,,,76,92
134400,note_on,,,,,192,0,15,,,,13,,,49,105
134400,note_on,,,,,672,0,8,,,,4,,,52,92
134400,note_on,,,,,0,0,8,,,,4,,,67,92
134400,note_on,,,,,0,0,4,,,,2,,,76,92
134400,note_on,,,,,192,0,16,,,,14,,,37,105
134688,note_on,,,,,288,0,15,,,,13,,,49,0
134688,note_on,,,,,288,0,3,,,,1,,,76,0
134688,note_on,,,,,288,0,4,,,,2,,,76,0
134688,note_on,,,,,0,0,4,,,,2,,,69,0
134688,note_on,,,,,0,0,3,,,,1,,,67,0
134688,note_on,,,,,0,0,9,,,,5,,,55,0
134688,note_on,,,,,0,0,8,,,,4,,,52,0
134688,note_on,,,,,288,0,1,,,,0,,,88,0
134688,note_on,,,,,288,0,9,,,,5,,,64,0
134688,note_on,,,,,0,0,1,,,,0,,,79,0
134688,note_on,,,,,288,0,14,,,,12,,,64,0
134688,note_on,,,,,288,0,6,,,,3,,,49,0
134688,note_on,,,,,288,0,16,,,,14,,,37,0
134688,note_on,,,,,288,0,8,,,,4,,,67,0
134856,note_on,,,,,1416,0,13,,,,11,,,71,0
134856,note_on,,,,,1416,0,12,,,,10,,,83,0
134880,note_on,,,,,0,0,3,,,,1,,,73,92
134880,note_on,,,,,192,0,3,,,,1,,,64,92
134880,note_on,,,,,24,0,12,,,,10,,,85,105
134880,note_on,,,,,192,0,14,,,,12,,,61,105
134880,note_on,,,,,192,0,15,,,,13,,,46,105
134880,note_on,,,,,192,0,6,,,,3,,,46,92
134880,note_on,,,,,192,0,16,,,,14,,,34,105
134880,note_on,,,,,192,0,4,,,,2,,,64,92
134880,note_on,,,,,192,0,1,,,,0,,,76,92
134880,note_on,,,,,24,0,13,,,,11,,,73,105
134880,note_on,,,,,0,0,4,,,,2,,,73,92
134880,note_on,,,,,0,0,1,,,,0,,,85,92
135168,note_on,,,,,288,0,16,,,,14,,,34,0
135168,note_on,,,,,0,0,3,,,,1,,,64,0
135168,note_on,,,,,0,0,4,,,,2,,,64,0
135168,note_on,,,,,288,0,4,,,,2,,,73,0
135168,note_on,,,,,288,0,1,,,,0,,,85,0
135168,note_on,,,,,288,0,6,,,,3,,,46,0
135168,note_on,,,,,288,0,15,,,,13,,,46,0
135168,note_on,,,,,0,0,1,,,,0,,,76,0
135168,note_on,,,,,288,0,14,,,,12,,,61,0
135168,note_on,,,,,288,0,3,,,,1,,,73,0
135360,note_on,,,,,480,0,13,,,,11,,,73,0
135360,note_on,,,,,0,0,13,,,,11,,,74,105
135360,note_on,,,,,672,0,9,,,,5,,,58,92
135360,note_on,,,,,192,0,14,,,,12,,,58,105
135360,note_on,,,,,0,0,4,,,,2,,,70,92
135360,note_on,,,,,192,0,6,,,,3,,,54,92
135360,note_on,,,,,192,0,4,,,,2,,,66,92
135360,note_on,,,,,0,0,1,,,,0,,,78,92
135360,note_on,,,,,192,0,1,,,,0,,,82,92
135360,note_on,,,,,192,0,3,,,,1,,,70,92
135360,note_on,,,,,0,0,3,,,,1,,,66,92
135360,note_on,,,,,192,0,16,,,,14,,,42,105
135360,note_on,,,,,0,0,12,,,,10,,,86,105
135360,note_on,,,,,0,0,9,,,,5,,,64,92
135360,note_on,,,,,672,0,8,,,,4,,,66,92
135360,note_on,,,,,0,0,8,,,,4,,,52,92
135360,note_on,,,,,480,0,12,,,,10,,,85,0
135360,note_on,,,,,192,0,15,,,,13,,,54,105
135648,note_on,,,,,288,0,15,,,,13,,,54,0
135648,note_on,,,,,288,0,6,,,,3,,,54,0
135648,note_on,,,,,288,0,14,,,,12,,,58,0
135648,note_on,,,,,288,0,3,,,,1,,,66,0
135648,note_on,,,,,0,0,3,,,,1,,,70,0
135648,note_on,,,,,288,0,16,,,,14,,,42,0
135648,note_on,,,,,288,0,4,,,,2,,,70,0
135648,note_on,,,,,0,0,1,,,,0,,,82,0
135648,note_on,,,,,288,0,1,,,,0,,,78,0
135648,note_on,,,,,0,0,8,,,,4,,,66,0
135648,note_on,,,,,0,0,4,,,,2,,,66,0
135648,note_on,,,,,0,0,9,,,,5,,,58,0
135648,note_on,,,,,288,0,9,,,,5,,,64,0
135648,note_on,,,,,288,0,8,,,,4,,,52,0
135840,note_on,,,,,480,0,12,,,,10,,,86,0
135840,note_on,,,,,0,0,12,,,,10,,,82,105
135840,note_on,,,,,480,0,13,,,,11,,,74,0
135840,note_on,,,,,0,0,13,,,,11,,,70,105
136296,note_on,,,,,456,0,13,,,,11,,,70,0
136296,note_on,,,,,456,0,12,,,,10,,,82,0
136320,note_on,,,,,24,0,12,,,,10,,,85,105
136320,note_on,,,,,672,0,8,,,,4,,,61,105
136320,note_on,,,,,24,0,13,,,,11,,,76,105
136320,note_on,,,,,0,0,8,,,,4,,,64,105
136320,note_on,,,,,0,0,14,,,,12,,,64,92
136320,note_on,,,,,672,0,14,,,,12,,,73,92
137040,note_on,,,,,0,0,1,,,,0,,,83,92
137040,note_on,,,,,1392,0,16,,,,14,,,31,105
137040,note_on,,,,,1392,0,3,,,,1,,,83,92
137040,note_on,,,,,0,0,3,,,,1,,,74,92
137040,note_on,,,,,1392,0,15,,,,13,,,43,105
137040,note_on,,,,,1392,0,1,,,,0,,,86,92
137040,note_on,,,,,0,0,4,,,,2,,,83,92
137040,note_on,,,,,1392,0,6,,,,3,,,43,92
137040,note_on,,,,,1392,0,4,,,,2,,,74,92
137184,note_on,,,,,144,0,6,,,,3,,,43,0
137184,note_on,,,,,144,0,3,,,,1,,,74,0
137184,note_on,,,,,144,0,16,,,,14,,,31,0
137184,note_on,,,,,0,0,3,,,,1,,,83,0
137184,note_on,,,,,144,0,15,,,,13,,,43,0
137184,note_on,,,,,0,0,1,,,,0,,,86,0
137184,note_on,,,,,144,0,1,,,,0,,,83,0
137184,note_on,,,,,0,0,4,,,,2,,,74,0
137184,note_on,,,,,144,0,4,,,,2,,,83,0
137232,note_on,,,,,912,0,8,,,,4,,,64,0
137232,note_on,,,,,912,0,12,,,,10,,,85,0
137232,note_on,,,,,912,0,13,,,,11,,,76,0
137232,note_on,,,,,912,0,14,,,,12,,,64,0
137232,note_on,,,,,0,0,14,,,,12,,,73,0
137232,note_on,,,,,0,0,8,,,,4,,,61,0
137280,note_on,,,,,48,0,8,,,,4,,,59,105
137280,note_on,,,,,0,0,8,,,,4,,,62,105
137280,note_on,,,,,48,0,13,,,,11,,,74,105
137280,note_on,,,,,96,0,16,,,,14,,,31,105
137280,note_on,,,,,48,0,14,,,,12,,,71,92
137280,note_on,,,,,0,0,4,,,,2,,,83,92
137280,note_on,,,,,96,0,1,,,,0,,,83,92
137280,note_on,,,,,0,0,1,,,,0,,,86,92
137280,note_on,,,,,0,0,14,,,,12,,,62,92
137280,note_on,,,,,1632,0,9,,,,5,,,59,92
137280,note_on,,,,,96,0,6,,,,3,,,43,92
137280,note_on,,,,,96,0,15,,,,13,,,43,105
137280,note_on,,,,,0,0,9,,,,5,,,62,92
137280,note_on,,,,,96,0,4,,,,2,,,74,92
137280,note_on,,,,,48,0,12,,,,10,,,83,105
137280,note_on,,,,,96,0,3,,,,1,,,83,92
137280,note_on,,,,,0,0,3,,,,1,,,74,92
137568,note_on,,,,,288,0,9,,,,5,,,62,0
137568,note_on,,,,,288,0,6,,,,3,,,43,0
137568,note_on,,,,,288,0,16,,,,14,,,31,0
137568,note_on,,,,,0,0,1,,,,0,,,83,0
137568,note_on,,,,,0,0,9,,,,5,,,59,0
137568,note_on,,,,,288,0,1,,,,0,,,86,0
137568,note_on,,,,,0,0,4,,,,2,,,74,0
137568,note_on,,,,,288,0,15,,,,13,,,43,0
137568,note_on,,,,,288,0,3,,,,1,,,74,0
137568,note_on,,,,,0,0,3,,,,1,,,83,0
137568,note_on,,,,,288,0,4,,,,2,,,83,0
137760,note_on,,,,,192,0,16,,,,14,,,28,105
137760,note_on,,,,,0,0,3,,,,1,,,76,92
137760,note_on,,,,,192,0,3,,,,1,,,79,92
137760,note_on,,,,,0,0,1,,,,0,,,91,92
137760,note_on,,,,,0,0,4,,,,2,,,79,92
137760,note_on,,,,,192,0,15,,,,13,,,40,105
137760,note_on,,,,,192,0,4,,,,2,,,76,92
137760,note_on,,,,,192,0,6,,,,3,,,40,92
137760,note_on,,,,,192,0,1,,,,0,,,83,92
138048,note_on,,,,,288,0,3,,,,1,,,76,0
138048,note_on,,,,,288,0,15,,,,13,,,40,0
138048,note_on,,,,,288,0,1,,,,0,,,91,0
138048,note_on,,,,,288,0,16,,,,14,,,28,0
138048,note_on,,,,,0,0,4,,,,2,,,76,0
138048,note_on,,,,,288,0,4,,,,2,,,79,0
138048,note_on,,,,,0,0,3,,,,1,,,79,0
138048,note_on,,,,,288,0,6,,,,3,,,40,0
138048,note_on,,,,,0,0,1,,,,0,,,83,0
138192,note_on,,,,,912,0,13,,,,11,,,74,0
138192,note_on,,,,,912,0,14,,,,12,,,62,0
138192,note_on,,,,,0,0,14,,,,12,,,71,0
138240,note_on,,,,,0,0,1,,,,0,,,88,92
138240,note_on,,,,,192,0,1,,,,0,,,79,92
138240,note_on,,,,,192,0,4,,,,2,,,67,92
138240,note_on,,,,,0,0,4,,,,2,,,76,92
138240,note_on,,,,,192,0,15,,,,13,,,49,105
138240,note_on,,,,,192,0,6,,,,3,,,49,92
138240,note_on,,,,,0,0,9,,,,5,,,55,92
138240,note_on,,,,,672,0,9,,,,5,,,64,92
138240,note_on,,,,,192,0,3,,,,1,,,76,92
138240,note_on,,,,,0,0,3,,,,1,,,67,92
138240,note_on,,,,,0,0,14,,,,12,,,67,92
138240,note_on,,,,,192,0,16,,,,14,,,37,105
138240,note_on,,,,,48,0,14,,,,12,,,64,92
138240,note_on,,,,,48,0,13,,,,11,,,76,105
138240,note_on,,,,,0,0,8,,,,4,,,64,105
138240,note_on,,,,,960,0,8,,,,4,,,62,0
138528,note_on,,,,,288,0,9,,,,5,,,55,0
138528,note_on,,,,,288,0,16,,,,14,,,37,0
138528,note_on,,,,,288,0,4,,,,2,,,76,0
138528,note_on,,,,,0,0,9,,,,5,,,64,0
138528,note_on,,,,,0,0,4,,,,2,,,67,0
138528,note_on,,,,,288,0,15,,,,13,,,49,0
138528,note_on,,,,,0,0,3,,,,1,,,76,0
138528,note_on,,,,,288,0,3,,,,1,,,67,0
138528,note_on,,,,,288,0,6,,,,3,,,49,0
138528,note_on,,,,,0,0,1,,,,0,,,79,0
138528,note_on,,,,,288,0,1,,,,0,,,88,0
138696,note_on,,,,,1416,0,12,,,,10,,,83,0
138720,note_on,,,,,0,0,8,,,,4,,,64,105
138720,note_on,,,,,24,0,12,,,,10,,,88,105
138720,note_on,,,,,192,0,6,,,,3,,,46,92
138720,note_on,,,,,0,0,13,,,,11,,,79,105
138720,note_on,,,,,0,0,14,,,,12,,,64,0
138720,note_on,,,,,0,0,14,,,,12,,,67,92
138720,note_on,,,,,0,0,4,,,,2,,,64,92
138720,note_on,,,,,192,0,4,,,,2,,,73,92
138720,note_on,,,,,0,0,3,,,,1,,,73,92
138720,note_on,,,,,480,0,13,,,,11,,,76,0
138720,note_on,,,,,192,0,15,,,,13,,,46,105
138720,note_on,,,,,192,0,16,,,,14,,,34,105
138720,note_on,,,,,192,0,3,,,,1,,,64,92
138720,note_on,,,,,480,0,14,,,,12,,,67,0
138720,note_on,,,,,0,0,8,,,,4,,,67,105
138720,note_on,,,,,192,0,1,,,,0,,,85,92
138720,note_on,,,,,0,0,1,,,,0,,,76,92
138720,note_on,,,,,0,0,8,,,,4,,,59,0
138720,note_on,,,,,480,0,8,,,,4,,,64,0
138720,note_on,,,,,0,0,14,,,,12,,,76,92
139008,note_on,,,,,288,0,16,,,,14,,,34,0
139008,note_on,,,,,0,0,3,,,,1,,,64,0
139008,note_on,,,,,288,0,6,,,,3,,,46,0
139008,note_on,,,,,288,0,3,,,,1,,,73,0
139008,note_on,,,,,288,0,15,,,,13,,,46,0
139008,note_on,,,,,288,0,1,,,,0,,,76,0
139008,note_on,,,,,0,0,1,,,,0,,,85,0
139008,note_on,,,,,0,0,4,,,,2,,,73,0
139008,note_on,,,,,288,0,4,,,,2,,,64,0
139176,note_on,,,,,0,0,8,,,,4,,,67,0
139176,note_on,,,,,456,0,8,,,,4,,,64,0
139200,note_on,,,,,192,0,4,,,,2,,,66,92
139200,note_on,,,,,0,0,4,,,,2,,,70,92
139200,note_on,,,,,0,0,12,,,,10,,,86,105
139200,note_on,,,,,480,0,12,,,,10,,,88,0
139200,note_on,,,,,672,0,9,,,,5,,,58,92
139200,note_on,,,,,480,0,13,,,,11,,,79,0
139200,note_on,,,,,0,0,13,,,,11,,,78,105
139200,note_on,,,,,192,0,1,,,,0,,,78,92
139200,note_on,,,,,0,0,3,,,,1,,,70,92
139200,note_on,,,,,192,0,15,,,,13,,,54,105
139200,note_on,,,,,0,0,14,,,,12,,,74,92
139200,note_on,,,,,0,0,1,,,,0,,,82,92
139200,note_on,,,,,24,0,8,,,,4,,,62,105
139200,note_on,,,,,0,0,8,,,,4,,,66,105
139200,note_on,,,,,192,0,3,,,,1,,,66,92
139200,note_on,,,,,0,0,14,,,,12,,,66,92
139200,note_on,,,,,0,0,14,,,,12,,,67,0
139200,note_on,,,,,0,0,9,,,,5,,,64,92
139200,note_on,,,,,192,0,16,,,,14,,,42,105
139200,note_on,,,,,480,0,14,,,,12,,,76,0
139200,note_on,,,,,192,0,6,,,,3,,,54,92
139488,note_on,,,,,0,0,3,,,,1,,,66,0
139488,note_on,,,,,288,0,15,,,,13,,,54,0
139488,note_on,,,,,288,0,3,,,,1,,,70,0
139488,note_on,,,,,288,0,1,,,,0,,,82,0
139488,note_on,,,,,0,0,1,,,,0,,,78,0
139488,note_on,,,,,0,0,9,,,,5,,,58,0
139488,note_on,,,,,288,0,9,,,,5,,,64,0
139488,note_on,,,,,0,0,4,,,,2,,,66,0
139488,note_on,,,,,288,0,4,,,,2,,,70,0
139488,note_on,,,,,288,0,6,,,,3,,,54,0
139488,note_on,,,,,288,0,16,,,,14,,,42,0
139680,note_on,,,,,0,0,12,,,,10,,,82,105
139680,note_on,,,,,480,0,12,,,,10,,,86,0
139680,note_on,,,,,192,0,15,,,,13,,,50,105
139680,note_on,,,,,192,0,16,,,,14,,,38,105
139680,note_on,,,,,192,0,6,,,,3,,,50,92
139680,note_on,,,,,0,0,14,,,,12,,,66,0
139680,note_on,,,,,0,0,8,,,,4,,,62,0
139680,note_on,,,,,0,0,8,,,,4,,,61,105
139680,note_on,,,,,0,0,8,,,,4,,,64,105
139680,note_on,,,,,480,0,13,,,,11,,,78,0
139680,note_on,,,,,0,0,13,,,,11,,,76,105
139680,note_on,,,,,480,0,14,,,,12,,,74,0
139680,note_on,,,,,480,0,8,,,,4,,,66,0
139680,note_on,,,,,0,0,14,,,,12,,,62,92
139680,note_on,,,,,0,0,14,,,,12,,,73,92
139968,note_on,,,,,288,0,6,,,,3,,,50,0
139968,note_on,,,,,288,0,16,,,,14,,,38,0
139968,note_on,,,,,288,0,15,,,,13,,,50,0
140136,note_on,,,,,0,0,14,,,,12,,,62,0
140136,note_on,,,,,456,0,14,,,,12,,,73,0
140136,note_on,,,,,456,0,8,,,,4,,,64,0
140136,note_on,,,,,0,0,8,,,,4,,,61,0
140136,note_on,,,,,456,0,12,,,,10,,,82,0
140136,note_on,,,,,456,0,13,,,,11,,,76,0
140160,note_on,,,,,0,0,14,,,,12,,,71,80
140160,note_on,,,,,0,0,10,,,,6,,,55,92
140160,note_on,,,,,38016,0,10,,,,6,,,67,92
140160,note_on,,,,,672,0,9,,,,5,,,55,116
140160,note_on,,,,,24,0,8,,,,4,,,59,92
140160,note_on,,,,,0,0,8,,,,4,,,62,92
140160,note_on,,,,,24,0,13,,,,11,,,71,80
140160,note_on,,,,,0,0,13,,,,11,,,74,80
140160,note_on,,,,,672,0,4,,,,2,,,67,92
140160,note_on,,,,,0,0,4,,,,2,,,71,92
140160,note_on,,,,,0,0,1,,,,0,,,83,92
140160,set_tempo,,,,,38400,1,0,416667,,,,,,,
140160,note_on,,,,,192,0,16,,,,14,,,43,92
140160,note_on,,,,,24,0,12,,,,10,,,83,92
140160,note_on,,,,,24,0,14,,,,12,,,67,80
140160,note_on,,,,,192,0,15,,,,13,,,55,92
140160,note_on,,,,,0,0,3,,,,1,,,67,92
140160,note_on,,,,,672,0,1,,,,0,,,74,92
140160,note_on,,,,,672,0,3,,,,1,,,71,92
140160,note_on,,,,,192,0,6,,,,3,,,55,92
140736,note_on,,,,,576,0,3,,,,1,,,67,0
140736,note_on,,,,,0,0,3,,,,1,,,71,0
140736,note_on,,,,,576,0,4,,,,2,,,71,0
140736,note_on,,,,,0,0,4,,,,2,,,67,0
140736,note_on,,,,,576,0,9,,,,5,,,55,0
140736,note_on,,,,,576,0,6,,,,3,,,55,0
140880,note_on,,,,,144,0,4,,,,2,,,67,92
140880,note_on,,,,,144,0,9,,,,5,,,55,116
140880,note_on,,,,,144,0,6,,,,3,,,55,92
140880,note_on,,,,,144,0,3,,,,1,,,67,92
141000,note_on,,,,,0,0,6,,,,3,,,59,92
141000,note_on,,,,,120,0,4,,,,2,,,67,0
141000,note_on,,,,,0,0,3,,,,1,,,71,92
141000,note_on,,,,,120,0,6,,,,3,,,55,0
141000,note_on,,,,,120,0,3,,,,1,,,67,0
141000,note_on,,,,,120,0,9,,,,5,,,55,0
141000,note_on,,,,,0,0,9,,,,5,,,59,116
141000,note_on,,,,,0,0,4,,,,2,,,71,92
141120,note_on,,,,,0,0,9,,,,5,,,62,116
141120,note_on,,,,,0,0,4,,,,2,,,74,92
141120,note_on,,,,,120,0,3,,,,1,,,71,0
141120,note_on,,,,,120,0,9,,,,5,,,59,0
141120,note_on,,,,,120,0,6,,,,3,,,59,0
141120,note_on,,,,,0,0,6,,,,3,,,62,92
141120,note_on,,,,,0,0,3,,,,1,,,74,92
141120,note_on,,,,,120,0,4,,,,2,,,71,0
141296,note_on,,,,,176,0,9,,,,5,,,62,0
141296,note_on,,,,,176,0,6,,,,3,,,62,0
141296,note_on,,,,,176,0,4,,,,2,,,74,0
141296,note_on,,,,,176,0,3,,,,1,,,74,0
141312,note_on,,,,,0,0,8,,,,4,,,59,0
141312,note_on,,,,,1152,0,8,,,,4,,,62,0
141312,note_on,,,,,1152,0,1,,,,0,,,83,0
141312,note_on,,,,,0,0,1,,,,0,,,74,0
141440,note_on,,,,,144,0,9,,,,5,,,59,116
141440,note_on,,,,,144,0,6,,,,3,,,59,92
141440,note_on,,,,,144,0,3,,,,1,,,71,92
141440,note_on,,,,,144,0,4,,,,2,,,71,92
141456,note_on,,,,,0,0,10,,,,6,,,67,0
141456,note_on,,,,,0,0,14,,,,12,,,67,0
141456,note_on,,,,,1296,0,16,,,,14,,,43,0
141456,note_on,,,,,1296,0,15,,,,13,,,55,0
141456,note_on,,,,,0,0,13,,,,11,,,71,0
141456,note_on,,,,,1296,0,10,,,,6,,,55,0
141456,note_on,,,,,1296,0,14,,,,12,,,71,0
141456,note_on,,,,,1296,0,13,,,,11,,,74,0
141456,note_on,,,,,1296,0,12,,,,10,,,83,0
141600,note_on,,,,,288,0,8,,,,4,,,67,112
141600,note_on,,,,,0,0,8,,,,4,,,59,92
141600,note_on,,,,,144,0,16,,,,14,,,38,112
141600,note_on,,,,,0,0,10,,,,6,,,63,92
141600,note_on,,,,,144,0,10,,,,6,,,67,112
141600,note_on,,,,,144,0,15,,,,13,,,50,112
141600,note_on,,,,,288,0,1,,,,0,,,79,92
141600,note_on,,,,,0,0,1,,,,0,,,83,92
141600,note_on,,,,,0,0,13,,,,11,,,71,80
141600,note_on,,,,,144,0,13,,,,11,,,79,100
141600,note_on,,,,,144,0,14,,,,12,,,67,100
141600,note_on,,,,,0,0,14,,,,12,,,71,80
141600,note_on,,,,,144,0,12,,,,10,,,83,112
141616,note_on,,,,,176,0,3,,,,1,,,71,0
141616,note_on,,,,,176,0,6,,,,3,,,59,0
141616,note_on,,,,,176,0,9,,,,5,,,59,0
141616,note_on,,,,,176,0,4,,,,2,,,71,0
141760,note_on,,,,,144,0,4,,,,2,,,75,112
141760,note_on,,,,,144,0,3,,,,1,,,75,112
141760,note_on,,,,,144,0,9,,,,5,,,63,127
141760,note_on,,,,,144,0,6,,,,3,,,63,112
141936,note_on,,,,,176,0,9,,,,5,,,63,0
141936,note_on,,,,,176,0,6,,,,3,,,63,0
141936,note_on,,,,,176,0,4,,,,2,,,75,0
141936,note_on,,,,,176,0,3,,,,1,,,75,0
142032,note_on,,,,,432,0,16,,,,14,,,38,0
142032,note_on,,,,,432,0,15,,,,13,,,50,0
142080,note_on,,,,,144,0,6,,,,3,,,62,92
142080,note_on,,,,,144,0,3,,,,1,,,74,92
142080,note_on,,,,,144,0,4,,,,2,,,74,92
142080,note_on,,,,,48,0,16,,,,14,,,43,92
142080,note_on,,,,,48,0,15,,,,13,,,55,92
142080,note_on,,,,,144,0,9,,,,5,,,62,116
142656,note_on,,,,,576,0,3,,,,1,,,74,0
142656,note_on,,,,,576,0,4,,,,2,,,74,0
142656,note_on,,,,,576,0,9,,,,5,,,62,0
142656,note_on,,,,,576,0,6,,,,3,,,62,0
142800,note_on,,,,,144,0,4,,,,2,,,67,92
142800,note_on,,,,,144,0,6,,,,3,,,55,92
142800,note_on,,,,,144,0,9,,,,5,,,55,116
142800,note_on,,,,,144,0,3,,,,1,,,67,92
142920,note_on,,,,,0,0,4,,,,2,,,71,92
142920,note_on,,,,,120,0,4,,,,2,,,67,0
142920,note_on,,,,,0,0,6,,,,3,,,59,92
142920,note_on,,,,,120,0,6,,,,3,,,55,0
142920,note_on,,,,,120,0,3,,,,1,,,67,0
142920,note_on,,,,,0,0,3,,,,1,,,71,92
142920,note_on,,,,,0,0,9,,,,5,,,59,116
142920,note_on,,,,,120,0,9,,,,5,,,55,0
143040,note_on,,,,,120,0,6,,,,3,,,59,0
143040,note_on,,,,,120,0,9,,,,5,,,59,0
143040,note_on,,,,,0,0,3,,,,1,,,74,92
143040,note_on,,,,,0,0,6,,,,3,,,62,92
143040,note_on,,,,,120,0,3,,,,1,,,71,0
143040,note_on,,,,,120,0,4,,,,2,,,71,0
143040,note_on,,,,,0,0,9,,,,5,,,62,116
143040,note_on,,,,,0,0,4,,,,2,,,74,92
143216,note_on,,,,,176,0,3,,,,1,,,74,0
143216,note_on,,,,,176,0,4,,,,2,,,74,0
143216,note_on,,,,,176,0,6,,,,3,,,62,0
143216,note_on,,,,,176,0,9,,,,5,,,62,0
143232,note_on,,,,,0,0,1,,,,0,,,79,0
143232,note_on,,,,,1632,0,1,,,,0,,,83,0
143232,note_on,,,,,1632,0,8,,,,4,,,59,0
143232,note_on,,,,,0,0,8,,,,4,,,67,0
143360,note_on,,,,,144,0,6,,,,3,,,59,92
143360,note_on,,,,,144,0,9,,,,5,,,59,116
143360,note_on,,,,,144,0,3,,,,1,,,71,92
143360,note_on,,,,,144,0,4,,,,2,,,71,92
143376,note_on,,,,,0,0,10,,,,6,,,67,0
143376,note_on,,,,,0,0,13,,,,11,,,79,0
143376,note_on,,,,,1296,0,15,,,,13,,,55,0
143376,note_on,,,,,0,0,14,,,,12,,,67,0
143376,note_on,,,,,1776,0,14,,,,12,,,71,0
143376,note_on,,,,,1776,0,12,,,,10,,,83,0
143376,note_on,,,,,1776,0,10,,,,6,,,63,0
143376,note_on,,,,,1776,0,13,,,,11,,,71,0
143376,note_on,,,,,1296,0,16,,,,14,,,43,0
143520,note_on,,,,,144,0,16,,,,14,,,38,112
143520,note_on,,,,,144,0,13,,,,11,,,71,80
143520,note_on,,,,,0,0,13,,,,11,,,79,100
143520,note_on,,,,,144,0,12,,,,10,,,83,112
143520,note_on,,,,,0,0,8,,,,4,,,67,112
143520,note_on,,,,,0,0,10,,,,6,,,63,92
143520,note_on,,,,,144,0,10,,,,6,,,67,112
143520,note_on,,,,,288,0,8,,,,4,,,59,92
143520,note_on,,,,,0,0,14,,,,12,,,67,100
143520,note_on,,,,,0,0,1,,,,0,,,79,92
143520,note_on,,,,,144,0,14,,,,12,,,71,80
143520,note_on,,,,,144,0,15,,,,13,,,50,112
143520,note_on,,,,,288,0,1,,,,0,,,83,92
143536,note_on,,,,,176,0,3,,,,1,,,71,0
143536,note_on,,,,,176,0,6,,,,3,,,59,0
143536,note_on,,,,,176,0,4,,,,2,,,71,0
143536,note_on,,,,,176,0,9,,,,5,,,59,0
143680,note_on,,,,,144,0,9,,,,5,,,63,127
143680,note_on,,,,,144,0,4,,,,2,,,75,112
143680,note_on,,,,,144,0,6,,,,3,,,63,112
143680,note_on,,,,,144,0,3,,,,1,,,75,112
143856,note_on,,,,,176,0,3,,,,1,,,75,0
143856,note_on,,,,,176,0,6,,,,3,,,63,0
143856,note_on,,,,,176,0,4,,,,2,,,75,0
143856,note_on,,,,,176,0,9,,,,5,,,63,0
143952,note_on,,,,,432,0,15,,,,13,,,50,0
143952,note_on,,,,,432,0,16,,,,14,,,38,0
144000,note_on,,,,,48,0,16,,,,14,,,43,92
144000,note_on,,,,,144,0,4,,,,2,,,74,92
144000,note_on,,,,,144,0,6,,,,3,,,62,92
144000,note_on,,,,,144,0,9,,,,5,,,62,116
144000,note_on,,,,,48,0,15,,,,13,,,55,92
144000,note_on,,,,,144,0,3,,,,1,,,74,92
144176,note_on,,,,,176,0,3,,,,1,,,74,0
144176,note_on,,,,,176,0,9,,,,5,,,62,0
144176,note_on,,,,,176,0,6,,,,3,,,62,0
144176,note_on,,,,,176,0,4,,,,2,,,74,0
144320,note_on,,,,,144,0,9,,,,5,,,59,116
144320,note_on,,,,,144,0,6,,,,3,,,59,92
144320,note_on,,,,,144,0,3,,,,1,,,71,92
144320,note_on,,,,,144,0,4,,,,2,,,71,92
144360,note_on,,,,,360,0,15,,,,13,,,55,0
144360,note_on,,,,,360,0,16,,,,14,,,43,0
144384,note_on,,,,,0,0,1,,,,0,,,83,0
144384,note_on,,,,,864,0,1,,,,0,,,79,0
144384,note_on,,,,,864,0,8,,,,4,,,67,0
144384,note_on,,,,,0,0,8,,,,4,,,59,0
144432,note_on,,,,,912,0,13,,,,11,,,79,0
144432,note_on,,,,,0,0,10,,,,6,,,67,0
144432,note_on,,,,,912,0,12,,,,10,,,83,0
144432,note_on,,,,,0,0,14,,,,12,,,71,0
144432,note_on,,,,,912,0,14,,,,12,,,67,0
144432,note_on,,,,,0,0,13,,,,11,,,71,0
144432,note_on,,,,,912,0,10,,,,6,,,63,0
144480,note_on,,,,,0,0,10,,,,6,,,67,92
144480,note_on,,,,,48,0,10,,,,6,,,63,92
144480,note_on,,,,,120,0,15,,,,13,,,50,112
144480,note_on,,,,,0,0,1,,,,0,,,83,92
144480,note_on,,,,,96,0,1,,,,0,,,79,92
144480,note_on,,,,,48,0,14,,,,12,,,67,100
144480,note_on,,,,,48,0,13,,,,11,,,71,80
144480,note_on,,,,,0,0,13,,,,11,,,79,100
144480,note_on,,,,,96,0,8,,,,4,,,59,92
144480,note_on,,,,,48,0,12,,,,10,,,83,112
144480,note_on,,,,,0,0,8,,,,4,,,67,112
144480,note_on,,,,,0,0,14,,,,12,,,71,80
144480,note_on,,,,,120,0,16,,,,14,,,38,112
144496,note_on,,,,,176,0,3,,,,1,,,71,0
144496,note_on,,,,,176,0,4,,,,2,,,71,0
144496,note_on,,,,,176,0,6,,,,3,,,59,0
144496,note_on,,,,,176,0,9,,,,5,,,59,0
144640,note_on,,,,,144,0,4,,,,2,,,75,112
144640,note_on,,,,,144,0,6,,,,3,,,63,112
144640,note_on,,,,,144,0,9,,,,5,,,63,127
144640,note_on,,,,,144,0,3,,,,1,,,75,112
144816,note_on,,,,,176,0,6,,,,3,,,63,0
144816,note_on,,,,,176,0,4,,,,2,,,75,0
144816,note_on,,,,,176,0,3,,,,1,,,75,0
144816,note_on,,,,,176,0,9,,,,5,,,63,0
144840,note_on,,,,,360,0,16,,,,14,,,38,0
144840,note_on,,,,,360,0,15,,,,13,,,50,0
144960,note_on,,,,,144,0,6,,,,3,,,62,92
144960,note_on,,,,,120,0,16,,,,14,,,43,92
144960,note_on,,,,,120,0,15,,,,13,,,55,92
144960,note_on,,,,,144,0,3,,,,1,,,74,92
144960,note_on,,,,,144,0,4,,,,2,,,74,92
144960,note_on,,,,,144,0,9,,,,5,,,62,116
145136,note_on,,,,,176,0,9,,,,5,,,62,0
145136,note_on,,,,,176,0,6,,,,3,,,62,0
145136,note_on,,,,,176,0,3,,,,1,,,74,0
145136,note_on,,,,,176,0,4,,,,2,,,74,0
145248,note_on,,,,,0,0,8,,,,4,,,59,0
145248,note_on,,,,,0,0,1,,,,0,,,79,0
145248,note_on,,,,,768,0,8,,,,4,,,67,0
145248,note_on,,,,,768,0,1,,,,0,,,83,0
145280,note_on,,,,,144,0,9,,,,5,,,59,116
145280,note_on,,,,,144,0,6,,,,3,,,59,92
145280,note_on,,,,,144,0,4,,,,2,,,71,92
145280,note_on,,,,,144,0,3,,,,1,,,71,92
145320,note_on,,,,,360,0,16,,,,14,,,43,0
145320,note_on,,,,,360,0,15,,,,13,,,55,0
145344,note_on,,,,,0,0,10,,,,6,,,63,0
145344,note_on,,,,,864,0,10,,,,6,,,67,0
145344,note_on,,,,,864,0,13,,,,11,,,79,0
145344,note_on,,,,,864,0,12,,,,10,,,83,0
145344,note_on,,,,,0,0,13,,,,11,,,71,0
145344,note_on,,,,,864,0,14,,,,12,,,71,0
145344,note_on,,,,,0,0,14,,,,12,,,67,0
145440,note_on,,,,,192,0,1,,,,0,,,84,92
145440,note_on,,,,,0,0,8,,,,4,,,63,92
145440,note_on,,,,,192,0,8,,,,4,,,72,112
145440,note_on,,,,,0,0,1,,,,0,,,93,92
145440,note_on,,,,,96,0,14,,,,12,,,75,100
145440,note_on,,,,,96,0,13,,,,11,,,81,100
145440,note_on,,,,,96,0,12,,,,10,,,84,112
145440,note_on,,,,,120,0,16,,,,14,,,38,112
145440,note_on,,,,,120,0,15,,,,13,,,50,112
145456,note_on,,,,,176,0,9,,,,5,,,59,0
145456,note_on,,,,,176,0,4,,,,2,,,71,0
145456,note_on,,,,,176,0,6,,,,3,,,59,0
145456,note_on,,,,,176,0,3,,,,1,,,71,0
145800,note_on,,,,,360,0,15,,,,13,,,50,0
145800,note_on,,,,,360,0,14,,,,12,,,75,0
145800,note_on,,,,,360,0,13,,,,11,,,81,0
145800,note_on,,,,,360,0,16,,,,14,,,38,0
145824,note_on,,,,,384,0,8,,,,4,,,63,0
145824,note_on,,,,,0,0,8,,,,4,,,72,0
145824,note_on,,,,,384,0,1,,,,0,,,93,0
145824,note_on,,,,,0,0,1,,,,0,,,84,0
145848,note_on,,,,,408,0,12,,,,10,,,84,0
145920,set_tempo,,,,,5760,1,0,422535,,,,,,,
145920,note_on,,,,,120,0,16,,,,14,,,43,112
145920,note_on,,,,,120,0,14,,,,12,,,74,100
145920,note_on,,,,,120,0,13,,,,11,,,79,100
145920,note_on,,,,,96,0,8,,,,4,,,71,112
145920,note_on,,,,,0,0,1,,,,0,,,83,92
145920,note_on,,,,,96,0,1,,,,0,,,91,92
145920,note_on,,,,,120,0,15,,,,13,,,55,112
145920,note_on,,,,,0,0,8,,,,4,,,62,92
145920,note_on,,,,,72,0,12,,,,10,,,83,112
146280,note_on,,,,,0,0,8,,,,4,,,71,0
146280,note_on,,,,,360,0,16,,,,14,,,43,0
146280,note_on,,,,,360,0,14,,,,12,,,74,0
146280,note_on,,,,,360,0,8,,,,4,,,62,0
146280,note_on,,,,,360,0,13,,,,11,,,79,0
146280,note_on,,,,,360,0,15,,,,13,,,55,0
146304,note_on,,,,,384,0,1,,,,0,,,83,0
146304,note_on,,,,,0,0,1,,,,0,,,91,0
146328,note_on,,,,,408,0,12,,,,10,,,83,0
146400,note_on,,,,,96,0,1,,,,0,,,90,92
146400,note_on,,,,,0,0,1,,,,0,,,81,92
146400,note_on,,,,,120,0,16,,,,14,,,39,112
146400,note_on,,,,,72,0,12,,,,10,,,81,112
146400,note_on,,,,,0,0,8,,,,4,,,72,112
146400,note_on,,,,,120,0,8,,,,4,,,69,92
146400,note_on,,,,,120,0,14,,,,12,,,72,100
146400,note_on,,,,,120,0,15,,,,13,,,51,112
146400,note_on,,,,,120,0,13,,,,11,,,78,80
146760,note_on,,,,,360,0,13,,,,11,,,78,0
146760,note_on,,,,,0,0,8,,,,4,,,69,0
146760,note_on,,,,,360,0,16,,,,14,,,39,0
146760,note_on,,,,,360,0,15,,,,13,,,51,0
146760,note_on,,,,,360,0,14,,,,12,,,72,0
146760,note_on,,,,,360,0,8,,,,4,,,72,0
146784,note_on,,,,,0,0,1,,,,0,,,90,0
146784,note_on,,,,,384,0,1,,,,0,,,81,0
146808,note_on,,,,,408,0,12,,,,10,,,81,0
146880,note_on,,,,,120,0,16,,,,14,,,47,112
146880,note_on,,,,,0,0,8,,,,4,,,71,112
146880,note_on,,,,,120,0,8,,,,4,,,67,92
146880,note_on,,,,,120,0,14,,,,12,,,71,100
146880,note_on,,,,,0,0,1,,,,0,,,88,92
146880,note_on,,,,,96,0,1,,,,0,,,79,92
146880,note_on,,,,,0,0,13,,,,11,,,67,80
146880,note_on,,,,,120,0,13,,,,11,,,76,80
146880,note_on,,,,,72,0,12,,,,10,,,79,112
146880,note_on,,,,,120,0,15,,,,13,,,59,112
147240,note_on,,,,,360,0,13,,,,11,,,67,0
147240,note_on,,,,,360,0,16,,,,14,,,47,0
147240,note_on,,,,,360,0,15,,,,13,,,59,0
147240,note_on,,,,,0,0,8,,,,4,,,67,0
147240,note_on,,,,,0,0,13,,,,11,,,76,0
147240,note_on,,,,,360,0,8,,,,4,,,71,0
147240,note_on,,,,,360,0,14,,,,12,,,71,0
147264,note_on,,,,,384,0,1,,,,0,,,88,0
147264,note_on,,,,,0,0,1,,,,0,,,79,0
147288,note_on,,,,,408,0,12,,,,10,,,79,0
147360,note_on,,,,,0,0,13,,,,11,,,75,80
147360,note_on,,,,,120,0,8,,,,4,,,66,92
147360,note_on,,,,,0,0,8,,,,4,,,69,112
147360,note_on,,,,,0,0,1,,,,0,,,78,92
147360,note_on,,,,,96,0,1,,,,0,,,87,92
147360,note_on,,,,,72,0,12,,,,10,,,75,92
147360,note_on,,,,,120,0,13,,,,11,,,66,80
147360,note_on,,,,,120,0,15,,,,13,,,55,112
147360,note_on,,,,,120,0,14,,,,12,,,66,80
147360,note_on,,,,,0,0,14,,,,12,,,69,80
147360,note_on,,,,,120,0,16,,,,14,,,43,112
147720,note_on,,,,,360,0,15,,,,13,,,55,0
147720,note_on,,,,,0,0,14,,,,12,,,66,0
147720,note_on,,,,,0,0,13,,,,11,,,66,0
147720,note_on,,,,,360,0,13,,,,11,,,75,0
147720,note_on,,,,,360,0,14,,,,12,,,69,0
147720,note_on,,,,,0,0,8,,,,4,,,66,0
147720,note_on,,,,,360,0,8,,,,4,,,69,0
147720,note_on,,,,,360,0,16,,,,14,,,43,0
147744,note_on,,,,,0,0,1,,,,0,,,87,0
147744,note_on,,,,,384,0,1,,,,0,,,78,0
147768,note_on,,,,,408,0,12,,,,10,,,75,0
147840,note_on,,,,,2384,0,6,,,,3,,,60,92
147840,note_on,,,,,120,0,8,,,,4,,,67,92
147840,note_on,,,,,120,0,16,,,,14,,,48,92
147840,set_tempo,,,,,1920,1,0,416667,,,,,,,
147840,note_on,,,,,0,0,8,,,,4,,,64,92
147840,note_on,,,,,0,0,6,,,,3,,,48,92
147840,note_on,,,,,2384,0,4,,,,2,,,72,92
147840,note_on,,,,,120,0,14,,,,12,,,67,80
147840,note_on,,,,,0,0,4,,,,2,,,60,92
147840,note_on,,,,,0,0,13,,,,11,,,67,80
147840,note_on,,,,,2384,0,3,,,,1,,,72,92
147840,note_on,,,,,0,0,12,,,,10,,,76,92
147840,note_on,,,,,72,0,12,,,,10,,,72,92
147840,note_on,,,,,0,0,14,,,,12,,,64,80
147840,note_on,,,,,120,0,15,,,,13,,,60,92
147840,note_on,,,,,2384,0,9,,,,5,,,60,105
147840,note_on,,,,,120,0,13,,,,11,,,76,80
147840,note_on,,,,,96,0,1,,,,0,,,88,92
147840,note_on,,,,,0,0,10,,,,6,,,76,92
147840,note_on,,,,,2496,0,10,,,,6,,,64,92
147840,note_on,,,,,0,0,1,,,,0,,,79,92
148416,note_on,,,,,576,0,9,,,,5,,,60,0
148416,note_on,,,,,576,0,3,,,,1,,,72,0
148416,note_on,,,,,576,0,4,,,,2,,,60,0
148416,note_on,,,,,0,0,4,,,,2,,,72,0
148416,note_on,,,,,0,0,6,,,,3,,,60,0
148416,note_on,,,,,576,0,6,,,,3,,,48,0
148560,note_on,,,,,144,0,4,,,,2,,,60,92
148560,note_on,,,,,144,0,6,,,,3,,,60,92
148560,note_on,,,,,144,0,9,,,,5,,,60,105
148560,note_on,,,,,144,0,3,,,,1,,,72,92
148560,note_on,,,,,0,0,4,,,,2,,,72,92
148560,note_on,,,,,0,0,6,,,,3,,,48,92
148680,note_on,,,,,120,0,6,,,,3,,,48,0
148680,note_on,,,,,120,0,9,,,,5,,,60,0
148680,note_on,,,,,0,0,9,,,,5,,,64,105
148680,note_on,,,,,120,0,3,,,,1,,,72,0
148680,note_on,,,,,0,0,3,,,,1,,,76,92
148680,note_on,,,,,120,0,4,,,,2,,,72,0
148680,note_on,,,,,0,0,6,,,,3,,,60,0
148680,note_on,,,,,0,0,6,,,,3,,,64,92
148680,note_on,,,,,0,0,6,,,,3,,,52,92
148680,note_on,,,,,0,0,4,,,,2,,,60,0
148680,note_on,,,,,0,0,4,,,,2,,,76,92
148680,note_on,,,,,0,0,4,,,,2,,,64,92
148800,note_on,,,,,0,0,6,,,,3,,,55,92
148800,note_on,,,,,0,0,4,,,,2,,,79,92
148800,note_on,,,,,0,0,4,,,,2,,,67,92
148800,note_on,,,,,0,0,4,,,,2,,,76,0
148800,note_on,,,,,120,0,9,,,,5,,,64,0
148800,note_on,,,,,120,0,4,,,,2,,,64,0
148800,note_on,,,,,120,0,3,,,,1,,,76,0
148800,note_on,,,,,0,0,3,,,,1,,,79,92
148800,note_on,,,,,0,0,9,,,,5,,,67,105
148800,note_on,,,,,120,0,6,,,,3,,,52,0
148800,note_on,,,,,0,0,6,,,,3,,,67,92
148800,note_on,,,,,0,0,6,,,,3,,,64,0
148976,note_on,,,,,0,0,4,,,,2,,,67,0
148976,note_on,,,,,176,0,3,,,,1,,,79,0
148976,note_on,,,,,176,0,9,,,,5,,,67,0
148976,note_on,,,,,176,0,4,,,,2,,,79,0
148976,note_on,,,,,176,0,6,,,,3,,,67,0
148976,note_on,,,,,0,0,6,,,,3,,,55,0
148992,note_on,,,,,1152,0,8,,,,4,,,64,0
148992,note_on,,,,,1152,0,15,,,,13,,,60,0
148992,note_on,,,,,0,0,8,,,,4,,,67,0
148992,note_on,,,,,0,0,10,,,,6,,,64,0
148992,note_on,,,,,1152,0,10,,,,6,,,76,0
148992,note_on,,,,,1152,0,16,,,,14,,,48,0
148992,note_on,,,,,1152,0,1,,,,0,,,79,0
148992,note_on,,,,,0,0,1,,,,0,,,88,0
149120,note_on,,,,,0,0,4,,,,2,,,64,92
149120,note_on,,,,,144,0,4,,,,2,,,76,92
149120,note_on,,,,,144,0,3,,,,1,,,76,92
149120,note_on,,,,,144,0,9,,,,5,,,64,105
149120,note_on,,,,,144,0,6,,,,3,,,52,92
149120,note_on,,,,,0,0,6,,,,3,,,64,92
149136,note_on,,,,,0,0,13,,,,11,,,76,0
149136,note_on,,,,,0,0,14,,,,12,,,67,0
149136,note_on,,,,,0,0,12,,,,10,,,72,0
149136,note_on,,,,,1296,0,12,,,,10,,,76,0
149136,note_on,,,,,1296,0,14,,,,12,,,64,0
149136,note_on,,,,,1296,0,13,,,,11,,,67,0
149280,note_on,,,,,288,0,1,,,,0,,,88,92
149280,note_on,,,,,144,0,14,,,,12,,,64,100
149280,note_on,,,,,0,0,10,,,,6,,,64,92
149280,note_on,,,,,288,0,10,,,,6,,,76,112
149280,note_on,,,,,144,0,12,,,,10,,,76,112
149280,note_on,,,,,144,0,13,,,,11,,,72,100
149280,note_on,,,,,0,0,13,,,,11,,,64,80
149280,note_on,,,,,0,0,1,,,,0,,,84,92
149280,note_on,,,,,0,0,14,,,,12,,,72,80
149280,note_on,,,,,288,0,15,,,,13,,,55,112
149280,note_on,,,,,0,0,12,,,,10,,,72,92
149280,note_on,,,,,288,0,8,,,,4,,,64,112
149280,note_on,,,,,288,0,16,,,,14,,,43,112
149296,note_on,,,,,176,0,4,,,,2,,,64,0
149296,note_on,,,,,0,0,4,,,,2,,,76,0
149296,note_on,,,,,0,0,6,,,,3,,,52,0
149296,note_on,,,,,176,0,6,,,,3,,,64,0
149296,note_on,,,,,176,0,3,,,,1,,,76,0
149296,note_on,,,,,176,0,9,,,,5,,,64,0
149440,note_on,,,,,144,0,3,,,,1,,,80,112
149440,note_on,,,,,0,0,4,,,,2,,,80,112
149440,note_on,,,,,144,0,4,,,,2,,,68,92
149440,note_on,,,,,144,0,9,,,,5,,,68,125
149440,note_on,,,,,144,0,6,,,,3,,,68,112
149440,note_on,,,,,0,0,6,,,,3,,,56,92
149616,note_on,,,,,176,0,6,,,,3,,,56,0
149616,note_on,,,,,0,0,6,,,,3,,,68,0
149616,note_on,,,,,176,0,9,,,,5,,,68,0
149616,note_on,,,,,176,0,3,,,,1,,,80,0
149616,note_on,,,,,176,0,4,,,,2,,,80,0
149616,note_on,,,,,0,0,4,,,,2,,,68,0
149664,note_on,,,,,384,0,15,,,,13,,,55,0
149664,note_on,,,,,384,0,16,,,,14,,,43,0
149760,note_on,,,,,0,0,4,,,,2,,,67,92
149760,note_on,,,,,144,0,4,,,,2,,,79,92
149760,note_on,,,,,96,0,16,,,,14,,,48,92
149760,note_on,,,,,96,0,15,,,,13,,,60,92
149760,note_on,,,,,144,0,9,,,,5,,,67,105
149760,note_on,,,,,0,0,6,,,,3,,,55,92
149760,note_on,,,,,144,0,3,,,,1,,,79,92
149760,note_on,,,,,144,0,6,,,,3,,,67,92
150336,note_on,,,,,0,0,4,,,,2,,,79,0
150336,note_on,,,,,576,0,9,,,,5,,,67,0
150336,note_on,,,,,576,0,3,,,,1,,,79,0
150336,note_on,,,,,576,0,6,,,,3,,,55,0
150336,note_on,,,,,0,0,6,,,,3,,,67,0
150336,note_on,,,,,576,0,4,,,,2,,,67,0
150480,note_on,,,,,144,0,6,,,,3,,,60,92
150480,note_on,,,,,0,0,6,,,,3,,,48,92
150480,note_on,,,,,144,0,3,,,,1,,,72,92
150480,note_on,,,,,144,0,9,,,,5,,,60,105
150480,note_on,,,,,144,0,4,,,,2,,,60,92
150480,note_on,,,,,0,0,4,,,,2,,,72,92
150600,note_on,,,,,0,0,4,,,,2,,,64,92
150600,note_on,,,,,0,0,9,,,,5,,,64,105
150600,note_on,,,,,120,0,9,,,,5,,,60,0
150600,note_on,,,,,0,0,4,,,,2,,,76,92
150600,note_on,,,,,0,0,4,,,,2,,,60,0
150600,note_on,,,,,0,0,6,,,,3,,,60,0
150600,note_on,,,,,120,0,6,,,,3,,,48,0
150600,note_on,,,,,0,0,6,,,,3,,,64,92
150600,note_on,,,,,120,0,4,,,,2,,,72,0
150600,note_on,,,,,120,0,3,,,,1,,,72,0
150600,note_on,,,,,0,0,3,,,,1,,,76,92
150600,note_on,,,,,0,0,6,,,,3,,,52,92
150720,note_on,,,,,0,0,4,,,,2,,,79,92
150720,note_on,,,,,120,0,9,,,,5,,,64,0
150720,note_on,,,,,0,0,9,,,,5,,,67,105
150720,note_on,,,,,120,0,4,,,,2,,,76,0
150720,note_on,,,,,0,0,4,,,,2,,,64,0
150720,note_on,,,,,0,0,4,,,,2,,,67,92
150720,note_on,,,,,0,0,6,,,,3,,,67,92
150720,note_on,,,,,0,0,6,,,,3,,,55,92
150720,note_on,,,,,0,0,3,,,,1,,,79,92
150720,note_on,,,,,120,0,3,,,,1,,,76,0
150720,note_on,,,,,0,0,6,,,,3,,,52,0
150720,note_on,,,,,120,0,6,,,,3,,,64,0
150896,note_on,,,,,176,0,3,,,,1,,,79,0
150896,note_on,,,,,176,0,9,,,,5,,,67,0
150896,note_on,,,,,0,0,4,,,,2,,,67,0
150896,note_on,,,,,176,0,6,,,,3,,,67,0
150896,note_on,,,,,0,0,6,,,,3,,,55,0
150896,note_on,,,,,176,0,4,,,,2,,,79,0
150912,note_on,,,,,1632,0,8,,,,4,,,64,0
150912,note_on,,,,,1632,0,1,,,,0,,,84,0
150912,note_on,,,,,0,0,1,,,,0,,,88,0
150912,note_on,,,,,1152,0,15,,,,13,,,60,0
150912,note_on,,,,,1152,0,16,,,,14,,,48,0
150912,note_on,,,,,1632,0,10,,,,6,,,64,0
150912,note_on,,,,,0,0,10,,,,6,,,76,0
151040,note_on,,,,,144,0,9,,,,5,,,64,105
151040,note_on,,,,,144,0,4,,,,2,,,76,92
151040,note_on,,,,,144,0,3,,,,1,,,76,92
151040,note_on,,,,,0,0,4,,,,2,,,64,92
151040,note_on,,,,,0,0,6,,,,3,,,64,92
151040,note_on,,,,,144,0,6,,,,3,,,52,92
151056,note_on,,,,,1776,0,12,,,,10,,,72,0
151056,note_on,,,,,1776,0,14,,,,12,,,72,0
151056,note_on,,,,,0,0,14,,,,12,,,64,0
151056,note_on,,,,,0,0,12,,,,10,,,76,0
151056,note_on,,,,,0,0,13,,,,11,,,72,0
151056,note_on,,,,,1776,0,13,,,,11,,,64,0
151200,note_on,,,,,0,0,1,,,,0,,,84,92
151200,note_on,,,,,0,0,13,,,,11,,,72,100
151200,note_on,,,,,288,0,10,,,,6,,,76,112
151200,note_on,,,,,144,0,13,,,,11,,,64,80
151200,note_on,,,,,0,0,12,,,,10,,,72,92
151200,note_on,,,,,0,0,10,,,,6,,,64,92
151200,note_on,,,,,288,0,1,,,,0,,,88,92
151200,note_on,,,,,288,0,8,,,,4,,,64,112
151200,note_on,,,,,288,0,15,,,,13,,,55,112
151200,note_on,,,,,0,0,14,,,,12,,,72,80
151200,note_on,,,,,144,0,14,,,,12,,,64,100
151200,note_on,,,,,288,0,16,,,,14,,,43,112
151200,note_on,,,,,144,0,12,,,,10,,,76,112
151216,note_on,,,,,176,0,6,,,,3,,,64,0
151216,note_on,,,,,176,0,9,,,,5,,,64,0
151216,note_on,,,,,176,0,3,,,,1,,,76,0
151216,note_on,,,,,0,0,6,,,,3,,,52,0
151216,note_on,,,,,0,0,4,,,,2,,,76,0
151216,note_on,,,,,176,0,4,,,,2,,,64,0
151360,note_on,,,,,0,0,6,,,,3,,,68,112
151360,note_on,,,,,0,0,4,,,,2,,,68,92
151360,note_on,,,,,144,0,3,,,,1,,,80,112
151360,note_on,,,,,144,0,9,,,,5,,,68,125
151360,note_on,,,,,144,0,6,,,,3,,,56,92
151360,note_on,,,,,144,0,4,,,,2,,,80,112
151536,note_on,,,,,176,0,3,,,,1,,,80,0
151536,note_on,,,,,0,0,6,,,,3,,,56,0
151536,note_on,,,,,176,0,9,,,,5,,,68,0
151536,note_on,,,,,176,0,6,,,,3,,,68,0
151536,note_on,,,,,0,0,4,,,,2,,,80,0
151536,note_on,,,,,176,0,4,,,,2,,,68,0
151584,note_on,,,,,384,0,15,,,,13,,,55,0
151584,note_on,,,,,384,0,16,,,,14,,,43,0
151680,note_on,,,,,144,0,9,,,,5,,,67,105
151680,note_on,,,,,144,0,6,,,,3,,,67,92
151680,note_on,,,,,96,0,16,,,,14,,,48,92
151680,note_on,,,,,0,0,6,,,,3,,,55,92
151680,note_on,,,,,0,0,4,,,,2,,,67,92
151680,note_on,,,,,144,0,3,,,,1,,,79,92
151680,note_on,,,,,96,0,15,,,,13,,,60,92
151680,note_on,,,,,144,0,4,,,,2,,,79,92
151856,note_on,,,,,176,0,3,,,,1,,,79,0
151856,note_on,,,,,0,0,6,,,,3,,,67,0
151856,note_on,,,,,176,0,6,,,,3,,,55,0
151856,note_on,,,,,176,0,9,,,,5,,,67,0
151856,note_on,,,,,176,0,4,,,,2,,,67,0
151856,note_on,,,,,0,0,4,,,,2,,,79,0
151968,note_on,,,,,288,0,15,,,,13,,,60,0
151968,note_on,,,,,288,0,16,,,,14,,,48,0
152000,note_on,,,,,144,0,4,,,,2,,,76,92
152000,note_on,,,,,0,0,6,,,,3,,,52,92
152000,note_on,,,,,144,0,3,,,,1,,,76,92
152000,note_on,,,,,144,0,9,,,,5,,,64,105
152000,note_on,,,,,0,0,4,,,,2,,,64,92
152000,note_on,,,,,144,0,6,,,,3,,,64,92
152064,note_on,,,,,0,0,1,,,,0,,,88,0
152064,note_on,,,,,864,0,1,,,,0,,,84,0
152064,note_on,,,,,0,0,10,,,,6,,,76,0
152064,note_on,,,,,864,0,8,,,,4,,,64,0
152064,note_on,,,,,864,0,10,,,,6,,,64,0
152112,note_on,,,,,0,0,12,,,,10,,,76,0
152112,note_on,,,,,912,0,12,,,,10,,,72,0
152112,note_on,,,,,912,0,13,,,,11,,,72,0
152112,note_on,,,,,0,0,13,,,,11,,,64,0
152112,note_on,,,,,0,0,14,,,,12,,,64,0
152112,note_on,,,,,912,0,14,,,,12,,,72,0
152160,note_on,,,,,48,0,12,,,,10,,,72,92
152160,note_on,,,,,0,0,12,,,,10,,,76,112
152160,note_on,,,,,192,0,15,,,,13,,,55,112
152160,note_on,,,,,96,0,8,,,,4,,,64,112
152160,note_on,,,,,48,0,14,,,,12,,,64,100
152160,note_on,,,,,0,0,1,,,,0,,,84,92
152160,note_on,,,,,96,0,1,,,,0,,,88,92
152160,note_on,,,,,48,0,13,,,,11,,,72,100
152160,note_on,,,,,192,0,16,,,,14,,,43,112
152160,note_on,,,,,96,0,10,,,,6,,,76,112
152160,note_on,,,,,0,0,10,,,,6,,,64,92
152160,note_on,,,,,0,0,13,,,,11,,,64,80
152160,note_on,,,,,0,0,14,,,,12,,,72,80
152176,note_on,,,,,0,0,6,,,,3,,,64,0
152176,note_on,,,,,0,0,4,,,,2,,,76,0
152176,note_on,,,,,176,0,4,,,,2,,,64,0
152176,note_on,,,,,176,0,6,,,,3,,,52,0
152176,note_on,,,,,176,0,3,,,,1,,,76,0
152176,note_on,,,,,176,0,9,,,,5,,,64,0
152320,note_on,,,,,144,0,9,,,,5,,,68,125
152320,note_on,,,,,144,0,6,,,,3,,,56,92
152320,note_on,,,,,0,0,4,,,,2,,,80,112
152320,note_on,,,,,144,0,4,,,,2,,,68,92
152320,note_on,,,,,144,0,3,,,,1,,,80,112
152320,note_on,,,,,0,0,6,,,,3,,,68,112
152448,note_on,,,,,288,0,15,,,,13,,,55,0
152448,note_on,,,,,288,0,16,,,,14,,,43,0
152496,note_on,,,,,0,0,6,,,,3,,,56,0
152496,note_on,,,,,0,0,4,,,,2,,,68,0
152496,note_on,,,,,176,0,9,,,,5,,,68,0
152496,note_on,,,,,176,0,4,,,,2,,,80,0
152496,note_on,,,,,176,0,3,,,,1,,,80,0
152496,note_on,,,,,176,0,6,,,,3,,,68,0
152640,note_on,,,,,0,0,4,,,,2,,,67,92
152640,note_on,,,,,144,0,4,,,,2,,,79,92
152640,note_on,,,,,144,0,3,,,,1,,,79,92
152640,note_on,,,,,192,0,15,,,,13,,,60,92
152640,note_on,,,,,0,0,6,,,,3,,,67,92
152640,note_on,,,,,144,0,6,,,,3,,,55,92
152640,note_on,,,,,192,0,16,,,,14,,,48,92
152640,note_on,,,,,144,0,9,,,,5,,,67,105
152816,note_on,,,,,176,0,4,,,,2,,,67,0
152816,note_on,,,,,0,0,4,,,,2,,,79,0
152816,note_on,,,,,176,0,3,,,,1,,,79,0
152816,note_on,,,,,176,0,9,,,,5,,,67,0
152816,note_on,,,,,0,0,6,,,,3,,,55,0
152816,note_on,,,,,176,0,6,,,,3,,,67,0
152928,note_on,,,,,0,0,1,,,,0,,,88,0
152928,note_on,,,,,768,0,1,,,,0,,,84,0
152928,note_on,,,,,288,0,16,,,,14,,,48,0
152928,note_on,,,,,768,0,10,,,,6,,,64,0
152928,note_on,,,,,0,0,10,,,,6,,,76,0
152928,note_on,,,,,768,0,8,,,,4,,,64,0
152928,note_on,,,,,288,0,15,,,,13,,,60,0
152960,note_on,,,,,144,0,9,,,,5,,,64,105
152960,note_on,,,,,0,0,4,,,,2,,,64,92
152960,note_on,,,,,0,0,6,,,,3,,,64,92
152960,note_on,,,,,144,0,6,,,,3,,,52,92
152960,note_on,,,,,144,0,4,,,,2,,,76,92
152960,note_on,,,,,144,0,3,,,,1,,,76,92
153024,note_on,,,,,864,0,13,,,,11,,,64,0
153024,note_on,,,,,0,0,12,,,,10,,,72,0
153024,note_on,,,,,864,0,12,,,,10,,,76,0
153024,note_on,,,,,0,0,13,,,,11,,,72,0
153024,note_on,,,,,0,0,14,,,,12,,,64,0
153024,note_on,,,,,864,0,14,,,,12,,,72,0
153120,note_on,,,,,192,0,15,,,,13,,,56,92
153120,note_on,,,,,96,0,12,,,,10,,,80,105
153120,note_on,,,,,96,0,13,,,,11,,,68,105
153120,note_on,,,,,96,0,14,,,,12,,,68,92
153120,note_on,,,,,192,0,16,,,,14,,,44,92
153136,note_on,,,,,0,0,4,,,,2,,,76,0
153136,note_on,,,,,176,0,6,,,,3,,,64,0
153136,note_on,,,,,0,0,6,,,,3,,,52,0
153136,note_on,,,,,176,0,4,,,,2,,,64,0
153136,note_on,,,,,176,0,3,,,,1,,,76,0
153136,note_on,,,,,176,0,9,,,,5,,,64,0
153384,note_on,,,,,264,0,13,,,,11,,,68,0
153384,note_on,,,,,264,0,12,,,,10,,,80,0
153384,note_on,,,,,264,0,15,,,,13,,,56,0
153384,note_on,,,,,264,0,14,,,,12,,,68,0
153384,note_on,,,,,264,0,16,,,,14,,,44,0
153600,note_on,,,,,216,0,14,,,,12,,,67,92
153600,note_on,,,,,216,0,16,,,,14,,,43,92
153600,note_on,,,,,216,0,15,,,,13,,,55,92
153600,note_on,,,,,216,0,13,,,,11,,,67,105
153600,note_on,,,,,216,0,12,,,,10,,,79,105
153864,note_on,,,,,264,0,15,,,,13,,,55,0
153864,note_on,,,,,264,0,13,,,,11,,,67,0
153864,note_on,,,,,264,0,16,,,,14,,,43,0
153864,note_on,,,,,264,0,12,,,,10,,,79,0
153864,note_on,,,,,264,0,14,,,,12,,,67,0
154080,program_change,,,,,216,0,16,,,45,14,,,,
154080,program_change,,,,,216,0,14,,,45,12,,,,
154080,program_change,,,,,216,0,15,,,45,13,,,,
154080,note_on,,,,,944,0,6,,,,3,,,52,105
154080,note_on,,,,,1152,0,1,,,,0,,,76,92
154080,program_change,,,,,216,0,12,,,45,10,,,,
154080,program_change,,,,,216,0,13,,,45,11,,,,
154080,note_on,,,,,944,0,3,,,,1,,,76,92
154080,note_on,,,,,0,0,4,,,,2,,,64,80
154080,note_on,,,,,944,0,4,,,,2,,,76,80
154272,note_on,,,,,192,0,3,,,,1,,,76,0
154272,note_on,,,,,192,0,1,,,,0,,,76,0
154320,note_on,,,,,240,0,4,,,,2,,,64,0
154320,note_on,,,,,240,0,6,,,,3,,,52,0
154320,note_on,,,,,0,0,4,,,,2,,,76,0
154560,note_on,,,,,288,0,3,,,,1,,,72,92
154560,note_on,,,,,288,0,1,,,,0,,,72,92
154560,note_on,,,,,240,0,6,,,,3,,,48,105
154560,note_on,,,,,240,0,4,,,,2,,,72,80
154560,note_on,,,,,0,0,4,,,,2,,,60,80
154752,note_on,,,,,192,0,3,,,,1,,,72,0
154752,note_on,,,,,192,0,1,,,,0,,,72,0
154800,note_on,,,,,240,0,4,,,,2,,,60,0
154800,note_on,,,,,0,0,4,,,,2,,,72,0
154800,note_on,,,,,240,0,6,,,,3,,,48,0
155040,note_on,,,,,960,0,12,,,,10,,,71,80
155040,note_on,,,,,960,0,14,,,,12,,,59,80
155040,note_on,,,,,960,0,13,,,,11,,,71,80
155040,note_on,,,,,960,0,16,,,,14,,,35,92
155040,note_on,,,,,960,0,15,,,,13,,,47,92
155424,note_on,,,,,384,0,16,,,,14,,,35,0
155424,note_on,,,,,384,0,12,,,,10,,,71,0
155424,note_on,,,,,384,0,13,,,,11,,,71,0
155424,note_on,,,,,384,0,14,,,,12,,,59,0
155424,note_on,,,,,384,0,15,,,,13,,,47,0
155520,note_on,,,,,96,0,13,,,,11,,,70,80
155520,note_on,,,,,96,0,12,,,,10,,,70,80
155520,note_on,,,,,96,0,16,,,,14,,,34,92
155520,note_on,,,,,96,0,15,,,,13,,,46,92
155520,note_on,,,,,96,0,14,,,,12,,,58,80
155904,note_on,,,,,384,0,16,,,,14,,,34,0
155904,note_on,,,,,384,0,15,,,,13,,,46,0
155904,note_on,,,,,384,0,12,,,,10,,,70,0
155904,note_on,,,,,384,0,13,,,,11,,,70,0
155904,note_on,,,,,384,0,14,,,,12,,,58,0
156000,note_on,,,,,0,0,4,,,,2,,,73,80
156000,note_on,,,,,1200,0,4,,,,2,,,61,80
156000,note_on,,,,,1248,0,1,,,,0,,,73,92
156000,note_on,,,,,1248,0,3,,,,1,,,73,92
156000,note_on,,,,,1200,0,6,,,,3,,,49,105
156192,note_on,,,,,192,0,1,,,,0,,,73,0
156192,note_on,,,,,192,0,3,,,,1,,,73,0
156240,note_on,,,,,240,0,4,,,,2,,,73,0
156240,note_on,,,,,240,0,6,,,,3,,,49,0
156240,note_on,,,,,0,0,4,,,,2,,,61,0
156480,note_on,,,,,288,0,3,,,,1,,,76,92
156480,note_on,,,,,240,0,6,,,,3,,,52,105
156480,note_on,,,,,0,0,4,,,,2,,,64,80
156480,note_on,,,,,288,0,1,,,,0,,,76,92
156480,note_on,,,,,240,0,4,,,,2,,,76,80
156672,note_on,,,,,192,0,3,,,,1,,,76,0
156672,note_on,,,,,192,0,1,,,,0,,,76,0
156720,note_on,,,,,240,0,6,,,,3,,,52,0
156720,note_on,,,,,240,0,4,,,,2,,,64,0
156720,note_on,,,,,0,0,4,,,,2,,,76,0
156960,note_on,,,,,1056,0,13,,,,11,,,79,80
156960,note_on,,,,,1056,0,16,,,,14,,,43,92
156960,note_on,,,,,1056,0,12,,,,10,,,79,80
156960,note_on,,,,,1056,0,15,,,,13,,,55,92
156960,note_on,,,,,1056,0,14,,,,12,,,67,80
157344,note_on,,,,,384,0,13,,,,11,,,79,0
157344,note_on,,,,,384,0,12,,,,10,,,79,0
157344,note_on,,,,,384,0,14,,,,12,,,67,0
157344,note_on,,,,,384,0,15,,,,13,,,55,0
157344,note_on,,,,,384,0,16,,,,14,,,43,0
157440,note_on,,,,,96,0,15,,,,13,,,54,92
157440,note_on,,,,,96,0,16,,,,14,,,42,92
157440,note_on,,,,,96,0,12,,,,10,,,78,80
157440,note_on,,,,,96,0,13,,,,11,,,78,80
157440,note_on,,,,,96,0,14,,,,12,,,66,80
157824,note_on,,,,,384,0,14,,,,12,,,66,0
157824,note_on,,,,,384,0,12,,,,10,,,78,0
157824,note_on,,,,,384,0,13,,,,11,,,78,0
157824,note_on,,,,,384,0,15,,,,13,,,54,0
157824,note_on,,,,,384,0,16,,,,14,,,42,0
157920,note_on,,,,,1248,0,3,,,,1,,,74,92
157920,note_on,,,,,0,0,4,,,,2,,,62,80
157920,note_on,,,,,1200,0,4,,,,2,,,74,80
157920,note_on,,,,,1248,0,1,,,,0,,,74,92
157920,note_on,,,,,1200,0,6,,,,3,,,50,105
158112,note_on,,,,,192,0,3,,,,1,,,74,0
158112,note_on,,,,,192,0,1,,,,0,,,74,0
158160,note_on,,,,,240,0,6,,,,3,,,50,0
158160,note_on,,,,,0,0,4,,,,2,,,74,0
158160,note_on,,,,,240,0,4,,,,2,,,62,0
158400,note_on,,,,,240,0,4,,,,2,,,71,80
158400,note_on,,,,,0,0,4,,,,2,,,59,80
158400,note_on,,,,,288,0,1,,,,0,,,71,92
158400,note_on,,,,,240,0,6,,,,3,,,47,105
158400,note_on,,,,,288,0,3,,,,1,,,71,92
158592,note_on,,,,,192,0,1,,,,0,,,71,0
158592,note_on,,,,,192,0,3,,,,1,,,71,0
158640,note_on,,,,,240,0,6,,,,3,,,47,0
158640,note_on,,,,,240,0,4,,,,2,,,59,0
158640,note_on,,,,,0,0,4,,,,2,,,71,0
158880,note_on,,,,,1056,0,15,,,,13,,,45,92
158880,note_on,,,,,1056,0,12,,,,10,,,69,80
158880,note_on,,,,,1056,0,14,,,,12,,,57,80
158880,note_on,,,,,1056,0,16,,,,14,,,33,92
158880,note_on,,,,,1056,0,13,,,,11,,,69,80
159264,note_on,,,,,384,0,12,,,,10,,,69,0
159264,note_on,,,,,384,0,14,,,,12,,,57,0
159264,note_on,,,,,384,0,15,,,,13,,,45,0
159264,note_on,,,,,384,0,16,,,,14,,,33,0
159264,note_on,,,,,384,0,13,,,,11,,,69,0
159360,note_on,,,,,96,0,15,,,,13,,,44,92
159360,note_on,,,,,96,0,16,,,,14,,,32,92
159360,note_on,,,,,96,0,14,,,,12,,,56,80
159360,note_on,,,,,96,0,12,,,,10,,,68,80
159360,note_on,,,,,96,0,13,,,,11,,,68,80
159744,note_on,,,,,384,0,14,,,,12,,,56,0
159744,note_on,,,,,384,0,12,,,,10,,,68,0
159744,note_on,,,,,384,0,15,,,,13,,,44,0
159744,note_on,,,,,384,0,16,,,,14,,,32,0
159744,note_on,,,,,384,0,13,,,,11,,,68,0
159840,note_on,,,,,1200,0,6,,,,3,,,47,105
159840,note_on,,,,,1248,0,3,,,,1,,,71,92
159840,note_on,,,,,0,0,4,,,,2,,,71,80
159840,note_on,,,,,1200,0,4,,,,2,,,59,80
159840,note_on,,,,,1248,0,1,,,,0,,,71,92
160032,note_on,,,,,192,0,1,,,,0,,,71,0
160032,note_on,,,,,192,0,3,,,,1,,,71,0
160080,note_on,,,,,240,0,6,,,,3,,,47,0
160080,note_on,,,,,0,0,4,,,,2,,,59,0
160080,note_on,,,,,240,0,4,,,,2,,,71,0
160320,note_on,,,,,0,0,4,,,,2,,,74,80
160320,note_on,,,,,240,0,6,,,,3,,,50,105
160320,note_on,,,,,288,0,1,,,,0,,,74,92
160320,note_on,,,,,240,0,4,,,,2,,,62,80
160320,note_on,,,,,288,0,3,,,,1,,,74,92
160512,note_on,,,,,192,0,3,,,,1,,,74,0
160512,note_on,,,,,192,0,1,,,,0,,,74,0
160560,note_on,,,,,0,0,4,,,,2,,,62,0
160560,note_on,,,,,240,0,6,,,,3,,,50,0
160560,note_on,,,,,240,0,4,,,,2,,,74,0
160800,note_on,,,,,1056,0,14,,,,12,,,66,80
160800,note_on,,,,,1056,0,13,,,,11,,,78,80
160800,note_on,,,,,1056,0,16,,,,14,,,42,92
160800,note_on,,,,,1056,0,12,,,,10,,,78,80
160800,note_on,,,,,1056,0,15,,,,13,,,54,92
161184,note_on,,,,,384,0,13,,,,11,,,78,0
161184,note_on,,,,,384,0,15,,,,13,,,54,0
161184,note_on,,,,,384,0,14,,,,12,,,66,0
161184,note_on,,,,,384,0,12,,,,10,,,78,0
161184,note_on,,,,,384,0,16,,,,14,,,42,0
161280,note_on,,,,,96,0,16,,,,14,,,31,92
161280,note_on,,,,,96,0,12,,,,10,,,67,80
161280,note_on,,,,,96,0,14,,,,12,,,55,80
161280,note_on,,,,,96,0,15,,,,13,,,43,92
161280,note_on,,,,,96,0,13,,,,11,,,67,80
161664,note_on,,,,,384,0,14,,,,12,,,55,0
161664,note_on,,,,,384,0,13,,,,11,,,67,0
161664,note_on,,,,,384,0,12,,,,10,,,67,0
161664,note_on,,,,,384,0,15,,,,13,,,43,0
161664,note_on,,,,,384,0,16,,,,14,,,31,0
161760,note_on,,,,,1248,0,1,,,,0,,,71,92
161760,note_on,,,,,1248,0,3,,,,1,,,71,92
161760,note_on,,,,,1200,0,6,,,,3,,,47,105
161760,note_on,,,,,1200,0,4,,,,2,,,71,80
161760,note_on,,,,,0,0,4,,,,2,,,59,80
161952,note_on,,,,,192,0,3,,,,1,,,71,0
161952,note_on,,,,,192,0,1,,,,0,,,71,0
162000,note_on,,,,,0,0,4,,,,2,,,71,0
162000,note_on,,,,,240,0,6,,,,3,,,47,0
162000,note_on,,,,,240,0,4,,,,2,,,59,0
162240,note_on,,,,,288,0,1,,,,0,,,74,92
162240,note_on,,,,,240,0,4,,,,2,,,74,80
162240,note_on,,,,,288,0,3,,,,1,,,74,92
162240,note_on,,,,,0,0,4,,,,2,,,62,80
162240,note_on,,,,,240,0,6,,,,3,,,50,105
162432,note_on,,,,,192,0,1,,,,0,,,74,0
162432,note_on,,,,,192,0,3,,,,1,,,74,0
162480,note_on,,,,,240,0,4,,,,2,,,62,0
162480,note_on,,,,,240,0,6,,,,3,,,50,0
162480,note_on,,,,,0,0,4,,,,2,,,74,0
162720,note_on,,,,,1056,0,13,,,,11,,,78,80
162720,note_on,,,,,1056,0,14,,,,12,,,66,80
162720,note_on,,,,,1056,0,15,,,,13,,,54,92
162720,note_on,,,,,1056,0,16,,,,14,,,42,92
162720,note_on,,,,,1056,0,12,,,,10,,,78,80
163104,note_on,,,,,384,0,14,,,,12,,,66,0
163104,note_on,,,,,384,0,15,,,,13,,,54,0
163104,note_on,,,,,384,0,16,,,,14,,,42,0
163104,note_on,,,,,384,0,13,,,,11,,,78,0
163104,note_on,,,,,384,0,12,,,,10,,,78,0
163200,note_on,,,,,96,0,15,,,,13,,,43,92
163200,note_on,,,,,96,0,16,,,,14,,,31,92
163200,note_on,,,,,96,0,13,,,,11,,,67,80
163200,note_on,,,,,96,0,14,,,,12,,,55,80
163200,note_on,,,,,96,0,12,,,,10,,,67,80
163584,note_on,,,,,384,0,13,,,,11,,,67,0
163584,note_on,,,,,384,0,14,,,,12,,,55,0
163584,note_on,,,,,384,0,12,,,,10,,,67,0
163584,note_on,,,,,384,0,16,,,,14,,,31,0
163584,note_on,,,,,384,0,15,,,,13,,,43,0
163680,note_on,,,,,1200,0,4,,,,2,,,70,80
163680,note_on,,,,,1248,0,1,,,,0,,,70,92
163680,note_on,,,,,1248,0,3,,,,1,,,70,92
163680,note_on,,,,,0,0,4,,,,2,,,58,80
163680,note_on,,,,,1200,0,6,,,,3,,,46,105
163872,note_on,,,,,192,0,1,,,,0,,,70,0
163872,note_on,,,,,192,0,3,,,,1,,,70,0
163920,note_on,,,,,240,0,4,,,,2,,,58,0
163920,note_on,,,,,240,0,6,,,,3,,,46,0
163920,note_on,,,,,0,0,4,,,,2,,,70,0
164160,note_on,,,,,240,0,4,,,,2,,,61,80
164160,note_on,,,,,288,0,3,,,,1,,,73,92
164160,note_on,,,,,0,0,4,,,,2,,,73,80
164160,note_on,,,,,240,0,6,,,,3,,,49,105
164160,note_on,,,,,288,0,1,,,,0,,,73,92
164352,note_on,,,,,192,0,1,,,,0,,,73,0
164352,note_on,,,,,192,0,3,,,,1,,,73,0
164400,note_on,,,,,0,0,4,,,,2,,,61,0
164400,note_on,,,,,240,0,6,,,,3,,,49,0
164400,note_on,,,,,240,0,4,,,,2,,,73,0
164640,note_on,,,,,1056,0,15,,,,13,,,52,92
164640,note_on,,,,,1056,0,12,,,,10,,,76,80
164640,note_on,,,,,1056,0,13,,,,11,,,76,80
164640,note_on,,,,,1056,0,16,,,,14,,,40,92
164640,note_on,,,,,1056,0,14,,,,12,,,64,80
165024,note_on,,,,,384,0,14,,,,12,,,64,0
165024,note_on,,,,,384,0,13,,,,11,,,76,0
165024,note_on,,,,,384,0,12,,,,10,,,76,0
165024,note_on,,,,,384,0,15,,,,13,,,52,0
165024,note_on,,,,,384,0,16,,,,14,,,40,0
165120,note_on,,,,,96,0,14,,,,12,,,54,80
165120,note_on,,,,,96,0,16,,,,14,,,30,92
165120,note_on,,,,,96,0,15,,,,13,,,42,92
165120,note_on,,,,,96,0,13,,,,11,,,66,80
165120,note_on,,,,,96,0,12,,,,10,,,66,80
165504,note_on,,,,,384,0,16,,,,14,,,30,0
165504,note_on,,,,,384,0,12,,,,10,,,66,0
165504,note_on,,,,,384,0,13,,,,11,,,66,0
165504,note_on,,,,,384,0,14,,,,12,,,54,0
165504,note_on,,,,,384,0,15,,,,13,,,42,0
165600,note_on,,,,,1200,0,6,,,,3,,,46,105
165600,note_on,,,,,1248,0,1,,,,0,,,70,92
165600,note_on,,,,,1200,0,4,,,,2,,,58,80
165600,note_on,,,,,0,0,4,,,,2,,,70,80
165600,note_on,,,,,1248,0,3,,,,1,,,70,92
165792,note_on,,,,,192,0,1,,,,0,,,70,0
165792,note_on,,,,,192,0,3,,,,1,,,70,0
165840,note_on,,,,,0,0,4,,,,2,,,58,0
165840,note_on,,,,,240,0,4,,,,2,,,70,0
165840,note_on,,,,,240,0,6,,,,3,,,46,0
166080,note_on,,,,,288,0,1,,,,0,,,73,92
166080,note_on,,,,,288,0,3,,,,1,,,73,92
166080,note_on,,,,,240,0,4,,,,2,,,61,80
166080,note_on,,,,,240,0,6,,,,3,,,49,105
166080,note_on,,,,,0,0,4,,,,2,,,73,80
166272,note_on,,,,,192,0,1,,,,0,,,73,0
166272,note_on,,,,,192,0,3,,,,1,,,73,0
166320,note_on,,,,,240,0,6,,,,3,,,49,0
166320,note_on,,,,,0,0,4,,,,2,,,61,0
166320,note_on,,,,,240,0,4,,,,2,,,73,0
166560,note_on,,,,,1056,0,14,,,,12,,,61,80
166560,note_on,,,,,13632,0,8,,,,4,,,66,80
166560,note_on,,,,,1056,0,13,,,,11,,,70,80
166560,note_on,,,,,1056,0,12,,,,10,,,76,80
166560,note_on,,,,,1056,0,16,,,,14,,,30,92
166560,note_on,,,,,1056,0,15,,,,13,,,42,92
166560,note_on,,,,,13424,0,9,,,,5,,,54,80
166848,note_on,,,,,288,0,8,,,,4,,,66,0
166848,note_on,,,,,288,0,9,,,,5,,,54,0
166944,note_on,,,,,384,0,13,,,,11,,,70,0
166944,note_on,,,,,384,0,12,,,,10,,,76,0
166944,note_on,,,,,384,0,16,,,,14,,,30,0
166944,note_on,,,,,384,0,14,,,,12,,,61,0
166944,note_on,,,,,384,0,15,,,,13,,,42,0
167040,note_on,,,,,720,0,6,,,,3,,,47,80
167040,note_on,,,,,0,0,6,,,,3,,,51,80
167040,note_on,,,,,96,0,15,,,,13,,,47,92
167040,note_on,,,,,96,0,14,,,,12,,,63,80
167040,note_on,,,,,96,0,12,,,,10,,,75,80
167040,note_on,,,,,96,0,13,,,,11,,,71,80
167424,note_on,,,,,384,0,13,,,,11,,,71,0
167424,note_on,,,,,384,0,14,,,,12,,,63,0
167424,note_on,,,,,384,0,12,,,,10,,,75,0
167424,note_on,,,,,384,0,15,,,,13,,,47,0
167520,note_on,,,,,576,0,16,,,,14,,,30,92
167520,note_on,,,,,672,0,8,,,,4,,,66,80
167520,note_on,,,,,0,0,1,,,,0,,,87,80
167520,note_on,,,,,1248,0,1,,,,0,,,83,80
167520,note_on,,,,,96,0,12,,,,10,,,66,80
167520,note_on,,,,,0,0,3,,,,1,,,87,80
167520,note_on,,,,,1248,0,3,,,,1,,,83,80
167520,note_on,,,,,96,0,14,,,,12,,,54,80
167520,note_on,,,,,1200,0,4,,,,2,,,71,80
167520,note_on,,,,,672,0,9,,,,5,,,54,80
167520,note_on,,,,,0,0,4,,,,2,,,75,80
167520,note_on,,,,,96,0,15,,,,13,,,42,92
167520,note_on,,,,,96,0,13,,,,11,,,66,80
167808,note_on,,,,,288,0,8,,,,4,,,66,0
167808,note_on,,,,,288,0,9,,,,5,,,54,0
167904,note_on,,,,,384,0,15,,,,13,,,42,0
167904,note_on,,,,,384,0,14,,,,12,,,54,0
167904,note_on,,,,,384,0,13,,,,11,,,66,0
167904,note_on,,,,,384,0,16,,,,14,,,30,0
167904,note_on,,,,,384,0,12,,,,10,,,66,0
168000,note_on,,,,,96,0,13,,,,11,,,73,80
168000,note_on,,,,,0,0,6,,,,3,,,52,80
168000,note_on,,,,,0,0,6,,,,3,,,49,80
168000,note_on,,,,,96,0,14,,,,12,,,64,80
168000,note_on,,,,,96,0,15,,,,13,,,49,92
168000,note_on,,,,,960,0,6,,,,3,,,51,0
168000,note_on,,,,,0,0,6,,,,3,,,47,0
168000,note_on,,,,,96,0,12,,,,10,,,76,80
168384,note_on,,,,,384,0,12,,,,10,,,76,0
168384,note_on,,,,,384,0,13,,,,11,,,73,0
168384,note_on,,,,,384,0,15,,,,13,,,49,0
168384,note_on,,,,,384,0,14,,,,12,,,64,0
168432,note_on,,,,,912,0,1,,,,0,,,87,0
168432,note_on,,,,,0,0,1,,,,0,,,83,0
168432,note_on,,,,,912,0,4,,,,2,,,75,0
168432,note_on,,,,,912,0,3,,,,1,,,87,0
168432,note_on,,,,,0,0,3,,,,1,,,83,0
168432,note_on,,,,,0,0,4,,,,2,,,71,0
168480,note_on,,,,,48,0,1,,,,0,,,85,80
168480,note_on,,,,,96,0,15,,,,13,,,42,92
168480,note_on,,,,,672,0,8,,,,4,,,66,80
168480,note_on,,,,,96,0,12,,,,10,,,66,80
168480,note_on,,,,,96,0,14,,,,12,,,54,80
168480,note_on,,,,,0,0,1,,,,0,,,82,80
168480,note_on,,,,,672,0,9,,,,5,,,54,80
168480,note_on,,,,,48,0,4,,,,2,,,70,80
168480,note_on,,,,,0,0,4,,,,2,,,73,80
168480,note_on,,,,,0,0,3,,,,1,,,82,80
168480,note_on,,,,,48,0,3,,,,1,,,85,80
168480,note_on,,,,,96,0,13,,,,11,,,66,80
168480,note_on,,,,,576,0,16,,,,14,,,30,92
168768,note_on,,,,,288,0,8,,,,4,,,66,0
168768,note_on,,,,,288,0,9,,,,5,,,54,0
168864,note_on,,,,,384,0,15,,,,13,,,42,0
168864,note_on,,,,,384,0,12,,,,10,,,66,0
168864,note_on,,,,,384,0,16,,,,14,,,30,0
168864,note_on,,,,,384,0,14,,,,12,,,54,0
168864,note_on,,,,,384,0,13,,,,11,,,66,0
168960,note_on,,,,,0,0,6,,,,3,,,52,0
168960,note_on,,,,,0,0,6,,,,3,,,50,80
168960,note_on,,,,,0,0,6,,,,3,,,53,80
168960,note_on,,,,,960,0,6,,,,3,,,49,0
168960,note_on,,,,,96,0,13,,,,11,,,74,80
168960,note_on,,,,,96,0,14,,,,12,,,65,80
168960,note_on,,,,,96,0,15,,,,13,,,50,92
168960,note_on,,,,,96,0,12,,,,10,,,77,80
169344,note_on,,,,,384,0,15,,,,13,,,50,0
169344,note_on,,,,,384,0,14,,,,12,,,65,0
169344,note_on,,,,,384,0,13,,,,11,,,74,0
169344,note_on,,,,,384,0,12,,,,10,,,77,0
169416,note_on,,,,,0,0,1,,,,0,,,85,0
169416,note_on,,,,,936,0,4,,,,2,,,73,0
169416,note_on,,,,,0,0,4,,,,2,,,70,0
169416,note_on,,,,,0,0,3,,,,1,,,85,0
169416,note_on,,,,,936,0,3,,,,1,,,82,0
169416,note_on,,,,,936,0,1,,,,0,,,82,0
169440,note_on,,,,,672,0,8,,,,4,,,66,80
169440,note_on,,,,,24,0,4,,,,2,,,68,80
169440,note_on,,,,,96,0,15,,,,13,,,42,92
169440,note_on,,,,,96,0,14,,,,12,,,54,80
169440,note_on,,,,,0,0,3,,,,1,,,80,80
169440,note_on,,,,,24,0,3,,,,1,,,83,80
169440,note_on,,,,,0,0,4,,,,2,,,71,80
169440,note_on,,,,,96,0,13,,,,11,,,66,80
169440,note_on,,,,,24,0,1,,,,0,,,83,80
169440,note_on,,,,,0,0,1,,,,0,,,80,80
169440,note_on,,,,,672,0,9,,,,5,,,54,80
169440,note_on,,,,,96,0,12,,,,10,,,66,80
169440,note_on,,,,,576,0,16,,,,14,,,30,92
169728,note_on,,,,,288,0,8,,,,4,,,66,0
169728,note_on,,,,,288,0,9,,,,5,,,54,0
169824,note_on,,,,,384,0,15,,,,13,,,42,0
169824,note_on,,,,,384,0,16,,,,14,,,30,0
169824,note_on,,,,,384,0,13,,,,11,,,66,0
169824,note_on,,,,,384,0,12,,,,10,,,66,0
169824,note_on,,,,,384,0,14,,,,12,,,54,0
169920,note_on,,,,,96,0,13,,,,11,,,75,80
169920,note_on,,,,,0,0,6,,,,3,,,51,80
169920,note_on,,,,,96,0,15,,,,13,,,51,92
169920,note_on,,,,,0,0,6,,,,3,,,54,80
169920,note_on,,,,,960,0,6,,,,3,,,53,0
169920,note_on,,,,,0,0,6,,,,3,,,50,0
169920,note_on,,,,,96,0,12,,,,10,,,78,80
169920,note_on,,,,,96,0,14,,,,12,,,66,80
170304,note_on,,,,,384,0,13,,,,11,,,75,0
170304,note_on,,,,,384,0,14,,,,12,,,66,0
170304,note_on,,,,,384,0,12,,,,10,,,78,0
170304,note_on,,,,,384,0,15,,,,13,,,51,0
170352,note_on,,,,,912,0,4,,,,2,,,71,0
170352,note_on,,,,,912,0,3,,,,1,,,80,0
170352,note_on,,,,,912,0,1,,,,0,,,80,0
170352,note_on,,,,,0,0,1,,,,0,,,83,0
170352,note_on,,,,,0,0,3,,,,1,,,83,0
170352,note_on,,,,,0,0,4,,,,2,,,68,0
170400,note_on,,,,,48,0,1,,,,0,,,78,80
170400,note_on,,,,,0,0,1,,,,0,,,82,80
170400,note_on,,,,,576,0,16,,,,14,,,30,92
170400,note_on,,,,,96,0,13,,,,11,,,66,80
170400,note_on,,,,,672,0,8,,,,4,,,66,92
170400,note_on,,,,,96,0,14,,,,12,,,54,80
170400,note_on,,,,,48,0,4,,,,2,,,66,80
170400,note_on,,,,,0,0,3,,,,1,,,82,80
170400,note_on,,,,,96,0,12,,,,10,,,66,80
170400,note_on,,,,,672,0,9,,,,5,,,54,92
170400,note_on,,,,,96,0,15,,,,13,,,42,92
170400,note_on,,,,,0,0,4,,,,2,,,70,80
170400,note_on,,,,,48,0,3,,,,1,,,78,80
170688,note_on,,,,,288,0,8,,,,4,,,66,0
170688,note_on,,,,,288,0,9,,,,5,,,54,0
170784,note_on,,,,,384,0,12,,,,10,,,66,0
170784,note_on,,,,,384,0,15,,,,13,,,42,0
170784,note_on,,,,,384,0,13,,,,11,,,66,0
170784,note_on,,,,,384,0,14,,,,12,,,54,0
170784,note_on,,,,,384,0,16,,,,14,,,30,0
170856,note_on,,,,,0,0,4,,,,2,,,66,0
170856,note_on,,,,,456,0,4,,,,2,,,70,0
170856,note_on,,,,,0,0,3,,,,1,,,78,0
170856,note_on,,,,,456,0,3,,,,1,,,82,0
170856,note_on,,,,,0,0,1,,,,0,,,78,0
170856,note_on,,,,,456,0,1,,,,0,,,82,0
170880,note_on,,,,,96,0,12,,,,10,,,80,92
170880,note_on,,,,,960,0,6,,,,3,,,54,0
170880,note_on,,,,,0,0,8,,,,4,,,64,92
170880,note_on,,,,,0,0,6,,,,3,,,51,0
170880,note_on,,,,,0,0,14,,,,12,,,68,80
170880,note_on,,,,,0,0,6,,,,3,,,42,92
170880,note_on,,,,,24,0,1,,,,0,,,80,92
170880,note_on,,,,,0,0,1,,,,0,,,72,112
170880,note_on,,,,,192,0,8,,,,4,,,68,92
170880,note_on,,,,,24,0,3,,,,1,,,80,92
170880,note_on,,,,,96,0,15,,,,13,,,52,92
170880,note_on,,,,,96,0,13,,,,11,,,68,80
170880,note_on,,,,,0,0,13,,,,11,,,76,80
170880,note_on,,,,,0,0,13,,,,11,,,72,80
170880,note_on,,,,,96,0,14,,,,12,,,60,80
170880,note_on,,,,,24,0,4,,,,2,,,68,80
170880,note_on,,,,,0,0,4,,,,2,,,76,80
170880,note_on,,,,,0,0,3,,,,1,,,72,112
170880,note_on,,,,,0,0,6,,,,3,,,60,112
171264,note_on,,,,,384,0,12,,,,10,,,80,0
171264,note_on,,,,,384,0,13,,,,11,,,72,0
171264,note_on,,,,,0,0,13,,,,11,,,68,0
171264,note_on,,,,,384,0,14,,,,12,,,68,0
171264,note_on,,,,,384,0,15,,,,13,,,52,0
171264,note_on,,,,,0,0,14,,,,12,,,60,0
171264,note_on,,,,,0,0,13,,,,11,,,76,0
171360,note_on,,,,,480,0,3,,,,1,,,72,0
171360,note_on,,,,,0,0,3,,,,1,,,73,92
171360,note_on,,,,,0,0,6,,,,3,,,61,92
171360,note_on,,,,,480,0,6,,,,3,,,60,0
171360,note_on,,,,,672,0,9,,,,5,,,54,92
171360,set_tempo,,,,,23520,1,0,422535,,,,,,,
171360,note_on,,,,,0,0,1,,,,0,,,73,92
171360,note_on,,,,,480,0,1,,,,0,,,72,0
171360,note_on,,,,,96,0,15,,,,13,,,42,92
171360,note_on,,,,,576,0,16,,,,14,,,30,92
171648,note_on,,,,,288,0,9,,,,5,,,54,0
171744,note_on,,,,,384,0,16,,,,14,,,30,0
171744,note_on,,,,,384,0,15,,,,13,,,42,0
171840,note_on,,,,,96,0,15,,,,13,,,52,92
171840,note_on,,,,,0,0,13,,,,11,,,73,80
171840,note_on,,,,,0,0,13,,,,11,,,76,80
171840,set_tempo,,,,,480,1,0,428571,,,,,,,
171840,note_on,,,,,576,0,14,,,,12,,,61,80
171840,note_on,,,,,576,0,13,,,,11,,,68,80
171840,note_on,,,,,0,0,14,,,,12,,,64,80
171840,note_on,,,,,0,0,14,,,,12,,,73,80
171840,note_on,,,,,576,0,12,,,,10,,,85,92
172224,note_on,,,,,0,0,13,,,,11,,,68,0
172224,note_on,,,,,384,0,15,,,,13,,,52,0
172224,note_on,,,,,384,0,12,,,,10,,,85,0
172224,note_on,,,,,384,0,14,,,,12,,,64,0
172224,note_on,,,,,0,0,14,,,,12,,,73,0
172224,note_on,,,,,0,0,14,,,,12,,,61,0
172224,note_on,,,,,0,0,13,,,,11,,,73,0
172224,note_on,,,,,384,0,13,,,,11,,,76,0
172320,note_on,,,,,96,0,15,,,,13,,,42,92
172320,note_on,,,,,0,0,4,,,,2,,,67,80
172320,note_on,,,,,960,0,6,,,,3,,,61,0
172320,note_on,,,,,0,0,6,,,,3,,,59,92
172320,note_on,,,,,0,0,3,,,,1,,,79,92
172320,note_on,,,,,0,0,3,,,,1,,,71,92
172320,note_on,,,,,576,0,16,,,,14,,,30,92
172320,set_tempo,,,,,480,1,0,431655,,,,,,,
172320,note_on,,,,,960,0,3,,,,1,,,73,0
172320,note_on,,,,,960,0,1,,,,0,,,73,0
172320,note_on,,,,,0,0,1,,,,0,,,80,0
172320,note_on,,,,,0,0,1,,,,0,,,71,92
172320,note_on,,,,,0,0,1,,,,0,,,79,92
172320,note_on,,,,,0,0,3,,,,1,,,80,0
172320,note_on,,,,,96,0,13,,,,11,,,67,80
172320,note_on,,,,,672,0,9,,,,5,,,54,92
172320,note_on,,,,,1440,0,8,,,,4,,,68,0
172320,note_on,,,,,1440,0,4,,,,2,,,68,0
172320,note_on,,,,,0,0,8,,,,4,,,67,92
172608,note_on,,,,,288,0,9,,,,5,,,54,0
172704,note_on,,,,,384,0,16,,,,14,,,30,0
172704,note_on,,,,,0,0,6,,,,3,,,42,0
172704,note_on,,,,,384,0,15,,,,13,,,42,0
172704,note_on,,,,,384,0,6,,,,3,,,59,0
172704,note_on,,,,,384,0,13,,,,11,,,67,0
172776,note_on,,,,,456,0,1,,,,0,,,79,0
172776,note_on,,,,,456,0,3,,,,1,,,79,0
172776,note_on,,,,,0,0,3,,,,1,,,71,0
172776,note_on,,,,,0,0,1,,,,0,,,71,0
172800,note_on,,,,,0,0,4,,,,2,,,76,0
172800,note_on,,,,,480,0,4,,,,2,,,67,0
172800,note_on,,,,,0,0,4,,,,2,,,66,80
172800,note_on,,,,,0,0,13,,,,11,,,66,80
172800,note_on,,,,,96,0,13,,,,11,,,73,80
172800,note_on,,,,,24,0,1,,,,0,,,78,92
172800,note_on,,,,,0,0,1,,,,0,,,71,112
172800,note_on,,,,,0,0,8,,,,4,,,64,92
172800,note_on,,,,,0,0,8,,,,4,,,66,92
172800,note_on,,,,,0,0,3,,,,1,,,78,92
172800,note_on,,,,,24,0,3,,,,1,,,71,112
172800,note_on,,,,,0,0,13,,,,11,,,76,80
172800,note_on,,,,,0,0,6,,,,3,,,42,92
172800,note_on,,,,,0,0,4,,,,2,,,76,80
172800,note_on,,,,,480,0,8,,,,4,,,67,0
172800,set_tempo,,,,,480,1,0,437956,,,,,,,
172800,note_on,,,,,0,0,8,,,,4,,,64,0
172800,note_on,,,,,576,0,12,,,,10,,,85,92
172800,note_on,,,,,96,0,15,,,,13,,,54,92
172800,note_on,,,,,576,0,14,,,,12,,,64,80
172800,note_on,,,,,0,0,14,,,,12,,,61,80
172800,note_on,,,,,0,0,14,,,,12,,,73,80
172800,note_on,,,,,96,0,6,,,,3,,,59,112
173184,note_on,,,,,384,0,13,,,,11,,,66,0
173184,note_on,,,,,384,0,15,,,,13,,,54,0
173184,note_on,,,,,0,0,13,,,,11,,,76,0
173184,note_on,,,,,0,0,13,,,,11,,,73,0
173184,note_on,,,,,384,0,12,,,,10,,,85,0
173184,note_on,,,,,384,0,14,,,,12,,,61,0
173184,note_on,,,,,0,0,14,,,,12,,,73,0
173184,note_on,,,,,0,0,14,,,,12,,,64,0
173280,note_on,,,,,96,0,15,,,,13,,,42,92
173280,note_on,,,,,672,0,9,,,,5,,,54,92
173280,note_on,,,,,480,0,1,,,,0,,,71,0
173280,program_change,,,,,0,0,15,,,48,13,,,,
173280,note_on,,,,,0,0,1,,,,0,,,70,92
173280,note_on,,,,,0,0,6,,,,3,,,58,92
173280,note_on,,,,,0,0,3,,,,1,,,70,92
173280,set_tempo,,,,,480,1,0,444444,,,,,,,
173280,note_on,,,,,480,0,3,,,,1,,,71,0
173280,note_on,,,,,0,0,4,,,,2,,,73,80
173280,note_on,,,,,480,0,4,,,,2,,,66,0
173280,note_on,,,,,480,0,6,,,,3,,,59,0
173280,program_change,,,,,0,0,16,,,48,14,,,,
173280,note_on,,,,,576,0,16,,,,14,,,30,92
173568,note_on,,,,,288,0,9,,,,5,,,54,0
173664,note_on,,,,,384,0,16,,,,14,,,30,0
173664,note_on,,,,,384,0,15,,,,13,,,42,0
173760,set_tempo,,,,,480,1,0,451128,,,,,,,
173760,note_on,,,,,576,0,13,,,,11,,,70,80
173760,note_on,,,,,0,0,13,,,,11,,,78,80
173760,note_on,,,,,576,0,14,,,,12,,,78,80
173760,note_on,,,,,576,0,12,,,,10,,,90,92
173760,note_on,,,,,0,0,14,,,,12,,,66,80
174144,note_on,,,,,384,0,12,,,,10,,,90,0
174144,note_on,,,,,384,0,14,,,,12,,,66,0
174144,note_on,,,,,0,0,14,,,,12,,,78,0
174144,note_on,,,,,0,0,13,,,,11,,,70,0
174144,note_on,,,,,384,0,13,,,,11,,,78,0
174240,note_on,,,,,0,0,6,,,,3,,,47,92
174240,note_on,,,,,0,0,6,,,,3,,,42,0
174240,program_change,,,,,96,0,12,,,48,10,,,,
174240,note_on,,,,,0,0,12,,,,10,,,87,105
174240,program_change,,,,,96,0,13,,,48,11,,,,
174240,note_on,,,,,960,0,6,,,,3,,,58,0
174240,note_on,,,,,0,0,4,,,,2,,,75,80
174240,set_tempo,,,,,480,1,0,454545,,,,,,,
174240,note_on,,,,,960,0,3,,,,1,,,70,0
174240,note_on,,,,,0,0,4,,,,2,,,76,0
174240,note_on,,,,,960,0,4,,,,2,,,73,0
174240,note_on,,,,,576,0,16,,,,14,,,35,92
174240,program_change,,,,,96,0,14,,,48,12,,,,
174240,note_on,,,,,0,0,4,,,,2,,,71,80
174240,note_on,,,,,0,0,6,,,,3,,,59,92
174240,note_on,,,,,0,0,3,,,,1,,,78,0
174240,note_on,,,,,1440,0,8,,,,4,,,64,0
174240,note_on,,,,,960,0,1,,,,0,,,70,0
174240,note_on,,,,,0,0,1,,,,0,,,78,0
174240,note_on,,,,,0,0,1,,,,0,,,75,92
174240,note_on,,,,,0,0,3,,,,1,,,71,92
174240,note_on,,,,,576,0,15,,,,13,,,47,92
174240,note_on,,,,,0,0,1,,,,0,,,71,92
174240,note_on,,,,,0,0,3,,,,1,,,75,92
174240,note_on,,,,,0,0,8,,,,4,,,63,92
174504,note_on,,,,,264,0,16,,,,14,,,35,0
174504,note_on,,,,,264,0,15,,,,13,,,47,0
174624,note_on,,,,,0,0,6,,,,3,,,47,0
174624,note_on,,,,,384,0,6,,,,3,,,59,0
174696,note_on,,,,,0,0,1,,,,0,,,75,0
174696,note_on,,,,,456,0,3,,,,1,,,75,0
174696,note_on,,,,,0,0,3,,,,1,,,71,0
174696,note_on,,,,,456,0,1,,,,0,,,71,0
174720,note_on,,,,,0,0,8,,,,4,,,56,92
174720,note_on,,,,,480,0,8,,,,4,,,63,0
174720,note_on,,,,,0,0,12,,,,10,,,95,105
174720,note_on,,,,,480,0,12,,,,10,,,87,0
174720,note_on,,,,,0,0,8,,,,4,,,66,0
174720,note_on,,,,,480,0,13,,,,11,,,83,105
174720,note_on,,,,,0,0,6,,,,3,,,56,92
174720,note_on,,,,,0,0,4,,,,2,,,75,0
174720,note_on,,,,,0,0,4,,,,2,,,75,92
174720,note_on,,,,,0,0,4,,,,2,,,71,92
174720,note_on,,,,,0,0,1,,,,0,,,83,92
174720,note_on,,,,,0,0,3,,,,1,,,71,92
174720,note_on,,,,,24,0,3,,,,1,,,75,92
174720,note_on,,,,,216,0,15,,,,13,,,44,105
174720,note_on,,,,,24,0,1,,,,0,,,87,92
174720,note_on,,,,,216,0,16,,,,14,,,32,105
174720,set_tempo,,,,,480,1,0,441176,,,,,,,
174720,note_on,,,,,0,0,14,,,,12,,,63,92
174720,note_on,,,,,1152,0,9,,,,5,,,63,92
174720,note_on,,,,,0,0,9,,,,5,,,59,92
174720,note_on,,,,,96,0,6,,,,3,,,44,92
174720,note_on,,,,,480,0,14,,,,12,,,59,92
174720,note_on,,,,,480,0,4,,,,2,,,71,0
174976,note_on,,,,,256,0,15,,,,13,,,44,0
174976,note_on,,,,,256,0,14,,,,12,,,63,0
174976,note_on,,,,,0,0,14,,,,12,,,59,0
175040,note_on,,,,,64,0,15,,,,13,,,59,105
175040,note_on,,,,,64,0,14,,,,12,,,71,92
175040,note_on,,,,,0,0,14,,,,12,,,63,92
175040,note_on,,,,,0,0,15,,,,13,,,51,105
175200,note_on,,,,,480,0,8,,,,4,,,63,92
175296,note_on,,,,,256,0,15,,,,13,,,51,0
175296,note_on,,,,,0,0,14,,,,12,,,71,0
175296,note_on,,,,,0,0,15,,,,13,,,59,0
175296,note_on,,,,,256,0,14,,,,12,,,63,0
175360,note_on,,,,,0,0,14,,,,12,,,71,92
175360,note_on,,,,,64,0,14,,,,12,,,63,92
175360,note_on,,,,,64,0,15,,,,13,,,51,105
175360,note_on,,,,,0,0,15,,,,13,,,59,105
175440,note_on,,,,,0,0,12,,,,10,,,94,105
175440,note_on,,,,,720,0,12,,,,10,,,95,0
175440,note_on,,,,,0,0,13,,,,11,,,82,105
175440,note_on,,,,,720,0,13,,,,11,,,83,0
175488,note_on,,,,,768,0,16,,,,14,,,32,0
175616,note_on,,,,,0,0,14,,,,12,,,63,0
175616,note_on,,,,,0,0,15,,,,13,,,51,0
175616,note_on,,,,,256,0,15,,,,13,,,59,0
175616,note_on,,,,,256,0,14,,,,12,,,71,0
175680,note_on,,,,,240,0,12,,,,10,,,94,0
175680,note_on,,,,,0,0,14,,,,12,,,63,92
175680,note_on,,,,,480,0,8,,,,4,,,63,0
175680,note_on,,,,,0,0,8,,,,4,,,71,112
175680,note_on,,,,,192,0,16,,,,14,,,44,105
175680,note_on,,,,,64,0,15,,,,13,,,51,105
175680,note_on,,,,,0,0,13,,,,11,,,80,105
175680,note_on,,,,,240,0,13,,,,11,,,82,0
175680,note_on,,,,,0,0,12,,,,10,,,92,105
175680,note_on,,,,,64,0,14,,,,12,,,71,92
175680,note_on,,,,,0,0,15,,,,13,,,59,105
175936,note_on,,,,,0,0,14,,,,12,,,71,0
175936,note_on,,,,,256,0,14,,,,12,,,63,0
175936,note_on,,,,,0,0,15,,,,13,,,51,0
175936,note_on,,,,,256,0,15,,,,13,,,59,0
176000,note_on,,,,,0,0,14,,,,12,,,63,92
176000,note_on,,,,,64,0,15,,,,13,,,44,105
176000,note_on,,,,,64,0,14,,,,12,,,59,92
176256,note_on,,,,,256,0,15,,,,13,,,44,0
176256,note_on,,,,,1536,0,4,,,,2,,,75,0
176256,note_on,,,,,1536,0,1,,,,0,,,87,0
176256,note_on,,,,,0,0,14,,,,12,,,59,0
176256,note_on,,,,,256,0,14,,,,12,,,63,0
176256,note_on,,,,,1536,0,3,,,,1,,,75,0
176320,note_on,,,,,0,0,14,,,,12,,,63,92
176320,note_on,,,,,64,0,14,,,,12,,,59,92
176320,note_on,,,,,64,0,15,,,,13,,,44,105
176400,note_on,,,,,720,0,12,,,,10,,,92,0
176400,note_on,,,,,0,0,13,,,,11,,,78,105
176400,note_on,,,,,0,0,12,,,,10,,,90,105
176400,note_on,,,,,720,0,8,,,,4,,,71,0
176400,note_on,,,,,0,0,8,,,,4,,,70,92
176400,note_on,,,,,720,0,13,,,,11,,,80,0
176448,note_on,,,,,768,0,16,,,,14,,,44,0
176576,note_on,,,,,256,0,14,,,,12,,,63,0
176576,note_on,,,,,0,0,14,,,,12,,,59,0
176576,note_on,,,,,256,0,15,,,,13,,,44,0
176636,note_on,,,,,236,0,13,,,,11,,,78,0
176636,note_on,,,,,236,0,12,,,,10,,,90,0
176640,note_on,,,,,0,0,14,,,,12,,,59,92
176640,note_on,,,,,4,0,12,,,,10,,,89,105
176640,note_on,,,,,1920,0,6,,,,3,,,56,0
176640,note_on,,,,,0,0,6,,,,3,,,44,0
176640,note_on,,,,,0,0,6,,,,3,,,37,92
176640,note_on,,,,,0,0,6,,,,3,,,49,92
176640,note_on,,,,,64,0,14,,,,12,,,56,92
176640,note_on,,,,,240,0,8,,,,4,,,70,0
176640,note_on,,,,,0,0,8,,,,4,,,56,0
176640,note_on,,,,,0,0,8,,,,4,,,68,112
176640,note_on,,,,,0,0,8,,,,4,,,61,92
176640,note_on,,,,,1920,0,9,,,,5,,,59,0
176640,note_on,,,,,192,0,16,,,,14,,,37,105
176640,note_on,,,,,64,0,15,,,,13,,,37,105
176640,note_on,,,,,0,0,9,,,,5,,,63,0
176640,note_on,,,,,0,0,9,,,,5,,,65,92
176640,note_on,,,,,4,0,13,,,,11,,,77,105
176640,note_on,,,,,384,0,3,,,,1,,,80,92
176640,note_on,,,,,384,0,4,,,,2,,,77,92
176640,note_on,,,,,384,0,1,,,,0,,,92,92
176640,note_on,,,,,0,0,9,,,,5,,,59,92
176896,note_on,,,,,0,0,14,,,,12,,,56,0
176896,note_on,,,,,256,0,15,,,,13,,,37,0
176896,note_on,,,,,256,0,14,,,,12,,,59,0
176960,note_on,,,,,0,0,15,,,,13,,,53,105
176960,note_on,,,,,64,0,15,,,,13,,,49,105
176960,note_on,,,,,0,0,14,,,,12,,,59,92
176960,note_on,,,,,64,0,14,,,,12,,,68,92
177216,note_on,,,,,0,0,14,,,,12,,,68,0
177216,note_on,,,,,0,0,15,,,,13,,,49,0
177216,note_on,,,,,256,0,15,,,,13,,,53,0
177216,note_on,,,,,256,0,14,,,,12,,,59,0
177280,note_on,,,,,0,0,15,,,,13,,,49,105
177280,note_on,,,,,64,0,15,,,,13,,,53,105
177280,note_on,,,,,64,0,14,,,,12,,,68,92
177280,note_on,,,,,0,0,14,,,,12,,,59,92
177360,note_on,,,,,0,0,13,,,,11,,,75,105
177360,note_on,,,,,720,0,8,,,,4,,,68,0
177360,note_on,,,,,0,0,8,,,,4,,,66,92
177360,note_on,,,,,720,0,12,,,,10,,,89,0
177360,note_on,,,,,0,0,12,,,,10,,,87,105
177360,note_on,,,,,720,0,13,,,,11,,,77,0
177408,note_on,,,,,768,0,16,,,,14,,,37,0
177536,note_on,,,,,0,0,14,,,,12,,,68,0
177536,note_on,,,,,256,0,14,,,,12,,,59,0
177536,note_on,,,,,0,0,15,,,,13,,,53,0
177536,note_on,,,,,256,0,15,,,,13,,,49,0
177600,note_on,,,,,240,0,12,,,,10,,,87,0
177600,note_on,,,,,240,0,13,,,,11,,,75,0
177600,note_on,,,,,0,0,13,,,,11,,,73,105
177600,note_on,,,,,0,0,12,,,,10,,,85,105
177600,note_on,,,,,192,0,16,,,,14,,,37,105
177600,note_on,,,,,0,0,15,,,,13,,,49,105
177600,note_on,,,,,64,0,15,,,,13,,,53,105
177600,note_on,,,,,240,0,8,,,,4,,,66,0
177600,note_on,,,,,0,0,8,,,,4,,,65,92
177600,note_on,,,,,64,0,14,,,,12,,,68,92
177600,note_on,,,,,0,0,14,,,,12,,,59,92
177792,note_on,,,,,1152,0,4,,,,2,,,77,0
177792,note_on,,,,,1152,0,1,,,,0,,,92,0
177792,note_on,,,,,0,0,1,,,,0,,,83,0
177792,note_on,,,,,1152,0,3,,,,1,,,80,0
177792,note_on,,,,,0,0,3,,,,1,,,71,0
177792,note_on,,,,,0,0,4,,,,2,,,71,0
177856,note_on,,,,,0,0,14,,,,12,,,68,0
177856,note_on,,,,,256,0,15,,,,13,,,49,0
177856,note_on,,,,,0,0,15,,,,13,,,53,0
177856,note_on,,,,,256,0,14,,,,12,,,59,0
177920,note_on,,,,,0,0,14,,,,12,,,65,92
177920,note_on,,,,,64,0,15,,,,13,,,37,105
177920,note_on,,,,,64,0,14,,,,12,,,56,92
178080,note_on,,,,,480,0,8,,,,4,,,61,0
178080,note_on,,,,,0,0,9,,,,5,,,65,0
178080,note_on,,,,,0,0,4,,,,2,,,73,92
178080,note_on,,,,,288,0,1,,,,0,,,89,92
178080,note_on,,,,,0,0,8,,,,4,,,59,92
178080,note_on,,,,,1440,0,9,,,,5,,,59,0
178080,note_on,,,,,288,0,4,,,,2,,,71,92
178080,note_on,,,,,288,0,3,,,,1,,,77,92
178080,note_on,,,,,0,0,3,,,,1,,,71,92
178080,note_on,,,,,0,0,1,,,,0,,,83,92
178176,note_on,,,,,0,0,14,,,,12,,,56,0
178176,note_on,,,,,256,0,15,,,,13,,,37,0
178176,note_on,,,,,256,0,14,,,,12,,,65,0
178240,note_on,,,,,64,0,14,,,,12,,,65,92
178240,note_on,,,,,0,0,14,,,,12,,,56,92
178240,note_on,,,,,64,0,15,,,,13,,,37,105
178320,note_on,,,,,0,0,12,,,,10,,,92,105
178320,note_on,,,,,720,0,13,,,,11,,,73,0
178320,note_on,,,,,0,0,13,,,,11,,,80,105
178320,note_on,,,,,720,0,12,,,,10,,,85,0
178368,note_on,,,,,768,0,16,,,,14,,,37,0
178464,note_on,,,,,0,0,3,,,,1,,,77,0
178464,note_on,,,,,384,0,3,,,,1,,,71,0
178464,note_on,,,,,384,0,4,,,,2,,,71,0
178464,note_on,,,,,0,0,1,,,,0,,,89,0
178464,note_on,,,,,384,0,1,,,,0,,,83,0
178496,note_on,,,,,256,0,14,,,,12,,,56,0
178496,note_on,,,,,0,0,14,,,,12,,,65,0
178496,note_on,,,,,256,0,15,,,,13,,,37,0
178556,note_on,,,,,236,0,13,,,,11,,,80,0
178556,note_on,,,,,236,0,12,,,,10,,,92,0
178560,note_on,,,,,4,0,12,,,,10,,,90,105
178560,note_on,,,,,0,0,1,,,,0,,,82,92
178560,note_on,,,,,96,0,1,,,,0,,,85,92
178560,note_on,,,,,192,0,16,,,,14,,,30,92
178560,note_on,,,,,0,0,3,,,,1,,,78,92
178560,note_on,,,,,96,0,3,,,,1,,,70,92
178560,note_on,,,,,0,0,15,,,,13,,,42,105
178560,note_on,,,,,0,0,6,,,,3,,,37,0
178560,note_on,,,,,1920,0,6,,,,3,,,49,0
178560,note_on,,,,,64,0,15,,,,13,,,49,105
178560,note_on,,,,,0,0,8,,,,4,,,58,92
178560,note_on,,,,,0,0,8,,,,4,,,66,92
178560,note_on,,,,,96,0,4,,,,2,,,70,92
178560,note_on,,,,,0,0,8,,,,4,,,65,0
178560,note_on,,,,,480,0,8,,,,4,,,59,0
178560,note_on,,,,,4,0,13,,,,11,,,78,105
178880,note_on,,,,,0,0,14,,,,12,,,66,92
178880,note_on,,,,,384,0,14,,,,12,,,58,92
178944,note_on,,,,,384,0,4,,,,2,,,70,0
178944,note_on,,,,,0,0,4,,,,2,,,73,0
178944,note_on,,,,,384,0,1,,,,0,,,82,0
178944,note_on,,,,,0,0,1,,,,0,,,85,0
179136,note_on,,,,,0,0,14,,,,12,,,58,0
179136,note_on,,,,,256,0,14,,,,12,,,66,0
179200,note_on,,,,,0,0,14,,,,12,,,66,92
179200,note_on,,,,,64,0,14,,,,12,,,58,92
179280,note_on,,,,,720,0,13,,,,11,,,78,0
179280,note_on,,,,,0,0,12,,,,10,,,87,105
179280,note_on,,,,,720,0,12,,,,10,,,90,0
179280,note_on,,,,,0,0,13,,,,11,,,75,105
179328,note_on,,,,,768,0,15,,,,13,,,42,0
179328,note_on,,,,,0,0,15,,,,13,,,49,0
179328,note_on,,,,,768,0,3,,,,1,,,78,0
179328,note_on,,,,,0,0,3,,,,1,,,70,0
179456,note_on,,,,,0,0,14,,,,12,,,58,0
179456,note_on,,,,,256,0,14,,,,12,,,66,0
179516,note_on,,,,,236,0,12,,,,10,,,87,0
179516,note_on,,,,,236,0,13,,,,11,,,75,0
179520,note_on,,,,,4,0,13,,,,11,,,73,105
179520,note_on,,,,,0,0,3,,,,1,,,68,80
179520,note_on,,,,,192,0,3,,,,1,,,73,80
179520,note_on,,,,,192,0,15,,,,13,,,42,105
179520,note_on,,,,,0,0,15,,,,13,,,49,105
179520,set_tempo,,,,,4800,1,0,444444,,,,,,,
179520,note_on,,,,,0,0,8,,,,4,,,65,80
179520,note_on,,,,,4,0,12,,,,10,,,85,92
179520,note_on,,,,,0,0,8,,,,4,,,59,80
179520,note_on,,,,,0,0,8,,,,4,,,58,0
179520,note_on,,,,,960,0,8,,,,4,,,66,0
179840,note_on,,,,,0,0,14,,,,12,,,59,80
179840,note_on,,,,,384,0,14,,,,12,,,65,80
180000,set_tempo,,,,,480,1,0,451128,,,,,,,
180096,note_on,,,,,256,0,14,,,,12,,,59,0
180096,note_on,,,,,1536,0,16,,,,14,,,30,0
180096,note_on,,,,,0,0,14,,,,12,,,65,0
180160,note_on,,,,,64,0,14,,,,12,,,59,80
180160,note_on,,,,,0,0,14,,,,12,,,65,80
180240,note_on,,,,,0,0,13,,,,11,,,80,92
180240,note_on,,,,,720,0,13,,,,11,,,73,0
180288,note_on,,,,,768,0,15,,,,13,,,49,0
180288,note_on,,,,,0,0,15,,,,13,,,42,0
180288,note_on,,,,,768,0,3,,,,1,,,68,0
180416,note_on,,,,,256,0,14,,,,12,,,65,0
180416,note_on,,,,,0,0,14,,,,12,,,59,0
180476,note_on,,,,,236,0,13,,,,11,,,80,0
180480,note_on,,,,,4,0,13,,,,11,,,78,80
180480,note_on,,,,,192,0,3,,,,1,,,70,80
180480,note_on,,,,,960,0,8,,,,4,,,65,0
180480,set_tempo,,,,,0,1,0,458015,,,,,,,
180480,note_on,,,,,384,0,16,,,,14,,,30,70
180480,set_tempo,,,,,480,1,0,454545,,,,,,,
180480,note_on,,,,,0,0,8,,,,4,,,66,70
180480,note_on,,,,,0,0,8,,,,4,,,58,70
180480,note_on,,,,,0,0,8,,,,4,,,59,0
180480,note_on,,,,,192,0,15,,,,13,,,49,70
180480,note_on,,,,,0,0,15,,,,13,,,42,70
180800,note_on,,,,,384,0,14,,,,12,,,66,70
180800,note_on,,,,,0,0,14,,,,12,,,58,70
180864,note_on,,,,,384,0,3,,,,1,,,70,0
180864,note_on,,,,,0,0,3,,,,1,,,73,0
180960,set_tempo,,,,,480,1,0,461538,,,,,,,
181056,note_on,,,,,256,0,14,,,,12,,,58,0
181056,note_on,,,,,0,0,14,,,,12,,,66,0
181120,note_on,,,,,0,0,14,,,,12,,,58,70
181120,note_on,,,,,64,0,14,,,,12,,,66,70
181200,note_on,,,,,1680,0,12,,,,10,,,85,0
181200,note_on,,,,,0,0,12,,,,10,,,75,92
181248,note_on,,,,,768,0,15,,,,13,,,42,0
181248,note_on,,,,,0,0,15,,,,13,,,49,0
181376,note_on,,,,,256,0,14,,,,12,,,58,0
181376,note_on,,,,,0,0,14,,,,12,,,66,0
181436,note_on,,,,,236,0,12,,,,10,,,75,0
181440,set_tempo,,,,,480,1,0,468750,,,,,,,
181440,note_on,,,,,4,0,12,,,,10,,,73,80
181440,note_on,,,,,960,0,8,,,,4,,,66,0
181440,note_on,,,,,192,0,15,,,,13,,,42,70
181440,note_on,,,,,0,0,8,,,,4,,,64,63
181760,note_on,,,,,384,0,14,,,,12,,,58,63
181760,note_on,,,,,0,0,14,,,,12,,,64,63
181920,note_on,,,,,480,0,8,,,,4,,,58,0
181920,set_tempo,,,,,480,1,0,472441,,,,,,,
182016,note_on,,,,,256,0,14,,,,12,,,64,0
182016,note_on,,,,,1536,0,16,,,,14,,,30,0
182016,note_on,,,,,0,0,14,,,,12,,,58,0
182080,note_on,,,,,0,0,14,,,,12,,,64,63
182080,note_on,,,,,64,0,14,,,,12,,,58,63
182160,note_on,,,,,1680,0,13,,,,11,,,78,0
182160,note_on,,,,,720,0,12,,,,10,,,73,0
182160,note_on,,,,,0,0,12,,,,10,,,74,70
182160,note_on,,,,,0,0,13,,,,11,,,70,63
182208,note_on,,,,,768,0,15,,,,13,,,42,0
182304,note_on,,,,,384,0,8,,,,4,,,64,0
182336,note_on,,,,,0,0,14,,,,12,,,58,0
182336,note_on,,,,,256,0,14,,,,12,,,64,0
182396,note_on,,,,,236,0,12,,,,10,,,74,0
182396,note_on,,,,,236,0,13,,,,11,,,70,0
182400,note_on,,,,,192,0,15,,,,13,,,47,63
182400,note_on,,,,,3456,0,4,,,,2,,,75,80
182400,note_on,,,,,0,0,6,,,,3,,,63,63
182400,note_on,,,,,3840,0,6,,,,3,,,59,92
182400,set_tempo,,,,,480,1,0,434783,,,,,,,
182400,note_on,,,,,384,0,16,,,,14,,,35,63
182400,note_on,,,,,96,0,8,,,,4,,,63,80
182400,note_on,,,,,3456,0,1,,,,0,,,87,80
182532,note_on,,,,,132,0,15,,,,13,,,47,0
182640,note_on,,,,,108,0,15,,,,13,,,47,63
182664,note_on,,,,,264,0,16,,,,14,,,35,0
182772,note_on,,,,,132,0,15,,,,13,,,47,0
182880,note_on,,,,,544,0,14,,,,12,,,63,63
182880,note_on,,,,,0,0,14,,,,12,,,59,63
182880,note_on,,,,,484,0,12,,,,10,,,75,63
182880,note_on,,,,,484,0,13,,,,11,,,71,63
183012,note_on,,,,,132,0,12,,,,10,,,75,0
183012,note_on,,,,,0,0,14,,,,12,,,63,0
183012,note_on,,,,,132,0,14,,,,12,,,59,0
183012,note_on,,,,,132,0,13,,,,11,,,71,0
183120,note_on,,,,,0,0,14,,,,12,,,63,63
183120,note_on,,,,,108,0,14,,,,12,,,59,63
183120,note_on,,,,,108,0,12,,,,10,,,75,63
183120,note_on,,,,,108,0,13,,,,11,,,71,63
183252,note_on,,,,,0,0,14,,,,12,,,59,0
183252,note_on,,,,,132,0,12,,,,10,,,75,0
183252,note_on,,,,,132,0,13,,,,11,,,71,0
183252,note_on,,,,,132,0,14,,,,12,,,63,0
183312,note_on,,,,,912,0,8,,,,4,,,63,0
183312,note_on,,,,,912,0,4,,,,2,,,75,0
183312,note_on,,,,,912,0,1,,,,0,,,87,0
183360,note_on,,,,,48,0,1,,,,0,,,88,80
183360,note_on,,,,,0,0,6,,,,3,,,58,63
183360,note_on,,,,,0,0,6,,,,3,,,61,63
183360,note_on,,,,,960,0,6,,,,3,,,63,0
183360,note_on,,,,,108,0,12,,,,10,,,73,63
183360,note_on,,,,,48,0,4,,,,2,,,76,80
183360,note_on,,,,,0,0,14,,,,12,,,61,63
183360,note_on,,,,,48,0,8,,,,4,,,64,80
183360,note_on,,,,,108,0,13,,,,11,,,70,63
183360,note_on,,,,,0,0,6,,,,3,,,59,0
183360,note_on,,,,,108,0,14,,,,12,,,58,63
183492,note_on,,,,,132,0,12,,,,10,,,73,0
183492,note_on,,,,,132,0,13,,,,11,,,70,0
183492,note_on,,,,,132,0,14,,,,12,,,61,0
183492,note_on,,,,,0,0,14,,,,12,,,58,0
183600,note_on,,,,,0,0,14,,,,12,,,58,63
183600,note_on,,,,,108,0,14,,,,12,,,61,63
183600,note_on,,,,,108,0,12,,,,10,,,73,63
183600,note_on,,,,,108,0,13,,,,11,,,70,63
183616,note_on,,,,,256,0,4,,,,2,,,76,0
183616,note_on,,,,,256,0,1,,,,0,,,88,0
183616,note_on,,,,,256,0,8,,,,4,,,64,0
183680,note_on,,,,,64,0,8,,,,4,,,65,80
183680,note_on,,,,,64,0,4,,,,2,,,77,80
183680,note_on,,,,,64,0,1,,,,0,,,89,80
183732,note_on,,,,,132,0,14,,,,12,,,58,0
183732,note_on,,,,,0,0,14,,,,12,,,61,0
183732,note_on,,,,,132,0,12,,,,10,,,73,0
183732,note_on,,,,,132,0,13,,,,11,,,70,0
183840,note_on,,,,,1068,0,15,,,,13,,,47,63
183840,note_on,,,,,1176,0,16,,,,14,,,35,63
183936,note_on,,,,,256,0,8,,,,4,,,65,0
183936,note_on,,,,,256,0,1,,,,0,,,89,0
183936,note_on,,,,,256,0,4,,,,2,,,77,0
183972,note_on,,,,,132,0,15,,,,13,,,47,0
184000,note_on,,,,,64,0,4,,,,2,,,78,80
184000,note_on,,,,,64,0,1,,,,0,,,90,80
184000,note_on,,,,,64,0,8,,,,4,,,66,80
184080,note_on,,,,,108,0,15,,,,13,,,47,63
184104,note_on,,,,,264,0,16,,,,14,,,35,0
184212,note_on,,,,,132,0,15,,,,13,,,47,0
184256,note_on,,,,,256,0,1,,,,0,,,90,0
184256,note_on,,,,,256,0,4,,,,2,,,78,0
184256,note_on,,,,,256,0,8,,,,4,,,66,0
184320,note_on,,,,,216,0,16,,,,14,,,35,63
184320,note_on,,,,,64,0,4,,,,2,,,78,80
184320,note_on,,,,,0,0,6,,,,3,,,59,63
184320,note_on,,,,,0,0,6,,,,3,,,56,63
184320,note_on,,,,,0,0,6,,,,3,,,61,0
184320,note_on,,,,,960,0,6,,,,3,,,58,0
184320,note_on,,,,,64,0,1,,,,0,,,90,80
184320,note_on,,,,,64,0,8,,,,4,,,66,80
184320,note_on,,,,,108,0,15,,,,13,,,47,63
184452,note_on,,,,,132,0,15,,,,13,,,47,0
184560,note_on,,,,,108,0,15,,,,13,,,47,63
184584,note_on,,,,,264,0,16,,,,14,,,35,0
184692,note_on,,,,,132,0,15,,,,13,,,47,0
184800,note_on,,,,,0,0,14,,,,12,,,56,63
184800,note_on,,,,,1068,0,14,,,,12,,,59,63
184800,note_on,,,,,1068,0,13,,,,11,,,68,63
184800,note_on,,,,,480,0,1,,,,0,,,90,0
184800,note_on,,,,,1068,0,12,,,,10,,,71,63
184800,note_on,,,,,0,0,1,,,,0,,,88,80
184800,note_on,,,,,0,0,4,,,,2,,,76,80
184800,note_on,,,,,480,0,4,,,,2,,,78,0
184800,note_on,,,,,480,0,8,,,,4,,,66,0
184800,note_on,,,,,0,0,8,,,,4,,,64,80
184932,note_on,,,,,132,0,14,,,,12,,,56,0
184932,note_on,,,,,0,0,14,,,,12,,,59,0
184932,note_on,,,,,132,0,12,,,,10,,,71,0
184932,note_on,,,,,132,0,13,,,,11,,,68,0
185040,note_on,,,,,108,0,13,,,,11,,,68,63
185040,note_on,,,,,108,0,14,,,,12,,,59,63
185040,note_on,,,,,0,0,14,,,,12,,,56,63
185040,note_on,,,,,108,0,12,,,,10,,,71,63
185172,note_on,,,,,132,0,12,,,,10,,,71,0
185172,note_on,,,,,132,0,13,,,,11,,,68,0
185172,note_on,,,,,132,0,14,,,,12,,,56,0
185172,note_on,,,,,0,0,14,,,,12,,,59,0
185280,note_on,,,,,108,0,12,,,,10,,,70,63
185280,note_on,,,,,0,0,14,,,,12,,,58,63
185280,note_on,,,,,108,0,13,,,,11,,,66,63
185280,note_on,,,,,108,0,14,,,,12,,,54,63
185280,note_on,,,,,960,0,6,,,,3,,,59,0
185280,note_on,,,,,0,0,6,,,,3,,,56,0
185280,note_on,,,,,0,0,6,,,,3,,,58,63
185280,note_on,,,,,0,0,6,,,,3,,,54,63
185412,note_on,,,,,132,0,14,,,,12,,,58,0
185412,note_on,,,,,132,0,12,,,,10,,,70,0
185412,note_on,,,,,132,0,13,,,,11,,,66,0
185412,note_on,,,,,0,0,14,,,,12,,,54,0
185520,note_on,,,,,108,0,12,,,,10,,,70,63
185520,note_on,,,,,108,0,14,,,,12,,,54,63
185520,note_on,,,,,0,0,14,,,,12,,,58,63
185520,note_on,,,,,108,0,13,,,,11,,,66,63
185652,note_on,,,,,0,0,14,,,,12,,,54,0
185652,note_on,,,,,132,0,14,,,,12,,,58,0
185652,note_on,,,,,132,0,12,,,,10,,,70,0
185652,note_on,,,,,132,0,13,,,,11,,,66,0
185760,note_on,,,,,960,0,1,,,,0,,,88,0
185760,note_on,,,,,960,0,4,,,,2,,,76,0
185760,note_on,,,,,0,0,4,,,,2,,,75,80
185760,note_on,,,,,1068,0,15,,,,13,,,47,63
185760,note_on,,,,,1176,0,16,,,,14,,,35,63
185760,note_on,,,,,0,0,8,,,,4,,,63,80
185760,note_on,,,,,960,0,8,,,,4,,,64,0
185760,note_on,,,,,0,0,1,,,,0,,,87,80
185892,note_on,,,,,132,0,15,,,,13,,,47,0
186000,note_on,,,,,108,0,15,,,,13,,,47,63
186024,note_on,,,,,264,0,16,,,,14,,,35,0
186132,note_on,,,,,132,0,15,,,,13,,,47,0
186216,note_on,,,,,456,0,1,,,,0,,,87,0
186216,note_on,,,,,456,0,4,,,,2,,,75,0
186216,note_on,,,,,456,0,8,,,,4,,,63,0
186240,note_on,,,,,24,0,1,,,,0,,,84,80
186240,note_on,,,,,24,0,8,,,,4,,,60,80
186240,note_on,,,,,216,0,16,,,,14,,,40,63
186240,note_on,,,,,0,0,6,,,,3,,,56,63
186240,note_on,,,,,24,0,4,,,,2,,,72,80
186240,note_on,,,,,0,0,6,,,,3,,,58,0
186240,note_on,,,,,960,0,6,,,,3,,,54,0
186240,note_on,,,,,0,0,6,,,,3,,,52,63
186240,note_on,,,,,108,0,15,,,,13,,,52,63
186372,note_on,,,,,132,0,15,,,,13,,,52,0
186480,note_on,,,,,108,0,15,,,,13,,,52,63
186504,note_on,,,,,264,0,16,,,,14,,,40,0
186612,note_on,,,,,132,0,15,,,,13,,,52,0
186720,note_on,,,,,1068,0,13,,,,11,,,64,63
186720,note_on,,,,,1068,0,14,,,,12,,,52,63
186720,note_on,,,,,0,0,14,,,,12,,,56,63
186720,note_on,,,,,1068,0,12,,,,10,,,68,63
186852,note_on,,,,,0,0,14,,,,12,,,52,0
186852,note_on,,,,,132,0,14,,,,12,,,56,0
186852,note_on,,,,,132,0,13,,,,11,,,64,0
186852,note_on,,,,,132,0,12,,,,10,,,68,0
186960,note_on,,,,,108,0,13,,,,11,,,64,63
186960,note_on,,,,,108,0,12,,,,10,,,68,63
186960,note_on,,,,,108,0,14,,,,12,,,56,63
186960,note_on,,,,,0,0,14,,,,12,,,52,63
187092,note_on,,,,,132,0,12,,,,10,,,68,0
187092,note_on,,,,,0,0,14,,,,12,,,56,0
187092,note_on,,,,,132,0,13,,,,11,,,64,0
187092,note_on,,,,,132,0,14,,,,12,,,52,0
187152,note_on,,,,,912,0,4,,,,2,,,72,0
187152,note_on,,,,,912,0,8,,,,4,,,60,0
187152,note_on,,,,,912,0,1,,,,0,,,84,0
187200,note_on,,,,,108,0,12,,,,10,,,67,63
187200,note_on,,,,,960,0,6,,,,3,,,56,0
187200,note_on,,,,,48,0,4,,,,2,,,73,80
187200,note_on,,,,,0,0,6,,,,3,,,55,63
187200,note_on,,,,,108,0,13,,,,11,,,64,63
187200,note_on,,,,,48,0,8,,,,4,,,61,80
187200,note_on,,,,,108,0,14,,,,12,,,52,63
187200,note_on,,,,,0,0,14,,,,12,,,55,63
187200,note_on,,,,,48,0,1,,,,0,,,85,80
187332,note_on,,,,,132,0,13,,,,11,,,64,0
187332,note_on,,,,,132,0,12,,,,10,,,67,0
187332,note_on,,,,,0,0,14,,,,12,,,52,0
187332,note_on,,,,,132,0,14,,,,12,,,55,0
187440,note_on,,,,,108,0,14,,,,12,,,52,63
187440,note_on,,,,,0,0,14,,,,12,,,55,63
187440,note_on,,,,,108,0,13,,,,11,,,64,63
187440,note_on,,,,,108,0,12,,,,10,,,67,63
187456,note_on,,,,,256,0,8,,,,4,,,61,0
187456,note_on,,,,,256,0,4,,,,2,,,73,0
187456,note_on,,,,,256,0,1,,,,0,,,85,0
187520,note_on,,,,,64,0,1,,,,0,,,87,80
187520,note_on,,,,,64,0,8,,,,4,,,63,80
187520,note_on,,,,,64,0,4,,,,2,,,75,80
187572,note_on,,,,,132,0,12,,,,10,,,67,0
187572,note_on,,,,,132,0,13,,,,11,,,64,0
187572,note_on,,,,,0,0,14,,,,12,,,52,0
187572,note_on,,,,,132,0,14,,,,12,,,55,0
187680,note_on,,,,,1176,0,16,,,,14,,,37,63
187680,note_on,,,,,1068,0,15,,,,13,,,49,63
187776,note_on,,,,,256,0,8,,,,4,,,63,0
187776,note_on,,,,,256,0,4,,,,2,,,75,0
187776,note_on,,,,,256,0,1,,,,0,,,87,0
187812,note_on,,,,,132,0,15,,,,13,,,49,0
187840,note_on,,,,,64,0,1,,,,0,,,88,80
187840,note_on,,,,,64,0,4,,,,2,,,76,80
187840,note_on,,,,,64,0,8,,,,4,,,64,80
187920,note_on,,,,,108,0,15,,,,13,,,49,63
187944,note_on,,,,,264,0,16,,,,14,,,37,0
188052,note_on,,,,,132,0,15,,,,13,,,49,0
188096,note_on,,,,,256,0,8,,,,4,,,64,0
188096,note_on,,,,,256,0,1,,,,0,,,88,0
188096,note_on,,,,,256,0,4,,,,2,,,76,0
188160,note_on,,,,,108,0,15,,,,13,,,52,63
188160,note_on,,,,,960,0,6,,,,3,,,55,0
188160,note_on,,,,,0,0,6,,,,3,,,54,63
188160,note_on,,,,,64,0,1,,,,0,,,82,80
188160,note_on,,,,,216,0,16,,,,14,,,40,63
188160,note_on,,,,,64,0,4,,,,2,,,70,80
188160,note_on,,,,,64,0,8,,,,4,,,58,80
188292,note_on,,,,,132,0,15,,,,13,,,52,0
188400,note_on,,,,,108,0,15,,,,13,,,52,63
188424,note_on,,,,,264,0,16,,,,14,,,40,0
188532,note_on,,,,,132,0,15,,,,13,,,52,0
188640,note_on,,,,,1068,0,13,,,,11,,,61,63
188640,note_on,,,,,1068,0,12,,,,10,,,66,63
188640,note_on,,,,,1068,0,14,,,,12,,,54,63
188772,note_on,,,,,132,0,14,,,,12,,,54,0
188772,note_on,,,,,132,0,12,,,,10,,,66,0
188772,note_on,,,,,132,0,13,,,,11,,,61,0
188880,note_on,,,,,108,0,14,,,,12,,,54,63
188880,note_on,,,,,108,0,12,,,,10,,,66,63
188880,note_on,,,,,108,0,13,,,,11,,,61,63
189012,note_on,,,,,132,0,14,,,,12,,,54,0
189012,note_on,,,,,132,0,12,,,,10,,,66,0
189012,note_on,,,,,132,0,13,,,,11,,,61,0
189072,note_on,,,,,912,0,8,,,,4,,,58,0
189072,note_on,,,,,912,0,1,,,,0,,,82,0
189072,note_on,,,,,912,0,4,,,,2,,,70,0
189120,note_on,,,,,108,0,12,,,,10,,,66,63
189120,note_on,,,,,8256,0,3,,,,1,,,71,80
189120,note_on,,,,,960,0,6,,,,3,,,52,0
189120,note_on,,,,,108,0,14,,,,12,,,54,63
189120,note_on,,,,,48,0,4,,,,2,,,71,80
189120,note_on,,,,,48,0,1,,,,0,,,83,70
189120,note_on,,,,,48,0,8,,,,4,,,59,80
189120,note_on,,,,,108,0,13,,,,11,,,59,63
189120,note_on,,,,,0,0,6,,,,3,,,51,63
189252,note_on,,,,,132,0,13,,,,11,,,59,0
189252,note_on,,,,,132,0,14,,,,12,,,54,0
189252,note_on,,,,,132,0,12,,,,10,,,66,0
189360,note_on,,,,,108,0,13,,,,11,,,59,63
189360,note_on,,,,,108,0,14,,,,12,,,54,63
189360,note_on,,,,,108,0,12,,,,10,,,66,63
189376,note_on,,,,,256,0,3,,,,1,,,71,0
189440,note_on,,,,,64,0,3,,,,1,,,75,92
189492,note_on,,,,,132,0,13,,,,11,,,59,0
189492,note_on,,,,,132,0,14,,,,12,,,54,0
189492,note_on,,,,,132,0,12,,,,10,,,66,0
189600,note_on,,,,,1068,0,15,,,,13,,,51,63
189600,note_on,,,,,1176,0,16,,,,14,,,39,63
189696,note_on,,,,,256,0,3,,,,1,,,75,0
189732,note_on,,,,,132,0,15,,,,13,,,51,0
189760,note_on,,,,,64,0,3,,,,1,,,78,92
189840,note_on,,,,,108,0,15,,,,13,,,51,63
189864,note_on,,,,,264,0,16,,,,14,,,39,0
189972,note_on,,,,,132,0,15,,,,13,,,51,0
190016,note_on,,,,,256,0,3,,,,1,,,78,0
190032,note_on,,,,,912,0,8,,,,4,,,59,0
190032,note_on,,,,,912,0,1,,,,0,,,83,0
190032,note_on,,,,,912,0,4,,,,2,,,71,0
190080,note_on,,,,,108,0,15,,,,13,,,50,63
190080,note_on,,,,,960,0,6,,,,3,,,51,0
190080,note_on,,,,,0,0,6,,,,3,,,54,70
190080,note_on,,,,,0,0,6,,,,3,,,54,0
190080,note_on,,,,,0,0,6,,,,3,,,50,70
190080,note_on,,,,,64,0,3,,,,1,,,83,92
190080,note_on,,,,,48,0,8,,,,4,,,71,70
190080,note_on,,,,,216,0,16,,,,14,,,38,63
190212,note_on,,,,,132,0,15,,,,13,,,50,0
190320,note_on,,,,,108,0,15,,,,13,,,50,63
190344,note_on,,,,,264,0,16,,,,14,,,38,0
190452,note_on,,,,,132,0,15,,,,13,,,50,0
190560,note_on,,,,,1068,0,12,,,,10,,,66,63
190560,note_on,,,,,1068,0,14,,,,12,,,54,63
190692,note_on,,,,,132,0,14,,,,12,,,54,0
190692,note_on,,,,,132,0,12,,,,10,,,66,0
190800,note_on,,,,,0,0,8,,,,4,,,69,63
190800,note_on,,,,,720,0,3,,,,1,,,83,0
190800,note_on,,,,,0,0,3,,,,1,,,81,92
190800,note_on,,,,,108,0,14,,,,12,,,54,63
190800,note_on,,,,,108,0,12,,,,10,,,66,63
190800,note_on,,,,,720,0,8,,,,4,,,71,0
190932,note_on,,,,,132,0,14,,,,12,,,54,0
190932,note_on,,,,,132,0,12,,,,10,,,66,0
191040,note_on,,,,,0,0,8,,,,4,,,68,63
191040,note_on,,,,,240,0,3,,,,1,,,81,0
191040,note_on,,,,,0,0,3,,,,1,,,80,70
191040,note_on,,,,,240,0,8,,,,4,,,69,0
191040,note_on,,,,,108,0,12,,,,10,,,71,63
191040,note_on,,,,,108,0,14,,,,12,,,59,63
191040,note_on,,,,,0,0,6,,,,3,,,59,70
191040,note_on,,,,,960,0,6,,,,3,,,54,0
191172,note_on,,,,,132,0,12,,,,10,,,71,0
191172,note_on,,,,,132,0,14,,,,12,,,59,0
191280,note_on,,,,,108,0,14,,,,12,,,59,63
191280,note_on,,,,,108,0,12,,,,10,,,71,63
191412,note_on,,,,,132,0,12,,,,10,,,71,0
191412,note_on,,,,,132,0,14,,,,12,,,59,0
191520,note_on,,,,,1176,0,16,,,,14,,,35,63
191520,note_on,,,,,1068,0,15,,,,13,,,47,63
191652,note_on,,,,,132,0,15,,,,13,,,47,0
191760,note_on,,,,,720,0,8,,,,4,,,68,0
191760,note_on,,,,,0,0,8,,,,4,,,66,63
191760,note_on,,,,,108,0,15,,,,13,,,47,63
191760,note_on,,,,,0,0,3,,,,1,,,78,70
191760,note_on,,,,,720,0,3,,,,1,,,80,0
191784,note_on,,,,,264,0,16,,,,14,,,35,0
191892,note_on,,,,,132,0,15,,,,13,,,47,0
192000,note_on,,,,,240,0,8,,,,4,,,66,0
192000,note_on,,,,,240,0,3,,,,1,,,78,0
192000,note_on,,,,,0,0,3,,,,1,,,76,70
192000,note_on,,,,,216,0,16,,,,14,,,32,63
192000,note_on,,,,,0,0,6,,,,3,,,54,70
192000,note_on,,,,,0,0,8,,,,4,,,64,63
192000,note_on,,,,,108,0,15,,,,13,,,44,63
192000,note_on,,,,,960,0,6,,,,3,,,50,0
192132,note_on,,,,,132,0,15,,,,13,,,44,0
192240,note_on,,,,,108,0,15,,,,13,,,44,63
192264,note_on,,,,,264,0,16,,,,14,,,32,0
192372,note_on,,,,,132,0,15,,,,13,,,44,0
192480,note_on,,,,,1068,0,12,,,,10,,,66,63
192480,note_on,,,,,1068,0,14,,,,12,,,54,63
192612,note_on,,,,,132,0,14,,,,12,,,54,0
192612,note_on,,,,,132,0,12,,,,10,,,66,0
192720,note_on,,,,,108,0,14,,,,12,,,54,63
192720,note_on,,,,,720,0,8,,,,4,,,64,0
192720,note_on,,,,,0,0,8,,,,4,,,62,63
192720,note_on,,,,,0,0,3,,,,1,,,74,70
192720,note_on,,,,,720,0,3,,,,1,,,76,0
192720,note_on,,,,,108,0,12,,,,10,,,66,63
192852,note_on,,,,,132,0,12,,,,10,,,66,0
192852,note_on,,,,,132,0,14,,,,12,,,54,0
192960,note_on,,,,,0,0,6,,,,3,,,59,0
192960,note_on,,,,,0,0,6,,,,3,,,53,70
192960,note_on,,,,,240,0,3,,,,1,,,74,0
192960,note_on,,,,,108,0,12,,,,10,,,65,63
192960,note_on,,,,,960,0,6,,,,3,,,54,0
192960,note_on,,,,,0,0,8,,,,4,,,61,63
192960,note_on,,,,,240,0,8,,,,4,,,62,0
192960,note_on,,,,,108,0,14,,,,12,,,53,63
192960,note_on,,,,,0,0,6,,,,3,,,56,70
192960,note_on,,,,,0,0,3,,,,1,,,73,70
193092,note_on,,,,,132,0,12,,,,10,,,65,0
193092,note_on,,,,,132,0,14,,,,12,,,53,0
193200,note_on,,,,,108,0,12,,,,10,,,65,63
193200,note_on,,,,,108,0,14,,,,12,,,53,63
193332,note_on,,,,,132,0,12,,,,10,,,65,0
193332,note_on,,,,,132,0,14,,,,12,,,53,0
193440,note_on,,,,,1068,0,15,,,,13,,,49,63
193440,note_on,,,,,1176,0,16,,,,14,,,37,63
193572,note_on,,,,,132,0,15,,,,13,,,49,0
193680,note_on,,,,,0,0,3,,,,1,,,80,70
193680,note_on,,,,,720,0,8,,,,4,,,61,0
193680,note_on,,,,,108,0,15,,,,13,,,49,63
193680,note_on,,,,,720,0,3,,,,1,,,73,0
193704,note_on,,,,,264,0,16,,,,14,,,37,0
193812,note_on,,,,,132,0,15,,,,13,,,49,0
193872,note_on,,,,,192,0,3,,,,1,,,80,0
193920,note_on,,,,,108,0,15,,,,13,,,52,63
193920,note_on,,,,,0,0,6,,,,3,,,52,70
193920,note_on,,,,,216,0,16,,,,14,,,40,63
193920,note_on,,,,,48,0,3,,,,1,,,85,70
193920,note_on,,,,,960,0,6,,,,3,,,53,0
194052,note_on,,,,,132,0,15,,,,13,,,52,0
194160,note_on,,,,,108,0,15,,,,13,,,52,63
194184,note_on,,,,,264,0,16,,,,14,,,40,0
194292,note_on,,,,,132,0,15,,,,13,,,52,0
194400,note_on,,,,,1068,0,12,,,,10,,,68,63
194400,note_on,,,,,1068,0,14,,,,12,,,56,63
194532,note_on,,,,,132,0,12,,,,10,,,68,0
194532,note_on,,,,,132,0,14,,,,12,,,56,0
194640,note_on,,,,,108,0,14,,,,12,,,56,63
194640,note_on,,,,,720,0,3,,,,1,,,85,0
194640,note_on,,,,,0,0,3,,,,1,,,83,70
194640,note_on,,,,,108,0,12,,,,10,,,68,63
194772,note_on,,,,,132,0,14,,,,12,,,56,0
194772,note_on,,,,,132,0,12,,,,10,,,68,0
194880,note_on,,,,,960,0,6,,,,3,,,56,0
194880,note_on,,,,,0,0,6,,,,3,,,61,70
194880,note_on,,,,,240,0,3,,,,1,,,83,0
194880,note_on,,,,,0,0,3,,,,1,,,82,70
194880,note_on,,,,,108,0,12,,,,10,,,73,63
194880,note_on,,,,,108,0,14,,,,12,,,61,63
195012,note_on,,,,,132,0,14,,,,12,,,61,0
195012,note_on,,,,,132,0,12,,,,10,,,73,0
195120,note_on,,,,,108,0,12,,,,10,,,73,63
195120,note_on,,,,,108,0,14,,,,12,,,61,63
195252,note_on,,,,,132,0,14,,,,12,,,61,0
195252,note_on,,,,,132,0,12,,,,10,,,73,0
195360,note_on,,,,,1176,0,16,,,,14,,,37,63
195360,note_on,,,,,1068,0,15,,,,13,,,49,63
195492,note_on,,,,,132,0,15,,,,13,,,49,0
195600,note_on,,,,,108,0,15,,,,13,,,49,63
195600,note_on,,,,,0,0,3,,,,1,,,80,70
195600,note_on,,,,,720,0,3,,,,1,,,82,0
195624,note_on,,,,,264,0,16,,,,14,,,37,0
195732,note_on,,,,,132,0,15,,,,13,,,49,0
195840,note_on,,,,,108,0,15,,,,13,,,46,63
195840,note_on,,,,,0,0,3,,,,1,,,78,70
195840,note_on,,,,,960,0,6,,,,3,,,52,0
195840,note_on,,,,,0,0,6,,,,3,,,56,63
195840,note_on,,,,,216,0,16,,,,14,,,34,63
195840,note_on,,,,,240,0,3,,,,1,,,80,0
195972,note_on,,,,,132,0,15,,,,13,,,46,0
196080,note_on,,,,,108,0,15,,,,13,,,46,63
196104,note_on,,,,,264,0,16,,,,14,,,34,0
196212,note_on,,,,,132,0,15,,,,13,,,46,0
196320,note_on,,,,,1068,0,12,,,,10,,,68,63
196320,note_on,,,,,1068,0,14,,,,12,,,56,63
196452,note_on,,,,,132,0,14,,,,12,,,56,0
196452,note_on,,,,,132,0,12,,,,10,,,68,0
196560,note_on,,,,,0,0,3,,,,1,,,76,70
196560,note_on,,,,,720,0,3,,,,1,,,78,0
196560,note_on,,,,,108,0,14,,,,12,,,56,63
196560,note_on,,,,,108,0,12,,,,10,,,68,63
196692,note_on,,,,,132,0,14,,,,12,,,56,0
196692,note_on,,,,,132,0,12,,,,10,,,68,0
196800,note_on,,,,,108,0,12,,,,10,,,67,63
196800,note_on,,,,,3120,0,8,,,,4,,,63,63
196800,note_on,,,,,108,0,14,,,,12,,,55,63
196800,note_on,,,,,960,0,6,,,,3,,,56,0
196800,note_on,,,,,0,0,6,,,,3,,,61,0
196800,note_on,,,,,0,0,6,,,,3,,,58,63
196800,note_on,,,,,240,0,3,,,,1,,,76,0
196800,note_on,,,,,0,0,3,,,,1,,,75,70
196800,note_on,,,,,0,0,6,,,,3,,,55,63
196932,note_on,,,,,132,0,12,,,,10,,,67,0
196932,note_on,,,,,132,0,14,,,,12,,,55,0
197040,note_on,,,,,108,0,12,,,,10,,,67,63
197040,note_on,,,,,108,0,14,,,,12,,,55,63
197172,note_on,,,,,132,0,14,,,,12,,,55,0
197172,note_on,,,,,132,0,12,,,,10,,,67,0
197280,note_on,,,,,1068,0,15,,,,13,,,49,63
197280,note_on,,,,,1176,0,16,,,,14,,,37,63
197412,note_on,,,,,132,0,15,,,,13,,,49,0
197520,note_on,,,,,0,0,3,,,,1,,,76,70
197520,note_on,,,,,0,0,8,,,,4,,,64,63
197520,note_on,,,,,720,0,8,,,,4,,,63,0
197520,note_on,,,,,720,0,3,,,,1,,,75,0
197520,note_on,,,,,108,0,15,,,,13,,,49,63
197544,note_on,,,,,264,0,16,,,,14,,,37,0
197652,note_on,,,,,132,0,15,,,,13,,,49,0
197712,note_on,,,,,192,0,3,,,,1,,,76,0
197760,note_on,,,,,0,0,6,,,,3,,,58,0
197760,note_on,,,,,216,0,16,,,,14,,,36,63
197760,note_on,,,,,0,0,6,,,,3,,,56,63
197760,note_on,,,,,960,0,6,,,,3,,,55,0
197760,note_on,,,,,0,0,8,,,,4,,,63,63
197760,note_on,,,,,108,0,15,,,,13,,,48,63
197760,note_on,,,,,48,0,3,,,,1,,,75,70
197760,note_on,,,,,240,0,8,,,,4,,,64,0
197892,note_on,,,,,132,0,15,,,,13,,,48,0
198000,note_on,,,,,108,0,15,,,,13,,,48,63
198024,note_on,,,,,264,0,16,,,,14,,,36,0
198132,note_on,,,,,132,0,15,,,,13,,,48,0
198240,note_on,,,,,480,0,8,,,,4,,,63,0
198240,note_on,,,,,1068,0,14,,,,12,,,56,63
198240,note_on,,,,,1068,0,12,,,,10,,,68,63
198372,note_on,,,,,132,0,14,,,,12,,,56,0
198372,note_on,,,,,132,0,12,,,,10,,,68,0
198480,note_on,,,,,108,0,12,,,,10,,,68,63
198480,note_on,,,,,720,0,3,,,,1,,,75,0
198480,note_on,,,,,0,0,3,,,,1,,,76,70
198480,note_on,,,,,108,0,14,,,,12,,,56,63
198612,note_on,,,,,132,0,12,,,,10,,,68,0
198612,note_on,,,,,132,0,14,,,,12,,,56,0
198720,note_on,,,,,0,0,3,,,,1,,,75,70
198720,note_on,,,,,240,0,3,,,,1,,,76,0
198720,note_on,,,,,480,0,8,,,,4,,,63,63
198720,note_on,,,,,960,0,6,,,,3,,,66,63
198720,note_on,,,,,108,0,12,,,,10,,,66,63
198720,note_on,,,,,108,0,14,,,,12,,,54,63
198852,note_on,,,,,132,0,12,,,,10,,,66,0
198852,note_on,,,,,132,0,14,,,,12,,,54,0
198960,note_on,,,,,108,0,14,,,,12,,,54,63
198960,note_on,,,,,108,0,12,,,,10,,,66,63
199092,note_on,,,,,132,0,12,,,,10,,,66,0
199092,note_on,,,,,132,0,14,,,,12,,,54,0
199200,note_on,,,,,1176,0,16,,,,14,,,32,63
199200,note_on,,,,,1068,0,15,,,,13,,,44,63
199332,note_on,,,,,132,0,15,,,,13,,,44,0
199440,note_on,,,,,108,0,15,,,,13,,,44,63
199440,note_on,,,,,720,0,3,,,,1,,,75,0
199440,note_on,,,,,0,0,8,,,,4,,,64,63
199440,note_on,,,,,0,0,3,,,,1,,,76,70
199440,note_on,,,,,720,0,8,,,,4,,,63,0
199464,note_on,,,,,264,0,16,,,,14,,,32,0
199572,note_on,,,,,132,0,15,,,,13,,,44,0
199680,note_on,,,,,0,0,8,,,,4,,,61,63
199680,note_on,,,,,0,0,6,,,,3,,,65,63
199680,note_on,,,,,0,0,3,,,,1,,,73,70
199680,note_on,,,,,240,0,3,,,,1,,,76,0
199680,note_on,,,,,960,0,6,,,,3,,,66,0
199680,note_on,,,,,216,0,16,,,,14,,,37,63
199680,note_on,,,,,108,0,15,,,,13,,,49,63
199680,note_on,,,,,240,0,8,,,,4,,,64,0
199812,note_on,,,,,132,0,15,,,,13,,,49,0
199920,note_on,,,,,108,0,15,,,,13,,,49,63
199944,note_on,,,,,264,0,16,,,,14,,,37,0
200052,note_on,,,,,132,0,15,,,,13,,,49,0
200160,note_on,,,,,1068,0,14,,,,12,,,53,63
200160,note_on,,,,,1068,0,12,,,,10,,,65,63
200160,note_on,,,,,480,0,8,,,,4,,,61,0
200292,note_on,,,,,132,0,12,,,,10,,,65,0
200292,note_on,,,,,132,0,14,,,,12,,,53,0
200400,note_on,,,,,720,0,3,,,,1,,,73,0
200400,note_on,,,,,0,0,3,,,,1,,,75,70
200400,note_on,,,,,108,0,12,,,,10,,,65,63
200400,note_on,,,,,108,0,14,,,,12,,,53,63
200532,note_on,,,,,132,0,12,,,,10,,,65,0
200532,note_on,,,,,132,0,14,,,,12,,,53,0
200640,note_on,,,,,108,0,14,,,,12,,,56,63
200640,note_on,,,,,240,0,3,,,,1,,,75,0
200640,note_on,,,,,108,0,12,,,,10,,,68,63
200640,note_on,,,,,480,0,8,,,,4,,,61,63
200640,note_on,,,,,0,0,3,,,,1,,,73,70
200772,note_on,,,,,132,0,14,,,,12,,,56,0
200772,note_on,,,,,132,0,12,,,,10,,,68,0
200880,note_on,,,,,108,0,14,,,,12,,,56,63
200880,note_on,,,,,108,0,12,,,,10,,,68,63
201012,note_on,,,,,132,0,12,,,,10,,,68,0
201012,note_on,,,,,132,0,14,,,,12,,,56,0
201120,note_on,,,,,1176,0,16,,,,14,,,35,63
201120,note_on,,,,,1068,0,15,,,,13,,,47,63
201252,note_on,,,,,132,0,15,,,,13,,,47,0
201360,note_on,,,,,108,0,15,,,,13,,,47,63
201360,note_on,,,,,0,0,8,,,,4,,,63,63
201360,note_on,,,,,720,0,8,,,,4,,,61,0
201360,note_on,,,,,720,0,3,,,,1,,,73,0
201360,note_on,,,,,0,0,3,,,,1,,,75,70
201384,note_on,,,,,264,0,16,,,,14,,,35,0
201492,note_on,,,,,132,0,15,,,,13,,,47,0
201552,note_on,,,,,192,0,3,,,,1,,,75,0
201600,note_on,,,,,0,0,6,,,,3,,,54,63
201600,note_on,,,,,108,0,15,,,,13,,,46,63
201600,note_on,,,,,0,0,8,,,,4,,,61,63
201600,note_on,,,,,240,0,8,,,,4,,,63,0
201600,note_on,,,,,0,0,6,,,,3,,,66,63
201600,note_on,,,,,48,0,3,,,,1,,,73,70
201600,note_on,,,,,0,0,6,,,,3,,,56,0
201600,note_on,,,,,216,0,16,,,,14,,,34,63
201600,note_on,,,,,1920,0,6,,,,3,,,65,0
201732,note_on,,,,,132,0,15,,,,13,,,46,0
201840,note_on,,,,,108,0,15,,,,13,,,46,63
201864,note_on,,,,,264,0,16,,,,14,,,34,0
201972,note_on,,,,,132,0,15,,,,13,,,46,0
202080,note_on,,,,,1068,0,14,,,,12,,,54,63
202080,set_tempo,,,,,19680,1,0,441176,,,,,,,
202080,note_on,,,,,1068,0,12,,,,10,,,66,63
202080,note_on,,,,,480,0,8,,,,4,,,61,0
202212,note_on,,,,,132,0,12,,,,10,,,66,0
202212,note_on,,,,,132,0,14,,,,12,,,54,0
202320,note_on,,,,,108,0,14,,,,12,,,54,63
202320,note_on,,,,,0,0,3,,,,1,,,75,70
202320,note_on,,,,,108,0,12,,,,10,,,66,63
202320,note_on,,,,,720,0,3,,,,1,,,73,0
202452,note_on,,,,,132,0,14,,,,12,,,54,0
202452,note_on,,,,,132,0,12,,,,10,,,66,0
202560,note_on,,,,,0,0,6,,,,3,,,64,63
202560,note_on,,,,,480,0,8,,,,4,,,61,63
202560,set_tempo,,,,,480,1,0,444444,,,,,,,
202560,note_on,,,,,108,0,12,,,,10,,,64,63
202560,note_on,,,,,108,0,14,,,,12,,,52,63
202560,note_on,,,,,240,0,3,,,,1,,,75,0
202560,note_on,,,,,0,0,3,,,,1,,,73,70
202560,note_on,,,,,960,0,6,,,,3,,,66,0
202692,note_on,,,,,132,0,12,,,,10,,,64,0
202692,note_on,,,,,132,0,14,,,,12,,,52,0
202800,note_on,,,,,108,0,14,,,,12,,,52,63
202800,note_on,,,,,108,0,12,,,,10,,,64,63
202932,note_on,,,,,132,0,12,,,,10,,,64,0
202932,note_on,,,,,132,0,14,,,,12,,,52,0
203040,note_on,,,,,1176,0,16,,,,14,,,30,63
203040,set_tempo,,,,,480,1,0,451128,,,,,,,
203040,note_on,,,,,1068,0,15,,,,13,,,42,63
203172,note_on,,,,,132,0,15,,,,13,,,42,0
203280,note_on,,,,,0,0,3,,,,1,,,75,70
203280,note_on,,,,,720,0,3,,,,1,,,73,0
203280,note_on,,,,,108,0,15,,,,13,,,42,63
203280,note_on,,,,,0,0,8,,,,4,,,63,63
203280,note_on,,,,,720,0,8,,,,4,,,61,0
203304,note_on,,,,,264,0,16,,,,14,,,30,0
203412,note_on,,,,,132,0,15,,,,13,,,42,0
203472,note_on,,,,,192,0,3,,,,1,,,75,0
203520,note_on,,,,,960,0,6,,,,3,,,64,0
203520,note_on,,,,,0,0,6,,,,3,,,63,63
203520,note_on,,,,,0,0,8,,,,4,,,59,63
203520,set_tempo,,,,,480,1,0,454545,,,,,,,
203520,note_on,,,,,240,0,8,,,,4,,,63,0
203520,note_on,,,,,216,0,16,,,,14,,,35,63
203520,note_on,,,,,48,0,3,,,,1,,,71,70
203520,note_on,,,,,108,0,15,,,,13,,,47,63
203652,note_on,,,,,132,0,15,,,,13,,,47,0
203760,note_on,,,,,108,0,15,,,,13,,,47,63
203784,note_on,,,,,264,0,16,,,,14,,,35,0
203892,note_on,,,,,132,0,15,,,,13,,,47,0
204000,set_tempo,,,,,480,1,0,461538,,,,,,,
204000,note_on,,,,,1068,0,14,,,,12,,,51,63
204000,note_on,,,,,1068,0,12,,,,10,,,63,63
204000,note_on,,,,,480,0,8,,,,4,,,59,0
204132,note_on,,,,,132,0,14,,,,12,,,51,0
204132,note_on,,,,,132,0,12,,,,10,,,63,0
204240,note_on,,,,,108,0,12,,,,10,,,63,63
204240,note_on,,,,,0,0,3,,,,1,,,73,70
204240,note_on,,,,,720,0,3,,,,1,,,71,0
204240,note_on,,,,,108,0,14,,,,12,,,51,63
204372,note_on,,,,,132,0,14,,,,12,,,51,0
204372,note_on,,,,,132,0,12,,,,10,,,63,0
204480,note_on,,,,,108,0,12,,,,10,,,66,63
204480,note_on,,,,,0,0,6,,,,3,,,59,63
204480,note_on,,,,,960,0,6,,,,3,,,54,0
204480,note_on,,,,,480,0,8,,,,4,,,59,63
204480,set_tempo,,,,,480,1,0,465116,,,,,,,
204480,note_on,,,,,240,0,3,,,,1,,,73,0
204480,note_on,,,,,0,0,3,,,,1,,,71,70
204480,note_on,,,,,108,0,14,,,,12,,,54,63
204612,note_on,,,,,132,0,12,,,,10,,,66,0
204612,note_on,,,,,132,0,14,,,,12,,,54,0
204720,note_on,,,,,108,0,12,,,,10,,,66,63
204720,note_on,,,,,108,0,14,,,,12,,,54,63
204852,note_on,,,,,132,0,14,,,,12,,,54,0
204852,note_on,,,,,132,0,12,,,,10,,,66,0
204960,set_tempo,,,,,480,1,0,472441,,,,,,,
204960,note_on,,,,,1068,0,15,,,,13,,,46,63
204960,note_on,,,,,1176,0,16,,,,14,,,34,63
205200,note_on,,,,,720,0,3,,,,1,,,71,0
205200,note_on,,,,,0,0,3,,,,1,,,73,63
205200,note_on,,,,,720,0,8,,,,4,,,59,0
205200,note_on,,,,,0,0,8,,,,4,,,61,63
205224,note_on,,,,,264,0,16,,,,14,,,34,0
205224,note_on,,,,,264,0,15,,,,13,,,46,0
205392,note_on,,,,,192,0,3,,,,1,,,73,0
205440,note_on,,,,,240,0,8,,,,4,,,61,0
205440,note_on,,,,,0,0,1,,,,0,,,86,63
205440,note_on,,,,,15408,0,1,,,,0,,,83,63
205440,note_on,,,,,205440,0,11,,,,7,,,47,38
205440,note_on,,,,,0,0,8,,,,4,,,47,63
205440,note_on,,,,,0,0,6,,,,3,,,63,0
205440,note_on,,,,,960,0,6,,,,3,,,59,0
205440,note_on,,,,,216,0,16,,,,14,,,32,63
205440,note_on,,,,,0,0,8,,,,4,,,62,63
205440,note_on,,,,,216,0,15,,,,13,,,44,63
205440,note_on,,,,,0,0,6,,,,3,,,44,63
205440,set_tempo,,,,,480,1,0,434783,,,,,,,
205440,note_on,,,,,15408,0,4,,,,2,,,71,63
205440,note_on,,,,,48,0,3,,,,1,,,74,63
205440,note_on,,,,,27360,0,9,,,,5,,,59,63
205440,note_on,,,,,0,0,4,,,,2,,,74,63
205440,note_on,,,,,0,0,9,,,,5,,,62,63
205536,note_on,,,,,96,0,11,,,,7,,,47,0
205560,note_on,,,,,24,0,11,,,,7,,,47,38
205656,note_on,,,,,96,0,11,,,,7,,,47,0
205680,note_on,,,,,0,0,15,,,,13,,,47,63
205680,note_on,,,,,240,0,15,,,,13,,,44,0
205680,note_on,,,,,16188,0,13,,,,11,,,59,38
205680,note_on,,,,,828,0,12,,,,10,,,59,38
205680,note_on,,,,,24,0,11,,,,7,,,47,38
205776,note_on,,,,,96,0,11,,,,7,,,47,0
205800,note_on,,,,,24,0,11,,,,7,,,47,38
205824,note_on,,,,,384,0,3,,,,1,,,74,0
205824,note_on,,,,,384,0,8,,,,4,,,62,0
205896,note_on,,,,,96,0,11,,,,7,,,47,0
205920,note_on,,,,,24,0,11,,,,7,,,47,38
205920,note_on,,,,,240,0,12,,,,10,,,59,0
205920,note_on,,,,,0,0,15,,,,13,,,50,63
205920,note_on,,,,,240,0,13,,,,11,,,59,0
205920,note_on,,,,,240,0,15,,,,13,,,47,0
205920,note_on,,,,,0,0,12,,,,10,,,62,38
205920,note_on,,,,,0,0,13,,,,11,,,62,38
206016,note_on,,,,,96,0,11,,,,7,,,47,0
206040,note_on,,,,,24,0,11,,,,7,,,47,38
206136,note_on,,,,,96,0,11,,,,7,,,47,0
206160,note_on,,,,,53232,0,10,,,,6,,,71,63
206160,note_on,,,,,0,0,10,,,,6,,,59,63
206160,note_on,,,,,240,0,12,,,,10,,,62,0
206160,note_on,,,,,240,0,13,,,,11,,,62,0
206160,note_on,,,,,0,0,13,,,,11,,,64,38
206160,note_on,,,,,240,0,15,,,,13,,,50,0
206160,note_on,,,,,0,0,12,,,,10,,,64,38
206160,note_on,,,,,24,0,11,,,,7,,,47,38
206160,note_on,,,,,0,0,15,,,,13,,,52,63
206256,note_on,,,,,96,0,11,,,,7,,,47,0
206256,note_on,,,,,0,0,10,,,,6,,,71,0
206256,note_on,,,,,96,0,10,,,,6,,,59,0
206280,note_on,,,,,0,0,10,,,,6,,,59,63
206280,note_on,,,,,24,0,10,,,,6,,,71,63
206280,note_on,,,,,24,0,11,,,,7,,,47,38
206376,note_on,,,,,96,0,11,,,,7,,,47,0
206376,note_on,,,,,96,0,10,,,,6,,,59,0
206376,note_on,,,,,0,0,10,,,,6,,,71,0
206400,note_on,,,,,240,0,13,,,,11,,,64,0
206400,note_on,,,,,0,0,10,,,,6,,,59,63
206400,note_on,,,,,0,0,13,,,,11,,,67,38
206400,note_on,,,,,240,0,15,,,,13,,,52,0
206400,note_on,,,,,0,0,15,,,,13,,,55,63
206400,note_on,,,,,24,0,11,,,,7,,,47,38
206400,note_on,,,,,240,0,12,,,,10,,,64,0
206400,note_on,,,,,0,0,12,,,,10,,,67,38
206400,note_on,,,,,24,0,10,,,,6,,,71,63
206496,note_on,,,,,96,0,11,,,,7,,,47,0
206520,note_on,,,,,24,0,11,,,,7,,,47,38
206616,note_on,,,,,96,0,11,,,,7,,,47,0
206640,note_on,,,,,240,0,13,,,,11,,,67,0
206640,note_on,,,,,24,0,11,,,,7,,,47,38
206640,note_on,,,,,0,0,13,,,,11,,,64,38
206640,note_on,,,,,240,0,15,,,,13,,,55,0
206640,note_on,,,,,0,0,15,,,,13,,,52,63
206640,note_on,,,,,240,0,12,,,,10,,,67,0
206640,note_on,,,,,0,0,12,,,,10,,,64,38
206736,note_on,,,,,96,0,11,,,,7,,,47,0
206760,note_on,,,,,24,0,11,,,,7,,,47,38
206856,note_on,,,,,96,0,11,,,,7,,,47,0
206880,note_on,,,,,240,0,12,,,,10,,,64,0
206880,note_on,,,,,0,0,12,,,,10,,,65,38
206880,note_on,,,,,0,0,15,,,,13,,,53,63
206880,note_on,,,,,24,0,11,,,,7,,,47,38
206880,note_on,,,,,0,0,13,,,,11,,,65,38
206880,note_on,,,,,240,0,13,,,,11,,,64,0
206880,note_on,,,,,2028,0,14,,,,12,,,53,38
206880,note_on,,,,,240,0,15,,,,13,,,52,0
206976,note_on,,,,,96,0,11,,,,7,,,47,0
207000,note_on,,,,,24,0,11,,,,7,,,47,38
207096,note_on,,,,,96,0,11,,,,7,,,47,0
207120,note_on,,,,,24,0,11,,,,7,,,47,38
207120,note_on,,,,,0,0,12,,,,10,,,71,38
207120,note_on,,,,,240,0,14,,,,12,,,53,0
207120,note_on,,,,,0,0,14,,,,12,,,59,38
207120,note_on,,,,,240,0,12,,,,10,,,65,0
207120,note_on,,,,,0,0,13,,,,11,,,71,38
207120,note_on,,,,,240,0,15,,,,13,,,53,0
207120,note_on,,,,,0,0,15,,,,13,,,59,63
207120,note_on,,,,,240,0,13,,,,11,,,65,0
207216,note_on,,,,,96,0,11,,,,7,,,47,0
207240,note_on,,,,,24,0,11,,,,7,,,47,38
207336,note_on,,,,,96,0,11,,,,7,,,47,0
207360,note_on,,,,,240,0,12,,,,10,,,71,0
207360,note_on,,,,,0,0,12,,,,10,,,74,38
207360,note_on,,,,,24,0,11,,,,7,,,47,38
207360,note_on,,,,,0,0,13,,,,11,,,62,38
207360,note_on,,,,,240,0,13,,,,11,,,71,0
207360,note_on,,,,,0,0,14,,,,12,,,62,38
207360,note_on,,,,,240,0,14,,,,12,,,59,0
207360,note_on,,,,,240,0,15,,,,13,,,59,0
207360,note_on,,,,,0,0,15,,,,13,,,62,63
207456,note_on,,,,,96,0,11,,,,7,,,47,0
207480,note_on,,,,,24,0,11,,,,7,,,47,38
207576,note_on,,,,,96,0,11,,,,7,,,47,0
207600,note_on,,,,,240,0,13,,,,11,,,62,0
207600,note_on,,,,,0,0,13,,,,11,,,64,38
207600,note_on,,,,,24,0,11,,,,7,,,47,38
207600,note_on,,,,,240,0,14,,,,12,,,62,0
207600,note_on,,,,,0,0,14,,,,12,,,64,38
207600,note_on,,,,,0,0,12,,,,10,,,76,38
207600,note_on,,,,,240,0,12,,,,10,,,74,0
207600,note_on,,,,,240,0,15,,,,13,,,62,0
207696,note_on,,,,,96,0,11,,,,7,,,47,0
207720,note_on,,,,,24,0,11,,,,7,,,47,38
207816,note_on,,,,,96,0,11,,,,7,,,47,0
207840,note_on,,,,,24,0,11,,,,7,,,47,38
207840,note_on,,,,,240,0,14,,,,12,,,64,0
207840,note_on,,,,,0,0,12,,,,10,,,79,38
207840,note_on,,,,,240,0,12,,,,10,,,76,0
207840,note_on,,,,,0,0,13,,,,11,,,67,38
207840,note_on,,,,,240,0,13,,,,11,,,64,0
207840,note_on,,,,,0,0,14,,,,12,,,67,38
207936,note_on,,,,,1536,0,10,,,,6,,,59,0
207936,note_on,,,,,0,0,10,,,,6,,,71,0
207936,note_on,,,,,96,0,11,,,,7,,,47,0
207960,note_on,,,,,24,0,11,,,,7,,,47,38
208056,note_on,,,,,96,0,11,,,,7,,,47,0
208080,note_on,,,,,24,0,11,,,,7,,,47,38
208080,note_on,,,,,0,0,14,,,,12,,,64,38
208080,note_on,,,,,240,0,12,,,,10,,,79,0
208080,note_on,,,,,240,0,14,,,,12,,,67,0
208080,note_on,,,,,0,0,12,,,,10,,,76,38
208080,note_on,,,,,144,0,10,,,,6,,,59,63
208080,note_on,,,,,0,0,10,,,,6,,,71,63
208080,note_on,,,,,0,0,13,,,,11,,,64,38
208080,note_on,,,,,240,0,13,,,,11,,,67,0
208176,note_on,,,,,96,0,11,,,,7,,,47,0
208176,note_on,,,,,96,0,10,,,,6,,,71,0
208176,note_on,,,,,0,0,10,,,,6,,,59,0
208200,note_on,,,,,24,0,11,,,,7,,,47,38
208200,note_on,,,,,24,0,10,,,,6,,,71,63
208200,note_on,,,,,0,0,10,,,,6,,,59,63
208296,note_on,,,,,96,0,11,,,,7,,,47,0
208296,note_on,,,,,96,0,10,,,,6,,,59,0
208296,note_on,,,,,0,0,10,,,,6,,,71,0
208320,note_on,,,,,240,0,13,,,,11,,,64,0
208320,note_on,,,,,24,0,10,,,,6,,,71,63
208320,note_on,,,,,0,0,10,,,,6,,,59,63
208320,note_on,,,,,240,0,12,,,,10,,,76,0
208320,note_on,,,,,0,0,13,,,,11,,,65,38
208320,note_on,,,,,240,0,14,,,,12,,,64,0
208320,note_on,,,,,0,0,14,,,,12,,,65,38
208320,note_on,,,,,0,0,12,,,,10,,,77,38
208320,note_on,,,,,24,0,11,,,,7,,,47,38
208416,note_on,,,,,96,0,11,,,,7,,,47,0
208440,note_on,,,,,24,0,11,,,,7,,,47,38
208536,note_on,,,,,96,0,11,,,,7,,,47,0
208560,note_on,,,,,240,0,13,,,,11,,,65,0
208560,note_on,,,,,240,0,12,,,,10,,,77,0
208560,note_on,,,,,0,0,12,,,,10,,,83,38
208560,note_on,,,,,240,0,14,,,,12,,,65,0
208560,note_on,,,,,0,0,14,,,,12,,,71,38
208560,note_on,,,,,0,0,13,,,,11,,,71,38
208560,note_on,,,,,24,0,11,,,,7,,,47,38
208656,note_on,,,,,96,0,11,,,,7,,,47,0
208680,note_on,,,,,24,0,11,,,,7,,,47,38
208776,note_on,,,,,96,0,11,,,,7,,,47,0
208800,note_on,,,,,0,0,12,,,,10,,,86,38
208800,note_on,,,,,240,0,12,,,,10,,,83,0
208800,note_on,,,,,0,0,13,,,,11,,,74,38
208800,note_on,,,,,240,0,13,,,,11,,,71,0
208800,note_on,,,,,0,0,14,,,,12,,,74,38
208800,note_on,,,,,24,0,11,,,,7,,,47,38
208800,note_on,,,,,240,0,14,,,,12,,,71,0
208896,note_on,,,,,96,0,11,,,,7,,,47,0
208920,note_on,,,,,24,0,11,,,,7,,,47,38
209016,note_on,,,,,96,0,11,,,,7,,,47,0
209040,note_on,,,,,240,0,12,,,,10,,,86,0
209040,note_on,,,,,240,0,14,,,,12,,,74,0
209040,note_on,,,,,0,0,12,,,,10,,,83,38
209040,note_on,,,,,240,0,13,,,,11,,,74,0
209040,note_on,,,,,0,0,14,,,,12,,,71,38
209040,note_on,,,,,24,0,11,,,,7,,,47,38
209040,note_on,,,,,0,0,13,,,,11,,,71,38
209136,note_on,,,,,96,0,11,,,,7,,,47,0
209160,note_on,,,,,24,0,11,,,,7,,,47,38
209256,note_on,,,,,96,0,11,,,,7,,,47,0
209280,note_on,,,,,0,0,14,,,,12,,,65,38
209280,note_on,,,,,240,0,13,,,,11,,,71,0
209280,note_on,,,,,240,0,12,,,,10,,,83,0
209280,note_on,,,,,0,0,12,,,,10,,,77,38
209280,note_on,,,,,240,0,14,,,,12,,,71,0
209280,note_on,,,,,24,0,11,,,,7,,,47,38
209280,note_on,,,,,0,0,13,,,,11,,,65,38
209376,note_on,,,,,96,0,11,,,,7,,,47,0
209400,note_on,,,,,24,0,11,,,,7,,,47,38
209496,note_on,,,,,96,0,11,,,,7,,,47,0
209520,note_on,,,,,24,0,11,,,,7,,,47,38
209520,note_on,,,,,0,0,13,,,,11,,,62,38
209520,note_on,,,,,240,0,13,,,,11,,,65,0
209520,note_on,,,,,0,0,12,,,,10,,,74,38
209520,note_on,,,,,240,0,14,,,,12,,,65,0
209520,note_on,,,,,240,0,12,,,,10,,,77,0
209520,note_on,,,,,0,0,14,,,,12,,,62,38
209616,note_on,,,,,96,0,11,,,,7,,,47,0
209640,note_on,,,,,24,0,11,,,,7,,,47,38
209736,note_on,,,,,96,0,11,,,,7,,,47,0
209760,note_on,,,,,240,0,14,,,,12,,,62,0
209760,note_on,,,,,24,0,11,,,,7,,,47,38
209760,note_on,,,,,0,0,13,,,,11,,,59,38
209760,note_on,,,,,240,0,12,,,,10,,,74,0
209760,note_on,,,,,0,0,12,,,,10,,,71,38
209760,note_on,,,,,240,0,13,,,,11,,,62,0
209760,note_on,,,,,0,0,14,,,,12,,,59,38
209856,note_on,,,,,96,0,11,,,,7,,,47,0
209880,note_on,,,,,24,0,11,,,,7,,,47,38
209976,note_on,,,,,96,0,11,,,,7,,,47,0
210000,note_on,,,,,240,0,13,,,,11,,,59,0
210000,note_on,,,,,240,0,14,,,,12,,,59,0
210000,note_on,,,,,0,0,14,,,,12,,,64,38
210000,note_on,,,,,2400,0,15,,,,13,,,52,63
210000,note_on,,,,,0,0,12,,,,10,,,64,38
210000,note_on,,,,,24,0,11,,,,7,,,47,38
210000,note_on,,,,,240,0,12,,,,10,,,71,0
210048,note_on,,,,,1728,0,10,,,,6,,,59,0
210048,note_on,,,,,0,0,10,,,,6,,,71,0
210096,note_on,,,,,96,0,11,,,,7,,,47,0
210120,note_on,,,,,24,0,11,,,,7,,,47,38
210216,note_on,,,,,96,0,11,,,,7,,,47,0
210240,note_on,,,,,4800,0,16,,,,14,,,32,0
210240,note_on,,,,,24,0,11,,,,7,,,47,38
210240,note_on,,,,,0,0,6,,,,3,,,43,63
210240,note_on,,,,,240,0,12,,,,10,,,64,0
210240,note_on,,,,,0,0,14,,,,12,,,65,38
210240,note_on,,,,,240,0,14,,,,12,,,64,0
210240,note_on,,,,,0,0,16,,,,14,,,31,63
210240,note_on,,,,,4800,0,6,,,,3,,,44,0
210240,note_on,,,,,0,0,12,,,,10,,,65,38
210240,note_on,,,,,192,0,10,,,,6,,,71,63
210240,note_on,,,,,240,0,15,,,,13,,,52,0
210240,note_on,,,,,0,0,15,,,,13,,,53,63
210240,note_on,,,,,0,0,10,,,,6,,,59,63
210336,note_on,,,,,96,0,11,,,,7,,,47,0
210360,note_on,,,,,24,0,11,,,,7,,,47,38
210456,note_on,,,,,96,0,11,,,,7,,,47,0
210480,note_on,,,,,240,0,12,,,,10,,,65,0
210480,note_on,,,,,0,0,12,,,,10,,,62,38
210480,note_on,,,,,24,0,11,,,,7,,,47,38
210480,note_on,,,,,240,0,15,,,,13,,,53,0
210480,note_on,,,,,240,0,14,,,,12,,,65,0
210480,note_on,,,,,0,0,15,,,,13,,,50,63
210480,note_on,,,,,0,0,14,,,,12,,,62,38
210576,note_on,,,,,96,0,11,,,,7,,,47,0
210600,note_on,,,,,24,0,11,,,,7,,,47,38
210696,note_on,,,,,96,0,11,,,,7,,,47,0
210720,note_on,,,,,240,0,14,,,,12,,,62,0
210720,note_on,,,,,0,0,14,,,,12,,,59,38
210720,note_on,,,,,0,0,15,,,,13,,,47,63
210720,note_on,,,,,240,0,15,,,,13,,,50,0
210720,note_on,,,,,24,0,11,,,,7,,,47,38
210720,note_on,,,,,0,0,12,,,,10,,,59,38
210720,note_on,,,,,240,0,12,,,,10,,,62,0
210816,note_on,,,,,96,0,11,,,,7,,,47,0
210840,note_on,,,,,24,0,11,,,,7,,,47,38
210936,note_on,,,,,96,0,11,,,,7,,,47,0
210960,note_on,,,,,240,0,12,,,,10,,,59,0
210960,note_on,,,,,24,0,11,,,,7,,,47,38
210960,note_on,,,,,0,0,14,,,,12,,,52,38
210960,note_on,,,,,240,0,14,,,,12,,,59,0
210960,note_on,,,,,240,0,15,,,,13,,,47,0
210960,note_on,,,,,0,0,15,,,,13,,,43,63
211056,note_on,,,,,96,0,11,,,,7,,,47,0
211080,note_on,,,,,24,0,11,,,,7,,,47,38
211176,note_on,,,,,96,0,11,,,,7,,,47,0
211200,note_on,,,,,240,0,15,,,,13,,,43,0
211200,note_on,,,,,0,0,15,,,,13,,,53,38
211200,note_on,,,,,24,0,11,,,,7,,,47,63
211200,note_on,,,,,0,0,14,,,,12,,,53,38
211200,note_on,,,,,240,0,14,,,,12,,,52,0
211392,note_on,,,,,192,0,15,,,,13,,,53,0
211392,note_on,,,,,192,0,14,,,,12,,,53,0
211392,note_on,,,,,1152,0,16,,,,14,,,31,0
211436,note_on,,,,,5612,0,8,,,,4,,,47,0
211436,note_on,,,,,1196,0,10,,,,6,,,59,0
211436,note_on,,,,,0,0,10,,,,6,,,71,0
211436,note_on,,,,,5996,0,4,,,,2,,,74,0
211436,note_on,,,,,0,0,4,,,,2,,,71,0
211436,note_on,,,,,236,0,11,,,,7,,,47,0
211436,note_on,,,,,0,0,1,,,,0,,,83,0
211436,note_on,,,,,5996,0,1,,,,0,,,86,0
211436,note_on,,,,,5996,0,9,,,,5,,,62,0
211436,note_on,,,,,0,0,9,,,,5,,,59,0
211436,note_on,,,,,1196,0,6,,,,3,,,43,0
211920,note_on,,,,,0,0,3,,,,1,,,63,63
211920,note_on,,,,,484,0,8,,,,4,,,66,63
211920,note_on,,,,,528,0,15,,,,13,,,42,63
211920,note_on,,,,,0,0,8,,,,4,,,59,63
211920,note_on,,,,,0,0,6,,,,3,,,51,63
211920,note_on,,,,,484,0,6,,,,3,,,59,63
211920,note_on,,,,,484,0,1,,,,0,,,78,63
211920,note_on,,,,,6096,0,3,,,,1,,,71,63
211920,note_on,,,,,528,0,14,,,,12,,,54,63
211992,note_on,,,,,72,0,3,,,,1,,,63,0
211992,note_on,,,,,72,0,6,,,,3,,,51,0
211992,note_on,,,,,0,0,6,,,,3,,,59,0
211992,note_on,,,,,72,0,15,,,,13,,,42,0
211992,note_on,,,,,72,0,1,,,,0,,,78,0
211992,note_on,,,,,0,0,8,,,,4,,,66,0
211992,note_on,,,,,0,0,3,,,,1,,,71,0
211992,note_on,,,,,72,0,14,,,,12,,,54,0
211992,note_on,,,,,72,0,8,,,,4,,,59,0
212040,note_on,,,,,0,0,6,,,,3,,,54,63
212040,note_on,,,,,48,0,14,,,,12,,,54,63
212040,note_on,,,,,48,0,3,,,,1,,,73,63
212040,note_on,,,,,48,0,1,,,,0,,,78,63
212040,note_on,,,,,48,0,15,,,,13,,,42,63
212040,note_on,,,,,48,0,6,,,,3,,,61,63
212040,note_on,,,,,0,0,3,,,,1,,,66,63
212040,note_on,,,,,0,0,8,,,,4,,,61,63
212040,note_on,,,,,48,0,8,,,,4,,,66,63
212112,note_on,,,,,72,0,3,,,,1,,,66,0
212112,note_on,,,,,72,0,14,,,,12,,,54,0
212112,note_on,,,,,0,0,3,,,,1,,,73,0
212112,note_on,,,,,0,0,6,,,,3,,,61,0
212112,note_on,,,,,72,0,8,,,,4,,,61,0
212112,note_on,,,,,72,0,6,,,,3,,,54,0
212112,note_on,,,,,72,0,15,,,,13,,,42,0
212112,note_on,,,,,0,0,8,,,,4,,,66,0
212112,note_on,,,,,72,0,1,,,,0,,,78,0
212160,note_on,,,,,48,0,3,,,,1,,,71,63
212160,note_on,,,,,48,0,8,,,,4,,,63,63
212160,note_on,,,,,48,0,14,,,,12,,,54,63
212160,note_on,,,,,0,0,8,,,,4,,,66,63
212160,note_on,,,,,0,0,6,,,,3,,,63,63
212160,note_on,,,,,48,0,1,,,,0,,,78,63
212160,note_on,,,,,48,0,15,,,,13,,,42,63
212160,note_on,,,,,48,0,6,,,,3,,,59,63
212160,note_on,,,,,0,0,3,,,,1,,,75,63
212448,note_on,,,,,288,0,15,,,,13,,,42,0
212448,note_on,,,,,288,0,14,,,,12,,,54,0
213100,note_on,,,,,940,0,1,,,,0,,,78,0
213100,note_on,,,,,0,0,3,,,,1,,,71,0
213100,note_on,,,,,0,0,8,,,,4,,,63,0
213100,note_on,,,,,940,0,8,,,,4,,,66,0
213100,note_on,,,,,940,0,6,,,,3,,,63,0
213100,note_on,,,,,940,0,3,,,,1,,,75,0
213100,note_on,,,,,0,0,6,,,,3,,,59,0
213840,note_on,,,,,1392,0,14,,,,12,,,54,63
213840,note_on,,,,,0,0,6,,,,3,,,54,63
213840,note_on,,,,,740,0,1,,,,0,,,78,63
213840,note_on,,,,,0,0,8,,,,4,,,61,63
213840,note_on,,,,,740,0,8,,,,4,,,66,63
213840,note_on,,,,,1392,0,15,,,,13,,,42,63
213840,note_on,,,,,0,0,3,,,,1,,,66,63
213840,note_on,,,,,740,0,3,,,,1,,,73,63
213840,note_on,,,,,740,0,6,,,,3,,,61,63
213912,note_on,,,,,0,0,8,,,,4,,,66,0
213912,note_on,,,,,0,0,6,,,,3,,,61,0
213912,note_on,,,,,72,0,8,,,,4,,,61,0
213912,note_on,,,,,0,0,3,,,,1,,,73,0
213912,note_on,,,,,72,0,14,,,,12,,,54,0
213912,note_on,,,,,72,0,3,,,,1,,,66,0
213912,note_on,,,,,72,0,1,,,,0,,,78,0
213912,note_on,,,,,72,0,6,,,,3,,,54,0
213912,note_on,,,,,72,0,15,,,,13,,,42,0
213960,note_on,,,,,0,0,3,,,,1,,,71,63
213960,note_on,,,,,48,0,1,,,,0,,,78,63
213960,note_on,,,,,48,0,6,,,,3,,,59,63
213960,note_on,,,,,0,0,6,,,,3,,,63,63
213960,note_on,,,,,48,0,15,,,,13,,,42,63
213960,note_on,,,,,48,0,8,,,,4,,,66,63
213960,note_on,,,,,0,0,8,,,,4,,,63,63
213960,note_on,,,,,48,0,3,,,,1,,,75,63
213960,note_on,,,,,48,0,14,,,,12,,,54,63
214032,note_on,,,,,72,0,15,,,,13,,,42,0
214032,note_on,,,,,0,0,6,,,,3,,,59,0
214032,note_on,,,,,72,0,6,,,,3,,,63,0
214032,note_on,,,,,0,0,3,,,,1,,,75,0
214032,note_on,,,,,72,0,3,,,,1,,,71,0
214032,note_on,,,,,72,0,14,,,,12,,,54,0
214032,note_on,,,,,72,0,1,,,,0,,,78,0
214032,note_on,,,,,0,0,8,,,,4,,,66,0
214032,note_on,,,,,72,0,8,,,,4,,,63,0
214080,note_on,,,,,0,0,6,,,,3,,,64,63
214080,note_on,,,,,48,0,6,,,,3,,,61,63
214080,note_on,,,,,48,0,15,,,,13,,,42,63
214080,note_on,,,,,48,0,1,,,,0,,,78,63
214080,note_on,,,,,48,0,3,,,,1,,,76,63
214080,note_on,,,,,0,0,3,,,,1,,,73,63
214080,note_on,,,,,0,0,8,,,,4,,,64,63
214080,note_on,,,,,48,0,14,,,,12,,,54,63
214080,note_on,,,,,48,0,8,,,,4,,,66,63
214368,note_on,,,,,288,0,15,,,,13,,,42,0
214368,note_on,,,,,288,0,14,,,,12,,,54,0
215020,note_on,,,,,940,0,6,,,,3,,,64,0
215020,note_on,,,,,940,0,8,,,,4,,,64,0
215020,note_on,,,,,0,0,8,,,,4,,,66,0
215020,note_on,,,,,940,0,1,,,,0,,,78,0
215020,note_on,,,,,940,0,3,,,,1,,,73,0
215020,note_on,,,,,0,0,3,,,,1,,,76,0
215020,note_on,,,,,0,0,6,,,,3,,,61,0
215760,note_on,,,,,0,0,3,,,,1,,,75,63
215760,note_on,,,,,740,0,3,,,,1,,,71,63
215760,note_on,,,,,740,0,1,,,,0,,,78,63
215760,note_on,,,,,1392,0,14,,,,12,,,54,63
215760,note_on,,,,,0,0,8,,,,4,,,63,63
215760,note_on,,,,,0,0,6,,,,3,,,59,63
215760,note_on,,,,,740,0,8,,,,4,,,59,63
215760,note_on,,,,,1392,0,15,,,,13,,,42,63
215760,note_on,,,,,740,0,6,,,,3,,,63,63
215832,note_on,,,,,72,0,6,,,,3,,,59,0
215832,note_on,,,,,0,0,6,,,,3,,,63,0
215832,note_on,,,,,72,0,8,,,,4,,,63,0
215832,note_on,,,,,0,0,3,,,,1,,,71,0
215832,note_on,,,,,72,0,3,,,,1,,,75,0
215832,note_on,,,,,72,0,15,,,,13,,,42,0
215832,note_on,,,,,0,0,8,,,,4,,,59,0
215832,note_on,,,,,72,0,1,,,,0,,,78,0
215832,note_on,,,,,72,0,14,,,,12,,,54,0
215880,note_on,,,,,48,0,8,,,,4,,,61,63
215880,note_on,,,,,0,0,3,,,,1,,,73,63
215880,note_on,,,,,48,0,1,,,,0,,,78,63
215880,note_on,,,,,0,0,8,,,,4,,,64,63
215880,note_on,,,,,48,0,15,,,,13,,,42,63
215880,note_on,,,,,0,0,6,,,,3,,,65,63
215880,note_on,,,,,48,0,14,,,,12,,,54,63
215880,note_on,,,,,48,0,6,,,,3,,,60,63
215880,note_on,,,,,48,0,3,,,,1,,,76,63
215952,note_on,,,,,72,0,1,,,,0,,,78,0
215952,note_on,,,,,0,0,8,,,,4,,,61,0
215952,note_on,,,,,0,0,6,,,,3,,,60,0
215952,note_on,,,,,72,0,6,,,,3,,,65,0
215952,note_on,,,,,72,0,15,,,,13,,,42,0
215952,note_on,,,,,72,0,3,,,,1,,,73,0
215952,note_on,,,,,0,0,3,,,,1,,,76,0
215952,note_on,,,,,72,0,14,,,,12,,,54,0
215952,note_on,,,,,72,0,8,,,,4,,,64,0
216000,note_on,,,,,4564,0,4,,,,2,,,83,63
216000,note_on,,,,,48,0,8,,,,4,,,63,63
216000,note_on,,,,,0,0,8,,,,4,,,66,63
216000,note_on,,,,,48,0,1,,,,0,,,78,63
216000,note_on,,,,,48,0,6,,,,3,,,66,63
216000,note_on,,,,,48,0,3,,,,1,,,75,63
216000,note_on,,,,,48,0,15,,,,13,,,47,63
216000,note_on,,,,,0,0,6,,,,3,,,63,63
216000,note_on,,,,,48,0,14,,,,12,,,59,63
216000,note_on,,,,,0,0,3,,,,1,,,78,63
216000,note_on,,,,,4564,0,10,,,,6,,,71,63
216000,note_on,,,,,0,0,4,,,,2,,,71,63
216192,note_on,,,,,192,0,6,,,,3,,,63,0
216192,note_on,,,,,0,0,3,,,,1,,,75,0
216192,note_on,,,,,192,0,3,,,,1,,,78,0
216192,note_on,,,,,0,0,8,,,,4,,,63,0
216192,note_on,,,,,0,0,6,,,,3,,,66,0
216192,note_on,,,,,192,0,8,,,,4,,,66,0
216288,note_on,,,,,288,0,14,,,,12,,,59,0
216288,note_on,,,,,288,0,10,,,,6,,,71,0
216288,note_on,,,,,288,0,15,,,,13,,,47,0
216288,note_on,,,,,288,0,1,,,,0,,,78,0
216288,note_on,,,,,288,0,4,,,,2,,,71,0
216288,note_on,,,,,0,0,4,,,,2,,,83,0
216320,note_on,,,,,0,0,8,,,,4,,,63,63
216320,note_on,,,,,128,0,8,,,,4,,,59,63
216320,note_on,,,,,0,0,3,,,,1,,,75,63
216320,note_on,,,,,128,0,3,,,,1,,,71,63
216320,note_on,,,,,0,0,6,,,,3,,,63,63
216320,note_on,,,,,128,0,6,,,,3,,,59,63
216480,note_on,,,,,192,0,10,,,,6,,,71,63
216480,note_on,,,,,192,0,4,,,,2,,,71,63
216480,note_on,,,,,192,0,14,,,,12,,,52,63
216480,note_on,,,,,192,0,15,,,,13,,,40,63
216480,note_on,,,,,0,0,4,,,,2,,,83,63
216512,note_on,,,,,192,0,8,,,,4,,,63,0
216512,note_on,,,,,192,0,3,,,,1,,,75,0
216512,note_on,,,,,0,0,8,,,,4,,,59,0
216512,note_on,,,,,0,0,3,,,,1,,,71,0
216512,note_on,,,,,0,0,6,,,,3,,,59,0
216512,note_on,,,,,192,0,6,,,,3,,,63,0
216640,note_on,,,,,128,0,8,,,,4,,,64,63
216640,note_on,,,,,0,0,6,,,,3,,,59,63
216640,note_on,,,,,128,0,6,,,,3,,,56,63
216640,note_on,,,,,0,0,8,,,,4,,,68,63
216640,note_on,,,,,0,0,3,,,,1,,,80,63
216640,note_on,,,,,128,0,3,,,,1,,,76,63
216768,note_on,,,,,288,0,10,,,,6,,,71,0
216768,note_on,,,,,288,0,14,,,,12,,,52,0
216768,note_on,,,,,288,0,15,,,,13,,,40,0
216768,note_on,,,,,288,0,4,,,,2,,,83,0
216768,note_on,,,,,0,0,4,,,,2,,,71,0
216832,note_on,,,,,192,0,6,,,,3,,,59,0
216832,note_on,,,,,0,0,3,,,,1,,,76,0
216832,note_on,,,,,192,0,3,,,,1,,,80,0
216832,note_on,,,,,0,0,8,,,,4,,,64,0
216832,note_on,,,,,192,0,8,,,,4,,,68,0
216832,note_on,,,,,0,0,6,,,,3,,,56,0
216960,note_on,,,,,192,0,10,,,,6,,,71,63
216960,note_on,,,,,128,0,3,,,,1,,,75,63
216960,note_on,,,,,0,0,6,,,,3,,,63,63
216960,note_on,,,,,128,0,6,,,,3,,,59,63
216960,note_on,,,,,0,0,8,,,,4,,,63,63
216960,note_on,,,,,0,0,4,,,,2,,,71,63
216960,note_on,,,,,192,0,15,,,,13,,,47,63
216960,note_on,,,,,192,0,4,,,,2,,,83,63
216960,note_on,,,,,128,0,8,,,,4,,,66,63
216960,note_on,,,,,192,0,14,,,,12,,,59,63
216960,note_on,,,,,0,0,3,,,,1,,,78,63
217152,note_on,,,,,192,0,6,,,,3,,,63,0
217152,note_on,,,,,0,0,6,,,,3,,,59,0
217152,note_on,,,,,0,0,8,,,,4,,,66,0
217152,note_on,,,,,192,0,8,,,,4,,,63,0
217216,note_on,,,,,256,0,3,,,,1,,,78,0
217248,note_on,,,,,288,0,10,,,,6,,,71,0
217248,note_on,,,,,288,0,4,,,,2,,,71,0
217248,note_on,,,,,0,0,4,,,,2,,,83,0
217248,note_on,,,,,288,0,15,,,,13,,,47,0
217248,note_on,,,,,288,0,14,,,,12,,,59,0
217280,note_on,,,,,128,0,6,,,,3,,,54,63
217280,note_on,,,,,0,0,6,,,,3,,,59,63
217280,note_on,,,,,0,0,8,,,,4,,,59,63
217280,note_on,,,,,128,0,8,,,,4,,,63,63
217440,note_on,,,,,192,0,14,,,,12,,,63,63
217440,note_on,,,,,0,0,4,,,,2,,,78,63
217440,note_on,,,,,192,0,4,,,,2,,,71,63
217440,note_on,,,,,192,0,15,,,,13,,,51,63
217440,note_on,,,,,224,0,3,,,,1,,,71,63
217472,note_on,,,,,192,0,8,,,,4,,,59,0
217472,note_on,,,,,0,0,8,,,,4,,,63,0
217472,note_on,,,,,0,0,6,,,,3,,,54,0
217472,note_on,,,,,192,0,6,,,,3,,,59,0
217536,note_on,,,,,96,0,3,,,,1,,,75,0
217600,note_on,,,,,64,0,3,,,,1,,,83,63
217600,note_on,,,,,128,0,8,,,,4,,,71,63
217600,note_on,,,,,0,0,6,,,,3,,,51,63
217600,note_on,,,,,128,0,6,,,,3,,,54,63
217600,note_on,,,,,0,0,8,,,,4,,,59,63
217728,note_on,,,,,288,0,14,,,,12,,,63,0
217728,note_on,,,,,0,0,4,,,,2,,,71,0
217728,note_on,,,,,288,0,4,,,,2,,,78,0
217728,note_on,,,,,288,0,15,,,,13,,,51,0
217792,note_on,,,,,0,0,6,,,,3,,,54,0
217792,note_on,,,,,0,0,8,,,,4,,,71,0
217792,note_on,,,,,192,0,8,,,,4,,,59,0
217792,note_on,,,,,192,0,6,,,,3,,,51,0
217856,note_on,,,,,0,0,3,,,,1,,,71,0
217856,note_on,,,,,256,0,3,,,,1,,,83,0
217920,note_on,,,,,192,0,14,,,,12,,,66,63
217920,note_on,,,,,128,0,8,,,,4,,,66,63
217920,note_on,,,,,0,0,4,,,,2,,,66,63
217920,note_on,,,,,192,0,4,,,,2,,,78,63
217920,note_on,,,,,672,0,10,,,,6,,,78,63
217920,note_on,,,,,128,0,6,,,,3,,,58,63
217920,note_on,,,,,192,0,15,,,,13,,,54,63
217920,note_on,,,,,64,0,3,,,,1,,,70,63
217920,note_on,,,,,0,0,3,,,,1,,,78,63
217920,note_on,,,,,0,0,6,,,,3,,,54,63
218112,note_on,,,,,192,0,6,,,,3,,,54,0
218112,note_on,,,,,0,0,6,,,,3,,,58,0
218112,note_on,,,,,192,0,8,,,,4,,,66,0
218176,note_on,,,,,256,0,3,,,,1,,,78,0
218208,note_on,,,,,288,0,4,,,,2,,,66,0
218208,note_on,,,,,0,0,4,,,,2,,,78,0
218208,note_on,,,,,288,0,15,,,,13,,,54,0
218208,note_on,,,,,288,0,14,,,,12,,,66,0
218208,note_on,,,,,288,0,10,,,,6,,,78,0
218240,note_on,,,,,64,0,3,,,,1,,,73,63
218240,note_on,,,,,128,0,6,,,,3,,,61,63
218240,note_on,,,,,128,0,8,,,,4,,,61,63
218336,note_on,,,,,96,0,3,,,,1,,,70,0
218400,note_on,,,,,64,0,3,,,,1,,,70,63
218400,note_on,,,,,192,0,14,,,,12,,,54,63
218400,note_on,,,,,192,0,15,,,,13,,,42,63
218432,note_on,,,,,192,0,8,,,,4,,,61,0
218432,note_on,,,,,192,0,6,,,,3,,,61,0
218496,note_on,,,,,96,0,3,,,,1,,,73,0
218560,note_on,,,,,64,0,3,,,,1,,,78,63
218560,note_on,,,,,128,0,8,,,,4,,,66,63
218560,note_on,,,,,128,0,6,,,,3,,,54,63
218688,note_on,,,,,288,0,14,,,,12,,,54,0
218688,note_on,,,,,288,0,15,,,,13,,,42,0
218752,note_on,,,,,192,0,8,,,,4,,,66,0
218752,note_on,,,,,192,0,6,,,,3,,,54,0
218816,note_on,,,,,256,0,3,,,,1,,,78,0
218816,note_on,,,,,0,0,3,,,,1,,,70,0
218880,note_on,,,,,0,0,1,,,,0,,,80,63
218880,note_on,,,,,2592,0,1,,,,0,,,83,63
218880,note_on,,,,,128,0,8,,,,4,,,47,63
218880,note_on,,,,,672,0,4,,,,2,,,71,63
218880,note_on,,,,,0,0,4,,,,2,,,68,63
218880,note_on,,,,,128,0,6,,,,3,,,41,63
218880,note_on,,,,,7488,0,16,,,,14,,,29,63
218880,note_on,,,,,192,0,15,,,,13,,,41,63
218880,note_on,,,,,7444,0,11,,,,7,,,47,38
218976,note_on,,,,,96,0,11,,,,7,,,47,0
219000,note_on,,,,,24,0,11,,,,7,,,47,38
219096,note_on,,,,,96,0,11,,,,7,,,47,0
219120,note_on,,,,,240,0,15,,,,13,,,41,0
219120,note_on,,,,,9120,0,13,,,,11,,,56,38
219120,note_on,,,,,0,0,15,,,,13,,,44,63
219120,note_on,,,,,24,0,11,,,,7,,,47,38
219120,note_on,,,,,8160,0,12,,,,10,,,56,63
219216,note_on,,,,,96,0,11,,,,7,,,47,0
219240,note_on,,,,,24,0,11,,,,7,,,47,38
219336,note_on,,,,,96,0,11,,,,7,,,47,0
219360,note_on,,,,,240,0,12,,,,10,,,56,0
219360,note_on,,,,,0,0,12,,,,10,,,59,63
219360,note_on,,,,,0,0,15,,,,13,,,47,63
219360,note_on,,,,,240,0,13,,,,11,,,56,0
219360,note_on,,,,,0,0,13,,,,11,,,59,38
219360,note_on,,,,,240,0,15,,,,13,,,44,0
219360,note_on,,,,,24,0,11,,,,7,,,47,38
219456,note_on,,,,,96,0,11,,,,7,,,47,0
219480,note_on,,,,,24,0,11,,,,7,,,47,38
219576,note_on,,,,,96,0,11,,,,7,,,47,0
219600,note_on,,,,,0,0,12,,,,10,,,61,63
219600,note_on,,,,,240,0,13,,,,11,,,59,0
219600,note_on,,,,,240,0,12,,,,10,,,59,0
219600,note_on,,,,,0,0,10,,,,6,,,71,63
219600,note_on,,,,,24,0,11,,,,7,,,47,38
219600,note_on,,,,,240,0,15,,,,13,,,47,0
219600,note_on,,,,,0,0,15,,,,13,,,49,63
219600,note_on,,,,,0,0,13,,,,11,,,61,38
219600,note_on,,,,,1392,0,10,,,,6,,,59,63
219696,note_on,,,,,96,0,10,,,,6,,,71,0
219696,note_on,,,,,96,0,11,,,,7,,,47,0
219696,note_on,,,,,0,0,10,,,,6,,,59,0
219720,note_on,,,,,0,0,10,,,,6,,,59,63
219720,note_on,,,,,24,0,11,,,,7,,,47,38
219720,note_on,,,,,24,0,10,,,,6,,,71,63
219816,note_on,,,,,0,0,10,,,,6,,,71,0
219816,note_on,,,,,96,0,11,,,,7,,,47,0
219816,note_on,,,,,96,0,10,,,,6,,,59,0
219840,note_on,,,,,240,0,13,,,,11,,,61,0
219840,note_on,,,,,240,0,15,,,,13,,,49,0
219840,note_on,,,,,0,0,15,,,,13,,,52,63
219840,note_on,,,,,24,0,10,,,,6,,,71,63
219840,note_on,,,,,24,0,11,,,,7,,,47,38
219840,note_on,,,,,240,0,12,,,,10,,,61,0
219840,note_on,,,,,0,0,12,,,,10,,,64,63
219840,note_on,,,,,0,0,13,,,,11,,,64,38
219840,note_on,,,,,0,0,10,,,,6,,,59,63
219936,note_on,,,,,96,0,11,,,,7,,,47,0
219960,note_on,,,,,24,0,11,,,,7,,,47,38
220056,note_on,,,,,96,0,11,,,,7,,,47,0
220080,note_on,,,,,240,0,15,,,,13,,,52,0
220080,note_on,,,,,0,0,13,,,,11,,,61,38
220080,note_on,,,,,240,0,13,,,,11,,,64,0
220080,note_on,,,,,240,0,12,,,,10,,,64,0
220080,note_on,,,,,0,0,12,,,,10,,,61,63
220080,note_on,,,,,24,0,11,,,,7,,,47,38
220080,note_on,,,,,0,0,15,,,,13,,,49,63
220176,note_on,,,,,96,0,11,,,,7,,,47,0
220200,note_on,,,,,24,0,11,,,,7,,,47,38
220296,note_on,,,,,96,0,11,,,,7,,,47,0
220320,note_on,,,,,240,0,13,,,,11,,,61,0
220320,note_on,,,,,240,0,15,,,,13,,,49,0
220320,note_on,,,,,0,0,13,,,,11,,,62,38
220320,note_on,,,,,0,0,12,,,,10,,,62,63
220320,note_on,,,,,240,0,12,,,,10,,,61,0
220320,note_on,,,,,24,0,11,,,,7,,,47,38
220320,note_on,,,,,1632,0,14,,,,12,,,50,38
220320,note_on,,,,,0,0,15,,,,13,,,50,63
220416,note_on,,,,,96,0,11,,,,7,,,47,0
220440,note_on,,,,,24,0,11,,,,7,,,47,38
220536,note_on,,,,,96,0,11,,,,7,,,47,0
220560,note_on,,,,,240,0,12,,,,10,,,62,0
220560,note_on,,,,,0,0,12,,,,10,,,68,63
220560,note_on,,,,,240,0,15,,,,13,,,50,0
220560,note_on,,,,,0,0,15,,,,13,,,56,63
220560,note_on,,,,,240,0,14,,,,12,,,50,0
220560,note_on,,,,,24,0,11,,,,7,,,47,38
220560,note_on,,,,,240,0,13,,,,11,,,62,0
220560,note_on,,,,,0,0,13,,,,11,,,68,38
220560,note_on,,,,,0,0,14,,,,12,,,56,38
220656,note_on,,,,,96,0,11,,,,7,,,47,0
220680,note_on,,,,,24,0,11,,,,7,,,47,38
220776,note_on,,,,,96,0,11,,,,7,,,47,0
220800,note_on,,,,,240,0,14,,,,12,,,56,0
220800,note_on,,,,,0,0,12,,,,10,,,71,63
220800,note_on,,,,,240,0,13,,,,11,,,68,0
220800,note_on,,,,,0,0,13,,,,11,,,59,38
220800,note_on,,,,,0,0,14,,,,12,,,59,38
220800,note_on,,,,,240,0,15,,,,13,,,56,0
220800,note_on,,,,,240,0,12,,,,10,,,68,0
220800,note_on,,,,,24,0,11,,,,7,,,47,38
220800,note_on,,,,,0,0,15,,,,13,,,59,63
220896,note_on,,,,,96,0,11,,,,7,,,47,0
220920,note_on,,,,,24,0,11,,,,7,,,47,38
220992,note_on,,,,,192,0,15,,,,13,,,59,0
221016,note_on,,,,,96,0,11,,,,7,,,47,0
221040,note_on,,,,,0,0,13,,,,11,,,61,38
221040,note_on,,,,,24,0,11,,,,7,,,47,38
221040,note_on,,,,,240,0,13,,,,11,,,59,0
221040,note_on,,,,,0,0,12,,,,10,,,73,63
221040,note_on,,,,,240,0,14,,,,12,,,59,0
221040,note_on,,,,,0,0,14,,,,12,,,61,38
221040,note_on,,,,,240,0,12,,,,10,,,71,0
221136,note_on,,,,,96,0,11,,,,7,,,47,0
221160,note_on,,,,,24,0,11,,,,7,,,47,38
221256,note_on,,,,,96,0,11,,,,7,,,47,0
221280,note_on,,,,,24,0,11,,,,7,,,47,38
221280,note_on,,,,,240,0,14,,,,12,,,61,0
221280,note_on,,,,,0,0,14,,,,12,,,64,38
221280,note_on,,,,,240,0,12,,,,10,,,73,0
221280,note_on,,,,,240,0,13,,,,11,,,61,0
221280,note_on,,,,,0,0,12,,,,10,,,76,63
221280,note_on,,,,,0,0,13,,,,11,,,64,38
221376,note_on,,,,,96,0,11,,,,7,,,47,0
221376,note_on,,,,,0,0,10,,,,6,,,71,0
221376,note_on,,,,,1536,0,10,,,,6,,,59,0
221400,note_on,,,,,24,0,11,,,,7,,,47,38
221496,note_on,,,,,96,0,11,,,,7,,,47,0
221520,note_on,,,,,0,0,10,,,,6,,,59,63
221520,note_on,,,,,24,0,11,,,,7,,,47,38
221520,note_on,,,,,0,0,13,,,,11,,,61,38
221520,note_on,,,,,144,0,10,,,,6,,,71,63
221520,note_on,,,,,240,0,14,,,,12,,,64,0
221520,note_on,,,,,0,0,14,,,,12,,,61,38
221520,note_on,,,,,0,0,12,,,,10,,,73,63
221520,note_on,,,,,240,0,12,,,,10,,,76,0
221520,note_on,,,,,240,0,13,,,,11,,,64,0
221616,note_on,,,,,0,0,10,,,,6,,,71,0
221616,note_on,,,,,96,0,10,,,,6,,,59,0
221616,note_on,,,,,96,0,11,,,,7,,,47,0
221640,note_on,,,,,24,0,11,,,,7,,,47,38
221640,note_on,,,,,24,0,10,,,,6,,,59,63
221640,note_on,,,,,0,0,10,,,,6,,,71,63
221736,note_on,,,,,96,0,10,,,,6,,,71,0
221736,note_on,,,,,0,0,10,,,,6,,,59,0
221736,note_on,,,,,96,0,11,,,,7,,,47,0
221760,note_on,,,,,240,0,13,,,,11,,,61,0
221760,note_on,,,,,0,0,13,,,,11,,,62,38
221760,note_on,,,,,0,0,14,,,,12,,,62,38
221760,note_on,,,,,24,0,10,,,,6,,,59,63
221760,note_on,,,,,240,0,14,,,,12,,,61,0
221760,note_on,,,,,240,0,12,,,,10,,,73,0
221760,note_on,,,,,0,0,12,,,,10,,,74,63
221760,note_on,,,,,0,0,10,,,,6,,,71,63
221760,note_on,,,,,24,0,11,,,,7,,,47,38
221856,note_on,,,,,96,0,11,,,,7,,,47,0
221880,note_on,,,,,24,0,11,,,,7,,,47,38
221976,note_on,,,,,96,0,11,,,,7,,,47,0
222000,note_on,,,,,0,0,12,,,,10,,,80,63
222000,note_on,,,,,240,0,12,,,,10,,,74,0
222000,note_on,,,,,240,0,13,,,,11,,,62,0
222000,note_on,,,,,0,0,13,,,,11,,,68,38
222000,note_on,,,,,24,0,11,,,,7,,,47,38
222000,note_on,,,,,0,0,14,,,,12,,,68,38
222000,note_on,,,,,240,0,14,,,,12,,,62,0
222096,note_on,,,,,96,0,11,,,,7,,,47,0
222120,note_on,,,,,24,0,11,,,,7,,,47,38
222216,note_on,,,,,96,0,11,,,,7,,,47,0
222240,note_on,,,,,240,0,13,,,,11,,,68,0
222240,note_on,,,,,240,0,14,,,,12,,,68,0
222240,note_on,,,,,0,0,14,,,,12,,,71,38
222240,note_on,,,,,240,0,12,,,,10,,,80,0
222240,note_on,,,,,0,0,12,,,,10,,,83,63
222240,note_on,,,,,0,0,13,,,,11,,,71,38
222240,note_on,,,,,24,0,11,,,,7,,,47,38
222336,note_on,,,,,96,0,11,,,,7,,,47,0
222360,note_on,,,,,24,0,11,,,,7,,,47,38
222456,note_on,,,,,96,0,11,,,,7,,,47,0
222480,note_on,,,,,24,0,11,,,,7,,,47,38
222480,note_on,,,,,0,0,13,,,,11,,,68,38
222480,note_on,,,,,0,0,14,,,,12,,,68,38
222480,note_on,,,,,240,0,14,,,,12,,,71,0
222480,note_on,,,,,240,0,13,,,,11,,,71,0
222480,note_on,,,,,0,0,12,,,,10,,,80,63
222480,note_on,,,,,240,0,12,,,,10,,,83,0
222576,note_on,,,,,96,0,11,,,,7,,,47,0
222600,note_on,,,,,24,0,11,,,,7,,,47,38
222696,note_on,,,,,96,0,11,,,,7,,,47,0
222720,note_on,,,,,240,0,14,,,,12,,,68,0
222720,note_on,,,,,24,0,11,,,,7,,,47,38
222720,note_on,,,,,240,0,13,,,,11,,,68,0
222720,note_on,,,,,0,0,13,,,,11,,,62,38
222720,note_on,,,,,0,0,14,,,,12,,,62,38
222720,note_on,,,,,240,0,12,,,,10,,,80,0
222720,note_on,,,,,0,0,12,,,,10,,,74,63
222816,note_on,,,,,96,0,11,,,,7,,,47,0
222840,note_on,,,,,24,0,11,,,,7,,,47,38
222936,note_on,,,,,96,0,11,,,,7,,,47,0
222960,note_on,,,,,240,0,12,,,,10,,,74,0
222960,note_on,,,,,240,0,14,,,,12,,,62,0
222960,note_on,,,,,240,0,13,,,,11,,,62,0
222960,note_on,,,,,0,0,13,,,,11,,,59,38
222960,note_on,,,,,0,0,12,,,,10,,,71,63
222960,note_on,,,,,24,0,11,,,,7,,,47,38
222960,note_on,,,,,0,0,14,,,,12,,,59,38
223056,note_on,,,,,96,0,11,,,,7,,,47,0
223080,note_on,,,,,24,0,11,,,,7,,,47,38
223176,note_on,,,,,96,0,11,,,,7,,,47,0
223200,note_on,,,,,0,0,13,,,,11,,,56,38
223200,note_on,,,,,240,0,14,,,,12,,,59,0
223200,note_on,,,,,24,0,11,,,,7,,,47,38
223200,note_on,,,,,0,0,14,,,,12,,,56,38
223200,note_on,,,,,240,0,12,,,,10,,,71,0
223200,note_on,,,,,240,0,13,,,,11,,,59,0
223200,note_on,,,,,0,0,12,,,,10,,,68,63
223296,note_on,,,,,96,0,11,,,,7,,,47,0
223320,note_on,,,,,24,0,11,,,,7,,,47,38
223392,note_on,,,,,192,0,14,,,,12,,,56,0
223416,note_on,,,,,96,0,11,,,,7,,,47,0
223440,note_on,,,,,240,0,12,,,,10,,,68,0
223440,note_on,,,,,24,0,11,,,,7,,,47,38
223440,note_on,,,,,48,0,14,,,,12,,,61,38
223440,note_on,,,,,240,0,13,,,,11,,,56,0
223440,note_on,,,,,2448,0,15,,,,13,,,49,63
223440,note_on,,,,,0,0,12,,,,10,,,61,63
223488,note_on,,,,,0,0,1,,,,0,,,83,0
223488,note_on,,,,,1728,0,10,,,,6,,,71,0
223488,note_on,,,,,4608,0,6,,,,3,,,41,0
223488,note_on,,,,,4608,0,4,,,,2,,,68,0
223488,note_on,,,,,0,0,10,,,,6,,,59,0
223488,note_on,,,,,4608,0,1,,,,0,,,80,0
223488,note_on,,,,,0,0,4,,,,2,,,71,0
223536,note_on,,,,,96,0,11,,,,7,,,47,0
223560,note_on,,,,,24,0,11,,,,7,,,47,38
223632,note_on,,,,,4752,0,8,,,,4,,,47,0
223656,note_on,,,,,96,0,11,,,,7,,,47,0
223660,note_on,,,,,4780,0,16,,,,14,,,29,0
223680,note_on,,,,,0,0,4,,,,2,,,68,63
223680,note_on,,,,,24,0,11,,,,7,,,47,38
223680,note_on,,,,,192,0,4,,,,2,,,71,63
223680,note_on,,,,,240,0,14,,,,12,,,61,0
223680,note_on,,,,,0,0,1,,,,0,,,83,63
223680,note_on,,,,,240,0,15,,,,13,,,49,0
223680,note_on,,,,,0,0,15,,,,13,,,50,63
223680,note_on,,,,,0,0,6,,,,3,,,40,63
223680,note_on,,,,,192,0,6,,,,3,,,52,63
223680,note_on,,,,,48,0,8,,,,4,,,62,63
223680,note_on,,,,,0,0,8,,,,4,,,47,63
223680,note_on,,,,,192,0,1,,,,0,,,80,63
223680,note_on,,,,,0,0,14,,,,12,,,62,38
223680,note_on,,,,,20,0,16,,,,14,,,40,63
223680,note_on,,,,,192,0,10,,,,6,,,71,63
223680,note_on,,,,,0,0,12,,,,10,,,62,63
223680,note_on,,,,,240,0,12,,,,10,,,61,0
223680,note_on,,,,,4864,0,3,,,,1,,,74,70
223680,note_on,,,,,0,0,10,,,,6,,,59,63
223872,note_on,,,,,192,0,11,,,,7,,,47,0
223872,note_on,,,,,192,0,12,,,,10,,,62,0
223920,note_on,,,,,0,0,15,,,,13,,,47,63
223920,note_on,,,,,240,0,15,,,,13,,,50,0
223920,note_on,,,,,240,0,14,,,,12,,,62,0
223920,note_on,,,,,0,0,14,,,,12,,,59,38
224160,note_on,,,,,240,0,14,,,,12,,,59,0
224160,note_on,,,,,0,0,14,,,,12,,,56,38
224160,note_on,,,,,240,0,15,,,,13,,,47,0
224160,note_on,,,,,0,0,15,,,,13,,,44,63
224400,note_on,,,,,0,0,15,,,,13,,,40,63
224400,note_on,,,,,240,0,14,,,,12,,,56,0
224400,note_on,,,,,528,0,12,,,,10,,,74,70
224400,note_on,,,,,960,0,13,,,,11,,,62,38
224400,note_on,,,,,0,0,14,,,,12,,,52,38
224400,note_on,,,,,240,0,15,,,,13,,,44,0
224592,note_on,,,,,912,0,16,,,,14,,,40,0
224640,note_on,,,,,48,0,16,,,,14,,,39,63
224640,note_on,,,,,0,0,3,,,,1,,,75,80
224640,note_on,,,,,960,0,3,,,,1,,,74,0
224640,note_on,,,,,960,0,6,,,,3,,,40,0
224640,note_on,,,,,0,0,6,,,,3,,,39,70
224640,note_on,,,,,0,0,13,,,,11,,,63,63
224640,note_on,,,,,240,0,13,,,,11,,,62,0
224640,note_on,,,,,0,0,6,,,,3,,,51,70
224640,note_on,,,,,0,0,6,,,,3,,,52,0
224640,note_on,,,,,0,0,14,,,,12,,,51,38
224640,note_on,,,,,240,0,15,,,,13,,,40,0
224640,note_on,,,,,960,0,8,,,,4,,,62,0
224640,note_on,,,,,0,0,8,,,,4,,,63,70
224640,note_on,,,,,240,0,14,,,,12,,,52,0
224640,note_on,,,,,0,0,15,,,,13,,,39,63
224640,note_on,,,,,240,0,12,,,,10,,,74,0
224640,note_on,,,,,0,0,12,,,,10,,,75,70
224832,note_on,,,,,192,0,15,,,,13,,,39,0
224832,note_on,,,,,192,0,14,,,,12,,,51,0
224880,note_on,,,,,240,0,13,,,,11,,,63,0
224880,note_on,,,,,240,0,12,,,,10,,,75,0
224880,note_on,,,,,0,0,12,,,,10,,,71,70
224880,note_on,,,,,0,0,13,,,,11,,,59,63
225120,note_on,,,,,0,0,12,,,,10,,,68,70
225120,note_on,,,,,0,0,13,,,,11,,,56,63
225120,note_on,,,,,240,0,12,,,,10,,,71,0
225120,note_on,,,,,240,0,13,,,,11,,,59,0
225360,note_on,,,,,240,0,13,,,,11,,,56,0
225360,note_on,,,,,528,0,14,,,,12,,,63,63
225360,note_on,,,,,240,0,12,,,,10,,,68,0
225360,note_on,,,,,528,0,15,,,,13,,,51,70
225360,note_on,,,,,0,0,12,,,,10,,,63,70
225408,note_on,,,,,1728,0,4,,,,2,,,68,0
225408,note_on,,,,,0,0,10,,,,6,,,71,0
225408,note_on,,,,,1728,0,10,,,,6,,,59,0
225408,note_on,,,,,0,0,1,,,,0,,,80,0
225408,note_on,,,,,1728,0,1,,,,0,,,83,0
225408,note_on,,,,,0,0,4,,,,2,,,71,0
225552,note_on,,,,,912,0,16,,,,14,,,39,0
225600,note_on,,,,,0,0,6,,,,3,,,38,70
225600,note_on,,,,,0,0,6,,,,3,,,39,0
225600,note_on,,,,,960,0,6,,,,3,,,51,0
225600,note_on,,,,,48,0,16,,,,14,,,38,70
225600,note_on,,,,,0,0,8,,,,4,,,47,0
225600,note_on,,,,,0,0,8,,,,4,,,64,70
225600,note_on,,,,,0,0,8,,,,4,,,59,70
225600,note_on,,,,,240,0,15,,,,13,,,51,0
225600,note_on,,,,,240,0,14,,,,12,,,63,0
225600,note_on,,,,,0,0,14,,,,12,,,64,63
225600,note_on,,,,,0,0,1,,,,0,,,80,70
225600,note_on,,,,,192,0,1,,,,0,,,83,70
225600,note_on,,,,,960,0,8,,,,4,,,63,0
225600,note_on,,,,,0,0,15,,,,13,,,52,70
225600,note_on,,,,,0,0,6,,,,3,,,50,70
225600,note_on,,,,,0,0,10,,,,6,,,59,70
225600,note_on,,,,,192,0,10,,,,6,,,71,70
225600,note_on,,,,,192,0,4,,,,2,,,68,70
225600,note_on,,,,,0,0,4,,,,2,,,71,70
225600,note_on,,,,,0,0,12,,,,10,,,64,70
225600,note_on,,,,,960,0,3,,,,1,,,75,0
225600,note_on,,,,,0,0,3,,,,1,,,76,80
225600,note_on,,,,,240,0,12,,,,10,,,63,0
225792,note_on,,,,,192,0,12,,,,10,,,64,0
225840,note_on,,,,,0,0,14,,,,12,,,59,63
225840,note_on,,,,,240,0,15,,,,13,,,52,0
225840,note_on,,,,,240,0,14,,,,12,,,64,0
225840,note_on,,,,,0,0,15,,,,13,,,47,70
226080,note_on,,,,,240,0,15,,,,13,,,47,0
226080,note_on,,,,,0,0,14,,,,12,,,56,63
226080,note_on,,,,,240,0,14,,,,12,,,59,0
226080,note_on,,,,,0,0,15,,,,13,,,44,70
226320,note_on,,,,,0,0,14,,,,12,,,50,63
226320,note_on,,,,,960,0,13,,,,11,,,64,70
226320,note_on,,,,,240,0,14,,,,12,,,56,0
226320,note_on,,,,,528,0,12,,,,10,,,76,80
226320,note_on,,,,,240,0,15,,,,13,,,44,0
226320,note_on,,,,,0,0,15,,,,13,,,50,70
226512,note_on,,,,,912,0,16,,,,14,,,38,0
226560,note_on,,,,,48,0,16,,,,14,,,37,70
226560,note_on,,,,,0,0,13,,,,11,,,65,70
226560,note_on,,,,,240,0,13,,,,11,,,64,0
226560,note_on,,,,,960,0,8,,,,4,,,64,0
226560,note_on,,,,,0,0,3,,,,1,,,77,92
226560,note_on,,,,,0,0,15,,,,13,,,49,70
226560,note_on,,,,,240,0,15,,,,13,,,50,0
226560,note_on,,,,,0,0,8,,,,4,,,65,80
226560,note_on,,,,,960,0,6,,,,3,,,50,0
226560,note_on,,,,,0,0,14,,,,12,,,49,63
226560,note_on,,,,,240,0,14,,,,12,,,50,0
226560,note_on,,,,,960,0,3,,,,1,,,76,0
226560,note_on,,,,,240,0,12,,,,10,,,76,0
226560,note_on,,,,,0,0,6,,,,3,,,49,80
226560,note_on,,,,,0,0,6,,,,3,,,37,80
226560,note_on,,,,,0,0,6,,,,3,,,38,0
226560,note_on,,,,,0,0,12,,,,10,,,77,80
226800,note_on,,,,,0,0,12,,,,10,,,71,85
226800,note_on,,,,,240,0,12,,,,10,,,77,0
226800,note_on,,,,,240,0,13,,,,11,,,65,0
226800,note_on,,,,,0,0,13,,,,11,,,59,75
227040,note_on,,,,,240,0,12,,,,10,,,71,0
227040,note_on,,,,,240,0,13,,,,11,,,59,0
227040,note_on,,,,,0,0,13,,,,11,,,56,81
227040,note_on,,,,,0,0,12,,,,10,,,68,91
227232,note_on,,,,,192,0,13,,,,11,,,56,0
227280,note_on,,,,,0,0,12,,,,10,,,65,96
227280,note_on,,,,,240,0,12,,,,10,,,68,0
227280,note_on,,,,,48,0,13,,,,11,,,65,86
227328,note_on,,,,,1728,0,1,,,,0,,,80,0
227328,note_on,,,,,1728,0,10,,,,6,,,59,0
227328,note_on,,,,,0,0,10,,,,6,,,71,0
227328,note_on,,,,,768,0,14,,,,12,,,49,0
227328,note_on,,,,,768,0,15,,,,13,,,49,0
227328,note_on,,,,,0,0,1,,,,0,,,83,0
227328,note_on,,,,,0,0,4,,,,2,,,68,0
227328,note_on,,,,,1728,0,4,,,,2,,,71,0
227472,note_on,,,,,912,0,16,,,,14,,,37,0
227472,note_on,,,,,192,0,12,,,,10,,,65,0
227520,note_on,,,,,192,0,10,,,,6,,,71,80
227520,note_on,,,,,192,0,4,,,,2,,,68,70
227520,note_on,,,,,0,0,4,,,,2,,,71,70
227520,note_on,,,,,192,0,1,,,,0,,,83,70
227520,note_on,,,,,0,0,1,,,,0,,,80,70
227520,note_on,,,,,0,0,10,,,,6,,,59,80
227520,note_on,,,,,48,0,16,,,,14,,,29,108
227520,note_on,,,,,192,0,14,,,,12,,,49,89
227520,note_on,,,,,960,0,6,,,,3,,,49,0
227520,note_on,,,,,0,0,6,,,,3,,,41,80
227520,note_on,,,,,960,0,3,,,,1,,,77,0
227520,note_on,,,,,0,0,3,,,,1,,,83,105
227520,note_on,,,,,960,0,8,,,,4,,,65,0
227520,note_on,,,,,0,0,8,,,,4,,,59,0
227520,note_on,,,,,0,0,8,,,,4,,,71,92
227520,note_on,,,,,0,0,6,,,,3,,,37,0
227520,note_on,,,,,0,0,8,,,,4,,,68,92
227520,note_on,,,,,0,0,13,,,,11,,,71,92
227520,note_on,,,,,48,0,12,,,,10,,,83,102
227520,note_on,,,,,192,0,15,,,,13,,,41,108
227520,note_on,,,,,240,0,13,,,,11,,,65,0
227520,note_on,,,,,0,0,6,,,,3,,,49,80
227760,note_on,,,,,240,0,13,,,,11,,,71,0
227760,note_on,,,,,0,0,13,,,,11,,,68,97
227760,note_on,,,,,0,0,12,,,,10,,,80,107
227760,note_on,,,,,240,0,12,,,,10,,,83,0
228000,note_on,,,,,0,0,12,,,,10,,,77,113
228000,note_on,,,,,240,0,12,,,,10,,,80,0
228000,note_on,,,,,240,0,13,,,,11,,,68,0
228000,note_on,,,,,0,0,13,,,,11,,,65,103
228096,note_on,,,,,576,0,14,,,,12,,,49,0
228240,note_on,,,,,0,0,12,,,,10,,,73,118
228240,note_on,,,,,240,0,13,,,,11,,,65,0
228240,note_on,,,,,240,0,12,,,,10,,,77,0
228240,note_on,,,,,0,0,13,,,,11,,,61,108
228240,note_on,,,,,144,0,14,,,,12,,,61,102
228432,note_on,,,,,192,0,14,,,,12,,,61,0
228432,note_on,,,,,192,0,13,,,,11,,,61,0
228480,note_on,,,,,240,0,12,,,,10,,,73,0
228480,note_on,,,,,0,0,12,,,,10,,,71,105
228480,note_on,,,,,48,0,13,,,,11,,,71,105
228480,set_tempo,,,,,23040,1,0,428571,,,,,,,
228480,note_on,,,,,48,0,14,,,,12,,,59,92
228672,note_on,,,,,192,0,14,,,,12,,,59,0
228672,note_on,,,,,192,0,12,,,,10,,,71,0
228720,note_on,,,,,48,0,14,,,,12,,,56,92
228720,note_on,,,,,240,0,13,,,,11,,,71,0
228720,note_on,,,,,0,0,13,,,,11,,,68,105
228864,note_on,,,,,1344,0,16,,,,14,,,29,0
228864,note_on,,,,,1344,0,6,,,,3,,,41,0
228864,note_on,,,,,0,0,6,,,,3,,,49,0
228864,note_on,,,,,1344,0,8,,,,4,,,68,0
228864,note_on,,,,,1344,0,3,,,,1,,,83,0
228864,note_on,,,,,1344,0,10,,,,6,,,59,0
228864,note_on,,,,,0,0,10,,,,6,,,71,0
228864,note_on,,,,,0,0,4,,,,2,,,68,0
228864,note_on,,,,,1344,0,4,,,,2,,,71,0
228864,note_on,,,,,1344,0,15,,,,13,,,41,0
228864,note_on,,,,,0,0,8,,,,4,,,71,0
228864,note_on,,,,,1344,0,1,,,,0,,,80,0
228864,note_on,,,,,0,0,1,,,,0,,,83,0
228912,note_on,,,,,192,0,14,,,,12,,,56,0
228960,note_on,,,,,48,0,14,,,,12,,,49,92
228960,note_on,,,,,0,0,13,,,,11,,,61,105
228960,note_on,,,,,240,0,13,,,,11,,,68,0
229152,note_on,,,,,192,0,13,,,,11,,,61,0
229152,note_on,,,,,192,0,14,,,,12,,,49,0
229200,note_on,,,,,336,0,16,,,,14,,,30,105
229200,note_on,,,,,48,0,13,,,,11,,,63,105
229200,note_on,,,,,0,0,14,,,,12,,,59,92
229200,note_on,,,,,48,0,14,,,,12,,,51,92
229200,note_on,,,,,528,0,12,,,,10,,,71,105
229200,note_on,,,,,336,0,15,,,,13,,,42,105
229278,note_on,,,,,78,0,14,,,,12,,,59,0
229278,note_on,,,,,78,0,12,,,,10,,,71,0
229278,note_on,,,,,78,0,13,,,,11,,,63,0
229278,note_on,,,,,0,0,14,,,,12,,,51,0
229296,note_on,,,,,96,0,15,,,,13,,,42,0
229296,note_on,,,,,96,0,16,,,,14,,,30,0
229320,note_on,,,,,24,0,16,,,,14,,,30,105
229320,note_on,,,,,0,0,14,,,,12,,,54,92
229320,note_on,,,,,42,0,13,,,,11,,,66,105
229320,note_on,,,,,42,0,12,,,,10,,,73,105
229320,note_on,,,,,24,0,15,,,,13,,,42,105
229320,note_on,,,,,42,0,14,,,,12,,,61,92
229398,note_on,,,,,78,0,13,,,,11,,,66,0
229398,note_on,,,,,78,0,12,,,,10,,,73,0
229398,note_on,,,,,0,0,14,,,,12,,,61,0
229398,note_on,,,,,78,0,14,,,,12,,,54,0
229416,note_on,,,,,96,0,15,,,,13,,,42,0
229416,note_on,,,,,96,0,16,,,,14,,,30,0
229440,note_on,,,,,42,0,12,,,,10,,,75,105
229440,note_on,,,,,42,0,13,,,,11,,,71,105
229440,note_on,,,,,24,0,15,,,,13,,,54,105
229440,note_on,,,,,0,0,14,,,,12,,,59,92
229440,note_on,,,,,42,0,14,,,,12,,,63,92
229440,note_on,,,,,24,0,16,,,,14,,,42,105
230160,note_on,,,,,1296,0,8,,,,4,,,66,116
230160,note_on,,,,,1296,0,10,,,,6,,,78,116
230256,note_on,,,,,96,0,10,,,,6,,,78,0
230256,note_on,,,,,96,0,8,,,,4,,,66,0
230280,note_on,,,,,24,0,10,,,,6,,,78,116
230280,note_on,,,,,24,0,8,,,,4,,,66,116
230376,note_on,,,,,96,0,8,,,,4,,,66,0
230376,note_on,,,,,96,0,10,,,,6,,,78,0
230400,note_on,,,,,24,0,8,,,,4,,,66,116
230400,note_on,,,,,24,0,10,,,,6,,,78,116
230784,note_on,,,,,0,0,14,,,,12,,,63,0
230784,note_on,,,,,1344,0,16,,,,14,,,42,0
230784,note_on,,,,,1344,0,12,,,,10,,,75,0
230784,note_on,,,,,1344,0,13,,,,11,,,71,0
230784,note_on,,,,,1344,0,14,,,,12,,,59,0
230784,note_on,,,,,1344,0,15,,,,13,,,54,0
230976,note_on,,,,,576,0,8,,,,4,,,66,0
230976,note_on,,,,,576,0,10,,,,6,,,78,0
231120,note_on,,,,,336,0,15,,,,13,,,42,105
231120,note_on,,,,,0,0,14,,,,12,,,54,92
231120,note_on,,,,,336,0,14,,,,12,,,61,92
231120,note_on,,,,,336,0,16,,,,14,,,30,105
231120,note_on,,,,,336,0,13,,,,11,,,66,105
231120,note_on,,,,,336,0,12,,,,10,,,73,105
231216,note_on,,,,,96,0,12,,,,10,,,73,0
231216,note_on,,,,,0,0,14,,,,12,,,61,0
231216,note_on,,,,,96,0,16,,,,14,,,30,0
231216,note_on,,,,,96,0,13,,,,11,,,66,0
231216,note_on,,,,,96,0,15,,,,13,,,42,0
231216,note_on,,,,,96,0,14,,,,12,,,54,0
231240,note_on,,,,,0,0,14,,,,12,,,59,92
231240,note_on,,,,,24,0,14,,,,12,,,63,92
231240,note_on,,,,,24,0,16,,,,14,,,30,105
231240,note_on,,,,,24,0,12,,,,10,,,75,105
231240,note_on,,,,,24,0,13,,,,11,,,71,105
231240,note_on,,,,,24,0,15,,,,13,,,42,105
231336,note_on,,,,,96,0,16,,,,14,,,30,0
231336,note_on,,,,,96,0,13,,,,11,,,71,0
231336,note_on,,,,,96,0,15,,,,13,,,42,0
231336,note_on,,,,,96,0,12,,,,10,,,75,0
231336,note_on,,,,,96,0,14,,,,12,,,59,0
231336,note_on,,,,,0,0,14,,,,12,,,63,0
231360,note_on,,,,,24,0,15,,,,13,,,54,105
231360,note_on,,,,,24,0,16,,,,14,,,42,105
231360,note_on,,,,,0,0,14,,,,12,,,61,92
231360,note_on,,,,,24,0,13,,,,11,,,73,105
231360,note_on,,,,,24,0,12,,,,10,,,76,105
231360,note_on,,,,,24,0,14,,,,12,,,64,92
232080,note_on,,,,,1104,0,8,,,,4,,,66,116
232080,note_on,,,,,1104,0,10,,,,6,,,78,116
232176,note_on,,,,,96,0,10,,,,6,,,78,0
232176,note_on,,,,,96,0,8,,,,4,,,66,0
232200,note_on,,,,,24,0,10,,,,6,,,78,116
232200,note_on,,,,,24,0,8,,,,4,,,66,116
232296,note_on,,,,,96,0,8,,,,4,,,66,0
232296,note_on,,,,,96,0,10,,,,6,,,78,0
232320,note_on,,,,,24,0,10,,,,6,,,78,116
232320,note_on,,,,,24,0,8,,,,4,,,66,116
232704,note_on,,,,,1344,0,14,,,,12,,,61,0
232704,note_on,,,,,1344,0,16,,,,14,,,42,0
232704,note_on,,,,,0,0,14,,,,12,,,64,0
232704,note_on,,,,,1344,0,12,,,,10,,,76,0
232704,note_on,,,,,1344,0,15,,,,13,,,54,0
232704,note_on,,,,,1344,0,13,,,,11,,,73,0
232896,note_on,,,,,576,0,10,,,,6,,,78,0
232896,note_on,,,,,576,0,8,,,,4,,,66,0
233040,note_on,,,,,336,0,13,,,,11,,,71,105
233040,note_on,,,,,336,0,16,,,,14,,,35,105
233040,note_on,,,,,336,0,15,,,,13,,,47,105
233040,note_on,,,,,336,0,14,,,,12,,,59,92
233040,note_on,,,,,336,0,12,,,,10,,,75,105
233040,note_on,,,,,0,0,14,,,,12,,,63,92
233112,note_on,,,,,72,0,13,,,,11,,,71,0
233112,note_on,,,,,72,0,16,,,,14,,,35,0
233112,note_on,,,,,72,0,12,,,,10,,,75,0
233112,note_on,,,,,72,0,15,,,,13,,,47,0
233112,note_on,,,,,0,0,14,,,,12,,,59,0
233112,note_on,,,,,72,0,14,,,,12,,,63,0
233160,note_on,,,,,48,0,14,,,,12,,,64,92
233160,note_on,,,,,48,0,12,,,,10,,,76,105
233160,note_on,,,,,48,0,13,,,,11,,,73,105
233160,note_on,,,,,0,0,14,,,,12,,,61,92
233160,note_on,,,,,48,0,15,,,,13,,,47,105
233160,note_on,,,,,48,0,16,,,,14,,,35,105
233232,note_on,,,,,72,0,12,,,,10,,,76,0
233232,note_on,,,,,0,0,14,,,,12,,,64,0
233232,note_on,,,,,72,0,14,,,,12,,,61,0
233232,note_on,,,,,72,0,15,,,,13,,,47,0
233232,note_on,,,,,72,0,13,,,,11,,,73,0
233232,note_on,,,,,72,0,16,,,,14,,,35,0
233280,note_on,,,,,48,0,12,,,,10,,,78,105
233280,note_on,,,,,48,0,16,,,,14,,,47,105
233280,note_on,,,,,48,0,13,,,,11,,,75,105
233280,note_on,,,,,48,0,14,,,,12,,,66,92
233280,note_on,,,,,0,0,14,,,,12,,,63,92
233280,note_on,,,,,48,0,15,,,,13,,,59,105
233472,note_on,,,,,0,0,14,,,,12,,,66,0
233472,note_on,,,,,192,0,13,,,,11,,,75,0
233472,note_on,,,,,192,0,12,,,,10,,,78,0
233472,note_on,,,,,192,0,14,,,,12,,,63,0
233568,note_on,,,,,288,0,16,,,,14,,,47,0
233568,note_on,,,,,288,0,15,,,,13,,,59,0
233600,note_on,,,,,128,0,13,,,,11,,,71,105
233600,note_on,,,,,0,0,14,,,,12,,,59,92
233600,note_on,,,,,128,0,14,,,,12,,,63,92
233600,note_on,,,,,128,0,12,,,,10,,,75,105
233760,note_on,,,,,864,0,8,,,,4,,,71,92
233760,note_on,,,,,864,0,10,,,,6,,,71,92
233760,note_on,,,,,0,0,10,,,,6,,,59,92
233760,note_on,,,,,0,0,8,,,,4,,,59,92
233760,note_on,,,,,192,0,15,,,,13,,,52,125
233760,note_on,,,,,192,0,16,,,,14,,,40,125
233792,note_on,,,,,0,0,14,,,,12,,,63,0
233792,note_on,,,,,192,0,14,,,,12,,,59,0
233792,note_on,,,,,192,0,12,,,,10,,,75,0
233792,note_on,,,,,192,0,13,,,,11,,,71,0
233920,note_on,,,,,0,0,14,,,,12,,,68,112
233920,note_on,,,,,128,0,14,,,,12,,,64,112
233920,note_on,,,,,128,0,12,,,,10,,,80,125
233920,note_on,,,,,128,0,13,,,,11,,,76,125
234048,note_on,,,,,288,0,15,,,,13,,,52,0
234048,note_on,,,,,288,0,16,,,,14,,,40,0
234112,note_on,,,,,192,0,13,,,,11,,,76,0
234112,note_on,,,,,192,0,12,,,,10,,,80,0
234112,note_on,,,,,192,0,14,,,,12,,,68,0
234112,note_on,,,,,0,0,14,,,,12,,,64,0
234144,note_on,,,,,384,0,10,,,,6,,,59,0
234144,note_on,,,,,384,0,8,,,,4,,,59,0
234144,note_on,,,,,0,0,10,,,,6,,,71,0
234144,note_on,,,,,0,0,8,,,,4,,,71,0
234240,note_on,,,,,128,0,12,,,,10,,,78,105
234240,note_on,,,,,96,0,10,,,,6,,,59,92
234240,note_on,,,,,0,0,10,,,,6,,,71,92
234240,note_on,,,,,128,0,13,,,,11,,,75,105
234240,note_on,,,,,128,0,14,,,,12,,,63,92
234240,note_on,,,,,0,0,14,,,,12,,,66,92
234240,note_on,,,,,0,0,8,,,,4,,,71,92
234240,note_on,,,,,96,0,8,,,,4,,,59,92
234240,note_on,,,,,192,0,15,,,,13,,,59,105
234240,note_on,,,,,192,0,16,,,,14,,,47,105
234432,note_on,,,,,192,0,14,,,,12,,,66,0
234432,note_on,,,,,192,0,12,,,,10,,,78,0
234432,note_on,,,,,192,0,13,,,,11,,,75,0
234432,note_on,,,,,0,0,14,,,,12,,,63,0
234528,note_on,,,,,288,0,15,,,,13,,,59,0
234528,note_on,,,,,288,0,16,,,,14,,,47,0
234560,note_on,,,,,0,0,14,,,,12,,,59,92
234560,note_on,,,,,128,0,13,,,,11,,,71,105
234560,note_on,,,,,128,0,14,,,,12,,,63,92
234560,note_on,,,,,128,0,12,,,,10,,,75,105
234624,note_on,,,,,384,0,8,,,,4,,,71,0
234624,note_on,,,,,0,0,8,,,,4,,,59,0
234624,note_on,,,,,384,0,10,,,,6,,,71,0
234624,note_on,,,,,0,0,10,,,,6,,,59,0
234720,note_on,,,,,0,0,8,,,,4,,,59,92
234720,note_on,,,,,96,0,10,,,,6,,,71,92
234720,note_on,,,,,192,0,15,,,,13,,,56,125
234720,note_on,,,,,96,0,8,,,,4,,,71,92
234720,note_on,,,,,0,0,10,,,,6,,,59,92
234720,note_on,,,,,192,0,16,,,,14,,,44,125
234752,note_on,,,,,192,0,12,,,,10,,,75,0
234752,note_on,,,,,0,0,14,,,,12,,,63,0
234752,note_on,,,,,192,0,13,,,,11,,,71,0
234752,note_on,,,,,192,0,14,,,,12,,,59,0
234880,note_on,,,,,128,0,13,,,,11,,,76,125
234880,note_on,,,,,128,0,14,,,,12,,,64,112
234880,note_on,,,,,0,0,14,,,,12,,,71,112
234880,note_on,,,,,128,0,12,,,,10,,,83,125
235008,note_on,,,,,288,0,15,,,,13,,,56,0
235008,note_on,,,,,288,0,16,,,,14,,,44,0
235072,note_on,,,,,192,0,14,,,,12,,,71,0
235072,note_on,,,,,0,0,14,,,,12,,,64,0
235072,note_on,,,,,192,0,13,,,,11,,,76,0
235072,note_on,,,,,192,0,12,,,,10,,,83,0
235104,note_on,,,,,0,0,8,,,,4,,,71,0
235104,note_on,,,,,384,0,10,,,,6,,,59,0
235104,note_on,,,,,384,0,8,,,,4,,,59,0
235104,note_on,,,,,0,0,10,,,,6,,,71,0
235200,note_on,,,,,128,0,12,,,,10,,,78,105
235200,note_on,,,,,128,0,13,,,,11,,,75,105
235200,note_on,,,,,0,0,14,,,,12,,,66,92
235200,note_on,,,,,96,0,10,,,,6,,,71,92
235200,note_on,,,,,0,0,8,,,,4,,,59,92
235200,note_on,,,,,0,0,10,,,,6,,,59,92
235200,note_on,,,,,128,0,14,,,,12,,,63,92
235200,note_on,,,,,192,0,16,,,,14,,,47,105
235200,note_on,,,,,192,0,15,,,,13,,,59,105
235200,note_on,,,,,96,0,8,,,,4,,,71,92
235392,note_on,,,,,192,0,12,,,,10,,,78,0
235392,note_on,,,,,0,0,14,,,,12,,,63,0
235392,note_on,,,,,192,0,14,,,,12,,,66,0
235392,note_on,,,,,192,0,13,,,,11,,,75,0
235488,note_on,,,,,288,0,16,,,,14,,,47,0
235488,note_on,,,,,288,0,15,,,,13,,,59,0
235520,note_on,,,,,0,0,14,,,,12,,,63,92
235520,note_on,,,,,128,0,14,,,,12,,,59,92
235520,note_on,,,,,128,0,13,,,,11,,,71,105
235520,note_on,,,,,128,0,12,,,,10,,,75,105
235584,note_on,,,,,0,0,8,,,,4,,,71,0
235584,note_on,,,,,384,0,10,,,,6,,,59,0
235584,note_on,,,,,384,0,8,,,,4,,,59,0
235584,note_on,,,,,0,0,10,,,,6,,,71,0
235680,note_on,,,,,192,0,15,,,,13,,,51,105
235680,note_on,,,,,192,0,16,,,,14,,,39,105
235712,note_on,,,,,192,0,13,,,,11,,,71,0
235712,note_on,,,,,0,0,14,,,,12,,,59,0
235712,note_on,,,,,192,0,14,,,,12,,,63,0
235712,note_on,,,,,192,0,12,,,,10,,,75,0
235840,note_on,,,,,128,0,14,,,,12,,,59,92
235840,note_on,,,,,128,0,12,,,,10,,,71,105
235840,note_on,,,,,128,0,13,,,,11,,,66,105
235840,note_on,,,,,0,0,14,,,,12,,,54,92
235920,note_on,,,,,336,0,10,,,,6,,,78,116
235920,note_on,,,,,336,0,8,,,,4,,,66,116
235968,note_on,,,,,288,0,15,,,,13,,,51,0
235968,note_on,,,,,288,0,16,,,,14,,,39,0
236016,note_on,,,,,96,0,8,,,,4,,,66,0
236016,note_on,,,,,96,0,10,,,,6,,,78,0
236032,note_on,,,,,0,0,14,,,,12,,,59,0
236032,note_on,,,,,192,0,13,,,,11,,,66,0
236032,note_on,,,,,192,0,12,,,,10,,,71,0
236032,note_on,,,,,192,0,14,,,,12,,,54,0
236040,note_on,,,,,24,0,8,,,,4,,,66,116
236040,note_on,,,,,24,0,10,,,,6,,,78,116
236136,note_on,,,,,96,0,10,,,,6,,,78,0
236136,note_on,,,,,96,0,8,,,,4,,,66,0
236160,note_on,,,,,128,0,14,,,,12,,,61,92
236160,note_on,,,,,0,0,14,,,,12,,,54,92
236160,note_on,,,,,128,0,12,,,,10,,,73,105
236160,note_on,,,,,192,0,16,,,,14,,,42,105
236160,note_on,,,,,128,0,13,,,,11,,,70,105
236160,note_on,,,,,24,0,8,,,,4,,,66,116
236160,note_on,,,,,192,0,15,,,,13,,,54,105
236160,note_on,,,,,24,0,10,,,,6,,,78,116
236736,note_on,,,,,576,0,14,,,,12,,,54,0
236736,note_on,,,,,576,0,16,,,,14,,,42,0
236736,note_on,,,,,576,0,12,,,,10,,,73,0
236736,note_on,,,,,576,0,13,,,,11,,,70,0
236736,note_on,,,,,0,0,14,,,,12,,,61,0
236736,note_on,,,,,576,0,8,,,,4,,,66,0
236736,note_on,,,,,576,0,10,,,,6,,,78,0
236736,note_on,,,,,576,0,15,,,,13,,,54,0
236880,note_on,,,,,144,0,10,,,,6,,,78,116
236880,note_on,,,,,144,0,8,,,,4,,,66,116
236976,note_on,,,,,96,0,8,,,,4,,,66,0
236976,note_on,,,,,96,0,10,,,,6,,,78,0
237000,note_on,,,,,24,0,8,,,,4,,,66,116
237000,note_on,,,,,24,0,10,,,,6,,,78,116
237096,note_on,,,,,96,0,8,,,,4,,,66,0
237096,note_on,,,,,96,0,10,,,,6,,,78,0
237120,note_on,,,,,24,0,8,,,,4,,,66,116
237120,note_on,,,,,8256,0,6,,,,3,,,54,80
237120,note_on,,,,,0,0,6,,,,3,,,66,80
237120,note_on,,,,,24,0,10,,,,6,,,78,116
237120,note_on,,,,,8256,0,3,,,,1,,,66,80
237120,note_on,,,,,8256,0,4,,,,2,,,66,80
237120,note_on,,,,,8256,0,1,,,,0,,,78,80
237440,note_on,,,,,320,0,1,,,,0,,,83,80
237440,note_on,,,,,320,0,6,,,,3,,,66,0
237440,note_on,,,,,0,0,6,,,,3,,,54,0
237440,note_on,,,,,320,0,3,,,,1,,,71,80
237440,note_on,,,,,320,0,4,,,,2,,,59,80
237440,note_on,,,,,0,0,6,,,,3,,,51,80
237440,note_on,,,,,0,0,6,,,,3,,,63,80
237760,note_on,,,,,0,0,4,,,,2,,,61,80
237760,note_on,,,,,0,0,6,,,,3,,,51,0
237760,note_on,,,,,0,0,6,,,,3,,,49,80
237760,note_on,,,,,0,0,1,,,,0,,,85,80
237760,note_on,,,,,320,0,1,,,,0,,,83,0
237760,note_on,,,,,0,0,3,,,,1,,,73,80
237760,note_on,,,,,320,0,3,,,,1,,,71,0
237760,note_on,,,,,320,0,4,,,,2,,,59,0
237760,note_on,,,,,320,0,6,,,,3,,,63,0
237760,note_on,,,,,0,0,6,,,,3,,,61,80
238080,note_on,,,,,0,0,1,,,,0,,,83,80
238080,note_on,,,,,0,0,1,,,,0,,,87,80
238080,note_on,,,,,0,0,1,,,,0,,,78,0
238080,note_on,,,,,320,0,1,,,,0,,,85,0
238080,note_on,,,,,320,0,6,,,,3,,,61,0
238080,note_on,,,,,0,0,6,,,,3,,,49,0
238080,note_on,,,,,0,0,6,,,,3,,,59,80
238080,note_on,,,,,320,0,4,,,,2,,,61,0
238080,note_on,,,,,0,0,4,,,,2,,,63,80
238080,note_on,,,,,0,0,4,,,,2,,,71,80
238080,note_on,,,,,0,0,4,,,,2,,,66,0
238080,note_on,,,,,0,0,6,,,,3,,,47,80
238080,note_on,,,,,0,0,3,,,,1,,,71,80
238080,note_on,,,,,0,0,3,,,,1,,,66,0
238080,note_on,,,,,320,0,3,,,,1,,,73,0
238080,note_on,,,,,0,0,3,,,,1,,,75,80
238400,note_on,,,,,0,0,1,,,,0,,,90,92
238400,note_on,,,,,320,0,3,,,,1,,,75,0
238400,note_on,,,,,0,0,4,,,,2,,,66,80
238400,note_on,,,,,0,0,4,,,,2,,,73,92
238400,note_on,,,,,320,0,1,,,,0,,,83,0
238400,note_on,,,,,0,0,1,,,,0,,,87,0
238400,note_on,,,,,0,0,1,,,,0,,,85,92
238400,note_on,,,,,320,0,4,,,,2,,,63,0
238400,note_on,,,,,0,0,3,,,,1,,,71,0
238400,note_on,,,,,0,0,3,,,,1,,,78,80
238400,note_on,,,,,320,0,6,,,,3,,,59,0
238400,note_on,,,,,0,0,6,,,,3,,,47,0
238400,note_on,,,,,0,0,6,,,,3,,,42,80
238400,note_on,,,,,0,0,6,,,,3,,,54,80
238400,note_on,,,,,0,0,4,,,,2,,,71,0
238400,note_on,,,,,0,0,3,,,,1,,,73,92
238720,note_on,,,,,0,0,4,,,,2,,,71,92
238720,note_on,,,,,0,0,4,,,,2,,,75,92
238720,note_on,,,,,0,0,3,,,,1,,,75,105
238720,note_on,,,,,0,0,6,,,,3,,,51,80
238720,note_on,,,,,0,0,6,,,,3,,,39,80
238720,note_on,,,,,320,0,6,,,,3,,,54,0
238720,note_on,,,,,320,0,4,,,,2,,,73,0
238720,note_on,,,,,0,0,3,,,,1,,,78,0
238720,note_on,,,,,320,0,3,,,,1,,,73,0
238720,note_on,,,,,0,0,4,,,,2,,,66,0
238720,note_on,,,,,0,0,3,,,,1,,,83,105
238720,note_on,,,,,0,0,6,,,,3,,,42,0
238720,note_on,,,,,320,0,1,,,,0,,,90,0
238720,note_on,,,,,0,0,1,,,,0,,,95,92
238720,note_on,,,,,0,0,1,,,,0,,,87,105
238720,note_on,,,,,0,0,1,,,,0,,,85,0
239040,note_on,,,,,0,0,4,,,,2,,,71,0
239040,note_on,,,,,320,0,4,,,,2,,,75,0
239040,note_on,,,,,0,0,3,,,,1,,,73,105
239040,note_on,,,,,0,0,3,,,,1,,,78,105
239040,note_on,,,,,0,0,3,,,,1,,,83,0
239040,note_on,,,,,320,0,3,,,,1,,,75,0
239040,note_on,,,,,320,0,1,,,,0,,,87,0
239040,note_on,,,,,0,0,1,,,,0,,,90,105
239040,note_on,,,,,0,0,1,,,,0,,,85,105
239040,note_on,,,,,320,0,6,,,,3,,,51,0
239040,note_on,,,,,0,0,6,,,,3,,,39,0
239040,note_on,,,,,0,0,6,,,,3,,,42,80
239040,note_on,,,,,0,0,6,,,,3,,,54,80
239040,note_on,,,,,0,0,4,,,,2,,,66,105
239040,note_on,,,,,0,0,4,,,,2,,,73,105
239040,note_on,,,,,0,0,1,,,,0,,,95,0
239360,note_on,,,,,0,0,1,,,,0,,,87,105
239360,note_on,,,,,320,0,6,,,,3,,,54,0
239360,note_on,,,,,0,0,6,,,,3,,,59,80
239360,note_on,,,,,0,0,1,,,,0,,,83,105
239360,note_on,,,,,0,0,6,,,,3,,,47,80
239360,note_on,,,,,320,0,1,,,,0,,,85,0
239360,note_on,,,,,0,0,6,,,,3,,,42,0
239360,note_on,,,,,320,0,4,,,,2,,,66,0
239360,note_on,,,,,0,0,3,,,,1,,,78,0
239360,note_on,,,,,320,0,3,,,,1,,,73,0
239360,note_on,,,,,0,0,3,,,,1,,,71,105
239360,note_on,,,,,0,0,3,,,,1,,,75,92
239360,note_on,,,,,0,0,4,,,,2,,,73,0
239360,note_on,,,,,0,0,4,,,,2,,,63,105
239360,note_on,,,,,0,0,1,,,,0,,,90,0
239360,note_on,,,,,0,0,4,,,,2,,,71,105
239616,note_on,,,,,2496,0,10,,,,6,,,78,0
239616,note_on,,,,,2496,0,8,,,,4,,,66,0
239680,note_on,,,,,320,0,6,,,,3,,,59,0
239680,note_on,,,,,0,0,1,,,,0,,,83,0
239680,note_on,,,,,0,0,1,,,,0,,,78,80
239680,note_on,,,,,0,0,6,,,,3,,,47,0
239680,note_on,,,,,0,0,6,,,,3,,,51,80
239680,note_on,,,,,320,0,1,,,,0,,,87,0
239680,note_on,,,,,0,0,6,,,,3,,,63,80
239680,note_on,,,,,0,0,1,,,,0,,,83,92
239680,note_on,,,,,0,0,4,,,,2,,,63,0
239680,note_on,,,,,0,0,3,,,,1,,,71,92
239680,note_on,,,,,0,0,3,,,,1,,,66,92
239680,note_on,,,,,0,0,3,,,,1,,,71,0
239680,note_on,,,,,0,0,4,,,,2,,,59,80
239680,note_on,,,,,320,0,3,,,,1,,,75,0
239680,note_on,,,,,320,0,4,,,,2,,,71,0
239680,note_on,,,,,0,0,4,,,,2,,,66,80
239760,note_on,,,,,144,0,8,,,,4,,,66,116
239760,note_on,,,,,144,0,10,,,,6,,,78,116
239856,note_on,,,,,96,0,8,,,,4,,,66,0
239856,note_on,,,,,96,0,10,,,,6,,,78,0
239880,note_on,,,,,24,0,10,,,,6,,,78,116
239880,note_on,,,,,24,0,8,,,,4,,,66,116
239976,note_on,,,,,96,0,8,,,,4,,,66,0
239976,note_on,,,,,96,0,10,,,,6,,,78,0
240000,note_on,,,,,24,0,10,,,,6,,,78,116
240000,note_on,,,,,0,0,4,,,,2,,,66,80
240000,note_on,,,,,320,0,1,,,,0,,,78,0
240000,note_on,,,,,0,0,3,,,,1,,,66,0
240000,note_on,,,,,0,0,3,,,,1,,,66,80
240000,note_on,,,,,0,0,4,,,,2,,,66,0
240000,note_on,,,,,0,0,4,,,,2,,,73,80
240000,note_on,,,,,320,0,4,,,,2,,,59,0
240000,note_on,,,,,320,0,3,,,,1,,,71,0
240000,note_on,,,,,0,0,1,,,,0,,,85,80
240000,set_tempo,,,,,11520,1,0,422535,,,,,,,
240000,note_on,,,,,0,0,1,,,,0,,,83,0
240000,note_on,,,,,320,0,6,,,,3,,,51,0
240000,note_on,,,,,0,0,6,,,,3,,,63,0
240000,note_on,,,,,0,0,6,,,,3,,,61,80
240000,note_on,,,,,0,0,6,,,,3,,,54,80
240000,note_on,,,,,0,0,3,,,,1,,,73,80
240000,note_on,,,,,0,0,1,,,,0,,,78,80
240000,note_on,,,,,24,0,8,,,,4,,,66,116
240576,note_on,,,,,576,0,3,,,,1,,,73,0
240576,note_on,,,,,0,0,3,,,,1,,,66,0
240576,note_on,,,,,576,0,10,,,,6,,,78,0
240576,note_on,,,,,576,0,4,,,,2,,,66,0
240576,note_on,,,,,576,0,8,,,,4,,,66,0
240576,note_on,,,,,0,0,6,,,,3,,,61,0
240576,note_on,,,,,576,0,6,,,,3,,,54,0
240576,note_on,,,,,576,0,1,,,,0,,,85,0
240576,note_on,,,,,0,0,1,,,,0,,,78,0
240576,note_on,,,,,0,0,4,,,,2,,,73,0
240720,note_on,,,,,144,0,8,,,,4,,,66,116
240720,note_on,,,,,3984,0,12,,,,10,,,74,116
240720,note_on,,,,,3984,0,14,,,,12,,,54,105
240720,note_on,,,,,0,0,14,,,,12,,,62,105
240720,note_on,,,,,3984,0,13,,,,11,,,66,116
240720,note_on,,,,,144,0,10,,,,6,,,78,116
240816,note_on,,,,,0,0,14,,,,12,,,54,0
240816,note_on,,,,,96,0,10,,,,6,,,78,0
240816,note_on,,,,,96,0,8,,,,4,,,66,0
240816,note_on,,,,,96,0,12,,,,10,,,74,0
240816,note_on,,,,,96,0,14,,,,12,,,62,0
240816,note_on,,,,,96,0,13,,,,11,,,66,0
240840,note_on,,,,,24,0,10,,,,6,,,78,116
240840,note_on,,,,,0,0,14,,,,12,,,57,105
240840,note_on,,,,,24,0,14,,,,12,,,64,105
240840,note_on,,,,,24,0,12,,,,10,,,76,116
240840,note_on,,,,,24,0,8,,,,4,,,66,116
240840,note_on,,,,,24,0,13,,,,11,,,69,116
240936,note_on,,,,,96,0,13,,,,11,,,69,0
240936,note_on,,,,,0,0,14,,,,12,,,64,0
240936,note_on,,,,,96,0,14,,,,12,,,57,0
240936,note_on,,,,,96,0,8,,,,4,,,66,0
240936,note_on,,,,,96,0,10,,,,6,,,78,0
240936,note_on,,,,,96,0,12,,,,10,,,76,0
240960,note_on,,,,,24,0,13,,,,11,,,74,116
240960,note_on,,,,,24,0,14,,,,12,,,62,105
240960,note_on,,,,,24,0,10,,,,6,,,78,116
240960,note_on,,,,,0,0,14,,,,12,,,66,105
240960,note_on,,,,,24,0,8,,,,4,,,66,116
240960,note_on,,,,,24,0,12,,,,10,,,78,116
241680,note_on,,,,,0,0,6,,,,3,,,42,80
241680,note_on,,,,,1104,0,6,,,,3,,,54,80
241680,note_on,,,,,0,0,15,,,,13,,,54,105
241680,note_on,,,,,4944,0,16,,,,14,,,30,116
241680,note_on,,,,,4944,0,15,,,,13,,,42,105
241776,note_on,,,,,0,0,6,,,,3,,,54,0
241776,note_on,,,,,96,0,15,,,,13,,,54,0
241776,note_on,,,,,0,0,15,,,,13,,,42,0
241776,note_on,,,,,96,0,6,,,,3,,,42,0
241776,note_on,,,,,96,0,16,,,,14,,,30,0
241800,note_on,,,,,24,0,6,,,,3,,,42,80
241800,note_on,,,,,24,0,16,,,,14,,,30,116
241800,note_on,,,,,0,0,15,,,,13,,,54,105
241800,note_on,,,,,24,0,15,,,,13,,,42,105
241800,note_on,,,,,0,0,6,,,,3,,,54,80
241896,note_on,,,,,96,0,6,,,,3,,,54,0
241896,note_on,,,,,96,0,15,,,,13,,,54,0
241896,note_on,,,,,0,0,6,,,,3,,,42,0
241896,note_on,,,,,0,0,15,,,,13,,,42,0
241896,note_on,,,,,96,0,16,,,,14,,,30,0
241920,note_on,,,,,0,0,6,,,,3,,,57,80
241920,note_on,,,,,0,0,15,,,,13,,,57,105
241920,note_on,,,,,24,0,6,,,,3,,,45,80
241920,note_on,,,,,24,0,15,,,,13,,,45,105
241920,note_on,,,,,24,0,16,,,,14,,,33,116
242304,note_on,,,,,1344,0,10,,,,6,,,78,0
242304,note_on,,,,,1344,0,12,,,,10,,,78,0
242304,note_on,,,,,1344,0,13,,,,11,,,74,0
242304,note_on,,,,,1344,0,8,,,,4,,,66,0
242304,note_on,,,,,1344,0,14,,,,12,,,66,0
242304,note_on,,,,,0,0,14,,,,12,,,62,0
242640,note_on,,,,,0,0,8,,,,4,,,64,105
242640,note_on,,,,,0,0,10,,,,6,,,81,105
242640,note_on,,,,,336,0,12,,,,10,,,76,116
242640,note_on,,,,,336,0,14,,,,12,,,57,105
242640,note_on,,,,,336,0,10,,,,6,,,76,105
242640,note_on,,,,,0,0,14,,,,12,,,64,105
242640,note_on,,,,,336,0,8,,,,4,,,69,105
242640,note_on,,,,,336,0,13,,,,11,,,69,116
242688,note_on,,,,,768,0,6,,,,3,,,57,0
242688,note_on,,,,,768,0,15,,,,13,,,57,0
242688,note_on,,,,,0,0,6,,,,3,,,45,0
242688,note_on,,,,,0,0,15,,,,13,,,45,0
242688,note_on,,,,,768,0,16,,,,14,,,33,0
242736,note_on,,,,,96,0,10,,,,6,,,81,0
242736,note_on,,,,,0,0,10,,,,6,,,76,0
242736,note_on,,,,,96,0,12,,,,10,,,76,0
242736,note_on,,,,,0,0,8,,,,4,,,69,0
242736,note_on,,,,,0,0,14,,,,12,,,57,0
242736,note_on,,,,,96,0,8,,,,4,,,64,0
242736,note_on,,,,,96,0,14,,,,12,,,64,0
242736,note_on,,,,,96,0,13,,,,11,,,69,0
242760,note_on,,,,,24,0,10,,,,6,,,76,105
242760,note_on,,,,,0,0,8,,,,4,,,64,105
242760,note_on,,,,,24,0,8,,,,4,,,69,105
242760,note_on,,,,,0,0,14,,,,12,,,66,105
242760,note_on,,,,,24,0,14,,,,12,,,62,105
242760,note_on,,,,,24,0,12,,,,10,,,78,116
242760,note_on,,,,,0,0,10,,,,6,,,81,105
242760,note_on,,,,,24,0,13,,,,11,,,74,116
242856,note_on,,,,,0,0,10,,,,6,,,76,0
242856,note_on,,,,,0,0,14,,,,12,,,62,0
242856,note_on,,,,,0,0,8,,,,4,,,69,0
242856,note_on,,,,,96,0,10,,,,6,,,81,0
242856,note_on,,,,,96,0,8,,,,4,,,64,0
242856,note_on,,,,,96,0,12,,,,10,,,78,0
242856,note_on,,,,,96,0,13,,,,11,,,74,0
242856,note_on,,,,,96,0,14,,,,12,,,66,0
242880,note_on,,,,,0,0,8,,,,4,,,64,105
242880,note_on,,,,,24,0,8,,,,4,,,69,105
242880,note_on,,,,,24,0,12,,,,10,,,79,116
242880,note_on,,,,,24,0,13,,,,11,,,76,116
242880,note_on,,,,,24,0,14,,,,12,,,67,105
242880,note_on,,,,,24,0,10,,,,6,,,76,105
242880,note_on,,,,,0,0,10,,,,6,,,81,105
242880,note_on,,,,,0,0,14,,,,12,,,64,105
243600,note_on,,,,,0,0,15,,,,13,,,45,105
243600,note_on,,,,,912,0,16,,,,14,,,33,116
243600,note_on,,,,,0,0,6,,,,3,,,45,80
243600,note_on,,,,,912,0,15,,,,13,,,57,105
243600,note_on,,,,,912,0,6,,,,3,,,57,80
243696,note_on,,,,,0,0,6,,,,3,,,57,0
243696,note_on,,,,,96,0,16,,,,14,,,33,0
243696,note_on,,,,,96,0,6,,,,3,,,45,0
243696,note_on,,,,,0,0,15,,,,13,,,57,0
243696,note_on,,,,,96,0,15,,,,13,,,45,0
243720,note_on,,,,,24,0,6,,,,3,,,57,80
243720,note_on,,,,,24,0,16,,,,14,,,33,116
243720,note_on,,,,,0,0,15,,,,13,,,57,105
243720,note_on,,,,,24,0,15,,,,13,,,45,105
243720,note_on,,,,,0,0,6,,,,3,,,45,80
243816,note_on,,,,,96,0,15,,,,13,,,57,0
243816,note_on,,,,,0,0,15,,,,13,,,45,0
243816,note_on,,,,,0,0,6,,,,3,,,57,0
243816,note_on,,,,,96,0,6,,,,3,,,45,0
243816,note_on,,,,,96,0,16,,,,14,,,33,0
243840,note_on,,,,,24,0,6,,,,3,,,50,80
243840,note_on,,,,,0,0,15,,,,13,,,62,105
243840,note_on,,,,,24,0,16,,,,14,,,38,116
243840,note_on,,,,,0,0,6,,,,3,,,62,80
243840,note_on,,,,,24,0,15,,,,13,,,50,105
244224,note_on,,,,,1344,0,8,,,,4,,,64,0
244224,note_on,,,,,0,0,8,,,,4,,,69,0
244224,note_on,,,,,1344,0,10,,,,6,,,81,0
244224,note_on,,,,,0,0,10,,,,6,,,76,0
244224,note_on,,,,,0,0,14,,,,12,,,67,0
244224,note_on,,,,,1344,0,12,,,,10,,,79,0
244224,note_on,,,,,1344,0,14,,,,12,,,64,0
244224,note_on,,,,,1344,0,13,,,,11,,,76,0
244560,note_on,,,,,336,0,14,,,,12,,,62,92
244560,note_on,,,,,33124,0,9,,,,5,,,62,116
244560,note_on,,,,,336,0,10,,,,6,,,74,116
244560,note_on,,,,,336,0,12,,,,10,,,78,105
244560,note_on,,,,,3984,0,3,,,,1,,,74,92
244560,note_on,,,,,336,0,13,,,,11,,,74,105
244560,note_on,,,,,3984,0,1,,,,0,,,86,92
244560,note_on,,,,,0,0,14,,,,12,,,66,92
244608,note_on,,,,,0,0,15,,,,13,,,50,0
244608,note_on,,,,,768,0,16,,,,14,,,38,0
244608,note_on,,,,,0,0,6,,,,3,,,50,0
244608,note_on,,,,,768,0,6,,,,3,,,62,0
244608,note_on,,,,,768,0,15,,,,13,,,62,0
244656,note_on,,,,,96,0,3,,,,1,,,74,0
244656,note_on,,,,,96,0,10,,,,6,,,74,0
244656,note_on,,,,,96,0,9,,,,5,,,62,0
244656,note_on,,,,,96,0,1,,,,0,,,86,0
244656,note_on,,,,,96,0,14,,,,12,,,66,0
244656,note_on,,,,,96,0,12,,,,10,,,78,0
244656,note_on,,,,,96,0,13,,,,11,,,74,0
244656,note_on,,,,,0,0,14,,,,12,,,62,0
244680,note_on,,,,,24,0,13,,,,11,,,76,105
244680,note_on,,,,,24,0,1,,,,0,,,86,92
244680,note_on,,,,,24,0,14,,,,12,,,64,92
244680,note_on,,,,,0,0,14,,,,12,,,67,92
244680,note_on,,,,,24,0,9,,,,5,,,62,116
244680,note_on,,,,,24,0,12,,,,10,,,79,105
244680,note_on,,,,,24,0,10,,,,6,,,74,116
244680,note_on,,,,,24,0,3,,,,1,,,74,92
244776,note_on,,,,,96,0,14,,,,12,,,67,0
244776,note_on,,,,,0,0,14,,,,12,,,64,0
244776,note_on,,,,,96,0,3,,,,1,,,74,0
244776,note_on,,,,,96,0,12,,,,10,,,79,0
244776,note_on,,,,,96,0,1,,,,0,,,86,0
244776,note_on,,,,,96,0,10,,,,6,,,74,0
244776,note_on,,,,,96,0,13,,,,11,,,76,0
244776,note_on,,,,,96,0,9,,,,5,,,62,0
244800,note_on,,,,,24,0,10,,,,6,,,74,116
244800,note_on,,,,,24,0,1,,,,0,,,86,92
244800,note_on,,,,,24,0,3,,,,1,,,74,92
244800,note_on,,,,,24,0,14,,,,12,,,66,92
244800,note_on,,,,,24,0,13,,,,11,,,78,105
244800,note_on,,,,,24,0,12,,,,10,,,81,105
244800,note_on,,,,,24,0,9,,,,5,,,62,116
244800,note_on,,,,,0,0,14,,,,12,,,69,92
244992,note_on,,,,,192,0,13,,,,11,,,78,0
244992,note_on,,,,,0,0,14,,,,12,,,66,0
244992,note_on,,,,,192,0,14,,,,12,,,69,0
244992,note_on,,,,,192,0,12,,,,10,,,81,0
245120,note_on,,,,,128,0,14,,,,12,,,66,92
245120,note_on,,,,,0,0,14,,,,12,,,62,92
245120,note_on,,,,,128,0,12,,,,10,,,78,105
245120,note_on,,,,,128,0,13,,,,11,,,74,105
245280,note_on,,,,,0,0,6,,,,3,,,55,92
245280,note_on,,,,,672,0,6,,,,3,,,43,112
245280,note_on,,,,,672,0,15,,,,13,,,43,125
245280,note_on,,,,,672,0,16,,,,14,,,31,125
245280,note_on,,,,,4704,0,4,,,,2,,,71,92
245280,note_on,,,,,0,0,4,,,,2,,,67,92
245312,note_on,,,,,192,0,12,,,,10,,,78,0
245312,note_on,,,,,192,0,13,,,,11,,,74,0
245312,note_on,,,,,192,0,14,,,,12,,,62,0
245312,note_on,,,,,0,0,14,,,,12,,,66,0
245440,note_on,,,,,128,0,12,,,,10,,,83,125
245440,note_on,,,,,128,0,13,,,,11,,,79,125
245440,note_on,,,,,128,0,14,,,,12,,,67,92
245440,note_on,,,,,0,0,14,,,,12,,,71,112
245568,note_on,,,,,288,0,15,,,,13,,,43,0
245568,note_on,,,,,288,0,4,,,,2,,,67,0
245568,note_on,,,,,0,0,4,,,,2,,,71,0
245568,note_on,,,,,288,0,6,,,,3,,,55,0
245568,note_on,,,,,288,0,16,,,,14,,,31,0
245568,note_on,,,,,0,0,6,,,,3,,,43,0
245632,note_on,,,,,192,0,14,,,,12,,,71,0
245632,note_on,,,,,0,0,14,,,,12,,,67,0
245632,note_on,,,,,192,0,13,,,,11,,,79,0
245632,note_on,,,,,192,0,12,,,,10,,,83,0
245760,note_on,,,,,0,0,6,,,,3,,,62,92
245760,note_on,,,,,128,0,13,,,,11,,,78,105
245760,note_on,,,,,192,0,15,,,,13,,,50,105
245760,note_on,,,,,192,0,6,,,,3,,,50,92
245760,note_on,,,,,192,0,16,,,,14,,,38,105
245760,note_on,,,,,0,0,14,,,,12,,,69,92
245760,note_on,,,,,0,0,4,,,,2,,,69,92
245760,note_on,,,,,192,0,4,,,,2,,,66,92
245760,note_on,,,,,128,0,14,,,,12,,,66,92
245760,note_on,,,,,128,0,12,,,,10,,,81,105
245952,note_on,,,,,192,0,14,,,,12,,,69,0
245952,note_on,,,,,0,0,14,,,,12,,,66,0
245952,note_on,,,,,192,0,13,,,,11,,,78,0
245952,note_on,,,,,192,0,12,,,,10,,,81,0
246048,note_on,,,,,0,0,6,,,,3,,,50,0
246048,note_on,,,,,288,0,6,,,,3,,,62,0
246048,note_on,,,,,288,0,15,,,,13,,,50,0
246048,note_on,,,,,288,0,16,,,,14,,,38,0
246048,note_on,,,,,0,0,4,,,,2,,,66,0
246048,note_on,,,,,288,0,4,,,,2,,,69,0
246080,note_on,,,,,128,0,12,,,,10,,,78,105
246080,note_on,,,,,128,0,13,,,,11,,,74,105
246080,note_on,,,,,0,0,14,,,,12,,,62,92
246080,note_on,,,,,128,0,14,,,,12,,,66,92
246240,note_on,,,,,192,0,15,,,,13,,,47,125
246240,note_on,,,,,0,0,4,,,,2,,,67,92
246240,note_on,,,,,192,0,4,,,,2,,,74,112
246240,note_on,,,,,0,0,6,,,,3,,,59,92
246240,note_on,,,,,192,0,6,,,,3,,,47,112
246240,note_on,,,,,192,0,16,,,,14,,,35,125
246272,note_on,,,,,192,0,12,,,,10,,,78,0
246272,note_on,,,,,192,0,14,,,,12,,,62,0
246272,note_on,,,,,0,0,14,,,,12,,,66,0
246272,note_on,,,,,192,0,13,,,,11,,,74,0
246336,note_on,,,,,1536,0,1,,,,0,,,86,0
246336,note_on,,,,,1536,0,3,,,,1,,,74,0
246336,note_on,,,,,1536,0,9,,,,5,,,62,0
246336,note_on,,,,,1536,0,10,,,,6,,,74,0
246400,note_on,,,,,128,0,12,,,,10,,,86,125
246400,note_on,,,,,128,0,14,,,,12,,,67,92
246400,note_on,,,,,128,0,13,,,,11,,,79,125
246400,note_on,,,,,0,0,14,,,,12,,,74,112
246480,note_on,,,,,144,0,10,,,,6,,,74,116
246480,note_on,,,,,144,0,1,,,,0,,,86,92
246480,note_on,,,,,144,0,3,,,,1,,,74,92
246480,note_on,,,,,144,0,9,,,,5,,,62,116
246528,note_on,,,,,288,0,15,,,,13,,,47,0
246528,note_on,,,,,288,0,6,,,,3,,,59,0
246528,note_on,,,,,0,0,6,,,,3,,,47,0
246528,note_on,,,,,0,0,4,,,,2,,,74,0
246528,note_on,,,,,288,0,4,,,,2,,,67,0
246528,note_on,,,,,288,0,16,,,,14,,,35,0
246576,note_on,,,,,96,0,9,,,,5,,,62,0
246576,note_on,,,,,96,0,10,,,,6,,,74,0
246576,note_on,,,,,96,0,1,,,,0,,,86,0
246576,note_on,,,,,96,0,3,,,,1,,,74,0
246592,note_on,,,,,0,0,14,,,,12,,,67,0
246592,note_on,,,,,192,0,14,,,,12,,,74,0
246592,note_on,,,,,192,0,13,,,,11,,,79,0
246592,note_on,,,,,192,0,12,,,,10,,,86,0
246600,note_on,,,,,24,0,10,,,,6,,,74,116
246600,note_on,,,,,24,0,1,,,,0,,,86,92
246600,note_on,,,,,24,0,9,,,,5,,,62,116
246600,note_on,,,,,24,0,3,,,,1,,,74,92
246696,note_on,,,,,96,0,3,,,,1,,,74,0
246696,note_on,,,,,96,0,10,,,,6,,,74,0
246696,note_on,,,,,96,0,9,,,,5,,,62,0
246696,note_on,,,,,96,0,1,,,,0,,,86,0
246720,note_on,,,,,128,0,12,,,,10,,,81,105
246720,note_on,,,,,192,0,16,,,,14,,,38,105
246720,note_on,,,,,128,0,13,,,,11,,,78,105
246720,note_on,,,,,24,0,9,,,,5,,,62,116
246720,note_on,,,,,0,0,4,,,,2,,,69,92
246720,note_on,,,,,192,0,4,,,,2,,,66,92
246720,note_on,,,,,0,0,6,,,,3,,,50,92
246720,note_on,,,,,192,0,15,,,,13,,,50,105
246720,note_on,,,,,24,0,1,,,,0,,,86,92
246720,note_on,,,,,0,0,14,,,,12,,,69,92
246720,note_on,,,,,24,0,10,,,,6,,,74,116
246720,note_on,,,,,24,0,3,,,,1,,,74,92
246720,note_on,,,,,128,0,14,,,,12,,,66,92
246720,note_on,,,,,192,0,6,,,,3,,,62,92
246912,note_on,,,,,192,0,12,,,,10,,,81,0
246912,note_on,,,,,192,0,14,,,,12,,,69,0
246912,note_on,,,,,0,0,14,,,,12,,,66,0
246912,note_on,,,,,192,0,13,,,,11,,,78,0
247008,note_on,,,,,0,0,6,,,,3,,,62,0
247008,note_on,,,,,288,0,6,,,,3,,,50,0
247008,note_on,,,,,288,0,4,,,,2,,,69,0
247008,note_on,,,,,288,0,16,,,,14,,,38,0
247008,note_on,,,,,288,0,15,,,,13,,,50,0
247008,note_on,,,,,0,0,4,,,,2,,,66,0
247040,note_on,,,,,128,0,12,,,,10,,,78,105
247040,note_on,,,,,128,0,13,,,,11,,,74,105
247040,note_on,,,,,128,0,14,,,,12,,,62,92
247040,note_on,,,,,0,0,14,,,,12,,,66,92
247200,note_on,,,,,192,0,4,,,,2,,,74,112
247200,note_on,,,,,192,0,15,,,,13,,,47,125
247200,note_on,,,,,192,0,16,,,,14,,,35,125
247200,note_on,,,,,0,0,6,,,,3,,,47,112
247200,note_on,,,,,0,0,4,,,,2,,,71,92
247200,note_on,,,,,192,0,6,,,,3,,,59,92
247232,note_on,,,,,0,0,14,,,,12,,,62,0
247232,note_on,,,,,192,0,14,,,,12,,,66,0
247232,note_on,,,,,192,0,13,,,,11,,,74,0
247232,note_on,,,,,192,0,12,,,,10,,,78,0
247296,note_on,,,,,576,0,9,,,,5,,,62,0
247296,note_on,,,,,576,0,1,,,,0,,,86,0
247296,note_on,,,,,576,0,3,,,,1,,,74,0
247296,note_on,,,,,576,0,10,,,,6,,,74,0
247360,note_on,,,,,0,0,14,,,,12,,,74,112
247360,note_on,,,,,128,0,14,,,,12,,,71,92
247360,note_on,,,,,128,0,13,,,,11,,,83,125
247360,note_on,,,,,128,0,12,,,,10,,,86,125
247440,note_on,,,,,144,0,3,,,,1,,,78,92
247440,note_on,,,,,3216,0,8,,,,4,,,66,116
247440,note_on,,,,,144,0,1,,,,0,,,90,92
247440,note_on,,,,,144,0,10,,,,6,,,78,116
247488,note_on,,,,,288,0,15,,,,13,,,47,0
247488,note_on,,,,,0,0,6,,,,3,,,59,0
247488,note_on,,,,,288,0,6,,,,3,,,47,0
247488,note_on,,,,,288,0,4,,,,2,,,71,0
247488,note_on,,,,,0,0,4,,,,2,,,74,0
247488,note_on,,,,,288,0,16,,,,14,,,35,0
247536,note_on,,,,,96,0,10,,,,6,,,78,0
247536,note_on,,,,,96,0,8,,,,4,,,66,0
247536,note_on,,,,,96,0,3,,,,1,,,78,0
247536,note_on,,,,,96,0,1,,,,0,,,90,0
247552,note_on,,,,,192,0,14,,,,12,,,74,0
247552,note_on,,,,,0,0,14,,,,12,,,71,0
247552,note_on,,,,,192,0,12,,,,10,,,86,0
247552,note_on,,,,,192,0,13,,,,11,,,83,0
247560,note_on,,,,,24,0,8,,,,4,,,66,116
247560,note_on,,,,,24,0,10,,,,6,,,78,116
247560,note_on,,,,,24,0,1,,,,0,,,90,92
247560,note_on,,,,,24,0,3,,,,1,,,78,92
247656,note_on,,,,,96,0,10,,,,6,,,78,0
247656,note_on,,,,,96,0,1,,,,0,,,90,0
247656,note_on,,,,,96,0,8,,,,4,,,66,0
247656,note_on,,,,,96,0,3,,,,1,,,78,0
247680,note_on,,,,,0,0,4,,,,2,,,73,92
247680,note_on,,,,,24,0,8,,,,4,,,66,116
247680,note_on,,,,,128,0,12,,,,10,,,85,105
247680,note_on,,,,,128,0,13,,,,11,,,82,105
247680,note_on,,,,,192,0,6,,,,3,,,54,92
247680,note_on,,,,,0,0,6,,,,3,,,66,92
247680,note_on,,,,,24,0,3,,,,1,,,78,92
247680,note_on,,,,,24,0,1,,,,0,,,90,92
247680,note_on,,,,,192,0,15,,,,13,,,54,105
247680,note_on,,,,,0,0,14,,,,12,,,70,92
247680,note_on,,,,,128,0,14,,,,12,,,73,92
247680,note_on,,,,,24,0,10,,,,6,,,78,116
247680,note_on,,,,,192,0,4,,,,2,,,70,92
247680,note_on,,,,,192,0,16,,,,14,,,42,105
247872,note_on,,,,,192,0,12,,,,10,,,85,0
247872,note_on,,,,,0,0,14,,,,12,,,73,0
247872,note_on,,,,,192,0,14,,,,12,,,70,0
247872,note_on,,,,,192,0,13,,,,11,,,82,0
247968,note_on,,,,,288,0,4,,,,2,,,73,0
247968,note_on,,,,,288,0,6,,,,3,,,66,0
247968,note_on,,,,,288,0,16,,,,14,,,42,0
247968,note_on,,,,,0,0,4,,,,2,,,70,0
247968,note_on,,,,,288,0,15,,,,13,,,54,0
247968,note_on,,,,,0,0,6,,,,3,,,54,0
248000,note_on,,,,,0,0,14,,,,12,,,66,92
248000,note_on,,,,,128,0,14,,,,12,,,70,92
248000,note_on,,,,,128,0,12,,,,10,,,82,105
248000,note_on,,,,,128,0,13,,,,11,,,78,105
248160,note_on,,,,,192,0,15,,,,13,,,50,125
248160,note_on,,,,,192,0,4,,,,2,,,78,112
248160,note_on,,,,,0,0,4,,,,2,,,71,92
248160,note_on,,,,,192,0,16,,,,14,,,38,125
248160,note_on,,,,,0,0,6,,,,3,,,62,92
248160,note_on,,,,,192,0,6,,,,3,,,50,112
248192,note_on,,,,,192,0,12,,,,10,,,82,0
248192,note_on,,,,,0,0,14,,,,12,,,70,0
248192,note_on,,,,,192,0,13,,,,11,,,78,0
248192,note_on,,,,,192,0,14,,,,12,,,66,0
248320,note_on,,,,,128,0,12,,,,10,,,90,125
248320,note_on,,,,,128,0,13,,,,11,,,83,125
248320,note_on,,,,,128,0,14,,,,12,,,78,112
248320,note_on,,,,,0,0,14,,,,12,,,71,92
248448,note_on,,,,,288,0,16,,,,14,,,38,0
248448,note_on,,,,,288,0,6,,,,3,,,62,0
248448,note_on,,,,,288,0,15,,,,13,,,50,0
248448,note_on,,,,,288,0,4,,,,2,,,71,0
248448,note_on,,,,,0,0,4,,,,2,,,78,0
248448,note_on,,,,,0,0,6,,,,3,,,50,0
248512,note_on,,,,,192,0,14,,,,12,,,71,0
248512,note_on,,,,,192,0,12,,,,10,,,90,0
248512,note_on,,,,,192,0,13,,,,11,,,83,0
248512,note_on,,,,,0,0,14,,,,12,,,78,0
248640,note_on,,,,,192,0,16,,,,14,,,42,105
248640,note_on,,,,,192,0,15,,,,13,,,54,105
248640,note_on,,,,,128,0,13,,,,11,,,82,105
248640,note_on,,,,,192,0,6,,,,3,,,66,92
248640,note_on,,,,,192,0,4,,,,2,,,73,92
248640,note_on,,,,,128,0,12,,,,10,,,85,105
248640,note_on,,,,,0,0,4,,,,2,,,70,92
248640,note_on,,,,,128,0,14,,,,12,,,73,92
248640,note_on,,,,,0,0,6,,,,3,,,54,92
248640,note_on,,,,,0,0,14,,,,12,,,70,92
248832,note_on,,,,,192,0,12,,,,10,,,85,0
248832,note_on,,,,,0,0,14,,,,12,,,73,0
248832,note_on,,,,,192,0,14,,,,12,,,70,0
248832,note_on,,,,,192,0,13,,,,11,,,82,0
248928,note_on,,,,,288,0,15,,,,13,,,54,0
248928,note_on,,,,,0,0,4,,,,2,,,73,0
248928,note_on,,,,,288,0,16,,,,14,,,42,0
248928,note_on,,,,,288,0,4,,,,2,,,70,0
248928,note_on,,,,,288,0,6,,,,3,,,54,0
248928,note_on,,,,,0,0,6,,,,3,,,66,0
248960,note_on,,,,,0,0,14,,,,12,,,70,92
248960,note_on,,,,,128,0,12,,,,10,,,82,105
248960,note_on,,,,,128,0,14,,,,12,,,66,92
248960,note_on,,,,,128,0,13,,,,11,,,78,105
249120,note_on,,,,,0,0,4,,,,2,,,70,105
249120,note_on,,,,,192,0,4,,,,2,,,73,105
249120,note_on,,,,,25248,0,11,,,,7,,,52,116
249120,note_on,,,,,192,0,6,,,,3,,,42,112
249120,note_on,,,,,192,0,15,,,,13,,,50,125
249120,note_on,,,,,192,0,16,,,,14,,,38,125
249152,note_on,,,,,192,0,13,,,,11,,,78,0
249152,note_on,,,,,0,0,14,,,,12,,,66,0
249152,note_on,,,,,192,0,14,,,,12,,,70,0
249152,note_on,,,,,192,0,12,,,,10,,,82,0
249216,note_on,,,,,1536,0,1,,,,0,,,90,0
249216,note_on,,,,,1536,0,10,,,,6,,,78,0
249216,note_on,,,,,1536,0,8,,,,4,,,66,0
249216,note_on,,,,,1536,0,3,,,,1,,,78,0
249280,note_on,,,,,128,0,13,,,,11,,,78,125
249280,note_on,,,,,0,0,14,,,,12,,,64,105
249280,note_on,,,,,128,0,12,,,,10,,,90,125
249280,note_on,,,,,128,0,14,,,,12,,,73,92
249360,note_on,,,,,0,0,8,,,,4,,,64,105
249360,note_on,,,,,0,0,1,,,,0,,,90,92
249360,note_on,,,,,144,0,10,,,,6,,,76,105
249360,note_on,,,,,0,0,3,,,,1,,,76,92
249360,note_on,,,,,144,0,3,,,,1,,,78,92
249360,note_on,,,,,144,0,1,,,,0,,,88,92
249360,note_on,,,,,144,0,8,,,,4,,,66,105
249360,note_on,,,,,0,0,10,,,,6,,,78,105
249408,note_on,,,,,288,0,6,,,,3,,,42,0
249408,note_on,,,,,288,0,15,,,,13,,,50,0
249408,note_on,,,,,0,0,14,,,,12,,,73,0
249408,note_on,,,,,288,0,16,,,,14,,,38,0
249408,note_on,,,,,128,0,14,,,,12,,,64,0
249408,note_on,,,,,288,0,11,,,,7,,,52,0
249440,note_on,,,,,32,0,14,,,,12,,,73,105
249440,note_on,,,,,0,0,14,,,,12,,,64,105
249456,note_on,,,,,0,0,1,,,,0,,,88,0
249456,note_on,,,,,96,0,10,,,,6,,,78,0
249456,note_on,,,,,96,0,3,,,,1,,,76,0
249456,note_on,,,,,96,0,8,,,,4,,,64,0
249456,note_on,,,,,0,0,10,,,,6,,,76,0
249456,note_on,,,,,0,0,8,,,,4,,,66,0
249456,note_on,,,,,0,0,3,,,,1,,,78,0
249456,note_on,,,,,96,0,1,,,,0,,,90,0
249472,note_on,,,,,192,0,12,,,,10,,,90,0
249472,note_on,,,,,192,0,13,,,,11,,,78,0
249480,note_on,,,,,0,0,3,,,,1,,,78,92
249480,note_on,,,,,24,0,8,,,,4,,,64,105
249480,note_on,,,,,0,0,10,,,,6,,,78,105
249480,note_on,,,,,24,0,10,,,,6,,,76,105
249480,note_on,,,,,24,0,1,,,,0,,,90,92
249480,note_on,,,,,24,0,3,,,,1,,,76,92
249480,note_on,,,,,0,0,8,,,,4,,,66,105
249480,note_on,,,,,0,0,1,,,,0,,,88,92
249568,note_on,,,,,0,0,14,,,,12,,,73,0
249568,note_on,,,,,128,0,14,,,,12,,,64,0
249576,note_on,,,,,96,0,1,,,,0,,,88,0
249576,note_on,,,,,96,0,8,,,,4,,,66,0
249576,note_on,,,,,0,0,3,,,,1,,,76,0
249576,note_on,,,,,96,0,3,,,,1,,,78,0
249576,note_on,,,,,96,0,10,,,,6,,,78,0
249576,note_on,,,,,0,0,10,,,,6,,,76,0
249576,note_on,,,,,0,0,8,,,,4,,,64,0
249576,note_on,,,,,0,0,1,,,,0,,,90,0
249600,note_on,,,,,24,0,1,,,,0,,,90,112
249600,note_on,,,,,128,0,13,,,,11,,,76,116
249600,note_on,,,,,24,0,8,,,,4,,,66,125
249600,note_on,,,,,0,0,14,,,,12,,,73,105
249600,note_on,,,,,192,0,15,,,,13,,,46,105
249600,note_on,,,,,0,0,8,,,,4,,,64,105
249600,set_tempo,,,,,9600,1,0,416667,,,,,,,
249600,note_on,,,,,0,0,10,,,,6,,,78,125
249600,note_on,,,,,24,0,10,,,,6,,,76,105
249600,note_on,,,,,32,0,14,,,,12,,,64,105
249600,note_on,,,,,192,0,16,,,,14,,,34,116
249600,note_on,,,,,128,0,12,,,,10,,,88,105
249600,note_on,,,,,0,0,1,,,,0,,,88,92
249600,note_on,,,,,24,0,3,,,,1,,,76,92
249600,note_on,,,,,0,0,3,,,,1,,,78,112
249600,note_on,,,,,192,0,6,,,,3,,,46,105
249728,note_on,,,,,128,0,14,,,,12,,,73,0
249728,note_on,,,,,0,0,14,,,,12,,,64,0
249760,note_on,,,,,0,0,14,,,,12,,,73,105
249760,note_on,,,,,32,0,14,,,,12,,,64,105
249792,note_on,,,,,192,0,13,,,,11,,,76,0
249792,note_on,,,,,192,0,12,,,,10,,,88,0
249888,note_on,,,,,0,0,14,,,,12,,,64,0
249888,note_on,,,,,128,0,14,,,,12,,,73,0
249888,note_on,,,,,288,0,6,,,,3,,,46,0
249888,note_on,,,,,288,0,15,,,,13,,,46,0
249888,note_on,,,,,288,0,16,,,,14,,,34,0
249920,note_on,,,,,32,0,14,,,,12,,,73,105
249920,note_on,,,,,0,0,14,,,,12,,,64,105
249920,note_on,,,,,128,0,12,,,,10,,,85,116
249920,note_on,,,,,128,0,13,,,,11,,,73,116
250048,note_on,,,,,0,0,14,,,,12,,,73,0
250048,note_on,,,,,128,0,14,,,,12,,,64,0
250080,note_on,,,,,192,0,6,,,,3,,,49,105
250080,note_on,,,,,0,0,14,,,,12,,,64,105
250080,note_on,,,,,192,0,15,,,,13,,,49,116
250080,note_on,,,,,672,0,11,,,,7,,,52,116
250080,note_on,,,,,192,0,16,,,,14,,,37,116
250080,note_on,,,,,32,0,14,,,,12,,,73,105
250112,note_on,,,,,192,0,12,,,,10,,,85,0
250112,note_on,,,,,192,0,13,,,,11,,,73,0
250176,note_on,,,,,0,0,3,,,,1,,,76,0
250176,note_on,,,,,0,0,8,,,,4,,,66,0
250176,note_on,,,,,576,0,3,,,,1,,,78,0
250176,note_on,,,,,576,0,10,,,,6,,,78,0
250176,note_on,,,,,576,0,1,,,,0,,,88,0
250176,note_on,,,,,576,0,8,,,,4,,,64,0
250176,note_on,,,,,0,0,10,,,,6,,,76,0
250176,note_on,,,,,0,0,1,,,,0,,,90,0
250208,note_on,,,,,128,0,14,,,,12,,,64,0
250208,note_on,,,,,0,0,14,,,,12,,,73,0
250240,note_on,,,,,32,0,14,,,,12,,,73,105
250240,note_on,,,,,0,0,14,,,,12,,,64,105
250240,note_on,,,,,128,0,12,,,,10,,,90,116
250240,note_on,,,,,128,0,13,,,,11,,,78,116
250320,note_on,,,,,0,0,10,,,,6,,,78,105
250320,note_on,,,,,144,0,10,,,,6,,,76,105
250320,note_on,,,,,0,0,3,,,,1,,,76,92
250320,note_on,,,,,144,0,1,,,,0,,,90,92
250320,note_on,,,,,0,0,8,,,,4,,,66,105
250320,note_on,,,,,144,0,8,,,,4,,,64,105
250320,note_on,,,,,0,0,1,,,,0,,,88,92
250320,note_on,,,,,144,0,3,,,,1,,,78,92
250368,note_on,,,,,288,0,15,,,,13,,,49,0
250368,note_on,,,,,288,0,6,,,,3,,,49,0
250368,note_on,,,,,128,0,14,,,,12,,,64,0
250368,note_on,,,,,0,0,14,,,,12,,,73,0
250368,note_on,,,,,288,0,11,,,,7,,,52,0
250368,note_on,,,,,288,0,16,,,,14,,,37,0
250400,note_on,,,,,32,0,14,,,,12,,,73,105
250400,note_on,,,,,0,0,14,,,,12,,,64,105
250416,note_on,,,,,96,0,3,,,,1,,,76,0
250416,note_on,,,,,0,0,1,,,,0,,,90,0
250416,note_on,,,,,0,0,3,,,,1,,,78,0
250416,note_on,,,,,96,0,10,,,,6,,,78,0
250416,note_on,,,,,96,0,1,,,,0,,,88,0
250416,note_on,,,,,0,0,10,,,,6,,,76,0
250416,note_on,,,,,0,0,8,,,,4,,,64,0
250416,note_on,,,,,96,0,8,,,,4,,,66,0
250432,note_on,,,,,192,0,12,,,,10,,,90,0
250432,note_on,,,,,192,0,13,,,,11,,,78,0
250440,note_on,,,,,24,0,10,,,,6,,,76,105
250440,note_on,,,,,0,0,10,,,,6,,,78,105
250440,note_on,,,,,0,0,8,,,,4,,,64,105
250440,note_on,,,,,24,0,8,,,,4,,,66,105
250440,note_on,,,,,24,0,3,,,,1,,,76,92
250440,note_on,,,,,0,0,3,,,,1,,,78,92
250440,note_on,,,,,24,0,1,,,,0,,,88,92
250440,note_on,,,,,0,0,1,,,,0,,,90,92
250528,note_on,,,,,128,0,14,,,,12,,,64,0
250528,note_on,,,,,0,0,14,,,,12,,,73,0
250536,note_on,,,,,0,0,1,,,,0,,,88,0
250536,note_on,,,,,96,0,1,,,,0,,,90,0
250536,note_on,,,,,0,0,10,,,,6,,,76,0
250536,note_on,,,,,96,0,10,,,,6,,,78,0
250536,note_on,,,,,96,0,3,,,,1,,,78,0
250536,note_on,,,,,0,0,3,,,,1,,,76,0
250536,note_on,,,,,96,0,8,,,,4,,,64,0
250536,note_on,,,,,0,0,8,,,,4,,,66,0
250560,note_on,,,,,128,0,13,,,,11,,,76,116
250560,note_on,,,,,192,0,15,,,,13,,,54,116
250560,note_on,,,,,0,0,8,,,,4,,,66,125
250560,note_on,,,,,24,0,10,,,,6,,,76,105
250560,note_on,,,,,128,0,12,,,,10,,,88,116
250560,note_on,,,,,0,0,10,,,,6,,,78,125
250560,note_on,,,,,24,0,3,,,,1,,,76,92
250560,note_on,,,,,0,0,14,,,,12,,,64,105
250560,note_on,,,,,192,0,16,,,,14,,,42,116
250560,note_on,,,,,32,0,14,,,,12,,,73,105
250560,note_on,,,,,192,0,6,,,,3,,,54,105
250560,note_on,,,,,24,0,1,,,,0,,,88,92
250560,note_on,,,,,0,0,1,,,,0,,,90,112
250560,note_on,,,,,24,0,8,,,,4,,,64,105
250560,note_on,,,,,0,0,3,,,,1,,,78,112
250688,note_on,,,,,0,0,14,,,,12,,,73,0
250688,note_on,,,,,128,0,14,,,,12,,,64,0
250720,note_on,,,,,0,0,14,,,,12,,,64,105
250720,note_on,,,,,32,0,14,,,,12,,,73,105
250752,note_on,,,,,192,0,12,,,,10,,,88,0
250752,note_on,,,,,192,0,13,,,,11,,,76,0
250848,note_on,,,,,288,0,16,,,,14,,,42,0
250848,note_on,,,,,288,0,15,,,,13,,,54,0
250848,note_on,,,,,288,0,6,,,,3,,,54,0
250848,note_on,,,,,128,0,14,,,,12,,,64,0
250848,note_on,,,,,0,0,14,,,,12,,,73,0
250880,note_on,,,,,32,0,14,,,,12,,,64,105
250880,note_on,,,,,0,0,14,,,,12,,,73,105
250880,note_on,,,,,128,0,13,,,,11,,,73,116
250880,note_on,,,,,128,0,12,,,,10,,,85,116
251008,note_on,,,,,128,0,14,,,,12,,,73,0
251008,note_on,,,,,0,0,14,,,,12,,,64,0
251040,note_on,,,,,192,0,16,,,,14,,,46,116
251040,note_on,,,,,672,0,11,,,,7,,,52,116
251040,note_on,,,,,192,0,15,,,,13,,,58,116
251040,note_on,,,,,32,0,14,,,,12,,,64,105
251040,note_on,,,,,192,0,6,,,,3,,,58,105
251040,note_on,,,,,0,0,14,,,,12,,,73,105
251072,note_on,,,,,192,0,12,,,,10,,,85,0
251072,note_on,,,,,192,0,13,,,,11,,,73,0
251136,note_on,,,,,576,0,8,,,,4,,,66,0
251136,note_on,,,,,0,0,1,,,,0,,,88,0
251136,note_on,,,,,0,0,10,,,,6,,,76,0
251136,note_on,,,,,576,0,10,,,,6,,,78,0
251136,note_on,,,,,576,0,1,,,,0,,,90,0
251136,note_on,,,,,576,0,3,,,,1,,,78,0
251136,note_on,,,,,0,0,3,,,,1,,,76,0
251136,note_on,,,,,0,0,8,,,,4,,,64,0
251168,note_on,,,,,0,0,14,,,,12,,,64,0
251168,note_on,,,,,128,0,14,,,,12,,,73,0
251200,note_on,,,,,128,0,13,,,,11,,,78,116
251200,note_on,,,,,128,0,12,,,,10,,,90,116
251200,note_on,,,,,0,0,14,,,,12,,,73,105
251200,note_on,,,,,32,0,14,,,,12,,,64,105
251280,note_on,,,,,0,0,3,,,,1,,,78,92
251280,note_on,,,,,144,0,8,,,,4,,,66,105
251280,note_on,,,,,144,0,1,,,,0,,,90,92
251280,note_on,,,,,144,0,3,,,,1,,,76,92
251280,note_on,,,,,0,0,1,,,,0,,,88,92
251280,note_on,,,,,144,0,10,,,,6,,,78,105
251280,note_on,,,,,0,0,8,,,,4,,,64,105
251280,note_on,,,,,0,0,10,,,,6,,,76,105
251328,note_on,,,,,288,0,11,,,,7,,,52,0
251328,note_on,,,,,288,0,6,,,,3,,,58,0
251328,note_on,,,,,288,0,16,,,,14,,,46,0
251328,note_on,,,,,128,0,14,,,,12,,,73,0
251328,note_on,,,,,0,0,14,,,,12,,,64,0
251328,note_on,,,,,288,0,15,,,,13,,,58,0
251360,note_on,,,,,32,0,14,,,,12,,,64,105
251360,note_on,,,,,0,0,14,,,,12,,,73,105
251376,note_on,,,,,0,0,10,,,,6,,,78,0
251376,note_on,,,,,96,0,10,,,,6,,,76,0
251376,note_on,,,,,0,0,1,,,,0,,,90,0
251376,note_on,,,,,96,0,1,,,,0,,,88,0
251376,note_on,,,,,96,0,8,,,,4,,,64,0
251376,note_on,,,,,0,0,3,,,,1,,,76,0
251376,note_on,,,,,96,0,3,,,,1,,,78,0
251376,note_on,,,,,0,0,8,,,,4,,,66,0
251392,note_on,,,,,192,0,12,,,,10,,,90,0
251392,note_on,,,,,192,0,13,,,,11,,,78,0
251400,note_on,,,,,0,0,10,,,,6,,,76,105
251400,note_on,,,,,0,0,1,,,,0,,,90,92
251400,note_on,,,,,0,0,8,,,,4,,,66,105
251400,note_on,,,,,24,0,10,,,,6,,,78,105
251400,note_on,,,,,24,0,3,,,,1,,,76,92
251400,note_on,,,,,24,0,1,,,,0,,,88,92
251400,note_on,,,,,24,0,8,,,,4,,,64,105
251400,note_on,,,,,0,0,3,,,,1,,,78,92
251488,note_on,,,,,128,0,14,,,,12,,,73,0
251488,note_on,,,,,0,0,14,,,,12,,,64,0
251496,note_on,,,,,0,0,1,,,,0,,,88,0
251496,note_on,,,,,0,0,3,,,,1,,,76,0
251496,note_on,,,,,96,0,10,,,,6,,,76,0
251496,note_on,,,,,0,0,10,,,,6,,,78,0
251496,note_on,,,,,0,0,8,,,,4,,,64,0
251496,note_on,,,,,96,0,1,,,,0,,,90,0
251496,note_on,,,,,96,0,3,,,,1,,,78,0
251496,note_on,,,,,96,0,8,,,,4,,,66,0
251520,note_on,,,,,128,0,12,,,,10,,,88,116
251520,note_on,,,,,24,0,8,,,,4,,,64,105
251520,note_on,,,,,192,0,16,,,,14,,,49,116
251520,note_on,,,,,192,0,6,,,,3,,,61,105
251520,note_on,,,,,192,0,15,,,,13,,,61,116
251520,note_on,,,,,0,0,8,,,,4,,,66,125
251520,note_on,,,,,128,0,13,,,,11,,,76,116
251520,note_on,,,,,24,0,3,,,,1,,,76,92
251520,note_on,,,,,0,0,3,,,,1,,,78,112
251520,note_on,,,,,24,0,10,,,,6,,,78,125
251520,note_on,,,,,0,0,1,,,,0,,,88,92
251520,note_on,,,,,24,0,1,,,,0,,,90,112
251520,note_on,,,,,0,0,10,,,,6,,,76,105
251520,note_on,,,,,32,0,14,,,,12,,,73,105
251520,note_on,,,,,0,0,14,,,,12,,,64,105
251648,note_on,,,,,0,0,14,,,,12,,,73,0
251648,note_on,,,,,128,0,14,,,,12,,,64,0
251680,note_on,,,,,0,0,14,,,,12,,,64,105
251680,note_on,,,,,32,0,14,,,,12,,,73,105
251712,note_on,,,,,192,0,12,,,,10,,,88,0
251712,note_on,,,,,192,0,13,,,,11,,,76,0
251808,note_on,,,,,288,0,6,,,,3,,,61,0
251808,note_on,,,,,288,0,16,,,,14,,,49,0
251808,note_on,,,,,288,0,15,,,,13,,,61,0
251808,note_on,,,,,0,0,14,,,,12,,,73,0
251808,note_on,,,,,128,0,14,,,,12,,,64,0
251840,note_on,,,,,128,0,12,,,,10,,,85,116
251840,note_on,,,,,0,0,14,,,,12,,,64,105
251840,note_on,,,,,32,0,14,,,,12,,,73,105
251840,note_on,,,,,128,0,13,,,,11,,,73,116
251904,note_on,,,,,0,0,4,,,,2,,,73,0
251904,note_on,,,,,2784,0,4,,,,2,,,70,0
251968,note_on,,,,,0,0,14,,,,12,,,73,0
251968,note_on,,,,,128,0,14,,,,12,,,64,0
252000,note_on,,,,,0,0,14,,,,12,,,73,105
252000,note_on,,,,,192,0,6,,,,3,,,42,105
252000,note_on,,,,,672,0,11,,,,7,,,47,116
252000,note_on,,,,,96,0,4,,,,2,,,71,105
252000,note_on,,,,,0,0,4,,,,2,,,75,105
252000,note_on,,,,,192,0,16,,,,14,,,30,116
252000,note_on,,,,,32,0,14,,,,12,,,64,105
252000,note_on,,,,,192,0,15,,,,13,,,42,116
252032,note_on,,,,,192,0,13,,,,11,,,73,0
252032,note_on,,,,,192,0,12,,,,10,,,85,0
252096,note_on,,,,,0,0,1,,,,0,,,90,0
252096,note_on,,,,,576,0,1,,,,0,,,88,0
252096,note_on,,,,,576,0,10,,,,6,,,76,0
252096,note_on,,,,,0,0,10,,,,6,,,78,0
252096,note_on,,,,,0,0,3,,,,1,,,76,0
252096,note_on,,,,,576,0,8,,,,4,,,66,0
252096,note_on,,,,,0,0,8,,,,4,,,64,0
252096,note_on,,,,,576,0,3,,,,1,,,78,0
252128,note_on,,,,,0,0,14,,,,12,,,64,0
252128,note_on,,,,,128,0,14,,,,12,,,73,0
252160,note_on,,,,,0,0,14,,,,12,,,63,105
252160,note_on,,,,,128,0,12,,,,10,,,90,116
252160,note_on,,,,,128,0,13,,,,11,,,78,116
252160,note_on,,,,,32,0,14,,,,12,,,71,105
252240,note_on,,,,,144,0,8,,,,4,,,59,105
252240,note_on,,,,,0,0,1,,,,0,,,90,92
252240,note_on,,,,,144,0,1,,,,0,,,87,92
252240,note_on,,,,,0,0,8,,,,4,,,66,105
252240,note_on,,,,,144,0,10,,,,6,,,71,105
252240,note_on,,,,,0,0,10,,,,6,,,78,105
252240,note_on,,,,,0,0,3,,,,1,,,75,92
252240,note_on,,,,,144,0,3,,,,1,,,78,92
252288,note_on,,,,,0,0,14,,,,12,,,71,0
252288,note_on,,,,,128,0,14,,,,12,,,63,0
252288,note_on,,,,,288,0,6,,,,3,,,42,0
252288,note_on,,,,,288,0,16,,,,14,,,30,0
252288,note_on,,,,,288,0,11,,,,7,,,47,0
252288,note_on,,,,,288,0,15,,,,13,,,42,0
252320,note_on,,,,,32,0,14,,,,12,,,63,105
252320,note_on,,,,,0,0,14,,,,12,,,71,105
252336,note_on,,,,,96,0,8,,,,4,,,66,0
252336,note_on,,,,,96,0,10,,,,6,,,78,0
252336,note_on,,,,,0,0,10,,,,6,,,71,0
252336,note_on,,,,,96,0,1,,,,0,,,90,0
252336,note_on,,,,,0,0,8,,,,4,,,59,0
252336,note_on,,,,,96,0,3,,,,1,,,75,0
252336,note_on,,,,,0,0,3,,,,1,,,78,0
252336,note_on,,,,,0,0,1,,,,0,,,87,0
252352,note_on,,,,,192,0,13,,,,11,,,78,0
252352,note_on,,,,,192,0,12,,,,10,,,90,0
252360,note_on,,,,,0,0,3,,,,1,,,75,92
252360,note_on,,,,,24,0,1,,,,0,,,87,92
252360,note_on,,,,,0,0,1,,,,0,,,90,92
252360,note_on,,,,,0,0,10,,,,6,,,78,105
252360,note_on,,,,,24,0,10,,,,6,,,71,105
252360,note_on,,,,,24,0,8,,,,4,,,59,105
252360,note_on,,,,,0,0,8,,,,4,,,66,105
252360,note_on,,,,,24,0,3,,,,1,,,78,92
252448,note_on,,,,,128,0,14,,,,12,,,71,0
252448,note_on,,,,,0,0,14,,,,12,,,63,0
252456,note_on,,,,,96,0,1,,,,0,,,90,0
252456,note_on,,,,,0,0,1,,,,0,,,87,0
252456,note_on,,,,,0,0,8,,,,4,,,59,0
252456,note_on,,,,,0,0,3,,,,1,,,78,0
252456,note_on,,,,,0,0,10,,,,6,,,71,0
252456,note_on,,,,,96,0,10,,,,6,,,78,0
252456,note_on,,,,,96,0,3,,,,1,,,75,0
252456,note_on,,,,,96,0,8,,,,4,,,66,0
252480,note_on,,,,,0,0,8,,,,4,,,66,125
252480,note_on,,,,,24,0,10,,,,6,,,71,105
252480,note_on,,,,,0,0,10,,,,6,,,78,125
252480,note_on,,,,,24,0,1,,,,0,,,90,112
252480,note_on,,,,,0,0,1,,,,0,,,87,92
252480,note_on,,,,,128,0,13,,,,11,,,75,116
252480,note_on,,,,,0,0,3,,,,1,,,78,112
252480,note_on,,,,,128,0,12,,,,10,,,87,116
252480,note_on,,,,,24,0,3,,,,1,,,75,92
252480,note_on,,,,,192,0,16,,,,14,,,35,116
252480,note_on,,,,,0,0,14,,,,12,,,63,105
252480,note_on,,,,,192,0,6,,,,3,,,47,105
252480,note_on,,,,,192,0,15,,,,13,,,47,116
252480,note_on,,,,,24,0,8,,,,4,,,59,105
252480,note_on,,,,,32,0,14,,,,12,,,71,105
252608,note_on,,,,,0,0,14,,,,12,,,71,0
252608,note_on,,,,,128,0,14,,,,12,,,63,0
252640,note_on,,,,,32,0,14,,,,12,,,71,105
252640,note_on,,,,,0,0,14,,,,12,,,63,105
252672,note_on,,,,,192,0,13,,,,11,,,75,0
252672,note_on,,,,,192,0,12,,,,10,,,87,0
252768,note_on,,,,,288,0,16,,,,14,,,35,0
252768,note_on,,,,,288,0,15,,,,13,,,47,0
252768,note_on,,,,,288,0,6,,,,3,,,47,0
252768,note_on,,,,,0,0,14,,,,12,,,71,0
252768,note_on,,,,,128,0,14,,,,12,,,63,0
252800,note_on,,,,,0,0,14,,,,12,,,63,105
252800,note_on,,,,,32,0,14,,,,12,,,71,105
252800,note_on,,,,,128,0,12,,,,10,,,83,116
252800,note_on,,,,,128,0,13,,,,11,,,71,116
252928,note_on,,,,,128,0,14,,,,12,,,63,0
252928,note_on,,,,,0,0,14,,,,12,,,71,0
252960,note_on,,,,,192,0,16,,,,14,,,39,116
252960,note_on,,,,,192,0,6,,,,3,,,51,105
252960,note_on,,,,,192,0,15,,,,13,,,51,116
252960,note_on,,,,,0,0,14,,,,12,,,63,105
252960,note_on,,,,,32,0,14,,,,12,,,71,105
252960,note_on,,,,,672,0,11,,,,7,,,47,116
252992,note_on,,,,,192,0,12,,,,10,,,83,0
252992,note_on,,,,,192,0,13,,,,11,,,71,0
253056,note_on,,,,,0,0,8,,,,4,,,59,0
253056,note_on,,,,,576,0,3,,,,1,,,78,0
253056,note_on,,,,,0,0,3,,,,1,,,75,0
253056,note_on,,,,,576,0,10,,,,6,,,78,0
253056,note_on,,,,,0,0,10,,,,6,,,71,0
253056,note_on,,,,,576,0,1,,,,0,,,87,0
253056,note_on,,,,,0,0,1,,,,0,,,90,0
253056,note_on,,,,,576,0,8,,,,4,,,66,0
253088,note_on,,,,,0,0,14,,,,12,,,71,0
253088,note_on,,,,,128,0,14,,,,12,,,63,0
253120,note_on,,,,,0,0,14,,,,12,,,63,105
253120,note_on,,,,,32,0,14,,,,12,,,71,105
253120,note_on,,,,,128,0,13,,,,11,,,78,116
253120,note_on,,,,,128,0,12,,,,10,,,90,116
253200,note_on,,,,,144,0,10,,,,6,,,71,105
253200,note_on,,,,,0,0,10,,,,6,,,78,105
253200,note_on,,,,,0,0,3,,,,1,,,78,92
253200,note_on,,,,,144,0,8,,,,4,,,66,105
253200,note_on,,,,,0,0,8,,,,4,,,59,105
253200,note_on,,,,,144,0,3,,,,1,,,75,92
253200,note_on,,,,,144,0,1,,,,0,,,90,92
253200,note_on,,,,,0,0,1,,,,0,,,87,92
253248,note_on,,,,,288,0,6,,,,3,,,51,0
253248,note_on,,,,,288,0,16,,,,14,,,39,0
253248,note_on,,,,,0,0,14,,,,12,,,71,0
253248,note_on,,,,,288,0,11,,,,7,,,47,0
253248,note_on,,,,,288,0,15,,,,13,,,51,0
253248,note_on,,,,,128,0,14,,,,12,,,63,0
253280,note_on,,,,,32,0,14,,,,12,,,63,105
253280,note_on,,,,,0,0,14,,,,12,,,71,105
253296,note_on,,,,,96,0,3,,,,1,,,78,0
253296,note_on,,,,,96,0,1,,,,0,,,87,0
253296,note_on,,,,,0,0,1,,,,0,,,90,0
253296,note_on,,,,,0,0,8,,,,4,,,66,0
253296,note_on,,,,,96,0,8,,,,4,,,59,0
253296,note_on,,,,,0,0,3,,,,1,,,75,0
253296,note_on,,,,,0,0,10,,,,6,,,71,0
253296,note_on,,,,,96,0,10,,,,6,,,78,0
253312,note_on,,,,,192,0,13,,,,11,,,78,0
253312,note_on,,,,,192,0,12,,,,10,,,90,0
253320,note_on,,,,,0,0,10,,,,6,,,78,105
253320,note_on,,,,,24,0,8,,,,4,,,66,105
253320,note_on,,,,,0,0,8,,,,4,,,59,105
253320,note_on,,,,,24,0,10,,,,6,,,71,105
253320,note_on,,,,,24,0,1,,,,0,,,87,92
253320,note_on,,,,,24,0,3,,,,1,,,75,92
253320,note_on,,,,,0,0,1,,,,0,,,90,92
253320,note_on,,,,,0,0,3,,,,1,,,78,92
253408,note_on,,,,,128,0,14,,,,12,,,71,0
253408,note_on,,,,,0,0,14,,,,12,,,63,0
253416,note_on,,,,,96,0,10,,,,6,,,78,0
253416,note_on,,,,,0,0,10,,,,6,,,71,0
253416,note_on,,,,,96,0,1,,,,0,,,90,0
253416,note_on,,,,,0,0,3,,,,1,,,75,0
253416,note_on,,,,,0,0,1,,,,0,,,87,0
253416,note_on,,,,,0,0,8,,,,4,,,66,0
253416,note_on,,,,,96,0,8,,,,4,,,59,0
253416,note_on,,,,,96,0,3,,,,1,,,78,0
253440,note_on,,,,,0,0,8,,,,4,,,59,105
253440,note_on,,,,,24,0,8,,,,4,,,66,125
253440,note_on,,,,,0,0,3,,,,1,,,75,92
253440,note_on,,,,,24,0,3,,,,1,,,78,112
253440,note_on,,,,,192,0,15,,,,13,,,54,116
253440,note_on,,,,,32,0,14,,,,12,,,71,105
253440,note_on,,,,,128,0,12,,,,10,,,87,116
253440,note_on,,,,,0,0,14,,,,12,,,63,105
253440,note_on,,,,,0,0,10,,,,6,,,71,105
253440,note_on,,,,,24,0,10,,,,6,,,78,125
253440,note_on,,,,,128,0,13,,,,11,,,75,116
253440,note_on,,,,,192,0,6,,,,3,,,54,105
253440,note_on,,,,,24,0,1,,,,0,,,87,92
253440,note_on,,,,,192,0,16,,,,14,,,42,116
253440,note_on,,,,,0,0,1,,,,0,,,90,112
253568,note_on,,,,,128,0,14,,,,12,,,63,0
253568,note_on,,,,,0,0,14,,,,12,,,71,0
253600,note_on,,,,,0,0,14,,,,12,,,71,105
253600,note_on,,,,,32,0,14,,,,12,,,63,105
253632,note_on,,,,,192,0,13,,,,11,,,75,0
253632,note_on,,,,,192,0,12,,,,10,,,87,0
253728,note_on,,,,,288,0,16,,,,14,,,42,0
253728,note_on,,,,,288,0,15,,,,13,,,54,0
253728,note_on,,,,,288,0,6,,,,3,,,54,0
253728,note_on,,,,,128,0,14,,,,12,,,71,0
253728,note_on,,,,,0,0,14,,,,12,,,63,0
253760,note_on,,,,,32,0,14,,,,12,,,63,105
253760,note_on,,,,,0,0,14,,,,12,,,71,105
253760,note_on,,,,,128,0,12,,,,10,,,83,116
253760,note_on,,,,,128,0,13,,,,11,,,71,116
253888,note_on,,,,,0,0,14,,,,12,,,63,0
253888,note_on,,,,,128,0,14,,,,12,,,71,0
253920,note_on,,,,,192,0,16,,,,14,,,47,116
253920,note_on,,,,,0,0,14,,,,12,,,71,105
253920,note_on,,,,,672,0,11,,,,7,,,47,116
253920,note_on,,,,,192,0,6,,,,3,,,59,105
253920,note_on,,,,,192,0,15,,,,13,,,59,116
253920,note_on,,,,,32,0,14,,,,12,,,63,105
253952,note_on,,,,,192,0,13,,,,11,,,71,0
253952,note_on,,,,,192,0,12,,,,10,,,83,0
254016,note_on,,,,,0,0,3,,,,1,,,78,0
254016,note_on,,,,,576,0,3,,,,1,,,75,0
254016,note_on,,,,,0,0,10,,,,6,,,78,0
254016,note_on,,,,,0,0,8,,,,4,,,66,0
254016,note_on,,,,,0,0,1,,,,0,,,87,0
254016,note_on,,,,,576,0,1,,,,0,,,90,0
254016,note_on,,,,,576,0,8,,,,4,,,59,0
254016,note_on,,,,,576,0,10,,,,6,,,71,0
254048,note_on,,,,,0,0,14,,,,12,,,63,0
254048,note_on,,,,,128,0,14,,,,12,,,71,0
254080,note_on,,,,,0,0,14,,,,12,,,63,105
254080,note_on,,,,,32,0,14,,,,12,,,71,105
254080,note_on,,,,,128,0,12,,,,10,,,90,116
254080,note_on,,,,,128,0,13,,,,11,,,78,116
254160,note_on,,,,,144,0,10,,,,6,,,78,105
254160,note_on,,,,,0,0,3,,,,1,,,75,92
254160,note_on,,,,,144,0,3,,,,1,,,78,92
254160,note_on,,,,,0,0,10,,,,6,,,71,105
254160,note_on,,,,,144,0,8,,,,4,,,59,105
254160,note_on,,,,,144,0,1,,,,0,,,87,92
254160,note_on,,,,,0,0,1,,,,0,,,90,92
254160,note_on,,,,,0,0,8,,,,4,,,66,105
254208,note_on,,,,,288,0,15,,,,13,,,59,0
254208,note_on,,,,,288,0,11,,,,7,,,47,0
254208,note_on,,,,,0,0,14,,,,12,,,71,0
254208,note_on,,,,,128,0,14,,,,12,,,63,0
254208,note_on,,,,,288,0,16,,,,14,,,47,0
254208,note_on,,,,,288,0,6,,,,3,,,59,0
254240,note_on,,,,,0,0,14,,,,12,,,71,105
254240,note_on,,,,,32,0,14,,,,12,,,63,105
254256,note_on,,,,,96,0,10,,,,6,,,71,0
254256,note_on,,,,,0,0,10,,,,6,,,78,0
254256,note_on,,,,,0,0,1,,,,0,,,87,0
254256,note_on,,,,,96,0,1,,,,0,,,90,0
254256,note_on,,,,,96,0,8,,,,4,,,66,0
254256,note_on,,,,,96,0,3,,,,1,,,75,0
254256,note_on,,,,,0,0,3,,,,1,,,78,0
254256,note_on,,,,,0,0,8,,,,4,,,59,0
254272,note_on,,,,,192,0,13,,,,11,,,78,0
254272,note_on,,,,,192,0,12,,,,10,,,90,0
254280,note_on,,,,,24,0,8,,,,4,,,66,105
254280,note_on,,,,,24,0,10,,,,6,,,71,105
254280,note_on,,,,,0,0,10,,,,6,,,78,105
254280,note_on,,,,,0,0,3,,,,1,,,78,92
254280,note_on,,,,,0,0,8,,,,4,,,59,105
254280,note_on,,,,,24,0,3,,,,1,,,75,92
254280,note_on,,,,,0,0,1,,,,0,,,90,92
254280,note_on,,,,,24,0,1,,,,0,,,87,92
254368,note_on,,,,,128,0,14,,,,12,,,71,0
254368,note_on,,,,,0,0,14,,,,12,,,63,0
254376,note_on,,,,,96,0,8,,,,4,,,59,0
254376,note_on,,,,,0,0,10,,,,6,,,71,0
254376,note_on,,,,,96,0,3,,,,1,,,78,0
254376,note_on,,,,,0,0,3,,,,1,,,75,0
254376,note_on,,,,,96,0,10,,,,6,,,78,0
254376,note_on,,,,,96,0,1,,,,0,,,90,0
254376,note_on,,,,,0,0,8,,,,4,,,66,0
254376,note_on,,,,,0,0,1,,,,0,,,87,0
254400,note_on,,,,,192,0,6,,,,3,,,63,105
254400,note_on,,,,,24,0,10,,,,6,,,78,105
254400,note_on,,,,,0,0,10,,,,6,,,71,105
254400,note_on,,,,,128,0,13,,,,11,,,75,116
254400,note_on,,,,,128,0,12,,,,10,,,87,116
254400,note_on,,,,,0,0,14,,,,12,,,63,105
254400,note_on,,,,,32,0,14,,,,12,,,71,105
254400,note_on,,,,,0,0,3,,,,1,,,75,92
254400,note_on,,,,,24,0,3,,,,1,,,78,92
254400,note_on,,,,,192,0,16,,,,14,,,51,116
254400,note_on,,,,,0,0,1,,,,0,,,87,92
254400,note_on,,,,,24,0,1,,,,0,,,90,92
254400,note_on,,,,,192,0,15,,,,13,,,63,116
254400,note_on,,,,,24,0,8,,,,4,,,66,105
254400,note_on,,,,,0,0,8,,,,4,,,59,105
254528,note_on,,,,,128,0,14,,,,12,,,63,0
254528,note_on,,,,,0,0,14,,,,12,,,71,0
254560,note_on,,,,,32,0,14,,,,12,,,71,105
254560,note_on,,,,,0,0,14,,,,12,,,63,105
254592,note_on,,,,,192,0,13,,,,11,,,75,0
254592,note_on,,,,,2592,0,4,,,,2,,,75,0
254592,note_on,,,,,192,0,12,,,,10,,,87,0
254592,note_on,,,,,0,0,4,,,,2,,,71,0
254688,note_on,,,,,288,0,3,,,,1,,,75,0
254688,note_on,,,,,0,0,8,,,,4,,,66,0
254688,note_on,,,,,0,0,14,,,,12,,,71,0
254688,note_on,,,,,128,0,14,,,,12,,,63,0
254688,note_on,,,,,288,0,6,,,,3,,,63,0
254688,note_on,,,,,288,0,8,,,,4,,,59,0
254688,note_on,,,,,288,0,15,,,,13,,,63,0
254688,note_on,,,,,0,0,3,,,,1,,,78,0
254688,note_on,,,,,288,0,1,,,,0,,,87,0
254688,note_on,,,,,0,0,1,,,,0,,,90,0
254688,note_on,,,,,288,0,16,,,,14,,,51,0
254688,note_on,,,,,0,0,10,,,,6,,,78,0
254688,note_on,,,,,288,0,10,,,,6,,,71,0
254720,note_on,,,,,0,0,14,,,,12,,,71,105
254720,note_on,,,,,128,0,13,,,,11,,,71,116
254720,note_on,,,,,32,0,14,,,,12,,,63,105
254720,note_on,,,,,128,0,12,,,,10,,,83,116
254848,note_on,,,,,0,0,14,,,,12,,,63,0
254848,note_on,,,,,128,0,14,,,,12,,,71,0
254880,note_on,,,,,192,0,8,,,,4,,,59,105
254880,note_on,,,,,32,0,14,,,,12,,,71,105
254880,note_on,,,,,192,0,6,,,,3,,,47,105
254880,note_on,,,,,192,0,15,,,,13,,,47,116
254880,note_on,,,,,192,0,1,,,,0,,,90,92
254880,note_on,,,,,0,0,14,,,,12,,,63,105
254880,note_on,,,,,0,0,1,,,,0,,,87,92
254880,note_on,,,,,0,0,4,,,,2,,,75,105
254880,note_on,,,,,288,0,4,,,,2,,,71,105
254880,note_on,,,,,0,0,10,,,,6,,,71,105
254880,note_on,,,,,192,0,16,,,,14,,,35,116
254880,note_on,,,,,192,0,10,,,,6,,,59,105
254880,note_on,,,,,0,0,3,,,,1,,,75,92
254880,note_on,,,,,0,0,8,,,,4,,,47,105
254880,note_on,,,,,672,0,11,,,,7,,,47,116
254880,note_on,,,,,192,0,3,,,,1,,,83,92
254912,note_on,,,,,192,0,12,,,,10,,,83,0
254912,note_on,,,,,192,0,13,,,,11,,,71,0
255008,note_on,,,,,0,0,14,,,,12,,,71,0
255008,note_on,,,,,128,0,14,,,,12,,,63,0
255040,note_on,,,,,0,0,14,,,,12,,,71,105
255040,note_on,,,,,32,0,14,,,,12,,,63,105
255040,note_on,,,,,128,0,12,,,,10,,,95,116
255040,note_on,,,,,128,0,13,,,,11,,,83,116
255168,note_on,,,,,0,0,3,,,,1,,,83,0
255168,note_on,,,,,288,0,11,,,,7,,,47,0
255168,note_on,,,,,288,0,15,,,,13,,,47,0
255168,note_on,,,,,288,0,6,,,,3,,,47,0
255168,note_on,,,,,288,0,16,,,,14,,,35,0
255168,note_on,,,,,0,0,10,,,,6,,,59,0
255168,note_on,,,,,288,0,10,,,,6,,,71,0
255168,note_on,,,,,288,0,8,,,,4,,,47,0
255168,note_on,,,,,0,0,8,,,,4,,,59,0
255168,note_on,,,,,0,0,1,,,,0,,,90,0
255168,note_on,,,,,288,0,1,,,,0,,,87,0
255168,note_on,,,,,288,0,3,,,,1,,,75,0
255232,note_on,,,,,192,0,12,,,,10,,,95,0
255232,note_on,,,,,192,0,13,,,,11,,,83,0
255264,note_on,,,,,384,0,4,,,,2,,,75,0
255264,note_on,,,,,0,0,4,,,,2,,,71,0
255296,note_on,,,,,256,0,14,,,,12,,,71,0
255296,note_on,,,,,0,0,14,,,,12,,,63,0
255360,note_on,,,,,96,0,4,,,,2,,,76,125
255360,note_on,,,,,192,0,3,,,,1,,,80,112
255360,note_on,,,,,0,0,3,,,,1,,,76,92
255360,note_on,,,,,192,0,8,,,,4,,,64,105
255360,note_on,,,,,0,0,8,,,,4,,,52,105
255360,note_on,,,,,0,0,6,,,,3,,,52,105
255360,note_on,,,,,192,0,6,,,,3,,,40,105
255360,note_on,,,,,0,0,4,,,,2,,,68,105
255360,note_on,,,,,64,0,14,,,,12,,,52,105
255360,note_on,,,,,192,0,16,,,,14,,,40,127
255360,note_on,,,,,128,0,12,,,,10,,,92,127
255360,note_on,,,,,192,0,1,,,,0,,,92,112
255360,note_on,,,,,0,0,10,,,,6,,,64,105
255360,note_on,,,,,0,0,1,,,,0,,,88,92
255360,note_on,,,,,192,0,10,,,,6,,,76,105
255360,note_on,,,,,192,0,15,,,,13,,,40,116
255360,note_on,,,,,128,0,13,,,,11,,,71,116
255360,note_on,,,,,0,0,13,,,,11,,,80,127
255504,note_on,,,,,0,0,6,,,,3,,,40,0
255504,note_on,,,,,144,0,6,,,,3,,,52,0
255504,note_on,,,,,144,0,14,,,,12,,,52,0
255504,note_on,,,,,144,0,15,,,,13,,,40,0
255600,note_on,,,,,96,0,15,,,,13,,,44,116
255600,note_on,,,,,96,0,6,,,,3,,,44,105
255600,note_on,,,,,0,0,6,,,,3,,,56,105
255600,note_on,,,,,96,0,14,,,,12,,,56,105
255672,note_on,,,,,0,0,8,,,,4,,,64,0
255672,note_on,,,,,312,0,10,,,,6,,,64,0
255672,note_on,,,,,0,0,10,,,,6,,,76,0
255672,note_on,,,,,312,0,8,,,,4,,,52,0
255744,note_on,,,,,144,0,14,,,,12,,,56,0
255744,note_on,,,,,0,0,6,,,,3,,,44,0
255744,note_on,,,,,144,0,6,,,,3,,,56,0
255744,note_on,,,,,144,0,15,,,,13,,,44,0
255840,note_on,,,,,0,0,6,,,,3,,,59,105
255840,note_on,,,,,96,0,14,,,,12,,,59,105
255840,note_on,,,,,96,0,6,,,,3,,,47,105
255840,note_on,,,,,96,0,15,,,,13,,,47,116
255936,note_on,,,,,576,0,12,,,,10,,,92,0
255936,note_on,,,,,0,0,4,,,,2,,,76,0
255936,note_on,,,,,576,0,4,,,,2,,,68,0
255936,note_on,,,,,576,0,3,,,,1,,,76,0
255936,note_on,,,,,0,0,1,,,,0,,,92,0
255936,note_on,,,,,576,0,1,,,,0,,,88,0
255936,note_on,,,,,0,0,13,,,,11,,,71,0
255936,note_on,,,,,576,0,16,,,,14,,,40,0
255936,note_on,,,,,576,0,13,,,,11,,,80,0
255936,note_on,,,,,0,0,3,,,,1,,,80,0
255984,note_on,,,,,0,0,6,,,,3,,,47,0
255984,note_on,,,,,144,0,15,,,,13,,,47,0
255984,note_on,,,,,144,0,14,,,,12,,,59,0
255984,note_on,,,,,144,0,6,,,,3,,,59,0
256080,note_on,,,,,0,0,6,,,,3,,,54,105
256080,note_on,,,,,144,0,13,,,,11,,,78,116
256080,note_on,,,,,0,0,13,,,,11,,,70,116
256080,note_on,,,,,0,0,4,,,,2,,,73,105
256080,note_on,,,,,96,0,6,,,,3,,,42,105
256080,note_on,,,,,96,0,15,,,,13,,,42,116
256080,note_on,,,,,144,0,12,,,,10,,,90,116
256080,note_on,,,,,144,0,4,,,,2,,,70,105
256080,note_on,,,,,96,0,14,,,,12,,,54,105
256080,note_on,,,,,144,0,3,,,,1,,,78,92
256080,note_on,,,,,0,0,3,,,,1,,,70,92
256080,note_on,,,,,144,0,16,,,,14,,,42,116
256080,note_on,,,,,144,0,1,,,,0,,,90,92
256080,note_on,,,,,0,0,1,,,,0,,,82,92
256224,note_on,,,,,144,0,14,,,,12,,,54,0
256224,note_on,,,,,0,0,6,,,,3,,,42,0
256224,note_on,,,,,144,0,6,,,,3,,,54,0
256224,note_on,,,,,144,0,15,,,,13,,,42,0
256272,note_on,,,,,0,0,3,,,,1,,,78,0
256272,note_on,,,,,192,0,16,,,,14,,,42,0
256272,note_on,,,,,192,0,3,,,,1,,,70,0
256272,note_on,,,,,0,0,4,,,,2,,,70,0
256272,note_on,,,,,192,0,1,,,,0,,,82,0
256272,note_on,,,,,192,0,13,,,,11,,,70,0
256272,note_on,,,,,192,0,12,,,,10,,,90,0
256272,note_on,,,,,0,0,13,,,,11,,,78,0
256272,note_on,,,,,192,0,4,,,,2,,,73,0
256272,note_on,,,,,0,0,1,,,,0,,,90,0
256320,note_on,,,,,48,0,1,,,,0,,,82,92
256320,note_on,,,,,96,0,6,,,,3,,,58,105
256320,note_on,,,,,96,0,14,,,,12,,,58,105
256320,note_on,,,,,648,0,10,,,,6,,,78,105
256320,note_on,,,,,0,0,6,,,,3,,,46,105
256320,note_on,,,,,48,0,16,,,,14,,,42,116
256320,note_on,,,,,48,0,3,,,,1,,,70,92
256320,note_on,,,,,0,0,3,,,,1,,,78,92
256320,note_on,,,,,48,0,4,,,,2,,,73,105
256320,note_on,,,,,96,0,15,,,,13,,,46,116
256320,note_on,,,,,0,0,13,,,,11,,,70,116
256320,note_on,,,,,48,0,13,,,,11,,,78,116
256320,note_on,,,,,0,0,1,,,,0,,,90,92
256320,note_on,,,,,648,0,8,,,,4,,,66,105
256320,note_on,,,,,0,0,4,,,,2,,,70,105
256320,note_on,,,,,48,0,12,,,,10,,,90,116
256464,note_on,,,,,0,0,6,,,,3,,,58,0
256464,note_on,,,,,144,0,6,,,,3,,,46,0
256464,note_on,,,,,144,0,15,,,,13,,,46,0
256464,note_on,,,,,144,0,14,,,,12,,,58,0
256560,note_on,,,,,96,0,15,,,,13,,,49,116
256560,note_on,,,,,96,0,6,,,,3,,,61,105
256560,note_on,,,,,0,0,6,,,,3,,,49,105
256560,note_on,,,,,96,0,14,,,,12,,,61,105
256632,note_on,,,,,312,0,10,,,,6,,,78,0
256632,note_on,,,,,312,0,8,,,,4,,,66,0
256704,note_on,,,,,144,0,6,,,,3,,,49,0
256704,note_on,,,,,0,0,6,,,,3,,,61,0
256704,note_on,,,,,144,0,15,,,,13,,,49,0
256704,note_on,,,,,144,0,14,,,,12,,,61,0
256800,note_on,,,,,96,0,15,,,,13,,,54,116
256800,note_on,,,,,96,0,14,,,,12,,,66,105
256800,note_on,,,,,96,0,6,,,,3,,,66,105
256800,note_on,,,,,0,0,6,,,,3,,,54,105
256896,note_on,,,,,0,0,13,,,,11,,,78,0
256896,note_on,,,,,576,0,13,,,,11,,,70,0
256896,note_on,,,,,576,0,1,,,,0,,,90,0
256896,note_on,,,,,576,0,12,,,,10,,,90,0
256896,note_on,,,,,0,0,3,,,,1,,,70,0
256896,note_on,,,,,576,0,3,,,,1,,,78,0
256896,note_on,,,,,576,0,4,,,,2,,,70,0
256896,note_on,,,,,576,0,16,,,,14,,,42,0
256896,note_on,,,,,0,0,1,,,,0,,,82,0
256896,note_on,,,,,0,0,4,,,,2,,,73,0
256944,note_on,,,,,144,0,15,,,,13,,,54,0
256944,note_on,,,,,0,0,6,,,,3,,,66,0
256944,note_on,,,,,144,0,6,,,,3,,,54,0
256944,note_on,,,,,144,0,14,,,,12,,,66,0
257040,note_on,,,,,0,0,3,,,,1,,,80,92
257040,note_on,,,,,144,0,13,,,,11,,,80,116
257040,note_on,,,,,0,0,6,,,,3,,,40,105
257040,note_on,,,,,96,0,6,,,,3,,,52,105
257040,note_on,,,,,96,0,15,,,,13,,,40,116
257040,note_on,,,,,144,0,12,,,,10,,,92,116
257040,note_on,,,,,0,0,1,,,,0,,,88,92
257040,note_on,,,,,144,0,1,,,,0,,,92,92
257040,note_on,,,,,0,0,4,,,,2,,,76,105
257040,note_on,,,,,144,0,4,,,,2,,,68,105
257040,note_on,,,,,144,0,16,,,,14,,,40,116
257040,note_on,,,,,96,0,14,,,,12,,,52,105
257040,note_on,,,,,144,0,3,,,,1,,,76,92
257040,note_on,,,,,0,0,13,,,,11,,,71,116
257184,note_on,,,,,0,0,6,,,,3,,,52,0
257184,note_on,,,,,144,0,14,,,,12,,,52,0
257184,note_on,,,,,144,0,15,,,,13,,,40,0
257184,note_on,,,,,144,0,6,,,,3,,,40,0
257232,note_on,,,,,192,0,16,,,,14,,,40,0
257232,note_on,,,,,192,0,1,,,,0,,,88,0
257232,note_on,,,,,192,0,3,,,,1,,,80,0
257232,note_on,,,,,0,0,3,,,,1,,,76,0
257232,note_on,,,,,192,0,13,,,,11,,,71,0
257232,note_on,,,,,0,0,13,,,,11,,,80,0
257232,note_on,,,,,192,0,12,,,,10,,,92,0
257232,note_on,,,,,0,0,1,,,,0,,,92,0
257232,note_on,,,,,0,0,4,,,,2,,,68,0
257232,note_on,,,,,192,0,4,,,,2,,,76,0
257280,note_on,,,,,0,0,4,,,,2,,,68,105
257280,note_on,,,,,96,0,15,,,,13,,,44,116
257280,note_on,,,,,0,0,6,,,,3,,,44,105
257280,note_on,,,,,96,0,6,,,,3,,,56,105
257280,note_on,,,,,48,0,1,,,,0,,,88,92
257280,note_on,,,,,0,0,1,,,,0,,,92,112
257280,note_on,,,,,48,0,3,,,,1,,,80,112
257280,note_on,,,,,0,0,3,,,,1,,,76,92
257280,note_on,,,,,648,0,8,,,,4,,,64,105
257280,note_on,,,,,48,0,4,,,,2,,,76,125
257280,note_on,,,,,0,0,8,,,,4,,,52,105
257280,note_on,,,,,48,0,12,,,,10,,,92,127
257280,note_on,,,,,96,0,14,,,,12,,,56,105
257280,note_on,,,,,48,0,13,,,,11,,,80,127
257280,note_on,,,,,0,0,13,,,,11,,,71,116
257280,note_on,,,,,48,0,16,,,,14,,,40,127
257280,note_on,,,,,0,0,10,,,,6,,,64,105
257280,note_on,,,,,648,0,10,,,,6,,,76,105
257424,note_on,,,,,144,0,15,,,,13,,,44,0
257424,note_on,,,,,144,0,14,,,,12,,,56,0
257424,note_on,,,,,144,0,6,,,,3,,,44,0
257424,note_on,,,,,0,0,6,,,,3,,,56,0
257520,note_on,,,,,96,0,14,,,,12,,,59,105
257520,note_on,,,,,96,0,6,,,,3,,,59,105
257520,note_on,,,,,96,0,15,,,,13,,,47,116
257520,note_on,,,,,0,0,6,,,,3,,,47,105
257592,note_on,,,,,0,0,10,,,,6,,,76,0
257592,note_on,,,,,312,0,10,,,,6,,,64,0
257592,note_on,,,,,312,0,8,,,,4,,,52,0
257592,note_on,,,,,0,0,8,,,,4,,,64,0
257664,note_on,,,,,144,0,15,,,,13,,,47,0
257664,note_on,,,,,144,0,6,,,,3,,,47,0
257664,note_on,,,,,144,0,14,,,,12,,,59,0
257664,note_on,,,,,0,0,6,,,,3,,,59,0
257760,note_on,,,,,96,0,14,,,,12,,,64,105
257760,note_on,,,,,96,0,15,,,,13,,,52,116
257760,note_on,,,,,96,0,6,,,,3,,,64,105
257760,note_on,,,,,0,0,6,,,,3,,,52,105
257856,note_on,,,,,0,0,13,,,,11,,,80,0
257856,note_on,,,,,576,0,3,,,,1,,,76,0
257856,note_on,,,,,0,0,3,,,,1,,,80,0
257856,note_on,,,,,576,0,13,,,,11,,,71,0
257856,note_on,,,,,0,0,4,,,,2,,,76,0
257856,note_on,,,,,0,0,1,,,,0,,,88,0
257856,note_on,,,,,576,0,1,,,,0,,,92,0
257856,note_on,,,,,576,0,4,,,,2,,,68,0
257856,note_on,,,,,576,0,12,,,,10,,,92,0
257856,note_on,,,,,576,0,16,,,,14,,,40,0
257904,note_on,,,,,0,0,6,,,,3,,,64,0
257904,note_on,,,,,144,0,6,,,,3,,,52,0
257904,note_on,,,,,144,0,15,,,,13,,,52,0
257904,note_on,,,,,144,0,14,,,,12,,,64,0
258000,note_on,,,,,144,0,3,,,,1,,,78,92
258000,note_on,,,,,144,0,12,,,,10,,,90,116
258000,note_on,,,,,0,0,3,,,,1,,,70,92
258000,note_on,,,,,144,0,13,,,,11,,,70,116
258000,note_on,,,,,0,0,13,,,,11,,,78,116
258000,note_on,,,,,0,0,4,,,,2,,,70,105
258000,note_on,,,,,96,0,14,,,,12,,,54,105
258000,note_on,,,,,96,0,15,,,,13,,,42,116
258000,note_on,,,,,144,0,16,,,,14,,,42,116
258000,note_on,,,,,96,0,6,,,,3,,,42,105
258000,note_on,,,,,0,0,6,,,,3,,,54,105
258000,note_on,,,,,0,0,1,,,,0,,,90,92
258000,note_on,,,,,144,0,1,,,,0,,,82,92
258000,note_on,,,,,144,0,4,,,,2,,,73,105
258144,note_on,,,,,0,0,6,,,,3,,,42,0
258144,note_on,,,,,144,0,15,,,,13,,,42,0
258144,note_on,,,,,144,0,14,,,,12,,,54,0
258144,note_on,,,,,144,0,6,,,,3,,,54,0
258192,note_on,,,,,0,0,3,,,,1,,,78,0
258192,note_on,,,,,192,0,3,,,,1,,,70,0
258192,note_on,,,,,192,0,16,,,,14,,,42,0
258192,note_on,,,,,192,0,12,,,,10,,,90,0
258192,note_on,,,,,0,0,13,,,,11,,,70,0
258192,note_on,,,,,192,0,1,,,,0,,,90,0
258192,note_on,,,,,0,0,1,,,,0,,,82,0
258192,note_on,,,,,0,0,4,,,,2,,,73,0
258192,note_on,,,,,192,0,4,,,,2,,,70,0
258192,note_on,,,,,192,0,13,,,,11,,,78,0
258240,note_on,,,,,0,0,3,,,,1,,,70,92
258240,note_on,,,,,648,0,10,,,,6,,,78,105
258240,note_on,,,,,48,0,1,,,,0,,,90,92
258240,note_on,,,,,48,0,3,,,,1,,,78,92
258240,note_on,,,,,0,0,1,,,,0,,,82,92
258240,note_on,,,,,0,0,13,,,,11,,,78,116
258240,note_on,,,,,96,0,15,,,,13,,,46,116
258240,note_on,,,,,48,0,16,,,,14,,,42,116
258240,note_on,,,,,48,0,13,,,,11,,,70,116
258240,note_on,,,,,96,0,6,,,,3,,,58,105
258240,note_on,,,,,0,0,6,,,,3,,,46,105
258240,note_on,,,,,48,0,12,,,,10,,,90,116
258240,note_on,,,,,48,0,4,,,,2,,,70,105
258240,note_on,,,,,96,0,14,,,,12,,,58,105
258240,note_on,,,,,0,0,4,,,,2,,,73,105
258240,note_on,,,,,648,0,8,,,,4,,,66,105
258384,note_on,,,,,144,0,6,,,,3,,,46,0
258384,note_on,,,,,0,0,6,,,,3,,,58,0
258384,note_on,,,,,144,0,14,,,,12,,,58,0
258384,note_on,,,,,144,0,15,,,,13,,,46,0
258480,note_on,,,,,96,0,6,,,,3,,,61,105
258480,note_on,,,,,96,0,15,,,,13,,,49,116
258480,note_on,,,,,0,0,6,,,,3,,,49,105
258480,note_on,,,,,96,0,14,,,,12,,,61,105
258552,note_on,,,,,312,0,10,,,,6,,,78,0
258552,note_on,,,,,312,0,8,,,,4,,,66,0
258624,note_on,,,,,144,0,15,,,,13,,,49,0
258624,note_on,,,,,0,0,6,,,,3,,,61,0
258624,note_on,,,,,144,0,6,,,,3,,,49,0
258624,note_on,,,,,144,0,14,,,,12,,,61,0
258720,note_on,,,,,96,0,15,,,,13,,,54,116
258720,note_on,,,,,0,0,6,,,,3,,,54,105
258720,note_on,,,,,96,0,6,,,,3,,,66,105
258720,note_on,,,,,96,0,14,,,,12,,,66,105
258816,note_on,,,,,576,0,12,,,,10,,,90,0
258816,note_on,,,,,576,0,16,,,,14,,,42,0
258816,note_on,,,,,576,0,4,,,,2,,,73,0
258816,note_on,,,,,0,0,4,,,,2,,,70,0
258816,note_on,,,,,576,0,1,,,,0,,,82,0
258816,note_on,,,,,576,0,13,,,,11,,,78,0
258816,note_on,,,,,0,0,13,,,,11,,,70,0
258816,note_on,,,,,0,0,1,,,,0,,,90,0
258816,note_on,,,,,576,0,3,,,,1,,,70,0
258816,note_on,,,,,0,0,3,,,,1,,,78,0
258864,note_on,,,,,0,0,6,,,,3,,,66,0
258864,note_on,,,,,144,0,6,,,,3,,,54,0
258864,note_on,,,,,144,0,14,,,,12,,,66,0
258864,note_on,,,,,144,0,15,,,,13,,,54,0
258960,note_on,,,,,144,0,12,,,,10,,,92,116
258960,note_on,,,,,96,0,15,,,,13,,,40,116
258960,note_on,,,,,144,0,13,,,,11,,,71,116
258960,note_on,,,,,0,0,13,,,,11,,,80,116
258960,note_on,,,,,144,0,4,,,,2,,,68,105
258960,note_on,,,,,0,0,4,,,,2,,,76,105
258960,note_on,,,,,0,0,1,,,,0,,,92,92
258960,note_on,,,,,144,0,1,,,,0,,,88,92
258960,note_on,,,,,0,0,6,,,,3,,,52,105
258960,note_on,,,,,144,0,3,,,,1,,,80,92
258960,note_on,,,,,0,0,3,,,,1,,,76,92
258960,note_on,,,,,96,0,14,,,,12,,,52,105
258960,note_on,,,,,144,0,16,,,,14,,,40,116
258960,note_on,,,,,96,0,6,,,,3,,,40,105
259104,note_on,,,,,144,0,14,,,,12,,,52,0
259104,note_on,,,,,0,0,6,,,,3,,,40,0
259104,note_on,,,,,144,0,6,,,,3,,,52,0
259104,note_on,,,,,144,0,15,,,,13,,,40,0
259152,note_on,,,,,192,0,16,,,,14,,,40,0
259152,note_on,,,,,192,0,13,,,,11,,,80,0
259152,note_on,,,,,0,0,13,,,,11,,,71,0
259152,note_on,,,,,0,0,1,,,,0,,,88,0
259152,note_on,,,,,192,0,1,,,,0,,,92,0
259152,note_on,,,,,192,0,4,,,,2,,,76,0
259152,note_on,,,,,0,0,4,,,,2,,,68,0
259152,note_on,,,,,192,0,12,,,,10,,,92,0
259152,note_on,,,,,192,0,3,,,,1,,,76,0
259152,note_on,,,,,0,0,3,,,,1,,,80,0
259200,note_on,,,,,0,0,3,,,,1,,,76,92
259200,note_on,,,,,48,0,12,,,,10,,,92,116
259200,note_on,,,,,0,0,8,,,,4,,,52,105
259200,note_on,,,,,96,0,15,,,,13,,,52,116
259200,note_on,,,,,48,0,3,,,,1,,,80,92
259200,note_on,,,,,48,0,4,,,,2,,,76,105
259200,note_on,,,,,648,0,10,,,,6,,,76,105
259200,note_on,,,,,648,0,8,,,,4,,,64,105
259200,note_on,,,,,0,0,4,,,,2,,,68,105
259200,note_on,,,,,0,0,10,,,,6,,,64,105
259200,note_on,,,,,48,0,16,,,,14,,,40,116
259200,set_tempo,,,,,9600,1,0,447761,,,,,,,
259200,note_on,,,,,48,0,13,,,,11,,,80,116
259200,note_on,,,,,0,0,13,,,,11,,,71,116
259200,note_on,,,,,0,0,1,,,,0,,,92,92
259200,note_on,,,,,96,0,14,,,,12,,,64,105
259200,note_on,,,,,0,0,6,,,,3,,,52,105
259200,note_on,,,,,48,0,1,,,,0,,,88,92
259200,note_on,,,,,96,0,6,,,,3,,,64,105
259512,note_on,,,,,312,0,16,,,,14,,,40,0
259512,note_on,,,,,312,0,13,,,,11,,,71,0
259512,note_on,,,,,0,0,13,,,,11,,,80,0
259512,note_on,,,,,312,0,12,,,,10,,,92,0
259512,note_on,,,,,312,0,15,,,,13,,,52,0
259512,note_on,,,,,312,0,14,,,,12,,,64,0
259584,note_on,,,,,0,0,8,,,,4,,,64,0
259584,note_on,,,,,0,0,10,,,,6,,,76,0
259584,note_on,,,,,384,0,6,,,,3,,,52,0
259584,note_on,,,,,384,0,10,,,,6,,,64,0
259584,note_on,,,,,0,0,6,,,,3,,,64,0
259584,note_on,,,,,384,0,8,,,,4,,,52,0
259584,note_on,,,,,384,0,1,,,,0,,,92,0
259584,note_on,,,,,0,0,3,,,,1,,,80,0
259584,note_on,,,,,384,0,4,,,,2,,,68,0
259584,note_on,,,,,0,0,4,,,,2,,,76,0
259584,note_on,,,,,0,0,1,,,,0,,,88,0
259584,note_on,,,,,384,0,3,,,,1,,,76,0
261120,note_on,,,,,1536,0,3,,,,1,,,78,92
261120,note_on,,,,,0,0,3,,,,1,,,70,92
261120,note_on,,,,,0,0,6,,,,3,,,42,105
261120,note_on,,,,,1536,0,10,,,,6,,,78,105
261120,note_on,,,,,1608,0,15,,,,13,,,54,116
261120,note_on,,,,,1536,0,6,,,,3,,,54,105
261120,set_tempo,,,,,1920,1,0,454545,,,,,,,
261120,note_on,,,,,1536,0,8,,,,4,,,66,105
261120,note_on,,,,,1608,0,16,,,,14,,,42,116
261120,note_on,,,,,0,0,1,,,,0,,,90,92
261120,note_on,,,,,1608,0,13,,,,11,,,78,116
261120,note_on,,,,,0,0,13,,,,11,,,70,116
261120,note_on,,,,,1536,0,4,,,,2,,,73,105
261120,note_on,,,,,0,0,4,,,,2,,,70,105
261120,note_on,,,,,1536,0,1,,,,0,,,82,92
261120,note_on,,,,,1608,0,12,,,,10,,,90,116
261120,note_on,,,,,1608,0,14,,,,12,,,61,105
261432,note_on,,,,,312,0,15,,,,13,,,54,0
261432,note_on,,,,,0,0,13,,,,11,,,78,0
261432,note_on,,,,,312,0,13,,,,11,,,70,0
261432,note_on,,,,,312,0,16,,,,14,,,42,0
261432,note_on,,,,,312,0,14,,,,12,,,61,0
261432,note_on,,,,,312,0,12,,,,10,,,90,0
261504,note_on,,,,,0,0,4,,,,2,,,73,0
261504,note_on,,,,,384,0,8,,,,4,,,66,0
261504,note_on,,,,,384,0,4,,,,2,,,70,0
261504,note_on,,,,,0,0,3,,,,1,,,78,0
261504,note_on,,,,,384,0,10,,,,6,,,78,0
261504,note_on,,,,,0,0,1,,,,0,,,82,0
261504,note_on,,,,,384,0,1,,,,0,,,90,0
261504,note_on,,,,,384,0,6,,,,3,,,42,0
261504,note_on,,,,,0,0,6,,,,3,,,54,0
261504,note_on,,,,,384,0,3,,,,1,,,70,0
262560,note_on,,,,,1056,0,1,,,,0,,,87,63
262560,note_on,,,,,1056,0,6,,,,3,,,54,63
262560,note_on,,,,,0,0,6,,,,3,,,63,63
262560,note_on,,,,,0,0,1,,,,0,,,78,63
263040,note_on,,,,,0,0,6,,,,3,,,51,63
263040,note_on,,,,,0,0,1,,,,0,,,87,0
263040,note_on,,,,,480,0,1,,,,0,,,78,0
263040,note_on,,,,,1608,0,16,,,,14,,,35,70
263040,note_on,,,,,0,0,6,,,,3,,,59,63
263040,note_on,,,,,480,0,6,,,,3,,,63,0
263040,set_tempo,,,,,1920,1,0,447761,,,,,,,
263040,note_on,,,,,0,0,1,,,,0,,,83,63
263040,note_on,,,,,1608,0,15,,,,13,,,47,63
263040,note_on,,,,,0,0,1,,,,0,,,75,63
263040,note_on,,,,,0,0,6,,,,3,,,54,0
263280,note_on,,,,,240,0,15,,,,13,,,47,0
263280,note_on,,,,,0,0,15,,,,13,,,42,63
263520,note_on,,,,,2088,0,13,,,,11,,,66,63
263520,note_on,,,,,2088,0,12,,,,10,,,75,70
263520,note_on,,,,,240,0,15,,,,13,,,42,0
263520,note_on,,,,,0,0,15,,,,13,,,47,63
263760,note_on,,,,,0,0,15,,,,13,,,51,63
263760,note_on,,,,,240,0,15,,,,13,,,47,0
263808,note_on,,,,,768,0,16,,,,14,,,35,0
263952,note_on,,,,,912,0,6,,,,3,,,59,0
263952,note_on,,,,,432,0,12,,,,10,,,75,0
263952,note_on,,,,,0,0,6,,,,3,,,51,0
263952,note_on,,,,,0,0,1,,,,0,,,75,0
263952,note_on,,,,,912,0,1,,,,0,,,83,0
263952,note_on,,,,,432,0,13,,,,11,,,66,0
264000,note_on,,,,,0,0,15,,,,13,,,54,63
264000,note_on,,,,,240,0,15,,,,13,,,51,0
264000,note_on,,,,,2568,0,14,,,,12,,,54,63
264240,note_on,,,,,240,0,14,,,,12,,,54,0
264240,note_on,,,,,0,0,14,,,,12,,,51,63
264384,note_on,,,,,384,0,15,,,,13,,,54,0
264480,note_on,,,,,240,0,14,,,,12,,,51,0
264480,note_on,,,,,528,0,13,,,,11,,,63,63
264480,note_on,,,,,528,0,12,,,,10,,,71,70
264480,note_on,,,,,0,0,1,,,,0,,,87,63
264480,note_on,,,,,528,0,1,,,,0,,,78,63
264480,note_on,,,,,528,0,6,,,,3,,,54,63
264480,note_on,,,,,0,0,14,,,,12,,,54,63
264480,note_on,,,,,0,0,6,,,,3,,,63,63
264720,note_on,,,,,240,0,14,,,,12,,,54,0
264720,note_on,,,,,0,0,14,,,,12,,,59,63
264912,note_on,,,,,432,0,12,,,,10,,,71,0
264912,note_on,,,,,432,0,13,,,,11,,,63,0
264960,note_on,,,,,0,0,6,,,,3,,,59,63
264960,note_on,,,,,0,0,6,,,,3,,,51,63
264960,note_on,,,,,240,0,14,,,,12,,,59,0
264960,note_on,,,,,480,0,6,,,,3,,,63,0
264960,note_on,,,,,1152,0,16,,,,14,,,35,70
264960,note_on,,,,,576,0,15,,,,13,,,47,63
264960,note_on,,,,,0,0,1,,,,0,,,83,63
264960,note_on,,,,,0,0,1,,,,0,,,75,63
264960,note_on,,,,,0,0,1,,,,0,,,78,0
264960,note_on,,,,,480,0,1,,,,0,,,87,0
264960,note_on,,,,,0,0,14,,,,12,,,63,63
264960,note_on,,,,,0,0,6,,,,3,,,54,0
265200,note_on,,,,,240,0,15,,,,13,,,47,0
265200,note_on,,,,,0,0,15,,,,13,,,42,63
265344,note_on,,,,,384,0,14,,,,12,,,63,0
265440,note_on,,,,,528,0,12,,,,10,,,75,70
265440,note_on,,,,,528,0,13,,,,11,,,66,63
265440,note_on,,,,,240,0,15,,,,13,,,42,0
265440,note_on,,,,,0,0,15,,,,13,,,47,63
265680,note_on,,,,,240,0,15,,,,13,,,47,0
265680,note_on,,,,,0,0,15,,,,13,,,51,63
265728,note_on,,,,,768,0,16,,,,14,,,35,0
265872,note_on,,,,,912,0,1,,,,0,,,83,0
265872,note_on,,,,,432,0,12,,,,10,,,75,0
265872,note_on,,,,,432,0,13,,,,11,,,66,0
265872,note_on,,,,,0,0,1,,,,0,,,75,0
265872,note_on,,,,,912,0,6,,,,3,,,59,0
265872,note_on,,,,,0,0,6,,,,3,,,51,0
265920,note_on,,,,,576,0,14,,,,12,,,54,63
265920,note_on,,,,,240,0,15,,,,13,,,51,0
265920,note_on,,,,,0,0,15,,,,13,,,54,63
266160,note_on,,,,,240,0,14,,,,12,,,54,0
266160,note_on,,,,,0,0,14,,,,12,,,51,63
266304,note_on,,,,,384,0,15,,,,13,,,54,0
266400,note_on,,,,,4896,0,4,,,,2,,,66,63
266400,note_on,,,,,0,0,1,,,,0,,,87,63
266400,note_on,,,,,528,0,1,,,,0,,,78,63
266400,note_on,,,,,4896,0,3,,,,1,,,75,63
266400,note_on,,,,,528,0,6,,,,3,,,54,63
266400,note_on,,,,,0,0,6,,,,3,,,51,63
266400,note_on,,,,,0,0,3,,,,1,,,66,63
266400,note_on,,,,,0,0,4,,,,2,,,63,63
266400,note_on,,,,,528,0,12,,,,10,,,71,70
266400,note_on,,,,,0,0,14,,,,12,,,54,63
266400,note_on,,,,,528,0,13,,,,11,,,63,63
266400,note_on,,,,,240,0,14,,,,12,,,51,0
266640,note_on,,,,,0,0,14,,,,12,,,59,63
266640,note_on,,,,,240,0,14,,,,12,,,54,0
266832,note_on,,,,,432,0,12,,,,10,,,71,0
266832,note_on,,,,,432,0,13,,,,11,,,63,0
266880,note_on,,,,,0,0,3,,,,1,,,75,0
266880,note_on,,,,,0,0,8,,,,4,,,66,63
266880,note_on,,,,,5376,0,8,,,,4,,,59,63
266880,note_on,,,,,0,0,14,,,,12,,,63,63
266880,note_on,,,,,240,0,14,,,,12,,,59,0
266880,note_on,,,,,480,0,3,,,,1,,,66,0
266880,note_on,,,,,0,0,3,,,,1,,,71,63
266880,note_on,,,,,576,0,15,,,,13,,,47,63
266880,note_on,,,,,0,0,4,,,,2,,,66,0
266880,note_on,,,,,0,0,1,,,,0,,,83,63
266880,note_on,,,,,0,0,1,,,,0,,,75,63
266880,note_on,,,,,0,0,1,,,,0,,,78,0
266880,note_on,,,,,480,0,1,,,,0,,,87,0
266880,note_on,,,,,1152,0,16,,,,14,,,40,70
266880,note_on,,,,,480,0,4,,,,2,,,63,0
266880,note_on,,,,,0,0,6,,,,3,,,54,63
266880,note_on,,,,,0,0,6,,,,3,,,54,0
266880,note_on,,,,,0,0,6,,,,3,,,57,63
266880,note_on,,,,,0,0,3,,,,1,,,63,63
266880,note_on,,,,,0,0,4,,,,2,,,66,63
266880,note_on,,,,,0,0,4,,,,2,,,69,63
266880,note_on,,,,,480,0,6,,,,3,,,51,0
267120,note_on,,,,,240,0,15,,,,13,,,47,0
267120,note_on,,,,,0,0,15,,,,13,,,40,63
267264,note_on,,,,,384,0,14,,,,12,,,63,0
267360,note_on,,,,,528,0,12,,,,10,,,78,70
267360,note_on,,,,,528,0,13,,,,11,,,69,63
267360,note_on,,,,,240,0,15,,,,13,,,40,0
267360,note_on,,,,,0,0,15,,,,13,,,47,63
267600,note_on,,,,,0,0,15,,,,13,,,51,63
267600,note_on,,,,,240,0,15,,,,13,,,47,0
267792,note_on,,,,,432,0,12,,,,10,,,78,0
267792,note_on,,,,,192,0,15,,,,13,,,51,0
267792,note_on,,,,,432,0,13,,,,11,,,69,0
267840,note_on,,,,,48,0,15,,,,13,,,54,63
267840,note_on,,,,,576,0,14,,,,12,,,63,63
268080,note_on,,,,,240,0,15,,,,13,,,54,0
268080,note_on,,,,,0,0,15,,,,13,,,51,63
268080,note_on,,,,,0,0,14,,,,12,,,59,63
268080,note_on,,,,,240,0,14,,,,12,,,63,0
268320,note_on,,,,,528,0,13,,,,11,,,66,63
268320,note_on,,,,,0,0,14,,,,12,,,63,63
268320,note_on,,,,,240,0,14,,,,12,,,59,0
268320,note_on,,,,,240,0,15,,,,13,,,51,0
268320,note_on,,,,,0,0,15,,,,13,,,54,63
268320,note_on,,,,,528,0,12,,,,10,,,75,70
268560,note_on,,,,,0,0,15,,,,13,,,59,63
268560,note_on,,,,,240,0,14,,,,12,,,63,0
268560,note_on,,,,,0,0,14,,,,12,,,66,63
268560,note_on,,,,,240,0,15,,,,13,,,54,0
268752,note_on,,,,,192,0,15,,,,13,,,59,0
268752,note_on,,,,,432,0,13,,,,11,,,66,0
268752,note_on,,,,,432,0,12,,,,10,,,75,0
268800,note_on,,,,,48,0,15,,,,13,,,52,63
268800,note_on,,,,,1920,0,6,,,,3,,,57,0
268800,note_on,,,,,1920,0,3,,,,1,,,63,0
268800,note_on,,,,,0,0,3,,,,1,,,64,63
268800,note_on,,,,,0,0,6,,,,3,,,55,63
268800,note_on,,,,,0,0,6,,,,3,,,52,63
268800,note_on,,,,,0,0,6,,,,3,,,54,0
268800,note_on,,,,,240,0,14,,,,12,,,66,0
268800,note_on,,,,,0,0,14,,,,12,,,55,63
268800,note_on,,,,,0,0,4,,,,2,,,64,63
268800,note_on,,,,,0,0,4,,,,2,,,67,63
268800,note_on,,,,,0,0,8,,,,4,,,67,63
268800,note_on,,,,,0,0,4,,,,2,,,69,0
268800,note_on,,,,,1920,0,4,,,,2,,,66,0
268800,note_on,,,,,0,0,8,,,,4,,,64,63
268800,note_on,,,,,0,0,8,,,,4,,,59,0
268800,note_on,,,,,1920,0,8,,,,4,,,66,0
268800,note_on,,,,,1920,0,1,,,,0,,,75,0
268800,note_on,,,,,0,0,1,,,,0,,,76,63
269184,note_on,,,,,0,0,4,,,,2,,,64,0
269184,note_on,,,,,384,0,4,,,,2,,,67,0
269184,note_on,,,,,384,0,6,,,,3,,,55,0
269184,note_on,,,,,0,0,6,,,,3,,,52,0
269184,note_on,,,,,0,0,1,,,,0,,,83,0
269184,note_on,,,,,384,0,15,,,,13,,,52,0
269184,note_on,,,,,384,0,14,,,,12,,,55,0
269184,note_on,,,,,0,0,8,,,,4,,,64,0
269184,note_on,,,,,384,0,8,,,,4,,,67,0
269184,note_on,,,,,384,0,3,,,,1,,,64,0
269184,note_on,,,,,0,0,3,,,,1,,,71,0
269184,note_on,,,,,384,0,1,,,,0,,,76,0
269280,note_on,,,,,528,0,12,,,,10,,,71,70
269280,note_on,,,,,528,0,13,,,,11,,,67,63
269568,note_on,,,,,2688,0,16,,,,14,,,40,0
269712,note_on,,,,,432,0,13,,,,11,,,67,0
269712,note_on,,,,,432,0,12,,,,10,,,71,0
270240,note_on,,,,,1056,0,4,,,,2,,,72,63
270240,note_on,,,,,1056,0,6,,,,3,,,60,63
270240,note_on,,,,,1056,0,1,,,,0,,,84,63
270720,note_on,,,,,1152,0,16,,,,14,,,38,70
270720,note_on,,,,,1536,0,15,,,,13,,,38,63
270720,note_on,,,,,480,0,1,,,,0,,,84,0
270720,note_on,,,,,0,0,1,,,,0,,,81,63
270720,note_on,,,,,480,0,6,,,,3,,,60,0
270720,note_on,,,,,0,0,6,,,,3,,,57,63
270720,note_on,,,,,0,0,4,,,,2,,,69,63
270720,note_on,,,,,480,0,4,,,,2,,,72,0
270960,note_on,,,,,240,0,15,,,,13,,,38,0
270960,note_on,,,,,0,0,15,,,,13,,,45,63
271200,note_on,,,,,0,0,15,,,,13,,,54,63
271200,note_on,,,,,1488,0,13,,,,11,,,69,63
271200,note_on,,,,,240,0,15,,,,13,,,45,0
271200,note_on,,,,,1488,0,12,,,,10,,,72,70
271440,note_on,,,,,0,0,15,,,,13,,,57,63
271440,note_on,,,,,240,0,15,,,,13,,,54,0
271488,note_on,,,,,768,0,16,,,,14,,,38,0
271632,note_on,,,,,432,0,12,,,,10,,,72,0
271632,note_on,,,,,912,0,1,,,,0,,,81,0
271632,note_on,,,,,912,0,4,,,,2,,,69,0
271632,note_on,,,,,912,0,6,,,,3,,,57,0
271632,note_on,,,,,432,0,13,,,,11,,,69,0
271680,note_on,,,,,0,0,15,,,,13,,,50,63
271680,note_on,,,,,240,0,15,,,,13,,,57,0
271680,note_on,,,,,2496,0,14,,,,12,,,66,63
271920,note_on,,,,,0,0,14,,,,12,,,60,63
271920,note_on,,,,,240,0,14,,,,12,,,66,0
272064,note_on,,,,,384,0,15,,,,13,,,50,0
272160,note_on,,,,,240,0,14,,,,12,,,60,0
272160,note_on,,,,,0,0,14,,,,12,,,66,63
272160,note_on,,,,,528,0,6,,,,3,,,60,63
272160,note_on,,,,,528,0,4,,,,2,,,72,63
272160,note_on,,,,,528,0,1,,,,0,,,84,63
272160,note_on,,,,,528,0,12,,,,10,,,69,70
272160,note_on,,,,,528,0,13,,,,11,,,66,63
272400,note_on,,,,,240,0,14,,,,12,,,66,0
272400,note_on,,,,,0,0,14,,,,12,,,69,63
272592,note_on,,,,,432,0,13,,,,11,,,66,0
272592,note_on,,,,,432,0,12,,,,10,,,69,0
272592,note_on,,,,,192,0,14,,,,12,,,69,0
272640,note_on,,,,,480,0,1,,,,0,,,84,0
272640,note_on,,,,,480,0,4,,,,2,,,72,0
272640,note_on,,,,,576,0,15,,,,13,,,38,63
272640,note_on,,,,,480,0,6,,,,3,,,60,0
272640,note_on,,,,,0,0,6,,,,3,,,57,63
272640,note_on,,,,,0,0,4,,,,2,,,69,63
272640,note_on,,,,,0,0,1,,,,0,,,81,63
272640,note_on,,,,,1152,0,16,,,,14,,,38,70
272880,note_on,,,,,0,0,15,,,,13,,,45,63
272880,note_on,,,,,240,0,15,,,,13,,,38,0
273120,note_on,,,,,0,0,15,,,,13,,,54,63
273120,note_on,,,,,528,0,13,,,,11,,,69,63
273120,note_on,,,,,528,0,12,,,,10,,,72,70
273120,note_on,,,,,240,0,15,,,,13,,,45,0
273360,note_on,,,,,0,0,15,,,,13,,,57,63
273360,note_on,,,,,240,0,15,,,,13,,,54,0
273408,note_on,,,,,768,0,16,,,,14,,,38,0
273552,note_on,,,,,432,0,13,,,,11,,,69,0
273552,note_on,,,,,432,0,12,,,,10,,,72,0
273552,note_on,,,,,912,0,1,,,,0,,,81,0
273552,note_on,,,,,912,0,6,,,,3,,,57,0
273552,note_on,,,,,912,0,4,,,,2,,,69,0
273600,note_on,,,,,1008,0,14,,,,12,,,66,63
273600,note_on,,,,,240,0,15,,,,13,,,57,0
273600,note_on,,,,,0,0,15,,,,13,,,50,63
273840,note_on,,,,,240,0,14,,,,12,,,66,0
273840,note_on,,,,,0,0,14,,,,12,,,60,63
273984,note_on,,,,,384,0,15,,,,13,,,50,0
274080,note_on,,,,,528,0,13,,,,11,,,66,63
274080,note_on,,,,,0,0,3,,,,1,,,66,63
274080,note_on,,,,,528,0,4,,,,2,,,72,63
274080,note_on,,,,,0,0,4,,,,2,,,69,63
274080,note_on,,,,,0,0,6,,,,3,,,60,63
274080,note_on,,,,,528,0,6,,,,3,,,57,63
274080,note_on,,,,,528,0,1,,,,0,,,84,63
274080,note_on,,,,,26784,0,9,,,,5,,,60,63
274080,note_on,,,,,4896,0,3,,,,1,,,69,63
274080,note_on,,,,,0,0,14,,,,12,,,66,63
274080,note_on,,,,,240,0,14,,,,12,,,60,0
274080,note_on,,,,,528,0,12,,,,10,,,69,70
274320,note_on,,,,,240,0,14,,,,12,,,66,0
274320,note_on,,,,,0,0,14,,,,12,,,69,63
274512,note_on,,,,,192,0,14,,,,12,,,69,0
274512,note_on,,,,,432,0,12,,,,10,,,69,0
274512,note_on,,,,,432,0,13,,,,11,,,66,0
274560,note_on,,,,,5376,0,8,,,,4,,,66,63
274560,note_on,,,,,0,0,4,,,,2,,,72,0
274560,note_on,,,,,480,0,4,,,,2,,,69,0
274560,note_on,,,,,576,0,15,,,,13,,,39,63
274560,note_on,,,,,480,0,6,,,,3,,,60,0
274560,note_on,,,,,0,0,4,,,,2,,,66,63
274560,note_on,,,,,480,0,1,,,,0,,,84,0
274560,note_on,,,,,0,0,6,,,,3,,,57,0
274560,note_on,,,,,0,0,1,,,,0,,,81,63
274560,note_on,,,,,0,0,4,,,,2,,,69,63
274560,note_on,,,,,480,0,3,,,,1,,,66,0
274560,note_on,,,,,0,0,6,,,,3,,,57,63
274560,note_on,,,,,0,0,3,,,,1,,,69,0
274560,note_on,,,,,0,0,3,,,,1,,,78,63
274560,note_on,,,,,0,0,6,,,,3,,,51,63
274560,note_on,,,,,1152,0,16,,,,14,,,39,70
274560,note_on,,,,,0,0,3,,,,1,,,72,63
274800,note_on,,,,,0,0,15,,,,13,,,45,63
274800,note_on,,,,,240,0,15,,,,13,,,39,0
275040,note_on,,,,,0,0,15,,,,13,,,54,63
275040,note_on,,,,,240,0,15,,,,13,,,45,0
275040,note_on,,,,,528,0,13,,,,11,,,69,63
275040,note_on,,,,,528,0,12,,,,10,,,78,70
275280,note_on,,,,,0,0,15,,,,13,,,57,63
275280,note_on,,,,,240,0,15,,,,13,,,54,0
275472,note_on,,,,,432,0,13,,,,11,,,69,0
275472,note_on,,,,,432,0,12,,,,10,,,78,0
275520,note_on,,,,,0,0,15,,,,13,,,51,63
275520,note_on,,,,,1008,0,14,,,,12,,,66,63
275520,note_on,,,,,240,0,15,,,,13,,,57,0
275760,note_on,,,,,0,0,14,,,,12,,,60,63
275760,note_on,,,,,240,0,14,,,,12,,,66,0
276000,note_on,,,,,528,0,12,,,,10,,,72,70
276000,note_on,,,,,0,0,14,,,,12,,,66,63
276000,note_on,,,,,240,0,14,,,,12,,,60,0
276000,note_on,,,,,528,0,13,,,,11,,,69,63
276240,note_on,,,,,240,0,14,,,,12,,,66,0
276240,note_on,,,,,0,0,14,,,,12,,,69,63
276432,note_on,,,,,432,0,13,,,,11,,,69,0
276432,note_on,,,,,192,0,14,,,,12,,,69,0
276432,note_on,,,,,432,0,12,,,,10,,,72,0
276480,set_tempo,,,,,13440,1,0,500000,,,,,,,
276480,note_on,,,,,48,0,14,,,,12,,,60,63
276720,note_on,,,,,0,0,14,,,,12,,,57,63
276720,note_on,,,,,240,0,14,,,,12,,,60,0
276864,note_on,,,,,2304,0,8,,,,4,,,66,0
276864,note_on,,,,,0,0,4,,,,2,,,66,0
276864,note_on,,,,,2304,0,4,,,,2,,,69,0
276864,note_on,,,,,0,0,6,,,,3,,,51,0
276864,note_on,,,,,2304,0,1,,,,0,,,81,0
276864,note_on,,,,,2784,0,9,,,,5,,,60,0
276864,note_on,,,,,2304,0,3,,,,1,,,72,0
276864,note_on,,,,,0,0,3,,,,1,,,78,0
276864,note_on,,,,,2304,0,6,,,,3,,,57,0
276960,note_on,,,,,528,0,13,,,,11,,,66,63
276960,note_on,,,,,240,0,14,,,,12,,,57,0
276960,note_on,,,,,0,0,14,,,,12,,,60,63
276960,note_on,,,,,528,0,12,,,,10,,,69,70
277200,note_on,,,,,0,0,14,,,,12,,,66,63
277200,note_on,,,,,240,0,14,,,,12,,,60,0
277248,note_on,,,,,1728,0,15,,,,13,,,51,0
277248,note_on,,,,,2688,0,16,,,,14,,,39,0
277392,note_on,,,,,432,0,13,,,,11,,,66,0
277392,note_on,,,,,192,0,14,,,,12,,,66,0
277392,note_on,,,,,432,0,12,,,,10,,,69,0
277920,note_on,,,,,528,0,12,,,,10,,,83,70
277920,note_on,,,,,528,0,13,,,,11,,,71,63
278400,note_on,,,,,1536,0,8,,,,4,,,64,63
278400,set_tempo,,,,,1920,1,0,441176,,,,,,,
278400,note_on,,,,,480,0,12,,,,10,,,83,0
278400,note_on,,,,,0,0,12,,,,10,,,79,70
278400,note_on,,,,,1152,0,15,,,,13,,,40,63
278400,note_on,,,,,0,0,8,,,,4,,,52,63
278400,note_on,,,,,480,0,13,,,,11,,,71,0
278400,note_on,,,,,0,0,13,,,,11,,,67,63
278400,note_on,,,,,1152,0,16,,,,14,,,40,63
278640,note_on,,,,,240,0,15,,,,13,,,40,0
278640,note_on,,,,,0,0,15,,,,13,,,47,63
278880,note_on,,,,,0,0,4,,,,2,,,71,63
278880,note_on,,,,,0,0,1,,,,0,,,83,63
278880,note_on,,,,,2016,0,1,,,,0,,,79,63
278880,note_on,,,,,0,0,6,,,,3,,,55,63
278880,note_on,,,,,2016,0,6,,,,3,,,59,63
278880,note_on,,,,,240,0,15,,,,13,,,47,0
278880,note_on,,,,,2016,0,4,,,,2,,,67,63
278880,note_on,,,,,0,0,15,,,,13,,,52,63
279120,note_on,,,,,0,0,15,,,,13,,,59,63
279120,note_on,,,,,240,0,15,,,,13,,,52,0
279168,note_on,,,,,768,0,16,,,,14,,,40,0
279168,note_on,,,,,768,0,13,,,,11,,,67,0
279168,note_on,,,,,768,0,12,,,,10,,,79,0
279264,note_on,,,,,0,0,1,,,,0,,,79,0
279264,note_on,,,,,0,0,4,,,,2,,,67,0
279264,note_on,,,,,384,0,1,,,,0,,,83,0
279264,note_on,,,,,384,0,6,,,,3,,,55,0
279264,note_on,,,,,0,0,6,,,,3,,,59,0
279264,note_on,,,,,384,0,4,,,,2,,,71,0
279360,note_on,,,,,1968,0,14,,,,12,,,59,63
279360,note_on,,,,,0,0,14,,,,12,,,55,63
279360,note_on,,,,,240,0,15,,,,13,,,59,0
279360,note_on,,,,,0,0,15,,,,13,,,52,63
279600,note_on,,,,,240,0,14,,,,12,,,55,0
279600,note_on,,,,,0,0,14,,,,12,,,59,0
279600,note_on,,,,,0,0,14,,,,12,,,59,63
279600,note_on,,,,,0,0,14,,,,12,,,64,63
279744,note_on,,,,,384,0,15,,,,13,,,52,0
279840,note_on,,,,,672,0,13,,,,11,,,64,63
279840,note_on,,,,,0,0,14,,,,12,,,67,63
279840,note_on,,,,,0,0,6,,,,3,,,52,63
279840,note_on,,,,,576,0,6,,,,3,,,55,63
279840,note_on,,,,,0,0,1,,,,0,,,79,63
279840,note_on,,,,,0,0,14,,,,12,,,64,63
279840,note_on,,,,,576,0,1,,,,0,,,76,63
279840,note_on,,,,,0,0,4,,,,2,,,64,63
279840,note_on,,,,,576,0,4,,,,2,,,67,63
279840,note_on,,,,,0,0,14,,,,12,,,59,0
279840,note_on,,,,,240,0,14,,,,12,,,64,0
279840,note_on,,,,,672,0,12,,,,10,,,76,70
280080,note_on,,,,,240,0,14,,,,12,,,67,0
280080,note_on,,,,,0,0,14,,,,12,,,64,0
280080,note_on,,,,,0,0,14,,,,12,,,71,63
280080,note_on,,,,,0,0,14,,,,12,,,67,63
280224,note_on,,,,,384,0,6,,,,3,,,52,0
280224,note_on,,,,,0,0,6,,,,3,,,55,0
280224,note_on,,,,,384,0,4,,,,2,,,64,0
280224,note_on,,,,,0,0,4,,,,2,,,67,0
280224,note_on,,,,,0,0,1,,,,0,,,76,0
280224,note_on,,,,,384,0,1,,,,0,,,79,0
280320,note_on,,,,,0,0,14,,,,12,,,64,63
280320,note_on,,,,,0,0,14,,,,12,,,71,0
280320,note_on,,,,,240,0,14,,,,12,,,67,0
280320,note_on,,,,,0,0,12,,,,10,,,84,70
280320,note_on,,,,,480,0,12,,,,10,,,76,0
280320,note_on,,,,,1152,0,16,,,,14,,,40,63
280320,note_on,,,,,576,0,15,,,,13,,,40,63
280320,note_on,,,,,0,0,14,,,,12,,,57,63
280320,note_on,,,,,480,0,13,,,,11,,,64,0
280320,note_on,,,,,0,0,13,,,,11,,,72,63
280560,note_on,,,,,240,0,15,,,,13,,,40,0
280560,note_on,,,,,0,0,15,,,,13,,,48,63
280704,note_on,,,,,384,0,14,,,,12,,,57,0
280704,note_on,,,,,0,0,14,,,,12,,,64,0
280800,note_on,,,,,0,0,15,,,,13,,,57,63
280800,note_on,,,,,0,0,4,,,,2,,,64,63
280800,note_on,,,,,576,0,4,,,,2,,,60,63
280800,note_on,,,,,240,0,15,,,,13,,,48,0
280800,note_on,,,,,576,0,6,,,,3,,,52,63
280800,note_on,,,,,0,0,6,,,,3,,,48,63
280800,note_on,,,,,0,0,1,,,,0,,,76,63
280800,note_on,,,,,576,0,1,,,,0,,,72,63
281040,note_on,,,,,0,0,15,,,,13,,,60,63
281040,note_on,,,,,240,0,15,,,,13,,,57,0
281088,note_on,,,,,768,0,13,,,,11,,,72,0
281088,note_on,,,,,768,0,12,,,,10,,,84,0
281088,note_on,,,,,768,0,16,,,,14,,,40,0
281184,note_on,,,,,384,0,1,,,,0,,,76,0
281184,note_on,,,,,384,0,6,,,,3,,,48,0
281184,note_on,,,,,0,0,6,,,,3,,,52,0
281184,note_on,,,,,0,0,1,,,,0,,,72,0
281184,note_on,,,,,384,0,4,,,,2,,,64,0
281184,note_on,,,,,0,0,4,,,,2,,,60,0
281280,note_on,,,,,0,0,15,,,,13,,,52,63
281280,note_on,,,,,240,0,15,,,,13,,,60,0
281280,note_on,,,,,0,0,14,,,,12,,,57,63
281280,note_on,,,,,576,0,14,,,,12,,,60,63
281520,note_on,,,,,0,0,14,,,,12,,,60,63
281520,note_on,,,,,0,0,14,,,,12,,,64,63
281520,note_on,,,,,0,0,14,,,,12,,,60,0
281520,note_on,,,,,240,0,14,,,,12,,,57,0
281664,note_on,,,,,384,0,15,,,,13,,,52,0
281760,note_on,,,,,576,0,4,,,,2,,,69,63
281760,note_on,,,,,0,0,6,,,,3,,,60,63
281760,note_on,,,,,576,0,6,,,,3,,,57,63
281760,note_on,,,,,0,0,1,,,,0,,,81,63
281760,note_on,,,,,576,0,1,,,,0,,,84,63
281760,note_on,,,,,0,0,4,,,,2,,,72,63
281760,note_on,,,,,672,0,12,,,,10,,,81,70
281760,note_on,,,,,0,0,14,,,,12,,,69,63
281760,note_on,,,,,240,0,14,,,,12,,,60,0
281760,note_on,,,,,0,0,14,,,,12,,,64,0
281760,note_on,,,,,672,0,13,,,,11,,,69,63
281760,note_on,,,,,0,0,14,,,,12,,,64,63
282000,note_on,,,,,0,0,14,,,,12,,,69,63
282000,note_on,,,,,0,0,14,,,,12,,,69,0
282000,note_on,,,,,240,0,14,,,,12,,,64,0
282000,note_on,,,,,0,0,14,,,,12,,,72,63
282144,note_on,,,,,0,0,1,,,,0,,,84,0
282144,note_on,,,,,384,0,4,,,,2,,,72,0
282144,note_on,,,,,0,0,4,,,,2,,,69,0
282144,note_on,,,,,0,0,8,,,,4,,,64,0
282144,note_on,,,,,0,0,6,,,,3,,,57,0
282144,note_on,,,,,384,0,6,,,,3,,,60,0
282144,note_on,,,,,3744,0,8,,,,4,,,52,0
282144,note_on,,,,,384,0,1,,,,0,,,81,0
282240,note_on,,,,,96,0,8,,,,4,,,52,63
282240,note_on,,,,,576,0,15,,,,13,,,40,63
282240,note_on,,,,,0,0,8,,,,4,,,59,63
282240,note_on,,,,,0,0,14,,,,12,,,63,63
282240,note_on,,,,,480,0,13,,,,11,,,69,0
282240,note_on,,,,,0,0,14,,,,12,,,57,63
282240,note_on,,,,,480,0,12,,,,10,,,81,0
282240,note_on,,,,,240,0,14,,,,12,,,72,0
282240,note_on,,,,,0,0,14,,,,12,,,69,0
282240,note_on,,,,,0,0,13,,,,11,,,66,63
282240,note_on,,,,,0,0,12,,,,10,,,78,70
282240,note_on,,,,,1152,0,16,,,,14,,,40,63
282480,note_on,,,,,0,0,15,,,,13,,,47,63
282480,note_on,,,,,240,0,15,,,,13,,,40,0
282624,note_on,,,,,384,0,14,,,,12,,,57,0
282624,note_on,,,,,0,0,14,,,,12,,,63,0
282720,note_on,,,,,0,0,15,,,,13,,,54,63
282720,note_on,,,,,240,0,15,,,,13,,,47,0
282720,note_on,,,,,0,0,6,,,,3,,,57,63
282720,note_on,,,,,576,0,6,,,,3,,,54,63
282720,note_on,,,,,0,0,1,,,,0,,,78,63
282720,note_on,,,,,576,0,1,,,,0,,,81,63
282720,note_on,,,,,0,0,4,,,,2,,,66,63
282720,note_on,,,,,576,0,4,,,,2,,,69,63
282960,note_on,,,,,0,0,15,,,,13,,,57,63
282960,note_on,,,,,240,0,15,,,,13,,,54,0
283008,note_on,,,,,768,0,16,,,,14,,,40,0
283008,note_on,,,,,768,0,13,,,,11,,,66,0
283008,note_on,,,,,768,0,12,,,,10,,,78,0
283104,note_on,,,,,0,0,6,,,,3,,,54,0
283104,note_on,,,,,384,0,1,,,,0,,,78,0
283104,note_on,,,,,0,0,1,,,,0,,,81,0
283104,note_on,,,,,384,0,4,,,,2,,,66,0
283104,note_on,,,,,384,0,6,,,,3,,,57,0
283104,note_on,,,,,0,0,4,,,,2,,,69,0
283200,note_on,,,,,576,0,14,,,,12,,,54,63
283200,note_on,,,,,0,0,14,,,,12,,,57,63
283200,note_on,,,,,240,0,15,,,,13,,,57,0
283200,note_on,,,,,0,0,15,,,,13,,,47,63
283440,note_on,,,,,0,0,14,,,,12,,,63,63
283440,note_on,,,,,0,0,14,,,,12,,,57,63
283440,note_on,,,,,0,0,14,,,,12,,,54,0
283440,note_on,,,,,240,0,14,,,,12,,,57,0
283584,note_on,,,,,384,0,15,,,,13,,,47,0
283680,note_on,,,,,0,0,14,,,,12,,,57,0
283680,note_on,,,,,672,0,12,,,,10,,,75,70
283680,note_on,,,,,0,0,1,,,,0,,,75,63
283680,note_on,,,,,576,0,1,,,,0,,,78,63
283680,note_on,,,,,576,0,4,,,,2,,,63,63
283680,note_on,,,,,0,0,4,,,,2,,,66,63
283680,note_on,,,,,672,0,13,,,,11,,,63,63
283680,note_on,,,,,240,0,14,,,,12,,,63,0
283680,note_on,,,,,0,0,14,,,,12,,,66,63
283680,note_on,,,,,576,0,6,,,,3,,,51,63
283680,note_on,,,,,0,0,6,,,,3,,,54,63
283680,note_on,,,,,0,0,14,,,,12,,,63,63
283920,note_on,,,,,240,0,14,,,,12,,,63,0
283920,note_on,,,,,0,0,14,,,,12,,,66,0
283920,note_on,,,,,0,0,14,,,,12,,,66,63
283920,note_on,,,,,0,0,14,,,,12,,,69,63
284064,note_on,,,,,384,0,4,,,,2,,,66,0
284064,note_on,,,,,0,0,4,,,,2,,,63,0
284064,note_on,,,,,384,0,1,,,,0,,,75,0
284064,note_on,,,,,384,0,6,,,,3,,,54,0
284064,note_on,,,,,0,0,1,,,,0,,,78,0
284064,note_on,,,,,0,0,6,,,,3,,,51,0
284160,note_on,,,,,480,0,12,,,,10,,,75,0
284160,note_on,,,,,1920,0,8,,,,4,,,59,0
284160,note_on,,,,,0,0,8,,,,4,,,55,63
284160,note_on,,,,,0,0,12,,,,10,,,83,70
284160,note_on,,,,,0,0,14,,,,12,,,59,63
284160,note_on,,,,,576,0,15,,,,13,,,40,63
284160,note_on,,,,,0,0,13,,,,11,,,71,63
284160,note_on,,,,,480,0,13,,,,11,,,63,0
284160,note_on,,,,,0,0,14,,,,12,,,55,63
284160,note_on,,,,,240,0,14,,,,12,,,69,0
284160,note_on,,,,,1152,0,16,,,,14,,,40,63
284160,note_on,,,,,0,0,14,,,,12,,,66,0
284400,note_on,,,,,0,0,15,,,,13,,,47,63
284400,note_on,,,,,240,0,15,,,,13,,,40,0
284544,note_on,,,,,384,0,14,,,,12,,,59,0
284544,note_on,,,,,0,0,14,,,,12,,,55,0
284640,note_on,,,,,0,0,1,,,,0,,,71,63
284640,note_on,,,,,0,0,15,,,,13,,,55,63
284640,note_on,,,,,576,0,1,,,,0,,,75,63
284640,note_on,,,,,576,0,4,,,,2,,,63,63
284640,note_on,,,,,0,0,4,,,,2,,,59,63
284640,note_on,,,,,0,0,6,,,,3,,,51,63
284640,note_on,,,,,240,0,15,,,,13,,,47,0
284640,note_on,,,,,576,0,6,,,,3,,,47,63
284880,note_on,,,,,240,0,15,,,,13,,,55,0
284880,note_on,,,,,0,0,15,,,,13,,,59,63
284928,note_on,,,,,768,0,16,,,,14,,,40,0
284928,note_on,,,,,768,0,13,,,,11,,,71,0
284928,note_on,,,,,768,0,12,,,,10,,,83,0
285024,note_on,,,,,384,0,4,,,,2,,,59,0
285024,note_on,,,,,0,0,4,,,,2,,,63,0
285024,note_on,,,,,384,0,1,,,,0,,,71,0
285024,note_on,,,,,384,0,6,,,,3,,,51,0
285024,note_on,,,,,0,0,6,,,,3,,,47,0
285024,note_on,,,,,0,0,1,,,,0,,,75,0
285120,note_on,,,,,240,0,15,,,,13,,,59,0
285120,note_on,,,,,0,0,15,,,,13,,,52,63
285120,note_on,,,,,576,0,14,,,,12,,,52,63
285120,note_on,,,,,0,0,14,,,,12,,,55,63
285360,note_on,,,,,0,0,14,,,,12,,,59,63
285360,note_on,,,,,0,0,14,,,,12,,,55,63
285360,note_on,,,,,0,0,14,,,,12,,,52,0
285360,note_on,,,,,240,0,14,,,,12,,,55,0
285504,note_on,,,,,384,0,15,,,,13,,,52,0
285600,note_on,,,,,0,0,14,,,,12,,,55,0
285600,note_on,,,,,672,0,13,,,,11,,,76,63
285600,note_on,,,,,672,0,12,,,,10,,,88,90
285600,note_on,,,,,0,0,14,,,,12,,,64,63
285600,note_on,,,,,0,0,14,,,,12,,,59,63
285600,note_on,,,,,240,0,14,,,,12,,,59,0
285600,note_on,,,,,0,0,6,,,,3,,,59,63
285600,note_on,,,,,576,0,6,,,,3,,,55,63
285600,note_on,,,,,0,0,1,,,,0,,,79,63
285600,note_on,,,,,576,0,1,,,,0,,,83,63
285600,note_on,,,,,576,0,4,,,,2,,,67,63
285600,note_on,,,,,0,0,4,,,,2,,,71,63
285840,note_on,,,,,240,0,14,,,,12,,,64,0
285840,note_on,,,,,0,0,14,,,,12,,,64,63
285840,note_on,,,,,0,0,14,,,,12,,,67,63
285840,note_on,,,,,0,0,14,,,,12,,,59,0
285984,note_on,,,,,384,0,1,,,,0,,,79,0
285984,note_on,,,,,384,0,4,,,,2,,,71,0
285984,note_on,,,,,0,0,4,,,,2,,,67,0
285984,note_on,,,,,0,0,1,,,,0,,,83,0
285984,note_on,,,,,0,0,6,,,,3,,,55,0
285984,note_on,,,,,384,0,6,,,,3,,,59,0
286080,note_on,,,,,0,0,14,,,,12,,,72,63
286080,note_on,,,,,480,0,12,,,,10,,,88,0
286080,note_on,,,,,0,0,13,,,,11,,,64,63
286080,note_on,,,,,480,0,13,,,,11,,,76,0
286080,note_on,,,,,576,0,15,,,,13,,,36,63
286080,note_on,,,,,1152,0,16,,,,14,,,36,63
286080,note_on,,,,,0,0,14,,,,12,,,64,63
286080,note_on,,,,,0,0,14,,,,12,,,64,0
286080,note_on,,,,,240,0,14,,,,12,,,67,0
286080,note_on,,,,,0,0,12,,,,10,,,76,70
286080,note_on,,,,,9216,0,9,,,,5,,,60,63
286080,note_on,,,,,0,0,9,,,,5,,,64,63
286320,note_on,,,,,0,0,15,,,,13,,,43,63
286320,note_on,,,,,240,0,15,,,,13,,,36,0
286464,note_on,,,,,2304,0,8,,,,4,,,55,0
286464,note_on,,,,,0,0,8,,,,4,,,52,0
286464,note_on,,,,,384,0,14,,,,12,,,72,0
286464,note_on,,,,,0,0,14,,,,12,,,64,0
286560,note_on,,,,,576,0,4,,,,2,,,76,63
286560,note_on,,,,,576,0,6,,,,3,,,64,63
286560,note_on,,,,,0,0,15,,,,13,,,52,63
286560,note_on,,,,,240,0,15,,,,13,,,43,0
286560,note_on,,,,,0,0,6,,,,3,,,60,63
286560,note_on,,,,,0,0,4,,,,2,,,72,63
286560,note_on,,,,,0,0,1,,,,0,,,88,63
286560,note_on,,,,,576,0,1,,,,0,,,84,63
286800,note_on,,,,,240,0,15,,,,13,,,52,0
286800,note_on,,,,,0,0,15,,,,13,,,55,63
286848,note_on,,,,,768,0,16,,,,14,,,36,0
286944,note_on,,,,,0,0,1,,,,0,,,84,0
286944,note_on,,,,,384,0,6,,,,3,,,60,0
286944,note_on,,,,,0,0,6,,,,3,,,64,0
286944,note_on,,,,,384,0,1,,,,0,,,88,0
286944,note_on,,,,,0,0,4,,,,2,,,76,0
286944,note_on,,,,,384,0,4,,,,2,,,72,0
286992,note_on,,,,,912,0,13,,,,11,,,64,0
286992,note_on,,,,,912,0,12,,,,10,,,76,0
287040,note_on,,,,,0,0,15,,,,13,,,48,63
287040,note_on,,,,,240,0,15,,,,13,,,55,0
287040,note_on,,,,,576,0,14,,,,12,,,52,63
287040,note_on,,,,,0,0,14,,,,12,,,60,63
287280,note_on,,,,,0,0,14,,,,12,,,52,0
287280,note_on,,,,,0,0,14,,,,12,,,55,63
287280,note_on,,,,,0,0,14,,,,12,,,64,63
287280,note_on,,,,,240,0,14,,,,12,,,60,0
287424,note_on,,,,,384,0,15,,,,13,,,48,0
287520,note_on,,,,,240,0,14,,,,12,,,64,0
287520,note_on,,,,,0,0,14,,,,12,,,55,0
287520,note_on,,,,,0,0,14,,,,12,,,60,63
287520,note_on,,,,,0,0,14,,,,12,,,67,63
287520,note_on,,,,,528,0,13,,,,11,,,67,63
287520,note_on,,,,,0,0,1,,,,0,,,76,63
287520,note_on,,,,,576,0,6,,,,3,,,52,63
287520,note_on,,,,,0,0,6,,,,3,,,48,63
287520,note_on,,,,,576,0,4,,,,2,,,64,63
287520,note_on,,,,,0,0,4,,,,2,,,60,63
287520,note_on,,,,,528,0,12,,,,10,,,79,70
287520,note_on,,,,,576,0,1,,,,0,,,72,63
287760,note_on,,,,,0,0,14,,,,12,,,64,63
287760,note_on,,,,,0,0,14,,,,12,,,72,63
287760,note_on,,,,,0,0,14,,,,12,,,60,0
287760,note_on,,,,,240,0,14,,,,12,,,67,0
287904,note_on,,,,,0,0,6,,,,3,,,52,0
287904,note_on,,,,,384,0,6,,,,3,,,48,0
287904,note_on,,,,,384,0,4,,,,2,,,60,0
287904,note_on,,,,,0,0,4,,,,2,,,64,0
287904,note_on,,,,,0,0,1,,,,0,,,72,0
287904,note_on,,,,,384,0,1,,,,0,,,76,0
288000,note_on,,,,,0,0,12,,,,10,,,83,70
288000,note_on,,,,,240,0,14,,,,12,,,64,0
288000,note_on,,,,,0,0,14,,,,12,,,62,63
288000,note_on,,,,,1152,0,16,,,,14,,,31,63
288000,note_on,,,,,480,0,12,,,,10,,,79,0
288000,note_on,,,,,0,0,13,,,,11,,,71,63
288000,note_on,,,,,576,0,15,,,,13,,,43,63
288000,note_on,,,,,0,0,14,,,,12,,,72,0
288000,note_on,,,,,0,0,9,,,,5,,,60,0
288000,note_on,,,,,1920,0,9,,,,5,,,64,0
288000,note_on,,,,,0,0,14,,,,12,,,71,63
288000,note_on,,,,,480,0,13,,,,11,,,67,0
288000,note_on,,,,,0,0,9,,,,5,,,55,63
288000,note_on,,,,,0,0,9,,,,5,,,62,63
288240,note_on,,,,,0,0,15,,,,13,,,50,63
288240,note_on,,,,,240,0,15,,,,13,,,43,0
288384,note_on,,,,,0,0,14,,,,12,,,62,0
288384,note_on,,,,,384,0,14,,,,12,,,71,0
288480,note_on,,,,,576,0,6,,,,3,,,50,63
288480,note_on,,,,,0,0,6,,,,3,,,43,63
288480,note_on,,,,,576,0,1,,,,0,,,71,63
288480,note_on,,,,,0,0,1,,,,0,,,74,63
288480,note_on,,,,,0,0,15,,,,13,,,55,63
288480,note_on,,,,,576,0,4,,,,2,,,62,63
288480,note_on,,,,,0,0,4,,,,2,,,59,63
288480,note_on,,,,,240,0,15,,,,13,,,50,0
288720,note_on,,,,,240,0,15,,,,13,,,55,0
288720,note_on,,,,,0,0,15,,,,13,,,59,63
288768,note_on,,,,,768,0,16,,,,14,,,31,0
288864,note_on,,,,,0,0,1,,,,0,,,71,0
288864,note_on,,,,,384,0,4,,,,2,,,59,0
288864,note_on,,,,,384,0,1,,,,0,,,74,0
288864,note_on,,,,,0,0,4,,,,2,,,62,0
288864,note_on,,,,,384,0,6,,,,3,,,43,0
288864,note_on,,,,,0,0,6,,,,3,,,50,0
288912,note_on,,,,,912,0,12,,,,10,,,83,0
288912,note_on,,,,,912,0,13,,,,11,,,71,0
288960,note_on,,,,,0,0,14,,,,12,,,59,63
288960,note_on,,,,,240,0,15,,,,13,,,59,0
288960,note_on,,,,,0,0,15,,,,13,,,50,63
288960,note_on,,,,,576,0,14,,,,12,,,55,63
289200,note_on,,,,,240,0,14,,,,12,,,59,0
289200,note_on,,,,,0,0,14,,,,12,,,55,0
289200,note_on,,,,,0,0,14,,,,12,,,59,63
289200,note_on,,,,,0,0,14,,,,12,,,62,63
289344,note_on,,,,,384,0,15,,,,13,,,50,0
289440,note_on,,,,,528,0,12,,,,10,,,86,90
289440,note_on,,,,,0,0,6,,,,3,,,59,63
289440,note_on,,,,,576,0,6,,,,3,,,55,63
289440,note_on,,,,,0,0,1,,,,0,,,83,63
289440,note_on,,,,,576,0,4,,,,2,,,71,63
289440,note_on,,,,,528,0,13,,,,11,,,74,63
289440,note_on,,,,,240,0,14,,,,12,,,62,0
289440,note_on,,,,,576,0,1,,,,0,,,79,63
289440,note_on,,,,,0,0,14,,,,12,,,59,0
289440,note_on,,,,,0,0,14,,,,12,,,62,63
289440,note_on,,,,,0,0,14,,,,12,,,67,63
289440,note_on,,,,,0,0,4,,,,2,,,67,63
289680,note_on,,,,,240,0,14,,,,12,,,67,0
289680,note_on,,,,,0,0,14,,,,12,,,62,0
289680,note_on,,,,,0,0,14,,,,12,,,71,63
289680,note_on,,,,,0,0,14,,,,12,,,67,63
289824,note_on,,,,,384,0,1,,,,0,,,83,0
289824,note_on,,,,,384,0,4,,,,2,,,67,0
289824,note_on,,,,,0,0,4,,,,2,,,71,0
289824,note_on,,,,,384,0,6,,,,3,,,59,0
289824,note_on,,,,,0,0,1,,,,0,,,79,0
289824,note_on,,,,,0,0,6,,,,3,,,55,0
289824,note_on,,,,,0,0,9,,,,5,,,62,0
289824,note_on,,,,,1824,0,9,,,,5,,,55,0
289920,note_on,,,,,0,0,13,,,,11,,,62,63
289920,note_on,,,,,576,0,15,,,,13,,,38,63
289920,note_on,,,,,480,0,12,,,,10,,,86,0
289920,note_on,,,,,1152,0,16,,,,14,,,38,63
289920,note_on,,,,,0,0,12,,,,10,,,74,70
289920,note_on,,,,,0,0,9,,,,5,,,65,63
289920,note_on,,,,,240,0,14,,,,12,,,67,0
289920,note_on,,,,,0,0,14,,,,12,,,71,0
289920,note_on,,,,,0,0,14,,,,12,,,65,63
289920,note_on,,,,,0,0,14,,,,12,,,74,63
289920,note_on,,,,,96,0,9,,,,5,,,62,63
289920,note_on,,,,,480,0,13,,,,11,,,74,0
290160,note_on,,,,,240,0,15,,,,13,,,38,0
290160,note_on,,,,,0,0,15,,,,13,,,45,63
290304,note_on,,,,,384,0,14,,,,12,,,74,0
290304,note_on,,,,,0,0,14,,,,12,,,65,0
290400,note_on,,,,,0,0,1,,,,0,,,77,63
290400,note_on,,,,,0,0,6,,,,3,,,53,63
290400,note_on,,,,,0,0,4,,,,2,,,74,63
290400,note_on,,,,,576,0,4,,,,2,,,65,63
290400,note_on,,,,,576,0,1,,,,0,,,86,63
290400,note_on,,,,,576,0,6,,,,3,,,62,63
290400,note_on,,,,,0,0,15,,,,13,,,53,63
290400,note_on,,,,,240,0,15,,,,13,,,45,0
290640,note_on,,,,,240,0,15,,,,13,,,53,0
290640,note_on,,,,,0,0,15,,,,13,,,57,63
290688,note_on,,,,,768,0,16,,,,14,,,38,0
290784,note_on,,,,,384,0,6,,,,3,,,53,0
290784,note_on,,,,,0,0,6,,,,3,,,62,0
290784,note_on,,,,,384,0,1,,,,0,,,77,0
290784,note_on,,,,,0,0,1,,,,0,,,86,0
290784,note_on,,,,,384,0,4,,,,2,,,74,0
290784,note_on,,,,,0,0,4,,,,2,,,65,0
290832,note_on,,,,,912,0,12,,,,10,,,74,0
290832,note_on,,,,,912,0,13,,,,11,,,62,0
290880,note_on,,,,,240,0,15,,,,13,,,57,0
290880,note_on,,,,,576,0,14,,,,12,,,62,63
290880,note_on,,,,,0,0,15,,,,13,,,50,63
290880,note_on,,,,,0,0,14,,,,12,,,53,63
291120,note_on,,,,,0,0,14,,,,12,,,57,63
291120,note_on,,,,,0,0,14,,,,12,,,65,63
291120,note_on,,,,,0,0,14,,,,12,,,62,0
291120,note_on,,,,,240,0,14,,,,12,,,53,0
291264,note_on,,,,,384,0,15,,,,13,,,50,0
291360,note_on,,,,,240,0,14,,,,12,,,57,0
291360,note_on,,,,,0,0,14,,,,12,,,65,0
291360,note_on,,,,,576,0,4,,,,2,,,65,63
291360,note_on,,,,,0,0,4,,,,2,,,62,63
291360,note_on,,,,,0,0,1,,,,0,,,77,63
291360,note_on,,,,,576,0,1,,,,0,,,74,63
291360,note_on,,,,,0,0,14,,,,12,,,69,63
291360,note_on,,,,,576,0,6,,,,3,,,53,63
291360,note_on,,,,,0,0,6,,,,3,,,50,63
291360,note_on,,,,,528,0,13,,,,11,,,65,63
291360,note_on,,,,,528,0,12,,,,10,,,77,70
291360,note_on,,,,,0,0,14,,,,12,,,62,63
291600,note_on,,,,,0,0,14,,,,12,,,65,63
291600,note_on,,,,,0,0,14,,,,12,,,74,63
291600,note_on,,,,,0,0,14,,,,12,,,69,0
291600,note_on,,,,,240,0,14,,,,12,,,62,0
291744,note_on,,,,,384,0,4,,,,2,,,62,0
291744,note_on,,,,,0,0,4,,,,2,,,65,0
291744,note_on,,,,,384,0,6,,,,3,,,50,0
291744,note_on,,,,,0,0,6,,,,3,,,53,0
291744,note_on,,,,,0,0,1,,,,0,,,74,0
291744,note_on,,,,,384,0,1,,,,0,,,77,0
291840,note_on,,,,,0,0,12,,,,10,,,81,70
291840,note_on,,,,,576,0,15,,,,13,,,45,63
291840,note_on,,,,,0,0,9,,,,5,,,64,63
291840,note_on,,,,,1152,0,16,,,,14,,,33,63
291840,note_on,,,,,0,0,13,,,,11,,,69,63
291840,note_on,,,,,0,0,9,,,,5,,,60,63
291840,note_on,,,,,480,0,12,,,,10,,,77,0
291840,note_on,,,,,0,0,14,,,,12,,,72,63
291840,note_on,,,,,0,0,14,,,,12,,,64,63
291840,note_on,,,,,0,0,14,,,,12,,,74,0
291840,note_on,,,,,240,0,14,,,,12,,,65,0
291840,note_on,,,,,1920,0,9,,,,5,,,65,0
291840,note_on,,,,,480,0,13,,,,11,,,65,0
291840,note_on,,,,,0,0,9,,,,5,,,62,0
292080,note_on,,,,,0,0,15,,,,13,,,52,63
292080,note_on,,,,,240,0,15,,,,13,,,45,0
292224,note_on,,,,,0,0,14,,,,12,,,64,0
292224,note_on,,,,,384,0,14,,,,12,,,72,0
292320,note_on,,,,,576,0,4,,,,2,,,64,63
292320,note_on,,,,,0,0,4,,,,2,,,60,63
292320,note_on,,,,,576,0,6,,,,3,,,52,63
292320,note_on,,,,,0,0,6,,,,3,,,45,63
292320,note_on,,,,,0,0,1,,,,0,,,76,63
292320,note_on,,,,,576,0,1,,,,0,,,72,63
292320,note_on,,,,,0,0,15,,,,13,,,57,63
292320,note_on,,,,,240,0,15,,,,13,,,52,0
292560,note_on,,,,,240,0,15,,,,13,,,57,0
292560,note_on,,,,,0,0,15,,,,13,,,60,63
292608,note_on,,,,,768,0,16,,,,14,,,33,0
292704,note_on,,,,,0,0,4,,,,2,,,64,0
292704,note_on,,,,,384,0,4,,,,2,,,60,0
292704,note_on,,,,,384,0,6,,,,3,,,45,0
292704,note_on,,,,,0,0,6,,,,3,,,52,0
292704,note_on,,,,,0,0,1,,,,0,,,72,0
292704,note_on,,,,,384,0,1,,,,0,,,76,0
292752,note_on,,,,,912,0,13,,,,11,,,69,0
292752,note_on,,,,,912,0,12,,,,10,,,81,0
292800,note_on,,,,,0,0,14,,,,12,,,60,63
292800,note_on,,,,,0,0,15,,,,13,,,52,63
292800,note_on,,,,,576,0,14,,,,12,,,57,63
292800,note_on,,,,,240,0,15,,,,13,,,60,0
293040,note_on,,,,,0,0,14,,,,12,,,60,63
293040,note_on,,,,,0,0,14,,,,12,,,64,63
293040,note_on,,,,,0,0,14,,,,12,,,57,0
293040,note_on,,,,,240,0,14,,,,12,,,60,0
293184,note_on,,,,,384,0,15,,,,13,,,52,0
293280,note_on,,,,,0,0,14,,,,12,,,64,63
293280,note_on,,,,,0,0,1,,,,0,,,76,63
293280,note_on,,,,,0,0,14,,,,12,,,60,0
293280,note_on,,,,,576,0,6,,,,3,,,57,63
293280,note_on,,,,,0,0,6,,,,3,,,60,63
293280,note_on,,,,,576,0,4,,,,2,,,64,63
293280,note_on,,,,,0,0,4,,,,2,,,69,63
293280,note_on,,,,,0,0,14,,,,12,,,69,63
293280,note_on,,,,,576,0,1,,,,0,,,81,63
293280,note_on,,,,,240,0,14,,,,12,,,64,0
293280,note_on,,,,,528,0,12,,,,10,,,84,70
293520,note_on,,,,,240,0,14,,,,12,,,69,0
293520,note_on,,,,,0,0,14,,,,12,,,72,63
293520,note_on,,,,,0,0,14,,,,12,,,69,63
293520,note_on,,,,,0,0,14,,,,12,,,64,0
293664,note_on,,,,,0,0,4,,,,2,,,64,0
293664,note_on,,,,,0,0,9,,,,5,,,60,0
293664,note_on,,,,,384,0,1,,,,0,,,76,0
293664,note_on,,,,,0,0,1,,,,0,,,81,0
293664,note_on,,,,,384,0,6,,,,3,,,60,0
293664,note_on,,,,,0,0,6,,,,3,,,57,0
293664,note_on,,,,,1824,0,9,,,,5,,,64,0
293664,note_on,,,,,384,0,4,,,,2,,,69,0
293760,note_on,,,,,240,0,14,,,,12,,,69,0
293760,note_on,,,,,0,0,14,,,,12,,,72,0
293760,note_on,,,,,0,0,14,,,,12,,,67,63
293760,note_on,,,,,0,0,14,,,,12,,,70,63
293760,set_tempo,,,,,15360,1,0,434783,,,,,,,
293760,note_on,,,,,96,0,9,,,,5,,,67,70
293760,note_on,,,,,1008,0,13,,,,11,,,72,70
293760,note_on,,,,,0,0,4,,,,2,,,70,63
293760,note_on,,,,,96,0,4,,,,2,,,64,63
293760,note_on,,,,,576,0,15,,,,13,,,48,63
293760,note_on,,,,,0,0,12,,,,10,,,72,38
293760,note_on,,,,,480,0,12,,,,10,,,84,0
293760,note_on,,,,,1152,0,16,,,,14,,,36,63
294000,note_on,,,,,0,0,14,,,,12,,,67,63
294000,note_on,,,,,240,0,14,,,,12,,,70,0
294000,note_on,,,,,0,0,14,,,,12,,,67,0
294000,note_on,,,,,0,0,14,,,,12,,,64,63
294144,note_on,,,,,384,0,12,,,,10,,,72,0
294240,note_on,,,,,0,0,14,,,,12,,,67,63
294240,note_on,,,,,0,0,14,,,,12,,,70,63
294240,note_on,,,,,0,0,14,,,,12,,,64,0
294240,note_on,,,,,240,0,14,,,,12,,,67,0
294480,note_on,,,,,0,0,14,,,,12,,,70,0
294480,note_on,,,,,0,0,14,,,,12,,,67,63
294480,note_on,,,,,0,0,14,,,,12,,,64,63
294480,note_on,,,,,240,0,14,,,,12,,,67,0
294720,note_on,,,,,960,0,9,,,,5,,,67,0
294720,note_on,,,,,0,0,9,,,,5,,,65,70
294720,note_on,,,,,240,0,14,,,,12,,,64,0
294720,note_on,,,,,0,0,14,,,,12,,,67,0
294720,note_on,,,,,0,0,14,,,,12,,,65,63
294720,note_on,,,,,0,0,4,,,,2,,,65,63
294720,note_on,,,,,0,0,4,,,,2,,,69,63
294720,note_on,,,,,0,0,4,,,,2,,,64,0
294720,note_on,,,,,0,0,14,,,,12,,,69,63
294720,note_on,,,,,960,0,4,,,,2,,,70,0
294960,note_on,,,,,0,0,13,,,,11,,,71,70
294960,note_on,,,,,1200,0,13,,,,11,,,72,0
295104,note_on,,,,,384,0,14,,,,12,,,69,0
295104,note_on,,,,,0,0,14,,,,12,,,65,0
295200,note_on,,,,,0,0,13,,,,11,,,72,70
295200,note_on,,,,,240,0,13,,,,11,,,71,0
295440,note_on,,,,,240,0,13,,,,11,,,72,0
295440,note_on,,,,,0,0,13,,,,11,,,69,70
295584,note_on,,,,,1824,0,16,,,,14,,,36,0
295584,note_on,,,,,1824,0,15,,,,13,,,48,0
295632,note_on,,,,,192,0,13,,,,11,,,69,0
295680,note_on,,,,,576,0,14,,,,12,,,67,63
295680,note_on,,,,,960,0,9,,,,5,,,65,0
295680,note_on,,,,,0,0,4,,,,2,,,69,0
295680,note_on,,,,,0,0,4,,,,2,,,58,63
295680,note_on,,,,,0,0,4,,,,2,,,67,63
295680,note_on,,,,,96,0,15,,,,13,,,48,63
295680,note_on,,,,,0,0,9,,,,5,,,64,70
295680,note_on,,,,,1536,0,12,,,,10,,,84,70
295680,note_on,,,,,0,0,14,,,,12,,,58,63
295680,note_on,,,,,96,0,16,,,,14,,,36,63
295680,note_on,,,,,960,0,4,,,,2,,,65,0
295920,note_on,,,,,240,0,14,,,,12,,,58,0
295920,note_on,,,,,0,0,14,,,,12,,,60,63
295920,note_on,,,,,0,0,14,,,,12,,,64,63
295920,note_on,,,,,0,0,14,,,,12,,,67,0
296160,note_on,,,,,0,0,14,,,,12,,,58,63
296160,note_on,,,,,0,0,14,,,,12,,,64,0
296160,note_on,,,,,240,0,14,,,,12,,,60,0
296160,note_on,,,,,0,0,14,,,,12,,,67,63
296400,note_on,,,,,0,0,14,,,,12,,,58,0
296400,note_on,,,,,0,0,14,,,,12,,,60,63
296400,note_on,,,,,240,0,14,,,,12,,,67,0
296400,note_on,,,,,0,0,14,,,,12,,,64,63
296640,note_on,,,,,960,0,9,,,,5,,,64,0
296640,note_on,,,,,0,0,14,,,,12,,,57,63
296640,note_on,,,,,960,0,4,,,,2,,,67,0
296640,note_on,,,,,0,0,4,,,,2,,,58,0
296640,note_on,,,,,0,0,4,,,,2,,,57,63
296640,note_on,,,,,0,0,4,,,,2,,,65,63
296640,note_on,,,,,0,0,9,,,,5,,,65,70
296640,note_on,,,,,0,0,14,,,,12,,,65,63
296640,note_on,,,,,240,0,14,,,,12,,,64,0
296640,note_on,,,,,0,0,14,,,,12,,,60,0
296880,note_on,,,,,0,0,12,,,,10,,,83,70
296880,note_on,,,,,1200,0,12,,,,10,,,84,0
297024,note_on,,,,,384,0,14,,,,12,,,57,0
297024,note_on,,,,,0,0,14,,,,12,,,65,0
297120,note_on,,,,,0,0,12,,,,10,,,84,70
297120,note_on,,,,,240,0,12,,,,10,,,83,0
297360,note_on,,,,,0,0,12,,,,10,,,81,70
297360,note_on,,,,,240,0,12,,,,10,,,84,0
297504,note_on,,,,,1824,0,16,,,,14,,,36,0
297504,note_on,,,,,1824,0,15,,,,13,,,48,0
297552,note_on,,,,,192,0,12,,,,10,,,81,0
297600,note_on,,,,,0,0,15,,,,13,,,55,63
297600,note_on,,,,,0,0,9,,,,5,,,60,63
297600,note_on,,,,,96,0,16,,,,14,,,34,63
297600,note_on,,,,,1968,0,13,,,,11,,,72,70
297600,note_on,,,,,960,0,9,,,,5,,,65,0
297600,note_on,,,,,960,0,4,,,,2,,,65,0
297600,note_on,,,,,0,0,4,,,,2,,,57,0
297600,note_on,,,,,0,0,4,,,,2,,,64,63
297600,note_on,,,,,0,0,4,,,,2,,,67,63
297600,note_on,,,,,96,0,15,,,,13,,,46,63
297600,note_on,,,,,576,0,14,,,,12,,,52,63
297600,note_on,,,,,0,0,9,,,,5,,,48,63
297600,note_on,,,,,0,0,14,,,,12,,,67,63
297840,note_on,,,,,0,0,14,,,,12,,,52,0
297840,note_on,,,,,240,0,14,,,,12,,,67,0
297840,note_on,,,,,0,0,14,,,,12,,,55,63
297840,note_on,,,,,0,0,14,,,,12,,,64,63
298080,note_on,,,,,0,0,14,,,,12,,,67,63
298080,note_on,,,,,0,0,14,,,,12,,,52,63
298080,note_on,,,,,240,0,14,,,,12,,,64,0
298080,note_on,,,,,0,0,14,,,,12,,,55,0
298320,note_on,,,,,720,0,13,,,,11,,,72,0
298320,note_on,,,,,0,0,13,,,,11,,,71,70
298320,note_on,,,,,0,0,14,,,,12,,,67,0
298320,note_on,,,,,240,0,14,,,,12,,,52,0
298320,note_on,,,,,0,0,14,,,,12,,,64,63
298320,note_on,,,,,0,0,14,,,,12,,,55,63
298512,note_on,,,,,0,0,14,,,,12,,,64,0
298512,note_on,,,,,192,0,14,,,,12,,,55,0
298560,note_on,,,,,960,0,15,,,,13,,,55,0
298560,note_on,,,,,0,0,15,,,,13,,,46,0
298560,note_on,,,,,0,0,15,,,,13,,,45,70
298560,note_on,,,,,0,0,15,,,,13,,,53,70
298560,note_on,,,,,0,0,4,,,,2,,,65,63
298560,note_on,,,,,0,0,4,,,,2,,,64,0
298560,note_on,,,,,0,0,14,,,,12,,,65,63
298560,note_on,,,,,0,0,16,,,,14,,,33,70
298560,note_on,,,,,960,0,16,,,,14,,,34,0
298560,note_on,,,,,240,0,13,,,,11,,,71,0
298560,note_on,,,,,0,0,13,,,,11,,,72,70
298560,note_on,,,,,960,0,4,,,,2,,,67,0
298560,note_on,,,,,48,0,14,,,,12,,,48,63
298800,note_on,,,,,0,0,14,,,,12,,,48,0
298800,note_on,,,,,0,0,14,,,,12,,,53,63
298800,note_on,,,,,0,0,14,,,,12,,,60,63
298800,note_on,,,,,240,0,13,,,,11,,,72,0
298800,note_on,,,,,0,0,13,,,,11,,,69,70
298800,note_on,,,,,240,0,14,,,,12,,,65,0
298992,note_on,,,,,192,0,13,,,,11,,,69,0
299040,note_on,,,,,240,0,14,,,,12,,,60,0
299040,note_on,,,,,1488,0,12,,,,10,,,84,70
299040,note_on,,,,,0,0,14,,,,12,,,65,70
299040,note_on,,,,,0,0,14,,,,12,,,53,0
299040,note_on,,,,,0,0,14,,,,12,,,48,70
299280,note_on,,,,,240,0,14,,,,12,,,48,0
299280,note_on,,,,,0,0,14,,,,12,,,53,70
299280,note_on,,,,,0,0,14,,,,12,,,60,70
299280,note_on,,,,,0,0,14,,,,12,,,65,0
299472,note_on,,,,,912,0,15,,,,13,,,53,0
299472,note_on,,,,,0,0,15,,,,13,,,45,0
299472,note_on,,,,,912,0,16,,,,14,,,33,0
299472,note_on,,,,,0,0,14,,,,12,,,60,0
299472,note_on,,,,,192,0,14,,,,12,,,53,0
299520,note_on,,,,,48,0,14,,,,12,,,48,70
299520,note_on,,,,,0,0,15,,,,13,,,51,80
299520,note_on,,,,,0,0,14,,,,12,,,63,70
299520,note_on,,,,,48,0,15,,,,13,,,43,80
299520,note_on,,,,,0,0,4,,,,2,,,57,63
299520,note_on,,,,,960,0,4,,,,2,,,65,0
299520,note_on,,,,,0,0,4,,,,2,,,63,63
299520,note_on,,,,,48,0,16,,,,14,,,31,80
299760,note_on,,,,,0,0,14,,,,12,,,48,0
299760,note_on,,,,,0,0,14,,,,12,,,60,70
299760,note_on,,,,,240,0,14,,,,12,,,63,0
299760,note_on,,,,,720,0,12,,,,10,,,84,0
299760,note_on,,,,,0,0,12,,,,10,,,83,80
299760,note_on,,,,,0,0,14,,,,12,,,57,70
300000,note_on,,,,,240,0,14,,,,12,,,60,0
300000,note_on,,,,,0,0,14,,,,12,,,57,0
300000,note_on,,,,,240,0,12,,,,10,,,83,0
300000,note_on,,,,,1008,0,13,,,,11,,,72,80
300000,note_on,,,,,0,0,14,,,,12,,,48,70
300000,note_on,,,,,0,0,14,,,,12,,,63,70
300000,note_on,,,,,0,0,12,,,,10,,,84,80
300240,note_on,,,,,0,0,14,,,,12,,,60,70
300240,note_on,,,,,240,0,14,,,,12,,,63,0
300240,note_on,,,,,0,0,14,,,,12,,,48,0
300240,note_on,,,,,0,0,14,,,,12,,,57,70
300240,note_on,,,,,240,0,12,,,,10,,,84,0
300240,note_on,,,,,0,0,12,,,,10,,,81,92
300432,note_on,,,,,192,0,12,,,,10,,,81,0
300480,note_on,,,,,240,0,14,,,,12,,,57,0
300480,note_on,,,,,0,0,14,,,,12,,,62,70
300480,note_on,,,,,0,0,14,,,,12,,,50,70
300480,note_on,,,,,0,0,15,,,,13,,,42,92
300480,note_on,,,,,0,0,15,,,,13,,,43,0
300480,note_on,,,,,960,0,15,,,,13,,,51,0
300480,note_on,,,,,960,0,4,,,,2,,,63,0
300480,note_on,,,,,0,0,4,,,,2,,,62,63
300480,note_on,,,,,960,0,16,,,,14,,,31,0
300480,note_on,,,,,0,0,16,,,,14,,,30,92
300480,note_on,,,,,0,0,15,,,,13,,,50,92
300480,note_on,,,,,0,0,14,,,,12,,,60,0
300672,note_on,,,,,0,0,9,,,,5,,,48,0
300672,note_on,,,,,3072,0,9,,,,5,,,60,0
300720,note_on,,,,,720,0,13,,,,11,,,72,0
300720,note_on,,,,,0,0,13,,,,11,,,71,100
300864,note_on,,,,,384,0,14,,,,12,,,50,0
300864,note_on,,,,,0,0,14,,,,12,,,62,0
300864,note_on,,,,,0,0,4,,,,2,,,57,0
300864,note_on,,,,,384,0,4,,,,2,,,62,0
300960,note_on,,,,,240,0,13,,,,11,,,71,0
300960,note_on,,,,,0,0,13,,,,11,,,72,80
300960,note_on,,,,,7296,0,1,,,,0,,,86,63
300960,note_on,,,,,0,0,1,,,,0,,,82,63
300960,note_on,,,,,528,0,12,,,,10,,,74,70
300960,note_on,,,,,7296,0,6,,,,3,,,62,63
300960,note_on,,,,,0,0,6,,,,3,,,58,63
301200,note_on,,,,,0,0,13,,,,11,,,69,63
301200,note_on,,,,,240,0,13,,,,11,,,72,0
301392,note_on,,,,,912,0,16,,,,14,,,30,0
301392,note_on,,,,,192,0,13,,,,11,,,69,0
301392,note_on,,,,,912,0,15,,,,13,,,42,0
301392,note_on,,,,,0,0,15,,,,13,,,50,0
301440,program_change,,,,,48,0,15,,,45,13,,,,
301440,program_change,,,,,48,0,16,,,45,14,,,,
301440,note_on,,,,,0,0,16,,,,14,,,31,63
301440,note_on,,,,,480,0,6,,,,3,,,58,0
301440,program_change,,,,,576,0,14,,,45,12,,,,
301440,note_on,,,,,0,0,15,,,,13,,,43,63
301440,note_on,,,,,0,0,6,,,,3,,,62,0
301440,note_on,,,,,0,0,6,,,,3,,,60,83
301440,note_on,,,,,0,0,6,,,,3,,,57,63
301440,note_on,,,,,480,0,1,,,,0,,,82,0
301440,note_on,,,,,0,0,1,,,,0,,,86,0
301440,note_on,,,,,0,0,1,,,,0,,,81,63
301440,note_on,,,,,0,0,1,,,,0,,,84,83
301680,note_on,,,,,720,0,12,,,,10,,,74,0
301680,note_on,,,,,0,0,12,,,,10,,,73,70
301824,note_on,,,,,384,0,16,,,,14,,,31,0
301824,note_on,,,,,384,0,15,,,,13,,,43,0
301920,note_on,,,,,480,0,1,,,,0,,,81,0
301920,note_on,,,,,480,0,6,,,,3,,,57,0
301920,note_on,,,,,240,0,12,,,,10,,,73,0
301920,note_on,,,,,0,0,12,,,,10,,,74,70
301920,note_on,,,,,0,0,1,,,,0,,,84,0
301920,note_on,,,,,0,0,6,,,,3,,,60,0
301920,note_on,,,,,480,0,14,,,,12,,,58,38
301920,note_on,,,,,0,0,14,,,,12,,,62,38
301920,note_on,,,,,0,0,1,,,,0,,,82,63
301920,note_on,,,,,0,0,6,,,,3,,,55,63
301920,note_on,,,,,0,0,6,,,,3,,,58,63
301920,note_on,,,,,0,0,1,,,,0,,,79,63
302160,note_on,,,,,240,0,12,,,,10,,,74,0
302160,note_on,,,,,0,0,12,,,,10,,,69,70
302304,note_on,,,,,384,0,6,,,,3,,,55,0
302304,note_on,,,,,0,0,6,,,,3,,,58,0
302304,note_on,,,,,0,0,1,,,,0,,,82,0
302304,note_on,,,,,384,0,14,,,,12,,,62,0
302304,note_on,,,,,0,0,14,,,,12,,,58,0
302304,note_on,,,,,384,0,1,,,,0,,,79,0
302400,note_on,,,,,240,0,12,,,,10,,,69,0
302400,note_on,,,,,0,0,12,,,,10,,,70,70
302640,note_on,,,,,240,0,12,,,,10,,,70,0
302640,note_on,,,,,0,0,12,,,,10,,,66,70
302880,note_on,,,,,1488,0,13,,,,11,,,79,70
302880,note_on,,,,,576,0,14,,,,12,,,62,38
302880,note_on,,,,,240,0,12,,,,10,,,66,0
302880,note_on,,,,,0,0,14,,,,12,,,58,38
302880,note_on,,,,,0,0,12,,,,10,,,67,70
302880,note_on,,,,,576,0,6,,,,3,,,55,63
302880,note_on,,,,,576,0,1,,,,0,,,79,63
303120,note_on,,,,,240,0,12,,,,10,,,67,0
303264,note_on,,,,,384,0,14,,,,12,,,58,0
303264,note_on,,,,,0,0,14,,,,12,,,62,0
303360,note_on,,,,,0,0,1,,,,0,,,89,83
303360,note_on,,,,,0,0,1,,,,0,,,86,63
303360,note_on,,,,,480,0,1,,,,0,,,79,0
303360,note_on,,,,,0,0,6,,,,3,,,62,63
303360,note_on,,,,,0,0,6,,,,3,,,65,83
303360,note_on,,,,,480,0,6,,,,3,,,55,0
303360,note_on,,,,,1536,0,15,,,,13,,,48,63
303360,note_on,,,,,1536,0,16,,,,14,,,36,63
303552,note_on,,,,,672,0,13,,,,11,,,79,0
303600,note_on,,,,,48,0,13,,,,11,,,78,70
303744,note_on,,,,,384,0,15,,,,13,,,48,0
303744,note_on,,,,,384,0,16,,,,14,,,36,0
303792,note_on,,,,,192,0,13,,,,11,,,78,0
303840,note_on,,,,,0,0,6,,,,3,,,60,63
303840,note_on,,,,,48,0,13,,,,11,,,79,70
303840,note_on,,,,,0,0,6,,,,3,,,63,63
303840,note_on,,,,,0,0,6,,,,3,,,65,0
303840,note_on,,,,,480,0,6,,,,3,,,62,0
303840,note_on,,,,,480,0,1,,,,0,,,89,0
303840,note_on,,,,,0,0,1,,,,0,,,87,63
303840,note_on,,,,,0,0,1,,,,0,,,86,0
303840,note_on,,,,,0,0,14,,,,12,,,63,38
303840,note_on,,,,,0,0,1,,,,0,,,84,63
303840,note_on,,,,,576,0,14,,,,12,,,55,38
304032,note_on,,,,,192,0,13,,,,11,,,79,0
304080,note_on,,,,,48,0,13,,,,11,,,74,70
304224,note_on,,,,,384,0,1,,,,0,,,84,0
304224,note_on,,,,,384,0,14,,,,12,,,63,0
304224,note_on,,,,,0,0,6,,,,3,,,60,0
304224,note_on,,,,,384,0,6,,,,3,,,63,0
304224,note_on,,,,,0,0,14,,,,12,,,55,0
304224,note_on,,,,,0,0,1,,,,0,,,87,0
304272,note_on,,,,,192,0,13,,,,11,,,74,0
304320,note_on,,,,,48,0,13,,,,11,,,75,70
304512,note_on,,,,,192,0,13,,,,11,,,75,0
304560,note_on,,,,,48,0,13,,,,11,,,71,70
304752,note_on,,,,,192,0,13,,,,11,,,71,0
304800,note_on,,,,,48,0,13,,,,11,,,72,70
304800,note_on,,,,,1680,0,12,,,,10,,,84,70
304800,note_on,,,,,0,0,1,,,,0,,,81,63
304800,note_on,,,,,0,0,14,,,,12,,,60,38
304800,note_on,,,,,576,0,6,,,,3,,,60,63
304800,note_on,,,,,576,0,1,,,,0,,,84,63
304800,note_on,,,,,576,0,14,,,,12,,,63,38
304800,note_on,,,,,0,0,6,,,,3,,,57,63
304992,note_on,,,,,192,0,13,,,,11,,,72,0
305184,note_on,,,,,384,0,14,,,,12,,,60,0
305184,note_on,,,,,0,0,14,,,,12,,,63,0
305280,note_on,,,,,1536,0,16,,,,14,,,38,63
305280,note_on,,,,,0,0,6,,,,3,,,58,63
305280,note_on,,,,,1536,0,15,,,,13,,,50,63
305280,note_on,,,,,0,0,1,,,,0,,,79,63
305280,note_on,,,,,0,0,1,,,,0,,,82,63
305280,note_on,,,,,0,0,1,,,,0,,,84,0
305280,note_on,,,,,480,0,1,,,,0,,,81,0
305280,note_on,,,,,480,0,6,,,,3,,,57,0
305280,note_on,,,,,0,0,6,,,,3,,,60,0
305280,note_on,,,,,0,0,6,,,,3,,,55,63
305520,note_on,,,,,720,0,12,,,,10,,,84,0
305520,note_on,,,,,0,0,12,,,,10,,,83,70
305664,note_on,,,,,384,0,15,,,,13,,,50,0
305664,note_on,,,,,384,0,16,,,,14,,,38,0
305760,note_on,,,,,480,0,6,,,,3,,,58,0
305760,note_on,,,,,0,0,6,,,,3,,,55,0
305760,note_on,,,,,0,0,6,,,,3,,,54,63
305760,note_on,,,,,0,0,6,,,,3,,,57,63
305760,note_on,,,,,0,0,1,,,,0,,,78,63
305760,note_on,,,,,0,0,1,,,,0,,,82,0
305760,note_on,,,,,576,0,14,,,,12,,,57,38
305760,note_on,,,,,0,0,14,,,,12,,,54,38
305760,note_on,,,,,480,0,1,,,,0,,,79,0
305760,note_on,,,,,0,0,1,,,,0,,,81,63
305760,note_on,,,,,240,0,12,,,,10,,,83,0
305760,note_on,,,,,0,0,12,,,,10,,,84,70
306000,note_on,,,,,240,0,12,,,,10,,,84,0
306000,note_on,,,,,0,0,12,,,,10,,,80,70
306144,note_on,,,,,384,0,14,,,,12,,,54,0
306144,note_on,,,,,0,0,14,,,,12,,,57,0
306144,note_on,,,,,0,0,1,,,,0,,,78,0
306144,note_on,,,,,384,0,1,,,,0,,,81,0
306144,note_on,,,,,384,0,6,,,,3,,,57,0
306144,note_on,,,,,0,0,6,,,,3,,,54,0
306240,note_on,,,,,240,0,12,,,,10,,,80,0
306240,note_on,,,,,0,0,12,,,,10,,,81,70
306480,note_on,,,,,240,0,12,,,,10,,,81,0
306480,note_on,,,,,0,0,12,,,,10,,,74,70
306672,note_on,,,,,192,0,12,,,,10,,,74,0
306720,note_on,,,,,48,0,12,,,,10,,,75,70
306720,note_on,,,,,576,0,6,,,,3,,,50,63
306720,note_on,,,,,576,0,1,,,,0,,,78,63
306720,note_on,,,,,576,0,14,,,,12,,,63,38
306720,note_on,,,,,0,0,14,,,,12,,,60,38
306720,note_on,,,,,1728,0,13,,,,11,,,72,70
306720,note_on,,,,,0,0,6,,,,3,,,54,63
307104,note_on,,,,,0,0,14,,,,12,,,63,0
307104,note_on,,,,,384,0,14,,,,12,,,60,0
307200,note_on,,,,,1536,0,15,,,,13,,,43,63
307200,note_on,,,,,0,0,1,,,,0,,,87,63
307200,note_on,,,,,480,0,1,,,,0,,,78,0
307200,note_on,,,,,1536,0,16,,,,14,,,31,63
307200,note_on,,,,,0,0,6,,,,3,,,63,63
307200,note_on,,,,,0,0,6,,,,3,,,50,0
307200,note_on,,,,,480,0,6,,,,3,,,54,0
307200,note_on,,,,,0,0,6,,,,3,,,60,63
307200,note_on,,,,,0,0,1,,,,0,,,84,63
307440,note_on,,,,,720,0,12,,,,10,,,75,0
307440,note_on,,,,,0,0,12,,,,10,,,73,63
307440,note_on,,,,,0,0,13,,,,11,,,69,63
307440,note_on,,,,,720,0,13,,,,11,,,72,0
307584,note_on,,,,,0,0,6,,,,3,,,63,0
307584,note_on,,,,,384,0,16,,,,14,,,31,0
307584,note_on,,,,,384,0,6,,,,3,,,60,0
307584,note_on,,,,,384,0,15,,,,13,,,43,0
307680,note_on,,,,,576,0,14,,,,12,,,58,38
307680,note_on,,,,,0,0,14,,,,12,,,62,38
307680,note_on,,,,,0,0,12,,,,10,,,74,63
307680,note_on,,,,,240,0,12,,,,10,,,73,0
307680,note_on,,,,,0,0,13,,,,11,,,70,63
307680,note_on,,,,,240,0,13,,,,11,,,69,0
307680,note_on,,,,,0,0,1,,,,0,,,86,63
307680,note_on,,,,,96,0,6,,,,3,,,58,63
307680,note_on,,,,,0,0,6,,,,3,,,62,63
307680,note_on,,,,,0,0,1,,,,0,,,82,63
307680,note_on,,,,,0,0,1,,,,0,,,87,0
307680,note_on,,,,,480,0,1,,,,0,,,84,0
307920,note_on,,,,,240,0,13,,,,11,,,70,0
307920,note_on,,,,,0,0,13,,,,11,,,66,63
307920,note_on,,,,,240,0,12,,,,10,,,74,0
307920,note_on,,,,,0,0,12,,,,10,,,69,63
308064,note_on,,,,,0,0,1,,,,0,,,82,0
308064,note_on,,,,,384,0,6,,,,3,,,62,0
308064,note_on,,,,,384,0,1,,,,0,,,86,0
308064,note_on,,,,,0,0,6,,,,3,,,58,0
308064,note_on,,,,,384,0,14,,,,12,,,62,0
308064,note_on,,,,,0,0,14,,,,12,,,58,0
308160,note_on,,,,,240,0,12,,,,10,,,69,0
308160,note_on,,,,,0,0,12,,,,10,,,70,63
308160,note_on,,,,,0,0,13,,,,11,,,67,63
308160,note_on,,,,,240,0,13,,,,11,,,66,0
308400,note_on,,,,,240,0,12,,,,10,,,70,0
308400,note_on,,,,,240,0,13,,,,11,,,67,0
308400,note_on,,,,,0,0,12,,,,10,,,66,63
308400,note_on,,,,,0,0,13,,,,11,,,60,63
308640,note_on,,,,,0,0,14,,,,12,,,63,38
308640,note_on,,,,,576,0,14,,,,12,,,55,38
308640,note_on,,,,,0,0,13,,,,11,,,58,63
308640,note_on,,,,,240,0,13,,,,11,,,60,0
308640,note_on,,,,,576,0,1,,,,0,,,91,63
308640,note_on,,,,,0,0,1,,,,0,,,87,63
308640,note_on,,,,,0,0,3,,,,1,,,79,63
308640,note_on,,,,,0,0,12,,,,10,,,67,63
308640,note_on,,,,,31776,0,3,,,,1,,,75,63
308640,note_on,,,,,240,0,12,,,,10,,,66,0
308880,note_on,,,,,0,0,13,,,,11,,,57,63
308880,note_on,,,,,240,0,13,,,,11,,,58,0
308880,note_on,,,,,0,0,12,,,,10,,,62,63
308880,note_on,,,,,240,0,12,,,,10,,,67,0
309024,note_on,,,,,384,0,14,,,,12,,,63,0
309024,note_on,,,,,0,0,14,,,,12,,,55,0
309072,note_on,,,,,192,0,12,,,,10,,,62,0
309072,note_on,,,,,192,0,13,,,,11,,,57,0
309120,note_on,,,,,0,0,1,,,,0,,,91,0
309120,note_on,,,,,1536,0,15,,,,13,,,51,63
309120,note_on,,,,,480,0,1,,,,0,,,87,0
309120,note_on,,,,,0,0,1,,,,0,,,89,83
309120,note_on,,,,,0,0,1,,,,0,,,82,63
309120,note_on,,,,,0,0,3,,,,1,,,70,63
309120,note_on,,,,,0,0,3,,,,1,,,77,83
309120,note_on,,,,,0,0,3,,,,1,,,75,0
309120,note_on,,,,,480,0,3,,,,1,,,79,0
309120,note_on,,,,,1536,0,16,,,,14,,,39,63
309120,note_on,,,,,48,0,13,,,,11,,,55,63
309120,note_on,,,,,48,0,12,,,,10,,,63,63
309360,note_on,,,,,240,0,12,,,,10,,,63,0
309360,note_on,,,,,0,0,12,,,,10,,,65,63
309360,note_on,,,,,0,0,13,,,,11,,,58,63
309360,note_on,,,,,240,0,13,,,,11,,,55,0
309504,note_on,,,,,384,0,16,,,,14,,,39,0
309504,note_on,,,,,384,0,15,,,,13,,,51,0
309600,note_on,,,,,240,0,12,,,,10,,,65,0
309600,note_on,,,,,0,0,12,,,,10,,,67,63
309600,note_on,,,,,0,0,13,,,,11,,,63,63
309600,note_on,,,,,0,0,1,,,,0,,,79,63
309600,note_on,,,,,0,0,1,,,,0,,,89,0
309600,note_on,,,,,0,0,3,,,,1,,,67,63
309600,note_on,,,,,0,0,3,,,,1,,,75,63
309600,note_on,,,,,0,0,3,,,,1,,,77,0
309600,note_on,,,,,480,0,3,,,,1,,,70,0
309600,note_on,,,,,0,0,1,,,,0,,,87,63
309600,note_on,,,,,480,0,1,,,,0,,,82,0
309600,note_on,,,,,576,0,14,,,,12,,,67,63
309600,note_on,,,,,0,0,14,,,,12,,,58,63
309600,note_on,,,,,240,0,13,,,,11,,,58,0
309840,note_on,,,,,240,0,13,,,,11,,,63,0
309840,note_on,,,,,0,0,12,,,,10,,,70,63
309840,note_on,,,,,0,0,13,,,,11,,,65,63
309840,note_on,,,,,240,0,12,,,,10,,,67,0
309984,note_on,,,,,0,0,1,,,,0,,,79,0
309984,note_on,,,,,384,0,1,,,,0,,,87,0
309984,note_on,,,,,384,0,14,,,,12,,,58,0
309984,note_on,,,,,0,0,14,,,,12,,,67,0
309984,note_on,,,,,384,0,3,,,,1,,,67,0
309984,note_on,,,,,0,0,3,,,,1,,,75,0
310080,note_on,,,,,240,0,13,,,,11,,,65,0
310080,note_on,,,,,0,0,13,,,,11,,,67,63
310080,note_on,,,,,0,0,4,,,,2,,,75,70
310080,note_on,,,,,0,0,12,,,,10,,,75,63
310080,note_on,,,,,9216,0,4,,,,2,,,79,70
310080,note_on,,,,,240,0,12,,,,10,,,70,0
310320,note_on,,,,,240,0,12,,,,10,,,75,0
310320,note_on,,,,,240,0,4,,,,2,,,75,0
310320,note_on,,,,,0,0,4,,,,2,,,79,0
310320,note_on,,,,,0,0,4,,,,2,,,70,70
310320,note_on,,,,,0,0,4,,,,2,,,77,70
310320,note_on,,,,,240,0,13,,,,11,,,67,0
310560,note_on,,,,,240,0,4,,,,2,,,77,0
310560,note_on,,,,,0,0,4,,,,2,,,70,0
310560,note_on,,,,,0,0,4,,,,2,,,75,70
310560,note_on,,,,,0,0,4,,,,2,,,67,70
310560,note_on,,,,,0,0,1,,,,0,,,79,63
310560,note_on,,,,,0,0,14,,,,12,,,58,63
310560,note_on,,,,,0,0,6,,,,3,,,55,63
310560,note_on,,,,,576,0,14,,,,12,,,67,63
310560,note_on,,,,,576,0,1,,,,0,,,75,63
310560,note_on,,,,,2496,0,6,,,,3,,,51,63
310800,note_on,,,,,0,0,4,,,,2,,,75,0
310800,note_on,,,,,0,0,4,,,,2,,,69,70
310800,note_on,,,,,0,0,4,,,,2,,,72,70
310800,note_on,,,,,240,0,4,,,,2,,,67,0
310944,note_on,,,,,0,0,14,,,,12,,,67,0
310944,note_on,,,,,384,0,14,,,,12,,,58,0
311040,note_on,,,,,720,0,12,,,,10,,,74,63
311040,note_on,,,,,1536,0,15,,,,13,,,46,63
311040,note_on,,,,,0,0,6,,,,3,,,58,83
311040,note_on,,,,,720,0,13,,,,11,,,70,63
311040,note_on,,,,,240,0,4,,,,2,,,69,0
311040,note_on,,,,,0,0,4,,,,2,,,74,70
311040,note_on,,,,,480,0,6,,,,3,,,55,0
311040,note_on,,,,,1536,0,16,,,,14,,,34,63
311040,note_on,,,,,0,0,6,,,,3,,,46,63
311040,note_on,,,,,0,0,6,,,,3,,,51,0
311040,note_on,,,,,0,0,4,,,,2,,,70,70
311040,note_on,,,,,0,0,4,,,,2,,,72,0
311040,note_on,,,,,480,0,1,,,,0,,,79,0
311040,note_on,,,,,0,0,1,,,,0,,,82,83
311040,note_on,,,,,0,0,1,,,,0,,,74,63
311040,note_on,,,,,0,0,1,,,,0,,,75,0
311232,note_on,,,,,192,0,4,,,,2,,,70,0
311232,note_on,,,,,0,0,4,,,,2,,,74,0
311280,note_on,,,,,0,0,12,,,,10,,,72,63
311280,note_on,,,,,240,0,12,,,,10,,,74,0
311280,note_on,,,,,0,0,13,,,,11,,,65,63
311280,note_on,,,,,240,0,13,,,,11,,,70,0
311424,note_on,,,,,384,0,16,,,,14,,,34,0
311424,note_on,,,,,384,0,15,,,,13,,,46,0
311520,note_on,,,,,0,0,13,,,,11,,,62,63
311520,note_on,,,,,240,0,13,,,,11,,,65,0
311520,note_on,,,,,0,0,1,,,,0,,,86,63
311520,note_on,,,,,0,0,1,,,,0,,,77,63
311520,note_on,,,,,0,0,1,,,,0,,,82,0
311520,note_on,,,,,480,0,1,,,,0,,,74,0
311520,note_on,,,,,480,0,6,,,,3,,,46,0
311520,note_on,,,,,576,0,14,,,,12,,,65,63
311520,note_on,,,,,0,0,6,,,,3,,,58,0
311520,note_on,,,,,0,0,14,,,,12,,,62,63
311520,note_on,,,,,0,0,12,,,,10,,,70,63
311520,note_on,,,,,0,0,6,,,,3,,,62,63
311520,note_on,,,,,240,0,12,,,,10,,,72,0
311520,note_on,,,,,0,0,6,,,,3,,,58,63
311760,note_on,,,,,240,0,13,,,,11,,,62,0
311760,note_on,,,,,0,0,13,,,,11,,,60,63
311760,note_on,,,,,0,0,12,,,,10,,,65,63
311760,note_on,,,,,240,0,12,,,,10,,,70,0
311904,note_on,,,,,0,0,1,,,,0,,,77,0
311904,note_on,,,,,0,0,14,,,,12,,,65,0
311904,note_on,,,,,384,0,6,,,,3,,,62,0
311904,note_on,,,,,384,0,14,,,,12,,,62,0
311904,note_on,,,,,0,0,6,,,,3,,,58,0
311904,note_on,,,,,384,0,1,,,,0,,,86,0
312000,note_on,,,,,768,0,4,,,,2,,,58,70
312000,note_on,,,,,240,0,12,,,,10,,,65,0
312000,note_on,,,,,0,0,12,,,,10,,,61,63
312000,note_on,,,,,0,0,13,,,,11,,,58,63
312000,note_on,,,,,240,0,13,,,,11,,,60,0
312000,note_on,,,,,0,0,4,,,,2,,,61,70
312240,note_on,,,,,0,0,4,,,,2,,,58,0
312240,note_on,,,,,240,0,12,,,,10,,,61,0
312240,note_on,,,,,0,0,4,,,,2,,,65,70
312240,note_on,,,,,240,0,4,,,,2,,,61,0
312240,note_on,,,,,0,0,4,,,,2,,,60,70
312240,note_on,,,,,240,0,13,,,,11,,,58,0
312480,note_on,,,,,576,0,1,,,,0,,,85,63
312480,note_on,,,,,576,0,14,,,,12,,,65,63
312480,note_on,,,,,0,0,14,,,,12,,,61,63
312480,note_on,,,,,0,0,1,,,,0,,,89,63
312480,note_on,,,,,576,0,6,,,,3,,,65,63
312480,note_on,,,,,0,0,6,,,,3,,,61,63
312480,note_on,,,,,240,0,4,,,,2,,,65,0
312480,note_on,,,,,0,0,4,,,,2,,,61,70
312480,note_on,,,,,0,0,4,,,,2,,,70,70
312480,note_on,,,,,0,0,4,,,,2,,,60,0
312720,note_on,,,,,0,0,4,,,,2,,,70,0
312720,note_on,,,,,0,0,4,,,,2,,,72,70
312720,note_on,,,,,0,0,4,,,,2,,,65,70
312720,note_on,,,,,240,0,4,,,,2,,,61,0
312864,note_on,,,,,384,0,14,,,,12,,,61,0
312864,note_on,,,,,0,0,14,,,,12,,,65,0
312960,note_on,,,,,720,0,12,,,,10,,,73,63
312960,note_on,,,,,1536,0,16,,,,14,,,37,63
312960,note_on,,,,,720,0,13,,,,11,,,65,63
312960,note_on,,,,,0,0,6,,,,3,,,56,63
312960,note_on,,,,,0,0,6,,,,3,,,65,0
312960,note_on,,,,,0,0,1,,,,0,,,87,83
312960,note_on,,,,,0,0,1,,,,0,,,85,0
312960,note_on,,,,,480,0,6,,,,3,,,61,0
312960,note_on,,,,,1536,0,15,,,,13,,,49,63
312960,note_on,,,,,240,0,4,,,,2,,,72,0
312960,note_on,,,,,0,0,4,,,,2,,,65,0
312960,note_on,,,,,0,0,6,,,,3,,,63,63
312960,note_on,,,,,480,0,1,,,,0,,,89,0
312960,note_on,,,,,0,0,4,,,,2,,,68,70
312960,note_on,,,,,0,0,4,,,,2,,,73,70
312960,note_on,,,,,0,0,1,,,,0,,,80,63
313152,note_on,,,,,192,0,4,,,,2,,,73,0
313152,note_on,,,,,0,0,4,,,,2,,,68,0
313200,note_on,,,,,0,0,13,,,,11,,,68,63
313200,note_on,,,,,240,0,13,,,,11,,,65,0
313200,note_on,,,,,0,0,12,,,,10,,,75,63
313200,note_on,,,,,240,0,12,,,,10,,,73,0
313344,note_on,,,,,384,0,16,,,,14,,,37,0
313344,note_on,,,,,384,0,15,,,,13,,,49,0
313440,note_on,,,,,576,0,14,,,,12,,,56,63
313440,note_on,,,,,0,0,14,,,,12,,,65,63
313440,note_on,,,,,480,0,1,,,,0,,,80,0
313440,note_on,,,,,240,0,13,,,,11,,,68,0
313440,note_on,,,,,0,0,1,,,,0,,,85,63
313440,note_on,,,,,0,0,1,,,,0,,,77,63
313440,note_on,,,,,0,0,13,,,,11,,,73,63
313440,note_on,,,,,480,0,6,,,,3,,,63,0
313440,note_on,,,,,0,0,6,,,,3,,,56,0
313440,note_on,,,,,0,0,6,,,,3,,,53,63
313440,note_on,,,,,0,0,6,,,,3,,,61,63
313440,note_on,,,,,0,0,1,,,,0,,,87,0
313440,note_on,,,,,0,0,12,,,,10,,,77,63
313440,note_on,,,,,240,0,12,,,,10,,,75,0
313680,note_on,,,,,240,0,13,,,,11,,,73,0
313680,note_on,,,,,0,0,13,,,,11,,,75,63
313680,note_on,,,,,0,0,12,,,,10,,,80,63
313680,note_on,,,,,240,0,12,,,,10,,,77,0
313824,note_on,,,,,0,0,1,,,,0,,,85,0
313824,note_on,,,,,384,0,6,,,,3,,,61,0
313824,note_on,,,,,384,0,14,,,,12,,,65,0
313824,note_on,,,,,0,0,14,,,,12,,,56,0
313824,note_on,,,,,0,0,6,,,,3,,,53,0
313824,note_on,,,,,384,0,1,,,,0,,,77,0
313920,note_on,,,,,768,0,4,,,,2,,,77,70
313920,note_on,,,,,0,0,4,,,,2,,,73,70
313920,note_on,,,,,240,0,12,,,,10,,,80,0
313920,note_on,,,,,0,0,12,,,,10,,,85,63
313920,note_on,,,,,0,0,13,,,,11,,,77,63
313920,note_on,,,,,240,0,13,,,,11,,,75,0
314112,note_on,,,,,192,0,13,,,,11,,,77,0
314112,note_on,,,,,192,0,12,,,,10,,,85,0
314160,note_on,,,,,240,0,4,,,,2,,,73,0
314160,note_on,,,,,0,0,4,,,,2,,,77,0
314160,note_on,,,,,0,0,4,,,,2,,,75,70
314160,note_on,,,,,0,0,4,,,,2,,,68,70
314400,note_on,,,,,240,0,4,,,,2,,,68,0
314400,note_on,,,,,576,0,1,,,,0,,,73,63
314400,note_on,,,,,576,0,14,,,,12,,,56,63
314400,note_on,,,,,576,0,6,,,,3,,,53,63
314400,note_on,,,,,0,0,4,,,,2,,,65,70
314400,note_on,,,,,0,0,4,,,,2,,,73,70
314400,note_on,,,,,0,0,1,,,,0,,,77,63
314400,note_on,,,,,0,0,14,,,,12,,,65,63
314400,note_on,,,,,4416,0,3,,,,1,,,73,63
314400,note_on,,,,,0,0,3,,,,1,,,65,63
314400,note_on,,,,,0,0,6,,,,3,,,49,63
314400,note_on,,,,,0,0,4,,,,2,,,75,0
314640,note_on,,,,,0,0,4,,,,2,,,70,70
314640,note_on,,,,,0,0,4,,,,2,,,67,70
314640,note_on,,,,,240,0,4,,,,2,,,65,0
314640,note_on,,,,,0,0,4,,,,2,,,73,0
314784,note_on,,,,,0,0,14,,,,12,,,56,0
314784,note_on,,,,,384,0,14,,,,12,,,65,0
314880,note_on,,,,,0,0,6,,,,3,,,56,63
314880,note_on,,,,,480,0,3,,,,1,,,65,0
314880,note_on,,,,,0,0,3,,,,1,,,68,63
314880,note_on,,,,,480,0,6,,,,3,,,49,0
314880,note_on,,,,,0,0,6,,,,3,,,53,0
314880,note_on,,,,,768,0,13,,,,11,,,68,63
314880,note_on,,,,,0,0,6,,,,3,,,44,63
314880,note_on,,,,,0,0,3,,,,1,,,73,0
314880,note_on,,,,,0,0,4,,,,2,,,72,70
314880,note_on,,,,,1536,0,15,,,,13,,,44,63
314880,note_on,,,,,1536,0,16,,,,14,,,32,63
314880,note_on,,,,,0,0,1,,,,0,,,72,63
314880,note_on,,,,,0,0,1,,,,0,,,80,63
314880,note_on,,,,,0,0,1,,,,0,,,73,0
314880,note_on,,,,,0,0,4,,,,2,,,68,70
314880,note_on,,,,,480,0,1,,,,0,,,77,0
314880,note_on,,,,,768,0,12,,,,10,,,72,63
314880,note_on,,,,,0,0,3,,,,1,,,72,63
314880,note_on,,,,,240,0,4,,,,2,,,67,0
314880,note_on,,,,,0,0,4,,,,2,,,70,0
315072,note_on,,,,,0,0,4,,,,2,,,72,0
315072,note_on,,,,,192,0,4,,,,2,,,68,0
315120,note_on,,,,,0,0,12,,,,10,,,70,63
315120,note_on,,,,,240,0,12,,,,10,,,72,0
315120,note_on,,,,,0,0,13,,,,11,,,63,63
315120,note_on,,,,,240,0,13,,,,11,,,68,0
315264,note_on,,,,,384,0,15,,,,13,,,44,0
315264,note_on,,,,,384,0,16,,,,14,,,32,0
315360,note_on,,,,,0,0,14,,,,12,,,60,63
315360,note_on,,,,,576,0,14,,,,12,,,63,63
315360,note_on,,,,,0,0,1,,,,0,,,80,0
315360,note_on,,,,,0,0,3,,,,1,,,72,0
315360,note_on,,,,,240,0,13,,,,11,,,63,0
315360,note_on,,,,,0,0,13,,,,11,,,60,63
315360,note_on,,,,,0,0,1,,,,0,,,75,63
315360,note_on,,,,,0,0,1,,,,0,,,84,63
315360,note_on,,,,,480,0,1,,,,0,,,72,0
315360,note_on,,,,,480,0,3,,,,1,,,68,0
315360,note_on,,,,,0,0,6,,,,3,,,56,63
315360,note_on,,,,,0,0,6,,,,3,,,56,0
315360,note_on,,,,,480,0,6,,,,3,,,44,0
315360,note_on,,,,,240,0,12,,,,10,,,70,0
315360,note_on,,,,,0,0,6,,,,3,,,60,63
315360,note_on,,,,,0,0,12,,,,10,,,68,63
315360,note_on,,,,,0,0,3,,,,1,,,72,63
315360,note_on,,,,,0,0,3,,,,1,,,75,63
315600,note_on,,,,,240,0,12,,,,10,,,68,0
315600,note_on,,,,,0,0,12,,,,10,,,63,63
315600,note_on,,,,,240,0,13,,,,11,,,60,0
315600,note_on,,,,,0,0,13,,,,11,,,58,63
315744,note_on,,,,,384,0,14,,,,12,,,60,0
315744,note_on,,,,,0,0,1,,,,0,,,84,0
315744,note_on,,,,,384,0,1,,,,0,,,75,0
315744,note_on,,,,,384,0,3,,,,1,,,75,0
315744,note_on,,,,,0,0,3,,,,1,,,72,0
315744,note_on,,,,,0,0,6,,,,3,,,56,0
315744,note_on,,,,,384,0,6,,,,3,,,60,0
315744,note_on,,,,,0,0,14,,,,12,,,63,0
315840,note_on,,,,,0,0,13,,,,11,,,56,63
315840,note_on,,,,,240,0,13,,,,11,,,58,0
315840,note_on,,,,,0,0,12,,,,10,,,60,63
315840,note_on,,,,,240,0,12,,,,10,,,63,0
315840,program_change,,,,,576,0,15,,,48,13,,,,
315840,note_on,,,,,768,0,4,,,,2,,,60,70
315840,program_change,,,,,576,0,16,,,48,14,,,,
315840,note_on,,,,,0,0,4,,,,2,,,56,70
315840,program_change,,,,,96,0,14,,,48,12,,,,
316032,note_on,,,,,192,0,12,,,,10,,,60,0
316032,note_on,,,,,192,0,13,,,,11,,,56,0
316080,note_on,,,,,240,0,4,,,,2,,,56,0
316080,note_on,,,,,0,0,4,,,,2,,,60,0
316080,note_on,,,,,0,0,4,,,,2,,,63,70
316080,note_on,,,,,0,0,4,,,,2,,,58,70
316320,note_on,,,,,576,0,6,,,,3,,,63,63
316320,note_on,,,,,240,0,4,,,,2,,,58,0
316320,note_on,,,,,0,0,4,,,,2,,,60,70
316320,note_on,,,,,0,0,4,,,,2,,,68,70
316320,note_on,,,,,0,0,4,,,,2,,,63,0
316320,note_on,,,,,576,0,1,,,,0,,,87,63
316560,note_on,,,,,240,0,4,,,,2,,,68,0
316560,note_on,,,,,0,0,4,,,,2,,,60,0
316560,note_on,,,,,0,0,4,,,,2,,,72,70
316560,note_on,,,,,0,0,4,,,,2,,,68,70
316800,note_on,,,,,768,0,12,,,,10,,,73,63
316800,note_on,,,,,0,0,6,,,,3,,,51,63
316800,note_on,,,,,480,0,6,,,,3,,,63,0
316800,note_on,,,,,768,0,13,,,,11,,,70,63
316800,note_on,,,,,0,0,4,,,,2,,,72,0
316800,note_on,,,,,480,0,1,,,,0,,,87,0
316800,note_on,,,,,0,0,4,,,,2,,,75,80
316800,note_on,,,,,0,0,1,,,,0,,,75,63
316800,note_on,,,,,240,0,4,,,,2,,,68,0
316800,note_on,,,,,960,0,15,,,,13,,,51,63
316800,note_on,,,,,960,0,14,,,,12,,,67,63
316800,note_on,,,,,960,0,16,,,,14,,,39,63
317040,note_on,,,,,240,0,12,,,,10,,,73,0
317040,note_on,,,,,0,0,12,,,,10,,,72,63
317040,note_on,,,,,0,0,13,,,,11,,,69,63
317040,note_on,,,,,240,0,13,,,,11,,,70,0
317184,note_on,,,,,384,0,1,,,,0,,,75,0
317184,note_on,,,,,384,0,6,,,,3,,,51,0
317280,note_on,,,,,240,0,13,,,,11,,,69,0
317280,note_on,,,,,0,0,13,,,,11,,,70,63
317280,note_on,,,,,0,0,12,,,,10,,,73,63
317280,note_on,,,,,240,0,12,,,,10,,,72,0
317520,note_on,,,,,0,0,12,,,,10,,,70,63
317520,note_on,,,,,240,0,12,,,,10,,,73,0
317520,note_on,,,,,0,0,13,,,,11,,,67,63
317520,note_on,,,,,240,0,13,,,,11,,,70,0
317760,note_on,,,,,0,0,12,,,,10,,,72,63
317760,note_on,,,,,240,0,12,,,,10,,,70,0
317760,note_on,,,,,240,0,13,,,,11,,,67,0
317760,note_on,,,,,0,0,13,,,,11,,,68,63
317760,note_on,,,,,0,0,14,,,,12,,,63,63
317760,note_on,,,,,960,0,14,,,,12,,,67,0
318000,note_on,,,,,0,0,4,,,,2,,,74,80
318000,note_on,,,,,1200,0,4,,,,2,,,75,0
318144,note_on,,,,,384,0,13,,,,11,,,68,0
318144,note_on,,,,,384,0,14,,,,12,,,63,0
318144,note_on,,,,,384,0,12,,,,10,,,72,0
318240,note_on,,,,,240,0,4,,,,2,,,74,0
318240,note_on,,,,,0,0,4,,,,2,,,75,80
318336,note_on,,,,,1536,0,16,,,,14,,,39,0
318336,note_on,,,,,1536,0,15,,,,13,,,51,0
318480,note_on,,,,,240,0,4,,,,2,,,75,0
318480,note_on,,,,,0,0,4,,,,2,,,72,80
318672,note_on,,,,,192,0,4,,,,2,,,72,0
318720,note_on,,,,,576,0,12,,,,10,,,70,63
318720,note_on,,,,,384,0,16,,,,14,,,39,63
318720,note_on,,,,,576,0,14,,,,12,,,67,63
318720,note_on,,,,,384,0,15,,,,13,,,51,63
318720,note_on,,,,,1536,0,6,,,,3,,,63,80
318720,note_on,,,,,1536,0,1,,,,0,,,87,80
318720,note_on,,,,,576,0,13,,,,11,,,61,63
318960,note_on,,,,,240,0,13,,,,11,,,61,0
318960,note_on,,,,,0,0,12,,,,10,,,69,63
318960,note_on,,,,,240,0,12,,,,10,,,70,0
318960,note_on,,,,,0,0,13,,,,11,,,60,63
319200,note_on,,,,,240,0,13,,,,11,,,60,0
319200,note_on,,,,,0,0,13,,,,11,,,61,63
319200,note_on,,,,,240,0,12,,,,10,,,69,0
319200,note_on,,,,,0,0,12,,,,10,,,70,63
319440,note_on,,,,,240,0,13,,,,11,,,61,0
319440,note_on,,,,,0,0,12,,,,10,,,67,63
319440,note_on,,,,,240,0,12,,,,10,,,70,0
319440,note_on,,,,,0,0,13,,,,11,,,58,63
319680,note_on,,,,,240,0,13,,,,11,,,58,0
319680,note_on,,,,,0,0,13,,,,11,,,60,63
319680,note_on,,,,,0,0,12,,,,10,,,68,63
319680,note_on,,,,,0,0,14,,,,12,,,63,63
319680,note_on,,,,,960,0,14,,,,12,,,67,0
319680,note_on,,,,,240,0,12,,,,10,,,67,0
319920,note_on,,,,,1200,0,1,,,,0,,,87,0
319920,note_on,,,,,1200,0,6,,,,3,,,63,0
319920,note_on,,,,,0,0,6,,,,3,,,62,80
319920,note_on,,,,,0,0,1,,,,0,,,86,80
320064,note_on,,,,,384,0,12,,,,10,,,68,0
320064,note_on,,,,,384,0,13,,,,11,,,60,0
320064,note_on,,,,,384,0,14,,,,12,,,63,0
320160,note_on,,,,,0,0,6,,,,3,,,63,80
320160,note_on,,,,,240,0,6,,,,3,,,62,0
320160,note_on,,,,,0,0,1,,,,0,,,87,80
320160,note_on,,,,,240,0,1,,,,0,,,86,0
320256,note_on,,,,,1536,0,16,,,,14,,,39,0
320256,note_on,,,,,1536,0,15,,,,13,,,51,0
320400,note_on,,,,,0,0,1,,,,0,,,84,80
320400,note_on,,,,,240,0,1,,,,0,,,87,0
320400,note_on,,,,,0,0,6,,,,3,,,60,80
320400,note_on,,,,,240,0,6,,,,3,,,63,0
320592,note_on,,,,,192,0,6,,,,3,,,60,0
320592,note_on,,,,,192,0,1,,,,0,,,84,0
320640,note_on,,,,,4896,0,3,,,,1,,,75,80
320640,note_on,,,,,0,0,15,,,,13,,,58,63
320640,note_on,,,,,384,0,16,,,,14,,,37,63
320640,note_on,,,,,384,0,15,,,,13,,,49,63
320640,note_on,,,,,576,0,13,,,,11,,,70,63
320640,note_on,,,,,576,0,14,,,,12,,,55,63
320880,note_on,,,,,240,0,14,,,,12,,,55,0
320880,note_on,,,,,0,0,14,,,,12,,,58,63
320880,note_on,,,,,0,0,13,,,,11,,,67,63
320880,note_on,,,,,240,0,13,,,,11,,,70,0
321120,note_on,,,,,0,0,13,,,,11,,,70,63
321120,note_on,,,,,240,0,13,,,,11,,,67,0
321120,note_on,,,,,240,0,14,,,,12,,,58,0
321120,note_on,,,,,0,0,14,,,,12,,,55,63
321360,note_on,,,,,0,0,13,,,,11,,,67,63
321360,note_on,,,,,240,0,13,,,,11,,,70,0
321360,note_on,,,,,240,0,14,,,,12,,,55,0
321360,note_on,,,,,720,0,3,,,,1,,,75,0
321360,note_on,,,,,0,0,3,,,,1,,,74,92
321360,note_on,,,,,0,0,14,,,,12,,,58,63
321600,note_on,,,,,0,0,14,,,,12,,,51,70
321600,note_on,,,,,0,0,16,,,,14,,,36,70
321600,note_on,,,,,960,0,16,,,,14,,,37,0
321600,note_on,,,,,240,0,14,,,,12,,,58,0
321600,note_on,,,,,0,0,13,,,,11,,,68,70
321600,note_on,,,,,240,0,13,,,,11,,,67,0
321600,note_on,,,,,0,0,15,,,,13,,,48,70
321600,note_on,,,,,0,0,15,,,,13,,,49,0
321600,note_on,,,,,0,0,15,,,,13,,,56,70
321600,note_on,,,,,240,0,3,,,,1,,,74,0
321600,note_on,,,,,0,0,3,,,,1,,,75,92
321600,note_on,,,,,960,0,15,,,,13,,,58,0
321840,note_on,,,,,0,0,13,,,,11,,,63,70
321840,note_on,,,,,240,0,3,,,,1,,,75,0
321840,note_on,,,,,0,0,3,,,,1,,,72,92
321840,note_on,,,,,240,0,13,,,,11,,,68,0
321840,note_on,,,,,0,0,14,,,,12,,,56,70
321840,note_on,,,,,240,0,14,,,,12,,,51,0
322032,note_on,,,,,192,0,3,,,,1,,,72,0
322080,note_on,,,,,240,0,14,,,,12,,,56,0
322080,note_on,,,,,0,0,14,,,,12,,,51,70
322080,note_on,,,,,0,0,13,,,,11,,,68,70
322080,note_on,,,,,240,0,13,,,,11,,,63,0
322080,note_on,,,,,2016,0,12,,,,10,,,87,80
322320,note_on,,,,,240,0,13,,,,11,,,68,0
322320,note_on,,,,,0,0,13,,,,11,,,63,70
322320,note_on,,,,,0,0,14,,,,12,,,56,70
322320,note_on,,,,,240,0,14,,,,12,,,51,0
322560,note_on,,,,,1968,0,1,,,,0,,,87,80
322560,note_on,,,,,0,0,14,,,,12,,,51,80
322560,note_on,,,,,0,0,15,,,,13,,,56,0
322560,note_on,,,,,1968,0,6,,,,3,,,63,80
322560,set_tempo,,,,,28800,1,0,428571,,,,,,,
322560,note_on,,,,,0,0,15,,,,13,,,46,80
322560,note_on,,,,,960,0,15,,,,13,,,48,0
322560,note_on,,,,,528,0,3,,,,1,,,75,80
322560,note_on,,,,,0,0,15,,,,13,,,54,80
322560,note_on,,,,,0,0,13,,,,11,,,66,80
322560,note_on,,,,,240,0,14,,,,12,,,56,0
322560,note_on,,,,,960,0,16,,,,14,,,36,0
322560,note_on,,,,,0,0,16,,,,14,,,34,80
322560,note_on,,,,,240,0,13,,,,11,,,63,0
322800,note_on,,,,,240,0,14,,,,12,,,51,0
322800,note_on,,,,,0,0,14,,,,12,,,60,80
322800,note_on,,,,,720,0,12,,,,10,,,87,0
322800,note_on,,,,,0,0,13,,,,11,,,63,80
322800,note_on,,,,,240,0,13,,,,11,,,66,0
322800,note_on,,,,,0,0,12,,,,10,,,86,80
323040,note_on,,,,,0,0,13,,,,11,,,66,80
323040,note_on,,,,,0,0,14,,,,12,,,51,80
323040,note_on,,,,,240,0,12,,,,10,,,86,0
323040,note_on,,,,,0,0,12,,,,10,,,87,80
323040,note_on,,,,,240,0,13,,,,11,,,63,0
323040,note_on,,,,,240,0,14,,,,12,,,60,0
323280,note_on,,,,,0,0,3,,,,1,,,74,80
323280,note_on,,,,,720,0,3,,,,1,,,75,0
323280,note_on,,,,,0,0,12,,,,10,,,84,80
323280,note_on,,,,,720,0,1,,,,0,,,87,0
323280,note_on,,,,,0,0,13,,,,11,,,63,80
323280,note_on,,,,,240,0,13,,,,11,,,66,0
323280,note_on,,,,,720,0,6,,,,3,,,63,0
323280,note_on,,,,,0,0,6,,,,3,,,62,92
323280,note_on,,,,,240,0,14,,,,12,,,51,0
323280,note_on,,,,,240,0,12,,,,10,,,87,0
323280,note_on,,,,,0,0,1,,,,0,,,86,92
323280,note_on,,,,,0,0,14,,,,12,,,60,80
323472,note_on,,,,,192,0,12,,,,10,,,84,0
323520,note_on,,,,,240,0,14,,,,12,,,60,0
323520,note_on,,,,,0,0,6,,,,3,,,63,92
323520,note_on,,,,,240,0,6,,,,3,,,62,0
323520,note_on,,,,,0,0,14,,,,12,,,53,80
323520,note_on,,,,,240,0,13,,,,11,,,63,0
323520,note_on,,,,,0,0,13,,,,11,,,65,80
323520,note_on,,,,,0,0,3,,,,1,,,75,92
323520,note_on,,,,,240,0,3,,,,1,,,74,0
323520,note_on,,,,,0,0,1,,,,0,,,87,92
323520,note_on,,,,,960,0,15,,,,13,,,54,0
323520,note_on,,,,,0,0,16,,,,14,,,33,92
323520,note_on,,,,,960,0,16,,,,14,,,34,0
323520,note_on,,,,,240,0,1,,,,0,,,86,0
323520,note_on,,,,,0,0,15,,,,13,,,46,0
323520,note_on,,,,,0,0,15,,,,13,,,53,92
323520,note_on,,,,,0,0,15,,,,13,,,45,92
323760,note_on,,,,,240,0,3,,,,1,,,75,0
323760,note_on,,,,,240,0,6,,,,3,,,63,0
323760,note_on,,,,,0,0,3,,,,1,,,72,92
323760,note_on,,,,,0,0,1,,,,0,,,84,92
323760,note_on,,,,,0,0,6,,,,3,,,60,92
323760,note_on,,,,,240,0,1,,,,0,,,87,0
323904,note_on,,,,,384,0,13,,,,11,,,65,0
323904,note_on,,,,,384,0,14,,,,12,,,53,0
323952,note_on,,,,,192,0,3,,,,1,,,72,0
323952,note_on,,,,,192,0,1,,,,0,,,84,0
323952,note_on,,,,,192,0,6,,,,3,,,60,0
324000,note_on,,,,,0,0,14,,,,12,,,73,80
324000,note_on,,,,,528,0,12,,,,10,,,89,125
324000,note_on,,,,,96,0,14,,,,12,,,65,80
324000,note_on,,,,,23328,0,9,,,,5,,,65,105
324000,note_on,,,,,96,0,13,,,,11,,,85,100
324288,note_on,,,,,768,0,16,,,,14,,,33,0
324288,note_on,,,,,768,0,15,,,,13,,,53,0
324288,note_on,,,,,0,0,15,,,,13,,,45,0
324312,note_on,,,,,312,0,13,,,,11,,,85,0
324312,note_on,,,,,312,0,14,,,,12,,,73,0
324312,note_on,,,,,312,0,12,,,,10,,,89,0
324312,note_on,,,,,0,0,14,,,,12,,,65,0
324480,note_on,,,,,168,0,13,,,,11,,,84,105
324480,note_on,,,,,168,0,14,,,,12,,,72,92
324480,note_on,,,,,0,0,14,,,,12,,,75,92
324480,note_on,,,,,168,0,12,,,,10,,,87,125
324480,set_tempo,,,,,1920,1,0,422535,,,,,,,
324672,note_on,,,,,672,0,9,,,,5,,,65,0
324720,note_on,,,,,48,0,9,,,,5,,,64,105
324792,note_on,,,,,312,0,13,,,,11,,,84,0
324792,note_on,,,,,0,0,14,,,,12,,,72,0
324792,note_on,,,,,312,0,12,,,,10,,,87,0
324792,note_on,,,,,312,0,14,,,,12,,,75,0
324912,note_on,,,,,192,0,9,,,,5,,,64,0
324960,note_on,,,,,168,0,13,,,,11,,,82,105
324960,note_on,,,,,1008,0,1,,,,0,,,89,92
324960,note_on,,,,,672,0,16,,,,14,,,34,105
324960,note_on,,,,,1008,0,3,,,,1,,,77,92
324960,note_on,,,,,168,0,12,,,,10,,,85,105
324960,note_on,,,,,0,0,6,,,,3,,,65,92
324960,note_on,,,,,672,0,15,,,,13,,,46,105
324960,note_on,,,,,168,0,14,,,,12,,,77,92
324960,note_on,,,,,48,0,9,,,,5,,,65,105
324960,note_on,,,,,0,0,14,,,,12,,,73,92
324960,note_on,,,,,1008,0,6,,,,3,,,61,92
325272,note_on,,,,,312,0,13,,,,11,,,82,0
325272,note_on,,,,,312,0,15,,,,13,,,46,0
325272,note_on,,,,,312,0,12,,,,10,,,85,0
325272,note_on,,,,,312,0,14,,,,12,,,73,0
325272,note_on,,,,,0,0,6,,,,3,,,61,0
325272,note_on,,,,,312,0,16,,,,14,,,34,0
325272,note_on,,,,,312,0,6,,,,3,,,65,0
325272,note_on,,,,,0,0,14,,,,12,,,77,0
325344,note_on,,,,,384,0,9,,,,5,,,65,0
325440,note_on,,,,,168,0,14,,,,12,,,69,92
325440,note_on,,,,,168,0,6,,,,3,,,63,92
325440,note_on,,,,,0,0,6,,,,3,,,57,92
325440,note_on,,,,,168,0,16,,,,14,,,36,105
325440,note_on,,,,,0,0,14,,,,12,,,75,92
325440,note_on,,,,,168,0,15,,,,13,,,48,105
325536,note_on,,,,,576,0,3,,,,1,,,77,0
325536,note_on,,,,,576,0,1,,,,0,,,89,0
325680,note_on,,,,,144,0,3,,,,1,,,78,92
325680,note_on,,,,,144,0,1,,,,0,,,90,92
325752,note_on,,,,,312,0,14,,,,12,,,75,0
325752,note_on,,,,,0,0,14,,,,12,,,69,0
325752,note_on,,,,,312,0,16,,,,14,,,36,0
325752,note_on,,,,,312,0,15,,,,13,,,48,0
325752,note_on,,,,,312,0,6,,,,3,,,57,0
325752,note_on,,,,,0,0,6,,,,3,,,63,0
325872,note_on,,,,,192,0,3,,,,1,,,78,0
325872,note_on,,,,,192,0,1,,,,0,,,90,0
325920,note_on,,,,,168,0,6,,,,3,,,58,92
325920,note_on,,,,,168,0,14,,,,12,,,73,92
325920,note_on,,,,,0,0,14,,,,12,,,70,92
325920,note_on,,,,,168,0,16,,,,14,,,37,105
325920,note_on,,,,,576,0,9,,,,5,,,58,105
325920,note_on,,,,,168,0,15,,,,13,,,49,105
325920,note_on,,,,,48,0,1,,,,0,,,89,92
325920,note_on,,,,,48,0,3,,,,1,,,77,92
325920,note_on,,,,,648,0,12,,,,10,,,82,116
325920,note_on,,,,,648,0,13,,,,11,,,77,105
325920,note_on,,,,,0,0,13,,,,11,,,65,105
325920,note_on,,,,,0,0,6,,,,3,,,61,92
326232,note_on,,,,,312,0,6,,,,3,,,61,0
326232,note_on,,,,,0,0,6,,,,3,,,58,0
326232,note_on,,,,,0,0,13,,,,11,,,77,0
326232,note_on,,,,,312,0,16,,,,14,,,37,0
326232,note_on,,,,,312,0,13,,,,11,,,65,0
326232,note_on,,,,,312,0,15,,,,13,,,49,0
326232,note_on,,,,,312,0,14,,,,12,,,70,0
326232,note_on,,,,,0,0,14,,,,12,,,73,0
326232,note_on,,,,,312,0,12,,,,10,,,82,0
326304,note_on,,,,,384,0,1,,,,0,,,89,0
326304,note_on,,,,,384,0,3,,,,1,,,77,0
326400,note_on,,,,,168,0,13,,,,11,,,77,105
326400,note_on,,,,,0,0,13,,,,11,,,80,105
326400,note_on,,,,,168,0,12,,,,10,,,92,116
326592,note_on,,,,,672,0,9,,,,5,,,58,0
326640,note_on,,,,,48,0,9,,,,5,,,57,105
326712,note_on,,,,,312,0,12,,,,10,,,92,0
326712,note_on,,,,,0,0,13,,,,11,,,77,0
326712,note_on,,,,,312,0,13,,,,11,,,80,0
326832,note_on,,,,,192,0,9,,,,5,,,57,0
326880,note_on,,,,,648,0,6,,,,3,,,58,92
326880,note_on,,,,,648,0,16,,,,14,,,39,105
326880,note_on,,,,,0,0,13,,,,11,,,75,105
326880,note_on,,,,,168,0,13,,,,11,,,78,105
326880,note_on,,,,,648,0,15,,,,13,,,51,105
326880,note_on,,,,,576,0,1,,,,0,,,82,92
326880,note_on,,,,,648,0,14,,,,12,,,70,92
326880,note_on,,,,,168,0,12,,,,10,,,90,116
326880,note_on,,,,,576,0,3,,,,1,,,70,92
326880,note_on,,,,,0,0,3,,,,1,,,82,92
326880,note_on,,,,,48,0,9,,,,5,,,58,105
326880,note_on,,,,,0,0,14,,,,12,,,66,92
327192,note_on,,,,,312,0,14,,,,12,,,66,0
327192,note_on,,,,,312,0,6,,,,3,,,58,0
327192,note_on,,,,,312,0,12,,,,10,,,90,0
327192,note_on,,,,,312,0,15,,,,13,,,51,0
327192,note_on,,,,,0,0,14,,,,12,,,70,0
327192,note_on,,,,,312,0,13,,,,11,,,75,0
327192,note_on,,,,,312,0,16,,,,14,,,39,0
327192,note_on,,,,,0,0,13,,,,11,,,78,0
327264,note_on,,,,,384,0,9,,,,5,,,58,0
327360,note_on,,,,,0,0,14,,,,12,,,80,92
327360,note_on,,,,,168,0,14,,,,12,,,62,92
327360,note_on,,,,,168,0,6,,,,3,,,62,92
327360,note_on,,,,,0,0,6,,,,3,,,68,92
327360,note_on,,,,,168,0,15,,,,13,,,53,105
327360,note_on,,,,,168,0,16,,,,14,,,41,105
327456,note_on,,,,,576,0,3,,,,1,,,82,0
327456,note_on,,,,,0,0,3,,,,1,,,70,0
327456,note_on,,,,,576,0,1,,,,0,,,82,0
327600,note_on,,,,,0,0,3,,,,1,,,83,92
327600,note_on,,,,,144,0,3,,,,1,,,71,92
327600,note_on,,,,,144,0,1,,,,0,,,83,92
327672,note_on,,,,,0,0,14,,,,12,,,62,0
327672,note_on,,,,,312,0,15,,,,13,,,53,0
327672,note_on,,,,,312,0,16,,,,14,,,41,0
327672,note_on,,,,,0,0,6,,,,3,,,62,0
327672,note_on,,,,,312,0,6,,,,3,,,68,0
327672,note_on,,,,,312,0,14,,,,12,,,80,0
327792,note_on,,,,,0,0,3,,,,1,,,71,0
327792,note_on,,,,,192,0,3,,,,1,,,83,0
327792,note_on,,,,,192,0,1,,,,0,,,83,0
327840,note_on,,,,,648,0,12,,,,10,,,87,116
327840,note_on,,,,,648,0,13,,,,11,,,70,105
327840,note_on,,,,,48,0,1,,,,0,,,82,92
327840,note_on,,,,,168,0,16,,,,14,,,42,105
327840,note_on,,,,,0,0,14,,,,12,,,78,92
327840,note_on,,,,,576,0,9,,,,5,,,63,105
327840,note_on,,,,,0,0,6,,,,3,,,66,92
327840,note_on,,,,,0,0,13,,,,11,,,75,105
327840,note_on,,,,,168,0,6,,,,3,,,63,92
327840,note_on,,,,,48,0,3,,,,1,,,82,92
327840,note_on,,,,,0,0,3,,,,1,,,70,92
327840,note_on,,,,,168,0,15,,,,13,,,54,105
327840,note_on,,,,,168,0,14,,,,12,,,63,92
328152,note_on,,,,,312,0,12,,,,10,,,87,0
328152,note_on,,,,,312,0,14,,,,12,,,78,0
328152,note_on,,,,,0,0,14,,,,12,,,63,0
328152,note_on,,,,,312,0,15,,,,13,,,54,0
328152,note_on,,,,,0,0,13,,,,11,,,70,0
328152,note_on,,,,,0,0,6,,,,3,,,63,0
328152,note_on,,,,,312,0,16,,,,14,,,42,0
328152,note_on,,,,,312,0,13,,,,11,,,75,0
328152,note_on,,,,,312,0,6,,,,3,,,66,0
328224,note_on,,,,,384,0,3,,,,1,,,70,0
328224,note_on,,,,,0,0,3,,,,1,,,82,0
328224,note_on,,,,,384,0,1,,,,0,,,82,0
328320,note_on,,,,,168,0,12,,,,10,,,85,116
328320,note_on,,,,,0,0,13,,,,11,,,82,105
328320,note_on,,,,,168,0,13,,,,11,,,73,105
328512,note_on,,,,,672,0,9,,,,5,,,63,0
328560,note_on,,,,,48,0,9,,,,5,,,62,105
328632,note_on,,,,,312,0,13,,,,11,,,82,0
328632,note_on,,,,,0,0,13,,,,11,,,73,0
328632,note_on,,,,,312,0,12,,,,10,,,85,0
328752,note_on,,,,,192,0,9,,,,5,,,62,0
328800,note_on,,,,,168,0,13,,,,11,,,80,105
328800,note_on,,,,,648,0,16,,,,14,,,44,105
328800,note_on,,,,,48,0,9,,,,5,,,63,105
328800,note_on,,,,,576,0,3,,,,1,,,75,92
328800,note_on,,,,,0,0,6,,,,3,,,60,92
328800,note_on,,,,,648,0,6,,,,3,,,63,92
328800,note_on,,,,,0,0,13,,,,11,,,72,105
328800,note_on,,,,,648,0,14,,,,12,,,75,92
328800,note_on,,,,,0,0,14,,,,12,,,72,92
328800,note_on,,,,,576,0,1,,,,0,,,87,92
328800,note_on,,,,,168,0,12,,,,10,,,84,116
328800,note_on,,,,,648,0,15,,,,13,,,56,105
329112,note_on,,,,,312,0,6,,,,3,,,60,0
329112,note_on,,,,,312,0,14,,,,12,,,72,0
329112,note_on,,,,,312,0,13,,,,11,,,72,0
329112,note_on,,,,,312,0,16,,,,14,,,44,0
329112,note_on,,,,,0,0,13,,,,11,,,80,0
329112,note_on,,,,,312,0,12,,,,10,,,84,0
329112,note_on,,,,,0,0,6,,,,3,,,63,0
329112,note_on,,,,,0,0,14,,,,12,,,75,0
329112,note_on,,,,,312,0,15,,,,13,,,56,0
329184,note_on,,,,,384,0,9,,,,5,,,63,0
329280,note_on,,,,,168,0,6,,,,3,,,61,92
329280,note_on,,,,,168,0,16,,,,14,,,46,105
329280,note_on,,,,,0,0,6,,,,3,,,55,92
329280,note_on,,,,,168,0,14,,,,12,,,67,92
329280,note_on,,,,,168,0,15,,,,13,,,58,105
329280,note_on,,,,,0,0,14,,,,12,,,73,92
329376,note_on,,,,,576,0,1,,,,0,,,87,0
329376,note_on,,,,,576,0,3,,,,1,,,75,0
329520,note_on,,,,,144,0,3,,,,1,,,76,92
329520,note_on,,,,,144,0,1,,,,0,,,88,92
329592,note_on,,,,,312,0,16,,,,14,,,46,0
329592,note_on,,,,,312,0,14,,,,12,,,73,0
329592,note_on,,,,,0,0,6,,,,3,,,61,0
329592,note_on,,,,,312,0,6,,,,3,,,55,0
329592,note_on,,,,,0,0,14,,,,12,,,67,0
329592,note_on,,,,,312,0,15,,,,13,,,58,0
329712,note_on,,,,,192,0,3,,,,1,,,76,0
329712,note_on,,,,,192,0,1,,,,0,,,88,0
329760,note_on,,,,,168,0,16,,,,14,,,48,105
329760,note_on,,,,,0,0,6,,,,3,,,60,92
329760,note_on,,,,,0,0,13,,,,11,,,75,105
329760,note_on,,,,,648,0,13,,,,11,,,68,105
329760,note_on,,,,,648,0,12,,,,10,,,80,116
329760,note_on,,,,,168,0,15,,,,13,,,60,105
329760,note_on,,,,,48,0,3,,,,1,,,75,92
329760,note_on,,,,,48,0,1,,,,0,,,87,92
329760,note_on,,,,,168,0,6,,,,3,,,56,92
329760,note_on,,,,,0,0,14,,,,12,,,68,92
329760,note_on,,,,,576,0,9,,,,5,,,68,105
329760,note_on,,,,,168,0,14,,,,12,,,72,92
330072,note_on,,,,,0,0,14,,,,12,,,72,0
330072,note_on,,,,,0,0,6,,,,3,,,56,0
330072,note_on,,,,,312,0,14,,,,12,,,68,0
330072,note_on,,,,,312,0,16,,,,14,,,48,0
330072,note_on,,,,,312,0,6,,,,3,,,60,0
330072,note_on,,,,,312,0,12,,,,10,,,80,0
330072,note_on,,,,,312,0,13,,,,11,,,75,0
330072,note_on,,,,,0,0,13,,,,11,,,68,0
330072,note_on,,,,,312,0,15,,,,13,,,60,0
330144,note_on,,,,,384,0,3,,,,1,,,75,0
330144,note_on,,,,,384,0,1,,,,0,,,87,0
330240,note_on,,,,,0,0,13,,,,11,,,87,105
330240,note_on,,,,,168,0,12,,,,10,,,90,116
330240,note_on,,,,,168,0,13,,,,11,,,78,105
330432,note_on,,,,,672,0,9,,,,5,,,68,0
330480,note_on,,,,,48,0,9,,,,5,,,67,105
330552,note_on,,,,,312,0,13,,,,11,,,87,0
330552,note_on,,,,,0,0,13,,,,11,,,78,0
330552,note_on,,,,,312,0,12,,,,10,,,90,0
330672,note_on,,,,,192,0,9,,,,5,,,67,0
330720,note_on,,,,,648,0,14,,,,12,,,68,92
330720,note_on,,,,,48,0,9,,,,5,,,68,105
330720,note_on,,,,,648,0,16,,,,14,,,49,105
330720,note_on,,,,,0,0,14,,,,12,,,65,92
330720,note_on,,,,,0,0,13,,,,11,,,77,105
330720,note_on,,,,,576,0,3,,,,1,,,80,92
330720,note_on,,,,,648,0,15,,,,13,,,61,105
330720,note_on,,,,,168,0,12,,,,10,,,89,116
330720,note_on,,,,,648,0,6,,,,3,,,56,92
330720,note_on,,,,,576,0,1,,,,0,,,80,92
330720,note_on,,,,,168,0,13,,,,11,,,85,105
330720,note_on,,,,,0,0,1,,,,0,,,92,92
331032,note_on,,,,,312,0,15,,,,13,,,61,0
331032,note_on,,,,,312,0,16,,,,14,,,49,0
331032,note_on,,,,,312,0,12,,,,10,,,89,0
331032,note_on,,,,,312,0,1,,,,0,,,92,0
331032,note_on,,,,,0,0,1,,,,0,,,80,0
331032,note_on,,,,,312,0,6,,,,3,,,56,0
331032,note_on,,,,,312,0,13,,,,11,,,77,0
331032,note_on,,,,,0,0,13,,,,11,,,85,0
331032,note_on,,,,,312,0,14,,,,12,,,65,0
331032,note_on,,,,,312,0,3,,,,1,,,80,0
331032,note_on,,,,,0,0,14,,,,12,,,68,0
331104,note_on,,,,,384,0,9,,,,5,,,68,0
331200,note_on,,,,,168,0,3,,,,1,,,78,92
331200,note_on,,,,,168,0,16,,,,14,,,51,105
331200,note_on,,,,,168,0,14,,,,12,,,78,92
331200,note_on,,,,,168,0,6,,,,3,,,66,92
331200,note_on,,,,,168,0,15,,,,13,,,63,105
331200,note_on,,,,,0,0,1,,,,0,,,90,92
331200,note_on,,,,,96,0,9,,,,5,,,66,105
331200,note_on,,,,,0,0,14,,,,12,,,72,92
331200,note_on,,,,,0,0,6,,,,3,,,60,92
331200,note_on,,,,,168,0,1,,,,0,,,78,92
331512,note_on,,,,,312,0,1,,,,0,,,90,0
331512,note_on,,,,,0,0,1,,,,0,,,78,0
331512,note_on,,,,,312,0,6,,,,3,,,60,0
331512,note_on,,,,,312,0,16,,,,14,,,51,0
331512,note_on,,,,,0,0,6,,,,3,,,66,0
331512,note_on,,,,,312,0,3,,,,1,,,78,0
331512,note_on,,,,,312,0,14,,,,12,,,72,0
331512,note_on,,,,,312,0,15,,,,13,,,63,0
331512,note_on,,,,,0,0,14,,,,12,,,78,0
331584,note_on,,,,,384,0,9,,,,5,,,66,0
331680,note_on,,,,,0,0,1,,,,0,,,77,92
331680,note_on,,,,,168,0,16,,,,14,,,53,105
331680,note_on,,,,,0,0,6,,,,3,,,65,92
331680,note_on,,,,,648,0,12,,,,10,,,81,116
331680,note_on,,,,,168,0,6,,,,3,,,57,92
331680,note_on,,,,,648,0,13,,,,11,,,72,105
331680,note_on,,,,,168,0,15,,,,13,,,65,105
331680,note_on,,,,,96,0,9,,,,5,,,65,105
331680,note_on,,,,,168,0,3,,,,1,,,77,112
331680,note_on,,,,,168,0,1,,,,0,,,89,112
331680,note_on,,,,,0,0,14,,,,12,,,77,92
331680,note_on,,,,,168,0,14,,,,12,,,69,92
331680,note_on,,,,,0,0,13,,,,11,,,69,105
331992,note_on,,,,,0,0,13,,,,11,,,72,0
331992,note_on,,,,,312,0,15,,,,13,,,65,0
331992,note_on,,,,,312,0,12,,,,10,,,81,0
331992,note_on,,,,,312,0,16,,,,14,,,53,0
331992,note_on,,,,,312,0,6,,,,3,,,65,0
331992,note_on,,,,,312,0,14,,,,12,,,77,0
331992,note_on,,,,,0,0,14,,,,12,,,69,0
331992,note_on,,,,,0,0,6,,,,3,,,57,0
331992,note_on,,,,,312,0,13,,,,11,,,69,0
332064,note_on,,,,,384,0,9,,,,5,,,65,0
332160,note_on,,,,,168,0,16,,,,14,,,51,125
332160,note_on,,,,,168,0,15,,,,13,,,63,125
332316,note_on,,,,,636,0,3,,,,1,,,77,0
332316,note_on,,,,,0,0,1,,,,0,,,89,0
332316,note_on,,,,,636,0,1,,,,0,,,77,0
332400,note_on,,,,,84,0,1,,,,0,,,88,92
332400,note_on,,,,,0,0,1,,,,0,,,76,92
332400,note_on,,,,,84,0,3,,,,1,,,76,92
332520,note_on,,,,,360,0,15,,,,13,,,63,0
332520,note_on,,,,,360,0,16,,,,14,,,51,0
332556,note_on,,,,,156,0,3,,,,1,,,76,0
332556,note_on,,,,,156,0,1,,,,0,,,76,0
332556,note_on,,,,,0,0,1,,,,0,,,88,0
332640,note_on,,,,,648,0,14,,,,12,,,65,105
332640,note_on,,,,,0,0,14,,,,12,,,77,105
332640,note_on,,,,,648,0,12,,,,10,,,82,116
332640,note_on,,,,,13968,0,4,,,,2,,,77,92
332640,note_on,,,,,120,0,15,,,,13,,,61,125
332640,note_on,,,,,648,0,6,,,,3,,,65,92
332640,note_on,,,,,576,0,9,,,,5,,,65,105
332640,note_on,,,,,120,0,16,,,,14,,,49,125
332640,note_on,,,,,0,0,1,,,,0,,,77,92
332640,note_on,,,,,84,0,1,,,,0,,,89,92
332640,note_on,,,,,84,0,3,,,,1,,,77,92
332640,note_on,,,,,648,0,13,,,,11,,,70,105
332952,note_on,,,,,312,0,13,,,,11,,,70,0
332952,note_on,,,,,312,0,3,,,,1,,,77,0
332952,note_on,,,,,312,0,14,,,,12,,,77,0
332952,note_on,,,,,312,0,1,,,,0,,,77,0
332952,note_on,,,,,0,0,14,,,,12,,,65,0
332952,note_on,,,,,0,0,1,,,,0,,,89,0
333000,note_on,,,,,360,0,9,,,,5,,,65,0
333000,note_on,,,,,360,0,12,,,,10,,,82,0
333000,note_on,,,,,360,0,16,,,,14,,,49,0
333000,note_on,,,,,360,0,15,,,,13,,,61,0
333120,note_on,,,,,168,0,14,,,,12,,,63,105
333120,note_on,,,,,120,0,12,,,,10,,,84,116
333120,note_on,,,,,0,0,13,,,,11,,,69,105
333120,note_on,,,,,120,0,9,,,,5,,,63,105
333120,note_on,,,,,168,0,13,,,,11,,,72,105
333120,note_on,,,,,0,0,14,,,,12,,,75,105
333216,note_on,,,,,576,0,4,,,,2,,,77,0
333216,note_on,,,,,576,0,6,,,,3,,,65,0
333360,note_on,,,,,144,0,4,,,,2,,,78,92
333360,note_on,,,,,144,0,6,,,,3,,,66,92
333432,note_on,,,,,312,0,14,,,,12,,,75,0
333432,note_on,,,,,312,0,13,,,,11,,,69,0
333432,note_on,,,,,0,0,13,,,,11,,,72,0
333432,note_on,,,,,0,0,14,,,,12,,,63,0
333480,note_on,,,,,360,0,9,,,,5,,,63,0
333480,note_on,,,,,360,0,12,,,,10,,,84,0
333552,note_on,,,,,192,0,6,,,,3,,,66,0
333552,note_on,,,,,192,0,4,,,,2,,,78,0
333600,note_on,,,,,648,0,1,,,,0,,,82,92
333600,note_on,,,,,600,0,16,,,,14,,,46,105
333600,note_on,,,,,120,0,9,,,,5,,,61,105
333600,note_on,,,,,120,0,12,,,,10,,,85,116
333600,note_on,,,,,0,0,3,,,,1,,,82,92
333600,note_on,,,,,600,0,15,,,,13,,,58,105
333600,note_on,,,,,48,0,6,,,,3,,,65,92
333600,note_on,,,,,48,0,4,,,,2,,,77,92
333600,note_on,,,,,0,0,13,,,,11,,,70,105
333600,note_on,,,,,168,0,13,,,,11,,,73,105
333600,note_on,,,,,0,0,14,,,,12,,,61,105
333600,note_on,,,,,648,0,3,,,,1,,,70,92
333600,note_on,,,,,168,0,14,,,,12,,,73,105
333912,note_on,,,,,312,0,14,,,,12,,,61,0
333912,note_on,,,,,0,0,14,,,,12,,,73,0
333912,note_on,,,,,312,0,13,,,,11,,,70,0
333912,note_on,,,,,0,0,13,,,,11,,,73,0
333960,note_on,,,,,360,0,12,,,,10,,,85,0
333960,note_on,,,,,360,0,16,,,,14,,,46,0
333960,note_on,,,,,360,0,9,,,,5,,,61,0
333960,note_on,,,,,360,0,15,,,,13,,,58,0
333984,note_on,,,,,384,0,4,,,,2,,,77,0
333984,note_on,,,,,384,0,6,,,,3,,,65,0
334080,note_on,,,,,120,0,16,,,,14,,,56,105
334080,note_on,,,,,120,0,15,,,,13,,,68,105
334272,note_on,,,,,0,0,3,,,,1,,,70,0
334272,note_on,,,,,672,0,3,,,,1,,,82,0
334272,note_on,,,,,672,0,1,,,,0,,,82,0
334320,note_on,,,,,48,0,3,,,,1,,,69,92
334320,note_on,,,,,48,0,1,,,,0,,,81,92
334320,note_on,,,,,0,0,3,,,,1,,,81,92
334440,note_on,,,,,360,0,16,,,,14,,,56,0
334440,note_on,,,,,360,0,15,,,,13,,,68,0
334512,note_on,,,,,0,0,3,,,,1,,,69,0
334512,note_on,,,,,192,0,3,,,,1,,,81,0
334512,note_on,,,,,192,0,1,,,,0,,,81,0
334560,note_on,,,,,120,0,16,,,,14,,,54,105
334560,note_on,,,,,576,0,6,,,,3,,,58,92
334560,note_on,,,,,600,0,9,,,,5,,,58,105
334560,note_on,,,,,48,0,1,,,,0,,,82,92
334560,note_on,,,,,0,0,4,,,,2,,,70,92
334560,note_on,,,,,576,0,4,,,,2,,,82,92
334560,note_on,,,,,0,0,13,,,,11,,,70,105
334560,note_on,,,,,120,0,15,,,,13,,,66,105
334560,note_on,,,,,0,0,14,,,,12,,,58,105
334560,note_on,,,,,0,0,3,,,,1,,,82,92
334560,note_on,,,,,48,0,3,,,,1,,,70,92
334560,note_on,,,,,648,0,14,,,,12,,,70,105
334560,note_on,,,,,600,0,12,,,,10,,,87,116
334560,note_on,,,,,648,0,13,,,,11,,,75,105
334872,note_on,,,,,0,0,14,,,,12,,,70,0
334872,note_on,,,,,312,0,14,,,,12,,,58,0
334872,note_on,,,,,0,0,13,,,,11,,,75,0
334872,note_on,,,,,312,0,13,,,,11,,,70,0
334920,note_on,,,,,360,0,9,,,,5,,,58,0
334920,note_on,,,,,360,0,15,,,,13,,,66,0
334920,note_on,,,,,360,0,16,,,,14,,,54,0
334920,note_on,,,,,360,0,12,,,,10,,,87,0
334944,note_on,,,,,384,0,1,,,,0,,,82,0
334944,note_on,,,,,384,0,3,,,,1,,,82,0
334944,note_on,,,,,0,0,3,,,,1,,,70,0
335040,note_on,,,,,168,0,14,,,,12,,,68,105
335040,note_on,,,,,120,0,9,,,,5,,,68,105
335040,note_on,,,,,0,0,13,,,,11,,,77,105
335040,note_on,,,,,168,0,13,,,,11,,,74,105
335040,note_on,,,,,0,0,14,,,,12,,,80,105
335040,note_on,,,,,120,0,12,,,,10,,,89,116
335136,note_on,,,,,576,0,4,,,,2,,,70,0
335136,note_on,,,,,0,0,4,,,,2,,,82,0
335136,note_on,,,,,576,0,6,,,,3,,,58,0
335280,note_on,,,,,144,0,4,,,,2,,,84,92
335280,note_on,,,,,144,0,6,,,,3,,,60,92
335280,note_on,,,,,0,0,4,,,,2,,,72,92
335352,note_on,,,,,312,0,13,,,,11,,,77,0
335352,note_on,,,,,0,0,13,,,,11,,,74,0
335352,note_on,,,,,0,0,14,,,,12,,,68,0
335352,note_on,,,,,312,0,14,,,,12,,,80,0
335400,note_on,,,,,360,0,12,,,,10,,,89,0
335400,note_on,,,,,360,0,9,,,,5,,,68,0
335472,note_on,,,,,192,0,4,,,,2,,,72,0
335472,note_on,,,,,192,0,6,,,,3,,,60,0
335472,note_on,,,,,0,0,4,,,,2,,,84,0
335520,note_on,,,,,168,0,14,,,,12,,,66,105
335520,note_on,,,,,120,0,9,,,,5,,,66,105
335520,note_on,,,,,576,0,3,,,,1,,,75,92
335520,note_on,,,,,0,0,14,,,,12,,,78,105
335520,note_on,,,,,48,0,6,,,,3,,,58,92
335520,note_on,,,,,576,0,1,,,,0,,,75,92
335520,note_on,,,,,168,0,13,,,,11,,,75,105
335520,note_on,,,,,0,0,13,,,,11,,,78,105
335520,note_on,,,,,48,0,4,,,,2,,,70,92
335520,note_on,,,,,0,0,4,,,,2,,,82,92
335520,note_on,,,,,600,0,15,,,,13,,,63,105
335520,note_on,,,,,0,0,1,,,,0,,,87,92
335520,note_on,,,,,120,0,12,,,,10,,,90,116
335520,note_on,,,,,600,0,16,,,,14,,,51,105
335832,note_on,,,,,0,0,14,,,,12,,,66,0
335832,note_on,,,,,312,0,14,,,,12,,,78,0
335832,note_on,,,,,312,0,13,,,,11,,,78,0
335832,note_on,,,,,0,0,13,,,,11,,,75,0
335880,note_on,,,,,360,0,16,,,,14,,,51,0
335880,note_on,,,,,360,0,9,,,,5,,,66,0
335880,note_on,,,,,360,0,15,,,,13,,,63,0
335880,note_on,,,,,360,0,12,,,,10,,,90,0
335904,note_on,,,,,384,0,4,,,,2,,,82,0
335904,note_on,,,,,384,0,6,,,,3,,,58,0
335904,note_on,,,,,0,0,4,,,,2,,,70,0
336000,note_on,,,,,120,0,16,,,,14,,,49,105
336000,note_on,,,,,120,0,15,,,,13,,,61,105
336192,note_on,,,,,672,0,1,,,,0,,,87,0
336192,note_on,,,,,0,0,1,,,,0,,,75,0
336192,note_on,,,,,672,0,3,,,,1,,,75,0
336240,note_on,,,,,0,0,1,,,,0,,,86,92
336240,note_on,,,,,48,0,1,,,,0,,,74,92
336240,note_on,,,,,48,0,3,,,,1,,,74,92
336360,note_on,,,,,360,0,16,,,,14,,,49,0
336360,note_on,,,,,360,0,15,,,,13,,,61,0
336432,note_on,,,,,192,0,1,,,,0,,,86,0
336432,note_on,,,,,0,0,1,,,,0,,,74,0
336432,note_on,,,,,192,0,3,,,,1,,,74,0
336480,note_on,,,,,600,0,9,,,,5,,,63,105
336480,note_on,,,,,48,0,3,,,,1,,,75,92
336480,note_on,,,,,648,0,13,,,,11,,,68,105
336480,note_on,,,,,576,0,6,,,,3,,,63,92
336480,note_on,,,,,576,0,4,,,,2,,,75,92
336480,note_on,,,,,0,0,14,,,,12,,,75,105
336480,note_on,,,,,648,0,14,,,,12,,,63,105
336480,note_on,,,,,0,0,1,,,,0,,,87,92
336480,note_on,,,,,48,0,1,,,,0,,,75,92
336480,note_on,,,,,120,0,15,,,,13,,,60,105
336480,note_on,,,,,120,0,16,,,,14,,,48,105
336480,note_on,,,,,0,0,13,,,,11,,,63,105
336480,note_on,,,,,600,0,12,,,,10,,,80,116
336792,note_on,,,,,312,0,13,,,,11,,,63,0
336792,note_on,,,,,0,0,14,,,,12,,,63,0
336792,note_on,,,,,312,0,14,,,,12,,,75,0
336792,note_on,,,,,0,0,13,,,,11,,,68,0
336840,note_on,,,,,360,0,12,,,,10,,,80,0
336840,note_on,,,,,360,0,16,,,,14,,,48,0
336840,note_on,,,,,360,0,9,,,,5,,,63,0
336840,note_on,,,,,360,0,15,,,,13,,,60,0
336864,note_on,,,,,384,0,3,,,,1,,,75,0
336864,note_on,,,,,384,0,1,,,,0,,,87,0
336864,note_on,,,,,0,0,1,,,,0,,,75,0
336960,note_on,,,,,168,0,14,,,,12,,,61,105
336960,note_on,,,,,0,0,14,,,,12,,,73,105
336960,note_on,,,,,168,0,13,,,,11,,,70,105
336960,note_on,,,,,120,0,9,,,,5,,,61,105
336960,note_on,,,,,120,0,12,,,,10,,,82,116
336960,note_on,,,,,0,0,13,,,,11,,,67,105
337056,note_on,,,,,576,0,4,,,,2,,,75,0
337056,note_on,,,,,576,0,6,,,,3,,,63,0
337200,note_on,,,,,144,0,6,,,,3,,,64,92
337200,note_on,,,,,144,0,4,,,,2,,,76,92
337272,note_on,,,,,0,0,14,,,,12,,,61,0
337272,note_on,,,,,312,0,14,,,,12,,,73,0
337272,note_on,,,,,0,0,13,,,,11,,,70,0
337272,note_on,,,,,312,0,13,,,,11,,,67,0
337320,note_on,,,,,360,0,12,,,,10,,,82,0
337320,note_on,,,,,360,0,9,,,,5,,,61,0
337392,note_on,,,,,192,0,6,,,,3,,,64,0
337392,note_on,,,,,192,0,4,,,,2,,,76,0
337440,note_on,,,,,600,0,16,,,,14,,,44,105
337440,note_on,,,,,120,0,12,,,,10,,,84,116
337440,note_on,,,,,576,0,1,,,,0,,,80,92
337440,note_on,,,,,120,0,9,,,,5,,,60,105
337440,note_on,,,,,48,0,6,,,,3,,,63,92
337440,note_on,,,,,0,0,3,,,,1,,,80,92
337440,note_on,,,,,576,0,3,,,,1,,,68,92
337440,note_on,,,,,0,0,13,,,,11,,,72,105
337440,note_on,,,,,48,0,4,,,,2,,,75,92
337440,note_on,,,,,168,0,14,,,,12,,,60,105
337440,note_on,,,,,0,0,14,,,,12,,,72,105
337440,note_on,,,,,600,0,15,,,,13,,,56,105
337440,note_on,,,,,168,0,13,,,,11,,,68,105
337752,note_on,,,,,0,0,13,,,,11,,,68,0
337752,note_on,,,,,312,0,13,,,,11,,,72,0
337752,note_on,,,,,312,0,14,,,,12,,,72,0
337752,note_on,,,,,0,0,14,,,,12,,,60,0
337800,note_on,,,,,360,0,15,,,,13,,,56,0
337800,note_on,,,,,360,0,12,,,,10,,,84,0
337800,note_on,,,,,360,0,16,,,,14,,,44,0
337800,note_on,,,,,360,0,9,,,,5,,,60,0
337824,note_on,,,,,384,0,4,,,,2,,,75,0
337824,note_on,,,,,384,0,6,,,,3,,,63,0
337920,note_on,,,,,120,0,15,,,,13,,,66,105
337920,note_on,,,,,120,0,16,,,,14,,,54,105
338112,note_on,,,,,0,0,3,,,,1,,,68,0
338112,note_on,,,,,672,0,3,,,,1,,,80,0
338112,note_on,,,,,672,0,1,,,,0,,,80,0
338160,note_on,,,,,48,0,3,,,,1,,,79,92
338160,note_on,,,,,48,0,1,,,,0,,,79,92
338160,note_on,,,,,0,0,3,,,,1,,,67,92
338280,note_on,,,,,360,0,15,,,,13,,,66,0
338280,note_on,,,,,360,0,16,,,,14,,,54,0
338352,note_on,,,,,192,0,1,,,,0,,,79,0
338352,note_on,,,,,0,0,3,,,,1,,,79,0
338352,note_on,,,,,192,0,3,,,,1,,,67,0
338400,note_on,,,,,0,0,14,,,,12,,,68,105
338400,note_on,,,,,648,0,14,,,,12,,,56,105
338400,note_on,,,,,0,0,13,,,,11,,,73,105
338400,note_on,,,,,48,0,1,,,,0,,,80,92
338400,note_on,,,,,648,0,13,,,,11,,,68,105
338400,note_on,,,,,120,0,16,,,,14,,,53,105
338400,note_on,,,,,48,0,3,,,,1,,,80,92
338400,note_on,,,,,600,0,12,,,,10,,,85,116
338400,note_on,,,,,600,0,9,,,,5,,,61,105
338400,note_on,,,,,120,0,15,,,,13,,,65,105
338712,note_on,,,,,0,0,13,,,,11,,,68,0
338712,note_on,,,,,0,0,14,,,,12,,,56,0
338712,note_on,,,,,312,0,14,,,,12,,,68,0
338712,note_on,,,,,312,0,13,,,,11,,,73,0
338760,note_on,,,,,360,0,12,,,,10,,,85,0
338760,note_on,,,,,360,0,9,,,,5,,,61,0
338760,note_on,,,,,360,0,15,,,,13,,,65,0
338760,note_on,,,,,360,0,16,,,,14,,,53,0
338784,note_on,,,,,384,0,3,,,,1,,,80,0
338784,note_on,,,,,384,0,1,,,,0,,,80,0
338880,note_on,,,,,120,0,12,,,,10,,,87,116
338880,note_on,,,,,168,0,13,,,,11,,,72,105
338880,note_on,,,,,0,0,14,,,,12,,,78,105
338880,note_on,,,,,168,0,14,,,,12,,,66,105
338880,note_on,,,,,120,0,9,,,,5,,,66,105
338880,note_on,,,,,0,0,13,,,,11,,,75,105
339192,note_on,,,,,0,0,14,,,,12,,,66,0
339192,note_on,,,,,312,0,14,,,,12,,,78,0
339192,note_on,,,,,0,0,13,,,,11,,,72,0
339192,note_on,,,,,312,0,13,,,,11,,,75,0
339240,note_on,,,,,360,0,9,,,,5,,,66,0
339240,note_on,,,,,360,0,12,,,,10,,,87,0
339360,note_on,,,,,600,0,16,,,,14,,,41,105
339360,note_on,,,,,576,0,1,,,,0,,,89,105
339360,note_on,,,,,1536,0,4,,,,2,,,65,105
339360,note_on,,,,,1536,0,6,,,,3,,,65,105
339360,note_on,,,,,0,0,6,,,,3,,,53,105
339360,note_on,,,,,576,0,3,,,,1,,,77,105
339360,note_on,,,,,600,0,15,,,,13,,,53,105
339360,note_on,,,,,120,0,12,,,,10,,,89,116
339360,note_on,,,,,120,0,9,,,,5,,,65,105
339360,note_on,,,,,0,0,4,,,,2,,,77,105
339360,note_on,,,,,168,0,13,,,,11,,,77,105
339360,note_on,,,,,0,0,13,,,,11,,,73,105
339360,note_on,,,,,0,0,14,,,,12,,,77,105
339360,note_on,,,,,168,0,14,,,,12,,,65,105
339672,note_on,,,,,0,0,14,,,,12,,,65,0
339672,note_on,,,,,312,0,14,,,,12,,,77,0
339672,note_on,,,,,312,0,13,,,,11,,,73,0
339672,note_on,,,,,0,0,13,,,,11,,,77,0
339720,note_on,,,,,0,0,4,,,,2,,,65,0
339720,note_on,,,,,360,0,3,,,,1,,,77,0
339720,note_on,,,,,360,0,4,,,,2,,,77,0
339720,note_on,,,,,360,0,1,,,,0,,,89,0
339720,note_on,,,,,360,0,12,,,,10,,,89,0
339720,note_on,,,,,0,0,6,,,,3,,,65,0
339720,note_on,,,,,360,0,15,,,,13,,,53,0
339720,note_on,,,,,360,0,6,,,,3,,,53,0
339720,note_on,,,,,360,0,9,,,,5,,,65,0
339720,note_on,,,,,360,0,16,,,,14,,,41,0
339840,note_on,,,,,120,0,6,,,,3,,,57,105
339840,note_on,,,,,120,0,9,,,,5,,,65,105
339840,note_on,,,,,0,0,6,,,,3,,,60,105
339840,note_on,,,,,120,0,16,,,,14,,,51,105
339840,note_on,,,,,120,0,4,,,,2,,,69,105
339840,note_on,,,,,120,0,3,,,,1,,,69,105
339840,note_on,,,,,120,0,15,,,,13,,,63,105
339840,note_on,,,,,0,0,3,,,,1,,,81,105
339840,note_on,,,,,120,0,1,,,,0,,,81,105
340200,note_on,,,,,360,0,3,,,,1,,,81,0
340200,note_on,,,,,0,0,3,,,,1,,,69,0
340200,note_on,,,,,360,0,9,,,,5,,,65,0
340200,note_on,,,,,360,0,4,,,,2,,,69,0
340200,note_on,,,,,360,0,15,,,,13,,,63,0
340200,note_on,,,,,360,0,1,,,,0,,,81,0
340200,note_on,,,,,360,0,16,,,,14,,,51,0
340224,note_on,,,,,384,0,6,,,,3,,,60,0
340224,note_on,,,,,0,0,6,,,,3,,,57,0
340320,note_on,,,,,120,0,1,,,,0,,,82,105
340320,note_on,,,,,120,0,9,,,,5,,,65,105
340320,note_on,,,,,648,0,13,,,,11,,,65,105
340320,note_on,,,,,0,0,6,,,,3,,,61,105
340320,note_on,,,,,96,0,6,,,,3,,,58,105
340320,note_on,,,,,0,0,13,,,,11,,,70,105
340320,note_on,,,,,0,0,14,,,,12,,,53,105
340320,note_on,,,,,648,0,14,,,,12,,,65,105
340320,note_on,,,,,120,0,3,,,,1,,,82,105
340320,note_on,,,,,120,0,16,,,,14,,,49,105
340320,note_on,,,,,0,0,3,,,,1,,,70,105
340320,note_on,,,,,120,0,15,,,,13,,,61,105
340320,note_on,,,,,600,0,12,,,,10,,,82,116
340320,note_on,,,,,120,0,4,,,,2,,,70,105
340632,note_on,,,,,312,0,14,,,,12,,,53,0
340632,note_on,,,,,0,0,13,,,,11,,,65,0
340632,note_on,,,,,312,0,13,,,,11,,,70,0
340632,note_on,,,,,0,0,14,,,,12,,,65,0
340680,note_on,,,,,360,0,4,,,,2,,,70,0
340680,note_on,,,,,360,0,3,,,,1,,,70,0
340680,note_on,,,,,0,0,3,,,,1,,,82,0
340680,note_on,,,,,360,0,1,,,,0,,,82,0
340680,note_on,,,,,360,0,12,,,,10,,,82,0
340680,note_on,,,,,360,0,15,,,,13,,,61,0
340680,note_on,,,,,360,0,16,,,,14,,,49,0
340680,note_on,,,,,360,0,9,,,,5,,,65,0
340704,note_on,,,,,0,0,6,,,,3,,,58,0
340704,note_on,,,,,384,0,6,,,,3,,,61,0
340800,note_on,,,,,168,0,14,,,,12,,,63,105
340800,note_on,,,,,0,0,13,,,,11,,,72,105
340800,note_on,,,,,168,0,13,,,,11,,,69,105
340800,note_on,,,,,0,0,14,,,,12,,,75,105
340800,note_on,,,,,120,0,12,,,,10,,,84,116
341112,note_on,,,,,312,0,13,,,,11,,,72,0
341112,note_on,,,,,0,0,13,,,,11,,,69,0
341112,note_on,,,,,312,0,14,,,,12,,,75,0
341112,note_on,,,,,0,0,14,,,,12,,,63,0
341160,note_on,,,,,360,0,12,,,,10,,,84,0
341280,note_on,,,,,168,0,13,,,,11,,,70,105
341280,note_on,,,,,600,0,15,,,,13,,,49,105
341280,note_on,,,,,0,0,6,,,,3,,,49,105
341280,note_on,,,,,576,0,6,,,,3,,,61,105
341280,note_on,,,,,0,0,13,,,,11,,,73,105
341280,note_on,,,,,600,0,16,,,,14,,,37,105
341280,note_on,,,,,600,0,9,,,,5,,,61,105
341280,note_on,,,,,600,0,4,,,,2,,,73,105
341280,note_on,,,,,120,0,12,,,,10,,,85,116
341280,note_on,,,,,0,0,14,,,,12,,,73,105
341280,note_on,,,,,168,0,14,,,,12,,,61,105
341280,note_on,,,,,600,0,1,,,,0,,,85,105
341280,note_on,,,,,600,0,3,,,,1,,,85,105
341280,note_on,,,,,0,0,3,,,,1,,,73,105
341592,note_on,,,,,312,0,13,,,,11,,,73,0
341592,note_on,,,,,0,0,14,,,,12,,,61,0
341592,note_on,,,,,312,0,14,,,,12,,,73,0
341592,note_on,,,,,0,0,13,,,,11,,,70,0
341640,note_on,,,,,360,0,3,,,,1,,,73,0
341640,note_on,,,,,0,0,3,,,,1,,,85,0
341640,note_on,,,,,360,0,16,,,,14,,,37,0
341640,note_on,,,,,360,0,1,,,,0,,,85,0
341640,note_on,,,,,0,0,6,,,,3,,,61,0
341640,note_on,,,,,360,0,12,,,,10,,,85,0
341640,note_on,,,,,360,0,15,,,,13,,,49,0
341640,note_on,,,,,360,0,4,,,,2,,,73,0
341640,note_on,,,,,360,0,6,,,,3,,,49,0
341664,note_on,,,,,384,0,9,,,,5,,,61,0
341760,note_on,,,,,0,0,4,,,,2,,,77,105
341760,note_on,,,,,96,0,9,,,,5,,,61,105
341760,note_on,,,,,120,0,4,,,,2,,,65,105
341760,note_on,,,,,120,0,1,,,,0,,,77,105
341760,note_on,,,,,120,0,3,,,,1,,,77,105
341760,note_on,,,,,120,0,6,,,,3,,,53,105
341760,note_on,,,,,0,0,6,,,,3,,,56,105
341760,note_on,,,,,120,0,15,,,,13,,,59,105
341760,note_on,,,,,120,0,16,,,,14,,,47,105
342120,note_on,,,,,360,0,1,,,,0,,,77,0
342120,note_on,,,,,0,0,4,,,,2,,,65,0
342120,note_on,,,,,360,0,4,,,,2,,,77,0
342120,note_on,,,,,360,0,3,,,,1,,,77,0
342120,note_on,,,,,360,0,16,,,,14,,,47,0
342120,note_on,,,,,0,0,6,,,,3,,,53,0
342120,note_on,,,,,360,0,6,,,,3,,,56,0
342120,note_on,,,,,360,0,15,,,,13,,,59,0
342144,note_on,,,,,384,0,9,,,,5,,,61,0
342240,note_on,,,,,120,0,16,,,,14,,,46,105
342240,note_on,,,,,120,0,3,,,,1,,,78,105
342240,note_on,,,,,96,0,9,,,,5,,,61,105
342240,note_on,,,,,120,0,1,,,,0,,,78,105
342240,note_on,,,,,0,0,4,,,,2,,,78,105
342240,note_on,,,,,648,0,13,,,,11,,,66,105
342240,note_on,,,,,120,0,4,,,,2,,,66,105
342240,note_on,,,,,600,0,12,,,,10,,,78,116
342240,note_on,,,,,0,0,6,,,,3,,,58,105
342240,note_on,,,,,0,0,14,,,,12,,,61,105
342240,note_on,,,,,648,0,14,,,,12,,,49,105
342240,note_on,,,,,120,0,15,,,,13,,,58,105
342240,note_on,,,,,0,0,13,,,,11,,,61,105
342240,note_on,,,,,120,0,6,,,,3,,,54,105
342552,note_on,,,,,0,0,13,,,,11,,,66,0
342552,note_on,,,,,312,0,13,,,,11,,,61,0
342552,note_on,,,,,312,0,14,,,,12,,,61,0
342552,note_on,,,,,0,0,14,,,,12,,,49,0
342600,note_on,,,,,360,0,1,,,,0,,,78,0
342600,note_on,,,,,0,0,4,,,,2,,,66,0
342600,note_on,,,,,360,0,16,,,,14,,,46,0
342600,note_on,,,,,360,0,15,,,,13,,,58,0
342600,note_on,,,,,360,0,3,,,,1,,,78,0
342600,note_on,,,,,0,0,6,,,,3,,,54,0
342600,note_on,,,,,360,0,6,,,,3,,,58,0
342600,note_on,,,,,360,0,4,,,,2,,,78,0
342600,note_on,,,,,360,0,12,,,,10,,,78,0
342624,note_on,,,,,384,0,9,,,,5,,,61,0
342720,note_on,,,,,168,0,13,,,,11,,,65,105
342720,note_on,,,,,120,0,12,,,,10,,,80,116
342720,note_on,,,,,0,0,13,,,,11,,,68,105
342720,note_on,,,,,0,0,14,,,,12,,,59,105
342720,note_on,,,,,168,0,14,,,,12,,,71,105
343032,note_on,,,,,0,0,13,,,,11,,,65,0
343032,note_on,,,,,0,0,14,,,,12,,,71,0
343032,note_on,,,,,312,0,14,,,,12,,,59,0
343032,note_on,,,,,312,0,13,,,,11,,,68,0
343080,note_on,,,,,360,0,12,,,,10,,,80,0
343200,note_on,,,,,0,0,13,,,,11,,,70,105
343200,note_on,,,,,168,0,13,,,,11,,,66,105
343200,note_on,,,,,600,0,16,,,,14,,,46,116
343200,note_on,,,,,120,0,12,,,,10,,,82,124
343200,note_on,,,,,600,0,15,,,,13,,,58,116
343200,note_on,,,,,168,0,14,,,,12,,,70,105
343200,note_on,,,,,0,0,14,,,,12,,,58,105
343512,note_on,,,,,0,0,13,,,,11,,,66,0
343512,note_on,,,,,312,0,13,,,,11,,,70,0
343512,note_on,,,,,0,0,14,,,,12,,,70,0
343512,note_on,,,,,312,0,14,,,,12,,,58,0
343560,note_on,,,,,360,0,15,,,,13,,,58,0
343560,note_on,,,,,360,0,16,,,,14,,,46,0
343560,note_on,,,,,360,0,12,,,,10,,,82,0
343680,note_on,,,,,0,0,13,,,,11,,,77,105
343680,note_on,,,,,120,0,15,,,,13,,,50,116
343680,note_on,,,,,168,0,13,,,,11,,,70,105
343680,note_on,,,,,0,0,13,,,,11,,,80,105
343680,note_on,,,,,120,0,16,,,,14,,,38,116
343680,note_on,,,,,168,0,14,,,,12,,,58,105
343680,note_on,,,,,120,0,12,,,,10,,,92,124
343680,note_on,,,,,0,0,14,,,,12,,,65,105
343992,note_on,,,,,312,0,14,,,,12,,,65,0
343992,note_on,,,,,0,0,13,,,,11,,,70,0
343992,note_on,,,,,0,0,13,,,,11,,,77,0
343992,note_on,,,,,312,0,13,,,,11,,,80,0
343992,note_on,,,,,0,0,14,,,,12,,,58,0
344040,note_on,,,,,360,0,15,,,,13,,,50,0
344040,note_on,,,,,360,0,16,,,,14,,,38,0
344040,note_on,,,,,360,0,12,,,,10,,,92,0
344160,note_on,,,,,0,0,13,,,,11,,,78,105
344160,note_on,,,,,0,0,13,,,,11,,,75,105
344160,note_on,,,,,0,0,1,,,,0,,,94,105
344160,note_on,,,,,120,0,16,,,,14,,,39,116
344160,note_on,,,,,0,0,4,,,,2,,,70,105
344160,note_on,,,,,0,0,3,,,,1,,,82,105
344160,note_on,,,,,1560,0,3,,,,1,,,70,105
344160,note_on,,,,,1536,0,9,,,,5,,,58,105
344160,note_on,,,,,1560,0,6,,,,3,,,58,105
344160,note_on,,,,,168,0,13,,,,11,,,70,105
344160,note_on,,,,,1560,0,1,,,,0,,,82,105
344160,note_on,,,,,1560,0,4,,,,2,,,82,105
344160,note_on,,,,,120,0,15,,,,13,,,51,116
344160,note_on,,,,,168,0,14,,,,12,,,66,105
344160,note_on,,,,,0,0,14,,,,12,,,58,105
344160,note_on,,,,,120,0,12,,,,10,,,90,124
344472,note_on,,,,,0,0,1,,,,0,,,82,0
344472,note_on,,,,,0,0,13,,,,11,,,75,0
344472,note_on,,,,,0,0,13,,,,11,,,70,0
344472,note_on,,,,,312,0,14,,,,12,,,58,0
344472,note_on,,,,,0,0,14,,,,12,,,66,0
344472,note_on,,,,,312,0,1,,,,0,,,94,0
344472,note_on,,,,,0,0,3,,,,1,,,70,0
344472,note_on,,,,,312,0,4,,,,2,,,70,0
344472,note_on,,,,,0,0,4,,,,2,,,82,0
344472,note_on,,,,,312,0,3,,,,1,,,82,0
344472,note_on,,,,,312,0,13,,,,11,,,78,0
344520,note_on,,,,,360,0,16,,,,14,,,39,0
344520,note_on,,,,,360,0,15,,,,13,,,51,0
344520,note_on,,,,,360,0,12,,,,10,,,90,0
344520,note_on,,,,,360,0,9,,,,5,,,58,0
344544,note_on,,,,,384,0,6,,,,3,,,58,0
344640,note_on,,,,,168,0,4,,,,2,,,74,105
344640,note_on,,,,,168,0,3,,,,1,,,70,105
344640,note_on,,,,,0,0,3,,,,1,,,74,105
344640,note_on,,,,,120,0,9,,,,5,,,68,105
344640,note_on,,,,,168,0,1,,,,0,,,86,105
344640,note_on,,,,,96,0,6,,,,3,,,68,105
344640,note_on,,,,,0,0,1,,,,0,,,82,105
344640,note_on,,,,,0,0,6,,,,3,,,65,105
344640,note_on,,,,,0,0,4,,,,2,,,70,105
344952,note_on,,,,,312,0,4,,,,2,,,70,0
344952,note_on,,,,,0,0,4,,,,2,,,74,0
344952,note_on,,,,,312,0,3,,,,1,,,74,0
344952,note_on,,,,,312,0,1,,,,0,,,82,0
344952,note_on,,,,,0,0,1,,,,0,,,86,0
344952,note_on,,,,,0,0,3,,,,1,,,70,0
345000,note_on,,,,,360,0,9,,,,5,,,68,0
345024,note_on,,,,,384,0,6,,,,3,,,65,0
345024,note_on,,,,,0,0,6,,,,3,,,68,0
345120,note_on,,,,,648,0,14,,,,12,,,70,105
345120,note_on,,,,,600,0,16,,,,14,,,42,116
345120,note_on,,,,,600,0,15,,,,13,,,54,116
345120,note_on,,,,,0,0,1,,,,0,,,87,105
345120,note_on,,,,,168,0,1,,,,0,,,82,105
345120,note_on,,,,,168,0,3,,,,1,,,75,105
345120,note_on,,,,,0,0,4,,,,2,,,75,105
345120,note_on,,,,,168,0,4,,,,2,,,70,105
345120,note_on,,,,,120,0,9,,,,5,,,66,105
345120,note_on,,,,,96,0,6,,,,3,,,63,105
345120,note_on,,,,,0,0,14,,,,12,,,58,105
345120,note_on,,,,,648,0,13,,,,11,,,66,105
345120,note_on,,,,,600,0,12,,,,10,,,78,124
345120,note_on,,,,,0,0,13,,,,11,,,75,105
345120,note_on,,,,,0,0,3,,,,1,,,70,105
345120,note_on,,,,,0,0,6,,,,3,,,66,105
345432,note_on,,,,,312,0,13,,,,11,,,75,0
345432,note_on,,,,,0,0,3,,,,1,,,75,0
345432,note_on,,,,,312,0,3,,,,1,,,70,0
345432,note_on,,,,,0,0,14,,,,12,,,70,0
345432,note_on,,,,,312,0,14,,,,12,,,58,0
345432,note_on,,,,,0,0,13,,,,11,,,66,0
345432,note_on,,,,,0,0,4,,,,2,,,70,0
345432,note_on,,,,,0,0,1,,,,0,,,82,0
345432,note_on,,,,,312,0,4,,,,2,,,75,0
345432,note_on,,,,,312,0,1,,,,0,,,87,0
345480,note_on,,,,,360,0,16,,,,14,,,42,0
345480,note_on,,,,,360,0,15,,,,13,,,54,0
345480,note_on,,,,,360,0,9,,,,5,,,66,0
345480,note_on,,,,,360,0,12,,,,10,,,78,0
345504,note_on,,,,,384,0,6,,,,3,,,66,0
345504,note_on,,,,,0,0,6,,,,3,,,63,0
345600,note_on,,,,,120,0,15,,,,13,,,46,116
345600,note_on,,,,,120,0,16,,,,14,,,34,116
345600,note_on,,,,,0,0,13,,,,11,,,66,105
345600,note_on,,,,,0,0,13,,,,11,,,76,105
345600,note_on,,,,,168,0,13,,,,11,,,73,105
345600,note_on,,,,,120,0,12,,,,10,,,88,124
345600,note_on,,,,,0,0,14,,,,12,,,73,105
345600,note_on,,,,,168,0,14,,,,12,,,66,105
345912,note_on,,,,,0,0,13,,,,11,,,73,0
345912,note_on,,,,,312,0,14,,,,12,,,73,0
345912,note_on,,,,,312,0,13,,,,11,,,66,0
345912,note_on,,,,,0,0,13,,,,11,,,76,0
345912,note_on,,,,,0,0,14,,,,12,,,66,0
345960,note_on,,,,,360,0,15,,,,13,,,46,0
345960,note_on,,,,,360,0,12,,,,10,,,88,0
345960,note_on,,,,,360,0,16,,,,14,,,34,0
346080,note_on,,,,,59616,0,8,,,,4,,,66,105
346080,note_on,,,,,600,0,9,,,,5,,,54,105
346080,note_on,,,,,0,0,6,,,,3,,,66,105
346080,note_on,,,,,0,0,13,,,,11,,,71,105
346080,note_on,,,,,0,0,4,,,,2,,,66,105
346080,note_on,,,,,120,0,12,,,,10,,,87,124
346080,note_on,,,,,168,0,13,,,,11,,,66,105
346080,note_on,,,,,576,0,6,,,,3,,,54,105
346080,note_on,,,,,84576,0,10,,,,6,,,78,105
346080,note_on,,,,,0,0,13,,,,11,,,75,105
346080,note_on,,,,,120,0,16,,,,14,,,35,116
346080,note_on,,,,,648,0,4,,,,2,,,78,105
346080,note_on,,,,,168,0,14,,,,12,,,75,105
346080,note_on,,,,,0,0,1,,,,0,,,78,105
346080,note_on,,,,,120,0,15,,,,13,,,47,116
346080,note_on,,,,,648,0,3,,,,1,,,78,105
346080,note_on,,,,,648,0,1,,,,0,,,90,105
346080,note_on,,,,,0,0,3,,,,1,,,66,105
346080,note_on,,,,,0,0,14,,,,12,,,66,105
346392,note_on,,,,,0,0,4,,,,2,,,78,0
346392,note_on,,,,,0,0,1,,,,0,,,90,0
346392,note_on,,,,,312,0,1,,,,0,,,78,0
346392,note_on,,,,,312,0,3,,,,1,,,66,0
346392,note_on,,,,,0,0,3,,,,1,,,78,0
346392,note_on,,,,,0,0,14,,,,12,,,75,0
346392,note_on,,,,,312,0,14,,,,12,,,66,0
346392,note_on,,,,,312,0,13,,,,11,,,71,0
346392,note_on,,,,,0,0,13,,,,11,,,75,0
346392,note_on,,,,,0,0,13,,,,11,,,66,0
346392,note_on,,,,,312,0,4,,,,2,,,66,0
346440,note_on,,,,,360,0,8,,,,4,,,66,0
346440,note_on,,,,,360,0,9,,,,5,,,54,0
346440,note_on,,,,,360,0,16,,,,14,,,35,0
346440,note_on,,,,,360,0,10,,,,6,,,78,0
346440,note_on,,,,,360,0,12,,,,10,,,87,0
346440,note_on,,,,,360,0,15,,,,13,,,47,0
346464,note_on,,,,,384,0,6,,,,3,,,66,0
346464,note_on,,,,,0,0,6,,,,3,,,54,0
346560,note_on,,,,,96,0,6,,,,3,,,61,105
346560,note_on,,,,,0,0,6,,,,3,,,64,105
346560,note_on,,,,,168,0,4,,,,2,,,70,105
346560,note_on,,,,,120,0,10,,,,6,,,78,105
346560,note_on,,,,,168,0,1,,,,0,,,78,105
346560,note_on,,,,,168,0,3,,,,1,,,70,105
346560,note_on,,,,,0,0,1,,,,0,,,82,105
346560,note_on,,,,,120,0,9,,,,5,,,64,105
346560,note_on,,,,,120,0,8,,,,4,,,66,105
346872,note_on,,,,,312,0,4,,,,2,,,70,0
346872,note_on,,,,,312,0,3,,,,1,,,70,0
346872,note_on,,,,,312,0,1,,,,0,,,82,0
346872,note_on,,,,,0,0,1,,,,0,,,78,0
346920,note_on,,,,,360,0,10,,,,6,,,78,0
346920,note_on,,,,,360,0,8,,,,4,,,66,0
346920,note_on,,,,,360,0,9,,,,5,,,64,0
346944,note_on,,,,,0,0,6,,,,3,,,61,0
346944,note_on,,,,,384,0,6,,,,3,,,64,0
347040,note_on,,,,,168,0,3,,,,1,,,71,105
347040,note_on,,,,,120,0,10,,,,6,,,78,105
347040,note_on,,,,,0,0,6,,,,3,,,63,105
347040,note_on,,,,,96,0,6,,,,3,,,59,105
347040,note_on,,,,,600,0,15,,,,13,,,54,116
347040,note_on,,,,,168,0,4,,,,2,,,71,105
347040,note_on,,,,,120,0,8,,,,4,,,66,105
347040,note_on,,,,,0,0,13,,,,11,,,66,105
347040,note_on,,,,,120,0,9,,,,5,,,63,105
347040,note_on,,,,,648,0,13,,,,11,,,75,105
347040,note_on,,,,,600,0,16,,,,14,,,42,116
347040,note_on,,,,,0,0,14,,,,12,,,66,105
347040,note_on,,,,,168,0,1,,,,0,,,78,105
347040,note_on,,,,,0,0,1,,,,0,,,83,105
347040,note_on,,,,,600,0,12,,,,10,,,78,124
347040,note_on,,,,,648,0,14,,,,12,,,75,105
347352,note_on,,,,,0,0,13,,,,11,,,75,0
347352,note_on,,,,,0,0,14,,,,12,,,75,0
347352,note_on,,,,,312,0,3,,,,1,,,71,0
347352,note_on,,,,,312,0,14,,,,12,,,66,0
347352,note_on,,,,,0,0,1,,,,0,,,78,0
347352,note_on,,,,,312,0,1,,,,0,,,83,0
347352,note_on,,,,,312,0,13,,,,11,,,66,0
347352,note_on,,,,,312,0,4,,,,2,,,71,0
347400,note_on,,,,,360,0,16,,,,14,,,42,0
347400,note_on,,,,,360,0,15,,,,13,,,54,0
347400,note_on,,,,,360,0,9,,,,5,,,63,0
347400,note_on,,,,,360,0,10,,,,6,,,78,0
347400,note_on,,,,,360,0,12,,,,10,,,78,0
347400,note_on,,,,,360,0,8,,,,4,,,66,0
347424,note_on,,,,,384,0,6,,,,3,,,63,0
347424,note_on,,,,,0,0,6,,,,3,,,59,0
347520,note_on,,,,,0,0,14,,,,12,,,66,105
347520,note_on,,,,,168,0,14,,,,12,,,73,105
347520,note_on,,,,,120,0,12,,,,10,,,88,124
347520,note_on,,,,,168,0,13,,,,11,,,73,105
347520,note_on,,,,,120,0,16,,,,14,,,34,116
347520,note_on,,,,,0,0,13,,,,11,,,66,105
347520,note_on,,,,,0,0,13,,,,11,,,76,105
347520,note_on,,,,,120,0,15,,,,13,,,46,116
347832,note_on,,,,,312,0,13,,,,11,,,76,0
347832,note_on,,,,,312,0,14,,,,12,,,66,0
347832,note_on,,,,,0,0,13,,,,11,,,66,0
347832,note_on,,,,,0,0,13,,,,11,,,73,0
347832,note_on,,,,,0,0,14,,,,12,,,73,0
347880,note_on,,,,,360,0,15,,,,13,,,46,0
347880,note_on,,,,,360,0,12,,,,10,,,88,0
347880,note_on,,,,,360,0,16,,,,14,,,34,0
348000,note_on,,,,,0,0,13,,,,11,,,71,105
348000,note_on,,,,,600,0,9,,,,5,,,54,105
348000,note_on,,,,,600,0,8,,,,4,,,66,105
348000,note_on,,,,,0,0,3,,,,1,,,66,105
348000,note_on,,,,,648,0,3,,,,1,,,78,105
348000,note_on,,,,,0,0,13,,,,11,,,66,105
348000,note_on,,,,,168,0,13,,,,11,,,74,105
348000,note_on,,,,,0,0,14,,,,12,,,74,105
348000,note_on,,,,,168,0,14,,,,12,,,66,105
348000,note_on,,,,,0,0,6,,,,3,,,66,105
348000,note_on,,,,,120,0,16,,,,14,,,35,116
348000,note_on,,,,,648,0,1,,,,0,,,90,105
348000,note_on,,,,,600,0,10,,,,6,,,78,105
348000,note_on,,,,,648,0,4,,,,2,,,78,105
348000,note_on,,,,,0,0,1,,,,0,,,78,105
348000,note_on,,,,,576,0,6,,,,3,,,54,105
348000,note_on,,,,,120,0,12,,,,10,,,86,124
348000,note_on,,,,,120,0,15,,,,13,,,47,116
348000,note_on,,,,,0,0,4,,,,2,,,66,105
348312,note_on,,,,,312,0,14,,,,12,,,74,0
348312,note_on,,,,,0,0,14,,,,12,,,66,0
348312,note_on,,,,,0,0,13,,,,11,,,74,0
348312,note_on,,,,,0,0,4,,,,2,,,78,0
348312,note_on,,,,,312,0,4,,,,2,,,66,0
348312,note_on,,,,,312,0,1,,,,0,,,78,0
348312,note_on,,,,,0,0,1,,,,0,,,90,0
348312,note_on,,,,,0,0,3,,,,1,,,78,0
348312,note_on,,,,,312,0,13,,,,11,,,71,0
348312,note_on,,,,,0,0,13,,,,11,,,66,0
348312,note_on,,,,,312,0,3,,,,1,,,66,0
348360,note_on,,,,,360,0,16,,,,14,,,35,0
348360,note_on,,,,,360,0,8,,,,4,,,66,0
348360,note_on,,,,,360,0,15,,,,13,,,47,0
348360,note_on,,,,,360,0,10,,,,6,,,78,0
348360,note_on,,,,,360,0,9,,,,5,,,54,0
348360,note_on,,,,,360,0,12,,,,10,,,86,0
348384,note_on,,,,,0,0,6,,,,3,,,54,0
348384,note_on,,,,,384,0,6,,,,3,,,66,0
348480,note_on,,,,,168,0,3,,,,1,,,70,105
348480,note_on,,,,,168,0,4,,,,2,,,70,105
348480,note_on,,,,,0,0,1,,,,0,,,82,105
348480,note_on,,,,,168,0,1,,,,0,,,78,105
348480,note_on,,,,,120,0,10,,,,6,,,78,105
348480,note_on,,,,,0,0,6,,,,3,,,61,105
348480,note_on,,,,,120,0,8,,,,4,,,66,105
348480,note_on,,,,,96,0,6,,,,3,,,64,105
348480,note_on,,,,,120,0,9,,,,5,,,64,105
348792,note_on,,,,,312,0,1,,,,0,,,82,0
348792,note_on,,,,,312,0,3,,,,1,,,70,0
348792,note_on,,,,,312,0,4,,,,2,,,70,0
348792,note_on,,,,,0,0,1,,,,0,,,78,0
348840,note_on,,,,,360,0,9,,,,5,,,64,0
348840,note_on,,,,,360,0,8,,,,4,,,66,0
348840,note_on,,,,,360,0,10,,,,6,,,78,0
348864,note_on,,,,,384,0,6,,,,3,,,61,0
348864,note_on,,,,,0,0,6,,,,3,,,64,0
348960,note_on,,,,,600,0,16,,,,14,,,54,116
348960,note_on,,,,,168,0,3,,,,1,,,71,105
348960,note_on,,,,,168,0,4,,,,2,,,71,105
348960,note_on,,,,,600,0,12,,,,10,,,78,124
348960,note_on,,,,,600,0,15,,,,13,,,66,116
348960,note_on,,,,,96,0,6,,,,3,,,59,105
348960,note_on,,,,,0,0,6,,,,3,,,62,105
348960,note_on,,,,,120,0,9,,,,5,,,62,105
348960,note_on,,,,,0,0,13,,,,11,,,74,105
348960,note_on,,,,,168,0,1,,,,0,,,83,105
348960,note_on,,,,,0,0,1,,,,0,,,78,105
348960,note_on,,,,,648,0,13,,,,11,,,66,105
348960,note_on,,,,,120,0,8,,,,4,,,66,105
348960,note_on,,,,,120,0,10,,,,6,,,78,105
348960,note_on,,,,,0,0,14,,,,12,,,74,105
348960,note_on,,,,,648,0,14,,,,12,,,66,105
349272,note_on,,,,,0,0,14,,,,12,,,66,0
349272,note_on,,,,,0,0,1,,,,0,,,83,0
349272,note_on,,,,,312,0,4,,,,2,,,71,0
349272,note_on,,,,,312,0,3,,,,1,,,71,0
349272,note_on,,,,,312,0,1,,,,0,,,78,0
349272,note_on,,,,,312,0,13,,,,11,,,74,0
349272,note_on,,,,,0,0,13,,,,11,,,66,0
349272,note_on,,,,,312,0,14,,,,12,,,74,0
349320,note_on,,,,,360,0,16,,,,14,,,54,0
349320,note_on,,,,,360,0,10,,,,6,,,78,0
349320,note_on,,,,,360,0,15,,,,13,,,66,0
349320,note_on,,,,,360,0,8,,,,4,,,66,0
349320,note_on,,,,,360,0,12,,,,10,,,78,0
349320,note_on,,,,,360,0,9,,,,5,,,62,0
349344,note_on,,,,,0,0,6,,,,3,,,59,0
349344,note_on,,,,,384,0,6,,,,3,,,62,0
349440,note_on,,,,,120,0,9,,,,5,,,64,105
349440,note_on,,,,,120,0,15,,,,13,,,54,116
349440,note_on,,,,,168,0,4,,,,2,,,73,105
349440,note_on,,,,,0,0,4,,,,2,,,76,105
349440,note_on,,,,,168,0,14,,,,12,,,66,105
349440,note_on,,,,,0,0,14,,,,12,,,70,105
349440,note_on,,,,,168,0,13,,,,11,,,73,105
349440,note_on,,,,,120,0,16,,,,14,,,42,116
349440,set_tempo,,,,,24960,1,0,454545,,,,,,,
349440,note_on,,,,,0,0,13,,,,11,,,76,105
349440,note_on,,,,,120,0,12,,,,10,,,88,124
349752,note_on,,,,,312,0,14,,,,12,,,70,0
349752,note_on,,,,,0,0,14,,,,12,,,66,0
349752,note_on,,,,,0,0,13,,,,11,,,73,0
349752,note_on,,,,,312,0,13,,,,11,,,76,0
349800,note_on,,,,,360,0,9,,,,5,,,64,0
349800,note_on,,,,,360,0,12,,,,10,,,88,0
349800,note_on,,,,,360,0,15,,,,13,,,54,0
349800,note_on,,,,,360,0,16,,,,14,,,42,0
349824,note_on,,,,,384,0,4,,,,2,,,76,0
349824,note_on,,,,,0,0,4,,,,2,,,73,0
349920,note_on,,,,,120,0,16,,,,14,,,43,116
349920,note_on,,,,,0,0,6,,,,3,,,55,105
349920,note_on,,,,,576,0,6,,,,3,,,43,105
349920,note_on,,,,,0,0,4,,,,2,,,74,105
349920,note_on,,,,,96,0,4,,,,2,,,71,105
349920,note_on,,,,,0,0,13,,,,11,,,74,105
349920,note_on,,,,,168,0,14,,,,12,,,62,105
349920,note_on,,,,,168,0,13,,,,11,,,71,105
349920,note_on,,,,,648,0,1,,,,0,,,86,105
349920,note_on,,,,,0,0,3,,,,1,,,83,105
349920,note_on,,,,,120,0,15,,,,13,,,55,116
349920,note_on,,,,,648,0,3,,,,1,,,74,105
349920,note_on,,,,,0,0,14,,,,12,,,71,105
349920,set_tempo,,,,,480,1,0,472441,,,,,,,
349920,note_on,,,,,120,0,9,,,,5,,,62,105
349920,note_on,,,,,120,0,12,,,,10,,,86,124
349920,note_on,,,,,600,0,8,,,,4,,,59,105
349920,note_on,,,,,600,0,10,,,,6,,,71,105
349920,note_on,,,,,0,0,1,,,,0,,,83,105
350232,note_on,,,,,0,0,3,,,,1,,,74,0
350232,note_on,,,,,312,0,14,,,,12,,,71,0
350232,note_on,,,,,0,0,14,,,,12,,,62,0
350232,note_on,,,,,312,0,13,,,,11,,,74,0
350232,note_on,,,,,0,0,13,,,,11,,,71,0
350232,note_on,,,,,312,0,1,,,,0,,,83,0
350232,note_on,,,,,0,0,1,,,,0,,,86,0
350232,note_on,,,,,312,0,3,,,,1,,,83,0
350280,note_on,,,,,360,0,12,,,,10,,,86,0
350280,note_on,,,,,360,0,16,,,,14,,,43,0
350280,note_on,,,,,360,0,8,,,,4,,,59,0
350280,note_on,,,,,360,0,15,,,,13,,,55,0
350280,note_on,,,,,360,0,10,,,,6,,,71,0
350280,note_on,,,,,360,0,9,,,,5,,,62,0
350304,note_on,,,,,384,0,6,,,,3,,,55,0
350304,note_on,,,,,384,0,4,,,,2,,,74,0
350304,note_on,,,,,0,0,4,,,,2,,,71,0
350304,note_on,,,,,0,0,6,,,,3,,,43,0
350400,note_on,,,,,0,0,13,,,,11,,,73,105
350400,note_on,,,,,120,0,9,,,,5,,,64,105
350400,note_on,,,,,168,0,1,,,,0,,,82,105
350400,note_on,,,,,120,0,8,,,,4,,,61,105
350400,note_on,,,,,0,0,14,,,,12,,,70,105
350400,note_on,,,,,120,0,16,,,,14,,,38,116
350400,note_on,,,,,168,0,13,,,,11,,,76,105
350400,note_on,,,,,96,0,6,,,,3,,,38,105
350400,note_on,,,,,168,0,3,,,,1,,,76,105
350400,note_on,,,,,0,0,3,,,,1,,,82,105
350400,note_on,,,,,120,0,15,,,,13,,,50,116
350400,note_on,,,,,120,0,12,,,,10,,,88,124
350400,set_tempo,,,,,480,1,0,487805,,,,,,,
350400,note_on,,,,,0,0,6,,,,3,,,50,105
350400,note_on,,,,,0,0,1,,,,0,,,85,105
350400,note_on,,,,,96,0,4,,,,2,,,76,105
350400,note_on,,,,,120,0,10,,,,6,,,78,105
350400,note_on,,,,,0,0,4,,,,2,,,73,105
350400,note_on,,,,,168,0,14,,,,12,,,66,105
350712,note_on,,,,,312,0,14,,,,12,,,70,0
350712,note_on,,,,,0,0,3,,,,1,,,76,0
350712,note_on,,,,,0,0,14,,,,12,,,66,0
350712,note_on,,,,,312,0,3,,,,1,,,82,0
350712,note_on,,,,,0,0,13,,,,11,,,76,0
350712,note_on,,,,,312,0,13,,,,11,,,73,0
350712,note_on,,,,,312,0,1,,,,0,,,85,0
350712,note_on,,,,,0,0,1,,,,0,,,82,0
350760,note_on,,,,,360,0,8,,,,4,,,61,0
350760,note_on,,,,,360,0,10,,,,6,,,78,0
350760,note_on,,,,,360,0,12,,,,10,,,88,0
350760,note_on,,,,,360,0,15,,,,13,,,50,0
350760,note_on,,,,,360,0,9,,,,5,,,64,0
350760,note_on,,,,,360,0,16,,,,14,,,38,0
350784,note_on,,,,,384,0,4,,,,2,,,73,0
350784,note_on,,,,,384,0,6,,,,3,,,50,0
350784,note_on,,,,,0,0,4,,,,2,,,76,0
350784,note_on,,,,,0,0,6,,,,3,,,38,0
350880,note_on,,,,,96,0,6,,,,3,,,40,105
350880,note_on,,,,,0,0,6,,,,3,,,52,105
350880,note_on,,,,,96,0,4,,,,2,,,74,105
350880,note_on,,,,,168,0,1,,,,0,,,83,105
350880,note_on,,,,,0,0,4,,,,2,,,71,105
350880,note_on,,,,,0,0,14,,,,12,,,67,105
350880,note_on,,,,,120,0,12,,,,10,,,86,124
350880,note_on,,,,,168,0,14,,,,12,,,71,105
350880,note_on,,,,,0,0,1,,,,0,,,86,105
350880,note_on,,,,,120,0,16,,,,14,,,40,116
350880,note_on,,,,,168,0,13,,,,11,,,74,105
350880,note_on,,,,,120,0,15,,,,13,,,52,116
350880,set_tempo,,,,,480,1,0,508475,,,,,,,
350880,note_on,,,,,120,0,8,,,,4,,,67,105
350880,note_on,,,,,0,0,8,,,,4,,,59,105
350880,note_on,,,,,120,0,9,,,,5,,,62,105
350880,note_on,,,,,120,0,10,,,,6,,,71,105
350880,note_on,,,,,168,0,3,,,,1,,,83,105
350880,note_on,,,,,0,0,3,,,,1,,,74,105
350880,note_on,,,,,0,0,13,,,,11,,,71,105
351192,note_on,,,,,312,0,3,,,,1,,,74,0
351192,note_on,,,,,0,0,13,,,,11,,,74,0
351192,note_on,,,,,312,0,1,,,,0,,,86,0
351192,note_on,,,,,312,0,13,,,,11,,,71,0
351192,note_on,,,,,0,0,1,,,,0,,,83,0
351192,note_on,,,,,312,0,14,,,,12,,,67,0
351192,note_on,,,,,0,0,14,,,,12,,,71,0
351192,note_on,,,,,0,0,3,,,,1,,,83,0
351240,note_on,,,,,360,0,10,,,,6,,,71,0
351240,note_on,,,,,0,0,8,,,,4,,,67,0
351240,note_on,,,,,360,0,9,,,,5,,,62,0
351240,note_on,,,,,360,0,8,,,,4,,,59,0
351240,note_on,,,,,360,0,12,,,,10,,,86,0
351240,note_on,,,,,360,0,15,,,,13,,,52,0
351240,note_on,,,,,360,0,16,,,,14,,,40,0
351264,note_on,,,,,384,0,6,,,,3,,,52,0
351264,note_on,,,,,384,0,4,,,,2,,,71,0
351264,note_on,,,,,0,0,6,,,,3,,,40,0
351264,note_on,,,,,0,0,4,,,,2,,,74,0
351360,note_on,,,,,168,0,13,,,,11,,,83,105
351360,note_on,,,,,0,0,4,,,,2,,,71,105
351360,note_on,,,,,120,0,12,,,,10,,,85,124
351360,note_on,,,,,0,0,3,,,,1,,,83,105
351360,set_tempo,,,,,480,1,0,566037,,,,,,,
351360,note_on,,,,,0,0,14,,,,12,,,71,105
351360,note_on,,,,,168,0,14,,,,12,,,61,105
351360,note_on,,,,,120,0,15,,,,13,,,54,116
351360,note_on,,,,,168,0,1,,,,0,,,85,105
351360,note_on,,,,,168,0,3,,,,1,,,73,105
351360,note_on,,,,,96,0,4,,,,2,,,73,105
351360,note_on,,,,,120,0,10,,,,6,,,78,105
351360,note_on,,,,,0,0,1,,,,0,,,83,105
351360,note_on,,,,,120,0,16,,,,14,,,42,116
351360,note_on,,,,,120,0,8,,,,4,,,66,105
351360,note_on,,,,,0,0,13,,,,11,,,73,105
351360,note_on,,,,,120,0,9,,,,5,,,61,105
351360,note_on,,,,,96,0,6,,,,3,,,42,105
351360,note_on,,,,,0,0,6,,,,3,,,54,105
351792,note_on,,,,,432,0,9,,,,5,,,61,0
351840,set_tempo,,,,,480,1,0,594059,,,,,,,
352128,note_on,,,,,0,0,6,,,,3,,,42,0
352128,note_on,,,,,768,0,6,,,,3,,,54,0
352128,note_on,,,,,768,0,4,,,,2,,,71,0
352128,note_on,,,,,0,0,4,,,,2,,,73,0
352224,note_on,,,,,864,0,10,,,,6,,,78,0
352224,note_on,,,,,864,0,16,,,,14,,,42,0
352224,note_on,,,,,864,0,14,,,,12,,,71,0
352224,note_on,,,,,0,0,14,,,,12,,,61,0
352224,note_on,,,,,864,0,8,,,,4,,,66,0
352224,note_on,,,,,864,0,15,,,,13,,,54,0
352224,note_on,,,,,0,0,13,,,,11,,,83,0
352224,note_on,,,,,864,0,13,,,,11,,,73,0
352272,note_on,,,,,0,0,3,,,,1,,,73,0
352272,note_on,,,,,912,0,1,,,,0,,,83,0
352272,note_on,,,,,912,0,12,,,,10,,,85,0
352272,note_on,,,,,0,0,1,,,,0,,,85,0
352272,note_on,,,,,912,0,3,,,,1,,,83,0
352320,note_on,,,,,48,0,3,,,,1,,,76,105
352320,note_on,,,,,0,0,3,,,,1,,,82,105
352320,note_on,,,,,192,0,6,,,,3,,,42,105
352320,note_on,,,,,96,0,14,,,,12,,,70,105
352320,note_on,,,,,48,0,12,,,,10,,,85,124
352320,note_on,,,,,0,0,1,,,,0,,,85,105
352320,note_on,,,,,48,0,1,,,,0,,,82,105
352320,note_on,,,,,96,0,13,,,,11,,,82,105
352320,note_on,,,,,0,0,13,,,,11,,,73,105
352320,note_on,,,,,96,0,8,,,,4,,,66,105
352320,note_on,,,,,192,0,4,,,,2,,,70,105
352320,set_tempo,,,,,480,1,0,618556,,,,,,,
352320,note_on,,,,,96,0,10,,,,6,,,78,105
352320,note_on,,,,,96,0,15,,,,13,,,42,116
352320,note_on,,,,,96,0,16,,,,14,,,30,116
352320,note_on,,,,,0,0,4,,,,2,,,73,105
352320,note_on,,,,,0,0,14,,,,12,,,64,105
352800,set_tempo,,,,,480,1,0,722891,,,,,,,
353088,note_on,,,,,768,0,4,,,,2,,,73,0
353088,note_on,,,,,0,0,4,,,,2,,,70,0
353088,note_on,,,,,768,0,6,,,,3,,,42,0
353184,note_on,,,,,864,0,8,,,,4,,,66,0
353184,note_on,,,,,864,0,16,,,,14,,,30,0
353184,note_on,,,,,0,0,14,,,,12,,,70,0
353184,note_on,,,,,864,0,14,,,,12,,,64,0
353184,note_on,,,,,864,0,13,,,,11,,,73,0
353184,note_on,,,,,0,0,13,,,,11,,,82,0
353184,note_on,,,,,864,0,15,,,,13,,,42,0
353184,note_on,,,,,864,0,10,,,,6,,,78,0
353232,note_on,,,,,912,0,12,,,,10,,,85,0
353232,note_on,,,,,0,0,1,,,,0,,,82,0
353232,note_on,,,,,912,0,1,,,,0,,,85,0
353232,note_on,,,,,912,0,3,,,,1,,,82,0
353232,note_on,,,,,0,0,3,,,,1,,,76,0
353280,note_on,,,,,48,0,12,,,,10,,,83,124
353280,note_on,,,,,96,0,16,,,,14,,,31,63
353280,note_on,,,,,192,0,6,,,,3,,,43,105
353280,note_on,,,,,48,0,3,,,,1,,,74,105
353280,note_on,,,,,0,0,3,,,,1,,,83,105
353280,note_on,,,,,48,0,1,,,,0,,,83,105
353280,note_on,,,,,0,0,13,,,,11,,,83,105
353280,note_on,,,,,0,0,10,,,,6,,,71,105
353280,note_on,,,,,0,0,8,,,,4,,,47,38
353280,note_on,,,,,96,0,8,,,,4,,,59,38
353280,set_tempo,,,,,480,1,0,434783,,,,,,,
353280,note_on,,,,,192,0,4,,,,2,,,71,105
353280,note_on,,,,,0,0,9,,,,5,,,55,38
353280,note_on,,,,,0,0,14,,,,12,,,71,105
353280,note_on,,,,,96,0,14,,,,12,,,62,105
353280,note_on,,,,,98112,0,11,,,,7,,,47,103
353280,note_on,,,,,96,0,10,,,,6,,,59,105
353280,note_on,,,,,96,0,13,,,,11,,,71,105
353280,note_on,,,,,1488,0,9,,,,5,,,43,38
353280,note_on,,,,,96,0,15,,,,13,,,43,116
353328,note_on,,,,,48,0,11,,,,7,,,47,0
353340,note_on,,,,,12,0,11,,,,7,,,47,78
353388,note_on,,,,,48,0,11,,,,7,,,47,0
353400,note_on,,,,,12,0,11,,,,7,,,47,78
353448,note_on,,,,,48,0,11,,,,7,,,47,0
353460,note_on,,,,,12,0,11,,,,7,,,47,78
353508,note_on,,,,,48,0,11,,,,7,,,47,0
353520,note_on,,,,,12,0,11,,,,7,,,47,38
353568,note_on,,,,,0,0,3,,,,1,,,74,0
353568,note_on,,,,,288,0,14,,,,12,,,71,0
353568,note_on,,,,,0,0,14,,,,12,,,62,0
353568,note_on,,,,,48,0,11,,,,7,,,47,0
353568,note_on,,,,,288,0,15,,,,13,,,43,0
353568,note_on,,,,,0,0,13,,,,11,,,71,0
353568,note_on,,,,,288,0,13,,,,11,,,83,0
353568,note_on,,,,,288,0,1,,,,0,,,83,0
353568,note_on,,,,,288,0,12,,,,10,,,83,0
353568,note_on,,,,,288,0,3,,,,1,,,83,0
353580,note_on,,,,,12,0,11,,,,7,,,47,38
353628,note_on,,,,,48,0,11,,,,7,,,47,0
353640,note_on,,,,,12,0,11,,,,7,,,47,38
353664,note_on,,,,,0,0,10,,,,6,,,59,0
353664,note_on,,,,,384,0,10,,,,6,,,71,0
353664,note_on,,,,,384,0,6,,,,3,,,43,0
353664,note_on,,,,,384,0,4,,,,2,,,71,0
353688,note_on,,,,,48,0,11,,,,7,,,47,0
353700,note_on,,,,,12,0,11,,,,7,,,47,38
353748,note_on,,,,,48,0,11,,,,7,,,47,0
353760,note_on,,,,,12,0,11,,,,7,,,47,38
353808,note_on,,,,,48,0,11,,,,7,,,47,0
353820,note_on,,,,,12,0,11,,,,7,,,47,38
353868,note_on,,,,,48,0,11,,,,7,,,47,0
353880,note_on,,,,,12,0,11,,,,7,,,47,38
353928,note_on,,,,,48,0,11,,,,7,,,47,0
353940,note_on,,,,,12,0,11,,,,7,,,47,38
353988,note_on,,,,,48,0,11,,,,7,,,47,0
354000,note_on,,,,,432,0,13,,,,11,,,55,70
354000,note_on,,,,,12,0,11,,,,7,,,47,38
354000,note_on,,,,,432,0,15,,,,13,,,43,70
354048,note_on,,,,,48,0,11,,,,7,,,47,0
354060,note_on,,,,,12,0,11,,,,7,,,47,38
354108,note_on,,,,,48,0,11,,,,7,,,47,0
354120,note_on,,,,,120,0,15,,,,13,,,43,0
354120,note_on,,,,,0,0,15,,,,13,,,47,70
354120,note_on,,,,,120,0,13,,,,11,,,55,0
354120,note_on,,,,,0,0,13,,,,11,,,59,70
354120,note_on,,,,,12,0,11,,,,7,,,47,38
354168,note_on,,,,,48,0,11,,,,7,,,47,0
354180,note_on,,,,,12,0,11,,,,7,,,47,38
354228,note_on,,,,,48,0,11,,,,7,,,47,0
354240,note_on,,,,,120,0,15,,,,13,,,47,0
354240,note_on,,,,,120,0,13,,,,11,,,59,0
354240,note_on,,,,,0,0,13,,,,11,,,62,70
354240,note_on,,,,,0,0,15,,,,13,,,50,70
354240,note_on,,,,,12,0,11,,,,7,,,47,38
354288,note_on,,,,,48,0,11,,,,7,,,47,0
354300,note_on,,,,,12,0,11,,,,7,,,47,38
354348,note_on,,,,,48,0,11,,,,7,,,47,0
354360,note_on,,,,,12,0,11,,,,7,,,47,38
354408,note_on,,,,,48,0,11,,,,7,,,47,0
354420,note_on,,,,,12,0,11,,,,7,,,47,38
354468,note_on,,,,,48,0,11,,,,7,,,47,0
354480,note_on,,,,,12,0,11,,,,7,,,47,38
354528,note_on,,,,,48,0,11,,,,7,,,47,0
354540,note_on,,,,,12,0,11,,,,7,,,47,38
354560,note_on,,,,,320,0,15,,,,13,,,50,0
354560,note_on,,,,,0,0,13,,,,11,,,59,70
354560,note_on,,,,,320,0,13,,,,11,,,62,0
354560,note_on,,,,,0,0,15,,,,13,,,47,70
354588,note_on,,,,,48,0,11,,,,7,,,47,0
354600,note_on,,,,,12,0,11,,,,7,,,47,38
354648,note_on,,,,,48,0,11,,,,7,,,47,0
354660,note_on,,,,,12,0,11,,,,7,,,47,38
354708,note_on,,,,,48,0,11,,,,7,,,47,0
354720,note_on,,,,,12,0,11,,,,7,,,47,38
354768,note_on,,,,,48,0,11,,,,7,,,47,0
354780,note_on,,,,,12,0,11,,,,7,,,47,38
354828,note_on,,,,,48,0,11,,,,7,,,47,0
354840,note_on,,,,,12,0,11,,,,7,,,47,38
354880,note_on,,,,,320,0,13,,,,11,,,59,0
354880,note_on,,,,,0,0,15,,,,13,,,51,70
354880,note_on,,,,,0,0,13,,,,11,,,63,70
354880,note_on,,,,,320,0,15,,,,13,,,47,0
354888,note_on,,,,,48,0,11,,,,7,,,47,0
354900,note_on,,,,,12,0,11,,,,7,,,47,38
354948,note_on,,,,,48,0,11,,,,7,,,47,0
354960,note_on,,,,,1392,0,12,,,,10,,,55,70
354960,note_on,,,,,1392,0,14,,,,12,,,67,70
354960,note_on,,,,,12,0,11,,,,7,,,47,38
355008,note_on,,,,,48,0,11,,,,7,,,47,0
355020,note_on,,,,,12,0,11,,,,7,,,47,38
355068,note_on,,,,,48,0,11,,,,7,,,47,0
355080,note_on,,,,,12,0,11,,,,7,,,47,38
355080,note_on,,,,,0,0,12,,,,10,,,59,70
355080,note_on,,,,,120,0,12,,,,10,,,55,0
355080,note_on,,,,,120,0,14,,,,12,,,67,0
355080,note_on,,,,,0,0,14,,,,12,,,71,70
355128,note_on,,,,,48,0,11,,,,7,,,47,0
355140,note_on,,,,,12,0,11,,,,7,,,47,38
355188,note_on,,,,,48,0,11,,,,7,,,47,0
355200,note_on,,,,,0,0,15,,,,13,,,50,70
355200,note_on,,,,,120,0,14,,,,12,,,71,0
355200,note_on,,,,,120,0,12,,,,10,,,59,0
355200,note_on,,,,,320,0,13,,,,11,,,63,0
355200,note_on,,,,,320,0,15,,,,13,,,51,0
355200,note_on,,,,,0,0,13,,,,11,,,62,70
355200,note_on,,,,,12,0,11,,,,7,,,47,38
355200,note_on,,,,,0,0,14,,,,12,,,74,70
355200,note_on,,,,,0,0,12,,,,10,,,62,70
355248,note_on,,,,,48,0,11,,,,7,,,47,0
355260,note_on,,,,,12,0,11,,,,7,,,47,38
355308,note_on,,,,,48,0,11,,,,7,,,47,0
355320,note_on,,,,,12,0,11,,,,7,,,47,38
355368,note_on,,,,,48,0,11,,,,7,,,47,0
355380,note_on,,,,,12,0,11,,,,7,,,47,38
355428,note_on,,,,,48,0,11,,,,7,,,47,0
355440,note_on,,,,,12,0,11,,,,7,,,47,38
355488,note_on,,,,,48,0,11,,,,7,,,47,0
355500,note_on,,,,,12,0,11,,,,7,,,47,38
355520,note_on,,,,,320,0,12,,,,10,,,62,0
355520,note_on,,,,,0,0,12,,,,10,,,59,70
355520,note_on,,,,,0,0,14,,,,12,,,71,70
355520,note_on,,,,,320,0,14,,,,12,,,74,0
355548,note_on,,,,,48,0,11,,,,7,,,47,0
355560,note_on,,,,,12,0,11,,,,7,,,47,38
355608,note_on,,,,,48,0,11,,,,7,,,47,0
355620,note_on,,,,,12,0,11,,,,7,,,47,38
355668,note_on,,,,,48,0,11,,,,7,,,47,0
355680,note_on,,,,,480,0,15,,,,13,,,50,0
355680,note_on,,,,,480,0,13,,,,11,,,62,0
355680,note_on,,,,,12,0,11,,,,7,,,47,38
355728,note_on,,,,,48,0,11,,,,7,,,47,0
355740,note_on,,,,,12,0,11,,,,7,,,47,38
355788,note_on,,,,,48,0,11,,,,7,,,47,0
355800,note_on,,,,,12,0,11,,,,7,,,47,38
355840,note_on,,,,,0,0,14,,,,12,,,75,70
355840,note_on,,,,,0,0,12,,,,10,,,63,70
355840,note_on,,,,,320,0,12,,,,10,,,59,0
355840,note_on,,,,,320,0,14,,,,12,,,71,0
355848,note_on,,,,,48,0,11,,,,7,,,47,0
355860,note_on,,,,,12,0,11,,,,7,,,47,38
355908,note_on,,,,,48,0,11,,,,7,,,47,0
355920,note_on,,,,,240,0,13,,,,11,,,79,70
355920,note_on,,,,,240,0,15,,,,13,,,55,70
355920,note_on,,,,,12,0,11,,,,7,,,47,38
355968,note_on,,,,,48,0,11,,,,7,,,47,0
355980,note_on,,,,,12,0,11,,,,7,,,47,38
356028,note_on,,,,,48,0,11,,,,7,,,47,0
356040,note_on,,,,,12,0,11,,,,7,,,47,38
356040,note_on,,,,,0,0,13,,,,11,,,83,70
356040,note_on,,,,,0,0,15,,,,13,,,59,70
356040,note_on,,,,,120,0,15,,,,13,,,55,0
356040,note_on,,,,,120,0,13,,,,11,,,79,0
356088,note_on,,,,,48,0,11,,,,7,,,47,0
356100,note_on,,,,,12,0,11,,,,7,,,47,38
356148,note_on,,,,,48,0,11,,,,7,,,47,0
356160,note_on,,,,,320,0,12,,,,10,,,63,0
356160,note_on,,,,,120,0,13,,,,11,,,83,0
356160,note_on,,,,,0,0,12,,,,10,,,62,70
356160,note_on,,,,,120,0,15,,,,13,,,59,0
356160,note_on,,,,,0,0,14,,,,12,,,74,70
356160,note_on,,,,,320,0,14,,,,12,,,75,0
356160,note_on,,,,,0,0,13,,,,11,,,86,70
356160,note_on,,,,,0,0,15,,,,13,,,62,70
356160,note_on,,,,,12,0,11,,,,7,,,47,38
356208,note_on,,,,,48,0,11,,,,7,,,47,0
356220,note_on,,,,,12,0,11,,,,7,,,47,38
356268,note_on,,,,,48,0,11,,,,7,,,47,0
356280,note_on,,,,,12,0,11,,,,7,,,47,38
356328,note_on,,,,,48,0,11,,,,7,,,47,0
356340,note_on,,,,,12,0,11,,,,7,,,47,38
356388,note_on,,,,,48,0,11,,,,7,,,47,0
356400,note_on,,,,,12,0,11,,,,7,,,47,38
356448,note_on,,,,,48,0,11,,,,7,,,47,0
356460,note_on,,,,,12,0,11,,,,7,,,47,38
356480,note_on,,,,,320,0,15,,,,13,,,62,0
356480,note_on,,,,,0,0,15,,,,13,,,59,70
356480,note_on,,,,,0,0,13,,,,11,,,83,70
356480,note_on,,,,,320,0,13,,,,11,,,86,0
356508,note_on,,,,,48,0,11,,,,7,,,47,0
356520,note_on,,,,,12,0,11,,,,7,,,47,38
356568,note_on,,,,,48,0,11,,,,7,,,47,0
356580,note_on,,,,,12,0,11,,,,7,,,47,38
356628,note_on,,,,,48,0,11,,,,7,,,47,0
356640,note_on,,,,,12,0,11,,,,7,,,47,38
356640,note_on,,,,,480,0,12,,,,10,,,62,0
356640,note_on,,,,,480,0,14,,,,12,,,74,0
356688,note_on,,,,,48,0,11,,,,7,,,47,0
356700,note_on,,,,,12,0,11,,,,7,,,47,38
356748,note_on,,,,,48,0,11,,,,7,,,47,0
356760,note_on,,,,,12,0,11,,,,7,,,47,38
356800,note_on,,,,,0,0,13,,,,11,,,87,70
356800,note_on,,,,,0,0,15,,,,13,,,63,70
356800,note_on,,,,,320,0,15,,,,13,,,59,0
356800,note_on,,,,,320,0,13,,,,11,,,83,0
356808,note_on,,,,,48,0,11,,,,7,,,47,0
356820,note_on,,,,,12,0,11,,,,7,,,47,38
356868,note_on,,,,,48,0,11,,,,7,,,47,0
356880,note_on,,,,,12,0,11,,,,7,,,47,38
356928,note_on,,,,,48,0,11,,,,7,,,47,0
356940,note_on,,,,,12,0,11,,,,7,,,47,38
356988,note_on,,,,,48,0,11,,,,7,,,47,0
357000,note_on,,,,,12,0,11,,,,7,,,47,38
357048,note_on,,,,,48,0,11,,,,7,,,47,0
357060,note_on,,,,,12,0,11,,,,7,,,47,38
357108,note_on,,,,,48,0,11,,,,7,,,47,0
357120,note_on,,,,,0,0,13,,,,11,,,86,70
357120,note_on,,,,,320,0,13,,,,11,,,87,0
357120,note_on,,,,,320,0,15,,,,13,,,63,0
357120,note_on,,,,,12,0,11,,,,7,,,47,38
357120,note_on,,,,,0,0,15,,,,13,,,62,70
357168,note_on,,,,,48,0,11,,,,7,,,47,0
357180,note_on,,,,,12,0,11,,,,7,,,47,38
357228,note_on,,,,,48,0,11,,,,7,,,47,0
357240,note_on,,,,,12,0,11,,,,7,,,47,38
357288,note_on,,,,,48,0,11,,,,7,,,47,0
357300,note_on,,,,,12,0,11,,,,7,,,47,38
357348,note_on,,,,,48,0,11,,,,7,,,47,0
357360,note_on,,,,,12,0,11,,,,7,,,47,38
357408,note_on,,,,,48,0,11,,,,7,,,47,0
357420,note_on,,,,,12,0,11,,,,7,,,47,38
357440,note_on,,,,,320,0,13,,,,11,,,86,0
357440,note_on,,,,,0,0,13,,,,11,,,83,70
357440,note_on,,,,,320,0,15,,,,13,,,62,0
357440,note_on,,,,,0,0,15,,,,13,,,59,70
357468,note_on,,,,,48,0,11,,,,7,,,47,0
357480,note_on,,,,,12,0,11,,,,7,,,47,38
357528,note_on,,,,,48,0,11,,,,7,,,47,0
357540,note_on,,,,,12,0,11,,,,7,,,47,38
357588,note_on,,,,,48,0,11,,,,7,,,47,0
357600,note_on,,,,,12,0,11,,,,7,,,47,38
357648,note_on,,,,,48,0,11,,,,7,,,47,0
357660,note_on,,,,,12,0,11,,,,7,,,47,38
357708,note_on,,,,,48,0,11,,,,7,,,47,0
357720,note_on,,,,,12,0,11,,,,7,,,47,38
357760,note_on,,,,,0,0,13,,,,11,,,79,70
357760,note_on,,,,,0,0,15,,,,13,,,67,70
357760,note_on,,,,,320,0,15,,,,13,,,59,0
357760,note_on,,,,,1120,0,12,,,,10,,,91,70
357760,note_on,,,,,320,0,13,,,,11,,,83,0
357768,note_on,,,,,48,0,11,,,,7,,,47,0
357780,note_on,,,,,12,0,11,,,,7,,,47,38
357828,note_on,,,,,48,0,11,,,,7,,,47,0
357840,note_on,,,,,12,0,11,,,,7,,,47,38
357888,note_on,,,,,48,0,11,,,,7,,,47,0
357900,note_on,,,,,12,0,11,,,,7,,,47,38
357948,note_on,,,,,48,0,11,,,,7,,,47,0
357960,note_on,,,,,12,0,11,,,,7,,,47,38
358008,note_on,,,,,48,0,11,,,,7,,,47,0
358020,note_on,,,,,12,0,11,,,,7,,,47,38
358068,note_on,,,,,48,0,11,,,,7,,,47,0
358080,note_on,,,,,320,0,12,,,,10,,,91,0
358080,note_on,,,,,0,0,12,,,,10,,,87,70
358080,note_on,,,,,320,0,15,,,,13,,,67,0
358080,note_on,,,,,320,0,13,,,,11,,,79,0
358080,note_on,,,,,0,0,15,,,,13,,,63,70
358080,note_on,,,,,12,0,11,,,,7,,,47,38
358128,note_on,,,,,48,0,11,,,,7,,,47,0
358140,note_on,,,,,12,0,11,,,,7,,,47,38
358188,note_on,,,,,48,0,11,,,,7,,,47,0
358200,note_on,,,,,12,0,11,,,,7,,,47,38
358248,note_on,,,,,48,0,11,,,,7,,,47,0
358260,note_on,,,,,12,0,11,,,,7,,,47,38
358308,note_on,,,,,48,0,11,,,,7,,,47,0
358320,note_on,,,,,12,0,11,,,,7,,,47,38
358368,note_on,,,,,48,0,11,,,,7,,,47,0
358380,note_on,,,,,12,0,11,,,,7,,,47,38
358400,note_on,,,,,0,0,15,,,,13,,,62,70
358400,note_on,,,,,320,0,12,,,,10,,,87,0
358400,note_on,,,,,320,0,15,,,,13,,,63,0
358400,note_on,,,,,0,0,12,,,,10,,,86,70
358428,note_on,,,,,48,0,11,,,,7,,,47,0
358440,note_on,,,,,12,0,11,,,,7,,,47,38
358488,note_on,,,,,48,0,11,,,,7,,,47,0
358500,note_on,,,,,12,0,11,,,,7,,,47,38
358548,note_on,,,,,48,0,11,,,,7,,,47,0
358560,note_on,,,,,12,0,11,,,,7,,,47,38
358608,note_on,,,,,48,0,11,,,,7,,,47,0
358620,note_on,,,,,12,0,11,,,,7,,,47,38
358668,note_on,,,,,48,0,11,,,,7,,,47,0
358680,note_on,,,,,12,0,11,,,,7,,,47,38
358720,note_on,,,,,0,0,15,,,,13,,,59,70
358720,note_on,,,,,2080,0,14,,,,12,,,67,70
358720,note_on,,,,,320,0,15,,,,13,,,62,0
358720,note_on,,,,,640,0,13,,,,11,,,79,70
358720,note_on,,,,,320,0,12,,,,10,,,86,0
358720,note_on,,,,,0,0,12,,,,10,,,83,70
358728,note_on,,,,,48,0,11,,,,7,,,47,0
358740,note_on,,,,,12,0,11,,,,7,,,47,38
358788,note_on,,,,,48,0,11,,,,7,,,47,0
358800,note_on,,,,,12,0,11,,,,7,,,47,38
358848,note_on,,,,,48,0,11,,,,7,,,47,0
358860,note_on,,,,,12,0,11,,,,7,,,47,38
358908,note_on,,,,,48,0,11,,,,7,,,47,0
358920,note_on,,,,,12,0,11,,,,7,,,47,38
358968,note_on,,,,,48,0,11,,,,7,,,47,0
358980,note_on,,,,,12,0,11,,,,7,,,47,38
359028,note_on,,,,,48,0,11,,,,7,,,47,0
359040,note_on,,,,,320,0,13,,,,11,,,79,0
359040,note_on,,,,,0,0,15,,,,13,,,55,70
359040,note_on,,,,,320,0,15,,,,13,,,59,0
359040,note_on,,,,,320,0,12,,,,10,,,83,0
359040,note_on,,,,,0,0,13,,,,11,,,75,70
359040,note_on,,,,,0,0,14,,,,12,,,63,70
359040,note_on,,,,,320,0,14,,,,12,,,67,0
359040,note_on,,,,,12,0,11,,,,7,,,47,38
359040,note_on,,,,,0,0,12,,,,10,,,79,70
359088,note_on,,,,,48,0,11,,,,7,,,47,0
359100,note_on,,,,,12,0,11,,,,7,,,47,38
359148,note_on,,,,,48,0,11,,,,7,,,47,0
359160,note_on,,,,,12,0,11,,,,7,,,47,38
359208,note_on,,,,,48,0,11,,,,7,,,47,0
359220,note_on,,,,,12,0,11,,,,7,,,47,38
359268,note_on,,,,,48,0,11,,,,7,,,47,0
359280,note_on,,,,,12,0,11,,,,7,,,47,38
359328,note_on,,,,,48,0,11,,,,7,,,47,0
359340,note_on,,,,,12,0,11,,,,7,,,47,38
359360,note_on,,,,,320,0,12,,,,10,,,79,0
359360,note_on,,,,,0,0,13,,,,11,,,74,70
359360,note_on,,,,,320,0,13,,,,11,,,75,0
359360,note_on,,,,,320,0,15,,,,13,,,55,0
359360,note_on,,,,,320,0,14,,,,12,,,63,0
359360,note_on,,,,,0,0,14,,,,12,,,62,70
359388,note_on,,,,,48,0,11,,,,7,,,47,0
359400,note_on,,,,,12,0,11,,,,7,,,47,38
359448,note_on,,,,,48,0,11,,,,7,,,47,0
359460,note_on,,,,,12,0,11,,,,7,,,47,38
359508,note_on,,,,,48,0,11,,,,7,,,47,0
359520,note_on,,,,,12,0,11,,,,7,,,47,38
359568,note_on,,,,,48,0,11,,,,7,,,47,0
359580,note_on,,,,,12,0,11,,,,7,,,47,38
359628,note_on,,,,,48,0,11,,,,7,,,47,0
359640,note_on,,,,,12,0,11,,,,7,,,47,38
359680,note_on,,,,,0,0,14,,,,12,,,59,70
359680,note_on,,,,,320,0,14,,,,12,,,62,0
359680,note_on,,,,,320,0,15,,,,13,,,55,70
359680,note_on,,,,,320,0,13,,,,11,,,74,0
359680,note_on,,,,,320,0,12,,,,10,,,67,70
359680,note_on,,,,,0,0,13,,,,11,,,71,70
359688,note_on,,,,,48,0,11,,,,7,,,47,0
359700,note_on,,,,,12,0,11,,,,7,,,47,38
359748,note_on,,,,,48,0,11,,,,7,,,47,0
359760,note_on,,,,,12,0,11,,,,7,,,47,38
359808,note_on,,,,,48,0,11,,,,7,,,47,0
359820,note_on,,,,,12,0,11,,,,7,,,47,38
359868,note_on,,,,,48,0,11,,,,7,,,47,0
359880,note_on,,,,,12,0,11,,,,7,,,47,38
359928,note_on,,,,,48,0,11,,,,7,,,47,0
359940,note_on,,,,,12,0,11,,,,7,,,47,38
359988,note_on,,,,,48,0,11,,,,7,,,47,0
360000,note_on,,,,,320,0,14,,,,12,,,59,0
360000,note_on,,,,,12,0,11,,,,7,,,47,38
360000,note_on,,,,,0,0,12,,,,10,,,63,70
360000,note_on,,,,,320,0,12,,,,10,,,67,0
360000,note_on,,,,,320,0,15,,,,13,,,55,0
360000,note_on,,,,,0,0,14,,,,12,,,55,63
360000,note_on,,,,,0,0,13,,,,11,,,67,63
360000,note_on,,,,,320,0,13,,,,11,,,71,0
360000,note_on,,,,,0,0,15,,,,13,,,51,70
360048,note_on,,,,,48,0,11,,,,7,,,47,0
360060,note_on,,,,,12,0,11,,,,7,,,47,38
360108,note_on,,,,,48,0,11,,,,7,,,47,0
360120,note_on,,,,,12,0,11,,,,7,,,47,38
360168,note_on,,,,,48,0,11,,,,7,,,47,0
360180,note_on,,,,,12,0,11,,,,7,,,47,38
360228,note_on,,,,,48,0,11,,,,7,,,47,0
360240,note_on,,,,,12,0,11,,,,7,,,47,38
360288,note_on,,,,,48,0,11,,,,7,,,47,0
360300,note_on,,,,,12,0,11,,,,7,,,47,38
360320,note_on,,,,,0,0,15,,,,13,,,50,70
360320,note_on,,,,,320,0,12,,,,10,,,63,0
360320,note_on,,,,,0,0,12,,,,10,,,62,70
360320,note_on,,,,,320,0,15,,,,13,,,51,0
360348,note_on,,,,,48,0,11,,,,7,,,47,0
360360,note_on,,,,,12,0,11,,,,7,,,47,38
360408,note_on,,,,,48,0,11,,,,7,,,47,0
360420,note_on,,,,,12,0,11,,,,7,,,47,38
360468,note_on,,,,,48,0,11,,,,7,,,47,0
360480,note_on,,,,,480,0,14,,,,12,,,55,0
360480,note_on,,,,,12,0,11,,,,7,,,47,38
360480,note_on,,,,,480,0,13,,,,11,,,67,0
360528,note_on,,,,,48,0,11,,,,7,,,47,0
360540,note_on,,,,,12,0,11,,,,7,,,47,38
360588,note_on,,,,,48,0,11,,,,7,,,47,0
360600,note_on,,,,,12,0,11,,,,7,,,47,38
360640,note_on,,,,,0,0,12,,,,10,,,59,70
360640,note_on,,,,,320,0,15,,,,13,,,50,0
360640,note_on,,,,,0,0,15,,,,13,,,47,70
360640,note_on,,,,,320,0,12,,,,10,,,62,0
360648,note_on,,,,,48,0,11,,,,7,,,47,0
360660,note_on,,,,,12,0,11,,,,7,,,47,38
360708,note_on,,,,,48,0,11,,,,7,,,47,0
360720,note_on,,,,,12,0,11,,,,7,,,47,38
360768,note_on,,,,,48,0,11,,,,7,,,47,0
360780,note_on,,,,,12,0,11,,,,7,,,47,38
360828,note_on,,,,,48,0,11,,,,7,,,47,0
360840,note_on,,,,,12,0,11,,,,7,,,47,38
360888,note_on,,,,,48,0,11,,,,7,,,47,0
360900,note_on,,,,,12,0,11,,,,7,,,47,38
360948,note_on,,,,,48,0,11,,,,7,,,47,0
360960,note_on,,,,,0,0,15,,,,13,,,43,63
360960,note_on,,,,,320,0,15,,,,13,,,47,0
360960,note_on,,,,,12,0,11,,,,7,,,47,63
360960,note_on,,,,,0,0,12,,,,10,,,55,63
360960,note_on,,,,,320,0,12,,,,10,,,59,0
361344,note_on,,,,,8064,0,9,,,,5,,,55,0
361344,note_on,,,,,0,0,9,,,,5,,,43,0
361344,note_on,,,,,8064,0,8,,,,4,,,47,0
361344,note_on,,,,,0,0,8,,,,4,,,59,0
361344,note_on,,,,,8064,0,16,,,,14,,,31,0
361344,note_on,,,,,384,0,11,,,,7,,,47,0
361440,note_on,,,,,480,0,15,,,,13,,,43,0
361440,note_on,,,,,480,0,12,,,,10,,,55,0
361680,note_on,,,,,8016,0,6,,,,3,,,41,63
361680,note_on,,,,,8112,0,1,,,,0,,,65,70
361680,note_on,,,,,8016,0,4,,,,2,,,53,63
361680,note_on,,,,,0,0,4,,,,2,,,65,63
361680,note_on,,,,,0,0,6,,,,3,,,53,63
361800,note_on,,,,,120,0,4,,,,2,,,65,0
361800,note_on,,,,,0,0,4,,,,2,,,53,0
361800,note_on,,,,,0,0,4,,,,2,,,57,63
361800,note_on,,,,,0,0,4,,,,2,,,69,63
361800,note_on,,,,,0,0,6,,,,3,,,45,63
361800,note_on,,,,,120,0,6,,,,3,,,53,0
361800,note_on,,,,,0,0,6,,,,3,,,41,0
361800,note_on,,,,,120,0,1,,,,0,,,65,0
361800,note_on,,,,,0,0,6,,,,3,,,57,63
361800,note_on,,,,,0,0,1,,,,0,,,69,70
361920,note_on,,,,,120,0,1,,,,0,,,69,0
361920,note_on,,,,,0,0,1,,,,0,,,72,70
361920,note_on,,,,,120,0,6,,,,3,,,45,0
361920,note_on,,,,,0,0,6,,,,3,,,57,0
361920,note_on,,,,,0,0,6,,,,3,,,48,63
361920,note_on,,,,,0,0,6,,,,3,,,60,63
361920,note_on,,,,,120,0,4,,,,2,,,69,0
361920,note_on,,,,,0,0,4,,,,2,,,57,0
361920,note_on,,,,,0,0,4,,,,2,,,60,63
361920,note_on,,,,,0,0,4,,,,2,,,72,63
362832,note_on,,,,,912,0,1,,,,0,,,72,0
362832,note_on,,,,,0,0,6,,,,3,,,48,0
362832,note_on,,,,,912,0,6,,,,3,,,60,0
362832,note_on,,,,,0,0,4,,,,2,,,72,0
362832,note_on,,,,,912,0,4,,,,2,,,60,0
363600,note_on,,,,,768,0,6,,,,3,,,59,63
363600,note_on,,,,,0,0,4,,,,2,,,71,63
363600,note_on,,,,,768,0,1,,,,0,,,71,70
363600,note_on,,,,,0,0,6,,,,3,,,47,63
363600,note_on,,,,,768,0,4,,,,2,,,59,63
363720,note_on,,,,,120,0,4,,,,2,,,71,0
363720,note_on,,,,,0,0,4,,,,2,,,74,63
363720,note_on,,,,,0,0,4,,,,2,,,62,63
363720,note_on,,,,,0,0,4,,,,2,,,59,0
363720,note_on,,,,,120,0,6,,,,3,,,47,0
363720,note_on,,,,,0,0,6,,,,3,,,62,63
363720,note_on,,,,,0,0,6,,,,3,,,50,63
363720,note_on,,,,,120,0,1,,,,0,,,71,0
363720,note_on,,,,,0,0,1,,,,0,,,74,70
363720,note_on,,,,,0,0,6,,,,3,,,59,0
363840,note_on,,,,,120,0,6,,,,3,,,50,0
363840,note_on,,,,,0,0,6,,,,3,,,62,0
363840,note_on,,,,,0,0,6,,,,3,,,65,63
363840,note_on,,,,,0,0,6,,,,3,,,53,63
363840,note_on,,,,,120,0,4,,,,2,,,62,0
363840,note_on,,,,,0,0,1,,,,0,,,77,70
363840,note_on,,,,,120,0,1,,,,0,,,74,0
363840,note_on,,,,,0,0,4,,,,2,,,77,63
363840,note_on,,,,,0,0,4,,,,2,,,65,63
363840,note_on,,,,,0,0,4,,,,2,,,74,0
364752,note_on,,,,,912,0,1,,,,0,,,77,0
364752,note_on,,,,,0,0,6,,,,3,,,65,0
364752,note_on,,,,,912,0,6,,,,3,,,53,0
364752,note_on,,,,,912,0,4,,,,2,,,77,0
364752,note_on,,,,,0,0,4,,,,2,,,65,0
365520,note_on,,,,,768,0,6,,,,3,,,52,63
365520,note_on,,,,,768,0,4,,,,2,,,64,63
365520,note_on,,,,,0,0,4,,,,2,,,76,63
365520,note_on,,,,,768,0,1,,,,0,,,76,70
365640,note_on,,,,,0,0,4,,,,2,,,64,0
365640,note_on,,,,,0,0,4,,,,2,,,79,63
365640,note_on,,,,,0,0,4,,,,2,,,67,63
365640,note_on,,,,,120,0,6,,,,3,,,52,0
365640,note_on,,,,,0,0,6,,,,3,,,55,63
365640,note_on,,,,,0,0,1,,,,0,,,79,70
365640,note_on,,,,,120,0,1,,,,0,,,76,0
365640,note_on,,,,,120,0,4,,,,2,,,76,0
365760,note_on,,,,,120,0,1,,,,0,,,79,0
365760,note_on,,,,,0,0,4,,,,2,,,82,63
365760,note_on,,,,,0,0,4,,,,2,,,70,63
365760,note_on,,,,,0,0,4,,,,2,,,79,0
365760,note_on,,,,,120,0,4,,,,2,,,67,0
365760,note_on,,,,,0,0,6,,,,3,,,58,63
365760,note_on,,,,,120,0,6,,,,3,,,55,0
365760,note_on,,,,,0,0,1,,,,0,,,82,70
366080,note_on,,,,,0,0,4,,,,2,,,67,63
366080,note_on,,,,,320,0,4,,,,2,,,82,0
366080,note_on,,,,,0,0,4,,,,2,,,70,0
366080,note_on,,,,,0,0,6,,,,3,,,55,63
366080,note_on,,,,,0,0,4,,,,2,,,79,63
366080,note_on,,,,,0,0,1,,,,0,,,79,70
366080,note_on,,,,,320,0,1,,,,0,,,82,0
366080,note_on,,,,,320,0,6,,,,3,,,58,0
366400,note_on,,,,,0,0,6,,,,3,,,60,63
366400,note_on,,,,,0,0,1,,,,0,,,84,70
366400,note_on,,,,,320,0,1,,,,0,,,79,0
366400,note_on,,,,,320,0,4,,,,2,,,67,0
366400,note_on,,,,,320,0,6,,,,3,,,55,0
366400,note_on,,,,,0,0,4,,,,2,,,79,0
366400,note_on,,,,,0,0,4,,,,2,,,72,63
366400,note_on,,,,,0,0,4,,,,2,,,84,63
366720,note_on,,,,,320,0,4,,,,2,,,84,0
366720,note_on,,,,,0,0,1,,,,0,,,80,70
366720,note_on,,,,,320,0,1,,,,0,,,84,0
366720,note_on,,,,,0,0,6,,,,3,,,56,63
366720,note_on,,,,,320,0,6,,,,3,,,60,0
366720,note_on,,,,,0,0,4,,,,2,,,80,63
366720,note_on,,,,,0,0,4,,,,2,,,72,0
366720,note_on,,,,,0,0,4,,,,2,,,68,63
367040,note_on,,,,,0,0,4,,,,2,,,65,63
367040,note_on,,,,,0,0,4,,,,2,,,68,0
367040,note_on,,,,,320,0,4,,,,2,,,80,0
367040,note_on,,,,,0,0,4,,,,2,,,77,63
367040,note_on,,,,,320,0,6,,,,3,,,56,0
367040,note_on,,,,,0,0,6,,,,3,,,53,63
367040,note_on,,,,,320,0,1,,,,0,,,80,0
367040,note_on,,,,,0,0,1,,,,0,,,77,70
367360,note_on,,,,,320,0,6,,,,3,,,53,0
367360,note_on,,,,,320,0,4,,,,2,,,65,0
367360,note_on,,,,,0,0,4,,,,2,,,74,63
367360,note_on,,,,,0,0,6,,,,3,,,50,63
367360,note_on,,,,,0,0,6,,,,3,,,62,63
367360,note_on,,,,,0,0,4,,,,2,,,77,0
367360,note_on,,,,,0,0,1,,,,0,,,74,70
367360,note_on,,,,,0,0,4,,,,2,,,62,63
367360,note_on,,,,,320,0,1,,,,0,,,77,0
367680,note_on,,,,,0,0,6,,,,3,,,47,63
367680,note_on,,,,,320,0,6,,,,3,,,62,0
367680,note_on,,,,,320,0,1,,,,0,,,74,0
367680,note_on,,,,,320,0,4,,,,2,,,62,0
367680,note_on,,,,,0,0,4,,,,2,,,74,0
367680,note_on,,,,,0,0,4,,,,2,,,71,63
367680,note_on,,,,,0,0,4,,,,2,,,59,63
367680,note_on,,,,,0,0,6,,,,3,,,50,0
367680,note_on,,,,,0,0,1,,,,0,,,71,70
367680,note_on,,,,,0,0,6,,,,3,,,59,63
368000,note_on,,,,,0,0,6,,,,3,,,55,63
368000,note_on,,,,,0,0,6,,,,3,,,43,63
368000,note_on,,,,,0,0,6,,,,3,,,59,0
368000,note_on,,,,,320,0,6,,,,3,,,47,0
368000,note_on,,,,,0,0,4,,,,2,,,67,63
368000,note_on,,,,,320,0,1,,,,0,,,71,0
368000,note_on,,,,,0,0,1,,,,0,,,67,70
368000,note_on,,,,,0,0,4,,,,2,,,71,0
368000,note_on,,,,,320,0,4,,,,2,,,59,0
368000,note_on,,,,,0,0,4,,,,2,,,55,63
368320,note_on,,,,,320,0,4,,,,2,,,67,0
368320,note_on,,,,,320,0,6,,,,3,,,55,0
368320,note_on,,,,,0,0,6,,,,3,,,43,0
368320,note_on,,,,,320,0,1,,,,0,,,67,0
368320,note_on,,,,,0,0,1,,,,0,,,75,70
368320,note_on,,,,,0,0,4,,,,2,,,75,63
368320,note_on,,,,,0,0,4,,,,2,,,63,63
368320,note_on,,,,,0,0,4,,,,2,,,55,0
368320,note_on,,,,,0,0,6,,,,3,,,51,63
368320,note_on,,,,,0,0,6,,,,3,,,39,63
368640,note_on,,,,,0,0,6,,,,3,,,39,0
368640,note_on,,,,,320,0,6,,,,3,,,51,0
368640,note_on,,,,,0,0,4,,,,2,,,60,63
368640,note_on,,,,,320,0,4,,,,2,,,75,0
368640,note_on,,,,,0,0,4,,,,2,,,63,0
368640,note_on,,,,,0,0,4,,,,2,,,72,63
368640,note_on,,,,,0,0,6,,,,3,,,48,63
368640,note_on,,,,,0,0,6,,,,3,,,36,63
368640,note_on,,,,,320,0,1,,,,0,,,75,0
368640,note_on,,,,,15072,0,3,,,,1,,,72,70
368640,note_on,,,,,0,0,1,,,,0,,,72,63
368640,note_on,,,,,7296,0,16,,,,14,,,36,38
368640,note_on,,,,,7200,0,15,,,,13,,,36,63
368880,note_on,,,,,7440,0,12,,,,10,,,55,63
368880,note_on,,,,,240,0,15,,,,13,,,43,63
369024,note_on,,,,,384,0,4,,,,2,,,72,0
369024,note_on,,,,,384,0,3,,,,1,,,72,0
369024,note_on,,,,,384,0,1,,,,0,,,72,0
369024,note_on,,,,,0,0,4,,,,2,,,60,0
369024,note_on,,,,,384,0,6,,,,3,,,48,0
369024,note_on,,,,,0,0,6,,,,3,,,36,0
369120,note_on,,,,,240,0,12,,,,10,,,55,0
369120,note_on,,,,,240,0,15,,,,13,,,43,0
369120,note_on,,,,,0,0,15,,,,13,,,48,63
369120,note_on,,,,,0,0,12,,,,10,,,60,63
369360,note_on,,,,,0,0,15,,,,13,,,51,63
369360,note_on,,,,,240,0,12,,,,10,,,60,0
369360,note_on,,,,,0,0,12,,,,10,,,63,63
369360,note_on,,,,,240,0,15,,,,13,,,48,0
369600,note_on,,,,,240,0,15,,,,13,,,51,0
369600,note_on,,,,,0,0,15,,,,13,,,56,63
369600,note_on,,,,,0,0,13,,,,11,,,60,38
369600,note_on,,,,,9120,0,13,,,,11,,,63,38
369600,note_on,,,,,240,0,12,,,,10,,,63,0
369600,note_on,,,,,0,0,12,,,,10,,,68,63
369840,note_on,,,,,0,0,12,,,,10,,,63,63
369840,note_on,,,,,240,0,12,,,,10,,,68,0
369840,note_on,,,,,0,0,15,,,,13,,,51,63
369840,note_on,,,,,240,0,15,,,,13,,,56,0
370080,note_on,,,,,0,0,12,,,,10,,,67,63
370080,note_on,,,,,1056,0,3,,,,1,,,75,90
370080,note_on,,,,,240,0,15,,,,13,,,51,0
370080,note_on,,,,,240,0,12,,,,10,,,63,0
370080,note_on,,,,,0,0,15,,,,13,,,55,63
370320,note_on,,,,,240,0,12,,,,10,,,67,0
370320,note_on,,,,,0,0,15,,,,13,,,60,63
370320,note_on,,,,,240,0,15,,,,13,,,55,0
370320,note_on,,,,,0,0,12,,,,10,,,72,63
370560,note_on,,,,,0,0,15,,,,13,,,36,0
370560,note_on,,,,,240,0,12,,,,10,,,72,0
370560,note_on,,,,,10080,0,14,,,,12,,,63,63
370560,note_on,,,,,0,0,12,,,,10,,,75,63
370560,note_on,,,,,480,0,3,,,,1,,,75,0
370560,note_on,,,,,0,0,3,,,,1,,,72,70
370560,note_on,,,,,240,0,15,,,,13,,,60,0
370560,note_on,,,,,0,0,15,,,,13,,,63,63
370800,note_on,,,,,240,0,12,,,,10,,,75,0
370800,note_on,,,,,0,0,12,,,,10,,,79,63
370800,note_on,,,,,0,0,15,,,,13,,,36,63
370800,note_on,,,,,0,0,14,,,,12,,,67,63
370800,note_on,,,,,240,0,14,,,,12,,,63,0
370800,note_on,,,,,240,0,15,,,,13,,,63,0
370944,note_on,,,,,384,0,3,,,,1,,,72,0
371040,note_on,,,,,240,0,14,,,,12,,,67,0
371040,note_on,,,,,0,0,12,,,,10,,,80,63
371040,note_on,,,,,0,0,14,,,,12,,,68,63
371040,note_on,,,,,240,0,12,,,,10,,,79,0
371280,note_on,,,,,0,0,12,,,,10,,,75,63
371280,note_on,,,,,240,0,12,,,,10,,,80,0
371280,note_on,,,,,240,0,14,,,,12,,,68,0
371280,note_on,,,,,0,0,14,,,,12,,,63,63
371520,note_on,,,,,0,0,12,,,,10,,,79,63
371520,note_on,,,,,240,0,14,,,,12,,,63,0
371520,note_on,,,,,0,0,14,,,,12,,,67,63
371520,note_on,,,,,240,0,12,,,,10,,,75,0
371760,note_on,,,,,0,0,14,,,,12,,,72,63
371760,note_on,,,,,240,0,12,,,,10,,,79,0
371760,note_on,,,,,0,0,12,,,,10,,,84,63
371760,note_on,,,,,240,0,14,,,,12,,,67,0
372000,note_on,,,,,240,0,12,,,,10,,,84,0
372000,note_on,,,,,0,0,12,,,,10,,,87,63
372000,note_on,,,,,240,0,14,,,,12,,,72,0
372000,note_on,,,,,1056,0,3,,,,1,,,79,90
372000,note_on,,,,,0,0,3,,,,1,,,75,70
372000,note_on,,,,,0,0,14,,,,12,,,75,63
372240,note_on,,,,,0,0,14,,,,12,,,72,63
372240,note_on,,,,,240,0,14,,,,12,,,75,0
372240,note_on,,,,,240,0,12,,,,10,,,87,0
372240,note_on,,,,,0,0,12,,,,10,,,84,63
372480,note_on,,,,,480,0,3,,,,1,,,75,0
372480,note_on,,,,,0,0,14,,,,12,,,67,63
372480,note_on,,,,,240,0,14,,,,12,,,72,0
372480,note_on,,,,,0,0,12,,,,10,,,79,63
372480,note_on,,,,,0,0,3,,,,1,,,74,70
372480,note_on,,,,,0,0,3,,,,1,,,77,90
372480,note_on,,,,,0,0,3,,,,1,,,79,0
372480,note_on,,,,,240,0,12,,,,10,,,84,0
372720,note_on,,,,,240,0,14,,,,12,,,67,0
372720,note_on,,,,,0,0,14,,,,12,,,63,63
372720,note_on,,,,,240,0,12,,,,10,,,79,0
372720,note_on,,,,,0,0,12,,,,10,,,75,63
372960,note_on,,,,,240,0,12,,,,10,,,75,0
372960,note_on,,,,,0,0,12,,,,10,,,72,63
372960,note_on,,,,,0,0,3,,,,1,,,75,70
372960,note_on,,,,,0,0,3,,,,1,,,72,70
372960,note_on,,,,,0,0,3,,,,1,,,77,0
372960,note_on,,,,,0,0,14,,,,12,,,60,63
372960,note_on,,,,,240,0,14,,,,12,,,63,0
372960,note_on,,,,,480,0,3,,,,1,,,74,0
373200,note_on,,,,,240,0,12,,,,10,,,72,0
373200,note_on,,,,,0,0,12,,,,10,,,67,63
373200,note_on,,,,,240,0,14,,,,12,,,60,0
373200,note_on,,,,,0,0,14,,,,12,,,55,63
373200,note_on,,,,,2400,0,15,,,,13,,,55,63
373344,note_on,,,,,0,0,3,,,,1,,,72,0
373344,note_on,,,,,384,0,3,,,,1,,,75,0
373440,note_on,,,,,0,0,15,,,,13,,,56,63
373440,note_on,,,,,240,0,15,,,,13,,,55,0
373440,note_on,,,,,240,0,14,,,,12,,,55,0
373440,note_on,,,,,0,0,14,,,,12,,,56,63
373440,note_on,,,,,0,0,12,,,,10,,,68,63
373440,note_on,,,,,240,0,12,,,,10,,,67,0
373680,note_on,,,,,0,0,15,,,,13,,,51,63
373680,note_on,,,,,240,0,15,,,,13,,,56,0
373680,note_on,,,,,240,0,14,,,,12,,,56,0
373680,note_on,,,,,0,0,12,,,,10,,,63,63
373680,note_on,,,,,240,0,12,,,,10,,,68,0
373920,note_on,,,,,240,0,12,,,,10,,,63,0
373920,note_on,,,,,0,0,6,,,,3,,,60,63
373920,note_on,,,,,0,0,1,,,,0,,,92,63
373920,note_on,,,,,4896,0,6,,,,3,,,68,63
373920,note_on,,,,,0,0,4,,,,2,,,72,63
373920,note_on,,,,,4896,0,1,,,,0,,,84,63
373920,note_on,,,,,4896,0,4,,,,2,,,78,63
373920,note_on,,,,,0,0,12,,,,10,,,60,63
373920,note_on,,,,,240,0,15,,,,13,,,51,0
373920,note_on,,,,,0,0,15,,,,13,,,48,63
374016,note_on,,,,,5376,0,16,,,,14,,,36,0
374160,note_on,,,,,240,0,15,,,,13,,,48,0
374160,note_on,,,,,240,0,12,,,,10,,,60,0
374160,note_on,,,,,0,0,12,,,,10,,,55,63
374160,note_on,,,,,0,0,15,,,,13,,,43,63
374304,note_on,,,,,0,0,13,,,,11,,,63,0
374304,note_on,,,,,4704,0,13,,,,11,,,60,0
374400,note_on,,,,,480,0,4,,,,2,,,72,0
374400,note_on,,,,,96,0,13,,,,11,,,56,63
374400,set_tempo,,,,,21120,1,0,476190,,,,,,,
374400,note_on,,,,,0,0,4,,,,2,,,78,0
374400,note_on,,,,,0,0,1,,,,0,,,87,70
374400,note_on,,,,,0,0,4,,,,2,,,78,70
374400,note_on,,,,,0,0,4,,,,2,,,75,70
374400,note_on,,,,,0,0,15,,,,13,,,44,70
374400,note_on,,,,,384,0,16,,,,14,,,36,70
374400,note_on,,,,,480,0,1,,,,0,,,92,0
374400,note_on,,,,,240,0,12,,,,10,,,55,0
374400,note_on,,,,,0,0,12,,,,10,,,56,70
374400,note_on,,,,,240,0,15,,,,13,,,43,0
374400,note_on,,,,,0,0,15,,,,13,,,36,0
374400,note_on,,,,,0,0,15,,,,13,,,36,70
374400,note_on,,,,,0,0,1,,,,0,,,84,0
374400,note_on,,,,,0,0,1,,,,0,,,90,70
374400,note_on,,,,,0,0,6,,,,3,,,68,0
374400,note_on,,,,,0,0,6,,,,3,,,66,70
374400,note_on,,,,,0,0,6,,,,3,,,63,70
374400,note_on,,,,,480,0,6,,,,3,,,60,0
376282,note_on,,,,,1882,0,13,,,,11,,,56,0
376282,note_on,,,,,0,0,15,,,,13,,,36,0
376282,note_on,,,,,1882,0,12,,,,10,,,56,0
376282,note_on,,,,,1882,0,16,,,,14,,,36,0
376282,note_on,,,,,1882,0,15,,,,13,,,44,0
376320,note_on,,,,,38,0,15,,,,13,,,37,38
376320,set_tempo,,,,,1920,1,0,434783,,,,,,,
376320,note_on,,,,,1920,0,1,,,,0,,,87,0
376320,note_on,,,,,0,0,1,,,,0,,,90,0
376320,note_on,,,,,0,0,1,,,,0,,,88,63
376320,note_on,,,,,1920,0,4,,,,2,,,75,0
376320,note_on,,,,,0,0,4,,,,2,,,78,0
376320,note_on,,,,,0,0,4,,,,2,,,76,63
376320,note_on,,,,,0,0,6,,,,3,,,61,63
376320,note_on,,,,,0,0,6,,,,3,,,64,63
376320,note_on,,,,,0,0,6,,,,3,,,66,0
376320,note_on,,,,,1920,0,6,,,,3,,,63,0
376320,note_on,,,,,0,0,4,,,,2,,,73,63
376320,note_on,,,,,38,0,16,,,,14,,,37,63
376320,note_on,,,,,0,0,1,,,,0,,,85,63
376560,note_on,,,,,2880,0,14,,,,12,,,52,63
376560,note_on,,,,,240,0,15,,,,13,,,40,38
376704,note_on,,,,,0,0,4,,,,2,,,76,0
376704,note_on,,,,,384,0,4,,,,2,,,73,0
376704,note_on,,,,,384,0,6,,,,3,,,61,0
376704,note_on,,,,,0,0,6,,,,3,,,64,0
376704,note_on,,,,,0,0,1,,,,0,,,88,0
376704,note_on,,,,,384,0,1,,,,0,,,85,0
376800,note_on,,,,,518,0,12,,,,10,,,57,63
376800,note_on,,,,,240,0,14,,,,12,,,52,0
376800,note_on,,,,,240,0,15,,,,13,,,40,0
376800,note_on,,,,,0,0,15,,,,13,,,45,38
376800,note_on,,,,,0,0,14,,,,12,,,57,63
377040,note_on,,,,,0,0,14,,,,12,,,61,63
377040,note_on,,,,,0,0,15,,,,13,,,49,38
377040,note_on,,,,,0,0,12,,,,10,,,61,63
377040,note_on,,,,,240,0,12,,,,10,,,57,0
377040,note_on,,,,,240,0,15,,,,13,,,45,0
377040,note_on,,,,,240,0,14,,,,12,,,57,0
377280,note_on,,,,,0,0,15,,,,13,,,54,38
377280,note_on,,,,,240,0,14,,,,12,,,61,0
377280,note_on,,,,,0,0,14,,,,12,,,66,38
377280,note_on,,,,,240,0,15,,,,13,,,49,0
377280,note_on,,,,,0,0,12,,,,10,,,66,63
377280,note_on,,,,,240,0,12,,,,10,,,61,0
377280,note_on,,,,,998,0,13,,,,11,,,57,63
377520,note_on,,,,,240,0,15,,,,13,,,54,0
377520,note_on,,,,,0,0,15,,,,13,,,49,38
377520,note_on,,,,,240,0,14,,,,12,,,66,0
377520,note_on,,,,,0,0,14,,,,12,,,61,38
377520,note_on,,,,,0,0,12,,,,10,,,61,63
377520,note_on,,,,,240,0,12,,,,10,,,66,0
377760,note_on,,,,,240,0,15,,,,13,,,49,0
377760,note_on,,,,,240,0,12,,,,10,,,61,0
377760,note_on,,,,,0,0,15,,,,13,,,52,38
377760,note_on,,,,,240,0,14,,,,12,,,61,0
377760,note_on,,,,,0,0,14,,,,12,,,64,38
377760,note_on,,,,,4416,0,3,,,,1,,,73,90
377760,note_on,,,,,0,0,12,,,,10,,,64,63
378000,note_on,,,,,240,0,12,,,,10,,,64,0
378000,note_on,,,,,0,0,12,,,,10,,,69,63
378000,note_on,,,,,0,0,15,,,,13,,,57,38
378000,note_on,,,,,240,0,14,,,,12,,,64,0
378000,note_on,,,,,240,0,15,,,,13,,,52,0
378000,note_on,,,,,0,0,14,,,,12,,,57,38
378240,note_on,,,,,240,0,12,,,,10,,,69,0
378240,note_on,,,,,0,0,12,,,,10,,,73,63
378240,note_on,,,,,0,0,15,,,,13,,,61,38
378240,note_on,,,,,0,0,3,,,,1,,,69,70
378240,note_on,,,,,0,0,14,,,,12,,,61,63
378240,note_on,,,,,240,0,14,,,,12,,,57,0
378240,note_on,,,,,240,0,15,,,,13,,,57,0
378240,note_on,,,,,480,0,3,,,,1,,,73,0
378480,note_on,,,,,240,0,15,,,,13,,,61,0
378480,note_on,,,,,0,0,14,,,,12,,,64,63
378480,note_on,,,,,240,0,12,,,,10,,,73,0
378480,note_on,,,,,0,0,12,,,,10,,,76,63
378480,note_on,,,,,240,0,14,,,,12,,,61,0
378720,note_on,,,,,240,0,14,,,,12,,,64,0
378720,note_on,,,,,0,0,12,,,,10,,,78,63
378720,note_on,,,,,240,0,12,,,,10,,,76,0
378720,note_on,,,,,0,0,14,,,,12,,,66,63
378960,note_on,,,,,0,0,12,,,,10,,,73,63
378960,note_on,,,,,240,0,12,,,,10,,,78,0
378960,note_on,,,,,0,0,14,,,,12,,,61,63
378960,note_on,,,,,240,0,14,,,,12,,,66,0
379008,note_on,,,,,768,0,3,,,,1,,,69,0
379200,note_on,,,,,240,0,12,,,,10,,,73,0
379200,note_on,,,,,0,0,12,,,,10,,,76,63
379200,note_on,,,,,240,0,14,,,,12,,,61,0
379200,note_on,,,,,0,0,14,,,,12,,,64,63
379440,note_on,,,,,240,0,12,,,,10,,,76,0
379440,note_on,,,,,0,0,12,,,,10,,,81,63
379440,note_on,,,,,0,0,14,,,,12,,,69,63
379440,note_on,,,,,240,0,14,,,,12,,,64,0
379680,note_on,,,,,0,0,3,,,,1,,,76,90
379680,note_on,,,,,0,0,14,,,,12,,,73,63
379680,note_on,,,,,240,0,14,,,,12,,,69,0
379680,note_on,,,,,672,0,3,,,,1,,,73,70
379680,note_on,,,,,0,0,12,,,,10,,,85,63
379680,note_on,,,,,240,0,12,,,,10,,,81,0
379920,note_on,,,,,240,0,12,,,,10,,,85,0
379920,note_on,,,,,240,0,14,,,,12,,,73,0
379920,note_on,,,,,0,0,14,,,,12,,,69,63
379920,note_on,,,,,0,0,12,,,,10,,,81,63
380160,note_on,,,,,0,0,3,,,,1,,,73,0
380160,note_on,,,,,480,0,3,,,,1,,,76,0
380160,note_on,,,,,0,0,3,,,,1,,,71,70
380160,note_on,,,,,0,0,3,,,,1,,,74,90
380160,note_on,,,,,240,0,12,,,,10,,,81,0
380160,note_on,,,,,240,0,14,,,,12,,,69,0
380160,note_on,,,,,0,0,14,,,,12,,,64,63
380160,note_on,,,,,0,0,12,,,,10,,,76,63
380400,note_on,,,,,0,0,12,,,,10,,,73,63
380400,note_on,,,,,240,0,14,,,,12,,,64,0
380400,note_on,,,,,0,0,14,,,,12,,,61,63
380400,note_on,,,,,240,0,12,,,,10,,,76,0
380640,note_on,,,,,240,0,12,,,,10,,,73,0
380640,note_on,,,,,0,0,12,,,,10,,,69,63
380640,note_on,,,,,240,0,14,,,,12,,,61,0
380640,note_on,,,,,0,0,3,,,,1,,,69,70
380640,note_on,,,,,0,0,3,,,,1,,,74,0
380640,note_on,,,,,0,0,14,,,,12,,,57,38
380640,note_on,,,,,2160,0,15,,,,13,,,57,38
380640,note_on,,,,,0,0,3,,,,1,,,73,70
380640,note_on,,,,,480,0,3,,,,1,,,71,0
380880,note_on,,,,,0,0,15,,,,13,,,52,38
380880,note_on,,,,,240,0,15,,,,13,,,57,0
380880,note_on,,,,,240,0,12,,,,10,,,69,0
380880,note_on,,,,,0,0,12,,,,10,,,64,63
380880,note_on,,,,,240,0,14,,,,12,,,57,0
380880,note_on,,,,,0,0,14,,,,12,,,64,38
381024,note_on,,,,,0,0,3,,,,1,,,69,0
381024,note_on,,,,,384,0,3,,,,1,,,73,0
381120,note_on,,,,,240,0,15,,,,13,,,52,0
381120,note_on,,,,,0,0,14,,,,12,,,65,38
381120,note_on,,,,,240,0,14,,,,12,,,64,0
381120,note_on,,,,,0,0,15,,,,13,,,53,38
381120,note_on,,,,,0,0,12,,,,10,,,65,63
381120,note_on,,,,,240,0,12,,,,10,,,64,0
381360,note_on,,,,,240,0,12,,,,10,,,65,0
381360,note_on,,,,,240,0,15,,,,13,,,53,0
381360,note_on,,,,,0,0,15,,,,13,,,49,38
381360,note_on,,,,,240,0,14,,,,12,,,65,0
381360,note_on,,,,,0,0,14,,,,12,,,61,38
381360,note_on,,,,,0,0,12,,,,10,,,61,63
381600,note_on,,,,,0,0,4,,,,2,,,77,63
381600,note_on,,,,,240,0,15,,,,13,,,49,0
381600,note_on,,,,,4896,0,4,,,,2,,,81,63
381600,note_on,,,,,0,0,15,,,,13,,,45,38
381600,note_on,,,,,4896,0,6,,,,3,,,69,63
381600,note_on,,,,,240,0,14,,,,12,,,61,0
381600,note_on,,,,,0,0,12,,,,10,,,57,63
381600,note_on,,,,,0,0,6,,,,3,,,65,63
381600,note_on,,,,,0,0,14,,,,12,,,57,38
381600,note_on,,,,,240,0,12,,,,10,,,61,0
381600,note_on,,,,,0,0,1,,,,0,,,93,63
381600,note_on,,,,,4896,0,1,,,,0,,,89,63
381840,note_on,,,,,240,0,12,,,,10,,,57,0
381840,note_on,,,,,240,0,15,,,,13,,,45,0
381840,note_on,,,,,240,0,14,,,,12,,,57,0
381840,note_on,,,,,0,0,14,,,,12,,,53,38
381840,note_on,,,,,0,0,15,,,,13,,,41,38
381984,note_on,,,,,5664,0,16,,,,14,,,37,0
381984,note_on,,,,,4704,0,13,,,,11,,,57,0
382068,note_on,,,,,228,0,15,,,,13,,,41,0
382068,note_on,,,,,0,0,15,,,,13,,,37,0
382068,note_on,,,,,228,0,14,,,,12,,,53,0
382080,note_on,,,,,0,0,1,,,,0,,,89,0
382080,note_on,,,,,480,0,1,,,,0,,,93,0
382080,note_on,,,,,0,0,1,,,,0,,,91,70
382080,note_on,,,,,0,0,1,,,,0,,,88,70
382080,set_tempo,,,,,5760,1,0,476190,,,,,,,
382080,note_on,,,,,480,0,6,,,,3,,,65,0
382080,note_on,,,,,0,0,6,,,,3,,,69,0
382080,note_on,,,,,0,0,6,,,,3,,,64,70
382080,note_on,,,,,480,0,4,,,,2,,,77,0
382080,note_on,,,,,0,0,4,,,,2,,,81,0
382080,note_on,,,,,0,0,4,,,,2,,,79,70
382080,note_on,,,,,0,0,4,,,,2,,,76,70
382080,note_on,,,,,0,0,15,,,,13,,,37,70
382080,note_on,,,,,12,0,15,,,,13,,,45,70
382080,note_on,,,,,96,0,13,,,,11,,,57,70
382080,note_on,,,,,96,0,16,,,,14,,,37,70
382080,note_on,,,,,12,0,14,,,,12,,,52,70
382080,note_on,,,,,0,0,6,,,,3,,,67,70
383962,note_on,,,,,0,0,15,,,,13,,,45,0
383962,note_on,,,,,1882,0,15,,,,13,,,37,0
383962,note_on,,,,,1882,0,16,,,,14,,,37,0
384000,note_on,,,,,1920,0,4,,,,2,,,76,0
384000,note_on,,,,,1920,0,14,,,,12,,,52,0
384000,set_tempo,,,,,1920,1,0,434783,,,,,,,
384000,note_on,,,,,0,0,15,,,,13,,,46,63
384000,note_on,,,,,0,0,4,,,,2,,,74,63
384000,note_on,,,,,38,0,15,,,,13,,,38,63
384000,note_on,,,,,0,0,1,,,,0,,,89,63
384000,note_on,,,,,0,0,1,,,,0,,,86,63
384000,note_on,,,,,0,0,1,,,,0,,,88,0
384000,note_on,,,,,1920,0,1,,,,0,,,91,0
384000,note_on,,,,,0,0,14,,,,12,,,50,63
384000,note_on,,,,,0,0,4,,,,2,,,77,63
384000,note_on,,,,,0,0,13,,,,11,,,58,63
384000,note_on,,,,,0,0,4,,,,2,,,79,0
384000,note_on,,,,,1920,0,6,,,,3,,,67,0
384000,note_on,,,,,38,0,16,,,,14,,,38,38
384000,note_on,,,,,2160,0,12,,,,10,,,77,63
384000,note_on,,,,,0,0,6,,,,3,,,65,63
384000,note_on,,,,,0,0,6,,,,3,,,62,63
384000,note_on,,,,,0,0,6,,,,3,,,64,0
384000,note_on,,,,,1920,0,13,,,,11,,,57,0
384240,note_on,,,,,240,0,12,,,,10,,,77,0
384240,note_on,,,,,0,0,12,,,,10,,,74,63
384384,note_on,,,,,384,0,13,,,,11,,,58,0
384384,note_on,,,,,384,0,6,,,,3,,,65,0
384384,note_on,,,,,0,0,6,,,,3,,,62,0
384384,note_on,,,,,384,0,4,,,,2,,,77,0
384384,note_on,,,,,0,0,1,,,,0,,,86,0
384384,note_on,,,,,384,0,14,,,,12,,,50,0
384384,note_on,,,,,0,0,4,,,,2,,,74,0
384384,note_on,,,,,384,0,1,,,,0,,,89,0
384480,note_on,,,,,0,0,12,,,,10,,,70,63
384480,note_on,,,,,240,0,12,,,,10,,,74,0
384720,note_on,,,,,240,0,12,,,,10,,,70,0
384720,note_on,,,,,0,0,12,,,,10,,,65,63
384960,note_on,,,,,0,0,12,,,,10,,,66,63
384960,note_on,,,,,576,0,14,,,,12,,,66,63
384960,note_on,,,,,240,0,12,,,,10,,,65,0
385200,note_on,,,,,240,0,14,,,,12,,,66,0
385200,note_on,,,,,0,0,14,,,,12,,,62,63
385200,note_on,,,,,240,0,12,,,,10,,,66,0
385200,note_on,,,,,0,0,12,,,,10,,,62,38
385440,note_on,,,,,0,0,9,,,,5,,,70,63
385440,note_on,,,,,24096,0,9,,,,5,,,58,63
385440,note_on,,,,,240,0,12,,,,10,,,62,0
385440,note_on,,,,,240,0,14,,,,12,,,62,0
385440,note_on,,,,,0,0,14,,,,12,,,58,63
385440,note_on,,,,,4416,0,3,,,,1,,,78,63
385440,note_on,,,,,0,0,3,,,,1,,,82,63
385440,note_on,,,,,0,0,12,,,,10,,,58,38
385680,note_on,,,,,240,0,12,,,,10,,,58,0
385680,note_on,,,,,0,0,14,,,,12,,,54,63
385680,note_on,,,,,240,0,14,,,,12,,,58,0
385882,note_on,,,,,1882,0,15,,,,13,,,46,0
385882,note_on,,,,,1882,0,16,,,,14,,,38,0
385882,note_on,,,,,0,0,15,,,,13,,,38,0
385920,note_on,,,,,0,0,3,,,,1,,,80,63
385920,set_tempo,,,,,1920,1,0,454545,,,,,,,
385920,note_on,,,,,38,0,15,,,,13,,,38,63
385920,note_on,,,,,0,0,15,,,,13,,,46,63
385920,note_on,,,,,480,0,3,,,,1,,,82,0
385920,note_on,,,,,0,0,9,,,,5,,,58,0
385920,note_on,,,,,38,0,16,,,,14,,,38,38
385920,note_on,,,,,0,0,3,,,,1,,,77,63
385920,note_on,,,,,1536,0,13,,,,11,,,58,63
385920,note_on,,,,,480,0,9,,,,5,,,70,0
385920,note_on,,,,,0,0,14,,,,12,,,53,63
385920,note_on,,,,,240,0,14,,,,12,,,54,0
385920,note_on,,,,,0,0,9,,,,5,,,68,63
385920,note_on,,,,,0,0,9,,,,5,,,65,63
385920,note_on,,,,,0,0,3,,,,1,,,78,0
387840,note_on,,,,,0,0,9,,,,5,,,63,63
387840,note_on,,,,,26496,0,11,,,,7,,,47,38
387840,note_on,,,,,0,0,16,,,,14,,,39,38
387840,note_on,,,,,1920,0,16,,,,14,,,38,0
387840,note_on,,,,,0,0,10,,,,6,,,71,63
387840,note_on,,,,,34176,0,10,,,,6,,,59,63
387840,note_on,,,,,1920,0,9,,,,5,,,68,0
387840,note_on,,,,,0,0,8,,,,4,,,59,63
387840,note_on,,,,,26496,0,8,,,,4,,,47,63
387840,note_on,,,,,1920,0,13,,,,11,,,58,0
387840,note_on,,,,,1920,0,3,,,,1,,,80,0
387840,note_on,,,,,0,0,3,,,,1,,,78,63
387840,note_on,,,,,0,0,3,,,,1,,,77,0
387840,note_on,,,,,0,0,13,,,,11,,,59,63
387840,note_on,,,,,0,0,9,,,,5,,,65,0
387840,note_on,,,,,1920,0,14,,,,12,,,53,0
387840,note_on,,,,,2160,0,12,,,,10,,,78,63
387840,set_tempo,,,,,1920,1,0,447761,,,,,,,
387840,note_on,,,,,0,0,9,,,,5,,,66,63
387840,note_on,,,,,1920,0,15,,,,13,,,46,0
387840,note_on,,,,,0,0,15,,,,13,,,38,0
387840,note_on,,,,,0,0,15,,,,13,,,39,63
387840,note_on,,,,,0,0,15,,,,13,,,47,63
387840,note_on,,,,,0,0,3,,,,1,,,75,63
387840,note_on,,,,,0,0,14,,,,12,,,51,63
387888,note_on,,,,,48,0,11,,,,7,,,47,0
387900,note_on,,,,,12,0,11,,,,7,,,47,38
387948,note_on,,,,,48,0,11,,,,7,,,47,0
387960,note_on,,,,,12,0,11,,,,7,,,47,38
388008,note_on,,,,,48,0,11,,,,7,,,47,0
388020,note_on,,,,,12,0,11,,,,7,,,47,38
388068,note_on,,,,,48,0,11,,,,7,,,47,0
388080,note_on,,,,,0,0,12,,,,10,,,75,63
388080,note_on,,,,,240,0,12,,,,10,,,78,0
388080,note_on,,,,,12,0,11,,,,7,,,47,38
388128,note_on,,,,,48,0,11,,,,7,,,47,0
388140,note_on,,,,,12,0,11,,,,7,,,47,38
388188,note_on,,,,,48,0,11,,,,7,,,47,0
388200,note_on,,,,,12,0,11,,,,7,,,47,38
388224,note_on,,,,,0,0,9,,,,5,,,66,0
388224,note_on,,,,,384,0,13,,,,11,,,59,0
388224,note_on,,,,,0,0,3,,,,1,,,75,0
388224,note_on,,,,,384,0,3,,,,1,,,78,0
388224,note_on,,,,,384,0,9,,,,5,,,63,0
388248,note_on,,,,,48,0,11,,,,7,,,47,0
388260,note_on,,,,,12,0,11,,,,7,,,47,38
388308,note_on,,,,,48,0,11,,,,7,,,47,0
388320,note_on,,,,,240,0,12,,,,10,,,75,0
388320,note_on,,,,,480,0,14,,,,12,,,51,0
388320,note_on,,,,,0,0,12,,,,10,,,71,63
388320,note_on,,,,,12,0,11,,,,7,,,47,38
388368,note_on,,,,,48,0,11,,,,7,,,47,0
388380,note_on,,,,,12,0,11,,,,7,,,47,38
388428,note_on,,,,,48,0,11,,,,7,,,47,0
388440,note_on,,,,,12,0,11,,,,7,,,47,38
388488,note_on,,,,,48,0,11,,,,7,,,47,0
388500,note_on,,,,,12,0,11,,,,7,,,47,38
388548,note_on,,,,,48,0,11,,,,7,,,47,0
388560,note_on,,,,,0,0,12,,,,10,,,67,63
388560,note_on,,,,,388560,0,5,,,,2,,,59,70
388560,note_on,,,,,12,0,11,,,,7,,,47,38
388560,note_on,,,,,240,0,12,,,,10,,,71,0
388560,note_on,,,,,388560,0,7,,,,3,,,47,70
388608,note_on,,,,,48,0,11,,,,7,,,47,0
388608,note_on,,,,,768,0,8,,,,4,,,59,0
388620,note_on,,,,,12,0,11,,,,7,,,47,38
388668,note_on,,,,,48,0,11,,,,7,,,47,0
388680,note_on,,,,,120,0,5,,,,2,,,59,0
388680,note_on,,,,,0,0,7,,,,3,,,51,70
388680,note_on,,,,,0,0,5,,,,2,,,63,70
388680,note_on,,,,,120,0,7,,,,3,,,47,0
388680,note_on,,,,,12,0,11,,,,7,,,47,38
388728,note_on,,,,,48,0,11,,,,7,,,47,0
388740,note_on,,,,,12,0,11,,,,7,,,47,38
388788,note_on,,,,,48,0,11,,,,7,,,47,0
388800,note_on,,,,,0,0,12,,,,10,,,66,63
388800,note_on,,,,,120,0,7,,,,3,,,51,0
388800,note_on,,,,,240,0,12,,,,10,,,67,0
388800,note_on,,,,,12,0,11,,,,7,,,47,38
388800,note_on,,,,,0,0,5,,,,2,,,66,70
388800,note_on,,,,,0,0,7,,,,3,,,54,70
388800,note_on,,,,,480,0,14,,,,12,,,66,63
388800,note_on,,,,,120,0,5,,,,2,,,63,0
388848,note_on,,,,,48,0,11,,,,7,,,47,0
388860,note_on,,,,,12,0,11,,,,7,,,47,38
388908,note_on,,,,,48,0,11,,,,7,,,47,0
388920,note_on,,,,,12,0,11,,,,7,,,47,38
388968,note_on,,,,,48,0,11,,,,7,,,47,0
388980,note_on,,,,,12,0,11,,,,7,,,47,38
389028,note_on,,,,,48,0,11,,,,7,,,47,0
389040,note_on,,,,,240,0,12,,,,10,,,66,0
389040,note_on,,,,,0,0,14,,,,12,,,59,63
389040,note_on,,,,,12,0,11,,,,7,,,47,38
389040,note_on,,,,,240,0,14,,,,12,,,66,0
389088,note_on,,,,,48,0,11,,,,7,,,47,0
389100,note_on,,,,,12,0,11,,,,7,,,47,38
389120,note_on,,,,,0,0,7,,,,3,,,51,70
389120,note_on,,,,,320,0,5,,,,2,,,66,0
389120,note_on,,,,,0,0,5,,,,2,,,63,70
389120,note_on,,,,,320,0,7,,,,3,,,54,0
389148,note_on,,,,,48,0,11,,,,7,,,47,0
389160,note_on,,,,,12,0,11,,,,7,,,47,38
389208,note_on,,,,,48,0,11,,,,7,,,47,0
389220,note_on,,,,,12,0,11,,,,7,,,47,38
389268,note_on,,,,,48,0,11,,,,7,,,47,0
389280,note_on,,,,,1056,0,3,,,,1,,,83,70
389280,note_on,,,,,0,0,14,,,,12,,,67,63
389280,note_on,,,,,12,0,11,,,,7,,,47,38
389280,note_on,,,,,240,0,14,,,,12,,,59,0
389280,note_on,,,,,672,0,8,,,,4,,,71,63
389328,note_on,,,,,48,0,11,,,,7,,,47,0
389340,note_on,,,,,12,0,11,,,,7,,,47,38
389388,note_on,,,,,48,0,11,,,,7,,,47,0
389400,note_on,,,,,12,0,11,,,,7,,,47,38
389440,note_on,,,,,0,0,5,,,,2,,,67,70
389440,note_on,,,,,320,0,5,,,,2,,,63,0
389440,note_on,,,,,320,0,7,,,,3,,,51,0
389440,note_on,,,,,0,0,7,,,,3,,,55,70
389448,note_on,,,,,48,0,11,,,,7,,,47,0
389460,note_on,,,,,12,0,11,,,,7,,,47,38
389508,note_on,,,,,48,0,11,,,,7,,,47,0
389520,note_on,,,,,12,0,11,,,,7,,,47,38
389520,note_on,,,,,5136,0,4,,,,2,,,71,70
389520,note_on,,,,,240,0,14,,,,12,,,67,0
389520,note_on,,,,,0,0,14,,,,12,,,63,63
389520,note_on,,,,,5136,0,1,,,,0,,,71,70
389520,note_on,,,,,5136,0,6,,,,3,,,59,70
389568,note_on,,,,,48,0,11,,,,7,,,47,0
389580,note_on,,,,,12,0,11,,,,7,,,47,38
389628,note_on,,,,,48,0,11,,,,7,,,47,0
389640,note_on,,,,,120,0,6,,,,3,,,59,0
389640,note_on,,,,,120,0,1,,,,0,,,71,0
389640,note_on,,,,,0,0,6,,,,3,,,63,70
389640,note_on,,,,,120,0,4,,,,2,,,71,0
389640,note_on,,,,,12,0,11,,,,7,,,47,38
389640,note_on,,,,,0,0,4,,,,2,,,75,70
389640,note_on,,,,,0,0,1,,,,0,,,75,70
389688,note_on,,,,,48,0,11,,,,7,,,47,0
389700,note_on,,,,,12,0,11,,,,7,,,47,38
389748,note_on,,,,,48,0,11,,,,7,,,47,0
389760,note_on,,,,,0,0,5,,,,2,,,66,70
389760,note_on,,,,,320,0,7,,,,3,,,55,0
389760,note_on,,,,,0,0,14,,,,12,,,66,63
389760,note_on,,,,,0,0,8,,,,4,,,69,63
389760,note_on,,,,,480,0,8,,,,4,,,71,0
389760,note_on,,,,,120,0,4,,,,2,,,75,0
389760,note_on,,,,,12,0,11,,,,7,,,47,38
389760,note_on,,,,,240,0,14,,,,12,,,63,0
389760,note_on,,,,,480,0,3,,,,1,,,83,0
389760,note_on,,,,,0,0,3,,,,1,,,81,70
389760,note_on,,,,,0,0,7,,,,3,,,54,70
389760,note_on,,,,,720,0,12,,,,10,,,66,63
389760,note_on,,,,,0,0,6,,,,3,,,66,70
389760,note_on,,,,,0,0,4,,,,2,,,78,70
389760,note_on,,,,,120,0,6,,,,3,,,63,0
389760,note_on,,,,,320,0,5,,,,2,,,67,0
389760,note_on,,,,,120,0,1,,,,0,,,75,0
389760,note_on,,,,,0,0,1,,,,0,,,78,70
389808,note_on,,,,,48,0,11,,,,7,,,47,0
389820,note_on,,,,,12,0,11,,,,7,,,47,38
389868,note_on,,,,,48,0,11,,,,7,,,47,0
389880,note_on,,,,,12,0,11,,,,7,,,47,38
389928,note_on,,,,,48,0,11,,,,7,,,47,0
389940,note_on,,,,,12,0,11,,,,7,,,47,38
389988,note_on,,,,,48,0,11,,,,7,,,47,0
390000,note_on,,,,,240,0,12,,,,10,,,66,0
390000,note_on,,,,,0,0,12,,,,10,,,59,63
390000,note_on,,,,,240,0,14,,,,12,,,66,0
390000,note_on,,,,,12,0,11,,,,7,,,47,38
390048,note_on,,,,,48,0,11,,,,7,,,47,0
390060,note_on,,,,,12,0,11,,,,7,,,47,38
390080,note_on,,,,,320,0,1,,,,0,,,78,0
390080,note_on,,,,,320,0,6,,,,3,,,66,0
390080,note_on,,,,,0,0,6,,,,3,,,63,70
390080,note_on,,,,,320,0,4,,,,2,,,78,0
390080,note_on,,,,,0,0,4,,,,2,,,75,70
390080,note_on,,,,,0,0,1,,,,0,,,75,70
390108,note_on,,,,,48,0,11,,,,7,,,47,0
390120,note_on,,,,,12,0,11,,,,7,,,47,38
390168,note_on,,,,,48,0,11,,,,7,,,47,0
390180,note_on,,,,,12,0,11,,,,7,,,47,38
390228,note_on,,,,,48,0,11,,,,7,,,47,0
390240,note_on,,,,,480,0,5,,,,2,,,66,0
390240,note_on,,,,,240,0,12,,,,10,,,59,0
390240,note_on,,,,,12,0,11,,,,7,,,47,38
390240,note_on,,,,,0,0,12,,,,10,,,67,63
390240,note_on,,,,,480,0,7,,,,3,,,54,0
390288,note_on,,,,,48,0,11,,,,7,,,47,0
390300,note_on,,,,,12,0,11,,,,7,,,47,38
390348,note_on,,,,,48,0,11,,,,7,,,47,0
390360,note_on,,,,,12,0,11,,,,7,,,47,38
390400,note_on,,,,,320,0,1,,,,0,,,75,0
390400,note_on,,,,,0,0,1,,,,0,,,79,70
390400,note_on,,,,,0,0,6,,,,3,,,67,70
390400,note_on,,,,,320,0,6,,,,3,,,63,0
390400,note_on,,,,,320,0,4,,,,2,,,75,0
390400,note_on,,,,,0,0,4,,,,2,,,79,70
390408,note_on,,,,,48,0,11,,,,7,,,47,0
390420,note_on,,,,,12,0,11,,,,7,,,47,38
390468,note_on,,,,,48,0,11,,,,7,,,47,0
390480,note_on,,,,,0,0,12,,,,10,,,63,63
390480,note_on,,,,,240,0,12,,,,10,,,67,0
390480,note_on,,,,,12,0,11,,,,7,,,47,38
390480,note_on,,,,,240,0,7,,,,3,,,59,70
390480,note_on,,,,,240,0,5,,,,2,,,71,70
390480,note_on,,,,,390480,0,2,,,,0,,,83,70
390528,note_on,,,,,768,0,8,,,,4,,,69,0
390528,note_on,,,,,48,0,11,,,,7,,,47,0
390540,note_on,,,,,12,0,11,,,,7,,,47,38
390588,note_on,,,,,48,0,11,,,,7,,,47,0
390600,note_on,,,,,0,0,5,,,,2,,,75,70
390600,note_on,,,,,0,0,7,,,,3,,,63,70
390600,note_on,,,,,120,0,7,,,,3,,,59,0
390600,note_on,,,,,0,0,2,,,,0,,,87,70
390600,note_on,,,,,120,0,2,,,,0,,,83,0
390600,note_on,,,,,12,0,11,,,,7,,,47,38
390600,note_on,,,,,120,0,5,,,,2,,,71,0
390648,note_on,,,,,48,0,11,,,,7,,,47,0
390660,note_on,,,,,12,0,11,,,,7,,,47,38
390708,note_on,,,,,48,0,11,,,,7,,,47,0
390720,note_on,,,,,120,0,2,,,,0,,,87,0
390720,note_on,,,,,12,0,11,,,,7,,,47,38
390720,note_on,,,,,0,0,2,,,,0,,,90,70
390720,note_on,,,,,240,0,12,,,,10,,,63,0
390720,note_on,,,,,0,0,12,,,,10,,,66,63
390720,note_on,,,,,320,0,4,,,,2,,,79,0
390720,note_on,,,,,320,0,1,,,,0,,,79,0
390720,note_on,,,,,0,0,7,,,,3,,,66,70
390720,note_on,,,,,120,0,7,,,,3,,,63,0
390720,note_on,,,,,0,0,1,,,,0,,,78,70
390720,note_on,,,,,960,0,3,,,,1,,,81,0
390720,note_on,,,,,320,0,6,,,,3,,,67,0
390720,note_on,,,,,0,0,6,,,,3,,,66,70
390720,note_on,,,,,0,0,4,,,,2,,,78,70
390720,note_on,,,,,720,0,14,,,,12,,,66,63
390720,note_on,,,,,0,0,5,,,,2,,,78,70
390720,note_on,,,,,120,0,5,,,,2,,,75,0
390768,note_on,,,,,48,0,11,,,,7,,,47,0
390780,note_on,,,,,12,0,11,,,,7,,,47,38
390828,note_on,,,,,48,0,11,,,,7,,,47,0
390840,note_on,,,,,12,0,11,,,,7,,,47,38
390888,note_on,,,,,48,0,11,,,,7,,,47,0
390900,note_on,,,,,12,0,11,,,,7,,,47,38
390948,note_on,,,,,48,0,11,,,,7,,,47,0
390960,note_on,,,,,0,0,14,,,,12,,,59,63
390960,note_on,,,,,240,0,14,,,,12,,,66,0
390960,note_on,,,,,240,0,12,,,,10,,,66,0
390960,note_on,,,,,12,0,11,,,,7,,,47,38
391008,note_on,,,,,48,0,11,,,,7,,,47,0
391020,note_on,,,,,12,0,11,,,,7,,,47,38
391040,note_on,,,,,320,0,5,,,,2,,,78,0
391040,note_on,,,,,0,0,5,,,,2,,,75,70
391040,note_on,,,,,320,0,7,,,,3,,,66,0
391040,note_on,,,,,0,0,7,,,,3,,,63,70
391040,note_on,,,,,0,0,2,,,,0,,,87,70
391040,note_on,,,,,320,0,2,,,,0,,,90,0
391040,note_on,,,,,320,0,1,,,,0,,,78,0
391068,note_on,,,,,48,0,11,,,,7,,,47,0
391080,note_on,,,,,12,0,11,,,,7,,,47,38
391128,note_on,,,,,48,0,11,,,,7,,,47,0
391140,note_on,,,,,12,0,11,,,,7,,,47,38
391188,note_on,,,,,48,0,11,,,,7,,,47,0
391200,note_on,,,,,0,0,14,,,,12,,,67,63
391200,note_on,,,,,240,0,14,,,,12,,,59,0
391200,note_on,,,,,480,0,6,,,,3,,,66,0
391200,note_on,,,,,480,0,3,,,,1,,,83,70
391200,note_on,,,,,480,0,4,,,,2,,,78,0
391200,note_on,,,,,12,0,11,,,,7,,,47,38
391200,note_on,,,,,672,0,8,,,,4,,,71,63
391248,note_on,,,,,48,0,11,,,,7,,,47,0
391260,note_on,,,,,12,0,11,,,,7,,,47,38
391308,note_on,,,,,48,0,11,,,,7,,,47,0
391320,note_on,,,,,12,0,11,,,,7,,,47,38
391360,note_on,,,,,0,0,5,,,,2,,,79,70
391360,note_on,,,,,320,0,5,,,,2,,,75,0
391360,note_on,,,,,0,0,7,,,,3,,,67,70
391360,note_on,,,,,320,0,7,,,,3,,,63,0
391360,note_on,,,,,0,0,2,,,,0,,,91,70
391360,note_on,,,,,320,0,2,,,,0,,,87,0
391368,note_on,,,,,48,0,11,,,,7,,,47,0
391380,note_on,,,,,12,0,11,,,,7,,,47,38
391428,note_on,,,,,48,0,11,,,,7,,,47,0
391440,note_on,,,,,12,0,11,,,,7,,,47,38
391440,note_on,,,,,240,0,14,,,,12,,,67,0
391440,note_on,,,,,0,0,14,,,,12,,,63,63
391488,note_on,,,,,48,0,11,,,,7,,,47,0
391500,note_on,,,,,12,0,11,,,,7,,,47,38
391548,note_on,,,,,48,0,11,,,,7,,,47,0
391560,note_on,,,,,12,0,11,,,,7,,,47,38
391608,note_on,,,,,48,0,11,,,,7,,,47,0
391620,note_on,,,,,12,0,11,,,,7,,,47,38
391668,note_on,,,,,48,0,11,,,,7,,,47,0
391680,note_on,,,,,0,0,2,,,,0,,,90,70
391680,note_on,,,,,320,0,2,,,,0,,,91,0
391680,note_on,,,,,0,0,5,,,,2,,,78,70
391680,note_on,,,,,0,0,7,,,,3,,,66,70
391680,note_on,,,,,480,0,8,,,,4,,,71,0
391680,note_on,,,,,0,0,3,,,,1,,,81,70
391680,note_on,,,,,480,0,3,,,,1,,,83,0
391680,note_on,,,,,0,0,8,,,,4,,,69,63
391680,note_on,,,,,12,0,11,,,,7,,,47,38
391680,note_on,,,,,240,0,14,,,,12,,,63,0
391680,note_on,,,,,320,0,7,,,,3,,,67,0
391680,note_on,,,,,320,0,5,,,,2,,,79,0
391680,note_on,,,,,0,0,14,,,,12,,,66,63
391728,note_on,,,,,48,0,11,,,,7,,,47,0
391740,note_on,,,,,12,0,11,,,,7,,,47,38
391788,note_on,,,,,48,0,11,,,,7,,,47,0
391800,note_on,,,,,12,0,11,,,,7,,,47,38
391848,note_on,,,,,48,0,11,,,,7,,,47,0
391860,note_on,,,,,12,0,11,,,,7,,,47,38
391908,note_on,,,,,48,0,11,,,,7,,,47,0
391920,note_on,,,,,12,0,11,,,,7,,,47,38
391920,note_on,,,,,240,0,14,,,,12,,,66,0
391920,note_on,,,,,0,0,14,,,,12,,,63,63
391968,note_on,,,,,48,0,11,,,,7,,,47,0
391980,note_on,,,,,12,0,11,,,,7,,,47,38
392000,note_on,,,,,320,0,2,,,,0,,,90,0
392000,note_on,,,,,320,0,5,,,,2,,,78,0
392000,note_on,,,,,320,0,7,,,,3,,,66,0
392000,note_on,,,,,0,0,7,,,,3,,,63,70
392000,note_on,,,,,0,0,2,,,,0,,,87,70
392000,note_on,,,,,0,0,5,,,,2,,,75,70
392028,note_on,,,,,48,0,11,,,,7,,,47,0
392040,note_on,,,,,12,0,11,,,,7,,,47,38
392088,note_on,,,,,48,0,11,,,,7,,,47,0
392100,note_on,,,,,12,0,11,,,,7,,,47,38
392148,note_on,,,,,48,0,11,,,,7,,,47,0
392160,note_on,,,,,240,0,14,,,,12,,,63,0
392160,note_on,,,,,0,0,14,,,,12,,,66,63
392160,note_on,,,,,12,0,11,,,,7,,,47,38
392208,note_on,,,,,48,0,11,,,,7,,,47,0
392220,note_on,,,,,12,0,11,,,,7,,,47,38
392268,note_on,,,,,48,0,11,,,,7,,,47,0
392280,note_on,,,,,12,0,11,,,,7,,,47,38
392320,note_on,,,,,0,0,5,,,,2,,,71,70
392320,note_on,,,,,320,0,2,,,,0,,,87,0
392320,note_on,,,,,0,0,2,,,,0,,,83,70
392320,note_on,,,,,320,0,5,,,,2,,,75,0
392320,note_on,,,,,1120,0,6,,,,3,,,71,70
392320,note_on,,,,,320,0,7,,,,3,,,63,0
392320,note_on,,,,,0,0,7,,,,3,,,59,70
392320,note_on,,,,,1280,0,1,,,,0,,,95,70
392320,note_on,,,,,1120,0,4,,,,2,,,83,70
392328,note_on,,,,,48,0,11,,,,7,,,47,0
392340,note_on,,,,,12,0,11,,,,7,,,47,38
392388,note_on,,,,,48,0,11,,,,7,,,47,0
392400,note_on,,,,,12,0,11,,,,7,,,47,38
392400,note_on,,,,,240,0,14,,,,12,,,66,0
392400,note_on,,,,,0,0,14,,,,12,,,63,63
392448,note_on,,,,,48,0,11,,,,7,,,47,0
392460,note_on,,,,,12,0,11,,,,7,,,47,38
392508,note_on,,,,,48,0,11,,,,7,,,47,0
392520,note_on,,,,,12,0,11,,,,7,,,47,38
392568,note_on,,,,,48,0,11,,,,7,,,47,0
392580,note_on,,,,,12,0,11,,,,7,,,47,38
392628,note_on,,,,,48,0,11,,,,7,,,47,0
392640,note_on,,,,,320,0,5,,,,2,,,71,0
392640,note_on,,,,,320,0,1,,,,0,,,95,0
392640,note_on,,,,,0,0,6,,,,3,,,67,70
392640,note_on,,,,,12,0,11,,,,7,,,47,38
392640,note_on,,,,,0,0,1,,,,0,,,91,70
392640,note_on,,,,,320,0,6,,,,3,,,71,0
392640,note_on,,,,,320,0,2,,,,0,,,83,0
392640,note_on,,,,,320,0,7,,,,3,,,59,0
392640,note_on,,,,,0,0,4,,,,2,,,79,70
392640,note_on,,,,,320,0,4,,,,2,,,83,0
392640,note_on,,,,,0,0,14,,,,12,,,59,63
392640,note_on,,,,,240,0,14,,,,12,,,63,0
392688,note_on,,,,,48,0,11,,,,7,,,47,0
392700,note_on,,,,,12,0,11,,,,7,,,47,38
392748,note_on,,,,,48,0,11,,,,7,,,47,0
392760,note_on,,,,,12,0,11,,,,7,,,47,38
392808,note_on,,,,,48,0,11,,,,7,,,47,0
392820,note_on,,,,,12,0,11,,,,7,,,47,38
392868,note_on,,,,,48,0,11,,,,7,,,47,0
392880,note_on,,,,,240,0,14,,,,12,,,59,0
392880,note_on,,,,,12,0,11,,,,7,,,47,38
392928,note_on,,,,,48,0,11,,,,7,,,47,0
392940,note_on,,,,,12,0,11,,,,7,,,47,38
392960,note_on,,,,,320,0,6,,,,3,,,67,0
392960,note_on,,,,,0,0,6,,,,3,,,66,70
392960,note_on,,,,,320,0,1,,,,0,,,91,0
392960,note_on,,,,,320,0,4,,,,2,,,79,0
392960,note_on,,,,,0,0,4,,,,2,,,78,70
392960,note_on,,,,,0,0,1,,,,0,,,90,63
392988,note_on,,,,,48,0,11,,,,7,,,47,0
393000,note_on,,,,,12,0,11,,,,7,,,47,38
393024,note_on,,,,,1344,0,8,,,,4,,,69,0
393048,note_on,,,,,48,0,11,,,,7,,,47,0
393060,note_on,,,,,12,0,11,,,,7,,,47,38
393108,note_on,,,,,48,0,11,,,,7,,,47,0
393120,note_on,,,,,1440,0,3,,,,1,,,81,0
393120,note_on,,,,,12,0,11,,,,7,,,47,38
393168,note_on,,,,,48,0,11,,,,7,,,47,0
393180,note_on,,,,,12,0,11,,,,7,,,47,38
393228,note_on,,,,,48,0,11,,,,7,,,47,0
393240,note_on,,,,,12,0,11,,,,7,,,47,38
393280,note_on,,,,,0,0,1,,,,0,,,87,63
393280,note_on,,,,,640,0,7,,,,3,,,59,63
393280,note_on,,,,,640,0,2,,,,0,,,83,63
393280,note_on,,,,,0,0,6,,,,3,,,63,63
393280,note_on,,,,,320,0,6,,,,3,,,66,0
393280,note_on,,,,,0,0,4,,,,2,,,75,63
393280,note_on,,,,,640,0,5,,,,2,,,71,63
393280,note_on,,,,,320,0,1,,,,0,,,90,0
393280,note_on,,,,,320,0,4,,,,2,,,78,0
393288,note_on,,,,,48,0,11,,,,7,,,47,0
393300,note_on,,,,,12,0,11,,,,7,,,47,38
393348,note_on,,,,,48,0,11,,,,7,,,47,0
393360,note_on,,,,,12,0,11,,,,7,,,47,38
393408,note_on,,,,,48,0,11,,,,7,,,47,0
393420,note_on,,,,,12,0,11,,,,7,,,47,38
393468,note_on,,,,,48,0,11,,,,7,,,47,0
393480,note_on,,,,,12,0,11,,,,7,,,47,38
393528,note_on,,,,,48,0,11,,,,7,,,47,0
393540,note_on,,,,,12,0,11,,,,7,,,47,38
393588,note_on,,,,,48,0,11,,,,7,,,47,0
393600,note_on,,,,,320,0,5,,,,2,,,71,0
393600,note_on,,,,,320,0,2,,,,0,,,83,0
393600,note_on,,,,,12,0,11,,,,7,,,47,38
393600,note_on,,,,,0,0,6,,,,3,,,59,63
393600,note_on,,,,,320,0,6,,,,3,,,63,0
393600,note_on,,,,,320,0,4,,,,2,,,75,0
393600,note_on,,,,,0,0,7,,,,3,,,55,63
393600,note_on,,,,,320,0,7,,,,3,,,59,0
393600,note_on,,,,,0,0,1,,,,0,,,83,63
393600,note_on,,,,,320,0,1,,,,0,,,87,0
393600,note_on,,,,,0,0,2,,,,0,,,79,63
393600,note_on,,,,,0,0,4,,,,2,,,71,63
393600,note_on,,,,,0,0,5,,,,2,,,67,63
393648,note_on,,,,,48,0,11,,,,7,,,47,0
393660,note_on,,,,,12,0,11,,,,7,,,47,38
393708,note_on,,,,,48,0,11,,,,7,,,47,0
393720,note_on,,,,,12,0,11,,,,7,,,47,38
393768,note_on,,,,,48,0,11,,,,7,,,47,0
393780,note_on,,,,,12,0,11,,,,7,,,47,38
393828,note_on,,,,,48,0,11,,,,7,,,47,0
393840,note_on,,,,,12,0,11,,,,7,,,47,38
393888,note_on,,,,,48,0,11,,,,7,,,47,0
393900,note_on,,,,,12,0,11,,,,7,,,47,38
393920,note_on,,,,,320,0,5,,,,2,,,67,0
393920,note_on,,,,,0,0,5,,,,2,,,66,63
393920,note_on,,,,,320,0,2,,,,0,,,79,0
393920,note_on,,,,,0,0,2,,,,0,,,78,63
393920,note_on,,,,,320,0,1,,,,0,,,83,0
393920,note_on,,,,,320,0,7,,,,3,,,55,0
393920,note_on,,,,,0,0,7,,,,3,,,54,63
393920,note_on,,,,,320,0,4,,,,2,,,71,0
393920,note_on,,,,,320,0,6,,,,3,,,59,0
393948,note_on,,,,,48,0,11,,,,7,,,47,0
393960,note_on,,,,,12,0,11,,,,7,,,47,38
394008,note_on,,,,,48,0,11,,,,7,,,47,0
394020,note_on,,,,,12,0,11,,,,7,,,47,38
394068,note_on,,,,,48,0,11,,,,7,,,47,0
394080,note_on,,,,,12,0,11,,,,7,,,47,38
394128,note_on,,,,,48,0,11,,,,7,,,47,0
394140,note_on,,,,,12,0,11,,,,7,,,47,38
394188,note_on,,,,,48,0,11,,,,7,,,47,0
394200,note_on,,,,,12,0,11,,,,7,,,47,38
394240,note_on,,,,,0,0,5,,,,2,,,63,63
394240,note_on,,,,,320,0,6,,,,3,,,59,63
394240,note_on,,,,,0,0,7,,,,3,,,51,63
394240,note_on,,,,,320,0,7,,,,3,,,54,0
394240,note_on,,,,,320,0,5,,,,2,,,66,0
394240,note_on,,,,,320,0,4,,,,2,,,71,63
394240,note_on,,,,,320,0,2,,,,0,,,78,0
394240,note_on,,,,,0,0,2,,,,0,,,75,63
394248,note_on,,,,,48,0,11,,,,7,,,47,0
394260,note_on,,,,,12,0,11,,,,7,,,47,38
394308,note_on,,,,,48,0,11,,,,7,,,47,0
394320,note_on,,,,,12,0,11,,,,7,,,47,38
394368,note_on,,,,,48,0,11,,,,7,,,47,0
394380,note_on,,,,,12,0,11,,,,7,,,47,38
394428,note_on,,,,,48,0,11,,,,7,,,47,0
394440,note_on,,,,,12,0,11,,,,7,,,47,38
394488,note_on,,,,,48,0,11,,,,7,,,47,0
394500,note_on,,,,,12,0,11,,,,7,,,47,38
394548,note_on,,,,,48,0,11,,,,7,,,47,0
394560,note_on,,,,,0,0,2,,,,0,,,71,63
394560,note_on,,,,,320,0,6,,,,3,,,59,0
394560,note_on,,,,,0,0,6,,,,3,,,55,63
394560,note_on,,,,,320,0,5,,,,2,,,63,0
394560,note_on,,,,,0,0,5,,,,2,,,59,63
394560,note_on,,,,,12,0,11,,,,7,,,47,38
394560,note_on,,,,,320,0,2,,,,0,,,75,0
394560,note_on,,,,,320,0,4,,,,2,,,71,0
394560,note_on,,,,,0,0,4,,,,2,,,67,63
394560,note_on,,,,,0,0,7,,,,3,,,47,63
394560,note_on,,,,,320,0,7,,,,3,,,51,0
394608,note_on,,,,,48,0,11,,,,7,,,47,0
394620,note_on,,,,,12,0,11,,,,7,,,47,38
394668,note_on,,,,,48,0,11,,,,7,,,47,0
394680,note_on,,,,,12,0,11,,,,7,,,47,38
394728,note_on,,,,,48,0,11,,,,7,,,47,0
394740,note_on,,,,,12,0,11,,,,7,,,47,38
394788,note_on,,,,,48,0,11,,,,7,,,47,0
394800,note_on,,,,,12,0,11,,,,7,,,47,38
394816,note_on,,,,,256,0,7,,,,3,,,47,0
394848,note_on,,,,,48,0,11,,,,7,,,47,0
394860,note_on,,,,,12,0,11,,,,7,,,47,38
394880,note_on,,,,,320,0,4,,,,2,,,67,0
394880,note_on,,,,,0,0,4,,,,2,,,66,63
394880,note_on,,,,,64,0,7,,,,3,,,42,63
394880,note_on,,,,,320,0,6,,,,3,,,55,0
394880,note_on,,,,,0,0,6,,,,3,,,54,63
394908,note_on,,,,,48,0,11,,,,7,,,47,0
394920,note_on,,,,,12,0,11,,,,7,,,47,38
394968,note_on,,,,,48,0,11,,,,7,,,47,0
394980,note_on,,,,,12,0,11,,,,7,,,47,38
395028,note_on,,,,,48,0,11,,,,7,,,47,0
395040,note_on,,,,,12,0,11,,,,7,,,47,38
395040,note_on,,,,,480,0,2,,,,0,,,71,0
395040,note_on,,,,,480,0,5,,,,2,,,59,0
395088,note_on,,,,,48,0,11,,,,7,,,47,0
395100,note_on,,,,,12,0,11,,,,7,,,47,38
395136,note_on,,,,,256,0,7,,,,3,,,42,0
395148,note_on,,,,,48,0,11,,,,7,,,47,0
395160,note_on,,,,,12,0,11,,,,7,,,47,38
395200,note_on,,,,,320,0,6,,,,3,,,54,0
395200,note_on,,,,,64,0,7,,,,3,,,39,63
395200,note_on,,,,,320,0,4,,,,2,,,66,0
395200,note_on,,,,,0,0,6,,,,3,,,51,63
395200,note_on,,,,,0,0,4,,,,2,,,63,63
395208,note_on,,,,,48,0,11,,,,7,,,47,0
395220,note_on,,,,,12,0,11,,,,7,,,47,38
395268,note_on,,,,,48,0,11,,,,7,,,47,0
395280,note_on,,,,,12,0,11,,,,7,,,47,38
395328,note_on,,,,,48,0,11,,,,7,,,47,0
395340,note_on,,,,,12,0,11,,,,7,,,47,38
395388,note_on,,,,,48,0,11,,,,7,,,47,0
395400,note_on,,,,,12,0,11,,,,7,,,47,38
395448,note_on,,,,,48,0,11,,,,7,,,47,0
395456,note_on,,,,,256,0,7,,,,3,,,39,0
395460,note_on,,,,,12,0,11,,,,7,,,47,38
395508,note_on,,,,,48,0,11,,,,7,,,47,0
395520,set_tempo,,,,,7680,1,0,428571,,,,,,,
395520,note_on,,,,,64,0,7,,,,3,,,35,63
395520,note_on,,,,,0,0,6,,,,3,,,47,63
395520,note_on,,,,,320,0,6,,,,3,,,51,0
395520,note_on,,,,,0,0,4,,,,2,,,59,63
395520,note_on,,,,,320,0,4,,,,2,,,63,0
395520,note_on,,,,,12,0,11,,,,7,,,47,58
395904,note_on,,,,,384,0,7,,,,3,,,35,0
395904,note_on,,,,,384,0,11,,,,7,,,47,0
395904,note_on,,,,,8064,0,16,,,,14,,,39,0
395904,note_on,,,,,2880,0,8,,,,4,,,47,0
395904,note_on,,,,,0,0,10,,,,6,,,59,0
395904,note_on,,,,,8064,0,10,,,,6,,,71,0
395904,note_on,,,,,8064,0,15,,,,13,,,47,0
395904,note_on,,,,,0,0,15,,,,13,,,39,0
396000,note_on,,,,,480,0,6,,,,3,,,47,0
396000,note_on,,,,,480,0,4,,,,2,,,59,0
396240,note_on,,,,,336,0,16,,,,14,,,36,116
396240,note_on,,,,,8016,0,9,,,,5,,,64,116
396240,note_on,,,,,8016,0,13,,,,11,,,64,116
396240,note_on,,,,,0,0,14,,,,12,,,69,105
396240,note_on,,,,,5280,0,12,,,,10,,,69,116
396240,note_on,,,,,3360,0,14,,,,12,,,64,105
396240,note_on,,,,,336,0,15,,,,13,,,48,116
396336,note_on,,,,,96,0,13,,,,11,,,64,0
396336,note_on,,,,,96,0,9,,,,5,,,64,0
396336,note_on,,,,,96,0,16,,,,14,,,36,0
396336,note_on,,,,,96,0,12,,,,10,,,69,0
396336,note_on,,,,,96,0,15,,,,13,,,48,0
396360,note_on,,,,,24,0,15,,,,13,,,45,116
396360,note_on,,,,,24,0,13,,,,11,,,69,116
396360,note_on,,,,,24,0,16,,,,14,,,33,116
396360,note_on,,,,,24,0,9,,,,5,,,64,116
396360,note_on,,,,,24,0,12,,,,10,,,72,116
396432,note_on,,,,,0,0,14,,,,12,,,64,0
396432,note_on,,,,,192,0,14,,,,12,,,69,0
396456,note_on,,,,,96,0,16,,,,14,,,33,0
396456,note_on,,,,,96,0,15,,,,13,,,45,0
396456,note_on,,,,,96,0,9,,,,5,,,64,0
396456,note_on,,,,,96,0,13,,,,11,,,69,0
396456,note_on,,,,,96,0,12,,,,10,,,72,0
396480,note_on,,,,,24,0,16,,,,14,,,30,116
396480,note_on,,,,,48,0,14,,,,12,,,69,105
396480,note_on,,,,,24,0,12,,,,10,,,76,116
396480,note_on,,,,,0,0,14,,,,12,,,72,105
396480,note_on,,,,,24,0,13,,,,11,,,72,116
396480,note_on,,,,,24,0,9,,,,5,,,64,116
396480,note_on,,,,,24,0,15,,,,13,,,42,116
397200,note_on,,,,,1296,0,8,,,,4,,,66,116
397200,note_on,,,,,1296,0,10,,,,6,,,78,116
397296,note_on,,,,,96,0,8,,,,4,,,66,0
397296,note_on,,,,,96,0,10,,,,6,,,78,0
397320,note_on,,,,,24,0,8,,,,4,,,66,116
397320,note_on,,,,,24,0,10,,,,6,,,78,116
397392,note_on,,,,,912,0,16,,,,14,,,30,0
397392,note_on,,,,,912,0,13,,,,11,,,72,0
397392,note_on,,,,,912,0,9,,,,5,,,64,0
397392,note_on,,,,,0,0,14,,,,12,,,69,0
397392,note_on,,,,,912,0,14,,,,12,,,72,0
397392,note_on,,,,,912,0,15,,,,13,,,42,0
397392,note_on,,,,,912,0,12,,,,10,,,76,0
397416,note_on,,,,,96,0,10,,,,6,,,78,0
397434,note_on,,,,,114,0,8,,,,4,,,66,0
397440,note_on,,,,,24,0,10,,,,6,,,78,116
397440,note_on,,,,,6,0,8,,,,4,,,66,116
398160,note_on,,,,,768,0,15,,,,13,,,54,116
398160,note_on,,,,,0,0,14,,,,12,,,69,105
398160,note_on,,,,,768,0,13,,,,11,,,69,116
398160,note_on,,,,,768,0,16,,,,14,,,42,116
398160,note_on,,,,,768,0,14,,,,12,,,66,105
398160,note_on,,,,,768,0,9,,,,5,,,57,116
398160,note_on,,,,,0,0,9,,,,5,,,69,116
398160,note_on,,,,,768,0,12,,,,10,,,75,116
398208,note_on,,,,,768,0,10,,,,6,,,78,0
398256,note_on,,,,,96,0,15,,,,13,,,54,0
398256,note_on,,,,,96,0,13,,,,11,,,69,0
398256,note_on,,,,,96,0,16,,,,14,,,42,0
398256,note_on,,,,,96,0,12,,,,10,,,75,0
398274,note_on,,,,,114,0,9,,,,5,,,69,0
398274,note_on,,,,,0,0,9,,,,5,,,57,0
398280,note_on,,,,,24,0,16,,,,14,,,39,116
398280,note_on,,,,,24,0,13,,,,11,,,75,116
398280,note_on,,,,,24,0,12,,,,10,,,78,116
398280,note_on,,,,,24,0,15,,,,13,,,51,116
398280,note_on,,,,,6,0,9,,,,5,,,57,116
398280,note_on,,,,,0,0,9,,,,5,,,69,116
398352,note_on,,,,,912,0,8,,,,4,,,66,0
398352,note_on,,,,,0,0,14,,,,12,,,66,0
398352,note_on,,,,,192,0,14,,,,12,,,69,0
398376,note_on,,,,,96,0,12,,,,10,,,78,0
398376,note_on,,,,,96,0,15,,,,13,,,51,0
398376,note_on,,,,,96,0,16,,,,14,,,39,0
398376,note_on,,,,,96,0,13,,,,11,,,75,0
398394,note_on,,,,,0,0,9,,,,5,,,57,0
398394,note_on,,,,,114,0,9,,,,5,,,69,0
398400,note_on,,,,,24,0,15,,,,13,,,47,116
398400,note_on,,,,,24,0,16,,,,14,,,35,116
398400,note_on,,,,,48,0,14,,,,12,,,69,105
398400,note_on,,,,,24,0,12,,,,10,,,81,116
398400,note_on,,,,,0,0,14,,,,12,,,75,105
398400,note_on,,,,,0,0,9,,,,5,,,69,116
398400,note_on,,,,,6,0,9,,,,5,,,57,116
398400,note_on,,,,,24,0,13,,,,11,,,78,116
399120,note_on,,,,,768,0,8,,,,4,,,59,116
399120,note_on,,,,,0,0,8,,,,4,,,71,116
399120,note_on,,,,,912,0,10,,,,6,,,71,116
399216,note_on,,,,,96,0,10,,,,6,,,71,0
399234,note_on,,,,,114,0,8,,,,4,,,71,0
399234,note_on,,,,,0,0,8,,,,4,,,59,0
399240,note_on,,,,,6,0,8,,,,4,,,59,116
399240,note_on,,,,,0,0,8,,,,4,,,71,116
399240,note_on,,,,,24,0,10,,,,6,,,71,116
399312,note_on,,,,,0,0,9,,,,5,,,57,0
399312,note_on,,,,,912,0,15,,,,13,,,47,0
399312,note_on,,,,,912,0,16,,,,14,,,35,0
399312,note_on,,,,,912,0,12,,,,10,,,81,0
399312,note_on,,,,,912,0,13,,,,11,,,78,0
399312,note_on,,,,,0,0,14,,,,12,,,69,0
399312,note_on,,,,,912,0,14,,,,12,,,75,0
399312,note_on,,,,,912,0,9,,,,5,,,69,0
399336,note_on,,,,,96,0,10,,,,6,,,71,0
399336,note_on,,,,,96,0,8,,,,4,,,71,0
399336,note_on,,,,,0,0,8,,,,4,,,59,0
399360,note_on,,,,,24,0,8,,,,4,,,59,116
399360,note_on,,,,,24,0,10,,,,6,,,71,116
399360,note_on,,,,,0,0,8,,,,4,,,71,116
400080,note_on,,,,,768,0,15,,,,13,,,59,116
400080,note_on,,,,,768,0,12,,,,10,,,80,116
400080,note_on,,,,,768,0,14,,,,12,,,74,105
400080,note_on,,,,,0,0,14,,,,12,,,71,105
400080,note_on,,,,,768,0,16,,,,14,,,47,116
400080,note_on,,,,,768,0,9,,,,5,,,62,116
400080,note_on,,,,,768,0,13,,,,11,,,74,116
400128,note_on,,,,,768,0,10,,,,6,,,71,0
400128,note_on,,,,,768,0,8,,,,4,,,71,0
400128,note_on,,,,,0,0,8,,,,4,,,59,0
400152,note_on,,,,,72,0,12,,,,10,,,80,0
400152,note_on,,,,,72,0,15,,,,13,,,59,0
400152,note_on,,,,,72,0,13,,,,11,,,74,0
400152,note_on,,,,,72,0,16,,,,14,,,47,0
400176,note_on,,,,,96,0,9,,,,5,,,62,0
400200,note_on,,,,,48,0,13,,,,11,,,80,116
400200,note_on,,,,,24,0,9,,,,5,,,62,116
400200,note_on,,,,,48,0,16,,,,14,,,44,116
400200,note_on,,,,,48,0,12,,,,10,,,83,116
400200,note_on,,,,,48,0,15,,,,13,,,56,116
400224,note_on,,,,,144,0,14,,,,12,,,71,0
400224,note_on,,,,,0,0,14,,,,12,,,74,0
400272,note_on,,,,,72,0,13,,,,11,,,80,0
400272,note_on,,,,,72,0,15,,,,13,,,56,0
400272,note_on,,,,,72,0,12,,,,10,,,83,0
400272,note_on,,,,,72,0,16,,,,14,,,44,0
400296,note_on,,,,,96,0,9,,,,5,,,62,0
400320,note_on,,,,,96,0,14,,,,12,,,71,105
400320,note_on,,,,,0,0,14,,,,12,,,68,105
400320,note_on,,,,,48,0,13,,,,11,,,83,116
400320,note_on,,,,,48,0,12,,,,10,,,86,116
400320,note_on,,,,,24,0,9,,,,5,,,62,116
400320,note_on,,,,,48,0,16,,,,14,,,40,116
400320,note_on,,,,,48,0,15,,,,13,,,52,116
400512,note_on,,,,,192,0,13,,,,11,,,83,0
400512,note_on,,,,,192,0,12,,,,10,,,86,0
400608,note_on,,,,,288,0,14,,,,12,,,68,0
400608,note_on,,,,,0,0,14,,,,12,,,71,0
400608,note_on,,,,,288,0,16,,,,14,,,40,0
400608,note_on,,,,,288,0,15,,,,13,,,52,0
400640,note_on,,,,,128,0,13,,,,11,,,80,116
400640,note_on,,,,,128,0,12,,,,10,,,83,116
400800,note_on,,,,,192,0,16,,,,14,,,44,116
400800,note_on,,,,,0,0,14,,,,12,,,71,105
400800,note_on,,,,,192,0,15,,,,13,,,56,116
400800,note_on,,,,,192,0,14,,,,12,,,64,105
400832,note_on,,,,,192,0,12,,,,10,,,83,0
400832,note_on,,,,,192,0,13,,,,11,,,80,0
400960,note_on,,,,,128,0,12,,,,10,,,88,116
400960,note_on,,,,,128,0,13,,,,11,,,76,116
401040,note_on,,,,,0,0,8,,,,4,,,64,116
401040,note_on,,,,,912,0,8,,,,4,,,52,116
401040,note_on,,,,,912,0,10,,,,6,,,76,116
401040,note_on,,,,,0,0,10,,,,6,,,64,116
401088,note_on,,,,,288,0,15,,,,13,,,56,0
401088,note_on,,,,,288,0,16,,,,14,,,44,0
401088,note_on,,,,,288,0,14,,,,12,,,71,0
401088,note_on,,,,,0,0,14,,,,12,,,64,0
401088,note_on,,,,,768,0,9,,,,5,,,62,0
401136,note_on,,,,,96,0,8,,,,4,,,64,0
401136,note_on,,,,,0,0,10,,,,6,,,76,0
401136,note_on,,,,,96,0,10,,,,6,,,64,0
401136,note_on,,,,,0,0,8,,,,4,,,52,0
401152,note_on,,,,,192,0,13,,,,11,,,76,0
401152,note_on,,,,,192,0,12,,,,10,,,88,0
401160,note_on,,,,,24,0,8,,,,4,,,52,116
401160,note_on,,,,,0,0,10,,,,6,,,64,116
401160,note_on,,,,,24,0,10,,,,6,,,76,116
401160,note_on,,,,,0,0,8,,,,4,,,64,116
401256,note_on,,,,,96,0,8,,,,4,,,64,0
401256,note_on,,,,,96,0,10,,,,6,,,64,0
401256,note_on,,,,,0,0,10,,,,6,,,76,0
401256,note_on,,,,,0,0,8,,,,4,,,52,0
401280,note_on,,,,,192,0,14,,,,12,,,64,105
401280,note_on,,,,,192,0,15,,,,13,,,57,116
401280,note_on,,,,,24,0,10,,,,6,,,64,116
401280,note_on,,,,,0,0,10,,,,6,,,76,116
401280,note_on,,,,,0,0,8,,,,4,,,64,116
401280,note_on,,,,,0,0,14,,,,12,,,72,105
401280,note_on,,,,,128,0,12,,,,10,,,84,116
401280,note_on,,,,,128,0,13,,,,11,,,72,116
401280,note_on,,,,,24,0,8,,,,4,,,52,116
401280,note_on,,,,,192,0,16,,,,14,,,45,116
401472,note_on,,,,,192,0,14,,,,12,,,72,0
401472,note_on,,,,,0,0,14,,,,12,,,64,0
401472,note_on,,,,,192,0,12,,,,10,,,84,0
401472,note_on,,,,,192,0,13,,,,11,,,72,0
401568,note_on,,,,,288,0,10,,,,6,,,76,0
401568,note_on,,,,,0,0,10,,,,6,,,64,0
401568,note_on,,,,,0,0,8,,,,4,,,52,0
401568,note_on,,,,,288,0,8,,,,4,,,64,0
401568,note_on,,,,,288,0,16,,,,14,,,45,0
401568,note_on,,,,,288,0,15,,,,13,,,57,0
401600,note_on,,,,,128,0,13,,,,11,,,69,116
401600,note_on,,,,,128,0,12,,,,10,,,81,116
401600,note_on,,,,,128,0,14,,,,12,,,69,105
401760,note_on,,,,,192,0,8,,,,4,,,66,116
401760,note_on,,,,,192,0,10,,,,6,,,78,116
401760,note_on,,,,,192,0,16,,,,14,,,42,116
401760,note_on,,,,,192,0,15,,,,13,,,54,116
401792,note_on,,,,,192,0,12,,,,10,,,81,0
401792,note_on,,,,,192,0,14,,,,12,,,69,0
401792,note_on,,,,,192,0,13,,,,11,,,69,0
401920,note_on,,,,,128,0,14,,,,12,,,66,105
401920,note_on,,,,,128,0,13,,,,11,,,66,116
401920,note_on,,,,,128,0,12,,,,10,,,78,116
402048,note_on,,,,,288,0,10,,,,6,,,78,0
402048,note_on,,,,,288,0,8,,,,4,,,66,0
402048,note_on,,,,,288,0,15,,,,13,,,54,0
402048,note_on,,,,,288,0,16,,,,14,,,42,0
402112,note_on,,,,,192,0,14,,,,12,,,66,0
402112,note_on,,,,,192,0,12,,,,10,,,78,0
402112,note_on,,,,,192,0,13,,,,11,,,66,0
402240,note_on,,,,,192,0,16,,,,14,,,39,116
402240,note_on,,,,,128,0,12,,,,10,,,75,116
402240,note_on,,,,,192,0,15,,,,13,,,51,116
402240,note_on,,,,,128,0,14,,,,12,,,63,105
402240,note_on,,,,,128,0,13,,,,11,,,63,116
402432,note_on,,,,,192,0,12,,,,10,,,75,0
402432,note_on,,,,,192,0,14,,,,12,,,63,0
402432,note_on,,,,,192,0,13,,,,11,,,63,0
402528,note_on,,,,,288,0,15,,,,13,,,51,0
402528,note_on,,,,,288,0,16,,,,14,,,39,0
402560,note_on,,,,,128,0,12,,,,10,,,71,116
402560,note_on,,,,,128,0,14,,,,12,,,59,105
402560,note_on,,,,,128,0,13,,,,11,,,59,116
402720,note_on,,,,,192,0,15,,,,13,,,47,116
402720,note_on,,,,,0,0,10,,,,6,,,71,116
402720,note_on,,,,,672,0,10,,,,6,,,59,116
402720,note_on,,,,,672,0,8,,,,4,,,59,116
402720,note_on,,,,,192,0,16,,,,14,,,35,116
402752,note_on,,,,,192,0,14,,,,12,,,59,0
402752,note_on,,,,,192,0,12,,,,10,,,71,0
402752,note_on,,,,,192,0,13,,,,11,,,59,0
402880,note_on,,,,,128,0,14,,,,12,,,71,105
402880,note_on,,,,,128,0,13,,,,11,,,75,116
402880,note_on,,,,,0,0,13,,,,11,,,67,116
402880,note_on,,,,,128,0,12,,,,10,,,79,116
402880,note_on,,,,,0,0,14,,,,12,,,63,105
403008,note_on,,,,,0,0,10,,,,6,,,59,0
403008,note_on,,,,,288,0,15,,,,13,,,47,0
403008,note_on,,,,,288,0,10,,,,6,,,71,0
403008,note_on,,,,,288,0,16,,,,14,,,35,0
403008,note_on,,,,,288,0,8,,,,4,,,59,0
403072,note_on,,,,,0,0,14,,,,12,,,71,0
403072,note_on,,,,,192,0,13,,,,11,,,67,0
403072,note_on,,,,,0,0,13,,,,11,,,75,0
403072,note_on,,,,,192,0,12,,,,10,,,79,0
403072,note_on,,,,,192,0,14,,,,12,,,63,0
403200,note_on,,,,,7200,0,6,,,,3,,,48,92
403200,note_on,,,,,192,0,16,,,,14,,,36,105
403200,note_on,,,,,192,0,15,,,,13,,,48,105
403200,note_on,,,,,7200,0,4,,,,2,,,72,92
403200,note_on,,,,,192,0,8,,,,4,,,64,105
403200,note_on,,,,,128,0,13,,,,11,,,67,92
403200,note_on,,,,,2112,0,9,,,,5,,,60,105
403200,note_on,,,,,128,0,14,,,,12,,,64,92
403200,note_on,,,,,0,0,13,,,,11,,,76,92
403200,note_on,,,,,128,0,12,,,,10,,,76,105
403200,note_on,,,,,10080,0,3,,,,1,,,72,92
403200,note_on,,,,,0,0,10,,,,6,,,76,105
403200,note_on,,,,,192,0,10,,,,6,,,64,105
403200,note_on,,,,,0,0,6,,,,3,,,60,92
403200,note_on,,,,,0,0,14,,,,12,,,67,92
403776,note_on,,,,,576,0,8,,,,4,,,64,0
403776,note_on,,,,,576,0,16,,,,14,,,36,0
403776,note_on,,,,,576,0,12,,,,10,,,76,0
403776,note_on,,,,,0,0,10,,,,6,,,64,0
403776,note_on,,,,,576,0,10,,,,6,,,76,0
403776,note_on,,,,,0,0,6,,,,3,,,48,0
403776,note_on,,,,,0,0,13,,,,11,,,67,0
403776,note_on,,,,,576,0,3,,,,1,,,72,0
403776,note_on,,,,,576,0,9,,,,5,,,60,0
403776,note_on,,,,,576,0,4,,,,2,,,72,0
403776,note_on,,,,,0,0,14,,,,12,,,64,0
403776,note_on,,,,,576,0,14,,,,12,,,67,0
403776,note_on,,,,,576,0,15,,,,13,,,48,0
403776,note_on,,,,,576,0,6,,,,3,,,60,0
403776,note_on,,,,,576,0,13,,,,11,,,76,0
403920,note_on,,,,,144,0,9,,,,5,,,60,105
403920,note_on,,,,,144,0,6,,,,3,,,60,92
403920,note_on,,,,,144,0,4,,,,2,,,72,92
403920,note_on,,,,,144,0,3,,,,1,,,72,92
404040,note_on,,,,,120,0,4,,,,2,,,72,0
404040,note_on,,,,,0,0,3,,,,1,,,76,92
404040,note_on,,,,,120,0,3,,,,1,,,72,0
404040,note_on,,,,,0,0,6,,,,3,,,64,92
404040,note_on,,,,,120,0,6,,,,3,,,60,0
404040,note_on,,,,,120,0,9,,,,5,,,60,0
404040,note_on,,,,,0,0,9,,,,5,,,64,105
404040,note_on,,,,,0,0,4,,,,2,,,76,92
404160,note_on,,,,,0,0,6,,,,3,,,67,92
404160,note_on,,,,,120,0,6,,,,3,,,64,0
404160,note_on,,,,,120,0,4,,,,2,,,76,0
404160,note_on,,,,,0,0,4,,,,2,,,79,92
404160,note_on,,,,,120,0,9,,,,5,,,64,0
404160,note_on,,,,,0,0,9,,,,5,,,67,105
404160,note_on,,,,,120,0,3,,,,1,,,76,0
404160,note_on,,,,,0,0,3,,,,1,,,79,92
404336,note_on,,,,,176,0,6,,,,3,,,67,0
404336,note_on,,,,,176,0,4,,,,2,,,79,0
404336,note_on,,,,,176,0,3,,,,1,,,79,0
404336,note_on,,,,,176,0,9,,,,5,,,67,0
404480,note_on,,,,,144,0,3,,,,1,,,76,92
404480,note_on,,,,,144,0,9,,,,5,,,64,105
404480,note_on,,,,,144,0,6,,,,3,,,64,92
404480,note_on,,,,,144,0,4,,,,2,,,76,92
404656,note_on,,,,,176,0,3,,,,1,,,76,0
404656,note_on,,,,,176,0,6,,,,3,,,64,0
404656,note_on,,,,,176,0,4,,,,2,,,76,0
404656,note_on,,,,,176,0,9,,,,5,,,64,0
404800,note_on,,,,,144,0,4,,,,2,,,77,92
404800,note_on,,,,,0,0,4,,,,2,,,80,92
404800,note_on,,,,,144,0,9,,,,5,,,65,105
404800,note_on,,,,,0,0,6,,,,3,,,68,92
404800,note_on,,,,,0,0,9,,,,5,,,68,105
404800,note_on,,,,,144,0,6,,,,3,,,65,92
404800,note_on,,,,,0,0,3,,,,1,,,77,92
404800,note_on,,,,,144,0,3,,,,1,,,80,92
404880,note_on,,,,,1104,0,12,,,,10,,,65,92
404880,note_on,,,,,1104,0,14,,,,12,,,53,92
404880,note_on,,,,,1104,0,16,,,,14,,,29,105
404880,note_on,,,,,1104,0,13,,,,11,,,65,92
404880,note_on,,,,,1104,0,15,,,,13,,,41,105
404976,note_on,,,,,0,0,6,,,,3,,,65,0
404976,note_on,,,,,176,0,4,,,,2,,,80,0
404976,note_on,,,,,0,0,4,,,,2,,,77,0
404976,note_on,,,,,176,0,6,,,,3,,,68,0
404976,note_on,,,,,176,0,3,,,,1,,,77,0
404976,note_on,,,,,0,0,3,,,,1,,,80,0
404976,note_on,,,,,176,0,9,,,,5,,,68,0
404976,note_on,,,,,0,0,9,,,,5,,,65,0
405000,note_on,,,,,0,0,12,,,,10,,,56,92
405000,note_on,,,,,0,0,16,,,,14,,,32,105
405000,note_on,,,,,120,0,12,,,,10,,,65,0
405000,note_on,,,,,0,0,13,,,,11,,,56,92
405000,note_on,,,,,0,0,15,,,,13,,,44,105
405000,note_on,,,,,120,0,15,,,,13,,,41,0
405000,note_on,,,,,120,0,13,,,,11,,,65,0
405000,note_on,,,,,0,0,14,,,,12,,,56,92
405000,note_on,,,,,120,0,14,,,,12,,,53,0
405000,note_on,,,,,120,0,16,,,,14,,,29,0
405120,note_on,,,,,144,0,3,,,,1,,,79,112
405120,note_on,,,,,120,0,13,,,,11,,,56,0
405120,note_on,,,,,0,0,13,,,,11,,,60,92
405120,note_on,,,,,0,0,12,,,,10,,,60,92
405120,note_on,,,,,120,0,12,,,,10,,,56,0
405120,note_on,,,,,120,0,16,,,,14,,,32,0
405120,note_on,,,,,0,0,16,,,,14,,,36,105
405120,note_on,,,,,0,0,14,,,,12,,,60,92
405120,note_on,,,,,0,0,6,,,,3,,,64,92
405120,note_on,,,,,0,0,3,,,,1,,,76,92
405120,note_on,,,,,0,0,15,,,,13,,,48,105
405120,note_on,,,,,120,0,15,,,,13,,,44,0
405120,note_on,,,,,0,0,9,,,,5,,,64,105
405120,note_on,,,,,144,0,9,,,,5,,,67,125
405120,note_on,,,,,144,0,4,,,,2,,,79,112
405120,note_on,,,,,0,0,4,,,,2,,,76,92
405120,note_on,,,,,120,0,14,,,,12,,,56,0
405120,note_on,,,,,144,0,6,,,,3,,,67,112
405504,note_on,,,,,384,0,4,,,,2,,,76,0
405504,note_on,,,,,0,0,4,,,,2,,,79,0
405696,note_on,,,,,576,0,15,,,,13,,,48,0
405696,note_on,,,,,576,0,16,,,,14,,,36,0
405696,note_on,,,,,576,0,13,,,,11,,,60,0
405696,note_on,,,,,576,0,14,,,,12,,,60,0
405696,note_on,,,,,0,0,9,,,,5,,,67,0
405696,note_on,,,,,0,0,6,,,,3,,,67,0
405696,note_on,,,,,576,0,6,,,,3,,,64,0
405696,note_on,,,,,576,0,3,,,,1,,,76,0
405696,note_on,,,,,0,0,3,,,,1,,,79,0
405696,note_on,,,,,576,0,9,,,,5,,,64,0
405696,note_on,,,,,576,0,12,,,,10,,,60,0
405840,note_on,,,,,144,0,6,,,,3,,,64,92
405840,note_on,,,,,336,0,4,,,,2,,,72,92
405840,note_on,,,,,11920,0,1,,,,0,,,84,105
405840,note_on,,,,,144,0,9,,,,5,,,64,105
405840,note_on,,,,,144,0,3,,,,1,,,76,92
405960,note_on,,,,,120,0,4,,,,2,,,72,0
405960,note_on,,,,,120,0,1,,,,0,,,84,0
405960,note_on,,,,,0,0,1,,,,0,,,88,105
405960,note_on,,,,,0,0,4,,,,2,,,76,92
406032,note_on,,,,,192,0,6,,,,3,,,64,0
406032,note_on,,,,,192,0,9,,,,5,,,64,0
406032,note_on,,,,,192,0,3,,,,1,,,76,0
406080,note_on,,,,,0,0,4,,,,2,,,79,92
406080,note_on,,,,,48,0,6,,,,3,,,60,92
406080,note_on,,,,,0,0,1,,,,0,,,91,105
406080,note_on,,,,,120,0,1,,,,0,,,88,0
406080,note_on,,,,,48,0,3,,,,1,,,72,92
406080,note_on,,,,,120,0,4,,,,2,,,76,0
406080,note_on,,,,,48,0,9,,,,5,,,60,105
406256,note_on,,,,,176,0,1,,,,0,,,91,0
406400,note_on,,,,,320,0,4,,,,2,,,79,0
406400,note_on,,,,,0,0,4,,,,2,,,76,92
406400,note_on,,,,,144,0,1,,,,0,,,88,105
406576,note_on,,,,,176,0,4,,,,2,,,76,0
406576,note_on,,,,,176,0,1,,,,0,,,88,0
406592,note_on,,,,,512,0,3,,,,1,,,72,0
406592,note_on,,,,,512,0,9,,,,5,,,60,0
406592,note_on,,,,,512,0,6,,,,3,,,60,0
406720,note_on,,,,,0,0,6,,,,3,,,60,92
406720,note_on,,,,,128,0,6,,,,3,,,56,92
406720,note_on,,,,,144,0,4,,,,2,,,72,92
406720,note_on,,,,,128,0,3,,,,1,,,84,92
406720,note_on,,,,,144,0,1,,,,0,,,84,105
406720,note_on,,,,,0,0,9,,,,5,,,72,105
406720,note_on,,,,,128,0,9,,,,5,,,68,105
406720,note_on,,,,,0,0,3,,,,1,,,80,92
406800,note_on,,,,,1104,0,16,,,,14,,,41,105
406800,note_on,,,,,1104,0,13,,,,11,,,65,80
406800,note_on,,,,,1104,0,15,,,,13,,,53,105
406800,note_on,,,,,1104,0,14,,,,12,,,65,80
406800,note_on,,,,,1104,0,12,,,,10,,,65,92
406896,note_on,,,,,176,0,6,,,,3,,,60,0
406896,note_on,,,,,0,0,6,,,,3,,,56,0
406896,note_on,,,,,176,0,3,,,,1,,,80,0
406896,note_on,,,,,176,0,9,,,,5,,,72,0
406896,note_on,,,,,176,0,1,,,,0,,,84,0
406896,note_on,,,,,0,0,3,,,,1,,,84,0
406896,note_on,,,,,0,0,9,,,,5,,,68,0
406896,note_on,,,,,176,0,4,,,,2,,,72,0
406920,note_on,,,,,0,0,12,,,,10,,,61,92
406920,note_on,,,,,0,0,15,,,,13,,,49,105
406920,note_on,,,,,120,0,15,,,,13,,,53,0
406920,note_on,,,,,120,0,12,,,,10,,,65,0
406920,note_on,,,,,120,0,13,,,,11,,,65,0
406920,note_on,,,,,0,0,16,,,,14,,,37,105
406920,note_on,,,,,120,0,16,,,,14,,,41,0
406920,note_on,,,,,0,0,13,,,,11,,,61,80
406920,note_on,,,,,0,0,14,,,,12,,,61,80
406920,note_on,,,,,120,0,14,,,,12,,,65,0
407040,note_on,,,,,120,0,16,,,,14,,,37,0
407040,note_on,,,,,0,0,12,,,,10,,,58,92
407040,note_on,,,,,144,0,4,,,,2,,,75,92
407040,note_on,,,,,144,0,6,,,,3,,,58,92
407040,note_on,,,,,144,0,9,,,,5,,,70,105
407040,note_on,,,,,0,0,9,,,,5,,,73,105
407040,note_on,,,,,0,0,16,,,,14,,,34,105
407040,note_on,,,,,0,0,4,,,,2,,,82,92
407040,note_on,,,,,120,0,12,,,,10,,,61,0
407040,note_on,,,,,0,0,15,,,,13,,,46,105
407040,note_on,,,,,0,0,13,,,,11,,,58,80
407040,note_on,,,,,120,0,13,,,,11,,,61,0
407040,note_on,,,,,144,0,3,,,,1,,,82,92
407040,note_on,,,,,0,0,3,,,,1,,,85,92
407040,note_on,,,,,0,0,6,,,,3,,,61,92
407040,note_on,,,,,0,0,14,,,,12,,,58,80
407040,note_on,,,,,120,0,14,,,,12,,,61,0
407040,note_on,,,,,120,0,15,,,,13,,,49,0
407216,note_on,,,,,0,0,3,,,,1,,,82,0
407216,note_on,,,,,176,0,3,,,,1,,,85,0
407216,note_on,,,,,176,0,9,,,,5,,,73,0
407216,note_on,,,,,0,0,6,,,,3,,,58,0
407216,note_on,,,,,0,0,9,,,,5,,,70,0
407216,note_on,,,,,176,0,6,,,,3,,,61,0
407216,note_on,,,,,176,0,4,,,,2,,,82,0
407216,note_on,,,,,0,0,4,,,,2,,,75,0
407360,note_on,,,,,144,0,9,,,,5,,,68,105
407360,note_on,,,,,0,0,9,,,,5,,,72,105
407360,note_on,,,,,144,0,3,,,,1,,,84,92
407360,note_on,,,,,0,0,4,,,,2,,,72,92
407360,note_on,,,,,144,0,4,,,,2,,,80,92
407360,note_on,,,,,0,0,3,,,,1,,,80,92
407360,note_on,,,,,144,0,6,,,,3,,,56,92
407360,note_on,,,,,0,0,6,,,,3,,,60,92
407424,note_on,,,,,384,0,15,,,,13,,,46,0
407424,note_on,,,,,384,0,16,,,,14,,,34,0
407424,note_on,,,,,384,0,13,,,,11,,,58,0
407424,note_on,,,,,384,0,12,,,,10,,,58,0
407424,note_on,,,,,384,0,14,,,,12,,,58,0
407536,note_on,,,,,176,0,3,,,,1,,,80,0
407536,note_on,,,,,176,0,4,,,,2,,,72,0
407536,note_on,,,,,0,0,4,,,,2,,,80,0
407536,note_on,,,,,0,0,6,,,,3,,,56,0
407536,note_on,,,,,176,0,6,,,,3,,,60,0
407536,note_on,,,,,0,0,9,,,,5,,,68,0
407536,note_on,,,,,176,0,9,,,,5,,,72,0
407536,note_on,,,,,0,0,3,,,,1,,,84,0
407680,note_on,,,,,0,0,9,,,,5,,,67,105
407680,note_on,,,,,144,0,9,,,,5,,,70,105
407680,note_on,,,,,144,0,3,,,,1,,,82,92
407680,note_on,,,,,0,0,3,,,,1,,,79,92
407680,note_on,,,,,144,0,4,,,,2,,,70,92
407680,note_on,,,,,0,0,4,,,,2,,,79,92
407680,note_on,,,,,0,0,6,,,,3,,,58,92
407680,note_on,,,,,144,0,6,,,,3,,,55,92
407760,note_on,,,,,336,0,16,,,,14,,,39,105
407760,note_on,,,,,336,0,15,,,,13,,,51,105
407760,note_on,,,,,336,0,14,,,,12,,,63,80
407760,note_on,,,,,336,0,13,,,,11,,,63,80
407760,note_on,,,,,336,0,12,,,,10,,,63,92
407856,note_on,,,,,176,0,6,,,,3,,,58,0
407856,note_on,,,,,0,0,9,,,,5,,,70,0
407856,note_on,,,,,176,0,9,,,,5,,,67,0
407856,note_on,,,,,0,0,6,,,,3,,,55,0
407856,note_on,,,,,0,0,4,,,,2,,,70,0
407856,note_on,,,,,176,0,4,,,,2,,,79,0
407856,note_on,,,,,176,0,3,,,,1,,,79,0
407856,note_on,,,,,0,0,3,,,,1,,,82,0
407880,note_on,,,,,0,0,15,,,,13,,,48,105
407880,note_on,,,,,0,0,14,,,,12,,,60,80
407880,note_on,,,,,120,0,15,,,,13,,,51,0
407880,note_on,,,,,120,0,14,,,,12,,,63,0
407880,note_on,,,,,0,0,13,,,,11,,,60,80
407880,note_on,,,,,120,0,16,,,,14,,,39,0
407880,note_on,,,,,0,0,16,,,,14,,,36,105
407880,note_on,,,,,120,0,13,,,,11,,,63,0
407880,note_on,,,,,120,0,12,,,,10,,,63,0
407880,note_on,,,,,0,0,12,,,,10,,,60,92
408000,note_on,,,,,120,0,13,,,,11,,,60,0
408000,note_on,,,,,0,0,14,,,,12,,,56,80
408000,note_on,,,,,120,0,14,,,,12,,,60,0
408000,note_on,,,,,0,0,13,,,,11,,,56,80
408000,note_on,,,,,144,0,6,,,,3,,,60,92
408000,note_on,,,,,0,0,4,,,,2,,,80,92
408000,note_on,,,,,144,0,4,,,,2,,,72,92
408000,note_on,,,,,0,0,12,,,,10,,,56,92
408000,note_on,,,,,120,0,15,,,,13,,,48,0
408000,note_on,,,,,120,0,12,,,,10,,,60,0
408000,note_on,,,,,0,0,16,,,,14,,,32,105
408000,note_on,,,,,120,0,16,,,,14,,,36,0
408000,note_on,,,,,0,0,3,,,,1,,,84,92
408000,note_on,,,,,0,0,6,,,,3,,,56,92
408000,note_on,,,,,144,0,9,,,,5,,,68,105
408000,note_on,,,,,0,0,9,,,,5,,,72,105
408000,note_on,,,,,144,0,3,,,,1,,,80,92
408000,note_on,,,,,0,0,15,,,,13,,,44,105
408176,note_on,,,,,176,0,9,,,,5,,,72,0
408176,note_on,,,,,176,0,3,,,,1,,,84,0
408176,note_on,,,,,176,0,4,,,,2,,,80,0
408176,note_on,,,,,0,0,4,,,,2,,,72,0
408176,note_on,,,,,0,0,3,,,,1,,,80,0
408176,note_on,,,,,176,0,6,,,,3,,,56,0
408176,note_on,,,,,0,0,6,,,,3,,,60,0
408176,note_on,,,,,0,0,9,,,,5,,,68,0
408320,note_on,,,,,144,0,3,,,,1,,,82,92
408320,note_on,,,,,0,0,4,,,,2,,,79,92
408320,note_on,,,,,144,0,4,,,,2,,,70,92
408320,note_on,,,,,0,0,3,,,,1,,,79,92
408320,note_on,,,,,144,0,6,,,,3,,,55,92
408320,note_on,,,,,0,0,9,,,,5,,,70,105
408320,note_on,,,,,144,0,9,,,,5,,,67,105
408320,note_on,,,,,0,0,6,,,,3,,,58,92
408384,note_on,,,,,384,0,14,,,,12,,,56,0
408384,note_on,,,,,384,0,13,,,,11,,,56,0
408384,note_on,,,,,384,0,15,,,,13,,,44,0
408384,note_on,,,,,384,0,16,,,,14,,,32,0
408384,note_on,,,,,384,0,12,,,,10,,,56,0
408496,note_on,,,,,176,0,4,,,,2,,,79,0
408496,note_on,,,,,0,0,4,,,,2,,,70,0
408496,note_on,,,,,0,0,6,,,,3,,,55,0
408496,note_on,,,,,176,0,3,,,,1,,,79,0
408496,note_on,,,,,0,0,3,,,,1,,,82,0
408496,note_on,,,,,176,0,6,,,,3,,,58,0
408496,note_on,,,,,176,0,9,,,,5,,,70,0
408496,note_on,,,,,0,0,9,,,,5,,,67,0
408640,note_on,,,,,144,0,4,,,,2,,,77,92
408640,note_on,,,,,144,0,9,,,,5,,,68,105
408640,note_on,,,,,144,0,6,,,,3,,,56,92
408640,note_on,,,,,0,0,6,,,,3,,,53,92
408640,note_on,,,,,0,0,9,,,,5,,,65,105
408640,note_on,,,,,144,0,3,,,,1,,,77,92
408640,note_on,,,,,0,0,4,,,,2,,,68,92
408640,note_on,,,,,0,0,3,,,,1,,,80,92
408720,note_on,,,,,336,0,12,,,,10,,,68,92
408720,note_on,,,,,336,0,15,,,,13,,,56,105
408720,note_on,,,,,336,0,13,,,,11,,,68,80
408720,note_on,,,,,336,0,16,,,,14,,,44,105
408720,note_on,,,,,336,0,14,,,,12,,,56,80
408816,note_on,,,,,176,0,3,,,,1,,,80,0
408816,note_on,,,,,0,0,3,,,,1,,,77,0
408816,note_on,,,,,0,0,4,,,,2,,,77,0
408816,note_on,,,,,176,0,6,,,,3,,,53,0
408816,note_on,,,,,0,0,9,,,,5,,,68,0
408816,note_on,,,,,176,0,4,,,,2,,,68,0
408816,note_on,,,,,0,0,6,,,,3,,,56,0
408816,note_on,,,,,176,0,9,,,,5,,,65,0
408840,note_on,,,,,120,0,14,,,,12,,,56,0
408840,note_on,,,,,0,0,16,,,,14,,,48,105
408840,note_on,,,,,120,0,12,,,,10,,,68,0
408840,note_on,,,,,120,0,15,,,,13,,,56,0
408840,note_on,,,,,0,0,15,,,,13,,,60,105
408840,note_on,,,,,0,0,12,,,,10,,,72,92
408840,note_on,,,,,120,0,13,,,,11,,,68,0
408840,note_on,,,,,120,0,16,,,,14,,,44,0
408840,note_on,,,,,0,0,14,,,,12,,,60,80
408840,note_on,,,,,0,0,13,,,,11,,,72,80
408960,note_on,,,,,120,0,13,,,,11,,,72,0
408960,note_on,,,,,0,0,3,,,,1,,,82,92
408960,note_on,,,,,120,0,14,,,,12,,,60,0
408960,note_on,,,,,0,0,15,,,,13,,,63,105
408960,note_on,,,,,120,0,15,,,,13,,,60,0
408960,note_on,,,,,0,0,14,,,,12,,,63,80
408960,note_on,,,,,0,0,9,,,,5,,,70,105
408960,note_on,,,,,144,0,9,,,,5,,,67,105
408960,note_on,,,,,0,0,6,,,,3,,,58,92
408960,note_on,,,,,0,0,13,,,,11,,,75,80
408960,note_on,,,,,120,0,16,,,,14,,,48,0
408960,note_on,,,,,0,0,16,,,,14,,,51,105
408960,note_on,,,,,120,0,12,,,,10,,,72,0
408960,note_on,,,,,0,0,4,,,,2,,,79,92
408960,note_on,,,,,144,0,4,,,,2,,,70,92
408960,note_on,,,,,144,0,3,,,,1,,,79,92
408960,note_on,,,,,144,0,6,,,,3,,,55,92
408960,note_on,,,,,0,0,12,,,,10,,,75,92
409344,note_on,,,,,0,0,4,,,,2,,,70,0
409344,note_on,,,,,384,0,4,,,,2,,,79,0
409536,note_on,,,,,576,0,12,,,,10,,,75,0
409536,note_on,,,,,576,0,9,,,,5,,,70,0
409536,note_on,,,,,576,0,13,,,,11,,,75,0
409536,note_on,,,,,576,0,3,,,,1,,,82,0
409536,note_on,,,,,576,0,14,,,,12,,,63,0
409536,note_on,,,,,576,0,15,,,,13,,,63,0
409536,note_on,,,,,0,0,3,,,,1,,,79,0
409536,note_on,,,,,576,0,16,,,,14,,,51,0
409536,note_on,,,,,0,0,9,,,,5,,,67,0
409536,note_on,,,,,0,0,6,,,,3,,,55,0
409536,note_on,,,,,576,0,6,,,,3,,,58,0
409680,note_on,,,,,144,0,6,,,,3,,,55,92
409680,note_on,,,,,144,0,9,,,,5,,,67,105
409680,note_on,,,,,0,0,1,,,,0,,,75,105
409680,note_on,,,,,336,0,4,,,,2,,,75,92
409680,note_on,,,,,144,0,3,,,,1,,,79,92
409680,note_on,,,,,2784,0,1,,,,0,,,87,105
409800,note_on,,,,,0,0,1,,,,0,,,87,0
409800,note_on,,,,,0,0,1,,,,0,,,91,105
409800,note_on,,,,,120,0,4,,,,2,,,75,0
409800,note_on,,,,,0,0,4,,,,2,,,79,92
409800,note_on,,,,,120,0,1,,,,0,,,75,0
409800,note_on,,,,,0,0,1,,,,0,,,79,105
409872,note_on,,,,,192,0,3,,,,1,,,79,0
409872,note_on,,,,,192,0,6,,,,3,,,55,0
409872,note_on,,,,,192,0,9,,,,5,,,67,0
409920,note_on,,,,,48,0,6,,,,3,,,51,92
409920,note_on,,,,,120,0,4,,,,2,,,79,0
409920,note_on,,,,,0,0,4,,,,2,,,82,92
409920,note_on,,,,,0,0,1,,,,0,,,82,105
409920,note_on,,,,,0,0,1,,,,0,,,94,105
409920,note_on,,,,,48,0,3,,,,1,,,75,92
409920,note_on,,,,,0,0,1,,,,0,,,91,0
409920,note_on,,,,,120,0,1,,,,0,,,79,0
409920,note_on,,,,,48,0,9,,,,5,,,63,105
410096,note_on,,,,,176,0,4,,,,2,,,82,0
410240,note_on,,,,,144,0,4,,,,2,,,79,92
410240,note_on,,,,,0,0,1,,,,0,,,91,105
410240,note_on,,,,,0,0,1,,,,0,,,79,105
410240,note_on,,,,,320,0,1,,,,0,,,94,0
410240,note_on,,,,,0,0,1,,,,0,,,82,0
410416,note_on,,,,,176,0,1,,,,0,,,91,0
410416,note_on,,,,,0,0,1,,,,0,,,79,0
410416,note_on,,,,,176,0,4,,,,2,,,79,0
410560,note_on,,,,,144,0,1,,,,0,,,87,105
410560,note_on,,,,,144,0,4,,,,2,,,75,92
410560,note_on,,,,,1024,0,13,,,,11,,,75,105
410560,note_on,,,,,1024,0,14,,,,12,,,63,105
410560,note_on,,,,,1024,0,12,,,,10,,,87,105
410560,note_on,,,,,0,0,1,,,,0,,,75,105
410688,note_on,,,,,768,0,9,,,,5,,,63,0
410688,note_on,,,,,768,0,3,,,,1,,,75,0
410688,note_on,,,,,768,0,6,,,,3,,,51,0
410736,note_on,,,,,176,0,4,,,,2,,,75,0
410736,note_on,,,,,0,0,1,,,,0,,,87,0
410736,note_on,,,,,176,0,1,,,,0,,,75,0
410752,note_on,,,,,192,0,14,,,,12,,,63,0
410752,note_on,,,,,192,0,13,,,,11,,,75,0
410752,note_on,,,,,192,0,12,,,,10,,,87,0
410880,note_on,,,,,128,0,13,,,,11,,,76,105
410880,note_on,,,,,128,0,14,,,,12,,,64,105
410880,note_on,,,,,128,0,12,,,,10,,,88,105
411072,note_on,,,,,192,0,13,,,,11,,,76,0
411072,note_on,,,,,192,0,14,,,,12,,,64,0
411072,note_on,,,,,192,0,12,,,,10,,,88,0
411200,note_on,,,,,128,0,12,,,,10,,,87,105
411200,note_on,,,,,128,0,14,,,,12,,,63,105
411200,note_on,,,,,128,0,13,,,,11,,,75,105
411360,note_on,,,,,0,0,9,,,,5,,,51,105
411360,note_on,,,,,672,0,9,,,,5,,,63,105
411392,note_on,,,,,192,0,14,,,,12,,,63,0
411392,note_on,,,,,192,0,12,,,,10,,,87,0
411392,note_on,,,,,192,0,13,,,,11,,,75,0
411520,note_on,,,,,128,0,14,,,,12,,,61,105
411520,note_on,,,,,128,0,12,,,,10,,,85,105
411520,note_on,,,,,128,0,13,,,,11,,,73,105
411648,note_on,,,,,288,0,9,,,,5,,,51,0
411648,note_on,,,,,0,0,9,,,,5,,,63,0
411712,note_on,,,,,192,0,12,,,,10,,,85,0
411712,note_on,,,,,192,0,14,,,,12,,,61,0
411712,note_on,,,,,192,0,13,,,,11,,,73,0
411840,note_on,,,,,128,0,13,,,,11,,,75,105
411840,note_on,,,,,128,0,14,,,,12,,,63,105
411840,note_on,,,,,128,0,12,,,,10,,,87,105
412032,note_on,,,,,192,0,13,,,,11,,,75,0
412032,note_on,,,,,192,0,12,,,,10,,,87,0
412032,note_on,,,,,192,0,14,,,,12,,,63,0
412160,note_on,,,,,128,0,14,,,,12,,,61,105
412160,note_on,,,,,128,0,12,,,,10,,,85,105
412160,note_on,,,,,128,0,13,,,,11,,,73,105
412320,note_on,,,,,672,0,9,,,,5,,,63,105
412320,note_on,,,,,0,0,9,,,,5,,,51,105
412352,note_on,,,,,192,0,12,,,,10,,,85,0
412352,note_on,,,,,192,0,13,,,,11,,,73,0
412352,note_on,,,,,192,0,14,,,,12,,,61,0
412480,note_on,,,,,128,0,13,,,,11,,,71,105
412480,note_on,,,,,2944,0,16,,,,14,,,39,105
412480,note_on,,,,,128,0,14,,,,12,,,59,105
412480,note_on,,,,,2944,0,15,,,,13,,,51,105
412480,note_on,,,,,128,0,12,,,,10,,,83,105
412608,note_on,,,,,0,0,9,,,,5,,,63,0
412608,note_on,,,,,288,0,9,,,,5,,,51,0
412672,note_on,,,,,192,0,15,,,,13,,,51,0
412672,note_on,,,,,192,0,13,,,,11,,,71,0
412672,note_on,,,,,192,0,12,,,,10,,,83,0
412672,note_on,,,,,192,0,16,,,,14,,,39,0
412672,note_on,,,,,192,0,14,,,,12,,,59,0
412800,note_on,,,,,128,0,13,,,,11,,,73,105
412800,note_on,,,,,128,0,14,,,,12,,,61,105
412800,note_on,,,,,128,0,16,,,,14,,,52,105
412800,note_on,,,,,128,0,15,,,,13,,,64,105
412800,note_on,,,,,128,0,12,,,,10,,,85,105
412992,note_on,,,,,192,0,15,,,,13,,,64,0
412992,note_on,,,,,192,0,14,,,,12,,,61,0
412992,note_on,,,,,192,0,16,,,,14,,,52,0
412992,note_on,,,,,192,0,13,,,,11,,,73,0
412992,note_on,,,,,192,0,12,,,,10,,,85,0
413120,note_on,,,,,128,0,14,,,,12,,,59,105
413120,note_on,,,,,128,0,12,,,,10,,,83,105
413120,note_on,,,,,128,0,16,,,,14,,,51,105
413120,note_on,,,,,128,0,13,,,,11,,,71,105
413120,note_on,,,,,128,0,15,,,,13,,,63,105
413280,note_on,,,,,0,0,9,,,,5,,,51,105
413280,note_on,,,,,672,0,9,,,,5,,,63,105
413312,note_on,,,,,192,0,14,,,,12,,,59,0
413312,note_on,,,,,192,0,16,,,,14,,,51,0
413312,note_on,,,,,192,0,12,,,,10,,,83,0
413312,note_on,,,,,192,0,15,,,,13,,,63,0
413312,note_on,,,,,192,0,13,,,,11,,,71,0
413440,note_on,,,,,128,0,15,,,,13,,,61,105
413440,note_on,,,,,128,0,16,,,,14,,,49,105
413440,note_on,,,,,128,0,13,,,,11,,,70,105
413440,note_on,,,,,128,0,14,,,,12,,,58,105
413440,note_on,,,,,128,0,12,,,,10,,,82,105
413568,note_on,,,,,0,0,9,,,,5,,,63,0
413568,note_on,,,,,288,0,9,,,,5,,,51,0
413632,note_on,,,,,192,0,12,,,,10,,,82,0
413632,note_on,,,,,192,0,15,,,,13,,,61,0
413632,note_on,,,,,192,0,14,,,,12,,,58,0
413632,note_on,,,,,192,0,13,,,,11,,,70,0
413632,note_on,,,,,192,0,16,,,,14,,,49,0
413760,note_on,,,,,128,0,13,,,,11,,,71,105
413760,note_on,,,,,128,0,15,,,,13,,,63,105
413760,note_on,,,,,128,0,16,,,,14,,,51,105
413760,note_on,,,,,128,0,12,,,,10,,,83,105
413760,note_on,,,,,128,0,14,,,,12,,,59,105
413952,note_on,,,,,192,0,12,,,,10,,,83,0
413952,note_on,,,,,192,0,16,,,,14,,,51,0
413952,note_on,,,,,192,0,13,,,,11,,,71,0
413952,note_on,,,,,192,0,15,,,,13,,,63,0
413952,note_on,,,,,192,0,14,,,,12,,,59,0
414080,note_on,,,,,128,0,14,,,,12,,,58,105
414080,note_on,,,,,128,0,12,,,,10,,,82,105
414080,note_on,,,,,128,0,15,,,,13,,,61,105
414080,note_on,,,,,128,0,13,,,,11,,,70,105
414080,note_on,,,,,128,0,16,,,,14,,,49,105
414240,note_on,,,,,10464,0,10,,,,6,,,80,105
414240,note_on,,,,,672,0,9,,,,5,,,51,105
414240,note_on,,,,,0,0,9,,,,5,,,63,105
414240,note_on,,,,,10464,0,8,,,,4,,,68,105
414272,note_on,,,,,192,0,16,,,,14,,,49,0
414272,note_on,,,,,192,0,12,,,,10,,,82,0
414272,note_on,,,,,192,0,14,,,,12,,,58,0
414272,note_on,,,,,192,0,15,,,,13,,,61,0
414272,note_on,,,,,192,0,13,,,,11,,,70,0
414400,note_on,,,,,3712,0,6,,,,3,,,63,92
414400,note_on,,,,,128,0,13,,,,11,,,68,105
414400,note_on,,,,,3712,0,3,,,,1,,,75,92
414400,note_on,,,,,128,0,12,,,,10,,,80,105
414400,note_on,,,,,128,0,15,,,,13,,,59,105
414400,note_on,,,,,128,0,14,,,,12,,,56,105
414400,note_on,,,,,128,0,16,,,,14,,,47,105
414400,note_on,,,,,3664,0,4,,,,2,,,75,92
414400,note_on,,,,,3664,0,1,,,,0,,,87,105
414528,note_on,,,,,288,0,10,,,,6,,,80,0
414528,note_on,,,,,288,0,9,,,,5,,,63,0
414528,note_on,,,,,288,0,8,,,,4,,,68,0
414528,note_on,,,,,0,0,9,,,,5,,,51,0
414592,note_on,,,,,192,0,14,,,,12,,,56,0
414592,note_on,,,,,192,0,4,,,,2,,,75,0
414592,note_on,,,,,192,0,1,,,,0,,,87,0
414592,note_on,,,,,192,0,6,,,,3,,,63,0
414592,note_on,,,,,192,0,15,,,,13,,,59,0
414592,note_on,,,,,192,0,16,,,,14,,,47,0
414592,note_on,,,,,192,0,13,,,,11,,,68,0
414592,note_on,,,,,192,0,12,,,,10,,,80,0
414592,note_on,,,,,192,0,3,,,,1,,,75,0
414720,note_on,,,,,192,0,10,,,,6,,,80,105
414720,note_on,,,,,128,0,4,,,,2,,,76,92
414720,note_on,,,,,128,0,14,,,,12,,,61,105
414720,note_on,,,,,0,0,13,,,,11,,,68,105
414720,note_on,,,,,0,0,9,,,,5,,,52,105
414720,note_on,,,,,128,0,1,,,,0,,,88,105
414720,note_on,,,,,128,0,13,,,,11,,,76,105
414720,note_on,,,,,0,0,14,,,,12,,,70,105
414720,note_on,,,,,128,0,3,,,,1,,,76,92
414720,note_on,,,,,128,0,6,,,,3,,,64,92
414720,note_on,,,,,192,0,8,,,,4,,,68,105
414720,note_on,,,,,128,0,15,,,,13,,,49,105
414720,note_on,,,,,128,0,16,,,,14,,,37,105
414720,note_on,,,,,192,0,9,,,,5,,,64,105
414720,note_on,,,,,128,0,12,,,,10,,,82,105
414912,note_on,,,,,192,0,6,,,,3,,,64,0
414912,note_on,,,,,192,0,1,,,,0,,,88,0
414912,note_on,,,,,192,0,4,,,,2,,,76,0
414912,note_on,,,,,192,0,3,,,,1,,,76,0
415008,note_on,,,,,288,0,16,,,,14,,,37,0
415008,note_on,,,,,288,0,15,,,,13,,,49,0
415008,note_on,,,,,288,0,13,,,,11,,,68,0
415008,note_on,,,,,288,0,12,,,,10,,,82,0
415008,note_on,,,,,0,0,9,,,,5,,,64,0
415008,note_on,,,,,288,0,10,,,,6,,,80,0
415008,note_on,,,,,288,0,9,,,,5,,,52,0
415008,note_on,,,,,288,0,8,,,,4,,,68,0
415008,note_on,,,,,288,0,14,,,,12,,,70,0
415008,note_on,,,,,0,0,14,,,,12,,,61,0
415008,note_on,,,,,0,0,13,,,,11,,,76,0
415040,note_on,,,,,128,0,6,,,,3,,,63,92
415040,note_on,,,,,128,0,4,,,,2,,,75,92
415040,note_on,,,,,128,0,1,,,,0,,,87,105
415040,note_on,,,,,128,0,3,,,,1,,,75,92
415232,note_on,,,,,192,0,3,,,,1,,,75,0
415232,note_on,,,,,192,0,1,,,,0,,,87,0
415232,note_on,,,,,192,0,4,,,,2,,,75,0
415232,note_on,,,,,192,0,6,,,,3,,,63,0
415360,note_on,,,,,128,0,3,,,,1,,,73,92
415360,note_on,,,,,128,0,4,,,,2,,,73,92
415360,note_on,,,,,128,0,1,,,,0,,,85,105
415360,note_on,,,,,128,0,6,,,,3,,,61,92
415552,note_on,,,,,192,0,3,,,,1,,,73,0
415552,note_on,,,,,192,0,1,,,,0,,,85,0
415552,note_on,,,,,192,0,6,,,,3,,,61,0
415552,note_on,,,,,192,0,4,,,,2,,,73,0
415680,note_on,,,,,0,0,4,,,,2,,,73,92
415680,note_on,,,,,672,0,12,,,,10,,,63,105
415680,note_on,,,,,0,0,12,,,,10,,,79,105
415680,note_on,,,,,0,0,12,,,,10,,,70,105
415680,note_on,,,,,0,0,3,,,,1,,,76,92
415680,note_on,,,,,128,0,4,,,,2,,,76,92
415680,note_on,,,,,0,0,9,,,,5,,,51,105
415680,note_on,,,,,672,0,13,,,,11,,,70,105
415680,note_on,,,,,0,0,13,,,,11,,,73,105
415680,note_on,,,,,128,0,3,,,,1,,,73,92
415680,note_on,,,,,672,0,8,,,,4,,,67,105
415680,note_on,,,,,0,0,14,,,,12,,,61,105
415680,note_on,,,,,672,0,15,,,,13,,,51,105
415680,note_on,,,,,672,0,16,,,,14,,,39,105
415680,note_on,,,,,672,0,14,,,,12,,,70,105
415680,note_on,,,,,128,0,1,,,,0,,,85,105
415680,note_on,,,,,0,0,6,,,,3,,,64,92
415680,note_on,,,,,128,0,6,,,,3,,,61,92
415680,note_on,,,,,0,0,1,,,,0,,,88,105
415680,note_on,,,,,672,0,10,,,,6,,,79,105
415680,note_on,,,,,672,0,9,,,,5,,,63,105
415872,note_on,,,,,192,0,3,,,,1,,,76,0
415872,note_on,,,,,192,0,1,,,,0,,,88,0
415872,note_on,,,,,0,0,1,,,,0,,,85,0
415872,note_on,,,,,0,0,3,,,,1,,,73,0
415872,note_on,,,,,192,0,4,,,,2,,,73,0
415872,note_on,,,,,0,0,4,,,,2,,,76,0
415872,note_on,,,,,192,0,6,,,,3,,,64,0
415872,note_on,,,,,0,0,6,,,,3,,,61,0
415968,note_on,,,,,288,0,15,,,,13,,,51,0
415968,note_on,,,,,288,0,10,,,,6,,,79,0
415968,note_on,,,,,0,0,12,,,,10,,,63,0
415968,note_on,,,,,288,0,16,,,,14,,,39,0
415968,note_on,,,,,288,0,9,,,,5,,,51,0
415968,note_on,,,,,288,0,14,,,,12,,,61,0
415968,note_on,,,,,288,0,8,,,,4,,,67,0
415968,note_on,,,,,0,0,14,,,,12,,,70,0
415968,note_on,,,,,288,0,13,,,,11,,,73,0
415968,note_on,,,,,0,0,12,,,,10,,,79,0
415968,note_on,,,,,288,0,12,,,,10,,,70,0
415968,note_on,,,,,0,0,9,,,,5,,,63,0
415968,note_on,,,,,0,0,13,,,,11,,,70,0
416000,note_on,,,,,128,0,1,,,,0,,,87,105
416000,note_on,,,,,128,0,6,,,,3,,,63,92
416000,note_on,,,,,0,0,6,,,,3,,,59,92
416000,note_on,,,,,128,0,3,,,,1,,,71,92
416000,note_on,,,,,0,0,3,,,,1,,,75,92
416000,note_on,,,,,128,0,4,,,,2,,,71,92
416000,note_on,,,,,0,0,4,,,,2,,,75,92
416000,note_on,,,,,0,0,1,,,,0,,,83,105
416192,note_on,,,,,0,0,1,,,,0,,,87,0
416192,note_on,,,,,192,0,1,,,,0,,,83,0
416192,note_on,,,,,192,0,6,,,,3,,,59,0
416192,note_on,,,,,0,0,4,,,,2,,,71,0
416192,note_on,,,,,0,0,3,,,,1,,,71,0
416192,note_on,,,,,0,0,6,,,,3,,,63,0
416192,note_on,,,,,192,0,4,,,,2,,,75,0
416192,note_on,,,,,192,0,3,,,,1,,,75,0
416320,note_on,,,,,128,0,6,,,,3,,,61,92
416320,note_on,,,,,0,0,6,,,,3,,,58,92
416320,note_on,,,,,128,0,4,,,,2,,,73,92
416320,note_on,,,,,0,0,4,,,,2,,,70,92
416320,note_on,,,,,0,0,3,,,,1,,,73,92
416320,note_on,,,,,128,0,3,,,,1,,,70,92
416320,note_on,,,,,128,0,1,,,,0,,,85,105
416320,note_on,,,,,0,0,1,,,,0,,,82,105
416512,note_on,,,,,192,0,4,,,,2,,,70,0
416512,note_on,,,,,0,0,4,,,,2,,,73,0
416512,note_on,,,,,0,0,3,,,,1,,,70,0
416512,note_on,,,,,192,0,3,,,,1,,,73,0
416512,note_on,,,,,192,0,6,,,,3,,,58,0
416512,note_on,,,,,0,0,6,,,,3,,,61,0
416512,note_on,,,,,0,0,1,,,,0,,,85,0
416512,note_on,,,,,192,0,1,,,,0,,,82,0
416640,note_on,,,,,0,0,4,,,,2,,,75,92
416640,note_on,,,,,672,0,15,,,,13,,,44,105
416640,note_on,,,,,128,0,3,,,,1,,,71,92
416640,note_on,,,,,128,0,4,,,,2,,,71,92
416640,note_on,,,,,0,0,13,,,,11,,,71,105
416640,note_on,,,,,0,0,9,,,,5,,,63,105
416640,note_on,,,,,672,0,9,,,,5,,,51,105
416640,note_on,,,,,672,0,8,,,,4,,,68,105
416640,note_on,,,,,672,0,13,,,,11,,,63,105
416640,note_on,,,,,672,0,16,,,,14,,,32,105
416640,note_on,,,,,0,0,15,,,,13,,,51,105
416640,note_on,,,,,0,0,14,,,,12,,,68,105
416640,note_on,,,,,672,0,12,,,,10,,,63,105
416640,note_on,,,,,0,0,12,,,,10,,,71,105
416640,note_on,,,,,0,0,12,,,,10,,,80,105
416640,note_on,,,,,672,0,10,,,,6,,,80,105
416640,note_on,,,,,0,0,3,,,,1,,,75,92
416640,note_on,,,,,128,0,6,,,,3,,,59,92
416640,note_on,,,,,0,0,6,,,,3,,,63,92
416640,note_on,,,,,0,0,1,,,,0,,,87,105
416640,note_on,,,,,128,0,1,,,,0,,,83,105
416640,note_on,,,,,672,0,14,,,,12,,,59,105
416640,note_on,,,,,0,0,15,,,,13,,,59,105
416832,note_on,,,,,0,0,3,,,,1,,,71,0
416832,note_on,,,,,192,0,3,,,,1,,,75,0
416832,note_on,,,,,0,0,6,,,,3,,,59,0
416832,note_on,,,,,192,0,1,,,,0,,,87,0
416832,note_on,,,,,0,0,4,,,,2,,,71,0
416832,note_on,,,,,192,0,4,,,,2,,,75,0
416832,note_on,,,,,0,0,1,,,,0,,,83,0
416832,note_on,,,,,192,0,6,,,,3,,,63,0
416928,note_on,,,,,288,0,15,,,,13,,,59,0
416928,note_on,,,,,288,0,10,,,,6,,,80,0
416928,note_on,,,,,288,0,12,,,,10,,,80,0
416928,note_on,,,,,288,0,14,,,,12,,,68,0
416928,note_on,,,,,0,0,14,,,,12,,,59,0
416928,note_on,,,,,288,0,8,,,,4,,,68,0
416928,note_on,,,,,0,0,15,,,,13,,,51,0
416928,note_on,,,,,288,0,9,,,,5,,,63,0
416928,note_on,,,,,288,0,13,,,,11,,,71,0
416928,note_on,,,,,0,0,13,,,,11,,,63,0
416928,note_on,,,,,0,0,12,,,,10,,,63,0
416928,note_on,,,,,288,0,16,,,,14,,,32,0
416928,note_on,,,,,0,0,9,,,,5,,,51,0
416928,note_on,,,,,0,0,15,,,,13,,,44,0
416928,note_on,,,,,0,0,12,,,,10,,,71,0
416960,note_on,,,,,0,0,3,,,,1,,,73,92
416960,note_on,,,,,128,0,6,,,,3,,,61,92
416960,note_on,,,,,0,0,6,,,,3,,,58,92
416960,note_on,,,,,128,0,3,,,,1,,,70,92
416960,note_on,,,,,0,0,4,,,,2,,,73,92
416960,note_on,,,,,128,0,1,,,,0,,,85,105
416960,note_on,,,,,128,0,4,,,,2,,,70,92
416960,note_on,,,,,0,0,1,,,,0,,,82,105
417152,note_on,,,,,192,0,1,,,,0,,,82,0
417152,note_on,,,,,192,0,4,,,,2,,,73,0
417152,note_on,,,,,0,0,1,,,,0,,,85,0
417152,note_on,,,,,192,0,6,,,,3,,,58,0
417152,note_on,,,,,0,0,3,,,,1,,,70,0
417152,note_on,,,,,192,0,3,,,,1,,,73,0
417152,note_on,,,,,0,0,4,,,,2,,,70,0
417152,note_on,,,,,0,0,6,,,,3,,,61,0
417280,note_on,,,,,128,0,1,,,,0,,,80,105
417280,note_on,,,,,0,0,3,,,,1,,,68,92
417280,note_on,,,,,0,0,1,,,,0,,,83,105
417280,note_on,,,,,128,0,3,,,,1,,,71,92
417280,note_on,,,,,128,0,4,,,,2,,,71,92
417280,note_on,,,,,0,0,4,,,,2,,,68,92
417280,note_on,,,,,128,0,6,,,,3,,,59,92
417280,note_on,,,,,0,0,6,,,,3,,,56,92
417472,note_on,,,,,192,0,4,,,,2,,,68,0
417472,note_on,,,,,0,0,4,,,,2,,,71,0
417472,note_on,,,,,192,0,3,,,,1,,,68,0
417472,note_on,,,,,0,0,3,,,,1,,,71,0
417472,note_on,,,,,0,0,1,,,,0,,,80,0
417472,note_on,,,,,192,0,6,,,,3,,,56,0
417472,note_on,,,,,0,0,6,,,,3,,,59,0
417472,note_on,,,,,192,0,1,,,,0,,,83,0
417600,note_on,,,,,0,0,1,,,,0,,,87,105
417600,note_on,,,,,128,0,1,,,,0,,,83,105
417600,note_on,,,,,0,0,4,,,,2,,,75,92
417600,note_on,,,,,128,0,4,,,,2,,,71,92
417600,note_on,,,,,0,0,6,,,,3,,,63,92
417600,note_on,,,,,128,0,6,,,,3,,,59,92
417600,note_on,,,,,0,0,3,,,,1,,,75,92
417600,note_on,,,,,128,0,3,,,,1,,,71,92
418560,note_on,,,,,0,0,12,,,,10,,,63,105
418560,note_on,,,,,1632,0,8,,,,4,,,56,105
418560,note_on,,,,,0,0,9,,,,5,,,63,105
418560,note_on,,,,,1632,0,9,,,,5,,,51,105
418560,note_on,,,,,0,0,15,,,,13,,,59,105
418560,note_on,,,,,0,0,15,,,,13,,,51,105
418560,note_on,,,,,1632,0,15,,,,13,,,44,105
418560,note_on,,,,,0,0,13,,,,11,,,71,105
418560,note_on,,,,,0,0,8,,,,4,,,68,105
418560,note_on,,,,,1632,0,14,,,,12,,,59,105
418560,note_on,,,,,1632,0,12,,,,10,,,80,105
418560,note_on,,,,,0,0,12,,,,10,,,71,105
418560,note_on,,,,,1632,0,16,,,,14,,,32,105
418560,note_on,,,,,0,0,14,,,,12,,,68,105
418560,note_on,,,,,0,0,10,,,,6,,,80,105
418560,note_on,,,,,1632,0,10,,,,6,,,68,105
418560,note_on,,,,,1632,0,13,,,,11,,,63,105
418752,note_on,,,,,1152,0,3,,,,1,,,75,0
418752,note_on,,,,,1152,0,1,,,,0,,,87,0
418752,note_on,,,,,0,0,1,,,,0,,,83,0
418752,note_on,,,,,0,0,4,,,,2,,,71,0
418752,note_on,,,,,1152,0,4,,,,2,,,75,0
418752,note_on,,,,,0,0,6,,,,3,,,59,0
418752,note_on,,,,,1152,0,6,,,,3,,,63,0
418752,note_on,,,,,0,0,3,,,,1,,,71,0
418848,note_on,,,,,0,0,12,,,,10,,,80,0
418848,note_on,,,,,288,0,8,,,,4,,,68,0
418848,note_on,,,,,288,0,12,,,,10,,,63,0
418848,note_on,,,,,0,0,10,,,,6,,,68,0
418848,note_on,,,,,0,0,12,,,,10,,,71,0
418848,note_on,,,,,288,0,10,,,,6,,,80,0
418848,note_on,,,,,288,0,16,,,,14,,,32,0
418848,note_on,,,,,0,0,13,,,,11,,,63,0
418848,note_on,,,,,0,0,9,,,,5,,,51,0
418848,note_on,,,,,288,0,9,,,,5,,,63,0
418848,note_on,,,,,0,0,15,,,,13,,,44,0
418848,note_on,,,,,0,0,15,,,,13,,,51,0
418848,note_on,,,,,288,0,15,,,,13,,,59,0
418848,note_on,,,,,288,0,14,,,,12,,,68,0
418848,note_on,,,,,0,0,14,,,,12,,,59,0
418848,note_on,,,,,0,0,8,,,,4,,,56,0
418848,note_on,,,,,288,0,13,,,,11,,,71,0
418880,note_on,,,,,128,0,4,,,,2,,,73,92
418880,note_on,,,,,0,0,1,,,,0,,,85,105
418880,note_on,,,,,128,0,1,,,,0,,,82,105
418880,note_on,,,,,0,0,4,,,,2,,,70,92
418880,note_on,,,,,128,0,6,,,,3,,,58,92
418880,note_on,,,,,0,0,3,,,,1,,,73,92
418880,note_on,,,,,128,0,3,,,,1,,,70,92
418880,note_on,,,,,0,0,6,,,,3,,,61,92
419072,note_on,,,,,0,0,4,,,,2,,,73,0
419072,note_on,,,,,0,0,3,,,,1,,,70,0
419072,note_on,,,,,192,0,3,,,,1,,,73,0
419072,note_on,,,,,0,0,1,,,,0,,,82,0
419072,note_on,,,,,192,0,1,,,,0,,,85,0
419072,note_on,,,,,192,0,4,,,,2,,,70,0
419072,note_on,,,,,0,0,6,,,,3,,,58,0
419072,note_on,,,,,192,0,6,,,,3,,,61,0
419200,note_on,,,,,0,0,6,,,,3,,,56,92
419200,note_on,,,,,0,0,3,,,,1,,,71,92
419200,note_on,,,,,128,0,3,,,,1,,,68,92
419200,note_on,,,,,128,0,4,,,,2,,,71,92
419200,note_on,,,,,0,0,4,,,,2,,,68,92
419200,note_on,,,,,128,0,6,,,,3,,,59,92
419200,note_on,,,,,128,0,1,,,,0,,,83,105
419200,note_on,,,,,0,0,1,,,,0,,,80,105
419392,note_on,,,,,192,0,1,,,,0,,,80,0
419392,note_on,,,,,0,0,6,,,,3,,,59,0
419392,note_on,,,,,192,0,3,,,,1,,,71,0
419392,note_on,,,,,0,0,3,,,,1,,,68,0
419392,note_on,,,,,192,0,6,,,,3,,,56,0
419392,note_on,,,,,0,0,1,,,,0,,,83,0
419392,note_on,,,,,0,0,4,,,,2,,,71,0
419392,note_on,,,,,192,0,4,,,,2,,,68,0
419520,note_on,,,,,0,0,6,,,,3,,,59,92
419520,program_change,,,,,672,0,16,,,45,14,,,,
419520,note_on,,,,,128,0,6,,,,3,,,63,92
419520,program_change,,,,,672,0,14,,,45,12,,,,
419520,note_on,,,,,0,0,1,,,,0,,,83,105
419520,note_on,,,,,128,0,1,,,,0,,,87,105
419520,program_change,,,,,672,0,15,,,45,13,,,,
419520,program_change,,,,,672,0,13,,,45,11,,,,
419520,note_on,,,,,128,0,4,,,,2,,,71,92
419520,note_on,,,,,0,0,4,,,,2,,,75,92
419520,note_on,,,,,128,0,3,,,,1,,,75,92
419520,program_change,,,,,672,0,12,,,45,10,,,,
419520,note_on,,,,,0,0,3,,,,1,,,71,92
420288,note_on,,,,,768,0,1,,,,0,,,83,0
420288,note_on,,,,,0,0,1,,,,0,,,87,0
420480,set_tempo,,,,,24960,1,0,416667,,,,,,,
420480,note_on,,,,,960,0,16,,,,14,,,32,63
420480,note_on,,,,,960,0,15,,,,13,,,44,63
420800,note_on,,,,,0,0,6,,,,3,,,63,0
420800,note_on,,,,,0,0,6,,,,3,,,61,70
420800,note_on,,,,,0,0,4,,,,2,,,71,0
420800,note_on,,,,,0,0,4,,,,2,,,73,70
420800,note_on,,,,,0,0,4,,,,2,,,70,70
420800,note_on,,,,,1280,0,4,,,,2,,,75,0
420800,note_on,,,,,1280,0,6,,,,3,,,59,0
420800,note_on,,,,,0,0,6,,,,3,,,58,70
420864,note_on,,,,,384,0,15,,,,13,,,44,0
420864,note_on,,,,,384,0,16,,,,14,,,32,0
420864,note_on,,,,,1344,0,3,,,,1,,,71,0
420864,note_on,,,,,0,0,3,,,,1,,,75,0
420960,note_on,,,,,1440,0,14,,,,12,,,63,38
420960,note_on,,,,,0,0,12,,,,10,,,75,63
420960,note_on,,,,,1440,0,12,,,,10,,,87,63
420960,note_on,,,,,0,0,14,,,,12,,,59,38
420960,note_on,,,,,0,0,1,,,,0,,,83,63
420960,note_on,,,,,672,0,1,,,,0,,,87,63
420960,note_on,,,,,1440,0,13,,,,11,,,71,38
420960,note_on,,,,,0,0,13,,,,11,,,83,38
421120,note_on,,,,,0,0,4,,,,2,,,71,70
421120,note_on,,,,,0,0,4,,,,2,,,70,0
421120,note_on,,,,,320,0,4,,,,2,,,73,0
421120,note_on,,,,,0,0,4,,,,2,,,68,70
421120,note_on,,,,,0,0,6,,,,3,,,56,70
421120,note_on,,,,,0,0,6,,,,3,,,61,0
421120,note_on,,,,,0,0,6,,,,3,,,59,70
421120,note_on,,,,,320,0,6,,,,3,,,58,0
421344,note_on,,,,,384,0,1,,,,0,,,83,0
421344,note_on,,,,,0,0,1,,,,0,,,87,0
421344,note_on,,,,,384,0,14,,,,12,,,59,0
421344,note_on,,,,,0,0,14,,,,12,,,63,0
421344,note_on,,,,,384,0,12,,,,10,,,75,0
421344,note_on,,,,,384,0,13,,,,11,,,83,0
421344,note_on,,,,,0,0,12,,,,10,,,87,0
421344,note_on,,,,,0,0,13,,,,11,,,71,0
421376,note_on,,,,,0,0,6,,,,3,,,59,0
421376,note_on,,,,,256,0,6,,,,3,,,56,0
421376,note_on,,,,,0,0,4,,,,2,,,71,0
421376,note_on,,,,,256,0,4,,,,2,,,68,0
421440,note_on,,,,,0,0,6,,,,3,,,59,70
421440,note_on,,,,,64,0,4,,,,2,,,71,70
421440,note_on,,,,,0,0,4,,,,2,,,75,70
421440,note_on,,,,,64,0,6,,,,3,,,63,70
421920,note_on,,,,,0,0,12,,,,10,,,83,63
421920,note_on,,,,,576,0,13,,,,11,,,68,38
421920,note_on,,,,,576,0,12,,,,10,,,71,63
421920,note_on,,,,,576,0,1,,,,0,,,80,63
421920,note_on,,,,,0,0,14,,,,12,,,59,38
421920,note_on,,,,,576,0,14,,,,12,,,56,38
421920,note_on,,,,,0,0,13,,,,11,,,80,38
421920,note_on,,,,,0,0,1,,,,0,,,83,63
422304,note_on,,,,,384,0,1,,,,0,,,83,0
422304,note_on,,,,,0,0,1,,,,0,,,80,0
422304,note_on,,,,,0,0,12,,,,10,,,71,0
422304,note_on,,,,,384,0,12,,,,10,,,83,0
422304,note_on,,,,,0,0,13,,,,11,,,68,0
422304,note_on,,,,,384,0,13,,,,11,,,80,0
422304,note_on,,,,,384,0,14,,,,12,,,59,0
422304,note_on,,,,,0,0,14,,,,12,,,56,0
422400,note_on,,,,,1536,0,16,,,,14,,,37,63
422400,note_on,,,,,1536,0,15,,,,13,,,49,63
422720,note_on,,,,,0,0,4,,,,2,,,73,70
422720,note_on,,,,,0,0,6,,,,3,,,58,70
422720,note_on,,,,,0,0,6,,,,3,,,61,70
422720,note_on,,,,,0,0,6,,,,3,,,63,0
422720,note_on,,,,,1280,0,6,,,,3,,,59,0
422720,note_on,,,,,1280,0,4,,,,2,,,75,0
422720,note_on,,,,,0,0,4,,,,2,,,70,70
422720,note_on,,,,,0,0,4,,,,2,,,71,0
422784,note_on,,,,,384,0,16,,,,14,,,37,0
422784,note_on,,,,,384,0,15,,,,13,,,49,0
422880,note_on,,,,,576,0,14,,,,12,,,52,38
422880,note_on,,,,,576,0,12,,,,10,,,80,63
422880,note_on,,,,,576,0,1,,,,0,,,76,63
422880,note_on,,,,,0,0,1,,,,0,,,80,63
422880,note_on,,,,,0,0,13,,,,11,,,64,38
422880,note_on,,,,,576,0,13,,,,11,,,76,38
422880,note_on,,,,,0,0,12,,,,10,,,68,63
422880,note_on,,,,,0,0,14,,,,12,,,56,38
423040,note_on,,,,,0,0,4,,,,2,,,71,70
423040,note_on,,,,,0,0,4,,,,2,,,73,0
423040,note_on,,,,,320,0,4,,,,2,,,70,0
423040,note_on,,,,,0,0,4,,,,2,,,68,70
423040,note_on,,,,,320,0,6,,,,3,,,58,0
423040,note_on,,,,,0,0,6,,,,3,,,56,70
423040,note_on,,,,,0,0,6,,,,3,,,59,70
423040,note_on,,,,,0,0,6,,,,3,,,61,0
423264,note_on,,,,,0,0,1,,,,0,,,76,0
423264,note_on,,,,,384,0,1,,,,0,,,80,0
423264,note_on,,,,,0,0,12,,,,10,,,80,0
423264,note_on,,,,,384,0,12,,,,10,,,68,0
423264,note_on,,,,,384,0,14,,,,12,,,56,0
423264,note_on,,,,,0,0,13,,,,11,,,76,0
423264,note_on,,,,,0,0,14,,,,12,,,52,0
423264,note_on,,,,,384,0,13,,,,11,,,64,0
423296,note_on,,,,,0,0,6,,,,3,,,56,0
423296,note_on,,,,,0,0,4,,,,2,,,71,0
423296,note_on,,,,,256,0,4,,,,2,,,68,0
423296,note_on,,,,,256,0,6,,,,3,,,59,0
423360,note_on,,,,,64,0,4,,,,2,,,71,70
423360,note_on,,,,,0,0,4,,,,2,,,68,70
423360,note_on,,,,,64,0,6,,,,3,,,56,70
423360,note_on,,,,,0,0,6,,,,3,,,59,70
423680,note_on,,,,,0,0,6,,,,3,,,58,70
423680,note_on,,,,,320,0,4,,,,2,,,68,0
423680,note_on,,,,,320,0,6,,,,3,,,59,0
423680,note_on,,,,,0,0,4,,,,2,,,70,70
423680,note_on,,,,,0,0,4,,,,2,,,66,70
423680,note_on,,,,,0,0,4,,,,2,,,71,0
423680,note_on,,,,,0,0,6,,,,3,,,54,70
423680,note_on,,,,,0,0,6,,,,3,,,56,0
423840,note_on,,,,,0,0,1,,,,0,,,85,63
423840,note_on,,,,,576,0,12,,,,10,,,88,63
423840,note_on,,,,,0,0,12,,,,10,,,76,63
423840,note_on,,,,,0,0,13,,,,11,,,73,38
423840,note_on,,,,,576,0,13,,,,11,,,85,38
423840,note_on,,,,,576,0,1,,,,0,,,88,63
423840,note_on,,,,,0,0,14,,,,12,,,61,38
423840,note_on,,,,,576,0,14,,,,12,,,64,38
424000,note_on,,,,,0,0,4,,,,2,,,66,0
424000,note_on,,,,,0,0,4,,,,2,,,68,70
424000,note_on,,,,,0,0,4,,,,2,,,64,70
424000,note_on,,,,,0,0,6,,,,3,,,52,70
424000,note_on,,,,,0,0,6,,,,3,,,56,70
424000,note_on,,,,,0,0,6,,,,3,,,58,0
424000,note_on,,,,,320,0,4,,,,2,,,70,0
424000,note_on,,,,,320,0,6,,,,3,,,54,0
424224,note_on,,,,,0,0,14,,,,12,,,64,0
424224,note_on,,,,,384,0,1,,,,0,,,85,0
424224,note_on,,,,,0,0,1,,,,0,,,88,0
424224,note_on,,,,,0,0,13,,,,11,,,85,0
424224,note_on,,,,,0,0,12,,,,10,,,88,0
424224,note_on,,,,,384,0,12,,,,10,,,76,0
424224,note_on,,,,,384,0,14,,,,12,,,61,0
424224,note_on,,,,,384,0,13,,,,11,,,73,0
424256,note_on,,,,,256,0,4,,,,2,,,64,0
424256,note_on,,,,,256,0,6,,,,3,,,52,0
424256,note_on,,,,,0,0,6,,,,3,,,56,0
424256,note_on,,,,,0,0,4,,,,2,,,68,0
424320,note_on,,,,,64,0,4,,,,2,,,70,70
424320,note_on,,,,,0,0,4,,,,2,,,73,70
424320,note_on,,,,,1536,0,15,,,,13,,,42,63
424320,note_on,,,,,64,0,6,,,,3,,,58,70
424320,note_on,,,,,1536,0,16,,,,14,,,30,63
424320,note_on,,,,,0,0,6,,,,3,,,61,70
424640,note_on,,,,,0,0,6,,,,3,,,56,70
424640,note_on,,,,,320,0,4,,,,2,,,73,0
424640,note_on,,,,,0,0,4,,,,2,,,70,0
424640,note_on,,,,,0,0,4,,,,2,,,68,70
424640,note_on,,,,,0,0,4,,,,2,,,71,70
424640,note_on,,,,,0,0,6,,,,3,,,58,0
424640,note_on,,,,,0,0,6,,,,3,,,59,70
424640,note_on,,,,,320,0,6,,,,3,,,61,0
424704,note_on,,,,,384,0,16,,,,14,,,30,0
424704,note_on,,,,,384,0,15,,,,13,,,42,0
424800,note_on,,,,,0,0,12,,,,10,,,73,63
424800,note_on,,,,,576,0,12,,,,10,,,85,63
424800,note_on,,,,,0,0,13,,,,11,,,70,38
424800,note_on,,,,,576,0,1,,,,0,,,85,63
424800,note_on,,,,,576,0,13,,,,11,,,82,38
424800,note_on,,,,,0,0,14,,,,12,,,58,38
424800,note_on,,,,,0,0,1,,,,0,,,82,63
424800,note_on,,,,,576,0,14,,,,12,,,61,38
424960,note_on,,,,,0,0,6,,,,3,,,59,0
424960,note_on,,,,,0,0,4,,,,2,,,66,70
424960,note_on,,,,,0,0,4,,,,2,,,68,0
424960,note_on,,,,,320,0,4,,,,2,,,71,0
424960,note_on,,,,,0,0,6,,,,3,,,54,70
424960,note_on,,,,,0,0,4,,,,2,,,70,70
424960,note_on,,,,,0,0,6,,,,3,,,58,70
424960,note_on,,,,,320,0,6,,,,3,,,56,0
425184,note_on,,,,,0,0,13,,,,11,,,82,0
425184,note_on,,,,,384,0,1,,,,0,,,82,0
425184,note_on,,,,,0,0,1,,,,0,,,85,0
425184,note_on,,,,,384,0,13,,,,11,,,70,0
425184,note_on,,,,,0,0,14,,,,12,,,61,0
425184,note_on,,,,,384,0,12,,,,10,,,73,0
425184,note_on,,,,,0,0,12,,,,10,,,85,0
425184,note_on,,,,,384,0,14,,,,12,,,58,0
425216,note_on,,,,,256,0,4,,,,2,,,70,0
425216,note_on,,,,,256,0,6,,,,3,,,58,0
425216,note_on,,,,,0,0,6,,,,3,,,54,0
425216,note_on,,,,,0,0,4,,,,2,,,66,0
425280,note_on,,,,,0,0,6,,,,3,,,58,70
425280,note_on,,,,,0,0,4,,,,2,,,70,70
425280,note_on,,,,,64,0,4,,,,2,,,73,70
425280,note_on,,,,,64,0,6,,,,3,,,61,70
425760,note_on,,,,,0,0,13,,,,11,,,78,38
425760,note_on,,,,,576,0,1,,,,0,,,82,63
425760,note_on,,,,,0,0,1,,,,0,,,78,63
425760,note_on,,,,,0,0,14,,,,12,,,54,38
425760,note_on,,,,,576,0,12,,,,10,,,70,63
425760,note_on,,,,,0,0,12,,,,10,,,82,63
425760,note_on,,,,,576,0,14,,,,12,,,58,38
425760,note_on,,,,,576,0,13,,,,11,,,66,38
426144,note_on,,,,,384,0,14,,,,12,,,54,0
426144,note_on,,,,,0,0,14,,,,12,,,58,0
426144,note_on,,,,,0,0,13,,,,11,,,66,0
426144,note_on,,,,,384,0,13,,,,11,,,78,0
426144,note_on,,,,,384,0,1,,,,0,,,78,0
426144,note_on,,,,,0,0,1,,,,0,,,82,0
426144,note_on,,,,,384,0,12,,,,10,,,82,0
426144,note_on,,,,,0,0,12,,,,10,,,70,0
426240,note_on,,,,,1536,0,16,,,,14,,,35,63
426240,note_on,,,,,1536,0,15,,,,13,,,47,63
426560,note_on,,,,,0,0,4,,,,2,,,73,0
426560,note_on,,,,,0,0,4,,,,2,,,68,70
426560,note_on,,,,,0,0,6,,,,3,,,59,70
426560,note_on,,,,,0,0,6,,,,3,,,56,70
426560,note_on,,,,,0,0,6,,,,3,,,61,0
426560,note_on,,,,,1280,0,6,,,,3,,,58,0
426560,note_on,,,,,1280,0,4,,,,2,,,70,0
426560,note_on,,,,,0,0,4,,,,2,,,71,70
426624,note_on,,,,,384,0,16,,,,14,,,35,0
426624,note_on,,,,,384,0,15,,,,13,,,47,0
426720,note_on,,,,,576,0,14,,,,12,,,54,38
426720,note_on,,,,,0,0,1,,,,0,,,75,63
426720,note_on,,,,,576,0,1,,,,0,,,78,63
426720,note_on,,,,,0,0,12,,,,10,,,78,63
426720,note_on,,,,,576,0,12,,,,10,,,66,63
426720,note_on,,,,,0,0,14,,,,12,,,51,38
426720,note_on,,,,,576,0,13,,,,11,,,75,38
426720,note_on,,,,,0,0,13,,,,11,,,63,38
426880,note_on,,,,,320,0,6,,,,3,,,59,0
426880,note_on,,,,,0,0,4,,,,2,,,70,70
426880,note_on,,,,,0,0,6,,,,3,,,54,70
426880,note_on,,,,,0,0,6,,,,3,,,58,70
426880,note_on,,,,,0,0,6,,,,3,,,56,0
426880,note_on,,,,,320,0,4,,,,2,,,68,0
426880,note_on,,,,,0,0,4,,,,2,,,71,0
426880,note_on,,,,,0,0,4,,,,2,,,66,70
427104,note_on,,,,,0,0,14,,,,12,,,54,0
427104,note_on,,,,,0,0,1,,,,0,,,78,0
427104,note_on,,,,,0,0,12,,,,10,,,66,0
427104,note_on,,,,,384,0,14,,,,12,,,51,0
427104,note_on,,,,,0,0,13,,,,11,,,75,0
427104,note_on,,,,,384,0,13,,,,11,,,63,0
427104,note_on,,,,,384,0,1,,,,0,,,75,0
427104,note_on,,,,,384,0,12,,,,10,,,78,0
427136,note_on,,,,,0,0,4,,,,2,,,66,0
427136,note_on,,,,,256,0,6,,,,3,,,54,0
427136,note_on,,,,,0,0,6,,,,3,,,58,0
427136,note_on,,,,,256,0,4,,,,2,,,70,0
427200,note_on,,,,,0,0,4,,,,2,,,70,70
427200,note_on,,,,,64,0,4,,,,2,,,66,70
427200,note_on,,,,,0,0,6,,,,3,,,54,70
427200,note_on,,,,,64,0,6,,,,3,,,58,70
427520,note_on,,,,,0,0,4,,,,2,,,64,70
427520,note_on,,,,,0,0,6,,,,3,,,56,70
427520,note_on,,,,,0,0,6,,,,3,,,52,70
427520,note_on,,,,,0,0,6,,,,3,,,58,0
427520,note_on,,,,,320,0,6,,,,3,,,54,0
427520,note_on,,,,,320,0,4,,,,2,,,70,0
427520,note_on,,,,,0,0,4,,,,2,,,66,0
427520,note_on,,,,,0,0,4,,,,2,,,68,70
427680,note_on,,,,,0,0,12,,,,10,,,75,63
427680,note_on,,,,,0,0,3,,,,1,,,75,70
427680,note_on,,,,,576,0,13,,,,11,,,83,38
427680,note_on,,,,,0,0,14,,,,12,,,63,38
427680,note_on,,,,,0,0,1,,,,0,,,87,63
427680,note_on,,,,,576,0,1,,,,0,,,83,63
427680,note_on,,,,,576,0,12,,,,10,,,87,63
427680,note_on,,,,,6816,0,3,,,,1,,,71,70
427680,note_on,,,,,0,0,13,,,,11,,,71,38
427680,note_on,,,,,576,0,14,,,,12,,,59,38
427840,note_on,,,,,0,0,6,,,,3,,,54,63
427840,note_on,,,,,0,0,4,,,,2,,,63,63
427840,note_on,,,,,0,0,6,,,,3,,,51,63
427840,note_on,,,,,320,0,6,,,,3,,,56,0
427840,note_on,,,,,320,0,4,,,,2,,,64,0
427840,note_on,,,,,0,0,4,,,,2,,,68,0
427840,note_on,,,,,0,0,4,,,,2,,,66,63
427840,note_on,,,,,0,0,6,,,,3,,,52,0
428064,note_on,,,,,0,0,1,,,,0,,,83,0
428064,note_on,,,,,384,0,12,,,,10,,,75,0
428064,note_on,,,,,0,0,12,,,,10,,,87,0
428064,note_on,,,,,0,0,13,,,,11,,,83,0
428064,note_on,,,,,384,0,14,,,,12,,,63,0
428064,note_on,,,,,384,0,13,,,,11,,,71,0
428064,note_on,,,,,0,0,14,,,,12,,,59,0
428064,note_on,,,,,384,0,1,,,,0,,,87,0
428096,note_on,,,,,0,0,4,,,,2,,,66,0
428096,note_on,,,,,256,0,4,,,,2,,,63,0
428096,note_on,,,,,256,0,6,,,,3,,,51,0
428096,note_on,,,,,0,0,6,,,,3,,,54,0
428160,note_on,,,,,0,0,6,,,,3,,,56,63
428160,note_on,,,,,1536,0,15,,,,13,,,40,63
428160,note_on,,,,,64,0,6,,,,3,,,52,63
428160,note_on,,,,,1536,0,16,,,,14,,,28,63
428480,note_on,,,,,0,0,3,,,,1,,,71,0
428480,note_on,,,,,0,0,3,,,,1,,,70,70
428480,note_on,,,,,800,0,3,,,,1,,,75,0
428480,note_on,,,,,0,0,3,,,,1,,,73,70
428544,note_on,,,,,384,0,16,,,,14,,,28,0
428544,note_on,,,,,384,0,15,,,,13,,,40,0
428640,note_on,,,,,0,0,1,,,,0,,,88,63
428640,note_on,,,,,576,0,1,,,,0,,,92,63
428640,note_on,,,,,576,0,13,,,,11,,,76,38
428640,note_on,,,,,576,0,14,,,,12,,,68,38
428640,note_on,,,,,576,0,12,,,,10,,,92,63
428640,note_on,,,,,0,0,12,,,,10,,,80,63
428640,note_on,,,,,0,0,13,,,,11,,,88,38
428640,note_on,,,,,0,0,14,,,,12,,,64,38
428800,note_on,,,,,0,0,3,,,,1,,,71,70
428800,note_on,,,,,320,0,3,,,,1,,,73,0
428800,note_on,,,,,0,0,3,,,,1,,,70,0
428800,note_on,,,,,0,0,3,,,,1,,,68,70
429024,note_on,,,,,384,0,13,,,,11,,,88,0
429024,note_on,,,,,0,0,13,,,,11,,,76,0
429024,note_on,,,,,384,0,1,,,,0,,,88,0
429024,note_on,,,,,384,0,14,,,,12,,,64,0
429024,note_on,,,,,0,0,14,,,,12,,,68,0
429024,note_on,,,,,0,0,1,,,,0,,,92,0
429024,note_on,,,,,384,0,12,,,,10,,,80,0
429024,note_on,,,,,0,0,12,,,,10,,,92,0
429056,note_on,,,,,256,0,3,,,,1,,,68,0
429056,note_on,,,,,0,0,3,,,,1,,,71,0
429120,note_on,,,,,0,0,3,,,,1,,,76,70
429120,note_on,,,,,64,0,3,,,,1,,,80,70
429440,note_on,,,,,0,0,3,,,,1,,,75,70
429440,note_on,,,,,0,0,3,,,,1,,,80,0
429440,note_on,,,,,320,0,3,,,,1,,,76,0
429440,note_on,,,,,0,0,3,,,,1,,,78,70
429600,note_on,,,,,576,0,1,,,,0,,,80,63
429600,note_on,,,,,0,0,12,,,,10,,,80,63
429600,note_on,,,,,0,0,1,,,,0,,,76,63
429600,note_on,,,,,576,0,12,,,,10,,,68,63
429600,note_on,,,,,576,0,14,,,,12,,,56,38
429600,note_on,,,,,0,0,13,,,,11,,,64,38
429600,note_on,,,,,576,0,13,,,,11,,,76,38
429600,note_on,,,,,0,0,14,,,,12,,,52,38
429760,note_on,,,,,0,0,3,,,,1,,,78,0
429760,note_on,,,,,0,0,3,,,,1,,,73,70
429760,note_on,,,,,0,0,3,,,,1,,,76,70
429760,note_on,,,,,320,0,3,,,,1,,,75,0
429984,note_on,,,,,384,0,13,,,,11,,,64,0
429984,note_on,,,,,384,0,12,,,,10,,,80,0
429984,note_on,,,,,384,0,14,,,,12,,,52,0
429984,note_on,,,,,0,0,14,,,,12,,,56,0
429984,note_on,,,,,384,0,1,,,,0,,,76,0
429984,note_on,,,,,0,0,1,,,,0,,,80,0
429984,note_on,,,,,0,0,13,,,,11,,,76,0
429984,note_on,,,,,0,0,12,,,,10,,,68,0
430016,note_on,,,,,0,0,3,,,,1,,,73,0
430016,note_on,,,,,256,0,3,,,,1,,,76,0
430080,note_on,,,,,0,0,6,,,,3,,,59,63
430080,note_on,,,,,1536,0,16,,,,14,,,35,63
430080,note_on,,,,,0,0,3,,,,1,,,78,70
430080,note_on,,,,,64,0,3,,,,1,,,75,70
430080,note_on,,,,,0,0,6,,,,3,,,47,63
430080,note_on,,,,,1536,0,15,,,,13,,,47,63
430080,note_on,,,,,1920,0,6,,,,3,,,56,0
430080,note_on,,,,,0,0,6,,,,3,,,52,0
430400,note_on,,,,,320,0,3,,,,1,,,78,0
430400,note_on,,,,,0,0,3,,,,1,,,75,0
430400,note_on,,,,,0,0,3,,,,1,,,76,70
430400,note_on,,,,,0,0,3,,,,1,,,73,70
430464,note_on,,,,,384,0,15,,,,13,,,47,0
430464,note_on,,,,,384,0,16,,,,14,,,35,0
430560,note_on,,,,,0,0,12,,,,10,,,83,63
430560,note_on,,,,,576,0,14,,,,12,,,59,38
430560,note_on,,,,,576,0,12,,,,10,,,71,63
430560,note_on,,,,,0,0,14,,,,12,,,51,38
430560,note_on,,,,,576,0,13,,,,11,,,75,38
430560,note_on,,,,,576,0,1,,,,0,,,75,63
430560,note_on,,,,,0,0,1,,,,0,,,83,63
430560,note_on,,,,,0,0,13,,,,11,,,63,38
430720,note_on,,,,,0,0,3,,,,1,,,71,70
430720,note_on,,,,,0,0,3,,,,1,,,76,0
430720,note_on,,,,,320,0,3,,,,1,,,73,0
430720,note_on,,,,,0,0,3,,,,1,,,75,70
430944,note_on,,,,,0,0,13,,,,11,,,75,0
430944,note_on,,,,,384,0,13,,,,11,,,63,0
430944,note_on,,,,,0,0,1,,,,0,,,75,0
430944,note_on,,,,,0,0,12,,,,10,,,71,0
430944,note_on,,,,,384,0,14,,,,12,,,51,0
430944,note_on,,,,,0,0,14,,,,12,,,59,0
430944,note_on,,,,,384,0,1,,,,0,,,83,0
430944,note_on,,,,,384,0,12,,,,10,,,83,0
430976,note_on,,,,,0,0,3,,,,1,,,71,0
430976,note_on,,,,,256,0,3,,,,1,,,75,0
431040,note_on,,,,,0,0,3,,,,1,,,75,63
431040,note_on,,,,,64,0,3,,,,1,,,78,70
431520,note_on,,,,,0,0,13,,,,11,,,71,38
431520,note_on,,,,,576,0,12,,,,10,,,75,63
431520,note_on,,,,,0,0,12,,,,10,,,87,63
431520,note_on,,,,,0,0,4,,,,2,,,66,70
431520,note_on,,,,,3424,0,4,,,,2,,,69,70
431520,note_on,,,,,576,0,13,,,,11,,,83,38
431520,note_on,,,,,0,0,1,,,,0,,,83,63
431520,note_on,,,,,576,0,1,,,,0,,,87,63
431520,note_on,,,,,0,0,14,,,,12,,,63,38
431520,note_on,,,,,576,0,14,,,,12,,,59,38
431904,note_on,,,,,384,0,1,,,,0,,,83,0
431904,note_on,,,,,384,0,14,,,,12,,,63,0
431904,note_on,,,,,0,0,14,,,,12,,,59,0
431904,note_on,,,,,1824,0,6,,,,3,,,59,0
431904,note_on,,,,,0,0,6,,,,3,,,47,0
431904,note_on,,,,,384,0,12,,,,10,,,87,0
431904,note_on,,,,,0,0,13,,,,11,,,83,0
431904,note_on,,,,,384,0,13,,,,11,,,71,0
431904,note_on,,,,,0,0,1,,,,0,,,87,0
431904,note_on,,,,,0,0,12,,,,10,,,75,0
431952,note_on,,,,,0,0,3,,,,1,,,78,0
431952,note_on,,,,,912,0,3,,,,1,,,75,0
432000,note_on,,,,,96,0,6,,,,3,,,54,63
432000,note_on,,,,,1536,0,15,,,,13,,,42,63
432000,note_on,,,,,0,0,6,,,,3,,,57,63
432000,note_on,,,,,1536,0,16,,,,14,,,30,63
432320,note_on,,,,,0,0,4,,,,2,,,68,70
432320,note_on,,,,,0,0,4,,,,2,,,64,70
432320,note_on,,,,,0,0,4,,,,2,,,69,0
432320,note_on,,,,,800,0,4,,,,2,,,66,0
432384,note_on,,,,,384,0,15,,,,13,,,42,0
432384,note_on,,,,,384,0,16,,,,14,,,30,0
432480,note_on,,,,,0,0,1,,,,0,,,81,63
432480,note_on,,,,,0,0,14,,,,12,,,57,38
432480,note_on,,,,,576,0,12,,,,10,,,78,63
432480,note_on,,,,,576,0,14,,,,12,,,66,38
432480,note_on,,,,,576,0,1,,,,0,,,90,63
432480,note_on,,,,,576,0,13,,,,11,,,81,38
432480,note_on,,,,,0,0,13,,,,11,,,69,38
432480,note_on,,,,,0,0,12,,,,10,,,90,63
432640,note_on,,,,,0,0,4,,,,2,,,63,70
432640,note_on,,,,,320,0,4,,,,2,,,68,0
432640,note_on,,,,,0,0,4,,,,2,,,64,0
432640,note_on,,,,,0,0,4,,,,2,,,66,70
432864,note_on,,,,,384,0,1,,,,0,,,81,0
432864,note_on,,,,,0,0,1,,,,0,,,90,0
432864,note_on,,,,,384,0,13,,,,11,,,69,0
432864,note_on,,,,,0,0,14,,,,12,,,66,0
432864,note_on,,,,,384,0,14,,,,12,,,57,0
432864,note_on,,,,,0,0,12,,,,10,,,78,0
432864,note_on,,,,,384,0,12,,,,10,,,90,0
432864,note_on,,,,,0,0,13,,,,11,,,81,0
432896,note_on,,,,,0,0,4,,,,2,,,63,0
432896,note_on,,,,,256,0,4,,,,2,,,66,0
432960,note_on,,,,,64,0,4,,,,2,,,69,70
432960,note_on,,,,,0,0,4,,,,2,,,73,70
433280,note_on,,,,,320,0,4,,,,2,,,73,0
433280,note_on,,,,,0,0,4,,,,2,,,69,0
433280,note_on,,,,,0,0,4,,,,2,,,71,70
433280,note_on,,,,,0,0,4,,,,2,,,68,70
433440,note_on,,,,,576,0,13,,,,11,,,66,38
433440,note_on,,,,,576,0,14,,,,12,,,54,38
433440,note_on,,,,,576,0,12,,,,10,,,81,63
433440,note_on,,,,,0,0,12,,,,10,,,69,63
433440,note_on,,,,,0,0,1,,,,0,,,81,63
433440,note_on,,,,,576,0,1,,,,0,,,78,63
433440,note_on,,,,,0,0,13,,,,11,,,78,38
433440,note_on,,,,,0,0,14,,,,12,,,57,38
433600,note_on,,,,,0,0,4,,,,2,,,69,70
433600,note_on,,,,,0,0,4,,,,2,,,68,0
433600,note_on,,,,,0,0,4,,,,2,,,66,70
433600,note_on,,,,,320,0,4,,,,2,,,71,0
433824,note_on,,,,,384,0,1,,,,0,,,81,0
433824,note_on,,,,,0,0,1,,,,0,,,78,0
433824,note_on,,,,,0,0,12,,,,10,,,81,0
433824,note_on,,,,,384,0,12,,,,10,,,69,0
433824,note_on,,,,,384,0,14,,,,12,,,57,0
433824,note_on,,,,,0,0,14,,,,12,,,54,0
433824,note_on,,,,,384,0,13,,,,11,,,78,0
433824,note_on,,,,,0,0,13,,,,11,,,66,0
433856,note_on,,,,,0,0,4,,,,2,,,69,0
433856,note_on,,,,,256,0,4,,,,2,,,66,0
433920,note_on,,,,,64,0,4,,,,2,,,68,70
433920,note_on,,,,,0,0,4,,,,2,,,64,70
433920,note_on,,,,,0,0,6,,,,3,,,61,63
433920,note_on,,,,,0,0,6,,,,3,,,49,63
433920,note_on,,,,,0,0,6,,,,3,,,54,0
433920,note_on,,,,,1536,0,16,,,,14,,,37,63
433920,note_on,,,,,1920,0,6,,,,3,,,57,0
433920,note_on,,,,,1536,0,15,,,,13,,,49,63
434240,note_on,,,,,0,0,4,,,,2,,,63,70
434240,note_on,,,,,0,0,4,,,,2,,,68,0
434240,note_on,,,,,0,0,4,,,,2,,,66,70
434240,note_on,,,,,320,0,4,,,,2,,,64,0
434304,note_on,,,,,384,0,15,,,,13,,,49,0
434304,note_on,,,,,384,0,16,,,,14,,,37,0
434400,note_on,,,,,0,0,12,,,,10,,,85,63
434400,note_on,,,,,576,0,12,,,,10,,,73,63
434400,note_on,,,,,0,0,14,,,,12,,,52,38
434400,note_on,,,,,0,0,1,,,,0,,,76,63
434400,note_on,,,,,0,0,13,,,,11,,,64,38
434400,note_on,,,,,576,0,13,,,,11,,,76,38
434400,note_on,,,,,576,0,14,,,,12,,,61,38
434400,note_on,,,,,576,0,1,,,,0,,,85,63
434560,note_on,,,,,0,0,4,,,,2,,,64,70
434560,note_on,,,,,320,0,4,,,,2,,,66,0
434560,note_on,,,,,0,0,4,,,,2,,,61,70
434560,note_on,,,,,0,0,4,,,,2,,,63,0
434784,note_on,,,,,384,0,12,,,,10,,,85,0
434784,note_on,,,,,0,0,12,,,,10,,,73,0
434784,note_on,,,,,0,0,13,,,,11,,,76,0
434784,note_on,,,,,384,0,1,,,,0,,,76,0
434784,note_on,,,,,384,0,13,,,,11,,,64,0
434784,note_on,,,,,0,0,14,,,,12,,,61,0
434784,note_on,,,,,384,0,14,,,,12,,,52,0
434784,note_on,,,,,0,0,1,,,,0,,,85,0
434880,note_on,,,,,320,0,4,,,,2,,,61,0
434880,note_on,,,,,0,0,4,,,,2,,,64,0
434880,note_on,,,,,0,0,4,,,,2,,,64,70
434880,note_on,,,,,0,0,4,,,,2,,,68,70
435360,note_on,,,,,576,0,14,,,,12,,,64,38
435360,note_on,,,,,0,0,14,,,,12,,,56,38
435360,note_on,,,,,576,0,13,,,,11,,,80,38
435360,note_on,,,,,576,0,12,,,,10,,,88,63
435360,note_on,,,,,0,0,12,,,,10,,,76,63
435360,note_on,,,,,0,0,13,,,,11,,,68,38
435648,note_on,,,,,768,0,4,,,,2,,,68,0
435648,note_on,,,,,0,0,4,,,,2,,,64,0
435744,note_on,,,,,0,0,12,,,,10,,,88,0
435744,note_on,,,,,0,0,13,,,,11,,,80,0
435744,note_on,,,,,0,0,14,,,,12,,,64,0
435744,note_on,,,,,0,0,6,,,,3,,,49,0
435744,note_on,,,,,384,0,14,,,,12,,,56,0
435744,note_on,,,,,384,0,12,,,,10,,,76,0
435744,note_on,,,,,384,0,13,,,,11,,,68,0
435744,note_on,,,,,1824,0,6,,,,3,,,61,0
435840,note_on,,,,,0,0,9,,,,5,,,70,63
435840,note_on,,,,,0,0,6,,,,3,,,58,63
435840,note_on,,,,,0,0,12,,,,10,,,87,63
435840,note_on,,,,,0,0,14,,,,12,,,63,38
435840,note_on,,,,,96,0,14,,,,12,,,55,38
435840,note_on,,,,,16992,0,9,,,,5,,,63,63
435840,note_on,,,,,0,0,3,,,,1,,,79,63
435840,set_tempo,,,,,15360,1,0,454545,,,,,,,
435840,note_on,,,,,192,0,4,,,,2,,,63,63
435840,note_on,,,,,3888,0,3,,,,1,,,73,63
435840,note_on,,,,,1536,0,16,,,,14,,,39,63
435840,note_on,,,,,96,0,12,,,,10,,,75,63
435840,note_on,,,,,1536,0,15,,,,13,,,51,63
435840,note_on,,,,,40800,0,2,,,,0,,,75,63
435840,note_on,,,,,1056,0,1,,,,0,,,85,63
435840,note_on,,,,,96,0,13,,,,11,,,67,38
435840,note_on,,,,,0,0,13,,,,11,,,79,38
435840,note_on,,,,,0,0,4,,,,2,,,67,63
435840,note_on,,,,,96,0,6,,,,3,,,51,63
436224,note_on,,,,,384,0,15,,,,13,,,51,0
436224,note_on,,,,,384,0,16,,,,14,,,39,0
436224,note_on,,,,,384,0,13,,,,11,,,79,0
436224,note_on,,,,,0,0,14,,,,12,,,55,0
436224,note_on,,,,,384,0,14,,,,12,,,63,0
436224,note_on,,,,,0,0,13,,,,11,,,67,0
436224,note_on,,,,,0,0,12,,,,10,,,75,0
436224,note_on,,,,,384,0,12,,,,10,,,87,0
436320,program_change,,,,,96,0,13,,,48,11,,,,
436320,program_change,,,,,96,0,12,,,48,10,,,,
436320,program_change,,,,,96,0,15,,,48,13,,,,
436320,program_change,,,,,96,0,16,,,48,14,,,,
436320,program_change,,,,,96,0,14,,,48,12,,,,
437040,note_on,,,,,0,0,1,,,,0,,,84,63
437040,note_on,,,,,1200,0,1,,,,0,,,85,0
437280,note_on,,,,,240,0,1,,,,0,,,84,0
437280,note_on,,,,,0,0,1,,,,0,,,85,63
437520,note_on,,,,,240,0,1,,,,0,,,85,0
437520,note_on,,,,,0,0,1,,,,0,,,82,63
437664,note_on,,,,,1824,0,3,,,,1,,,79,0
437664,note_on,,,,,0,0,6,,,,3,,,51,0
437664,note_on,,,,,1824,0,6,,,,3,,,58,0
437664,note_on,,,,,1824,0,9,,,,5,,,70,0
437664,note_on,,,,,0,0,9,,,,5,,,63,0
437664,note_on,,,,,0,0,3,,,,1,,,73,0
437664,note_on,,,,,1824,0,2,,,,0,,,75,0
437664,note_on,,,,,0,0,4,,,,2,,,63,0
437664,note_on,,,,,1824,0,4,,,,2,,,67,0
437712,note_on,,,,,192,0,1,,,,0,,,82,0
437760,note_on,,,,,1440,0,12,,,,10,,,58,63
437760,note_on,,,,,1440,0,14,,,,12,,,73,70
437760,note_on,,,,,0,0,15,,,,13,,,56,63
437760,note_on,,,,,1440,0,15,,,,13,,,52,63
437760,note_on,,,,,0,0,13,,,,11,,,70,38
437760,note_on,,,,,0,0,12,,,,10,,,68,63
437760,note_on,,,,,1440,0,13,,,,11,,,61,38
438960,note_on,,,,,0,0,14,,,,12,,,72,70
438960,note_on,,,,,1200,0,14,,,,12,,,73,0
439200,note_on,,,,,0,0,14,,,,12,,,73,70
439200,note_on,,,,,240,0,14,,,,12,,,72,0
439440,note_on,,,,,240,0,14,,,,12,,,73,0
439440,note_on,,,,,0,0,14,,,,12,,,70,70
439584,note_on,,,,,0,0,15,,,,13,,,52,0
439584,note_on,,,,,1824,0,15,,,,13,,,56,0
439584,note_on,,,,,0,0,12,,,,10,,,58,0
439584,note_on,,,,,1824,0,12,,,,10,,,68,0
439584,note_on,,,,,0,0,13,,,,11,,,61,0
439584,note_on,,,,,1824,0,13,,,,11,,,70,0
439632,note_on,,,,,192,0,14,,,,12,,,70,0
439680,note_on,,,,,0,0,6,,,,3,,,51,63
439680,note_on,,,,,2016,0,6,,,,3,,,49,63
439680,note_on,,,,,0,0,5,,,,2,,,63,63
439680,note_on,,,,,44640,0,5,,,,2,,,67,63
439680,note_on,,,,,2016,0,9,,,,5,,,58,63
439680,note_on,,,,,0,0,8,,,,4,,,67,63
439680,note_on,,,,,96,0,15,,,,13,,,49,70
439680,note_on,,,,,0,0,9,,,,5,,,63,63
439680,note_on,,,,,20832,0,8,,,,4,,,55,63
440880,note_on,,,,,1200,0,15,,,,13,,,49,0
440880,note_on,,,,,0,0,15,,,,13,,,48,70
441120,note_on,,,,,240,0,15,,,,13,,,48,0
441120,note_on,,,,,0,0,15,,,,13,,,49,70
441360,note_on,,,,,0,0,15,,,,13,,,46,70
441360,note_on,,,,,240,0,15,,,,13,,,49,0
441552,note_on,,,,,192,0,15,,,,13,,,46,0
441562,note_on,,,,,0,0,9,,,,5,,,58,0
441562,note_on,,,,,1882,0,9,,,,5,,,63,0
441562,note_on,,,,,1882,0,6,,,,3,,,51,0
441562,note_on,,,,,0,0,8,,,,4,,,55,0
441562,note_on,,,,,1882,0,5,,,,2,,,63,0
441562,note_on,,,,,0,0,5,,,,2,,,67,0
441562,note_on,,,,,0,0,6,,,,3,,,49,0
441562,note_on,,,,,1882,0,8,,,,4,,,67,0
441600,note_on,,,,,1968,0,14,,,,12,,,70,38
441600,note_on,,,,,0,0,13,,,,11,,,67,38
441600,note_on,,,,,0,0,14,,,,12,,,55,38
441600,note_on,,,,,0,0,14,,,,12,,,48,38
441600,note_on,,,,,0,0,13,,,,11,,,64,38
441600,note_on,,,,,48,0,15,,,,13,,,36,63
441600,note_on,,,,,0,0,15,,,,13,,,43,63
441600,note_on,,,,,2016,0,12,,,,10,,,82,70
441600,note_on,,,,,2016,0,13,,,,11,,,76,38
441600,note_on,,,,,0,0,13,,,,11,,,72,38
441600,note_on,,,,,0,0,14,,,,12,,,60,38
442800,note_on,,,,,0,0,12,,,,10,,,79,70
442800,note_on,,,,,1200,0,12,,,,10,,,82,0
443040,note_on,,,,,0,0,12,,,,10,,,76,70
443040,note_on,,,,,240,0,12,,,,10,,,79,0
443280,note_on,,,,,240,0,12,,,,10,,,76,0
443280,note_on,,,,,0,0,12,,,,10,,,70,70
443472,note_on,,,,,192,0,12,,,,10,,,70,0
443482,note_on,,,,,0,0,13,,,,11,,,76,0
443482,note_on,,,,,0,0,13,,,,11,,,72,0
443482,note_on,,,,,0,0,13,,,,11,,,64,0
443482,note_on,,,,,1882,0,13,,,,11,,,67,0
443482,note_on,,,,,0,0,15,,,,13,,,36,0
443482,note_on,,,,,0,0,14,,,,12,,,70,0
443482,note_on,,,,,0,0,14,,,,12,,,60,0
443482,note_on,,,,,0,0,14,,,,12,,,55,0
443482,note_on,,,,,1882,0,14,,,,12,,,48,0
443482,note_on,,,,,1882,0,15,,,,13,,,43,0
443520,note_on,,,,,1958,0,6,,,,3,,,53,63
443520,note_on,,,,,0,0,6,,,,3,,,60,63
443520,note_on,,,,,0,0,9,,,,5,,,65,63
443520,note_on,,,,,1958,0,9,,,,5,,,72,63
443520,note_on,,,,,5856,0,4,,,,2,,,69,38
443520,note_on,,,,,5856,0,3,,,,1,,,69,63
443520,note_on,,,,,0,0,3,,,,1,,,75,63
443520,note_on,,,,,0,0,4,,,,2,,,72,38
443520,note_on,,,,,5856,0,2,,,,0,,,81,63
443520,note_on,,,,,5808,0,1,,,,0,,,87,63
444720,note_on,,,,,1200,0,1,,,,0,,,87,0
444720,note_on,,,,,0,0,1,,,,0,,,86,63
444960,note_on,,,,,0,0,1,,,,0,,,87,63
444960,note_on,,,,,240,0,1,,,,0,,,86,0
445056,note_on,,,,,1536,0,9,,,,5,,,65,0
445056,note_on,,,,,0,0,9,,,,5,,,72,0
445200,note_on,,,,,240,0,1,,,,0,,,87,0
445200,note_on,,,,,0,0,1,,,,0,,,84,63
445392,note_on,,,,,192,0,1,,,,0,,,84,0
445402,note_on,,,,,1882,0,6,,,,3,,,60,0
445402,note_on,,,,,1882,0,2,,,,0,,,81,0
445402,note_on,,,,,0,0,3,,,,1,,,69,0
445402,note_on,,,,,0,0,6,,,,3,,,53,0
445402,note_on,,,,,1882,0,3,,,,1,,,75,0
445402,note_on,,,,,0,0,4,,,,2,,,69,0
445402,note_on,,,,,1882,0,4,,,,2,,,72,0
445440,note_on,,,,,1968,0,12,,,,10,,,60,63
445440,note_on,,,,,0,0,13,,,,11,,,72,63
445440,note_on,,,,,1958,0,13,,,,11,,,63,63
445440,note_on,,,,,1958,0,15,,,,13,,,54,63
445440,note_on,,,,,0,0,12,,,,10,,,70,63
445440,note_on,,,,,1958,0,14,,,,12,,,75,70
445440,note_on,,,,,0,0,15,,,,13,,,58,63
446640,note_on,,,,,0,0,14,,,,12,,,74,70
446640,note_on,,,,,1200,0,14,,,,12,,,75,0
446880,note_on,,,,,0,0,14,,,,12,,,75,70
446880,note_on,,,,,240,0,14,,,,12,,,74,0
447120,note_on,,,,,0,0,14,,,,12,,,72,70
447120,note_on,,,,,240,0,14,,,,12,,,75,0
447312,note_on,,,,,192,0,14,,,,12,,,72,0
447322,note_on,,,,,1882,0,12,,,,10,,,70,0
447322,note_on,,,,,0,0,12,,,,10,,,60,0
447322,note_on,,,,,1882,0,15,,,,13,,,58,0
447322,note_on,,,,,0,0,15,,,,13,,,54,0
447322,note_on,,,,,1882,0,13,,,,11,,,72,0
447322,note_on,,,,,0,0,13,,,,11,,,63,0
447360,note_on,,,,,1958,0,6,,,,3,,,53,63
447360,note_on,,,,,0,0,6,,,,3,,,51,63
447360,note_on,,,,,2304,0,9,,,,5,,,57,63
447360,note_on,,,,,0,0,9,,,,5,,,60,63
447360,note_on,,,,,0,0,8,,,,4,,,65,63
447360,note_on,,,,,5798,0,8,,,,4,,,69,63
447360,note_on,,,,,5798,0,5,,,,2,,,69,63
447360,note_on,,,,,0,0,5,,,,2,,,65,63
447360,note_on,,,,,38,0,15,,,,13,,,51,70
448560,note_on,,,,,0,0,15,,,,13,,,50,70
448560,note_on,,,,,1200,0,15,,,,13,,,51,0
448800,note_on,,,,,0,0,15,,,,13,,,51,70
448800,note_on,,,,,240,0,15,,,,13,,,50,0
449040,note_on,,,,,240,0,15,,,,13,,,51,0
449040,note_on,,,,,0,0,15,,,,13,,,48,70
449184,note_on,,,,,0,0,8,,,,4,,,69,0
449184,note_on,,,,,1824,0,6,,,,3,,,51,0
449184,note_on,,,,,0,0,9,,,,5,,,57,0
449184,note_on,,,,,1824,0,9,,,,5,,,60,0
449184,note_on,,,,,0,0,5,,,,2,,,69,0
449184,note_on,,,,,1824,0,5,,,,2,,,65,0
449184,note_on,,,,,0,0,6,,,,3,,,53,0
449184,note_on,,,,,1824,0,8,,,,4,,,65,0
449280,note_on,,,,,1958,0,13,,,,11,,,66,38
449280,note_on,,,,,0,0,15,,,,13,,,45,63
449280,note_on,,,,,0,0,14,,,,12,,,62,38
449280,note_on,,,,,0,0,14,,,,12,,,57,38
449280,note_on,,,,,1968,0,14,,,,12,,,50,38
449280,note_on,,,,,0,0,14,,,,12,,,72,38
449280,note_on,,,,,240,0,15,,,,13,,,48,0
449280,note_on,,,,,0,0,13,,,,11,,,69,38
449280,note_on,,,,,0,0,13,,,,11,,,78,38
449280,note_on,,,,,0,0,13,,,,11,,,74,38
449280,note_on,,,,,1958,0,12,,,,10,,,84,70
449280,note_on,,,,,0,0,15,,,,13,,,38,63
450480,note_on,,,,,1200,0,12,,,,10,,,84,0
450480,note_on,,,,,0,0,12,,,,10,,,81,70
450720,note_on,,,,,240,0,12,,,,10,,,81,0
450720,note_on,,,,,0,0,12,,,,10,,,78,70
450960,note_on,,,,,0,0,12,,,,10,,,72,70
450960,note_on,,,,,240,0,12,,,,10,,,78,0
451104,note_on,,,,,0,0,13,,,,11,,,66,0
451104,note_on,,,,,1824,0,13,,,,11,,,74,0
451104,note_on,,,,,1824,0,15,,,,13,,,38,0
451104,note_on,,,,,0,0,13,,,,11,,,78,0
451104,note_on,,,,,0,0,15,,,,13,,,45,0
451104,note_on,,,,,1824,0,14,,,,12,,,62,0
451104,note_on,,,,,0,0,14,,,,12,,,72,0
451104,note_on,,,,,0,0,14,,,,12,,,57,0
451104,note_on,,,,,0,0,14,,,,12,,,50,0
451104,note_on,,,,,0,0,13,,,,11,,,69,0
451152,note_on,,,,,192,0,12,,,,10,,,72,0
451200,note_on,,,,,2016,0,5,,,,2,,,65,63
451200,note_on,,,,,0,0,9,,,,5,,,55,63
451200,note_on,,,,,5798,0,4,,,,2,,,77,70
451200,note_on,,,,,0,0,6,,,,3,,,55,63
451200,note_on,,,,,5798,0,3,,,,1,,,71,63
451200,set_tempo,,,,,15360,1,0,476190,,,,,,,
451200,note_on,,,,,2016,0,8,,,,4,,,62,63
451200,note_on,,,,,2016,0,6,,,,3,,,59,63
451200,note_on,,,,,2016,0,9,,,,5,,,67,63
451200,note_on,,,,,0,0,8,,,,4,,,59,63
452400,note_on,,,,,0,0,4,,,,2,,,76,70
452400,note_on,,,,,1200,0,4,,,,2,,,77,0
452640,note_on,,,,,0,0,4,,,,2,,,77,70
452640,note_on,,,,,240,0,4,,,,2,,,76,0
452736,note_on,,,,,1536,0,5,,,,2,,,65,0
452880,note_on,,,,,0,0,4,,,,2,,,74,70
452880,note_on,,,,,240,0,4,,,,2,,,77,0
453024,note_on,,,,,1824,0,6,,,,3,,,55,0
453024,note_on,,,,,0,0,8,,,,4,,,62,0
453024,note_on,,,,,1824,0,8,,,,4,,,59,0
453024,note_on,,,,,0,0,9,,,,5,,,67,0
453024,note_on,,,,,1824,0,9,,,,5,,,55,0
453024,note_on,,,,,1824,0,3,,,,1,,,71,0
453024,note_on,,,,,0,0,6,,,,3,,,59,0
453072,note_on,,,,,192,0,4,,,,2,,,74,0
453120,note_on,,,,,0,0,15,,,,13,,,44,63
453120,note_on,,,,,2016,0,15,,,,13,,,52,63
453120,note_on,,,,,0,0,13,,,,11,,,74,38
453120,note_on,,,,,0,0,8,,,,4,,,64,63
453120,note_on,,,,,0,0,13,,,,11,,,76,38
453120,note_on,,,,,2016,0,13,,,,11,,,83,38
453120,note_on,,,,,1968,0,12,,,,10,,,86,70
453120,note_on,,,,,96,0,8,,,,4,,,52,63
453120,note_on,,,,,0,0,14,,,,12,,,52,38
453120,note_on,,,,,0,0,14,,,,12,,,59,38
453120,note_on,,,,,0,0,14,,,,12,,,64,38
453120,note_on,,,,,2016,0,14,,,,12,,,74,38
453120,note_on,,,,,0,0,13,,,,11,,,71,38
454320,note_on,,,,,0,0,12,,,,10,,,83,70
454320,note_on,,,,,1200,0,12,,,,10,,,86,0
454560,note_on,,,,,0,0,12,,,,10,,,80,70
454560,note_on,,,,,240,0,12,,,,10,,,83,0
454656,note_on,,,,,1536,0,8,,,,4,,,64,0
454656,note_on,,,,,0,0,8,,,,4,,,52,0
454800,note_on,,,,,240,0,12,,,,10,,,80,0
454800,note_on,,,,,0,0,12,,,,10,,,74,70
454944,note_on,,,,,1824,0,15,,,,13,,,44,0
454944,note_on,,,,,0,0,13,,,,11,,,83,0
454944,note_on,,,,,1824,0,13,,,,11,,,74,0
454944,note_on,,,,,0,0,13,,,,11,,,71,0
454944,note_on,,,,,0,0,13,,,,11,,,76,0
454944,note_on,,,,,0,0,14,,,,12,,,74,0
454944,note_on,,,,,0,0,15,,,,13,,,52,0
454944,note_on,,,,,0,0,14,,,,12,,,52,0
454944,note_on,,,,,1824,0,14,,,,12,,,59,0
454944,note_on,,,,,0,0,14,,,,12,,,64,0
454992,note_on,,,,,192,0,12,,,,10,,,74,0
455040,note_on,,,,,0,0,8,,,,4,,,69,63
455040,note_on,,,,,2016,0,3,,,,1,,,73,63
455040,note_on,,,,,0,0,9,,,,5,,,64,63
455040,note_on,,,,,2016,0,9,,,,5,,,57,63
455040,note_on,,,,,2304,0,5,,,,2,,,64,63
455040,note_on,,,,,384,0,8,,,,4,,,64,63
455040,note_on,,,,,1968,0,4,,,,2,,,79,70
455040,note_on,,,,,0,0,6,,,,3,,,61,63
455040,note_on,,,,,2016,0,6,,,,3,,,57,63
456240,note_on,,,,,0,0,4,,,,2,,,78,70
456240,note_on,,,,,1200,0,4,,,,2,,,79,0
456480,note_on,,,,,240,0,4,,,,2,,,78,0
456480,note_on,,,,,0,0,4,,,,2,,,79,70
456720,note_on,,,,,240,0,4,,,,2,,,79,0
456720,note_on,,,,,0,0,4,,,,2,,,76,70
456864,note_on,,,,,1824,0,6,,,,3,,,61,0
456864,note_on,,,,,0,0,6,,,,3,,,57,0
456864,note_on,,,,,1824,0,9,,,,5,,,64,0
456864,note_on,,,,,0,0,9,,,,5,,,57,0
456864,note_on,,,,,1824,0,5,,,,2,,,64,0
456864,note_on,,,,,0,0,8,,,,4,,,64,0
456864,note_on,,,,,1824,0,8,,,,4,,,69,0
456864,note_on,,,,,1824,0,3,,,,1,,,73,0
456912,note_on,,,,,192,0,4,,,,2,,,76,0
456960,note_on,,,,,0,0,13,,,,11,,,85,38
456960,note_on,,,,,0,0,13,,,,11,,,73,38
456960,note_on,,,,,2016,0,13,,,,11,,,66,38
456960,note_on,,,,,96,0,8,,,,4,,,66,63
456960,note_on,,,,,1968,0,12,,,,10,,,88,70
456960,note_on,,,,,0,0,15,,,,13,,,46,63
456960,note_on,,,,,2016,0,15,,,,13,,,54,63
456960,note_on,,,,,0,0,14,,,,12,,,66,38
456960,note_on,,,,,0,0,14,,,,12,,,76,38
456960,note_on,,,,,0,0,14,,,,12,,,61,38
456960,note_on,,,,,2016,0,14,,,,12,,,54,38
456960,note_on,,,,,0,0,13,,,,11,,,76,38
458160,note_on,,,,,0,0,12,,,,10,,,85,70
458160,note_on,,,,,1200,0,12,,,,10,,,88,0
458400,note_on,,,,,240,0,12,,,,10,,,85,0
458400,note_on,,,,,0,0,12,,,,10,,,82,70
458496,note_on,,,,,1536,0,15,,,,13,,,46,0
458496,note_on,,,,,0,0,15,,,,13,,,54,0
458496,note_on,,,,,1536,0,8,,,,4,,,66,0
458640,note_on,,,,,240,0,12,,,,10,,,82,0
458640,note_on,,,,,0,0,12,,,,10,,,76,70
458784,note_on,,,,,0,0,13,,,,11,,,66,0
458784,note_on,,,,,0,0,13,,,,11,,,85,0
458784,note_on,,,,,1824,0,13,,,,11,,,76,0
458784,note_on,,,,,0,0,14,,,,12,,,76,0
458784,note_on,,,,,0,0,14,,,,12,,,61,0
458784,note_on,,,,,0,0,14,,,,12,,,54,0
458784,note_on,,,,,1824,0,14,,,,12,,,66,0
458784,note_on,,,,,0,0,13,,,,11,,,73,0
458832,note_on,,,,,192,0,12,,,,10,,,76,0
458880,note_on,,,,,0,0,3,,,,1,,,71,70
458880,note_on,,,,,2016,0,3,,,,1,,,81,70
458880,note_on,,,,,0,0,4,,,,2,,,75,63
458880,note_on,,,,,384,0,8,,,,4,,,66,63
458880,set_tempo,,,,,7680,1,0,500000,,,,,,,
458880,note_on,,,,,0,0,1,,,,0,,,81,38
458880,note_on,,,,,13488,0,1,,,,0,,,78,38
458880,note_on,,,,,1968,0,4,,,,2,,,69,63
458880,note_on,,,,,0,0,8,,,,4,,,59,63
460080,note_on,,,,,0,0,3,,,,1,,,80,70
460080,note_on,,,,,1200,0,3,,,,1,,,81,0
460320,note_on,,,,,240,0,3,,,,1,,,80,0
460320,note_on,,,,,0,0,3,,,,1,,,81,70
460416,note_on,,,,,0,0,8,,,,4,,,66,0
460416,note_on,,,,,1536,0,4,,,,2,,,75,0
460416,note_on,,,,,1536,0,8,,,,4,,,59,0
460416,note_on,,,,,0,0,4,,,,2,,,69,0
460416,note_on,,,,,0,0,1,,,,0,,,78,0
460416,note_on,,,,,1536,0,1,,,,0,,,81,0
460560,note_on,,,,,240,0,3,,,,1,,,81,0
460560,note_on,,,,,0,0,3,,,,1,,,78,70
460752,note_on,,,,,192,0,3,,,,1,,,78,0
460752,note_on,,,,,0,0,3,,,,1,,,71,0
460800,note_on,,,,,0,0,9,,,,5,,,64,63
460800,note_on,,,,,3936,0,9,,,,5,,,52,63
460800,set_tempo,,,,,1920,1,0,517241,,,,,,,
460800,note_on,,,,,0,0,13,,,,11,,,78,38
460800,note_on,,,,,2016,0,13,,,,11,,,60,38
460800,note_on,,,,,0,0,13,,,,11,,,69,38
460800,note_on,,,,,1968,0,12,,,,10,,,88,70
460800,note_on,,,,,0,0,14,,,,12,,,66,38
460800,note_on,,,,,2016,0,14,,,,12,,,57,38
460800,note_on,,,,,0,0,14,,,,12,,,76,38
460800,note_on,,,,,0,0,13,,,,11,,,81,38
460800,note_on,,,,,0,0,15,,,,13,,,57,63
460800,note_on,,,,,2304,0,15,,,,13,,,48,63
462000,note_on,,,,,1200,0,12,,,,10,,,88,0
462000,note_on,,,,,0,0,12,,,,10,,,84,70
462240,note_on,,,,,240,0,12,,,,10,,,84,0
462240,note_on,,,,,0,0,12,,,,10,,,81,70
462336,note_on,,,,,0,0,9,,,,5,,,52,0
462336,note_on,,,,,1536,0,9,,,,5,,,64,0
462480,note_on,,,,,240,0,12,,,,10,,,81,0
462480,note_on,,,,,0,0,12,,,,10,,,78,70
462624,note_on,,,,,1824,0,13,,,,11,,,78,0
462624,note_on,,,,,0,0,13,,,,11,,,69,0
462624,note_on,,,,,0,0,13,,,,11,,,60,0
462624,note_on,,,,,1824,0,14,,,,12,,,76,0
462624,note_on,,,,,0,0,15,,,,13,,,48,0
462624,note_on,,,,,0,0,14,,,,12,,,57,0
462624,note_on,,,,,0,0,14,,,,12,,,66,0
462624,note_on,,,,,0,0,13,,,,11,,,81,0
462624,note_on,,,,,1824,0,15,,,,13,,,57,0
462672,note_on,,,,,192,0,12,,,,10,,,78,0
462720,set_tempo,,,,,1920,1,0,555556,,,,,,,
462720,note_on,,,,,0,0,8,,,,4,,,66,63
462720,note_on,,,,,2304,0,8,,,,4,,,59,63
462720,note_on,,,,,2304,0,4,,,,2,,,69,70
462720,note_on,,,,,5856,0,6,,,,3,,,59,63
462720,note_on,,,,,0,0,6,,,,3,,,63,63
463920,note_on,,,,,0,0,4,,,,2,,,68,70
463920,note_on,,,,,1200,0,4,,,,2,,,69,0
464160,note_on,,,,,0,0,4,,,,2,,,69,70
464160,note_on,,,,,240,0,4,,,,2,,,68,0
464256,note_on,,,,,0,0,8,,,,4,,,59,0
464256,note_on,,,,,1536,0,8,,,,4,,,66,0
464400,note_on,,,,,0,0,4,,,,2,,,66,70
464400,note_on,,,,,240,0,4,,,,2,,,69,0
464544,note_on,,,,,0,0,6,,,,3,,,59,0
464544,note_on,,,,,1824,0,6,,,,3,,,63,0
464592,note_on,,,,,192,0,4,,,,2,,,66,0
464640,note_on,,,,,2016,0,14,,,,12,,,76,70
464640,note_on,,,,,0,0,12,,,,10,,,66,38
464640,note_on,,,,,0,0,15,,,,13,,,54,38
464640,note_on,,,,,2016,0,13,,,,11,,,60,38
464640,note_on,,,,,0,0,13,,,,11,,,64,38
464640,note_on,,,,,0,0,9,,,,5,,,64,63
464640,note_on,,,,,2016,0,15,,,,13,,,45,38
464640,note_on,,,,,1968,0,12,,,,10,,,57,38
464640,note_on,,,,,2304,0,9,,,,5,,,52,63
465840,note_on,,,,,1200,0,14,,,,12,,,76,0
465840,note_on,,,,,0,0,14,,,,12,,,72,63
466080,note_on,,,,,240,0,14,,,,12,,,72,0
466080,note_on,,,,,0,0,14,,,,12,,,69,63
466320,note_on,,,,,0,0,14,,,,12,,,66,63
466320,note_on,,,,,240,0,14,,,,12,,,69,0
466464,note_on,,,,,1824,0,15,,,,13,,,54,0
466464,note_on,,,,,0,0,15,,,,13,,,45,0
466464,note_on,,,,,1824,0,12,,,,10,,,66,0
466464,note_on,,,,,1824,0,13,,,,11,,,64,0
466464,note_on,,,,,1824,0,9,,,,5,,,64,0
466464,note_on,,,,,0,0,9,,,,5,,,52,0
466464,note_on,,,,,0,0,13,,,,11,,,60,0
466464,note_on,,,,,0,0,12,,,,10,,,57,0
466548,note_on,,,,,228,0,14,,,,12,,,66,0
466560,note_on,,,,,0,0,14,,,,12,,,57,38
466560,note_on,,,,,96,0,15,,,,13,,,64,63
466560,set_tempo,,,,,3840,1,0,517241,,,,,,,
466560,note_on,,,,,96,0,13,,,,11,,,60,38
466560,note_on,,,,,96,0,12,,,,10,,,64,38
466560,note_on,,,,,12,0,14,,,,12,,,54,38
466560,note_on,,,,,30240,0,16,,,,14,,,30,63
466944,note_on,,,,,384,0,16,,,,14,,,30,0
467040,set_tempo,,,,,480,1,0,521739,,,,,,,
467520,note_on,,,,,960,0,15,,,,13,,,64,0
467520,note_on,,,,,0,0,15,,,,13,,,60,63
467520,program_change,,,,,576,0,16,,,45,14,,,,
467520,set_tempo,,,,,480,1,0,526316,,,,,,,
468000,set_tempo,,,,,480,1,0,530973,,,,,,,
468480,set_tempo,,,,,480,1,0,535714,,,,,,,
468480,note_on,,,,,960,0,15,,,,13,,,60,0
468480,note_on,,,,,0,0,15,,,,13,,,57,63
468960,set_tempo,,,,,480,1,0,540541,,,,,,,
469440,set_tempo,,,,,480,1,0,545455,,,,,,,
469440,note_on,,,,,960,0,15,,,,13,,,57,0
469440,note_on,,,,,0,0,15,,,,13,,,54,63
469920,set_tempo,,,,,480,1,0,550459,,,,,,,
470352,note_on,,,,,912,0,15,,,,13,,,54,0
470400,note_on,,,,,2880,0,16,,,,14,,,35,63
470400,set_tempo,,,,,480,1,0,612245,,,,,,,
470400,note_on,,,,,0,0,15,,,,13,,,47,63
470400,program_change,,,,,48,0,15,,,45,13,,,,
470784,note_on,,,,,384,0,15,,,,13,,,47,0
470784,note_on,,,,,384,0,16,,,,14,,,35,0
472320,note_on,,,,,5760,0,12,,,,10,,,64,0
472320,note_on,,,,,0,0,12,,,,10,,,63,38
472320,set_tempo,,,,,1920,1,0,535714,,,,,,,
472800,note_on,,,,,6240,0,13,,,,11,,,60,0
472800,note_on,,,,,6240,0,14,,,,12,,,57,0
472800,note_on,,,,,0,0,14,,,,12,,,54,0
472800,note_on,,,,,480,0,12,,,,10,,,63,0
473280,note_on,,,,,0,0,6,,,,3,,,59,63
473280,note_on,,,,,8688,0,4,,,,2,,,59,63
473280,note_on,,,,,8736,0,6,,,,3,,,47,63
473280,note_on,,,,,0,0,4,,,,2,,,71,63
473280,note_on,,,,,12528,0,3,,,,1,,,71,63
473280,note_on,,,,,0,0,3,,,,1,,,83,63
474240,note_on,,,,,0,0,4,,,,2,,,67,63
474240,note_on,,,,,960,0,3,,,,1,,,83,0
474240,note_on,,,,,0,0,3,,,,1,,,71,0
474240,note_on,,,,,0,0,6,,,,3,,,55,63
474240,note_on,,,,,0,0,3,,,,1,,,67,63
474240,note_on,,,,,0,0,3,,,,1,,,79,63
474240,set_tempo,,,,,1920,1,0,500000,,,,,,,
474240,note_on,,,,,960,0,6,,,,3,,,59,0
474240,note_on,,,,,0,0,6,,,,3,,,47,0
474240,note_on,,,,,0,0,4,,,,2,,,59,0
474240,note_on,,,,,0,0,4,,,,2,,,55,63
474240,note_on,,,,,0,0,6,,,,3,,,43,63
474240,note_on,,,,,960,0,4,,,,2,,,71,0
476160,note_on,,,,,1920,0,6,,,,3,,,55,0
476160,note_on,,,,,1920,0,4,,,,2,,,67,0
476160,note_on,,,,,0,0,4,,,,2,,,52,63
476160,note_on,,,,,0,0,4,,,,2,,,64,63
476160,note_on,,,,,0,0,4,,,,2,,,55,0
476160,note_on,,,,,0,0,6,,,,3,,,43,0
476160,note_on,,,,,0,0,3,,,,1,,,67,0
476160,note_on,,,,,0,0,3,,,,1,,,64,63
476160,note_on,,,,,0,0,6,,,,3,,,40,63
476160,note_on,,,,,0,0,6,,,,3,,,52,63
476160,set_tempo,,,,,1920,1,0,555556,,,,,,,
476160,note_on,,,,,1920,0,3,,,,1,,,79,0
476160,note_on,,,,,0,0,3,,,,1,,,76,63
477120,program_change,,,,,6336,0,15,,,48,13,,,,
477984,note_on,,,,,1824,0,3,,,,1,,,76,0
477984,note_on,,,,,1824,0,4,,,,2,,,64,0
477984,note_on,,,,,0,0,4,,,,2,,,52,0
477984,note_on,,,,,0,0,6,,,,3,,,40,0
477984,note_on,,,,,1824,0,6,,,,3,,,52,0
477984,note_on,,,,,0,0,3,,,,1,,,64,0
478080,note_on,,,,,0,0,1,,,,0,,,84,57
478080,note_on,,,,,17664,0,1,,,,0,,,76,57
478080,note_on,,,,,0,0,6,,,,3,,,36,57
478080,note_on,,,,,96,0,6,,,,3,,,43,57
478080,note_on,,,,,0,0,8,,,,4,,,55,43
478080,note_on,,,,,0,0,4,,,,2,,,60,56
478080,set_tempo,,,,,1920,1,0,476190,,,,,,,
478080,note_on,,,,,0,0,10,,,,6,,,64,63
478080,note_on,,,,,59232,0,10,,,,6,,,76,63
478080,note_on,,,,,13824,0,8,,,,4,,,64,43
478080,note_on,,,,,96,0,3,,,,1,,,84,56
478080,note_on,,,,,0,0,3,,,,1,,,76,56
478080,note_on,,,,,96,0,4,,,,2,,,72,56
478080,note_on,,,,,0,0,9,,,,5,,,36,38
478080,note_on,,,,,11616,0,9,,,,5,,,48,38
478080,note_on,,,,,960,0,15,,,,13,,,36,55
478080,note_on,,,,,7296,0,16,,,,14,,,36,63
478080,note_on,,,,,82176,0,11,,,,7,,,52,38
478128,note_on,,,,,48,0,11,,,,7,,,52,0
478140,note_on,,,,,12,0,11,,,,7,,,52,38
478188,note_on,,,,,48,0,11,,,,7,,,52,0
478200,note_on,,,,,12,0,11,,,,7,,,52,38
478248,note_on,,,,,48,0,11,,,,7,,,52,0
478260,note_on,,,,,12,0,11,,,,7,,,52,38
478308,note_on,,,,,48,0,11,,,,7,,,52,0
478320,note_on,,,,,240,0,15,,,,13,,,36,0
478320,note_on,,,,,0,0,15,,,,13,,,43,55
478320,note_on,,,,,5520,0,14,,,,12,,,55,45
478320,note_on,,,,,12,0,11,,,,7,,,52,38
478320,note_on,,,,,5520,0,12,,,,10,,,55,55
478368,note_on,,,,,48,0,11,,,,7,,,52,0
478380,note_on,,,,,12,0,11,,,,7,,,52,38
478428,note_on,,,,,48,0,11,,,,7,,,52,0
478440,note_on,,,,,12,0,11,,,,7,,,52,38
478464,note_on,,,,,384,0,16,,,,14,,,36,0
478488,note_on,,,,,48,0,11,,,,7,,,52,0
478500,note_on,,,,,12,0,11,,,,7,,,52,38
478548,note_on,,,,,48,0,11,,,,7,,,52,0
478560,note_on,,,,,240,0,14,,,,12,,,55,0
478560,note_on,,,,,0,0,14,,,,12,,,60,45
478560,note_on,,,,,0,0,15,,,,13,,,48,55
478560,note_on,,,,,240,0,12,,,,10,,,55,0
478560,note_on,,,,,0,0,12,,,,10,,,60,55
478560,note_on,,,,,240,0,15,,,,13,,,43,0
478560,note_on,,,,,12,0,11,,,,7,,,52,38
478608,note_on,,,,,48,0,11,,,,7,,,52,0
478620,note_on,,,,,12,0,11,,,,7,,,52,38
478668,note_on,,,,,48,0,11,,,,7,,,52,0
478680,note_on,,,,,12,0,11,,,,7,,,52,38
478728,note_on,,,,,48,0,11,,,,7,,,52,0
478740,note_on,,,,,12,0,11,,,,7,,,52,38
478788,note_on,,,,,48,0,11,,,,7,,,52,0
478800,note_on,,,,,240,0,14,,,,12,,,60,0
478800,note_on,,,,,0,0,15,,,,13,,,52,55
478800,note_on,,,,,240,0,15,,,,13,,,48,0
478800,note_on,,,,,0,0,12,,,,10,,,64,55
478800,note_on,,,,,240,0,12,,,,10,,,60,0
478800,note_on,,,,,0,0,14,,,,12,,,62,45
478800,note_on,,,,,12,0,11,,,,7,,,52,38
478848,note_on,,,,,48,0,11,,,,7,,,52,0
478860,note_on,,,,,12,0,11,,,,7,,,52,38
478908,note_on,,,,,48,0,11,,,,7,,,52,0
478920,note_on,,,,,12,0,11,,,,7,,,52,38
478968,note_on,,,,,48,0,11,,,,7,,,52,0
478980,note_on,,,,,12,0,11,,,,7,,,52,38
479028,note_on,,,,,48,0,11,,,,7,,,52,0
479040,note_on,,,,,12,0,11,,,,7,,,52,38
479040,note_on,,,,,0,0,15,,,,13,,,56,55
479040,note_on,,,,,240,0,15,,,,13,,,52,0
479040,note_on,,,,,0,0,14,,,,12,,,68,45
479040,note_on,,,,,240,0,14,,,,12,,,62,0
479040,note_on,,,,,240,0,12,,,,10,,,64,0
479040,note_on,,,,,0,0,12,,,,10,,,68,55
479088,note_on,,,,,48,0,11,,,,7,,,52,0
479100,note_on,,,,,12,0,11,,,,7,,,52,38
479148,note_on,,,,,48,0,11,,,,7,,,52,0
479160,note_on,,,,,12,0,11,,,,7,,,52,38
479208,note_on,,,,,48,0,11,,,,7,,,52,0
479220,note_on,,,,,12,0,11,,,,7,,,52,38
479268,note_on,,,,,48,0,11,,,,7,,,52,0
479280,note_on,,,,,0,0,12,,,,10,,,64,55
479280,note_on,,,,,240,0,12,,,,10,,,68,0
479280,note_on,,,,,240,0,15,,,,13,,,56,0
479280,note_on,,,,,240,0,14,,,,12,,,68,0
479280,note_on,,,,,0,0,14,,,,12,,,64,45
479280,note_on,,,,,12,0,11,,,,7,,,52,38
479280,note_on,,,,,0,0,15,,,,13,,,52,55
479328,note_on,,,,,48,0,11,,,,7,,,52,0
479340,note_on,,,,,12,0,11,,,,7,,,52,38
479388,note_on,,,,,48,0,11,,,,7,,,52,0
479400,note_on,,,,,12,0,11,,,,7,,,52,38
479448,note_on,,,,,48,0,11,,,,7,,,52,0
479460,note_on,,,,,12,0,11,,,,7,,,52,38
479508,note_on,,,,,48,0,11,,,,7,,,52,0
479520,note_on,,,,,0,0,12,,,,10,,,67,55
479520,note_on,,,,,240,0,12,,,,10,,,64,0
479520,note_on,,,,,0,0,15,,,,13,,,55,55
479520,note_on,,,,,240,0,15,,,,13,,,52,0
479520,note_on,,,,,6720,0,13,,,,11,,,55,44
479520,note_on,,,,,12,0,11,,,,7,,,52,38
479520,note_on,,,,,240,0,14,,,,12,,,64,0
479520,note_on,,,,,0,0,14,,,,12,,,67,45
479568,note_on,,,,,48,0,11,,,,7,,,52,0
479580,note_on,,,,,12,0,11,,,,7,,,52,38
479628,note_on,,,,,48,0,11,,,,7,,,52,0
479640,note_on,,,,,12,0,11,,,,7,,,52,38
479688,note_on,,,,,48,0,11,,,,7,,,52,0
479700,note_on,,,,,12,0,11,,,,7,,,52,38
479748,note_on,,,,,48,0,11,,,,7,,,52,0
479760,note_on,,,,,0,0,14,,,,12,,,60,45
479760,note_on,,,,,0,0,15,,,,13,,,60,55
479760,note_on,,,,,0,0,12,,,,10,,,72,55
479760,note_on,,,,,240,0,12,,,,10,,,67,0
479760,note_on,,,,,0,0,13,,,,11,,,62,44
479760,note_on,,,,,12,0,11,,,,7,,,52,38
479760,note_on,,,,,240,0,15,,,,13,,,55,0
479760,note_on,,,,,240,0,14,,,,12,,,67,0
479760,note_on,,,,,240,0,13,,,,11,,,55,0
479808,note_on,,,,,48,0,11,,,,7,,,52,0
479820,note_on,,,,,12,0,11,,,,7,,,52,38
479868,note_on,,,,,48,0,11,,,,7,,,52,0
479880,note_on,,,,,12,0,11,,,,7,,,52,38
479928,note_on,,,,,48,0,11,,,,7,,,52,0
479940,note_on,,,,,12,0,11,,,,7,,,52,38
479988,note_on,,,,,48,0,11,,,,7,,,52,0
480000,note_on,,,,,240,0,15,,,,13,,,60,0
480000,note_on,,,,,0,0,13,,,,11,,,64,44
480000,note_on,,,,,240,0,12,,,,10,,,72,0
480000,note_on,,,,,0,0,12,,,,10,,,76,55
480000,note_on,,,,,240,0,14,,,,12,,,60,0
480000,note_on,,,,,0,0,14,,,,12,,,64,45
480000,note_on,,,,,240,0,13,,,,11,,,62,0
480000,note_on,,,,,12,0,11,,,,7,,,52,38
480000,note_on,,,,,0,0,15,,,,13,,,64,55
480048,note_on,,,,,48,0,11,,,,7,,,52,0
480060,note_on,,,,,12,0,11,,,,7,,,52,38
480108,note_on,,,,,48,0,11,,,,7,,,52,0
480120,note_on,,,,,12,0,11,,,,7,,,52,38
480168,note_on,,,,,48,0,11,,,,7,,,52,0
480180,note_on,,,,,12,0,11,,,,7,,,52,38
480228,note_on,,,,,48,0,11,,,,7,,,52,0
480240,note_on,,,,,240,0,14,,,,12,,,64,0
480240,note_on,,,,,240,0,13,,,,11,,,64,0
480240,note_on,,,,,0,0,14,,,,12,,,67,45
480240,note_on,,,,,0,0,13,,,,11,,,67,44
480240,note_on,,,,,12,0,11,,,,7,,,52,38
480240,note_on,,,,,240,0,15,,,,13,,,64,0
480240,note_on,,,,,240,0,12,,,,10,,,76,0
480240,note_on,,,,,0,0,12,,,,10,,,79,55
480288,note_on,,,,,48,0,11,,,,7,,,52,0
480300,note_on,,,,,12,0,11,,,,7,,,52,38
480348,note_on,,,,,48,0,11,,,,7,,,52,0
480360,note_on,,,,,12,0,11,,,,7,,,52,38
480408,note_on,,,,,48,0,11,,,,7,,,52,0
480420,note_on,,,,,12,0,11,,,,7,,,52,38
480468,note_on,,,,,48,0,11,,,,7,,,52,0
480480,note_on,,,,,0,0,12,,,,10,,,80,55
480480,note_on,,,,,0,0,14,,,,12,,,68,45
480480,note_on,,,,,240,0,14,,,,12,,,67,0
480480,note_on,,,,,240,0,12,,,,10,,,79,0
480480,note_on,,,,,0,0,13,,,,11,,,68,44
480480,note_on,,,,,240,0,13,,,,11,,,67,0
480480,note_on,,,,,12,0,11,,,,7,,,52,38
480528,note_on,,,,,48,0,11,,,,7,,,52,0
480540,note_on,,,,,12,0,11,,,,7,,,52,38
480588,note_on,,,,,48,0,11,,,,7,,,52,0
480600,note_on,,,,,12,0,11,,,,7,,,52,38
480648,note_on,,,,,48,0,11,,,,7,,,52,0
480660,note_on,,,,,12,0,11,,,,7,,,52,38
480708,note_on,,,,,48,0,11,,,,7,,,52,0
480720,note_on,,,,,240,0,12,,,,10,,,80,0
480720,note_on,,,,,240,0,14,,,,12,,,68,0
480720,note_on,,,,,0,0,12,,,,10,,,76,55
480720,note_on,,,,,0,0,14,,,,12,,,64,45
480720,note_on,,,,,0,0,13,,,,11,,,64,44
480720,note_on,,,,,12,0,11,,,,7,,,52,38
480720,note_on,,,,,240,0,13,,,,11,,,68,0
480768,note_on,,,,,48,0,11,,,,7,,,52,0
480780,note_on,,,,,12,0,11,,,,7,,,52,38
480828,note_on,,,,,48,0,11,,,,7,,,52,0
480840,note_on,,,,,12,0,11,,,,7,,,52,38
480888,note_on,,,,,48,0,11,,,,7,,,52,0
480900,note_on,,,,,12,0,11,,,,7,,,52,38
480948,note_on,,,,,48,0,11,,,,7,,,52,0
480960,note_on,,,,,240,0,13,,,,11,,,64,0
480960,note_on,,,,,0,0,14,,,,12,,,67,45
480960,note_on,,,,,240,0,14,,,,12,,,64,0
480960,note_on,,,,,0,0,12,,,,10,,,79,55
480960,note_on,,,,,240,0,12,,,,10,,,76,0
480960,note_on,,,,,12,0,11,,,,7,,,52,38
480960,note_on,,,,,0,0,13,,,,11,,,67,44
481008,note_on,,,,,48,0,11,,,,7,,,52,0
481020,note_on,,,,,12,0,11,,,,7,,,52,38
481068,note_on,,,,,48,0,11,,,,7,,,52,0
481080,note_on,,,,,12,0,11,,,,7,,,52,38
481128,note_on,,,,,48,0,11,,,,7,,,52,0
481140,note_on,,,,,12,0,11,,,,7,,,52,38
481188,note_on,,,,,48,0,11,,,,7,,,52,0
481200,note_on,,,,,240,0,14,,,,12,,,67,0
481200,note_on,,,,,0,0,12,,,,10,,,84,55
481200,note_on,,,,,240,0,13,,,,11,,,67,0
481200,note_on,,,,,0,0,14,,,,12,,,72,45
481200,note_on,,,,,0,0,13,,,,11,,,72,44
481200,note_on,,,,,12,0,11,,,,7,,,52,38
481200,note_on,,,,,240,0,12,,,,10,,,79,0
481248,note_on,,,,,48,0,11,,,,7,,,52,0
481260,note_on,,,,,12,0,11,,,,7,,,52,38
481308,note_on,,,,,48,0,11,,,,7,,,52,0
481320,note_on,,,,,12,0,11,,,,7,,,52,38
481368,note_on,,,,,48,0,11,,,,7,,,52,0
481380,note_on,,,,,12,0,11,,,,7,,,52,38
481428,note_on,,,,,48,0,11,,,,7,,,52,0
481440,note_on,,,,,240,0,14,,,,12,,,72,0
481440,note_on,,,,,0,0,13,,,,11,,,76,44
481440,note_on,,,,,0,0,12,,,,10,,,88,55
481440,note_on,,,,,12,0,11,,,,7,,,52,38
481440,note_on,,,,,240,0,13,,,,11,,,72,0
481440,note_on,,,,,0,0,14,,,,12,,,76,45
481440,note_on,,,,,240,0,12,,,,10,,,84,0
481488,note_on,,,,,48,0,11,,,,7,,,52,0
481500,note_on,,,,,12,0,11,,,,7,,,52,38
481536,note_on,,,,,3456,0,8,,,,4,,,55,0
481548,note_on,,,,,48,0,11,,,,7,,,52,0
481560,note_on,,,,,12,0,11,,,,7,,,52,38
481608,note_on,,,,,48,0,11,,,,7,,,52,0
481620,note_on,,,,,12,0,11,,,,7,,,52,38
481668,note_on,,,,,48,0,11,,,,7,,,52,0
481680,note_on,,,,,240,0,13,,,,11,,,76,0
481680,note_on,,,,,12,0,11,,,,7,,,52,38
481680,note_on,,,,,240,0,14,,,,12,,,76,0
481680,note_on,,,,,0,0,14,,,,12,,,72,45
481680,note_on,,,,,0,0,13,,,,11,,,72,44
481680,note_on,,,,,0,0,12,,,,10,,,84,55
481680,note_on,,,,,240,0,12,,,,10,,,88,0
481728,note_on,,,,,48,0,11,,,,7,,,52,0
481740,note_on,,,,,12,0,11,,,,7,,,52,38
481788,note_on,,,,,48,0,11,,,,7,,,52,0
481800,note_on,,,,,12,0,11,,,,7,,,52,38
481848,note_on,,,,,48,0,11,,,,7,,,52,0
481860,note_on,,,,,12,0,11,,,,7,,,52,38
481908,note_on,,,,,48,0,11,,,,7,,,52,0
481920,note_on,,,,,240,0,13,,,,11,,,72,0
481920,note_on,,,,,0,0,13,,,,11,,,67,44
481920,note_on,,,,,240,0,12,,,,10,,,84,0
481920,note_on,,,,,0,0,6,,,,3,,,48,57
481920,note_on,,,,,384,0,8,,,,4,,,52,43
481920,note_on,,,,,12,0,11,,,,7,,,52,38
481920,note_on,,,,,3840,0,6,,,,3,,,43,0
481920,note_on,,,,,0,0,12,,,,10,,,79,55
481920,note_on,,,,,0,0,14,,,,12,,,67,45
481920,note_on,,,,,240,0,14,,,,12,,,72,0
481968,note_on,,,,,48,0,11,,,,7,,,52,0
481980,note_on,,,,,12,0,11,,,,7,,,52,38
482028,note_on,,,,,48,0,11,,,,7,,,52,0
482040,note_on,,,,,12,0,11,,,,7,,,52,38
482088,note_on,,,,,48,0,11,,,,7,,,52,0
482100,note_on,,,,,12,0,11,,,,7,,,52,38
482148,note_on,,,,,48,0,11,,,,7,,,52,0
482160,note_on,,,,,0,0,14,,,,12,,,64,45
482160,note_on,,,,,0,0,12,,,,10,,,76,55
482160,note_on,,,,,240,0,12,,,,10,,,79,0
482160,note_on,,,,,12,0,11,,,,7,,,52,38
482160,note_on,,,,,240,0,14,,,,12,,,67,0
482208,note_on,,,,,48,0,11,,,,7,,,52,0
482220,note_on,,,,,12,0,11,,,,7,,,52,38
482268,note_on,,,,,48,0,11,,,,7,,,52,0
482280,note_on,,,,,12,0,11,,,,7,,,52,38
482304,note_on,,,,,384,0,13,,,,11,,,67,0
482328,note_on,,,,,48,0,11,,,,7,,,52,0
482340,note_on,,,,,12,0,11,,,,7,,,52,38
482388,note_on,,,,,48,0,11,,,,7,,,52,0
482400,note_on,,,,,12,0,11,,,,7,,,52,38
482400,note_on,,,,,240,0,14,,,,12,,,64,0
482400,note_on,,,,,0,0,12,,,,10,,,72,55
482400,note_on,,,,,0,0,14,,,,12,,,60,45
482400,note_on,,,,,240,0,12,,,,10,,,76,0
482448,note_on,,,,,48,0,11,,,,7,,,52,0
482460,note_on,,,,,12,0,11,,,,7,,,52,38
482508,note_on,,,,,48,0,11,,,,7,,,52,0
482520,note_on,,,,,12,0,11,,,,7,,,52,38
482568,note_on,,,,,48,0,11,,,,7,,,52,0
482580,note_on,,,,,12,0,11,,,,7,,,52,38
482628,note_on,,,,,48,0,11,,,,7,,,52,0
482640,note_on,,,,,0,0,12,,,,10,,,67,55
482640,note_on,,,,,240,0,12,,,,10,,,72,0
482640,note_on,,,,,240,0,14,,,,12,,,60,0
482640,note_on,,,,,0,0,14,,,,12,,,67,45
482640,note_on,,,,,12,0,11,,,,7,,,52,38
482688,note_on,,,,,48,0,11,,,,7,,,52,0
482700,note_on,,,,,12,0,11,,,,7,,,52,38
482748,note_on,,,,,48,0,11,,,,7,,,52,0
482760,note_on,,,,,12,0,11,,,,7,,,52,38
482808,note_on,,,,,48,0,11,,,,7,,,52,0
482820,note_on,,,,,12,0,11,,,,7,,,52,38
482868,note_on,,,,,48,0,11,,,,7,,,52,0
482880,note_on,,,,,240,0,14,,,,12,,,67,0
482880,note_on,,,,,576,0,13,,,,11,,,68,44
482880,note_on,,,,,240,0,12,,,,10,,,67,0
482880,note_on,,,,,0,0,12,,,,10,,,68,55
482880,note_on,,,,,12,0,11,,,,7,,,52,38
482880,note_on,,,,,0,0,14,,,,12,,,68,45
482928,note_on,,,,,48,0,11,,,,7,,,52,0
482940,note_on,,,,,12,0,11,,,,7,,,52,38
482988,note_on,,,,,48,0,11,,,,7,,,52,0
483000,note_on,,,,,12,0,11,,,,7,,,52,38
483048,note_on,,,,,48,0,11,,,,7,,,52,0
483060,note_on,,,,,12,0,11,,,,7,,,52,38
483108,note_on,,,,,48,0,11,,,,7,,,52,0
483120,note_on,,,,,240,0,14,,,,12,,,68,0
483120,note_on,,,,,0,0,13,,,,11,,,64,44
483120,note_on,,,,,240,0,13,,,,11,,,68,0
483120,note_on,,,,,0,0,14,,,,12,,,64,45
483120,note_on,,,,,12,0,11,,,,7,,,52,38
483168,note_on,,,,,48,0,11,,,,7,,,52,0
483180,note_on,,,,,12,0,11,,,,7,,,52,38
483228,note_on,,,,,48,0,11,,,,7,,,52,0
483240,note_on,,,,,12,0,11,,,,7,,,52,38
483264,note_on,,,,,384,0,12,,,,10,,,68,0
483288,note_on,,,,,48,0,11,,,,7,,,52,0
483300,note_on,,,,,12,0,11,,,,7,,,52,38
483348,note_on,,,,,48,0,11,,,,7,,,52,0
483360,note_on,,,,,240,0,13,,,,11,,,64,0
483360,note_on,,,,,0,0,13,,,,11,,,60,44
483360,note_on,,,,,240,0,14,,,,12,,,64,0
483360,note_on,,,,,0,0,14,,,,12,,,60,45
483360,note_on,,,,,12,0,11,,,,7,,,52,38
483408,note_on,,,,,48,0,11,,,,7,,,52,0
483420,note_on,,,,,12,0,11,,,,7,,,52,38
483468,note_on,,,,,48,0,11,,,,7,,,52,0
483480,note_on,,,,,12,0,11,,,,7,,,52,38
483528,note_on,,,,,48,0,11,,,,7,,,52,0
483540,note_on,,,,,12,0,11,,,,7,,,52,38
483588,note_on,,,,,48,0,11,,,,7,,,52,0
483600,note_on,,,,,12,0,11,,,,7,,,52,38
483600,note_on,,,,,240,0,14,,,,12,,,60,0
483600,note_on,,,,,0,0,14,,,,12,,,55,45
483600,note_on,,,,,240,0,13,,,,11,,,60,0
483600,note_on,,,,,0,0,13,,,,11,,,55,44
483648,note_on,,,,,48,0,11,,,,7,,,52,0
483660,note_on,,,,,12,0,11,,,,7,,,52,38
483708,note_on,,,,,48,0,11,,,,7,,,52,0
483720,note_on,,,,,12,0,11,,,,7,,,52,38
483768,note_on,,,,,48,0,11,,,,7,,,52,0
483780,note_on,,,,,12,0,11,,,,7,,,52,38
483828,note_on,,,,,48,0,11,,,,7,,,52,0
483840,note_on,,,,,240,0,14,,,,12,,,55,0
483840,set_tempo,,,,,5760,1,0,517241,,,,,,,
483840,note_on,,,,,0,0,13,,,,11,,,56,44
483840,note_on,,,,,12,0,11,,,,7,,,52,58
483840,note_on,,,,,240,0,13,,,,11,,,55,0
483840,note_on,,,,,0,0,14,,,,12,,,56,45
484224,note_on,,,,,0,0,8,,,,4,,,64,0
484224,note_on,,,,,6144,0,1,,,,0,,,84,0
484224,note_on,,,,,0,0,1,,,,0,,,76,0
484224,note_on,,,,,384,0,11,,,,7,,,52,0
484224,note_on,,,,,384,0,13,,,,11,,,56,0
484224,note_on,,,,,6144,0,4,,,,2,,,60,0
484224,note_on,,,,,0,0,4,,,,2,,,72,0
484224,note_on,,,,,0,0,10,,,,6,,,76,0
484224,note_on,,,,,6144,0,10,,,,6,,,64,0
484224,note_on,,,,,6144,0,9,,,,5,,,36,0
484224,note_on,,,,,0,0,9,,,,5,,,48,0
484224,note_on,,,,,384,0,14,,,,12,,,56,0
484224,note_on,,,,,2304,0,6,,,,3,,,48,0
484224,note_on,,,,,0,0,6,,,,3,,,36,0
484224,note_on,,,,,0,0,3,,,,1,,,84,0
484224,note_on,,,,,6144,0,3,,,,1,,,76,0
484224,note_on,,,,,2304,0,8,,,,4,,,52,0
484800,note_on,,,,,576,0,4,,,,2,,,57,63
484800,note_on,,,,,576,0,6,,,,3,,,45,63
484800,note_on,,,,,0,0,6,,,,3,,,57,63
484800,note_on,,,,,576,0,3,,,,1,,,81,63
484800,note_on,,,,,0,0,3,,,,1,,,69,63
484800,note_on,,,,,0,0,4,,,,2,,,69,63
485760,note_on,,,,,0,0,3,,,,1,,,81,0
485760,note_on,,,,,0,0,4,,,,2,,,66,63
485760,note_on,,,,,0,0,4,,,,2,,,54,63
485760,note_on,,,,,0,0,4,,,,2,,,57,0
485760,note_on,,,,,960,0,4,,,,2,,,69,0
485760,set_tempo,,,,,1920,1,0,500000,,,,,,,
485760,note_on,,,,,0,0,3,,,,1,,,78,63
485760,note_on,,,,,960,0,3,,,,1,,,69,0
485760,note_on,,,,,0,0,3,,,,1,,,66,63
485760,note_on,,,,,0,0,6,,,,3,,,45,0
485760,note_on,,,,,0,0,6,,,,3,,,42,63
485760,note_on,,,,,0,0,6,,,,3,,,54,63
485760,note_on,,,,,960,0,6,,,,3,,,57,0
487680,note_on,,,,,0,0,3,,,,1,,,63,63
487680,note_on,,,,,1920,0,3,,,,1,,,78,0
487680,note_on,,,,,0,0,3,,,,1,,,66,0
487680,note_on,,,,,1920,0,6,,,,3,,,54,0
487680,note_on,,,,,0,0,6,,,,3,,,42,0
487680,note_on,,,,,0,0,6,,,,3,,,39,63
487680,note_on,,,,,0,0,6,,,,3,,,51,63
487680,note_on,,,,,0,0,4,,,,2,,,63,63
487680,set_tempo,,,,,1920,1,0,588235,,,,,,,
487680,note_on,,,,,0,0,4,,,,2,,,54,0
487680,note_on,,,,,1920,0,4,,,,2,,,66,0
487680,note_on,,,,,0,0,4,,,,2,,,51,63
487680,note_on,,,,,0,0,3,,,,1,,,75,63
489504,note_on,,,,,1824,0,4,,,,2,,,63,0
489504,note_on,,,,,0,0,3,,,,1,,,63,0
489504,note_on,,,,,1824,0,3,,,,1,,,75,0
489504,note_on,,,,,0,0,4,,,,2,,,51,0
489504,note_on,,,,,1824,0,6,,,,3,,,51,0
489504,note_on,,,,,0,0,6,,,,3,,,39,0
489600,note_on,,,,,0,0,1,,,,0,,,83,63
489600,note_on,,,,,96,0,3,,,,1,,,83,63
489600,note_on,,,,,96,0,6,,,,3,,,43,63
489600,note_on,,,,,0,0,6,,,,3,,,59,63
489600,note_on,,,,,11136,0,16,,,,14,,,31,63
489600,note_on,,,,,0,0,8,,,,4,,,59,38
489600,note_on,,,,,5376,0,8,,,,4,,,47,38
489600,note_on,,,,,5376,0,11,,,,7,,,47,38
489600,set_tempo,,,,,1920,1,0,476190,,,,,,,
489600,note_on,,,,,0,0,3,,,,1,,,71,63
489600,note_on,,,,,0,0,9,,,,5,,,55,38
489600,note_on,,,,,5376,0,1,,,,0,,,79,63
489600,note_on,,,,,0,0,4,,,,2,,,67,63
489600,note_on,,,,,5376,0,9,,,,5,,,43,38
489600,note_on,,,,,96,0,4,,,,2,,,71,63
489600,note_on,,,,,0,0,10,,,,6,,,71,63
489600,note_on,,,,,5376,0,10,,,,6,,,59,63
489648,note_on,,,,,48,0,11,,,,7,,,47,0
489660,note_on,,,,,12,0,11,,,,7,,,47,38
489708,note_on,,,,,48,0,11,,,,7,,,47,0
489720,note_on,,,,,12,0,11,,,,7,,,47,38
489768,note_on,,,,,48,0,11,,,,7,,,47,0
489780,note_on,,,,,12,0,11,,,,7,,,47,38
489828,note_on,,,,,48,0,11,,,,7,,,47,0
489840,note_on,,,,,6576,0,12,,,,10,,,55,58
489840,note_on,,,,,12,0,11,,,,7,,,47,38
489840,note_on,,,,,9600,0,15,,,,13,,,43,58
489840,note_on,,,,,5616,0,14,,,,12,,,55,43
489888,note_on,,,,,48,0,11,,,,7,,,47,0
489900,note_on,,,,,12,0,11,,,,7,,,47,38
489948,note_on,,,,,48,0,11,,,,7,,,47,0
489960,note_on,,,,,12,0,11,,,,7,,,47,38
489984,note_on,,,,,384,0,16,,,,14,,,31,0
490008,note_on,,,,,48,0,11,,,,7,,,47,0
490020,note_on,,,,,12,0,11,,,,7,,,47,38
490068,note_on,,,,,48,0,11,,,,7,,,47,0
490080,note_on,,,,,12,0,11,,,,7,,,47,38
490080,note_on,,,,,240,0,15,,,,13,,,43,0
490080,note_on,,,,,240,0,12,,,,10,,,55,0
490080,note_on,,,,,240,0,14,,,,12,,,55,0
490080,note_on,,,,,0,0,14,,,,12,,,59,43
490080,note_on,,,,,0,0,12,,,,10,,,59,58
490080,note_on,,,,,0,0,15,,,,13,,,47,58
490128,note_on,,,,,48,0,11,,,,7,,,47,0
490140,note_on,,,,,12,0,11,,,,7,,,47,38
490188,note_on,,,,,48,0,11,,,,7,,,47,0
490200,note_on,,,,,12,0,11,,,,7,,,47,38
490248,note_on,,,,,48,0,11,,,,7,,,47,0
490260,note_on,,,,,12,0,11,,,,7,,,47,38
490308,note_on,,,,,48,0,11,,,,7,,,47,0
490320,note_on,,,,,240,0,15,,,,13,,,47,0
490320,note_on,,,,,0,0,12,,,,10,,,63,58
490320,note_on,,,,,240,0,12,,,,10,,,59,0
490320,note_on,,,,,0,0,15,,,,13,,,51,58
490320,note_on,,,,,0,0,14,,,,12,,,63,43
490320,note_on,,,,,240,0,14,,,,12,,,59,0
490320,note_on,,,,,12,0,11,,,,7,,,47,38
490368,note_on,,,,,48,0,11,,,,7,,,47,0
490380,note_on,,,,,12,0,11,,,,7,,,47,38
490428,note_on,,,,,48,0,11,,,,7,,,47,0
490440,note_on,,,,,12,0,11,,,,7,,,47,38
490488,note_on,,,,,48,0,11,,,,7,,,47,0
490500,note_on,,,,,12,0,11,,,,7,,,47,38
490548,note_on,,,,,48,0,11,,,,7,,,47,0
490560,note_on,,,,,240,0,15,,,,13,,,51,0
490560,note_on,,,,,240,0,12,,,,10,,,63,0
490560,note_on,,,,,0,0,12,,,,10,,,66,58
490560,note_on,,,,,0,0,15,,,,13,,,54,58
490560,note_on,,,,,12,0,11,,,,7,,,47,38
490560,note_on,,,,,240,0,14,,,,12,,,63,0
490560,note_on,,,,,0,0,14,,,,12,,,66,43
490608,note_on,,,,,48,0,11,,,,7,,,47,0
490620,note_on,,,,,12,0,11,,,,7,,,47,38
490668,note_on,,,,,48,0,11,,,,7,,,47,0
490680,note_on,,,,,12,0,11,,,,7,,,47,38
490728,note_on,,,,,48,0,11,,,,7,,,47,0
490740,note_on,,,,,12,0,11,,,,7,,,47,38
490788,note_on,,,,,48,0,11,,,,7,,,47,0
490800,note_on,,,,,12,0,11,,,,7,,,47,38
490800,note_on,,,,,240,0,12,,,,10,,,66,0
490800,note_on,,,,,0,0,12,,,,10,,,63,58
490800,note_on,,,,,240,0,15,,,,13,,,54,0
490800,note_on,,,,,0,0,14,,,,12,,,63,43
490800,note_on,,,,,240,0,14,,,,12,,,66,0
490800,note_on,,,,,0,0,15,,,,13,,,51,58
490848,note_on,,,,,48,0,11,,,,7,,,47,0
490860,note_on,,,,,12,0,11,,,,7,,,47,38
490908,note_on,,,,,48,0,11,,,,7,,,47,0
490920,note_on,,,,,12,0,11,,,,7,,,47,38
490968,note_on,,,,,48,0,11,,,,7,,,47,0
490980,note_on,,,,,12,0,11,,,,7,,,47,38
491028,note_on,,,,,48,0,11,,,,7,,,47,0
491040,note_on,,,,,0,0,14,,,,12,,,64,43
491040,note_on,,,,,0,0,15,,,,13,,,52,58
491040,note_on,,,,,240,0,15,,,,13,,,51,0
491040,note_on,,,,,12,0,11,,,,7,,,47,38
491040,note_on,,,,,0,0,12,,,,10,,,64,58
491040,note_on,,,,,240,0,14,,,,12,,,63,0
491040,note_on,,,,,240,0,12,,,,10,,,63,0
491088,note_on,,,,,48,0,11,,,,7,,,47,0
491100,note_on,,,,,12,0,11,,,,7,,,47,38
491148,note_on,,,,,48,0,11,,,,7,,,47,0
491160,note_on,,,,,12,0,11,,,,7,,,47,38
491208,note_on,,,,,48,0,11,,,,7,,,47,0
491220,note_on,,,,,12,0,11,,,,7,,,47,38
491268,note_on,,,,,48,0,11,,,,7,,,47,0
491280,note_on,,,,,0,0,12,,,,10,,,67,58
491280,note_on,,,,,240,0,12,,,,10,,,64,0
491280,note_on,,,,,0,0,14,,,,12,,,67,43
491280,note_on,,,,,240,0,15,,,,13,,,52,0
491280,note_on,,,,,0,0,15,,,,13,,,55,58
491280,note_on,,,,,240,0,14,,,,12,,,64,0
491280,note_on,,,,,12,0,11,,,,7,,,47,38
491328,note_on,,,,,48,0,11,,,,7,,,47,0
491340,note_on,,,,,12,0,11,,,,7,,,47,38
491388,note_on,,,,,48,0,11,,,,7,,,47,0
491400,note_on,,,,,12,0,11,,,,7,,,47,38
491448,note_on,,,,,48,0,11,,,,7,,,47,0
491460,note_on,,,,,12,0,11,,,,7,,,47,38
491508,note_on,,,,,48,0,11,,,,7,,,47,0
491520,note_on,,,,,240,0,15,,,,13,,,55,0
491520,note_on,,,,,240,0,14,,,,12,,,67,0
491520,note_on,,,,,0,0,14,,,,12,,,59,43
491520,note_on,,,,,12,0,11,,,,7,,,47,38
491520,note_on,,,,,240,0,12,,,,10,,,67,0
491520,note_on,,,,,0,0,15,,,,13,,,59,58
491520,note_on,,,,,7296,0,13,,,,11,,,59,43
491520,note_on,,,,,0,0,12,,,,10,,,71,58
491568,note_on,,,,,48,0,11,,,,7,,,47,0
491580,note_on,,,,,12,0,11,,,,7,,,47,38
491628,note_on,,,,,48,0,11,,,,7,,,47,0
491640,note_on,,,,,12,0,11,,,,7,,,47,38
491688,note_on,,,,,48,0,11,,,,7,,,47,0
491700,note_on,,,,,12,0,11,,,,7,,,47,38
491748,note_on,,,,,48,0,11,,,,7,,,47,0
491760,note_on,,,,,240,0,15,,,,13,,,59,0
491760,note_on,,,,,240,0,12,,,,10,,,71,0
491760,note_on,,,,,0,0,14,,,,12,,,63,43
491760,note_on,,,,,12,0,11,,,,7,,,47,38
491760,note_on,,,,,0,0,12,,,,10,,,75,58
491760,note_on,,,,,240,0,13,,,,11,,,59,0
491760,note_on,,,,,0,0,13,,,,11,,,63,43
491760,note_on,,,,,240,0,14,,,,12,,,59,0
491808,note_on,,,,,48,0,11,,,,7,,,47,0
491820,note_on,,,,,12,0,11,,,,7,,,47,38
491868,note_on,,,,,48,0,11,,,,7,,,47,0
491880,note_on,,,,,12,0,11,,,,7,,,47,38
491928,note_on,,,,,48,0,11,,,,7,,,47,0
491940,note_on,,,,,12,0,11,,,,7,,,47,38
491988,note_on,,,,,48,0,11,,,,7,,,47,0
492000,note_on,,,,,0,0,13,,,,11,,,66,43
492000,note_on,,,,,240,0,12,,,,10,,,75,0
492000,note_on,,,,,240,0,13,,,,11,,,63,0
492000,note_on,,,,,0,0,12,,,,10,,,78,58
492000,note_on,,,,,240,0,14,,,,12,,,63,0
492000,note_on,,,,,0,0,14,,,,12,,,66,43
492000,note_on,,,,,12,0,11,,,,7,,,47,38
492048,note_on,,,,,48,0,11,,,,7,,,47,0
492060,note_on,,,,,12,0,11,,,,7,,,47,38
492108,note_on,,,,,48,0,11,,,,7,,,47,0
492120,note_on,,,,,12,0,11,,,,7,,,47,38
492168,note_on,,,,,48,0,11,,,,7,,,47,0
492180,note_on,,,,,12,0,11,,,,7,,,47,38
492228,note_on,,,,,48,0,11,,,,7,,,47,0
492240,note_on,,,,,0,0,12,,,,10,,,71,58
492240,note_on,,,,,0,0,13,,,,11,,,59,43
492240,note_on,,,,,12,0,11,,,,7,,,47,38
492240,note_on,,,,,240,0,12,,,,10,,,78,0
492240,note_on,,,,,240,0,13,,,,11,,,66,0
492240,note_on,,,,,240,0,14,,,,12,,,66,0
492240,note_on,,,,,0,0,14,,,,12,,,59,43
492288,note_on,,,,,48,0,11,,,,7,,,47,0
492300,note_on,,,,,12,0,11,,,,7,,,47,38
492348,note_on,,,,,48,0,11,,,,7,,,47,0
492360,note_on,,,,,12,0,11,,,,7,,,47,38
492408,note_on,,,,,48,0,11,,,,7,,,47,0
492420,note_on,,,,,12,0,11,,,,7,,,47,38
492468,note_on,,,,,48,0,11,,,,7,,,47,0
492480,note_on,,,,,12,0,11,,,,7,,,47,38
492480,note_on,,,,,240,0,14,,,,12,,,59,0
492480,note_on,,,,,0,0,14,,,,12,,,64,43
492480,note_on,,,,,0,0,12,,,,10,,,76,58
492480,note_on,,,,,240,0,12,,,,10,,,71,0
492480,note_on,,,,,240,0,13,,,,11,,,59,0
492480,note_on,,,,,0,0,13,,,,11,,,64,43
492528,note_on,,,,,48,0,11,,,,7,,,47,0
492540,note_on,,,,,12,0,11,,,,7,,,47,38
492588,note_on,,,,,48,0,11,,,,7,,,47,0
492600,note_on,,,,,12,0,11,,,,7,,,47,38
492648,note_on,,,,,48,0,11,,,,7,,,47,0
492660,note_on,,,,,12,0,11,,,,7,,,47,38
492708,note_on,,,,,48,0,11,,,,7,,,47,0
492720,note_on,,,,,240,0,13,,,,11,,,64,0
492720,note_on,,,,,0,0,13,,,,11,,,67,43
492720,note_on,,,,,0,0,14,,,,12,,,67,43
492720,note_on,,,,,240,0,14,,,,12,,,64,0
492720,note_on,,,,,0,0,12,,,,10,,,79,58
492720,note_on,,,,,240,0,12,,,,10,,,76,0
492720,note_on,,,,,12,0,11,,,,7,,,47,38
492768,note_on,,,,,48,0,11,,,,7,,,47,0
492780,note_on,,,,,12,0,11,,,,7,,,47,38
492828,note_on,,,,,48,0,11,,,,7,,,47,0
492840,note_on,,,,,12,0,11,,,,7,,,47,38
492888,note_on,,,,,48,0,11,,,,7,,,47,0
492900,note_on,,,,,12,0,11,,,,7,,,47,38
492948,note_on,,,,,48,0,11,,,,7,,,47,0
492960,note_on,,,,,0,0,12,,,,10,,,83,58
492960,note_on,,,,,240,0,12,,,,10,,,79,0
492960,note_on,,,,,240,0,14,,,,12,,,67,0
492960,note_on,,,,,0,0,14,,,,12,,,71,43
492960,note_on,,,,,0,0,13,,,,11,,,71,43
492960,note_on,,,,,240,0,13,,,,11,,,67,0
492960,note_on,,,,,12,0,11,,,,7,,,47,38
493008,note_on,,,,,48,0,11,,,,7,,,47,0
493020,note_on,,,,,12,0,11,,,,7,,,47,38
493068,note_on,,,,,48,0,11,,,,7,,,47,0
493080,note_on,,,,,12,0,11,,,,7,,,47,38
493128,note_on,,,,,48,0,11,,,,7,,,47,0
493140,note_on,,,,,12,0,11,,,,7,,,47,38
493188,note_on,,,,,48,0,11,,,,7,,,47,0
493200,note_on,,,,,0,0,12,,,,10,,,79,58
493200,note_on,,,,,12,0,11,,,,7,,,47,38
493200,note_on,,,,,240,0,13,,,,11,,,71,0
493200,note_on,,,,,0,0,13,,,,11,,,67,43
493200,note_on,,,,,240,0,14,,,,12,,,71,0
493200,note_on,,,,,0,0,14,,,,12,,,67,43
493200,note_on,,,,,240,0,12,,,,10,,,83,0
493248,note_on,,,,,48,0,11,,,,7,,,47,0
493260,note_on,,,,,12,0,11,,,,7,,,47,38
493308,note_on,,,,,48,0,11,,,,7,,,47,0
493320,note_on,,,,,12,0,11,,,,7,,,47,38
493368,note_on,,,,,48,0,11,,,,7,,,47,0
493380,note_on,,,,,12,0,11,,,,7,,,47,38
493428,note_on,,,,,48,0,11,,,,7,,,47,0
493440,note_on,,,,,12,0,11,,,,7,,,47,38
493440,note_on,,,,,240,0,14,,,,12,,,67,0
493440,note_on,,,,,240,0,12,,,,10,,,79,0
493440,note_on,,,,,0,0,12,,,,10,,,76,58
493440,note_on,,,,,240,0,13,,,,11,,,67,0
493440,note_on,,,,,0,0,13,,,,11,,,64,43
493440,note_on,,,,,1680,0,15,,,,13,,,64,58
493440,note_on,,,,,0,0,14,,,,12,,,64,43
493488,note_on,,,,,48,0,11,,,,7,,,47,0
493500,note_on,,,,,12,0,11,,,,7,,,47,38
493548,note_on,,,,,48,0,11,,,,7,,,47,0
493560,note_on,,,,,12,0,11,,,,7,,,47,38
493608,note_on,,,,,48,0,11,,,,7,,,47,0
493620,note_on,,,,,12,0,11,,,,7,,,47,38
493668,note_on,,,,,48,0,11,,,,7,,,47,0
493680,note_on,,,,,240,0,14,,,,12,,,64,0
493680,note_on,,,,,0,0,14,,,,12,,,59,43
493680,note_on,,,,,240,0,12,,,,10,,,76,0
493680,note_on,,,,,240,0,13,,,,11,,,64,0
493680,note_on,,,,,0,0,13,,,,11,,,59,43
493680,note_on,,,,,0,0,12,,,,10,,,71,58
493680,note_on,,,,,0,0,15,,,,13,,,59,58
493680,note_on,,,,,240,0,15,,,,13,,,64,0
493680,note_on,,,,,12,0,11,,,,7,,,47,38
493728,note_on,,,,,48,0,11,,,,7,,,47,0
493740,note_on,,,,,12,0,11,,,,7,,,47,38
493788,note_on,,,,,48,0,11,,,,7,,,47,0
493800,note_on,,,,,12,0,11,,,,7,,,47,38
493848,note_on,,,,,48,0,11,,,,7,,,47,0
493860,note_on,,,,,12,0,11,,,,7,,,47,38
493908,note_on,,,,,48,0,11,,,,7,,,47,0
493920,note_on,,,,,240,0,15,,,,13,,,59,0
493920,note_on,,,,,0,0,15,,,,13,,,55,58
493920,note_on,,,,,0,0,14,,,,12,,,55,43
493920,note_on,,,,,240,0,14,,,,12,,,59,0
493920,note_on,,,,,0,0,12,,,,10,,,67,58
493920,note_on,,,,,12,0,11,,,,7,,,47,38
493920,note_on,,,,,240,0,12,,,,10,,,71,0
493920,note_on,,,,,0,0,13,,,,11,,,55,43
493920,note_on,,,,,240,0,13,,,,11,,,59,0
493968,note_on,,,,,48,0,11,,,,7,,,47,0
493980,note_on,,,,,12,0,11,,,,7,,,47,38
494028,note_on,,,,,48,0,11,,,,7,,,47,0
494040,note_on,,,,,12,0,11,,,,7,,,47,38
494088,note_on,,,,,48,0,11,,,,7,,,47,0
494100,note_on,,,,,12,0,11,,,,7,,,47,38
494148,note_on,,,,,48,0,11,,,,7,,,47,0
494160,note_on,,,,,0,0,14,,,,12,,,64,43
494160,note_on,,,,,12,0,11,,,,7,,,47,38
494160,note_on,,,,,240,0,12,,,,10,,,67,0
494160,note_on,,,,,240,0,14,,,,12,,,55,0
494160,note_on,,,,,0,0,12,,,,10,,,64,58
494160,note_on,,,,,0,0,15,,,,13,,,52,58
494160,note_on,,,,,240,0,13,,,,11,,,55,0
494160,note_on,,,,,240,0,15,,,,13,,,55,0
494208,note_on,,,,,48,0,11,,,,7,,,47,0
494220,note_on,,,,,12,0,11,,,,7,,,47,38
494268,note_on,,,,,48,0,11,,,,7,,,47,0
494280,note_on,,,,,12,0,11,,,,7,,,47,38
494328,note_on,,,,,48,0,11,,,,7,,,47,0
494340,note_on,,,,,12,0,11,,,,7,,,47,38
494388,note_on,,,,,48,0,11,,,,7,,,47,0
494400,note_on,,,,,0,0,15,,,,13,,,53,58
494400,note_on,,,,,240,0,15,,,,13,,,52,0
494400,note_on,,,,,240,0,12,,,,10,,,64,0
494400,note_on,,,,,12,0,11,,,,7,,,47,38
494400,note_on,,,,,0,0,12,,,,10,,,65,58
494400,note_on,,,,,240,0,14,,,,12,,,64,0
494400,note_on,,,,,0,0,14,,,,12,,,65,43
494448,note_on,,,,,48,0,11,,,,7,,,47,0
494460,note_on,,,,,12,0,11,,,,7,,,47,38
494508,note_on,,,,,48,0,11,,,,7,,,47,0
494520,note_on,,,,,12,0,11,,,,7,,,47,38
494568,note_on,,,,,48,0,11,,,,7,,,47,0
494580,note_on,,,,,12,0,11,,,,7,,,47,38
494628,note_on,,,,,48,0,11,,,,7,,,47,0
494640,note_on,,,,,0,0,14,,,,12,,,62,43
494640,note_on,,,,,0,0,15,,,,13,,,50,58
494640,note_on,,,,,240,0,15,,,,13,,,53,0
494640,note_on,,,,,240,0,14,,,,12,,,65,0
494640,note_on,,,,,12,0,11,,,,7,,,47,38
494688,note_on,,,,,48,0,11,,,,7,,,47,0
494700,note_on,,,,,12,0,11,,,,7,,,47,38
494748,note_on,,,,,48,0,11,,,,7,,,47,0
494760,note_on,,,,,12,0,11,,,,7,,,47,38
494784,note_on,,,,,384,0,12,,,,10,,,65,0
494808,note_on,,,,,48,0,11,,,,7,,,47,0
494820,note_on,,,,,12,0,11,,,,7,,,47,38
494868,note_on,,,,,48,0,11,,,,7,,,47,0
494880,note_on,,,,,240,0,15,,,,13,,,50,0
494880,note_on,,,,,240,0,14,,,,12,,,62,0
494880,note_on,,,,,0,0,14,,,,12,,,59,43
494880,note_on,,,,,0,0,15,,,,13,,,47,58
494880,note_on,,,,,12,0,11,,,,7,,,47,38
494928,note_on,,,,,48,0,11,,,,7,,,47,0
494940,note_on,,,,,12,0,11,,,,7,,,47,38
494988,note_on,,,,,48,0,11,,,,7,,,47,0
495000,note_on,,,,,12,0,11,,,,7,,,47,38
495048,note_on,,,,,48,0,11,,,,7,,,47,0
495060,note_on,,,,,12,0,11,,,,7,,,47,38
495108,note_on,,,,,48,0,11,,,,7,,,47,0
495120,note_on,,,,,0,0,14,,,,12,,,52,43
495120,note_on,,,,,0,0,15,,,,13,,,43,58
495120,note_on,,,,,240,0,15,,,,13,,,47,0
495120,note_on,,,,,12,0,11,,,,7,,,47,38
495120,note_on,,,,,240,0,14,,,,12,,,59,0
495168,note_on,,,,,48,0,11,,,,7,,,47,0
495180,note_on,,,,,12,0,11,,,,7,,,47,38
495228,note_on,,,,,48,0,11,,,,7,,,47,0
495240,note_on,,,,,12,0,11,,,,7,,,47,38
495288,note_on,,,,,48,0,11,,,,7,,,47,0
495300,note_on,,,,,12,0,11,,,,7,,,47,38
495348,note_on,,,,,48,0,11,,,,7,,,47,0
495360,program_change,,,,,5376,0,16,,,48,14,,,,
495360,note_on,,,,,240,0,15,,,,13,,,43,0
495360,note_on,,,,,240,0,14,,,,12,,,52,0
495360,note_on,,,,,0,0,14,,,,12,,,53,43
495360,note_on,,,,,12,0,11,,,,7,,,47,58
495360,set_tempo,,,,,5760,1,0,500000,,,,,,,
495360,note_on,,,,,0,0,15,,,,13,,,53,58
495744,note_on,,,,,6144,0,9,,,,5,,,55,0
495744,note_on,,,,,0,0,9,,,,5,,,43,0
495744,note_on,,,,,6144,0,1,,,,0,,,83,0
495744,note_on,,,,,0,0,1,,,,0,,,79,0
495744,note_on,,,,,0,0,8,,,,4,,,47,0
495744,note_on,,,,,6144,0,10,,,,6,,,71,0
495744,note_on,,,,,0,0,3,,,,1,,,83,0
495744,note_on,,,,,384,0,14,,,,12,,,53,0
495744,note_on,,,,,6144,0,8,,,,4,,,59,0
495744,note_on,,,,,384,0,15,,,,13,,,53,0
495744,note_on,,,,,6144,0,3,,,,1,,,71,0
495744,note_on,,,,,0,0,4,,,,2,,,71,0
495744,note_on,,,,,384,0,11,,,,7,,,47,0
495744,note_on,,,,,6144,0,6,,,,3,,,59,0
495744,note_on,,,,,0,0,6,,,,3,,,43,0
495744,note_on,,,,,6144,0,4,,,,2,,,67,0
495744,note_on,,,,,0,0,10,,,,6,,,59,0
496800,note_on,,,,,2640,0,13,,,,11,,,63,63
496800,note_on,,,,,2016,0,12,,,,10,,,75,70
497280,note_on,,,,,0,0,9,,,,5,,,64,63
497280,note_on,,,,,0,0,12,,,,10,,,76,70
497280,note_on,,,,,1536,0,9,,,,5,,,60,63
497280,note_on,,,,,480,0,13,,,,11,,,63,0
497280,note_on,,,,,0,0,13,,,,11,,,64,63
497280,set_tempo,,,,,1920,1,0,441176,,,,,,,
497280,note_on,,,,,1920,0,16,,,,14,,,36,70
497280,note_on,,,,,480,0,12,,,,10,,,75,0
497280,note_on,,,,,1536,0,15,,,,13,,,36,70
497520,note_on,,,,,240,0,15,,,,13,,,36,0
497520,note_on,,,,,0,0,15,,,,13,,,43,70
497760,note_on,,,,,2016,0,1,,,,0,,,88,63
497760,note_on,,,,,2016,0,6,,,,3,,,60,63
497760,note_on,,,,,240,0,15,,,,13,,,43,0
497760,note_on,,,,,2016,0,4,,,,2,,,76,63
497760,note_on,,,,,0,0,6,,,,3,,,64,63
497760,note_on,,,,,0,0,4,,,,2,,,72,63
497760,note_on,,,,,0,0,1,,,,0,,,84,63
497760,note_on,,,,,0,0,15,,,,13,,,52,70
498000,note_on,,,,,240,0,15,,,,13,,,52,0
498000,note_on,,,,,0,0,15,,,,13,,,55,70
498048,note_on,,,,,768,0,12,,,,10,,,76,0
498048,note_on,,,,,768,0,16,,,,14,,,36,0
498048,note_on,,,,,768,0,13,,,,11,,,64,0
498144,note_on,,,,,0,0,4,,,,2,,,76,0
498144,note_on,,,,,384,0,4,,,,2,,,72,0
498144,note_on,,,,,384,0,1,,,,0,,,84,0
498144,note_on,,,,,0,0,1,,,,0,,,88,0
498144,note_on,,,,,0,0,6,,,,3,,,60,0
498144,note_on,,,,,384,0,6,,,,3,,,64,0
498240,note_on,,,,,240,0,15,,,,13,,,55,0
498240,note_on,,,,,0,0,15,,,,13,,,48,70
498240,note_on,,,,,2496,0,14,,,,12,,,52,63
498240,note_on,,,,,0,0,14,,,,12,,,60,63
498480,note_on,,,,,0,0,14,,,,12,,,64,63
498480,note_on,,,,,0,0,14,,,,12,,,55,63
498480,note_on,,,,,0,0,14,,,,12,,,52,0
498480,note_on,,,,,240,0,14,,,,12,,,60,0
498624,note_on,,,,,384,0,15,,,,13,,,48,0
498720,note_on,,,,,576,0,1,,,,0,,,76,63
498720,note_on,,,,,672,0,12,,,,10,,,79,70
498720,note_on,,,,,0,0,14,,,,12,,,67,63
498720,note_on,,,,,0,0,14,,,,12,,,60,63
498720,note_on,,,,,240,0,14,,,,12,,,64,0
498720,note_on,,,,,0,0,14,,,,12,,,55,0
498720,note_on,,,,,0,0,6,,,,3,,,52,63
498720,note_on,,,,,0,0,1,,,,0,,,72,63
498720,note_on,,,,,576,0,4,,,,2,,,60,63
498720,note_on,,,,,0,0,4,,,,2,,,64,63
498720,note_on,,,,,576,0,6,,,,3,,,48,63
498720,note_on,,,,,672,0,13,,,,11,,,67,63
498960,note_on,,,,,0,0,14,,,,12,,,72,63
498960,note_on,,,,,0,0,14,,,,12,,,64,63
498960,note_on,,,,,0,0,14,,,,12,,,67,0
498960,note_on,,,,,240,0,14,,,,12,,,60,0
499104,note_on,,,,,384,0,1,,,,0,,,72,0
499104,note_on,,,,,384,0,4,,,,2,,,64,0
499104,note_on,,,,,0,0,4,,,,2,,,60,0
499104,note_on,,,,,0,0,1,,,,0,,,76,0
499104,note_on,,,,,384,0,6,,,,3,,,52,0
499104,note_on,,,,,0,0,6,,,,3,,,48,0
499200,note_on,,,,,0,0,14,,,,12,,,64,0
499200,note_on,,,,,0,0,14,,,,12,,,62,63
499200,note_on,,,,,0,0,14,,,,12,,,71,63
499200,note_on,,,,,240,0,14,,,,12,,,72,0
499200,note_on,,,,,480,0,12,,,,10,,,79,0
499200,note_on,,,,,0,0,9,,,,5,,,62,63
499200,note_on,,,,,0,0,9,,,,5,,,55,63
499200,note_on,,,,,0,0,9,,,,5,,,60,0
499200,note_on,,,,,0,0,12,,,,10,,,83,70
499200,note_on,,,,,1920,0,9,,,,5,,,64,0
499200,note_on,,,,,576,0,15,,,,13,,,43,70
499200,note_on,,,,,480,0,13,,,,11,,,67,0
499200,note_on,,,,,0,0,13,,,,11,,,71,63
499200,note_on,,,,,1152,0,16,,,,14,,,31,70
499440,note_on,,,,,0,0,15,,,,13,,,50,70
499440,note_on,,,,,240,0,15,,,,13,,,43,0
499584,note_on,,,,,0,0,14,,,,12,,,62,0
499584,note_on,,,,,384,0,14,,,,12,,,71,0
499680,note_on,,,,,240,0,15,,,,13,,,50,0
499680,note_on,,,,,0,0,15,,,,13,,,55,70
499680,note_on,,,,,576,0,4,,,,2,,,62,63
499680,note_on,,,,,0,0,1,,,,0,,,74,63
499680,note_on,,,,,576,0,1,,,,0,,,71,63
499680,note_on,,,,,576,0,6,,,,3,,,50,63
499680,note_on,,,,,0,0,6,,,,3,,,43,63
499680,note_on,,,,,0,0,4,,,,2,,,59,63
499920,note_on,,,,,240,0,15,,,,13,,,55,0
499920,note_on,,,,,0,0,15,,,,13,,,59,70
499968,note_on,,,,,768,0,16,,,,14,,,31,0
499968,note_on,,,,,768,0,13,,,,11,,,71,0
499968,note_on,,,,,768,0,12,,,,10,,,83,0
500064,note_on,,,,,0,0,1,,,,0,,,71,0
500064,note_on,,,,,0,0,6,,,,3,,,50,0
500064,note_on,,,,,384,0,6,,,,3,,,43,0
500064,note_on,,,,,384,0,1,,,,0,,,74,0
500064,note_on,,,,,384,0,4,,,,2,,,59,0
500064,note_on,,,,,0,0,4,,,,2,,,62,0
500160,note_on,,,,,0,0,15,,,,13,,,50,70
500160,note_on,,,,,240,0,15,,,,13,,,59,0
500160,note_on,,,,,576,0,14,,,,12,,,59,63
500160,note_on,,,,,0,0,14,,,,12,,,55,63
500400,note_on,,,,,0,0,14,,,,12,,,59,63
500400,note_on,,,,,0,0,14,,,,12,,,62,63
500400,note_on,,,,,0,0,14,,,,12,,,59,0
500400,note_on,,,,,240,0,14,,,,12,,,55,0
500544,note_on,,,,,384,0,15,,,,13,,,50,0
500640,note_on,,,,,672,0,12,,,,10,,,86,70
500640,note_on,,,,,576,0,4,,,,2,,,67,63
500640,note_on,,,,,240,0,14,,,,12,,,59,0
500640,note_on,,,,,0,0,14,,,,12,,,62,0
500640,note_on,,,,,0,0,14,,,,12,,,67,63
500640,note_on,,,,,0,0,14,,,,12,,,62,63
500640,note_on,,,,,0,0,4,,,,2,,,71,63
500640,note_on,,,,,672,0,13,,,,11,,,74,63
500640,note_on,,,,,576,0,6,,,,3,,,55,63
500640,note_on,,,,,576,0,1,,,,0,,,79,63
500640,note_on,,,,,0,0,1,,,,0,,,83,63
500640,note_on,,,,,0,0,6,,,,3,,,59,63
500880,note_on,,,,,0,0,14,,,,12,,,71,63
500880,note_on,,,,,0,0,14,,,,12,,,67,0
500880,note_on,,,,,240,0,14,,,,12,,,62,0
500880,note_on,,,,,0,0,14,,,,12,,,67,63
501024,note_on,,,,,384,0,4,,,,2,,,71,0
501024,note_on,,,,,0,0,6,,,,3,,,55,0
501024,note_on,,,,,0,0,4,,,,2,,,67,0
501024,note_on,,,,,384,0,6,,,,3,,,59,0
501024,note_on,,,,,384,0,1,,,,0,,,83,0
501024,note_on,,,,,0,0,1,,,,0,,,79,0
501120,note_on,,,,,0,0,13,,,,11,,,62,63
501120,note_on,,,,,0,0,14,,,,12,,,74,63
501120,note_on,,,,,0,0,14,,,,12,,,65,63
501120,note_on,,,,,576,0,15,,,,13,,,38,70
501120,note_on,,,,,0,0,14,,,,12,,,71,0
501120,note_on,,,,,240,0,14,,,,12,,,67,0
501120,note_on,,,,,0,0,12,,,,10,,,74,70
501120,note_on,,,,,1152,0,16,,,,14,,,38,70
501120,note_on,,,,,480,0,12,,,,10,,,86,0
501120,note_on,,,,,1920,0,9,,,,5,,,62,0
501120,note_on,,,,,0,0,9,,,,5,,,55,0
501120,note_on,,,,,0,0,9,,,,5,,,62,63
501120,note_on,,,,,0,0,9,,,,5,,,65,63
501120,note_on,,,,,480,0,13,,,,11,,,74,0
501360,note_on,,,,,0,0,15,,,,13,,,45,70
501360,note_on,,,,,240,0,15,,,,13,,,38,0
501504,note_on,,,,,384,0,14,,,,12,,,74,0
501504,note_on,,,,,0,0,14,,,,12,,,65,0
501600,note_on,,,,,576,0,6,,,,3,,,62,63
501600,note_on,,,,,0,0,6,,,,3,,,53,63
501600,note_on,,,,,240,0,15,,,,13,,,45,0
501600,note_on,,,,,0,0,1,,,,0,,,86,63
501600,note_on,,,,,0,0,15,,,,13,,,53,70
501600,note_on,,,,,0,0,4,,,,2,,,74,63
501600,note_on,,,,,576,0,4,,,,2,,,65,63
501600,note_on,,,,,576,0,1,,,,0,,,77,63
501840,note_on,,,,,0,0,15,,,,13,,,57,70
501840,note_on,,,,,240,0,15,,,,13,,,53,0
501888,note_on,,,,,768,0,12,,,,10,,,74,0
501888,note_on,,,,,768,0,16,,,,14,,,38,0
501888,note_on,,,,,768,0,13,,,,11,,,62,0
501984,note_on,,,,,384,0,4,,,,2,,,74,0
501984,note_on,,,,,0,0,6,,,,3,,,62,0
501984,note_on,,,,,384,0,6,,,,3,,,53,0
501984,note_on,,,,,0,0,4,,,,2,,,65,0
501984,note_on,,,,,384,0,1,,,,0,,,86,0
501984,note_on,,,,,0,0,1,,,,0,,,77,0
502080,note_on,,,,,0,0,15,,,,13,,,50,70
502080,note_on,,,,,240,0,15,,,,13,,,57,0
502080,note_on,,,,,0,0,14,,,,12,,,62,63
502080,note_on,,,,,576,0,14,,,,12,,,53,63
502320,note_on,,,,,240,0,14,,,,12,,,62,0
502320,note_on,,,,,0,0,14,,,,12,,,53,0
502320,note_on,,,,,0,0,14,,,,12,,,57,63
502320,note_on,,,,,0,0,14,,,,12,,,65,63
502464,note_on,,,,,384,0,15,,,,13,,,50,0
502560,note_on,,,,,672,0,13,,,,11,,,65,63
502560,note_on,,,,,672,0,12,,,,10,,,77,70
502560,note_on,,,,,576,0,1,,,,0,,,77,63
502560,note_on,,,,,0,0,1,,,,0,,,74,63
502560,note_on,,,,,0,0,4,,,,2,,,62,63
502560,note_on,,,,,240,0,14,,,,12,,,65,0
502560,note_on,,,,,576,0,4,,,,2,,,65,63
502560,note_on,,,,,0,0,6,,,,3,,,50,63
502560,note_on,,,,,0,0,14,,,,12,,,57,0
502560,note_on,,,,,576,0,6,,,,3,,,53,63
502560,note_on,,,,,0,0,14,,,,12,,,69,63
502560,note_on,,,,,0,0,14,,,,12,,,62,63
502800,note_on,,,,,240,0,14,,,,12,,,69,0
502800,note_on,,,,,0,0,14,,,,12,,,62,0
502800,note_on,,,,,0,0,14,,,,12,,,65,63
502800,note_on,,,,,0,0,14,,,,12,,,74,63
502944,note_on,,,,,384,0,1,,,,0,,,74,0
502944,note_on,,,,,0,0,6,,,,3,,,53,0
502944,note_on,,,,,384,0,4,,,,2,,,62,0
502944,note_on,,,,,0,0,4,,,,2,,,65,0
502944,note_on,,,,,384,0,6,,,,3,,,50,0
502944,note_on,,,,,0,0,1,,,,0,,,77,0
503040,note_on,,,,,576,0,15,,,,13,,,45,70
503040,note_on,,,,,1152,0,16,,,,14,,,33,70
503040,note_on,,,,,0,0,13,,,,11,,,69,63
503040,note_on,,,,,480,0,13,,,,11,,,65,0
503040,note_on,,,,,0,0,14,,,,12,,,64,63
503040,note_on,,,,,480,0,12,,,,10,,,77,0
503040,note_on,,,,,0,0,12,,,,10,,,81,70
503040,note_on,,,,,1920,0,9,,,,5,,,65,0
503040,note_on,,,,,240,0,14,,,,12,,,74,0
503040,note_on,,,,,0,0,14,,,,12,,,65,0
503040,note_on,,,,,0,0,14,,,,12,,,72,63
503040,note_on,,,,,0,0,9,,,,5,,,64,63
503040,note_on,,,,,0,0,9,,,,5,,,60,63
503040,note_on,,,,,0,0,9,,,,5,,,62,0
503232,note_on,,,,,192,0,15,,,,13,,,45,0
503280,note_on,,,,,48,0,15,,,,13,,,52,70
503424,note_on,,,,,0,0,14,,,,12,,,64,0
503424,note_on,,,,,384,0,14,,,,12,,,72,0
503472,note_on,,,,,192,0,15,,,,13,,,52,0
503520,note_on,,,,,0,0,6,,,,3,,,45,63
503520,note_on,,,,,576,0,6,,,,3,,,52,63
503520,note_on,,,,,576,0,1,,,,0,,,76,63
503520,note_on,,,,,48,0,15,,,,13,,,57,70
503520,note_on,,,,,576,0,4,,,,2,,,64,63
503520,note_on,,,,,0,0,4,,,,2,,,60,63
503520,note_on,,,,,0,0,1,,,,0,,,72,63
503712,note_on,,,,,192,0,15,,,,13,,,57,0
503760,note_on,,,,,48,0,15,,,,13,,,60,70
503808,note_on,,,,,768,0,12,,,,10,,,81,0
503808,note_on,,,,,768,0,13,,,,11,,,69,0
503808,note_on,,,,,768,0,16,,,,14,,,33,0
503904,note_on,,,,,0,0,4,,,,2,,,64,0
503904,note_on,,,,,384,0,6,,,,3,,,45,0
503904,note_on,,,,,0,0,1,,,,0,,,76,0
503904,note_on,,,,,384,0,1,,,,0,,,72,0
503904,note_on,,,,,384,0,4,,,,2,,,60,0
503904,note_on,,,,,0,0,6,,,,3,,,52,0
503952,note_on,,,,,192,0,15,,,,13,,,60,0
504000,note_on,,,,,576,0,14,,,,12,,,60,63
504000,note_on,,,,,48,0,15,,,,13,,,52,70
504000,note_on,,,,,0,0,14,,,,12,,,57,63
504240,note_on,,,,,240,0,14,,,,12,,,57,0
504240,note_on,,,,,0,0,14,,,,12,,,60,0
504240,note_on,,,,,0,0,14,,,,12,,,64,63
504240,note_on,,,,,0,0,14,,,,12,,,60,63
504384,note_on,,,,,384,0,15,,,,13,,,52,0
504480,note_on,,,,,0,0,1,,,,0,,,81,63
504480,note_on,,,,,672,0,13,,,,11,,,72,63
504480,note_on,,,,,240,0,14,,,,12,,,60,0
504480,note_on,,,,,0,0,14,,,,12,,,64,0
504480,note_on,,,,,0,0,14,,,,12,,,64,63
504480,note_on,,,,,0,0,14,,,,12,,,69,63
504480,note_on,,,,,576,0,6,,,,3,,,57,63
504480,note_on,,,,,576,0,1,,,,0,,,72,63
504480,note_on,,,,,0,0,6,,,,3,,,60,63
504480,note_on,,,,,672,0,12,,,,10,,,84,70
504480,note_on,,,,,576,0,4,,,,2,,,60,63
504480,note_on,,,,,0,0,4,,,,2,,,69,63
504720,note_on,,,,,240,0,14,,,,12,,,69,0
504720,note_on,,,,,0,0,14,,,,12,,,64,0
504720,note_on,,,,,0,0,14,,,,12,,,72,63
504720,note_on,,,,,0,0,14,,,,12,,,69,63
504864,note_on,,,,,0,0,6,,,,3,,,57,0
504864,note_on,,,,,0,0,1,,,,0,,,72,0
504864,note_on,,,,,384,0,1,,,,0,,,81,0
504864,note_on,,,,,384,0,4,,,,2,,,69,0
504864,note_on,,,,,0,0,4,,,,2,,,60,0
504864,note_on,,,,,384,0,6,,,,3,,,60,0
504960,note_on,,,,,1152,0,16,,,,14,,,39,70
504960,note_on,,,,,576,0,15,,,,13,,,39,70
504960,note_on,,,,,480,0,13,,,,11,,,72,0
504960,note_on,,,,,0,0,9,,,,5,,,60,0
504960,note_on,,,,,0,0,14,,,,12,,,57,63
504960,note_on,,,,,0,0,14,,,,12,,,72,0
504960,note_on,,,,,240,0,14,,,,12,,,69,0
504960,set_tempo,,,,,7680,1,0,434783,,,,,,,
504960,note_on,,,,,0,0,12,,,,10,,,72,70
504960,note_on,,,,,480,0,12,,,,10,,,84,0
504960,note_on,,,,,0,0,13,,,,11,,,60,63
504960,note_on,,,,,0,0,14,,,,12,,,66,63
504960,note_on,,,,,1920,0,9,,,,5,,,64,0
505200,note_on,,,,,240,0,15,,,,13,,,39,0
505200,note_on,,,,,0,0,15,,,,13,,,48,70
505344,note_on,,,,,384,0,14,,,,12,,,66,0
505344,note_on,,,,,0,0,14,,,,12,,,57,0
505440,note_on,,,,,0,0,15,,,,13,,,54,70
505440,note_on,,,,,576,0,1,,,,0,,,81,63
505440,note_on,,,,,576,0,6,,,,3,,,51,63
505440,note_on,,,,,0,0,1,,,,0,,,78,63
505440,note_on,,,,,0,0,4,,,,2,,,66,63
505440,note_on,,,,,0,0,6,,,,3,,,57,63
505440,note_on,,,,,576,0,4,,,,2,,,69,63
505440,note_on,,,,,480,0,9,,,,5,,,60,63
505440,note_on,,,,,240,0,15,,,,13,,,48,0
505440,note_on,,,,,0,0,9,,,,5,,,48,63
505680,note_on,,,,,240,0,15,,,,13,,,54,0
505680,note_on,,,,,0,0,15,,,,13,,,57,70
505920,note_on,,,,,0,0,14,,,,12,,,57,63
505920,note_on,,,,,576,0,14,,,,12,,,54,63
505920,note_on,,,,,240,0,15,,,,13,,,57,0
505920,note_on,,,,,0,0,15,,,,13,,,48,70
506112,note_on,,,,,1152,0,16,,,,14,,,39,0
506160,note_on,,,,,0,0,14,,,,12,,,57,63
506160,note_on,,,,,0,0,14,,,,12,,,54,0
506160,note_on,,,,,240,0,14,,,,12,,,57,0
506160,note_on,,,,,0,0,12,,,,10,,,71,70
506160,note_on,,,,,0,0,14,,,,12,,,60,63
506160,note_on,,,,,1200,0,12,,,,10,,,72,0
506160,note_on,,,,,1200,0,13,,,,11,,,60,0
506160,note_on,,,,,0,0,13,,,,11,,,59,63
506208,note_on,,,,,768,0,1,,,,0,,,78,0
506208,note_on,,,,,768,0,9,,,,5,,,48,0
506208,note_on,,,,,768,0,6,,,,3,,,57,0
506208,note_on,,,,,0,0,1,,,,0,,,81,0
506208,note_on,,,,,0,0,6,,,,3,,,51,0
506208,note_on,,,,,0,0,9,,,,5,,,60,0
506208,note_on,,,,,768,0,4,,,,2,,,66,0
506208,note_on,,,,,0,0,4,,,,2,,,69,0
506304,note_on,,,,,384,0,15,,,,13,,,48,0
506400,note_on,,,,,0,0,13,,,,11,,,60,63
506400,note_on,,,,,192,0,9,,,,5,,,60,63
506400,note_on,,,,,192,0,6,,,,3,,,51,63
506400,note_on,,,,,0,0,6,,,,3,,,57,63
506400,note_on,,,,,240,0,13,,,,11,,,59,0
506400,note_on,,,,,192,0,1,,,,0,,,81,63
506400,note_on,,,,,0,0,4,,,,2,,,69,63
506400,note_on,,,,,192,0,4,,,,2,,,66,63
506400,note_on,,,,,240,0,14,,,,12,,,57,0
506400,note_on,,,,,0,0,14,,,,12,,,60,0
506400,note_on,,,,,0,0,14,,,,12,,,60,63
506400,note_on,,,,,0,0,14,,,,12,,,66,63
506400,note_on,,,,,288,0,16,,,,14,,,39,70
506400,note_on,,,,,0,0,12,,,,10,,,72,70
506400,note_on,,,,,240,0,12,,,,10,,,71,0
506400,note_on,,,,,0,0,1,,,,0,,,78,63
506400,note_on,,,,,0,0,9,,,,5,,,48,63
506640,note_on,,,,,240,0,14,,,,12,,,66,0
506640,note_on,,,,,0,0,14,,,,12,,,60,0
506640,note_on,,,,,0,0,14,,,,12,,,66,63
506640,note_on,,,,,0,0,14,,,,12,,,69,63
506640,note_on,,,,,0,0,13,,,,11,,,57,63
506640,note_on,,,,,240,0,13,,,,11,,,60,0
506640,note_on,,,,,240,0,12,,,,10,,,72,0
506640,note_on,,,,,0,0,12,,,,10,,,69,70
506784,note_on,,,,,0,0,9,,,,5,,,60,0
506784,note_on,,,,,384,0,9,,,,5,,,48,0
506784,note_on,,,,,0,0,4,,,,2,,,66,0
506784,note_on,,,,,0,0,6,,,,3,,,51,0
506784,note_on,,,,,384,0,6,,,,3,,,57,0
506784,note_on,,,,,384,0,16,,,,14,,,39,0
506784,note_on,,,,,384,0,4,,,,2,,,69,0
506784,note_on,,,,,0,0,1,,,,0,,,81,0
506784,note_on,,,,,384,0,1,,,,0,,,78,0
506868,note_on,,,,,228,0,13,,,,11,,,57,0
506868,note_on,,,,,228,0,12,,,,10,,,69,0
506880,note_on,,,,,12,0,12,,,,10,,,84,80
506880,note_on,,,,,0,0,14,,,,12,,,66,0
506880,note_on,,,,,96,0,16,,,,14,,,40,80
506880,note_on,,,,,576,0,15,,,,13,,,40,80
506880,note_on,,,,,12,0,13,,,,11,,,72,70
506880,note_on,,,,,0,0,14,,,,12,,,60,63
506880,note_on,,,,,240,0,14,,,,12,,,69,0
506880,note_on,,,,,0,0,14,,,,12,,,57,63
507120,note_on,,,,,240,0,15,,,,13,,,40,0
507120,note_on,,,,,0,0,15,,,,13,,,48,80
507264,note_on,,,,,384,0,14,,,,12,,,60,0
507264,note_on,,,,,0,0,14,,,,12,,,57,0
507360,note_on,,,,,576,0,1,,,,0,,,81,70
507360,note_on,,,,,240,0,15,,,,13,,,48,0
507360,note_on,,,,,0,0,15,,,,13,,,52,80
507360,note_on,,,,,576,0,6,,,,3,,,52,70
507360,note_on,,,,,0,0,6,,,,3,,,57,70
507360,note_on,,,,,576,0,4,,,,2,,,69,70
507360,note_on,,,,,0,0,9,,,,5,,,48,70
507360,note_on,,,,,0,0,4,,,,2,,,64,70
507360,note_on,,,,,0,0,1,,,,0,,,76,70
507360,note_on,,,,,576,0,9,,,,5,,,60,70
507600,note_on,,,,,240,0,15,,,,13,,,52,0
507600,note_on,,,,,0,0,15,,,,13,,,57,80
507840,note_on,,,,,240,0,15,,,,13,,,57,0
507840,note_on,,,,,0,0,15,,,,13,,,48,80
507840,note_on,,,,,576,0,14,,,,12,,,52,70
507840,note_on,,,,,0,0,14,,,,12,,,57,70
508032,note_on,,,,,1152,0,16,,,,14,,,40,0
508080,note_on,,,,,240,0,14,,,,12,,,57,0
508080,note_on,,,,,0,0,14,,,,12,,,52,0
508080,note_on,,,,,0,0,14,,,,12,,,60,70
508080,note_on,,,,,0,0,14,,,,12,,,57,70
508080,note_on,,,,,0,0,12,,,,10,,,81,80
508080,note_on,,,,,0,0,13,,,,11,,,69,70
508080,note_on,,,,,1200,0,12,,,,10,,,84,0
508080,note_on,,,,,1200,0,13,,,,11,,,72,0
508128,note_on,,,,,768,0,9,,,,5,,,48,0
508128,note_on,,,,,768,0,1,,,,0,,,76,0
508128,note_on,,,,,0,0,1,,,,0,,,81,0
508128,note_on,,,,,768,0,4,,,,2,,,64,0
508128,note_on,,,,,0,0,9,,,,5,,,60,0
508128,note_on,,,,,768,0,6,,,,3,,,57,0
508128,note_on,,,,,0,0,4,,,,2,,,69,0
508128,note_on,,,,,0,0,6,,,,3,,,52,0
508224,note_on,,,,,384,0,15,,,,13,,,48,0
508320,note_on,,,,,288,0,16,,,,14,,,40,80
508320,note_on,,,,,240,0,12,,,,10,,,81,0
508320,note_on,,,,,0,0,12,,,,10,,,76,80
508320,note_on,,,,,0,0,9,,,,5,,,48,70
508320,note_on,,,,,192,0,9,,,,5,,,60,70
508320,note_on,,,,,0,0,6,,,,3,,,57,70
508320,note_on,,,,,0,0,14,,,,12,,,60,0
508320,note_on,,,,,240,0,14,,,,12,,,57,0
508320,note_on,,,,,0,0,13,,,,11,,,64,70
508320,note_on,,,,,240,0,13,,,,11,,,69,0
508320,note_on,,,,,192,0,6,,,,3,,,52,70
508320,note_on,,,,,192,0,4,,,,2,,,69,70
508320,note_on,,,,,192,0,1,,,,0,,,81,70
508320,note_on,,,,,0,0,4,,,,2,,,60,70
508320,note_on,,,,,0,0,1,,,,0,,,72,70
508320,note_on,,,,,0,0,14,,,,12,,,64,70
508320,note_on,,,,,0,0,14,,,,12,,,60,70
508560,note_on,,,,,240,0,12,,,,10,,,76,0
508560,note_on,,,,,0,0,14,,,,12,,,64,0
508560,note_on,,,,,240,0,14,,,,12,,,60,0
508560,note_on,,,,,0,0,13,,,,11,,,62,70
508560,note_on,,,,,0,0,12,,,,10,,,74,80
508560,note_on,,,,,0,0,14,,,,12,,,64,70
508560,note_on,,,,,0,0,14,,,,12,,,69,70
508560,note_on,,,,,240,0,13,,,,11,,,64,0
508704,note_on,,,,,384,0,4,,,,2,,,60,0
508704,note_on,,,,,384,0,6,,,,3,,,57,0
508704,note_on,,,,,0,0,1,,,,0,,,81,0
508704,note_on,,,,,384,0,1,,,,0,,,72,0
508704,note_on,,,,,0,0,9,,,,5,,,60,0
508704,note_on,,,,,0,0,6,,,,3,,,52,0
508704,note_on,,,,,384,0,16,,,,14,,,40,0
508704,note_on,,,,,384,0,9,,,,5,,,48,0
508704,note_on,,,,,0,0,4,,,,2,,,69,0
508788,note_on,,,,,228,0,13,,,,11,,,62,0
508788,note_on,,,,,228,0,12,,,,10,,,74,0
508800,note_on,,,,,12,0,12,,,,10,,,72,92
508800,note_on,,,,,240,0,14,,,,12,,,64,0
508800,note_on,,,,,0,0,14,,,,12,,,60,70
508800,note_on,,,,,0,0,14,,,,12,,,57,70
508800,note_on,,,,,12,0,13,,,,11,,,60,80
508800,note_on,,,,,96,0,16,,,,14,,,41,92
508800,note_on,,,,,0,0,14,,,,12,,,69,0
508800,note_on,,,,,576,0,15,,,,13,,,41,92
509040,note_on,,,,,0,0,15,,,,13,,,48,92
509040,note_on,,,,,240,0,15,,,,13,,,41,0
509184,note_on,,,,,0,0,14,,,,12,,,57,0
509184,note_on,,,,,384,0,14,,,,12,,,60,0
509280,note_on,,,,,576,0,4,,,,2,,,69,80
509280,note_on,,,,,0,0,1,,,,0,,,81,80
509280,note_on,,,,,576,0,1,,,,0,,,75,80
509280,note_on,,,,,0,0,4,,,,2,,,63,80
509280,note_on,,,,,576,0,9,,,,5,,,48,80
509280,note_on,,,,,240,0,15,,,,13,,,48,0
509280,note_on,,,,,0,0,6,,,,3,,,53,80
509280,note_on,,,,,0,0,9,,,,5,,,60,80
509280,note_on,,,,,0,0,15,,,,13,,,53,92
509280,note_on,,,,,576,0,6,,,,3,,,57,80
509520,note_on,,,,,240,0,15,,,,13,,,53,0
509520,note_on,,,,,0,0,15,,,,13,,,57,92
509760,note_on,,,,,0,0,15,,,,13,,,48,92
509760,note_on,,,,,576,0,14,,,,12,,,51,80
509760,note_on,,,,,240,0,15,,,,13,,,57,0
509760,note_on,,,,,0,0,14,,,,12,,,57,80
509952,note_on,,,,,1152,0,16,,,,14,,,41,0
510000,note_on,,,,,1200,0,12,,,,10,,,72,0
510000,note_on,,,,,0,0,13,,,,11,,,59,80
510000,note_on,,,,,0,0,12,,,,10,,,71,92
510000,note_on,,,,,1200,0,13,,,,11,,,60,0
510000,note_on,,,,,0,0,14,,,,12,,,57,80
510000,note_on,,,,,240,0,14,,,,12,,,57,0
510000,note_on,,,,,0,0,14,,,,12,,,51,0
510000,note_on,,,,,0,0,14,,,,12,,,60,80
510048,note_on,,,,,768,0,6,,,,3,,,53,0
510048,note_on,,,,,0,0,4,,,,2,,,69,0
510048,note_on,,,,,768,0,4,,,,2,,,63,0
510048,note_on,,,,,768,0,9,,,,5,,,60,0
510048,note_on,,,,,0,0,9,,,,5,,,48,0
510048,note_on,,,,,768,0,1,,,,0,,,81,0
510048,note_on,,,,,0,0,1,,,,0,,,75,0
510048,note_on,,,,,0,0,6,,,,3,,,57,0
510144,note_on,,,,,384,0,15,,,,13,,,48,0
510240,note_on,,,,,0,0,13,,,,11,,,60,92
510240,note_on,,,,,240,0,13,,,,11,,,59,0
510240,note_on,,,,,192,0,9,,,,5,,,60,80
510240,note_on,,,,,192,0,6,,,,3,,,53,80
510240,note_on,,,,,0,0,6,,,,3,,,57,80
510240,note_on,,,,,0,0,1,,,,0,,,75,80
510240,note_on,,,,,0,0,9,,,,5,,,48,80
510240,note_on,,,,,240,0,12,,,,10,,,71,0
510240,note_on,,,,,0,0,12,,,,10,,,72,105
510240,note_on,,,,,192,0,1,,,,0,,,81,80
510240,note_on,,,,,240,0,14,,,,12,,,57,0
510240,note_on,,,,,288,0,16,,,,14,,,41,105
510240,note_on,,,,,0,0,4,,,,2,,,63,80
510240,note_on,,,,,192,0,4,,,,2,,,69,80
510240,note_on,,,,,0,0,14,,,,12,,,63,80
510240,note_on,,,,,0,0,14,,,,12,,,60,80
510240,note_on,,,,,0,0,14,,,,12,,,60,0
510480,note_on,,,,,0,0,13,,,,11,,,57,92
510480,note_on,,,,,0,0,12,,,,10,,,69,105
510480,note_on,,,,,240,0,14,,,,12,,,63,0
510480,note_on,,,,,240,0,12,,,,10,,,72,0
510480,note_on,,,,,0,0,14,,,,12,,,69,80
510480,note_on,,,,,0,0,14,,,,12,,,63,80
510480,note_on,,,,,0,0,14,,,,12,,,60,0
510480,note_on,,,,,240,0,13,,,,11,,,60,0
510624,note_on,,,,,0,0,9,,,,5,,,60,0
510624,note_on,,,,,0,0,4,,,,2,,,69,0
510624,note_on,,,,,384,0,16,,,,14,,,41,0
510624,note_on,,,,,384,0,9,,,,5,,,48,0
510624,note_on,,,,,0,0,1,,,,0,,,81,0
510624,note_on,,,,,384,0,1,,,,0,,,75,0
510624,note_on,,,,,0,0,6,,,,3,,,53,0
510624,note_on,,,,,384,0,4,,,,2,,,63,0
510624,note_on,,,,,384,0,6,,,,3,,,57,0
510708,note_on,,,,,228,0,13,,,,11,,,57,0
510708,note_on,,,,,228,0,12,,,,10,,,69,0
510720,note_on,,,,,576,0,15,,,,13,,,42,105
510720,note_on,,,,,0,0,14,,,,12,,,60,92
510720,note_on,,,,,240,0,14,,,,12,,,63,0
510720,note_on,,,,,0,0,14,,,,12,,,57,92
510720,note_on,,,,,0,0,14,,,,12,,,69,0
510720,note_on,,,,,12,0,12,,,,10,,,84,125
510720,note_on,,,,,12,0,13,,,,11,,,72,92
510720,note_on,,,,,96,0,16,,,,14,,,42,105
510960,note_on,,,,,0,0,15,,,,13,,,48,105
510960,note_on,,,,,240,0,15,,,,13,,,42,0
511104,note_on,,,,,0,0,14,,,,12,,,57,0
511104,note_on,,,,,384,0,14,,,,12,,,60,0
511200,note_on,,,,,576,0,9,,,,5,,,48,92
511200,note_on,,,,,0,0,15,,,,13,,,51,105
511200,note_on,,,,,240,0,15,,,,13,,,48,0
511200,note_on,,,,,576,0,1,,,,0,,,81,92
511200,note_on,,,,,0,0,1,,,,0,,,75,92
511200,note_on,,,,,0,0,9,,,,5,,,60,92
511200,note_on,,,,,0,0,4,,,,2,,,69,92
511200,note_on,,,,,576,0,6,,,,3,,,57,92
511200,note_on,,,,,0,0,6,,,,3,,,54,92
511200,note_on,,,,,576,0,4,,,,2,,,75,92
511440,note_on,,,,,240,0,15,,,,13,,,51,0
511440,note_on,,,,,0,0,15,,,,13,,,57,105
511680,note_on,,,,,0,0,14,,,,12,,,57,92
511680,note_on,,,,,240,0,15,,,,13,,,57,0
511680,note_on,,,,,0,0,15,,,,13,,,48,70
511680,note_on,,,,,576,0,14,,,,12,,,51,92
511872,note_on,,,,,1152,0,16,,,,14,,,42,0
511920,note_on,,,,,0,0,14,,,,12,,,60,80
511920,note_on,,,,,0,0,12,,,,10,,,81,105
511920,note_on,,,,,1200,0,12,,,,10,,,84,0
511920,note_on,,,,,1200,0,13,,,,11,,,72,0
511920,note_on,,,,,0,0,14,,,,12,,,57,80
511920,note_on,,,,,0,0,14,,,,12,,,51,0
511920,note_on,,,,,240,0,14,,,,12,,,57,0
511920,note_on,,,,,0,0,13,,,,11,,,69,70
511968,note_on,,,,,768,0,9,,,,5,,,60,0
511968,note_on,,,,,0,0,6,,,,3,,,57,0
511968,note_on,,,,,768,0,6,,,,3,,,54,0
511968,note_on,,,,,0,0,9,,,,5,,,48,0
511968,note_on,,,,,0,0,1,,,,0,,,81,0
511968,note_on,,,,,768,0,4,,,,2,,,69,0
511968,note_on,,,,,768,0,1,,,,0,,,75,0
511968,note_on,,,,,0,0,4,,,,2,,,75,0
512064,note_on,,,,,384,0,15,,,,13,,,48,0
512160,note_on,,,,,192,0,1,,,,0,,,84,92
512160,note_on,,,,,0,0,14,,,,12,,,63,80
512160,note_on,,,,,0,0,14,,,,12,,,57,0
512160,note_on,,,,,288,0,16,,,,14,,,42,63
512160,note_on,,,,,192,0,6,,,,3,,,54,63
512160,note_on,,,,,240,0,14,,,,12,,,60,0
512160,note_on,,,,,0,0,9,,,,5,,,60,63
512160,note_on,,,,,192,0,9,,,,5,,,48,92
512160,note_on,,,,,0,0,4,,,,2,,,72,63
512160,note_on,,,,,0,0,13,,,,11,,,63,63
512160,note_on,,,,,240,0,13,,,,11,,,69,0
512160,note_on,,,,,192,0,4,,,,2,,,69,92
512160,note_on,,,,,240,0,12,,,,10,,,81,0
512160,note_on,,,,,0,0,12,,,,10,,,75,80
512160,note_on,,,,,0,0,1,,,,0,,,75,63
512160,note_on,,,,,0,0,14,,,,12,,,60,80
512160,note_on,,,,,0,0,6,,,,3,,,57,63
512400,note_on,,,,,0,0,14,,,,12,,,63,0
512400,note_on,,,,,240,0,14,,,,12,,,60,0
512400,note_on,,,,,240,0,12,,,,10,,,75,0
512400,note_on,,,,,0,0,12,,,,10,,,74,70
512400,note_on,,,,,0,0,14,,,,12,,,63,63
512400,note_on,,,,,0,0,14,,,,12,,,69,63
512544,note_on,,,,,384,0,9,,,,5,,,60,0
512544,note_on,,,,,0,0,6,,,,3,,,54,0
512544,note_on,,,,,384,0,16,,,,14,,,42,0
512544,note_on,,,,,0,0,9,,,,5,,,48,0
512544,note_on,,,,,384,0,4,,,,2,,,72,0
512544,note_on,,,,,0,0,1,,,,0,,,84,0
512544,note_on,,,,,384,0,1,,,,0,,,75,0
512544,note_on,,,,,384,0,6,,,,3,,,57,0
512544,note_on,,,,,0,0,4,,,,2,,,69,0
512616,note_on,,,,,456,0,13,,,,11,,,63,0
512628,note_on,,,,,228,0,12,,,,10,,,74,0
512640,note_on,,,,,576,0,15,,,,13,,,43,70
512640,note_on,,,,,0,0,14,,,,12,,,64,63
512640,note_on,,,,,0,0,14,,,,12,,,60,63
512640,note_on,,,,,0,0,14,,,,12,,,63,0
512640,note_on,,,,,240,0,14,,,,12,,,69,0
512640,note_on,,,,,12,0,12,,,,10,,,72,70
512640,note_on,,,,,96,0,16,,,,14,,,43,70
512640,note_on,,,,,24,0,13,,,,11,,,64,63
512880,note_on,,,,,240,0,15,,,,13,,,43,0
512880,note_on,,,,,0,0,15,,,,13,,,52,70
513024,note_on,,,,,384,0,13,,,,11,,,64,0
513024,note_on,,,,,384,0,14,,,,12,,,64,0
513024,note_on,,,,,384,0,12,,,,10,,,72,0
513024,note_on,,,,,384,0,16,,,,14,,,43,0
513024,note_on,,,,,0,0,14,,,,12,,,60,0
513120,note_on,,,,,0,0,14,,,,12,,,64,63
513120,note_on,,,,,576,0,9,,,,5,,,67,63
513120,note_on,,,,,96,0,14,,,,12,,,67,63
513120,note_on,,,,,576,0,4,,,,2,,,76,63
513120,note_on,,,,,0,0,4,,,,2,,,72,63
513120,note_on,,,,,0,0,15,,,,13,,,60,70
513120,note_on,,,,,240,0,15,,,,13,,,52,0
513120,note_on,,,,,0,0,1,,,,0,,,84,63
513120,note_on,,,,,0,0,9,,,,5,,,64,63
513120,note_on,,,,,576,0,1,,,,0,,,76,63
513120,note_on,,,,,576,0,6,,,,3,,,55,63
513360,note_on,,,,,336,0,13,,,,11,,,72,63
513360,note_on,,,,,0,0,14,,,,12,,,55,63
513360,note_on,,,,,0,0,14,,,,12,,,60,63
513360,note_on,,,,,0,0,14,,,,12,,,67,0
513360,note_on,,,,,336,0,12,,,,10,,,76,70
513360,note_on,,,,,240,0,14,,,,12,,,64,0
513360,note_on,,,,,240,0,15,,,,13,,,60,0
513504,note_on,,,,,384,0,6,,,,3,,,55,0
513504,note_on,,,,,0,0,4,,,,2,,,76,0
513504,note_on,,,,,384,0,1,,,,0,,,84,0
513504,note_on,,,,,384,0,4,,,,2,,,72,0
513504,note_on,,,,,0,0,9,,,,5,,,67,0
513504,note_on,,,,,0,0,1,,,,0,,,76,0
513504,note_on,,,,,384,0,9,,,,5,,,64,0
513600,note_on,,,,,0,0,12,,,,10,,,71,70
513600,note_on,,,,,0,0,13,,,,11,,,65,63
513600,note_on,,,,,240,0,13,,,,11,,,72,0
513600,note_on,,,,,576,0,16,,,,14,,,44,70
513600,note_on,,,,,240,0,14,,,,12,,,60,0
513600,note_on,,,,,240,0,15,,,,13,,,44,70
513600,note_on,,,,,0,0,14,,,,12,,,55,0
513600,note_on,,,,,0,0,14,,,,12,,,65,63
513600,note_on,,,,,0,0,14,,,,12,,,62,63
513600,note_on,,,,,240,0,12,,,,10,,,76,0
513840,note_on,,,,,0,0,15,,,,13,,,53,70
513840,note_on,,,,,240,0,15,,,,13,,,44,0
513984,note_on,,,,,0,0,14,,,,12,,,65,0
513984,note_on,,,,,384,0,14,,,,12,,,62,0
513984,note_on,,,,,384,0,13,,,,11,,,65,0
513984,note_on,,,,,384,0,12,,,,10,,,71,0
513984,note_on,,,,,384,0,16,,,,14,,,44,0
514080,note_on,,,,,0,0,15,,,,13,,,59,70
514080,note_on,,,,,576,0,9,,,,5,,,65,63
514080,note_on,,,,,576,0,6,,,,3,,,56,63
514080,note_on,,,,,0,0,9,,,,5,,,62,63
514080,note_on,,,,,240,0,15,,,,13,,,53,0
514080,note_on,,,,,0,0,4,,,,2,,,77,63
514080,note_on,,,,,0,0,1,,,,0,,,74,63
514080,note_on,,,,,576,0,1,,,,0,,,83,63
514080,note_on,,,,,576,0,4,,,,2,,,71,63
514320,note_on,,,,,0,0,14,,,,12,,,59,63
514320,note_on,,,,,336,0,12,,,,10,,,74,70
514320,note_on,,,,,336,0,13,,,,11,,,71,63
514320,note_on,,,,,336,0,14,,,,12,,,53,63
514320,note_on,,,,,240,0,15,,,,13,,,59,0
514464,note_on,,,,,384,0,6,,,,3,,,56,0
514464,note_on,,,,,384,0,9,,,,5,,,62,0
514464,note_on,,,,,384,0,4,,,,2,,,77,0
514464,note_on,,,,,0,0,1,,,,0,,,83,0
514464,note_on,,,,,0,0,4,,,,2,,,71,0
514464,note_on,,,,,0,0,9,,,,5,,,65,0
514464,note_on,,,,,384,0,1,,,,0,,,74,0
514560,note_on,,,,,240,0,15,,,,13,,,45,70
514560,note_on,,,,,0,0,12,,,,10,,,69,70
514560,note_on,,,,,240,0,13,,,,11,,,71,0
514560,note_on,,,,,0,0,13,,,,11,,,64,63
514560,note_on,,,,,576,0,16,,,,14,,,45,70
514560,note_on,,,,,240,0,12,,,,10,,,74,0
514560,note_on,,,,,0,0,14,,,,12,,,64,63
514560,note_on,,,,,0,0,14,,,,12,,,60,63
514560,note_on,,,,,0,0,14,,,,12,,,53,0
514560,note_on,,,,,240,0,14,,,,12,,,59,0
514800,note_on,,,,,0,0,15,,,,13,,,52,70
514800,note_on,,,,,240,0,15,,,,13,,,45,0
514944,note_on,,,,,384,0,16,,,,14,,,45,0
514944,note_on,,,,,384,0,14,,,,12,,,64,0
514944,note_on,,,,,384,0,13,,,,11,,,64,0
514944,note_on,,,,,384,0,12,,,,10,,,69,0
514944,note_on,,,,,0,0,14,,,,12,,,60,0
515040,note_on,,,,,576,0,4,,,,2,,,72,63
515040,note_on,,,,,240,0,15,,,,13,,,52,0
515040,note_on,,,,,0,0,9,,,,5,,,60,63
515040,note_on,,,,,576,0,9,,,,5,,,64,63
515040,note_on,,,,,0,0,15,,,,13,,,60,70
515040,note_on,,,,,576,0,1,,,,0,,,72,63
515040,note_on,,,,,0,0,4,,,,2,,,69,63
515040,note_on,,,,,0,0,1,,,,0,,,81,63
515040,note_on,,,,,576,0,6,,,,3,,,57,63
515280,note_on,,,,,0,0,14,,,,12,,,52,63
515280,note_on,,,,,240,0,15,,,,13,,,60,0
515280,note_on,,,,,336,0,12,,,,10,,,72,70
515280,note_on,,,,,336,0,13,,,,11,,,69,63
515280,note_on,,,,,336,0,14,,,,12,,,57,63
515424,note_on,,,,,384,0,1,,,,0,,,81,0
515424,note_on,,,,,0,0,1,,,,0,,,72,0
515424,note_on,,,,,0,0,4,,,,2,,,72,0
515424,note_on,,,,,384,0,4,,,,2,,,69,0
515424,note_on,,,,,0,0,9,,,,5,,,64,0
515424,note_on,,,,,384,0,6,,,,3,,,57,0
515424,note_on,,,,,384,0,9,,,,5,,,60,0
515520,note_on,,,,,0,0,14,,,,12,,,59,63
515520,note_on,,,,,576,0,16,,,,14,,,35,70
515520,note_on,,,,,0,0,13,,,,11,,,62,63
515520,note_on,,,,,240,0,13,,,,11,,,69,0
515520,note_on,,,,,0,0,14,,,,12,,,62,63
515520,note_on,,,,,0,0,14,,,,12,,,57,0
515520,note_on,,,,,240,0,14,,,,12,,,52,0
515520,note_on,,,,,240,0,12,,,,10,,,72,0
515520,note_on,,,,,0,0,12,,,,10,,,68,70
515520,note_on,,,,,240,0,15,,,,13,,,47,70
515760,note_on,,,,,0,0,15,,,,13,,,50,70
515760,note_on,,,,,240,0,15,,,,13,,,47,0
515904,note_on,,,,,384,0,14,,,,12,,,62,0
515904,note_on,,,,,384,0,13,,,,11,,,62,0
515904,note_on,,,,,384,0,16,,,,14,,,35,0
515904,note_on,,,,,384,0,12,,,,10,,,68,0
515904,note_on,,,,,0,0,14,,,,12,,,59,0
516000,note_on,,,,,576,0,6,,,,3,,,56,63
516000,note_on,,,,,576,0,1,,,,0,,,80,63
516000,note_on,,,,,0,0,6,,,,3,,,47,63
516000,note_on,,,,,0,0,1,,,,0,,,74,63
516000,note_on,,,,,0,0,15,,,,13,,,56,70
516000,note_on,,,,,0,0,9,,,,5,,,62,63
516000,note_on,,,,,576,0,9,,,,5,,,59,63
516000,note_on,,,,,240,0,15,,,,13,,,50,0
516000,note_on,,,,,576,0,4,,,,2,,,68,63
516000,note_on,,,,,0,0,4,,,,2,,,74,63
516240,note_on,,,,,336,0,13,,,,11,,,68,63
516240,note_on,,,,,240,0,15,,,,13,,,56,0
516240,note_on,,,,,336,0,14,,,,12,,,50,63
516240,note_on,,,,,336,0,12,,,,10,,,71,70
516384,note_on,,,,,0,0,6,,,,3,,,56,0
516384,note_on,,,,,384,0,1,,,,0,,,74,0
516384,note_on,,,,,0,0,1,,,,0,,,80,0
516384,note_on,,,,,384,0,6,,,,3,,,47,0
516384,note_on,,,,,384,0,4,,,,2,,,74,0
516384,note_on,,,,,0,0,4,,,,2,,,68,0
516384,note_on,,,,,0,0,9,,,,5,,,59,0
516384,note_on,,,,,384,0,9,,,,5,,,62,0
516480,note_on,,,,,576,0,16,,,,14,,,36,70
516480,note_on,,,,,240,0,15,,,,13,,,48,70
516480,note_on,,,,,120576,0,7,,,,3,,,48,63
516480,note_on,,,,,71078,0,2,,,,0,,,76,63
516480,note_on,,,,,59616,0,5,,,,2,,,64,63
516480,note_on,,,,,96,0,6,,,,3,,,57,63
516480,note_on,,,,,0,0,13,,,,11,,,64,63
516480,note_on,,,,,240,0,12,,,,10,,,71,0
516480,note_on,,,,,0,0,14,,,,12,,,52,63
516480,note_on,,,,,96,0,1,,,,0,,,81,63
516480,note_on,,,,,0,0,8,,,,4,,,64,63
516480,note_on,,,,,0,0,12,,,,10,,,69,70
516480,note_on,,,,,96,0,4,,,,2,,,69,63
516480,note_on,,,,,240,0,14,,,,12,,,50,0
516480,note_on,,,,,20736,0,8,,,,4,,,52,63
516480,note_on,,,,,240,0,13,,,,11,,,68,0
516720,note_on,,,,,0,0,14,,,,12,,,48,65
516720,note_on,,,,,240,0,14,,,,12,,,52,0
516960,note_on,,,,,0,0,12,,,,10,,,67,75
516960,note_on,,,,,0,0,14,,,,12,,,52,68
516960,note_on,,,,,480,0,12,,,,10,,,69,0
516960,note_on,,,,,240,0,14,,,,12,,,48,0
517200,note_on,,,,,0,0,14,,,,12,,,57,71
517200,note_on,,,,,240,0,14,,,,12,,,52,0
517420,note_on,,,,,940,0,1,,,,0,,,81,0
517420,note_on,,,,,940,0,4,,,,2,,,69,0
517440,note_on,,,,,20,0,1,,,,0,,,82,70
517440,note_on,,,,,960,0,6,,,,3,,,57,0
517440,note_on,,,,,0,0,14,,,,12,,,58,73
517440,note_on,,,,,0,0,14,,,,12,,,52,73
517440,note_on,,,,,0,0,6,,,,3,,,58,70
517440,note_on,,,,,0,0,12,,,,10,,,66,80
517440,note_on,,,,,480,0,12,,,,10,,,67,0
517440,note_on,,,,,240,0,14,,,,12,,,57,0
517440,note_on,,,,,20,0,4,,,,2,,,70,70
517440,note_on,,,,,960,0,13,,,,11,,,64,0
517440,note_on,,,,,0,0,13,,,,11,,,58,73
517632,note_on,,,,,1152,0,16,,,,14,,,36,0
517632,note_on,,,,,1152,0,15,,,,13,,,48,0
517920,note_on,,,,,480,0,12,,,,10,,,66,0
517920,note_on,,,,,0,0,12,,,,10,,,64,85
517920,note_on,,,,,288,0,15,,,,13,,,48,85
517920,note_on,,,,,288,0,16,,,,14,,,36,85
518380,note_on,,,,,940,0,13,,,,11,,,58,0
518380,note_on,,,,,0,0,14,,,,12,,,58,0
518380,note_on,,,,,940,0,14,,,,12,,,52,0
518390,note_on,,,,,470,0,15,,,,13,,,48,0
518390,note_on,,,,,470,0,12,,,,10,,,64,0
518390,note_on,,,,,470,0,16,,,,14,,,36,0
518400,note_on,,,,,0,0,6,,,,3,,,61,80
518400,note_on,,,,,960,0,6,,,,3,,,58,0
518400,note_on,,,,,10,0,16,,,,14,,,30,90
518400,note_on,,,,,1920,0,7,,,,3,,,48,0
518400,note_on,,,,,0,0,7,,,,3,,,42,70
518400,note_on,,,,,20,0,14,,,,12,,,52,84
518400,note_on,,,,,10,0,12,,,,10,,,70,90
518400,note_on,,,,,10,0,15,,,,13,,,42,90
518400,note_on,,,,,20,0,13,,,,11,,,61,84
518640,note_on,,,,,0,0,14,,,,12,,,49,87
518640,note_on,,,,,240,0,14,,,,12,,,52,0
518880,note_on,,,,,0,0,12,,,,10,,,67,95
518880,note_on,,,,,0,0,14,,,,12,,,52,89
518880,note_on,,,,,240,0,14,,,,12,,,49,0
518880,note_on,,,,,480,0,12,,,,10,,,70,0
519120,note_on,,,,,240,0,14,,,,12,,,52,0
519120,note_on,,,,,0,0,14,,,,12,,,58,92
519360,note_on,,,,,960,0,13,,,,11,,,61,0
519360,note_on,,,,,0,0,12,,,,10,,,66,100
519360,note_on,,,,,480,0,12,,,,10,,,67,0
519360,note_on,,,,,1920,0,4,,,,2,,,70,0
519360,note_on,,,,,1920,0,1,,,,0,,,82,0
519360,note_on,,,,,0,0,6,,,,3,,,58,92
519360,note_on,,,,,0,0,1,,,,0,,,85,80
519360,note_on,,,,,960,0,6,,,,3,,,61,0
519360,note_on,,,,,0,0,4,,,,2,,,73,80
519360,note_on,,,,,0,0,14,,,,12,,,61,95
519360,note_on,,,,,0,0,14,,,,12,,,52,95
519360,note_on,,,,,240,0,14,,,,12,,,58,0
519360,note_on,,,,,0,0,13,,,,11,,,58,95
519552,note_on,,,,,1152,0,15,,,,13,,,42,0
519552,note_on,,,,,1152,0,16,,,,14,,,30,0
519840,note_on,,,,,0,0,12,,,,10,,,64,106
519840,note_on,,,,,480,0,12,,,,10,,,66,0
519840,note_on,,,,,288,0,16,,,,14,,,30,106
519840,note_on,,,,,288,0,15,,,,13,,,42,106
520282,note_on,,,,,1882,0,7,,,,3,,,42,0
520282,note_on,,,,,0,0,8,,,,4,,,52,0
520282,note_on,,,,,3802,0,8,,,,4,,,64,0
520282,note_on,,,,,3802,0,5,,,,2,,,64,0
520282,note_on,,,,,3802,0,2,,,,0,,,76,0
520300,note_on,,,,,940,0,4,,,,2,,,73,0
520300,note_on,,,,,940,0,14,,,,12,,,52,0
520300,note_on,,,,,940,0,1,,,,0,,,85,0
520300,note_on,,,,,940,0,6,,,,3,,,58,0
520300,note_on,,,,,0,0,14,,,,12,,,61,0
520310,note_on,,,,,470,0,12,,,,10,,,64,0
520310,note_on,,,,,470,0,16,,,,14,,,30,0
520310,note_on,,,,,470,0,15,,,,13,,,42,0
520320,note_on,,,,,0,0,9,,,,5,,,64,92
520320,note_on,,,,,38,0,8,,,,4,,,47,92
520320,note_on,,,,,0,0,8,,,,4,,,59,92
520320,note_on,,,,,0,0,1,,,,0,,,79,92
520320,note_on,,,,,20,0,1,,,,0,,,76,92
520320,note_on,,,,,20,0,6,,,,3,,,64,92
520320,note_on,,,,,10,0,15,,,,13,,,47,105
520320,note_on,,,,,10,0,16,,,,14,,,35,105
520320,note_on,,,,,960,0,13,,,,11,,,58,0
520320,note_on,,,,,0,0,13,,,,11,,,59,92
520320,note_on,,,,,20,0,14,,,,12,,,55,92
520320,note_on,,,,,38,0,7,,,,3,,,55,92
520320,note_on,,,,,20,0,4,,,,2,,,67,92
520320,note_on,,,,,10,0,12,,,,10,,,59,116
520320,note_on,,,,,3936,0,9,,,,5,,,67,92
520320,note_on,,,,,0,0,4,,,,2,,,71,92
520560,note_on,,,,,0,0,13,,,,11,,,55,92
520560,note_on,,,,,240,0,13,,,,11,,,59,0
520560,note_on,,,,,240,0,14,,,,12,,,55,0
520560,note_on,,,,,0,0,14,,,,12,,,52,92
520800,note_on,,,,,240,0,13,,,,11,,,55,0
520800,set_tempo,,,,,15840,1,0,444444,,,,,,,
520800,note_on,,,,,240,0,14,,,,12,,,52,0
520800,note_on,,,,,0,0,14,,,,12,,,55,92
520800,note_on,,,,,0,0,13,,,,11,,,59,92
521040,note_on,,,,,720,0,12,,,,10,,,59,0
521040,note_on,,,,,0,0,12,,,,10,,,71,116
521040,note_on,,,,,0,0,14,,,,12,,,59,92
521040,note_on,,,,,240,0,13,,,,11,,,59,0
521040,note_on,,,,,240,0,14,,,,12,,,55,0
521040,note_on,,,,,0,0,13,,,,11,,,64,92
521088,note_on,,,,,768,0,15,,,,13,,,47,0
521088,note_on,,,,,768,0,16,,,,14,,,35,0
521232,note_on,,,,,192,0,14,,,,12,,,59,0
521232,note_on,,,,,192,0,13,,,,11,,,64,0
521268,note_on,,,,,228,0,12,,,,10,,,71,0
521280,note_on,,,,,25536,0,3,,,,1,,,71,105
521280,note_on,,,,,192,0,15,,,,13,,,47,105
521280,note_on,,,,,48,0,14,,,,12,,,64,92
521280,set_tempo,,,,,480,1,0,454545,,,,,,,
521280,note_on,,,,,12,0,12,,,,10,,,71,116
521280,note_on,,,,,48,0,13,,,,11,,,67,92
521280,note_on,,,,,192,0,16,,,,14,,,35,105
521520,note_on,,,,,0,0,14,,,,12,,,59,92
521520,note_on,,,,,240,0,14,,,,12,,,64,0
521520,note_on,,,,,240,0,13,,,,11,,,67,0
521520,note_on,,,,,0,0,13,,,,11,,,64,92
521760,note_on,,,,,0,0,13,,,,11,,,67,92
521760,note_on,,,,,240,0,13,,,,11,,,64,0
521760,note_on,,,,,240,0,14,,,,12,,,59,0
521760,note_on,,,,,0,0,14,,,,12,,,64,92
521760,set_tempo,,,,,480,1,0,461538,,,,,,,
521856,note_on,,,,,1536,0,7,,,,3,,,55,0
522000,note_on,,,,,0,0,3,,,,1,,,83,105
522000,note_on,,,,,720,0,3,,,,1,,,71,0
522000,note_on,,,,,0,0,14,,,,12,,,67,92
522000,note_on,,,,,240,0,14,,,,12,,,64,0
522000,note_on,,,,,240,0,13,,,,11,,,67,0
522000,note_on,,,,,0,0,13,,,,11,,,71,92
522048,note_on,,,,,768,0,16,,,,14,,,35,0
522048,note_on,,,,,768,0,15,,,,13,,,47,0
522192,note_on,,,,,192,0,14,,,,12,,,67,0
522192,note_on,,,,,192,0,13,,,,11,,,71,0
522240,note_on,,,,,240,0,3,,,,1,,,83,0
522240,note_on,,,,,384,0,7,,,,3,,,59,80
522240,note_on,,,,,0,0,9,,,,5,,,66,63
522240,note_on,,,,,192,0,15,,,,13,,,59,92
522240,note_on,,,,,0,0,6,,,,3,,,66,80
522240,set_tempo,,,,,480,1,0,472441,,,,,,,
522240,note_on,,,,,1920,0,1,,,,0,,,79,0
522240,note_on,,,,,0,0,1,,,,0,,,76,0
522240,note_on,,,,,0,0,1,,,,0,,,69,70
522240,note_on,,,,,0,0,1,,,,0,,,75,70
522240,note_on,,,,,192,0,16,,,,14,,,47,92
522240,note_on,,,,,1920,0,6,,,,3,,,64,0
522240,note_on,,,,,48,0,14,,,,12,,,66,80
522240,note_on,,,,,0,0,3,,,,1,,,84,105
522240,note_on,,,,,0,0,4,,,,2,,,75,92
522240,note_on,,,,,0,0,9,,,,5,,,63,63
522240,note_on,,,,,0,0,9,,,,5,,,67,0
522240,note_on,,,,,1920,0,4,,,,2,,,71,0
522240,note_on,,,,,0,0,4,,,,2,,,67,0
522240,note_on,,,,,1920,0,9,,,,5,,,64,0
522240,note_on,,,,,48,0,13,,,,11,,,63,80
522240,note_on,,,,,0,0,4,,,,2,,,69,92
522624,note_on,,,,,0,0,4,,,,2,,,69,0
522624,note_on,,,,,384,0,15,,,,13,,,59,0
522624,note_on,,,,,384,0,13,,,,11,,,63,0
522624,note_on,,,,,0,0,9,,,,5,,,63,0
522624,note_on,,,,,384,0,4,,,,2,,,75,0
522624,note_on,,,,,384,0,9,,,,5,,,66,0
522624,note_on,,,,,384,0,16,,,,14,,,47,0
522624,note_on,,,,,384,0,14,,,,12,,,66,0
522696,note_on,,,,,1416,0,12,,,,10,,,71,0
522720,set_tempo,,,,,480,1,0,483871,,,,,,,
522720,note_on,,,,,24,0,12,,,,10,,,69,116
523080,note_on,,,,,360,0,12,,,,10,,,69,0
523080,note_on,,,,,0,0,12,,,,10,,,71,92
523140,note_on,,,,,0,0,12,,,,10,,,69,92
523140,note_on,,,,,60,0,12,,,,10,,,71,0
523200,set_tempo,,,,,480,1,0,495868,,,,,,,
523200,note_on,,,,,0,0,6,,,,3,,,63,80
523200,note_on,,,,,0,0,12,,,,10,,,67,92
523200,note_on,,,,,60,0,12,,,,10,,,69,0
523200,note_on,,,,,960,0,6,,,,3,,,66,0
523680,note_on,,,,,1056,0,13,,,,11,,,83,70
523680,note_on,,,,,1440,0,3,,,,1,,,84,0
523680,note_on,,,,,0,0,3,,,,1,,,75,105
523680,note_on,,,,,480,0,12,,,,10,,,67,0
523680,note_on,,,,,0,0,12,,,,10,,,66,70
523680,set_tempo,,,,,480,1,0,504202,,,,,,,
523680,note_on,,,,,1056,0,14,,,,12,,,71,70
523776,note_on,,,,,1536,0,7,,,,3,,,59,0
523920,note_on,,,,,240,0,13,,,,11,,,83,0
523920,note_on,,,,,0,0,13,,,,11,,,71,70
524136,note_on,,,,,456,0,12,,,,10,,,66,0
524160,note_on,,,,,0,0,1,,,,0,,,69,0
524160,note_on,,,,,0,0,8,,,,4,,,67,63
524160,note_on,,,,,0,0,8,,,,4,,,64,63
524160,note_on,,,,,384,0,7,,,,3,,,52,63
524160,note_on,,,,,0,0,1,,,,0,,,67,63
524160,set_tempo,,,,,480,1,0,434783,,,,,,,
524160,note_on,,,,,960,0,6,,,,3,,,63,0
524160,note_on,,,,,0,0,6,,,,3,,,59,63
524160,note_on,,,,,0,0,1,,,,0,,,76,63
524160,note_on,,,,,0,0,8,,,,4,,,47,0
524160,note_on,,,,,1920,0,1,,,,0,,,75,0
524160,note_on,,,,,3840,0,8,,,,4,,,59,0
524160,note_on,,,,,240,0,13,,,,11,,,71,0
524160,note_on,,,,,0,0,13,,,,11,,,79,90
524160,note_on,,,,,24,0,12,,,,10,,,64,63
524160,note_on,,,,,0,0,3,,,,1,,,76,63
524160,note_on,,,,,480,0,3,,,,1,,,75,0
524400,note_on,,,,,0,0,13,,,,11,,,67,70
524400,note_on,,,,,240,0,13,,,,11,,,79,0
524400,note_on,,,,,0,0,14,,,,12,,,69,70
524400,note_on,,,,,720,0,14,,,,12,,,71,0
524544,note_on,,,,,384,0,6,,,,3,,,59,0
524544,note_on,,,,,384,0,1,,,,0,,,67,0
524544,note_on,,,,,0,0,1,,,,0,,,76,0
524544,note_on,,,,,384,0,7,,,,3,,,52,0
524544,note_on,,,,,384,0,3,,,,1,,,76,0
524592,note_on,,,,,192,0,13,,,,11,,,67,0
524616,note_on,,,,,456,0,12,,,,10,,,64,0
524640,note_on,,,,,2016,0,16,,,,14,,,40,63
524640,note_on,,,,,2016,0,15,,,,13,,,52,63
524640,note_on,,,,,240,0,14,,,,12,,,69,0
524640,note_on,,,,,0,0,14,,,,12,,,67,70
524880,note_on,,,,,240,0,14,,,,12,,,67,0
524880,note_on,,,,,0,0,14,,,,12,,,66,70
525024,note_on,,,,,384,0,15,,,,13,,,52,0
525024,note_on,,,,,384,0,16,,,,14,,,40,0
525120,note_on,,,,,240,0,14,,,,12,,,66,0
525120,note_on,,,,,0,0,14,,,,12,,,67,70
525360,note_on,,,,,0,0,14,,,,12,,,66,70
525360,note_on,,,,,240,0,14,,,,12,,,67,0
525600,note_on,,,,,2976,0,4,,,,2,,,76,70
525600,note_on,,,,,0,0,14,,,,12,,,64,70
525600,note_on,,,,,984,0,12,,,,10,,,64,70
525600,note_on,,,,,576,0,15,,,,13,,,48,63
525600,note_on,,,,,240,0,14,,,,12,,,66,0
525600,note_on,,,,,1056,0,6,,,,3,,,64,70
525600,note_on,,,,,576,0,16,,,,14,,,36,63
525840,note_on,,,,,240,0,14,,,,12,,,64,0
525840,note_on,,,,,0,0,14,,,,12,,,63,70
525840,note_on,,,,,240,0,12,,,,10,,,64,0
525840,note_on,,,,,0,0,12,,,,10,,,76,70
525984,note_on,,,,,384,0,16,,,,14,,,36,0
525984,note_on,,,,,384,0,15,,,,13,,,48,0
526080,note_on,,,,,0,0,14,,,,12,,,64,70
526080,note_on,,,,,240,0,12,,,,10,,,76,0
526080,note_on,,,,,0,0,8,,,,4,,,66,63
526080,note_on,,,,,240,0,14,,,,12,,,63,0
526080,note_on,,,,,0,0,8,,,,4,,,67,0
526080,note_on,,,,,0,0,8,,,,4,,,64,63
526080,note_on,,,,,1920,0,8,,,,4,,,64,0
526080,note_on,,,,,0,0,12,,,,10,,,72,90
526320,note_on,,,,,0,0,4,,,,2,,,74,70
526320,note_on,,,,,720,0,4,,,,2,,,76,0
526320,note_on,,,,,0,0,6,,,,3,,,62,70
526320,note_on,,,,,240,0,12,,,,10,,,72,0
526320,note_on,,,,,0,0,12,,,,10,,,84,70
526320,note_on,,,,,720,0,6,,,,3,,,64,0
526464,note_on,,,,,384,0,14,,,,12,,,64,0
526512,note_on,,,,,192,0,12,,,,10,,,84,0
526560,note_on,,,,,576,0,15,,,,13,,,45,63
526560,note_on,,,,,576,0,16,,,,14,,,33,63
526560,note_on,,,,,0,0,6,,,,3,,,60,70
526560,note_on,,,,,240,0,6,,,,3,,,62,0
526560,note_on,,,,,240,0,4,,,,2,,,74,0
526560,note_on,,,,,0,0,4,,,,2,,,72,70
526800,note_on,,,,,0,0,6,,,,3,,,59,70
526800,note_on,,,,,240,0,6,,,,3,,,60,0
526800,note_on,,,,,240,0,4,,,,2,,,72,0
526800,note_on,,,,,0,0,4,,,,2,,,71,70
526944,note_on,,,,,384,0,15,,,,13,,,45,0
526944,note_on,,,,,384,0,16,,,,14,,,33,0
527040,note_on,,,,,240,0,4,,,,2,,,71,0
527040,note_on,,,,,0,0,4,,,,2,,,72,70
527040,note_on,,,,,960,0,8,,,,4,,,66,0
527040,note_on,,,,,240,0,6,,,,3,,,59,0
527040,note_on,,,,,0,0,6,,,,3,,,60,63
527040,note_on,,,,,0,0,8,,,,4,,,69,63
527280,note_on,,,,,240,0,4,,,,2,,,72,0
527280,note_on,,,,,0,0,4,,,,2,,,71,70
527280,note_on,,,,,240,0,6,,,,3,,,60,0
527280,note_on,,,,,0,0,6,,,,3,,,59,63
527520,note_on,,,,,576,0,15,,,,13,,,54,63
527520,note_on,,,,,2976,0,3,,,,1,,,81,70
527520,note_on,,,,,2928,0,13,,,,11,,,81,70
527520,note_on,,,,,240,0,4,,,,2,,,71,0
527520,note_on,,,,,240,0,6,,,,3,,,59,0
527520,note_on,,,,,0,0,4,,,,2,,,69,63
527520,note_on,,,,,0,0,6,,,,3,,,57,63
527520,note_on,,,,,1056,0,14,,,,12,,,69,70
527520,note_on,,,,,576,0,16,,,,14,,,42,63
527760,note_on,,,,,240,0,4,,,,2,,,69,0
527760,note_on,,,,,0,0,4,,,,2,,,67,63
527760,note_on,,,,,240,0,6,,,,3,,,57,0
527760,note_on,,,,,0,0,6,,,,3,,,55,63
527760,note_on,,,,,0,0,13,,,,11,,,69,70
527760,note_on,,,,,240,0,13,,,,11,,,81,0
527904,note_on,,,,,384,0,16,,,,14,,,42,0
527904,note_on,,,,,384,0,15,,,,13,,,54,0
528000,note_on,,,,,240,0,6,,,,3,,,55,0
528000,note_on,,,,,0,0,6,,,,3,,,57,63
528000,note_on,,,,,960,0,8,,,,4,,,64,0
528000,note_on,,,,,0,0,13,,,,11,,,78,90
528000,note_on,,,,,0,0,8,,,,4,,,66,63
528000,note_on,,,,,240,0,4,,,,2,,,67,0
528000,note_on,,,,,0,0,4,,,,2,,,67,63
528000,note_on,,,,,240,0,13,,,,11,,,69,0
528240,note_on,,,,,240,0,13,,,,11,,,78,0
528240,note_on,,,,,0,0,13,,,,11,,,66,70
528240,note_on,,,,,0,0,3,,,,1,,,79,70
528240,note_on,,,,,720,0,3,,,,1,,,81,0
528240,note_on,,,,,0,0,14,,,,12,,,67,70
528240,note_on,,,,,720,0,14,,,,12,,,69,0
528384,note_on,,,,,384,0,4,,,,2,,,67,0
528384,note_on,,,,,384,0,6,,,,3,,,57,0
528432,note_on,,,,,192,0,13,,,,11,,,66,0
528480,note_on,,,,,0,0,14,,,,12,,,66,70
528480,note_on,,,,,576,0,16,,,,14,,,39,63
528480,note_on,,,,,240,0,14,,,,12,,,67,0
528480,note_on,,,,,240,0,3,,,,1,,,79,0
528480,note_on,,,,,0,0,3,,,,1,,,78,70
528480,note_on,,,,,576,0,15,,,,13,,,51,63
528720,note_on,,,,,0,0,14,,,,12,,,64,70
528720,note_on,,,,,240,0,14,,,,12,,,66,0
528720,note_on,,,,,0,0,3,,,,1,,,76,70
528720,note_on,,,,,240,0,3,,,,1,,,78,0
528864,note_on,,,,,384,0,16,,,,14,,,39,0
528864,note_on,,,,,384,0,15,,,,13,,,51,0
528960,note_on,,,,,0,0,8,,,,4,,,66,63
528960,note_on,,,,,0,0,8,,,,4,,,69,0
528960,note_on,,,,,960,0,8,,,,4,,,66,0
528960,note_on,,,,,240,0,14,,,,12,,,64,0
528960,note_on,,,,,0,0,14,,,,12,,,66,70
528960,note_on,,,,,0,0,8,,,,4,,,63,63
528960,note_on,,,,,240,0,3,,,,1,,,76,0
528960,note_on,,,,,0,0,3,,,,1,,,78,70
529200,note_on,,,,,0,0,14,,,,12,,,64,70
529200,note_on,,,,,240,0,3,,,,1,,,78,0
529200,note_on,,,,,0,0,3,,,,1,,,76,70
529200,note_on,,,,,240,0,14,,,,12,,,66,0
529440,note_on,,,,,1056,0,6,,,,3,,,63,70
529440,note_on,,,,,4896,0,1,,,,0,,,87,70
529440,note_on,,,,,240,0,14,,,,12,,,64,0
529440,note_on,,,,,0,0,14,,,,12,,,63,70
529440,note_on,,,,,576,0,15,,,,13,,,47,63
529440,note_on,,,,,576,0,16,,,,14,,,35,63
529440,note_on,,,,,1056,0,4,,,,2,,,75,70
529440,note_on,,,,,2928,0,12,,,,10,,,63,70
529440,note_on,,,,,240,0,3,,,,1,,,76,0
529440,note_on,,,,,0,0,3,,,,1,,,75,70
529680,note_on,,,,,0,0,14,,,,12,,,61,70
529680,note_on,,,,,240,0,12,,,,10,,,63,0
529680,note_on,,,,,240,0,3,,,,1,,,75,0
529680,note_on,,,,,0,0,3,,,,1,,,73,70
529680,note_on,,,,,0,0,12,,,,10,,,75,70
529680,note_on,,,,,240,0,14,,,,12,,,63,0
529824,note_on,,,,,384,0,16,,,,14,,,35,0
529824,note_on,,,,,384,0,15,,,,13,,,47,0
529920,note_on,,,,,240,0,14,,,,12,,,61,0
529920,note_on,,,,,0,0,3,,,,1,,,75,63
529920,note_on,,,,,240,0,3,,,,1,,,73,0
529920,note_on,,,,,0,0,14,,,,12,,,63,70
529920,note_on,,,,,240,0,12,,,,10,,,75,0
529920,note_on,,,,,0,0,12,,,,10,,,71,70
530160,note_on,,,,,720,0,6,,,,3,,,63,0
530160,note_on,,,,,0,0,6,,,,3,,,61,70
530160,note_on,,,,,720,0,4,,,,2,,,75,0
530160,note_on,,,,,0,0,4,,,,2,,,73,70
530160,note_on,,,,,0,0,12,,,,10,,,83,70
530160,note_on,,,,,240,0,12,,,,10,,,71,0
530160,note_on,,,,,0,0,1,,,,0,,,85,70
530160,note_on,,,,,720,0,1,,,,0,,,87,0
530304,note_on,,,,,384,0,14,,,,12,,,63,0
530304,note_on,,,,,384,0,3,,,,1,,,75,0
530352,note_on,,,,,192,0,12,,,,10,,,83,0
530400,note_on,,,,,240,0,1,,,,0,,,85,0
530400,note_on,,,,,576,0,16,,,,14,,,31,63
530400,note_on,,,,,0,0,4,,,,2,,,71,70
530400,note_on,,,,,240,0,4,,,,2,,,73,0
530400,note_on,,,,,0,0,1,,,,0,,,83,70
530400,note_on,,,,,0,0,6,,,,3,,,59,70
530400,note_on,,,,,240,0,6,,,,3,,,61,0
530400,note_on,,,,,576,0,15,,,,13,,,43,63
530640,note_on,,,,,240,0,1,,,,0,,,83,0
530640,note_on,,,,,0,0,1,,,,0,,,81,70
530640,note_on,,,,,240,0,4,,,,2,,,71,0
530640,note_on,,,,,0,0,4,,,,2,,,69,70
530640,note_on,,,,,0,0,6,,,,3,,,57,70
530640,note_on,,,,,240,0,6,,,,3,,,59,0
530784,note_on,,,,,384,0,16,,,,14,,,31,0
530784,note_on,,,,,384,0,15,,,,13,,,43,0
530880,note_on,,,,,240,0,1,,,,0,,,81,0
530880,note_on,,,,,0,0,6,,,,3,,,59,70
530880,note_on,,,,,0,0,1,,,,0,,,83,70
530880,note_on,,,,,240,0,4,,,,2,,,69,0
530880,note_on,,,,,0,0,4,,,,2,,,71,70
530880,note_on,,,,,240,0,6,,,,3,,,57,0
530880,note_on,,,,,0,0,8,,,,4,,,67,63
530880,note_on,,,,,0,0,8,,,,4,,,64,63
530880,note_on,,,,,0,0,8,,,,4,,,66,0
530880,note_on,,,,,8256,0,9,,,,5,,,67,63
530880,note_on,,,,,1920,0,8,,,,4,,,63,0
530880,note_on,,,,,0,0,9,,,,5,,,55,63
531120,note_on,,,,,0,0,1,,,,0,,,81,70
531120,note_on,,,,,240,0,1,,,,0,,,83,0
531120,note_on,,,,,240,0,6,,,,3,,,59,0
531120,note_on,,,,,0,0,6,,,,3,,,57,70
531120,note_on,,,,,0,0,4,,,,2,,,69,70
531120,note_on,,,,,240,0,4,,,,2,,,71,0
531360,note_on,,,,,0,0,4,,,,2,,,67,70
531360,note_on,,,,,576,0,16,,,,14,,,40,63
531360,note_on,,,,,1008,0,12,,,,10,,,88,90
531360,note_on,,,,,576,0,15,,,,13,,,52,63
531360,note_on,,,,,0,0,6,,,,3,,,55,70
531360,note_on,,,,,240,0,6,,,,3,,,57,0
531360,note_on,,,,,240,0,4,,,,2,,,69,0
531360,note_on,,,,,240,0,1,,,,0,,,81,0
531360,note_on,,,,,0,0,1,,,,0,,,79,70
531600,note_on,,,,,0,0,6,,,,3,,,54,70
531600,note_on,,,,,240,0,6,,,,3,,,55,0
531600,note_on,,,,,0,0,1,,,,0,,,78,70
531600,note_on,,,,,240,0,4,,,,2,,,67,0
531600,note_on,,,,,240,0,12,,,,10,,,88,0
531600,note_on,,,,,0,0,12,,,,10,,,75,70
531600,note_on,,,,,240,0,1,,,,0,,,79,0
531600,note_on,,,,,0,0,4,,,,2,,,66,70
531648,note_on,,,,,768,0,8,,,,4,,,67,0
531648,note_on,,,,,0,0,8,,,,4,,,64,0
531744,note_on,,,,,384,0,15,,,,13,,,52,0
531744,note_on,,,,,384,0,16,,,,14,,,40,0
531840,note_on,,,,,240,0,12,,,,10,,,75,0
531840,note_on,,,,,0,0,12,,,,10,,,76,70
531840,note_on,,,,,0,0,3,,,,1,,,72,63
531840,note_on,,,,,0,0,4,,,,2,,,67,70
531840,note_on,,,,,1536,0,3,,,,1,,,76,63
531840,note_on,,,,,0,0,14,,,,12,,,64,63
531840,note_on,,,,,0,0,1,,,,0,,,79,70
531840,note_on,,,,,1536,0,14,,,,12,,,60,63
531840,note_on,,,,,240,0,1,,,,0,,,78,0
531840,note_on,,,,,0,0,6,,,,3,,,55,70
531840,note_on,,,,,240,0,6,,,,3,,,54,0
531840,note_on,,,,,240,0,4,,,,2,,,66,0
532080,note_on,,,,,240,0,14,,,,12,,,64,0
532080,note_on,,,,,0,0,14,,,,12,,,60,0
532080,note_on,,,,,240,0,3,,,,1,,,72,0
532080,note_on,,,,,0,0,14,,,,12,,,62,63
532080,note_on,,,,,0,0,3,,,,1,,,76,0
532080,note_on,,,,,0,0,3,,,,1,,,74,63
532080,note_on,,,,,0,0,3,,,,1,,,67,63
532080,note_on,,,,,240,0,12,,,,10,,,76,0
532080,note_on,,,,,0,0,14,,,,12,,,55,63
532080,note_on,,,,,0,0,12,,,,10,,,64,70
532224,note_on,,,,,384,0,6,,,,3,,,55,0
532224,note_on,,,,,384,0,1,,,,0,,,79,0
532224,note_on,,,,,384,0,4,,,,2,,,67,0
532272,note_on,,,,,192,0,12,,,,10,,,64,0
532320,note_on,,,,,576,0,15,,,,13,,,60,63
532320,note_on,,,,,576,0,16,,,,14,,,48,63
532320,note_on,,,,,0,0,14,,,,12,,,52,63
532320,note_on,,,,,0,0,3,,,,1,,,74,0
532320,note_on,,,,,240,0,14,,,,12,,,55,0
532320,note_on,,,,,240,0,3,,,,1,,,67,0
532320,note_on,,,,,0,0,14,,,,12,,,60,63
532320,note_on,,,,,0,0,3,,,,1,,,64,63
532320,note_on,,,,,0,0,3,,,,1,,,72,63
532320,note_on,,,,,0,0,14,,,,12,,,62,0
532560,note_on,,,,,0,0,3,,,,1,,,64,0
532560,note_on,,,,,240,0,14,,,,12,,,60,0
532560,note_on,,,,,0,0,14,,,,12,,,52,0
532560,note_on,,,,,0,0,3,,,,1,,,74,63
532560,note_on,,,,,0,0,14,,,,12,,,55,63
532560,note_on,,,,,0,0,14,,,,12,,,62,63
532560,note_on,,,,,0,0,3,,,,1,,,67,63
532560,note_on,,,,,240,0,3,,,,1,,,72,0
532704,note_on,,,,,384,0,15,,,,13,,,60,0
532704,note_on,,,,,384,0,16,,,,14,,,48,0
532800,note_on,,,,,576,0,1,,,,0,,,72,63
532800,note_on,,,,,576,0,6,,,,3,,,48,63
532800,note_on,,,,,0,0,14,,,,12,,,55,0
532800,note_on,,,,,0,0,14,,,,12,,,64,63
532800,note_on,,,,,0,0,14,,,,12,,,60,63
532800,note_on,,,,,0,0,1,,,,0,,,76,63
532800,note_on,,,,,0,0,6,,,,3,,,52,63
532800,note_on,,,,,240,0,14,,,,12,,,62,0
532800,note_on,,,,,576,0,4,,,,2,,,64,63
532800,note_on,,,,,0,0,4,,,,2,,,60,63
532800,note_on,,,,,240,0,3,,,,1,,,67,0
532800,note_on,,,,,0,0,3,,,,1,,,74,0
532800,note_on,,,,,0,0,3,,,,1,,,72,63
532800,note_on,,,,,0,0,3,,,,1,,,76,63
532992,note_on,,,,,192,0,6,,,,3,,,52,0
532992,note_on,,,,,0,0,6,,,,3,,,48,0
533040,note_on,,,,,240,0,4,,,,2,,,60,0
533040,note_on,,,,,0,0,4,,,,2,,,64,0
533040,note_on,,,,,0,0,4,,,,2,,,62,63
533040,note_on,,,,,48,0,6,,,,3,,,50,63
533040,note_on,,,,,0,0,6,,,,3,,,55,63
533040,note_on,,,,,240,0,1,,,,0,,,76,0
533040,note_on,,,,,0,0,1,,,,0,,,72,0
533040,note_on,,,,,0,0,1,,,,0,,,74,63
533040,note_on,,,,,0,0,1,,,,0,,,79,63
533040,note_on,,,,,0,0,4,,,,2,,,67,63
533184,note_on,,,,,384,0,3,,,,1,,,76,0
533184,note_on,,,,,0,0,14,,,,12,,,64,0
533184,note_on,,,,,384,0,14,,,,12,,,60,0
533184,note_on,,,,,0,0,3,,,,1,,,72,0
533232,note_on,,,,,0,0,6,,,,3,,,50,0
533232,note_on,,,,,192,0,6,,,,3,,,55,0
533280,note_on,,,,,0,0,4,,,,2,,,72,63
533280,note_on,,,,,576,0,15,,,,13,,,48,63
533280,note_on,,,,,240,0,1,,,,0,,,79,0
533280,note_on,,,,,0,0,4,,,,2,,,63,63
533280,note_on,,,,,240,0,4,,,,2,,,67,0
533280,note_on,,,,,0,0,4,,,,2,,,62,0
533280,note_on,,,,,4848,0,13,,,,11,,,67,80
533280,note_on,,,,,0,0,1,,,,0,,,74,0
533280,note_on,,,,,576,0,16,,,,14,,,36,63
533280,note_on,,,,,48,0,6,,,,3,,,51,63
533280,note_on,,,,,0,0,6,,,,3,,,60,63
533280,note_on,,,,,0,0,1,,,,0,,,84,63
533280,note_on,,,,,0,0,1,,,,0,,,75,63
533472,note_on,,,,,192,0,6,,,,3,,,60,0
533472,note_on,,,,,0,0,6,,,,3,,,51,0
533520,note_on,,,,,0,0,4,,,,2,,,69,63
533520,note_on,,,,,0,0,4,,,,2,,,63,0
533520,note_on,,,,,240,0,4,,,,2,,,72,0
533520,note_on,,,,,240,0,1,,,,0,,,75,0
533520,note_on,,,,,0,0,1,,,,0,,,81,63
533520,note_on,,,,,0,0,6,,,,3,,,57,63
533520,note_on,,,,,0,0,1,,,,0,,,78,63
533520,note_on,,,,,0,0,13,,,,11,,,79,80
533520,note_on,,,,,48,0,6,,,,3,,,54,63
533520,note_on,,,,,0,0,4,,,,2,,,66,63
533520,note_on,,,,,0,0,1,,,,0,,,84,0
533520,note_on,,,,,240,0,13,,,,11,,,67,0
533664,note_on,,,,,384,0,16,,,,14,,,36,0
533664,note_on,,,,,384,0,15,,,,13,,,48,0
533712,note_on,,,,,0,0,6,,,,3,,,54,0
533712,note_on,,,,,192,0,6,,,,3,,,57,0
533760,note_on,,,,,0,0,4,,,,2,,,67,63
533760,note_on,,,,,0,0,6,,,,3,,,59,63
533760,note_on,,,,,48,0,6,,,,3,,,55,63
533760,note_on,,,,,240,0,1,,,,0,,,81,0
533760,note_on,,,,,0,0,1,,,,0,,,78,0
533760,note_on,,,,,0,0,1,,,,0,,,83,63
533760,note_on,,,,,0,0,4,,,,2,,,69,0
533760,note_on,,,,,0,0,1,,,,0,,,79,63
533760,note_on,,,,,0,0,3,,,,1,,,74,63
533760,note_on,,,,,576,0,14,,,,12,,,59,63
533760,note_on,,,,,240,0,4,,,,2,,,66,0
533760,note_on,,,,,0,0,4,,,,2,,,71,63
533760,note_on,,,,,0,0,13,,,,11,,,71,100
533760,note_on,,,,,240,0,13,,,,11,,,79,0
533760,note_on,,,,,576,0,3,,,,1,,,71,63
533760,note_on,,,,,0,0,14,,,,12,,,62,63
534000,note_on,,,,,0,0,3,,,,1,,,69,63
534000,note_on,,,,,0,0,3,,,,1,,,71,0
534000,note_on,,,,,240,0,3,,,,1,,,74,0
534000,note_on,,,,,0,0,3,,,,1,,,72,63
534000,note_on,,,,,240,0,14,,,,12,,,62,0
534000,note_on,,,,,0,0,14,,,,12,,,59,0
534000,note_on,,,,,0,0,14,,,,12,,,60,63
534000,note_on,,,,,0,0,14,,,,12,,,57,63
534000,note_on,,,,,240,0,13,,,,11,,,71,0
534000,note_on,,,,,0,0,13,,,,11,,,83,80
534144,note_on,,,,,384,0,1,,,,0,,,79,0
534144,note_on,,,,,0,0,1,,,,0,,,83,0
534144,note_on,,,,,384,0,4,,,,2,,,71,0
534144,note_on,,,,,0,0,4,,,,2,,,67,0
534144,note_on,,,,,384,0,6,,,,3,,,59,0
534144,note_on,,,,,0,0,6,,,,3,,,55,0
534192,note_on,,,,,192,0,13,,,,11,,,83,0
534240,note_on,,,,,0,0,3,,,,1,,,67,63
534240,note_on,,,,,576,0,16,,,,14,,,31,70
534240,note_on,,,,,0,0,14,,,,12,,,60,0
534240,note_on,,,,,240,0,14,,,,12,,,57,0
534240,note_on,,,,,0,0,14,,,,12,,,55,63
534240,note_on,,,,,0,0,3,,,,1,,,71,63
534240,note_on,,,,,0,0,3,,,,1,,,72,0
534240,note_on,,,,,576,0,15,,,,13,,,43,70
534240,note_on,,,,,240,0,3,,,,1,,,69,0
534240,note_on,,,,,0,0,14,,,,12,,,59,63
534480,note_on,,,,,0,0,3,,,,1,,,72,63
534480,note_on,,,,,0,0,3,,,,1,,,69,63
534480,note_on,,,,,0,0,3,,,,1,,,71,0
534480,note_on,,,,,240,0,3,,,,1,,,67,0
534480,note_on,,,,,240,0,14,,,,12,,,55,0
534480,note_on,,,,,0,0,14,,,,12,,,60,63
534480,note_on,,,,,0,0,14,,,,12,,,57,63
534480,note_on,,,,,0,0,14,,,,12,,,59,0
534624,note_on,,,,,384,0,16,,,,14,,,31,0
534624,note_on,,,,,384,0,15,,,,13,,,43,0
534720,note_on,,,,,240,0,3,,,,1,,,72,0
534720,note_on,,,,,0,0,3,,,,1,,,69,0
534720,note_on,,,,,0,0,3,,,,1,,,70,63
534720,note_on,,,,,0,0,3,,,,1,,,74,63
534720,note_on,,,,,576,0,4,,,,2,,,70,70
534720,note_on,,,,,0,0,1,,,,0,,,82,70
534720,note_on,,,,,576,0,1,,,,0,,,86,70
534720,note_on,,,,,0,0,4,,,,2,,,74,70
534720,note_on,,,,,0,0,14,,,,12,,,60,0
534720,note_on,,,,,0,0,14,,,,12,,,62,63
534720,note_on,,,,,0,0,14,,,,12,,,58,63
534720,note_on,,,,,576,0,6,,,,3,,,62,70
534720,note_on,,,,,0,0,6,,,,3,,,58,70
534720,note_on,,,,,240,0,14,,,,12,,,57,0
534960,note_on,,,,,240,0,6,,,,3,,,58,0
534960,note_on,,,,,0,0,6,,,,3,,,62,0
534960,note_on,,,,,0,0,1,,,,0,,,81,70
534960,note_on,,,,,240,0,1,,,,0,,,82,0
534960,note_on,,,,,0,0,1,,,,0,,,86,0
534960,note_on,,,,,0,0,6,,,,3,,,57,70
534960,note_on,,,,,0,0,4,,,,2,,,72,70
534960,note_on,,,,,0,0,4,,,,2,,,69,70
534960,note_on,,,,,0,0,4,,,,2,,,70,0
534960,note_on,,,,,240,0,4,,,,2,,,74,0
534960,note_on,,,,,0,0,1,,,,0,,,84,70
534960,note_on,,,,,0,0,6,,,,3,,,60,70
535104,note_on,,,,,384,0,14,,,,12,,,58,0
535104,note_on,,,,,384,0,3,,,,1,,,74,0
535104,note_on,,,,,0,0,3,,,,1,,,70,0
535104,note_on,,,,,0,0,14,,,,12,,,62,0
535200,note_on,,,,,0,0,6,,,,3,,,55,70
535200,note_on,,,,,0,0,4,,,,2,,,67,70
535200,note_on,,,,,0,0,4,,,,2,,,70,70
535200,note_on,,,,,576,0,15,,,,13,,,55,70
535200,note_on,,,,,240,0,6,,,,3,,,57,0
535200,note_on,,,,,2928,0,12,,,,10,,,86,100
535200,note_on,,,,,0,0,6,,,,3,,,60,0
535200,note_on,,,,,0,0,4,,,,2,,,69,0
535200,note_on,,,,,0,0,6,,,,3,,,58,70
535200,note_on,,,,,240,0,4,,,,2,,,72,0
535200,note_on,,,,,240,0,1,,,,0,,,81,0
535200,note_on,,,,,0,0,1,,,,0,,,84,0
535200,note_on,,,,,0,0,1,,,,0,,,79,70
535200,note_on,,,,,0,0,1,,,,0,,,82,70
535200,note_on,,,,,576,0,16,,,,14,,,43,70
535440,note_on,,,,,0,0,1,,,,0,,,79,70
535440,note_on,,,,,0,0,1,,,,0,,,76,70
535440,note_on,,,,,240,0,4,,,,2,,,70,0
535440,note_on,,,,,0,0,4,,,,2,,,67,0
535440,note_on,,,,,0,0,6,,,,3,,,55,70
535440,note_on,,,,,0,0,4,,,,2,,,64,70
535440,note_on,,,,,0,0,6,,,,3,,,52,70
535440,note_on,,,,,240,0,1,,,,0,,,82,0
535440,note_on,,,,,240,0,6,,,,3,,,55,0
535440,note_on,,,,,0,0,4,,,,2,,,67,70
535440,note_on,,,,,0,0,1,,,,0,,,79,0
535440,note_on,,,,,0,0,6,,,,3,,,58,0
535440,note_on,,,,,240,0,12,,,,10,,,86,0
535440,note_on,,,,,0,0,12,,,,10,,,73,80
535584,note_on,,,,,384,0,15,,,,13,,,55,0
535584,note_on,,,,,384,0,16,,,,14,,,43,0
535632,note_on,,,,,192,0,12,,,,10,,,73,0
535680,note_on,,,,,0,0,4,,,,2,,,69,70
535680,note_on,,,,,0,0,4,,,,2,,,67,0
535680,note_on,,,,,240,0,4,,,,2,,,64,0
535680,note_on,,,,,0,0,4,,,,2,,,66,70
535680,note_on,,,,,0,0,1,,,,0,,,78,70
535680,note_on,,,,,0,0,1,,,,0,,,81,70
535680,note_on,,,,,0,0,1,,,,0,,,76,0
535680,note_on,,,,,240,0,1,,,,0,,,79,0
535680,note_on,,,,,0,0,3,,,,1,,,74,70
535680,note_on,,,,,48,0,12,,,,10,,,74,80
535680,note_on,,,,,576,0,14,,,,12,,,66,70
535680,note_on,,,,,0,0,6,,,,3,,,57,70
535680,note_on,,,,,0,0,6,,,,3,,,54,70
535680,note_on,,,,,0,0,6,,,,3,,,55,0
535680,note_on,,,,,240,0,6,,,,3,,,52,0
535680,note_on,,,,,0,0,9,,,,5,,,62,63
535680,note_on,,,,,0,0,9,,,,5,,,66,63
535680,note_on,,,,,0,0,9,,,,5,,,67,0
535680,note_on,,,,,4800,0,9,,,,5,,,55,0
535680,note_on,,,,,0,0,14,,,,12,,,62,70
535680,note_on,,,,,576,0,3,,,,1,,,78,70
535920,note_on,,,,,240,0,12,,,,10,,,74,0
535920,note_on,,,,,0,0,12,,,,10,,,62,80
535920,note_on,,,,,0,0,3,,,,1,,,76,70
535920,note_on,,,,,0,0,3,,,,1,,,78,0
535920,note_on,,,,,240,0,3,,,,1,,,74,0
535920,note_on,,,,,0,0,3,,,,1,,,69,70
535920,note_on,,,,,240,0,14,,,,12,,,62,0
535920,note_on,,,,,0,0,14,,,,12,,,66,0
535920,note_on,,,,,0,0,14,,,,12,,,64,70
535920,note_on,,,,,0,0,14,,,,12,,,57,70
536064,note_on,,,,,0,0,6,,,,3,,,54,0
536064,note_on,,,,,384,0,6,,,,3,,,57,0
536064,note_on,,,,,384,0,1,,,,0,,,78,0
536064,note_on,,,,,0,0,1,,,,0,,,81,0
536064,note_on,,,,,0,0,4,,,,2,,,69,0
536064,note_on,,,,,384,0,4,,,,2,,,66,0
536112,note_on,,,,,192,0,12,,,,10,,,62,0
536160,note_on,,,,,0,0,14,,,,12,,,54,70
536160,note_on,,,,,240,0,3,,,,1,,,69,0
536160,note_on,,,,,0,0,3,,,,1,,,76,0
536160,note_on,,,,,0,0,3,,,,1,,,66,70
536160,note_on,,,,,0,0,3,,,,1,,,74,70
536160,note_on,,,,,576,0,15,,,,13,,,50,80
536160,note_on,,,,,576,0,16,,,,14,,,50,80
536160,note_on,,,,,240,0,14,,,,12,,,57,0
536160,note_on,,,,,0,0,14,,,,12,,,64,0
536160,note_on,,,,,0,0,14,,,,12,,,62,70
536400,note_on,,,,,0,0,14,,,,12,,,64,70
536400,note_on,,,,,0,0,14,,,,12,,,57,70
536400,note_on,,,,,0,0,14,,,,12,,,54,0
536400,note_on,,,,,0,0,3,,,,1,,,69,70
536400,note_on,,,,,240,0,14,,,,12,,,62,0
536400,note_on,,,,,240,0,3,,,,1,,,74,0
536400,note_on,,,,,0,0,3,,,,1,,,66,0
536400,note_on,,,,,0,0,3,,,,1,,,76,70
536544,note_on,,,,,384,0,15,,,,13,,,50,0
536544,note_on,,,,,384,0,16,,,,14,,,50,0
536640,note_on,,,,,0,0,4,,,,2,,,66,80
536640,note_on,,,,,0,0,6,,,,3,,,54,80
536640,note_on,,,,,0,0,1,,,,0,,,78,70
536640,note_on,,,,,576,0,1,,,,0,,,74,70
536640,note_on,,,,,576,0,6,,,,3,,,50,80
536640,note_on,,,,,0,0,14,,,,12,,,64,0
536640,note_on,,,,,240,0,3,,,,1,,,76,0
536640,note_on,,,,,0,0,3,,,,1,,,69,0
536640,note_on,,,,,0,0,3,,,,1,,,74,70
536640,note_on,,,,,0,0,3,,,,1,,,78,70
536640,note_on,,,,,240,0,14,,,,12,,,57,0
536640,note_on,,,,,0,0,14,,,,12,,,66,80
536640,note_on,,,,,0,0,14,,,,12,,,62,80
536640,note_on,,,,,576,0,4,,,,2,,,62,80
536880,note_on,,,,,240,0,6,,,,3,,,54,0
536880,note_on,,,,,0,0,6,,,,3,,,50,0
536880,note_on,,,,,0,0,6,,,,3,,,57,80
536880,note_on,,,,,0,0,6,,,,3,,,54,80
536880,note_on,,,,,0,0,4,,,,2,,,66,80
536880,note_on,,,,,0,0,4,,,,2,,,69,80
536880,note_on,,,,,0,0,4,,,,2,,,62,0
536880,note_on,,,,,240,0,4,,,,2,,,66,0
536880,note_on,,,,,240,0,1,,,,0,,,78,0
536880,note_on,,,,,0,0,1,,,,0,,,74,0
536880,note_on,,,,,0,0,1,,,,0,,,81,70
536880,note_on,,,,,0,0,1,,,,0,,,78,70
537024,note_on,,,,,384,0,14,,,,12,,,66,0
537024,note_on,,,,,384,0,3,,,,1,,,78,0
537024,note_on,,,,,0,0,3,,,,1,,,74,0
537024,note_on,,,,,0,0,14,,,,12,,,62,0
537120,note_on,,,,,0,0,6,,,,3,,,57,0
537120,note_on,,,,,0,0,1,,,,0,,,77,70
537120,note_on,,,,,0,0,1,,,,0,,,78,0
537120,note_on,,,,,0,0,1,,,,0,,,86,70
537120,note_on,,,,,0,0,6,,,,3,,,53,80
537120,note_on,,,,,0,0,9,,,,5,,,65,70
537120,note_on,,,,,240,0,6,,,,3,,,54,0
537120,note_on,,,,,240,0,1,,,,0,,,81,0
537120,note_on,,,,,0,0,4,,,,2,,,69,0
537120,note_on,,,,,0,0,6,,,,3,,,62,80
537120,note_on,,,,,0,0,4,,,,2,,,74,80
537120,note_on,,,,,0,0,4,,,,2,,,65,80
537120,note_on,,,,,2928,0,13,,,,11,,,65,92
537120,note_on,,,,,240,0,4,,,,2,,,66,0
537120,note_on,,,,,1440,0,9,,,,5,,,66,0
537120,note_on,,,,,576,0,16,,,,14,,,38,80
537120,note_on,,,,,576,0,15,,,,13,,,50,80
537360,note_on,,,,,0,0,6,,,,3,,,59,80
537360,note_on,,,,,0,0,6,,,,3,,,56,80
537360,note_on,,,,,0,0,4,,,,2,,,65,0
537360,note_on,,,,,0,0,1,,,,0,,,80,70
537360,note_on,,,,,0,0,1,,,,0,,,83,70
537360,note_on,,,,,0,0,1,,,,0,,,77,0
537360,note_on,,,,,240,0,13,,,,11,,,65,0
537360,note_on,,,,,240,0,1,,,,0,,,86,0
537360,note_on,,,,,0,0,4,,,,2,,,71,80
537360,note_on,,,,,0,0,6,,,,3,,,62,0
537360,note_on,,,,,0,0,4,,,,2,,,68,80
537360,note_on,,,,,0,0,13,,,,11,,,77,92
537360,note_on,,,,,240,0,4,,,,2,,,74,0
537360,note_on,,,,,240,0,6,,,,3,,,53,0
537504,note_on,,,,,384,0,15,,,,13,,,50,0
537504,note_on,,,,,384,0,16,,,,14,,,38,0
537600,note_on,,,,,0,0,1,,,,0,,,81,70
537600,note_on,,,,,0,0,6,,,,3,,,61,80
537600,note_on,,,,,0,0,1,,,,0,,,85,70
537600,note_on,,,,,0,0,6,,,,3,,,59,0
537600,note_on,,,,,240,0,6,,,,3,,,56,0
537600,note_on,,,,,0,0,6,,,,3,,,57,80
537600,note_on,,,,,240,0,4,,,,2,,,71,0
537600,note_on,,,,,0,0,9,,,,5,,,62,0
537600,note_on,,,,,0,0,9,,,,5,,,61,70
537600,note_on,,,,,0,0,9,,,,5,,,64,70
537600,note_on,,,,,0,0,1,,,,0,,,83,0
537600,note_on,,,,,240,0,1,,,,0,,,80,0
537600,note_on,,,,,0,0,13,,,,11,,,69,92
537600,note_on,,,,,240,0,13,,,,11,,,77,0
537600,note_on,,,,,576,0,14,,,,12,,,61,80
537600,note_on,,,,,0,0,14,,,,12,,,64,80
537600,note_on,,,,,576,0,3,,,,1,,,73,80
537600,note_on,,,,,0,0,3,,,,1,,,76,80
537600,note_on,,,,,0,0,4,,,,2,,,69,80
537600,note_on,,,,,0,0,4,,,,2,,,68,0
537600,note_on,,,,,480,0,9,,,,5,,,65,0
537600,note_on,,,,,0,0,4,,,,2,,,73,80
537840,note_on,,,,,0,0,14,,,,12,,,59,80
537840,note_on,,,,,0,0,3,,,,1,,,71,80
537840,note_on,,,,,0,0,3,,,,1,,,73,0
537840,note_on,,,,,240,0,3,,,,1,,,76,0
537840,note_on,,,,,240,0,13,,,,11,,,69,0
537840,note_on,,,,,0,0,13,,,,11,,,81,92
537840,note_on,,,,,240,0,14,,,,12,,,64,0
537840,note_on,,,,,0,0,14,,,,12,,,61,0
537840,note_on,,,,,0,0,3,,,,1,,,74,80
537840,note_on,,,,,0,0,14,,,,12,,,62,80
537984,note_on,,,,,384,0,1,,,,0,,,81,0
537984,note_on,,,,,0,0,6,,,,3,,,57,0
537984,note_on,,,,,384,0,6,,,,3,,,61,0
537984,note_on,,,,,0,0,1,,,,0,,,85,0
537984,note_on,,,,,0,0,4,,,,2,,,73,0
537984,note_on,,,,,384,0,4,,,,2,,,69,0
538032,note_on,,,,,192,0,13,,,,11,,,81,0
538080,note_on,,,,,576,0,16,,,,14,,,33,92
538080,note_on,,,,,0,0,14,,,,12,,,57,92
538080,note_on,,,,,0,0,14,,,,12,,,61,92
538080,note_on,,,,,576,0,15,,,,13,,,45,92
538080,note_on,,,,,0,0,3,,,,1,,,73,80
538080,note_on,,,,,0,0,3,,,,1,,,69,80
538080,note_on,,,,,0,0,3,,,,1,,,74,0
538080,note_on,,,,,240,0,3,,,,1,,,71,0
538080,note_on,,,,,0,0,14,,,,12,,,59,0
538080,note_on,,,,,240,0,14,,,,12,,,62,0
538320,note_on,,,,,0,0,14,,,,12,,,62,92
538320,note_on,,,,,240,0,14,,,,12,,,57,0
538320,note_on,,,,,0,0,3,,,,1,,,71,80
538320,note_on,,,,,0,0,3,,,,1,,,69,0
538320,note_on,,,,,0,0,14,,,,12,,,59,92
538320,note_on,,,,,0,0,3,,,,1,,,74,80
538320,note_on,,,,,240,0,3,,,,1,,,73,0
538320,note_on,,,,,0,0,14,,,,12,,,61,0
538464,note_on,,,,,384,0,15,,,,13,,,45,0
538464,note_on,,,,,384,0,16,,,,14,,,33,0
538560,note_on,,,,,0,0,9,,,,5,,,60,70
538560,note_on,,,,,960,0,9,,,,5,,,61,0
538560,note_on,,,,,576,0,1,,,,0,,,88,80
538560,note_on,,,,,576,0,6,,,,3,,,64,80
538560,note_on,,,,,0,0,14,,,,12,,,59,0
538560,note_on,,,,,0,0,14,,,,12,,,60,92
538560,note_on,,,,,0,0,6,,,,3,,,60,80
538560,note_on,,,,,240,0,3,,,,1,,,74,0
538560,note_on,,,,,0,0,3,,,,1,,,71,0
538560,note_on,,,,,576,0,4,,,,2,,,72,80
538560,note_on,,,,,0,0,3,,,,1,,,72,80
538560,note_on,,,,,0,0,3,,,,1,,,76,80
538560,note_on,,,,,0,0,14,,,,12,,,64,92
538560,note_on,,,,,0,0,1,,,,0,,,84,80
538560,note_on,,,,,240,0,14,,,,12,,,62,0
538560,note_on,,,,,0,0,4,,,,2,,,76,80
538800,note_on,,,,,240,0,4,,,,2,,,76,0
538800,note_on,,,,,0,0,4,,,,2,,,72,0
538800,note_on,,,,,0,0,4,,,,2,,,71,80
538800,note_on,,,,,0,0,4,,,,2,,,74,80
538800,note_on,,,,,0,0,6,,,,3,,,59,80
538800,note_on,,,,,0,0,6,,,,3,,,64,0
538800,note_on,,,,,0,0,1,,,,0,,,83,92
538800,note_on,,,,,0,0,1,,,,0,,,86,92
538800,note_on,,,,,0,0,1,,,,0,,,88,0
538800,note_on,,,,,240,0,1,,,,0,,,84,0
538800,note_on,,,,,240,0,6,,,,3,,,60,0
538800,note_on,,,,,0,0,6,,,,3,,,62,80
538944,note_on,,,,,0,0,14,,,,12,,,60,0
538944,note_on,,,,,384,0,14,,,,12,,,64,0
538944,note_on,,,,,384,0,3,,,,1,,,76,0
538944,note_on,,,,,0,0,3,,,,1,,,72,0
539040,note_on,,,,,0,0,4,,,,2,,,71,0
539040,note_on,,,,,240,0,4,,,,2,,,74,0
539040,note_on,,,,,0,0,6,,,,3,,,60,92
539040,note_on,,,,,0,0,6,,,,3,,,57,92
539040,note_on,,,,,240,0,1,,,,0,,,83,0
539040,note_on,,,,,240,0,6,,,,3,,,62,0
539040,note_on,,,,,0,0,4,,,,2,,,69,92
539040,note_on,,,,,576,0,15,,,,13,,,57,105
539040,note_on,,,,,1008,0,13,,,,11,,,72,91
539040,note_on,,,,,96,0,14,,,,12,,,60,92
539040,note_on,,,,,0,0,14,,,,12,,,57,92
539040,note_on,,,,,576,0,16,,,,14,,,45,105
539040,note_on,,,,,2928,0,12,,,,10,,,84,103
539040,note_on,,,,,0,0,6,,,,3,,,59,0
539040,note_on,,,,,0,0,4,,,,2,,,72,92
539040,note_on,,,,,0,0,1,,,,0,,,86,0
539040,note_on,,,,,0,0,1,,,,0,,,81,92
539040,note_on,,,,,0,0,1,,,,0,,,84,92
539280,note_on,,,,,0,0,1,,,,0,,,84,0
539280,note_on,,,,,240,0,6,,,,3,,,60,0
539280,note_on,,,,,0,0,6,,,,3,,,57,0
539280,note_on,,,,,0,0,6,,,,3,,,59,92
539280,note_on,,,,,0,0,6,,,,3,,,55,92
539280,note_on,,,,,240,0,1,,,,0,,,81,0
539280,note_on,,,,,0,0,1,,,,0,,,79,92
539280,note_on,,,,,0,0,1,,,,0,,,83,92
539280,note_on,,,,,0,0,4,,,,2,,,71,92
539280,note_on,,,,,0,0,4,,,,2,,,67,92
539280,note_on,,,,,0,0,4,,,,2,,,69,0
539280,note_on,,,,,240,0,4,,,,2,,,72,0
539304,note_on,,,,,0,0,14,,,,12,,,60,0
539304,note_on,,,,,264,0,14,,,,12,,,57,0
539304,note_on,,,,,264,0,13,,,,11,,,72,0
539328,note_on,,,,,288,0,12,,,,10,,,84,0
539424,note_on,,,,,384,0,16,,,,14,,,45,0
539424,note_on,,,,,384,0,15,,,,13,,,57,0
539520,note_on,,,,,0,0,1,,,,0,,,78,92
539520,note_on,,,,,96,0,15,,,,13,,,39,105
539520,note_on,,,,,216,0,13,,,,11,,,60,92
539520,note_on,,,,,0,0,9,,,,5,,,64,0
539520,note_on,,,,,240,0,1,,,,0,,,83,0
539520,note_on,,,,,0,0,1,,,,0,,,81,92
539520,note_on,,,,,0,0,1,,,,0,,,79,0
539520,note_on,,,,,960,0,9,,,,5,,,60,0
539520,note_on,,,,,240,0,4,,,,2,,,71,0
539520,note_on,,,,,0,0,6,,,,3,,,59,0
539520,note_on,,,,,0,0,4,,,,2,,,67,0
539520,note_on,,,,,0,0,6,,,,3,,,54,92
539520,note_on,,,,,0,0,6,,,,3,,,57,92
539520,note_on,,,,,96,0,16,,,,14,,,39,105
539520,note_on,,,,,216,0,14,,,,12,,,54,92
539520,note_on,,,,,0,0,14,,,,12,,,57,92
539520,note_on,,,,,192,0,12,,,,10,,,72,105
539520,note_on,,,,,0,0,4,,,,2,,,69,92
539520,note_on,,,,,0,0,4,,,,2,,,66,92
539520,note_on,,,,,240,0,6,,,,3,,,55,0
539760,note_on,,,,,0,0,15,,,,13,,,45,105
539760,note_on,,,,,240,0,15,,,,13,,,39,0
539904,note_on,,,,,384,0,6,,,,3,,,57,0
539904,note_on,,,,,384,0,1,,,,0,,,81,0
539904,note_on,,,,,384,0,4,,,,2,,,69,0
539904,note_on,,,,,0,0,4,,,,2,,,66,0
539904,note_on,,,,,0,0,6,,,,3,,,54,0
539904,note_on,,,,,0,0,1,,,,0,,,78,0
540000,note_on,,,,,8352,0,8,,,,4,,,66,92
540000,note_on,,,,,0,0,8,,,,4,,,69,92
540000,note_on,,,,,1056,0,3,,,,1,,,69,92
540000,note_on,,,,,0,0,3,,,,1,,,72,92
540000,note_on,,,,,0,0,1,,,,0,,,78,92
540000,note_on,,,,,96,0,6,,,,3,,,57,92
540000,note_on,,,,,0,0,6,,,,3,,,51,92
540000,note_on,,,,,240,0,15,,,,13,,,45,0
540000,note_on,,,,,0,0,15,,,,13,,,54,105
540000,note_on,,,,,96,0,1,,,,0,,,81,92
540000,note_on,,,,,480,0,9,,,,5,,,60,92
540240,note_on,,,,,0,0,15,,,,13,,,57,105
540240,note_on,,,,,240,0,15,,,,13,,,54,0
540288,note_on,,,,,0,0,14,,,,12,,,54,0
540288,note_on,,,,,768,0,14,,,,12,,,57,0
540432,note_on,,,,,192,0,15,,,,13,,,57,0
540480,note_on,,,,,48,0,15,,,,13,,,51,105
540480,note_on,,,,,0,0,14,,,,12,,,54,92
540480,note_on,,,,,192,0,14,,,,12,,,57,92
540672,note_on,,,,,1152,0,16,,,,14,,,39,0
540720,note_on,,,,,0,0,13,,,,11,,,59,92
540720,note_on,,,,,0,0,14,,,,12,,,57,92
540720,note_on,,,,,0,0,14,,,,12,,,60,92
540720,note_on,,,,,0,0,14,,,,12,,,57,0
540720,note_on,,,,,240,0,14,,,,12,,,54,0
540720,note_on,,,,,1200,0,13,,,,11,,,60,0
540720,note_on,,,,,0,0,12,,,,10,,,71,105
540720,note_on,,,,,1200,0,12,,,,10,,,72,0
540768,note_on,,,,,768,0,1,,,,0,,,78,0
540768,note_on,,,,,768,0,9,,,,5,,,60,0
540768,note_on,,,,,768,0,3,,,,1,,,72,0
540768,note_on,,,,,0,0,3,,,,1,,,69,0
540768,note_on,,,,,0,0,8,,,,4,,,66,0
540768,note_on,,,,,0,0,1,,,,0,,,81,0
540768,note_on,,,,,0,0,6,,,,3,,,57,0
540768,note_on,,,,,768,0,8,,,,4,,,69,0
540768,note_on,,,,,768,0,6,,,,3,,,51,0
540960,note_on,,,,,192,0,3,,,,1,,,72,92
540960,note_on,,,,,0,0,6,,,,3,,,51,92
540960,note_on,,,,,0,0,14,,,,12,,,60,0
540960,note_on,,,,,192,0,6,,,,3,,,57,92
540960,note_on,,,,,0,0,14,,,,12,,,60,92
540960,note_on,,,,,0,0,13,,,,11,,,60,92
540960,note_on,,,,,240,0,13,,,,11,,,59,0
540960,note_on,,,,,0,0,3,,,,1,,,69,92
540960,note_on,,,,,240,0,14,,,,12,,,57,0
540960,note_on,,,,,0,0,12,,,,10,,,72,105
540960,note_on,,,,,192,0,9,,,,5,,,60,92
540960,note_on,,,,,0,0,14,,,,12,,,66,92
540960,note_on,,,,,240,0,12,,,,10,,,71,0
540960,note_on,,,,,192,0,8,,,,4,,,69,92
540960,note_on,,,,,192,0,1,,,,0,,,81,92
540960,note_on,,,,,0,0,1,,,,0,,,78,92
540960,note_on,,,,,0,0,8,,,,4,,,66,92
540960,note_on,,,,,288,0,16,,,,14,,,39,105
541200,note_on,,,,,0,0,14,,,,12,,,66,0
541200,note_on,,,,,240,0,14,,,,12,,,60,0
541200,note_on,,,,,0,0,13,,,,11,,,57,92
541200,note_on,,,,,240,0,13,,,,11,,,60,0
541200,note_on,,,,,240,0,12,,,,10,,,72,0
541200,note_on,,,,,0,0,12,,,,10,,,69,105
541200,note_on,,,,,0,0,14,,,,12,,,66,92
541200,note_on,,,,,0,0,14,,,,12,,,69,92
541248,note_on,,,,,768,0,15,,,,13,,,51,0
541344,note_on,,,,,0,0,6,,,,3,,,57,0
541344,note_on,,,,,384,0,6,,,,3,,,51,0
541344,note_on,,,,,0,0,1,,,,0,,,81,0
541344,note_on,,,,,384,0,1,,,,0,,,78,0
541344,note_on,,,,,384,0,8,,,,4,,,66,0
541344,note_on,,,,,0,0,8,,,,4,,,69,0
541344,note_on,,,,,384,0,16,,,,14,,,39,0
541344,note_on,,,,,0,0,3,,,,1,,,72,0
541344,note_on,,,,,384,0,3,,,,1,,,69,0
541344,note_on,,,,,384,0,9,,,,5,,,60,0
541392,note_on,,,,,192,0,14,,,,12,,,69,0
541392,note_on,,,,,0,0,14,,,,12,,,66,0
541428,note_on,,,,,228,0,12,,,,10,,,69,0
541428,note_on,,,,,228,0,13,,,,11,,,57,0
541440,note_on,,,,,192,0,15,,,,13,,,38,105
541440,note_on,,,,,48,0,14,,,,12,,,57,92
541440,note_on,,,,,12,0,12,,,,10,,,84,105
541440,note_on,,,,,12,0,13,,,,11,,,72,92
541440,note_on,,,,,96,0,16,,,,14,,,38,105
541440,note_on,,,,,0,0,14,,,,12,,,54,92
541680,note_on,,,,,240,0,15,,,,13,,,38,0
541680,note_on,,,,,0,0,15,,,,13,,,45,105
541920,note_on,,,,,0,0,6,,,,3,,,50,92
541920,note_on,,,,,576,0,6,,,,3,,,57,92
541920,note_on,,,,,576,0,1,,,,0,,,84,92
541920,note_on,,,,,576,0,8,,,,4,,,66,92
541920,note_on,,,,,0,0,3,,,,1,,,69,92
541920,note_on,,,,,576,0,3,,,,1,,,78,92
541920,note_on,,,,,576,0,9,,,,5,,,60,92
541920,note_on,,,,,0,0,1,,,,0,,,81,92
541920,note_on,,,,,0,0,8,,,,4,,,69,92
541920,note_on,,,,,240,0,15,,,,13,,,45,0
541920,note_on,,,,,0,0,15,,,,13,,,54,105
542160,note_on,,,,,240,0,15,,,,13,,,54,0
542160,note_on,,,,,0,0,15,,,,13,,,57,105
542208,note_on,,,,,768,0,14,,,,12,,,54,0
542208,note_on,,,,,0,0,14,,,,12,,,57,0
542352,note_on,,,,,192,0,15,,,,13,,,57,0
542400,note_on,,,,,0,0,14,,,,12,,,57,92
542400,note_on,,,,,192,0,14,,,,12,,,54,92
542400,note_on,,,,,48,0,15,,,,13,,,50,105
542592,note_on,,,,,1152,0,16,,,,14,,,38,0
542640,note_on,,,,,0,0,14,,,,12,,,57,92
542640,note_on,,,,,0,0,12,,,,10,,,81,105
542640,note_on,,,,,0,0,14,,,,12,,,54,0
542640,note_on,,,,,240,0,14,,,,12,,,57,0
542640,note_on,,,,,1200,0,12,,,,10,,,84,0
542640,note_on,,,,,1200,0,13,,,,11,,,72,0
542640,note_on,,,,,0,0,14,,,,12,,,60,92
542640,note_on,,,,,0,0,13,,,,11,,,69,92
542688,note_on,,,,,768,0,6,,,,3,,,50,0
542688,note_on,,,,,768,0,1,,,,0,,,81,0
542688,note_on,,,,,0,0,1,,,,0,,,84,0
542688,note_on,,,,,0,0,8,,,,4,,,66,0
542688,note_on,,,,,0,0,3,,,,1,,,78,0
542688,note_on,,,,,768,0,3,,,,1,,,69,0
542688,note_on,,,,,768,0,9,,,,5,,,60,0
542688,note_on,,,,,768,0,8,,,,4,,,69,0
542688,note_on,,,,,0,0,6,,,,3,,,57,0
542880,note_on,,,,,240,0,14,,,,12,,,57,0
542880,note_on,,,,,0,0,14,,,,12,,,60,0
542880,note_on,,,,,0,0,8,,,,4,,,66,92
542880,note_on,,,,,0,0,14,,,,12,,,66,92
542880,note_on,,,,,192,0,8,,,,4,,,69,92
542880,note_on,,,,,192,0,6,,,,3,,,50,92
542880,note_on,,,,,0,0,6,,,,3,,,57,92
542880,note_on,,,,,0,0,1,,,,0,,,84,92
542880,note_on,,,,,192,0,1,,,,0,,,81,92
542880,note_on,,,,,0,0,14,,,,12,,,60,92
542880,note_on,,,,,240,0,12,,,,10,,,81,0
542880,note_on,,,,,0,0,12,,,,10,,,78,105
542880,note_on,,,,,240,0,13,,,,11,,,69,0
542880,note_on,,,,,288,0,16,,,,14,,,38,105
542880,note_on,,,,,192,0,9,,,,5,,,60,92
542880,note_on,,,,,0,0,13,,,,11,,,66,92
542880,note_on,,,,,192,0,3,,,,1,,,78,92
542880,note_on,,,,,0,0,3,,,,1,,,69,92
543120,note_on,,,,,240,0,12,,,,10,,,78,0
543120,note_on,,,,,0,0,14,,,,12,,,66,92
543120,note_on,,,,,0,0,14,,,,12,,,60,0
543120,note_on,,,,,240,0,14,,,,12,,,66,0
543120,note_on,,,,,240,0,13,,,,11,,,66,0
543120,note_on,,,,,0,0,13,,,,11,,,60,92
543120,note_on,,,,,0,0,14,,,,12,,,69,92
543120,note_on,,,,,0,0,12,,,,10,,,72,105
543168,note_on,,,,,768,0,15,,,,13,,,50,0
543264,note_on,,,,,384,0,8,,,,4,,,66,0
543264,note_on,,,,,0,0,8,,,,4,,,69,0
543264,note_on,,,,,384,0,16,,,,14,,,38,0
543264,note_on,,,,,384,0,1,,,,0,,,84,0
543264,note_on,,,,,0,0,1,,,,0,,,81,0
543264,note_on,,,,,0,0,6,,,,3,,,50,0
543264,note_on,,,,,384,0,6,,,,3,,,57,0
543264,note_on,,,,,0,0,3,,,,1,,,78,0
543264,note_on,,,,,384,0,9,,,,5,,,60,0
543264,note_on,,,,,384,0,3,,,,1,,,69,0
543312,note_on,,,,,192,0,14,,,,12,,,69,0
543312,note_on,,,,,0,0,14,,,,12,,,66,0
543348,note_on,,,,,228,0,13,,,,11,,,60,0
543348,note_on,,,,,228,0,12,,,,10,,,72,0
543360,note_on,,,,,48,0,14,,,,12,,,57,92
543360,note_on,,,,,0,0,14,,,,12,,,54,92
543360,note_on,,,,,12,0,12,,,,10,,,73,105
543360,note_on,,,,,96,0,16,,,,14,,,37,105
543360,note_on,,,,,12,0,13,,,,11,,,61,92
543360,note_on,,,,,192,0,15,,,,13,,,37,105
543600,note_on,,,,,0,0,15,,,,13,,,45,105
543600,note_on,,,,,240,0,15,,,,13,,,37,0
543840,note_on,,,,,576,0,8,,,,4,,,69,92
543840,note_on,,,,,0,0,6,,,,3,,,57,92
543840,note_on,,,,,0,0,15,,,,13,,,54,105
543840,note_on,,,,,240,0,15,,,,13,,,45,0
543840,note_on,,,,,0,0,3,,,,1,,,66,92
543840,note_on,,,,,576,0,3,,,,1,,,69,92
543840,note_on,,,,,0,0,8,,,,4,,,66,92
543840,note_on,,,,,576,0,9,,,,5,,,61,92
543840,note_on,,,,,576,0,6,,,,3,,,49,92
543840,note_on,,,,,576,0,1,,,,0,,,81,92
543840,note_on,,,,,0,0,1,,,,0,,,85,92
544080,note_on,,,,,0,0,15,,,,13,,,57,105
544080,note_on,,,,,240,0,15,,,,13,,,54,0
544128,note_on,,,,,0,0,14,,,,12,,,57,0
544128,note_on,,,,,768,0,14,,,,12,,,54,0
544272,note_on,,,,,192,0,15,,,,13,,,57,0
544320,note_on,,,,,0,0,14,,,,12,,,57,92
544320,note_on,,,,,192,0,14,,,,12,,,54,92
544320,note_on,,,,,48,0,15,,,,13,,,49,105
544512,note_on,,,,,1152,0,16,,,,14,,,37,0
544560,note_on,,,,,0,0,14,,,,12,,,54,0
544560,note_on,,,,,0,0,14,,,,12,,,57,92
544560,note_on,,,,,0,0,13,,,,11,,,60,92
544560,note_on,,,,,0,0,14,,,,12,,,61,92
544560,note_on,,,,,1200,0,13,,,,11,,,61,0
544560,note_on,,,,,240,0,14,,,,12,,,57,0
544560,note_on,,,,,1200,0,12,,,,10,,,73,0
544560,note_on,,,,,0,0,12,,,,10,,,72,105
544608,note_on,,,,,0,0,8,,,,4,,,69,0
544608,note_on,,,,,768,0,1,,,,0,,,85,0
544608,note_on,,,,,768,0,8,,,,4,,,66,0
544608,note_on,,,,,0,0,1,,,,0,,,81,0
544608,note_on,,,,,0,0,3,,,,1,,,69,0
544608,note_on,,,,,0,0,6,,,,3,,,49,0
544608,note_on,,,,,768,0,6,,,,3,,,57,0
544608,note_on,,,,,768,0,9,,,,5,,,61,0
544608,note_on,,,,,768,0,3,,,,1,,,66,0
544800,note_on,,,,,240,0,12,,,,10,,,72,0
544800,note_on,,,,,240,0,13,,,,11,,,60,0
544800,note_on,,,,,192,0,1,,,,0,,,81,92
544800,note_on,,,,,0,0,1,,,,0,,,85,92
544800,note_on,,,,,0,0,13,,,,11,,,61,92
544800,note_on,,,,,0,0,14,,,,12,,,61,92
544800,note_on,,,,,0,0,14,,,,12,,,61,0
544800,note_on,,,,,0,0,14,,,,12,,,66,92
544800,note_on,,,,,192,0,6,,,,3,,,49,92
544800,note_on,,,,,192,0,9,,,,5,,,61,92
544800,note_on,,,,,0,0,12,,,,10,,,73,105
544800,note_on,,,,,0,0,8,,,,4,,,69,92
544800,note_on,,,,,192,0,8,,,,4,,,66,92
544800,note_on,,,,,0,0,6,,,,3,,,57,92
544800,note_on,,,,,0,0,3,,,,1,,,66,92
544800,note_on,,,,,192,0,3,,,,1,,,69,92
544800,note_on,,,,,240,0,14,,,,12,,,57,0
544800,note_on,,,,,288,0,16,,,,14,,,37,105
545040,note_on,,,,,240,0,14,,,,12,,,61,0
545040,note_on,,,,,0,0,14,,,,12,,,66,0
545040,note_on,,,,,0,0,14,,,,12,,,66,92
545040,note_on,,,,,0,0,14,,,,12,,,69,92
545040,note_on,,,,,240,0,13,,,,11,,,61,0
545040,note_on,,,,,0,0,12,,,,10,,,69,105
545040,note_on,,,,,0,0,13,,,,11,,,57,92
545040,note_on,,,,,240,0,12,,,,10,,,73,0
545088,note_on,,,,,768,0,15,,,,13,,,49,0
545184,note_on,,,,,384,0,6,,,,3,,,57,0
545184,note_on,,,,,0,0,3,,,,1,,,69,0
545184,note_on,,,,,384,0,9,,,,5,,,61,0
545184,note_on,,,,,0,0,6,,,,3,,,49,0
545184,note_on,,,,,384,0,1,,,,0,,,85,0
545184,note_on,,,,,0,0,1,,,,0,,,81,0
545184,note_on,,,,,384,0,3,,,,1,,,66,0
545184,note_on,,,,,384,0,16,,,,14,,,37,0
545184,note_on,,,,,384,0,8,,,,4,,,69,0
545184,note_on,,,,,0,0,8,,,,4,,,66,0
545232,note_on,,,,,0,0,14,,,,12,,,66,0
545232,note_on,,,,,192,0,14,,,,12,,,69,0
545268,note_on,,,,,228,0,13,,,,11,,,57,0
545268,note_on,,,,,228,0,12,,,,10,,,69,0
545280,note_on,,,,,96,0,16,,,,14,,,36,105
545280,note_on,,,,,12,0,13,,,,11,,,74,92
545280,note_on,,,,,0,0,14,,,,12,,,54,92
545280,note_on,,,,,48,0,14,,,,12,,,57,92
545280,note_on,,,,,12,0,12,,,,10,,,86,105
545280,note_on,,,,,192,0,15,,,,13,,,36,105
545520,note_on,,,,,0,0,15,,,,13,,,45,105
545520,note_on,,,,,240,0,15,,,,13,,,36,0
545760,note_on,,,,,0,0,6,,,,3,,,48,92
545760,note_on,,,,,0,0,1,,,,0,,,86,92
545760,note_on,,,,,0,0,8,,,,4,,,69,92
545760,note_on,,,,,576,0,8,,,,4,,,66,92
545760,note_on,,,,,576,0,9,,,,5,,,62,92
545760,note_on,,,,,576,0,3,,,,1,,,78,92
545760,note_on,,,,,0,0,3,,,,1,,,69,92
545760,note_on,,,,,0,0,15,,,,13,,,54,105
545760,note_on,,,,,240,0,15,,,,13,,,45,0
545760,note_on,,,,,576,0,1,,,,0,,,81,92
545760,note_on,,,,,576,0,6,,,,3,,,57,92
546000,note_on,,,,,240,0,15,,,,13,,,54,0
546000,note_on,,,,,0,0,15,,,,13,,,57,105
546048,note_on,,,,,0,0,14,,,,12,,,57,0
546048,note_on,,,,,768,0,14,,,,12,,,54,0
546192,note_on,,,,,192,0,15,,,,13,,,57,0
546240,note_on,,,,,0,0,14,,,,12,,,57,92
546240,note_on,,,,,192,0,14,,,,12,,,54,92
546240,note_on,,,,,48,0,15,,,,13,,,48,105
546432,note_on,,,,,1152,0,16,,,,14,,,36,0
546480,note_on,,,,,0,0,14,,,,12,,,54,0
546480,note_on,,,,,0,0,12,,,,10,,,81,105
546480,note_on,,,,,1200,0,12,,,,10,,,86,0
546480,note_on,,,,,0,0,14,,,,12,,,57,92
546480,note_on,,,,,240,0,14,,,,12,,,57,0
546480,note_on,,,,,0,0,14,,,,12,,,62,92
546480,note_on,,,,,0,0,13,,,,11,,,69,92
546480,note_on,,,,,1200,0,13,,,,11,,,74,0
546528,note_on,,,,,0,0,8,,,,4,,,66,0
546528,note_on,,,,,0,0,3,,,,1,,,78,0
546528,note_on,,,,,768,0,3,,,,1,,,69,0
546528,note_on,,,,,768,0,9,,,,5,,,62,0
546528,note_on,,,,,768,0,1,,,,0,,,86,0
546528,note_on,,,,,0,0,1,,,,0,,,81,0
546528,note_on,,,,,768,0,8,,,,4,,,69,0
546528,note_on,,,,,0,0,6,,,,3,,,57,0
546528,note_on,,,,,768,0,6,,,,3,,,48,0
546720,note_on,,,,,0,0,13,,,,11,,,66,92
546720,note_on,,,,,192,0,8,,,,4,,,69,92
546720,note_on,,,,,0,0,8,,,,4,,,66,92
546720,note_on,,,,,0,0,6,,,,3,,,57,92
546720,note_on,,,,,288,0,16,,,,14,,,36,105
546720,note_on,,,,,192,0,9,,,,5,,,62,92
546720,note_on,,,,,192,0,6,,,,3,,,48,92
546720,note_on,,,,,240,0,13,,,,11,,,69,0
546720,note_on,,,,,0,0,12,,,,10,,,78,105
546720,note_on,,,,,240,0,12,,,,10,,,81,0
546720,note_on,,,,,192,0,1,,,,0,,,81,92
546720,note_on,,,,,0,0,14,,,,12,,,66,92
546720,note_on,,,,,0,0,14,,,,12,,,62,92
546720,note_on,,,,,0,0,14,,,,12,,,62,0
546720,note_on,,,,,240,0,14,,,,12,,,57,0
546720,note_on,,,,,0,0,1,,,,0,,,86,92
546720,note_on,,,,,0,0,3,,,,1,,,69,92
546720,note_on,,,,,192,0,3,,,,1,,,78,92
546960,note_on,,,,,0,0,13,,,,11,,,62,92
546960,note_on,,,,,0,0,14,,,,12,,,62,0
546960,note_on,,,,,0,0,14,,,,12,,,66,92
546960,note_on,,,,,0,0,14,,,,12,,,69,92
546960,note_on,,,,,240,0,13,,,,11,,,66,0
546960,note_on,,,,,0,0,12,,,,10,,,74,105
546960,note_on,,,,,240,0,14,,,,12,,,66,0
546960,note_on,,,,,240,0,12,,,,10,,,78,0
547008,note_on,,,,,768,0,15,,,,13,,,48,0
547104,note_on,,,,,384,0,16,,,,14,,,36,0
547104,note_on,,,,,0,0,3,,,,1,,,78,0
547104,note_on,,,,,384,0,3,,,,1,,,69,0
547104,note_on,,,,,384,0,9,,,,5,,,62,0
547104,note_on,,,,,384,0,6,,,,3,,,57,0
547104,note_on,,,,,0,0,1,,,,0,,,81,0
547104,note_on,,,,,384,0,1,,,,0,,,86,0
547104,note_on,,,,,0,0,6,,,,3,,,48,0
547104,note_on,,,,,384,0,8,,,,4,,,66,0
547104,note_on,,,,,0,0,8,,,,4,,,69,0
547152,note_on,,,,,192,0,14,,,,12,,,69,0
547152,note_on,,,,,0,0,14,,,,12,,,66,0
547188,note_on,,,,,228,0,13,,,,11,,,62,0
547188,note_on,,,,,228,0,12,,,,10,,,74,0
547200,note_on,,,,,0,0,14,,,,12,,,71,92
547200,note_on,,,,,12,0,13,,,,11,,,66,92
547200,note_on,,,,,0,0,6,,,,3,,,47,92
547200,note_on,,,,,96,0,6,,,,3,,,54,92
547200,note_on,,,,,96,0,3,,,,1,,,69,92
547200,note_on,,,,,96,0,16,,,,14,,,35,105
547200,note_on,,,,,0,0,3,,,,1,,,75,92
547200,note_on,,,,,96,0,9,,,,5,,,63,92
547200,note_on,,,,,48,0,14,,,,12,,,63,92
547200,note_on,,,,,0,0,8,,,,4,,,66,92
547200,note_on,,,,,0,0,13,,,,11,,,69,92
547200,note_on,,,,,96,0,8,,,,4,,,69,92
547200,note_on,,,,,96,0,1,,,,0,,,81,92
547200,note_on,,,,,0,0,1,,,,0,,,87,92
547200,note_on,,,,,192,0,15,,,,13,,,47,105
547200,note_on,,,,,12,0,12,,,,10,,,75,105
547584,note_on,,,,,384,0,13,,,,11,,,69,0
547584,note_on,,,,,0,0,1,,,,0,,,81,0
547584,note_on,,,,,0,0,13,,,,11,,,66,0
547584,note_on,,,,,0,0,3,,,,1,,,69,0
547584,note_on,,,,,384,0,3,,,,1,,,75,0
547584,note_on,,,,,384,0,6,,,,3,,,47,0
547584,note_on,,,,,0,0,14,,,,12,,,63,0
547584,note_on,,,,,384,0,12,,,,10,,,75,0
547584,note_on,,,,,384,0,15,,,,13,,,47,0
547584,note_on,,,,,384,0,1,,,,0,,,87,0
547584,note_on,,,,,0,0,8,,,,4,,,69,0
547584,note_on,,,,,384,0,8,,,,4,,,66,0
547584,note_on,,,,,384,0,16,,,,14,,,35,0
547584,note_on,,,,,384,0,14,,,,12,,,71,0
547584,note_on,,,,,384,0,9,,,,5,,,63,0
547584,note_on,,,,,0,0,6,,,,3,,,54,0
547680,note_on,,,,,0,0,8,,,,4,,,71,92
547680,note_on,,,,,96,0,8,,,,4,,,67,92
547680,note_on,,,,,96,0,15,,,,13,,,59,105
547680,note_on,,,,,96,0,3,,,,1,,,83,92
547680,note_on,,,,,0,0,3,,,,1,,,71,92
547680,note_on,,,,,96,0,1,,,,0,,,79,92
547680,note_on,,,,,0,0,1,,,,0,,,83,92
547680,note_on,,,,,96,0,16,,,,14,,,47,105
547680,note_on,,,,,96,0,6,,,,3,,,59,92
547680,note_on,,,,,7776,0,4,,,,2,,,67,92
547680,note_on,,,,,0,0,6,,,,3,,,47,92
547680,note_on,,,,,0,0,4,,,,2,,,71,92
547680,note_on,,,,,96,0,14,,,,12,,,67,112
547680,note_on,,,,,96,0,13,,,,11,,,71,112
547920,note_on,,,,,336,0,12,,,,10,,,79,105
548064,note_on,,,,,0,0,3,,,,1,,,83,0
548064,note_on,,,,,384,0,3,,,,1,,,71,0
548160,note_on,,,,,96,0,3,,,,1,,,84,92
548160,note_on,,,,,0,0,3,,,,1,,,72,92
548160,note_on,,,,,240,0,12,,,,10,,,79,0
548160,note_on,,,,,0,0,12,,,,10,,,72,105
548256,note_on,,,,,576,0,13,,,,11,,,71,0
548256,note_on,,,,,576,0,14,,,,12,,,67,0
548400,note_on,,,,,144,0,13,,,,11,,,67,92
548400,note_on,,,,,144,0,14,,,,12,,,64,92
548448,note_on,,,,,768,0,6,,,,3,,,47,0
548448,note_on,,,,,0,0,4,,,,2,,,67,0
548448,note_on,,,,,0,0,8,,,,4,,,67,0
548448,note_on,,,,,768,0,8,,,,4,,,71,0
548448,note_on,,,,,768,0,15,,,,13,,,59,0
548448,note_on,,,,,0,0,6,,,,3,,,59,0
548448,note_on,,,,,768,0,4,,,,2,,,71,0
548448,note_on,,,,,0,0,1,,,,0,,,79,0
548448,note_on,,,,,768,0,16,,,,14,,,47,0
548448,note_on,,,,,768,0,1,,,,0,,,83,0
548544,note_on,,,,,384,0,12,,,,10,,,72,0
548640,note_on,,,,,0,0,6,,,,3,,,47,92
548640,note_on,,,,,192,0,16,,,,14,,,35,105
548640,note_on,,,,,192,0,1,,,,0,,,81,92
548640,note_on,,,,,192,0,8,,,,4,,,69,92
548640,note_on,,,,,0,0,8,,,,4,,,66,92
548640,note_on,,,,,240,0,13,,,,11,,,67,0
548640,note_on,,,,,192,0,6,,,,3,,,35,92
548640,note_on,,,,,0,0,1,,,,0,,,78,92
548640,note_on,,,,,0,0,4,,,,2,,,66,92
548640,note_on,,,,,240,0,14,,,,12,,,64,0
548640,note_on,,,,,0,0,13,,,,11,,,69,92
548640,note_on,,,,,192,0,4,,,,2,,,69,92
548640,note_on,,,,,192,0,15,,,,13,,,47,105
548640,note_on,,,,,0,0,14,,,,12,,,66,92
548880,note_on,,,,,336,0,12,,,,10,,,78,105
548928,note_on,,,,,0,0,3,,,,1,,,84,0
548928,note_on,,,,,768,0,3,,,,1,,,72,0
549120,note_on,,,,,0,0,3,,,,1,,,83,92
549120,note_on,,,,,192,0,3,,,,1,,,71,92
549120,note_on,,,,,0,0,12,,,,10,,,71,105
549120,note_on,,,,,240,0,12,,,,10,,,78,0
549312,note_on,,,,,672,0,14,,,,12,,,66,0
549312,note_on,,,,,672,0,13,,,,11,,,69,0
549360,note_on,,,,,48,0,14,,,,12,,,63,92
549360,note_on,,,,,48,0,13,,,,11,,,66,92
549504,note_on,,,,,864,0,1,,,,0,,,78,0
549504,note_on,,,,,0,0,4,,,,2,,,69,0
549504,note_on,,,,,864,0,4,,,,2,,,66,0
549504,note_on,,,,,864,0,6,,,,3,,,47,0
549504,note_on,,,,,0,0,6,,,,3,,,35,0
549504,note_on,,,,,0,0,1,,,,0,,,81,0
549504,note_on,,,,,0,0,8,,,,4,,,69,0
549504,note_on,,,,,864,0,8,,,,4,,,66,0
549504,note_on,,,,,384,0,12,,,,10,,,71,0
549552,note_on,,,,,912,0,15,,,,13,,,47,0
549552,note_on,,,,,912,0,16,,,,14,,,35,0
549600,note_on,,,,,96,0,4,,,,2,,,64,92
549600,note_on,,,,,0,0,13,,,,11,,,67,92
549600,note_on,,,,,240,0,13,,,,11,,,66,0
549600,note_on,,,,,0,0,4,,,,2,,,67,92
549600,note_on,,,,,0,0,14,,,,12,,,64,92
549600,note_on,,,,,240,0,14,,,,12,,,63,0
549600,note_on,,,,,96,0,6,,,,3,,,47,92
549600,note_on,,,,,48,0,15,,,,13,,,59,105
549600,note_on,,,,,48,0,16,,,,14,,,47,105
549600,note_on,,,,,96,0,1,,,,0,,,79,92
549600,note_on,,,,,96,0,8,,,,4,,,64,92
549600,note_on,,,,,0,0,8,,,,4,,,67,92
549600,note_on,,,,,0,0,6,,,,3,,,59,92
549600,note_on,,,,,0,0,1,,,,0,,,76,92
549840,note_on,,,,,336,0,12,,,,10,,,88,105
549840,note_on,,,,,240,0,14,,,,12,,,64,0
549840,note_on,,,,,240,0,13,,,,11,,,67,0
549840,note_on,,,,,0,0,14,,,,12,,,67,92
549840,note_on,,,,,0,0,13,,,,11,,,71,92
549888,note_on,,,,,0,0,3,,,,1,,,71,0
549888,note_on,,,,,768,0,3,,,,1,,,83,0
549984,note_on,,,,,0,0,8,,,,4,,,64,0
549984,note_on,,,,,0,0,1,,,,0,,,79,0
549984,note_on,,,,,0,0,4,,,,2,,,64,0
549984,note_on,,,,,384,0,1,,,,0,,,76,0
549984,note_on,,,,,384,0,8,,,,4,,,67,0
549984,note_on,,,,,0,0,6,,,,3,,,47,0
549984,note_on,,,,,384,0,6,,,,3,,,59,0
549984,note_on,,,,,384,0,4,,,,2,,,67,0
550032,note_on,,,,,192,0,13,,,,11,,,71,0
550032,note_on,,,,,432,0,15,,,,13,,,59,0
550032,note_on,,,,,192,0,14,,,,12,,,67,0
550032,note_on,,,,,432,0,16,,,,14,,,47,0
550080,note_on,,,,,48,0,13,,,,11,,,76,92
550080,note_on,,,,,96,0,1,,,,0,,,81,92
550080,note_on,,,,,48,0,14,,,,12,,,67,92
550080,note_on,,,,,0,0,1,,,,0,,,84,92
550080,note_on,,,,,192,0,3,,,,1,,,72,92
550080,note_on,,,,,48,0,15,,,,13,,,47,105
550080,note_on,,,,,0,0,8,,,,4,,,72,92
550080,note_on,,,,,0,0,6,,,,3,,,35,92
550080,note_on,,,,,96,0,6,,,,3,,,47,92
550080,note_on,,,,,48,0,16,,,,14,,,35,105
550080,note_on,,,,,240,0,12,,,,10,,,88,0
550080,note_on,,,,,96,0,8,,,,4,,,69,92
550080,note_on,,,,,0,0,12,,,,10,,,81,105
550080,note_on,,,,,0,0,4,,,,2,,,69,92
550080,note_on,,,,,96,0,4,,,,2,,,72,92
550080,note_on,,,,,0,0,3,,,,1,,,81,92
550272,note_on,,,,,192,0,12,,,,10,,,81,0
550320,note_on,,,,,240,0,13,,,,11,,,76,0
550320,note_on,,,,,0,0,14,,,,12,,,66,92
550320,note_on,,,,,240,0,14,,,,12,,,67,0
550320,note_on,,,,,0,0,13,,,,11,,,74,92
550320,note_on,,,,,48,0,12,,,,10,,,86,105
550464,note_on,,,,,384,0,6,,,,3,,,35,0
550464,note_on,,,,,0,0,6,,,,3,,,47,0
550464,note_on,,,,,0,0,3,,,,1,,,72,0
550464,note_on,,,,,384,0,4,,,,2,,,69,0
550464,note_on,,,,,0,0,4,,,,2,,,72,0
550464,note_on,,,,,384,0,1,,,,0,,,84,0
550464,note_on,,,,,0,0,1,,,,0,,,81,0
550464,note_on,,,,,384,0,8,,,,4,,,72,0
550464,note_on,,,,,0,0,8,,,,4,,,69,0
550464,note_on,,,,,384,0,3,,,,1,,,81,0
550512,note_on,,,,,192,0,13,,,,11,,,74,0
550512,note_on,,,,,432,0,16,,,,14,,,35,0
550512,note_on,,,,,432,0,15,,,,13,,,47,0
550512,note_on,,,,,192,0,14,,,,12,,,66,0
550560,note_on,,,,,48,0,16,,,,14,,,47,105
550560,note_on,,,,,0,0,1,,,,0,,,79,92
550560,note_on,,,,,96,0,6,,,,3,,,59,92
550560,note_on,,,,,0,0,4,,,,2,,,71,92
550560,note_on,,,,,96,0,4,,,,2,,,67,92
550560,note_on,,,,,48,0,14,,,,12,,,66,92
550560,note_on,,,,,240,0,12,,,,10,,,86,0
550560,note_on,,,,,48,0,15,,,,13,,,59,105
550560,note_on,,,,,96,0,1,,,,0,,,83,92
550560,note_on,,,,,0,0,12,,,,10,,,79,105
550560,note_on,,,,,0,0,6,,,,3,,,47,92
550560,note_on,,,,,0,0,8,,,,4,,,71,92
550560,note_on,,,,,96,0,3,,,,1,,,79,92
550560,note_on,,,,,0,0,3,,,,1,,,71,92
550560,note_on,,,,,96,0,8,,,,4,,,67,92
550560,note_on,,,,,48,0,13,,,,11,,,74,92
550752,note_on,,,,,192,0,12,,,,10,,,79,0
550800,note_on,,,,,0,0,13,,,,11,,,72,92
550800,note_on,,,,,240,0,13,,,,11,,,74,0
550800,note_on,,,,,240,0,14,,,,12,,,66,0
550800,note_on,,,,,48,0,12,,,,10,,,84,105
550800,note_on,,,,,0,0,14,,,,12,,,64,92
550944,note_on,,,,,0,0,1,,,,0,,,83,0
550944,note_on,,,,,384,0,6,,,,3,,,47,0
550944,note_on,,,,,384,0,3,,,,1,,,71,0
550944,note_on,,,,,0,0,3,,,,1,,,79,0
550944,note_on,,,,,384,0,4,,,,2,,,71,0
550944,note_on,,,,,0,0,4,,,,2,,,67,0
550944,note_on,,,,,0,0,8,,,,4,,,67,0
550944,note_on,,,,,384,0,1,,,,0,,,79,0
550944,note_on,,,,,384,0,8,,,,4,,,71,0
550944,note_on,,,,,0,0,6,,,,3,,,59,0
550992,note_on,,,,,192,0,13,,,,11,,,72,0
550992,note_on,,,,,432,0,16,,,,14,,,47,0
550992,note_on,,,,,192,0,14,,,,12,,,64,0
550992,note_on,,,,,432,0,15,,,,13,,,59,0
551040,note_on,,,,,48,0,14,,,,12,,,64,92
551040,note_on,,,,,0,0,4,,,,2,,,69,92
551040,note_on,,,,,96,0,8,,,,4,,,66,92
551040,note_on,,,,,0,0,1,,,,0,,,78,92
551040,note_on,,,,,96,0,1,,,,0,,,81,92
551040,note_on,,,,,96,0,4,,,,2,,,66,92
551040,note_on,,,,,0,0,8,,,,4,,,69,92
551040,note_on,,,,,0,0,6,,,,3,,,47,92
551040,note_on,,,,,96,0,6,,,,3,,,35,92
551040,note_on,,,,,96,0,3,,,,1,,,69,92
551040,note_on,,,,,0,0,3,,,,1,,,78,92
551040,note_on,,,,,48,0,13,,,,11,,,72,92
551040,note_on,,,,,48,0,16,,,,14,,,35,105
551040,note_on,,,,,240,0,12,,,,10,,,84,0
551040,note_on,,,,,0,0,12,,,,10,,,78,105
551040,note_on,,,,,48,0,15,,,,13,,,47,105
551232,note_on,,,,,192,0,12,,,,10,,,78,0
551280,note_on,,,,,240,0,14,,,,12,,,64,0
551280,note_on,,,,,48,0,12,,,,10,,,83,105
551280,note_on,,,,,0,0,14,,,,12,,,62,92
551280,note_on,,,,,240,0,13,,,,11,,,72,0
551280,note_on,,,,,0,0,13,,,,11,,,71,92
551424,note_on,,,,,384,0,4,,,,2,,,69,0
551424,note_on,,,,,384,0,1,,,,0,,,78,0
551424,note_on,,,,,0,0,4,,,,2,,,66,0
551424,note_on,,,,,384,0,6,,,,3,,,47,0
551424,note_on,,,,,0,0,8,,,,4,,,66,0
551424,note_on,,,,,0,0,3,,,,1,,,69,0
551424,note_on,,,,,384,0,3,,,,1,,,78,0
551424,note_on,,,,,384,0,8,,,,4,,,69,0
551424,note_on,,,,,0,0,6,,,,3,,,35,0
551424,note_on,,,,,0,0,1,,,,0,,,81,0
551472,note_on,,,,,432,0,16,,,,14,,,35,0
551472,note_on,,,,,432,0,15,,,,13,,,47,0
551472,note_on,,,,,192,0,13,,,,11,,,71,0
551472,note_on,,,,,192,0,14,,,,12,,,62,0
551520,note_on,,,,,0,0,8,,,,4,,,67,92
551520,note_on,,,,,48,0,16,,,,14,,,47,105
551520,note_on,,,,,48,0,15,,,,13,,,59,105
551520,note_on,,,,,96,0,8,,,,4,,,64,92
551520,note_on,,,,,96,0,1,,,,0,,,76,92
551520,set_tempo,,,,,27360,1,0,441176,,,,,,,
551520,note_on,,,,,96,0,3,,,,1,,,67,92
551520,note_on,,,,,0,0,1,,,,0,,,79,92
551520,note_on,,,,,240,0,12,,,,10,,,83,0
551520,note_on,,,,,96,0,6,,,,3,,,47,92
551520,note_on,,,,,0,0,6,,,,3,,,59,92
551520,note_on,,,,,48,0,14,,,,12,,,62,92
551520,note_on,,,,,0,0,3,,,,1,,,76,92
551520,note_on,,,,,0,0,12,,,,10,,,76,105
551520,note_on,,,,,0,0,4,,,,2,,,64,92
551520,note_on,,,,,96,0,4,,,,2,,,67,92
551520,note_on,,,,,48,0,13,,,,11,,,71,92
551712,note_on,,,,,192,0,12,,,,10,,,76,0
551760,note_on,,,,,240,0,14,,,,12,,,62,0
551760,note_on,,,,,0,0,13,,,,11,,,69,92
551760,note_on,,,,,240,0,13,,,,11,,,71,0
551760,note_on,,,,,48,0,12,,,,10,,,81,105
551760,note_on,,,,,0,0,14,,,,12,,,60,92
551904,note_on,,,,,0,0,8,,,,4,,,64,0
551904,note_on,,,,,384,0,8,,,,4,,,67,0
551904,note_on,,,,,384,0,1,,,,0,,,79,0
551904,note_on,,,,,0,0,6,,,,3,,,47,0
551904,note_on,,,,,384,0,3,,,,1,,,76,0
551904,note_on,,,,,0,0,3,,,,1,,,67,0
551904,note_on,,,,,0,0,4,,,,2,,,67,0
551904,note_on,,,,,384,0,4,,,,2,,,64,0
551904,note_on,,,,,0,0,1,,,,0,,,76,0
551904,note_on,,,,,384,0,6,,,,3,,,59,0
551952,note_on,,,,,432,0,16,,,,14,,,47,0
551952,note_on,,,,,432,0,15,,,,13,,,59,0
551952,note_on,,,,,192,0,13,,,,11,,,69,0
551952,note_on,,,,,192,0,14,,,,12,,,60,0
552000,note_on,,,,,48,0,14,,,,12,,,60,92
552000,note_on,,,,,0,0,8,,,,4,,,63,92
552000,note_on,,,,,48,0,16,,,,14,,,35,105
552000,note_on,,,,,96,0,8,,,,4,,,66,92
552000,note_on,,,,,0,0,12,,,,10,,,75,105
552000,note_on,,,,,240,0,12,,,,10,,,81,0
552000,note_on,,,,,48,0,13,,,,11,,,69,92
552000,note_on,,,,,96,0,6,,,,3,,,57,92
552000,note_on,,,,,48,0,15,,,,13,,,47,105
552000,note_on,,,,,0,0,6,,,,3,,,60,92
552000,note_on,,,,,0,0,3,,,,1,,,69,92
552000,set_tempo,,,,,480,1,0,444444,,,,,,,
552000,note_on,,,,,0,0,4,,,,2,,,72,92
552000,note_on,,,,,96,0,4,,,,2,,,69,92
552000,note_on,,,,,0,0,1,,,,0,,,75,92
552000,note_on,,,,,96,0,1,,,,0,,,78,92
552000,note_on,,,,,96,0,3,,,,1,,,75,92
552240,note_on,,,,,240,0,14,,,,12,,,60,0
552240,note_on,,,,,0,0,14,,,,12,,,59,92
552240,note_on,,,,,0,0,13,,,,11,,,67,92
552240,note_on,,,,,0,0,6,,,,3,,,55,92
552240,note_on,,,,,0,0,6,,,,3,,,57,0
552240,note_on,,,,,0,0,6,,,,3,,,59,92
552240,note_on,,,,,240,0,6,,,,3,,,60,0
552240,note_on,,,,,0,0,4,,,,2,,,69,0
552240,note_on,,,,,240,0,13,,,,11,,,69,0
552240,note_on,,,,,0,0,4,,,,2,,,67,92
552240,note_on,,,,,240,0,4,,,,2,,,72,0
552240,note_on,,,,,0,0,4,,,,2,,,71,92
552432,note_on,,,,,192,0,13,,,,11,,,67,0
552432,note_on,,,,,0,0,6,,,,3,,,59,0
552432,note_on,,,,,192,0,6,,,,3,,,55,0
552432,note_on,,,,,0,0,4,,,,2,,,67,0
552432,note_on,,,,,192,0,14,,,,12,,,59,0
552432,note_on,,,,,432,0,16,,,,14,,,35,0
552432,note_on,,,,,192,0,4,,,,2,,,71,0
552432,note_on,,,,,432,0,15,,,,13,,,47,0
552480,note_on,,,,,0,0,6,,,,3,,,59,92
552480,note_on,,,,,48,0,6,,,,3,,,55,92
552480,note_on,,,,,48,0,14,,,,12,,,59,92
552480,note_on,,,,,480,0,1,,,,0,,,78,0
552480,set_tempo,,,,,480,1,0,451128,,,,,,,
552480,note_on,,,,,48,0,4,,,,2,,,67,92
552480,note_on,,,,,0,0,4,,,,2,,,71,92
552480,note_on,,,,,48,0,16,,,,14,,,47,105
552480,note_on,,,,,48,0,15,,,,13,,,59,105
552480,note_on,,,,,48,0,13,,,,11,,,67,92
552684,note_on,,,,,684,0,12,,,,10,,,75,0
552720,note_on,,,,,240,0,6,,,,3,,,59,0
552720,note_on,,,,,240,0,4,,,,2,,,71,0
552720,note_on,,,,,0,0,4,,,,2,,,67,0
552720,note_on,,,,,0,0,4,,,,2,,,69,92
552720,note_on,,,,,0,0,4,,,,2,,,66,92
552720,note_on,,,,,0,0,6,,,,3,,,55,0
552720,note_on,,,,,0,0,6,,,,3,,,54,92
552720,note_on,,,,,0,0,6,,,,3,,,57,92
552720,note_on,,,,,0,0,14,,,,12,,,57,92
552720,note_on,,,,,240,0,13,,,,11,,,67,0
552720,note_on,,,,,0,0,13,,,,11,,,66,92
552720,note_on,,,,,36,0,12,,,,10,,,75,105
552720,note_on,,,,,240,0,14,,,,12,,,59,0
552768,note_on,,,,,768,0,3,,,,1,,,69,0
552768,note_on,,,,,0,0,8,,,,4,,,66,0
552768,note_on,,,,,768,0,8,,,,4,,,63,0
552768,note_on,,,,,0,0,3,,,,1,,,75,0
552864,note_on,,,,,384,0,1,,,,0,,,75,0
552912,note_on,,,,,192,0,14,,,,12,,,57,0
552912,note_on,,,,,0,0,6,,,,3,,,54,0
552912,note_on,,,,,192,0,13,,,,11,,,66,0
552912,note_on,,,,,192,0,4,,,,2,,,66,0
552912,note_on,,,,,0,0,4,,,,2,,,69,0
552912,note_on,,,,,192,0,6,,,,3,,,57,0
552912,note_on,,,,,432,0,16,,,,14,,,47,0
552912,note_on,,,,,432,0,15,,,,13,,,59,0
552948,note_on,,,,,228,0,12,,,,10,,,75,0
552960,set_tempo,,,,,480,1,0,454545,,,,,,,
552960,note_on,,,,,192,0,3,,,,1,,,67,92
552960,note_on,,,,,48,0,4,,,,2,,,66,92
552960,note_on,,,,,0,0,4,,,,2,,,69,92
552960,note_on,,,,,48,0,15,,,,13,,,60,105
552960,note_on,,,,,0,0,3,,,,1,,,76,92
552960,note_on,,,,,96,0,1,,,,0,,,76,92
552960,note_on,,,,,48,0,6,,,,3,,,54,92
552960,note_on,,,,,48,0,13,,,,11,,,64,92
552960,note_on,,,,,5376,0,9,,,,5,,,60,112
552960,note_on,,,,,48,0,14,,,,12,,,55,92
552960,note_on,,,,,48,0,16,,,,14,,,48,105
552960,note_on,,,,,0,0,6,,,,3,,,57,92
552960,note_on,,,,,192,0,8,,,,4,,,64,92
552960,note_on,,,,,12,0,12,,,,10,,,76,105
553200,note_on,,,,,0,0,4,,,,2,,,64,92
553200,note_on,,,,,0,0,4,,,,2,,,67,92
553200,note_on,,,,,0,0,6,,,,3,,,55,92
553200,note_on,,,,,0,0,6,,,,3,,,52,92
553200,note_on,,,,,0,0,6,,,,3,,,54,0
553200,note_on,,,,,240,0,6,,,,3,,,57,0
553200,note_on,,,,,240,0,4,,,,2,,,69,0
553200,note_on,,,,,0,0,4,,,,2,,,66,0
553248,note_on,,,,,288,0,13,,,,11,,,64,0
553248,note_on,,,,,288,0,12,,,,10,,,76,0
553248,note_on,,,,,288,0,14,,,,12,,,55,0
553320,note_on,,,,,360,0,15,,,,13,,,60,0
553320,note_on,,,,,360,0,16,,,,14,,,48,0
553344,note_on,,,,,384,0,3,,,,1,,,76,0
553344,note_on,,,,,384,0,8,,,,4,,,64,0
553344,note_on,,,,,0,0,3,,,,1,,,67,0
553344,note_on,,,,,384,0,9,,,,5,,,60,0
553344,note_on,,,,,384,0,1,,,,0,,,76,0
553392,note_on,,,,,192,0,4,,,,2,,,67,0
553392,note_on,,,,,0,0,4,,,,2,,,64,0
553440,note_on,,,,,120,0,16,,,,14,,,40,105
553440,note_on,,,,,192,0,12,,,,10,,,79,105
553440,set_tempo,,,,,480,1,0,461538,,,,,,,
553440,note_on,,,,,192,0,13,,,,11,,,69,92
553440,note_on,,,,,120,0,15,,,,13,,,52,105
553440,note_on,,,,,96,0,3,,,,1,,,79,92
553440,note_on,,,,,0,0,6,,,,3,,,60,92
553440,note_on,,,,,0,0,6,,,,3,,,52,0
553440,note_on,,,,,240,0,6,,,,3,,,55,0
553440,note_on,,,,,192,0,14,,,,12,,,60,92
553440,note_on,,,,,96,0,9,,,,5,,,52,112
553440,note_on,,,,,96,0,8,,,,4,,,67,92
553440,note_on,,,,,0,0,4,,,,2,,,69,92
553440,note_on,,,,,48,0,4,,,,2,,,72,92
553440,note_on,,,,,0,0,6,,,,3,,,57,92
553680,note_on,,,,,240,0,14,,,,12,,,60,0
553680,note_on,,,,,0,0,14,,,,12,,,59,92
553680,note_on,,,,,240,0,13,,,,11,,,69,0
553680,note_on,,,,,0,0,13,,,,11,,,67,92
553680,note_on,,,,,0,0,6,,,,3,,,57,0
553680,note_on,,,,,0,0,6,,,,3,,,59,92
553680,note_on,,,,,0,0,6,,,,3,,,55,92
553680,note_on,,,,,240,0,6,,,,3,,,60,0
553680,note_on,,,,,0,0,4,,,,2,,,72,0
553680,note_on,,,,,0,0,4,,,,2,,,67,92
553680,note_on,,,,,0,0,4,,,,2,,,71,92
553680,note_on,,,,,240,0,4,,,,2,,,69,0
553800,note_on,,,,,360,0,15,,,,13,,,52,0
553800,note_on,,,,,360,0,16,,,,14,,,40,0
553824,note_on,,,,,384,0,9,,,,5,,,52,0
553824,note_on,,,,,384,0,8,,,,4,,,67,0
553872,note_on,,,,,192,0,13,,,,11,,,67,0
553872,note_on,,,,,192,0,4,,,,2,,,71,0
553872,note_on,,,,,0,0,4,,,,2,,,67,0
553872,note_on,,,,,0,0,6,,,,3,,,59,0
553872,note_on,,,,,192,0,6,,,,3,,,55,0
553872,note_on,,,,,192,0,14,,,,12,,,59,0
553896,note_on,,,,,456,0,12,,,,10,,,79,0
553920,note_on,,,,,0,0,9,,,,5,,,55,92
553920,set_tempo,,,,,480,1,0,465116,,,,,,,
553920,note_on,,,,,480,0,3,,,,1,,,79,0
553920,note_on,,,,,0,0,3,,,,1,,,75,92
553920,note_on,,,,,0,0,6,,,,3,,,59,92
553920,note_on,,,,,48,0,6,,,,3,,,55,92
553920,note_on,,,,,48,0,4,,,,2,,,67,92
553920,note_on,,,,,120,0,15,,,,13,,,55,105
553920,note_on,,,,,0,0,4,,,,2,,,71,92
553920,note_on,,,,,48,0,13,,,,11,,,67,92
553920,note_on,,,,,24,0,12,,,,10,,,75,105
553920,note_on,,,,,96,0,9,,,,5,,,43,92
553920,note_on,,,,,0,0,8,,,,4,,,67,92
553920,note_on,,,,,48,0,14,,,,12,,,59,92
553920,note_on,,,,,120,0,16,,,,14,,,43,105
553920,note_on,,,,,96,0,8,,,,4,,,71,92
554280,note_on,,,,,360,0,16,,,,14,,,43,0
554280,note_on,,,,,360,0,15,,,,13,,,55,0
554400,note_on,,,,,0,0,4,,,,2,,,67,0
554400,note_on,,,,,0,0,8,,,,4,,,69,92
554400,note_on,,,,,0,0,8,,,,4,,,65,92
554400,note_on,,,,,0,0,8,,,,4,,,71,0
554400,note_on,,,,,480,0,8,,,,4,,,67,0
554400,note_on,,,,,120,0,15,,,,13,,,43,105
554400,note_on,,,,,480,0,6,,,,3,,,59,0
554400,note_on,,,,,480,0,14,,,,12,,,59,0
554400,note_on,,,,,0,0,14,,,,12,,,57,92
554400,note_on,,,,,0,0,6,,,,3,,,55,0
554400,note_on,,,,,480,0,4,,,,2,,,71,0
554400,note_on,,,,,0,0,6,,,,3,,,53,92
554400,note_on,,,,,0,0,4,,,,2,,,65,92
554400,note_on,,,,,0,0,4,,,,2,,,69,92
554400,note_on,,,,,480,0,13,,,,11,,,67,0
554400,note_on,,,,,0,0,6,,,,3,,,57,92
554400,set_tempo,,,,,480,1,0,472441,,,,,,,
554400,note_on,,,,,0,0,13,,,,11,,,65,92
554400,note_on,,,,,120,0,16,,,,14,,,31,105
554604,note_on,,,,,684,0,12,,,,10,,,75,0
554640,note_on,,,,,36,0,12,,,,10,,,75,105
554688,note_on,,,,,0,0,9,,,,5,,,43,0
554688,note_on,,,,,768,0,9,,,,5,,,55,0
554688,note_on,,,,,768,0,3,,,,1,,,75,0
554760,note_on,,,,,360,0,15,,,,13,,,43,0
554760,note_on,,,,,360,0,16,,,,14,,,31,0
554784,note_on,,,,,384,0,8,,,,4,,,69,0
554784,note_on,,,,,384,0,14,,,,12,,,57,0
554784,note_on,,,,,0,0,6,,,,3,,,57,0
554784,note_on,,,,,384,0,6,,,,3,,,53,0
554784,note_on,,,,,0,0,8,,,,4,,,65,0
554784,note_on,,,,,384,0,13,,,,11,,,65,0
554868,note_on,,,,,228,0,12,,,,10,,,75,0
554880,note_on,,,,,0,0,4,,,,2,,,64,92
554880,note_on,,,,,0,0,9,,,,5,,,60,92
554880,note_on,,,,,12,0,12,,,,10,,,76,105
554880,note_on,,,,,192,0,9,,,,5,,,48,92
554880,set_tempo,,,,,480,1,0,454545,,,,,,,
554880,note_on,,,,,192,0,3,,,,1,,,76,92
554880,note_on,,,,,96,0,8,,,,4,,,64,92
554880,note_on,,,,,120,0,15,,,,13,,,48,105
554880,note_on,,,,,0,0,6,,,,3,,,55,92
554880,note_on,,,,,480,0,4,,,,2,,,65,0
554880,note_on,,,,,96,0,6,,,,3,,,52,92
554880,note_on,,,,,96,0,13,,,,11,,,64,92
554880,note_on,,,,,0,0,4,,,,2,,,69,0
554880,note_on,,,,,96,0,14,,,,12,,,55,105
554880,note_on,,,,,0,0,4,,,,2,,,67,92
554880,note_on,,,,,0,0,8,,,,4,,,67,92
554880,note_on,,,,,120,0,16,,,,14,,,36,105
555168,note_on,,,,,288,0,16,,,,14,,,36,0
555168,note_on,,,,,0,0,4,,,,2,,,67,0
555168,note_on,,,,,288,0,4,,,,2,,,64,0
555168,note_on,,,,,0,0,6,,,,3,,,52,0
555168,note_on,,,,,288,0,6,,,,3,,,55,0
555168,note_on,,,,,288,0,15,,,,13,,,48,0
555168,note_on,,,,,0,0,9,,,,5,,,48,0
555168,note_on,,,,,288,0,9,,,,5,,,60,0
555168,note_on,,,,,0,0,8,,,,4,,,64,0
555168,note_on,,,,,288,0,8,,,,4,,,67,0
555168,note_on,,,,,288,0,12,,,,10,,,76,0
555168,note_on,,,,,288,0,14,,,,12,,,55,0
555168,note_on,,,,,288,0,3,,,,1,,,76,0
555168,note_on,,,,,288,0,13,,,,11,,,64,0
555360,note_on,,,,,192,0,15,,,,13,,,60,105
555360,note_on,,,,,192,0,12,,,,10,,,91,105
555360,note_on,,,,,192,0,14,,,,12,,,64,105
555360,note_on,,,,,192,0,13,,,,11,,,79,105
555840,note_on,,,,,480,0,13,,,,11,,,79,0
555840,note_on,,,,,0,0,13,,,,11,,,78,105
555840,note_on,,,,,0,0,12,,,,10,,,90,105
555840,note_on,,,,,480,0,12,,,,10,,,91,0
556272,note_on,,,,,912,0,15,,,,13,,,60,0
556272,note_on,,,,,912,0,14,,,,12,,,64,0
556320,note_on,,,,,48,0,15,,,,13,,,62,105
556320,note_on,,,,,480,0,13,,,,11,,,78,0
556320,note_on,,,,,0,0,13,,,,11,,,76,105
556320,note_on,,,,,48,0,14,,,,12,,,66,105
556320,note_on,,,,,480,0,12,,,,10,,,90,0
556320,note_on,,,,,0,0,12,,,,10,,,88,105
556800,note_on,,,,,480,0,13,,,,11,,,76,0
556800,note_on,,,,,0,0,13,,,,11,,,74,105
556800,note_on,,,,,480,0,12,,,,10,,,88,0
556800,set_tempo,,,,,1920,1,0,447761,,,,,,,
556800,note_on,,,,,0,0,12,,,,10,,,86,105
557184,note_on,,,,,864,0,14,,,,12,,,66,0
557184,note_on,,,,,864,0,15,,,,13,,,62,0
557280,note_on,,,,,480,0,12,,,,10,,,86,0
557280,note_on,,,,,0,0,12,,,,10,,,84,105
557280,note_on,,,,,96,0,15,,,,13,,,67,92
557280,note_on,,,,,0,0,13,,,,11,,,72,105
557280,note_on,,,,,480,0,13,,,,11,,,74,0
557280,note_on,,,,,96,0,14,,,,12,,,64,92
557750,note_on,,,,,470,0,13,,,,11,,,72,0
557750,note_on,,,,,470,0,12,,,,10,,,84,0
557760,note_on,,,,,480,0,14,,,,12,,,64,0
557760,note_on,,,,,10,0,12,,,,10,,,79,105
557760,note_on,,,,,10,0,13,,,,11,,,67,105
557760,note_on,,,,,0,0,15,,,,13,,,66,92
557760,note_on,,,,,480,0,15,,,,13,,,67,0
557760,note_on,,,,,0,0,14,,,,12,,,62,92
558240,note_on,,,,,0,0,14,,,,12,,,60,92
558240,note_on,,,,,480,0,14,,,,12,,,62,0
558240,note_on,,,,,0,0,15,,,,13,,,64,92
558240,note_on,,,,,480,0,15,,,,13,,,66,0
558720,set_tempo,,,,,1920,1,0,441176,,,,,,,
558720,note_on,,,,,0,0,14,,,,12,,,59,92
558720,note_on,,,,,480,0,14,,,,12,,,60,0
558720,note_on,,,,,0,0,15,,,,13,,,62,92
558720,note_on,,,,,480,0,15,,,,13,,,64,0
559104,note_on,,,,,1344,0,13,,,,11,,,67,0
559104,note_on,,,,,1344,0,12,,,,10,,,79,0
559200,note_on,,,,,0,0,15,,,,13,,,60,92
559200,note_on,,,,,0,0,14,,,,12,,,57,92
559200,note_on,,,,,96,0,13,,,,11,,,66,105
559200,note_on,,,,,480,0,15,,,,13,,,62,0
559200,note_on,,,,,96,0,12,,,,10,,,78,105
559200,note_on,,,,,480,0,14,,,,12,,,59,0
559584,note_on,,,,,384,0,14,,,,12,,,57,0
559584,note_on,,,,,384,0,15,,,,13,,,60,0
559680,note_on,,,,,0,0,13,,,,11,,,63,105
559680,note_on,,,,,0,0,9,,,,5,,,55,92
559680,note_on,,,,,4512,0,8,,,,4,,,47,92
559680,note_on,,,,,480,0,12,,,,10,,,78,0
559680,note_on,,,,,4512,0,4,,,,2,,,55,92
559680,note_on,,,,,4512,0,9,,,,5,,,43,92
559680,note_on,,,,,0,0,6,,,,3,,,47,92
559680,note_on,,,,,0,0,8,,,,4,,,59,92
559680,note_on,,,,,96,0,15,,,,13,,,43,92
559680,note_on,,,,,0,0,4,,,,2,,,59,92
559680,note_on,,,,,4512,0,6,,,,3,,,43,92
559680,note_on,,,,,4512,0,16,,,,14,,,31,105
559680,note_on,,,,,480,0,13,,,,11,,,66,0
559680,note_on,,,,,0,0,12,,,,10,,,75,105
559680,note_on,,,,,96,0,14,,,,12,,,59,92
559872,note_on,,,,,192,0,15,,,,13,,,43,0
559872,note_on,,,,,192,0,14,,,,12,,,59,0
559920,note_on,,,,,48,0,15,,,,13,,,43,92
559920,note_on,,,,,48,0,14,,,,12,,,55,92
560112,note_on,,,,,192,0,14,,,,12,,,55,0
560160,note_on,,,,,240,0,15,,,,13,,,43,0
560160,note_on,,,,,0,0,15,,,,13,,,55,92
560160,note_on,,,,,48,0,14,,,,12,,,59,92
560400,note_on,,,,,720,0,13,,,,11,,,63,0
560400,note_on,,,,,0,0,13,,,,11,,,64,105
560400,note_on,,,,,720,0,12,,,,10,,,75,0
560400,note_on,,,,,0,0,12,,,,10,,,76,105
560544,note_on,,,,,384,0,15,,,,13,,,55,0
560592,note_on,,,,,912,0,4,,,,2,,,59,0
560592,note_on,,,,,912,0,6,,,,3,,,47,0
560592,note_on,,,,,0,0,4,,,,2,,,55,0
560592,note_on,,,,,0,0,6,,,,3,,,43,0
560628,note_on,,,,,228,0,12,,,,10,,,76,0
560628,note_on,,,,,228,0,13,,,,11,,,64,0
560640,note_on,,,,,12,0,12,,,,10,,,79,105
560640,note_on,,,,,96,0,15,,,,13,,,43,92
560640,note_on,,,,,0,0,4,,,,2,,,64,92
560640,set_tempo,,,,,1920,1,0,434783,,,,,,,
560640,note_on,,,,,48,0,4,,,,2,,,59,92
560640,note_on,,,,,48,0,6,,,,3,,,47,92
560640,note_on,,,,,12,0,13,,,,11,,,67,105
560640,note_on,,,,,0,0,6,,,,3,,,52,92
560832,note_on,,,,,192,0,15,,,,13,,,43,0
560832,note_on,,,,,672,0,14,,,,12,,,59,0
560880,note_on,,,,,48,0,14,,,,12,,,59,92
560880,note_on,,,,,48,0,15,,,,13,,,55,92
561120,note_on,,,,,0,0,4,,,,2,,,67,92
561120,note_on,,,,,0,0,4,,,,2,,,64,92
561120,note_on,,,,,0,0,14,,,,12,,,64,92
561120,note_on,,,,,480,0,6,,,,3,,,52,0
561120,note_on,,,,,0,0,15,,,,13,,,59,92
561120,note_on,,,,,0,0,6,,,,3,,,52,92
561120,note_on,,,,,0,0,6,,,,3,,,55,92
561120,note_on,,,,,240,0,15,,,,13,,,55,0
561120,note_on,,,,,0,0,4,,,,2,,,59,0
561120,note_on,,,,,480,0,4,,,,2,,,64,0
561120,note_on,,,,,0,0,6,,,,3,,,47,0
561120,note_on,,,,,240,0,14,,,,12,,,59,0
561360,note_on,,,,,0,0,13,,,,11,,,71,105
561360,note_on,,,,,720,0,12,,,,10,,,79,0
561360,note_on,,,,,720,0,13,,,,11,,,67,0
561360,note_on,,,,,0,0,12,,,,10,,,83,105
561408,note_on,,,,,1728,0,16,,,,14,,,31,0
561504,note_on,,,,,384,0,15,,,,13,,,59,0
561504,note_on,,,,,0,0,6,,,,3,,,52,0
561504,note_on,,,,,384,0,6,,,,3,,,55,0
561576,note_on,,,,,0,0,4,,,,2,,,67,0
561576,note_on,,,,,456,0,4,,,,2,,,64,0
561588,note_on,,,,,228,0,12,,,,10,,,83,0
561588,note_on,,,,,228,0,13,,,,11,,,71,0
561600,note_on,,,,,12,0,12,,,,10,,,88,105
561600,note_on,,,,,0,0,4,,,,2,,,71,92
561600,note_on,,,,,24,0,4,,,,2,,,67,92
561600,note_on,,,,,12,0,13,,,,11,,,76,105
561600,note_on,,,,,0,0,6,,,,3,,,59,92
561600,note_on,,,,,96,0,6,,,,3,,,55,92
561600,note_on,,,,,96,0,15,,,,13,,,55,92
561600,note_on,,,,,192,0,16,,,,14,,,43,105
561696,note_on,,,,,576,0,14,,,,12,,,64,0
561840,note_on,,,,,0,0,15,,,,13,,,59,92
561840,note_on,,,,,240,0,15,,,,13,,,55,0
561840,note_on,,,,,144,0,14,,,,12,,,67,92
562080,note_on,,,,,0,0,15,,,,13,,,64,92
562080,note_on,,,,,0,0,4,,,,2,,,71,92
562080,note_on,,,,,0,0,4,,,,2,,,76,92
562080,note_on,,,,,240,0,14,,,,12,,,67,0
562080,note_on,,,,,0,0,14,,,,12,,,71,92
562080,note_on,,,,,480,0,4,,,,2,,,71,0
562080,note_on,,,,,0,0,4,,,,2,,,67,0
562080,note_on,,,,,0,0,6,,,,3,,,59,92
562080,note_on,,,,,0,0,6,,,,3,,,64,92
562080,note_on,,,,,480,0,6,,,,3,,,59,0
562080,note_on,,,,,0,0,6,,,,3,,,55,0
562080,note_on,,,,,240,0,15,,,,13,,,59,0
562320,note_on,,,,,0,0,13,,,,11,,,79,105
562320,note_on,,,,,240,0,14,,,,12,,,71,0
562320,note_on,,,,,0,0,14,,,,12,,,76,92
562320,note_on,,,,,240,0,15,,,,13,,,64,0
562320,note_on,,,,,720,0,12,,,,10,,,88,0
562320,note_on,,,,,0,0,12,,,,10,,,91,105
562320,note_on,,,,,720,0,13,,,,11,,,76,0
562320,note_on,,,,,0,0,15,,,,13,,,59,92
562464,note_on,,,,,0,0,6,,,,3,,,59,0
562464,note_on,,,,,384,0,6,,,,3,,,64,0
562512,note_on,,,,,192,0,15,,,,13,,,59,0
562536,note_on,,,,,456,0,4,,,,2,,,76,0
562536,note_on,,,,,0,0,4,,,,2,,,71,0
562548,note_on,,,,,228,0,12,,,,10,,,91,0
562548,note_on,,,,,228,0,13,,,,11,,,79,0
562560,note_on,,,,,96,0,6,,,,3,,,59,92
562560,note_on,,,,,0,0,6,,,,3,,,55,92
562560,note_on,,,,,48,0,15,,,,13,,,55,105
562560,note_on,,,,,2880,0,8,,,,4,,,59,0
562560,note_on,,,,,240,0,14,,,,12,,,76,0
562560,note_on,,,,,12,0,13,,,,11,,,83,105
562560,note_on,,,,,24,0,4,,,,2,,,76,92
562560,note_on,,,,,0,0,4,,,,2,,,79,92
562560,note_on,,,,,0,0,8,,,,4,,,47,0
562560,note_on,,,,,0,0,14,,,,12,,,64,92
562560,note_on,,,,,0,0,9,,,,5,,,43,0
562560,note_on,,,,,2880,0,9,,,,5,,,55,0
562560,note_on,,,,,12,0,12,,,,10,,,95,105
562800,note_on,,,,,240,0,12,,,,10,,,95,0
562848,note_on,,,,,288,0,15,,,,13,,,55,0
562848,note_on,,,,,288,0,6,,,,3,,,55,0
562848,note_on,,,,,0,0,6,,,,3,,,59,0
562848,note_on,,,,,288,0,13,,,,11,,,83,0
562848,note_on,,,,,288,0,14,,,,12,,,64,0
562944,note_on,,,,,384,0,4,,,,2,,,79,0
562944,note_on,,,,,0,0,4,,,,2,,,76,0
563016,note_on,,,,,1416,0,16,,,,14,,,43,0
563040,note_on,,,,,0,0,6,,,,3,,,41,92
563040,note_on,,,,,192,0,13,,,,11,,,81,105
563040,note_on,,,,,192,0,6,,,,3,,,57,112
563040,note_on,,,,,192,0,15,,,,13,,,41,105
563040,note_on,,,,,240,0,12,,,,10,,,96,105
563040,note_on,,,,,0,0,13,,,,11,,,84,105
563040,note_on,,,,,192,0,14,,,,12,,,57,92
563040,note_on,,,,,24,0,16,,,,14,,,41,105
563280,note_on,,,,,240,0,15,,,,13,,,41,0
563280,note_on,,,,,0,0,15,,,,13,,,48,105
563280,note_on,,,,,240,0,14,,,,12,,,57,0
563280,note_on,,,,,0,0,14,,,,12,,,65,92
563520,note_on,,,,,0,0,13,,,,11,,,79,105
563520,note_on,,,,,0,0,13,,,,11,,,83,105
563520,note_on,,,,,0,0,13,,,,11,,,81,0
563520,note_on,,,,,480,0,13,,,,11,,,84,0
563520,note_on,,,,,0,0,12,,,,10,,,95,105
563520,note_on,,,,,0,0,15,,,,13,,,53,105
563520,note_on,,,,,240,0,14,,,,12,,,65,0
563520,note_on,,,,,240,0,15,,,,13,,,48,0
563520,note_on,,,,,0,0,14,,,,12,,,69,92
563520,note_on,,,,,480,0,12,,,,10,,,96,0
563760,note_on,,,,,0,0,14,,,,12,,,72,92
563760,note_on,,,,,240,0,14,,,,12,,,69,0
563760,note_on,,,,,0,0,15,,,,13,,,57,105
563760,note_on,,,,,240,0,15,,,,13,,,53,0
563808,note_on,,,,,0,0,6,,,,3,,,57,0
563808,note_on,,,,,768,0,6,,,,3,,,41,0
563952,note_on,,,,,912,0,16,,,,14,,,41,0
563988,note_on,,,,,228,0,15,,,,13,,,57,0
563988,note_on,,,,,228,0,14,,,,12,,,72,0
564000,note_on,,,,,192,0,6,,,,3,,,43,92
564000,note_on,,,,,12,0,14,,,,12,,,59,92
564000,note_on,,,,,480,0,12,,,,10,,,95,0
564000,note_on,,,,,48,0,16,,,,14,,,43,105
564000,note_on,,,,,0,0,6,,,,3,,,59,112
564000,note_on,,,,,12,0,15,,,,13,,,43,105
564000,note_on,,,,,480,0,13,,,,11,,,79,0
564000,note_on,,,,,0,0,12,,,,10,,,93,105
564000,note_on,,,,,0,0,13,,,,11,,,81,105
564000,note_on,,,,,0,0,13,,,,11,,,77,105
564000,note_on,,,,,0,0,13,,,,11,,,83,0
564240,note_on,,,,,240,0,15,,,,13,,,43,0
564240,note_on,,,,,0,0,14,,,,12,,,62,92
564240,note_on,,,,,0,0,15,,,,13,,,47,105
564240,note_on,,,,,240,0,14,,,,12,,,59,0
564480,note_on,,,,,0,0,15,,,,13,,,50,105
564480,note_on,,,,,0,0,14,,,,12,,,67,92
564480,note_on,,,,,240,0,14,,,,12,,,62,0
564480,note_on,,,,,480,0,13,,,,11,,,77,0
564480,note_on,,,,,0,0,13,,,,11,,,81,0
564480,note_on,,,,,240,0,15,,,,13,,,47,0
564480,note_on,,,,,0,0,12,,,,10,,,91,105
564480,note_on,,,,,0,0,13,,,,11,,,76,105
564480,note_on,,,,,480,0,12,,,,10,,,93,0
564480,note_on,,,,,0,0,13,,,,11,,,79,105
564720,note_on,,,,,240,0,14,,,,12,,,67,0
564720,note_on,,,,,240,0,15,,,,13,,,50,0
564720,note_on,,,,,0,0,15,,,,13,,,55,105
564720,note_on,,,,,0,0,14,,,,12,,,71,92
564864,note_on,,,,,864,0,6,,,,3,,,59,0
564864,note_on,,,,,0,0,6,,,,3,,,43,0
564936,note_on,,,,,936,0,16,,,,14,,,43,0
564948,note_on,,,,,228,0,14,,,,12,,,71,0
564948,note_on,,,,,228,0,15,,,,13,,,55,0
564960,note_on,,,,,0,0,9,,,,5,,,69,92
564960,note_on,,,,,11616,0,1,,,,0,,,81,92
564960,note_on,,,,,2400,0,9,,,,5,,,72,92
564960,note_on,,,,,12,0,15,,,,13,,,45,105
564960,note_on,,,,,0,0,13,,,,11,,,76,0
564960,note_on,,,,,0,0,13,,,,11,,,77,105
564960,note_on,,,,,24,0,16,,,,14,,,45,105
564960,note_on,,,,,0,0,1,,,,0,,,84,92
564960,note_on,,,,,480,0,13,,,,11,,,79,0
564960,note_on,,,,,0,0,6,,,,3,,,45,92
564960,note_on,,,,,12,0,14,,,,12,,,60,92
564960,note_on,,,,,96,0,6,,,,3,,,60,92
564960,note_on,,,,,2016,0,4,,,,2,,,72,92
564960,note_on,,,,,0,0,12,,,,10,,,89,105
564960,note_on,,,,,480,0,12,,,,10,,,91,0
564960,note_on,,,,,9792,0,3,,,,1,,,84,92
564960,note_on,,,,,0,0,4,,,,2,,,81,92
564960,note_on,,,,,0,0,3,,,,1,,,81,92
565200,note_on,,,,,0,0,14,,,,12,,,65,92
565200,note_on,,,,,240,0,15,,,,13,,,45,0
565200,note_on,,,,,240,0,14,,,,12,,,60,0
565200,note_on,,,,,0,0,15,,,,13,,,48,105
565416,note_on,,,,,456,0,12,,,,10,,,89,0
565416,note_on,,,,,456,0,13,,,,11,,,77,0
565440,note_on,,,,,480,0,9,,,,5,,,69,0
565440,note_on,,,,,0,0,9,,,,5,,,72,0
565440,note_on,,,,,0,0,9,,,,5,,,67,92
565440,note_on,,,,,0,0,9,,,,5,,,71,92
565440,note_on,,,,,0,0,3,,,,1,,,79,92
565440,note_on,,,,,0,0,4,,,,2,,,72,0
565440,note_on,,,,,480,0,3,,,,1,,,81,0
565440,note_on,,,,,240,0,14,,,,12,,,65,0
565440,note_on,,,,,0,0,14,,,,12,,,69,92
565440,note_on,,,,,0,0,4,,,,2,,,71,92
565440,note_on,,,,,0,0,4,,,,2,,,79,92
565440,note_on,,,,,480,0,1,,,,0,,,84,0
565440,note_on,,,,,0,0,1,,,,0,,,81,0
565440,note_on,,,,,0,0,1,,,,0,,,83,92
565440,note_on,,,,,0,0,1,,,,0,,,79,92
565440,note_on,,,,,24,0,13,,,,11,,,72,105
565440,note_on,,,,,240,0,15,,,,13,,,48,0
565440,note_on,,,,,24,0,12,,,,10,,,84,105
565440,note_on,,,,,0,0,3,,,,1,,,84,0
565440,note_on,,,,,0,0,3,,,,1,,,83,92
565440,note_on,,,,,0,0,15,,,,13,,,53,105
565440,note_on,,,,,480,0,4,,,,2,,,81,0
565680,note_on,,,,,0,0,15,,,,13,,,57,105
565680,note_on,,,,,240,0,15,,,,13,,,53,0
565680,note_on,,,,,240,0,14,,,,12,,,69,0
565680,note_on,,,,,0,0,14,,,,12,,,72,92
565908,note_on,,,,,228,0,14,,,,12,,,72,0
565908,note_on,,,,,228,0,15,,,,13,,,57,0
565920,note_on,,,,,0,0,3,,,,1,,,77,92
565920,note_on,,,,,0,0,9,,,,5,,,69,92
565920,note_on,,,,,12,0,15,,,,13,,,45,105
565920,note_on,,,,,0,0,4,,,,2,,,69,92
565920,note_on,,,,,0,0,4,,,,2,,,77,92
565920,note_on,,,,,0,0,4,,,,2,,,71,0
565920,note_on,,,,,480,0,4,,,,2,,,79,0
565920,note_on,,,,,480,0,3,,,,1,,,79,0
565920,note_on,,,,,0,0,3,,,,1,,,83,0
565920,note_on,,,,,0,0,9,,,,5,,,65,92
565920,note_on,,,,,0,0,3,,,,1,,,81,92
565920,note_on,,,,,12,0,14,,,,12,,,65,92
565920,note_on,,,,,0,0,1,,,,0,,,81,92
565920,note_on,,,,,0,0,1,,,,0,,,77,92
565920,note_on,,,,,0,0,1,,,,0,,,83,0
565920,note_on,,,,,480,0,1,,,,0,,,79,0
565920,note_on,,,,,480,0,9,,,,5,,,71,0
565920,note_on,,,,,0,0,9,,,,5,,,67,0
566160,note_on,,,,,0,0,14,,,,12,,,69,92
566160,note_on,,,,,240,0,15,,,,13,,,45,0
566160,note_on,,,,,0,0,15,,,,13,,,53,105
566160,note_on,,,,,240,0,14,,,,12,,,65,0
566388,note_on,,,,,228,0,14,,,,12,,,69,0
566400,note_on,,,,,0,0,4,,,,2,,,67,92
566400,note_on,,,,,0,0,3,,,,1,,,81,0
566400,note_on,,,,,480,0,3,,,,1,,,77,0
566400,note_on,,,,,0,0,3,,,,1,,,79,92
566400,note_on,,,,,0,0,3,,,,1,,,76,92
566400,note_on,,,,,0,0,9,,,,5,,,67,92
566400,note_on,,,,,0,0,15,,,,13,,,57,105
566400,note_on,,,,,0,0,4,,,,2,,,76,92
566400,note_on,,,,,480,0,4,,,,2,,,69,0
566400,note_on,,,,,240,0,15,,,,13,,,53,0
566400,note_on,,,,,0,0,1,,,,0,,,76,92
566400,note_on,,,,,12,0,14,,,,12,,,60,92
566400,note_on,,,,,0,0,1,,,,0,,,79,92
566400,note_on,,,,,0,0,1,,,,0,,,77,0
566400,note_on,,,,,480,0,1,,,,0,,,81,0
566400,note_on,,,,,480,0,9,,,,5,,,65,0
566400,note_on,,,,,0,0,9,,,,5,,,69,0
566400,note_on,,,,,0,0,9,,,,5,,,64,92
566400,note_on,,,,,0,0,4,,,,2,,,77,0
566640,note_on,,,,,240,0,14,,,,12,,,60,0
566640,note_on,,,,,0,0,14,,,,12,,,65,92
566640,note_on,,,,,240,0,15,,,,13,,,57,0
566640,note_on,,,,,0,0,15,,,,13,,,60,105
566784,note_on,,,,,1824,0,6,,,,3,,,45,0
566784,note_on,,,,,0,0,6,,,,3,,,60,0
566856,note_on,,,,,1416,0,12,,,,10,,,84,0
566856,note_on,,,,,1416,0,13,,,,11,,,72,0
566856,note_on,,,,,1896,0,16,,,,14,,,45,0
566868,note_on,,,,,228,0,14,,,,12,,,65,0
566868,note_on,,,,,228,0,15,,,,13,,,60,0
566880,note_on,,,,,96,0,6,,,,3,,,56,92
566880,note_on,,,,,0,0,9,,,,5,,,64,0
566880,note_on,,,,,0,0,6,,,,3,,,44,92
566880,note_on,,,,,24,0,13,,,,11,,,74,105
566880,note_on,,,,,24,0,12,,,,10,,,86,105
566880,note_on,,,,,0,0,4,,,,2,,,67,0
566880,note_on,,,,,480,0,4,,,,2,,,76,0
566880,note_on,,,,,24,0,16,,,,14,,,44,105
566880,note_on,,,,,0,0,4,,,,2,,,77,92
566880,note_on,,,,,480,0,3,,,,1,,,79,0
566880,note_on,,,,,0,0,9,,,,5,,,65,92
566880,note_on,,,,,480,0,9,,,,5,,,67,0
566880,note_on,,,,,12,0,15,,,,13,,,56,105
566880,note_on,,,,,0,0,3,,,,1,,,77,92
566880,note_on,,,,,0,0,4,,,,2,,,65,92
566880,note_on,,,,,0,0,3,,,,1,,,76,0
566880,note_on,,,,,0,0,1,,,,0,,,79,0
566880,note_on,,,,,0,0,1,,,,0,,,77,92
566880,note_on,,,,,12,0,14,,,,12,,,60,92
566880,note_on,,,,,480,0,1,,,,0,,,76,0
567120,note_on,,,,,240,0,14,,,,12,,,60,0
567120,note_on,,,,,0,0,14,,,,12,,,65,92
567120,note_on,,,,,0,0,15,,,,13,,,60,105
567120,note_on,,,,,240,0,15,,,,13,,,56,0
567264,note_on,,,,,384,0,9,,,,5,,,65,0
567264,note_on,,,,,0,0,4,,,,2,,,77,0
567264,note_on,,,,,384,0,4,,,,2,,,65,0
567264,note_on,,,,,0,0,6,,,,3,,,56,0
567264,note_on,,,,,384,0,6,,,,3,,,44,0
567264,note_on,,,,,384,0,3,,,,1,,,77,0
567264,note_on,,,,,384,0,1,,,,0,,,77,0
567336,note_on,,,,,456,0,16,,,,14,,,44,0
567348,note_on,,,,,228,0,15,,,,13,,,60,0
567348,note_on,,,,,228,0,14,,,,12,,,65,0
567360,note_on,,,,,12,0,15,,,,13,,,55,105
567360,note_on,,,,,0,0,10,,,,6,,,76,92
567360,note_on,,,,,480,0,13,,,,11,,,74,0
567360,note_on,,,,,0,0,13,,,,11,,,77,105
567360,note_on,,,,,96,0,3,,,,1,,,72,92
567360,note_on,,,,,0,0,9,,,,5,,,48,92
567360,note_on,,,,,96,0,9,,,,5,,,60,92
567360,note_on,,,,,24,0,16,,,,14,,,43,105
567360,note_on,,,,,0,0,6,,,,3,,,43,92
567360,note_on,,,,,0,0,12,,,,10,,,89,105
567360,note_on,,,,,71616,0,10,,,,6,,,64,92
567360,note_on,,,,,96,0,6,,,,3,,,55,92
567360,note_on,,,,,0,0,8,,,,4,,,52,80
567360,note_on,,,,,4800,0,8,,,,4,,,64,80
567360,note_on,,,,,480,0,12,,,,10,,,86,0
567360,note_on,,,,,12,0,14,,,,12,,,60,92
567600,note_on,,,,,240,0,14,,,,12,,,60,0
567600,note_on,,,,,240,0,15,,,,13,,,55,0
567600,note_on,,,,,0,0,14,,,,12,,,67,92
567600,note_on,,,,,0,0,15,,,,13,,,60,105
567828,note_on,,,,,228,0,14,,,,12,,,67,0
567828,note_on,,,,,228,0,15,,,,13,,,60,0
567840,note_on,,,,,12,0,15,,,,13,,,55,105
567840,note_on,,,,,12,0,14,,,,12,,,60,92
568080,note_on,,,,,720,0,12,,,,10,,,89,0
568080,note_on,,,,,0,0,12,,,,10,,,88,105
568080,note_on,,,,,0,0,14,,,,12,,,67,92
568080,note_on,,,,,240,0,14,,,,12,,,60,0
568080,note_on,,,,,720,0,13,,,,11,,,77,0
568080,note_on,,,,,0,0,13,,,,11,,,76,105
568080,note_on,,,,,0,0,15,,,,13,,,60,105
568080,note_on,,,,,240,0,15,,,,13,,,55,0
568128,note_on,,,,,768,0,6,,,,3,,,43,0
568128,note_on,,,,,0,0,6,,,,3,,,55,0
568128,note_on,,,,,0,0,9,,,,5,,,60,0
568128,note_on,,,,,768,0,9,,,,5,,,48,0
568272,note_on,,,,,912,0,8,,,,4,,,52,0
568272,note_on,,,,,912,0,16,,,,14,,,43,0
568272,note_on,,,,,912,0,3,,,,1,,,72,0
568272,note_on,,,,,0,0,10,,,,6,,,64,0
568272,note_on,,,,,912,0,10,,,,6,,,76,0
568272,note_on,,,,,0,0,8,,,,4,,,64,0
568308,note_on,,,,,228,0,13,,,,11,,,76,0
568308,note_on,,,,,228,0,15,,,,13,,,60,0
568308,note_on,,,,,228,0,14,,,,12,,,67,0
568308,note_on,,,,,228,0,12,,,,10,,,88,0
568320,note_on,,,,,48,0,16,,,,14,,,40,105
568320,set_tempo,,,,,7680,1,0,441176,,,,,,,
568320,note_on,,,,,12,0,12,,,,10,,,84,105
568320,note_on,,,,,12,0,13,,,,11,,,72,105
568320,note_on,,,,,12,0,15,,,,13,,,52,105
568320,note_on,,,,,192,0,6,,,,3,,,40,92
568320,note_on,,,,,12,0,14,,,,12,,,55,92
568320,note_on,,,,,0,0,6,,,,3,,,52,92
568320,note_on,,,,,0,0,10,,,,6,,,76,92
568320,note_on,,,,,0,0,8,,,,4,,,64,80
568320,note_on,,,,,48,0,10,,,,6,,,64,92
568320,note_on,,,,,48,0,3,,,,1,,,72,92
568320,note_on,,,,,192,0,9,,,,5,,,60,92
568320,note_on,,,,,0,0,9,,,,5,,,64,92
568320,note_on,,,,,48,0,8,,,,4,,,52,80
568560,note_on,,,,,240,0,14,,,,12,,,55,0
568560,note_on,,,,,0,0,15,,,,13,,,55,105
568560,note_on,,,,,240,0,15,,,,13,,,52,0
568560,note_on,,,,,0,0,14,,,,12,,,60,92
568788,note_on,,,,,228,0,15,,,,13,,,55,0
568788,note_on,,,,,228,0,14,,,,12,,,60,0
568800,note_on,,,,,480,0,9,,,,5,,,64,0
568800,note_on,,,,,12,0,14,,,,12,,,55,92
568800,note_on,,,,,12,0,15,,,,13,,,52,105
568800,note_on,,,,,0,0,9,,,,5,,,67,92
568800,note_on,,,,,0,0,9,,,,5,,,64,92
568800,note_on,,,,,0,0,9,,,,5,,,60,0
569040,note_on,,,,,0,0,13,,,,11,,,67,105
569040,note_on,,,,,720,0,12,,,,10,,,84,0
569040,note_on,,,,,0,0,14,,,,12,,,60,92
569040,note_on,,,,,240,0,15,,,,13,,,52,0
569040,note_on,,,,,0,0,15,,,,13,,,55,105
569040,note_on,,,,,0,0,12,,,,10,,,79,105
569040,note_on,,,,,720,0,13,,,,11,,,72,0
569040,note_on,,,,,240,0,14,,,,12,,,55,0
569088,note_on,,,,,768,0,6,,,,3,,,52,0
569088,note_on,,,,,0,0,6,,,,3,,,40,0
569184,note_on,,,,,0,0,9,,,,5,,,64,0
569184,note_on,,,,,384,0,9,,,,5,,,67,0
569232,note_on,,,,,912,0,3,,,,1,,,72,0
569232,note_on,,,,,912,0,10,,,,6,,,76,0
569232,note_on,,,,,912,0,16,,,,14,,,40,0
569232,note_on,,,,,0,0,10,,,,6,,,64,0
569232,note_on,,,,,912,0,8,,,,4,,,64,0
569232,note_on,,,,,0,0,8,,,,4,,,52,0
569268,note_on,,,,,228,0,14,,,,12,,,60,0
569268,note_on,,,,,228,0,13,,,,11,,,67,0
569268,note_on,,,,,228,0,12,,,,10,,,79,0
569268,note_on,,,,,228,0,15,,,,13,,,55,0
569280,note_on,,,,,96,0,9,,,,5,,,67,92
569280,note_on,,,,,0,0,9,,,,5,,,72,92
569280,note_on,,,,,192,0,6,,,,3,,,46,92
569280,note_on,,,,,12,0,15,,,,13,,,46,105
569280,note_on,,,,,0,0,10,,,,6,,,64,92
569280,note_on,,,,,12,0,14,,,,12,,,55,92
569280,note_on,,,,,48,0,8,,,,4,,,52,80
569280,note_on,,,,,0,0,8,,,,4,,,64,80
569280,note_on,,,,,12,0,13,,,,11,,,64,105
569280,note_on,,,,,12,0,12,,,,10,,,76,105
569280,note_on,,,,,48,0,16,,,,14,,,34,105
569280,note_on,,,,,48,0,10,,,,6,,,76,92
569280,note_on,,,,,48,0,3,,,,1,,,72,92
569520,note_on,,,,,240,0,15,,,,13,,,46,0
569520,note_on,,,,,0,0,15,,,,13,,,55,105
569520,note_on,,,,,0,0,14,,,,12,,,64,92
569520,note_on,,,,,240,0,14,,,,12,,,55,0
569748,note_on,,,,,228,0,15,,,,13,,,55,0
569748,note_on,,,,,228,0,14,,,,12,,,64,0
569760,note_on,,,,,12,0,14,,,,12,,,55,92
569760,note_on,,,,,0,0,9,,,,5,,,64,92
569760,note_on,,,,,0,0,9,,,,5,,,55,92
569760,note_on,,,,,0,0,9,,,,5,,,67,0
569760,note_on,,,,,480,0,9,,,,5,,,72,0
569760,note_on,,,,,12,0,15,,,,13,,,46,105
570000,note_on,,,,,0,0,13,,,,11,,,60,105
570000,note_on,,,,,720,0,13,,,,11,,,64,0
570000,note_on,,,,,240,0,15,,,,13,,,46,0
570000,note_on,,,,,720,0,12,,,,10,,,76,0
570000,note_on,,,,,0,0,14,,,,12,,,64,92
570000,note_on,,,,,240,0,14,,,,12,,,55,0
570000,note_on,,,,,0,0,15,,,,13,,,55,105
570000,note_on,,,,,0,0,12,,,,10,,,72,105
570048,note_on,,,,,768,0,6,,,,3,,,46,0
570144,note_on,,,,,0,0,9,,,,5,,,55,0
570144,note_on,,,,,384,0,9,,,,5,,,64,0
570192,note_on,,,,,0,0,8,,,,4,,,52,0
570192,note_on,,,,,912,0,8,,,,4,,,64,0
570192,note_on,,,,,912,0,16,,,,14,,,34,0
570192,note_on,,,,,0,0,10,,,,6,,,76,0
570192,note_on,,,,,912,0,3,,,,1,,,72,0
570192,note_on,,,,,912,0,10,,,,6,,,64,0
570228,note_on,,,,,228,0,14,,,,12,,,64,0
570228,note_on,,,,,228,0,12,,,,10,,,72,0
570228,note_on,,,,,228,0,13,,,,11,,,60,0
570228,note_on,,,,,228,0,15,,,,13,,,55,0
570240,note_on,,,,,2976,0,4,,,,2,,,71,112
570240,note_on,,,,,0,0,4,,,,2,,,59,92
570240,note_on,,,,,12,0,15,,,,13,,,47,105
570240,note_on,,,,,48,0,3,,,,1,,,71,112
570240,note_on,,,,,48,0,10,,,,6,,,59,92
570240,note_on,,,,,192,0,6,,,,3,,,47,112
570240,note_on,,,,,48,0,16,,,,14,,,35,105
570240,note_on,,,,,96,0,9,,,,5,,,54,92
570240,note_on,,,,,48,0,8,,,,4,,,59,92
570240,note_on,,,,,0,0,8,,,,4,,,47,112
570240,note_on,,,,,0,0,9,,,,5,,,63,92
570240,set_tempo,,,,,1920,1,0,428571,,,,,,,
570240,note_on,,,,,12,0,12,,,,10,,,71,105
570240,note_on,,,,,0,0,14,,,,12,,,63,92
570240,note_on,,,,,12,0,14,,,,12,,,54,92
570240,note_on,,,,,0,0,10,,,,6,,,71,92
570240,note_on,,,,,12,0,13,,,,11,,,59,92
570528,note_on,,,,,288,0,12,,,,10,,,71,0
570528,note_on,,,,,288,0,15,,,,13,,,47,0
570528,note_on,,,,,288,0,14,,,,12,,,63,0
570528,note_on,,,,,288,0,13,,,,11,,,59,0
570528,note_on,,,,,288,0,10,,,,6,,,71,0
570528,note_on,,,,,0,0,10,,,,6,,,59,0
570528,note_on,,,,,288,0,9,,,,5,,,63,0
570528,note_on,,,,,0,0,9,,,,5,,,54,0
570528,note_on,,,,,0,0,14,,,,12,,,54,0
570528,note_on,,,,,288,0,16,,,,14,,,35,0
570816,note_on,,,,,576,0,4,,,,2,,,59,0
570816,note_on,,,,,0,0,8,,,,4,,,59,0
570816,note_on,,,,,576,0,8,,,,4,,,47,0
570816,note_on,,,,,576,0,3,,,,1,,,71,0
570816,note_on,,,,,0,0,4,,,,2,,,71,0
570816,note_on,,,,,576,0,6,,,,3,,,47,0
570960,note_on,,,,,144,0,6,,,,3,,,47,92
570960,note_on,,,,,144,0,3,,,,1,,,71,92
570960,note_on,,,,,144,0,4,,,,2,,,59,92
570960,note_on,,,,,144,0,8,,,,4,,,59,92
570960,note_on,,,,,0,0,4,,,,2,,,71,92
571080,note_on,,,,,0,0,8,,,,4,,,63,92
571080,note_on,,,,,120,0,8,,,,4,,,59,0
571080,note_on,,,,,120,0,4,,,,2,,,71,0
571080,note_on,,,,,0,0,4,,,,2,,,59,0
571080,note_on,,,,,0,0,4,,,,2,,,75,92
571080,note_on,,,,,0,0,6,,,,3,,,51,92
571080,note_on,,,,,0,0,3,,,,1,,,75,92
571080,note_on,,,,,120,0,6,,,,3,,,47,0
571080,note_on,,,,,0,0,4,,,,2,,,63,92
571080,note_on,,,,,120,0,3,,,,1,,,71,0
571200,note_on,,,,,0,0,3,,,,1,,,78,92
571200,note_on,,,,,120,0,3,,,,1,,,75,0
571200,note_on,,,,,0,0,6,,,,3,,,54,92
571200,note_on,,,,,120,0,8,,,,4,,,63,0
571200,note_on,,,,,120,0,6,,,,3,,,51,0
571200,note_on,,,,,0,0,4,,,,2,,,78,92
571200,note_on,,,,,0,0,4,,,,2,,,66,92
571200,note_on,,,,,0,0,4,,,,2,,,75,0
571200,note_on,,,,,120,0,4,,,,2,,,63,0
571200,note_on,,,,,0,0,8,,,,4,,,66,92
571376,note_on,,,,,176,0,3,,,,1,,,78,0
571376,note_on,,,,,176,0,6,,,,3,,,54,0
571376,note_on,,,,,176,0,8,,,,4,,,66,0
571376,note_on,,,,,176,0,4,,,,2,,,78,0
571376,note_on,,,,,0,0,4,,,,2,,,66,0
571520,note_on,,,,,144,0,3,,,,1,,,75,92
571520,note_on,,,,,144,0,4,,,,2,,,75,92
571520,note_on,,,,,144,0,6,,,,3,,,51,92
571520,note_on,,,,,144,0,8,,,,4,,,63,92
571520,note_on,,,,,0,0,4,,,,2,,,63,92
571696,note_on,,,,,176,0,6,,,,3,,,51,0
571696,note_on,,,,,176,0,8,,,,4,,,63,0
571696,note_on,,,,,176,0,3,,,,1,,,75,0
571696,note_on,,,,,0,0,4,,,,2,,,75,0
571696,note_on,,,,,176,0,4,,,,2,,,63,0
571840,note_on,,,,,144,0,4,,,,2,,,67,92
571840,note_on,,,,,0,0,4,,,,2,,,79,92
571840,note_on,,,,,144,0,3,,,,1,,,79,92
571840,note_on,,,,,144,0,6,,,,3,,,55,92
571840,note_on,,,,,144,0,8,,,,4,,,67,92
572016,note_on,,,,,176,0,3,,,,1,,,79,0
572016,note_on,,,,,176,0,6,,,,3,,,55,0
572016,note_on,,,,,176,0,4,,,,2,,,79,0
572016,note_on,,,,,176,0,8,,,,4,,,67,0
572016,note_on,,,,,0,0,4,,,,2,,,67,0
572160,note_on,,,,,0,0,4,,,,2,,,66,92
572160,note_on,,,,,144,0,6,,,,3,,,54,112
572160,note_on,,,,,144,0,8,,,,4,,,66,112
572160,note_on,,,,,144,0,4,,,,2,,,78,112
572160,note_on,,,,,144,0,3,,,,1,,,78,112
572736,note_on,,,,,0,0,4,,,,2,,,78,0
572736,note_on,,,,,576,0,4,,,,2,,,66,0
572736,note_on,,,,,576,0,6,,,,3,,,54,0
572736,note_on,,,,,576,0,8,,,,4,,,66,0
572736,note_on,,,,,576,0,3,,,,1,,,78,0
572880,note_on,,,,,144,0,3,,,,1,,,75,92
572880,note_on,,,,,0,0,4,,,,2,,,63,92
572880,note_on,,,,,144,0,8,,,,4,,,63,92
572880,note_on,,,,,144,0,4,,,,2,,,75,92
572880,note_on,,,,,144,0,6,,,,3,,,51,92
573072,note_on,,,,,192,0,4,,,,2,,,63,0
573072,note_on,,,,,0,0,4,,,,2,,,75,0
573072,note_on,,,,,192,0,8,,,,4,,,63,0
573072,note_on,,,,,192,0,6,,,,3,,,51,0
573072,note_on,,,,,192,0,3,,,,1,,,75,0
573120,note_on,,,,,0,0,4,,,,2,,,59,92
573120,note_on,,,,,48,0,6,,,,3,,,47,92
573120,note_on,,,,,48,0,8,,,,4,,,59,92
573120,note_on,,,,,48,0,4,,,,2,,,71,92
573120,note_on,,,,,48,0,3,,,,1,,,71,92
573384,note_on,,,,,0,0,4,,,,2,,,71,0
573384,note_on,,,,,264,0,8,,,,4,,,59,0
573384,note_on,,,,,264,0,4,,,,2,,,59,0
573384,note_on,,,,,264,0,3,,,,1,,,71,0
573384,note_on,,,,,264,0,6,,,,3,,,47,0
573600,note_on,,,,,216,0,6,,,,3,,,59,92
573600,note_on,,,,,216,0,8,,,,4,,,59,92
573600,note_on,,,,,0,0,8,,,,4,,,71,92
573600,note_on,,,,,0,0,4,,,,2,,,71,92
573600,note_on,,,,,216,0,4,,,,2,,,83,92
573600,note_on,,,,,216,0,3,,,,1,,,83,92
573864,note_on,,,,,264,0,6,,,,3,,,59,0
573864,note_on,,,,,264,0,8,,,,4,,,71,0
573864,note_on,,,,,0,0,4,,,,2,,,83,0
573864,note_on,,,,,264,0,4,,,,2,,,71,0
573864,note_on,,,,,0,0,8,,,,4,,,59,0
573864,note_on,,,,,264,0,3,,,,1,,,83,0
574080,note_on,,,,,216,0,3,,,,1,,,79,112
574080,note_on,,,,,216,0,8,,,,4,,,67,112
574080,note_on,,,,,0,0,4,,,,2,,,67,92
574080,note_on,,,,,216,0,6,,,,3,,,55,112
574080,note_on,,,,,216,0,4,,,,2,,,79,112
574656,note_on,,,,,576,0,4,,,,2,,,67,0
574656,note_on,,,,,0,0,4,,,,2,,,79,0
574656,note_on,,,,,576,0,3,,,,1,,,79,0
574656,note_on,,,,,576,0,6,,,,3,,,55,0
574656,note_on,,,,,576,0,8,,,,4,,,67,0
574800,note_on,,,,,144,0,3,,,,1,,,78,92
574800,note_on,,,,,144,0,6,,,,3,,,54,92
574800,note_on,,,,,144,0,8,,,,4,,,66,92
574800,note_on,,,,,144,0,4,,,,2,,,66,92
574800,note_on,,,,,0,0,4,,,,2,,,78,92
574992,note_on,,,,,192,0,4,,,,2,,,78,0
574992,note_on,,,,,0,0,4,,,,2,,,66,0
574992,note_on,,,,,192,0,3,,,,1,,,78,0
574992,note_on,,,,,192,0,8,,,,4,,,66,0
574992,note_on,,,,,192,0,6,,,,3,,,54,0
575040,note_on,,,,,48,0,4,,,,2,,,66,92
575040,note_on,,,,,0,0,4,,,,2,,,78,92
575040,note_on,,,,,48,0,3,,,,1,,,78,92
575040,note_on,,,,,48,0,8,,,,4,,,66,92
575040,note_on,,,,,48,0,6,,,,3,,,54,92
575304,note_on,,,,,264,0,3,,,,1,,,78,0
575304,note_on,,,,,264,0,6,,,,3,,,54,0
575304,note_on,,,,,0,0,4,,,,2,,,66,0
575304,note_on,,,,,264,0,4,,,,2,,,78,0
575304,note_on,,,,,264,0,8,,,,4,,,66,0
575520,note_on,,,,,4992,0,14,,,,12,,,71,92
575520,note_on,,,,,4992,0,13,,,,11,,,66,92
575520,note_on,,,,,0,0,13,,,,11,,,75,92
575520,note_on,,,,,4992,0,10,,,,6,,,71,92
575520,note_on,,,,,0,0,10,,,,6,,,59,92
575520,note_on,,,,,0,0,4,,,,2,,,75,92
575520,note_on,,,,,8256,0,1,,,,0,,,87,92
575520,note_on,,,,,216,0,4,,,,2,,,71,92
575520,note_on,,,,,216,0,3,,,,1,,,75,92
575520,note_on,,,,,4992,0,16,,,,14,,,35,105
575520,note_on,,,,,0,0,1,,,,0,,,83,92
575520,note_on,,,,,4992,0,15,,,,13,,,47,105
575520,note_on,,,,,216,0,6,,,,3,,,47,92
575520,note_on,,,,,216,0,8,,,,4,,,63,92
575520,note_on,,,,,4992,0,12,,,,10,,,83,105
575784,note_on,,,,,0,0,1,,,,0,,,87,0
575784,note_on,,,,,264,0,16,,,,14,,,35,0
575784,note_on,,,,,264,0,15,,,,13,,,47,0
575784,note_on,,,,,0,0,10,,,,6,,,71,0
575784,note_on,,,,,264,0,10,,,,6,,,59,0
575784,note_on,,,,,264,0,1,,,,0,,,83,0
575784,note_on,,,,,264,0,13,,,,11,,,75,0
575784,note_on,,,,,264,0,6,,,,3,,,47,0
575784,note_on,,,,,264,0,14,,,,12,,,71,0
575784,note_on,,,,,0,0,4,,,,2,,,71,0
575784,note_on,,,,,264,0,4,,,,2,,,75,0
575784,note_on,,,,,264,0,8,,,,4,,,63,0
575784,note_on,,,,,264,0,12,,,,10,,,83,0
575784,note_on,,,,,0,0,13,,,,11,,,66,0
575784,note_on,,,,,264,0,3,,,,1,,,75,0
576000,note_on,,,,,0,0,10,,,,6,,,64,92
576000,note_on,,,,,216,0,4,,,,2,,,76,112
576000,note_on,,,,,216,0,3,,,,1,,,71,92
576000,note_on,,,,,216,0,10,,,,6,,,76,92
576000,note_on,,,,,216,0,8,,,,4,,,59,92
576000,note_on,,,,,0,0,13,,,,11,,,71,112
576000,note_on,,,,,216,0,13,,,,11,,,67,92
576000,note_on,,,,,216,0,12,,,,10,,,79,125
576000,note_on,,,,,0,0,1,,,,0,,,79,92
576000,note_on,,,,,216,0,15,,,,13,,,52,125
576000,note_on,,,,,5472,0,9,,,,5,,,67,112
576000,note_on,,,,,0,0,9,,,,5,,,64,92
576000,note_on,,,,,216,0,14,,,,12,,,67,112
576000,note_on,,,,,216,0,6,,,,3,,,52,112
576000,note_on,,,,,216,0,16,,,,14,,,40,125
576000,note_on,,,,,0,0,4,,,,2,,,67,92
576000,note_on,,,,,216,0,1,,,,0,,,88,112
576264,note_on,,,,,264,0,3,,,,1,,,71,0
576264,note_on,,,,,264,0,10,,,,6,,,64,0
576264,note_on,,,,,0,0,10,,,,6,,,76,0
576384,note_on,,,,,384,0,8,,,,4,,,59,0
576576,note_on,,,,,0,0,9,,,,5,,,67,0
576576,note_on,,,,,576,0,14,,,,12,,,67,0
576576,note_on,,,,,576,0,16,,,,14,,,40,0
576576,note_on,,,,,576,0,15,,,,13,,,52,0
576576,note_on,,,,,576,0,13,,,,11,,,71,0
576576,note_on,,,,,0,0,13,,,,11,,,67,0
576576,note_on,,,,,576,0,1,,,,0,,,79,0
576576,note_on,,,,,576,0,9,,,,5,,,64,0
576576,note_on,,,,,0,0,4,,,,2,,,76,0
576576,note_on,,,,,576,0,12,,,,10,,,79,0
576576,note_on,,,,,576,0,4,,,,2,,,67,0
576576,note_on,,,,,0,0,1,,,,0,,,88,0
576576,note_on,,,,,576,0,6,,,,3,,,52,0
576720,note_on,,,,,0,0,1,,,,0,,,82,92
576720,note_on,,,,,0,0,4,,,,2,,,73,92
576720,note_on,,,,,144,0,14,,,,12,,,61,92
576720,note_on,,,,,144,0,4,,,,2,,,70,92
576720,note_on,,,,,144,0,16,,,,14,,,42,105
576720,note_on,,,,,0,0,13,,,,11,,,70,92
576720,note_on,,,,,144,0,1,,,,0,,,85,92
576720,note_on,,,,,144,0,6,,,,3,,,54,92
576720,note_on,,,,,144,0,9,,,,5,,,61,92
576720,note_on,,,,,144,0,15,,,,13,,,54,105
576720,note_on,,,,,144,0,13,,,,11,,,66,92
576720,note_on,,,,,0,0,9,,,,5,,,58,92
576720,note_on,,,,,144,0,12,,,,10,,,78,105
576852,note_on,,,,,132,0,14,,,,12,,,61,0
576852,note_on,,,,,0,0,4,,,,2,,,70,0
576852,note_on,,,,,0,0,1,,,,0,,,85,0
576852,note_on,,,,,132,0,15,,,,13,,,54,0
576852,note_on,,,,,132,0,4,,,,2,,,73,0
576852,note_on,,,,,132,0,13,,,,11,,,70,0
576852,note_on,,,,,0,0,13,,,,11,,,66,0
576852,note_on,,,,,132,0,12,,,,10,,,78,0
576852,note_on,,,,,132,0,16,,,,14,,,42,0
576852,note_on,,,,,132,0,6,,,,3,,,54,0
576852,note_on,,,,,132,0,1,,,,0,,,82,0
576912,note_on,,,,,192,0,9,,,,5,,,58,0
576912,note_on,,,,,0,0,9,,,,5,,,61,0
576960,note_on,,,,,0,0,4,,,,2,,,73,92
576960,note_on,,,,,48,0,9,,,,5,,,61,92
576960,note_on,,,,,0,0,9,,,,5,,,58,92
576960,note_on,,,,,0,0,13,,,,11,,,66,92
576960,note_on,,,,,108,0,13,,,,11,,,70,92
576960,note_on,,,,,108,0,16,,,,14,,,42,105
576960,note_on,,,,,696,0,10,,,,6,,,78,92
576960,note_on,,,,,108,0,6,,,,3,,,54,92
576960,note_on,,,,,108,0,14,,,,12,,,61,92
576960,note_on,,,,,108,0,15,,,,13,,,54,105
576960,note_on,,,,,0,0,1,,,,0,,,85,92
576960,note_on,,,,,108,0,1,,,,0,,,82,92
576960,note_on,,,,,108,0,4,,,,2,,,70,92
576960,note_on,,,,,108,0,12,,,,10,,,78,105
577224,note_on,,,,,264,0,12,,,,10,,,78,0
577224,note_on,,,,,264,0,1,,,,0,,,85,0
577224,note_on,,,,,264,0,13,,,,11,,,66,0
577224,note_on,,,,,264,0,15,,,,13,,,54,0
577224,note_on,,,,,264,0,14,,,,12,,,61,0
577224,note_on,,,,,0,0,13,,,,11,,,70,0
577224,note_on,,,,,0,0,4,,,,2,,,70,0
577224,note_on,,,,,0,0,1,,,,0,,,82,0
577224,note_on,,,,,264,0,6,,,,3,,,54,0
577224,note_on,,,,,264,0,4,,,,2,,,73,0
577224,note_on,,,,,264,0,10,,,,6,,,78,0
577224,note_on,,,,,264,0,16,,,,14,,,42,0
577344,note_on,,,,,0,0,9,,,,5,,,61,0
577344,note_on,,,,,384,0,9,,,,5,,,58,0
577440,note_on,,,,,216,0,12,,,,10,,,75,105
577440,note_on,,,,,0,0,9,,,,5,,,59,92
577440,note_on,,,,,0,0,13,,,,11,,,71,92
577440,note_on,,,,,216,0,13,,,,11,,,63,92
577440,note_on,,,,,216,0,14,,,,12,,,66,92
577440,note_on,,,,,96,0,9,,,,5,,,63,92
577440,note_on,,,,,0,0,4,,,,2,,,75,92
577440,note_on,,,,,0,0,14,,,,12,,,63,92
577440,note_on,,,,,0,0,10,,,,6,,,71,92
577440,note_on,,,,,216,0,15,,,,13,,,47,105
577440,note_on,,,,,0,0,1,,,,0,,,87,92
577440,note_on,,,,,216,0,1,,,,0,,,83,92
577440,note_on,,,,,216,0,10,,,,6,,,59,92
577440,note_on,,,,,216,0,16,,,,14,,,35,105
577440,note_on,,,,,216,0,6,,,,3,,,47,92
577440,note_on,,,,,216,0,4,,,,2,,,71,92
577704,note_on,,,,,0,0,1,,,,0,,,83,0
577704,note_on,,,,,264,0,14,,,,12,,,63,0
577704,note_on,,,,,264,0,1,,,,0,,,87,0
577704,note_on,,,,,264,0,15,,,,13,,,47,0
577704,note_on,,,,,0,0,14,,,,12,,,66,0
577704,note_on,,,,,264,0,10,,,,6,,,71,0
577704,note_on,,,,,264,0,12,,,,10,,,75,0
577704,note_on,,,,,0,0,10,,,,6,,,59,0
577704,note_on,,,,,264,0,16,,,,14,,,35,0
577704,note_on,,,,,264,0,6,,,,3,,,47,0
577704,note_on,,,,,264,0,4,,,,2,,,75,0
577704,note_on,,,,,0,0,4,,,,2,,,71,0
577704,note_on,,,,,0,0,13,,,,11,,,63,0
577704,note_on,,,,,264,0,13,,,,11,,,71,0
577824,note_on,,,,,384,0,9,,,,5,,,59,0
577824,note_on,,,,,0,0,9,,,,5,,,63,0
577920,note_on,,,,,216,0,16,,,,14,,,47,105
577920,note_on,,,,,0,0,9,,,,5,,,63,92
577920,note_on,,,,,0,0,4,,,,2,,,75,92
577920,note_on,,,,,216,0,6,,,,3,,,59,92
577920,note_on,,,,,216,0,15,,,,13,,,59,125
577920,note_on,,,,,216,0,4,,,,2,,,71,92
577920,note_on,,,,,96,0,9,,,,5,,,59,92
577920,note_on,,,,,0,0,1,,,,0,,,87,92
577920,note_on,,,,,0,0,13,,,,11,,,71,92
577920,note_on,,,,,0,0,14,,,,12,,,63,105
577920,note_on,,,,,216,0,14,,,,12,,,66,105
577920,note_on,,,,,0,0,13,,,,11,,,63,92
577920,note_on,,,,,0,0,8,,,,4,,,47,92
577920,note_on,,,,,1536,0,8,,,,4,,,59,112
577920,program_change,,,,,216,0,13,,,45,11,,,,
577920,program_change,,,,,216,0,12,,,45,10,,,,
577920,note_on,,,,,0,0,12,,,,10,,,71,105
577920,note_on,,,,,216,0,10,,,,6,,,71,92
577920,note_on,,,,,0,0,10,,,,6,,,59,92
577920,note_on,,,,,216,0,1,,,,0,,,83,92
578184,note_on,,,,,0,0,13,,,,11,,,63,0
578184,note_on,,,,,264,0,13,,,,11,,,71,0
578184,note_on,,,,,264,0,16,,,,14,,,47,0
578184,note_on,,,,,264,0,12,,,,10,,,71,0
578184,note_on,,,,,264,0,10,,,,6,,,59,0
578184,note_on,,,,,264,0,14,,,,12,,,63,0
578184,note_on,,,,,0,0,14,,,,12,,,66,0
578184,note_on,,,,,0,0,10,,,,6,,,71,0
578208,note_on,,,,,288,0,1,,,,0,,,87,0
578208,note_on,,,,,288,0,6,,,,3,,,59,0
578208,note_on,,,,,0,0,1,,,,0,,,83,0
578208,note_on,,,,,0,0,4,,,,2,,,71,0
578208,note_on,,,,,288,0,4,,,,2,,,75,0
578304,note_on,,,,,384,0,9,,,,5,,,63,0
578304,note_on,,,,,0,0,9,,,,5,,,59,0
578400,note_on,,,,,480,0,8,,,,4,,,47,0
578640,note_on,,,,,456,0,16,,,,14,,,54,105
578640,note_on,,,,,432,0,6,,,,3,,,54,92
578640,note_on,,,,,456,0,14,,,,12,,,69,105
578640,note_on,,,,,0,0,6,,,,3,,,66,92
578772,note_on,,,,,132,0,6,,,,3,,,66,0
578772,note_on,,,,,132,0,16,,,,14,,,54,0
578772,note_on,,,,,132,0,14,,,,12,,,69,0
578772,note_on,,,,,0,0,6,,,,3,,,54,0
578880,note_on,,,,,960,0,15,,,,13,,,59,0
578880,note_on,,,,,0,0,13,,,,11,,,63,92
578880,note_on,,,,,672,0,1,,,,0,,,71,92
578880,note_on,,,,,0,0,15,,,,13,,,69,105
578880,note_on,,,,,0,0,8,,,,4,,,69,92
578880,note_on,,,,,480,0,8,,,,4,,,59,0
578880,note_on,,,,,696,0,12,,,,10,,,71,92
578880,note_on,,,,,108,0,6,,,,3,,,54,92
578880,note_on,,,,,0,0,6,,,,3,,,66,92
578880,note_on,,,,,672,0,4,,,,2,,,69,92
578880,note_on,,,,,0,0,4,,,,2,,,71,92
578880,note_on,,,,,696,0,13,,,,11,,,71,92
578880,note_on,,,,,108,0,14,,,,12,,,69,105
578880,note_on,,,,,108,0,16,,,,14,,,54,105
579144,note_on,,,,,264,0,16,,,,14,,,54,0
579144,note_on,,,,,264,0,6,,,,3,,,66,0
579144,note_on,,,,,0,0,6,,,,3,,,54,0
579144,note_on,,,,,264,0,14,,,,12,,,69,0
579168,note_on,,,,,288,0,4,,,,2,,,71,0
579168,note_on,,,,,288,0,1,,,,0,,,71,0
579168,note_on,,,,,0,0,4,,,,2,,,69,0
579264,note_on,,,,,384,0,12,,,,10,,,71,0
579264,note_on,,,,,384,0,13,,,,11,,,63,0
579264,note_on,,,,,0,0,13,,,,11,,,71,0
579360,note_on,,,,,0,0,6,,,,3,,,51,92
579360,note_on,,,,,216,0,14,,,,12,,,66,105
579360,note_on,,,,,216,0,16,,,,14,,,51,105
579360,note_on,,,,,216,0,6,,,,3,,,63,92
579624,note_on,,,,,264,0,16,,,,14,,,51,0
579624,note_on,,,,,264,0,14,,,,12,,,66,0
579624,note_on,,,,,264,0,6,,,,3,,,51,0
579624,note_on,,,,,0,0,6,,,,3,,,63,0
579840,note_on,,,,,0,0,1,,,,0,,,83,92
579840,note_on,,,,,0,0,12,,,,10,,,83,92
579840,note_on,,,,,576,0,12,,,,10,,,75,92
579840,note_on,,,,,0,0,13,,,,11,,,75,92
579840,note_on,,,,,216,0,14,,,,12,,,63,105
579840,note_on,,,,,672,0,4,,,,2,,,83,92
579840,note_on,,,,,0,0,4,,,,2,,,75,92
579840,note_on,,,,,672,0,1,,,,0,,,75,92
579840,note_on,,,,,216,0,16,,,,14,,,47,105
579840,note_on,,,,,576,0,13,,,,11,,,71,92
579840,note_on,,,,,216,0,6,,,,3,,,47,92
579840,note_on,,,,,0,0,6,,,,3,,,59,92
580104,note_on,,,,,0,0,6,,,,3,,,47,0
580104,note_on,,,,,264,0,16,,,,14,,,47,0
580104,note_on,,,,,264,0,14,,,,12,,,63,0
580104,note_on,,,,,264,0,6,,,,3,,,59,0
580128,note_on,,,,,0,0,4,,,,2,,,83,0
580128,note_on,,,,,288,0,4,,,,2,,,75,0
580128,note_on,,,,,288,0,1,,,,0,,,83,0
580128,note_on,,,,,0,0,1,,,,0,,,75,0
580224,note_on,,,,,0,0,12,,,,10,,,75,0
580224,note_on,,,,,384,0,12,,,,10,,,83,0
580224,note_on,,,,,384,0,13,,,,11,,,75,0
580224,note_on,,,,,0,0,13,,,,11,,,71,0
580296,note_on,,,,,1416,0,8,,,,4,,,69,0
580310,note_on,,,,,1430,0,15,,,,13,,,69,0
580320,note_on,,,,,10,0,15,,,,13,,,71,105
580320,note_on,,,,,24,0,8,,,,4,,,71,92
580320,note_on,,,,,0,0,6,,,,3,,,55,92
580320,note_on,,,,,216,0,16,,,,14,,,43,105
580320,note_on,,,,,216,0,6,,,,3,,,43,92
580320,note_on,,,,,216,0,14,,,,12,,,59,105
580584,note_on,,,,,0,0,6,,,,3,,,43,0
580584,note_on,,,,,264,0,6,,,,3,,,55,0
580584,note_on,,,,,264,0,16,,,,14,,,43,0
580584,note_on,,,,,264,0,14,,,,12,,,59,0
580800,note_on,,,,,672,0,1,,,,0,,,76,92
580800,note_on,,,,,480,0,8,,,,4,,,71,0
580800,note_on,,,,,672,0,4,,,,2,,,76,92
580800,note_on,,,,,0,0,4,,,,2,,,71,92
580800,note_on,,,,,576,0,13,,,,11,,,76,92
580800,note_on,,,,,0,0,15,,,,13,,,69,105
580800,note_on,,,,,480,0,15,,,,13,,,71,0
580800,note_on,,,,,216,0,14,,,,12,,,55,105
580800,note_on,,,,,576,0,12,,,,10,,,76,92
580800,note_on,,,,,0,0,13,,,,11,,,67,92
580800,note_on,,,,,0,0,8,,,,4,,,69,92
580800,note_on,,,,,216,0,6,,,,3,,,40,92
580800,note_on,,,,,216,0,16,,,,14,,,40,105
580800,note_on,,,,,0,0,6,,,,3,,,52,92
581064,note_on,,,,,264,0,14,,,,12,,,55,0
581064,note_on,,,,,264,0,16,,,,14,,,40,0
581064,note_on,,,,,264,0,6,,,,3,,,52,0
581064,note_on,,,,,0,0,6,,,,3,,,40,0
581088,note_on,,,,,288,0,4,,,,2,,,71,0
581088,note_on,,,,,288,0,1,,,,0,,,76,0
581088,note_on,,,,,0,0,4,,,,2,,,76,0
581184,note_on,,,,,384,0,13,,,,11,,,67,0
581184,note_on,,,,,0,0,13,,,,11,,,76,0
581184,note_on,,,,,384,0,12,,,,10,,,76,0
581280,note_on,,,,,0,0,8,,,,4,,,67,92
581280,note_on,,,,,480,0,15,,,,13,,,69,0
581280,note_on,,,,,0,0,15,,,,13,,,67,105
581280,note_on,,,,,480,0,8,,,,4,,,69,0
581736,note_on,,,,,456,0,15,,,,13,,,67,0
581736,note_on,,,,,456,0,8,,,,4,,,67,0
581760,note_on,,,,,24,0,15,,,,13,,,72,105
581760,note_on,,,,,24,0,8,,,,4,,,72,92
582480,note_on,,,,,1416,0,16,,,,14,,,55,105
582480,note_on,,,,,1416,0,14,,,,12,,,71,105
582480,note_on,,,,,1416,0,6,,,,3,,,55,92
582480,note_on,,,,,0,0,6,,,,3,,,67,92
582612,note_on,,,,,132,0,6,,,,3,,,67,0
582612,note_on,,,,,132,0,14,,,,12,,,71,0
582612,note_on,,,,,132,0,16,,,,14,,,55,0
582612,note_on,,,,,0,0,6,,,,3,,,55,0
582700,note_on,,,,,940,0,8,,,,4,,,72,0
582700,note_on,,,,,940,0,15,,,,13,,,72,0
582720,note_on,,,,,1632,0,1,,,,0,,,76,92
582720,note_on,,,,,108,0,16,,,,14,,,55,105
582720,note_on,,,,,1632,0,4,,,,2,,,76,92
582720,note_on,,,,,0,0,4,,,,2,,,64,92
582720,note_on,,,,,20,0,15,,,,13,,,71,105
582720,note_on,,,,,108,0,14,,,,12,,,71,105
582720,note_on,,,,,1536,0,12,,,,10,,,76,92
582720,note_on,,,,,1536,0,13,,,,11,,,67,92
582720,note_on,,,,,0,0,13,,,,11,,,76,92
582720,note_on,,,,,20,0,8,,,,4,,,71,92
582720,note_on,,,,,108,0,6,,,,3,,,55,92
582720,note_on,,,,,0,0,6,,,,3,,,67,92
582984,note_on,,,,,0,0,4,,,,2,,,76,0
582984,note_on,,,,,264,0,16,,,,14,,,55,0
582984,note_on,,,,,264,0,14,,,,12,,,71,0
582984,note_on,,,,,0,0,6,,,,3,,,55,0
582984,note_on,,,,,264,0,1,,,,0,,,76,0
582984,note_on,,,,,264,0,4,,,,2,,,64,0
582984,note_on,,,,,264,0,6,,,,3,,,67,0
583104,note_on,,,,,384,0,13,,,,11,,,76,0
583104,note_on,,,,,0,0,13,,,,11,,,67,0
583104,note_on,,,,,384,0,12,,,,10,,,76,0
583200,note_on,,,,,216,0,6,,,,3,,,52,92
583200,note_on,,,,,0,0,6,,,,3,,,64,92
583200,note_on,,,,,216,0,14,,,,12,,,67,105
583200,note_on,,,,,216,0,16,,,,14,,,52,105
583464,note_on,,,,,264,0,6,,,,3,,,64,0
583464,note_on,,,,,264,0,16,,,,14,,,52,0
583464,note_on,,,,,264,0,14,,,,12,,,67,0
583464,note_on,,,,,0,0,6,,,,3,,,52,0
583680,note_on,,,,,0,0,13,,,,11,,,76,92
583680,note_on,,,,,576,0,13,,,,11,,,67,92
583680,note_on,,,,,216,0,14,,,,12,,,64,105
583680,note_on,,,,,696,0,4,,,,2,,,67,92
583680,note_on,,,,,0,0,4,,,,2,,,76,92
583680,note_on,,,,,576,0,12,,,,10,,,88,92
583680,note_on,,,,,0,0,1,,,,0,,,79,92
583680,note_on,,,,,696,0,1,,,,0,,,88,92
583680,note_on,,,,,0,0,6,,,,3,,,60,92
583680,note_on,,,,,216,0,6,,,,3,,,48,92
583680,note_on,,,,,216,0,16,,,,14,,,48,105
583944,note_on,,,,,264,0,6,,,,3,,,60,0
583944,note_on,,,,,0,0,6,,,,3,,,48,0
583944,note_on,,,,,0,0,4,,,,2,,,67,0
583944,note_on,,,,,264,0,4,,,,2,,,76,0
583944,note_on,,,,,264,0,14,,,,12,,,64,0
583944,note_on,,,,,264,0,16,,,,14,,,48,0
583944,note_on,,,,,264,0,1,,,,0,,,79,0
583944,note_on,,,,,0,0,1,,,,0,,,88,0
584064,note_on,,,,,384,0,12,,,,10,,,88,0
584064,note_on,,,,,384,0,13,,,,11,,,76,0
584064,note_on,,,,,0,0,13,,,,11,,,67,0
584150,note_on,,,,,1430,0,15,,,,13,,,71,0
584150,note_on,,,,,1430,0,8,,,,4,,,71,0
584160,note_on,,,,,10,0,8,,,,4,,,66,92
584160,note_on,,,,,10,0,15,,,,13,,,66,105
584160,note_on,,,,,216,0,14,,,,12,,,60,105
584160,note_on,,,,,0,0,6,,,,3,,,45,92
584160,note_on,,,,,216,0,6,,,,3,,,57,92
584160,note_on,,,,,216,0,16,,,,14,,,45,105
584424,note_on,,,,,264,0,6,,,,3,,,45,0
584424,note_on,,,,,0,0,6,,,,3,,,57,0
584424,note_on,,,,,264,0,14,,,,12,,,60,0
584424,note_on,,,,,264,0,16,,,,14,,,45,0
584640,note_on,,,,,0,0,8,,,,4,,,67,92
584640,note_on,,,,,480,0,8,,,,4,,,66,0
584640,note_on,,,,,0,0,1,,,,0,,,84,92
584640,note_on,,,,,0,0,4,,,,2,,,72,92
584640,note_on,,,,,696,0,4,,,,2,,,69,92
584640,note_on,,,,,696,0,1,,,,0,,,81,92
584640,note_on,,,,,576,0,12,,,,10,,,84,92
584640,note_on,,,,,216,0,16,,,,14,,,42,105
584640,note_on,,,,,576,0,13,,,,11,,,72,92
584640,note_on,,,,,0,0,15,,,,13,,,67,105
584640,note_on,,,,,480,0,15,,,,13,,,66,0
584640,note_on,,,,,0,0,13,,,,11,,,69,92
584640,note_on,,,,,216,0,14,,,,12,,,57,105
584640,note_on,,,,,216,0,6,,,,3,,,54,92
584640,note_on,,,,,0,0,6,,,,3,,,42,92
584904,note_on,,,,,264,0,1,,,,0,,,84,0
584904,note_on,,,,,264,0,4,,,,2,,,72,0
584904,note_on,,,,,0,0,4,,,,2,,,69,0
584904,note_on,,,,,0,0,1,,,,0,,,81,0
584904,note_on,,,,,264,0,16,,,,14,,,42,0
584904,note_on,,,,,264,0,14,,,,12,,,57,0
584904,note_on,,,,,264,0,6,,,,3,,,42,0
584904,note_on,,,,,0,0,6,,,,3,,,54,0
585024,note_on,,,,,0,0,13,,,,11,,,72,0
585024,note_on,,,,,384,0,12,,,,10,,,84,0
585024,note_on,,,,,384,0,13,,,,11,,,69,0
585120,note_on,,,,,0,0,15,,,,13,,,69,105
585120,note_on,,,,,0,0,8,,,,4,,,69,92
585120,note_on,,,,,480,0,15,,,,13,,,67,0
585120,note_on,,,,,480,0,8,,,,4,,,67,0
585590,note_on,,,,,470,0,8,,,,4,,,69,0
585590,note_on,,,,,470,0,15,,,,13,,,69,0
585600,note_on,,,,,10,0,8,,,,4,,,63,92
585600,note_on,,,,,10,0,15,,,,13,,,63,105
586320,note_on,,,,,1416,0,6,,,,3,,,64,92
586320,note_on,,,,,1416,0,16,,,,14,,,48,105
586320,note_on,,,,,0,0,6,,,,3,,,60,92
586320,note_on,,,,,1416,0,14,,,,12,,,64,105
586452,note_on,,,,,0,0,6,,,,3,,,64,0
586452,note_on,,,,,132,0,6,,,,3,,,60,0
586452,note_on,,,,,132,0,14,,,,12,,,64,0
586452,note_on,,,,,132,0,16,,,,14,,,48,0
586540,note_on,,,,,940,0,8,,,,4,,,63,0
586540,note_on,,,,,940,0,15,,,,13,,,63,0
586560,note_on,,,,,108,0,16,,,,14,,,48,105
586560,note_on,,,,,108,0,14,,,,12,,,64,105
586560,note_on,,,,,0,0,6,,,,3,,,64,92
586560,note_on,,,,,108,0,6,,,,3,,,60,92
586560,note_on,,,,,20,0,15,,,,13,,,64,105
586560,note_on,,,,,1656,0,4,,,,2,,,69,92
586560,note_on,,,,,1536,0,12,,,,10,,,69,92
586560,note_on,,,,,1536,0,13,,,,11,,,76,92
586560,note_on,,,,,1656,0,1,,,,0,,,81,92
586560,note_on,,,,,0,0,13,,,,11,,,69,92
586560,note_on,,,,,20,0,8,,,,4,,,64,92
586824,note_on,,,,,264,0,4,,,,2,,,69,0
586824,note_on,,,,,264,0,16,,,,14,,,48,0
586824,note_on,,,,,264,0,14,,,,12,,,64,0
586824,note_on,,,,,264,0,1,,,,0,,,81,0
586824,note_on,,,,,264,0,6,,,,3,,,64,0
586824,note_on,,,,,0,0,6,,,,3,,,60,0
586944,note_on,,,,,384,0,12,,,,10,,,69,0
586944,note_on,,,,,0,0,13,,,,11,,,76,0
586944,note_on,,,,,384,0,13,,,,11,,,69,0
587040,note_on,,,,,216,0,16,,,,14,,,45,105
587040,note_on,,,,,216,0,14,,,,12,,,60,105
587040,note_on,,,,,0,0,6,,,,3,,,60,92
587040,note_on,,,,,216,0,6,,,,3,,,57,92
587304,note_on,,,,,264,0,14,,,,12,,,60,0
587304,note_on,,,,,264,0,16,,,,14,,,45,0
587304,note_on,,,,,264,0,6,,,,3,,,60,0
587304,note_on,,,,,0,0,6,,,,3,,,57,0
587520,note_on,,,,,576,0,13,,,,11,,,69,92
587520,note_on,,,,,0,0,13,,,,11,,,76,92
587520,note_on,,,,,216,0,6,,,,3,,,54,92
587520,note_on,,,,,696,0,4,,,,2,,,76,92
587520,note_on,,,,,0,0,1,,,,0,,,88,92
587520,note_on,,,,,216,0,16,,,,14,,,42,105
587520,note_on,,,,,0,0,6,,,,3,,,57,92
587520,note_on,,,,,216,0,14,,,,12,,,57,105
587520,note_on,,,,,0,0,4,,,,2,,,81,92
587520,note_on,,,,,576,0,12,,,,10,,,81,92
587520,note_on,,,,,696,0,1,,,,0,,,93,92
587784,note_on,,,,,0,0,6,,,,3,,,54,0
587784,note_on,,,,,264,0,16,,,,14,,,42,0
587784,note_on,,,,,264,0,14,,,,12,,,57,0
587784,note_on,,,,,264,0,6,,,,3,,,57,0
587784,note_on,,,,,0,0,1,,,,0,,,93,0
587784,note_on,,,,,264,0,1,,,,0,,,88,0
587784,note_on,,,,,264,0,4,,,,2,,,81,0
587784,note_on,,,,,0,0,4,,,,2,,,76,0
587904,note_on,,,,,384,0,12,,,,10,,,81,0
587904,note_on,,,,,384,0,13,,,,11,,,76,0
587904,note_on,,,,,0,0,13,,,,11,,,69,0
587990,note_on,,,,,1430,0,15,,,,13,,,64,0
587990,note_on,,,,,1430,0,8,,,,4,,,64,0
588000,note_on,,,,,0,0,6,,,,3,,,51,92
588000,note_on,,,,,10,0,15,,,,13,,,66,105
588000,note_on,,,,,216,0,14,,,,12,,,54,105
588000,note_on,,,,,10,0,8,,,,4,,,66,92
588000,note_on,,,,,216,0,16,,,,14,,,39,105
588000,note_on,,,,,216,0,6,,,,3,,,54,92
588264,note_on,,,,,264,0,6,,,,3,,,51,0
588264,note_on,,,,,0,0,6,,,,3,,,54,0
588264,note_on,,,,,264,0,16,,,,14,,,39,0
588264,note_on,,,,,264,0,14,,,,12,,,54,0
588480,note_on,,,,,576,0,12,,,,10,,,75,92
588480,note_on,,,,,576,0,13,,,,11,,,75,92
588480,note_on,,,,,0,0,13,,,,11,,,69,92
588480,note_on,,,,,216,0,16,,,,14,,,35,105
588480,note_on,,,,,480,0,8,,,,4,,,66,0
588480,note_on,,,,,216,0,14,,,,12,,,59,105
588480,note_on,,,,,696,0,1,,,,0,,,87,92
588480,note_on,,,,,480,0,15,,,,13,,,66,0
588480,note_on,,,,,0,0,15,,,,13,,,67,105
588480,note_on,,,,,0,0,8,,,,4,,,67,92
588480,note_on,,,,,696,0,4,,,,2,,,75,92
588480,note_on,,,,,0,0,6,,,,3,,,47,92
588480,note_on,,,,,216,0,6,,,,3,,,59,92
588744,note_on,,,,,0,0,6,,,,3,,,59,0
588744,note_on,,,,,264,0,14,,,,12,,,59,0
588744,note_on,,,,,264,0,4,,,,2,,,75,0
588744,note_on,,,,,264,0,16,,,,14,,,35,0
588744,note_on,,,,,264,0,6,,,,3,,,47,0
588744,note_on,,,,,264,0,1,,,,0,,,87,0
588864,note_on,,,,,384,0,12,,,,10,,,75,0
588864,note_on,,,,,384,0,13,,,,11,,,69,0
588864,note_on,,,,,0,0,13,,,,11,,,75,0
588960,note_on,,,,,0,0,15,,,,13,,,63,105
588960,note_on,,,,,480,0,8,,,,4,,,67,0
588960,note_on,,,,,0,0,8,,,,4,,,63,92
588960,note_on,,,,,480,0,15,,,,13,,,67,0
589430,note_on,,,,,470,0,15,,,,13,,,63,0
589430,note_on,,,,,470,0,8,,,,4,,,63,0
589440,note_on,,,,,0,0,1,,,,0,,,81,92
589440,note_on,,,,,13176,0,3,,,,1,,,69,92
589440,note_on,,,,,696,0,1,,,,0,,,90,92
589440,note_on,,,,,0,0,4,,,,2,,,78,92
589440,note_on,,,,,696,0,4,,,,2,,,69,92
589440,note_on,,,,,10,0,8,,,,4,,,66,105
589440,note_on,,,,,10,0,15,,,,13,,,66,105
589440,note_on,,,,,0,0,3,,,,1,,,78,92
590160,note_on,,,,,0,0,6,,,,3,,,60,92
590160,note_on,,,,,1416,0,6,,,,3,,,64,92
590160,note_on,,,,,1416,0,14,,,,12,,,64,105
590160,note_on,,,,,1416,0,16,,,,14,,,48,105
590292,note_on,,,,,132,0,16,,,,14,,,48,0
590292,note_on,,,,,132,0,6,,,,3,,,60,0
590292,note_on,,,,,0,0,6,,,,3,,,64,0
590292,note_on,,,,,132,0,14,,,,12,,,64,0
590380,note_on,,,,,940,0,4,,,,2,,,78,0
590380,note_on,,,,,0,0,4,,,,2,,,69,0
590380,note_on,,,,,940,0,1,,,,0,,,81,0
590380,note_on,,,,,0,0,1,,,,0,,,90,0
590380,note_on,,,,,940,0,15,,,,13,,,66,0
590380,note_on,,,,,0,0,3,,,,1,,,69,0
590380,note_on,,,,,940,0,3,,,,1,,,78,0
590380,note_on,,,,,940,0,8,,,,4,,,66,0
590400,note_on,,,,,0,0,3,,,,1,,,67,92
590400,note_on,,,,,20,0,3,,,,1,,,76,92
590400,note_on,,,,,20,0,8,,,,4,,,64,105
590400,note_on,,,,,0,0,6,,,,3,,,60,92
590400,note_on,,,,,1536,0,12,,,,10,,,76,92
590400,note_on,,,,,20,0,4,,,,2,,,76,92
590400,note_on,,,,,0,0,4,,,,2,,,67,92
590400,note_on,,,,,108,0,16,,,,14,,,48,105
590400,note_on,,,,,20,0,15,,,,13,,,64,105
590400,note_on,,,,,108,0,14,,,,12,,,64,105
590400,note_on,,,,,0,0,1,,,,0,,,88,92
590400,note_on,,,,,1536,0,13,,,,11,,,67,92
590400,note_on,,,,,108,0,6,,,,3,,,64,92
590400,note_on,,,,,0,0,13,,,,11,,,76,92
590400,note_on,,,,,20,0,1,,,,0,,,79,92
590664,note_on,,,,,264,0,6,,,,3,,,60,0
590664,note_on,,,,,264,0,16,,,,14,,,48,0
590664,note_on,,,,,264,0,14,,,,12,,,64,0
590664,note_on,,,,,0,0,6,,,,3,,,64,0
590784,note_on,,,,,384,0,13,,,,11,,,76,0
590784,note_on,,,,,384,0,12,,,,10,,,76,0
590784,note_on,,,,,0,0,13,,,,11,,,67,0
590880,note_on,,,,,216,0,14,,,,12,,,60,105
590880,note_on,,,,,216,0,6,,,,3,,,57,92
590880,note_on,,,,,216,0,16,,,,14,,,45,105
590880,note_on,,,,,0,0,6,,,,3,,,60,92
591144,note_on,,,,,264,0,16,,,,14,,,45,0
591144,note_on,,,,,264,0,6,,,,3,,,60,0
591144,note_on,,,,,264,0,14,,,,12,,,60,0
591144,note_on,,,,,0,0,6,,,,3,,,57,0
591340,note_on,,,,,940,0,1,,,,0,,,79,0
591340,note_on,,,,,940,0,4,,,,2,,,67,0
591340,note_on,,,,,940,0,3,,,,1,,,67,0
591360,note_on,,,,,216,0,6,,,,3,,,57,92
591360,note_on,,,,,20,0,3,,,,1,,,72,92
591360,note_on,,,,,0,0,6,,,,3,,,54,92
591360,note_on,,,,,20,0,4,,,,2,,,72,92
591360,note_on,,,,,20,0,1,,,,0,,,84,92
591360,note_on,,,,,216,0,16,,,,14,,,42,105
591360,note_on,,,,,0,0,13,,,,11,,,72,92
591360,note_on,,,,,576,0,13,,,,11,,,69,92
591360,note_on,,,,,216,0,14,,,,12,,,57,105
591360,note_on,,,,,576,0,12,,,,10,,,72,92
591624,note_on,,,,,264,0,6,,,,3,,,54,0
591624,note_on,,,,,264,0,16,,,,14,,,42,0
591624,note_on,,,,,0,0,6,,,,3,,,57,0
591624,note_on,,,,,264,0,14,,,,12,,,57,0
591744,note_on,,,,,384,0,12,,,,10,,,72,0
591744,note_on,,,,,0,0,13,,,,11,,,69,0
591744,note_on,,,,,384,0,13,,,,11,,,72,0
591830,note_on,,,,,1430,0,8,,,,4,,,64,0
591830,note_on,,,,,1430,0,15,,,,13,,,64,0
591840,note_on,,,,,0,0,4,,,,2,,,76,0
591840,note_on,,,,,0,0,4,,,,2,,,78,92
591840,note_on,,,,,0,0,4,,,,2,,,69,92
591840,note_on,,,,,0,0,1,,,,0,,,88,0
591840,note_on,,,,,0,0,3,,,,1,,,76,0
591840,note_on,,,,,480,0,3,,,,1,,,72,0
591840,note_on,,,,,480,0,4,,,,2,,,72,0
591840,note_on,,,,,216,0,14,,,,12,,,54,105
591840,note_on,,,,,0,0,6,,,,3,,,51,92
591840,note_on,,,,,216,0,6,,,,3,,,54,92
591840,note_on,,,,,216,0,16,,,,14,,,39,105
591840,note_on,,,,,10,0,15,,,,13,,,66,105
591840,note_on,,,,,480,0,1,,,,0,,,84,0
591840,note_on,,,,,0,0,3,,,,1,,,78,92
591840,note_on,,,,,0,0,3,,,,1,,,69,92
591840,note_on,,,,,0,0,1,,,,0,,,90,92
591840,note_on,,,,,10,0,8,,,,4,,,66,105
591840,note_on,,,,,0,0,1,,,,0,,,81,92
592104,note_on,,,,,264,0,6,,,,3,,,51,0
592104,note_on,,,,,0,0,6,,,,3,,,54,0
592104,note_on,,,,,264,0,16,,,,14,,,39,0
592104,note_on,,,,,264,0,14,,,,12,,,54,0
592320,note_on,,,,,0,0,15,,,,13,,,67,105
592320,note_on,,,,,0,0,6,,,,3,,,47,92
592320,note_on,,,,,480,0,1,,,,0,,,81,0
592320,note_on,,,,,0,0,1,,,,0,,,91,92
592320,note_on,,,,,216,0,16,,,,14,,,35,105
592320,note_on,,,,,0,0,1,,,,0,,,90,0
592320,note_on,,,,,0,0,3,,,,1,,,79,92
592320,note_on,,,,,0,0,3,,,,1,,,78,0
592320,note_on,,,,,480,0,3,,,,1,,,69,0
592320,note_on,,,,,0,0,1,,,,0,,,83,92
592320,note_on,,,,,480,0,15,,,,13,,,66,0
592320,note_on,,,,,216,0,6,,,,3,,,59,92
592320,note_on,,,,,216,0,14,,,,12,,,59,105
592320,note_on,,,,,480,0,8,,,,4,,,66,0
592320,note_on,,,,,0,0,8,,,,4,,,67,105
592320,note_on,,,,,0,0,4,,,,2,,,71,92
592320,note_on,,,,,0,0,4,,,,2,,,79,92
592320,note_on,,,,,0,0,4,,,,2,,,78,0
592320,note_on,,,,,480,0,4,,,,2,,,69,0
592320,note_on,,,,,0,0,3,,,,1,,,71,92
592320,note_on,,,,,576,0,13,,,,11,,,71,92
592320,note_on,,,,,576,0,12,,,,10,,,71,92
592584,note_on,,,,,0,0,6,,,,3,,,59,0
592584,note_on,,,,,264,0,6,,,,3,,,47,0
592584,note_on,,,,,264,0,16,,,,14,,,35,0
592584,note_on,,,,,264,0,14,,,,12,,,59,0
592704,note_on,,,,,384,0,13,,,,11,,,71,0
592704,note_on,,,,,384,0,12,,,,10,,,71,0
592800,note_on,,,,,0,0,3,,,,1,,,76,92
592800,program_change,,,,,96,0,13,,,48,11,,,,
592800,note_on,,,,,0,0,8,,,,4,,,64,105
592800,note_on,,,,,0,0,3,,,,1,,,70,92
592800,note_on,,,,,0,0,1,,,,0,,,82,92
592800,note_on,,,,,480,0,3,,,,1,,,71,0
592800,note_on,,,,,0,0,15,,,,13,,,64,105
592800,note_on,,,,,480,0,15,,,,13,,,67,0
592800,program_change,,,,,96,0,12,,,48,10,,,,
592800,note_on,,,,,0,0,1,,,,0,,,88,92
592800,note_on,,,,,0,0,1,,,,0,,,83,0
592800,note_on,,,,,0,0,3,,,,1,,,79,0
592800,note_on,,,,,480,0,4,,,,2,,,71,0
592800,note_on,,,,,0,0,4,,,,2,,,70,92
592800,note_on,,,,,480,0,1,,,,0,,,91,0
592800,note_on,,,,,480,0,8,,,,4,,,67,0
593270,note_on,,,,,0,0,4,,,,2,,,79,0
593270,note_on,,,,,0,0,1,,,,0,,,88,0
593270,note_on,,,,,470,0,8,,,,4,,,64,0
593270,note_on,,,,,0,0,3,,,,1,,,70,0
593270,note_on,,,,,470,0,1,,,,0,,,82,0
593270,note_on,,,,,470,0,3,,,,1,,,76,0
593270,note_on,,,,,470,0,15,,,,13,,,64,0
593270,note_on,,,,,470,0,4,,,,2,,,70,0
593280,note_on,,,,,480,0,12,,,,10,,,71,105
593280,note_on,,,,,10,0,8,,,,4,,,59,105
593280,note_on,,,,,480,0,13,,,,11,,,59,105
593280,note_on,,,,,10,0,15,,,,13,,,59,105
593664,note_on,,,,,384,0,8,,,,4,,,59,0
593664,note_on,,,,,384,0,15,,,,13,,,59,0
594000,note_on,,,,,730,0,4,,,,2,,,66,92
594000,note_on,,,,,1416,0,16,,,,14,,,39,105
594000,note_on,,,,,0,0,6,,,,3,,,51,92
594000,note_on,,,,,1416,0,6,,,,3,,,39,92
594000,note_on,,,,,1416,0,14,,,,12,,,78,105
594000,note_on,,,,,0,0,4,,,,2,,,78,92
594000,note_on,,,,,336,0,15,,,,13,,,51,105
594000,note_on,,,,,730,0,1,,,,0,,,90,92
594132,note_on,,,,,132,0,14,,,,12,,,78,0
594132,note_on,,,,,0,0,4,,,,2,,,66,0
594132,note_on,,,,,132,0,4,,,,2,,,78,0
594132,note_on,,,,,0,0,6,,,,3,,,39,0
594132,note_on,,,,,132,0,1,,,,0,,,90,0
594132,note_on,,,,,132,0,15,,,,13,,,51,0
594132,note_on,,,,,132,0,6,,,,3,,,51,0
594132,note_on,,,,,132,0,16,,,,14,,,39,0
594240,note_on,,,,,108,0,1,,,,0,,,90,92
594240,note_on,,,,,960,0,12,,,,10,,,71,0
594240,note_on,,,,,0,0,12,,,,10,,,81,105
594240,note_on,,,,,960,0,13,,,,11,,,59,0
594240,note_on,,,,,108,0,4,,,,2,,,66,92
594240,note_on,,,,,0,0,4,,,,2,,,78,92
594240,note_on,,,,,0,0,13,,,,11,,,69,105
594240,note_on,,,,,0,0,6,,,,3,,,51,92
594240,note_on,,,,,108,0,16,,,,14,,,39,105
594240,note_on,,,,,108,0,15,,,,13,,,51,105
594240,note_on,,,,,108,0,6,,,,3,,,39,92
594240,note_on,,,,,108,0,14,,,,12,,,78,105
594504,note_on,,,,,264,0,1,,,,0,,,90,0
594504,note_on,,,,,0,0,6,,,,3,,,39,0
594504,note_on,,,,,264,0,16,,,,14,,,39,0
594504,note_on,,,,,264,0,15,,,,13,,,51,0
594504,note_on,,,,,264,0,4,,,,2,,,78,0
594504,note_on,,,,,264,0,14,,,,12,,,78,0
594504,note_on,,,,,264,0,6,,,,3,,,51,0
594504,note_on,,,,,0,0,4,,,,2,,,66,0
594720,note_on,,,,,216,0,4,,,,2,,,63,92
594720,note_on,,,,,0,0,4,,,,2,,,75,92
594720,note_on,,,,,216,0,14,,,,12,,,75,105
594720,note_on,,,,,216,0,16,,,,14,,,35,105
594720,note_on,,,,,0,0,6,,,,3,,,35,92
594720,note_on,,,,,216,0,15,,,,13,,,47,105
594720,note_on,,,,,216,0,1,,,,0,,,87,92
594720,note_on,,,,,216,0,6,,,,3,,,47,92
594960,note_on,,,,,1690,0,3,,,,1,,,78,92
594960,note_on,,,,,0,0,3,,,,1,,,75,92
594960,note_on,,,,,0,0,8,,,,4,,,66,92
594960,note_on,,,,,1296,0,8,,,,4,,,59,92
594984,note_on,,,,,264,0,1,,,,0,,,87,0
594984,note_on,,,,,0,0,6,,,,3,,,47,0
594984,note_on,,,,,264,0,15,,,,13,,,47,0
594984,note_on,,,,,264,0,16,,,,14,,,35,0
594984,note_on,,,,,0,0,4,,,,2,,,63,0
594984,note_on,,,,,264,0,14,,,,12,,,75,0
594984,note_on,,,,,264,0,4,,,,2,,,75,0
594984,note_on,,,,,264,0,6,,,,3,,,35,0
595092,note_on,,,,,0,0,3,,,,1,,,78,0
595092,note_on,,,,,132,0,3,,,,1,,,75,0
595152,note_on,,,,,192,0,8,,,,4,,,66,0
595152,note_on,,,,,0,0,8,,,,4,,,59,0
595200,note_on,,,,,48,0,8,,,,4,,,59,92
595200,note_on,,,,,216,0,6,,,,3,,,43,92
595200,note_on,,,,,216,0,16,,,,14,,,43,105
595200,note_on,,,,,0,0,6,,,,3,,,55,92
595200,note_on,,,,,0,0,8,,,,4,,,66,92
595200,note_on,,,,,216,0,4,,,,2,,,71,92
595200,note_on,,,,,0,0,3,,,,1,,,78,92
595200,note_on,,,,,108,0,3,,,,1,,,75,92
595200,note_on,,,,,216,0,14,,,,12,,,71,105
595200,note_on,,,,,216,0,15,,,,13,,,55,105
595200,note_on,,,,,216,0,1,,,,0,,,83,92
595464,note_on,,,,,0,0,3,,,,1,,,75,0
595464,note_on,,,,,264,0,6,,,,3,,,55,0
595464,note_on,,,,,264,0,4,,,,2,,,71,0
595464,note_on,,,,,264,0,14,,,,12,,,71,0
595464,note_on,,,,,264,0,1,,,,0,,,83,0
595464,note_on,,,,,0,0,6,,,,3,,,43,0
595464,note_on,,,,,264,0,3,,,,1,,,78,0
595464,note_on,,,,,264,0,15,,,,13,,,55,0
595464,note_on,,,,,264,0,8,,,,4,,,66,0
595464,note_on,,,,,0,0,8,,,,4,,,59,0
595464,note_on,,,,,264,0,16,,,,14,,,43,0
595670,note_on,,,,,1430,0,12,,,,10,,,81,0
595670,note_on,,,,,1430,0,13,,,,11,,,69,0
595680,note_on,,,,,216,0,6,,,,3,,,40,92
595680,note_on,,,,,10,0,12,,,,10,,,83,105
595680,note_on,,,,,216,0,15,,,,13,,,52,105
595680,note_on,,,,,216,0,1,,,,0,,,79,92
595680,note_on,,,,,216,0,4,,,,2,,,67,92
595680,note_on,,,,,216,0,14,,,,12,,,67,105
595680,note_on,,,,,216,0,16,,,,14,,,40,105
595680,note_on,,,,,0,0,6,,,,3,,,52,92
595680,note_on,,,,,10,0,13,,,,11,,,71,105
595944,note_on,,,,,0,0,6,,,,3,,,40,0
595944,note_on,,,,,264,0,6,,,,3,,,52,0
595944,note_on,,,,,264,0,1,,,,0,,,79,0
595944,note_on,,,,,264,0,14,,,,12,,,67,0
595944,note_on,,,,,264,0,16,,,,14,,,40,0
595944,note_on,,,,,264,0,15,,,,13,,,52,0
595944,note_on,,,,,264,0,4,,,,2,,,67,0
596160,note_on,,,,,216,0,1,,,,0,,,76,92
596160,note_on,,,,,216,0,16,,,,14,,,48,105
596160,note_on,,,,,216,0,14,,,,12,,,64,105
596160,note_on,,,,,216,0,6,,,,3,,,60,92
596160,note_on,,,,,0,0,6,,,,3,,,48,92
596160,note_on,,,,,216,0,15,,,,13,,,60,105
596160,note_on,,,,,480,0,12,,,,10,,,83,0
596160,note_on,,,,,0,0,12,,,,10,,,81,105
596160,note_on,,,,,216,0,4,,,,2,,,64,92
596160,note_on,,,,,480,0,13,,,,11,,,71,0
596160,note_on,,,,,0,0,13,,,,11,,,69,105
596160,note_on,,,,,696,0,8,,,,4,,,67,92
596160,note_on,,,,,0,0,8,,,,4,,,64,92
596160,note_on,,,,,0,0,3,,,,1,,,76,92
596160,note_on,,,,,696,0,3,,,,1,,,79,92
596424,note_on,,,,,0,0,6,,,,3,,,60,0
596424,note_on,,,,,264,0,6,,,,3,,,48,0
596424,note_on,,,,,264,0,8,,,,4,,,64,0
596424,note_on,,,,,0,0,8,,,,4,,,67,0
596424,note_on,,,,,264,0,1,,,,0,,,76,0
596424,note_on,,,,,264,0,4,,,,2,,,64,0
596424,note_on,,,,,264,0,16,,,,14,,,48,0
596424,note_on,,,,,264,0,14,,,,12,,,64,0
596424,note_on,,,,,264,0,3,,,,1,,,76,0
596424,note_on,,,,,0,0,3,,,,1,,,79,0
596424,note_on,,,,,264,0,15,,,,13,,,60,0
596640,note_on,,,,,0,0,13,,,,11,,,67,105
596640,note_on,,,,,0,0,12,,,,10,,,79,105
596640,note_on,,,,,480,0,13,,,,11,,,69,0
596640,note_on,,,,,480,0,12,,,,10,,,81,0
597110,note_on,,,,,470,0,13,,,,11,,,67,0
597110,note_on,,,,,470,0,12,,,,10,,,79,0
597120,note_on,,,,,10,0,13,,,,11,,,74,105
597120,note_on,,,,,10,0,12,,,,10,,,86,105
597840,note_on,,,,,0,0,6,,,,3,,,54,92
597840,note_on,,,,,0,0,4,,,,2,,,69,92
597840,note_on,,,,,1416,0,4,,,,2,,,81,92
597840,note_on,,,,,1416,0,14,,,,12,,,69,105
597840,note_on,,,,,1416,0,1,,,,0,,,81,92
597840,note_on,,,,,1416,0,16,,,,14,,,42,105
597840,note_on,,,,,1416,0,6,,,,3,,,42,92
597840,note_on,,,,,1416,0,15,,,,13,,,54,105
597840,note_on,,,,,0,0,1,,,,0,,,93,92
597972,note_on,,,,,0,0,1,,,,0,,,81,0
597972,note_on,,,,,132,0,16,,,,14,,,42,0
597972,note_on,,,,,132,0,6,,,,3,,,54,0
597972,note_on,,,,,0,0,6,,,,3,,,42,0
597972,note_on,,,,,132,0,4,,,,2,,,69,0
597972,note_on,,,,,0,0,4,,,,2,,,81,0
597972,note_on,,,,,132,0,15,,,,13,,,54,0
597972,note_on,,,,,132,0,14,,,,12,,,69,0
597972,note_on,,,,,132,0,1,,,,0,,,93,0
598060,note_on,,,,,940,0,13,,,,11,,,74,0
598060,note_on,,,,,940,0,12,,,,10,,,86,0
598080,note_on,,,,,108,0,14,,,,12,,,69,105
598080,note_on,,,,,108,0,16,,,,14,,,42,105
598080,note_on,,,,,108,0,1,,,,0,,,81,92
598080,note_on,,,,,0,0,1,,,,0,,,93,92
598080,note_on,,,,,108,0,4,,,,2,,,69,92
598080,note_on,,,,,20,0,13,,,,11,,,72,105
598080,note_on,,,,,0,0,4,,,,2,,,81,92
598080,note_on,,,,,0,0,6,,,,3,,,54,92
598080,note_on,,,,,108,0,6,,,,3,,,42,92
598080,note_on,,,,,20,0,12,,,,10,,,84,105
598080,note_on,,,,,108,0,15,,,,13,,,54,105
598344,note_on,,,,,264,0,15,,,,13,,,54,0
598344,note_on,,,,,264,0,6,,,,3,,,54,0
598344,note_on,,,,,0,0,6,,,,3,,,42,0
598344,note_on,,,,,264,0,4,,,,2,,,81,0
598344,note_on,,,,,264,0,14,,,,12,,,69,0
598344,note_on,,,,,0,0,4,,,,2,,,69,0
598344,note_on,,,,,264,0,16,,,,14,,,42,0
598344,note_on,,,,,0,0,1,,,,0,,,81,0
598344,note_on,,,,,264,0,1,,,,0,,,93,0
598560,note_on,,,,,216,0,6,,,,3,,,50,92
598560,note_on,,,,,0,0,4,,,,2,,,66,92
598560,note_on,,,,,216,0,14,,,,12,,,66,105
598560,note_on,,,,,216,0,16,,,,14,,,38,105
598560,note_on,,,,,216,0,4,,,,2,,,78,92
598560,note_on,,,,,216,0,15,,,,13,,,50,105
598560,note_on,,,,,0,0,6,,,,3,,,38,92
598560,note_on,,,,,216,0,1,,,,0,,,90,92
598800,note_on,,,,,0,0,3,,,,1,,,78,92
598800,note_on,,,,,0,0,8,,,,4,,,62,92
598800,note_on,,,,,2376,0,8,,,,4,,,69,92
598800,note_on,,,,,2376,0,3,,,,1,,,81,92
598824,note_on,,,,,0,0,4,,,,2,,,78,0
598824,note_on,,,,,264,0,15,,,,13,,,50,0
598824,note_on,,,,,264,0,14,,,,12,,,66,0
598824,note_on,,,,,264,0,1,,,,0,,,90,0
598824,note_on,,,,,0,0,6,,,,3,,,50,0
598824,note_on,,,,,264,0,4,,,,2,,,66,0
598824,note_on,,,,,264,0,16,,,,14,,,38,0
598824,note_on,,,,,264,0,6,,,,3,,,38,0
598932,note_on,,,,,132,0,8,,,,4,,,62,0
598932,note_on,,,,,0,0,3,,,,1,,,81,0
598932,note_on,,,,,0,0,8,,,,4,,,69,0
598932,note_on,,,,,132,0,3,,,,1,,,78,0
599040,note_on,,,,,216,0,16,,,,14,,,47,105
599040,note_on,,,,,216,0,4,,,,2,,,72,92
599040,note_on,,,,,0,0,3,,,,1,,,78,92
599040,note_on,,,,,108,0,3,,,,1,,,81,92
599040,note_on,,,,,0,0,6,,,,3,,,59,92
599040,note_on,,,,,216,0,6,,,,3,,,47,92
599040,note_on,,,,,108,0,8,,,,4,,,62,92
599040,note_on,,,,,216,0,1,,,,0,,,84,92
599040,note_on,,,,,216,0,15,,,,13,,,59,105
599040,note_on,,,,,216,0,14,,,,12,,,62,105
599040,note_on,,,,,0,0,8,,,,4,,,69,92
599304,note_on,,,,,264,0,14,,,,12,,,62,0
599304,note_on,,,,,264,0,3,,,,1,,,78,0
599304,note_on,,,,,264,0,1,,,,0,,,84,0
599304,note_on,,,,,264,0,8,,,,4,,,69,0
599304,note_on,,,,,0,0,8,,,,4,,,62,0
599304,note_on,,,,,264,0,4,,,,2,,,72,0
599304,note_on,,,,,264,0,15,,,,13,,,59,0
599304,note_on,,,,,0,0,6,,,,3,,,47,0
599304,note_on,,,,,264,0,6,,,,3,,,59,0
599304,note_on,,,,,0,0,3,,,,1,,,81,0
599304,note_on,,,,,264,0,16,,,,14,,,47,0
599510,note_on,,,,,1430,0,12,,,,10,,,84,0
599510,note_on,,,,,1430,0,13,,,,11,,,72,0
599520,note_on,,,,,216,0,1,,,,0,,,83,92
599520,note_on,,,,,10,0,13,,,,11,,,71,105
599520,note_on,,,,,216,0,16,,,,14,,,43,105
599520,note_on,,,,,216,0,14,,,,12,,,59,105
599520,note_on,,,,,216,0,15,,,,13,,,55,105
599520,note_on,,,,,216,0,6,,,,3,,,43,92
599520,note_on,,,,,0,0,6,,,,3,,,55,92
599520,note_on,,,,,216,0,4,,,,2,,,71,92
599520,note_on,,,,,10,0,12,,,,10,,,83,105
599784,note_on,,,,,264,0,16,,,,14,,,43,0
599784,note_on,,,,,264,0,6,,,,3,,,55,0
599784,note_on,,,,,0,0,6,,,,3,,,43,0
599784,note_on,,,,,264,0,4,,,,2,,,71,0
599784,note_on,,,,,264,0,15,,,,13,,,55,0
599784,note_on,,,,,264,0,14,,,,12,,,59,0
599784,note_on,,,,,264,0,1,,,,0,,,83,0
600000,note_on,,,,,216,0,15,,,,13,,,64,105
600000,note_on,,,,,0,0,8,,,,4,,,67,92
600000,note_on,,,,,216,0,14,,,,12,,,55,105
600000,note_on,,,,,0,0,12,,,,10,,,78,105
600000,note_on,,,,,696,0,3,,,,1,,,83,92
600000,note_on,,,,,0,0,3,,,,1,,,79,92
600000,note_on,,,,,696,0,8,,,,4,,,71,92
600000,note_on,,,,,216,0,4,,,,2,,,67,92
600000,note_on,,,,,480,0,12,,,,10,,,83,0
600000,note_on,,,,,0,0,13,,,,11,,,66,105
600000,note_on,,,,,216,0,16,,,,14,,,52,105
600000,note_on,,,,,480,0,13,,,,11,,,71,0
600000,note_on,,,,,216,0,6,,,,3,,,64,92
600000,note_on,,,,,216,0,1,,,,0,,,79,92
600000,note_on,,,,,0,0,6,,,,3,,,52,92
600264,note_on,,,,,264,0,4,,,,2,,,67,0
600264,note_on,,,,,264,0,6,,,,3,,,52,0
600264,note_on,,,,,0,0,6,,,,3,,,64,0
600264,note_on,,,,,0,0,8,,,,4,,,71,0
600264,note_on,,,,,264,0,16,,,,14,,,52,0
600264,note_on,,,,,264,0,3,,,,1,,,79,0
600264,note_on,,,,,0,0,3,,,,1,,,83,0
600264,note_on,,,,,264,0,15,,,,13,,,64,0
600264,note_on,,,,,264,0,1,,,,0,,,79,0
600264,note_on,,,,,264,0,8,,,,4,,,67,0
600264,note_on,,,,,264,0,14,,,,12,,,55,0
600480,note_on,,,,,0,0,13,,,,11,,,67,105
600480,note_on,,,,,0,0,12,,,,10,,,79,105
600480,note_on,,,,,480,0,12,,,,10,,,78,0
600480,note_on,,,,,480,0,13,,,,11,,,66,0
600950,note_on,,,,,470,0,13,,,,11,,,67,0
600950,note_on,,,,,470,0,12,,,,10,,,79,0
600960,note_on,,,,,10,0,12,,,,10,,,75,105
600960,note_on,,,,,10,0,13,,,,11,,,63,105
601680,note_on,,,,,1416,0,15,,,,13,,,48,105
601680,note_on,,,,,1416,0,14,,,,12,,,76,105
601680,note_on,,,,,1416,0,16,,,,14,,,36,105
601680,note_on,,,,,1416,0,6,,,,3,,,48,92
601680,note_on,,,,,1416,0,4,,,,2,,,76,92
601680,note_on,,,,,1416,0,1,,,,0,,,88,92
601812,note_on,,,,,132,0,15,,,,13,,,48,0
601812,note_on,,,,,132,0,4,,,,2,,,76,0
601812,note_on,,,,,132,0,1,,,,0,,,88,0
601812,note_on,,,,,132,0,6,,,,3,,,48,0
601812,note_on,,,,,132,0,14,,,,12,,,76,0
601812,note_on,,,,,132,0,16,,,,14,,,36,0
601900,note_on,,,,,940,0,13,,,,11,,,63,0
601900,note_on,,,,,940,0,12,,,,10,,,75,0
601920,note_on,,,,,108,0,15,,,,13,,,48,105
601920,note_on,,,,,108,0,6,,,,3,,,48,92
601920,note_on,,,,,108,0,14,,,,12,,,76,105
601920,note_on,,,,,108,0,16,,,,14,,,36,105
601920,note_on,,,,,108,0,1,,,,0,,,88,92
601920,note_on,,,,,108,0,4,,,,2,,,76,92
601920,note_on,,,,,20,0,13,,,,11,,,64,105
601920,note_on,,,,,20,0,12,,,,10,,,76,105
602184,note_on,,,,,264,0,4,,,,2,,,76,0
602184,note_on,,,,,264,0,16,,,,14,,,36,0
602184,note_on,,,,,264,0,6,,,,3,,,48,0
602184,note_on,,,,,264,0,14,,,,12,,,76,0
602184,note_on,,,,,264,0,15,,,,13,,,48,0
602184,note_on,,,,,264,0,1,,,,0,,,88,0
602400,note_on,,,,,216,0,4,,,,2,,,72,92
602400,note_on,,,,,216,0,14,,,,12,,,72,105
602400,note_on,,,,,216,0,6,,,,3,,,45,92
602400,note_on,,,,,216,0,15,,,,13,,,45,105
602400,note_on,,,,,216,0,1,,,,0,,,84,92
602400,note_on,,,,,216,0,16,,,,14,,,33,105
602640,note_on,,,,,2376,0,8,,,,4,,,64,92
602640,note_on,,,,,0,0,3,,,,1,,,76,92
602640,note_on,,,,,2376,0,3,,,,1,,,72,92
602664,note_on,,,,,264,0,15,,,,13,,,45,0
602664,note_on,,,,,264,0,1,,,,0,,,84,0
602664,note_on,,,,,264,0,6,,,,3,,,45,0
602664,note_on,,,,,264,0,4,,,,2,,,72,0
602664,note_on,,,,,264,0,16,,,,14,,,33,0
602664,note_on,,,,,264,0,14,,,,12,,,72,0
602772,note_on,,,,,132,0,8,,,,4,,,64,0
602772,note_on,,,,,0,0,3,,,,1,,,72,0
602772,note_on,,,,,132,0,3,,,,1,,,76,0
602880,note_on,,,,,216,0,4,,,,2,,,69,92
602880,note_on,,,,,216,0,1,,,,0,,,81,92
602880,note_on,,,,,216,0,16,,,,14,,,42,105
602880,note_on,,,,,216,0,6,,,,3,,,54,92
602880,note_on,,,,,108,0,3,,,,1,,,81,92
602880,note_on,,,,,0,0,3,,,,1,,,72,92
602880,note_on,,,,,216,0,15,,,,13,,,54,105
602880,note_on,,,,,0,0,8,,,,4,,,69,92
602880,note_on,,,,,108,0,8,,,,4,,,66,92
602880,note_on,,,,,216,0,14,,,,12,,,69,105
603144,note_on,,,,,264,0,15,,,,13,,,54,0
603144,note_on,,,,,264,0,3,,,,1,,,72,0
603144,note_on,,,,,264,0,16,,,,14,,,42,0
603144,note_on,,,,,264,0,1,,,,0,,,81,0
603144,note_on,,,,,264,0,8,,,,4,,,69,0
603144,note_on,,,,,0,0,8,,,,4,,,66,0
603144,note_on,,,,,264,0,4,,,,2,,,69,0
603144,note_on,,,,,264,0,14,,,,12,,,69,0
603144,note_on,,,,,264,0,6,,,,3,,,54,0
603144,note_on,,,,,0,0,3,,,,1,,,81,0
603350,note_on,,,,,1430,0,13,,,,11,,,64,0
603350,note_on,,,,,1430,0,12,,,,10,,,76,0
603360,note_on,,,,,216,0,1,,,,0,,,78,92
603360,note_on,,,,,216,0,4,,,,2,,,66,92
603360,note_on,,,,,10,0,13,,,,11,,,66,105
603360,note_on,,,,,216,0,15,,,,13,,,51,105
603360,note_on,,,,,216,0,16,,,,14,,,39,105
603360,note_on,,,,,10,0,12,,,,10,,,78,105
603360,note_on,,,,,216,0,6,,,,3,,,51,92
603360,note_on,,,,,216,0,14,,,,12,,,66,105
603624,note_on,,,,,264,0,14,,,,12,,,66,0
603624,note_on,,,,,264,0,1,,,,0,,,78,0
603624,note_on,,,,,264,0,15,,,,13,,,51,0
603624,note_on,,,,,264,0,4,,,,2,,,66,0
603624,note_on,,,,,264,0,6,,,,3,,,51,0
603624,note_on,,,,,264,0,16,,,,14,,,39,0
603840,note_on,,,,,696,0,8,,,,4,,,63,92
603840,note_on,,,,,480,0,13,,,,11,,,66,0
603840,note_on,,,,,0,0,13,,,,11,,,67,105
603840,note_on,,,,,0,0,8,,,,4,,,71,92
603840,note_on,,,,,216,0,14,,,,12,,,63,105
603840,note_on,,,,,216,0,15,,,,13,,,59,105
603840,note_on,,,,,0,0,3,,,,1,,,75,92
603840,note_on,,,,,696,0,3,,,,1,,,71,92
603840,note_on,,,,,216,0,6,,,,3,,,59,92
603840,note_on,,,,,480,0,12,,,,10,,,78,0
603840,note_on,,,,,216,0,16,,,,14,,,47,105
603840,note_on,,,,,216,0,1,,,,0,,,75,92
603840,note_on,,,,,216,0,4,,,,2,,,63,92
603840,note_on,,,,,0,0,12,,,,10,,,79,116
604104,note_on,,,,,264,0,15,,,,13,,,59,0
604104,note_on,,,,,0,0,3,,,,1,,,71,0
604104,note_on,,,,,264,0,3,,,,1,,,75,0
604104,note_on,,,,,264,0,1,,,,0,,,75,0
604104,note_on,,,,,264,0,14,,,,12,,,63,0
604104,note_on,,,,,0,0,8,,,,4,,,63,0
604104,note_on,,,,,264,0,8,,,,4,,,71,0
604104,note_on,,,,,264,0,4,,,,2,,,63,0
604104,note_on,,,,,264,0,16,,,,14,,,47,0
604104,note_on,,,,,264,0,6,,,,3,,,59,0
604320,note_on,,,,,480,0,13,,,,11,,,67,0
604320,note_on,,,,,0,0,13,,,,11,,,63,105
604320,note_on,,,,,480,0,12,,,,10,,,79,0
604320,note_on,,,,,0,0,12,,,,10,,,75,116
604790,note_on,,,,,470,0,13,,,,11,,,63,0
604790,note_on,,,,,470,0,12,,,,10,,,75,0
604800,note_on,,,,,10,0,13,,,,11,,,78,105
604800,note_on,,,,,0,0,13,,,,11,,,69,105
604800,note_on,,,,,10,0,12,,,,10,,,90,127
605520,note_on,,,,,1416,0,6,,,,3,,,48,92
605520,note_on,,,,,1416,0,16,,,,14,,,36,105
605520,note_on,,,,,1416,0,1,,,,0,,,88,92
605520,note_on,,,,,1416,0,4,,,,2,,,76,92
605520,note_on,,,,,1416,0,14,,,,12,,,76,105
605520,note_on,,,,,1416,0,15,,,,13,,,48,105
605652,note_on,,,,,132,0,16,,,,14,,,36,0
605652,note_on,,,,,132,0,1,,,,0,,,88,0
605652,note_on,,,,,132,0,6,,,,3,,,48,0
605652,note_on,,,,,132,0,4,,,,2,,,76,0
605652,note_on,,,,,132,0,15,,,,13,,,48,0
605652,note_on,,,,,132,0,14,,,,12,,,76,0
605760,note_on,,,,,108,0,1,,,,0,,,88,92
605760,note_on,,,,,108,0,16,,,,14,,,36,105
605760,note_on,,,,,960,0,12,,,,10,,,90,0
605760,note_on,,,,,0,0,13,,,,11,,,76,105
605760,note_on,,,,,0,0,12,,,,10,,,88,116
605760,note_on,,,,,108,0,6,,,,3,,,48,92
605760,note_on,,,,,108,0,14,,,,12,,,76,105
605760,note_on,,,,,0,0,13,,,,11,,,78,0
605760,note_on,,,,,960,0,13,,,,11,,,69,0
605760,note_on,,,,,108,0,4,,,,2,,,76,92
605760,note_on,,,,,108,0,15,,,,13,,,48,105
605760,note_on,,,,,0,0,13,,,,11,,,67,105
606024,note_on,,,,,264,0,16,,,,14,,,36,0
606024,note_on,,,,,264,0,14,,,,12,,,76,0
606024,note_on,,,,,264,0,1,,,,0,,,88,0
606024,note_on,,,,,264,0,15,,,,13,,,48,0
606024,note_on,,,,,264,0,4,,,,2,,,76,0
606024,note_on,,,,,264,0,6,,,,3,,,48,0
606240,note_on,,,,,216,0,6,,,,3,,,45,92
606240,note_on,,,,,480,0,13,,,,11,,,67,0
606240,note_on,,,,,0,0,13,,,,11,,,72,105
606240,note_on,,,,,216,0,14,,,,12,,,72,105
606240,note_on,,,,,216,0,1,,,,0,,,84,92
606240,note_on,,,,,216,0,4,,,,2,,,72,92
606240,note_on,,,,,216,0,16,,,,14,,,33,105
606240,note_on,,,,,216,0,15,,,,13,,,45,105
606480,note_on,,,,,2376,0,3,,,,1,,,72,92
606480,note_on,,,,,2376,0,8,,,,4,,,64,92
606480,note_on,,,,,0,0,3,,,,1,,,76,92
606504,note_on,,,,,264,0,1,,,,0,,,84,0
606504,note_on,,,,,264,0,16,,,,14,,,33,0
606504,note_on,,,,,264,0,4,,,,2,,,72,0
606504,note_on,,,,,264,0,14,,,,12,,,72,0
606504,note_on,,,,,264,0,6,,,,3,,,45,0
606504,note_on,,,,,264,0,15,,,,13,,,45,0
606612,note_on,,,,,0,0,3,,,,1,,,72,0
606612,note_on,,,,,132,0,8,,,,4,,,64,0
606612,note_on,,,,,132,0,3,,,,1,,,76,0
606720,note_on,,,,,216,0,4,,,,2,,,69,92
606720,note_on,,,,,216,0,1,,,,0,,,81,92
606720,note_on,,,,,108,0,3,,,,1,,,72,92
606720,note_on,,,,,216,0,15,,,,13,,,54,105
606720,note_on,,,,,0,0,8,,,,4,,,69,92
606720,note_on,,,,,216,0,14,,,,12,,,69,105
606720,note_on,,,,,216,0,6,,,,3,,,54,92
606720,note_on,,,,,108,0,8,,,,4,,,66,92
606720,note_on,,,,,216,0,16,,,,14,,,42,105
606720,note_on,,,,,0,0,3,,,,1,,,81,92
606984,note_on,,,,,264,0,1,,,,0,,,81,0
606984,note_on,,,,,0,0,3,,,,1,,,72,0
606984,note_on,,,,,264,0,16,,,,14,,,42,0
606984,note_on,,,,,264,0,15,,,,13,,,54,0
606984,note_on,,,,,264,0,3,,,,1,,,81,0
606984,note_on,,,,,264,0,8,,,,4,,,69,0
606984,note_on,,,,,264,0,4,,,,2,,,69,0
606984,note_on,,,,,0,0,8,,,,4,,,66,0
606984,note_on,,,,,264,0,14,,,,12,,,69,0
606984,note_on,,,,,264,0,6,,,,3,,,54,0
607190,note_on,,,,,0,0,13,,,,11,,,76,0
607190,note_on,,,,,950,0,13,,,,11,,,72,0
607190,note_on,,,,,1430,0,12,,,,10,,,88,0
607200,note_on,,,,,216,0,4,,,,2,,,66,92
607200,note_on,,,,,216,0,6,,,,3,,,51,92
607200,note_on,,,,,10,0,12,,,,10,,,93,116
607200,note_on,,,,,216,0,1,,,,0,,,78,92
607200,note_on,,,,,216,0,16,,,,14,,,39,105
607200,note_on,,,,,0,0,13,,,,11,,,81,105
607200,note_on,,,,,10,0,13,,,,11,,,72,105
607200,note_on,,,,,216,0,14,,,,12,,,66,105
607200,note_on,,,,,216,0,15,,,,13,,,51,105
607464,note_on,,,,,264,0,16,,,,14,,,39,0
607464,note_on,,,,,264,0,1,,,,0,,,78,0
607464,note_on,,,,,264,0,4,,,,2,,,66,0
607464,note_on,,,,,264,0,15,,,,13,,,51,0
607464,note_on,,,,,264,0,6,,,,3,,,51,0
607464,note_on,,,,,264,0,14,,,,12,,,66,0
607680,note_on,,,,,0,0,3,,,,1,,,75,92
607680,note_on,,,,,216,0,14,,,,12,,,63,105
607680,note_on,,,,,480,0,12,,,,10,,,93,0
607680,note_on,,,,,0,0,12,,,,10,,,91,116
607680,note_on,,,,,0,0,13,,,,11,,,79,105
607680,note_on,,,,,480,0,13,,,,11,,,81,0
607680,note_on,,,,,216,0,6,,,,3,,,59,92
607680,note_on,,,,,216,0,1,,,,0,,,75,92
607680,note_on,,,,,216,0,16,,,,14,,,47,105
607680,note_on,,,,,696,0,3,,,,1,,,71,92
607680,note_on,,,,,216,0,4,,,,2,,,63,92
607680,note_on,,,,,0,0,13,,,,11,,,72,0
607680,note_on,,,,,0,0,8,,,,4,,,63,92
607680,note_on,,,,,0,0,13,,,,11,,,71,105
607680,note_on,,,,,696,0,8,,,,4,,,71,92
607680,note_on,,,,,216,0,15,,,,13,,,59,105
607944,note_on,,,,,264,0,8,,,,4,,,63,0
607944,note_on,,,,,0,0,8,,,,4,,,71,0
607944,note_on,,,,,264,0,4,,,,2,,,63,0
607944,note_on,,,,,264,0,3,,,,1,,,75,0
607944,note_on,,,,,0,0,3,,,,1,,,71,0
607944,note_on,,,,,264,0,1,,,,0,,,75,0
607944,note_on,,,,,264,0,6,,,,3,,,59,0
607944,note_on,,,,,264,0,14,,,,12,,,63,0
607968,note_on,,,,,288,0,16,,,,14,,,47,0
607968,note_on,,,,,288,0,15,,,,13,,,59,0
608160,note_on,,,,,0,0,12,,,,10,,,87,116
608160,note_on,,,,,480,0,12,,,,10,,,91,0
608160,note_on,,,,,480,0,13,,,,11,,,79,0
608160,note_on,,,,,0,0,6,,,,3,,,55,92
608160,note_on,,,,,0,0,13,,,,11,,,69,105
608160,note_on,,,,,0,0,13,,,,11,,,78,105
608160,note_on,,,,,216,0,6,,,,3,,,43,92
608160,note_on,,,,,192,0,16,,,,14,,,43,105
608160,note_on,,,,,0,0,13,,,,11,,,71,0
608160,note_on,,,,,192,0,15,,,,13,,,55,105
608448,note_on,,,,,288,0,15,,,,13,,,55,0
608448,note_on,,,,,288,0,16,,,,14,,,43,0
608448,note_on,,,,,0,0,6,,,,3,,,43,0
608448,note_on,,,,,288,0,6,,,,3,,,55,0
608630,note_on,,,,,470,0,12,,,,10,,,87,0
608630,note_on,,,,,0,0,13,,,,11,,,69,0
608630,note_on,,,,,470,0,13,,,,11,,,78,0
608640,note_on,,,,,0,0,12,,,,10,,,76,92
608640,note_on,,,,,0,0,4,,,,2,,,72,92
608640,set_tempo,,,,,38400,1,0,416667,,,,,,,
608640,note_on,,,,,696,0,4,,,,2,,,60,112
608640,note_on,,,,,696,0,8,,,,4,,,52,89
608640,note_on,,,,,0,0,8,,,,4,,,64,89
608640,note_on,,,,,0,0,13,,,,11,,,76,87
608640,note_on,,,,,696,0,3,,,,1,,,72,125
608640,note_on,,,,,10,0,13,,,,11,,,67,87
608640,note_on,,,,,192,0,6,,,,3,,,60,92
608640,note_on,,,,,696,0,1,,,,0,,,84,92
608640,note_on,,,,,0,0,1,,,,0,,,88,92
608640,note_on,,,,,192,0,16,,,,14,,,48,105
608640,note_on,,,,,0,0,14,,,,12,,,72,94
608640,note_on,,,,,10,0,12,,,,10,,,88,92
608640,note_on,,,,,30336,0,9,,,,5,,,60,112
608640,note_on,,,,,192,0,15,,,,13,,,60,105
608640,note_on,,,,,30456,0,10,,,,6,,,76,92
608640,note_on,,,,,696,0,14,,,,12,,,64,94
608640,note_on,,,,,0,0,10,,,,6,,,64,92
608640,note_on,,,,,0,0,6,,,,3,,,48,92
609324,note_on,,,,,684,0,4,,,,2,,,72,0
609324,note_on,,,,,684,0,3,,,,1,,,72,0
609324,note_on,,,,,0,0,4,,,,2,,,60,0
609324,note_on,,,,,684,0,9,,,,5,,,60,0
609360,note_on,,,,,0,0,4,,,,2,,,60,105
609360,note_on,,,,,36,0,3,,,,1,,,72,105
609360,note_on,,,,,36,0,4,,,,2,,,72,105
609360,note_on,,,,,36,0,9,,,,5,,,60,92
609480,note_on,,,,,120,0,3,,,,1,,,72,0
609480,note_on,,,,,120,0,4,,,,2,,,60,0
609480,note_on,,,,,0,0,4,,,,2,,,64,105
609480,note_on,,,,,0,0,4,,,,2,,,76,105
609480,note_on,,,,,0,0,9,,,,5,,,64,92
609480,note_on,,,,,120,0,9,,,,5,,,60,0
609480,note_on,,,,,0,0,3,,,,1,,,76,105
609480,note_on,,,,,0,0,4,,,,2,,,72,0
609600,note_on,,,,,0,0,4,,,,2,,,67,105
609600,note_on,,,,,0,0,4,,,,2,,,64,0
609600,note_on,,,,,0,0,4,,,,2,,,79,105
609600,note_on,,,,,120,0,4,,,,2,,,76,0
609600,note_on,,,,,120,0,9,,,,5,,,64,0
609600,note_on,,,,,0,0,9,,,,5,,,67,92
609600,note_on,,,,,120,0,3,,,,1,,,76,0
609600,note_on,,,,,0,0,3,,,,1,,,79,105
609792,note_on,,,,,0,0,1,,,,0,,,84,0
609792,note_on,,,,,1152,0,1,,,,0,,,88,0
609856,note_on,,,,,256,0,3,,,,1,,,79,0
609856,note_on,,,,,256,0,9,,,,5,,,67,0
609856,note_on,,,,,256,0,4,,,,2,,,67,0
609856,note_on,,,,,0,0,4,,,,2,,,79,0
609920,note_on,,,,,64,0,3,,,,1,,,76,105
609920,note_on,,,,,64,0,9,,,,5,,,64,92
609920,note_on,,,,,64,0,4,,,,2,,,76,105
609920,note_on,,,,,0,0,4,,,,2,,,64,105
610008,note_on,,,,,0,0,12,,,,10,,,88,0
610008,note_on,,,,,0,0,6,,,,3,,,60,0
610008,note_on,,,,,1368,0,6,,,,3,,,48,0
610008,note_on,,,,,1368,0,13,,,,11,,,76,0
610008,note_on,,,,,1368,0,8,,,,4,,,64,0
610008,note_on,,,,,0,0,8,,,,4,,,52,0
610008,note_on,,,,,1368,0,15,,,,13,,,60,0
610008,note_on,,,,,1368,0,14,,,,12,,,72,0
610008,note_on,,,,,0,0,14,,,,12,,,64,0
610008,note_on,,,,,1368,0,10,,,,6,,,64,0
610008,note_on,,,,,1368,0,12,,,,10,,,76,0
610008,note_on,,,,,0,0,13,,,,11,,,67,0
610008,note_on,,,,,1368,0,16,,,,14,,,48,0
610008,note_on,,,,,0,0,10,,,,6,,,76,0
610080,note_on,,,,,0,0,6,,,,3,,,43,92
610080,note_on,,,,,72,0,6,,,,3,,,55,112
610080,note_on,,,,,72,0,16,,,,14,,,43,125
610080,note_on,,,,,0,0,13,,,,11,,,76,107
610080,note_on,,,,,72,0,13,,,,11,,,72,87
610080,note_on,,,,,72,0,8,,,,4,,,52,89
610080,note_on,,,,,72,0,10,,,,6,,,64,92
610080,note_on,,,,,288,0,1,,,,0,,,88,92
610080,note_on,,,,,0,0,12,,,,10,,,76,92
610080,note_on,,,,,72,0,12,,,,10,,,88,114
610080,note_on,,,,,0,0,10,,,,6,,,76,92
610080,note_on,,,,,0,0,8,,,,4,,,64,89
610080,note_on,,,,,0,0,14,,,,12,,,64,81
610080,note_on,,,,,72,0,15,,,,13,,,55,125
610080,note_on,,,,,0,0,1,,,,0,,,84,92
610080,note_on,,,,,72,0,14,,,,12,,,72,101
610096,note_on,,,,,0,0,4,,,,2,,,76,0
610096,note_on,,,,,176,0,4,,,,2,,,64,0
610096,note_on,,,,,176,0,9,,,,5,,,64,0
610096,note_on,,,,,176,0,3,,,,1,,,76,0
610240,note_on,,,,,0,0,4,,,,2,,,68,125
610240,note_on,,,,,144,0,3,,,,1,,,80,125
610240,note_on,,,,,144,0,4,,,,2,,,80,105
610240,note_on,,,,,144,0,9,,,,5,,,68,112
610416,note_on,,,,,176,0,3,,,,1,,,80,0
610416,note_on,,,,,176,0,4,,,,2,,,68,0
610416,note_on,,,,,0,0,4,,,,2,,,80,0
610416,note_on,,,,,176,0,9,,,,5,,,68,0
610536,note_on,,,,,456,0,6,,,,3,,,43,0
610536,note_on,,,,,0,0,6,,,,3,,,55,0
610536,note_on,,,,,456,0,15,,,,13,,,55,0
610536,note_on,,,,,456,0,16,,,,14,,,43,0
610560,note_on,,,,,144,0,3,,,,1,,,79,125
610560,note_on,,,,,0,0,4,,,,2,,,79,105
610560,note_on,,,,,144,0,9,,,,5,,,67,112
610560,note_on,,,,,24,0,16,,,,14,,,48,105
610560,note_on,,,,,144,0,4,,,,2,,,67,125
610560,note_on,,,,,24,0,15,,,,13,,,60,105
610560,note_on,,,,,24,0,6,,,,3,,,60,92
610560,note_on,,,,,0,0,6,,,,3,,,48,92
611244,note_on,,,,,684,0,4,,,,2,,,79,0
611244,note_on,,,,,684,0,9,,,,5,,,67,0
611244,note_on,,,,,0,0,4,,,,2,,,67,0
611244,note_on,,,,,684,0,3,,,,1,,,79,0
611280,note_on,,,,,36,0,4,,,,2,,,72,105
611280,note_on,,,,,0,0,4,,,,2,,,60,105
611280,note_on,,,,,36,0,3,,,,1,,,72,105
611280,note_on,,,,,36,0,9,,,,5,,,60,92
611400,note_on,,,,,0,0,4,,,,2,,,72,0
611400,note_on,,,,,0,0,9,,,,5,,,64,92
611400,note_on,,,,,0,0,4,,,,2,,,76,105
611400,note_on,,,,,120,0,4,,,,2,,,60,0
611400,note_on,,,,,120,0,9,,,,5,,,60,0
611400,note_on,,,,,0,0,4,,,,2,,,64,105
611400,note_on,,,,,0,0,3,,,,1,,,76,105
611400,note_on,,,,,120,0,3,,,,1,,,72,0
611520,note_on,,,,,0,0,4,,,,2,,,67,105
611520,note_on,,,,,0,0,3,,,,1,,,79,105
611520,note_on,,,,,0,0,4,,,,2,,,64,0
611520,note_on,,,,,120,0,9,,,,5,,,64,0
611520,note_on,,,,,120,0,4,,,,2,,,76,0
611520,note_on,,,,,0,0,4,,,,2,,,79,105
611520,note_on,,,,,0,0,9,,,,5,,,67,92
611520,note_on,,,,,120,0,3,,,,1,,,76,0
611712,note_on,,,,,1632,0,1,,,,0,,,84,0
611712,note_on,,,,,0,0,1,,,,0,,,88,0
611776,note_on,,,,,256,0,9,,,,5,,,67,0
611776,note_on,,,,,256,0,4,,,,2,,,67,0
611776,note_on,,,,,0,0,4,,,,2,,,79,0
611776,note_on,,,,,256,0,3,,,,1,,,79,0
611840,note_on,,,,,0,0,4,,,,2,,,64,105
611840,note_on,,,,,64,0,3,,,,1,,,76,105
611840,note_on,,,,,64,0,9,,,,5,,,64,92
611840,note_on,,,,,64,0,4,,,,2,,,76,105
611928,note_on,,,,,1368,0,16,,,,14,,,48,0
611928,note_on,,,,,1368,0,6,,,,3,,,48,0
611928,note_on,,,,,0,0,6,,,,3,,,60,0
611928,note_on,,,,,1848,0,10,,,,6,,,76,0
611928,note_on,,,,,0,0,10,,,,6,,,64,0
611928,note_on,,,,,1368,0,15,,,,13,,,60,0
611928,note_on,,,,,1848,0,13,,,,11,,,76,0
611928,note_on,,,,,1848,0,8,,,,4,,,64,0
611928,note_on,,,,,0,0,8,,,,4,,,52,0
611928,note_on,,,,,1848,0,14,,,,12,,,64,0
611928,note_on,,,,,0,0,14,,,,12,,,72,0
611928,note_on,,,,,0,0,12,,,,10,,,88,0
611928,note_on,,,,,1848,0,12,,,,10,,,76,0
611928,note_on,,,,,0,0,13,,,,11,,,72,0
612000,note_on,,,,,288,0,1,,,,0,,,88,92
612000,note_on,,,,,72,0,8,,,,4,,,52,89
612000,note_on,,,,,0,0,13,,,,11,,,76,107
612000,note_on,,,,,72,0,15,,,,13,,,55,125
612000,note_on,,,,,0,0,8,,,,4,,,64,89
612000,note_on,,,,,72,0,14,,,,12,,,64,81
612000,note_on,,,,,72,0,10,,,,6,,,64,92
612000,note_on,,,,,72,0,12,,,,10,,,88,115
612000,note_on,,,,,0,0,12,,,,10,,,76,92
612000,note_on,,,,,0,0,10,,,,6,,,76,92
612000,note_on,,,,,72,0,16,,,,14,,,43,125
612000,note_on,,,,,0,0,6,,,,3,,,43,92
612000,note_on,,,,,72,0,6,,,,3,,,55,112
612000,note_on,,,,,0,0,1,,,,0,,,84,92
612000,note_on,,,,,0,0,14,,,,12,,,72,101
612000,note_on,,,,,72,0,13,,,,11,,,72,87
612016,note_on,,,,,176,0,3,,,,1,,,76,0
612016,note_on,,,,,176,0,9,,,,5,,,64,0
612016,note_on,,,,,0,0,4,,,,2,,,76,0
612016,note_on,,,,,176,0,4,,,,2,,,64,0
612160,note_on,,,,,144,0,9,,,,5,,,68,112
612160,note_on,,,,,0,0,4,,,,2,,,68,125
612160,note_on,,,,,144,0,3,,,,1,,,80,125
612160,note_on,,,,,144,0,4,,,,2,,,80,105
612336,note_on,,,,,0,0,4,,,,2,,,80,0
612336,note_on,,,,,176,0,4,,,,2,,,68,0
612336,note_on,,,,,176,0,3,,,,1,,,80,0
612336,note_on,,,,,176,0,9,,,,5,,,68,0
612456,note_on,,,,,456,0,15,,,,13,,,55,0
612456,note_on,,,,,0,0,6,,,,3,,,55,0
612456,note_on,,,,,456,0,16,,,,14,,,43,0
612456,note_on,,,,,456,0,6,,,,3,,,43,0
612480,note_on,,,,,144,0,3,,,,1,,,79,105
612480,note_on,,,,,24,0,16,,,,14,,,48,105
612480,note_on,,,,,0,0,4,,,,2,,,79,105
612480,note_on,,,,,144,0,4,,,,2,,,67,105
612480,note_on,,,,,24,0,15,,,,13,,,60,105
612480,note_on,,,,,24,0,6,,,,3,,,60,92
612480,note_on,,,,,0,0,6,,,,3,,,48,92
612480,note_on,,,,,144,0,9,,,,5,,,67,92
612656,note_on,,,,,176,0,9,,,,5,,,67,0
612656,note_on,,,,,0,0,4,,,,2,,,67,0
612656,note_on,,,,,176,0,4,,,,2,,,79,0
612656,note_on,,,,,176,0,3,,,,1,,,79,0
612800,note_on,,,,,0,0,4,,,,2,,,64,105
612800,note_on,,,,,144,0,3,,,,1,,,76,105
612800,note_on,,,,,144,0,4,,,,2,,,76,105
612800,note_on,,,,,144,0,9,,,,5,,,64,92
612864,note_on,,,,,384,0,15,,,,13,,,60,0
612864,note_on,,,,,0,0,13,,,,11,,,72,0
612864,note_on,,,,,864,0,13,,,,11,,,76,0
612864,note_on,,,,,0,0,1,,,,0,,,88,0
612864,note_on,,,,,0,0,6,,,,3,,,60,0
612864,note_on,,,,,384,0,6,,,,3,,,48,0
612864,note_on,,,,,384,0,16,,,,14,,,48,0
612864,note_on,,,,,864,0,14,,,,12,,,72,0
612864,note_on,,,,,0,0,14,,,,12,,,64,0
612864,note_on,,,,,0,0,12,,,,10,,,88,0
612864,note_on,,,,,864,0,1,,,,0,,,84,0
612864,note_on,,,,,864,0,12,,,,10,,,76,0
612936,note_on,,,,,0,0,10,,,,6,,,64,0
612936,note_on,,,,,0,0,8,,,,4,,,52,0
612936,note_on,,,,,936,0,10,,,,6,,,76,0
612936,note_on,,,,,936,0,8,,,,4,,,64,0
612960,note_on,,,,,24,0,8,,,,4,,,52,89
612960,note_on,,,,,96,0,12,,,,10,,,88,112
612960,note_on,,,,,0,0,12,,,,10,,,76,92
612960,note_on,,,,,0,0,8,,,,4,,,64,89
612960,note_on,,,,,24,0,10,,,,6,,,64,92
612960,note_on,,,,,0,0,10,,,,6,,,76,92
612960,note_on,,,,,0,0,14,,,,12,,,64,81
612960,note_on,,,,,96,0,14,,,,12,,,72,81
612960,note_on,,,,,96,0,16,,,,14,,,43,125
612960,note_on,,,,,96,0,6,,,,3,,,55,112
612960,note_on,,,,,0,0,6,,,,3,,,43,92
612960,note_on,,,,,0,0,1,,,,0,,,88,92
612960,note_on,,,,,96,0,1,,,,0,,,84,92
612960,note_on,,,,,96,0,13,,,,11,,,72,87
612960,note_on,,,,,96,0,15,,,,13,,,55,125
612960,note_on,,,,,0,0,13,,,,11,,,76,87
612976,note_on,,,,,176,0,9,,,,5,,,64,0
612976,note_on,,,,,176,0,3,,,,1,,,76,0
612976,note_on,,,,,0,0,4,,,,2,,,76,0
612976,note_on,,,,,176,0,4,,,,2,,,64,0
613120,note_on,,,,,0,0,4,,,,2,,,68,125
613120,note_on,,,,,144,0,3,,,,1,,,80,125
613120,note_on,,,,,144,0,9,,,,5,,,68,112
613120,note_on,,,,,144,0,4,,,,2,,,80,105
613296,note_on,,,,,0,0,4,,,,2,,,80,0
613296,note_on,,,,,176,0,4,,,,2,,,68,0
613296,note_on,,,,,176,0,3,,,,1,,,80,0
613296,note_on,,,,,176,0,9,,,,5,,,68,0
613344,note_on,,,,,384,0,16,,,,14,,,43,0
613344,note_on,,,,,384,0,15,,,,13,,,55,0
613344,note_on,,,,,384,0,6,,,,3,,,43,0
613344,note_on,,,,,0,0,6,,,,3,,,55,0
613440,note_on,,,,,0,0,4,,,,2,,,67,105
613440,note_on,,,,,144,0,9,,,,5,,,67,92
613440,note_on,,,,,144,0,4,,,,2,,,79,105
613440,note_on,,,,,144,0,3,,,,1,,,79,105
613440,note_on,,,,,96,0,16,,,,14,,,48,105
613440,note_on,,,,,96,0,15,,,,13,,,60,105
613440,note_on,,,,,0,0,6,,,,3,,,60,92
613440,note_on,,,,,96,0,6,,,,3,,,48,92
613616,note_on,,,,,176,0,4,,,,2,,,67,0
613616,note_on,,,,,0,0,4,,,,2,,,79,0
613616,note_on,,,,,176,0,3,,,,1,,,79,0
613616,note_on,,,,,176,0,9,,,,5,,,67,0
613728,note_on,,,,,0,0,12,,,,10,,,88,0
613728,note_on,,,,,768,0,12,,,,10,,,76,0
613728,note_on,,,,,0,0,13,,,,11,,,72,0
613728,note_on,,,,,768,0,13,,,,11,,,76,0
613728,note_on,,,,,0,0,1,,,,0,,,84,0
613728,note_on,,,,,768,0,1,,,,0,,,88,0
613728,note_on,,,,,768,0,14,,,,12,,,64,0
613728,note_on,,,,,0,0,14,,,,12,,,72,0
613760,note_on,,,,,144,0,4,,,,2,,,76,105
613760,note_on,,,,,144,0,3,,,,1,,,76,105
613760,note_on,,,,,0,0,4,,,,2,,,64,105
613760,note_on,,,,,144,0,9,,,,5,,,64,92
613824,note_on,,,,,384,0,15,,,,13,,,60,0
613824,note_on,,,,,384,0,16,,,,14,,,48,0
613824,note_on,,,,,384,0,6,,,,3,,,60,0
613824,note_on,,,,,0,0,6,,,,3,,,48,0
613872,note_on,,,,,0,0,8,,,,4,,,52,0
613872,note_on,,,,,912,0,8,,,,4,,,64,0
613872,note_on,,,,,0,0,10,,,,6,,,64,0
613872,note_on,,,,,912,0,10,,,,6,,,76,0
613920,note_on,,,,,96,0,16,,,,14,,,31,125
613920,note_on,,,,,192,0,1,,,,0,,,86,92
613920,note_on,,,,,192,0,12,,,,10,,,89,125
613920,note_on,,,,,0,0,1,,,,0,,,89,92
613920,note_on,,,,,96,0,6,,,,3,,,43,112
613920,note_on,,,,,192,0,14,,,,12,,,68,112
613920,note_on,,,,,0,0,13,,,,11,,,74,92
613920,note_on,,,,,192,0,13,,,,11,,,77,112
613920,note_on,,,,,96,0,15,,,,13,,,43,125
613936,note_on,,,,,176,0,9,,,,5,,,64,0
613936,note_on,,,,,0,0,4,,,,2,,,76,0
613936,note_on,,,,,176,0,4,,,,2,,,64,0
613936,note_on,,,,,176,0,3,,,,1,,,76,0
614304,note_on,,,,,0,0,13,,,,11,,,77,0
614304,note_on,,,,,384,0,15,,,,13,,,43,0
614304,note_on,,,,,384,0,16,,,,14,,,31,0
614304,note_on,,,,,384,0,6,,,,3,,,43,0
614304,note_on,,,,,0,0,1,,,,0,,,86,0
614304,note_on,,,,,384,0,14,,,,12,,,68,0
614304,note_on,,,,,384,0,12,,,,10,,,89,0
614304,note_on,,,,,384,0,1,,,,0,,,89,0
614304,note_on,,,,,384,0,13,,,,11,,,74,0
614400,note_on,,,,,0,0,1,,,,0,,,88,92
614400,note_on,,,,,96,0,16,,,,14,,,36,125
614400,note_on,,,,,96,0,1,,,,0,,,84,92
614400,note_on,,,,,96,0,13,,,,11,,,76,112
614400,note_on,,,,,96,0,6,,,,3,,,48,112
614400,note_on,,,,,96,0,14,,,,12,,,67,112
614400,note_on,,,,,96,0,15,,,,13,,,48,125
614400,note_on,,,,,0,0,13,,,,11,,,72,92
614400,note_on,,,,,96,0,12,,,,10,,,88,125
614416,set_tempo,,,,,5776,1,0,425531,,,,,,,
614784,note_on,,,,,384,0,15,,,,13,,,48,0
614784,note_on,,,,,384,0,16,,,,14,,,36,0
614784,note_on,,,,,384,0,14,,,,12,,,67,0
614784,note_on,,,,,384,0,13,,,,11,,,72,0
614784,note_on,,,,,384,0,12,,,,10,,,88,0
614784,note_on,,,,,0,0,13,,,,11,,,76,0
614784,note_on,,,,,384,0,1,,,,0,,,88,0
614784,note_on,,,,,384,0,6,,,,3,,,48,0
614784,note_on,,,,,0,0,1,,,,0,,,84,0
614880,note_on,,,,,0,0,1,,,,0,,,86,92
614880,note_on,,,,,96,0,1,,,,0,,,83,92
614880,note_on,,,,,96,0,14,,,,12,,,65,112
614880,note_on,,,,,96,0,12,,,,10,,,86,125
614880,note_on,,,,,96,0,15,,,,13,,,44,125
614880,note_on,,,,,0,0,13,,,,11,,,71,92
614880,note_on,,,,,96,0,6,,,,3,,,44,112
614880,note_on,,,,,96,0,16,,,,14,,,32,125
614880,note_on,,,,,96,0,13,,,,11,,,74,112
615264,note_on,,,,,384,0,14,,,,12,,,65,0
615264,note_on,,,,,0,0,1,,,,0,,,83,0
615264,note_on,,,,,0,0,13,,,,11,,,74,0
615264,note_on,,,,,384,0,13,,,,11,,,71,0
615264,note_on,,,,,384,0,16,,,,14,,,32,0
615264,note_on,,,,,384,0,12,,,,10,,,86,0
615264,note_on,,,,,384,0,1,,,,0,,,86,0
615264,note_on,,,,,384,0,15,,,,13,,,44,0
615264,note_on,,,,,384,0,6,,,,3,,,44,0
615360,note_on,,,,,0,0,13,,,,11,,,69,92
615360,note_on,,,,,96,0,13,,,,11,,,72,112
615360,note_on,,,,,96,0,6,,,,3,,,52,112
615360,note_on,,,,,96,0,14,,,,12,,,64,112
615360,note_on,,,,,0,0,1,,,,0,,,84,92
615360,note_on,,,,,96,0,1,,,,0,,,81,92
615360,note_on,,,,,96,0,16,,,,14,,,40,125
615360,note_on,,,,,96,0,12,,,,10,,,84,125
615360,note_on,,,,,96,0,15,,,,13,,,52,125
615744,note_on,,,,,0,0,1,,,,0,,,81,0
615744,note_on,,,,,384,0,16,,,,14,,,40,0
615744,note_on,,,,,384,0,12,,,,10,,,84,0
615744,note_on,,,,,0,0,13,,,,11,,,72,0
615744,note_on,,,,,384,0,6,,,,3,,,52,0
615744,note_on,,,,,384,0,13,,,,11,,,69,0
615744,note_on,,,,,384,0,14,,,,12,,,64,0
615744,note_on,,,,,384,0,15,,,,13,,,52,0
615744,note_on,,,,,384,0,1,,,,0,,,84,0
615840,note_on,,,,,96,0,6,,,,3,,,48,112
615840,note_on,,,,,96,0,14,,,,12,,,62,112
615840,note_on,,,,,96,0,12,,,,10,,,80,125
615840,note_on,,,,,96,0,15,,,,13,,,48,125
615840,note_on,,,,,96,0,16,,,,14,,,36,125
615840,note_on,,,,,0,0,13,,,,11,,,68,92
615840,note_on,,,,,96,0,13,,,,11,,,71,112
616224,note_on,,,,,384,0,15,,,,13,,,48,0
616224,note_on,,,,,384,0,16,,,,14,,,36,0
616224,note_on,,,,,384,0,13,,,,11,,,68,0
616224,note_on,,,,,384,0,6,,,,3,,,48,0
616224,note_on,,,,,384,0,12,,,,10,,,80,0
616224,note_on,,,,,0,0,13,,,,11,,,71,0
616224,note_on,,,,,384,0,14,,,,12,,,62,0
616320,note_on,,,,,0,0,12,,,,10,,,72,97
616320,note_on,,,,,0,0,3,,,,1,,,65,105
616320,note_on,,,,,2384,0,3,,,,1,,,77,125
616320,note_on,,,,,96,0,16,,,,14,,,41,105
616320,note_on,,,,,96,0,12,,,,10,,,81,97
616320,note_on,,,,,0,0,13,,,,11,,,72,89
616320,note_on,,,,,96,0,13,,,,11,,,69,89
616320,note_on,,,,,96,0,6,,,,3,,,53,92
616320,note_on,,,,,576,0,1,,,,0,,,77,112
616320,note_on,,,,,2384,0,4,,,,2,,,65,105
616320,set_tempo,,,,,1904,1,0,419580,,,,,,,
616320,note_on,,,,,0,0,14,,,,12,,,69,92
616320,note_on,,,,,96,0,14,,,,12,,,60,92
616320,note_on,,,,,96,0,15,,,,13,,,53,105
616320,note_on,,,,,0,0,8,,,,4,,,65,89
616320,note_on,,,,,2448,0,8,,,,4,,,69,89
616896,note_on,,,,,576,0,3,,,,1,,,65,0
616896,note_on,,,,,576,0,6,,,,3,,,53,0
616896,note_on,,,,,576,0,1,,,,0,,,77,0
616896,note_on,,,,,576,0,4,,,,2,,,65,0
616896,note_on,,,,,0,0,3,,,,1,,,77,0
617040,note_on,,,,,144,0,4,,,,2,,,65,92
617040,note_on,,,,,144,0,3,,,,1,,,65,92
617040,note_on,,,,,144,0,6,,,,3,,,53,92
617040,note_on,,,,,144,0,1,,,,0,,,77,92
617160,note_on,,,,,0,0,3,,,,1,,,69,92
617160,note_on,,,,,120,0,4,,,,2,,,65,0
617160,note_on,,,,,120,0,1,,,,0,,,77,0
617160,note_on,,,,,120,0,6,,,,3,,,53,0
617160,note_on,,,,,0,0,6,,,,3,,,57,92
617160,note_on,,,,,120,0,3,,,,1,,,65,0
617160,note_on,,,,,0,0,4,,,,2,,,69,92
617160,note_on,,,,,0,0,1,,,,0,,,81,92
617280,note_on,,,,,120,0,1,,,,0,,,81,0
617280,note_on,,,,,120,0,6,,,,3,,,57,0
617280,note_on,,,,,120,0,3,,,,1,,,69,0
617280,note_on,,,,,0,0,3,,,,1,,,72,92
617280,note_on,,,,,3344,0,9,,,,5,,,60,105
617280,note_on,,,,,0,0,1,,,,0,,,84,92
617280,note_on,,,,,0,0,6,,,,3,,,60,92
617280,note_on,,,,,120,0,4,,,,2,,,69,0
617280,note_on,,,,,0,0,4,,,,2,,,72,92
617456,note_on,,,,,176,0,1,,,,0,,,84,0
617456,note_on,,,,,176,0,6,,,,3,,,60,0
617456,note_on,,,,,176,0,4,,,,2,,,72,0
617456,note_on,,,,,176,0,3,,,,1,,,72,0
617472,note_on,,,,,1152,0,8,,,,4,,,65,0
617472,note_on,,,,,0,0,8,,,,4,,,69,0
617472,note_on,,,,,1152,0,15,,,,13,,,53,0
617472,note_on,,,,,192,0,9,,,,5,,,60,0
617472,note_on,,,,,1152,0,16,,,,14,,,41,0
617600,note_on,,,,,144,0,6,,,,3,,,57,92
617600,note_on,,,,,144,0,4,,,,2,,,69,92
617600,note_on,,,,,144,0,3,,,,1,,,69,92
617600,note_on,,,,,144,0,1,,,,0,,,81,92
617600,note_on,,,,,128,0,9,,,,5,,,57,105
617688,note_on,,,,,0,0,14,,,,12,,,60,0
617688,note_on,,,,,1368,0,13,,,,11,,,72,0
617688,note_on,,,,,1368,0,14,,,,12,,,69,0
617688,note_on,,,,,0,0,12,,,,10,,,81,0
617688,note_on,,,,,1368,0,12,,,,10,,,72,0
617688,note_on,,,,,0,0,13,,,,11,,,69,0
617760,note_on,,,,,72,0,14,,,,12,,,65,85
617760,note_on,,,,,288,0,16,,,,14,,,36,125
617760,note_on,,,,,0,0,14,,,,12,,,69,108
617760,note_on,,,,,72,0,13,,,,11,,,77,109
617760,note_on,,,,,0,0,13,,,,11,,,69,89
617760,note_on,,,,,72,0,12,,,,10,,,69,97
617760,note_on,,,,,0,0,12,,,,10,,,81,117
617760,note_on,,,,,288,0,15,,,,13,,,48,125
617760,note_on,,,,,0,0,8,,,,4,,,65,89
617760,note_on,,,,,288,0,8,,,,4,,,69,89
617776,note_on,,,,,176,0,1,,,,0,,,81,0
617776,note_on,,,,,176,0,3,,,,1,,,69,0
617776,note_on,,,,,176,0,6,,,,3,,,57,0
617776,note_on,,,,,176,0,4,,,,2,,,69,0
617792,note_on,,,,,192,0,9,,,,5,,,57,0
617920,note_on,,,,,144,0,6,,,,3,,,61,112
617920,note_on,,,,,144,0,4,,,,2,,,73,112
617920,note_on,,,,,128,0,9,,,,5,,,61,125
617920,note_on,,,,,144,0,1,,,,0,,,85,112
617920,note_on,,,,,144,0,3,,,,1,,,73,112
618096,note_on,,,,,176,0,1,,,,0,,,85,0
618096,note_on,,,,,176,0,4,,,,2,,,73,0
618096,note_on,,,,,176,0,6,,,,3,,,61,0
618096,note_on,,,,,176,0,3,,,,1,,,73,0
618112,note_on,,,,,192,0,9,,,,5,,,61,0
618144,note_on,,,,,384,0,15,,,,13,,,48,0
618144,note_on,,,,,384,0,16,,,,14,,,36,0
618240,note_on,,,,,128,0,9,,,,5,,,60,105
618240,note_on,,,,,96,0,16,,,,14,,,41,105
618240,note_on,,,,,144,0,6,,,,3,,,53,112
618240,note_on,,,,,144,0,3,,,,1,,,65,112
618240,note_on,,,,,96,0,15,,,,13,,,53,105
618240,note_on,,,,,144,0,4,,,,2,,,65,112
618240,note_on,,,,,144,0,1,,,,0,,,77,112
618816,note_on,,,,,576,0,4,,,,2,,,65,0
618816,note_on,,,,,576,0,6,,,,3,,,53,0
618816,note_on,,,,,576,0,1,,,,0,,,77,0
618816,note_on,,,,,576,0,3,,,,1,,,65,0
618960,note_on,,,,,144,0,3,,,,1,,,65,92
618960,note_on,,,,,144,0,4,,,,2,,,65,92
618960,note_on,,,,,144,0,6,,,,3,,,53,92
618960,note_on,,,,,144,0,1,,,,0,,,77,92
619008,note_on,,,,,768,0,9,,,,5,,,60,0
619080,note_on,,,,,0,0,1,,,,0,,,81,92
619080,note_on,,,,,120,0,4,,,,2,,,65,0
619080,note_on,,,,,120,0,1,,,,0,,,77,0
619080,note_on,,,,,0,0,6,,,,3,,,57,92
619080,note_on,,,,,120,0,3,,,,1,,,65,0
619080,note_on,,,,,0,0,3,,,,1,,,69,92
619080,note_on,,,,,0,0,4,,,,2,,,69,92
619080,note_on,,,,,120,0,6,,,,3,,,53,0
619200,note_on,,,,,0,0,3,,,,1,,,72,92
619200,note_on,,,,,0,0,4,,,,2,,,72,92
619200,note_on,,,,,120,0,4,,,,2,,,69,0
619200,note_on,,,,,120,0,3,,,,1,,,69,0
619200,note_on,,,,,0,0,6,,,,3,,,60,92
619200,note_on,,,,,192,0,9,,,,5,,,60,105
619200,note_on,,,,,120,0,1,,,,0,,,81,0
619200,note_on,,,,,0,0,1,,,,0,,,84,92
619200,note_on,,,,,120,0,6,,,,3,,,57,0
619376,note_on,,,,,176,0,4,,,,2,,,72,0
619376,note_on,,,,,176,0,3,,,,1,,,72,0
619376,note_on,,,,,176,0,1,,,,0,,,84,0
619376,note_on,,,,,176,0,6,,,,3,,,60,0
619392,note_on,,,,,1152,0,15,,,,13,,,53,0
619392,note_on,,,,,1152,0,16,,,,14,,,41,0
619392,note_on,,,,,192,0,9,,,,5,,,60,0
619392,note_on,,,,,1632,0,8,,,,4,,,65,0
619392,note_on,,,,,0,0,8,,,,4,,,69,0
619520,note_on,,,,,144,0,6,,,,3,,,57,92
619520,note_on,,,,,144,0,1,,,,0,,,81,92
619520,note_on,,,,,144,0,3,,,,1,,,69,92
619520,note_on,,,,,128,0,9,,,,5,,,57,105
619520,note_on,,,,,144,0,4,,,,2,,,69,92
619608,note_on,,,,,1848,0,14,,,,12,,,69,0
619608,note_on,,,,,1848,0,13,,,,11,,,69,0
619608,note_on,,,,,0,0,13,,,,11,,,77,0
619608,note_on,,,,,0,0,14,,,,12,,,65,0
619608,note_on,,,,,1848,0,12,,,,10,,,81,0
619608,note_on,,,,,0,0,12,,,,10,,,69,0
619680,note_on,,,,,72,0,14,,,,12,,,69,102
619680,note_on,,,,,0,0,14,,,,12,,,65,85
619680,note_on,,,,,0,0,13,,,,11,,,69,89
619680,note_on,,,,,288,0,16,,,,14,,,36,125
619680,note_on,,,,,72,0,13,,,,11,,,77,109
619680,note_on,,,,,288,0,15,,,,13,,,48,125
619680,note_on,,,,,0,0,8,,,,4,,,65,89
619680,note_on,,,,,288,0,8,,,,4,,,69,89
619680,note_on,,,,,0,0,12,,,,10,,,69,97
619680,note_on,,,,,72,0,12,,,,10,,,81,117
619696,note_on,,,,,176,0,4,,,,2,,,69,0
619696,note_on,,,,,176,0,3,,,,1,,,69,0
619696,note_on,,,,,176,0,1,,,,0,,,81,0
619696,note_on,,,,,176,0,6,,,,3,,,57,0
619712,note_on,,,,,192,0,9,,,,5,,,57,0
619840,note_on,,,,,144,0,6,,,,3,,,61,112
619840,note_on,,,,,144,0,1,,,,0,,,85,112
619840,note_on,,,,,144,0,3,,,,1,,,73,112
619840,note_on,,,,,144,0,4,,,,2,,,73,112
619840,note_on,,,,,128,0,9,,,,5,,,61,125
620016,note_on,,,,,176,0,1,,,,0,,,85,0
620016,note_on,,,,,176,0,3,,,,1,,,73,0
620016,note_on,,,,,176,0,4,,,,2,,,73,0
620016,note_on,,,,,176,0,6,,,,3,,,61,0
620032,note_on,,,,,192,0,9,,,,5,,,61,0
620064,note_on,,,,,384,0,15,,,,13,,,48,0
620064,note_on,,,,,384,0,16,,,,14,,,36,0
620160,note_on,,,,,144,0,1,,,,0,,,84,92
620160,note_on,,,,,144,0,6,,,,3,,,60,92
620160,note_on,,,,,144,0,3,,,,1,,,72,92
620160,note_on,,,,,96,0,16,,,,14,,,41,105
620160,note_on,,,,,144,0,4,,,,2,,,72,92
620160,note_on,,,,,96,0,15,,,,13,,,53,105
620160,note_on,,,,,128,0,9,,,,5,,,60,105
620336,note_on,,,,,176,0,3,,,,1,,,72,0
620336,note_on,,,,,176,0,1,,,,0,,,84,0
620336,note_on,,,,,176,0,6,,,,3,,,60,0
620336,note_on,,,,,176,0,4,,,,2,,,72,0
620352,note_on,,,,,192,0,9,,,,5,,,60,0
620480,note_on,,,,,144,0,3,,,,1,,,69,92
620480,note_on,,,,,128,0,9,,,,5,,,57,105
620480,note_on,,,,,144,0,6,,,,3,,,57,92
620480,note_on,,,,,144,0,4,,,,2,,,69,92
620480,note_on,,,,,144,0,1,,,,0,,,81,92
620544,note_on,,,,,384,0,16,,,,14,,,41,0
620544,note_on,,,,,0,0,8,,,,4,,,69,0
620544,note_on,,,,,384,0,15,,,,13,,,53,0
620544,note_on,,,,,864,0,8,,,,4,,,65,0
620616,note_on,,,,,936,0,12,,,,10,,,69,0
620616,note_on,,,,,0,0,13,,,,11,,,77,0
620616,note_on,,,,,0,0,14,,,,12,,,69,0
620616,note_on,,,,,936,0,14,,,,12,,,65,0
620616,note_on,,,,,0,0,12,,,,10,,,81,0
620616,note_on,,,,,936,0,13,,,,11,,,69,0
620640,note_on,,,,,0,0,13,,,,11,,,69,89
620640,note_on,,,,,96,0,16,,,,14,,,36,105
620640,note_on,,,,,96,0,15,,,,13,,,48,105
620640,note_on,,,,,96,0,8,,,,4,,,69,89
620640,note_on,,,,,24,0,13,,,,11,,,77,89
620640,note_on,,,,,0,0,14,,,,12,,,69,84
620640,note_on,,,,,24,0,14,,,,12,,,65,100
620640,note_on,,,,,0,0,12,,,,10,,,81,97
620640,note_on,,,,,24,0,12,,,,10,,,69,97
620640,note_on,,,,,0,0,8,,,,4,,,65,89
620656,note_on,,,,,176,0,6,,,,3,,,57,0
620656,note_on,,,,,176,0,3,,,,1,,,69,0
620656,note_on,,,,,176,0,1,,,,0,,,81,0
620656,note_on,,,,,176,0,4,,,,2,,,69,0
620672,note_on,,,,,192,0,9,,,,5,,,57,0
620800,note_on,,,,,144,0,4,,,,2,,,73,112
620800,note_on,,,,,144,0,6,,,,3,,,61,112
620800,note_on,,,,,144,0,3,,,,1,,,73,112
620800,note_on,,,,,144,0,1,,,,0,,,85,112
620800,note_on,,,,,128,0,9,,,,5,,,61,125
620976,note_on,,,,,176,0,4,,,,2,,,73,0
620976,note_on,,,,,176,0,6,,,,3,,,61,0
620976,note_on,,,,,176,0,3,,,,1,,,73,0
620976,note_on,,,,,176,0,1,,,,0,,,85,0
620992,note_on,,,,,192,0,9,,,,5,,,61,0
621024,note_on,,,,,384,0,15,,,,13,,,48,0
621024,note_on,,,,,384,0,16,,,,14,,,36,0
621120,note_on,,,,,96,0,16,,,,14,,,41,105
621120,note_on,,,,,144,0,1,,,,0,,,84,92
621120,note_on,,,,,144,0,4,,,,2,,,72,92
621120,note_on,,,,,96,0,15,,,,13,,,53,105
621120,note_on,,,,,144,0,6,,,,3,,,60,92
621120,note_on,,,,,144,0,3,,,,1,,,72,92
621120,note_on,,,,,128,0,9,,,,5,,,60,105
621296,note_on,,,,,176,0,1,,,,0,,,84,0
621296,note_on,,,,,176,0,3,,,,1,,,72,0
621296,note_on,,,,,176,0,6,,,,3,,,60,0
621296,note_on,,,,,176,0,4,,,,2,,,72,0
621312,note_on,,,,,192,0,9,,,,5,,,60,0
621408,note_on,,,,,768,0,8,,,,4,,,65,0
621408,note_on,,,,,0,0,8,,,,4,,,69,0
621440,note_on,,,,,144,0,6,,,,3,,,57,92
621440,note_on,,,,,128,0,9,,,,5,,,57,105
621440,note_on,,,,,144,0,3,,,,1,,,69,92
621440,note_on,,,,,144,0,4,,,,2,,,69,92
621440,note_on,,,,,144,0,1,,,,0,,,81,92
621504,note_on,,,,,384,0,15,,,,13,,,53,0
621504,note_on,,,,,384,0,16,,,,14,,,41,0
621552,note_on,,,,,0,0,13,,,,11,,,77,0
621552,note_on,,,,,912,0,13,,,,11,,,69,0
621552,note_on,,,,,0,0,12,,,,10,,,69,0
621552,note_on,,,,,912,0,12,,,,10,,,81,0
621552,note_on,,,,,0,0,14,,,,12,,,65,0
621552,note_on,,,,,912,0,14,,,,12,,,69,0
621600,note_on,,,,,48,0,14,,,,12,,,73,92
621600,note_on,,,,,96,0,16,,,,14,,,49,105
621600,note_on,,,,,48,0,12,,,,10,,,85,105
621600,note_on,,,,,48,0,13,,,,11,,,73,92
621600,note_on,,,,,96,0,15,,,,13,,,61,105
621616,note_on,,,,,176,0,6,,,,3,,,57,0
621616,note_on,,,,,176,0,3,,,,1,,,69,0
621616,note_on,,,,,176,0,1,,,,0,,,81,0
621616,note_on,,,,,176,0,4,,,,2,,,69,0
621632,note_on,,,,,192,0,9,,,,5,,,57,0
621856,note_on,,,,,256,0,12,,,,10,,,85,0
621864,note_on,,,,,264,0,13,,,,11,,,73,0
621864,note_on,,,,,264,0,15,,,,13,,,61,0
621864,note_on,,,,,264,0,16,,,,14,,,49,0
621864,note_on,,,,,264,0,14,,,,12,,,73,0
622080,note_on,,,,,216,0,16,,,,14,,,48,105
622080,note_on,,,,,216,0,13,,,,11,,,72,92
622080,note_on,,,,,216,0,14,,,,12,,,72,92
622080,note_on,,,,,224,0,12,,,,10,,,84,105
622080,note_on,,,,,216,0,15,,,,13,,,60,105
622344,note_on,,,,,264,0,15,,,,13,,,60,0
622344,note_on,,,,,264,0,13,,,,11,,,72,0
622344,note_on,,,,,264,0,14,,,,12,,,72,0
622344,note_on,,,,,264,0,16,,,,14,,,48,0
622352,note_on,,,,,272,0,12,,,,10,,,84,0
622560,note_on,,,,,944,0,3,,,,1,,,69,92
622560,note_on,,,,,0,0,3,,,,1,,,81,92
622560,program_change,,,,,216,0,13,,,45,11,,,,
622560,program_change,,,,,216,0,15,,,45,13,,,,
622560,program_change,,,,,216,0,16,,,45,14,,,,
622560,note_on,,,,,944,0,4,,,,2,,,81,92
622560,note_on,,,,,944,0,1,,,,0,,,81,92
622560,program_change,,,,,208,0,12,,,45,10,,,,
622560,note_on,,,,,0,0,4,,,,2,,,69,92
622560,program_change,,,,,216,0,14,,,45,12,,,,
622560,note_on,,,,,944,0,6,,,,3,,,57,92
622800,note_on,,,,,240,0,1,,,,0,,,81,0
622800,note_on,,,,,0,0,3,,,,1,,,69,0
622800,note_on,,,,,240,0,3,,,,1,,,81,0
622800,note_on,,,,,240,0,4,,,,2,,,69,0
622800,note_on,,,,,0,0,4,,,,2,,,81,0
622800,note_on,,,,,240,0,6,,,,3,,,57,0
623040,note_on,,,,,0,0,3,,,,1,,,77,92
623040,note_on,,,,,240,0,3,,,,1,,,65,92
623040,note_on,,,,,240,0,4,,,,2,,,77,92
623040,note_on,,,,,0,0,4,,,,2,,,65,92
623040,note_on,,,,,240,0,1,,,,0,,,77,92
623040,note_on,,,,,240,0,6,,,,3,,,53,92
623280,note_on,,,,,240,0,4,,,,2,,,65,0
623280,note_on,,,,,0,0,3,,,,1,,,65,0
623280,note_on,,,,,240,0,3,,,,1,,,77,0
623280,note_on,,,,,240,0,1,,,,0,,,77,0
623280,note_on,,,,,240,0,6,,,,3,,,53,0
623280,note_on,,,,,0,0,4,,,,2,,,77,0
623520,note_on,,,,,960,0,16,,,,14,,,40,80
623520,note_on,,,,,960,0,14,,,,12,,,64,80
623520,note_on,,,,,960,0,15,,,,13,,,52,80
623520,note_on,,,,,960,0,13,,,,11,,,64,80
623520,note_on,,,,,960,0,12,,,,10,,,76,80
623904,note_on,,,,,384,0,14,,,,12,,,64,0
623904,note_on,,,,,384,0,13,,,,11,,,64,0
623904,note_on,,,,,384,0,12,,,,10,,,76,0
623904,note_on,,,,,384,0,15,,,,13,,,52,0
623904,note_on,,,,,384,0,16,,,,14,,,40,0
624000,note_on,,,,,96,0,15,,,,13,,,51,80
624000,note_on,,,,,96,0,12,,,,10,,,75,80
624000,note_on,,,,,96,0,14,,,,12,,,63,80
624000,note_on,,,,,96,0,16,,,,14,,,39,80
624000,note_on,,,,,96,0,13,,,,11,,,63,80
624384,note_on,,,,,384,0,15,,,,13,,,51,0
624384,note_on,,,,,384,0,12,,,,10,,,75,0
624384,note_on,,,,,384,0,14,,,,12,,,63,0
624384,note_on,,,,,384,0,16,,,,14,,,39,0
624384,note_on,,,,,384,0,13,,,,11,,,63,0
624480,note_on,,,,,1200,0,4,,,,2,,,66,92
624480,note_on,,,,,1200,0,6,,,,3,,,54,92
624480,note_on,,,,,1200,0,3,,,,1,,,78,92
624480,note_on,,,,,0,0,4,,,,2,,,78,92
624480,note_on,,,,,1200,0,1,,,,0,,,78,92
624480,note_on,,,,,0,0,3,,,,1,,,66,92
624720,note_on,,,,,240,0,1,,,,0,,,78,0
624720,note_on,,,,,240,0,6,,,,3,,,54,0
624720,note_on,,,,,0,0,3,,,,1,,,78,0
624720,note_on,,,,,240,0,4,,,,2,,,78,0
624720,note_on,,,,,0,0,4,,,,2,,,66,0
624720,note_on,,,,,240,0,3,,,,1,,,66,0
624960,note_on,,,,,240,0,6,,,,3,,,57,92
624960,note_on,,,,,240,0,3,,,,1,,,81,92
624960,note_on,,,,,240,0,4,,,,2,,,69,92
624960,note_on,,,,,0,0,4,,,,2,,,81,92
624960,note_on,,,,,240,0,1,,,,0,,,81,92
624960,note_on,,,,,0,0,3,,,,1,,,69,92
625200,note_on,,,,,240,0,6,,,,3,,,57,0
625200,note_on,,,,,240,0,1,,,,0,,,81,0
625200,note_on,,,,,0,0,3,,,,1,,,81,0
625200,note_on,,,,,0,0,4,,,,2,,,69,0
625200,note_on,,,,,240,0,4,,,,2,,,81,0
625200,note_on,,,,,240,0,3,,,,1,,,69,0
625440,note_on,,,,,1056,0,15,,,,13,,,60,80
625440,note_on,,,,,1056,0,12,,,,10,,,84,80
625440,note_on,,,,,1056,0,14,,,,12,,,72,80
625440,note_on,,,,,1056,0,13,,,,11,,,72,80
625440,note_on,,,,,1056,0,16,,,,14,,,48,80
625824,note_on,,,,,384,0,15,,,,13,,,60,0
625824,note_on,,,,,384,0,12,,,,10,,,84,0
625824,note_on,,,,,384,0,14,,,,12,,,72,0
625824,note_on,,,,,384,0,16,,,,14,,,48,0
625824,note_on,,,,,384,0,13,,,,11,,,72,0
625920,note_on,,,,,96,0,16,,,,14,,,47,80
625920,note_on,,,,,96,0,15,,,,13,,,59,80
625920,note_on,,,,,96,0,14,,,,12,,,71,80
625920,note_on,,,,,96,0,12,,,,10,,,83,80
625920,note_on,,,,,96,0,13,,,,11,,,71,80
626304,note_on,,,,,384,0,14,,,,12,,,71,0
626304,note_on,,,,,384,0,13,,,,11,,,71,0
626304,note_on,,,,,384,0,15,,,,13,,,59,0
626304,note_on,,,,,384,0,16,,,,14,,,47,0
626304,note_on,,,,,384,0,12,,,,10,,,83,0
626400,note_on,,,,,0,0,4,,,,2,,,79,89
626400,note_on,,,,,0,0,3,,,,1,,,79,89
626400,note_on,,,,,1200,0,3,,,,1,,,67,89
626400,note_on,,,,,1200,0,4,,,,2,,,67,89
626400,note_on,,,,,1200,0,1,,,,0,,,79,92
626400,note_on,,,,,1200,0,6,,,,3,,,55,89
626640,note_on,,,,,0,0,4,,,,2,,,67,0
626640,note_on,,,,,0,0,3,,,,1,,,67,0
626640,note_on,,,,,240,0,3,,,,1,,,79,0
626640,note_on,,,,,240,0,6,,,,3,,,55,0
626640,note_on,,,,,240,0,4,,,,2,,,79,0
626640,note_on,,,,,240,0,1,,,,0,,,79,0
626880,note_on,,,,,0,0,3,,,,1,,,64,89
626880,note_on,,,,,0,0,4,,,,2,,,64,89
626880,note_on,,,,,240,0,4,,,,2,,,76,89
626880,note_on,,,,,240,0,1,,,,0,,,76,92
626880,note_on,,,,,240,0,3,,,,1,,,76,89
626880,note_on,,,,,240,0,6,,,,3,,,52,89
627120,note_on,,,,,0,0,4,,,,2,,,76,0
627120,note_on,,,,,240,0,6,,,,3,,,52,0
627120,note_on,,,,,240,0,3,,,,1,,,64,0
627120,note_on,,,,,0,0,3,,,,1,,,76,0
627120,note_on,,,,,240,0,1,,,,0,,,76,0
627120,note_on,,,,,240,0,4,,,,2,,,64,0
627360,note_on,,,,,1056,0,12,,,,10,,,74,80
627360,note_on,,,,,1056,0,14,,,,12,,,62,80
627360,note_on,,,,,1056,0,15,,,,13,,,50,80
627360,note_on,,,,,1056,0,13,,,,11,,,62,80
627360,note_on,,,,,1056,0,16,,,,14,,,38,80
627744,note_on,,,,,384,0,16,,,,14,,,38,0
627744,note_on,,,,,384,0,13,,,,11,,,62,0
627744,note_on,,,,,384,0,14,,,,12,,,62,0
627744,note_on,,,,,384,0,12,,,,10,,,74,0
627744,note_on,,,,,384,0,15,,,,13,,,50,0
627840,note_on,,,,,96,0,16,,,,14,,,37,80
627840,note_on,,,,,96,0,15,,,,13,,,49,80
627840,note_on,,,,,96,0,13,,,,11,,,61,80
627840,note_on,,,,,96,0,12,,,,10,,,73,80
627840,note_on,,,,,96,0,14,,,,12,,,61,80
628224,note_on,,,,,384,0,15,,,,13,,,49,0
628224,note_on,,,,,384,0,16,,,,14,,,37,0
628224,note_on,,,,,384,0,13,,,,11,,,61,0
628224,note_on,,,,,384,0,14,,,,12,,,61,0
628224,note_on,,,,,384,0,12,,,,10,,,73,0
628320,note_on,,,,,1200,0,6,,,,3,,,52,89
628320,note_on,,,,,0,0,4,,,,2,,,76,89
628320,note_on,,,,,1200,0,4,,,,2,,,64,89
628320,note_on,,,,,1200,0,1,,,,0,,,76,92
628320,note_on,,,,,0,0,3,,,,1,,,64,89
628320,note_on,,,,,1200,0,3,,,,1,,,76,89
628560,note_on,,,,,240,0,4,,,,2,,,76,0
628560,note_on,,,,,240,0,1,,,,0,,,76,0
628560,note_on,,,,,240,0,3,,,,1,,,64,0
628560,note_on,,,,,0,0,3,,,,1,,,76,0
628560,note_on,,,,,240,0,6,,,,3,,,52,0
628560,note_on,,,,,0,0,4,,,,2,,,64,0
628800,note_on,,,,,0,0,4,,,,2,,,79,89
628800,note_on,,,,,240,0,3,,,,1,,,79,89
628800,note_on,,,,,0,0,3,,,,1,,,67,89
628800,note_on,,,,,240,0,6,,,,3,,,55,89
628800,note_on,,,,,240,0,4,,,,2,,,67,89
628800,note_on,,,,,240,0,1,,,,0,,,79,92
629040,note_on,,,,,240,0,4,,,,2,,,79,0
629040,note_on,,,,,0,0,4,,,,2,,,67,0
629040,note_on,,,,,240,0,6,,,,3,,,55,0
629040,note_on,,,,,240,0,3,,,,1,,,67,0
629040,note_on,,,,,0,0,3,,,,1,,,79,0
629040,note_on,,,,,240,0,1,,,,0,,,79,0
629280,note_on,,,,,1056,0,16,,,,14,,,47,80
629280,note_on,,,,,1056,0,14,,,,12,,,71,80
629280,note_on,,,,,1056,0,15,,,,13,,,59,80
629280,note_on,,,,,1056,0,13,,,,11,,,71,80
629280,note_on,,,,,1056,0,12,,,,10,,,83,80
629664,note_on,,,,,384,0,14,,,,12,,,71,0
629664,note_on,,,,,384,0,16,,,,14,,,47,0
629664,note_on,,,,,384,0,15,,,,13,,,59,0
629664,note_on,,,,,384,0,12,,,,10,,,83,0
629664,note_on,,,,,384,0,13,,,,11,,,71,0
629760,note_on,,,,,96,0,12,,,,10,,,72,80
629760,note_on,,,,,96,0,16,,,,14,,,36,80
629760,note_on,,,,,96,0,13,,,,11,,,60,80
629760,note_on,,,,,96,0,14,,,,12,,,60,80
629760,note_on,,,,,96,0,15,,,,13,,,48,80
630144,note_on,,,,,384,0,14,,,,12,,,60,0
630144,note_on,,,,,384,0,15,,,,13,,,48,0
630144,note_on,,,,,384,0,16,,,,14,,,36,0
630144,note_on,,,,,384,0,13,,,,11,,,60,0
630144,note_on,,,,,384,0,12,,,,10,,,72,0
630240,note_on,,,,,0,0,3,,,,1,,,76,89
630240,note_on,,,,,1200,0,3,,,,1,,,64,89
630240,note_on,,,,,1200,0,4,,,,2,,,64,89
630240,note_on,,,,,0,0,4,,,,2,,,76,89
630240,note_on,,,,,1200,0,1,,,,0,,,76,92
630240,note_on,,,,,1200,0,6,,,,3,,,52,89
630480,note_on,,,,,240,0,3,,,,1,,,76,0
630480,note_on,,,,,0,0,3,,,,1,,,64,0
630480,note_on,,,,,0,0,4,,,,2,,,64,0
630480,note_on,,,,,240,0,6,,,,3,,,52,0
630480,note_on,,,,,240,0,1,,,,0,,,76,0
630480,note_on,,,,,240,0,4,,,,2,,,76,0
630720,note_on,,,,,240,0,6,,,,3,,,55,89
630720,note_on,,,,,0,0,4,,,,2,,,67,89
630720,note_on,,,,,240,0,4,,,,2,,,79,89
630720,note_on,,,,,240,0,1,,,,0,,,79,92
630720,note_on,,,,,0,0,3,,,,1,,,67,89
630720,note_on,,,,,240,0,3,,,,1,,,79,89
630960,note_on,,,,,0,0,3,,,,1,,,79,0
630960,note_on,,,,,240,0,3,,,,1,,,67,0
630960,note_on,,,,,240,0,4,,,,2,,,67,0
630960,note_on,,,,,0,0,4,,,,2,,,79,0
630960,note_on,,,,,240,0,6,,,,3,,,55,0
630960,note_on,,,,,240,0,1,,,,0,,,79,0
631200,note_on,,,,,1056,0,15,,,,13,,,59,80
631200,note_on,,,,,1056,0,13,,,,11,,,71,80
631200,note_on,,,,,1056,0,14,,,,12,,,71,80
631200,note_on,,,,,1056,0,16,,,,14,,,47,80
631200,note_on,,,,,1056,0,12,,,,10,,,83,80
631584,note_on,,,,,384,0,12,,,,10,,,83,0
631584,note_on,,,,,384,0,15,,,,13,,,59,0
631584,note_on,,,,,384,0,14,,,,12,,,71,0
631584,note_on,,,,,384,0,13,,,,11,,,71,0
631584,note_on,,,,,384,0,16,,,,14,,,47,0
631680,note_on,,,,,96,0,14,,,,12,,,60,80
631680,note_on,,,,,96,0,16,,,,14,,,36,80
631680,note_on,,,,,96,0,15,,,,13,,,48,80
631680,note_on,,,,,96,0,13,,,,11,,,60,80
631680,note_on,,,,,96,0,12,,,,10,,,72,80
632064,note_on,,,,,384,0,13,,,,11,,,60,0
632064,note_on,,,,,384,0,16,,,,14,,,36,0
632064,note_on,,,,,384,0,12,,,,10,,,72,0
632064,note_on,,,,,384,0,14,,,,12,,,60,0
632064,note_on,,,,,384,0,15,,,,13,,,48,0
632160,note_on,,,,,0,0,3,,,,1,,,75,89
632160,note_on,,,,,1200,0,3,,,,1,,,63,89
632160,note_on,,,,,0,0,4,,,,2,,,75,89
632160,note_on,,,,,1200,0,4,,,,2,,,63,89
632160,note_on,,,,,1200,0,1,,,,0,,,75,92
632160,note_on,,,,,1200,0,6,,,,3,,,51,89
632400,note_on,,,,,0,0,4,,,,2,,,63,0
632400,note_on,,,,,240,0,4,,,,2,,,75,0
632400,note_on,,,,,240,0,3,,,,1,,,75,0
632400,note_on,,,,,0,0,3,,,,1,,,63,0
632400,note_on,,,,,240,0,6,,,,3,,,51,0
632400,note_on,,,,,240,0,1,,,,0,,,75,0
632640,note_on,,,,,240,0,3,,,,1,,,66,89
632640,note_on,,,,,0,0,3,,,,1,,,78,89
632640,note_on,,,,,240,0,6,,,,3,,,54,89
632640,note_on,,,,,0,0,4,,,,2,,,78,89
632640,note_on,,,,,240,0,4,,,,2,,,66,89
632640,note_on,,,,,240,0,1,,,,0,,,78,92
632880,note_on,,,,,0,0,4,,,,2,,,66,0
632880,note_on,,,,,240,0,1,,,,0,,,78,0
632880,note_on,,,,,240,0,6,,,,3,,,54,0
632880,note_on,,,,,240,0,4,,,,2,,,78,0
632880,note_on,,,,,0,0,3,,,,1,,,66,0
632880,note_on,,,,,240,0,3,,,,1,,,78,0
633120,note_on,,,,,1056,0,14,,,,12,,,69,80
633120,note_on,,,,,1056,0,15,,,,13,,,57,80
633120,note_on,,,,,1056,0,12,,,,10,,,81,80
633120,note_on,,,,,1056,0,13,,,,11,,,69,80
633120,note_on,,,,,1056,0,16,,,,14,,,45,80
633504,note_on,,,,,384,0,14,,,,12,,,69,0
633504,note_on,,,,,384,0,16,,,,14,,,45,0
633504,note_on,,,,,384,0,12,,,,10,,,81,0
633504,note_on,,,,,384,0,13,,,,11,,,69,0
633504,note_on,,,,,384,0,15,,,,13,,,57,0
633600,note_on,,,,,96,0,16,,,,14,,,35,80
633600,note_on,,,,,96,0,15,,,,13,,,47,80
633600,note_on,,,,,96,0,13,,,,11,,,59,80
633600,note_on,,,,,96,0,12,,,,10,,,71,80
633600,note_on,,,,,96,0,14,,,,12,,,59,80
633984,note_on,,,,,384,0,13,,,,11,,,59,0
633984,note_on,,,,,384,0,15,,,,13,,,47,0
633984,note_on,,,,,384,0,12,,,,10,,,71,0
633984,note_on,,,,,384,0,14,,,,12,,,59,0
633984,note_on,,,,,384,0,16,,,,14,,,35,0
634080,note_on,,,,,1200,0,6,,,,3,,,51,89
634080,note_on,,,,,0,0,3,,,,1,,,63,89
634080,note_on,,,,,1200,0,3,,,,1,,,75,89
634080,note_on,,,,,0,0,4,,,,2,,,63,89
634080,note_on,,,,,1200,0,1,,,,0,,,75,92
634080,note_on,,,,,1200,0,4,,,,2,,,75,89
634320,note_on,,,,,240,0,1,,,,0,,,75,0
634320,note_on,,,,,240,0,4,,,,2,,,63,0
634320,note_on,,,,,0,0,4,,,,2,,,75,0
634320,note_on,,,,,240,0,3,,,,1,,,63,0
634320,note_on,,,,,0,0,3,,,,1,,,75,0
634320,note_on,,,,,240,0,6,,,,3,,,51,0
634560,note_on,,,,,240,0,1,,,,0,,,78,92
634560,note_on,,,,,240,0,3,,,,1,,,78,89
634560,note_on,,,,,240,0,4,,,,2,,,66,89
634560,note_on,,,,,0,0,4,,,,2,,,78,89
634560,note_on,,,,,0,0,3,,,,1,,,66,89
634560,note_on,,,,,240,0,6,,,,3,,,54,89
634800,note_on,,,,,240,0,1,,,,0,,,78,0
634800,note_on,,,,,240,0,3,,,,1,,,66,0
634800,note_on,,,,,240,0,6,,,,3,,,54,0
634800,note_on,,,,,0,0,4,,,,2,,,66,0
634800,note_on,,,,,240,0,4,,,,2,,,78,0
634800,note_on,,,,,0,0,3,,,,1,,,78,0
635040,note_on,,,,,1056,0,14,,,,12,,,66,80
635040,note_on,,,,,1056,0,12,,,,10,,,81,80
635040,note_on,,,,,1056,0,15,,,,13,,,47,80
635040,note_on,,,,,1056,0,16,,,,14,,,35,80
635040,note_on,,,,,1056,0,13,,,,11,,,75,80
635424,note_on,,,,,384,0,16,,,,14,,,35,0
635424,note_on,,,,,384,0,13,,,,11,,,75,0
635424,note_on,,,,,384,0,15,,,,13,,,47,0
635424,note_on,,,,,384,0,14,,,,12,,,66,0
635424,note_on,,,,,384,0,12,,,,10,,,81,0
635520,note_on,,,,,0,0,13,,,,11,,,76,80
635520,note_on,,,,,720,0,6,,,,3,,,52,89
635520,note_on,,,,,96,0,14,,,,12,,,68,80
635520,note_on,,,,,96,0,13,,,,11,,,68,80
635520,note_on,,,,,0,0,6,,,,3,,,56,89
635520,note_on,,,,,96,0,15,,,,13,,,52,92
635520,note_on,,,,,96,0,12,,,,10,,,80,92
635904,note_on,,,,,384,0,13,,,,11,,,76,0
635904,note_on,,,,,0,0,13,,,,11,,,68,0
635904,note_on,,,,,384,0,12,,,,10,,,80,0
635904,note_on,,,,,384,0,15,,,,13,,,52,0
635904,note_on,,,,,384,0,14,,,,12,,,68,0
636000,note_on,,,,,0,0,4,,,,2,,,80,89
636000,note_on,,,,,1200,0,4,,,,2,,,76,89
636000,note_on,,,,,96,0,14,,,,12,,,59,80
636000,note_on,,,,,0,0,8,,,,4,,,68,92
636000,note_on,,,,,0,0,3,,,,1,,,76,89
636000,note_on,,,,,14368,0,9,,,,5,,,59,92
636000,note_on,,,,,14592,0,8,,,,4,,,64,92
636000,note_on,,,,,1200,0,1,,,,0,,,92,92
636000,note_on,,,,,96,0,12,,,,10,,,71,92
636000,note_on,,,,,1200,0,3,,,,1,,,80,89
636000,note_on,,,,,115718,0,2,,,,0,,,88,89
636000,note_on,,,,,576,0,16,,,,14,,,35,92
636000,note_on,,,,,96,0,15,,,,13,,,47,92
636288,note_on,,,,,288,0,9,,,,5,,,59,0
636384,note_on,,,,,384,0,14,,,,12,,,59,0
636384,note_on,,,,,384,0,16,,,,14,,,35,0
636384,note_on,,,,,384,0,15,,,,13,,,47,0
636384,note_on,,,,,384,0,12,,,,10,,,71,0
636480,note_on,,,,,96,0,14,,,,12,,,69,80
636480,note_on,,,,,96,0,15,,,,13,,,54,92
636480,note_on,,,,,0,0,6,,,,3,,,52,0
636480,note_on,,,,,960,0,6,,,,3,,,56,0
636480,note_on,,,,,0,0,6,,,,3,,,57,89
636480,note_on,,,,,96,0,12,,,,10,,,81,92
636480,note_on,,,,,576,0,13,,,,11,,,78,80
636480,note_on,,,,,0,0,13,,,,11,,,69,80
636480,note_on,,,,,0,0,6,,,,3,,,54,89
636864,note_on,,,,,384,0,14,,,,12,,,69,0
636864,note_on,,,,,384,0,15,,,,13,,,54,0
636864,note_on,,,,,384,0,12,,,,10,,,81,0
636864,note_on,,,,,384,0,13,,,,11,,,69,0
636864,note_on,,,,,0,0,13,,,,11,,,78,0
636912,note_on,,,,,912,0,8,,,,4,,,68,0
636912,note_on,,,,,912,0,2,,,,0,,,88,0
636912,note_on,,,,,912,0,1,,,,0,,,92,0
636912,note_on,,,,,0,0,3,,,,1,,,80,0
636912,note_on,,,,,0,0,8,,,,4,,,64,0
636912,note_on,,,,,912,0,4,,,,2,,,80,0
636912,note_on,,,,,0,0,4,,,,2,,,76,0
636912,note_on,,,,,912,0,3,,,,1,,,76,0
636960,note_on,,,,,0,0,8,,,,4,,,66,92
636960,note_on,,,,,48,0,4,,,,2,,,78,89
636960,note_on,,,,,0,0,4,,,,2,,,75,89
636960,note_on,,,,,48,0,8,,,,4,,,63,92
636960,note_on,,,,,96,0,15,,,,13,,,47,92
636960,note_on,,,,,48,0,3,,,,1,,,78,89
636960,note_on,,,,,672,0,9,,,,5,,,59,92
636960,note_on,,,,,0,0,3,,,,1,,,75,89
636960,note_on,,,,,48,0,2,,,,0,,,87,89
636960,note_on,,,,,48,0,1,,,,0,,,90,92
636960,note_on,,,,,96,0,14,,,,12,,,59,80
636960,note_on,,,,,96,0,12,,,,10,,,71,92
636960,note_on,,,,,576,0,16,,,,14,,,35,92
637248,note_on,,,,,288,0,9,,,,5,,,59,0
637344,note_on,,,,,384,0,16,,,,14,,,35,0
637344,note_on,,,,,384,0,15,,,,13,,,47,0
637344,note_on,,,,,384,0,14,,,,12,,,59,0
637344,note_on,,,,,384,0,12,,,,10,,,71,0
637440,note_on,,,,,0,0,6,,,,3,,,58,89
637440,note_on,,,,,96,0,14,,,,12,,,70,80
637440,note_on,,,,,96,0,12,,,,10,,,82,92
637440,note_on,,,,,0,0,6,,,,3,,,55,89
637440,note_on,,,,,0,0,6,,,,3,,,54,0
637440,note_on,,,,,960,0,6,,,,3,,,57,0
637440,note_on,,,,,0,0,13,,,,11,,,79,80
637440,note_on,,,,,576,0,13,,,,11,,,70,80
637440,note_on,,,,,96,0,15,,,,13,,,55,92
637824,note_on,,,,,384,0,14,,,,12,,,70,0
637824,note_on,,,,,384,0,12,,,,10,,,82,0
637824,note_on,,,,,384,0,13,,,,11,,,79,0
637824,note_on,,,,,0,0,13,,,,11,,,70,0
637824,note_on,,,,,384,0,15,,,,13,,,55,0
637896,note_on,,,,,936,0,2,,,,0,,,87,0
637896,note_on,,,,,936,0,3,,,,1,,,75,0
637896,note_on,,,,,0,0,3,,,,1,,,78,0
637896,note_on,,,,,936,0,4,,,,2,,,75,0
637896,note_on,,,,,936,0,8,,,,4,,,66,0
637896,note_on,,,,,0,0,8,,,,4,,,63,0
637896,note_on,,,,,0,0,4,,,,2,,,78,0
637896,note_on,,,,,936,0,1,,,,0,,,90,0
637920,note_on,,,,,24,0,8,,,,4,,,64,92
637920,note_on,,,,,0,0,8,,,,4,,,61,92
637920,note_on,,,,,576,0,16,,,,14,,,35,92
637920,note_on,,,,,96,0,14,,,,12,,,59,80
637920,note_on,,,,,672,0,9,,,,5,,,59,92
637920,note_on,,,,,96,0,15,,,,13,,,47,92
637920,note_on,,,,,0,0,4,,,,2,,,73,89
637920,note_on,,,,,24,0,4,,,,2,,,76,89
637920,note_on,,,,,24,0,1,,,,0,,,88,92
637920,note_on,,,,,0,0,3,,,,1,,,76,89
637920,note_on,,,,,24,0,3,,,,1,,,73,89
637920,note_on,,,,,24,0,2,,,,0,,,85,89
637920,note_on,,,,,96,0,12,,,,10,,,71,92
638208,note_on,,,,,288,0,9,,,,5,,,59,0
638304,note_on,,,,,384,0,16,,,,14,,,35,0
638304,note_on,,,,,384,0,15,,,,13,,,47,0
638304,note_on,,,,,384,0,12,,,,10,,,71,0
638304,note_on,,,,,384,0,14,,,,12,,,59,0
638400,note_on,,,,,96,0,12,,,,10,,,83,92
638400,note_on,,,,,0,0,6,,,,3,,,56,89
638400,note_on,,,,,0,0,6,,,,3,,,59,89
638400,note_on,,,,,0,0,13,,,,11,,,80,80
638400,note_on,,,,,576,0,13,,,,11,,,71,80
638400,note_on,,,,,96,0,15,,,,13,,,56,92
638400,note_on,,,,,96,0,14,,,,12,,,71,80
638400,note_on,,,,,960,0,6,,,,3,,,58,0
638400,note_on,,,,,0,0,6,,,,3,,,55,0
638784,note_on,,,,,384,0,12,,,,10,,,83,0
638784,note_on,,,,,384,0,13,,,,11,,,80,0
638784,note_on,,,,,0,0,13,,,,11,,,71,0
638784,note_on,,,,,384,0,15,,,,13,,,56,0
638784,note_on,,,,,384,0,14,,,,12,,,71,0
638832,note_on,,,,,912,0,4,,,,2,,,73,0
638832,note_on,,,,,0,0,8,,,,4,,,64,0
638832,note_on,,,,,912,0,1,,,,0,,,88,0
638832,note_on,,,,,0,0,4,,,,2,,,76,0
638832,note_on,,,,,912,0,2,,,,0,,,85,0
638832,note_on,,,,,912,0,3,,,,1,,,76,0
638832,note_on,,,,,0,0,3,,,,1,,,73,0
638832,note_on,,,,,912,0,8,,,,4,,,61,0
638880,note_on,,,,,48,0,8,,,,4,,,59,92
638880,note_on,,,,,48,0,2,,,,0,,,83,89
638880,note_on,,,,,576,0,16,,,,14,,,35,92
638880,note_on,,,,,96,0,14,,,,12,,,59,80
638880,note_on,,,,,48,0,1,,,,0,,,87,92
638880,note_on,,,,,48,0,3,,,,1,,,75,89
638880,note_on,,,,,96,0,12,,,,10,,,71,92
638880,note_on,,,,,96,0,15,,,,13,,,47,92
638880,note_on,,,,,0,0,4,,,,2,,,71,89
638880,note_on,,,,,48,0,4,,,,2,,,75,89
638880,note_on,,,,,0,0,8,,,,4,,,63,92
638880,note_on,,,,,0,0,3,,,,1,,,71,89
638880,note_on,,,,,672,0,9,,,,5,,,59,92
639168,note_on,,,,,288,0,9,,,,5,,,59,0
639264,note_on,,,,,384,0,16,,,,14,,,35,0
639264,note_on,,,,,384,0,14,,,,12,,,59,0
639264,note_on,,,,,384,0,15,,,,13,,,47,0
639264,note_on,,,,,384,0,12,,,,10,,,71,0
639312,note_on,,,,,912,0,6,,,,3,,,56,0
639312,note_on,,,,,0,0,6,,,,3,,,59,0
639336,note_on,,,,,0,0,4,,,,2,,,75,0
639336,note_on,,,,,456,0,1,,,,0,,,87,0
639336,note_on,,,,,456,0,3,,,,1,,,71,0
639336,note_on,,,,,456,0,4,,,,2,,,71,0
639336,note_on,,,,,456,0,2,,,,0,,,83,0
639336,note_on,,,,,456,0,8,,,,4,,,63,0
639336,note_on,,,,,0,0,3,,,,1,,,75,0
639336,note_on,,,,,0,0,8,,,,4,,,59,0
639360,note_on,,,,,576,0,13,,,,11,,,73,80
639360,note_on,,,,,24,0,1,,,,0,,,85,92
639360,note_on,,,,,24,0,2,,,,0,,,81,89
639360,note_on,,,,,0,0,8,,,,4,,,69,92
639360,note_on,,,,,24,0,8,,,,4,,,61,92
639360,note_on,,,,,96,0,15,,,,13,,,57,92
639360,note_on,,,,,0,0,3,,,,1,,,77,109
639360,note_on,,,,,96,0,14,,,,12,,,65,80
639360,note_on,,,,,0,0,4,,,,2,,,73,89
639360,note_on,,,,,24,0,4,,,,2,,,77,109
639360,note_on,,,,,0,0,13,,,,11,,,81,80
639360,note_on,,,,,24,0,3,,,,1,,,73,89
639360,note_on,,,,,48,0,6,,,,3,,,61,109
639360,note_on,,,,,0,0,6,,,,3,,,57,89
639360,note_on,,,,,96,0,12,,,,10,,,85,92
639360,note_on,,,,,0,0,14,,,,12,,,73,80
639744,note_on,,,,,0,0,13,,,,11,,,73,0
639744,note_on,,,,,384,0,14,,,,12,,,73,0
639744,note_on,,,,,0,0,14,,,,12,,,65,0
639744,note_on,,,,,384,0,15,,,,13,,,57,0
639744,note_on,,,,,384,0,12,,,,10,,,85,0
639744,note_on,,,,,384,0,13,,,,11,,,81,0
639840,note_on,,,,,0,0,3,,,,1,,,78,89
639840,note_on,,,,,672,0,9,,,,5,,,59,92
639840,set_tempo,,,,,23520,1,0,422535,,,,,,,
639840,note_on,,,,,480,0,4,,,,2,,,77,0
639840,note_on,,,,,96,0,15,,,,13,,,47,92
639840,note_on,,,,,96,0,12,,,,10,,,73,92
639840,note_on,,,,,576,0,16,,,,14,,,35,92
639840,note_on,,,,,480,0,3,,,,1,,,77,0
639840,note_on,,,,,0,0,4,,,,2,,,78,89
640128,note_on,,,,,288,0,9,,,,5,,,59,0
640224,note_on,,,,,384,0,16,,,,14,,,35,0
640224,note_on,,,,,384,0,12,,,,10,,,73,0
640224,note_on,,,,,384,0,15,,,,13,,,47,0
640320,note_on,,,,,0,0,14,,,,12,,,69,80
640320,note_on,,,,,576,0,14,,,,12,,,66,80
640320,note_on,,,,,96,0,12,,,,10,,,90,92
640320,set_tempo,,,,,480,1,0,431655,,,,,,,
640320,note_on,,,,,576,0,13,,,,11,,,78,80
640320,note_on,,,,,0,0,13,,,,11,,,69,80
640704,note_on,,,,,384,0,13,,,,11,,,69,0
640704,note_on,,,,,0,0,14,,,,12,,,66,0
640704,note_on,,,,,384,0,14,,,,12,,,69,0
640704,note_on,,,,,384,0,12,,,,10,,,90,0
640704,note_on,,,,,0,0,13,,,,11,,,78,0
640800,set_tempo,,,,,480,1,0,437956,,,,,,,
640800,note_on,,,,,0,0,3,,,,1,,,72,89
640800,note_on,,,,,960,0,4,,,,2,,,78,0
640800,note_on,,,,,960,0,3,,,,1,,,78,0
640800,note_on,,,,,576,0,15,,,,13,,,47,92
640800,note_on,,,,,0,0,4,,,,2,,,73,0
640800,note_on,,,,,1440,0,1,,,,0,,,85,0
640800,note_on,,,,,96,0,12,,,,10,,,78,92
640800,note_on,,,,,0,0,3,,,,1,,,73,0
640800,note_on,,,,,0,0,4,,,,2,,,72,89
640800,note_on,,,,,0,0,4,,,,2,,,76,89
640800,note_on,,,,,672,0,9,,,,5,,,59,92
640800,note_on,,,,,0,0,3,,,,1,,,76,89
640800,note_on,,,,,0,0,6,,,,3,,,61,0
640800,note_on,,,,,576,0,16,,,,14,,,35,92
640800,note_on,,,,,0,0,6,,,,3,,,64,89
640800,note_on,,,,,1440,0,8,,,,4,,,69,0
640800,note_on,,,,,0,0,8,,,,4,,,61,0
640800,note_on,,,,,0,0,8,,,,4,,,60,92
640800,note_on,,,,,0,0,8,,,,4,,,66,92
640800,note_on,,,,,0,0,6,,,,3,,,60,89
640800,note_on,,,,,1440,0,6,,,,3,,,57,0
640800,note_on,,,,,0,0,1,,,,0,,,84,92
641088,note_on,,,,,288,0,9,,,,5,,,59,0
641184,note_on,,,,,384,0,16,,,,14,,,35,0
641184,note_on,,,,,1824,0,2,,,,0,,,81,0
641184,note_on,,,,,384,0,15,,,,13,,,47,0
641184,note_on,,,,,384,0,12,,,,10,,,78,0
641256,note_on,,,,,456,0,4,,,,2,,,76,0
641256,note_on,,,,,0,0,8,,,,4,,,60,0
641256,note_on,,,,,456,0,8,,,,4,,,66,0
641256,note_on,,,,,0,0,3,,,,1,,,72,0
641256,note_on,,,,,456,0,3,,,,1,,,76,0
641256,note_on,,,,,456,0,6,,,,3,,,60,0
641256,note_on,,,,,0,0,4,,,,2,,,72,0
641256,note_on,,,,,456,0,1,,,,0,,,84,0
641256,note_on,,,,,0,0,6,,,,3,,,64,0
641280,note_on,,,,,24,0,1,,,,0,,,83,92
641280,note_on,,,,,0,0,4,,,,2,,,76,89
641280,note_on,,,,,576,0,13,,,,11,,,69,80
641280,note_on,,,,,0,0,13,,,,11,,,78,80
641280,set_tempo,,,,,480,1,0,444444,,,,,,,
641280,note_on,,,,,24,0,4,,,,2,,,71,89
641280,note_on,,,,,24,0,8,,,,4,,,59,92
641280,note_on,,,,,96,0,2,,,,0,,,81,89
641280,note_on,,,,,0,0,3,,,,1,,,71,89
641280,note_on,,,,,0,0,8,,,,4,,,66,92
641280,note_on,,,,,24,0,3,,,,1,,,76,89
641280,note_on,,,,,24,0,6,,,,3,,,64,89
641280,note_on,,,,,96,0,12,,,,10,,,90,92
641280,note_on,,,,,0,0,14,,,,12,,,69,80
641280,note_on,,,,,576,0,14,,,,12,,,66,80
641280,note_on,,,,,116736,0,7,,,,3,,,59,92
641664,note_on,,,,,0,0,13,,,,11,,,69,0
641664,note_on,,,,,384,0,13,,,,11,,,78,0
641664,note_on,,,,,384,0,14,,,,12,,,69,0
641664,note_on,,,,,0,0,14,,,,12,,,66,0
641664,note_on,,,,,384,0,12,,,,10,,,90,0
641760,note_on,,,,,480,0,4,,,,2,,,76,0
641760,note_on,,,,,0,0,6,,,,3,,,63,89
641760,set_tempo,,,,,480,1,0,451128,,,,,,,
641760,note_on,,,,,0,0,3,,,,1,,,75,89
641760,note_on,,,,,480,0,3,,,,1,,,76,0
641760,note_on,,,,,576,0,16,,,,14,,,35,92
641760,note_on,,,,,672,0,9,,,,5,,,59,92
641760,note_on,,,,,576,0,15,,,,13,,,47,92
641760,note_on,,,,,480,0,6,,,,3,,,64,0
641760,note_on,,,,,0,0,4,,,,2,,,75,89
641760,note_on,,,,,96,0,12,,,,10,,,78,92
642048,note_on,,,,,288,0,9,,,,5,,,59,0
642144,note_on,,,,,384,0,16,,,,14,,,35,0
642144,note_on,,,,,384,0,12,,,,10,,,78,0
642144,note_on,,,,,384,0,15,,,,13,,,47,0
642240,note_on,,,,,960,0,8,,,,4,,,66,0
642240,program_change,,,,,0,0,14,,,48,12,,,,
642240,note_on,,,,,576,0,14,,,,12,,,71,80
642240,set_tempo,,,,,480,1,0,461538,,,,,,,
642240,note_on,,,,,576,0,13,,,,11,,,71,80
642240,note_on,,,,,0,0,13,,,,11,,,83,80
642240,note_on,,,,,0,0,8,,,,4,,,71,92
642240,note_on,,,,,0,0,14,,,,12,,,59,80
642624,note_on,,,,,384,0,8,,,,4,,,71,0
642624,note_on,,,,,0,0,8,,,,4,,,59,0
642624,note_on,,,,,0,0,13,,,,11,,,71,0
642624,note_on,,,,,384,0,13,,,,11,,,83,0
642624,note_on,,,,,384,0,14,,,,12,,,59,0
642624,note_on,,,,,0,0,14,,,,12,,,71,0
642720,note_on,,,,,0,0,3,,,,1,,,71,0
642720,note_on,,,,,0,0,16,,,,14,,,40,105
642720,program_change,,,,,576,0,16,,,48,14,,,,
642720,note_on,,,,,672,0,9,,,,5,,,59,92
642720,note_on,,,,,0,0,3,,,,1,,,76,89
642720,note_on,,,,,0,0,3,,,,1,,,80,89
642720,program_change,,,,,576,0,15,,,48,13,,,,
642720,program_change,,,,,576,0,12,,,48,10,,,,
642720,note_on,,,,,0,0,6,,,,3,,,64,89
642720,note_on,,,,,0,0,12,,,,10,,,80,116
642720,program_change,,,,,96,0,13,,,48,11,,,,
642720,note_on,,,,,1440,0,7,,,,3,,,59,0
642720,note_on,,,,,0,0,7,,,,3,,,52,92
642720,note_on,,,,,960,0,3,,,,1,,,75,0
642720,note_on,,,,,960,0,6,,,,3,,,63,0
642720,note_on,,,,,0,0,15,,,,13,,,52,105
642720,note_on,,,,,0,0,4,,,,2,,,71,0
642720,note_on,,,,,0,0,4,,,,2,,,68,89
642720,set_tempo,,,,,480,1,0,468750,,,,,,,
642720,note_on,,,,,1440,0,2,,,,0,,,81,0
642720,note_on,,,,,0,0,2,,,,0,,,80,92
642720,note_on,,,,,960,0,4,,,,2,,,75,0
642720,note_on,,,,,0,0,4,,,,2,,,64,89
643008,note_on,,,,,288,0,9,,,,5,,,59,0
643104,note_on,,,,,1824,0,1,,,,0,,,83,0
643104,note_on,,,,,384,0,16,,,,14,,,40,0
643104,note_on,,,,,384,0,15,,,,13,,,52,0
643176,note_on,,,,,456,0,4,,,,2,,,68,0
643176,note_on,,,,,456,0,7,,,,3,,,52,0
643176,note_on,,,,,456,0,6,,,,3,,,64,0
643176,note_on,,,,,0,0,4,,,,2,,,64,0
643176,note_on,,,,,456,0,3,,,,1,,,76,0
643176,note_on,,,,,0,0,3,,,,1,,,80,0
643176,note_on,,,,,456,0,2,,,,0,,,80,0
643200,note_on,,,,,0,0,3,,,,1,,,80,89
643200,note_on,,,,,96,0,1,,,,0,,,88,92
643200,note_on,,,,,24,0,3,,,,1,,,76,89
643200,note_on,,,,,192,0,9,,,,5,,,52,92
643200,note_on,,,,,0,0,9,,,,5,,,64,92
643200,note_on,,,,,96,0,16,,,,14,,,37,105
643200,note_on,,,,,24,0,2,,,,0,,,80,92
643200,set_tempo,,,,,480,1,0,441176,,,,,,,
643200,note_on,,,,,96,0,15,,,,13,,,49,105
643200,note_on,,,,,480,0,12,,,,10,,,80,0
643200,note_on,,,,,0,0,12,,,,10,,,88,119
643200,note_on,,,,,0,0,14,,,,12,,,68,92
643200,note_on,,,,,576,0,14,,,,12,,,64,92
643200,note_on,,,,,24,0,6,,,,3,,,49,92
643200,note_on,,,,,0,0,6,,,,3,,,61,92
643200,note_on,,,,,24,0,4,,,,2,,,68,89
643200,note_on,,,,,0,0,4,,,,2,,,76,89
643456,note_on,,,,,0,0,14,,,,12,,,64,0
643456,note_on,,,,,256,0,14,,,,12,,,68,0
643456,note_on,,,,,256,0,15,,,,13,,,49,0
643520,note_on,,,,,64,0,15,,,,13,,,61,105
643520,note_on,,,,,64,0,14,,,,12,,,68,92
643520,note_on,,,,,0,0,14,,,,12,,,76,92
643520,note_on,,,,,896,0,8,,,,4,,,68,92
643520,note_on,,,,,0,0,8,,,,4,,,64,92
643680,note_on,,,,,960,0,13,,,,11,,,68,105
643776,note_on,,,,,256,0,15,,,,13,,,61,0
643776,note_on,,,,,256,0,8,,,,4,,,64,0
643776,note_on,,,,,0,0,8,,,,4,,,68,0
643776,note_on,,,,,256,0,14,,,,12,,,76,0
643776,note_on,,,,,0,0,14,,,,12,,,68,0
643840,note_on,,,,,0,0,8,,,,4,,,68,92
643840,note_on,,,,,64,0,15,,,,13,,,61,105
643840,note_on,,,,,64,0,8,,,,4,,,64,92
643840,note_on,,,,,0,0,14,,,,12,,,76,92
643840,note_on,,,,,64,0,14,,,,12,,,68,92
643920,note_on,,,,,720,0,12,,,,10,,,88,0
643920,note_on,,,,,0,0,12,,,,10,,,87,116
643968,note_on,,,,,0,0,9,,,,5,,,52,0
643968,note_on,,,,,768,0,16,,,,14,,,37,0
643968,note_on,,,,,768,0,9,,,,5,,,64,0
644096,note_on,,,,,0,0,14,,,,12,,,68,0
644096,note_on,,,,,256,0,14,,,,12,,,76,0
644096,note_on,,,,,256,0,15,,,,13,,,61,0
644096,note_on,,,,,256,0,8,,,,4,,,68,0
644096,note_on,,,,,0,0,8,,,,4,,,64,0
644160,note_on,,,,,480,0,13,,,,11,,,68,0
644160,note_on,,,,,0,0,14,,,,12,,,68,92
644160,note_on,,,,,0,0,12,,,,10,,,85,116
644160,note_on,,,,,240,0,12,,,,10,,,87,0
644160,note_on,,,,,0,0,13,,,,11,,,76,105
644160,note_on,,,,,0,0,8,,,,4,,,68,92
644160,note_on,,,,,64,0,14,,,,12,,,76,92
644160,note_on,,,,,192,0,16,,,,14,,,49,105
644160,note_on,,,,,64,0,15,,,,13,,,61,105
644160,note_on,,,,,64,0,8,,,,4,,,64,92
644416,note_on,,,,,256,0,14,,,,12,,,68,0
644416,note_on,,,,,256,0,15,,,,13,,,61,0
644416,note_on,,,,,0,0,14,,,,12,,,76,0
644480,note_on,,,,,64,0,15,,,,13,,,49,105
644480,note_on,,,,,512,0,9,,,,5,,,52,92
644480,note_on,,,,,0,0,9,,,,5,,,64,92
644480,note_on,,,,,64,0,14,,,,12,,,68,92
644480,note_on,,,,,0,0,14,,,,12,,,64,92
644736,note_on,,,,,256,0,9,,,,5,,,64,0
644736,note_on,,,,,256,0,14,,,,12,,,64,0
644736,note_on,,,,,0,0,14,,,,12,,,68,0
644736,note_on,,,,,256,0,15,,,,13,,,49,0
644736,note_on,,,,,0,0,9,,,,5,,,52,0
644800,note_on,,,,,0,0,14,,,,12,,,64,92
644800,note_on,,,,,64,0,14,,,,12,,,68,92
644800,note_on,,,,,64,0,15,,,,13,,,49,105
644800,note_on,,,,,64,0,9,,,,5,,,52,92
644800,note_on,,,,,0,0,9,,,,5,,,64,92
644880,note_on,,,,,720,0,13,,,,11,,,76,0
644880,note_on,,,,,0,0,12,,,,10,,,83,116
644880,note_on,,,,,720,0,12,,,,10,,,85,0
644880,note_on,,,,,0,0,13,,,,11,,,75,105
644928,note_on,,,,,768,0,16,,,,14,,,49,0
645056,note_on,,,,,256,0,15,,,,13,,,49,0
645056,note_on,,,,,256,0,14,,,,12,,,64,0
645056,note_on,,,,,0,0,9,,,,5,,,52,0
645056,note_on,,,,,256,0,9,,,,5,,,64,0
645056,note_on,,,,,0,0,14,,,,12,,,68,0
645072,note_on,,,,,0,0,8,,,,4,,,64,0
645072,note_on,,,,,912,0,8,,,,4,,,68,0
645108,note_on,,,,,228,0,12,,,,10,,,83,0
645108,note_on,,,,,228,0,13,,,,11,,,75,0
645120,note_on,,,,,0,0,4,,,,2,,,70,92
645120,note_on,,,,,64,0,9,,,,5,,,61,92
645120,note_on,,,,,1920,0,4,,,,2,,,68,0
645120,note_on,,,,,192,0,16,,,,14,,,30,105
645120,note_on,,,,,12,0,12,,,,10,,,82,116
645120,note_on,,,,,0,0,6,,,,3,,,54,80
645120,note_on,,,,,0,0,6,,,,3,,,42,80
645120,note_on,,,,,0,0,6,,,,3,,,49,0
645120,note_on,,,,,1920,0,6,,,,3,,,61,0
645120,note_on,,,,,0,0,9,,,,5,,,64,92
645120,note_on,,,,,0,0,2,,,,0,,,85,92
645120,note_on,,,,,12,0,13,,,,11,,,73,105
645120,note_on,,,,,1920,0,2,,,,0,,,80,0
645120,note_on,,,,,64,0,15,,,,13,,,42,105
645120,note_on,,,,,0,0,3,,,,1,,,85,92
645120,note_on,,,,,1920,0,3,,,,1,,,80,0
645120,note_on,,,,,0,0,14,,,,12,,,64,92
645120,note_on,,,,,64,0,14,,,,12,,,61,92
645376,note_on,,,,,256,0,15,,,,13,,,42,0
645376,note_on,,,,,0,0,14,,,,12,,,61,0
645376,note_on,,,,,256,0,14,,,,12,,,64,0
645440,note_on,,,,,368,0,8,,,,4,,,64,92
645440,note_on,,,,,64,0,15,,,,13,,,54,105
645440,note_on,,,,,0,0,14,,,,12,,,73,92
645440,note_on,,,,,64,0,14,,,,12,,,64,92
645440,note_on,,,,,0,0,8,,,,4,,,66,92
645696,note_on,,,,,0,0,14,,,,12,,,64,0
645696,note_on,,,,,256,0,15,,,,13,,,54,0
645696,note_on,,,,,256,0,8,,,,4,,,66,0
645696,note_on,,,,,0,0,8,,,,4,,,64,0
645696,note_on,,,,,256,0,14,,,,12,,,73,0
645760,note_on,,,,,64,0,15,,,,13,,,54,105
645760,note_on,,,,,0,0,8,,,,4,,,64,92
645760,note_on,,,,,0,0,14,,,,12,,,73,92
645760,note_on,,,,,64,0,8,,,,4,,,66,92
645760,note_on,,,,,64,0,14,,,,12,,,64,92
645840,note_on,,,,,0,0,12,,,,10,,,80,116
645840,note_on,,,,,720,0,13,,,,11,,,73,0
645840,note_on,,,,,0,0,13,,,,11,,,71,105
645840,note_on,,,,,720,0,12,,,,10,,,82,0
645888,note_on,,,,,768,0,16,,,,14,,,30,0
645888,note_on,,,,,768,0,9,,,,5,,,64,0
645888,note_on,,,,,0,0,9,,,,5,,,61,0
646016,note_on,,,,,256,0,15,,,,13,,,54,0
646016,note_on,,,,,256,0,8,,,,4,,,64,0
646016,note_on,,,,,0,0,8,,,,4,,,66,0
646016,note_on,,,,,0,0,14,,,,12,,,64,0
646016,note_on,,,,,256,0,14,,,,12,,,73,0
646080,note_on,,,,,0,0,12,,,,10,,,78,116
646080,note_on,,,,,64,0,15,,,,13,,,54,105
646080,note_on,,,,,0,0,8,,,,4,,,66,92
646080,note_on,,,,,0,0,2,,,,0,,,76,92
646080,note_on,,,,,960,0,2,,,,0,,,85,0
646080,note_on,,,,,192,0,16,,,,14,,,42,105
646080,note_on,,,,,64,0,14,,,,12,,,73,92
646080,note_on,,,,,240,0,12,,,,10,,,80,0
646080,note_on,,,,,0,0,14,,,,12,,,64,92
646080,note_on,,,,,0,0,13,,,,11,,,70,105
646080,note_on,,,,,240,0,13,,,,11,,,71,0
646080,note_on,,,,,64,0,8,,,,4,,,64,92
646336,note_on,,,,,256,0,14,,,,12,,,64,0
646336,note_on,,,,,0,0,14,,,,12,,,73,0
646336,note_on,,,,,256,0,15,,,,13,,,54,0
646400,note_on,,,,,0,0,14,,,,12,,,64,92
646400,note_on,,,,,0,0,9,,,,5,,,61,92
646400,note_on,,,,,64,0,15,,,,13,,,42,105
646400,note_on,,,,,64,0,14,,,,12,,,70,92
646400,note_on,,,,,512,0,9,,,,5,,,54,92
646560,note_on,,,,,0,0,4,,,,2,,,73,92
646560,note_on,,,,,1440,0,4,,,,2,,,70,0
646560,note_on,,,,,0,0,1,,,,0,,,82,92
646560,note_on,,,,,3360,0,1,,,,0,,,88,0
646560,note_on,,,,,0,0,3,,,,1,,,82,92
646560,note_on,,,,,1440,0,3,,,,1,,,85,0
646656,note_on,,,,,256,0,15,,,,13,,,42,0
646656,note_on,,,,,0,0,9,,,,5,,,54,0
646656,note_on,,,,,256,0,9,,,,5,,,61,0
646656,note_on,,,,,0,0,14,,,,12,,,70,0
646656,note_on,,,,,256,0,14,,,,12,,,64,0
646720,note_on,,,,,0,0,14,,,,12,,,70,92
646720,note_on,,,,,64,0,9,,,,5,,,61,92
646720,note_on,,,,,0,0,9,,,,5,,,54,92
646720,note_on,,,,,64,0,15,,,,13,,,42,105
646720,note_on,,,,,64,0,14,,,,12,,,64,92
646800,note_on,,,,,720,0,12,,,,10,,,78,0
646800,note_on,,,,,0,0,12,,,,10,,,85,116
646800,note_on,,,,,720,0,13,,,,11,,,70,0
646800,note_on,,,,,0,0,13,,,,11,,,76,105
646848,note_on,,,,,768,0,16,,,,14,,,42,0
646976,note_on,,,,,256,0,9,,,,5,,,54,0
646976,note_on,,,,,256,0,15,,,,13,,,42,0
646976,note_on,,,,,0,0,9,,,,5,,,61,0
646976,note_on,,,,,0,0,14,,,,12,,,64,0
646976,note_on,,,,,256,0,14,,,,12,,,70,0
646992,note_on,,,,,912,0,2,,,,0,,,76,0
646992,note_on,,,,,0,0,8,,,,4,,,64,0
646992,note_on,,,,,912,0,8,,,,4,,,66,0
647016,note_on,,,,,456,0,4,,,,2,,,73,0
647016,note_on,,,,,0,0,4,,,,2,,,76,0
647016,note_on,,,,,456,0,1,,,,0,,,82,0
647016,note_on,,,,,0,0,3,,,,1,,,76,0
647016,note_on,,,,,456,0,3,,,,1,,,82,0
647028,note_on,,,,,228,0,13,,,,11,,,76,0
647028,note_on,,,,,228,0,12,,,,10,,,85,0
647040,note_on,,,,,64,0,15,,,,13,,,47,105
647040,note_on,,,,,0,0,9,,,,5,,,63,92
647040,note_on,,,,,24,0,4,,,,2,,,75,92
647040,note_on,,,,,126758,0,5,,,,2,,,71,80
647040,note_on,,,,,0,0,1,,,,0,,,83,80
647040,note_on,,,,,24,0,1,,,,0,,,75,80
647040,note_on,,,,,12,0,13,,,,11,,,75,109
647040,note_on,,,,,24,0,3,,,,1,,,75,70
647040,note_on,,,,,0,0,14,,,,12,,,63,92
647040,note_on,,,,,0,0,3,,,,1,,,78,70
647040,note_on,,,,,64,0,9,,,,5,,,54,92
647040,note_on,,,,,1920,0,6,,,,3,,,42,0
647040,note_on,,,,,64,0,14,,,,12,,,71,92
647040,note_on,,,,,192,0,16,,,,14,,,35,105
647040,note_on,,,,,12,0,12,,,,10,,,83,116
647040,note_on,,,,,0,0,6,,,,3,,,47,80
647296,note_on,,,,,256,0,14,,,,12,,,63,0
647296,note_on,,,,,256,0,15,,,,13,,,47,0
647296,note_on,,,,,0,0,14,,,,12,,,71,0
647360,note_on,,,,,64,0,15,,,,13,,,59,105
647360,note_on,,,,,0,0,14,,,,12,,,71,92
647360,note_on,,,,,64,0,14,,,,12,,,63,92
647360,note_on,,,,,368,0,8,,,,4,,,63,80
647360,note_on,,,,,0,0,8,,,,4,,,66,80
647520,set_tempo,,,,,4320,1,0,454545,,,,,,,
647520,note_on,,,,,480,0,3,,,,1,,,78,0
647520,note_on,,,,,0,0,3,,,,1,,,75,0
647520,note_on,,,,,0,0,5,,,,2,,,66,80
647520,note_on,,,,,480,0,5,,,,2,,,71,0
647616,note_on,,,,,256,0,8,,,,4,,,66,0
647616,note_on,,,,,0,0,14,,,,12,,,63,0
647616,note_on,,,,,256,0,14,,,,12,,,71,0
647616,note_on,,,,,256,0,15,,,,13,,,59,0
647616,note_on,,,,,0,0,8,,,,4,,,63,0
647680,note_on,,,,,64,0,8,,,,4,,,66,80
647680,note_on,,,,,0,0,8,,,,4,,,63,80
647680,note_on,,,,,0,0,14,,,,12,,,71,92
647680,note_on,,,,,64,0,14,,,,12,,,63,92
647680,note_on,,,,,64,0,15,,,,13,,,59,105
647760,note_on,,,,,0,0,12,,,,10,,,80,112
647760,note_on,,,,,0,0,13,,,,11,,,68,105
647760,note_on,,,,,720,0,13,,,,11,,,75,0
647760,note_on,,,,,720,0,12,,,,10,,,83,0
647808,note_on,,,,,768,0,9,,,,5,,,63,0
647808,note_on,,,,,0,0,9,,,,5,,,54,0
647936,note_on,,,,,256,0,14,,,,12,,,71,0
647936,note_on,,,,,0,0,14,,,,12,,,63,0
647936,note_on,,,,,256,0,15,,,,13,,,59,0
647936,note_on,,,,,256,0,8,,,,4,,,63,0
647936,note_on,,,,,0,0,8,,,,4,,,66,0
647988,note_on,,,,,228,0,13,,,,11,,,68,0
647988,note_on,,,,,228,0,12,,,,10,,,80,0
648000,note_on,,,,,0,0,8,,,,4,,,64,80
648000,note_on,,,,,0,0,1,,,,0,,,75,0
648000,note_on,,,,,0,0,1,,,,0,,,78,70
648000,note_on,,,,,0,0,1,,,,0,,,76,70
648000,note_on,,,,,64,0,8,,,,4,,,66,80
648000,note_on,,,,,960,0,1,,,,0,,,83,0
648000,note_on,,,,,480,0,5,,,,2,,,66,0
648000,note_on,,,,,12,0,13,,,,11,,,66,101
648000,note_on,,,,,0,0,5,,,,2,,,64,70
648000,set_tempo,,,,,480,1,0,465116,,,,,,,
648000,note_on,,,,,0,0,4,,,,2,,,70,70
648000,note_on,,,,,960,0,4,,,,2,,,75,0
648000,note_on,,,,,12,0,12,,,,10,,,78,105
648320,note_on,,,,,0,0,14,,,,12,,,64,80
648320,note_on,,,,,384,0,14,,,,12,,,70,80
648320,note_on,,,,,0,0,9,,,,5,,,61,80
648320,note_on,,,,,384,0,15,,,,13,,,47,92
648320,note_on,,,,,512,0,9,,,,5,,,54,80
648480,set_tempo,,,,,480,1,0,480000,,,,,,,
648576,note_on,,,,,256,0,15,,,,13,,,47,0
648576,note_on,,,,,0,0,14,,,,12,,,70,0
648576,note_on,,,,,256,0,14,,,,12,,,64,0
648576,note_on,,,,,0,0,9,,,,5,,,54,0
648576,note_on,,,,,256,0,9,,,,5,,,61,0
648640,note_on,,,,,0,0,9,,,,5,,,54,80
648640,note_on,,,,,64,0,14,,,,12,,,70,80
648640,note_on,,,,,64,0,15,,,,13,,,47,92
648640,note_on,,,,,64,0,9,,,,5,,,61,80
648640,note_on,,,,,0,0,14,,,,12,,,64,80
648720,note_on,,,,,720,0,13,,,,11,,,66,0
648720,note_on,,,,,0,0,13,,,,11,,,73,96
648864,note_on,,,,,1824,0,16,,,,14,,,35,0
648896,note_on,,,,,256,0,15,,,,13,,,47,0
648896,note_on,,,,,0,0,9,,,,5,,,61,0
648896,note_on,,,,,256,0,14,,,,12,,,64,0
648896,note_on,,,,,256,0,9,,,,5,,,54,0
648896,note_on,,,,,0,0,14,,,,12,,,70,0
648948,note_on,,,,,228,0,13,,,,11,,,73,0
648960,note_on,,,,,96,0,16,,,,14,,,35,70
648960,note_on,,,,,960,0,8,,,,4,,,64,0
648960,note_on,,,,,960,0,1,,,,0,,,76,0
648960,note_on,,,,,0,0,8,,,,4,,,63,70
648960,note_on,,,,,0,0,8,,,,4,,,66,70
648960,note_on,,,,,960,0,4,,,,2,,,70,0
648960,note_on,,,,,12,0,13,,,,11,,,71,92
648960,note_on,,,,,0,0,4,,,,2,,,71,70
648960,note_on,,,,,0,0,9,,,,5,,,63,70
648960,note_on,,,,,0,0,1,,,,0,,,75,63
648960,note_on,,,,,0,0,5,,,,2,,,63,63
648960,note_on,,,,,960,0,5,,,,2,,,64,0
648960,note_on,,,,,0,0,1,,,,0,,,78,63
648960,note_on,,,,,0,0,8,,,,4,,,66,0
648960,note_on,,,,,0,0,1,,,,0,,,78,0
648960,note_on,,,,,64,0,9,,,,5,,,54,70
648960,set_tempo,,,,,480,1,0,491803,,,,,,,
649280,note_on,,,,,384,0,14,,,,12,,,63,70
649280,note_on,,,,,384,0,15,,,,13,,,59,70
649280,note_on,,,,,0,0,14,,,,12,,,71,70
649344,note_on,,,,,384,0,9,,,,5,,,63,0
649344,note_on,,,,,0,0,9,,,,5,,,54,0
649344,note_on,,,,,384,0,8,,,,4,,,66,0
649344,note_on,,,,,0,0,8,,,,4,,,63,0
649416,note_on,,,,,2376,0,6,,,,3,,,47,0
649416,note_on,,,,,0,0,6,,,,3,,,54,0
649440,set_tempo,,,,,480,1,0,508475,,,,,,,
649440,note_on,,,,,480,0,4,,,,2,,,71,0
649440,note_on,,,,,0,0,4,,,,2,,,66,70
649536,note_on,,,,,0,0,14,,,,12,,,63,0
649536,note_on,,,,,256,0,15,,,,13,,,59,0
649536,note_on,,,,,256,0,14,,,,12,,,71,0
649600,note_on,,,,,64,0,14,,,,12,,,71,70
649600,note_on,,,,,0,0,14,,,,12,,,63,70
649600,note_on,,,,,64,0,15,,,,13,,,59,70
649680,note_on,,,,,0,0,12,,,,10,,,68,92
649680,note_on,,,,,1680,0,12,,,,10,,,78,0
649856,note_on,,,,,256,0,14,,,,12,,,63,0
649856,note_on,,,,,256,0,15,,,,13,,,59,0
649856,note_on,,,,,0,0,14,,,,12,,,71,0
649908,note_on,,,,,228,0,12,,,,10,,,68,0
649920,note_on,,,,,12,0,12,,,,10,,,66,80
649920,set_tempo,,,,,480,1,0,521739,,,,,,,
649920,note_on,,,,,0,0,9,,,,5,,,59,63
649920,note_on,,,,,576,0,9,,,,5,,,63,63
650240,note_on,,,,,384,0,15,,,,13,,,47,70
650240,note_on,,,,,384,0,14,,,,12,,,57,63
650304,note_on,,,,,384,0,9,,,,5,,,59,0
650304,note_on,,,,,0,0,9,,,,5,,,63,0
650328,note_on,,,,,1368,0,1,,,,0,,,78,0
650400,note_on,,,,,0,0,4,,,,2,,,67,63
650400,note_on,,,,,72,0,1,,,,0,,,79,63
650400,note_on,,,,,960,0,4,,,,2,,,66,0
650400,set_tempo,,,,,480,1,0,540541,,,,,,,
650496,note_on,,,,,256,0,14,,,,12,,,57,0
650496,note_on,,,,,256,0,15,,,,13,,,47,0
650560,note_on,,,,,64,0,14,,,,12,,,57,63
650560,note_on,,,,,64,0,15,,,,13,,,47,70
650604,note_on,,,,,1644,0,13,,,,11,,,71,0
650640,note_on,,,,,0,0,12,,,,10,,,67,80
650640,note_on,,,,,720,0,12,,,,10,,,66,0
650640,note_on,,,,,36,0,13,,,,11,,,63,77
650784,note_on,,,,,384,0,4,,,,2,,,67,0
650784,note_on,,,,,1824,0,16,,,,14,,,35,0
650816,note_on,,,,,256,0,15,,,,13,,,47,0
650816,note_on,,,,,256,0,14,,,,12,,,57,0
650856,note_on,,,,,456,0,1,,,,0,,,79,0
650856,note_on,,,,,0,0,1,,,,0,,,75,0
650868,note_on,,,,,228,0,13,,,,11,,,63,0
650868,note_on,,,,,228,0,12,,,,10,,,67,0
650880,note_on,,,,,1536,0,8,,,,4,,,68,70
650880,note_on,,,,,1920,0,5,,,,2,,,63,0
650880,set_tempo,,,,,480,1,0,428571,,,,,,,
650880,note_on,,,,,96,0,16,,,,14,,,40,63
650880,note_on,,,,,64,0,15,,,,13,,,52,63
650880,note_on,,,,,1464,0,6,,,,3,,,64,70
650880,note_on,,,,,0,0,6,,,,3,,,68,70
650880,note_on,,,,,3360,0,3,,,,1,,,80,80
651024,note_on,,,,,144,0,15,,,,13,,,52,0
651120,note_on,,,,,96,0,15,,,,13,,,52,63
651168,note_on,,,,,288,0,16,,,,14,,,40,0
651264,note_on,,,,,144,0,15,,,,13,,,52,0
651360,note_on,,,,,492,0,12,,,,10,,,68,63
651360,note_on,,,,,492,0,13,,,,11,,,64,63
651360,note_on,,,,,544,0,14,,,,12,,,56,63
651504,note_on,,,,,144,0,12,,,,10,,,68,0
651504,note_on,,,,,144,0,14,,,,12,,,56,0
651504,note_on,,,,,144,0,13,,,,11,,,64,0
651600,note_on,,,,,96,0,12,,,,10,,,68,63
651600,note_on,,,,,96,0,14,,,,12,,,56,63
651600,note_on,,,,,96,0,13,,,,11,,,64,63
651744,note_on,,,,,144,0,12,,,,10,,,68,0
651744,note_on,,,,,144,0,13,,,,11,,,64,0
651744,note_on,,,,,144,0,14,,,,12,,,56,0
651792,note_on,,,,,912,0,3,,,,1,,,80,0
651792,note_on,,,,,912,0,8,,,,4,,,68,0
651840,note_on,,,,,96,0,14,,,,12,,,54,63
651840,note_on,,,,,48,0,3,,,,1,,,81,80
651840,note_on,,,,,96,0,13,,,,11,,,63,63
651840,note_on,,,,,48,0,8,,,,4,,,69,70
651840,note_on,,,,,960,0,6,,,,3,,,68,0
651840,note_on,,,,,0,0,6,,,,3,,,64,0
651840,note_on,,,,,0,0,6,,,,3,,,63,70
651840,note_on,,,,,0,0,6,,,,3,,,66,70
651840,note_on,,,,,96,0,12,,,,10,,,66,63
651984,note_on,,,,,144,0,12,,,,10,,,66,0
651984,note_on,,,,,144,0,14,,,,12,,,54,0
651984,note_on,,,,,144,0,13,,,,11,,,63,0
652080,note_on,,,,,96,0,13,,,,11,,,63,63
652080,note_on,,,,,96,0,14,,,,12,,,54,63
652080,note_on,,,,,96,0,12,,,,10,,,66,63
652096,note_on,,,,,256,0,3,,,,1,,,81,0
652096,note_on,,,,,256,0,8,,,,4,,,69,0
652160,note_on,,,,,64,0,3,,,,1,,,82,80
652160,note_on,,,,,64,0,8,,,,4,,,70,70
652224,note_on,,,,,144,0,13,,,,11,,,63,0
652224,note_on,,,,,144,0,12,,,,10,,,66,0
652224,note_on,,,,,144,0,14,,,,12,,,54,0
652320,note_on,,,,,1152,0,16,,,,14,,,40,63
652320,note_on,,,,,1056,0,15,,,,13,,,52,63
652416,note_on,,,,,256,0,8,,,,4,,,70,0
652416,note_on,,,,,256,0,3,,,,1,,,82,0
652464,note_on,,,,,144,0,15,,,,13,,,52,0
652480,note_on,,,,,64,0,3,,,,1,,,83,80
652480,note_on,,,,,64,0,8,,,,4,,,71,70
652560,note_on,,,,,96,0,15,,,,13,,,52,63
652608,note_on,,,,,288,0,16,,,,14,,,40,0
652704,note_on,,,,,144,0,15,,,,13,,,52,0
652736,note_on,,,,,256,0,3,,,,1,,,83,0
652736,note_on,,,,,256,0,8,,,,4,,,71,0
652800,note_on,,,,,64,0,3,,,,1,,,83,80
652800,note_on,,,,,960,0,6,,,,3,,,66,0
652800,note_on,,,,,0,0,6,,,,3,,,63,0
652800,note_on,,,,,0,0,6,,,,3,,,61,70
652800,note_on,,,,,64,0,8,,,,4,,,71,70
652800,note_on,,,,,0,0,6,,,,3,,,64,70
652800,note_on,,,,,192,0,16,,,,14,,,40,63
652800,note_on,,,,,96,0,15,,,,13,,,52,63
652944,note_on,,,,,144,0,15,,,,13,,,52,0
653040,note_on,,,,,96,0,15,,,,13,,,52,63
653088,note_on,,,,,288,0,16,,,,14,,,40,0
653184,note_on,,,,,144,0,15,,,,13,,,52,0
653280,note_on,,,,,480,0,8,,,,4,,,71,0
653280,note_on,,,,,1056,0,14,,,,12,,,52,63
653280,note_on,,,,,480,0,3,,,,1,,,83,0
653280,note_on,,,,,0,0,3,,,,1,,,81,80
653280,note_on,,,,,1056,0,13,,,,11,,,61,63
653280,note_on,,,,,1056,0,12,,,,10,,,64,63
653280,note_on,,,,,0,0,8,,,,4,,,69,70
653424,note_on,,,,,144,0,12,,,,10,,,64,0
653424,note_on,,,,,144,0,14,,,,12,,,52,0
653424,note_on,,,,,144,0,13,,,,11,,,61,0
653520,note_on,,,,,96,0,14,,,,12,,,52,63
653520,note_on,,,,,96,0,12,,,,10,,,64,63
653520,note_on,,,,,96,0,13,,,,11,,,61,63
653664,note_on,,,,,144,0,13,,,,11,,,61,0
653664,note_on,,,,,144,0,14,,,,12,,,52,0
653664,note_on,,,,,144,0,12,,,,10,,,64,0
653760,note_on,,,,,96,0,14,,,,12,,,51,63
653760,note_on,,,,,0,0,6,,,,3,,,61,0
653760,note_on,,,,,96,0,12,,,,10,,,63,63
653760,note_on,,,,,96,0,13,,,,11,,,59,63
653760,note_on,,,,,0,0,6,,,,3,,,63,70
653760,note_on,,,,,0,0,6,,,,3,,,59,70
653760,note_on,,,,,960,0,6,,,,3,,,64,0
653904,note_on,,,,,144,0,14,,,,12,,,51,0
653904,note_on,,,,,144,0,13,,,,11,,,59,0
653904,note_on,,,,,144,0,12,,,,10,,,63,0
654000,note_on,,,,,96,0,14,,,,12,,,51,63
654000,note_on,,,,,96,0,13,,,,11,,,59,63
654000,note_on,,,,,96,0,12,,,,10,,,63,63
654144,note_on,,,,,144,0,14,,,,12,,,51,0
654144,note_on,,,,,144,0,13,,,,11,,,59,0
654144,note_on,,,,,144,0,12,,,,10,,,63,0
654240,note_on,,,,,960,0,3,,,,1,,,81,0
654240,note_on,,,,,0,0,3,,,,1,,,80,80
654240,note_on,,,,,1056,0,15,,,,13,,,40,63
654240,note_on,,,,,960,0,8,,,,4,,,69,0
654240,note_on,,,,,1152,0,16,,,,14,,,28,63
654240,note_on,,,,,0,0,8,,,,4,,,68,70
654384,note_on,,,,,144,0,15,,,,13,,,40,0
654480,note_on,,,,,96,0,15,,,,13,,,40,63
654528,note_on,,,,,288,0,16,,,,14,,,28,0
654624,note_on,,,,,144,0,15,,,,13,,,40,0
654672,note_on,,,,,912,0,6,,,,3,,,63,0
654672,note_on,,,,,0,0,6,,,,3,,,59,0
654696,note_on,,,,,456,0,8,,,,4,,,68,0
654696,note_on,,,,,456,0,3,,,,1,,,80,0
654720,note_on,,,,,48,0,6,,,,3,,,57,70
654720,note_on,,,,,96,0,15,,,,13,,,45,63
654720,note_on,,,,,192,0,16,,,,14,,,33,63
654720,note_on,,,,,24,0,3,,,,1,,,77,80
654720,note_on,,,,,0,0,6,,,,3,,,61,70
654720,note_on,,,,,24,0,8,,,,4,,,65,70
654864,note_on,,,,,144,0,15,,,,13,,,45,0
654960,note_on,,,,,96,0,15,,,,13,,,45,63
655008,note_on,,,,,288,0,16,,,,14,,,33,0
655104,note_on,,,,,144,0,15,,,,13,,,45,0
655200,note_on,,,,,1056,0,14,,,,12,,,49,63
655200,note_on,,,,,1056,0,13,,,,11,,,57,63
655200,note_on,,,,,1056,0,12,,,,10,,,61,63
655344,note_on,,,,,144,0,13,,,,11,,,57,0
655344,note_on,,,,,144,0,14,,,,12,,,49,0
655344,note_on,,,,,144,0,12,,,,10,,,61,0
655440,note_on,,,,,96,0,13,,,,11,,,57,63
655440,note_on,,,,,96,0,14,,,,12,,,49,63
655440,note_on,,,,,96,0,12,,,,10,,,61,63
655584,note_on,,,,,144,0,13,,,,11,,,57,0
655584,note_on,,,,,144,0,12,,,,10,,,61,0
655584,note_on,,,,,144,0,14,,,,12,,,49,0
655632,note_on,,,,,912,0,3,,,,1,,,77,0
655632,note_on,,,,,912,0,8,,,,4,,,65,0
655680,note_on,,,,,48,0,3,,,,1,,,78,80
655680,note_on,,,,,0,0,6,,,,3,,,60,70
655680,note_on,,,,,96,0,12,,,,10,,,60,63
655680,note_on,,,,,960,0,6,,,,3,,,61,0
655680,note_on,,,,,48,0,8,,,,4,,,66,70
655680,note_on,,,,,96,0,13,,,,11,,,57,63
655680,note_on,,,,,96,0,14,,,,12,,,48,63
655824,note_on,,,,,144,0,13,,,,11,,,57,0
655824,note_on,,,,,144,0,12,,,,10,,,60,0
655824,note_on,,,,,144,0,14,,,,12,,,48,0
655920,note_on,,,,,96,0,12,,,,10,,,60,63
655920,note_on,,,,,96,0,14,,,,12,,,48,63
655920,note_on,,,,,96,0,13,,,,11,,,57,63
655936,note_on,,,,,256,0,3,,,,1,,,78,0
655936,note_on,,,,,256,0,8,,,,4,,,66,0
656000,note_on,,,,,64,0,3,,,,1,,,80,80
656000,note_on,,,,,64,0,8,,,,4,,,68,70
656064,note_on,,,,,144,0,14,,,,12,,,48,0
656064,note_on,,,,,144,0,13,,,,11,,,57,0
656064,note_on,,,,,144,0,12,,,,10,,,60,0
656160,note_on,,,,,1056,0,15,,,,13,,,42,63
656160,note_on,,,,,1152,0,16,,,,14,,,30,63
656256,note_on,,,,,256,0,3,,,,1,,,80,0
656256,note_on,,,,,256,0,8,,,,4,,,68,0
656304,note_on,,,,,144,0,15,,,,13,,,42,0
656320,note_on,,,,,64,0,3,,,,1,,,81,80
656320,note_on,,,,,64,0,8,,,,4,,,69,70
656400,note_on,,,,,96,0,15,,,,13,,,42,63
656448,note_on,,,,,288,0,16,,,,14,,,30,0
656544,note_on,,,,,144,0,15,,,,13,,,42,0
656576,note_on,,,,,256,0,3,,,,1,,,81,0
656576,note_on,,,,,256,0,8,,,,4,,,69,0
656640,note_on,,,,,960,0,6,,,,3,,,60,0
656640,note_on,,,,,0,0,6,,,,3,,,59,63
656640,note_on,,,,,192,0,16,,,,14,,,33,63
656640,note_on,,,,,0,0,6,,,,3,,,54,63
656640,note_on,,,,,96,0,15,,,,13,,,45,63
656640,note_on,,,,,64,0,3,,,,1,,,75,70
656640,note_on,,,,,64,0,8,,,,4,,,63,63
656640,note_on,,,,,0,0,6,,,,3,,,57,0
656784,note_on,,,,,144,0,15,,,,13,,,45,0
656880,note_on,,,,,96,0,15,,,,13,,,45,63
656928,note_on,,,,,288,0,16,,,,14,,,33,0
657024,note_on,,,,,144,0,15,,,,13,,,45,0
657120,note_on,,,,,1056,0,12,,,,10,,,59,63
657120,note_on,,,,,1056,0,14,,,,12,,,54,63
657264,note_on,,,,,144,0,12,,,,10,,,59,0
657264,note_on,,,,,144,0,14,,,,12,,,54,0
657360,note_on,,,,,96,0,12,,,,10,,,59,63
657360,note_on,,,,,96,0,14,,,,12,,,54,63
657504,note_on,,,,,144,0,12,,,,10,,,59,0
657504,note_on,,,,,144,0,14,,,,12,,,54,0
657552,note_on,,,,,912,0,8,,,,4,,,63,0
657552,note_on,,,,,912,0,3,,,,1,,,75,0
657600,note_on,,,,,48,0,8,,,,4,,,64,63
657600,note_on,,,,,48,0,3,,,,1,,,76,70
657600,note_on,,,,,6744,0,1,,,,0,,,76,70
657600,note_on,,,,,96,0,12,,,,10,,,59,63
657600,note_on,,,,,96,0,14,,,,12,,,52,63
657600,note_on,,,,,960,0,6,,,,3,,,54,0
657600,note_on,,,,,0,0,6,,,,3,,,52,63
657600,note_on,,,,,6816,0,4,,,,2,,,64,70
657744,note_on,,,,,144,0,12,,,,10,,,59,0
657744,note_on,,,,,144,0,14,,,,12,,,52,0
657840,note_on,,,,,96,0,12,,,,10,,,59,63
657840,note_on,,,,,96,0,14,,,,12,,,52,63
657856,note_on,,,,,256,0,4,,,,2,,,64,0
657856,note_on,,,,,256,0,1,,,,0,,,76,0
657920,note_on,,,,,64,0,1,,,,0,,,80,80
657920,note_on,,,,,64,0,4,,,,2,,,68,80
657984,note_on,,,,,144,0,12,,,,10,,,59,0
657984,note_on,,,,,144,0,14,,,,12,,,52,0
658080,note_on,,,,,1152,0,16,,,,14,,,32,63
658080,note_on,,,,,1056,0,15,,,,13,,,44,63
658176,note_on,,,,,256,0,4,,,,2,,,68,0
658176,note_on,,,,,256,0,1,,,,0,,,80,0
658224,note_on,,,,,144,0,15,,,,13,,,44,0
658240,note_on,,,,,64,0,4,,,,2,,,71,80
658240,note_on,,,,,64,0,1,,,,0,,,83,80
658320,note_on,,,,,96,0,15,,,,13,,,44,63
658368,note_on,,,,,288,0,16,,,,14,,,32,0
658464,note_on,,,,,144,0,15,,,,13,,,44,0
658496,note_on,,,,,256,0,1,,,,0,,,83,0
658496,note_on,,,,,256,0,4,,,,2,,,71,0
658512,note_on,,,,,912,0,6,,,,3,,,52,0
658512,note_on,,,,,0,0,6,,,,3,,,59,0
658512,note_on,,,,,912,0,3,,,,1,,,76,0
658512,note_on,,,,,912,0,8,,,,4,,,64,0
658560,note_on,,,,,48,0,6,,,,3,,,64,80
658560,note_on,,,,,192,0,16,,,,14,,,31,63
658560,note_on,,,,,96,0,15,,,,13,,,43,63
658560,note_on,,,,,64,0,4,,,,2,,,76,80
658560,note_on,,,,,64,0,1,,,,0,,,88,80
658704,note_on,,,,,144,0,15,,,,13,,,43,0
658800,note_on,,,,,96,0,15,,,,13,,,43,63
658848,note_on,,,,,288,0,16,,,,14,,,31,0
658944,note_on,,,,,144,0,15,,,,13,,,43,0
659040,note_on,,,,,1056,0,12,,,,10,,,59,63
659040,note_on,,,,,1056,0,14,,,,12,,,52,63
659184,note_on,,,,,144,0,14,,,,12,,,52,0
659184,note_on,,,,,144,0,12,,,,10,,,59,0
659280,note_on,,,,,720,0,4,,,,2,,,76,0
659280,note_on,,,,,96,0,14,,,,12,,,52,63
659280,note_on,,,,,0,0,1,,,,0,,,86,80
659280,note_on,,,,,96,0,12,,,,10,,,59,63
659280,note_on,,,,,720,0,1,,,,0,,,88,0
659280,note_on,,,,,0,0,6,,,,3,,,62,80
659280,note_on,,,,,720,0,6,,,,3,,,64,0
659280,note_on,,,,,0,0,4,,,,2,,,74,80
659424,note_on,,,,,144,0,12,,,,10,,,59,0
659424,note_on,,,,,144,0,14,,,,12,,,52,0
659520,note_on,,,,,240,0,4,,,,2,,,74,0
659520,note_on,,,,,12528,0,2,,,,0,,,76,63
659520,note_on,,,,,0,0,4,,,,2,,,73,70
659520,note_on,,,,,8640,0,5,,,,2,,,64,63
659520,note_on,,,,,96,0,14,,,,12,,,52,63
659520,note_on,,,,,0,0,1,,,,0,,,85,70
659520,note_on,,,,,1008,0,8,,,,4,,,64,63
659520,note_on,,,,,240,0,6,,,,3,,,62,0
659520,note_on,,,,,240,0,1,,,,0,,,86,0
659520,note_on,,,,,0,0,6,,,,3,,,61,70
659520,note_on,,,,,0,0,8,,,,4,,,55,63
659520,note_on,,,,,16344,0,7,,,,3,,,55,63
659520,note_on,,,,,96,0,12,,,,10,,,64,63
659664,note_on,,,,,144,0,12,,,,10,,,64,0
659664,note_on,,,,,144,0,14,,,,12,,,52,0
659760,note_on,,,,,96,0,12,,,,10,,,64,63
659760,note_on,,,,,96,0,14,,,,12,,,52,63
659904,note_on,,,,,144,0,14,,,,12,,,52,0
659904,note_on,,,,,144,0,12,,,,10,,,64,0
660000,note_on,,,,,1056,0,15,,,,13,,,52,63
660000,note_on,,,,,1152,0,16,,,,14,,,40,63
660144,note_on,,,,,144,0,15,,,,13,,,52,0
660240,note_on,,,,,96,0,15,,,,13,,,52,63
660240,note_on,,,,,0,0,1,,,,0,,,83,70
660240,note_on,,,,,720,0,4,,,,2,,,73,0
660240,note_on,,,,,0,0,4,,,,2,,,71,70
660240,note_on,,,,,0,0,6,,,,3,,,59,70
660240,note_on,,,,,720,0,6,,,,3,,,61,0
660240,note_on,,,,,720,0,1,,,,0,,,85,0
660288,note_on,,,,,288,0,16,,,,14,,,40,0
660384,note_on,,,,,144,0,15,,,,13,,,52,0
660480,note_on,,,,,960,0,7,,,,3,,,55,0
660480,note_on,,,,,240,0,1,,,,0,,,83,0
660480,note_on,,,,,192,0,16,,,,14,,,37,63
660480,note_on,,,,,0,0,1,,,,0,,,81,70
660480,note_on,,,,,960,0,8,,,,4,,,55,0
660480,note_on,,,,,0,0,8,,,,4,,,59,63
660480,note_on,,,,,0,0,4,,,,2,,,69,70
660480,note_on,,,,,240,0,4,,,,2,,,71,0
660480,note_on,,,,,96,0,15,,,,13,,,49,63
660480,note_on,,,,,0,0,6,,,,3,,,57,70
660480,note_on,,,,,240,0,6,,,,3,,,59,0
660624,note_on,,,,,144,0,15,,,,13,,,49,0
660720,note_on,,,,,96,0,15,,,,13,,,49,63
660768,note_on,,,,,288,0,16,,,,14,,,37,0
660864,note_on,,,,,144,0,15,,,,13,,,49,0
660960,note_on,,,,,1056,0,12,,,,10,,,59,63
660960,note_on,,,,,1056,0,14,,,,12,,,52,63
661104,note_on,,,,,144,0,14,,,,12,,,52,0
661104,note_on,,,,,144,0,12,,,,10,,,59,0
661200,note_on,,,,,96,0,14,,,,12,,,52,63
661200,note_on,,,,,720,0,6,,,,3,,,57,0
661200,note_on,,,,,720,0,1,,,,0,,,81,0
661200,note_on,,,,,720,0,4,,,,2,,,69,0
661200,note_on,,,,,0,0,4,,,,2,,,67,70
661200,note_on,,,,,0,0,1,,,,0,,,79,70
661200,note_on,,,,,96,0,12,,,,10,,,59,63
661200,note_on,,,,,0,0,6,,,,3,,,55,70
661344,note_on,,,,,144,0,12,,,,10,,,59,0
661344,note_on,,,,,144,0,14,,,,12,,,52,0
661440,note_on,,,,,240,0,1,,,,0,,,79,0
661440,note_on,,,,,96,0,12,,,,10,,,58,63
661440,note_on,,,,,0,0,8,,,,4,,,58,63
661440,note_on,,,,,0,0,8,,,,4,,,61,63
661440,note_on,,,,,960,0,8,,,,4,,,59,0
661440,note_on,,,,,0,0,8,,,,4,,,64,0
661440,note_on,,,,,240,0,4,,,,2,,,67,0
661440,note_on,,,,,960,0,7,,,,3,,,58,63
661440,note_on,,,,,0,0,5,,,,2,,,61,63
661440,note_on,,,,,1920,0,5,,,,2,,,64,0
661440,note_on,,,,,0,0,1,,,,0,,,78,70
661440,note_on,,,,,0,0,4,,,,2,,,66,70
661440,note_on,,,,,1920,0,2,,,,0,,,76,0
661440,note_on,,,,,0,0,2,,,,0,,,73,63
661440,note_on,,,,,240,0,6,,,,3,,,55,0
661440,note_on,,,,,0,0,6,,,,3,,,54,70
661440,note_on,,,,,96,0,14,,,,12,,,49,63
661584,note_on,,,,,144,0,12,,,,10,,,58,0
661584,note_on,,,,,144,0,14,,,,12,,,49,0
661680,note_on,,,,,96,0,12,,,,10,,,58,63
661680,note_on,,,,,96,0,14,,,,12,,,49,63
661824,note_on,,,,,384,0,8,,,,4,,,61,0
661824,note_on,,,,,0,0,8,,,,4,,,58,0
661824,note_on,,,,,144,0,14,,,,12,,,49,0
661824,note_on,,,,,144,0,12,,,,10,,,58,0
661920,note_on,,,,,1056,0,15,,,,13,,,42,63
661920,note_on,,,,,1152,0,16,,,,14,,,30,63
662064,note_on,,,,,144,0,15,,,,13,,,42,0
662160,note_on,,,,,96,0,15,,,,13,,,42,63
662160,note_on,,,,,0,0,1,,,,0,,,85,70
662160,note_on,,,,,720,0,1,,,,0,,,78,0
662160,note_on,,,,,720,0,4,,,,2,,,66,0
662160,note_on,,,,,0,0,4,,,,2,,,73,70
662160,note_on,,,,,720,0,6,,,,3,,,54,0
662160,note_on,,,,,0,0,6,,,,3,,,61,70
662208,note_on,,,,,768,0,7,,,,3,,,58,0
662208,note_on,,,,,288,0,16,,,,14,,,30,0
662208,note_on,,,,,768,0,2,,,,0,,,73,0
662208,note_on,,,,,768,0,5,,,,2,,,61,0
662304,note_on,,,,,144,0,15,,,,13,,,42,0
662352,note_on,,,,,192,0,1,,,,0,,,85,0
662352,note_on,,,,,192,0,6,,,,3,,,61,0
662352,note_on,,,,,192,0,4,,,,2,,,73,0
662400,note_on,,,,,48,0,4,,,,2,,,78,70
662400,note_on,,,,,96,0,15,,,,13,,,45,63
662400,note_on,,,,,192,0,16,,,,14,,,33,63
662400,note_on,,,,,48,0,1,,,,0,,,90,70
662400,note_on,,,,,48,0,6,,,,3,,,66,70
662544,note_on,,,,,144,0,15,,,,13,,,45,0
662640,note_on,,,,,96,0,15,,,,13,,,45,63
662688,note_on,,,,,288,0,16,,,,14,,,33,0
662784,note_on,,,,,144,0,15,,,,13,,,45,0
662880,note_on,,,,,1056,0,14,,,,12,,,54,63
662880,note_on,,,,,1056,0,12,,,,10,,,61,63
663024,note_on,,,,,144,0,14,,,,12,,,54,0
663024,note_on,,,,,144,0,12,,,,10,,,61,0
663120,note_on,,,,,0,0,4,,,,2,,,76,70
663120,note_on,,,,,720,0,4,,,,2,,,78,0
663120,note_on,,,,,96,0,14,,,,12,,,54,63
663120,note_on,,,,,720,0,6,,,,3,,,66,0
663120,note_on,,,,,0,0,6,,,,3,,,64,70
663120,note_on,,,,,96,0,12,,,,10,,,61,63
663120,note_on,,,,,0,0,1,,,,0,,,88,70
663120,note_on,,,,,720,0,1,,,,0,,,90,0
663264,note_on,,,,,144,0,12,,,,10,,,61,0
663264,note_on,,,,,144,0,14,,,,12,,,54,0
663360,note_on,,,,,96,0,14,,,,12,,,54,63
663360,note_on,,,,,1152,0,2,,,,0,,,78,63
663360,note_on,,,,,1152,0,7,,,,3,,,57,63
663360,note_on,,,,,0,0,1,,,,0,,,87,70
663360,note_on,,,,,240,0,4,,,,2,,,76,0
663360,note_on,,,,,240,0,1,,,,0,,,88,0
663360,note_on,,,,,0,0,6,,,,3,,,63,70
663360,note_on,,,,,240,0,6,,,,3,,,64,0
663360,note_on,,,,,1152,0,5,,,,2,,,66,63
663360,note_on,,,,,0,0,4,,,,2,,,75,70
663360,note_on,,,,,96,0,12,,,,10,,,66,63
663504,note_on,,,,,144,0,12,,,,10,,,66,0
663504,note_on,,,,,144,0,14,,,,12,,,54,0
663600,note_on,,,,,96,0,12,,,,10,,,66,63
663600,note_on,,,,,96,0,14,,,,12,,,54,63
663744,note_on,,,,,144,0,12,,,,10,,,66,0
663744,note_on,,,,,144,0,14,,,,12,,,54,0
663840,note_on,,,,,1152,0,16,,,,14,,,42,63
663840,note_on,,,,,1056,0,15,,,,13,,,54,63
663984,note_on,,,,,144,0,15,,,,13,,,54,0
664080,note_on,,,,,96,0,15,,,,13,,,54,63
664080,note_on,,,,,0,0,4,,,,2,,,73,70
664080,note_on,,,,,0,0,1,,,,0,,,85,70
664080,note_on,,,,,720,0,1,,,,0,,,87,0
664080,note_on,,,,,720,0,6,,,,3,,,63,0
664080,note_on,,,,,0,0,6,,,,3,,,61,70
664080,note_on,,,,,720,0,4,,,,2,,,75,0
664128,note_on,,,,,288,0,16,,,,14,,,42,0
664224,note_on,,,,,144,0,15,,,,13,,,54,0
664320,note_on,,,,,240,0,1,,,,0,,,85,0
664320,note_on,,,,,0,0,1,,,,0,,,83,63
664320,note_on,,,,,96,0,15,,,,13,,,51,63
664320,note_on,,,,,0,0,7,,,,3,,,61,63
664320,note_on,,,,,960,0,7,,,,3,,,57,0
664320,note_on,,,,,0,0,4,,,,2,,,71,63
664320,note_on,,,,,192,0,16,,,,14,,,39,63
664320,note_on,,,,,240,0,4,,,,2,,,73,0
664320,note_on,,,,,240,0,6,,,,3,,,61,0
664320,note_on,,,,,0,0,6,,,,3,,,59,63
664464,note_on,,,,,144,0,15,,,,13,,,51,0
664560,note_on,,,,,96,0,15,,,,13,,,51,63
664608,note_on,,,,,288,0,16,,,,14,,,39,0
664704,note_on,,,,,144,0,15,,,,13,,,51,0
664800,note_on,,,,,1056,0,14,,,,12,,,54,63
664800,note_on,,,,,1056,0,12,,,,10,,,61,63
664944,note_on,,,,,144,0,12,,,,10,,,61,0
664944,note_on,,,,,144,0,14,,,,12,,,54,0
665040,note_on,,,,,720,0,6,,,,3,,,59,0
665040,note_on,,,,,0,0,6,,,,3,,,57,63
665040,note_on,,,,,720,0,4,,,,2,,,71,0
665040,note_on,,,,,0,0,4,,,,2,,,69,63
665040,note_on,,,,,0,0,1,,,,0,,,81,63
665040,note_on,,,,,720,0,1,,,,0,,,83,0
665040,note_on,,,,,96,0,12,,,,10,,,61,63
665040,note_on,,,,,96,0,14,,,,12,,,54,63
665184,note_on,,,,,144,0,12,,,,10,,,61,0
665184,note_on,,,,,144,0,14,,,,12,,,54,0
665280,note_on,,,,,240,0,6,,,,3,,,57,0
665280,note_on,,,,,0,0,5,,,,2,,,63,63
665280,note_on,,,,,240,0,4,,,,2,,,69,0
665280,note_on,,,,,0,0,6,,,,3,,,56,63
665280,note_on,,,,,1920,0,5,,,,2,,,66,0
665280,note_on,,,,,96,0,12,,,,10,,,60,63
665280,note_on,,,,,1920,0,2,,,,0,,,78,0
665280,note_on,,,,,0,0,2,,,,0,,,75,63
665280,note_on,,,,,0,0,1,,,,0,,,80,63
665280,note_on,,,,,240,0,1,,,,0,,,81,0
665280,note_on,,,,,0,0,4,,,,2,,,68,63
665280,note_on,,,,,3456,0,8,,,,4,,,68,63
665280,note_on,,,,,96,0,14,,,,12,,,51,63
665280,note_on,,,,,0,0,7,,,,3,,,60,63
665280,note_on,,,,,960,0,7,,,,3,,,61,0
665280,note_on,,,,,6768,0,3,,,,1,,,80,70
665424,note_on,,,,,144,0,14,,,,12,,,51,0
665424,note_on,,,,,144,0,12,,,,10,,,60,0
665520,note_on,,,,,96,0,12,,,,10,,,60,63
665520,note_on,,,,,96,0,14,,,,12,,,51,63
665664,note_on,,,,,144,0,14,,,,12,,,51,0
665664,note_on,,,,,144,0,12,,,,10,,,60,0
665664,note_on,,,,,384,0,6,,,,3,,,56,0
665736,note_on,,,,,456,0,4,,,,2,,,68,0
665736,note_on,,,,,456,0,1,,,,0,,,80,0
665760,note_on,,,,,1152,0,16,,,,14,,,42,63
665760,note_on,,,,,1056,0,15,,,,13,,,54,63
665904,note_on,,,,,144,0,15,,,,13,,,54,0
666000,note_on,,,,,0,0,8,,,,4,,,69,63
666000,note_on,,,,,720,0,8,,,,4,,,68,0
666000,note_on,,,,,720,0,3,,,,1,,,80,0
666000,note_on,,,,,0,0,3,,,,1,,,81,70
666000,note_on,,,,,96,0,15,,,,13,,,54,63
666048,note_on,,,,,288,0,16,,,,14,,,42,0
666144,note_on,,,,,144,0,15,,,,13,,,54,0
666192,note_on,,,,,912,0,5,,,,2,,,63,0
666192,note_on,,,,,912,0,2,,,,0,,,75,0
666240,end_of_track,,,,,0,1,7,,,,,,,,
666240,note_on,,,,,0,0,8,,,,4,,,68,63
666240,note_on,,,,,240,0,8,,,,4,,,69,0
666240,note_on,,,,,504,0,4,,,,2,,,73,63
666240,note_on,,,,,48,0,5,,,,2,,,61,63
666240,note_on,,,,,96,0,15,,,,13,,,53,63
666240,note_on,,,,,192,0,16,,,,14,,,41,63
666240,note_on,,,,,240,0,3,,,,1,,,81,0
666240,note_on,,,,,960,0,7,,,,3,,,60,0
666240,note_on,,,,,576,0,6,,,,3,,,56,70
666240,note_on,,,,,0,0,3,,,,1,,,80,70
666240,note_on,,,,,504,0,1,,,,0,,,80,70
666384,note_on,,,,,144,0,15,,,,13,,,53,0
666480,note_on,,,,,96,0,15,,,,13,,,53,63
666528,note_on,,,,,288,0,16,,,,14,,,41,0
666624,note_on,,,,,144,0,15,,,,13,,,53,0
666624,note_on,,,,,384,0,8,,,,4,,,68,0
666624,note_on,,,,,384,0,3,,,,1,,,80,0
666720,note_on,,,,,1056,0,14,,,,12,,,49,63
666720,note_on,,,,,1056,0,12,,,,10,,,61,63
666864,note_on,,,,,144,0,14,,,,12,,,49,0
666864,note_on,,,,,144,0,12,,,,10,,,61,0
666960,note_on,,,,,96,0,14,,,,12,,,49,63
666960,note_on,,,,,0,0,6,,,,3,,,57,70
666960,note_on,,,,,0,0,1,,,,0,,,81,70
666960,note_on,,,,,96,0,12,,,,10,,,61,63
666960,note_on,,,,,720,0,6,,,,3,,,56,0
666960,note_on,,,,,720,0,1,,,,0,,,80,0
667104,note_on,,,,,144,0,12,,,,10,,,61,0
667104,note_on,,,,,144,0,14,,,,12,,,49,0
667200,note_on,,,,,0,0,4,,,,2,,,71,63
667200,note_on,,,,,576,0,3,,,,1,,,80,70
667200,note_on,,,,,960,0,4,,,,2,,,73,0
667200,note_on,,,,,0,0,1,,,,0,,,80,70
667200,note_on,,,,,240,0,1,,,,0,,,81,0
667200,note_on,,,,,576,0,8,,,,4,,,68,63
667200,note_on,,,,,96,0,12,,,,10,,,59,63
667200,note_on,,,,,240,0,6,,,,3,,,57,0
667200,note_on,,,,,0,0,6,,,,3,,,56,70
667200,note_on,,,,,96,0,14,,,,12,,,49,63
667344,note_on,,,,,144,0,14,,,,12,,,49,0
667344,note_on,,,,,144,0,12,,,,10,,,59,0
667440,note_on,,,,,96,0,14,,,,12,,,49,63
667440,note_on,,,,,96,0,12,,,,10,,,59,63
667584,note_on,,,,,384,0,6,,,,3,,,56,0
667584,note_on,,,,,144,0,12,,,,10,,,59,0
667584,note_on,,,,,144,0,14,,,,12,,,49,0
667584,note_on,,,,,384,0,1,,,,0,,,80,0
667680,note_on,,,,,1152,0,16,,,,14,,,37,63
667680,note_on,,,,,1056,0,15,,,,13,,,49,63
667824,note_on,,,,,144,0,15,,,,13,,,49,0
667920,note_on,,,,,720,0,8,,,,4,,,68,0
667920,note_on,,,,,0,0,8,,,,4,,,69,63
667920,note_on,,,,,96,0,15,,,,13,,,49,63
667920,note_on,,,,,0,0,3,,,,1,,,81,70
667920,note_on,,,,,720,0,3,,,,1,,,80,0
667968,note_on,,,,,288,0,16,,,,14,,,37,0
668064,note_on,,,,,144,0,15,,,,13,,,49,0
668160,note_on,,,,,576,0,1,,,,0,,,78,70
668160,note_on,,,,,0,0,3,,,,1,,,78,70
668160,note_on,,,,,240,0,3,,,,1,,,81,0
668160,note_on,,,,,576,0,6,,,,3,,,54,70
668160,note_on,,,,,192,0,16,,,,14,,,42,63
668160,note_on,,,,,96,0,15,,,,13,,,54,63
668160,note_on,,,,,960,0,4,,,,2,,,71,0
668160,note_on,,,,,0,0,8,,,,4,,,66,63
668160,note_on,,,,,0,0,4,,,,2,,,70,63
668160,note_on,,,,,240,0,8,,,,4,,,69,0
668304,note_on,,,,,144,0,15,,,,13,,,54,0
668400,note_on,,,,,96,0,15,,,,13,,,54,63
668448,note_on,,,,,288,0,16,,,,14,,,42,0
668544,note_on,,,,,384,0,8,,,,4,,,66,0
668544,note_on,,,,,144,0,15,,,,13,,,54,0
668544,note_on,,,,,384,0,3,,,,1,,,78,0
668640,note_on,,,,,1056,0,12,,,,10,,,58,63
668640,note_on,,,,,1056,0,14,,,,12,,,49,63
668784,note_on,,,,,144,0,12,,,,10,,,58,0
668784,note_on,,,,,144,0,14,,,,12,,,49,0
668880,note_on,,,,,0,0,6,,,,3,,,56,70
668880,note_on,,,,,720,0,6,,,,3,,,54,0
668880,note_on,,,,,96,0,14,,,,12,,,49,63
668880,note_on,,,,,96,0,12,,,,10,,,58,63
668880,note_on,,,,,720,0,1,,,,0,,,78,0
668880,note_on,,,,,0,0,1,,,,0,,,80,70
669024,note_on,,,,,144,0,14,,,,12,,,49,0
669024,note_on,,,,,144,0,12,,,,10,,,58,0
669120,note_on,,,,,96,0,14,,,,12,,,58,63
669120,note_on,,,,,240,0,6,,,,3,,,56,0
669120,note_on,,,,,0,0,6,,,,3,,,54,70
669120,note_on,,,,,96,0,12,,,,10,,,61,63
669120,note_on,,,,,240,0,1,,,,0,,,80,0
669120,note_on,,,,,576,0,8,,,,4,,,66,63
669120,note_on,,,,,576,0,3,,,,1,,,78,70
669120,note_on,,,,,0,0,1,,,,0,,,78,70
669264,note_on,,,,,144,0,14,,,,12,,,58,0
669264,note_on,,,,,144,0,12,,,,10,,,61,0
669360,note_on,,,,,96,0,12,,,,10,,,61,63
669360,note_on,,,,,96,0,14,,,,12,,,58,63
669504,note_on,,,,,144,0,12,,,,10,,,61,0
669504,note_on,,,,,384,0,6,,,,3,,,54,0
669504,note_on,,,,,384,0,1,,,,0,,,78,0
669504,note_on,,,,,144,0,14,,,,12,,,58,0
669600,note_on,,,,,1152,0,16,,,,14,,,40,63
669600,note_on,,,,,1056,0,15,,,,13,,,52,63
669744,note_on,,,,,144,0,15,,,,13,,,52,0
669840,note_on,,,,,720,0,3,,,,1,,,78,0
669840,note_on,,,,,720,0,8,,,,4,,,66,0
669840,note_on,,,,,0,0,8,,,,4,,,68,63
669840,note_on,,,,,0,0,3,,,,1,,,80,70
669840,note_on,,,,,96,0,15,,,,13,,,52,63
669888,note_on,,,,,288,0,16,,,,14,,,40,0
669984,note_on,,,,,1824,0,4,,,,2,,,70,0
669984,note_on,,,,,3744,0,5,,,,2,,,61,0
669984,note_on,,,,,144,0,15,,,,13,,,52,0
670080,note_on,,,,,240,0,8,,,,4,,,68,0
670080,note_on,,,,,96,0,4,,,,2,,,71,63
670080,note_on,,,,,96,0,5,,,,2,,,59,63
670080,note_on,,,,,0,0,8,,,,4,,,66,63
670080,note_on,,,,,96,0,15,,,,13,,,51,63
670080,note_on,,,,,0,0,3,,,,1,,,78,70
670080,note_on,,,,,240,0,3,,,,1,,,80,0
670080,note_on,,,,,576,0,1,,,,0,,,78,70
670080,note_on,,,,,576,0,6,,,,3,,,54,70
670080,note_on,,,,,192,0,16,,,,14,,,39,63
670224,note_on,,,,,144,0,15,,,,13,,,51,0
670320,note_on,,,,,96,0,15,,,,13,,,51,63
670368,note_on,,,,,288,0,16,,,,14,,,39,0
670464,note_on,,,,,144,0,15,,,,13,,,51,0
670464,note_on,,,,,384,0,3,,,,1,,,78,0
670464,note_on,,,,,384,0,8,,,,4,,,66,0
670560,note_on,,,,,1056,0,14,,,,12,,,54,63
670560,note_on,,,,,1056,0,12,,,,10,,,59,63
670704,note_on,,,,,144,0,14,,,,12,,,54,0
670704,note_on,,,,,144,0,12,,,,10,,,59,0
670800,note_on,,,,,720,0,1,,,,0,,,78,0
670800,note_on,,,,,0,0,1,,,,0,,,80,70
670800,note_on,,,,,96,0,14,,,,12,,,54,63
670800,note_on,,,,,720,0,6,,,,3,,,54,0
670800,note_on,,,,,0,0,6,,,,3,,,56,70
670800,note_on,,,,,96,0,12,,,,10,,,59,63
670944,note_on,,,,,144,0,12,,,,10,,,59,0
670944,note_on,,,,,144,0,14,,,,12,,,54,0
671040,note_on,,,,,240,0,6,,,,3,,,56,0
671040,note_on,,,,,0,0,6,,,,3,,,54,70
671040,note_on,,,,,0,0,4,,,,2,,,69,63
671040,note_on,,,,,576,0,3,,,,1,,,78,70
671040,note_on,,,,,96,0,12,,,,10,,,57,63
671040,note_on,,,,,960,0,4,,,,2,,,71,0
671040,note_on,,,,,0,0,1,,,,0,,,78,70
671040,note_on,,,,,240,0,1,,,,0,,,80,0
671040,note_on,,,,,576,0,8,,,,4,,,66,63
671040,note_on,,,,,96,0,14,,,,12,,,54,63
671184,note_on,,,,,144,0,12,,,,10,,,57,0
671184,note_on,,,,,144,0,14,,,,12,,,54,0
671280,note_on,,,,,96,0,14,,,,12,,,54,63
671280,note_on,,,,,96,0,12,,,,10,,,57,63
671424,note_on,,,,,144,0,14,,,,12,,,54,0
671424,note_on,,,,,384,0,6,,,,3,,,54,0
671424,note_on,,,,,144,0,12,,,,10,,,57,0
671424,note_on,,,,,384,0,1,,,,0,,,78,0
671520,note_on,,,,,1152,0,16,,,,14,,,35,63
671520,note_on,,,,,1056,0,15,,,,13,,,47,63
671664,note_on,,,,,144,0,15,,,,13,,,47,0
671760,note_on,,,,,720,0,8,,,,4,,,66,0
671760,note_on,,,,,0,0,8,,,,4,,,68,63
671760,note_on,,,,,0,0,3,,,,1,,,80,70
671760,note_on,,,,,720,0,3,,,,1,,,78,0
671760,note_on,,,,,96,0,15,,,,13,,,47,63
671808,note_on,,,,,288,0,16,,,,14,,,35,0
671904,note_on,,,,,144,0,15,,,,13,,,47,0
672000,note_on,,,,,0,0,4,,,,2,,,68,63
672000,set_tempo,,,,,21120,1,0,441176,,,,,,,
672000,note_on,,,,,0,0,8,,,,4,,,64,63
672000,note_on,,,,,0,0,3,,,,1,,,76,70
672000,note_on,,,,,240,0,3,,,,1,,,80,0
672000,note_on,,,,,960,0,4,,,,2,,,69,0
672000,note_on,,,,,576,0,1,,,,0,,,76,70
672000,note_on,,,,,240,0,8,,,,4,,,68,0
672000,note_on,,,,,96,0,15,,,,13,,,52,63
672000,note_on,,,,,576,0,6,,,,3,,,52,70
672000,note_on,,,,,192,0,16,,,,14,,,40,63
672144,note_on,,,,,144,0,15,,,,13,,,52,0
672240,note_on,,,,,96,0,15,,,,13,,,52,63
672288,note_on,,,,,288,0,16,,,,14,,,40,0
672384,note_on,,,,,144,0,15,,,,13,,,52,0
672384,note_on,,,,,384,0,3,,,,1,,,76,0
672384,note_on,,,,,384,0,8,,,,4,,,64,0
672480,note_on,,,,,1056,0,14,,,,12,,,52,63
672480,note_on,,,,,1056,0,12,,,,10,,,56,63
672624,note_on,,,,,144,0,14,,,,12,,,52,0
672624,note_on,,,,,144,0,12,,,,10,,,56,0
672720,note_on,,,,,96,0,14,,,,12,,,52,63
672720,note_on,,,,,720,0,6,,,,3,,,52,0
672720,note_on,,,,,96,0,12,,,,10,,,56,63
672720,note_on,,,,,720,0,1,,,,0,,,76,0
672720,note_on,,,,,0,0,1,,,,0,,,78,70
672720,note_on,,,,,0,0,6,,,,3,,,54,70
672864,note_on,,,,,144,0,14,,,,12,,,52,0
672864,note_on,,,,,144,0,12,,,,10,,,56,0
672960,note_on,,,,,0,0,1,,,,0,,,76,70
672960,note_on,,,,,0,0,6,,,,3,,,52,70
672960,note_on,,,,,240,0,6,,,,3,,,54,0
672960,note_on,,,,,96,0,14,,,,12,,,56,63
672960,note_on,,,,,2880,0,5,,,,2,,,59,0
672960,note_on,,,,,0,0,5,,,,2,,,64,63
672960,note_on,,,,,576,0,3,,,,1,,,76,70
672960,note_on,,,,,96,0,12,,,,10,,,59,63
672960,note_on,,,,,240,0,1,,,,0,,,78,0
672960,note_on,,,,,576,0,8,,,,4,,,64,63
673104,note_on,,,,,144,0,12,,,,10,,,59,0
673104,note_on,,,,,144,0,14,,,,12,,,56,0
673200,note_on,,,,,96,0,14,,,,12,,,56,63
673200,note_on,,,,,96,0,12,,,,10,,,59,63
673344,note_on,,,,,144,0,12,,,,10,,,59,0
673344,note_on,,,,,384,0,1,,,,0,,,76,0
673344,note_on,,,,,384,0,6,,,,3,,,52,0
673344,note_on,,,,,144,0,14,,,,12,,,56,0
673440,note_on,,,,,1152,0,16,,,,14,,,39,63
673440,note_on,,,,,1056,0,15,,,,13,,,51,63
673680,note_on,,,,,0,0,3,,,,1,,,78,70
673680,note_on,,,,,720,0,3,,,,1,,,76,0
673680,note_on,,,,,720,0,8,,,,4,,,64,0
673680,note_on,,,,,0,0,8,,,,4,,,66,63
673728,note_on,,,,,288,0,16,,,,14,,,39,0
673824,note_on,,,,,1824,0,4,,,,2,,,68,0
673824,note_on,,,,,384,0,15,,,,13,,,51,0
673872,end_of_track,,,,,0,1,5,,,,,,,,
673872,note_on,,,,,912,0,5,,,,2,,,64,0
673920,note_on,,,,,576,0,1,,,,0,,,76,38
673920,note_on,,,,,0,0,1,,,,0,,,79,38
673920,note_on,,,,,96,0,15,,,,13,,,37,59
673920,note_on,,,,,240,0,8,,,,4,,,66,0
673920,note_on,,,,,0,0,9,,,,5,,,64,63
673920,set_tempo,,,,,1920,1,0,428571,,,,,,,
673920,note_on,,,,,192,0,16,,,,14,,,37,63
673920,note_on,,,,,0,0,6,,,,3,,,55,63
673920,note_on,,,,,576,0,6,,,,3,,,49,63
673920,note_on,,,,,96,0,4,,,,2,,,64,38
673920,note_on,,,,,0,0,3,,,,1,,,79,63
673920,note_on,,,,,240,0,3,,,,1,,,78,0
673920,note_on,,,,,0,0,4,,,,2,,,67,38
673920,note_on,,,,,178176,0,11,,,,7,,,52,38
673920,note_on,,,,,23616,0,9,,,,5,,,55,63
673968,note_on,,,,,48,0,11,,,,7,,,52,0
673980,note_on,,,,,12,0,11,,,,7,,,52,38
674028,note_on,,,,,48,0,11,,,,7,,,52,0
674040,note_on,,,,,12,0,11,,,,7,,,52,38
674088,note_on,,,,,48,0,11,,,,7,,,52,0
674100,note_on,,,,,12,0,11,,,,7,,,52,38
674148,note_on,,,,,48,0,11,,,,7,,,52,0
674160,note_on,,,,,12,0,11,,,,7,,,52,38
674160,note_on,,,,,240,0,15,,,,13,,,37,0
674160,note_on,,,,,0,0,15,,,,13,,,40,59
674160,note_on,,,,,816,0,14,,,,12,,,52,57
674208,note_on,,,,,48,0,11,,,,7,,,52,0
674220,note_on,,,,,12,0,11,,,,7,,,52,38
674268,note_on,,,,,48,0,11,,,,7,,,52,0
674280,note_on,,,,,12,0,11,,,,7,,,52,38
674304,note_on,,,,,384,0,3,,,,1,,,79,0
674328,note_on,,,,,48,0,11,,,,7,,,52,0
674340,note_on,,,,,12,0,11,,,,7,,,52,38
674388,note_on,,,,,48,0,11,,,,7,,,52,0
674400,note_on,,,,,12,0,11,,,,7,,,52,38
674400,note_on,,,,,0,0,14,,,,12,,,55,57
674400,note_on,,,,,0,0,15,,,,13,,,43,59
674400,note_on,,,,,18336,0,13,,,,11,,,55,43
674400,note_on,,,,,240,0,15,,,,13,,,40,0
674400,note_on,,,,,240,0,14,,,,12,,,52,0
674448,note_on,,,,,48,0,11,,,,7,,,52,0
674460,note_on,,,,,12,0,11,,,,7,,,52,38
674508,note_on,,,,,48,0,11,,,,7,,,52,0
674520,note_on,,,,,12,0,11,,,,7,,,52,38
674568,note_on,,,,,48,0,11,,,,7,,,52,0
674580,note_on,,,,,12,0,11,,,,7,,,52,38
674628,note_on,,,,,48,0,11,,,,7,,,52,0
674640,note_on,,,,,720,0,8,,,,4,,,64,63
674640,note_on,,,,,12,0,11,,,,7,,,52,38
674640,note_on,,,,,240,0,13,,,,11,,,55,0
674640,note_on,,,,,0,0,15,,,,13,,,45,59
674640,note_on,,,,,240,0,15,,,,13,,,43,0
674640,note_on,,,,,0,0,14,,,,12,,,57,57
674640,note_on,,,,,240,0,14,,,,12,,,55,0
674640,note_on,,,,,0,0,13,,,,11,,,57,43
674688,note_on,,,,,48,0,11,,,,7,,,52,0
674700,note_on,,,,,12,0,11,,,,7,,,52,38
674736,note_on,,,,,96,0,8,,,,4,,,64,0
674748,note_on,,,,,48,0,11,,,,7,,,52,0
674760,note_on,,,,,24,0,8,,,,4,,,64,63
674760,note_on,,,,,12,0,11,,,,7,,,52,38
674808,note_on,,,,,48,0,11,,,,7,,,52,0
674820,note_on,,,,,12,0,11,,,,7,,,52,38
674856,note_on,,,,,96,0,8,,,,4,,,64,0
674868,note_on,,,,,48,0,11,,,,7,,,52,0
674880,note_on,,,,,0,0,13,,,,11,,,60,43
674880,note_on,,,,,240,0,13,,,,11,,,57,0
674880,note_on,,,,,0,0,15,,,,13,,,48,59
674880,note_on,,,,,12,0,11,,,,7,,,52,38
674880,note_on,,,,,240,0,14,,,,12,,,57,0
674880,note_on,,,,,0,0,14,,,,12,,,60,57
674880,note_on,,,,,240,0,15,,,,13,,,45,0
674880,note_on,,,,,24,0,8,,,,4,,,64,63
674928,note_on,,,,,48,0,11,,,,7,,,52,0
674940,note_on,,,,,12,0,11,,,,7,,,52,38
674988,note_on,,,,,48,0,11,,,,7,,,52,0
675000,note_on,,,,,12,0,11,,,,7,,,52,38
675048,note_on,,,,,48,0,11,,,,7,,,52,0
675060,note_on,,,,,12,0,11,,,,7,,,52,38
675108,note_on,,,,,48,0,11,,,,7,,,52,0
675120,note_on,,,,,12,0,11,,,,7,,,52,38
675120,note_on,,,,,0,0,14,,,,12,,,57,57
675120,note_on,,,,,240,0,13,,,,11,,,60,0
675120,note_on,,,,,240,0,14,,,,12,,,60,0
675120,note_on,,,,,240,0,15,,,,13,,,48,0
675120,note_on,,,,,0,0,15,,,,13,,,45,59
675120,note_on,,,,,0,0,13,,,,11,,,57,43
675168,note_on,,,,,48,0,11,,,,7,,,52,0
675180,note_on,,,,,12,0,11,,,,7,,,52,38
675228,note_on,,,,,48,0,11,,,,7,,,52,0
675240,note_on,,,,,12,0,11,,,,7,,,52,38
675288,note_on,,,,,48,0,11,,,,7,,,52,0
675300,note_on,,,,,12,0,11,,,,7,,,52,38
675348,note_on,,,,,48,0,11,,,,7,,,52,0
675360,note_on,,,,,0,0,14,,,,12,,,58,57
675360,note_on,,,,,240,0,14,,,,12,,,57,0
675360,note_on,,,,,12,0,11,,,,7,,,52,38
675360,note_on,,,,,0,0,13,,,,11,,,58,43
675360,note_on,,,,,2016,0,12,,,,10,,,58,59
675360,note_on,,,,,240,0,13,,,,11,,,57,0
675360,note_on,,,,,0,0,15,,,,13,,,46,59
675360,note_on,,,,,240,0,15,,,,13,,,45,0
675408,note_on,,,,,48,0,11,,,,7,,,52,0
675420,note_on,,,,,12,0,11,,,,7,,,52,38
675468,note_on,,,,,48,0,11,,,,7,,,52,0
675480,note_on,,,,,12,0,11,,,,7,,,52,38
675528,note_on,,,,,48,0,11,,,,7,,,52,0
675540,note_on,,,,,12,0,11,,,,7,,,52,38
675588,note_on,,,,,48,0,11,,,,7,,,52,0
675600,note_on,,,,,0,0,13,,,,11,,,64,43
675600,note_on,,,,,0,0,14,,,,12,,,64,57
675600,note_on,,,,,240,0,13,,,,11,,,58,0
675600,note_on,,,,,240,0,15,,,,13,,,46,0
675600,note_on,,,,,0,0,15,,,,13,,,52,59
675600,note_on,,,,,0,0,12,,,,10,,,64,59
675600,note_on,,,,,240,0,12,,,,10,,,58,0
675600,note_on,,,,,240,0,14,,,,12,,,58,0
675600,note_on,,,,,12,0,11,,,,7,,,52,38
675648,note_on,,,,,48,0,11,,,,7,,,52,0
675660,note_on,,,,,12,0,11,,,,7,,,52,38
675708,note_on,,,,,48,0,11,,,,7,,,52,0
675720,note_on,,,,,12,0,11,,,,7,,,52,38
675768,note_on,,,,,48,0,11,,,,7,,,52,0
675780,note_on,,,,,12,0,11,,,,7,,,52,38
675828,note_on,,,,,48,0,11,,,,7,,,52,0
675840,note_on,,,,,0,0,15,,,,13,,,55,59
675840,note_on,,,,,240,0,15,,,,13,,,52,0
675840,note_on,,,,,0,0,14,,,,12,,,55,57
675840,note_on,,,,,240,0,14,,,,12,,,64,0
675840,note_on,,,,,0,0,13,,,,11,,,55,43
675840,note_on,,,,,12,0,11,,,,7,,,52,38
675840,note_on,,,,,240,0,12,,,,10,,,64,0
675840,note_on,,,,,240,0,13,,,,11,,,64,0
675840,note_on,,,,,0,0,12,,,,10,,,67,59
675888,note_on,,,,,48,0,11,,,,7,,,52,0
675900,note_on,,,,,12,0,11,,,,7,,,52,38
675948,note_on,,,,,48,0,11,,,,7,,,52,0
675960,note_on,,,,,12,0,11,,,,7,,,52,38
676008,note_on,,,,,48,0,11,,,,7,,,52,0
676020,note_on,,,,,12,0,11,,,,7,,,52,38
676068,note_on,,,,,48,0,11,,,,7,,,52,0
676080,note_on,,,,,240,0,13,,,,11,,,55,0
676080,note_on,,,,,240,0,15,,,,13,,,55,0
676080,note_on,,,,,0,0,14,,,,12,,,57,57
676080,note_on,,,,,240,0,14,,,,12,,,55,0
676080,note_on,,,,,240,0,12,,,,10,,,67,0
676080,note_on,,,,,0,0,12,,,,10,,,69,59
676080,note_on,,,,,12,0,11,,,,7,,,52,38
676080,note_on,,,,,0,0,13,,,,11,,,57,43
676128,note_on,,,,,48,0,11,,,,7,,,52,0
676140,note_on,,,,,12,0,11,,,,7,,,52,38
676188,note_on,,,,,48,0,11,,,,7,,,52,0
676200,note_on,,,,,12,0,11,,,,7,,,52,38
676248,note_on,,,,,48,0,11,,,,7,,,52,0
676260,note_on,,,,,12,0,11,,,,7,,,52,38
676308,note_on,,,,,48,0,11,,,,7,,,52,0
676320,note_on,,,,,240,0,12,,,,10,,,69,0
676320,note_on,,,,,0,0,12,,,,10,,,72,59
676320,note_on,,,,,12,0,11,,,,7,,,52,38
676320,note_on,,,,,240,0,14,,,,12,,,57,0
676320,note_on,,,,,0,0,14,,,,12,,,60,57
676320,note_on,,,,,0,0,13,,,,11,,,60,43
676320,note_on,,,,,240,0,13,,,,11,,,57,0
676368,note_on,,,,,48,0,11,,,,7,,,52,0
676380,note_on,,,,,12,0,11,,,,7,,,52,38
676416,note_on,,,,,1536,0,8,,,,4,,,64,0
676428,note_on,,,,,48,0,11,,,,7,,,52,0
676440,note_on,,,,,12,0,11,,,,7,,,52,38
676488,note_on,,,,,48,0,11,,,,7,,,52,0
676500,note_on,,,,,12,0,11,,,,7,,,52,38
676548,note_on,,,,,48,0,11,,,,7,,,52,0
676560,note_on,,,,,0,0,14,,,,12,,,57,57
676560,note_on,,,,,240,0,14,,,,12,,,60,0
676560,note_on,,,,,0,0,13,,,,11,,,57,43
676560,note_on,,,,,240,0,13,,,,11,,,60,0
676560,note_on,,,,,240,0,12,,,,10,,,72,0
676560,note_on,,,,,144,0,8,,,,4,,,64,63
676560,note_on,,,,,0,0,12,,,,10,,,69,59
676560,note_on,,,,,12,0,11,,,,7,,,52,38
676608,note_on,,,,,48,0,11,,,,7,,,52,0
676620,note_on,,,,,12,0,11,,,,7,,,52,38
676656,note_on,,,,,96,0,8,,,,4,,,64,0
676668,note_on,,,,,48,0,11,,,,7,,,52,0
676680,note_on,,,,,24,0,8,,,,4,,,64,63
676680,note_on,,,,,12,0,11,,,,7,,,52,38
676728,note_on,,,,,48,0,11,,,,7,,,52,0
676740,note_on,,,,,12,0,11,,,,7,,,52,38
676776,note_on,,,,,96,0,8,,,,4,,,64,0
676788,note_on,,,,,48,0,11,,,,7,,,52,0
676800,note_on,,,,,720,0,15,,,,13,,,37,59
676800,note_on,,,,,12,0,11,,,,7,,,52,38
676800,note_on,,,,,240,0,12,,,,10,,,69,0
676800,note_on,,,,,240,0,14,,,,12,,,57,0
676800,note_on,,,,,0,0,14,,,,12,,,58,57
676800,note_on,,,,,240,0,13,,,,11,,,57,0
676800,note_on,,,,,0,0,13,,,,11,,,58,43
676800,note_on,,,,,0,0,12,,,,10,,,70,59
676800,note_on,,,,,24,0,8,,,,4,,,64,63
676848,note_on,,,,,48,0,11,,,,7,,,52,0
676860,note_on,,,,,12,0,11,,,,7,,,52,38
676908,note_on,,,,,48,0,11,,,,7,,,52,0
676920,note_on,,,,,12,0,11,,,,7,,,52,38
676968,note_on,,,,,48,0,11,,,,7,,,52,0
676980,note_on,,,,,12,0,11,,,,7,,,52,38
677028,note_on,,,,,48,0,11,,,,7,,,52,0
677040,note_on,,,,,240,0,14,,,,12,,,58,0
677040,note_on,,,,,0,0,13,,,,11,,,64,43
677040,note_on,,,,,240,0,13,,,,11,,,58,0
677040,note_on,,,,,12,0,11,,,,7,,,52,38
677040,note_on,,,,,0,0,14,,,,12,,,64,57
677040,note_on,,,,,0,0,12,,,,10,,,76,59
677040,note_on,,,,,240,0,12,,,,10,,,70,0
677088,note_on,,,,,48,0,11,,,,7,,,52,0
677100,note_on,,,,,12,0,11,,,,7,,,52,38
677148,note_on,,,,,48,0,11,,,,7,,,52,0
677160,note_on,,,,,12,0,11,,,,7,,,52,38
677208,note_on,,,,,48,0,11,,,,7,,,52,0
677220,note_on,,,,,12,0,11,,,,7,,,52,38
677268,note_on,,,,,48,0,11,,,,7,,,52,0
677280,note_on,,,,,0,0,14,,,,12,,,67,57
677280,note_on,,,,,0,0,13,,,,11,,,67,43
677280,note_on,,,,,240,0,12,,,,10,,,76,0
677280,note_on,,,,,240,0,14,,,,12,,,64,0
677280,note_on,,,,,240,0,13,,,,11,,,64,0
677280,note_on,,,,,12,0,11,,,,7,,,52,38
677280,note_on,,,,,0,0,12,,,,10,,,79,59
677328,note_on,,,,,48,0,11,,,,7,,,52,0
677340,note_on,,,,,12,0,11,,,,7,,,52,38
677388,note_on,,,,,48,0,11,,,,7,,,52,0
677400,note_on,,,,,12,0,11,,,,7,,,52,38
677448,note_on,,,,,48,0,11,,,,7,,,52,0
677460,note_on,,,,,12,0,11,,,,7,,,52,38
677508,note_on,,,,,48,0,11,,,,7,,,52,0
677520,note_on,,,,,0,0,12,,,,10,,,76,59
677520,note_on,,,,,0,0,13,,,,11,,,64,43
677520,note_on,,,,,240,0,13,,,,11,,,67,0
677520,note_on,,,,,0,0,14,,,,12,,,64,57
677520,note_on,,,,,240,0,12,,,,10,,,79,0
677520,note_on,,,,,240,0,14,,,,12,,,67,0
677520,note_on,,,,,12,0,11,,,,7,,,52,38
677568,note_on,,,,,48,0,11,,,,7,,,52,0
677580,note_on,,,,,12,0,11,,,,7,,,52,38
677628,note_on,,,,,48,0,11,,,,7,,,52,0
677640,note_on,,,,,12,0,11,,,,7,,,52,38
677688,note_on,,,,,48,0,11,,,,7,,,52,0
677700,note_on,,,,,12,0,11,,,,7,,,52,38
677748,note_on,,,,,48,0,11,,,,7,,,52,0
677760,note_on,,,,,0,0,12,,,,10,,,70,59
677760,note_on,,,,,240,0,12,,,,10,,,76,0
677760,note_on,,,,,0,0,13,,,,11,,,58,43
677760,note_on,,,,,240,0,13,,,,11,,,64,0
677760,note_on,,,,,12,0,11,,,,7,,,52,38
677760,note_on,,,,,0,0,14,,,,12,,,58,57
677760,note_on,,,,,240,0,14,,,,12,,,64,0
677808,note_on,,,,,48,0,11,,,,7,,,52,0
677820,note_on,,,,,12,0,11,,,,7,,,52,38
677868,note_on,,,,,48,0,11,,,,7,,,52,0
677880,note_on,,,,,12,0,11,,,,7,,,52,38
677928,note_on,,,,,48,0,11,,,,7,,,52,0
677940,note_on,,,,,12,0,11,,,,7,,,52,38
677988,note_on,,,,,48,0,11,,,,7,,,52,0
678000,note_on,,,,,240,0,13,,,,11,,,58,0
678000,note_on,,,,,0,0,12,,,,10,,,67,59
678000,note_on,,,,,240,0,12,,,,10,,,70,0
678000,note_on,,,,,240,0,14,,,,12,,,58,0
678000,note_on,,,,,0,0,14,,,,12,,,55,57
678000,note_on,,,,,12,0,11,,,,7,,,52,38
678048,note_on,,,,,48,0,11,,,,7,,,52,0
678060,note_on,,,,,12,0,11,,,,7,,,52,38
678108,note_on,,,,,48,0,11,,,,7,,,52,0
678120,note_on,,,,,12,0,11,,,,7,,,52,38
678168,note_on,,,,,48,0,11,,,,7,,,52,0
678180,note_on,,,,,12,0,11,,,,7,,,52,38
678228,note_on,,,,,48,0,11,,,,7,,,52,0
678240,note_on,,,,,0,0,14,,,,12,,,52,57
678240,note_on,,,,,240,0,14,,,,12,,,55,0
678240,note_on,,,,,240,0,12,,,,10,,,67,0
678240,note_on,,,,,0,0,12,,,,10,,,64,59
678240,note_on,,,,,12,0,11,,,,7,,,52,38
678288,note_on,,,,,48,0,11,,,,7,,,52,0
678300,note_on,,,,,12,0,11,,,,7,,,52,38
678348,note_on,,,,,48,0,11,,,,7,,,52,0
678360,note_on,,,,,12,0,11,,,,7,,,52,38
678408,note_on,,,,,48,0,11,,,,7,,,52,0
678420,note_on,,,,,12,0,11,,,,7,,,52,38
678468,note_on,,,,,48,0,11,,,,7,,,52,0
678480,note_on,,,,,12,0,11,,,,7,,,52,38
678480,note_on,,,,,240,0,14,,,,12,,,52,0
678480,note_on,,,,,240,0,12,,,,10,,,64,0
678480,note_on,,,,,0,0,12,,,,10,,,57,59
678480,note_on,,,,,0,0,14,,,,12,,,57,57
678528,note_on,,,,,1728,0,8,,,,4,,,64,0
678528,note_on,,,,,48,0,11,,,,7,,,52,0
678540,note_on,,,,,12,0,11,,,,7,,,52,38
678588,note_on,,,,,48,0,11,,,,7,,,52,0
678600,note_on,,,,,12,0,11,,,,7,,,52,38
678648,note_on,,,,,48,0,11,,,,7,,,52,0
678660,note_on,,,,,12,0,11,,,,7,,,52,38
678708,note_on,,,,,48,0,11,,,,7,,,52,0
678720,note_on,,,,,240,0,12,,,,10,,,57,0
678720,note_on,,,,,0,0,12,,,,10,,,58,59
678720,note_on,,,,,0,0,14,,,,12,,,58,57
678720,note_on,,,,,240,0,14,,,,12,,,57,0
678720,note_on,,,,,192,0,8,,,,4,,,64,63
678720,note_on,,,,,0,0,15,,,,13,,,36,59
678720,note_on,,,,,1920,0,15,,,,13,,,37,0
678720,note_on,,,,,4800,0,6,,,,3,,,49,0
678720,note_on,,,,,0,0,6,,,,3,,,48,63
678720,note_on,,,,,0,0,16,,,,14,,,36,63
678720,note_on,,,,,4800,0,16,,,,14,,,37,0
678720,note_on,,,,,12,0,11,,,,7,,,52,38
678768,note_on,,,,,48,0,11,,,,7,,,52,0
678780,note_on,,,,,12,0,11,,,,7,,,52,38
678828,note_on,,,,,48,0,11,,,,7,,,52,0
678840,note_on,,,,,12,0,11,,,,7,,,52,38
678888,note_on,,,,,48,0,11,,,,7,,,52,0
678900,note_on,,,,,12,0,11,,,,7,,,52,38
678948,note_on,,,,,48,0,11,,,,7,,,52,0
678960,note_on,,,,,240,0,12,,,,10,,,58,0
678960,note_on,,,,,12,0,11,,,,7,,,52,38
678960,note_on,,,,,0,0,15,,,,13,,,43,59
678960,note_on,,,,,240,0,15,,,,13,,,36,0
678960,note_on,,,,,0,0,14,,,,12,,,55,57
678960,note_on,,,,,240,0,14,,,,12,,,58,0
679008,note_on,,,,,48,0,11,,,,7,,,52,0
679020,note_on,,,,,12,0,11,,,,7,,,52,38
679068,note_on,,,,,48,0,11,,,,7,,,52,0
679080,note_on,,,,,12,0,11,,,,7,,,52,38
679128,note_on,,,,,48,0,11,,,,7,,,52,0
679140,note_on,,,,,12,0,11,,,,7,,,52,38
679188,note_on,,,,,48,0,11,,,,7,,,52,0
679200,note_on,,,,,240,0,15,,,,13,,,43,0
679200,note_on,,,,,0,0,15,,,,13,,,52,59
679200,note_on,,,,,240,0,14,,,,12,,,55,0
679200,note_on,,,,,0,0,14,,,,12,,,52,57
679200,note_on,,,,,12,0,11,,,,7,,,52,38
679248,note_on,,,,,48,0,11,,,,7,,,52,0
679260,note_on,,,,,12,0,11,,,,7,,,52,38
679308,note_on,,,,,48,0,11,,,,7,,,52,0
679320,note_on,,,,,12,0,11,,,,7,,,52,38
679368,note_on,,,,,48,0,11,,,,7,,,52,0
679380,note_on,,,,,12,0,11,,,,7,,,52,38
679428,note_on,,,,,48,0,11,,,,7,,,52,0
679440,note_on,,,,,240,0,14,,,,12,,,52,0
679440,note_on,,,,,0,0,15,,,,13,,,45,59
679440,note_on,,,,,240,0,15,,,,13,,,52,0
679440,note_on,,,,,12,0,11,,,,7,,,52,38
679488,note_on,,,,,48,0,11,,,,7,,,52,0
679500,note_on,,,,,12,0,11,,,,7,,,52,38
679548,note_on,,,,,48,0,11,,,,7,,,52,0
679560,note_on,,,,,12,0,11,,,,7,,,52,38
679608,note_on,,,,,48,0,11,,,,7,,,52,0
679620,note_on,,,,,12,0,11,,,,7,,,52,38
679668,note_on,,,,,48,0,11,,,,7,,,52,0
679680,note_on,,,,,0,0,15,,,,13,,,46,59
679680,note_on,,,,,12,0,11,,,,7,,,52,63
679680,note_on,,,,,240,0,15,,,,13,,,45,0
679872,note_on,,,,,5952,0,9,,,,5,,,64,0
679872,note_on,,,,,0,0,9,,,,5,,,55,0
679872,note_on,,,,,0,0,6,,,,3,,,55,0
679872,note_on,,,,,192,0,15,,,,13,,,46,0
679872,note_on,,,,,0,0,1,,,,0,,,76,0
679872,note_on,,,,,5952,0,1,,,,0,,,79,0
679872,note_on,,,,,1152,0,8,,,,4,,,64,0
679872,note_on,,,,,192,0,11,,,,7,,,52,0
679872,note_on,,,,,0,0,4,,,,2,,,64,0
679872,note_on,,,,,5952,0,4,,,,2,,,67,0
679872,note_on,,,,,1152,0,6,,,,3,,,48,0
679872,note_on,,,,,1152,0,16,,,,14,,,36,0
680400,note_on,,,,,960,0,14,,,,12,,,59,63
680400,note_on,,,,,528,0,1,,,,0,,,83,63
680400,note_on,,,,,0,0,3,,,,1,,,76,63
680400,note_on,,,,,528,0,11,,,,7,,,47,63
680400,note_on,,,,,66528,0,10,,,,6,,,71,63
680400,note_on,,,,,6096,0,3,,,,1,,,68,63
680400,note_on,,,,,0,0,10,,,,6,,,59,63
680400,note_on,,,,,528,0,15,,,,13,,,47,63
680400,note_on,,,,,528,0,8,,,,4,,,56,63
680400,note_on,,,,,0,0,8,,,,4,,,64,63
680472,note_on,,,,,72,0,11,,,,7,,,47,0
680472,note_on,,,,,72,0,14,,,,12,,,59,0
680472,note_on,,,,,72,0,15,,,,13,,,47,0
680496,note_on,,,,,0,0,3,,,,1,,,68,0
680496,note_on,,,,,96,0,3,,,,1,,,76,0
680496,note_on,,,,,96,0,10,,,,6,,,59,0
680496,note_on,,,,,0,0,8,,,,4,,,56,0
680496,note_on,,,,,96,0,8,,,,4,,,64,0
680496,note_on,,,,,0,0,10,,,,6,,,71,0
680496,note_on,,,,,96,0,1,,,,0,,,83,0
680520,note_on,,,,,48,0,11,,,,7,,,47,63
680520,note_on,,,,,48,0,15,,,,13,,,47,63
680520,note_on,,,,,24,0,3,,,,1,,,71,63
680520,note_on,,,,,24,0,10,,,,6,,,71,63
680520,note_on,,,,,0,0,10,,,,6,,,59,63
680520,note_on,,,,,24,0,1,,,,0,,,83,63
680520,note_on,,,,,0,0,3,,,,1,,,78,63
680520,note_on,,,,,48,0,14,,,,12,,,59,63
680520,note_on,,,,,24,0,8,,,,4,,,59,63
680520,note_on,,,,,0,0,8,,,,4,,,66,63
680592,note_on,,,,,72,0,14,,,,12,,,59,0
680592,note_on,,,,,72,0,11,,,,7,,,47,0
680592,note_on,,,,,72,0,15,,,,13,,,47,0
680616,note_on,,,,,0,0,10,,,,6,,,71,0
680616,note_on,,,,,96,0,1,,,,0,,,83,0
680616,note_on,,,,,96,0,10,,,,6,,,59,0
680616,note_on,,,,,0,0,8,,,,4,,,59,0
680616,note_on,,,,,96,0,3,,,,1,,,78,0
680616,note_on,,,,,0,0,3,,,,1,,,71,0
680616,note_on,,,,,96,0,8,,,,4,,,66,0
680640,note_on,,,,,24,0,10,,,,6,,,71,63
680640,note_on,,,,,48,0,11,,,,7,,,47,63
680640,note_on,,,,,48,0,15,,,,13,,,47,63
680640,note_on,,,,,24,0,1,,,,0,,,83,63
680640,note_on,,,,,0,0,3,,,,1,,,76,63
680640,note_on,,,,,24,0,3,,,,1,,,80,63
680640,note_on,,,,,24,0,8,,,,4,,,68,63
680640,note_on,,,,,0,0,8,,,,4,,,64,63
680640,note_on,,,,,48,0,14,,,,12,,,59,63
680640,note_on,,,,,0,0,10,,,,6,,,59,63
680928,note_on,,,,,288,0,15,,,,13,,,47,0
680928,note_on,,,,,288,0,11,,,,7,,,47,0
680928,note_on,,,,,288,0,14,,,,12,,,59,0
681552,note_on,,,,,912,0,10,,,,6,,,59,0
681552,note_on,,,,,0,0,3,,,,1,,,80,0
681552,note_on,,,,,912,0,3,,,,1,,,76,0
681552,note_on,,,,,0,0,10,,,,6,,,71,0
681552,note_on,,,,,912,0,8,,,,4,,,64,0
681552,note_on,,,,,0,0,8,,,,4,,,68,0
681552,note_on,,,,,912,0,1,,,,0,,,83,0
682320,note_on,,,,,768,0,1,,,,0,,,83,63
682320,note_on,,,,,1392,0,15,,,,13,,,47,63
682320,note_on,,,,,1392,0,14,,,,12,,,59,63
682320,note_on,,,,,1392,0,11,,,,7,,,47,63
682320,note_on,,,,,0,0,10,,,,6,,,59,63
682320,note_on,,,,,768,0,10,,,,6,,,71,63
682320,note_on,,,,,0,0,8,,,,4,,,66,63
682320,note_on,,,,,0,0,3,,,,1,,,71,63
682320,note_on,,,,,768,0,8,,,,4,,,59,63
682320,note_on,,,,,768,0,3,,,,1,,,78,63
682392,note_on,,,,,72,0,14,,,,12,,,59,0
682392,note_on,,,,,72,0,11,,,,7,,,47,0
682392,note_on,,,,,72,0,15,,,,13,,,47,0
682416,note_on,,,,,0,0,8,,,,4,,,59,0
682416,note_on,,,,,96,0,3,,,,1,,,71,0
682416,note_on,,,,,0,0,3,,,,1,,,78,0
682416,note_on,,,,,0,0,10,,,,6,,,71,0
682416,note_on,,,,,96,0,10,,,,6,,,59,0
682416,note_on,,,,,96,0,8,,,,4,,,66,0
682416,note_on,,,,,96,0,1,,,,0,,,83,0
682440,note_on,,,,,48,0,15,,,,13,,,47,63
682440,note_on,,,,,0,0,8,,,,4,,,64,63
682440,note_on,,,,,24,0,3,,,,1,,,80,63
682440,note_on,,,,,48,0,14,,,,12,,,59,63
682440,note_on,,,,,24,0,1,,,,0,,,83,63
682440,note_on,,,,,24,0,10,,,,6,,,71,63
682440,note_on,,,,,0,0,10,,,,6,,,59,63
682440,note_on,,,,,48,0,11,,,,7,,,47,63
682440,note_on,,,,,24,0,8,,,,4,,,68,63
682440,note_on,,,,,0,0,3,,,,1,,,76,63
682512,note_on,,,,,72,0,11,,,,7,,,47,0
682512,note_on,,,,,72,0,14,,,,12,,,59,0
682512,note_on,,,,,72,0,15,,,,13,,,47,0
682536,note_on,,,,,96,0,3,,,,1,,,76,0
682536,note_on,,,,,0,0,3,,,,1,,,80,0
682536,note_on,,,,,0,0,10,,,,6,,,71,0
682536,note_on,,,,,96,0,1,,,,0,,,83,0
682536,note_on,,,,,0,0,8,,,,4,,,68,0
682536,note_on,,,,,96,0,8,,,,4,,,64,0
682536,note_on,,,,,96,0,10,,,,6,,,59,0
682560,note_on,,,,,48,0,14,,,,12,,,59,63
682560,note_on,,,,,24,0,1,,,,0,,,83,63
682560,note_on,,,,,0,0,8,,,,4,,,69,63
682560,note_on,,,,,24,0,8,,,,4,,,66,63
682560,note_on,,,,,48,0,15,,,,13,,,47,63
682560,note_on,,,,,0,0,3,,,,1,,,78,63
682560,note_on,,,,,24,0,3,,,,1,,,81,63
682560,note_on,,,,,48,0,11,,,,7,,,47,63
682560,note_on,,,,,0,0,10,,,,6,,,59,63
682560,note_on,,,,,24,0,10,,,,6,,,71,63
682848,note_on,,,,,288,0,11,,,,7,,,47,0
682848,note_on,,,,,288,0,14,,,,12,,,59,0
682848,note_on,,,,,288,0,15,,,,13,,,47,0
683472,note_on,,,,,0,0,3,,,,1,,,81,0
683472,note_on,,,,,912,0,10,,,,6,,,59,0
683472,note_on,,,,,912,0,8,,,,4,,,69,0
683472,note_on,,,,,0,0,8,,,,4,,,66,0
683472,note_on,,,,,912,0,1,,,,0,,,83,0
683472,note_on,,,,,912,0,3,,,,1,,,78,0
683472,note_on,,,,,0,0,10,,,,6,,,71,0
684240,note_on,,,,,768,0,10,,,,6,,,71,63
684240,note_on,,,,,0,0,1,,,,0,,,76,63
684240,note_on,,,,,1392,0,11,,,,7,,,47,63
684240,note_on,,,,,0,0,10,,,,6,,,59,63
684240,note_on,,,,,1392,0,14,,,,12,,,59,63
684240,note_on,,,,,768,0,3,,,,1,,,80,63
684240,note_on,,,,,1392,0,15,,,,13,,,47,63
684240,note_on,,,,,0,0,3,,,,1,,,76,63
684240,note_on,,,,,768,0,8,,,,4,,,68,63
684240,note_on,,,,,0,0,8,,,,4,,,64,63
684240,note_on,,,,,768,0,1,,,,0,,,80,63
684312,note_on,,,,,72,0,14,,,,12,,,59,0
684312,note_on,,,,,72,0,10,,,,6,,,59,0
684312,note_on,,,,,0,0,10,,,,6,,,71,0
684312,note_on,,,,,72,0,15,,,,13,,,47,0
684312,note_on,,,,,72,0,11,,,,7,,,47,0
684336,note_on,,,,,96,0,1,,,,0,,,76,0
684336,note_on,,,,,0,0,3,,,,1,,,80,0
684336,note_on,,,,,96,0,3,,,,1,,,76,0
684336,note_on,,,,,96,0,8,,,,4,,,64,0
684336,note_on,,,,,0,0,8,,,,4,,,68,0
684336,note_on,,,,,0,0,1,,,,0,,,80,0
684360,note_on,,,,,0,0,1,,,,0,,,78,63
684360,note_on,,,,,48,0,10,,,,6,,,71,63
684360,note_on,,,,,24,0,1,,,,0,,,81,63
684360,note_on,,,,,24,0,8,,,,4,,,69,63
684360,note_on,,,,,48,0,14,,,,12,,,59,63
684360,note_on,,,,,0,0,8,,,,4,,,66,63
684360,note_on,,,,,48,0,11,,,,7,,,47,63
684360,note_on,,,,,0,0,10,,,,6,,,59,63
684360,note_on,,,,,48,0,15,,,,13,,,47,63
684360,note_on,,,,,24,0,3,,,,1,,,78,63
684360,note_on,,,,,0,0,3,,,,1,,,81,63
684432,note_on,,,,,72,0,11,,,,7,,,47,0
684432,note_on,,,,,72,0,14,,,,12,,,59,0
684432,note_on,,,,,72,0,15,,,,13,,,47,0
684432,note_on,,,,,72,0,10,,,,6,,,59,0
684432,note_on,,,,,0,0,10,,,,6,,,71,0
684456,note_on,,,,,0,0,1,,,,0,,,81,0
684456,note_on,,,,,96,0,1,,,,0,,,78,0
684456,note_on,,,,,96,0,8,,,,4,,,66,0
684456,note_on,,,,,0,0,3,,,,1,,,78,0
684456,note_on,,,,,0,0,8,,,,4,,,69,0
684456,note_on,,,,,96,0,3,,,,1,,,81,0
684480,note_on,,,,,0,0,4,,,,2,,,71,63
684480,note_on,,,,,0,0,1,,,,0,,,83,63
684480,note_on,,,,,24,0,1,,,,0,,,80,63
684480,note_on,,,,,48,0,15,,,,13,,,52,63
684480,note_on,,,,,0,0,8,,,,4,,,71,63
684480,note_on,,,,,24,0,8,,,,4,,,68,63
684480,note_on,,,,,48,0,11,,,,7,,,52,63
684480,note_on,,,,,4608,0,4,,,,2,,,68,63
684480,note_on,,,,,48,0,14,,,,12,,,64,63
684480,note_on,,,,,48,0,10,,,,6,,,71,63
684480,note_on,,,,,0,0,10,,,,6,,,64,63
684480,note_on,,,,,0,0,3,,,,1,,,80,63
684480,note_on,,,,,24,0,3,,,,1,,,83,63
684672,note_on,,,,,0,0,3,,,,1,,,83,0
684672,note_on,,,,,0,0,8,,,,4,,,68,0
684672,note_on,,,,,192,0,8,,,,4,,,71,0
684672,note_on,,,,,192,0,4,,,,2,,,71,0
684672,note_on,,,,,0,0,4,,,,2,,,68,0
684672,note_on,,,,,192,0,1,,,,0,,,83,0
684672,note_on,,,,,0,0,1,,,,0,,,80,0
684672,note_on,,,,,192,0,3,,,,1,,,80,0
684768,note_on,,,,,288,0,15,,,,13,,,52,0
684768,note_on,,,,,0,0,10,,,,6,,,71,0
684768,note_on,,,,,288,0,11,,,,7,,,52,0
684768,note_on,,,,,288,0,14,,,,12,,,64,0
684768,note_on,,,,,288,0,10,,,,6,,,64,0
684800,note_on,,,,,0,0,4,,,,2,,,68,63
684800,note_on,,,,,128,0,1,,,,0,,,80,63
684800,note_on,,,,,0,0,1,,,,0,,,76,63
684800,note_on,,,,,128,0,3,,,,1,,,80,63
684800,note_on,,,,,128,0,8,,,,4,,,64,63
684800,note_on,,,,,0,0,8,,,,4,,,68,63
684800,note_on,,,,,0,0,3,,,,1,,,76,63
684800,note_on,,,,,128,0,4,,,,2,,,64,63
684960,note_on,,,,,192,0,10,,,,6,,,64,63
684960,note_on,,,,,192,0,15,,,,13,,,45,63
684960,note_on,,,,,0,0,10,,,,6,,,76,63
684960,note_on,,,,,192,0,14,,,,12,,,57,63
684960,note_on,,,,,192,0,11,,,,7,,,52,63
684992,note_on,,,,,0,0,3,,,,1,,,80,0
684992,note_on,,,,,192,0,3,,,,1,,,76,0
684992,note_on,,,,,192,0,1,,,,0,,,76,0
684992,note_on,,,,,0,0,1,,,,0,,,80,0
684992,note_on,,,,,192,0,4,,,,2,,,68,0
684992,note_on,,,,,0,0,4,,,,2,,,64,0
684992,note_on,,,,,0,0,8,,,,4,,,64,0
684992,note_on,,,,,192,0,8,,,,4,,,68,0
685120,note_on,,,,,0,0,8,,,,4,,,64,63
685120,note_on,,,,,128,0,4,,,,2,,,69,63
685120,note_on,,,,,0,0,3,,,,1,,,81,63
685120,note_on,,,,,128,0,8,,,,4,,,52,63
685120,note_on,,,,,128,0,3,,,,1,,,85,63
685120,note_on,,,,,0,0,4,,,,2,,,73,63
685120,note_on,,,,,128,0,1,,,,0,,,81,63
685120,note_on,,,,,0,0,1,,,,0,,,85,63
685248,note_on,,,,,288,0,10,,,,6,,,76,0
685248,note_on,,,,,0,0,10,,,,6,,,64,0
685248,note_on,,,,,288,0,14,,,,12,,,57,0
685248,note_on,,,,,288,0,11,,,,7,,,52,0
685248,note_on,,,,,288,0,15,,,,13,,,45,0
685312,note_on,,,,,0,0,1,,,,0,,,81,0
685312,note_on,,,,,0,0,4,,,,2,,,69,0
685312,note_on,,,,,192,0,4,,,,2,,,73,0
685312,note_on,,,,,192,0,3,,,,1,,,81,0
685312,note_on,,,,,0,0,3,,,,1,,,85,0
685312,note_on,,,,,192,0,1,,,,0,,,85,0
685312,note_on,,,,,0,0,8,,,,4,,,52,0
685312,note_on,,,,,192,0,8,,,,4,,,64,0
685440,note_on,,,,,192,0,10,,,,6,,,76,63
685440,note_on,,,,,0,0,8,,,,4,,,52,63
685440,note_on,,,,,128,0,1,,,,0,,,83,63
685440,note_on,,,,,128,0,8,,,,4,,,64,63
685440,note_on,,,,,0,0,4,,,,2,,,71,63
685440,note_on,,,,,192,0,14,,,,12,,,64,63
685440,note_on,,,,,192,0,15,,,,13,,,52,63
685440,note_on,,,,,0,0,3,,,,1,,,83,63
685440,note_on,,,,,128,0,3,,,,1,,,80,63
685440,note_on,,,,,0,0,1,,,,0,,,80,63
685440,note_on,,,,,192,0,11,,,,7,,,52,63
685440,note_on,,,,,128,0,4,,,,2,,,68,63
685440,note_on,,,,,0,0,10,,,,6,,,64,63
685632,note_on,,,,,0,0,4,,,,2,,,68,0
685632,note_on,,,,,0,0,3,,,,1,,,80,0
685632,note_on,,,,,192,0,3,,,,1,,,83,0
685632,note_on,,,,,192,0,1,,,,0,,,80,0
685632,note_on,,,,,0,0,1,,,,0,,,83,0
685632,note_on,,,,,192,0,4,,,,2,,,71,0
685728,note_on,,,,,288,0,10,,,,6,,,64,0
685728,note_on,,,,,288,0,15,,,,13,,,52,0
685728,note_on,,,,,288,0,8,,,,4,,,52,0
685728,note_on,,,,,0,0,10,,,,6,,,76,0
685728,note_on,,,,,288,0,14,,,,12,,,64,0
685728,note_on,,,,,288,0,11,,,,7,,,52,0
685728,note_on,,,,,0,0,8,,,,4,,,64,0
685760,note_on,,,,,0,0,4,,,,2,,,68,63
685760,note_on,,,,,0,0,1,,,,0,,,76,63
685760,note_on,,,,,128,0,4,,,,2,,,64,63
685760,note_on,,,,,0,0,3,,,,1,,,76,63
685760,note_on,,,,,128,0,3,,,,1,,,80,63
685760,note_on,,,,,128,0,1,,,,0,,,80,63
685920,note_on,,,,,192,0,8,,,,4,,,56,63
685920,note_on,,,,,0,0,8,,,,4,,,64,63
685920,note_on,,,,,192,0,15,,,,13,,,56,63
685920,note_on,,,,,192,0,11,,,,7,,,52,63
685920,note_on,,,,,192,0,14,,,,12,,,68,63
685952,note_on,,,,,0,0,1,,,,0,,,80,0
685952,note_on,,,,,192,0,1,,,,0,,,76,0
685952,note_on,,,,,192,0,3,,,,1,,,76,0
685952,note_on,,,,,192,0,4,,,,2,,,68,0
685952,note_on,,,,,0,0,3,,,,1,,,80,0
685952,note_on,,,,,0,0,4,,,,2,,,64,0
686080,note_on,,,,,0,0,1,,,,0,,,88,63
686080,note_on,,,,,128,0,4,,,,2,,,76,63
686080,note_on,,,,,0,0,4,,,,2,,,64,63
686080,note_on,,,,,128,0,3,,,,1,,,88,63
686080,note_on,,,,,0,0,3,,,,1,,,76,63
686080,note_on,,,,,128,0,1,,,,0,,,76,63
686208,note_on,,,,,288,0,8,,,,4,,,64,0
686208,note_on,,,,,288,0,14,,,,12,,,68,0
686208,note_on,,,,,288,0,11,,,,7,,,52,0
686208,note_on,,,,,288,0,15,,,,13,,,56,0
686208,note_on,,,,,0,0,8,,,,4,,,56,0
686272,note_on,,,,,192,0,1,,,,0,,,88,0
686272,note_on,,,,,0,0,3,,,,1,,,88,0
686272,note_on,,,,,192,0,3,,,,1,,,76,0
686272,note_on,,,,,192,0,4,,,,2,,,64,0
686272,note_on,,,,,0,0,4,,,,2,,,76,0
686272,note_on,,,,,0,0,1,,,,0,,,76,0
686400,note_on,,,,,192,0,11,,,,7,,,47,63
686400,note_on,,,,,0,0,1,,,,0,,,83,63
686400,note_on,,,,,128,0,1,,,,0,,,75,63
686400,note_on,,,,,0,0,3,,,,1,,,75,63
686400,note_on,,,,,192,0,15,,,,13,,,59,63
686400,note_on,,,,,0,0,4,,,,2,,,63,63
686400,note_on,,,,,128,0,4,,,,2,,,71,63
686400,note_on,,,,,672,0,10,,,,6,,,59,63
686400,note_on,,,,,128,0,3,,,,1,,,83,63
686400,note_on,,,,,0,0,10,,,,6,,,71,63
686400,note_on,,,,,192,0,8,,,,4,,,66,63
686400,note_on,,,,,0,0,8,,,,4,,,59,63
686400,note_on,,,,,192,0,14,,,,12,,,71,63
686592,note_on,,,,,0,0,3,,,,1,,,83,0
686592,note_on,,,,,192,0,3,,,,1,,,75,0
686688,note_on,,,,,288,0,10,,,,6,,,71,0
686688,note_on,,,,,0,0,10,,,,6,,,59,0
686688,note_on,,,,,288,0,1,,,,0,,,83,0
686688,note_on,,,,,288,0,15,,,,13,,,59,0
686688,note_on,,,,,0,0,1,,,,0,,,75,0
686688,note_on,,,,,0,0,8,,,,4,,,66,0
686688,note_on,,,,,288,0,8,,,,4,,,59,0
686688,note_on,,,,,288,0,4,,,,2,,,63,0
686688,note_on,,,,,0,0,4,,,,2,,,71,0
686688,note_on,,,,,288,0,14,,,,12,,,71,0
686688,note_on,,,,,288,0,11,,,,7,,,47,0
686720,note_on,,,,,128,0,3,,,,1,,,78,63
686880,note_on,,,,,192,0,8,,,,4,,,59,63
686880,note_on,,,,,192,0,14,,,,12,,,59,63
686880,note_on,,,,,192,0,15,,,,13,,,47,63
686880,note_on,,,,,0,0,8,,,,4,,,66,63
686880,note_on,,,,,192,0,11,,,,7,,,47,63
686912,note_on,,,,,192,0,3,,,,1,,,78,0
687040,note_on,,,,,0,0,3,,,,1,,,75,63
687040,note_on,,,,,128,0,3,,,,1,,,83,63
687168,note_on,,,,,288,0,14,,,,12,,,59,0
687168,note_on,,,,,288,0,8,,,,4,,,66,0
687168,note_on,,,,,0,0,8,,,,4,,,59,0
687168,note_on,,,,,288,0,11,,,,7,,,47,0
687168,note_on,,,,,288,0,15,,,,13,,,47,0
687232,note_on,,,,,192,0,3,,,,1,,,75,0
687232,note_on,,,,,0,0,3,,,,1,,,83,0
687360,note_on,,,,,672,0,1,,,,0,,,88,63
687360,note_on,,,,,0,0,1,,,,0,,,85,63
687360,note_on,,,,,0,0,6,,,,3,,,52,63
687360,note_on,,,,,672,0,4,,,,2,,,73,63
687360,note_on,,,,,192,0,11,,,,7,,,52,38
687360,note_on,,,,,192,0,15,,,,13,,,46,60
687360,note_on,,,,,0,0,4,,,,2,,,76,63
687360,note_on,,,,,7488,0,6,,,,3,,,46,63
687360,note_on,,,,,7488,0,16,,,,14,,,34,63
687408,note_on,,,,,48,0,11,,,,7,,,52,0
687420,note_on,,,,,12,0,11,,,,7,,,52,38
687468,note_on,,,,,48,0,11,,,,7,,,52,0
687480,note_on,,,,,12,0,11,,,,7,,,52,38
687528,note_on,,,,,48,0,11,,,,7,,,52,0
687540,note_on,,,,,12,0,11,,,,7,,,52,38
687552,note_on,,,,,192,0,15,,,,13,,,46,0
687588,note_on,,,,,48,0,11,,,,7,,,52,0
687600,note_on,,,,,12,0,11,,,,7,,,52,38
687600,note_on,,,,,9600,0,13,,,,11,,,61,42
687600,note_on,,,,,48,0,15,,,,13,,,49,60
687600,note_on,,,,,8640,0,12,,,,10,,,61,58
687648,note_on,,,,,48,0,11,,,,7,,,52,0
687660,note_on,,,,,12,0,11,,,,7,,,52,38
687708,note_on,,,,,48,0,11,,,,7,,,52,0
687720,note_on,,,,,12,0,11,,,,7,,,52,38
687768,note_on,,,,,48,0,11,,,,7,,,52,0
687780,note_on,,,,,12,0,11,,,,7,,,52,38
687792,note_on,,,,,192,0,15,,,,13,,,49,0
687828,note_on,,,,,48,0,11,,,,7,,,52,0
687840,note_on,,,,,12,0,11,,,,7,,,52,38
687840,note_on,,,,,0,0,13,,,,11,,,64,42
687840,note_on,,,,,240,0,13,,,,11,,,61,0
687840,note_on,,,,,48,0,15,,,,13,,,52,60
687840,note_on,,,,,240,0,12,,,,10,,,61,0
687840,note_on,,,,,0,0,12,,,,10,,,64,58
687888,note_on,,,,,48,0,11,,,,7,,,52,0
687900,note_on,,,,,12,0,11,,,,7,,,52,38
687948,note_on,,,,,48,0,11,,,,7,,,52,0
687960,note_on,,,,,12,0,11,,,,7,,,52,38
688008,note_on,,,,,48,0,11,,,,7,,,52,0
688020,note_on,,,,,12,0,11,,,,7,,,52,38
688032,note_on,,,,,192,0,15,,,,13,,,52,0
688068,note_on,,,,,48,0,11,,,,7,,,52,0
688080,note_on,,,,,48,0,15,,,,13,,,54,60
688080,note_on,,,,,240,0,13,,,,11,,,64,0
688080,note_on,,,,,0,0,12,,,,10,,,66,58
688080,note_on,,,,,240,0,12,,,,10,,,64,0
688080,note_on,,,,,912,0,8,,,,4,,,64,63
688080,note_on,,,,,0,0,8,,,,4,,,52,63
688080,note_on,,,,,0,0,13,,,,11,,,66,42
688080,note_on,,,,,12,0,11,,,,7,,,52,38
688128,note_on,,,,,48,0,11,,,,7,,,52,0
688140,note_on,,,,,12,0,11,,,,7,,,52,38
688176,note_on,,,,,0,0,8,,,,4,,,64,0
688176,note_on,,,,,96,0,8,,,,4,,,52,0
688188,note_on,,,,,48,0,11,,,,7,,,52,0
688200,note_on,,,,,0,0,8,,,,4,,,52,63
688200,note_on,,,,,24,0,8,,,,4,,,64,63
688200,note_on,,,,,12,0,11,,,,7,,,52,38
688248,note_on,,,,,48,0,11,,,,7,,,52,0
688260,note_on,,,,,12,0,11,,,,7,,,52,38
688272,note_on,,,,,192,0,15,,,,13,,,54,0
688296,note_on,,,,,0,0,8,,,,4,,,64,0
688296,note_on,,,,,96,0,8,,,,4,,,52,0
688308,note_on,,,,,48,0,11,,,,7,,,52,0
688320,note_on,,,,,240,0,13,,,,11,,,66,0
688320,note_on,,,,,0,0,13,,,,11,,,69,42
688320,note_on,,,,,24,0,8,,,,4,,,52,63
688320,note_on,,,,,0,0,8,,,,4,,,64,63
688320,note_on,,,,,12,0,11,,,,7,,,52,38
688320,note_on,,,,,0,0,12,,,,10,,,69,58
688320,note_on,,,,,1632,0,10,,,,6,,,64,63
688320,note_on,,,,,0,0,10,,,,6,,,76,63
688320,note_on,,,,,48,0,15,,,,13,,,57,60
688320,note_on,,,,,240,0,12,,,,10,,,66,0
688368,note_on,,,,,48,0,11,,,,7,,,52,0
688380,note_on,,,,,12,0,11,,,,7,,,52,38
688428,note_on,,,,,48,0,11,,,,7,,,52,0
688440,note_on,,,,,12,0,11,,,,7,,,52,38
688488,note_on,,,,,48,0,11,,,,7,,,52,0
688500,note_on,,,,,12,0,11,,,,7,,,52,38
688512,note_on,,,,,192,0,15,,,,13,,,57,0
688548,note_on,,,,,48,0,11,,,,7,,,52,0
688560,note_on,,,,,0,0,13,,,,11,,,66,42
688560,note_on,,,,,240,0,13,,,,11,,,69,0
688560,note_on,,,,,12,0,11,,,,7,,,52,38
688560,note_on,,,,,48,0,15,,,,13,,,54,60
688560,note_on,,,,,240,0,12,,,,10,,,69,0
688560,note_on,,,,,0,0,12,,,,10,,,66,58
688608,note_on,,,,,48,0,11,,,,7,,,52,0
688620,note_on,,,,,12,0,11,,,,7,,,52,38
688668,note_on,,,,,48,0,11,,,,7,,,52,0
688680,note_on,,,,,12,0,11,,,,7,,,52,38
688728,note_on,,,,,48,0,11,,,,7,,,52,0
688740,note_on,,,,,12,0,11,,,,7,,,52,38
688752,note_on,,,,,192,0,15,,,,13,,,54,0
688788,note_on,,,,,48,0,11,,,,7,,,52,0
688800,note_on,,,,,0,0,12,,,,10,,,67,58
688800,note_on,,,,,240,0,12,,,,10,,,66,0
688800,note_on,,,,,240,0,13,,,,11,,,66,0
688800,note_on,,,,,0,0,13,,,,11,,,67,42
688800,note_on,,,,,12,0,11,,,,7,,,52,38
688800,note_on,,,,,48,0,15,,,,13,,,55,60
688848,note_on,,,,,48,0,11,,,,7,,,52,0
688860,note_on,,,,,12,0,11,,,,7,,,52,38
688908,note_on,,,,,48,0,11,,,,7,,,52,0
688920,note_on,,,,,12,0,11,,,,7,,,52,38
688968,note_on,,,,,48,0,11,,,,7,,,52,0
688980,note_on,,,,,12,0,11,,,,7,,,52,38
688992,note_on,,,,,192,0,15,,,,13,,,55,0
689028,note_on,,,,,48,0,11,,,,7,,,52,0
689040,note_on,,,,,12,0,11,,,,7,,,52,38
689040,note_on,,,,,240,0,12,,,,10,,,67,0
689040,note_on,,,,,0,0,12,,,,10,,,73,58
689040,note_on,,,,,48,0,15,,,,13,,,61,60
689040,note_on,,,,,240,0,13,,,,11,,,67,0
689040,note_on,,,,,0,0,13,,,,11,,,73,42
689088,note_on,,,,,48,0,11,,,,7,,,52,0
689100,note_on,,,,,12,0,11,,,,7,,,52,38
689148,note_on,,,,,48,0,11,,,,7,,,52,0
689160,note_on,,,,,12,0,11,,,,7,,,52,38
689208,note_on,,,,,48,0,11,,,,7,,,52,0
689220,note_on,,,,,12,0,11,,,,7,,,52,38
689232,note_on,,,,,192,0,15,,,,13,,,61,0
689268,note_on,,,,,48,0,11,,,,7,,,52,0
689280,note_on,,,,,12,0,11,,,,7,,,52,38
689280,note_on,,,,,240,0,12,,,,10,,,73,0
689280,note_on,,,,,0,0,12,,,,10,,,76,58
689280,note_on,,,,,240,0,13,,,,11,,,73,0
689280,note_on,,,,,2112,0,14,,,,12,,,64,63
689280,note_on,,,,,0,0,13,,,,11,,,64,42
689280,note_on,,,,,48,0,15,,,,13,,,64,57
689328,note_on,,,,,48,0,11,,,,7,,,52,0
689340,note_on,,,,,12,0,11,,,,7,,,52,38
689388,note_on,,,,,48,0,11,,,,7,,,52,0
689400,note_on,,,,,12,0,11,,,,7,,,52,38
689448,note_on,,,,,48,0,11,,,,7,,,52,0
689460,note_on,,,,,12,0,11,,,,7,,,52,38
689472,note_on,,,,,192,0,15,,,,13,,,64,0
689508,note_on,,,,,48,0,11,,,,7,,,52,0
689520,note_on,,,,,12,0,11,,,,7,,,52,38
689520,note_on,,,,,0,0,12,,,,10,,,78,58
689520,note_on,,,,,0,0,13,,,,11,,,66,63
689520,note_on,,,,,0,0,14,,,,12,,,66,38
689520,note_on,,,,,240,0,12,,,,10,,,76,0
689520,note_on,,,,,240,0,14,,,,12,,,64,0
689520,note_on,,,,,240,0,13,,,,11,,,64,0
689568,note_on,,,,,48,0,11,,,,7,,,52,0
689580,note_on,,,,,12,0,11,,,,7,,,52,38
689628,note_on,,,,,48,0,11,,,,7,,,52,0
689640,note_on,,,,,12,0,11,,,,7,,,52,38
689688,note_on,,,,,48,0,11,,,,7,,,52,0
689700,note_on,,,,,12,0,11,,,,7,,,52,38
689748,note_on,,,,,48,0,11,,,,7,,,52,0
689760,note_on,,,,,0,0,13,,,,11,,,69,63
689760,note_on,,,,,240,0,13,,,,11,,,66,0
689760,note_on,,,,,240,0,14,,,,12,,,66,0
689760,note_on,,,,,240,0,12,,,,10,,,78,0
689760,note_on,,,,,0,0,12,,,,10,,,81,58
689760,note_on,,,,,0,0,14,,,,12,,,69,38
689760,note_on,,,,,12,0,11,,,,7,,,52,38
689808,note_on,,,,,48,0,11,,,,7,,,52,0
689820,note_on,,,,,12,0,11,,,,7,,,52,38
689868,note_on,,,,,48,0,11,,,,7,,,52,0
689880,note_on,,,,,12,0,11,,,,7,,,52,38
689928,note_on,,,,,48,0,11,,,,7,,,52,0
689940,note_on,,,,,12,0,11,,,,7,,,52,38
689964,note_on,,,,,0,0,8,,,,4,,,52,0
689964,note_on,,,,,1644,0,8,,,,4,,,64,0
689988,note_on,,,,,48,0,11,,,,7,,,52,0
690000,note_on,,,,,0,0,8,,,,4,,,52,63
690000,note_on,,,,,36,0,8,,,,4,,,64,63
690000,note_on,,,,,12,0,11,,,,7,,,52,38
690000,note_on,,,,,240,0,14,,,,12,,,69,0
690000,note_on,,,,,0,0,14,,,,12,,,66,38
690000,note_on,,,,,0,0,12,,,,10,,,78,58
690000,note_on,,,,,240,0,12,,,,10,,,81,0
690000,note_on,,,,,240,0,13,,,,11,,,69,0
690000,note_on,,,,,0,0,13,,,,11,,,66,63
690048,note_on,,,,,48,0,11,,,,7,,,52,0
690060,note_on,,,,,12,0,11,,,,7,,,52,38
690096,note_on,,,,,96,0,8,,,,4,,,52,0
690096,note_on,,,,,0,0,8,,,,4,,,64,0
690108,note_on,,,,,48,0,11,,,,7,,,52,0
690120,note_on,,,,,12,0,11,,,,7,,,52,38
690120,note_on,,,,,0,0,8,,,,4,,,52,63
690120,note_on,,,,,24,0,8,,,,4,,,64,63
690168,note_on,,,,,48,0,11,,,,7,,,52,0
690180,note_on,,,,,12,0,11,,,,7,,,52,38
690192,note_on,,,,,0,0,10,,,,6,,,64,0
690192,note_on,,,,,1872,0,10,,,,6,,,76,0
690216,note_on,,,,,96,0,8,,,,4,,,52,0
690216,note_on,,,,,0,0,8,,,,4,,,64,0
690228,note_on,,,,,48,0,11,,,,7,,,52,0
690240,note_on,,,,,0,0,12,,,,10,,,79,58
690240,note_on,,,,,240,0,14,,,,12,,,66,0
690240,note_on,,,,,768,0,15,,,,13,,,46,63
690240,note_on,,,,,0,0,8,,,,4,,,52,63
690240,note_on,,,,,240,0,13,,,,11,,,66,0
690240,note_on,,,,,24,0,8,,,,4,,,64,63
690240,note_on,,,,,0,0,13,,,,11,,,67,63
690240,note_on,,,,,0,0,14,,,,12,,,67,38
690240,note_on,,,,,240,0,12,,,,10,,,78,0
690240,note_on,,,,,0,0,10,,,,6,,,76,63
690240,note_on,,,,,48,0,10,,,,6,,,64,63
690240,note_on,,,,,12,0,11,,,,7,,,52,38
690288,note_on,,,,,48,0,11,,,,7,,,52,0
690300,note_on,,,,,12,0,11,,,,7,,,52,38
690348,note_on,,,,,48,0,11,,,,7,,,52,0
690360,note_on,,,,,12,0,11,,,,7,,,52,38
690408,note_on,,,,,48,0,11,,,,7,,,52,0
690420,note_on,,,,,12,0,11,,,,7,,,52,38
690468,note_on,,,,,48,0,11,,,,7,,,52,0
690480,note_on,,,,,0,0,14,,,,12,,,73,38
690480,note_on,,,,,240,0,14,,,,12,,,67,0
690480,note_on,,,,,0,0,13,,,,11,,,73,63
690480,note_on,,,,,240,0,13,,,,11,,,67,0
690480,note_on,,,,,12,0,11,,,,7,,,52,38
690480,note_on,,,,,0,0,12,,,,10,,,85,58
690480,note_on,,,,,240,0,12,,,,10,,,79,0
690528,note_on,,,,,48,0,11,,,,7,,,52,0
690540,note_on,,,,,12,0,11,,,,7,,,52,38
690588,note_on,,,,,48,0,11,,,,7,,,52,0
690600,note_on,,,,,12,0,11,,,,7,,,52,38
690648,note_on,,,,,48,0,11,,,,7,,,52,0
690660,note_on,,,,,12,0,11,,,,7,,,52,38
690708,note_on,,,,,48,0,11,,,,7,,,52,0
690720,note_on,,,,,12,0,11,,,,7,,,52,38
690720,note_on,,,,,0,0,14,,,,12,,,76,38
690720,note_on,,,,,240,0,14,,,,12,,,73,0
690720,note_on,,,,,0,0,13,,,,11,,,76,63
690720,note_on,,,,,240,0,13,,,,11,,,73,0
690720,note_on,,,,,0,0,12,,,,10,,,88,58
690720,note_on,,,,,240,0,12,,,,10,,,85,0
690768,note_on,,,,,48,0,11,,,,7,,,52,0
690780,note_on,,,,,12,0,11,,,,7,,,52,38
690828,note_on,,,,,48,0,11,,,,7,,,52,0
690840,note_on,,,,,12,0,11,,,,7,,,52,38
690888,note_on,,,,,48,0,11,,,,7,,,52,0
690900,note_on,,,,,12,0,11,,,,7,,,52,38
690948,note_on,,,,,48,0,11,,,,7,,,52,0
690960,note_on,,,,,0,0,14,,,,12,,,73,38
690960,note_on,,,,,240,0,12,,,,10,,,88,0
690960,note_on,,,,,0,0,12,,,,10,,,85,58
690960,note_on,,,,,240,0,13,,,,11,,,76,0
690960,note_on,,,,,0,0,13,,,,11,,,73,63
690960,note_on,,,,,240,0,14,,,,12,,,76,0
690960,note_on,,,,,12,0,11,,,,7,,,52,38
691008,note_on,,,,,48,0,11,,,,7,,,52,0
691020,note_on,,,,,12,0,11,,,,7,,,52,38
691068,note_on,,,,,48,0,11,,,,7,,,52,0
691080,note_on,,,,,12,0,11,,,,7,,,52,38
691128,note_on,,,,,48,0,11,,,,7,,,52,0
691140,note_on,,,,,12,0,11,,,,7,,,52,38
691188,note_on,,,,,48,0,11,,,,7,,,52,0
691200,note_on,,,,,240,0,12,,,,10,,,85,0
691200,note_on,,,,,0,0,12,,,,10,,,79,58
691200,note_on,,,,,12,0,11,,,,7,,,52,38
691200,note_on,,,,,0,0,14,,,,12,,,67,38
691200,note_on,,,,,0,0,13,,,,11,,,79,63
691200,note_on,,,,,240,0,13,,,,11,,,73,0
691200,note_on,,,,,240,0,14,,,,12,,,73,0
691248,note_on,,,,,48,0,11,,,,7,,,52,0
691260,note_on,,,,,12,0,11,,,,7,,,52,38
691308,note_on,,,,,48,0,11,,,,7,,,52,0
691320,note_on,,,,,12,0,11,,,,7,,,52,38
691368,note_on,,,,,48,0,11,,,,7,,,52,0
691380,note_on,,,,,12,0,11,,,,7,,,52,38
691428,note_on,,,,,48,0,11,,,,7,,,52,0
691440,note_on,,,,,0,0,13,,,,11,,,76,63
691440,note_on,,,,,240,0,12,,,,10,,,79,0
691440,note_on,,,,,240,0,14,,,,12,,,67,0
691440,note_on,,,,,240,0,13,,,,11,,,79,0
691440,note_on,,,,,12,0,11,,,,7,,,52,38
691440,note_on,,,,,0,0,14,,,,12,,,64,38
691488,note_on,,,,,48,0,11,,,,7,,,52,0
691500,note_on,,,,,12,0,11,,,,7,,,52,38
691548,note_on,,,,,48,0,11,,,,7,,,52,0
691560,note_on,,,,,12,0,11,,,,7,,,52,38
691608,note_on,,,,,48,0,11,,,,7,,,52,0
691620,note_on,,,,,12,0,11,,,,7,,,52,38
691668,note_on,,,,,48,0,11,,,,7,,,52,0
691680,note_on,,,,,0,0,13,,,,11,,,73,63
691680,set_tempo,,,,,17760,1,0,428571,,,,,,,
691680,note_on,,,,,240,0,13,,,,11,,,76,0
691680,note_on,,,,,0,0,14,,,,12,,,61,38
691680,note_on,,,,,240,0,14,,,,12,,,64,0
691680,note_on,,,,,12,0,11,,,,7,,,52,38
691728,note_on,,,,,48,0,11,,,,7,,,52,0
691740,note_on,,,,,12,0,11,,,,7,,,52,38
691788,note_on,,,,,48,0,11,,,,7,,,52,0
691800,note_on,,,,,12,0,11,,,,7,,,52,38
691848,note_on,,,,,48,0,11,,,,7,,,52,0
691860,note_on,,,,,12,0,11,,,,7,,,52,38
691872,note_on,,,,,192,0,14,,,,12,,,61,0
691908,note_on,,,,,48,0,11,,,,7,,,52,0
691920,note_on,,,,,240,0,13,,,,11,,,73,0
691920,note_on,,,,,12,0,11,,,,7,,,52,38
691920,note_on,,,,,48,0,14,,,,12,,,66,38
691920,note_on,,,,,480,0,12,,,,10,,,78,58
691920,note_on,,,,,0,0,13,,,,11,,,66,63
691968,note_on,,,,,4608,0,1,,,,0,,,85,0
691968,note_on,,,,,0,0,1,,,,0,,,88,0
691968,note_on,,,,,48,0,11,,,,7,,,52,0
691968,note_on,,,,,4608,0,4,,,,2,,,76,0
691968,note_on,,,,,0,0,4,,,,2,,,73,0
691980,note_on,,,,,12,0,11,,,,7,,,52,38
692028,note_on,,,,,48,0,11,,,,7,,,52,0
692040,note_on,,,,,12,0,11,,,,7,,,52,38
692088,note_on,,,,,48,0,11,,,,7,,,52,0
692100,note_on,,,,,12,0,11,,,,7,,,52,38
692112,note_on,,,,,1872,0,8,,,,4,,,52,0
692112,note_on,,,,,1872,0,15,,,,13,,,46,0
692112,note_on,,,,,1872,0,10,,,,6,,,76,0
692112,note_on,,,,,0,0,6,,,,3,,,46,0
692112,note_on,,,,,4752,0,6,,,,3,,,52,0
692112,note_on,,,,,0,0,8,,,,4,,,64,0
692112,note_on,,,,,4752,0,16,,,,14,,,34,0
692112,note_on,,,,,0,0,10,,,,6,,,64,0
692148,note_on,,,,,48,0,11,,,,7,,,52,0
692160,note_on,,,,,12288,0,9,,,,5,,,61,63
692160,note_on,,,,,192,0,1,,,,0,,,79,63
692160,note_on,,,,,48,0,6,,,,3,,,45,63
692160,note_on,,,,,0,0,6,,,,3,,,57,63
692160,note_on,,,,,48,0,16,,,,14,,,45,63
692160,note_on,,,,,48,0,15,,,,13,,,57,63
692160,note_on,,,,,0,0,8,,,,4,,,64,63
692160,note_on,,,,,240,0,14,,,,12,,,66,0
692160,note_on,,,,,0,0,14,,,,12,,,67,38
692160,note_on,,,,,48,0,8,,,,4,,,52,63
692160,note_on,,,,,0,0,9,,,,5,,,64,63
692160,note_on,,,,,48,0,10,,,,6,,,76,63
692160,note_on,,,,,240,0,12,,,,10,,,78,0
692160,note_on,,,,,12,0,11,,,,7,,,52,58
692160,note_on,,,,,192,0,4,,,,2,,,67,63
692160,note_on,,,,,0,0,13,,,,11,,,67,63
692160,note_on,,,,,240,0,13,,,,11,,,66,0
692160,note_on,,,,,0,0,10,,,,6,,,64,63
692160,set_tempo,,,,,480,1,0,425532,,,,,,,
692160,note_on,,,,,4928,0,3,,,,1,,,73,63
692160,note_on,,,,,0,0,12,,,,10,,,79,58
692160,note_on,,,,,0,0,3,,,,1,,,76,63
692352,note_on,,,,,192,0,11,,,,7,,,52,0
692400,note_on,,,,,0,0,12,,,,10,,,76,58
692400,note_on,,,,,240,0,14,,,,12,,,67,0
692400,note_on,,,,,0,0,14,,,,12,,,64,38
692400,note_on,,,,,240,0,13,,,,11,,,67,0
692400,note_on,,,,,240,0,12,,,,10,,,79,0
692640,set_tempo,,,,,480,1,0,425532,,,,,,,
692640,note_on,,,,,240,0,12,,,,10,,,76,0
692640,note_on,,,,,240,0,14,,,,12,,,64,0
692640,note_on,,,,,0,0,14,,,,12,,,61,38
692640,note_on,,,,,0,0,12,,,,10,,,73,58
692880,note_on,,,,,480,0,13,,,,11,,,79,65
692880,note_on,,,,,0,0,14,,,,12,,,67,38
692880,note_on,,,,,0,0,12,,,,10,,,67,58
692880,note_on,,,,,240,0,12,,,,10,,,73,0
692880,note_on,,,,,240,0,14,,,,12,,,61,0
693072,note_on,,,,,912,0,15,,,,13,,,57,0
693072,note_on,,,,,912,0,16,,,,14,,,45,0
693120,note_on,,,,,960,0,1,,,,0,,,79,0
693120,note_on,,,,,240,0,14,,,,12,,,67,0
693120,note_on,,,,,0,0,14,,,,12,,,68,63
693120,note_on,,,,,0,0,1,,,,0,,,80,63
693120,note_on,,,,,0,0,6,,,,3,,,44,70
693120,note_on,,,,,48,0,15,,,,13,,,56,70
693120,note_on,,,,,960,0,4,,,,2,,,67,0
693120,note_on,,,,,0,0,4,,,,2,,,68,63
693120,note_on,,,,,48,0,16,,,,14,,,44,70
693120,note_on,,,,,0,0,6,,,,3,,,45,0
693120,note_on,,,,,0,0,6,,,,3,,,56,70
693120,note_on,,,,,240,0,12,,,,10,,,67,0
693120,note_on,,,,,240,0,13,,,,11,,,79,0
693120,note_on,,,,,0,0,13,,,,11,,,80,66
693120,note_on,,,,,0,0,12,,,,10,,,68,58
693120,note_on,,,,,960,0,6,,,,3,,,57,0
693360,note_on,,,,,0,0,14,,,,12,,,64,63
693360,note_on,,,,,240,0,14,,,,12,,,68,0
693360,note_on,,,,,240,0,12,,,,10,,,68,0
693360,note_on,,,,,0,0,13,,,,11,,,76,67
693360,note_on,,,,,240,0,13,,,,11,,,80,0
693600,set_tempo,,,,,960,1,0,422535,,,,,,,
693600,note_on,,,,,0,0,14,,,,12,,,61,63
693600,note_on,,,,,240,0,14,,,,12,,,64,0
693600,note_on,,,,,0,0,13,,,,11,,,73,68
693600,note_on,,,,,240,0,13,,,,11,,,76,0
693792,note_on,,,,,192,0,14,,,,12,,,61,0
693840,note_on,,,,,48,0,14,,,,12,,,68,63
693840,note_on,,,,,0,0,13,,,,11,,,68,69
693840,note_on,,,,,240,0,13,,,,11,,,73,0
693840,note_on,,,,,480,0,12,,,,10,,,80,66
693888,note_on,,,,,1728,0,3,,,,1,,,76,0
693888,note_on,,,,,0,0,3,,,,1,,,73,0
694032,note_on,,,,,912,0,15,,,,13,,,56,0
694032,note_on,,,,,912,0,16,,,,14,,,44,0
694032,note_on,,,,,1872,0,8,,,,4,,,64,0
694032,note_on,,,,,0,0,9,,,,5,,,61,0
694032,note_on,,,,,1872,0,9,,,,5,,,64,0
694032,note_on,,,,,1872,0,10,,,,6,,,64,0
694032,note_on,,,,,0,0,10,,,,6,,,76,0
694032,note_on,,,,,0,0,8,,,,4,,,52,0
694080,note_on,,,,,0,0,6,,,,3,,,43,70
694080,note_on,,,,,48,0,9,,,,5,,,61,70
694080,note_on,,,,,0,0,6,,,,3,,,55,70
694080,note_on,,,,,960,0,6,,,,3,,,56,0
694080,note_on,,,,,0,0,12,,,,10,,,81,69
694080,note_on,,,,,240,0,14,,,,12,,,68,0
694080,note_on,,,,,240,0,12,,,,10,,,80,0
694080,note_on,,,,,48,0,15,,,,13,,,55,70
694080,note_on,,,,,0,0,6,,,,3,,,44,0
694080,note_on,,,,,0,0,9,,,,5,,,64,70
694080,note_on,,,,,0,0,14,,,,12,,,69,63
694080,note_on,,,,,960,0,4,,,,2,,,68,0
694080,note_on,,,,,192,0,3,,,,1,,,73,70
694080,set_tempo,,,,,480,1,0,422535,,,,,,,
694080,note_on,,,,,240,0,13,,,,11,,,68,0
694080,note_on,,,,,0,0,13,,,,11,,,69,70
694080,note_on,,,,,0,0,4,,,,2,,,69,70
694080,note_on,,,,,48,0,8,,,,4,,,52,63
694080,note_on,,,,,0,0,3,,,,1,,,76,70
694080,note_on,,,,,48,0,10,,,,6,,,76,70
694080,note_on,,,,,48,0,16,,,,14,,,43,70
694080,note_on,,,,,0,0,1,,,,0,,,81,70
694080,note_on,,,,,960,0,1,,,,0,,,80,0
694080,note_on,,,,,0,0,10,,,,6,,,64,70
694080,note_on,,,,,0,0,8,,,,4,,,64,63
694320,note_on,,,,,240,0,13,,,,11,,,69,0
694320,note_on,,,,,240,0,12,,,,10,,,81,0
694320,note_on,,,,,0,0,14,,,,12,,,64,63
694320,note_on,,,,,240,0,14,,,,12,,,69,0
694320,note_on,,,,,0,0,12,,,,10,,,76,72
694560,set_tempo,,,,,480,1,0,422535,,,,,,,
694560,note_on,,,,,0,0,12,,,,10,,,73,74
694560,note_on,,,,,0,0,14,,,,12,,,61,63
694560,note_on,,,,,240,0,12,,,,10,,,76,0
694560,note_on,,,,,240,0,14,,,,12,,,64,0
694752,note_on,,,,,192,0,14,,,,12,,,61,0
694800,note_on,,,,,240,0,12,,,,10,,,73,0
694800,note_on,,,,,48,0,14,,,,12,,,69,63
694800,note_on,,,,,480,0,13,,,,11,,,81,74
694800,note_on,,,,,0,0,12,,,,10,,,69,77
694992,note_on,,,,,912,0,16,,,,14,,,43,0
694992,note_on,,,,,912,0,15,,,,13,,,55,0
695040,note_on,,,,,0,0,4,,,,2,,,70,80
695040,note_on,,,,,48,0,15,,,,13,,,54,80
695040,note_on,,,,,960,0,4,,,,2,,,69,0
695040,note_on,,,,,0,0,14,,,,12,,,70,70
695040,set_tempo,,,,,480,1,0,419580,,,,,,,
695040,note_on,,,,,48,0,16,,,,14,,,42,80
695040,note_on,,,,,240,0,13,,,,11,,,81,0
695040,note_on,,,,,960,0,1,,,,0,,,81,0
695040,note_on,,,,,0,0,12,,,,10,,,70,80
695040,note_on,,,,,240,0,14,,,,12,,,69,0
695040,note_on,,,,,0,0,6,,,,3,,,54,80
695040,note_on,,,,,0,0,13,,,,11,,,82,75
695040,note_on,,,,,0,0,6,,,,3,,,43,0
695040,note_on,,,,,960,0,6,,,,3,,,55,0
695040,note_on,,,,,0,0,1,,,,0,,,82,80
695040,note_on,,,,,240,0,12,,,,10,,,69,0
695040,note_on,,,,,0,0,6,,,,3,,,42,80
695280,note_on,,,,,240,0,13,,,,11,,,82,0
695280,note_on,,,,,240,0,14,,,,12,,,70,0
695280,note_on,,,,,0,0,14,,,,12,,,64,70
695280,note_on,,,,,0,0,13,,,,11,,,76,76
695280,note_on,,,,,240,0,12,,,,10,,,70,0
695520,set_tempo,,,,,480,1,0,419580,,,,,,,
695520,note_on,,,,,0,0,14,,,,12,,,61,70
695520,note_on,,,,,240,0,13,,,,11,,,76,0
695520,note_on,,,,,0,0,13,,,,11,,,73,77
695520,note_on,,,,,240,0,14,,,,12,,,64,0
695712,note_on,,,,,192,0,14,,,,12,,,61,0
695760,note_on,,,,,480,0,12,,,,10,,,76,89
695760,note_on,,,,,240,0,13,,,,11,,,73,0
695760,note_on,,,,,0,0,13,,,,11,,,70,78
695808,note_on,,,,,1728,0,3,,,,1,,,76,0
695808,note_on,,,,,0,0,3,,,,1,,,73,0
695952,note_on,,,,,0,0,6,,,,3,,,42,0
695952,note_on,,,,,912,0,6,,,,3,,,54,0
695952,note_on,,,,,192,0,13,,,,11,,,70,0
695952,note_on,,,,,1872,0,8,,,,4,,,64,0
695952,note_on,,,,,1872,0,9,,,,5,,,64,0
695952,note_on,,,,,0,0,8,,,,4,,,52,0
695952,note_on,,,,,0,0,9,,,,5,,,61,0
695952,note_on,,,,,912,0,15,,,,13,,,54,0
695952,note_on,,,,,0,0,10,,,,6,,,76,0
695952,note_on,,,,,1872,0,10,,,,6,,,64,0
695952,note_on,,,,,912,0,16,,,,14,,,42,0
696000,note_on,,,,,0,0,3,,,,1,,,76,92
696000,note_on,,,,,48,0,9,,,,5,,,61,70
696000,note_on,,,,,0,0,9,,,,5,,,64,70
696000,note_on,,,,,288,0,14,,,,12,,,61,80
696000,note_on,,,,,0,0,6,,,,3,,,54,80
696000,note_on,,,,,192,0,3,,,,1,,,73,92
696000,note_on,,,,,0,0,1,,,,0,,,85,92
696000,note_on,,,,,0,0,1,,,,0,,,88,92
696000,note_on,,,,,240,0,12,,,,10,,,76,0
696000,note_on,,,,,0,0,12,,,,10,,,88,91
696000,set_tempo,,,,,480,1,0,419580,,,,,,,
696000,note_on,,,,,48,0,10,,,,6,,,78,70
696000,note_on,,,,,0,0,10,,,,6,,,76,70
696000,note_on,,,,,0,0,14,,,,12,,,54,80
696000,note_on,,,,,48,0,8,,,,4,,,66,92
696000,note_on,,,,,960,0,1,,,,0,,,82,0
696000,note_on,,,,,0,0,4,,,,2,,,73,92
696000,note_on,,,,,48,0,6,,,,3,,,46,80
696000,note_on,,,,,0,0,4,,,,2,,,76,92
696000,note_on,,,,,48,0,16,,,,14,,,34,80
696000,note_on,,,,,960,0,4,,,,2,,,70,0
696000,note_on,,,,,48,0,15,,,,13,,,46,80
696000,note_on,,,,,48,0,13,,,,11,,,76,79
696192,note_on,,,,,192,0,13,,,,11,,,76,0
696240,note_on,,,,,240,0,12,,,,10,,,88,0
696240,note_on,,,,,48,0,13,,,,11,,,73,80
696240,note_on,,,,,0,0,12,,,,10,,,85,94
696480,note_on,,,,,240,0,13,,,,11,,,73,0
696480,note_on,,,,,240,0,12,,,,10,,,85,0
696480,set_tempo,,,,,480,1,0,416667,,,,,,,
696480,note_on,,,,,0,0,13,,,,11,,,70,82
696480,note_on,,,,,0,0,12,,,,10,,,82,97
696720,note_on,,,,,0,0,12,,,,10,,,78,100
696720,note_on,,,,,0,0,13,,,,11,,,66,83
696720,note_on,,,,,240,0,13,,,,11,,,70,0
696720,note_on,,,,,240,0,12,,,,10,,,82,0
696912,note_on,,,,,192,0,13,,,,11,,,66,0
696960,note_on,,,,,240,0,12,,,,10,,,78,0
696960,note_on,,,,,0,0,12,,,,10,,,76,103
696960,note_on,,,,,48,0,13,,,,11,,,76,92
697200,note_on,,,,,240,0,12,,,,10,,,76,0
697200,note_on,,,,,0,0,13,,,,11,,,73,92
697200,note_on,,,,,240,0,13,,,,11,,,76,0
697200,note_on,,,,,0,0,12,,,,10,,,73,106
697344,note_on,,,,,1344,0,14,,,,12,,,54,0
697344,note_on,,,,,0,0,14,,,,12,,,61,0
697344,note_on,,,,,1344,0,4,,,,2,,,73,0
697344,note_on,,,,,1344,0,1,,,,0,,,85,0
697344,note_on,,,,,0,0,4,,,,2,,,76,0
697344,note_on,,,,,1344,0,15,,,,13,,,46,0
697344,note_on,,,,,0,0,1,,,,0,,,88,0
697344,note_on,,,,,0,0,3,,,,1,,,73,0
697344,note_on,,,,,1344,0,3,,,,1,,,76,0
697344,note_on,,,,,1344,0,16,,,,14,,,34,0
697344,note_on,,,,,0,0,6,,,,3,,,46,0
697344,note_on,,,,,1344,0,6,,,,3,,,54,0
697416,note_on,,,,,1416,0,8,,,,4,,,66,0
697416,note_on,,,,,0,0,9,,,,5,,,61,0
697416,note_on,,,,,1416,0,9,,,,5,,,64,0
697416,note_on,,,,,0,0,10,,,,6,,,78,0
697416,note_on,,,,,1416,0,10,,,,6,,,76,0
697440,note_on,,,,,0,0,13,,,,11,,,66,92
697440,note_on,,,,,240,0,13,,,,11,,,73,0
697440,note_on,,,,,240,0,12,,,,10,,,73,0
697440,note_on,,,,,0,0,12,,,,10,,,66,108
697584,note_on,,,,,144,0,13,,,,11,,,66,0
697584,note_on,,,,,144,0,12,,,,10,,,66,0
697680,note_on,,,,,96,0,13,,,,11,,,68,92
697680,note_on,,,,,336,0,15,,,,13,,,47,105
697680,note_on,,,,,336,0,14,,,,12,,,64,92
697680,note_on,,,,,0,0,14,,,,12,,,56,92
697680,note_on,,,,,336,0,16,,,,14,,,35,105
697680,note_on,,,,,96,0,12,,,,10,,,76,111
697776,note_on,,,,,96,0,12,,,,10,,,76,0
697776,note_on,,,,,0,0,14,,,,12,,,64,0
697776,note_on,,,,,96,0,14,,,,12,,,56,0
697776,note_on,,,,,96,0,13,,,,11,,,68,0
697776,note_on,,,,,96,0,16,,,,14,,,35,0
697776,note_on,,,,,96,0,15,,,,13,,,47,0
697800,note_on,,,,,24,0,13,,,,11,,,71,92
697800,note_on,,,,,24,0,16,,,,14,,,35,105
697800,note_on,,,,,24,0,15,,,,13,,,47,105
697800,note_on,,,,,24,0,12,,,,10,,,78,125
697800,note_on,,,,,24,0,14,,,,12,,,59,92
697800,note_on,,,,,0,0,14,,,,12,,,66,92
697896,note_on,,,,,96,0,13,,,,11,,,71,0
697896,note_on,,,,,96,0,16,,,,14,,,35,0
697896,note_on,,,,,96,0,15,,,,13,,,47,0
697896,note_on,,,,,0,0,14,,,,12,,,59,0
697896,note_on,,,,,96,0,12,,,,10,,,78,0
697896,note_on,,,,,96,0,14,,,,12,,,66,0
697920,note_on,,,,,24,0,14,,,,12,,,68,92
697920,note_on,,,,,24,0,16,,,,14,,,47,105
697920,note_on,,,,,24,0,13,,,,11,,,76,92
697920,note_on,,,,,24,0,15,,,,13,,,59,105
697920,note_on,,,,,0,0,14,,,,12,,,64,92
697920,note_on,,,,,24,0,12,,,,10,,,80,105
698640,note_on,,,,,6288,0,11,,,,7,,,47,105
698640,note_on,,,,,1224,0,10,,,,6,,,59,92
698640,note_on,,,,,1224,0,8,,,,4,,,71,92
698640,note_on,,,,,0,0,8,,,,4,,,59,92
698640,note_on,,,,,0,0,10,,,,6,,,71,92
698736,note_on,,,,,96,0,11,,,,7,,,47,0
698736,note_on,,,,,96,0,10,,,,6,,,71,0
698736,note_on,,,,,0,0,10,,,,6,,,59,0
698736,note_on,,,,,0,0,8,,,,4,,,71,0
698736,note_on,,,,,96,0,8,,,,4,,,59,0
698760,note_on,,,,,0,0,10,,,,6,,,59,92
698760,note_on,,,,,24,0,8,,,,4,,,59,92
698760,note_on,,,,,0,0,8,,,,4,,,71,92
698760,note_on,,,,,24,0,11,,,,7,,,47,105
698760,note_on,,,,,24,0,10,,,,6,,,71,92
698856,note_on,,,,,0,0,10,,,,6,,,71,0
698856,note_on,,,,,96,0,11,,,,7,,,47,0
698856,note_on,,,,,96,0,10,,,,6,,,59,0
698856,note_on,,,,,96,0,8,,,,4,,,71,0
698856,note_on,,,,,0,0,8,,,,4,,,59,0
698880,note_on,,,,,0,0,10,,,,6,,,71,92
698880,note_on,,,,,24,0,10,,,,6,,,59,92
698880,note_on,,,,,0,0,8,,,,4,,,59,92
698880,note_on,,,,,24,0,8,,,,4,,,71,92
698880,note_on,,,,,24,0,11,,,,7,,,47,105
699264,note_on,,,,,1344,0,15,,,,13,,,59,0
699264,note_on,,,,,1344,0,12,,,,10,,,80,0
699264,note_on,,,,,1344,0,16,,,,14,,,47,0
699264,note_on,,,,,384,0,11,,,,7,,,47,0
699264,note_on,,,,,1344,0,13,,,,11,,,76,0
699264,note_on,,,,,1344,0,14,,,,12,,,64,0
699264,note_on,,,,,0,0,14,,,,12,,,68,0
699456,note_on,,,,,576,0,10,,,,6,,,71,0
699456,note_on,,,,,576,0,8,,,,4,,,59,0
699456,note_on,,,,,0,0,8,,,,4,,,71,0
699456,note_on,,,,,0,0,10,,,,6,,,59,0
699600,note_on,,,,,336,0,14,,,,12,,,66,92
699600,note_on,,,,,336,0,12,,,,10,,,78,105
699600,note_on,,,,,336,0,16,,,,14,,,35,105
699600,note_on,,,,,336,0,15,,,,13,,,47,105
699600,note_on,,,,,336,0,13,,,,11,,,71,92
699600,note_on,,,,,0,0,14,,,,12,,,59,92
699696,note_on,,,,,96,0,16,,,,14,,,35,0
699696,note_on,,,,,96,0,15,,,,13,,,47,0
699696,note_on,,,,,96,0,12,,,,10,,,78,0
699696,note_on,,,,,96,0,14,,,,12,,,59,0
699696,note_on,,,,,96,0,13,,,,11,,,71,0
699696,note_on,,,,,0,0,14,,,,12,,,66,0
699720,note_on,,,,,24,0,12,,,,10,,,80,105
699720,note_on,,,,,0,0,14,,,,12,,,68,92
699720,note_on,,,,,24,0,15,,,,13,,,47,105
699720,note_on,,,,,24,0,16,,,,14,,,35,105
699720,note_on,,,,,24,0,13,,,,11,,,76,92
699720,note_on,,,,,24,0,14,,,,12,,,64,92
699816,note_on,,,,,96,0,14,,,,12,,,68,0
699816,note_on,,,,,96,0,13,,,,11,,,76,0
699816,note_on,,,,,96,0,15,,,,13,,,47,0
699816,note_on,,,,,96,0,12,,,,10,,,80,0
699816,note_on,,,,,96,0,16,,,,14,,,35,0
699816,note_on,,,,,0,0,14,,,,12,,,64,0
699840,note_on,,,,,24,0,15,,,,13,,,59,105
699840,note_on,,,,,24,0,13,,,,11,,,78,92
699840,note_on,,,,,24,0,16,,,,14,,,47,105
699840,note_on,,,,,0,0,14,,,,12,,,66,92
699840,note_on,,,,,24,0,14,,,,12,,,69,92
699840,note_on,,,,,24,0,12,,,,10,,,81,105
700560,note_on,,,,,0,0,8,,,,4,,,71,92
700560,note_on,,,,,1104,0,8,,,,4,,,59,92
700560,note_on,,,,,1296,0,11,,,,7,,,47,105
700560,note_on,,,,,0,0,10,,,,6,,,71,92
700560,note_on,,,,,1104,0,10,,,,6,,,59,92
700656,note_on,,,,,96,0,11,,,,7,,,47,0
700656,note_on,,,,,0,0,10,,,,6,,,59,0
700656,note_on,,,,,96,0,10,,,,6,,,71,0
700656,note_on,,,,,96,0,8,,,,4,,,71,0
700656,note_on,,,,,0,0,8,,,,4,,,59,0
700680,note_on,,,,,0,0,8,,,,4,,,71,92
700680,note_on,,,,,24,0,11,,,,7,,,47,105
700680,note_on,,,,,24,0,10,,,,6,,,71,92
700680,note_on,,,,,0,0,10,,,,6,,,59,92
700680,note_on,,,,,24,0,8,,,,4,,,59,92
700776,note_on,,,,,96,0,8,,,,4,,,71,0
700776,note_on,,,,,96,0,10,,,,6,,,59,0
700776,note_on,,,,,0,0,10,,,,6,,,71,0
700776,note_on,,,,,96,0,11,,,,7,,,47,0
700776,note_on,,,,,0,0,8,,,,4,,,59,0
700800,note_on,,,,,24,0,8,,,,4,,,71,92
700800,note_on,,,,,24,0,10,,,,6,,,59,92
700800,note_on,,,,,0,0,10,,,,6,,,71,92
700800,note_on,,,,,24,0,11,,,,7,,,47,105
700800,note_on,,,,,0,0,8,,,,4,,,59,92
701184,note_on,,,,,1344,0,14,,,,12,,,66,0
701184,note_on,,,,,0,0,14,,,,12,,,69,0
701184,note_on,,,,,384,0,11,,,,7,,,47,0
701184,note_on,,,,,1344,0,13,,,,11,,,78,0
701184,note_on,,,,,1344,0,15,,,,13,,,59,0
701184,note_on,,,,,1344,0,16,,,,14,,,47,0
701184,note_on,,,,,1344,0,12,,,,10,,,81,0
701376,note_on,,,,,576,0,8,,,,4,,,59,0
701376,note_on,,,,,0,0,10,,,,6,,,59,0
701376,note_on,,,,,576,0,10,,,,6,,,71,0
701376,note_on,,,,,0,0,8,,,,4,,,71,0
701520,note_on,,,,,336,0,13,,,,11,,,76,92
701520,note_on,,,,,0,0,14,,,,12,,,68,92
701520,note_on,,,,,336,0,15,,,,13,,,40,105
701520,note_on,,,,,336,0,12,,,,10,,,80,105
701520,note_on,,,,,336,0,16,,,,14,,,28,105
701520,note_on,,,,,336,0,14,,,,12,,,64,92
701616,note_on,,,,,96,0,13,,,,11,,,76,0
701616,note_on,,,,,96,0,14,,,,12,,,68,0
701616,note_on,,,,,96,0,16,,,,14,,,28,0
701616,note_on,,,,,96,0,15,,,,13,,,40,0
701616,note_on,,,,,0,0,14,,,,12,,,64,0
701616,note_on,,,,,96,0,12,,,,10,,,80,0
701640,note_on,,,,,24,0,12,,,,10,,,81,105
701640,note_on,,,,,24,0,14,,,,12,,,66,92
701640,note_on,,,,,0,0,14,,,,12,,,69,92
701640,note_on,,,,,24,0,13,,,,11,,,78,92
701640,note_on,,,,,24,0,16,,,,14,,,28,105
701640,note_on,,,,,24,0,15,,,,13,,,40,105
701736,note_on,,,,,0,0,14,,,,12,,,66,0
701736,note_on,,,,,96,0,15,,,,13,,,40,0
701736,note_on,,,,,96,0,16,,,,14,,,28,0
701736,note_on,,,,,96,0,13,,,,11,,,78,0
701736,note_on,,,,,96,0,12,,,,10,,,81,0
701736,note_on,,,,,96,0,14,,,,12,,,69,0
701760,note_on,,,,,24,0,14,,,,12,,,71,92
701760,note_on,,,,,0,0,14,,,,12,,,68,92
701760,note_on,,,,,24,0,16,,,,14,,,40,105
701760,note_on,,,,,24,0,15,,,,13,,,52,105
701760,note_on,,,,,24,0,12,,,,10,,,83,105
701760,note_on,,,,,24,0,13,,,,11,,,80,92
701952,note_on,,,,,192,0,14,,,,12,,,68,0
701952,note_on,,,,,0,0,14,,,,12,,,71,0
701952,note_on,,,,,192,0,13,,,,11,,,80,0
701952,note_on,,,,,192,0,12,,,,10,,,83,0
702048,note_on,,,,,288,0,16,,,,14,,,40,0
702048,note_on,,,,,288,0,15,,,,13,,,52,0
702080,note_on,,,,,128,0,14,,,,12,,,64,92
702080,note_on,,,,,0,0,14,,,,12,,,68,92
702080,note_on,,,,,128,0,13,,,,11,,,76,92
702080,note_on,,,,,128,0,12,,,,10,,,80,105
702240,note_on,,,,,192,0,15,,,,13,,,45,125
702240,note_on,,,,,1056,0,11,,,,7,,,52,105
702240,note_on,,,,,0,0,10,,,,6,,,76,92
702240,note_on,,,,,192,0,16,,,,14,,,33,125
702240,note_on,,,,,864,0,10,,,,6,,,64,92
702240,note_on,,,,,0,0,8,,,,4,,,52,92
702240,note_on,,,,,864,0,8,,,,4,,,64,92
702272,note_on,,,,,192,0,14,,,,12,,,68,0
702272,note_on,,,,,192,0,12,,,,10,,,80,0
702272,note_on,,,,,192,0,13,,,,11,,,76,0
702272,note_on,,,,,0,0,14,,,,12,,,64,0
702400,note_on,,,,,128,0,14,,,,12,,,69,92
702400,note_on,,,,,0,0,14,,,,12,,,73,112
702400,note_on,,,,,128,0,12,,,,10,,,85,125
702400,note_on,,,,,128,0,13,,,,11,,,81,112
702528,note_on,,,,,288,0,8,,,,4,,,52,0
702528,note_on,,,,,288,0,15,,,,13,,,45,0
702528,note_on,,,,,0,0,10,,,,6,,,64,0
702528,note_on,,,,,288,0,16,,,,14,,,33,0
702528,note_on,,,,,288,0,10,,,,6,,,76,0
702528,note_on,,,,,0,0,8,,,,4,,,64,0
702528,note_on,,,,,288,0,11,,,,7,,,52,0
702592,note_on,,,,,192,0,12,,,,10,,,85,0
702592,note_on,,,,,0,0,14,,,,12,,,69,0
702592,note_on,,,,,192,0,14,,,,12,,,73,0
702592,note_on,,,,,192,0,13,,,,11,,,81,0
702720,note_on,,,,,128,0,13,,,,11,,,80,92
702720,note_on,,,,,0,0,14,,,,12,,,71,92
702720,note_on,,,,,192,0,10,,,,6,,,64,92
702720,note_on,,,,,192,0,11,,,,7,,,52,105
702720,note_on,,,,,128,0,12,,,,10,,,83,105
702720,note_on,,,,,0,0,10,,,,6,,,76,92
702720,note_on,,,,,128,0,14,,,,12,,,68,92
702720,note_on,,,,,192,0,16,,,,14,,,40,105
702720,note_on,,,,,192,0,15,,,,13,,,52,105
702720,note_on,,,,,192,0,8,,,,4,,,52,92
702720,note_on,,,,,0,0,8,,,,4,,,64,92
702912,note_on,,,,,192,0,13,,,,11,,,80,0
702912,note_on,,,,,192,0,12,,,,10,,,83,0
702912,note_on,,,,,0,0,14,,,,12,,,68,0
702912,note_on,,,,,192,0,14,,,,12,,,71,0
703008,note_on,,,,,288,0,8,,,,4,,,64,0
703008,note_on,,,,,0,0,10,,,,6,,,64,0
703008,note_on,,,,,288,0,10,,,,6,,,76,0
703008,note_on,,,,,288,0,15,,,,13,,,52,0
703008,note_on,,,,,0,0,8,,,,4,,,52,0
703008,note_on,,,,,288,0,16,,,,14,,,40,0
703008,note_on,,,,,288,0,11,,,,7,,,52,0
703040,note_on,,,,,128,0,14,,,,12,,,68,92
703040,note_on,,,,,0,0,14,,,,12,,,64,92
703040,note_on,,,,,128,0,13,,,,11,,,76,92
703040,note_on,,,,,128,0,12,,,,10,,,80,105
703200,note_on,,,,,192,0,15,,,,13,,,49,125
703200,note_on,,,,,0,0,10,,,,6,,,76,92
703200,note_on,,,,,192,0,10,,,,6,,,64,92
703200,note_on,,,,,192,0,11,,,,7,,,52,105
703200,note_on,,,,,192,0,16,,,,14,,,37,125
703200,note_on,,,,,192,0,8,,,,4,,,52,92
703200,note_on,,,,,0,0,8,,,,4,,,64,92
703232,note_on,,,,,192,0,12,,,,10,,,80,0
703232,note_on,,,,,192,0,13,,,,11,,,76,0
703232,note_on,,,,,192,0,14,,,,12,,,64,0
703232,note_on,,,,,0,0,14,,,,12,,,68,0
703360,note_on,,,,,128,0,12,,,,10,,,88,125
703360,note_on,,,,,128,0,13,,,,11,,,81,112
703360,note_on,,,,,0,0,14,,,,12,,,69,92
703360,note_on,,,,,128,0,14,,,,12,,,76,112
703488,note_on,,,,,0,0,10,,,,6,,,64,0
703488,note_on,,,,,288,0,10,,,,6,,,76,0
703488,note_on,,,,,288,0,16,,,,14,,,37,0
703488,note_on,,,,,0,0,8,,,,4,,,52,0
703488,note_on,,,,,288,0,15,,,,13,,,49,0
703488,note_on,,,,,288,0,8,,,,4,,,64,0
703488,note_on,,,,,288,0,11,,,,7,,,52,0
703552,note_on,,,,,0,0,14,,,,12,,,76,0
703552,note_on,,,,,192,0,14,,,,12,,,69,0
703552,note_on,,,,,192,0,12,,,,10,,,88,0
703552,note_on,,,,,192,0,13,,,,11,,,81,0
703680,note_on,,,,,0,0,8,,,,4,,,52,92
703680,note_on,,,,,192,0,16,,,,14,,,40,105
703680,note_on,,,,,0,0,10,,,,6,,,76,92
703680,note_on,,,,,192,0,15,,,,13,,,52,105
703680,note_on,,,,,128,0,13,,,,11,,,80,92
703680,note_on,,,,,192,0,8,,,,4,,,64,92
703680,note_on,,,,,192,0,11,,,,7,,,52,105
703680,note_on,,,,,128,0,12,,,,10,,,83,105
703680,note_on,,,,,0,0,14,,,,12,,,68,92
703680,note_on,,,,,128,0,14,,,,12,,,71,92
703680,note_on,,,,,192,0,10,,,,6,,,64,92
703872,note_on,,,,,192,0,12,,,,10,,,83,0
703872,note_on,,,,,0,0,14,,,,12,,,71,0
703872,note_on,,,,,192,0,13,,,,11,,,80,0
703872,note_on,,,,,192,0,14,,,,12,,,68,0
703968,note_on,,,,,288,0,16,,,,14,,,40,0
703968,note_on,,,,,0,0,10,,,,6,,,64,0
703968,note_on,,,,,288,0,10,,,,6,,,76,0
703968,note_on,,,,,0,0,8,,,,4,,,64,0
703968,note_on,,,,,288,0,8,,,,4,,,52,0
703968,note_on,,,,,288,0,15,,,,13,,,52,0
703968,note_on,,,,,288,0,11,,,,7,,,52,0
704000,note_on,,,,,128,0,13,,,,11,,,76,92
704000,note_on,,,,,128,0,12,,,,10,,,80,105
704000,note_on,,,,,128,0,14,,,,12,,,68,92
704000,note_on,,,,,0,0,14,,,,12,,,64,92
704160,note_on,,,,,192,0,15,,,,13,,,56,105
704160,note_on,,,,,192,0,16,,,,14,,,44,105
704192,note_on,,,,,192,0,12,,,,10,,,80,0
704192,note_on,,,,,0,0,14,,,,12,,,68,0
704192,note_on,,,,,192,0,13,,,,11,,,76,0
704192,note_on,,,,,192,0,14,,,,12,,,64,0
704320,note_on,,,,,0,0,14,,,,12,,,64,92
704320,note_on,,,,,128,0,13,,,,11,,,71,92
704320,note_on,,,,,128,0,14,,,,12,,,59,92
704320,note_on,,,,,128,0,12,,,,10,,,76,105
704400,note_on,,,,,432,0,11,,,,7,,,47,105
704400,note_on,,,,,0,0,10,,,,6,,,59,92
704400,note_on,,,,,432,0,8,,,,4,,,59,92
704400,note_on,,,,,0,0,8,,,,4,,,71,92
704400,note_on,,,,,432,0,10,,,,6,,,71,92
704448,note_on,,,,,288,0,16,,,,14,,,44,0
704448,note_on,,,,,288,0,15,,,,13,,,56,0
704496,note_on,,,,,96,0,11,,,,7,,,47,0
704496,note_on,,,,,0,0,10,,,,6,,,71,0
704496,note_on,,,,,0,0,8,,,,4,,,59,0
704496,note_on,,,,,96,0,10,,,,6,,,59,0
704496,note_on,,,,,96,0,8,,,,4,,,71,0
704512,note_on,,,,,192,0,14,,,,12,,,64,0
704512,note_on,,,,,192,0,13,,,,11,,,71,0
704512,note_on,,,,,192,0,12,,,,10,,,76,0
704512,note_on,,,,,0,0,14,,,,12,,,59,0
704520,note_on,,,,,24,0,10,,,,6,,,59,92
704520,note_on,,,,,0,0,8,,,,4,,,71,92
704520,note_on,,,,,24,0,8,,,,4,,,59,92
704520,note_on,,,,,0,0,10,,,,6,,,71,92
704520,note_on,,,,,24,0,11,,,,7,,,47,105
704616,note_on,,,,,96,0,11,,,,7,,,47,0
704616,note_on,,,,,96,0,10,,,,6,,,71,0
704616,note_on,,,,,0,0,8,,,,4,,,59,0
704616,note_on,,,,,96,0,8,,,,4,,,71,0
704616,note_on,,,,,0,0,10,,,,6,,,59,0
704640,note_on,,,,,128,0,12,,,,10,,,78,105
704640,note_on,,,,,24,0,11,,,,7,,,47,105
704640,note_on,,,,,128,0,14,,,,12,,,66,92
704640,note_on,,,,,192,0,15,,,,13,,,59,105
704640,note_on,,,,,0,0,14,,,,12,,,59,92
704640,note_on,,,,,192,0,16,,,,14,,,47,105
704640,note_on,,,,,24,0,8,,,,4,,,71,92
704640,note_on,,,,,0,0,8,,,,4,,,59,92
704640,note_on,,,,,128,0,13,,,,11,,,75,105
704640,note_on,,,,,0,0,10,,,,6,,,59,92
704640,note_on,,,,,24,0,10,,,,6,,,71,92
705024,note_on,,,,,384,0,11,,,,7,,,47,0
705216,note_on,,,,,0,0,10,,,,6,,,71,0
705216,note_on,,,,,576,0,10,,,,6,,,59,0
705216,note_on,,,,,576,0,12,,,,10,,,78,0
705216,note_on,,,,,576,0,14,,,,12,,,59,0
705216,note_on,,,,,0,0,14,,,,12,,,66,0
705216,note_on,,,,,576,0,13,,,,11,,,75,0
705216,note_on,,,,,0,0,8,,,,4,,,71,0
705216,note_on,,,,,576,0,16,,,,14,,,47,0
705216,note_on,,,,,576,0,15,,,,13,,,59,0
705216,note_on,,,,,576,0,8,,,,4,,,59,0
705360,note_on,,,,,0,0,8,,,,4,,,71,92
705360,note_on,,,,,144,0,8,,,,4,,,59,92
705360,note_on,,,,,144,0,10,,,,6,,,59,92
705360,note_on,,,,,0,0,10,,,,6,,,71,92
705456,note_on,,,,,0,0,10,,,,6,,,59,0
705456,note_on,,,,,96,0,10,,,,6,,,71,0
705456,note_on,,,,,96,0,8,,,,4,,,71,0
705456,note_on,,,,,0,0,8,,,,4,,,59,0
705480,note_on,,,,,24,0,10,,,,6,,,71,92
705480,note_on,,,,,0,0,10,,,,6,,,59,92
705480,note_on,,,,,24,0,8,,,,4,,,71,92
705480,note_on,,,,,0,0,8,,,,4,,,59,92
705576,note_on,,,,,96,0,10,,,,6,,,59,0
705576,note_on,,,,,96,0,8,,,,4,,,59,0
705576,note_on,,,,,0,0,8,,,,4,,,71,0
705576,note_on,,,,,0,0,10,,,,6,,,71,0
705600,note_on,,,,,8256,0,6,,,,3,,,59,92
705600,note_on,,,,,8256,0,3,,,,1,,,71,92
705600,note_on,,,,,24,0,10,,,,6,,,71,92
705600,note_on,,,,,0,0,10,,,,6,,,59,92
705600,note_on,,,,,8256,0,1,,,,0,,,71,92
705600,note_on,,,,,24,0,8,,,,4,,,71,92
705600,note_on,,,,,0,0,8,,,,4,,,59,92
705600,note_on,,,,,8256,0,4,,,,2,,,59,80
705920,note_on,,,,,0,0,4,,,,2,,,56,80
705920,note_on,,,,,320,0,6,,,,3,,,59,0
705920,note_on,,,,,320,0,3,,,,1,,,71,0
705920,note_on,,,,,0,0,3,,,,1,,,76,92
705920,note_on,,,,,0,0,3,,,,1,,,68,92
705920,note_on,,,,,0,0,6,,,,3,,,64,92
705920,note_on,,,,,0,0,6,,,,3,,,56,92
705920,note_on,,,,,320,0,1,,,,0,,,71,0
705920,note_on,,,,,320,0,4,,,,2,,,59,0
705920,note_on,,,,,0,0,1,,,,0,,,76,92
705920,note_on,,,,,0,0,4,,,,2,,,64,80
705920,note_on,,,,,0,0,1,,,,0,,,68,92
706240,note_on,,,,,0,0,3,,,,1,,,71,92
706240,note_on,,,,,0,0,4,,,,2,,,59,80
706240,note_on,,,,,0,0,4,,,,2,,,56,0
706240,note_on,,,,,320,0,4,,,,2,,,64,0
706240,note_on,,,,,320,0,3,,,,1,,,68,0
706240,note_on,,,,,0,0,1,,,,0,,,71,92
706240,note_on,,,,,320,0,1,,,,0,,,76,0
706240,note_on,,,,,0,0,1,,,,0,,,68,0
706240,note_on,,,,,0,0,1,,,,0,,,78,92
706240,note_on,,,,,0,0,3,,,,1,,,78,92
706240,note_on,,,,,0,0,3,,,,1,,,76,0
706240,note_on,,,,,0,0,4,,,,2,,,66,80
706240,note_on,,,,,0,0,6,,,,3,,,59,92
706240,note_on,,,,,0,0,6,,,,3,,,64,0
706240,note_on,,,,,320,0,6,,,,3,,,56,0
706240,note_on,,,,,0,0,6,,,,3,,,54,92
706560,note_on,,,,,0,0,1,,,,0,,,78,0
706560,note_on,,,,,320,0,1,,,,0,,,71,0
706560,note_on,,,,,0,0,6,,,,3,,,64,92
706560,note_on,,,,,0,0,3,,,,1,,,80,92
706560,note_on,,,,,0,0,3,,,,1,,,76,92
706560,note_on,,,,,0,0,6,,,,3,,,52,92
706560,note_on,,,,,0,0,6,,,,3,,,59,0
706560,note_on,,,,,320,0,6,,,,3,,,54,0
706560,note_on,,,,,320,0,4,,,,2,,,66,0
706560,note_on,,,,,0,0,4,,,,2,,,64,80
706560,note_on,,,,,0,0,4,,,,2,,,68,80
706560,note_on,,,,,0,0,4,,,,2,,,59,0
706560,note_on,,,,,320,0,3,,,,1,,,71,0
706560,note_on,,,,,0,0,3,,,,1,,,78,0
706560,note_on,,,,,0,0,1,,,,0,,,76,92
706560,note_on,,,,,0,0,1,,,,0,,,80,92
706880,note_on,,,,,0,0,6,,,,3,,,47,105
706880,note_on,,,,,320,0,6,,,,3,,,64,0
706880,note_on,,,,,0,0,6,,,,3,,,59,105
706880,note_on,,,,,0,0,1,,,,0,,,76,0
706880,note_on,,,,,0,0,1,,,,0,,,83,92
706880,note_on,,,,,0,0,1,,,,0,,,78,92
706880,note_on,,,,,0,0,4,,,,2,,,66,80
706880,note_on,,,,,0,0,4,,,,2,,,71,80
706880,note_on,,,,,320,0,3,,,,1,,,76,0
706880,note_on,,,,,0,0,3,,,,1,,,80,0
706880,note_on,,,,,0,0,3,,,,1,,,83,105
706880,note_on,,,,,0,0,3,,,,1,,,78,105
706880,note_on,,,,,0,0,4,,,,2,,,68,0
706880,note_on,,,,,320,0,4,,,,2,,,64,0
706880,note_on,,,,,320,0,1,,,,0,,,80,0
706880,note_on,,,,,0,0,6,,,,3,,,52,0
707200,note_on,,,,,0,0,4,,,,2,,,71,0
707200,note_on,,,,,320,0,4,,,,2,,,66,0
707200,note_on,,,,,0,0,6,,,,3,,,44,105
707200,note_on,,,,,0,0,3,,,,1,,,83,0
707200,note_on,,,,,0,0,3,,,,1,,,80,105
707200,note_on,,,,,0,0,3,,,,1,,,88,105
707200,note_on,,,,,0,0,6,,,,3,,,59,0
707200,note_on,,,,,320,0,3,,,,1,,,78,0
707200,note_on,,,,,0,0,1,,,,0,,,88,105
707200,note_on,,,,,0,0,1,,,,0,,,80,105
707200,note_on,,,,,0,0,4,,,,2,,,76,92
707200,note_on,,,,,320,0,1,,,,0,,,78,0
707200,note_on,,,,,0,0,6,,,,3,,,56,105
707200,note_on,,,,,320,0,6,,,,3,,,47,0
707200,note_on,,,,,0,0,4,,,,2,,,68,92
707200,note_on,,,,,0,0,1,,,,0,,,83,0
707520,note_on,,,,,320,0,1,,,,0,,,88,0
707520,note_on,,,,,320,0,6,,,,3,,,56,0
707520,note_on,,,,,0,0,1,,,,0,,,80,0
707520,note_on,,,,,0,0,1,,,,0,,,83,105
707520,note_on,,,,,0,0,1,,,,0,,,78,105
707520,note_on,,,,,0,0,4,,,,2,,,71,92
707520,note_on,,,,,0,0,4,,,,2,,,66,92
707520,note_on,,,,,0,0,4,,,,2,,,76,0
707520,note_on,,,,,320,0,4,,,,2,,,68,0
707520,note_on,,,,,0,0,6,,,,3,,,44,0
707520,note_on,,,,,0,0,3,,,,1,,,83,105
707520,note_on,,,,,0,0,6,,,,3,,,59,92
707520,note_on,,,,,0,0,3,,,,1,,,78,105
707520,note_on,,,,,0,0,3,,,,1,,,88,0
707520,note_on,,,,,320,0,3,,,,1,,,80,0
707520,note_on,,,,,0,0,6,,,,3,,,47,92
707840,note_on,,,,,320,0,6,,,,3,,,59,0
707840,note_on,,,,,320,0,3,,,,1,,,83,0
707840,note_on,,,,,0,0,3,,,,1,,,80,105
707840,note_on,,,,,0,0,3,,,,1,,,76,105
707840,note_on,,,,,0,0,3,,,,1,,,78,0
707840,note_on,,,,,0,0,6,,,,3,,,64,92
707840,note_on,,,,,0,0,6,,,,3,,,47,0
707840,note_on,,,,,320,0,1,,,,0,,,78,0
707840,note_on,,,,,0,0,1,,,,0,,,83,0
707840,note_on,,,,,0,0,1,,,,0,,,80,105
707840,note_on,,,,,0,0,6,,,,3,,,52,92
707840,note_on,,,,,320,0,4,,,,2,,,71,0
707840,note_on,,,,,0,0,4,,,,2,,,64,92
707840,note_on,,,,,0,0,4,,,,2,,,68,92
707840,note_on,,,,,0,0,4,,,,2,,,66,0
707840,note_on,,,,,0,0,1,,,,0,,,76,105
708096,note_on,,,,,0,0,8,,,,4,,,71,0
708096,note_on,,,,,2496,0,8,,,,4,,,59,0
708096,note_on,,,,,0,0,10,,,,6,,,71,0
708096,note_on,,,,,2496,0,10,,,,6,,,59,0
708160,note_on,,,,,0,0,3,,,,1,,,76,92
708160,note_on,,,,,320,0,1,,,,0,,,76,0
708160,note_on,,,,,0,0,3,,,,1,,,76,0
708160,note_on,,,,,0,0,1,,,,0,,,71,92
708160,note_on,,,,,0,0,1,,,,0,,,76,92
708160,note_on,,,,,0,0,1,,,,0,,,80,0
708160,note_on,,,,,0,0,3,,,,1,,,71,92
708160,note_on,,,,,320,0,3,,,,1,,,80,0
708160,note_on,,,,,320,0,6,,,,3,,,52,0
708160,note_on,,,,,0,0,6,,,,3,,,64,0
708160,note_on,,,,,0,0,6,,,,3,,,56,92
708160,note_on,,,,,320,0,4,,,,2,,,64,0
708160,note_on,,,,,0,0,4,,,,2,,,68,0
708160,note_on,,,,,0,0,4,,,,2,,,59,80
708160,note_on,,,,,0,0,4,,,,2,,,64,80
708240,note_on,,,,,0,0,10,,,,6,,,71,92
708240,note_on,,,,,144,0,10,,,,6,,,59,92
708240,note_on,,,,,144,0,8,,,,4,,,59,92
708240,note_on,,,,,0,0,8,,,,4,,,71,92
708336,note_on,,,,,96,0,10,,,,6,,,71,0
708336,note_on,,,,,0,0,10,,,,6,,,59,0
708336,note_on,,,,,0,0,8,,,,4,,,59,0
708336,note_on,,,,,96,0,8,,,,4,,,71,0
708360,note_on,,,,,24,0,8,,,,4,,,59,92
708360,note_on,,,,,24,0,10,,,,6,,,71,92
708360,note_on,,,,,0,0,10,,,,6,,,59,92
708360,note_on,,,,,0,0,8,,,,4,,,71,92
708456,note_on,,,,,96,0,8,,,,4,,,71,0
708456,note_on,,,,,0,0,8,,,,4,,,59,0
708456,note_on,,,,,96,0,10,,,,6,,,59,0
708456,note_on,,,,,0,0,10,,,,6,,,71,0
708480,note_on,,,,,24,0,10,,,,6,,,59,92
708480,note_on,,,,,0,0,10,,,,6,,,71,92
708480,note_on,,,,,0,0,4,,,,2,,,64,0
708480,note_on,,,,,0,0,4,,,,2,,,63,80
708480,note_on,,,,,0,0,4,,,,2,,,66,80
708480,note_on,,,,,320,0,4,,,,2,,,59,0
708480,note_on,,,,,0,0,1,,,,0,,,78,92
708480,note_on,,,,,320,0,3,,,,1,,,76,0
708480,note_on,,,,,320,0,1,,,,0,,,71,0
708480,note_on,,,,,0,0,1,,,,0,,,76,0
708480,note_on,,,,,0,0,1,,,,0,,,75,92
708480,note_on,,,,,0,0,8,,,,4,,,71,92
708480,note_on,,,,,24,0,8,,,,4,,,59,92
708480,note_on,,,,,0,0,3,,,,1,,,71,0
708480,note_on,,,,,0,0,6,,,,3,,,59,92
708480,note_on,,,,,320,0,6,,,,3,,,56,0
708480,note_on,,,,,0,0,3,,,,1,,,78,92
708480,note_on,,,,,0,0,3,,,,1,,,75,92
709056,note_on,,,,,0,0,1,,,,0,,,75,0
709056,note_on,,,,,576,0,10,,,,6,,,71,0
709056,note_on,,,,,0,0,10,,,,6,,,59,0
709056,note_on,,,,,576,0,4,,,,2,,,66,0
709056,note_on,,,,,576,0,3,,,,1,,,78,0
709056,note_on,,,,,0,0,3,,,,1,,,75,0
709056,note_on,,,,,0,0,4,,,,2,,,63,0
709056,note_on,,,,,576,0,1,,,,0,,,78,0
709056,note_on,,,,,576,0,6,,,,3,,,59,0
709056,note_on,,,,,576,0,8,,,,4,,,71,0
709056,note_on,,,,,0,0,8,,,,4,,,59,0
709200,note_on,,,,,3984,0,12,,,,10,,,80,116
709200,note_on,,,,,144,0,8,,,,4,,,59,92
709200,note_on,,,,,144,0,10,,,,6,,,71,92
709200,note_on,,,,,0,0,10,,,,6,,,59,92
709200,note_on,,,,,3984,0,13,,,,11,,,71,105
709200,note_on,,,,,3984,0,14,,,,12,,,68,105
709200,note_on,,,,,0,0,14,,,,12,,,59,105
709200,note_on,,,,,0,0,8,,,,4,,,71,92
709296,note_on,,,,,96,0,10,,,,6,,,59,0
709296,note_on,,,,,0,0,8,,,,4,,,59,0
709296,note_on,,,,,96,0,14,,,,12,,,59,0
709296,note_on,,,,,0,0,14,,,,12,,,68,0
709296,note_on,,,,,96,0,12,,,,10,,,80,0
709296,note_on,,,,,0,0,10,,,,6,,,71,0
709296,note_on,,,,,96,0,8,,,,4,,,71,0
709296,note_on,,,,,96,0,13,,,,11,,,71,0
709320,note_on,,,,,24,0,14,,,,12,,,63,105
709320,note_on,,,,,24,0,10,,,,6,,,59,92
709320,note_on,,,,,0,0,10,,,,6,,,71,92
709320,note_on,,,,,0,0,14,,,,12,,,70,105
709320,note_on,,,,,24,0,8,,,,4,,,59,92
709320,note_on,,,,,24,0,13,,,,11,,,75,105
709320,note_on,,,,,24,0,12,,,,10,,,82,116
709320,note_on,,,,,0,0,8,,,,4,,,71,92
709416,note_on,,,,,96,0,10,,,,6,,,71,0
709416,note_on,,,,,0,0,10,,,,6,,,59,0
709416,note_on,,,,,96,0,13,,,,11,,,75,0
709416,note_on,,,,,96,0,12,,,,10,,,82,0
709416,note_on,,,,,0,0,8,,,,4,,,59,0
709416,note_on,,,,,96,0,14,,,,12,,,70,0
709416,note_on,,,,,0,0,14,,,,12,,,63,0
709416,note_on,,,,,96,0,8,,,,4,,,71,0
709440,note_on,,,,,24,0,12,,,,10,,,83,116
709440,note_on,,,,,24,0,14,,,,12,,,68,105
709440,note_on,,,,,24,0,13,,,,11,,,80,105
709440,note_on,,,,,0,0,14,,,,12,,,71,105
709440,note_on,,,,,0,0,10,,,,6,,,59,92
709440,note_on,,,,,24,0,8,,,,4,,,71,92
709440,note_on,,,,,0,0,8,,,,4,,,59,92
709440,note_on,,,,,24,0,10,,,,6,,,71,92
710160,note_on,,,,,4944,0,15,,,,13,,,47,105
710160,note_on,,,,,0,0,15,,,,13,,,59,105
710160,note_on,,,,,4944,0,16,,,,14,,,35,105
710256,note_on,,,,,96,0,16,,,,14,,,35,0
710256,note_on,,,,,96,0,15,,,,13,,,59,0
710256,note_on,,,,,0,0,15,,,,13,,,47,0
710280,note_on,,,,,24,0,16,,,,14,,,35,105
710280,note_on,,,,,24,0,15,,,,13,,,47,105
710280,note_on,,,,,0,0,15,,,,13,,,59,105
710376,note_on,,,,,96,0,16,,,,14,,,35,0
710376,note_on,,,,,0,0,15,,,,13,,,47,0
710376,note_on,,,,,96,0,15,,,,13,,,59,0
710400,note_on,,,,,24,0,16,,,,14,,,39,105
710400,note_on,,,,,0,0,15,,,,13,,,51,105
710400,note_on,,,,,24,0,15,,,,13,,,63,105
710784,note_on,,,,,1344,0,12,,,,10,,,83,0
710784,note_on,,,,,1344,0,14,,,,12,,,71,0
710784,note_on,,,,,0,0,14,,,,12,,,68,0
710784,note_on,,,,,1344,0,13,,,,11,,,80,0
710976,note_on,,,,,0,0,8,,,,4,,,71,0
710976,note_on,,,,,0,0,10,,,,6,,,71,0
710976,note_on,,,,,1536,0,10,,,,6,,,59,0
710976,note_on,,,,,1536,0,8,,,,4,,,59,0
711120,note_on,,,,,144,0,10,,,,6,,,75,92
711120,note_on,,,,,0,0,9,,,,5,,,63,92
711120,note_on,,,,,13704,0,9,,,,5,,,51,92
711120,note_on,,,,,336,0,13,,,,11,,,75,105
711120,note_on,,,,,336,0,12,,,,10,,,82,116
711120,note_on,,,,,336,0,14,,,,12,,,63,105
711120,note_on,,,,,0,0,14,,,,12,,,70,105
711216,note_on,,,,,96,0,9,,,,5,,,63,0
711216,note_on,,,,,96,0,12,,,,10,,,82,0
711216,note_on,,,,,0,0,9,,,,5,,,51,0
711216,note_on,,,,,96,0,13,,,,11,,,75,0
711216,note_on,,,,,0,0,14,,,,12,,,63,0
711216,note_on,,,,,96,0,10,,,,6,,,75,0
711216,note_on,,,,,96,0,14,,,,12,,,70,0
711240,note_on,,,,,24,0,10,,,,6,,,75,92
711240,note_on,,,,,24,0,9,,,,5,,,63,92
711240,note_on,,,,,24,0,13,,,,11,,,80,105
711240,note_on,,,,,24,0,14,,,,12,,,67,105
711240,note_on,,,,,0,0,9,,,,5,,,51,92
711240,note_on,,,,,24,0,12,,,,10,,,83,116
711240,note_on,,,,,0,0,14,,,,12,,,71,105
711312,note_on,,,,,0,0,15,,,,13,,,63,0
711312,note_on,,,,,912,0,15,,,,13,,,51,0
711312,note_on,,,,,912,0,16,,,,14,,,39,0
711336,note_on,,,,,0,0,14,,,,12,,,67,0
711336,note_on,,,,,96,0,9,,,,5,,,51,0
711336,note_on,,,,,96,0,13,,,,11,,,80,0
711336,note_on,,,,,96,0,10,,,,6,,,75,0
711336,note_on,,,,,0,0,9,,,,5,,,63,0
711336,note_on,,,,,96,0,12,,,,10,,,83,0
711336,note_on,,,,,96,0,14,,,,12,,,71,0
711360,note_on,,,,,0,0,9,,,,5,,,51,92
711360,note_on,,,,,24,0,9,,,,5,,,63,92
711360,note_on,,,,,24,0,13,,,,11,,,82,105
711360,note_on,,,,,0,0,14,,,,12,,,70,105
711360,note_on,,,,,24,0,14,,,,12,,,73,105
711360,note_on,,,,,24,0,12,,,,10,,,85,116
711360,note_on,,,,,24,0,10,,,,6,,,75,92
712080,note_on,,,,,0,0,15,,,,13,,,63,105
712080,note_on,,,,,768,0,15,,,,13,,,51,105
712080,note_on,,,,,768,0,16,,,,14,,,39,105
712176,note_on,,,,,96,0,16,,,,14,,,39,0
712176,note_on,,,,,96,0,15,,,,13,,,63,0
712176,note_on,,,,,0,0,15,,,,13,,,51,0
712200,note_on,,,,,24,0,16,,,,14,,,39,105
712200,note_on,,,,,0,0,15,,,,13,,,63,105
712200,note_on,,,,,24,0,15,,,,13,,,51,105
712296,note_on,,,,,96,0,16,,,,14,,,39,0
712296,note_on,,,,,0,0,15,,,,13,,,51,0
712296,note_on,,,,,96,0,15,,,,13,,,63,0
712320,note_on,,,,,0,0,15,,,,13,,,56,105
712320,note_on,,,,,24,0,15,,,,13,,,68,105
712320,note_on,,,,,24,0,16,,,,14,,,44,105
712704,note_on,,,,,1344,0,13,,,,11,,,82,0
712704,note_on,,,,,0,0,14,,,,12,,,73,0
712704,note_on,,,,,1344,0,14,,,,12,,,70,0
712704,note_on,,,,,1344,0,12,,,,10,,,85,0
712896,note_on,,,,,0,0,9,,,,5,,,63,0
712896,note_on,,,,,1536,0,10,,,,6,,,75,0
712896,note_on,,,,,1536,0,9,,,,5,,,51,0
713040,note_on,,,,,336,0,13,,,,11,,,80,105
713040,note_on,,,,,336,0,14,,,,12,,,68,105
713040,note_on,,,,,0,0,14,,,,12,,,71,105
713040,note_on,,,,,144,0,9,,,,5,,,63,92
713040,note_on,,,,,336,0,12,,,,10,,,83,116
713040,note_on,,,,,144,0,10,,,,6,,,80,92
713040,note_on,,,,,0,0,10,,,,6,,,68,92
713040,note_on,,,,,0,0,8,,,,4,,,68,92
713040,note_on,,,,,2064,0,8,,,,4,,,56,92
713136,note_on,,,,,96,0,10,,,,6,,,68,0
713136,note_on,,,,,96,0,12,,,,10,,,83,0
713136,note_on,,,,,96,0,9,,,,5,,,63,0
713136,note_on,,,,,96,0,8,,,,4,,,68,0
713136,note_on,,,,,96,0,14,,,,12,,,71,0
713136,note_on,,,,,0,0,14,,,,12,,,68,0
713136,note_on,,,,,0,0,8,,,,4,,,56,0
713136,note_on,,,,,0,0,10,,,,6,,,80,0
713136,note_on,,,,,96,0,13,,,,11,,,80,0
713160,note_on,,,,,0,0,8,,,,4,,,56,92
713160,note_on,,,,,24,0,10,,,,6,,,80,92
713160,note_on,,,,,24,0,14,,,,12,,,70,105
713160,note_on,,,,,24,0,9,,,,5,,,63,92
713160,note_on,,,,,0,0,10,,,,6,,,68,92
713160,note_on,,,,,24,0,13,,,,11,,,82,105
713160,note_on,,,,,0,0,14,,,,12,,,73,105
713160,note_on,,,,,24,0,8,,,,4,,,68,92
713160,note_on,,,,,24,0,12,,,,10,,,85,116
713232,note_on,,,,,0,0,15,,,,13,,,68,0
713232,note_on,,,,,912,0,15,,,,13,,,56,0
713232,note_on,,,,,912,0,16,,,,14,,,44,0
713256,note_on,,,,,96,0,14,,,,12,,,73,0
713256,note_on,,,,,96,0,13,,,,11,,,82,0
713256,note_on,,,,,96,0,10,,,,6,,,68,0
713256,note_on,,,,,0,0,14,,,,12,,,70,0
713256,note_on,,,,,0,0,10,,,,6,,,80,0
713256,note_on,,,,,0,0,8,,,,4,,,68,0
713256,note_on,,,,,96,0,12,,,,10,,,85,0
713256,note_on,,,,,96,0,8,,,,4,,,56,0
713256,note_on,,,,,96,0,9,,,,5,,,63,0
713280,note_on,,,,,0,0,4,,,,2,,,71,92
713280,note_on,,,,,24,0,14,,,,12,,,75,105
713280,note_on,,,,,0,0,14,,,,12,,,71,105
713280,note_on,,,,,4224,0,1,,,,0,,,87,92
713280,note_on,,,,,0,0,1,,,,0,,,83,92
713280,note_on,,,,,4224,0,4,,,,2,,,75,92
713280,note_on,,,,,24,0,13,,,,11,,,83,105
713280,note_on,,,,,0,0,8,,,,4,,,68,92
713280,note_on,,,,,4224,0,6,,,,3,,,63,92
713280,note_on,,,,,0,0,6,,,,3,,,59,92
713280,note_on,,,,,24,0,8,,,,4,,,56,92
713280,note_on,,,,,0,0,3,,,,1,,,83,92
713280,note_on,,,,,0,0,10,,,,6,,,80,92
713280,note_on,,,,,24,0,10,,,,6,,,68,92
713280,note_on,,,,,24,0,12,,,,10,,,87,116
713280,note_on,,,,,24,0,9,,,,5,,,63,92
713280,note_on,,,,,4224,0,3,,,,1,,,87,92
713472,note_on,,,,,0,0,14,,,,12,,,75,0
713472,note_on,,,,,192,0,14,,,,12,,,71,0
713472,note_on,,,,,192,0,12,,,,10,,,87,0
713472,note_on,,,,,192,0,13,,,,11,,,83,0
713568,note_on,,,,,288,0,9,,,,5,,,63,0
713568,note_on,,,,,288,0,8,,,,4,,,68,0
713568,note_on,,,,,0,0,8,,,,4,,,56,0
713568,note_on,,,,,288,0,10,,,,6,,,80,0
713568,note_on,,,,,0,0,10,,,,6,,,68,0
713600,note_on,,,,,128,0,13,,,,11,,,71,105
713600,note_on,,,,,128,0,14,,,,12,,,71,105
713600,note_on,,,,,128,0,12,,,,10,,,83,116
713792,note_on,,,,,192,0,13,,,,11,,,71,0
713792,note_on,,,,,192,0,14,,,,12,,,71,0
713792,note_on,,,,,192,0,12,,,,10,,,83,0
713920,note_on,,,,,128,0,13,,,,11,,,80,105
713920,note_on,,,,,128,0,14,,,,12,,,68,105
713920,note_on,,,,,128,0,12,,,,10,,,80,116
714112,note_on,,,,,192,0,14,,,,12,,,68,0
714112,note_on,,,,,192,0,13,,,,11,,,80,0
714112,note_on,,,,,192,0,12,,,,10,,,80,0
714240,note_on,,,,,128,0,14,,,,12,,,63,105
714240,note_on,,,,,128,0,13,,,,11,,,75,105
714240,note_on,,,,,128,0,12,,,,10,,,75,116
714432,note_on,,,,,192,0,12,,,,10,,,75,0
714432,note_on,,,,,192,0,13,,,,11,,,75,0
714432,note_on,,,,,192,0,14,,,,12,,,63,0
714560,note_on,,,,,128,0,12,,,,10,,,71,116
714560,note_on,,,,,128,0,13,,,,11,,,71,105
714560,note_on,,,,,128,0,14,,,,12,,,59,105
714752,note_on,,,,,192,0,12,,,,10,,,71,0
714752,note_on,,,,,192,0,14,,,,12,,,59,0
714752,note_on,,,,,192,0,13,,,,11,,,71,0
714880,note_on,,,,,128,0,14,,,,12,,,56,105
714880,note_on,,,,,128,0,13,,,,11,,,68,105
714880,note_on,,,,,128,0,12,,,,10,,,68,116
715072,note_on,,,,,192,0,12,,,,10,,,68,0
715072,note_on,,,,,192,0,14,,,,12,,,56,0
715072,note_on,,,,,192,0,13,,,,11,,,68,0
715200,note_on,,,,,1968,0,16,,,,14,,,51,105
715200,note_on,,,,,1968,0,15,,,,13,,,63,105
715200,note_on,,,,,128,0,12,,,,10,,,63,116
715200,note_on,,,,,128,0,14,,,,12,,,51,105
715200,note_on,,,,,128,0,13,,,,11,,,63,105
715392,note_on,,,,,2112,0,1,,,,0,,,83,0
715392,note_on,,,,,0,0,1,,,,0,,,87,0
715392,note_on,,,,,192,0,16,,,,14,,,51,0
715392,note_on,,,,,0,0,3,,,,1,,,87,0
715392,note_on,,,,,2112,0,3,,,,1,,,83,0
715392,note_on,,,,,0,0,4,,,,2,,,75,0
715392,note_on,,,,,2112,0,4,,,,2,,,71,0
715392,note_on,,,,,0,0,6,,,,3,,,63,0
715392,note_on,,,,,2112,0,6,,,,3,,,59,0
715392,note_on,,,,,192,0,15,,,,13,,,63,0
715488,note_on,,,,,288,0,12,,,,10,,,63,0
715488,note_on,,,,,288,0,14,,,,12,,,51,0
715488,note_on,,,,,288,0,13,,,,11,,,63,0
715520,note_on,,,,,128,0,6,,,,3,,,59,92
715520,note_on,,,,,128,0,3,,,,1,,,83,92
715520,note_on,,,,,128,0,4,,,,2,,,71,92
715520,note_on,,,,,128,0,15,,,,13,,,59,105
715520,note_on,,,,,128,0,16,,,,14,,,47,105
715520,note_on,,,,,128,0,1,,,,0,,,83,92
715712,note_on,,,,,192,0,15,,,,13,,,59,0
715712,note_on,,,,,192,0,1,,,,0,,,83,0
715712,note_on,,,,,192,0,6,,,,3,,,59,0
715712,note_on,,,,,192,0,3,,,,1,,,83,0
715712,note_on,,,,,192,0,16,,,,14,,,47,0
715712,note_on,,,,,192,0,4,,,,2,,,71,0
715840,note_on,,,,,128,0,16,,,,14,,,44,105
715840,note_on,,,,,128,0,15,,,,13,,,56,105
715840,note_on,,,,,128,0,4,,,,2,,,68,92
715840,note_on,,,,,128,0,3,,,,1,,,80,92
715840,note_on,,,,,128,0,6,,,,3,,,56,92
715840,note_on,,,,,128,0,1,,,,0,,,80,92
716032,note_on,,,,,192,0,16,,,,14,,,44,0
716032,note_on,,,,,192,0,4,,,,2,,,68,0
716032,note_on,,,,,192,0,3,,,,1,,,80,0
716032,note_on,,,,,192,0,6,,,,3,,,56,0
716032,note_on,,,,,192,0,1,,,,0,,,80,0
716032,note_on,,,,,192,0,15,,,,13,,,56,0
716160,note_on,,,,,128,0,1,,,,0,,,75,92
716160,note_on,,,,,128,0,15,,,,13,,,51,105
716160,note_on,,,,,128,0,6,,,,3,,,51,92
716160,note_on,,,,,128,0,4,,,,2,,,63,92
716160,note_on,,,,,128,0,3,,,,1,,,75,92
716160,note_on,,,,,128,0,16,,,,14,,,39,105
716352,note_on,,,,,192,0,15,,,,13,,,51,0
716352,note_on,,,,,192,0,4,,,,2,,,63,0
716352,note_on,,,,,192,0,3,,,,1,,,75,0
716352,note_on,,,,,192,0,6,,,,3,,,51,0
716352,note_on,,,,,192,0,1,,,,0,,,75,0
716352,note_on,,,,,192,0,16,,,,14,,,39,0
716480,note_on,,,,,128,0,15,,,,13,,,47,105
716480,note_on,,,,,128,0,4,,,,2,,,59,92
716480,note_on,,,,,128,0,6,,,,3,,,47,92
716480,note_on,,,,,128,0,1,,,,0,,,71,92
716480,note_on,,,,,128,0,3,,,,1,,,71,92
716480,note_on,,,,,128,0,16,,,,14,,,35,105
716672,note_on,,,,,192,0,3,,,,1,,,71,0
716672,note_on,,,,,192,0,1,,,,0,,,71,0
716672,note_on,,,,,192,0,15,,,,13,,,47,0
716672,note_on,,,,,192,0,16,,,,14,,,35,0
716672,note_on,,,,,192,0,6,,,,3,,,47,0
716672,note_on,,,,,192,0,4,,,,2,,,59,0
716800,note_on,,,,,128,0,6,,,,3,,,44,92
716800,note_on,,,,,128,0,1,,,,0,,,68,92
716800,note_on,,,,,128,0,3,,,,1,,,68,92
716800,note_on,,,,,128,0,16,,,,14,,,32,105
716800,note_on,,,,,128,0,4,,,,2,,,56,92
716800,note_on,,,,,128,0,15,,,,13,,,44,105
716880,note_on,,,,,0,0,14,,,,12,,,68,105
716880,note_on,,,,,1392,0,14,,,,12,,,63,105
716880,note_on,,,,,3312,0,8,,,,4,,,63,105
716880,note_on,,,,,1392,0,12,,,,10,,,68,116
716880,note_on,,,,,3312,0,10,,,,6,,,75,105
716880,note_on,,,,,1392,0,13,,,,11,,,63,116
716976,note_on,,,,,96,0,8,,,,4,,,63,0
716976,note_on,,,,,96,0,10,,,,6,,,75,0
716976,note_on,,,,,96,0,13,,,,11,,,63,0
716976,note_on,,,,,96,0,12,,,,10,,,68,0
716992,note_on,,,,,192,0,4,,,,2,,,56,0
716992,note_on,,,,,192,0,3,,,,1,,,68,0
716992,note_on,,,,,192,0,1,,,,0,,,68,0
716992,note_on,,,,,192,0,16,,,,14,,,32,0
716992,note_on,,,,,192,0,15,,,,13,,,44,0
716992,note_on,,,,,192,0,6,,,,3,,,44,0
717000,note_on,,,,,24,0,12,,,,10,,,71,116
717000,note_on,,,,,24,0,8,,,,4,,,63,105
717000,note_on,,,,,24,0,13,,,,11,,,68,116
717000,note_on,,,,,24,0,10,,,,6,,,75,105
717072,note_on,,,,,192,0,14,,,,12,,,68,0
717072,note_on,,,,,0,0,14,,,,12,,,63,0
717096,note_on,,,,,96,0,12,,,,10,,,71,0
717096,note_on,,,,,96,0,13,,,,11,,,68,0
717096,note_on,,,,,96,0,10,,,,6,,,75,0
717096,note_on,,,,,96,0,8,,,,4,,,63,0
717120,note_on,,,,,128,0,6,,,,3,,,41,92
717120,note_on,,,,,128,0,16,,,,14,,,29,125
717120,note_on,,,,,128,0,1,,,,0,,,83,92
717120,note_on,,,,,24,0,12,,,,10,,,75,116
717120,note_on,,,,,128,0,4,,,,2,,,71,92
717120,note_on,,,,,0,0,4,,,,2,,,68,92
717120,note_on,,,,,128,0,15,,,,13,,,41,125
717120,note_on,,,,,24,0,13,,,,11,,,71,116
717120,note_on,,,,,24,0,8,,,,4,,,63,105
717120,note_on,,,,,48,0,14,,,,12,,,68,105
717120,note_on,,,,,0,0,3,,,,1,,,71,92
717120,note_on,,,,,128,0,3,,,,1,,,75,92
717120,note_on,,,,,24,0,10,,,,6,,,75,105
717120,note_on,,,,,0,0,14,,,,12,,,71,105
717120,note_on,,,,,0,0,1,,,,0,,,87,92
717840,note_on,,,,,4272,0,9,,,,5,,,65,105
717888,note_on,,,,,768,0,15,,,,13,,,41,0
717888,note_on,,,,,768,0,16,,,,14,,,29,0
717936,note_on,,,,,96,0,9,,,,5,,,65,0
717960,note_on,,,,,24,0,9,,,,5,,,65,105
718032,note_on,,,,,0,0,4,,,,2,,,71,0
718032,note_on,,,,,912,0,13,,,,11,,,71,0
718032,note_on,,,,,0,0,14,,,,12,,,68,0
718032,note_on,,,,,912,0,14,,,,12,,,71,0
718032,note_on,,,,,912,0,10,,,,6,,,75,0
718032,note_on,,,,,912,0,4,,,,2,,,68,0
718032,note_on,,,,,0,0,3,,,,1,,,75,0
718032,note_on,,,,,912,0,3,,,,1,,,71,0
718032,note_on,,,,,912,0,1,,,,0,,,87,0
718032,note_on,,,,,0,0,1,,,,0,,,83,0
718032,note_on,,,,,912,0,6,,,,3,,,41,0
718032,note_on,,,,,912,0,12,,,,10,,,75,0
718032,note_on,,,,,912,0,8,,,,4,,,63,0
718056,note_on,,,,,96,0,9,,,,5,,,65,0
718080,note_on,,,,,24,0,9,,,,5,,,65,105
718800,note_on,,,,,0,0,14,,,,12,,,68,105
718800,note_on,,,,,912,0,16,,,,14,,,41,116
718800,note_on,,,,,768,0,1,,,,0,,,86,92
718800,note_on,,,,,0,0,10,,,,6,,,80,105
718800,note_on,,,,,768,0,8,,,,4,,,68,105
718800,note_on,,,,,0,0,1,,,,0,,,80,92
718800,note_on,,,,,768,0,12,,,,10,,,74,116
718800,note_on,,,,,768,0,13,,,,11,,,68,116
718800,note_on,,,,,768,0,6,,,,3,,,53,92
718800,note_on,,,,,768,0,3,,,,1,,,74,92
718800,note_on,,,,,0,0,3,,,,1,,,68,92
718800,note_on,,,,,768,0,10,,,,6,,,68,105
718800,note_on,,,,,912,0,15,,,,13,,,53,116
718800,note_on,,,,,768,0,14,,,,12,,,65,105
718800,note_on,,,,,0,0,4,,,,2,,,68,92
718800,note_on,,,,,768,0,4,,,,2,,,74,92
718896,note_on,,,,,96,0,16,,,,14,,,41,0
718896,note_on,,,,,96,0,8,,,,4,,,68,0
718896,note_on,,,,,96,0,10,,,,6,,,80,0
718896,note_on,,,,,96,0,15,,,,13,,,53,0
718896,note_on,,,,,0,0,10,,,,6,,,68,0
718896,note_on,,,,,96,0,12,,,,10,,,74,0
718896,note_on,,,,,96,0,13,,,,11,,,68,0
718896,note_on,,,,,96,0,6,,,,3,,,53,0
718920,note_on,,,,,0,0,10,,,,6,,,80,105
718920,note_on,,,,,24,0,16,,,,14,,,38,116
718920,note_on,,,,,24,0,8,,,,4,,,68,105
718920,note_on,,,,,24,0,6,,,,3,,,50,92
718920,note_on,,,,,24,0,10,,,,6,,,68,105
718920,note_on,,,,,24,0,15,,,,13,,,50,116
718920,note_on,,,,,24,0,13,,,,11,,,74,116
718920,note_on,,,,,24,0,12,,,,10,,,77,116
718944,note_on,,,,,0,0,1,,,,0,,,86,0
718944,note_on,,,,,0,0,4,,,,2,,,74,0
718944,note_on,,,,,144,0,4,,,,2,,,68,0
718944,note_on,,,,,144,0,1,,,,0,,,80,0
718944,note_on,,,,,144,0,3,,,,1,,,68,0
718944,note_on,,,,,0,0,3,,,,1,,,74,0
718992,note_on,,,,,0,0,14,,,,12,,,65,0
718992,note_on,,,,,912,0,9,,,,5,,,65,0
718992,note_on,,,,,192,0,14,,,,12,,,68,0
719016,note_on,,,,,96,0,13,,,,11,,,74,0
719016,note_on,,,,,96,0,15,,,,13,,,50,0
719016,note_on,,,,,96,0,6,,,,3,,,50,0
719016,note_on,,,,,96,0,10,,,,6,,,80,0
719016,note_on,,,,,96,0,16,,,,14,,,38,0
719016,note_on,,,,,96,0,12,,,,10,,,77,0
719016,note_on,,,,,96,0,8,,,,4,,,68,0
719016,note_on,,,,,0,0,10,,,,6,,,68,0
719040,note_on,,,,,0,0,14,,,,12,,,74,105
719040,note_on,,,,,24,0,13,,,,11,,,77,116
719040,note_on,,,,,24,0,6,,,,3,,,46,92
719040,note_on,,,,,0,0,1,,,,0,,,86,92
719040,note_on,,,,,48,0,14,,,,12,,,68,105
719040,note_on,,,,,24,0,10,,,,6,,,80,105
719040,note_on,,,,,0,0,10,,,,6,,,68,105
719040,note_on,,,,,96,0,3,,,,1,,,74,92
719040,note_on,,,,,24,0,16,,,,14,,,34,116
719040,note_on,,,,,24,0,8,,,,4,,,68,105
719040,note_on,,,,,0,0,3,,,,1,,,80,92
719040,note_on,,,,,96,0,1,,,,0,,,92,92
719040,note_on,,,,,24,0,12,,,,10,,,80,116
719040,note_on,,,,,96,0,4,,,,2,,,68,92
719040,note_on,,,,,24,0,15,,,,13,,,46,116
719040,note_on,,,,,0,0,4,,,,2,,,74,92
719760,note_on,,,,,768,0,9,,,,5,,,58,105
719760,note_on,,,,,0,0,9,,,,5,,,70,105
719856,note_on,,,,,0,0,9,,,,5,,,58,0
719856,note_on,,,,,96,0,9,,,,5,,,70,0
719880,note_on,,,,,24,0,9,,,,5,,,70,105
719880,note_on,,,,,0,0,9,,,,5,,,58,105
719952,note_on,,,,,912,0,3,,,,1,,,80,0
719952,note_on,,,,,912,0,12,,,,10,,,80,0
719952,note_on,,,,,912,0,1,,,,0,,,86,0
719952,note_on,,,,,0,0,3,,,,1,,,74,0
719952,note_on,,,,,912,0,15,,,,13,,,46,0
719952,note_on,,,,,912,0,14,,,,12,,,74,0
719952,note_on,,,,,0,0,14,,,,12,,,68,0
719952,note_on,,,,,912,0,13,,,,11,,,77,0
719952,note_on,,,,,912,0,4,,,,2,,,74,0
719952,note_on,,,,,0,0,4,,,,2,,,68,0
719952,note_on,,,,,912,0,6,,,,3,,,46,0
719952,note_on,,,,,0,0,10,,,,6,,,80,0
719952,note_on,,,,,912,0,10,,,,6,,,68,0
719952,note_on,,,,,0,0,1,,,,0,,,92,0
719952,note_on,,,,,912,0,8,,,,4,,,68,0
719952,note_on,,,,,912,0,16,,,,14,,,34,0
719976,note_on,,,,,96,0,9,,,,5,,,58,0
719976,note_on,,,,,0,0,9,,,,5,,,70,0
720000,note_on,,,,,0,0,9,,,,5,,,70,105
720000,note_on,,,,,24,0,9,,,,5,,,58,105
720720,note_on,,,,,768,0,4,,,,2,,,73,92
720720,note_on,,,,,768,0,6,,,,3,,,58,92
720720,note_on,,,,,768,0,10,,,,6,,,79,105
720720,note_on,,,,,0,0,14,,,,12,,,70,105
720720,note_on,,,,,768,0,14,,,,12,,,73,105
720720,note_on,,,,,768,0,13,,,,11,,,73,116
720720,note_on,,,,,768,0,3,,,,1,,,73,92
720720,note_on,,,,,768,0,15,,,,13,,,58,116
720720,note_on,,,,,768,0,12,,,,10,,,79,116
720720,note_on,,,,,0,0,3,,,,1,,,79,92
720720,note_on,,,,,0,0,4,,,,2,,,67,92
720720,note_on,,,,,0,0,1,,,,0,,,91,92
720720,note_on,,,,,768,0,1,,,,0,,,85,92
720720,note_on,,,,,768,0,8,,,,4,,,67,105
720720,note_on,,,,,768,0,16,,,,14,,,46,116
720816,note_on,,,,,96,0,10,,,,6,,,79,0
720816,note_on,,,,,96,0,13,,,,11,,,73,0
720816,note_on,,,,,96,0,12,,,,10,,,79,0
720816,note_on,,,,,96,0,8,,,,4,,,67,0
720816,note_on,,,,,96,0,15,,,,13,,,58,0
720816,note_on,,,,,96,0,16,,,,14,,,46,0
720816,note_on,,,,,96,0,6,,,,3,,,58,0
720840,note_on,,,,,24,0,12,,,,10,,,82,116
720840,note_on,,,,,24,0,13,,,,11,,,79,116
720840,note_on,,,,,24,0,10,,,,6,,,79,105
720840,note_on,,,,,24,0,6,,,,3,,,55,92
720840,note_on,,,,,24,0,15,,,,13,,,55,116
720840,note_on,,,,,24,0,16,,,,14,,,43,116
720840,note_on,,,,,24,0,8,,,,4,,,67,105
720852,note_on,,,,,0,0,4,,,,2,,,73,0
720852,note_on,,,,,132,0,4,,,,2,,,67,0
720852,note_on,,,,,132,0,1,,,,0,,,91,0
720852,note_on,,,,,0,0,1,,,,0,,,85,0
720852,note_on,,,,,132,0,3,,,,1,,,79,0
720852,note_on,,,,,0,0,3,,,,1,,,73,0
720912,note_on,,,,,192,0,14,,,,12,,,70,0
720912,note_on,,,,,0,0,14,,,,12,,,73,0
720912,note_on,,,,,0,0,9,,,,5,,,58,0
720912,note_on,,,,,912,0,9,,,,5,,,70,0
720936,note_on,,,,,96,0,6,,,,3,,,55,0
720936,note_on,,,,,96,0,15,,,,13,,,55,0
720936,note_on,,,,,96,0,10,,,,6,,,79,0
720936,note_on,,,,,96,0,16,,,,14,,,43,0
720936,note_on,,,,,96,0,12,,,,10,,,82,0
720936,note_on,,,,,96,0,8,,,,4,,,67,0
720936,note_on,,,,,96,0,13,,,,11,,,79,0
720960,note_on,,,,,24,0,16,,,,14,,,39,116
720960,note_on,,,,,24,0,15,,,,13,,,51,116
720960,note_on,,,,,24,0,6,,,,3,,,51,92
720960,note_on,,,,,48,0,14,,,,12,,,67,105
720960,note_on,,,,,24,0,12,,,,10,,,85,116
720960,note_on,,,,,24,0,10,,,,6,,,79,105
720960,note_on,,,,,24,0,8,,,,4,,,67,105
720960,note_on,,,,,0,0,1,,,,0,,,85,92
720960,note_on,,,,,0,0,14,,,,12,,,70,105
720960,note_on,,,,,108,0,1,,,,0,,,91,92
720960,note_on,,,,,0,0,3,,,,1,,,79,92
720960,note_on,,,,,0,0,4,,,,2,,,67,92
720960,note_on,,,,,108,0,4,,,,2,,,73,92
720960,note_on,,,,,108,0,3,,,,1,,,73,92
720960,note_on,,,,,24,0,13,,,,11,,,82,116
721136,note_on,,,,,176,0,13,,,,11,,,82,0
721136,note_on,,,,,176,0,12,,,,10,,,85,0
721224,note_on,,,,,0,0,3,,,,1,,,73,0
721224,note_on,,,,,264,0,10,,,,6,,,79,0
721224,note_on,,,,,0,0,4,,,,2,,,73,0
721224,note_on,,,,,0,0,1,,,,0,,,91,0
721224,note_on,,,,,264,0,1,,,,0,,,85,0
721224,note_on,,,,,264,0,8,,,,4,,,67,0
721224,note_on,,,,,264,0,15,,,,13,,,51,0
721224,note_on,,,,,264,0,3,,,,1,,,79,0
721224,note_on,,,,,264,0,4,,,,2,,,67,0
721224,note_on,,,,,264,0,14,,,,12,,,70,0
721224,note_on,,,,,0,0,14,,,,12,,,67,0
721224,note_on,,,,,264,0,16,,,,14,,,39,0
721224,note_on,,,,,264,0,6,,,,3,,,51,0
721280,note_on,,,,,144,0,12,,,,10,,,82,116
721280,note_on,,,,,144,0,13,,,,11,,,79,116
721440,note_on,,,,,216,0,16,,,,14,,,43,116
721440,note_on,,,,,216,0,10,,,,6,,,75,105
721440,note_on,,,,,216,0,6,,,,3,,,55,92
721440,note_on,,,,,216,0,4,,,,2,,,70,92
721440,note_on,,,,,0,0,14,,,,12,,,63,105
721440,note_on,,,,,216,0,8,,,,4,,,63,105
721440,note_on,,,,,0,0,4,,,,2,,,75,92
721440,note_on,,,,,216,0,1,,,,0,,,87,92
721440,note_on,,,,,216,0,15,,,,13,,,55,116
721440,note_on,,,,,0,0,1,,,,0,,,85,92
721440,note_on,,,,,216,0,14,,,,12,,,70,105
721440,note_on,,,,,0,0,3,,,,1,,,75,92
721440,note_on,,,,,216,0,3,,,,1,,,73,92
721456,note_on,,,,,176,0,13,,,,11,,,79,0
721456,note_on,,,,,176,0,12,,,,10,,,82,0
721600,note_on,,,,,144,0,12,,,,10,,,87,116
721600,note_on,,,,,144,0,13,,,,11,,,75,116
721680,note_on,,,,,768,0,9,,,,5,,,63,105
721680,note_on,,,,,0,0,9,,,,5,,,51,105
721704,note_on,,,,,264,0,10,,,,6,,,75,0
721704,note_on,,,,,264,0,8,,,,4,,,63,0
721704,note_on,,,,,0,0,14,,,,12,,,70,0
721704,note_on,,,,,264,0,14,,,,12,,,63,0
721704,note_on,,,,,0,0,1,,,,0,,,87,0
721704,note_on,,,,,264,0,6,,,,3,,,55,0
721704,note_on,,,,,264,0,1,,,,0,,,85,0
721704,note_on,,,,,0,0,4,,,,2,,,70,0
721704,note_on,,,,,264,0,16,,,,14,,,43,0
721704,note_on,,,,,264,0,15,,,,13,,,55,0
721704,note_on,,,,,264,0,4,,,,2,,,75,0
721704,note_on,,,,,264,0,3,,,,1,,,75,0
721704,note_on,,,,,0,0,3,,,,1,,,73,0
721776,note_on,,,,,0,0,9,,,,5,,,63,0
721776,note_on,,,,,176,0,12,,,,10,,,87,0
721776,note_on,,,,,176,0,13,,,,11,,,75,0
721776,note_on,,,,,96,0,9,,,,5,,,51,0
721800,note_on,,,,,0,0,9,,,,5,,,63,105
721800,note_on,,,,,24,0,9,,,,5,,,51,105
721896,note_on,,,,,0,0,9,,,,5,,,51,0
721896,note_on,,,,,96,0,9,,,,5,,,63,0
721920,note_on,,,,,216,0,6,,,,3,,,56,92
721920,note_on,,,,,0,0,4,,,,2,,,72,92
721920,note_on,,,,,0,0,3,,,,1,,,75,92
721920,note_on,,,,,0,0,9,,,,5,,,63,105
721920,note_on,,,,,216,0,4,,,,2,,,75,92
721920,note_on,,,,,216,0,3,,,,1,,,71,92
721920,note_on,,,,,24,0,9,,,,5,,,51,105
721920,note_on,,,,,216,0,14,,,,12,,,63,105
721920,note_on,,,,,0,0,14,,,,12,,,71,105
721920,note_on,,,,,0,0,1,,,,0,,,87,92
721920,note_on,,,,,216,0,1,,,,0,,,83,92
721920,note_on,,,,,144,0,12,,,,10,,,83,116
721920,note_on,,,,,144,0,13,,,,11,,,71,116
721920,note_on,,,,,216,0,15,,,,13,,,56,116
721920,note_on,,,,,216,0,16,,,,14,,,44,116
722096,note_on,,,,,176,0,12,,,,10,,,83,0
722096,note_on,,,,,176,0,13,,,,11,,,71,0
722096,note_on,,,,,0,0,14,,,,12,,,63,0
722096,note_on,,,,,176,0,14,,,,12,,,71,0
722184,note_on,,,,,264,0,6,,,,3,,,56,0
722184,note_on,,,,,264,0,1,,,,0,,,87,0
722184,note_on,,,,,0,0,3,,,,1,,,71,0
722184,note_on,,,,,264,0,3,,,,1,,,75,0
722184,note_on,,,,,264,0,15,,,,13,,,56,0
722184,note_on,,,,,264,0,16,,,,14,,,44,0
722184,note_on,,,,,264,0,9,,,,5,,,63,0
722184,note_on,,,,,0,0,9,,,,5,,,51,0
722184,note_on,,,,,0,0,1,,,,0,,,83,0
722184,note_on,,,,,264,0,4,,,,2,,,72,0
722184,note_on,,,,,0,0,4,,,,2,,,75,0
722240,note_on,,,,,144,0,14,,,,12,,,68,105
722240,note_on,,,,,144,0,13,,,,11,,,68,116
722240,note_on,,,,,144,0,12,,,,10,,,80,116
722400,note_on,,,,,216,0,15,,,,13,,,53,116
722400,note_on,,,,,216,0,9,,,,5,,,65,105
722400,note_on,,,,,216,0,16,,,,14,,,41,116
722416,note_on,,,,,176,0,14,,,,12,,,68,0
722416,note_on,,,,,176,0,13,,,,11,,,68,0
722416,note_on,,,,,176,0,12,,,,10,,,80,0
722560,note_on,,,,,144,0,13,,,,11,,,65,116
722560,note_on,,,,,144,0,12,,,,10,,,77,116
722560,note_on,,,,,144,0,14,,,,12,,,65,105
722664,note_on,,,,,264,0,9,,,,5,,,65,0
722664,note_on,,,,,264,0,16,,,,14,,,41,0
722664,note_on,,,,,264,0,15,,,,13,,,53,0
722736,note_on,,,,,176,0,12,,,,10,,,77,0
722736,note_on,,,,,176,0,13,,,,11,,,65,0
722736,note_on,,,,,176,0,14,,,,12,,,65,0
722880,note_on,,,,,144,0,12,,,,10,,,74,116
722880,note_on,,,,,144,0,13,,,,11,,,62,116
722880,note_on,,,,,144,0,14,,,,12,,,62,105
722880,note_on,,,,,216,0,15,,,,13,,,50,116
722880,note_on,,,,,216,0,16,,,,14,,,38,116
723056,note_on,,,,,176,0,14,,,,12,,,62,0
723056,note_on,,,,,176,0,13,,,,11,,,62,0
723056,note_on,,,,,176,0,12,,,,10,,,74,0
723144,note_on,,,,,264,0,16,,,,14,,,38,0
723144,note_on,,,,,264,0,15,,,,13,,,50,0
723200,note_on,,,,,144,0,14,,,,12,,,58,105
723200,note_on,,,,,144,0,13,,,,11,,,58,116
723200,note_on,,,,,144,0,12,,,,10,,,70,116
723360,note_on,,,,,696,0,9,,,,5,,,58,105
723360,note_on,,,,,216,0,15,,,,13,,,46,116
723360,note_on,,,,,216,0,16,,,,14,,,34,116
723376,note_on,,,,,176,0,13,,,,11,,,58,0
723376,note_on,,,,,176,0,14,,,,12,,,58,0
723376,note_on,,,,,176,0,12,,,,10,,,70,0
723520,note_on,,,,,144,0,14,,,,12,,,70,105
723520,note_on,,,,,144,0,12,,,,10,,,78,116
723520,note_on,,,,,0,0,14,,,,12,,,62,105
723520,note_on,,,,,144,0,13,,,,11,,,66,116
723520,note_on,,,,,0,0,13,,,,11,,,74,116
723624,note_on,,,,,264,0,9,,,,5,,,58,0
723624,note_on,,,,,264,0,15,,,,13,,,46,0
723624,note_on,,,,,264,0,16,,,,14,,,34,0
723696,note_on,,,,,0,0,13,,,,11,,,66,0
723696,note_on,,,,,176,0,13,,,,11,,,74,0
723696,note_on,,,,,176,0,12,,,,10,,,78,0
723696,note_on,,,,,0,0,14,,,,12,,,70,0
723696,note_on,,,,,176,0,14,,,,12,,,62,0
723840,note_on,,,,,216,0,16,,,,14,,,35,105
723840,note_on,,,,,216,0,9,,,,5,,,63,92
723840,note_on,,,,,1656,0,3,,,,1,,,71,112
723840,note_on,,,,,0,0,14,,,,12,,,63,92
723840,note_on,,,,,144,0,14,,,,12,,,66,92
723840,note_on,,,,,0,0,10,,,,6,,,71,92
723840,note_on,,,,,216,0,15,,,,13,,,47,105
723840,note_on,,,,,144,0,12,,,,10,,,75,105
723840,note_on,,,,,1656,0,4,,,,2,,,71,112
723840,note_on,,,,,1656,0,6,,,,3,,,59,112
723840,note_on,,,,,144,0,13,,,,11,,,66,92
723840,note_on,,,,,0,0,13,,,,11,,,75,92
723840,note_on,,,,,2136,0,8,,,,4,,,59,92
723840,note_on,,,,,2136,0,10,,,,6,,,59,92
724416,note_on,,,,,576,0,15,,,,13,,,47,0
724416,note_on,,,,,576,0,12,,,,10,,,75,0
724416,note_on,,,,,576,0,14,,,,12,,,63,0
724416,note_on,,,,,0,0,14,,,,12,,,66,0
724416,note_on,,,,,576,0,8,,,,4,,,59,0
724416,note_on,,,,,576,0,9,,,,5,,,63,0
724416,note_on,,,,,576,0,4,,,,2,,,71,0
724416,note_on,,,,,0,0,10,,,,6,,,59,0
724416,note_on,,,,,576,0,13,,,,11,,,75,0
724416,note_on,,,,,576,0,10,,,,6,,,71,0
724416,note_on,,,,,0,0,13,,,,11,,,66,0
724416,note_on,,,,,576,0,6,,,,3,,,59,0
724416,note_on,,,,,576,0,3,,,,1,,,71,0
724416,note_on,,,,,576,0,16,,,,14,,,35,0
724560,note_on,,,,,144,0,4,,,,2,,,71,92
724560,note_on,,,,,144,0,8,,,,4,,,59,92
724560,note_on,,,,,144,0,3,,,,1,,,71,92
724560,note_on,,,,,144,0,6,,,,3,,,59,92
724680,note_on,,,,,120,0,6,,,,3,,,59,0
724680,note_on,,,,,0,0,6,,,,3,,,63,92
724680,note_on,,,,,0,0,4,,,,2,,,75,92
724680,note_on,,,,,120,0,4,,,,2,,,71,0
724680,note_on,,,,,0,0,3,,,,1,,,75,92
724680,note_on,,,,,120,0,3,,,,1,,,71,0
724680,note_on,,,,,120,0,8,,,,4,,,59,0
724680,note_on,,,,,0,0,8,,,,4,,,63,92
724800,note_on,,,,,0,0,4,,,,2,,,78,92
724800,note_on,,,,,120,0,3,,,,1,,,75,0
724800,note_on,,,,,120,0,4,,,,2,,,75,0
724800,note_on,,,,,0,0,3,,,,1,,,78,92
724800,note_on,,,,,120,0,8,,,,4,,,63,0
724800,note_on,,,,,120,0,6,,,,3,,,63,0
724800,note_on,,,,,0,0,6,,,,3,,,66,92
724800,note_on,,,,,0,0,8,,,,4,,,66,92
724976,note_on,,,,,176,0,3,,,,1,,,78,0
724976,note_on,,,,,176,0,4,,,,2,,,78,0
724976,note_on,,,,,176,0,8,,,,4,,,66,0
724976,note_on,,,,,176,0,6,,,,3,,,66,0
725120,note_on,,,,,144,0,6,,,,3,,,63,92
725120,note_on,,,,,144,0,3,,,,1,,,75,92
725120,note_on,,,,,144,0,8,,,,4,,,63,92
725120,note_on,,,,,144,0,4,,,,2,,,75,92
725296,note_on,,,,,176,0,3,,,,1,,,75,0
725296,note_on,,,,,176,0,8,,,,4,,,63,0
725296,note_on,,,,,176,0,6,,,,3,,,63,0
725296,note_on,,,,,176,0,4,,,,2,,,75,0
725440,note_on,,,,,144,0,6,,,,3,,,67,92
725440,note_on,,,,,0,0,4,,,,2,,,79,92
725440,note_on,,,,,144,0,8,,,,4,,,67,92
725440,note_on,,,,,0,0,3,,,,1,,,79,92
725440,note_on,,,,,0,0,8,,,,4,,,64,92
725440,note_on,,,,,144,0,3,,,,1,,,76,92
725440,note_on,,,,,144,0,4,,,,2,,,76,92
725440,note_on,,,,,0,0,6,,,,3,,,64,92
725520,note_on,,,,,1104,0,13,,,,11,,,64,92
725520,note_on,,,,,1104,0,16,,,,14,,,40,105
725520,note_on,,,,,1104,0,14,,,,12,,,52,92
725520,note_on,,,,,1104,0,15,,,,13,,,52,105
725520,note_on,,,,,1104,0,12,,,,10,,,64,92
725616,note_on,,,,,176,0,4,,,,2,,,79,0
725616,note_on,,,,,0,0,4,,,,2,,,76,0
725616,note_on,,,,,0,0,3,,,,1,,,76,0
725616,note_on,,,,,176,0,6,,,,3,,,64,0
725616,note_on,,,,,0,0,6,,,,3,,,67,0
725616,note_on,,,,,0,0,8,,,,4,,,67,0
725616,note_on,,,,,176,0,8,,,,4,,,64,0
725616,note_on,,,,,176,0,3,,,,1,,,79,0
725640,note_on,,,,,0,0,13,,,,11,,,67,92
725640,note_on,,,,,0,0,14,,,,12,,,55,92
725640,note_on,,,,,120,0,14,,,,12,,,52,0
725640,note_on,,,,,0,0,16,,,,14,,,43,105
725640,note_on,,,,,120,0,16,,,,14,,,40,0
725640,note_on,,,,,120,0,15,,,,13,,,52,0
725640,note_on,,,,,0,0,15,,,,13,,,55,105
725640,note_on,,,,,120,0,12,,,,10,,,64,0
725640,note_on,,,,,0,0,12,,,,10,,,67,92
725640,note_on,,,,,120,0,13,,,,11,,,64,0
725760,note_on,,,,,120,0,12,,,,10,,,67,0
725760,note_on,,,,,144,0,6,,,,3,,,63,92
725760,note_on,,,,,0,0,6,,,,3,,,66,92
725760,note_on,,,,,120,0,16,,,,14,,,43,0
725760,note_on,,,,,0,0,12,,,,10,,,71,92
725760,note_on,,,,,0,0,16,,,,14,,,47,105
725760,note_on,,,,,144,0,8,,,,4,,,63,92
725760,note_on,,,,,120,0,14,,,,12,,,55,0
725760,note_on,,,,,120,0,13,,,,11,,,67,0
725760,note_on,,,,,0,0,13,,,,11,,,71,92
725760,note_on,,,,,0,0,8,,,,4,,,66,92
725760,note_on,,,,,144,0,3,,,,1,,,75,92
725760,note_on,,,,,0,0,3,,,,1,,,78,92
725760,note_on,,,,,0,0,15,,,,13,,,59,105
725760,note_on,,,,,120,0,15,,,,13,,,55,0
725760,note_on,,,,,0,0,14,,,,12,,,59,92
725760,note_on,,,,,0,0,4,,,,2,,,78,92
725760,note_on,,,,,144,0,4,,,,2,,,75,92
726336,note_on,,,,,576,0,3,,,,1,,,78,0
726336,note_on,,,,,0,0,4,,,,2,,,75,0
726336,note_on,,,,,576,0,8,,,,4,,,66,0
726336,note_on,,,,,0,0,8,,,,4,,,63,0
726336,note_on,,,,,0,0,3,,,,1,,,75,0
726336,note_on,,,,,576,0,13,,,,11,,,71,0
726336,note_on,,,,,576,0,4,,,,2,,,78,0
726336,note_on,,,,,0,0,6,,,,3,,,63,0
726336,note_on,,,,,576,0,6,,,,3,,,66,0
726336,note_on,,,,,576,0,15,,,,13,,,59,0
726336,note_on,,,,,576,0,12,,,,10,,,71,0
726336,note_on,,,,,576,0,16,,,,14,,,47,0
726336,note_on,,,,,576,0,14,,,,12,,,59,0
726480,note_on,,,,,144,0,8,,,,4,,,63,92
726480,note_on,,,,,144,0,4,,,,2,,,71,92
726480,note_on,,,,,4296,0,1,,,,0,,,83,105
726480,note_on,,,,,144,0,6,,,,3,,,63,92
726480,note_on,,,,,144,0,3,,,,1,,,75,92
726600,note_on,,,,,120,0,1,,,,0,,,83,0
726600,note_on,,,,,0,0,1,,,,0,,,87,105
726600,note_on,,,,,0,0,4,,,,2,,,75,92
726600,note_on,,,,,120,0,4,,,,2,,,71,0
726672,note_on,,,,,192,0,6,,,,3,,,63,0
726672,note_on,,,,,192,0,3,,,,1,,,75,0
726672,note_on,,,,,192,0,8,,,,4,,,63,0
726720,note_on,,,,,120,0,1,,,,0,,,87,0
726720,note_on,,,,,0,0,1,,,,0,,,90,105
726720,note_on,,,,,120,0,4,,,,2,,,75,0
726720,note_on,,,,,48,0,8,,,,4,,,59,92
726720,note_on,,,,,48,0,3,,,,1,,,71,92
726720,note_on,,,,,0,0,4,,,,2,,,78,92
726720,note_on,,,,,48,0,6,,,,3,,,59,92
726896,note_on,,,,,176,0,4,,,,2,,,78,0
726896,note_on,,,,,176,0,1,,,,0,,,90,0
727040,note_on,,,,,144,0,1,,,,0,,,87,105
727040,note_on,,,,,144,0,4,,,,2,,,75,92
727216,note_on,,,,,176,0,4,,,,2,,,75,0
727216,note_on,,,,,176,0,1,,,,0,,,87,0
727232,note_on,,,,,512,0,6,,,,3,,,59,0
727232,note_on,,,,,512,0,3,,,,1,,,71,0
727232,note_on,,,,,512,0,8,,,,4,,,59,0
727360,note_on,,,,,144,0,4,,,,2,,,71,92
727360,note_on,,,,,128,0,6,,,,3,,,59,92
727360,note_on,,,,,144,0,1,,,,0,,,83,105
727360,note_on,,,,,0,0,3,,,,1,,,83,92
727360,note_on,,,,,0,0,8,,,,4,,,71,92
727360,note_on,,,,,128,0,3,,,,1,,,79,92
727360,note_on,,,,,128,0,8,,,,4,,,67,92
727360,note_on,,,,,0,0,6,,,,3,,,55,92
727440,note_on,,,,,1104,0,13,,,,11,,,64,92
727440,note_on,,,,,1104,0,14,,,,12,,,64,92
727440,note_on,,,,,1104,0,12,,,,10,,,64,92
727440,note_on,,,,,1104,0,16,,,,14,,,40,105
727440,note_on,,,,,1104,0,15,,,,13,,,52,105
727536,note_on,,,,,176,0,4,,,,2,,,71,0
727536,note_on,,,,,176,0,1,,,,0,,,83,0
727560,note_on,,,,,0,0,15,,,,13,,,48,105
727560,note_on,,,,,120,0,15,,,,13,,,52,0
727560,note_on,,,,,0,0,16,,,,14,,,36,105
727560,note_on,,,,,120,0,14,,,,12,,,64,0
727560,note_on,,,,,0,0,14,,,,12,,,60,92
727560,note_on,,,,,0,0,12,,,,10,,,60,92
727560,note_on,,,,,120,0,12,,,,10,,,64,0
727560,note_on,,,,,120,0,16,,,,14,,,40,0
727560,note_on,,,,,0,0,13,,,,11,,,60,92
727560,note_on,,,,,120,0,13,,,,11,,,64,0
727624,note_on,,,,,264,0,3,,,,1,,,83,0
727624,note_on,,,,,0,0,3,,,,1,,,79,0
727624,note_on,,,,,0,0,8,,,,4,,,67,0
727624,note_on,,,,,264,0,8,,,,4,,,71,0
727624,note_on,,,,,264,0,6,,,,3,,,55,0
727624,note_on,,,,,0,0,6,,,,3,,,59,0
727680,note_on,,,,,56,0,3,,,,1,,,84,92
727680,note_on,,,,,0,0,4,,,,2,,,81,92
727680,note_on,,,,,144,0,4,,,,2,,,84,92
727680,note_on,,,,,0,0,3,,,,1,,,81,92
727680,note_on,,,,,120,0,15,,,,13,,,48,0
727680,note_on,,,,,0,0,6,,,,3,,,57,92
727680,note_on,,,,,120,0,14,,,,12,,,60,0
727680,note_on,,,,,0,0,14,,,,12,,,57,92
727680,note_on,,,,,0,0,15,,,,13,,,45,105
727680,note_on,,,,,56,0,8,,,,4,,,69,92
727680,note_on,,,,,0,0,8,,,,4,,,72,92
727680,note_on,,,,,120,0,13,,,,11,,,60,0
727680,note_on,,,,,0,0,13,,,,11,,,57,92
727680,note_on,,,,,120,0,12,,,,10,,,60,0
727680,note_on,,,,,0,0,12,,,,10,,,57,92
727680,note_on,,,,,120,0,16,,,,14,,,36,0
727680,note_on,,,,,56,0,6,,,,3,,,60,92
727680,note_on,,,,,0,0,16,,,,14,,,33,105
727856,note_on,,,,,0,0,4,,,,2,,,84,0
727856,note_on,,,,,176,0,4,,,,2,,,81,0
727856,note_on,,,,,0,0,8,,,,4,,,69,0
727856,note_on,,,,,176,0,8,,,,4,,,72,0
727856,note_on,,,,,0,0,3,,,,1,,,84,0
727856,note_on,,,,,0,0,6,,,,3,,,60,0
727856,note_on,,,,,176,0,6,,,,3,,,57,0
727856,note_on,,,,,176,0,3,,,,1,,,81,0
728000,note_on,,,,,144,0,8,,,,4,,,67,92
728000,note_on,,,,,0,0,3,,,,1,,,79,92
728000,note_on,,,,,144,0,3,,,,1,,,83,92
728000,note_on,,,,,144,0,4,,,,2,,,79,92
728000,note_on,,,,,0,0,4,,,,2,,,83,92
728000,note_on,,,,,0,0,8,,,,4,,,71,92
728000,note_on,,,,,0,0,6,,,,3,,,55,92
728000,note_on,,,,,144,0,6,,,,3,,,59,92
728064,note_on,,,,,384,0,16,,,,14,,,33,0
728064,note_on,,,,,384,0,15,,,,13,,,45,0
728064,note_on,,,,,384,0,13,,,,11,,,57,0
728064,note_on,,,,,384,0,14,,,,12,,,57,0
728064,note_on,,,,,384,0,12,,,,10,,,57,0
728176,note_on,,,,,176,0,8,,,,4,,,71,0
728176,note_on,,,,,0,0,6,,,,3,,,59,0
728176,note_on,,,,,0,0,4,,,,2,,,79,0
728176,note_on,,,,,176,0,4,,,,2,,,83,0
728176,note_on,,,,,176,0,3,,,,1,,,79,0
728176,note_on,,,,,0,0,3,,,,1,,,83,0
728176,note_on,,,,,0,0,8,,,,4,,,67,0
728176,note_on,,,,,176,0,6,,,,3,,,55,0
728320,note_on,,,,,144,0,6,,,,3,,,54,92
728320,note_on,,,,,0,0,6,,,,3,,,57,92
728320,note_on,,,,,0,0,3,,,,1,,,78,92
728320,note_on,,,,,144,0,8,,,,4,,,66,92
728320,note_on,,,,,0,0,8,,,,4,,,69,92
728320,note_on,,,,,144,0,3,,,,1,,,81,92
728320,note_on,,,,,0,0,4,,,,2,,,78,92
728320,note_on,,,,,144,0,4,,,,2,,,81,92
728400,note_on,,,,,336,0,16,,,,14,,,38,105
728400,note_on,,,,,336,0,14,,,,12,,,62,92
728400,note_on,,,,,336,0,15,,,,13,,,50,105
728400,note_on,,,,,336,0,12,,,,10,,,62,92
728400,note_on,,,,,336,0,13,,,,11,,,62,92
728496,note_on,,,,,176,0,4,,,,2,,,78,0
728496,note_on,,,,,176,0,8,,,,4,,,69,0
728496,note_on,,,,,0,0,3,,,,1,,,81,0
728496,note_on,,,,,176,0,3,,,,1,,,78,0
728496,note_on,,,,,0,0,4,,,,2,,,81,0
728496,note_on,,,,,0,0,8,,,,4,,,66,0
728496,note_on,,,,,176,0,6,,,,3,,,57,0
728496,note_on,,,,,0,0,6,,,,3,,,54,0
728520,note_on,,,,,0,0,13,,,,11,,,59,92
728520,note_on,,,,,0,0,15,,,,13,,,47,105
728520,note_on,,,,,0,0,12,,,,10,,,59,92
728520,note_on,,,,,120,0,12,,,,10,,,62,0
728520,note_on,,,,,120,0,15,,,,13,,,50,0
728520,note_on,,,,,120,0,16,,,,14,,,38,0
728520,note_on,,,,,0,0,16,,,,14,,,35,105
728520,note_on,,,,,0,0,14,,,,12,,,59,92
728520,note_on,,,,,120,0,14,,,,12,,,62,0
728520,note_on,,,,,120,0,13,,,,11,,,62,0
728640,note_on,,,,,0,0,16,,,,14,,,31,105
728640,note_on,,,,,0,0,14,,,,12,,,55,92
728640,note_on,,,,,120,0,14,,,,12,,,59,0
728640,note_on,,,,,0,0,4,,,,2,,,83,92
728640,note_on,,,,,144,0,4,,,,2,,,79,92
728640,note_on,,,,,0,0,15,,,,13,,,43,105
728640,note_on,,,,,120,0,16,,,,14,,,35,0
728640,note_on,,,,,0,0,3,,,,1,,,79,92
728640,note_on,,,,,120,0,15,,,,13,,,47,0
728640,note_on,,,,,0,0,6,,,,3,,,55,92
728640,note_on,,,,,144,0,3,,,,1,,,83,92
728640,note_on,,,,,120,0,13,,,,11,,,59,0
728640,note_on,,,,,0,0,13,,,,11,,,55,92
728640,note_on,,,,,0,0,8,,,,4,,,67,92
728640,note_on,,,,,120,0,12,,,,10,,,59,0
728640,note_on,,,,,144,0,8,,,,4,,,71,92
728640,note_on,,,,,0,0,12,,,,10,,,55,92
728640,note_on,,,,,144,0,6,,,,3,,,59,92
728816,note_on,,,,,176,0,4,,,,2,,,83,0
728816,note_on,,,,,176,0,6,,,,3,,,55,0
728816,note_on,,,,,0,0,6,,,,3,,,59,0
728816,note_on,,,,,0,0,4,,,,2,,,79,0
728816,note_on,,,,,176,0,8,,,,4,,,67,0
728816,note_on,,,,,0,0,3,,,,1,,,83,0
728816,note_on,,,,,176,0,3,,,,1,,,79,0
728816,note_on,,,,,0,0,8,,,,4,,,71,0
728960,note_on,,,,,0,0,6,,,,3,,,54,92
728960,note_on,,,,,0,0,3,,,,1,,,78,92
728960,note_on,,,,,144,0,3,,,,1,,,81,92
728960,note_on,,,,,144,0,6,,,,3,,,57,92
728960,note_on,,,,,144,0,4,,,,2,,,81,92
728960,note_on,,,,,0,0,4,,,,2,,,78,92
728960,note_on,,,,,144,0,8,,,,4,,,66,92
728960,note_on,,,,,0,0,8,,,,4,,,69,92
729024,note_on,,,,,384,0,13,,,,11,,,55,0
729024,note_on,,,,,384,0,14,,,,12,,,55,0
729024,note_on,,,,,384,0,12,,,,10,,,55,0
729024,note_on,,,,,384,0,16,,,,14,,,31,0
729024,note_on,,,,,384,0,15,,,,13,,,43,0
729136,note_on,,,,,0,0,8,,,,4,,,66,0
729136,note_on,,,,,0,0,6,,,,3,,,57,0
729136,note_on,,,,,176,0,8,,,,4,,,69,0
729136,note_on,,,,,176,0,6,,,,3,,,54,0
729136,note_on,,,,,0,0,3,,,,1,,,81,0
729136,note_on,,,,,176,0,4,,,,2,,,78,0
729136,note_on,,,,,0,0,4,,,,2,,,81,0
729136,note_on,,,,,176,0,3,,,,1,,,78,0
729280,note_on,,,,,144,0,3,,,,1,,,79,92
729280,note_on,,,,,0,0,3,,,,1,,,76,92
729280,note_on,,,,,0,0,6,,,,3,,,55,92
729280,note_on,,,,,144,0,6,,,,3,,,52,92
729280,note_on,,,,,0,0,8,,,,4,,,64,92
729280,note_on,,,,,144,0,8,,,,4,,,67,92
729280,note_on,,,,,144,0,4,,,,2,,,76,92
729280,note_on,,,,,0,0,4,,,,2,,,79,92
729360,note_on,,,,,336,0,14,,,,12,,,55,92
729360,note_on,,,,,336,0,13,,,,11,,,67,92
729360,note_on,,,,,336,0,12,,,,10,,,67,92
729360,note_on,,,,,336,0,16,,,,14,,,43,105
729360,note_on,,,,,336,0,15,,,,13,,,55,105
729456,note_on,,,,,0,0,8,,,,4,,,67,0
729456,note_on,,,,,176,0,4,,,,2,,,79,0
729456,note_on,,,,,0,0,3,,,,1,,,79,0
729456,note_on,,,,,176,0,3,,,,1,,,76,0
729456,note_on,,,,,0,0,4,,,,2,,,76,0
729456,note_on,,,,,176,0,8,,,,4,,,64,0
729456,note_on,,,,,0,0,6,,,,3,,,52,0
729456,note_on,,,,,176,0,6,,,,3,,,55,0
729480,note_on,,,,,120,0,12,,,,10,,,67,0
729480,note_on,,,,,120,0,15,,,,13,,,55,0
729480,note_on,,,,,0,0,14,,,,12,,,59,92
729480,note_on,,,,,120,0,14,,,,12,,,55,0
729480,note_on,,,,,0,0,15,,,,13,,,59,105
729480,note_on,,,,,0,0,12,,,,10,,,71,92
729480,note_on,,,,,0,0,13,,,,11,,,71,92
729480,note_on,,,,,120,0,16,,,,14,,,43,0
729480,note_on,,,,,0,0,16,,,,14,,,47,105
729480,note_on,,,,,120,0,13,,,,11,,,67,0
729600,note_on,,,,,144,0,4,,,,2,,,78,92
729600,note_on,,,,,120,0,15,,,,13,,,59,0
729600,note_on,,,,,144,0,8,,,,4,,,66,92
729600,note_on,,,,,0,0,3,,,,1,,,78,92
729600,note_on,,,,,144,0,3,,,,1,,,81,112
729600,note_on,,,,,120,0,13,,,,11,,,71,0
729600,note_on,,,,,0,0,13,,,,11,,,74,92
729600,note_on,,,,,0,0,4,,,,2,,,81,92
729600,note_on,,,,,0,0,14,,,,12,,,62,92
729600,note_on,,,,,120,0,14,,,,12,,,59,0
729600,note_on,,,,,0,0,16,,,,14,,,50,105
729600,note_on,,,,,120,0,16,,,,14,,,47,0
729600,note_on,,,,,0,0,6,,,,3,,,57,92
729600,note_on,,,,,144,0,6,,,,3,,,54,92
729600,note_on,,,,,0,0,15,,,,13,,,62,105
729600,note_on,,,,,0,0,8,,,,4,,,69,92
729600,note_on,,,,,0,0,12,,,,10,,,74,92
729600,note_on,,,,,120,0,12,,,,10,,,71,0
730176,note_on,,,,,576,0,4,,,,2,,,81,0
730176,note_on,,,,,576,0,16,,,,14,,,50,0
730176,note_on,,,,,576,0,8,,,,4,,,69,0
730176,note_on,,,,,0,0,8,,,,4,,,66,0
730176,note_on,,,,,576,0,14,,,,12,,,62,0
730176,note_on,,,,,576,0,13,,,,11,,,74,0
730176,note_on,,,,,576,0,12,,,,10,,,74,0
730176,note_on,,,,,0,0,3,,,,1,,,81,0
730176,note_on,,,,,576,0,15,,,,13,,,62,0
730176,note_on,,,,,0,0,6,,,,3,,,54,0
730176,note_on,,,,,576,0,6,,,,3,,,57,0
730176,note_on,,,,,576,0,3,,,,1,,,78,0
730176,note_on,,,,,0,0,4,,,,2,,,78,0
730320,note_on,,,,,2784,0,1,,,,0,,,86,105
730320,note_on,,,,,144,0,8,,,,4,,,66,92
730320,note_on,,,,,144,0,6,,,,3,,,54,92
730320,note_on,,,,,144,0,4,,,,2,,,74,92
730320,note_on,,,,,144,0,3,,,,1,,,78,92
730440,note_on,,,,,120,0,1,,,,0,,,86,0
730440,note_on,,,,,0,0,1,,,,0,,,90,105
730440,note_on,,,,,0,0,4,,,,2,,,78,92
730440,note_on,,,,,120,0,4,,,,2,,,74,0
730512,note_on,,,,,192,0,6,,,,3,,,54,0
730512,note_on,,,,,192,0,8,,,,4,,,66,0
730512,note_on,,,,,192,0,3,,,,1,,,78,0
730560,note_on,,,,,0,0,1,,,,0,,,93,105
730560,note_on,,,,,48,0,8,,,,4,,,62,92
730560,note_on,,,,,48,0,3,,,,1,,,74,92
730560,note_on,,,,,120,0,1,,,,0,,,90,0
730560,note_on,,,,,120,0,4,,,,2,,,78,0
730560,note_on,,,,,0,0,4,,,,2,,,81,92
730560,note_on,,,,,48,0,6,,,,3,,,50,92
730736,note_on,,,,,176,0,1,,,,0,,,93,0
730816,note_on,,,,,256,0,4,,,,2,,,81,0
730880,note_on,,,,,144,0,1,,,,0,,,90,105
730880,note_on,,,,,64,0,4,,,,2,,,78,92
731056,note_on,,,,,176,0,1,,,,0,,,90,0
731136,note_on,,,,,576,0,3,,,,1,,,74,0
731136,note_on,,,,,256,0,4,,,,2,,,78,0
731136,note_on,,,,,576,0,6,,,,3,,,50,0
731136,note_on,,,,,576,0,8,,,,4,,,62,0
731200,note_on,,,,,144,0,1,,,,0,,,86,105
731200,note_on,,,,,1024,0,13,,,,11,,,74,105
731200,note_on,,,,,64,0,4,,,,2,,,74,92
731200,note_on,,,,,1024,0,12,,,,10,,,86,116
731376,note_on,,,,,176,0,13,,,,11,,,74,0
731376,note_on,,,,,176,0,12,,,,10,,,86,0
731376,note_on,,,,,176,0,1,,,,0,,,86,0
731456,note_on,,,,,256,0,4,,,,2,,,74,0
731520,note_on,,,,,144,0,13,,,,11,,,75,105
731520,set_tempo,,,,,35040,1,0,410959,,,,,,,
731520,note_on,,,,,144,0,12,,,,10,,,87,116
731696,note_on,,,,,176,0,12,,,,10,,,87,0
731696,note_on,,,,,176,0,13,,,,11,,,75,0
731840,note_on,,,,,144,0,12,,,,10,,,86,116
732016,note_on,,,,,176,0,12,,,,10,,,86,0
732160,note_on,,,,,1984,0,14,,,,12,,,71,105
732160,note_on,,,,,144,0,12,,,,10,,,87,127
732160,note_on,,,,,0,0,12,,,,10,,,75,116
732160,note_on,,,,,464,0,13,,,,11,,,83,105
732336,note_on,,,,,176,0,14,,,,12,,,71,0
732336,note_on,,,,,176,0,13,,,,11,,,83,0
732480,note_on,,,,,144,0,14,,,,12,,,71,105
732480,note_on,,,,,144,0,13,,,,11,,,84,105
732656,note_on,,,,,176,0,13,,,,11,,,84,0
732656,note_on,,,,,176,0,14,,,,12,,,71,0
732800,note_on,,,,,144,0,13,,,,11,,,83,105
732976,note_on,,,,,176,0,13,,,,11,,,83,0
732992,note_on,,,,,832,0,12,,,,10,,,75,0
732992,note_on,,,,,0,0,12,,,,10,,,87,0
733120,note_on,,,,,464,0,14,,,,12,,,68,105
733120,note_on,,,,,2944,0,15,,,,13,,,68,105
733120,note_on,,,,,0,0,12,,,,10,,,87,127
733120,note_on,,,,,0,0,13,,,,11,,,72,105
733120,note_on,,,,,128,0,12,,,,10,,,75,116
733120,note_on,,,,,144,0,13,,,,11,,,84,125
733296,note_on,,,,,176,0,15,,,,13,,,68,0
733296,note_on,,,,,176,0,14,,,,12,,,68,0
733440,note_on,,,,,144,0,15,,,,13,,,69,105
733440,note_on,,,,,144,0,14,,,,12,,,69,105
733616,note_on,,,,,176,0,15,,,,13,,,69,0
733616,note_on,,,,,176,0,14,,,,12,,,69,0
733760,note_on,,,,,144,0,14,,,,12,,,68,105
733936,note_on,,,,,176,0,14,,,,12,,,68,0
733952,note_on,,,,,832,0,12,,,,10,,,87,0
733952,note_on,,,,,0,0,13,,,,11,,,84,0
733952,note_on,,,,,0,0,12,,,,10,,,75,0
733952,note_on,,,,,832,0,13,,,,11,,,72,0
734080,note_on,,,,,464,0,15,,,,13,,,65,105
734080,note_on,,,,,128,0,13,,,,11,,,72,105
734080,note_on,,,,,0,0,13,,,,11,,,84,125
734080,note_on,,,,,128,0,12,,,,10,,,75,116
734080,note_on,,,,,0,0,12,,,,10,,,87,127
734080,note_on,,,,,144,0,14,,,,12,,,69,125
734256,note_on,,,,,176,0,15,,,,13,,,65,0
734400,note_on,,,,,144,0,15,,,,13,,,66,105
734576,note_on,,,,,176,0,15,,,,13,,,66,0
734720,note_on,,,,,144,0,15,,,,13,,,65,105
734880,note_on,,,,,4704,0,16,,,,14,,,38,116
734896,note_on,,,,,176,0,15,,,,13,,,65,0
734912,note_on,,,,,832,0,14,,,,12,,,69,0
734912,note_on,,,,,0,0,13,,,,11,,,72,0
734912,note_on,,,,,832,0,13,,,,11,,,84,0
734912,note_on,,,,,832,0,12,,,,10,,,87,0
734912,note_on,,,,,0,0,12,,,,10,,,75,0
735040,note_on,,,,,128,0,12,,,,10,,,87,127
735040,note_on,,,,,0,0,12,,,,10,,,75,116
735040,note_on,,,,,144,0,15,,,,13,,,66,105
735040,note_on,,,,,0,0,13,,,,11,,,69,105
735040,note_on,,,,,128,0,13,,,,11,,,78,125
735040,note_on,,,,,128,0,14,,,,12,,,72,125
735144,note_on,,,,,264,0,16,,,,14,,,38,0
735360,note_on,,,,,216,0,16,,,,14,,,50,116
735536,note_on,,,,,496,0,12,,,,10,,,75,0
735536,note_on,,,,,496,0,14,,,,12,,,72,0
735536,note_on,,,,,0,0,12,,,,10,,,87,0
735624,note_on,,,,,0,0,13,,,,11,,,78,0
735624,note_on,,,,,584,0,13,,,,11,,,69,0
735648,note_on,,,,,608,0,15,,,,13,,,66,0
735648,note_on,,,,,288,0,16,,,,14,,,50,0
735680,note_on,,,,,144,0,14,,,,12,,,70,105
735680,note_on,,,,,144,0,12,,,,10,,,86,116
735840,note_on,,,,,192,0,16,,,,14,,,38,116
735840,note_on,,,,,192,0,15,,,,13,,,50,105
735840,note_on,,,,,0,0,13,,,,11,,,78,105
735840,note_on,,,,,216,0,13,,,,11,,,69,105
735856,note_on,,,,,176,0,14,,,,12,,,70,0
735856,note_on,,,,,176,0,12,,,,10,,,86,0
736000,note_on,,,,,144,0,12,,,,10,,,84,116
736000,note_on,,,,,144,0,14,,,,12,,,69,105
736104,note_on,,,,,0,0,13,,,,11,,,69,0
736104,note_on,,,,,264,0,13,,,,11,,,78,0
736128,note_on,,,,,288,0,16,,,,14,,,38,0
736128,note_on,,,,,288,0,15,,,,13,,,50,0
736176,note_on,,,,,176,0,12,,,,10,,,84,0
736176,note_on,,,,,176,0,14,,,,12,,,69,0
736320,note_on,,,,,0,0,13,,,,11,,,79,105
736320,note_on,,,,,216,0,13,,,,11,,,70,105
736320,note_on,,,,,192,0,16,,,,14,,,43,116
736320,note_on,,,,,144,0,12,,,,10,,,86,116
736320,note_on,,,,,144,0,14,,,,12,,,70,105
736320,note_on,,,,,192,0,15,,,,13,,,55,105
736496,note_on,,,,,176,0,14,,,,12,,,70,0
736496,note_on,,,,,176,0,12,,,,10,,,86,0
736584,note_on,,,,,264,0,13,,,,11,,,79,0
736584,note_on,,,,,0,0,13,,,,11,,,70,0
736608,note_on,,,,,288,0,15,,,,13,,,55,0
736608,note_on,,,,,288,0,16,,,,14,,,43,0
736640,note_on,,,,,144,0,14,,,,12,,,69,105
736640,note_on,,,,,144,0,12,,,,10,,,84,116
736800,note_on,,,,,216,0,13,,,,11,,,79,105
736800,note_on,,,,,192,0,15,,,,13,,,43,105
736800,note_on,,,,,0,0,13,,,,11,,,70,105
736800,note_on,,,,,192,0,16,,,,14,,,31,116
736816,note_on,,,,,176,0,12,,,,10,,,84,0
736816,note_on,,,,,176,0,14,,,,12,,,69,0
736960,note_on,,,,,144,0,14,,,,12,,,67,105
736960,note_on,,,,,144,0,12,,,,10,,,82,116
737064,note_on,,,,,264,0,13,,,,11,,,70,0
737064,note_on,,,,,0,0,13,,,,11,,,79,0
737088,note_on,,,,,288,0,15,,,,13,,,43,0
737088,note_on,,,,,288,0,16,,,,14,,,31,0
737136,note_on,,,,,176,0,14,,,,12,,,67,0
737136,note_on,,,,,176,0,12,,,,10,,,82,0
737280,note_on,,,,,192,0,15,,,,13,,,53,105
737280,note_on,,,,,0,0,14,,,,12,,,65,105
737280,note_on,,,,,144,0,12,,,,10,,,84,127
737280,note_on,,,,,144,0,14,,,,12,,,69,125
737280,note_on,,,,,216,0,13,,,,11,,,81,125
737280,note_on,,,,,192,0,16,,,,14,,,41,116
737280,note_on,,,,,0,0,13,,,,11,,,72,105
737568,note_on,,,,,288,0,16,,,,14,,,41,0
737568,note_on,,,,,288,0,15,,,,13,,,53,0
737760,note_on,,,,,192,0,16,,,,14,,,29,116
737760,note_on,,,,,192,0,15,,,,13,,,41,105
737856,note_on,,,,,576,0,13,,,,11,,,72,0
737856,note_on,,,,,576,0,12,,,,10,,,84,0
737856,note_on,,,,,0,0,14,,,,12,,,69,0
737856,note_on,,,,,0,0,13,,,,11,,,81,0
737856,note_on,,,,,576,0,14,,,,12,,,65,0
738000,note_on,,,,,144,0,12,,,,10,,,81,116
738000,note_on,,,,,6624,0,1,,,,0,,,89,105
738000,note_on,,,,,71808,0,2,,,,0,,,77,105
738000,note_on,,,,,6864,0,3,,,,1,,,77,105
738000,note_on,,,,,6864,0,6,,,,3,,,53,105
738000,note_on,,,,,0,0,4,,,,2,,,65,105
738000,note_on,,,,,144,0,14,,,,12,,,69,105
738000,note_on,,,,,0,0,14,,,,12,,,65,105
738000,note_on,,,,,144,0,13,,,,11,,,69,105
738000,note_on,,,,,6544,0,4,,,,2,,,77,105
738048,note_on,,,,,288,0,15,,,,13,,,41,0
738048,note_on,,,,,288,0,16,,,,14,,,29,0
738120,note_on,,,,,0,0,6,,,,3,,,57,105
738120,note_on,,,,,0,0,3,,,,1,,,81,105
738120,note_on,,,,,120,0,3,,,,1,,,77,0
738120,note_on,,,,,0,0,4,,,,2,,,69,105
738120,note_on,,,,,0,0,4,,,,2,,,81,105
738120,note_on,,,,,0,0,4,,,,2,,,77,0
738120,note_on,,,,,120,0,1,,,,0,,,89,0
738120,note_on,,,,,120,0,4,,,,2,,,65,0
738120,note_on,,,,,120,0,6,,,,3,,,53,0
738120,note_on,,,,,0,0,2,,,,0,,,81,105
738120,note_on,,,,,120,0,2,,,,0,,,77,0
738120,note_on,,,,,0,0,1,,,,0,,,93,105
738144,note_on,,,,,144,0,14,,,,12,,,65,0
738144,note_on,,,,,0,0,14,,,,12,,,69,0
738144,note_on,,,,,144,0,12,,,,10,,,81,0
738144,note_on,,,,,144,0,13,,,,11,,,69,0
738240,note_on,,,,,120,0,3,,,,1,,,81,0
738240,note_on,,,,,120,0,4,,,,2,,,81,0
738240,note_on,,,,,0,0,4,,,,2,,,69,0
738240,note_on,,,,,0,0,14,,,,12,,,65,105
738240,note_on,,,,,0,0,4,,,,2,,,72,105
738240,note_on,,,,,0,0,4,,,,2,,,84,105
738240,note_on,,,,,96,0,14,,,,12,,,69,105
738240,note_on,,,,,0,0,2,,,,0,,,84,105
738240,note_on,,,,,96,0,13,,,,11,,,65,105
738240,note_on,,,,,0,0,3,,,,1,,,84,105
738240,note_on,,,,,120,0,6,,,,3,,,57,0
738240,note_on,,,,,0,0,6,,,,3,,,60,105
738240,note_on,,,,,0,0,1,,,,0,,,96,105
738240,note_on,,,,,96,0,12,,,,10,,,77,116
738240,note_on,,,,,120,0,1,,,,0,,,93,0
738240,note_on,,,,,120,0,2,,,,0,,,81,0
738432,note_on,,,,,192,0,6,,,,3,,,60,0
738432,note_on,,,,,0,0,4,,,,2,,,72,0
738432,note_on,,,,,192,0,2,,,,0,,,84,0
738432,note_on,,,,,192,0,13,,,,11,,,65,0
738432,note_on,,,,,192,0,12,,,,10,,,77,0
738432,note_on,,,,,192,0,1,,,,0,,,96,0
738432,note_on,,,,,192,0,3,,,,1,,,84,0
738432,note_on,,,,,192,0,4,,,,2,,,84,0
738528,note_on,,,,,288,0,14,,,,12,,,65,0
738528,note_on,,,,,0,0,14,,,,12,,,69,0
738560,note_on,,,,,0,0,4,,,,2,,,69,105
738560,note_on,,,,,128,0,3,,,,1,,,81,105
738560,note_on,,,,,128,0,1,,,,0,,,93,105
738560,note_on,,,,,128,0,6,,,,3,,,57,105
738560,note_on,,,,,128,0,2,,,,0,,,81,105
738560,note_on,,,,,128,0,4,,,,2,,,81,105
738752,note_on,,,,,192,0,6,,,,3,,,57,0
738752,note_on,,,,,192,0,1,,,,0,,,93,0
738752,note_on,,,,,192,0,4,,,,2,,,69,0
738752,note_on,,,,,0,0,4,,,,2,,,81,0
738752,note_on,,,,,192,0,3,,,,1,,,81,0
738752,note_on,,,,,192,0,2,,,,0,,,81,0
738880,note_on,,,,,128,0,6,,,,3,,,53,105
738880,note_on,,,,,448,0,13,,,,11,,,74,105
738880,note_on,,,,,128,0,4,,,,2,,,65,105
738880,note_on,,,,,0,0,4,,,,2,,,77,105
738880,note_on,,,,,128,0,1,,,,0,,,89,105
738880,note_on,,,,,448,0,12,,,,10,,,86,116
738880,note_on,,,,,128,0,3,,,,1,,,77,105
738880,note_on,,,,,128,0,2,,,,0,,,77,105
739072,note_on,,,,,192,0,1,,,,0,,,89,0
739072,end_of_track,,,,,0,1,2,,,,,,,,
739072,note_on,,,,,192,0,4,,,,2,,,77,0
739072,note_on,,,,,192,0,2,,,,0,,,77,0
739072,note_on,,,,,0,0,4,,,,2,,,65,0
739072,note_on,,,,,192,0,13,,,,11,,,74,0
739072,note_on,,,,,192,0,12,,,,10,,,86,0
739072,note_on,,,,,192,0,6,,,,3,,,53,0
739072,note_on,,,,,192,0,3,,,,1,,,77,0
739200,note_on,,,,,128,0,13,,,,11,,,75,105
739200,note_on,,,,,128,0,12,,,,10,,,87,116
739376,note_on,,,,,176,0,12,,,,10,,,87,0
739376,note_on,,,,,176,0,13,,,,11,,,75,0
739520,note_on,,,,,144,0,12,,,,10,,,86,116
739696,note_on,,,,,176,0,12,,,,10,,,86,0
739840,note_on,,,,,144,0,12,,,,10,,,75,116
739840,note_on,,,,,0,0,12,,,,10,,,87,127
739840,note_on,,,,,1312,0,14,,,,12,,,71,105
739840,note_on,,,,,464,0,13,,,,11,,,83,105
740016,note_on,,,,,176,0,13,,,,11,,,83,0
740016,note_on,,,,,176,0,14,,,,12,,,71,0
740160,note_on,,,,,144,0,14,,,,12,,,72,105
740160,note_on,,,,,144,0,13,,,,11,,,84,105
740336,note_on,,,,,176,0,14,,,,12,,,72,0
740336,note_on,,,,,176,0,13,,,,11,,,84,0
740480,note_on,,,,,144,0,13,,,,11,,,83,105
740656,note_on,,,,,176,0,13,,,,11,,,83,0
740704,note_on,,,,,864,0,12,,,,10,,,87,0
740704,note_on,,,,,0,0,12,,,,10,,,75,0
740800,note_on,,,,,0,0,13,,,,11,,,84,125
740800,note_on,,,,,96,0,12,,,,10,,,87,127
740800,note_on,,,,,0,0,12,,,,10,,,75,116
740800,note_on,,,,,2752,0,15,,,,13,,,68,105
740800,note_on,,,,,464,0,14,,,,12,,,68,105
740800,note_on,,,,,144,0,13,,,,11,,,72,105
740976,note_on,,,,,176,0,14,,,,12,,,68,0
740976,note_on,,,,,176,0,15,,,,13,,,68,0
741120,note_on,,,,,144,0,15,,,,13,,,69,105
741120,note_on,,,,,144,0,14,,,,12,,,69,105
741296,note_on,,,,,176,0,15,,,,13,,,69,0
741296,note_on,,,,,176,0,14,,,,12,,,69,0
741440,note_on,,,,,144,0,14,,,,12,,,68,105
741616,note_on,,,,,176,0,14,,,,12,,,68,0
741664,note_on,,,,,864,0,13,,,,11,,,84,0
741664,note_on,,,,,0,0,13,,,,11,,,72,0
741664,note_on,,,,,864,0,12,,,,10,,,75,0
741664,note_on,,,,,0,0,12,,,,10,,,87,0
741760,note_on,,,,,464,0,15,,,,13,,,65,105
741760,note_on,,,,,96,0,13,,,,11,,,72,105
741760,note_on,,,,,96,0,12,,,,10,,,75,116
741760,note_on,,,,,0,0,12,,,,10,,,87,127
741760,note_on,,,,,144,0,14,,,,12,,,69,125
741760,note_on,,,,,0,0,13,,,,11,,,84,125
741936,note_on,,,,,176,0,15,,,,13,,,65,0
742080,note_on,,,,,144,0,15,,,,13,,,66,105
742256,note_on,,,,,176,0,15,,,,13,,,66,0
742400,note_on,,,,,144,0,15,,,,13,,,65,105
742560,note_on,,,,,3488,0,3,,,,1,,,75,92
742560,note_on,,,,,3488,0,6,,,,3,,,57,92
742560,note_on,,,,,0,0,6,,,,3,,,63,92
742560,note_on,,,,,37536,0,11,,,,7,,,47,92
742560,note_on,,,,,4512,0,16,,,,14,,,35,116
742560,note_on,,,,,0,0,8,,,,4,,,59,105
742560,note_on,,,,,18144,0,10,,,,6,,,71,105
742560,note_on,,,,,11424,0,8,,,,4,,,47,105
742560,note_on,,,,,3488,0,4,,,,2,,,69,92
742560,note_on,,,,,0,0,4,,,,2,,,75,92
742560,note_on,,,,,0,0,1,,,,0,,,87,92
742560,note_on,,,,,0,0,3,,,,1,,,69,92
742560,note_on,,,,,0,0,10,,,,6,,,59,105
742560,note_on,,,,,3488,0,1,,,,0,,,81,92
742576,note_on,,,,,176,0,15,,,,13,,,65,0
742608,note_on,,,,,48,0,11,,,,7,,,47,0
742620,note_on,,,,,12,0,11,,,,7,,,47,92
742624,note_on,,,,,0,0,12,,,,10,,,75,0
742624,note_on,,,,,864,0,12,,,,10,,,87,0
742624,note_on,,,,,864,0,14,,,,12,,,69,0
742624,note_on,,,,,864,0,13,,,,11,,,84,0
742624,note_on,,,,,0,0,13,,,,11,,,72,0
742668,note_on,,,,,48,0,11,,,,7,,,47,0
742680,note_on,,,,,12,0,11,,,,7,,,47,92
742720,note_on,,,,,96,0,12,,,,10,,,75,116
742720,note_on,,,,,0,0,12,,,,10,,,87,127
742720,note_on,,,,,96,0,14,,,,12,,,66,125
742720,note_on,,,,,96,0,13,,,,11,,,81,125
742720,note_on,,,,,144,0,15,,,,13,,,66,105
742728,note_on,,,,,48,0,11,,,,7,,,47,0
742740,note_on,,,,,12,0,11,,,,7,,,47,92
742788,note_on,,,,,48,0,11,,,,7,,,47,0
742800,note_on,,,,,12,0,11,,,,7,,,47,92
742824,note_on,,,,,264,0,16,,,,14,,,35,0
742848,note_on,,,,,48,0,11,,,,7,,,47,0
742860,note_on,,,,,12,0,11,,,,7,,,47,92
742896,note_on,,,,,176,0,15,,,,13,,,66,0
742908,note_on,,,,,48,0,11,,,,7,,,47,0
742920,note_on,,,,,12,0,11,,,,7,,,47,92
742968,note_on,,,,,48,0,11,,,,7,,,47,0
742980,note_on,,,,,12,0,11,,,,7,,,47,92
743028,note_on,,,,,48,0,11,,,,7,,,47,0
743040,note_on,,,,,216,0,16,,,,14,,,48,116
743040,note_on,,,,,12,0,11,,,,7,,,47,105
743040,note_on,,,,,144,0,15,,,,13,,,60,105
743216,note_on,,,,,176,0,16,,,,14,,,48,0
743216,note_on,,,,,496,0,14,,,,12,,,66,0
743216,note_on,,,,,496,0,13,,,,11,,,81,0
743216,note_on,,,,,176,0,15,,,,13,,,60,0
743232,note_on,,,,,512,0,12,,,,10,,,87,0
743232,note_on,,,,,0,0,12,,,,10,,,75,0
743328,note_on,,,,,0,0,4,,,,2,,,69,0
743328,note_on,,,,,768,0,8,,,,4,,,59,0
743328,note_on,,,,,288,0,11,,,,7,,,47,0
743328,note_on,,,,,0,0,10,,,,6,,,71,0
743328,note_on,,,,,768,0,10,,,,6,,,59,0
743328,note_on,,,,,0,0,6,,,,3,,,57,0
743328,note_on,,,,,0,0,1,,,,0,,,81,0
743328,note_on,,,,,0,0,8,,,,4,,,47,0
743328,note_on,,,,,768,0,1,,,,0,,,87,0
743328,note_on,,,,,0,0,3,,,,1,,,75,0
743328,note_on,,,,,768,0,3,,,,1,,,69,0
743328,note_on,,,,,768,0,4,,,,2,,,75,0
743328,note_on,,,,,768,0,6,,,,3,,,63,0
743360,note_on,,,,,144,0,13,,,,11,,,79,105
743360,note_on,,,,,128,0,12,,,,10,,,88,116
743360,note_on,,,,,144,0,15,,,,13,,,59,105
743360,note_on,,,,,144,0,16,,,,14,,,47,116
743360,note_on,,,,,144,0,14,,,,12,,,64,105
743520,note_on,,,,,0,0,6,,,,3,,,63,88
743520,note_on,,,,,192,0,1,,,,0,,,84,92
743520,note_on,,,,,0,0,1,,,,0,,,87,92
743520,note_on,,,,,0,0,3,,,,1,,,72,88
743520,note_on,,,,,192,0,3,,,,1,,,75,88
743520,note_on,,,,,192,0,11,,,,7,,,47,105
743520,note_on,,,,,0,0,10,,,,6,,,59,105
743520,note_on,,,,,192,0,8,,,,4,,,47,105
743520,note_on,,,,,0,0,8,,,,4,,,59,105
743520,note_on,,,,,192,0,4,,,,2,,,72,87
743520,note_on,,,,,0,0,4,,,,2,,,75,87
743520,note_on,,,,,192,0,6,,,,3,,,60,88
743520,note_on,,,,,192,0,10,,,,6,,,71,105
743536,note_on,,,,,176,0,14,,,,12,,,64,0
743536,note_on,,,,,176,0,16,,,,14,,,47,0
743536,note_on,,,,,176,0,13,,,,11,,,79,0
743536,note_on,,,,,176,0,15,,,,13,,,59,0
743552,note_on,,,,,192,0,12,,,,10,,,88,0
743680,note_on,,,,,144,0,13,,,,11,,,78,105
743680,note_on,,,,,128,0,12,,,,10,,,90,116
743680,note_on,,,,,144,0,14,,,,12,,,63,105
743680,note_on,,,,,144,0,15,,,,13,,,57,105
743680,note_on,,,,,144,0,16,,,,14,,,45,116
743808,note_on,,,,,0,0,8,,,,4,,,47,0
743808,note_on,,,,,288,0,3,,,,1,,,72,0
743808,note_on,,,,,0,0,1,,,,0,,,84,0
743808,note_on,,,,,288,0,8,,,,4,,,59,0
743808,note_on,,,,,0,0,3,,,,1,,,75,0
743808,note_on,,,,,0,0,10,,,,6,,,71,0
743808,note_on,,,,,288,0,1,,,,0,,,87,0
743808,note_on,,,,,288,0,6,,,,3,,,63,0
743808,note_on,,,,,0,0,6,,,,3,,,60,0
743808,note_on,,,,,288,0,4,,,,2,,,75,0
743808,note_on,,,,,0,0,4,,,,2,,,72,0
743808,note_on,,,,,288,0,10,,,,6,,,59,0
743808,note_on,,,,,288,0,11,,,,7,,,47,0
743856,note_on,,,,,176,0,16,,,,14,,,45,0
743856,note_on,,,,,176,0,15,,,,13,,,57,0
743856,note_on,,,,,176,0,14,,,,12,,,63,0
743856,note_on,,,,,176,0,13,,,,11,,,78,0
743872,note_on,,,,,192,0,12,,,,10,,,90,0
744000,note_on,,,,,144,0,16,,,,14,,,47,116
744000,note_on,,,,,144,0,13,,,,11,,,79,105
744000,note_on,,,,,144,0,14,,,,12,,,64,105
744000,note_on,,,,,128,0,12,,,,10,,,88,116
744000,note_on,,,,,144,0,15,,,,13,,,59,105
744176,note_on,,,,,176,0,16,,,,14,,,47,0
744176,note_on,,,,,176,0,14,,,,12,,,64,0
744176,note_on,,,,,176,0,15,,,,13,,,59,0
744176,note_on,,,,,176,0,13,,,,11,,,79,0
744192,note_on,,,,,192,0,12,,,,10,,,88,0
744320,note_on,,,,,144,0,14,,,,12,,,63,105
744320,note_on,,,,,144,0,15,,,,13,,,57,105
744320,note_on,,,,,144,0,13,,,,11,,,78,105
744320,note_on,,,,,144,0,16,,,,14,,,45,116
744320,note_on,,,,,128,0,12,,,,10,,,90,116
744480,note_on,,,,,672,0,6,,,,3,,,64,88
744480,note_on,,,,,0,0,8,,,,4,,,59,105
744480,note_on,,,,,672,0,8,,,,4,,,47,105
744480,note_on,,,,,0,0,6,,,,3,,,59,88
744480,note_on,,,,,672,0,3,,,,1,,,71,88
744480,note_on,,,,,672,0,10,,,,6,,,59,105
744480,note_on,,,,,672,0,11,,,,7,,,47,105
744480,note_on,,,,,0,0,10,,,,6,,,71,105
744480,note_on,,,,,672,0,1,,,,0,,,88,92
744480,note_on,,,,,0,0,1,,,,0,,,83,92
744480,note_on,,,,,0,0,3,,,,1,,,76,88
744480,note_on,,,,,672,0,4,,,,2,,,71,87
744480,note_on,,,,,0,0,4,,,,2,,,76,87
744496,note_on,,,,,176,0,15,,,,13,,,57,0
744496,note_on,,,,,176,0,13,,,,11,,,78,0
744496,note_on,,,,,176,0,14,,,,12,,,63,0
744496,note_on,,,,,176,0,16,,,,14,,,45,0
744512,note_on,,,,,192,0,12,,,,10,,,90,0
744640,note_on,,,,,144,0,15,,,,13,,,55,105
744640,note_on,,,,,144,0,13,,,,11,,,76,105
744640,note_on,,,,,144,0,14,,,,12,,,64,105
744640,note_on,,,,,128,0,12,,,,10,,,91,116
744640,note_on,,,,,144,0,16,,,,14,,,43,116
744768,note_on,,,,,288,0,6,,,,3,,,59,0
744768,note_on,,,,,0,0,6,,,,3,,,64,0
744768,note_on,,,,,288,0,8,,,,4,,,59,0
744768,note_on,,,,,0,0,4,,,,2,,,71,0
744768,note_on,,,,,288,0,3,,,,1,,,76,0
744768,note_on,,,,,0,0,3,,,,1,,,71,0
744768,note_on,,,,,0,0,1,,,,0,,,88,0
744768,note_on,,,,,288,0,1,,,,0,,,83,0
744768,note_on,,,,,0,0,10,,,,6,,,59,0
744768,note_on,,,,,288,0,10,,,,6,,,71,0
744768,note_on,,,,,288,0,4,,,,2,,,76,0
744768,note_on,,,,,288,0,11,,,,7,,,47,0
744768,note_on,,,,,0,0,8,,,,4,,,47,0
744816,note_on,,,,,176,0,15,,,,13,,,55,0
744816,note_on,,,,,176,0,13,,,,11,,,76,0
744816,note_on,,,,,176,0,14,,,,12,,,64,0
744816,note_on,,,,,176,0,16,,,,14,,,43,0
744832,note_on,,,,,192,0,12,,,,10,,,91,0
744960,note_on,,,,,128,0,12,,,,10,,,75,116
744960,note_on,,,,,144,0,14,,,,12,,,66,105
744960,note_on,,,,,192,0,11,,,,7,,,47,105
744960,note_on,,,,,144,0,16,,,,14,,,48,116
744960,note_on,,,,,144,0,13,,,,11,,,69,105
744960,note_on,,,,,144,0,15,,,,13,,,60,105
745136,note_on,,,,,176,0,15,,,,13,,,60,0
745136,note_on,,,,,176,0,13,,,,11,,,69,0
745136,note_on,,,,,176,0,16,,,,14,,,48,0
745136,note_on,,,,,176,0,14,,,,12,,,66,0
745152,note_on,,,,,192,0,12,,,,10,,,75,0
745152,note_on,,,,,192,0,11,,,,7,,,47,0
745280,note_on,,,,,144,0,13,,,,11,,,67,105
745280,note_on,,,,,144,0,14,,,,12,,,64,105
745280,note_on,,,,,128,0,12,,,,10,,,76,116
745280,note_on,,,,,144,0,16,,,,14,,,47,116
745280,note_on,,,,,144,0,15,,,,13,,,59,105
745280,note_on,,,,,128,0,11,,,,7,,,47,116
745440,note_on,,,,,0,0,4,,,,2,,,75,88
745440,note_on,,,,,672,0,10,,,,6,,,71,105
745440,note_on,,,,,672,0,6,,,,3,,,63,88
745440,note_on,,,,,0,0,6,,,,3,,,60,88
745440,note_on,,,,,672,0,1,,,,0,,,84,88
745440,note_on,,,,,0,0,1,,,,0,,,87,88
745440,note_on,,,,,672,0,4,,,,2,,,72,88
745440,note_on,,,,,672,0,3,,,,1,,,75,87
745440,note_on,,,,,0,0,10,,,,6,,,59,105
745440,note_on,,,,,0,0,8,,,,4,,,59,105
745440,note_on,,,,,672,0,8,,,,4,,,47,105
745440,note_on,,,,,0,0,3,,,,1,,,72,87
745456,note_on,,,,,176,0,13,,,,11,,,67,0
745456,note_on,,,,,176,0,14,,,,12,,,64,0
745456,note_on,,,,,176,0,16,,,,14,,,47,0
745456,note_on,,,,,176,0,15,,,,13,,,59,0
745472,note_on,,,,,192,0,12,,,,10,,,76,0
745472,note_on,,,,,192,0,11,,,,7,,,47,0
745600,note_on,,,,,144,0,14,,,,12,,,63,105
745600,note_on,,,,,144,0,13,,,,11,,,66,105
745600,note_on,,,,,128,0,12,,,,10,,,78,116
745600,note_on,,,,,144,0,15,,,,13,,,57,105
745600,note_on,,,,,144,0,16,,,,14,,,45,116
745600,note_on,,,,,128,0,11,,,,7,,,47,116
745728,note_on,,,,,0,0,8,,,,4,,,47,0
745728,note_on,,,,,0,0,6,,,,3,,,63,0
745728,note_on,,,,,288,0,6,,,,3,,,60,0
745728,note_on,,,,,288,0,8,,,,4,,,59,0
745728,note_on,,,,,288,0,4,,,,2,,,75,0
745728,note_on,,,,,0,0,4,,,,2,,,72,0
745728,note_on,,,,,0,0,3,,,,1,,,75,0
745728,note_on,,,,,0,0,1,,,,0,,,84,0
745728,note_on,,,,,288,0,1,,,,0,,,87,0
745728,note_on,,,,,288,0,3,,,,1,,,72,0
745728,note_on,,,,,288,0,10,,,,6,,,59,0
745728,note_on,,,,,0,0,10,,,,6,,,71,0
745776,note_on,,,,,176,0,16,,,,14,,,45,0
745776,note_on,,,,,176,0,14,,,,12,,,63,0
745776,note_on,,,,,176,0,15,,,,13,,,57,0
745776,note_on,,,,,176,0,13,,,,11,,,66,0
745792,note_on,,,,,192,0,11,,,,7,,,47,0
745792,note_on,,,,,192,0,12,,,,10,,,78,0
745920,note_on,,,,,144,0,16,,,,14,,,47,116
745920,note_on,,,,,144,0,14,,,,12,,,64,105
745920,note_on,,,,,144,0,15,,,,13,,,59,105
745920,note_on,,,,,144,0,13,,,,11,,,67,105
745920,note_on,,,,,128,0,11,,,,7,,,47,116
745920,note_on,,,,,128,0,12,,,,10,,,76,116
746096,note_on,,,,,176,0,14,,,,12,,,64,0
746096,note_on,,,,,176,0,15,,,,13,,,59,0
746096,note_on,,,,,176,0,13,,,,11,,,67,0
746096,note_on,,,,,176,0,16,,,,14,,,47,0
746112,note_on,,,,,192,0,11,,,,7,,,47,0
746112,note_on,,,,,192,0,12,,,,10,,,76,0
746240,note_on,,,,,144,0,15,,,,13,,,57,105
746240,note_on,,,,,128,0,12,,,,10,,,78,116
746240,note_on,,,,,144,0,14,,,,12,,,63,105
746240,note_on,,,,,128,0,11,,,,7,,,47,116
746240,note_on,,,,,144,0,13,,,,11,,,66,105
746240,note_on,,,,,144,0,16,,,,14,,,45,116
746400,note_on,,,,,672,0,4,,,,2,,,71,88
746400,note_on,,,,,0,0,1,,,,0,,,88,88
746400,note_on,,,,,0,0,3,,,,1,,,71,87
746400,note_on,,,,,0,0,4,,,,2,,,76,88
746400,note_on,,,,,672,0,1,,,,0,,,83,88
746400,note_on,,,,,0,0,10,,,,6,,,71,105
746400,note_on,,,,,672,0,10,,,,6,,,59,105
746400,note_on,,,,,0,0,8,,,,4,,,47,105
746400,note_on,,,,,672,0,8,,,,4,,,59,105
746400,note_on,,,,,672,0,3,,,,1,,,76,87
746400,note_on,,,,,672,0,6,,,,3,,,59,88
746400,note_on,,,,,0,0,6,,,,3,,,64,88
746416,note_on,,,,,176,0,14,,,,12,,,63,0
746416,note_on,,,,,176,0,13,,,,11,,,66,0
746416,note_on,,,,,176,0,16,,,,14,,,45,0
746416,note_on,,,,,176,0,15,,,,13,,,57,0
746432,note_on,,,,,192,0,11,,,,7,,,47,0
746432,note_on,,,,,192,0,12,,,,10,,,78,0
746560,note_on,,,,,144,0,14,,,,12,,,64,105
746560,note_on,,,,,128,0,11,,,,7,,,47,116
746560,note_on,,,,,128,0,12,,,,10,,,79,116
746560,note_on,,,,,144,0,13,,,,11,,,64,105
746560,note_on,,,,,144,0,16,,,,14,,,43,116
746560,note_on,,,,,144,0,15,,,,13,,,55,105
746688,note_on,,,,,288,0,3,,,,1,,,71,0
746688,note_on,,,,,288,0,1,,,,0,,,88,0
746688,note_on,,,,,0,0,1,,,,0,,,83,0
746688,note_on,,,,,288,0,4,,,,2,,,76,0
746688,note_on,,,,,0,0,4,,,,2,,,71,0
746688,note_on,,,,,0,0,3,,,,1,,,76,0
746688,note_on,,,,,0,0,6,,,,3,,,59,0
746688,note_on,,,,,0,0,10,,,,6,,,59,0
746688,note_on,,,,,288,0,6,,,,3,,,64,0
746688,note_on,,,,,288,0,10,,,,6,,,71,0
746688,note_on,,,,,0,0,8,,,,4,,,59,0
746688,note_on,,,,,288,0,8,,,,4,,,47,0
746736,note_on,,,,,176,0,13,,,,11,,,64,0
746736,note_on,,,,,176,0,16,,,,14,,,43,0
746736,note_on,,,,,176,0,14,,,,12,,,64,0
746736,note_on,,,,,176,0,15,,,,13,,,55,0
746752,note_on,,,,,192,0,11,,,,7,,,47,0
746752,note_on,,,,,192,0,12,,,,10,,,79,0
746880,note_on,,,,,144,0,16,,,,14,,,45,116
746880,note_on,,,,,144,0,13,,,,11,,,75,105
746880,note_on,,,,,144,0,14,,,,12,,,72,105
746880,note_on,,,,,128,0,12,,,,10,,,78,116
746880,note_on,,,,,128,0,11,,,,7,,,47,116
746880,note_on,,,,,144,0,15,,,,13,,,57,105
747056,note_on,,,,,176,0,15,,,,13,,,57,0
747056,note_on,,,,,176,0,13,,,,11,,,75,0
747056,note_on,,,,,176,0,16,,,,14,,,45,0
747056,note_on,,,,,176,0,14,,,,12,,,72,0
747072,note_on,,,,,192,0,12,,,,10,,,78,0
747072,note_on,,,,,192,0,11,,,,7,,,47,0
747200,note_on,,,,,144,0,14,,,,12,,,71,105
747200,note_on,,,,,128,0,12,,,,10,,,79,116
747200,note_on,,,,,144,0,15,,,,13,,,55,105
747200,note_on,,,,,128,0,11,,,,7,,,47,116
747200,note_on,,,,,144,0,16,,,,14,,,43,116
747200,note_on,,,,,144,0,13,,,,11,,,76,105
747360,note_on,,,,,672,0,4,,,,2,,,78,88
747360,note_on,,,,,672,0,3,,,,1,,,75,87
747360,note_on,,,,,0,0,3,,,,1,,,78,87
747360,note_on,,,,,0,0,10,,,,6,,,59,105
747360,note_on,,,,,672,0,10,,,,6,,,71,105
747360,note_on,,,,,0,0,8,,,,4,,,59,105
747360,note_on,,,,,672,0,8,,,,4,,,47,105
747360,note_on,,,,,0,0,6,,,,3,,,54,92
747360,note_on,,,,,672,0,6,,,,3,,,63,92
747360,note_on,,,,,0,0,1,,,,0,,,87,88
747360,note_on,,,,,672,0,1,,,,0,,,90,88
747360,note_on,,,,,0,0,4,,,,2,,,75,88
747376,note_on,,,,,176,0,14,,,,12,,,71,0
747376,note_on,,,,,176,0,13,,,,11,,,76,0
747376,note_on,,,,,176,0,16,,,,14,,,43,0
747376,note_on,,,,,176,0,15,,,,13,,,55,0
747392,note_on,,,,,192,0,12,,,,10,,,79,0
747392,note_on,,,,,192,0,11,,,,7,,,47,0
747520,note_on,,,,,144,0,14,,,,12,,,69,105
747520,note_on,,,,,144,0,13,,,,11,,,78,105
747520,note_on,,,,,128,0,11,,,,7,,,47,116
747520,note_on,,,,,144,0,15,,,,13,,,54,105
747520,note_on,,,,,144,0,16,,,,14,,,42,116
747520,note_on,,,,,128,0,12,,,,10,,,81,116
747648,note_on,,,,,288,0,4,,,,2,,,75,0
747648,note_on,,,,,288,0,10,,,,6,,,59,0
747648,note_on,,,,,0,0,8,,,,4,,,47,0
747648,note_on,,,,,288,0,8,,,,4,,,59,0
747648,note_on,,,,,0,0,6,,,,3,,,63,0
747648,note_on,,,,,0,0,1,,,,0,,,90,0
747648,note_on,,,,,288,0,6,,,,3,,,54,0
747648,note_on,,,,,0,0,4,,,,2,,,78,0
747648,note_on,,,,,0,0,10,,,,6,,,71,0
747648,note_on,,,,,288,0,1,,,,0,,,87,0
747648,note_on,,,,,0,0,3,,,,1,,,75,0
747648,note_on,,,,,288,0,3,,,,1,,,78,0
747696,note_on,,,,,176,0,15,,,,13,,,54,0
747696,note_on,,,,,176,0,16,,,,14,,,42,0
747696,note_on,,,,,176,0,13,,,,11,,,78,0
747696,note_on,,,,,176,0,14,,,,12,,,69,0
747712,note_on,,,,,192,0,12,,,,10,,,81,0
747712,note_on,,,,,192,0,11,,,,7,,,47,0
747840,note_on,,,,,144,0,16,,,,14,,,43,116
747840,note_on,,,,,144,0,14,,,,12,,,71,105
747840,note_on,,,,,128,0,12,,,,10,,,79,116
747840,note_on,,,,,144,0,13,,,,11,,,76,105
747840,note_on,,,,,128,0,11,,,,7,,,47,116
747840,note_on,,,,,144,0,15,,,,13,,,55,105
748016,note_on,,,,,176,0,15,,,,13,,,55,0
748016,note_on,,,,,176,0,14,,,,12,,,71,0
748016,note_on,,,,,176,0,16,,,,14,,,43,0
748016,note_on,,,,,176,0,13,,,,11,,,76,0
748032,note_on,,,,,192,0,12,,,,10,,,79,0
748032,note_on,,,,,192,0,11,,,,7,,,47,0
748160,note_on,,,,,128,0,12,,,,10,,,81,116
748160,note_on,,,,,144,0,13,,,,11,,,78,105
748160,note_on,,,,,144,0,15,,,,13,,,54,105
748160,note_on,,,,,144,0,16,,,,14,,,42,116
748160,note_on,,,,,128,0,11,,,,7,,,47,116
748160,note_on,,,,,144,0,14,,,,12,,,69,105
748320,note_on,,,,,672,0,3,,,,1,,,76,87
748320,note_on,,,,,0,0,3,,,,1,,,79,87
748320,note_on,,,,,0,0,4,,,,2,,,76,88
748320,note_on,,,,,0,0,1,,,,0,,,88,88
748320,note_on,,,,,672,0,8,,,,4,,,59,105
748320,note_on,,,,,0,0,8,,,,4,,,47,105
748320,note_on,,,,,0,0,10,,,,6,,,71,105
748320,note_on,,,,,672,0,10,,,,6,,,59,105
748320,note_on,,,,,672,0,4,,,,2,,,79,88
748320,note_on,,,,,672,0,1,,,,0,,,91,88
748320,note_on,,,,,672,0,6,,,,3,,,52,92
748320,note_on,,,,,0,0,6,,,,3,,,64,92
748336,note_on,,,,,176,0,13,,,,11,,,78,0
748336,note_on,,,,,176,0,14,,,,12,,,69,0
748336,note_on,,,,,176,0,15,,,,13,,,54,0
748336,note_on,,,,,176,0,16,,,,14,,,42,0
748352,note_on,,,,,192,0,12,,,,10,,,81,0
748352,note_on,,,,,192,0,11,,,,7,,,47,0
748480,note_on,,,,,144,0,13,,,,11,,,79,105
748480,note_on,,,,,128,0,12,,,,10,,,83,116
748480,note_on,,,,,144,0,15,,,,13,,,52,105
748480,note_on,,,,,144,0,16,,,,14,,,40,116
748480,note_on,,,,,144,0,14,,,,12,,,67,105
748480,note_on,,,,,128,0,11,,,,7,,,47,116
748608,note_on,,,,,288,0,1,,,,0,,,88,0
748608,note_on,,,,,0,0,1,,,,0,,,91,0
748608,note_on,,,,,288,0,6,,,,3,,,64,0
748608,note_on,,,,,0,0,10,,,,6,,,59,0
748608,note_on,,,,,288,0,8,,,,4,,,47,0
748608,note_on,,,,,0,0,8,,,,4,,,59,0
748608,note_on,,,,,0,0,3,,,,1,,,76,0
748608,note_on,,,,,288,0,3,,,,1,,,79,0
748608,note_on,,,,,288,0,10,,,,6,,,71,0
748608,note_on,,,,,0,0,4,,,,2,,,79,0
748608,note_on,,,,,288,0,4,,,,2,,,76,0
748608,note_on,,,,,0,0,6,,,,3,,,52,0
748656,note_on,,,,,176,0,16,,,,14,,,40,0
748656,note_on,,,,,176,0,14,,,,12,,,67,0
748656,note_on,,,,,176,0,13,,,,11,,,79,0
748656,note_on,,,,,176,0,15,,,,13,,,52,0
748672,note_on,,,,,192,0,11,,,,7,,,47,0
748672,note_on,,,,,192,0,12,,,,10,,,83,0
748800,note_on,,,,,144,0,13,,,,11,,,79,105
748800,note_on,,,,,0,0,12,,,,10,,,73,116
748800,note_on,,,,,128,0,12,,,,10,,,85,116
748800,note_on,,,,,144,0,16,,,,14,,,34,116
748800,note_on,,,,,0,0,10,,,,6,,,76,105
748800,note_on,,,,,0,0,13,,,,11,,,76,105
748800,note_on,,,,,0,0,9,,,,5,,,64,116
748800,note_on,,,,,0,0,6,,,,3,,,46,105
748800,note_on,,,,,144,0,15,,,,13,,,46,116
748800,note_on,,,,,192,0,1,,,,0,,,91,92
748800,note_on,,,,,192,0,10,,,,6,,,64,105
748800,note_on,,,,,192,0,6,,,,3,,,34,105
748800,note_on,,,,,144,0,14,,,,12,,,64,105
748800,note_on,,,,,0,0,14,,,,12,,,55,105
748800,note_on,,,,,192,0,3,,,,1,,,79,92
748800,note_on,,,,,0,0,3,,,,1,,,76,92
748800,note_on,,,,,192,0,4,,,,2,,,79,92
748800,note_on,,,,,0,0,4,,,,2,,,76,92
748800,note_on,,,,,24384,0,9,,,,5,,,67,116
748800,note_on,,,,,0,0,13,,,,11,,,64,105
748800,note_on,,,,,0,0,8,,,,4,,,64,105
748800,note_on,,,,,192,0,8,,,,4,,,52,105
748800,note_on,,,,,128,0,11,,,,7,,,52,116
748800,note_on,,,,,0,0,1,,,,0,,,88,92
748976,note_on,,,,,0,0,1,,,,0,,,91,0
748976,note_on,,,,,176,0,9,,,,5,,,64,0
748976,note_on,,,,,0,0,9,,,,5,,,67,0
748976,note_on,,,,,176,0,4,,,,2,,,76,0
748976,note_on,,,,,0,0,4,,,,2,,,79,0
748976,note_on,,,,,176,0,3,,,,1,,,76,0
748976,note_on,,,,,0,0,3,,,,1,,,79,0
748976,note_on,,,,,176,0,1,,,,0,,,88,0
749088,note_on,,,,,0,0,12,,,,10,,,85,0
749088,note_on,,,,,288,0,12,,,,10,,,73,0
749088,note_on,,,,,0,0,6,,,,3,,,34,0
749088,note_on,,,,,288,0,6,,,,3,,,46,0
749088,note_on,,,,,288,0,13,,,,11,,,64,0
749088,note_on,,,,,0,0,13,,,,11,,,76,0
749088,note_on,,,,,0,0,10,,,,6,,,64,0
749088,note_on,,,,,288,0,16,,,,14,,,34,0
749088,note_on,,,,,0,0,14,,,,12,,,64,0
749088,note_on,,,,,288,0,14,,,,12,,,55,0
749088,note_on,,,,,288,0,11,,,,7,,,52,0
749088,note_on,,,,,288,0,15,,,,13,,,46,0
749088,note_on,,,,,0,0,13,,,,11,,,79,0
749088,note_on,,,,,288,0,10,,,,6,,,76,0
749088,note_on,,,,,0,0,8,,,,4,,,52,0
749088,note_on,,,,,288,0,8,,,,4,,,64,0
749120,note_on,,,,,0,0,9,,,,5,,,63,116
749120,note_on,,,,,144,0,1,,,,0,,,87,92
749120,note_on,,,,,0,0,1,,,,0,,,90,92
749120,note_on,,,,,144,0,4,,,,2,,,75,92
749120,note_on,,,,,0,0,4,,,,2,,,78,92
749120,note_on,,,,,144,0,3,,,,1,,,78,92
749120,note_on,,,,,0,0,3,,,,1,,,75,92
749120,note_on,,,,,144,0,9,,,,5,,,66,116
749296,note_on,,,,,176,0,9,,,,5,,,63,0
749296,note_on,,,,,0,0,9,,,,5,,,66,0
749296,note_on,,,,,0,0,4,,,,2,,,75,0
749296,note_on,,,,,176,0,3,,,,1,,,75,0
749296,note_on,,,,,0,0,3,,,,1,,,78,0
749296,note_on,,,,,176,0,4,,,,2,,,78,0
749296,note_on,,,,,0,0,1,,,,0,,,87,0
749296,note_on,,,,,176,0,1,,,,0,,,90,0
749440,note_on,,,,,0,0,3,,,,1,,,76,92
749440,note_on,,,,,144,0,1,,,,0,,,85,92
749440,note_on,,,,,0,0,9,,,,5,,,61,116
749440,note_on,,,,,0,0,4,,,,2,,,73,92
749440,note_on,,,,,144,0,4,,,,2,,,76,92
749440,note_on,,,,,144,0,3,,,,1,,,73,92
749440,note_on,,,,,144,0,9,,,,5,,,64,116
749440,note_on,,,,,0,0,1,,,,0,,,88,92
749616,note_on,,,,,0,0,3,,,,1,,,73,0
749616,note_on,,,,,176,0,3,,,,1,,,76,0
749616,note_on,,,,,176,0,1,,,,0,,,88,0
749616,note_on,,,,,176,0,4,,,,2,,,73,0
749616,note_on,,,,,0,0,9,,,,5,,,64,0
749616,note_on,,,,,176,0,9,,,,5,,,61,0
749616,note_on,,,,,0,0,1,,,,0,,,85,0
749616,note_on,,,,,0,0,4,,,,2,,,76,0
749760,note_on,,,,,672,0,12,,,,10,,,85,116
749760,note_on,,,,,144,0,9,,,,5,,,64,116
749760,note_on,,,,,0,0,9,,,,5,,,67,116
749760,note_on,,,,,0,0,10,,,,6,,,64,105
749760,note_on,,,,,0,0,12,,,,10,,,73,116
749760,note_on,,,,,672,0,10,,,,6,,,76,105
749760,note_on,,,,,0,0,13,,,,11,,,64,105
749760,note_on,,,,,672,0,15,,,,13,,,46,116
749760,note_on,,,,,0,0,13,,,,11,,,76,105
749760,note_on,,,,,0,0,8,,,,4,,,52,105
749760,note_on,,,,,672,0,8,,,,4,,,64,105
749760,note_on,,,,,144,0,1,,,,0,,,91,92
749760,note_on,,,,,672,0,16,,,,14,,,34,116
749760,note_on,,,,,672,0,13,,,,11,,,79,105
749760,note_on,,,,,0,0,6,,,,3,,,34,105
749760,note_on,,,,,0,0,1,,,,0,,,88,92
749760,note_on,,,,,672,0,11,,,,7,,,52,116
749760,note_on,,,,,672,0,6,,,,3,,,46,105
749760,note_on,,,,,0,0,4,,,,2,,,76,92
749760,note_on,,,,,144,0,4,,,,2,,,79,92
749760,note_on,,,,,144,0,3,,,,1,,,79,92
749760,note_on,,,,,672,0,14,,,,12,,,55,105
749760,note_on,,,,,0,0,3,,,,1,,,76,92
749760,note_on,,,,,0,0,14,,,,12,,,64,105
750048,note_on,,,,,0,0,13,,,,11,,,64,0
750048,note_on,,,,,288,0,13,,,,11,,,76,0
750048,note_on,,,,,0,0,14,,,,12,,,55,0
750048,note_on,,,,,0,0,8,,,,4,,,64,0
750048,note_on,,,,,288,0,8,,,,4,,,52,0
750048,note_on,,,,,288,0,16,,,,14,,,34,0
750048,note_on,,,,,0,0,12,,,,10,,,85,0
750048,note_on,,,,,288,0,12,,,,10,,,73,0
750048,note_on,,,,,0,0,13,,,,11,,,79,0
750048,note_on,,,,,288,0,14,,,,12,,,64,0
750048,note_on,,,,,288,0,6,,,,3,,,34,0
750048,note_on,,,,,0,0,6,,,,3,,,46,0
750048,note_on,,,,,288,0,11,,,,7,,,52,0
750048,note_on,,,,,288,0,15,,,,13,,,46,0
750048,note_on,,,,,0,0,10,,,,6,,,76,0
750048,note_on,,,,,288,0,10,,,,6,,,64,0
750720,set_tempo,,,,,19200,1,0,434782,,,,,,,
750896,note_on,,,,,0,0,9,,,,5,,,64,0
750896,note_on,,,,,0,0,3,,,,1,,,79,0
750896,note_on,,,,,1136,0,3,,,,1,,,76,0
750896,note_on,,,,,1136,0,1,,,,0,,,88,0
750896,note_on,,,,,1136,0,9,,,,5,,,67,0
750896,note_on,,,,,0,0,1,,,,0,,,91,0
750896,note_on,,,,,0,0,4,,,,2,,,79,0
750896,note_on,,,,,1136,0,4,,,,2,,,76,0
751040,note_on,,,,,0,0,4,,,,2,,,78,92
751040,note_on,,,,,0,0,1,,,,0,,,87,92
751040,note_on,,,,,144,0,1,,,,0,,,90,92
751040,note_on,,,,,144,0,9,,,,5,,,66,116
751040,note_on,,,,,144,0,4,,,,2,,,75,92
751040,note_on,,,,,0,0,3,,,,1,,,78,92
751040,note_on,,,,,144,0,3,,,,1,,,75,92
751040,note_on,,,,,0,0,9,,,,5,,,63,116
751216,note_on,,,,,0,0,3,,,,1,,,75,0
751216,note_on,,,,,176,0,3,,,,1,,,78,0
751216,note_on,,,,,0,0,1,,,,0,,,90,0
751216,note_on,,,,,176,0,4,,,,2,,,78,0
751216,note_on,,,,,0,0,9,,,,5,,,66,0
751216,note_on,,,,,176,0,1,,,,0,,,87,0
751216,note_on,,,,,176,0,9,,,,5,,,63,0
751216,note_on,,,,,0,0,4,,,,2,,,75,0
751360,note_on,,,,,0,0,3,,,,1,,,76,92
751360,note_on,,,,,144,0,4,,,,2,,,73,92
751360,note_on,,,,,0,0,4,,,,2,,,76,92
751360,note_on,,,,,0,0,9,,,,5,,,61,116
751360,note_on,,,,,144,0,9,,,,5,,,64,116
751360,note_on,,,,,144,0,3,,,,1,,,73,92
751360,note_on,,,,,0,0,1,,,,0,,,85,92
751360,note_on,,,,,144,0,1,,,,0,,,88,92
751536,note_on,,,,,176,0,4,,,,2,,,76,0
751536,note_on,,,,,0,0,4,,,,2,,,73,0
751536,note_on,,,,,176,0,1,,,,0,,,85,0
751536,note_on,,,,,0,0,1,,,,0,,,88,0
751536,note_on,,,,,0,0,3,,,,1,,,73,0
751536,note_on,,,,,176,0,3,,,,1,,,76,0
751536,note_on,,,,,0,0,9,,,,5,,,64,0
751536,note_on,,,,,176,0,9,,,,5,,,61,0
751680,note_on,,,,,1632,0,12,,,,10,,,73,116
751680,note_on,,,,,0,0,9,,,,5,,,64,116
751680,note_on,,,,,144,0,9,,,,5,,,67,116
751680,note_on,,,,,1632,0,6,,,,3,,,34,105
751680,note_on,,,,,0,0,13,,,,11,,,79,105
751680,note_on,,,,,0,0,13,,,,11,,,64,105
751680,note_on,,,,,0,0,12,,,,10,,,85,116
751680,note_on,,,,,1632,0,15,,,,13,,,46,116
751680,note_on,,,,,0,0,1,,,,0,,,91,92
751680,note_on,,,,,144,0,1,,,,0,,,88,92
751680,note_on,,,,,0,0,10,,,,6,,,76,105
751680,note_on,,,,,1632,0,13,,,,11,,,76,105
751680,note_on,,,,,0,0,8,,,,4,,,64,105
751680,note_on,,,,,1632,0,10,,,,6,,,64,105
751680,note_on,,,,,0,0,6,,,,3,,,46,105
751680,note_on,,,,,144,0,4,,,,2,,,76,92
751680,note_on,,,,,0,0,4,,,,2,,,79,92
751680,note_on,,,,,0,0,14,,,,12,,,55,105
751680,note_on,,,,,1632,0,14,,,,12,,,64,105
751680,note_on,,,,,144,0,3,,,,1,,,79,92
751680,note_on,,,,,0,0,3,,,,1,,,76,92
751680,note_on,,,,,1632,0,8,,,,4,,,52,105
751680,note_on,,,,,1632,0,16,,,,14,,,34,116
751680,note_on,,,,,1632,0,11,,,,7,,,52,116
751968,note_on,,,,,288,0,12,,,,10,,,85,0
751968,note_on,,,,,0,0,12,,,,10,,,73,0
751968,note_on,,,,,0,0,13,,,,11,,,76,0
751968,note_on,,,,,288,0,13,,,,11,,,79,0
751968,note_on,,,,,0,0,13,,,,11,,,64,0
751968,note_on,,,,,288,0,16,,,,14,,,34,0
751968,note_on,,,,,288,0,15,,,,13,,,46,0
751968,note_on,,,,,0,0,14,,,,12,,,64,0
751968,note_on,,,,,288,0,14,,,,12,,,55,0
751968,note_on,,,,,288,0,11,,,,7,,,52,0
752064,note_on,,,,,0,0,8,,,,4,,,52,0
752064,note_on,,,,,384,0,10,,,,6,,,76,0
752064,note_on,,,,,0,0,10,,,,6,,,64,0
752064,note_on,,,,,384,0,8,,,,4,,,64,0
752640,set_tempo,,,,,1920,1,0,410959,,,,,,,
752880,note_on,,,,,912,0,12,,,,10,,,61,105
752880,note_on,,,,,912,0,14,,,,12,,,49,92
752880,note_on,,,,,912,0,13,,,,11,,,61,92
752976,note_on,,,,,96,0,12,,,,10,,,61,0
752976,note_on,,,,,96,0,13,,,,11,,,61,0
752976,note_on,,,,,96,0,14,,,,12,,,49,0
753000,note_on,,,,,24,0,13,,,,11,,,61,93
753000,note_on,,,,,24,0,14,,,,12,,,49,93
753000,note_on,,,,,24,0,12,,,,10,,,61,106
753096,note_on,,,,,96,0,13,,,,11,,,61,0
753096,note_on,,,,,96,0,14,,,,12,,,49,0
753096,note_on,,,,,96,0,12,,,,10,,,61,0
753120,note_on,,,,,24,0,12,,,,10,,,64,107
753120,note_on,,,,,24,0,14,,,,12,,,52,94
753120,note_on,,,,,24,0,13,,,,11,,,64,94
753216,note_on,,,,,96,0,12,,,,10,,,64,0
753216,note_on,,,,,96,0,13,,,,11,,,64,0
753216,note_on,,,,,96,0,14,,,,12,,,52,0
753240,note_on,,,,,24,0,12,,,,10,,,64,108
753240,note_on,,,,,24,0,13,,,,11,,,64,96
753240,note_on,,,,,24,0,14,,,,12,,,52,96
753336,note_on,,,,,96,0,14,,,,12,,,52,0
753336,note_on,,,,,96,0,12,,,,10,,,64,0
753336,note_on,,,,,96,0,13,,,,11,,,64,0
753360,note_on,,,,,24,0,12,,,,10,,,66,110
753360,note_on,,,,,24,0,14,,,,12,,,54,97
753360,note_on,,,,,24,0,13,,,,11,,,66,97
753456,note_on,,,,,96,0,12,,,,10,,,66,0
753456,note_on,,,,,96,0,13,,,,11,,,66,0
753456,note_on,,,,,96,0,14,,,,12,,,54,0
753480,note_on,,,,,24,0,12,,,,10,,,66,111
753480,note_on,,,,,24,0,13,,,,11,,,66,98
753480,note_on,,,,,24,0,14,,,,12,,,54,98
753576,note_on,,,,,96,0,13,,,,11,,,66,0
753576,note_on,,,,,96,0,12,,,,10,,,66,0
753576,note_on,,,,,96,0,14,,,,12,,,54,0
753600,note_on,,,,,24,0,12,,,,10,,,69,112
753600,note_on,,,,,24,0,13,,,,11,,,69,100
753600,note_on,,,,,24,0,14,,,,12,,,57,100
753696,note_on,,,,,96,0,14,,,,12,,,57,0
753696,note_on,,,,,96,0,13,,,,11,,,69,0
753696,note_on,,,,,96,0,12,,,,10,,,69,0
753720,note_on,,,,,24,0,13,,,,11,,,69,101
753720,note_on,,,,,24,0,12,,,,10,,,69,114
753720,note_on,,,,,24,0,14,,,,12,,,57,101
753816,note_on,,,,,96,0,12,,,,10,,,69,0
753816,note_on,,,,,96,0,13,,,,11,,,69,0
753816,note_on,,,,,96,0,14,,,,12,,,57,0
753840,note_on,,,,,24,0,12,,,,10,,,66,115
753840,note_on,,,,,24,0,13,,,,11,,,66,102
753840,note_on,,,,,24,0,14,,,,12,,,54,102
753936,note_on,,,,,96,0,13,,,,11,,,66,0
753936,note_on,,,,,96,0,12,,,,10,,,66,0
753936,note_on,,,,,96,0,14,,,,12,,,54,0
753960,note_on,,,,,24,0,13,,,,11,,,66,104
753960,note_on,,,,,24,0,12,,,,10,,,66,116
753960,note_on,,,,,24,0,14,,,,12,,,54,104
754056,note_on,,,,,96,0,12,,,,10,,,66,0
754056,note_on,,,,,96,0,13,,,,11,,,66,0
754056,note_on,,,,,96,0,14,,,,12,,,54,0
754080,note_on,,,,,24,0,12,,,,10,,,67,117
754080,note_on,,,,,24,0,13,,,,11,,,67,105
754080,note_on,,,,,24,0,14,,,,12,,,55,105
754176,note_on,,,,,96,0,12,,,,10,,,67,0
754176,note_on,,,,,96,0,13,,,,11,,,67,0
754176,note_on,,,,,96,0,14,,,,12,,,55,0
754200,note_on,,,,,24,0,14,,,,12,,,55,106
754200,note_on,,,,,24,0,13,,,,11,,,67,106
754200,note_on,,,,,24,0,12,,,,10,,,67,119
754296,note_on,,,,,96,0,14,,,,12,,,55,0
754296,note_on,,,,,96,0,12,,,,10,,,67,0
754296,note_on,,,,,96,0,13,,,,11,,,67,0
754320,note_on,,,,,24,0,14,,,,12,,,61,108
754320,note_on,,,,,24,0,12,,,,10,,,73,120
754320,note_on,,,,,24,0,13,,,,11,,,73,108
754416,note_on,,,,,96,0,14,,,,12,,,61,0
754416,note_on,,,,,96,0,12,,,,10,,,73,0
754416,note_on,,,,,96,0,13,,,,11,,,73,0
754440,note_on,,,,,24,0,13,,,,11,,,73,109
754440,note_on,,,,,24,0,12,,,,10,,,73,121
754440,note_on,,,,,24,0,14,,,,12,,,61,109
754536,note_on,,,,,96,0,14,,,,12,,,61,0
754536,note_on,,,,,96,0,13,,,,11,,,73,0
754536,note_on,,,,,96,0,12,,,,10,,,73,0
754560,note_on,,,,,24,0,13,,,,11,,,76,110
754560,note_on,,,,,24,0,12,,,,10,,,76,122
754560,note_on,,,,,24,0,14,,,,12,,,64,110
754656,note_on,,,,,96,0,12,,,,10,,,76,0
754656,note_on,,,,,96,0,13,,,,11,,,76,0
754656,note_on,,,,,96,0,14,,,,12,,,64,0
754680,note_on,,,,,24,0,14,,,,12,,,64,112
754680,note_on,,,,,24,0,13,,,,11,,,76,112
754680,note_on,,,,,24,0,12,,,,10,,,76,123
754776,note_on,,,,,96,0,12,,,,10,,,76,0
754776,note_on,,,,,96,0,14,,,,12,,,64,0
754776,note_on,,,,,96,0,13,,,,11,,,76,0
754800,note_on,,,,,24,0,14,,,,12,,,66,113
754800,note_on,,,,,24,0,13,,,,11,,,78,113
754800,note_on,,,,,24,0,12,,,,10,,,78,123
754896,note_on,,,,,96,0,14,,,,12,,,66,0
754896,note_on,,,,,96,0,13,,,,11,,,78,0
754896,note_on,,,,,96,0,12,,,,10,,,78,0
754920,note_on,,,,,24,0,12,,,,10,,,78,123
754920,note_on,,,,,24,0,13,,,,11,,,78,114
754920,note_on,,,,,24,0,14,,,,12,,,66,114
755016,note_on,,,,,0,0,6,,,,3,,,34,0
755016,note_on,,,,,96,0,12,,,,10,,,78,0
755016,note_on,,,,,96,0,14,,,,12,,,66,0
755016,note_on,,,,,3336,0,6,,,,3,,,46,0
755016,note_on,,,,,96,0,13,,,,11,,,78,0
755040,note_on,,,,,24,0,12,,,,10,,,81,124
755040,note_on,,,,,24,0,14,,,,12,,,69,116
755040,note_on,,,,,24,0,13,,,,11,,,81,116
755136,note_on,,,,,96,0,13,,,,11,,,81,0
755136,note_on,,,,,96,0,12,,,,10,,,81,0
755136,note_on,,,,,96,0,14,,,,12,,,69,0
755160,note_on,,,,,24,0,14,,,,12,,,69,117
755160,note_on,,,,,24,0,12,,,,10,,,81,124
755160,note_on,,,,,24,0,13,,,,11,,,81,117
755256,note_on,,,,,96,0,14,,,,12,,,69,0
755256,note_on,,,,,96,0,13,,,,11,,,81,0
755256,note_on,,,,,96,0,12,,,,10,,,81,0
755280,note_on,,,,,24,0,12,,,,10,,,78,125
755280,note_on,,,,,24,0,14,,,,12,,,66,118
755280,note_on,,,,,24,0,13,,,,11,,,78,118
755376,note_on,,,,,96,0,12,,,,10,,,78,0
755376,note_on,,,,,96,0,14,,,,12,,,66,0
755376,note_on,,,,,96,0,13,,,,11,,,78,0
755400,note_on,,,,,24,0,14,,,,12,,,66,120
755400,note_on,,,,,24,0,12,,,,10,,,78,126
755400,note_on,,,,,24,0,13,,,,11,,,78,120
755496,note_on,,,,,96,0,12,,,,10,,,78,0
755496,note_on,,,,,96,0,14,,,,12,,,66,0
755496,note_on,,,,,96,0,13,,,,11,,,78,0
755520,note_on,,,,,24,0,12,,,,10,,,79,126
755520,note_on,,,,,24,0,14,,,,12,,,67,121
755520,note_on,,,,,24,0,13,,,,11,,,79,121
755616,note_on,,,,,96,0,13,,,,11,,,79,0
755616,note_on,,,,,96,0,14,,,,12,,,67,0
755616,note_on,,,,,96,0,12,,,,10,,,79,0
755640,note_on,,,,,24,0,12,,,,10,,,79,126
755640,note_on,,,,,24,0,13,,,,11,,,79,122
755640,note_on,,,,,24,0,14,,,,12,,,67,122
755736,note_on,,,,,96,0,13,,,,11,,,79,0
755736,note_on,,,,,96,0,12,,,,10,,,79,0
755736,note_on,,,,,96,0,14,,,,12,,,67,0
755760,note_on,,,,,24,0,13,,,,11,,,85,123
755760,note_on,,,,,24,0,12,,,,10,,,85,127
755760,note_on,,,,,24,0,14,,,,12,,,73,123
755856,note_on,,,,,96,0,14,,,,12,,,73,0
755856,note_on,,,,,96,0,13,,,,11,,,85,0
755856,note_on,,,,,96,0,12,,,,10,,,85,0
755880,note_on,,,,,24,0,14,,,,12,,,73,123
755880,note_on,,,,,24,0,13,,,,11,,,85,123
755880,note_on,,,,,24,0,12,,,,10,,,85,127
755976,note_on,,,,,96,0,14,,,,12,,,73,0
755976,note_on,,,,,96,0,13,,,,11,,,85,0
755976,note_on,,,,,96,0,12,,,,10,,,85,0
756000,note_on,,,,,24,0,14,,,,12,,,76,124
756000,note_on,,,,,3936,0,8,,,,4,,,59,116
756000,note_on,,,,,24,0,13,,,,11,,,88,124
756000,note_on,,,,,4032,0,16,,,,14,,,47,116
756000,note_on,,,,,0,0,8,,,,4,,,71,116
756000,note_on,,,,,24,0,12,,,,10,,,88,127
756000,note_on,,,,,4032,0,15,,,,13,,,59,116
756096,note_on,,,,,96,0,14,,,,12,,,76,0
756096,note_on,,,,,96,0,13,,,,11,,,88,0
756096,note_on,,,,,96,0,12,,,,10,,,88,0
756120,note_on,,,,,24,0,14,,,,12,,,76,124
756120,note_on,,,,,24,0,12,,,,10,,,88,127
756120,note_on,,,,,24,0,13,,,,11,,,88,124
756216,note_on,,,,,96,0,14,,,,12,,,76,0
756216,note_on,,,,,96,0,12,,,,10,,,88,0
756216,note_on,,,,,96,0,13,,,,11,,,88,0
756240,note_on,,,,,24,0,12,,,,10,,,91,127
756240,note_on,,,,,24,0,13,,,,11,,,79,125
756240,note_on,,,,,24,0,14,,,,12,,,67,125
756288,note_on,,,,,288,0,16,,,,14,,,47,0
756288,note_on,,,,,288,0,8,,,,4,,,71,0
756288,note_on,,,,,0,0,8,,,,4,,,59,0
756288,note_on,,,,,288,0,15,,,,13,,,59,0
756336,note_on,,,,,96,0,14,,,,12,,,67,0
756336,note_on,,,,,96,0,13,,,,11,,,79,0
756336,note_on,,,,,96,0,12,,,,10,,,91,0
756360,note_on,,,,,24,0,13,,,,11,,,79,126
756360,note_on,,,,,24,0,14,,,,12,,,67,126
756360,note_on,,,,,24,0,12,,,,10,,,91,127
756384,note_on,,,,,0,0,1,,,,0,,,88,0
756384,note_on,,,,,4704,0,1,,,,0,,,91,0
756384,note_on,,,,,4704,0,9,,,,5,,,64,0
756384,note_on,,,,,4704,0,3,,,,1,,,76,0
756384,note_on,,,,,0,0,4,,,,2,,,76,0
756384,note_on,,,,,4704,0,4,,,,2,,,79,0
756384,note_on,,,,,0,0,3,,,,1,,,79,0
756384,note_on,,,,,0,0,9,,,,5,,,67,0
756456,note_on,,,,,96,0,14,,,,12,,,67,0
756456,note_on,,,,,96,0,12,,,,10,,,91,0
756456,note_on,,,,,96,0,13,,,,11,,,79,0
756480,note_on,,,,,0,0,8,,,,4,,,55,116
756480,note_on,,,,,192,0,8,,,,4,,,67,127
756480,note_on,,,,,192,0,16,,,,14,,,43,127
756480,note_on,,,,,192,0,15,,,,13,,,55,127
756960,note_on,,,,,1944,0,6,,,,3,,,59,92
756960,note_on,,,,,576,0,3,,,,1,,,75,92
756960,note_on,,,,,504,0,14,,,,12,,,66,105
756960,note_on,,,,,0,0,14,,,,12,,,59,105
756960,note_on,,,,,0,0,10,,,,6,,,59,105
756960,note_on,,,,,4896,0,10,,,,6,,,71,105
756960,note_on,,,,,0,0,6,,,,3,,,47,92
756960,note_on,,,,,504,0,13,,,,11,,,83,105
756960,note_on,,,,,504,0,12,,,,10,,,95,116
756960,note_on,,,,,576,0,4,,,,2,,,78,92
756960,note_on,,,,,0,0,3,,,,1,,,83,92
756960,note_on,,,,,0,0,1,,,,0,,,95,92
756960,note_on,,,,,0,0,4,,,,2,,,75,92
756960,note_on,,,,,0,0,13,,,,11,,,75,105
756960,note_on,,,,,576,0,1,,,,0,,,87,92
757248,note_on,,,,,0,0,4,,,,2,,,78,0
757248,note_on,,,,,288,0,4,,,,2,,,75,0
757248,note_on,,,,,0,0,10,,,,6,,,71,0
757248,note_on,,,,,288,0,13,,,,11,,,75,0
757248,note_on,,,,,288,0,10,,,,6,,,59,0
757248,note_on,,,,,768,0,15,,,,13,,,55,0
757248,note_on,,,,,0,0,8,,,,4,,,67,0
757248,note_on,,,,,288,0,1,,,,0,,,95,0
757248,note_on,,,,,0,0,1,,,,0,,,87,0
757248,note_on,,,,,0,0,13,,,,11,,,83,0
757248,note_on,,,,,768,0,8,,,,4,,,55,0
757248,note_on,,,,,768,0,16,,,,14,,,43,0
757248,note_on,,,,,0,0,6,,,,3,,,59,0
757248,note_on,,,,,288,0,6,,,,3,,,47,0
757248,note_on,,,,,0,0,14,,,,12,,,66,0
757248,note_on,,,,,288,0,14,,,,12,,,59,0
757248,note_on,,,,,0,0,3,,,,1,,,75,0
757248,note_on,,,,,288,0,12,,,,10,,,95,0
757248,note_on,,,,,288,0,3,,,,1,,,83,0
757440,note_on,,,,,0,0,1,,,,0,,,88,92
757440,note_on,,,,,0,0,10,,,,6,,,64,105
757440,note_on,,,,,0,0,13,,,,11,,,76,105
757440,note_on,,,,,192,0,13,,,,11,,,79,125
757440,note_on,,,,,192,0,3,,,,1,,,76,92
757440,note_on,,,,,0,0,3,,,,1,,,79,92
757440,note_on,,,,,192,0,1,,,,0,,,91,92
757440,note_on,,,,,192,0,12,,,,10,,,91,127
757440,note_on,,,,,192,0,14,,,,12,,,67,125
757440,note_on,,,,,0,0,14,,,,12,,,64,105
757440,note_on,,,,,0,0,4,,,,2,,,71,92
757440,note_on,,,,,192,0,4,,,,2,,,67,92
757440,note_on,,,,,192,0,6,,,,3,,,52,92
757440,note_on,,,,,192,0,10,,,,6,,,76,125
757920,note_on,,,,,0,0,9,,,,5,,,52,116
757920,note_on,,,,,1536,0,9,,,,5,,,64,116
757920,note_on,,,,,672,0,16,,,,14,,,40,116
757920,note_on,,,,,672,0,15,,,,13,,,52,116
758208,note_on,,,,,768,0,6,,,,3,,,52,0
758208,note_on,,,,,768,0,14,,,,12,,,64,0
758208,note_on,,,,,768,0,4,,,,2,,,71,0
758208,note_on,,,,,0,0,4,,,,2,,,67,0
758208,note_on,,,,,768,0,12,,,,10,,,91,0
758208,note_on,,,,,288,0,15,,,,13,,,52,0
758208,note_on,,,,,0,0,9,,,,5,,,64,0
758208,note_on,,,,,288,0,9,,,,5,,,52,0
758208,note_on,,,,,0,0,14,,,,12,,,67,0
758208,note_on,,,,,0,0,1,,,,0,,,91,0
758208,note_on,,,,,0,0,3,,,,1,,,76,0
758208,note_on,,,,,768,0,3,,,,1,,,79,0
758208,note_on,,,,,0,0,13,,,,11,,,79,0
758208,note_on,,,,,288,0,16,,,,14,,,40,0
758208,note_on,,,,,0,0,10,,,,6,,,76,0
758208,note_on,,,,,768,0,10,,,,6,,,64,0
758208,note_on,,,,,768,0,1,,,,0,,,88,0
758208,note_on,,,,,768,0,13,,,,11,,,76,0
758400,note_on,,,,,192,0,16,,,,14,,,48,127
758400,note_on,,,,,192,0,9,,,,5,,,72,127
758400,note_on,,,,,192,0,15,,,,13,,,60,127
758400,note_on,,,,,0,0,9,,,,5,,,60,116
758880,note_on,,,,,672,0,1,,,,0,,,88,92
758880,note_on,,,,,0,0,1,,,,0,,,80,92
758880,note_on,,,,,0,0,12,,,,10,,,71,116
758880,note_on,,,,,672,0,3,,,,1,,,68,92
758880,note_on,,,,,0,0,6,,,,3,,,64,92
758880,note_on,,,,,0,0,14,,,,12,,,64,105
758880,note_on,,,,,0,0,14,,,,12,,,59,105
758880,note_on,,,,,672,0,14,,,,12,,,52,105
758880,note_on,,,,,672,0,13,,,,11,,,71,105
758880,note_on,,,,,0,0,13,,,,11,,,74,105
758880,note_on,,,,,672,0,12,,,,10,,,68,116
758880,note_on,,,,,0,0,12,,,,10,,,76,116
758880,note_on,,,,,0,0,4,,,,2,,,68,92
758880,note_on,,,,,672,0,4,,,,2,,,64,92
758880,note_on,,,,,0,0,10,,,,6,,,64,105
758880,note_on,,,,,672,0,6,,,,3,,,52,92
758880,note_on,,,,,0,0,3,,,,1,,,76,92
758880,note_on,,,,,672,0,10,,,,6,,,76,105
759168,note_on,,,,,288,0,3,,,,1,,,76,0
759168,note_on,,,,,0,0,13,,,,11,,,71,0
759168,note_on,,,,,288,0,13,,,,11,,,74,0
759168,note_on,,,,,0,0,3,,,,1,,,68,0
759168,note_on,,,,,288,0,12,,,,10,,,76,0
759168,note_on,,,,,0,0,4,,,,2,,,64,0
759168,note_on,,,,,0,0,10,,,,6,,,76,0
759168,note_on,,,,,288,0,10,,,,6,,,64,0
759168,note_on,,,,,288,0,4,,,,2,,,68,0
759168,note_on,,,,,0,0,9,,,,5,,,72,0
759168,note_on,,,,,768,0,15,,,,13,,,60,0
759168,note_on,,,,,768,0,9,,,,5,,,60,0
759168,note_on,,,,,768,0,16,,,,14,,,48,0
759168,note_on,,,,,288,0,14,,,,12,,,64,0
759168,note_on,,,,,0,0,14,,,,12,,,59,0
759168,note_on,,,,,0,0,14,,,,12,,,52,0
759168,note_on,,,,,0,0,6,,,,3,,,52,0
759168,note_on,,,,,0,0,1,,,,0,,,88,0
759168,note_on,,,,,288,0,1,,,,0,,,80,0
759168,note_on,,,,,0,0,12,,,,10,,,68,0
759168,note_on,,,,,288,0,6,,,,3,,,64,0
759168,note_on,,,,,0,0,12,,,,10,,,71,0
759360,note_on,,,,,192,0,1,,,,0,,,84,92
759360,note_on,,,,,192,0,13,,,,11,,,72,125
759360,note_on,,,,,0,0,13,,,,11,,,69,105
759360,note_on,,,,,192,0,6,,,,3,,,57,92
759360,note_on,,,,,0,0,4,,,,2,,,76,92
759360,note_on,,,,,192,0,4,,,,2,,,69,92
759360,note_on,,,,,0,0,1,,,,0,,,81,92
759360,note_on,,,,,192,0,3,,,,1,,,69,92
759360,note_on,,,,,0,0,10,,,,6,,,76,125
759360,note_on,,,,,192,0,14,,,,12,,,64,125
759360,note_on,,,,,0,0,14,,,,12,,,57,105
759360,note_on,,,,,0,0,12,,,,10,,,69,116
759360,note_on,,,,,192,0,12,,,,10,,,84,127
759360,note_on,,,,,192,0,10,,,,6,,,64,105
759360,note_on,,,,,0,0,3,,,,1,,,72,92
759840,note_on,,,,,2592,0,8,,,,4,,,69,116
759840,note_on,,,,,672,0,16,,,,14,,,45,116
759840,note_on,,,,,672,0,15,,,,13,,,57,116
760128,note_on,,,,,768,0,6,,,,3,,,57,0
760128,note_on,,,,,288,0,8,,,,4,,,69,0
760128,note_on,,,,,0,0,14,,,,12,,,64,0
760128,note_on,,,,,768,0,14,,,,12,,,57,0
760128,note_on,,,,,288,0,16,,,,14,,,45,0
760128,note_on,,,,,0,0,3,,,,1,,,69,0
760128,note_on,,,,,768,0,4,,,,2,,,76,0
760128,note_on,,,,,0,0,4,,,,2,,,69,0
760128,note_on,,,,,768,0,12,,,,10,,,69,0
760128,note_on,,,,,0,0,1,,,,0,,,84,0
760128,note_on,,,,,0,0,12,,,,10,,,84,0
760128,note_on,,,,,0,0,10,,,,6,,,64,0
760128,note_on,,,,,768,0,10,,,,6,,,76,0
760128,note_on,,,,,768,0,1,,,,0,,,81,0
760128,note_on,,,,,288,0,15,,,,13,,,57,0
760128,note_on,,,,,768,0,3,,,,1,,,72,0
760128,note_on,,,,,768,0,13,,,,11,,,69,0
760128,note_on,,,,,0,0,13,,,,11,,,72,0
760320,note_on,,,,,192,0,15,,,,13,,,54,127
760320,note_on,,,,,192,0,16,,,,14,,,42,127
760320,note_on,,,,,192,0,8,,,,4,,,66,127
760800,note_on,,,,,0,0,4,,,,2,,,76,92
760800,note_on,,,,,672,0,4,,,,2,,,73,92
760800,note_on,,,,,1632,0,9,,,,5,,,61,116
760800,note_on,,,,,0,0,3,,,,1,,,81,92
760800,note_on,,,,,0,0,10,,,,6,,,64,105
760800,note_on,,,,,672,0,12,,,,10,,,69,116
760800,note_on,,,,,672,0,14,,,,12,,,66,105
760800,note_on,,,,,0,0,14,,,,12,,,69,105
760800,note_on,,,,,0,0,12,,,,10,,,81,116
760800,note_on,,,,,0,0,6,,,,3,,,54,92
760800,note_on,,,,,672,0,6,,,,3,,,42,92
760800,note_on,,,,,672,0,10,,,,6,,,76,105
760800,note_on,,,,,672,0,3,,,,1,,,73,92
760800,note_on,,,,,0,0,13,,,,11,,,76,105
760800,note_on,,,,,0,0,1,,,,0,,,85,92
760800,note_on,,,,,672,0,1,,,,0,,,93,92
760800,note_on,,,,,672,0,13,,,,11,,,73,105
761088,note_on,,,,,288,0,3,,,,1,,,81,0
761088,note_on,,,,,288,0,12,,,,10,,,81,0
761088,note_on,,,,,0,0,12,,,,10,,,69,0
761088,note_on,,,,,0,0,1,,,,0,,,93,0
761088,note_on,,,,,288,0,6,,,,3,,,54,0
761088,note_on,,,,,768,0,8,,,,4,,,66,0
761088,note_on,,,,,0,0,6,,,,3,,,42,0
761088,note_on,,,,,0,0,3,,,,1,,,73,0
761088,note_on,,,,,288,0,1,,,,0,,,85,0
761088,note_on,,,,,768,0,16,,,,14,,,42,0
761088,note_on,,,,,288,0,9,,,,5,,,61,0
761088,note_on,,,,,0,0,10,,,,6,,,76,0
761088,note_on,,,,,768,0,15,,,,13,,,54,0
761088,note_on,,,,,288,0,4,,,,2,,,76,0
761088,note_on,,,,,0,0,4,,,,2,,,73,0
761088,note_on,,,,,0,0,14,,,,12,,,66,0
761088,note_on,,,,,288,0,10,,,,6,,,64,0
761088,note_on,,,,,288,0,14,,,,12,,,69,0
761088,note_on,,,,,288,0,13,,,,11,,,76,0
761088,note_on,,,,,0,0,13,,,,11,,,73,0
761280,note_on,,,,,0,0,1,,,,0,,,90,92
761280,note_on,,,,,0,0,4,,,,2,,,66,92
761280,note_on,,,,,0,0,12,,,,10,,,78,127
761280,note_on,,,,,192,0,12,,,,10,,,69,116
761280,note_on,,,,,192,0,6,,,,3,,,54,92
761280,note_on,,,,,0,0,13,,,,11,,,66,105
761280,note_on,,,,,192,0,3,,,,1,,,78,92
761280,note_on,,,,,192,0,13,,,,11,,,75,125
761280,note_on,,,,,0,0,3,,,,1,,,75,92
761280,note_on,,,,,0,0,14,,,,12,,,69,125
761280,note_on,,,,,192,0,14,,,,12,,,66,105
761280,note_on,,,,,192,0,1,,,,0,,,87,92
761280,note_on,,,,,192,0,4,,,,2,,,75,92
761280,note_on,,,,,0,0,6,,,,3,,,66,92
761280,note_on,,,,,192,0,10,,,,6,,,78,125
761280,note_on,,,,,192,0,9,,,,5,,,63,127
761760,note_on,,,,,672,0,15,,,,13,,,51,116
761760,note_on,,,,,672,0,8,,,,4,,,63,116
761760,note_on,,,,,672,0,16,,,,14,,,39,116
762048,note_on,,,,,768,0,4,,,,2,,,66,0
762048,note_on,,,,,768,0,9,,,,5,,,63,0
762048,note_on,,,,,768,0,14,,,,12,,,69,0
762048,note_on,,,,,0,0,14,,,,12,,,66,0
762048,note_on,,,,,0,0,1,,,,0,,,87,0
762048,note_on,,,,,768,0,1,,,,0,,,90,0
762048,note_on,,,,,0,0,4,,,,2,,,75,0
762048,note_on,,,,,0,0,13,,,,11,,,75,0
762048,note_on,,,,,0,0,12,,,,10,,,69,0
762048,note_on,,,,,768,0,12,,,,10,,,78,0
762048,note_on,,,,,768,0,10,,,,6,,,78,0
762048,note_on,,,,,768,0,6,,,,3,,,66,0
762048,note_on,,,,,0,0,6,,,,3,,,54,0
762048,note_on,,,,,768,0,13,,,,11,,,66,0
762048,note_on,,,,,288,0,15,,,,13,,,51,0
762048,note_on,,,,,0,0,3,,,,1,,,78,0
762048,note_on,,,,,768,0,3,,,,1,,,75,0
762048,note_on,,,,,288,0,16,,,,14,,,39,0
762048,note_on,,,,,288,0,8,,,,4,,,63,0
762240,note_on,,,,,192,0,16,,,,14,,,47,127
762240,note_on,,,,,192,0,15,,,,13,,,59,127
762240,note_on,,,,,192,0,8,,,,4,,,71,116
762720,note_on,,,,,672,0,12,,,,10,,,75,116
762720,note_on,,,,,0,0,4,,,,2,,,69,92
762720,note_on,,,,,672,0,4,,,,2,,,66,92
762720,note_on,,,,,672,0,6,,,,3,,,59,92
762720,note_on,,,,,0,0,3,,,,1,,,75,92
762720,note_on,,,,,672,0,1,,,,0,,,81,92
762720,note_on,,,,,0,0,1,,,,0,,,87,92
762720,note_on,,,,,672,0,13,,,,11,,,66,105
762720,note_on,,,,,0,0,13,,,,11,,,69,105
762720,note_on,,,,,672,0,9,,,,5,,,59,116
762720,note_on,,,,,0,0,10,,,,6,,,71,105
762720,note_on,,,,,672,0,10,,,,6,,,59,105
762720,note_on,,,,,0,0,14,,,,12,,,59,105
762720,note_on,,,,,672,0,14,,,,12,,,66,105
762720,note_on,,,,,672,0,3,,,,1,,,69,92
763008,note_on,,,,,288,0,4,,,,2,,,69,0
763008,note_on,,,,,0,0,10,,,,6,,,59,0
763008,note_on,,,,,288,0,12,,,,10,,,75,0
763008,note_on,,,,,288,0,6,,,,3,,,59,0
763008,note_on,,,,,768,0,15,,,,13,,,59,0
763008,note_on,,,,,288,0,13,,,,11,,,69,0
763008,note_on,,,,,288,0,3,,,,1,,,75,0
763008,note_on,,,,,768,0,16,,,,14,,,47,0
763008,note_on,,,,,288,0,14,,,,12,,,59,0
763008,note_on,,,,,0,0,14,,,,12,,,66,0
763008,note_on,,,,,288,0,9,,,,5,,,59,0
763008,note_on,,,,,0,0,3,,,,1,,,69,0
763008,note_on,,,,,0,0,4,,,,2,,,66,0
763008,note_on,,,,,288,0,10,,,,6,,,71,0
763008,note_on,,,,,0,0,1,,,,0,,,81,0
763008,note_on,,,,,288,0,1,,,,0,,,87,0
763008,note_on,,,,,768,0,8,,,,4,,,71,0
763008,note_on,,,,,0,0,13,,,,11,,,66,0
763200,note_on,,,,,0,0,3,,,,1,,,83,92
763200,note_on,,,,,192,0,13,,,,11,,,67,105
763200,note_on,,,,,192,0,3,,,,1,,,67,92
763200,note_on,,,,,0,0,13,,,,11,,,76,125
763200,note_on,,,,,192,0,1,,,,0,,,83,92
763200,note_on,,,,,0,0,12,,,,10,,,71,116
763200,note_on,,,,,192,0,9,,,,5,,,64,127
763200,note_on,,,,,192,0,10,,,,6,,,59,105
763200,note_on,,,,,0,0,10,,,,6,,,71,125
763200,note_on,,,,,192,0,12,,,,10,,,83,127
763200,note_on,,,,,192,0,14,,,,12,,,64,125
763200,note_on,,,,,0,0,14,,,,12,,,55,105
763200,note_on,,,,,192,0,6,,,,3,,,55,92
763200,note_on,,,,,0,0,1,,,,0,,,79,92
763200,note_on,,,,,192,0,4,,,,2,,,67,92
763200,note_on,,,,,0,0,4,,,,2,,,64,92
763680,note_on,,,,,672,0,15,,,,13,,,64,127
763680,note_on,,,,,672,0,16,,,,14,,,52,127
763680,note_on,,,,,672,0,8,,,,4,,,64,127
763968,note_on,,,,,768,0,1,,,,0,,,79,0
763968,note_on,,,,,768,0,9,,,,5,,,64,0
763968,note_on,,,,,768,0,3,,,,1,,,83,0
763968,note_on,,,,,768,0,4,,,,2,,,64,0
763968,note_on,,,,,0,0,10,,,,6,,,59,0
763968,note_on,,,,,768,0,6,,,,3,,,55,0
763968,note_on,,,,,0,0,4,,,,2,,,67,0
763968,note_on,,,,,768,0,13,,,,11,,,76,0
763968,note_on,,,,,0,0,1,,,,0,,,83,0
763968,note_on,,,,,0,0,13,,,,11,,,67,0
763968,note_on,,,,,0,0,3,,,,1,,,67,0
763968,note_on,,,,,768,0,10,,,,6,,,71,0
763968,note_on,,,,,768,0,12,,,,10,,,71,0
763968,note_on,,,,,0,0,12,,,,10,,,83,0
763968,note_on,,,,,768,0,14,,,,12,,,55,0
763968,note_on,,,,,0,0,14,,,,12,,,64,0
764160,note_on,,,,,192,0,1,,,,0,,,79,92
764160,note_on,,,,,0,0,10,,,,6,,,76,105
764160,note_on,,,,,192,0,10,,,,6,,,64,105
764160,note_on,,,,,192,0,4,,,,2,,,67,92
764160,note_on,,,,,0,0,3,,,,1,,,76,92
764160,note_on,,,,,192,0,3,,,,1,,,72,92
764160,note_on,,,,,192,0,13,,,,11,,,64,92
764160,note_on,,,,,0,0,13,,,,11,,,72,92
764160,note_on,,,,,0,0,4,,,,2,,,76,92
764160,note_on,,,,,0,0,1,,,,0,,,88,92
764160,note_on,,,,,0,0,14,,,,12,,,67,92
764160,note_on,,,,,192,0,6,,,,3,,,52,105
764160,note_on,,,,,0,0,6,,,,3,,,64,105
764160,note_on,,,,,192,0,12,,,,10,,,88,124
764160,note_on,,,,,192,0,14,,,,12,,,64,92
764288,note_on,,,,,0,0,13,,,,11,,,64,0
764288,note_on,,,,,128,0,13,,,,11,,,72,0
764288,note_on,,,,,128,0,14,,,,12,,,67,0
764288,note_on,,,,,0,0,14,,,,12,,,64,0
764320,note_on,,,,,32,0,13,,,,11,,,64,92
764320,note_on,,,,,32,0,14,,,,12,,,67,92
764320,note_on,,,,,0,0,14,,,,12,,,64,92
764320,note_on,,,,,0,0,13,,,,11,,,72,92
764448,note_on,,,,,128,0,14,,,,12,,,64,0
764448,note_on,,,,,0,0,14,,,,12,,,67,0
764448,note_on,,,,,0,0,6,,,,3,,,52,0
764448,note_on,,,,,288,0,6,,,,3,,,64,0
764448,note_on,,,,,128,0,13,,,,11,,,72,0
764448,note_on,,,,,0,0,13,,,,11,,,64,0
764480,note_on,,,,,0,0,14,,,,12,,,67,92
764480,note_on,,,,,32,0,13,,,,11,,,72,92
764480,note_on,,,,,0,0,13,,,,11,,,64,92
764480,note_on,,,,,32,0,14,,,,12,,,64,92
764544,note_on,,,,,864,0,8,,,,4,,,64,0
764592,note_on,,,,,912,0,16,,,,14,,,52,0
764592,note_on,,,,,912,0,15,,,,13,,,64,0
764608,note_on,,,,,128,0,13,,,,11,,,64,0
764608,note_on,,,,,128,0,14,,,,12,,,67,0
764608,note_on,,,,,0,0,14,,,,12,,,64,0
764608,note_on,,,,,0,0,13,,,,11,,,72,0
764640,note_on,,,,,32,0,13,,,,11,,,64,92
764640,note_on,,,,,96,0,8,,,,4,,,64,116
764640,note_on,,,,,192,0,6,,,,3,,,40,105
764640,note_on,,,,,0,0,6,,,,3,,,52,105
764640,note_on,,,,,48,0,15,,,,13,,,52,116
764640,note_on,,,,,48,0,16,,,,14,,,40,116
764640,note_on,,,,,0,0,14,,,,12,,,64,92
764640,note_on,,,,,32,0,14,,,,12,,,67,92
764640,note_on,,,,,0,0,8,,,,4,,,52,116
764640,note_on,,,,,0,0,13,,,,11,,,72,92
764768,note_on,,,,,128,0,13,,,,11,,,72,0
764768,note_on,,,,,0,0,14,,,,12,,,67,0
764768,note_on,,,,,128,0,14,,,,12,,,64,0
764768,note_on,,,,,0,0,13,,,,11,,,64,0
764800,note_on,,,,,0,0,13,,,,11,,,72,92
764800,note_on,,,,,0,0,14,,,,12,,,67,92
764800,note_on,,,,,32,0,14,,,,12,,,64,92
764800,note_on,,,,,32,0,13,,,,11,,,64,92
764928,note_on,,,,,0,0,13,,,,11,,,64,0
764928,note_on,,,,,128,0,13,,,,11,,,72,0
764928,note_on,,,,,0,0,10,,,,6,,,64,0
764928,note_on,,,,,768,0,10,,,,6,,,76,0
764928,note_on,,,,,128,0,14,,,,12,,,67,0
764928,note_on,,,,,0,0,14,,,,12,,,64,0
764960,note_on,,,,,0,0,13,,,,11,,,72,92
764960,note_on,,,,,32,0,14,,,,12,,,64,92
764960,note_on,,,,,0,0,14,,,,12,,,67,92
764960,note_on,,,,,32,0,13,,,,11,,,64,92
765024,note_on,,,,,0,0,3,,,,1,,,72,0
765024,note_on,,,,,864,0,12,,,,10,,,88,0
765024,note_on,,,,,0,0,4,,,,2,,,67,0
765024,note_on,,,,,864,0,4,,,,2,,,76,0
765024,note_on,,,,,864,0,1,,,,0,,,88,0
765024,note_on,,,,,0,0,1,,,,0,,,79,0
765024,note_on,,,,,864,0,3,,,,1,,,76,0
765088,note_on,,,,,128,0,14,,,,12,,,67,0
765088,note_on,,,,,0,0,13,,,,11,,,64,0
765088,note_on,,,,,128,0,13,,,,11,,,72,0
765088,note_on,,,,,0,0,14,,,,12,,,64,0
765120,note_on,,,,,0,0,13,,,,11,,,71,92
765120,note_on,,,,,32,0,14,,,,12,,,71,92
765120,note_on,,,,,96,0,4,,,,2,,,67,92
765120,note_on,,,,,0,0,4,,,,2,,,71,92
765120,note_on,,,,,192,0,10,,,,6,,,64,105
765120,note_on,,,,,96,0,1,,,,0,,,76,92
765120,note_on,,,,,32,0,13,,,,11,,,67,92
765120,note_on,,,,,0,0,3,,,,1,,,71,92
765120,note_on,,,,,96,0,3,,,,1,,,67,92
765120,note_on,,,,,0,0,14,,,,12,,,67,92
765120,note_on,,,,,96,0,12,,,,10,,,76,124
765248,note_on,,,,,128,0,13,,,,11,,,71,0
765248,note_on,,,,,0,0,13,,,,11,,,67,0
765248,note_on,,,,,0,0,14,,,,12,,,71,0
765248,note_on,,,,,128,0,14,,,,12,,,67,0
765280,note_on,,,,,32,0,14,,,,12,,,71,92
765280,note_on,,,,,32,0,13,,,,11,,,67,92
765280,note_on,,,,,0,0,14,,,,12,,,67,92
765280,note_on,,,,,0,0,13,,,,11,,,71,92
765408,note_on,,,,,0,0,8,,,,4,,,64,0
765408,note_on,,,,,768,0,8,,,,4,,,52,0
765408,note_on,,,,,128,0,14,,,,12,,,67,0
765408,note_on,,,,,0,0,14,,,,12,,,71,0
765408,note_on,,,,,0,0,6,,,,3,,,40,0
765408,note_on,,,,,768,0,6,,,,3,,,52,0
765408,note_on,,,,,0,0,13,,,,11,,,67,0
765408,note_on,,,,,128,0,13,,,,11,,,71,0
765440,note_on,,,,,32,0,13,,,,11,,,67,92
765440,note_on,,,,,0,0,13,,,,11,,,71,92
765440,note_on,,,,,0,0,14,,,,12,,,71,92
765440,note_on,,,,,32,0,14,,,,12,,,67,92
765504,note_on,,,,,864,0,15,,,,13,,,52,0
765504,note_on,,,,,864,0,16,,,,14,,,40,0
765568,note_on,,,,,0,0,14,,,,12,,,67,0
765568,note_on,,,,,128,0,14,,,,12,,,71,0
765568,note_on,,,,,0,0,13,,,,11,,,67,0
765568,note_on,,,,,128,0,13,,,,11,,,71,0
765600,note_on,,,,,0,0,14,,,,12,,,71,92
765600,note_on,,,,,0,0,8,,,,4,,,55,116
765600,note_on,,,,,192,0,8,,,,4,,,67,116
765600,note_on,,,,,32,0,14,,,,12,,,67,92
765600,note_on,,,,,0,0,6,,,,3,,,43,105
765600,note_on,,,,,96,0,16,,,,14,,,43,116
765600,note_on,,,,,0,0,13,,,,11,,,67,92
765600,note_on,,,,,32,0,13,,,,11,,,76,92
765600,note_on,,,,,96,0,15,,,,13,,,55,116
765600,note_on,,,,,192,0,6,,,,3,,,55,105
765728,note_on,,,,,0,0,13,,,,11,,,76,0
765728,note_on,,,,,128,0,13,,,,11,,,67,0
765728,note_on,,,,,128,0,14,,,,12,,,71,0
765728,note_on,,,,,0,0,14,,,,12,,,67,0
765760,note_on,,,,,32,0,13,,,,11,,,76,92
765760,note_on,,,,,32,0,14,,,,12,,,67,92
765760,note_on,,,,,0,0,13,,,,11,,,67,92
765760,note_on,,,,,0,0,14,,,,12,,,71,92
765888,note_on,,,,,128,0,13,,,,11,,,67,0
765888,note_on,,,,,0,0,13,,,,11,,,76,0
765888,note_on,,,,,0,0,14,,,,12,,,67,0
765888,note_on,,,,,768,0,10,,,,6,,,64,0
765888,note_on,,,,,128,0,14,,,,12,,,71,0
765920,note_on,,,,,32,0,13,,,,11,,,76,92
765920,note_on,,,,,32,0,14,,,,12,,,67,92
765920,note_on,,,,,0,0,14,,,,12,,,71,92
765920,note_on,,,,,0,0,13,,,,11,,,67,92
765984,note_on,,,,,864,0,3,,,,1,,,71,0
765984,note_on,,,,,0,0,3,,,,1,,,67,0
765984,note_on,,,,,864,0,1,,,,0,,,76,0
765984,note_on,,,,,864,0,4,,,,2,,,71,0
765984,note_on,,,,,864,0,12,,,,10,,,76,0
765984,note_on,,,,,0,0,4,,,,2,,,67,0
766048,note_on,,,,,128,0,14,,,,12,,,71,0
766048,note_on,,,,,0,0,14,,,,12,,,67,0
766048,note_on,,,,,0,0,13,,,,11,,,76,0
766048,note_on,,,,,128,0,13,,,,11,,,67,0
766080,note_on,,,,,96,0,4,,,,2,,,74,92
766080,note_on,,,,,96,0,3,,,,1,,,71,92
766080,note_on,,,,,32,0,14,,,,12,,,71,92
766080,note_on,,,,,0,0,14,,,,12,,,62,92
766080,note_on,,,,,96,0,1,,,,0,,,79,92
766080,note_on,,,,,0,0,13,,,,11,,,74,92
766080,note_on,,,,,0,0,3,,,,1,,,74,92
766080,note_on,,,,,0,0,4,,,,2,,,71,92
766080,note_on,,,,,96,0,12,,,,10,,,79,124
766080,note_on,,,,,32,0,13,,,,11,,,71,92
766208,note_on,,,,,128,0,13,,,,11,,,74,0
766208,note_on,,,,,0,0,14,,,,12,,,71,0
766208,note_on,,,,,0,0,13,,,,11,,,71,0
766208,note_on,,,,,128,0,14,,,,12,,,62,0
766240,note_on,,,,,32,0,14,,,,12,,,71,92
766240,note_on,,,,,0,0,13,,,,11,,,71,92
766240,note_on,,,,,32,0,13,,,,11,,,74,92
766240,note_on,,,,,0,0,14,,,,12,,,62,92
766368,note_on,,,,,0,0,13,,,,11,,,74,0
766368,note_on,,,,,128,0,13,,,,11,,,71,0
766368,note_on,,,,,0,0,14,,,,12,,,71,0
766368,note_on,,,,,128,0,14,,,,12,,,62,0
766400,note_on,,,,,32,0,14,,,,12,,,62,92
766400,note_on,,,,,0,0,13,,,,11,,,71,92
766400,note_on,,,,,32,0,13,,,,11,,,74,92
766400,note_on,,,,,0,0,14,,,,12,,,71,92
766464,note_on,,,,,0,0,6,,,,3,,,55,0
766464,note_on,,,,,0,0,8,,,,4,,,67,0
766464,note_on,,,,,864,0,8,,,,4,,,55,0
766464,note_on,,,,,864,0,6,,,,3,,,43,0
766512,note_on,,,,,912,0,16,,,,14,,,43,0
766512,note_on,,,,,912,0,15,,,,13,,,55,0
766528,note_on,,,,,128,0,13,,,,11,,,71,0
766528,note_on,,,,,0,0,13,,,,11,,,74,0
766528,note_on,,,,,128,0,14,,,,12,,,71,0
766528,note_on,,,,,0,0,14,,,,12,,,62,0
766560,note_on,,,,,0,0,6,,,,3,,,47,105
766560,note_on,,,,,96,0,6,,,,3,,,59,105
766560,note_on,,,,,32,0,14,,,,12,,,71,92
766560,note_on,,,,,32,0,13,,,,11,,,79,92
766560,note_on,,,,,0,0,13,,,,11,,,71,92
766560,note_on,,,,,0,0,8,,,,4,,,59,116
766560,note_on,,,,,48,0,15,,,,13,,,59,116
766560,note_on,,,,,48,0,16,,,,14,,,47,116
766560,note_on,,,,,0,0,14,,,,12,,,62,92
766560,note_on,,,,,96,0,8,,,,4,,,71,116
766688,note_on,,,,,128,0,13,,,,11,,,71,0
766688,note_on,,,,,0,0,13,,,,11,,,79,0
766688,note_on,,,,,0,0,14,,,,12,,,71,0
766688,note_on,,,,,128,0,14,,,,12,,,62,0
766720,note_on,,,,,0,0,14,,,,12,,,71,92
766720,note_on,,,,,0,0,13,,,,11,,,79,92
766720,note_on,,,,,32,0,13,,,,11,,,71,92
766720,note_on,,,,,32,0,14,,,,12,,,62,92
766848,note_on,,,,,0,0,14,,,,12,,,62,0
766848,note_on,,,,,0,0,13,,,,11,,,71,0
766848,note_on,,,,,128,0,13,,,,11,,,79,0
766848,note_on,,,,,128,0,14,,,,12,,,71,0
766880,note_on,,,,,32,0,13,,,,11,,,71,92
766880,note_on,,,,,0,0,13,,,,11,,,79,92
766880,note_on,,,,,0,0,14,,,,12,,,62,92
766880,note_on,,,,,32,0,14,,,,12,,,71,92
766944,note_on,,,,,864,0,12,,,,10,,,79,0
766944,note_on,,,,,0,0,4,,,,2,,,74,0
766944,note_on,,,,,864,0,4,,,,2,,,71,0
766944,note_on,,,,,0,0,3,,,,1,,,71,0
766944,note_on,,,,,864,0,1,,,,0,,,79,0
766944,note_on,,,,,864,0,3,,,,1,,,74,0
767008,note_on,,,,,128,0,13,,,,11,,,79,0
767008,note_on,,,,,0,0,14,,,,12,,,71,0
767008,note_on,,,,,128,0,14,,,,12,,,62,0
767008,note_on,,,,,0,0,13,,,,11,,,71,0
767040,note_on,,,,,96,0,3,,,,1,,,74,92
767040,note_on,,,,,32,0,14,,,,12,,,66,92
767040,note_on,,,,,96,0,12,,,,10,,,83,124
767040,note_on,,,,,0,0,3,,,,1,,,78,92
767040,note_on,,,,,96,0,1,,,,0,,,83,92
767040,note_on,,,,,0,0,14,,,,12,,,62,92
767040,note_on,,,,,0,0,4,,,,2,,,78,92
767040,note_on,,,,,96,0,4,,,,2,,,74,92
767040,note_on,,,,,0,0,13,,,,11,,,74,92
767040,note_on,,,,,32,0,13,,,,11,,,78,92
767168,note_on,,,,,0,0,14,,,,12,,,66,0
767168,note_on,,,,,128,0,14,,,,12,,,62,0
767168,note_on,,,,,0,0,13,,,,11,,,78,0
767168,note_on,,,,,128,0,13,,,,11,,,74,0
767200,note_on,,,,,32,0,13,,,,11,,,74,92
767200,note_on,,,,,32,0,14,,,,12,,,62,92
767200,note_on,,,,,0,0,13,,,,11,,,78,92
767200,note_on,,,,,0,0,14,,,,12,,,66,92
767328,note_on,,,,,0,0,6,,,,3,,,59,0
767328,note_on,,,,,0,0,13,,,,11,,,74,0
767328,note_on,,,,,128,0,13,,,,11,,,78,0
767328,note_on,,,,,128,0,14,,,,12,,,66,0
767328,note_on,,,,,768,0,6,,,,3,,,47,0
767328,note_on,,,,,0,0,8,,,,4,,,71,0
767328,note_on,,,,,768,0,8,,,,4,,,59,0
767328,note_on,,,,,0,0,14,,,,12,,,62,0
767360,note_on,,,,,32,0,14,,,,12,,,62,92
767360,note_on,,,,,32,0,13,,,,11,,,74,92
767360,note_on,,,,,0,0,13,,,,11,,,78,92
767360,note_on,,,,,0,0,14,,,,12,,,66,92
767424,note_on,,,,,864,0,15,,,,13,,,59,0
767424,note_on,,,,,864,0,16,,,,14,,,47,0
767488,note_on,,,,,128,0,14,,,,12,,,66,0
767488,note_on,,,,,128,0,13,,,,11,,,78,0
767488,note_on,,,,,0,0,13,,,,11,,,74,0
767488,note_on,,,,,0,0,14,,,,12,,,62,0
767520,note_on,,,,,32,0,13,,,,11,,,83,92
767520,note_on,,,,,0,0,13,,,,11,,,74,92
767520,note_on,,,,,96,0,15,,,,13,,,62,116
767520,note_on,,,,,0,0,14,,,,12,,,66,92
767520,note_on,,,,,0,0,6,,,,3,,,50,105
767520,note_on,,,,,192,0,6,,,,3,,,62,105
767520,note_on,,,,,192,0,8,,,,4,,,62,116
767520,note_on,,,,,0,0,8,,,,4,,,74,116
767520,note_on,,,,,96,0,16,,,,14,,,50,116
767520,note_on,,,,,32,0,14,,,,12,,,62,92
767648,note_on,,,,,0,0,13,,,,11,,,83,0
767648,note_on,,,,,128,0,13,,,,11,,,74,0
767648,note_on,,,,,128,0,14,,,,12,,,66,0
767648,note_on,,,,,0,0,14,,,,12,,,62,0
767680,note_on,,,,,0,0,13,,,,11,,,83,92
767680,note_on,,,,,32,0,13,,,,11,,,74,92
767680,note_on,,,,,32,0,14,,,,12,,,62,92
767680,note_on,,,,,0,0,14,,,,12,,,66,92
767808,note_on,,,,,128,0,13,,,,11,,,83,0
767808,note_on,,,,,0,0,13,,,,11,,,74,0
767808,note_on,,,,,128,0,14,,,,12,,,66,0
767808,note_on,,,,,0,0,14,,,,12,,,62,0
767840,note_on,,,,,0,0,13,,,,11,,,74,92
767840,note_on,,,,,0,0,14,,,,12,,,66,92
767840,note_on,,,,,32,0,13,,,,11,,,83,92
767840,note_on,,,,,32,0,14,,,,12,,,62,92
767904,note_on,,,,,864,0,1,,,,0,,,83,0
767904,note_on,,,,,864,0,4,,,,2,,,78,0
767904,note_on,,,,,0,0,3,,,,1,,,74,0
767904,note_on,,,,,864,0,3,,,,1,,,78,0
767904,note_on,,,,,0,0,4,,,,2,,,74,0
767904,note_on,,,,,864,0,12,,,,10,,,83,0
767968,note_on,,,,,128,0,13,,,,11,,,74,0
767968,note_on,,,,,128,0,14,,,,12,,,66,0
767968,note_on,,,,,0,0,14,,,,12,,,62,0
767968,note_on,,,,,0,0,13,,,,11,,,83,0
768000,note_on,,,,,0,0,4,,,,2,,,66,92
768000,note_on,,,,,2112,0,10,,,,6,,,74,105
768000,note_on,,,,,96,0,12,,,,10,,,86,124
768000,note_on,,,,,96,0,4,,,,2,,,69,92
768000,note_on,,,,,0,0,13,,,,11,,,81,92
768000,note_on,,,,,96,0,3,,,,1,,,78,92
768000,note_on,,,,,0,0,14,,,,12,,,69,92
768000,note_on,,,,,0,0,3,,,,1,,,81,92
768000,note_on,,,,,96,0,1,,,,0,,,86,92
768000,note_on,,,,,32,0,13,,,,11,,,78,92
768000,note_on,,,,,32,0,14,,,,12,,,66,92
768128,note_on,,,,,0,0,14,,,,12,,,66,0
768128,note_on,,,,,128,0,14,,,,12,,,69,0
768128,note_on,,,,,128,0,13,,,,11,,,81,0
768128,note_on,,,,,0,0,13,,,,11,,,78,0
768160,note_on,,,,,0,0,14,,,,12,,,66,92
768160,note_on,,,,,32,0,13,,,,11,,,78,92
768160,note_on,,,,,0,0,13,,,,11,,,81,92
768160,note_on,,,,,32,0,14,,,,12,,,69,92
768288,note_on,,,,,0,0,13,,,,11,,,78,0
768288,note_on,,,,,128,0,13,,,,11,,,81,0
768288,note_on,,,,,128,0,14,,,,12,,,66,0
768288,note_on,,,,,0,0,14,,,,12,,,69,0
768320,note_on,,,,,0,0,14,,,,12,,,69,92
768320,note_on,,,,,32,0,14,,,,12,,,66,92
768320,note_on,,,,,32,0,13,,,,11,,,78,92
768320,note_on,,,,,0,0,13,,,,11,,,81,92
768384,note_on,,,,,864,0,6,,,,3,,,50,0
768384,note_on,,,,,864,0,8,,,,4,,,74,0
768384,note_on,,,,,0,0,6,,,,3,,,62,0
768384,note_on,,,,,0,0,8,,,,4,,,62,0
768432,note_on,,,,,912,0,15,,,,13,,,62,0
768432,note_on,,,,,912,0,16,,,,14,,,50,0
768448,note_on,,,,,128,0,14,,,,12,,,69,0
768448,note_on,,,,,0,0,14,,,,12,,,66,0
768448,note_on,,,,,128,0,13,,,,11,,,81,0
768448,note_on,,,,,0,0,13,,,,11,,,78,0
768480,note_on,,,,,32,0,13,,,,11,,,69,92
768480,note_on,,,,,0,0,13,,,,11,,,66,92
768480,note_on,,,,,0,0,14,,,,12,,,66,92
768480,note_on,,,,,32,0,14,,,,12,,,69,92
768480,note_on,,,,,48,0,15,,,,13,,,50,116
768480,note_on,,,,,0,0,6,,,,3,,,50,105
768480,note_on,,,,,96,0,6,,,,3,,,38,105
768480,note_on,,,,,96,0,8,,,,4,,,62,116
768480,note_on,,,,,48,0,16,,,,14,,,38,116
768608,note_on,,,,,0,0,14,,,,12,,,69,0
768608,note_on,,,,,128,0,13,,,,11,,,66,0
768608,note_on,,,,,0,0,13,,,,11,,,69,0
768608,note_on,,,,,128,0,14,,,,12,,,66,0
768640,note_on,,,,,32,0,14,,,,12,,,66,92
768640,note_on,,,,,0,0,14,,,,12,,,69,92
768640,note_on,,,,,32,0,13,,,,11,,,69,92
768640,note_on,,,,,0,0,13,,,,11,,,66,92
768768,note_on,,,,,128,0,14,,,,12,,,69,0
768768,note_on,,,,,128,0,13,,,,11,,,66,0
768768,note_on,,,,,768,0,10,,,,6,,,74,0
768768,note_on,,,,,0,0,13,,,,11,,,69,0
768768,note_on,,,,,0,0,14,,,,12,,,66,0
768800,note_on,,,,,32,0,14,,,,12,,,69,92
768800,note_on,,,,,0,0,13,,,,11,,,69,92
768800,note_on,,,,,0,0,14,,,,12,,,66,92
768800,note_on,,,,,32,0,13,,,,11,,,66,92
768864,note_on,,,,,0,0,3,,,,1,,,78,0
768864,note_on,,,,,864,0,12,,,,10,,,86,0
768864,note_on,,,,,0,0,4,,,,2,,,69,0
768864,note_on,,,,,864,0,4,,,,2,,,66,0
768864,note_on,,,,,864,0,3,,,,1,,,81,0
768864,note_on,,,,,864,0,1,,,,0,,,86,0
768928,note_on,,,,,128,0,13,,,,11,,,69,0
768928,note_on,,,,,0,0,13,,,,11,,,66,0
768928,note_on,,,,,0,0,14,,,,12,,,69,0
768928,note_on,,,,,128,0,14,,,,12,,,66,0
768960,note_on,,,,,96,0,1,,,,0,,,74,92
768960,note_on,,,,,96,0,12,,,,10,,,74,124
768960,note_on,,,,,0,0,14,,,,12,,,65,92
768960,note_on,,,,,192,0,10,,,,6,,,74,105
768960,note_on,,,,,96,0,3,,,,1,,,65,92
768960,note_on,,,,,32,0,14,,,,12,,,57,92
768960,note_on,,,,,0,0,4,,,,2,,,65,92
768960,note_on,,,,,0,0,13,,,,11,,,69,92
768960,note_on,,,,,32,0,13,,,,11,,,65,92
768960,note_on,,,,,0,0,3,,,,1,,,69,92
768960,note_on,,,,,96,0,4,,,,2,,,69,92
769088,note_on,,,,,128,0,13,,,,11,,,69,0
769088,note_on,,,,,128,0,14,,,,12,,,65,0
769088,note_on,,,,,0,0,13,,,,11,,,65,0
769088,note_on,,,,,0,0,14,,,,12,,,57,0
769120,note_on,,,,,32,0,14,,,,12,,,57,92
769120,note_on,,,,,0,0,14,,,,12,,,65,92
769120,note_on,,,,,32,0,13,,,,11,,,65,92
769120,note_on,,,,,0,0,13,,,,11,,,69,92
769248,note_on,,,,,0,0,13,,,,11,,,65,0
769248,note_on,,,,,768,0,6,,,,3,,,50,0
769248,note_on,,,,,0,0,6,,,,3,,,38,0
769248,note_on,,,,,128,0,13,,,,11,,,69,0
769248,note_on,,,,,0,0,14,,,,12,,,57,0
769248,note_on,,,,,128,0,14,,,,12,,,65,0
769248,note_on,,,,,768,0,8,,,,4,,,62,0
769280,note_on,,,,,32,0,14,,,,12,,,57,92
769280,note_on,,,,,0,0,14,,,,12,,,65,92
769280,note_on,,,,,0,0,13,,,,11,,,69,92
769280,note_on,,,,,32,0,13,,,,11,,,65,92
769344,note_on,,,,,864,0,16,,,,14,,,38,0
769344,note_on,,,,,864,0,15,,,,13,,,50,0
769408,note_on,,,,,128,0,14,,,,12,,,65,0
769408,note_on,,,,,0,0,14,,,,12,,,57,0
769408,note_on,,,,,128,0,13,,,,11,,,69,0
769408,note_on,,,,,0,0,13,,,,11,,,65,0
769440,note_on,,,,,96,0,16,,,,14,,,41,116
769440,note_on,,,,,192,0,8,,,,4,,,65,116
769440,note_on,,,,,96,0,15,,,,13,,,53,116
769440,note_on,,,,,192,0,6,,,,3,,,53,105
769440,note_on,,,,,0,0,6,,,,3,,,41,105
769440,note_on,,,,,32,0,14,,,,12,,,57,92
769440,note_on,,,,,0,0,14,,,,12,,,65,92
769440,note_on,,,,,0,0,13,,,,11,,,65,92
769440,note_on,,,,,32,0,13,,,,11,,,74,92
769568,note_on,,,,,128,0,14,,,,12,,,65,0
769568,note_on,,,,,0,0,13,,,,11,,,74,0
769568,note_on,,,,,128,0,13,,,,11,,,65,0
769568,note_on,,,,,0,0,14,,,,12,,,57,0
769600,note_on,,,,,0,0,13,,,,11,,,74,92
769600,note_on,,,,,0,0,14,,,,12,,,65,92
769600,note_on,,,,,32,0,14,,,,12,,,57,92
769600,note_on,,,,,32,0,13,,,,11,,,65,92
769728,note_on,,,,,0,0,13,,,,11,,,65,0
769728,note_on,,,,,768,0,10,,,,6,,,74,0
769728,note_on,,,,,0,0,14,,,,12,,,57,0
769728,note_on,,,,,128,0,14,,,,12,,,65,0
769728,note_on,,,,,128,0,13,,,,11,,,74,0
769760,note_on,,,,,32,0,14,,,,12,,,57,92
769760,note_on,,,,,0,0,14,,,,12,,,65,92
769760,note_on,,,,,0,0,13,,,,11,,,65,92
769760,note_on,,,,,32,0,13,,,,11,,,74,92
769824,note_on,,,,,864,0,12,,,,10,,,74,0
769824,note_on,,,,,864,0,1,,,,0,,,74,0
769824,note_on,,,,,0,0,4,,,,2,,,69,0
769824,note_on,,,,,864,0,3,,,,1,,,69,0
769824,note_on,,,,,864,0,4,,,,2,,,65,0
769824,note_on,,,,,0,0,3,,,,1,,,65,0
769888,note_on,,,,,128,0,14,,,,12,,,65,0
769888,note_on,,,,,0,0,14,,,,12,,,57,0
769888,note_on,,,,,0,0,13,,,,11,,,74,0
769888,note_on,,,,,128,0,13,,,,11,,,65,0
769920,note_on,,,,,0,0,14,,,,12,,,69,92
769920,note_on,,,,,0,0,4,,,,2,,,72,92
769920,note_on,,,,,96,0,4,,,,2,,,69,92
769920,note_on,,,,,96,0,12,,,,10,,,77,124
769920,note_on,,,,,96,0,3,,,,1,,,69,92
769920,note_on,,,,,32,0,14,,,,12,,,60,92
769920,note_on,,,,,96,0,1,,,,0,,,77,92
769920,note_on,,,,,32,0,13,,,,11,,,69,92
769920,note_on,,,,,0,0,13,,,,11,,,72,92
769920,note_on,,,,,0,0,3,,,,1,,,72,92
770048,note_on,,,,,0,0,14,,,,12,,,60,0
770048,note_on,,,,,128,0,14,,,,12,,,69,0
770048,note_on,,,,,128,0,13,,,,11,,,72,0
770048,note_on,,,,,0,0,13,,,,11,,,69,0
770080,note_on,,,,,32,0,14,,,,12,,,69,92
770080,note_on,,,,,0,0,14,,,,12,,,60,92
770080,note_on,,,,,0,0,13,,,,11,,,72,92
770080,note_on,,,,,32,0,13,,,,11,,,69,92
770208,note_on,,,,,0,0,14,,,,12,,,69,0
770208,note_on,,,,,128,0,14,,,,12,,,60,0
770208,note_on,,,,,0,0,13,,,,11,,,69,0
770208,note_on,,,,,128,0,13,,,,11,,,72,0
770240,note_on,,,,,32,0,13,,,,11,,,69,92
770240,note_on,,,,,0,0,13,,,,11,,,72,92
770240,note_on,,,,,0,0,14,,,,12,,,69,92
770240,note_on,,,,,32,0,14,,,,12,,,60,92
770304,note_on,,,,,864,0,6,,,,3,,,41,0
770304,note_on,,,,,0,0,6,,,,3,,,53,0
770304,note_on,,,,,864,0,8,,,,4,,,65,0
770352,note_on,,,,,912,0,15,,,,13,,,53,0
770352,note_on,,,,,912,0,16,,,,14,,,41,0
770368,note_on,,,,,128,0,14,,,,12,,,69,0
770368,note_on,,,,,0,0,13,,,,11,,,69,0
770368,note_on,,,,,0,0,14,,,,12,,,60,0
770368,note_on,,,,,128,0,13,,,,11,,,72,0
770400,note_on,,,,,96,0,6,,,,3,,,57,105
770400,note_on,,,,,96,0,8,,,,4,,,69,116
770400,note_on,,,,,48,0,15,,,,13,,,57,116
770400,note_on,,,,,0,0,6,,,,3,,,45,105
770400,note_on,,,,,0,0,13,,,,11,,,69,92
770400,note_on,,,,,32,0,13,,,,11,,,77,92
770400,note_on,,,,,0,0,14,,,,12,,,60,92
770400,note_on,,,,,32,0,14,,,,12,,,69,92
770400,note_on,,,,,48,0,16,,,,14,,,45,116
770528,note_on,,,,,0,0,14,,,,12,,,69,0
770528,note_on,,,,,0,0,13,,,,11,,,77,0
770528,note_on,,,,,128,0,13,,,,11,,,69,0
770528,note_on,,,,,128,0,14,,,,12,,,60,0
770560,note_on,,,,,32,0,14,,,,12,,,60,92
770560,note_on,,,,,0,0,14,,,,12,,,69,92
770560,note_on,,,,,0,0,13,,,,11,,,77,92
770560,note_on,,,,,32,0,13,,,,11,,,69,92
770688,note_on,,,,,0,0,14,,,,12,,,60,0
770688,note_on,,,,,128,0,13,,,,11,,,77,0
770688,note_on,,,,,0,0,13,,,,11,,,69,0
770688,note_on,,,,,128,0,14,,,,12,,,69,0
770720,note_on,,,,,0,0,13,,,,11,,,77,92
770720,note_on,,,,,0,0,14,,,,12,,,60,92
770720,note_on,,,,,32,0,14,,,,12,,,69,92
770720,note_on,,,,,32,0,13,,,,11,,,69,92
770784,note_on,,,,,0,0,3,,,,1,,,69,0
770784,note_on,,,,,864,0,12,,,,10,,,77,0
770784,note_on,,,,,864,0,1,,,,0,,,77,0
770784,note_on,,,,,864,0,3,,,,1,,,72,0
770784,note_on,,,,,0,0,4,,,,2,,,69,0
770784,note_on,,,,,864,0,4,,,,2,,,72,0
770848,note_on,,,,,0,0,13,,,,11,,,69,0
770848,note_on,,,,,128,0,13,,,,11,,,77,0
770848,note_on,,,,,128,0,14,,,,12,,,60,0
770848,note_on,,,,,0,0,14,,,,12,,,69,0
770880,note_on,,,,,32,0,13,,,,11,,,72,92
770880,note_on,,,,,96,0,3,,,,1,,,76,92
770880,note_on,,,,,0,0,3,,,,1,,,72,92
770880,note_on,,,,,96,0,1,,,,0,,,81,92
770880,note_on,,,,,96,0,12,,,,10,,,81,124
770880,note_on,,,,,0,0,14,,,,12,,,69,92
770880,note_on,,,,,96,0,4,,,,2,,,76,92
770880,note_on,,,,,0,0,4,,,,2,,,72,92
770880,note_on,,,,,0,0,13,,,,11,,,76,92
770880,note_on,,,,,32,0,14,,,,12,,,72,92
771008,note_on,,,,,0,0,13,,,,11,,,72,0
771008,note_on,,,,,128,0,14,,,,12,,,69,0
771008,note_on,,,,,0,0,14,,,,12,,,72,0
771008,note_on,,,,,128,0,13,,,,11,,,76,0
771040,note_on,,,,,0,0,14,,,,12,,,69,92
771040,note_on,,,,,32,0,14,,,,12,,,72,92
771040,note_on,,,,,0,0,13,,,,11,,,76,92
771040,note_on,,,,,32,0,13,,,,11,,,72,92
771168,note_on,,,,,128,0,13,,,,11,,,76,0
771168,note_on,,,,,0,0,14,,,,12,,,72,0
771168,note_on,,,,,128,0,14,,,,12,,,69,0
771168,note_on,,,,,0,0,13,,,,11,,,72,0
771168,note_on,,,,,768,0,8,,,,4,,,69,0
771168,note_on,,,,,0,0,6,,,,3,,,57,0
771168,note_on,,,,,768,0,6,,,,3,,,45,0
771200,note_on,,,,,32,0,13,,,,11,,,76,92
771200,note_on,,,,,0,0,13,,,,11,,,72,92
771200,note_on,,,,,0,0,14,,,,12,,,72,92
771200,note_on,,,,,32,0,14,,,,12,,,69,92
771264,note_on,,,,,864,0,15,,,,13,,,57,0
771264,note_on,,,,,864,0,16,,,,14,,,45,0
771328,note_on,,,,,128,0,13,,,,11,,,72,0
771328,note_on,,,,,0,0,13,,,,11,,,76,0
771328,note_on,,,,,128,0,14,,,,12,,,72,0
771328,note_on,,,,,0,0,14,,,,12,,,69,0
771360,note_on,,,,,96,0,15,,,,13,,,60,116
771360,note_on,,,,,192,0,6,,,,3,,,48,105
771360,note_on,,,,,32,0,14,,,,12,,,69,92
771360,note_on,,,,,0,0,8,,,,4,,,64,116
771360,note_on,,,,,0,0,14,,,,12,,,72,92
771360,note_on,,,,,0,0,6,,,,3,,,60,105
771360,note_on,,,,,96,0,16,,,,14,,,48,116
771360,note_on,,,,,32,0,13,,,,11,,,72,92
771360,note_on,,,,,192,0,8,,,,4,,,69,116
771360,note_on,,,,,0,0,13,,,,11,,,76,92
771488,note_on,,,,,128,0,14,,,,12,,,72,0
771488,note_on,,,,,128,0,13,,,,11,,,76,0
771488,note_on,,,,,0,0,13,,,,11,,,72,0
771488,note_on,,,,,0,0,14,,,,12,,,69,0
771520,note_on,,,,,32,0,13,,,,11,,,72,92
771520,note_on,,,,,32,0,14,,,,12,,,69,92
771520,note_on,,,,,0,0,13,,,,11,,,76,92
771520,note_on,,,,,0,0,14,,,,12,,,72,92
771648,note_on,,,,,288,0,16,,,,14,,,48,0
771648,note_on,,,,,0,0,14,,,,12,,,69,0
771648,note_on,,,,,288,0,6,,,,3,,,60,0
771648,note_on,,,,,0,0,6,,,,3,,,48,0
771648,note_on,,,,,288,0,15,,,,13,,,60,0
771648,note_on,,,,,0,0,13,,,,11,,,72,0
771648,note_on,,,,,288,0,8,,,,4,,,64,0
771648,note_on,,,,,0,0,8,,,,4,,,69,0
771648,note_on,,,,,128,0,14,,,,12,,,72,0
771648,note_on,,,,,128,0,13,,,,11,,,76,0
771680,note_on,,,,,32,0,13,,,,11,,,76,92
771680,note_on,,,,,0,0,13,,,,11,,,72,92
771680,note_on,,,,,32,0,14,,,,12,,,69,92
771680,note_on,,,,,0,0,14,,,,12,,,72,92
771744,note_on,,,,,864,0,1,,,,0,,,81,0
771744,note_on,,,,,864,0,4,,,,2,,,72,0
771744,note_on,,,,,0,0,4,,,,2,,,76,0
771744,note_on,,,,,0,0,3,,,,1,,,76,0
771744,note_on,,,,,864,0,3,,,,1,,,72,0
771744,note_on,,,,,864,0,12,,,,10,,,81,0
771808,note_on,,,,,0,0,13,,,,11,,,76,0
771808,note_on,,,,,128,0,13,,,,11,,,72,0
771808,note_on,,,,,128,0,14,,,,12,,,72,0
771808,note_on,,,,,0,0,14,,,,12,,,69,0
771840,note_on,,,,,0,0,6,,,,3,,,63,105
771840,note_on,,,,,192,0,16,,,,14,,,51,116
771840,note_on,,,,,0,0,8,,,,4,,,69,116
771840,note_on,,,,,192,0,8,,,,4,,,66,116
771840,note_on,,,,,0,0,13,,,,11,,,69,92
771840,note_on,,,,,32,0,13,,,,11,,,78,92
771840,note_on,,,,,32,0,14,,,,12,,,72,92
771840,note_on,,,,,0,0,14,,,,12,,,69,92
771840,note_on,,,,,192,0,6,,,,3,,,51,105
771840,note_on,,,,,96,0,4,,,,2,,,78,92
771840,note_on,,,,,96,0,12,,,,10,,,84,124
771840,note_on,,,,,192,0,15,,,,13,,,63,116
771840,note_on,,,,,0,0,3,,,,1,,,78,105
771840,note_on,,,,,7872,0,9,,,,5,,,60,116
771840,note_on,,,,,96,0,1,,,,0,,,84,105
771840,note_on,,,,,0,0,1,,,,0,,,81,105
771840,set_tempo,,,,,19200,1,0,408163,,,,,,,
771840,note_on,,,,,96,0,3,,,,1,,,69,105
771840,note_on,,,,,0,0,4,,,,2,,,69,105
771840,note_on,,,,,0,0,9,,,,5,,,48,116
771968,note_on,,,,,128,0,14,,,,12,,,69,0
771968,note_on,,,,,0,0,14,,,,12,,,72,0
771968,note_on,,,,,0,0,13,,,,11,,,78,0
771968,note_on,,,,,128,0,13,,,,11,,,69,0
772000,note_on,,,,,32,0,14,,,,12,,,72,92
772000,note_on,,,,,32,0,13,,,,11,,,78,92
772000,note_on,,,,,0,0,13,,,,11,,,69,92
772000,note_on,,,,,0,0,14,,,,12,,,69,92
772128,note_on,,,,,288,0,9,,,,5,,,48,0
772128,note_on,,,,,0,0,14,,,,12,,,72,0
772128,note_on,,,,,128,0,14,,,,12,,,69,0
772128,note_on,,,,,0,0,9,,,,5,,,60,0
772128,note_on,,,,,0,0,13,,,,11,,,78,0
772128,note_on,,,,,128,0,13,,,,11,,,69,0
772128,note_on,,,,,288,0,8,,,,4,,,69,0
772128,note_on,,,,,0,0,8,,,,4,,,66,0
772160,note_on,,,,,0,0,13,,,,11,,,69,92
772160,note_on,,,,,32,0,14,,,,12,,,72,92
772160,note_on,,,,,0,0,14,,,,12,,,69,92
772160,note_on,,,,,32,0,13,,,,11,,,78,92
772288,note_on,,,,,128,0,14,,,,12,,,69,0
772288,note_on,,,,,0,0,13,,,,11,,,78,0
772288,note_on,,,,,128,0,13,,,,11,,,69,0
772288,note_on,,,,,0,0,14,,,,12,,,72,0
772320,note_on,,,,,0,0,8,,,,4,,,66,116
772320,note_on,,,,,0,0,14,,,,12,,,69,92
772320,note_on,,,,,32,0,13,,,,11,,,78,92
772320,note_on,,,,,0,0,9,,,,5,,,60,127
772320,note_on,,,,,0,0,13,,,,11,,,69,92
772320,note_on,,,,,192,0,8,,,,4,,,69,127
772320,note_on,,,,,192,0,9,,,,5,,,48,116
772320,note_on,,,,,32,0,14,,,,12,,,72,92
772448,note_on,,,,,0,0,14,,,,12,,,72,0
772448,note_on,,,,,128,0,13,,,,11,,,69,0
772448,note_on,,,,,0,0,13,,,,11,,,78,0
772448,note_on,,,,,128,0,14,,,,12,,,69,0
772480,note_on,,,,,32,0,14,,,,12,,,69,92
772480,note_on,,,,,0,0,14,,,,12,,,72,92
772480,note_on,,,,,32,0,13,,,,11,,,78,92
772480,note_on,,,,,0,0,13,,,,11,,,69,92
772608,note_on,,,,,0,0,13,,,,11,,,78,0
772608,note_on,,,,,128,0,14,,,,12,,,72,0
772608,note_on,,,,,0,0,14,,,,12,,,69,0
772608,note_on,,,,,128,0,13,,,,11,,,69,0
772640,note_on,,,,,32,0,14,,,,12,,,69,92
772640,note_on,,,,,0,0,14,,,,12,,,72,92
772640,note_on,,,,,32,0,13,,,,11,,,78,92
772640,note_on,,,,,0,0,13,,,,11,,,69,92
772704,note_on,,,,,0,0,6,,,,3,,,51,0
772704,note_on,,,,,864,0,6,,,,3,,,63,0
772704,note_on,,,,,864,0,15,,,,13,,,63,0
772704,note_on,,,,,864,0,16,,,,14,,,51,0
772768,note_on,,,,,0,0,14,,,,12,,,69,0
772768,note_on,,,,,128,0,13,,,,11,,,69,0
772768,note_on,,,,,0,0,13,,,,11,,,78,0
772768,note_on,,,,,128,0,14,,,,12,,,72,0
772800,note_on,,,,,0,0,6,,,,3,,,51,105
772800,note_on,,,,,96,0,6,,,,3,,,39,105
772800,note_on,,,,,32,0,14,,,,12,,,66,92
772800,note_on,,,,,0,0,14,,,,12,,,69,92
772800,note_on,,,,,32,0,13,,,,11,,,72,92
772800,note_on,,,,,0,0,13,,,,11,,,81,92
772800,note_on,,,,,96,0,15,,,,13,,,51,116
772800,note_on,,,,,96,0,16,,,,14,,,39,116
772928,note_on,,,,,128,0,14,,,,12,,,69,0
772928,note_on,,,,,0,0,14,,,,12,,,66,0
772928,note_on,,,,,0,0,13,,,,11,,,72,0
772928,note_on,,,,,128,0,13,,,,11,,,81,0
772960,note_on,,,,,32,0,13,,,,11,,,72,92
772960,note_on,,,,,32,0,14,,,,12,,,69,92
772960,note_on,,,,,0,0,13,,,,11,,,81,92
772960,note_on,,,,,0,0,14,,,,12,,,66,92
773016,note_on,,,,,1176,0,12,,,,10,,,84,0
773040,note_on,,,,,24,0,12,,,,10,,,83,124
773088,note_on,,,,,0,0,13,,,,11,,,72,0
773088,note_on,,,,,0,0,14,,,,12,,,69,0
773088,note_on,,,,,128,0,13,,,,11,,,81,0
773088,note_on,,,,,128,0,14,,,,12,,,66,0
773120,note_on,,,,,32,0,14,,,,12,,,69,92
773120,note_on,,,,,0,0,13,,,,11,,,72,92
773120,note_on,,,,,32,0,13,,,,11,,,81,92
773120,note_on,,,,,0,0,14,,,,12,,,66,92
773184,note_on,,,,,0,0,9,,,,5,,,48,0
773184,note_on,,,,,864,0,9,,,,5,,,60,0
773184,note_on,,,,,0,0,8,,,,4,,,69,0
773184,note_on,,,,,864,0,8,,,,4,,,66,0
773248,note_on,,,,,0,0,14,,,,12,,,69,0
773248,note_on,,,,,0,0,13,,,,11,,,81,0
773248,note_on,,,,,128,0,13,,,,11,,,72,0
773248,note_on,,,,,128,0,14,,,,12,,,66,0
773256,note_on,,,,,216,0,12,,,,10,,,83,0
773280,note_on,,,,,32,0,13,,,,11,,,72,92
773280,note_on,,,,,0,0,13,,,,11,,,81,92
773280,note_on,,,,,96,0,9,,,,5,,,48,116
773280,note_on,,,,,0,0,8,,,,4,,,69,116
773280,note_on,,,,,24,0,12,,,,10,,,84,124
773280,note_on,,,,,32,0,14,,,,12,,,69,92
773280,note_on,,,,,0,0,14,,,,12,,,66,92
773280,note_on,,,,,96,0,8,,,,4,,,66,116
773280,note_on,,,,,0,0,9,,,,5,,,60,116
773408,note_on,,,,,128,0,14,,,,12,,,66,0
773408,note_on,,,,,128,0,13,,,,11,,,81,0
773408,note_on,,,,,0,0,14,,,,12,,,69,0
773408,note_on,,,,,0,0,13,,,,11,,,72,0
773440,note_on,,,,,0,0,13,,,,11,,,81,92
773440,note_on,,,,,32,0,13,,,,11,,,72,92
773440,note_on,,,,,32,0,14,,,,12,,,66,92
773440,note_on,,,,,0,0,14,,,,12,,,69,92
773496,note_on,,,,,216,0,12,,,,10,,,84,0
773520,note_on,,,,,24,0,12,,,,10,,,81,124
773568,note_on,,,,,0,0,9,,,,5,,,48,0
773568,note_on,,,,,288,0,9,,,,5,,,60,0
773568,note_on,,,,,128,0,13,,,,11,,,81,0
773568,note_on,,,,,0,0,13,,,,11,,,72,0
773568,note_on,,,,,0,0,8,,,,4,,,66,0
773568,note_on,,,,,288,0,8,,,,4,,,69,0
773568,note_on,,,,,128,0,14,,,,12,,,69,0
773568,note_on,,,,,0,0,14,,,,12,,,66,0
773600,note_on,,,,,0,0,13,,,,11,,,72,92
773600,note_on,,,,,32,0,13,,,,11,,,81,92
773600,note_on,,,,,0,0,14,,,,12,,,66,92
773600,note_on,,,,,32,0,14,,,,12,,,69,92
773664,note_on,,,,,0,0,6,,,,3,,,39,0
773664,note_on,,,,,1824,0,4,,,,2,,,69,0
773664,note_on,,,,,864,0,16,,,,14,,,39,0
773664,note_on,,,,,864,0,6,,,,3,,,51,0
773664,note_on,,,,,0,0,4,,,,2,,,78,0
773664,note_on,,,,,864,0,15,,,,13,,,51,0
773664,note_on,,,,,0,0,3,,,,1,,,69,0
773664,note_on,,,,,0,0,1,,,,0,,,84,0
773664,note_on,,,,,1824,0,1,,,,0,,,81,0
773664,note_on,,,,,1824,0,3,,,,1,,,78,0
773728,note_on,,,,,128,0,13,,,,11,,,72,0
773728,note_on,,,,,0,0,13,,,,11,,,81,0
773728,note_on,,,,,128,0,14,,,,12,,,66,0
773728,note_on,,,,,0,0,14,,,,12,,,69,0
773736,note_on,,,,,216,0,12,,,,10,,,81,0
773760,note_on,,,,,0,0,13,,,,11,,,69,92
773760,note_on,,,,,0,0,8,,,,4,,,69,116
773760,note_on,,,,,96,0,6,,,,3,,,52,105
773760,note_on,,,,,0,0,6,,,,3,,,64,105
773760,note_on,,,,,32,0,13,,,,11,,,84,92
773760,note_on,,,,,0,0,14,,,,12,,,69,92
773760,note_on,,,,,192,0,8,,,,4,,,64,116
773760,note_on,,,,,0,0,4,,,,2,,,72,105
773760,note_on,,,,,96,0,3,,,,1,,,72,105
773760,note_on,,,,,32,0,14,,,,12,,,72,92
773760,note_on,,,,,96,0,15,,,,13,,,64,116
773760,note_on,,,,,0,0,3,,,,1,,,81,105
773760,note_on,,,,,24,0,12,,,,10,,,96,124
773760,note_on,,,,,96,0,16,,,,14,,,52,116
773760,note_on,,,,,96,0,1,,,,0,,,93,105
773760,note_on,,,,,0,0,1,,,,0,,,84,105
773760,note_on,,,,,96,0,4,,,,2,,,76,105
773760,note_on,,,,,0,0,9,,,,5,,,60,116
773760,note_on,,,,,192,0,9,,,,5,,,72,116
773888,note_on,,,,,128,0,14,,,,12,,,69,0
773888,note_on,,,,,0,0,14,,,,12,,,72,0
773888,note_on,,,,,0,0,13,,,,11,,,84,0
773888,note_on,,,,,128,0,13,,,,11,,,69,0
773920,note_on,,,,,0,0,13,,,,11,,,69,92
773920,note_on,,,,,32,0,13,,,,11,,,84,92
773920,note_on,,,,,32,0,14,,,,12,,,69,92
773920,note_on,,,,,0,0,14,,,,12,,,72,92
774048,note_on,,,,,288,0,9,,,,5,,,60,0
774048,note_on,,,,,0,0,14,,,,12,,,69,0
774048,note_on,,,,,0,0,9,,,,5,,,72,0
774048,note_on,,,,,0,0,13,,,,11,,,84,0
774048,note_on,,,,,288,0,8,,,,4,,,69,0
774048,note_on,,,,,0,0,8,,,,4,,,64,0
774048,note_on,,,,,128,0,14,,,,12,,,72,0
774048,note_on,,,,,128,0,13,,,,11,,,69,0
774080,note_on,,,,,32,0,14,,,,12,,,72,92
774080,note_on,,,,,0,0,14,,,,12,,,69,92
774080,note_on,,,,,0,0,13,,,,11,,,69,92
774080,note_on,,,,,32,0,13,,,,11,,,84,92
774208,note_on,,,,,0,0,13,,,,11,,,84,0
774208,note_on,,,,,128,0,13,,,,11,,,69,0
774208,note_on,,,,,128,0,14,,,,12,,,69,0
774208,note_on,,,,,0,0,14,,,,12,,,72,0
774240,note_on,,,,,0,0,8,,,,4,,,69,127
774240,note_on,,,,,192,0,9,,,,5,,,60,116
774240,note_on,,,,,192,0,8,,,,4,,,64,116
774240,note_on,,,,,0,0,14,,,,12,,,69,92
774240,note_on,,,,,32,0,14,,,,12,,,72,92
774240,note_on,,,,,0,0,9,,,,5,,,72,127
774240,note_on,,,,,0,0,13,,,,11,,,69,92
774240,note_on,,,,,32,0,13,,,,11,,,84,92
774368,note_on,,,,,128,0,13,,,,11,,,69,0
774368,note_on,,,,,128,0,14,,,,12,,,69,0
774368,note_on,,,,,0,0,14,,,,12,,,72,0
774368,note_on,,,,,0,0,13,,,,11,,,84,0
774400,note_on,,,,,0,0,14,,,,12,,,69,92
774400,note_on,,,,,32,0,13,,,,11,,,84,92
774400,note_on,,,,,0,0,13,,,,11,,,69,92
774400,note_on,,,,,32,0,14,,,,12,,,72,92
774528,note_on,,,,,0,0,13,,,,11,,,84,0
774528,note_on,,,,,128,0,14,,,,12,,,69,0
774528,note_on,,,,,0,0,14,,,,12,,,72,0
774528,note_on,,,,,128,0,13,,,,11,,,69,0
774560,note_on,,,,,32,0,14,,,,12,,,69,92
774560,note_on,,,,,32,0,13,,,,11,,,69,92
774560,note_on,,,,,0,0,14,,,,12,,,72,92
774560,note_on,,,,,0,0,13,,,,11,,,84,92
774624,note_on,,,,,0,0,6,,,,3,,,52,0
774624,note_on,,,,,864,0,16,,,,14,,,52,0
774624,note_on,,,,,864,0,6,,,,3,,,64,0
774624,note_on,,,,,864,0,15,,,,13,,,64,0
774688,note_on,,,,,128,0,13,,,,11,,,84,0
774688,note_on,,,,,0,0,14,,,,12,,,69,0
774688,note_on,,,,,0,0,13,,,,11,,,69,0
774688,note_on,,,,,128,0,14,,,,12,,,72,0
774720,note_on,,,,,32,0,13,,,,11,,,72,92
774720,note_on,,,,,96,0,6,,,,3,,,40,105
774720,note_on,,,,,0,0,6,,,,3,,,52,105
774720,note_on,,,,,96,0,16,,,,14,,,40,116
774720,note_on,,,,,0,0,14,,,,12,,,60,92
774720,note_on,,,,,32,0,14,,,,12,,,69,92
774720,note_on,,,,,96,0,15,,,,13,,,52,116
774720,note_on,,,,,0,0,13,,,,11,,,81,92
774848,note_on,,,,,0,0,14,,,,12,,,69,0
774848,note_on,,,,,128,0,14,,,,12,,,60,0
774848,note_on,,,,,0,0,13,,,,11,,,72,0
774848,note_on,,,,,128,0,13,,,,11,,,81,0
774880,note_on,,,,,32,0,13,,,,11,,,81,92
774880,note_on,,,,,0,0,13,,,,11,,,72,92
774880,note_on,,,,,32,0,14,,,,12,,,60,92
774880,note_on,,,,,0,0,14,,,,12,,,69,92
774936,note_on,,,,,1176,0,12,,,,10,,,96,0
774960,note_on,,,,,24,0,12,,,,10,,,93,124
775008,note_on,,,,,0,0,13,,,,11,,,81,0
775008,note_on,,,,,128,0,14,,,,12,,,69,0
775008,note_on,,,,,0,0,14,,,,12,,,60,0
775008,note_on,,,,,128,0,13,,,,11,,,72,0
775040,note_on,,,,,32,0,14,,,,12,,,69,92
775040,note_on,,,,,0,0,13,,,,11,,,72,92
775040,note_on,,,,,32,0,13,,,,11,,,81,92
775040,note_on,,,,,0,0,14,,,,12,,,60,92
775104,note_on,,,,,864,0,9,,,,5,,,72,0
775104,note_on,,,,,0,0,9,,,,5,,,60,0
775104,note_on,,,,,0,0,8,,,,4,,,64,0
775104,note_on,,,,,864,0,8,,,,4,,,69,0
775168,note_on,,,,,0,0,13,,,,11,,,81,0
775168,note_on,,,,,128,0,14,,,,12,,,60,0
775168,note_on,,,,,0,0,14,,,,12,,,69,0
775168,note_on,,,,,128,0,13,,,,11,,,72,0
775176,note_on,,,,,216,0,12,,,,10,,,93,0
775200,note_on,,,,,96,0,8,,,,4,,,69,116
775200,note_on,,,,,0,0,8,,,,4,,,64,116
775200,note_on,,,,,32,0,13,,,,11,,,72,92
775200,note_on,,,,,0,0,13,,,,11,,,76,92
775200,note_on,,,,,24,0,12,,,,10,,,88,124
775200,note_on,,,,,0,0,14,,,,12,,,69,92
775200,note_on,,,,,0,0,9,,,,5,,,72,116
775200,note_on,,,,,96,0,9,,,,5,,,60,116
775200,note_on,,,,,32,0,14,,,,12,,,60,92
775328,note_on,,,,,128,0,13,,,,11,,,76,0
775328,note_on,,,,,0,0,13,,,,11,,,72,0
775328,note_on,,,,,128,0,14,,,,12,,,69,0
775328,note_on,,,,,0,0,14,,,,12,,,60,0
775360,note_on,,,,,32,0,14,,,,12,,,69,92
775360,note_on,,,,,0,0,14,,,,12,,,60,92
775360,note_on,,,,,0,0,13,,,,11,,,72,92
775360,note_on,,,,,32,0,13,,,,11,,,76,92
775416,note_on,,,,,216,0,12,,,,10,,,88,0
775440,note_on,,,,,24,0,12,,,,10,,,86,124
775488,note_on,,,,,128,0,13,,,,11,,,72,0
775488,note_on,,,,,0,0,13,,,,11,,,76,0
775488,note_on,,,,,288,0,9,,,,5,,,72,0
775488,note_on,,,,,0,0,9,,,,5,,,60,0
775488,note_on,,,,,0,0,8,,,,4,,,69,0
775488,note_on,,,,,288,0,8,,,,4,,,64,0
775488,note_on,,,,,128,0,14,,,,12,,,60,0
775488,note_on,,,,,0,0,14,,,,12,,,69,0
775520,note_on,,,,,32,0,14,,,,12,,,69,92
775520,note_on,,,,,0,0,13,,,,11,,,72,92
775520,note_on,,,,,0,0,14,,,,12,,,60,92
775520,note_on,,,,,32,0,13,,,,11,,,76,92
775584,note_on,,,,,0,0,4,,,,2,,,76,0
775584,note_on,,,,,1824,0,3,,,,1,,,81,0
775584,note_on,,,,,864,0,16,,,,14,,,40,0
775584,note_on,,,,,0,0,6,,,,3,,,40,0
775584,note_on,,,,,864,0,6,,,,3,,,52,0
775584,note_on,,,,,1824,0,4,,,,2,,,72,0
775584,note_on,,,,,864,0,15,,,,13,,,52,0
775584,note_on,,,,,0,0,3,,,,1,,,72,0
775584,note_on,,,,,1824,0,1,,,,0,,,84,0
775584,note_on,,,,,0,0,1,,,,0,,,93,0
775648,note_on,,,,,128,0,14,,,,12,,,60,0
775648,note_on,,,,,0,0,14,,,,12,,,69,0
775648,note_on,,,,,0,0,13,,,,11,,,76,0
775648,note_on,,,,,128,0,13,,,,11,,,72,0
775656,note_on,,,,,216,0,12,,,,10,,,86,0
775680,note_on,,,,,96,0,16,,,,14,,,53,116
775680,note_on,,,,,32,0,14,,,,12,,,60,92
775680,note_on,,,,,0,0,14,,,,12,,,63,92
775680,note_on,,,,,0,0,13,,,,11,,,72,92
775680,note_on,,,,,32,0,13,,,,11,,,69,92
775680,note_on,,,,,0,0,1,,,,0,,,81,105
775680,note_on,,,,,0,0,6,,,,3,,,65,105
775680,note_on,,,,,96,0,1,,,,0,,,84,105
775680,note_on,,,,,0,0,8,,,,4,,,63,116
775680,note_on,,,,,0,0,3,,,,1,,,75,105
775680,note_on,,,,,96,0,3,,,,1,,,69,105
775680,note_on,,,,,192,0,9,,,,5,,,60,116
775680,note_on,,,,,96,0,15,,,,13,,,65,116
775680,note_on,,,,,0,0,9,,,,5,,,60,116
775680,note_on,,,,,24,0,12,,,,10,,,84,124
775680,note_on,,,,,96,0,4,,,,2,,,72,105
775680,note_on,,,,,0,0,4,,,,2,,,69,105
775680,note_on,,,,,96,0,6,,,,3,,,53,105
775680,note_on,,,,,192,0,8,,,,4,,,69,116
775808,note_on,,,,,0,0,14,,,,12,,,60,0
775808,note_on,,,,,128,0,14,,,,12,,,63,0
775808,note_on,,,,,128,0,13,,,,11,,,72,0
775808,note_on,,,,,0,0,13,,,,11,,,69,0
775840,note_on,,,,,32,0,13,,,,11,,,69,92
775840,note_on,,,,,32,0,14,,,,12,,,63,92
775840,note_on,,,,,0,0,13,,,,11,,,72,92
775840,note_on,,,,,0,0,14,,,,12,,,60,92
775968,note_on,,,,,128,0,14,,,,12,,,60,0
775968,note_on,,,,,0,0,8,,,,4,,,69,0
775968,note_on,,,,,288,0,8,,,,4,,,63,0
775968,note_on,,,,,0,0,9,,,,5,,,60,0
775968,note_on,,,,,128,0,13,,,,11,,,72,0
775968,note_on,,,,,0,0,14,,,,12,,,63,0
775968,note_on,,,,,288,0,9,,,,5,,,60,0
775968,note_on,,,,,0,0,13,,,,11,,,69,0
776000,note_on,,,,,32,0,14,,,,12,,,63,92
776000,note_on,,,,,0,0,14,,,,12,,,60,92
776000,note_on,,,,,0,0,13,,,,11,,,69,92
776000,note_on,,,,,32,0,13,,,,11,,,72,92
776128,note_on,,,,,0,0,14,,,,12,,,63,0
776128,note_on,,,,,0,0,13,,,,11,,,72,0
776128,note_on,,,,,128,0,13,,,,11,,,69,0
776128,note_on,,,,,128,0,14,,,,12,,,60,0
776160,note_on,,,,,0,0,13,,,,11,,,69,92
776160,note_on,,,,,0,0,8,,,,4,,,63,116
776160,note_on,,,,,192,0,8,,,,4,,,69,127
776160,note_on,,,,,192,0,9,,,,5,,,60,116
776160,note_on,,,,,0,0,9,,,,5,,,60,127
776160,note_on,,,,,32,0,13,,,,11,,,72,92
776160,note_on,,,,,32,0,14,,,,12,,,63,92
776160,note_on,,,,,0,0,14,,,,12,,,60,92
776288,note_on,,,,,0,0,14,,,,12,,,63,0
776288,note_on,,,,,0,0,13,,,,11,,,72,0
776288,note_on,,,,,128,0,13,,,,11,,,69,0
776288,note_on,,,,,128,0,14,,,,12,,,60,0
776320,note_on,,,,,32,0,13,,,,11,,,69,92
776320,note_on,,,,,0,0,14,,,,12,,,60,92
776320,note_on,,,,,0,0,13,,,,11,,,72,92
776320,note_on,,,,,32,0,14,,,,12,,,63,92
776328,note_on,,,,,648,0,12,,,,10,,,84,0
776400,note_on,,,,,72,0,12,,,,10,,,83,124
776448,note_on,,,,,128,0,13,,,,11,,,72,0
776448,note_on,,,,,128,0,14,,,,12,,,60,0
776448,note_on,,,,,0,0,14,,,,12,,,63,0
776448,note_on,,,,,0,0,13,,,,11,,,69,0
776480,note_on,,,,,32,0,14,,,,12,,,63,92
776480,note_on,,,,,0,0,14,,,,12,,,60,92
776480,note_on,,,,,0,0,13,,,,11,,,69,92
776480,note_on,,,,,32,0,13,,,,11,,,72,92
776544,note_on,,,,,864,0,6,,,,3,,,65,0
776544,note_on,,,,,864,0,15,,,,13,,,65,0
776544,note_on,,,,,0,0,6,,,,3,,,53,0
776544,note_on,,,,,864,0,16,,,,14,,,53,0
776608,note_on,,,,,128,0,14,,,,12,,,60,0
776608,note_on,,,,,0,0,14,,,,12,,,63,0
776608,note_on,,,,,128,0,13,,,,11,,,69,0
776608,note_on,,,,,0,0,13,,,,11,,,72,0
776616,note_on,,,,,216,0,12,,,,10,,,83,0
776640,note_on,,,,,24,0,12,,,,10,,,84,124
776640,note_on,,,,,96,0,15,,,,13,,,53,116
776640,note_on,,,,,96,0,6,,,,3,,,41,105
776640,note_on,,,,,0,0,6,,,,3,,,53,105
776640,note_on,,,,,96,0,16,,,,14,,,41,116
776640,note_on,,,,,0,0,14,,,,12,,,63,92
776640,note_on,,,,,32,0,14,,,,12,,,60,92
776640,note_on,,,,,32,0,13,,,,11,,,63,92
776640,note_on,,,,,0,0,13,,,,11,,,69,92
776768,note_on,,,,,0,0,14,,,,12,,,60,0
776768,note_on,,,,,128,0,13,,,,11,,,69,0
776768,note_on,,,,,0,0,13,,,,11,,,63,0
776768,note_on,,,,,128,0,14,,,,12,,,63,0
776800,note_on,,,,,32,0,14,,,,12,,,60,92
776800,note_on,,,,,32,0,13,,,,11,,,69,92
776800,note_on,,,,,0,0,13,,,,11,,,63,92
776800,note_on,,,,,0,0,14,,,,12,,,63,92
776856,note_on,,,,,216,0,12,,,,10,,,84,0
776880,note_on,,,,,24,0,12,,,,10,,,81,124
776928,note_on,,,,,0,0,14,,,,12,,,60,0
776928,note_on,,,,,128,0,14,,,,12,,,63,0
776928,note_on,,,,,128,0,13,,,,11,,,63,0
776928,note_on,,,,,0,0,13,,,,11,,,69,0
776960,note_on,,,,,32,0,14,,,,12,,,60,92
776960,note_on,,,,,32,0,13,,,,11,,,63,92
776960,note_on,,,,,0,0,13,,,,11,,,69,92
776960,note_on,,,,,0,0,14,,,,12,,,63,92
777024,note_on,,,,,864,0,9,,,,5,,,60,0
777024,note_on,,,,,0,0,9,,,,5,,,60,0
777024,note_on,,,,,0,0,8,,,,4,,,69,0
777024,note_on,,,,,864,0,8,,,,4,,,63,0
777088,note_on,,,,,128,0,13,,,,11,,,69,0
777088,note_on,,,,,0,0,13,,,,11,,,63,0
777088,note_on,,,,,128,0,14,,,,12,,,63,0
777088,note_on,,,,,0,0,14,,,,12,,,60,0
777096,note_on,,,,,216,0,12,,,,10,,,81,0
777120,note_on,,,,,0,0,8,,,,4,,,69,116
777120,note_on,,,,,96,0,9,,,,5,,,60,116
777120,note_on,,,,,0,0,9,,,,5,,,60,116
777120,note_on,,,,,24,0,12,,,,10,,,75,124
777120,note_on,,,,,32,0,13,,,,11,,,69,92
777120,note_on,,,,,0,0,13,,,,11,,,63,92
777120,note_on,,,,,96,0,8,,,,4,,,63,116
777120,note_on,,,,,32,0,14,,,,12,,,63,92
777120,note_on,,,,,0,0,14,,,,12,,,60,92
777248,note_on,,,,,0,0,13,,,,11,,,69,0
777248,note_on,,,,,128,0,13,,,,11,,,63,0
777248,note_on,,,,,128,0,14,,,,12,,,60,0
777248,note_on,,,,,0,0,14,,,,12,,,63,0
777280,note_on,,,,,32,0,13,,,,11,,,63,92
777280,note_on,,,,,32,0,14,,,,12,,,63,92
777280,note_on,,,,,0,0,13,,,,11,,,69,92
777280,note_on,,,,,0,0,14,,,,12,,,60,92
777336,note_on,,,,,216,0,12,,,,10,,,75,0
777360,note_on,,,,,24,0,12,,,,10,,,74,124
777408,note_on,,,,,288,0,8,,,,4,,,69,0
777408,note_on,,,,,0,0,8,,,,4,,,63,0
777408,note_on,,,,,128,0,14,,,,12,,,60,0
777408,note_on,,,,,0,0,14,,,,12,,,63,0
777408,note_on,,,,,0,0,13,,,,11,,,63,0
777408,note_on,,,,,128,0,13,,,,11,,,69,0
777408,note_on,,,,,288,0,9,,,,5,,,60,0
777408,note_on,,,,,0,0,9,,,,5,,,60,0
777440,note_on,,,,,0,0,13,,,,11,,,69,92
777440,note_on,,,,,32,0,13,,,,11,,,63,92
777440,note_on,,,,,32,0,14,,,,12,,,60,92
777440,note_on,,,,,0,0,14,,,,12,,,63,92
777504,note_on,,,,,0,0,4,,,,2,,,72,0
777504,note_on,,,,,1824,0,4,,,,2,,,69,0
777504,note_on,,,,,864,0,15,,,,13,,,53,0
777504,note_on,,,,,1824,0,3,,,,1,,,75,0
777504,note_on,,,,,0,0,3,,,,1,,,69,0
777504,note_on,,,,,864,0,6,,,,3,,,53,0
777504,note_on,,,,,0,0,6,,,,3,,,41,0
777504,note_on,,,,,864,0,16,,,,14,,,41,0
777504,note_on,,,,,1824,0,1,,,,0,,,81,0
777504,note_on,,,,,0,0,1,,,,0,,,84,0
777568,note_on,,,,,0,0,14,,,,12,,,60,0
777568,note_on,,,,,128,0,14,,,,12,,,63,0
777568,note_on,,,,,128,0,13,,,,11,,,69,0
777568,note_on,,,,,0,0,13,,,,11,,,63,0
777576,note_on,,,,,216,0,12,,,,10,,,74,0
777600,note_on,,,,,192,0,8,,,,4,,,69,116
777600,note_on,,,,,192,0,9,,,,5,,,63,116
777600,note_on,,,,,32,0,14,,,,12,,,60,92
777600,note_on,,,,,0,0,1,,,,0,,,75,105
777600,note_on,,,,,96,0,1,,,,0,,,81,105
777600,note_on,,,,,0,0,14,,,,12,,,48,92
777600,note_on,,,,,0,0,4,,,,2,,,63,105
777600,note_on,,,,,96,0,4,,,,2,,,69,105
777600,note_on,,,,,0,0,9,,,,5,,,60,116
777600,note_on,,,,,96,0,6,,,,3,,,42,105
777600,note_on,,,,,0,0,6,,,,3,,,54,105
777600,note_on,,,,,96,0,15,,,,13,,,54,116
777600,note_on,,,,,24,0,12,,,,10,,,72,124
777600,note_on,,,,,0,0,13,,,,11,,,60,92
777600,note_on,,,,,0,0,8,,,,4,,,63,116
777600,note_on,,,,,96,0,3,,,,1,,,63,105
777600,note_on,,,,,0,0,3,,,,1,,,69,105
777600,note_on,,,,,96,0,16,,,,14,,,42,116
777600,note_on,,,,,32,0,13,,,,11,,,63,92
777728,note_on,,,,,128,0,13,,,,11,,,60,0
777728,note_on,,,,,0,0,13,,,,11,,,63,0
777728,note_on,,,,,0,0,14,,,,12,,,60,0
777728,note_on,,,,,128,0,14,,,,12,,,48,0
777760,note_on,,,,,32,0,14,,,,12,,,48,92
777760,note_on,,,,,0,0,14,,,,12,,,60,92
777760,note_on,,,,,32,0,13,,,,11,,,63,92
777760,note_on,,,,,0,0,13,,,,11,,,60,92
777888,note_on,,,,,0,0,13,,,,11,,,63,0
777888,note_on,,,,,0,0,14,,,,12,,,48,0
777888,note_on,,,,,288,0,9,,,,5,,,60,0
777888,note_on,,,,,128,0,14,,,,12,,,60,0
777888,note_on,,,,,128,0,13,,,,11,,,60,0
777888,note_on,,,,,288,0,8,,,,4,,,63,0
777888,note_on,,,,,0,0,8,,,,4,,,69,0
777888,note_on,,,,,0,0,9,,,,5,,,63,0
777920,note_on,,,,,32,0,13,,,,11,,,60,92
777920,note_on,,,,,0,0,13,,,,11,,,63,92
777920,note_on,,,,,32,0,14,,,,12,,,60,92
777920,note_on,,,,,0,0,14,,,,12,,,48,92
778048,note_on,,,,,0,0,13,,,,11,,,60,0
778048,note_on,,,,,128,0,13,,,,11,,,63,0
778048,note_on,,,,,128,0,14,,,,12,,,48,0
778048,note_on,,,,,0,0,14,,,,12,,,60,0
778080,note_on,,,,,192,0,8,,,,4,,,63,116
778080,note_on,,,,,0,0,8,,,,4,,,69,127
778080,note_on,,,,,0,0,14,,,,12,,,60,92
778080,note_on,,,,,192,0,9,,,,5,,,63,127
778080,note_on,,,,,32,0,14,,,,12,,,48,92
778080,note_on,,,,,0,0,9,,,,5,,,60,116
778080,note_on,,,,,32,0,13,,,,11,,,63,92
778080,note_on,,,,,0,0,13,,,,11,,,60,92
778208,note_on,,,,,128,0,14,,,,12,,,60,0
778208,note_on,,,,,0,0,14,,,,12,,,48,0
778208,note_on,,,,,0,0,13,,,,11,,,63,0
778208,note_on,,,,,128,0,13,,,,11,,,60,0
778240,note_on,,,,,32,0,13,,,,11,,,60,92
778240,note_on,,,,,0,0,14,,,,12,,,48,92
778240,note_on,,,,,32,0,14,,,,12,,,60,92
778240,note_on,,,,,0,0,13,,,,11,,,63,92
778248,note_on,,,,,648,0,12,,,,10,,,72,0
778320,note_on,,,,,72,0,12,,,,10,,,71,124
778368,note_on,,,,,128,0,14,,,,12,,,48,0
778368,note_on,,,,,0,0,13,,,,11,,,60,0
778368,note_on,,,,,128,0,13,,,,11,,,63,0
778368,note_on,,,,,0,0,14,,,,12,,,60,0
778400,note_on,,,,,0,0,14,,,,12,,,48,92
778400,note_on,,,,,32,0,14,,,,12,,,60,92
778400,note_on,,,,,32,0,13,,,,11,,,60,92
778400,note_on,,,,,0,0,13,,,,11,,,63,92
778464,note_on,,,,,864,0,6,,,,3,,,54,0
778464,note_on,,,,,0,0,6,,,,3,,,42,0
778464,note_on,,,,,864,0,15,,,,13,,,54,0
778464,note_on,,,,,864,0,16,,,,14,,,42,0
778528,note_on,,,,,0,0,13,,,,11,,,60,0
778528,note_on,,,,,128,0,14,,,,12,,,48,0
778528,note_on,,,,,0,0,14,,,,12,,,60,0
778528,note_on,,,,,128,0,13,,,,11,,,63,0
778536,note_on,,,,,216,0,12,,,,10,,,71,0
778560,note_on,,,,,32,0,13,,,,11,,,57,92
778560,note_on,,,,,96,0,15,,,,13,,,42,116
778560,note_on,,,,,32,0,14,,,,12,,,60,92
778560,note_on,,,,,96,0,6,,,,3,,,42,105
778560,note_on,,,,,0,0,14,,,,12,,,51,92
778560,note_on,,,,,24,0,12,,,,10,,,72,124
778560,note_on,,,,,96,0,16,,,,14,,,30,116
778688,note_on,,,,,128,0,14,,,,12,,,51,0
778688,note_on,,,,,0,0,14,,,,12,,,60,0
778688,note_on,,,,,128,0,13,,,,11,,,57,0
778720,note_on,,,,,0,0,14,,,,12,,,60,92
778720,note_on,,,,,32,0,13,,,,11,,,57,92
778720,note_on,,,,,32,0,14,,,,12,,,51,92
778776,note_on,,,,,216,0,12,,,,10,,,72,0
778800,note_on,,,,,24,0,12,,,,10,,,69,124
778848,note_on,,,,,128,0,13,,,,11,,,57,0
778848,note_on,,,,,0,0,14,,,,12,,,51,0
778848,note_on,,,,,128,0,14,,,,12,,,60,0
778880,note_on,,,,,0,0,14,,,,12,,,51,92
778880,note_on,,,,,32,0,13,,,,11,,,57,92
778880,note_on,,,,,32,0,14,,,,12,,,60,92
778944,note_on,,,,,864,0,9,,,,5,,,60,0
778944,note_on,,,,,0,0,9,,,,5,,,63,0
778944,note_on,,,,,0,0,8,,,,4,,,63,0
778944,note_on,,,,,864,0,8,,,,4,,,69,0
779008,note_on,,,,,128,0,13,,,,11,,,57,0
779008,note_on,,,,,128,0,14,,,,12,,,51,0
779008,note_on,,,,,0,0,14,,,,12,,,60,0
779016,note_on,,,,,216,0,12,,,,10,,,69,0
779040,note_on,,,,,32,0,14,,,,12,,,60,92
779040,note_on,,,,,96,0,9,,,,5,,,63,116
779040,note_on,,,,,0,0,8,,,,4,,,63,116
779040,note_on,,,,,96,0,8,,,,4,,,69,116
779040,note_on,,,,,0,0,14,,,,12,,,51,92
779040,note_on,,,,,0,0,9,,,,5,,,60,116
779040,note_on,,,,,24,0,12,,,,10,,,63,124
779040,note_on,,,,,32,0,13,,,,11,,,57,92
779168,note_on,,,,,0,0,14,,,,12,,,60,0
779168,note_on,,,,,128,0,13,,,,11,,,57,0
779168,note_on,,,,,128,0,14,,,,12,,,51,0
779200,note_on,,,,,0,0,14,,,,12,,,60,92
779200,note_on,,,,,32,0,14,,,,12,,,51,92
779200,note_on,,,,,32,0,13,,,,11,,,57,92
779256,note_on,,,,,216,0,12,,,,10,,,63,0
779280,note_on,,,,,24,0,12,,,,10,,,62,124
779328,note_on,,,,,128,0,14,,,,12,,,60,0
779328,note_on,,,,,0,0,14,,,,12,,,51,0
779328,note_on,,,,,288,0,9,,,,5,,,60,0
779328,note_on,,,,,288,0,8,,,,4,,,63,0
779328,note_on,,,,,0,0,8,,,,4,,,69,0
779328,note_on,,,,,0,0,9,,,,5,,,63,0
779328,note_on,,,,,128,0,13,,,,11,,,57,0
779360,note_on,,,,,0,0,14,,,,12,,,60,92
779360,note_on,,,,,32,0,14,,,,12,,,51,92
779360,note_on,,,,,32,0,13,,,,11,,,57,92
779424,note_on,,,,,864,0,15,,,,13,,,42,0
779424,note_on,,,,,864,0,6,,,,3,,,42,0
779424,note_on,,,,,1824,0,4,,,,2,,,63,0
779424,note_on,,,,,0,0,4,,,,2,,,69,0
779424,note_on,,,,,1824,0,1,,,,0,,,75,0
779424,note_on,,,,,0,0,3,,,,1,,,63,0
779424,note_on,,,,,1824,0,3,,,,1,,,69,0
779424,note_on,,,,,0,0,1,,,,0,,,81,0
779424,note_on,,,,,864,0,16,,,,14,,,30,0
779488,note_on,,,,,128,0,14,,,,12,,,60,0
779488,note_on,,,,,0,0,14,,,,12,,,51,0
779488,note_on,,,,,128,0,13,,,,11,,,57,0
779496,note_on,,,,,216,0,12,,,,10,,,62,0
779520,note_on,,,,,192,0,8,,,,4,,,67,105
779520,note_on,,,,,0,0,8,,,,4,,,64,105
779520,note_on,,,,,96,0,4,,,,2,,,72,105
779520,note_on,,,,,0,0,9,,,,5,,,64,116
779520,note_on,,,,,96,0,1,,,,0,,,79,105
779520,note_on,,,,,0,0,1,,,,0,,,76,105
779520,note_on,,,,,96,0,6,,,,3,,,43,105
779520,note_on,,,,,96,0,16,,,,14,,,31,116
779520,note_on,,,,,0,0,3,,,,1,,,64,105
779520,note_on,,,,,32,0,13,,,,11,,,60,116
779520,note_on,,,,,192,0,9,,,,5,,,60,116
779520,note_on,,,,,96,0,15,,,,13,,,43,116
779520,set_tempo,,,,,7680,1,0,400000,,,,,,,
779520,note_on,,,,,32,0,14,,,,12,,,60,105
779520,note_on,,,,,24,0,12,,,,10,,,60,116
779520,note_on,,,,,0,0,4,,,,2,,,64,105
779520,note_on,,,,,96,0,3,,,,1,,,72,105
779520,note_on,,,,,0,0,14,,,,12,,,52,105
779648,note_on,,,,,128,0,14,,,,12,,,52,0
779648,note_on,,,,,0,0,14,,,,12,,,60,0
779680,note_on,,,,,32,0,14,,,,12,,,60,105
779680,note_on,,,,,0,0,14,,,,12,,,52,105
779808,note_on,,,,,288,0,6,,,,3,,,43,0
779808,note_on,,,,,288,0,16,,,,14,,,31,0
779808,note_on,,,,,0,0,14,,,,12,,,60,0
779808,note_on,,,,,128,0,14,,,,12,,,52,0
779808,note_on,,,,,288,0,15,,,,13,,,43,0
779840,note_on,,,,,0,0,14,,,,12,,,52,105
779840,note_on,,,,,32,0,14,,,,12,,,60,105
779904,note_on,,,,,384,0,3,,,,1,,,64,0
779904,note_on,,,,,0,0,3,,,,1,,,72,0
779904,note_on,,,,,0,0,1,,,,0,,,79,0
779904,note_on,,,,,384,0,1,,,,0,,,76,0
779904,note_on,,,,,384,0,8,,,,4,,,64,0
779904,note_on,,,,,0,0,8,,,,4,,,67,0
779952,note_on,,,,,432,0,13,,,,11,,,60,0
779952,note_on,,,,,432,0,12,,,,10,,,60,0
779968,note_on,,,,,128,0,14,,,,12,,,52,0
779968,note_on,,,,,0,0,14,,,,12,,,60,0
780000,note_on,,,,,192,0,6,,,,3,,,55,125
780000,note_on,,,,,192,0,16,,,,14,,,43,127
780000,note_on,,,,,0,0,14,,,,12,,,60,105
780000,note_on,,,,,32,0,14,,,,12,,,52,105
780000,note_on,,,,,192,0,15,,,,13,,,55,127
780128,note_on,,,,,128,0,14,,,,12,,,60,0
780128,note_on,,,,,0,0,14,,,,12,,,52,0
780160,note_on,,,,,0,0,14,,,,12,,,52,105
780160,note_on,,,,,32,0,14,,,,12,,,60,105
780240,note_on,,,,,288,0,13,,,,11,,,64,116
780240,note_on,,,,,288,0,12,,,,10,,,64,116
780288,note_on,,,,,0,0,14,,,,12,,,60,0
780288,note_on,,,,,128,0,14,,,,12,,,52,0
780320,note_on,,,,,0,0,14,,,,12,,,60,105
780320,note_on,,,,,32,0,14,,,,12,,,52,105
780448,note_on,,,,,128,0,14,,,,12,,,60,0
780448,note_on,,,,,0,0,14,,,,12,,,52,0
780480,note_on,,,,,0,0,9,,,,5,,,62,116
780480,note_on,,,,,0,0,4,,,,2,,,72,0
780480,note_on,,,,,0,0,9,,,,5,,,60,0
780480,note_on,,,,,0,0,14,,,,12,,,53,105
780480,note_on,,,,,0,0,12,,,,10,,,59,116
780480,note_on,,,,,240,0,12,,,,10,,,64,0
780480,note_on,,,,,0,0,4,,,,2,,,65,105
780480,note_on,,,,,0,0,4,,,,2,,,71,105
780480,note_on,,,,,32,0,14,,,,12,,,62,105
780480,note_on,,,,,0,0,9,,,,5,,,65,116
780480,note_on,,,,,960,0,4,,,,2,,,64,0
780480,note_on,,,,,240,0,13,,,,11,,,64,0
780480,note_on,,,,,0,0,13,,,,11,,,59,116
780480,note_on,,,,,960,0,9,,,,5,,,64,0
780608,note_on,,,,,128,0,14,,,,12,,,53,0
780608,note_on,,,,,0,0,14,,,,12,,,62,0
780640,note_on,,,,,0,0,14,,,,12,,,53,105
780640,note_on,,,,,32,0,14,,,,12,,,62,105
780768,note_on,,,,,768,0,16,,,,14,,,43,0
780768,note_on,,,,,0,0,14,,,,12,,,62,0
780768,note_on,,,,,768,0,15,,,,13,,,55,0
780768,note_on,,,,,768,0,6,,,,3,,,55,0
780768,note_on,,,,,128,0,14,,,,12,,,53,0
780800,note_on,,,,,32,0,14,,,,12,,,62,105
780800,note_on,,,,,0,0,14,,,,12,,,53,105
780864,note_on,,,,,0,0,9,,,,5,,,65,0
780864,note_on,,,,,384,0,9,,,,5,,,62,0
780864,note_on,,,,,0,0,4,,,,2,,,71,0
780864,note_on,,,,,384,0,4,,,,2,,,65,0
780912,note_on,,,,,432,0,12,,,,10,,,59,0
780912,note_on,,,,,432,0,13,,,,11,,,59,0
780928,note_on,,,,,128,0,14,,,,12,,,53,0
780928,note_on,,,,,0,0,14,,,,12,,,62,0
780960,note_on,,,,,192,0,6,,,,3,,,44,105
780960,note_on,,,,,192,0,16,,,,14,,,32,116
780960,note_on,,,,,32,0,14,,,,12,,,53,105
780960,note_on,,,,,0,0,14,,,,12,,,62,105
780960,note_on,,,,,192,0,15,,,,13,,,44,116
781088,note_on,,,,,0,0,14,,,,12,,,53,0
781088,note_on,,,,,128,0,14,,,,12,,,62,0
781120,note_on,,,,,32,0,14,,,,12,,,62,105
781120,note_on,,,,,0,0,14,,,,12,,,53,105
781200,note_on,,,,,288,0,13,,,,11,,,61,116
781200,note_on,,,,,288,0,12,,,,10,,,61,116
781248,note_on,,,,,0,0,14,,,,12,,,62,0
781248,note_on,,,,,288,0,15,,,,13,,,44,0
781248,note_on,,,,,288,0,6,,,,3,,,44,0
781248,note_on,,,,,288,0,16,,,,14,,,32,0
781248,note_on,,,,,128,0,14,,,,12,,,53,0
781280,note_on,,,,,0,0,14,,,,12,,,53,105
781280,note_on,,,,,32,0,14,,,,12,,,62,105
781408,note_on,,,,,128,0,14,,,,12,,,53,0
781408,note_on,,,,,0,0,14,,,,12,,,62,0
781440,note_on,,,,,32,0,14,,,,12,,,62,105
781440,note_on,,,,,0,0,9,,,,5,,,62,116
781440,note_on,,,,,240,0,12,,,,10,,,61,0
781440,note_on,,,,,0,0,4,,,,2,,,65,105
781440,note_on,,,,,0,0,14,,,,12,,,53,105
781440,note_on,,,,,192,0,15,,,,13,,,45,116
781440,note_on,,,,,240,0,13,,,,11,,,61,0
781440,note_on,,,,,0,0,13,,,,11,,,62,116
781440,note_on,,,,,576,0,4,,,,2,,,74,105
781440,note_on,,,,,192,0,6,,,,3,,,45,105
781440,note_on,,,,,576,0,9,,,,5,,,65,116
781440,note_on,,,,,192,0,16,,,,14,,,33,116
781440,note_on,,,,,0,0,12,,,,10,,,62,116
781568,note_on,,,,,0,0,14,,,,12,,,62,0
781568,note_on,,,,,128,0,14,,,,12,,,53,0
781600,note_on,,,,,0,0,14,,,,12,,,53,105
781600,note_on,,,,,32,0,14,,,,12,,,62,105
781728,note_on,,,,,288,0,16,,,,14,,,33,0
781728,note_on,,,,,0,0,14,,,,12,,,62,0
781728,note_on,,,,,128,0,14,,,,12,,,53,0
781728,note_on,,,,,288,0,15,,,,13,,,45,0
781728,note_on,,,,,288,0,6,,,,3,,,45,0
781760,note_on,,,,,0,0,14,,,,12,,,53,105
781760,note_on,,,,,32,0,14,,,,12,,,62,105
781872,note_on,,,,,432,0,13,,,,11,,,62,0
781872,note_on,,,,,432,0,12,,,,10,,,62,0
781888,note_on,,,,,0,0,14,,,,12,,,62,0
781888,note_on,,,,,128,0,14,,,,12,,,53,0
781920,note_on,,,,,192,0,15,,,,13,,,57,127
781920,note_on,,,,,32,0,14,,,,12,,,53,105
781920,note_on,,,,,0,0,14,,,,12,,,62,105
781920,note_on,,,,,192,0,6,,,,3,,,57,125
781920,note_on,,,,,192,0,16,,,,14,,,45,127
782048,note_on,,,,,128,0,14,,,,12,,,62,0
782048,note_on,,,,,0,0,14,,,,12,,,53,0
782080,note_on,,,,,32,0,14,,,,12,,,62,105
782080,note_on,,,,,0,0,14,,,,12,,,53,105
782160,note_on,,,,,288,0,13,,,,11,,,65,116
782160,note_on,,,,,288,0,12,,,,10,,,65,116
782208,note_on,,,,,0,0,14,,,,12,,,62,0
782208,note_on,,,,,128,0,14,,,,12,,,53,0
782240,note_on,,,,,0,0,14,,,,12,,,62,105
782240,note_on,,,,,32,0,14,,,,12,,,53,105
782368,note_on,,,,,128,0,14,,,,12,,,62,0
782368,note_on,,,,,0,0,14,,,,12,,,53,0
782400,note_on,,,,,0,0,12,,,,10,,,61,116
782400,note_on,,,,,0,0,4,,,,2,,,67,105
782400,note_on,,,,,240,0,13,,,,11,,,65,0
782400,note_on,,,,,0,0,14,,,,12,,,55,105
782400,note_on,,,,,0,0,13,,,,11,,,61,116
782400,note_on,,,,,960,0,9,,,,5,,,62,0
782400,note_on,,,,,0,0,9,,,,5,,,65,0
782400,note_on,,,,,32,0,14,,,,12,,,64,105
782400,note_on,,,,,0,0,4,,,,2,,,74,0
782400,note_on,,,,,0,0,4,,,,2,,,73,105
782400,note_on,,,,,0,0,9,,,,5,,,64,116
782400,note_on,,,,,0,0,9,,,,5,,,67,116
782400,note_on,,,,,960,0,4,,,,2,,,65,0
782400,note_on,,,,,240,0,12,,,,10,,,65,0
782528,note_on,,,,,128,0,14,,,,12,,,55,0
782528,note_on,,,,,0,0,14,,,,12,,,64,0
782560,note_on,,,,,32,0,14,,,,12,,,55,105
782560,note_on,,,,,0,0,14,,,,12,,,64,105
782688,note_on,,,,,768,0,6,,,,3,,,57,0
782688,note_on,,,,,768,0,16,,,,14,,,45,0
782688,note_on,,,,,768,0,15,,,,13,,,57,0
782688,note_on,,,,,128,0,14,,,,12,,,64,0
782688,note_on,,,,,0,0,14,,,,12,,,55,0
782720,note_on,,,,,32,0,14,,,,12,,,64,105
782720,note_on,,,,,0,0,14,,,,12,,,55,105
782784,note_on,,,,,0,0,9,,,,5,,,64,0
782784,note_on,,,,,384,0,9,,,,5,,,67,0
782784,note_on,,,,,0,0,4,,,,2,,,67,0
782784,note_on,,,,,384,0,4,,,,2,,,73,0
782832,note_on,,,,,432,0,12,,,,10,,,61,0
782832,note_on,,,,,432,0,13,,,,11,,,61,0
782848,note_on,,,,,128,0,14,,,,12,,,55,0
782848,note_on,,,,,0,0,14,,,,12,,,64,0
782880,note_on,,,,,32,0,14,,,,12,,,55,105
782880,note_on,,,,,192,0,16,,,,14,,,34,116
782880,note_on,,,,,192,0,15,,,,13,,,46,116
782880,note_on,,,,,192,0,6,,,,3,,,46,105
782880,note_on,,,,,0,0,14,,,,12,,,64,105
783008,note_on,,,,,128,0,14,,,,12,,,64,0
783008,note_on,,,,,0,0,14,,,,12,,,55,0
783040,note_on,,,,,32,0,14,,,,12,,,64,105
783040,note_on,,,,,0,0,14,,,,12,,,55,105
783120,note_on,,,,,288,0,13,,,,11,,,63,116
783120,note_on,,,,,288,0,12,,,,10,,,63,116
783168,note_on,,,,,288,0,16,,,,14,,,34,0
783168,note_on,,,,,288,0,15,,,,13,,,46,0
783168,note_on,,,,,0,0,14,,,,12,,,64,0
783168,note_on,,,,,128,0,14,,,,12,,,55,0
783168,note_on,,,,,288,0,6,,,,3,,,46,0
783200,note_on,,,,,32,0,14,,,,12,,,64,105
783200,note_on,,,,,0,0,14,,,,12,,,55,105
783328,note_on,,,,,128,0,14,,,,12,,,55,0
783328,note_on,,,,,0,0,14,,,,12,,,64,0
783360,note_on,,,,,0,0,4,,,,2,,,67,105
783360,note_on,,,,,0,0,13,,,,11,,,64,116
783360,note_on,,,,,576,0,9,,,,5,,,64,116
783360,note_on,,,,,0,0,9,,,,5,,,55,116
783360,note_on,,,,,192,0,16,,,,14,,,35,116
783360,note_on,,,,,192,0,6,,,,3,,,47,105
783360,note_on,,,,,576,0,4,,,,2,,,76,105
783360,note_on,,,,,240,0,13,,,,11,,,63,0
783360,note_on,,,,,0,0,14,,,,12,,,55,105
783360,note_on,,,,,32,0,14,,,,12,,,64,105
783360,note_on,,,,,192,0,15,,,,13,,,47,116
783360,note_on,,,,,240,0,12,,,,10,,,63,0
783360,note_on,,,,,0,0,12,,,,10,,,64,116
783488,note_on,,,,,128,0,14,,,,12,,,55,0
783488,note_on,,,,,0,0,14,,,,12,,,64,0
783520,note_on,,,,,32,0,14,,,,12,,,55,105
783520,note_on,,,,,0,0,14,,,,12,,,64,105
783576,note_on,,,,,216,0,12,,,,10,,,64,0
783576,note_on,,,,,216,0,13,,,,11,,,64,0
783600,note_on,,,,,24,0,13,,,,11,,,67,116
783600,note_on,,,,,24,0,12,,,,10,,,67,116
783648,note_on,,,,,128,0,14,,,,12,,,64,0
783648,note_on,,,,,0,0,14,,,,12,,,55,0
783680,note_on,,,,,32,0,14,,,,12,,,64,105
783680,note_on,,,,,0,0,14,,,,12,,,55,105
783792,note_on,,,,,432,0,15,,,,13,,,47,0
783792,note_on,,,,,432,0,16,,,,14,,,35,0
783792,note_on,,,,,432,0,6,,,,3,,,47,0
783808,note_on,,,,,128,0,14,,,,12,,,55,0
783808,note_on,,,,,0,0,14,,,,12,,,64,0
783840,note_on,,,,,48,0,15,,,,13,,,48,116
783840,note_on,,,,,48,0,16,,,,14,,,36,116
783840,note_on,,,,,48,0,6,,,,3,,,48,105
783840,note_on,,,,,0,0,13,,,,11,,,63,116
783840,note_on,,,,,240,0,13,,,,11,,,67,0
783840,note_on,,,,,0,0,9,,,,5,,,64,0
783840,note_on,,,,,0,0,12,,,,10,,,63,116
783840,note_on,,,,,0,0,14,,,,12,,,63,105
783840,note_on,,,,,32,0,14,,,,12,,,57,105
783840,note_on,,,,,480,0,9,,,,5,,,55,0
783840,note_on,,,,,0,0,9,,,,5,,,63,116
783840,note_on,,,,,0,0,9,,,,5,,,57,116
783840,note_on,,,,,0,0,4,,,,2,,,66,105
783840,note_on,,,,,0,0,4,,,,2,,,75,105
783840,note_on,,,,,240,0,12,,,,10,,,67,0
783840,note_on,,,,,480,0,4,,,,2,,,67,0
783840,note_on,,,,,0,0,4,,,,2,,,76,0
783968,note_on,,,,,0,0,14,,,,12,,,57,0
783968,note_on,,,,,128,0,14,,,,12,,,63,0
784000,note_on,,,,,0,0,14,,,,12,,,57,105
784000,note_on,,,,,32,0,14,,,,12,,,63,105
784056,note_on,,,,,216,0,13,,,,11,,,63,0
784056,note_on,,,,,216,0,12,,,,10,,,63,0
784080,note_on,,,,,24,0,13,,,,11,,,66,116
784080,note_on,,,,,24,0,12,,,,10,,,66,116
784128,note_on,,,,,0,0,14,,,,12,,,63,0
784128,note_on,,,,,128,0,14,,,,12,,,57,0
784160,note_on,,,,,32,0,14,,,,12,,,63,105
784160,note_on,,,,,0,0,14,,,,12,,,57,105
784224,note_on,,,,,384,0,9,,,,5,,,57,0
784224,note_on,,,,,384,0,4,,,,2,,,66,0
784224,note_on,,,,,0,0,4,,,,2,,,75,0
784224,note_on,,,,,0,0,9,,,,5,,,63,0
784272,note_on,,,,,432,0,15,,,,13,,,48,0
784272,note_on,,,,,432,0,16,,,,14,,,36,0
784272,note_on,,,,,432,0,6,,,,3,,,48,0
784288,note_on,,,,,128,0,14,,,,12,,,57,0
784288,note_on,,,,,0,0,14,,,,12,,,63,0
784320,note_on,,,,,240,0,12,,,,10,,,66,0
784320,note_on,,,,,0,0,12,,,,10,,,64,116
784320,note_on,,,,,0,0,13,,,,11,,,64,116
784320,note_on,,,,,240,0,13,,,,11,,,66,0
784320,note_on,,,,,48,0,15,,,,13,,,47,116
784320,note_on,,,,,96,0,4,,,,2,,,76,105
784320,note_on,,,,,0,0,4,,,,2,,,67,105
784320,note_on,,,,,96,0,9,,,,5,,,64,116
784320,note_on,,,,,0,0,14,,,,12,,,55,105
784320,note_on,,,,,48,0,16,,,,14,,,35,116
784320,note_on,,,,,32,0,14,,,,12,,,64,105
784320,note_on,,,,,0,0,9,,,,5,,,55,116
784320,note_on,,,,,48,0,6,,,,3,,,47,105
784448,note_on,,,,,0,0,14,,,,12,,,64,0
784448,note_on,,,,,128,0,14,,,,12,,,55,0
784480,note_on,,,,,32,0,14,,,,12,,,55,105
784480,note_on,,,,,0,0,14,,,,12,,,64,105
784536,note_on,,,,,216,0,12,,,,10,,,64,0
784536,note_on,,,,,216,0,13,,,,11,,,64,0
784560,note_on,,,,,24,0,12,,,,10,,,67,116
784560,note_on,,,,,24,0,13,,,,11,,,67,116
784608,note_on,,,,,0,0,14,,,,12,,,55,0
784608,note_on,,,,,128,0,14,,,,12,,,64,0
784640,note_on,,,,,32,0,14,,,,12,,,64,105
784640,note_on,,,,,0,0,14,,,,12,,,55,105
784752,note_on,,,,,432,0,6,,,,3,,,47,0
784752,note_on,,,,,432,0,15,,,,13,,,47,0
784752,note_on,,,,,432,0,16,,,,14,,,35,0
784768,note_on,,,,,128,0,14,,,,12,,,55,0
784768,note_on,,,,,0,0,14,,,,12,,,64,0
784800,note_on,,,,,240,0,13,,,,11,,,67,0
784800,note_on,,,,,0,0,4,,,,2,,,75,105
784800,note_on,,,,,0,0,4,,,,2,,,66,105
784800,note_on,,,,,0,0,4,,,,2,,,76,0
784800,note_on,,,,,480,0,4,,,,2,,,67,0
784800,note_on,,,,,0,0,13,,,,11,,,63,116
784800,note_on,,,,,32,0,14,,,,12,,,57,105
784800,note_on,,,,,0,0,14,,,,12,,,63,105
784800,note_on,,,,,0,0,9,,,,5,,,60,116
784800,note_on,,,,,240,0,12,,,,10,,,67,0
784800,note_on,,,,,0,0,12,,,,10,,,63,116
784800,note_on,,,,,48,0,6,,,,3,,,45,105
784800,note_on,,,,,48,0,15,,,,13,,,45,116
784800,note_on,,,,,48,0,16,,,,14,,,33,116
784800,note_on,,,,,480,0,9,,,,5,,,55,0
784800,note_on,,,,,0,0,9,,,,5,,,64,0
784800,note_on,,,,,0,0,9,,,,5,,,63,116
784928,note_on,,,,,128,0,14,,,,12,,,63,0
784928,note_on,,,,,0,0,14,,,,12,,,57,0
784960,note_on,,,,,0,0,14,,,,12,,,57,105
784960,note_on,,,,,32,0,14,,,,12,,,63,105
785016,note_on,,,,,216,0,13,,,,11,,,63,0
785016,note_on,,,,,216,0,12,,,,10,,,63,0
785040,note_on,,,,,24,0,13,,,,11,,,66,116
785040,note_on,,,,,24,0,12,,,,10,,,66,116
785088,note_on,,,,,128,0,14,,,,12,,,57,0
785088,note_on,,,,,0,0,14,,,,12,,,63,0
785120,note_on,,,,,0,0,14,,,,12,,,57,105
785120,note_on,,,,,32,0,14,,,,12,,,63,105
785184,note_on,,,,,384,0,4,,,,2,,,75,0
785184,note_on,,,,,0,0,4,,,,2,,,66,0
785184,note_on,,,,,0,0,9,,,,5,,,60,0
785184,note_on,,,,,384,0,9,,,,5,,,63,0
785232,note_on,,,,,432,0,16,,,,14,,,33,0
785232,note_on,,,,,432,0,6,,,,3,,,45,0
785232,note_on,,,,,432,0,15,,,,13,,,45,0
785248,note_on,,,,,0,0,14,,,,12,,,63,0
785248,note_on,,,,,128,0,14,,,,12,,,57,0
785280,note_on,,,,,0,0,9,,,,5,,,60,116
785280,note_on,,,,,0,0,13,,,,11,,,64,116
785280,note_on,,,,,96,0,4,,,,2,,,76,105
785280,note_on,,,,,0,0,4,,,,2,,,67,105
785280,note_on,,,,,240,0,12,,,,10,,,66,0
785280,note_on,,,,,0,0,12,,,,10,,,64,116
785280,note_on,,,,,0,0,12,,,,10,,,72,116
785280,note_on,,,,,96,0,9,,,,5,,,64,116
785280,note_on,,,,,240,0,13,,,,11,,,66,0
785280,note_on,,,,,0,0,14,,,,12,,,60,105
785280,note_on,,,,,32,0,14,,,,12,,,64,105
785280,note_on,,,,,48,0,6,,,,3,,,43,105
785280,note_on,,,,,48,0,16,,,,14,,,31,116
785280,note_on,,,,,48,0,15,,,,13,,,43,116
785280,note_on,,,,,0,0,13,,,,11,,,72,116
785408,note_on,,,,,0,0,14,,,,12,,,64,0
785408,note_on,,,,,128,0,14,,,,12,,,60,0
785440,note_on,,,,,32,0,14,,,,12,,,60,105
785440,note_on,,,,,0,0,14,,,,12,,,64,105
785496,note_on,,,,,0,0,12,,,,10,,,64,0
785496,note_on,,,,,216,0,12,,,,10,,,72,0
785496,note_on,,,,,0,0,13,,,,11,,,64,0
785496,note_on,,,,,216,0,13,,,,11,,,72,0
785520,note_on,,,,,24,0,12,,,,10,,,76,116
785520,note_on,,,,,24,0,13,,,,11,,,76,116
785568,note_on,,,,,0,0,14,,,,12,,,60,0
785568,note_on,,,,,128,0,14,,,,12,,,64,0
785600,note_on,,,,,0,0,14,,,,12,,,60,105
785600,note_on,,,,,32,0,14,,,,12,,,64,105
785712,note_on,,,,,432,0,6,,,,3,,,43,0
785712,note_on,,,,,432,0,16,,,,14,,,31,0
785712,note_on,,,,,432,0,15,,,,13,,,43,0
785728,note_on,,,,,0,0,14,,,,12,,,64,0
785728,note_on,,,,,128,0,14,,,,12,,,60,0
785760,note_on,,,,,32,0,14,,,,12,,,62,105
785760,note_on,,,,,0,0,4,,,,2,,,74,105
785760,note_on,,,,,0,0,4,,,,2,,,76,0
785760,note_on,,,,,480,0,4,,,,2,,,67,0
785760,note_on,,,,,0,0,13,,,,11,,,71,116
785760,note_on,,,,,240,0,12,,,,10,,,76,0
785760,note_on,,,,,0,0,14,,,,12,,,65,105
785760,note_on,,,,,48,0,15,,,,13,,,44,116
785760,note_on,,,,,48,0,6,,,,3,,,44,105
785760,note_on,,,,,480,0,9,,,,5,,,60,0
785760,note_on,,,,,0,0,9,,,,5,,,64,0
785760,note_on,,,,,0,0,9,,,,5,,,59,116
785760,note_on,,,,,0,0,9,,,,5,,,62,116
785760,note_on,,,,,48,0,16,,,,14,,,32,116
785760,note_on,,,,,240,0,13,,,,11,,,76,0
785760,note_on,,,,,0,0,12,,,,10,,,71,116
785760,note_on,,,,,0,0,4,,,,2,,,71,105
785888,note_on,,,,,0,0,14,,,,12,,,62,0
785888,note_on,,,,,128,0,14,,,,12,,,65,0
785920,note_on,,,,,0,0,14,,,,12,,,62,105
785920,note_on,,,,,32,0,14,,,,12,,,65,105
785976,note_on,,,,,216,0,12,,,,10,,,71,0
785976,note_on,,,,,216,0,13,,,,11,,,71,0
786000,note_on,,,,,24,0,13,,,,11,,,74,116
786000,note_on,,,,,24,0,12,,,,10,,,74,116
786048,note_on,,,,,0,0,14,,,,12,,,65,0
786048,note_on,,,,,128,0,14,,,,12,,,62,0
786080,note_on,,,,,0,0,14,,,,12,,,62,105
786080,note_on,,,,,32,0,14,,,,12,,,65,105
786144,note_on,,,,,384,0,4,,,,2,,,71,0
786144,note_on,,,,,384,0,9,,,,5,,,62,0
786144,note_on,,,,,0,0,9,,,,5,,,59,0
786144,note_on,,,,,0,0,4,,,,2,,,74,0
786192,note_on,,,,,432,0,15,,,,13,,,44,0
786192,note_on,,,,,432,0,6,,,,3,,,44,0
786192,note_on,,,,,432,0,16,,,,14,,,32,0
786208,note_on,,,,,0,0,14,,,,12,,,65,0
786208,note_on,,,,,128,0,14,,,,12,,,62,0
786240,note_on,,,,,240,0,13,,,,11,,,74,0
786240,note_on,,,,,48,0,15,,,,13,,,43,116
786240,note_on,,,,,0,0,9,,,,5,,,64,116
786240,note_on,,,,,240,0,12,,,,10,,,74,0
786240,note_on,,,,,96,0,9,,,,5,,,60,116
786240,note_on,,,,,32,0,14,,,,12,,,67,105
786240,note_on,,,,,0,0,14,,,,12,,,64,105
786240,note_on,,,,,0,0,13,,,,11,,,72,116
786240,note_on,,,,,96,0,4,,,,2,,,72,105
786240,note_on,,,,,0,0,4,,,,2,,,76,105
786240,note_on,,,,,48,0,16,,,,14,,,31,116
786240,note_on,,,,,0,0,12,,,,10,,,72,116
786240,note_on,,,,,48,0,6,,,,3,,,43,105
786368,note_on,,,,,128,0,14,,,,12,,,64,0
786368,note_on,,,,,0,0,14,,,,12,,,67,0
786400,note_on,,,,,32,0,14,,,,12,,,67,105
786400,note_on,,,,,0,0,14,,,,12,,,64,105
786456,note_on,,,,,216,0,12,,,,10,,,72,0
786456,note_on,,,,,216,0,13,,,,11,,,72,0
786480,note_on,,,,,24,0,12,,,,10,,,76,116
786480,note_on,,,,,24,0,13,,,,11,,,76,116
786528,note_on,,,,,128,0,14,,,,12,,,64,0
786528,note_on,,,,,0,0,14,,,,12,,,67,0
786560,note_on,,,,,32,0,14,,,,12,,,67,105
786560,note_on,,,,,0,0,14,,,,12,,,64,105
786672,note_on,,,,,432,0,16,,,,14,,,31,0
786672,note_on,,,,,432,0,15,,,,13,,,43,0
786672,note_on,,,,,432,0,6,,,,3,,,43,0
786688,note_on,,,,,128,0,14,,,,12,,,64,0
786688,note_on,,,,,0,0,14,,,,12,,,67,0
786720,note_on,,,,,480,0,9,,,,5,,,64,0
786720,note_on,,,,,0,0,4,,,,2,,,74,105
786720,note_on,,,,,0,0,4,,,,2,,,71,105
786720,note_on,,,,,240,0,13,,,,11,,,76,0
786720,note_on,,,,,0,0,4,,,,2,,,72,0
786720,note_on,,,,,480,0,4,,,,2,,,76,0
786720,note_on,,,,,48,0,15,,,,13,,,41,116
786720,note_on,,,,,0,0,9,,,,5,,,62,116
786720,note_on,,,,,48,0,6,,,,3,,,41,105
786720,note_on,,,,,0,0,14,,,,12,,,68,105
786720,note_on,,,,,0,0,9,,,,5,,,59,116
786720,note_on,,,,,32,0,14,,,,12,,,59,105
786720,note_on,,,,,48,0,16,,,,14,,,29,116
786720,note_on,,,,,0,0,13,,,,11,,,71,116
786720,note_on,,,,,0,0,12,,,,10,,,71,116
786720,note_on,,,,,240,0,12,,,,10,,,76,0
786720,note_on,,,,,0,0,9,,,,5,,,60,0
786848,note_on,,,,,128,0,14,,,,12,,,68,0
786848,note_on,,,,,0,0,14,,,,12,,,59,0
786880,note_on,,,,,0,0,14,,,,12,,,59,105
786880,note_on,,,,,32,0,14,,,,12,,,68,105
786936,note_on,,,,,216,0,13,,,,11,,,71,0
786936,note_on,,,,,216,0,12,,,,10,,,71,0
786960,note_on,,,,,24,0,12,,,,10,,,74,116
786960,note_on,,,,,24,0,13,,,,11,,,74,116
787008,note_on,,,,,0,0,14,,,,12,,,68,0
787008,note_on,,,,,128,0,14,,,,12,,,59,0
787040,note_on,,,,,32,0,14,,,,12,,,68,105
787040,note_on,,,,,0,0,14,,,,12,,,59,105
787104,note_on,,,,,384,0,4,,,,2,,,74,0
787104,note_on,,,,,0,0,4,,,,2,,,71,0
787104,note_on,,,,,0,0,9,,,,5,,,59,0
787104,note_on,,,,,384,0,9,,,,5,,,62,0
787152,note_on,,,,,432,0,16,,,,14,,,29,0
787152,note_on,,,,,432,0,15,,,,13,,,41,0
787152,note_on,,,,,432,0,6,,,,3,,,41,0
787168,note_on,,,,,128,0,14,,,,12,,,59,0
787168,note_on,,,,,0,0,14,,,,12,,,68,0
787200,note_on,,,,,7296,0,1,,,,0,,,76,105
787200,note_on,,,,,0,0,1,,,,0,,,84,105
787200,note_on,,,,,32,0,14,,,,12,,,67,105
787200,note_on,,,,,0,0,14,,,,12,,,64,105
787200,note_on,,,,,96,0,4,,,,2,,,72,105
787200,note_on,,,,,0,0,12,,,,10,,,84,116
787200,note_on,,,,,240,0,12,,,,10,,,74,0
787200,note_on,,,,,48,0,6,,,,3,,,40,105
787200,note_on,,,,,0,0,13,,,,11,,,72,116
787200,note_on,,,,,0,0,3,,,,1,,,72,105
787200,note_on,,,,,240,0,13,,,,11,,,74,0
787200,note_on,,,,,48,0,16,,,,14,,,28,116
787200,note_on,,,,,48,0,15,,,,13,,,40,116
787200,note_on,,,,,7296,0,3,,,,1,,,64,105
787200,note_on,,,,,7296,0,8,,,,4,,,64,105
787200,note_on,,,,,0,0,8,,,,4,,,55,105
787200,note_on,,,,,0,0,9,,,,5,,,60,116
787200,note_on,,,,,96,0,9,,,,5,,,67,116
787216,set_tempo,,,,,7696,1,0,389610,,,,,,,
787328,note_on,,,,,0,0,14,,,,12,,,67,0
787328,note_on,,,,,128,0,14,,,,12,,,64,0
787360,note_on,,,,,32,0,14,,,,12,,,64,105
787360,note_on,,,,,0,0,14,,,,12,,,67,105
787416,note_on,,,,,216,0,6,,,,3,,,40,0
787416,note_on,,,,,216,0,15,,,,13,,,40,0
787416,note_on,,,,,216,0,16,,,,14,,,28,0
787440,note_on,,,,,24,0,6,,,,3,,,52,105
787440,note_on,,,,,24,0,16,,,,14,,,40,116
787440,note_on,,,,,24,0,15,,,,13,,,52,116
787488,note_on,,,,,0,0,14,,,,12,,,64,0
787488,note_on,,,,,128,0,14,,,,12,,,67,0
787520,note_on,,,,,0,0,14,,,,12,,,67,105
787520,note_on,,,,,32,0,14,,,,12,,,64,105
787584,note_on,,,,,384,0,4,,,,2,,,72,0
787632,note_on,,,,,432,0,13,,,,11,,,72,0
787632,note_on,,,,,432,0,12,,,,10,,,84,0
787648,note_on,,,,,0,0,14,,,,12,,,64,0
787648,note_on,,,,,128,0,14,,,,12,,,67,0
787680,note_on,,,,,0,0,6,,,,3,,,55,105
787680,note_on,,,,,240,0,6,,,,3,,,52,0
787680,note_on,,,,,240,0,15,,,,13,,,52,0
787680,note_on,,,,,240,0,16,,,,14,,,40,0
787680,note_on,,,,,32,0,14,,,,12,,,60,105
787680,note_on,,,,,0,0,15,,,,13,,,55,116
787680,note_on,,,,,0,0,14,,,,12,,,64,105
787680,note_on,,,,,0,0,16,,,,14,,,43,116
787808,note_on,,,,,128,0,14,,,,12,,,64,0
787808,note_on,,,,,0,0,14,,,,12,,,60,0
787840,note_on,,,,,32,0,14,,,,12,,,60,105
787840,note_on,,,,,0,0,14,,,,12,,,64,105
787920,note_on,,,,,288,0,12,,,,10,,,88,116
787920,note_on,,,,,288,0,13,,,,11,,,76,116
787968,note_on,,,,,128,0,14,,,,12,,,64,0
787968,note_on,,,,,0,0,14,,,,12,,,60,0
788000,note_on,,,,,0,0,14,,,,12,,,64,105
788000,note_on,,,,,32,0,14,,,,12,,,60,105
788128,note_on,,,,,128,0,14,,,,12,,,64,0
788128,note_on,,,,,0,0,14,,,,12,,,60,0
788160,note_on,,,,,0,0,13,,,,11,,,71,116
788160,note_on,,,,,0,0,1,,,,0,,,76,0
788160,note_on,,,,,960,0,3,,,,1,,,72,0
788160,note_on,,,,,0,0,1,,,,0,,,83,105
788160,note_on,,,,,240,0,13,,,,11,,,76,0
788160,note_on,,,,,960,0,1,,,,0,,,84,0
788160,note_on,,,,,0,0,1,,,,0,,,77,105
788160,note_on,,,,,0,0,3,,,,1,,,71,105
788160,note_on,,,,,0,0,9,,,,5,,,62,116
788160,note_on,,,,,960,0,8,,,,4,,,55,0
788160,note_on,,,,,0,0,8,,,,4,,,64,0
788160,note_on,,,,,0,0,8,,,,4,,,59,116
788160,note_on,,,,,0,0,8,,,,4,,,62,116
788160,note_on,,,,,0,0,9,,,,5,,,59,116
788160,note_on,,,,,0,0,9,,,,5,,,67,0
788160,note_on,,,,,0,0,14,,,,12,,,62,105
788160,note_on,,,,,0,0,3,,,,1,,,64,0
788160,note_on,,,,,240,0,12,,,,10,,,88,0
788160,note_on,,,,,0,0,12,,,,10,,,83,116
788160,note_on,,,,,32,0,14,,,,12,,,65,105
788160,note_on,,,,,0,0,3,,,,1,,,65,105
788160,note_on,,,,,960,0,9,,,,5,,,60,0
788288,note_on,,,,,0,0,14,,,,12,,,65,0
788288,note_on,,,,,128,0,14,,,,12,,,62,0
788320,note_on,,,,,32,0,14,,,,12,,,65,105
788320,note_on,,,,,0,0,14,,,,12,,,62,105
788328,note_on,,,,,648,0,6,,,,3,,,55,0
788328,note_on,,,,,648,0,16,,,,14,,,43,0
788328,note_on,,,,,648,0,15,,,,13,,,55,0
788400,note_on,,,,,72,0,15,,,,13,,,43,116
788400,note_on,,,,,72,0,6,,,,3,,,43,105
788400,note_on,,,,,72,0,16,,,,14,,,31,116
788448,note_on,,,,,0,0,14,,,,12,,,65,0
788448,note_on,,,,,128,0,14,,,,12,,,62,0
788480,note_on,,,,,32,0,14,,,,12,,,65,105
788480,note_on,,,,,0,0,14,,,,12,,,62,105
788544,note_on,,,,,0,0,8,,,,4,,,59,0
788544,note_on,,,,,0,0,3,,,,1,,,71,0
788544,note_on,,,,,384,0,3,,,,1,,,65,0
788544,note_on,,,,,384,0,8,,,,4,,,62,0
788544,note_on,,,,,0,0,9,,,,5,,,59,0
788544,note_on,,,,,384,0,9,,,,5,,,62,0
788544,note_on,,,,,384,0,1,,,,0,,,83,0
788544,note_on,,,,,0,0,1,,,,0,,,77,0
788592,note_on,,,,,432,0,12,,,,10,,,83,0
788592,note_on,,,,,432,0,13,,,,11,,,71,0
788608,note_on,,,,,128,0,14,,,,12,,,62,0
788608,note_on,,,,,0,0,14,,,,12,,,65,0
788640,note_on,,,,,1056,0,4,,,,2,,,73,105
788640,note_on,,,,,240,0,15,,,,13,,,43,0
788640,note_on,,,,,32,0,14,,,,12,,,73,105
788640,note_on,,,,,0,0,14,,,,12,,,64,105
788640,note_on,,,,,240,0,6,,,,3,,,43,0
788640,note_on,,,,,0,0,6,,,,3,,,44,105
788640,note_on,,,,,0,0,15,,,,13,,,44,116
788640,note_on,,,,,240,0,16,,,,14,,,31,0
788640,note_on,,,,,0,0,16,,,,14,,,32,116
788768,note_on,,,,,128,0,14,,,,12,,,64,0
788768,note_on,,,,,0,0,14,,,,12,,,73,0
788800,note_on,,,,,32,0,14,,,,12,,,73,105
788800,note_on,,,,,0,0,14,,,,12,,,64,105
788880,note_on,,,,,288,0,12,,,,10,,,85,116
788880,note_on,,,,,288,0,13,,,,11,,,73,116
788928,note_on,,,,,0,0,14,,,,12,,,73,0
788928,note_on,,,,,128,0,14,,,,12,,,64,0
788960,note_on,,,,,32,0,14,,,,12,,,64,105
788960,note_on,,,,,0,0,14,,,,12,,,73,105
789088,note_on,,,,,0,0,14,,,,12,,,64,0
789088,note_on,,,,,128,0,14,,,,12,,,73,0
789120,note_on,,,,,576,0,9,,,,5,,,65,116
789120,note_on,,,,,0,0,12,,,,10,,,86,116
789120,note_on,,,,,240,0,12,,,,10,,,85,0
789120,note_on,,,,,0,0,9,,,,5,,,57,116
789120,note_on,,,,,576,0,1,,,,0,,,77,105
789120,note_on,,,,,0,0,14,,,,12,,,65,105
789120,note_on,,,,,240,0,13,,,,11,,,73,0
789120,note_on,,,,,0,0,1,,,,0,,,86,105
789120,note_on,,,,,0,0,13,,,,11,,,74,116
789120,note_on,,,,,32,0,14,,,,12,,,74,105
789120,note_on,,,,,576,0,3,,,,1,,,65,105
789120,note_on,,,,,0,0,3,,,,1,,,74,105
789120,note_on,,,,,0,0,4,,,,2,,,74,105
789120,note_on,,,,,576,0,8,,,,4,,,69,116
789120,note_on,,,,,0,0,8,,,,4,,,62,116
789120,note_on,,,,,480,0,4,,,,2,,,73,0
789248,note_on,,,,,128,0,14,,,,12,,,65,0
789248,note_on,,,,,0,0,14,,,,12,,,74,0
789280,note_on,,,,,0,0,14,,,,12,,,65,105
789280,note_on,,,,,32,0,14,,,,12,,,74,105
789336,note_on,,,,,696,0,15,,,,13,,,44,0
789336,note_on,,,,,696,0,6,,,,3,,,44,0
789336,note_on,,,,,696,0,16,,,,14,,,32,0
789360,note_on,,,,,24,0,6,,,,3,,,56,105
789360,note_on,,,,,24,0,15,,,,13,,,56,116
789360,note_on,,,,,24,0,16,,,,14,,,44,116
789408,note_on,,,,,0,0,14,,,,12,,,74,0
789408,note_on,,,,,128,0,14,,,,12,,,65,0
789440,note_on,,,,,32,0,14,,,,12,,,74,105
789440,note_on,,,,,0,0,14,,,,12,,,65,105
789504,note_on,,,,,384,0,4,,,,2,,,74,0
789552,note_on,,,,,432,0,13,,,,11,,,74,0
789552,note_on,,,,,432,0,12,,,,10,,,86,0
789568,note_on,,,,,128,0,14,,,,12,,,65,0
789568,note_on,,,,,0,0,14,,,,12,,,74,0
789600,note_on,,,,,240,0,6,,,,3,,,56,0
789600,note_on,,,,,0,0,6,,,,3,,,57,105
789600,note_on,,,,,0,0,15,,,,13,,,57,116
789600,note_on,,,,,240,0,15,,,,13,,,56,0
789600,note_on,,,,,0,0,16,,,,14,,,45,116
789600,note_on,,,,,32,0,14,,,,12,,,65,105
789600,note_on,,,,,240,0,16,,,,14,,,44,0
789600,note_on,,,,,0,0,14,,,,12,,,62,105
789728,note_on,,,,,128,0,14,,,,12,,,62,0
789728,note_on,,,,,0,0,14,,,,12,,,65,0
789760,note_on,,,,,32,0,14,,,,12,,,65,105
789760,note_on,,,,,0,0,14,,,,12,,,62,105
789840,note_on,,,,,288,0,12,,,,10,,,89,116
789840,note_on,,,,,288,0,13,,,,11,,,77,116
789888,note_on,,,,,128,0,14,,,,12,,,62,0
789888,note_on,,,,,0,0,14,,,,12,,,65,0
789920,note_on,,,,,0,0,14,,,,12,,,62,105
789920,note_on,,,,,32,0,14,,,,12,,,65,105
790048,note_on,,,,,128,0,14,,,,12,,,62,0
790048,note_on,,,,,0,0,14,,,,12,,,65,0
790080,note_on,,,,,0,0,9,,,,5,,,61,116
790080,note_on,,,,,0,0,9,,,,5,,,64,116
790080,note_on,,,,,0,0,9,,,,5,,,65,0
790080,note_on,,,,,960,0,9,,,,5,,,57,0
790080,note_on,,,,,960,0,8,,,,4,,,62,0
790080,note_on,,,,,0,0,8,,,,4,,,61,116
790080,note_on,,,,,0,0,8,,,,4,,,69,0
790080,note_on,,,,,32,0,14,,,,12,,,67,105
790080,note_on,,,,,0,0,12,,,,10,,,85,116
790080,note_on,,,,,240,0,12,,,,10,,,89,0
790080,note_on,,,,,0,0,8,,,,4,,,64,116
790080,note_on,,,,,0,0,14,,,,12,,,64,105
790080,note_on,,,,,0,0,3,,,,1,,,67,105
790080,note_on,,,,,240,0,13,,,,11,,,77,0
790080,note_on,,,,,0,0,1,,,,0,,,79,105
790080,note_on,,,,,0,0,1,,,,0,,,85,105
790080,note_on,,,,,0,0,1,,,,0,,,77,0
790080,note_on,,,,,960,0,1,,,,0,,,86,0
790080,note_on,,,,,0,0,3,,,,1,,,73,105
790080,note_on,,,,,0,0,13,,,,11,,,73,116
790080,note_on,,,,,0,0,3,,,,1,,,65,0
790080,note_on,,,,,960,0,3,,,,1,,,74,0
790208,note_on,,,,,0,0,14,,,,12,,,67,0
790208,note_on,,,,,128,0,14,,,,12,,,64,0
790240,note_on,,,,,0,0,14,,,,12,,,67,105
790240,note_on,,,,,32,0,14,,,,12,,,64,105
790248,note_on,,,,,648,0,6,,,,3,,,57,0
790248,note_on,,,,,648,0,15,,,,13,,,57,0
790248,note_on,,,,,648,0,16,,,,14,,,45,0
790320,note_on,,,,,72,0,15,,,,13,,,45,116
790320,note_on,,,,,72,0,6,,,,3,,,45,105
790320,note_on,,,,,72,0,16,,,,14,,,33,116
790368,note_on,,,,,0,0,14,,,,12,,,64,0
790368,note_on,,,,,128,0,14,,,,12,,,67,0
790400,note_on,,,,,32,0,14,,,,12,,,67,105
790400,note_on,,,,,0,0,14,,,,12,,,64,105
790464,note_on,,,,,384,0,8,,,,4,,,64,0
790464,note_on,,,,,0,0,8,,,,4,,,61,0
790464,note_on,,,,,0,0,9,,,,5,,,61,0
790464,note_on,,,,,384,0,9,,,,5,,,64,0
790464,note_on,,,,,384,0,1,,,,0,,,79,0
790464,note_on,,,,,0,0,1,,,,0,,,85,0
790464,note_on,,,,,0,0,3,,,,1,,,67,0
790464,note_on,,,,,384,0,3,,,,1,,,73,0
790512,note_on,,,,,432,0,12,,,,10,,,85,0
790512,note_on,,,,,432,0,13,,,,11,,,73,0
790528,note_on,,,,,128,0,14,,,,12,,,64,0
790528,note_on,,,,,0,0,14,,,,12,,,67,0
790560,note_on,,,,,0,0,14,,,,12,,,75,105
790560,note_on,,,,,240,0,6,,,,3,,,45,0
790560,note_on,,,,,0,0,6,,,,3,,,46,105
790560,note_on,,,,,240,0,15,,,,13,,,45,0
790560,note_on,,,,,240,0,16,,,,14,,,33,0
790560,note_on,,,,,0,0,16,,,,14,,,34,116
790560,note_on,,,,,0,0,15,,,,13,,,46,116
790560,note_on,,,,,1056,0,4,,,,2,,,75,105
790560,note_on,,,,,32,0,14,,,,12,,,66,105
790688,note_on,,,,,128,0,14,,,,12,,,75,0
790688,note_on,,,,,0,0,14,,,,12,,,66,0
790720,note_on,,,,,32,0,14,,,,12,,,66,105
790720,note_on,,,,,0,0,14,,,,12,,,75,105
790800,note_on,,,,,288,0,12,,,,10,,,87,116
790800,note_on,,,,,288,0,13,,,,11,,,75,116
790848,note_on,,,,,128,0,14,,,,12,,,75,0
790848,note_on,,,,,0,0,14,,,,12,,,66,0
790880,note_on,,,,,0,0,14,,,,12,,,66,105
790880,note_on,,,,,32,0,14,,,,12,,,75,105
791008,note_on,,,,,0,0,14,,,,12,,,75,0
791008,note_on,,,,,128,0,14,,,,12,,,66,0
791040,note_on,,,,,0,0,8,,,,4,,,64,116
791040,note_on,,,,,0,0,3,,,,1,,,76,105
791040,note_on,,,,,576,0,3,,,,1,,,67,105
791040,note_on,,,,,0,0,4,,,,2,,,76,105
791040,note_on,,,,,480,0,4,,,,2,,,75,0
791040,note_on,,,,,576,0,8,,,,4,,,67,116
791040,note_on,,,,,0,0,12,,,,10,,,88,116
791040,note_on,,,,,240,0,13,,,,11,,,75,0
791040,note_on,,,,,576,0,1,,,,0,,,79,105
791040,note_on,,,,,0,0,1,,,,0,,,88,105
791040,note_on,,,,,32,0,14,,,,12,,,67,105
791040,note_on,,,,,0,0,14,,,,12,,,76,105
791040,note_on,,,,,0,0,13,,,,11,,,76,116
791040,note_on,,,,,39072,0,11,,,,7,,,52,116
791040,note_on,,,,,240,0,12,,,,10,,,87,0
791168,note_on,,,,,128,0,11,,,,7,,,52,0
791168,note_on,,,,,128,0,14,,,,12,,,76,0
791168,note_on,,,,,0,0,14,,,,12,,,67,0
791200,note_on,,,,,32,0,11,,,,7,,,52,105
791200,note_on,,,,,32,0,14,,,,12,,,67,105
791200,note_on,,,,,0,0,14,,,,12,,,76,105
791256,note_on,,,,,696,0,16,,,,14,,,34,0
791256,note_on,,,,,216,0,12,,,,10,,,88,0
791256,note_on,,,,,696,0,6,,,,3,,,46,0
791256,note_on,,,,,216,0,13,,,,11,,,76,0
791256,note_on,,,,,696,0,15,,,,13,,,46,0
791280,note_on,,,,,24,0,16,,,,14,,,46,116
791280,note_on,,,,,24,0,13,,,,11,,,79,118
791280,note_on,,,,,24,0,12,,,,10,,,91,118
791280,note_on,,,,,24,0,6,,,,3,,,58,105
791280,note_on,,,,,0,0,6,,,,3,,,46,105
791280,note_on,,,,,24,0,15,,,,13,,,58,116
791328,note_on,,,,,128,0,11,,,,7,,,52,0
791328,note_on,,,,,128,0,14,,,,12,,,76,0
791328,note_on,,,,,0,0,14,,,,12,,,67,0
791360,note_on,,,,,32,0,14,,,,12,,,67,105
791360,note_on,,,,,0,0,14,,,,12,,,76,105
791360,note_on,,,,,32,0,11,,,,7,,,52,105
791424,note_on,,,,,384,0,4,,,,2,,,76,0
791488,note_on,,,,,128,0,11,,,,7,,,52,0
791488,note_on,,,,,128,0,14,,,,12,,,76,0
791488,note_on,,,,,0,0,14,,,,12,,,67,0
791520,note_on,,,,,32,0,14,,,,12,,,75,105
791520,note_on,,,,,0,0,1,,,,0,,,87,105
791520,note_on,,,,,0,0,1,,,,0,,,81,105
791520,note_on,,,,,96,0,4,,,,2,,,78,105
791520,note_on,,,,,480,0,1,,,,0,,,88,0
791520,note_on,,,,,0,0,14,,,,12,,,69,105
791520,note_on,,,,,0,0,6,,,,3,,,58,0
791520,note_on,,,,,0,0,6,,,,3,,,59,105
791520,note_on,,,,,0,0,13,,,,11,,,75,121
791520,note_on,,,,,240,0,13,,,,11,,,79,0
791520,note_on,,,,,0,0,1,,,,0,,,79,0
791520,note_on,,,,,240,0,6,,,,3,,,46,0
791520,note_on,,,,,32,0,11,,,,7,,,47,105
791520,note_on,,,,,0,0,3,,,,1,,,67,0
791520,note_on,,,,,240,0,12,,,,10,,,91,0
791520,note_on,,,,,0,0,12,,,,10,,,87,121
791520,note_on,,,,,0,0,15,,,,13,,,59,118
791520,note_on,,,,,1056,0,9,,,,5,,,59,116
791520,note_on,,,,,0,0,3,,,,1,,,75,105
791520,note_on,,,,,480,0,3,,,,1,,,76,0
791520,note_on,,,,,0,0,16,,,,14,,,47,118
791520,note_on,,,,,240,0,16,,,,14,,,46,0
791520,note_on,,,,,0,0,8,,,,4,,,67,0
791520,note_on,,,,,0,0,8,,,,4,,,66,116
791520,note_on,,,,,0,0,8,,,,4,,,63,116
791520,note_on,,,,,240,0,15,,,,13,,,58,0
791520,note_on,,,,,0,0,3,,,,1,,,69,105
791520,note_on,,,,,480,0,8,,,,4,,,64,0
791520,note_on,,,,,0,0,6,,,,3,,,47,105
791648,note_on,,,,,128,0,14,,,,12,,,69,0
791648,note_on,,,,,0,0,14,,,,12,,,75,0
791648,note_on,,,,,128,0,11,,,,7,,,47,0
791680,note_on,,,,,32,0,11,,,,7,,,47,105
791680,note_on,,,,,32,0,14,,,,12,,,69,105
791680,note_on,,,,,0,0,14,,,,12,,,75,105
791736,note_on,,,,,216,0,16,,,,14,,,47,0
791736,note_on,,,,,0,0,6,,,,3,,,59,0
791736,note_on,,,,,216,0,6,,,,3,,,47,0
791736,note_on,,,,,216,0,13,,,,11,,,75,0
791736,note_on,,,,,216,0,15,,,,13,,,59,0
791736,note_on,,,,,216,0,12,,,,10,,,87,0
791760,note_on,,,,,24,0,16,,,,14,,,47,121
791760,note_on,,,,,0,0,6,,,,3,,,59,105
791760,note_on,,,,,24,0,6,,,,3,,,47,105
791760,note_on,,,,,24,0,13,,,,11,,,78,123
791760,note_on,,,,,24,0,15,,,,13,,,59,121
791760,note_on,,,,,24,0,12,,,,10,,,90,123
791808,note_on,,,,,128,0,14,,,,12,,,75,0
791808,note_on,,,,,128,0,11,,,,7,,,47,0
791808,note_on,,,,,0,0,14,,,,12,,,69,0
791840,note_on,,,,,0,0,14,,,,12,,,69,105
791840,note_on,,,,,32,0,11,,,,7,,,47,105
791840,note_on,,,,,32,0,14,,,,12,,,75,105
791904,note_on,,,,,0,0,3,,,,1,,,75,0
791904,note_on,,,,,384,0,1,,,,0,,,87,0
791904,note_on,,,,,0,0,1,,,,0,,,81,0
791904,note_on,,,,,384,0,3,,,,1,,,69,0
791904,note_on,,,,,384,0,8,,,,4,,,63,0
791904,note_on,,,,,0,0,8,,,,4,,,66,0
791968,note_on,,,,,128,0,14,,,,12,,,69,0
791968,note_on,,,,,128,0,11,,,,7,,,47,0
791968,note_on,,,,,0,0,14,,,,12,,,75,0
792000,note_on,,,,,0,0,9,,,,5,,,60,116
792000,note_on,,,,,480,0,9,,,,5,,,59,0
792000,note_on,,,,,32,0,11,,,,7,,,52,105
792000,note_on,,,,,0,0,14,,,,12,,,67,105
792000,note_on,,,,,0,0,6,,,,3,,,47,0
792000,note_on,,,,,0,0,3,,,,1,,,76,105
792000,note_on,,,,,96,0,3,,,,1,,,67,105
792000,note_on,,,,,480,0,4,,,,2,,,78,0
792000,note_on,,,,,240,0,16,,,,14,,,47,0
792000,note_on,,,,,0,0,16,,,,14,,,48,124
792000,note_on,,,,,32,0,14,,,,12,,,76,105
792000,note_on,,,,,0,0,10,,,,6,,,76,92
792000,note_on,,,,,0,0,15,,,,13,,,60,124
792000,note_on,,,,,240,0,15,,,,13,,,59,0
792000,note_on,,,,,0,0,6,,,,3,,,48,105
792000,note_on,,,,,0,0,6,,,,3,,,60,105
792000,note_on,,,,,240,0,13,,,,11,,,78,0
792000,note_on,,,,,0,0,13,,,,11,,,76,124
792000,note_on,,,,,96,0,1,,,,0,,,79,105
792000,note_on,,,,,0,0,1,,,,0,,,88,105
792000,note_on,,,,,240,0,6,,,,3,,,59,0
792000,note_on,,,,,96,0,8,,,,4,,,64,116
792000,note_on,,,,,0,0,8,,,,4,,,67,116
792000,note_on,,,,,0,0,12,,,,10,,,88,124
792000,note_on,,,,,240,0,12,,,,10,,,90,0
792000,note_on,,,,,22272,0,10,,,,6,,,64,92
792000,note_on,,,,,0,0,4,,,,2,,,76,105
792128,note_on,,,,,128,0,14,,,,12,,,67,0
792128,note_on,,,,,0,0,14,,,,12,,,76,0
792128,note_on,,,,,128,0,11,,,,7,,,52,0
792160,note_on,,,,,32,0,14,,,,12,,,76,105
792160,note_on,,,,,32,0,11,,,,7,,,52,105
792160,note_on,,,,,0,0,14,,,,12,,,67,105
792216,note_on,,,,,216,0,16,,,,14,,,48,0
792216,note_on,,,,,216,0,15,,,,13,,,60,0
792216,note_on,,,,,216,0,13,,,,11,,,76,0
792216,note_on,,,,,216,0,12,,,,10,,,88,0
792216,note_on,,,,,0,0,6,,,,3,,,48,0
792216,note_on,,,,,216,0,6,,,,3,,,60,0
792240,note_on,,,,,0,0,6,,,,3,,,60,105
792240,note_on,,,,,24,0,15,,,,13,,,60,124
792240,note_on,,,,,24,0,13,,,,11,,,79,125
792240,note_on,,,,,24,0,6,,,,3,,,48,105
792240,note_on,,,,,24,0,16,,,,14,,,48,124
792240,note_on,,,,,24,0,12,,,,10,,,91,125
792288,note_on,,,,,0,0,14,,,,12,,,76,0
792288,note_on,,,,,128,0,14,,,,12,,,67,0
792288,note_on,,,,,288,0,10,,,,6,,,76,0
792288,note_on,,,,,0,0,10,,,,6,,,64,0
792288,note_on,,,,,128,0,11,,,,7,,,52,0
792320,note_on,,,,,32,0,11,,,,7,,,52,105
792320,note_on,,,,,0,0,14,,,,12,,,67,105
792320,note_on,,,,,32,0,14,,,,12,,,76,105
792384,note_on,,,,,384,0,4,,,,2,,,76,0
792384,note_on,,,,,384,0,9,,,,5,,,60,0
792448,note_on,,,,,128,0,11,,,,7,,,52,0
792448,note_on,,,,,0,0,14,,,,12,,,76,0
792448,note_on,,,,,128,0,14,,,,12,,,67,0
792480,note_on,,,,,0,0,15,,,,13,,,59,126
792480,note_on,,,,,240,0,15,,,,13,,,60,0
792480,note_on,,,,,0,0,13,,,,11,,,75,126
792480,note_on,,,,,0,0,1,,,,0,,,79,0
792480,note_on,,,,,32,0,14,,,,12,,,75,105
792480,note_on,,,,,0,0,14,,,,12,,,69,105
792480,note_on,,,,,96,0,9,,,,5,,,59,116
792480,note_on,,,,,240,0,13,,,,11,,,79,0
792480,note_on,,,,,480,0,3,,,,1,,,76,0
792480,note_on,,,,,0,0,16,,,,14,,,47,126
792480,note_on,,,,,0,0,3,,,,1,,,69,105
792480,note_on,,,,,240,0,12,,,,10,,,91,0
792480,note_on,,,,,0,0,8,,,,4,,,66,116
792480,note_on,,,,,0,0,8,,,,4,,,63,116
792480,note_on,,,,,0,0,8,,,,4,,,64,0
792480,note_on,,,,,480,0,8,,,,4,,,67,0
792480,note_on,,,,,240,0,6,,,,3,,,60,0
792480,note_on,,,,,0,0,6,,,,3,,,48,0
792480,note_on,,,,,0,0,3,,,,1,,,67,0
792480,note_on,,,,,0,0,6,,,,3,,,47,105
792480,note_on,,,,,32,0,11,,,,7,,,47,105
792480,note_on,,,,,0,0,12,,,,10,,,87,126
792480,note_on,,,,,96,0,4,,,,2,,,78,105
792480,note_on,,,,,0,0,1,,,,0,,,81,105
792480,note_on,,,,,0,0,1,,,,0,,,87,105
792480,note_on,,,,,240,0,16,,,,14,,,48,0
792480,note_on,,,,,480,0,1,,,,0,,,88,0
792480,note_on,,,,,0,0,3,,,,1,,,75,105
792480,note_on,,,,,0,0,6,,,,3,,,59,105
792608,note_on,,,,,128,0,14,,,,12,,,69,0
792608,note_on,,,,,0,0,14,,,,12,,,75,0
792608,note_on,,,,,128,0,11,,,,7,,,47,0
792640,note_on,,,,,32,0,14,,,,12,,,75,105
792640,note_on,,,,,32,0,11,,,,7,,,47,105
792640,note_on,,,,,0,0,14,,,,12,,,69,105
792696,note_on,,,,,216,0,16,,,,14,,,47,0
792696,note_on,,,,,0,0,6,,,,3,,,47,0
792696,note_on,,,,,216,0,6,,,,3,,,59,0
792696,note_on,,,,,216,0,15,,,,13,,,59,0
792696,note_on,,,,,216,0,13,,,,11,,,75,0
792696,note_on,,,,,216,0,12,,,,10,,,87,0
792720,note_on,,,,,24,0,15,,,,13,,,59,127
792720,note_on,,,,,0,0,6,,,,3,,,47,105
792720,note_on,,,,,24,0,6,,,,3,,,59,105
792720,note_on,,,,,24,0,13,,,,11,,,78,127
792720,note_on,,,,,24,0,12,,,,10,,,90,127
792720,note_on,,,,,24,0,16,,,,14,,,47,127
792768,note_on,,,,,128,0,11,,,,7,,,47,0
792768,note_on,,,,,128,0,14,,,,12,,,69,0
792768,note_on,,,,,0,0,14,,,,12,,,75,0
792800,note_on,,,,,32,0,11,,,,7,,,47,105
792800,note_on,,,,,0,0,14,,,,12,,,69,105
792800,note_on,,,,,32,0,14,,,,12,,,75,105
792864,note_on,,,,,0,0,3,,,,1,,,69,0
792864,note_on,,,,,0,0,8,,,,4,,,63,0
792864,note_on,,,,,384,0,8,,,,4,,,66,0
792864,note_on,,,,,384,0,3,,,,1,,,75,0
792864,note_on,,,,,384,0,1,,,,0,,,81,0
792864,note_on,,,,,0,0,1,,,,0,,,87,0
792928,note_on,,,,,0,0,14,,,,12,,,75,0
792928,note_on,,,,,128,0,14,,,,12,,,69,0
792928,note_on,,,,,128,0,11,,,,7,,,47,0
792960,note_on,,,,,0,0,8,,,,4,,,67,116
792960,note_on,,,,,96,0,8,,,,4,,,64,116
792960,note_on,,,,,96,0,3,,,,1,,,67,105
792960,note_on,,,,,0,0,12,,,,10,,,88,127
792960,note_on,,,,,0,0,1,,,,0,,,88,105
792960,note_on,,,,,96,0,1,,,,0,,,79,105
792960,note_on,,,,,0,0,3,,,,1,,,76,105
792960,note_on,,,,,0,0,13,,,,11,,,76,127
792960,note_on,,,,,240,0,15,,,,13,,,59,0
792960,note_on,,,,,0,0,15,,,,13,,,60,127
792960,note_on,,,,,0,0,16,,,,14,,,48,127
792960,note_on,,,,,672,0,10,,,,6,,,76,92
792960,note_on,,,,,480,0,9,,,,5,,,59,0
792960,note_on,,,,,0,0,9,,,,5,,,60,116
792960,note_on,,,,,240,0,16,,,,14,,,47,0
792960,note_on,,,,,240,0,12,,,,10,,,90,0
792960,note_on,,,,,0,0,10,,,,6,,,64,92
792960,note_on,,,,,240,0,13,,,,11,,,78,0
792960,note_on,,,,,240,0,6,,,,3,,,47,0
792960,note_on,,,,,32,0,11,,,,7,,,52,105
792960,note_on,,,,,0,0,6,,,,3,,,48,105
792960,note_on,,,,,0,0,6,,,,3,,,59,0
792960,note_on,,,,,0,0,6,,,,3,,,60,105
792960,note_on,,,,,0,0,14,,,,12,,,76,105
792960,note_on,,,,,32,0,14,,,,12,,,67,105
792960,note_on,,,,,480,0,4,,,,2,,,78,0
792960,note_on,,,,,0,0,4,,,,2,,,76,105
793088,note_on,,,,,128,0,11,,,,7,,,52,0
793088,note_on,,,,,0,0,14,,,,12,,,67,0
793088,note_on,,,,,128,0,14,,,,12,,,76,0
793120,note_on,,,,,0,0,14,,,,12,,,76,105
793120,note_on,,,,,32,0,11,,,,7,,,52,105
793120,note_on,,,,,32,0,14,,,,12,,,67,105
793176,note_on,,,,,216,0,12,,,,10,,,88,0
793176,note_on,,,,,216,0,16,,,,14,,,48,0
793176,note_on,,,,,216,0,15,,,,13,,,60,0
793176,note_on,,,,,216,0,13,,,,11,,,76,0
793176,note_on,,,,,216,0,6,,,,3,,,60,0
793176,note_on,,,,,0,0,6,,,,3,,,48,0
793200,note_on,,,,,24,0,13,,,,11,,,79,127
793200,note_on,,,,,24,0,15,,,,13,,,60,127
793200,note_on,,,,,24,0,12,,,,10,,,91,127
793200,note_on,,,,,0,0,6,,,,3,,,60,105
793200,note_on,,,,,24,0,6,,,,3,,,48,105
793200,note_on,,,,,24,0,16,,,,14,,,48,127
793248,note_on,,,,,0,0,10,,,,6,,,76,0
793248,note_on,,,,,288,0,10,,,,6,,,64,0
793248,note_on,,,,,128,0,11,,,,7,,,52,0
793248,note_on,,,,,128,0,14,,,,12,,,76,0
793248,note_on,,,,,0,0,14,,,,12,,,67,0
793280,note_on,,,,,32,0,11,,,,7,,,52,105
793280,note_on,,,,,32,0,14,,,,12,,,67,105
793280,note_on,,,,,0,0,14,,,,12,,,76,105
793344,note_on,,,,,384,0,9,,,,5,,,60,0
793344,note_on,,,,,384,0,4,,,,2,,,76,0
793408,note_on,,,,,128,0,14,,,,12,,,76,0
793408,note_on,,,,,0,0,14,,,,12,,,67,0
793408,note_on,,,,,128,0,11,,,,7,,,52,0
793440,note_on,,,,,0,0,12,,,,10,,,87,127
793440,note_on,,,,,0,0,6,,,,3,,,55,105
793440,note_on,,,,,0,0,6,,,,3,,,48,0
793440,note_on,,,,,240,0,6,,,,3,,,60,0
793440,note_on,,,,,0,0,8,,,,4,,,63,116
793440,note_on,,,,,0,0,8,,,,4,,,66,116
793440,note_on,,,,,480,0,3,,,,1,,,76,0
793440,note_on,,,,,0,0,3,,,,1,,,67,0
793440,note_on,,,,,0,0,1,,,,0,,,87,105
793440,note_on,,,,,240,0,16,,,,14,,,48,0
793440,note_on,,,,,0,0,16,,,,14,,,43,127
793440,note_on,,,,,0,0,14,,,,12,,,69,105
793440,note_on,,,,,32,0,14,,,,12,,,66,105
793440,note_on,,,,,96,0,4,,,,2,,,78,105
793440,note_on,,,,,0,0,3,,,,1,,,75,105
793440,note_on,,,,,0,0,3,,,,1,,,69,105
793440,note_on,,,,,96,0,9,,,,5,,,55,116
793440,note_on,,,,,240,0,12,,,,10,,,91,0
793440,note_on,,,,,0,0,8,,,,4,,,64,0
793440,note_on,,,,,0,0,15,,,,13,,,55,127
793440,note_on,,,,,240,0,15,,,,13,,,60,0
793440,note_on,,,,,480,0,1,,,,0,,,88,0
793440,note_on,,,,,0,0,1,,,,0,,,81,105
793440,note_on,,,,,0,0,1,,,,0,,,79,0
793440,note_on,,,,,32,0,11,,,,7,,,52,105
793440,note_on,,,,,0,0,13,,,,11,,,75,127
793440,note_on,,,,,0,0,6,,,,3,,,43,105
793440,note_on,,,,,240,0,13,,,,11,,,79,0
793440,note_on,,,,,480,0,8,,,,4,,,67,0
793568,note_on,,,,,0,0,14,,,,12,,,66,0
793568,note_on,,,,,128,0,14,,,,12,,,69,0
793568,note_on,,,,,128,0,11,,,,7,,,52,0
793600,note_on,,,,,32,0,11,,,,7,,,52,105
793600,note_on,,,,,0,0,14,,,,12,,,66,105
793600,note_on,,,,,32,0,14,,,,12,,,69,105
793656,note_on,,,,,216,0,16,,,,14,,,43,0
793656,note_on,,,,,216,0,13,,,,11,,,75,0
793656,note_on,,,,,216,0,15,,,,13,,,55,0
793656,note_on,,,,,216,0,6,,,,3,,,43,0
793656,note_on,,,,,0,0,6,,,,3,,,55,0
793656,note_on,,,,,216,0,12,,,,10,,,87,0
793680,note_on,,,,,24,0,13,,,,11,,,78,127
793680,note_on,,,,,24,0,15,,,,13,,,55,127
793680,note_on,,,,,0,0,6,,,,3,,,55,105
793680,note_on,,,,,24,0,6,,,,3,,,43,105
793680,note_on,,,,,24,0,12,,,,10,,,90,127
793680,note_on,,,,,24,0,16,,,,14,,,43,127
793728,note_on,,,,,128,0,11,,,,7,,,52,0
793728,note_on,,,,,128,0,14,,,,12,,,66,0
793728,note_on,,,,,0,0,14,,,,12,,,69,0
793760,note_on,,,,,0,0,14,,,,12,,,69,105
793760,note_on,,,,,32,0,11,,,,7,,,52,105
793760,note_on,,,,,32,0,14,,,,12,,,66,105
793824,note_on,,,,,384,0,3,,,,1,,,69,0
793824,note_on,,,,,0,0,3,,,,1,,,75,0
793824,note_on,,,,,0,0,1,,,,0,,,81,0
793824,note_on,,,,,0,0,8,,,,4,,,63,0
793824,note_on,,,,,384,0,8,,,,4,,,66,0
793824,note_on,,,,,384,0,1,,,,0,,,87,0
793888,note_on,,,,,0,0,14,,,,12,,,66,0
793888,note_on,,,,,128,0,11,,,,7,,,52,0
793888,note_on,,,,,128,0,14,,,,12,,,69,0
793920,note_on,,,,,32,0,11,,,,7,,,52,105
793920,note_on,,,,,0,0,8,,,,4,,,67,116
793920,note_on,,,,,96,0,8,,,,4,,,64,116
793920,note_on,,,,,32,0,14,,,,12,,,64,105
793920,note_on,,,,,0,0,14,,,,12,,,67,105
793920,note_on,,,,,0,0,15,,,,13,,,60,127
793920,note_on,,,,,240,0,15,,,,13,,,55,0
793920,note_on,,,,,96,0,3,,,,1,,,67,105
793920,note_on,,,,,0,0,6,,,,3,,,60,105
793920,note_on,,,,,0,0,3,,,,1,,,76,105
793920,note_on,,,,,240,0,6,,,,3,,,55,0
793920,note_on,,,,,96,0,1,,,,0,,,79,105
793920,note_on,,,,,0,0,1,,,,0,,,88,105
793920,note_on,,,,,240,0,13,,,,11,,,78,0
793920,note_on,,,,,240,0,16,,,,14,,,43,0
793920,note_on,,,,,0,0,16,,,,14,,,48,127
793920,note_on,,,,,0,0,12,,,,10,,,88,127
793920,note_on,,,,,0,0,13,,,,11,,,76,127
793920,note_on,,,,,240,0,12,,,,10,,,90,0
793920,note_on,,,,,0,0,6,,,,3,,,43,0
793920,note_on,,,,,480,0,4,,,,2,,,78,0
793920,note_on,,,,,0,0,4,,,,2,,,76,105
793920,note_on,,,,,672,0,10,,,,6,,,64,92
793920,note_on,,,,,480,0,9,,,,5,,,55,0
793920,note_on,,,,,0,0,9,,,,5,,,60,116
793920,note_on,,,,,0,0,10,,,,6,,,76,92
793920,note_on,,,,,0,0,6,,,,3,,,48,105
794048,note_on,,,,,128,0,11,,,,7,,,52,0
794048,note_on,,,,,0,0,14,,,,12,,,64,0
794048,note_on,,,,,128,0,14,,,,12,,,67,0
794080,note_on,,,,,32,0,14,,,,12,,,64,105
794080,note_on,,,,,0,0,14,,,,12,,,67,105
794080,note_on,,,,,32,0,11,,,,7,,,52,105
794136,note_on,,,,,216,0,12,,,,10,,,88,0
794136,note_on,,,,,216,0,16,,,,14,,,48,0
794136,note_on,,,,,216,0,6,,,,3,,,60,0
794136,note_on,,,,,216,0,13,,,,11,,,76,0
794136,note_on,,,,,216,0,15,,,,13,,,60,0
794136,note_on,,,,,0,0,6,,,,3,,,48,0
794160,note_on,,,,,24,0,12,,,,10,,,91,127
794160,note_on,,,,,0,0,6,,,,3,,,60,105
794160,note_on,,,,,24,0,16,,,,14,,,48,127
794160,note_on,,,,,24,0,13,,,,11,,,79,127
794160,note_on,,,,,24,0,15,,,,13,,,60,127
794160,note_on,,,,,24,0,6,,,,3,,,48,105
794208,note_on,,,,,128,0,11,,,,7,,,52,0
794208,note_on,,,,,288,0,10,,,,6,,,76,0
794208,note_on,,,,,0,0,10,,,,6,,,64,0
794208,note_on,,,,,0,0,14,,,,12,,,64,0
794208,note_on,,,,,128,0,14,,,,12,,,67,0
794240,note_on,,,,,32,0,11,,,,7,,,52,105
794240,note_on,,,,,32,0,14,,,,12,,,64,105
794240,note_on,,,,,0,0,14,,,,12,,,67,105
794304,note_on,,,,,384,0,9,,,,5,,,60,0
794304,note_on,,,,,384,0,4,,,,2,,,76,0
794368,note_on,,,,,0,0,14,,,,12,,,64,0
794368,note_on,,,,,128,0,14,,,,12,,,67,0
794368,note_on,,,,,128,0,11,,,,7,,,52,0
794400,note_on,,,,,0,0,1,,,,0,,,81,105
794400,note_on,,,,,0,0,3,,,,1,,,67,0
794400,note_on,,,,,240,0,16,,,,14,,,48,0
794400,note_on,,,,,0,0,1,,,,0,,,79,0
794400,note_on,,,,,480,0,1,,,,0,,,88,0
794400,note_on,,,,,480,0,3,,,,1,,,76,0
794400,note_on,,,,,0,0,1,,,,0,,,87,105
794400,note_on,,,,,0,0,16,,,,14,,,36,127
794400,note_on,,,,,480,0,8,,,,4,,,67,0
794400,note_on,,,,,0,0,13,,,,11,,,75,127
794400,note_on,,,,,0,0,6,,,,3,,,48,105
794400,note_on,,,,,0,0,8,,,,4,,,64,0
794400,note_on,,,,,0,0,8,,,,4,,,63,116
794400,note_on,,,,,0,0,8,,,,4,,,66,116
794400,note_on,,,,,96,0,4,,,,2,,,78,105
794400,note_on,,,,,240,0,13,,,,11,,,79,0
794400,note_on,,,,,0,0,6,,,,3,,,48,0
794400,note_on,,,,,0,0,6,,,,3,,,36,105
794400,note_on,,,,,0,0,12,,,,10,,,87,127
794400,note_on,,,,,96,0,9,,,,5,,,48,116
794400,note_on,,,,,32,0,14,,,,12,,,69,105
794400,note_on,,,,,0,0,14,,,,12,,,66,105
794400,note_on,,,,,32,0,11,,,,7,,,52,125
794400,note_on,,,,,240,0,6,,,,3,,,60,0
794400,note_on,,,,,0,0,3,,,,1,,,75,105
794400,note_on,,,,,0,0,15,,,,13,,,48,127
794400,note_on,,,,,240,0,15,,,,13,,,60,0
794400,note_on,,,,,0,0,3,,,,1,,,69,105
794400,note_on,,,,,240,0,12,,,,10,,,91,0
794528,note_on,,,,,0,0,14,,,,12,,,69,0
794528,note_on,,,,,128,0,14,,,,12,,,66,0
794528,note_on,,,,,128,0,11,,,,7,,,52,0
794560,note_on,,,,,32,0,14,,,,12,,,66,105
794560,note_on,,,,,32,0,11,,,,7,,,52,125
794560,note_on,,,,,0,0,14,,,,12,,,69,105
794616,note_on,,,,,216,0,15,,,,13,,,48,0
794616,note_on,,,,,216,0,6,,,,3,,,36,0
794616,note_on,,,,,216,0,13,,,,11,,,75,0
794616,note_on,,,,,216,0,16,,,,14,,,36,0
794616,note_on,,,,,216,0,12,,,,10,,,87,0
794616,note_on,,,,,0,0,6,,,,3,,,48,0
794640,note_on,,,,,24,0,6,,,,3,,,36,105
794640,note_on,,,,,0,0,6,,,,3,,,48,105
794640,note_on,,,,,24,0,16,,,,14,,,36,127
794640,note_on,,,,,24,0,15,,,,13,,,48,127
794640,note_on,,,,,24,0,12,,,,10,,,90,127
794640,note_on,,,,,24,0,13,,,,11,,,78,127
794688,note_on,,,,,128,0,11,,,,7,,,52,0
794688,note_on,,,,,128,0,14,,,,12,,,69,0
794688,note_on,,,,,0,0,14,,,,12,,,66,0
794720,note_on,,,,,32,0,11,,,,7,,,52,125
794720,note_on,,,,,0,0,14,,,,12,,,66,105
794720,note_on,,,,,32,0,14,,,,12,,,69,105
794784,note_on,,,,,0,0,1,,,,0,,,87,0
794784,note_on,,,,,0,0,3,,,,1,,,69,0
794784,note_on,,,,,384,0,3,,,,1,,,75,0
794784,note_on,,,,,384,0,8,,,,4,,,66,0
794784,note_on,,,,,384,0,1,,,,0,,,81,0
794784,note_on,,,,,0,0,8,,,,4,,,63,0
794848,note_on,,,,,128,0,14,,,,12,,,66,0
794848,note_on,,,,,128,0,11,,,,7,,,52,0
794848,note_on,,,,,0,0,14,,,,12,,,69,0
794880,note_on,,,,,240,0,16,,,,14,,,36,0
794880,note_on,,,,,0,0,16,,,,14,,,48,116
794880,note_on,,,,,0,0,9,,,,5,,,60,116
794880,note_on,,,,,480,0,9,,,,5,,,48,0
794880,note_on,,,,,0,0,15,,,,13,,,60,116
794880,note_on,,,,,96,0,8,,,,4,,,64,116
794880,note_on,,,,,240,0,6,,,,3,,,48,0
794880,note_on,,,,,32,0,11,,,,7,,,52,125
794880,note_on,,,,,0,0,6,,,,3,,,48,105
794880,note_on,,,,,0,0,6,,,,3,,,60,105
794880,note_on,,,,,0,0,8,,,,4,,,67,116
794880,note_on,,,,,240,0,15,,,,13,,,48,0
794880,note_on,,,,,0,0,6,,,,3,,,36,0
794880,note_on,,,,,480,0,4,,,,2,,,78,0
794880,note_on,,,,,96,0,1,,,,0,,,79,105
794880,note_on,,,,,32,0,14,,,,12,,,64,116
794880,note_on,,,,,0,0,14,,,,12,,,67,116
794880,note_on,,,,,0,0,12,,,,10,,,88,116
794880,note_on,,,,,240,0,12,,,,10,,,90,0
794880,note_on,,,,,672,0,10,,,,6,,,64,105
794880,note_on,,,,,0,0,10,,,,6,,,76,105
794880,note_on,,,,,240,0,13,,,,11,,,78,0
794880,note_on,,,,,0,0,13,,,,11,,,76,116
794880,note_on,,,,,0,0,4,,,,2,,,76,105
794880,note_on,,,,,96,0,3,,,,1,,,76,105
794880,note_on,,,,,0,0,1,,,,0,,,88,105
794880,note_on,,,,,0,0,3,,,,1,,,67,105
795168,note_on,,,,,288,0,3,,,,1,,,67,0
795168,note_on,,,,,0,0,3,,,,1,,,76,0
795168,note_on,,,,,288,0,10,,,,6,,,76,0
795168,note_on,,,,,288,0,8,,,,4,,,67,0
795168,note_on,,,,,0,0,10,,,,6,,,64,0
795168,note_on,,,,,0,0,8,,,,4,,,64,0
795168,note_on,,,,,288,0,16,,,,14,,,48,0
795168,note_on,,,,,288,0,1,,,,0,,,88,0
795168,note_on,,,,,288,0,11,,,,7,,,52,0
795168,note_on,,,,,288,0,12,,,,10,,,88,0
795168,note_on,,,,,288,0,4,,,,2,,,76,0
795168,note_on,,,,,0,0,6,,,,3,,,48,0
795168,note_on,,,,,288,0,6,,,,3,,,60,0
795168,note_on,,,,,288,0,9,,,,5,,,60,0
795168,note_on,,,,,288,0,14,,,,12,,,67,0
795168,note_on,,,,,288,0,13,,,,11,,,76,0
795168,note_on,,,,,0,0,14,,,,12,,,64,0
795168,note_on,,,,,288,0,15,,,,13,,,60,0
795264,note_on,,,,,96,0,1,,,,0,,,79,0
795360,note_on,,,,,0,0,1,,,,0,,,88,105
795360,note_on,,,,,192,0,12,,,,10,,,88,116
795360,note_on,,,,,192,0,15,,,,13,,,60,116
795360,note_on,,,,,192,0,14,,,,12,,,64,116
795360,note_on,,,,,96,0,1,,,,0,,,84,105
795360,note_on,,,,,0,0,13,,,,11,,,84,116
795360,note_on,,,,,192,0,13,,,,11,,,76,116
795360,note_on,,,,,192,0,8,,,,4,,,64,116
795360,note_on,,,,,192,0,9,,,,5,,,60,116
795840,note_on,,,,,0,0,13,,,,11,,,76,0
795840,note_on,,,,,0,0,13,,,,11,,,75,116
795840,note_on,,,,,0,0,12,,,,10,,,87,116
795840,note_on,,,,,480,0,12,,,,10,,,88,0
795840,note_on,,,,,0,0,13,,,,11,,,83,116
795840,note_on,,,,,0,0,1,,,,0,,,87,105
795840,note_on,,,,,480,0,13,,,,11,,,84,0
795840,note_on,,,,,0,0,1,,,,0,,,84,0
795840,note_on,,,,,0,0,1,,,,0,,,83,105
795840,note_on,,,,,480,0,1,,,,0,,,88,0
796128,note_on,,,,,768,0,15,,,,13,,,60,0
796128,note_on,,,,,768,0,9,,,,5,,,60,0
796128,note_on,,,,,768,0,8,,,,4,,,64,0
796128,note_on,,,,,768,0,14,,,,12,,,64,0
796320,note_on,,,,,192,0,15,,,,13,,,60,116
796320,note_on,,,,,0,0,13,,,,11,,,81,116
796320,note_on,,,,,0,0,13,,,,11,,,72,116
796320,note_on,,,,,192,0,8,,,,4,,,64,116
796320,note_on,,,,,0,0,13,,,,11,,,83,0
796320,note_on,,,,,192,0,9,,,,5,,,60,116
796320,note_on,,,,,192,0,14,,,,12,,,64,116
796320,note_on,,,,,0,0,12,,,,10,,,84,116
796320,note_on,,,,,480,0,13,,,,11,,,75,0
796320,note_on,,,,,480,0,1,,,,0,,,87,0
796320,note_on,,,,,0,0,1,,,,0,,,83,0
796320,note_on,,,,,0,0,1,,,,0,,,81,105
796320,note_on,,,,,480,0,12,,,,10,,,87,0
796320,note_on,,,,,0,0,1,,,,0,,,84,105
796800,note_on,,,,,0,0,1,,,,0,,,83,105
796800,note_on,,,,,0,0,12,,,,10,,,83,116
796800,note_on,,,,,0,0,13,,,,11,,,71,116
796800,note_on,,,,,0,0,13,,,,11,,,72,0
796800,note_on,,,,,480,0,13,,,,11,,,81,0
796800,note_on,,,,,0,0,13,,,,11,,,80,116
796800,note_on,,,,,480,0,1,,,,0,,,84,0
796800,note_on,,,,,0,0,1,,,,0,,,81,0
796800,note_on,,,,,0,0,1,,,,0,,,80,105
796800,note_on,,,,,480,0,12,,,,10,,,84,0
797088,note_on,,,,,768,0,9,,,,5,,,60,0
797184,note_on,,,,,864,0,8,,,,4,,,64,0
797184,note_on,,,,,864,0,14,,,,12,,,64,0
797184,note_on,,,,,864,0,15,,,,13,,,60,0
797280,note_on,,,,,96,0,15,,,,13,,,60,116
797280,note_on,,,,,480,0,13,,,,11,,,71,0
797280,note_on,,,,,0,0,14,,,,12,,,76,116
797280,note_on,,,,,96,0,14,,,,12,,,72,116
797280,note_on,,,,,0,0,12,,,,10,,,81,116
797280,note_on,,,,,480,0,1,,,,0,,,83,0
797280,note_on,,,,,0,0,13,,,,11,,,80,0
797280,note_on,,,,,0,0,13,,,,11,,,81,116
797280,note_on,,,,,0,0,13,,,,11,,,69,116
797280,note_on,,,,,0,0,1,,,,0,,,80,0
797280,note_on,,,,,0,0,1,,,,0,,,81,105
797280,note_on,,,,,96,0,8,,,,4,,,64,116
797280,note_on,,,,,192,0,9,,,,5,,,60,116
797280,note_on,,,,,480,0,12,,,,10,,,83,0
797760,note_on,,,,,480,0,12,,,,10,,,81,0
797760,note_on,,,,,480,0,1,,,,0,,,81,0
797760,note_on,,,,,0,0,1,,,,0,,,76,105
797760,note_on,,,,,0,0,13,,,,11,,,76,116
797760,note_on,,,,,0,0,14,,,,12,,,72,0
797760,note_on,,,,,0,0,14,,,,12,,,75,116
797760,note_on,,,,,0,0,14,,,,12,,,71,116
797760,note_on,,,,,0,0,13,,,,11,,,81,0
797760,note_on,,,,,480,0,13,,,,11,,,69,0
797760,note_on,,,,,0,0,12,,,,10,,,76,116
797760,note_on,,,,,480,0,14,,,,12,,,76,0
798048,note_on,,,,,768,0,8,,,,4,,,64,0
798048,note_on,,,,,768,0,15,,,,13,,,60,0
798048,note_on,,,,,768,0,9,,,,5,,,60,0
798240,note_on,,,,,192,0,8,,,,4,,,64,116
798240,note_on,,,,,192,0,9,,,,5,,,60,116
798240,note_on,,,,,480,0,14,,,,12,,,71,0
798240,note_on,,,,,0,0,14,,,,12,,,75,0
798240,note_on,,,,,0,0,14,,,,12,,,69,116
798240,note_on,,,,,0,0,14,,,,12,,,72,116
798240,note_on,,,,,192,0,15,,,,13,,,60,116
798720,note_on,,,,,0,0,14,,,,12,,,68,116
798720,note_on,,,,,480,0,14,,,,12,,,72,0
798720,note_on,,,,,0,0,14,,,,12,,,69,0
798720,note_on,,,,,0,0,14,,,,12,,,71,116
798912,note_on,,,,,1152,0,13,,,,11,,,76,0
798912,note_on,,,,,1152,0,1,,,,0,,,76,0
798912,note_on,,,,,1152,0,12,,,,10,,,76,0
798960,note_on,,,,,48,0,13,,,,11,,,74,116
798960,note_on,,,,,48,0,1,,,,0,,,74,105
798960,note_on,,,,,48,0,12,,,,10,,,74,116
799008,note_on,,,,,768,0,9,,,,5,,,60,0
799104,note_on,,,,,864,0,15,,,,13,,,60,0
799104,note_on,,,,,864,0,8,,,,4,,,64,0
799200,note_on,,,,,480,0,14,,,,12,,,71,0
799200,note_on,,,,,0,0,14,,,,12,,,68,0
799200,note_on,,,,,96,0,8,,,,4,,,64,116
799200,note_on,,,,,192,0,9,,,,5,,,60,116
799200,note_on,,,,,0,0,14,,,,12,,,69,116
799200,note_on,,,,,240,0,13,,,,11,,,74,0
799200,note_on,,,,,240,0,12,,,,10,,,74,0
799200,note_on,,,,,0,0,12,,,,10,,,71,116
799200,note_on,,,,,0,0,1,,,,0,,,71,105
799200,note_on,,,,,96,0,15,,,,13,,,60,116
799200,note_on,,,,,0,0,13,,,,11,,,71,116
799200,note_on,,,,,240,0,1,,,,0,,,74,0
799440,note_on,,,,,240,0,12,,,,10,,,71,0
799440,note_on,,,,,0,0,12,,,,10,,,72,116
799440,note_on,,,,,0,0,1,,,,0,,,72,105
799440,note_on,,,,,240,0,1,,,,0,,,71,0
799440,note_on,,,,,0,0,13,,,,11,,,72,116
799440,note_on,,,,,240,0,13,,,,11,,,71,0
799584,note_on,,,,,384,0,14,,,,12,,,69,0
799632,note_on,,,,,192,0,1,,,,0,,,72,0
799632,note_on,,,,,192,0,13,,,,11,,,72,0
799632,note_on,,,,,192,0,12,,,,10,,,72,0
799680,note_on,,,,,96,0,14,,,,12,,,69,116
799680,note_on,,,,,0,0,14,,,,12,,,71,116
799680,note_on,,,,,48,0,12,,,,10,,,78,116
799680,note_on,,,,,48,0,13,,,,11,,,78,116
799680,note_on,,,,,48,0,1,,,,0,,,78,105
799920,note_on,,,,,240,0,1,,,,0,,,78,0
799920,note_on,,,,,240,0,12,,,,10,,,78,0
799920,note_on,,,,,0,0,12,,,,10,,,75,116
799920,note_on,,,,,0,0,13,,,,11,,,75,116
799920,note_on,,,,,240,0,13,,,,11,,,78,0
799920,note_on,,,,,0,0,1,,,,0,,,75,105
799968,note_on,,,,,768,0,15,,,,13,,,60,0
799968,note_on,,,,,768,0,9,,,,5,,,60,0
799968,note_on,,,,,768,0,8,,,,4,,,64,0
800160,note_on,,,,,240,0,13,,,,11,,,75,0
800160,note_on,,,,,192,0,15,,,,13,,,60,127
800160,note_on,,,,,0,0,13,,,,11,,,76,116
800160,note_on,,,,,192,0,9,,,,5,,,60,116
800160,note_on,,,,,4992,0,16,,,,14,,,48,127
800160,note_on,,,,,480,0,14,,,,12,,,71,0
800160,note_on,,,,,0,0,14,,,,12,,,72,116
800160,note_on,,,,,0,0,1,,,,0,,,76,105
800160,note_on,,,,,240,0,1,,,,0,,,75,0
800160,note_on,,,,,240,0,12,,,,10,,,75,0
800160,note_on,,,,,192,0,8,,,,4,,,64,116
800160,note_on,,,,,0,0,12,,,,10,,,76,116
800352,note_on,,,,,192,0,1,,,,0,,,76,0
800352,note_on,,,,,192,0,13,,,,11,,,76,0
800352,note_on,,,,,192,0,12,,,,10,,,76,0
800400,note_on,,,,,48,0,13,,,,11,,,83,116
800400,note_on,,,,,48,0,12,,,,10,,,83,116
800400,note_on,,,,,48,0,1,,,,0,,,83,105
800640,note_on,,,,,240,0,13,,,,11,,,83,0
800640,note_on,,,,,0,0,13,,,,11,,,80,116
800640,note_on,,,,,0,0,14,,,,12,,,69,0
800640,note_on,,,,,480,0,14,,,,12,,,72,0
800640,note_on,,,,,240,0,1,,,,0,,,83,0
800640,note_on,,,,,0,0,14,,,,12,,,77,116
800640,note_on,,,,,0,0,14,,,,12,,,74,116
800640,note_on,,,,,240,0,12,,,,10,,,83,0
800640,note_on,,,,,0,0,12,,,,10,,,80,116
800640,note_on,,,,,0,0,1,,,,0,,,80,105
800880,note_on,,,,,240,0,1,,,,0,,,80,0
800880,note_on,,,,,0,0,1,,,,0,,,81,105
800880,note_on,,,,,240,0,13,,,,11,,,80,0
800880,note_on,,,,,0,0,13,,,,11,,,81,116
800880,note_on,,,,,240,0,12,,,,10,,,80,0
800880,note_on,,,,,0,0,12,,,,10,,,81,116
800928,note_on,,,,,768,0,9,,,,5,,,60,0
800952,note_on,,,,,792,0,15,,,,13,,,60,0
800952,note_on,,,,,792,0,16,,,,14,,,48,0
801024,note_on,,,,,864,0,8,,,,4,,,64,0
801120,note_on,,,,,0,0,14,,,,12,,,76,116
801120,note_on,,,,,240,0,12,,,,10,,,81,0
801120,note_on,,,,,0,0,12,,,,10,,,84,116
801120,note_on,,,,,0,0,14,,,,12,,,72,116
801120,note_on,,,,,0,0,14,,,,12,,,77,0
801120,note_on,,,,,480,0,14,,,,12,,,74,0
801120,note_on,,,,,0,0,1,,,,0,,,84,105
801120,note_on,,,,,240,0,1,,,,0,,,81,0
801120,note_on,,,,,192,0,9,,,,5,,,60,116
801120,note_on,,,,,0,0,13,,,,11,,,72,116
801120,note_on,,,,,96,0,8,,,,4,,,64,116
801120,note_on,,,,,240,0,13,,,,11,,,81,0
801120,note_on,,,,,168,0,15,,,,13,,,57,116
801120,note_on,,,,,168,0,16,,,,14,,,45,116
801312,note_on,,,,,192,0,13,,,,11,,,72,0
801312,note_on,,,,,192,0,1,,,,0,,,84,0
801312,note_on,,,,,192,0,12,,,,10,,,84,0
801360,note_on,,,,,48,0,13,,,,11,,,72,116
801360,note_on,,,,,48,0,1,,,,0,,,84,105
801360,note_on,,,,,48,0,12,,,,10,,,84,116
801408,note_on,,,,,288,0,14,,,,12,,,72,0
801408,note_on,,,,,0,0,14,,,,12,,,76,0
801432,note_on,,,,,312,0,15,,,,13,,,57,0
801432,note_on,,,,,312,0,16,,,,14,,,45,0
801600,note_on,,,,,0,0,12,,,,10,,,88,116
801600,note_on,,,,,240,0,12,,,,10,,,84,0
801600,note_on,,,,,0,0,13,,,,11,,,76,116
801600,note_on,,,,,0,0,14,,,,12,,,72,116
801600,note_on,,,,,0,0,1,,,,0,,,88,105
801600,note_on,,,,,240,0,1,,,,0,,,84,0
801600,note_on,,,,,192,0,14,,,,12,,,69,116
801600,note_on,,,,,168,0,16,,,,14,,,40,116
801600,note_on,,,,,240,0,13,,,,11,,,72,0
801600,note_on,,,,,168,0,15,,,,13,,,52,116
801792,note_on,,,,,192,0,1,,,,0,,,88,0
801792,note_on,,,,,192,0,13,,,,11,,,76,0
801792,note_on,,,,,192,0,12,,,,10,,,88,0
801840,note_on,,,,,48,0,12,,,,10,,,88,116
801840,note_on,,,,,48,0,1,,,,0,,,88,105
801840,note_on,,,,,48,0,13,,,,11,,,76,116
801888,note_on,,,,,768,0,9,,,,5,,,60,0
801888,note_on,,,,,768,0,8,,,,4,,,64,0
801888,note_on,,,,,288,0,14,,,,12,,,72,0
801888,note_on,,,,,0,0,14,,,,12,,,69,0
801912,note_on,,,,,312,0,16,,,,14,,,40,0
801912,note_on,,,,,312,0,15,,,,13,,,52,0
802080,note_on,,,,,0,0,1,,,,0,,,93,105
802080,note_on,,,,,240,0,1,,,,0,,,88,0
802080,note_on,,,,,168,0,16,,,,14,,,36,116
802080,note_on,,,,,192,0,8,,,,4,,,64,116
802080,note_on,,,,,168,0,15,,,,13,,,48,116
802080,note_on,,,,,0,0,14,,,,12,,,69,116
802080,note_on,,,,,240,0,13,,,,11,,,76,0
802080,note_on,,,,,0,0,13,,,,11,,,81,116
802080,note_on,,,,,0,0,12,,,,10,,,93,116
802080,note_on,,,,,240,0,12,,,,10,,,88,0
802080,note_on,,,,,0,0,12,,,,10,,,81,116
802080,note_on,,,,,192,0,9,,,,5,,,60,116
802080,note_on,,,,,192,0,14,,,,12,,,64,116
802272,note_on,,,,,192,0,13,,,,11,,,81,0
802272,note_on,,,,,192,0,1,,,,0,,,93,0
802272,note_on,,,,,192,0,12,,,,10,,,93,0
802272,note_on,,,,,0,0,12,,,,10,,,81,0
802320,note_on,,,,,48,0,1,,,,0,,,93,105
802320,note_on,,,,,48,0,13,,,,11,,,81,116
802320,note_on,,,,,48,0,12,,,,10,,,81,116
802320,note_on,,,,,0,0,12,,,,10,,,93,116
802368,note_on,,,,,288,0,14,,,,12,,,69,0
802368,note_on,,,,,0,0,14,,,,12,,,64,0
802392,note_on,,,,,312,0,16,,,,14,,,36,0
802392,note_on,,,,,312,0,15,,,,13,,,48,0
802560,note_on,,,,,0,0,14,,,,12,,,60,105
802560,note_on,,,,,0,0,1,,,,0,,,96,105
802560,note_on,,,,,240,0,12,,,,10,,,93,0
802560,note_on,,,,,0,0,12,,,,10,,,81,0
802560,note_on,,,,,0,0,12,,,,10,,,84,116
802560,note_on,,,,,0,0,12,,,,10,,,96,116
802560,note_on,,,,,168,0,16,,,,14,,,33,116
802560,note_on,,,,,240,0,1,,,,0,,,93,0
802560,note_on,,,,,240,0,13,,,,11,,,81,0
802560,note_on,,,,,192,0,14,,,,12,,,64,105
802560,note_on,,,,,168,0,15,,,,13,,,45,116
802560,note_on,,,,,0,0,13,,,,11,,,84,116
802576,set_tempo,,,,,15360,1,0,454545,,,,,,,
802848,note_on,,,,,288,0,15,,,,13,,,45,0
802848,note_on,,,,,0,0,14,,,,12,,,64,0
802848,note_on,,,,,288,0,14,,,,12,,,60,0
802848,note_on,,,,,768,0,9,,,,5,,,60,0
802848,note_on,,,,,288,0,12,,,,10,,,96,0
802848,note_on,,,,,0,0,12,,,,10,,,84,0
802848,note_on,,,,,288,0,1,,,,0,,,96,0
802848,note_on,,,,,288,0,16,,,,14,,,33,0
802848,note_on,,,,,288,0,13,,,,11,,,84,0
802848,note_on,,,,,768,0,8,,,,4,,,64,0
803040,note_on,,,,,0,0,4,,,,2,,,79,105
803040,note_on,,,,,192,0,1,,,,0,,,95,105
803040,note_on,,,,,0,0,1,,,,0,,,91,105
803040,note_on,,,,,7872,0,3,,,,1,,,79,105
803040,note_on,,,,,0,0,3,,,,1,,,83,105
803040,note_on,,,,,0,0,12,,,,10,,,83,116
803040,note_on,,,,,192,0,14,,,,12,,,55,105
803040,note_on,,,,,0,0,14,,,,12,,,67,105
803040,note_on,,,,,0,0,15,,,,13,,,55,116
803040,note_on,,,,,192,0,15,,,,13,,,40,116
803040,note_on,,,,,7872,0,6,,,,3,,,43,105
803040,note_on,,,,,0,0,13,,,,11,,,83,116
803040,note_on,,,,,192,0,13,,,,11,,,79,116
803040,note_on,,,,,0,0,6,,,,3,,,55,105
803040,note_on,,,,,192,0,16,,,,14,,,28,116
803040,note_on,,,,,192,0,12,,,,10,,,95,116
803040,note_on,,,,,7872,0,4,,,,2,,,83,105
803088,set_tempo,,,,,512,1,0,389610,,,,,,,
803520,note_on,,,,,0,0,12,,,,10,,,94,116
803520,note_on,,,,,0,0,12,,,,10,,,95,0
803520,note_on,,,,,480,0,12,,,,10,,,83,0
803520,note_on,,,,,0,0,3,,,,1,,,78,105
803520,note_on,,,,,0,0,3,,,,1,,,82,105
803520,note_on,,,,,0,0,13,,,,11,,,78,116
803520,note_on,,,,,480,0,3,,,,1,,,83,0
803520,note_on,,,,,0,0,1,,,,0,,,94,105
803520,note_on,,,,,0,0,1,,,,0,,,90,105
803520,note_on,,,,,0,0,1,,,,0,,,95,0
803520,note_on,,,,,480,0,1,,,,0,,,91,0
803520,note_on,,,,,480,0,13,,,,11,,,83,0
803520,note_on,,,,,0,0,13,,,,11,,,79,0
803520,note_on,,,,,0,0,3,,,,1,,,79,0
803520,note_on,,,,,0,0,13,,,,11,,,82,116
803520,note_on,,,,,0,0,4,,,,2,,,78,105
803520,note_on,,,,,0,0,12,,,,10,,,82,116
803520,note_on,,,,,0,0,4,,,,2,,,82,105
803520,note_on,,,,,0,0,4,,,,2,,,83,0
803520,note_on,,,,,480,0,4,,,,2,,,79,0
803904,note_on,,,,,0,0,15,,,,13,,,40,0
803904,note_on,,,,,864,0,6,,,,3,,,55,0
803904,note_on,,,,,864,0,15,,,,13,,,55,0
803904,note_on,,,,,0,0,6,,,,3,,,43,0
803904,note_on,,,,,864,0,14,,,,12,,,67,0
803904,note_on,,,,,0,0,14,,,,12,,,55,0
803904,note_on,,,,,864,0,16,,,,14,,,28,0
804000,note_on,,,,,0,0,13,,,,11,,,78,0
804000,note_on,,,,,0,0,13,,,,11,,,79,116
804000,note_on,,,,,0,0,13,,,,11,,,76,116
804000,note_on,,,,,0,0,3,,,,1,,,82,0
804000,note_on,,,,,480,0,3,,,,1,,,78,0
804000,note_on,,,,,0,0,1,,,,0,,,88,105
804000,note_on,,,,,0,0,3,,,,1,,,79,105
804000,note_on,,,,,480,0,12,,,,10,,,94,0
804000,note_on,,,,,0,0,1,,,,0,,,91,105
804000,note_on,,,,,0,0,12,,,,10,,,91,116
804000,note_on,,,,,480,0,1,,,,0,,,94,0
804000,note_on,,,,,480,0,13,,,,11,,,82,0
804000,note_on,,,,,0,0,12,,,,10,,,79,116
804000,note_on,,,,,0,0,4,,,,2,,,82,0
804000,note_on,,,,,0,0,3,,,,1,,,76,105
804000,note_on,,,,,0,0,12,,,,10,,,82,0
804000,note_on,,,,,96,0,16,,,,14,,,30,116
804000,note_on,,,,,0,0,6,,,,3,,,58,105
804000,note_on,,,,,96,0,6,,,,3,,,42,105
804000,note_on,,,,,0,0,1,,,,0,,,90,0
804000,note_on,,,,,480,0,4,,,,2,,,78,0
804000,note_on,,,,,0,0,4,,,,2,,,76,105
804000,note_on,,,,,0,0,4,,,,2,,,79,105
804000,note_on,,,,,0,0,14,,,,12,,,70,105
804000,note_on,,,,,96,0,15,,,,13,,,58,116
804000,note_on,,,,,0,0,15,,,,13,,,42,116
804000,note_on,,,,,96,0,14,,,,12,,,58,105
804480,note_on,,,,,0,0,13,,,,11,,,78,116
804480,note_on,,,,,0,0,1,,,,0,,,91,0
804480,note_on,,,,,480,0,1,,,,0,,,88,0
804480,note_on,,,,,480,0,13,,,,11,,,76,0
804480,note_on,,,,,0,0,13,,,,11,,,79,0
804480,note_on,,,,,0,0,13,,,,11,,,75,116
804480,note_on,,,,,0,0,12,,,,10,,,78,116
804480,note_on,,,,,0,0,1,,,,0,,,87,105
804480,note_on,,,,,0,0,12,,,,10,,,91,0
804480,note_on,,,,,480,0,3,,,,1,,,76,0
804480,note_on,,,,,0,0,12,,,,10,,,90,116
804480,note_on,,,,,0,0,3,,,,1,,,78,105
804480,note_on,,,,,480,0,4,,,,2,,,79,0
804480,note_on,,,,,0,0,4,,,,2,,,75,105
804480,note_on,,,,,0,0,4,,,,2,,,76,0
804480,note_on,,,,,0,0,4,,,,2,,,78,105
804480,note_on,,,,,0,0,3,,,,1,,,79,0
804480,note_on,,,,,0,0,1,,,,0,,,90,105
804480,note_on,,,,,480,0,12,,,,10,,,79,0
804480,note_on,,,,,0,0,3,,,,1,,,75,105
804864,note_on,,,,,0,0,15,,,,13,,,58,0
804864,note_on,,,,,864,0,16,,,,14,,,30,0
804864,note_on,,,,,864,0,14,,,,12,,,70,0
804864,note_on,,,,,0,0,14,,,,12,,,58,0
804864,note_on,,,,,864,0,15,,,,13,,,42,0
804912,note_on,,,,,0,0,6,,,,3,,,42,0
804912,note_on,,,,,912,0,6,,,,3,,,58,0
804960,note_on,,,,,0,0,12,,,,10,,,76,116
804960,note_on,,,,,480,0,13,,,,11,,,78,0
804960,note_on,,,,,0,0,12,,,,10,,,90,0
804960,note_on,,,,,0,0,13,,,,11,,,76,116
804960,note_on,,,,,480,0,12,,,,10,,,78,0
804960,note_on,,,,,0,0,13,,,,11,,,75,0
804960,note_on,,,,,0,0,1,,,,0,,,88,105
804960,note_on,,,,,0,0,1,,,,0,,,87,0
804960,note_on,,,,,96,0,14,,,,12,,,59,105
804960,note_on,,,,,0,0,14,,,,12,,,71,105
804960,note_on,,,,,0,0,3,,,,1,,,76,105
804960,note_on,,,,,0,0,3,,,,1,,,78,0
804960,note_on,,,,,480,0,3,,,,1,,,75,0
804960,note_on,,,,,480,0,1,,,,0,,,90,0
804960,note_on,,,,,0,0,4,,,,2,,,75,0
804960,note_on,,,,,0,0,4,,,,2,,,76,105
804960,note_on,,,,,96,0,15,,,,13,,,59,116
804960,note_on,,,,,96,0,16,,,,14,,,31,116
804960,note_on,,,,,48,0,6,,,,3,,,43,105
804960,note_on,,,,,0,0,12,,,,10,,,88,116
804960,note_on,,,,,0,0,15,,,,13,,,43,116
804960,note_on,,,,,480,0,4,,,,2,,,78,0
804960,note_on,,,,,0,0,6,,,,3,,,59,105
805344,note_on,,,,,384,0,4,,,,2,,,76,0
805344,note_on,,,,,384,0,3,,,,1,,,76,0
805440,note_on,,,,,0,0,16,,,,14,,,33,116
805440,note_on,,,,,96,0,4,,,,2,,,71,105
805440,note_on,,,,,480,0,16,,,,14,,,31,0
805440,note_on,,,,,0,0,4,,,,2,,,83,105
805440,note_on,,,,,0,0,1,,,,0,,,83,105
805440,note_on,,,,,0,0,6,,,,3,,,43,0
805440,note_on,,,,,480,0,14,,,,12,,,71,0
805440,note_on,,,,,0,0,3,,,,1,,,71,105
805440,note_on,,,,,96,0,3,,,,1,,,83,105
805440,note_on,,,,,0,0,15,,,,13,,,60,116
805440,note_on,,,,,0,0,15,,,,13,,,45,116
805440,note_on,,,,,0,0,14,,,,12,,,59,0
805440,note_on,,,,,0,0,14,,,,12,,,60,105
805440,note_on,,,,,480,0,6,,,,3,,,59,0
805440,note_on,,,,,0,0,12,,,,10,,,83,116
805440,note_on,,,,,0,0,14,,,,12,,,72,105
805440,note_on,,,,,480,0,12,,,,10,,,88,0
805440,note_on,,,,,0,0,15,,,,13,,,59,0
805440,note_on,,,,,480,0,1,,,,0,,,88,0
805440,note_on,,,,,480,0,15,,,,13,,,43,0
805440,note_on,,,,,480,0,13,,,,11,,,76,0
805440,note_on,,,,,0,0,12,,,,10,,,76,0
805440,note_on,,,,,0,0,13,,,,11,,,71,116
805440,note_on,,,,,0,0,6,,,,3,,,45,105
805440,note_on,,,,,0,0,6,,,,3,,,60,105
805920,note_on,,,,,0,0,14,,,,12,,,63,105
805920,note_on,,,,,0,0,14,,,,12,,,75,105
805920,note_on,,,,,0,0,15,,,,13,,,63,116
805920,note_on,,,,,0,0,15,,,,13,,,45,0
805920,note_on,,,,,0,0,15,,,,13,,,47,116
805920,note_on,,,,,480,0,14,,,,12,,,72,0
805920,note_on,,,,,480,0,15,,,,13,,,60,0
805920,note_on,,,,,0,0,14,,,,12,,,60,0
805920,note_on,,,,,0,0,6,,,,3,,,60,0
805920,note_on,,,,,0,0,6,,,,3,,,47,105
805920,note_on,,,,,480,0,4,,,,2,,,83,0
805920,note_on,,,,,0,0,3,,,,1,,,69,105
805920,note_on,,,,,0,0,3,,,,1,,,81,105
805920,note_on,,,,,0,0,3,,,,1,,,83,0
805920,note_on,,,,,480,0,3,,,,1,,,71,0
805920,note_on,,,,,480,0,6,,,,3,,,45,0
805920,note_on,,,,,480,0,16,,,,14,,,33,0
805920,note_on,,,,,0,0,4,,,,2,,,71,0
805920,note_on,,,,,0,0,4,,,,2,,,81,105
805920,note_on,,,,,0,0,4,,,,2,,,69,105
805920,note_on,,,,,0,0,6,,,,3,,,63,105
805920,note_on,,,,,0,0,16,,,,14,,,35,116
806208,note_on,,,,,768,0,1,,,,0,,,83,0
806304,note_on,,,,,384,0,4,,,,2,,,69,0
806304,note_on,,,,,0,0,4,,,,2,,,81,0
806304,note_on,,,,,384,0,3,,,,1,,,69,0
806304,note_on,,,,,0,0,3,,,,1,,,81,0
806400,note_on,,,,,0,0,14,,,,12,,,63,0
806400,note_on,,,,,0,0,16,,,,14,,,36,116
806400,note_on,,,,,480,0,16,,,,14,,,35,0
806400,note_on,,,,,0,0,14,,,,12,,,76,105
806400,note_on,,,,,0,0,6,,,,3,,,48,105
806400,note_on,,,,,0,0,6,,,,3,,,64,105
806400,note_on,,,,,0,0,3,,,,1,,,69,105
806400,note_on,,,,,480,0,14,,,,12,,,75,0
806400,note_on,,,,,0,0,15,,,,13,,,63,0
806400,note_on,,,,,480,0,15,,,,13,,,47,0
806400,note_on,,,,,0,0,15,,,,13,,,64,116
806400,note_on,,,,,0,0,6,,,,3,,,47,0
806400,note_on,,,,,0,0,14,,,,12,,,64,105
806400,note_on,,,,,480,0,6,,,,3,,,63,0
806400,note_on,,,,,96,0,3,,,,1,,,76,105
806400,note_on,,,,,96,0,4,,,,2,,,69,105
806400,note_on,,,,,0,0,15,,,,13,,,48,116
806400,note_on,,,,,0,0,4,,,,2,,,76,105
806640,note_on,,,,,1200,0,13,,,,11,,,71,0
806640,note_on,,,,,0,0,13,,,,11,,,69,116
806640,note_on,,,,,1200,0,12,,,,10,,,83,0
806640,note_on,,,,,0,0,12,,,,10,,,81,116
806880,note_on,,,,,0,0,13,,,,11,,,79,116
806880,note_on,,,,,0,0,6,,,,3,,,51,105
806880,note_on,,,,,0,0,6,,,,3,,,66,105
806880,note_on,,,,,0,0,6,,,,3,,,66,105
806880,note_on,,,,,0,0,6,,,,3,,,66,105
806880,note_on,,,,,480,0,6,,,,3,,,64,0
806880,note_on,,,,,0,0,6,,,,3,,,48,0
806880,note_on,,,,,0,0,3,,,,1,,,78,105
806880,note_on,,,,,240,0,13,,,,11,,,69,0
806880,note_on,,,,,0,0,4,,,,2,,,78,105
806880,note_on,,,,,480,0,4,,,,2,,,76,0
806880,note_on,,,,,240,0,12,,,,10,,,81,0
806880,note_on,,,,,480,0,3,,,,1,,,76,0
806880,note_on,,,,,480,0,15,,,,13,,,64,0
806880,note_on,,,,,0,0,15,,,,13,,,48,0
806880,note_on,,,,,0,0,15,,,,13,,,66,116
806880,note_on,,,,,0,0,15,,,,13,,,51,116
806880,note_on,,,,,480,0,16,,,,14,,,36,0
806880,note_on,,,,,0,0,16,,,,14,,,39,116
806880,note_on,,,,,480,0,14,,,,12,,,76,0
806880,note_on,,,,,0,0,14,,,,12,,,64,0
806880,note_on,,,,,0,0,14,,,,12,,,66,105
806880,note_on,,,,,0,0,12,,,,10,,,91,116
806880,note_on,,,,,0,0,14,,,,12,,,78,105
807120,note_on,,,,,240,0,13,,,,11,,,79,0
807120,note_on,,,,,0,0,12,,,,10,,,90,116
807120,note_on,,,,,240,0,12,,,,10,,,91,0
807120,note_on,,,,,0,0,13,,,,11,,,78,116
807264,note_on,,,,,384,0,14,,,,12,,,78,0
807264,note_on,,,,,0,0,14,,,,12,,,66,0
807264,note_on,,,,,384,0,16,,,,14,,,39,0
807264,note_on,,,,,384,0,4,,,,2,,,78,0
807264,note_on,,,,,0,0,4,,,,2,,,69,0
807264,note_on,,,,,384,0,3,,,,1,,,78,0
807264,note_on,,,,,0,0,3,,,,1,,,69,0
807264,note_on,,,,,384,0,6,,,,3,,,66,0
807264,note_on,,,,,0,0,6,,,,3,,,66,0
807264,note_on,,,,,0,0,15,,,,13,,,66,0
807264,note_on,,,,,0,0,6,,,,3,,,51,0
807264,note_on,,,,,0,0,6,,,,3,,,66,0
807264,note_on,,,,,384,0,15,,,,13,,,51,0
807312,note_on,,,,,192,0,13,,,,11,,,78,0
807312,note_on,,,,,192,0,12,,,,10,,,90,0
807360,note_on,,,,,0,0,15,,,,13,,,52,116
807360,note_on,,,,,0,0,3,,,,1,,,67,105
807360,note_on,,,,,96,0,15,,,,13,,,59,116
807360,note_on,,,,,48,0,12,,,,10,,,79,116
807360,note_on,,,,,0,0,4,,,,2,,,67,105
807360,note_on,,,,,0,0,14,,,,12,,,67,105
807360,note_on,,,,,96,0,14,,,,12,,,71,105
807360,note_on,,,,,96,0,4,,,,2,,,71,105
807360,note_on,,,,,96,0,16,,,,14,,,40,116
807360,note_on,,,,,0,0,6,,,,3,,,52,105
807360,note_on,,,,,96,0,6,,,,3,,,59,105
807360,note_on,,,,,96,0,3,,,,1,,,71,105
807360,note_on,,,,,48,0,13,,,,11,,,67,116
807488,note_on,,,,,0,0,14,,,,12,,,71,0
807488,note_on,,,,,128,0,14,,,,12,,,67,0
807520,note_on,,,,,0,0,14,,,,12,,,67,105
807520,note_on,,,,,32,0,14,,,,12,,,71,105
807600,note_on,,,,,240,0,13,,,,11,,,67,0
807600,note_on,,,,,0,0,13,,,,11,,,78,116
807600,note_on,,,,,240,0,12,,,,10,,,79,0
807600,note_on,,,,,0,0,12,,,,10,,,90,116
807648,note_on,,,,,128,0,14,,,,12,,,67,0
807648,note_on,,,,,0,0,14,,,,12,,,71,0
807680,note_on,,,,,32,0,14,,,,12,,,71,105
807680,note_on,,,,,0,0,14,,,,12,,,67,105
807744,note_on,,,,,384,0,6,,,,3,,,52,0
807744,note_on,,,,,0,0,6,,,,3,,,59,0
807744,note_on,,,,,384,0,16,,,,14,,,40,0
807744,note_on,,,,,384,0,15,,,,13,,,52,0
807744,note_on,,,,,0,0,15,,,,13,,,59,0
807808,note_on,,,,,0,0,14,,,,12,,,71,0
807808,note_on,,,,,128,0,14,,,,12,,,67,0
807840,note_on,,,,,0,0,13,,,,11,,,76,116
807840,note_on,,,,,4992,0,9,,,,5,,,48,116
807840,note_on,,,,,96,0,16,,,,14,,,36,116
807840,note_on,,,,,96,0,15,,,,13,,,64,116
807840,note_on,,,,,240,0,13,,,,11,,,78,0
807840,note_on,,,,,4992,0,8,,,,4,,,64,116
807840,note_on,,,,,0,0,15,,,,13,,,48,116
807840,note_on,,,,,0,0,3,,,,1,,,76,105
807840,note_on,,,,,0,0,14,,,,12,,,67,105
807840,note_on,,,,,96,0,6,,,,3,,,48,105
807840,note_on,,,,,0,0,6,,,,3,,,64,105
807840,note_on,,,,,32,0,14,,,,12,,,76,105
807840,note_on,,,,,480,0,3,,,,1,,,71,0
807840,note_on,,,,,0,0,12,,,,10,,,88,116
807840,note_on,,,,,240,0,12,,,,10,,,90,0
807840,note_on,,,,,12672,0,10,,,,6,,,64,116
807840,note_on,,,,,480,0,4,,,,2,,,71,0
807840,note_on,,,,,0,0,4,,,,2,,,76,105
807968,note_on,,,,,128,0,14,,,,12,,,67,0
807968,note_on,,,,,0,0,14,,,,12,,,76,0
808000,note_on,,,,,32,0,14,,,,12,,,76,105
808000,note_on,,,,,0,0,14,,,,12,,,67,105
808032,note_on,,,,,192,0,12,,,,10,,,88,0
808032,note_on,,,,,192,0,13,,,,11,,,76,0
808080,note_on,,,,,48,0,13,,,,11,,,64,116
808080,note_on,,,,,48,0,12,,,,10,,,76,116
808128,note_on,,,,,128,0,14,,,,12,,,67,0
808128,note_on,,,,,0,0,14,,,,12,,,76,0
808160,note_on,,,,,32,0,14,,,,12,,,76,105
808160,note_on,,,,,0,0,14,,,,12,,,67,105
808224,note_on,,,,,0,0,4,,,,2,,,67,0
808224,note_on,,,,,0,0,3,,,,1,,,67,0
808224,note_on,,,,,384,0,16,,,,14,,,36,0
808224,note_on,,,,,384,0,6,,,,3,,,64,0
808224,note_on,,,,,0,0,6,,,,3,,,48,0
808224,note_on,,,,,384,0,8,,,,4,,,64,0
808224,note_on,,,,,384,0,9,,,,5,,,48,0
808224,note_on,,,,,384,0,4,,,,2,,,76,0
808224,note_on,,,,,384,0,3,,,,1,,,76,0
808224,note_on,,,,,384,0,10,,,,6,,,64,0
808224,note_on,,,,,0,0,15,,,,13,,,64,0
808224,note_on,,,,,384,0,15,,,,13,,,48,0
808288,note_on,,,,,128,0,14,,,,12,,,67,0
808288,note_on,,,,,0,0,14,,,,12,,,76,0
808320,note_on,,,,,96,0,4,,,,2,,,64,105
808320,note_on,,,,,96,0,3,,,,1,,,66,105
808320,note_on,,,,,96,0,16,,,,14,,,33,116
808320,note_on,,,,,0,0,4,,,,2,,,66,105
808320,note_on,,,,,0,0,3,,,,1,,,64,105
808320,note_on,,,,,0,0,14,,,,12,,,66,105
808320,note_on,,,,,32,0,14,,,,12,,,64,105
808320,note_on,,,,,0,0,8,,,,4,,,66,116
808320,note_on,,,,,240,0,13,,,,11,,,64,0
808320,note_on,,,,,0,0,13,,,,11,,,74,116
808320,note_on,,,,,96,0,6,,,,3,,,45,105
808320,note_on,,,,,96,0,9,,,,5,,,60,116
808320,note_on,,,,,0,0,10,,,,6,,,76,116
808320,note_on,,,,,240,0,12,,,,10,,,76,0
808320,note_on,,,,,96,0,15,,,,13,,,45,116
808320,note_on,,,,,96,0,10,,,,6,,,64,116
808320,note_on,,,,,96,0,8,,,,4,,,64,116
808320,note_on,,,,,0,0,12,,,,10,,,86,116
808448,note_on,,,,,128,0,14,,,,12,,,66,0
808448,note_on,,,,,0,0,14,,,,12,,,64,0
808480,note_on,,,,,32,0,14,,,,12,,,64,105
808480,note_on,,,,,0,0,14,,,,12,,,66,105
808560,note_on,,,,,240,0,12,,,,10,,,86,0
808560,note_on,,,,,0,0,12,,,,10,,,84,116
808560,note_on,,,,,240,0,13,,,,11,,,74,0
808560,note_on,,,,,0,0,13,,,,11,,,72,116
808608,note_on,,,,,128,0,14,,,,12,,,66,0
808608,note_on,,,,,0,0,14,,,,12,,,64,0
808608,note_on,,,,,288,0,3,,,,1,,,64,0
808608,note_on,,,,,0,0,3,,,,1,,,66,0
808608,note_on,,,,,288,0,4,,,,2,,,66,0
808608,note_on,,,,,0,0,4,,,,2,,,64,0
808640,note_on,,,,,32,0,14,,,,12,,,64,105
808640,note_on,,,,,0,0,14,,,,12,,,66,105
808704,note_on,,,,,384,0,16,,,,14,,,33,0
808704,note_on,,,,,384,0,8,,,,4,,,66,0
808704,note_on,,,,,0,0,8,,,,4,,,64,0
808704,note_on,,,,,384,0,15,,,,13,,,45,0
808704,note_on,,,,,384,0,6,,,,3,,,45,0
808704,note_on,,,,,0,0,10,,,,6,,,64,0
808704,note_on,,,,,384,0,9,,,,5,,,60,0
808704,note_on,,,,,384,0,10,,,,6,,,76,0
808768,note_on,,,,,128,0,14,,,,12,,,66,0
808768,note_on,,,,,0,0,14,,,,12,,,64,0
808800,note_on,,,,,0,0,10,,,,6,,,64,116
808800,note_on,,,,,96,0,10,,,,6,,,76,116
808800,note_on,,,,,32,0,14,,,,12,,,64,105
808800,note_on,,,,,0,0,14,,,,12,,,66,105
808800,note_on,,,,,96,0,8,,,,4,,,64,116
808800,note_on,,,,,96,0,16,,,,14,,,45,116
808800,note_on,,,,,0,0,8,,,,4,,,66,116
808800,note_on,,,,,0,0,12,,,,10,,,81,116
808800,note_on,,,,,0,0,13,,,,11,,,78,116
808800,note_on,,,,,240,0,13,,,,11,,,72,0
808800,note_on,,,,,96,0,9,,,,5,,,60,116
808800,note_on,,,,,96,0,6,,,,3,,,57,105
808800,note_on,,,,,96,0,15,,,,13,,,57,116
808800,note_on,,,,,240,0,12,,,,10,,,84,0
808928,note_on,,,,,128,0,14,,,,12,,,66,0
808928,note_on,,,,,0,0,14,,,,12,,,64,0
808960,note_on,,,,,32,0,14,,,,12,,,64,105
808960,note_on,,,,,0,0,14,,,,12,,,66,105
808992,note_on,,,,,192,0,12,,,,10,,,81,0
808992,note_on,,,,,192,0,13,,,,11,,,78,0
809040,note_on,,,,,48,0,12,,,,10,,,81,116
809040,note_on,,,,,48,0,13,,,,11,,,78,116
809088,note_on,,,,,128,0,14,,,,12,,,66,0
809088,note_on,,,,,0,0,14,,,,12,,,64,0
809120,note_on,,,,,32,0,14,,,,12,,,64,105
809120,note_on,,,,,0,0,14,,,,12,,,66,105
809248,note_on,,,,,0,0,14,,,,12,,,64,0
809248,note_on,,,,,128,0,14,,,,12,,,66,0
809280,note_on,,,,,0,0,14,,,,12,,,66,105
809280,note_on,,,,,240,0,12,,,,10,,,81,0
809280,note_on,,,,,0,0,12,,,,10,,,78,116
809280,note_on,,,,,240,0,13,,,,11,,,78,0
809280,note_on,,,,,0,0,13,,,,11,,,72,116
809280,note_on,,,,,32,0,14,,,,12,,,64,105
809408,note_on,,,,,128,0,14,,,,12,,,66,0
809408,note_on,,,,,0,0,14,,,,12,,,64,0
809440,note_on,,,,,32,0,14,,,,12,,,66,105
809440,note_on,,,,,0,0,14,,,,12,,,64,105
809472,note_on,,,,,192,0,13,,,,11,,,72,0
809472,note_on,,,,,192,0,12,,,,10,,,78,0
809520,note_on,,,,,48,0,12,,,,10,,,78,116
809520,note_on,,,,,48,0,13,,,,11,,,72,116
809568,note_on,,,,,0,0,8,,,,4,,,64,0
809568,note_on,,,,,0,0,10,,,,6,,,76,0
809568,note_on,,,,,768,0,6,,,,3,,,57,0
809568,note_on,,,,,768,0,16,,,,14,,,45,0
809568,note_on,,,,,768,0,10,,,,6,,,64,0
809568,note_on,,,,,768,0,9,,,,5,,,60,0
809568,note_on,,,,,768,0,15,,,,13,,,57,0
809568,note_on,,,,,768,0,8,,,,4,,,66,0
809568,note_on,,,,,128,0,14,,,,12,,,64,0
809568,note_on,,,,,0,0,14,,,,12,,,66,0
809600,note_on,,,,,32,0,14,,,,12,,,66,105
809600,note_on,,,,,0,0,14,,,,12,,,64,105
809728,note_on,,,,,128,0,14,,,,12,,,64,0
809728,note_on,,,,,0,0,14,,,,12,,,66,0
809760,note_on,,,,,0,0,12,,,,10,,,72,116
809760,note_on,,,,,240,0,12,,,,10,,,78,0
809760,note_on,,,,,192,0,10,,,,6,,,76,116
809760,note_on,,,,,0,0,10,,,,6,,,64,116
809760,note_on,,,,,192,0,9,,,,5,,,60,116
809760,note_on,,,,,192,0,15,,,,13,,,45,116
809760,note_on,,,,,0,0,14,,,,12,,,64,105
809760,note_on,,,,,240,0,13,,,,11,,,72,0
809760,note_on,,,,,192,0,8,,,,4,,,66,116
809760,note_on,,,,,0,0,8,,,,4,,,64,116
809760,note_on,,,,,192,0,6,,,,3,,,45,105
809760,note_on,,,,,32,0,14,,,,12,,,66,105
809760,note_on,,,,,192,0,16,,,,14,,,33,116
809760,note_on,,,,,0,0,13,,,,11,,,66,116
809888,note_on,,,,,0,0,14,,,,12,,,66,0
809888,note_on,,,,,128,0,14,,,,12,,,64,0
809920,note_on,,,,,32,0,14,,,,12,,,64,105
809920,note_on,,,,,0,0,14,,,,12,,,66,105
809952,note_on,,,,,192,0,13,,,,11,,,66,0
809952,note_on,,,,,192,0,12,,,,10,,,72,0
810000,note_on,,,,,48,0,12,,,,10,,,72,116
810000,note_on,,,,,48,0,13,,,,11,,,66,116
810048,note_on,,,,,128,0,14,,,,12,,,66,0
810048,note_on,,,,,0,0,14,,,,12,,,64,0
810080,note_on,,,,,0,0,14,,,,12,,,64,105
810080,note_on,,,,,32,0,14,,,,12,,,66,105
810144,note_on,,,,,0,0,8,,,,4,,,66,0
810144,note_on,,,,,384,0,8,,,,4,,,64,0
810144,note_on,,,,,384,0,6,,,,3,,,45,0
810144,note_on,,,,,0,0,10,,,,6,,,76,0
810144,note_on,,,,,384,0,9,,,,5,,,60,0
810144,note_on,,,,,384,0,16,,,,14,,,33,0
810144,note_on,,,,,384,0,15,,,,13,,,45,0
810144,note_on,,,,,384,0,10,,,,6,,,64,0
810208,note_on,,,,,128,0,14,,,,12,,,64,0
810208,note_on,,,,,0,0,14,,,,12,,,66,0
810240,note_on,,,,,96,0,10,,,,6,,,71,105
810240,note_on,,,,,32,0,14,,,,12,,,67,105
810240,note_on,,,,,0,0,14,,,,12,,,64,105
810240,note_on,,,,,96,0,8,,,,4,,,67,105
810240,note_on,,,,,0,0,8,,,,4,,,64,105
810240,note_on,,,,,0,0,13,,,,11,,,67,116
810240,note_on,,,,,96,0,9,,,,5,,,59,116
810240,note_on,,,,,96,0,16,,,,14,,,35,116
810240,note_on,,,,,96,0,6,,,,3,,,47,105
810240,note_on,,,,,96,0,15,,,,13,,,47,116
810240,note_on,,,,,240,0,13,,,,11,,,66,0
810240,note_on,,,,,0,0,10,,,,6,,,59,105
810240,note_on,,,,,240,0,12,,,,10,,,72,0
810240,note_on,,,,,0,0,12,,,,10,,,71,116
810384,note_on,,,,,144,0,9,,,,5,,,59,0
810384,note_on,,,,,144,0,8,,,,4,,,64,0
810384,note_on,,,,,0,0,14,,,,12,,,67,0
810384,note_on,,,,,144,0,13,,,,11,,,67,0
810384,note_on,,,,,0,0,8,,,,4,,,67,0
810384,note_on,,,,,144,0,12,,,,10,,,71,0
810384,note_on,,,,,0,0,10,,,,6,,,71,0
810384,note_on,,,,,144,0,6,,,,3,,,47,0
810384,note_on,,,,,144,0,15,,,,13,,,47,0
810384,note_on,,,,,144,0,10,,,,6,,,59,0
810384,note_on,,,,,144,0,16,,,,14,,,35,0
810384,note_on,,,,,144,0,14,,,,12,,,64,0
810480,note_on,,,,,96,0,12,,,,10,,,59,116
810480,note_on,,,,,96,0,13,,,,11,,,59,116
810576,note_on,,,,,96,0,13,,,,11,,,59,0
810576,note_on,,,,,96,0,12,,,,10,,,59,0
810600,note_on,,,,,24,0,13,,,,11,,,59,116
810600,note_on,,,,,24,0,12,,,,10,,,59,116
810696,note_on,,,,,96,0,13,,,,11,,,59,0
810696,note_on,,,,,96,0,12,,,,10,,,59,0
810720,note_on,,,,,24,0,13,,,,11,,,64,116
810720,note_on,,,,,24,0,12,,,,10,,,64,116
810816,note_on,,,,,96,0,12,,,,10,,,64,0
810816,note_on,,,,,96,0,13,,,,11,,,64,0
810840,note_on,,,,,24,0,13,,,,11,,,64,116
810840,note_on,,,,,24,0,12,,,,10,,,64,116
810936,note_on,,,,,96,0,13,,,,11,,,64,0
810936,note_on,,,,,96,0,12,,,,10,,,64,0
810960,note_on,,,,,24,0,12,,,,10,,,67,116
810960,note_on,,,,,24,0,13,,,,11,,,67,116
811056,note_on,,,,,96,0,12,,,,10,,,67,0
811056,note_on,,,,,96,0,13,,,,11,,,67,0
811080,note_on,,,,,24,0,12,,,,10,,,67,116
811080,note_on,,,,,24,0,13,,,,11,,,67,116
811176,note_on,,,,,96,0,12,,,,10,,,67,0
811176,note_on,,,,,96,0,13,,,,11,,,67,0
811200,note_on,,,,,24,0,13,,,,11,,,72,127
811200,note_on,,,,,2592,0,3,,,,1,,,72,112
811200,note_on,,,,,2592,0,4,,,,2,,,72,92
811200,note_on,,,,,0,0,4,,,,2,,,76,92
811200,note_on,,,,,816,0,14,,,,12,,,60,125
811200,note_on,,,,,816,0,16,,,,14,,,48,127
811200,note_on,,,,,816,0,8,,,,4,,,64,105
811200,note_on,,,,,816,0,15,,,,13,,,60,127
811200,note_on,,,,,816,0,6,,,,3,,,60,125
811200,note_on,,,,,0,0,6,,,,3,,,48,105
811200,note_on,,,,,816,0,10,,,,6,,,64,105
811200,note_on,,,,,816,0,9,,,,5,,,60,127
811200,note_on,,,,,0,0,8,,,,4,,,67,105
811200,note_on,,,,,4992,0,1,,,,0,,,84,112
811200,note_on,,,,,24,0,12,,,,10,,,72,127
811200,note_on,,,,,0,0,10,,,,6,,,76,105
811296,note_on,,,,,96,0,12,,,,10,,,72,0
811296,note_on,,,,,96,0,14,,,,12,,,60,0
811296,note_on,,,,,96,0,13,,,,11,,,72,0
811320,note_on,,,,,24,0,12,,,,10,,,72,127
811320,note_on,,,,,24,0,13,,,,11,,,72,127
811320,note_on,,,,,24,0,14,,,,12,,,60,125
811416,note_on,,,,,96,0,12,,,,10,,,72,0
811416,note_on,,,,,96,0,13,,,,11,,,72,0
811416,note_on,,,,,96,0,14,,,,12,,,60,0
811440,note_on,,,,,24,0,14,,,,12,,,55,105
811440,note_on,,,,,24,0,13,,,,11,,,67,116
811440,note_on,,,,,24,0,12,,,,10,,,67,116
811536,note_on,,,,,96,0,14,,,,12,,,55,0
811536,note_on,,,,,96,0,13,,,,11,,,67,0
811536,note_on,,,,,96,0,12,,,,10,,,67,0
811560,note_on,,,,,24,0,14,,,,12,,,55,105
811560,note_on,,,,,24,0,13,,,,11,,,67,116
811560,note_on,,,,,24,0,12,,,,10,,,67,116
811656,note_on,,,,,96,0,14,,,,12,,,55,0
811656,note_on,,,,,96,0,13,,,,11,,,67,0
811656,note_on,,,,,96,0,12,,,,10,,,67,0
811680,note_on,,,,,24,0,13,,,,11,,,71,116
811680,note_on,,,,,24,0,12,,,,10,,,71,116
811680,note_on,,,,,480,0,15,,,,13,,,60,0
811680,note_on,,,,,0,0,15,,,,13,,,59,116
811680,note_on,,,,,24,0,14,,,,12,,,59,105
811680,note_on,,,,,0,0,16,,,,14,,,47,116
811680,note_on,,,,,480,0,16,,,,14,,,48,0
811680,note_on,,,,,0,0,1,,,,0,,,83,92
811680,note_on,,,,,0,0,6,,,,3,,,47,105
811680,note_on,,,,,0,0,6,,,,3,,,59,105
811680,note_on,,,,,480,0,9,,,,5,,,60,0
811680,note_on,,,,,480,0,1,,,,0,,,84,0
811680,note_on,,,,,480,0,3,,,,1,,,72,0
811680,note_on,,,,,0,0,3,,,,1,,,71,92
811680,note_on,,,,,0,0,6,,,,3,,,60,0
811680,note_on,,,,,480,0,6,,,,3,,,48,0
811680,note_on,,,,,0,0,9,,,,5,,,59,116
811776,note_on,,,,,96,0,12,,,,10,,,71,0
811776,note_on,,,,,96,0,13,,,,11,,,71,0
811800,note_on,,,,,24,0,13,,,,11,,,71,116
811800,note_on,,,,,24,0,12,,,,10,,,71,116
811872,note_on,,,,,192,0,14,,,,12,,,59,0
811896,note_on,,,,,96,0,12,,,,10,,,71,0
811896,note_on,,,,,96,0,13,,,,11,,,71,0
811920,note_on,,,,,24,0,12,,,,10,,,76,116
811920,note_on,,,,,24,0,13,,,,11,,,64,116
811968,note_on,,,,,768,0,8,,,,4,,,67,0
811968,note_on,,,,,768,0,4,,,,2,,,76,0
811968,note_on,,,,,0,0,8,,,,4,,,64,0
811968,note_on,,,,,0,0,4,,,,2,,,72,0
811968,note_on,,,,,768,0,10,,,,6,,,76,0
811968,note_on,,,,,0,0,10,,,,6,,,64,0
812016,note_on,,,,,96,0,13,,,,11,,,64,0
812016,note_on,,,,,96,0,12,,,,10,,,76,0
812040,note_on,,,,,24,0,13,,,,11,,,64,116
812040,note_on,,,,,24,0,12,,,,10,,,76,116
812064,note_on,,,,,384,0,9,,,,5,,,59,0
812064,note_on,,,,,384,0,1,,,,0,,,83,0
812064,note_on,,,,,384,0,15,,,,13,,,59,0
812064,note_on,,,,,384,0,16,,,,14,,,47,0
812064,note_on,,,,,0,0,6,,,,3,,,59,0
812064,note_on,,,,,384,0,6,,,,3,,,47,0
812064,note_on,,,,,384,0,3,,,,1,,,71,0
812136,note_on,,,,,96,0,12,,,,10,,,76,0
812136,note_on,,,,,96,0,13,,,,11,,,64,0
812160,note_on,,,,,24,0,12,,,,10,,,79,116
812160,note_on,,,,,24,0,13,,,,11,,,67,116
812256,note_on,,,,,96,0,13,,,,11,,,67,0
812256,note_on,,,,,96,0,12,,,,10,,,79,0
812280,note_on,,,,,24,0,12,,,,10,,,79,116
812280,note_on,,,,,24,0,13,,,,11,,,67,116
812376,note_on,,,,,96,0,12,,,,10,,,79,0
812376,note_on,,,,,96,0,13,,,,11,,,67,0
812400,note_on,,,,,24,0,13,,,,11,,,71,116
812400,note_on,,,,,24,0,12,,,,10,,,83,116
812496,note_on,,,,,96,0,13,,,,11,,,71,0
812496,note_on,,,,,96,0,12,,,,10,,,83,0
812520,note_on,,,,,24,0,12,,,,10,,,83,116
812520,note_on,,,,,24,0,13,,,,11,,,71,116
812616,note_on,,,,,96,0,12,,,,10,,,83,0
812616,note_on,,,,,96,0,13,,,,11,,,71,0
812640,note_on,,,,,576,0,9,,,,5,,,60,127
812640,note_on,,,,,576,0,6,,,,3,,,48,105
812640,note_on,,,,,0,0,8,,,,4,,,64,105
812640,note_on,,,,,672,0,8,,,,4,,,67,105
812640,note_on,,,,,0,0,4,,,,2,,,76,92
812640,note_on,,,,,24,0,13,,,,11,,,72,127
812640,note_on,,,,,0,0,6,,,,3,,,60,125
812640,note_on,,,,,576,0,3,,,,1,,,72,112
812640,note_on,,,,,0,0,10,,,,6,,,64,105
812640,note_on,,,,,768,0,14,,,,12,,,60,125
812640,note_on,,,,,672,0,10,,,,6,,,76,105
812640,note_on,,,,,576,0,1,,,,0,,,84,112
812640,note_on,,,,,576,0,16,,,,14,,,48,127
812640,note_on,,,,,24,0,12,,,,10,,,84,127
812640,note_on,,,,,672,0,4,,,,2,,,72,92
812640,note_on,,,,,576,0,15,,,,13,,,60,127
812736,note_on,,,,,96,0,14,,,,12,,,60,0
812736,note_on,,,,,96,0,13,,,,11,,,72,0
812736,note_on,,,,,96,0,12,,,,10,,,84,0
812760,note_on,,,,,24,0,13,,,,11,,,72,127
812760,note_on,,,,,24,0,14,,,,12,,,60,125
812760,note_on,,,,,24,0,12,,,,10,,,84,127
812856,note_on,,,,,96,0,14,,,,12,,,60,0
812856,note_on,,,,,96,0,13,,,,11,,,72,0
812856,note_on,,,,,96,0,12,,,,10,,,84,0
812880,note_on,,,,,24,0,13,,,,11,,,67,116
812880,note_on,,,,,24,0,12,,,,10,,,79,116
812880,note_on,,,,,24,0,14,,,,12,,,55,105
812976,note_on,,,,,96,0,14,,,,12,,,55,0
812976,note_on,,,,,96,0,12,,,,10,,,79,0
812976,note_on,,,,,96,0,13,,,,11,,,67,0
813000,note_on,,,,,24,0,13,,,,11,,,67,116
813000,note_on,,,,,24,0,12,,,,10,,,79,116
813000,note_on,,,,,24,0,14,,,,12,,,55,105
813096,note_on,,,,,96,0,13,,,,11,,,67,0
813096,note_on,,,,,96,0,12,,,,10,,,79,0
813096,note_on,,,,,96,0,14,,,,12,,,55,0
813120,note_on,,,,,24,0,13,,,,11,,,71,116
813120,note_on,,,,,480,0,9,,,,5,,,60,0
813120,note_on,,,,,0,0,9,,,,5,,,59,116
813120,note_on,,,,,0,0,3,,,,1,,,71,92
813120,note_on,,,,,480,0,1,,,,0,,,84,0
813120,note_on,,,,,480,0,3,,,,1,,,72,0
813120,note_on,,,,,0,0,1,,,,0,,,83,92
813120,note_on,,,,,0,0,16,,,,14,,,47,116
813120,note_on,,,,,24,0,12,,,,10,,,83,116
813120,note_on,,,,,0,0,15,,,,13,,,59,116
813120,note_on,,,,,480,0,15,,,,13,,,60,0
813120,note_on,,,,,0,0,6,,,,3,,,59,105
813120,note_on,,,,,480,0,16,,,,14,,,48,0
813120,note_on,,,,,480,0,6,,,,3,,,60,0
813120,note_on,,,,,24,0,14,,,,12,,,59,105
813120,note_on,,,,,0,0,6,,,,3,,,47,105
813120,note_on,,,,,0,0,6,,,,3,,,48,0
813216,note_on,,,,,96,0,13,,,,11,,,71,0
813216,note_on,,,,,96,0,12,,,,10,,,83,0
813240,note_on,,,,,24,0,13,,,,11,,,71,116
813240,note_on,,,,,24,0,12,,,,10,,,83,116
813312,note_on,,,,,192,0,14,,,,12,,,59,0
813336,note_on,,,,,96,0,12,,,,10,,,83,0
813336,note_on,,,,,96,0,13,,,,11,,,71,0
813360,note_on,,,,,24,0,12,,,,10,,,88,116
813360,note_on,,,,,24,0,13,,,,11,,,76,116
813408,note_on,,,,,768,0,8,,,,4,,,64,0
813408,note_on,,,,,0,0,10,,,,6,,,76,0
813408,note_on,,,,,768,0,10,,,,6,,,64,0
813408,note_on,,,,,0,0,4,,,,2,,,72,0
813408,note_on,,,,,768,0,4,,,,2,,,76,0
813408,note_on,,,,,0,0,8,,,,4,,,67,0
813456,note_on,,,,,96,0,13,,,,11,,,76,0
813456,note_on,,,,,96,0,12,,,,10,,,88,0
813480,note_on,,,,,24,0,13,,,,11,,,76,116
813480,note_on,,,,,24,0,12,,,,10,,,88,116
813504,note_on,,,,,0,0,6,,,,3,,,47,0
813504,note_on,,,,,384,0,6,,,,3,,,59,0
813504,note_on,,,,,384,0,15,,,,13,,,59,0
813504,note_on,,,,,384,0,16,,,,14,,,47,0
813504,note_on,,,,,384,0,1,,,,0,,,83,0
813504,note_on,,,,,384,0,3,,,,1,,,71,0
813504,note_on,,,,,384,0,9,,,,5,,,59,0
813576,note_on,,,,,96,0,13,,,,11,,,76,0
813576,note_on,,,,,96,0,12,,,,10,,,88,0
813600,note_on,,,,,24,0,13,,,,11,,,79,116
813600,note_on,,,,,24,0,12,,,,10,,,91,116
813696,note_on,,,,,96,0,12,,,,10,,,91,0
813696,note_on,,,,,96,0,13,,,,11,,,79,0
813720,note_on,,,,,24,0,12,,,,10,,,91,116
813720,note_on,,,,,24,0,13,,,,11,,,79,116
813816,note_on,,,,,96,0,12,,,,10,,,91,0
813816,note_on,,,,,96,0,13,,,,11,,,79,0
813840,note_on,,,,,24,0,12,,,,10,,,88,116
813840,note_on,,,,,24,0,13,,,,11,,,76,116
813936,note_on,,,,,96,0,12,,,,10,,,88,0
813936,note_on,,,,,96,0,13,,,,11,,,76,0
813960,note_on,,,,,24,0,12,,,,10,,,88,116
813960,note_on,,,,,24,0,13,,,,11,,,76,116
814056,note_on,,,,,96,0,13,,,,11,,,76,0
814056,note_on,,,,,96,0,12,,,,10,,,88,0
814080,note_on,,,,,24,0,12,,,,10,,,83,116
814080,note_on,,,,,24,0,13,,,,11,,,71,116
814176,note_on,,,,,96,0,12,,,,10,,,83,0
814176,note_on,,,,,96,0,13,,,,11,,,71,0
814200,note_on,,,,,24,0,13,,,,11,,,71,116
814200,note_on,,,,,24,0,12,,,,10,,,83,116
814296,note_on,,,,,96,0,12,,,,10,,,83,0
814296,note_on,,,,,96,0,13,,,,11,,,71,0
814320,note_on,,,,,24,0,12,,,,10,,,79,116
814320,note_on,,,,,24,0,13,,,,11,,,67,116
814416,note_on,,,,,96,0,12,,,,10,,,79,0
814416,note_on,,,,,96,0,13,,,,11,,,67,0
814440,note_on,,,,,24,0,13,,,,11,,,67,116
814440,note_on,,,,,24,0,12,,,,10,,,79,116
814536,note_on,,,,,96,0,12,,,,10,,,79,0
814536,note_on,,,,,96,0,13,,,,11,,,67,0
814560,note_on,,,,,24,0,13,,,,11,,,64,116
814560,note_on,,,,,24,0,12,,,,10,,,76,116
814656,note_on,,,,,96,0,13,,,,11,,,64,0
814656,note_on,,,,,96,0,12,,,,10,,,76,0
814680,note_on,,,,,24,0,13,,,,11,,,64,116
814680,note_on,,,,,24,0,12,,,,10,,,76,116
814776,note_on,,,,,96,0,13,,,,11,,,64,0
814776,note_on,,,,,96,0,12,,,,10,,,76,0
814800,note_on,,,,,24,0,13,,,,11,,,59,116
814800,note_on,,,,,24,0,12,,,,10,,,71,116
814896,note_on,,,,,96,0,13,,,,11,,,59,0
814896,note_on,,,,,96,0,12,,,,10,,,71,0
814920,note_on,,,,,24,0,13,,,,11,,,59,116
814920,note_on,,,,,24,0,12,,,,10,,,71,116
815016,note_on,,,,,96,0,13,,,,11,,,59,0
815016,note_on,,,,,96,0,12,,,,10,,,71,0
815040,note_on,,,,,24,0,13,,,,11,,,72,116
815040,note_on,,,,,0,0,8,,,,4,,,64,105
815040,note_on,,,,,1632,0,8,,,,4,,,67,105
815040,note_on,,,,,0,0,10,,,,6,,,64,105
815040,note_on,,,,,1536,0,3,,,,1,,,72,92
815040,note_on,,,,,1536,0,16,,,,14,,,36,116
815040,note_on,,,,,1536,0,1,,,,0,,,84,92
815040,note_on,,,,,1632,0,4,,,,2,,,76,92
815040,note_on,,,,,0,0,4,,,,2,,,79,92
815040,note_on,,,,,1728,0,14,,,,12,,,60,105
815040,note_on,,,,,1536,0,15,,,,13,,,48,116
815040,note_on,,,,,24,0,12,,,,10,,,72,116
815040,note_on,,,,,1632,0,10,,,,6,,,76,105
815040,note_on,,,,,1536,0,6,,,,3,,,36,105
815040,note_on,,,,,0,0,6,,,,3,,,48,105
815040,note_on,,,,,1536,0,9,,,,5,,,60,116
815136,note_on,,,,,96,0,14,,,,12,,,60,0
815136,note_on,,,,,96,0,13,,,,11,,,72,0
815160,note_on,,,,,24,0,13,,,,11,,,72,116
815160,note_on,,,,,24,0,14,,,,12,,,60,105
815256,note_on,,,,,96,0,13,,,,11,,,72,0
815256,note_on,,,,,96,0,14,,,,12,,,60,0
815280,note_on,,,,,24,0,14,,,,12,,,55,105
815280,note_on,,,,,24,0,13,,,,11,,,67,116
815376,note_on,,,,,96,0,13,,,,11,,,67,0
815376,note_on,,,,,96,0,14,,,,12,,,55,0
815400,note_on,,,,,24,0,14,,,,12,,,55,105
815400,note_on,,,,,24,0,13,,,,11,,,67,116
815496,note_on,,,,,96,0,14,,,,12,,,55,0
815496,note_on,,,,,96,0,13,,,,11,,,67,0
815520,note_on,,,,,24,0,14,,,,12,,,64,105
815520,note_on,,,,,24,0,13,,,,11,,,64,116
815616,note_on,,,,,96,0,13,,,,11,,,64,0
815616,note_on,,,,,96,0,14,,,,12,,,64,0
815640,note_on,,,,,24,0,14,,,,12,,,64,105
815640,note_on,,,,,24,0,13,,,,11,,,64,116
815736,note_on,,,,,96,0,13,,,,11,,,64,0
815736,note_on,,,,,96,0,14,,,,12,,,64,0
815760,note_on,,,,,24,0,13,,,,11,,,60,116
815760,note_on,,,,,24,0,14,,,,12,,,60,105
815808,note_on,,,,,0,0,4,,,,2,,,76,0
815808,note_on,,,,,768,0,12,,,,10,,,72,0
815808,note_on,,,,,768,0,4,,,,2,,,79,0
815808,note_on,,,,,768,0,8,,,,4,,,64,0
815808,note_on,,,,,768,0,15,,,,13,,,48,0
815808,note_on,,,,,768,0,3,,,,1,,,72,0
815808,note_on,,,,,768,0,1,,,,0,,,84,0
815808,note_on,,,,,768,0,16,,,,14,,,36,0
815808,note_on,,,,,768,0,10,,,,6,,,64,0
815808,note_on,,,,,0,0,8,,,,4,,,67,0
815808,note_on,,,,,0,0,6,,,,3,,,36,0
815808,note_on,,,,,768,0,6,,,,3,,,48,0
815808,note_on,,,,,768,0,9,,,,5,,,60,0
815808,note_on,,,,,0,0,10,,,,6,,,76,0
815856,note_on,,,,,96,0,13,,,,11,,,60,0
815856,note_on,,,,,96,0,14,,,,12,,,60,0
815880,note_on,,,,,24,0,13,,,,11,,,60,116
815880,note_on,,,,,24,0,14,,,,12,,,60,105
815976,note_on,,,,,96,0,13,,,,11,,,60,0
815976,note_on,,,,,96,0,14,,,,12,,,60,0
816000,note_on,,,,,0,0,6,,,,3,,,47,105
816000,note_on,,,,,192,0,3,,,,1,,,71,92
816000,note_on,,,,,192,0,9,,,,5,,,59,116
816000,note_on,,,,,192,0,4,,,,2,,,79,92
816000,note_on,,,,,0,0,8,,,,4,,,67,105
816000,note_on,,,,,24,0,13,,,,11,,,71,116
816000,note_on,,,,,0,0,10,,,,6,,,76,105
816000,note_on,,,,,192,0,10,,,,6,,,64,105
816000,note_on,,,,,192,0,12,,,,10,,,71,116
816000,note_on,,,,,192,0,15,,,,13,,,47,116
816000,note_on,,,,,192,0,1,,,,0,,,83,92
816000,note_on,,,,,0,0,4,,,,2,,,76,92
816000,note_on,,,,,192,0,16,,,,14,,,35,116
816000,note_on,,,,,24,0,14,,,,12,,,59,105
816000,note_on,,,,,192,0,8,,,,4,,,64,105
816000,note_on,,,,,192,0,6,,,,3,,,35,105
816096,note_on,,,,,96,0,14,,,,12,,,59,0
816096,note_on,,,,,96,0,13,,,,11,,,71,0
816120,note_on,,,,,24,0,13,,,,11,,,71,116
816120,note_on,,,,,24,0,14,,,,12,,,59,105
816216,note_on,,,,,96,0,13,,,,11,,,71,0
816216,note_on,,,,,96,0,14,,,,12,,,59,0
816240,note_on,,,,,24,0,14,,,,12,,,55,105
816240,note_on,,,,,24,0,13,,,,11,,,67,116
816336,note_on,,,,,96,0,14,,,,12,,,55,0
816336,note_on,,,,,96,0,13,,,,11,,,67,0
816360,note_on,,,,,24,0,14,,,,12,,,55,105
816360,note_on,,,,,24,0,13,,,,11,,,67,116
816456,note_on,,,,,96,0,13,,,,11,,,67,0
816456,note_on,,,,,96,0,14,,,,12,,,55,0
816480,note_on,,,,,24,0,14,,,,12,,,64,105
816480,note_on,,,,,24,0,13,,,,11,,,64,116
816576,note_on,,,,,96,0,14,,,,12,,,64,0
816576,note_on,,,,,96,0,13,,,,11,,,64,0
816600,note_on,,,,,24,0,14,,,,12,,,64,105
816600,note_on,,,,,24,0,13,,,,11,,,64,116
816696,note_on,,,,,96,0,14,,,,12,,,64,0
816696,note_on,,,,,96,0,13,,,,11,,,64,0
816720,note_on,,,,,24,0,14,,,,12,,,59,105
816720,note_on,,,,,24,0,13,,,,11,,,59,116
816768,note_on,,,,,0,0,4,,,,2,,,79,0
816768,note_on,,,,,768,0,4,,,,2,,,76,0
816768,note_on,,,,,768,0,6,,,,3,,,47,0
816768,note_on,,,,,0,0,6,,,,3,,,35,0
816768,note_on,,,,,768,0,1,,,,0,,,83,0
816768,note_on,,,,,768,0,3,,,,1,,,71,0
816768,note_on,,,,,768,0,16,,,,14,,,35,0
816768,note_on,,,,,768,0,12,,,,10,,,71,0
816768,note_on,,,,,768,0,15,,,,13,,,47,0
816768,note_on,,,,,768,0,8,,,,4,,,67,0
816768,note_on,,,,,0,0,8,,,,4,,,64,0
816768,note_on,,,,,768,0,9,,,,5,,,59,0
816768,note_on,,,,,0,0,10,,,,6,,,64,0
816768,note_on,,,,,768,0,10,,,,6,,,76,0
816816,note_on,,,,,96,0,13,,,,11,,,59,0
816816,note_on,,,,,96,0,14,,,,12,,,59,0
816840,note_on,,,,,24,0,13,,,,11,,,59,116
816840,note_on,,,,,24,0,14,,,,12,,,59,105
816936,note_on,,,,,96,0,13,,,,11,,,59,0
816936,note_on,,,,,96,0,14,,,,12,,,59,0
816960,note_on,,,,,192,0,4,,,,2,,,69,92
816960,note_on,,,,,192,0,12,,,,10,,,91,127
816960,note_on,,,,,192,0,9,,,,5,,,63,116
816960,note_on,,,,,0,0,3,,,,1,,,79,112
816960,note_on,,,,,0,0,10,,,,6,,,59,105
816960,note_on,,,,,192,0,10,,,,6,,,71,105
816960,note_on,,,,,192,0,16,,,,14,,,47,116
816960,note_on,,,,,24,0,14,,,,12,,,57,105
816960,note_on,,,,,0,0,8,,,,4,,,59,105
816960,note_on,,,,,0,0,1,,,,0,,,91,112
816960,note_on,,,,,192,0,1,,,,0,,,87,92
816960,note_on,,,,,192,0,8,,,,4,,,69,105
816960,note_on,,,,,192,0,15,,,,13,,,59,116
816960,note_on,,,,,192,0,3,,,,1,,,75,92
816960,note_on,,,,,0,0,4,,,,2,,,75,92
816960,note_on,,,,,0,0,14,,,,12,,,63,105
816960,note_on,,,,,192,0,6,,,,3,,,59,105
816960,note_on,,,,,0,0,13,,,,11,,,69,116
816960,note_on,,,,,0,0,6,,,,3,,,47,105
816960,note_on,,,,,24,0,13,,,,11,,,79,127
817056,note_on,,,,,0,0,14,,,,12,,,57,0
817056,note_on,,,,,96,0,14,,,,12,,,63,0
817080,note_on,,,,,24,0,14,,,,12,,,63,105
817080,note_on,,,,,0,0,14,,,,12,,,57,105
817176,note_on,,,,,0,0,14,,,,12,,,63,0
817176,note_on,,,,,96,0,14,,,,12,,,57,0
817200,note_on,,,,,24,0,14,,,,12,,,63,105
817200,note_on,,,,,0,0,14,,,,12,,,57,105
817296,note_on,,,,,0,0,14,,,,12,,,63,0
817296,note_on,,,,,96,0,14,,,,12,,,57,0
817320,note_on,,,,,24,0,14,,,,12,,,63,105
817320,note_on,,,,,0,0,14,,,,12,,,57,105
817416,note_on,,,,,96,0,14,,,,12,,,57,0
817416,note_on,,,,,0,0,14,,,,12,,,63,0
817440,note_on,,,,,0,0,14,,,,12,,,63,105
817440,note_on,,,,,24,0,14,,,,12,,,57,105
817536,note_on,,,,,96,0,14,,,,12,,,63,0
817536,note_on,,,,,0,0,14,,,,12,,,57,0
817560,note_on,,,,,24,0,14,,,,12,,,63,105
817560,note_on,,,,,0,0,14,,,,12,,,57,105
817656,note_on,,,,,96,0,14,,,,12,,,57,0
817656,note_on,,,,,0,0,14,,,,12,,,63,0
817680,note_on,,,,,720,0,3,,,,1,,,79,0
817680,note_on,,,,,0,0,14,,,,12,,,63,105
817680,note_on,,,,,24,0,14,,,,12,,,57,105
817680,note_on,,,,,720,0,13,,,,11,,,79,0
817680,note_on,,,,,0,0,12,,,,10,,,90,116
817680,note_on,,,,,0,0,13,,,,11,,,78,116
817680,note_on,,,,,720,0,1,,,,0,,,91,0
817680,note_on,,,,,0,0,1,,,,0,,,90,92
817680,note_on,,,,,0,0,3,,,,1,,,78,92
817680,note_on,,,,,720,0,12,,,,10,,,91,0
817728,note_on,,,,,768,0,10,,,,6,,,59,0
817728,note_on,,,,,0,0,6,,,,3,,,59,0
817728,note_on,,,,,768,0,6,,,,3,,,47,0
817728,note_on,,,,,768,0,9,,,,5,,,63,0
817728,note_on,,,,,768,0,16,,,,14,,,47,0
817728,note_on,,,,,0,0,4,,,,2,,,69,0
817728,note_on,,,,,768,0,4,,,,2,,,75,0
817728,note_on,,,,,0,0,10,,,,6,,,71,0
817728,note_on,,,,,0,0,8,,,,4,,,69,0
817728,note_on,,,,,768,0,8,,,,4,,,59,0
817728,note_on,,,,,768,0,15,,,,13,,,59,0
817776,note_on,,,,,0,0,14,,,,12,,,57,0
817776,note_on,,,,,96,0,14,,,,12,,,63,0
817800,note_on,,,,,0,0,14,,,,12,,,63,105
817800,note_on,,,,,24,0,14,,,,12,,,57,105
817872,note_on,,,,,0,0,13,,,,11,,,69,0
817872,note_on,,,,,192,0,13,,,,11,,,78,0
817872,note_on,,,,,192,0,1,,,,0,,,90,0
817872,note_on,,,,,0,0,1,,,,0,,,87,0
817872,note_on,,,,,192,0,12,,,,10,,,90,0
817872,note_on,,,,,192,0,3,,,,1,,,78,0
817872,note_on,,,,,0,0,3,,,,1,,,75,0
817896,note_on,,,,,0,0,14,,,,12,,,57,0
817896,note_on,,,,,96,0,14,,,,12,,,63,0
817920,note_on,,,,,24,0,14,,,,12,,,64,105
817920,note_on,,,,,192,0,9,,,,5,,,64,116
817920,note_on,,,,,48,0,12,,,,10,,,88,116
817920,note_on,,,,,48,0,13,,,,11,,,67,116
817920,note_on,,,,,192,0,8,,,,4,,,67,105
817920,note_on,,,,,0,0,8,,,,4,,,64,105
817920,note_on,,,,,192,0,10,,,,6,,,64,105
817920,note_on,,,,,192,0,15,,,,13,,,52,116
817920,note_on,,,,,0,0,14,,,,12,,,55,105
817920,note_on,,,,,192,0,16,,,,14,,,40,116
817920,note_on,,,,,48,0,1,,,,0,,,88,92
817920,note_on,,,,,0,0,6,,,,3,,,52,105
817920,note_on,,,,,0,0,13,,,,11,,,71,116
817920,note_on,,,,,48,0,3,,,,1,,,76,92
817920,note_on,,,,,192,0,4,,,,2,,,67,92
817920,note_on,,,,,0,0,4,,,,2,,,76,92
817920,note_on,,,,,192,0,6,,,,3,,,40,105
818112,note_on,,,,,192,0,9,,,,5,,,64,0
818112,note_on,,,,,0,0,8,,,,4,,,67,0
818112,note_on,,,,,192,0,8,,,,4,,,64,0
818112,note_on,,,,,192,0,10,,,,6,,,64,0
818112,note_on,,,,,192,0,13,,,,11,,,71,0
818112,note_on,,,,,0,0,4,,,,2,,,67,0
818112,note_on,,,,,0,0,14,,,,12,,,64,0
818112,note_on,,,,,192,0,14,,,,12,,,55,0
818112,note_on,,,,,192,0,15,,,,13,,,52,0
818112,note_on,,,,,192,0,3,,,,1,,,76,0
818112,note_on,,,,,192,0,16,,,,14,,,40,0
818112,note_on,,,,,192,0,12,,,,10,,,88,0
818112,note_on,,,,,192,0,4,,,,2,,,76,0
818112,note_on,,,,,192,0,1,,,,0,,,88,0
818112,note_on,,,,,0,0,13,,,,11,,,67,0
818112,note_on,,,,,192,0,6,,,,3,,,52,0
818112,note_on,,,,,0,0,6,,,,3,,,40,0
818160,note_on,,,,,48,0,12,,,,10,,,59,116
818160,note_on,,,,,48,0,13,,,,11,,,59,116
818256,note_on,,,,,96,0,12,,,,10,,,59,0
818256,note_on,,,,,96,0,13,,,,11,,,59,0
818280,note_on,,,,,24,0,13,,,,11,,,59,116
818280,note_on,,,,,24,0,12,,,,10,,,59,116
818376,note_on,,,,,96,0,13,,,,11,,,59,0
818376,note_on,,,,,96,0,12,,,,10,,,59,0
818400,note_on,,,,,24,0,13,,,,11,,,64,116
818400,note_on,,,,,24,0,12,,,,10,,,64,116
818496,note_on,,,,,96,0,12,,,,10,,,64,0
818496,note_on,,,,,96,0,13,,,,11,,,64,0
818520,note_on,,,,,24,0,12,,,,10,,,64,116
818520,note_on,,,,,24,0,13,,,,11,,,64,116
818616,note_on,,,,,96,0,12,,,,10,,,64,0
818616,note_on,,,,,96,0,13,,,,11,,,64,0
818640,note_on,,,,,24,0,12,,,,10,,,67,116
818640,note_on,,,,,24,0,13,,,,11,,,67,116
818736,note_on,,,,,96,0,12,,,,10,,,67,0
818736,note_on,,,,,96,0,13,,,,11,,,67,0
818760,note_on,,,,,24,0,13,,,,11,,,67,116
818760,note_on,,,,,24,0,12,,,,10,,,67,116
818856,note_on,,,,,96,0,12,,,,10,,,67,0
818856,note_on,,,,,96,0,13,,,,11,,,67,0
818880,note_on,,,,,768,0,9,,,,5,,,60,127
818880,note_on,,,,,768,0,1,,,,0,,,84,112
818880,note_on,,,,,768,0,10,,,,6,,,67,105
818880,note_on,,,,,768,0,4,,,,2,,,79,92
818880,note_on,,,,,0,0,4,,,,2,,,67,92
818880,note_on,,,,,768,0,14,,,,12,,,60,125
818880,note_on,,,,,0,0,6,,,,3,,,51,125
818880,note_on,,,,,768,0,16,,,,14,,,39,127
818880,note_on,,,,,768,0,15,,,,13,,,51,127
818880,note_on,,,,,768,0,6,,,,3,,,39,125
818880,note_on,,,,,768,0,3,,,,1,,,72,112
818880,note_on,,,,,24,0,13,,,,11,,,72,127
818880,note_on,,,,,768,0,8,,,,4,,,55,105
818880,note_on,,,,,24,0,12,,,,10,,,72,127
818880,note_on,,,,,0,0,8,,,,4,,,67,105
818976,note_on,,,,,96,0,13,,,,11,,,72,0
818976,note_on,,,,,96,0,12,,,,10,,,72,0
818976,note_on,,,,,96,0,14,,,,12,,,60,0
819000,note_on,,,,,24,0,13,,,,11,,,72,127
819000,note_on,,,,,24,0,14,,,,12,,,60,125
819000,note_on,,,,,24,0,12,,,,10,,,72,127
819096,note_on,,,,,96,0,12,,,,10,,,72,0
819096,note_on,,,,,96,0,13,,,,11,,,72,0
819096,note_on,,,,,96,0,14,,,,12,,,60,0
819120,note_on,,,,,24,0,12,,,,10,,,67,116
819120,note_on,,,,,24,0,13,,,,11,,,67,116
819120,note_on,,,,,24,0,14,,,,12,,,55,105
819216,note_on,,,,,96,0,12,,,,10,,,67,0
819216,note_on,,,,,96,0,13,,,,11,,,67,0
819216,note_on,,,,,96,0,14,,,,12,,,55,0
819240,note_on,,,,,24,0,14,,,,12,,,55,105
819240,note_on,,,,,24,0,12,,,,10,,,67,116
819240,note_on,,,,,24,0,13,,,,11,,,67,116
819336,note_on,,,,,96,0,14,,,,12,,,55,0
819336,note_on,,,,,96,0,12,,,,10,,,67,0
819336,note_on,,,,,96,0,13,,,,11,,,67,0
819360,note_on,,,,,24,0,12,,,,10,,,71,116
819360,note_on,,,,,480,0,16,,,,14,,,39,0
819360,note_on,,,,,0,0,16,,,,14,,,38,116
819360,note_on,,,,,480,0,3,,,,1,,,72,0
819360,note_on,,,,,24,0,13,,,,11,,,71,116
819360,note_on,,,,,0,0,3,,,,1,,,71,92
819360,note_on,,,,,0,0,15,,,,13,,,50,116
819360,note_on,,,,,480,0,6,,,,3,,,51,0
819360,note_on,,,,,0,0,6,,,,3,,,39,0
819360,note_on,,,,,480,0,15,,,,13,,,51,0
819360,note_on,,,,,480,0,9,,,,5,,,60,0
819360,note_on,,,,,0,0,6,,,,3,,,38,105
819360,note_on,,,,,0,0,9,,,,5,,,59,116
819360,note_on,,,,,0,0,6,,,,3,,,50,105
819360,note_on,,,,,480,0,1,,,,0,,,84,0
819360,note_on,,,,,24,0,14,,,,12,,,59,105
819360,note_on,,,,,0,0,1,,,,0,,,83,92
819456,note_on,,,,,96,0,12,,,,10,,,71,0
819456,note_on,,,,,96,0,13,,,,11,,,71,0
819480,note_on,,,,,24,0,12,,,,10,,,71,116
819480,note_on,,,,,24,0,13,,,,11,,,71,116
819552,note_on,,,,,192,0,14,,,,12,,,59,0
819576,note_on,,,,,96,0,12,,,,10,,,71,0
819576,note_on,,,,,96,0,13,,,,11,,,71,0
819600,note_on,,,,,24,0,13,,,,11,,,62,116
819600,note_on,,,,,24,0,12,,,,10,,,74,116
819648,note_on,,,,,768,0,10,,,,6,,,67,0
819648,note_on,,,,,0,0,4,,,,2,,,79,0
819648,note_on,,,,,768,0,4,,,,2,,,67,0
819648,note_on,,,,,0,0,8,,,,4,,,55,0
819648,note_on,,,,,768,0,8,,,,4,,,67,0
819696,note_on,,,,,96,0,13,,,,11,,,62,0
819696,note_on,,,,,96,0,12,,,,10,,,74,0
819720,note_on,,,,,24,0,12,,,,10,,,74,116
819720,note_on,,,,,24,0,13,,,,11,,,62,116
819744,note_on,,,,,0,0,6,,,,3,,,38,0
819744,note_on,,,,,384,0,16,,,,14,,,38,0
819744,note_on,,,,,384,0,9,,,,5,,,59,0
819744,note_on,,,,,384,0,3,,,,1,,,71,0
819744,note_on,,,,,384,0,6,,,,3,,,50,0
819744,note_on,,,,,384,0,1,,,,0,,,83,0
819744,note_on,,,,,384,0,15,,,,13,,,50,0
819816,note_on,,,,,96,0,13,,,,11,,,62,0
819816,note_on,,,,,96,0,12,,,,10,,,74,0
819840,note_on,,,,,24,0,13,,,,11,,,67,116
819840,note_on,,,,,24,0,12,,,,10,,,79,116
819936,note_on,,,,,96,0,12,,,,10,,,79,0
819936,note_on,,,,,96,0,13,,,,11,,,67,0
819960,note_on,,,,,24,0,12,,,,10,,,79,116
819960,note_on,,,,,24,0,13,,,,11,,,67,116
820056,note_on,,,,,96,0,13,,,,11,,,67,0
820056,note_on,,,,,96,0,12,,,,10,,,79,0
820080,note_on,,,,,24,0,12,,,,10,,,83,116
820080,note_on,,,,,24,0,13,,,,11,,,71,116
820176,note_on,,,,,96,0,12,,,,10,,,83,0
820176,note_on,,,,,96,0,13,,,,11,,,71,0
820200,note_on,,,,,24,0,13,,,,11,,,71,116
820200,note_on,,,,,24,0,12,,,,10,,,83,116
820296,note_on,,,,,96,0,13,,,,11,,,71,0
820296,note_on,,,,,96,0,12,,,,10,,,83,0
820320,note_on,,,,,576,0,15,,,,13,,,48,127
820320,note_on,,,,,576,0,3,,,,1,,,72,112
820320,note_on,,,,,576,0,1,,,,0,,,84,112
820320,note_on,,,,,576,0,16,,,,14,,,36,127
820320,note_on,,,,,672,0,4,,,,2,,,75,112
820320,note_on,,,,,576,0,9,,,,5,,,60,116
820320,note_on,,,,,0,0,8,,,,4,,,55,105
820320,note_on,,,,,672,0,8,,,,4,,,67,105
820320,note_on,,,,,24,0,12,,,,10,,,84,127
820320,note_on,,,,,0,0,4,,,,2,,,79,92
820320,note_on,,,,,0,0,6,,,,3,,,36,125
820320,note_on,,,,,576,0,6,,,,3,,,48,125
820320,note_on,,,,,768,0,14,,,,12,,,63,125
820320,note_on,,,,,672,0,10,,,,6,,,79,105
820320,note_on,,,,,0,0,10,,,,6,,,67,105
820320,note_on,,,,,24,0,13,,,,11,,,72,127
820320,note_on,,,,,0,0,9,,,,5,,,63,127
820416,note_on,,,,,96,0,13,,,,11,,,72,0
820416,note_on,,,,,96,0,12,,,,10,,,84,0
820416,note_on,,,,,96,0,14,,,,12,,,63,0
820440,note_on,,,,,24,0,13,,,,11,,,72,127
820440,note_on,,,,,24,0,14,,,,12,,,63,125
820440,note_on,,,,,24,0,12,,,,10,,,84,127
820536,note_on,,,,,96,0,13,,,,11,,,72,0
820536,note_on,,,,,96,0,14,,,,12,,,63,0
820536,note_on,,,,,96,0,12,,,,10,,,84,0
820560,note_on,,,,,24,0,14,,,,12,,,55,105
820560,note_on,,,,,24,0,13,,,,11,,,67,116
820560,note_on,,,,,24,0,12,,,,10,,,79,116
820656,note_on,,,,,96,0,12,,,,10,,,79,0
820656,note_on,,,,,96,0,14,,,,12,,,55,0
820656,note_on,,,,,96,0,13,,,,11,,,67,0
820680,note_on,,,,,24,0,12,,,,10,,,79,116
820680,note_on,,,,,24,0,14,,,,12,,,55,105
820680,note_on,,,,,24,0,13,,,,11,,,67,116
820776,note_on,,,,,96,0,12,,,,10,,,79,0
820776,note_on,,,,,96,0,13,,,,11,,,67,0
820776,note_on,,,,,96,0,14,,,,12,,,55,0
820800,note_on,,,,,0,0,6,,,,3,,,55,105
820800,note_on,,,,,0,0,9,,,,5,,,62,116
820800,note_on,,,,,480,0,3,,,,1,,,72,0
820800,note_on,,,,,24,0,13,,,,11,,,71,116
820800,note_on,,,,,24,0,12,,,,10,,,83,116
820800,note_on,,,,,480,0,1,,,,0,,,84,0
820800,note_on,,,,,0,0,1,,,,0,,,83,92
820800,note_on,,,,,0,0,3,,,,1,,,71,92
820800,note_on,,,,,0,0,9,,,,5,,,59,116
820800,note_on,,,,,0,0,4,,,,2,,,74,92
820800,note_on,,,,,0,0,6,,,,3,,,43,105
820800,note_on,,,,,480,0,15,,,,13,,,48,0
820800,note_on,,,,,0,0,9,,,,5,,,60,0
820800,note_on,,,,,480,0,9,,,,5,,,63,0
820800,note_on,,,,,480,0,16,,,,14,,,36,0
820800,note_on,,,,,0,0,15,,,,13,,,43,116
820800,note_on,,,,,0,0,6,,,,3,,,48,0
820800,note_on,,,,,0,0,16,,,,14,,,31,116
820800,note_on,,,,,24,0,14,,,,12,,,62,105
820800,note_on,,,,,480,0,6,,,,3,,,36,0
820800,note_on,,,,,480,0,4,,,,2,,,75,0
820896,note_on,,,,,96,0,12,,,,10,,,83,0
820896,note_on,,,,,96,0,13,,,,11,,,71,0
820920,note_on,,,,,24,0,12,,,,10,,,83,116
820920,note_on,,,,,24,0,13,,,,11,,,71,116
820992,note_on,,,,,192,0,14,,,,12,,,62,0
821016,note_on,,,,,96,0,13,,,,11,,,71,0
821016,note_on,,,,,96,0,12,,,,10,,,83,0
821040,note_on,,,,,24,0,13,,,,11,,,74,116
821040,note_on,,,,,24,0,12,,,,10,,,86,116
821088,note_on,,,,,0,0,10,,,,6,,,79,0
821088,note_on,,,,,0,0,8,,,,4,,,67,0
821088,note_on,,,,,768,0,10,,,,6,,,67,0
821088,note_on,,,,,768,0,8,,,,4,,,55,0
821136,note_on,,,,,96,0,12,,,,10,,,86,0
821136,note_on,,,,,96,0,13,,,,11,,,74,0
821160,note_on,,,,,24,0,13,,,,11,,,74,116
821160,note_on,,,,,24,0,12,,,,10,,,86,116
821184,note_on,,,,,384,0,6,,,,3,,,55,0
821184,note_on,,,,,0,0,6,,,,3,,,43,0
821184,note_on,,,,,384,0,3,,,,1,,,71,0
821184,note_on,,,,,0,0,4,,,,2,,,79,0
821184,note_on,,,,,0,0,9,,,,5,,,59,0
821184,note_on,,,,,384,0,9,,,,5,,,62,0
821184,note_on,,,,,384,0,4,,,,2,,,74,0
821184,note_on,,,,,384,0,1,,,,0,,,83,0
821184,note_on,,,,,384,0,16,,,,14,,,31,0
821184,note_on,,,,,384,0,15,,,,13,,,43,0
821256,note_on,,,,,96,0,12,,,,10,,,86,0
821256,note_on,,,,,96,0,13,,,,11,,,74,0
821280,note_on,,,,,24,0,12,,,,10,,,91,116
821280,note_on,,,,,24,0,13,,,,11,,,79,116
821376,note_on,,,,,96,0,12,,,,10,,,91,0
821376,note_on,,,,,96,0,13,,,,11,,,79,0
821400,note_on,,,,,24,0,12,,,,10,,,91,116
821400,note_on,,,,,24,0,13,,,,11,,,79,116
821496,note_on,,,,,96,0,12,,,,10,,,91,0
821496,note_on,,,,,96,0,13,,,,11,,,79,0
821520,note_on,,,,,24,0,12,,,,10,,,86,116
821520,note_on,,,,,24,0,13,,,,11,,,74,116
821616,note_on,,,,,96,0,12,,,,10,,,86,0
821616,note_on,,,,,96,0,13,,,,11,,,74,0
821640,note_on,,,,,24,0,13,,,,11,,,74,116
821640,note_on,,,,,24,0,12,,,,10,,,86,116
821736,note_on,,,,,96,0,12,,,,10,,,86,0
821736,note_on,,,,,96,0,13,,,,11,,,74,0
821760,note_on,,,,,24,0,13,,,,11,,,71,116
821760,note_on,,,,,24,0,12,,,,10,,,83,116
821856,note_on,,,,,96,0,12,,,,10,,,83,0
821856,note_on,,,,,96,0,13,,,,11,,,71,0
821880,note_on,,,,,24,0,13,,,,11,,,71,116
821880,note_on,,,,,24,0,12,,,,10,,,83,116
821976,note_on,,,,,96,0,13,,,,11,,,71,0
821976,note_on,,,,,96,0,12,,,,10,,,83,0
822000,note_on,,,,,24,0,13,,,,11,,,67,116
822000,note_on,,,,,24,0,12,,,,10,,,79,116
822096,note_on,,,,,96,0,13,,,,11,,,67,0
822096,note_on,,,,,96,0,12,,,,10,,,79,0
822120,note_on,,,,,24,0,12,,,,10,,,79,116
822120,note_on,,,,,24,0,13,,,,11,,,67,116
822216,note_on,,,,,96,0,13,,,,11,,,67,0
822216,note_on,,,,,96,0,12,,,,10,,,79,0
822240,note_on,,,,,24,0,13,,,,11,,,62,116
822240,note_on,,,,,24,0,12,,,,10,,,74,116
822336,note_on,,,,,96,0,13,,,,11,,,62,0
822336,note_on,,,,,96,0,12,,,,10,,,74,0
822360,note_on,,,,,24,0,13,,,,11,,,62,116
822360,note_on,,,,,24,0,12,,,,10,,,74,116
822456,note_on,,,,,96,0,13,,,,11,,,62,0
822456,note_on,,,,,96,0,12,,,,10,,,74,0
822480,note_on,,,,,24,0,13,,,,11,,,59,116
822480,note_on,,,,,24,0,12,,,,10,,,71,116
822576,note_on,,,,,96,0,12,,,,10,,,71,0
822576,note_on,,,,,96,0,13,,,,11,,,59,0
822600,note_on,,,,,24,0,12,,,,10,,,71,116
822600,note_on,,,,,24,0,13,,,,11,,,59,116
822696,note_on,,,,,96,0,12,,,,10,,,71,0
822696,note_on,,,,,96,0,13,,,,11,,,59,0
822720,note_on,,,,,0,0,3,,,,1,,,84,105
822720,note_on,,,,,1632,0,8,,,,4,,,67,105
822720,note_on,,,,,1536,0,3,,,,1,,,79,105
822720,note_on,,,,,1728,0,14,,,,12,,,60,105
822720,note_on,,,,,24,0,13,,,,11,,,72,116
822720,note_on,,,,,1536,0,4,,,,2,,,79,105
822720,note_on,,,,,0,0,1,,,,0,,,79,105
822720,note_on,,,,,1536,0,1,,,,0,,,84,105
822720,note_on,,,,,1536,0,9,,,,5,,,60,105
822720,note_on,,,,,0,0,12,,,,10,,,72,116
822720,note_on,,,,,24,0,12,,,,10,,,67,116
822720,note_on,,,,,1536,0,15,,,,13,,,51,116
822720,note_on,,,,,0,0,6,,,,3,,,39,105
822720,note_on,,,,,1536,0,6,,,,3,,,51,105
822720,note_on,,,,,0,0,4,,,,2,,,72,105
822720,note_on,,,,,1536,0,16,,,,14,,,39,116
822816,note_on,,,,,96,0,13,,,,11,,,72,0
822816,note_on,,,,,96,0,14,,,,12,,,60,0
822840,note_on,,,,,24,0,13,,,,11,,,72,116
822840,note_on,,,,,24,0,14,,,,12,,,60,105
822936,note_on,,,,,96,0,13,,,,11,,,72,0
822936,note_on,,,,,96,0,14,,,,12,,,60,0
822960,note_on,,,,,24,0,13,,,,11,,,67,116
822960,note_on,,,,,24,0,14,,,,12,,,55,105
823056,note_on,,,,,96,0,13,,,,11,,,67,0
823056,note_on,,,,,96,0,14,,,,12,,,55,0
823080,note_on,,,,,24,0,13,,,,11,,,67,116
823080,note_on,,,,,24,0,14,,,,12,,,55,105
823176,note_on,,,,,96,0,14,,,,12,,,55,0
823176,note_on,,,,,96,0,13,,,,11,,,67,0
823200,note_on,,,,,24,0,13,,,,11,,,63,116
823200,note_on,,,,,24,0,14,,,,12,,,63,105
823296,note_on,,,,,96,0,13,,,,11,,,63,0
823296,note_on,,,,,96,0,14,,,,12,,,63,0
823320,note_on,,,,,24,0,14,,,,12,,,63,105
823320,note_on,,,,,24,0,13,,,,11,,,63,116
823416,note_on,,,,,96,0,14,,,,12,,,63,0
823416,note_on,,,,,96,0,13,,,,11,,,63,0
823440,note_on,,,,,24,0,14,,,,12,,,60,105
823440,note_on,,,,,24,0,13,,,,11,,,60,116
823488,note_on,,,,,768,0,8,,,,4,,,67,0
823488,note_on,,,,,0,0,3,,,,1,,,79,0
823488,note_on,,,,,768,0,16,,,,14,,,39,0
823488,note_on,,,,,768,0,3,,,,1,,,84,0
823488,note_on,,,,,768,0,9,,,,5,,,60,0
823488,note_on,,,,,768,0,6,,,,3,,,39,0
823488,note_on,,,,,0,0,4,,,,2,,,79,0
823488,note_on,,,,,768,0,4,,,,2,,,72,0
823488,note_on,,,,,768,0,15,,,,13,,,51,0
823488,note_on,,,,,0,0,6,,,,3,,,51,0
823536,note_on,,,,,96,0,13,,,,11,,,60,0
823536,note_on,,,,,96,0,14,,,,12,,,60,0
823560,note_on,,,,,24,0,14,,,,12,,,60,105
823560,note_on,,,,,24,0,13,,,,11,,,60,116
823584,note_on,,,,,864,0,12,,,,10,,,72,0
823584,note_on,,,,,0,0,12,,,,10,,,67,0
823584,note_on,,,,,0,0,1,,,,0,,,84,0
823584,note_on,,,,,864,0,1,,,,0,,,79,0
823656,note_on,,,,,96,0,14,,,,12,,,60,0
823656,note_on,,,,,96,0,13,,,,11,,,60,0
823680,note_on,,,,,0,0,1,,,,0,,,83,105
823680,note_on,,,,,192,0,9,,,,5,,,59,105
823680,note_on,,,,,0,0,12,,,,10,,,67,116
823680,note_on,,,,,96,0,12,,,,10,,,71,116
823680,note_on,,,,,24,0,13,,,,11,,,71,116
823680,note_on,,,,,24,0,14,,,,12,,,59,105
823680,note_on,,,,,192,0,15,,,,13,,,50,116
823680,note_on,,,,,96,0,1,,,,0,,,79,105
823680,note_on,,,,,192,0,16,,,,14,,,38,116
823680,note_on,,,,,192,0,3,,,,1,,,79,105
823680,note_on,,,,,0,0,3,,,,1,,,83,105
823680,note_on,,,,,192,0,6,,,,3,,,38,105
823680,note_on,,,,,0,0,6,,,,3,,,50,105
823680,note_on,,,,,192,0,4,,,,2,,,71,105
823680,note_on,,,,,0,0,4,,,,2,,,79,105
823680,note_on,,,,,192,0,8,,,,4,,,67,105
823680,set_tempo,,,,,20592,1,0,400000,,,,,,,
823696,set_tempo,,,,,16,1,0,400000,,,,,,,
823776,note_on,,,,,96,0,13,,,,11,,,71,0
823776,note_on,,,,,96,0,14,,,,12,,,59,0
823800,note_on,,,,,24,0,13,,,,11,,,71,116
823800,note_on,,,,,24,0,14,,,,12,,,59,105
823896,note_on,,,,,96,0,14,,,,12,,,59,0
823896,note_on,,,,,96,0,13,,,,11,,,71,0
823920,note_on,,,,,24,0,13,,,,11,,,67,116
823920,note_on,,,,,24,0,14,,,,12,,,55,105
824016,note_on,,,,,96,0,14,,,,12,,,55,0
824016,note_on,,,,,96,0,13,,,,11,,,67,0
824040,note_on,,,,,24,0,14,,,,12,,,55,105
824040,note_on,,,,,24,0,13,,,,11,,,67,116
824136,note_on,,,,,96,0,13,,,,11,,,67,0
824136,note_on,,,,,96,0,14,,,,12,,,55,0
824160,note_on,,,,,24,0,14,,,,12,,,62,105
824160,note_on,,,,,24,0,13,,,,11,,,62,116
824256,note_on,,,,,96,0,14,,,,12,,,62,0
824256,note_on,,,,,96,0,13,,,,11,,,62,0
824280,note_on,,,,,24,0,14,,,,12,,,62,105
824280,note_on,,,,,24,0,13,,,,11,,,62,116
824376,note_on,,,,,96,0,14,,,,12,,,62,0
824376,note_on,,,,,96,0,13,,,,11,,,62,0
824400,note_on,,,,,24,0,14,,,,12,,,59,105
824400,note_on,,,,,24,0,13,,,,11,,,59,116
824448,note_on,,,,,768,0,4,,,,2,,,79,0
824448,note_on,,,,,768,0,16,,,,14,,,38,0
824448,note_on,,,,,768,0,8,,,,4,,,67,0
824448,note_on,,,,,0,0,4,,,,2,,,71,0
824448,note_on,,,,,0,0,6,,,,3,,,38,0
824448,note_on,,,,,768,0,6,,,,3,,,50,0
824448,note_on,,,,,768,0,9,,,,5,,,59,0
824448,note_on,,,,,768,0,15,,,,13,,,50,0
824496,note_on,,,,,96,0,13,,,,11,,,59,0
824496,note_on,,,,,96,0,14,,,,12,,,59,0
824520,note_on,,,,,24,0,13,,,,11,,,59,116
824520,note_on,,,,,24,0,14,,,,12,,,59,105
824544,note_on,,,,,864,0,1,,,,0,,,83,0
824544,note_on,,,,,0,0,1,,,,0,,,79,0
824544,note_on,,,,,864,0,3,,,,1,,,83,0
824544,note_on,,,,,0,0,3,,,,1,,,79,0
824544,note_on,,,,,0,0,12,,,,10,,,71,0
824544,note_on,,,,,864,0,12,,,,10,,,67,0
824616,note_on,,,,,96,0,14,,,,12,,,59,0
824616,note_on,,,,,96,0,13,,,,11,,,59,0
824640,note_on,,,,,0,0,3,,,,1,,,82,105
824640,note_on,,,,,0,0,1,,,,0,,,82,105
824640,note_on,,,,,192,0,9,,,,5,,,58,105
824640,note_on,,,,,96,0,1,,,,0,,,78,105
824640,note_on,,,,,24,0,13,,,,11,,,70,116
824640,note_on,,,,,96,0,3,,,,1,,,78,105
824640,note_on,,,,,192,0,16,,,,14,,,37,116
824640,note_on,,,,,24,0,14,,,,12,,,58,105
824640,note_on,,,,,0,0,6,,,,3,,,37,105
824640,note_on,,,,,192,0,6,,,,3,,,49,105
824640,note_on,,,,,192,0,8,,,,4,,,66,105
824640,note_on,,,,,96,0,12,,,,10,,,66,116
824640,note_on,,,,,0,0,12,,,,10,,,70,116
824640,note_on,,,,,0,0,4,,,,2,,,78,105
824640,note_on,,,,,192,0,4,,,,2,,,70,105
824640,note_on,,,,,192,0,15,,,,13,,,49,116
824656,set_tempo,,,,,960,1,0,410958,,,,,,,
824736,note_on,,,,,96,0,14,,,,12,,,58,0
824736,note_on,,,,,96,0,13,,,,11,,,70,0
824760,note_on,,,,,24,0,14,,,,12,,,58,105
824760,note_on,,,,,24,0,13,,,,11,,,70,116
824856,note_on,,,,,96,0,13,,,,11,,,70,0
824856,note_on,,,,,96,0,14,,,,12,,,58,0
824880,note_on,,,,,24,0,13,,,,11,,,66,116
824880,note_on,,,,,24,0,14,,,,12,,,54,105
824976,note_on,,,,,96,0,14,,,,12,,,54,0
824976,note_on,,,,,96,0,13,,,,11,,,66,0
825000,note_on,,,,,24,0,13,,,,11,,,66,116
825000,note_on,,,,,24,0,14,,,,12,,,54,105
825096,note_on,,,,,96,0,13,,,,11,,,66,0
825096,note_on,,,,,96,0,14,,,,12,,,54,0
825120,note_on,,,,,24,0,14,,,,12,,,61,105
825120,note_on,,,,,24,0,13,,,,11,,,61,116
825216,note_on,,,,,96,0,13,,,,11,,,61,0
825216,note_on,,,,,96,0,14,,,,12,,,61,0
825240,note_on,,,,,24,0,14,,,,12,,,61,105
825240,note_on,,,,,24,0,13,,,,11,,,61,116
825336,note_on,,,,,96,0,13,,,,11,,,61,0
825336,note_on,,,,,96,0,14,,,,12,,,61,0
825360,note_on,,,,,24,0,14,,,,12,,,58,105
825360,note_on,,,,,24,0,13,,,,11,,,58,116
825408,note_on,,,,,0,0,6,,,,3,,,49,0
825408,note_on,,,,,0,0,4,,,,2,,,70,0
825408,note_on,,,,,768,0,8,,,,4,,,66,0
825408,note_on,,,,,768,0,15,,,,13,,,49,0
825408,note_on,,,,,768,0,9,,,,5,,,58,0
825408,note_on,,,,,768,0,16,,,,14,,,37,0
825408,note_on,,,,,768,0,6,,,,3,,,37,0
825408,note_on,,,,,768,0,4,,,,2,,,78,0
825456,note_on,,,,,96,0,13,,,,11,,,58,0
825456,note_on,,,,,96,0,14,,,,12,,,58,0
825480,note_on,,,,,24,0,14,,,,12,,,58,105
825480,note_on,,,,,24,0,13,,,,11,,,58,116
825504,note_on,,,,,864,0,3,,,,1,,,82,0
825504,note_on,,,,,0,0,12,,,,10,,,66,0
825504,note_on,,,,,864,0,12,,,,10,,,70,0
825504,note_on,,,,,864,0,1,,,,0,,,82,0
825504,note_on,,,,,0,0,3,,,,1,,,78,0
825504,note_on,,,,,0,0,1,,,,0,,,78,0
825576,note_on,,,,,96,0,14,,,,12,,,58,0
825576,note_on,,,,,96,0,13,,,,11,,,58,0
825600,note_on,,,,,0,0,1,,,,0,,,81,105
825600,note_on,,,,,192,0,9,,,,5,,,57,105
825600,note_on,,,,,0,0,3,,,,1,,,81,105
825600,note_on,,,,,24,0,14,,,,12,,,57,105
825600,note_on,,,,,96,0,12,,,,10,,,66,116
825600,note_on,,,,,0,0,12,,,,10,,,69,116
825600,note_on,,,,,192,0,15,,,,13,,,54,116
825600,note_on,,,,,0,0,14,,,,12,,,61,105
825600,note_on,,,,,0,0,4,,,,2,,,73,105
825600,note_on,,,,,192,0,4,,,,2,,,69,105
825600,note_on,,,,,192,0,6,,,,3,,,42,105
825600,note_on,,,,,0,0,6,,,,3,,,54,105
825600,note_on,,,,,192,0,8,,,,4,,,66,105
825600,note_on,,,,,96,0,1,,,,0,,,78,105
825600,note_on,,,,,96,0,3,,,,1,,,73,105
825600,note_on,,,,,24,0,13,,,,11,,,69,116
825600,note_on,,,,,192,0,16,,,,14,,,42,116
825648,set_tempo,,,,,992,1,0,416666,,,,,,,
825696,note_on,,,,,96,0,14,,,,12,,,61,0
825696,note_on,,,,,96,0,13,,,,11,,,69,0
825696,note_on,,,,,0,0,14,,,,12,,,57,0
825720,note_on,,,,,24,0,14,,,,12,,,61,105
825720,note_on,,,,,24,0,13,,,,11,,,69,116
825720,note_on,,,,,0,0,14,,,,12,,,57,105
825816,note_on,,,,,96,0,13,,,,11,,,69,0
825816,note_on,,,,,0,0,14,,,,12,,,61,0
825816,note_on,,,,,96,0,14,,,,12,,,57,0
825840,note_on,,,,,24,0,13,,,,11,,,66,116
825840,note_on,,,,,24,0,14,,,,12,,,61,105
825840,note_on,,,,,0,0,14,,,,12,,,57,105
825936,note_on,,,,,0,0,14,,,,12,,,61,0
825936,note_on,,,,,96,0,13,,,,11,,,66,0
825936,note_on,,,,,96,0,14,,,,12,,,57,0
825960,note_on,,,,,24,0,13,,,,11,,,66,116
825960,note_on,,,,,24,0,14,,,,12,,,61,105
825960,note_on,,,,,0,0,14,,,,12,,,57,105
826056,note_on,,,,,0,0,14,,,,12,,,61,0
826056,note_on,,,,,96,0,13,,,,11,,,66,0
826056,note_on,,,,,96,0,14,,,,12,,,57,0
826080,note_on,,,,,24,0,14,,,,12,,,57,105
826080,note_on,,,,,24,0,13,,,,11,,,61,116
826080,note_on,,,,,0,0,14,,,,12,,,61,105
826176,note_on,,,,,96,0,13,,,,11,,,61,0
826176,note_on,,,,,0,0,14,,,,12,,,57,0
826176,note_on,,,,,96,0,14,,,,12,,,61,0
826200,note_on,,,,,24,0,13,,,,11,,,61,116
826200,note_on,,,,,0,0,14,,,,12,,,57,105
826200,note_on,,,,,24,0,14,,,,12,,,61,105
826296,note_on,,,,,96,0,13,,,,11,,,61,0
826296,note_on,,,,,96,0,14,,,,12,,,57,0
826296,note_on,,,,,0,0,14,,,,12,,,61,0
826320,note_on,,,,,24,0,14,,,,12,,,61,105
826320,note_on,,,,,0,0,14,,,,12,,,57,105
826320,note_on,,,,,24,0,13,,,,11,,,57,116
826368,note_on,,,,,768,0,8,,,,4,,,66,0
826368,note_on,,,,,768,0,9,,,,5,,,57,0
826416,note_on,,,,,96,0,14,,,,12,,,57,0
826416,note_on,,,,,0,0,14,,,,12,,,61,0
826416,note_on,,,,,96,0,13,,,,11,,,57,0
826440,note_on,,,,,24,0,14,,,,12,,,61,105
826440,note_on,,,,,0,0,14,,,,12,,,57,105
826440,note_on,,,,,24,0,13,,,,11,,,57,116
826464,note_on,,,,,864,0,6,,,,3,,,54,0
826464,note_on,,,,,0,0,6,,,,3,,,42,0
826464,note_on,,,,,0,0,3,,,,1,,,73,0
826464,note_on,,,,,864,0,4,,,,2,,,73,0
826464,note_on,,,,,864,0,3,,,,1,,,81,0
826464,note_on,,,,,0,0,1,,,,0,,,78,0
826464,note_on,,,,,864,0,16,,,,14,,,42,0
826464,note_on,,,,,864,0,12,,,,10,,,69,0
826464,note_on,,,,,0,0,4,,,,2,,,69,0
826464,note_on,,,,,864,0,1,,,,0,,,81,0
826464,note_on,,,,,864,0,15,,,,13,,,54,0
826464,note_on,,,,,0,0,12,,,,10,,,66,0
826536,note_on,,,,,96,0,14,,,,12,,,57,0
826536,note_on,,,,,96,0,13,,,,11,,,57,0
826536,note_on,,,,,0,0,14,,,,12,,,61,0
826560,note_on,,,,,192,0,9,,,,5,,,57,105
826560,note_on,,,,,96,0,16,,,,14,,,35,116
826560,note_on,,,,,96,0,15,,,,13,,,47,116
826560,note_on,,,,,0,0,10,,,,6,,,71,105
826560,note_on,,,,,0,0,1,,,,0,,,91,105
826560,note_on,,,,,96,0,1,,,,0,,,81,105
826560,note_on,,,,,5472,0,10,,,,6,,,59,105
826560,note_on,,,,,0,0,3,,,,1,,,79,105
826560,note_on,,,,,0,0,4,,,,2,,,69,105
826560,note_on,,,,,96,0,4,,,,2,,,75,105
826560,note_on,,,,,24,0,13,,,,11,,,69,116
826560,note_on,,,,,0,0,13,,,,11,,,79,116
826560,note_on,,,,,192,0,8,,,,4,,,59,105
826560,note_on,,,,,0,0,14,,,,12,,,57,105
826560,note_on,,,,,0,0,8,,,,4,,,47,105
826560,note_on,,,,,96,0,12,,,,10,,,91,127
826560,note_on,,,,,96,0,6,,,,3,,,35,105
826560,note_on,,,,,0,0,6,,,,3,,,47,105
826560,note_on,,,,,31392,0,11,,,,7,,,47,105
826560,note_on,,,,,24,0,14,,,,12,,,63,105
826560,note_on,,,,,96,0,3,,,,1,,,75,105
826560,note_on,,,,,0,0,9,,,,5,,,63,105
826656,note_on,,,,,0,0,14,,,,12,,,63,0
826656,note_on,,,,,96,0,14,,,,12,,,57,0
826656,note_on,,,,,96,0,11,,,,7,,,47,0
826680,note_on,,,,,24,0,14,,,,12,,,63,105
826680,note_on,,,,,0,0,14,,,,12,,,57,105
826680,note_on,,,,,24,0,11,,,,7,,,47,105
826776,note_on,,,,,96,0,11,,,,7,,,47,0
826776,note_on,,,,,0,0,14,,,,12,,,63,0
826776,note_on,,,,,96,0,14,,,,12,,,57,0
826800,note_on,,,,,0,0,14,,,,12,,,57,105
826800,note_on,,,,,24,0,11,,,,7,,,47,105
826800,note_on,,,,,24,0,14,,,,12,,,63,105
826896,note_on,,,,,96,0,11,,,,7,,,47,0
826896,note_on,,,,,96,0,14,,,,12,,,57,0
826896,note_on,,,,,0,0,14,,,,12,,,63,0
826920,note_on,,,,,24,0,11,,,,7,,,47,105
826920,note_on,,,,,24,0,14,,,,12,,,57,105
826920,note_on,,,,,0,0,14,,,,12,,,63,105
827016,note_on,,,,,96,0,11,,,,7,,,47,0
827016,note_on,,,,,0,0,14,,,,12,,,57,0
827016,note_on,,,,,96,0,14,,,,12,,,63,0
827040,note_on,,,,,24,0,11,,,,7,,,47,105
827040,note_on,,,,,24,0,14,,,,12,,,57,105
827040,note_on,,,,,0,0,14,,,,12,,,63,105
827136,note_on,,,,,96,0,14,,,,12,,,63,0
827136,note_on,,,,,0,0,14,,,,12,,,57,0
827136,note_on,,,,,96,0,11,,,,7,,,47,0
827160,note_on,,,,,24,0,11,,,,7,,,47,105
827160,note_on,,,,,0,0,14,,,,12,,,63,105
827160,note_on,,,,,24,0,14,,,,12,,,57,105
827256,note_on,,,,,0,0,14,,,,12,,,57,0
827256,note_on,,,,,96,0,14,,,,12,,,63,0
827256,note_on,,,,,96,0,11,,,,7,,,47,0
827280,note_on,,,,,0,0,14,,,,12,,,57,105
827280,note_on,,,,,24,0,14,,,,12,,,63,105
827280,note_on,,,,,0,0,3,,,,1,,,78,105
827280,note_on,,,,,720,0,3,,,,1,,,79,0
827280,note_on,,,,,0,0,12,,,,10,,,90,116
827280,note_on,,,,,24,0,11,,,,7,,,47,105
827280,note_on,,,,,720,0,1,,,,0,,,91,0
827280,note_on,,,,,0,0,1,,,,0,,,90,105
827280,note_on,,,,,720,0,12,,,,10,,,91,0
827280,note_on,,,,,720,0,13,,,,11,,,79,0
827280,note_on,,,,,0,0,13,,,,11,,,78,116
827328,note_on,,,,,0,0,9,,,,5,,,57,0
827328,note_on,,,,,768,0,9,,,,5,,,63,0
827328,note_on,,,,,0,0,8,,,,4,,,59,0
827328,note_on,,,,,768,0,8,,,,4,,,47,0
827376,note_on,,,,,96,0,14,,,,12,,,57,0
827376,note_on,,,,,96,0,11,,,,7,,,47,0
827376,note_on,,,,,0,0,14,,,,12,,,63,0
827400,note_on,,,,,24,0,11,,,,7,,,47,105
827400,note_on,,,,,24,0,14,,,,12,,,63,105
827400,note_on,,,,,0,0,14,,,,12,,,57,105
827424,note_on,,,,,0,0,4,,,,2,,,75,0
827424,note_on,,,,,864,0,4,,,,2,,,69,0
827424,note_on,,,,,864,0,15,,,,13,,,47,0
827424,note_on,,,,,864,0,16,,,,14,,,35,0
827424,note_on,,,,,864,0,10,,,,6,,,71,0
827424,note_on,,,,,0,0,10,,,,6,,,59,0
827424,note_on,,,,,864,0,6,,,,3,,,47,0
827424,note_on,,,,,0,0,6,,,,3,,,35,0
827472,note_on,,,,,0,0,13,,,,11,,,69,0
827472,note_on,,,,,192,0,13,,,,11,,,78,0
827496,note_on,,,,,96,0,14,,,,12,,,57,0
827496,note_on,,,,,96,0,11,,,,7,,,47,0
827496,note_on,,,,,0,0,14,,,,12,,,63,0
827496,note_on,,,,,0,0,3,,,,1,,,75,0
827496,note_on,,,,,216,0,12,,,,10,,,90,0
827496,note_on,,,,,216,0,3,,,,1,,,78,0
827496,note_on,,,,,216,0,1,,,,0,,,90,0
827496,note_on,,,,,0,0,1,,,,0,,,81,0
827520,note_on,,,,,0,0,6,,,,3,,,54,105
827520,note_on,,,,,0,0,14,,,,12,,,55,105
827520,note_on,,,,,24,0,14,,,,12,,,59,105
827520,note_on,,,,,0,0,8,,,,4,,,66,105
827520,note_on,,,,,192,0,8,,,,4,,,66,105
827520,note_on,,,,,48,0,13,,,,11,,,67,116
827520,note_on,,,,,0,0,13,,,,11,,,71,116
827520,note_on,,,,,24,0,12,,,,10,,,83,116
827520,note_on,,,,,0,0,4,,,,2,,,71,105
827520,note_on,,,,,0,0,3,,,,1,,,79,105
827520,note_on,,,,,96,0,4,,,,2,,,67,105
827520,note_on,,,,,0,0,9,,,,5,,,55,105
827520,note_on,,,,,0,0,1,,,,0,,,83,105
827520,note_on,,,,,96,0,15,,,,13,,,54,116
827520,note_on,,,,,24,0,1,,,,0,,,79,105
827520,note_on,,,,,96,0,16,,,,14,,,42,116
827520,note_on,,,,,96,0,10,,,,6,,,59,105
827520,note_on,,,,,0,0,10,,,,6,,,71,105
827520,note_on,,,,,24,0,11,,,,7,,,47,105
827520,note_on,,,,,24,0,3,,,,1,,,71,105
827520,note_on,,,,,192,0,9,,,,5,,,59,105
827520,note_on,,,,,96,0,6,,,,3,,,42,105
827616,note_on,,,,,0,0,14,,,,12,,,59,0
827616,note_on,,,,,96,0,14,,,,12,,,55,0
827640,note_on,,,,,0,0,14,,,,12,,,55,105
827640,note_on,,,,,24,0,14,,,,12,,,59,105
827736,note_on,,,,,96,0,14,,,,12,,,55,0
827736,note_on,,,,,0,0,14,,,,12,,,59,0
827760,note_on,,,,,24,0,14,,,,12,,,55,105
827760,note_on,,,,,0,0,14,,,,12,,,59,105
827856,note_on,,,,,96,0,14,,,,12,,,59,0
827856,note_on,,,,,0,0,14,,,,12,,,55,0
827880,note_on,,,,,24,0,14,,,,12,,,55,105
827880,note_on,,,,,0,0,14,,,,12,,,59,105
827904,note_on,,,,,384,0,11,,,,7,,,47,0
827976,note_on,,,,,96,0,14,,,,12,,,59,0
827976,note_on,,,,,0,0,14,,,,12,,,55,0
828000,note_on,,,,,0,0,14,,,,12,,,55,105
828000,note_on,,,,,24,0,14,,,,12,,,59,105
828096,note_on,,,,,96,0,14,,,,12,,,55,0
828096,note_on,,,,,0,0,14,,,,12,,,59,0
828120,note_on,,,,,24,0,14,,,,12,,,59,105
828120,note_on,,,,,0,0,14,,,,12,,,55,105
828168,note_on,,,,,648,0,6,,,,3,,,42,0
828216,note_on,,,,,96,0,14,,,,12,,,55,0
828216,note_on,,,,,0,0,14,,,,12,,,59,0
828240,note_on,,,,,0,0,15,,,,13,,,52,116
828240,note_on,,,,,0,0,16,,,,14,,,40,116
828240,note_on,,,,,0,0,8,,,,4,,,66,0
828240,note_on,,,,,72,0,6,,,,3,,,54,0
828240,note_on,,,,,0,0,6,,,,3,,,40,105
828240,note_on,,,,,0,0,6,,,,3,,,52,105
828240,note_on,,,,,0,0,8,,,,4,,,64,105
828240,note_on,,,,,0,0,8,,,,4,,,64,105
828240,note_on,,,,,720,0,16,,,,14,,,42,0
828240,note_on,,,,,720,0,8,,,,4,,,66,0
828240,note_on,,,,,720,0,15,,,,13,,,54,0
828240,note_on,,,,,24,0,14,,,,12,,,59,105
828240,note_on,,,,,0,0,14,,,,12,,,55,105
828288,note_on,,,,,768,0,9,,,,5,,,55,0
828288,note_on,,,,,0,0,9,,,,5,,,59,0
828336,note_on,,,,,96,0,14,,,,12,,,55,0
828336,note_on,,,,,0,0,14,,,,12,,,59,0
828360,note_on,,,,,24,0,14,,,,12,,,59,105
828360,note_on,,,,,0,0,14,,,,12,,,55,105
828384,note_on,,,,,864,0,4,,,,2,,,71,0
828384,note_on,,,,,0,0,1,,,,0,,,79,0
828384,note_on,,,,,864,0,12,,,,10,,,83,0
828384,note_on,,,,,864,0,10,,,,6,,,71,0
828384,note_on,,,,,0,0,13,,,,11,,,67,0
828384,note_on,,,,,864,0,3,,,,1,,,79,0
828384,note_on,,,,,0,0,4,,,,2,,,67,0
828384,note_on,,,,,864,0,1,,,,0,,,83,0
828384,note_on,,,,,0,0,3,,,,1,,,71,0
828384,note_on,,,,,0,0,10,,,,6,,,59,0
828384,note_on,,,,,864,0,13,,,,11,,,71,0
828432,note_on,,,,,192,0,8,,,,4,,,64,0
828432,note_on,,,,,0,0,8,,,,4,,,64,0
828456,note_on,,,,,0,0,14,,,,12,,,59,0
828456,note_on,,,,,216,0,6,,,,3,,,52,0
828456,note_on,,,,,0,0,6,,,,3,,,40,0
828456,note_on,,,,,216,0,15,,,,13,,,52,0
828456,note_on,,,,,96,0,14,,,,12,,,55,0
828456,note_on,,,,,216,0,16,,,,14,,,40,0
828480,note_on,,,,,24,0,16,,,,14,,,35,116
828480,note_on,,,,,0,0,1,,,,0,,,91,105
828480,note_on,,,,,192,0,9,,,,5,,,63,105
828480,note_on,,,,,24,0,15,,,,13,,,47,116
828480,note_on,,,,,0,0,9,,,,5,,,57,105
828480,note_on,,,,,96,0,12,,,,10,,,91,127
828480,note_on,,,,,576,0,11,,,,7,,,47,105
828480,note_on,,,,,0,0,10,,,,6,,,59,105
828480,note_on,,,,,96,0,10,,,,6,,,71,105
828480,note_on,,,,,0,0,3,,,,1,,,79,105
828480,note_on,,,,,0,0,4,,,,2,,,75,105
828480,note_on,,,,,96,0,3,,,,1,,,75,105
828480,note_on,,,,,0,0,14,,,,12,,,63,105
828480,note_on,,,,,24,0,14,,,,12,,,57,105
828480,note_on,,,,,48,0,8,,,,4,,,47,105
828480,note_on,,,,,0,0,8,,,,4,,,59,105
828480,note_on,,,,,96,0,13,,,,11,,,69,116
828480,note_on,,,,,24,0,6,,,,3,,,47,105
828480,note_on,,,,,0,0,6,,,,3,,,35,105
828480,note_on,,,,,0,0,13,,,,11,,,79,116
828480,note_on,,,,,96,0,1,,,,0,,,81,105
828480,note_on,,,,,96,0,4,,,,2,,,69,105
828576,note_on,,,,,96,0,14,,,,12,,,63,0
828576,note_on,,,,,96,0,11,,,,7,,,47,0
828576,note_on,,,,,0,0,14,,,,12,,,57,0
828600,note_on,,,,,24,0,11,,,,7,,,47,105
828600,note_on,,,,,0,0,14,,,,12,,,57,105
828600,note_on,,,,,24,0,14,,,,12,,,63,105
828696,note_on,,,,,96,0,14,,,,12,,,57,0
828696,note_on,,,,,0,0,14,,,,12,,,63,0
828696,note_on,,,,,96,0,11,,,,7,,,47,0
828720,note_on,,,,,24,0,11,,,,7,,,47,105
828720,note_on,,,,,24,0,14,,,,12,,,63,105
828720,note_on,,,,,0,0,14,,,,12,,,57,105
828816,note_on,,,,,96,0,14,,,,12,,,57,0
828816,note_on,,,,,0,0,14,,,,12,,,63,0
828816,note_on,,,,,96,0,11,,,,7,,,47,0
828840,note_on,,,,,24,0,11,,,,7,,,47,105
828840,note_on,,,,,24,0,14,,,,12,,,63,105
828840,note_on,,,,,0,0,14,,,,12,,,57,105
828936,note_on,,,,,96,0,11,,,,7,,,47,0
828936,note_on,,,,,96,0,14,,,,12,,,57,0
828936,note_on,,,,,0,0,14,,,,12,,,63,0
828960,note_on,,,,,24,0,11,,,,7,,,47,105
828960,note_on,,,,,24,0,14,,,,12,,,63,105
828960,note_on,,,,,0,0,14,,,,12,,,57,105
829056,note_on,,,,,96,0,11,,,,7,,,47,0
829056,note_on,,,,,96,0,14,,,,12,,,57,0
829056,note_on,,,,,0,0,14,,,,12,,,63,0
829080,note_on,,,,,24,0,11,,,,7,,,47,105
829080,note_on,,,,,0,0,14,,,,12,,,57,105
829080,note_on,,,,,24,0,14,,,,12,,,63,105
829176,note_on,,,,,96,0,11,,,,7,,,47,0
829176,note_on,,,,,96,0,14,,,,12,,,57,0
829176,note_on,,,,,0,0,14,,,,12,,,63,0
829200,note_on,,,,,0,0,13,,,,11,,,78,116
829200,note_on,,,,,720,0,13,,,,11,,,79,0
829200,note_on,,,,,0,0,12,,,,10,,,90,116
829200,note_on,,,,,720,0,12,,,,10,,,91,0
829200,note_on,,,,,0,0,1,,,,0,,,90,105
829200,note_on,,,,,720,0,1,,,,0,,,91,0
829200,note_on,,,,,720,0,3,,,,1,,,79,0
829200,note_on,,,,,0,0,14,,,,12,,,63,105
829200,note_on,,,,,24,0,14,,,,12,,,57,105
829200,note_on,,,,,24,0,11,,,,7,,,47,105
829200,note_on,,,,,0,0,3,,,,1,,,78,105
829248,note_on,,,,,768,0,8,,,,4,,,59,0
829248,note_on,,,,,0,0,8,,,,4,,,47,0
829248,note_on,,,,,0,0,9,,,,5,,,63,0
829248,note_on,,,,,768,0,9,,,,5,,,57,0
829296,note_on,,,,,0,0,14,,,,12,,,57,0
829296,note_on,,,,,96,0,11,,,,7,,,47,0
829296,note_on,,,,,96,0,14,,,,12,,,63,0
829320,note_on,,,,,24,0,14,,,,12,,,57,105
829320,note_on,,,,,0,0,14,,,,12,,,63,105
829320,note_on,,,,,24,0,11,,,,7,,,47,105
829344,note_on,,,,,864,0,6,,,,3,,,35,0
829344,note_on,,,,,864,0,15,,,,13,,,47,0
829344,note_on,,,,,0,0,6,,,,3,,,47,0
829344,note_on,,,,,864,0,16,,,,14,,,35,0
829344,note_on,,,,,864,0,10,,,,6,,,59,0
829344,note_on,,,,,0,0,10,,,,6,,,71,0
829344,note_on,,,,,864,0,4,,,,2,,,75,0
829344,note_on,,,,,0,0,4,,,,2,,,69,0
829416,note_on,,,,,0,0,1,,,,0,,,81,0
829416,note_on,,,,,216,0,12,,,,10,,,90,0
829416,note_on,,,,,96,0,14,,,,12,,,63,0
829416,note_on,,,,,216,0,3,,,,1,,,78,0
829416,note_on,,,,,0,0,13,,,,11,,,69,0
829416,note_on,,,,,216,0,13,,,,11,,,78,0
829416,note_on,,,,,0,0,3,,,,1,,,75,0
829416,note_on,,,,,0,0,14,,,,12,,,57,0
829416,note_on,,,,,216,0,1,,,,0,,,90,0
829416,note_on,,,,,96,0,11,,,,7,,,47,0
829440,note_on,,,,,96,0,4,,,,2,,,71,105
829440,note_on,,,,,96,0,6,,,,3,,,42,105
829440,note_on,,,,,96,0,16,,,,14,,,45,116
829440,note_on,,,,,24,0,11,,,,7,,,47,105
829440,note_on,,,,,24,0,12,,,,10,,,83,116
829440,note_on,,,,,24,0,3,,,,1,,,76,105
829440,note_on,,,,,0,0,3,,,,1,,,83,105
829440,note_on,,,,,192,0,9,,,,5,,,64,105
829440,note_on,,,,,0,0,9,,,,5,,,59,105
829440,note_on,,,,,0,0,8,,,,4,,,69,105
829440,note_on,,,,,192,0,8,,,,4,,,69,105
829440,note_on,,,,,0,0,13,,,,11,,,67,116
829440,note_on,,,,,0,0,4,,,,2,,,76,105
829440,note_on,,,,,24,0,13,,,,11,,,71,116
829440,note_on,,,,,96,0,15,,,,13,,,57,116
829440,note_on,,,,,0,0,6,,,,3,,,57,105
829440,note_on,,,,,24,0,1,,,,0,,,83,105
829440,note_on,,,,,96,0,10,,,,6,,,59,105
829440,note_on,,,,,0,0,10,,,,6,,,71,105
829440,note_on,,,,,0,0,14,,,,12,,,59,105
829440,note_on,,,,,24,0,14,,,,12,,,64,105
829536,note_on,,,,,0,0,14,,,,12,,,64,0
829536,note_on,,,,,96,0,14,,,,12,,,59,0
829560,note_on,,,,,24,0,14,,,,12,,,64,105
829560,note_on,,,,,0,0,14,,,,12,,,59,105
829656,note_on,,,,,0,0,14,,,,12,,,64,0
829656,note_on,,,,,96,0,14,,,,12,,,59,0
829680,note_on,,,,,0,0,14,,,,12,,,64,105
829680,note_on,,,,,24,0,14,,,,12,,,59,105
829776,note_on,,,,,0,0,14,,,,12,,,59,0
829776,note_on,,,,,96,0,14,,,,12,,,64,0
829800,note_on,,,,,0,0,14,,,,12,,,59,105
829800,note_on,,,,,24,0,14,,,,12,,,64,105
829824,note_on,,,,,384,0,11,,,,7,,,47,0
829896,note_on,,,,,0,0,14,,,,12,,,64,0
829896,note_on,,,,,96,0,14,,,,12,,,59,0
829920,note_on,,,,,0,0,14,,,,12,,,64,105
829920,note_on,,,,,24,0,14,,,,12,,,59,105
830016,note_on,,,,,0,0,14,,,,12,,,59,0
830016,note_on,,,,,96,0,14,,,,12,,,64,0
830040,note_on,,,,,24,0,14,,,,12,,,64,105
830040,note_on,,,,,0,0,14,,,,12,,,59,105
830088,note_on,,,,,648,0,6,,,,3,,,42,0
830136,note_on,,,,,0,0,14,,,,12,,,64,0
830136,note_on,,,,,96,0,14,,,,12,,,59,0
830160,note_on,,,,,720,0,16,,,,14,,,45,0
830160,note_on,,,,,0,0,6,,,,3,,,55,105
830160,note_on,,,,,0,0,6,,,,3,,,40,105
830160,note_on,,,,,24,0,14,,,,12,,,59,105
830160,note_on,,,,,0,0,15,,,,13,,,55,116
830160,note_on,,,,,72,0,6,,,,3,,,57,0
830160,note_on,,,,,720,0,15,,,,13,,,57,0
830160,note_on,,,,,0,0,8,,,,4,,,67,105
830160,note_on,,,,,720,0,8,,,,4,,,69,0
830160,note_on,,,,,0,0,8,,,,4,,,67,105
830160,note_on,,,,,0,0,8,,,,4,,,69,0
830160,note_on,,,,,0,0,16,,,,14,,,43,116
830160,note_on,,,,,0,0,14,,,,12,,,64,105
830208,note_on,,,,,768,0,9,,,,5,,,59,0
830208,note_on,,,,,0,0,9,,,,5,,,64,0
830256,note_on,,,,,96,0,14,,,,12,,,64,0
830256,note_on,,,,,0,0,14,,,,12,,,59,0
830280,note_on,,,,,24,0,14,,,,12,,,59,105
830280,note_on,,,,,0,0,14,,,,12,,,64,105
830304,note_on,,,,,0,0,13,,,,11,,,71,0
830304,note_on,,,,,0,0,10,,,,6,,,59,0
830304,note_on,,,,,864,0,10,,,,6,,,71,0
830304,note_on,,,,,864,0,12,,,,10,,,83,0
830304,note_on,,,,,864,0,1,,,,0,,,83,0
830304,note_on,,,,,864,0,4,,,,2,,,76,0
830304,note_on,,,,,0,0,4,,,,2,,,71,0
830304,note_on,,,,,864,0,3,,,,1,,,83,0
830304,note_on,,,,,0,0,3,,,,1,,,76,0
830304,note_on,,,,,864,0,13,,,,11,,,67,0
830352,note_on,,,,,192,0,8,,,,4,,,67,0
830352,note_on,,,,,0,0,8,,,,4,,,67,0
830376,note_on,,,,,216,0,16,,,,14,,,43,0
830376,note_on,,,,,0,0,14,,,,12,,,59,0
830376,note_on,,,,,216,0,6,,,,3,,,55,0
830376,note_on,,,,,216,0,15,,,,13,,,55,0
830376,note_on,,,,,0,0,6,,,,3,,,40,0
830376,note_on,,,,,96,0,14,,,,12,,,64,0
830400,note_on,,,,,96,0,3,,,,1,,,79,105
830400,note_on,,,,,0,0,3,,,,1,,,75,105
830400,note_on,,,,,0,0,1,,,,0,,,91,105
830400,note_on,,,,,96,0,1,,,,0,,,87,105
830400,note_on,,,,,96,0,10,,,,6,,,59,105
830400,note_on,,,,,24,0,14,,,,12,,,69,105
830400,note_on,,,,,0,0,4,,,,2,,,75,105
830400,note_on,,,,,0,0,14,,,,12,,,63,105
830400,note_on,,,,,0,0,10,,,,6,,,71,105
830400,note_on,,,,,24,0,6,,,,3,,,47,105
830400,note_on,,,,,0,0,6,,,,3,,,35,105
830400,note_on,,,,,48,0,8,,,,4,,,59,105
830400,note_on,,,,,0,0,8,,,,4,,,47,105
830400,note_on,,,,,192,0,9,,,,5,,,63,105
830400,note_on,,,,,0,0,9,,,,5,,,57,105
830400,note_on,,,,,96,0,4,,,,2,,,69,105
830400,note_on,,,,,576,0,11,,,,7,,,47,105
830400,note_on,,,,,24,0,16,,,,14,,,35,116
830400,note_on,,,,,24,0,15,,,,13,,,47,116
830400,note_on,,,,,0,0,13,,,,11,,,69,116
830400,note_on,,,,,96,0,13,,,,11,,,79,116
830400,note_on,,,,,96,0,12,,,,10,,,91,116
830496,note_on,,,,,0,0,14,,,,12,,,69,0
830496,note_on,,,,,96,0,12,,,,10,,,91,0
830496,note_on,,,,,96,0,11,,,,7,,,47,0
830496,note_on,,,,,96,0,14,,,,12,,,63,0
830520,note_on,,,,,0,0,14,,,,12,,,63,105
830520,note_on,,,,,24,0,14,,,,12,,,69,105
830520,note_on,,,,,24,0,12,,,,10,,,91,116
830520,note_on,,,,,24,0,11,,,,7,,,47,105
830616,note_on,,,,,96,0,11,,,,7,,,47,0
830616,note_on,,,,,96,0,14,,,,12,,,63,0
830616,note_on,,,,,0,0,14,,,,12,,,69,0
830616,note_on,,,,,96,0,12,,,,10,,,91,0
830640,note_on,,,,,24,0,12,,,,10,,,91,116
830640,note_on,,,,,0,0,14,,,,12,,,63,105
830640,note_on,,,,,24,0,14,,,,12,,,69,105
830640,note_on,,,,,24,0,11,,,,7,,,47,105
830736,note_on,,,,,0,0,14,,,,12,,,69,0
830736,note_on,,,,,96,0,11,,,,7,,,47,0
830736,note_on,,,,,96,0,12,,,,10,,,91,0
830736,note_on,,,,,96,0,14,,,,12,,,63,0
830760,note_on,,,,,24,0,14,,,,12,,,69,105
830760,note_on,,,,,24,0,12,,,,10,,,91,116
830760,note_on,,,,,24,0,11,,,,7,,,47,105
830760,note_on,,,,,0,0,14,,,,12,,,63,105
830856,note_on,,,,,96,0,12,,,,10,,,91,0
830856,note_on,,,,,0,0,14,,,,12,,,69,0
830856,note_on,,,,,96,0,11,,,,7,,,47,0
830856,note_on,,,,,96,0,14,,,,12,,,63,0
830880,note_on,,,,,24,0,12,,,,10,,,91,116
830880,note_on,,,,,24,0,14,,,,12,,,63,105
830880,note_on,,,,,0,0,14,,,,12,,,69,105
830880,note_on,,,,,24,0,11,,,,7,,,47,105
830976,note_on,,,,,96,0,11,,,,7,,,47,0
830976,note_on,,,,,0,0,14,,,,12,,,63,0
830976,note_on,,,,,96,0,12,,,,10,,,91,0
830976,note_on,,,,,96,0,14,,,,12,,,69,0
831000,note_on,,,,,24,0,11,,,,7,,,47,105
831000,note_on,,,,,24,0,12,,,,10,,,91,116
831000,note_on,,,,,0,0,14,,,,12,,,63,105
831000,note_on,,,,,24,0,14,,,,12,,,69,105
831048,note_on,,,,,648,0,13,,,,11,,,69,0
831096,note_on,,,,,96,0,12,,,,10,,,91,0
831096,note_on,,,,,96,0,11,,,,7,,,47,0
831096,note_on,,,,,0,0,14,,,,12,,,69,0
831096,note_on,,,,,96,0,14,,,,12,,,63,0
831120,note_on,,,,,72,0,13,,,,11,,,79,0
831120,note_on,,,,,0,0,14,,,,12,,,69,105
831120,note_on,,,,,24,0,11,,,,7,,,47,105
831120,note_on,,,,,24,0,12,,,,10,,,90,116
831120,note_on,,,,,24,0,14,,,,12,,,63,105
831120,note_on,,,,,0,0,1,,,,0,,,90,105
831120,note_on,,,,,720,0,3,,,,1,,,79,0
831120,note_on,,,,,720,0,1,,,,0,,,91,0
831120,note_on,,,,,0,0,13,,,,11,,,78,116
831120,note_on,,,,,0,0,3,,,,1,,,78,105
831168,note_on,,,,,768,0,9,,,,5,,,57,0
831168,note_on,,,,,768,0,8,,,,4,,,47,0
831168,note_on,,,,,0,0,8,,,,4,,,59,0
831168,note_on,,,,,0,0,9,,,,5,,,63,0
831216,note_on,,,,,0,0,14,,,,12,,,63,0
831216,note_on,,,,,96,0,12,,,,10,,,90,0
831216,note_on,,,,,96,0,11,,,,7,,,47,0
831216,note_on,,,,,96,0,14,,,,12,,,69,0
831240,note_on,,,,,24,0,14,,,,12,,,69,105
831240,note_on,,,,,24,0,12,,,,10,,,90,116
831240,note_on,,,,,0,0,14,,,,12,,,63,105
831240,note_on,,,,,24,0,11,,,,7,,,47,105
831264,note_on,,,,,864,0,6,,,,3,,,35,0
831264,note_on,,,,,0,0,4,,,,2,,,69,0
831264,note_on,,,,,864,0,4,,,,2,,,75,0
831264,note_on,,,,,864,0,15,,,,13,,,47,0
831264,note_on,,,,,0,0,6,,,,3,,,47,0
831264,note_on,,,,,864,0,16,,,,14,,,35,0
831264,note_on,,,,,864,0,10,,,,6,,,71,0
831264,note_on,,,,,0,0,10,,,,6,,,59,0
831336,note_on,,,,,0,0,14,,,,12,,,69,0
831336,note_on,,,,,216,0,13,,,,11,,,78,0
831336,note_on,,,,,96,0,12,,,,10,,,90,0
831336,note_on,,,,,96,0,11,,,,7,,,47,0
831336,note_on,,,,,216,0,3,,,,1,,,78,0
831336,note_on,,,,,0,0,3,,,,1,,,75,0
831336,note_on,,,,,96,0,14,,,,12,,,63,0
831336,note_on,,,,,0,0,1,,,,0,,,87,0
831336,note_on,,,,,216,0,1,,,,0,,,90,0
831360,note_on,,,,,0,0,9,,,,5,,,60,125
831360,note_on,,,,,96,0,4,,,,2,,,76,105
831360,note_on,,,,,24,0,14,,,,12,,,64,105
831360,note_on,,,,,96,0,6,,,,3,,,48,105
831360,note_on,,,,,24,0,11,,,,7,,,52,125
831360,note_on,,,,,0,0,14,,,,12,,,76,105
831360,note_on,,,,,96,0,15,,,,13,,,60,116
831360,note_on,,,,,0,0,8,,,,4,,,52,105
831360,note_on,,,,,192,0,9,,,,5,,,64,105
831360,note_on,,,,,0,0,13,,,,11,,,76,116
831360,note_on,,,,,24,0,13,,,,11,,,81,116
831360,note_on,,,,,192,0,8,,,,4,,,64,105
831360,note_on,,,,,24,0,12,,,,10,,,93,116
831360,note_on,,,,,0,0,4,,,,2,,,69,105
831360,note_on,,,,,0,0,3,,,,1,,,81,105
831360,note_on,,,,,0,0,6,,,,3,,,60,105
831360,note_on,,,,,0,0,10,,,,6,,,76,105
831360,note_on,,,,,96,0,10,,,,6,,,64,105
831360,note_on,,,,,24,0,1,,,,0,,,88,105
831360,note_on,,,,,96,0,16,,,,14,,,48,116
831360,note_on,,,,,0,0,1,,,,0,,,93,105
831360,note_on,,,,,24,0,3,,,,1,,,76,105
831456,note_on,,,,,0,0,14,,,,12,,,64,0
831456,note_on,,,,,96,0,14,,,,12,,,76,0
831456,note_on,,,,,96,0,11,,,,7,,,52,0
831456,note_on,,,,,96,0,12,,,,10,,,93,0
831480,note_on,,,,,24,0,12,,,,10,,,93,116
831480,note_on,,,,,0,0,14,,,,12,,,76,105
831480,note_on,,,,,24,0,14,,,,12,,,64,105
831480,note_on,,,,,24,0,11,,,,7,,,52,105
831576,note_on,,,,,0,0,14,,,,12,,,64,0
831576,note_on,,,,,96,0,12,,,,10,,,93,0
831576,note_on,,,,,96,0,14,,,,12,,,76,0
831576,note_on,,,,,96,0,11,,,,7,,,52,0
831600,note_on,,,,,0,0,14,,,,12,,,64,105
831600,note_on,,,,,24,0,12,,,,10,,,93,116
831600,note_on,,,,,24,0,14,,,,12,,,76,105
831600,note_on,,,,,24,0,11,,,,7,,,52,105
831696,note_on,,,,,0,0,14,,,,12,,,76,0
831696,note_on,,,,,96,0,14,,,,12,,,64,0
831696,note_on,,,,,96,0,11,,,,7,,,52,0
831696,note_on,,,,,96,0,12,,,,10,,,93,0
831720,note_on,,,,,24,0,12,,,,10,,,93,116
831720,note_on,,,,,0,0,14,,,,12,,,64,105
831720,note_on,,,,,24,0,14,,,,12,,,76,105
831720,note_on,,,,,24,0,11,,,,7,,,52,105
831816,note_on,,,,,96,0,12,,,,10,,,93,0
831816,note_on,,,,,0,0,14,,,,12,,,76,0
831816,note_on,,,,,96,0,11,,,,7,,,52,0
831816,note_on,,,,,96,0,14,,,,12,,,64,0
831840,note_on,,,,,24,0,12,,,,10,,,93,116
831840,note_on,,,,,24,0,11,,,,7,,,52,105
831840,note_on,,,,,24,0,14,,,,12,,,76,105
831840,note_on,,,,,0,0,14,,,,12,,,64,105
831936,note_on,,,,,96,0,11,,,,7,,,52,0
831936,note_on,,,,,0,0,14,,,,12,,,76,0
831936,note_on,,,,,96,0,12,,,,10,,,93,0
831936,note_on,,,,,96,0,14,,,,12,,,64,0
831960,note_on,,,,,24,0,14,,,,12,,,64,105
831960,note_on,,,,,0,0,14,,,,12,,,76,105
831960,note_on,,,,,24,0,11,,,,7,,,52,105
831960,note_on,,,,,24,0,12,,,,10,,,93,116
832008,note_on,,,,,648,0,6,,,,3,,,48,0
832008,note_on,,,,,648,0,13,,,,11,,,76,0
832056,note_on,,,,,96,0,14,,,,12,,,76,0
832056,note_on,,,,,96,0,11,,,,7,,,52,0
832056,note_on,,,,,96,0,12,,,,10,,,93,0
832056,note_on,,,,,0,0,14,,,,12,,,64,0
832080,note_on,,,,,0,0,3,,,,1,,,79,105
832080,note_on,,,,,720,0,3,,,,1,,,81,0
832080,note_on,,,,,0,0,15,,,,13,,,59,116
832080,note_on,,,,,0,0,9,,,,5,,,59,105
832080,note_on,,,,,720,0,9,,,,5,,,60,0
832080,note_on,,,,,720,0,16,,,,14,,,48,0
832080,note_on,,,,,0,0,6,,,,3,,,47,105
832080,note_on,,,,,0,0,6,,,,3,,,59,105
832080,note_on,,,,,0,0,14,,,,12,,,64,105
832080,note_on,,,,,24,0,14,,,,12,,,76,105
832080,note_on,,,,,0,0,16,,,,14,,,47,116
832080,note_on,,,,,72,0,6,,,,3,,,60,0
832080,note_on,,,,,0,0,13,,,,11,,,79,116
832080,note_on,,,,,72,0,13,,,,11,,,81,0
832080,note_on,,,,,720,0,4,,,,2,,,69,0
832080,note_on,,,,,0,0,4,,,,2,,,67,105
832080,note_on,,,,,720,0,1,,,,0,,,93,0
832080,note_on,,,,,0,0,1,,,,0,,,91,105
832080,note_on,,,,,24,0,12,,,,10,,,91,116
832080,note_on,,,,,720,0,15,,,,13,,,60,0
832080,note_on,,,,,24,0,11,,,,7,,,52,105
832128,note_on,,,,,0,0,8,,,,4,,,64,0
832128,note_on,,,,,768,0,8,,,,4,,,52,0
832176,note_on,,,,,96,0,11,,,,7,,,52,0
832176,note_on,,,,,96,0,14,,,,12,,,64,0
832176,note_on,,,,,0,0,14,,,,12,,,76,0
832176,note_on,,,,,96,0,12,,,,10,,,91,0
832200,note_on,,,,,24,0,14,,,,12,,,64,105
832200,note_on,,,,,24,0,11,,,,7,,,52,105
832200,note_on,,,,,24,0,12,,,,10,,,91,116
832200,note_on,,,,,0,0,14,,,,12,,,76,105
832224,note_on,,,,,0,0,10,,,,6,,,64,0
832224,note_on,,,,,864,0,10,,,,6,,,76,0
832272,note_on,,,,,192,0,1,,,,0,,,91,0
832272,note_on,,,,,192,0,9,,,,5,,,59,0
832272,note_on,,,,,0,0,9,,,,5,,,64,0
832272,note_on,,,,,0,0,1,,,,0,,,88,0
832272,note_on,,,,,192,0,4,,,,2,,,67,0
832272,note_on,,,,,0,0,3,,,,1,,,76,0
832272,note_on,,,,,192,0,3,,,,1,,,79,0
832272,note_on,,,,,0,0,4,,,,2,,,76,0
832296,note_on,,,,,216,0,16,,,,14,,,47,0
832296,note_on,,,,,96,0,14,,,,12,,,76,0
832296,note_on,,,,,0,0,14,,,,12,,,64,0
832296,note_on,,,,,216,0,13,,,,11,,,79,0
832296,note_on,,,,,216,0,6,,,,3,,,47,0
832296,note_on,,,,,216,0,15,,,,13,,,59,0
832296,note_on,,,,,96,0,11,,,,7,,,52,0
832296,note_on,,,,,0,0,6,,,,3,,,59,0
832296,note_on,,,,,96,0,12,,,,10,,,91,0
832320,note_on,,,,,24,0,6,,,,3,,,54,105
832320,note_on,,,,,24,0,11,,,,7,,,52,125
832320,note_on,,,,,24,0,15,,,,13,,,62,116
832320,note_on,,,,,24,0,13,,,,11,,,76,116
832320,note_on,,,,,0,0,13,,,,11,,,83,116
832320,note_on,,,,,48,0,1,,,,0,,,88,105
832320,note_on,,,,,0,0,1,,,,0,,,95,105
832320,note_on,,,,,0,0,6,,,,3,,,62,105
832320,note_on,,,,,24,0,12,,,,10,,,95,116
832320,note_on,,,,,192,0,8,,,,4,,,64,105
832320,note_on,,,,,0,0,8,,,,4,,,52,105
832320,note_on,,,,,48,0,3,,,,1,,,76,105
832320,note_on,,,,,96,0,10,,,,6,,,64,105
832320,note_on,,,,,0,0,14,,,,12,,,64,105
832320,note_on,,,,,24,0,14,,,,12,,,76,105
832320,note_on,,,,,48,0,9,,,,5,,,64,105
832320,note_on,,,,,0,0,9,,,,5,,,62,125
832320,note_on,,,,,0,0,3,,,,1,,,83,105
832320,note_on,,,,,0,0,10,,,,6,,,76,105
832320,note_on,,,,,48,0,4,,,,2,,,76,105
832320,note_on,,,,,24,0,16,,,,14,,,50,116
832320,note_on,,,,,0,0,4,,,,2,,,71,105
832416,note_on,,,,,0,0,14,,,,12,,,76,0
832416,note_on,,,,,96,0,14,,,,12,,,64,0
832416,note_on,,,,,96,0,11,,,,7,,,52,0
832416,note_on,,,,,96,0,12,,,,10,,,95,0
832440,note_on,,,,,0,0,14,,,,12,,,76,105
832440,note_on,,,,,24,0,12,,,,10,,,95,116
832440,note_on,,,,,24,0,11,,,,7,,,52,105
832440,note_on,,,,,24,0,14,,,,12,,,64,105
832536,note_on,,,,,96,0,11,,,,7,,,52,0
832536,note_on,,,,,96,0,14,,,,12,,,76,0
832536,note_on,,,,,96,0,12,,,,10,,,95,0
832536,note_on,,,,,0,0,14,,,,12,,,64,0
832560,note_on,,,,,24,0,12,,,,10,,,95,116
832560,note_on,,,,,0,0,14,,,,12,,,76,105
832560,note_on,,,,,24,0,14,,,,12,,,64,105
832560,note_on,,,,,24,0,11,,,,7,,,52,105
832656,note_on,,,,,96,0,11,,,,7,,,52,0
832656,note_on,,,,,96,0,12,,,,10,,,95,0
832656,note_on,,,,,96,0,14,,,,12,,,76,0
832656,note_on,,,,,0,0,14,,,,12,,,64,0
832680,note_on,,,,,24,0,11,,,,7,,,52,105
832680,note_on,,,,,24,0,12,,,,10,,,95,116
832680,note_on,,,,,24,0,14,,,,12,,,76,105
832680,note_on,,,,,0,0,14,,,,12,,,64,105
832776,note_on,,,,,96,0,11,,,,7,,,52,0
832776,note_on,,,,,96,0,14,,,,12,,,64,0
832776,note_on,,,,,0,0,14,,,,12,,,76,0
832776,note_on,,,,,96,0,12,,,,10,,,95,0
832800,note_on,,,,,0,0,14,,,,12,,,64,105
832800,note_on,,,,,24,0,11,,,,7,,,52,105
832800,note_on,,,,,24,0,14,,,,12,,,76,105
832800,note_on,,,,,24,0,12,,,,10,,,95,116
832896,note_on,,,,,96,0,11,,,,7,,,52,0
832896,note_on,,,,,0,0,14,,,,12,,,76,0
832896,note_on,,,,,96,0,12,,,,10,,,95,0
832896,note_on,,,,,96,0,14,,,,12,,,64,0
832920,note_on,,,,,24,0,14,,,,12,,,76,105
832920,note_on,,,,,24,0,11,,,,7,,,52,105
832920,note_on,,,,,24,0,12,,,,10,,,95,116
832920,note_on,,,,,0,0,14,,,,12,,,64,105
832968,note_on,,,,,648,0,13,,,,11,,,76,0
832968,note_on,,,,,648,0,6,,,,3,,,54,0
833016,note_on,,,,,96,0,12,,,,10,,,95,0
833016,note_on,,,,,96,0,14,,,,12,,,64,0
833016,note_on,,,,,0,0,14,,,,12,,,76,0
833016,note_on,,,,,96,0,11,,,,7,,,52,0
833040,note_on,,,,,24,0,12,,,,10,,,93,116
833040,note_on,,,,,24,0,14,,,,12,,,76,105
833040,note_on,,,,,0,0,14,,,,12,,,64,105
833040,note_on,,,,,0,0,6,,,,3,,,60,105
833040,note_on,,,,,720,0,4,,,,2,,,71,0
833040,note_on,,,,,720,0,16,,,,14,,,50,0
833040,note_on,,,,,720,0,15,,,,13,,,62,0
833040,note_on,,,,,0,0,15,,,,13,,,60,116
833040,note_on,,,,,720,0,1,,,,0,,,95,0
833040,note_on,,,,,720,0,3,,,,1,,,83,0
833040,note_on,,,,,0,0,3,,,,1,,,81,105
833040,note_on,,,,,0,0,4,,,,2,,,69,105
833040,note_on,,,,,0,0,9,,,,5,,,60,105
833040,note_on,,,,,72,0,13,,,,11,,,83,0
833040,note_on,,,,,0,0,13,,,,11,,,81,116
833040,note_on,,,,,72,0,6,,,,3,,,62,0
833040,note_on,,,,,0,0,6,,,,3,,,48,105
833040,note_on,,,,,720,0,9,,,,5,,,62,0
833040,note_on,,,,,0,0,1,,,,0,,,93,105
833040,note_on,,,,,24,0,11,,,,7,,,52,105
833040,note_on,,,,,0,0,16,,,,14,,,48,116
833088,note_on,,,,,768,0,8,,,,4,,,52,0
833088,note_on,,,,,0,0,8,,,,4,,,64,0
833136,note_on,,,,,96,0,11,,,,7,,,52,0
833136,note_on,,,,,96,0,12,,,,10,,,93,0
833136,note_on,,,,,96,0,14,,,,12,,,64,0
833136,note_on,,,,,0,0,14,,,,12,,,76,0
833160,note_on,,,,,24,0,11,,,,7,,,52,105
833160,note_on,,,,,24,0,14,,,,12,,,76,105
833160,note_on,,,,,24,0,12,,,,10,,,93,116
833160,note_on,,,,,0,0,14,,,,12,,,64,105
833184,note_on,,,,,864,0,10,,,,6,,,76,0
833184,note_on,,,,,0,0,10,,,,6,,,64,0
833232,note_on,,,,,192,0,4,,,,2,,,69,0
833232,note_on,,,,,192,0,1,,,,0,,,93,0
833232,note_on,,,,,0,0,4,,,,2,,,76,0
833232,note_on,,,,,0,0,1,,,,0,,,88,0
833232,note_on,,,,,192,0,9,,,,5,,,60,0
833232,note_on,,,,,0,0,9,,,,5,,,64,0
833232,note_on,,,,,192,0,3,,,,1,,,81,0
833232,note_on,,,,,0,0,3,,,,1,,,76,0
833256,note_on,,,,,0,0,14,,,,12,,,76,0
833256,note_on,,,,,216,0,6,,,,3,,,60,0
833256,note_on,,,,,216,0,16,,,,14,,,48,0
833256,note_on,,,,,0,0,6,,,,3,,,48,0
833256,note_on,,,,,96,0,14,,,,12,,,64,0
833256,note_on,,,,,216,0,13,,,,11,,,81,0
833256,note_on,,,,,96,0,12,,,,10,,,93,0
833256,note_on,,,,,216,0,15,,,,13,,,60,0
833256,note_on,,,,,96,0,11,,,,7,,,52,0
833280,note_on,,,,,0,0,3,,,,1,,,76,105
833280,note_on,,,,,24,0,14,,,,12,,,78,105
833280,note_on,,,,,0,0,14,,,,12,,,76,105
833280,note_on,,,,,0,0,14,,,,12,,,69,105
833280,note_on,,,,,24,0,15,,,,13,,,57,116
833280,note_on,,,,,24,0,16,,,,14,,,45,116
833280,note_on,,,,,24,0,11,,,,7,,,52,125
833280,note_on,,,,,24,0,6,,,,3,,,45,105
833280,note_on,,,,,0,0,13,,,,11,,,84,116
833280,note_on,,,,,96,0,10,,,,6,,,78,105
833280,note_on,,,,,0,0,6,,,,3,,,57,105
833280,note_on,,,,,0,0,4,,,,2,,,69,105
833280,note_on,,,,,24,0,12,,,,10,,,96,116
833280,note_on,,,,,0,0,1,,,,0,,,96,105
833280,note_on,,,,,48,0,1,,,,0,,,88,105
833280,note_on,,,,,48,0,9,,,,5,,,64,105
833280,note_on,,,,,0,0,9,,,,5,,,60,105
833280,note_on,,,,,192,0,8,,,,4,,,66,105
833280,note_on,,,,,48,0,3,,,,1,,,84,105
833280,note_on,,,,,24,0,13,,,,11,,,69,116
833280,note_on,,,,,0,0,10,,,,6,,,76,105
833280,note_on,,,,,48,0,4,,,,2,,,76,105
833280,note_on,,,,,0,0,8,,,,4,,,64,105
833296,set_tempo,,,,,7648,1,0,441176,,,,,,,
833376,note_on,,,,,96,0,12,,,,10,,,96,0
833376,note_on,,,,,96,0,14,,,,12,,,69,0
833376,note_on,,,,,0,0,14,,,,12,,,76,0
833376,note_on,,,,,96,0,11,,,,7,,,52,0
833376,note_on,,,,,0,0,14,,,,12,,,78,0
833400,note_on,,,,,24,0,11,,,,7,,,52,125
833400,note_on,,,,,0,0,14,,,,12,,,69,105
833400,note_on,,,,,24,0,12,,,,10,,,96,116
833400,note_on,,,,,24,0,14,,,,12,,,78,105
833400,note_on,,,,,0,0,14,,,,12,,,76,105
833496,note_on,,,,,0,0,14,,,,12,,,69,0
833496,note_on,,,,,96,0,14,,,,12,,,76,0
833496,note_on,,,,,0,0,14,,,,12,,,78,0
833496,note_on,,,,,96,0,12,,,,10,,,96,0
833496,note_on,,,,,96,0,11,,,,7,,,52,0
833520,note_on,,,,,0,0,14,,,,12,,,78,105
833520,note_on,,,,,0,0,14,,,,12,,,76,105
833520,note_on,,,,,24,0,12,,,,10,,,96,116
833520,note_on,,,,,24,0,11,,,,7,,,52,105
833520,note_on,,,,,24,0,14,,,,12,,,69,105
833616,note_on,,,,,96,0,12,,,,10,,,96,0
833616,note_on,,,,,0,0,14,,,,12,,,69,0
833616,note_on,,,,,96,0,11,,,,7,,,52,0
833616,note_on,,,,,0,0,14,,,,12,,,78,0
833616,note_on,,,,,96,0,14,,,,12,,,76,0
833640,note_on,,,,,24,0,14,,,,12,,,76,105
833640,note_on,,,,,0,0,14,,,,12,,,69,105
833640,note_on,,,,,0,0,14,,,,12,,,78,105
833640,note_on,,,,,24,0,11,,,,7,,,52,105
833640,note_on,,,,,24,0,12,,,,10,,,96,116
833736,note_on,,,,,0,0,14,,,,12,,,69,0
833736,note_on,,,,,0,0,14,,,,12,,,76,0
833736,note_on,,,,,96,0,12,,,,10,,,96,0
833736,note_on,,,,,96,0,11,,,,7,,,52,0
833736,note_on,,,,,96,0,14,,,,12,,,78,0
833760,note_on,,,,,0,0,14,,,,12,,,78,105
833760,note_on,,,,,0,0,14,,,,12,,,76,105
833760,note_on,,,,,24,0,14,,,,12,,,69,105
833760,note_on,,,,,24,0,11,,,,7,,,52,105
833760,note_on,,,,,24,0,12,,,,10,,,96,116
833856,note_on,,,,,96,0,12,,,,10,,,96,0
833856,note_on,,,,,96,0,11,,,,7,,,52,0
833856,note_on,,,,,0,0,14,,,,12,,,69,0
833856,note_on,,,,,0,0,14,,,,12,,,76,0
833856,note_on,,,,,96,0,14,,,,12,,,78,0
833880,note_on,,,,,24,0,11,,,,7,,,52,105
833880,note_on,,,,,0,0,14,,,,12,,,78,105
833880,note_on,,,,,24,0,12,,,,10,,,96,116
833880,note_on,,,,,0,0,14,,,,12,,,76,105
833880,note_on,,,,,24,0,14,,,,12,,,69,105
833976,note_on,,,,,96,0,14,,,,12,,,78,0
833976,note_on,,,,,96,0,11,,,,7,,,52,0
833976,note_on,,,,,96,0,12,,,,10,,,96,0
833976,note_on,,,,,0,0,14,,,,12,,,69,0
833976,note_on,,,,,0,0,14,,,,12,,,76,0
834000,note_on,,,,,24,0,11,,,,7,,,52,105
834000,note_on,,,,,0,0,14,,,,12,,,69,105
834000,note_on,,,,,0,0,14,,,,12,,,78,105
834000,note_on,,,,,24,0,14,,,,12,,,76,105
834000,note_on,,,,,24,0,12,,,,10,,,96,116
834096,note_on,,,,,96,0,14,,,,12,,,69,0
834096,note_on,,,,,96,0,12,,,,10,,,96,0
834096,note_on,,,,,0,0,14,,,,12,,,78,0
834096,note_on,,,,,0,0,14,,,,12,,,76,0
834096,note_on,,,,,96,0,11,,,,7,,,52,0
834120,note_on,,,,,24,0,14,,,,12,,,69,105
834120,note_on,,,,,0,0,14,,,,12,,,76,105
834120,note_on,,,,,0,0,14,,,,12,,,78,105
834120,note_on,,,,,24,0,11,,,,7,,,52,105
834120,note_on,,,,,24,0,12,,,,10,,,96,116
834144,note_on,,,,,864,0,16,,,,14,,,45,0
834144,note_on,,,,,0,0,6,,,,3,,,45,0
834144,note_on,,,,,864,0,15,,,,13,,,57,0
834144,note_on,,,,,864,0,6,,,,3,,,57,0
834216,note_on,,,,,0,0,14,,,,12,,,69,0
834216,note_on,,,,,96,0,14,,,,12,,,78,0
834216,note_on,,,,,96,0,11,,,,7,,,52,0
834216,note_on,,,,,96,0,12,,,,10,,,96,0
834216,note_on,,,,,0,0,14,,,,12,,,76,0
834240,note_on,,,,,24,0,12,,,,10,,,96,116
834240,note_on,,,,,96,0,15,,,,13,,,54,116
834240,note_on,,,,,24,0,11,,,,7,,,52,105
834240,note_on,,,,,0,0,6,,,,3,,,42,105
834240,note_on,,,,,96,0,16,,,,14,,,42,116
834240,note_on,,,,,0,0,14,,,,12,,,78,105
834240,note_on,,,,,0,0,14,,,,12,,,76,105
834240,note_on,,,,,24,0,14,,,,12,,,69,105
834240,note_on,,,,,96,0,6,,,,3,,,54,105
834336,note_on,,,,,96,0,11,,,,7,,,52,0
834336,note_on,,,,,96,0,12,,,,10,,,96,0
834336,note_on,,,,,0,0,14,,,,12,,,69,0
834336,note_on,,,,,0,0,14,,,,12,,,76,0
834336,note_on,,,,,96,0,14,,,,12,,,78,0
834360,note_on,,,,,0,0,14,,,,12,,,69,105
834360,note_on,,,,,24,0,12,,,,10,,,96,116
834360,note_on,,,,,0,0,14,,,,12,,,76,105
834360,note_on,,,,,24,0,11,,,,7,,,52,105
834360,note_on,,,,,24,0,14,,,,12,,,78,105
834456,note_on,,,,,0,0,14,,,,12,,,76,0
834456,note_on,,,,,96,0,12,,,,10,,,96,0
834456,note_on,,,,,0,0,14,,,,12,,,78,0
834456,note_on,,,,,96,0,11,,,,7,,,52,0
834456,note_on,,,,,96,0,14,,,,12,,,69,0
834480,note_on,,,,,24,0,11,,,,7,,,52,105
834480,note_on,,,,,24,0,12,,,,10,,,96,116
834480,note_on,,,,,0,0,14,,,,12,,,78,105
834480,note_on,,,,,0,0,14,,,,12,,,69,105
834480,note_on,,,,,24,0,14,,,,12,,,76,105
834576,note_on,,,,,0,0,14,,,,12,,,76,0
834576,note_on,,,,,96,0,14,,,,12,,,69,0
834576,note_on,,,,,0,0,14,,,,12,,,78,0
834576,note_on,,,,,96,0,11,,,,7,,,52,0
834576,note_on,,,,,96,0,12,,,,10,,,96,0
834600,note_on,,,,,0,0,14,,,,12,,,69,105
834600,note_on,,,,,0,0,14,,,,12,,,78,105
834600,note_on,,,,,24,0,14,,,,12,,,76,105
834600,note_on,,,,,24,0,11,,,,7,,,52,105
834600,note_on,,,,,24,0,12,,,,10,,,96,116
834696,note_on,,,,,96,0,14,,,,12,,,69,0
834696,note_on,,,,,96,0,11,,,,7,,,52,0
834696,note_on,,,,,96,0,12,,,,10,,,96,0
834696,note_on,,,,,0,0,14,,,,12,,,78,0
834696,note_on,,,,,0,0,14,,,,12,,,76,0
834720,note_on,,,,,24,0,14,,,,12,,,76,105
834720,note_on,,,,,0,0,14,,,,12,,,69,105
834720,note_on,,,,,0,0,14,,,,12,,,78,105
834720,note_on,,,,,24,0,11,,,,7,,,52,105
834720,note_on,,,,,24,0,12,,,,10,,,96,116
834816,note_on,,,,,96,0,12,,,,10,,,96,0
834816,note_on,,,,,0,0,14,,,,12,,,76,0
834816,note_on,,,,,0,0,14,,,,12,,,69,0
834816,note_on,,,,,96,0,14,,,,12,,,78,0
834816,note_on,,,,,96,0,11,,,,7,,,52,0
834840,note_on,,,,,24,0,14,,,,12,,,76,105
834840,note_on,,,,,0,0,14,,,,12,,,69,105
834840,note_on,,,,,0,0,14,,,,12,,,78,105
834840,note_on,,,,,24,0,11,,,,7,,,52,105
834840,note_on,,,,,24,0,12,,,,10,,,96,116
834936,note_on,,,,,96,0,11,,,,7,,,52,0
834936,note_on,,,,,96,0,14,,,,12,,,78,0
834936,note_on,,,,,0,0,14,,,,12,,,69,0
834936,note_on,,,,,0,0,14,,,,12,,,76,0
834936,note_on,,,,,96,0,12,,,,10,,,96,0
834960,note_on,,,,,0,0,14,,,,12,,,78,105
834960,note_on,,,,,24,0,11,,,,7,,,52,105
834960,note_on,,,,,24,0,14,,,,12,,,76,105
834960,note_on,,,,,0,0,14,,,,12,,,69,105
834960,note_on,,,,,24,0,12,,,,10,,,96,116
835008,note_on,,,,,0,0,4,,,,2,,,76,0
835008,note_on,,,,,0,0,10,,,,6,,,78,0
835008,note_on,,,,,1728,0,9,,,,5,,,60,0
835008,note_on,,,,,1728,0,4,,,,2,,,69,0
835008,note_on,,,,,1728,0,1,,,,0,,,96,0
835008,note_on,,,,,0,0,1,,,,0,,,88,0
835008,note_on,,,,,0,0,3,,,,1,,,84,0
835008,note_on,,,,,1728,0,3,,,,1,,,76,0
835008,note_on,,,,,0,0,9,,,,5,,,64,0
835008,note_on,,,,,0,0,13,,,,11,,,69,0
835008,note_on,,,,,1728,0,13,,,,11,,,84,0
835008,note_on,,,,,1728,0,8,,,,4,,,64,0
835008,note_on,,,,,1728,0,10,,,,6,,,76,0
835008,note_on,,,,,0,0,8,,,,4,,,66,0
835056,note_on,,,,,0,0,14,,,,12,,,76,0
835056,note_on,,,,,0,0,14,,,,12,,,78,0
835056,note_on,,,,,96,0,14,,,,12,,,69,0
835056,note_on,,,,,96,0,12,,,,10,,,96,0
835056,note_on,,,,,96,0,11,,,,7,,,52,0
835080,note_on,,,,,24,0,12,,,,10,,,96,116
835080,note_on,,,,,24,0,14,,,,12,,,76,105
835080,note_on,,,,,0,0,14,,,,12,,,78,105
835080,note_on,,,,,24,0,11,,,,7,,,52,105
835080,note_on,,,,,0,0,14,,,,12,,,69,105
835104,note_on,,,,,864,0,16,,,,14,,,42,0
835104,note_on,,,,,864,0,15,,,,13,,,54,0
835104,note_on,,,,,0,0,6,,,,3,,,54,0
835104,note_on,,,,,864,0,6,,,,3,,,42,0
835176,note_on,,,,,96,0,11,,,,7,,,52,0
835176,note_on,,,,,0,0,14,,,,12,,,76,0
835176,note_on,,,,,96,0,12,,,,10,,,96,0
835176,note_on,,,,,96,0,14,,,,12,,,69,0
835176,note_on,,,,,0,0,14,,,,12,,,78,0
835200,note_on,,,,,24,0,12,,,,10,,,87,116
835200,note_on,,,,,192,0,4,,,,2,,,69,105
835200,note_on,,,,,0,0,3,,,,1,,,75,105
835200,note_on,,,,,192,0,1,,,,0,,,87,105
835200,note_on,,,,,96,0,16,,,,14,,,47,116
835200,note_on,,,,,0,0,4,,,,2,,,78,105
835200,note_on,,,,,0,0,13,,,,11,,,87,116
835200,note_on,,,,,192,0,13,,,,11,,,78,116
835200,note_on,,,,,96,0,15,,,,13,,,59,116
835200,set_tempo,,,,,1904,1,0,472440,,,,,,,
835200,note_on,,,,,192,0,8,,,,4,,,66,105
835200,note_on,,,,,0,0,8,,,,4,,,59,105
835200,note_on,,,,,192,0,3,,,,1,,,81,105
835200,note_on,,,,,24,0,11,,,,7,,,47,125
835200,note_on,,,,,192,0,9,,,,5,,,57,105
835200,note_on,,,,,0,0,10,,,,6,,,71,105
835200,note_on,,,,,24,0,14,,,,12,,,75,105
835200,note_on,,,,,0,0,14,,,,12,,,78,105
835200,note_on,,,,,0,0,14,,,,12,,,69,105
835200,note_on,,,,,0,0,1,,,,0,,,93,105
835200,note_on,,,,,0,0,14,,,,12,,,66,105
835200,note_on,,,,,192,0,10,,,,6,,,78,105
835200,note_on,,,,,0,0,6,,,,3,,,59,105
835200,note_on,,,,,96,0,6,,,,3,,,47,105
835200,note_on,,,,,0,0,9,,,,5,,,63,105
835296,note_on,,,,,96,0,14,,,,12,,,66,0
835296,note_on,,,,,0,0,14,,,,12,,,78,0
835296,note_on,,,,,0,0,14,,,,12,,,75,0
835296,note_on,,,,,96,0,12,,,,10,,,87,0
835296,note_on,,,,,96,0,11,,,,7,,,47,0
835296,note_on,,,,,0,0,14,,,,12,,,69,0
835320,note_on,,,,,24,0,12,,,,10,,,87,116
835320,note_on,,,,,24,0,11,,,,7,,,47,125
835320,note_on,,,,,24,0,14,,,,12,,,66,105
835320,note_on,,,,,0,0,14,,,,12,,,78,105
835320,note_on,,,,,0,0,14,,,,12,,,69,105
835320,note_on,,,,,0,0,14,,,,12,,,75,105
835416,note_on,,,,,0,0,14,,,,12,,,69,0
835416,note_on,,,,,96,0,11,,,,7,,,47,0
835416,note_on,,,,,0,0,14,,,,12,,,78,0
835416,note_on,,,,,0,0,14,,,,12,,,66,0
835416,note_on,,,,,96,0,14,,,,12,,,75,0
835416,note_on,,,,,96,0,12,,,,10,,,87,0
835440,note_on,,,,,0,0,14,,,,12,,,69,105
835440,note_on,,,,,24,0,12,,,,10,,,87,116
835440,note_on,,,,,24,0,14,,,,12,,,66,105
835440,note_on,,,,,0,0,14,,,,12,,,75,105
835440,note_on,,,,,24,0,11,,,,7,,,47,105
835440,note_on,,,,,0,0,14,,,,12,,,78,105
835536,note_on,,,,,0,0,14,,,,12,,,75,0
835536,note_on,,,,,0,0,14,,,,12,,,78,0
835536,note_on,,,,,96,0,11,,,,7,,,47,0
835536,note_on,,,,,96,0,14,,,,12,,,69,0
835536,note_on,,,,,0,0,14,,,,12,,,66,0
835536,note_on,,,,,96,0,12,,,,10,,,87,0
835560,note_on,,,,,0,0,14,,,,12,,,75,105
835560,note_on,,,,,24,0,11,,,,7,,,47,105
835560,note_on,,,,,0,0,14,,,,12,,,66,105
835560,note_on,,,,,24,0,12,,,,10,,,87,116
835560,note_on,,,,,24,0,14,,,,12,,,78,105
835560,note_on,,,,,0,0,14,,,,12,,,69,105
835656,note_on,,,,,0,0,14,,,,12,,,78,0
835656,note_on,,,,,0,0,14,,,,12,,,75,0
835656,note_on,,,,,96,0,11,,,,7,,,47,0
835656,note_on,,,,,96,0,14,,,,12,,,69,0
835656,note_on,,,,,96,0,12,,,,10,,,87,0
835656,note_on,,,,,0,0,14,,,,12,,,66,0
835680,note_on,,,,,24,0,12,,,,10,,,87,116
835680,note_on,,,,,24,0,14,,,,12,,,78,105
835680,note_on,,,,,0,0,14,,,,12,,,69,105
835680,note_on,,,,,0,0,14,,,,12,,,75,105
835680,note_on,,,,,0,0,14,,,,12,,,66,105
835680,note_on,,,,,24,0,11,,,,7,,,47,105
835776,note_on,,,,,96,0,11,,,,7,,,47,0
835776,note_on,,,,,0,0,14,,,,12,,,69,0
835776,note_on,,,,,0,0,14,,,,12,,,78,0
835776,note_on,,,,,96,0,14,,,,12,,,66,0
835776,note_on,,,,,0,0,14,,,,12,,,75,0
835776,note_on,,,,,96,0,12,,,,10,,,87,0
835800,note_on,,,,,24,0,12,,,,10,,,87,116
835800,note_on,,,,,24,0,14,,,,12,,,75,105
835800,note_on,,,,,24,0,11,,,,7,,,47,105
835800,note_on,,,,,0,0,14,,,,12,,,66,105
835800,note_on,,,,,0,0,14,,,,12,,,69,105
835800,note_on,,,,,0,0,14,,,,12,,,78,105
835896,note_on,,,,,96,0,12,,,,10,,,87,0
835896,note_on,,,,,0,0,14,,,,12,,,69,0
835896,note_on,,,,,96,0,14,,,,12,,,78,0
835896,note_on,,,,,0,0,14,,,,12,,,75,0
835896,note_on,,,,,96,0,11,,,,7,,,47,0
835896,note_on,,,,,0,0,14,,,,12,,,66,0
835920,note_on,,,,,24,0,14,,,,12,,,66,105
835920,note_on,,,,,0,0,14,,,,12,,,78,105
835920,note_on,,,,,24,0,11,,,,7,,,47,105
835920,note_on,,,,,0,0,14,,,,12,,,69,105
835920,note_on,,,,,0,0,14,,,,12,,,75,105
835920,note_on,,,,,24,0,12,,,,10,,,87,116
836016,note_on,,,,,0,0,14,,,,12,,,78,0
836016,note_on,,,,,96,0,11,,,,7,,,47,0
836016,note_on,,,,,96,0,12,,,,10,,,87,0
836016,note_on,,,,,96,0,14,,,,12,,,75,0
836016,note_on,,,,,0,0,14,,,,12,,,69,0
836016,note_on,,,,,0,0,14,,,,12,,,66,0
836040,note_on,,,,,24,0,12,,,,10,,,87,116
836040,note_on,,,,,0,0,14,,,,12,,,66,105
836040,note_on,,,,,24,0,14,,,,12,,,78,105
836040,note_on,,,,,0,0,14,,,,12,,,69,105
836040,note_on,,,,,0,0,14,,,,12,,,75,105
836040,note_on,,,,,24,0,11,,,,7,,,47,105
836064,note_on,,,,,0,0,6,,,,3,,,47,0
836064,note_on,,,,,864,0,6,,,,3,,,59,0
836064,note_on,,,,,864,0,15,,,,13,,,59,0
836064,note_on,,,,,864,0,16,,,,14,,,47,0
836136,note_on,,,,,0,0,14,,,,12,,,78,0
836136,note_on,,,,,96,0,11,,,,7,,,47,0
836136,note_on,,,,,96,0,12,,,,10,,,87,0
836136,note_on,,,,,0,0,14,,,,12,,,69,0
836136,note_on,,,,,0,0,14,,,,12,,,66,0
836136,note_on,,,,,96,0,14,,,,12,,,75,0
836160,note_on,,,,,0,0,14,,,,12,,,66,105
836160,note_on,,,,,0,0,14,,,,12,,,69,105
836160,note_on,,,,,96,0,6,,,,3,,,47,105
836160,note_on,,,,,96,0,16,,,,14,,,35,116
836160,note_on,,,,,0,0,14,,,,12,,,75,105
836160,note_on,,,,,24,0,11,,,,7,,,47,105
836160,note_on,,,,,24,0,14,,,,12,,,78,105
836160,note_on,,,,,96,0,15,,,,13,,,47,116
836160,note_on,,,,,0,0,6,,,,3,,,35,105
836160,note_on,,,,,24,0,12,,,,10,,,87,116
836256,note_on,,,,,0,0,14,,,,12,,,69,0
836256,note_on,,,,,0,0,14,,,,12,,,66,0
836256,note_on,,,,,0,0,14,,,,12,,,78,0
836256,note_on,,,,,96,0,11,,,,7,,,47,0
836256,note_on,,,,,96,0,14,,,,12,,,75,0
836256,note_on,,,,,96,0,12,,,,10,,,87,0
836280,note_on,,,,,24,0,11,,,,7,,,47,105
836280,note_on,,,,,0,0,14,,,,12,,,75,105
836280,note_on,,,,,24,0,12,,,,10,,,87,116
836280,note_on,,,,,24,0,14,,,,12,,,66,105
836280,note_on,,,,,0,0,14,,,,12,,,69,105
836280,note_on,,,,,0,0,14,,,,12,,,78,105
836376,note_on,,,,,0,0,14,,,,12,,,69,0
836376,note_on,,,,,0,0,14,,,,12,,,66,0
836376,note_on,,,,,96,0,11,,,,7,,,47,0
836376,note_on,,,,,0,0,14,,,,12,,,78,0
836376,note_on,,,,,96,0,12,,,,10,,,87,0
836376,note_on,,,,,96,0,14,,,,12,,,75,0
836400,note_on,,,,,24,0,11,,,,7,,,47,105
836400,note_on,,,,,0,0,14,,,,12,,,66,105
836400,note_on,,,,,24,0,14,,,,12,,,69,105
836400,note_on,,,,,24,0,12,,,,10,,,87,116
836400,note_on,,,,,0,0,14,,,,12,,,75,105
836400,note_on,,,,,0,0,14,,,,12,,,78,105
836496,note_on,,,,,96,0,14,,,,12,,,75,0
836496,note_on,,,,,0,0,14,,,,12,,,78,0
836496,note_on,,,,,96,0,12,,,,10,,,87,0
836496,note_on,,,,,0,0,14,,,,12,,,66,0
836496,note_on,,,,,0,0,14,,,,12,,,69,0
836496,note_on,,,,,96,0,11,,,,7,,,47,0
836520,note_on,,,,,24,0,11,,,,7,,,47,105
836520,note_on,,,,,24,0,12,,,,10,,,87,116
836520,note_on,,,,,24,0,14,,,,12,,,75,105
836520,note_on,,,,,0,0,14,,,,12,,,69,105
836520,note_on,,,,,0,0,14,,,,12,,,66,105
836520,note_on,,,,,0,0,14,,,,12,,,78,105
836616,note_on,,,,,96,0,12,,,,10,,,87,0
836616,note_on,,,,,96,0,14,,,,12,,,78,0
836616,note_on,,,,,0,0,14,,,,12,,,75,0
836616,note_on,,,,,96,0,11,,,,7,,,47,0
836616,note_on,,,,,0,0,14,,,,12,,,66,0
836616,note_on,,,,,0,0,14,,,,12,,,69,0
836640,note_on,,,,,24,0,14,,,,12,,,66,105
836640,note_on,,,,,0,0,14,,,,12,,,78,105
836640,note_on,,,,,24,0,12,,,,10,,,87,116
836640,note_on,,,,,0,0,14,,,,12,,,69,105
836640,note_on,,,,,0,0,14,,,,12,,,75,105
836640,note_on,,,,,24,0,11,,,,7,,,47,105
836736,note_on,,,,,0,0,14,,,,12,,,75,0
836736,note_on,,,,,0,0,14,,,,12,,,69,0
836736,note_on,,,,,96,0,14,,,,12,,,78,0
836736,note_on,,,,,0,0,14,,,,12,,,66,0
836736,note_on,,,,,96,0,12,,,,10,,,87,0
836736,note_on,,,,,96,0,11,,,,7,,,47,0
836760,note_on,,,,,24,0,14,,,,12,,,75,105
836760,note_on,,,,,24,0,12,,,,10,,,87,116
836760,note_on,,,,,0,0,14,,,,12,,,78,105
836760,note_on,,,,,0,0,14,,,,12,,,69,105
836760,note_on,,,,,0,0,14,,,,12,,,66,105
836760,note_on,,,,,24,0,11,,,,7,,,47,105
836856,note_on,,,,,0,0,14,,,,12,,,75,0
836856,note_on,,,,,0,0,14,,,,12,,,69,0
836856,note_on,,,,,96,0,14,,,,12,,,78,0
836856,note_on,,,,,0,0,14,,,,12,,,66,0
836856,note_on,,,,,96,0,12,,,,10,,,87,0
836856,note_on,,,,,96,0,11,,,,7,,,47,0
836880,note_on,,,,,24,0,11,,,,7,,,47,105
836880,note_on,,,,,24,0,14,,,,12,,,75,105
836880,note_on,,,,,0,0,14,,,,12,,,78,105
836880,note_on,,,,,0,0,14,,,,12,,,66,105
836880,note_on,,,,,0,0,14,,,,12,,,69,105
836880,note_on,,,,,24,0,12,,,,10,,,87,116
836928,note_on,,,,,1728,0,1,,,,0,,,93,0
836928,note_on,,,,,0,0,3,,,,1,,,81,0
836928,note_on,,,,,0,0,4,,,,2,,,69,0
836928,note_on,,,,,1728,0,3,,,,1,,,75,0
836928,note_on,,,,,0,0,13,,,,11,,,78,0
836928,note_on,,,,,1728,0,13,,,,11,,,87,0
836928,note_on,,,,,0,0,9,,,,5,,,57,0
836928,note_on,,,,,1728,0,9,,,,5,,,63,0
836928,note_on,,,,,1728,0,8,,,,4,,,59,0
836928,note_on,,,,,0,0,8,,,,4,,,66,0
836928,note_on,,,,,1728,0,10,,,,6,,,71,0
836928,note_on,,,,,0,0,10,,,,6,,,78,0
836928,note_on,,,,,1728,0,4,,,,2,,,78,0
836928,note_on,,,,,0,0,1,,,,0,,,87,0
836976,note_on,,,,,96,0,11,,,,7,,,47,0
836976,note_on,,,,,0,0,14,,,,12,,,66,0
836976,note_on,,,,,0,0,14,,,,12,,,78,0
836976,note_on,,,,,0,0,14,,,,12,,,75,0
836976,note_on,,,,,96,0,12,,,,10,,,87,0
836976,note_on,,,,,96,0,14,,,,12,,,69,0
837000,note_on,,,,,24,0,14,,,,12,,,78,105
837000,note_on,,,,,0,0,14,,,,12,,,66,105
837000,note_on,,,,,24,0,12,,,,10,,,87,116
837000,note_on,,,,,0,0,14,,,,12,,,75,105
837000,note_on,,,,,24,0,11,,,,7,,,47,105
837000,note_on,,,,,0,0,14,,,,12,,,69,105
837024,note_on,,,,,0,0,6,,,,3,,,47,0
837024,note_on,,,,,864,0,15,,,,13,,,47,0
837024,note_on,,,,,864,0,6,,,,3,,,35,0
837024,note_on,,,,,864,0,16,,,,14,,,35,0
837096,note_on,,,,,96,0,14,,,,12,,,69,0
837096,note_on,,,,,96,0,12,,,,10,,,87,0
837096,note_on,,,,,0,0,14,,,,12,,,78,0
837096,note_on,,,,,0,0,14,,,,12,,,66,0
837096,note_on,,,,,96,0,11,,,,7,,,47,0
837096,note_on,,,,,0,0,14,,,,12,,,75,0
837120,note_on,,,,,192,0,8,,,,4,,,52,105
837120,note_on,,,,,0,0,8,,,,4,,,64,105
837120,note_on,,,,,96,0,15,,,,13,,,52,116
837120,note_on,,,,,192,0,10,,,,6,,,64,105
837120,note_on,,,,,0,0,10,,,,6,,,76,105
837120,note_on,,,,,96,0,16,,,,14,,,40,116
837120,note_on,,,,,24,0,12,,,,10,,,88,116
837120,note_on,,,,,0,0,9,,,,5,,,64,105
837120,note_on,,,,,0,0,1,,,,0,,,88,92
837120,note_on,,,,,0,0,6,,,,3,,,52,92
837120,note_on,,,,,96,0,6,,,,3,,,40,92
837120,note_on,,,,,24,0,11,,,,7,,,52,116
837120,note_on,,,,,0,0,14,,,,12,,,71,105
837120,note_on,,,,,192,0,9,,,,5,,,55,105
837120,note_on,,,,,192,0,4,,,,2,,,67,92
837120,set_tempo,,,,,1920,1,0,434782,,,,,,,
837120,note_on,,,,,0,0,3,,,,1,,,76,92
837120,note_on,,,,,192,0,3,,,,1,,,79,92
837120,note_on,,,,,0,0,13,,,,11,,,88,105
837120,note_on,,,,,192,0,13,,,,11,,,79,105
837120,note_on,,,,,24,0,14,,,,12,,,67,105
837120,note_on,,,,,0,0,4,,,,2,,,76,92
837120,note_on,,,,,192,0,1,,,,0,,,91,92
837408,note_on,,,,,0,0,3,,,,1,,,79,0
837408,note_on,,,,,288,0,3,,,,1,,,76,0
837408,note_on,,,,,288,0,14,,,,12,,,71,0
837408,note_on,,,,,0,0,14,,,,12,,,67,0
837408,note_on,,,,,0,0,1,,,,0,,,91,0
837408,note_on,,,,,288,0,1,,,,0,,,88,0
837408,note_on,,,,,288,0,10,,,,6,,,76,0
837408,note_on,,,,,288,0,6,,,,3,,,52,0
837408,note_on,,,,,0,0,13,,,,11,,,79,0
837408,note_on,,,,,288,0,13,,,,11,,,88,0
837408,note_on,,,,,0,0,6,,,,3,,,40,0
837408,note_on,,,,,288,0,15,,,,13,,,52,0
837408,note_on,,,,,288,0,12,,,,10,,,88,0
837408,note_on,,,,,0,0,9,,,,5,,,55,0
837408,note_on,,,,,288,0,9,,,,5,,,64,0
837408,note_on,,,,,0,0,10,,,,6,,,64,0
837408,note_on,,,,,0,0,4,,,,2,,,67,0
837408,note_on,,,,,288,0,4,,,,2,,,76,0
837408,note_on,,,,,288,0,16,,,,14,,,40,0
837504,note_on,,,,,384,0,11,,,,7,,,52,0
837504,note_on,,,,,0,0,8,,,,4,,,52,0
837504,note_on,,,,,384,0,8,,,,4,,,64,0
838080,note_on,,,,,0,0,13,,,,11,,,59,105
838080,note_on,,,,,0,0,13,,,,11,,,66,105
838080,note_on,,,,,672,0,12,,,,10,,,95,116
838080,note_on,,,,,672,0,13,,,,11,,,83,105
838080,note_on,,,,,672,0,4,,,,2,,,69,92
838080,note_on,,,,,0,0,13,,,,11,,,75,105
838080,note_on,,,,,672,0,15,,,,13,,,47,116
838080,note_on,,,,,0,0,6,,,,3,,,35,92
838080,note_on,,,,,672,0,6,,,,3,,,47,92
838080,note_on,,,,,672,0,3,,,,1,,,74,92
838080,note_on,,,,,0,0,1,,,,0,,,86,92
838080,note_on,,,,,672,0,1,,,,0,,,90,92
838080,note_on,,,,,576,0,8,,,,4,,,66,105
838080,note_on,,,,,0,0,8,,,,4,,,59,105
838080,note_on,,,,,0,0,10,,,,6,,,71,105
838080,note_on,,,,,672,0,10,,,,6,,,59,105
838080,note_on,,,,,672,0,9,,,,5,,,63,105
838080,note_on,,,,,0,0,9,,,,5,,,57,105
838080,note_on,,,,,672,0,14,,,,12,,,66,105
838080,note_on,,,,,0,0,14,,,,12,,,59,105
838080,note_on,,,,,576,0,11,,,,7,,,47,116
838080,note_on,,,,,672,0,16,,,,14,,,35,116
838080,note_on,,,,,0,0,3,,,,1,,,83,92
838080,note_on,,,,,0,0,4,,,,2,,,78,92
838368,note_on,,,,,288,0,3,,,,1,,,83,0
838368,note_on,,,,,0,0,3,,,,1,,,74,0
838368,note_on,,,,,288,0,9,,,,5,,,57,0
838368,note_on,,,,,0,0,9,,,,5,,,63,0
838368,note_on,,,,,288,0,14,,,,12,,,59,0
838368,note_on,,,,,0,0,14,,,,12,,,66,0
838368,note_on,,,,,288,0,1,,,,0,,,86,0
838368,note_on,,,,,0,0,1,,,,0,,,90,0
838368,note_on,,,,,288,0,12,,,,10,,,95,0
838368,note_on,,,,,288,0,15,,,,13,,,47,0
838368,note_on,,,,,0,0,6,,,,3,,,47,0
838368,note_on,,,,,288,0,13,,,,11,,,59,0
838368,note_on,,,,,0,0,13,,,,11,,,66,0
838368,note_on,,,,,0,0,13,,,,11,,,75,0
838368,note_on,,,,,0,0,13,,,,11,,,83,0
838368,note_on,,,,,288,0,6,,,,3,,,35,0
838368,note_on,,,,,0,0,10,,,,6,,,59,0
838368,note_on,,,,,288,0,10,,,,6,,,71,0
838368,note_on,,,,,288,0,16,,,,14,,,35,0
838368,note_on,,,,,288,0,4,,,,2,,,78,0
838368,note_on,,,,,0,0,4,,,,2,,,69,0
838464,note_on,,,,,0,0,8,,,,4,,,66,0
838464,note_on,,,,,384,0,8,,,,4,,,59,0
838464,note_on,,,,,384,0,11,,,,7,,,47,0
839040,note_on,,,,,0,0,9,,,,5,,,64,105
839040,note_on,,,,,672,0,9,,,,5,,,55,105
839040,note_on,,,,,0,0,6,,,,3,,,52,92
839040,note_on,,,,,672,0,15,,,,13,,,52,116
839040,note_on,,,,,672,0,6,,,,3,,,40,92
839040,note_on,,,,,672,0,10,,,,6,,,64,105
839040,note_on,,,,,0,0,3,,,,1,,,76,92
839040,note_on,,,,,0,0,1,,,,0,,,88,92
839040,note_on,,,,,672,0,16,,,,14,,,40,116
839040,note_on,,,,,672,0,4,,,,2,,,67,92
839040,note_on,,,,,672,0,1,,,,0,,,91,92
839040,note_on,,,,,672,0,13,,,,11,,,64,105
839040,note_on,,,,,0,0,13,,,,11,,,76,105
839040,note_on,,,,,0,0,13,,,,11,,,71,105
839040,note_on,,,,,0,0,14,,,,12,,,67,105
839040,note_on,,,,,672,0,14,,,,12,,,59,105
839040,note_on,,,,,576,0,8,,,,4,,,52,105
839040,note_on,,,,,0,0,8,,,,4,,,64,105
839040,note_on,,,,,0,0,4,,,,2,,,76,92
839040,note_on,,,,,672,0,3,,,,1,,,79,92
839040,note_on,,,,,576,0,11,,,,7,,,52,116
839040,note_on,,,,,672,0,12,,,,10,,,88,116
839328,note_on,,,,,0,0,6,,,,3,,,40,0
839328,note_on,,,,,288,0,6,,,,3,,,52,0
839328,note_on,,,,,0,0,13,,,,11,,,64,0
839328,note_on,,,,,0,0,3,,,,1,,,79,0
839328,note_on,,,,,288,0,13,,,,11,,,71,0
839328,note_on,,,,,288,0,3,,,,1,,,76,0
839328,note_on,,,,,0,0,13,,,,11,,,76,0
839328,note_on,,,,,288,0,16,,,,14,,,40,0
839328,note_on,,,,,288,0,9,,,,5,,,64,0
839328,note_on,,,,,0,0,14,,,,12,,,59,0
839328,note_on,,,,,288,0,12,,,,10,,,88,0
839328,note_on,,,,,0,0,4,,,,2,,,67,0
839328,note_on,,,,,288,0,4,,,,2,,,76,0
839328,note_on,,,,,288,0,14,,,,12,,,67,0
839328,note_on,,,,,288,0,1,,,,0,,,88,0
839328,note_on,,,,,288,0,10,,,,6,,,64,0
839328,note_on,,,,,0,0,1,,,,0,,,91,0
839328,note_on,,,,,288,0,15,,,,13,,,52,0
839328,note_on,,,,,0,0,9,,,,5,,,55,0
839424,note_on,,,,,384,0,8,,,,4,,,64,0
839424,note_on,,,,,0,0,8,,,,4,,,52,0
839424,note_on,,,,,384,0,11,,,,7,,,52,0
840000,note_on,,,,,672,0,1,,,,0,,,90,92
840000,note_on,,,,,576,0,11,,,,7,,,47,116
840000,note_on,,,,,672,0,16,,,,14,,,35,116
840000,note_on,,,,,672,0,12,,,,10,,,95,116
840000,note_on,,,,,672,0,6,,,,3,,,47,92
840000,note_on,,,,,672,0,9,,,,5,,,63,105
840000,note_on,,,,,0,0,6,,,,3,,,35,92
840000,note_on,,,,,0,0,14,,,,12,,,59,105
840000,note_on,,,,,0,0,1,,,,0,,,86,92
840000,note_on,,,,,576,0,8,,,,4,,,66,105
840000,note_on,,,,,0,0,8,,,,4,,,59,105
840000,note_on,,,,,0,0,9,,,,5,,,57,105
840000,note_on,,,,,672,0,14,,,,12,,,66,105
840000,note_on,,,,,0,0,13,,,,11,,,59,105
840000,note_on,,,,,0,0,4,,,,2,,,78,92
840000,note_on,,,,,672,0,4,,,,2,,,69,92
840000,note_on,,,,,0,0,3,,,,1,,,83,92
840000,note_on,,,,,672,0,3,,,,1,,,74,92
840000,note_on,,,,,0,0,10,,,,6,,,71,105
840000,note_on,,,,,672,0,10,,,,6,,,59,105
840000,note_on,,,,,0,0,13,,,,11,,,75,105
840000,note_on,,,,,0,0,13,,,,11,,,83,105
840000,note_on,,,,,672,0,13,,,,11,,,66,105
840000,note_on,,,,,672,0,15,,,,13,,,47,116
840288,note_on,,,,,0,0,1,,,,0,,,90,0
840288,note_on,,,,,288,0,6,,,,3,,,35,0
840288,note_on,,,,,0,0,3,,,,1,,,74,0
840288,note_on,,,,,288,0,16,,,,14,,,35,0
840288,note_on,,,,,0,0,4,,,,2,,,69,0
840288,note_on,,,,,288,0,15,,,,13,,,47,0
840288,note_on,,,,,288,0,9,,,,5,,,57,0
840288,note_on,,,,,288,0,4,,,,2,,,78,0
840288,note_on,,,,,0,0,9,,,,5,,,63,0
840288,note_on,,,,,288,0,12,,,,10,,,95,0
840288,note_on,,,,,288,0,1,,,,0,,,86,0
840288,note_on,,,,,288,0,3,,,,1,,,83,0
840288,note_on,,,,,0,0,13,,,,11,,,59,0
840288,note_on,,,,,288,0,14,,,,12,,,59,0
840288,note_on,,,,,0,0,14,,,,12,,,66,0
840288,note_on,,,,,288,0,13,,,,11,,,83,0
840288,note_on,,,,,0,0,10,,,,6,,,59,0
840288,note_on,,,,,0,0,6,,,,3,,,47,0
840288,note_on,,,,,0,0,13,,,,11,,,66,0
840288,note_on,,,,,0,0,13,,,,11,,,75,0
840288,note_on,,,,,288,0,10,,,,6,,,71,0
840384,note_on,,,,,384,0,8,,,,4,,,59,0
840384,note_on,,,,,384,0,11,,,,7,,,47,0
840384,note_on,,,,,0,0,8,,,,4,,,66,0
840960,note_on,,,,,576,0,11,,,,7,,,52,120
840960,note_on,,,,,0,0,14,,,,12,,,67,105
840960,note_on,,,,,672,0,14,,,,12,,,59,105
840960,note_on,,,,,672,0,10,,,,6,,,64,105
840960,note_on,,,,,672,0,3,,,,1,,,76,92
840960,note_on,,,,,672,0,15,,,,13,,,52,116
840960,note_on,,,,,0,0,12,,,,10,,,64,116
840960,note_on,,,,,0,0,12,,,,10,,,71,116
840960,note_on,,,,,672,0,12,,,,10,,,76,116
840960,note_on,,,,,0,0,6,,,,3,,,52,92
840960,note_on,,,,,672,0,6,,,,3,,,40,92
840960,note_on,,,,,672,0,1,,,,0,,,91,92
840960,note_on,,,,,0,0,1,,,,0,,,88,92
840960,note_on,,,,,0,0,13,,,,11,,,71,105
840960,note_on,,,,,0,0,4,,,,2,,,76,92
840960,note_on,,,,,0,0,13,,,,11,,,76,105
840960,note_on,,,,,576,0,8,,,,4,,,52,105
840960,note_on,,,,,0,0,9,,,,5,,,64,105
840960,note_on,,,,,672,0,9,,,,5,,,55,105
840960,note_on,,,,,0,0,8,,,,4,,,64,105
840960,note_on,,,,,672,0,16,,,,14,,,40,116
840960,note_on,,,,,672,0,4,,,,2,,,67,92
840960,note_on,,,,,672,0,13,,,,11,,,64,105
840976,set_tempo,,,,,3856,1,0,447761,,,,,,,
841008,note_on,,,,,48,0,11,,,,7,,,52,0
841020,note_on,,,,,12,0,11,,,,7,,,52,120
841068,note_on,,,,,48,0,11,,,,7,,,52,0
841080,note_on,,,,,12,0,11,,,,7,,,52,118
841128,note_on,,,,,48,0,11,,,,7,,,52,0
841140,note_on,,,,,12,0,11,,,,7,,,52,118
841176,set_tempo,,,,,200,1,0,454545,,,,,,,
841188,note_on,,,,,48,0,11,,,,7,,,52,0
841200,note_on,,,,,12,0,11,,,,7,,,52,118
841248,note_on,,,,,288,0,12,,,,10,,,64,0
841248,note_on,,,,,0,0,14,,,,12,,,59,0
841248,note_on,,,,,288,0,14,,,,12,,,67,0
841248,note_on,,,,,288,0,10,,,,6,,,64,0
841248,note_on,,,,,0,0,13,,,,11,,,64,0
841248,note_on,,,,,0,0,13,,,,11,,,71,0
841248,note_on,,,,,288,0,13,,,,11,,,76,0
841248,note_on,,,,,0,0,12,,,,10,,,71,0
841248,note_on,,,,,288,0,3,,,,1,,,76,0
841248,note_on,,,,,0,0,12,,,,10,,,76,0
841248,note_on,,,,,0,0,9,,,,5,,,55,0
841248,note_on,,,,,288,0,6,,,,3,,,52,0
841248,note_on,,,,,288,0,15,,,,13,,,52,0
841248,note_on,,,,,0,0,4,,,,2,,,67,0
841248,note_on,,,,,288,0,4,,,,2,,,76,0
841248,note_on,,,,,48,0,11,,,,7,,,52,0
841248,note_on,,,,,0,0,6,,,,3,,,40,0
841248,note_on,,,,,288,0,1,,,,0,,,88,0
841248,note_on,,,,,288,0,16,,,,14,,,40,0
841248,note_on,,,,,288,0,9,,,,5,,,64,0
841248,note_on,,,,,0,0,1,,,,0,,,91,0
841260,note_on,,,,,12,0,11,,,,7,,,52,116
841308,note_on,,,,,48,0,11,,,,7,,,52,0
841320,note_on,,,,,12,0,11,,,,7,,,52,116
841344,note_on,,,,,384,0,8,,,,4,,,64,0
841344,note_on,,,,,0,0,8,,,,4,,,52,0
841368,note_on,,,,,48,0,11,,,,7,,,52,0
841376,set_tempo,,,,,200,1,0,461538,,,,,,,
841380,note_on,,,,,12,0,11,,,,7,,,52,116
841428,note_on,,,,,48,0,11,,,,7,,,52,0
841440,note_on,,,,,12,0,11,,,,7,,,52,116
841488,note_on,,,,,48,0,11,,,,7,,,52,0
841500,note_on,,,,,12,0,11,,,,7,,,52,116
841548,note_on,,,,,48,0,11,,,,7,,,52,0
841560,note_on,,,,,12,0,11,,,,7,,,52,116
841576,set_tempo,,,,,200,1,0,465116,,,,,,,
841608,note_on,,,,,48,0,11,,,,7,,,52,0
841620,note_on,,,,,12,0,11,,,,7,,,52,116
841668,note_on,,,,,48,0,11,,,,7,,,52,0
841680,note_on,,,,,12,0,11,,,,7,,,52,116
841728,note_on,,,,,48,0,11,,,,7,,,52,0
841740,note_on,,,,,12,0,11,,,,7,,,52,116
841776,set_tempo,,,,,200,1,0,472440,,,,,,,
841788,note_on,,,,,48,0,11,,,,7,,,52,0
841800,note_on,,,,,12,0,11,,,,7,,,52,116
841848,note_on,,,,,48,0,11,,,,7,,,52,0
841860,note_on,,,,,12,0,11,,,,7,,,52,116
841908,note_on,,,,,48,0,11,,,,7,,,52,0
841920,note_on,,,,,12,0,11,,,,7,,,52,116
841968,note_on,,,,,48,0,11,,,,7,,,52,0
841976,set_tempo,,,,,200,1,0,476190,,,,,,,
841980,note_on,,,,,12,0,11,,,,7,,,52,116
842028,note_on,,,,,48,0,11,,,,7,,,52,0
842040,note_on,,,,,12,0,11,,,,7,,,52,116
842088,note_on,,,,,48,0,11,,,,7,,,52,0
842100,note_on,,,,,12,0,11,,,,7,,,52,116
842148,note_on,,,,,48,0,11,,,,7,,,52,0
842160,note_on,,,,,12,0,11,,,,7,,,52,116
842176,set_tempo,,,,,200,1,0,483870,,,,,,,
842208,note_on,,,,,48,0,11,,,,7,,,52,0
842220,note_on,,,,,12,0,11,,,,7,,,52,116
842268,note_on,,,,,48,0,11,,,,7,,,52,0
842280,note_on,,,,,12,0,11,,,,7,,,52,116
842328,note_on,,,,,48,0,11,,,,7,,,52,0
842340,note_on,,,,,12,0,11,,,,7,,,52,116
842376,set_tempo,,,,,200,1,0,491803,,,,,,,
842388,note_on,,,,,48,0,11,,,,7,,,52,0
842400,note_on,,,,,12,0,11,,,,7,,,52,116
842448,note_on,,,,,48,0,11,,,,7,,,52,0
842460,note_on,,,,,12,0,11,,,,7,,,52,116
842508,note_on,,,,,48,0,11,,,,7,,,52,0
842520,note_on,,,,,12,0,11,,,,7,,,52,116
842568,note_on,,,,,48,0,11,,,,7,,,52,0
842576,set_tempo,,,,,200,1,0,495867,,,,,,,
842580,note_on,,,,,12,0,11,,,,7,,,52,116
842628,note_on,,,,,48,0,11,,,,7,,,52,0
842640,note_on,,,,,12,0,11,,,,7,,,52,116
842688,note_on,,,,,48,0,11,,,,7,,,52,0
842700,note_on,,,,,12,0,11,,,,7,,,52,116
842748,note_on,,,,,48,0,11,,,,7,,,52,0
842760,note_on,,,,,12,0,11,,,,7,,,52,116
842776,set_tempo,,,,,200,1,0,504201,,,,,,,
842808,note_on,,,,,48,0,11,,,,7,,,52,0
842820,note_on,,,,,12,0,11,,,,7,,,52,116
842868,note_on,,,,,48,0,11,,,,7,,,52,0
842880,note_on,,,,,1632,0,16,,,,14,,,28,116
842880,note_on,,,,,0,0,9,,,,5,,,60,105
842880,note_on,,,,,1632,0,9,,,,5,,,57,105
842880,note_on,,,,,1632,0,12,,,,10,,,88,116
842880,note_on,,,,,0,0,8,,,,4,,,64,105
842880,note_on,,,,,12,0,11,,,,7,,,52,127
842880,note_on,,,,,1536,0,8,,,,4,,,52,105
842880,note_on,,,,,1632,0,4,,,,2,,,69,92
842880,note_on,,,,,0,0,3,,,,1,,,81,92
842880,note_on,,,,,0,0,10,,,,6,,,76,105
842880,note_on,,,,,1632,0,10,,,,6,,,64,105
842880,note_on,,,,,1632,0,14,,,,12,,,64,105
842880,note_on,,,,,0,0,14,,,,12,,,60,105
842880,note_on,,,,,0,0,4,,,,2,,,72,92
842880,note_on,,,,,0,0,12,,,,10,,,76,116
842880,note_on,,,,,1632,0,13,,,,11,,,69,105
842880,note_on,,,,,0,0,13,,,,11,,,60,105
842880,note_on,,,,,0,0,14,,,,12,,,69,105
842880,note_on,,,,,0,0,13,,,,11,,,64,105
842880,note_on,,,,,1632,0,1,,,,0,,,88,92
842880,note_on,,,,,1632,0,15,,,,13,,,40,116
842880,set_tempo,,,,,104,1,0,504201,,,,,,,
842880,note_on,,,,,0,0,6,,,,3,,,60,92
842880,note_on,,,,,1632,0,6,,,,3,,,57,92
842880,note_on,,,,,1632,0,3,,,,1,,,72,92
842880,note_on,,,,,0,0,13,,,,11,,,76,105
843168,note_on,,,,,288,0,13,,,,11,,,64,0
843168,note_on,,,,,0,0,13,,,,11,,,76,0
843168,note_on,,,,,0,0,13,,,,11,,,60,0
843168,note_on,,,,,0,0,13,,,,11,,,69,0
843168,note_on,,,,,288,0,16,,,,14,,,28,0
843168,note_on,,,,,288,0,12,,,,10,,,76,0
843168,note_on,,,,,0,0,10,,,,6,,,64,0
843168,note_on,,,,,288,0,14,,,,12,,,69,0
843168,note_on,,,,,288,0,10,,,,6,,,76,0
843168,note_on,,,,,288,0,15,,,,13,,,40,0
843168,note_on,,,,,0,0,14,,,,12,,,60,0
843168,note_on,,,,,0,0,12,,,,10,,,88,0
843168,note_on,,,,,0,0,14,,,,12,,,64,0
843264,note_on,,,,,384,0,11,,,,7,,,52,0
843360,note_on,,,,,96,0,11,,,,7,,,52,127
843360,set_tempo,,,,,480,1,0,540540,,,,,,,
843744,note_on,,,,,384,0,11,,,,7,,,52,0
843840,note_on,,,,,96,0,11,,,,7,,,52,127
843840,set_tempo,,,,,480,1,0,571428,,,,,,,
844224,note_on,,,,,384,0,11,,,,7,,,52,0
844320,note_on,,,,,96,0,11,,,,7,,,52,127
844336,set_tempo,,,,,496,1,0,909090,,,,,,,
844704,note_on,,,,,0,0,6,,,,3,,,57,0
844704,note_on,,,,,0,0,3,,,,1,,,72,0
844704,note_on,,,,,384,0,11,,,,7,,,52,0
844704,note_on,,,,,1824,0,6,,,,3,,,60,0
844704,note_on,,,,,1824,0,3,,,,1,,,81,0
844704,note_on,,,,,0,0,8,,,,4,,,52,0
844704,note_on,,,,,1824,0,4,,,,2,,,72,0
844704,note_on,,,,,1824,0,1,,,,0,,,88,0
844704,note_on,,,,,1824,0,9,,,,5,,,60,0
844704,note_on,,,,,0,0,9,,,,5,,,57,0
844704,note_on,,,,,1824,0,8,,,,4,,,64,0
844704,note_on,,,,,0,0,4,,,,2,,,69,0
844800,note_on,,,,,1632,0,15,,,,13,,,40,116
844800,end_of_track,,,,,0,1,0,,,,,,,,
844800,note_on,,,,,1632,0,16,,,,14,,,28,116
844800,note_on,,,,,0,0,4,,,,2,,,71,92
844800,note_on,,,,,96,0,4,,,,2,,,67,92
844800,note_on,,,,,96,0,1,,,,0,,,88,92
844800,note_on,,,,,1632,0,14,,,,12,,,59,105
844800,note_on,,,,,0,0,14,,,,12,,,52,105
844800,note_on,,,,,1632,0,12,,,,10,,,55,116
844800,note_on,,,,,0,0,12,,,,10,,,64,116
844800,note_on,,,,,96,0,6,,,,3,,,59,92
844800,note_on,,,,,0,0,6,,,,3,,,55,92
844800,set_tempo,,,,,464,1,0,588235,,,,,,,
844800,note_on,,,,,96,0,3,,,,1,,,79,92
844800,note_on,,,,,0,0,9,,,,5,,,64,105
844800,note_on,,,,,0,0,13,,,,11,,,64,105
844800,note_on,,,,,96,0,8,,,,4,,,52,105
844800,note_on,,,,,96,0,11,,,,7,,,52,120
844800,note_on,,,,,1632,0,13,,,,11,,,55,105
844800,note_on,,,,,96,0,9,,,,5,,,55,105
844800,note_on,,,,,1632,0,10,,,,6,,,64,105
844800,note_on,,,,,0,0,3,,,,1,,,71,92
844848,note_on,,,,,48,0,11,,,,7,,,52,0
844860,note_on,,,,,12,0,11,,,,7,,,52,120
844908,note_on,,,,,48,0,11,,,,7,,,52,0
844920,note_on,,,,,12,0,11,,,,7,,,52,118
844968,note_on,,,,,48,0,11,,,,7,,,52,0
844980,note_on,,,,,12,0,11,,,,7,,,52,118
845028,note_on,,,,,48,0,11,,,,7,,,52,0
845040,note_on,,,,,12,0,11,,,,7,,,52,118
845088,note_on,,,,,48,0,11,,,,7,,,52,0
845100,note_on,,,,,12,0,11,,,,7,,,52,116
845148,note_on,,,,,48,0,11,,,,7,,,52,0
845160,note_on,,,,,12,0,11,,,,7,,,52,116
845208,note_on,,,,,48,0,11,,,,7,,,52,0
845220,note_on,,,,,12,0,11,,,,7,,,52,116
845268,note_on,,,,,48,0,11,,,,7,,,52,0
845280,note_on,,,,,12,0,11,,,,7,,,52,116
845328,note_on,,,,,48,0,11,,,,7,,,52,0
845340,note_on,,,,,12,0,11,,,,7,,,52,116
845388,note_on,,,,,48,0,11,,,,7,,,52,0
845400,note_on,,,,,12,0,11,,,,7,,,52,116
845448,note_on,,,,,48,0,11,,,,7,,,52,0
845460,note_on,,,,,12,0,11,,,,7,,,52,116
845508,note_on,,,,,48,0,11,,,,7,,,52,0
845520,note_on,,,,,12,0,11,,,,7,,,52,116
845568,note_on,,,,,48,0,11,,,,7,,,52,0
845580,note_on,,,,,12,0,11,,,,7,,,52,116
845628,note_on,,,,,48,0,11,,,,7,,,52,0
845640,note_on,,,,,12,0,11,,,,7,,,52,116
845688,note_on,,,,,48,0,11,,,,7,,,52,0
845700,note_on,,,,,12,0,11,,,,7,,,52,116
845748,note_on,,,,,48,0,11,,,,7,,,52,0
845760,note_on,,,,,12,0,11,,,,7,,,52,116
845808,note_on,,,,,48,0,11,,,,7,,,52,0
845820,note_on,,,,,12,0,11,,,,7,,,52,116
845868,note_on,,,,,48,0,11,,,,7,,,52,0
845880,note_on,,,,,12,0,11,,,,7,,,52,116
845928,note_on,,,,,48,0,11,,,,7,,,52,0
845940,note_on,,,,,12,0,11,,,,7,,,52,116
845988,note_on,,,,,48,0,11,,,,7,,,52,0
846000,note_on,,,,,12,0,11,,,,7,,,52,116
846048,note_on,,,,,48,0,11,,,,7,,,52,0
846060,note_on,,,,,12,0,11,,,,7,,,52,116
846108,note_on,,,,,48,0,11,,,,7,,,52,0
846120,note_on,,,,,12,0,11,,,,7,,,52,116
846168,note_on,,,,,48,0,11,,,,7,,,52,0
846180,note_on,,,,,12,0,11,,,,7,,,52,116
846228,note_on,,,,,48,0,11,,,,7,,,52,0
846240,note_on,,,,,12,0,11,,,,7,,,52,116
846288,note_on,,,,,48,0,11,,,,7,,,52,0
846300,note_on,,,,,12,0,11,,,,7,,,52,116
846348,note_on,,,,,48,0,11,,,,7,,,52,0
846360,note_on,,,,,12,0,11,,,,7,,,52,116
846408,note_on,,,,,48,0,11,,,,7,,,52,0
846420,note_on,,,,,12,0,11,,,,7,,,52,116
846468,note_on,,,,,48,0,11,,,,7,,,52,0
846480,note_on,,,,,12,0,11,,,,7,,,52,116
846528,note_on,,,,,48,0,11,,,,7,,,52,0
846540,note_on,,,,,12,0,11,,,,7,,,52,116
846588,note_on,,,,,48,0,11,,,,7,,,52,0
846600,note_on,,,,,12,0,11,,,,7,,,52,116
846648,note_on,,,,,48,0,11,,,,7,,,52,0
846660,note_on,,,,,12,0,11,,,,7,,,52,116
846708,note_on,,,,,48,0,11,,,,7,,,52,0
846720,note_on,,,,,12,0,11,,,,7,,,52,116
846768,note_on,,,,,48,0,11,,,,7,,,52,0
846780,note_on,,,,,12,0,11,,,,7,,,52,116
846828,note_on,,,,,48,0,11,,,,7,,,52,0
846840,note_on,,,,,12,0,11,,,,7,,,52,116
846888,note_on,,,,,48,0,11,,,,7,,,52,0
846900,note_on,,,,,12,0,11,,,,7,,,52,116
846948,note_on,,,,,48,0,11,,,,7,,,52,0
846960,note_on,,,,,12,0,11,,,,7,,,52,116
847008,note_on,,,,,48,0,11,,,,7,,,52,0
847020,note_on,,,,,12,0,11,,,,7,,,52,116
847068,note_on,,,,,48,0,11,,,,7,,,52,0
847080,note_on,,,,,12,0,11,,,,7,,,52,116
847128,note_on,,,,,48,0,11,,,,7,,,52,0
847140,note_on,,,,,12,0,11,,,,7,,,52,116
847188,note_on,,,,,48,0,11,,,,7,,,52,0
847200,note_on,,,,,12,0,11,,,,7,,,52,116
847248,note_on,,,,,48,0,11,,,,7,,,52,0
847260,note_on,,,,,12,0,11,,,,7,,,52,116
847308,note_on,,,,,48,0,11,,,,7,,,52,0
847320,note_on,,,,,12,0,11,,,,7,,,52,116
847368,note_on,,,,,48,0,11,,,,7,,,52,0
847380,note_on,,,,,12,0,11,,,,7,,,52,116
847428,note_on,,,,,48,0,11,,,,7,,,52,0
847440,note_on,,,,,12,0,11,,,,7,,,52,116
847488,note_on,,,,,48,0,11,,,,7,,,52,0
847500,note_on,,,,,12,0,11,,,,7,,,52,116
847548,note_on,,,,,48,0,11,,,,7,,,52,0
847560,note_on,,,,,12,0,11,,,,7,,,52,116
847608,note_on,,,,,48,0,11,,,,7,,,52,0
847620,note_on,,,,,12,0,11,,,,7,,,52,116
847668,note_on,,,,,48,0,11,,,,7,,,52,0
847680,note_on,,,,,12,0,11,,,,7,,,52,116
847728,note_on,,,,,48,0,11,,,,7,,,52,0
847740,note_on,,,,,12,0,11,,,,7,,,52,116
847788,note_on,,,,,48,0,11,,,,7,,,52,0
847800,note_on,,,,,12,0,11,,,,7,,,52,116
847848,note_on,,,,,48,0,11,,,,7,,,52,0
847860,note_on,,,,,12,0,11,,,,7,,,52,116
847908,note_on,,,,,48,0,11,,,,7,,,52,0
847920,note_on,,,,,12,0,11,,,,7,,,52,116
847968,note_on,,,,,48,0,11,,,,7,,,52,0
847980,note_on,,,,,12,0,11,,,,7,,,52,116
848028,note_on,,,,,48,0,11,,,,7,,,52,0
848040,note_on,,,,,12,0,11,,,,7,,,52,116
848088,note_on,,,,,48,0,11,,,,7,,,52,0
848100,note_on,,,,,12,0,11,,,,7,,,52,116
848148,note_on,,,,,48,0,11,,,,7,,,52,0
848160,note_on,,,,,12,0,11,,,,7,,,52,116
848208,note_on,,,,,48,0,11,,,,7,,,52,0
848220,note_on,,,,,12,0,11,,,,7,,,52,116
848268,note_on,,,,,48,0,11,,,,7,,,52,0
848280,note_on,,,,,12,0,11,,,,7,,,52,116
848328,note_on,,,,,48,0,11,,,,7,,,52,0
848340,note_on,,,,,12,0,11,,,,7,,,52,116
848388,note_on,,,,,48,0,11,,,,7,,,52,0
848400,note_on,,,,,12,0,11,,,,7,,,52,116
848448,note_on,,,,,48,0,11,,,,7,,,52,0
848460,note_on,,,,,12,0,11,,,,7,,,52,116
848508,note_on,,,,,48,0,11,,,,7,,,52,0
848520,note_on,,,,,12,0,11,,,,7,,,52,116
848568,note_on,,,,,48,0,11,,,,7,,,52,0
848580,note_on,,,,,12,0,11,,,,7,,,52,116
848628,note_on,,,,,48,0,11,,,,7,,,52,0
848640,note_on,,,,,12,0,11,,,,7,,,52,116
849024,note_on,,,,,4224,0,16,,,,14,,,28,0
849024,note_on,,,,,0,0,14,,,,12,,,59,0
849024,end_of_track,,,,,0,1,1,,,,,,,,
849024,note_on,,,,,4224,0,14,,,,12,,,52,0
849024,end_of_track,,,,,0,1,13,,,,,,,,
849024,note_on,,,,,0,0,13,,,,11,,,55,0
849024,note_on,,,,,4224,0,13,,,,11,,,64,0
849024,end_of_track,,,,,0,1,12,,,,,,,,
849024,note_on,,,,,0,0,12,,,,10,,,55,0
849024,note_on,,,,,4224,0,12,,,,10,,,64,0
849024,end_of_track,,,,,0,1,14,,,,,,,,
849024,note_on,,,,,4224,0,15,,,,13,,,40,0
849024,end_of_track,,,,,0,1,15,,,,,,,,
849024,end_of_track,,,,,0,1,11,,,,,,,,
849024,note_on,,,,,384,0,11,,,,7,,,52,0
849024,note_on,,,,,4224,0,1,,,,0,,,88,0
849024,note_on,,,,,4224,0,10,,,,6,,,64,0
849024,end_of_track,,,,,0,1,10,,,,,,,,
849024,note_on,,,,,0,0,9,,,,5,,,55,0
849024,note_on,,,,,4224,0,3,,,,1,,,71,0
849024,note_on,,,,,0,0,3,,,,1,,,79,0
849024,end_of_track,,,,,0,1,3,,,,,,,,
849024,note_on,,,,,4224,0,4,,,,2,,,71,0
849024,note_on,,,,,0,0,4,,,,2,,,67,0
849024,end_of_track,,,,,0,1,9,,,,,,,,
849024,end_of_track,,,,,0,1,4,,,,,,,,
849024,note_on,,,,,0,0,6,,,,3,,,59,0
849024,end_of_track,,,,,0,1,6,,,,,,,,
849024,note_on,,,,,4224,0,8,,,,4,,,52,0
849024,end_of_track,,,,,0,1,8,,,,,,,,
849024,note_on,,,,,4224,0,9,,,,5,,,64,0
849024,note_on,,,,,4224,0,6,,,,3,,,55,0
850560,note_on,,,,,1536,0,16,,,,14,,,28,1
851328,note_on,,,,,768,0,16,,,,14,,,28,0
851328,end_of_track,,,,,0,1,16,,,,,,,,
