,note,step,duration,channel,velocity
0,60.0,0,1044,0.0,24.0
1,48.0,0,1044,0.0,42.0
2,72.0,0,1044,0.0,57.0
3,65.0,1024,1556,0.0,29.0
4,53.0,0,1556,0.0,47.0
5,77.0,0,1556,0.0,62.0
6,79.0,1536,532,0.0,61.0
7,67.0,0,532,0.0,28.0
8,55.0,0,532,0.0,46.0
9,80.0,0,532,0.0,65.0
10,56.0,512,532,0.0,48.0
11,68.0,0,532,0.0,30.0
12,77.0,0,532,0.0,66.0
13,53.0,0,532,0.0,51.0
14,65.0,512,532,0.0,33.0
15,61.0,512,532,0.0,26.0
16,73.0,0,532,0.0,59.0
17,49.0,0,532,0.0,44.0
18,65.0,512,532,0.0,24.0
19,53.0,0,532,0.0,42.0
20,77.0,0,532,0.0,57.0
21,60.0,0,1556,0.0,24.0
22,48.0,0,1556,0.0,42.0
23,72.0,512,1556,0.0,57.0
24,67.0,1536,532,0.0,29.0
25,79.0,0,532,0.0,62.0
26,55.0,0,532,0.0,47.0
27,56.0,0,532,0.0,46.0
28,80.0,512,532,0.0,63.0
29,68.0,0,532,0.0,28.0
30,77.0,0,532,0.0,63.0
31,65.0,512,532,0.0,30.0
32,53.0,0,532,0.0,48.0
33,49.0,512,532,0.0,45.0
34,73.0,0,532,0.0,60.0
35,61.0,0,532,0.0,27.0
36,65.0,512,532,0.0,27.0
37,77.0,0,532,0.0,60.0
38,53.0,0,532,0.0,45.0
39,67.0,512,532,0.0,28.0
40,55.0,0,532,0.0,46.0
41,79.0,0,532,0.0,63.0
42,75.0,0,532,0.0,60.0
43,51.0,0,532,0.0,45.0
44,63.0,512,532,0.0,27.0
45,48.0,0,532,0.0,45.0
46,72.0,0,532,0.0,60.0
47,60.0,512,532,0.0,27.0
48,51.0,0,532,0.0,44.0
49,63.0,512,532,0.0,26.0
50,75.0,0,532,0.0,59.0
51,67.0,0,532,0.0,30.0
52,55.0,512,532,0.0,48.0
53,79.0,0,532,0.0,63.0
54,50.0,0,532,0.0,46.0
55,74.0,0,532,0.0,61.0
56,62.0,512,532,0.0,28.0
57,55.0,0,532,0.0,21.0
58,67.0,512,532,0.0,53.0
59,43.0,0,532,0.0,39.0
60,50.0,0,532,0.0,39.0
61,74.0,0,532,0.0,53.0
62,62.0,512,532,0.0,21.0
63,55.0,0,532,0.0,36.0
64,52.0,512,532,0.0,42.0
65,64.0,0,532,0.0,47.0
66,55.0,512,532,0.0,45.0
67,43.0,0,532,0.0,40.0
68,52.0,0,532,0.0,37.0
69,64.0,512,532,0.0,42.0
70,79.0,0,3072,0.0,57.0
71,36.0,0,3072,0.0,38.0
72,67.0,0,1024,0.0,40.0
73,76.0,0,3072,0.0,39.0
74,55.0,512,1044,0.0,35.0
75,67.0,0,256,0.0,64.0
76,55.0,1280,256,0.0,50.0
77,70.0,256,256,0.0,66.0
78,58.0,0,256,0.0,50.0
79,60.0,0,256,0.0,50.0
80,72.0,256,256,0.0,68.0
81,58.0,306,206,0.0,59.0
82,70.0,0,206,0.0,68.0
83,67.0,0,206,0.0,66.0
84,55.0,256,206,0.0,57.0
85,73.0,0,1024,0.0,74.0
86,58.0,0,206,0.0,55.0
87,61.0,256,1024,0.0,61.0
88,70.0,256,206,0.0,64.0
89,61.0,0,276,0.0,61.0
90,68.0,256,256,0.0,68.0
91,56.0,0,256,0.0,59.0
92,77.0,206,512,0.0,80.0
93,49.0,0,0,0.0,57.0
94,37.0,0,512,0.0,76.0
95,61.0,256,256,0.0,66.0
96,73.0,0,0,0.0,70.0
97,56.0,0,276,0.0,55.0
98,49.0,0,20,0.0,76.0
99,68.0,256,276,0.0,64.0
100,61.0,0,276,0.0,61.0
101,70.0,256,276,0.0,68.0
102,58.0,0,276,0.0,59.0
103,55.0,0,276,0.0,58.0
104,67.0,256,276,0.0,67.0
105,70.0,0,276,0.0,65.0
106,58.0,256,276,0.0,56.0
107,61.0,0,532,0.0,55.0
108,73.0,256,532,0.0,73.0
109,43.0,0,2048,0.0,76.0
110,76.0,0,2048,0.0,89.0
111,64.0,0,2048,0.0,64.0
112,70.0,2304,256,0.0,68.0
113,58.0,0,256,0.0,59.0
114,73.0,0,256,0.0,70.0
115,61.0,256,256,0.0,61.0
116,75.0,256,256,0.0,72.0
117,63.0,0,256,0.0,63.0
118,77.0,256,256,0.0,74.0
119,65.0,0,256,0.0,65.0
120,61.0,0,256,0.0,63.0
121,73.0,256,256,0.0,72.0
122,70.0,0,256,0.0,70.0
123,58.0,256,256,0.0,61.0
124,61.0,0,256,0.0,59.0
125,73.0,256,256,0.0,68.0
126,65.0,0,256,0.0,65.0
127,68.0,256,512,0.0,64.0
128,53.0,0,512,0.0,76.0
129,41.0,0,512,0.0,67.0
130,80.0,0,512,0.0,80.0
131,72.0,256,256,0.0,72.0
132,60.0,0,256,0.0,63.0
133,65.0,0,256,0.0,70.0
134,53.0,256,256,0.0,61.0
135,60.0,0,256,0.0,59.0
136,77.0,0,0,0.0,74.0
137,72.0,256,256,0.0,68.0
138,73.0,256,256,0.0,72.0
139,61.0,0,256,0.0,63.0
140,65.0,0,512,0.0,65.0
141,58.0,0,256,0.0,62.0
142,70.0,256,256,0.0,71.0
143,73.0,0,256,0.0,69.0
144,61.0,256,256,0.0,60.0
145,77.0,0,512,0.0,77.0
146,65.0,256,512,0.0,59.0
147,53.0,0,2048,0.0,67.0
148,46.0,0,2048,0.0,67.0
149,79.0,0,2048,0.0,89.0
150,67.0,256,2048,0.0,64.0
151,73.0,2304,256,0.0,68.0
152,61.0,0,256,0.0,59.0
153,77.0,0,256,0.0,70.0
154,65.0,256,256,0.0,61.0
155,67.0,0,256,0.0,64.0
156,79.0,256,256,0.0,73.0
157,77.0,306,206,0.0,73.0
158,65.0,0,206,0.0,64.0
159,80.0,256,1024,0.0,75.0
160,61.0,0,462,0.0,63.0
161,65.0,256,206,0.0,61.0
162,68.0,0,1024,0.0,66.0
163,77.0,0,206,0.0,70.0
164,73.0,256,462,0.0,72.0
165,68.0,0,306,0.0,66.0
166,44.0,0,512,0.0,67.0
167,72.0,0,512,0.0,64.0
168,63.0,0,206,0.0,64.0
169,75.0,306,206,0.0,73.0
170,56.0,0,512,0.0,76.0
171,84.0,0,512,0.0,89.0
172,68.0,256,206,0.0,72.0
173,63.0,256,206,0.0,61.0
174,56.0,0,462,0.0,63.0
175,80.0,0,1024,0.0,75.0
176,75.0,0,206,0.0,70.0
177,77.0,306,206,0.0,73.0
178,82.0,0,512,0.0,80.0
179,49.0,0,512,0.0,67.0
180,61.0,0,512,0.0,76.0
181,65.0,0,206,0.0,64.0
182,70.0,0,512,0.0,64.0
183,68.0,206,1024,0.0,66.0
184,65.0,0,206,0.0,61.0
185,61.0,0,462,0.0,63.0
186,80.0,0,1024,0.0,75.0
187,73.0,256,462,0.0,70.0
188,77.0,256,206,0.0,70.0
189,67.0,206,306,0.0,66.0
190,82.0,0,512,0.0,89.0
191,73.0,306,206,0.0,73.0
192,70.0,0,512,0.0,64.0
193,55.0,0,512,0.0,76.0
194,61.0,0,206,0.0,64.0
195,43.0,0,512,0.0,67.0
196,67.0,256,206,0.0,72.0
197,73.0,256,206,0.0,70.0
198,79.0,0,1024,0.0,75.0
199,55.0,0,462,0.0,63.0
200,61.0,0,206,0.0,61.0
201,60.0,0,512,0.0,64.0
202,48.0,0,512,0.0,55.0
203,80.0,0,512,0.0,80.0
204,75.0,306,206,0.0,73.0
205,68.0,0,512,0.0,64.0
206,63.0,0,206,0.0,64.0
207,72.0,256,206,0.0,72.0
208,60.0,0,206,0.0,63.0
209,79.0,206,1024,0.0,75.0
210,67.0,0,1024,0.0,66.0
211,75.0,256,206,0.0,70.0
212,63.0,0,206,0.0,61.0
213,65.0,0,306,0.0,66.0
214,60.0,306,206,0.0,64.0
215,68.0,0,512,0.0,64.0
216,72.0,0,206,0.0,73.0
217,80.0,206,512,0.0,89.0
218,41.0,0,512,0.0,55.0
219,53.0,0,512,0.0,64.0
220,65.0,0,206,0.0,72.0
221,60.0,256,206,0.0,61.0
222,53.0,256,462,0.0,63.0
223,77.0,206,0,0.0,75.0
224,72.0,0,206,0.0,70.0
225,46.0,0,512,0.0,55.0
226,79.0,0,512,0.0,80.0
227,73.0,0,206,0.0,73.0
228,67.0,0,512,0.0,64.0
229,58.0,0,512,0.0,64.0
230,70.0,0,206,0.0,72.0
231,58.0,256,206,0.0,63.0
232,61.0,306,462,0.0,64.0
233,61.0,256,206,0.0,61.0
234,73.0,0,206,0.0,70.0
235,65.0,0,1024,0.0,66.0
236,65.0,0,306,0.0,66.0
237,68.0,0,512,0.0,64.0
238,72.0,0,206,0.0,73.0
239,80.0,0,512,0.0,89.0
240,53.0,0,512,0.0,64.0
241,41.0,0,512,0.0,55.0
242,65.0,256,206,0.0,72.0
243,60.0,306,462,0.0,64.0
244,72.0,256,206,0.0,70.0
245,77.0,206,1024,0.0,75.0
246,53.0,0,462,0.0,63.0
247,60.0,0,206,0.0,61.0
248,77.0,206,256,0.0,80.0
249,53.0,0,316,0.0,79.0
250,65.0,0,512,0.0,77.0
251,74.0,256,256,0.0,79.0
252,79.0,0,512,0.0,80.0
253,71.0,0,512,0.0,64.0
254,67.0,0,512,0.0,64.0
255,62.0,0,316,0.0,78.0
256,71.0,0,256,0.0,77.0
257,59.0,256,316,0.0,77.0
258,74.0,256,0,0.0,66.0
259,62.0,256,316,0.0,76.0
260,59.0,0,316,0.0,75.0
261,67.0,0,256,0.0,73.0
262,71.0,0,512,0.0,66.0
263,79.0,0,512,0.0,82.0
264,55.0,256,316,0.0,74.0
265,65.0,0,256,0.0,72.0
266,53.0,256,316,0.0,73.0
267,31.0,256,0,0.0,76.0
268,43.0,0,0,0.0,64.0
269,67.0,256,256,0.0,71.0
270,55.0,0,316,0.0,72.0
271,65.0,0,256,0.0,69.0
272,53.0,0,316,0.0,71.0
273,67.0,0,512,0.0,68.0
274,62.0,0,256,0.0,68.0
275,71.0,0,512,0.0,68.0
276,74.0,0,512,0.0,68.0
277,79.0,0,512,0.0,86.0
278,50.0,256,316,0.0,70.0
279,59.0,256,256,0.0,67.0
280,47.0,0,316,0.0,69.0
281,62.0,256,256,0.0,65.0
282,50.0,0,316,0.0,68.0
283,59.0,0,256,0.0,64.0
284,47.0,0,316,0.0,67.0
285,79.0,0,512,0.0,88.0
286,67.0,0,512,0.0,70.0
287,71.0,256,512,0.0,70.0
288,74.0,0,512,0.0,70.0
289,55.0,256,256,0.0,63.0
290,43.0,0,316,0.0,66.0
291,53.0,256,256,0.0,61.0
292,41.0,0,316,0.0,65.0
293,43.0,256,0,0.0,64.0
294,31.0,0,1024,0.0,76.0
295,50.0,256,256,0.0,60.0
296,38.0,0,316,0.0,64.0
297,24.0,0,256,0.0,80.0
298,36.0,256,256,0.0,65.0
299,48.0,0,512,0.0,60.0
300,43.0,0,256,0.0,66.0
301,55.0,256,256,0.0,65.0
302,60.0,0,256,0.0,68.0
303,48.0,256,256,0.0,67.0
304,64.0,0,171,0.0,70.0
305,52.0,256,171,0.0,69.0
306,55.0,171,170,0.0,69.0
307,67.0,0,170,0.0,72.0
308,60.0,170,171,0.0,70.0
309,72.0,0,171,0.0,73.0
310,76.0,171,171,0.0,75.0
311,64.0,0,171,0.0,71.0
312,67.0,171,170,0.0,72.0
313,79.0,0,170,0.0,77.0
314,84.0,0,171,0.0,78.0
315,72.0,170,171,0.0,72.0
316,76.0,0,512,0.0,73.0
317,88.0,171,512,0.0,80.0
318,72.0,0,512,0.0,71.0
319,64.0,0,512,0.0,69.0
320,70.0,0,512,0.0,60.0
321,55.0,0,512,0.0,55.0
322,58.0,0,512,0.0,55.0
323,60.0,0,512,0.0,55.0
324,48.0,0,512,0.0,72.0
325,84.0,1024,512,0.0,92.0
326,76.0,0,512,0.0,71.0
327,82.0,0,512,0.0,71.0
328,53.0,512,0,0.0,53.0
329,80.0,0,1024,0.0,64.0
330,84.0,0,512,0.0,58.0
331,56.0,0,1024,0.0,64.0
332,60.0,512,512,0.0,58.0
333,89.0,1024,1024,0.0,85.0
334,77.0,0,512,0.0,53.0
335,65.0,0,1556,0.0,64.0
336,68.0,0,1556,0.0,64.0
337,48.0,0,512,0.0,47.0
338,72.0,0,512,0.0,47.0
339,41.0,0,0,0.0,5.0
340,67.0,512,532,0.0,64.0
341,79.0,0,532,0.0,80.0
342,80.0,0,532,0.0,80.0
343,68.0,512,532,0.0,64.0
344,53.0,0,1024,0.0,72.0
345,49.0,512,512,0.0,52.0
346,41.0,0,1024,0.0,64.0
347,77.0,0,512,0.0,76.0
348,65.0,0,512,0.0,61.0
349,73.0,0,0,0.0,72.0
350,68.0,0,512,0.0,48.0
351,44.0,512,512,0.0,48.0
352,61.0,0,532,0.0,58.0
353,29.0,0,2048,0.0,64.0
354,41.0,0,512,0.0,42.0
355,65.0,0,512,0.0,54.0
356,41.0,0,0,0.0,64.0
357,65.0,0,20,0.0,3.0
358,77.0,0,20,0.0,3.0
359,89.0,0,1024,0.0,80.0
360,53.0,512,0,0.0,53.0
361,56.0,0,1024,0.0,5.0
362,60.0,512,512,0.0,58.0
363,80.0,0,1024,0.0,3.0
364,84.0,0,512,0.0,58.0
365,77.0,0,512,0.0,53.0
366,68.0,0,1556,0.0,64.0
367,72.0,0,20,0.0,47.0
368,41.0,0,0,0.0,5.0
369,48.0,0,512,0.0,47.0
370,67.0,512,532,0.0,64.0
371,79.0,0,532,0.0,80.0
372,80.0,0,532,0.0,80.0
373,68.0,0,532,0.0,64.0
374,77.0,0,512,0.0,76.0
375,53.0,0,1024,0.0,72.0
376,49.0,0,512,0.0,52.0
377,65.0,0,512,0.0,61.0
378,73.0,512,0,0.0,72.0
379,68.0,0,512,0.0,48.0
380,44.0,0,512,0.0,48.0
381,61.0,0,532,0.0,58.0
382,41.0,0,512,0.0,42.0
383,65.0,0,512,0.0,42.0
384,29.0,0,2048,0.0,64.0
385,77.0,512,532,0.0,68.0
386,76.0,0,1024,0.0,64.0
387,64.0,0,1024,0.0,5.0
388,60.0,512,512,0.0,58.0
389,52.0,0,1024,0.0,55.0
390,88.0,0,1024,0.0,68.0
391,84.0,0,512,0.0,58.0
392,67.0,0,1536,0.0,64.0
393,72.0,0,1536,0.0,80.0
394,55.0,0,512,0.0,53.0
395,79.0,0,0,0.0,80.0
396,52.0,0,512,0.0,47.0
397,67.0,512,512,0.0,64.0
398,40.0,0,2048,0.0,64.0
399,48.0,0,2048,0.0,55.0
400,76.0,0,512,0.0,47.0
401,78.0,0,512,0.0,80.0
402,66.0,0,512,0.0,64.0
403,72.0,0,512,0.0,52.0
404,75.0,0,512,0.0,76.0
405,51.0,0,1024,0.0,61.0
406,48.0,0,512,0.0,52.0
407,39.0,0,1024,0.0,5.0
408,63.0,512,512,0.0,61.0
409,42.0,512,512,0.0,48.0
410,66.0,0,512,0.0,48.0
411,60.0,0,512,0.0,58.0
412,72.0,0,512,0.0,72.0
413,63.0,0,512,0.0,54.0
414,39.0,0,512,0.0,42.0
415,27.0,0,2048,0.0,64.0
416,75.0,0,512,0.0,68.0
417,50.0,0,1024,0.0,55.0
418,86.0,0,1024,0.0,68.0
419,82.0,0,512,0.0,58.0
420,74.0,512,1024,0.0,64.0
421,58.0,512,512,0.0,58.0
422,62.0,0,1024,0.0,5.0
423,53.0,0,512,0.0,53.0
424,77.0,512,512,0.0,53.0
425,65.0,512,0,0.0,64.0
426,70.0,0,1536,0.0,80.0
427,50.0,0,512,0.0,47.0
428,41.0,0,2048,0.0,64.0
429,77.0,0,512,0.0,80.0
430,74.0,0,512,0.0,47.0
431,64.0,0,512,0.0,64.0
432,76.0,0,512,0.0,80.0
433,49.0,0,1024,0.0,61.0
434,46.0,512,512,0.0,52.0
435,73.0,0,512,0.0,74.0
436,70.0,0,512,0.0,52.0
437,61.0,0,512,0.0,60.0
438,37.0,0,1024,0.0,55.0
439,43.0,512,512,0.0,48.0
440,70.0,0,512,0.0,69.0
441,58.0,0,512,0.0,55.0
442,67.0,0,512,0.0,48.0
443,37.0,512,512,0.0,42.0
444,61.0,0,512,0.0,42.0
445,37.0,0,0,0.0,64.0
446,25.0,512,2048,0.0,64.0
447,77.0,0,512,0.0,80.0
448,65.0,0,512,0.0,64.0
449,55.0,171,170,0.0,64.0
450,58.0,170,171,0.0,67.0
451,67.0,171,0,0.0,72.0
452,70.0,170,171,0.0,75.0
453,79.0,171,512,0.0,78.0
454,76.0,0,1536,0.0,80.0
455,64.0,0,1536,0.0,64.0
456,46.0,512,2048,0.0,55.0
457,77.0,512,512,0.0,80.0
458,65.0,0,512,0.0,64.0
459,49.0,0,2048,0.0,55.0
460,60.0,512,512,0.0,64.0
461,72.0,0,512,0.0,64.0
462,36.0,0,512,0.0,64.0
463,48.0,0,512,0.0,64.0
464,76.0,0,512,0.0,80.0
465,64.0,0,512,0.0,64.0
466,70.0,0,512,0.0,61.0
467,73.0,0,512,0.0,74.0
468,46.0,0,512,0.0,61.0
469,61.0,512,512,0.0,60.0
470,58.0,512,512,0.0,69.0
471,70.0,0,512,0.0,55.0
472,43.0,0,512,0.0,58.0
473,67.0,0,512,0.0,58.0
474,65.0,512,512,0.0,64.0
475,77.0,0,512,0.0,80.0
476,24.0,0,2048,0.0,64.0
477,36.0,0,512,0.0,55.0
478,60.0,0,512,0.0,55.0
479,55.0,171,170,0.0,64.0
480,58.0,170,171,0.0,64.0
481,67.0,171,0,0.0,64.0
482,70.0,170,171,0.0,64.0
483,79.0,171,512,0.0,64.0
484,55.0,256,256,0.0,64.0
485,76.0,0,1536,0.0,80.0
486,64.0,512,1536,0.0,64.0
487,58.0,256,256,0.0,66.0
488,60.0,256,256,0.0,68.0
489,48.0,0,2048,0.0,52.0
490,46.0,0,2048,0.0,52.0
491,77.0,0,532,0.0,80.0
492,65.0,0,532,0.0,64.0
493,61.0,0,256,0.0,70.0
494,76.0,256,312,0.0,80.0
495,64.0,0,312,0.0,64.0
496,58.0,256,256,0.0,69.0
497,55.0,0,256,0.0,67.0
498,58.0,256,256,0.0,66.0
499,79.0,256,532,0.0,83.0
500,67.0,0,532,0.0,69.0
501,56.0,0,256,0.0,64.0
502,65.0,256,312,0.0,78.0
503,77.0,0,312,0.0,64.0
504,72.0,256,256,0.0,64.0
505,53.0,0,256,0.0,63.0
506,60.0,0,256,0.0,64.0
507,77.0,256,256,0.0,67.0
508,65.0,0,256,0.0,67.0
509,48.0,0,256,0.0,61.0
510,44.0,256,256,0.0,60.0
511,79.0,0,256,0.0,70.0
512,67.0,0,256,0.0,70.0
513,84.0,0,532,0.0,80.0
514,72.0,0,532,0.0,64.0
515,80.0,0,256,0.0,70.0
516,68.0,0,256,0.0,70.0
517,65.0,256,256,0.0,68.0
518,77.0,0,256,0.0,68.0
519,74.0,256,256,0.0,67.0
520,62.0,0,256,0.0,67.0
521,53.0,0,1024,0.0,52.0
522,50.0,0,1024,0.0,52.0
523,43.0,0,1024,0.0,64.0
524,77.0,256,256,0.0,65.0
525,65.0,0,256,0.0,65.0
526,83.0,0,1536,0.0,80.0
527,62.0,256,256,0.0,64.0
528,80.0,0,512,0.0,64.0
529,68.0,256,512,0.0,64.0
530,71.0,0,1536,0.0,64.0
531,65.0,0,256,0.0,66.0
532,67.0,256,256,0.0,68.0
533,84.0,256,532,0.0,80.0
534,72.0,0,532,0.0,64.0
535,68.0,0,256,0.0,70.0
536,71.0,256,312,0.0,64.0
537,83.0,0,312,0.0,80.0
538,65.0,256,256,0.0,69.0
539,62.0,0,256,0.0,67.0
540,65.0,256,256,0.0,66.0
541,86.0,0,532,0.0,83.0
542,74.0,256,532,0.0,69.0
543,63.0,0,256,0.0,64.0
544,84.0,0,312,0.0,64.0
545,72.0,256,312,0.0,78.0
546,79.0,0,256,0.0,69.0
547,60.0,0,256,0.0,63.0
548,67.0,256,256,0.0,69.0
549,72.0,0,256,0.0,71.0
550,55.0,256,256,0.0,61.0
551,84.0,0,256,0.0,71.0
552,86.0,0,256,0.0,73.0
553,74.0,256,256,0.0,73.0
554,51.0,0,256,0.0,60.0
555,91.0,0,532,0.0,87.0
556,79.0,0,532,0.0,64.0
557,87.0,0,256,0.0,84.0
558,75.0,0,256,0.0,75.0
559,72.0,256,256,0.0,73.0
560,84.0,0,256,0.0,73.0
561,69.0,256,256,0.0,72.0
562,81.0,0,256,0.0,72.0
563,72.0,256,256,0.0,70.0
564,84.0,0,256,0.0,70.0
565,75.0,0,128,0.0,69.0
566,87.0,256,128,0.0,69.0
567,69.0,0,256,0.0,55.0
568,57.0,256,256,0.0,52.0
569,60.0,0,0,0.0,54.0
570,90.0,0,1536,0.0,80.0
571,50.0,0,1536,0.0,64.0
572,78.0,0,1536,0.0,64.0
573,85.0,0,1536,0.0,64.0
574,72.0,256,256,0.0,57.0
575,74.0,256,256,0.0,59.0
576,62.0,0,256,0.0,56.0
577,79.0,0,512,0.0,80.0
578,67.0,0,512,0.0,64.0
579,75.0,256,256,0.0,61.0
580,63.0,0,256,0.0,58.0
581,72.0,0,256,0.0,59.0
582,60.0,256,256,0.0,56.0
583,57.0,0,256,0.0,54.0
584,69.0,256,256,0.0,57.0
585,72.0,0,128,0.0,55.0
586,60.0,256,256,0.0,52.0
587,63.0,256,128,0.0,64.0
588,75.0,0,256,0.0,64.0
589,66.0,0,1536,0.0,64.0
590,38.0,0,1536,0.0,80.0
591,78.0,256,0,0.0,64.0
592,50.0,0,1536,0.0,55.0
593,81.0,256,256,0.0,67.0
594,45.0,0,1536,0.0,55.0
595,84.0,0,256,0.0,69.0
596,87.0,256,256,0.0,72.0
597,90.0,0,512,0.0,80.0
598,89.0,0,256,0.0,80.0
599,82.0,256,256,0.0,71.0
600,77.0,256,256,0.0,69.0
601,62.0,256,1024,0.0,81.0
602,58.0,0,1024,0.0,64.0
603,50.0,0,1024,0.0,64.0
604,89.0,256,0,0.0,64.0
605,82.0,256,256,0.0,66.0
606,77.0,0,0,0.0,64.0
607,61.0,0,341,0.0,89.0
608,49.0,0,341,0.0,70.0
609,70.0,256,256,0.0,61.0
610,48.0,0,342,0.0,67.0
611,60.0,85,342,0.0,85.0
612,65.0,171,256,0.0,58.0
613,70.0,85,256,0.0,55.0
614,82.0,0,1024,0.0,80.0
615,85.0,0,256,0.0,80.0
616,78.0,256,256,0.0,71.0
617,73.0,256,0,0.0,69.0
618,58.0,171,1365,0.0,81.0
619,46.0,0,1365,0.0,64.0
620,78.0,0,0,0.0,80.0
621,73.0,0,0,0.0,64.0
622,73.0,0,256,0.0,5.0
623,57.0,0,341,0.0,89.0
624,45.0,0,341,0.0,70.0
625,66.0,256,256,0.0,61.0
626,85.0,0,512,0.0,70.0
627,56.0,85,342,0.0,85.0
628,44.0,0,342,0.0,67.0
629,61.0,171,256,0.0,58.0
630,66.0,85,256,0.0,55.0
631,81.0,0,256,0.0,80.0
632,73.0,256,256,0.0,68.0
633,69.0,0,512,0.0,64.0
634,69.0,256,256,0.0,67.0
635,73.0,256,256,0.0,65.0
636,54.0,171,1365,0.0,81.0
637,42.0,0,1365,0.0,64.0
638,40.0,256,341,0.0,70.0
639,52.0,0,341,0.0,89.0
640,81.0,0,512,0.0,64.0
641,61.0,256,256,0.0,59.0
642,50.0,85,342,0.0,85.0
643,38.0,0,342,0.0,67.0
644,57.0,171,256,0.0,57.0
645,66.0,0,1024,0.0,64.0
646,69.0,0,1024,0.0,80.0
647,61.0,85,256,0.0,55.0
648,71.0,0,256,0.0,5.0
649,59.0,0,256,0.0,1.0
650,68.0,0,256,0.0,68.0
651,56.0,256,256,0.0,59.0
652,65.0,256,256,0.0,66.0
653,53.0,0,256,0.0,57.0
654,68.0,256,256,0.0,64.0
655,56.0,0,256,0.0,55.0
656,37.0,171,1365,0.0,64.0
657,49.0,0,1365,0.0,81.0
658,48.0,0,341,0.0,89.0
659,36.0,0,341,0.0,70.0
660,56.0,256,256,0.0,59.0
661,68.0,0,256,0.0,68.0
662,34.0,85,342,0.0,72.0
663,46.0,0,342,0.0,90.0
664,65.0,171,256,0.0,66.0
665,53.0,0,256,0.0,57.0
666,60.0,0,1024,0.0,64.0
667,68.0,0,256,0.0,64.0
668,44.0,0,341,0.0,93.0
669,32.0,171,341,0.0,76.0
670,72.0,0,1024,0.0,80.0
671,65.0,0,0,0.0,67.0
672,56.0,85,256,0.0,55.0
673,58.0,0,1024,0.0,64.0
674,53.0,0,1024,0.0,64.0
675,70.0,0,1024,0.0,67.0
676,73.0,0,1024,0.0,85.0
677,31.0,256,1024,0.0,94.0
678,43.0,0,1024,0.0,82.0
679,61.0,0,1024,0.0,67.0
680,60.0,0,768,0.0,64.0
681,72.0,1024,768,0.0,80.0
682,73.0,0,256,0.0,80.0
683,61.0,768,256,0.0,64.0
684,36.0,0,1024,0.0,85.0
685,48.0,0,1024,0.0,73.0
686,58.0,256,1024,0.0,64.0
687,64.0,0,1024,0.0,76.0
688,55.0,0,1024,0.0,64.0
689,24.0,0,1024,0.0,1.0
690,73.0,0,1536,0.0,86.0
691,61.0,0,1536,0.0,70.0
692,64.0,1536,512,0.0,66.0
693,52.0,0,512,0.0,57.0
694,48.0,341,342,0.0,43.0
695,58.0,342,341,0.0,42.0
696,41.0,512,1024,0.0,42.0
697,73.0,0,1044,0.0,59.0
698,60.0,341,342,0.0,45.0
699,72.0,0,788,0.0,62.0
700,73.0,256,0,0.0,64.0
701,56.0,341,1024,0.0,40.0
702,65.0,342,341,0.0,42.0
703,48.0,341,342,0.0,45.0
704,58.0,342,341,0.0,42.0
705,55.0,341,0,0.0,40.0
706,40.0,0,1024,0.0,42.0
707,58.0,341,342,0.0,45.0
708,67.0,171,341,0.0,42.0
709,72.0,171,532,0.0,59.0
710,73.0,0,532,0.0,59.0
711,48.0,341,342,0.0,43.0
712,56.0,171,341,0.0,42.0
713,68.0,341,1024,0.0,43.0
714,41.0,0,1024,0.0,42.0
715,72.0,171,532,0.0,58.0
716,68.0,0,532,0.0,56.0
717,56.0,341,342,0.0,45.0
718,65.0,171,341,0.0,42.0
719,53.0,0,1024,0.0,40.0
720,70.0,171,532,0.0,55.0
721,48.0,341,342,0.0,45.0
722,60.0,342,341,0.0,42.0
723,55.0,0,0,0.0,40.0
724,36.0,0,1024,0.0,42.0
725,64.0,0,1044,0.0,38.0
726,65.0,341,532,0.0,47.0
727,58.0,341,342,0.0,45.0
728,72.0,341,2048,0.0,54.0
729,67.0,171,532,0.0,50.0
730,48.0,341,342,0.0,43.0
731,53.0,342,341,0.0,42.0
732,56.0,341,0,0.0,40.0
733,41.0,0,1024,0.0,42.0
734,73.0,512,1044,0.0,59.0
735,56.0,341,342,0.0,45.0
736,72.0,0,788,0.0,62.0
737,60.0,342,341,0.0,42.0
738,68.0,0,2048,0.0,50.0
739,78.0,256,0,0.0,68.0
740,51.0,341,342,0.0,45.0
741,54.0,342,341,0.0,42.0
742,63.0,0,1024,0.0,40.0
743,39.0,0,1024,0.0,42.0
744,58.0,341,342,0.0,45.0
745,66.0,171,341,0.0,42.0
746,70.0,0,0,0.0,40.0
747,77.0,171,532,0.0,59.0
748,78.0,0,532,0.0,66.0
749,49.0,341,342,0.0,43.0
750,70.0,0,1024,0.0,46.0
751,37.0,341,1024,0.0,42.0
752,54.0,171,341,0.0,42.0
753,73.0,171,532,0.0,63.0
754,70.0,0,532,0.0,59.0
755,58.0,341,342,0.0,45.0
756,61.0,171,341,0.0,42.0
757,72.0,171,532,0.0,58.0
758,49.0,341,342,0.0,45.0
759,66.0,341,1024,0.0,40.0
760,34.0,0,1024,0.0,42.0
761,54.0,342,341,0.0,42.0
762,73.0,0,1044,0.0,60.0
763,61.0,341,342,0.0,45.0
764,66.0,342,341,0.0,42.0
765,58.0,0,1024,0.0,40.0
766,70.0,0,1024,0.0,54.0
767,53.0,341,342,0.0,43.0
768,65.0,0,1024,0.0,30.0
769,68.0,0,1024,0.0,44.0
770,48.0,341,1024,0.0,40.0
771,36.0,0,1024,0.0,40.0
772,58.0,342,341,0.0,42.0
773,73.0,0,1044,0.0,59.0
774,56.0,341,342,0.0,45.0
775,72.0,0,788,0.0,62.0
776,65.0,342,341,0.0,42.0
777,73.0,85,256,0.0,58.0
778,36.0,0,683,0.0,45.0
779,48.0,341,342,0.0,45.0
780,64.0,0,1024,0.0,30.0
781,67.0,256,1024,0.0,44.0
782,56.0,342,341,0.0,42.0
783,73.0,0,1556,0.0,64.0
784,58.0,341,342,0.0,45.0
785,82.0,0,341,0.0,57.0
786,55.0,341,1024,0.0,40.0
787,67.0,171,341,0.0,33.0
788,72.0,171,532,0.0,59.0
789,73.0,0,532,0.0,47.0
790,36.0,341,683,0.0,45.0
791,48.0,341,342,0.0,43.0
792,68.0,0,1024,0.0,40.0
793,65.0,0,1024,0.0,40.0
794,56.0,171,341,0.0,42.0
795,80.0,0,1024,0.0,64.0
796,72.0,171,532,0.0,49.0
797,68.0,341,532,0.0,50.0
798,56.0,341,342,0.0,45.0
799,53.0,0,1024,0.0,40.0
800,65.0,171,341,0.0,42.0
801,70.0,171,532,0.0,52.0
802,36.0,0,683,0.0,38.0
803,48.0,341,342,0.0,38.0
804,64.0,0,1024,0.0,37.0
805,67.0,341,1024,0.0,37.0
806,79.0,0,1024,0.0,57.0
807,60.0,342,341,0.0,35.0
808,58.0,341,342,0.0,42.0
809,72.0,0,2048,0.0,54.0
810,67.0,342,341,0.0,42.0
811,55.0,341,1024,0.0,33.0
812,41.0,0,341,0.0,45.0
813,48.0,341,342,0.0,43.0
814,56.0,0,1024,0.0,40.0
815,68.0,0,1024,0.0,43.0
816,73.0,341,1024,0.0,58.0
817,53.0,0,0,0.0,45.0
818,56.0,341,342,0.0,47.0
819,72.0,341,768,0.0,58.0
820,78.0,85,256,0.0,58.0
821,60.0,342,341,0.0,48.0
822,54.0,0,341,0.0,38.0
823,58.0,0,0,0.0,36.0
824,63.0,341,0,0.0,48.0
825,63.0,342,0,0.0,46.0
826,54.0,0,0,0.0,34.0
827,51.0,0,342,0.0,45.0
828,54.0,341,0,0.0,32.0
829,58.0,0,341,0.0,34.0
830,58.0,341,0,0.0,30.0
831,63.0,0,341,0.0,44.0
832,78.0,0,1536,0.0,67.0
833,54.0,0,342,0.0,30.0
834,63.0,171,0,0.0,40.0
835,58.0,0,341,0.0,28.0
836,73.0,171,512,0.0,50.0
837,70.0,256,2048,0.0,52.0
838,66.0,0,2048,0.0,52.0
839,39.0,0,2048,0.0,40.0
840,63.0,0,0,0.0,33.0
841,54.0,0,0,0.0,33.0
842,51.0,341,342,0.0,33.0
843,68.0,0,1024,0.0,44.0
844,66.0,341,0,0.0,38.0
845,56.0,342,341,0.0,34.0
846,73.0,0,1024,0.0,62.0
847,63.0,0,0,0.0,35.0
848,44.0,0,1024,0.0,40.0
849,56.0,0,0,0.0,45.0
850,60.0,341,342,0.0,47.0
851,72.0,0,768,0.0,64.0
852,63.0,342,341,0.0,48.0
853,78.0,0,0,0.0,72.0
854,66.0,0,0,0.0,58.0
855,57.0,0,341,0.0,42.0
856,61.0,0,0,0.0,39.0
857,57.0,0,342,0.0,39.0
858,66.0,341,342,0.0,52.0
859,61.0,342,0,0.0,36.0
860,49.0,0,342,0.0,43.0
861,54.0,0,341,0.0,44.0
862,57.0,341,0,0.0,44.0
863,66.0,0,0,0.0,46.0
864,57.0,0,341,0.0,33.0
865,61.0,0,341,0.0,33.0
866,57.0,0,342,0.0,31.0
867,61.0,341,342,0.0,31.0
868,66.0,0,342,0.0,43.0
869,73.0,171,512,0.0,61.0
870,66.0,0,341,0.0,40.0
871,69.0,0,2048,0.0,58.0
872,57.0,0,341,0.0,28.0
873,66.0,0,0,0.0,33.0
874,33.0,0,2048,0.0,52.0
875,45.0,256,2048,0.0,40.0
876,61.0,171,341,0.0,28.0
877,54.0,341,342,0.0,43.0
878,57.0,342,341,0.0,43.0
879,63.0,0,1024,0.0,33.0
880,35.0,341,0,0.0,35.0
881,47.0,0,1024,0.0,45.0
882,73.0,0,1024,0.0,57.0
883,69.0,0,0,0.0,44.0
884,66.0,0,0,0.0,34.0
885,63.0,341,342,0.0,34.0
886,69.0,0,342,0.0,34.0
887,71.0,0,768,0.0,60.0
888,78.0,85,256,0.0,62.0
889,69.0,0,341,0.0,35.0
890,63.0,342,341,0.0,35.0
891,47.0,0,1024,0.0,47.0
892,63.0,0,0,0.0,35.0
893,66.0,0,341,0.0,35.0
894,54.0,341,342,0.0,48.0
895,57.0,342,341,0.0,48.0
896,78.0,256,1024,0.0,62.0
897,66.0,0,0,0.0,44.0
898,69.0,0,0,0.0,65.0
899,36.0,0,1024,0.0,37.0
900,48.0,0,1024,0.0,49.0
901,66.0,0,342,0.0,38.0
902,69.0,0,342,0.0,38.0
903,61.0,342,0,0.0,39.0
904,69.0,0,85,0.0,39.0
905,66.0,0,341,0.0,39.0
906,37.0,0,1024,0.0,39.0
907,49.0,0,1024,0.0,51.0
908,66.0,0,0,0.0,40.0
909,78.0,0,0,0.0,67.0
910,54.0,341,342,0.0,52.0
911,60.0,0,0,0.0,42.0
912,38.0,0,1024,0.0,41.0
913,50.0,0,1024,0.0,53.0
914,69.0,0,1024,0.0,44.0
915,57.0,342,341,0.0,53.0
916,60.0,341,0,0.0,43.0
917,69.0,0,342,0.0,43.0
918,66.0,0,342,0.0,43.0
919,69.0,342,85,0.0,44.0
920,60.0,0,341,0.0,44.0
921,66.0,0,341,0.0,44.0
922,39.0,341,1024,0.0,43.0
923,78.0,85,256,0.0,71.0
924,51.0,0,1024,0.0,55.0
925,57.0,341,342,0.0,57.0
926,40.0,0,1024,0.0,45.0
927,69.0,0,1024,0.0,44.0
928,67.0,0,1024,0.0,44.0
929,61.0,342,341,0.0,58.0
930,52.0,0,0,0.0,59.0
931,79.0,256,1024,0.0,72.0
932,64.0,0,341,0.0,46.0
933,73.0,341,341,0.0,46.0
934,64.0,341,342,0.0,47.0
935,67.0,0,342,0.0,47.0
936,73.0,342,0,0.0,48.0
937,45.0,0,1024,0.0,47.0
938,73.0,85,256,0.0,87.0
939,64.0,0,341,0.0,48.0
940,67.0,0,341,0.0,48.0
941,79.0,0,256,0.0,70.0
942,33.0,0,1024,0.0,52.0
943,44.0,0,341,0.0,64.0
944,68.0,0,512,0.0,64.0
945,32.0,0,512,0.0,64.0
946,80.0,0,512,0.0,79.0
947,72.0,0,512,0.0,64.0
948,45.0,341,342,0.0,62.0
949,81.0,0,262,0.0,74.0
950,69.0,171,262,0.0,59.0
951,44.0,341,0,0.0,64.0
952,63.0,0,0,0.0,47.0
953,60.0,0,1024,0.0,59.0
954,80.0,0,256,0.0,72.0
955,32.0,0,256,0.0,64.0
956,60.0,0,256,0.0,47.0
957,68.0,0,256,0.0,57.0
958,72.0,0,256,0.0,57.0
959,45.0,341,342,0.0,60.0
960,44.0,341,0,0.0,56.0
961,45.0,341,342,0.0,51.0
962,44.0,342,341,0.0,46.0
963,44.0,341,341,0.0,47.0
964,45.0,341,342,0.0,43.0
965,44.0,342,341,0.0,38.0
966,37.0,341,341,0.0,35.0
967,44.0,0,341,0.0,35.0
968,45.0,341,342,0.0,33.0
969,44.0,342,341,0.0,30.0
970,37.0,341,341,0.0,35.0
971,44.0,0,341,0.0,35.0
972,45.0,341,342,0.0,33.0
973,44.0,342,341,0.0,30.0
974,44.0,0,341,0.0,35.0
975,37.0,341,341,0.0,35.0
976,45.0,341,342,0.0,33.0
977,44.0,341,0,0.0,35.0
978,37.0,0,341,0.0,35.0
979,45.0,341,342,0.0,33.0
980,80.0,171,256,0.0,44.0
981,49.0,0,256,0.0,30.0
982,88.0,0,256,0.0,42.0
983,76.0,0,256,0.0,30.0
984,92.0,0,256,0.0,56.0
985,44.0,171,341,0.0,30.0
986,37.0,0,341,0.0,35.0
987,44.0,0,341,0.0,35.0
988,76.0,0,512,0.0,42.0
989,61.0,0,512,0.0,30.0
990,80.0,0,512,0.0,56.0
991,64.0,0,512,0.0,30.0
992,68.0,341,512,0.0,44.0
993,45.0,341,342,0.0,33.0
994,78.0,0,262,0.0,39.0
995,60.0,171,262,0.0,30.0
996,69.0,0,262,0.0,40.0
997,66.0,0,262,0.0,27.0
998,81.0,0,262,0.0,52.0
999,44.0,171,341,0.0,30.0
1000,64.0,0,256,0.0,24.0
1001,61.0,341,256,0.0,30.0
1002,76.0,0,256,0.0,36.0
1003,80.0,0,256,0.0,48.0
1004,68.0,0,256,0.0,36.0
1005,44.0,0,341,0.0,35.0
1006,37.0,0,341,0.0,35.0
1007,45.0,341,342,0.0,33.0
1008,73.0,0,256,0.0,30.0
1009,76.0,0,256,0.0,44.0
1010,88.0,0,256,0.0,56.0
1011,44.0,0,0,0.0,35.0
1012,85.0,0,256,0.0,42.0
1013,52.0,85,256,0.0,30.0
1014,37.0,0,341,0.0,35.0
1015,61.0,0,512,0.0,30.0
1016,64.0,0,512,0.0,30.0
1017,76.0,0,512,0.0,56.0
1018,73.0,256,512,0.0,42.0
1019,45.0,341,342,0.0,33.0
1020,66.0,171,262,0.0,40.0
1021,63.0,0,262,0.0,30.0
1022,78.0,0,262,0.0,52.0
1023,75.0,0,262,0.0,39.0
1024,44.0,171,341,0.0,30.0
1025,61.0,0,256,0.0,24.0
1026,64.0,0,256,0.0,30.0
1027,76.0,0,256,0.0,48.0
1028,73.0,0,256,0.0,36.0
1029,37.0,0,341,0.0,35.0
1030,44.0,0,341,0.0,35.0
1031,45.0,341,342,0.0,33.0
1032,73.0,0,256,0.0,44.0
1033,81.0,0,256,0.0,42.0
1034,61.0,0,256,0.0,30.0
1035,44.0,342,341,0.0,30.0
1036,69.0,85,256,0.0,30.0
1037,85.0,0,256,0.0,56.0
1038,45.0,0,341,0.0,35.0
1039,37.0,256,341,0.0,35.0
1040,69.0,171,0,0.0,30.0
1041,73.0,0,512,0.0,50.0
1042,57.0,0,512,0.0,26.0
1043,61.0,0,0,0.0,29.0
1044,47.0,341,342,0.0,33.0
1045,64.0,0,0,0.0,31.0
1046,76.0,0,0,0.0,43.0
1047,73.0,0,512,0.0,41.0
1048,45.0,0,0,0.0,35.0
1049,37.0,341,341,0.0,35.0
1050,81.0,171,0,0.0,46.0
1051,69.0,0,512,0.0,46.0
1052,47.0,341,342,0.0,33.0
1053,45.0,171,341,0.0,30.0
1054,85.0,0,0,0.0,42.0
1055,69.0,0,512,0.0,34.0
1056,73.0,0,0,0.0,30.0
1057,61.0,0,512,0.0,30.0
1058,45.0,0,341,0.0,35.0
1059,37.0,341,341,0.0,35.0
1060,76.0,0,512,0.0,52.0
1061,88.0,0,512,0.0,64.0
1062,47.0,341,342,0.0,33.0
1063,57.0,0,1024,0.0,30.0
1064,90.0,0,512,0.0,67.0
1065,78.0,171,512,0.0,55.0
1066,45.0,171,341,0.0,30.0
1067,44.0,0,341,0.0,35.0
1068,37.0,0,341,0.0,35.0
1069,80.0,341,512,0.0,57.0
1070,92.0,0,512,0.0,69.0
1071,45.0,341,342,0.0,33.0
1072,78.0,171,512,0.0,52.0
1073,72.0,0,1024,0.0,30.0
1074,90.0,0,512,0.0,64.0
1075,84.0,0,1024,0.0,42.0
1076,56.0,0,1024,0.0,30.0
1077,44.0,171,341,0.0,30.0
1078,37.0,0,341,0.0,35.0
1079,45.0,0,341,0.0,35.0
1080,88.0,0,512,0.0,60.0
1081,76.0,0,512,0.0,48.0
1082,47.0,341,342,0.0,33.0
1083,45.0,171,341,0.0,30.0
1084,78.0,0,512,0.0,50.0
1085,73.0,341,1024,0.0,30.0
1086,90.0,171,512,0.0,62.0
1087,85.0,0,1024,0.0,42.0
1088,57.0,0,1024,0.0,30.0
1089,37.0,0,341,0.0,35.0
1090,44.0,0,341,0.0,35.0
1091,45.0,341,342,0.0,33.0
1092,44.0,342,341,0.0,30.0
1093,37.0,341,341,0.0,35.0
1094,44.0,0,341,0.0,35.0
1095,92.0,0,1536,0.0,59.0
1096,80.0,341,1536,0.0,45.0
1097,45.0,341,342,0.0,33.0
1098,72.0,0,2048,0.0,23.0
1099,44.0,171,341,0.0,30.0
1100,75.0,171,512,0.0,44.0
1101,56.0,341,0,0.0,30.0
1102,84.0,0,2048,0.0,37.0
1103,87.0,0,512,0.0,56.0
1104,37.0,0,341,0.0,35.0
1105,44.0,0,341,0.0,35.0
1106,76.0,0,0,0.0,38.0
1107,68.0,0,512,0.0,30.0
1108,88.0,0,512,0.0,56.0
1109,80.0,0,512,0.0,42.0
1110,45.0,341,342,0.0,33.0
1111,44.0,171,341,0.0,30.0
1112,85.0,0,512,0.0,52.0
1113,64.0,171,512,0.0,26.0
1114,73.0,0,512,0.0,40.0
1115,39.0,0,341,0.0,35.0
1116,47.0,0,341,0.0,35.0
1117,71.0,0,512,0.0,36.0
1118,83.0,341,512,0.0,52.0
1119,49.0,341,342,0.0,33.0
1120,73.0,0,512,0.0,40.0
1121,68.0,0,1024,0.0,24.0
1122,85.0,171,512,0.0,56.0
1123,80.0,0,1024,0.0,40.0
1124,59.0,0,1024,0.0,30.0
1125,47.0,171,341,0.0,30.0
1126,46.0,0,341,0.0,35.0
1127,39.0,0,341,0.0,35.0
1128,47.0,341,342,0.0,33.0
1129,46.0,342,341,0.0,30.0
1130,46.0,341,341,0.0,35.0
1131,39.0,0,341,0.0,35.0
1132,75.0,341,1536,0.0,39.0
1133,87.0,0,1536,0.0,53.0
1134,47.0,341,342,0.0,33.0
1135,70.0,0,512,0.0,41.0
1136,46.0,171,341,0.0,30.0
1137,58.0,0,2048,0.0,30.0
1138,82.0,171,512,0.0,53.0
1139,44.0,0,341,0.0,35.0
1140,84.0,0,512,0.0,49.0
1141,72.0,341,512,0.0,37.0
1142,45.0,341,342,0.0,33.0
1143,68.0,0,512,0.0,33.0
1144,80.0,171,512,0.0,45.0
1145,79.0,0,3072,0.0,39.0
1146,67.0,0,3072,0.0,25.0
1147,44.0,171,341,0.0,30.0
1148,56.0,0,1024,0.0,30.0
1149,49.0,341,683,0.0,24.0
1150,61.0,0,683,0.0,33.0
1151,42.0,0,1024,0.0,43.0
1152,49.0,342,341,0.0,16.0
1153,61.0,0,341,0.0,25.0
1154,30.0,0,1024,0.0,29.0
1155,69.0,0,1024,0.0,52.0
1156,57.0,0,1024,0.0,38.0
1157,56.0,0,191,0.0,34.0
1158,68.0,0,191,0.0,47.0
1159,32.0,0,191,0.0,25.0
1160,44.0,0,191,0.0,38.0
1161,63.0,0,1024,0.0,29.0
1162,51.0,341,1024,0.0,20.0
1163,54.0,0,192,0.0,32.0
1164,66.0,0,192,0.0,44.0
1165,33.0,0,192,0.0,23.0
1166,45.0,0,192,0.0,35.0
1167,49.0,0,0,0.0,16.0
1168,61.0,0,0,0.0,25.0
1169,57.0,0,191,0.0,30.0
1170,69.0,0,191,0.0,42.0
1171,30.0,342,191,0.0,21.0
1172,42.0,0,191,0.0,33.0
1173,61.0,341,0,0.0,33.0
1174,63.0,341,0,0.0,29.0
1175,51.0,0,0,0.0,20.0
1176,49.0,342,0,0.0,16.0
1177,56.0,0,1024,0.0,38.0
1178,49.0,341,0,0.0,14.0
1179,61.0,0,341,0.0,25.0
1180,44.0,0,1024,0.0,43.0
1181,32.0,0,1024,0.0,29.0
1182,68.0,0,1024,0.0,52.0
1183,63.0,0,0,0.0,29.0
1184,54.0,0,512,0.0,29.0
1185,66.0,0,512,0.0,43.0
1186,33.0,0,512,0.0,20.0
1187,45.0,0,512,0.0,34.0
1188,61.0,0,683,0.0,35.0
1189,51.0,341,683,0.0,20.0
1190,61.0,341,0,0.0,33.0
1191,49.0,0,0,0.0,24.0
1192,57.0,0,312,0.0,38.0
1193,69.0,0,312,0.0,52.0
1194,30.0,0,312,0.0,29.0
1195,42.0,0,312,0.0,43.0
1196,44.0,0,312,0.0,40.0
1197,32.0,0,312,0.0,27.0
1198,68.0,0,312,0.0,49.0
1199,56.0,171,312,0.0,36.0
1200,61.0,0,0,0.0,33.0
1201,49.0,0,0,0.0,24.0
1202,33.0,0,312,0.0,25.0
1203,45.0,0,312,0.0,38.0
1204,66.0,0,312,0.0,47.0
1205,54.0,341,312,0.0,34.0
1206,51.0,0,1024,0.0,20.0
1207,63.0,341,0,0.0,29.0
1208,61.0,171,0,0.0,25.0
1209,49.0,0,0,0.0,16.0
1210,57.0,0,312,0.0,36.0
1211,69.0,171,312,0.0,48.0
1212,30.0,0,312,0.0,27.0
1213,42.0,0,312,0.0,39.0
1214,61.0,0,0,0.0,33.0
1215,49.0,0,0,0.0,24.0
1216,51.0,0,1024,0.0,20.0
1217,49.0,342,341,0.0,16.0
1218,61.0,0,341,0.0,25.0
1219,68.0,0,1024,0.0,49.0
1220,44.0,341,1024,0.0,36.0
1221,32.0,0,1024,0.0,22.0
1222,56.0,0,1024,0.0,35.0
1223,51.0,341,1024,0.0,20.0
1224,63.0,0,0,0.0,29.0
1225,45.0,0,512,0.0,27.0
1226,54.0,0,512,0.0,26.0
1227,66.0,0,512,0.0,40.0
1228,33.0,0,512,0.0,13.0
1229,61.0,0,683,0.0,35.0
1230,49.0,342,0,0.0,16.0
1231,51.0,341,683,0.0,20.0
1232,61.0,341,0,0.0,38.0
1233,49.0,0,0,0.0,26.0
1234,51.0,341,362,0.0,28.0
1235,63.0,0,362,0.0,41.0
1236,61.0,0,361,0.0,38.0
1237,49.0,342,361,0.0,25.0
1238,56.0,0,362,0.0,35.0
1239,68.0,341,362,0.0,50.0
1240,44.0,0,2048,0.0,20.0
1241,53.0,0,1024,0.0,33.0
1242,65.0,341,1024,0.0,47.0
1243,32.0,0,2048,0.0,33.0
1244,61.0,342,361,0.0,34.0
1245,73.0,0,361,0.0,50.0
1246,63.0,0,362,0.0,38.0
1247,75.0,341,362,0.0,53.0
1248,80.0,341,0,0.0,44.0
1249,68.0,0,0,0.0,31.0
1250,60.0,0,1024,0.0,31.0
1251,72.0,0,1024,0.0,48.0
1252,66.0,0,2048,0.0,34.0
1253,56.0,0,2048,0.0,25.0
1254,49.0,0,361,0.0,26.0
1255,61.0,0,361,0.0,38.0
1256,51.0,341,362,0.0,28.0
1257,63.0,0,362,0.0,41.0
1258,61.0,342,361,0.0,38.0
1259,49.0,0,361,0.0,25.0
1260,56.0,341,362,0.0,35.0
1261,68.0,0,362,0.0,50.0
1262,65.0,0,1024,0.0,47.0
1263,53.0,341,1024,0.0,33.0
1264,44.0,0,2048,0.0,11.0
1265,32.0,1024,2048,0.0,24.0
1266,73.0,0,361,0.0,50.0
1267,61.0,342,361,0.0,34.0
1268,75.0,341,362,0.0,53.0
1269,63.0,0,362,0.0,38.0
1270,60.0,0,1024,0.0,31.0
1271,80.0,0,0,0.0,44.0
1272,72.0,341,1024,0.0,48.0
1273,68.0,341,0,0.0,31.0
1274,66.0,0,2048,0.0,25.0
1275,56.0,0,2048,0.0,16.0
1276,50.0,0,683,0.0,24.0
1277,62.0,342,0,0.0,25.0
1278,59.0,0,1024,0.0,38.0
1279,71.0,1024,1024,0.0,52.0
1280,62.0,0,0,0.0,33.0
1281,50.0,0,0,0.0,24.0
1282,44.0,0,1024,0.0,43.0
1283,32.0,0,1024,0.0,29.0
1284,69.0,0,191,0.0,47.0
1285,33.0,341,191,0.0,25.0
1286,45.0,0,191,0.0,38.0
1287,57.0,0,191,0.0,34.0
1288,64.0,341,1024,0.0,29.0
1289,52.0,0,1024,0.0,20.0
1290,68.0,0,192,0.0,44.0
1291,56.0,0,192,0.0,32.0
1292,47.0,0,192,0.0,35.0
1293,35.0,0,192,0.0,23.0
1294,44.0,0,191,0.0,33.0
1295,59.0,342,191,0.0,30.0
1296,71.0,0,191,0.0,47.0
1297,32.0,0,191,0.0,21.0
1298,62.0,0,341,0.0,25.0
1299,50.0,341,0,0.0,24.0
1300,65.0,0,0,0.0,44.0
1301,64.0,0,0,0.0,29.0
1302,52.0,341,0,0.0,20.0
1303,50.0,0,0,0.0,16.0
1304,62.0,342,0,0.0,25.0
1305,57.0,0,1024,0.0,38.0
1306,69.0,0,1024,0.0,52.0
1307,33.0,0,1024,0.0,29.0
1308,45.0,0,1024,0.0,43.0
1309,50.0,341,0,0.0,14.0
1310,68.0,0,512,0.0,43.0
1311,35.0,0,512,0.0,20.0
1312,56.0,0,512,0.0,29.0
1313,47.0,0,512,0.0,34.0
1314,50.0,342,0,0.0,16.0
1315,62.0,0,683,0.0,35.0
1316,64.0,0,683,0.0,29.0
1317,62.0,341,0,0.0,33.0
1318,52.0,341,683,0.0,20.0
1319,50.0,0,0,0.0,24.0
1320,59.0,0,312,0.0,38.0
1321,71.0,0,312,0.0,52.0
1322,32.0,0,312,0.0,29.0
1323,44.0,0,312,0.0,43.0
1324,62.0,171,0,0.0,25.0
1325,50.0,0,0,0.0,16.0
1326,45.0,171,312,0.0,40.0
1327,57.0,0,312,0.0,36.0
1328,69.0,0,312,0.0,49.0
1329,33.0,0,312,0.0,27.0
1330,62.0,341,0,0.0,33.0
1331,47.0,0,312,0.0,38.0
1332,56.0,0,312,0.0,34.0
1333,68.0,0,312,0.0,47.0
1334,35.0,0,312,0.0,25.0
1335,52.0,341,1024,0.0,20.0
1336,64.0,0,1024,0.0,29.0
1337,50.0,171,0,0.0,16.0
1338,71.0,0,312,0.0,48.0
1339,44.0,0,312,0.0,39.0
1340,32.0,0,312,0.0,27.0
1341,59.0,171,312,0.0,36.0
1342,65.0,0,0,0.0,31.0
1343,50.0,0,0,0.0,24.0
1344,62.0,0,341,0.0,25.0
1345,52.0,341,1024,0.0,20.0
1346,64.0,0,1024,0.0,29.0
1347,62.0,342,0,0.0,25.0
1348,45.0,0,1024,0.0,34.0
1349,33.0,0,1024,0.0,20.0
1350,69.0,341,1024,0.0,43.0
1351,57.0,0,1024,0.0,29.0
1352,50.0,0,341,0.0,16.0
1353,64.0,0,1024,0.0,29.0
1354,52.0,341,0,0.0,20.0
1355,56.0,0,512,0.0,20.0
1356,47.0,0,512,0.0,25.0
1357,68.0,341,512,0.0,34.0
1358,35.0,0,512,0.0,11.0
1359,62.0,342,0,0.0,25.0
1360,50.0,0,0,0.0,16.0
1361,64.0,0,683,0.0,29.0
1362,62.0,0,361,0.0,38.0
1363,50.0,0,361,0.0,26.0
1364,52.0,0,362,0.0,28.0
1365,64.0,341,362,0.0,41.0
1366,62.0,0,361,0.0,38.0
1367,50.0,342,361,0.0,25.0
1368,57.0,341,362,0.0,35.0
1369,69.0,0,362,0.0,50.0
1370,66.0,341,1024,0.0,47.0
1371,33.0,341,2048,0.0,33.0
1372,45.0,0,2048,0.0,20.0
1373,54.0,0,1024,0.0,33.0
1374,74.0,0,361,0.0,50.0
1375,62.0,342,361,0.0,34.0
1376,76.0,0,362,0.0,53.0
1377,64.0,341,362,0.0,38.0
1378,81.0,0,341,0.0,49.0
1379,61.0,0,1024,0.0,31.0
1380,69.0,341,0,0.0,31.0
1381,73.0,341,1024,0.0,48.0
1382,81.0,0,341,0.0,44.0
1383,52.0,0,2048,0.0,25.0
1384,45.0,0,2048,0.0,25.0
1385,57.0,0,0,0.0,23.0
1386,50.0,1024,361,0.0,26.0
1387,62.0,0,361,0.0,38.0
1388,52.0,341,362,0.0,28.0
1389,64.0,0,362,0.0,41.0
1390,62.0,0,361,0.0,38.0
1391,50.0,342,361,0.0,25.0
1392,57.0,341,362,0.0,35.0
1393,69.0,0,362,0.0,50.0
1394,66.0,341,1024,0.0,47.0
1395,54.0,0,1024,0.0,33.0
1396,45.0,0,2048,0.0,15.0
1397,33.0,0,2048,0.0,28.0
1398,74.0,0,361,0.0,50.0
1399,62.0,342,361,0.0,34.0
1400,64.0,0,362,0.0,38.0
1401,76.0,341,362,0.0,53.0
1402,81.0,0,341,0.0,49.0
1403,61.0,0,1024,0.0,27.0
1404,69.0,341,0,0.0,31.0
1405,73.0,0,1024,0.0,48.0
1406,81.0,0,341,0.0,44.0
1407,57.0,0,1536,0.0,27.0
1408,68.0,512,256,0.0,47.0
1409,80.0,0,256,0.0,59.0
1410,45.0,0,2048,0.0,20.0
1411,52.0,0,2048,0.0,20.0
1412,37.0,0,341,0.0,35.0
1413,44.0,0,341,0.0,35.0
1414,56.0,0,512,0.0,42.0
1415,68.0,512,512,0.0,51.0
1416,45.0,341,342,0.0,33.0
1417,69.0,0,262,0.0,48.0
1418,57.0,171,262,0.0,39.0
1419,44.0,171,341,0.0,30.0
1420,76.0,0,0,0.0,48.0
1421,85.0,0,1024,0.0,41.0
1422,88.0,0,1024,0.0,55.0
1423,68.0,341,256,0.0,45.0
1424,56.0,0,256,0.0,36.0
1425,37.0,0,341,0.0,35.0
1426,44.0,0,341,0.0,35.0
1427,73.0,0,512,0.0,34.0
1428,45.0,341,342,0.0,33.0
1429,44.0,0,0,0.0,35.0
1430,76.0,85,256,0.0,51.0
1431,64.0,0,0,0.0,51.0
1432,37.0,0,341,0.0,35.0
1433,52.0,0,512,0.0,42.0
1434,45.0,341,342,0.0,33.0
1435,66.0,171,262,0.0,48.0
1436,54.0,0,262,0.0,39.0
1437,80.0,256,1024,0.0,55.0
1438,44.0,171,341,0.0,30.0
1439,68.0,0,0,0.0,48.0
1440,73.0,0,1024,0.0,41.0
1441,64.0,0,256,0.0,34.0
1442,52.0,0,256,0.0,36.0
1443,44.0,0,341,0.0,35.0
1444,37.0,0,341,0.0,35.0
1445,61.0,0,512,0.0,34.0
1446,45.0,341,342,0.0,33.0
1447,44.0,342,341,0.0,30.0
1448,61.0,0,256,0.0,42.0
1449,73.0,0,0,0.0,39.0
1450,37.0,0,341,0.0,35.0
1451,45.0,0,341,0.0,35.0
1452,49.0,256,512,0.0,45.0
1453,76.0,0,512,0.0,50.0
1454,61.0,0,512,0.0,62.0
1455,47.0,341,342,0.0,33.0
1456,45.0,341,0,0.0,35.0
1457,64.0,0,512,0.0,53.0
1458,73.0,0,512,0.0,48.0
1459,69.0,0,0,0.0,53.0
1460,52.0,171,512,0.0,43.0
1461,37.0,0,341,0.0,35.0
1462,57.0,0,512,0.0,45.0
1463,64.0,0,0,0.0,52.0
1464,47.0,341,342,0.0,33.0
1465,61.0,341,0,0.0,51.0
1466,73.0,0,512,0.0,58.0
1467,45.0,0,0,0.0,35.0
1468,37.0,0,341,0.0,35.0
1469,64.0,0,512,0.0,48.0
1470,76.0,0,512,0.0,60.0
1471,47.0,341,342,0.0,33.0
1472,45.0,171,341,0.0,30.0
1473,66.0,171,512,0.0,52.0
1474,57.0,0,1024,0.0,41.0
1475,78.0,0,512,0.0,64.0
1476,37.0,0,341,0.0,35.0
1477,44.0,0,341,0.0,35.0
1478,80.0,0,512,0.0,67.0
1479,68.0,0,512,0.0,55.0
1480,45.0,341,342,0.0,33.0
1481,60.0,341,1024,0.0,42.0
1482,66.0,0,512,0.0,50.0
1483,78.0,171,512,0.0,62.0
1484,44.0,171,341,0.0,30.0
1485,56.0,0,1024,0.0,38.0
1486,37.0,0,341,0.0,35.0
1487,45.0,0,341,0.0,35.0
1488,76.0,0,562,0.0,64.0
1489,64.0,341,562,0.0,50.0
1490,47.0,341,342,0.0,33.0
1491,66.0,221,462,0.0,48.0
1492,78.0,0,462,0.0,62.0
1493,61.0,0,1024,0.0,50.0
1494,57.0,0,1024,0.0,44.0
1495,45.0,121,341,0.0,30.0
1496,44.0,0,341,0.0,35.0
1497,37.0,0,341,0.0,35.0
1498,45.0,341,342,0.0,33.0
1499,44.0,341,0,0.0,35.0
1500,37.0,0,341,0.0,35.0
1501,80.0,0,1536,0.0,58.0
1502,68.0,341,1536,0.0,44.0
1503,45.0,341,342,0.0,33.0
1504,63.0,171,512,0.0,48.0
1505,75.0,0,512,0.0,61.0
1506,44.0,171,341,0.0,30.0
1507,56.0,0,0,0.0,28.0
1508,60.0,0,2048,0.0,44.0
1509,37.0,0,341,0.0,35.0
1510,76.0,0,512,0.0,63.0
1511,64.0,0,512,0.0,49.0
1512,39.0,341,342,0.0,33.0
1513,61.0,0,1024,0.0,36.0
1514,56.0,341,0,0.0,29.0
1515,52.0,0,1024,0.0,28.0
1516,73.0,0,1024,0.0,48.0
1517,66.0,171,512,0.0,51.0
1518,78.0,0,512,0.0,65.0
1519,37.0,171,341,0.0,30.0
1520,68.0,0,0,0.0,52.0
1521,35.0,0,341,0.0,44.0
1522,80.0,0,552,0.0,67.0
1523,37.0,341,342,0.0,42.0
1524,69.0,211,472,0.0,54.0
1525,81.0,0,472,0.0,68.0
1526,35.0,131,341,0.0,39.0
1527,71.0,0,1024,0.0,36.0
1528,76.0,0,1024,0.0,48.0
1529,59.0,0,0,0.0,29.0
1530,64.0,0,1024,0.0,37.0
1531,35.0,0,341,0.0,44.0
1532,71.0,0,472,0.0,55.0
1533,83.0,40,472,0.0,70.0
1534,37.0,301,342,0.0,42.0
1535,66.0,0,1024,0.0,36.0
1536,81.0,0,472,0.0,64.0
1537,63.0,341,1024,0.0,38.0
1538,69.0,211,472,0.0,50.0
1539,54.0,0,1024,0.0,29.0
1540,59.0,0,0,0.0,30.0
1541,35.0,0,0,0.0,44.0
1542,75.0,0,1024,0.0,48.0
1543,80.0,0,512,0.0,64.0
1544,68.0,0,512,0.0,50.0
1545,37.0,341,342,0.0,42.0
1546,56.0,0,1024,0.0,30.0
1547,76.0,0,1024,0.0,48.0
1548,64.0,341,1024,0.0,39.0
1549,59.0,0,0,0.0,31.0
1550,35.0,0,0,0.0,44.0
1551,81.0,171,512,0.0,65.0
1552,69.0,0,512,0.0,51.0
1553,37.0,341,342,0.0,42.0
1554,35.0,341,0,0.0,44.0
1555,71.0,0,1024,0.0,51.0
1556,63.0,0,1536,0.0,40.0
1557,54.0,0,1536,0.0,31.0
1558,75.0,0,1536,0.0,48.0
1559,66.0,171,0,0.0,42.0
1560,83.0,0,1536,0.0,65.0
1561,37.0,341,342,0.0,42.0
1562,75.0,0,512,0.0,55.0
1563,35.0,171,341,0.0,39.0
1564,78.0,0,512,0.0,55.0
1565,40.0,0,341,0.0,44.0
1566,76.0,341,512,0.0,47.0
1567,80.0,0,512,0.0,58.0
1568,68.0,0,512,0.0,44.0
1569,47.0,341,342,0.0,42.0
1570,83.0,0,512,0.0,61.0
1571,71.0,0,512,0.0,47.0
1572,59.0,0,1024,0.0,42.0
1573,52.0,0,0,0.0,34.0
1574,64.0,171,512,0.0,40.0
1575,40.0,171,341,0.0,39.0
1576,56.0,0,1024,0.0,33.0
1577,33.0,341,341,0.0,44.0
1578,85.0,0,512,0.0,64.0
1579,73.0,0,512,0.0,49.0
1580,45.0,0,342,0.0,46.0
1581,64.0,341,342,0.0,42.0
1582,88.0,0,512,0.0,67.0
1583,61.0,0,1024,0.0,43.0
1584,57.0,0,1024,0.0,34.0
1585,76.0,171,512,0.0,51.0
1586,33.0,0,341,0.0,48.0
1587,73.0,171,341,0.0,48.0
1588,74.0,0,341,0.0,53.0
1589,89.0,0,512,0.0,70.0
1590,77.0,0,512,0.0,54.0
1591,71.0,341,342,0.0,48.0
1592,44.0,171,0,0.0,52.0
1593,32.0,0,683,0.0,54.0
1594,59.0,0,341,0.0,42.0
1595,62.0,0,1024,0.0,44.0
1596,74.0,171,512,0.0,52.0
1597,86.0,0,512,0.0,66.0
1598,52.0,341,0,0.0,36.0
1599,73.0,0,512,0.0,50.0
1600,85.0,0,512,0.0,65.0
1601,64.0,341,342,0.0,42.0
1602,33.0,171,0,0.0,47.0
1603,73.0,0,341,0.0,48.0
1604,45.0,0,683,0.0,50.0
1605,88.0,171,512,0.0,69.0
1606,57.0,0,1024,0.0,36.0
1607,61.0,0,1024,0.0,45.0
1608,76.0,0,512,0.0,52.0
1609,74.0,341,341,0.0,53.0
1610,89.0,0,512,0.0,72.0
1611,77.0,0,512,0.0,55.0
1612,71.0,0,342,0.0,48.0
1613,44.0,0,683,0.0,52.0
1614,74.0,0,512,0.0,55.0
1615,44.0,0,341,0.0,53.0
1616,59.0,171,341,0.0,42.0
1617,86.0,171,512,0.0,69.0
1618,52.0,0,0,0.0,37.0
1619,62.0,0,1024,0.0,46.0
1620,32.0,341,683,0.0,55.0
1621,73.0,0,512,0.0,52.0
1622,85.0,0,512,0.0,67.0
1623,64.0,0,342,0.0,42.0
1624,33.0,0,683,0.0,58.0
1625,57.0,0,0,0.0,38.0
1626,52.0,341,0,0.0,38.0
1627,90.0,171,512,0.0,72.0
1628,78.0,0,512,0.0,54.0
1629,61.0,0,0,0.0,48.0
1630,33.0,0,341,0.0,51.0
1631,45.0,341,683,0.0,51.0
1632,73.0,171,341,0.0,48.0
1633,76.0,0,341,0.0,53.0
1634,91.0,0,512,0.0,75.0
1635,79.0,0,512,0.0,58.0
1636,73.0,341,342,0.0,48.0
1637,40.0,0,683,0.0,51.0
1638,88.0,0,512,0.0,68.0
1639,76.0,171,512,0.0,53.0
1640,61.0,0,0,0.0,44.0
1641,28.0,0,683,0.0,51.0
1642,40.0,0,341,0.0,48.0
1643,33.0,342,0,0.0,47.0
1644,64.0,0,342,0.0,42.0
1645,73.0,0,341,0.0,48.0
1646,45.0,341,683,0.0,50.0
1647,85.0,341,1024,0.0,67.0
1648,76.0,0,341,0.0,53.0
1649,40.0,342,0,0.0,50.0
1650,73.0,341,342,0.0,48.0
1651,80.0,0,1024,0.0,62.0
1652,28.0,0,683,0.0,52.0
1653,56.0,0,1024,0.0,38.0
1654,52.0,0,1024,0.0,38.0
1655,92.0,0,1024,0.0,74.0
1656,64.0,0,341,0.0,42.0
1657,78.0,0,341,0.0,44.0
1658,73.0,0,342,0.0,42.0
1659,27.0,0,683,0.0,59.0
1660,81.0,0,1024,0.0,67.0
1661,93.0,341,1024,0.0,79.0
1662,51.0,0,1024,0.0,40.0
1663,54.0,0,1024,0.0,40.0
1664,61.0,0,0,0.0,48.0
1665,66.0,342,341,0.0,48.0
1666,39.0,341,683,0.0,57.0
1667,27.0,0,341,0.0,55.0
1668,73.0,0,341,0.0,53.0
1669,66.0,341,342,0.0,48.0
1670,42.0,0,683,0.0,54.0
1671,57.0,341,1024,0.0,36.0
1672,61.0,342,341,0.0,42.0
1673,90.0,0,1024,0.0,71.0
1674,54.0,0,1024,0.0,36.0
1675,78.0,0,1024,0.0,59.0
1676,42.0,0,341,0.0,48.0
1677,30.0,0,683,0.0,52.0
1678,61.0,0,0,0.0,43.0
1679,32.0,0,341,0.0,52.0
1680,73.0,0,512,0.0,40.0
1681,44.0,341,342,0.0,50.0
1682,56.0,0,1024,0.0,32.0
1683,32.0,171,341,0.0,45.0
1684,61.0,171,512,0.0,39.0
1685,45.0,0,341,0.0,49.0
1686,64.0,0,512,0.0,38.0
1687,33.0,341,342,0.0,47.0
1688,61.0,171,512,0.0,37.0
1689,76.0,341,2048,0.0,55.0
1690,57.0,341,0,0.0,28.0
1691,61.0,0,0,0.0,37.0
1692,45.0,171,341,0.0,43.0
1693,88.0,0,2048,0.0,67.0
1694,30.0,0,341,0.0,46.0
1695,69.0,0,512,0.0,36.0
1696,42.0,341,342,0.0,43.0
1697,61.0,171,512,0.0,35.0
1698,54.0,0,1024,0.0,28.0
1699,30.0,171,341,0.0,40.0
1700,44.0,0,341,0.0,43.0
1701,75.0,0,1536,0.0,48.0
1702,87.0,0,1536,0.0,60.0
1703,68.0,341,512,0.0,34.0
1704,32.0,341,342,0.0,41.0
1705,60.0,171,512,0.0,33.0
1706,44.0,171,341,0.0,37.0
1707,73.0,0,512,0.0,43.0
1708,85.0,0,512,0.0,55.0
1709,56.0,0,1024,0.0,16.0
1710,29.0,341,341,0.0,38.0
1711,49.0,171,0,0.0,33.0
1712,41.0,341,342,0.0,36.0
1713,73.0,0,1024,0.0,40.0
1714,61.0,0,1024,0.0,25.0
1715,29.0,171,341,0.0,33.0
1716,85.0,0,1024,0.0,52.0
1717,49.0,0,0,0.0,32.0
1718,41.0,0,341,0.0,39.0
1719,29.0,341,342,0.0,38.0
1720,59.0,0,1024,0.0,36.0
1721,49.0,0,0,0.0,31.0
1722,68.0,341,1024,0.0,50.0
1723,80.0,0,1024,0.0,62.0
1724,41.0,171,341,0.0,34.0
1725,30.0,0,341,0.0,41.0
1726,49.0,171,0,0.0,31.0
1727,42.0,341,342,0.0,38.0
1728,81.0,0,1024,0.0,60.0
1729,69.0,0,1024,0.0,48.0
1730,30.0,171,341,0.0,34.0
1731,57.0,341,1024,0.0,42.0
1732,45.0,0,341,0.0,30.0
1733,33.0,341,342,0.0,36.0
1734,45.0,171,341,0.0,52.0
1735,61.0,0,1024,0.0,39.0
1736,54.0,0,1024,0.0,33.0
1737,66.0,0,1024,0.0,40.0
1738,78.0,0,1024,0.0,52.0
1739,32.0,0,341,0.0,37.0
1740,44.0,171,0,0.0,29.0
1741,32.0,171,341,0.0,31.0
1742,44.0,341,0,0.0,35.0
1743,44.0,0,341,0.0,29.0
1744,32.0,341,342,0.0,33.0
1745,64.0,0,2048,0.0,43.0
1746,76.0,341,2048,0.0,55.0
1747,44.0,171,341,0.0,29.0
1748,56.0,0,2048,0.0,32.0
1749,61.0,0,2048,0.0,38.0
1750,32.0,0,341,0.0,33.0
1751,44.0,341,171,0.0,30.0
1752,32.0,342,341,0.0,27.0
1753,37.0,0,341,0.0,27.0
1754,75.0,0,1536,0.0,48.0
1755,63.0,341,1536,0.0,36.0
1756,60.0,0,1536,0.0,36.0
1757,25.0,341,342,0.0,29.0
1758,37.0,171,341,0.0,25.0
1759,73.0,171,512,0.0,43.0
1760,61.0,0,512,0.0,27.0
1761,56.0,0,2048,0.0,29.0
1762,73.0,341,1024,0.0,52.0
1763,61.0,256,768,0.0,33.0
1764,65.0,256,512,0.0,37.0
1765,68.0,256,276,0.0,40.0
1766,74.0,0,191,0.0,53.0
1767,73.0,85,192,0.0,51.0
1768,66.0,85,0,0.0,33.0
1769,76.0,171,191,0.0,49.0
1770,69.0,256,276,0.0,33.0
1771,68.0,256,276,0.0,36.0
1772,69.0,256,276,0.0,39.0
1773,59.0,171,1536,0.0,37.0
1774,74.0,0,1024,0.0,51.0
1775,71.0,256,276,0.0,41.0
1776,73.0,0,512,0.0,48.0
1777,65.0,256,276,0.0,35.0
1778,61.0,256,276,0.0,32.0
1779,68.0,0,1044,0.0,37.0
1780,65.0,256,276,0.0,28.0
1781,74.0,256,312,0.0,48.0
1782,73.0,256,312,0.0,51.0
1783,61.0,256,768,0.0,33.0
1784,65.0,0,512,0.0,37.0
1785,68.0,256,276,0.0,40.0
1786,74.0,0,312,0.0,53.0
1787,66.0,256,512,0.0,40.0
1788,76.0,256,312,0.0,55.0
1789,69.0,256,276,0.0,33.0
1790,68.0,256,276,0.0,36.0
1791,69.0,256,276,0.0,39.0
1792,74.0,0,1024,0.0,52.0
1793,66.0,256,1280,0.0,33.0
1794,59.0,0,1536,0.0,37.0
1795,71.0,256,276,0.0,41.0
1796,73.0,256,512,0.0,48.0
1797,65.0,256,276,0.0,35.0
1798,61.0,256,276,0.0,32.0
1799,65.0,256,276,0.0,28.0
1800,68.0,0,1044,0.0,37.0
1801,73.0,0,171,0.0,27.0
1802,61.0,0,0,0.0,21.0
1803,65.0,342,0,0.0,21.0
1804,73.0,0,0,0.0,30.0
1805,73.0,0,0,0.0,32.0
1806,65.0,0,0,0.0,23.0
1807,61.0,0,0,0.0,23.0
1808,37.0,256,1044,0.0,33.0
1809,49.0,0,1044,0.0,40.0
1810,65.0,341,0,0.0,26.0
1811,61.0,0,0,0.0,26.0
1812,65.0,342,0,0.0,28.0
1813,73.0,0,342,0.0,35.0
1814,73.0,0,0,0.0,61.0
1815,61.0,0,0,0.0,42.0
1816,44.0,341,1044,0.0,39.0
1817,56.0,0,1044,0.0,46.0
1818,73.0,342,0,0.0,36.0
1819,66.0,0,0,0.0,27.0
1820,61.0,0,0,0.0,27.0
1821,57.0,0,1044,0.0,51.0
1822,45.0,341,1044,0.0,44.0
1823,61.0,0,20,0.0,26.0
1824,69.0,0,0,0.0,32.0
1825,61.0,342,0,0.0,23.0
1826,54.0,0,1044,0.0,46.0
1827,81.0,0,1044,0.0,60.0
1828,42.0,0,1044,0.0,39.0
1829,61.0,341,342,0.0,22.0
1830,68.0,0,342,0.0,30.0
1831,61.0,342,341,0.0,21.0
1832,68.0,0,341,0.0,29.0
1833,73.0,0,1044,0.0,54.0
1834,85.0,0,1044,0.0,67.0
1835,53.0,341,1044,0.0,41.0
1836,41.0,0,1044,0.0,35.0
1837,65.0,0,341,0.0,28.0
1838,61.0,341,0,0.0,19.0
1839,65.0,342,0,0.0,25.0
1840,61.0,0,0,0.0,17.0
1841,68.0,0,20,0.0,24.0
1842,80.0,0,1044,0.0,60.0
1843,49.0,0,1044,0.0,35.0
1844,37.0,0,1044,0.0,30.0
1845,68.0,341,0,0.0,23.0
1846,63.0,0,0,0.0,16.0
1847,61.0,0,0,0.0,16.0
1848,68.0,342,0,0.0,22.0
1849,63.0,0,0,0.0,15.0
1850,61.0,0,0,0.0,15.0
1851,66.0,0,1044,0.0,44.0
1852,78.0,0,1044,0.0,54.0
1853,60.0,0,341,0.0,14.0
1854,68.0,0,0,0.0,19.0
1855,60.0,341,342,0.0,13.0
1856,63.0,0,342,0.0,13.0
1857,60.0,0,341,0.0,12.0
1858,63.0,342,341,0.0,12.0
1859,68.0,0,341,0.0,18.0
1860,44.0,341,2068,0.0,30.0
1861,75.0,0,1044,0.0,47.0
1862,32.0,0,2068,0.0,26.0
1863,73.0,256,512,0.0,37.0
1864,69.0,256,768,0.0,33.0
1865,76.0,256,256,0.0,40.0
1866,61.0,341,1024,0.0,52.0
1867,62.0,0,191,0.0,53.0
1868,61.0,85,192,0.0,51.0
1869,71.0,256,512,0.0,40.0
1870,64.0,171,191,0.0,49.0
1871,77.0,256,1024,0.0,42.0
1872,77.0,0,256,0.0,33.0
1873,76.0,256,256,0.0,36.0
1874,77.0,256,256,0.0,39.0
1875,79.0,256,256,0.0,41.0
1876,71.0,85,1280,0.0,33.0
1877,68.0,171,1536,0.0,37.0
1878,62.0,256,1024,0.0,51.0
1879,61.0,0,512,0.0,48.0
1880,73.0,256,512,0.0,40.0
1881,69.0,256,512,0.0,37.0
1882,73.0,256,256,0.0,33.0
1883,76.0,256,1024,0.0,42.0
1884,62.0,256,312,0.0,48.0
1885,61.0,0,312,0.0,51.0
1886,69.0,256,768,0.0,33.0
1887,76.0,256,256,0.0,40.0
1888,73.0,256,512,0.0,37.0
1889,62.0,0,312,0.0,53.0
1890,71.0,256,512,0.0,40.0
1891,64.0,0,312,0.0,51.0
1892,77.0,0,1024,0.0,42.0
1893,77.0,0,256,0.0,33.0
1894,76.0,256,256,0.0,36.0
1895,77.0,256,256,0.0,39.0
1896,62.0,256,1024,0.0,52.0
1897,79.0,256,256,0.0,41.0
1898,71.0,256,1280,0.0,33.0
1899,68.0,256,1536,0.0,37.0
1900,61.0,0,512,0.0,41.0
1901,73.0,256,512,0.0,40.0
1902,69.0,256,512,0.0,37.0
1903,73.0,256,256,0.0,33.0
1904,76.0,0,1024,0.0,42.0
1905,73.0,256,0,0.0,55.0
1906,76.0,0,512,0.0,33.0
1907,61.0,342,0,0.0,29.0
1908,49.0,0,0,0.0,20.0
1909,49.0,0,341,0.0,22.0
1910,61.0,0,341,0.0,31.0
1911,61.0,342,0,0.0,34.0
1912,49.0,0,0,0.0,25.0
1913,52.0,0,2048,0.0,38.0
1914,67.0,341,1044,0.0,43.0
1915,79.0,0,1044,0.0,55.0
1916,33.0,0,2068,0.0,33.0
1917,45.0,0,2068,0.0,24.0
1918,61.0,342,0,0.0,34.0
1919,49.0,0,0,0.0,25.0
1920,61.0,0,0,0.0,34.0
1921,49.0,0,0,0.0,25.0
1922,68.0,341,1024,0.0,47.0
1923,80.0,0,1044,0.0,59.0
1924,61.0,341,0,0.0,33.0
1925,49.0,0,0,0.0,24.0
1926,49.0,342,0,0.0,23.0
1927,68.0,0,1024,0.0,51.0
1928,61.0,0,341,0.0,32.0
1929,53.0,0,2048,0.0,40.0
1930,44.0,0,2068,0.0,28.0
1931,32.0,0,2068,0.0,37.0
1932,65.0,341,1044,0.0,31.0
1933,77.0,0,1044,0.0,43.0
1934,49.0,341,342,0.0,21.0
1935,61.0,342,0,0.0,29.0
1936,49.0,341,0,0.0,20.0
1937,61.0,0,0,0.0,29.0
1938,70.0,0,20,0.0,47.0
1939,73.0,341,1044,0.0,44.0
1940,61.0,0,0,0.0,28.0
1941,49.0,341,342,0.0,19.0
1942,49.0,0,341,0.0,18.0
1943,61.0,342,341,0.0,27.0
1944,58.0,0,2048,0.0,43.0
1945,66.0,0,1044,0.0,52.0
1946,30.0,0,2068,0.0,40.0
1947,42.0,0,2068,0.0,31.0
1948,82.0,0,1044,0.0,59.0
1949,49.0,0,0,0.0,15.0
1950,61.0,342,0,0.0,24.0
1951,61.0,0,0,0.0,24.0
1952,49.0,341,0,0.0,15.0
1953,73.0,341,1024,0.0,48.0
1954,85.0,0,1044,0.0,60.0
1955,61.0,341,0,0.0,23.0
1956,49.0,0,0,0.0,14.0
1957,49.0,0,341,0.0,13.0
1958,68.0,0,1024,0.0,37.0
1959,61.0,342,341,0.0,22.0
1960,56.0,0,2048,0.0,38.0
1961,73.0,0,1044,0.0,52.0
1962,29.0,0,2068,0.0,33.0
1963,41.0,0,2068,0.0,24.0
1964,68.0,256,256,0.0,28.0
1965,72.0,256,256,0.0,32.0
1966,56.0,0,256,0.0,33.0
1967,44.0,0,0,0.0,40.0
1968,32.0,341,1024,0.0,31.0
1969,73.0,0,256,0.0,35.0
1970,58.0,256,256,0.0,33.0
1971,75.0,256,256,0.0,39.0
1972,78.0,0,1365,0.0,60.0
1973,72.0,256,256,0.0,36.0
1974,77.0,85,362,0.0,59.0
1975,68.0,171,256,0.0,33.0
1976,60.0,0,1024,0.0,33.0
1977,56.0,0,1024,0.0,24.0
1978,72.0,85,256,0.0,31.0
1979,80.0,171,361,0.0,59.0
1980,75.0,0,256,0.0,28.0
1981,74.0,256,256,0.0,31.0
1982,59.0,0,256,0.0,33.0
1983,75.0,256,256,0.0,34.0
1984,60.0,0,256,0.0,33.0
1985,61.0,0,256,0.0,33.0
1986,44.0,0,0,0.0,40.0
1987,56.0,0,0,0.0,24.0
1988,77.0,256,256,0.0,36.0
1989,75.0,0,256,0.0,39.0
1990,72.0,256,256,0.0,35.0
1991,78.0,256,1556,0.0,62.0
1992,68.0,0,256,0.0,32.0
1993,77.0,256,512,0.0,59.0
1994,44.0,0,0,0.0,22.0
1995,72.0,256,256,0.0,28.0
1996,80.0,0,0,0.0,58.0
1997,60.0,256,1024,0.0,33.0
1998,75.0,0,256,0.0,28.0
1999,68.0,256,256,0.0,28.0
2000,72.0,0,256,0.0,32.0
2001,56.0,0,256,0.0,33.0
2002,75.0,0,256,0.0,35.0
2003,32.0,0,1024,0.0,31.0
2004,60.0,256,256,0.0,33.0
2005,78.0,0,20,0.0,39.0
2006,75.0,256,256,0.0,35.0
2007,68.0,256,256,0.0,32.0
2008,75.0,256,256,0.0,28.0
2009,63.0,256,1024,0.0,33.0
2010,56.0,0,1024,0.0,24.0
2011,73.0,0,532,0.0,57.0
2012,78.0,256,256,0.0,28.0
2013,62.0,0,256,0.0,33.0
2014,77.0,256,256,0.0,31.0
2015,72.0,0,532,0.0,54.0
2016,78.0,0,256,0.0,34.0
2017,63.0,0,256,0.0,33.0
2018,80.0,256,256,0.0,36.0
2019,44.0,0,2048,0.0,40.0
2020,60.0,0,256,0.0,33.0
2021,75.0,256,532,0.0,57.0
2022,61.0,256,512,0.0,33.0
2023,80.0,256,256,0.0,35.0
2024,77.0,0,532,0.0,59.0
2025,75.0,256,256,0.0,32.0
2026,44.0,0,1024,0.0,40.0
2027,80.0,256,256,0.0,28.0
2028,60.0,0,512,0.0,33.0
2029,56.0,0,1024,0.0,31.0
2030,78.0,0,532,0.0,62.0
2031,77.0,0,256,0.0,30.0
2032,73.0,256,256,0.0,32.0
2033,61.0,256,256,0.0,26.0
2034,77.0,0,256,0.0,34.0
2035,78.0,0,256,0.0,36.0
2036,63.0,256,256,0.0,26.0
2037,37.0,0,1024,0.0,31.0
2038,49.0,256,0,0.0,40.0
2039,80.0,0,256,0.0,38.0
2040,83.0,0,1365,0.0,63.0
2041,71.0,256,1365,0.0,47.0
2042,77.0,256,256,0.0,38.0
2043,82.0,85,342,0.0,55.0
2044,70.0,0,342,0.0,43.0
2045,85.0,342,341,0.0,55.0
2046,77.0,85,256,0.0,33.0
2047,65.0,0,1024,0.0,26.0
2048,73.0,0,341,0.0,43.0
2049,80.0,256,256,0.0,30.0
2050,79.0,256,256,0.0,32.0
2051,64.0,0,256,0.0,26.0
2052,65.0,256,256,0.0,26.0
2053,80.0,0,256,0.0,34.0
2054,82.0,0,256,0.0,36.0
2055,61.0,0,0,0.0,31.0
2056,66.0,256,256,0.0,26.0
2057,80.0,256,256,0.0,38.0
2058,77.0,256,256,0.0,35.0
2059,83.0,0,1536,0.0,60.0
2060,71.0,0,1536,0.0,48.0
2061,73.0,256,256,0.0,33.0
2062,49.0,256,0,0.0,31.0
2063,77.0,256,256,0.0,30.0
2064,65.0,0,1024,0.0,26.0
2065,70.0,0,512,0.0,52.0
2066,82.0,0,512,0.0,64.0
2067,80.0,0,256,0.0,28.0
2068,85.0,0,532,0.0,65.0
2069,73.0,256,276,0.0,28.0
2070,77.0,256,256,0.0,32.0
2071,61.0,0,256,0.0,26.0
2072,65.0,256,256,0.0,27.0
2073,37.0,0,1024,0.0,22.0
2074,80.0,0,256,0.0,36.0
2075,83.0,256,20,0.0,40.0
2076,71.0,0,532,0.0,51.0
2077,68.0,0,532,0.0,48.0
2078,80.0,256,276,0.0,36.0
2079,73.0,0,256,0.0,33.0
2080,80.0,256,0,0.0,29.0
2081,66.0,0,532,0.0,47.0
2082,78.0,256,532,0.0,59.0
2083,83.0,0,256,0.0,29.0
2084,79.0,0,256,0.0,33.0
2085,82.0,256,256,0.0,33.0
2086,67.0,0,256,0.0,28.0
2087,77.0,256,532,0.0,57.0
2088,65.0,0,532,0.0,44.0
2089,68.0,0,256,0.0,48.0
2090,83.0,256,256,0.0,36.0
2091,61.0,0,2048,0.0,32.0
2092,77.0,0,256,0.0,39.0
2093,65.0,256,256,0.0,28.0
2094,49.0,256,0,0.0,43.0
2095,85.0,0,256,0.0,39.0
2096,80.0,0,532,0.0,60.0
2097,78.0,0,256,0.0,42.0
2098,66.0,0,512,0.0,28.0
2099,85.0,256,256,0.0,38.0
2100,82.0,0,532,0.0,64.0
2101,70.0,0,532,0.0,51.0
2102,77.0,0,256,0.0,35.0
2103,80.0,0,256,0.0,35.0
2104,85.0,256,256,0.0,31.0
2105,65.0,0,512,0.0,28.0
2106,61.0,0,512,0.0,45.0
2107,83.0,256,532,0.0,68.0
2108,71.0,0,532,0.0,55.0
2109,64.0,256,256,0.0,45.0
2110,52.0,118,630,0.0,42.0
2111,58.0,0,512,0.0,54.0
2112,42.0,20,748,0.0,42.0
2113,70.0,256,256,0.0,49.0
2114,54.0,0,1024,0.0,40.0
2115,73.0,256,256,0.0,52.0
2116,85.0,0,1044,0.0,71.0
2117,66.0,0,1215,0.0,56.0
2118,71.0,256,256,0.0,57.0
2119,65.0,85,192,0.0,56.0
2120,62.0,171,256,0.0,54.0
2121,68.0,171,191,0.0,56.0
2122,71.0,85,256,0.0,52.0
2123,74.0,256,256,0.0,55.0
2124,66.0,256,512,0.0,44.0
2125,62.0,256,256,0.0,43.0
2126,59.0,256,2048,0.0,40.0
2127,47.0,0,2048,0.0,51.0
2128,50.0,0,2048,0.0,40.0
2129,86.0,0,2068,0.0,76.0
2130,66.0,256,0,0.0,41.0
2131,62.0,0,256,0.0,41.0
2132,66.0,256,256,0.0,40.0
2133,35.0,0,1024,0.0,44.0
2134,47.0,0,1024,0.0,40.0
2135,59.0,0,1024,0.0,45.0
2136,65.0,256,532,0.0,56.0
2137,71.0,256,1044,0.0,59.0
2138,83.0,0,1044,0.0,71.0
2139,68.0,0,532,0.0,56.0
2140,66.0,256,0,0.0,46.0
2141,61.0,256,512,0.0,50.0
2142,42.0,256,1024,0.0,35.0
2143,54.0,0,1024,0.0,40.0
2144,69.0,0,1044,0.0,58.0
2145,81.0,0,1044,0.0,68.0
2146,61.0,256,256,0.0,52.0
2147,65.0,256,532,0.0,57.0
2148,53.0,0,532,0.0,40.0
2149,61.0,256,256,0.0,45.0
2150,64.0,0,532,0.0,55.0
2151,52.0,256,532,0.0,38.0
2152,68.0,0,256,0.0,57.0
2153,61.0,256,256,0.0,51.0
2154,56.0,256,0,0.0,47.0
2155,51.0,0,532,0.0,39.0
2156,63.0,256,532,0.0,57.0
2157,80.0,0,2048,0.0,65.0
2158,65.0,0,512,0.0,57.0
2159,61.0,256,256,0.0,44.0
2160,44.0,0,0,0.0,33.0
2161,53.0,0,532,0.0,41.0
2162,63.0,256,256,0.0,50.0
2163,66.0,0,532,0.0,57.0
2164,54.0,0,532,0.0,42.0
2165,60.0,256,256,0.0,46.0
2166,63.0,256,256,0.0,43.0
2167,72.0,256,1024,0.0,44.0
2168,80.0,0,1024,0.0,66.0
2169,56.0,0,512,0.0,44.0
2170,68.0,0,532,0.0,62.0
2171,70.0,0,512,0.0,64.0
2172,58.0,118,512,0.0,50.0
2173,64.0,256,256,0.0,45.0
2174,42.0,20,748,0.0,50.0
2175,52.0,118,630,0.0,38.0
2176,61.0,0,630,0.0,52.0
2177,54.0,0,748,0.0,52.0
2178,70.0,0,256,0.0,49.0
2179,73.0,256,256,0.0,52.0
2180,85.0,0,1044,0.0,71.0
2181,66.0,256,703,0.0,56.0
2182,71.0,256,256,0.0,57.0
2183,65.0,85,192,0.0,56.0
2184,62.0,171,256,0.0,54.0
2185,68.0,171,191,0.0,56.0
2186,71.0,85,256,0.0,52.0
2187,74.0,0,256,0.0,55.0
2188,62.0,256,256,0.0,43.0
2189,66.0,256,0,0.0,43.0
2190,59.0,0,2048,0.0,40.0
2191,50.0,0,2048,0.0,45.0
2192,47.0,0,0,0.0,40.0
2193,86.0,256,2068,0.0,76.0
2194,66.0,256,256,0.0,41.0
2195,62.0,256,256,0.0,41.0
2196,59.0,0,1024,0.0,47.0
2197,65.0,0,512,0.0,61.0
2198,66.0,256,256,0.0,40.0
2199,35.0,0,1024,0.0,52.0
2200,71.0,0,1044,0.0,59.0
2201,83.0,256,1044,0.0,71.0
2202,66.0,0,0,0.0,61.0
2203,68.0,0,512,0.0,63.0
2204,61.0,256,256,0.0,43.0
2205,54.0,256,1024,0.0,45.0
2206,66.0,256,256,0.0,40.0
2207,42.0,0,1024,0.0,33.0
2208,81.0,0,1044,0.0,68.0
2209,69.0,0,1044,0.0,58.0
2210,65.0,256,0,0.0,39.0
2211,61.0,0,256,0.0,42.0
2212,53.0,0,1024,0.0,43.0
2213,68.0,0,512,0.0,63.0
2214,64.0,256,0,0.0,61.0
2215,61.0,0,256,0.0,41.0
2216,64.0,256,256,0.0,39.0
2217,44.0,256,2048,0.0,31.0
2218,56.0,0,2048,0.0,47.0
2219,80.0,0,2068,0.0,61.0
2220,73.0,0,256,0.0,44.0
2221,64.0,256,256,0.0,45.0
2222,61.0,0,256,0.0,41.0
2223,52.0,0,0,0.0,45.0
2224,45.0,0,1024,0.0,28.0
2225,64.0,256,256,0.0,39.0
2226,63.0,256,512,0.0,56.0
2227,57.0,256,1024,0.0,47.0
2228,79.0,0,1044,0.0,57.0
2229,67.0,0,1044,0.0,41.0
2230,73.0,0,256,0.0,40.0
2231,64.0,256,256,0.0,37.0
2232,64.0,256,0,0.0,33.0
2233,61.0,0,256,0.0,35.0
2234,55.0,0,1024,0.0,38.0
2235,43.0,256,1024,0.0,33.0
2236,82.0,0,1044,0.0,52.0
2237,70.0,0,1044,0.0,42.0
2238,73.0,0,256,0.0,37.0
2239,65.0,256,256,0.0,35.0
2240,61.0,0,256,0.0,33.0
2241,65.0,256,0,0.0,31.0
2242,56.0,256,1024,0.0,34.0
2243,61.0,256,0,0.0,41.0
2244,68.0,0,256,0.0,35.0
2245,65.0,256,256,0.0,33.0
2246,61.0,0,256,0.0,31.0
2247,53.0,0,2048,0.0,43.0
2248,44.0,0,2048,0.0,31.0
2249,65.0,256,256,0.0,29.0
2250,56.0,256,512,0.0,38.0
2251,68.0,0,20,0.0,32.0
2252,80.0,0,2068,0.0,56.0
2253,63.0,256,256,0.0,30.0
2254,54.0,0,512,0.0,35.0
2255,60.0,0,256,0.0,29.0
2256,63.0,256,256,0.0,27.0
2257,44.0,0,1024,0.0,25.0
2258,72.0,0,1024,0.0,48.0
2259,51.0,256,512,0.0,32.0
2260,37.0,768,85,0.0,55.0
2261,49.0,0,85,0.0,55.0
2262,48.0,85,86,0.0,55.0
2263,36.0,0,86,0.0,55.0
2264,46.0,86,85,0.0,55.0
2265,73.0,0,1024,0.0,45.0
2266,61.0,0,1024,0.0,33.0
2267,53.0,256,1024,0.0,30.0
2268,34.0,0,85,0.0,55.0
2269,65.0,0,1024,0.0,30.0
2270,53.0,0,1536,0.0,52.0
2271,61.0,0,1536,0.0,64.0
2272,32.0,0,2048,0.0,50.0
2273,63.0,0,532,0.0,49.0
2274,56.0,1536,532,0.0,37.0
2275,53.0,0,532,0.0,34.0
2276,65.0,0,532,0.0,52.0
2277,61.0,512,532,0.0,39.0
2278,63.0,0,532,0.0,41.0
2279,51.0,512,532,0.0,35.0
2280,68.0,0,532,0.0,55.0
2281,73.0,0,532,0.0,58.0
2282,49.0,512,532,0.0,36.0
2283,65.0,0,532,0.0,43.0
2284,44.0,512,512,0.0,37.0
2285,68.0,0,532,0.0,45.0
2286,75.0,0,532,0.0,62.0
2287,44.0,0,20,0.0,31.0
2288,73.0,0,532,0.0,42.0
2289,77.0,0,532,0.0,60.0
2290,37.0,512,1024,0.0,31.0
2291,44.0,0,512,0.0,37.0
2292,75.0,0,532,0.0,57.0
2293,68.0,512,532,0.0,45.0
2294,73.0,0,512,0.0,47.0
2295,77.0,512,532,0.0,61.0
2296,56.0,0,2048,0.0,33.0
2297,73.0,0,532,0.0,56.0
2298,68.0,0,532,0.0,43.0
2299,41.0,512,532,0.0,36.0
2300,66.0,0,512,0.0,37.0
2301,70.0,0,532,0.0,49.0
2302,63.0,512,512,0.0,33.0
2303,66.0,0,512,0.0,45.0
2304,46.0,0,512,0.0,34.0
2305,42.0,0,1024,0.0,35.0
2306,61.0,0,0,0.0,32.0
2307,58.0,0,1024,0.0,24.0
2308,49.0,0,0,0.0,33.0
2309,37.0,0,256,0.0,24.0
2310,65.0,512,362,0.0,44.0
2311,56.0,0,512,0.0,40.0
2312,53.0,0,512,0.0,28.0
2313,61.0,0,256,0.0,32.0
2314,49.0,768,256,0.0,33.0
2315,65.0,0,256,0.0,44.0
2316,62.0,256,362,0.0,36.0
2317,46.0,0,362,0.0,33.0
2318,70.0,0,362,0.0,48.0
2319,34.0,0,512,0.0,24.0
2320,62.0,768,256,0.0,32.0
2321,70.0,0,256,0.0,44.0
2322,46.0,0,256,0.0,31.0
2323,39.0,0,256,0.0,24.0
2324,63.0,0,362,0.0,35.0
2325,66.0,256,362,0.0,47.0
2326,51.0,0,362,0.0,31.0
2327,63.0,0,256,0.0,32.0
2328,66.0,768,256,0.0,44.0
2329,51.0,0,256,0.0,30.0
2330,32.0,256,256,0.0,24.0
2331,44.0,0,362,0.0,30.0
2332,68.0,0,362,0.0,47.0
2333,60.0,0,362,0.0,35.0
2334,60.0,0,256,0.0,30.0
2335,68.0,768,256,0.0,42.0
2336,44.0,0,256,0.0,28.0
2337,61.0,256,512,0.0,32.0
2338,37.0,0,512,0.0,18.0
2339,65.0,0,512,0.0,44.0
2340,49.0,0,512,0.0,28.0
2341,42.0,0,256,0.0,29.0
2342,66.0,768,256,0.0,41.0
2343,63.0,0,256,0.0,29.0
2344,46.0,256,788,0.0,28.0
2345,65.0,0,788,0.0,45.0
2346,58.0,0,788,0.0,28.0
2347,54.0,256,0,0.0,26.0
2348,51.0,0,0,0.0,26.0
2349,63.0,0,0,0.0,38.0
2350,61.0,0,256,0.0,24.0
2351,65.0,768,256,0.0,36.0
2352,41.0,0,256,0.0,24.0
2353,56.0,256,788,0.0,23.0
2354,63.0,0,788,0.0,40.0
2355,44.0,0,788,0.0,23.0
2356,61.0,0,256,0.0,33.0
2357,49.0,0,256,0.0,21.0
2358,53.0,256,0,0.0,28.0
2359,49.0,0,512,0.0,30.0
2360,61.0,0,512,0.0,40.0
2361,41.0,0,85,0.0,55.0
2362,53.0,768,85,0.0,55.0
2363,39.0,0,86,0.0,55.0
2364,51.0,85,86,0.0,55.0
2365,37.0,86,85,0.0,55.0
2366,49.0,0,85,0.0,55.0
2367,53.0,0,1536,0.0,50.0
2368,65.0,0,1536,0.0,64.0
2369,56.0,85,1536,0.0,50.0
2370,60.0,0,532,0.0,41.0
2371,67.0,1536,532,0.0,53.0
2372,56.0,512,512,0.0,33.0
2373,65.0,0,532,0.0,43.0
2374,68.0,0,532,0.0,56.0
2375,55.0,0,512,0.0,33.0
2376,67.0,512,532,0.0,45.0
2377,72.0,0,532,0.0,59.0
2378,68.0,512,532,0.0,47.0
2379,77.0,0,532,0.0,62.0
2380,53.0,0,532,0.0,36.0
2381,48.0,0,512,0.0,37.0
2382,79.0,0,532,0.0,66.0
2383,72.0,512,532,0.0,49.0
2384,77.0,0,512,0.0,51.0
2385,80.0,0,512,0.0,69.0
2386,36.0,512,0,0.0,40.0
2387,44.0,0,1024,0.0,31.0
2388,68.0,0,512,0.0,37.0
2389,78.0,0,512,0.0,44.0
2390,80.0,0,512,0.0,68.0
2391,37.0,0,0,0.0,37.0
2392,68.0,0,512,0.0,33.0
2393,77.0,0,512,0.0,45.0
2394,80.0,0,512,0.0,59.0
2395,56.0,0,2048,0.0,24.0
2396,44.0,0,1024,0.0,37.0
2397,77.0,0,512,0.0,56.0
2398,73.0,0,0,0.0,52.0
2399,41.0,512,532,0.0,36.0
2400,70.0,0,0,0.0,49.0
2401,66.0,512,512,0.0,37.0
2402,42.0,512,1024,0.0,35.0
2403,46.0,0,512,0.0,34.0
2404,61.0,0,1024,0.0,33.0
2405,58.0,0,1024,0.0,24.0
2406,49.0,0,0,0.0,33.0
2407,37.0,0,256,0.0,24.0
2408,68.0,0,362,0.0,44.0
2409,65.0,512,362,0.0,32.0
2410,53.0,0,512,0.0,28.0
2411,56.0,0,512,0.0,40.0
2412,49.0,0,256,0.0,32.0
2413,68.0,0,256,0.0,44.0
2414,65.0,0,0,0.0,36.0
2415,56.0,0,256,0.0,32.0
2416,58.0,0,362,0.0,31.0
2417,46.0,0,362,0.0,31.0
2418,73.0,256,362,0.0,48.0
2419,34.0,0,512,0.0,24.0
2420,58.0,768,256,0.0,30.0
2421,46.0,0,256,0.0,30.0
2422,73.0,0,256,0.0,44.0
2423,65.0,0,256,0.0,32.0
2424,39.0,0,256,0.0,24.0
2425,51.0,0,362,0.0,30.0
2426,66.0,0,362,0.0,35.0
2427,70.0,0,362,0.0,47.0
2428,54.0,256,362,0.0,30.0
2429,70.0,0,256,0.0,44.0
2430,51.0,0,256,0.0,29.0
2431,54.0,0,256,0.0,29.0
2432,66.0,768,256,0.0,32.0
2433,32.0,0,256,0.0,24.0
2434,72.0,256,362,0.0,47.0
2435,44.0,0,362,0.0,28.0
2436,56.0,0,362,0.0,28.0
2437,63.0,0,362,0.0,35.0
2438,63.0,768,256,0.0,30.0
2439,72.0,0,256,0.0,42.0
2440,44.0,0,256,0.0,27.0
2441,56.0,0,256,0.0,27.0
2442,37.0,0,512,0.0,21.0
2443,53.0,256,512,0.0,30.0
2444,68.0,0,512,0.0,44.0
2445,49.0,0,512,0.0,30.0
2446,65.0,0,512,0.0,32.0
2447,70.0,0,256,0.0,44.0
2448,66.0,0,256,0.0,32.0
2449,42.0,768,256,0.0,32.0
2450,65.0,256,788,0.0,31.0
2451,68.0,0,788,0.0,48.0
2452,46.0,0,788,0.0,31.0
2453,63.0,768,256,0.0,29.0
2454,66.0,0,256,0.0,41.0
2455,51.0,256,0,0.0,29.0
2456,66.0,0,512,0.0,41.0
2457,63.0,0,512,0.0,29.0
2458,65.0,0,256,0.0,27.0
2459,68.0,768,256,0.0,39.0
2460,41.0,0,256,0.0,27.0
2461,66.0,0,788,0.0,43.0
2462,63.0,256,788,0.0,26.0
2463,44.0,0,788,0.0,26.0
2464,61.0,0,256,0.0,24.0
2465,49.0,0,256,0.0,24.0
2466,65.0,768,256,0.0,36.0
2467,61.0,256,512,0.0,28.0
2468,65.0,0,512,0.0,37.0
2469,49.0,0,512,0.0,26.0
2470,78.0,768,256,0.0,52.0
2471,54.0,0,256,0.0,36.0
2472,70.0,0,256,0.0,36.0
2473,68.0,256,788,0.0,35.0
2474,58.0,0,788,0.0,35.0
2475,77.0,0,788,0.0,56.0
2476,66.0,768,256,0.0,33.0
2477,75.0,0,256,0.0,49.0
2478,63.0,0,256,0.0,33.0
2479,75.0,0,512,0.0,49.0
2480,63.0,0,512,0.0,33.0
2481,66.0,256,512,0.0,33.0
2482,53.0,0,256,0.0,31.0
2483,77.0,0,256,0.0,47.0
2484,68.0,768,256,0.0,31.0
2485,75.0,0,788,0.0,51.0
2486,56.0,0,788,0.0,30.0
2487,66.0,256,788,0.0,30.0
2488,73.0,768,256,0.0,44.0
2489,61.0,0,256,0.0,28.0
2490,65.0,256,0,0.0,28.0
2491,73.0,0,512,0.0,37.0
2492,61.0,0,512,0.0,26.0
2493,70.0,0,532,0.0,47.0
2494,66.0,512,532,0.0,37.0
2495,42.0,0,532,0.0,37.0
2496,65.0,0,532,0.0,39.0
2497,68.0,512,532,0.0,49.0
2498,46.0,0,532,0.0,35.0
2499,66.0,0,392,0.0,49.0
2500,63.0,0,392,0.0,40.0
2501,51.0,512,392,0.0,36.0
2502,65.0,0,532,0.0,41.0
2503,68.0,0,532,0.0,53.0
2504,41.0,512,532,0.0,41.0
2505,63.0,512,532,0.0,40.0
2506,66.0,0,532,0.0,51.0
2507,44.0,0,532,0.0,40.0
2508,65.0,0,392,0.0,49.0
2509,49.0,0,392,0.0,39.0
2510,61.0,512,392,0.0,39.0
2511,63.0,512,532,0.0,38.0
2512,66.0,0,532,0.0,50.0
2513,39.0,0,532,0.0,38.0
2514,42.0,0,532,0.0,37.0
2515,61.0,0,532,0.0,37.0
2516,65.0,512,532,0.0,48.0
2517,60.0,0,392,0.0,33.0
2518,63.0,0,392,0.0,43.0
2519,48.0,0,392,0.0,33.0
2520,78.0,0,532,0.0,55.0
2521,75.0,512,532,0.0,43.0
2522,51.0,0,532,0.0,43.0
2523,73.0,512,532,0.0,43.0
2524,77.0,0,532,0.0,54.0
2525,54.0,0,532,0.0,39.0
2526,72.0,0,392,0.0,42.0
2527,75.0,512,392,0.0,52.0
2528,60.0,0,392,0.0,38.0
2529,49.0,0,532,0.0,41.0
2530,77.0,0,532,0.0,53.0
2531,73.0,512,532,0.0,41.0
2532,53.0,512,532,0.0,40.0
2533,75.0,0,532,0.0,51.0
2534,72.0,0,532,0.0,40.0
2535,58.0,0,392,0.0,39.0
2536,73.0,512,392,0.0,49.0
2537,70.0,0,392,0.0,39.0
2538,71.0,0,532,0.0,38.0
2539,75.0,0,532,0.0,50.0
2540,47.0,512,532,0.0,38.0
2541,51.0,0,532,0.0,37.0
2542,70.0,512,532,0.0,37.0
2543,73.0,0,532,0.0,48.0
2544,68.0,0,392,0.0,33.0
2545,71.0,0,392,0.0,43.0
2546,56.0,0,392,0.0,33.0
2547,59.0,0,532,0.0,38.0
2548,63.0,0,532,0.0,55.0
2549,35.0,512,532,0.0,34.0
2550,58.0,512,532,0.0,40.0
2551,61.0,0,532,0.0,56.0
2552,39.0,0,532,0.0,31.0
2553,59.0,512,392,0.0,56.0
2554,44.0,0,392,0.0,31.0
2555,56.0,0,392,0.0,40.0
2556,58.0,512,532,0.0,40.0
2557,34.0,0,532,0.0,35.0
2558,61.0,0,532,0.0,59.0
2559,56.0,0,532,0.0,41.0
2560,59.0,512,532,0.0,59.0
2561,37.0,0,532,0.0,35.0
2562,58.0,512,392,0.0,58.0
2563,54.0,0,392,0.0,40.0
2564,42.0,0,392,0.0,35.0
2565,33.0,0,532,0.0,35.0
2566,61.0,0,532,0.0,62.0
2567,57.0,512,532,0.0,41.0
2568,37.0,512,532,0.0,44.0
2569,59.0,0,532,0.0,61.0
2570,56.0,0,532,0.0,41.0
2571,42.0,0,392,0.0,44.0
2572,85.0,0,512,0.0,73.0
2573,73.0,0,532,0.0,57.0
2574,45.0,512,532,0.0,55.0
2575,54.0,0,532,0.0,46.0
2576,57.0,0,532,0.0,62.0
2577,81.0,0,532,0.0,57.0
2578,33.0,0,532,0.0,55.0
2579,83.0,0,512,0.0,71.0
2580,80.0,0,532,0.0,55.0
2581,68.0,512,532,0.0,46.0
2582,49.0,0,532,0.0,44.0
2583,37.0,0,532,0.0,55.0
2584,71.0,0,532,0.0,58.0
2585,69.0,0,392,0.0,56.0
2586,54.0,0,392,0.0,44.0
2587,66.0,0,392,0.0,45.0
2588,42.0,0,392,0.0,55.0
2589,78.0,512,392,0.0,53.0
2590,81.0,0,512,0.0,69.0
2591,85.0,0,512,0.0,73.0
2592,73.0,0,532,0.0,60.0
2593,32.0,0,532,0.0,55.0
2594,77.0,0,532,0.0,57.0
2595,65.0,0,532,0.0,44.0
2596,44.0,512,532,0.0,44.0
2597,81.0,0,532,0.0,71.0
2598,78.0,0,532,0.0,55.0
2599,49.0,0,532,0.0,44.0
2600,69.0,0,532,0.0,62.0
2601,66.0,0,532,0.0,46.0
2602,37.0,512,532,0.0,55.0
2603,41.0,0,392,0.0,55.0
2604,80.0,0,392,0.0,69.0
2605,77.0,512,392,0.0,53.0
2606,68.0,0,392,0.0,60.0
2607,65.0,0,392,0.0,44.0
2608,53.0,0,532,0.0,44.0
2609,85.0,0,532,0.0,73.0
2610,43.0,0,532,0.0,44.0
2611,31.0,512,532,0.0,55.0
2612,80.0,0,512,0.0,71.0
2613,61.0,0,0,0.0,35.0
2614,64.0,0,1024,0.0,60.0
2615,68.0,512,512,0.0,62.0
2616,37.0,0,532,0.0,55.0
2617,76.0,0,1044,0.0,57.0
2618,49.0,0,532,0.0,44.0
2619,73.0,512,20,0.0,44.0
2620,40.0,0,392,0.0,46.0
2621,79.0,0,392,0.0,60.0
2622,52.0,0,512,0.0,44.0
2623,67.0,0,512,0.0,51.0
2624,76.0,0,1024,0.0,58.0
2625,85.0,0,1024,0.0,74.0
2626,43.0,512,1024,0.0,55.0
2627,76.0,0,1024,0.0,48.0
2628,80.0,0,1024,0.0,64.0
2629,49.0,0,1024,0.0,44.0
2630,58.0,0,2048,0.0,42.0
2631,46.0,0,0,0.0,21.0
2632,68.0,1024,1024,0.0,54.0
2633,64.0,0,0,0.0,41.0
2634,73.0,0,3072,0.0,58.0
2635,52.0,1024,1024,0.0,36.0
2636,79.0,0,1024,0.0,53.0
2637,61.0,0,3072,0.0,49.0
2638,67.0,0,1024,0.0,25.0
2639,34.0,0,1024,0.0,33.0
2640,80.0,0,1024,0.0,58.0
2641,49.0,0,2048,0.0,19.0
2642,53.0,0,2048,0.0,28.0
2643,73.0,1024,1024,0.0,51.0
2644,68.0,1024,0,0.0,33.0
2645,44.0,0,2048,0.0,32.0
2646,56.0,0,2048,0.0,22.0
2647,65.0,2048,2048,0.0,27.0
2648,32.0,0,0,0.0,19.0
2649,44.0,0,0,0.0,14.0
2650,44.0,0,1024,0.0,19.0
2651,63.0,0,1024,0.0,19.0
2652,56.0,0,1024,0.0,14.0
2653,54.0,0,1024,0.0,20.0
2654,51.0,0,1024,0.0,14.0
2655,72.0,0,1024,0.0,45.0
2656,43.0,0,1024,0.0,40.0
2657,73.0,0,1024,0.0,55.0
2658,46.0,0,2048,0.0,32.0
2659,58.0,1024,0,0.0,19.0
2660,49.0,1024,1024,0.0,22.0
2661,68.0,0,1024,0.0,39.0
2662,64.0,0,2048,0.0,26.0
2663,61.0,0,0,0.0,21.0
2664,46.0,0,1024,0.0,14.0
2665,67.0,0,1024,0.0,40.0
2666,52.0,0,1024,0.0,14.0
2667,34.0,0,1024,0.0,19.0
2668,68.0,0,1024,0.0,48.0
2669,44.0,0,2048,0.0,16.0
2670,61.0,1024,1024,0.0,42.0
2671,32.0,0,2048,0.0,23.0
2672,44.0,0,0,0.0,10.0
2673,56.0,0,2048,0.0,24.0
2674,53.0,0,2048,0.0,15.0
2675,49.0,2048,2048,0.0,15.0
2676,60.0,0,1024,0.0,36.0
2677,56.0,0,1024,0.0,24.0
2678,51.0,0,1024,0.0,5.0
2679,32.0,0,1024,0.0,10.0
2680,54.0,1024,1024,0.0,10.0
2681,44.0,0,1024,0.0,5.0
2682,53.0,0,1024,0.0,19.0
2683,56.0,0,1024,0.0,10.0
2684,49.0,0,1024,0.0,14.0
2685,37.0,0,1024,0.0,14.0
2686,61.0,2048,1024,0.0,32.0
2687,53.0,0,1024,0.0,15.0
2688,56.0,0,1024,0.0,6.0
2689,61.0,2048,1024,0.0,24.0
2690,37.0,0,1024,0.0,10.0
2691,53.0,0,1024,0.0,15.0
2692,37.0,2048,1024,0.0,15.0
2693,61.0,0,1024,0.0,24.0
2694,56.0,0,2048,0.0,35.0
2695,68.0,0,2048,0.0,44.0
2696,70.0,2048,1024,0.0,41.0
2697,58.0,0,1024,0.0,32.0
2698,71.0,0,1536,0.0,39.0
2699,59.0,1024,1536,0.0,30.0
2700,56.0,1024,1024,0.0,15.0
2701,53.0,0,1024,0.0,24.0
2702,37.0,0,1024,0.0,15.0
2703,53.0,2048,1024,0.0,24.0
2704,56.0,0,1024,0.0,15.0
2705,37.0,0,1024,0.0,15.0
2706,56.0,0,1024,0.0,24.0
2707,37.0,0,1024,0.0,15.0
2708,53.0,0,1024,0.0,15.0
2709,59.0,2048,2048,0.0,35.0
2710,71.0,0,2048,0.0,44.0
2711,61.0,0,1024,0.0,32.0
2712,73.0,2048,1024,0.0,41.0
2713,62.0,1024,1536,0.0,30.0
2714,74.0,0,1536,0.0,39.0
2715,53.0,1024,1024,0.0,24.0
2716,56.0,0,1024,0.0,15.0
2717,35.0,0,1024,0.0,15.0
2718,35.0,2048,1024,0.0,15.0
2719,53.0,0,1024,0.0,24.0
2720,56.0,0,1024,0.0,15.0
2721,35.0,0,1024,0.0,15.0
2722,56.0,2048,1024,0.0,15.0
2723,53.0,0,1024,0.0,24.0
2724,62.0,0,2068,0.0,33.0
2725,74.0,0,2068,0.0,48.0
2726,63.0,2048,1044,0.0,36.0
2727,75.0,0,1044,0.0,51.0
2728,77.0,1024,1556,0.0,53.0
2729,65.0,0,1556,0.0,38.0
2730,31.0,0,1024,0.0,15.0
2731,43.0,0,1024,0.0,15.0
2732,67.0,512,532,0.0,38.0
2733,79.0,0,532,0.0,53.0
2734,80.0,512,532,0.0,55.0
2735,68.0,0,532,0.0,40.0
2736,65.0,512,532,0.0,38.0
2737,77.0,0,532,0.0,53.0
2738,50.0,0,2068,0.0,15.0
2739,47.0,1024,2068,0.0,24.0
2740,75.0,512,532,0.0,52.0
2741,63.0,0,532,0.0,37.0
2742,43.0,0,1024,0.0,15.0
2743,31.0,0,1024,0.0,15.0
2744,51.0,0,1044,0.0,15.0
2745,79.0,0,532,0.0,51.0
2746,67.0,512,532,0.0,36.0
2747,48.0,0,1044,0.0,24.0
2748,53.0,0,0,0.0,15.0
2749,50.0,1024,0,0.0,24.0
2750,62.0,0,1556,0.0,38.0
2751,74.0,0,1556,0.0,53.0
2752,31.0,0,1024,0.0,15.0
2753,43.0,0,1024,0.0,15.0
2754,63.0,0,532,0.0,38.0
2755,75.0,512,532,0.0,53.0
2756,77.0,0,532,0.0,55.0
2757,65.0,512,532,0.0,40.0
2758,74.0,512,532,0.0,53.0
2759,62.0,0,532,0.0,38.0
2760,72.0,0,532,0.0,52.0
2761,60.0,0,532,0.0,37.0
2762,43.0,0,1024,0.0,15.0
2763,31.0,512,1024,0.0,15.0
2764,63.0,0,532,0.0,36.0
2765,75.0,512,532,0.0,51.0
2766,51.0,0,1044,0.0,24.0
2767,55.0,0,1044,0.0,15.0
2768,53.0,0,1024,0.0,19.0
2769,56.0,1024,0,0.0,31.0
2770,71.0,0,1556,0.0,48.0
2771,59.0,0,1556,0.0,33.0
2772,43.0,0,1024,0.0,11.0
2773,72.0,512,532,0.0,47.0
2774,60.0,0,532,0.0,32.0
2775,74.0,0,532,0.0,47.0
2776,62.0,512,532,0.0,32.0
2777,75.0,512,532,0.0,47.0
2778,53.0,0,2068,0.0,39.0
2779,68.0,0,2068,0.0,51.0
2780,65.0,512,20,0.0,31.0
2781,63.0,0,20,0.0,30.0
2782,77.0,0,532,0.0,46.0
2783,43.0,0,1024,0.0,11.0
2784,51.0,0,1044,0.0,35.0
2785,67.0,0,532,0.0,31.0
2786,79.0,512,532,0.0,46.0
2787,55.0,0,1044,0.0,30.0
2788,50.0,1024,0,0.0,32.0
2789,65.0,0,0,0.0,47.0
2790,53.0,0,0,0.0,28.0
2791,62.0,0,0,0.0,28.0
2792,68.0,0,1556,0.0,30.0
2793,80.0,0,1556,0.0,46.0
2794,43.0,0,1024,0.0,11.0
2795,82.0,512,532,0.0,45.0
2796,70.0,0,532,0.0,29.0
2797,72.0,512,532,0.0,29.0
2798,84.0,0,532,0.0,45.0
2799,74.0,0,532,0.0,29.0
2800,86.0,512,532,0.0,45.0
2801,75.0,0,532,0.0,28.0
2802,87.0,512,532,0.0,44.0
2803,43.0,0,1024,0.0,11.0
2804,77.0,512,532,0.0,28.0
2805,89.0,0,532,0.0,44.0
2806,51.0,0,1044,0.0,26.0
2807,60.0,0,1044,0.0,26.0
2808,63.0,0,1044,0.0,45.0
2809,48.0,0,1044,0.0,28.0
2810,50.0,0,1024,0.0,13.0
2811,59.0,0,1024,0.0,13.0
2812,62.0,0,1024,0.0,25.0
2813,47.0,0,1024,0.0,24.0
2814,43.0,0,1024,0.0,22.0
2815,62.0,0,2048,0.0,30.0
2816,59.0,2048,0,0.0,12.0
2817,55.0,0,0,0.0,12.0
2818,43.0,0,1024,0.0,17.0
2819,62.0,0,1024,0.0,24.0
2820,62.0,0,1024,0.0,30.0
2821,59.0,0,1024,0.0,18.0
2822,55.0,0,1024,0.0,18.0
2823,31.0,0,2048,0.0,18.0
2824,43.0,2048,2048,0.0,30.0
2825,86.0,0,8192,0.0,32.0
2826,91.0,0,8192,0.0,55.0
2827,74.0,0,8192,0.0,25.0
2828,71.0,1024,0,0.0,21.0
2829,67.0,0,0,0.0,21.0
2830,83.0,0,0,0.0,30.0
2831,79.0,0,0,0.0,30.0
2832,42.0,0,1024,0.0,34.0
2833,30.0,2048,1024,0.0,22.0
2834,40.0,0,1024,0.0,34.0
2835,28.0,0,1024,0.0,22.0
2836,64.0,0,1024,0.0,26.0
2837,52.0,0,1024,0.0,22.0
2838,59.0,0,1024,0.0,14.0
2839,55.0,1024,1024,0.0,14.0
2840,64.0,0,1024,0.0,21.0
2841,55.0,2048,1024,0.0,9.0
2842,59.0,0,1024,0.0,9.0
2843,52.0,0,1024,0.0,17.0
2844,55.0,0,1024,0.0,14.0
2845,59.0,0,1024,0.0,14.0
2846,64.0,0,1024,0.0,26.0
2847,40.0,2048,2048,0.0,29.0
2848,28.0,0,2048,0.0,17.0
2849,88.0,0,8192,0.0,30.0
2850,76.0,0,0,0.0,32.0
2851,91.0,0,0,0.0,58.0
2852,79.0,1024,0,0.0,44.0
2853,38.0,0,1024,0.0,34.0
2854,26.0,2048,1024,0.0,22.0
2855,25.0,0,1024,0.0,18.0
2856,37.0,0,1024,0.0,30.0
2857,88.0,0,1556,0.0,42.0
2858,78.0,0,532,0.0,49.0
2859,86.0,0,532,0.0,46.0
2860,90.0,512,532,0.0,58.0
2861,74.0,0,532,0.0,37.0
2862,76.0,0,0,0.0,49.0
2863,88.0,0,0,0.0,58.0
2864,91.0,0,532,0.0,61.0
2865,79.0,0,532,0.0,52.0
2866,37.0,0,2048,0.0,29.0
2867,25.0,0,2048,0.0,17.0
2868,52.0,0,2048,0.0,32.0
2869,64.0,1024,2048,0.0,44.0
2870,73.0,0,532,0.0,37.0
2871,85.0,512,532,0.0,46.0
2872,74.0,512,0,0.0,35.0
2873,86.0,0,0,0.0,44.0
2874,83.0,0,532,0.0,43.0
2875,71.0,0,532,0.0,34.0
2876,54.0,0,1024,0.0,32.0
2877,66.0,512,1024,0.0,44.0
2878,26.0,0,1024,0.0,22.0
2879,38.0,0,1024,0.0,34.0
2880,90.0,0,532,0.0,56.0
2881,78.0,0,532,0.0,47.0
2882,55.0,0,1024,0.0,32.0
2883,67.0,0,1024,0.0,44.0
2884,28.0,512,1024,0.0,22.0
2885,40.0,0,1024,0.0,31.0
2886,82.0,0,1556,0.0,48.0
2887,85.0,0,1556,0.0,60.0
2888,70.0,0,1556,0.0,39.0
2889,73.0,0,1556,0.0,51.0
2890,74.0,0,532,0.0,49.0
2891,71.0,0,532,0.0,37.0
2892,86.0,512,532,0.0,58.0
2893,83.0,0,532,0.0,46.0
2894,73.0,0,512,0.0,41.0
2895,85.0,0,512,0.0,50.0
2896,88.0,512,532,0.0,62.0
2897,76.0,0,532,0.0,53.0
2898,28.0,0,2048,0.0,18.0
2899,67.0,0,2048,0.0,44.0
2900,55.0,1024,2048,0.0,32.0
2901,40.0,0,2048,0.0,27.0
2902,82.0,512,532,0.0,46.0
2903,85.0,0,532,0.0,58.0
2904,70.0,0,532,0.0,37.0
2905,73.0,0,532,0.0,49.0
2906,71.0,0,512,0.0,47.0
2907,83.0,512,0,0.0,45.0
2908,68.0,0,532,0.0,44.0
2909,80.0,512,532,0.0,44.0
2910,56.0,0,1024,0.0,32.0
2911,29.0,0,1024,0.0,22.0
2912,41.0,0,1024,0.0,31.0
2913,86.0,0,532,0.0,57.0
2914,71.0,0,532,0.0,36.0
2915,74.0,0,532,0.0,48.0
2916,42.0,0,1024,0.0,31.0
2917,58.0,0,1024,0.0,32.0
2918,30.0,512,1024,0.0,22.0
2919,70.0,0,1556,0.0,45.0
2920,66.0,0,1556,0.0,33.0
2921,82.0,0,1556,0.0,61.0
2922,78.0,0,1556,0.0,49.0
2923,54.0,0,1024,0.0,22.0
2924,83.0,512,532,0.0,55.0
2925,71.0,0,532,0.0,46.0
2926,73.0,0,532,0.0,46.0
2927,85.0,512,532,0.0,55.0
2928,64.0,0,2048,0.0,44.0
2929,79.0,0,2048,0.0,51.0
2930,67.0,1024,2048,0.0,33.0
2931,76.0,0,0,0.0,45.0
2932,86.0,0,532,0.0,54.0
2933,74.0,0,20,0.0,31.0
2934,78.0,0,0,0.0,44.0
2935,66.0,0,512,0.0,31.0
2936,88.0,512,532,0.0,54.0
2937,54.0,0,1024,0.0,22.0
2938,62.0,0,1024,0.0,41.0
2939,90.0,512,532,0.0,53.0
2940,64.0,0,1024,0.0,21.0
2941,61.0,0,1024,0.0,22.0
2942,73.0,0,1024,0.0,21.0
2943,76.0,0,1024,0.0,32.0
2944,79.0,512,1556,0.0,53.0
2945,67.0,0,1556,0.0,33.0
2946,42.0,0,1024,0.0,17.0
2947,54.0,1024,1024,0.0,17.0
2948,81.0,512,532,0.0,52.0
2949,69.0,0,532,0.0,43.0
2950,71.0,0,532,0.0,42.0
2951,83.0,512,532,0.0,51.0
2952,76.0,0,2048,0.0,44.0
2953,73.0,0,512,0.0,42.0
2954,64.0,0,2048,0.0,28.0
2955,85.0,512,532,0.0,51.0
2956,86.0,512,532,0.0,50.0
2957,74.0,0,532,0.0,41.0
2958,54.0,0,1024,0.0,17.0
2959,42.0,0,1024,0.0,17.0
2960,71.0,0,1024,0.0,26.0
2961,62.0,0,1024,0.0,26.0
2962,88.0,512,532,0.0,50.0
2963,76.0,0,532,0.0,41.0
2964,70.0,512,1024,0.0,24.0
2965,73.0,1024,0,0.0,33.0
2966,61.0,0,0,0.0,24.0
2967,58.0,0,1024,0.0,24.0
2968,54.0,0,1024,0.0,19.0
2969,70.0,0,1024,0.0,24.0
2970,58.0,0,1024,0.0,24.0
2971,61.0,2048,1024,0.0,15.0
2972,70.0,0,1024,0.0,15.0
2973,73.0,0,1024,0.0,24.0
2974,54.0,0,1024,0.0,19.0
2975,73.0,0,1024,0.0,33.0
2976,61.0,2048,1024,0.0,24.0
2977,70.0,0,1024,0.0,24.0
2978,42.0,0,2048,0.0,24.0
2979,54.0,0,2048,0.0,33.0
2980,41.0,2048,1024,0.0,19.0
2981,53.0,0,1024,0.0,28.0
2982,78.0,0,9216,0.0,45.0
2983,66.0,0,0,0.0,36.0
2984,39.0,0,1024,0.0,17.0
2985,51.0,1024,1024,0.0,26.0
2986,54.0,0,1024,0.0,17.0
2987,58.0,0,1024,0.0,26.0
2988,75.0,1024,2048,0.0,33.0
2989,78.0,0,2048,0.0,45.0
2990,63.0,2048,0,0.0,24.0
2991,77.0,0,1024,0.0,33.0
2992,65.0,0,1024,0.0,15.0
2993,68.0,0,1024,0.0,27.0
2994,80.0,0,1024,0.0,45.0
2995,54.0,0,1024,0.0,15.0
2996,58.0,0,1024,0.0,15.0
2997,70.0,1024,1024,0.0,24.0
2998,66.0,0,1024,0.0,12.0
2999,82.0,0,1024,0.0,42.0
3000,78.0,0,1024,0.0,30.0
3001,54.0,0,1024,0.0,24.0
3002,58.0,0,1024,0.0,24.0
3003,63.0,0,1024,0.0,33.0
3004,39.0,1024,2048,0.0,24.0
3005,51.0,0,2048,0.0,33.0
3006,54.0,0,1024,0.0,15.0
3007,58.0,2048,1024,0.0,15.0
3008,49.0,0,1024,0.0,29.0
3009,63.0,0,1024,0.0,24.0
3010,37.0,0,1024,0.0,20.0
3011,48.0,1024,1024,0.0,27.0
3012,36.0,0,1024,0.0,18.0
3013,63.0,1024,1024,0.0,24.0
3014,58.0,0,1024,0.0,15.0
3015,54.0,0,1024,0.0,15.0
3016,78.0,0,2048,0.0,33.0
3017,82.0,0,2048,0.0,45.0
3018,66.0,0,2048,0.0,24.0
3019,70.0,0,2048,0.0,36.0
3020,54.0,0,1024,0.0,6.0
3021,58.0,0,1024,0.0,6.0
3022,63.0,0,1024,0.0,15.0
3023,75.0,2048,1024,0.0,41.0
3024,66.0,0,1024,0.0,29.0
3025,87.0,0,1024,0.0,50.0
3026,78.0,0,1024,0.0,38.0
3027,81.0,0,1024,0.0,47.0
3028,69.0,1024,1024,0.0,38.0
3029,65.0,0,1024,0.0,26.0
3030,77.0,0,1024,0.0,35.0
3031,63.0,0,1024,0.0,24.0
3032,60.0,0,1024,0.0,15.0
3033,57.0,1024,1024,0.0,15.0
3034,53.0,0,2048,0.0,33.0
3035,41.0,0,2048,0.0,24.0
3036,39.0,2048,1024,0.0,20.0
3037,65.0,0,1024,0.0,15.0
3038,60.0,0,1024,0.0,6.0
3039,57.0,0,1024,0.0,6.0
3040,51.0,0,1024,0.0,29.0
3041,49.0,1024,1024,0.0,27.0
3042,37.0,0,1024,0.0,18.0
3043,58.0,0,1024,0.0,16.0
3044,61.0,0,1024,0.0,25.0
3045,65.0,0,0,0.0,24.0
3046,77.0,0,2048,0.0,33.0
3047,70.0,1024,2048,0.0,36.0
3048,82.0,0,2048,0.0,45.0
3049,53.0,2048,1024,0.0,15.0
3050,60.0,0,1024,0.0,15.0
3051,81.0,0,1024,0.0,33.0
3052,84.0,0,1024,0.0,45.0
3053,69.0,0,1024,0.0,24.0
3054,72.0,0,1024,0.0,36.0
3055,82.0,1024,1024,0.0,30.0
3056,85.0,0,1024,0.0,42.0
3057,70.0,0,1024,0.0,21.0
3058,73.0,0,1024,0.0,33.0
3059,58.0,0,1024,0.0,17.0
3060,61.0,0,1024,0.0,26.0
3061,42.0,0,2048,0.0,24.0
3062,54.0,1024,2048,0.0,33.0
3063,58.0,0,1024,0.0,15.0
3064,61.0,0,1024,0.0,15.0
3065,66.0,2048,1024,0.0,24.0
3066,41.0,0,1024,0.0,20.0
3067,53.0,0,1024,0.0,29.0
3068,39.0,1024,1024,0.0,18.0
3069,51.0,0,1024,0.0,27.0
3070,66.0,1024,1024,0.0,24.0
3071,61.0,0,1024,0.0,15.0
3072,58.0,0,1024,0.0,15.0
3073,73.0,0,2048,0.0,36.0
3074,70.0,0,0,0.0,29.0
3075,85.0,0,2048,0.0,45.0
3076,82.0,0,2048,0.0,33.0
3077,90.0,0,1024,0.0,50.0
3078,78.0,0,1024,0.0,41.0
3079,82.0,0,1024,0.0,38.0
3080,66.0,2048,1024,0.0,24.0
3081,61.0,0,1024,0.0,12.0
3082,58.0,0,1024,0.0,12.0
3083,80.0,0,1024,0.0,31.0
3084,84.0,0,1024,0.0,43.0
3085,68.0,1024,1024,0.0,22.0
3086,72.0,0,1024,0.0,34.0
3087,66.0,0,1024,0.0,24.0
3088,63.0,0,1024,0.0,12.0
3089,60.0,0,1024,0.0,12.0
3090,56.0,0,2048,0.0,33.0
3091,44.0,1024,2048,0.0,33.0
3092,60.0,2048,1024,0.0,12.0
3093,63.0,0,1024,0.0,12.0
3094,66.0,0,1024,0.0,24.0
3095,42.0,0,1024,0.0,29.0
3096,54.0,0,1024,0.0,29.0
3097,53.0,1024,1024,0.0,27.0
3098,41.0,0,1024,0.0,27.0
3099,68.0,0,1024,0.0,26.0
3100,61.0,0,1024,0.0,14.0
3101,65.0,0,1024,0.0,14.0
3102,85.0,0,2048,0.0,44.0
3103,80.0,0,2048,0.0,32.0
3104,73.0,1024,2048,0.0,35.0
3105,68.0,0,0,0.0,26.0
3106,56.0,0,1024,0.0,14.0
3107,84.0,2048,1024,0.0,34.0
3108,87.0,0,1024,0.0,46.0
3109,72.0,0,1024,0.0,25.0
3110,75.0,0,1024,0.0,37.0
3111,77.0,0,1024,0.0,38.0
3112,73.0,0,1024,0.0,26.0
3113,89.0,0,1024,0.0,47.0
3114,85.0,1024,0,0.0,35.0
3115,61.0,0,2048,0.0,26.0
3116,58.0,0,2048,0.0,19.0
3117,49.0,2048,0,0.0,14.0
3118,61.0,0,0,0.0,21.0
3119,66.0,0,2048,0.0,31.0
3120,90.0,0,2068,0.0,47.0
3121,46.0,0,2068,0.0,30.0
3122,34.0,0,2068,0.0,21.0
3123,78.0,0,2068,0.0,35.0
3124,56.0,0,1024,0.0,14.0
3125,61.0,0,0,0.0,26.0
3126,65.0,0,1024,0.0,21.0
3127,68.0,0,1024,0.0,33.0
3128,44.0,0,1044,0.0,31.0
3129,32.0,0,1044,0.0,22.0
3130,80.0,0,1044,0.0,37.0
3131,92.0,0,1044,0.0,49.0
3132,89.0,0,1044,0.0,37.0
3133,49.0,1024,2048,0.0,14.0
3134,54.0,0,2048,0.0,14.0
3135,42.0,0,2048,0.0,32.0
3136,30.0,0,2048,0.0,23.0
3137,85.0,0,2048,0.0,38.0
3138,82.0,0,4096,0.0,38.0
3139,54.0,0,2048,0.0,14.0
3140,39.0,0,2048,0.0,34.0
3141,27.0,0,2048,0.0,25.0
3142,87.0,0,2048,0.0,42.0
3143,94.0,0,4096,0.0,50.0
3144,66.0,2048,2048,0.0,26.0
3145,70.0,0,4096,0.0,34.0
3146,58.0,2048,0,0.0,15.0
3147,75.0,0,2048,0.0,38.0
3148,65.0,0,0,0.0,8.0
3149,70.0,0,2048,0.0,21.0
3150,85.0,0,2048,0.0,37.0
3151,61.0,0,2048,0.0,15.0
3152,73.0,0,2048,0.0,33.0
3153,29.0,0,2048,0.0,20.0
3154,41.0,0,2048,0.0,29.0
3155,41.0,1536,0,0.0,27.0
3156,29.0,0,0,0.0,18.0
3157,53.0,0,4096,0.0,15.0
3158,60.0,0,2048,0.0,6.0
3159,57.0,0,2048,0.0,6.0
3160,69.0,0,2048,0.0,8.0
3161,77.0,0,4096,0.0,37.0
3162,84.0,2048,2048,0.0,26.0
3163,89.0,0,4096,0.0,49.0
3164,72.0,0,2048,0.0,20.0
3165,46.0,0,1024,0.0,37.0
3166,34.0,0,1024,0.0,28.0
3167,58.0,512,0,0.0,49.0
3168,70.0,0,1024,0.0,25.0
3169,82.0,0,1024,0.0,37.0
3170,53.0,512,532,0.0,44.0
3171,65.0,0,532,0.0,49.0
3172,48.0,0,532,0.0,41.0
3173,36.0,512,532,0.0,32.0
3174,49.0,512,1024,0.0,46.0
3175,37.0,0,1024,0.0,37.0
3176,70.0,0,0,0.0,37.0
3177,77.0,0,532,0.0,47.0
3178,60.0,512,532,0.0,44.0
3179,82.0,512,1024,0.0,52.0
3180,61.0,0,1024,0.0,49.0
3181,34.0,0,532,0.0,32.0
3182,72.0,512,532,0.0,49.0
3183,65.0,0,532,0.0,37.0
3184,46.0,0,532,0.0,41.0
3185,73.0,0,1024,0.0,55.0
3186,70.0,0,1024,0.0,43.0
3187,30.0,512,1024,0.0,37.0
3188,42.0,0,1024,0.0,46.0
3189,58.0,0,532,0.0,44.0
3190,84.0,512,532,0.0,50.0
3191,85.0,0,1024,0.0,55.0
3192,73.0,512,1024,0.0,39.0
3193,54.0,0,1024,0.0,49.0
3194,75.0,512,512,0.0,59.0
3195,72.0,0,512,0.0,47.0
3196,34.0,0,532,0.0,32.0
3197,46.0,0,532,0.0,41.0
3198,73.0,0,1024,0.0,46.0
3199,41.0,512,1024,0.0,46.0
3200,29.0,0,1024,0.0,37.0
3201,58.0,0,532,0.0,44.0
3202,87.0,512,532,0.0,52.0
3203,65.0,0,1044,0.0,46.0
3204,77.0,0,20,0.0,41.0
3205,61.0,512,532,0.0,40.0
3206,70.0,0,532,0.0,40.0
3207,73.0,0,532,0.0,59.0
3208,89.0,0,1024,0.0,57.0
3209,69.0,0,512,0.0,36.0
3210,53.0,0,1024,0.0,49.0
3211,60.0,0,532,0.0,36.0
3212,41.0,0,532,0.0,41.0
3213,29.0,512,532,0.0,32.0
3214,72.0,0,532,0.0,55.0
3215,34.0,0,1024,0.0,37.0
3216,46.0,0,1024,0.0,46.0
3217,69.0,0,1044,0.0,44.0
3218,75.0,512,1044,0.0,63.0
3219,90.0,0,532,0.0,54.0
3220,53.0,512,532,0.0,44.0
3221,63.0,0,1044,0.0,44.0
3222,78.0,0,532,0.0,43.0
3223,62.0,0,392,0.0,30.0
3224,70.0,0,392,0.0,30.0
3225,74.0,0,392,0.0,49.0
3226,77.0,0,1024,0.0,43.0
3227,89.0,512,1024,0.0,60.0
3228,58.0,0,1024,0.0,49.0
3229,65.0,0,532,0.0,49.0
3230,48.0,512,532,0.0,41.0
3231,36.0,0,532,0.0,32.0
3232,38.0,512,1024,0.0,37.0
3233,50.0,0,1024,0.0,46.0
3234,77.0,0,532,0.0,47.0
3235,60.0,512,532,0.0,44.0
3236,70.0,0,20,0.0,37.0
3237,82.0,512,1024,0.0,52.0
3238,62.0,0,1024,0.0,49.0
3239,70.0,0,0,0.0,43.0
3240,46.0,512,532,0.0,41.0
3241,34.0,0,532,0.0,32.0
3242,65.0,0,532,0.0,37.0
3243,74.0,0,532,0.0,49.0
3244,42.0,512,1024,0.0,46.0
3245,30.0,0,1024,0.0,37.0
3246,75.0,512,0,0.0,46.0
3247,58.0,512,532,0.0,44.0
3248,86.0,0,532,0.0,57.0
3249,87.0,0,1024,0.0,62.0
3250,75.0,0,0,0.0,46.0
3251,54.0,0,1024,0.0,49.0
3252,46.0,0,532,0.0,41.0
3253,77.0,0,532,0.0,59.0
3254,34.0,512,532,0.0,32.0
3255,74.0,0,532,0.0,47.0
3256,27.0,0,1024,0.0,37.0
3257,39.0,0,1024,0.0,46.0
3258,66.0,0,1044,0.0,46.0
3259,78.0,0,20,0.0,48.0
3260,58.0,0,532,0.0,44.0
3261,89.0,512,532,0.0,59.0
3262,77.0,0,532,0.0,59.0
3263,73.0,0,532,0.0,40.0
3264,65.0,0,532,0.0,40.0
3265,90.0,512,1024,0.0,64.0
3266,51.0,0,1024,0.0,49.0
3267,72.0,0,0,0.0,44.0
3268,32.0,0,532,0.0,32.0
3269,44.0,0,532,0.0,41.0
3270,63.0,512,532,0.0,36.0
3271,75.0,0,532,0.0,55.0
3272,49.0,512,1024,0.0,46.0
3273,80.0,0,512,0.0,50.0
3274,37.0,0,1024,0.0,37.0
3275,92.0,0,512,0.0,61.0
3276,78.0,0,1044,0.0,63.0
3277,56.0,512,532,0.0,44.0
3278,66.0,0,1044,0.0,44.0
3279,73.0,0,392,0.0,30.0
3280,65.0,0,392,0.0,30.0
3281,77.0,0,392,0.0,49.0
3282,80.0,0,1024,0.0,50.0
3283,92.0,512,1024,0.0,67.0
3284,61.0,0,1024,0.0,49.0
3285,39.0,0,532,0.0,32.0
3286,68.0,512,532,0.0,49.0
3287,51.0,0,532,0.0,41.0
3288,63.0,512,512,0.0,55.0
3289,53.0,0,1024,0.0,46.0
3290,41.0,512,1024,0.0,37.0
3291,73.0,512,20,0.0,44.0
3292,80.0,0,532,0.0,54.0
3293,85.0,0,1024,0.0,59.0
3294,65.0,0,1024,0.0,55.0
3295,75.0,0,512,0.0,49.0
3296,73.0,0,0,0.0,43.0
3297,68.0,0,512,0.0,37.0
3298,37.0,512,532,0.0,32.0
3299,49.0,0,532,0.0,41.0
3300,77.0,0,1024,0.0,55.0
3301,34.0,512,1024,0.0,37.0
3302,46.0,0,1024,0.0,46.0
3303,61.0,512,532,0.0,44.0
3304,87.0,0,532,0.0,57.0
3305,77.0,0,0,0.0,46.0
3306,89.0,0,1024,0.0,62.0
3307,58.0,512,1024,0.0,49.0
3308,37.0,0,532,0.0,32.0
3309,49.0,0,532,0.0,41.0
3310,75.0,0,532,0.0,47.0
3311,78.0,512,532,0.0,59.0
3312,32.0,0,1024,0.0,37.0
3313,44.0,0,1024,0.0,46.0
3314,90.0,512,532,0.0,59.0
3315,77.0,0,20,0.0,63.0
3316,80.0,0,20,0.0,48.0
3317,61.0,0,532,0.0,44.0
3318,68.0,512,1044,0.0,46.0
3319,65.0,0,532,0.0,44.0
3320,73.0,512,532,0.0,44.0
3321,92.0,0,1024,0.0,64.0
3322,56.0,0,1024,0.0,49.0
3323,72.0,0,0,0.0,44.0
3324,32.0,0,532,0.0,32.0
3325,44.0,0,532,0.0,41.0
3326,75.0,512,532,0.0,59.0
3327,63.0,0,532,0.0,40.0
3328,37.0,512,1024,0.0,37.0
3329,49.0,0,1024,0.0,46.0
3330,81.0,512,532,0.0,52.0
3331,78.0,0,1044,0.0,63.0
3332,56.0,0,532,0.0,44.0
3333,93.0,0,532,0.0,64.0
3334,66.0,0,1044,0.0,44.0
3335,77.0,0,392,0.0,49.0
3336,73.0,0,392,0.0,30.0
3337,65.0,0,392,0.0,30.0
3338,61.0,0,904,0.0,49.0
3339,80.0,0,1024,0.0,51.0
3340,92.0,512,1024,0.0,67.0
3341,68.0,0,20,0.0,65.0
3342,39.0,512,532,0.0,32.0
3343,51.0,0,532,0.0,41.0
3344,59.0,0,341,0.0,53.0
3345,59.0,0,0,0.0,32.0
3346,68.0,171,0,0.0,44.0
3347,73.0,512,904,0.0,55.0
3348,68.0,341,0,0.0,42.0
3349,41.0,0,1024,0.0,37.0
3350,53.0,0,1024,0.0,46.0
3351,80.0,171,532,0.0,64.0
3352,63.0,0,532,0.0,49.0
3353,68.0,341,0,0.0,41.0
3354,59.0,0,0,0.0,29.0
3355,85.0,0,392,0.0,64.0
3356,59.0,171,0,0.0,27.0
3357,65.0,0,904,0.0,55.0
3358,68.0,0,341,0.0,39.0
3359,49.0,171,532,0.0,41.0
3360,37.0,0,532,0.0,32.0
3361,74.0,0,532,0.0,55.0
3362,73.0,0,904,0.0,55.0
3363,54.0,0,1024,0.0,46.0
3364,42.0,0,1024,0.0,37.0
3365,70.0,341,1024,0.0,37.0
3366,58.0,0,1024,0.0,25.0
3367,86.0,0,532,0.0,64.0
3368,61.0,512,532,0.0,49.0
3369,85.0,512,392,0.0,65.0
3370,66.0,0,904,0.0,57.0
3371,73.0,0,20,0.0,72.0
3372,56.0,0,532,0.0,42.0
3373,44.0,0,532,0.0,33.0
3374,64.0,341,0,0.0,40.0
3375,73.0,0,342,0.0,53.0
3376,64.0,171,0,0.0,38.0
3377,78.0,0,904,0.0,58.0
3378,58.0,0,1024,0.0,48.0
3379,46.0,0,1024,0.0,39.0
3380,73.0,0,0,0.0,49.0
3381,64.0,0,0,0.0,36.0
3382,68.0,0,532,0.0,52.0
3383,85.0,171,532,0.0,67.0
3384,64.0,341,0,0.0,36.0
3385,90.0,341,392,0.0,68.0
3386,73.0,0,342,0.0,48.0
3387,70.0,0,904,0.0,60.0
3388,64.0,0,341,0.0,34.0
3389,73.0,0,0,0.0,47.0
3390,37.0,0,532,0.0,44.0
3391,25.0,171,532,0.0,25.0
3392,79.0,0,532,0.0,60.0
3393,78.0,0,904,0.0,61.0
3394,42.0,341,1024,0.0,44.0
3395,30.0,0,1024,0.0,34.0
3396,64.0,0,1024,0.0,37.0
3397,91.0,0,532,0.0,71.0
3398,49.0,512,532,0.0,46.0
3399,90.0,0,392,0.0,71.0
3400,54.0,512,392,0.0,48.0
3401,32.0,0,532,0.0,36.0
3402,44.0,512,532,0.0,46.0
3403,61.0,0,532,0.0,49.0
3404,73.0,0,20,0.0,79.0
3405,64.0,0,341,0.0,65.0
3406,66.0,0,392,0.0,51.0
3407,64.0,0,0,0.0,47.0
3408,73.0,171,0,0.0,60.0
3409,78.0,512,904,0.0,64.0
3410,46.0,0,1024,0.0,46.0
3411,34.0,0,1024,0.0,36.0
3412,64.0,0,0,0.0,45.0
3413,85.0,0,532,0.0,74.0
3414,56.0,171,532,0.0,53.0
3415,73.0,341,341,0.0,58.0
3416,64.0,341,0,0.0,43.0
3417,90.0,0,392,0.0,75.0
3418,58.0,0,392,0.0,55.0
3419,73.0,171,0,0.0,55.0
3420,64.0,0,0,0.0,45.0
3421,71.0,0,532,0.0,56.0
3422,25.0,0,532,0.0,37.0
3423,37.0,0,532,0.0,48.0
3424,83.0,171,532,0.0,66.0
3425,70.0,341,392,0.0,59.0
3426,82.0,0,904,0.0,66.0
3427,73.0,0,1024,0.0,56.0
3428,42.0,0,1024,0.0,48.0
3429,30.0,0,1024,0.0,37.0
3430,95.0,512,532,0.0,77.0
3431,49.0,0,532,0.0,47.0
3432,94.0,512,392,0.0,78.0
3433,54.0,0,392,0.0,50.0
3434,32.0,0,532,0.0,39.0
3435,73.0,0,20,0.0,84.0
3436,61.0,0,532,0.0,52.0
3437,44.0,512,532,0.0,50.0
3438,64.0,341,0,0.0,51.0
3439,66.0,0,392,0.0,55.0
3440,73.0,0,342,0.0,66.0
3441,64.0,171,0,0.0,49.0
3442,78.0,0,904,0.0,69.0
3443,73.0,0,341,0.0,64.0
3444,34.0,512,1024,0.0,39.0
3445,64.0,341,0,0.0,46.0
3446,46.0,0,1024,0.0,51.0
3447,85.0,171,532,0.0,71.0
3448,56.0,0,532,0.0,58.0
3449,73.0,0,341,0.0,62.0
3450,64.0,341,0,0.0,46.0
3451,90.0,0,392,0.0,71.0
3452,58.0,0,392,0.0,60.0
3453,73.0,0,342,0.0,61.0
3454,73.0,0,0,0.0,62.0
3455,64.0,0,0,0.0,50.0
3456,25.0,171,532,0.0,41.0
3457,37.0,0,532,0.0,53.0
3458,74.0,0,532,0.0,61.0
3459,86.0,0,532,0.0,72.0
3460,30.0,0,292,0.0,51.0
3461,42.0,0,292,0.0,58.0
3462,85.0,341,512,0.0,74.0
3463,71.0,0,532,0.0,62.0
3464,67.0,0,532,0.0,63.0
3465,79.0,0,532,0.0,74.0
3466,59.0,0,532,0.0,52.0
3467,37.0,512,532,0.0,60.0
3468,25.0,0,532,0.0,53.0
3469,78.0,0,292,0.0,81.0
3470,42.0,512,292,0.0,62.0
3471,70.0,0,292,0.0,69.0
3472,58.0,0,292,0.0,58.0
3473,66.0,0,292,0.0,69.0
3474,30.0,0,292,0.0,54.0
3475,73.0,0,341,0.0,62.0
3476,61.0,0,0,0.0,52.0
3477,64.0,0,0,0.0,52.0
3478,61.0,171,0,0.0,53.0
3479,73.0,341,342,0.0,64.0
3480,73.0,0,0,0.0,67.0
3481,64.0,0,0,0.0,55.0
3482,37.0,171,532,0.0,64.0
3483,83.0,0,532,0.0,78.0
3484,67.0,0,532,0.0,56.0
3485,25.0,0,532,0.0,56.0
3486,79.0,0,532,0.0,66.0
3487,71.0,0,532,0.0,67.0
3488,82.0,0,292,0.0,87.0
3489,66.0,0,292,0.0,62.0
3490,70.0,0,292,0.0,74.0
3491,42.0,341,292,0.0,65.0
3492,78.0,0,292,0.0,73.0
3493,30.0,0,292,0.0,57.0
3494,61.0,0,1024,0.0,55.0
3495,64.0,0,0,0.0,60.0
3496,25.0,512,532,0.0,59.0
3497,37.0,0,532,0.0,67.0
3498,71.0,0,532,0.0,59.0
3499,74.0,0,532,0.0,71.0
3500,83.0,0,532,0.0,70.0
3501,86.0,0,532,0.0,84.0
3502,73.0,0,292,0.0,72.0
3503,70.0,0,292,0.0,60.0
3504,30.0,0,292,0.0,60.0
3505,85.0,0,292,0.0,91.0
3506,82.0,0,292,0.0,77.0
3507,42.0,0,292,0.0,69.0
3508,70.0,341,0,0.0,61.0
3509,70.0,171,0,0.0,63.0
3510,73.0,0,171,0.0,68.0
3511,64.0,0,0,0.0,63.0
3512,73.0,0,341,0.0,75.0
3513,85.0,0,0,0.0,76.0
3514,73.0,0,0,0.0,71.0
3515,70.0,0,0,0.0,71.0
3516,88.0,171,532,0.0,88.0
3517,46.0,0,532,0.0,62.0
3518,58.0,0,532,0.0,71.0
3519,76.0,0,532,0.0,81.0
3520,77.0,0,374,0.0,83.0
3521,65.0,341,374,0.0,71.0
3522,82.0,0,374,0.0,76.0
3523,89.0,0,374,0.0,92.0
3524,53.0,0,374,0.0,80.0
3525,41.0,0,374,0.0,71.0
3526,72.0,0,374,0.0,71.0
3527,75.0,0,374,0.0,71.0
3528,63.0,0,374,0.0,62.0
3529,69.0,0,374,0.0,62.0
3530,65.0,1024,374,0.0,80.0
3531,53.0,0,374,0.0,71.0
3532,81.0,0,374,0.0,86.0
3533,70.0,0,374,0.0,71.0
3534,41.0,0,374,0.0,80.0
3535,29.0,0,374,0.0,71.0
3536,85.0,0,374,0.0,86.0
3537,82.0,0,374,0.0,71.0
3538,73.0,1024,374,0.0,71.0
3539,61.0,0,374,0.0,71.0
3540,41.0,0,374,0.0,71.0
3541,53.0,0,374,0.0,80.0
3542,64.0,1024,374,0.0,62.0
3543,61.0,0,374,0.0,71.0
3544,58.0,0,374,0.0,71.0
3545,76.0,0,374,0.0,80.0
3546,73.0,0,374,0.0,65.0
3547,70.0,0,374,0.0,65.0
3548,77.0,0,374,0.0,85.0
3549,41.0,0,374,0.0,74.0
3550,53.0,0,374,0.0,60.0
3551,65.0,0,374,0.0,66.0
3552,33.0,0,374,0.0,70.0
3553,57.0,0,374,0.0,71.0
3554,45.0,0,374,0.0,57.0
3555,69.0,1024,374,0.0,80.0
3556,37.0,0,374,0.0,67.0
3557,49.0,0,374,0.0,55.0
3558,73.0,0,374,0.0,80.0
3559,61.0,1024,374,0.0,61.0
3560,52.0,0,374,0.0,60.0
3561,64.0,0,374,0.0,75.0
3562,28.0,1024,374,0.0,64.0
3563,40.0,0,374,0.0,52.0
3564,65.0,0,361,0.0,76.0
3565,53.0,0,361,0.0,69.0
3566,29.0,0,512,0.0,55.0
3567,41.0,0,512,0.0,67.0
3568,66.0,341,362,0.0,57.0
3569,54.0,0,362,0.0,54.0
3570,42.0,0,362,0.0,67.0
3571,30.0,171,362,0.0,55.0
3572,53.0,0,341,0.0,53.0
3573,65.0,0,0,0.0,61.0
3574,77.0,85,256,0.0,64.0
3575,41.0,0,256,0.0,60.0
3576,29.0,0,256,0.0,48.0
3577,53.0,256,361,0.0,58.0
3578,89.0,0,512,0.0,79.0
3579,77.0,0,512,0.0,64.0
3580,66.0,0,362,0.0,54.0
3581,54.0,341,362,0.0,51.0
3582,78.0,0,362,0.0,64.0
3583,90.0,171,362,0.0,79.0
3584,65.0,0,341,0.0,53.0
3585,53.0,0,0,0.0,55.0
3586,77.0,0,256,0.0,57.0
3587,89.0,0,256,0.0,72.0
3588,65.0,341,361,0.0,57.0
3589,66.0,0,362,0.0,50.0
3590,54.0,341,362,0.0,49.0
3591,53.0,0,341,0.0,48.0
3592,65.0,342,341,0.0,49.0
3593,65.0,341,361,0.0,54.0
3594,53.0,0,361,0.0,53.0
3595,66.0,0,362,0.0,46.0
3596,54.0,341,362,0.0,45.0
3597,65.0,0,341,0.0,45.0
3598,53.0,342,341,0.0,45.0
3599,65.0,341,361,0.0,51.0
3600,53.0,0,512,0.0,40.0
3601,66.0,341,362,0.0,42.0
3602,65.0,342,341,0.0,40.0
3603,65.0,341,361,0.0,45.0
3604,66.0,341,362,0.0,37.0
3605,65.0,342,341,0.0,35.0
3606,65.0,341,361,0.0,40.0
3607,66.0,341,362,0.0,33.0
3608,65.0,341,0,0.0,35.0
3609,66.0,341,362,0.0,28.0
3610,61.0,171,256,0.0,38.0
3611,65.0,0,256,0.0,50.0
3612,65.0,512,512,0.0,30.0
3613,53.0,0,532,0.0,44.0
3614,49.0,0,532,0.0,32.0
3615,65.0,256,128,0.0,44.0
3616,54.0,512,392,0.0,37.0
3617,51.0,0,392,0.0,25.0
3618,49.0,0,256,0.0,25.0
3619,53.0,256,256,0.0,37.0
3620,65.0,0,361,0.0,30.0
3621,77.0,0,532,0.0,56.0
3622,73.0,0,532,0.0,44.0
3623,53.0,341,362,0.0,30.0
3624,58.0,0,128,0.0,25.0
3625,61.0,85,128,0.0,37.0
3626,72.0,0,392,0.0,38.0
3627,76.0,171,392,0.0,50.0
3628,65.0,171,361,0.0,30.0
3629,73.0,0,256,0.0,44.0
3630,77.0,0,256,0.0,56.0
3631,53.0,256,361,0.0,30.0
3632,46.0,0,532,0.0,25.0
3633,49.0,0,532,0.0,37.0
3634,65.0,341,362,0.0,30.0
3635,70.0,85,128,0.0,44.0
3636,48.0,171,392,0.0,25.0
3637,51.0,0,392,0.0,37.0
3638,53.0,171,361,0.0,30.0
3639,49.0,0,256,0.0,37.0
3640,46.0,256,256,0.0,25.0
3641,66.0,0,361,0.0,30.0
3642,82.0,0,532,0.0,56.0
3643,73.0,0,532,0.0,44.0
3644,54.0,341,362,0.0,30.0
3645,58.0,85,128,0.0,44.0
3646,54.0,0,128,0.0,32.0
3647,72.0,171,392,0.0,38.0
3648,81.0,0,392,0.0,50.0
3649,66.0,171,361,0.0,30.0
3650,82.0,0,256,0.0,56.0
3651,73.0,0,256,0.0,44.0
3652,54.0,0,361,0.0,30.0
3653,46.0,0,512,0.0,45.0
3654,42.0,256,532,0.0,33.0
3655,66.0,341,362,0.0,30.0
3656,70.0,85,128,0.0,44.0
3657,49.0,171,512,0.0,46.0
3658,54.0,0,20,0.0,47.0
3659,46.0,0,532,0.0,34.0
3660,82.0,0,256,0.0,44.0
3661,85.0,0,256,0.0,56.0
3662,66.0,0,361,0.0,30.0
3663,54.0,171,0,0.0,37.0
3664,49.0,256,532,0.0,35.0
3665,73.0,85,128,0.0,59.0
3666,58.0,0,0,0.0,38.0
3667,66.0,171,361,0.0,30.0
3668,54.0,256,20,0.0,30.0
3669,85.0,0,512,0.0,51.0
3670,88.0,0,532,0.0,68.0
3671,61.0,0,532,0.0,50.0
3672,66.0,341,362,0.0,30.0
3673,82.0,0,0,0.0,57.0
3674,63.0,0,532,0.0,52.0
3675,60.0,0,532,0.0,40.0
3676,85.0,0,532,0.0,63.0
3677,54.0,171,361,0.0,30.0
3678,66.0,0,361,0.0,30.0
3679,64.0,341,392,0.0,53.0
3680,61.0,0,392,0.0,41.0
3681,78.0,0,512,0.0,42.0
3682,54.0,341,362,0.0,30.0
3683,57.0,0,532,0.0,31.0
3684,60.0,0,532,0.0,44.0
3685,66.0,171,361,0.0,30.0
3686,78.0,0,532,0.0,52.0
3687,75.0,171,532,0.0,38.0
3688,54.0,0,361,0.0,30.0
3689,61.0,0,532,0.0,45.0
3690,58.0,341,532,0.0,32.0
3691,76.0,0,532,0.0,56.0
3692,73.0,0,532,0.0,39.0
3693,66.0,341,362,0.0,30.0
3694,75.0,0,532,0.0,55.0
3695,54.0,171,361,0.0,30.0
3696,60.0,0,532,0.0,34.0
3697,72.0,171,532,0.0,38.0
3698,63.0,0,532,0.0,47.0
3699,66.0,0,361,0.0,30.0
3700,64.0,0,392,0.0,48.0
3701,73.0,341,392,0.0,53.0
3702,70.0,0,392,0.0,36.0
3703,61.0,0,392,0.0,35.0
3704,54.0,341,362,0.0,30.0
3705,66.0,171,361,0.0,30.0
3706,60.0,0,532,0.0,49.0
3707,57.0,0,532,0.0,36.0
3708,54.0,0,361,0.0,30.0
3709,73.0,171,1044,0.0,42.0
3710,76.0,0,1044,0.0,59.0
3711,61.0,341,532,0.0,50.0
3712,58.0,0,532,0.0,37.0
3713,66.0,341,362,0.0,30.0
3714,72.0,0,532,0.0,37.0
3715,63.0,0,532,0.0,52.0
3716,60.0,171,532,0.0,39.0
3717,75.0,0,532,0.0,54.0
3718,54.0,171,361,0.0,30.0
3719,66.0,0,361,0.0,30.0
3720,70.0,0,392,0.0,37.0
3721,73.0,0,392,0.0,49.0
3722,54.0,341,362,0.0,30.0
3723,72.0,0,532,0.0,55.0
3724,66.0,171,361,0.0,30.0
3725,69.0,171,532,0.0,38.0
3726,54.0,0,361,0.0,30.0
3727,73.0,341,532,0.0,56.0
3728,70.0,0,532,0.0,39.0
3729,64.0,0,1556,0.0,53.0
3730,61.0,341,1556,0.0,40.0
3731,66.0,341,362,0.0,30.0
3732,75.0,171,532,0.0,57.0
3733,60.0,0,532,0.0,39.0
3734,63.0,0,532,0.0,51.0
3735,54.0,171,361,0.0,30.0
3736,72.0,0,532,0.0,39.0
3737,66.0,0,361,0.0,30.0
3738,58.0,0,392,0.0,37.0
3739,61.0,341,392,0.0,49.0
3740,76.0,0,392,0.0,58.0
3741,73.0,0,392,0.0,40.0
3742,54.0,341,362,0.0,30.0
3743,69.0,0,532,0.0,34.0
3744,72.0,171,532,0.0,51.0
3745,66.0,171,361,0.0,30.0
3746,54.0,0,361,0.0,30.0
3747,64.0,0,1044,0.0,54.0
3748,61.0,0,1044,0.0,42.0
3749,73.0,0,532,0.0,54.0
3750,70.0,0,532,0.0,37.0
3751,66.0,341,362,0.0,30.0
3752,54.0,171,341,0.0,30.0
3753,63.0,0,532,0.0,51.0
3754,60.0,171,532,0.0,39.0
3755,75.0,0,532,0.0,57.0
3756,72.0,0,532,0.0,39.0
3757,66.0,0,361,0.0,30.0
3758,54.0,171,191,0.0,48.0
3759,58.0,341,768,0.0,37.0
3760,61.0,0,768,0.0,49.0
3761,66.0,85,256,0.0,48.0
3762,73.0,0,1024,0.0,41.0
3763,76.0,0,1024,0.0,60.0
3764,71.0,0,512,0.0,30.0
3765,74.0,0,512,0.0,45.0
3766,50.0,256,532,0.0,25.0
3767,54.0,0,532,0.0,37.0
3768,66.0,256,128,0.0,44.0
3769,55.0,512,392,0.0,37.0
3770,52.0,0,392,0.0,25.0
3771,54.0,0,256,0.0,37.0
3772,50.0,0,256,0.0,25.0
3773,66.0,0,361,0.0,30.0
3774,74.0,256,532,0.0,44.0
3775,78.0,0,532,0.0,56.0
3776,54.0,341,362,0.0,30.0
3777,62.0,85,128,0.0,37.0
3778,59.0,0,128,0.0,25.0
3779,77.0,0,392,0.0,50.0
3780,73.0,171,392,0.0,38.0
3781,66.0,171,361,0.0,30.0
3782,74.0,0,256,0.0,44.0
3783,78.0,0,256,0.0,56.0
3784,54.0,0,361,0.0,30.0
3785,47.0,0,532,0.0,25.0
3786,50.0,256,532,0.0,37.0
3787,66.0,341,362,0.0,30.0
3788,71.0,85,128,0.0,44.0
3789,49.0,0,392,0.0,25.0
3790,52.0,171,392,0.0,37.0
3791,54.0,171,361,0.0,30.0
3792,47.0,0,256,0.0,25.0
3793,50.0,0,256,0.0,37.0
3794,67.0,0,361,0.0,30.0
3795,74.0,256,532,0.0,44.0
3796,83.0,0,532,0.0,56.0
3797,55.0,341,362,0.0,30.0
3798,59.0,85,128,0.0,44.0
3799,55.0,0,128,0.0,32.0
3800,73.0,0,392,0.0,38.0
3801,82.0,171,392,0.0,50.0
3802,67.0,171,361,0.0,30.0
3803,83.0,0,256,0.0,56.0
3804,74.0,0,256,0.0,44.0
3805,55.0,0,361,0.0,30.0
3806,47.0,0,0,0.0,35.0
3807,43.0,256,532,0.0,33.0
3808,67.0,341,362,0.0,30.0
3809,71.0,85,128,0.0,44.0
3810,50.0,0,0,0.0,36.0
3811,55.0,0,20,0.0,48.0
3812,83.0,256,256,0.0,44.0
3813,86.0,0,256,0.0,56.0
3814,67.0,0,361,0.0,30.0
3815,55.0,171,0,0.0,39.0
3816,74.0,85,128,0.0,59.0
3817,59.0,0,512,0.0,51.0
3818,67.0,171,361,0.0,30.0
3819,55.0,0,20,0.0,30.0
3820,86.0,256,512,0.0,51.0
3821,59.0,0,532,0.0,41.0
3822,62.0,0,532,0.0,54.0
3823,89.0,0,532,0.0,68.0
3824,67.0,341,362,0.0,30.0
3825,83.0,341,0,0.0,57.0
3826,61.0,0,532,0.0,43.0
3827,64.0,171,532,0.0,56.0
3828,55.0,171,361,0.0,30.0
3829,86.0,0,532,0.0,63.0
3830,67.0,0,361,0.0,30.0
3831,62.0,0,392,0.0,45.0
3832,65.0,0,392,0.0,58.0
3833,79.0,0,0,0.0,52.0
3834,55.0,341,362,0.0,30.0
3835,67.0,171,361,0.0,30.0
3836,76.0,0,532,0.0,38.0
3837,58.0,0,532,0.0,31.0
3838,61.0,171,532,0.0,44.0
3839,55.0,341,361,0.0,30.0
3840,77.0,0,532,0.0,56.0
3841,62.0,0,532,0.0,45.0
3842,59.0,0,532,0.0,32.0
3843,74.0,0,532,0.0,39.0
3844,67.0,341,362,0.0,30.0
3845,73.0,171,532,0.0,38.0
3846,76.0,0,532,0.0,56.0
3847,55.0,171,361,0.0,31.0
3848,64.0,0,532,0.0,48.0
3849,61.0,0,532,0.0,35.0
3850,67.0,0,361,0.0,31.0
3851,74.0,0,392,0.0,54.0
3852,71.0,341,392,0.0,37.0
3853,62.0,0,392,0.0,37.0
3854,65.0,0,392,0.0,51.0
3855,55.0,341,362,0.0,31.0
3856,67.0,171,361,0.0,31.0
3857,61.0,171,532,0.0,54.0
3858,58.0,0,532,0.0,39.0
3859,55.0,0,361,0.0,32.0
3860,59.0,341,532,0.0,42.0
3861,77.0,0,1044,0.0,61.0
3862,74.0,0,1044,0.0,44.0
3863,62.0,0,532,0.0,57.0
3864,67.0,341,362,0.0,32.0
3865,61.0,0,532,0.0,45.0
3866,64.0,171,532,0.0,60.0
3867,73.0,0,532,0.0,39.0
3868,76.0,0,532,0.0,57.0
3869,55.0,171,361,0.0,32.0
3870,67.0,0,361,0.0,32.0
3871,71.0,341,392,0.0,40.0
3872,74.0,0,392,0.0,58.0
3873,55.0,341,362,0.0,32.0
3874,73.0,0,532,0.0,60.0
3875,67.0,171,361,0.0,33.0
3876,70.0,171,532,0.0,41.0
3877,55.0,341,361,0.0,33.0
3878,65.0,0,1556,0.0,63.0
3879,62.0,0,1556,0.0,47.0
3880,71.0,0,532,0.0,43.0
3881,74.0,0,532,0.0,61.0
3882,67.0,341,362,0.0,33.0
3883,76.0,0,532,0.0,63.0
3884,73.0,171,532,0.0,43.0
3885,61.0,0,532,0.0,43.0
3886,64.0,0,532,0.0,57.0
3887,55.0,171,361,0.0,34.0
3888,67.0,0,361,0.0,34.0
3889,74.0,0,392,0.0,45.0
3890,59.0,0,392,0.0,42.0
3891,62.0,0,392,0.0,55.0
3892,77.0,341,392,0.0,65.0
3893,55.0,341,362,0.0,34.0
3894,67.0,171,361,0.0,34.0
3895,73.0,0,532,0.0,57.0
3896,70.0,171,532,0.0,39.0
3897,55.0,0,361,0.0,46.0
3898,71.0,341,532,0.0,43.0
3899,65.0,0,1044,0.0,62.0
3900,62.0,0,1044,0.0,48.0
3901,74.0,0,532,0.0,61.0
3902,67.0,341,362,0.0,35.0
3903,55.0,171,341,0.0,35.0
3904,76.0,171,532,0.0,65.0
3905,61.0,0,532,0.0,45.0
3906,64.0,0,532,0.0,59.0
3907,73.0,0,532,0.0,45.0
3908,67.0,0,361,0.0,35.0
3909,55.0,171,191,0.0,57.0
3910,59.0,0,768,0.0,44.0
3911,62.0,0,768,0.0,58.0
3912,74.0,0,1024,0.0,48.0
3913,77.0,341,1024,0.0,70.0
3914,67.0,85,256,0.0,57.0
3915,72.0,0,512,0.0,55.0
3916,75.0,256,512,0.0,64.0
3917,55.0,0,512,0.0,70.0
3918,43.0,0,532,0.0,61.0
3919,44.0,0,332,0.0,54.0
3920,56.0,512,332,0.0,63.0
3921,68.0,0,128,0.0,64.0
3922,55.0,0,256,0.0,70.0
3923,43.0,0,256,0.0,61.0
3924,72.0,256,532,0.0,64.0
3925,80.0,0,532,0.0,78.0
3926,60.0,256,788,0.0,51.0
3927,63.0,0,788,0.0,51.0
3928,68.0,0,532,0.0,51.0
3929,67.0,0,382,0.0,47.0
3930,62.0,0,382,0.0,61.0
3931,59.0,0,382,0.0,47.0
3932,79.0,0,382,0.0,74.0
3933,71.0,512,382,0.0,60.0
3934,65.0,256,128,0.0,63.0
3935,53.0,0,128,0.0,54.0
3936,72.0,0,256,0.0,64.0
3937,80.0,0,256,0.0,78.0
3938,60.0,0,256,0.0,51.0
3939,63.0,256,256,0.0,65.0
3940,68.0,0,256,0.0,51.0
3941,41.0,0,532,0.0,61.0
3942,53.0,0,532,0.0,70.0
3943,43.0,512,332,0.0,54.0
3944,55.0,0,332,0.0,63.0
3945,74.0,0,128,0.0,64.0
3946,41.0,0,256,0.0,61.0
3947,53.0,256,256,0.0,70.0
3948,74.0,0,532,0.0,51.0
3949,68.0,256,788,0.0,51.0
3950,86.0,0,532,0.0,78.0
3951,77.0,0,532,0.0,64.0
3952,65.0,0,788,0.0,51.0
3953,75.0,0,382,0.0,60.0
3954,63.0,512,382,0.0,47.0
3955,67.0,0,382,0.0,61.0
3956,84.0,0,382,0.0,74.0
3957,72.0,0,382,0.0,47.0
3958,65.0,0,128,0.0,63.0
3959,53.0,256,128,0.0,54.0
3960,77.0,0,256,0.0,64.0
3961,86.0,0,256,0.0,78.0
3962,65.0,0,256,0.0,51.0
3963,68.0,0,256,0.0,65.0
3964,74.0,0,256,0.0,51.0
3965,53.0,0,532,0.0,70.0
3966,41.0,256,532,0.0,61.0
3967,55.0,0,332,0.0,63.0
3968,43.0,512,332,0.0,54.0
3969,67.0,256,128,0.0,64.0
3970,41.0,0,256,0.0,61.0
3971,53.0,0,256,0.0,70.0
3972,70.0,0,532,0.0,64.0
3973,79.0,256,532,0.0,78.0
3974,58.0,0,788,0.0,51.0
3975,62.0,0,788,0.0,51.0
3976,67.0,0,532,0.0,51.0
3977,68.0,0,382,0.0,60.0
3978,77.0,0,382,0.0,74.0
3979,56.0,0,382,0.0,47.0
3980,60.0,0,382,0.0,61.0
3981,65.0,512,382,0.0,47.0
3982,51.0,256,128,0.0,54.0
3983,63.0,0,128,0.0,63.0
3984,67.0,0,256,0.0,51.0
3985,62.0,0,256,0.0,65.0
3986,58.0,0,256,0.0,51.0
3987,79.0,256,256,0.0,78.0
3988,70.0,0,256,0.0,64.0
3989,51.0,0,532,0.0,70.0
3990,39.0,0,532,0.0,61.0
3991,53.0,0,332,0.0,63.0
3992,41.0,512,332,0.0,54.0
3993,72.0,256,128,0.0,64.0
3994,51.0,256,256,0.0,70.0
3995,39.0,0,256,0.0,61.0
3996,67.0,0,788,0.0,51.0
3997,63.0,0,788,0.0,51.0
3998,84.0,0,532,0.0,78.0
3999,75.0,0,532,0.0,64.0
4000,72.0,0,532,0.0,51.0
4001,74.0,0,126,0.0,60.0
4002,83.0,512,126,0.0,74.0
4003,62.0,0,382,0.0,47.0
4004,65.0,0,382,0.0,61.0
4005,71.0,0,382,0.0,47.0
4006,68.0,0,256,0.0,63.0
4007,56.0,256,256,0.0,54.0
4008,63.0,0,256,0.0,51.0
4009,84.0,0,256,0.0,78.0
4010,72.0,0,256,0.0,65.0
4011,75.0,0,256,0.0,64.0
4012,44.0,256,332,0.0,61.0
4013,56.0,0,332,0.0,70.0
4014,53.0,256,256,0.0,52.0
4015,65.0,0,0,0.0,66.0
4016,74.0,0,532,0.0,71.0
4017,50.0,512,532,0.0,62.0
4018,62.0,0,332,0.0,71.0
4019,38.0,0,332,0.0,62.0
4020,60.0,0,512,0.0,52.0
4021,77.0,0,512,0.0,80.0
4022,72.0,256,512,0.0,65.0
4023,68.0,0,512,0.0,65.0
4024,56.0,0,512,0.0,52.0
4025,74.0,0,256,0.0,66.0
4026,77.0,0,256,0.0,66.0
4027,82.0,0,256,0.0,80.0
4028,62.0,0,256,0.0,53.0
4029,65.0,256,256,0.0,53.0
4030,70.0,0,256,0.0,67.0
4031,55.0,0,532,0.0,72.0
4032,31.0,512,532,0.0,63.0
4033,67.0,0,332,0.0,73.0
4034,43.0,0,332,0.0,63.0
4035,58.0,0,512,0.0,53.0
4036,70.0,256,512,0.0,67.0
4037,51.0,256,256,0.0,54.0
4038,63.0,0,0,0.0,68.0
4039,72.0,512,532,0.0,74.0
4040,48.0,0,532,0.0,64.0
4041,60.0,0,332,0.0,74.0
4042,36.0,256,332,0.0,64.0
4043,58.0,0,512,0.0,54.0
4044,55.0,0,512,0.0,54.0
4045,75.0,0,512,0.0,82.0
4046,70.0,0,512,0.0,67.0
4047,67.0,0,512,0.0,67.0
4048,72.0,0,256,0.0,68.0
4049,60.0,0,256,0.0,56.0
4050,63.0,0,256,0.0,56.0
4051,68.0,0,256,0.0,68.0
4052,75.0,0,256,0.0,68.0
4053,80.0,256,256,0.0,81.0
4054,29.0,512,512,0.0,65.0
4055,53.0,0,512,0.0,74.0
4056,41.0,0,332,0.0,65.0
4057,65.0,0,332,0.0,75.0
4058,68.0,256,512,0.0,68.0
4059,56.0,0,512,0.0,55.0
4060,62.0,256,256,0.0,70.0
4061,50.0,0,256,0.0,56.0
4062,70.0,0,532,0.0,76.0
4063,46.0,512,532,0.0,66.0
4064,34.0,0,332,0.0,66.0
4065,58.0,0,332,0.0,76.0
4066,53.0,0,512,0.0,56.0
4067,68.0,0,512,0.0,70.0
4068,74.0,0,512,0.0,85.0
4069,65.0,0,512,0.0,70.0
4070,62.0,256,512,0.0,71.0
4071,56.0,0,512,0.0,56.0
4072,67.0,256,256,0.0,72.0
4073,62.0,0,256,0.0,56.0
4074,58.0,0,256,0.0,56.0
4075,79.0,0,256,0.0,86.0
4076,70.0,0,256,0.0,70.0
4077,74.0,0,256,0.0,70.0
4078,51.0,0,532,0.0,77.0
4079,27.0,512,532,0.0,67.0
4080,63.0,0,332,0.0,78.0
4081,39.0,0,332,0.0,68.0
4082,67.0,0,512,0.0,71.0
4083,55.0,256,512,0.0,57.0
4084,60.0,0,256,0.0,72.0
4085,48.0,256,256,0.0,57.0
4086,44.0,512,532,0.0,68.0
4087,68.0,0,532,0.0,78.0
4088,32.0,0,332,0.0,69.0
4089,56.0,256,332,0.0,79.0
4090,60.0,0,512,0.0,73.0
4091,51.0,0,512,0.0,58.0
4092,55.0,0,512,0.0,58.0
4093,72.0,0,512,0.0,88.0
4094,67.0,0,512,0.0,72.0
4095,63.0,0,512,0.0,72.0
4096,50.0,512,512,0.0,80.0
4097,65.0,0,256,0.0,73.0
4098,68.0,256,256,0.0,73.0
4099,72.0,0,256,0.0,73.0
4100,77.0,0,256,0.0,87.0
4101,56.0,0,256,0.0,61.0
4102,60.0,0,256,0.0,61.0
4103,62.0,0,332,0.0,81.0
4104,65.0,0,512,0.0,74.0
4105,53.0,0,512,0.0,59.0
4106,26.0,0,1024,0.0,77.0
4107,27.0,512,512,0.0,64.0
4108,38.0,256,1024,0.0,70.0
4109,65.0,0,0,0.0,75.0
4110,53.0,256,256,0.0,59.0
4111,74.0,0,532,0.0,81.0
4112,50.0,0,532,0.0,70.0
4113,62.0,0,332,0.0,81.0
4114,38.0,256,332,0.0,71.0
4115,26.0,0,512,0.0,64.0
4116,68.0,0,512,0.0,74.0
4117,72.0,0,512,0.0,74.0
4118,77.0,0,512,0.0,90.0
4119,56.0,0,512,0.0,59.0
4120,60.0,0,512,0.0,59.0
4121,81.0,256,256,0.0,76.0
4122,84.0,0,256,0.0,76.0
4123,90.0,0,256,0.0,92.0
4124,60.0,0,256,0.0,60.0
4125,66.0,0,256,0.0,60.0
4126,69.0,0,256,0.0,77.0
4127,50.0,512,532,0.0,82.0
4128,62.0,0,332,0.0,83.0
4129,38.0,0,332,0.0,72.0
4130,78.0,0,512,0.0,76.0
4131,57.0,256,512,0.0,60.0
4132,66.0,256,256,0.0,77.0
4133,50.0,0,256,0.0,61.0
4134,74.0,512,532,0.0,83.0
4135,62.0,0,332,0.0,78.0
4136,38.0,0,332,0.0,73.0
4137,69.0,256,512,0.0,77.0
4138,72.0,0,512,0.0,77.0
4139,78.0,0,512,0.0,94.0
4140,54.0,0,512,0.0,61.0
4141,57.0,0,512,0.0,61.0
4142,26.0,0,2048,0.0,80.0
4143,79.0,0,256,0.0,64.0
4144,91.0,0,256,0.0,64.0
4145,55.0,0,256,0.0,88.0
4146,67.0,256,0,0.0,71.0
4147,43.0,512,512,0.0,76.0
4148,79.0,0,0,0.0,92.0
4149,55.0,0,0,0.0,64.0
4150,36.0,0,341,0.0,69.0
4151,48.0,0,341,0.0,69.0
4152,43.0,0,341,0.0,69.0
4153,75.0,0,532,0.0,71.0
4154,63.0,0,532,0.0,60.0
4155,44.0,341,342,0.0,62.0
4156,56.0,0,342,0.0,62.0
4157,80.0,0,332,0.0,85.0
4158,77.0,171,332,0.0,64.0
4159,68.0,0,332,0.0,64.0
4160,65.0,0,392,0.0,60.0
4161,48.0,0,341,0.0,65.0
4162,55.0,341,0,0.0,64.0
4163,36.0,171,341,0.0,65.0
4164,43.0,0,341,0.0,60.0
4165,36.0,0,341,0.0,69.0
4166,48.0,0,341,0.0,69.0
4167,43.0,0,341,0.0,69.0
4168,63.0,0,512,0.0,60.0
4169,67.0,0,512,0.0,64.0
4170,75.0,0,512,0.0,64.0
4171,79.0,0,512,0.0,85.0
4172,56.0,0,342,0.0,62.0
4173,44.0,341,342,0.0,62.0
4174,75.0,0,256,0.0,64.0
4175,55.0,0,341,0.0,60.0
4176,72.0,0,0,0.0,71.0
4177,36.0,0,341,0.0,65.0
4178,43.0,0,341,0.0,60.0
4179,87.0,85,256,0.0,85.0
4180,48.0,0,0,0.0,69.0
4181,55.0,0,341,0.0,64.0
4182,36.0,0,341,0.0,69.0
4183,43.0,0,341,0.0,69.0
4184,75.0,0,532,0.0,92.0
4185,63.0,256,532,0.0,71.0
4186,60.0,0,532,0.0,60.0
4187,44.0,0,342,0.0,62.0
4188,56.0,341,342,0.0,62.0
4189,74.0,0,332,0.0,64.0
4190,65.0,0,332,0.0,64.0
4191,77.0,0,332,0.0,85.0
4192,62.0,171,392,0.0,60.0
4193,55.0,0,341,0.0,60.0
4194,48.0,0,341,0.0,65.0
4195,36.0,171,341,0.0,65.0
4196,43.0,0,341,0.0,60.0
4197,43.0,0,341,0.0,69.0
4198,36.0,0,341,0.0,69.0
4199,48.0,0,341,0.0,69.0
4200,55.0,341,341,0.0,64.0
4201,63.0,0,512,0.0,64.0
4202,60.0,0,512,0.0,60.0
4203,72.0,0,512,0.0,64.0
4204,75.0,0,512,0.0,85.0
4205,44.0,342,0,0.0,60.0
4206,56.0,0,0,0.0,60.0
4207,68.0,0,256,0.0,60.0
4208,56.0,0,0,0.0,69.0
4209,84.0,0,256,0.0,85.0
4210,72.0,85,256,0.0,64.0
4211,36.0,256,341,0.0,69.0
4212,44.0,0,341,0.0,69.0
4213,48.0,0,341,0.0,69.0
4214,72.0,0,0,0.0,66.0
4215,68.0,0,512,0.0,64.0
4216,60.0,0,512,0.0,64.0
4217,58.0,0,342,0.0,62.0
4218,46.0,341,342,0.0,62.0
4219,36.0,171,341,0.0,65.0
4220,44.0,0,341,0.0,60.0
4221,63.0,341,0,0.0,63.0
4222,75.0,171,512,0.0,85.0
4223,48.0,0,341,0.0,65.0
4224,56.0,0,341,0.0,60.0
4225,60.0,0,512,0.0,62.0
4226,48.0,0,341,0.0,69.0
4227,56.0,0,341,0.0,69.0
4228,36.0,0,341,0.0,69.0
4229,44.0,0,341,0.0,69.0
4230,68.0,0,512,0.0,67.0
4231,75.0,0,512,0.0,67.0
4232,80.0,171,0,0.0,69.0
4233,46.0,0,342,0.0,62.0
4234,58.0,341,342,0.0,62.0
4235,84.0,0,512,0.0,89.0
4236,48.0,171,341,0.0,65.0
4237,56.0,341,0,0.0,69.0
4238,60.0,0,512,0.0,53.0
4239,72.0,0,512,0.0,65.0
4240,36.0,0,341,0.0,65.0
4241,44.0,0,341,0.0,60.0
4242,44.0,0,341,0.0,69.0
4243,36.0,0,341,0.0,69.0
4244,48.0,0,341,0.0,69.0
4245,75.0,0,532,0.0,70.0
4246,87.0,0,532,0.0,91.0
4247,63.0,0,532,0.0,55.0
4248,46.0,341,342,0.0,62.0
4249,58.0,0,342,0.0,62.0
4250,48.0,0,341,0.0,65.0
4251,44.0,0,341,0.0,60.0
4252,36.0,171,341,0.0,65.0
4253,56.0,0,341,0.0,60.0
4254,72.0,0,1044,0.0,67.0
4255,65.0,0,532,0.0,56.0
4256,60.0,0,1044,0.0,55.0
4257,89.0,0,532,0.0,93.0
4258,84.0,0,1044,0.0,70.0
4259,77.0,171,532,0.0,72.0
4260,43.0,0,341,0.0,69.0
4261,55.0,0,341,0.0,69.0
4262,48.0,0,341,0.0,69.0
4263,36.0,0,341,0.0,69.0
4264,67.0,0,532,0.0,58.0
4265,91.0,0,562,0.0,95.0
4266,79.0,341,562,0.0,74.0
4267,56.0,0,342,0.0,62.0
4268,44.0,341,342,0.0,62.0
4269,89.0,50,462,0.0,88.0
4270,59.0,0,1024,0.0,58.0
4271,77.0,0,462,0.0,69.0
4272,48.0,121,341,0.0,60.0
4273,55.0,0,341,0.0,60.0
4274,43.0,0,341,0.0,60.0
4275,36.0,0,0,0.0,69.0
4276,71.0,0,1024,0.0,70.0
4277,65.0,171,512,0.0,52.0
4278,83.0,0,1024,0.0,74.0
4279,44.0,341,341,0.0,69.0
4280,56.0,0,341,0.0,69.0
4281,48.0,0,341,0.0,69.0
4282,75.0,0,532,0.0,64.0
4283,87.0,0,532,0.0,83.0
4284,63.0,0,532,0.0,52.0
4285,46.0,341,342,0.0,62.0
4286,58.0,0,342,0.0,62.0
4287,56.0,0,341,0.0,60.0
4288,48.0,171,341,0.0,65.0
4289,60.0,0,1024,0.0,52.0
4290,72.0,0,1024,0.0,64.0
4291,36.0,0,0,0.0,69.0
4292,44.0,0,341,0.0,60.0
4293,89.0,171,532,0.0,87.0
4294,77.0,0,532,0.0,68.0
4295,65.0,0,532,0.0,55.0
4296,84.0,0,1044,0.0,64.0
4297,43.0,341,341,0.0,69.0
4298,48.0,0,341,0.0,69.0
4299,55.0,0,341,0.0,69.0
4300,44.0,341,342,0.0,62.0
4301,56.0,0,342,0.0,62.0
4302,36.0,0,341,0.0,65.0
4303,48.0,342,341,0.0,65.0
4304,55.0,0,341,0.0,60.0
4305,43.0,0,341,0.0,60.0
4306,36.0,341,341,0.0,69.0
4307,55.0,0,341,0.0,69.0
4308,48.0,0,341,0.0,69.0
4309,43.0,0,341,0.0,69.0
4310,71.0,0,1536,0.0,70.0
4311,59.0,0,1536,0.0,58.0
4312,67.0,0,1556,0.0,58.0
4313,91.0,0,1556,0.0,90.0
4314,79.0,0,1556,0.0,71.0
4315,83.0,0,20,0.0,69.0
4316,44.0,0,342,0.0,62.0
4317,56.0,341,342,0.0,62.0
4318,55.0,0,341,0.0,60.0
4319,48.0,0,341,0.0,65.0
4320,36.0,171,341,0.0,65.0
4321,43.0,0,0,0.0,69.0
4322,62.0,171,532,0.0,57.0
4323,74.0,0,532,0.0,69.0
4324,71.0,0,532,0.0,69.0
4325,86.0,0,532,0.0,88.0
4326,48.0,0,341,0.0,69.0
4327,55.0,341,341,0.0,69.0
4328,36.0,0,341,0.0,69.0
4329,84.0,171,0,0.0,80.0
4330,75.0,0,512,0.0,64.0
4331,72.0,0,0,0.0,75.0
4332,63.0,0,532,0.0,64.0
4333,87.0,0,532,0.0,83.0
4334,56.0,341,342,0.0,62.0
4335,44.0,0,342,0.0,62.0
4336,55.0,0,341,0.0,60.0
4337,48.0,171,341,0.0,60.0
4338,75.0,0,512,0.0,61.0
4339,43.0,0,341,0.0,60.0
4340,36.0,0,341,0.0,60.0
4341,67.0,0,20,0.0,52.0
4342,38.0,0,341,0.0,69.0
4343,46.0,0,341,0.0,69.0
4344,50.0,0,341,0.0,69.0
4345,58.0,0,341,0.0,69.0
4346,70.0,0,512,0.0,64.0
4347,82.0,0,512,0.0,83.0
4348,48.0,341,342,0.0,61.0
4349,60.0,0,342,0.0,61.0
4350,58.0,0,341,0.0,58.0
4351,50.0,0,341,0.0,62.0
4352,84.0,0,512,0.0,87.0
4353,72.0,171,512,0.0,68.0
4354,38.0,0,341,0.0,62.0
4355,46.0,171,341,0.0,58.0
4356,79.0,341,1024,0.0,64.0
4357,50.0,0,341,0.0,66.0
4358,57.0,0,341,0.0,66.0
4359,38.0,0,341,0.0,66.0
4360,45.0,0,341,0.0,66.0
4361,46.0,341,342,0.0,58.0
4362,58.0,0,342,0.0,58.0
4363,45.0,341,0,0.0,61.0
4364,38.0,0,0,0.0,61.0
4365,50.0,0,0,0.0,61.0
4366,57.0,0,0,0.0,61.0
4367,86.0,0,1536,0.0,90.0
4368,78.0,171,0,0.0,63.0
4369,74.0,0,0,0.0,57.0
4370,66.0,341,1536,0.0,58.0
4371,58.0,0,342,0.0,55.0
4372,46.0,341,342,0.0,54.0
4373,57.0,0,341,0.0,52.0
4374,50.0,171,341,0.0,56.0
4375,38.0,0,341,0.0,55.0
4376,62.0,0,512,0.0,45.0
4377,81.0,0,512,0.0,82.0
4378,69.0,0,512,0.0,63.0
4379,45.0,0,341,0.0,51.0
4380,43.0,0,341,0.0,58.0
4381,71.0,0,512,0.0,58.0
4382,67.0,0,512,0.0,52.0
4383,79.0,341,512,0.0,58.0
4384,55.0,0,512,0.0,58.0
4385,83.0,0,512,0.0,77.0
4386,44.0,341,342,0.0,51.0
4387,43.0,171,341,0.0,48.0
4388,67.0,171,512,0.0,55.0
4389,79.0,0,512,0.0,74.0
4390,60.0,85,256,0.0,68.0
4391,36.0,341,0,0.0,36.0
4392,48.0,0,532,0.0,68.0
4393,72.0,85,256,0.0,60.0
4394,36.0,171,341,0.0,34.0
4395,51.0,171,532,0.0,55.0
4396,56.0,0,341,0.0,48.0
4397,36.0,0,341,0.0,38.0
4398,60.0,0,512,0.0,58.0
4399,36.0,0,0,0.0,34.0
4400,58.0,341,342,0.0,29.0
4401,63.0,0,512,0.0,62.0
4402,56.0,171,341,0.0,27.0
4403,84.0,85,256,0.0,66.0
4404,60.0,171,532,0.0,52.0
4405,48.0,341,0,0.0,36.0
4406,56.0,0,512,0.0,31.0
4407,72.0,256,512,0.0,58.0
4408,68.0,0,532,0.0,48.0
4409,63.0,0,532,0.0,64.0
4410,75.0,341,0,0.0,51.0
4411,48.0,171,341,0.0,34.0
4412,72.0,171,532,0.0,50.0
4413,65.0,0,532,0.0,68.0
4414,56.0,0,341,0.0,31.0
4415,48.0,0,341,0.0,38.0
4416,80.0,171,0,0.0,53.0
4417,58.0,341,342,0.0,29.0
4418,48.0,0,342,0.0,36.0
4419,56.0,0,341,0.0,27.0
4420,48.0,171,341,0.0,34.0
4421,84.0,0,512,0.0,64.0
4422,36.0,0,341,0.0,38.0
4423,68.0,341,512,0.0,30.0
4424,66.0,0,1556,0.0,71.0
4425,87.0,0,532,0.0,66.0
4426,75.0,0,532,0.0,54.0
4427,36.0,341,342,0.0,36.0
4428,36.0,171,341,0.0,34.0
4429,65.0,171,532,0.0,57.0
4430,89.0,0,532,0.0,68.0
4431,77.0,0,532,0.0,56.0
4432,56.0,341,341,0.0,31.0
4433,36.0,341,0,0.0,36.0
4434,68.0,0,341,0.0,40.0
4435,58.0,0,342,0.0,29.0
4436,70.0,0,342,0.0,38.0
4437,68.0,342,341,0.0,36.0
4438,56.0,0,341,0.0,27.0
4439,36.0,0,341,0.0,34.0
4440,48.0,341,341,0.0,38.0
4441,57.0,0,512,0.0,31.0
4442,69.0,0,512,0.0,40.0
4443,78.0,0,1536,0.0,57.0
4444,90.0,0,1556,0.0,70.0
4445,63.0,0,1556,0.0,55.0
4446,48.0,171,0,0.0,34.0
4447,84.0,0,3072,0.0,54.0
4448,48.0,0,0,0.0,38.0
4449,89.0,0,532,0.0,70.0
4450,60.0,0,532,0.0,48.0
4451,77.0,171,532,0.0,57.0
4452,48.0,341,0,0.0,36.0
4453,69.0,0,341,0.0,40.0
4454,57.0,0,341,0.0,31.0
4455,87.0,0,532,0.0,68.0
4456,54.0,341,532,0.0,47.0
4457,75.0,0,532,0.0,56.0
4458,48.0,171,0,0.0,34.0
4459,70.0,0,342,0.0,38.0
4460,58.0,0,342,0.0,29.0
4461,84.0,0,1024,0.0,56.0
4462,57.0,0,341,0.0,27.0
4463,69.0,0,341,0.0,36.0
4464,51.0,171,532,0.0,45.0
4465,78.0,0,532,0.0,54.0
4466,90.0,0,532,0.0,65.0
4467,36.0,0,341,0.0,43.0
4468,58.0,0,512,0.0,33.0
4469,70.0,0,512,0.0,38.0
4470,50.0,341,532,0.0,51.0
4471,36.0,341,342,0.0,41.0
4472,36.0,171,341,0.0,39.0
4473,89.0,0,1024,0.0,56.0
4474,82.0,0,1024,0.0,45.0
4475,74.0,85,256,0.0,60.0
4476,77.0,0,1024,0.0,45.0
4477,53.0,171,532,0.0,55.0
4478,58.0,0,341,0.0,48.0
4479,36.0,0,341,0.0,43.0
4480,62.0,0,0,0.0,52.0
4481,60.0,0,342,0.0,34.0
4482,36.0,341,342,0.0,41.0
4483,58.0,171,341,0.0,32.0
4484,36.0,0,341,0.0,39.0
4485,65.0,171,512,0.0,62.0
4486,86.0,85,256,0.0,57.0
4487,48.0,341,0,0.0,41.0
4488,74.0,171,0,0.0,50.0
4489,58.0,0,512,0.0,36.0
4490,65.0,0,532,0.0,64.0
4491,70.0,0,532,0.0,48.0
4492,48.0,171,0,0.0,39.0
4493,77.0,0,512,0.0,60.0
4494,67.0,0,532,0.0,68.0
4495,48.0,0,341,0.0,43.0
4496,58.0,341,341,0.0,36.0
4497,82.0,0,512,0.0,62.0
4498,77.0,0,532,0.0,51.0
4499,60.0,341,342,0.0,34.0
4500,48.0,0,342,0.0,41.0
4501,48.0,0,341,0.0,39.0
4502,58.0,171,341,0.0,32.0
4503,82.0,171,532,0.0,53.0
4504,86.0,341,20,0.0,54.0
4505,36.0,341,0,0.0,41.0
4506,70.0,0,512,0.0,35.0
4507,68.0,0,1556,0.0,71.0
4508,77.0,0,532,0.0,54.0
4509,89.0,0,532,0.0,71.0
4510,36.0,341,0,0.0,43.0
4511,79.0,0,532,0.0,56.0
4512,67.0,171,532,0.0,57.0
4513,91.0,0,532,0.0,73.0
4514,58.0,0,341,0.0,36.0
4515,70.0,0,341,0.0,45.0
4516,60.0,341,342,0.0,34.0
4517,72.0,0,342,0.0,43.0
4518,36.0,0,0,0.0,39.0
4519,58.0,342,341,0.0,32.0
4520,70.0,0,341,0.0,41.0
4521,48.0,0,341,0.0,43.0
4522,80.0,0,1536,0.0,57.0
4523,59.0,341,512,0.0,36.0
4524,71.0,0,512,0.0,45.0
4525,92.0,0,1556,0.0,75.0
4526,65.0,0,1556,0.0,55.0
4527,48.0,341,342,0.0,41.0
4528,48.0,171,341,0.0,39.0
4529,79.0,0,532,0.0,57.0
4530,91.0,0,532,0.0,70.0
4531,62.0,171,532,0.0,48.0
4532,71.0,0,341,0.0,45.0
4533,48.0,0,0,0.0,41.0
4534,59.0,341,341,0.0,36.0
4535,56.0,0,532,0.0,47.0
4536,89.0,0,532,0.0,68.0
4537,77.0,0,532,0.0,56.0
4538,72.0,0,342,0.0,43.0
4539,48.0,0,0,0.0,39.0
4540,60.0,341,342,0.0,34.0
4541,71.0,171,341,0.0,41.0
4542,86.0,0,1024,0.0,56.0
4543,59.0,0,341,0.0,32.0
4544,80.0,0,532,0.0,54.0
4545,92.0,0,532,0.0,65.0
4546,53.0,171,532,0.0,45.0
4547,36.0,0,341,0.0,43.0
4548,72.0,0,512,0.0,38.0
4549,60.0,341,512,0.0,33.0
4550,52.0,0,532,0.0,45.0
4551,36.0,171,0,0.0,39.0
4552,76.0,85,256,0.0,58.0
4553,84.0,0,1024,0.0,45.0
4554,79.0,0,1024,0.0,45.0
4555,91.0,0,1024,0.0,56.0
4556,55.0,171,532,0.0,49.0
4557,36.0,0,341,0.0,43.0
4558,60.0,0,341,0.0,42.0
4559,64.0,0,512,0.0,52.0
4560,36.0,341,342,0.0,41.0
4561,61.0,0,342,0.0,34.0
4562,88.0,85,256,0.0,57.0
4563,67.0,0,512,0.0,56.0
4564,36.0,171,341,0.0,39.0
4565,60.0,0,0,0.0,36.0
4566,64.0,171,532,0.0,46.0
4567,48.0,341,0,0.0,41.0
4568,76.0,256,512,0.0,58.0
4569,72.0,0,532,0.0,48.0
4570,67.0,0,532,0.0,58.0
4571,48.0,171,0,0.0,39.0
4572,79.0,171,512,0.0,60.0
4573,48.0,0,0,0.0,43.0
4574,76.0,0,532,0.0,50.0
4575,68.0,0,532,0.0,62.0
4576,60.0,0,341,0.0,36.0
4577,84.0,0,0,0.0,53.0
4578,79.0,0,532,0.0,51.0
4579,48.0,171,0,0.0,39.0
4580,61.0,341,342,0.0,34.0
4581,60.0,341,0,0.0,35.0
4582,88.0,0,20,0.0,53.0
4583,36.0,0,341,0.0,43.0
4584,91.0,0,512,0.0,67.0
4585,70.0,0,1536,0.0,65.0
4586,36.0,341,342,0.0,40.0
4587,72.0,0,512,0.0,64.0
4588,36.0,0,0,0.0,41.0
4589,89.0,171,512,0.0,55.0
4590,92.0,0,512,0.0,70.0
4591,60.0,0,512,0.0,34.0
4592,48.0,0,512,0.0,26.0
4593,36.0,342,0,0.0,36.0
4594,48.0,341,341,0.0,39.0
4595,48.0,341,342,0.0,36.0
4596,48.0,342,341,0.0,34.0
4597,85.0,0,2048,0.0,58.0
4598,91.0,0,2048,0.0,58.0
4599,94.0,341,2048,0.0,74.0
4600,73.0,0,2048,0.0,52.0
4601,79.0,0,2048,0.0,52.0
4602,82.0,0,2048,0.0,64.0
4603,48.0,0,341,0.0,28.0
4604,48.0,341,342,0.0,34.0
4605,48.0,342,341,0.0,32.0
4606,60.0,0,1044,0.0,60.0
4607,36.0,341,0,0.0,33.0
4608,84.0,341,2048,0.0,36.0
4609,89.0,0,2048,0.0,45.0
4610,93.0,0,2048,0.0,59.0
4611,36.0,341,0,0.0,34.0
4612,81.0,0,2048,0.0,49.0
4613,72.0,0,2048,0.0,30.0
4614,77.0,0,2048,0.0,37.0
4615,36.0,341,0,0.0,33.0
4616,65.0,341,1556,0.0,56.0
4617,36.0,171,0,0.0,31.0
4618,67.0,171,532,0.0,60.0
4619,48.0,341,341,0.0,34.0
4620,68.0,0,532,0.0,58.0
4621,48.0,171,0,0.0,31.0
4622,73.0,0,2048,0.0,31.0
4623,77.0,341,0,0.0,43.0
4624,80.0,0,0,0.0,43.0
4625,92.0,0,2048,0.0,61.0
4626,85.0,0,2048,0.0,46.0
4627,48.0,0,0,0.0,34.0
4628,89.0,0,2048,0.0,46.0
4629,65.0,0,20,0.0,30.0
4630,61.0,0,532,0.0,53.0
4631,48.0,341,342,0.0,33.0
4632,48.0,171,341,0.0,31.0
4633,65.0,171,532,0.0,51.0
4634,48.0,341,0,0.0,33.0
4635,48.0,342,0,0.0,31.0
4636,68.0,0,2048,0.0,30.0
4637,71.0,0,2048,0.0,43.0
4638,83.0,0,2048,0.0,57.0
4639,48.0,341,0,0.0,33.0
4640,48.0,342,0,0.0,31.0
4641,60.0,0,2048,0.0,60.0
4642,48.0,341,341,0.0,30.0
4643,48.0,341,342,0.0,27.0
4644,48.0,342,341,0.0,25.0
4645,76.0,0,2048,0.0,43.0
4646,79.0,0,2048,0.0,43.0
4647,84.0,0,2048,0.0,55.0
4648,67.0,341,2048,0.0,30.0
4649,72.0,0,2048,0.0,43.0
4650,64.0,0,2048,0.0,30.0
4651,48.0,341,341,0.0,28.0
4652,48.0,341,342,0.0,25.0
4653,48.0,342,341,0.0,23.0
4654,36.0,0,2068,0.0,48.0
4655,48.0,341,0,0.0,32.0
4656,48.0,342,0,0.0,30.0
4657,70.0,0,2048,0.0,41.0
4658,67.0,0,2048,0.0,29.0
4659,64.0,0,2048,0.0,29.0
4660,61.0,0,2048,0.0,29.0
4661,82.0,0,2048,0.0,53.0
4662,79.0,0,2048,0.0,41.0
4663,76.0,0,2048,0.0,41.0
4664,73.0,0,2048,0.0,41.0
4665,48.0,341,341,0.0,34.0
4666,41.0,341,1556,0.0,55.0
4667,48.0,171,0,0.0,30.0
4668,48.0,0,0,0.0,34.0
4669,43.0,171,532,0.0,52.0
4670,48.0,341,0,0.0,32.0
4671,45.0,341,532,0.0,57.0
4672,48.0,171,0,0.0,30.0
4673,69.0,0,2048,0.0,40.0
4674,65.0,0,2048,0.0,29.0
4675,60.0,0,0,0.0,28.0
4676,81.0,0,2048,0.0,51.0
4677,77.0,0,0,0.0,39.0
4678,48.0,0,0,0.0,34.0
4679,72.0,341,0,0.0,39.0
4680,41.0,171,1044,0.0,55.0
4681,48.0,171,0,0.0,30.0
4682,48.0,0,0,0.0,25.0
4683,43.0,171,532,0.0,52.0
4684,44.0,341,532,0.0,57.0
4685,48.0,341,342,0.0,32.0
4686,68.0,0,0,0.0,40.0
4687,65.0,0,0,0.0,31.0
4688,80.0,0,2048,0.0,49.0
4689,48.0,341,0,0.0,34.0
4690,77.0,0,0,0.0,51.0
4691,41.0,171,1044,0.0,57.0
4692,48.0,341,342,0.0,32.0
4693,48.0,0,0,0.0,34.0
4694,43.0,171,532,0.0,53.0
4695,48.0,341,0,0.0,32.0
4696,44.0,341,532,0.0,57.0
4697,48.0,171,341,0.0,30.0
4698,68.0,0,0,0.0,39.0
4699,73.0,0,2048,0.0,40.0
4700,56.0,0,0,0.0,19.0
4701,61.0,0,2048,0.0,20.0
4702,65.0,0,0,0.0,39.0
4703,41.0,171,532,0.0,58.0
4704,48.0,341,0,0.0,32.0
4705,37.0,0,532,0.0,53.0
4706,48.0,171,341,0.0,30.0
4707,41.0,171,532,0.0,49.0
4708,60.0,0,341,0.0,37.0
4709,48.0,341,0,0.0,32.0
4710,60.0,0,342,0.0,32.0
4711,60.0,0,341,0.0,30.0
4712,59.0,0,2048,0.0,30.0
4713,53.0,0,2048,0.0,19.0
4714,71.0,0,2048,0.0,49.0
4715,48.0,342,341,0.0,30.0
4716,60.0,341,0,0.0,32.0
4717,48.0,0,0,0.0,32.0
4718,48.0,0,0,0.0,30.0
4719,60.0,342,341,0.0,30.0
4720,55.0,0,0,0.0,22.0
4721,52.0,0,1024,0.0,20.0
4722,72.0,0,1024,0.0,52.0
4723,67.0,0,0,0.0,43.0
4724,64.0,0,1024,0.0,40.0
4725,36.0,0,2048,0.0,55.0
4726,60.0,0,341,0.0,34.0
4727,48.0,0,341,0.0,34.0
4728,48.0,0,342,0.0,32.0
4729,60.0,342,0,0.0,30.0
4730,58.0,0,1024,0.0,22.0
4731,61.0,341,1024,0.0,34.0
4732,73.0,0,1024,0.0,58.0
4733,48.0,341,0,0.0,34.0
4734,70.0,0,1024,0.0,43.0
4735,60.0,341,0,0.0,32.0
4736,60.0,171,171,0.0,41.0
4737,48.0,0,342,0.0,32.0
4738,72.0,0,512,0.0,57.0
4739,60.0,171,341,0.0,30.0
4740,48.0,0,341,0.0,30.0
4741,60.0,0,341,0.0,33.0
4742,48.0,0,341,0.0,33.0
4743,60.0,341,342,0.0,36.0
4744,48.0,0,342,0.0,35.0
4745,68.0,0,1536,0.0,43.0
4746,73.0,341,1024,0.0,66.0
4747,53.0,0,1536,0.0,28.0
4748,56.0,0,1536,0.0,28.0
4749,61.0,0,1024,0.0,49.0
4750,48.0,0,0,0.0,40.0
4751,60.0,341,0,0.0,41.0
4752,65.0,0,1536,0.0,43.0
4753,48.0,0,0,0.0,42.0
4754,60.0,341,0,0.0,44.0
4755,60.0,0,171,0.0,50.0
4756,48.0,171,0,0.0,44.0
4757,48.0,341,0,0.0,46.0
4758,60.0,0,0,0.0,50.0
4759,72.0,0,532,0.0,67.0
4760,73.0,0,312,0.0,77.0
4761,69.0,0,824,0.0,52.0
4762,66.0,171,824,0.0,52.0
4763,61.0,0,312,0.0,59.0
4764,54.0,0,824,0.0,37.0
4765,57.0,0,824,0.0,37.0
4766,60.0,0,171,0.0,55.0
4767,48.0,171,0,0.0,51.0
4768,48.0,0,0,0.0,60.0
4769,60.0,0,0,0.0,64.0
4770,72.0,0,532,0.0,71.0
4771,60.0,256,0,0.0,64.0
4772,48.0,0,0,0.0,60.0
4773,61.0,0,312,0.0,64.0
4774,58.0,0,824,0.0,42.0
4775,55.0,0,824,0.0,42.0
4776,73.0,341,312,0.0,81.0
4777,70.0,0,824,0.0,56.0
4778,67.0,171,824,0.0,56.0
4779,48.0,0,0,0.0,53.0
4780,60.0,0,0,0.0,66.0
4781,67.0,0,256,0.0,64.0
4782,55.0,256,256,0.0,60.0
4783,60.0,0,256,0.0,60.0
4784,72.0,256,256,0.0,64.0
4785,70.0,256,276,0.0,68.0
4786,58.0,0,276,0.0,59.0
4787,55.0,0,276,0.0,57.0
4788,67.0,256,276,0.0,66.0
4789,73.0,256,1024,0.0,81.0
4790,61.0,256,0,0.0,61.0
4791,58.0,256,276,0.0,55.0
4792,70.0,0,276,0.0,64.0
4793,77.0,0,512,0.0,80.0
4794,49.0,0,512,0.0,76.0
4795,37.0,0,512,0.0,76.0
4796,68.0,256,256,0.0,68.0
4797,56.0,0,256,0.0,59.0
4798,61.0,256,256,0.0,66.0
4799,73.0,0,1024,0.0,70.0
4800,49.0,0,0,0.0,76.0
4801,68.0,0,276,0.0,64.0
4802,56.0,256,276,0.0,55.0
4803,61.0,0,276,0.0,61.0
4804,73.0,0,512,0.0,70.0
4805,58.0,0,276,0.0,59.0
4806,70.0,256,276,0.0,68.0
4807,67.0,0,276,0.0,67.0
4808,55.0,256,276,0.0,58.0
4809,58.0,256,276,0.0,56.0
4810,70.0,0,276,0.0,65.0
4811,61.0,0,532,0.0,55.0
4812,73.0,256,532,0.0,73.0
4813,64.0,0,2048,0.0,64.0
4814,76.0,0,2048,0.0,89.0
4815,43.0,0,2048,0.0,76.0
4816,70.0,2304,256,0.0,68.0
4817,58.0,0,256,0.0,59.0
4818,61.0,0,256,0.0,61.0
4819,73.0,256,256,0.0,70.0
4820,63.0,0,256,0.0,63.0
4821,75.0,256,256,0.0,72.0
4822,77.0,0,256,0.0,74.0
4823,65.0,256,256,0.0,65.0
4824,61.0,0,256,0.0,63.0
4825,73.0,256,256,0.0,72.0
4826,70.0,0,256,0.0,70.0
4827,58.0,256,256,0.0,61.0
4828,61.0,0,256,0.0,59.0
4829,73.0,256,256,0.0,68.0
4830,65.0,256,256,0.0,65.0
4831,68.0,0,512,0.0,64.0
4832,53.0,0,512,0.0,76.0
4833,41.0,0,512,0.0,67.0
4834,72.0,0,256,0.0,72.0
4835,80.0,0,512,0.0,80.0
4836,60.0,256,256,0.0,63.0
4837,65.0,0,256,0.0,70.0
4838,77.0,0,1024,0.0,74.0
4839,53.0,0,0,0.0,67.0
4840,60.0,256,256,0.0,59.0
4841,72.0,0,256,0.0,68.0
4842,77.0,0,512,0.0,74.0
4843,61.0,0,256,0.0,63.0
4844,73.0,256,256,0.0,72.0
4845,65.0,0,512,0.0,65.0
4846,70.0,0,256,0.0,71.0
4847,58.0,256,256,0.0,62.0
4848,73.0,256,256,0.0,69.0
4849,61.0,0,256,0.0,60.0
4850,77.0,256,512,0.0,77.0
4851,65.0,0,512,0.0,59.0
4852,46.0,0,2048,0.0,67.0
4853,67.0,256,2048,0.0,64.0
4854,79.0,0,2048,0.0,89.0
4855,73.0,0,256,0.0,68.0
4856,61.0,2304,256,0.0,59.0
4857,65.0,0,256,0.0,61.0
4858,77.0,256,256,0.0,70.0
4859,79.0,256,256,0.0,73.0
4860,67.0,0,256,0.0,64.0
4861,77.0,306,206,0.0,73.0
4862,65.0,0,206,0.0,64.0
4863,65.0,0,206,0.0,61.0
4864,73.0,0,462,0.0,72.0
4865,77.0,256,206,0.0,70.0
4866,80.0,0,1024,0.0,75.0
4867,61.0,256,462,0.0,63.0
4868,68.0,256,1024,0.0,66.0
4869,68.0,0,306,0.0,66.0
4870,56.0,0,512,0.0,76.0
4871,63.0,0,206,0.0,64.0
4872,84.0,206,512,0.0,89.0
4873,72.0,0,512,0.0,64.0
4874,75.0,306,206,0.0,73.0
4875,44.0,0,512,0.0,67.0
4876,68.0,0,206,0.0,72.0
4877,75.0,0,206,0.0,70.0
4878,80.0,0,0,0.0,75.0
4879,56.0,256,462,0.0,63.0
4880,63.0,256,206,0.0,61.0
4881,82.0,0,512,0.0,80.0
4882,70.0,0,512,0.0,64.0
4883,77.0,306,206,0.0,73.0
4884,65.0,0,206,0.0,64.0
4885,61.0,0,512,0.0,76.0
4886,49.0,0,512,0.0,67.0
4887,73.0,0,0,0.0,64.0
4888,77.0,256,206,0.0,70.0
4889,61.0,0,462,0.0,63.0
4890,65.0,0,206,0.0,61.0
4891,68.0,206,1024,0.0,66.0
4892,67.0,0,306,0.0,66.0
4893,82.0,0,512,0.0,89.0
4894,73.0,306,206,0.0,73.0
4895,70.0,206,512,0.0,64.0
4896,43.0,0,512,0.0,67.0
4897,61.0,0,206,0.0,64.0
4898,55.0,0,512,0.0,76.0
4899,67.0,256,206,0.0,72.0
4900,73.0,256,206,0.0,70.0
4901,79.0,206,0,0.0,75.0
4902,55.0,0,462,0.0,63.0
4903,61.0,0,206,0.0,61.0
4904,60.0,0,512,0.0,64.0
4905,48.0,0,512,0.0,55.0
4906,80.0,0,512,0.0,80.0
4907,68.0,0,512,0.0,64.0
4908,75.0,306,206,0.0,73.0
4909,63.0,0,206,0.0,64.0
4910,60.0,0,206,0.0,63.0
4911,72.0,256,206,0.0,72.0
4912,75.0,0,206,0.0,70.0
4913,67.0,0,1024,0.0,66.0
4914,63.0,256,206,0.0,61.0
4915,65.0,0,306,0.0,66.0
4916,60.0,0,206,0.0,64.0
4917,72.0,306,206,0.0,73.0
4918,68.0,0,512,0.0,64.0
4919,80.0,0,512,0.0,89.0
4920,41.0,0,512,0.0,55.0
4921,53.0,0,512,0.0,64.0
4922,65.0,0,206,0.0,72.0
4923,53.0,256,462,0.0,63.0
4924,60.0,256,206,0.0,61.0
4925,77.0,0,0,0.0,75.0
4926,72.0,0,206,0.0,70.0
4927,58.0,0,512,0.0,64.0
4928,46.0,0,512,0.0,55.0
4929,79.0,0,512,0.0,80.0
4930,73.0,306,206,0.0,73.0
4931,67.0,0,512,0.0,64.0
4932,61.0,0,462,0.0,64.0
4933,58.0,0,206,0.0,63.0
4934,70.0,256,206,0.0,72.0
4935,65.0,206,1024,0.0,66.0
4936,73.0,0,206,0.0,70.0
4937,61.0,256,206,0.0,61.0
4938,77.0,206,0,0.0,75.0
4939,65.0,0,306,0.0,66.0
4940,53.0,0,512,0.0,64.0
4941,41.0,0,512,0.0,55.0
4942,80.0,0,512,0.0,89.0
4943,72.0,306,206,0.0,73.0
4944,68.0,0,512,0.0,64.0
4945,65.0,0,206,0.0,72.0
4946,60.0,0,462,0.0,64.0
4947,60.0,0,206,0.0,61.0
4948,77.0,0,0,0.0,80.0
4949,53.0,0,0,0.0,79.0
4950,72.0,256,206,0.0,70.0
4951,65.0,0,512,0.0,77.0
4952,67.0,0,512,0.0,64.0
4953,71.0,256,0,0.0,77.0
4954,74.0,256,256,0.0,79.0
4955,79.0,0,512,0.0,80.0
4956,62.0,0,316,0.0,78.0
4957,59.0,0,316,0.0,77.0
4958,74.0,0,256,0.0,76.0
4959,62.0,256,316,0.0,76.0
4960,71.0,256,256,0.0,75.0
4961,59.0,0,316,0.0,75.0
4962,67.0,256,256,0.0,73.0
4963,74.0,0,512,0.0,66.0
4964,79.0,0,512,0.0,82.0
4965,55.0,0,316,0.0,74.0
4966,65.0,256,256,0.0,72.0
4967,53.0,0,316,0.0,73.0
4968,67.0,0,0,0.0,68.0
4969,31.0,256,0,0.0,76.0
4970,43.0,0,0,0.0,64.0
4971,55.0,0,316,0.0,72.0
4972,65.0,0,256,0.0,69.0
4973,53.0,0,316,0.0,71.0
4974,62.0,0,256,0.0,68.0
4975,71.0,0,512,0.0,68.0
4976,74.0,0,512,0.0,68.0
4977,79.0,0,512,0.0,86.0
4978,50.0,256,316,0.0,70.0
4979,59.0,0,256,0.0,67.0
4980,47.0,256,316,0.0,69.0
4981,62.0,0,256,0.0,65.0
4982,50.0,256,316,0.0,68.0
4983,59.0,0,256,0.0,64.0
4984,47.0,0,316,0.0,67.0
4985,55.0,0,256,0.0,63.0
4986,67.0,0,512,0.0,70.0
4987,74.0,0,512,0.0,70.0
4988,79.0,0,512,0.0,88.0
4989,71.0,0,512,0.0,70.0
4990,43.0,256,316,0.0,66.0
4991,53.0,256,256,0.0,61.0
4992,41.0,0,316,0.0,65.0
4993,31.0,0,1024,0.0,76.0
4994,50.0,0,256,0.0,60.0
4995,43.0,0,0,0.0,64.0
4996,38.0,256,316,0.0,64.0
4997,24.0,0,256,0.0,80.0
4998,48.0,0,512,0.0,60.0
4999,36.0,256,256,0.0,65.0
5000,43.0,256,256,0.0,66.0
5001,55.0,0,256,0.0,65.0
5002,48.0,256,256,0.0,67.0
5003,60.0,0,256,0.0,68.0
5004,64.0,256,171,0.0,70.0
5005,52.0,0,171,0.0,69.0
5006,55.0,171,170,0.0,69.0
5007,67.0,0,170,0.0,72.0
5008,72.0,170,171,0.0,73.0
5009,60.0,0,171,0.0,70.0
5010,76.0,171,171,0.0,75.0
5011,64.0,0,171,0.0,71.0
5012,67.0,171,170,0.0,72.0
5013,79.0,0,170,0.0,77.0
5014,72.0,170,171,0.0,72.0
5015,84.0,0,171,0.0,78.0
5016,76.0,171,512,0.0,73.0
5017,88.0,0,512,0.0,80.0
5018,70.0,0,512,0.0,60.0
5019,58.0,0,512,0.0,55.0
5020,60.0,0,512,0.0,55.0
5021,55.0,0,512,0.0,55.0
5022,48.0,0,512,0.0,72.0
5023,64.0,0,512,0.0,69.0
5024,76.0,0,512,0.0,71.0
5025,72.0,0,512,0.0,71.0
5026,84.0,0,512,0.0,92.0
5027,82.0,1024,512,0.0,71.0
5028,80.0,0,1024,0.0,64.0
5029,53.0,0,1024,0.0,64.0
5030,84.0,512,512,0.0,58.0
5031,89.0,0,1024,0.0,85.0
5032,56.0,0,1024,0.0,64.0
5033,60.0,0,512,0.0,58.0
5034,53.0,0,512,0.0,53.0
5035,77.0,512,512,0.0,53.0
5036,68.0,0,1556,0.0,64.0
5037,65.0,0,1556,0.0,64.0
5038,41.0,0,2048,0.0,64.0
5039,72.0,0,512,0.0,47.0
5040,48.0,512,512,0.0,47.0
5041,79.0,0,532,0.0,80.0
5042,67.0,0,532,0.0,64.0
5043,80.0,0,532,0.0,80.0
5044,68.0,512,532,0.0,64.0
5045,53.0,0,1024,0.0,72.0
5046,65.0,0,512,0.0,61.0
5047,73.0,0,512,0.0,52.0
5048,77.0,512,512,0.0,76.0
5049,41.0,0,1024,0.0,5.0
5050,49.0,0,512,0.0,52.0
5051,44.0,0,512,0.0,48.0
5052,68.0,0,512,0.0,48.0
5053,61.0,512,532,0.0,58.0
5054,73.0,0,532,0.0,72.0
5055,65.0,0,512,0.0,42.0
5056,41.0,0,512,0.0,42.0
5057,29.0,0,2048,0.0,64.0
5058,65.0,0,20,0.0,3.0
5059,77.0,0,20,0.0,3.0
5060,80.0,512,1024,0.0,3.0
5061,84.0,0,512,0.0,58.0
5062,89.0,0,1024,0.0,80.0
5063,53.0,512,0,0.0,53.0
5064,56.0,0,1024,0.0,55.0
5065,60.0,512,512,0.0,58.0
5066,77.0,0,512,0.0,53.0
5067,68.0,0,1556,0.0,64.0
5068,72.0,512,20,0.0,47.0
5069,41.0,0,2048,0.0,64.0
5070,48.0,0,512,0.0,47.0
5071,67.0,0,532,0.0,64.0
5072,79.0,0,532,0.0,80.0
5073,80.0,0,532,0.0,80.0
5074,68.0,512,532,0.0,64.0
5075,65.0,0,512,0.0,61.0
5076,73.0,512,0,0.0,72.0
5077,77.0,0,512,0.0,76.0
5078,41.0,0,1024,0.0,55.0
5079,49.0,512,512,0.0,52.0
5080,53.0,0,1024,0.0,72.0
5081,68.0,0,512,0.0,48.0
5082,44.0,0,512,0.0,48.0
5083,61.0,0,532,0.0,58.0
5084,41.0,0,512,0.0,42.0
5085,65.0,0,512,0.0,42.0
5086,29.0,0,2048,0.0,64.0
5087,77.0,512,532,0.0,68.0
5088,88.0,0,1024,0.0,68.0
5089,84.0,0,512,0.0,58.0
5090,76.0,512,1024,0.0,64.0
5091,64.0,0,1024,0.0,5.0
5092,52.0,0,1024,0.0,55.0
5093,60.0,512,512,0.0,58.0
5094,67.0,0,1536,0.0,64.0
5095,72.0,0,1536,0.0,80.0
5096,79.0,0,0,0.0,80.0
5097,55.0,0,512,0.0,53.0
5098,40.0,0,2048,0.0,64.0
5099,52.0,0,512,0.0,47.0
5100,76.0,512,512,0.0,47.0
5101,67.0,0,512,0.0,64.0
5102,48.0,0,2048,0.0,55.0
5103,78.0,0,512,0.0,80.0
5104,66.0,0,512,0.0,64.0
5105,48.0,512,512,0.0,52.0
5106,51.0,0,1024,0.0,61.0
5107,39.0,0,1024,0.0,55.0
5108,75.0,0,512,0.0,76.0
5109,72.0,0,512,0.0,52.0
5110,63.0,0,512,0.0,61.0
5111,66.0,0,512,0.0,48.0
5112,60.0,512,512,0.0,58.0
5113,72.0,0,512,0.0,72.0
5114,42.0,0,512,0.0,48.0
5115,63.0,0,512,0.0,54.0
5116,39.0,512,512,0.0,42.0
5117,75.0,0,512,0.0,68.0
5118,27.0,0,2048,0.0,64.0
5119,58.0,0,512,0.0,58.0
5120,50.0,0,1024,0.0,55.0
5121,86.0,0,1024,0.0,68.0
5122,62.0,0,1024,0.0,5.0
5123,74.0,0,1024,0.0,64.0
5124,82.0,512,512,0.0,58.0
5125,65.0,0,1536,0.0,64.0
5126,70.0,0,1536,0.0,80.0
5127,77.0,0,512,0.0,53.0
5128,53.0,512,512,0.0,53.0
5129,50.0,0,512,0.0,47.0
5130,74.0,512,512,0.0,47.0
5131,77.0,0,512,0.0,80.0
5132,41.0,512,2048,0.0,64.0
5133,65.0,0,512,0.0,64.0
5134,64.0,0,512,0.0,64.0
5135,76.0,0,512,0.0,80.0
5136,61.0,0,512,0.0,60.0
5137,49.0,0,1024,0.0,61.0
5138,37.0,0,1024,0.0,55.0
5139,73.0,0,512,0.0,74.0
5140,70.0,512,512,0.0,52.0
5141,46.0,0,512,0.0,52.0
5142,70.0,0,512,0.0,69.0
5143,58.0,0,512,0.0,55.0
5144,67.0,0,512,0.0,48.0
5145,43.0,512,512,0.0,48.0
5146,77.0,0,512,0.0,80.0
5147,37.0,0,0,0.0,64.0
5148,25.0,0,2048,0.0,64.0
5149,65.0,512,512,0.0,64.0
5150,61.0,0,512,0.0,42.0
5151,55.0,171,170,0.0,64.0
5152,58.0,170,171,0.0,67.0
5153,67.0,171,0,0.0,72.0
5154,70.0,170,171,0.0,75.0
5155,79.0,171,512,0.0,78.0
5156,64.0,0,1536,0.0,64.0
5157,76.0,0,1536,0.0,80.0
5158,46.0,0,2048,0.0,55.0
5159,77.0,0,512,0.0,80.0
5160,65.0,512,512,0.0,64.0
5161,49.0,512,2048,0.0,55.0
5162,60.0,0,512,0.0,64.0
5163,36.0,0,512,0.0,64.0
5164,48.0,0,512,0.0,64.0
5165,76.0,512,512,0.0,80.0
5166,64.0,0,512,0.0,64.0
5167,72.0,0,512,0.0,64.0
5168,73.0,0,512,0.0,74.0
5169,61.0,0,512,0.0,60.0
5170,46.0,512,512,0.0,61.0
5171,70.0,512,0,0.0,55.0
5172,43.0,0,512,0.0,58.0
5173,58.0,0,512,0.0,69.0
5174,67.0,0,512,0.0,58.0
5175,36.0,512,512,0.0,55.0
5176,65.0,0,512,0.0,64.0
5177,60.0,0,512,0.0,55.0
5178,77.0,0,512,0.0,80.0
5179,24.0,0,2048,0.0,64.0
5180,55.0,171,170,0.0,64.0
5181,58.0,170,171,0.0,64.0
5182,67.0,171,171,0.0,64.0
5183,67.0,171,170,0.0,64.0
5184,70.0,170,171,0.0,64.0
5185,64.0,0,1536,0.0,64.0
5186,79.0,171,512,0.0,64.0
5187,55.0,256,256,0.0,64.0
5188,76.0,0,1536,0.0,80.0
5189,58.0,0,256,0.0,66.0
5190,46.0,512,2048,0.0,52.0
5191,48.0,0,2048,0.0,52.0
5192,60.0,256,256,0.0,68.0
5193,77.0,0,532,0.0,80.0
5194,65.0,256,532,0.0,64.0
5195,61.0,256,256,0.0,70.0
5196,64.0,0,312,0.0,64.0
5197,76.0,0,312,0.0,80.0
5198,58.0,256,256,0.0,69.0
5199,55.0,0,256,0.0,67.0
5200,58.0,256,256,0.0,66.0
5201,79.0,0,532,0.0,83.0
5202,67.0,256,532,0.0,69.0
5203,56.0,256,256,0.0,64.0
5204,77.0,0,312,0.0,64.0
5205,65.0,0,312,0.0,78.0
5206,53.0,256,256,0.0,63.0
5207,60.0,0,256,0.0,64.0
5208,72.0,0,0,0.0,64.0
5209,48.0,256,256,0.0,61.0
5210,65.0,0,256,0.0,67.0
5211,77.0,0,256,0.0,67.0
5212,44.0,256,256,0.0,60.0
5213,79.0,0,256,0.0,70.0
5214,67.0,0,256,0.0,70.0
5215,84.0,0,532,0.0,80.0
5216,80.0,0,256,0.0,70.0
5217,68.0,0,256,0.0,70.0
5218,65.0,256,256,0.0,68.0
5219,77.0,0,256,0.0,68.0
5220,74.0,0,256,0.0,67.0
5221,62.0,256,256,0.0,67.0
5222,43.0,0,1024,0.0,64.0
5223,77.0,0,256,0.0,65.0
5224,50.0,0,1024,0.0,52.0
5225,53.0,256,1024,0.0,52.0
5226,65.0,256,256,0.0,65.0
5227,80.0,0,512,0.0,64.0
5228,62.0,256,256,0.0,64.0
5229,71.0,0,1536,0.0,64.0
5230,68.0,256,512,0.0,64.0
5231,83.0,0,1536,0.0,80.0
5232,65.0,0,256,0.0,66.0
5233,67.0,256,256,0.0,68.0
5234,72.0,0,532,0.0,64.0
5235,84.0,256,532,0.0,80.0
5236,68.0,0,256,0.0,70.0
5237,71.0,256,312,0.0,64.0
5238,83.0,0,312,0.0,80.0
5239,65.0,256,256,0.0,69.0
5240,62.0,0,256,0.0,67.0
5241,65.0,256,256,0.0,66.0
5242,86.0,0,532,0.0,83.0
5243,74.0,256,532,0.0,69.0
5244,63.0,256,256,0.0,64.0
5245,72.0,0,312,0.0,78.0
5246,84.0,0,312,0.0,64.0
5247,67.0,0,256,0.0,69.0
5248,60.0,256,256,0.0,63.0
5249,79.0,0,0,0.0,64.0
5250,55.0,0,256,0.0,61.0
5251,84.0,0,256,0.0,71.0
5252,72.0,256,256,0.0,71.0
5253,86.0,0,256,0.0,73.0
5254,74.0,0,256,0.0,73.0
5255,51.0,256,256,0.0,60.0
5256,91.0,0,532,0.0,80.0
5257,75.0,0,256,0.0,75.0
5258,87.0,0,256,0.0,84.0
5259,84.0,0,256,0.0,73.0
5260,72.0,256,256,0.0,73.0
5261,81.0,0,256,0.0,72.0
5262,69.0,256,256,0.0,72.0
5263,72.0,0,256,0.0,70.0
5264,84.0,256,256,0.0,70.0
5265,87.0,0,128,0.0,69.0
5266,75.0,256,128,0.0,69.0
5267,69.0,256,256,0.0,55.0
5268,57.0,0,256,0.0,52.0
5269,60.0,256,0,0.0,54.0
5270,78.0,0,1536,0.0,64.0
5271,85.0,0,1536,0.0,64.0
5272,90.0,256,1536,0.0,80.0
5273,50.0,0,1536,0.0,64.0
5274,72.0,0,256,0.0,57.0
5275,67.0,0,512,0.0,64.0
5276,79.0,0,512,0.0,80.0
5277,62.0,0,256,0.0,56.0
5278,74.0,256,256,0.0,59.0
5279,75.0,0,256,0.0,61.0
5280,63.0,0,256,0.0,58.0
5281,72.0,256,256,0.0,59.0
5282,60.0,0,256,0.0,56.0
5283,57.0,0,256,0.0,54.0
5284,69.0,256,256,0.0,57.0
5285,72.0,256,128,0.0,55.0
5286,60.0,0,256,0.0,52.0
5287,63.0,256,128,0.0,64.0
5288,75.0,0,256,0.0,64.0
5289,78.0,0,1536,0.0,80.0
5290,66.0,256,1536,0.0,64.0
5291,81.0,256,256,0.0,67.0
5292,38.0,0,1536,0.0,80.0
5293,45.0,0,1536,0.0,55.0
5294,50.0,0,1536,0.0,55.0
5295,84.0,256,256,0.0,69.0
5296,90.0,0,512,0.0,80.0
5297,78.0,0,512,0.0,64.0
5298,87.0,256,256,0.0,72.0
5299,89.0,0,256,0.0,5.0
5300,82.0,256,256,0.0,71.0
5301,77.0,256,256,0.0,69.0
5302,82.0,256,256,0.0,66.0
5303,89.0,256,0,0.0,64.0
5304,62.0,0,1024,0.0,81.0
5305,58.0,0,1024,0.0,64.0
5306,50.0,0,1024,0.0,64.0
5307,82.0,0,0,0.0,80.0
5308,77.0,0,0,0.0,64.0
5309,61.0,0,341,0.0,89.0
5310,49.0,0,341,0.0,70.0
5311,70.0,256,256,0.0,61.0
5312,48.0,0,342,0.0,67.0
5313,60.0,85,342,0.0,85.0
5314,65.0,171,256,0.0,58.0
5315,70.0,85,256,0.0,55.0
5316,85.0,0,256,0.0,5.0
5317,78.0,256,256,0.0,71.0
5318,73.0,0,512,0.0,64.0
5319,73.0,256,256,0.0,69.0
5320,78.0,256,256,0.0,66.0
5321,85.0,0,0,0.0,70.0
5322,46.0,0,1365,0.0,64.0
5323,58.0,171,1365,0.0,81.0
5324,73.0,0,0,0.0,64.0
5325,78.0,0,0,0.0,80.0
5326,45.0,0,341,0.0,70.0
5327,57.0,0,341,0.0,89.0
5328,66.0,256,256,0.0,61.0
5329,44.0,85,342,0.0,67.0
5330,56.0,0,342,0.0,85.0
5331,61.0,171,256,0.0,58.0
5332,73.0,0,0,0.0,64.0
5333,66.0,85,256,0.0,55.0
5334,81.0,0,256,0.0,5.0
5335,73.0,256,256,0.0,68.0
5336,69.0,256,0,0.0,67.0
5337,54.0,171,1365,0.0,81.0
5338,73.0,256,256,0.0,65.0
5339,69.0,256,0,0.0,80.0
5340,42.0,0,1365,0.0,64.0
5341,40.0,0,341,0.0,70.0
5342,52.0,0,341,0.0,89.0
5343,61.0,256,256,0.0,59.0
5344,81.0,0,512,0.0,64.0
5345,38.0,85,342,0.0,67.0
5346,50.0,0,342,0.0,85.0
5347,57.0,171,256,0.0,57.0
5348,66.0,0,1024,0.0,64.0
5349,61.0,85,256,0.0,55.0
5350,59.0,0,256,0.0,1.0
5351,71.0,0,256,0.0,5.0
5352,68.0,256,256,0.0,68.0
5353,56.0,0,256,0.0,59.0
5354,65.0,0,256,0.0,66.0
5355,53.0,256,256,0.0,57.0
5356,68.0,256,256,0.0,64.0
5357,37.0,171,1365,0.0,64.0
5358,56.0,0,256,0.0,55.0
5359,49.0,0,1365,0.0,81.0
5360,68.0,0,0,0.0,64.0
5361,48.0,0,341,0.0,89.0
5362,36.0,0,341,0.0,70.0
5363,56.0,256,256,0.0,59.0
5364,68.0,0,256,0.0,68.0
5365,46.0,85,342,0.0,90.0
5366,34.0,0,342,0.0,72.0
5367,53.0,171,256,0.0,57.0
5368,65.0,0,256,0.0,66.0
5369,68.0,0,256,0.0,64.0
5370,72.0,0,1024,0.0,80.0
5371,32.0,0,341,0.0,76.0
5372,60.0,256,1024,0.0,64.0
5373,56.0,85,256,0.0,55.0
5374,44.0,171,341,0.0,93.0
5375,53.0,0,1024,0.0,64.0
5376,58.0,0,1024,0.0,64.0
5377,65.0,0,1024,0.0,67.0
5378,73.0,0,1024,0.0,85.0
5379,31.0,0,1024,0.0,94.0
5380,43.0,0,1024,0.0,82.0
5381,61.0,256,1024,0.0,67.0
5382,70.0,0,1024,0.0,67.0
5383,60.0,1024,768,0.0,64.0
5384,72.0,0,768,0.0,80.0
5385,61.0,768,256,0.0,64.0
5386,73.0,0,0,0.0,86.0
5387,36.0,0,1024,0.0,85.0
5388,24.0,0,1024,0.0,1.0
5389,48.0,0,1024,0.0,73.0
5390,64.0,0,1024,0.0,76.0
5391,55.0,256,1024,0.0,64.0
5392,58.0,0,1024,0.0,64.0
5393,61.0,0,1536,0.0,70.0
5394,52.0,1536,512,0.0,57.0
5395,64.0,0,512,0.0,66.0
5396,53.0,341,342,0.0,43.0
5397,41.0,0,1024,0.0,42.0
5398,66.0,512,1044,0.0,59.0
5399,65.0,342,105,0.0,42.0
5400,61.0,341,683,0.0,45.0
5401,66.0,85,256,0.0,58.0
5402,58.0,341,1024,0.0,40.0
5403,51.0,341,342,0.0,45.0
5404,61.0,342,341,0.0,42.0
5405,57.0,0,1024,0.0,40.0
5406,39.0,0,1024,0.0,35.0
5407,66.0,341,191,0.0,45.0
5408,60.0,341,1024,0.0,40.0
5409,60.0,0,0,0.0,59.0
5410,72.0,171,341,0.0,42.0
5411,57.0,171,532,0.0,59.0
5412,49.0,0,1024,0.0,44.0
5413,37.0,0,1024,0.0,35.0
5414,65.0,0,1024,0.0,40.0
5415,53.0,341,683,0.0,43.0
5416,63.0,171,341,0.0,42.0
5417,58.0,171,532,0.0,58.0
5418,49.0,341,532,0.0,56.0
5419,65.0,341,342,0.0,45.0
5420,34.0,0,1024,0.0,33.0
5421,61.0,0,1024,0.0,40.0
5422,70.0,171,341,0.0,42.0
5423,46.0,0,1024,0.0,42.0
5424,51.0,171,532,0.0,55.0
5425,53.0,341,342,0.0,45.0
5426,60.0,341,0,0.0,40.0
5427,65.0,342,341,0.0,42.0
5428,45.0,0,1024,0.0,40.0
5429,33.0,0,1024,0.0,31.0
5430,63.0,341,342,0.0,45.0
5431,48.0,0,2048,0.0,28.0
5432,72.0,342,341,0.0,33.0
5433,49.0,341,342,0.0,43.0
5434,34.0,341,1024,0.0,38.0
5435,53.0,342,341,0.0,42.0
5436,46.0,0,1024,0.0,35.0
5437,66.0,0,1044,0.0,59.0
5438,61.0,0,1365,0.0,40.0
5439,61.0,341,342,0.0,45.0
5440,65.0,342,105,0.0,42.0
5441,58.0,0,1024,0.0,40.0
5442,71.0,85,256,0.0,63.0
5443,51.0,341,342,0.0,45.0
5444,68.0,256,1024,0.0,40.0
5445,56.0,342,341,0.0,42.0
5446,44.0,0,1024,0.0,35.0
5447,32.0,0,1024,0.0,38.0
5448,71.0,0,1556,0.0,68.0
5449,63.0,341,342,0.0,45.0
5450,63.0,0,0,0.0,46.0
5451,59.0,171,341,0.0,42.0
5452,70.0,171,532,0.0,59.0
5453,71.0,341,532,0.0,66.0
5454,51.0,341,342,0.0,43.0
5455,30.0,0,1024,0.0,35.0
5456,42.0,0,1024,0.0,32.0
5457,75.0,0,1024,0.0,40.0
5458,54.0,171,341,0.0,42.0
5459,66.0,171,532,0.0,63.0
5460,63.0,341,342,0.0,29.0
5461,66.0,171,341,0.0,29.0
5462,59.0,0,0,0.0,34.0
5463,65.0,171,532,0.0,58.0
5464,54.0,341,342,0.0,45.0
5465,39.0,0,1024,0.0,32.0
5466,27.0,0,1024,0.0,44.0
5467,71.0,341,1024,0.0,40.0
5468,59.0,342,341,0.0,42.0
5469,66.0,0,1044,0.0,56.0
5470,66.0,341,342,0.0,45.0
5471,63.0,0,1024,0.0,40.0
5472,71.0,342,341,0.0,42.0
5473,29.0,341,683,0.0,40.0
5474,41.0,341,342,0.0,37.0
5475,58.0,0,1024,0.0,30.0
5476,46.0,342,341,0.0,33.0
5477,61.0,0,1024,0.0,30.0
5478,78.0,0,1044,0.0,62.0
5479,61.0,341,342,0.0,45.0
5480,77.0,341,788,0.0,62.0
5481,78.0,85,256,0.0,58.0
5482,70.0,342,341,0.0,42.0
5483,53.0,0,1024,0.0,30.0
5484,29.0,0,683,0.0,40.0
5485,41.0,341,342,0.0,40.0
5486,57.0,0,1024,0.0,30.0
5487,60.0,0,1024,0.0,44.0
5488,69.0,256,1024,0.0,40.0
5489,48.0,342,341,0.0,37.0
5490,78.0,0,1556,0.0,64.0
5491,57.0,341,342,0.0,32.0
5492,63.0,0,0,0.0,33.0
5493,72.0,171,341,0.0,44.0
5494,53.0,341,1024,0.0,35.0
5495,77.0,171,532,0.0,59.0
5496,78.0,0,582,0.0,59.0
5497,29.0,0,683,0.0,40.0
5498,41.0,341,342,0.0,38.0
5499,61.0,0,1024,0.0,48.0
5500,46.0,121,341,0.0,37.0
5501,58.0,0,1024,0.0,24.0
5502,77.0,221,482,0.0,56.0
5503,73.0,50,482,0.0,57.0
5504,61.0,291,342,0.0,45.0
5505,70.0,121,341,0.0,42.0
5506,53.0,341,1024,0.0,35.0
5507,75.0,221,482,0.0,57.0
5508,29.0,0,683,0.0,40.0
5509,41.0,341,342,0.0,40.0
5510,48.0,342,341,0.0,37.0
5511,60.0,0,1024,0.0,36.0
5512,77.0,0,1024,0.0,54.0
5513,69.0,0,1024,0.0,40.0
5514,57.0,341,1024,0.0,16.0
5515,63.0,341,342,0.0,45.0
5516,53.0,341,1024,0.0,35.0
5517,72.0,342,341,0.0,42.0
5518,46.0,0,341,0.0,33.0
5519,53.0,341,342,0.0,43.0
5520,34.0,0,683,0.0,50.0
5521,58.0,342,341,0.0,42.0
5522,61.0,341,0,0.0,40.0
5523,78.0,341,1024,0.0,58.0
5524,61.0,341,342,0.0,47.0
5525,77.0,0,768,0.0,58.0
5526,83.0,0,0,0.0,67.0
5527,70.0,342,341,0.0,41.0
5528,44.0,256,341,0.0,24.0
5529,63.0,341,0,0.0,48.0
5530,59.0,0,0,0.0,36.0
5531,56.0,0,0,0.0,36.0
5532,51.0,0,342,0.0,46.0
5533,63.0,342,0,0.0,46.0
5534,59.0,0,0,0.0,34.0
5535,56.0,0,0,0.0,49.0
5536,32.0,0,683,0.0,50.0
5537,71.0,0,1024,0.0,52.0
5538,63.0,0,341,0.0,44.0
5539,56.0,341,0,0.0,30.0
5540,63.0,0,342,0.0,40.0
5541,59.0,0,0,0.0,28.0
5542,56.0,0,0,0.0,28.0
5543,63.0,0,0,0.0,40.0
5544,68.0,171,341,0.0,40.0
5545,78.0,0,0,0.0,67.0
5546,56.0,0,0,0.0,38.0
5547,49.0,341,342,0.0,48.0
5548,71.0,341,1024,0.0,45.0
5549,56.0,342,341,0.0,47.0
5550,59.0,0,1024,0.0,38.0
5551,61.0,341,0,0.0,45.0
5552,68.0,341,342,0.0,52.0
5553,77.0,0,768,0.0,69.0
5554,73.0,342,341,0.0,46.0
5555,37.0,0,2048,0.0,50.0
5556,83.0,0,0,0.0,73.0
5557,66.0,0,0,0.0,53.0
5558,62.0,341,0,0.0,41.0
5559,59.0,0,0,0.0,41.0
5560,50.0,0,341,0.0,29.0
5561,62.0,342,0,0.0,39.0
5562,54.0,0,342,0.0,51.0
5563,66.0,0,0,0.0,51.0
5564,71.0,0,1024,0.0,35.0
5565,66.0,341,0,0.0,49.0
5566,59.0,0,0,0.0,37.0
5567,78.0,0,1024,0.0,55.0
5568,66.0,341,0,0.0,47.0
5569,59.0,0,0,0.0,35.0
5570,66.0,0,342,0.0,49.0
5571,59.0,0,0,0.0,33.0
5572,62.0,171,0,0.0,33.0
5573,66.0,0,0,0.0,45.0
5574,38.0,256,2048,0.0,55.0
5575,71.0,0,341,0.0,49.0
5576,78.0,171,512,0.0,66.0
5577,59.0,341,342,0.0,50.0
5578,74.0,0,683,0.0,41.0
5579,52.0,0,1024,0.0,35.0
5580,40.0,341,0,0.0,47.0
5581,62.0,342,341,0.0,50.0
5582,78.0,0,1024,0.0,64.0
5583,68.0,341,1024,0.0,44.0
5584,59.0,0,341,0.0,35.0
5585,62.0,0,341,0.0,35.0
5586,68.0,0,341,0.0,47.0
5587,68.0,0,0,0.0,49.0
5588,62.0,342,0,0.0,37.0
5589,59.0,0,0,0.0,37.0
5590,76.0,0,768,0.0,60.0
5591,52.0,0,1024,0.0,38.0
5592,62.0,0,0,0.0,38.0
5593,83.0,0,0,0.0,67.0
5594,71.0,0,0,0.0,50.0
5595,74.0,256,683,0.0,49.0
5596,59.0,341,342,0.0,40.0
5597,68.0,0,342,0.0,40.0
5598,62.0,342,341,0.0,40.0
5599,41.0,0,1024,0.0,50.0
5600,53.0,0,1024,0.0,41.0
5601,59.0,0,0,0.0,41.0
5602,62.0,0,0,0.0,41.0
5603,66.0,0,341,0.0,53.0
5604,62.0,342,0,0.0,43.0
5605,66.0,0,342,0.0,54.0
5606,59.0,0,0,0.0,43.0
5607,74.0,0,768,0.0,65.0
5608,54.0,0,1024,0.0,44.0
5609,42.0,341,1024,0.0,53.0
5610,83.0,0,0,0.0,69.0
5611,59.0,0,0,0.0,44.0
5612,66.0,0,341,0.0,55.0
5613,71.0,0,0,0.0,54.0
5614,62.0,0,0,0.0,44.0
5615,74.0,256,683,0.0,58.0
5616,59.0,341,342,0.0,48.0
5617,43.0,0,1024,0.0,55.0
5618,62.0,342,341,0.0,48.0
5619,55.0,0,1024,0.0,44.0
5620,62.0,0,0,0.0,46.0
5621,65.0,0,1024,0.0,56.0
5622,56.0,0,341,0.0,46.0
5623,59.0,0,341,0.0,46.0
5624,65.0,0,341,0.0,58.0
5625,56.0,341,342,0.0,47.0
5626,59.0,0,342,0.0,56.0
5627,62.0,0,342,0.0,47.0
5628,65.0,0,342,0.0,59.0
5629,74.0,0,768,0.0,72.0
5630,59.0,0,341,0.0,48.0
5631,62.0,0,341,0.0,48.0
5632,65.0,0,341,0.0,60.0
5633,44.0,341,1024,0.0,58.0
5634,56.0,342,341,0.0,48.0
5635,71.0,0,256,0.0,62.0
5636,83.0,85,256,0.0,74.0
5637,74.0,0,341,0.0,66.0
5638,57.0,341,342,0.0,56.0
5639,72.0,0,1024,0.0,63.0
5640,84.0,0,1024,0.0,75.0
5641,66.0,0,1024,0.0,61.0
5642,62.0,0,1024,0.0,49.0
5643,57.0,0,0,0.0,64.0
5644,45.0,0,1024,0.0,61.0
5645,60.0,342,341,0.0,56.0
5646,54.0,0,341,0.0,52.0
5647,50.0,0,0,0.0,53.0
5648,57.0,0,0,0.0,65.0
5649,57.0,342,0,0.0,66.0
5650,54.0,0,0,0.0,54.0
5651,50.0,0,0,0.0,54.0
5652,69.0,341,342,0.0,61.0
5653,66.0,0,683,0.0,70.0
5654,72.0,0,85,0.0,60.0
5655,38.0,0,1024,0.0,64.0
5656,78.0,85,256,0.0,66.0
5657,84.0,0,256,0.0,87.0
5658,37.0,0,341,0.0,64.0
5659,85.0,0,512,0.0,91.0
5660,77.0,0,512,0.0,76.0
5661,73.0,0,512,0.0,76.0
5662,65.0,0,512,0.0,52.0
5663,68.0,256,512,0.0,52.0
5664,50.0,341,342,0.0,61.0
5665,86.0,171,312,0.0,86.0
5666,74.0,0,312,0.0,64.0
5667,49.0,0,0,0.0,58.0
5668,61.0,0,0,0.0,70.0
5669,56.0,0,0,0.0,58.0
5670,49.0,0,0,0.0,56.0
5671,73.0,0,256,0.0,69.0
5672,65.0,0,256,0.0,52.0
5673,68.0,0,256,0.0,52.0
5674,77.0,341,256,0.0,69.0
5675,85.0,0,256,0.0,84.0
5676,50.0,341,342,0.0,53.0
5677,49.0,342,341,0.0,50.0
5678,49.0,341,341,0.0,47.0
5679,50.0,341,342,0.0,44.0
5680,49.0,342,341,0.0,41.0
5681,49.0,341,341,0.0,39.0
5682,50.0,341,342,0.0,36.0
5683,49.0,341,0,0.0,35.0
5684,42.0,0,341,0.0,35.0
5685,50.0,341,342,0.0,33.0
5686,49.0,341,0,0.0,35.0
5687,42.0,0,341,0.0,35.0
5688,50.0,341,342,0.0,33.0
5689,49.0,342,341,0.0,30.0
5690,42.0,0,341,0.0,35.0
5691,49.0,341,341,0.0,35.0
5692,50.0,341,342,0.0,33.0
5693,49.0,341,0,0.0,35.0
5694,42.0,0,341,0.0,35.0
5695,50.0,341,342,0.0,33.0
5696,85.0,0,256,0.0,44.0
5697,54.0,0,256,0.0,30.0
5698,93.0,171,256,0.0,42.0
5699,97.0,0,256,0.0,56.0
5700,73.0,0,256,0.0,30.0
5701,49.0,171,341,0.0,30.0
5702,49.0,0,341,0.0,35.0
5703,42.0,0,341,0.0,35.0
5704,54.0,341,512,0.0,30.0
5705,66.0,0,512,0.0,38.0
5706,73.0,0,512,0.0,33.0
5707,85.0,0,512,0.0,56.0
5708,57.0,0,512,0.0,30.0
5709,61.0,0,512,0.0,44.0
5710,81.0,0,512,0.0,42.0
5711,50.0,341,342,0.0,33.0
5712,53.0,0,262,0.0,30.0
5713,59.0,0,262,0.0,27.0
5714,86.0,0,262,0.0,52.0
5715,83.0,0,262,0.0,39.0
5716,62.0,0,262,0.0,40.0
5717,49.0,171,341,0.0,30.0
5718,65.0,0,512,0.0,38.0
5719,74.0,171,512,0.0,33.0
5720,66.0,0,256,0.0,38.0
5721,61.0,0,256,0.0,36.0
5722,57.0,0,256,0.0,24.0
5723,85.0,0,256,0.0,48.0
5724,81.0,0,256,0.0,36.0
5725,73.0,341,256,0.0,33.0
5726,54.0,0,256,0.0,30.0
5727,42.0,0,341,0.0,35.0
5728,49.0,0,341,0.0,35.0
5729,50.0,341,342,0.0,33.0
5730,61.0,0,256,0.0,30.0
5731,69.0,85,256,0.0,44.0
5732,66.0,0,256,0.0,30.0
5733,93.0,0,256,0.0,56.0
5734,81.0,256,0,0.0,56.0
5735,49.0,0,0,0.0,35.0
5736,42.0,0,341,0.0,35.0
5737,78.0,0,512,0.0,42.0
5738,54.0,0,512,0.0,30.0
5739,69.0,0,512,0.0,33.0
5740,57.0,0,512,0.0,44.0
5741,73.0,0,512,0.0,38.0
5742,61.0,0,512,0.0,30.0
5743,50.0,341,342,0.0,33.0
5744,60.0,0,262,0.0,21.0
5745,83.0,0,262,0.0,52.0
5746,56.0,0,262,0.0,27.0
5747,59.0,0,262,0.0,40.0
5748,80.0,171,262,0.0,39.0
5749,71.0,0,512,0.0,33.0
5750,49.0,171,341,0.0,30.0
5751,72.0,0,512,0.0,5.0
5752,69.0,341,256,0.0,33.0
5753,73.0,0,256,0.0,38.0
5754,61.0,0,256,0.0,30.0
5755,57.0,0,256,0.0,36.0
5756,54.0,0,256,0.0,24.0
5757,81.0,0,256,0.0,48.0
5758,78.0,0,256,0.0,36.0
5759,49.0,0,341,0.0,35.0
5760,42.0,0,341,0.0,35.0
5761,50.0,341,342,0.0,33.0
5762,66.0,0,256,0.0,33.0
5763,62.0,85,256,0.0,33.0
5764,78.0,0,256,0.0,42.0
5765,90.0,0,256,0.0,56.0
5766,49.0,342,341,0.0,30.0
5767,42.0,0,341,0.0,35.0
5768,50.0,0,341,0.0,35.0
5769,66.0,0,512,0.0,55.0
5770,54.0,0,512,0.0,38.0
5771,62.0,171,0,0.0,47.0
5772,52.0,341,342,0.0,33.0
5773,66.0,0,512,0.0,41.0
5774,54.0,0,512,0.0,29.0
5775,50.0,171,341,0.0,30.0
5776,57.0,0,512,0.0,42.0
5777,69.0,0,512,0.0,54.0
5778,42.0,0,341,0.0,35.0
5779,50.0,341,341,0.0,35.0
5780,69.0,0,512,0.0,43.0
5781,74.0,0,512,0.0,58.0
5782,62.0,0,512,0.0,46.0
5783,57.0,0,512,0.0,43.0
5784,52.0,341,342,0.0,33.0
5785,74.0,0,512,0.0,46.0
5786,54.0,0,512,0.0,40.0
5787,50.0,0,0,0.0,35.0
5788,78.0,341,0,0.0,42.0
5789,66.0,171,512,0.0,50.0
5790,62.0,0,0,0.0,44.0
5791,42.0,0,341,0.0,35.0
5792,81.0,0,512,0.0,64.0
5793,69.0,0,512,0.0,52.0
5794,52.0,341,342,0.0,33.0
5795,50.0,171,341,0.0,30.0
5796,71.0,0,512,0.0,55.0
5797,83.0,171,512,0.0,67.0
5798,66.0,0,1024,0.0,30.0
5799,42.0,0,341,0.0,35.0
5800,49.0,0,341,0.0,35.0
5801,85.0,0,512,0.0,69.0
5802,73.0,341,512,0.0,57.0
5803,50.0,341,342,0.0,33.0
5804,65.0,0,1024,0.0,30.0
5805,83.0,171,512,0.0,64.0
5806,77.0,0,1024,0.0,42.0
5807,61.0,0,1024,0.0,44.0
5808,49.0,171,341,0.0,30.0
5809,71.0,0,512,0.0,52.0
5810,42.0,0,341,0.0,35.0
5811,50.0,0,341,0.0,35.0
5812,81.0,0,512,0.0,60.0
5813,69.0,0,512,0.0,48.0
5814,52.0,341,342,0.0,33.0
5815,83.0,171,512,0.0,62.0
5816,66.0,341,1024,0.0,30.0
5817,71.0,0,512,0.0,50.0
5818,78.0,0,1024,0.0,42.0
5819,62.0,0,1024,0.0,30.0
5820,50.0,171,341,0.0,30.0
5821,49.0,0,341,0.0,35.0
5822,42.0,0,341,0.0,35.0
5823,50.0,341,342,0.0,33.0
5824,49.0,342,341,0.0,30.0
5825,42.0,341,341,0.0,35.0
5826,49.0,0,341,0.0,35.0
5827,85.0,0,1536,0.0,59.0
5828,73.0,0,1536,0.0,45.0
5829,50.0,341,342,0.0,33.0
5830,61.0,341,0,0.0,30.0
5831,68.0,0,512,0.0,44.0
5832,65.0,0,2048,0.0,23.0
5833,80.0,171,512,0.0,56.0
5834,77.0,341,2048,0.0,37.0
5835,49.0,0,0,0.0,35.0
5836,42.0,0,341,0.0,35.0
5837,73.0,0,512,0.0,42.0
5838,81.0,0,512,0.0,56.0
5839,61.0,0,512,0.0,30.0
5840,69.0,171,0,0.0,38.0
5841,50.0,341,342,0.0,33.0
5842,78.0,0,512,0.0,52.0
5843,57.0,0,512,0.0,26.0
5844,66.0,0,512,0.0,40.0
5845,49.0,171,341,0.0,30.0
5846,61.0,0,0,0.0,24.0
5847,44.0,0,341,0.0,35.0
5848,52.0,0,341,0.0,35.0
5849,76.0,341,552,0.0,52.0
5850,64.0,0,552,0.0,30.0
5851,54.0,341,342,0.0,33.0
5852,52.0,131,341,0.0,30.0
5853,73.0,0,1024,0.0,40.0
5854,78.0,211,472,0.0,56.0
5855,66.0,0,472,0.0,40.0
5856,44.0,0,341,0.0,35.0
5857,51.0,0,341,0.0,35.0
5858,52.0,341,342,0.0,33.0
5859,51.0,0,0,0.0,35.0
5860,44.0,341,341,0.0,35.0
5861,68.0,0,1536,0.0,39.0
5862,80.0,0,1536,0.0,53.0
5863,52.0,341,342,0.0,33.0
5864,75.0,0,512,0.0,53.0
5865,63.0,171,512,0.0,41.0
5866,51.0,171,341,0.0,30.0
5867,49.0,0,341,0.0,35.0
5868,65.0,0,512,0.0,37.0
5869,77.0,341,512,0.0,49.0
5870,50.0,341,342,0.0,33.0
5871,49.0,171,341,0.0,30.0
5872,61.0,171,512,0.0,33.0
5873,72.0,0,3072,0.0,39.0
5874,60.0,0,3072,0.0,25.0
5875,73.0,0,512,0.0,45.0
5876,66.0,0,341,0.0,30.0
5877,68.0,0,341,0.0,30.0
5878,54.0,0,683,0.0,23.0
5879,62.0,341,1024,0.0,38.0
5880,74.0,0,1024,0.0,52.0
5881,66.0,342,341,0.0,30.0
5882,47.0,0,1024,0.0,43.0
5883,35.0,0,1024,0.0,29.0
5884,54.0,0,341,0.0,18.0
5885,37.0,0,191,0.0,25.0
5886,49.0,0,191,0.0,38.0
5887,73.0,341,191,0.0,47.0
5888,61.0,0,191,0.0,34.0
5889,56.0,0,1024,0.0,21.0
5890,66.0,0,341,0.0,30.0
5891,68.0,0,0,0.0,30.0
5892,50.0,0,192,0.0,35.0
5893,38.0,0,192,0.0,23.0
5894,59.0,0,192,0.0,32.0
5895,71.0,341,192,0.0,44.0
5896,54.0,0,683,0.0,23.0
5897,62.0,0,191,0.0,30.0
5898,74.0,0,191,0.0,42.0
5899,47.0,0,191,0.0,33.0
5900,35.0,342,191,0.0,21.0
5901,54.0,0,341,0.0,18.0
5902,66.0,341,0,0.0,30.0
5903,56.0,341,0,0.0,21.0
5904,68.0,0,0,0.0,30.0
5905,54.0,342,0,0.0,18.0
5906,49.0,0,1024,0.0,43.0
5907,73.0,0,1024,0.0,52.0
5908,61.0,0,1024,0.0,38.0
5909,66.0,0,341,0.0,30.0
5910,37.0,0,1024,0.0,29.0
5911,54.0,0,0,0.0,23.0
5912,66.0,0,341,0.0,30.0
5913,56.0,0,0,0.0,21.0
5914,50.0,341,512,0.0,34.0
5915,38.0,0,512,0.0,20.0
5916,71.0,0,512,0.0,43.0
5917,59.0,0,512,0.0,29.0
5918,54.0,0,341,0.0,18.0
5919,66.0,342,341,0.0,30.0
5920,68.0,341,683,0.0,30.0
5921,62.0,0,312,0.0,38.0
5922,47.0,0,312,0.0,43.0
5923,35.0,0,312,0.0,29.0
5924,74.0,0,312,0.0,52.0
5925,68.0,0,341,0.0,30.0
5926,66.0,0,341,0.0,30.0
5927,54.0,341,683,0.0,23.0
5928,73.0,0,312,0.0,49.0
5929,37.0,0,312,0.0,27.0
5930,49.0,0,312,0.0,40.0
5931,61.0,171,312,0.0,36.0
5932,66.0,0,0,0.0,30.0
5933,54.0,0,341,0.0,18.0
5934,59.0,341,312,0.0,34.0
5935,71.0,0,312,0.0,47.0
5936,38.0,0,312,0.0,25.0
5937,50.0,0,312,0.0,38.0
5938,56.0,341,1024,0.0,21.0
5939,68.0,0,0,0.0,30.0
5940,54.0,171,0,0.0,18.0
5941,47.0,0,312,0.0,39.0
5942,35.0,0,312,0.0,27.0
5943,62.0,0,312,0.0,36.0
5944,74.0,171,312,0.0,48.0
5945,66.0,0,341,0.0,30.0
5946,66.0,0,341,0.0,30.0
5947,68.0,0,341,0.0,30.0
5948,56.0,0,0,0.0,21.0
5949,54.0,0,683,0.0,23.0
5950,37.0,341,1024,0.0,29.0
5951,49.0,0,1024,0.0,43.0
5952,54.0,341,0,0.0,23.0
5953,66.0,342,341,0.0,30.0
5954,73.0,0,1024,0.0,52.0
5955,61.0,0,1024,0.0,38.0
5956,66.0,0,341,0.0,30.0
5957,56.0,341,0,0.0,21.0
5958,68.0,0,0,0.0,30.0
5959,50.0,0,512,0.0,34.0
5960,71.0,0,512,0.0,43.0
5961,59.0,0,512,0.0,29.0
5962,38.0,0,512,0.0,20.0
5963,54.0,341,0,0.0,26.0
5964,66.0,0,0,0.0,38.0
5965,56.0,0,362,0.0,28.0
5966,68.0,341,362,0.0,41.0
5967,54.0,342,361,0.0,25.0
5968,66.0,0,361,0.0,38.0
5969,73.0,0,362,0.0,50.0
5970,61.0,341,362,0.0,35.0
5971,70.0,341,1024,0.0,47.0
5972,58.0,0,1024,0.0,33.0
5973,49.0,0,2048,0.0,20.0
5974,37.0,0,2048,0.0,32.0
5975,66.0,0,361,0.0,34.0
5976,78.0,342,361,0.0,50.0
5977,68.0,341,362,0.0,38.0
5978,80.0,0,362,0.0,53.0
5979,73.0,0,0,0.0,31.0
5980,77.0,341,1024,0.0,48.0
5981,85.0,341,0,0.0,44.0
5982,65.0,0,1024,0.0,31.0
5983,61.0,0,2048,0.0,25.0
5984,54.0,0,361,0.0,26.0
5985,66.0,0,361,0.0,38.0
5986,56.0,341,362,0.0,28.0
5987,68.0,0,362,0.0,41.0
5988,66.0,0,361,0.0,38.0
5989,54.0,342,361,0.0,25.0
5990,61.0,341,362,0.0,35.0
5991,73.0,0,362,0.0,50.0
5992,37.0,0,2048,0.0,32.0
5993,58.0,0,1024,0.0,33.0
5994,70.0,341,1024,0.0,47.0
5995,49.0,0,2048,0.0,20.0
5996,78.0,342,361,0.0,50.0
5997,66.0,0,361,0.0,34.0
5998,68.0,341,362,0.0,38.0
5999,80.0,0,362,0.0,53.0
6000,65.0,341,1024,0.0,31.0
6001,73.0,0,341,0.0,35.0
6002,77.0,0,1024,0.0,48.0
6003,85.0,342,341,0.0,49.0
6004,85.0,0,341,0.0,44.0
6005,73.0,341,341,0.0,31.0
6006,61.0,0,2048,0.0,25.0
6007,70.0,0,341,0.0,33.0
6008,67.0,0,341,0.0,33.0
6009,55.0,1024,683,0.0,23.0
6010,37.0,0,1024,0.0,29.0
6011,76.0,0,1024,0.0,52.0
6012,55.0,342,341,0.0,18.0
6013,64.0,0,1024,0.0,38.0
6014,49.0,0,1024,0.0,43.0
6015,67.0,0,0,0.0,33.0
6016,62.0,0,191,0.0,34.0
6017,74.0,0,191,0.0,47.0
6018,38.0,0,191,0.0,25.0
6019,50.0,0,191,0.0,38.0
6020,57.0,341,0,0.0,21.0
6021,69.0,0,0,0.0,33.0
6022,61.0,0,192,0.0,32.0
6023,73.0,0,192,0.0,44.0
6024,40.0,0,192,0.0,23.0
6025,52.0,0,192,0.0,35.0
6026,55.0,341,683,0.0,23.0
6027,37.0,0,191,0.0,21.0
6028,76.0,0,191,0.0,42.0
6029,64.0,0,191,0.0,30.0
6030,49.0,342,191,0.0,33.0
6031,55.0,0,341,0.0,18.0
6032,67.0,0,341,0.0,33.0
6033,57.0,0,0,0.0,21.0
6034,67.0,0,341,0.0,33.0
6035,70.0,0,341,0.0,33.0
6036,55.0,341,683,0.0,23.0
6037,55.0,342,341,0.0,18.0
6038,38.0,0,1024,0.0,29.0
6039,67.0,0,341,0.0,33.0
6040,62.0,0,1024,0.0,38.0
6041,74.0,0,1024,0.0,52.0
6042,50.0,0,1024,0.0,43.0
6043,67.0,0,341,0.0,33.0
6044,69.0,341,1024,0.0,33.0
6045,52.0,0,512,0.0,34.0
6046,40.0,0,512,0.0,20.0
6047,73.0,0,512,0.0,43.0
6048,61.0,0,512,0.0,29.0
6049,55.0,341,683,0.0,23.0
6050,67.0,342,341,0.0,33.0
6051,69.0,341,683,0.0,33.0
6052,57.0,0,683,0.0,21.0
6053,55.0,0,0,0.0,23.0
6054,49.0,0,312,0.0,43.0
6055,37.0,0,312,0.0,29.0
6056,76.0,0,312,0.0,52.0
6057,64.0,341,312,0.0,38.0
6058,70.0,0,341,0.0,33.0
6059,67.0,0,341,0.0,33.0
6060,55.0,0,0,0.0,18.0
6061,62.0,171,312,0.0,36.0
6062,74.0,0,312,0.0,49.0
6063,38.0,0,312,0.0,27.0
6064,50.0,0,312,0.0,40.0
6065,55.0,0,0,0.0,23.0
6066,67.0,0,0,0.0,33.0
6067,61.0,0,312,0.0,34.0
6068,73.0,0,312,0.0,47.0
6069,40.0,0,312,0.0,25.0
6070,52.0,341,312,0.0,38.0
6071,69.0,0,1024,0.0,33.0
6072,57.0,341,0,0.0,21.0
6073,49.0,171,312,0.0,39.0
6074,37.0,0,312,0.0,27.0
6075,76.0,0,312,0.0,48.0
6076,64.0,0,312,0.0,36.0
6077,55.0,0,341,0.0,18.0
6078,69.0,0,683,0.0,33.0
6079,67.0,171,341,0.0,33.0
6080,67.0,0,341,0.0,33.0
6081,70.0,0,341,0.0,33.0
6082,55.0,341,683,0.0,23.0
6083,55.0,0,341,0.0,18.0
6084,50.0,0,1024,0.0,43.0
6085,38.0,0,1024,0.0,29.0
6086,74.0,0,1024,0.0,52.0
6087,62.0,0,1024,0.0,38.0
6088,67.0,342,341,0.0,33.0
6089,69.0,341,1024,0.0,33.0
6090,57.0,0,1024,0.0,21.0
6091,67.0,0,341,0.0,33.0
6092,73.0,0,512,0.0,43.0
6093,61.0,0,512,0.0,29.0
6094,40.0,0,512,0.0,20.0
6095,52.0,0,512,0.0,34.0
6096,55.0,0,0,0.0,18.0
6097,57.0,0,683,0.0,21.0
6098,69.0,341,683,0.0,33.0
6099,67.0,342,341,0.0,33.0
6100,55.0,0,341,0.0,31.0
6101,57.0,341,342,0.0,33.0
6102,55.0,342,341,0.0,30.0
6103,59.0,341,341,0.0,38.0
6104,62.0,341,342,0.0,35.0
6105,74.0,0,2048,0.0,40.0
6106,71.0,0,2048,0.0,28.0
6107,38.0,0,2048,0.0,40.0
6108,50.0,0,2048,0.0,20.0
6109,67.0,342,341,0.0,39.0
6110,66.0,0,0,0.0,33.0
6111,69.0,341,342,0.0,43.0
6112,54.0,0,0,0.0,18.0
6113,66.0,0,0,0.0,30.0
6114,74.0,342,341,0.0,40.0
6115,54.0,0,0,0.0,23.0
6116,66.0,341,0,0.0,35.0
6117,66.0,341,0,0.0,33.0
6118,54.0,0,0,0.0,21.0
6119,74.0,0,341,0.0,36.0
6120,54.0,342,0,0.0,18.0
6121,66.0,0,341,0.0,30.0
6122,50.0,0,2048,0.0,40.0
6123,57.0,341,2048,0.0,25.0
6124,54.0,0,341,0.0,31.0
6125,56.0,341,342,0.0,33.0
6126,54.0,342,341,0.0,30.0
6127,57.0,341,341,0.0,38.0
6128,61.0,341,342,0.0,35.0
6129,66.0,342,341,0.0,39.0
6130,69.0,0,2048,0.0,28.0
6131,73.0,0,2048,0.0,40.0
6132,37.0,0,2048,0.0,32.0
6133,49.0,0,2048,0.0,20.0
6134,65.0,341,342,0.0,33.0
6135,53.0,342,0,0.0,18.0
6136,68.0,0,342,0.0,43.0
6137,65.0,0,341,0.0,30.0
6138,73.0,0,341,0.0,40.0
6139,73.0,0,341,0.0,36.0
6140,53.0,341,341,0.0,23.0
6141,65.0,341,0,0.0,33.0
6142,49.0,0,1536,0.0,28.0
6143,56.0,0,1536,0.0,28.0
6144,65.0,171,0,0.0,47.0
6145,53.0,0,171,0.0,40.0
6146,53.0,0,532,0.0,31.0
6147,68.0,512,532,0.0,43.0
6148,72.0,0,532,0.0,55.0
6149,36.0,341,342,0.0,33.0
6150,36.0,171,341,0.0,30.0
6151,52.0,0,532,0.0,32.0
6152,70.0,171,532,0.0,42.0
6153,73.0,0,532,0.0,54.0
6154,36.0,341,341,0.0,34.0
6155,53.0,0,532,0.0,34.0
6156,68.0,0,532,0.0,43.0
6157,72.0,0,532,0.0,55.0
6158,36.0,171,0,0.0,28.0
6159,70.0,0,532,0.0,55.0
6160,55.0,0,532,0.0,35.0
6161,67.0,171,532,0.0,43.0
6162,36.0,0,341,0.0,31.0
6163,68.0,341,532,0.0,55.0
6164,65.0,0,532,0.0,43.0
6165,56.0,0,532,0.0,36.0
6166,36.0,171,0,0.0,27.0
6167,55.0,171,532,0.0,37.0
6168,67.0,0,532,0.0,42.0
6169,70.0,0,532,0.0,54.0
6170,36.0,341,0,0.0,29.0
6171,68.0,0,532,0.0,52.0
6172,65.0,0,532,0.0,40.0
6173,56.0,341,532,0.0,39.0
6174,36.0,171,0,0.0,27.0
6175,63.0,0,532,0.0,39.0
6176,60.0,171,532,0.0,45.0
6177,67.0,0,532,0.0,51.0
6178,36.0,0,341,0.0,31.0
6179,61.0,0,512,0.0,46.0
6180,65.0,0,0,0.0,41.0
6181,36.0,171,0,0.0,27.0
6182,36.0,341,0,0.0,31.0
6183,68.0,0,0,0.0,42.0
6184,56.0,0,532,0.0,41.0
6185,36.0,341,0,0.0,29.0
6186,73.0,0,512,0.0,54.0
6187,53.0,0,532,0.0,39.0
6188,36.0,171,0,0.0,27.0
6189,73.0,0,512,0.0,44.0
6190,77.0,0,512,0.0,56.0
6191,61.0,0,512,0.0,29.0
6192,65.0,0,512,0.0,41.0
6193,36.0,0,0,0.0,31.0
6194,51.0,171,532,0.0,37.0
6195,36.0,341,0,0.0,29.0
6196,68.0,0,512,0.0,43.0
6197,80.0,341,532,0.0,58.0
6198,36.0,171,0,0.0,27.0
6199,36.0,0,0,0.0,31.0
6200,65.0,0,1024,0.0,31.0
6201,70.0,0,512,0.0,44.0
6202,49.0,0,1044,0.0,35.0
6203,82.0,171,532,0.0,59.0
6204,77.0,0,1044,0.0,46.0
6205,72.0,0,512,0.0,46.0
6206,84.0,0,532,0.0,61.0
6207,36.0,341,342,0.0,29.0
6208,36.0,171,341,0.0,27.0
6209,70.0,171,512,0.0,43.0
6210,64.0,341,1024,0.0,34.0
6211,48.0,0,1044,0.0,35.0
6212,76.0,0,1044,0.0,49.0
6213,82.0,0,532,0.0,57.0
6214,36.0,341,0,0.0,29.0
6215,80.0,0,572,0.0,55.0
6216,68.0,0,572,0.0,29.0
6217,36.0,131,341,0.0,27.0
6218,65.0,0,1024,0.0,41.0
6219,77.0,0,1044,0.0,43.0
6220,70.0,0,492,0.0,43.0
6221,82.0,211,492,0.0,59.0
6222,49.0,0,1044,0.0,35.0
6223,36.0,341,0,0.0,29.0
6224,36.0,342,0,0.0,27.0
6225,36.0,341,0,0.0,31.0
6226,64.0,0,1536,0.0,32.0
6227,72.0,0,1536,0.0,43.0
6228,76.0,0,1556,0.0,48.0
6229,84.0,0,1556,0.0,60.0
6230,36.0,171,0,0.0,27.0
6231,48.0,0,2068,0.0,35.0
6232,67.0,171,572,0.0,52.0
6233,41.0,0,341,0.0,31.0
6234,68.0,40,492,0.0,54.0
6235,48.0,301,342,0.0,29.0
6236,41.0,131,341,0.0,27.0
6237,60.0,0,0,0.0,32.0
6238,56.0,341,1024,0.0,34.0
6239,65.0,0,1024,0.0,46.0
6240,70.0,211,492,0.0,56.0
6241,39.0,0,341,0.0,44.0
6242,72.0,341,512,0.0,59.0
6243,51.0,341,342,0.0,42.0
6244,68.0,0,1024,0.0,44.0
6245,63.0,0,0,0.0,36.0
6246,73.0,171,512,0.0,61.0
6247,39.0,171,341,0.0,39.0
6248,51.0,0,341,0.0,44.0
6249,75.0,0,512,0.0,63.0
6250,39.0,341,342,0.0,42.0
6251,73.0,171,512,0.0,64.0
6252,58.0,0,1024,0.0,36.0
6253,51.0,171,341,0.0,39.0
6254,67.0,341,1024,0.0,48.0
6255,39.0,0,341,0.0,44.0
6256,72.0,341,512,0.0,62.0
6257,51.0,341,342,0.0,42.0
6258,73.0,171,512,0.0,64.0
6259,60.0,0,1024,0.0,36.0
6260,68.0,0,1024,0.0,48.0
6261,63.0,0,1024,0.0,36.0
6262,39.0,171,341,0.0,39.0
6263,51.0,0,341,0.0,44.0
6264,39.0,341,342,0.0,42.0
6265,51.0,342,341,0.0,39.0
6266,75.0,0,1536,0.0,66.0
6267,58.0,0,0,0.0,42.0
6268,63.0,0,1536,0.0,36.0
6269,67.0,0,0,0.0,39.0
6270,39.0,341,683,0.0,44.0
6271,39.0,171,341,0.0,39.0
6272,51.0,341,683,0.0,42.0
6273,70.0,0,512,0.0,55.0
6274,55.0,171,512,0.0,46.0
6275,72.0,0,512,0.0,58.0
6276,60.0,0,512,0.0,44.0
6277,56.0,0,512,0.0,46.0
6278,68.0,0,512,0.0,42.0
6279,44.0,341,683,0.0,44.0
6280,32.0,341,683,0.0,42.0
6281,44.0,171,341,0.0,39.0
6282,60.0,0,512,0.0,46.0
6283,75.0,171,512,0.0,61.0
6284,63.0,0,512,0.0,47.0
6285,72.0,0,512,0.0,46.0
6286,68.0,0,341,0.0,31.0
6287,56.0,0,341,0.0,46.0
6288,77.0,0,512,0.0,65.0
6289,65.0,0,512,0.0,49.0
6290,37.0,171,0,0.0,39.0
6291,73.0,0,342,0.0,34.0
6292,61.0,0,342,0.0,46.0
6293,65.0,0,341,0.0,46.0
6294,77.0,0,341,0.0,38.0
6295,68.0,171,512,0.0,51.0
6296,80.0,0,512,0.0,67.0
6297,49.0,341,683,0.0,42.0
6298,66.0,0,341,0.0,46.0
6299,78.0,341,341,0.0,41.0
6300,81.0,0,512,0.0,70.0
6301,69.0,0,512,0.0,54.0
6302,63.0,0,342,0.0,46.0
6303,75.0,0,342,0.0,36.0
6304,48.0,171,0,0.0,46.0
6305,66.0,171,512,0.0,52.0
6306,36.0,341,683,0.0,49.0
6307,78.0,0,512,0.0,66.0
6308,69.0,0,341,0.0,31.0
6309,57.0,0,341,0.0,46.0
6310,68.0,0,341,0.0,31.0
6311,56.0,0,341,0.0,46.0
6312,65.0,0,512,0.0,50.0
6313,77.0,0,512,0.0,65.0
6314,61.0,341,342,0.0,46.0
6315,37.0,0,0,0.0,40.0
6316,73.0,0,342,0.0,34.0
6317,80.0,171,512,0.0,69.0
6318,49.0,0,683,0.0,42.0
6319,68.0,0,512,0.0,52.0
6320,65.0,171,341,0.0,46.0
6321,77.0,0,341,0.0,38.0
6322,78.0,0,341,0.0,41.0
6323,66.0,0,341,0.0,46.0
6324,81.0,0,512,0.0,72.0
6325,69.0,341,512,0.0,55.0
6326,48.0,171,0,0.0,48.0
6327,75.0,0,342,0.0,36.0
6328,63.0,341,342,0.0,46.0
6329,69.0,0,341,0.0,31.0
6330,78.0,171,512,0.0,69.0
6331,57.0,0,341,0.0,46.0
6332,36.0,0,683,0.0,51.0
6333,66.0,0,512,0.0,55.0
6334,56.0,0,341,0.0,46.0
6335,68.0,0,341,0.0,31.0
6336,77.0,0,512,0.0,67.0
6337,65.0,341,512,0.0,52.0
6338,37.0,0,683,0.0,47.0
6339,73.0,341,342,0.0,36.0
6340,61.0,0,342,0.0,46.0
6341,65.0,171,341,0.0,46.0
6342,77.0,0,341,0.0,41.0
6343,49.0,0,683,0.0,45.0
6344,37.0,0,341,0.0,43.0
6345,82.0,171,512,0.0,72.0
6346,70.0,0,512,0.0,54.0
6347,65.0,0,341,0.0,41.0
6348,53.0,341,341,0.0,46.0
6349,83.0,0,512,0.0,75.0
6350,71.0,0,512,0.0,58.0
6351,44.0,0,683,0.0,55.0
6352,61.0,0,342,0.0,46.0
6353,73.0,0,342,0.0,36.0
6354,68.0,0,512,0.0,53.0
6355,80.0,171,512,0.0,68.0
6356,32.0,341,683,0.0,54.0
6357,44.0,0,341,0.0,51.0
6358,65.0,341,0,0.0,55.0
6359,77.0,0,0,0.0,67.0
6360,56.0,0,341,0.0,46.0
6361,68.0,0,341,0.0,31.0
6362,37.0,0,683,0.0,50.0
6363,61.0,0,342,0.0,46.0
6364,73.0,341,342,0.0,34.0
6365,65.0,0,341,0.0,46.0
6366,77.0,0,341,0.0,38.0
6367,49.0,0,683,0.0,49.0
6368,65.0,0,0,0.0,41.0
6369,37.0,342,341,0.0,47.0
6370,53.0,0,341,0.0,46.0
6371,60.0,341,342,0.0,46.0
6372,72.0,0,342,0.0,36.0
6373,44.0,341,683,0.0,54.0
6374,32.0,0,683,0.0,54.0
6375,44.0,0,341,0.0,50.0
6376,77.0,0,341,0.0,31.0
6377,65.0,342,341,0.0,46.0
6378,84.0,0,1024,0.0,74.0
6379,58.0,0,341,0.0,46.0
6380,70.0,0,341,0.0,31.0
6381,31.0,0,683,0.0,59.0
6382,61.0,0,342,0.0,46.0
6383,73.0,341,342,0.0,36.0
6384,77.0,0,341,0.0,41.0
6385,65.0,0,341,0.0,46.0
6386,85.0,0,1024,0.0,79.0
6387,43.0,0,683,0.0,57.0
6388,31.0,342,341,0.0,53.0
6389,67.0,341,341,0.0,41.0
6390,55.0,0,341,0.0,46.0
6391,46.0,342,0,0.0,44.0
6392,61.0,0,342,0.0,46.0
6393,73.0,0,342,0.0,36.0
6394,34.0,341,683,0.0,48.0
6395,82.0,0,1024,0.0,71.0
6396,70.0,0,1024,0.0,59.0
6397,77.0,0,341,0.0,31.0
6398,65.0,0,341,0.0,46.0
6399,68.0,0,341,0.0,31.0
6400,56.0,0,341,0.0,46.0
6401,72.0,0,342,0.0,34.0
6402,60.0,0,342,0.0,46.0
6403,36.0,0,0,0.0,43.0
6404,48.0,341,342,0.0,47.0
6405,65.0,0,341,0.0,46.0
6406,77.0,342,341,0.0,38.0
6407,65.0,0,341,0.0,41.0
6408,53.0,341,341,0.0,46.0
6409,49.0,0,341,0.0,47.0
6410,56.0,0,342,0.0,46.0
6411,37.0,0,342,0.0,45.0
6412,68.0,341,342,0.0,36.0
6413,49.0,342,341,0.0,41.0
6414,80.0,0,2048,0.0,67.0
6415,61.0,0,341,0.0,46.0
6416,73.0,0,341,0.0,31.0
6417,55.0,341,341,0.0,46.0
6418,58.0,0,342,0.0,46.0
6419,70.0,341,342,0.0,36.0
6420,34.0,342,0,0.0,39.0
6421,46.0,0,342,0.0,42.0
6422,61.0,0,341,0.0,46.0
6423,73.0,0,341,0.0,41.0
6424,64.0,341,341,0.0,41.0
6425,52.0,0,341,0.0,46.0
6426,79.0,0,1536,0.0,60.0
6427,67.0,341,171,0.0,36.0
6428,48.0,171,0,0.0,37.0
6429,36.0,0,342,0.0,41.0
6430,55.0,0,342,0.0,46.0
6431,77.0,171,512,0.0,55.0
6432,60.0,0,341,0.0,46.0
6433,72.0,0,341,0.0,31.0
6434,65.0,0,0,0.0,57.0
6435,33.0,341,341,0.0,44.0
6436,45.0,341,342,0.0,43.0
6437,65.0,341,0,0.0,40.0
6438,53.0,0,0,0.0,28.0
6439,33.0,171,341,0.0,40.0
6440,63.0,0,0,0.0,28.0
6441,45.0,0,341,0.0,46.0
6442,33.0,341,342,0.0,45.0
6443,45.0,342,341,0.0,42.0
6444,60.0,0,1044,0.0,43.0
6445,72.0,0,1044,0.0,55.0
6446,34.0,341,341,0.0,48.0
6447,46.0,341,342,0.0,47.0
6448,53.0,171,512,0.0,26.0
6449,61.0,0,512,0.0,26.0
6450,65.0,0,512,0.0,36.0
6451,34.0,171,341,0.0,44.0
6452,61.0,341,20,0.0,24.0
6453,73.0,0,1044,0.0,60.0
6454,49.0,0,341,0.0,51.0
6455,37.0,341,342,0.0,45.0
6456,53.0,0,1024,0.0,29.0
6457,49.0,342,341,0.0,41.0
6458,65.0,0,1024,0.0,35.0
6459,70.0,0,1044,0.0,57.0
6460,58.0,0,1044,0.0,45.0
6461,36.0,0,341,0.0,46.0
6462,48.0,341,342,0.0,43.0
6463,36.0,342,341,0.0,40.0
6464,48.0,341,341,0.0,45.0
6465,36.0,341,342,0.0,43.0
6466,53.0,0,2048,0.0,23.0
6467,48.0,342,341,0.0,39.0
6468,60.0,0,0,0.0,29.0
6469,68.0,341,2068,0.0,52.0
6470,56.0,0,2068,0.0,40.0
6471,36.0,341,341,0.0,44.0
6472,48.0,341,342,0.0,41.0
6473,36.0,342,341,0.0,39.0
6474,52.0,0,1024,0.0,20.0
6475,41.0,0,341,0.0,43.0
6476,55.0,0,1556,0.0,32.0
6477,67.0,0,1556,0.0,44.0
6478,29.0,341,342,0.0,41.0
6479,41.0,171,341,0.0,37.0
6480,53.0,0,512,0.0,28.0
6481,65.0,171,512,0.0,40.0
6482,60.0,256,256,0.0,40.0
6483,57.0,256,512,0.0,37.0
6484,53.0,256,768,0.0,33.0
6485,65.0,341,1024,0.0,52.0
6486,66.0,0,191,0.0,53.0
6487,65.0,85,192,0.0,51.0
6488,58.0,256,512,0.0,40.0
6489,68.0,171,191,0.0,49.0
6490,61.0,0,276,0.0,33.0
6491,60.0,256,276,0.0,36.0
6492,61.0,256,276,0.0,39.0
6493,58.0,85,1280,0.0,33.0
6494,66.0,256,1024,0.0,51.0
6495,51.0,171,1536,0.0,37.0
6496,63.0,256,276,0.0,41.0
6497,65.0,0,512,0.0,41.0
6498,57.0,256,0,0.0,28.0
6499,53.0,256,512,0.0,28.0
6500,60.0,0,1044,0.0,28.0
6501,66.0,256,312,0.0,48.0
6502,65.0,0,312,0.0,51.0
6503,60.0,256,256,0.0,40.0
6504,53.0,256,768,0.0,33.0
6505,57.0,256,512,0.0,37.0
6506,66.0,0,312,0.0,53.0
6507,58.0,256,0,0.0,33.0
6508,68.0,0,312,0.0,51.0
6509,61.0,256,276,0.0,33.0
6510,60.0,256,276,0.0,36.0
6511,61.0,256,276,0.0,39.0
6512,51.0,256,1536,0.0,37.0
6513,66.0,0,1024,0.0,52.0
6514,63.0,256,276,0.0,41.0
6515,65.0,0,512,0.0,41.0
6516,57.0,256,512,0.0,28.0
6517,53.0,256,512,0.0,28.0
6518,57.0,256,256,0.0,28.0
6519,60.0,256,1044,0.0,27.0
6520,65.0,341,171,0.0,27.0
6521,53.0,0,342,0.0,19.0
6522,57.0,0,342,0.0,19.0
6523,65.0,0,341,0.0,30.0
6524,53.0,341,0,0.0,23.0
6525,57.0,0,0,0.0,23.0
6526,29.0,0,1044,0.0,33.0
6527,41.0,0,1044,0.0,40.0
6528,65.0,0,341,0.0,32.0
6529,53.0,341,342,0.0,26.0
6530,57.0,0,342,0.0,26.0
6531,65.0,342,0,0.0,37.0
6532,53.0,0,341,0.0,28.0
6533,57.0,0,341,0.0,28.0
6534,65.0,0,0,0.0,42.0
6535,36.0,0,1044,0.0,39.0
6536,48.0,0,1044,0.0,46.0
6537,53.0,0,342,0.0,28.0
6538,58.0,0,342,0.0,28.0
6539,65.0,341,342,0.0,37.0
6540,53.0,342,341,0.0,27.0
6541,58.0,0,341,0.0,27.0
6542,65.0,0,341,0.0,36.0
6543,37.0,0,1044,0.0,44.0
6544,77.0,341,1044,0.0,61.0
6545,49.0,0,1044,0.0,51.0
6546,53.0,0,341,0.0,26.0
6547,61.0,0,342,0.0,33.0
6548,53.0,341,342,0.0,24.0
6549,53.0,342,341,0.0,23.0
6550,61.0,0,341,0.0,32.0
6551,73.0,0,1044,0.0,49.0
6552,85.0,0,1044,0.0,64.0
6553,46.0,0,1044,0.0,46.0
6554,34.0,341,1044,0.0,39.0
6555,53.0,342,0,0.0,21.0
6556,60.0,0,0,0.0,29.0
6557,60.0,0,0,0.0,20.0
6558,33.0,0,1044,0.0,35.0
6559,45.0,341,1044,0.0,41.0
6560,89.0,0,1044,0.0,60.0
6561,77.0,0,1044,0.0,47.0
6562,60.0,341,0,0.0,20.0
6563,65.0,0,0,0.0,31.0
6564,57.0,0,0,0.0,19.0
6565,60.0,0,0,0.0,20.0
6566,65.0,342,0,0.0,29.0
6567,57.0,0,341,0.0,18.0
6568,72.0,0,1044,0.0,43.0
6569,84.0,341,1044,0.0,54.0
6570,29.0,0,1044,0.0,30.0
6571,41.0,0,1044,0.0,35.0
6572,65.0,342,0,0.0,22.0
6573,60.0,0,0,0.0,15.0
6574,55.0,0,0,0.0,15.0
6575,55.0,341,0,0.0,14.0
6576,82.0,0,1044,0.0,54.0
6577,70.0,341,1044,0.0,44.0
6578,64.0,0,0,0.0,19.0
6579,60.0,0,0,0.0,13.0
6580,55.0,341,0,0.0,13.0
6581,60.0,342,0,0.0,12.0
6582,64.0,0,341,0.0,18.0
6583,55.0,0,341,0.0,12.0
6584,24.0,0,2068,0.0,26.0
6585,79.0,0,1044,0.0,47.0
6586,36.0,0,2068,0.0,30.0
6587,67.0,0,1044,0.0,39.0
6588,65.0,256,512,0.0,37.0
6589,61.0,256,768,0.0,33.0
6590,68.0,256,256,0.0,40.0
6591,53.0,341,1024,0.0,52.0
6592,54.0,0,191,0.0,53.0
6593,53.0,85,192,0.0,51.0
6594,63.0,85,0,0.0,33.0
6595,56.0,171,191,0.0,49.0
6596,69.0,256,0,0.0,33.0
6597,68.0,256,256,0.0,36.0
6598,69.0,256,256,0.0,39.0
6599,60.0,171,1536,0.0,37.0
6600,71.0,256,256,0.0,41.0
6601,54.0,0,1024,0.0,51.0
6602,53.0,0,512,0.0,48.0
6603,65.0,256,512,0.0,28.0
6604,61.0,256,512,0.0,28.0
6605,65.0,256,256,0.0,28.0
6606,68.0,256,1024,0.0,42.0
6607,54.0,256,312,0.0,48.0
6608,53.0,256,312,0.0,51.0
6609,65.0,0,512,0.0,37.0
6610,61.0,256,768,0.0,33.0
6611,68.0,256,256,0.0,40.0
6612,54.0,0,312,0.0,53.0
6613,63.0,256,512,0.0,40.0
6614,56.0,0,312,0.0,51.0
6615,69.0,0,0,0.0,33.0
6616,68.0,256,256,0.0,36.0
6617,69.0,256,256,0.0,39.0
6618,63.0,256,1280,0.0,33.0
6619,60.0,256,1536,0.0,37.0
6620,54.0,256,1024,0.0,52.0
6621,71.0,256,256,0.0,41.0
6622,53.0,256,512,0.0,41.0
6623,65.0,256,0,0.0,28.0
6624,61.0,256,512,0.0,28.0
6625,68.0,256,0,0.0,33.0
6626,65.0,0,342,0.0,28.0
6627,53.0,342,0,0.0,29.0
6628,65.0,0,0,0.0,31.0
6629,53.0,0,341,0.0,31.0
6630,53.0,0,0,0.0,34.0
6631,65.0,342,0,0.0,34.0
6632,56.0,0,2048,0.0,38.0
6633,53.0,0,0,0.0,30.0
6634,65.0,0,0,0.0,42.0
6635,71.0,341,1044,0.0,43.0
6636,83.0,0,1044,0.0,55.0
6637,37.0,0,2068,0.0,24.0
6638,49.0,0,2068,0.0,33.0
6639,53.0,0,0,0.0,34.0
6640,65.0,342,0,0.0,34.0
6641,72.0,0,0,0.0,55.0
6642,65.0,0,0,0.0,34.0
6643,84.0,0,1044,0.0,59.0
6644,53.0,341,20,0.0,34.0
6645,65.0,341,0,0.0,33.0
6646,53.0,342,0,0.0,32.0
6647,57.0,0,2048,0.0,48.0
6648,81.0,0,1024,0.0,57.0
6649,65.0,0,341,0.0,32.0
6650,36.0,0,2068,0.0,28.0
6651,69.0,0,1044,0.0,33.0
6652,60.0,0,1044,0.0,34.0
6653,48.0,341,2068,0.0,37.0
6654,53.0,341,342,0.0,30.0
6655,65.0,342,0,0.0,29.0
6656,53.0,0,341,0.0,29.0
6657,74.0,341,0,0.0,44.0
6658,62.0,0,1044,0.0,38.0
6659,77.0,0,1044,0.0,56.0
6660,65.0,0,341,0.0,29.0
6661,53.0,0,341,0.0,29.0
6662,65.0,341,342,0.0,28.0
6663,53.0,0,342,0.0,28.0
6664,70.0,0,1024,0.0,56.0
6665,65.0,0,341,0.0,27.0
6666,53.0,342,341,0.0,27.0
6667,46.0,0,2068,0.0,40.0
6668,34.0,0,2068,0.0,31.0
6669,58.0,0,1044,0.0,35.0
6670,86.0,0,1044,0.0,59.0
6671,53.0,0,0,0.0,24.0
6672,65.0,342,0,0.0,24.0
6673,53.0,0,0,0.0,24.0
6674,89.0,0,1044,0.0,60.0
6675,65.0,0,20,0.0,24.0
6676,77.0,341,20,0.0,52.0
6677,65.0,341,342,0.0,23.0
6678,53.0,342,0,0.0,22.0
6679,60.0,341,2048,0.0,38.0
6680,72.0,0,0,0.0,22.0
6681,65.0,0,341,0.0,22.0
6682,45.0,0,2068,0.0,33.0
6683,33.0,0,2068,0.0,24.0
6684,60.0,256,256,0.0,28.0
6685,64.0,256,256,0.0,32.0
6686,48.0,341,1024,0.0,31.0
6687,36.0,0,1024,0.0,22.0
6688,65.0,256,256,0.0,35.0
6689,67.0,0,256,0.0,39.0
6690,82.0,0,1365,0.0,60.0
6691,64.0,256,256,0.0,36.0
6692,81.0,85,362,0.0,59.0
6693,64.0,85,256,0.0,31.0
6694,84.0,171,361,0.0,59.0
6695,67.0,0,256,0.0,28.0
6696,66.0,256,256,0.0,31.0
6697,67.0,256,256,0.0,34.0
6698,48.0,0,2048,0.0,24.0
6699,69.0,256,256,0.0,36.0
6700,55.0,256,2048,0.0,24.0
6701,60.0,171,1536,0.0,33.0
6702,52.0,0,0,0.0,24.0
6703,67.0,0,256,0.0,39.0
6704,64.0,256,256,0.0,35.0
6705,60.0,256,0,0.0,32.0
6706,82.0,256,1556,0.0,62.0
6707,64.0,256,256,0.0,28.0
6708,55.0,0,1024,0.0,24.0
6709,48.0,0,0,0.0,31.0
6710,81.0,0,512,0.0,59.0
6711,60.0,256,256,0.0,28.0
6712,67.0,256,512,0.0,28.0
6713,84.0,0,532,0.0,60.0
6714,64.0,0,256,0.0,32.0
6715,36.0,0,1024,0.0,22.0
6716,67.0,256,256,0.0,35.0
6717,82.0,256,532,0.0,62.0
6718,70.0,256,256,0.0,39.0
6719,67.0,256,256,0.0,35.0
6720,79.0,0,532,0.0,59.0
6721,60.0,0,256,0.0,32.0
6722,67.0,256,256,0.0,28.0
6723,77.0,256,532,0.0,57.0
6724,70.0,0,256,0.0,28.0
6725,69.0,256,256,0.0,31.0
6726,76.0,256,532,0.0,54.0
6727,70.0,256,256,0.0,34.0
6728,58.0,0,2048,0.0,44.0
6729,55.0,0,2048,0.0,32.0
6730,48.0,256,0,0.0,27.0
6731,72.0,256,256,0.0,36.0
6732,79.0,0,532,0.0,57.0
6733,65.0,0,256,0.0,26.0
6734,69.0,0,256,0.0,40.0
6735,53.0,0,512,0.0,27.0
6736,57.0,0,512,0.0,39.0
6737,72.0,256,256,0.0,35.0
6738,81.0,0,532,0.0,59.0
6739,67.0,0,256,0.0,40.0
6740,64.0,0,256,0.0,26.0
6741,55.0,0,512,0.0,38.0
6742,52.0,0,512,0.0,26.0
6743,72.0,256,256,0.0,28.0
6744,82.0,256,532,0.0,62.0
6745,69.0,0,256,0.0,30.0
6746,65.0,256,256,0.0,32.0
6747,69.0,256,256,0.0,34.0
6748,53.0,0,256,0.0,26.0
6749,55.0,0,256,0.0,26.0
6750,41.0,256,1024,0.0,31.0
6751,70.0,256,256,0.0,36.0
6752,72.0,0,256,0.0,38.0
6753,87.0,0,1365,0.0,59.0
6754,75.0,0,1365,0.0,47.0
6755,69.0,256,256,0.0,38.0
6756,74.0,0,342,0.0,43.0
6757,86.0,85,342,0.0,55.0
6758,57.0,256,1024,0.0,33.0
6759,69.0,85,256,0.0,33.0
6760,77.0,0,341,0.0,43.0
6761,89.0,171,341,0.0,55.0
6762,72.0,256,256,0.0,30.0
6763,56.0,0,256,0.0,26.0
6764,71.0,256,256,0.0,32.0
6765,57.0,0,256,0.0,26.0
6766,72.0,256,256,0.0,34.0
6767,58.0,256,256,0.0,26.0
6768,65.0,171,1536,0.0,35.0
6769,74.0,0,256,0.0,36.0
6770,53.0,0,0,0.0,40.0
6771,72.0,256,256,0.0,38.0
6772,69.0,256,256,0.0,35.0
6773,75.0,0,1536,0.0,48.0
6774,87.0,0,1536,0.0,60.0
6775,57.0,0,1024,0.0,33.0
6776,69.0,256,256,0.0,30.0
6777,65.0,256,512,0.0,33.0
6778,74.0,0,512,0.0,52.0
6779,53.0,0,0,0.0,31.0
6780,86.0,0,512,0.0,64.0
6781,72.0,256,256,0.0,28.0
6782,65.0,256,256,0.0,28.0
6783,77.0,0,532,0.0,48.0
6784,89.0,0,532,0.0,65.0
6785,53.0,0,256,0.0,26.0
6786,69.0,0,256,0.0,32.0
6787,72.0,256,256,0.0,36.0
6788,57.0,0,256,0.0,27.0
6789,41.0,0,1024,0.0,22.0
6790,75.0,0,20,0.0,40.0
6791,87.0,0,532,0.0,63.0
6792,72.0,256,256,0.0,36.0
6793,84.0,0,532,0.0,61.0
6794,65.0,256,256,0.0,33.0
6795,72.0,256,256,0.0,29.0
6796,60.0,256,1024,0.0,33.0
6797,70.0,0,532,0.0,47.0
6798,82.0,0,532,0.0,59.0
6799,75.0,256,256,0.0,29.0
6800,59.0,0,256,0.0,28.0
6801,74.0,256,256,0.0,33.0
6802,69.0,0,532,0.0,44.0
6803,81.0,0,532,0.0,57.0
6804,60.0,0,256,0.0,28.0
6805,75.0,0,256,0.0,36.0
6806,77.0,0,256,0.0,39.0
6807,57.0,256,256,0.0,28.0
6808,53.0,0,0,0.0,40.0
6809,72.0,256,532,0.0,48.0
6810,84.0,0,532,0.0,60.0
6811,77.0,256,256,0.0,38.0
6812,58.0,0,512,0.0,28.0
6813,41.0,0,512,0.0,31.0
6814,86.0,0,532,0.0,64.0
6815,74.0,256,532,0.0,51.0
6816,72.0,256,256,0.0,35.0
6817,65.0,0,512,0.0,44.0
6818,57.0,0,512,0.0,28.0
6819,77.0,0,0,0.0,59.0
6820,87.0,0,532,0.0,68.0
6821,75.0,0,532,0.0,55.0
6822,56.0,118,630,0.0,33.0
6823,68.0,256,256,0.0,45.0
6824,62.0,118,512,0.0,45.0
6825,46.0,20,748,0.0,33.0
6826,74.0,256,256,0.0,49.0
6827,77.0,256,256,0.0,52.0
6828,89.0,0,1044,0.0,71.0
6829,70.0,0,1245,0.0,64.0
6830,58.0,0,1245,0.0,56.0
6831,75.0,256,256,0.0,57.0
6832,57.0,85,222,0.0,56.0
6833,69.0,0,222,0.0,64.0
6834,66.0,171,256,0.0,54.0
6835,59.0,171,221,0.0,56.0
6836,71.0,0,221,0.0,64.0
6837,75.0,85,256,0.0,52.0
6838,78.0,256,256,0.0,55.0
6839,70.0,256,0,0.0,47.0
6840,66.0,256,256,0.0,52.0
6841,54.0,0,2048,0.0,43.0
6842,51.0,0,2048,0.0,43.0
6843,63.0,0,2048,0.0,55.0
6844,90.0,256,2068,0.0,76.0
6845,70.0,256,0,0.0,54.0
6846,58.0,0,1536,0.0,56.0
6847,66.0,256,256,0.0,50.0
6848,57.0,0,512,0.0,48.0
6849,69.0,0,512,0.0,60.0
6850,70.0,256,256,0.0,47.0
6851,30.0,256,1024,0.0,53.0
6852,42.0,0,1024,0.0,40.0
6853,87.0,0,1044,0.0,71.0
6854,75.0,0,1044,0.0,59.0
6855,70.0,256,256,0.0,53.0
6856,60.0,0,542,0.0,46.0
6857,72.0,256,542,0.0,58.0
6858,65.0,0,256,0.0,50.0
6859,70.0,256,256,0.0,39.0
6860,46.0,0,1024,0.0,40.0
6861,34.0,0,1024,0.0,44.0
6862,58.0,256,512,0.0,44.0
6863,85.0,0,1044,0.0,68.0
6864,73.0,0,1044,0.0,58.0
6865,65.0,256,256,0.0,52.0
6866,69.0,0,512,0.0,54.0
6867,57.0,0,512,0.0,42.0
6868,60.0,256,256,0.0,48.0
6869,56.0,0,512,0.0,40.0
6870,65.0,256,256,0.0,45.0
6871,68.0,0,512,0.0,52.0
6872,72.0,256,256,0.0,57.0
6873,55.0,0,512,0.0,38.0
6874,65.0,256,256,0.0,51.0
6875,67.0,0,512,0.0,50.0
6876,60.0,256,256,0.0,47.0
6877,65.0,256,256,0.0,44.0
6878,36.0,0,2048,0.0,35.0
6879,48.0,256,0,0.0,41.0
6880,84.0,0,2048,0.0,58.0
6881,69.0,0,512,0.0,52.0
6882,57.0,0,512,0.0,40.0
6883,70.0,0,512,0.0,56.0
6884,67.0,256,256,0.0,50.0
6885,58.0,0,512,0.0,44.0
6886,64.0,0,256,0.0,46.0
6887,67.0,256,256,0.0,43.0
6888,60.0,256,512,0.0,48.0
6889,76.0,0,1024,0.0,59.0
6890,72.0,0,512,0.0,60.0
6891,74.0,0,392,0.0,64.0
6892,46.0,20,748,0.0,51.0
6893,68.0,256,256,0.0,45.0
6894,56.0,118,630,0.0,42.0
6895,62.0,118,512,0.0,54.0
6896,74.0,0,256,0.0,49.0
6897,77.0,256,256,0.0,52.0
6898,89.0,0,1044,0.0,71.0
6899,58.0,256,853,0.0,56.0
6900,70.0,0,853,0.0,64.0
6901,75.0,256,256,0.0,57.0
6902,57.0,85,222,0.0,56.0
6903,69.0,0,222,0.0,64.0
6904,66.0,171,256,0.0,54.0
6905,59.0,171,221,0.0,56.0
6906,71.0,0,221,0.0,64.0
6907,75.0,85,256,0.0,52.0
6908,78.0,0,256,0.0,55.0
6909,70.0,256,0,0.0,47.0
6910,66.0,256,256,0.0,52.0
6911,51.0,0,2048,0.0,40.0
6912,39.0,256,2048,0.0,63.0
6913,90.0,0,2068,0.0,76.0
6914,70.0,256,0,0.0,54.0
6915,58.0,0,1536,0.0,56.0
6916,66.0,0,256,0.0,50.0
6917,69.0,0,512,0.0,60.0
6918,57.0,256,512,0.0,48.0
6919,42.0,256,1024,0.0,49.0
6920,30.0,0,1024,0.0,56.0
6921,70.0,256,256,0.0,47.0
6922,75.0,0,1044,0.0,59.0
6923,87.0,0,1044,0.0,71.0
6924,60.0,0,512,0.0,51.0
6925,72.0,256,512,0.0,64.0
6926,70.0,256,256,0.0,40.0
6927,65.0,256,256,0.0,40.0
6928,34.0,0,1024,0.0,42.0
6929,46.0,0,1024,0.0,54.0
6930,73.0,0,1044,0.0,58.0
6931,85.0,0,1044,0.0,68.0
6932,69.0,256,256,0.0,44.0
6933,70.0,256,768,0.0,40.0
6934,58.0,0,1024,0.0,46.0
6935,65.0,0,256,0.0,40.0
6936,69.0,256,256,0.0,40.0
6937,57.0,256,512,0.0,44.0
6938,68.0,256,256,0.0,40.0
6939,72.0,0,512,0.0,61.0
6940,60.0,256,512,0.0,48.0
6941,65.0,256,256,0.0,40.0
6942,48.0,0,2048,0.0,31.0
6943,84.0,0,2068,0.0,61.0
6944,68.0,256,512,0.0,40.0
6945,77.0,0,256,0.0,40.0
6946,68.0,256,256,0.0,40.0
6947,56.0,0,1024,0.0,44.0
6948,65.0,0,256,0.0,40.0
6949,37.0,0,1024,0.0,37.0
6950,67.0,256,512,0.0,55.0
6951,55.0,0,512,0.0,42.0
6952,68.0,0,0,0.0,58.0
6953,49.0,0,1024,0.0,49.0
6954,71.0,0,1044,0.0,41.0
6955,83.0,256,1044,0.0,57.0
6956,77.0,0,256,0.0,48.0
6957,68.0,256,256,0.0,47.0
6958,56.0,256,512,0.0,45.0
6959,35.0,0,1024,0.0,42.0
6960,47.0,0,1024,0.0,54.0
6961,68.0,256,256,0.0,44.0
6962,65.0,0,512,0.0,57.0
6963,53.0,256,512,0.0,43.0
6964,74.0,0,1044,0.0,42.0
6965,86.0,0,1044,0.0,52.0
6966,77.0,0,256,0.0,45.0
6967,69.0,256,256,0.0,43.0
6968,57.0,0,512,0.0,45.0
6969,69.0,256,256,0.0,40.0
6970,65.0,256,512,0.0,42.0
6971,53.0,0,512,0.0,41.0
6972,72.0,256,256,0.0,38.0
6973,60.0,0,512,0.0,48.0
6974,69.0,256,256,0.0,35.0
6975,65.0,0,256,0.0,33.0
6976,69.0,256,256,0.0,31.0
6977,36.0,0,2048,0.0,31.0
6978,48.0,0,0,0.0,19.0
6979,57.0,256,512,0.0,45.0
6980,72.0,256,20,0.0,34.0
6981,84.0,0,2068,0.0,56.0
6982,58.0,0,512,0.0,31.0
6983,67.0,256,256,0.0,32.0
6984,64.0,256,256,0.0,30.0
6985,67.0,256,256,0.0,28.0
6986,55.0,0,512,0.0,38.0
6987,76.0,0,1044,0.0,53.0
6988,41.0,768,85,0.0,55.0
6989,53.0,0,85,0.0,55.0
6990,40.0,0,86,0.0,55.0
6991,52.0,85,86,0.0,55.0
6992,69.0,256,1024,0.0,30.0
6993,57.0,85,0,0.0,54.0
6994,65.0,0,1024,0.0,38.0
6995,77.0,0,1024,0.0,50.0
6996,50.0,0,85,0.0,55.0
6997,38.0,86,85,0.0,55.0
6998,65.0,0,1536,0.0,64.0
6999,36.0,0,2048,0.0,50.0
7000,60.0,0,532,0.0,37.0
7001,67.0,1536,532,0.0,49.0
7002,65.0,512,532,0.0,39.0
7003,57.0,0,532,0.0,34.0
7004,69.0,0,532,0.0,52.0
7005,55.0,512,532,0.0,35.0
7006,72.0,0,532,0.0,55.0
7007,67.0,0,532,0.0,41.0
7008,53.0,0,532,0.0,36.0
7009,69.0,0,532,0.0,43.0
7010,77.0,512,532,0.0,58.0
7011,48.0,0,0,0.0,31.0
7012,60.0,0,0,0.0,33.0
7013,72.0,0,532,0.0,45.0
7014,79.0,0,532,0.0,62.0
7015,77.0,0,532,0.0,42.0
7016,81.0,0,532,0.0,60.0
7017,48.0,0,512,0.0,37.0
7018,41.0,0,0,0.0,37.0
7019,72.0,512,532,0.0,45.0
7020,79.0,0,532,0.0,57.0
7021,77.0,0,0,0.0,56.0
7022,81.0,0,532,0.0,61.0
7023,45.0,0,512,0.0,36.0
7024,72.0,512,532,0.0,43.0
7025,70.0,0,512,0.0,37.0
7026,74.0,0,532,0.0,49.0
7027,46.0,0,1024,0.0,35.0
7028,50.0,0,512,0.0,34.0
7029,70.0,0,512,0.0,45.0
7030,67.0,512,512,0.0,33.0
7031,53.0,0,0,0.0,33.0
7032,62.0,512,1024,0.0,24.0
7033,65.0,0,0,0.0,32.0
7034,41.0,0,256,0.0,24.0
7035,69.0,512,362,0.0,44.0
7036,60.0,0,512,0.0,40.0
7037,57.0,0,512,0.0,28.0
7038,53.0,0,256,0.0,33.0
7039,69.0,768,256,0.0,44.0
7040,65.0,0,256,0.0,32.0
7041,74.0,0,362,0.0,48.0
7042,66.0,0,362,0.0,36.0
7043,50.0,0,362,0.0,33.0
7044,38.0,256,512,0.0,26.0
7045,66.0,0,256,0.0,32.0
7046,74.0,768,256,0.0,44.0
7047,50.0,0,256,0.0,31.0
7048,43.0,0,256,0.0,24.0
7049,55.0,0,362,0.0,31.0
7050,67.0,256,362,0.0,35.0
7051,70.0,0,362,0.0,47.0
7052,67.0,0,256,0.0,32.0
7053,55.0,768,256,0.0,30.0
7054,70.0,0,256,0.0,44.0
7055,36.0,256,256,0.0,26.0
7056,64.0,0,362,0.0,35.0
7057,72.0,0,362,0.0,47.0
7058,48.0,0,362,0.0,30.0
7059,64.0,0,256,0.0,30.0
7060,72.0,0,256,0.0,42.0
7061,48.0,768,256,0.0,28.0
7062,53.0,0,512,0.0,28.0
7063,65.0,0,512,0.0,32.0
7064,41.0,256,512,0.0,18.0
7065,69.0,0,512,0.0,44.0
7066,70.0,768,256,0.0,41.0
7067,67.0,0,256,0.0,29.0
7068,46.0,0,256,0.0,29.0
7069,62.0,0,788,0.0,28.0
7070,69.0,256,788,0.0,45.0
7071,50.0,0,788,0.0,28.0
7072,55.0,0,0,0.0,26.0
7073,67.0,0,0,0.0,38.0
7074,58.0,256,0,0.0,26.0
7075,65.0,0,256,0.0,24.0
7076,69.0,0,256,0.0,36.0
7077,45.0,768,256,0.0,24.0
7078,67.0,0,788,0.0,40.0
7079,60.0,256,788,0.0,23.0
7080,48.0,0,788,0.0,23.0
7081,53.0,256,0,0.0,22.0
7082,65.0,0,0,0.0,40.0
7083,57.0,0,0,0.0,28.0
7084,57.0,0,85,0.0,55.0
7085,45.0,768,85,0.0,55.0
7086,55.0,0,86,0.0,55.0
7087,43.0,85,86,0.0,55.0
7088,53.0,0,85,0.0,55.0
7089,41.0,86,85,0.0,55.0
7090,69.0,0,1536,0.0,64.0
7091,60.0,0,1536,0.0,50.0
7092,71.0,0,532,0.0,53.0
7093,64.0,1536,532,0.0,41.0
7094,60.0,0,512,0.0,33.0
7095,72.0,0,532,0.0,56.0
7096,69.0,512,532,0.0,43.0
7097,59.0,0,512,0.0,33.0
7098,71.0,0,532,0.0,45.0
7099,76.0,512,532,0.0,59.0
7100,57.0,512,532,0.0,36.0
7101,81.0,0,532,0.0,62.0
7102,72.0,0,532,0.0,47.0
7103,52.0,512,512,0.0,37.0
7104,76.0,0,532,0.0,49.0
7105,83.0,0,532,0.0,66.0
7106,81.0,0,512,0.0,51.0
7107,84.0,0,512,0.0,69.0
7108,40.0,0,0,0.0,40.0
7109,72.0,512,512,0.0,37.0
7110,82.0,0,512,0.0,44.0
7111,84.0,0,512,0.0,68.0
7112,48.0,0,0,0.0,37.0
7113,84.0,0,512,0.0,59.0
7114,72.0,512,512,0.0,33.0
7115,81.0,0,0,0.0,56.0
7116,45.0,0,512,0.0,36.0
7117,60.0,512,2048,0.0,24.0
7118,77.0,0,0,0.0,52.0
7119,74.0,512,512,0.0,40.0
7120,70.0,512,512,0.0,37.0
7121,74.0,0,512,0.0,49.0
7122,46.0,0,1024,0.0,35.0
7123,50.0,0,512,0.0,34.0
7124,53.0,0,0,0.0,33.0
7125,62.0,0,1024,0.0,24.0
7126,65.0,0,1024,0.0,33.0
7127,41.0,0,256,0.0,24.0
7128,69.0,512,362,0.0,32.0
7129,72.0,0,362,0.0,44.0
7130,57.0,0,512,0.0,28.0
7131,60.0,0,512,0.0,40.0
7132,53.0,0,256,0.0,32.0
7133,60.0,0,256,0.0,32.0
7134,72.0,0,256,0.0,44.0
7135,69.0,768,256,0.0,32.0
7136,69.0,0,362,0.0,36.0
7137,77.0,0,362,0.0,48.0
7138,50.0,0,362,0.0,31.0
7139,62.0,0,362,0.0,31.0
7140,38.0,256,512,0.0,24.0
7141,62.0,0,256,0.0,30.0
7142,50.0,0,256,0.0,30.0
7143,77.0,0,256,0.0,44.0
7144,69.0,768,256,0.0,32.0
7145,43.0,256,256,0.0,24.0
7146,70.0,0,362,0.0,35.0
7147,55.0,0,362,0.0,30.0
7148,58.0,0,362,0.0,30.0
7149,74.0,0,362,0.0,47.0
7150,70.0,0,256,0.0,32.0
7151,74.0,768,256,0.0,44.0
7152,55.0,0,256,0.0,29.0
7153,58.0,0,256,0.0,29.0
7154,36.0,0,256,0.0,24.0
7155,60.0,0,362,0.0,28.0
7156,48.0,256,362,0.0,28.0
7157,67.0,0,362,0.0,35.0
7158,76.0,0,362,0.0,47.0
7159,48.0,0,256,0.0,27.0
7160,60.0,0,256,0.0,27.0
7161,76.0,0,256,0.0,42.0
7162,67.0,768,256,0.0,30.0
7163,53.0,0,512,0.0,30.0
7164,72.0,0,512,0.0,44.0
7165,57.0,0,512,0.0,30.0
7166,41.0,0,512,0.0,21.0
7167,69.0,256,512,0.0,32.0
7168,70.0,768,256,0.0,32.0
7169,74.0,0,256,0.0,44.0
7170,46.0,0,256,0.0,32.0
7171,69.0,256,788,0.0,31.0
7172,72.0,0,788,0.0,48.0
7173,50.0,0,788,0.0,31.0
7174,67.0,768,256,0.0,29.0
7175,70.0,0,256,0.0,41.0
7176,55.0,0,256,0.0,29.0
7177,55.0,0,512,0.0,29.0
7178,67.0,256,512,0.0,29.0
7179,70.0,0,512,0.0,41.0
7180,69.0,768,256,0.0,27.0
7181,72.0,0,256,0.0,39.0
7182,45.0,0,256,0.0,27.0
7183,48.0,0,788,0.0,26.0
7184,70.0,0,788,0.0,43.0
7185,67.0,256,788,0.0,26.0
7186,53.0,768,256,0.0,24.0
7187,65.0,256,0,0.0,28.0
7188,69.0,0,0,0.0,37.0
7189,53.0,0,512,0.0,26.0
7190,82.0,0,256,0.0,52.0
7191,58.0,0,256,0.0,36.0
7192,74.0,768,256,0.0,36.0
7193,62.0,0,788,0.0,35.0
7194,81.0,0,788,0.0,56.0
7195,72.0,256,788,0.0,35.0
7196,67.0,256,0,0.0,33.0
7197,79.0,0,0,0.0,49.0
7198,70.0,0,0,0.0,33.0
7199,72.0,0,256,0.0,31.0
7200,81.0,768,256,0.0,47.0
7201,57.0,0,256,0.0,31.0
7202,79.0,0,788,0.0,51.0
7203,60.0,256,788,0.0,30.0
7204,70.0,0,788,0.0,30.0
7205,77.0,256,0,0.0,37.0
7206,69.0,0,0,0.0,28.0
7207,65.0,0,0,0.0,26.0
7208,70.0,0,532,0.0,34.0
7209,74.0,0,532,0.0,44.0
7210,46.0,512,532,0.0,34.0
7211,72.0,512,532,0.0,47.0
7212,50.0,0,532,0.0,34.0
7213,69.0,0,532,0.0,37.0
7214,67.0,0,392,0.0,39.0
7215,70.0,512,392,0.0,48.0
7216,55.0,0,392,0.0,35.0
7217,69.0,0,532,0.0,41.0
7218,72.0,0,532,0.0,53.0
7219,45.0,512,532,0.0,41.0
7220,67.0,512,532,0.0,40.0
7221,70.0,0,532,0.0,51.0
7222,48.0,0,532,0.0,40.0
7223,53.0,0,392,0.0,39.0
7224,65.0,512,392,0.0,39.0
7225,69.0,0,392,0.0,49.0
7226,70.0,0,532,0.0,50.0
7227,43.0,512,532,0.0,38.0
7228,67.0,0,532,0.0,38.0
7229,65.0,512,532,0.0,37.0
7230,46.0,0,532,0.0,37.0
7231,69.0,0,532,0.0,48.0
7232,64.0,512,392,0.0,26.0
7233,67.0,0,392,0.0,36.0
7234,52.0,0,392,0.0,24.0
7235,70.0,0,512,0.0,44.0
7236,82.0,0,532,0.0,60.0
7237,79.0,0,532,0.0,43.0
7238,43.0,0,532,0.0,43.0
7239,69.0,0,512,0.0,42.0
7240,77.0,0,532,0.0,43.0
7241,81.0,0,532,0.0,59.0
7242,46.0,512,532,0.0,39.0
7243,52.0,0,392,0.0,38.0
7244,76.0,0,392,0.0,42.0
7245,79.0,512,392,0.0,57.0
7246,67.0,0,512,0.0,41.0
7247,69.0,0,512,0.0,39.0
7248,81.0,0,532,0.0,58.0
7249,41.0,0,532,0.0,41.0
7250,77.0,512,532,0.0,41.0
7251,67.0,0,512,0.0,38.0
7252,79.0,512,532,0.0,56.0
7253,76.0,0,532,0.0,40.0
7254,45.0,0,532,0.0,40.0
7255,74.0,0,392,0.0,39.0
7256,50.0,0,392,0.0,39.0
7257,77.0,0,392,0.0,54.0
7258,65.0,512,512,0.0,36.0
7259,67.0,512,512,0.0,35.0
7260,75.0,0,532,0.0,38.0
7261,79.0,0,532,0.0,55.0
7262,39.0,0,532,0.0,38.0
7263,65.0,0,512,0.0,33.0
7264,43.0,0,532,0.0,37.0
7265,74.0,512,532,0.0,37.0
7266,77.0,0,532,0.0,53.0
7267,48.0,0,392,0.0,33.0
7268,72.0,512,392,0.0,33.0
7269,75.0,0,392,0.0,48.0
7270,63.0,0,512,0.0,32.0
7271,67.0,0,532,0.0,47.0
7272,51.0,0,532,0.0,27.0
7273,62.0,0,532,0.0,36.0
7274,65.0,512,532,0.0,51.0
7275,55.0,0,532,0.0,24.0
7276,63.0,0,392,0.0,53.0
7277,60.0,512,392,0.0,38.0
7278,62.0,0,532,0.0,40.0
7279,65.0,0,532,0.0,59.0
7280,50.0,512,532,0.0,35.0
7281,53.0,0,532,0.0,35.0
7282,60.0,512,532,0.0,41.0
7283,63.0,0,532,0.0,59.0
7284,62.0,0,392,0.0,58.0
7285,58.0,512,392,0.0,40.0
7286,65.0,0,532,0.0,62.0
7287,61.0,512,532,0.0,41.0
7288,49.0,0,532,0.0,35.0
7289,41.0,0,532,0.0,53.0
7290,63.0,0,532,0.0,61.0
7291,60.0,512,532,0.0,41.0
7292,89.0,0,512,0.0,73.0
7293,82.0,0,532,0.0,57.0
7294,49.0,512,532,0.0,55.0
7295,61.0,0,532,0.0,62.0
7296,77.0,0,532,0.0,57.0
7297,58.0,0,532,0.0,46.0
7298,84.0,0,512,0.0,69.0
7299,41.0,0,532,0.0,55.0
7300,53.0,512,532,0.0,44.0
7301,75.0,0,532,0.0,58.0
7302,72.0,0,532,0.0,46.0
7303,87.0,0,532,0.0,60.0
7304,58.0,0,392,0.0,44.0
7305,46.0,0,392,0.0,55.0
7306,85.0,0,392,0.0,53.0
7307,70.0,512,392,0.0,45.0
7308,73.0,0,392,0.0,56.0
7309,37.0,0,1536,0.0,55.0
7310,82.0,0,512,0.0,64.0
7311,80.0,0,512,0.0,57.0
7312,68.0,512,532,0.0,44.0
7313,77.0,0,532,0.0,60.0
7314,89.0,0,532,0.0,75.0
7315,53.0,0,532,0.0,44.0
7316,73.0,512,532,0.0,62.0
7317,70.0,0,532,0.0,46.0
7318,85.0,0,532,0.0,68.0
7319,41.0,0,532,0.0,55.0
7320,82.0,0,532,0.0,52.0
7321,44.0,0,392,0.0,55.0
7322,56.0,512,392,0.0,44.0
7323,68.0,0,392,0.0,44.0
7324,72.0,0,392,0.0,60.0
7325,80.0,0,392,0.0,48.0
7326,84.0,0,392,0.0,64.0
7327,36.0,0,1536,0.0,55.0
7328,48.0,0,1536,0.0,50.0
7329,89.0,512,532,0.0,73.0
7330,65.0,0,1024,0.0,48.0
7331,72.0,512,512,0.0,62.0
7332,53.0,0,512,0.0,50.0
7333,68.0,0,1024,0.0,60.0
7334,84.0,0,512,0.0,71.0
7335,41.0,0,532,0.0,55.0
7336,77.0,0,20,0.0,46.0
7337,80.0,0,1044,0.0,57.0
7338,44.0,0,392,0.0,55.0
7339,83.0,0,392,0.0,62.0
7340,65.0,512,512,0.0,35.0
7341,47.0,0,0,0.0,55.0
7342,56.0,0,512,0.0,50.0
7343,71.0,0,512,0.0,51.0
7344,89.0,0,1024,0.0,74.0
7345,35.0,0,2560,0.0,55.0
7346,80.0,0,0,0.0,48.0
7347,84.0,0,1024,0.0,64.0
7348,53.0,0,1024,0.0,44.0
7349,68.0,0,2048,0.0,54.0
7350,72.0,1024,1024,0.0,54.0
7351,50.0,0,2048,0.0,54.0
7352,62.0,0,2048,0.0,42.0
7353,56.0,0,1024,0.0,36.0
7354,83.0,1024,1024,0.0,53.0
7355,77.0,0,3072,0.0,58.0
7356,65.0,0,3072,0.0,42.0
7357,68.0,0,1024,0.0,41.0
7358,71.0,0,1024,0.0,25.0
7359,38.0,0,1024,0.0,33.0
7360,50.0,0,1024,0.0,21.0
7361,72.0,0,1024,0.0,46.0
7362,84.0,0,1024,0.0,58.0
7363,60.0,0,2048,0.0,32.0
7364,65.0,1024,1024,0.0,39.0
7365,77.0,0,1024,0.0,51.0
7366,48.0,0,2048,0.0,32.0
7367,53.0,0,2048,0.0,24.0
7368,48.0,0,0,0.0,19.0
7369,36.0,0,2048,0.0,32.0
7370,69.0,0,2048,0.0,32.0
7371,57.0,0,2048,0.0,33.0
7372,76.0,0,1024,0.0,45.0
7373,64.0,1024,1024,0.0,33.0
7374,55.0,0,1024,0.0,14.0
7375,58.0,0,1024,0.0,20.0
7376,60.0,0,1024,0.0,19.0
7377,67.0,0,1024,0.0,19.0
7378,72.0,0,1024,0.0,18.0
7379,36.0,0,1024,0.0,19.0
7380,77.0,0,1024,0.0,55.0
7381,47.0,0,1024,0.0,24.0
7382,65.0,0,2048,0.0,33.0
7383,50.0,2048,2048,0.0,32.0
7384,53.0,0,1024,0.0,22.0
7385,68.0,0,2048,0.0,33.0
7386,56.0,1024,0,0.0,19.0
7387,72.0,1024,1054,0.0,39.0
7388,56.0,0,1024,0.0,14.0
7389,38.0,0,1024,0.0,19.0
7390,50.0,0,1024,0.0,14.0
7391,71.0,0,1024,0.0,40.0
7392,65.0,0,1024,0.0,28.0
7393,72.0,0,1054,0.0,48.0
7394,65.0,1024,1024,0.0,42.0
7395,57.0,0,2048,0.0,15.0
7396,53.0,2048,2048,0.0,15.0
7397,48.0,0,2048,0.0,15.0
7398,60.0,0,2048,0.0,24.0
7399,36.0,0,2048,0.0,23.0
7400,48.0,0,0,0.0,10.0
7401,36.0,0,1024,0.0,10.0
7402,55.0,1024,1024,0.0,5.0
7403,64.0,0,1024,0.0,36.0
7404,60.0,0,1024,0.0,24.0
7405,58.0,0,1024,0.0,10.0
7406,60.0,2048,1044,0.0,30.0
7407,45.0,1024,1024,0.0,25.0
7408,36.0,0,0,0.0,22.0
7409,53.0,0,1044,0.0,25.0
7410,43.0,1024,1024,0.0,22.0
7411,52.0,0,1044,0.0,21.0
7412,72.0,0,1044,0.0,48.0
7413,67.0,0,1044,0.0,41.0
7414,48.0,0,2068,0.0,44.0
7415,58.0,1024,1044,0.0,37.0
7416,66.0,0,1044,0.0,36.0
7417,57.0,0,1044,0.0,30.0
7418,62.0,0,1044,0.0,33.0
7419,50.0,1024,1044,0.0,18.0
7420,46.0,0,1024,0.0,33.0
7421,38.0,0,2048,0.0,30.0
7422,55.0,1024,1044,0.0,28.0
7423,45.0,0,1024,0.0,29.0
7424,54.0,0,1044,0.0,23.0
7425,74.0,0,1044,0.0,50.0
7426,60.0,0,1044,0.0,41.0
7427,50.0,1024,2068,0.0,48.0
7428,69.0,1024,1044,0.0,44.0
7429,64.0,1024,1044,0.0,41.0
7430,52.0,0,1044,0.0,23.0
7431,68.0,0,1044,0.0,38.0
7432,59.0,0,1044,0.0,35.0
7433,40.0,0,2048,0.0,40.0
7434,48.0,0,1024,0.0,44.0
7435,57.0,1024,1044,0.0,39.0
7436,47.0,0,1024,0.0,38.0
7437,76.0,0,1044,0.0,58.0
7438,56.0,0,1044,0.0,35.0
7439,68.0,1024,1044,0.0,39.0
7440,71.0,0,1044,0.0,52.0
7441,52.0,1024,2068,0.0,50.0
7442,62.0,0,1044,0.0,47.0
7443,60.0,0,944,0.0,45.0
7444,53.0,1024,944,0.0,33.0
7445,69.0,0,1044,0.0,46.0
7446,41.0,0,1044,0.0,50.0
7447,65.0,0,1044,0.0,46.0
7448,51.0,1024,1044,0.0,47.0
7449,60.0,0,1044,0.0,44.0
7450,57.0,0,1044,0.0,32.0
7451,77.0,1024,1044,0.0,70.0
7452,65.0,0,1044,0.0,51.0
7453,56.0,0,1044,0.0,29.0
7454,59.0,0,1044,0.0,41.0
7455,50.0,0,1044,0.0,43.0
7456,51.0,0,904,0.0,40.0
7457,60.0,0,904,0.0,41.0
7458,57.0,0,904,0.0,31.0
7459,69.0,0,1044,0.0,47.0
7460,72.0,0,1044,0.0,66.0
7461,63.0,1024,1044,0.0,47.0
7462,65.0,0,1024,0.0,47.0
7463,68.0,0,1044,0.0,43.0
7464,41.0,1024,1044,0.0,50.0
7465,62.0,0,1044,0.0,43.0
7466,71.0,0,1044,0.0,62.0
7467,72.0,0,864,0.0,59.0
7468,63.0,0,864,0.0,39.0
7469,69.0,0,864,0.0,39.0
7470,29.0,0,4096,0.0,32.0
7471,57.0,1024,1024,0.0,36.0
7472,60.0,0,1024,0.0,46.0
7473,51.0,0,1044,0.0,47.0
7474,59.0,0,1024,0.0,44.0
7475,56.0,0,1024,0.0,33.0
7476,77.0,0,1044,0.0,70.0
7477,65.0,0,1044,0.0,54.0
7478,50.0,0,1044,0.0,43.0
7479,57.0,0,904,0.0,32.0
7480,51.0,0,904,0.0,40.0
7481,60.0,0,904,0.0,43.0
7482,63.0,0,1044,0.0,51.0
7483,69.0,1024,1044,0.0,51.0
7484,72.0,0,1044,0.0,67.0
7485,65.0,20,1004,0.0,43.0
7486,68.0,1024,1044,0.0,47.0
7487,62.0,0,1044,0.0,47.0
7488,71.0,0,1044,0.0,63.0
7489,41.0,0,1044,0.0,50.0
7490,72.0,0,864,0.0,60.0
7491,63.0,0,864,0.0,44.0
7492,69.0,0,864,0.0,44.0
7493,60.0,20,1004,0.0,43.0
7494,29.0,0,0,0.0,46.0
7495,51.0,1004,1044,0.0,48.0
7496,57.0,20,1004,0.0,41.0
7497,48.0,1004,1044,0.0,46.0
7498,79.0,0,1044,0.0,70.0
7499,75.0,0,1044,0.0,54.0
7500,67.0,0,1044,0.0,54.0
7501,74.0,1004,864,0.0,62.0
7502,65.0,0,864,0.0,48.0
7503,58.0,0,904,0.0,41.0
7504,50.0,0,904,0.0,44.0
7505,29.0,0,0,0.0,34.0
7506,55.0,20,1004,0.0,40.0
7507,46.0,1024,1044,0.0,38.0
7508,77.0,0,1044,0.0,66.0
7509,73.0,0,1044,0.0,52.0
7510,65.0,0,1044,0.0,52.0
7511,72.0,0,864,0.0,57.0
7512,63.0,1004,864,0.0,43.0
7513,57.0,0,904,0.0,39.0
7514,48.0,0,904,0.0,34.0
7515,41.0,0,2048,0.0,44.0
7516,54.0,20,1004,0.0,38.0
7517,63.0,0,1044,0.0,50.0
7518,45.0,0,1044,0.0,30.0
7519,75.0,1024,1044,0.0,64.0
7520,72.0,0,1044,0.0,50.0
7521,70.0,0,864,0.0,54.0
7522,62.0,1004,864,0.0,40.0
7523,53.0,0,904,0.0,38.0
7524,29.0,0,2048,0.0,41.0
7525,46.0,0,1024,0.0,24.0
7526,52.0,0,1024,0.0,36.0
7527,43.0,20,1004,0.0,25.0
7528,70.0,1024,1044,0.0,41.0
7529,74.0,0,1044,0.0,55.0
7530,67.0,0,864,0.0,45.0
7531,62.0,1004,864,0.0,31.0
7532,58.0,0,904,0.0,36.0
7533,52.0,0,904,0.0,25.0
7534,41.0,0,2048,0.0,38.0
7535,29.0,0,2048,0.0,28.0
7536,52.0,0,0,0.0,22.0
7537,43.0,20,1004,0.0,23.0
7538,73.0,0,1044,0.0,53.0
7539,70.0,0,1044,0.0,39.0
7540,61.0,0,864,0.0,30.0
7541,67.0,1004,864,0.0,44.0
7542,58.0,0,904,0.0,33.0
7543,29.0,1024,0,0.0,22.0
7544,52.0,0,0,0.0,19.0
7545,43.0,20,1004,0.0,21.0
7546,73.0,0,1044,0.0,50.0
7547,70.0,0,1044,0.0,36.0
7548,67.0,0,864,0.0,42.0
7549,61.0,1004,864,0.0,28.0
7550,58.0,0,904,0.0,30.0
7551,41.0,0,2048,0.0,31.0
7552,43.0,20,1004,0.0,18.0
7553,52.0,1024,1024,0.0,29.0
7554,29.0,0,1024,0.0,27.0
7555,41.0,1004,0,0.0,27.0
7556,70.0,0,1044,0.0,36.0
7557,72.0,0,1044,0.0,50.0
7558,60.0,0,864,0.0,26.0
7559,67.0,0,864,0.0,40.0
7560,52.0,0,904,0.0,17.0
7561,58.0,0,904,0.0,28.0
7562,41.0,0,0,0.0,21.0
7563,43.0,20,1004,0.0,10.0
7564,52.0,0,1024,0.0,21.0
7565,70.0,0,1044,0.0,27.0
7566,72.0,1024,1044,0.0,41.0
7567,60.0,0,864,0.0,16.0
7568,67.0,1004,864,0.0,29.0
7569,58.0,0,1024,0.0,19.0
7570,52.0,0,0,0.0,13.0
7571,29.0,0,3072,0.0,21.0
7572,84.0,0,1024,0.0,58.0
7573,43.0,0,1536,0.0,26.0
7574,79.0,1024,1556,0.0,53.0
7575,72.0,1024,1044,0.0,45.0
7576,81.0,512,532,0.0,53.0
7577,82.0,512,532,0.0,53.0
7578,79.0,512,532,0.0,50.0
7579,76.0,512,532,0.0,48.0
7580,67.0,0,1556,0.0,45.0
7581,70.0,512,0,0.0,50.0
7582,77.0,512,532,0.0,48.0
7583,69.0,0,532,0.0,47.0
7584,79.0,0,532,0.0,50.0
7585,58.0,0,6144,0.0,23.0
7586,76.0,512,532,0.0,49.0
7587,70.0,0,532,0.0,47.0
7588,67.0,0,1044,0.0,45.0
7589,69.0,0,532,0.0,48.0
7590,72.0,512,532,0.0,50.0
7591,74.0,512,532,0.0,52.0
7592,70.0,0,20,0.0,50.0
7593,64.0,512,1044,0.0,45.0
7594,67.0,512,532,0.0,47.0
7595,69.0,512,532,0.0,50.0
7596,66.0,0,532,0.0,48.0
7597,67.0,0,532,0.0,51.0
7598,60.0,512,532,0.0,44.0
7599,67.0,512,532,0.0,45.0
7600,70.0,512,1556,0.0,53.0
7601,50.0,0,512,0.0,34.0
7602,29.0,0,10240,0.0,22.0
7603,41.0,0,0,0.0,22.0
7604,71.0,512,532,0.0,48.0
7605,65.0,0,532,0.0,45.0
7606,64.0,0,532,0.0,46.0
7607,72.0,512,532,0.0,50.0
7608,60.0,0,1024,0.0,37.0
7609,74.0,0,532,0.0,53.0
7610,62.0,512,532,0.0,47.0
7611,76.0,512,532,0.0,56.0
7612,60.0,0,532,0.0,47.0
7613,62.0,512,512,0.0,40.0
7614,48.0,0,2048,0.0,22.0
7615,77.0,0,532,0.0,58.0
7616,59.0,0,532,0.0,48.0
7617,79.0,512,532,0.0,61.0
7618,58.0,0,532,0.0,49.0
7619,57.0,512,532,0.0,44.0
7620,81.0,0,532,0.0,56.0
7621,41.0,0,2048,0.0,22.0
7622,48.0,1024,0,0.0,22.0
7623,55.0,512,2048,0.0,40.0
7624,60.0,0,3072,0.0,37.0
7625,64.0,0,3072,0.0,42.0
7626,82.0,0,2068,0.0,50.0
7627,76.0,0,1024,0.0,30.0
7628,41.0,0,0,0.0,22.0
7629,67.0,1024,1044,0.0,45.0
7630,70.0,0,2048,0.0,27.0
7631,60.0,1024,1024,0.0,40.0
7632,77.0,1024,1024,0.0,45.0
7633,62.0,512,532,0.0,49.0
7634,63.0,512,532,0.0,52.0
7635,69.0,0,2048,0.0,37.0
7636,60.0,512,532,0.0,49.0
7637,72.0,0,1536,0.0,45.0
7638,57.0,0,532,0.0,47.0
7639,74.0,512,512,0.0,47.0
7640,58.0,0,532,0.0,49.0
7641,60.0,0,512,0.0,50.0
7642,75.0,512,532,0.0,50.0
7643,57.0,512,512,0.0,49.0
7644,53.0,0,4096,0.0,25.0
7645,51.0,0,512,0.0,47.0
7646,72.0,0,1044,0.0,45.0
7647,53.0,0,512,0.0,50.0
7648,74.0,512,532,0.0,48.0
7649,55.0,512,512,0.0,52.0
7650,75.0,0,532,0.0,50.0
7651,51.0,0,512,0.0,50.0
7652,48.0,512,512,0.0,47.0
7653,69.0,512,1044,0.0,45.0
7654,65.0,512,5120,0.0,33.0
7655,50.0,512,512,0.0,50.0
7656,29.0,0,8192,0.0,22.0
7657,41.0,512,0,0.0,22.0
7658,71.0,0,532,0.0,48.0
7659,65.0,512,532,0.0,44.0
7660,57.0,512,4608,0.0,33.0
7661,72.0,512,532,0.0,45.0
7662,51.0,0,1556,0.0,53.0
7663,55.0,0,512,0.0,33.0
7664,70.0,0,532,0.0,45.0
7665,52.0,512,532,0.0,48.0
7666,69.0,0,532,0.0,46.0
7667,53.0,0,532,0.0,33.0
7668,55.0,0,532,0.0,53.0
7669,67.0,512,532,0.0,47.0
7670,57.0,512,532,0.0,56.0
7671,65.0,0,532,0.0,47.0
7672,55.0,512,512,0.0,33.0
7673,64.0,0,532,0.0,48.0
7674,58.0,0,532,0.0,58.0
7675,60.0,512,20,0.0,50.0
7676,57.0,512,532,0.0,44.0
7677,58.0,0,532,0.0,58.0
7678,63.0,0,1556,0.0,49.0
7679,57.0,512,532,0.0,55.0
7680,72.0,0,532,0.0,55.0
7681,64.0,0,532,0.0,48.0
7682,70.0,0,532,0.0,54.0
7683,55.0,512,532,0.0,53.0
7684,65.0,0,532,0.0,49.0
7685,53.0,512,532,0.0,51.0
7686,69.0,0,532,0.0,53.0
7687,67.0,0,532,0.0,51.0
7688,51.0,0,532,0.0,49.0
7689,50.0,512,532,0.0,46.0
7690,65.0,0,532,0.0,50.0
7691,69.0,0,532,0.0,50.0
7692,41.0,512,0,0.0,29.0
7693,29.0,0,8192,0.0,22.0
7694,49.0,512,532,0.0,44.0
7695,70.0,0,532,0.0,51.0
7696,64.0,0,532,0.0,49.0
7697,63.0,0,532,0.0,48.0
7698,72.0,0,532,0.0,52.0
7699,48.0,0,532,0.0,44.0
7700,74.0,0,532,0.0,53.0
7701,62.0,512,532,0.0,46.0
7702,77.0,0,532,0.0,57.0
7703,46.0,0,532,0.0,46.0
7704,75.0,0,532,0.0,54.0
7705,60.0,0,20,0.0,44.0
7706,45.0,0,532,0.0,47.0
7707,84.0,512,532,0.0,64.0
7708,43.0,0,532,0.0,49.0
7709,82.0,0,532,0.0,62.0
7710,76.0,512,532,0.0,54.0
7711,77.0,0,532,0.0,55.0
7712,72.0,0,532,0.0,44.0
7713,81.0,512,532,0.0,60.0
7714,70.0,512,532,0.0,45.0
7715,79.0,0,532,0.0,56.0
7716,69.0,0,532,0.0,46.0
7717,81.0,512,532,0.0,57.0
7718,77.0,0,532,0.0,56.0
7719,82.0,0,532,0.0,58.0
7720,67.0,512,532,0.0,48.0
7721,76.0,0,532,0.0,54.0
7722,69.0,0,532,0.0,49.0
7723,84.0,512,532,0.0,58.0
7724,75.0,0,532,0.0,52.0
7725,70.0,512,532,0.0,50.0
7726,86.0,0,532,0.0,59.0
7727,74.0,0,532,0.0,50.0
7728,72.0,0,532,0.0,51.0
7729,74.0,512,532,0.0,53.0
7730,75.0,512,532,0.0,54.0
7731,72.0,0,20,0.0,35.0
7732,87.0,512,20,0.0,56.0
7733,77.0,512,532,0.0,55.0
7734,41.0,1024,0,0.0,30.0
7735,29.0,0,6144,0.0,35.0
7736,78.0,0,2048,0.0,40.0
7737,69.0,0,2048,0.0,23.0
7738,81.0,0,2048,0.0,40.0
7739,86.0,0,2048,0.0,49.0
7740,82.0,1024,0,0.0,28.0
7741,77.0,0,2048,0.0,33.0
7742,70.0,1024,2048,0.0,23.0
7743,74.0,0,2048,0.0,35.0
7744,46.0,1024,2068,0.0,35.0
7745,77.0,0,2048,0.0,30.0
7746,85.0,0,2048,0.0,28.0
7747,89.0,0,2048,0.0,44.0
7748,73.0,0,2048,0.0,18.0
7749,53.0,1024,2068,0.0,39.0
7750,88.0,0,2048,0.0,44.0
7751,76.0,0,0,0.0,18.0
7752,72.0,0,2048,0.0,18.0
7753,79.0,0,0,0.0,18.0
7754,82.0,1024,0,0.0,30.0
7755,84.0,0,0,0.0,32.0
7756,60.0,1024,2068,0.0,44.0
7757,88.0,0,2048,0.0,32.0
7758,94.0,0,2048,0.0,48.0
7759,65.0,1024,1556,0.0,44.0
7760,67.0,512,532,0.0,48.0
7761,69.0,512,532,0.0,52.0
7762,77.0,512,0,0.0,16.0
7763,81.0,1024,2048,0.0,30.0
7764,84.0,0,2048,0.0,27.0
7765,93.0,0,2048,0.0,43.0
7766,89.0,0,0,0.0,37.0
7767,65.0,512,1044,0.0,48.0
7768,67.0,512,532,0.0,47.0
7769,68.0,512,532,0.0,51.0
7770,92.0,0,2048,0.0,52.0
7771,84.0,0,2048,0.0,37.0
7772,80.0,512,0,0.0,33.0
7773,77.0,0,0,0.0,33.0
7774,65.0,512,1044,0.0,44.0
7775,67.0,512,532,0.0,47.0
7776,68.0,512,532,0.0,50.0
7777,85.0,0,2048,0.0,33.0
7778,89.0,0,2048,0.0,48.0
7779,77.0,512,0,0.0,29.0
7780,80.0,0,0,0.0,29.0
7781,65.0,512,532,0.0,47.0
7782,61.0,0,532,0.0,44.0
7783,65.0,512,532,0.0,40.0
7784,83.0,0,2048,0.0,44.0
7785,60.0,512,2068,0.0,35.0
7786,79.0,0,2048,0.0,26.0
7787,76.0,1024,2048,0.0,26.0
7788,84.0,0,2048,0.0,41.0
7789,36.0,1024,2068,0.0,40.0
7790,67.0,1024,2048,0.0,26.0
7791,76.0,0,2048,0.0,26.0
7792,79.0,0,2048,0.0,26.0
7793,82.0,0,2048,0.0,45.0
7794,37.0,1024,1556,0.0,44.0
7795,39.0,512,532,0.0,48.0
7796,68.0,0,1044,0.0,33.0
7797,41.0,512,532,0.0,52.0
7798,77.0,0,2048,0.0,33.0
7799,80.0,1024,2048,0.0,48.0
7800,71.0,0,1044,0.0,41.0
7801,37.0,512,1044,0.0,48.0
7802,41.0,512,532,0.0,47.0
7803,73.0,0,1044,0.0,40.0
7804,42.0,0,532,0.0,51.0
7805,78.0,0,2048,0.0,52.0
7806,69.0,512,2048,0.0,40.0
7807,72.0,512,1044,0.0,44.0
7808,37.0,512,1044,0.0,44.0
7809,43.0,512,532,0.0,47.0
7810,44.0,512,532,0.0,50.0
7811,68.0,0,2048,0.0,36.0
7812,73.0,0,2048,0.0,36.0
7813,77.0,512,2048,0.0,48.0
7814,41.0,512,532,0.0,47.0
7815,37.0,0,532,0.0,44.0
7816,71.0,512,1024,0.0,40.0
7817,68.0,0,1024,0.0,25.0
7818,65.0,0,1024,0.0,25.0
7819,56.0,0,1024,0.0,25.0
7820,41.0,512,532,0.0,40.0
7821,36.0,512,1556,0.0,40.0
7822,67.0,0,1024,0.0,24.0
7823,72.0,1024,1024,0.0,37.0
7824,64.0,0,1024,0.0,24.0
7825,55.0,0,1024,0.0,24.0
7826,43.0,512,532,0.0,40.0
7827,44.0,512,532,0.0,44.0
7828,41.0,512,532,0.0,42.0
7829,37.0,0,532,0.0,40.0
7830,71.0,0,1024,0.0,37.0
7831,65.0,0,1024,0.0,24.0
7832,56.0,512,1024,0.0,24.0
7833,41.0,512,532,0.0,37.0
7834,36.0,512,1556,0.0,35.0
7835,72.0,0,1024,0.0,37.0
7836,55.0,0,1024,0.0,24.0
7837,64.0,0,1024,0.0,24.0
7838,60.0,1024,1024,0.0,24.0
7839,42.0,512,532,0.0,37.0
7840,43.0,512,532,0.0,38.0
7841,40.0,512,532,0.0,38.0
7842,36.0,0,392,0.0,39.0
7843,64.0,0,1024,0.0,20.0
7844,60.0,0,1024,0.0,20.0
7845,72.0,512,1024,0.0,35.0
7846,55.0,512,0,0.0,40.0
7847,54.0,512,532,0.0,40.0
7848,52.0,512,532,0.0,41.0
7849,48.0,0,392,0.0,42.0
7850,55.0,512,1024,0.0,20.0
7851,60.0,0,1024,0.0,20.0
7852,64.0,0,1024,0.0,20.0
7853,72.0,0,1024,0.0,35.0
7854,57.0,512,532,0.0,42.0
7855,58.0,512,532,0.0,43.0
7856,55.0,512,532,0.0,44.0
7857,52.0,512,392,0.0,44.0
7858,60.0,512,512,0.0,40.0
7859,48.0,0,512,0.0,45.0
7860,49.0,0,361,0.0,39.0
7861,61.0,512,361,0.0,48.0
7862,46.0,341,362,0.0,35.0
7863,58.0,0,362,0.0,44.0
7864,43.0,0,361,0.0,36.0
7865,55.0,342,361,0.0,45.0
7866,46.0,341,361,0.0,37.0
7867,58.0,0,361,0.0,46.0
7868,61.0,0,362,0.0,48.0
7869,49.0,341,362,0.0,39.0
7870,51.0,0,361,0.0,40.0
7871,63.0,342,361,0.0,49.0
7872,64.0,341,361,0.0,57.0
7873,52.0,0,361,0.0,48.0
7874,49.0,0,362,0.0,43.0
7875,61.0,341,362,0.0,52.0
7876,46.0,0,361,0.0,45.0
7877,58.0,342,361,0.0,54.0
7878,49.0,0,361,0.0,46.0
7879,61.0,341,361,0.0,55.0
7880,64.0,0,362,0.0,56.0
7881,52.0,341,362,0.0,47.0
7882,66.0,342,361,0.0,58.0
7883,54.0,0,361,0.0,49.0
7884,55.0,341,341,0.0,56.0
7885,67.0,0,341,0.0,65.0
7886,64.0,341,342,0.0,61.0
7887,52.0,0,342,0.0,52.0
7888,61.0,0,341,0.0,62.0
7889,49.0,342,341,0.0,53.0
7890,64.0,341,341,0.0,64.0
7891,52.0,0,341,0.0,55.0
7892,67.0,341,342,0.0,65.0
7893,55.0,0,342,0.0,56.0
7894,69.0,342,341,0.0,66.0
7895,57.0,0,341,0.0,57.0
7896,70.0,0,341,0.0,74.0
7897,58.0,341,341,0.0,65.0
7898,67.0,0,342,0.0,69.0
7899,55.0,341,342,0.0,60.0
7900,64.0,342,341,0.0,71.0
7901,52.0,0,341,0.0,62.0
7902,67.0,341,341,0.0,72.0
7903,55.0,0,341,0.0,63.0
7904,58.0,341,342,0.0,65.0
7905,70.0,0,342,0.0,74.0
7906,72.0,0,341,0.0,75.0
7907,60.0,342,341,0.0,66.0
7908,70.0,0,206,0.0,68.0
7909,58.0,306,206,0.0,59.0
7910,67.0,0,206,0.0,66.0
7911,55.0,256,206,0.0,57.0
7912,61.0,0,0,0.0,61.0
7913,58.0,0,206,0.0,55.0
7914,73.0,0,0,0.0,70.0
7915,70.0,256,206,0.0,64.0
7916,49.0,206,512,0.0,76.0
7917,37.0,0,512,0.0,76.0
7918,77.0,0,512,0.0,80.0
7919,56.0,306,206,0.0,59.0
7920,68.0,0,206,0.0,68.0
7921,61.0,0,206,0.0,66.0
7922,56.0,256,206,0.0,55.0
7923,49.0,256,462,0.0,57.0
7924,68.0,0,206,0.0,64.0
7925,61.0,0,276,0.0,61.0
7926,73.0,0,512,0.0,70.0
7927,70.0,256,276,0.0,68.0
7928,58.0,0,276,0.0,59.0
7929,55.0,256,276,0.0,58.0
7930,67.0,0,276,0.0,67.0
7931,58.0,0,276,0.0,56.0
7932,70.0,256,276,0.0,65.0
7933,73.0,256,532,0.0,73.0
7934,61.0,0,532,0.0,55.0
7935,49.0,0,2048,0.0,76.0
7936,64.0,206,2048,0.0,64.0
7937,76.0,0,2048,0.0,89.0
7938,43.0,0,2048,0.0,76.0
7939,70.0,0,256,0.0,68.0
7940,58.0,2304,256,0.0,59.0
7941,73.0,256,256,0.0,70.0
7942,61.0,0,256,0.0,61.0
7943,75.0,256,256,0.0,72.0
7944,63.0,0,256,0.0,63.0
7945,77.0,256,256,0.0,74.0
7946,65.0,0,256,0.0,65.0
7947,73.0,256,256,0.0,72.0
7948,61.0,0,256,0.0,63.0
7949,58.0,0,256,0.0,61.0
7950,70.0,256,256,0.0,70.0
7951,73.0,0,256,0.0,68.0
7952,61.0,256,256,0.0,59.0
7953,65.0,256,316,0.0,65.0
7954,68.0,0,512,0.0,64.0
7955,72.0,316,196,0.0,72.0
7956,60.0,0,196,0.0,63.0
7957,80.0,0,512,0.0,80.0
7958,41.0,0,512,0.0,67.0
7959,53.0,0,512,0.0,76.0
7960,65.0,256,196,0.0,70.0
7961,72.0,256,196,0.0,68.0
7962,77.0,0,1024,0.0,74.0
7963,53.0,0,452,0.0,61.0
7964,60.0,0,196,0.0,59.0
7965,65.0,0,512,0.0,65.0
7966,61.0,0,196,0.0,63.0
7967,73.0,316,196,0.0,72.0
7968,77.0,0,512,0.0,74.0
7969,70.0,0,196,0.0,71.0
7970,58.0,256,196,0.0,62.0
7971,61.0,256,196,0.0,60.0
7972,73.0,0,196,0.0,69.0
7973,65.0,196,512,0.0,59.0
7974,77.0,0,512,0.0,77.0
7975,46.0,0,2048,0.0,67.0
7976,67.0,0,2048,0.0,64.0
7977,79.0,0,2048,0.0,89.0
7978,53.0,0,2048,0.0,67.0
7979,61.0,0,256,0.0,59.0
7980,73.0,2304,256,0.0,68.0
7981,77.0,256,256,0.0,70.0
7982,65.0,0,256,0.0,61.0
7983,79.0,0,256,0.0,73.0
7984,67.0,256,256,0.0,64.0
7985,80.0,256,256,0.0,70.0
7986,68.0,0,256,0.0,55.0
7987,77.0,316,276,0.0,70.0
7988,65.0,0,276,0.0,55.0
7989,61.0,0,276,0.0,55.0
7990,73.0,256,276,0.0,70.0
7991,77.0,256,276,0.0,70.0
7992,65.0,0,276,0.0,55.0
7993,80.0,0,256,0.0,62.0
7994,68.0,0,256,0.0,55.0
7995,84.0,0,512,0.0,80.0
7996,72.0,0,512,0.0,62.0
7997,75.0,316,196,0.0,70.0
7998,56.0,0,512,0.0,67.0
7999,63.0,0,276,0.0,55.0
8000,68.0,0,276,0.0,70.0
8001,56.0,256,276,0.0,55.0
8002,63.0,0,276,0.0,55.0
8003,75.0,256,276,0.0,70.0
8004,80.0,0,256,0.0,70.0
8005,68.0,0,256,0.0,55.0
8006,85.0,0,512,0.0,87.0
8007,49.0,0,512,0.0,67.0
8008,61.0,0,512,0.0,76.0
8009,73.0,196,512,0.0,71.0
8010,77.0,316,196,0.0,70.0
8011,65.0,0,276,0.0,55.0
8012,73.0,0,276,0.0,70.0
8013,61.0,256,276,0.0,55.0
8014,65.0,256,276,0.0,55.0
8015,77.0,0,276,0.0,70.0
8016,68.0,0,256,0.0,55.0
8017,80.0,0,256,0.0,70.0
8018,84.0,0,512,0.0,84.0
8019,44.0,0,512,0.0,67.0
8020,75.0,0,196,0.0,70.0
8021,72.0,0,512,0.0,66.0
8022,56.0,196,512,0.0,76.0
8023,63.0,316,276,0.0,55.0
8024,68.0,0,276,0.0,70.0
8025,56.0,256,276,0.0,55.0
8026,75.0,0,276,0.0,70.0
8027,63.0,256,276,0.0,55.0
8028,80.0,0,256,0.0,70.0
8029,68.0,0,256,0.0,55.0
8030,85.0,0,512,0.0,86.0
8031,37.0,0,512,0.0,64.0
8032,49.0,196,512,0.0,76.0
8033,77.0,316,196,0.0,70.0
8034,73.0,0,512,0.0,66.0
8035,65.0,0,276,0.0,55.0
8036,61.0,256,276,0.0,55.0
8037,73.0,0,276,0.0,70.0
8038,65.0,256,276,0.0,55.0
8039,77.0,0,276,0.0,70.0
8040,66.0,0,256,0.0,76.0
8041,78.0,0,256,0.0,62.0
8042,70.0,0,512,0.0,62.0
8043,73.0,0,196,0.0,70.0
8044,82.0,0,512,0.0,80.0
8045,54.0,0,512,0.0,67.0
8046,61.0,316,276,0.0,55.0
8047,54.0,0,276,0.0,55.0
8048,66.0,256,276,0.0,70.0
8049,61.0,0,276,0.0,55.0
8050,73.0,256,276,0.0,70.0
8051,78.0,0,256,0.0,70.0
8052,66.0,0,256,0.0,55.0
8053,71.0,0,512,0.0,66.0
8054,59.0,0,512,0.0,76.0
8055,47.0,0,512,0.0,67.0
8056,83.0,0,512,0.0,82.0
8057,75.0,316,196,0.0,70.0
8058,63.0,0,276,0.0,55.0
8059,71.0,0,276,0.0,70.0
8060,59.0,256,276,0.0,55.0
8061,63.0,0,276,0.0,55.0
8062,75.0,256,276,0.0,70.0
8063,66.0,0,256,0.0,55.0
8064,78.0,0,256,0.0,66.0
8065,54.0,0,512,0.0,76.0
8066,70.0,0,512,0.0,66.0
8067,73.0,0,196,0.0,70.0
8068,42.0,0,512,0.0,67.0
8069,82.0,0,512,0.0,84.0
8070,61.0,316,276,0.0,55.0
8071,66.0,0,276,0.0,70.0
8072,54.0,256,276,0.0,55.0
8073,73.0,256,276,0.0,70.0
8074,61.0,0,276,0.0,55.0
8075,78.0,0,256,0.0,66.0
8076,66.0,0,256,0.0,55.0
8077,83.0,0,512,0.0,86.0
8078,71.0,0,512,0.0,66.0
8079,75.0,316,196,0.0,70.0
8080,35.0,0,512,0.0,64.0
8081,47.0,0,512,0.0,76.0
8082,63.0,0,276,0.0,55.0
8083,59.0,256,276,0.0,55.0
8084,71.0,0,276,0.0,70.0
8085,63.0,256,276,0.0,55.0
8086,75.0,0,276,0.0,70.0
8087,65.0,0,256,0.0,55.0
8088,77.0,0,256,0.0,61.0
8089,81.0,0,512,0.0,79.0
8090,69.0,0,512,0.0,61.0
8091,72.0,0,196,0.0,70.0
8092,53.0,0,512,0.0,76.0
8093,41.0,0,512,0.0,67.0
8094,60.0,316,276,0.0,55.0
8095,65.0,256,276,0.0,70.0
8096,53.0,0,276,0.0,55.0
8097,72.0,0,276,0.0,70.0
8098,60.0,256,276,0.0,55.0
8099,77.0,0,256,0.0,64.0
8100,65.0,0,256,0.0,55.0
8101,73.0,316,196,0.0,70.0
8102,46.0,0,512,0.0,76.0
8103,70.0,0,512,0.0,64.0
8104,82.0,0,512,0.0,80.0
8105,34.0,0,512,0.0,67.0
8106,61.0,0,276,0.0,55.0
8107,58.0,256,276,0.0,55.0
8108,70.0,0,276,0.0,70.0
8109,73.0,0,80,0.0,57.0
8110,61.0,256,276,0.0,55.0
8111,65.0,0,256,0.0,55.0
8112,77.0,0,256,0.0,70.0
8113,68.0,0,512,0.0,57.0
8114,73.0,0,196,0.0,70.0
8115,37.0,0,512,0.0,67.0
8116,49.0,196,512,0.0,76.0
8117,80.0,0,512,0.0,75.0
8118,61.0,316,276,0.0,55.0
8119,53.0,256,276,0.0,55.0
8120,65.0,0,276,0.0,70.0
8121,73.0,0,80,0.0,66.0
8122,61.0,0,80,0.0,55.0
8123,42.0,0,512,0.0,76.0
8124,80.0,0,512,0.0,86.0
8125,70.0,316,196,0.0,70.0
8126,68.0,0,512,0.0,66.0
8127,30.0,0,512,0.0,64.0
8128,58.0,0,276,0.0,55.0
8129,68.0,256,276,0.0,70.0
8130,56.0,0,276,0.0,55.0
8131,58.0,0,276,0.0,55.0
8132,70.0,196,80,0.0,66.0
8133,73.0,0,256,0.0,70.0
8134,61.0,0,256,0.0,55.0
8135,46.0,0,512,0.0,76.0
8136,78.0,0,512,0.0,84.0
8137,70.0,0,196,0.0,70.0
8138,66.0,0,512,0.0,66.0
8139,34.0,0,512,0.0,67.0
8140,58.0,316,276,0.0,55.0
8141,54.0,256,276,0.0,55.0
8142,66.0,0,276,0.0,70.0
8143,70.0,0,276,0.0,70.0
8144,58.0,256,276,0.0,55.0
8145,68.0,0,256,0.0,59.0
8146,56.0,0,256,0.0,55.0
8147,65.0,316,196,0.0,70.0
8148,77.0,196,512,0.0,84.0
8149,36.0,0,512,0.0,67.0
8150,48.0,0,512,0.0,76.0
8151,53.0,0,276,0.0,55.0
8152,60.0,256,276,0.0,70.0
8153,48.0,0,276,0.0,55.0
8154,65.0,256,276,0.0,70.0
8155,53.0,0,276,0.0,55.0
8156,72.0,0,256,0.0,70.0
8157,60.0,0,256,0.0,55.0
8158,76.0,0,512,0.0,84.0
8159,67.0,316,196,0.0,70.0
8160,64.0,196,512,0.0,59.0
8161,48.0,0,512,0.0,67.0
8162,55.0,0,276,0.0,55.0
8163,48.0,256,276,0.0,55.0
8164,60.0,0,20,0.0,55.0
8165,72.0,0,80,0.0,55.0
8166,60.0,0,80,0.0,43.0
8167,56.0,0,512,0.0,64.0
8168,84.0,256,256,0.0,72.0
8169,77.0,0,512,0.0,82.0
8170,72.0,0,256,0.0,58.0
8171,65.0,0,512,0.0,62.0
8172,53.0,0,512,0.0,62.0
8173,65.0,256,0,0.0,61.0
8174,68.0,256,512,0.0,54.0
8175,77.0,0,0,0.0,61.0
8176,80.0,0,512,0.0,68.0
8177,73.0,0,256,0.0,57.0
8178,49.0,0,512,0.0,60.0
8179,85.0,256,256,0.0,71.0
8180,68.0,0,512,0.0,54.0
8181,65.0,256,512,0.0,58.0
8182,85.0,256,256,0.0,64.0
8183,89.0,0,1024,0.0,75.0
8184,53.0,0,512,0.0,58.0
8185,61.0,0,1024,0.0,60.0
8186,73.0,0,256,0.0,50.0
8187,77.0,0,512,0.0,74.0
8188,80.0,0,512,0.0,68.0
8189,63.0,0,256,0.0,61.0
8190,55.0,256,512,0.0,64.0
8191,55.0,0,256,0.0,54.0
8192,67.0,0,256,0.0,68.0
8193,51.0,256,512,0.0,62.0
8194,79.0,0,1024,0.0,83.0
8195,75.0,0,512,0.0,80.0
8196,63.0,0,512,0.0,62.0
8197,58.0,256,256,0.0,57.0
8198,75.0,0,0,0.0,75.0
8199,70.0,0,256,0.0,71.0
8200,63.0,0,0,0.0,61.0
8201,87.0,0,1024,0.0,75.0
8202,72.0,0,256,0.0,73.0
8203,48.0,0,512,0.0,60.0
8204,60.0,256,256,0.0,59.0
8205,55.0,256,256,0.0,54.0
8206,67.0,0,256,0.0,68.0
8207,51.0,0,512,0.0,61.0
8208,60.0,256,256,0.0,50.0
8209,75.0,0,512,0.0,77.0
8210,72.0,0,256,0.0,64.0
8211,63.0,0,512,0.0,61.0
8212,61.0,256,0,0.0,50.0
8213,73.0,0,0,0.0,66.0
8214,53.0,0,512,0.0,64.0
8215,65.0,256,256,0.0,54.0
8216,49.0,0,512,0.0,62.0
8217,61.0,0,512,0.0,62.0
8218,68.0,256,256,0.0,58.0
8219,73.0,0,512,0.0,78.0
8220,77.0,0,512,0.0,68.0
8221,80.0,0,256,0.0,72.0
8222,73.0,0,0,0.0,61.0
8223,61.0,256,0,0.0,61.0
8224,56.0,0,1024,0.0,43.0
8225,46.0,0,512,0.0,60.0
8226,70.0,0,512,0.0,57.0
8227,82.0,256,0,0.0,66.0
8228,85.0,0,1024,0.0,75.0
8229,77.0,0,512,0.0,68.0
8230,70.0,0,256,0.0,50.0
8231,65.0,0,512,0.0,54.0
8232,49.0,256,512,0.0,58.0
8233,58.0,0,1024,0.0,60.0
8234,73.0,0,512,0.0,74.0
8235,60.0,256,256,0.0,61.0
8236,51.0,0,512,0.0,64.0
8237,63.0,0,256,0.0,68.0
8238,48.0,0,512,0.0,62.0
8239,75.0,0,1024,0.0,79.0
8240,72.0,256,512,0.0,78.0
8241,60.0,0,512,0.0,62.0
8242,51.0,0,512,0.0,54.0
8243,84.0,0,1024,0.0,75.0
8244,55.0,0,256,0.0,57.0
8245,67.0,256,256,0.0,71.0
8246,60.0,0,0,0.0,61.0
8247,44.0,0,512,0.0,60.0
8248,51.0,0,256,0.0,54.0
8249,56.0,256,512,0.0,59.0
8250,63.0,256,256,0.0,68.0
8251,68.0,0,512,0.0,73.0
8252,48.0,0,512,0.0,62.0
8253,56.0,256,256,0.0,50.0
8254,68.0,0,256,0.0,66.0
8255,72.0,0,512,0.0,74.0
8256,60.0,0,512,0.0,62.0
8257,70.0,0,256,0.0,74.0
8258,58.0,0,256,0.0,55.0
8259,49.0,0,256,0.0,64.0
8260,53.0,0,256,0.0,64.0
8261,61.0,0,256,0.0,64.0
8262,73.0,0,256,0.0,81.0
8263,58.0,256,256,0.0,64.0
8264,46.0,0,256,0.0,64.0
8265,61.0,0,256,0.0,54.0
8266,70.0,0,256,0.0,80.0
8267,65.0,0,256,0.0,58.0
8268,73.0,0,512,0.0,68.0
8269,77.0,256,256,0.0,72.0
8270,60.0,0,256,0.0,64.0
8271,48.0,0,256,0.0,64.0
8272,72.0,0,256,0.0,79.0
8273,53.0,0,256,0.0,64.0
8274,65.0,0,256,0.0,57.0
8275,77.0,256,512,0.0,71.0
8276,56.0,0,256,0.0,64.0
8277,44.0,0,256,0.0,64.0
8278,68.0,0,256,0.0,78.0
8279,72.0,256,512,0.0,68.0
8280,80.0,0,1024,0.0,77.0
8281,77.0,0,256,0.0,66.0
8282,65.0,256,256,0.0,50.0
8283,60.0,0,512,0.0,54.0
8284,46.0,0,256,0.0,64.0
8285,58.0,0,256,0.0,64.0
8286,70.0,0,256,0.0,79.0
8287,53.0,0,256,0.0,64.0
8288,65.0,256,256,0.0,50.0
8289,77.0,0,256,0.0,66.0
8290,79.0,256,768,0.0,77.0
8291,67.0,0,256,0.0,78.0
8292,55.0,0,256,0.0,64.0
8293,43.0,0,256,0.0,64.0
8294,77.0,256,256,0.0,71.0
8295,73.0,256,512,0.0,68.0
8296,65.0,0,256,0.0,57.0
8297,61.0,0,512,0.0,54.0
8298,60.0,0,256,0.0,64.0
8299,52.0,0,256,0.0,64.0
8300,48.0,0,256,0.0,64.0
8301,72.0,0,256,0.0,79.0
8302,64.0,256,256,0.0,59.0
8303,76.0,0,256,0.0,73.0
8304,60.0,0,256,0.0,78.0
8305,48.0,0,256,0.0,64.0
8306,72.0,256,256,0.0,68.0
8307,64.0,256,256,0.0,50.0
8308,67.0,0,1024,0.0,61.0
8309,76.0,0,256,0.0,66.0
8310,79.0,256,1024,0.0,77.0
8311,68.0,256,0,0.0,68.0
8312,65.0,0,512,0.0,62.0
8313,53.0,0,768,0.0,50.0
8314,60.0,256,256,0.0,58.0
8315,80.0,0,1024,0.0,64.0
8316,77.0,0,512,0.0,62.0
8317,89.0,0,512,0.0,82.0
8318,92.0,0,1024,0.0,85.0
8319,72.0,0,256,0.0,72.0
8320,84.0,0,1024,0.0,55.0
8321,65.0,0,0,0.0,61.0
8322,56.0,0,768,0.0,54.0
8323,61.0,256,256,0.0,57.0
8324,73.0,0,256,0.0,71.0
8325,53.0,256,1024,0.0,61.0
8326,56.0,0,512,0.0,54.0
8327,61.0,256,256,0.0,50.0
8328,68.0,256,512,0.0,68.0
8329,73.0,0,256,0.0,64.0
8330,85.0,0,1024,0.0,77.0
8331,77.0,0,512,0.0,58.0
8332,65.0,0,512,0.0,58.0
8333,89.0,0,512,0.0,77.0
8334,51.0,256,0,0.0,64.0
8335,67.0,0,512,0.0,64.0
8336,43.0,0,256,0.0,54.0
8337,55.0,0,256,0.0,68.0
8338,39.0,0,768,0.0,50.0
8339,46.0,0,256,0.0,57.0
8340,51.0,256,0,0.0,61.0
8341,58.0,256,256,0.0,71.0
8342,63.0,256,512,0.0,62.0
8343,82.0,0,1024,0.0,55.0
8344,75.0,0,512,0.0,62.0
8345,70.0,0,1024,0.0,43.0
8346,91.0,0,1024,0.0,83.0
8347,87.0,0,512,0.0,80.0
8348,79.0,0,1024,0.0,64.0
8349,63.0,0,0,0.0,75.0
8350,48.0,256,256,0.0,59.0
8351,60.0,0,256,0.0,73.0
8352,43.0,0,256,0.0,54.0
8353,55.0,0,256,0.0,68.0
8354,36.0,0,4608,0.0,64.0
8355,63.0,256,512,0.0,58.0
8356,60.0,0,256,0.0,64.0
8357,48.0,256,256,0.0,50.0
8358,39.0,0,1024,0.0,61.0
8359,72.0,0,1024,0.0,60.0
8360,75.0,0,512,0.0,58.0
8361,84.0,0,1024,0.0,77.0
8362,87.0,0,512,0.0,74.0
8363,49.0,256,256,0.0,59.0
8364,61.0,0,256,0.0,75.0
8365,65.0,0,512,0.0,64.0
8366,53.0,256,256,0.0,54.0
8367,85.0,0,512,0.0,78.0
8368,80.0,0,1024,0.0,55.0
8369,77.0,0,1024,0.0,64.0
8370,61.0,0,512,0.0,62.0
8371,73.0,0,512,0.0,64.0
8372,68.0,256,256,0.0,72.0
8373,89.0,0,1024,0.0,81.0
8374,65.0,0,512,0.0,68.0
8375,56.0,0,256,0.0,58.0
8376,49.0,0,0,0.0,61.0
8377,37.0,0,1024,0.0,59.0
8378,61.0,0,0,0.0,61.0
8379,58.0,256,256,0.0,57.0
8380,70.0,256,0,0.0,66.0
8381,61.0,0,512,0.0,64.0
8382,82.0,0,1024,0.0,78.0
8383,85.0,0,512,0.0,80.0
8384,58.0,0,256,0.0,50.0
8385,53.0,256,512,0.0,54.0
8386,65.0,0,512,0.0,68.0
8387,73.0,0,1024,0.0,75.0
8388,48.0,0,256,0.0,61.0
8389,63.0,0,512,0.0,64.0
8390,51.0,0,256,0.0,68.0
8391,87.0,0,1024,0.0,79.0
8392,84.0,0,512,0.0,78.0
8393,72.0,0,512,0.0,64.0
8394,60.0,256,512,0.0,62.0
8395,67.0,0,1024,0.0,43.0
8396,79.0,0,1024,0.0,55.0
8397,75.0,0,1024,0.0,64.0
8398,48.0,256,768,0.0,66.0
8399,36.0,0,768,0.0,50.0
8400,39.0,0,512,0.0,54.0
8401,43.0,0,256,0.0,57.0
8402,60.0,0,0,0.0,75.0
8403,55.0,256,256,0.0,71.0
8404,48.0,0,256,0.0,61.0
8405,56.0,256,256,0.0,73.0
8406,39.0,256,256,0.0,54.0
8407,44.0,0,0,0.0,50.0
8408,51.0,0,256,0.0,68.0
8409,72.0,0,512,0.0,58.0
8410,60.0,0,512,0.0,58.0
8411,36.0,0,1024,0.0,61.0
8412,84.0,0,512,0.0,77.0
8413,56.0,256,256,0.0,66.0
8414,68.0,0,1024,0.0,73.0
8415,80.0,0,1024,0.0,70.0
8416,85.0,256,256,0.0,81.0
8417,73.0,0,256,0.0,64.0
8418,65.0,0,256,0.0,64.0
8419,61.0,0,256,0.0,64.0
8420,65.0,256,256,0.0,73.0
8421,58.0,0,256,0.0,64.0
8422,70.0,0,256,0.0,72.0
8423,82.0,256,256,0.0,80.0
8424,73.0,0,256,0.0,70.0
8425,34.0,0,1024,0.0,63.0
8426,46.0,0,1024,0.0,75.0
8427,61.0,256,256,0.0,58.0
8428,53.0,0,768,0.0,61.0
8429,84.0,0,256,0.0,79.0
8430,72.0,256,0,0.0,73.0
8431,77.0,0,256,0.0,75.0
8432,68.0,0,256,0.0,60.0
8433,80.0,0,256,0.0,80.0
8434,60.0,256,0,0.0,58.0
8435,72.0,0,0,0.0,70.0
8436,77.0,256,0,0.0,75.0
8437,65.0,0,0,0.0,63.0
8438,56.0,0,512,0.0,60.0
8439,44.0,0,1024,0.0,64.0
8440,32.0,256,1024,0.0,76.0
8441,82.0,0,256,0.0,79.0
8442,77.0,0,256,0.0,64.0
8443,70.0,0,256,0.0,64.0
8444,67.0,256,256,0.0,64.0
8445,58.0,0,256,0.0,60.0
8446,61.0,256,512,0.0,61.0
8447,70.0,0,256,0.0,60.0
8448,73.0,0,512,0.0,73.0
8449,79.0,0,256,0.0,80.0
8450,61.0,256,256,0.0,58.0
8451,73.0,0,256,0.0,70.0
8452,43.0,0,1024,0.0,64.0
8453,31.0,0,1024,0.0,76.0
8454,84.0,0,256,0.0,79.0
8455,76.0,0,256,0.0,64.0
8456,72.0,0,256,0.0,64.0
8457,72.0,256,0,0.0,70.0
8458,67.0,0,256,0.0,60.0
8459,60.0,0,0,0.0,58.0
8460,55.0,256,512,0.0,60.0
8461,64.0,0,1024,0.0,63.0
8462,36.0,0,1024,0.0,76.0
8463,48.0,0,1024,0.0,64.0
8464,53.0,0,512,0.0,64.0
8465,72.0,542,482,0.0,80.0
8466,41.0,0,1024,0.0,76.0
8467,77.0,0,0,0.0,64.0
8468,65.0,0,1024,0.0,73.0
8469,68.0,0,1024,0.0,64.0
8470,60.0,0,482,0.0,64.0
8471,70.0,0,482,0.0,80.0
8472,58.0,30,482,0.0,64.0
8473,41.0,0,1024,0.0,64.0
8474,72.0,512,482,0.0,80.0
8475,29.0,482,1024,0.0,76.0
8476,77.0,0,0,0.0,81.0
8477,85.0,0,1024,0.0,64.0
8478,82.0,0,1024,0.0,64.0
8479,60.0,0,482,0.0,64.0
8480,89.0,0,1024,0.0,81.0
8481,53.0,0,512,0.0,64.0
8482,58.0,542,482,0.0,64.0
8483,49.0,0,1024,0.0,64.0
8484,46.0,0,1024,0.0,76.0
8485,73.0,0,1024,0.0,64.0
8486,70.0,0,482,0.0,80.0
8487,65.0,482,1024,0.0,73.0
8488,77.0,0,0,0.0,64.0
8489,56.0,0,482,0.0,64.0
8490,68.0,30,482,0.0,80.0
8491,60.0,512,482,0.0,64.0
8492,72.0,0,482,0.0,80.0
8493,84.0,0,1024,0.0,64.0
8494,80.0,0,1024,0.0,64.0
8495,41.0,0,1024,0.0,64.0
8496,29.0,482,1024,0.0,76.0
8497,89.0,0,1024,0.0,81.0
8498,53.0,482,512,0.0,80.0
8499,68.0,542,482,0.0,80.0
8500,56.0,0,482,0.0,64.0
8501,65.0,0,1024,0.0,73.0
8502,48.0,0,1024,0.0,64.0
8503,44.0,0,1024,0.0,64.0
8504,77.0,482,0,0.0,64.0
8505,72.0,0,1024,0.0,64.0
8506,55.0,30,482,0.0,64.0
8507,67.0,0,482,0.0,80.0
8508,70.0,512,482,0.0,80.0
8509,58.0,0,482,0.0,64.0
8510,41.0,0,1024,0.0,88.0
8511,29.0,0,1024,0.0,76.0
8512,89.0,0,1024,0.0,81.0
8513,82.0,0,1024,0.0,64.0
8514,79.0,0,1024,0.0,64.0
8515,77.0,0,0,0.0,81.0
8516,53.0,0,512,0.0,80.0
8517,55.0,542,482,0.0,64.0
8518,46.0,0,1024,0.0,64.0
8519,67.0,0,482,0.0,80.0
8520,77.0,0,0,0.0,64.0
8521,65.0,0,1024,0.0,73.0
8522,43.0,0,1024,0.0,64.0
8523,70.0,0,1024,0.0,64.0
8524,48.0,30,482,0.0,64.0
8525,60.0,0,482,0.0,80.0
8526,41.0,215,267,0.0,64.0
8527,56.0,512,482,0.0,64.0
8528,29.0,0,1024,0.0,76.0
8529,89.0,482,1024,0.0,80.0
8530,80.0,0,1024,0.0,64.0
8531,68.0,89,0,0.0,64.0
8532,53.0,0,512,0.0,80.0
8533,68.0,0,482,0.0,80.0
8534,56.0,542,482,0.0,64.0
8535,65.0,0,1024,0.0,73.0
8536,44.0,89,1202,0.0,64.0
8537,48.0,89,1113,0.0,64.0
8538,77.0,0,1024,0.0,81.0
8539,72.0,0,1024,0.0,64.0
8540,48.0,512,482,0.0,64.0
8541,60.0,0,482,0.0,80.0
8542,56.0,512,482,0.0,64.0
8543,68.0,0,0,0.0,64.0
8544,53.0,0,512,0.0,80.0
8545,72.0,0,1024,0.0,64.0
8546,68.0,0,482,0.0,80.0
8547,44.0,89,1202,0.0,64.0
8548,56.0,542,482,0.0,64.0
8549,48.0,89,1113,0.0,64.0
8550,41.0,215,1291,0.0,64.0
8551,65.0,89,1024,0.0,64.0
8552,77.0,0,1024,0.0,81.0
8553,60.0,0,482,0.0,85.0
8554,48.0,512,482,0.0,69.0
8555,56.0,0,482,0.0,64.0
8556,68.0,512,482,0.0,80.0
8557,56.0,71,4096,0.0,70.0
8558,48.0,71,4167,0.0,70.0
8559,44.0,71,4238,0.0,70.0
8560,41.0,71,4309,0.0,70.0
8561,29.0,198,4380,0.0,70.0
8562,77.0,0,4096,0.0,92.0
8563,72.0,0,4096,0.0,71.0
8564,68.0,0,4096,0.0,71.0
8565,65.0,0,4096,0.0,71.0
