,note,step,duration,channel,velocity
0,50.0,0,14,15.0,120.0
1,50.0,1,14,15.0,95.0
2,50.0,15,14,15.0,92.0
3,50.0,15,14,15.0,95.0
4,50.0,13,1,15.0,94.0
5,50.0,17,14,15.0,92.0
6,50.0,15,14,15.0,83.0
7,50.0,14,14,15.0,78.0
8,50.0,15,14,15.0,70.0
9,50.0,12,2,15.0,66.0
10,50.0,16,14,15.0,67.0
11,50.0,17,14,15.0,68.0
12,50.0,13,1,15.0,65.0
13,50.0,14,0,15.0,62.0
14,50.0,19,14,15.0,65.0
15,50.0,14,14,15.0,61.0
16,50.0,17,14,15.0,61.0
17,50.0,14,0,15.0,54.0
18,50.0,15,14,15.0,55.0
19,50.0,17,14,15.0,55.0
20,50.0,16,14,15.0,60.0
21,50.0,15,14,15.0,58.0
22,50.0,15,14,15.0,53.0
23,50.0,14,14,15.0,53.0
24,50.0,13,1,15.0,52.0
25,50.0,14,0,15.0,55.0
26,50.0,16,14,15.0,50.0
27,50.0,17,14,15.0,51.0
28,50.0,16,14,15.0,51.0
29,50.0,14,14,15.0,47.0
30,50.0,16,14,15.0,50.0
31,50.0,15,14,15.0,52.0
32,50.0,16,14,15.0,45.0
33,50.0,16,14,15.0,47.0
34,50.0,15,14,15.0,47.0
35,50.0,15,14,15.0,44.0
36,50.0,14,14,15.0,43.0
37,50.0,16,14,15.0,48.0
38,50.0,17,14,15.0,48.0
39,50.0,0,705,12.0,88.0
40,62.0,0,705,12.0,88.0
41,38.0,6,705,14.0,88.0
42,50.0,2,1,15.0,45.0
43,38.0,14,720,4.0,94.0
44,50.0,0,720,4.0,94.0
45,50.0,2,720,5.0,94.0
46,50.0,2,1,15.0,42.0
47,50.0,13,1,15.0,46.0
48,50.0,15,14,15.0,46.0
49,50.0,17,14,15.0,43.0
50,50.0,14,14,15.0,42.0
51,50.0,12,2,15.0,46.0
52,50.0,12,2,15.0,42.0
53,50.0,12,2,15.0,45.0
54,50.0,17,14,15.0,44.0
55,50.0,14,14,15.0,45.0
56,50.0,16,14,15.0,46.0
57,50.0,13,1,15.0,43.0
58,50.0,14,0,15.0,45.0
59,50.0,14,0,15.0,42.0
60,50.0,17,14,15.0,46.0
61,58.0,11,335,10.0,105.0
62,65.0,0,335,10.0,105.0
63,70.0,2,335,10.0,105.0
64,58.0,1,335,13.0,105.0
65,50.0,14,14,15.0,43.0
66,50.0,14,14,15.0,43.0
67,50.0,7,1,15.0,43.0
68,50.0,14,0,15.0,45.0
69,50.0,13,1,15.0,46.0
70,50.0,18,14,15.0,43.0
71,50.0,13,1,15.0,46.0
72,50.0,17,14,15.0,42.0
73,50.0,15,14,15.0,42.0
74,50.0,14,0,15.0,42.0
75,50.0,12,2,15.0,45.0
76,65.0,15,222,10.0,127.0
77,50.0,16,14,15.0,46.0
78,53.0,6,222,13.0,127.0
79,50.0,15,14,15.0,43.0
80,50.0,14,14,15.0,45.0
81,50.0,9,14,15.0,45.0
82,50.0,14,0,15.0,42.0
83,50.0,14,0,15.0,42.0
84,62.0,1,70,10.0,116.0
85,50.0,8,70,13.0,116.0
86,50.0,12,2,15.0,42.0
87,50.0,13,1,15.0,44.0
88,50.0,9,14,15.0,45.0
89,50.0,14,0,15.0,42.0
90,74.0,1,60,10.0,127.0
91,62.0,8,60,13.0,127.0
92,50.0,14,0,15.0,42.0
93,50.0,16,14,15.0,45.0
94,50.0,15,14,15.0,42.0
95,50.0,1,14,15.0,46.0
96,50.0,13,1,15.0,43.0
97,50.0,15,14,15.0,48.0
98,77.0,14,60,10.0,100.0
99,65.0,7,60,13.0,100.0
100,50.0,16,14,15.0,48.0
101,50.0,14,14,15.0,47.0
102,50.0,15,14,15.0,44.0
103,65.0,0,945,11.0,93.0
104,58.0,0,945,11.0,93.0
105,50.0,18,14,15.0,41.0
106,50.0,12,2,15.0,42.0
107,50.0,16,14,15.0,37.0
108,50.0,16,14,15.0,37.0
109,50.0,14,14,15.0,34.0
110,50.0,16,14,15.0,33.0
111,50.0,14,0,15.0,32.0
112,50.0,13,1,15.0,32.0
113,50.0,13,1,15.0,30.0
114,50.0,17,14,15.0,33.0
115,50.0,14,0,15.0,33.0
116,50.0,16,14,15.0,35.0
117,50.0,15,14,15.0,36.0
118,50.0,16,14,15.0,35.0
119,50.0,14,14,15.0,39.0
120,50.0,14,0,15.0,39.0
121,50.0,15,14,15.0,43.0
122,50.0,14,14,15.0,43.0
123,50.0,14,0,15.0,48.0
124,65.0,1,30,10.0,105.0
125,50.0,12,2,15.0,55.0
126,53.0,8,30,13.0,105.0
127,50.0,15,14,15.0,57.0
128,50.0,1,14,15.0,64.0
129,67.0,16,30,10.0,105.0
130,50.0,14,0,15.0,65.0
131,55.0,7,30,13.0,105.0
132,50.0,14,0,15.0,70.0
133,68.0,1,20,10.0,127.0
134,56.0,8,20,13.0,127.0
135,50.0,8,14,15.0,72.0
136,70.0,4,20,10.0,112.0
137,50.0,4,14,15.0,69.0
138,58.0,8,20,13.0,112.0
139,50.0,0,1,15.0,64.0
140,68.0,8,26,10.0,107.0
141,56.0,1,26,13.0,107.0
142,50.0,6,0,15.0,60.0
143,70.0,12,26,10.0,101.0
144,58.0,8,26,13.0,101.0
145,68.0,6,26,10.0,102.0
146,50.0,6,0,15.0,61.0
147,56.0,8,26,13.0,102.0
148,50.0,11,1,15.0,60.0
149,70.0,8,26,10.0,103.0
150,58.0,2,26,13.0,103.0
151,68.0,1,26,10.0,104.0
152,50.0,1,1,15.0,56.0
153,56.0,8,26,13.0,104.0
154,70.0,4,26,10.0,105.0
155,58.0,8,26,13.0,105.0
156,50.0,4,14,15.0,54.0
157,68.0,11,26,10.0,106.0
158,56.0,4,26,13.0,106.0
159,50.0,8,0,15.0,50.0
160,70.0,12,26,10.0,107.0
161,58.0,6,26,13.0,107.0
162,50.0,2,14,15.0,51.0
163,68.0,4,26,10.0,108.0
164,56.0,8,26,13.0,108.0
165,50.0,5,14,15.0,52.0
166,70.0,10,26,10.0,108.0
167,58.0,3,26,13.0,108.0
168,50.0,1,14,15.0,44.0
169,68.0,12,26,10.0,106.0
170,50.0,8,14,15.0,47.0
171,56.0,7,26,13.0,106.0
172,50.0,4,1,15.0,47.0
173,70.0,4,26,10.0,104.0
174,58.0,8,26,13.0,104.0
175,68.0,9,26,10.0,102.0
176,50.0,11,14,15.0,47.0
177,56.0,4,26,13.0,102.0
178,67.0,1,20,10.0,110.0
179,55.0,8,20,13.0,110.0
180,50.0,9,14,15.0,44.0
181,50.0,7,0,15.0,46.0
182,68.0,13,15,10.0,115.0
183,56.0,7,15,13.0,115.0
184,50.0,1,14,15.0,43.0
185,50.0,12,2,15.0,43.0
186,50.0,15,14,15.0,45.0
187,67.0,15,60,10.0,105.0
188,55.0,7,60,13.0,105.0
189,50.0,12,2,15.0,43.0
190,50.0,15,14,15.0,45.0
191,50.0,15,14,15.0,46.0
192,50.0,2,14,15.0,45.0
193,50.0,13,1,15.0,42.0
194,65.0,16,60,10.0,105.0
195,50.0,13,1,15.0,42.0
196,53.0,6,60,13.0,105.0
197,50.0,15,14,15.0,45.0
198,50.0,16,14,15.0,43.0
199,50.0,15,14,15.0,45.0
200,50.0,8,0,15.0,45.0
201,50.0,12,2,15.0,45.0
202,72.0,15,60,10.0,110.0
203,60.0,6,60,13.0,110.0
204,50.0,14,0,15.0,46.0
205,50.0,15,14,15.0,44.0
206,50.0,17,14,15.0,43.0
207,50.0,1,14,15.0,42.0
208,50.0,7,14,15.0,38.0
209,50.0,13,1,15.0,45.0
210,70.0,14,60,10.0,95.0
211,58.0,7,60,13.0,95.0
212,50.0,17,14,15.0,46.0
213,50.0,14,0,15.0,50.0
214,50.0,14,14,15.0,50.0
215,50.0,15,14,15.0,48.0
216,50.0,13,1,15.0,48.0
217,50.0,13,1,15.0,58.0
218,50.0,12,2,15.0,61.0
219,50.0,12,2,15.0,67.0
220,50.0,16,14,15.0,73.0
221,50.0,15,14,15.0,75.0
222,50.0,14,0,15.0,82.0
223,50.0,14,0,15.0,83.0
224,50.0,16,14,15.0,82.0
225,50.0,14,14,15.0,81.0
226,50.0,16,14,15.0,79.0
227,50.0,15,14,15.0,78.0
228,50.0,14,0,15.0,75.0
229,50.0,17,14,15.0,73.0
230,50.0,13,1,15.0,71.0
231,50.0,15,14,15.0,70.0
232,50.0,15,14,15.0,69.0
233,50.0,18,14,15.0,68.0
234,50.0,14,0,15.0,65.0
235,50.0,13,1,15.0,62.0
236,50.0,13,1,15.0,56.0
237,65.0,1,30,10.0,105.0
238,50.0,13,1,15.0,51.0
239,53.0,8,30,13.0,105.0
240,50.0,13,1,15.0,43.0
241,67.0,0,30,10.0,105.0
242,50.0,13,1,15.0,46.0
243,55.0,8,30,13.0,105.0
244,50.0,14,0,15.0,38.0
245,68.0,1,20,10.0,127.0
246,56.0,8,20,13.0,127.0
247,50.0,6,14,15.0,45.0
248,70.0,6,20,10.0,112.0
249,50.0,4,14,15.0,42.0
250,58.0,8,20,13.0,112.0
251,50.0,11,2,15.0,46.0
252,68.0,8,26,10.0,107.0
253,56.0,1,26,13.0,107.0
254,70.0,1,26,10.0,101.0
255,50.0,6,14,15.0,46.0
256,58.0,8,26,13.0,101.0
257,50.0,4,2,15.0,44.0
258,68.0,6,26,10.0,102.0
259,56.0,8,26,13.0,102.0
260,70.0,8,26,10.0,103.0
261,50.0,11,14,15.0,46.0
262,58.0,4,26,13.0,103.0
263,68.0,1,26,10.0,104.0
264,50.0,6,14,15.0,44.0
265,56.0,8,26,13.0,104.0
266,50.0,4,0,15.0,43.0
267,70.0,6,26,10.0,105.0
268,58.0,8,26,13.0,105.0
269,68.0,10,26,10.0,106.0
270,50.0,11,14,15.0,42.0
271,56.0,4,26,13.0,106.0
272,70.0,1,26,10.0,108.0
273,50.0,6,14,15.0,45.0
274,58.0,8,26,13.0,108.0
275,68.0,6,26,10.0,108.0
276,50.0,4,2,15.0,46.0
277,56.0,8,26,13.0,108.0
278,70.0,8,26,10.0,107.0
279,58.0,4,26,13.0,107.0
280,50.0,1,14,15.0,45.0
281,68.0,12,26,10.0,105.0
282,50.0,9,14,15.0,44.0
283,56.0,7,26,13.0,105.0
284,50.0,4,2,15.0,45.0
285,70.0,3,26,10.0,104.0
286,58.0,8,26,13.0,104.0
287,68.0,8,26,10.0,102.0
288,56.0,4,26,13.0,102.0
289,50.0,1,14,15.0,44.0
290,67.0,12,20,10.0,110.0
291,55.0,7,20,13.0,110.0
292,50.0,9,14,15.0,45.0
293,50.0,1,14,15.0,45.0
294,68.0,13,15,10.0,115.0
295,56.0,7,15,13.0,115.0
296,50.0,7,14,15.0,43.0
297,50.0,15,14,15.0,42.0
298,50.0,12,2,15.0,43.0
299,50.0,13,1,15.0,42.0
300,67.0,0,60,10.0,105.0
301,55.0,8,60,13.0,105.0
302,50.0,17,14,15.0,44.0
303,50.0,15,14,15.0,45.0
304,50.0,14,14,15.0,45.0
305,50.0,15,14,15.0,46.0
306,50.0,8,14,15.0,42.0
307,50.0,13,1,15.0,46.0
308,50.0,14,0,15.0,46.0
309,65.0,0,60,10.0,105.0
310,53.0,8,60,13.0,105.0
311,50.0,17,14,15.0,44.0
312,50.0,13,1,15.0,43.0
313,50.0,16,14,15.0,44.0
314,50.0,9,14,15.0,45.0
315,50.0,14,14,15.0,46.0
316,50.0,14,14,15.0,43.0
317,75.0,0,60,10.0,112.0
318,63.0,8,60,13.0,112.0
319,50.0,13,1,15.0,45.0
320,50.0,15,14,15.0,45.0
321,50.0,16,14,15.0,45.0
322,50.0,6,1,15.0,43.0
323,50.0,14,0,15.0,45.0
324,50.0,14,0,15.0,46.0
325,74.0,14,60,10.0,102.0
326,62.0,7,60,13.0,102.0
327,50.0,15,14,15.0,46.0
328,50.0,17,14,15.0,45.0
329,50.0,13,1,15.0,47.0
330,50.0,15,14,15.0,51.0
331,50.0,16,14,15.0,55.0
332,50.0,14,14,15.0,56.0
333,50.0,15,14,15.0,59.0
334,50.0,17,14,15.0,59.0
335,50.0,15,14,15.0,65.0
336,50.0,13,1,15.0,69.0
337,50.0,15,14,15.0,72.0
338,50.0,16,14,15.0,73.0
339,50.0,16,14,15.0,74.0
340,50.0,14,0,15.0,77.0
341,50.0,14,14,15.0,80.0
342,50.0,1,3945,12.0,93.0
343,50.0,15,14,15.0,77.0
344,38.0,1,3945,14.0,93.0
345,65.0,4,3960,3.0,92.0
346,50.0,1,0,15.0,86.0
347,50.0,16,14,15.0,88.0
348,50.0,15,14,15.0,88.0
349,50.0,14,0,15.0,90.0
350,50.0,14,0,15.0,92.0
351,50.0,13,1,15.0,92.0
352,50.0,13,1,15.0,92.0
353,50.0,14,0,15.0,92.0
354,50.0,16,14,15.0,92.0
355,50.0,14,14,15.0,92.0
356,50.0,13,1,15.0,91.0
357,50.0,1,14,15.0,91.0
358,74.0,15,30,10.0,105.0
359,50.0,9,14,15.0,90.0
360,62.0,7,30,13.0,105.0
361,50.0,1,14,15.0,90.0
362,75.0,13,30,10.0,105.0
363,50.0,1,0,15.0,88.0
364,63.0,7,30,13.0,105.0
365,77.0,13,30,10.0,105.0
366,50.0,8,14,15.0,85.0
367,65.0,7,30,13.0,105.0
368,50.0,6,1,15.0,83.0
369,79.0,14,30,10.0,105.0
370,67.0,7,30,13.0,105.0
371,50.0,0,360,3.0,92.0
372,38.0,5,360,3.0,92.0
373,50.0,0,14,15.0,79.0
374,80.0,16,20,10.0,127.0
375,68.0,2,20,13.0,127.0
376,50.0,5,14,15.0,77.0
377,82.0,3,20,10.0,111.0
378,50.0,6,0,15.0,74.0
379,70.0,8,20,13.0,111.0
380,80.0,8,27,10.0,104.0
381,68.0,2,27,13.0,104.0
382,50.0,1,14,15.0,70.0
383,82.0,13,27,10.0,98.0
384,50.0,7,14,15.0,71.0
385,70.0,7,27,13.0,98.0
386,50.0,2,2,15.0,67.0
387,80.0,5,27,10.0,98.0
388,68.0,8,27,13.0,98.0
389,82.0,10,27,10.0,98.0
390,50.0,12,14,15.0,65.0
391,70.0,6,27,13.0,98.0
392,80.0,0,27,10.0,100.0
393,50.0,7,14,15.0,63.0
394,68.0,8,27,13.0,100.0
395,50.0,1,14,15.0,60.0
396,82.0,5,27,10.0,100.0
397,70.0,8,27,13.0,100.0
398,50.0,3,14,15.0,62.0
399,80.0,12,27,10.0,101.0
400,50.0,9,14,15.0,63.0
401,68.0,5,27,13.0,101.0
402,82.0,3,27,10.0,101.0
403,50.0,6,14,15.0,61.0
404,70.0,8,27,13.0,101.0
405,50.0,0,1,15.0,64.0
406,80.0,7,27,10.0,101.0
407,68.0,1,27,13.0,101.0
408,82.0,12,27,10.0,102.0
409,50.0,3,1,15.0,63.0
410,70.0,8,27,13.0,102.0
411,80.0,2,27,10.0,102.0
412,68.0,8,27,13.0,102.0
413,50.0,5,14,15.0,64.0
414,82.0,10,27,10.0,103.0
415,50.0,11,14,15.0,62.0
416,70.0,3,27,13.0,103.0
417,80.0,1,27,10.0,103.0
418,50.0,2,0,15.0,61.0
419,68.0,8,27,13.0,103.0
420,50.0,3,1,15.0,58.0
421,82.0,4,27,10.0,103.0
422,70.0,8,27,13.0,103.0
423,80.0,10,27,10.0,104.0
424,50.0,11,14,15.0,59.0
425,68.0,5,27,13.0,104.0
426,82.0,1,27,10.0,104.0
427,50.0,0,1,15.0,59.0
428,70.0,8,27,13.0,104.0
429,80.0,5,27,10.0,104.0
430,68.0,8,27,13.0,104.0
431,50.0,2,14,15.0,58.0
432,82.0,12,27,10.0,105.0
433,50.0,9,14,15.0,56.0
434,70.0,6,27,13.0,105.0
435,80.0,4,27,10.0,105.0
436,50.0,6,2,15.0,59.0
437,68.0,8,27,13.0,105.0
438,82.0,6,27,10.0,106.0
439,70.0,2,27,13.0,106.0
440,50.0,1,14,15.0,56.0
441,80.0,12,27,10.0,106.0
442,50.0,8,14,15.0,56.0
443,68.0,7,27,13.0,106.0
444,50.0,4,14,15.0,55.0
445,82.0,5,27,10.0,106.0
446,70.0,8,27,13.0,106.0
447,50.0,12,0,15.0,55.0
448,80.0,8,27,10.0,107.0
449,68.0,2,27,13.0,107.0
450,82.0,1,27,10.0,107.0
451,50.0,8,14,15.0,54.0
452,70.0,8,27,13.0,107.0
453,50.0,3,14,15.0,55.0
454,80.0,4,27,10.0,108.0
455,68.0,8,27,13.0,108.0
456,50.0,11,1,15.0,53.0
457,82.0,9,27,10.0,108.0
458,70.0,2,27,13.0,108.0
459,80.0,2,27,10.0,107.0
460,50.0,6,14,15.0,53.0
461,68.0,8,27,13.0,107.0
462,50.0,2,2,15.0,54.0
463,82.0,6,27,10.0,105.0
464,70.0,8,27,13.0,105.0
465,80.0,10,27,10.0,104.0
466,50.0,11,14,15.0,55.0
467,68.0,6,27,13.0,104.0
468,82.0,1,27,10.0,102.0
469,50.0,0,1,15.0,55.0
470,70.0,8,27,13.0,102.0
471,80.0,5,27,10.0,100.0
472,68.0,8,27,13.0,100.0
473,50.0,16,14,15.0,54.0
474,50.0,2,14,15.0,55.0
475,79.0,14,20,10.0,114.0
476,67.0,6,20,13.0,114.0
477,50.0,9,14,15.0,55.0
478,50.0,7,1,15.0,52.0
479,77.0,13,22,10.0,127.0
480,65.0,6,22,13.0,127.0
481,79.0,6,22,10.0,111.0
482,50.0,1,14,15.0,55.0
483,67.0,8,22,13.0,111.0
484,50.0,8,0,15.0,54.0
485,77.0,13,26,10.0,105.0
486,65.0,6,26,13.0,105.0
487,79.0,5,26,10.0,100.0
488,50.0,3,2,15.0,53.0
489,67.0,8,26,13.0,100.0
490,77.0,9,26,10.0,101.0
491,65.0,5,26,13.0,101.0
492,50.0,3,1,15.0,52.0
493,79.0,2,26,10.0,102.0
494,67.0,8,26,13.0,102.0
495,50.0,5,14,15.0,53.0
496,77.0,10,26,10.0,103.0
497,65.0,3,26,13.0,103.0
498,50.0,12,14,15.0,55.0
499,79.0,2,26,10.0,104.0
500,50.0,7,14,15.0,51.0
501,67.0,8,26,13.0,104.0
502,50.0,1,1,15.0,51.0
503,77.0,6,26,10.0,105.0
504,65.0,8,26,13.0,105.0
505,79.0,12,26,10.0,106.0
506,50.0,7,14,15.0,52.0
507,67.0,7,26,13.0,106.0
508,50.0,2,1,15.0,54.0
509,77.0,7,26,10.0,107.0
510,65.0,8,26,13.0,107.0
511,79.0,11,26,10.0,108.0
512,50.0,9,14,15.0,52.0
513,67.0,6,26,13.0,108.0
514,50.0,4,14,15.0,53.0
515,77.0,5,26,10.0,108.0
516,65.0,8,26,13.0,108.0
517,50.0,5,14,15.0,49.0
518,79.0,9,26,10.0,106.0
519,67.0,3,26,13.0,106.0
520,50.0,12,14,15.0,52.0
521,77.0,2,26,10.0,104.0
522,50.0,5,14,15.0,50.0
523,65.0,8,26,13.0,104.0
524,50.0,1,14,15.0,49.0
525,75.0,15,20,10.0,114.0
526,63.0,7,20,13.0,114.0
527,50.0,12,2,15.0,50.0
528,74.0,1,22,10.0,127.0
529,62.0,8,22,13.0,127.0
530,50.0,8,14,15.0,52.0
531,75.0,5,22,10.0,111.0
532,50.0,3,14,15.0,51.0
533,63.0,8,22,13.0,111.0
534,50.0,3,14,15.0,52.0
535,74.0,11,26,10.0,105.0
536,50.0,10,14,15.0,50.0
537,62.0,5,26,13.0,105.0
538,75.0,3,26,10.0,100.0
539,50.0,4,14,15.0,50.0
540,63.0,8,26,13.0,100.0
541,50.0,10,1,15.0,51.0
542,74.0,10,26,10.0,101.0
543,62.0,3,26,13.0,101.0
544,75.0,4,26,10.0,102.0
545,50.0,4,14,15.0,52.0
546,63.0,8,26,13.0,102.0
547,50.0,7,14,15.0,52.0
548,74.0,9,26,10.0,103.0
549,62.0,1,26,13.0,103.0
550,50.0,0,14,15.0,50.0
551,75.0,14,26,10.0,104.0
552,50.0,8,14,15.0,51.0
553,63.0,8,26,13.0,104.0
554,50.0,2,14,15.0,49.0
555,74.0,5,26,10.0,105.0
556,62.0,8,26,13.0,105.0
557,50.0,2,14,15.0,52.0
558,75.0,12,26,10.0,106.0
559,50.0,9,14,15.0,52.0
560,63.0,6,26,13.0,106.0
561,50.0,2,14,15.0,50.0
562,74.0,5,26,10.0,107.0
563,62.0,8,26,13.0,107.0
564,50.0,3,14,15.0,52.0
565,75.0,11,26,10.0,108.0
566,50.0,3,1,15.0,49.0
567,63.0,5,26,13.0,108.0
568,74.0,2,26,10.0,108.0
569,62.0,8,26,13.0,108.0
570,50.0,6,14,15.0,52.0
571,75.0,10,26,10.0,106.0
572,63.0,2,26,13.0,106.0
573,50.0,13,14,15.0,49.0
574,74.0,1,26,10.0,104.0
575,50.0,6,14,15.0,49.0
576,62.0,8,26,13.0,104.0
577,50.0,1,14,15.0,51.0
578,72.0,14,20,10.0,114.0
579,60.0,7,20,13.0,114.0
580,50.0,7,14,15.0,49.0
581,50.0,8,0,15.0,51.0
582,50.0,13,1,15.0,53.0
583,50.0,16,14,15.0,52.0
584,70.0,15,60,10.0,105.0
585,58.0,6,60,13.0,105.0
586,50.0,14,0,15.0,52.0
587,50.0,16,14,15.0,52.0
588,50.0,14,14,15.0,54.0
589,38.0,4,1920,4.0,94.0
590,50.0,0,1920,4.0,94.0
591,50.0,6,2,15.0,53.0
592,50.0,16,14,15.0,53.0
593,62.0,15,60,10.0,105.0
594,50.0,17,14,15.0,55.0
595,50.0,6,60,13.0,105.0
596,50.0,15,14,15.0,57.0
597,50.0,14,14,15.0,58.0
598,50.0,15,14,15.0,60.0
599,50.0,0,1,15.0,61.0
600,50.0,13,1,15.0,61.0
601,65.0,13,60,10.0,108.0
602,50.0,12,2,15.0,63.0
603,53.0,8,60,13.0,108.0
604,50.0,12,2,15.0,64.0
605,50.0,15,14,15.0,66.0
606,50.0,15,14,15.0,67.0
607,50.0,8,14,15.0,68.0
608,50.0,15,14,15.0,69.0
609,50.0,15,14,15.0,69.0
610,58.0,1,60,10.0,111.0
611,46.0,8,60,13.0,111.0
612,50.0,16,14,15.0,70.0
613,50.0,12,2,15.0,70.0
614,50.0,16,14,15.0,72.0
615,58.0,2,6240,2.0,91.0
616,53.0,0,6240,2.0,91.0
617,50.0,1,14,15.0,72.0
618,50.0,13,1,15.0,76.0
619,50.0,14,0,15.0,76.0
620,62.0,15,60,10.0,115.0
621,50.0,7,60,13.0,115.0
622,50.0,15,14,15.0,82.0
623,50.0,12,2,15.0,84.0
624,50.0,16,14,15.0,88.0
625,50.0,15,14,15.0,88.0
626,50.0,8,14,15.0,90.0
627,50.0,15,14,15.0,92.0
628,56.0,0,60,10.0,117.0
629,50.0,16,14,15.0,97.0
630,56.0,2,60,11.0,117.0
631,44.0,6,60,13.0,117.0
632,50.0,13,1,15.0,100.0
633,50.0,14,0,15.0,107.0
634,50.0,3,2505,12.0,93.0
635,38.0,1,2505,14.0,93.0
636,46.0,0,2160,5.0,105.0
637,58.0,6,2160,5.0,105.0
638,58.0,4,2160,3.0,92.0
639,46.0,0,2160,3.0,92.0
640,43.0,1,60,13.0,117.0
641,45.0,2,60,15.0,126.0
642,55.0,15,120,10.0,117.0
643,55.0,2,120,11.0,105.0
644,49.0,5,120,12.0,105.0
645,37.0,0,120,3.0,103.0
646,49.0,4,120,3.0,103.0
647,57.0,0,360,11.0,105.0
648,45.0,4,1,15.0,106.0
649,45.0,16,15,15.0,92.0
650,45.0,15,15,15.0,94.0
651,45.0,18,15,15.0,90.0
652,45.0,15,0,15.0,89.0
653,45.0,15,0,15.0,84.0
654,45.0,16,15,15.0,67.0
655,45.0,16,15,15.0,69.0
656,45.0,14,1,15.0,67.0
657,45.0,15,0,15.0,66.0
658,45.0,14,1,15.0,67.0
659,69.0,0,240,6.0,115.0
660,76.0,1,240,6.0,115.0
661,45.0,17,15,15.0,69.0
662,45.0,17,15,15.0,68.0
663,45.0,14,1,15.0,69.0
664,45.0,13,2,15.0,70.0
665,64.0,3,325,10.0,105.0
666,69.0,0,325,10.0,105.0
667,81.0,2,325,10.0,105.0
668,45.0,14,1,15.0,69.0
669,64.0,1,695,11.0,105.0
670,69.0,0,695,11.0,105.0
671,57.0,2,695,13.0,105.0
672,81.0,346,720,0.0,93.0
673,45.0,0,0,15.0,70.0
674,45.0,12,3,15.0,72.0
675,45.0,14,1,15.0,71.0
676,45.0,16,15,15.0,69.0
677,45.0,14,1,15.0,69.0
678,45.0,13,2,15.0,72.0
679,45.0,16,15,15.0,72.0
680,45.0,16,15,15.0,73.0
681,76.0,7,195,10.0,105.0
682,64.0,2,195,11.0,105.0
683,52.0,6,195,13.0,105.0
684,45.0,15,15,15.0,73.0
685,45.0,15,15,15.0,72.0
686,45.0,13,2,15.0,73.0
687,45.0,8,15,15.0,71.0
688,45.0,12,3,15.0,74.0
689,73.0,1,70,10.0,105.0
690,61.0,2,70,11.0,105.0
691,45.0,17,15,15.0,74.0
692,49.0,6,70,13.0,105.0
693,45.0,15,15,15.0,74.0
694,45.0,16,15,15.0,74.0
695,45.0,0,3,15.0,72.0
696,45.0,6,1,15.0,73.0
697,45.0,13,2,15.0,72.0
698,45.0,14,1,15.0,75.0
699,85.0,12,60,10.0,112.0
700,73.0,2,60,11.0,112.0
701,61.0,6,60,13.0,112.0
702,45.0,14,1,15.0,71.0
703,45.0,15,15,15.0,75.0
704,45.0,9,0,15.0,73.0
705,45.0,14,1,15.0,73.0
706,88.0,16,60,10.0,105.0
707,45.0,15,15,15.0,73.0
708,76.0,0,60,11.0,105.0
709,64.0,6,60,13.0,105.0
710,45.0,15,0,15.0,71.0
711,45.0,13,2,15.0,73.0
712,76.0,2,1320,1.0,91.0
713,69.0,0,1320,1.0,91.0
714,81.0,2,1320,2.0,91.0
715,57.0,4,1320,3.0,92.0
716,45.0,12,3,15.0,70.0
717,45.0,16,15,15.0,70.0
718,45.0,13,2,15.0,69.0
719,45.0,14,1,15.0,66.0
720,45.0,17,15,15.0,67.0
721,45.0,16,15,15.0,67.0
722,52.0,0,1440,4.0,94.0
723,45.0,13,2,15.0,66.0
724,45.0,14,1,15.0,67.0
725,45.0,12,3,15.0,64.0
726,45.0,12,3,15.0,60.0
727,45.0,14,1,15.0,56.0
728,45.0,14,1,15.0,55.0
729,45.0,16,15,15.0,55.0
730,45.0,12,3,15.0,52.0
731,45.0,14,1,15.0,50.0
732,45.0,14,1,15.0,49.0
733,45.0,13,1,15.0,47.0
734,79.0,15,30,10.0,105.0
735,67.0,1,30,11.0,105.0
736,45.0,17,15,15.0,46.0
737,45.0,0,2,15.0,46.0
738,81.0,13,30,10.0,105.0
739,45.0,14,15,15.0,46.0
740,69.0,2,30,11.0,105.0
741,45.0,14,1,15.0,46.0
742,45.0,13,2,15.0,44.0
743,64.0,0,1800,4.0,94.0
744,52.0,2,0,2.0,91.0
745,49.0,0,1800,3.0,92.0
746,82.0,1,22,10.0,127.0
747,70.0,2,22,11.0,127.0
748,45.0,9,15,15.0,44.0
749,84.0,5,22,10.0,112.0
750,72.0,2,22,11.0,112.0
751,45.0,8,15,15.0,44.0
752,45.0,4,15,15.0,43.0
753,82.0,10,26,10.0,107.0
754,70.0,2,26,11.0,107.0
755,45.0,13,2,15.0,45.0
756,84.0,14,26,10.0,101.0
757,72.0,2,26,11.0,101.0
758,45.0,9,15,15.0,44.0
759,82.0,5,26,10.0,102.0
760,70.0,2,26,11.0,102.0
761,45.0,0,2,15.0,45.0
762,84.0,9,26,10.0,103.0
763,72.0,2,26,11.0,103.0
764,45.0,12,1,15.0,45.0
765,82.0,13,26,10.0,104.0
766,70.0,2,26,11.0,104.0
767,45.0,3,0,15.0,50.0
768,84.0,6,26,10.0,105.0
769,72.0,2,26,11.0,105.0
770,82.0,10,26,10.0,106.0
771,70.0,2,26,11.0,106.0
772,45.0,13,2,15.0,51.0
773,84.0,15,26,10.0,108.0
774,72.0,2,26,11.0,108.0
775,82.0,5,26,10.0,108.0
776,45.0,3,1,15.0,54.0
777,70.0,2,26,11.0,108.0
778,45.0,14,1,15.0,53.0
779,84.0,9,26,10.0,107.0
780,72.0,2,26,11.0,107.0
781,82.0,1,26,10.0,105.0
782,70.0,2,26,11.0,105.0
783,45.0,12,15,15.0,55.0
784,45.0,8,15,15.0,56.0
785,84.0,6,26,10.0,104.0
786,72.0,2,26,11.0,104.0
787,45.0,1,2,15.0,58.0
788,82.0,10,26,10.0,102.0
789,70.0,2,26,11.0,102.0
790,45.0,13,1,15.0,56.0
791,81.0,12,20,10.0,110.0
792,69.0,1,20,11.0,110.0
793,45.0,15,15,15.0,56.0
794,82.0,1,15,10.0,127.0
795,70.0,2,15,11.0,127.0
796,45.0,15,15,15.0,61.0
797,45.0,14,1,15.0,59.0
798,45.0,14,1,15.0,60.0
799,45.0,14,1,15.0,63.0
800,81.0,13,60,10.0,105.0
801,69.0,2,60,11.0,105.0
802,45.0,15,0,15.0,62.0
803,45.0,15,0,15.0,65.0
804,45.0,1,1,15.0,69.0
805,45.0,12,3,15.0,71.0
806,45.0,15,15,15.0,75.0
807,79.0,13,60,10.0,105.0
808,67.0,1,60,11.0,105.0
809,45.0,15,15,15.0,80.0
810,45.0,13,2,15.0,81.0
811,45.0,14,1,15.0,86.0
812,45.0,15,15,15.0,84.0
813,45.0,15,0,15.0,93.0
814,55.0,6,30,13.0,105.0
815,86.0,1,60,10.0,102.0
816,45.0,15,15,15.0,93.0
817,74.0,2,60,11.0,102.0
818,45.0,6,3,15.0,96.0
819,57.0,6,30,13.0,105.0
820,45.0,15,15,15.0,98.0
821,45.0,0,1,15.0,100.0
822,58.0,6,22,13.0,120.0
823,45.0,2,2,15.0,96.0
824,60.0,11,22,13.0,114.0
825,85.0,14,60,10.0,86.0
826,45.0,13,0,15.0,91.0
827,73.0,2,60,11.0,86.0
828,58.0,2,26,13.0,107.0
829,45.0,7,1,15.0,86.0
830,60.0,7,26,13.0,100.0
831,45.0,15,0,15.0,83.0
832,58.0,13,26,13.0,100.0
833,45.0,12,1,15.0,84.0
834,60.0,2,26,13.0,100.0
835,45.0,1,2,15.0,80.0
836,58.0,8,26,13.0,100.0
837,60.0,12,26,13.0,100.0
838,45.0,17,15,15.0,78.0
839,58.0,2,26,13.0,100.0
840,45.0,13,15,15.0,76.0
841,45.0,2,2,15.0,71.0
842,60.0,7,26,13.0,100.0
843,58.0,11,26,13.0,100.0
844,45.0,12,2,15.0,70.0
845,60.0,1,26,13.0,100.0
846,45.0,6,1,15.0,71.0
847,58.0,8,26,13.0,100.0
848,45.0,2,15,15.0,72.0
849,60.0,14,26,13.0,100.0
850,45.0,15,15,15.0,80.0
851,58.0,3,26,13.0,100.0
852,45.0,8,2,15.0,88.0
853,57.0,5,20,13.0,105.0
854,45.0,17,15,15.0,87.0
855,58.0,6,20,13.0,117.0
856,45.0,14,1,15.0,87.0
857,45.0,7,1,15.0,89.0
858,45.0,13,2,15.0,86.0
859,45.0,14,1,15.0,83.0
860,57.0,7,60,13.0,105.0
861,45.0,16,15,15.0,82.0
862,45.0,13,2,15.0,79.0
863,45.0,6,1,15.0,72.0
864,45.0,13,2,15.0,71.0
865,55.0,8,60,13.0,105.0
866,45.0,16,15,15.0,68.0
867,45.0,15,15,15.0,64.0
868,45.0,14,1,15.0,62.0
869,45.0,14,1,15.0,60.0
870,79.0,1,30,10.0,105.0
871,45.0,7,15,15.0,61.0
872,67.0,2,30,11.0,105.0
873,45.0,16,15,15.0,61.0
874,45.0,15,15,15.0,59.0
875,62.0,6,60,13.0,127.0
876,45.0,15,0,15.0,58.0
877,81.0,14,30,10.0,105.0
878,45.0,15,0,15.0,54.0
879,69.0,2,30,11.0,105.0
880,45.0,12,3,15.0,52.0
881,45.0,6,3,15.0,53.0
882,82.0,16,22,10.0,127.0
883,70.0,0,22,11.0,127.0
884,84.0,6,22,10.0,112.0
885,45.0,2,0,15.0,54.0
886,72.0,2,22,11.0,112.0
887,82.0,11,26,10.0,107.0
888,61.0,6,60,13.0,126.0
889,70.0,2,26,11.0,107.0
890,45.0,16,15,15.0,52.0
891,84.0,0,26,10.0,101.0
892,72.0,2,26,11.0,101.0
893,45.0,8,2,15.0,53.0
894,45.0,2,1,15.0,53.0
895,82.0,3,26,10.0,102.0
896,70.0,2,26,11.0,102.0
897,84.0,10,26,10.0,103.0
898,72.0,2,26,11.0,103.0
899,45.0,15,15,15.0,55.0
900,82.0,1,26,10.0,104.0
901,70.0,2,26,11.0,104.0
902,45.0,9,1,15.0,53.0
903,84.0,3,26,10.0,105.0
904,72.0,2,26,11.0,105.0
905,45.0,12,3,15.0,53.0
906,82.0,9,26,10.0,106.0
907,70.0,2,26,11.0,106.0
908,84.0,1,26,10.0,108.0
909,72.0,2,26,11.0,108.0
910,45.0,7,3,15.0,52.0
911,82.0,3,26,10.0,108.0
912,70.0,2,26,11.0,108.0
913,45.0,2,15,15.0,52.0
914,84.0,11,26,10.0,107.0
915,72.0,2,26,11.0,107.0
916,45.0,13,2,15.0,52.0
917,82.0,16,26,10.0,105.0
918,70.0,0,26,11.0,105.0
919,84.0,5,26,10.0,104.0
920,45.0,3,1,15.0,54.0
921,72.0,2,26,11.0,104.0
922,82.0,9,26,10.0,102.0
923,70.0,2,26,11.0,102.0
924,45.0,14,1,15.0,55.0
925,69.0,16,20,11.0,111.0
926,81.0,1,20,10.0,110.0
927,45.0,14,1,15.0,54.0
928,45.0,12,1,15.0,54.0
929,82.0,0,20,10.0,127.0
930,70.0,2,20,11.0,127.0
931,45.0,15,0,15.0,55.0
932,45.0,14,15,15.0,52.0
933,45.0,13,2,15.0,55.0
934,81.0,1,60,10.0,105.0
935,69.0,2,60,11.0,105.0
936,45.0,12,3,15.0,54.0
937,45.0,14,1,15.0,53.0
938,45.0,15,0,15.0,54.0
939,45.0,13,15,15.0,52.0
940,45.0,15,15,15.0,53.0
941,45.0,15,15,15.0,54.0
942,79.0,0,60,10.0,105.0
943,67.0,2,60,11.0,105.0
944,45.0,16,15,15.0,53.0
945,45.0,12,3,15.0,52.0
946,45.0,14,1,15.0,55.0
947,45.0,14,1,15.0,53.0
948,55.0,6,30,13.0,105.0
949,45.0,14,1,15.0,55.0
950,89.0,1,60,10.0,102.0
951,77.0,2,60,11.0,102.0
952,45.0,16,15,15.0,54.0
953,45.0,13,2,15.0,55.0
954,57.0,7,30,13.0,105.0
955,45.0,16,15,15.0,53.0
956,45.0,0,15,15.0,52.0
957,58.0,6,22,13.0,120.0
958,45.0,2,2,15.0,55.0
959,45.0,15,0,15.0,53.0
960,60.0,11,22,13.0,114.0
961,88.0,14,60,10.0,94.0
962,76.0,2,60,11.0,94.0
963,58.0,3,26,13.0,107.0
964,45.0,6,2,15.0,52.0
965,60.0,7,26,13.0,100.0
966,45.0,13,2,15.0,56.0
967,58.0,14,26,13.0,100.0
968,60.0,4,26,13.0,100.0
969,45.0,6,1,15.0,58.0
970,58.0,8,26,13.0,100.0
971,45.0,2,15,15.0,57.0
972,60.0,14,26,13.0,100.0
973,45.0,11,2,15.0,58.0
974,58.0,2,26,13.0,100.0
975,45.0,3,1,15.0,62.0
976,60.0,9,26,13.0,100.0
977,45.0,13,2,15.0,60.0
978,58.0,11,26,13.0,100.0
979,60.0,4,26,13.0,100.0
980,45.0,7,2,15.0,61.0
981,58.0,6,26,13.0,100.0
982,45.0,13,2,15.0,60.0
983,60.0,13,26,13.0,100.0
984,58.0,4,26,13.0,100.0
985,45.0,4,2,15.0,65.0
986,45.0,15,0,15.0,62.0
987,57.0,9,20,13.0,105.0
988,58.0,9,20,13.0,117.0
989,45.0,15,0,15.0,65.0
990,45.0,8,1,15.0,62.0
991,45.0,14,1,15.0,64.0
992,45.0,17,15,15.0,66.0
993,57.0,6,60,13.0,105.0
994,45.0,14,1,15.0,66.0
995,45.0,15,0,15.0,69.0
996,45.0,14,1,15.0,67.0
997,45.0,6,2,15.0,70.0
998,45.0,17,15,15.0,70.0
999,45.0,13,2,15.0,73.0
1000,55.0,7,60,13.0,105.0
1001,45.0,15,15,15.0,76.0
1002,45.0,16,15,15.0,75.0
1003,45.0,13,2,15.0,79.0
1004,88.0,0,30,10.0,105.0
1005,76.0,2,30,11.0,105.0
1006,45.0,9,15,15.0,81.0
1007,45.0,0,15,15.0,78.0
1008,89.0,13,30,10.0,105.0
1009,45.0,12,3,15.0,83.0
1010,77.0,2,30,11.0,105.0
1011,65.0,6,60,13.0,127.0
1012,91.0,1,30,10.0,105.0
1013,45.0,14,1,15.0,85.0
1014,79.0,2,30,11.0,105.0
1015,93.0,1,30,10.0,105.0
1016,45.0,14,15,15.0,89.0
1017,81.0,2,30,11.0,105.0
1018,67.0,0,2880,1.0,91.0
1019,64.0,2,2880,1.0,91.0
1020,94.0,14,23,10.0,127.0
1021,82.0,1,23,11.0,127.0
1022,45.0,6,15,15.0,116.0
1023,96.0,6,23,10.0,108.0
1024,45.0,7,15,15.0,98.0
1025,84.0,2,23,11.0,111.0
1026,45.0,12,3,15.0,96.0
1027,94.0,12,26,10.0,101.0
1028,64.0,4,60,13.0,126.0
1029,82.0,2,26,11.0,104.0
1030,96.0,2,26,10.0,94.0
1031,84.0,2,26,11.0,98.0
1032,45.0,8,0,15.0,89.0
1033,45.0,2,2,15.0,88.0
1034,94.0,5,26,10.0,94.0
1035,82.0,2,26,11.0,98.0
1036,96.0,11,26,10.0,94.0
1037,84.0,0,26,11.0,100.0
1038,45.0,16,15,15.0,85.0
1039,94.0,2,26,10.0,94.0
1040,82.0,2,26,11.0,100.0
1041,45.0,5,1,15.0,77.0
1042,45.0,2,0,15.0,77.0
1043,96.0,7,26,10.0,94.0
1044,84.0,2,26,11.0,100.0
1045,45.0,14,1,15.0,76.0
1046,94.0,13,26,10.0,94.0
1047,82.0,0,26,11.0,101.0
1048,96.0,5,26,10.0,94.0
1049,45.0,4,0,15.0,76.0
1050,84.0,2,26,11.0,101.0
1051,45.0,13,2,15.0,76.0
1052,94.0,9,26,10.0,94.0
1053,82.0,2,26,11.0,102.0
1054,96.0,1,26,10.0,94.0
1055,84.0,2,26,11.0,102.0
1056,45.0,7,0,15.0,78.0
1057,94.0,6,26,10.0,94.0
1058,82.0,2,26,11.0,102.0
1059,45.0,15,0,15.0,79.0
1060,96.0,11,26,10.0,94.0
1061,84.0,2,26,11.0,103.0
1062,94.0,1,26,10.0,94.0
1063,82.0,2,26,11.0,103.0
1064,45.0,3,3,15.0,78.0
1065,96.0,7,26,10.0,94.0
1066,84.0,2,26,11.0,104.0
1067,45.0,15,0,15.0,75.0
1068,94.0,15,26,10.0,94.0
1069,82.0,2,26,11.0,104.0
1070,37.0,1,5385,14.0,93.0
1071,45.0,9,1,15.0,76.0
1072,45.0,3,0,15.0,79.0
1073,96.0,3,26,10.0,94.0
1074,84.0,2,26,11.0,104.0
1075,45.0,13,2,15.0,77.0
1076,94.0,2,26,10.0,94.0
1077,82.0,0,26,11.0,105.0
1078,96.0,2,26,10.0,94.0
1079,84.0,2,26,11.0,105.0
1080,45.0,6,2,15.0,78.0
1081,94.0,5,26,10.0,94.0
1082,82.0,2,26,11.0,106.0
1083,45.0,3,15,15.0,77.0
1084,96.0,12,26,10.0,94.0
1085,84.0,2,26,11.0,106.0
1086,45.0,9,3,15.0,75.0
1087,61.0,0,4785,12.0,93.0
1088,49.0,4,4785,12.0,93.0
1089,94.0,1,26,10.0,94.0
1090,82.0,2,26,11.0,106.0
1091,64.0,2,480,4.0,94.0
1092,67.0,0,480,4.0,94.0
1093,45.0,4,15,15.0,73.0
1094,96.0,9,26,10.0,94.0
1095,84.0,2,26,11.0,107.0
1096,45.0,14,1,15.0,74.0
1097,94.0,15,26,10.0,94.0
1098,82.0,2,26,11.0,107.0
1099,45.0,7,2,15.0,75.0
1100,96.0,4,26,10.0,94.0
1101,84.0,2,26,11.0,108.0
1102,45.0,15,0,15.0,73.0
1103,94.0,11,26,10.0,94.0
1104,82.0,2,26,11.0,108.0
1105,45.0,12,1,15.0,73.0
1106,96.0,0,26,10.0,94.0
1107,84.0,2,26,11.0,107.0
1108,45.0,7,15,15.0,73.0
1109,94.0,6,26,10.0,94.0
1110,82.0,2,26,11.0,106.0
1111,45.0,12,3,15.0,75.0
1112,96.0,12,26,10.0,94.0
1113,84.0,2,26,11.0,105.0
1114,94.0,4,26,10.0,94.0
1115,45.0,5,0,15.0,72.0
1116,82.0,2,26,11.0,104.0
1117,96.0,1,26,10.0,94.0
1118,84.0,2,26,11.0,103.0
1119,64.0,7,30,12.0,105.0
1120,45.0,0,15,15.0,74.0
1121,94.0,14,26,10.0,94.0
1122,82.0,2,26,11.0,102.0
1123,45.0,0,0,15.0,71.0
1124,67.0,6,30,12.0,105.0
1125,45.0,7,3,15.0,72.0
1126,93.0,13,20,10.0,127.0
1127,81.0,2,20,11.0,127.0
1128,69.0,5,30,12.0,105.0
1129,37.0,0,360,3.0,92.0
1130,49.0,5,0,3.0,92.0
1131,91.0,16,24,10.0,127.0
1132,79.0,2,24,11.0,127.0
1133,45.0,3,15,15.0,125.0
1134,70.0,3,24,12.0,127.0
1135,93.0,6,24,10.0,108.0
1136,81.0,2,24,11.0,111.0
1137,45.0,1,1,15.0,74.0
1138,72.0,5,24,12.0,111.0
1139,45.0,9,2,15.0,75.0
1140,91.0,11,28,10.0,101.0
1141,79.0,2,28,11.0,104.0
1142,70.0,4,28,12.0,104.0
1143,93.0,5,28,10.0,94.0
1144,45.0,3,1,15.0,72.0
1145,81.0,2,28,11.0,98.0
1146,72.0,5,28,12.0,98.0
1147,45.0,12,1,15.0,72.0
1148,91.0,9,28,10.0,94.0
1149,79.0,2,28,11.0,98.0
1150,79.0,1,840,0.0,93.0
1151,88.0,0,840,0.0,93.0
1152,70.0,2,28,12.0,98.0
1153,76.0,0,840,1.0,91.0
1154,79.0,0,840,1.0,91.0
1155,93.0,3,28,10.0,94.0
1156,45.0,4,1,15.0,72.0
1157,81.0,2,28,11.0,100.0
1158,72.0,5,28,12.0,100.0
1159,91.0,8,28,10.0,94.0
1160,79.0,2,28,11.0,100.0
1161,70.0,1,28,12.0,100.0
1162,45.0,14,15,15.0,74.0
1163,93.0,1,28,10.0,94.0
1164,81.0,2,28,11.0,100.0
1165,45.0,0,3,15.0,74.0
1166,72.0,5,28,12.0,100.0
1167,91.0,5,28,10.0,94.0
1168,79.0,2,28,11.0,101.0
1169,70.0,5,28,12.0,101.0
1170,45.0,8,1,15.0,74.0
1171,93.0,15,28,10.0,94.0
1172,81.0,1,28,11.0,101.0
1173,72.0,5,28,12.0,101.0
1174,45.0,2,2,15.0,75.0
1175,57.0,0,240,6.0,115.0
1176,69.0,1,240,6.0,115.0
1177,91.0,7,28,10.0,114.0
1178,79.0,2,28,11.0,122.0
1179,70.0,5,28,12.0,122.0
1180,93.0,11,28,10.0,94.0
1181,81.0,0,28,11.0,102.0
1182,45.0,3,2,15.0,72.0
1183,72.0,5,28,12.0,102.0
1184,91.0,3,28,10.0,94.0
1185,79.0,2,28,11.0,102.0
1186,70.0,5,28,12.0,102.0
1187,45.0,2,15,15.0,75.0
1188,93.0,11,28,10.0,94.0
1189,81.0,2,28,11.0,103.0
1190,72.0,3,28,12.0,103.0
1191,45.0,5,3,15.0,72.0
1192,91.0,15,28,10.0,94.0
1193,79.0,2,28,11.0,103.0
1194,70.0,5,28,12.0,103.0
1195,45.0,7,3,15.0,73.0
1196,89.0,16,20,10.0,104.0
1197,77.0,2,20,11.0,114.0
1198,69.0,5,20,12.0,114.0
1199,45.0,8,2,15.0,74.0
1200,88.0,16,24,10.0,127.0
1201,76.0,2,24,11.0,127.0
1202,67.0,5,24,12.0,127.0
1203,89.0,6,24,10.0,108.0
1204,45.0,0,1,15.0,73.0
1205,77.0,2,24,11.0,119.0
1206,69.0,5,24,12.0,119.0
1207,88.0,12,28,10.0,101.0
1208,76.0,2,28,11.0,112.0
1209,45.0,4,1,15.0,72.0
1210,67.0,5,28,12.0,112.0
1211,45.0,2,0,15.0,74.0
1212,89.0,3,28,10.0,94.0
1213,77.0,2,28,11.0,105.0
1214,69.0,5,28,12.0,105.0
1215,45.0,11,1,15.0,75.0
1216,88.0,11,28,10.0,94.0
1217,76.0,2,28,11.0,106.0
1218,67.0,3,28,12.0,106.0
1219,45.0,4,15,15.0,74.0
1220,89.0,4,28,10.0,94.0
1221,77.0,2,28,11.0,106.0
1222,69.0,5,28,12.0,106.0
1223,45.0,3,15,15.0,72.0
1224,88.0,10,28,10.0,94.0
1225,76.0,2,28,11.0,107.0
1226,67.0,2,28,12.0,107.0
1227,45.0,6,1,15.0,74.0
1228,89.0,1,28,10.0,94.0
1229,77.0,2,28,11.0,107.0
1230,69.0,5,28,12.0,107.0
1231,45.0,3,15,15.0,72.0
1232,88.0,8,28,10.0,94.0
1233,76.0,2,28,11.0,108.0
1234,67.0,5,28,12.0,108.0
1235,45.0,1,15,15.0,72.0
1236,89.0,12,28,10.0,94.0
1237,77.0,2,28,11.0,108.0
1238,45.0,11,15,15.0,71.0
1239,69.0,4,28,12.0,108.0
1240,45.0,1,2,15.0,72.0
1241,88.0,4,28,10.0,94.0
1242,76.0,2,28,11.0,107.0
1243,67.0,5,28,12.0,107.0
1244,45.0,10,1,15.0,75.0
1245,89.0,10,28,10.0,94.0
1246,77.0,2,28,11.0,106.0
1247,69.0,4,28,12.0,106.0
1248,45.0,5,15,15.0,73.0
1249,88.0,5,28,10.0,94.0
1250,76.0,2,28,11.0,105.0
1251,67.0,5,28,12.0,105.0
1252,45.0,0,0,15.0,72.0
1253,89.0,9,28,10.0,94.0
1254,77.0,2,28,11.0,103.0
1255,69.0,5,28,12.0,103.0
1256,45.0,5,3,15.0,74.0
1257,45.0,15,0,15.0,70.0
1258,88.0,15,28,10.0,94.0
1259,76.0,2,28,11.0,102.0
1260,67.0,5,28,12.0,102.0
1261,86.0,1,20,10.0,107.0
1262,74.0,2,20,11.0,110.0
1263,65.0,5,20,12.0,110.0
1264,45.0,7,15,15.0,72.0
1265,45.0,7,1,15.0,72.0
1266,45.0,15,15,15.0,70.0
1267,45.0,16,15,15.0,71.0
1268,85.0,0,60,10.0,105.0
1269,73.0,2,60,11.0,105.0
1270,45.0,14,1,15.0,68.0
1271,45.0,16,15,15.0,67.0
1272,45.0,16,15,15.0,69.0
1273,64.0,5,120,12.0,105.0
1274,45.0,13,2,15.0,66.0
1275,45.0,14,1,15.0,65.0
1276,76.0,14,60,10.0,105.0
1277,64.0,0,60,11.0,105.0
1278,45.0,13,2,15.0,63.0
1279,45.0,16,15,15.0,61.0
1280,45.0,0,0,15.0,59.0
1281,45.0,13,15,15.0,60.0
1282,45.0,16,15,15.0,59.0
1283,81.0,15,60,10.0,105.0
1284,45.0,15,15,15.0,59.0
1285,69.0,2,60,11.0,105.0
1286,45.0,14,1,15.0,59.0
1287,45.0,15,0,15.0,56.0
1288,45.0,14,1,15.0,56.0
1289,57.0,0,1080,3.0,92.0
1290,45.0,15,15,15.0,57.0
1291,45.0,14,1,15.0,58.0
1292,45.0,16,15,15.0,55.0
1293,73.0,1,60,10.0,105.0
1294,61.0,2,60,11.0,105.0
1295,45.0,12,3,15.0,57.0
1296,45.0,16,15,15.0,56.0
1297,45.0,16,15,15.0,55.0
1298,45.0,13,1,15.0,56.0
1299,45.0,12,3,15.0,57.0
1300,76.0,14,60,10.0,105.0
1301,64.0,1,60,11.0,105.0
1302,45.0,16,15,15.0,56.0
1303,45.0,14,1,15.0,59.0
1304,45.0,15,15,15.0,61.0
1305,45.0,15,15,15.0,60.0
1306,81.0,1,30,0.0,93.0
1307,45.0,5,15,15.0,59.0
1308,69.0,2,30,1.0,91.0
1309,57.0,8,30,3.0,92.0
1310,45.0,3,2,15.0,66.0
1311,67.0,0,60,10.0,105.0
1312,82.0,14,30,0.0,93.0
1313,55.0,1,60,11.0,105.0
1314,70.0,2,30,1.0,91.0
1315,58.0,8,30,3.0,92.0
1316,45.0,2,2,15.0,66.0
1317,84.0,16,30,0.0,93.0
1318,72.0,3,30,1.0,91.0
1319,60.0,8,30,3.0,92.0
1320,45.0,3,1,15.0,72.0
1321,37.0,7,1785,13.0,93.0
1322,49.0,0,1785,13.0,93.0
1323,45.0,0,1430,4.0,94.0
1324,57.0,1,1430,4.0,94.0
1325,37.0,1,1785,14.0,93.0
1326,86.0,0,30,0.0,93.0
1327,74.0,3,30,1.0,91.0
1328,52.0,1,0,2.0,91.0
1329,55.0,0,5040,2.0,91.0
1330,62.0,8,30,3.0,92.0
1331,45.0,1,1,15.0,95.0
1332,87.0,1,19,0.0,93.0
1333,75.0,1,19,1.0,107.0
1334,89.0,3,19,0.0,91.0
1335,65.0,4,26,3.0,108.0
1336,77.0,7,19,1.0,102.0
1337,45.0,3,2,15.0,104.0
1338,87.0,4,19,0.0,87.0
1339,75.0,1,19,1.0,99.0
1340,63.0,5,26,3.0,102.0
1341,45.0,10,1,15.0,98.0
1342,89.0,0,19,0.0,84.0
1343,77.0,2,19,1.0,94.0
1344,65.0,2,26,3.0,96.0
1345,87.0,1,19,0.0,82.0
1346,75.0,7,19,1.0,91.0
1347,45.0,1,15,15.0,96.0
1348,63.0,6,26,3.0,92.0
1349,89.0,8,19,0.0,82.0
1350,77.0,3,19,1.0,91.0
1351,45.0,5,15,15.0,92.0
1352,45.0,2,2,15.0,89.0
1353,87.0,0,19,0.0,82.0
1354,75.0,5,19,1.0,91.0
1355,65.0,8,26,3.0,92.0
1356,89.0,11,19,0.0,82.0
1357,77.0,3,19,1.0,91.0
1358,45.0,11,15,15.0,84.0
1359,63.0,2,26,3.0,92.0
1360,87.0,4,19,0.0,82.0
1361,75.0,7,19,1.0,91.0
1362,45.0,4,1,15.0,79.0
1363,65.0,4,26,3.0,92.0
1364,89.0,9,19,0.0,82.0
1365,77.0,1,19,1.0,91.0
1366,87.0,2,19,0.0,82.0
1367,45.0,14,1,15.0,76.0
1368,75.0,2,19,1.0,91.0
1369,63.0,10,26,3.0,92.0
1370,45.0,8,1,15.0,71.0
1371,89.0,2,19,0.0,82.0
1372,77.0,2,19,1.0,91.0
1373,45.0,5,0,15.0,73.0
1374,65.0,2,26,3.0,92.0
1375,87.0,6,19,0.0,82.0
1376,75.0,4,19,1.0,91.0
1377,89.0,6,19,0.0,82.0
1378,63.0,2,26,3.0,92.0
1379,45.0,1,1,15.0,68.0
1380,77.0,1,19,1.0,91.0
1381,87.0,1,19,0.0,82.0
1382,65.0,12,26,3.0,92.0
1383,75.0,5,19,1.0,91.0
1384,45.0,6,2,15.0,73.0
1385,89.0,1,19,0.0,82.0
1386,77.0,4,19,1.0,91.0
1387,45.0,1,1,15.0,74.0
1388,63.0,2,26,3.0,92.0
1389,87.0,9,19,0.0,82.0
1390,75.0,4,19,1.0,91.0
1391,45.0,10,1,15.0,73.0
1392,65.0,6,26,3.0,92.0
1393,89.0,9,19,0.0,82.0
1394,77.0,4,19,1.0,91.0
1395,66.0,0,360,10.0,105.0
1396,57.0,15,360,10.0,105.0
1397,57.0,1,360,11.0,105.0
1398,69.0,1,360,6.0,115.0
1399,57.0,0,360,6.0,115.0
1400,87.0,0,19,0.0,82.0
1401,63.0,1,26,3.0,92.0
1402,75.0,8,19,1.0,91.0
1403,45.0,4,1,15.0,74.0
1404,89.0,7,19,0.0,82.0
1405,77.0,0,19,1.0,91.0
1406,65.0,3,26,3.0,92.0
1407,87.0,9,19,0.0,82.0
1408,45.0,9,0,15.0,73.0
1409,75.0,1,19,1.0,91.0
1410,45.0,11,2,15.0,74.0
1411,63.0,5,26,3.0,92.0
1412,89.0,1,19,0.0,82.0
1413,77.0,1,19,1.0,91.0
1414,87.0,1,19,0.0,82.0
1415,75.0,4,19,1.0,91.0
1416,65.0,4,26,3.0,92.0
1417,45.0,0,0,15.0,74.0
1418,89.0,10,19,0.0,82.0
1419,45.0,1,1,15.0,74.0
1420,77.0,2,19,1.0,91.0
1421,63.0,3,26,3.0,92.0
1422,87.0,13,19,0.0,82.0
1423,75.0,5,19,1.0,91.0
1424,45.0,5,15,15.0,72.0
1425,65.0,5,26,3.0,92.0
1426,89.0,4,19,0.0,82.0
1427,77.0,4,19,1.0,91.0
1428,45.0,9,15,15.0,74.0
1429,87.0,1,19,0.0,82.0
1430,75.0,5,19,1.0,91.0
1431,63.0,3,26,3.0,92.0
1432,45.0,1,0,15.0,74.0
1433,89.0,8,19,0.0,82.0
1434,77.0,4,19,1.0,91.0
1435,65.0,2,26,3.0,92.0
1436,45.0,4,2,15.0,73.0
1437,87.0,15,19,0.0,82.0
1438,75.0,3,19,1.0,91.0
1439,45.0,5,1,15.0,73.0
1440,63.0,6,26,3.0,92.0
1441,89.0,4,19,0.0,82.0
1442,77.0,5,19,1.0,91.0
1443,87.0,8,19,0.0,82.0
1444,45.0,2,15,15.0,73.0
1445,75.0,5,19,1.0,91.0
1446,65.0,0,26,3.0,92.0
1447,45.0,12,0,15.0,73.0
1448,89.0,15,19,0.0,82.0
1449,77.0,1,19,1.0,91.0
1450,63.0,2,35,3.0,92.0
1451,87.0,1,26,0.0,82.0
1452,45.0,5,15,15.0,75.0
1453,75.0,9,26,1.0,91.0
1454,45.0,11,1,15.0,73.0
1455,89.0,4,26,0.0,82.0
1456,65.0,7,35,3.0,92.0
1457,45.0,3,1,15.0,75.0
1458,77.0,3,26,1.0,91.0
1459,87.0,4,26,0.0,82.0
1460,75.0,0,26,1.0,91.0
1461,45.0,0,15,15.0,71.0
1462,63.0,1,35,3.0,92.0
1463,86.0,16,20,0.0,109.0
1464,74.0,3,20,1.0,107.0
1465,45.0,4,15,15.0,74.0
1466,62.0,8,20,3.0,108.0
1467,54.0,6,60,12.0,115.0
1468,45.0,5,1,15.0,72.0
1469,72.0,3,20,1.0,107.0
1470,84.0,0,20,0.0,93.0
1471,63.0,3,24,12.0,100.0
1472,62.0,3,26,3.0,108.0
1473,86.0,6,20,0.0,90.0
1474,74.0,1,20,1.0,101.0
1475,45.0,1,2,15.0,74.0
1476,65.0,6,24,12.0,100.0
1477,84.0,5,20,0.0,85.0
1478,60.0,7,26,3.0,100.0
1479,72.0,2,20,1.0,95.0
1480,45.0,0,15,15.0,75.0
1481,63.0,4,28,12.0,100.0
1482,86.0,10,20,0.0,82.0
1483,74.0,1,20,1.0,91.0
1484,62.0,2,26,3.0,93.0
1485,45.0,1,0,15.0,74.0
1486,65.0,8,28,12.0,100.0
1487,72.0,4,20,1.0,91.0
1488,84.0,1,20,0.0,82.0
1489,45.0,2,0,15.0,72.0
1490,60.0,9,26,3.0,92.0
1491,86.0,5,20,0.0,82.0
1492,63.0,1,28,12.0,100.0
1493,45.0,4,3,15.0,72.0
1494,74.0,7,20,1.0,91.0
1495,62.0,6,26,3.0,92.0
1496,72.0,2,20,1.0,91.0
1497,84.0,1,20,0.0,82.0
1498,65.0,2,28,12.0,100.0
1499,45.0,6,1,15.0,75.0
1500,86.0,5,20,0.0,82.0
1501,74.0,1,20,1.0,91.0
1502,45.0,1,0,15.0,73.0
1503,63.0,1,28,12.0,100.0
1504,60.0,1,26,3.0,92.0
1505,84.0,2,20,0.0,82.0
1506,72.0,3,20,1.0,91.0
1507,65.0,9,28,12.0,100.0
1508,62.0,4,26,3.0,92.0
1509,45.0,2,3,15.0,73.0
1510,86.0,0,24,0.0,82.0
1511,74.0,2,24,1.0,91.0
1512,63.0,11,28,12.0,100.0
1513,60.0,10,26,3.0,92.0
1514,84.0,1,24,0.0,82.0
1515,72.0,0,24,1.0,91.0
1516,45.0,4,0,15.0,71.0
1517,65.0,7,28,12.0,100.0
1518,62.0,8,26,3.0,92.0
1519,63.0,3,28,12.0,100.0
1520,86.0,1,24,0.0,82.0
1521,74.0,4,24,1.0,91.0
1522,45.0,2,1,15.0,75.0
1523,65.0,2,28,12.0,100.0
1524,84.0,1,24,0.0,82.0
1525,60.0,4,26,3.0,92.0
1526,72.0,5,24,1.0,91.0
1527,45.0,0,0,15.0,74.0
1528,63.0,10,28,12.0,100.0
1529,86.0,5,24,0.0,82.0
1530,74.0,1,24,1.0,91.0
1531,62.0,1,26,3.0,92.0
1532,45.0,1,3,15.0,73.0
1533,45.0,5,0,15.0,74.0
1534,65.0,13,28,12.0,100.0
1535,60.0,11,26,3.0,92.0
1536,84.0,1,24,0.0,82.0
1537,72.0,3,24,1.0,91.0
1538,45.0,15,0,15.0,74.0
1539,63.0,6,28,12.0,100.0
1540,82.0,2,20,0.0,109.0
1541,58.0,1,20,3.0,92.0
1542,82.0,0,20,1.0,92.0
1543,70.0,2,20,1.0,107.0
1544,62.0,3,20,12.0,110.0
1545,45.0,9,15,15.0,74.0
1546,57.0,1,20,3.0,92.0
1547,45.0,5,1,15.0,72.0
1548,81.0,13,20,0.0,93.0
1549,69.0,2,20,1.0,107.0
1550,81.0,2,20,1.0,92.0
1551,60.0,1,24,12.0,100.0
1552,45.0,3,0,15.0,72.0
1553,58.0,4,26,3.0,108.0
1554,82.0,4,20,0.0,90.0
1555,82.0,2,20,1.0,88.0
1556,70.0,3,20,1.0,100.0
1557,45.0,1,1,15.0,73.0
1558,62.0,3,24,12.0,100.0
1559,45.0,9,1,15.0,73.0
1560,81.0,3,20,0.0,86.0
1561,57.0,7,26,3.0,101.0
1562,81.0,3,20,1.0,84.0
1563,69.0,1,20,1.0,95.0
1564,60.0,4,28,12.0,100.0
1565,82.0,2,20,1.0,81.0
1566,82.0,1,20,0.0,82.0
1567,70.0,0,20,1.0,91.0
1568,58.0,2,26,3.0,93.0
1569,45.0,2,2,15.0,73.0
1570,81.0,1,20,0.0,82.0
1571,62.0,7,28,12.0,100.0
1572,81.0,3,20,1.0,80.0
1573,69.0,1,20,1.0,91.0
1574,57.0,6,26,3.0,92.0
1575,82.0,6,20,0.0,82.0
1576,60.0,3,28,12.0,100.0
1577,45.0,0,3,15.0,69.0
1578,70.0,4,20,1.0,91.0
1579,82.0,2,20,1.0,80.0
1580,45.0,10,0,15.0,71.0
1581,81.0,4,20,0.0,82.0
1582,58.0,7,26,3.0,92.0
1583,62.0,1,28,12.0,100.0
1584,69.0,0,20,1.0,91.0
1585,81.0,5,20,1.0,80.0
1586,82.0,1,20,0.0,82.0
1587,82.0,0,20,1.0,80.0
1588,70.0,4,20,1.0,91.0
1589,60.0,2,28,12.0,100.0
1590,57.0,2,26,3.0,92.0
1591,45.0,8,15,15.0,70.0
1592,81.0,1,20,0.0,82.0
1593,69.0,2,20,1.0,91.0
1594,45.0,1,2,15.0,67.0
1595,81.0,3,20,1.0,80.0
1596,62.0,7,28,12.0,100.0
1597,58.0,1,26,3.0,92.0
1598,82.0,10,20,0.0,82.0
1599,82.0,1,20,1.0,80.0
1600,70.0,2,20,1.0,91.0
1601,60.0,1,28,12.0,100.0
1602,45.0,4,15,15.0,64.0
1603,57.0,8,26,3.0,92.0
1604,81.0,4,25,0.0,82.0
1605,69.0,0,25,1.0,91.0
1606,81.0,1,25,1.0,80.0
1607,45.0,1,3,15.0,62.0
1608,62.0,1,28,12.0,100.0
1609,45.0,10,0,15.0,61.0
1610,58.0,8,26,3.0,92.0
1611,82.0,1,25,0.0,82.0
1612,60.0,2,28,12.0,100.0
1613,82.0,2,25,1.0,80.0
1614,70.0,3,25,1.0,91.0
1615,86.0,1,30,10.0,89.0
1616,57.0,0,26,3.0,92.0
1617,74.0,2,30,11.0,105.0
1618,62.0,2,28,12.0,100.0
1619,69.0,1,25,1.0,91.0
1620,45.0,3,3,15.0,58.0
1621,81.0,1,25,0.0,82.0
1622,81.0,2,25,1.0,80.0
1623,74.0,2,30,2.0,91.0
1624,60.0,9,28,12.0,100.0
1625,82.0,0,25,0.0,82.0
1626,58.0,1,26,3.0,92.0
1627,82.0,1,25,1.0,80.0
1628,88.0,1,30,10.0,89.0
1629,45.0,0,1,15.0,60.0
1630,70.0,1,25,1.0,91.0
1631,76.0,0,30,11.0,105.0
1632,76.0,4,30,2.0,91.0
1633,62.0,1,28,12.0,100.0
1634,81.0,9,25,0.0,82.0
1635,57.0,4,26,3.0,92.0
1636,69.0,2,25,1.0,91.0
1637,81.0,0,25,1.0,80.0
1638,90.0,0,30,10.0,89.0
1639,45.0,7,15,15.0,59.0
1640,78.0,0,30,11.0,105.0
1641,78.0,4,30,2.0,91.0
1642,60.0,3,28,12.0,100.0
1643,45.0,1,15,15.0,61.0
1644,79.0,0,20,0.0,109.0
1645,48.0,0,1425,13.0,93.0
1646,36.0,2,1425,13.0,93.0
1647,57.0,0,1430,4.0,94.0
1648,54.0,1,1430,4.0,94.0
1649,79.0,2,20,1.0,107.0
1650,58.0,1,20,12.0,110.0
1651,36.0,1,1425,14.0,93.0
1652,91.0,14,30,10.0,89.0
1653,55.0,5,20,3.0,92.0
1654,79.0,1,30,11.0,105.0
1655,45.0,5,15,15.0,58.0
1656,79.0,2,30,2.0,91.0
1657,92.0,13,23,10.0,127.0
1658,80.0,1,19,2.0,107.0
1659,80.0,1,23,11.0,127.0
1660,50.0,4,2,15.0,103.0
1661,94.0,3,23,10.0,108.0
1662,82.0,4,19,2.0,100.0
1663,82.0,2,23,11.0,111.0
1664,56.0,2,45,12.0,115.0
1665,53.0,0,45,12.0,115.0
1666,50.0,15,0,15.0,100.0
1667,80.0,3,19,2.0,95.0
1668,92.0,11,26,10.0,101.0
1669,80.0,2,26,11.0,104.0
1670,50.0,8,1,15.0,98.0
1671,82.0,2,19,2.0,91.0
1672,94.0,0,26,10.0,94.0
1673,82.0,2,26,11.0,98.0
1674,50.0,5,1,15.0,94.0
1675,80.0,0,19,2.0,91.0
1676,92.0,7,26,10.0,94.0
1677,77.0,0,105,1.0,91.0
1678,65.0,1,105,1.0,91.0
1679,80.0,2,26,11.0,98.0
1680,53.0,2,45,12.0,115.0
1681,56.0,0,45,12.0,115.0
1682,53.0,4,105,3.0,92.0
1683,77.0,1,120,0.0,93.0
1684,50.0,1,15,15.0,90.0
1685,82.0,1,19,2.0,91.0
1686,94.0,14,26,10.0,94.0
1687,82.0,1,26,11.0,100.0
1688,50.0,2,3,15.0,85.0
1689,80.0,1,19,2.0,91.0
1690,50.0,3,0,15.0,80.0
1691,92.0,0,26,10.0,94.0
1692,80.0,1,26,11.0,100.0
1693,82.0,10,19,2.0,91.0
1694,94.0,0,26,10.0,94.0
1695,82.0,2,26,11.0,100.0
1696,53.0,0,45,12.0,115.0
1697,56.0,1,45,12.0,115.0
1698,80.0,12,19,2.0,91.0
1699,50.0,1,15,15.0,78.0
1700,92.0,3,26,10.0,94.0
1701,80.0,1,26,11.0,101.0
1702,50.0,8,1,15.0,74.0
1703,82.0,13,19,2.0,91.0
1704,94.0,4,26,10.0,94.0
1705,82.0,0,26,11.0,101.0
1706,80.0,6,19,2.0,91.0
1707,50.0,1,0,15.0,72.0
1708,68.0,1,105,1.0,91.0
1709,56.0,0,45,12.0,115.0
1710,53.0,2,45,12.0,115.0
1711,92.0,5,26,10.0,94.0
1712,80.0,2,26,11.0,102.0
1713,82.0,5,19,2.0,91.0
1714,56.0,1,110,5.0,94.0
1715,56.0,5,105,3.0,92.0
1716,50.0,12,2,15.0,72.0
1717,94.0,9,26,10.0,94.0
1718,82.0,1,26,11.0,102.0
1719,80.0,1,19,2.0,91.0
1720,50.0,1,0,15.0,68.0
1721,92.0,0,26,10.0,94.0
1722,80.0,2,26,11.0,102.0
1723,82.0,5,19,2.0,91.0
1724,50.0,9,1,15.0,69.0
1725,62.0,1,45,12.0,115.0
1726,94.0,7,26,10.0,94.0
1727,80.0,5,19,2.0,91.0
1728,82.0,2,26,11.0,103.0
1729,92.0,4,26,10.0,94.0
1730,82.0,6,19,2.0,91.0
1731,50.0,4,15,15.0,70.0
1732,80.0,2,26,11.0,103.0
1733,50.0,0,2,15.0,67.0
1734,80.0,4,19,2.0,91.0
1735,94.0,2,26,10.0,94.0
1736,82.0,2,26,11.0,104.0
1737,74.0,3,105,1.0,91.0
1738,62.0,7,45,12.0,115.0
1739,92.0,13,26,10.0,94.0
1740,62.0,2,110,5.0,94.0
1741,82.0,6,19,2.0,91.0
1742,80.0,2,26,11.0,104.0
1743,62.0,3,105,3.0,92.0
1744,50.0,6,0,15.0,64.0
1745,74.0,0,360,6.0,115.0
1746,62.0,1,360,6.0,115.0
1747,80.0,1,19,2.0,91.0
1748,94.0,6,26,10.0,94.0
1749,82.0,2,26,11.0,104.0
1750,50.0,2,15,15.0,65.0
1751,82.0,1,19,2.0,91.0
1752,92.0,3,26,10.0,94.0
1753,80.0,0,26,11.0,105.0
1754,50.0,11,1,15.0,62.0
1755,53.0,1,45,12.0,115.0
1756,80.0,1,19,2.0,91.0
1757,94.0,16,26,10.0,94.0
1758,82.0,2,26,11.0,105.0
1759,50.0,6,0,15.0,60.0
1760,82.0,7,19,2.0,91.0
1761,50.0,1,0,15.0,59.0
1762,92.0,0,26,10.0,94.0
1763,80.0,2,26,11.0,106.0
1764,80.0,0,19,2.0,91.0
1765,94.0,5,26,10.0,94.0
1766,82.0,2,26,11.0,106.0
1767,50.0,9,3,15.0,58.0
1768,65.0,5,105,1.0,91.0
1769,82.0,0,19,2.0,91.0
1770,53.0,7,45,12.0,115.0
1771,53.0,2,110,5.0,94.0
1772,53.0,2,105,3.0,92.0
1773,92.0,1,26,10.0,94.0
1774,80.0,2,26,11.0,106.0
1775,80.0,9,19,2.0,91.0
1776,50.0,5,15,15.0,58.0
1777,94.0,0,26,10.0,94.0
1778,82.0,2,26,11.0,107.0
1779,82.0,1,19,2.0,91.0
1780,50.0,1,15,15.0,55.0
1781,92.0,2,26,10.0,94.0
1782,80.0,1,26,11.0,107.0
1783,50.0,2,15,15.0,55.0
1784,80.0,12,19,2.0,91.0
1785,56.0,1,45,12.0,115.0
1786,94.0,5,26,10.0,94.0
1787,50.0,3,2,15.0,58.0
1788,82.0,2,26,11.0,108.0
1789,82.0,3,19,2.0,91.0
1790,50.0,5,1,15.0,58.0
1791,92.0,5,26,10.0,94.0
1792,80.0,2,26,11.0,108.0
1793,80.0,2,19,2.0,91.0
1794,94.0,2,26,10.0,94.0
1795,82.0,2,26,11.0,107.0
1796,50.0,7,0,15.0,56.0
1797,82.0,10,19,2.0,91.0
1798,68.0,4,105,1.0,91.0
1799,56.0,7,45,12.0,115.0
1800,56.0,2,110,5.0,94.0
1801,56.0,4,105,3.0,92.0
1802,50.0,1,0,15.0,57.0
1803,92.0,6,26,10.0,94.0
1804,80.0,2,26,11.0,106.0
1805,80.0,3,19,2.0,91.0
1806,94.0,9,26,10.0,94.0
1807,82.0,2,26,11.0,105.0
1808,82.0,4,22,2.0,91.0
1809,50.0,10,1,15.0,55.0
1810,92.0,2,26,10.0,94.0
1811,50.0,4,1,15.0,54.0
1812,80.0,2,26,11.0,104.0
1813,50.0,1,45,12.0,115.0
1814,80.0,1,22,2.0,91.0
1815,94.0,7,26,10.0,94.0
1816,82.0,2,26,11.0,103.0
1817,82.0,9,22,2.0,91.0
1818,50.0,7,2,15.0,55.0
1819,92.0,6,26,10.0,94.0
1820,80.0,2,26,11.0,102.0
1821,80.0,0,22,2.0,91.0
1822,50.0,8,1,15.0,56.0
1823,62.0,0,105,1.0,91.0
1824,91.0,16,20,10.0,107.0
1825,79.0,2,20,11.0,110.0
1826,50.0,6,45,12.0,115.0
1827,79.0,4,20,2.0,91.0
1828,50.0,2,110,5.0,94.0
1829,50.0,5,105,3.0,92.0
1830,50.0,4,1,15.0,55.0
1831,80.0,2,20,0.0,109.0
1832,89.0,1,20,0.0,109.0
1833,77.0,0,20,1.0,107.0
1834,89.0,16,24,10.0,127.0
1835,77.0,0,24,11.0,127.0
1836,80.0,0,20,1.0,107.0
1837,77.0,1,20,2.0,107.0
1838,50.0,3,0,15.0,56.0
1839,68.0,1,24,12.0,127.0
1840,58.0,3,30,5.0,94.0
1841,67.0,3,27,3.0,92.0
1842,58.0,1,27,3.0,92.0
1843,91.0,3,20,0.0,103.0
1844,82.0,1,20,0.0,102.0
1845,79.0,1,20,2.0,101.0
1846,91.0,2,24,10.0,108.0
1847,79.0,2,20,1.0,100.0
1848,82.0,0,20,1.0,100.0
1849,79.0,1,24,11.0,111.0
1850,70.0,2,24,12.0,111.0
1851,89.0,1,20,0.0,98.0
1852,80.0,0,20,0.0,98.0
1853,50.0,11,0,15.0,55.0
1854,80.0,0,20,1.0,96.0
1855,77.0,2,20,2.0,96.0
1856,56.0,0,27,3.0,92.0
1857,65.0,2,27,3.0,92.0
1858,77.0,0,20,1.0,95.0
1859,56.0,5,30,5.0,94.0
1860,89.0,4,28,10.0,101.0
1861,77.0,0,28,11.0,105.0
1862,50.0,3,2,15.0,56.0
1863,68.0,4,28,12.0,105.0
1864,82.0,0,20,0.0,93.0
1865,91.0,1,20,0.0,93.0
1866,82.0,0,20,1.0,91.0
1867,79.0,1,20,1.0,91.0
1868,79.0,2,20,2.0,91.0
1869,91.0,1,28,10.0,94.0
1870,58.0,1,27,3.0,92.0
1871,79.0,0,28,11.0,100.0
1872,58.0,0,30,5.0,94.0
1873,67.0,2,27,3.0,92.0
1874,89.0,4,20,0.0,93.0
1875,70.0,2,28,12.0,100.0
1876,80.0,4,20,0.0,93.0
1877,80.0,3,20,1.0,91.0
1878,77.0,0,20,1.0,91.0
1879,77.0,0,20,2.0,91.0
1880,50.0,3,15,15.0,55.0
1881,50.0,0,830,4.0,94.0
1882,62.0,0,830,4.0,94.0
1883,89.0,1,28,10.0,94.0
1884,77.0,2,28,11.0,101.0
1885,56.0,1,27,3.0,92.0
1886,68.0,1,28,12.0,101.0
1887,65.0,1,27,3.0,92.0
1888,50.0,2,15,15.0,55.0
1889,79.0,0,20,1.0,91.0
1890,82.0,6,20,0.0,93.0
1891,91.0,0,20,0.0,93.0
1892,82.0,1,20,1.0,91.0
1893,79.0,1,20,2.0,91.0
1894,56.0,2,30,5.0,94.0
1895,91.0,2,28,10.0,94.0
1896,50.0,0,1,15.0,57.0
1897,79.0,2,28,11.0,103.0
1898,89.0,0,20,0.0,93.0
1899,80.0,1,20,0.0,93.0
1900,80.0,0,20,1.0,91.0
1901,70.0,5,28,12.0,103.0
1902,77.0,1,20,1.0,91.0
1903,77.0,1,20,2.0,91.0
1904,58.0,4,27,3.0,92.0
1905,67.0,1,27,3.0,92.0
1906,58.0,1,30,5.0,94.0
1907,82.0,1,20,0.0,93.0
1908,89.0,3,28,10.0,94.0
1909,77.0,2,28,11.0,103.0
1910,91.0,3,20,0.0,93.0
1911,79.0,2,20,2.0,91.0
1912,82.0,2,20,1.0,91.0
1913,79.0,0,20,1.0,91.0
1914,68.0,5,28,12.0,103.0
1915,50.0,1,1,15.0,55.0
1916,65.0,4,27,3.0,92.0
1917,56.0,2,27,3.0,92.0
1918,80.0,2,20,0.0,93.0
1919,91.0,0,28,10.0,94.0
1920,80.0,0,20,1.0,91.0
1921,89.0,0,20,0.0,93.0
1922,77.0,3,20,1.0,91.0
1923,79.0,2,28,11.0,104.0
1924,77.0,3,20,2.0,91.0
1925,56.0,3,30,5.0,94.0
1926,70.0,0,28,12.0,104.0
1927,50.0,2,15,15.0,57.0
1928,82.0,0,20,0.0,93.0
1929,91.0,1,20,0.0,93.0
1930,89.0,7,28,10.0,94.0
1931,58.0,0,27,3.0,92.0
1932,82.0,1,20,1.0,91.0
1933,79.0,0,20,1.0,91.0
1934,77.0,2,28,11.0,105.0
1935,67.0,1,27,3.0,92.0
1936,79.0,2,20,2.0,91.0
1937,68.0,3,28,12.0,105.0
1938,50.0,5,3,15.0,57.0
1939,58.0,2,30,5.0,94.0
1940,80.0,1,20,0.0,93.0
1941,80.0,2,20,1.0,91.0
1942,89.0,1,20,0.0,93.0
1943,91.0,8,28,10.0,94.0
1944,77.0,1,20,1.0,91.0
1945,77.0,2,20,2.0,91.0
1946,79.0,2,28,11.0,106.0
1947,65.0,1,27,3.0,92.0
1948,70.0,0,28,12.0,106.0
1949,56.0,0,27,3.0,92.0
1950,62.0,0,110,6.0,115.0
1951,74.0,1,110,6.0,115.0
1952,50.0,0,110,4.0,94.0
1953,62.0,0,110,4.0,94.0
1954,82.0,0,20,0.0,93.0
1955,91.0,2,20,0.0,93.0
1956,79.0,0,20,2.0,91.0
1957,79.0,1,20,1.0,91.0
1958,82.0,0,20,1.0,91.0
1959,50.0,2,0,15.0,57.0
1960,89.0,0,28,10.0,94.0
1961,56.0,7,30,5.0,94.0
1962,77.0,2,28,11.0,108.0
1963,68.0,2,28,12.0,108.0
1964,89.0,0,20,0.0,93.0
1965,80.0,4,20,0.0,93.0
1966,50.0,8,2,15.0,55.0
1967,67.0,3,27,3.0,92.0
1968,77.0,1,20,1.0,91.0
1969,58.0,2,27,3.0,92.0
1970,80.0,0,20,1.0,91.0
1971,77.0,0,20,2.0,91.0
1972,91.0,2,28,10.0,94.0
1973,79.0,1,28,11.0,108.0
1974,70.0,0,28,12.0,108.0
1975,58.0,2,30,5.0,94.0
1976,91.0,4,20,0.0,93.0
1977,79.0,0,20,1.0,91.0
1978,82.0,1,20,0.0,93.0
1979,56.0,0,27,3.0,92.0
1980,82.0,2,20,1.0,91.0
1981,79.0,0,20,2.0,91.0
1982,65.0,0,27,3.0,92.0
1983,50.0,1,2,15.0,56.0
1984,89.0,0,28,10.0,94.0
1985,77.0,0,28,11.0,107.0
1986,68.0,5,28,12.0,107.0
1987,80.0,4,20,0.0,93.0
1988,89.0,0,20,0.0,93.0
1989,80.0,2,20,1.0,91.0
1990,77.0,0,20,1.0,91.0
1991,77.0,1,20,2.0,91.0
1992,56.0,1,30,5.0,94.0
1993,91.0,2,28,10.0,94.0
1994,67.0,1,27,3.0,92.0
1995,79.0,1,28,11.0,105.0
1996,58.0,1,27,3.0,92.0
1997,70.0,2,28,12.0,105.0
1998,50.0,1,1,15.0,59.0
1999,82.0,10,20,1.0,91.0
2000,91.0,0,20,0.0,93.0
2001,82.0,1,20,0.0,93.0
2002,79.0,1,20,1.0,91.0
2003,79.0,2,20,2.0,91.0
2004,89.0,1,28,10.0,94.0
2005,77.0,2,28,11.0,103.0
2006,80.0,2,20,0.0,93.0
2007,65.0,0,27,3.0,92.0
2008,68.0,3,28,12.0,103.0
2009,80.0,2,20,1.0,91.0
2010,89.0,1,20,0.0,93.0
2011,77.0,1,20,2.0,91.0
2012,56.0,3,27,3.0,92.0
2013,77.0,2,20,1.0,91.0
2014,50.0,0,15,15.0,62.0
2015,87.0,9,20,10.0,110.0
2016,79.0,0,20,0.0,93.0
2017,87.0,1,20,0.0,93.0
2018,75.0,1,20,11.0,110.0
2019,74.0,0,110,6.0,115.0
2020,47.0,1,1065,13.0,93.0
2021,62.0,2,110,6.0,115.0
2022,79.0,2,20,1.0,91.0
2023,50.0,1,110,4.0,94.0
2024,62.0,0,110,4.0,94.0
2025,75.0,0,20,1.0,91.0
2026,75.0,2,20,2.0,91.0
2027,67.0,1,20,12.0,110.0
2028,35.0,1,1065,14.0,93.0
2029,50.0,14,1,15.0,62.0
2030,55.0,0,20,3.0,92.0
2031,63.0,5,20,3.0,92.0
2032,55.0,2,60,5.0,94.0
2033,77.0,1,20,0.0,109.0
2034,86.0,1,20,0.0,109.0
2035,86.0,0,24,10.0,127.0
2036,74.0,1,20,1.0,107.0
2037,77.0,0,20,1.0,107.0
2038,74.0,1,24,11.0,127.0
2039,74.0,0,20,2.0,107.0
2040,65.0,1,24,12.0,127.0
2041,50.0,1,3,15.0,65.0
2042,53.0,0,27,3.0,108.0
2043,62.0,4,27,3.0,108.0
2044,79.0,1,20,0.0,102.0
2045,79.0,1,20,1.0,101.0
2046,87.0,0,20,0.0,102.0
2047,75.0,1,20,2.0,101.0
2048,87.0,4,24,10.0,108.0
2049,75.0,1,20,1.0,100.0
2050,75.0,0,24,11.0,111.0
2051,67.0,3,24,12.0,111.0
2052,77.0,1,20,0.0,98.0
2053,86.0,2,20,0.0,97.0
2054,50.0,9,3,15.0,66.0
2055,77.0,0,20,1.0,95.0
2056,74.0,1,20,1.0,95.0
2057,60.0,9,27,3.0,101.0
2058,74.0,1,20,2.0,95.0
2059,52.0,0,27,3.0,100.0
2060,86.0,2,28,10.0,101.0
2061,74.0,1,28,11.0,105.0
2062,65.0,3,28,12.0,105.0
2063,79.0,1,20,0.0,93.0
2064,87.0,1,20,0.0,93.0
2065,75.0,2,20,1.0,91.0
2066,79.0,1,20,1.0,91.0
2067,75.0,1,20,2.0,91.0
2068,50.0,5,15,15.0,68.0
2069,87.0,0,28,10.0,94.0
2070,75.0,1,28,11.0,100.0
2071,53.0,2,27,3.0,92.0
2072,62.0,0,27,3.0,92.0
2073,77.0,2,20,0.0,93.0
2074,67.0,3,28,12.0,100.0
2075,86.0,4,20,0.0,93.0
2076,77.0,2,20,1.0,91.0
2077,74.0,1,20,1.0,91.0
2078,74.0,1,20,2.0,91.0
2079,50.0,2,3,15.0,72.0
2080,74.0,0,110,6.0,115.0
2081,62.0,1,110,6.0,115.0
2082,62.0,0,110,4.0,94.0
2083,50.0,1,110,4.0,94.0
2084,86.0,1,28,10.0,94.0
2085,74.0,1,28,11.0,101.0
2086,79.0,3,20,0.0,93.0
2087,65.0,1,28,12.0,101.0
2088,75.0,3,20,1.0,91.0
2089,52.0,2,27,3.0,92.0
2090,87.0,1,20,0.0,93.0
2091,60.0,0,27,3.0,92.0
2092,75.0,1,20,2.0,91.0
2093,79.0,0,20,1.0,91.0
2094,50.0,0,15,15.0,74.0
2095,87.0,3,28,10.0,94.0
2096,75.0,2,28,11.0,103.0
2097,86.0,0,20,0.0,93.0
2098,77.0,4,20,0.0,93.0
2099,74.0,1,20,1.0,91.0
2100,77.0,0,20,1.0,91.0
2101,67.0,5,28,12.0,103.0
2102,74.0,2,20,2.0,91.0
2103,62.0,2,27,3.0,92.0
2104,53.0,1,27,3.0,92.0
2105,50.0,1,1,15.0,76.0
2106,86.0,3,28,10.0,94.0
2107,79.0,1,20,0.0,93.0
2108,87.0,0,20,0.0,93.0
2109,74.0,2,28,11.0,103.0
2110,75.0,5,20,2.0,91.0
2111,79.0,0,20,1.0,91.0
2112,75.0,1,20,1.0,91.0
2113,65.0,0,28,12.0,103.0
2114,50.0,2,1,15.0,76.0
2115,52.0,6,27,3.0,92.0
2116,60.0,0,27,3.0,92.0
2117,87.0,1,28,10.0,94.0
2118,77.0,0,20,0.0,93.0
2119,86.0,3,20,0.0,93.0
2120,75.0,2,28,11.0,104.0
2121,77.0,1,20,1.0,91.0
2122,74.0,0,20,1.0,91.0
2123,74.0,0,20,2.0,91.0
2124,67.0,5,28,12.0,104.0
2125,79.0,1,20,0.0,93.0
2126,50.0,3,15,15.0,76.0
2127,87.0,0,20,0.0,93.0
2128,86.0,8,28,10.0,94.0
2129,53.0,1,27,3.0,92.0
2130,74.0,2,28,11.0,105.0
2131,75.0,1,20,2.0,91.0
2132,75.0,0,20,1.0,91.0
2133,79.0,0,20,1.0,91.0
2134,62.0,1,27,3.0,92.0
2135,65.0,2,28,12.0,105.0
2136,50.0,6,1,15.0,80.0
2137,86.0,0,20,0.0,93.0
2138,77.0,0,20,0.0,93.0
2139,87.0,11,28,10.0,94.0
2140,77.0,0,20,1.0,91.0
2141,74.0,1,20,1.0,91.0
2142,74.0,1,20,2.0,91.0
2143,75.0,2,28,11.0,106.0
2144,50.0,1,2,15.0,83.0
2145,52.0,1,27,3.0,92.0
2146,67.0,4,28,12.0,106.0
2147,60.0,1,27,3.0,92.0
2148,62.0,1,110,6.0,115.0
2149,74.0,0,110,6.0,115.0
2150,62.0,0,110,4.0,94.0
2151,50.0,0,110,4.0,94.0
2152,87.0,0,20,0.0,93.0
2153,79.0,0,20,0.0,93.0
2154,75.0,1,20,1.0,91.0
2155,79.0,4,20,1.0,91.0
2156,86.0,5,28,10.0,94.0
2157,75.0,1,20,2.0,91.0
2158,74.0,2,28,11.0,108.0
2159,65.0,0,28,12.0,108.0
2160,50.0,11,1,15.0,93.0
2161,86.0,0,20,0.0,93.0
2162,77.0,1,20,0.0,93.0
2163,62.0,6,27,3.0,92.0
2164,53.0,0,27,3.0,92.0
2165,74.0,1,20,1.0,91.0
2166,77.0,1,20,1.0,91.0
2167,74.0,0,20,2.0,91.0
2168,87.0,6,28,10.0,94.0
2169,75.0,1,28,11.0,108.0
2170,50.0,4,0,15.0,96.0
2171,67.0,1,28,12.0,108.0
2172,87.0,0,20,0.0,93.0
2173,79.0,4,20,0.0,93.0
2174,75.0,0,20,2.0,91.0
2175,79.0,1,20,1.0,91.0
2176,75.0,0,20,1.0,91.0
2177,52.0,0,27,3.0,92.0
2178,86.0,0,28,10.0,94.0
2179,60.0,0,27,3.0,92.0
2180,74.0,2,28,11.0,107.0
2181,65.0,4,28,12.0,107.0
2182,77.0,5,20,0.0,93.0
2183,86.0,1,20,0.0,93.0
2184,74.0,3,20,1.0,91.0
2185,74.0,0,20,2.0,91.0
2186,77.0,1,20,1.0,91.0
2187,50.0,2,1,15.0,106.0
2188,87.0,0,28,10.0,94.0
2189,75.0,2,28,11.0,105.0
2190,53.0,2,27,3.0,92.0
2191,62.0,2,27,3.0,92.0
2192,79.0,7,20,0.0,93.0
2193,67.0,0,28,12.0,105.0
2194,50.0,0,2,15.0,108.0
2195,87.0,3,20,0.0,93.0
2196,75.0,2,20,2.0,91.0
2197,79.0,0,20,1.0,91.0
2198,75.0,0,20,1.0,91.0
2199,86.0,1,28,10.0,94.0
2200,74.0,2,28,11.0,103.0
2201,77.0,2,20,0.0,93.0
2202,74.0,3,20,1.0,91.0
2203,65.0,5,28,12.0,103.0
2204,77.0,1,20,1.0,91.0
2205,86.0,0,20,0.0,93.0
2206,52.0,3,27,3.0,92.0
2207,60.0,0,27,3.0,92.0
2208,74.0,5,20,2.0,91.0
2209,50.0,1,15,15.0,117.0
2210,77.0,7,20,10.0,127.0
2211,80.0,1,20,0.0,93.0
2212,65.0,0,20,11.0,127.0
2213,46.0,1,345,13.0,93.0
2214,74.0,1,110,6.0,115.0
2215,62.0,0,110,6.0,115.0
2216,68.0,2,20,1.0,91.0
2217,62.0,0,110,4.0,94.0
2218,50.0,0,110,4.0,94.0
2219,68.0,2,20,2.0,91.0
2220,56.0,1,20,12.0,127.0
2221,34.0,1,345,14.0,93.0
2222,53.0,1,360,5.0,94.0
2223,62.0,0,30,3.0,92.0
2224,53.0,5,30,3.0,92.0
2225,86.0,0,72,10.0,112.0
2226,62.0,0,72,10.0,112.0
2227,77.0,18,72,10.0,112.0
2228,92.0,1,72,0.0,97.0
2229,89.0,0,72,0.0,97.0
2230,74.0,1,72,11.0,112.0
2231,80.0,0,72,11.0,112.0
2232,74.0,0,72,6.0,122.0
2233,62.0,1,72,6.0,122.0
2234,62.0,0,72,4.0,98.0
2235,77.0,0,72,1.0,95.0
2236,80.0,1,72,1.0,95.0
2237,50.0,0,72,4.0,98.0
2238,80.0,0,72,2.0,95.0
2239,53.0,0,72,5.0,98.0
2240,68.0,2,72,2.0,95.0
2241,68.0,1,72,12.0,112.0
2242,53.0,0,72,3.0,96.0
2243,62.0,4,72,3.0,96.0
2244,50.0,2,72,15.0,126.0
2245,45.0,1,120,13.0,125.0
2246,41.0,113,120,13.0,123.0
2247,38.0,120,120,13.0,121.0
2248,81.0,0,72,10.0,110.0
2249,77.0,0,72,10.0,110.0
2250,62.0,112,72,10.0,110.0
2251,93.0,0,72,0.0,96.0
2252,89.0,1,72,0.0,96.0
2253,81.0,0,72,11.0,110.0
2254,69.0,1,72,11.0,110.0
2255,69.0,1,72,6.0,120.0
2256,57.0,0,72,6.0,120.0
2257,81.0,1,72,1.0,94.0
2258,45.0,0,72,4.0,97.0
2259,77.0,0,72,1.0,94.0
2260,57.0,0,72,4.0,97.0
2261,53.0,0,72,5.0,97.0
2262,62.0,0,72,5.0,97.0
2263,69.0,2,72,2.0,94.0
2264,81.0,0,72,2.0,94.0
2265,65.0,0,72,12.0,110.0
2266,57.0,0,72,12.0,110.0
2267,69.0,1,72,12.0,110.0
2268,62.0,4,72,3.0,95.0
2269,53.0,0,72,3.0,95.0
2270,45.0,3,72,15.0,115.0
2271,50.0,1,240,13.0,119.0
2272,53.0,1,105,13.0,93.0
2273,45.0,120,120,13.0,100.0
2274,41.0,120,120,13.0,98.0
2275,38.0,120,120,13.0,96.0
2276,50.0,120,240,13.0,94.0
2277,53.0,2,105,13.0,90.0
2278,33.0,1,1440,14.0,117.0
2279,45.0,2,120,13.0,100.0
2280,41.0,120,120,13.0,100.0
2281,38.0,120,120,13.0,100.0
2282,65.0,232,720,10.0,105.0
2283,53.0,6,720,2.0,91.0
2284,53.0,232,1440,12.0,93.0
2285,50.0,120,240,13.0,100.0
2286,53.0,1,105,13.0,90.0
2287,70.0,232,120,10.0,115.0
2288,57.0,116,720,4.0,82.0
2289,58.0,6,120,2.0,80.0
2290,50.0,2,720,5.0,82.0
2291,58.0,1,120,12.0,100.0
2292,45.0,1,120,13.0,100.0
2293,41.0,120,120,13.0,100.0
2294,57.0,1,360,12.0,100.0
2295,38.0,120,120,13.0,100.0
2296,69.0,112,480,10.0,105.0
2297,57.0,0,480,2.0,80.0
2298,67.0,112,120,10.0,89.0
2299,55.0,6,120,2.0,80.0
2300,50.0,120,240,13.0,100.0
2301,57.0,2,105,13.0,90.0
2302,50.0,0,1430,4.0,82.0
2303,62.0,4,710,4.0,82.0
2304,65.0,114,120,10.0,89.0
2305,53.0,2,720,5.0,82.0
2306,53.0,6,120,2.0,80.0
2307,46.0,2,120,13.0,100.0
2308,43.0,116,120,13.0,100.0
2309,38.0,120,120,13.0,100.0
2310,64.0,112,585,10.0,105.0
2311,52.0,2,590,2.0,80.0
2312,50.0,120,240,13.0,100.0
2313,55.0,2,105,13.0,90.0
2314,72.0,232,120,10.0,115.0
2315,60.0,6,120,2.0,80.0
2316,46.0,2,120,13.0,100.0
2317,43.0,120,120,13.0,100.0
2318,38.0,120,120,13.0,100.0
2319,55.0,4,1080,3.0,92.0
2320,70.0,112,480,10.0,113.0
2321,58.0,6,480,2.0,83.0
2322,69.0,112,120,10.0,113.0
2323,57.0,6,120,2.0,83.0
2324,50.0,120,240,13.0,100.0
2325,58.0,2,105,13.0,90.0
2326,50.0,4,1430,4.0,76.0
2327,62.0,0,1430,4.0,76.0
2328,58.0,0,1430,5.0,76.0
2329,55.0,6,110,2.0,83.0
2330,67.0,114,120,10.0,113.0
2331,57.0,2,120,13.0,100.0
2332,45.0,1,120,14.0,86.0
2333,66.0,112,240,10.0,116.0
2334,54.0,0,240,2.0,76.0
2335,50.0,115,120,13.0,86.0
2336,38.0,5,120,14.0,86.0
2337,57.0,1,105,12.0,103.0
2338,69.0,107,120,10.0,103.0
2339,69.0,1,120,0.0,111.0
2340,57.0,5,120,2.0,66.0
2341,45.0,1,120,13.0,86.0
2342,33.0,5,120,14.0,86.0
2343,50.0,1,240,13.0,100.0
2344,57.0,240,105,13.0,90.0
2345,57.0,120,120,13.0,100.0
2346,45.0,5,120,14.0,86.0
2347,50.0,115,120,13.0,86.0
2348,38.0,5,120,14.0,86.0
2349,78.0,107,720,10.0,96.0
2350,78.0,1,720,0.0,103.0
2351,66.0,5,720,2.0,67.0
2352,66.0,1,720,12.0,115.0
2353,45.0,115,120,13.0,86.0
2354,33.0,5,120,14.0,86.0
2355,50.0,1,240,13.0,98.0
2356,57.0,240,105,13.0,88.0
2357,50.0,4,1440,3.0,82.0
2358,57.0,120,120,13.0,96.0
2359,45.0,5,120,14.0,83.0
2360,50.0,115,120,13.0,83.0
2361,38.0,5,120,14.0,83.0
2362,77.0,107,720,10.0,72.0
2363,77.0,1,720,0.0,101.0
2364,81.0,0,1440,0.0,103.0
2365,65.0,5,720,2.0,70.0
2366,65.0,1,720,12.0,103.0
2367,45.0,115,120,13.0,83.0
2368,33.0,5,120,14.0,83.0
2369,50.0,1,240,13.0,94.0
2370,57.0,240,105,13.0,86.0
2371,62.0,2,2160,5.0,69.0
2372,57.0,120,120,13.0,91.0
2373,45.0,1,120,14.0,79.0
2374,76.0,1,600,0.0,97.0
2375,69.0,0,600,0.0,97.0
2376,49.0,115,120,13.0,76.0
2377,37.0,5,120,14.0,76.0
2378,76.0,107,720,10.0,83.0
2379,64.0,1,720,12.0,103.0
2380,45.0,115,120,13.0,75.0
2381,33.0,5,120,14.0,75.0
2382,49.0,115,240,13.0,76.0
2383,57.0,240,105,13.0,66.0
2384,57.0,0,2870,4.0,69.0
2385,45.0,4,2870,4.0,69.0
2386,61.0,4,720,3.0,76.0
2387,57.0,4,120,13.0,70.0
2388,45.0,1,120,14.0,65.0
2389,48.0,115,120,13.0,59.0
2390,36.0,5,120,14.0,64.0
2391,45.0,115,120,13.0,59.0
2392,33.0,5,120,14.0,65.0
2393,64.0,5,1560,2.0,61.0
2394,48.0,115,240,13.0,68.0
2395,57.0,1,105,13.0,76.0
2396,77.0,232,120,10.0,68.0
2397,77.0,3,120,6.0,91.0
2398,65.0,4,120,12.0,125.0
2399,57.0,1,120,13.0,85.0
2400,45.0,5,120,14.0,73.0
2401,48.0,115,120,13.0,73.0
2402,36.0,5,120,14.0,73.0
2403,45.0,115,120,13.0,73.0
2404,33.0,5,120,14.0,73.0
2405,76.0,112,480,10.0,66.0
2406,76.0,3,480,6.0,91.0
2407,64.0,4,480,12.0,115.0
2408,60.0,4,1200,3.0,73.0
2409,74.0,112,120,10.0,66.0
2410,74.0,3,120,6.0,91.0
2411,62.0,4,120,12.0,115.0
2412,48.0,115,240,13.0,85.0
2413,57.0,1,105,13.0,76.0
2414,57.0,0,1430,4.0,75.0
2415,69.0,116,1430,4.0,75.0
2416,72.0,113,120,10.0,66.0
2417,72.0,3,120,6.0,91.0
2418,60.0,4,120,12.0,115.0
2419,57.0,1,120,13.0,85.0
2420,45.0,1,120,14.0,73.0
2421,50.0,115,120,13.0,73.0
2422,38.0,5,120,14.0,73.0
2423,45.0,115,120,13.0,73.0
2424,33.0,5,120,14.0,73.0
2425,71.0,112,585,10.0,66.0
2426,71.0,3,585,6.0,91.0
2427,59.0,1,585,12.0,115.0
2428,50.0,115,240,13.0,85.0
2429,57.0,1,105,13.0,76.0
2430,79.0,232,120,10.0,57.0
2431,79.0,3,120,6.0,80.0
2432,67.0,4,120,12.0,96.0
2433,57.0,1,120,13.0,85.0
2434,45.0,5,120,14.0,73.0
2435,50.0,115,120,13.0,73.0
2436,38.0,5,120,14.0,73.0
2437,33.0,5,105,14.0,73.0
2438,45.0,115,120,13.0,73.0
2439,45.0,4,1080,3.0,98.0
2440,77.0,112,480,10.0,69.0
2441,77.0,1,480,6.0,95.0
2442,65.0,2,1200,5.0,100.0
2443,62.0,0,1200,5.0,100.0
2444,65.0,4,480,12.0,123.0
2445,76.0,107,120,10.0,69.0
2446,76.0,3,120,6.0,95.0
2447,64.0,4,120,12.0,123.0
2448,50.0,115,240,13.0,85.0
2449,50.0,4,240,3.0,98.0
2450,50.0,1,240,14.0,73.0
2451,74.0,113,105,10.0,69.0
2452,69.0,0,705,11.0,100.0
2453,59.0,2,705,11.0,100.0
2454,74.0,3,105,6.0,95.0
2455,62.0,4,105,12.0,123.0
2456,53.0,1,105,13.0,76.0
2457,53.0,1,105,14.0,73.0
2458,53.0,4,110,3.0,98.0
2459,45.0,1,1440,4.0,100.0
2460,69.0,0,1440,4.0,100.0
2461,52.0,1,120,13.0,85.0
2462,52.0,1,120,14.0,73.0
2463,73.0,107,240,10.0,69.0
2464,73.0,1,240,6.0,95.0
2465,61.0,3,240,12.0,123.0
2466,45.0,115,120,13.0,73.0
2467,45.0,5,120,14.0,73.0
2468,76.0,107,120,10.0,66.0
2469,76.0,3,120,6.0,91.0
2470,76.0,1,120,1.0,111.0
2471,64.0,3,120,12.0,115.0
2472,40.0,1,120,13.0,73.0
2473,40.0,5,120,14.0,73.0
2474,52.0,1,240,13.0,85.0
2475,57.0,240,105,13.0,76.0
2476,52.0,120,120,13.0,85.0
2477,52.0,5,120,14.0,73.0
2478,45.0,115,120,13.0,73.0
2479,45.0,5,120,14.0,73.0
2480,85.0,107,720,10.0,66.0
2481,85.0,3,720,6.0,109.0
2482,57.0,0,1080,4.0,100.0
2483,64.0,1,1080,4.0,100.0
2484,73.0,1,720,1.0,111.0
2485,85.0,0,720,1.0,111.0
2486,73.0,3,720,12.0,115.0
2487,40.0,115,120,13.0,73.0
2488,40.0,5,120,14.0,73.0
2489,52.0,1,240,13.0,85.0
2490,57.0,240,105,13.0,76.0
2491,52.0,4,1430,3.0,98.0
2492,51.0,120,120,13.0,85.0
2493,51.0,1,120,14.0,73.0
2494,45.0,115,120,13.0,85.0
2495,45.0,5,120,14.0,73.0
2496,84.0,107,720,10.0,66.0
2497,84.0,2,720,6.0,109.0
2498,72.0,3,720,12.0,115.0
2499,39.0,115,120,13.0,85.0
2500,39.0,5,120,14.0,73.0
2501,51.0,1,240,13.0,85.0
2502,57.0,240,105,13.0,76.0
2503,69.0,0,2160,11.0,100.0
2504,51.0,4,720,3.0,98.0
2505,48.0,6,120,13.0,85.0
2506,48.0,1,120,14.0,73.0
2507,45.0,115,120,13.0,85.0
2508,45.0,5,120,14.0,73.0
2509,90.0,107,720,10.0,66.0
2510,90.0,3,720,6.0,109.0
2511,66.0,0,720,12.0,115.0
2512,78.0,4,720,12.0,115.0
2513,36.0,115,120,13.0,85.0
2514,36.0,5,120,14.0,73.0
2515,51.0,1,240,13.0,85.0
2516,57.0,240,105,13.0,76.0
2517,69.0,1,1800,0.0,99.0
2518,57.0,2,2880,11.0,100.0
2519,48.0,4,720,3.0,98.0
2520,45.0,6,120,13.0,85.0
2521,45.0,1,120,14.0,73.0
2522,39.0,115,120,13.0,85.0
2523,39.0,5,120,14.0,73.0
2524,89.0,107,720,10.0,66.0
2525,89.0,3,720,6.0,109.0
2526,65.0,0,720,12.0,115.0
2527,77.0,4,720,12.0,115.0
2528,45.0,115,120,13.0,85.0
2529,33.0,5,120,14.0,73.0
2530,48.0,1,240,13.0,85.0
2531,51.0,240,105,13.0,76.0
2532,45.0,4,720,3.0,98.0
2533,42.0,120,120,13.0,85.0
2534,42.0,1,120,14.0,73.0
2535,36.0,115,120,13.0,85.0
2536,36.0,5,120,14.0,73.0
2537,94.0,107,720,10.0,57.0
2538,82.0,1,720,0.0,99.0
2539,94.0,2,720,6.0,93.0
2540,70.0,4,720,12.0,115.0
2541,42.0,115,120,13.0,85.0
2542,30.0,5,120,14.0,73.0
2543,48.0,1,240,13.0,73.0
2544,44.0,4,603,3.0,98.0
2545,93.0,107,360,10.0,57.0
2546,81.0,1,360,0.0,87.0
2547,76.0,113,2160,0.0,99.0
2548,63.0,1,2160,11.0,100.0
2549,60.0,114,1440,11.0,100.0
2550,93.0,2,360,6.0,95.0
2551,84.0,1,3240,1.0,111.0
2552,72.0,0,3240,1.0,111.0
2553,69.0,4,360,12.0,96.0
2554,51.0,240,120,13.0,67.0
2555,41.0,240,120,13.0,86.0
2556,29.0,5,120,14.0,86.0
2557,45.0,115,120,13.0,94.0
2558,33.0,5,120,14.0,94.0
2559,48.0,115,120,13.0,100.0
2560,36.0,5,120,14.0,100.0
2561,52.0,115,120,13.0,93.0
2562,40.0,5,120,14.0,93.0
2563,87.0,107,37,10.0,45.0
2564,78.0,0,37,11.0,60.0
2565,75.0,2,37,11.0,60.0
2566,87.0,1,37,6.0,72.0
2567,66.0,0,40,12.0,70.0
2568,53.0,1,51,12.0,70.0
2569,87.0,28,37,10.0,53.0
2570,78.0,0,37,11.0,72.0
2571,75.0,2,37,11.0,72.0
2572,87.0,1,37,6.0,72.0
2573,63.0,4,40,12.0,72.0
2574,87.0,13,37,10.0,55.0
2575,53.0,20,51,12.0,73.0
2576,75.0,0,37,11.0,76.0
2577,78.0,2,37,11.0,76.0
2578,87.0,1,37,6.0,72.0
2579,66.0,4,40,12.0,76.0
2580,87.0,33,37,10.0,57.0
2581,78.0,2,37,11.0,79.0
2582,75.0,0,37,11.0,79.0
2583,87.0,1,37,6.0,72.0
2584,63.0,0,40,12.0,79.0
2585,53.0,4,51,12.0,79.0
2586,87.0,33,37,10.0,57.0
2587,75.0,0,37,11.0,79.0
2588,78.0,2,37,11.0,79.0
2589,87.0,1,37,6.0,72.0
2590,66.0,4,40,12.0,79.0
2591,87.0,13,37,10.0,57.0
2592,53.0,20,51,12.0,79.0
2593,78.0,0,37,11.0,79.0
2594,75.0,2,37,11.0,79.0
2595,87.0,1,37,6.0,72.0
2596,63.0,4,40,12.0,79.0
2597,87.0,33,37,10.0,57.0
2598,75.0,0,37,11.0,79.0
2599,78.0,2,37,11.0,79.0
2600,87.0,1,37,6.0,72.0
2601,66.0,0,40,12.0,79.0
2602,53.0,4,51,12.0,79.0
2603,87.0,33,37,10.0,57.0
2604,78.0,2,37,11.0,79.0
2605,75.0,0,37,11.0,79.0
2606,87.0,1,37,6.0,72.0
2607,63.0,4,40,12.0,79.0
2608,87.0,13,37,10.0,57.0
2609,53.0,20,51,12.0,79.0
2610,75.0,2,37,11.0,79.0
2611,78.0,0,37,11.0,79.0
2612,87.0,1,37,6.0,72.0
2613,66.0,4,40,12.0,79.0
2614,87.0,33,37,10.0,57.0
2615,78.0,0,37,11.0,79.0
2616,75.0,2,37,11.0,79.0
2617,87.0,1,37,6.0,72.0
2618,63.0,0,40,12.0,79.0
2619,53.0,4,51,12.0,79.0
2620,87.0,33,37,10.0,57.0
2621,75.0,0,37,11.0,79.0
2622,78.0,2,37,11.0,79.0
2623,87.0,1,37,6.0,72.0
2624,66.0,4,40,12.0,79.0
2625,87.0,13,37,10.0,57.0
2626,53.0,20,51,12.0,79.0
2627,78.0,0,37,11.0,79.0
2628,75.0,2,37,11.0,79.0
2629,87.0,1,37,6.0,72.0
2630,75.0,0,480,2.0,97.0
2631,66.0,3,480,2.0,97.0
2632,63.0,4,40,12.0,79.0
2633,54.0,0,480,3.0,98.0
2634,63.0,5,480,3.0,98.0
2635,85.0,33,37,10.0,57.0
2636,77.0,0,37,11.0,79.0
2637,73.0,2,37,11.0,79.0
2638,85.0,1,37,6.0,72.0
2639,65.0,0,40,12.0,79.0
2640,53.0,1,51,12.0,79.0
2641,85.0,28,37,10.0,57.0
2642,73.0,2,37,11.0,79.0
2643,77.0,0,37,11.0,79.0
2644,85.0,1,37,6.0,72.0
2645,61.0,4,40,12.0,79.0
2646,85.0,13,37,10.0,57.0
2647,53.0,20,51,12.0,79.0
2648,73.0,2,37,11.0,79.0
2649,77.0,0,37,11.0,79.0
2650,85.0,1,37,6.0,72.0
2651,65.0,0,120,2.0,104.0
2652,73.0,3,120,2.0,104.0
2653,65.0,4,40,12.0,79.0
2654,61.0,5,120,3.0,105.0
2655,53.0,0,120,3.0,105.0
2656,84.0,33,37,10.0,57.0
2657,75.0,2,37,11.0,79.0
2658,72.0,0,37,11.0,79.0
2659,84.0,1,37,6.0,72.0
2660,60.0,1,40,12.0,79.0
2661,53.0,0,51,12.0,79.0
2662,84.0,28,37,10.0,57.0
2663,75.0,2,37,11.0,79.0
2664,72.0,0,37,11.0,79.0
2665,84.0,1,37,6.0,72.0
2666,63.0,4,40,12.0,79.0
2667,72.0,3,110,2.0,104.0
2668,63.0,0,110,2.0,104.0
2669,84.0,13,37,10.0,57.0
2670,53.0,20,51,12.0,79.0
2671,72.0,0,37,11.0,79.0
2672,75.0,2,37,11.0,79.0
2673,84.0,1,37,6.0,72.0
2674,60.0,4,35,12.0,79.0
2675,51.0,0,110,3.0,105.0
2676,60.0,5,110,3.0,105.0
2677,84.0,33,37,10.0,57.0
2678,72.0,0,37,11.0,79.0
2679,75.0,2,37,11.0,79.0
2680,84.0,1,37,6.0,72.0
2681,63.0,1,40,12.0,79.0
2682,53.0,0,51,12.0,79.0
2683,84.0,28,37,10.0,57.0
2684,75.0,0,37,11.0,79.0
2685,72.0,2,37,11.0,79.0
2686,84.0,1,37,6.0,72.0
2687,60.0,4,40,12.0,79.0
2688,84.0,13,37,10.0,57.0
2689,53.0,20,51,12.0,79.0
2690,72.0,0,37,11.0,79.0
2691,75.0,2,37,11.0,79.0
2692,84.0,1,37,6.0,72.0
2693,63.0,4,40,12.0,79.0
2694,84.0,33,37,10.0,57.0
2695,72.0,2,37,11.0,79.0
2696,75.0,0,37,11.0,79.0
2697,84.0,1,37,6.0,72.0
2698,60.0,4,40,12.0,79.0
2699,53.0,0,51,12.0,79.0
2700,84.0,33,37,10.0,57.0
2701,72.0,2,37,11.0,79.0
2702,75.0,0,37,11.0,79.0
2703,84.0,1,37,6.0,72.0
2704,63.0,4,40,12.0,79.0
2705,84.0,13,37,10.0,57.0
2706,53.0,20,51,12.0,79.0
2707,72.0,0,37,11.0,79.0
2708,75.0,2,37,11.0,79.0
2709,84.0,1,37,6.0,72.0
2710,72.0,0,240,2.0,104.0
2711,63.0,3,240,2.0,104.0
2712,60.0,4,40,12.0,79.0
2713,51.0,5,240,3.0,105.0
2714,60.0,0,240,3.0,105.0
2715,85.0,33,37,10.0,57.0
2716,77.0,2,37,11.0,79.0
2717,73.0,0,37,11.0,79.0
2718,85.0,1,37,6.0,72.0
2719,65.0,1,40,12.0,79.0
2720,53.0,0,51,12.0,79.0
2721,85.0,28,37,10.0,57.0
2722,77.0,0,37,11.0,79.0
2723,73.0,2,37,11.0,79.0
2724,85.0,1,37,6.0,72.0
2725,61.0,4,40,12.0,79.0
2726,85.0,13,37,10.0,57.0
2727,53.0,20,51,12.0,79.0
2728,77.0,2,37,11.0,79.0
2729,73.0,0,37,11.0,79.0
2730,85.0,1,37,6.0,72.0
2731,65.0,3,120,2.0,104.0
2732,73.0,0,120,2.0,104.0
2733,65.0,4,40,12.0,79.0
2734,61.0,0,120,3.0,105.0
2735,53.0,5,120,3.0,105.0
2736,82.0,33,37,10.0,57.0
2737,70.0,2,37,11.0,79.0
2738,73.0,0,37,11.0,79.0
2739,82.0,1,37,6.0,72.0
2740,61.0,0,40,12.0,79.0
2741,53.0,1,51,12.0,79.0
2742,82.0,28,37,10.0,57.0
2743,73.0,0,37,11.0,79.0
2744,70.0,2,37,11.0,79.0
2745,82.0,1,37,6.0,72.0
2746,58.0,4,40,12.0,79.0
2747,82.0,13,37,10.0,57.0
2748,53.0,20,51,12.0,79.0
2749,70.0,2,37,11.0,79.0
2750,73.0,0,37,11.0,79.0
2751,82.0,1,37,6.0,72.0
2752,61.0,4,40,12.0,79.0
2753,82.0,33,37,10.0,57.0
2754,73.0,0,37,11.0,79.0
2755,70.0,2,37,11.0,79.0
2756,82.0,1,37,6.0,72.0
2757,58.0,4,40,12.0,79.0
2758,53.0,0,51,12.0,79.0
2759,82.0,33,37,10.0,57.0
2760,73.0,0,37,11.0,79.0
2761,70.0,2,37,11.0,79.0
2762,82.0,1,37,6.0,72.0
2763,61.0,4,40,12.0,79.0
2764,70.0,3,230,2.0,104.0
2765,61.0,0,230,2.0,104.0
2766,82.0,13,37,10.0,57.0
2767,53.0,20,51,12.0,79.0
2768,70.0,2,37,11.0,79.0
2769,73.0,0,37,11.0,79.0
2770,82.0,1,37,6.0,72.0
2771,58.0,0,230,3.0,105.0
2772,49.0,5,230,3.0,105.0
2773,58.0,4,40,12.0,79.0
2774,85.0,33,37,10.0,57.0
2775,73.0,0,37,11.0,79.0
2776,77.0,2,37,11.0,79.0
2777,85.0,1,37,6.0,72.0
2778,65.0,1,40,12.0,79.0
2779,53.0,0,51,12.0,79.0
2780,85.0,28,37,10.0,57.0
2781,73.0,0,37,11.0,79.0
2782,77.0,2,37,11.0,79.0
2783,85.0,1,37,6.0,72.0
2784,61.0,4,40,12.0,79.0
2785,85.0,13,37,10.0,57.0
2786,53.0,20,51,12.0,79.0
2787,73.0,2,37,11.0,79.0
2788,77.0,0,37,11.0,79.0
2789,85.0,1,37,6.0,72.0
2790,65.0,4,35,12.0,79.0
2791,73.0,1,120,1.0,104.0
2792,89.0,33,37,10.0,57.0
2793,85.0,0,37,11.0,79.0
2794,77.0,2,37,11.0,79.0
2795,89.0,1,37,6.0,72.0
2796,70.0,3,40,12.0,79.0
2797,58.0,0,51,12.0,79.0
2798,89.0,33,37,10.0,57.0
2799,77.0,0,37,11.0,79.0
2800,85.0,2,37,11.0,79.0
2801,89.0,1,37,6.0,72.0
2802,65.0,4,40,12.0,79.0
2803,89.0,13,37,10.0,57.0
2804,58.0,20,51,12.0,79.0
2805,77.0,2,37,11.0,79.0
2806,85.0,0,37,11.0,79.0
2807,89.0,1,37,6.0,72.0
2808,77.0,1,120,1.0,104.0
2809,70.0,4,40,12.0,79.0
2810,93.0,33,37,10.0,57.0
2811,81.0,2,37,11.0,79.0
2812,85.0,0,37,11.0,79.0
2813,93.0,1,37,6.0,72.0
2814,65.0,3,40,12.0,79.0
2815,58.0,0,51,12.0,79.0
2816,93.0,33,37,10.0,57.0
2817,81.0,2,37,11.0,79.0
2818,85.0,0,37,11.0,79.0
2819,93.0,1,37,6.0,72.0
2820,70.0,4,40,12.0,79.0
2821,93.0,13,37,10.0,57.0
2822,58.0,20,51,12.0,79.0
2823,81.0,0,37,11.0,79.0
2824,85.0,2,37,11.0,79.0
2825,93.0,1,37,6.0,72.0
2826,81.0,1,120,1.0,104.0
2827,65.0,4,40,12.0,79.0
2828,82.0,0,37,11.0,79.0
2829,85.0,2,37,11.0,79.0
2830,70.0,3,40,12.0,79.0
2831,58.0,0,51,12.0,79.0
2832,85.0,0,37,11.0,79.0
2833,82.0,35,37,11.0,79.0
2834,65.0,5,40,12.0,79.0
2835,58.0,20,51,12.0,79.0
2836,85.0,0,37,11.0,79.0
2837,82.0,15,37,11.0,79.0
2838,65.0,0,480,2.0,104.0
2839,73.0,2,480,2.0,104.0
2840,70.0,5,40,12.0,79.0
2841,53.0,115,1920,13.0,100.0
2842,61.0,0,480,3.0,105.0
2843,53.0,5,480,3.0,105.0
2844,41.0,5,1920,14.0,100.0
2845,82.0,35,37,11.0,79.0
2846,87.0,0,37,11.0,79.0
2847,66.0,1,40,12.0,79.0
2848,58.0,0,51,12.0,79.0
2849,82.0,30,37,11.0,79.0
2850,87.0,0,37,11.0,79.0
2851,70.0,5,40,12.0,79.0
2852,58.0,20,51,12.0,79.0
2853,82.0,0,37,11.0,79.0
2854,87.0,15,37,11.0,79.0
2855,66.0,5,40,12.0,79.0
2856,82.0,35,37,11.0,79.0
2857,87.0,0,37,11.0,79.0
2858,70.0,0,40,12.0,79.0
2859,58.0,5,51,12.0,79.0
2860,82.0,29,37,11.0,79.0
2861,87.0,0,37,11.0,79.0
2862,66.0,5,40,12.0,79.0
2863,58.0,20,51,12.0,79.0
2864,82.0,15,37,11.0,79.0
2865,87.0,0,37,11.0,79.0
2866,70.0,5,40,12.0,79.0
2867,39.0,1,120,13.0,100.0
2868,39.0,5,120,14.0,100.0
2869,82.0,35,37,11.0,79.0
2870,87.0,0,37,11.0,79.0
2871,66.0,5,40,12.0,79.0
2872,58.0,0,51,12.0,79.0
2873,82.0,0,37,11.0,79.0
2874,87.0,29,37,11.0,79.0
2875,70.0,5,40,12.0,79.0
2876,58.0,20,51,12.0,79.0
2877,82.0,15,37,11.0,79.0
2878,87.0,0,37,11.0,79.0
2879,66.0,5,35,12.0,79.0
2880,42.0,1,120,13.0,100.0
2881,30.0,5,120,14.0,100.0
2882,82.0,35,37,11.0,79.0
2883,87.0,0,37,11.0,79.0
2884,70.0,5,40,12.0,79.0
2885,58.0,0,51,12.0,79.0
2886,87.0,0,37,11.0,79.0
2887,82.0,29,37,11.0,79.0
2888,66.0,5,40,12.0,79.0
2889,58.0,20,51,12.0,79.0
2890,82.0,0,37,11.0,79.0
2891,87.0,15,37,11.0,79.0
2892,70.0,5,40,12.0,79.0
2893,46.0,1,120,13.0,100.0
2894,34.0,5,120,14.0,100.0
2895,87.0,35,37,11.0,79.0
2896,82.0,0,37,11.0,79.0
2897,66.0,5,40,12.0,79.0
2898,58.0,0,51,12.0,79.0
2899,82.0,29,37,11.0,79.0
2900,87.0,0,37,11.0,79.0
2901,70.0,5,40,12.0,79.0
2902,94.0,33,715,10.0,55.0
2903,58.0,20,51,12.0,79.0
2904,94.0,1,715,6.0,72.0
2905,82.0,0,37,11.0,79.0
2906,87.0,15,37,11.0,79.0
2907,82.0,1,720,1.0,104.0
2908,66.0,5,40,12.0,79.0
2909,50.0,1,120,13.0,100.0
2910,54.0,0,600,3.0,105.0
2911,63.0,5,600,3.0,105.0
2912,38.0,5,120,14.0,100.0
2913,90.0,33,37,10.0,55.0
2914,82.0,0,37,11.0,79.0
2915,78.0,2,37,11.0,79.0
2916,90.0,1,37,6.0,72.0
2917,70.0,3,40,12.0,79.0
2918,58.0,0,51,12.0,79.0
2919,90.0,27,37,10.0,55.0
2920,82.0,2,37,11.0,79.0
2921,78.0,0,37,11.0,79.0
2922,90.0,1,37,6.0,72.0
2923,63.0,4,40,12.0,79.0
2924,90.0,13,37,10.0,55.0
2925,58.0,20,51,12.0,79.0
2926,78.0,2,37,11.0,79.0
2927,82.0,0,37,11.0,79.0
2928,90.0,1,37,6.0,72.0
2929,78.0,1,120,1.0,104.0
2930,75.0,4,720,2.0,104.0
2931,70.0,4,40,12.0,79.0
2932,66.0,0,120,3.0,105.0
2933,87.0,33,37,10.0,55.0
2934,78.0,0,37,11.0,79.0
2935,75.0,2,37,11.0,79.0
2936,87.0,1,37,6.0,72.0
2937,66.0,0,40,12.0,79.0
2938,58.0,1,51,12.0,79.0
2939,87.0,28,37,10.0,55.0
2940,75.0,2,37,11.0,79.0
2941,78.0,0,37,11.0,79.0
2942,87.0,1,37,6.0,72.0
2943,70.0,4,40,12.0,79.0
2944,87.0,13,37,10.0,55.0
2945,58.0,20,51,12.0,79.0
2946,75.0,2,37,11.0,79.0
2947,78.0,0,37,11.0,79.0
2948,87.0,1,37,6.0,72.0
2949,66.0,4,40,12.0,79.0
2950,51.0,1,240,13.0,100.0
2951,51.0,4,240,3.0,105.0
2952,39.0,1,240,14.0,100.0
2953,87.0,33,37,10.0,55.0
2954,78.0,2,37,11.0,79.0
2955,75.0,0,37,11.0,79.0
2956,87.0,1,37,6.0,72.0
2957,70.0,4,40,12.0,79.0
2958,58.0,0,51,12.0,79.0
2959,87.0,27,37,10.0,55.0
2960,78.0,2,37,11.0,79.0
2961,75.0,0,37,11.0,79.0
2962,87.0,1,37,6.0,72.0
2963,66.0,4,40,12.0,79.0
2964,87.0,13,37,10.0,55.0
2965,58.0,20,51,12.0,79.0
2966,78.0,0,37,11.0,79.0
2967,75.0,2,37,11.0,79.0
2968,87.0,1,37,6.0,72.0
2969,75.0,1,240,1.0,104.0
2970,66.0,0,960,2.0,104.0
2971,70.0,2,240,2.0,104.0
2972,70.0,4,40,12.0,79.0
2973,52.0,1,120,13.0,100.0
2974,63.0,5,240,3.0,105.0
2975,52.0,4,120,3.0,105.0
2976,40.0,1,120,14.0,100.0
2977,85.0,33,37,10.0,55.0
2978,82.0,0,37,11.0,79.0
2979,73.0,1,37,11.0,79.0
2980,85.0,1,37,6.0,72.0
2981,66.0,3,40,12.0,79.0
2982,58.0,0,51,12.0,79.0
2983,85.0,27,37,10.0,55.0
2984,82.0,0,37,11.0,79.0
2985,73.0,2,37,11.0,79.0
2986,85.0,1,37,6.0,72.0
2987,70.0,4,40,12.0,79.0
2988,82.0,1,110,0.0,106.0
2989,85.0,0,110,0.0,106.0
2990,73.0,1,110,1.0,104.0
2991,70.0,0,110,1.0,104.0
2992,85.0,13,37,10.0,55.0
2993,58.0,20,51,12.0,79.0
2994,82.0,2,37,11.0,79.0
2995,73.0,0,37,11.0,79.0
2996,85.0,1,37,6.0,72.0
2997,66.0,4,35,12.0,79.0
2998,61.0,4,110,3.0,105.0
2999,53.0,0,110,3.0,105.0
3000,58.0,0,1080,5.0,100.0
3001,46.0,0,1080,5.0,100.0
3002,84.0,33,37,10.0,55.0
3003,81.0,1,37,11.0,79.0
3004,72.0,0,37,11.0,79.0
3005,84.0,1,37,6.0,72.0
3006,65.0,0,40,12.0,79.0
3007,53.0,1,51,12.0,79.0
3008,84.0,28,37,10.0,55.0
3009,72.0,2,37,11.0,79.0
3010,81.0,0,37,11.0,79.0
3011,84.0,1,37,6.0,72.0
3012,60.0,4,40,12.0,79.0
3013,84.0,13,37,10.0,55.0
3014,53.0,20,51,12.0,79.0
3015,72.0,2,37,11.0,79.0
3016,81.0,0,37,11.0,79.0
3017,84.0,1,37,6.0,72.0
3018,65.0,4,40,12.0,79.0
3019,84.0,33,37,10.0,55.0
3020,81.0,2,37,11.0,79.0
3021,72.0,0,37,11.0,79.0
3022,84.0,1,37,6.0,72.0
3023,60.0,0,40,12.0,79.0
3024,53.0,4,51,12.0,79.0
3025,84.0,33,37,10.0,55.0
3026,72.0,2,37,11.0,79.0
3027,81.0,0,37,11.0,79.0
3028,84.0,1,37,6.0,72.0
3029,65.0,4,40,12.0,79.0
3030,84.0,13,37,10.0,55.0
3031,53.0,20,51,12.0,79.0
3032,81.0,2,37,11.0,79.0
3033,72.0,0,37,11.0,79.0
3034,84.0,1,37,6.0,72.0
3035,81.0,1,240,0.0,106.0
3036,84.0,0,240,0.0,106.0
3037,69.0,0,240,1.0,104.0
3038,72.0,1,240,1.0,104.0
3039,60.0,4,40,12.0,79.0
3040,57.0,5,240,3.0,105.0
3041,60.0,0,240,3.0,105.0
3042,85.0,33,37,10.0,55.0
3043,73.0,0,37,11.0,79.0
3044,82.0,1,37,11.0,79.0
3045,85.0,1,37,6.0,72.0
3046,65.0,3,40,12.0,79.0
3047,53.0,0,51,12.0,79.0
3048,85.0,28,37,10.0,55.0
3049,73.0,0,37,11.0,79.0
3050,82.0,2,37,11.0,79.0
3051,85.0,1,37,6.0,72.0
3052,61.0,4,40,12.0,79.0
3053,85.0,13,37,10.0,55.0
3054,53.0,20,51,12.0,79.0
3055,82.0,2,37,11.0,79.0
3056,73.0,0,37,11.0,79.0
3057,85.0,1,37,6.0,72.0
3058,85.0,0,120,0.0,106.0
3059,82.0,1,120,0.0,106.0
3060,70.0,1,120,1.0,104.0
3061,73.0,0,120,1.0,104.0
3062,65.0,4,40,12.0,79.0
3063,58.0,5,120,3.0,105.0
3064,61.0,0,120,3.0,105.0
3065,87.0,33,37,10.0,55.0
3066,84.0,0,37,11.0,79.0
3067,75.0,1,37,11.0,79.0
3068,87.0,1,37,6.0,72.0
3069,66.0,3,40,12.0,79.0
3070,53.0,0,51,12.0,79.0
3071,87.0,28,37,10.0,55.0
3072,84.0,2,37,11.0,79.0
3073,75.0,0,37,11.0,79.0
3074,87.0,1,37,6.0,72.0
3075,63.0,4,40,12.0,79.0
3076,87.0,13,37,10.0,55.0
3077,53.0,20,51,12.0,79.0
3078,75.0,2,37,11.0,79.0
3079,84.0,0,37,11.0,79.0
3080,87.0,1,37,6.0,72.0
3081,66.0,4,40,12.0,79.0
3082,87.0,33,37,10.0,55.0
3083,84.0,0,37,11.0,79.0
3084,75.0,2,37,11.0,79.0
3085,87.0,1,37,6.0,72.0
3086,63.0,4,40,12.0,79.0
3087,53.0,0,51,12.0,79.0
3088,87.0,33,37,10.0,55.0
3089,84.0,0,37,11.0,79.0
3090,75.0,2,37,11.0,79.0
3091,87.0,1,37,6.0,72.0
3092,66.0,4,40,12.0,79.0
3093,87.0,13,37,10.0,55.0
3094,53.0,20,51,12.0,79.0
3095,84.0,0,37,11.0,79.0
3096,75.0,2,37,11.0,79.0
3097,87.0,1,37,6.0,72.0
3098,87.0,0,240,0.0,106.0
3099,84.0,1,240,0.0,106.0
3100,75.0,0,240,1.0,104.0
3101,72.0,1,240,1.0,104.0
3102,63.0,4,40,12.0,79.0
3103,63.0,5,240,3.0,105.0
3104,60.0,0,240,3.0,105.0
3105,89.0,33,37,10.0,55.0
3106,77.0,0,37,11.0,79.0
3107,85.0,1,37,11.0,79.0
3108,89.0,1,37,6.0,72.0
3109,68.0,3,40,12.0,79.0
3110,53.0,0,51,12.0,79.0
3111,89.0,28,37,10.0,55.0
3112,85.0,0,37,11.0,79.0
3113,77.0,2,37,11.0,79.0
3114,89.0,1,37,6.0,72.0
3115,65.0,4,40,12.0,79.0
3116,89.0,13,37,10.0,55.0
3117,53.0,20,51,12.0,79.0
3118,77.0,2,37,11.0,79.0
3119,85.0,0,37,11.0,79.0
3120,89.0,1,37,6.0,72.0
3121,89.0,1,120,0.0,106.0
3122,85.0,0,120,0.0,106.0
3123,68.0,4,35,12.0,79.0
3124,73.0,1,120,1.0,104.0
3125,77.0,0,120,1.0,104.0
3126,61.0,0,120,3.0,105.0
3127,65.0,5,120,3.0,105.0
3128,92.0,33,37,10.0,55.0
3129,80.0,0,37,11.0,79.0
3130,84.0,1,37,11.0,79.0
3131,92.0,1,37,6.0,72.0
3132,72.0,3,40,12.0,79.0
3133,53.0,0,51,12.0,79.0
3134,92.0,28,37,10.0,55.0
3135,84.0,2,37,11.0,79.0
3136,80.0,0,37,11.0,79.0
3137,92.0,1,37,6.0,72.0
3138,68.0,4,40,12.0,79.0
3139,92.0,13,37,10.0,55.0
3140,53.0,20,51,12.0,79.0
3141,80.0,2,37,11.0,79.0
3142,84.0,0,37,11.0,79.0
3143,92.0,1,37,6.0,72.0
3144,72.0,4,40,12.0,79.0
3145,92.0,33,37,10.0,55.0
3146,84.0,0,37,11.0,79.0
3147,80.0,2,37,11.0,79.0
3148,92.0,1,37,6.0,72.0
3149,68.0,4,40,12.0,79.0
3150,53.0,0,51,12.0,79.0
3151,92.0,33,37,10.0,55.0
3152,80.0,0,37,11.0,79.0
3153,84.0,2,37,11.0,79.0
3154,92.0,1,37,6.0,72.0
3155,72.0,4,40,12.0,79.0
3156,92.0,13,37,10.0,55.0
3157,53.0,20,51,12.0,79.0
3158,80.0,2,37,11.0,79.0
3159,84.0,0,37,11.0,79.0
3160,92.0,1,37,6.0,72.0
3161,84.0,0,240,0.0,106.0
3162,92.0,1,240,0.0,106.0
3163,80.0,1,240,1.0,104.0
3164,72.0,0,240,1.0,104.0
3165,68.0,4,40,12.0,79.0
3166,60.0,0,240,3.0,105.0
3167,68.0,5,240,3.0,105.0
3168,90.0,33,37,10.0,55.0
3169,78.0,1,37,11.0,79.0
3170,82.0,0,37,11.0,79.0
3171,90.0,1,37,6.0,72.0
3172,70.0,3,40,12.0,79.0
3173,53.0,0,51,12.0,79.0
3174,90.0,28,37,10.0,55.0
3175,78.0,0,37,11.0,79.0
3176,82.0,2,37,11.0,79.0
3177,90.0,1,37,6.0,72.0
3178,66.0,4,40,12.0,79.0
3179,90.0,13,37,10.0,55.0
3180,53.0,20,51,12.0,79.0
3181,82.0,2,37,11.0,79.0
3182,78.0,0,37,11.0,79.0
3183,90.0,1,37,6.0,72.0
3184,90.0,0,120,0.0,106.0
3185,82.0,1,120,0.0,106.0
3186,70.0,0,120,1.0,104.0
3187,78.0,1,120,1.0,104.0
3188,70.0,4,40,12.0,79.0
3189,58.0,0,120,3.0,105.0
3190,66.0,5,120,3.0,105.0
3191,89.0,33,37,10.0,55.0
3192,81.0,0,37,11.0,79.0
3193,77.0,1,37,11.0,79.0
3194,89.0,1,37,6.0,72.0
3195,69.0,0,40,12.0,79.0
3196,53.0,3,51,12.0,79.0
3197,89.0,28,37,10.0,54.0
3198,77.0,2,37,11.0,78.0
3199,81.0,0,37,11.0,78.0
3200,89.0,1,37,6.0,72.0
3201,65.0,4,40,12.0,78.0
3202,89.0,13,37,10.0,53.0
3203,53.0,20,51,12.0,78.0
3204,81.0,0,37,11.0,77.0
3205,77.0,2,37,11.0,77.0
3206,89.0,1,37,6.0,72.0
3207,69.0,4,40,12.0,77.0
3208,89.0,33,37,10.0,52.0
3209,77.0,2,37,11.0,76.0
3210,81.0,0,37,11.0,76.0
3211,89.0,1,37,6.0,72.0
3212,65.0,4,40,12.0,76.0
3213,53.0,0,51,12.0,76.0
3214,89.0,33,37,10.0,48.0
3215,81.0,2,37,11.0,75.0
3216,77.0,0,37,11.0,75.0
3217,89.0,1,37,6.0,72.0
3218,69.0,4,40,12.0,75.0
3219,89.0,13,37,10.0,45.0
3220,53.0,20,51,12.0,75.0
3221,81.0,0,37,11.0,75.0
3222,77.0,2,37,11.0,75.0
3223,89.0,1,37,6.0,72.0
3224,81.0,1,240,0.0,96.0
3225,89.0,0,240,0.0,96.0
3226,69.0,1,240,1.0,94.0
3227,77.0,0,240,1.0,94.0
3228,41.0,0,1320,5.0,100.0
3229,53.0,2,1320,5.0,100.0
3230,65.0,4,40,12.0,75.0
3231,65.0,5,240,3.0,95.0
3232,57.0,0,240,3.0,95.0
3233,77.0,35,37,11.0,74.0
3234,81.0,0,37,11.0,74.0
3235,69.0,0,40,12.0,74.0
3236,53.0,5,51,12.0,74.0
3237,81.0,0,37,11.0,73.0
3238,77.0,35,37,11.0,73.0
3239,65.0,5,40,12.0,73.0
3240,53.0,20,51,12.0,73.0
3241,81.0,0,37,11.0,72.0
3242,77.0,15,37,11.0,72.0
3243,69.0,5,35,12.0,72.0
3244,53.0,1,1560,13.0,100.0
3245,41.0,1,1560,14.0,100.0
3246,63.0,2,40,11.0,79.0
3247,66.0,33,60,10.0,55.0
3248,66.0,1,60,6.0,72.0
3249,66.0,38,40,11.0,79.0
3250,75.0,18,60,10.0,55.0
3251,63.0,19,40,11.0,79.0
3252,75.0,3,60,6.0,72.0
3253,66.0,2,40,11.0,79.0
3254,66.0,38,60,10.0,55.0
3255,66.0,1,60,6.0,72.0
3256,63.0,29,40,11.0,79.0
3257,75.0,18,60,10.0,55.0
3258,66.0,19,40,11.0,79.0
3259,75.0,3,60,6.0,72.0
3260,41.0,5,120,13.0,83.0
3261,29.0,5,120,14.0,83.0
3262,63.0,2,40,11.0,79.0
3263,66.0,38,60,10.0,55.0
3264,66.0,1,60,6.0,72.0
3265,66.0,29,40,11.0,79.0
3266,75.0,18,60,10.0,55.0
3267,63.0,19,40,11.0,79.0
3268,75.0,3,60,6.0,72.0
3269,45.0,5,120,13.0,86.0
3270,33.0,5,120,14.0,86.0
3271,66.0,2,40,11.0,79.0
3272,66.0,38,60,10.0,55.0
3273,66.0,1,60,6.0,72.0
3274,63.0,29,40,11.0,79.0
3275,75.0,18,60,10.0,55.0
3276,66.0,19,40,11.0,79.0
3277,75.0,3,60,6.0,72.0
3278,75.0,1,480,1.0,104.0
3279,48.0,2,120,13.0,93.0
3280,36.0,1,120,14.0,93.0
3281,63.0,2,40,11.0,79.0
3282,63.0,38,60,10.0,55.0
3283,63.0,1,60,6.0,72.0
3284,66.0,29,40,11.0,79.0
3285,73.0,18,60,10.0,55.0
3286,63.0,19,40,11.0,79.0
3287,73.0,3,60,6.0,72.0
3288,73.0,1,120,1.0,96.0
3289,52.0,4,120,13.0,83.0
3290,40.0,5,120,14.0,83.0
3291,66.0,2,40,11.0,79.0
3292,63.0,38,60,10.0,55.0
3293,63.0,1,60,6.0,72.0
3294,63.0,29,40,11.0,79.0
3295,72.0,18,50,10.0,55.0
3296,66.0,19,30,11.0,79.0
3297,72.0,3,50,6.0,72.0
3298,72.0,1,110,1.0,94.0
3299,63.0,2,40,11.0,79.0
3300,63.0,38,60,10.0,55.0
3301,63.0,1,60,6.0,72.0
3302,66.0,38,40,11.0,79.0
3303,72.0,18,60,10.0,55.0
3304,63.0,19,40,11.0,79.0
3305,72.0,3,60,6.0,72.0
3306,66.0,1,40,11.0,79.0
3307,63.0,38,60,10.0,55.0
3308,63.0,1,60,6.0,72.0
3309,63.0,39,40,11.0,79.0
3310,72.0,18,60,10.0,55.0
3311,77.0,1,120,0.0,93.0
3312,65.0,0,120,0.0,93.0
3313,66.0,19,40,11.0,79.0
3314,72.0,3,60,6.0,72.0
3315,72.0,1,240,1.0,95.0
3316,63.0,1,40,11.0,79.0
3317,63.0,38,60,10.0,55.0
3318,63.0,1,60,6.0,72.0
3319,66.0,38,40,11.0,79.0
3320,73.0,18,60,10.0,55.0
3321,81.0,0,120,0.0,99.0
3322,69.0,1,120,0.0,99.0
3323,63.0,19,40,11.0,79.0
3324,73.0,3,60,6.0,72.0
3325,73.0,1,120,1.0,104.0
3326,57.0,0,720,2.0,78.0
3327,60.0,0,720,2.0,78.0
3328,63.0,0,720,3.0,79.0
3329,66.0,4,720,3.0,79.0
3330,65.0,1,40,11.0,79.0
3331,61.0,38,60,10.0,55.0
3332,61.0,1,60,6.0,72.0
3333,61.0,30,40,11.0,79.0
3334,70.0,18,60,10.0,55.0
3335,70.0,1,120,0.0,99.0
3336,82.0,0,120,0.0,99.0
3337,65.0,19,40,11.0,79.0
3338,70.0,3,60,6.0,72.0
3339,61.0,1,40,11.0,79.0
3340,61.0,38,60,10.0,55.0
3341,61.0,1,60,6.0,72.0
3342,65.0,39,40,11.0,79.0
3343,70.0,18,60,10.0,55.0
3344,88.0,0,120,0.0,99.0
3345,76.0,1,120,0.0,99.0
3346,61.0,19,40,11.0,79.0
3347,70.0,3,60,6.0,72.0
3348,41.0,0,960,5.0,70.0
3349,53.0,3,960,5.0,70.0
3350,58.0,2,240,2.0,78.0
3351,65.0,0,240,3.0,79.0
3352,61.0,6,240,3.0,79.0
3353,65.0,1,40,11.0,79.0
3354,61.0,38,60,10.0,55.0
3355,61.0,1,60,6.0,72.0
3356,61.0,39,40,11.0,79.0
3357,70.0,18,50,10.0,55.0
3358,65.0,19,30,11.0,79.0
3359,70.0,3,50,6.0,72.0
3360,70.0,1,350,1.0,92.0
3361,77.0,0,120,0.0,85.0
3362,89.0,1,120,0.0,85.0
3363,53.0,4,840,13.0,83.0
3364,41.0,5,840,14.0,83.0
3365,63.0,2,40,11.0,79.0
3366,66.0,38,60,10.0,55.0
3367,66.0,1,60,6.0,72.0
3368,66.0,38,40,11.0,79.0
3369,75.0,18,60,10.0,55.0
3370,63.0,19,40,11.0,79.0
3371,75.0,3,60,6.0,72.0
3372,66.0,2,40,11.0,79.0
3373,66.0,38,60,10.0,55.0
3374,66.0,1,60,6.0,72.0
3375,63.0,29,40,11.0,79.0
3376,75.0,18,60,10.0,55.0
3377,66.0,19,40,11.0,79.0
3378,75.0,3,60,6.0,72.0
3379,41.0,5,120,13.0,83.0
3380,29.0,5,120,14.0,83.0
3381,63.0,2,40,11.0,79.0
3382,66.0,38,60,10.0,55.0
3383,66.0,1,60,6.0,72.0
3384,66.0,29,40,11.0,79.0
3385,75.0,18,60,10.0,55.0
3386,63.0,19,40,11.0,79.0
3387,75.0,3,60,6.0,72.0
3388,45.0,5,120,13.0,86.0
3389,33.0,5,120,14.0,86.0
3390,66.0,2,40,11.0,79.0
3391,66.0,38,60,10.0,55.0
3392,66.0,1,60,6.0,72.0
3393,63.0,29,40,11.0,79.0
3394,75.0,18,60,10.0,55.0
3395,66.0,19,40,11.0,79.0
3396,75.0,3,60,6.0,72.0
3397,75.0,1,480,1.0,104.0
3398,48.0,2,120,13.0,93.0
3399,36.0,1,120,14.0,93.0
3400,63.0,2,40,11.0,79.0
3401,63.0,38,60,10.0,55.0
3402,63.0,1,60,6.0,72.0
3403,66.0,29,40,11.0,79.0
3404,73.0,18,60,10.0,55.0
3405,63.0,19,40,11.0,79.0
3406,73.0,3,60,6.0,72.0
3407,73.0,1,120,1.0,97.0
3408,52.0,4,120,13.0,83.0
3409,40.0,5,120,14.0,83.0
3410,66.0,2,40,11.0,79.0
3411,63.0,38,60,10.0,55.0
3412,63.0,1,60,6.0,72.0
3413,63.0,29,40,11.0,79.0
3414,72.0,18,50,10.0,55.0
3415,66.0,19,30,11.0,79.0
3416,72.0,3,50,6.0,72.0
3417,72.0,1,110,1.0,94.0
3418,63.0,2,40,11.0,79.0
3419,63.0,38,60,10.0,55.0
3420,63.0,1,60,6.0,72.0
3421,66.0,38,40,11.0,79.0
3422,72.0,18,60,10.0,55.0
3423,63.0,19,40,11.0,79.0
3424,72.0,3,60,6.0,72.0
3425,66.0,1,40,11.0,79.0
3426,63.0,38,60,10.0,55.0
3427,63.0,1,60,6.0,72.0
3428,63.0,39,40,11.0,79.0
3429,72.0,18,60,10.0,55.0
3430,75.0,0,120,0.0,99.0
3431,63.0,1,120,0.0,99.0
3432,66.0,19,40,11.0,79.0
3433,72.0,3,60,6.0,72.0
3434,63.0,1,40,11.0,79.0
3435,63.0,38,60,10.0,55.0
3436,63.0,1,60,6.0,72.0
3437,66.0,39,40,11.0,79.0
3438,72.0,18,60,10.0,55.0
3439,66.0,1,120,0.0,99.0
3440,78.0,0,120,0.0,99.0
3441,63.0,19,40,11.0,79.0
3442,72.0,3,60,6.0,72.0
3443,72.0,1,360,1.0,90.0
3444,60.0,0,720,2.0,78.0
3445,57.0,3,720,2.0,78.0
3446,66.0,1,40,11.0,79.0
3447,63.0,38,60,10.0,55.0
3448,63.0,1,60,6.0,72.0
3449,63.0,36,40,11.0,79.0
3450,70.0,18,60,10.0,55.0
3451,70.0,0,120,0.0,99.0
3452,82.0,1,120,0.0,99.0
3453,66.0,19,40,11.0,79.0
3454,70.0,3,60,6.0,72.0
3455,63.0,1,40,11.0,79.0
3456,63.0,38,60,10.0,55.0
3457,63.0,1,60,6.0,72.0
3458,66.0,39,40,11.0,79.0
3459,70.0,18,60,10.0,55.0
3460,75.0,0,120,0.0,99.0
3461,87.0,1,120,0.0,99.0
3462,63.0,19,40,11.0,79.0
3463,70.0,3,60,6.0,72.0
3464,66.0,1,40,11.0,79.0
3465,63.0,38,60,10.0,55.0
3466,63.0,1,60,6.0,72.0
3467,63.0,39,40,11.0,79.0
3468,70.0,18,50,10.0,55.0
3469,66.0,19,30,11.0,79.0
3470,70.0,3,50,6.0,72.0
3471,90.0,0,120,0.0,84.0
3472,78.0,1,120,0.0,84.0
3473,70.0,1,360,1.0,77.0
3474,58.0,2,360,2.0,78.0
3475,63.0,0,1080,3.0,79.0
3476,66.0,4,1080,3.0,79.0
3477,61.0,2,40,11.0,79.0
3478,61.0,38,60,10.0,55.0
3479,61.0,1,60,6.0,72.0
3480,65.0,30,40,11.0,79.0
3481,70.0,18,60,10.0,55.0
3482,61.0,19,40,11.0,79.0
3483,70.0,3,60,6.0,72.0
3484,65.0,1,40,11.0,79.0
3485,61.0,38,60,10.0,55.0
3486,61.0,1,60,6.0,72.0
3487,61.0,39,40,11.0,79.0
3488,70.0,18,60,10.0,55.0
3489,61.0,1,120,0.0,99.0
3490,73.0,0,120,0.0,99.0
3491,65.0,19,40,11.0,79.0
3492,70.0,3,60,6.0,72.0
3493,61.0,1,40,11.0,79.0
3494,61.0,38,60,10.0,55.0
3495,61.0,1,60,6.0,72.0
3496,65.0,39,40,11.0,79.0
3497,70.0,18,60,10.0,55.0
3498,77.0,0,120,0.0,99.0
3499,65.0,1,120,0.0,99.0
3500,61.0,19,40,11.0,79.0
3501,70.0,3,60,6.0,72.0
3502,70.0,3,360,2.0,78.0
3503,58.0,0,360,2.0,78.0
3504,65.0,1,40,11.0,79.0
3505,61.0,38,60,10.0,55.0
3506,61.0,1,60,6.0,72.0
3507,61.0,36,40,11.0,79.0
3508,68.0,18,60,10.0,55.0
3509,68.0,0,120,0.0,99.0
3510,80.0,1,120,0.0,99.0
3511,65.0,19,40,11.0,79.0
3512,68.0,3,60,6.0,72.0
3513,61.0,1,40,11.0,79.0
3514,61.0,38,60,10.0,55.0
3515,61.0,1,60,6.0,72.0
3516,65.0,39,40,11.0,79.0
3517,68.0,18,60,10.0,55.0
3518,73.0,0,120,0.0,99.0
3519,85.0,1,120,0.0,99.0
3520,61.0,19,40,11.0,79.0
3521,68.0,3,60,6.0,72.0
3522,65.0,1,40,11.0,79.0
3523,61.0,38,60,10.0,55.0
3524,61.0,1,60,6.0,72.0
3525,61.0,39,40,11.0,79.0
3526,68.0,18,50,10.0,55.0
3527,65.0,19,30,11.0,79.0
3528,68.0,3,50,6.0,72.0
3529,77.0,1,120,0.0,84.0
3530,89.0,0,120,0.0,84.0
3531,65.0,0,720,3.0,79.0
3532,61.0,6,720,3.0,79.0
3533,60.0,2,40,11.0,79.0
3534,60.0,38,60,10.0,55.0
3535,60.0,1,60,6.0,72.0
3536,63.0,30,40,11.0,79.0
3537,68.0,18,60,10.0,55.0
3538,60.0,19,40,11.0,79.0
3539,68.0,3,60,6.0,72.0
3540,63.0,1,40,11.0,79.0
3541,60.0,38,60,10.0,55.0
3542,60.0,1,60,6.0,72.0
3543,60.0,39,40,11.0,79.0
3544,68.0,18,60,10.0,55.0
3545,60.0,0,120,0.0,99.0
3546,72.0,1,120,0.0,99.0
3547,63.0,19,40,11.0,79.0
3548,68.0,3,60,6.0,72.0
3549,60.0,1,40,11.0,79.0
3550,60.0,38,60,10.0,55.0
3551,60.0,1,60,6.0,72.0
3552,63.0,39,40,11.0,79.0
3553,68.0,18,60,10.0,55.0
3554,75.0,1,120,0.0,99.0
3555,63.0,0,120,0.0,99.0
3556,60.0,19,40,11.0,79.0
3557,68.0,3,60,6.0,72.0
3558,68.0,3,720,2.0,78.0
3559,56.0,0,720,2.0,78.0
3560,63.0,1,40,11.0,79.0
3561,60.0,38,60,10.0,55.0
3562,60.0,1,60,6.0,72.0
3563,60.0,36,40,11.0,79.0
3564,66.0,18,60,10.0,55.0
3565,78.0,0,120,0.0,99.0
3566,66.0,1,120,0.0,99.0
3567,63.0,19,40,11.0,79.0
3568,66.0,3,60,6.0,72.0
3569,60.0,1,40,11.0,79.0
3570,60.0,38,60,10.0,55.0
3571,60.0,1,60,6.0,72.0
3572,63.0,39,40,11.0,79.0
3573,66.0,18,60,10.0,55.0
3574,72.0,0,120,0.0,99.0
3575,84.0,1,120,0.0,99.0
3576,60.0,19,40,11.0,79.0
3577,66.0,3,60,6.0,72.0
3578,63.0,1,40,11.0,79.0
3579,60.0,38,60,10.0,55.0
3580,60.0,1,60,6.0,72.0
3581,60.0,39,40,11.0,79.0
3582,66.0,18,50,10.0,55.0
3583,63.0,19,30,11.0,79.0
3584,66.0,3,50,6.0,72.0
3585,87.0,1,120,0.0,75.0
3586,75.0,0,120,0.0,75.0
3587,54.0,0,360,2.0,78.0
3588,66.0,3,360,2.0,78.0
3589,60.0,2,40,11.0,79.0
3590,60.0,38,60,10.0,55.0
3591,60.0,1,60,6.0,72.0
3592,63.0,35,40,11.0,79.0
3593,66.0,18,60,10.0,55.0
3594,60.0,19,40,11.0,79.0
3595,66.0,3,60,6.0,72.0
3596,63.0,1,40,11.0,79.0
3597,60.0,38,60,10.0,55.0
3598,60.0,1,60,6.0,72.0
3599,60.0,39,40,11.0,79.0
3600,66.0,18,60,10.0,55.0
3601,60.0,0,120,0.0,99.0
3602,72.0,1,120,0.0,99.0
3603,63.0,19,40,11.0,79.0
3604,66.0,3,60,6.0,72.0
3605,63.0,0,960,3.0,79.0
3606,60.0,1,40,11.0,79.0
3607,60.0,38,60,10.0,55.0
3608,60.0,1,60,6.0,72.0
3609,63.0,39,40,11.0,79.0
3610,66.0,18,60,10.0,55.0
3611,63.0,1,120,0.0,99.0
3612,75.0,0,120,0.0,99.0
3613,60.0,19,40,11.0,79.0
3614,66.0,3,60,6.0,72.0
3615,60.0,4,360,12.0,90.0
3616,60.0,9,1080,3.0,79.0
3617,63.0,1,40,11.0,79.0
3618,58.0,38,60,10.0,55.0
3619,58.0,1,60,6.0,72.0
3620,60.0,30,40,11.0,79.0
3621,66.0,18,60,10.0,55.0
3622,66.0,1,120,0.0,99.0
3623,78.0,0,120,0.0,99.0
3624,63.0,19,40,11.0,79.0
3625,66.0,3,60,6.0,72.0
3626,60.0,1,40,11.0,79.0
3627,58.0,38,60,10.0,55.0
3628,58.0,1,60,6.0,72.0
3629,63.0,39,40,11.0,79.0
3630,66.0,18,60,10.0,55.0
3631,84.0,0,120,0.0,99.0
3632,72.0,1,120,0.0,99.0
3633,60.0,19,40,11.0,79.0
3634,66.0,3,60,6.0,72.0
3635,63.0,1,40,11.0,79.0
3636,58.0,38,60,10.0,55.0
3637,58.0,1,60,6.0,72.0
3638,60.0,39,40,11.0,79.0
3639,66.0,18,50,10.0,55.0
3640,66.0,3,50,6.0,72.0
3641,87.0,1,120,0.0,75.0
3642,75.0,0,120,0.0,75.0
3643,63.0,19,40,11.0,79.0
3644,58.0,4,360,12.0,98.0
3645,58.0,5,360,3.0,79.0
3646,41.0,0,3360,5.0,70.0
3647,53.0,0,3360,5.0,70.0
3648,65.0,38,240,10.0,55.0
3649,57.0,0,240,10.0,55.0
3650,60.0,2,240,11.0,79.0
3651,63.0,0,240,11.0,79.0
3652,65.0,0,240,6.0,72.0
3653,57.0,1,240,6.0,72.0
3654,57.0,5,240,3.0,79.0
3655,57.0,4,360,12.0,83.0
3656,53.0,4,3360,13.0,83.0
3657,41.0,5,3360,14.0,83.0
3658,81.0,229,480,0.0,91.0
3659,81.0,3,480,1.0,89.0
3660,69.0,0,480,1.0,89.0
3661,51.0,122,360,13.0,79.0
3662,39.0,5,360,14.0,79.0
3663,59.0,1,40,11.0,79.0
3664,59.0,347,60,10.0,55.0
3665,59.0,1,60,6.0,72.0
3666,62.0,29,40,11.0,79.0
3667,65.0,18,60,10.0,55.0
3668,80.0,1,120,0.0,84.0
3669,59.0,19,40,11.0,79.0
3670,65.0,3,60,6.0,72.0
3671,68.0,1,120,1.0,82.0
3672,80.0,0,120,1.0,82.0
3673,65.0,2,600,5.0,89.0
3674,62.0,2,40,11.0,79.0
3675,59.0,38,60,10.0,55.0
3676,59.0,1,60,6.0,72.0
3677,59.0,39,40,11.0,79.0
3678,65.0,18,60,10.0,55.0
3679,62.0,19,40,11.0,79.0
3680,65.0,3,60,6.0,72.0
3681,59.0,2,40,11.0,79.0
3682,59.0,38,60,10.0,55.0
3683,59.0,1,60,6.0,72.0
3684,62.0,39,40,11.0,79.0
3685,65.0,18,60,10.0,55.0
3686,59.0,19,40,11.0,79.0
3687,65.0,3,60,6.0,72.0
3688,59.0,3,360,12.0,79.0
3689,62.0,2,40,11.0,79.0
3690,57.0,38,60,10.0,55.0
3691,57.0,1,60,6.0,72.0
3692,59.0,35,40,11.0,79.0
3693,65.0,18,60,10.0,55.0
3694,62.0,19,40,11.0,79.0
3695,65.0,3,60,6.0,72.0
3696,59.0,2,40,11.0,79.0
3697,57.0,38,60,10.0,55.0
3698,57.0,1,60,6.0,72.0
3699,62.0,39,40,11.0,79.0
3700,65.0,18,60,10.0,55.0
3701,59.0,19,40,11.0,79.0
3702,65.0,3,60,6.0,72.0
3703,62.0,2,40,11.0,79.0
3704,57.0,38,60,10.0,55.0
3705,57.0,1,60,6.0,72.0
3706,59.0,39,40,11.0,79.0
3707,65.0,18,60,10.0,55.0
3708,62.0,19,40,11.0,79.0
3709,65.0,3,60,6.0,72.0
3710,57.0,4,360,12.0,84.0
3711,56.0,38,240,10.0,55.0
3712,65.0,0,240,10.0,55.0
3713,59.0,2,240,11.0,79.0
3714,62.0,0,240,11.0,79.0
3715,65.0,0,240,6.0,72.0
3716,56.0,1,240,6.0,72.0
3717,56.0,4,360,12.0,71.0
3718,52.0,1,1080,13.0,79.0
3719,40.0,5,1080,14.0,79.0
3720,68.0,0,480,0.0,79.0
3721,77.0,234,480,0.0,79.0
3722,77.0,3,480,1.0,78.0
3723,50.0,116,360,13.0,79.0
3724,59.0,8,480,3.0,86.0
3725,68.0,0,480,3.0,86.0
3726,38.0,5,360,14.0,79.0
3727,55.0,1,60,12.0,77.0
3728,76.0,0,120,0.0,73.0
3729,67.0,348,120,0.0,73.0
3730,65.0,0,600,4.0,85.0
3731,76.0,3,120,1.0,72.0
3732,58.0,54,60,12.0,77.0
3733,58.0,0,120,3.0,79.0
3734,67.0,4,120,3.0,79.0
3735,55.0,60,60,12.0,77.0
3736,58.0,60,60,12.0,77.0
3737,55.0,60,60,12.0,77.0
3738,55.0,2,360,2.0,97.0
3739,58.0,60,60,12.0,77.0
3740,55.0,1,60,12.0,77.0
3741,58.0,60,60,12.0,77.0
3742,55.0,60,60,12.0,77.0
3743,58.0,60,60,12.0,77.0
3744,55.0,60,60,12.0,77.0
3745,53.0,59,360,2.0,104.0
3746,52.0,59,120,2.0,79.0
3747,58.0,60,300,12.0,67.0
3748,52.0,1,240,12.0,67.0
3749,49.0,1,1300,13.0,77.0
3750,37.0,1,1300,14.0,77.0
3751,41.0,2,120,13.0,127.0
3752,45.0,15,0,15.0,77.0
3753,61.0,1,30,12.0,115.0
3754,49.0,1,30,13.0,115.0
3755,49.0,4,30,3.0,113.0
3756,45.0,14,1,15.0,77.0
3757,45.0,12,3,15.0,77.0
3758,62.0,7,30,12.0,115.0
3759,50.0,1,30,13.0,115.0
3760,50.0,4,30,3.0,113.0
3761,45.0,14,1,15.0,74.0
3762,45.0,2,1,15.0,76.0
3763,64.0,7,30,12.0,115.0
3764,52.0,1,30,13.0,115.0
3765,52.0,4,30,3.0,113.0
3766,45.0,15,15,15.0,74.0
3767,45.0,12,3,15.0,74.0
3768,45.0,2,0,15.0,76.0
3769,65.0,8,30,12.0,115.0
3770,53.0,1,30,13.0,115.0
3771,53.0,4,30,3.0,113.0
3772,45.0,17,15,15.0,76.0
3773,45.0,13,2,15.0,76.0
3774,76.0,0,240,6.0,125.0
3775,69.0,1,240,6.0,125.0
3776,45.0,14,1,15.0,76.0
3777,67.0,8,30,12.0,115.0
3778,55.0,1,30,13.0,115.0
3779,55.0,4,30,3.0,113.0
3780,45.0,14,1,15.0,76.0
3781,45.0,15,0,15.0,77.0
3782,69.0,6,30,12.0,115.0
3783,57.0,1,30,13.0,115.0
3784,57.0,4,30,3.0,113.0
3785,45.0,14,1,15.0,74.0
3786,82.0,0,360,10.0,100.0
3787,73.0,107,360,10.0,100.0
3788,85.0,0,360,0.0,99.0
3789,94.0,1,360,0.0,99.0
3790,45.0,0,1,15.0,76.0
3791,67.0,1,360,11.0,100.0
3792,76.0,0,360,11.0,100.0
3793,67.0,1,360,1.0,97.0
3794,73.0,0,360,1.0,97.0
3795,64.0,0,360,4.0,100.0
3796,79.0,2,360,2.0,97.0
3797,58.0,0,360,5.0,100.0
3798,82.0,0,360,2.0,97.0
3799,45.0,5,15,15.0,76.0
3800,70.0,1,30,12.0,115.0
3801,58.0,1,30,13.0,115.0
3802,58.0,4,30,3.0,113.0
3803,45.0,15,0,15.0,77.0
3804,45.0,14,1,15.0,76.0
3805,45.0,3,1,15.0,76.0
3806,73.0,6,30,12.0,115.0
3807,61.0,1,30,13.0,115.0
3808,61.0,4,30,3.0,113.0
3809,45.0,13,2,15.0,74.0
3810,45.0,2,2,15.0,77.0
3811,74.0,6,30,12.0,115.0
3812,62.0,1,30,13.0,115.0
3813,62.0,4,30,3.0,113.0
3814,45.0,16,15,15.0,77.0
3815,45.0,16,15,15.0,74.0
3816,45.0,3,2,15.0,68.0
3817,69.0,5,30,12.0,115.0
3818,57.0,1,30,13.0,115.0
3819,57.0,4,30,3.0,113.0
3820,45.0,14,1,15.0,66.0
3821,69.0,1,240,6.0,125.0
3822,57.0,0,240,6.0,125.0
3823,45.0,16,15,15.0,66.0
3824,45.0,4,15,15.0,67.0
3825,65.0,6,30,12.0,115.0
3826,53.0,1,30,13.0,115.0
3827,53.0,4,30,3.0,113.0
3828,45.0,15,0,15.0,73.0
3829,45.0,13,2,15.0,75.0
3830,45.0,3,15,15.0,81.0
3831,62.0,8,30,12.0,115.0
3832,50.0,1,30,13.0,115.0
3833,81.0,0,340,10.0,100.0
3834,74.0,14,340,10.0,100.0
3835,50.0,4,30,3.0,113.0
3836,77.0,1,340,11.0,100.0
3837,65.0,0,340,11.0,100.0
3838,45.0,16,15,15.0,87.0
3839,93.0,1,355,0.0,99.0
3840,57.0,0,355,4.0,100.0
3841,65.0,0,355,4.0,100.0
3842,57.0,2,355,5.0,100.0
3843,41.0,599,835,5.0,77.0
3844,81.0,0,355,2.0,97.0
3845,45.0,16,15,15.0,95.0
3846,29.0,1,835,14.0,122.0
3847,41.0,4,840,3.0,94.0
3848,62.0,0,60,6.0,105.0
3849,74.0,1,60,6.0,105.0
3850,65.0,1,60,4.0,100.0
3851,62.0,0,60,4.0,100.0
3852,50.0,0,60,5.0,100.0
3853,56.0,2,60,5.0,100.0
3854,52.0,4,60,3.0,98.0
3855,40.0,0,60,3.0,98.0
3856,50.0,2,60,15.0,121.0
3857,71.0,0,84,10.0,100.0
3858,80.0,13,84,10.0,100.0
3859,62.0,1,84,11.0,100.0
3860,77.0,0,84,11.0,100.0
3861,74.0,0,84,12.0,100.0
3862,65.0,1,84,12.0,100.0
3863,52.0,1,84,13.0,100.0
3864,28.0,1,84,14.0,100.0
3865,92.0,1,120,0.0,99.0
3866,86.0,0,480,0.0,99.0
3867,65.0,0,480,1.0,97.0
3868,74.0,1,480,1.0,97.0
3869,80.0,0,120,2.0,97.0
3870,77.0,0,480,2.0,97.0
3871,93.0,1,60,0.0,99.0
3872,86.0,0,60,0.0,99.0
3873,62.0,1,60,6.0,105.0
3874,74.0,0,60,6.0,105.0
3875,74.0,0,60,1.0,97.0
3876,65.0,0,60,4.0,100.0
3877,65.0,0,60,1.0,97.0
3878,62.0,1,60,4.0,100.0
3879,77.0,0,60,2.0,97.0
3880,81.0,0,60,2.0,97.0
3881,50.0,0,60,5.0,100.0
3882,57.0,2,60,5.0,100.0
3883,45.0,4,60,3.0,98.0
3884,57.0,0,60,3.0,98.0
3885,45.0,2,60,15.0,89.0
3886,69.0,0,84,10.0,100.0
3887,81.0,345,84,10.0,100.0
3888,77.0,0,84,11.0,100.0
3889,62.0,1,84,11.0,100.0
3890,74.0,0,84,12.0,100.0
3891,65.0,1,84,12.0,100.0
3892,57.0,0,84,12.0,100.0
3893,45.0,1,84,13.0,100.0
3894,33.0,1,84,14.0,100.0
3895,93.0,0,60,0.0,99.0
3896,85.0,1,60,0.0,99.0
3897,69.0,0,60,6.0,105.0
3898,57.0,1,60,6.0,105.0
3899,57.0,0,60,4.0,100.0
3900,64.0,1,60,4.0,100.0
3901,64.0,0,60,1.0,97.0
3902,73.0,0,60,1.0,97.0
3903,76.0,0,60,2.0,97.0
3904,81.0,2,60,2.0,97.0
3905,49.0,0,60,5.0,100.0
3906,57.0,0,60,5.0,100.0
3907,45.0,4,60,3.0,98.0
3908,57.0,0,60,3.0,98.0
3909,45.0,2,60,15.0,89.0
3910,69.0,345,84,10.0,100.0
3911,61.0,1,84,11.0,100.0
3912,69.0,0,84,11.0,100.0
3913,69.0,0,84,12.0,100.0
3914,64.0,0,84,12.0,100.0
3915,57.0,1,84,12.0,100.0
3916,45.0,1,84,13.0,100.0
3917,33.0,1,84,14.0,100.0
3918,50.0,0,10,12.0,102.0
3919,62.0,1,10,12.0,102.0
3920,50.0,0,10,12.0,102.0
3921,62.0,7,10,12.0,102.0
3922,50.0,0,10,12.0,102.0
3923,62.0,15,10,12.0,102.0
3924,86.0,1,60,0.0,99.0
3925,50.0,0,10,12.0,102.0
3926,62.0,15,10,12.0,102.0
3927,74.0,1,60,6.0,93.0
3928,62.0,0,60,6.0,93.0
3929,74.0,0,60,1.0,97.0
3930,62.0,1,60,1.0,97.0
3931,74.0,0,60,2.0,97.0
3932,50.0,2,60,5.0,100.0
3933,50.0,2,60,15.0,89.0
3934,50.0,15,10,12.0,102.0
3935,62.0,0,10,12.0,102.0
3936,62.0,345,84,10.0,100.0
3937,62.0,1,84,11.0,100.0
3938,62.0,15,10,12.0,102.0
3939,50.0,0,10,12.0,102.0
3940,38.0,1,84,13.0,100.0
3941,38.0,1,84,14.0,100.0
3942,50.0,15,10,12.0,102.0
3943,62.0,0,10,12.0,102.0
3944,50.0,15,10,12.0,102.0
3945,62.0,0,10,12.0,102.0
3946,50.0,0,10,12.0,102.0
3947,62.0,15,10,12.0,102.0
3948,50.0,0,10,12.0,102.0
3949,62.0,15,10,12.0,102.0
3950,50.0,0,10,12.0,102.0
3951,62.0,15,10,12.0,102.0
3952,62.0,0,10,12.0,102.0
3953,50.0,15,10,12.0,102.0
3954,50.0,15,10,12.0,102.0
3955,62.0,0,10,12.0,102.0
3956,62.0,15,10,12.0,102.0
3957,50.0,0,10,12.0,102.0
3958,62.0,15,10,12.0,102.0
3959,50.0,0,10,12.0,102.0
3960,50.0,15,10,12.0,102.0
3961,62.0,0,10,12.0,102.0
3962,62.0,0,10,12.0,102.0
3963,50.0,15,10,12.0,102.0
3964,50.0,15,10,12.0,102.0
3965,62.0,0,10,12.0,102.0
3966,50.0,0,10,12.0,102.0
3967,62.0,15,10,12.0,102.0
3968,62.0,0,10,12.0,102.0
3969,50.0,15,10,12.0,102.0
3970,62.0,15,10,12.0,102.0
3971,50.0,0,10,12.0,102.0
3972,50.0,15,10,12.0,102.0
3973,62.0,0,10,12.0,102.0
3974,50.0,0,10,12.0,102.0
3975,62.0,15,10,12.0,102.0
3976,62.0,0,10,12.0,102.0
3977,50.0,15,10,12.0,102.0
3978,50.0,15,10,12.0,102.0
3979,62.0,0,10,12.0,102.0
3980,62.0,0,10,12.0,102.0
3981,50.0,15,10,12.0,102.0
3982,62.0,15,10,12.0,102.0
3983,50.0,0,10,12.0,102.0
3984,50.0,0,10,12.0,102.0
3985,62.0,15,10,12.0,102.0
3986,62.0,0,10,12.0,102.0
3987,50.0,15,10,12.0,102.0
3988,50.0,0,10,12.0,102.0
3989,62.0,15,10,12.0,102.0
3990,50.0,15,10,12.0,102.0
3991,62.0,0,10,12.0,102.0
3992,62.0,0,10,12.0,102.0
3993,50.0,15,10,12.0,102.0
3994,62.0,0,10,12.0,102.0
3995,50.0,15,10,12.0,102.0
3996,62.0,0,10,12.0,102.0
3997,50.0,15,10,12.0,102.0
3998,50.0,15,10,12.0,102.0
3999,62.0,0,10,12.0,102.0
4000,50.0,0,10,12.0,102.0
4001,62.0,15,10,12.0,102.0
4002,62.0,0,10,12.0,102.0
4003,50.0,15,10,12.0,102.0
4004,62.0,0,10,12.0,102.0
4005,50.0,15,10,12.0,102.0
4006,50.0,15,10,12.0,102.0
4007,62.0,0,10,12.0,102.0
4008,50.0,15,10,12.0,102.0
4009,62.0,0,10,12.0,102.0
4010,62.0,15,10,12.0,102.0
4011,50.0,0,10,12.0,102.0
4012,50.0,0,10,12.0,102.0
4013,62.0,15,10,12.0,102.0
4014,50.0,15,10,12.0,102.0
4015,62.0,0,10,12.0,102.0
4016,50.0,15,10,12.0,102.0
4017,62.0,0,10,12.0,102.0
4018,50.0,0,10,12.0,102.0
4019,62.0,15,10,12.0,102.0
4020,50.0,0,10,12.0,102.0
4021,62.0,15,10,12.0,102.0
4022,50.0,0,10,12.0,102.0
4023,62.0,15,10,12.0,102.0
4024,50.0,0,10,12.0,102.0
4025,62.0,15,10,12.0,102.0
4026,62.0,0,10,12.0,102.0
4027,50.0,15,10,12.0,102.0
4028,50.0,0,10,12.0,102.0
4029,62.0,15,10,12.0,102.0
4030,50.0,15,10,12.0,102.0
4031,62.0,0,10,12.0,102.0
4032,62.0,0,10,12.0,102.0
4033,50.0,15,10,12.0,102.0
4034,50.0,15,10,12.0,102.0
4035,62.0,0,10,12.0,102.0
4036,50.0,0,10,12.0,102.0
4037,62.0,15,10,12.0,102.0
4038,62.0,15,10,12.0,102.0
4039,50.0,0,10,12.0,102.0
4040,50.0,15,10,12.0,102.0
4041,62.0,0,10,12.0,102.0
4042,50.0,15,10,12.0,102.0
4043,62.0,0,10,12.0,102.0
4044,50.0,0,10,12.0,102.0
4045,62.0,15,10,12.0,102.0
4046,62.0,15,10,12.0,102.0
4047,50.0,0,10,12.0,102.0
4048,50.0,15,10,12.0,102.0
4049,62.0,0,10,12.0,102.0
4050,50.0,15,10,12.0,102.0
4051,62.0,0,10,12.0,102.0
4052,62.0,0,10,12.0,102.0
4053,50.0,15,10,12.0,102.0
4054,50.0,0,10,12.0,102.0
4055,62.0,15,10,12.0,102.0
4056,50.0,15,10,12.0,102.0
4057,62.0,0,10,12.0,102.0
4058,62.0,15,10,12.0,102.0
4059,50.0,0,10,12.0,102.0
4060,62.0,0,10,12.0,102.0
4061,50.0,15,10,12.0,102.0
4062,50.0,0,10,12.0,102.0
4063,62.0,15,10,12.0,102.0
4064,50.0,0,10,12.0,102.0
4065,62.0,15,10,12.0,102.0
4066,50.0,15,10,12.0,102.0
4067,62.0,0,10,12.0,102.0
4068,62.0,0,10,12.0,102.0
4069,50.0,15,10,12.0,102.0
4070,62.0,15,10,12.0,102.0
4071,50.0,0,10,12.0,102.0
4072,62.0,15,10,12.0,127.0
4073,50.0,0,10,12.0,127.0
4074,62.0,0,1080,4.0,100.0
4075,38.0,4,1080,3.0,98.0
4076,50.0,5,0,3.0,98.0
4077,65.0,0,345,10.0,117.0
4078,70.0,8,345,10.0,117.0
4079,58.0,0,345,10.0,117.0
4080,70.0,2,345,11.0,117.0
4081,58.0,0,345,11.0,117.0
4082,65.0,0,345,11.0,117.0
4083,65.0,348,195,10.0,116.0
4084,65.0,2,195,11.0,116.0
4085,62.0,234,70,10.0,116.0
4086,62.0,2,70,11.0,116.0
4087,58.0,4,345,5.0,115.0
4088,50.0,1,15,15.0,126.0
4089,50.0,16,15,15.0,106.0
4090,74.0,118,60,10.0,124.0
4091,50.0,13,2,15.0,101.0
4092,74.0,2,60,11.0,124.0
4093,50.0,15,0,15.0,98.0
4094,50.0,14,1,15.0,88.0
4095,50.0,12,3,15.0,80.0
4096,50.0,12,3,15.0,72.0
4097,77.0,15,60,10.0,116.0
4098,77.0,0,60,11.0,116.0
4099,50.0,12,3,15.0,69.0
4100,50.0,14,1,15.0,67.0
4101,53.0,0,225,5.0,115.0
4102,50.0,16,15,15.0,66.0
4103,50.0,13,2,15.0,66.0
4104,50.0,14,1,15.0,66.0
4105,50.0,14,1,15.0,64.0
4106,50.0,14,1,15.0,66.0
4107,50.0,5,105,5.0,115.0
4108,58.0,2,345,13.0,105.0
4109,46.0,5,345,14.0,105.0
4110,50.0,14,1,15.0,66.0
4111,50.0,13,2,15.0,66.0
4112,50.0,14,1,15.0,66.0
4113,50.0,13,2,15.0,66.0
4114,50.0,14,1,15.0,66.0
4115,50.0,6,105,5.0,115.0
4116,62.0,0,105,5.0,115.0
4117,50.0,13,2,15.0,66.0
4118,50.0,15,0,15.0,64.0
4119,50.0,14,1,15.0,64.0
4120,53.0,2,195,13.0,116.0
4121,41.0,5,195,14.0,116.0
4122,50.0,12,3,15.0,66.0
4123,65.0,0,105,5.0,115.0
4124,53.0,7,105,5.0,115.0
4125,50.0,15,0,15.0,66.0
4126,50.0,1,1,15.0,66.0
4127,65.0,0,30,10.0,105.0
4128,65.0,2,30,11.0,105.0
4129,50.0,14,1,15.0,66.0
4130,50.0,14,1,15.0,64.0
4131,50.0,12,1,15.0,64.0
4132,50.0,6,70,13.0,116.0
4133,38.0,5,70,14.0,116.0
4134,67.0,0,30,10.0,105.0
4135,67.0,2,30,11.0,105.0
4136,50.0,12,3,15.0,64.0
4137,50.0,1,2,15.0,66.0
4138,68.0,16,20,10.0,127.0
4139,68.0,1,20,11.0,127.0
4140,70.0,6,20,10.0,112.0
4141,70.0,2,20,11.0,112.0
4142,50.0,4,1,15.0,64.0
4143,50.0,0,1,15.0,66.0
4144,68.0,8,23,10.0,107.0
4145,68.0,2,23,11.0,107.0
4146,62.0,2,60,13.0,119.0
4147,50.0,1,60,14.0,119.0
4148,70.0,14,23,10.0,101.0
4149,70.0,2,23,11.0,101.0
4150,50.0,8,1,15.0,66.0
4151,68.0,4,23,10.0,102.0
4152,68.0,2,23,11.0,102.0
4153,50.0,4,15,15.0,66.0
4154,70.0,10,23,10.0,103.0
4155,70.0,2,23,11.0,103.0
4156,50.0,1,15,15.0,64.0
4157,68.0,14,23,10.0,104.0
4158,68.0,1,23,11.0,104.0
4159,50.0,9,0,15.0,66.0
4160,70.0,4,23,10.0,105.0
4161,70.0,2,23,11.0,105.0
4162,50.0,2,2,15.0,66.0
4163,68.0,9,23,10.0,106.0
4164,68.0,2,23,11.0,106.0
4165,65.0,6,60,13.0,119.0
4166,53.0,5,60,14.0,119.0
4167,50.0,15,15,15.0,66.0
4168,70.0,1,23,10.0,107.0
4169,70.0,2,23,11.0,107.0
4170,50.0,7,1,15.0,66.0
4171,68.0,5,23,10.0,108.0
4172,50.0,2,0,15.0,66.0
4173,68.0,2,23,11.0,108.0
4174,70.0,11,23,10.0,108.0
4175,70.0,2,23,11.0,108.0
4176,50.0,11,0,15.0,66.0
4177,68.0,16,23,10.0,106.0
4178,68.0,0,23,11.0,106.0
4179,50.0,7,3,15.0,66.0
4180,70.0,3,23,10.0,104.0
4181,70.0,2,23,11.0,104.0
4182,50.0,3,15,15.0,66.0
4183,68.0,11,23,10.0,102.0
4184,68.0,2,23,11.0,102.0
4185,53.0,4,60,5.0,100.0
4186,50.0,13,1,15.0,66.0
4187,67.0,15,20,10.0,110.0
4188,67.0,1,20,11.0,110.0
4189,68.0,15,15,10.0,115.0
4190,50.0,1,15,15.0,66.0
4191,68.0,1,15,11.0,115.0
4192,50.0,1,1,15.0,66.0
4193,50.0,13,2,15.0,66.0
4194,67.0,13,60,10.0,105.0
4195,50.0,13,2,15.0,64.0
4196,67.0,1,60,11.0,105.0
4197,50.0,17,15,15.0,66.0
4198,50.0,14,1,15.0,64.0
4199,50.0,1,15,15.0,66.0
4200,50.0,14,15,15.0,66.0
4201,50.0,14,1,15.0,66.0
4202,65.0,15,60,10.0,105.0
4203,65.0,1,60,11.0,105.0
4204,50.0,14,1,15.0,64.0
4205,50.0,14,1,15.0,66.0
4206,50.0,15,0,15.0,64.0
4207,50.0,1,1,15.0,66.0
4208,53.0,6,30,13.0,105.0
4209,41.0,5,30,14.0,105.0
4210,50.0,12,3,15.0,66.0
4211,72.0,0,60,10.0,124.0
4212,72.0,2,60,11.0,124.0
4213,50.0,15,15,15.0,64.0
4214,50.0,3,15,15.0,66.0
4215,55.0,9,30,13.0,105.0
4216,43.0,5,30,14.0,105.0
4217,50.0,14,1,15.0,66.0
4218,56.0,4,360,5.0,127.0
4219,65.0,0,0,2.0,97.0
4220,70.0,4,1440,2.0,97.0
4221,50.0,4,1,15.0,66.0
4222,58.0,4,19,13.0,116.0
4223,46.0,1,19,14.0,116.0
4224,56.0,12,19,13.0,112.0
4225,50.0,4,15,15.0,66.0
4226,44.0,1,19,14.0,112.0
4227,70.0,0,60,10.0,116.0
4228,70.0,2,60,11.0,116.0
4229,50.0,1,15,15.0,66.0
4230,58.0,14,21,13.0,105.0
4231,46.0,4,21,14.0,105.0
4232,50.0,5,2,15.0,66.0
4233,56.0,3,21,13.0,98.0
4234,50.0,1,1,15.0,68.0
4235,44.0,5,21,14.0,98.0
4236,58.0,8,21,13.0,101.0
4237,46.0,5,21,14.0,101.0
4238,50.0,13,1,15.0,70.0
4239,56.0,14,21,13.0,101.0
4240,44.0,1,21,14.0,101.0
4241,50.0,7,2,15.0,70.0
4242,58.0,1,21,13.0,101.0
4243,46.0,5,21,14.0,101.0
4244,56.0,4,21,13.0,103.0
4245,44.0,5,21,14.0,103.0
4246,50.0,3,2,15.0,72.0
4247,58.0,5,21,13.0,103.0
4248,46.0,5,21,14.0,103.0
4249,50.0,4,15,15.0,74.0
4250,56.0,11,21,13.0,104.0
4251,44.0,1,21,14.0,104.0
4252,50.0,9,1,15.0,80.0
4253,58.0,0,21,13.0,106.0
4254,46.0,5,21,14.0,106.0
4255,50.0,8,1,15.0,83.0
4256,56.0,1,21,13.0,106.0
4257,44.0,5,21,14.0,106.0
4258,50.0,0,3480,4.0,100.0
4259,58.0,8,21,13.0,105.0
4260,50.0,2,15,15.0,86.0
4261,46.0,5,21,14.0,105.0
4262,50.0,0,15,15.0,88.0
4263,56.0,7,21,13.0,106.0
4264,44.0,5,21,14.0,106.0
4265,50.0,15,15,15.0,90.0
4266,58.0,1,21,13.0,105.0
4267,46.0,5,21,14.0,105.0
4268,50.0,3,2,15.0,94.0
4269,56.0,5,21,13.0,104.0
4270,50.0,1,0,15.0,95.0
4271,44.0,5,21,14.0,104.0
4272,55.0,9,20,13.0,105.0
4273,43.0,5,20,14.0,105.0
4274,50.0,3,1,15.0,96.0
4275,56.0,6,15,13.0,105.0
4276,44.0,5,15,14.0,105.0
4277,50.0,14,1,15.0,97.0
4278,50.0,3,15,15.0,98.0
4279,50.0,12,3,15.0,98.0
4280,50.0,15,0,15.0,98.0
4281,55.0,4,60,13.0,105.0
4282,43.0,5,60,14.0,105.0
4283,50.0,12,3,15.0,98.0
4284,50.0,15,0,15.0,96.0
4285,50.0,15,15,15.0,95.0
4286,50.0,14,1,15.0,92.0
4287,50.0,13,2,15.0,90.0
4288,53.0,9,60,13.0,105.0
4289,41.0,5,60,14.0,105.0
4290,50.0,13,2,15.0,85.0
4291,50.0,15,15,15.0,82.0
4292,50.0,15,0,15.0,79.0
4293,65.0,0,30,10.0,105.0
4294,65.0,2,30,11.0,105.0
4295,50.0,14,1,15.0,75.0
4296,50.0,12,3,15.0,69.0
4297,60.0,6,60,13.0,127.0
4298,48.0,5,60,14.0,127.0
4299,67.0,1,30,10.0,105.0
4300,50.0,14,1,15.0,67.0
4301,67.0,2,30,11.0,105.0
4302,50.0,15,0,15.0,66.0
4303,62.0,4,360,4.0,127.0
4304,50.0,3,0,15.0,66.0
4305,68.0,16,20,10.0,127.0
4306,68.0,1,20,11.0,127.0
4307,50.0,8,1,15.0,64.0
4308,70.0,4,20,10.0,112.0
4309,70.0,2,20,11.0,112.0
4310,50.0,13,2,15.0,66.0
4311,68.0,10,23,10.0,107.0
4312,68.0,2,23,11.0,107.0
4313,58.0,6,60,13.0,119.0
4314,46.0,5,60,14.0,119.0
4315,70.0,0,23,10.0,101.0
4316,70.0,2,23,11.0,101.0
4317,50.0,9,1,15.0,66.0
4318,68.0,3,23,10.0,102.0
4319,68.0,2,23,11.0,102.0
4320,50.0,3,1,15.0,66.0
4321,50.0,14,1,15.0,66.0
4322,70.0,9,23,10.0,103.0
4323,70.0,2,23,11.0,103.0
4324,68.0,1,23,10.0,104.0
4325,68.0,2,23,11.0,104.0
4326,50.0,12,15,15.0,66.0
4327,70.0,6,23,10.0,105.0
4328,70.0,2,23,11.0,105.0
4329,50.0,2,2,15.0,64.0
4330,68.0,9,23,10.0,106.0
4331,68.0,2,23,11.0,106.0
4332,50.0,12,2,15.0,66.0
4333,70.0,16,23,10.0,107.0
4334,70.0,1,23,11.0,107.0
4335,68.0,6,23,10.0,108.0
4336,68.0,2,23,11.0,108.0
4337,50.0,2,3,15.0,64.0
4338,70.0,8,23,10.0,108.0
4339,70.0,2,23,11.0,108.0
4340,50.0,8,3,15.0,64.0
4341,68.0,16,23,10.0,106.0
4342,68.0,2,23,11.0,106.0
4343,70.0,6,23,10.0,104.0
4344,70.0,2,23,11.0,104.0
4345,50.0,8,15,15.0,66.0
4346,50.0,3,15,15.0,66.0
4347,68.0,10,23,10.0,102.0
4348,68.0,2,23,11.0,102.0
4349,53.0,4,60,5.0,100.0
4350,50.0,14,1,15.0,66.0
4351,67.0,15,20,10.0,115.0
4352,67.0,0,20,11.0,115.0
4353,68.0,14,15,10.0,115.0
4354,50.0,13,1,15.0,64.0
4355,68.0,1,15,11.0,115.0
4356,50.0,9,1,15.0,66.0
4357,50.0,16,15,15.0,66.0
4358,67.0,15,60,10.0,105.0
4359,50.0,14,1,15.0,66.0
4360,67.0,1,60,11.0,105.0
4361,50.0,14,1,15.0,66.0
4362,50.0,17,15,15.0,66.0
4363,50.0,13,2,15.0,66.0
4364,50.0,12,0,15.0,66.0
4365,50.0,15,0,15.0,66.0
4366,65.0,1,60,10.0,105.0
4367,50.0,18,15,15.0,64.0
4368,65.0,2,60,11.0,105.0
4369,50.0,14,1,15.0,66.0
4370,50.0,13,2,15.0,66.0
4371,50.0,1,2,15.0,66.0
4372,53.0,6,30,13.0,105.0
4373,41.0,5,30,14.0,105.0
4374,50.0,13,2,15.0,66.0
4375,75.0,16,60,10.0,114.0
4376,75.0,1,60,11.0,114.0
4377,50.0,2,2,15.0,69.0
4378,55.0,6,30,13.0,105.0
4379,43.0,5,30,14.0,105.0
4380,50.0,13,2,15.0,73.0
4381,50.0,0,0,15.0,75.0
4382,56.0,4,360,5.0,127.0
4383,50.0,5,1,15.0,78.0
4384,58.0,5,19,13.0,116.0
4385,50.0,2,0,15.0,79.0
4386,46.0,0,19,14.0,116.0
4387,56.0,13,19,13.0,112.0
4388,44.0,3,19,14.0,112.0
4389,74.0,15,60,10.0,116.0
4390,50.0,3,15,15.0,81.0
4391,74.0,2,60,11.0,116.0
4392,58.0,12,21,13.0,106.0
4393,46.0,2,21,14.0,106.0
4394,50.0,5,3,15.0,85.0
4395,56.0,2,21,13.0,98.0
4396,44.0,5,21,14.0,98.0
4397,50.0,4,15,15.0,89.0
4398,58.0,11,21,13.0,101.0
4399,46.0,1,21,14.0,101.0
4400,56.0,10,21,13.0,101.0
4401,50.0,12,3,15.0,95.0
4402,44.0,5,21,14.0,101.0
4403,58.0,1,21,13.0,101.0
4404,46.0,5,21,14.0,101.0
4405,50.0,7,0,15.0,97.0
4406,56.0,3,21,13.0,103.0
4407,44.0,5,21,14.0,103.0
4408,58.0,7,21,13.0,103.0
4409,50.0,2,1,15.0,99.0
4410,46.0,5,21,14.0,103.0
4411,56.0,12,21,13.0,104.0
4412,44.0,3,21,14.0,104.0
4413,50.0,12,15,15.0,100.0
4414,58.0,3,21,13.0,106.0
4415,46.0,5,21,14.0,106.0
4416,50.0,7,15,15.0,101.0
4417,56.0,3,21,13.0,106.0
4418,44.0,5,21,14.0,106.0
4419,50.0,4,3,15.0,101.0
4420,50.0,4,1440,4.0,100.0
4421,58.0,8,21,13.0,105.0
4422,46.0,1,21,14.0,105.0
4423,50.0,4,15,15.0,101.0
4424,56.0,8,21,13.0,106.0
4425,44.0,1,21,14.0,106.0
4426,50.0,0,15,15.0,101.0
4427,58.0,15,21,13.0,105.0
4428,46.0,5,21,14.0,105.0
4429,50.0,4,3,15.0,101.0
4430,56.0,3,21,13.0,104.0
4431,44.0,5,21,14.0,104.0
4432,55.0,9,20,13.0,105.0
4433,50.0,3,15,15.0,101.0
4434,43.0,5,20,14.0,105.0
4435,50.0,3,1,15.0,96.0
4436,56.0,6,15,13.0,105.0
4437,44.0,5,15,14.0,105.0
4438,50.0,14,1,15.0,96.0
4439,50.0,2,15,15.0,95.0
4440,50.0,12,3,15.0,91.0
4441,55.0,4,60,13.0,105.0
4442,43.0,5,60,14.0,105.0
4443,50.0,13,2,15.0,88.0
4444,50.0,15,0,15.0,83.0
4445,50.0,14,1,15.0,82.0
4446,50.0,2,0,15.0,79.0
4447,50.0,16,15,15.0,77.0
4448,50.0,13,2,15.0,72.0
4449,53.0,8,60,13.0,105.0
4450,41.0,5,60,14.0,105.0
4451,50.0,14,1,15.0,70.0
4452,50.0,17,15,15.0,67.0
4453,50.0,13,2,15.0,64.0
4454,74.0,1,30,10.0,105.0
4455,50.0,2,15,15.0,63.0
4456,74.0,2,30,11.0,105.0
4457,50.0,14,1,15.0,66.0
4458,75.0,15,30,10.0,105.0
4459,50.0,14,1,15.0,66.0
4460,75.0,2,30,11.0,105.0
4461,63.0,6,60,13.0,118.0
4462,51.0,5,60,14.0,118.0
4463,77.0,0,30,10.0,105.0
4464,50.0,0,2,15.0,66.0
4465,77.0,2,30,11.0,105.0
4466,50.0,13,15,15.0,66.0
4467,79.0,13,30,10.0,105.0
4468,79.0,2,30,11.0,105.0
4469,62.0,4,360,4.0,127.0
4470,50.0,1,15,15.0,66.0
4471,80.0,15,21,10.0,127.0
4472,80.0,1,21,11.0,127.0
4473,50.0,7,2,15.0,91.0
4474,82.0,4,21,10.0,111.0
4475,82.0,2,21,11.0,111.0
4476,50.0,14,1,15.0,90.0
4477,80.0,12,21,10.0,104.0
4478,80.0,2,21,11.0,104.0
4479,62.0,4,60,13.0,111.0
4480,50.0,5,60,14.0,111.0
4481,50.0,11,1,15.0,88.0
4482,82.0,1,25,10.0,98.0
4483,82.0,2,25,11.0,98.0
4484,50.0,5,15,15.0,86.0
4485,80.0,8,25,10.0,98.0
4486,80.0,2,25,11.0,98.0
4487,50.0,1,15,15.0,84.0
4488,82.0,14,25,10.0,98.0
4489,82.0,2,25,11.0,98.0
4490,50.0,9,2,15.0,79.0
4491,80.0,2,25,10.0,100.0
4492,50.0,3,0,15.0,74.0
4493,80.0,2,25,11.0,100.0
4494,82.0,10,25,10.0,100.0
4495,82.0,2,25,11.0,100.0
4496,50.0,13,1,15.0,68.0
4497,80.0,15,25,10.0,100.0
4498,80.0,1,25,11.0,100.0
4499,50.0,7,0,15.0,66.0
4500,82.0,6,25,10.0,101.0
4501,82.0,2,25,11.0,101.0
4502,50.0,3,15,15.0,64.0
4503,80.0,12,25,10.0,101.0
4504,80.0,2,25,11.0,101.0
4505,50.0,13,0,15.0,66.0
4506,82.0,15,25,10.0,102.0
4507,82.0,2,25,11.0,102.0
4508,50.0,5,2,15.0,66.0
4509,50.0,0,0,15.0,66.0
4510,80.0,1,25,10.0,102.0
4511,80.0,2,25,11.0,102.0
4512,82.0,13,25,10.0,102.0
4513,82.0,2,25,11.0,102.0
4514,50.0,16,15,15.0,66.0
4515,80.0,3,25,10.0,103.0
4516,80.0,2,25,11.0,103.0
4517,50.0,5,0,15.0,66.0
4518,50.0,1,1,15.0,66.0
4519,82.0,8,25,10.0,103.0
4520,82.0,2,25,11.0,103.0
4521,50.0,13,1,15.0,66.0
4522,80.0,13,25,10.0,103.0
4523,80.0,1,25,11.0,103.0
4524,62.0,5,120,5.0,100.0
4525,50.0,7,15,15.0,64.0
4526,82.0,6,25,10.0,104.0
4527,82.0,2,25,11.0,104.0
4528,50.0,14,1,15.0,66.0
4529,80.0,4,25,10.0,104.0
4530,80.0,2,25,11.0,104.0
4531,82.0,2,25,10.0,105.0
4532,82.0,2,25,11.0,105.0
4533,50.0,6,0,15.0,66.0
4534,80.0,7,25,10.0,105.0
4535,80.0,2,25,11.0,105.0
4536,50.0,14,1,15.0,66.0
4537,82.0,12,25,10.0,105.0
4538,82.0,2,25,11.0,105.0
4539,80.0,3,25,10.0,106.0
4540,80.0,2,25,11.0,106.0
4541,50.0,6,1,15.0,66.0
4542,50.0,0,2,15.0,66.0
4543,82.0,6,25,10.0,106.0
4544,82.0,2,25,11.0,106.0
4545,80.0,13,25,10.0,106.0
4546,80.0,2,25,11.0,106.0
4547,50.0,8,2,15.0,66.0
4548,50.0,2,1,15.0,66.0
4549,82.0,3,25,10.0,107.0
4550,82.0,2,25,11.0,107.0
4551,80.0,10,25,10.0,107.0
4552,80.0,2,25,11.0,107.0
4553,50.0,11,1,15.0,66.0
4554,82.0,1,25,10.0,108.0
4555,82.0,2,25,11.0,108.0
4556,80.0,7,25,10.0,108.0
4557,50.0,1,2,15.0,66.0
4558,80.0,2,25,11.0,108.0
4559,82.0,10,25,10.0,107.0
4560,82.0,2,25,11.0,107.0
4561,50.0,3,15,15.0,66.0
4562,50.0,8,30,13.0,105.0
4563,80.0,2,25,10.0,106.0
4564,38.0,5,30,14.0,105.0
4565,80.0,2,25,11.0,106.0
4566,50.0,3,1,15.0,67.0
4567,82.0,6,25,10.0,104.0
4568,82.0,2,25,11.0,104.0
4569,51.0,0,30,13.0,105.0
4570,39.0,3,30,14.0,105.0
4571,50.0,3,1,15.0,71.0
4572,80.0,13,25,10.0,103.0
4573,80.0,2,25,11.0,103.0
4574,53.0,6,30,13.0,105.0
4575,41.0,5,30,14.0,105.0
4576,50.0,3,0,15.0,93.0
4577,79.0,14,17,10.0,127.0
4578,79.0,1,17,11.0,127.0
4579,50.0,13,2,15.0,100.0
4580,55.0,6,30,13.0,105.0
4581,43.0,5,30,14.0,105.0
4582,77.0,1,22,10.0,127.0
4583,77.0,1,22,11.0,127.0
4584,56.0,6,22,13.0,127.0
4585,50.0,2,15,15.0,101.0
4586,44.0,5,22,14.0,127.0
4587,79.0,6,22,10.0,111.0
4588,79.0,2,22,11.0,111.0
4589,50.0,2,0,15.0,98.0
4590,58.0,6,22,13.0,111.0
4591,46.0,2,22,14.0,111.0
4592,50.0,5,1,15.0,93.0
4593,77.0,9,22,10.0,105.0
4594,77.0,2,22,11.0,105.0
4595,56.0,4,22,13.0,105.0
4596,44.0,5,22,14.0,105.0
4597,79.0,3,25,10.0,100.0
4598,79.0,2,25,11.0,100.0
4599,50.0,3,1,15.0,84.0
4600,58.0,6,25,13.0,100.0
4601,46.0,5,25,14.0,100.0
4602,77.0,9,25,10.0,101.0
4603,77.0,2,25,11.0,101.0
4604,56.0,3,25,13.0,101.0
4605,50.0,3,3,15.0,77.0
4606,44.0,5,25,14.0,101.0
4607,79.0,1,25,10.0,103.0
4608,79.0,2,25,11.0,103.0
4609,58.0,6,25,13.0,103.0
4610,46.0,2,25,14.0,103.0
4611,50.0,1,0,15.0,73.0
4612,77.0,8,25,10.0,103.0
4613,77.0,2,25,11.0,103.0
4614,56.0,0,25,13.0,103.0
4615,50.0,2,1,15.0,71.0
4616,44.0,5,25,14.0,103.0
4617,79.0,9,25,10.0,104.0
4618,79.0,1,25,11.0,104.0
4619,50.0,1,0,15.0,70.0
4620,58.0,6,25,13.0,104.0
4621,46.0,5,25,14.0,104.0
4622,50.0,1,1,15.0,66.0
4623,77.0,6,25,10.0,105.0
4624,77.0,2,25,11.0,105.0
4625,56.0,6,25,13.0,105.0
4626,44.0,4,25,14.0,105.0
4627,79.0,9,25,10.0,106.0
4628,79.0,1,25,11.0,106.0
4629,58.0,6,25,13.0,106.0
4630,50.0,2,1,15.0,66.0
4631,46.0,5,25,14.0,106.0
4632,50.0,2,2,15.0,66.0
4633,77.0,4,25,10.0,108.0
4634,77.0,2,25,11.0,108.0
4635,56.0,6,25,13.0,108.0
4636,44.0,3,25,14.0,108.0
4637,79.0,8,25,10.0,108.0
4638,79.0,0,25,11.0,108.0
4639,58.0,6,25,13.0,108.0
4640,50.0,3,2,15.0,66.0
4641,46.0,5,25,14.0,108.0
4642,77.0,2,25,10.0,107.0
4643,50.0,3,0,15.0,66.0
4644,77.0,2,25,11.0,107.0
4645,56.0,6,25,13.0,107.0
4646,44.0,2,25,14.0,107.0
4647,50.0,6,1,15.0,66.0
4648,79.0,8,25,10.0,105.0
4649,79.0,2,25,11.0,105.0
4650,58.0,3,25,13.0,105.0
4651,46.0,5,25,14.0,105.0
4652,77.0,3,25,10.0,103.0
4653,77.0,2,25,11.0,103.0
4654,50.0,1,1,15.0,66.0
4655,56.0,6,25,13.0,103.0
4656,44.0,5,25,14.0,103.0
4657,50.0,1,2,15.0,64.0
4658,75.0,13,17,10.0,127.0
4659,75.0,1,17,11.0,127.0
4660,55.0,6,17,13.0,120.0
4661,43.0,5,17,14.0,120.0
4662,50.0,2,0,4.0,100.0
4663,50.0,16,15,15.0,66.0
4664,74.0,0,22,10.0,127.0
4665,74.0,2,22,11.0,127.0
4666,53.0,4,22,13.0,127.0
4667,50.0,1,2,15.0,66.0
4668,41.0,5,22,14.0,127.0
4669,75.0,4,22,10.0,111.0
4670,50.0,1,1,15.0,66.0
4671,75.0,2,22,11.0,111.0
4672,55.0,6,22,13.0,111.0
4673,43.0,4,22,14.0,111.0
4674,50.0,3,0,15.0,66.0
4675,74.0,9,22,10.0,105.0
4676,74.0,1,22,11.0,105.0
4677,53.0,6,22,13.0,105.0
4678,41.0,5,22,14.0,105.0
4679,75.0,5,25,10.0,100.0
4680,75.0,2,25,11.0,100.0
4681,50.0,1,3,15.0,66.0
4682,55.0,6,25,13.0,100.0
4683,43.0,5,25,14.0,100.0
4684,50.0,5,0,15.0,64.0
4685,74.0,9,25,10.0,101.0
4686,74.0,2,25,11.0,101.0
4687,53.0,5,25,13.0,101.0
4688,41.0,5,25,14.0,101.0
4689,75.0,4,25,10.0,103.0
4690,50.0,3,15,15.0,66.0
4691,75.0,2,25,11.0,103.0
4692,55.0,6,25,13.0,103.0
4693,43.0,2,25,14.0,103.0
4694,50.0,8,1,15.0,66.0
4695,74.0,8,25,10.0,103.0
4696,74.0,2,25,11.0,103.0
4697,53.0,1,25,13.0,103.0
4698,50.0,0,1,15.0,66.0
4699,41.0,5,25,14.0,103.0
4700,75.0,1,25,10.0,104.0
4701,75.0,2,25,11.0,104.0
4702,55.0,6,25,13.0,104.0
4703,43.0,5,25,14.0,104.0
4704,50.0,1,15,15.0,66.0
4705,74.0,8,25,10.0,105.0
4706,74.0,2,25,11.0,105.0
4707,53.0,6,25,13.0,105.0
4708,41.0,4,25,14.0,105.0
4709,50.0,4,0,15.0,66.0
4710,75.0,9,25,10.0,106.0
4711,75.0,2,25,11.0,106.0
4712,50.0,6,2,15.0,66.0
4713,55.0,6,25,13.0,106.0
4714,43.0,5,25,14.0,106.0
4715,74.0,5,25,10.0,108.0
4716,74.0,2,25,11.0,108.0
4717,53.0,0,25,13.0,108.0
4718,41.0,5,25,14.0,108.0
4719,50.0,1,15,15.0,66.0
4720,75.0,8,25,10.0,108.0
4721,75.0,2,25,11.0,108.0
4722,55.0,5,25,13.0,108.0
4723,50.0,2,3,15.0,66.0
4724,43.0,5,25,14.0,108.0
4725,74.0,2,25,10.0,107.0
4726,74.0,2,25,11.0,107.0
4727,53.0,6,25,13.0,107.0
4728,41.0,3,25,14.0,107.0
4729,50.0,4,15,15.0,66.0
4730,75.0,8,25,10.0,105.0
4731,75.0,2,25,11.0,105.0
4732,55.0,2,25,13.0,105.0
4733,50.0,0,2,15.0,66.0
4734,43.0,5,25,14.0,105.0
4735,74.0,0,25,10.0,103.0
4736,74.0,2,25,11.0,103.0
4737,53.0,6,25,13.0,103.0
4738,41.0,5,25,14.0,103.0
4739,50.0,1,15,15.0,66.0
4740,72.0,15,17,10.0,127.0
4741,72.0,1,17,11.0,127.0
4742,51.0,6,17,13.0,120.0
4743,39.0,5,17,14.0,120.0
4744,86.0,0,0,0.0,99.0
4745,50.0,0,0,15.0,66.0
4746,62.0,2,0,4.0,100.0
4747,50.0,4,22,13.0,117.0
4748,50.0,1,2,15.0,64.0
4749,38.0,5,22,14.0,117.0
4750,51.0,12,22,13.0,111.0
4751,39.0,4,22,14.0,111.0
4752,50.0,11,15,15.0,66.0
4753,70.0,13,60,10.0,100.0
4754,70.0,1,60,11.0,100.0
4755,50.0,6,22,13.0,105.0
4756,50.0,2,1,15.0,66.0
4757,38.0,5,22,14.0,105.0
4758,51.0,12,25,13.0,100.0
4759,39.0,3,25,14.0,100.0
4760,50.0,5,3,15.0,66.0
4761,50.0,2,25,13.0,101.0
4762,38.0,5,25,14.0,101.0
4763,50.0,12,2,15.0,66.0
4764,51.0,12,25,13.0,103.0
4765,39.0,1,25,14.0,103.0
4766,50.0,7,0,15.0,66.0
4767,50.0,3,25,13.0,103.0
4768,50.0,5,0,15.0,69.0
4769,38.0,5,25,14.0,103.0
4770,62.0,4,60,10.0,104.0
4771,62.0,1,60,11.0,104.0
4772,51.0,10,25,13.0,104.0
4773,39.0,0,25,14.0,104.0
4774,50.0,1,15,15.0,66.0
4775,50.0,16,25,13.0,105.0
4776,38.0,4,25,14.0,105.0
4777,50.0,3,2,15.0,67.0
4778,50.0,0,1,15.0,66.0
4779,51.0,5,25,13.0,106.0
4780,39.0,5,25,14.0,106.0
4781,50.0,14,25,13.0,108.0
4782,38.0,5,25,14.0,108.0
4783,50.0,4,2,15.0,63.0
4784,50.0,2,0,15.0,62.0
4785,51.0,3,25,13.0,108.0
4786,39.0,5,25,14.0,108.0
4787,50.0,13,25,13.0,107.0
4788,38.0,3,25,14.0,107.0
4789,65.0,11,60,10.0,108.0
4790,50.0,7,1,15.0,60.0
4791,65.0,1,60,11.0,108.0
4792,51.0,2,25,13.0,105.0
4793,39.0,5,25,14.0,105.0
4794,50.0,15,0,15.0,59.0
4795,50.0,10,25,13.0,103.0
4796,38.0,5,25,14.0,103.0
4797,63.0,8,20,13.0,127.0
4798,50.0,3,15,15.0,58.0
4799,51.0,5,20,14.0,127.0
4800,65.0,7,1440,5.0,127.0
4801,62.0,4,4680,3.0,98.0
4802,50.0,1,3,15.0,57.0
4803,62.0,2,22,13.0,117.0
4804,50.0,1,22,14.0,117.0
4805,50.0,2,15,15.0,57.0
4806,63.0,15,22,13.0,111.0
4807,51.0,3,22,14.0,111.0
4808,58.0,14,60,10.0,112.0
4809,58.0,2,60,11.0,112.0
4810,50.0,5,1,15.0,56.0
4811,62.0,4,22,13.0,105.0
4812,50.0,5,22,14.0,105.0
4813,50.0,14,0,15.0,56.0
4814,63.0,11,25,13.0,100.0
4815,51.0,1,25,14.0,100.0
4816,62.0,3,25,13.0,101.0
4817,50.0,3,2,15.0,56.0
4818,50.0,5,25,14.0,101.0
4819,63.0,10,25,13.0,103.0
4820,51.0,1,25,14.0,103.0
4821,50.0,13,15,15.0,58.0
4822,62.0,2,25,13.0,103.0
4823,50.0,9,15,15.0,60.0
4824,50.0,5,25,14.0,103.0
4825,62.0,1,60,10.0,116.0
4826,50.0,2,15,15.0,62.0
4827,62.0,1,60,11.0,116.0
4828,63.0,8,25,13.0,104.0
4829,51.0,5,25,14.0,104.0
4830,50.0,12,0,15.0,67.0
4831,62.0,14,25,13.0,105.0
4832,50.0,3,25,14.0,105.0
4833,50.0,4,1,15.0,70.0
4834,50.0,2,0,15.0,74.0
4835,63.0,5,25,13.0,106.0
4836,51.0,5,25,14.0,106.0
4837,62.0,13,25,13.0,108.0
4838,58.0,4,240,3.0,98.0
4839,50.0,3,25,14.0,108.0
4840,50.0,3,1,15.0,80.0
4841,63.0,3,25,13.0,108.0
4842,51.0,5,25,14.0,108.0
4843,50.0,13,2,15.0,90.0
4844,62.0,12,25,13.0,107.0
4845,50.0,5,25,14.0,107.0
4846,56.0,11,60,10.0,120.0
4847,56.0,1,60,11.0,120.0
4848,63.0,3,25,13.0,105.0
4849,50.0,8,15,15.0,94.0
4850,51.0,5,25,14.0,105.0
4851,50.0,1,15,15.0,98.0
4852,62.0,9,25,13.0,103.0
4853,50.0,5,25,14.0,103.0
4854,50.0,15,15,15.0,104.0
4855,60.0,7,20,13.0,127.0
4856,50.0,3,15,15.0,111.0
4857,89.0,1,720,0.0,99.0
4858,86.0,1,0,0.0,111.0
4859,48.0,5,20,14.0,127.0
4860,80.0,2,2160,1.0,97.0
4861,77.0,2,2880,1.0,97.0
4862,65.0,0,720,4.0,100.0
4863,74.0,4,4320,2.0,97.0
4864,62.0,4,360,5.0,100.0
4865,58.0,0,0,5.0,112.0
4866,62.0,1,0,12.0,112.0
4867,50.0,0,0,12.0,112.0
4868,56.0,2,120,3.0,98.0
4869,55.0,14,60,10.0,127.0
4870,55.0,1,60,11.0,127.0
4871,58.0,1,60,13.0,112.0
4872,46.0,1,60,14.0,112.0
4873,91.0,0,72,0.0,111.0
4874,50.0,2,60,15.0,126.0
4875,74.0,2,72,1.0,108.0
4876,79.0,0,72,1.0,108.0
4877,74.0,2,72,2.0,109.0
4878,62.0,0,72,2.0,109.0
4879,62.0,0,102,4.0,112.0
4880,67.0,0,102,4.0,112.0
4881,62.0,0,102,5.0,112.0
4882,46.0,4,102,3.0,110.0
4883,55.0,0,102,3.0,110.0
4884,62.0,109,60,4.0,100.0
4885,50.0,0,60,4.0,100.0
4886,55.0,4,60,13.0,100.0
4887,43.0,1,60,14.0,100.0
4888,50.0,2,60,15.0,83.0
4889,86.0,45,36,10.0,100.0
4890,86.0,1,36,0.0,99.0
4891,86.0,1,36,11.0,100.0
4892,86.0,2,36,1.0,97.0
4893,74.0,0,36,1.0,97.0
4894,74.0,2,36,2.0,97.0
4895,74.0,0,36,12.0,100.0
4896,62.0,1,36,12.0,100.0
4897,55.0,4,102,3.0,98.0
4898,86.0,53,36,10.0,100.0
4899,86.0,1,36,0.0,99.0
4900,86.0,1,36,11.0,100.0
4901,86.0,0,36,1.0,97.0
4902,74.0,2,36,1.0,97.0
4903,74.0,2,36,2.0,97.0
4904,62.0,1,36,12.0,100.0
4905,74.0,0,36,12.0,100.0
4906,62.0,0,60,4.0,100.0
4907,50.0,0,60,4.0,100.0
4908,58.0,1,60,13.0,100.0
4909,46.0,1,60,14.0,100.0
4910,50.0,2,60,15.0,83.0
4911,84.0,45,36,10.0,100.0
4912,84.0,0,36,0.0,99.0
4913,86.0,1,36,0.0,99.0
4914,84.0,1,36,11.0,100.0
4915,74.0,2,36,1.0,97.0
4916,84.0,0,36,1.0,97.0
4917,72.0,2,36,2.0,97.0
4918,74.0,0,36,2.0,97.0
4919,74.0,0,36,12.0,100.0
4920,62.0,1,36,12.0,100.0
4921,58.0,4,102,3.0,98.0
4922,84.0,53,36,10.0,100.0
4923,84.0,0,36,0.0,99.0
4924,86.0,1,36,0.0,99.0
4925,84.0,1,36,11.0,100.0
4926,84.0,0,36,1.0,97.0
4927,74.0,0,36,1.0,97.0
4928,72.0,2,36,2.0,97.0
4929,74.0,0,36,2.0,97.0
4930,74.0,0,36,12.0,100.0
4931,62.0,1,36,12.0,100.0
4932,50.0,0,60,4.0,100.0
4933,62.0,2,60,4.0,100.0
4934,46.0,1,60,13.0,100.0
4935,34.0,1,60,14.0,100.0
4936,50.0,2,60,15.0,83.0
4937,82.0,45,36,10.0,100.0
4938,82.0,0,36,0.0,99.0
4939,86.0,1,36,0.0,99.0
4940,82.0,1,36,11.0,100.0
4941,74.0,0,36,1.0,97.0
4942,82.0,2,36,1.0,97.0
4943,70.0,0,36,2.0,97.0
4944,74.0,2,36,2.0,97.0
4945,62.0,1,36,12.0,100.0
4946,74.0,0,36,12.0,100.0
4947,50.0,4,102,3.0,98.0
4948,82.0,53,36,10.0,100.0
4949,82.0,0,36,0.0,99.0
4950,86.0,1,36,0.0,99.0
4951,82.0,1,36,11.0,100.0
4952,74.0,0,36,1.0,97.0
4953,82.0,2,36,1.0,97.0
4954,70.0,2,36,2.0,97.0
4955,74.0,0,36,2.0,97.0
4956,74.0,1,36,12.0,100.0
4957,62.0,0,36,12.0,100.0
4958,50.0,0,60,4.0,100.0
4959,62.0,0,60,4.0,100.0
4960,55.0,1,60,13.0,100.0
4961,43.0,1,60,14.0,100.0
4962,50.0,2,60,15.0,83.0
4963,81.0,45,36,10.0,100.0
4964,86.0,1,36,0.0,99.0
4965,81.0,0,36,0.0,99.0
4966,81.0,1,36,11.0,100.0
4967,81.0,0,36,1.0,97.0
4968,74.0,2,36,1.0,97.0
4969,69.0,0,36,2.0,97.0
4970,74.0,2,36,2.0,97.0
4971,62.0,0,36,12.0,100.0
4972,74.0,1,36,12.0,100.0
4973,55.0,4,102,3.0,98.0
4974,81.0,53,36,10.0,100.0
4975,86.0,1,36,0.0,99.0
4976,81.0,0,36,0.0,99.0
4977,81.0,1,36,11.0,100.0
4978,81.0,0,36,1.0,97.0
4979,74.0,0,36,1.0,97.0
4980,69.0,0,36,2.0,97.0
4981,74.0,2,36,2.0,97.0
4982,74.0,0,36,12.0,100.0
4983,62.0,1,36,12.0,100.0
4984,62.0,2,60,4.0,100.0
4985,50.0,0,60,4.0,100.0
4986,46.0,1,60,13.0,100.0
4987,34.0,1,60,14.0,100.0
4988,50.0,2,60,15.0,83.0
4989,79.0,45,36,10.0,100.0
4990,86.0,1,36,0.0,99.0
4991,79.0,0,36,0.0,99.0
4992,79.0,1,36,11.0,100.0
4993,74.0,0,36,1.0,97.0
4994,79.0,2,36,1.0,97.0
4995,74.0,2,36,2.0,97.0
4996,67.0,0,36,2.0,97.0
4997,62.0,1,36,12.0,100.0
4998,74.0,0,36,12.0,100.0
4999,46.0,4,102,3.0,98.0
5000,73.0,2,36,1.0,103.0
5001,79.0,53,60,10.0,123.0
5002,79.0,1,60,11.0,123.0
5003,64.0,0,60,4.0,107.0
5004,57.0,0,60,4.0,107.0
5005,64.0,0,60,12.0,123.0
5006,73.0,1,60,12.0,123.0
5007,45.0,1,60,13.0,107.0
5008,79.0,0,72,0.0,106.0
5009,85.0,1,72,0.0,106.0
5010,33.0,1,60,14.0,107.0
5011,45.0,2,60,15.0,88.0
5012,79.0,0,72,1.0,103.0
5013,73.0,0,72,2.0,104.0
5014,67.0,2,72,2.0,104.0
5015,45.0,4,102,3.0,105.0
5016,57.0,113,60,13.0,100.0
5017,45.0,1,60,14.0,100.0
5018,45.0,2,60,15.0,83.0
5019,78.0,45,36,10.0,100.0
5020,78.0,1,36,0.0,99.0
5021,85.0,0,36,0.0,99.0
5022,78.0,1,36,11.0,100.0
5023,72.0,2,36,1.0,97.0
5024,78.0,0,36,1.0,97.0
5025,66.0,2,36,2.0,97.0
5026,73.0,0,36,2.0,97.0
5027,73.0,1,36,12.0,100.0
5028,57.0,0,39,4.0,100.0
5029,64.0,0,39,4.0,100.0
5030,64.0,0,36,12.0,100.0
5031,57.0,4,102,3.0,98.0
5032,78.0,53,36,10.0,100.0
5033,78.0,1,36,0.0,99.0
5034,85.0,0,36,0.0,99.0
5035,78.0,1,36,11.0,100.0
5036,78.0,0,36,1.0,97.0
5037,72.0,2,36,1.0,97.0
5038,73.0,2,36,2.0,97.0
5039,66.0,0,36,2.0,97.0
5040,73.0,0,36,12.0,100.0
5041,64.0,0,39,4.0,100.0
5042,57.0,0,39,4.0,100.0
5043,64.0,1,36,12.0,100.0
5044,79.0,53,36,10.0,100.0
5045,79.0,1,36,0.0,99.0
5046,86.0,0,36,0.0,99.0
5047,79.0,1,36,11.0,100.0
5048,74.0,2,36,1.0,97.0
5049,79.0,0,36,1.0,97.0
5050,74.0,2,36,2.0,97.0
5051,67.0,0,36,2.0,97.0
5052,73.0,0,36,12.0,100.0
5053,64.0,1,36,12.0,100.0
5054,57.0,0,39,4.0,100.0
5055,64.0,0,39,4.0,100.0
5056,79.0,53,60,10.0,123.0
5057,79.0,1,60,11.0,123.0
5058,62.0,0,60,4.0,107.0
5059,74.0,0,60,12.0,123.0
5060,62.0,1,60,12.0,123.0
5061,46.0,1,60,13.0,107.0
5062,79.0,1,72,0.0,106.0
5063,86.0,0,72,0.0,106.0
5064,34.0,1,60,14.0,107.0
5065,50.0,2,60,15.0,88.0
5066,74.0,0,72,1.0,103.0
5067,79.0,2,72,1.0,103.0
5068,67.0,2,72,2.0,104.0
5069,74.0,0,72,2.0,104.0
5070,46.0,4,102,3.0,105.0
5071,58.0,113,60,13.0,100.0
5072,46.0,1,60,14.0,100.0
5073,50.0,2,60,15.0,83.0
5074,76.0,45,36,10.0,100.0
5075,76.0,0,36,0.0,99.0
5076,86.0,1,36,0.0,99.0
5077,76.0,1,36,11.0,100.0
5078,74.0,2,36,1.0,97.0
5079,76.0,0,36,1.0,97.0
5080,74.0,2,36,2.0,97.0
5081,64.0,0,36,2.0,97.0
5082,62.0,1,36,12.0,100.0
5083,74.0,0,36,12.0,100.0
5084,62.0,0,39,4.0,100.0
5085,58.0,4,102,3.0,98.0
5086,76.0,53,36,10.0,100.0
5087,76.0,1,36,0.0,99.0
5088,86.0,0,36,0.0,99.0
5089,76.0,1,36,11.0,100.0
5090,74.0,0,36,1.0,97.0
5091,76.0,0,36,1.0,97.0
5092,64.0,2,36,2.0,97.0
5093,74.0,0,36,2.0,97.0
5094,62.0,2,39,4.0,100.0
5095,62.0,1,36,12.0,100.0
5096,74.0,0,36,12.0,100.0
5097,77.0,53,36,10.0,100.0
5098,86.0,0,36,0.0,99.0
5099,77.0,1,36,0.0,99.0
5100,77.0,1,36,11.0,100.0
5101,77.0,0,36,1.0,97.0
5102,74.0,0,36,1.0,97.0
5103,65.0,2,36,2.0,97.0
5104,74.0,0,36,2.0,97.0
5105,74.0,0,36,12.0,100.0
5106,62.0,1,36,12.0,100.0
5107,62.0,2,39,4.0,100.0
5108,77.0,53,60,10.0,123.0
5109,77.0,1,60,11.0,123.0
5110,67.0,2,60,4.0,107.0
5111,67.0,1,60,12.0,123.0
5112,70.0,0,60,12.0,123.0
5113,43.0,1,60,13.0,107.0
5114,77.0,1,72,0.0,106.0
5115,31.0,1,60,14.0,107.0
5116,82.0,0,72,0.0,106.0
5117,50.0,2,60,15.0,88.0
5118,70.0,0,72,1.0,103.0
5119,77.0,0,72,1.0,103.0
5120,65.0,0,72,2.0,104.0
5121,70.0,2,72,2.0,104.0
5122,43.0,4,102,3.0,105.0
5123,55.0,113,60,13.0,100.0
5124,43.0,1,60,14.0,100.0
5125,50.0,2,60,15.0,83.0
5126,74.0,45,36,10.0,100.0
5127,82.0,0,36,0.0,99.0
5128,86.0,1,36,0.0,99.0
5129,74.0,1,36,11.0,100.0
5130,74.0,0,36,1.0,97.0
5131,82.0,2,36,1.0,97.0
5132,70.0,2,36,2.0,97.0
5133,62.0,0,36,2.0,97.0
5134,67.0,1,36,12.0,100.0
5135,58.0,0,36,12.0,100.0
5136,67.0,0,39,4.0,100.0
5137,55.0,4,102,3.0,98.0
5138,74.0,53,36,10.0,100.0
5139,82.0,1,36,0.0,99.0
5140,86.0,0,36,0.0,99.0
5141,74.0,1,36,11.0,100.0
5142,74.0,0,36,1.0,97.0
5143,82.0,0,36,1.0,97.0
5144,70.0,2,36,2.0,97.0
5145,62.0,0,36,2.0,97.0
5146,67.0,0,36,12.0,100.0
5147,58.0,1,36,12.0,100.0
5148,67.0,2,39,4.0,100.0
5149,75.0,53,36,10.0,100.0
5150,87.0,1,36,0.0,99.0
5151,82.0,0,36,0.0,99.0
5152,75.0,1,36,11.0,100.0
5153,82.0,0,36,1.0,97.0
5154,75.0,0,36,1.0,97.0
5155,63.0,2,36,2.0,97.0
5156,70.0,0,36,2.0,97.0
5157,58.0,0,36,12.0,100.0
5158,67.0,2,39,4.0,100.0
5159,67.0,1,36,12.0,100.0
5160,75.0,53,60,10.0,123.0
5161,75.0,1,60,11.0,123.0
5162,67.0,0,60,4.0,107.0
5163,57.0,1,60,12.0,123.0
5164,67.0,0,60,12.0,123.0
5165,45.0,1,60,13.0,107.0
5166,79.0,0,72,0.0,106.0
5167,87.0,1,72,0.0,106.0
5168,33.0,1,60,14.0,107.0
5169,45.0,2,60,15.0,88.0
5170,79.0,0,72,1.0,103.0
5171,75.0,2,72,1.0,103.0
5172,63.0,2,72,2.0,104.0
5173,67.0,0,72,2.0,104.0
5174,45.0,4,102,3.0,105.0
5175,57.0,113,60,13.0,100.0
5176,45.0,1,60,14.0,100.0
5177,45.0,2,60,15.0,83.0
5178,73.0,45,36,10.0,100.0
5179,79.0,1,36,0.0,99.0
5180,85.0,0,36,0.0,99.0
5181,73.0,1,36,11.0,100.0
5182,79.0,2,36,1.0,97.0
5183,73.0,0,36,1.0,97.0
5184,67.0,0,36,2.0,97.0
5185,73.0,2,36,2.0,97.0
5186,57.0,0,39,4.0,100.0
5187,67.0,1,36,12.0,100.0
5188,57.0,0,36,12.0,100.0
5189,57.0,4,102,3.0,98.0
5190,73.0,53,36,10.0,100.0
5191,79.0,0,36,0.0,99.0
5192,85.0,1,36,0.0,99.0
5193,73.0,1,36,11.0,100.0
5194,79.0,2,36,1.0,97.0
5195,73.0,0,36,1.0,97.0
5196,73.0,2,36,2.0,97.0
5197,67.0,0,36,2.0,97.0
5198,57.0,0,36,12.0,100.0
5199,67.0,1,36,12.0,100.0
5200,57.0,0,39,4.0,100.0
5201,74.0,53,36,10.0,100.0
5202,86.0,0,36,0.0,99.0
5203,79.0,1,36,0.0,99.0
5204,74.0,1,36,11.0,100.0
5205,74.0,0,36,1.0,97.0
5206,79.0,2,36,1.0,97.0
5207,67.0,0,36,2.0,97.0
5208,74.0,2,36,2.0,97.0
5209,57.0,0,39,4.0,100.0
5210,67.0,1,36,12.0,100.0
5211,57.0,0,36,12.0,100.0
5212,74.0,53,60,10.0,127.0
5213,74.0,1,60,11.0,127.0
5214,67.0,1,60,12.0,123.0
5215,55.0,0,60,12.0,123.0
5216,46.0,1,60,13.0,107.0
5217,86.0,1,72,0.0,106.0
5218,79.0,0,72,0.0,106.0
5219,34.0,1,60,14.0,107.0
5220,50.0,2,60,15.0,88.0
5221,79.0,1,72,1.0,103.0
5222,74.0,0,72,1.0,103.0
5223,74.0,2,72,2.0,104.0
5224,67.0,0,72,2.0,104.0
5225,74.0,0,102,6.0,124.0
5226,62.0,1,102,6.0,124.0
5227,50.0,0,102,4.0,107.0
5228,62.0,0,102,4.0,107.0
5229,46.0,4,102,3.0,105.0
5230,82.0,105,60,10.0,100.0
5231,67.0,1,60,11.0,100.0
5232,74.0,1,60,6.0,117.0
5233,62.0,0,60,6.0,117.0
5234,50.0,1,60,4.0,100.0
5235,62.0,0,60,4.0,100.0
5236,62.0,0,60,5.0,100.0
5237,50.0,2,60,5.0,100.0
5238,82.0,1,72,0.0,99.0
5239,50.0,9,60,15.0,83.0
5240,82.0,0,72,1.0,97.0
5241,67.0,0,72,2.0,97.0
5242,70.0,0,72,2.0,97.0
5243,62.0,4,31,3.0,98.0
5244,74.0,52,36,12.0,100.0
5245,62.0,1,36,13.0,100.0
5246,50.0,1,36,14.0,100.0
5247,62.0,4,31,3.0,98.0
5248,74.0,1,36,12.0,100.0
5249,62.0,1,36,13.0,100.0
5250,50.0,1,36,14.0,100.0
5251,79.0,47,60,10.0,100.0
5252,70.0,1,60,11.0,100.0
5253,62.0,1,60,6.0,117.0
5254,74.0,0,60,6.0,117.0
5255,50.0,1,60,4.0,100.0
5256,62.0,0,60,4.0,100.0
5257,62.0,0,60,5.0,100.0
5258,50.0,0,60,5.0,100.0
5259,79.0,1,72,0.0,99.0
5260,50.0,2,60,15.0,83.0
5261,79.0,0,72,1.0,97.0
5262,74.0,0,72,2.0,97.0
5263,70.0,2,72,2.0,97.0
5264,60.0,4,31,3.0,98.0
5265,72.0,52,36,12.0,100.0
5266,60.0,1,36,13.0,100.0
5267,48.0,1,36,14.0,100.0
5268,72.0,1,36,12.0,100.0
5269,60.0,4,31,3.0,98.0
5270,60.0,1,36,13.0,100.0
5271,48.0,1,36,14.0,100.0
5272,86.0,47,60,10.0,110.0
5273,70.0,1,60,11.0,110.0
5274,74.0,0,60,6.0,117.0
5275,62.0,1,60,6.0,117.0
5276,50.0,0,60,4.0,100.0
5277,62.0,0,60,4.0,100.0
5278,62.0,0,60,5.0,100.0
5279,50.0,0,60,5.0,100.0
5280,86.0,1,72,0.0,99.0
5281,50.0,2,60,15.0,83.0
5282,74.0,1,72,1.0,97.0
5283,70.0,0,72,2.0,97.0
5284,74.0,2,72,2.0,97.0
5285,70.0,52,36,12.0,100.0
5286,58.0,4,31,3.0,98.0
5287,58.0,1,36,13.0,100.0
5288,46.0,1,36,14.0,100.0
5289,70.0,1,36,12.0,100.0
5290,58.0,4,31,3.0,98.0
5291,58.0,1,36,13.0,100.0
5292,46.0,1,36,14.0,100.0
5293,82.0,47,60,10.0,100.0
5294,74.0,1,60,11.0,100.0
5295,74.0,1,60,6.0,117.0
5296,62.0,0,60,6.0,117.0
5297,50.0,0,60,4.0,100.0
5298,62.0,1,60,4.0,100.0
5299,62.0,0,60,5.0,100.0
5300,50.0,0,60,5.0,100.0
5301,82.0,1,72,0.0,99.0
5302,50.0,2,60,15.0,83.0
5303,70.0,0,72,1.0,97.0
5304,74.0,0,72,2.0,97.0
5305,79.0,2,72,2.0,97.0
5306,57.0,4,31,3.0,98.0
5307,69.0,52,36,12.0,100.0
5308,57.0,1,36,13.0,100.0
5309,45.0,1,36,14.0,100.0
5310,69.0,1,36,12.0,100.0
5311,57.0,4,31,3.0,98.0
5312,57.0,1,36,13.0,100.0
5313,45.0,1,36,14.0,100.0
5314,94.0,47,60,10.0,115.0
5315,74.0,0,60,11.0,100.0
5316,62.0,1,60,11.0,100.0
5317,74.0,0,60,6.0,117.0
5318,62.0,1,60,6.0,117.0
5319,62.0,0,60,4.0,100.0
5320,50.0,0,60,4.0,100.0
5321,50.0,0,60,5.0,100.0
5322,62.0,0,60,5.0,100.0
5323,94.0,1,72,0.0,99.0
5324,86.0,0,72,0.0,99.0
5325,50.0,2,60,15.0,83.0
5326,74.0,1,72,1.0,97.0
5327,70.0,0,72,1.0,97.0
5328,79.0,2,72,2.0,97.0
5329,70.0,0,72,2.0,97.0
5330,55.0,4,31,3.0,98.0
5331,67.0,52,36,12.0,100.0
5332,55.0,1,36,13.0,100.0
5333,43.0,1,36,14.0,100.0
5334,93.0,47,60,10.0,127.0
5335,64.0,0,60,11.0,117.0
5336,73.0,1,60,11.0,117.0
5337,76.0,0,60,6.0,117.0
5338,69.0,1,60,6.0,117.0
5339,57.0,0,60,4.0,100.0
5340,64.0,0,60,4.0,100.0
5341,67.0,1,60,12.0,100.0
5342,55.0,1,60,13.0,100.0
5343,43.0,1,60,14.0,100.0
5344,45.0,2,60,15.0,83.0
5345,81.0,105,60,10.0,100.0
5346,64.0,2,60,11.0,100.0
5347,73.0,0,60,11.0,100.0
5348,76.0,1,60,6.0,117.0
5349,69.0,0,60,6.0,117.0
5350,64.0,1,60,4.0,100.0
5351,57.0,0,60,4.0,100.0
5352,45.0,11,60,15.0,83.0
5353,66.0,52,36,12.0,100.0
5354,54.0,1,36,13.0,100.0
5355,42.0,5,36,14.0,100.0
5356,66.0,54,36,12.0,100.0
5357,54.0,1,36,13.0,100.0
5358,42.0,5,36,14.0,100.0
5359,67.0,54,36,12.0,100.0
5360,55.0,1,36,13.0,100.0
5361,43.0,5,36,14.0,100.0
5362,85.0,0,360,0.0,99.0
5363,93.0,1,360,0.0,99.0
5364,69.0,1,360,1.0,97.0
5365,73.0,0,360,1.0,97.0
5366,61.0,0,360,5.0,100.0
5367,49.0,2,360,5.0,100.0
5368,81.0,0,360,2.0,97.0
5369,73.0,0,360,2.0,97.0
5370,49.0,4,360,3.0,98.0
5371,57.0,0,360,3.0,98.0
5372,94.0,47,60,10.0,127.0
5373,74.0,1,60,11.0,117.0
5374,62.0,0,60,11.0,117.0
5375,74.0,1,60,6.0,117.0
5376,62.0,1,60,4.0,100.0
5377,67.0,1,60,12.0,100.0
5378,55.0,1,60,13.0,100.0
5379,43.0,1,60,14.0,100.0
5380,50.0,2,60,15.0,83.0
5381,82.0,105,60,10.0,100.0
5382,74.0,0,60,11.0,100.0
5383,62.0,2,60,11.0,100.0
5384,74.0,1,60,6.0,117.0
5385,62.0,1,60,4.0,100.0
5386,50.0,11,60,15.0,83.0
5387,64.0,52,36,12.0,100.0
5388,52.0,1,36,13.0,100.0
5389,40.0,5,36,14.0,100.0
5390,64.0,54,36,12.0,100.0
5391,52.0,1,36,13.0,100.0
5392,40.0,5,36,14.0,100.0
5393,65.0,54,36,12.0,100.0
5394,53.0,1,36,13.0,100.0
5395,41.0,5,36,14.0,100.0
5396,94.0,1,360,0.0,99.0
5397,70.0,0,360,1.0,97.0
5398,82.0,0,360,2.0,97.0
5399,58.0,0,360,3.0,98.0
5400,93.0,47,60,10.0,127.0
5401,74.0,0,60,11.0,117.0
5402,62.0,1,60,11.0,117.0
5403,74.0,1,60,6.0,117.0
5404,62.0,1,60,4.0,100.0
5405,65.0,1,60,12.0,100.0
5406,53.0,1,60,13.0,100.0
5407,41.0,1,60,14.0,100.0
5408,50.0,2,60,15.0,83.0
5409,81.0,105,60,10.0,100.0
5410,74.0,2,60,11.0,100.0
5411,62.0,0,60,11.0,100.0
5412,74.0,1,60,6.0,117.0
5413,62.0,1,60,4.0,100.0
5414,50.0,11,60,15.0,83.0
5415,62.0,52,36,12.0,100.0
5416,50.0,1,36,13.0,100.0
5417,38.0,5,36,14.0,100.0
5418,62.0,54,36,12.0,100.0
5419,50.0,1,36,13.0,100.0
5420,38.0,5,36,14.0,100.0
5421,63.0,54,36,12.0,100.0
5422,51.0,1,36,13.0,100.0
5423,39.0,5,36,14.0,100.0
5424,86.0,0,720,0.0,99.0
5425,93.0,1,360,0.0,99.0
5426,74.0,0,720,1.0,97.0
5427,69.0,0,360,1.0,97.0
5428,81.0,2,360,2.0,97.0
5429,62.0,2,720,5.0,100.0
5430,50.0,0,720,5.0,100.0
5431,74.0,0,720,2.0,97.0
5432,50.0,4,720,3.0,98.0
5433,57.0,4,360,3.0,98.0
5434,91.0,47,60,10.0,127.0
5435,82.0,1,60,11.0,117.0
5436,70.0,0,60,11.0,117.0
5437,79.0,1,60,6.0,117.0
5438,67.0,0,60,4.0,100.0
5439,63.0,1,60,12.0,100.0
5440,51.0,1,60,13.0,100.0
5441,39.0,1,60,14.0,100.0
5442,45.0,2,60,15.0,83.0
5443,79.0,105,60,10.0,100.0
5444,70.0,2,60,11.0,100.0
5445,82.0,0,60,11.0,100.0
5446,79.0,1,60,6.0,117.0
5447,67.0,1,60,4.0,100.0
5448,45.0,11,60,15.0,83.0
5449,61.0,52,36,12.0,100.0
5450,49.0,1,36,13.0,100.0
5451,37.0,5,36,14.0,100.0
5452,61.0,54,36,12.0,100.0
5453,49.0,1,36,13.0,100.0
5454,37.0,5,36,14.0,100.0
5455,62.0,54,36,12.0,100.0
5456,50.0,1,36,13.0,100.0
5457,38.0,5,36,14.0,100.0
5458,82.0,1,360,0.0,99.0
5459,91.0,0,360,0.0,99.0
5460,70.0,1,360,1.0,97.0
5461,67.0,0,360,1.0,97.0
5462,58.0,2,360,5.0,100.0
5463,70.0,0,360,2.0,97.0
5464,79.0,0,360,2.0,97.0
5465,46.0,0,360,3.0,98.0
5466,55.0,4,360,3.0,98.0
5467,90.0,47,30,10.0,127.0
5468,81.0,0,30,0.0,99.0
5469,90.0,1,30,0.0,114.0
5470,81.0,1,30,11.0,110.0
5471,69.0,0,30,11.0,110.0
5472,66.0,1,30,1.0,112.0
5473,69.0,0,30,1.0,112.0
5474,78.0,0,30,2.0,112.0
5475,69.0,0,30,2.0,112.0
5476,50.0,1,60,12.0,100.0
5477,50.0,1,60,13.0,100.0
5478,50.0,0,60,3.0,98.0
5479,54.0,4,60,3.0,98.0
5480,38.0,1,60,14.0,100.0
5481,50.0,2,60,15.0,83.0
5482,81.0,45,30,10.0,100.0
5483,81.0,1,30,0.0,99.0
5484,69.0,1,30,11.0,100.0
5485,69.0,2,30,1.0,97.0
5486,69.0,2,30,2.0,97.0
5487,78.0,1,105,6.0,117.0
5488,66.0,0,105,4.0,100.0
5489,45.0,2,60,13.0,100.0
5490,45.0,4,60,3.0,98.0
5491,33.0,1,60,14.0,100.0
5492,50.0,2,60,15.0,83.0
5493,49.0,52,36,12.0,100.0
5494,49.0,5,36,3.0,98.0
5495,49.0,55,36,12.0,100.0
5496,49.0,0,36,3.0,98.0
5497,42.0,1,60,13.0,100.0
5498,42.0,4,60,3.0,98.0
5499,30.0,1,60,14.0,100.0
5500,50.0,2,60,15.0,83.0
5501,50.0,52,36,12.0,100.0
5502,50.0,5,36,3.0,98.0
5503,50.0,55,60,12.0,100.0
5504,54.0,1,60,13.0,100.0
5505,54.0,4,60,3.0,98.0
5506,50.0,0,60,3.0,98.0
5507,42.0,1,60,14.0,100.0
5508,50.0,2,60,15.0,83.0
5509,86.0,54,405,10.0,100.0
5510,86.0,1,405,0.0,99.0
5511,74.0,1,405,11.0,100.0
5512,74.0,0,405,1.0,97.0
5513,78.0,0,405,1.0,97.0
5514,66.0,0,405,2.0,97.0
5515,50.0,2,36,15.0,83.0
5516,74.0,2,405,2.0,97.0
5517,81.0,45,30,10.0,100.0
5518,81.0,1,30,0.0,99.0
5519,69.0,1,30,11.0,100.0
5520,69.0,2,30,1.0,97.0
5521,69.0,2,30,2.0,97.0
5522,61.0,1,36,12.0,100.0
5523,61.0,5,36,3.0,98.0
5524,66.0,1,465,6.0,117.0
5525,74.0,0,465,6.0,117.0
5526,54.0,1,465,4.0,100.0
5527,62.0,0,465,4.0,100.0
5528,45.0,3,36,15.0,83.0
5529,62.0,2,585,5.0,100.0
5530,88.0,45,30,10.0,100.0
5531,88.0,1,30,0.0,99.0
5532,76.0,1,30,11.0,100.0
5533,76.0,1,30,1.0,97.0
5534,79.0,0,30,1.0,97.0
5535,76.0,0,30,2.0,97.0
5536,67.0,2,30,2.0,97.0
5537,61.0,1,36,12.0,100.0
5538,61.0,5,36,3.0,98.0
5539,45.0,3,36,15.0,83.0
5540,81.0,45,30,10.0,100.0
5541,81.0,1,30,0.0,99.0
5542,69.0,1,30,11.0,100.0
5543,69.0,2,30,1.0,97.0
5544,69.0,2,30,2.0,97.0
5545,62.0,1,36,12.0,100.0
5546,69.0,0,105,6.0,117.0
5547,76.0,1,105,6.0,117.0
5548,62.0,5,36,3.0,98.0
5549,64.0,0,105,4.0,100.0
5550,57.0,0,105,4.0,100.0
5551,45.0,3,36,15.0,83.0
5552,61.0,0,105,5.0,100.0
5553,57.0,113,240,13.0,127.0
5554,57.0,4,240,3.0,125.0
5555,45.0,1,240,14.0,127.0
5556,86.0,45,30,10.0,100.0
5557,86.0,1,30,0.0,99.0
5558,74.0,1,30,11.0,100.0
5559,78.0,1,30,1.0,97.0
5560,74.0,0,30,1.0,97.0
5561,66.0,0,30,2.0,97.0
5562,74.0,0,30,2.0,97.0
5563,62.0,1,60,12.0,100.0
5564,50.0,1,60,13.0,100.0
5565,50.0,0,60,3.0,98.0
5566,62.0,4,60,3.0,98.0
5567,38.0,1,60,14.0,100.0
5568,50.0,2,60,15.0,83.0
5569,81.0,45,30,10.0,100.0
5570,81.0,1,30,0.0,99.0
5571,69.0,1,30,11.0,100.0
5572,69.0,2,30,1.0,97.0
5573,69.0,2,30,2.0,97.0
5574,74.0,1,105,6.0,117.0
5575,66.0,0,105,6.0,117.0
5576,54.0,0,105,4.0,100.0
5577,62.0,0,105,4.0,100.0
5578,45.0,2,60,13.0,100.0
5579,45.0,4,60,3.0,98.0
5580,33.0,1,60,14.0,100.0
5581,50.0,2,60,15.0,83.0
5582,49.0,52,36,12.0,100.0
5583,49.0,5,36,3.0,98.0
5584,49.0,55,36,12.0,100.0
5585,49.0,4,36,3.0,98.0
5586,42.0,1,60,13.0,100.0
5587,42.0,0,60,3.0,98.0
5588,30.0,1,60,14.0,100.0
5589,50.0,2,60,15.0,83.0
5590,50.0,52,36,12.0,100.0
5591,50.0,5,36,3.0,98.0
5592,50.0,55,60,12.0,100.0
5593,54.0,1,60,13.0,100.0
5594,50.0,4,60,3.0,98.0
5595,54.0,0,60,3.0,98.0
5596,42.0,1,60,14.0,100.0
5597,50.0,2,60,15.0,83.0
5598,86.0,54,405,10.0,100.0
5599,86.0,1,405,0.0,99.0
5600,74.0,1,405,11.0,100.0
5601,74.0,0,405,1.0,97.0
5602,78.0,1,405,1.0,97.0
5603,66.0,0,405,2.0,97.0
5604,50.0,2,36,15.0,83.0
5605,74.0,2,405,2.0,97.0
5606,81.0,45,30,10.0,100.0
5607,81.0,1,30,0.0,99.0
5608,69.0,1,30,11.0,100.0
5609,69.0,2,30,1.0,97.0
5610,69.0,2,30,2.0,97.0
5611,61.0,1,36,12.0,100.0
5612,74.0,0,465,6.0,117.0
5613,66.0,1,465,6.0,117.0
5614,61.0,5,36,3.0,98.0
5615,62.0,0,465,4.0,100.0
5616,54.0,0,465,4.0,100.0
5617,45.0,3,36,15.0,83.0
5618,62.0,2,585,5.0,100.0
5619,88.0,45,30,10.0,100.0
5620,88.0,1,30,0.0,99.0
5621,76.0,1,30,11.0,100.0
5622,76.0,0,30,1.0,97.0
5623,79.0,0,30,1.0,97.0
5624,67.0,2,30,2.0,97.0
5625,76.0,0,30,2.0,97.0
5626,61.0,1,36,12.0,100.0
5627,61.0,5,36,3.0,98.0
5628,45.0,3,36,15.0,83.0
5629,81.0,45,30,10.0,100.0
5630,81.0,1,30,0.0,99.0
5631,69.0,1,30,11.0,100.0
5632,69.0,2,30,1.0,97.0
5633,69.0,2,30,2.0,97.0
5634,62.0,1,36,12.0,100.0
5635,76.0,0,105,6.0,117.0
5636,69.0,1,105,6.0,117.0
5637,62.0,5,36,3.0,98.0
5638,64.0,1,105,4.0,100.0
5639,57.0,0,105,4.0,100.0
5640,45.0,3,36,15.0,83.0
5641,61.0,0,105,5.0,100.0
5642,57.0,113,240,13.0,127.0
5643,57.0,4,240,3.0,125.0
5644,45.0,1,240,14.0,127.0
5645,86.0,45,30,10.0,100.0
5646,86.0,1,30,0.0,99.0
5647,74.0,1,30,11.0,100.0
5648,74.0,0,30,1.0,97.0
5649,78.0,0,30,1.0,97.0
5650,66.0,0,30,2.0,97.0
5651,74.0,0,30,2.0,97.0
5652,62.0,1,60,12.0,100.0
5653,50.0,1,60,13.0,100.0
5654,50.0,0,60,3.0,98.0
5655,62.0,4,60,3.0,98.0
5656,50.0,1,60,14.0,100.0
5657,50.0,2,60,15.0,83.0
5658,81.0,45,30,10.0,100.0
5659,81.0,1,30,0.0,99.0
5660,69.0,1,30,11.0,100.0
5661,69.0,2,30,1.0,97.0
5662,69.0,2,30,2.0,97.0
5663,62.0,1,105,6.0,117.0
5664,74.0,0,105,6.0,117.0
5665,62.0,1,105,4.0,100.0
5666,50.0,0,105,4.0,100.0
5667,45.0,2,60,13.0,100.0
5668,45.0,4,60,3.0,98.0
5669,45.0,1,60,14.0,100.0
5670,50.0,2,60,15.0,83.0
5671,61.0,52,36,12.0,100.0
5672,61.0,5,36,3.0,98.0
5673,61.0,55,36,12.0,100.0
5674,61.0,0,36,3.0,98.0
5675,42.0,1,60,13.0,100.0
5676,42.0,4,60,3.0,98.0
5677,42.0,1,60,14.0,100.0
5678,50.0,2,60,15.0,83.0
5679,62.0,52,36,12.0,100.0
5680,74.0,0,225,6.0,117.0
5681,62.0,1,225,6.0,117.0
5682,62.0,5,36,3.0,98.0
5683,62.0,0,225,4.0,100.0
5684,50.0,1,225,4.0,100.0
5685,62.0,2,345,5.0,100.0
5686,86.0,54,285,10.0,100.0
5687,86.0,1,285,0.0,99.0
5688,74.0,1,285,11.0,100.0
5689,74.0,0,285,1.0,97.0
5690,78.0,0,285,1.0,97.0
5691,74.0,2,285,2.0,97.0
5692,66.0,0,285,2.0,97.0
5693,62.0,1,60,12.0,100.0
5694,50.0,1,60,13.0,100.0
5695,62.0,4,60,3.0,98.0
5696,50.0,0,60,3.0,98.0
5697,50.0,1,60,14.0,100.0
5698,50.0,2,60,15.0,83.0
5699,79.0,45,30,10.0,96.0
5700,79.0,1,30,0.0,96.0
5701,67.0,1,30,11.0,96.0
5702,67.0,2,30,1.0,94.0
5703,67.0,2,30,2.0,94.0
5704,62.0,51,105,6.0,117.0
5705,74.0,0,105,6.0,117.0
5706,50.0,1,105,4.0,100.0
5707,62.0,0,105,4.0,100.0
5708,46.0,2,60,13.0,96.0
5709,46.0,4,60,3.0,95.0
5710,46.0,1,60,14.0,96.0
5711,50.0,2,60,15.0,79.0
5712,61.0,52,36,12.0,94.0
5713,61.0,5,36,3.0,94.0
5714,61.0,55,36,12.0,94.0
5715,61.0,0,36,3.0,94.0
5716,43.0,1,60,13.0,94.0
5717,43.0,4,60,3.0,94.0
5718,43.0,1,60,14.0,94.0
5719,50.0,2,60,15.0,79.0
5720,62.0,52,36,12.0,94.0
5721,62.0,5,36,3.0,93.0
5722,62.0,1,225,6.0,112.0
5723,74.0,0,225,6.0,112.0
5724,62.0,1,225,4.0,97.0
5725,50.0,0,225,4.0,97.0
5726,58.0,2,345,5.0,100.0
5727,86.0,54,285,10.0,96.0
5728,86.0,1,285,0.0,96.0
5729,74.0,1,285,11.0,96.0
5730,74.0,0,285,1.0,94.0
5731,79.0,0,285,1.0,94.0
5732,74.0,2,285,2.0,94.0
5733,67.0,0,285,2.0,94.0
5734,62.0,1,60,12.0,81.0
5735,50.0,2,60,15.0,56.0
5736,74.0,45,30,10.0,90.0
5737,74.0,1,30,0.0,91.0
5738,62.0,1,30,11.0,90.0
5739,62.0,2,30,1.0,89.0
5740,74.0,0,30,1.0,89.0
5741,66.0,0,30,2.0,89.0
5742,62.0,2,30,2.0,89.0
5743,74.0,0,120,6.0,110.0
5744,62.0,51,120,6.0,110.0
5745,50.0,0,120,4.0,84.0
5746,62.0,1,120,4.0,84.0
5747,50.0,1,120,13.0,81.0
5748,62.0,0,120,3.0,82.0
5749,46.0,4,120,3.0,82.0
5750,50.0,1,120,14.0,81.0
5751,61.0,54,36,12.0,86.0
5752,62.0,2,240,5.0,84.0
5753,45.0,2,120,13.0,86.0
5754,45.0,4,120,3.0,86.0
5755,45.0,1,120,14.0,86.0
5756,61.0,60,36,12.0,86.0
5757,62.0,54,36,12.0,86.0
5758,38.0,1,105,13.0,86.0
5759,38.0,1,105,14.0,86.0
5760,78.0,0,240,1.0,86.0
5761,66.0,0,240,2.0,85.0
5762,74.0,2,240,2.0,85.0
5763,38.0,4,120,3.0,86.0
5764,62.0,3,60,12.0,86.0
5765,50.0,2,60,15.0,49.0
5766,72.0,51,36,2.0,78.0
5767,69.0,0,36,2.0,78.0
5768,57.0,6,36,3.0,79.0
5769,60.0,0,36,3.0,79.0
5770,62.0,56,120,6.0,90.0
5771,74.0,0,120,6.0,90.0
5772,62.0,0,120,4.0,75.0
5773,50.0,1,120,4.0,75.0
5774,50.0,1,120,13.0,86.0
5775,50.0,5,120,14.0,86.0
5776,72.0,54,36,2.0,78.0
5777,69.0,0,36,2.0,78.0
5778,60.0,4,36,3.0,79.0
5779,57.0,0,36,3.0,79.0
5780,70.0,0,36,2.0,77.0
5781,67.0,53,36,2.0,77.0
5782,49.0,1,36,12.0,84.0
5783,58.0,0,36,3.0,78.0
5784,55.0,5,36,3.0,78.0
5785,45.0,2,120,13.0,86.0
5786,45.0,1,120,14.0,86.0
5787,70.0,0,36,2.0,77.0
5788,67.0,54,36,2.0,77.0
5789,49.0,1,36,12.0,84.0
5790,58.0,4,36,3.0,78.0
5791,55.0,0,36,3.0,78.0
5792,69.0,53,36,2.0,77.0
5793,66.0,0,36,2.0,77.0
5794,50.0,1,36,12.0,84.0
5795,57.0,0,36,3.0,78.0
5796,54.0,5,36,3.0,78.0
5797,38.0,1,105,13.0,84.0
5798,38.0,1,105,14.0,84.0
5799,86.0,54,600,10.0,79.0
5800,86.0,1,600,0.0,87.0
5801,74.0,1,600,11.0,79.0
5802,74.0,2,600,1.0,86.0
5803,50.0,1,60,12.0,84.0
5804,50.0,2,60,15.0,49.0
5805,69.0,2,72,2.0,77.0
5806,66.0,0,72,2.0,77.0
5807,54.0,0,72,3.0,78.0
5808,57.0,4,72,3.0,78.0
5809,62.0,45,45,10.0,83.0
5810,74.0,1,45,0.0,85.0
5811,62.0,1,45,11.0,83.0
5812,62.0,2,45,1.0,83.0
5813,74.0,0,45,1.0,83.0
5814,74.0,51,120,6.0,90.0
5815,62.0,0,120,6.0,90.0
5816,62.0,1,120,4.0,74.0
5817,50.0,0,120,4.0,74.0
5818,50.0,1,120,13.0,84.0
5819,50.0,1,120,14.0,84.0
5820,61.0,54,36,12.0,83.0
5821,45.0,4,120,13.0,83.0
5822,45.0,5,120,14.0,83.0
5823,61.0,60,36,12.0,83.0
5824,62.0,54,36,12.0,83.0
5825,38.0,1,105,13.0,83.0
5826,38.0,5,105,14.0,83.0
5827,62.0,3,60,12.0,83.0
5828,50.0,2,60,15.0,45.0
5829,60.0,0,36,3.0,83.0
5830,57.0,57,36,3.0,83.0
5831,74.0,56,120,6.0,90.0
5832,62.0,0,120,6.0,90.0
5833,50.0,1,120,4.0,73.0
5834,62.0,0,120,4.0,73.0
5835,50.0,1,120,13.0,83.0
5836,50.0,5,120,14.0,83.0
5837,60.0,4,36,3.0,83.0
5838,57.0,0,36,3.0,83.0
5839,49.0,54,36,12.0,83.0
5840,58.0,5,36,3.0,83.0
5841,55.0,0,36,3.0,83.0
5842,74.0,56,480,10.0,83.0
5843,74.0,1,480,11.0,83.0
5844,45.0,56,120,13.0,83.0
5845,45.0,1,120,14.0,83.0
5846,49.0,55,36,12.0,83.0
5847,55.0,0,36,3.0,83.0
5848,58.0,4,36,3.0,83.0
5849,50.0,54,36,12.0,83.0
5850,54.0,5,36,3.0,83.0
5851,57.0,0,36,3.0,83.0
5852,38.0,1,105,13.0,83.0
5853,38.0,1,105,14.0,83.0
5854,74.0,1,600,0.0,85.0
5855,66.0,0,600,1.0,83.0
5856,74.0,2,600,1.0,83.0
5857,50.0,3,60,12.0,83.0
5858,50.0,3,60,15.0,42.0
5859,57.0,4,72,3.0,83.0
5860,54.0,0,72,3.0,83.0
5861,74.0,51,120,6.0,90.0
5862,62.0,0,120,6.0,90.0
5863,50.0,0,120,4.0,73.0
5864,62.0,1,120,4.0,73.0
5865,50.0,1,120,13.0,83.0
5866,49.0,59,36,12.0,81.0
5867,55.0,0,36,3.0,82.0
5868,58.0,5,36,3.0,82.0
5869,62.0,105,120,10.0,74.0
5870,62.0,1,120,11.0,74.0
5871,45.0,6,120,13.0,81.0
5872,49.0,55,36,12.0,81.0
5873,58.0,4,36,3.0,82.0
5874,55.0,0,36,3.0,82.0
5875,50.0,55,36,12.0,81.0
5876,54.0,5,36,3.0,82.0
5877,57.0,0,36,3.0,82.0
5878,38.0,1,105,13.0,81.0
5879,62.0,0,240,0.0,83.0
5880,74.0,1,240,0.0,83.0
5881,50.0,3,60,12.0,80.0
5882,50.0,3,60,15.0,38.0
5883,54.0,0,72,3.0,81.0
5884,57.0,4,72,3.0,81.0
5885,62.0,51,120,6.0,90.0
5886,74.0,0,120,6.0,90.0
5887,50.0,0,120,4.0,71.0
5888,62.0,1,120,4.0,71.0
5889,50.0,1,120,13.0,80.0
5890,49.0,59,36,12.0,80.0
5891,55.0,0,36,3.0,81.0
5892,58.0,5,36,3.0,81.0
5893,62.0,105,120,10.0,60.0
5894,62.0,1,120,11.0,60.0
5895,45.0,6,120,13.0,80.0
5896,49.0,55,36,12.0,79.0
5897,58.0,0,36,3.0,80.0
5898,55.0,4,36,3.0,80.0
5899,50.0,55,36,12.0,79.0
5900,54.0,5,36,3.0,80.0
5901,57.0,0,36,3.0,80.0
5902,38.0,1,105,13.0,79.0
5903,62.0,0,0,0.0,81.0
5904,74.0,49,0,0.0,81.0
5905,50.0,3,60,15.0,36.0
5906,54.0,4,72,3.0,80.0
5907,57.0,0,72,3.0,80.0
5908,62.0,0,120,6.0,90.0
5909,74.0,2,120,6.0,90.0
5910,62.0,0,120,4.0,70.0
5911,50.0,1,120,4.0,70.0
5912,50.0,3,120,12.0,79.0
5913,50.0,1,120,13.0,79.0
5914,62.0,105,120,10.0,54.0
5915,62.0,2,120,11.0,54.0
5916,49.0,5,120,12.0,79.0
5917,45.0,1,120,13.0,79.0
5918,55.0,4,120,3.0,80.0
5919,58.0,0,120,3.0,80.0
5920,38.0,1,105,13.0,79.0
5921,50.0,115,120,12.0,79.0
5922,54.0,0,120,3.0,80.0
5923,57.0,4,120,3.0,80.0
5924,50.0,3,60,15.0,33.0
5925,74.0,0,120,6.0,90.0
5926,62.0,111,120,6.0,90.0
5927,50.0,1,120,4.0,70.0
5928,62.0,0,120,4.0,70.0
5929,49.0,3,120,12.0,77.0
5930,50.0,1,120,13.0,77.0
5931,55.0,0,120,3.0,79.0
5932,58.0,4,120,3.0,79.0
5933,50.0,112,120,12.0,77.0
5934,45.0,1,120,13.0,77.0
5935,57.0,4,120,3.0,79.0
5936,54.0,0,120,3.0,79.0
5937,38.0,1,105,13.0,77.0
5938,49.0,115,120,12.0,77.0
5939,55.0,4,120,3.0,79.0
5940,58.0,0,120,3.0,79.0
5941,50.0,3,60,15.0,33.0
5942,54.0,0,102,3.0,78.0
5943,57.0,4,102,3.0,78.0
5944,62.0,108,120,10.0,38.0
5945,62.0,2,120,11.0,38.0
5946,62.0,0,120,6.0,90.0
5947,74.0,1,120,6.0,90.0
5948,50.0,4,120,12.0,77.0
5949,50.0,1,120,13.0,77.0
5950,45.0,113,120,13.0,77.0
5951,38.0,120,105,13.0,76.0
5952,50.0,3,60,15.0,30.0
5953,57.0,4,102,3.0,77.0
5954,54.0,0,102,3.0,77.0
5955,62.0,115,120,6.0,81.0
5956,50.0,4,120,12.0,76.0
5957,50.0,1,120,13.0,76.0
5958,45.0,113,120,13.0,76.0
5959,38.0,120,105,13.0,76.0
5960,50.0,7,60,15.0,30.0
5961,62.0,112,120,10.0,35.0
5962,62.0,2,120,11.0,35.0
5963,62.0,1,120,6.0,81.0
5964,50.0,5,120,13.0,74.0
5965,45.0,113,120,13.0,74.0
5966,38.0,120,105,13.0,73.0
5967,50.0,3,60,15.0,28.0
5968,57.0,0,102,3.0,75.0
5969,54.0,4,102,3.0,75.0
5970,62.0,115,120,6.0,81.0
5971,50.0,4,120,12.0,73.0
5972,50.0,1,120,13.0,73.0
5973,45.0,113,120,13.0,72.0
5974,38.0,120,105,13.0,72.0
5975,50.0,7,60,15.0,29.0
5976,62.0,1,120,6.0,91.0
5977,57.0,3,120,8.0,35.0
5978,50.0,2,120,8.0,47.0
5979,77.0,1,180,7.0,66.0
5980,74.0,0,180,7.0,41.0
5981,45.0,108,105,8.0,49.0
5982,76.0,57,50,7.0,50.0
5983,73.0,0,50,7.0,40.0
5984,69.0,113,230,7.0,41.0
5985,76.0,1,60,7.0,60.0
5986,73.0,3,60,7.0,49.0
5987,77.0,51,50,7.0,63.0
5988,69.0,59,110,7.0,48.0
5989,74.0,4,50,7.0,55.0
5990,38.0,2,105,8.0,44.0
5991,74.0,58,60,7.0,60.0
5992,77.0,1,60,7.0,73.0
5993,50.0,3,60,15.0,29.0
5994,69.0,0,110,7.0,56.0
5995,79.0,45,50,7.0,68.0
5996,76.0,3,50,7.0,59.0
5997,62.0,4,120,6.0,91.0
5998,50.0,7,120,8.0,57.0
5999,57.0,2,120,8.0,57.0
6000,79.0,55,60,7.0,75.0
6001,76.0,52,6,7.0,72.0
6002,45.0,1,105,8.0,51.0
6003,69.0,1,110,7.0,59.0
6004,73.0,7,50,7.0,59.0
6005,76.0,52,60,7.0,75.0
6006,73.0,3,60,7.0,65.0
6007,38.0,1,105,8.0,51.0
6008,77.0,56,50,7.0,67.0
6009,69.0,3,110,7.0,59.0
6010,74.0,5,50,7.0,59.0
6011,50.0,8,120,8.0,51.0
6012,57.0,1,120,8.0,51.0
6013,77.0,58,180,7.0,68.0
6014,74.0,2,180,7.0,59.0
6015,73.0,52,50,7.0,55.0
6016,45.0,112,105,8.0,49.0
6017,64.0,7,50,7.0,48.0
6018,69.0,0,230,7.0,55.0
6019,64.0,55,60,7.0,56.0
6020,73.0,2,60,7.0,65.0
6021,74.0,53,50,7.0,60.0
6022,38.0,2,105,8.0,44.0
6023,65.0,6,50,7.0,51.0
6024,65.0,0,60,7.0,60.0
6025,74.0,59,60,7.0,73.0
6026,50.0,1,60,15.0,29.0
6027,76.0,42,50,7.0,68.0
6028,67.0,6,50,7.0,59.0
6029,62.0,3,120,6.0,91.0
6030,50.0,8,120,8.0,57.0
6031,57.0,3,120,8.0,57.0
6032,76.0,53,60,7.0,77.0
6033,67.0,2,60,7.0,66.0
6034,45.0,5,105,8.0,56.0
6035,64.0,55,50,7.0,62.0
6036,73.0,2,50,7.0,72.0
6037,73.0,58,60,7.0,79.0
6038,64.0,2,60,7.0,66.0
6039,38.0,2,105,8.0,56.0
6040,74.0,57,50,7.0,73.0
6041,65.0,2,50,7.0,63.0
6042,50.0,4,60,15.0,29.0
6043,62.0,1,120,6.0,91.0
6044,50.0,7,120,8.0,48.0
6045,55.0,1,120,8.0,49.0
6046,70.0,0,175,7.0,52.0
6047,74.0,60,180,7.0,62.0
6048,67.0,1,180,7.0,52.0
6049,43.0,109,105,8.0,57.0
6050,70.0,55,50,7.0,66.0
6051,62.0,1,50,7.0,59.0
6052,70.0,56,60,7.0,72.0
6053,62.0,5,60,7.0,60.0
6054,38.0,1,105,8.0,51.0
6055,69.0,56,50,7.0,66.0
6056,60.0,1,50,7.0,59.0
6057,69.0,56,60,7.0,74.0
6058,60.0,8,60,7.0,65.0
6059,67.0,43,50,7.0,68.0
6060,58.0,2,50,7.0,59.0
6061,55.0,7,120,8.0,59.0
6062,50.0,3,120,8.0,59.0
6063,67.0,59,60,7.0,77.0
6064,58.0,4,60,7.0,66.0
6065,43.0,0,105,8.0,55.0
6066,65.0,58,50,7.0,72.0
6067,57.0,4,50,7.0,60.0
6068,65.0,54,60,7.0,78.0
6069,57.0,2,60,7.0,67.0
6070,64.0,51,50,7.0,72.0
6071,38.0,5,105,8.0,56.0
6072,55.0,5,50,7.0,60.0
6073,64.0,58,60,7.0,80.0
6074,55.0,2,60,7.0,68.0
6075,67.0,42,60,7.0,77.0
6076,58.0,3,60,7.0,66.0
6077,50.0,11,120,8.0,66.0
6078,43.0,3,120,8.0,66.0
6079,70.0,56,60,7.0,86.0
6080,64.0,3,60,7.0,75.0
6081,38.0,7,105,8.0,59.0
6082,76.0,52,60,7.0,82.0
6083,67.0,5,60,7.0,68.0
6084,79.0,54,60,7.0,91.0
6085,70.0,3,60,7.0,80.0
6086,76.0,50,50,7.0,85.0
6087,31.0,7,105,8.0,59.0
6088,67.0,6,50,7.0,74.0
6089,45.0,6,60,15.0,32.0
6090,74.0,55,120,7.0,80.0
6091,65.0,1,120,7.0,70.0
6092,57.0,0,120,6.0,88.0
6093,69.0,3,120,6.0,88.0
6094,50.0,6,120,8.0,55.0
6095,73.0,101,110,7.0,57.0
6096,69.0,2,230,7.0,70.0
6097,45.0,2,105,8.0,39.0
6098,64.0,7,110,7.0,48.0
6099,74.0,111,60,7.0,60.0
6100,65.0,2,60,7.0,53.0
6101,33.0,2,105,8.0,48.0
6102,76.0,56,50,7.0,58.0
6103,67.0,1,50,7.0,50.0
6104,69.0,2,120,7.0,53.0
6105,50.0,3,60,15.0,32.0
6106,62.0,1,120,6.0,76.0
6107,74.0,0,120,6.0,76.0
6108,50.0,8,120,8.0,51.0
6109,57.0,1,120,8.0,51.0
6110,77.0,62,180,7.0,63.0
6111,74.0,1,180,7.0,56.0
6112,76.0,53,50,7.0,55.0
6113,45.0,109,105,8.0,44.0
6114,73.0,2,50,7.0,48.0
6115,69.0,0,230,7.0,51.0
6116,76.0,56,60,7.0,59.0
6117,73.0,1,60,7.0,51.0
6118,77.0,55,50,7.0,57.0
6119,38.0,0,105,8.0,44.0
6120,74.0,3,50,7.0,51.0
6121,69.0,7,110,7.0,48.0
6122,77.0,54,60,7.0,65.0
6123,74.0,1,60,7.0,55.0
6124,79.0,50,50,7.0,62.0
6125,76.0,1,50,7.0,55.0
6126,69.0,6,110,7.0,55.0
6127,57.0,7,120,8.0,55.0
6128,50.0,1,120,8.0,55.0
6129,79.0,58,60,7.0,68.0
6130,76.0,54,2,7.0,66.0
6131,69.0,1,110,7.0,57.0
6132,73.0,1,50,7.0,59.0
6133,45.0,4,105,8.0,51.0
6134,76.0,57,60,7.0,74.0
6135,73.0,1,60,7.0,65.0
6136,77.0,52,50,7.0,67.0
6137,38.0,2,105,8.0,55.0
6138,69.0,2,110,7.0,59.0
6139,74.0,7,50,7.0,59.0
6140,50.0,8,120,8.0,57.0
6141,55.0,2,120,8.0,57.0
6142,77.0,58,180,7.0,68.0
6143,74.0,2,180,7.0,59.0
6144,76.0,51,50,7.0,55.0
6145,72.0,3,50,7.0,48.0
6146,71.0,0,230,7.0,59.0
6147,43.0,114,105,8.0,48.0
6148,76.0,55,60,7.0,59.0
6149,72.0,1,60,7.0,51.0
6150,77.0,53,50,7.0,57.0
6151,31.0,3,105,8.0,44.0
6152,71.0,4,110,7.0,48.0
6153,74.0,7,50,7.0,51.0
6154,77.0,0,60,7.0,65.0
6155,74.0,5,60,7.0,55.0
6156,50.0,1,60,15.0,29.0
6157,76.0,43,50,7.0,55.0
6158,79.0,0,50,7.0,62.0
6159,71.0,55,110,7.0,55.0
6160,55.0,4,120,12.0,42.0
6161,31.0,6,120,14.0,42.0
6162,55.0,1,120,8.0,55.0
6163,50.0,0,120,8.0,55.0
6164,79.0,57,60,7.0,68.0
6165,76.0,53,1,7.0,66.0
6166,43.0,2,105,8.0,55.0
6167,71.0,4,110,7.0,57.0
6168,72.0,5,50,7.0,59.0
6169,76.0,52,60,7.0,74.0
6170,72.0,1,60,7.0,65.0
6171,77.0,51,50,7.0,67.0
6172,71.0,5,110,7.0,59.0
6173,31.0,5,105,8.0,55.0
6174,74.0,5,50,7.0,59.0
6175,55.0,4,120,12.0,42.0
6176,48.0,0,120,12.0,42.0
6177,48.0,0,120,8.0,48.0
6178,55.0,3,120,8.0,48.0
6179,36.0,3,120,14.0,42.0
6180,77.0,56,180,7.0,57.0
6181,74.0,1,180,7.0,49.0
6182,71.0,4,180,7.0,49.0
6183,43.0,110,105,8.0,48.0
6184,76.0,57,50,7.0,59.0
6185,72.0,3,50,7.0,51.0
6186,76.0,55,60,7.0,66.0
6187,77.0,50,50,7.0,65.0
6188,36.0,5,105,8.0,49.0
6189,72.0,3,110,7.0,51.0
6190,74.0,7,50,7.0,56.0
6191,77.0,55,60,7.0,78.0
6192,74.0,0,60,7.0,67.0
6193,79.0,42,50,7.0,79.0
6194,72.0,1,110,7.0,67.0
6195,76.0,7,50,7.0,70.0
6196,60.0,0,120,12.0,42.0
6197,48.0,4,120,12.0,42.0
6198,48.0,5,120,8.0,63.0
6199,55.0,2,120,8.0,63.0
6200,79.0,52,60,7.0,91.0
6201,76.0,2,60,7.0,82.0
6202,82.0,54,50,7.0,91.0
6203,43.0,3,105,8.0,68.0
6204,72.0,3,110,7.0,74.0
6205,79.0,5,50,7.0,82.0
6206,81.0,53,60,7.0,92.0
6207,77.0,2,60,7.0,79.0
6208,79.0,54,50,7.0,86.0
6209,72.0,5,110,7.0,74.0
6210,36.0,4,105,8.0,67.0
6211,76.0,3,50,7.0,75.0
6212,79.0,53,60,7.0,92.0
6213,76.0,2,60,7.0,82.0
6214,81.0,42,50,7.0,91.0
6215,72.0,3,110,7.0,75.0
6216,77.0,7,50,7.0,82.0
6217,53.0,10,120,8.0,78.0
6218,48.0,3,120,8.0,79.0
6219,81.0,55,60,7.0,98.0
6220,77.0,4,60,7.0,93.0
6221,84.0,49,50,7.0,99.0
6222,72.0,1,110,7.0,85.0
6223,81.0,5,50,7.0,92.0
6224,41.0,3,105,8.0,82.0
6225,72.0,4,600,6.0,105.0
6226,84.0,56,60,7.0,114.0
6227,81.0,3,60,7.0,102.0
6228,29.0,3,105,8.0,97.0
6229,89.0,56,50,7.0,97.0
6230,77.0,0,50,7.0,94.0
6231,81.0,2,50,7.0,94.0
6232,89.0,57,60,7.0,103.0
6233,81.0,2,60,7.0,93.0
6234,77.0,2,60,7.0,93.0
6235,88.0,42,50,7.0,94.0
6236,79.0,0,50,7.0,91.0
6237,76.0,4,50,7.0,91.0
6238,69.0,0,120,6.0,105.0
6239,57.0,2,120,6.0,105.0
6240,50.0,4,120,12.0,42.0
6241,57.0,4,120,8.0,97.0
6242,50.0,1,120,8.0,97.0
6243,38.0,1,120,14.0,42.0
6244,88.0,59,60,7.0,105.0
6245,79.0,3,60,7.0,94.0
6246,76.0,1,60,7.0,94.0
6247,86.0,53,50,7.0,97.0
6248,74.0,1,50,7.0,92.0
6249,77.0,1,50,7.0,92.0
6250,45.0,3,105,8.0,88.0
6251,86.0,56,60,7.0,105.0
6252,77.0,6,60,7.0,94.0
6253,74.0,1,60,7.0,94.0
6254,84.0,51,50,7.0,92.0
6255,38.0,1,105,8.0,88.0
6256,72.0,6,50,7.0,80.0
6257,76.0,1,50,7.0,80.0
6258,84.0,53,60,7.0,91.0
6259,76.0,7,60,7.0,86.0
6260,72.0,1,60,7.0,86.0
6261,83.0,46,50,7.0,91.0
6262,74.0,1,50,7.0,80.0
6263,77.0,1,50,7.0,80.0
6264,72.0,0,120,6.0,105.0
6265,69.0,0,120,6.0,105.0
6266,52.0,4,120,12.0,42.0
6267,64.0,2,120,8.0,82.0
6268,40.0,4,120,14.0,42.0
6269,83.0,55,60,7.0,96.0
6270,77.0,3,60,7.0,91.0
6271,74.0,2,60,7.0,91.0
6272,81.0,54,50,7.0,97.0
6273,52.0,3,105,8.0,79.0
6274,76.0,1,50,7.0,85.0
6275,72.0,4,50,7.0,85.0
6276,76.0,55,60,7.0,90.0
6277,81.0,2,60,7.0,100.0
6278,72.0,2,60,7.0,90.0
6279,79.0,53,50,7.0,88.0
6280,40.0,2,105,8.0,85.0
6281,74.0,4,50,7.0,78.0
6282,71.0,2,50,7.0,78.0
6283,71.0,57,60,7.0,86.0
6284,79.0,0,60,7.0,91.0
6285,74.0,2,60,7.0,86.0
6286,69.0,0,50,7.0,80.0
6287,72.0,50,50,7.0,80.0
6288,77.0,1,50,7.0,91.0
6289,64.0,7,120,8.0,82.0
6290,77.0,59,60,7.0,96.0
6291,72.0,0,60,7.0,91.0
6292,69.0,1,60,7.0,91.0
6293,67.0,54,50,7.0,85.0
6294,52.0,4,105,8.0,80.0
6295,76.0,2,50,7.0,97.0
6296,71.0,3,50,7.0,85.0
6297,76.0,53,60,7.0,100.0
6298,67.0,3,60,7.0,90.0
6299,70.0,2,60,7.0,90.0
6300,75.0,51,50,7.0,85.0
6301,40.0,4,105,8.0,85.0
6302,69.0,6,50,7.0,75.0
6303,66.0,1,50,7.0,75.0
6304,75.0,53,60,7.0,92.0
6305,69.0,3,60,7.0,82.0
6306,66.0,3,60,7.0,82.0
6307,76.0,46,50,7.0,80.0
6308,71.0,1,50,7.0,70.0
6309,68.0,4,50,7.0,70.0
6310,52.0,9,120,8.0,77.0
6311,76.0,53,60,7.0,86.0
6312,68.0,3,60,7.0,75.0
6313,71.0,2,60,7.0,75.0
6314,45.0,3,105,8.0,65.0
6315,73.0,54,50,7.0,76.0
6316,67.0,4,50,7.0,66.0
6317,70.0,1,50,7.0,66.0
6318,73.0,56,60,7.0,85.0
6319,70.0,1,60,7.0,74.0
6320,67.0,2,60,7.0,74.0
6321,33.0,2,105,8.0,63.0
6322,66.0,55,50,7.0,65.0
6323,74.0,2,50,7.0,75.0
6324,69.0,2,50,7.0,65.0
6325,69.0,43,0,7.0,72.0
6326,74.0,1,60,7.0,80.0
6327,66.0,3,2,7.0,59.0
6328,50.0,2,60,15.0,30.0
6329,62.0,0,120,6.0,100.0
6330,69.0,0,120,6.0,100.0
6331,57.0,0,120,4.0,95.0
6332,50.0,1,120,4.0,95.0
6333,57.0,6,120,8.0,67.0
6334,50.0,1,120,8.0,67.0
6335,38.0,2,120,14.0,49.0
6336,69.0,56,60,7.0,75.0
6337,66.0,1,60,7.0,65.0
6338,45.0,4,105,8.0,55.0
6339,62.0,56,50,7.0,57.0
6340,71.0,0,50,7.0,67.0
6341,68.0,3,50,7.0,57.0
6342,71.0,54,60,7.0,70.0
6343,68.0,6,60,7.0,57.0
6344,62.0,1,60,7.0,57.0
6345,73.0,51,50,7.0,55.0
6346,61.0,2,50,7.0,48.0
6347,33.0,3,105,8.0,51.0
6348,69.0,3,50,7.0,48.0
6349,45.0,2,60,15.0,30.0
6350,73.0,58,120,7.0,48.0
6351,69.0,2,120,7.0,41.0
6352,61.0,0,120,7.0,41.0
6353,69.0,0,120,6.0,82.0
6354,57.0,1,120,6.0,82.0
6355,45.0,0,120,4.0,83.0
6356,57.0,1,120,4.0,83.0
6357,57.0,4,120,8.0,51.0
6358,33.0,1,120,14.0,49.0
6359,45.0,110,105,8.0,55.0
6360,69.0,113,60,7.0,60.0
6361,61.0,3,60,7.0,60.0
6362,71.0,53,50,7.0,55.0
6363,33.0,2,105,8.0,51.0
6364,62.0,7,50,7.0,55.0
6365,71.0,57,60,7.0,74.0
6366,62.0,0,60,7.0,74.0
6367,73.0,47,50,7.0,67.0
6368,64.0,1,50,7.0,67.0
6369,57.0,10,120,8.0,68.0
6370,73.0,62,60,7.0,82.0
6371,64.0,1,60,7.0,82.0
6372,76.0,53,50,7.0,74.0
6373,45.0,1,105,8.0,65.0
6374,67.0,5,50,7.0,74.0
6375,65.0,58,36,7.0,85.0
6376,74.0,2,36,7.0,85.0
6377,73.0,56,36,7.0,66.0
6378,64.0,3,36,7.0,66.0
6379,33.0,4,105,8.0,67.0
6380,65.0,56,120,7.0,66.0
6381,74.0,0,120,7.0,66.0
6382,57.0,13,120,8.0,57.0
6383,71.0,53,50,7.0,59.0
6384,45.0,112,105,8.0,56.0
6385,62.0,4,50,7.0,59.0
6386,71.0,57,60,7.0,72.0
6387,62.0,3,60,7.0,72.0
6388,73.0,53,50,7.0,62.0
6389,33.0,3,105,8.0,55.0
6390,64.0,5,50,7.0,62.0
6391,64.0,56,60,7.0,82.0
6392,73.0,2,60,7.0,82.0
6393,74.0,48,50,7.0,72.0
6394,65.0,2,50,7.0,72.0
6395,57.0,10,120,8.0,70.0
6396,74.0,57,60,7.0,86.0
6397,65.0,0,60,7.0,86.0
6398,77.0,54,50,7.0,75.0
6399,45.0,6,105,8.0,66.0
6400,69.0,5,50,7.0,75.0
6401,76.0,54,36,7.0,90.0
6402,67.0,6,36,7.0,90.0
6403,74.0,55,36,7.0,67.0
6404,65.0,3,36,7.0,67.0
6405,33.0,2,105,8.0,72.0
6406,69.0,1,1440,10.0,100.0
6407,57.0,0,1440,11.0,100.0
6408,57.0,3,1440,12.0,100.0
6409,45.0,1,1440,13.0,100.0
6410,76.0,56,120,7.0,66.0
6411,67.0,2,120,7.0,66.0
6412,72.0,1,120,7.0,66.0
6413,60.0,0,120,8.0,61.0
6414,48.0,116,105,8.0,59.0
6415,72.0,112,60,7.0,75.0
6416,64.0,5,60,7.0,75.0
6417,36.0,1,105,8.0,56.0
6418,74.0,0,50,7.0,65.0
6419,65.0,57,50,7.0,65.0
6420,74.0,58,60,7.0,85.0
6421,65.0,3,60,7.0,85.0
6422,76.0,49,50,7.0,76.0
6423,67.0,1,50,7.0,76.0
6424,60.0,11,120,8.0,76.0
6425,76.0,55,60,7.0,90.0
6426,67.0,5,60,7.0,90.0
6427,79.0,51,50,7.0,82.0
6428,70.0,1,50,7.0,82.0
6429,48.0,5,105,8.0,72.0
6430,77.0,62,36,7.0,93.0
6431,69.0,1,36,7.0,93.0
6432,76.0,52,36,7.0,74.0
6433,67.0,2,36,7.0,74.0
6434,36.0,3,105,8.0,75.0
6435,77.0,58,120,7.0,82.0
6436,69.0,2,120,7.0,82.0
6437,60.0,14,120,8.0,72.0
6438,48.0,109,105,8.0,63.0
6439,76.0,57,50,7.0,68.0
6440,68.0,2,50,7.0,68.0
6441,68.0,0,60,7.0,77.0
6442,76.0,58,60,7.0,77.0
6443,78.0,54,50,7.0,72.0
6444,36.0,6,105,8.0,57.0
6445,69.0,2,50,7.0,72.0
6446,72.0,0,1080,10.0,100.0
6447,60.0,2,1080,11.0,100.0
6448,60.0,4,1080,12.0,100.0
6449,48.0,1,1080,13.0,100.0
6450,78.0,56,60,7.0,90.0
6451,69.0,3,60,7.0,90.0
6452,80.0,50,50,7.0,82.0
6453,71.0,4,50,7.0,82.0
6454,64.0,1,120,8.0,79.0
6455,80.0,56,60,7.0,92.0
6456,71.0,5,60,7.0,92.0
6457,83.0,53,50,7.0,85.0
6458,74.0,1,50,7.0,85.0
6459,52.0,2,105,8.0,70.0
6460,64.0,5,240,12.0,100.0
6461,81.0,0,30,7.0,94.0
6462,72.0,60,30,7.0,94.0
6463,71.0,54,30,7.0,78.0
6464,80.0,2,30,7.0,78.0
6465,40.0,5,105,8.0,78.0
6466,52.0,0,360,13.0,100.0
6467,80.0,59,60,7.0,91.0
6468,71.0,2,60,7.0,91.0
6469,81.0,44,50,7.0,79.0
6470,72.0,6,50,7.0,79.0
6471,64.0,6,120,12.0,117.0
6472,64.0,5,120,8.0,82.0
6473,81.0,58,60,7.0,88.0
6474,72.0,2,60,7.0,88.0
6475,52.0,1,60,13.0,117.0
6476,84.0,49,50,7.0,82.0
6477,52.0,2,105,8.0,68.0
6478,76.0,4,50,7.0,82.0
6479,52.0,3,120,12.0,100.0
6480,83.0,56,30,7.0,88.0
6481,74.0,4,30,7.0,88.0
6482,40.0,2,60,13.0,117.0
6483,81.0,47,30,7.0,82.0
6484,72.0,4,30,7.0,82.0
6485,40.0,5,105,8.0,70.0
6486,78.0,60,60,7.0,94.0
6487,69.0,2,60,7.0,94.0
6488,80.0,44,50,7.0,82.0
6489,71.0,4,50,7.0,82.0
6490,64.0,6,120,12.0,117.0
6491,64.0,5,120,8.0,85.0
6492,80.0,55,60,7.0,93.0
6493,71.0,6,60,7.0,93.0
6494,52.0,1,60,13.0,117.0
6495,83.0,47,50,7.0,85.0
6496,52.0,4,105,8.0,72.0
6497,74.0,6,50,7.0,85.0
6498,52.0,2,120,12.0,100.0
6499,81.0,57,30,7.0,94.0
6500,72.0,1,30,7.0,94.0
6501,40.0,3,60,13.0,117.0
6502,80.0,52,30,7.0,85.0
6503,71.0,2,30,7.0,85.0
6504,40.0,6,105,8.0,73.0
6505,80.0,54,60,7.0,93.0
6506,71.0,7,60,7.0,93.0
6507,59.0,3,60,8.0,91.0
6508,68.0,2,60,8.0,91.0
6509,81.0,48,50,7.0,85.0
6510,72.0,1,50,7.0,85.0
6511,69.0,9,50,8.0,82.0
6512,60.0,2,50,8.0,82.0
6513,64.0,1,120,12.0,117.0
6514,81.0,50,60,7.0,94.0
6515,72.0,3,60,7.0,94.0
6516,52.0,1,60,13.0,117.0
6517,69.0,0,60,8.0,93.0
6518,60.0,2,60,8.0,93.0
6519,84.0,49,50,7.0,85.0
6520,76.0,3,50,7.0,85.0
6521,72.0,5,50,8.0,84.0
6522,64.0,1,50,8.0,84.0
6523,52.0,5,120,12.0,100.0
6524,83.0,51,30,7.0,94.0
6525,74.0,2,30,7.0,94.0
6526,62.0,2,30,8.0,93.0
6527,71.0,0,30,8.0,93.0
6528,40.0,7,60,13.0,117.0
6529,72.0,0,30,7.0,87.0
6530,81.0,50,30,7.0,87.0
6531,69.0,5,30,8.0,85.0
6532,60.0,2,30,8.0,85.0
6533,78.0,49,60,7.0,91.0
6534,69.0,5,60,7.0,91.0
6535,57.0,0,60,8.0,98.0
6536,66.0,2,60,8.0,98.0
6537,80.0,46,50,7.0,88.0
6538,71.0,7,50,7.0,88.0
6539,59.0,4,50,8.0,86.0
6540,68.0,3,50,8.0,86.0
6541,64.0,6,120,12.0,117.0
6542,71.0,49,60,7.0,92.0
6543,80.0,2,60,7.0,92.0
6544,68.0,7,60,8.0,91.0
6545,52.0,1,60,13.0,117.0
6546,59.0,2,60,8.0,91.0
6547,83.0,47,50,7.0,91.0
6548,74.0,3,50,7.0,91.0
6549,62.0,8,50,8.0,88.0
6550,76.0,1,1680,10.0,100.0
6551,71.0,2,50,8.0,88.0
6552,64.0,2,1680,11.0,100.0
6553,52.0,0,120,12.0,100.0
6554,72.0,49,30,7.0,94.0
6555,81.0,1,30,7.0,91.0
6556,60.0,0,30,8.0,93.0
6557,69.0,1,30,8.0,93.0
6558,40.0,6,60,13.0,117.0
6559,77.0,0,84,10.0,100.0
6560,65.0,2,84,11.0,100.0
6561,80.0,50,30,7.0,91.0
6562,71.0,3,30,7.0,91.0
6563,59.0,3,30,8.0,90.0
6564,68.0,3,30,8.0,90.0
6565,80.0,48,60,7.0,94.0
6566,71.0,2,60,7.0,94.0
6567,59.0,3,60,8.0,93.0
6568,68.0,0,60,8.0,93.0
6569,77.0,4,84,10.0,100.0
6570,65.0,0,84,11.0,100.0
6571,81.0,53,50,7.0,94.0
6572,72.0,2,50,7.0,94.0
6573,60.0,0,50,8.0,94.0
6574,69.0,7,50,8.0,94.0
6575,64.0,2,120,12.0,117.0
6576,81.0,46,60,7.0,95.0
6577,72.0,3,60,7.0,95.0
6578,69.0,3,60,8.0,94.0
6579,52.0,1,60,13.0,117.0
6580,60.0,2,60,8.0,94.0
6581,78.0,2,84,10.0,100.0
6582,66.0,2,84,11.0,100.0
6583,84.0,49,50,7.0,96.0
6584,76.0,3,50,7.0,96.0
6585,64.0,7,50,8.0,94.0
6586,72.0,1,50,8.0,94.0
6587,52.0,2,120,12.0,100.0
6588,81.0,49,60,7.0,96.0
6589,72.0,1,60,7.0,96.0
6590,40.0,6,60,13.0,117.0
6591,69.0,1,60,8.0,94.0
6592,60.0,0,60,8.0,94.0
6593,78.0,1,84,10.0,100.0
6594,66.0,1,84,11.0,100.0
6595,83.0,47,50,7.0,96.0
6596,74.0,7,50,7.0,96.0
6597,62.0,2,50,8.0,94.0
6598,71.0,3,50,8.0,94.0
6599,83.0,52,60,7.0,98.0
6600,74.0,1,60,7.0,98.0
6601,62.0,4,60,8.0,96.0
6602,71.0,3,60,8.0,96.0
6603,80.0,0,84,10.0,100.0
6604,68.0,1,84,11.0,100.0
6605,86.0,49,50,7.0,98.0
6606,77.0,2,50,7.0,98.0
6607,65.0,4,50,8.0,97.0
6608,74.0,1,50,8.0,97.0
6609,64.0,1,120,12.0,117.0
6610,83.0,50,60,7.0,98.0
6611,74.0,0,60,7.0,98.0
6612,62.0,0,60,8.0,97.0
6613,52.0,1,60,13.0,117.0
6614,71.0,2,60,8.0,97.0
6615,80.0,4,84,10.0,100.0
6616,68.0,2,84,11.0,100.0
6617,85.0,46,50,7.0,98.0
6618,76.0,6,50,7.0,98.0
6619,64.0,7,50,8.0,97.0
6620,73.0,1,50,8.0,97.0
6621,52.0,5,120,12.0,100.0
6622,85.0,46,60,7.0,99.0
6623,76.0,3,60,7.0,99.0
6624,73.0,0,60,8.0,98.0
6625,64.0,3,60,8.0,98.0
6626,40.0,3,60,13.0,117.0
6627,81.0,1,84,10.0,100.0
6628,69.0,2,84,11.0,100.0
6629,88.0,52,50,7.0,99.0
6630,79.0,2,50,7.0,99.0
6631,67.0,6,50,8.0,98.0
6632,76.0,2,50,8.0,98.0
6633,85.0,45,60,7.0,101.0
6634,76.0,4,60,7.0,101.0
6635,64.0,3,60,8.0,99.0
6636,73.0,2,60,8.0,99.0
6637,86.0,47,45,7.0,94.0
6638,77.0,4,45,7.0,94.0
6639,74.0,9,45,8.0,94.0
6640,65.0,2,45,8.0,94.0
6641,62.0,0,120,12.0,117.0
6642,86.0,47,60,7.0,105.0
6643,77.0,6,60,7.0,105.0
6644,74.0,2,60,8.0,104.0
6645,65.0,2,60,8.0,104.0
6646,89.0,48,45,7.0,99.0
6647,81.0,4,45,7.0,99.0
6648,77.0,4,45,8.0,98.0
6649,50.0,2,105,12.0,117.0
6650,69.0,5,45,8.0,98.0
6651,81.0,1,240,10.0,100.0
6652,69.0,2,240,11.0,100.0
6653,50.0,1,240,13.0,117.0
6654,88.0,46,60,7.0,114.0
6655,82.0,0,60,7.0,114.0
6656,76.0,4,60,8.0,111.0
6657,67.0,2,60,8.0,111.0
6658,91.0,45,45,7.0,105.0
6659,79.0,7,45,7.0,105.0
6660,70.0,3,45,8.0,104.0
6661,60.0,1,120,12.0,117.0
6662,84.0,54,60,7.0,117.0
6663,89.0,0,60,7.0,117.0
6664,77.0,1,60,8.0,116.0
6665,69.0,2,60,8.0,116.0
6666,93.0,45,45,7.0,114.0
6667,81.0,5,45,7.0,114.0
6668,48.0,8,105,12.0,117.0
6669,72.0,9,45,8.0,114.0
6670,84.0,4,240,10.0,100.0
6671,72.0,2,240,11.0,100.0
6672,48.0,1,240,13.0,117.0
6673,91.0,49,60,7.0,125.0
6674,85.0,1,60,7.0,125.0
6675,70.0,2,60,8.0,123.0
6676,79.0,0,60,8.0,123.0
6677,94.0,48,45,7.0,117.0
6678,82.0,4,45,7.0,117.0
6679,73.0,8,45,8.0,115.0
6680,58.0,2,120,12.0,117.0
6681,46.0,1,120,13.0,117.0
6682,91.0,47,60,7.0,125.0
6683,85.0,7,60,7.0,125.0
6684,70.0,3,60,8.0,123.0
6685,79.0,1,60,8.0,123.0
6686,94.0,50,45,7.0,125.0
6687,82.0,3,45,7.0,125.0
6688,49.0,2,105,12.0,117.0
6689,37.0,1,105,13.0,117.0
6690,73.0,6,45,8.0,127.0
6691,49.0,51,40,7.0,103.0
6692,37.0,7,40,8.0,103.0
6693,52.0,30,40,7.0,105.0
6694,40.0,5,40,8.0,105.0
6695,55.0,35,40,7.0,107.0
6696,88.0,2,360,10.0,100.0
6697,76.0,2,360,11.0,100.0
6698,43.0,4,40,8.0,107.0
6699,58.0,1,120,12.0,117.0
6700,46.0,1,120,13.0,117.0
6701,61.0,40,40,7.0,107.0
6702,49.0,5,40,8.0,107.0
6703,64.0,34,40,7.0,109.0
6704,52.0,1,40,8.0,109.0
6705,49.0,0,105,12.0,117.0
6706,37.0,1,105,13.0,117.0
6707,67.0,36,40,7.0,109.0
6708,55.0,8,40,8.0,109.0
6709,70.0,33,40,7.0,120.0
6710,58.0,4,40,8.0,120.0
6711,67.0,31,40,7.0,111.0
6712,55.0,4,40,8.0,111.0
6713,64.0,39,40,7.0,113.0
6714,52.0,0,40,8.0,113.0
6715,58.0,3,120,12.0,117.0
6716,46.0,1,120,13.0,117.0
6717,61.0,36,40,7.0,113.0
6718,49.0,5,40,8.0,113.0
6719,64.0,33,40,7.0,113.0
6720,52.0,6,40,8.0,113.0
6721,49.0,4,105,12.0,117.0
6722,37.0,1,105,13.0,117.0
6723,67.0,32,40,7.0,116.0
6724,55.0,8,40,8.0,116.0
6725,73.0,31,40,7.0,117.0
6726,61.0,4,40,8.0,117.0
6727,76.0,31,40,7.0,117.0
6728,64.0,6,40,8.0,117.0
6729,79.0,35,40,7.0,117.0
6730,67.0,2,40,8.0,117.0
6731,58.0,5,120,12.0,117.0
6732,46.0,1,120,13.0,117.0
6733,85.0,39,40,7.0,117.0
6734,73.0,1,40,8.0,117.0
6735,88.0,31,40,7.0,120.0
6736,76.0,3,40,8.0,120.0
6737,49.0,5,105,12.0,117.0
6738,37.0,1,105,13.0,117.0
6739,91.0,40,40,7.0,120.0
6740,79.0,3,40,8.0,120.0
6741,94.0,33,26,7.0,111.0
6742,70.0,5,26,8.0,112.0
6743,96.0,16,26,7.0,103.0
6744,84.0,4,26,7.0,101.0
6745,72.0,2,26,8.0,103.0
6746,94.0,22,26,7.0,103.0
6747,70.0,9,26,8.0,101.0
6748,96.0,16,26,7.0,103.0
6749,84.0,6,26,7.0,102.0
6750,72.0,2,26,8.0,100.0
6751,58.0,4,120,12.0,117.0
6752,46.0,1,120,13.0,117.0
6753,94.0,23,26,7.0,102.0
6754,70.0,6,26,8.0,102.0
6755,96.0,2,26,7.0,101.0
6756,84.0,1,26,7.0,100.0
6757,72.0,4,26,8.0,103.0
6758,94.0,25,24,7.0,100.0
6759,70.0,9,24,8.0,102.0
6760,84.0,15,24,7.0,100.0
6761,96.0,0,24,7.0,101.0
6762,72.0,4,24,8.0,100.0
6763,94.0,20,24,7.0,101.0
6764,70.0,9,24,8.0,101.0
6765,96.0,17,24,7.0,102.0
6766,84.0,1,24,7.0,102.0
6767,72.0,1,24,8.0,102.0
6768,94.0,20,24,7.0,102.0
6769,70.0,8,24,8.0,101.0
6770,96.0,16,24,7.0,102.0
6771,84.0,2,24,7.0,101.0
6772,72.0,4,24,8.0,102.0
6773,94.0,23,20,7.0,103.0
6774,70.0,3,20,8.0,103.0
6775,96.0,15,20,7.0,101.0
6776,84.0,1,20,7.0,102.0
6777,72.0,4,20,8.0,101.0
6778,94.0,0,20,7.0,103.0
6779,70.0,16,20,8.0,101.0
6780,96.0,2,20,7.0,100.0
6781,84.0,0,20,7.0,100.0
6782,45.0,2,15,15.0,53.0
6783,72.0,6,20,8.0,100.0
6784,45.0,0,15,15.0,55.0
6785,94.0,13,20,7.0,100.0
6786,70.0,2,20,8.0,102.0
6787,45.0,11,1,15.0,57.0
6788,84.0,0,20,7.0,103.0
6789,96.0,17,20,7.0,103.0
6790,72.0,3,20,8.0,100.0
6791,94.0,6,20,7.0,101.0
6792,70.0,4,20,8.0,103.0
6793,45.0,1,3,15.0,59.0
6794,84.0,6,20,7.0,101.0
6795,96.0,2,20,7.0,100.0
6796,72.0,3,20,8.0,101.0
6797,45.0,13,1,15.0,59.0
6798,94.0,14,20,7.0,100.0
6799,70.0,1,20,8.0,101.0
6800,45.0,5,1,15.0,59.0
6801,84.0,1,20,7.0,103.0
6802,96.0,3,20,7.0,100.0
6803,72.0,5,20,8.0,101.0
6804,45.0,3,0,15.0,60.0
6805,94.0,8,20,7.0,101.0
6806,70.0,4,20,8.0,101.0
6807,84.0,13,20,7.0,102.0
6808,45.0,11,3,15.0,62.0
6809,96.0,2,20,7.0,102.0
6810,72.0,1,20,8.0,101.0
6811,94.0,3,20,7.0,100.0
6812,70.0,5,20,8.0,102.0
6813,45.0,7,15,15.0,63.0
6814,84.0,8,20,7.0,103.0
6815,72.0,1,20,8.0,103.0
6816,96.0,0,20,7.0,101.0
6817,45.0,4,0,15.0,66.0
6818,45.0,12,2,15.0,67.0
6819,94.0,11,20,7.0,100.0
6820,70.0,1,20,8.0,101.0
6821,96.0,2,22,7.0,101.0
6822,84.0,1,22,7.0,102.0
6823,72.0,2,22,8.0,103.0
6824,45.0,6,1,15.0,69.0
6825,94.0,6,22,7.0,101.0
6826,70.0,2,22,8.0,103.0
6827,45.0,14,1,15.0,69.0
6828,84.0,11,22,7.0,100.0
6829,96.0,3,22,7.0,103.0
6830,72.0,0,22,8.0,100.0
6831,94.0,3,22,7.0,103.0
6832,70.0,5,22,8.0,100.0
6833,45.0,2,0,15.0,73.0
6834,45.0,8,1,15.0,72.0
6835,93.0,0,30,7.0,113.0
6836,81.0,13,30,7.0,113.0
6837,45.0,4,1,15.0,72.0
6838,69.0,6,30,8.0,110.0
6839,91.0,10,23,7.0,125.0
6840,79.0,0,23,7.0,107.0
6841,67.0,1,22,8.0,107.0
6842,45.0,0,15,15.0,74.0
6843,93.0,4,23,7.0,100.0
6844,81.0,0,23,7.0,97.0
6845,69.0,8,22,8.0,107.0
6846,45.0,7,15,15.0,76.0
6847,79.0,5,23,7.0,101.0
6848,45.0,6,1,15.0,74.0
6849,67.0,1,22,8.0,100.0
6850,91.0,5,23,7.0,87.0
6851,45.0,9,1,15.0,74.0
6852,93.0,0,23,7.0,87.0
6853,81.0,8,23,7.0,92.0
6854,69.0,5,22,8.0,101.0
6855,79.0,3,23,7.0,101.0
6856,91.0,3,23,7.0,87.0
6857,45.0,3,2,15.0,73.0
6858,67.0,4,22,8.0,102.0
6859,93.0,6,23,7.0,87.0
6860,81.0,0,23,7.0,93.0
6861,69.0,4,22,8.0,103.0
6862,45.0,6,2,15.0,76.0
6863,91.0,12,23,7.0,88.0
6864,79.0,2,23,7.0,106.0
6865,67.0,5,22,8.0,106.0
6866,81.0,4,23,7.0,94.0
6867,93.0,0,23,7.0,88.0
6868,45.0,4,15,15.0,74.0
6869,69.0,8,22,8.0,97.0
6870,45.0,3,15,15.0,76.0
6871,91.0,9,23,7.0,91.0
6872,67.0,1,22,8.0,97.0
6873,79.0,3,23,7.0,97.0
6874,45.0,7,2,15.0,74.0
6875,93.0,0,23,7.0,92.0
6876,81.0,3,23,7.0,98.0
6877,69.0,3,22,8.0,98.0
6878,91.0,5,23,7.0,92.0
6879,45.0,4,1,15.0,76.0
6880,79.0,3,23,7.0,99.0
6881,67.0,4,22,8.0,99.0
6882,93.0,0,25,7.0,93.0
6883,81.0,10,25,7.0,99.0
6884,69.0,5,24,8.0,100.0
6885,45.0,2,0,15.0,74.0
6886,45.0,13,0,15.0,76.0
6887,79.0,11,25,7.0,101.0
6888,91.0,2,25,7.0,95.0
6889,67.0,2,24,8.0,101.0
6890,45.0,13,2,15.0,74.0
6891,93.0,7,25,7.0,96.0
6892,81.0,0,25,7.0,103.0
6893,69.0,3,24,8.0,102.0
6894,67.0,0,25,8.0,105.0
6895,79.0,3,25,7.0,103.0
6896,91.0,3,25,7.0,98.0
6897,45.0,10,15,15.0,76.0
6898,45.0,1,15,15.0,76.0
6899,89.0,15,30,7.0,113.0
6900,45.0,3,3,15.0,76.0
6901,77.0,1,30,7.0,113.0
6902,65.0,3,30,8.0,113.0
6903,76.0,9,23,7.0,107.0
6904,88.0,0,23,7.0,125.0
6905,64.0,2,23,8.0,107.0
6906,45.0,14,15,15.0,73.0
6907,89.0,2,23,7.0,86.0
6908,77.0,0,23,7.0,91.0
6909,45.0,1,2,15.0,76.0
6910,65.0,8,23,8.0,100.0
6911,76.0,6,23,7.0,101.0
6912,88.0,5,23,7.0,87.0
6913,64.0,1,23,8.0,100.0
6914,45.0,4,15,15.0,76.0
6915,89.0,11,23,7.0,87.0
6916,77.0,0,23,7.0,93.0
6917,65.0,7,23,8.0,102.0
6918,45.0,5,1,15.0,73.0
6919,76.0,2,23,7.0,102.0
6920,88.0,3,23,7.0,87.0
6921,64.0,4,23,8.0,102.0
6922,89.0,8,23,7.0,88.0
6923,77.0,0,23,7.0,94.0
6924,45.0,2,3,15.0,76.0
6925,65.0,4,23,8.0,106.0
6926,88.0,10,22,7.0,88.0
6927,76.0,4,22,7.0,106.0
6928,64.0,5,23,8.0,106.0
6929,45.0,3,3,15.0,73.0
6930,89.0,1,22,7.0,91.0
6931,77.0,0,22,7.0,95.0
6932,65.0,8,23,8.0,97.0
6933,88.0,10,22,7.0,91.0
6934,45.0,12,3,15.0,76.0
6935,76.0,3,22,7.0,97.0
6936,64.0,1,23,8.0,98.0
6937,77.0,0,22,7.0,98.0
6938,89.0,6,22,7.0,92.0
6939,45.0,3,1,15.0,76.0
6940,65.0,3,23,8.0,98.0
6941,88.0,4,22,7.0,93.0
6942,76.0,3,22,7.0,99.0
6943,64.0,4,23,8.0,99.0
6944,45.0,11,0,15.0,76.0
6945,77.0,0,24,7.0,100.0
6946,89.0,11,24,7.0,93.0
6947,65.0,4,25,8.0,100.0
6948,45.0,6,2,15.0,74.0
6949,76.0,6,24,7.0,101.0
6950,88.0,1,24,7.0,95.0
6951,64.0,0,25,8.0,101.0
6952,45.0,8,1,15.0,76.0
6953,77.0,0,27,7.0,103.0
6954,89.0,0,27,7.0,96.0
6955,45.0,4,1,15.0,73.0
6956,65.0,6,28,8.0,102.0
6957,76.0,6,27,7.0,103.0
6958,88.0,1,27,7.0,98.0
6959,64.0,3,28,8.0,105.0
6960,45.0,2,1,15.0,74.0
6961,45.0,8,1,15.0,74.0
6962,86.0,12,30,7.0,110.0
6963,74.0,2,30,7.0,113.0
6964,62.0,4,30,8.0,113.0
6965,45.0,5,2,15.0,74.0
6966,45.0,14,1,15.0,76.0
6967,45.0,13,2,15.0,76.0
6968,73.0,13,81,7.0,127.0
6969,85.0,1,81,7.0,127.0
6970,61.0,7,81,8.0,127.0
6971,45.0,14,1,15.0,76.0
6972,45.0,13,2,15.0,76.0
6973,45.0,17,15,15.0,72.0
6974,45.0,11,15,15.0,72.0
6975,45.0,14,1,15.0,71.0
6976,45.0,12,3,15.0,72.0
6977,64.0,1,81,7.0,117.0
6978,76.0,1,81,7.0,117.0
6979,52.0,2,81,8.0,117.0
6980,45.0,16,15,15.0,72.0
6981,45.0,1,1,15.0,71.0
6982,45.0,14,1,15.0,71.0
6983,45.0,14,1,15.0,69.0
6984,45.0,14,1,15.0,69.0
6985,69.0,13,81,7.0,117.0
6986,81.0,2,81,7.0,117.0
6987,57.0,6,81,8.0,117.0
6988,45.0,12,3,15.0,67.0
6989,45.0,0,2,15.0,69.0
6990,45.0,14,1,15.0,66.0
6991,45.0,14,1,15.0,66.0
6992,45.0,14,1,15.0,66.0
6993,73.0,13,81,7.0,127.0
6994,61.0,4,81,7.0,127.0
6995,49.0,6,81,8.0,127.0
6996,45.0,16,15,15.0,66.0
6997,45.0,2,0,15.0,66.0
6998,45.0,6,0,15.0,66.0
6999,45.0,13,2,15.0,64.0
7000,45.0,15,15,15.0,66.0
7001,45.0,14,1,15.0,66.0
7002,76.0,12,81,7.0,117.0
7003,64.0,1,81,7.0,117.0
7004,45.0,15,0,15.0,63.0
7005,52.0,9,81,8.0,117.0
7006,64.0,1,1305,11.0,100.0
7007,55.0,0,1305,11.0,100.0
7008,45.0,0,0,15.0,62.0
7009,45.0,7,3,15.0,63.0
7010,81.0,13,30,10.0,100.0
7011,69.0,1,30,11.0,100.0
7012,45.0,0,15,15.0,62.0
7013,82.0,16,30,10.0,100.0
7014,45.0,14,1,15.0,62.0
7015,70.0,2,30,11.0,100.0
7016,55.0,1,81,7.0,117.0
7017,67.0,1,81,7.0,117.0
7018,43.0,4,81,8.0,117.0
7019,84.0,0,30,10.0,100.0
7020,45.0,14,15,15.0,62.0
7021,72.0,2,30,11.0,100.0
7022,45.0,14,1,15.0,62.0
7023,49.0,13,2025,12.0,100.0
7024,37.0,1,2025,13.0,100.0
7025,49.0,6,1425,13.0,100.0
7026,37.0,5,1425,14.0,100.0
7027,86.0,14,30,10.0,100.0
7028,74.0,0,30,11.0,100.0
7029,45.0,0,0,4.0,100.0
7030,57.0,2,0,4.0,100.0
7031,45.0,1,2,15.0,60.0
7032,87.0,1,23,10.0,127.0
7033,75.0,0,23,11.0,127.0
7034,89.0,6,23,10.0,111.0
7035,77.0,2,23,11.0,111.0
7036,45.0,1,2,15.0,59.0
7037,87.0,10,23,10.0,104.0
7038,75.0,2,23,11.0,104.0
7039,45.0,13,0,15.0,59.0
7040,89.0,0,26,10.0,98.0
7041,77.0,2,26,11.0,98.0
7042,45.0,6,1,15.0,59.0
7043,87.0,6,26,10.0,98.0
7044,75.0,2,26,11.0,98.0
7045,66.0,13,120,7.0,121.0
7046,45.0,1,15,15.0,60.0
7047,54.0,1,120,7.0,121.0
7048,42.0,0,120,8.0,121.0
7049,89.0,13,26,10.0,100.0
7050,77.0,2,26,11.0,100.0
7051,45.0,15,15,15.0,60.0
7052,87.0,2,26,10.0,100.0
7053,75.0,2,26,11.0,100.0
7054,45.0,5,1,15.0,62.0
7055,89.0,7,26,10.0,101.0
7056,77.0,2,26,11.0,101.0
7057,45.0,14,1,15.0,59.0
7058,87.0,13,26,10.0,101.0
7059,75.0,2,26,11.0,101.0
7060,89.0,4,26,10.0,102.0
7061,45.0,2,1,15.0,60.0
7062,77.0,2,26,11.0,102.0
7063,45.0,15,0,15.0,59.0
7064,87.0,10,26,10.0,102.0
7065,75.0,2,26,11.0,102.0
7066,45.0,11,1,15.0,62.0
7067,89.0,1,26,10.0,103.0
7068,77.0,2,26,11.0,103.0
7069,45.0,2,3,15.0,60.0
7070,87.0,8,26,10.0,103.0
7071,75.0,2,26,11.0,103.0
7072,45.0,15,0,15.0,60.0
7073,89.0,10,26,10.0,104.0
7074,77.0,0,26,11.0,104.0
7075,87.0,4,26,10.0,104.0
7076,45.0,11,15,15.0,62.0
7077,75.0,2,26,11.0,104.0
7078,45.0,1,1,15.0,60.0
7079,89.0,8,26,10.0,105.0
7080,77.0,2,26,11.0,105.0
7081,45.0,14,0,15.0,62.0
7082,87.0,13,26,10.0,105.0
7083,75.0,1,26,11.0,105.0
7084,45.0,7,1,15.0,62.0
7085,89.0,5,26,10.0,106.0
7086,77.0,2,26,11.0,106.0
7087,45.0,4,15,15.0,62.0
7088,87.0,11,26,10.0,106.0
7089,75.0,2,26,11.0,106.0
7090,45.0,14,0,15.0,62.0
7091,89.0,15,26,10.0,107.0
7092,77.0,1,26,11.0,107.0
7093,45.0,6,2,15.0,63.0
7094,45.0,2,1,15.0,60.0
7095,87.0,5,26,10.0,107.0
7096,75.0,2,26,11.0,107.0
7097,89.0,12,26,10.0,108.0
7098,77.0,0,26,11.0,108.0
7099,45.0,11,1,15.0,64.0
7100,87.0,1,26,10.0,108.0
7101,75.0,2,26,11.0,108.0
7102,45.0,4,2,15.0,64.0
7103,89.0,7,26,10.0,108.0
7104,77.0,2,26,11.0,108.0
7105,45.0,13,2,15.0,62.0
7106,87.0,15,26,10.0,107.0
7107,75.0,0,26,11.0,107.0
7108,45.0,7,15,15.0,62.0
7109,89.0,6,26,10.0,106.0
7110,77.0,2,26,11.0,106.0
7111,45.0,14,1,15.0,62.0
7112,87.0,11,26,10.0,106.0
7113,75.0,2,26,11.0,106.0
7114,45.0,12,1,15.0,62.0
7115,89.0,0,26,10.0,105.0
7116,77.0,2,26,11.0,105.0
7117,45.0,7,15,15.0,64.0
7118,87.0,6,26,10.0,104.0
7119,75.0,2,26,11.0,104.0
7120,45.0,15,0,15.0,63.0
7121,89.0,12,26,10.0,104.0
7122,77.0,2,26,11.0,104.0
7123,45.0,11,0,15.0,62.0
7124,87.0,2,26,10.0,103.0
7125,75.0,2,26,11.0,103.0
7126,45.0,4,2,15.0,64.0
7127,89.0,7,26,10.0,102.0
7128,77.0,2,26,11.0,102.0
7129,45.0,15,15,15.0,64.0
7130,87.0,0,26,10.0,102.0
7131,75.0,2,26,11.0,102.0
7132,45.0,1,1,15.0,64.0
7133,45.0,13,1,15.0,66.0
7134,78.0,0,45,0.0,99.0
7135,66.0,3,45,1.0,97.0
7136,66.0,2,45,2.0,97.0
7137,54.0,6,45,3.0,98.0
7138,86.0,13,30,10.0,120.0
7139,74.0,1,30,11.0,120.0
7140,45.0,1,15,15.0,63.0
7141,87.0,1,19,0.0,101.0
7142,84.0,15,24,10.0,127.0
7143,75.0,2,19,1.0,98.0
7144,72.0,1,24,11.0,127.0
7145,75.0,3,19,2.0,99.0
7146,45.0,6,3,15.0,63.0
7147,63.0,5,19,3.0,100.0
7148,77.0,3,19,1.0,97.0
7149,77.0,0,19,2.0,100.0
7150,89.0,1,19,0.0,103.0
7151,45.0,1,0,15.0,66.0
7152,86.0,1,24,10.0,111.0
7153,74.0,1,24,11.0,111.0
7154,65.0,3,19,3.0,102.0
7155,87.0,5,19,0.0,100.0
7156,75.0,3,19,1.0,97.0
7157,75.0,1,19,2.0,101.0
7158,84.0,3,24,10.0,104.0
7159,72.0,0,24,11.0,104.0
7160,63.0,7,19,3.0,99.0
7161,89.0,5,19,0.0,100.0
7162,45.0,4,3,15.0,64.0
7163,77.0,5,19,1.0,98.0
7164,77.0,1,19,2.0,102.0
7165,65.0,4,19,3.0,103.0
7166,45.0,1,0,15.0,66.0
7167,86.0,2,27,10.0,97.0
7168,74.0,1,27,11.0,97.0
7169,87.0,3,19,0.0,100.0
7170,75.0,4,19,2.0,102.0
7171,75.0,2,19,1.0,97.0
7172,63.0,0,19,3.0,103.0
7173,84.0,3,27,10.0,97.0
7174,72.0,2,27,11.0,97.0
7175,89.0,10,19,0.0,100.0
7176,45.0,1,15,15.0,66.0
7177,77.0,2,19,1.0,99.0
7178,77.0,2,19,2.0,101.0
7179,65.0,3,19,3.0,100.0
7180,87.0,4,19,0.0,100.0
7181,86.0,1,27,10.0,97.0
7182,74.0,2,27,11.0,97.0
7183,45.0,4,1,15.0,66.0
7184,75.0,7,19,1.0,97.0
7185,75.0,1,19,2.0,101.0
7186,63.0,3,19,3.0,103.0
7187,89.0,1,19,0.0,100.0
7188,45.0,1,2,15.0,63.0
7189,84.0,3,27,10.0,97.0
7190,77.0,2,19,1.0,101.0
7191,72.0,2,27,11.0,97.0
7192,77.0,4,19,2.0,102.0
7193,65.0,6,19,3.0,99.0
7194,87.0,0,19,0.0,103.0
7195,75.0,5,19,1.0,101.0
7196,86.0,2,27,10.0,97.0
7197,75.0,3,19,2.0,100.0
7198,74.0,2,27,11.0,97.0
7199,45.0,1,2,15.0,64.0
7200,63.0,3,19,3.0,99.0
7201,77.0,1,19,1.0,101.0
7202,89.0,0,19,0.0,104.0
7203,77.0,4,19,2.0,97.0
7204,84.0,6,27,10.0,97.0
7205,72.0,1,27,11.0,97.0
7206,65.0,6,19,3.0,103.0
7207,87.0,5,19,0.0,101.0
7208,45.0,4,15,15.0,66.0
7209,75.0,0,19,2.0,101.0
7210,75.0,1,19,1.0,101.0
7211,86.0,0,27,10.0,97.0
7212,74.0,2,27,11.0,97.0
7213,63.0,8,19,3.0,98.0
7214,45.0,5,15,15.0,66.0
7215,89.0,1,19,0.0,103.0
7216,77.0,5,19,2.0,98.0
7217,77.0,1,19,1.0,101.0
7218,45.0,1,15,15.0,66.0
7219,65.0,6,19,3.0,98.0
7220,84.0,0,27,10.0,97.0
7221,72.0,1,27,11.0,97.0
7222,87.0,6,19,0.0,101.0
7223,75.0,2,19,2.0,100.0
7224,75.0,2,19,1.0,97.0
7225,45.0,2,1,15.0,66.0
7226,63.0,0,19,3.0,101.0
7227,86.0,2,27,10.0,97.0
7228,74.0,2,27,11.0,97.0
7229,89.0,9,19,0.0,100.0
7230,77.0,3,19,1.0,97.0
7231,77.0,0,19,2.0,97.0
7232,65.0,0,19,3.0,98.0
7233,84.0,3,27,10.0,97.0
7234,45.0,1,3,15.0,66.0
7235,87.0,8,19,0.0,99.0
7236,72.0,2,27,11.0,97.0
7237,75.0,2,19,1.0,100.0
7238,75.0,0,19,2.0,99.0
7239,63.0,1,19,3.0,98.0
7240,86.0,8,27,10.0,97.0
7241,74.0,2,27,11.0,97.0
7242,89.0,7,19,0.0,104.0
7243,77.0,2,19,1.0,97.0
7244,77.0,2,19,2.0,101.0
7245,45.0,2,1,15.0,67.0
7246,65.0,1,19,3.0,98.0
7247,75.0,6,19,2.0,97.0
7248,84.0,1,27,10.0,97.0
7249,87.0,0,19,0.0,99.0
7250,75.0,2,19,1.0,98.0
7251,72.0,2,27,11.0,97.0
7252,63.0,2,19,3.0,101.0
7253,45.0,13,15,15.0,66.0
7254,57.0,3,1065,12.0,100.0
7255,66.0,0,1065,12.0,100.0
7256,86.0,1,25,0.0,114.0
7257,74.0,2,25,1.0,112.0
7258,82.0,1,30,10.0,120.0
7259,45.0,4,15,15.0,66.0
7260,74.0,2,25,2.0,112.0
7261,70.0,1,30,11.0,120.0
7262,62.0,6,25,3.0,113.0
7263,45.0,3,1,15.0,66.0
7264,84.0,1,19,0.0,99.0
7265,72.0,0,19,1.0,100.0
7266,81.0,14,24,10.0,117.0
7267,72.0,4,19,2.0,97.0
7268,69.0,1,24,11.0,117.0
7269,69.0,1,24,12.0,117.0
7270,60.0,5,19,3.0,101.0
7271,86.0,5,19,0.0,103.0
7272,74.0,1,19,2.0,99.0
7273,74.0,2,19,1.0,97.0
7274,82.0,1,24,10.0,103.0
7275,45.0,1,2,15.0,67.0
7276,70.0,2,24,11.0,103.0
7277,70.0,2,24,12.0,103.0
7278,62.0,2,19,3.0,100.0
7279,84.0,7,19,0.0,99.0
7280,72.0,1,19,1.0,100.0
7281,72.0,1,19,2.0,101.0
7282,60.0,2,19,3.0,100.0
7283,81.0,2,24,10.0,110.0
7284,69.0,0,24,11.0,110.0
7285,69.0,2,24,12.0,110.0
7286,45.0,5,1,15.0,67.0
7287,74.0,9,19,1.0,97.0
7288,86.0,1,19,0.0,102.0
7289,74.0,1,19,2.0,101.0
7290,62.0,2,19,3.0,98.0
7291,82.0,2,27,10.0,117.0
7292,45.0,2,1,15.0,69.0
7293,70.0,2,27,11.0,117.0
7294,70.0,3,27,12.0,117.0
7295,72.0,0,19,1.0,100.0
7296,84.0,4,19,0.0,104.0
7297,72.0,0,19,2.0,100.0
7298,45.0,1,1,15.0,69.0
7299,60.0,1,19,3.0,102.0
7300,81.0,6,27,10.0,97.0
7301,69.0,2,27,11.0,97.0
7302,86.0,5,19,0.0,100.0
7303,45.0,1,0,15.0,66.0
7304,69.0,2,27,12.0,97.0
7305,74.0,4,19,2.0,102.0
7306,74.0,1,19,1.0,99.0
7307,62.0,1,19,3.0,101.0
7308,84.0,0,19,0.0,101.0
7309,82.0,4,27,10.0,97.0
7310,72.0,3,19,1.0,100.0
7311,70.0,2,27,11.0,97.0
7312,72.0,2,19,2.0,98.0
7313,70.0,4,27,12.0,97.0
7314,60.0,8,19,3.0,101.0
7315,45.0,1,2,15.0,66.0
7316,86.0,2,19,0.0,102.0
7317,74.0,1,19,1.0,99.0
7318,81.0,0,27,10.0,97.0
7319,74.0,2,19,2.0,101.0
7320,69.0,2,27,11.0,97.0
7321,69.0,0,27,12.0,97.0
7322,62.0,9,19,3.0,102.0
7323,84.0,1,19,0.0,103.0
7324,72.0,3,19,1.0,97.0
7325,72.0,0,19,2.0,99.0
7326,82.0,2,27,10.0,97.0
7327,70.0,1,27,11.0,97.0
7328,45.0,0,2,15.0,66.0
7329,70.0,2,27,12.0,97.0
7330,60.0,2,19,3.0,100.0
7331,86.0,1,19,0.0,100.0
7332,74.0,4,19,1.0,97.0
7333,81.0,4,27,10.0,97.0
7334,74.0,1,19,2.0,97.0
7335,69.0,2,27,11.0,97.0
7336,62.0,4,19,3.0,98.0
7337,69.0,0,27,12.0,97.0
7338,84.0,7,19,0.0,99.0
7339,45.0,2,3,15.0,64.0
7340,72.0,0,19,1.0,100.0
7341,72.0,0,19,2.0,101.0
7342,82.0,3,27,10.0,97.0
7343,70.0,2,27,11.0,97.0
7344,60.0,6,19,3.0,102.0
7345,70.0,4,27,12.0,97.0
7346,74.0,4,19,1.0,97.0
7347,86.0,1,19,0.0,99.0
7348,74.0,1,19,2.0,99.0
7349,62.0,0,19,3.0,98.0
7350,45.0,1,3,15.0,66.0
7351,81.0,1,27,10.0,97.0
7352,69.0,2,27,11.0,97.0
7353,84.0,3,19,0.0,103.0
7354,69.0,5,27,12.0,97.0
7355,72.0,2,19,1.0,98.0
7356,72.0,1,19,2.0,102.0
7357,60.0,1,19,3.0,102.0
7358,82.0,5,27,10.0,97.0
7359,70.0,0,27,11.0,97.0
7360,45.0,4,0,15.0,68.0
7361,86.0,7,19,0.0,101.0
7362,70.0,5,27,12.0,97.0
7363,74.0,3,19,1.0,98.0
7364,74.0,2,19,2.0,100.0
7365,62.0,0,19,3.0,100.0
7366,81.0,2,27,10.0,97.0
7367,69.0,2,27,11.0,97.0
7368,84.0,2,19,0.0,102.0
7369,72.0,1,19,1.0,98.0
7370,69.0,5,27,12.0,97.0
7371,72.0,3,19,2.0,102.0
7372,60.0,1,19,3.0,98.0
7373,45.0,3,1,15.0,73.0
7374,86.0,1,19,0.0,101.0
7375,82.0,4,27,10.0,97.0
7376,70.0,2,27,11.0,97.0
7377,74.0,2,19,1.0,99.0
7378,74.0,5,19,2.0,98.0
7379,70.0,4,27,12.0,97.0
7380,62.0,3,19,3.0,99.0
7381,81.0,1,27,10.0,97.0
7382,84.0,2,19,0.0,99.0
7383,69.0,1,27,11.0,97.0
7384,45.0,0,1,15.0,78.0
7385,72.0,2,19,1.0,98.0
7386,72.0,0,19,2.0,98.0
7387,60.0,1,19,3.0,101.0
7388,69.0,2,27,12.0,97.0
7389,82.0,1,20,0.0,114.0
7390,48.0,1,1425,13.0,100.0
7391,36.0,0,1425,13.0,100.0
7392,70.0,2,20,1.0,112.0
7393,70.0,2,20,2.0,112.0
7394,36.0,5,1425,14.0,100.0
7395,79.0,13,30,10.0,120.0
7396,45.0,2,1,15.0,86.0
7397,70.0,0,60,7.0,127.0
7398,67.0,1,30,11.0,120.0
7399,58.0,5,20,3.0,113.0
7400,82.0,1,60,7.0,127.0
7401,58.0,3,60,8.0,127.0
7402,67.0,1,30,12.0,120.0
7403,80.0,12,32,7.0,127.0
7404,92.0,0,32,7.0,127.0
7405,50.0,3,15,15.0,89.0
7406,68.0,0,32,8.0,127.0
7407,50.0,9,1,15.0,91.0
7408,50.0,14,1,15.0,91.0
7409,94.0,14,32,7.0,127.0
7410,82.0,2,32,7.0,125.0
7411,70.0,3,32,8.0,126.0
7412,77.0,0,84,10.0,100.0
7413,65.0,1,84,12.0,100.0
7414,50.0,3,15,15.0,91.0
7415,80.0,4,32,7.0,119.0
7416,92.0,0,32,7.0,119.0
7417,68.0,10,32,8.0,114.0
7418,50.0,1,2,15.0,88.0
7419,80.0,1,120,0.0,99.0
7420,65.0,1,120,11.0,100.0
7421,68.0,2,120,1.0,97.0
7422,68.0,2,120,2.0,97.0
7423,94.0,3,32,7.0,111.0
7424,82.0,6,32,7.0,108.0
7425,56.0,4,120,3.0,98.0
7426,50.0,4,0,15.0,84.0
7427,70.0,3,32,8.0,104.0
7428,92.0,3,32,7.0,103.0
7429,80.0,0,32,7.0,103.0
7430,50.0,14,15,15.0,80.0
7431,68.0,4,32,8.0,102.0
7432,50.0,14,1,15.0,76.0
7433,94.0,6,32,7.0,101.0
7434,82.0,1,32,7.0,100.0
7435,50.0,8,0,15.0,72.0
7436,70.0,5,32,8.0,103.0
7437,68.0,1,84,10.0,100.0
7438,50.0,11,2,15.0,69.0
7439,56.0,7,84,12.0,100.0
7440,80.0,0,26,7.0,100.0
7441,92.0,7,26,7.0,100.0
7442,68.0,2,26,8.0,102.0
7443,82.0,5,26,7.0,100.0
7444,50.0,13,2,15.0,72.0
7445,94.0,5,26,7.0,101.0
7446,70.0,0,26,8.0,100.0
7447,92.0,0,26,7.0,101.0
7448,80.0,0,26,7.0,101.0
7449,50.0,1,2,15.0,70.0
7450,68.0,3,26,8.0,101.0
7451,94.0,12,26,7.0,102.0
7452,82.0,0,26,7.0,102.0
7453,70.0,2,26,8.0,102.0
7454,50.0,8,2,15.0,69.0
7455,92.0,5,26,7.0,102.0
7456,80.0,0,26,7.0,102.0
7457,74.0,1,84,10.0,100.0
7458,68.0,1,26,8.0,101.0
7459,62.0,7,84,12.0,100.0
7460,50.0,6,2,15.0,72.0
7461,94.0,1,26,7.0,102.0
7462,82.0,2,26,7.0,101.0
7463,70.0,4,26,8.0,102.0
7464,50.0,5,1,15.0,69.0
7465,92.0,0,17,7.0,103.0
7466,80.0,6,17,7.0,103.0
7467,68.0,3,17,8.0,103.0
7468,94.0,7,17,7.0,101.0
7469,82.0,1,17,7.0,102.0
7470,70.0,3,17,8.0,101.0
7471,50.0,3,15,15.0,70.0
7472,68.0,11,17,8.0,101.0
7473,92.0,0,17,7.0,103.0
7474,80.0,0,17,7.0,103.0
7475,50.0,1,0,15.0,70.0
7476,94.0,0,17,7.0,100.0
7477,82.0,9,17,7.0,100.0
7478,50.0,0,3,15.0,71.0
7479,70.0,5,17,8.0,100.0
7480,50.0,13,0,15.0,72.0
7481,80.0,0,17,7.0,100.0
7482,92.0,12,17,7.0,100.0
7483,68.0,2,17,8.0,102.0
7484,65.0,1,84,10.0,100.0
7485,53.0,0,84,12.0,100.0
7486,94.0,0,17,7.0,103.0
7487,82.0,2,17,7.0,103.0
7488,70.0,2,17,8.0,100.0
7489,50.0,7,3,15.0,70.0
7490,80.0,1,17,7.0,101.0
7491,92.0,0,17,7.0,101.0
7492,68.0,4,17,8.0,103.0
7493,50.0,7,0,15.0,71.0
7494,82.0,4,17,7.0,101.0
7495,94.0,2,17,7.0,100.0
7496,70.0,2,17,8.0,101.0
7497,92.0,5,17,7.0,100.0
7498,80.0,0,17,7.0,100.0
7499,68.0,2,17,8.0,101.0
7500,50.0,5,15,15.0,70.0
7501,82.0,7,17,7.0,103.0
7502,94.0,3,17,7.0,100.0
7503,70.0,4,17,8.0,101.0
7504,50.0,1,1,15.0,69.0
7505,92.0,0,17,7.0,101.0
7506,80.0,9,17,7.0,101.0
7507,50.0,1,0,15.0,69.0
7508,68.0,4,17,8.0,101.0
7509,50.0,0,0,15.0,71.0
7510,82.0,13,17,7.0,102.0
7511,94.0,1,17,7.0,102.0
7512,70.0,3,17,8.0,101.0
7513,68.0,1,84,10.0,100.0
7514,80.0,0,17,7.0,100.0
7515,92.0,12,17,7.0,100.0
7516,56.0,2,84,12.0,100.0
7517,68.0,4,17,8.0,102.0
7518,50.0,12,3,15.0,71.0
7519,82.0,13,17,7.0,103.0
7520,70.0,0,17,8.0,103.0
7521,94.0,0,17,7.0,101.0
7522,80.0,5,17,7.0,100.0
7523,92.0,0,17,7.0,100.0
7524,68.0,4,19,8.0,101.0
7525,50.0,1,15,15.0,71.0
7526,94.0,0,18,7.0,101.0
7527,82.0,5,18,7.0,102.0
7528,70.0,1,18,8.0,103.0
7529,50.0,9,15,15.0,70.0
7530,68.0,3,16,8.0,103.0
7531,92.0,0,18,7.0,101.0
7532,80.0,1,18,7.0,101.0
7533,50.0,3,3,15.0,71.0
7534,82.0,5,18,7.0,100.0
7535,94.0,2,18,7.0,103.0
7536,70.0,2,18,8.0,100.0
7537,80.0,0,18,7.0,103.0
7538,92.0,12,18,7.0,103.0
7539,50.0,1,15,15.0,70.0
7540,68.0,4,18,8.0,100.0
7541,62.0,7,84,10.0,100.0
7542,50.0,1,84,12.0,100.0
7543,50.0,0,1,15.0,70.0
7544,50.0,5,1,15.0,69.0
7545,50.0,2,0,15.0,69.0
7546,79.0,14,30,7.0,107.0
7547,91.0,0,30,7.0,106.0
7548,67.0,9,30,8.0,103.0
7549,89.0,0,17,7.0,102.0
7550,77.0,13,17,7.0,103.0
7551,80.0,0,22,10.0,127.0
7552,65.0,1,17,8.0,101.0
7553,68.0,7,22,12.0,127.0
7554,50.0,1,3,15.0,69.0
7555,79.0,8,17,7.0,100.0
7556,91.0,0,17,7.0,102.0
7557,82.0,4,22,10.0,114.0
7558,67.0,6,17,8.0,101.0
7559,77.0,3,17,7.0,101.0
7560,70.0,1,22,12.0,114.0
7561,89.0,5,17,7.0,100.0
7562,65.0,0,17,8.0,100.0
7563,50.0,6,2,15.0,69.0
7564,80.0,6,22,10.0,107.0
7565,79.0,0,17,7.0,102.0
7566,91.0,3,17,7.0,102.0
7567,68.0,4,22,12.0,107.0
7568,67.0,3,17,8.0,100.0
7569,89.0,3,17,7.0,103.0
7570,77.0,0,17,7.0,100.0
7571,82.0,2,25,10.0,100.0
7572,50.0,3,0,15.0,71.0
7573,65.0,4,17,8.0,100.0
7574,70.0,4,25,12.0,100.0
7575,79.0,8,17,7.0,102.0
7576,91.0,2,17,7.0,100.0
7577,50.0,2,1,15.0,71.0
7578,67.0,2,17,8.0,100.0
7579,80.0,2,25,10.0,100.0
7580,89.0,8,17,7.0,103.0
7581,68.0,0,25,12.0,100.0
7582,77.0,2,17,7.0,102.0
7583,65.0,2,17,8.0,103.0
7584,82.0,3,25,10.0,100.0
7585,50.0,2,15,15.0,72.0
7586,91.0,3,17,7.0,100.0
7587,79.0,2,17,7.0,103.0
7588,70.0,5,25,12.0,100.0
7589,67.0,4,17,8.0,101.0
7590,50.0,7,15,15.0,69.0
7591,89.0,0,17,7.0,102.0
7592,80.0,3,25,10.0,100.0
7593,77.0,2,17,7.0,101.0
7594,68.0,0,25,12.0,100.0
7595,65.0,10,17,8.0,103.0
7596,50.0,1,2,15.0,72.0
7597,79.0,3,17,7.0,100.0
7598,91.0,1,17,7.0,103.0
7599,82.0,3,25,10.0,100.0
7600,50.0,0,1,15.0,72.0
7601,67.0,6,17,8.0,103.0
7602,70.0,2,25,12.0,100.0
7603,77.0,3,17,7.0,101.0
7604,89.0,0,17,7.0,101.0
7605,65.0,4,17,8.0,101.0
7606,80.0,7,25,10.0,100.0
7607,68.0,0,25,12.0,100.0
7608,91.0,11,17,7.0,101.0
7609,79.0,0,17,7.0,102.0
7610,50.0,2,0,15.0,71.0
7611,67.0,1,17,8.0,100.0
7612,82.0,4,25,10.0,100.0
7613,89.0,7,17,7.0,101.0
7614,50.0,1,2,15.0,69.0
7615,70.0,5,25,12.0,100.0
7616,77.0,1,17,7.0,103.0
7617,65.0,1,17,8.0,103.0
7618,80.0,5,25,10.0,100.0
7619,79.0,1,17,7.0,102.0
7620,91.0,1,17,7.0,103.0
7621,67.0,5,17,8.0,100.0
7622,68.0,6,25,12.0,100.0
7623,50.0,0,15,15.0,70.0
7624,77.0,3,17,7.0,100.0
7625,89.0,0,17,7.0,102.0
7626,82.0,6,25,10.0,100.0
7627,65.0,5,17,8.0,101.0
7628,70.0,4,25,12.0,100.0
7629,50.0,5,1,15.0,72.0
7630,79.0,0,19,7.0,103.0
7631,91.0,1,19,7.0,103.0
7632,67.0,4,19,8.0,103.0
7633,80.0,2,25,10.0,100.0
7634,50.0,5,1,15.0,69.0
7635,68.0,2,25,12.0,100.0
7636,77.0,4,19,7.0,101.0
7637,89.0,1,19,7.0,102.0
7638,82.0,4,25,10.0,100.0
7639,65.0,0,19,8.0,103.0
7640,70.0,2,25,12.0,100.0
7641,79.0,9,19,7.0,101.0
7642,50.0,6,2,15.0,70.0
7643,91.0,2,19,7.0,102.0
7644,67.0,3,19,8.0,103.0
7645,80.0,0,25,10.0,100.0
7646,50.0,6,0,15.0,71.0
7647,68.0,4,25,12.0,100.0
7648,89.0,0,19,7.0,100.0
7649,77.0,1,19,7.0,101.0
7650,65.0,8,19,8.0,103.0
7651,47.0,1,1065,13.0,100.0
7652,35.0,1,1065,14.0,100.0
7653,79.0,0,30,10.0,120.0
7654,50.0,4,15,15.0,71.0
7655,87.0,2,30,7.0,98.0
7656,75.0,2,30,7.0,102.0
7657,58.0,5,0,5.0,100.0
7658,46.0,0,0,5.0,100.0
7659,67.0,3,30,12.0,120.0
7660,50.0,1,2,15.0,69.0
7661,63.0,5,35,8.0,102.0
7662,74.0,0,17,7.0,127.0
7663,86.0,1,17,7.0,127.0
7664,77.0,14,22,10.0,127.0
7665,62.0,0,20,8.0,127.0
7666,65.0,1,22,12.0,127.0
7667,87.0,2,17,7.0,101.0
7668,79.0,7,22,10.0,114.0
7669,50.0,2,1,15.0,70.0
7670,63.0,1,20,8.0,109.0
7671,67.0,5,22,12.0,114.0
7672,86.0,4,17,7.0,98.0
7673,74.0,5,17,7.0,110.0
7674,50.0,4,1,15.0,72.0
7675,77.0,3,22,10.0,107.0
7676,62.0,4,20,8.0,109.0
7677,65.0,1,22,12.0,107.0
7678,87.0,5,17,7.0,98.0
7679,63.0,2,20,8.0,107.0
7680,86.0,5,17,7.0,99.0
7681,79.0,5,25,10.0,100.0
7682,50.0,3,15,15.0,70.0
7683,74.0,3,17,7.0,111.0
7684,67.0,0,25,12.0,100.0
7685,62.0,6,20,8.0,111.0
7686,50.0,5,15,15.0,70.0
7687,77.0,3,25,10.0,100.0
7688,87.0,4,20,7.0,96.0
7689,65.0,2,25,12.0,100.0
7690,50.0,4,2,15.0,69.0
7691,63.0,5,23,8.0,111.0
7692,74.0,2,20,7.0,112.0
7693,86.0,3,20,7.0,102.0
7694,79.0,2,25,10.0,100.0
7695,50.0,5,0,15.0,69.0
7696,67.0,2,25,12.0,100.0
7697,87.0,2,20,7.0,102.0
7698,62.0,5,23,8.0,113.0
7699,77.0,3,25,10.0,100.0
7700,63.0,1,23,8.0,113.0
7701,65.0,1,25,12.0,100.0
7702,50.0,1,1,15.0,69.0
7703,74.0,0,20,7.0,114.0
7704,79.0,1,25,10.0,100.0
7705,86.0,7,20,7.0,97.0
7706,50.0,6,0,15.0,71.0
7707,67.0,0,25,12.0,100.0
7708,62.0,5,23,8.0,113.0
7709,87.0,1,20,7.0,97.0
7710,77.0,8,25,10.0,100.0
7711,65.0,0,25,12.0,100.0
7712,63.0,6,23,8.0,116.0
7713,50.0,2,15,15.0,72.0
7714,79.0,9,25,10.0,100.0
7715,67.0,5,25,12.0,100.0
7716,50.0,10,15,15.0,74.0
7717,74.0,2,17,7.0,121.0
7718,86.0,1,17,7.0,103.0
7719,50.0,2,2,15.0,77.0
7720,77.0,5,25,10.0,100.0
7721,62.0,4,20,8.0,117.0
7722,65.0,0,25,12.0,100.0
7723,50.0,10,0,15.0,79.0
7724,87.0,0,17,7.0,105.0
7725,63.0,2,20,8.0,123.0
7726,79.0,11,25,10.0,100.0
7727,67.0,3,25,12.0,100.0
7728,74.0,0,17,7.0,123.0
7729,86.0,3,17,7.0,100.0
7730,62.0,0,20,8.0,120.0
7731,77.0,2,25,10.0,100.0
7732,50.0,4,15,15.0,82.0
7733,65.0,7,25,12.0,100.0
7734,87.0,5,17,7.0,102.0
7735,63.0,3,20,8.0,120.0
7736,50.0,6,0,15.0,85.0
7737,86.0,6,17,7.0,106.0
7738,79.0,2,25,10.0,100.0
7739,74.0,8,17,7.0,120.0
7740,67.0,1,25,12.0,100.0
7741,62.0,0,20,8.0,121.0
7742,50.0,6,1,15.0,88.0
7743,77.0,1,25,10.0,100.0
7744,50.0,14,1,15.0,92.0
7745,65.0,7,25,12.0,100.0
7746,50.0,5,0,15.0,95.0
7747,46.0,1,345,13.0,100.0
7748,34.0,5,345,14.0,100.0
7749,74.0,1,30,10.0,120.0
7750,68.0,2,30,7.0,118.0
7751,46.0,0,0,5.0,100.0
7752,58.0,6,0,5.0,100.0
7753,62.0,5,30,12.0,120.0
7754,56.0,2,30,8.0,118.0
7755,74.0,16,60,10.0,100.0
7756,86.0,0,60,10.0,100.0
7757,65.0,1,60,12.0,100.0
7758,77.0,0,60,12.0,100.0
7759,62.0,0,60,8.0,127.0
7760,50.0,2,60,15.0,124.0
7761,65.0,2,60,8.0,127.0
7762,80.0,3,60,7.0,127.0
7763,68.0,2,60,8.0,127.0
7764,86.0,1,60,7.0,127.0
7765,89.0,3,60,7.0,127.0
7766,92.0,3,60,7.0,127.0
7767,45.0,0,330,13.0,100.0
7768,57.0,1,330,13.0,100.0
7769,45.0,4,330,3.0,98.0
7770,57.0,0,330,3.0,98.0
7771,45.0,1,330,14.0,100.0
7772,93.0,328,60,7.0,127.0
7773,89.0,1,60,7.0,127.0
7774,86.0,2,60,10.0,100.0
7775,74.0,0,60,10.0,100.0
7776,81.0,1,60,7.0,127.0
7777,86.0,1,60,7.0,127.0
7778,69.0,0,60,8.0,127.0
7779,62.0,2,60,8.0,127.0
7780,41.0,2,60,5.0,100.0
7781,53.0,0,60,5.0,100.0
7782,57.0,0,60,8.0,127.0
7783,65.0,1,60,8.0,127.0
7784,65.0,0,60,12.0,100.0
7785,77.0,0,60,12.0,100.0
7786,45.0,2,60,15.0,89.0
7787,53.0,1,220,13.0,100.0
7788,41.0,4,220,3.0,98.0
7789,53.0,0,220,3.0,98.0
7790,41.0,1,220,14.0,100.0
7791,50.0,233,100,13.0,100.0
7792,50.0,0,100,3.0,98.0
7793,38.0,4,100,3.0,98.0
7794,38.0,1,100,14.0,100.0
7795,62.0,1,60,13.0,100.0
7796,50.0,0,60,3.0,98.0
7797,62.0,4,60,3.0,98.0
7798,50.0,1,60,14.0,100.0
7799,65.0,113,60,13.0,100.0
7800,65.0,0,60,3.0,98.0
7801,53.0,4,60,3.0,98.0
7802,53.0,1,60,14.0,100.0
7803,62.0,0,240,6.0,125.0
7804,74.0,1,240,6.0,125.0
7805,50.0,2,240,15.0,89.0
7806,53.0,175,15,13.0,100.0
7807,53.0,0,15,3.0,98.0
7808,41.0,4,15,3.0,98.0
7809,41.0,1,15,14.0,100.0
7810,70.0,107,330,10.0,100.0
7811,65.0,0,330,10.0,100.0
7812,58.0,0,330,10.0,100.0
7813,62.0,0,330,11.0,100.0
7814,70.0,1,330,11.0,100.0
7815,58.0,0,330,5.0,100.0
7816,70.0,0,330,12.0,100.0
7817,62.0,1,330,12.0,100.0
7818,65.0,0,330,12.0,100.0
7819,55.0,25,15,13.0,100.0
7820,55.0,4,15,3.0,98.0
7821,43.0,0,15,3.0,98.0
7822,43.0,1,15,14.0,100.0
7823,56.0,0,15,3.0,98.0
7824,44.0,4,15,3.0,98.0
7825,56.0,1,20,13.0,120.0
7826,44.0,1,20,14.0,120.0
7827,58.0,14,15,3.0,98.0
7828,46.0,0,15,3.0,98.0
7829,58.0,1,20,13.0,114.0
7830,46.0,5,20,14.0,114.0
7831,44.0,0,15,3.0,98.0
7832,56.0,9,15,3.0,98.0
7833,56.0,6,20,13.0,107.0
7834,46.0,0,15,3.0,98.0
7835,58.0,4,15,3.0,98.0
7836,44.0,5,20,14.0,107.0
7837,44.0,4,15,3.0,98.0
7838,56.0,0,15,3.0,98.0
7839,58.0,11,20,13.0,100.0
7840,46.0,1,20,14.0,100.0
7841,58.0,0,15,3.0,98.0
7842,46.0,14,15,3.0,98.0
7843,56.0,1,20,13.0,100.0
7844,44.0,5,20,14.0,100.0
7845,56.0,0,15,3.0,98.0
7846,44.0,9,15,3.0,98.0
7847,58.0,6,20,13.0,100.0
7848,58.0,4,15,3.0,98.0
7849,46.0,0,15,3.0,98.0
7850,46.0,5,20,14.0,100.0
7851,56.0,0,15,3.0,98.0
7852,44.0,4,15,3.0,98.0
7853,56.0,11,20,13.0,100.0
7854,44.0,1,20,14.0,100.0
7855,46.0,0,15,3.0,98.0
7856,58.0,14,15,3.0,98.0
7857,58.0,1,20,13.0,100.0
7858,46.0,5,20,14.0,100.0
7859,56.0,0,15,3.0,98.0
7860,44.0,9,15,3.0,98.0
7861,56.0,6,20,13.0,100.0
7862,58.0,0,15,3.0,98.0
7863,46.0,4,15,3.0,98.0
7864,44.0,5,20,14.0,100.0
7865,44.0,0,15,3.0,98.0
7866,56.0,4,15,3.0,98.0
7867,58.0,11,20,13.0,100.0
7868,65.0,17,210,10.0,100.0
7869,65.0,2,210,11.0,100.0
7870,58.0,0,210,11.0,100.0
7871,46.0,1,20,14.0,100.0
7872,53.0,4,210,5.0,100.0
7873,46.0,14,15,3.0,98.0
7874,58.0,0,15,3.0,98.0
7875,65.0,1,220,12.0,100.0
7876,56.0,1,20,13.0,100.0
7877,44.0,5,20,14.0,100.0
7878,56.0,9,15,3.0,98.0
7879,44.0,0,15,3.0,98.0
7880,58.0,6,20,13.0,100.0
7881,46.0,4,15,3.0,98.0
7882,58.0,0,15,3.0,98.0
7883,46.0,5,20,14.0,100.0
7884,56.0,4,15,3.0,98.0
7885,44.0,0,15,3.0,98.0
7886,56.0,1,20,13.0,100.0
7887,44.0,1,20,14.0,100.0
7888,46.0,0,15,3.0,98.0
7889,58.0,14,15,3.0,98.0
7890,58.0,1,20,13.0,100.0
7891,46.0,5,20,14.0,100.0
7892,56.0,0,15,3.0,98.0
7893,44.0,9,15,3.0,98.0
7894,56.0,6,20,13.0,100.0
7895,44.0,5,20,14.0,100.0
7896,55.0,15,30,13.0,100.0
7897,62.0,3,100,10.0,100.0
7898,43.0,0,30,3.0,98.0
7899,56.0,2,100,11.0,100.0
7900,55.0,4,30,3.0,98.0
7901,62.0,0,100,11.0,100.0
7902,43.0,1,30,14.0,100.0
7903,50.0,4,100,5.0,100.0
7904,62.0,1,100,12.0,100.0
7905,82.0,0,720,0.0,99.0
7906,82.0,0,720,1.0,97.0
7907,70.0,1,720,1.0,97.0
7908,56.0,25,30,13.0,100.0
7909,56.0,0,30,3.0,98.0
7910,44.0,4,30,3.0,98.0
7911,44.0,1,30,14.0,100.0
7912,71.0,17,60,10.0,107.0
7913,62.0,0,60,11.0,107.0
7914,71.0,1,60,11.0,107.0
7915,50.0,2,60,5.0,107.0
7916,62.0,0,60,5.0,107.0
7917,62.0,1,60,12.0,107.0
7918,55.0,0,60,12.0,107.0
7919,77.0,0,60,10.0,100.0
7920,71.0,105,60,10.0,100.0
7921,77.0,2,60,11.0,100.0
7922,65.0,0,60,5.0,100.0
7923,53.0,4,60,5.0,100.0
7924,55.0,1,60,12.0,100.0
7925,62.0,0,60,12.0,100.0
7926,50.0,2,240,15.0,89.0
7927,74.0,173,15,10.0,100.0
7928,74.0,2,15,11.0,100.0
7929,55.0,1,330,13.0,100.0
7930,43.0,0,330,3.0,98.0
7931,55.0,4,330,3.0,98.0
7932,43.0,1,330,14.0,100.0
7933,76.0,28,15,10.0,100.0
7934,76.0,2,15,11.0,100.0
7935,77.0,28,20,10.0,120.0
7936,77.0,2,20,11.0,120.0
7937,79.0,6,20,10.0,114.0
7938,79.0,2,20,11.0,114.0
7939,77.0,18,23,10.0,107.0
7940,77.0,2,23,11.0,107.0
7941,79.0,17,23,10.0,100.0
7942,79.0,2,23,11.0,100.0
7943,77.0,18,23,10.0,100.0
7944,77.0,2,23,11.0,100.0
7945,79.0,18,23,10.0,100.0
7946,79.0,2,23,11.0,100.0
7947,77.0,17,23,10.0,100.0
7948,77.0,2,23,11.0,100.0
7949,79.0,18,23,10.0,100.0
7950,79.0,2,23,11.0,100.0
7951,77.0,17,23,10.0,100.0
7952,77.0,2,23,11.0,100.0
7953,79.0,18,23,10.0,100.0
7954,79.0,2,23,11.0,100.0
7955,77.0,18,23,10.0,100.0
7956,77.0,2,23,11.0,100.0
7957,50.0,1,220,13.0,100.0
7958,50.0,0,220,3.0,98.0
7959,38.0,4,220,3.0,98.0
7960,38.0,1,220,14.0,100.0
7961,79.0,17,23,10.0,100.0
7962,79.0,2,23,11.0,100.0
7963,77.0,18,23,10.0,100.0
7964,77.0,2,23,11.0,100.0
7965,79.0,1,23,10.0,100.0
7966,79.0,2,23,11.0,100.0
7967,77.0,18,23,10.0,100.0
7968,77.0,2,23,11.0,100.0
7969,76.0,24,30,10.0,100.0
7970,76.0,2,30,11.0,100.0
7971,55.0,5,330,12.0,100.0
7972,71.0,0,330,12.0,100.0
7973,62.0,0,330,12.0,100.0
7974,47.0,11,105,13.0,100.0
7975,47.0,4,105,3.0,98.0
7976,35.0,1,105,14.0,100.0
7977,77.0,28,30,10.0,100.0
7978,77.0,2,30,11.0,100.0
7979,77.0,0,1440,2.0,97.0
7980,59.0,1,60,13.0,100.0
7981,47.0,4,60,3.0,98.0
7982,59.0,0,60,3.0,98.0
7983,47.0,1,60,14.0,100.0
7984,50.0,2,120,15.0,81.0
7985,62.0,113,60,13.0,100.0
7986,62.0,4,60,3.0,98.0
7987,50.0,0,60,3.0,98.0
7988,50.0,1,60,14.0,100.0
7989,74.0,0,240,6.0,125.0
7990,62.0,1,240,6.0,125.0
7991,50.0,175,15,13.0,100.0
7992,50.0,4,15,3.0,98.0
7993,38.0,1,15,14.0,100.0
7994,71.0,0,330,10.0,83.0
7995,62.0,0,330,10.0,83.0
7996,78.0,28,330,10.0,100.0
7997,62.0,0,330,11.0,83.0
7998,71.0,2,330,11.0,83.0
7999,78.0,0,330,11.0,100.0
8000,71.0,1,330,12.0,100.0
8001,62.0,0,330,12.0,83.0
8002,66.0,1,335,4.0,100.0
8003,52.0,25,15,13.0,100.0
8004,52.0,4,15,3.0,98.0
8005,40.0,1,15,14.0,100.0
8006,55.0,4,15,3.0,98.0
8007,55.0,1,20,13.0,120.0
8008,43.0,1,20,14.0,120.0
8009,54.0,0,15,3.0,98.0
8010,54.0,14,20,13.0,114.0
8011,42.0,5,20,14.0,114.0
8012,55.0,10,15,3.0,98.0
8013,55.0,5,20,13.0,107.0
8014,43.0,5,20,14.0,107.0
8015,54.0,5,15,3.0,98.0
8016,54.0,9,20,13.0,100.0
8017,55.0,1,15,3.0,98.0
8018,42.0,5,20,14.0,100.0
8019,54.0,1,15,3.0,98.0
8020,55.0,14,20,13.0,100.0
8021,43.0,4,20,14.0,100.0
8022,55.0,11,15,3.0,98.0
8023,54.0,4,20,13.0,100.0
8024,42.0,5,20,14.0,100.0
8025,54.0,6,15,3.0,98.0
8026,55.0,8,20,13.0,100.0
8027,55.0,2,15,3.0,98.0
8028,43.0,5,20,14.0,100.0
8029,54.0,2,15,3.0,98.0
8030,54.0,13,20,13.0,100.0
8031,42.0,3,20,14.0,100.0
8032,55.0,12,15,3.0,98.0
8033,55.0,2,20,13.0,100.0
8034,43.0,5,20,14.0,100.0
8035,54.0,8,15,3.0,98.0
8036,54.0,7,20,13.0,100.0
8037,55.0,3,15,3.0,98.0
8038,42.0,5,20,14.0,100.0
8039,74.0,17,210,10.0,100.0
8040,74.0,2,210,11.0,100.0
8041,62.0,2,210,4.0,100.0
8042,62.0,3,210,12.0,100.0
8043,54.0,3,15,3.0,98.0
8044,55.0,12,20,13.0,100.0
8045,43.0,2,20,14.0,100.0
8046,55.0,13,15,3.0,98.0
8047,54.0,1,20,13.0,100.0
8048,42.0,5,20,14.0,100.0
8049,54.0,9,15,3.0,98.0
8050,55.0,1,20,13.0,100.0
8051,55.0,4,15,3.0,98.0
8052,43.0,1,20,14.0,100.0
8053,54.0,10,20,13.0,100.0
8054,54.0,5,15,3.0,98.0
8055,42.0,0,20,14.0,100.0
8056,55.0,15,15,3.0,98.0
8057,55.0,0,20,13.0,100.0
8058,43.0,5,20,14.0,100.0
8059,54.0,10,15,3.0,98.0
8060,53.0,11,30,13.0,100.0
8061,53.0,4,30,3.0,98.0
8062,41.0,1,30,14.0,100.0
8063,71.0,3,105,10.0,100.0
8064,71.0,2,105,11.0,100.0
8065,62.0,1,105,4.0,100.0
8066,59.0,3,105,12.0,100.0
8067,78.0,2,720,2.0,97.0
8068,55.0,25,30,13.0,100.0
8069,55.0,4,30,3.0,98.0
8070,43.0,1,30,14.0,100.0
8071,79.0,17,60,10.0,107.0
8072,79.0,2,60,11.0,107.0
8073,67.0,1,60,4.0,107.0
8074,50.0,2,120,15.0,81.0
8075,83.0,105,60,10.0,100.0
8076,83.0,2,60,11.0,100.0
8077,67.0,2,60,4.0,100.0
8078,86.0,1,2400,0.0,99.0
8079,62.0,0,240,6.0,125.0
8080,74.0,1,240,6.0,125.0
8081,62.0,0,240,12.0,100.0
8082,55.0,0,240,12.0,100.0
8083,71.0,1,240,12.0,100.0
8084,90.0,176,15,10.0,100.0
8085,90.0,1,15,0.0,99.0
8086,78.0,1,15,11.0,100.0
8087,66.0,5,15,12.0,100.0
8088,53.0,1,330,13.0,100.0
8089,53.0,4,330,3.0,98.0
8090,41.0,1,330,14.0,100.0
8091,91.0,23,15,10.0,100.0
8092,91.0,1,15,0.0,99.0
8093,79.0,1,15,11.0,100.0
8094,67.0,5,15,12.0,100.0
8095,83.0,1,1800,0.0,99.0
8096,93.0,1,19,0.0,99.0
8097,93.0,23,20,10.0,120.0
8098,81.0,1,20,11.0,120.0
8099,69.0,3,20,12.0,120.0
8100,91.0,1,19,0.0,99.0
8101,91.0,4,20,10.0,114.0
8102,79.0,1,20,11.0,114.0
8103,67.0,5,20,12.0,114.0
8104,93.0,13,19,0.0,99.0
8105,93.0,0,23,10.0,107.0
8106,81.0,2,23,11.0,107.0
8107,69.0,5,23,12.0,107.0
8108,91.0,0,19,0.0,99.0
8109,91.0,12,23,10.0,100.0
8110,79.0,2,23,11.0,100.0
8111,67.0,5,23,12.0,100.0
8112,93.0,12,19,0.0,99.0
8113,93.0,1,23,10.0,100.0
8114,81.0,2,23,11.0,100.0
8115,69.0,5,23,12.0,100.0
8116,91.0,12,19,0.0,99.0
8117,91.0,1,23,10.0,100.0
8118,79.0,2,23,11.0,100.0
8119,67.0,5,23,12.0,100.0
8120,93.0,11,19,0.0,99.0
8121,50.0,2,120,15.0,81.0
8122,93.0,1,23,10.0,100.0
8123,81.0,2,23,11.0,100.0
8124,69.0,5,23,12.0,100.0
8125,91.0,11,19,0.0,99.0
8126,91.0,2,23,10.0,100.0
8127,79.0,2,23,11.0,100.0
8128,67.0,5,23,12.0,100.0
8129,93.0,10,19,0.0,99.0
8130,93.0,2,23,10.0,100.0
8131,81.0,2,23,11.0,100.0
8132,69.0,5,23,12.0,100.0
8133,91.0,10,19,0.0,99.0
8134,91.0,3,23,10.0,100.0
8135,79.0,2,23,11.0,100.0
8136,67.0,5,23,12.0,100.0
8137,93.0,10,19,0.0,99.0
8138,93.0,3,23,10.0,100.0
8139,81.0,2,23,11.0,100.0
8140,69.0,5,23,12.0,100.0
8141,50.0,1,220,13.0,100.0
8142,91.0,9,19,0.0,99.0
8143,50.0,4,220,3.0,98.0
8144,38.0,1,220,14.0,100.0
8145,91.0,3,23,10.0,100.0
8146,79.0,2,23,11.0,100.0
8147,74.0,0,240,6.0,125.0
8148,62.0,1,240,6.0,125.0
8149,67.0,5,23,12.0,100.0
8150,93.0,9,19,0.0,99.0
8151,93.0,4,23,10.0,100.0
8152,81.0,2,23,11.0,100.0
8153,69.0,5,23,12.0,100.0
8154,91.0,2,19,0.0,99.0
8155,91.0,1,23,10.0,100.0
8156,79.0,2,23,11.0,100.0
8157,67.0,5,23,12.0,100.0
8158,93.0,8,19,0.0,99.0
8159,93.0,5,23,10.0,100.0
8160,81.0,2,23,11.0,100.0
8161,69.0,5,23,12.0,100.0
8162,91.0,8,19,0.0,99.0
8163,90.0,11,30,10.0,100.0
8164,90.0,1,30,0.0,99.0
8165,78.0,1,30,11.0,100.0
8166,66.0,5,30,12.0,100.0
8167,50.0,0,345,4.0,100.0
8168,62.0,1,345,4.0,100.0
8169,47.0,6,105,13.0,100.0
8170,47.0,2,105,3.0,98.0
8171,35.0,1,105,14.0,100.0
8172,91.0,23,30,10.0,100.0
8173,86.0,0,360,0.0,99.0
8174,91.0,1,30,0.0,99.0
8175,79.0,1,30,11.0,100.0
8176,71.0,2,2160,1.0,97.0
8177,83.0,0,2160,1.0,97.0
8178,79.0,2,720,2.0,97.0
8179,67.0,5,30,12.0,100.0
8180,50.0,15,0,15.0,69.0
8181,50.0,12,3,15.0,69.0
8182,50.0,15,0,15.0,72.0
8183,59.0,1,60,13.0,100.0
8184,59.0,4,60,3.0,98.0
8185,47.0,1,60,14.0,100.0
8186,50.0,18,15,15.0,72.0
8187,50.0,11,4,15.0,69.0
8188,50.0,15,0,15.0,70.0
8189,50.0,2,15,15.0,69.0
8190,50.0,13,2,15.0,72.0
8191,62.0,10,60,13.0,100.0
8192,62.0,4,60,3.0,98.0
8193,50.0,1,60,14.0,100.0
8194,50.0,15,15,15.0,72.0
8195,50.0,17,15,15.0,72.0
8196,50.0,11,4,15.0,70.0
8197,62.0,0,240,6.0,125.0
8198,74.0,1,240,6.0,125.0
8199,50.0,16,15,15.0,69.0
8200,50.0,14,1,15.0,69.0
8201,50.0,15,15,15.0,72.0
8202,50.0,12,3,15.0,72.0
8203,92.0,23,335,10.0,100.0
8204,80.0,1,335,11.0,100.0
8205,68.0,1,335,12.0,100.0
8206,50.0,16,15,15.0,71.0
8207,50.0,0,345,4.0,100.0
8208,62.0,0,345,4.0,100.0
8209,50.0,11,4,15.0,72.0
8210,74.0,2,0,2.0,97.0
8211,77.0,2,360,2.0,97.0
8212,46.0,1,20,13.0,120.0
8213,50.0,2,1,15.0,70.0
8214,48.0,4,19,3.0,98.0
8215,34.0,1,20,14.0,120.0
8216,50.0,11,1,15.0,72.0
8217,48.0,12,20,13.0,114.0
8218,46.0,2,19,3.0,98.0
8219,36.0,1,20,14.0,114.0
8220,46.0,4,20,13.0,107.0
8221,48.0,3,19,3.0,98.0
8222,34.0,2,20,14.0,107.0
8223,50.0,8,15,15.0,69.0
8224,48.0,6,20,13.0,100.0
8225,46.0,3,19,3.0,98.0
8226,36.0,2,20,14.0,100.0
8227,50.0,1,2,15.0,69.0
8228,46.0,10,20,13.0,100.0
8229,48.0,2,19,3.0,98.0
8230,34.0,2,20,14.0,100.0
8231,50.0,9,1,15.0,72.0
8232,48.0,15,20,13.0,100.0
8233,46.0,2,19,3.0,98.0
8234,36.0,3,20,14.0,100.0
8235,46.0,5,20,13.0,100.0
8236,48.0,2,19,3.0,98.0
8237,34.0,3,20,14.0,100.0
8238,50.0,0,2,15.0,72.0
8239,46.0,1,19,3.0,98.0
8240,48.0,8,20,13.0,100.0
8241,36.0,4,20,14.0,100.0
8242,50.0,10,3,15.0,72.0
8243,46.0,14,20,13.0,100.0
8244,48.0,1,19,3.0,98.0
8245,34.0,2,20,14.0,100.0
8246,46.0,0,19,3.0,98.0
8247,48.0,5,20,13.0,100.0
8248,50.0,4,1,15.0,71.0
8249,36.0,5,20,14.0,100.0
8250,91.0,2,220,10.0,100.0
8251,79.0,2,220,11.0,100.0
8252,48.0,0,19,3.0,98.0
8253,46.0,10,20,13.0,100.0
8254,67.0,0,220,12.0,100.0
8255,62.0,1,220,12.0,100.0
8256,34.0,1,20,14.0,100.0
8257,50.0,11,0,15.0,72.0
8258,46.0,14,19,3.0,98.0
8259,48.0,0,20,13.0,100.0
8260,62.0,1,240,6.0,125.0
8261,74.0,0,240,6.0,125.0
8262,36.0,4,20,14.0,100.0
8263,48.0,0,19,3.0,98.0
8264,46.0,1,20,13.0,100.0
8265,34.0,1,20,14.0,100.0
8266,46.0,13,19,3.0,98.0
8267,48.0,1,20,13.0,100.0
8268,50.0,1,15,15.0,70.0
8269,36.0,5,20,14.0,100.0
8270,48.0,12,19,3.0,98.0
8271,46.0,2,20,13.0,100.0
8272,50.0,12,3,15.0,68.0
8273,34.0,5,20,14.0,100.0
8274,46.0,1,19,3.0,98.0
8275,50.0,15,0,15.0,63.0
8276,80.0,1,90,10.0,88.0
8277,68.0,2,90,11.0,88.0
8278,62.0,4,90,12.0,88.0
8279,45.0,8,30,13.0,100.0
8280,45.0,4,30,3.0,98.0
8281,33.0,1,30,14.0,100.0
8282,50.0,1,345,4.0,100.0
8283,62.0,0,345,4.0,100.0
8284,86.0,0,720,0.0,99.0
8285,92.0,1,720,0.0,99.0
8286,50.0,4,15,15.0,60.0
8287,77.0,1,720,1.0,97.0
8288,80.0,0,720,1.0,97.0
8289,46.0,8,30,13.0,100.0
8290,46.0,4,30,3.0,98.0
8291,34.0,1,30,14.0,100.0
8292,69.0,13,120,10.0,66.0
8293,81.0,0,120,10.0,66.0
8294,88.0,0,120,0.0,84.0
8295,93.0,1,120,0.0,84.0
8296,69.0,1,120,11.0,66.0
8297,57.0,1,120,6.0,94.0
8298,69.0,0,120,6.0,94.0
8299,76.0,1,120,1.0,83.0
8300,81.0,0,120,1.0,83.0
8301,45.0,0,120,4.0,85.0
8302,57.0,0,120,4.0,85.0
8303,73.0,0,120,2.0,82.0
8304,76.0,2,120,2.0,82.0
8305,64.0,0,120,12.0,66.0
8306,61.0,1,120,12.0,66.0
8307,45.0,1,120,13.0,76.0
8308,45.0,4,120,3.0,83.0
8309,33.0,1,120,14.0,76.0
8310,45.0,2,120,15.0,79.0
8311,56.0,111,60,8.0,60.0
8312,57.0,56,60,8.0,51.0
8313,48.0,64,60,8.0,77.0
8314,49.0,57,60,8.0,63.0
8315,56.0,4,60,8.0,71.0
8316,61.0,57,120,10.0,45.0
8317,57.0,2,120,11.0,45.0
8318,57.0,53,60,8.0,57.0
8319,52.0,1,120,12.0,42.0
8320,45.0,1,120,13.0,42.0
8321,33.0,5,120,14.0,45.0
8322,60.0,56,60,8.0,62.0
8323,61.0,65,60,8.0,54.0
8324,68.0,3,60,8.0,63.0
8325,77.0,48,120,7.0,106.0
8326,65.0,4,120,7.0,106.0
8327,61.0,1,120,10.0,45.0
8328,57.0,2,120,11.0,45.0
8329,69.0,51,60,8.0,51.0
8330,52.0,2,120,12.0,42.0
8331,45.0,1,120,13.0,42.0
8332,33.0,5,120,14.0,45.0
8333,64.0,3,120,10.0,45.0
8334,57.0,1,120,11.0,45.0
8335,69.0,0,120,6.0,87.0
8336,57.0,1,120,6.0,87.0
8337,57.0,0,120,4.0,88.0
8338,45.0,1,120,4.0,88.0
8339,52.0,3,120,12.0,42.0
8340,49.0,1,120,13.0,42.0
8341,37.0,5,120,14.0,45.0
8342,45.0,2,120,15.0,38.0
8343,56.0,112,60,8.0,50.0
8344,57.0,58,60,8.0,44.0
8345,48.0,59,60,8.0,63.0
8346,49.0,63,60,8.0,57.0
8347,56.0,0,60,8.0,61.0
8348,76.0,53,480,7.0,71.0
8349,64.0,1,480,7.0,71.0
8350,57.0,0,120,6.0,87.0
8351,69.0,56,120,6.0,87.0
8352,57.0,0,120,4.0,88.0
8353,45.0,1,120,4.0,88.0
8354,57.0,52,60,8.0,55.0
8355,45.0,11,120,15.0,38.0
8356,60.0,4,60,8.0,57.0
8357,74.0,55,120,7.0,84.0
8358,61.0,57,60,8.0,55.0
8359,68.0,3,60,8.0,55.0
8360,73.0,56,105,7.0,95.0
8361,57.0,4,120,6.0,87.0
8362,69.0,1,0,6.0,87.0
8363,57.0,0,120,4.0,88.0
8364,45.0,0,0,4.0,88.0
8365,69.0,50,60,8.0,50.0
8366,45.0,2,0,15.0,38.0
8367,65.0,55,120,10.0,45.0
8368,57.0,0,120,11.0,45.0
8369,57.0,0,120,6.0,87.0
8370,57.0,1,120,4.0,88.0
8371,50.0,3,120,12.0,42.0
8372,50.0,1,120,13.0,42.0
8373,38.0,5,120,14.0,45.0
8374,56.0,107,60,8.0,50.0
8375,57.0,63,60,8.0,44.0
8376,49.0,60,60,8.0,63.0
8377,50.0,62,60,8.0,61.0
8378,56.0,3,60,8.0,63.0
8379,65.0,53,120,10.0,45.0
8380,57.0,2,120,11.0,45.0
8381,50.0,2,120,12.0,42.0
8382,57.0,54,60,8.0,57.0
8383,50.0,1,120,13.0,42.0
8384,38.0,5,120,14.0,45.0
8385,61.0,55,60,8.0,65.0
8386,71.0,2,585,7.0,75.0
8387,62.0,61,60,8.0,56.0
8388,68.0,1,60,8.0,62.0
8389,79.0,53,120,7.0,102.0
8390,67.0,2,120,7.0,102.0
8391,65.0,2,120,10.0,45.0
8392,69.0,49,60,8.0,57.0
8393,57.0,2,0,11.0,45.0
8394,50.0,4,120,12.0,42.0
8395,50.0,1,120,13.0,42.0
8396,38.0,5,120,14.0,45.0
8397,62.0,2,120,10.0,45.0
8398,57.0,0,120,6.0,87.0
8399,69.0,1,120,6.0,87.0
8400,45.0,1,120,4.0,88.0
8401,57.0,0,120,4.0,88.0
8402,53.0,3,120,12.0,42.0
8403,47.0,1,120,13.0,42.0
8404,35.0,5,120,14.0,45.0
8405,45.0,2,120,15.0,38.0
8406,56.0,112,60,8.0,50.0
8407,57.0,58,60,8.0,44.0
8408,49.0,58,60,8.0,70.0
8409,50.0,59,60,8.0,61.0
8410,56.0,2,60,8.0,71.0
8411,65.0,56,480,7.0,84.0
8412,77.0,0,480,7.0,84.0
8413,57.0,61,120,6.0,87.0
8414,69.0,0,120,6.0,87.0
8415,57.0,48,60,8.0,59.0
8416,45.0,1,120,4.0,88.0
8417,57.0,0,120,4.0,88.0
8418,45.0,9,120,15.0,38.0
8419,61.0,7,60,8.0,65.0
8420,76.0,55,120,7.0,84.0
8421,62.0,57,60,8.0,56.0
8422,64.0,2,60,8.0,66.0
8423,74.0,56,105,7.0,92.0
8424,57.0,0,120,6.0,87.0
8425,69.0,5,120,6.0,87.0
8426,57.0,1,120,4.0,88.0
8427,45.0,0,120,4.0,88.0
8428,65.0,50,60,8.0,55.0
8429,45.0,2,0,15.0,38.0
8430,64.0,55,120,10.0,45.0
8431,61.0,1,120,11.0,45.0
8432,57.0,1,120,6.0,87.0
8433,69.0,0,120,6.0,87.0
8434,45.0,0,120,4.0,88.0
8435,57.0,1,120,4.0,88.0
8436,57.0,3,120,12.0,42.0
8437,52.0,1,120,13.0,42.0
8438,40.0,5,120,14.0,45.0
8439,56.0,109,60,8.0,48.0
8440,73.0,1,240,7.0,92.0
8441,57.0,62,60,8.0,44.0
8442,51.0,3,60,8.0,70.0
8443,76.0,55,120,7.0,103.0
8444,52.0,61,60,8.0,60.0
8445,56.0,3,60,8.0,70.0
8446,64.0,0,120,10.0,45.0
8447,61.0,2,120,11.0,45.0
8448,57.0,52,60,8.0,61.0
8449,57.0,2,120,12.0,42.0
8450,52.0,1,120,13.0,42.0
8451,40.0,5,120,14.0,45.0
8452,63.0,61,60,8.0,68.0
8453,64.0,57,60,8.0,56.0
8454,68.0,1,60,8.0,65.0
8455,64.0,57,120,10.0,45.0
8456,61.0,2,120,11.0,45.0
8457,69.0,51,60,8.0,57.0
8458,57.0,3,0,12.0,42.0
8459,52.0,1,120,13.0,42.0
8460,40.0,5,120,14.0,45.0
8461,66.0,56,120,10.0,45.0
8462,63.0,2,120,11.0,45.0
8463,57.0,1,120,6.0,87.0
8464,69.0,0,120,6.0,87.0
8465,45.0,0,120,4.0,88.0
8466,57.0,1,120,4.0,88.0
8467,40.0,1,120,13.0,42.0
8468,28.0,5,120,14.0,45.0
8469,45.0,2,120,15.0,38.0
8470,56.0,107,60,8.0,48.0
8471,57.0,60,60,8.0,40.0
8472,51.0,65,60,8.0,68.0
8473,85.0,50,720,7.0,111.0
8474,73.0,5,720,7.0,92.0
8475,52.0,60,60,8.0,57.0
8476,56.0,0,60,8.0,70.0
8477,69.0,0,120,6.0,87.0
8478,57.0,1,120,6.0,87.0
8479,57.0,0,120,4.0,88.0
8480,45.0,1,120,4.0,88.0
8481,57.0,49,60,8.0,57.0
8482,45.0,11,120,15.0,38.0
8483,62.0,61,60,8.0,65.0
8484,63.0,59,60,8.0,57.0
8485,65.0,1,60,8.0,63.0
8486,57.0,59,120,6.0,87.0
8487,69.0,0,0,6.0,81.0
8488,57.0,1,0,4.0,82.0
8489,45.0,0,120,4.0,88.0
8490,66.0,52,60,8.0,55.0
8491,45.0,2,0,15.0,35.0
8492,57.0,56,120,6.0,81.0
8493,45.0,0,120,4.0,82.0
8494,52.0,4,120,13.0,42.0
8495,40.0,5,120,14.0,45.0
8496,56.0,110,60,8.0,46.0
8497,57.0,60,60,8.0,39.0
8498,51.0,58,60,8.0,63.0
8499,84.0,48,720,7.0,86.0
8500,72.0,7,720,7.0,81.0
8501,52.0,62,60,8.0,55.0
8502,58.0,0,60,8.0,61.0
8503,68.0,2,120,10.0,45.0
8504,64.0,2,120,11.0,45.0
8505,59.0,52,60,8.0,51.0
8506,59.0,4,120,12.0,42.0
8507,52.0,1,120,13.0,42.0
8508,40.0,5,120,14.0,45.0
8509,63.0,60,60,8.0,57.0
8510,64.0,59,60,8.0,56.0
8511,65.0,4,60,8.0,48.0
8512,66.0,56,120,10.0,45.0
8513,64.0,2,120,11.0,45.0
8514,66.0,52,60,8.0,51.0
8515,57.0,1,120,12.0,42.0
8516,52.0,1,120,13.0,42.0
8517,40.0,5,120,14.0,45.0
8518,68.0,55,120,10.0,45.0
8519,64.0,2,120,11.0,45.0
8520,59.0,5,120,12.0,42.0
8521,40.0,1,120,13.0,42.0
8522,28.0,5,120,14.0,45.0
8523,58.0,113,60,8.0,39.0
8524,83.0,53,600,7.0,69.0
8525,71.0,1,600,7.0,63.0
8526,59.0,59,60,8.0,37.0
8527,51.0,62,60,8.0,62.0
8528,52.0,59,60,8.0,48.0
8529,58.0,60,60,8.0,61.0
8530,59.0,57,60,8.0,54.0
8531,63.0,60,60,8.0,57.0
8532,64.0,59,60,8.0,56.0
8533,65.0,0,60,8.0,56.0
8534,66.0,49,45,8.0,50.0
8535,66.0,58,120,10.0,45.0
8536,64.0,2,120,11.0,45.0
8537,57.0,5,120,12.0,42.0
8538,52.0,1,120,13.0,42.0
8539,40.0,5,120,14.0,45.0
8540,67.0,58,120,7.0,55.0
8541,67.0,0,120,10.0,45.0
8542,59.0,0,120,7.0,48.0
8543,64.0,1,120,7.0,46.0
8544,64.0,1,120,11.0,45.0
8545,52.0,2,120,8.0,59.0
8546,59.0,1,120,12.0,42.0
8547,40.0,1,120,13.0,42.0
8548,28.0,5,120,14.0,45.0
8549,43.0,114,120,8.0,63.0
8550,40.0,120,120,8.0,62.0
8551,40.0,2,120,13.0,42.0
8552,28.0,5,120,14.0,45.0
8553,55.0,119,240,8.0,62.0
8554,64.0,3,105,8.0,72.0
8555,84.0,226,120,7.0,107.0
8556,72.0,4,120,7.0,99.0
8557,40.0,2,120,13.0,42.0
8558,28.0,5,120,14.0,45.0
8559,64.0,2,120,10.0,45.0
8560,59.0,2,120,11.0,45.0
8561,52.0,1,120,8.0,71.0
8562,52.0,3,120,12.0,42.0
8563,43.0,1,120,13.0,42.0
8564,31.0,5,120,14.0,45.0
8565,47.0,115,120,8.0,61.0
8566,43.0,120,120,8.0,63.0
8567,83.0,105,480,7.0,91.0
8568,64.0,112,120,10.0,45.0
8569,59.0,2,120,11.0,45.0
8570,71.0,1,480,7.0,84.0
8571,52.0,5,120,12.0,42.0
8572,81.0,107,120,7.0,91.0
8573,69.0,7,120,7.0,80.0
8574,55.0,2,240,8.0,63.0
8575,79.0,116,105,7.0,103.0
8576,67.0,0,105,7.0,91.0
8577,64.0,3,105,8.0,73.0
8578,64.0,2,0,10.0,45.0
8579,59.0,2,120,11.0,45.0
8580,67.0,2,1440,2.0,89.0
8581,52.0,1,0,12.0,42.0
8582,60.0,2,120,11.0,45.0
8583,52.0,2,120,8.0,71.0
8584,45.0,1,120,13.0,42.0
8585,33.0,5,120,14.0,45.0
8586,48.0,115,120,8.0,62.0
8587,45.0,119,120,8.0,63.0
8588,45.0,4,120,13.0,42.0
8589,33.0,5,120,14.0,45.0
8590,78.0,109,585,7.0,91.0
8591,66.0,2,585,7.0,84.0
8592,57.0,117,240,8.0,63.0
8593,64.0,6,105,8.0,71.0
8594,86.0,225,120,7.0,105.0
8595,74.0,3,120,7.0,99.0
8596,66.0,2,720,2.0,89.0
8597,45.0,1,120,13.0,42.0
8598,33.0,5,120,14.0,45.0
8599,64.0,0,120,10.0,45.0
8600,57.0,2,120,11.0,45.0
8601,52.0,2,120,8.0,72.0
8602,52.0,1,120,12.0,42.0
8603,42.0,1,120,13.0,42.0
8604,30.0,5,120,14.0,45.0
8605,45.0,112,120,8.0,61.0
8606,42.0,124,120,8.0,62.0
8607,84.0,106,480,7.0,84.0
8608,64.0,111,120,10.0,45.0
8609,72.0,1,480,7.0,75.0
8610,57.0,2,120,11.0,45.0
8611,52.0,5,120,12.0,42.0
8612,83.0,112,120,7.0,91.0
8613,71.0,1,120,7.0,84.0
8614,57.0,0,240,8.0,59.0
8615,81.0,118,105,7.0,91.0
8616,69.0,2,105,7.0,83.0
8617,60.0,4,105,8.0,71.0
8618,64.0,5,0,10.0,45.0
8619,57.0,0,120,11.0,45.0
8620,69.0,2,720,2.0,89.0
8621,52.0,1,0,12.0,42.0
8622,59.0,1,120,11.0,45.0
8623,59.0,4,120,8.0,72.0
8624,47.0,1,120,13.0,42.0
8625,35.0,5,120,14.0,45.0
8626,80.0,108,240,7.0,91.0
8627,68.0,1,240,7.0,82.0
8628,68.0,0,240,2.0,89.0
8629,52.0,114,120,8.0,63.0
8630,83.0,111,120,7.0,102.0
8631,71.0,2,120,7.0,91.0
8632,64.0,0,3240,2.0,89.0
8633,71.0,6,120,2.0,97.0
8634,47.0,2,120,8.0,67.0
8635,47.0,1,120,13.0,42.0
8636,35.0,5,120,14.0,45.0
8637,59.0,1,240,8.0,66.0
8638,64.0,231,105,8.0,67.0
8639,47.0,4,0,13.0,42.0
8640,35.0,5,0,14.0,45.0
8641,59.0,111,120,8.0,71.0
8642,52.0,116,120,8.0,53.0
8643,92.0,111,705,7.0,113.0
8644,80.0,2,705,7.0,94.0
8645,80.0,0,720,2.0,97.0
8646,47.0,119,120,8.0,53.0
8647,64.0,1,120,10.0,45.0
8648,59.0,2,120,11.0,45.0
8649,52.0,1,120,12.0,42.0
8650,59.0,4,240,8.0,51.0
8651,64.0,240,105,8.0,63.0
8652,47.0,1,120,13.0,42.0
8653,35.0,5,120,14.0,45.0
8654,46.0,115,120,13.0,42.0
8655,58.0,1,120,8.0,63.0
8656,34.0,4,120,14.0,45.0
8657,52.0,112,120,8.0,52.0
8658,91.0,111,705,7.0,113.0
8659,79.0,0,705,7.0,92.0
8660,46.0,119,120,8.0,52.0
8661,64.0,2,120,10.0,45.0
8662,64.0,1,120,11.0,45.0
8663,55.0,5,120,12.0,42.0
8664,58.0,2,240,8.0,49.0
8665,64.0,235,105,8.0,59.0
8666,76.0,5,1800,2.0,89.0
8667,46.0,4,120,13.0,42.0
8668,34.0,5,120,14.0,45.0
8669,55.0,111,120,8.0,60.0
8670,43.0,2,120,13.0,42.0
8671,31.0,5,120,14.0,45.0
8672,52.0,111,120,8.0,51.0
8673,97.0,111,705,7.0,110.0
8674,85.0,3,705,7.0,91.0
8675,73.0,1,720,0.0,114.0
8676,85.0,0,720,0.0,114.0
8677,43.0,125,120,8.0,50.0
8678,67.0,0,120,10.0,45.0
8679,64.0,1,120,11.0,45.0
8680,58.0,5,120,12.0,42.0
8681,58.0,1,240,8.0,44.0
8682,64.0,236,105,8.0,55.0
8683,43.0,4,120,13.0,42.0
8684,43.0,5,120,14.0,45.0
8685,40.0,0,120,13.0,42.0
8686,52.0,115,120,8.0,56.0
8687,28.0,5,120,14.0,45.0
8688,46.0,112,120,8.0,44.0
8689,96.0,110,705,7.0,92.0
8690,84.0,1,705,7.0,80.0
8691,84.0,0,720,0.0,114.0
8692,72.0,1,720,0.0,114.0
8693,40.0,120,120,8.0,45.0
8694,70.0,5,120,10.0,45.0
8695,67.0,1,120,11.0,45.0
8696,55.0,1,120,12.0,42.0
8697,55.0,3,240,8.0,42.0
8698,58.0,239,105,8.0,45.0
8699,40.0,2,120,13.0,42.0
8700,28.0,5,120,14.0,45.0
8701,37.0,0,120,13.0,42.0
8702,49.0,115,120,8.0,44.0
8703,25.0,5,120,14.0,45.0
8704,43.0,114,120,8.0,35.0
8705,101.0,110,705,7.0,103.0
8706,89.0,1,705,7.0,84.0
8707,89.0,1,720,0.0,114.0
8708,77.0,0,720,0.0,114.0
8709,37.0,121,120,8.0,35.0
8710,70.0,4,120,10.0,45.0
8711,67.0,0,120,11.0,45.0
8712,55.0,3,120,12.0,42.0
8713,55.0,2,240,8.0,34.0
8714,88.0,1,345,7.0,55.0
8715,58.0,239,105,8.0,30.0
8716,100.0,108,360,7.0,69.0
8717,76.0,1,360,0.0,114.0
8718,88.0,0,360,0.0,114.0
8719,64.0,0,7200,4.0,92.0
8720,79.0,0,3240,2.0,89.0
8721,70.0,2,2160,2.0,89.0
8722,36.0,242,120,13.0,100.0
8723,24.0,5,120,14.0,100.0
8724,40.0,115,120,13.0,100.0
8725,28.0,5,120,14.0,100.0
8726,43.0,115,120,13.0,100.0
8727,31.0,5,120,14.0,100.0
8728,47.0,115,120,13.0,83.0
8729,35.0,5,120,14.0,83.0
8730,82.0,107,40,7.0,54.0
8731,61.0,5,40,8.0,48.0
8732,73.0,34,40,7.0,37.0
8733,58.0,5,40,8.0,35.0
8734,70.0,35,40,7.0,37.0
8735,48.0,5,40,8.0,36.0
8736,82.0,34,40,7.0,41.0
8737,61.0,4,40,8.0,37.0
8738,73.0,36,40,7.0,37.0
8739,58.0,5,40,8.0,30.0
8740,70.0,37,40,7.0,39.0
8741,48.0,5,40,8.0,37.0
8742,82.0,33,40,7.0,41.0
8743,61.0,5,40,8.0,41.0
8744,73.0,37,40,7.0,37.0
8745,58.0,3,40,8.0,35.0
8746,70.0,38,40,7.0,39.0
8747,48.0,3,40,8.0,37.0
8748,82.0,30,40,7.0,57.0
8749,61.0,10,40,8.0,62.0
8750,73.0,33,40,7.0,40.0
8751,58.0,4,40,8.0,40.0
8752,70.0,39,40,7.0,42.0
8753,48.0,4,40,8.0,40.0
8754,80.0,34,40,7.0,73.0
8755,60.0,5,40,8.0,70.0
8756,72.0,37,40,7.0,44.0
8757,56.0,3,40,8.0,42.0
8758,68.0,37,40,7.0,44.0
8759,48.0,1,40,8.0,42.0
8760,79.0,36,40,7.0,82.0
8761,58.0,8,40,8.0,78.0
8762,70.0,34,40,7.0,46.0
8763,55.0,5,40,8.0,44.0
8764,67.0,34,40,7.0,47.0
8765,48.0,4,40,8.0,46.0
8766,79.0,35,40,7.0,80.0
8767,58.0,8,40,8.0,77.0
8768,70.0,33,40,7.0,50.0
8769,55.0,4,40,8.0,44.0
8770,67.0,37,40,7.0,47.0
8771,48.0,2,40,8.0,47.0
8772,79.0,34,40,7.0,56.0
8773,58.0,6,40,8.0,54.0
8774,70.0,38,40,7.0,44.0
8775,55.0,3,40,8.0,40.0
8776,67.0,37,40,7.0,42.0
8777,48.0,5,40,8.0,42.0
8778,80.0,30,40,7.0,79.0
8779,60.0,7,40,8.0,77.0
8780,72.0,38,40,7.0,50.0
8781,56.0,2,40,8.0,44.0
8782,68.0,38,40,7.0,50.0
8783,48.0,4,40,8.0,44.0
8784,77.0,32,40,7.0,80.0
8785,56.0,9,40,8.0,76.0
8786,68.0,33,40,7.0,50.0
8787,53.0,6,40,8.0,47.0
8788,65.0,38,40,7.0,47.0
8789,48.0,1,40,8.0,44.0
8790,77.0,35,40,7.0,56.0
8791,56.0,5,40,8.0,55.0
8792,68.0,38,40,7.0,46.0
8793,53.0,5,40,8.0,44.0
8794,65.0,34,40,7.0,46.0
8795,48.0,6,40,8.0,44.0
8796,80.0,30,40,7.0,79.0
8797,56.0,1,40,8.0,79.0
8798,68.0,37,40,7.0,50.0
8799,53.0,3,40,8.0,46.0
8800,80.0,5,120,0.0,87.0
8801,65.0,37,40,7.0,47.0
8802,68.0,3,120,1.0,97.0
8803,48.0,2,40,8.0,46.0
8804,60.0,1,1440,5.0,100.0
8805,48.0,0,1440,5.0,100.0
8806,84.0,33,40,7.0,79.0
8807,60.0,1,40,8.0,79.0
8808,80.0,34,40,7.0,47.0
8809,56.0,3,40,8.0,44.0
8810,72.0,37,40,7.0,47.0
8811,84.0,4,120,0.0,87.0
8812,53.0,3,40,8.0,44.0
8813,72.0,2,120,1.0,97.0
8814,88.0,36,40,7.0,79.0
8815,64.0,0,40,8.0,79.0
8816,80.0,37,40,7.0,50.0
8817,60.0,2,40,8.0,47.0
8818,76.0,37,40,7.0,47.0
8819,88.0,2,120,0.0,87.0
8820,53.0,3,40,8.0,46.0
8821,76.0,3,120,1.0,97.0
8822,89.0,33,40,7.0,80.0
8823,65.0,2,40,8.0,76.0
8824,80.0,38,40,7.0,47.0
8825,60.0,3,40,8.0,44.0
8826,73.0,34,40,7.0,47.0
8827,53.0,4,40,8.0,46.0
8828,68.0,0,360,2.0,85.0
8829,72.0,2,360,2.0,85.0
8830,48.0,115,1920,13.0,69.0
8831,36.0,5,1920,14.0,69.0
8832,89.0,32,40,7.0,79.0
8833,85.0,7,40,7.0,79.0
8834,61.0,4,40,8.0,76.0
8835,65.0,0,40,8.0,77.0
8836,82.0,36,40,7.0,53.0
8837,58.0,4,40,8.0,51.0
8838,77.0,32,40,7.0,53.0
8839,53.0,5,40,8.0,50.0
8840,89.0,33,40,7.0,46.0
8841,85.0,2,40,7.0,48.0
8842,65.0,5,40,8.0,44.0
8843,61.0,0,40,8.0,46.0
8844,82.0,25,40,7.0,47.0
8845,58.0,4,40,8.0,47.0
8846,77.0,38,40,7.0,53.0
8847,53.0,5,40,8.0,51.0
8848,46.0,5,120,13.0,100.0
8849,34.0,5,120,14.0,100.0
8850,89.0,31,40,7.0,51.0
8851,85.0,2,40,7.0,49.0
8852,65.0,4,40,8.0,48.0
8853,61.0,3,40,8.0,49.0
8854,82.0,27,40,7.0,51.0
8855,58.0,5,40,8.0,51.0
8856,77.0,35,40,7.0,53.0
8857,53.0,3,40,8.0,51.0
8858,37.0,3,120,13.0,100.0
8859,37.0,5,120,14.0,100.0
8860,89.0,34,40,7.0,62.0
8861,85.0,4,40,7.0,62.0
8862,61.0,4,40,8.0,61.0
8863,65.0,1,40,8.0,61.0
8864,82.0,29,40,7.0,53.0
8865,58.0,3,40,8.0,50.0
8866,89.0,5,600,0.0,87.0
8867,77.0,37,40,7.0,53.0
8868,77.0,1,600,1.0,97.0
8869,53.0,3,40,8.0,47.0
8870,41.0,2,120,13.0,100.0
8871,41.0,5,120,14.0,100.0
8872,89.0,34,40,7.0,55.0
8873,85.0,3,40,7.0,56.0
8874,65.0,1,40,8.0,54.0
8875,61.0,1,40,8.0,54.0
8876,58.0,0,40,8.0,46.0
8877,82.0,29,40,7.0,47.0
8878,77.0,0,40,7.0,47.0
8879,53.0,40,40,8.0,46.0
8880,45.0,4,120,13.0,100.0
8881,33.0,5,120,14.0,100.0
8882,85.0,33,40,7.0,82.0
8883,61.0,8,40,8.0,76.0
8884,77.0,27,40,7.0,47.0
8885,58.0,3,40,8.0,44.0
8886,73.0,35,40,7.0,47.0
8887,70.0,0,720,2.0,85.0
8888,53.0,8,40,8.0,47.0
8889,73.0,0,720,2.0,85.0
8890,82.0,31,40,7.0,82.0
8891,58.0,5,40,8.0,77.0
8892,73.0,36,40,7.0,47.0
8893,53.0,4,40,8.0,47.0
8894,70.0,37,40,7.0,50.0
8895,49.0,3,40,8.0,46.0
8896,46.0,5,240,13.0,100.0
8897,34.0,5,240,14.0,100.0
8898,82.0,36,40,7.0,59.0
8899,58.0,8,40,8.0,54.0
8900,73.0,28,40,7.0,47.0
8901,53.0,5,40,8.0,44.0
8902,70.0,35,40,7.0,50.0
8903,49.0,3,40,8.0,44.0
8904,47.0,2,120,13.0,83.0
8905,35.0,5,120,14.0,83.0
8906,80.0,35,40,7.0,79.0
8907,56.0,6,40,8.0,79.0
8908,77.0,27,40,7.0,47.0
8909,53.0,6,40,8.0,44.0
8910,68.0,32,40,7.0,47.0
8911,48.0,4,40,8.0,46.0
8912,41.0,0,1440,5.0,100.0
8913,53.0,0,1440,5.0,100.0
8914,79.0,34,40,7.0,80.0
8915,55.0,6,40,8.0,78.0
8916,76.0,34,40,7.0,47.0
8917,52.0,4,40,8.0,47.0
8918,72.0,35,40,7.0,47.0
8919,48.0,6,40,8.0,44.0
8920,79.0,33,40,7.0,53.0
8921,55.0,6,40,8.0,49.0
8922,76.0,34,40,7.0,47.0
8923,52.0,7,40,8.0,47.0
8924,72.0,34,40,7.0,50.0
8925,48.0,3,40,8.0,44.0
8926,80.0,33,40,7.0,82.0
8927,56.0,8,40,8.0,77.0
8928,77.0,35,40,7.0,47.0
8929,53.0,5,40,8.0,47.0
8930,68.0,35,40,7.0,50.0
8931,48.0,8,40,8.0,44.0
8932,82.0,30,40,7.0,88.0
8933,58.0,6,40,8.0,84.0
8934,79.0,37,40,7.0,47.0
8935,55.0,5,40,8.0,47.0
8936,70.0,37,40,7.0,50.0
8937,48.0,3,40,8.0,44.0
8938,82.0,35,40,7.0,63.0
8939,58.0,5,40,8.0,57.0
8940,79.0,34,40,7.0,47.0
8941,55.0,6,40,8.0,47.0
8942,70.0,36,40,7.0,50.0
8943,48.0,3,40,8.0,44.0
8944,84.0,36,40,7.0,79.0
8945,60.0,7,40,8.0,78.0
8946,80.0,36,40,7.0,50.0
8947,56.0,2,40,8.0,46.0
8948,72.0,35,40,7.0,47.0
8949,48.0,6,40,8.0,44.0
8950,87.0,33,40,7.0,83.0
8951,63.0,4,40,8.0,79.0
8952,79.0,37,40,7.0,51.0
8953,55.0,3,40,8.0,47.0
8954,75.0,40,40,7.0,50.0
8955,51.0,2,40,8.0,47.0
8956,87.0,33,40,7.0,59.0
8957,63.0,6,40,8.0,55.0
8958,79.0,35,40,7.0,42.0
8959,55.0,7,40,8.0,40.0
8960,75.0,36,40,7.0,42.0
8961,51.0,2,40,8.0,44.0
8962,85.0,33,40,7.0,79.0
8963,61.0,8,40,8.0,79.0
8964,77.0,36,40,7.0,47.0
8965,53.0,3,40,8.0,44.0
8966,73.0,39,40,7.0,47.0
8967,49.0,2,40,8.0,44.0
8968,84.0,35,40,7.0,79.0
8969,60.0,3,40,8.0,78.0
8970,76.0,38,40,7.0,47.0
8971,52.0,5,40,8.0,44.0
8972,72.0,37,40,7.0,47.0
8973,48.0,4,40,8.0,44.0
8974,84.0,30,40,7.0,55.0
8975,60.0,10,40,8.0,51.0
8976,76.0,34,40,7.0,40.0
8977,52.0,3,40,8.0,38.0
8978,72.0,36,40,7.0,38.0
8979,48.0,5,40,8.0,37.0
8980,84.0,32,40,7.0,55.0
8981,60.0,8,40,8.0,54.0
8982,76.0,38,40,7.0,40.0
8983,52.0,4,40,8.0,36.0
8984,72.0,36,40,7.0,30.0
8985,48.0,2,40,8.0,29.0
8986,48.0,3,1560,13.0,69.0
8987,36.0,5,1560,14.0,69.0
8988,58.0,2,40,11.0,79.0
8989,70.0,36,60,10.0,69.0
8990,61.0,30,40,11.0,86.0
8991,61.0,18,60,10.0,76.0
8992,58.0,22,40,11.0,86.0
8993,48.0,4,1560,5.0,100.0
8994,61.0,2,40,11.0,86.0
8995,70.0,38,60,10.0,76.0
8996,58.0,29,40,11.0,86.0
8997,61.0,18,60,10.0,76.0
8998,61.0,22,40,11.0,86.0
8999,48.0,6,120,13.0,100.0
9000,36.0,5,120,14.0,100.0
9001,58.0,2,40,11.0,86.0
9002,70.0,38,60,10.0,76.0
9003,61.0,29,40,11.0,86.0
9004,61.0,18,60,10.0,76.0
9005,58.0,22,40,11.0,86.0
9006,52.0,6,120,13.0,100.0
9007,40.0,5,120,14.0,100.0
9008,61.0,2,40,11.0,86.0
9009,70.0,38,60,10.0,76.0
9010,58.0,29,40,11.0,86.0
9011,61.0,18,60,10.0,76.0
9012,61.0,22,40,11.0,86.0
9013,70.0,4,480,2.0,123.0
9014,55.0,6,120,13.0,100.0
9015,43.0,5,120,14.0,100.0
9016,58.0,2,40,11.0,86.0
9017,68.0,38,60,10.0,76.0
9018,61.0,29,40,11.0,86.0
9019,61.0,18,60,10.0,76.0
9020,58.0,22,40,11.0,86.0
9021,68.0,4,120,2.0,123.0
9022,59.0,2,120,13.0,100.0
9023,47.0,5,120,14.0,100.0
9024,61.0,2,40,11.0,86.0
9025,67.0,38,60,10.0,76.0
9026,58.0,29,40,11.0,86.0
9027,61.0,18,50,10.0,76.0
9028,61.0,22,30,11.0,86.0
9029,67.0,4,110,2.0,123.0
9030,61.0,6,720,3.0,98.0
9031,58.0,0,720,3.0,98.0
9032,56.0,2,40,11.0,86.0
9033,67.0,38,60,10.0,76.0
9034,60.0,30,40,11.0,86.0
9035,60.0,18,60,10.0,76.0
9036,56.0,22,40,11.0,86.0
9037,60.0,1,40,11.0,86.0
9038,67.0,38,60,10.0,76.0
9039,56.0,40,40,11.0,86.0
9040,60.0,18,60,10.0,76.0
9041,72.0,1,120,0.0,99.0
9042,60.0,22,40,11.0,86.0
9043,67.0,4,240,2.0,123.0
9044,56.0,1,40,11.0,86.0
9045,68.0,38,60,10.0,76.0
9046,60.0,36,40,11.0,86.0
9047,60.0,18,60,10.0,76.0
9048,76.0,1,120,0.0,99.0
9049,56.0,22,40,11.0,86.0
9050,68.0,4,120,2.0,123.0
9051,60.0,1,40,11.0,86.0
9052,65.0,38,60,10.0,76.0
9053,56.0,36,40,11.0,86.0
9054,72.0,16,60,7.0,62.0
9055,60.0,0,60,8.0,61.0
9056,60.0,2,60,10.0,76.0
9057,77.0,1,120,0.0,99.0
9058,60.0,22,40,11.0,86.0
9059,56.0,1,40,11.0,86.0
9060,73.0,36,60,7.0,68.0
9061,65.0,2,60,10.0,76.0
9062,61.0,0,60,8.0,68.0
9063,60.0,40,40,11.0,86.0
9064,60.0,18,60,10.0,76.0
9065,60.0,0,60,8.0,77.0
9066,83.0,1,120,0.0,99.0
9067,72.0,1,60,7.0,72.0
9068,56.0,21,40,11.0,86.0
9069,60.0,1,40,11.0,86.0
9070,61.0,36,60,8.0,83.0
9071,65.0,2,60,10.0,76.0
9072,73.0,1,60,7.0,83.0
9073,56.0,40,40,11.0,86.0
9074,60.0,1,50,10.0,76.0
9075,60.0,20,30,11.0,86.0
9076,60.0,2,830,13.0,100.0
9077,72.0,17,60,7.0,86.0
9078,84.0,0,120,0.0,99.0
9079,60.0,2,60,8.0,91.0
9080,48.0,5,830,14.0,100.0
9081,65.0,4,360,2.0,123.0
9082,56.0,0,720,3.0,98.0
9083,60.0,6,720,3.0,98.0
9084,74.0,37,20,7.0,98.0
9085,62.0,3,20,8.0,93.0
9086,72.0,6,20,7.0,79.0
9087,60.0,6,20,8.0,76.0
9088,64.0,1,40,12.0,100.0
9089,74.0,16,20,7.0,77.0
9090,70.0,2,60,11.0,100.0
9091,62.0,5,20,8.0,77.0
9092,55.0,1,40,12.0,100.0
9093,72.0,13,28,7.0,74.0
9094,60.0,3,28,8.0,73.0
9095,74.0,3,28,7.0,77.0
9096,60.0,2,60,11.0,100.0
9097,62.0,4,28,8.0,74.0
9098,64.0,22,40,12.0,100.0
9099,72.0,21,34,7.0,79.0
9100,60.0,1,34,8.0,78.0
9101,55.0,4,40,12.0,100.0
9102,74.0,24,26,7.0,79.0
9103,70.0,7,60,11.0,100.0
9104,62.0,8,26,8.0,80.0
9105,72.0,9,26,7.0,79.0
9106,64.0,8,40,12.0,100.0
9107,60.0,3,26,8.0,80.0
9108,74.0,16,26,7.0,82.0
9109,62.0,2,26,8.0,83.0
9110,60.0,6,60,11.0,100.0
9111,55.0,6,40,12.0,100.0
9112,72.0,17,26,7.0,80.0
9113,60.0,13,26,8.0,84.0
9114,74.0,9,26,7.0,84.0
9115,64.0,5,40,12.0,100.0
9116,62.0,7,26,8.0,86.0
9117,70.0,3,60,11.0,100.0
9118,72.0,15,26,7.0,84.0
9119,60.0,1,26,8.0,85.0
9120,55.0,9,40,12.0,100.0
9121,74.0,2,26,7.0,86.0
9122,62.0,9,26,8.0,86.0
9123,72.0,5,26,7.0,88.0
9124,60.0,14,60,11.0,100.0
9125,64.0,14,40,12.0,100.0
9126,60.0,10,26,8.0,91.0
9127,76.0,1,38,7.0,88.0
9128,64.0,1,38,8.0,91.0
9129,55.0,4,40,12.0,100.0
9130,74.0,27,24,7.0,76.0
9131,70.0,20,60,11.0,100.0
9132,62.0,10,28,8.0,79.0
9133,65.0,2,40,12.0,100.0
9134,76.0,1,28,7.0,78.0
9135,64.0,4,30,8.0,78.0
9136,74.0,1,28,7.0,77.0
9137,70.0,1,480,10.0,120.0
9138,60.0,15,60,11.0,100.0
9139,62.0,8,28,8.0,73.0
9140,70.0,1,480,5.0,100.0
9141,55.0,20,40,12.0,100.0
9142,76.0,10,28,7.0,79.0
9143,64.0,0,28,8.0,78.0
9144,74.0,7,28,7.0,79.0
9145,65.0,1,40,12.0,100.0
9146,62.0,12,28,8.0,74.0
9147,69.0,2,60,11.0,100.0
9148,76.0,18,28,7.0,78.0
9149,64.0,4,25,8.0,80.0
9150,55.0,3,40,12.0,100.0
9151,74.0,10,23,7.0,83.0
9152,62.0,5,25,8.0,83.0
9153,76.0,6,23,7.0,82.0
9154,69.0,14,120,10.0,120.0
9155,60.0,11,60,11.0,100.0
9156,64.0,5,25,8.0,86.0
9157,69.0,4,120,5.0,100.0
9158,65.0,10,40,12.0,100.0
9159,74.0,19,23,7.0,85.0
9160,62.0,0,24,8.0,91.0
9161,76.0,8,23,7.0,88.0
9162,64.0,4,24,8.0,86.0
9163,55.0,1,40,12.0,100.0
9164,74.0,19,23,7.0,85.0
9165,67.0,2,60,11.0,100.0
9166,62.0,3,23,8.0,88.0
9167,76.0,7,23,7.0,86.0
9168,64.0,1,23,8.0,91.0
9169,65.0,6,40,12.0,100.0
9170,74.0,11,23,7.0,88.0
9171,62.0,7,23,8.0,88.0
9172,67.0,3,105,10.0,120.0
9173,60.0,8,45,11.0,100.0
9174,55.0,6,25,12.0,100.0
9175,67.0,4,110,5.0,100.0
9176,48.0,1,710,13.0,100.0
9177,76.0,10,23,7.0,87.0
9178,64.0,0,23,8.0,93.0
9179,36.0,1,710,14.0,100.0
9180,77.0,0,20,7.0,88.0
9181,65.0,2,20,8.0,92.0
9182,76.0,8,20,7.0,82.0
9183,64.0,6,20,8.0,79.0
9184,67.0,1,40,12.0,100.0
9185,70.0,2,60,11.0,100.0
9186,77.0,15,20,7.0,79.0
9187,65.0,1,20,8.0,79.0
9188,55.0,5,40,12.0,100.0
9189,76.0,12,28,7.0,74.0
9190,64.0,5,28,8.0,74.0
9191,77.0,2,28,7.0,76.0
9192,60.0,2,60,11.0,100.0
9193,65.0,7,28,8.0,78.0
9194,67.0,20,40,12.0,100.0
9195,76.0,20,28,7.0,79.0
9196,64.0,3,28,8.0,79.0
9197,77.0,18,21,7.0,78.0
9198,55.0,2,40,12.0,100.0
9199,65.0,7,21,8.0,79.0
9200,70.0,6,60,11.0,100.0
9201,76.0,14,21,7.0,79.0
9202,64.0,6,21,8.0,79.0
9203,67.0,1,40,12.0,100.0
9204,77.0,5,21,7.0,79.0
9205,65.0,5,21,8.0,79.0
9206,76.0,1,26,7.0,79.0
9207,60.0,9,60,11.0,100.0
9208,64.0,8,26,8.0,82.0
9209,55.0,15,40,12.0,100.0
9210,77.0,15,26,7.0,79.0
9211,65.0,9,26,8.0,79.0
9212,76.0,12,26,7.0,83.0
9213,67.0,5,40,12.0,100.0
9214,64.0,10,26,8.0,82.0
9215,70.0,2,60,11.0,100.0
9216,77.0,17,26,7.0,84.0
9217,65.0,8,26,8.0,82.0
9218,55.0,1,40,12.0,100.0
9219,76.0,12,26,7.0,83.0
9220,64.0,6,26,8.0,82.0
9221,60.0,7,60,11.0,100.0
9222,77.0,9,26,7.0,84.0
9223,67.0,7,40,12.0,100.0
9224,65.0,12,26,8.0,84.0
9225,76.0,2,26,7.0,83.0
9226,64.0,7,26,8.0,85.0
9227,55.0,3,40,12.0,100.0
9228,77.0,20,26,7.0,85.0
9229,70.0,14,60,11.0,100.0
9230,65.0,10,26,8.0,83.0
9231,76.0,11,26,7.0,88.0
9232,64.0,3,40,12.0,100.0
9233,64.0,7,26,8.0,88.0
9234,77.0,15,26,7.0,88.0
9235,70.0,23,480,10.0,100.0
9236,60.0,4,60,11.0,100.0
9237,65.0,9,26,8.0,87.0
9238,82.0,2,480,1.0,117.0
9239,55.0,3,40,12.0,100.0
9240,76.0,17,26,7.0,87.0
9241,64.0,1,26,8.0,86.0
9242,77.0,11,26,7.0,87.0
9243,64.0,3,40,12.0,100.0
9244,65.0,10,26,8.0,91.0
9245,69.0,1,60,11.0,100.0
9246,76.0,18,26,7.0,88.0
9247,64.0,6,26,8.0,91.0
9248,55.0,1,40,12.0,100.0
9249,77.0,7,26,7.0,91.0
9250,65.0,10,26,8.0,88.0
9251,69.0,7,120,10.0,100.0
9252,60.0,9,60,11.0,100.0
9253,81.0,2,120,1.0,117.0
9254,76.0,12,26,7.0,91.0
9255,64.0,8,40,12.0,100.0
9256,64.0,5,26,8.0,91.0
9257,77.0,1,26,7.0,88.0
9258,65.0,12,26,8.0,91.0
9259,55.0,3,40,12.0,100.0
9260,67.0,2,60,11.0,100.0
9261,76.0,18,26,7.0,91.0
9262,64.0,5,26,8.0,91.0
9263,64.0,4,40,12.0,100.0
9264,74.0,2,30,7.0,95.0
9265,62.0,6,30,8.0,96.0
9266,67.0,16,105,10.0,100.0
9267,60.0,15,45,11.0,100.0
9268,55.0,17,25,12.0,100.0
9269,79.0,2,110,1.0,117.0
9270,48.0,1,710,13.0,100.0
9271,76.0,2,30,7.0,96.0
9272,36.0,5,710,14.0,100.0
9273,64.0,7,30,8.0,98.0
9274,58.0,4,1440,3.0,98.0
9275,55.0,0,1440,3.0,98.0
9276,79.0,2,19,7.0,94.0
9277,67.0,0,19,8.0,94.0
9278,77.0,7,19,7.0,86.0
9279,62.0,3,40,12.0,100.0
9280,65.0,8,19,8.0,87.0
9281,79.0,10,19,7.0,83.0
9282,65.0,0,60,11.0,100.0
9283,67.0,0,19,8.0,83.0
9284,77.0,12,27,7.0,83.0
9285,53.0,9,40,12.0,100.0
9286,65.0,2,27,8.0,83.0
9287,79.0,20,27,7.0,84.0
9288,67.0,2,27,8.0,83.0
9289,58.0,3,60,11.0,100.0
9290,62.0,3,40,12.0,100.0
9291,77.0,21,27,7.0,86.0
9292,65.0,9,27,8.0,87.0
9293,79.0,11,20,7.0,88.0
9294,67.0,6,20,8.0,91.0
9295,53.0,5,40,12.0,100.0
9296,77.0,12,20,7.0,88.0
9297,65.0,3,60,11.0,100.0
9298,65.0,6,20,8.0,92.0
9299,79.0,11,20,7.0,91.0
9300,67.0,2,20,8.0,92.0
9301,62.0,5,40,12.0,100.0
9302,77.0,13,20,7.0,93.0
9303,65.0,5,20,8.0,93.0
9304,79.0,8,20,7.0,96.0
9305,67.0,7,20,8.0,94.0
9306,58.0,4,60,11.0,100.0
9307,53.0,5,40,12.0,100.0
9308,77.0,16,20,7.0,96.0
9309,65.0,3,20,8.0,98.0
9310,79.0,10,20,7.0,101.0
9311,67.0,7,20,8.0,98.0
9312,62.0,2,40,12.0,100.0
9313,77.0,11,20,7.0,106.0
9314,65.0,4,60,11.0,100.0
9315,65.0,8,20,8.0,102.0
9316,53.0,4,40,12.0,100.0
9317,76.0,11,30,7.0,101.0
9318,64.0,7,30,8.0,101.0
9319,77.0,3,30,7.0,106.0
9320,58.0,4,60,11.0,100.0
9321,62.0,18,40,12.0,100.0
9322,65.0,10,30,8.0,97.0
9323,53.0,5,40,12.0,100.0
9324,81.0,22,60,7.0,109.0
9325,65.0,0,60,11.0,100.0
9326,69.0,2,60,8.0,111.0
9327,62.0,38,40,12.0,100.0
9328,82.0,15,45,7.0,97.0
9329,70.0,6,45,8.0,106.0
9330,65.0,24,480,10.0,100.0
9331,58.0,0,60,11.0,100.0
9332,77.0,2,480,1.0,117.0
9333,53.0,19,40,12.0,100.0
9334,65.0,4,480,3.0,118.0
9335,60.0,3,40,12.0,100.0
9336,85.0,33,60,7.0,109.0
9337,64.0,2,60,11.0,100.0
9338,73.0,2,60,8.0,111.0
9339,53.0,35,40,12.0,100.0
9340,86.0,11,45,7.0,100.0
9341,74.0,0,45,8.0,101.0
9342,64.0,0,120,10.0,100.0
9343,58.0,4,60,11.0,100.0
9344,76.0,0,120,1.0,117.0
9345,60.0,25,40,12.0,100.0
9346,64.0,5,120,3.0,118.0
9347,53.0,2,40,12.0,100.0
9348,88.0,32,60,7.0,109.0
9349,62.0,2,60,11.0,100.0
9350,76.0,1,60,8.0,112.0
9351,58.0,35,40,12.0,100.0
9352,89.0,12,45,7.0,100.0
9353,77.0,6,45,8.0,100.0
9354,74.0,2,110,1.0,117.0
9355,50.0,1,710,13.0,100.0
9356,62.0,1,120,10.0,100.0
9357,58.0,3,60,11.0,100.0
9358,62.0,5,110,3.0,118.0
9359,38.0,1,710,14.0,100.0
9360,53.0,19,40,12.0,100.0
9361,50.0,0,720,3.0,118.0
9362,58.0,3,40,12.0,100.0
9363,90.0,32,60,7.0,123.0
9364,60.0,2,60,11.0,100.0
9365,78.0,1,60,8.0,122.0
9366,55.0,34,40,12.0,100.0
9367,91.0,13,45,7.0,111.0
9368,79.0,5,45,8.0,111.0
9369,58.0,2,60,11.0,100.0
9370,58.0,20,40,12.0,100.0
9371,55.0,2,40,12.0,100.0
9372,81.0,33,60,7.0,113.0
9373,60.0,2,60,11.0,100.0
9374,69.0,3,60,8.0,113.0
9375,58.0,40,40,12.0,100.0
9376,82.0,14,45,7.0,102.0
9377,60.0,1,230,10.0,100.0
9378,70.0,5,45,8.0,102.0
9379,72.0,1,230,1.0,117.0
9380,52.0,1,230,13.0,100.0
9381,58.0,1,60,11.0,100.0
9382,52.0,0,230,3.0,118.0
9383,60.0,4,230,3.0,118.0
9384,40.0,1,230,14.0,100.0
9385,55.0,20,40,12.0,100.0
9386,58.0,3,40,12.0,100.0
9387,90.0,33,60,7.0,127.0
9388,62.0,2,60,11.0,100.0
9389,78.0,1,60,8.0,127.0
9390,55.0,34,40,12.0,100.0
9391,91.0,1,45,7.0,117.0
9392,79.0,1,45,8.0,116.0
9393,58.0,15,60,11.0,100.0
9394,58.0,23,40,12.0,100.0
9395,55.0,5,40,12.0,100.0
9396,81.0,34,60,7.0,117.0
9397,62.0,1,60,11.0,100.0
9398,69.0,1,60,8.0,114.0
9399,58.0,39,40,12.0,100.0
9400,82.0,11,45,7.0,105.0
9401,70.0,1,45,8.0,102.0
9402,62.0,0,230,10.0,100.0
9403,74.0,2,230,1.0,117.0
9404,53.0,0,230,13.0,100.0
9405,58.0,4,60,11.0,100.0
9406,53.0,4,230,3.0,118.0
9407,62.0,0,230,3.0,118.0
9408,41.0,1,230,14.0,100.0
9409,55.0,24,40,12.0,100.0
9410,58.0,3,40,12.0,100.0
9411,60.0,2,60,11.0,100.0
9412,78.0,0,60,8.0,127.0
9413,90.0,1,60,7.0,127.0
9414,55.0,34,40,12.0,100.0
9415,91.0,12,45,7.0,117.0
9416,79.0,2,45,8.0,117.0
9417,58.0,3,60,11.0,100.0
9418,58.0,23,40,12.0,100.0
9419,55.0,0,40,12.0,100.0
9420,81.0,31,60,7.0,120.0
9421,60.0,4,60,11.0,100.0
9422,69.0,5,60,8.0,117.0
9423,58.0,40,40,12.0,100.0
9424,82.0,13,45,7.0,107.0
9425,60.0,33,230,10.0,100.0
9426,70.0,5,45,8.0,107.0
9427,72.0,1,230,1.0,117.0
9428,52.0,1,230,13.0,100.0
9429,58.0,2,60,11.0,100.0
9430,60.0,0,230,3.0,118.0
9431,52.0,4,230,3.0,118.0
9432,40.0,1,230,14.0,100.0
9433,55.0,20,40,12.0,100.0
9434,93.0,31,40,7.0,127.0
9435,81.0,2,40,8.0,127.0
9436,94.0,30,40,7.0,116.0
9437,82.0,3,40,8.0,113.0
9438,93.0,34,40,7.0,109.0
9439,81.0,6,40,8.0,109.0
9440,94.0,35,40,7.0,109.0
9441,82.0,9,40,8.0,109.0
9442,93.0,33,40,7.0,109.0
9443,81.0,7,40,8.0,109.0
9444,77.0,2,230,1.0,117.0
9445,50.0,1,230,13.0,100.0
9446,65.0,2,240,10.0,100.0
9447,94.0,31,40,7.0,107.0
9448,65.0,0,230,3.0,118.0
9449,50.0,2,230,3.0,118.0
9450,65.0,2,240,11.0,100.0
9451,38.0,1,230,14.0,100.0
9452,82.0,4,40,8.0,107.0
9453,93.0,0,40,7.0,109.0
9454,81.0,2,40,8.0,107.0
9455,94.0,28,40,7.0,109.0
9456,82.0,6,40,8.0,107.0
9457,93.0,34,25,7.0,109.0
9458,64.0,35,110,10.0,100.0
9459,64.0,2,110,11.0,100.0
9460,76.0,2,110,1.0,117.0
9461,81.0,9,25,8.0,109.0
9462,48.0,2,110,13.0,100.0
9463,64.0,4,110,3.0,118.0
9464,48.0,0,110,3.0,118.0
9465,36.0,1,110,14.0,100.0
9466,94.0,2,40,7.0,110.0
9467,82.0,4,40,8.0,112.0
9468,90.0,25,40,7.0,107.0
9469,78.0,10,40,8.0,109.0
9470,91.0,32,40,7.0,110.0
9471,79.0,10,40,8.0,112.0
9472,87.0,32,40,7.0,107.0
9473,75.0,8,40,8.0,109.0
9474,88.0,33,40,7.0,110.0
9475,76.0,2,40,8.0,110.0
9476,64.0,30,240,10.0,100.0
9477,64.0,0,240,11.0,100.0
9478,83.0,37,40,7.0,109.0
9479,76.0,2,240,1.0,117.0
9480,71.0,4,40,8.0,107.0
9481,48.0,4,240,3.0,118.0
9482,64.0,0,240,3.0,118.0
9483,84.0,37,40,7.0,110.0
9484,72.0,7,40,8.0,111.0
9485,81.0,31,40,7.0,109.0
9486,69.0,8,40,8.0,107.0
9487,82.0,33,25,7.0,112.0
9488,70.0,6,25,8.0,112.0
9489,78.0,31,40,7.0,109.0
9490,66.0,10,40,8.0,109.0
9491,79.0,33,40,7.0,109.0
9492,67.0,3,40,8.0,109.0
9493,76.0,38,40,7.0,109.0
9494,64.0,4,40,8.0,109.0
9495,72.0,34,40,7.0,107.0
9496,60.0,9,40,8.0,109.0
9497,70.0,31,40,7.0,107.0
9498,58.0,4,40,8.0,109.0
9499,67.0,34,40,7.0,107.0
9500,55.0,8,40,8.0,105.0
9501,65.0,35,40,7.0,102.0
9502,53.0,4,40,8.0,106.0
9503,64.0,36,40,7.0,103.0
9504,52.0,3,40,8.0,106.0
9505,65.0,33,40,7.0,105.0
9506,53.0,10,40,8.0,102.0
9507,64.0,35,40,7.0,100.0
9508,52.0,6,40,8.0,102.0
9509,62.0,30,40,7.0,100.0
9510,50.0,7,40,8.0,99.0
9511,64.0,34,40,7.0,100.0
9512,52.0,9,40,8.0,99.0
9513,62.0,30,40,7.0,100.0
9514,50.0,9,40,8.0,100.0
9515,60.0,35,40,7.0,102.0
9516,48.0,7,40,8.0,103.0
9517,62.0,31,40,7.0,101.0
9518,50.0,7,40,8.0,102.0
9519,60.0,31,40,7.0,92.0
9520,48.0,11,40,8.0,94.0
9521,59.0,29,40,7.0,92.0
9522,47.0,7,40,8.0,92.0
9523,60.0,37,40,7.0,88.0
9524,48.0,4,40,8.0,88.0
9525,62.0,33,60,7.0,85.0
9526,50.0,5,60,8.0,84.0
9527,48.0,0,1190,13.0,100.0
9528,60.0,54,60,7.0,82.0
9529,36.0,1,1190,14.0,100.0
9530,67.0,2,1560,5.0,100.0
9531,70.0,0,3720,5.0,100.0
9532,58.0,0,1560,12.0,100.0
9533,55.0,1,1560,12.0,100.0
9534,48.0,8,60,8.0,79.0
9535,59.0,52,60,7.0,76.0
9536,47.0,7,60,8.0,79.0
9537,60.0,57,60,7.0,71.0
9538,48.0,3,60,8.0,76.0
9539,62.0,52,60,7.0,70.0
9540,50.0,7,60,8.0,70.0
9541,60.0,53,60,7.0,66.0
9542,48.0,12,60,8.0,67.0
9543,59.0,50,60,7.0,66.0
9544,47.0,7,60,8.0,66.0
9545,60.0,53,60,7.0,61.0
9546,48.0,7,60,8.0,61.0
9547,62.0,53,60,7.0,59.0
9548,50.0,5,60,8.0,59.0
9549,60.0,55,60,7.0,57.0
9550,48.0,5,60,8.0,57.0
9551,59.0,55,60,7.0,51.0
9552,47.0,5,60,8.0,51.0
9553,48.0,54,60,8.0,48.0
9554,60.0,1,60,7.0,46.0
9555,60.0,1,113,7.0,59.0
9556,57.0,0,114,7.0,44.0
9557,53.0,0,120,7.0,42.0
9558,65.0,112,120,7.0,76.0
9559,57.0,3,120,7.0,56.0
9560,60.0,3,2,7.0,59.0
9561,41.0,60,345,8.0,42.0
9562,48.0,2,345,8.0,30.0
9563,67.0,115,120,7.0,79.0
9564,64.0,3,120,7.0,54.0
9565,29.0,1,120,8.0,51.0
9566,41.0,2,120,8.0,53.0
9567,69.0,117,240,7.0,84.0
9568,65.0,3,240,7.0,66.0
9569,60.0,1,1,7.0,63.0
9570,33.0,0,120,8.0,53.0
9571,45.0,119,120,8.0,53.0
9572,67.0,115,105,7.0,75.0
9573,64.0,1,105,7.0,63.0
9574,48.0,2,105,8.0,54.0
9575,36.0,1,105,8.0,53.0
9576,65.0,113,1,7.0,63.0
9577,62.0,1,120,7.0,71.0
9578,57.0,2,120,7.0,66.0
9579,69.0,1,120,7.0,79.0
9580,62.0,3,120,7.0,66.0
9581,50.0,2,240,8.0,44.0
9582,38.0,1,240,8.0,53.0
9583,48.0,2,105,8.0,59.0
9584,36.0,2,105,8.0,54.0
9585,74.0,117,120,7.0,83.0
9586,65.0,2,120,7.0,63.0
9587,69.0,1,120,7.0,66.0
9588,35.0,6,120,8.0,60.0
9589,47.0,1,120,8.0,59.0
9590,77.0,113,240,7.0,86.0
9591,67.0,2,240,7.0,66.0
9592,65.0,0,240,7.0,74.0
9593,74.0,1,240,7.0,66.0
9594,38.0,0,120,8.0,54.0
9595,50.0,114,120,8.0,52.0
9596,76.0,115,105,7.0,73.0
9597,72.0,1,105,7.0,63.0
9598,64.0,0,105,7.0,56.0
9599,67.0,3,105,7.0,59.0
9600,43.0,0,2,8.0,54.0
9601,55.0,4,120,8.0,59.0
9602,75.0,110,120,7.0,87.0
9603,66.0,0,120,7.0,73.0
9604,72.0,5,120,7.0,74.0
9605,57.0,3,120,8.0,52.0
9606,74.0,112,120,7.0,87.0
9607,65.0,3,120,7.0,71.0
9608,67.0,1,1,7.0,73.0
9609,59.0,4,120,8.0,61.0
9610,55.0,1,105,8.0,54.0
9611,72.0,110,120,7.0,81.0
9612,64.0,4,120,7.0,73.0
9613,60.0,4,120,8.0,59.0
9614,71.0,112,120,7.0,86.0
9615,55.0,0,225,8.0,73.0
9616,69.0,113,120,7.0,86.0
9617,60.0,2,240,7.0,79.0
9618,66.0,1,240,7.0,79.0
9619,63.0,2,240,8.0,74.0
9620,71.0,119,105,7.0,83.0
9621,65.0,6,105,7.0,74.0
9622,62.0,3,105,8.0,62.0
9623,55.0,1,105,8.0,62.0
9624,72.0,113,120,7.0,75.0
9625,64.0,2,120,7.0,67.0
9626,60.0,6,120,8.0,57.0
9627,59.0,1,60,8.0,51.0
9628,43.0,0,225,8.0,57.0
9629,66.0,111,120,7.0,69.0
9630,60.0,2,120,7.0,60.0
9631,57.0,57,60,8.0,48.0
9632,63.0,2,120,7.0,57.0
9633,55.0,1,60,8.0,47.0
9634,67.0,59,105,7.0,62.0
9635,53.0,57,45,8.0,51.0
9636,62.0,1,105,7.0,47.0
9637,59.0,1,105,7.0,54.0
9638,43.0,0,105,8.0,60.0
9639,53.0,2,120,8.0,53.0
9640,52.0,116,60,8.0,53.0
9641,36.0,1,225,8.0,56.0
9642,67.0,60,240,7.0,77.0
9643,50.0,61,60,8.0,46.0
9644,48.0,58,60,8.0,45.0
9645,55.0,1,355,7.0,61.0
9646,60.0,2,355,7.0,65.0
9647,46.0,60,55,8.0,41.0
9648,36.0,3,115,8.0,51.0
9649,41.0,58,120,8.0,37.0
9650,60.0,1,120,7.0,57.0
9651,45.0,1,120,8.0,32.0
9652,53.0,1,120,7.0,48.0
9653,65.0,114,120,7.0,80.0
9654,57.0,0,120,7.0,59.0
9655,60.0,4,1,7.0,59.0
9656,67.0,115,120,7.0,73.0
9657,60.0,3,1,7.0,66.0
9658,64.0,2,120,7.0,62.0
9659,29.0,3,120,8.0,59.0
9660,41.0,2,120,8.0,56.0
9661,69.0,114,240,7.0,80.0
9662,65.0,2,240,7.0,66.0
9663,45.0,117,120,8.0,53.0
9664,33.0,2,120,8.0,51.0
9665,67.0,113,105,7.0,79.0
9666,64.0,0,105,7.0,56.0
9667,60.0,2,105,7.0,59.0
9668,48.0,3,105,8.0,54.0
9669,36.0,3,105,8.0,54.0
9670,65.0,112,120,7.0,86.0
9671,57.0,2,120,7.0,67.0
9672,62.0,117,3,7.0,66.0
9673,50.0,1,225,8.0,54.0
9674,38.0,1,225,8.0,54.0
9675,69.0,0,120,7.0,86.0
9676,65.0,0,1,7.0,66.0
9677,74.0,118,120,7.0,87.0
9678,69.0,1,120,7.0,63.0
9679,48.0,3,120,8.0,61.0
9680,36.0,0,120,8.0,54.0
9681,34.0,0,120,8.0,63.0
9682,46.0,3,120,8.0,66.0
9683,79.0,116,240,7.0,87.0
9684,67.0,1,240,7.0,76.0
9685,74.0,2,240,7.0,80.0
9686,38.0,119,120,8.0,51.0
9687,50.0,2,120,8.0,53.0
9688,77.0,110,105,7.0,75.0
9689,65.0,3,105,7.0,59.0
9690,74.0,3,105,7.0,63.0
9691,55.0,0,105,8.0,52.0
9692,43.0,2,105,8.0,54.0
9693,64.0,3,120,7.0,66.0
9694,72.0,1,120,7.0,66.0
9695,79.0,113,120,7.0,75.0
9696,76.0,113,240,7.0,79.0
9697,74.0,0,120,7.0,66.0
9698,67.0,3,120,7.0,69.0
9699,46.0,1,240,8.0,64.0
9700,58.0,1,240,8.0,61.0
9701,84.0,120,105,7.0,73.0
9702,77.0,0,105,7.0,66.0
9703,72.0,0,105,7.0,66.0
9704,45.0,3,105,8.0,66.0
9705,57.0,4,105,8.0,61.0
9706,56.0,3,120,8.0,75.0
9707,44.0,1,120,8.0,74.0
9708,77.0,112,180,7.0,80.0
9709,72.0,0,180,7.0,76.0
9710,84.0,1,180,7.0,86.0
9711,50.0,119,120,8.0,63.0
9712,38.0,0,120,8.0,64.0
9713,83.0,53,120,7.0,87.0
9714,71.0,3,120,7.0,76.0
9715,77.0,4,120,7.0,69.0
9716,84.0,55,45,7.0,86.0
9717,72.0,2,45,7.0,71.0
9718,55.0,0,120,8.0,68.0
9719,43.0,61,120,8.0,64.0
9720,49.0,3,120,8.0,64.0
9721,37.0,1,120,8.0,66.0
9722,82.0,56,165,7.0,80.0
9723,70.0,2,165,7.0,69.0
9724,77.0,3,165,7.0,69.0
9725,53.0,118,120,8.0,73.0
9726,41.0,3,120,8.0,66.0
9727,81.0,50,120,7.0,87.0
9728,77.0,2,120,7.0,76.0
9729,69.0,2,120,7.0,76.0
9730,82.0,52,45,7.0,87.0
9731,70.0,4,45,7.0,79.0
9732,36.0,64,120,8.0,72.0
9733,48.0,2,120,8.0,72.0
9734,41.0,4,120,8.0,66.0
9735,53.0,0,120,8.0,73.0
9736,69.0,56,165,7.0,73.0
9737,77.0,0,165,7.0,79.0
9738,81.0,1,165,7.0,87.0
9739,47.0,0,120,8.0,74.0
9740,35.0,122,120,8.0,73.0
9741,79.0,51,120,7.0,87.0
9742,77.0,0,120,7.0,79.0
9743,74.0,2,120,7.0,79.0
9744,67.0,1,120,7.0,79.0
9745,81.0,54,45,7.0,84.0
9746,69.0,3,45,7.0,80.0
9747,41.0,65,120,8.0,66.0
9748,53.0,0,120,8.0,73.0
9749,74.0,54,120,7.0,86.0
9750,48.0,1,120,8.0,62.0
9751,36.0,4,120,8.0,69.0
9752,76.0,14,60,7.0,86.0
9753,41.0,111,120,8.0,49.0
9754,53.0,1,120,8.0,57.0
9755,74.0,47,60,7.0,81.0
9756,73.0,59,60,7.0,81.0
9757,65.0,4,345,7.0,71.0
9758,69.0,2,345,7.0,66.0
9759,47.0,6,120,8.0,49.0
9760,35.0,2,120,8.0,53.0
9761,76.0,50,57,7.0,86.0
9762,77.0,31,60,7.0,75.0
9763,53.0,21,120,8.0,63.0
9764,41.0,4,120,8.0,59.0
9765,74.0,50,300,7.0,86.0
9766,34.0,9,120,8.0,62.0
9767,46.0,2,120,8.0,56.0
9768,79.0,73,180,7.0,73.0
9769,72.0,60,45,7.0,62.0
9770,52.0,0,120,8.0,47.0
9771,40.0,116,120,8.0,47.0
9772,72.0,11,25,7.0,62.0
9773,33.0,58,60,8.0,66.0
9774,60.0,8,60,7.0,59.0
9775,65.0,8,60,7.0,62.0
9776,69.0,8,60,7.0,63.0
9777,72.0,30,30,7.0,71.0
9778,45.0,4,60,8.0,64.0
9779,48.0,4,60,8.0,66.0
9780,65.0,36,40,7.0,74.0
9781,69.0,16,40,7.0,76.0
9782,60.0,24,60,8.0,84.0
9783,65.0,40,40,7.0,76.0
9784,53.0,4,60,8.0,70.0
9785,69.0,36,40,7.0,76.0
9786,48.0,24,45,8.0,70.0
9787,65.0,16,40,7.0,76.0
9788,67.0,40,40,7.0,76.0
9789,34.0,4,60,8.0,84.0
9790,64.0,36,40,7.0,76.0
9791,67.0,16,40,7.0,76.0
9792,46.0,24,60,8.0,70.0
9793,64.0,40,40,7.0,76.0
9794,77.0,51,405,7.0,94.0
9795,48.0,4,60,8.0,70.0
9796,67.0,36,40,7.0,76.0
9797,72.0,20,42,7.0,92.0
9798,64.0,16,40,7.0,76.0
9799,60.0,4,60,8.0,84.0
9800,79.0,40,42,7.0,92.0
9801,52.0,4,60,8.0,70.0
9802,64.0,36,40,7.0,76.0
9803,72.0,20,42,7.0,92.0
9804,48.0,4,45,8.0,70.0
9805,67.0,16,40,7.0,76.0
9806,77.0,40,60,7.0,92.0
9807,33.0,4,60,8.0,84.0
9808,65.0,36,40,7.0,76.0
9809,72.0,20,30,7.0,92.0
9810,69.0,16,40,7.0,76.0
9811,45.0,4,60,8.0,70.0
9812,48.0,4,60,8.0,70.0
9813,65.0,36,40,7.0,76.0
9814,69.0,16,40,7.0,76.0
9815,60.0,24,60,8.0,84.0
9816,65.0,40,40,7.0,76.0
9817,53.0,4,60,8.0,70.0
9818,69.0,36,40,7.0,76.0
9819,48.0,24,45,8.0,70.0
9820,65.0,16,40,7.0,76.0
9821,70.0,40,40,7.0,76.0
9822,36.0,4,60,8.0,84.0
9823,64.0,36,40,7.0,76.0
9824,70.0,16,40,7.0,76.0
9825,48.0,24,60,8.0,70.0
9826,64.0,40,40,7.0,76.0
9827,77.0,40,405,7.0,109.0
9828,55.0,4,60,8.0,70.0
9829,70.0,36,40,7.0,76.0
9830,72.0,20,42,7.0,93.0
9831,64.0,16,40,7.0,76.0
9832,60.0,4,60,8.0,84.0
9833,79.0,40,42,7.0,93.0
9834,55.0,4,60,8.0,70.0
9835,64.0,36,40,7.0,76.0
9836,72.0,20,42,7.0,93.0
9837,52.0,4,45,8.0,70.0
9838,70.0,16,40,7.0,76.0
9839,81.0,40,60,7.0,94.0
9840,39.0,4,60,8.0,84.0
9841,65.0,36,40,7.0,77.0
9842,72.0,20,30,7.0,94.0
9843,69.0,16,40,7.0,77.0
9844,51.0,4,60,8.0,71.0
9845,53.0,4,60,8.0,71.0
9846,72.0,36,40,7.0,77.0
9847,77.0,16,40,7.0,78.0
9848,60.0,24,60,8.0,87.0
9849,69.0,40,40,7.0,78.0
9850,53.0,4,60,8.0,72.0
9851,72.0,36,40,7.0,78.0
9852,51.0,20,45,8.0,72.0
9853,65.0,20,40,7.0,79.0
9854,70.0,40,40,7.0,79.0
9855,38.0,4,60,8.0,91.0
9856,65.0,36,40,7.0,79.0
9857,70.0,16,40,7.0,79.0
9858,50.0,24,60,8.0,73.0
9859,65.0,40,40,7.0,79.0
9860,81.0,40,405,7.0,109.0
9861,53.0,4,60,8.0,73.0
9862,70.0,36,40,7.0,83.0
9863,74.0,20,42,7.0,103.0
9864,65.0,16,40,7.0,83.0
9865,62.0,4,60,8.0,93.0
9866,82.0,40,42,7.0,96.0
9867,53.0,4,60,8.0,77.0
9868,65.0,36,40,7.0,84.0
9869,74.0,20,42,7.0,96.0
9870,50.0,4,45,8.0,78.0
9871,70.0,16,40,7.0,84.0
9872,83.0,40,60,7.0,99.0
9873,32.0,4,60,8.0,96.0
9874,65.0,36,40,7.0,84.0
9875,74.0,20,30,7.0,99.0
9876,71.0,16,40,7.0,84.0
9877,44.0,4,60,8.0,78.0
9878,50.0,4,60,8.0,79.0
9879,74.0,36,40,7.0,86.0
9880,77.0,16,40,7.0,86.0
9881,62.0,24,60,8.0,102.0
9882,71.0,40,40,7.0,87.0
9883,53.0,4,60,8.0,80.0
9884,74.0,36,40,7.0,87.0
9885,50.0,24,45,8.0,80.0
9886,65.0,16,40,7.0,87.0
9887,72.0,40,40,7.0,87.0
9888,33.0,4,60,8.0,103.0
9889,65.0,36,40,7.0,88.0
9890,72.0,16,40,7.0,88.0
9891,45.0,24,60,8.0,83.0
9892,65.0,40,40,7.0,88.0
9893,83.0,40,405,7.0,121.0
9894,48.0,4,60,8.0,83.0
9895,72.0,36,40,7.0,91.0
9896,75.0,20,42,7.0,109.0
9897,65.0,16,40,7.0,91.0
9898,60.0,4,60,8.0,99.0
9899,84.0,40,42,7.0,109.0
9900,53.0,4,60,8.0,84.0
9901,65.0,36,40,7.0,91.0
9902,75.0,20,42,7.0,110.0
9903,48.0,4,45,8.0,84.0
9904,72.0,16,40,7.0,91.0
9905,86.0,40,60,7.0,110.0
9906,34.0,4,60,8.0,101.0
9907,65.0,36,40,7.0,92.0
9908,74.0,20,30,7.0,113.0
9909,70.0,16,40,7.0,93.0
9910,46.0,4,60,8.0,85.0
9911,58.0,0,60,8.0,87.0
9912,53.0,4,60,8.0,87.0
9913,77.0,36,40,7.0,94.0
9914,82.0,16,40,7.0,94.0
9915,62.0,24,60,8.0,106.0
9916,74.0,40,40,7.0,94.0
9917,53.0,0,60,8.0,87.0
9918,58.0,4,60,8.0,87.0
9919,77.0,36,40,7.0,98.0
9920,50.0,24,45,8.0,93.0
9921,70.0,16,40,7.0,101.0
9922,74.0,40,40,7.0,100.0
9923,86.0,40,285,7.0,127.0
9924,38.0,4,60,8.0,113.0
9925,65.0,36,40,7.0,101.0
9926,77.0,20,30,7.0,127.0
9927,70.0,16,40,7.0,107.0
9928,50.0,4,60,8.0,96.0
9929,58.0,4,60,8.0,100.0
9930,53.0,0,60,8.0,100.0
9931,82.0,36,40,7.0,111.0
9932,86.0,16,40,7.0,114.0
9933,62.0,24,60,8.0,127.0
9934,77.0,40,40,7.0,117.0
9935,58.0,0,60,8.0,109.0
9936,53.0,4,60,8.0,109.0
9937,82.0,36,40,7.0,121.0
9938,50.0,24,45,8.0,113.0
9939,74.0,16,40,7.0,123.0
9940,77.0,39,40,7.0,126.0
9941,89.0,40,285,7.0,127.0
9942,36.0,5,60,8.0,77.0
9943,70.0,34,40,7.0,100.0
9944,86.0,23,30,7.0,127.0
9945,77.0,0,40,7.0,96.0
9946,74.0,16,40,7.0,125.0
9947,48.0,4,60,8.0,116.0
9948,82.0,35,40,7.0,63.0
9949,94.0,37,120,7.0,127.0
9950,86.0,38,40,7.0,68.0
9951,77.0,6,120,8.0,101.0
9952,74.0,5,2,8.0,79.0
9953,79.0,34,40,7.0,69.0
9954,91.0,40,120,7.0,127.0
9955,82.0,42,40,7.0,69.0
9956,70.0,2,2,8.0,78.0
9957,76.0,37,40,7.0,65.0
9958,79.0,37,40,7.0,68.0
9959,88.0,40,120,7.0,127.0
9960,67.0,1,120,8.0,78.0
9961,77.0,41,40,7.0,62.0
9962,81.0,37,40,7.0,65.0
9963,69.0,40,120,8.0,99.0
9964,72.0,0,120,8.0,96.0
9965,89.0,1,120,7.0,127.0
9966,74.0,33,40,7.0,62.0
9967,77.0,38,40,7.0,62.0
9968,86.0,40,120,7.0,123.0
9969,60.0,0,360,8.0,88.0
9970,68.0,7,120,8.0,71.0
9971,65.0,2,120,8.0,72.0
9972,74.0,34,40,7.0,63.0
9973,77.0,37,40,7.0,59.0
9974,83.0,42,120,7.0,117.0
9975,62.0,5,120,8.0,71.0
9976,65.0,3,120,8.0,76.0
9977,72.0,38,40,7.0,59.0
9978,84.0,39,120,7.0,117.0
9979,64.0,2,120,8.0,93.0
9980,76.0,41,40,7.0,59.0
9981,67.0,2,120,8.0,93.0
9982,74.0,34,40,7.0,61.0
9983,77.0,41,40,7.0,62.0
9984,80.0,41,120,7.0,93.0
9985,62.0,2,120,8.0,68.0
9986,60.0,2,1,8.0,66.0
9987,59.0,1,120,8.0,68.0
9988,72.0,35,40,7.0,61.0
9989,76.0,39,40,7.0,62.0
9990,79.0,42,120,7.0,93.0
9991,64.0,1,120,8.0,66.0
9992,74.0,37,40,7.0,62.0
9993,77.0,36,40,7.0,59.0
9994,86.0,42,120,7.0,117.0
9995,65.0,3,120,8.0,91.0
9996,68.0,1,120,8.0,88.0
9997,74.0,33,40,7.0,62.0
9998,80.0,44,120,7.0,92.0
9999,77.0,41,40,7.0,57.0
10000,59.0,5,120,8.0,66.0
10001,62.0,1,120,8.0,70.0
10002,72.0,41,40,7.0,57.0
10003,79.0,36,120,7.0,85.0
10004,76.0,37,40,7.0,57.0
10005,60.0,2,120,8.0,63.0
10006,64.0,1,120,8.0,63.0
10007,74.0,37,40,7.0,57.0
10008,86.0,39,120,7.0,107.0
10009,77.0,41,40,7.0,54.0
10010,65.0,0,120,8.0,86.0
10011,68.0,6,120,8.0,83.0
10012,74.0,34,40,7.0,54.0
10013,77.0,39,40,7.0,65.0
10014,80.0,39,120,7.0,85.0
10015,59.0,4,120,8.0,63.0
10016,62.0,1,120,8.0,61.0
10017,72.0,37,40,7.0,57.0
10018,76.0,39,40,7.0,57.0
10019,79.0,42,120,7.0,86.0
10020,64.0,3,120,8.0,60.0
10021,60.0,0,120,8.0,60.0
10022,74.0,36,40,7.0,54.0
10023,86.0,38,120,7.0,105.0
10024,65.0,3,120,8.0,80.0
10025,77.0,43,40,7.0,53.0
10026,68.0,1,120,8.0,80.0
10027,74.0,35,40,7.0,54.0
10028,77.0,36,40,7.0,54.0
10029,80.0,41,120,7.0,84.0
10030,62.0,4,120,8.0,55.0
10031,59.0,1,120,8.0,55.0
10032,74.0,38,40,7.0,48.0
10033,77.0,40,40,7.0,48.0
10034,65.0,0,120,8.0,77.0
10035,86.0,42,120,7.0,99.0
10036,68.0,1,120,8.0,78.0
10037,74.0,32,40,7.0,54.0
10038,80.0,39,120,7.0,76.0
10039,77.0,39,40,7.0,50.0
10040,59.0,7,120,8.0,51.0
10041,62.0,3,120,8.0,57.0
10042,74.0,32,40,7.0,45.0
10043,77.0,43,40,7.0,40.0
10044,86.0,43,120,7.0,97.0
10045,68.0,2,120,8.0,68.0
10046,65.0,2,120,8.0,71.0
10047,74.0,32,40,7.0,43.0
10048,80.0,37,120,7.0,69.0
10049,77.0,38,40,7.0,44.0
10050,62.0,8,120,8.0,48.0
10051,59.0,2,120,8.0,48.0
10052,74.0,30,40,7.0,40.0
10053,86.0,44,120,7.0,84.0
10054,77.0,44,40,7.0,38.0
10055,68.0,3,120,8.0,66.0
10056,65.0,3,120,8.0,66.0
10057,74.0,34,40,7.0,38.0
10058,77.0,40,40,7.0,38.0
10059,80.0,40,120,7.0,66.0
10060,59.0,5,120,8.0,44.0
10061,62.0,0,120,8.0,44.0
10062,73.0,33,40,7.0,42.0
10063,85.0,38,120,7.0,82.0
10064,77.0,41,40,7.0,42.0
10065,65.0,7,120,8.0,55.0
10066,68.0,2,120,8.0,54.0
10067,73.0,35,40,7.0,38.0
10068,77.0,36,40,7.0,40.0
10069,80.0,39,120,7.0,67.0
10070,61.0,3,120,8.0,39.0
10071,59.0,3,120,8.0,44.0
10072,73.0,37,40,7.0,38.0
10073,85.0,41,120,7.0,77.0
10074,77.0,40,40,7.0,38.0
10075,68.0,5,120,8.0,48.0
10076,65.0,1,120,8.0,48.0
10077,73.0,34,40,7.0,38.0
10078,80.0,38,120,7.0,63.0
10079,77.0,42,40,7.0,38.0
10080,60.0,0,120,8.0,41.0
10081,61.0,4,120,8.0,40.0
10082,73.0,31,40,7.0,38.0
10083,77.0,40,40,7.0,38.0
10084,85.0,40,120,7.0,70.0
10085,65.0,5,120,8.0,46.0
10086,68.0,2,120,8.0,48.0
10087,73.0,33,40,7.0,38.0
10088,80.0,43,120,0.0,112.0
10089,80.0,0,120,7.0,57.0
10090,85.0,37,120,7.0,50.0
10091,77.0,43,160,7.0,44.0
10092,61.0,5,240,8.0,40.0
10093,68.0,0,120,2.0,89.0
10094,77.0,5,120,2.0,89.0
10095,68.0,1,120,8.0,37.0
10096,78.0,0,120,2.0,89.0
10097,70.0,114,120,2.0,89.0
10098,77.0,0,120,2.0,89.0
10099,68.0,120,120,2.0,89.0
10100,71.0,0,120,2.0,89.0
10101,80.0,120,120,2.0,89.0
10102,85.0,2,590,0.0,91.0
10103,70.0,120,120,2.0,89.0
10104,78.0,0,120,2.0,89.0
10105,80.0,115,120,0.0,91.0
10106,61.0,5,710,3.0,90.0
10107,66.0,5,120,2.0,89.0
10108,75.0,0,120,2.0,89.0
10109,77.0,5,120,2.0,89.0
10110,68.0,0,120,2.0,89.0
10111,78.0,0,120,2.0,89.0
10112,70.0,114,120,2.0,89.0
10113,77.0,0,120,2.0,89.0
10114,68.0,120,120,2.0,89.0
10115,71.0,0,120,2.0,89.0
10116,80.0,120,120,2.0,89.0
10117,85.0,115,600,0.0,91.0
10118,78.0,120,120,2.0,89.0
10119,70.0,0,120,2.0,89.0
10120,61.0,6,710,3.0,90.0
10121,80.0,118,120,1.0,99.0
10122,75.0,2,120,2.0,89.0
10123,66.0,0,120,2.0,89.0
10124,73.0,0,120,2.0,89.0
10125,65.0,2,120,2.0,89.0
10126,66.0,0,120,2.0,89.0
10127,75.0,114,120,2.0,89.0
10128,65.0,0,120,2.0,89.0
10129,73.0,120,120,2.0,89.0
10130,78.0,120,120,2.0,89.0
10131,70.0,0,120,2.0,89.0
10132,83.0,118,590,1.0,95.0
10133,77.0,120,120,2.0,89.0
10134,68.0,0,120,2.0,89.0
10135,61.0,6,710,3.0,90.0
10136,80.0,118,120,1.0,99.0
10137,72.0,2,120,2.0,89.0
10138,63.0,0,120,2.0,89.0
10139,73.0,2,120,2.0,89.0
10140,65.0,0,120,2.0,89.0
10141,75.0,0,120,2.0,89.0
10142,66.0,114,120,2.0,89.0
10143,65.0,120,120,2.0,89.0
10144,73.0,0,120,2.0,89.0
10145,78.0,0,120,2.0,89.0
10146,70.0,120,120,2.0,89.0
10147,83.0,118,590,1.0,95.0
10148,77.0,0,120,2.0,89.0
10149,68.0,120,120,2.0,89.0
10150,61.0,6,710,3.0,90.0
10151,80.0,118,120,1.0,99.0
10152,63.0,0,120,2.0,89.0
10153,72.0,2,120,2.0,89.0
10154,65.0,0,120,2.0,89.0
10155,73.0,2,120,2.0,89.0
10156,83.0,118,240,1.0,95.0
10157,75.0,0,120,2.0,89.0
10158,66.0,114,120,2.0,89.0
10159,82.0,118,120,1.0,99.0
10160,73.0,2,120,2.0,89.0
10161,65.0,0,120,2.0,89.0
10162,77.0,2,120,2.0,89.0
10163,73.0,0,120,2.0,89.0
10164,80.0,118,240,1.0,99.0
10165,75.0,120,120,2.0,89.0
10166,71.0,0,120,2.0,89.0
10167,78.0,118,110,1.0,99.0
10168,73.0,2,110,2.0,89.0
10169,70.0,0,110,2.0,89.0
10170,61.0,6,710,3.0,90.0
10171,77.0,118,120,1.0,99.0
10172,68.0,0,120,2.0,89.0
10173,71.0,2,120,2.0,89.0
10174,78.0,112,120,1.0,99.0
10175,70.0,2,120,2.0,89.0
10176,73.0,0,120,2.0,89.0
10177,72.0,118,120,1.0,99.0
10178,69.0,0,240,2.0,89.0
10179,66.0,2,240,2.0,89.0
10180,73.0,118,240,1.0,99.0
10181,71.0,118,110,1.0,99.0
10182,68.0,122,230,2.0,89.0
10183,65.0,0,230,2.0,89.0
10184,61.0,6,710,3.0,90.0
10185,77.0,112,120,1.0,99.0
10186,65.0,2,240,2.0,89.0
10187,69.0,0,240,2.0,89.0
10188,79.0,120,120,1.0,101.0
10189,64.0,2,120,2.0,91.0
10190,72.0,3,480,1.0,99.0
10191,65.0,2,120,2.0,92.0
10192,84.0,117,590,0.0,91.0
10193,81.0,118,240,1.0,103.0
10194,77.0,118,120,1.0,104.0
10195,72.0,0,360,2.0,91.0
10196,69.0,2,120,2.0,93.0
10197,79.0,3,110,1.0,106.0
10198,76.0,0,110,1.0,106.0
10199,76.0,2,110,2.0,94.0
10200,60.0,0,710,5.0,92.0
10201,72.0,0,110,2.0,94.0
10202,84.0,115,120,0.0,96.0
10203,60.0,6,710,3.0,90.0
10204,82.0,0,120,0.0,95.0
10205,86.0,115,120,0.0,95.0
10206,82.0,0,120,1.0,104.0
10207,74.0,3,120,1.0,104.0
10208,74.0,0,120,2.0,93.0
10209,77.0,0,120,2.0,93.0
10210,84.0,0,120,0.0,90.0
10211,93.0,109,120,0.0,90.0
10212,81.0,3,120,1.0,99.0
10213,72.0,0,120,1.0,99.0
10214,76.0,0,120,2.0,88.0
10215,72.0,2,120,2.0,88.0
10216,91.0,0,120,0.0,83.0
10217,82.0,115,120,0.0,83.0
10218,70.0,0,120,1.0,89.0
10219,79.0,3,120,1.0,89.0
10220,70.0,0,120,2.0,81.0
10221,74.0,2,120,2.0,81.0
10222,81.0,115,120,0.0,78.0
10223,69.0,0,120,1.0,85.0
10224,69.0,2,120,2.0,76.0
10225,72.0,0,120,2.0,76.0
10226,89.0,0,240,0.0,78.0
10227,77.0,3,240,1.0,85.0
10228,79.0,115,230,0.0,73.0
10229,88.0,115,110,0.0,65.0
10230,76.0,3,110,1.0,70.0
10231,72.0,3,230,1.0,78.0
10232,67.0,0,230,2.0,71.0
10233,70.0,2,230,2.0,71.0
10234,60.0,6,710,3.0,94.0
10235,48.0,0,710,3.0,94.0
10236,60.0,2,720,5.0,96.0
10237,48.0,0,720,5.0,96.0
10238,60.0,116,120,10.0,100.0
10239,81.0,1,120,0.0,56.0
10240,89.0,0,120,0.0,56.0
10241,57.0,1,120,11.0,100.0
10242,72.0,0,120,1.0,58.0
10243,77.0,2,120,1.0,58.0
10244,65.0,0,120,2.0,54.0
10245,53.0,0,120,5.0,71.0
10246,41.0,0,120,5.0,71.0
10247,69.0,2,120,2.0,54.0
10248,53.0,1,120,12.0,100.0
10249,53.0,4,120,3.0,55.0
10250,57.0,0,120,3.0,55.0
10251,65.0,107,120,10.0,100.0
10252,60.0,2,120,11.0,100.0
10253,57.0,5,120,12.0,100.0
10254,41.0,1,345,13.0,100.0
10255,29.0,1,345,14.0,100.0
10256,67.0,113,120,10.0,100.0
10257,64.0,2,120,11.0,100.0
10258,60.0,5,120,12.0,100.0
10259,41.0,1,120,13.0,100.0
10260,29.0,5,120,14.0,100.0
10261,69.0,113,240,10.0,100.0
10262,65.0,2,240,11.0,100.0
10263,45.0,115,120,13.0,100.0
10264,33.0,5,120,14.0,100.0
10265,67.0,107,105,10.0,100.0
10266,64.0,2,105,11.0,100.0
10267,60.0,5,345,12.0,100.0
10268,48.0,6,105,13.0,100.0
10269,36.0,5,105,14.0,100.0
10270,64.0,100,60,7.0,74.0
10271,52.0,3,60,8.0,72.0
10272,65.0,4,120,10.0,100.0
10273,62.0,2,120,11.0,100.0
10274,65.0,50,60,7.0,72.0
10275,53.0,1,60,8.0,72.0
10276,57.0,5,120,12.0,100.0
10277,68.0,1,60,7.0,76.0
10278,56.0,2,60,8.0,76.0
10279,69.0,56,120,10.0,100.0
10280,65.0,2,120,11.0,100.0
10281,57.0,55,60,8.0,79.0
10282,69.0,0,60,7.0,79.0
10283,62.0,2,120,12.0,100.0
10284,50.0,1,240,13.0,100.0
10285,38.0,5,240,14.0,100.0
10286,73.0,1,60,7.0,85.0
10287,61.0,1,60,8.0,82.0
10288,48.0,1,105,13.0,100.0
10289,36.0,5,105,14.0,100.0
10290,74.0,58,120,10.0,100.0
10291,74.0,48,60,7.0,84.0
10292,69.0,0,120,11.0,100.0
10293,65.0,5,120,12.0,100.0
10294,62.0,6,60,8.0,82.0
10295,78.0,52,60,7.0,91.0
10296,66.0,4,60,8.0,91.0
10297,79.0,46,60,7.0,86.0
10298,67.0,3,60,8.0,88.0
10299,47.0,1,120,13.0,100.0
10300,35.0,5,120,14.0,100.0
10301,81.0,57,60,7.0,95.0
10302,69.0,7,60,8.0,101.0
10303,67.0,1,225,12.0,100.0
10304,77.0,1,240,10.0,100.0
10305,79.0,47,60,7.0,94.0
10306,74.0,2,240,11.0,100.0
10307,67.0,6,60,8.0,95.0
10308,50.0,2,120,13.0,100.0
10309,38.0,5,120,14.0,100.0
10310,78.0,53,60,7.0,97.0
10311,66.0,1,60,8.0,103.0
10312,76.0,1,105,10.0,100.0
10313,72.0,2,105,11.0,100.0
10314,67.0,4,105,12.0,100.0
10315,55.0,1,105,13.0,100.0
10316,43.0,5,105,14.0,100.0
10317,79.0,52,1,7.0,99.0
10318,67.0,5,0,8.0,100.0
10319,75.0,1,120,10.0,100.0
10320,78.0,48,60,7.0,103.0
10321,72.0,2,120,11.0,100.0
10322,66.0,2,60,8.0,101.0
10323,66.0,0,120,12.0,100.0
10324,57.0,1,120,13.0,100.0
10325,77.0,57,60,7.0,101.0
10326,65.0,1,60,8.0,99.0
10327,67.0,2,105,11.0,100.0
10328,74.0,0,120,10.0,100.0
10329,67.0,0,60,8.0,103.0
10330,79.0,55,60,7.0,103.0
10331,65.0,4,120,12.0,100.0
10332,59.0,1,120,13.0,100.0
10333,77.0,1,60,7.0,101.0
10334,65.0,0,60,8.0,102.0
10335,67.0,2,105,11.0,100.0
10336,72.0,57,120,10.0,100.0
10337,76.0,55,60,7.0,96.0
10338,64.0,3,60,8.0,103.0
10339,64.0,4,120,12.0,100.0
10340,60.0,1,120,13.0,100.0
10341,75.0,53,60,7.0,102.0
10342,63.0,4,60,8.0,106.0
10343,71.0,1,120,10.0,100.0
10344,77.0,52,60,7.0,100.0
10345,65.0,7,60,8.0,102.0
10346,75.0,52,60,7.0,101.0
10347,63.0,7,60,8.0,101.0
10348,74.0,51,60,7.0,96.0
10349,69.0,1,120,10.0,100.0
10350,62.0,4,60,8.0,96.0
10351,66.0,2,240,11.0,100.0
10352,60.0,1,240,12.0,100.0
10353,63.0,1,240,13.0,100.0
10354,73.0,0,60,7.0,103.0
10355,61.0,5,60,8.0,95.0
10356,71.0,58,105,10.0,100.0
10357,65.0,2,105,11.0,100.0
10358,74.0,54,50,7.0,96.0
10359,62.0,0,105,12.0,100.0
10360,62.0,1,105,13.0,100.0
10361,62.0,5,50,8.0,103.0
10362,43.0,5,705,14.0,100.0
10363,72.0,51,40,7.0,96.0
10364,60.0,5,40,8.0,96.0
10365,64.0,28,40,7.0,93.0
10366,43.0,2,40,8.0,92.0
10367,71.0,36,40,7.0,101.0
10368,72.0,2,120,10.0,100.0
10369,64.0,2,120,11.0,100.0
10370,59.0,8,40,8.0,96.0
10371,63.0,2,40,7.0,94.0
10372,43.0,2,40,8.0,93.0
10373,69.0,0,40,7.0,101.0
10374,57.0,39,40,8.0,96.0
10375,55.0,1,225,13.0,100.0
10376,43.0,5,225,14.0,100.0
10377,66.0,33,120,10.0,100.0
10378,60.0,38,40,7.0,92.0
10379,63.0,0,120,11.0,100.0
10380,43.0,4,40,8.0,94.0
10381,60.0,0,240,12.0,100.0
10382,67.0,2,40,7.0,96.0
10383,55.0,4,40,8.0,103.0
10384,62.0,27,40,7.0,96.0
10385,59.0,1,40,7.0,95.0
10386,43.0,3,40,8.0,95.0
10387,67.0,35,105,10.0,100.0
10388,62.0,0,105,11.0,100.0
10389,59.0,1,105,12.0,100.0
10390,43.0,1,105,13.0,100.0
10391,31.0,5,105,14.0,100.0
10392,65.0,34,40,7.0,102.0
10393,53.0,7,40,8.0,101.0
10394,55.0,33,40,7.0,95.0
10395,36.0,2,40,8.0,92.0
10396,64.0,26,40,7.0,101.0
10397,52.0,8,40,8.0,103.0
10398,55.0,32,40,7.0,92.0
10399,36.0,5,40,8.0,92.0
10400,60.0,3,120,12.0,100.0
10401,50.0,0,40,8.0,101.0
10402,62.0,39,40,7.0,103.0
10403,55.0,31,40,7.0,94.0
10404,36.0,4,40,8.0,96.0
10405,48.0,1,225,13.0,100.0
10406,36.0,5,225,14.0,100.0
10407,60.0,36,40,7.0,96.0
10408,67.0,2,240,10.0,100.0
10409,60.0,2,240,11.0,100.0
10410,48.0,5,40,8.0,103.0
10411,55.0,4,120,12.0,100.0
10412,52.0,35,40,7.0,96.0
10413,36.0,0,40,8.0,101.0
10414,58.0,30,40,7.0,96.0
10415,46.0,2,40,8.0,96.0
10416,60.0,2,105,10.0,100.0
10417,55.0,2,105,11.0,100.0
10418,52.0,5,105,12.0,100.0
10419,52.0,38,30,7.0,96.0
10420,36.0,1,105,13.0,100.0
10421,36.0,0,30,8.0,96.0
10422,36.0,5,105,14.0,100.0
10423,57.0,0,40,7.0,76.0
10424,45.0,4,40,8.0,72.0
10425,53.0,28,40,7.0,72.0
10426,41.0,4,40,8.0,68.0
10427,60.0,37,120,10.0,100.0
10428,57.0,2,120,11.0,100.0
10429,45.0,0,40,8.0,66.0
10430,57.0,38,40,7.0,73.0
10431,53.0,1,120,12.0,100.0
10432,60.0,35,40,7.0,85.0
10433,48.0,5,40,8.0,83.0
10434,57.0,31,40,7.0,79.0
10435,45.0,5,40,8.0,73.0
10436,60.0,37,40,7.0,80.0
10437,65.0,2,120,10.0,100.0
10438,48.0,2,40,8.0,73.0
10439,60.0,2,120,11.0,100.0
10440,57.0,0,120,12.0,100.0
10441,64.0,1,40,7.0,86.0
10442,52.0,1,40,8.0,77.0
10443,60.0,33,40,7.0,79.0
10444,48.0,2,40,8.0,73.0
10445,60.0,5,105,12.0,100.0
10446,41.0,1,345,13.0,100.0
10447,29.0,5,345,14.0,100.0
10448,67.0,38,120,10.0,100.0
10449,64.0,39,40,7.0,82.0
10450,64.0,0,120,11.0,100.0
10451,52.0,4,40,8.0,73.0
10452,60.0,33,40,7.0,88.0
10453,48.0,1,40,8.0,83.0
10454,65.0,27,40,7.0,82.0
10455,53.0,3,40,8.0,73.0
10456,60.0,36,40,7.0,84.0
10457,48.0,5,40,8.0,77.0
10458,41.0,1,120,13.0,100.0
10459,29.0,5,120,14.0,100.0
10460,53.0,0,40,8.0,92.0
10461,65.0,39,40,7.0,94.0
10462,60.0,26,40,7.0,86.0
10463,48.0,6,40,8.0,79.0
10464,69.0,2,240,10.0,100.0
10465,65.0,35,40,7.0,91.0
10466,65.0,2,240,11.0,100.0
10467,53.0,7,40,8.0,84.0
10468,45.0,5,120,13.0,100.0
10469,33.0,5,120,14.0,100.0
10470,60.0,33,40,7.0,101.0
10471,48.0,2,40,8.0,93.0
10472,64.0,27,40,7.0,91.0
10473,52.0,6,40,8.0,84.0
10474,67.0,0,105,10.0,100.0
10475,64.0,0,105,11.0,100.0
10476,60.0,35,30,7.0,93.0
10477,60.0,4,345,12.0,100.0
10478,48.0,6,105,13.0,100.0
10479,48.0,2,30,8.0,85.0
10480,36.0,5,105,14.0,100.0
10481,65.0,37,40,7.0,96.0
10482,53.0,3,40,8.0,100.0
10483,57.0,30,40,7.0,92.0
10484,45.0,2,40,8.0,91.0
10485,65.0,0,120,10.0,100.0
10486,65.0,35,40,7.0,93.0
10487,62.0,2,120,11.0,100.0
10488,53.0,6,40,8.0,93.0
10489,57.0,2,120,12.0,100.0
10490,57.0,2,40,8.0,103.0
10491,69.0,0,40,7.0,100.0
10492,65.0,31,40,7.0,94.0
10493,53.0,9,40,8.0,96.0
10494,69.0,31,40,7.0,96.0
10495,69.0,34,120,10.0,100.0
10496,65.0,0,120,11.0,100.0
10497,57.0,6,40,8.0,96.0
10498,62.0,5,120,12.0,100.0
10499,50.0,1,240,13.0,100.0
10500,38.0,5,240,14.0,100.0
10501,74.0,36,40,7.0,109.0
10502,62.0,0,40,8.0,109.0
10503,69.0,26,40,7.0,96.0
10504,57.0,5,40,8.0,103.0
10505,65.0,5,105,12.0,100.0
10506,48.0,1,105,13.0,100.0
10507,36.0,5,105,14.0,100.0
10508,74.0,0,120,10.0,100.0
10509,74.0,37,40,7.0,101.0
10510,69.0,2,120,11.0,100.0
10511,62.0,4,40,8.0,101.0
10512,77.0,34,40,7.0,112.0
10513,65.0,3,40,8.0,111.0
10514,74.0,27,40,7.0,99.0
10515,62.0,3,40,8.0,97.0
10516,77.0,36,40,7.0,96.0
10517,65.0,7,40,8.0,99.0
10518,46.0,1,120,13.0,100.0
10519,34.0,5,120,14.0,100.0
10520,82.0,35,40,7.0,113.0
10521,70.0,6,40,8.0,114.0
10522,77.0,25,40,7.0,101.0
10523,65.0,6,40,8.0,100.0
10524,77.0,1,240,10.0,100.0
10525,82.0,38,40,7.0,100.0
10526,70.0,2,240,11.0,100.0
10527,70.0,2,40,8.0,102.0
10528,50.0,1,120,13.0,100.0
10529,38.0,5,120,14.0,100.0
10530,86.0,1,40,7.0,118.0
10531,74.0,1,40,8.0,118.0
10532,82.0,30,40,7.0,105.0
10533,70.0,2,40,8.0,103.0
10534,70.0,36,105,10.0,100.0
10535,65.0,2,105,11.0,100.0
10536,86.0,34,30,7.0,105.0
10537,62.0,2,345,12.0,100.0
10538,56.0,4,105,13.0,100.0
10539,74.0,8,30,8.0,105.0
10540,44.0,5,105,14.0,100.0
10541,87.0,33,40,7.0,123.0
10542,75.0,2,40,8.0,122.0
10543,82.0,27,40,7.0,109.0
10544,70.0,2,40,8.0,107.0
10545,70.0,0,120,10.0,100.0
10546,67.0,0,120,11.0,100.0
10547,75.0,41,40,8.0,109.0
10548,87.0,0,40,7.0,109.0
10549,63.0,5,120,12.0,100.0
10550,91.0,37,40,7.0,127.0
10551,79.0,4,40,8.0,126.0
10552,87.0,35,40,7.0,109.0
10553,75.0,0,40,8.0,111.0
10554,91.0,36,40,7.0,113.0
10555,75.0,0,120,10.0,100.0
10556,70.0,2,120,11.0,100.0
10557,79.0,9,40,8.0,113.0
10558,67.0,1,120,12.0,100.0
10559,55.0,1,240,13.0,100.0
10560,43.0,5,240,14.0,100.0
10561,94.0,0,40,7.0,127.0
10562,82.0,1,40,8.0,127.0
10563,82.0,27,40,7.0,113.0
10564,70.0,3,40,8.0,113.0
10565,79.0,33,105,10.0,100.0
10566,75.0,2,105,11.0,100.0
10567,70.0,4,105,12.0,100.0
10568,51.0,1,105,13.0,100.0
10569,91.0,35,40,7.0,114.0
10570,39.0,5,105,14.0,100.0
10571,79.0,7,40,8.0,113.0
10572,94.0,34,40,7.0,127.0
10573,82.0,0,40,8.0,127.0
10574,82.0,30,40,7.0,117.0
10575,70.0,1,40,8.0,116.0
10576,91.0,35,40,7.0,117.0
10577,79.0,4,40,8.0,120.0
10578,94.0,37,30,7.0,127.0
10579,82.0,5,30,8.0,127.0
10580,82.0,1,240,10.0,100.0
10581,79.0,2,240,11.0,100.0
10582,63.0,5,240,12.0,100.0
10583,51.0,1,240,13.0,100.0
10584,39.0,5,240,14.0,100.0
10585,96.0,114,40,7.0,127.0
10586,84.0,1,40,8.0,127.0
10587,84.0,1,60,10.0,115.0
10588,82.0,1,60,0.0,114.0
10589,84.0,0,60,0.0,114.0
10590,82.0,0,60,11.0,115.0
10591,72.0,0,60,11.0,115.0
10592,72.0,2,60,1.0,111.0
10593,76.0,0,60,1.0,111.0
10594,64.0,2,60,2.0,112.0
10595,72.0,0,60,2.0,112.0
10596,64.0,1,60,12.0,115.0
10597,48.0,1,60,13.0,115.0
10598,48.0,0,60,3.0,113.0
10599,60.0,4,60,3.0,113.0
10600,36.0,1,60,14.0,115.0
10601,84.0,26,40,7.0,127.0
10602,72.0,8,40,8.0,127.0
10603,88.0,31,20,7.0,127.0
10604,76.0,5,20,8.0,127.0
10605,96.0,1,40,7.0,127.0
10606,84.0,0,40,8.0,127.0
10607,84.0,27,40,7.0,127.0
10608,72.0,4,40,8.0,127.0
10609,88.0,35,40,7.0,127.0
10610,76.0,5,40,8.0,127.0
10611,96.0,36,60,7.0,127.0
10612,84.0,5,60,8.0,127.0
10613,84.0,37,225,10.0,100.0
10614,82.0,1,225,11.0,100.0
10615,72.0,0,225,11.0,100.0
10616,64.0,1,225,12.0,100.0
10617,48.0,1,225,13.0,100.0
10618,36.0,1,225,14.0,100.0
10619,82.0,1,0,0.0,114.0
10620,84.0,0,240,0.0,114.0
10621,72.0,1,240,1.0,112.0
10622,76.0,0,240,1.0,112.0
10623,64.0,2,240,2.0,112.0
10624,72.0,0,240,2.0,112.0
10625,48.0,0,240,3.0,113.0
10626,60.0,4,240,3.0,113.0
10627,98.0,114,40,7.0,127.0
10628,86.0,1,40,8.0,127.0
10629,86.0,1,60,10.0,115.0
10630,86.0,0,60,0.0,114.0
10631,82.0,0,60,11.0,115.0
10632,74.0,1,60,11.0,115.0
10633,74.0,0,60,1.0,111.0
10634,77.0,1,60,1.0,111.0
10635,65.0,0,60,2.0,112.0
10636,74.0,2,60,2.0,112.0
10637,65.0,1,60,12.0,115.0
10638,46.0,1,60,13.0,115.0
10639,58.0,0,60,3.0,113.0
10640,46.0,4,60,3.0,113.0
10641,34.0,1,60,14.0,115.0
10642,86.0,26,40,7.0,127.0
10643,74.0,8,40,8.0,127.0
10644,89.0,35,40,7.0,127.0
10645,77.0,1,40,8.0,127.0
10646,98.0,0,40,7.0,127.0
10647,86.0,2,40,8.0,127.0
10648,86.0,25,40,7.0,127.0
10649,74.0,6,40,8.0,127.0
10650,89.0,35,40,7.0,127.0
10651,77.0,3,40,8.0,127.0
10652,86.0,40,60,8.0,127.0
10653,98.0,1,60,7.0,127.0
10654,86.0,37,225,10.0,100.0
10655,74.0,1,225,11.0,100.0
10656,65.0,1,225,12.0,100.0
10657,46.0,1,225,13.0,100.0
10658,34.0,1,225,14.0,100.0
10659,86.0,1,240,0.0,114.0
10660,82.0,0,240,0.0,114.0
10661,74.0,0,240,1.0,112.0
10662,77.0,0,240,1.0,112.0
10663,65.0,2,240,2.0,112.0
10664,74.0,0,240,2.0,112.0
10665,46.0,4,240,3.0,113.0
10666,58.0,0,240,3.0,113.0
10667,88.0,0,40,8.0,127.0
10668,100.0,1,40,7.0,127.0
10669,88.0,117,60,10.0,115.0
10670,85.0,0,60,0.0,114.0
10671,88.0,1,60,0.0,114.0
10672,76.0,0,60,11.0,115.0
10673,73.0,0,60,1.0,111.0
10674,81.0,2,60,1.0,111.0
10675,76.0,0,60,2.0,112.0
10676,69.0,2,60,2.0,112.0
10677,61.0,1,60,12.0,115.0
10678,69.0,0,60,12.0,115.0
10679,45.0,1,60,13.0,115.0
10680,57.0,0,60,3.0,113.0
10681,45.0,4,60,3.0,113.0
10682,33.0,1,60,14.0,115.0
10683,88.0,30,40,7.0,127.0
10684,76.0,3,40,8.0,127.0
10685,93.0,32,40,7.0,127.0
10686,81.0,6,40,8.0,127.0
10687,100.0,36,60,7.0,127.0
10688,88.0,2,60,8.0,127.0
10689,64.0,51,30,4.0,100.0
10690,88.0,0,120,10.0,100.0
10691,88.0,0,120,0.0,114.0
10692,85.0,1,120,0.0,114.0
10693,76.0,1,120,11.0,100.0
10694,81.0,0,120,1.0,112.0
10695,73.0,0,120,1.0,112.0
10696,76.0,2,120,2.0,112.0
10697,69.0,0,120,2.0,112.0
10698,61.0,0,120,12.0,100.0
10699,69.0,1,120,12.0,100.0
10700,45.0,1,120,13.0,100.0
10701,45.0,4,120,3.0,113.0
10702,57.0,0,120,3.0,113.0
10703,33.0,1,120,14.0,100.0
10704,73.0,52,40,7.0,92.0
10705,69.0,5,40,7.0,92.0
10706,45.0,3,40,8.0,92.0
10707,74.0,30,40,7.0,92.0
10708,71.0,2,40,7.0,92.0
10709,52.0,4,40,8.0,92.0
10710,73.0,37,40,7.0,96.0
10711,69.0,0,40,7.0,96.0
10712,45.0,2,40,8.0,96.0
10713,74.0,37,40,7.0,94.0
10714,71.0,3,40,7.0,95.0
10715,52.0,1,40,8.0,94.0
10716,76.0,34,40,7.0,96.0
10717,73.0,5,40,7.0,101.0
10718,57.0,1,40,8.0,96.0
10719,74.0,37,40,7.0,101.0
10720,71.0,0,40,7.0,96.0
10721,52.0,6,40,8.0,101.0
10722,73.0,32,40,7.0,103.0
10723,69.0,3,40,7.0,106.0
10724,45.0,1,40,8.0,100.0
10725,74.0,36,40,7.0,106.0
10726,71.0,0,40,7.0,96.0
10727,52.0,4,40,8.0,102.0
10728,73.0,33,40,7.0,106.0
10729,69.0,7,40,7.0,103.0
10730,45.0,3,40,8.0,106.0
10731,74.0,32,40,7.0,106.0
10732,71.0,4,40,7.0,106.0
10733,52.0,4,40,8.0,106.0
10734,69.0,3,405,4.0,115.0
10735,76.0,30,40,7.0,96.0
10736,73.0,8,40,7.0,101.0
10737,57.0,1,40,8.0,102.0
10738,64.0,20,42,4.0,100.0
10739,78.0,14,40,7.0,100.0
10740,74.0,2,40,7.0,105.0
10741,64.0,4,40,8.0,100.0
10742,79.0,33,30,7.0,101.0
10743,76.0,3,30,7.0,101.0
10744,69.0,0,30,8.0,101.0
10745,69.0,3,42,4.0,100.0
10746,85.0,1,105,0.0,114.0
10747,88.0,0,105,0.0,114.0
10748,64.0,51,42,4.0,100.0
10749,76.0,0,105,1.0,112.0
10750,73.0,0,105,1.0,112.0
10751,79.0,2,105,2.0,112.0
10752,69.0,0,105,2.0,112.0
10753,61.0,0,105,3.0,113.0
10754,57.0,4,105,3.0,113.0
10755,57.0,2,120,13.0,100.0
10756,45.0,1,120,14.0,100.0
10757,69.0,54,30,12.0,100.0
10758,90.0,57,120,0.0,114.0
10759,84.0,0,120,0.0,114.0
10760,78.0,0,120,1.0,112.0
10761,74.0,0,120,1.0,112.0
10762,78.0,0,120,2.0,112.0
10763,74.0,2,120,2.0,112.0
10764,50.0,2,120,13.0,100.0
10765,62.0,0,120,3.0,113.0
10766,50.0,4,120,3.0,113.0
10767,38.0,1,120,14.0,100.0
10768,78.0,51,40,7.0,94.0
10769,74.0,3,40,7.0,93.0
10770,38.0,3,40,8.0,94.0
10771,79.0,28,40,7.0,95.0
10772,76.0,6,40,7.0,91.0
10773,45.0,1,40,8.0,94.0
10774,78.0,34,40,7.0,95.0
10775,74.0,2,40,7.0,96.0
10776,62.0,0,240,4.0,115.0
10777,69.0,3,240,4.0,115.0
10778,38.0,6,40,8.0,94.0
10779,79.0,33,40,7.0,99.0
10780,76.0,4,40,7.0,99.0
10781,45.0,3,40,8.0,96.0
10782,81.0,34,40,7.0,101.0
10783,78.0,1,40,7.0,101.0
10784,50.0,3,40,8.0,101.0
10785,76.0,36,40,7.0,96.0
10786,79.0,1,40,7.0,99.0
10787,45.0,3,40,8.0,99.0
10788,78.0,35,40,7.0,100.0
10789,74.0,5,40,7.0,106.0
10790,38.0,3,40,8.0,102.0
10791,79.0,31,40,7.0,103.0
10792,76.0,2,40,7.0,102.0
10793,45.0,5,40,8.0,101.0
10794,78.0,34,40,7.0,100.0
10795,74.0,4,40,7.0,96.0
10796,38.0,5,40,8.0,96.0
10797,79.0,31,40,7.0,101.0
10798,76.0,2,40,7.0,106.0
10799,45.0,4,40,8.0,100.0
10800,74.0,3,405,12.0,100.0
10801,81.0,32,40,7.0,100.0
10802,78.0,4,40,7.0,96.0
10803,50.0,3,40,8.0,96.0
10804,69.0,25,30,12.0,115.0
10805,83.0,12,40,7.0,102.0
10806,79.0,3,40,7.0,101.0
10807,57.0,1,40,8.0,101.0
10808,84.0,34,30,7.0,106.0
10809,81.0,1,30,7.0,105.0
10810,62.0,1,30,8.0,101.0
10811,74.0,1,30,12.0,115.0
10812,69.0,54,30,12.0,115.0
10813,84.0,0,105,0.0,114.0
10814,90.0,3,105,0.0,114.0
10815,78.0,0,105,1.0,112.0
10816,74.0,2,105,1.0,112.0
10817,69.0,2,105,2.0,112.0
10818,74.0,0,105,2.0,112.0
10819,60.0,4,105,3.0,113.0
10820,50.0,0,105,3.0,113.0
10821,50.0,1,120,13.0,100.0
10822,38.0,1,120,14.0,100.0
10823,74.0,49,30,11.0,100.0
10824,91.0,54,120,0.0,114.0
10825,83.0,0,120,0.0,114.0
10826,79.0,3,120,1.0,112.0
10827,77.0,0,120,1.0,112.0
10828,74.0,0,120,2.0,112.0
10829,67.0,2,120,2.0,112.0
10830,43.0,1,120,13.0,100.0
10831,59.0,0,120,3.0,113.0
10832,43.0,4,120,3.0,113.0
10833,31.0,1,120,14.0,100.0
10834,71.0,54,40,7.0,96.0
10835,67.0,3,40,7.0,97.0
10836,43.0,2,40,8.0,106.0
10837,72.0,32,40,7.0,99.0
10838,69.0,6,40,7.0,100.0
10839,50.0,2,40,8.0,101.0
10840,71.0,35,40,7.0,106.0
10841,67.0,1,40,7.0,101.0
10842,43.0,2,40,8.0,102.0
10843,67.0,0,240,12.0,100.0
10844,74.0,1,240,12.0,100.0
10845,72.0,35,40,7.0,107.0
10846,50.0,5,40,8.0,109.0
10847,69.0,0,40,7.0,109.0
10848,71.0,36,40,7.0,109.0
10849,74.0,1,40,7.0,109.0
10850,55.0,4,40,8.0,109.0
10851,72.0,34,40,7.0,113.0
10852,69.0,3,40,7.0,113.0
10853,50.0,2,40,8.0,111.0
10854,71.0,36,40,7.0,113.0
10855,67.0,2,40,7.0,113.0
10856,43.0,4,40,8.0,113.0
10857,72.0,35,40,7.0,113.0
10858,69.0,3,40,7.0,113.0
10859,50.0,1,40,8.0,113.0
10860,71.0,33,40,7.0,113.0
10861,67.0,4,40,7.0,113.0
10862,43.0,5,40,8.0,113.0
10863,72.0,31,40,7.0,113.0
10864,69.0,5,40,7.0,113.0
10865,50.0,2,40,8.0,113.0
10866,67.0,3,405,11.0,100.0
10867,79.0,0,405,11.0,100.0
10868,74.0,32,40,7.0,117.0
10869,71.0,4,40,7.0,113.0
10870,55.0,7,40,8.0,113.0
10871,74.0,16,30,11.0,115.0
10872,76.0,15,40,7.0,114.0
10873,72.0,3,40,7.0,114.0
10874,62.0,3,40,8.0,113.0
10875,79.0,1,30,11.0,115.0
10876,77.0,33,40,7.0,116.0
10877,74.0,5,40,7.0,113.0
10878,67.0,1,40,8.0,116.0
10879,76.0,26,40,7.0,116.0
10880,72.0,3,40,7.0,113.0
10881,62.0,4,40,8.0,114.0
10882,74.0,16,30,11.0,115.0
10883,74.0,13,40,7.0,114.0
10884,83.0,0,120,0.0,114.0
10885,91.0,0,120,0.0,114.0
10886,71.0,7,40,7.0,116.0
10887,77.0,0,120,1.0,112.0
10888,55.0,2,40,8.0,114.0
10889,79.0,1,120,1.0,112.0
10890,74.0,0,120,2.0,112.0
10891,67.0,2,120,5.0,115.0
10892,67.0,0,120,2.0,112.0
10893,55.0,2,120,13.0,100.0
10894,55.0,4,120,3.0,113.0
10895,59.0,0,120,3.0,113.0
10896,43.0,1,120,14.0,100.0
10897,76.0,33,40,7.0,116.0
10898,72.0,0,40,7.0,116.0
10899,60.0,1,40,8.0,113.0
10900,77.0,25,40,7.0,114.0
10901,74.0,1,40,7.0,117.0
10902,55.0,3,40,8.0,113.0
10903,79.0,18,30,10.0,100.0
10904,76.0,19,25,7.0,113.0
10905,72.0,0,25,7.0,114.0
10906,48.0,4,25,8.0,113.0
10907,76.0,36,40,7.0,113.0
10908,72.0,1,40,7.0,114.0
10909,36.0,1,40,8.0,113.0
10910,77.0,34,40,7.0,117.0
10911,74.0,3,40,7.0,113.0
10912,43.0,4,40,8.0,113.0
10913,79.0,1,225,11.0,100.0
10914,72.0,0,225,11.0,100.0
10915,72.0,0,40,7.0,113.0
10916,76.0,35,40,7.0,114.0
10917,94.0,4,240,0.0,114.0
10918,84.0,0,240,0.0,114.0
10919,36.0,4,40,8.0,113.0
10920,76.0,1,240,1.0,112.0
10921,82.0,0,240,1.0,112.0
10922,70.0,0,240,2.0,112.0
10923,72.0,2,240,2.0,112.0
10924,48.0,0,240,3.0,113.0
10925,60.0,4,240,3.0,113.0
10926,77.0,35,40,7.0,114.0
10927,74.0,5,40,7.0,117.0
10928,43.0,4,40,8.0,116.0
10929,79.0,31,40,7.0,113.0
10930,76.0,3,40,7.0,113.0
10931,48.0,5,40,8.0,113.0
10932,60.0,0,105,11.0,100.0
10933,77.0,34,40,7.0,117.0
10934,74.0,1,40,7.0,113.0
10935,43.0,5,40,8.0,117.0
10936,60.0,2,0,5.0,115.0
10937,72.0,33,40,7.0,117.0
10938,76.0,1,40,7.0,113.0
10939,36.0,2,40,8.0,117.0
10940,77.0,30,40,7.0,117.0
10941,74.0,2,40,7.0,117.0
10942,43.0,7,40,8.0,116.0
10943,76.0,30,40,7.0,113.0
10944,72.0,3,40,7.0,116.0
10945,36.0,7,40,8.0,117.0
10946,77.0,31,40,7.0,114.0
10947,74.0,3,40,7.0,117.0
10948,43.0,5,40,8.0,117.0
10949,84.0,1,405,10.0,100.0
10950,79.0,34,40,7.0,117.0
10951,76.0,2,40,7.0,117.0
10952,48.0,3,40,8.0,117.0
10953,79.0,17,30,10.0,115.0
10954,81.0,19,40,7.0,117.0
10955,77.0,0,40,7.0,117.0
10956,55.0,3,40,8.0,117.0
10957,84.0,3,30,10.0,115.0
10958,82.0,35,40,7.0,117.0
10959,79.0,0,40,7.0,117.0
10960,60.0,2,40,8.0,117.0
10961,84.0,34,40,7.0,117.0
10962,81.0,3,40,7.0,117.0
10963,55.0,4,40,8.0,117.0
10964,79.0,17,30,10.0,115.0
10965,86.0,18,25,7.0,117.0
10966,82.0,3,25,7.0,117.0
10967,48.0,1,25,8.0,117.0
10968,89.0,35,40,7.0,117.0
10969,84.0,3,40,7.0,105.0
10970,69.0,4,40,8.0,105.0
10971,86.0,32,25,7.0,105.0
10972,91.0,1,25,7.0,117.0
10973,60.0,6,40,8.0,103.0
10974,88.0,30,20,7.0,115.0
10975,82.0,4,20,7.0,103.0
10976,48.0,6,40,8.0,103.0
10977,88.0,34,40,7.0,114.0
10978,82.0,1,40,7.0,99.0
10979,67.0,4,40,8.0,98.0
10980,84.0,34,25,7.0,99.0
10981,89.0,1,25,7.0,109.0
10982,60.0,7,40,8.0,98.0
10983,86.0,31,20,7.0,108.0
10984,81.0,5,20,7.0,93.0
10985,48.0,1,40,8.0,98.0
10986,86.0,32,40,7.0,104.0
10987,81.0,3,40,7.0,97.0
10988,65.0,4,40,8.0,96.0
10989,88.0,33,25,7.0,103.0
10990,82.0,4,25,7.0,96.0
10991,60.0,5,40,8.0,95.0
10992,84.0,34,20,7.0,101.0
10993,79.0,3,20,7.0,93.0
10994,48.0,3,25,8.0,93.0
10995,84.0,31,40,7.0,95.0
10996,79.0,6,40,7.0,87.0
10997,64.0,5,40,8.0,87.0
10998,86.0,30,25,7.0,93.0
10999,81.0,5,25,7.0,84.0
11000,60.0,2,40,8.0,87.0
11001,82.0,34,20,7.0,91.0
11002,77.0,2,20,7.0,83.0
11003,84.0,0,480,10.0,100.0
11004,48.0,7,40,8.0,83.0
11005,82.0,33,40,7.0,86.0
11006,77.0,2,40,7.0,82.0
11007,84.0,31,25,7.0,94.0
11008,62.0,3,60,8.0,81.0
11009,79.0,6,25,7.0,80.0
11010,81.0,13,20,7.0,84.0
11011,76.0,2,20,7.0,77.0
11012,82.0,1,120,10.0,100.0
11013,48.0,23,60,8.0,76.0
11014,81.0,35,40,7.0,80.0
11015,76.0,3,40,7.0,73.0
11016,82.0,29,25,7.0,78.0
11017,77.0,5,25,7.0,67.0
11018,60.0,6,60,8.0,71.0
11019,79.0,15,20,7.0,74.0
11020,74.0,1,20,7.0,65.0
11021,36.0,24,45,8.0,67.0
11022,81.0,2,120,10.0,100.0
11023,79.0,35,40,7.0,74.0
11024,74.0,4,40,7.0,64.0
11025,70.0,5,40,8.0,67.0
11026,81.0,33,40,7.0,73.0
11027,76.0,2,40,7.0,64.0
11028,60.0,2,40,8.0,66.0
11029,79.0,34,40,7.0,73.0
11030,79.0,1,120,10.0,100.0
11031,74.0,0,40,7.0,65.0
11032,72.0,3,1200,11.0,100.0
11033,70.0,6,40,8.0,61.0
11034,48.0,2,840,5.0,100.0
11035,48.0,2,1560,13.0,100.0
11036,36.0,1,1560,14.0,100.0
11037,81.0,37,40,7.0,75.0
11038,76.0,1,40,7.0,64.0
11039,60.0,3,40,8.0,60.0
11040,79.0,33,40,7.0,73.0
11041,74.0,4,40,7.0,63.0
11042,70.0,2,40,8.0,63.0
11043,81.0,37,40,7.0,70.0
11044,76.0,2,40,7.0,62.0
11045,60.0,1,40,8.0,63.0
11046,74.0,36,40,7.0,61.0
11047,79.0,1,40,7.0,71.0
11048,70.0,6,40,8.0,63.0
11049,81.0,34,40,7.0,67.0
11050,76.0,2,40,7.0,60.0
11051,60.0,2,40,8.0,60.0
11052,72.0,35,40,7.0,56.0
11053,77.0,1,40,7.0,69.0
11054,69.0,5,40,8.0,57.0
11055,79.0,32,40,7.0,69.0
11056,74.0,2,40,7.0,57.0
11057,58.0,7,40,8.0,58.0
11058,76.0,33,40,7.0,67.0
11059,70.0,4,40,7.0,55.0
11060,67.0,1,40,8.0,57.0
11061,77.0,35,40,7.0,65.0
11062,72.0,2,40,7.0,52.0
11063,48.0,3,40,8.0,47.0
11064,58.0,1,40,8.0,47.0
11065,74.0,32,40,7.0,66.0
11066,69.0,5,40,7.0,56.0
11067,65.0,3,40,8.0,52.0
11068,76.0,34,40,7.0,60.0
11069,70.0,2,40,7.0,56.0
11070,55.0,0,40,8.0,44.0
11071,48.0,4,40,8.0,46.0
11072,72.0,31,40,7.0,60.0
11073,67.0,3,40,7.0,49.0
11074,65.0,5,40,8.0,49.0
11075,74.0,35,40,7.0,57.0
11076,69.0,4,40,7.0,49.0
11077,48.0,2,40,8.0,43.0
11078,53.0,1,40,8.0,45.0
11079,65.0,33,40,7.0,49.0
11080,70.0,1,40,7.0,59.0
11081,64.0,3,40,8.0,53.0
11082,72.0,35,25,7.0,56.0
11083,67.0,2,25,7.0,49.0
11084,48.0,3,25,8.0,43.0
11085,52.0,2,25,8.0,44.0
11086,69.0,32,60,7.0,57.0
11087,64.0,2,60,7.0,50.0
11088,60.0,4,60,8.0,51.0
11089,70.0,55,60,7.0,57.0
11090,65.0,2,60,7.0,50.0
11091,48.0,0,60,8.0,40.0
11092,50.0,7,60,8.0,40.0
11093,62.0,52,60,7.0,50.0
11094,67.0,1,60,7.0,56.0
11095,58.0,5,60,8.0,50.0
11096,69.0,0,60,7.0,51.0
11097,64.0,54,60,7.0,48.0
11098,48.0,7,60,8.0,48.0
11099,65.0,52,60,7.0,55.0
11100,60.0,1,60,7.0,48.0
11101,57.0,6,60,8.0,48.0
11102,62.0,54,60,7.0,46.0
11103,67.0,1,60,7.0,54.0
11104,46.0,6,60,8.0,46.0
11105,64.0,54,60,7.0,51.0
11106,58.0,3,60,7.0,46.0
11107,55.0,4,60,8.0,46.0
11108,65.0,52,60,7.0,51.0
11109,60.0,3,60,7.0,44.0
11110,36.0,3,60,8.0,39.0
11111,45.0,2,60,8.0,39.0
11112,62.0,50,60,7.0,51.0
11113,57.0,5,60,7.0,44.0
11114,53.0,1,60,8.0,44.0
11115,64.0,57,60,7.0,51.0
11116,58.0,2,60,7.0,44.0
11117,36.0,2,60,8.0,38.0
11118,43.0,3,60,8.0,38.0
11119,60.0,1,60,7.0,51.0
11120,52.0,5,60,8.0,44.0
11121,58.0,52,50,7.0,51.0
11122,55.0,52,110,7.0,44.0
11123,36.0,6,50,8.0,37.0
11124,40.0,2,50,8.0,39.0
11125,60.0,56,40,10.0,73.0
11126,57.0,0,40,11.0,73.0
11127,53.0,1,40,12.0,73.0
11128,62.0,27,40,10.0,73.0
11129,58.0,2,40,11.0,73.0
11130,48.0,5,40,12.0,73.0
11131,60.0,19,32,5.0,100.0
11132,60.0,14,40,10.0,73.0
11133,57.0,2,40,11.0,73.0
11134,53.0,2,120,7.0,38.0
11135,57.0,0,120,7.0,44.0
11136,48.0,3,120,8.0,39.0
11137,41.0,0,120,8.0,39.0
11138,53.0,5,40,12.0,73.0
11139,62.0,33,40,10.0,73.0
11140,58.0,2,40,11.0,73.0
11141,48.0,1,40,12.0,73.0
11142,60.0,33,40,10.0,73.0
11143,57.0,2,40,11.0,73.0
11144,53.0,5,40,12.0,73.0
11145,62.0,33,40,10.0,73.0
11146,58.0,2,40,11.0,73.0
11147,48.0,5,40,12.0,73.0
11148,60.0,33,40,10.0,73.0
11149,57.0,2,40,11.0,73.0
11150,53.0,5,40,12.0,73.0
11151,62.0,33,40,10.0,73.0
11152,58.0,2,40,11.0,73.0
11153,48.0,5,40,12.0,73.0
11154,60.0,33,40,10.0,73.0
11155,57.0,2,40,11.0,73.0
11156,69.0,0,357,2.0,91.0
11157,65.0,0,357,2.0,91.0
11158,53.0,5,40,12.0,73.0
11159,62.0,33,40,10.0,73.0
11160,58.0,2,40,11.0,73.0
11161,48.0,1,40,12.0,73.0
11162,60.0,33,40,10.0,73.0
11163,57.0,2,40,11.0,73.0
11164,53.0,5,40,12.0,73.0
11165,62.0,33,40,10.0,73.0
11166,58.0,2,40,11.0,73.0
11167,48.0,5,40,12.0,73.0
11168,53.0,4,477,3.0,113.0
11169,60.0,33,40,10.0,73.0
11170,57.0,2,40,11.0,73.0
11171,53.0,5,40,12.0,73.0
11172,65.0,4,402,5.0,100.0
11173,62.0,28,40,10.0,73.0
11174,58.0,2,40,11.0,73.0
11175,48.0,5,40,12.0,73.0
11176,60.0,19,44,5.0,100.0
11177,60.0,14,40,10.0,73.0
11178,57.0,2,40,11.0,73.0
11179,53.0,5,40,12.0,73.0
11180,53.0,5,117,3.0,113.0
11181,62.0,33,40,10.0,73.0
11182,58.0,2,40,11.0,73.0
11183,48.0,1,40,12.0,73.0
11184,67.0,4,44,5.0,100.0
11185,60.0,28,40,10.0,73.0
11186,57.0,2,40,11.0,73.0
11187,52.0,5,40,12.0,73.0
11188,60.0,19,44,5.0,100.0
11189,62.0,14,40,10.0,73.0
11190,58.0,2,40,11.0,73.0
11191,70.0,0,357,2.0,79.0
11192,67.0,4,357,2.0,79.0
11193,48.0,5,40,12.0,73.0
11194,52.0,5,117,3.0,113.0
11195,65.0,0,32,5.0,100.0
11196,60.0,33,40,10.0,73.0
11197,57.0,2,40,11.0,73.0
11198,53.0,1,40,12.0,73.0
11199,62.0,28,40,10.0,73.0
11200,58.0,2,40,11.0,73.0
11201,48.0,5,40,12.0,73.0
11202,60.0,19,32,5.0,100.0
11203,60.0,14,40,10.0,73.0
11204,57.0,2,40,11.0,73.0
11205,53.0,5,40,12.0,73.0
11206,62.0,33,40,10.0,73.0
11207,58.0,2,40,11.0,73.0
11208,48.0,1,40,12.0,73.0
11209,60.0,33,40,10.0,73.0
11210,57.0,2,40,11.0,73.0
11211,53.0,5,40,12.0,73.0
11212,62.0,33,40,10.0,73.0
11213,58.0,2,40,11.0,73.0
11214,48.0,5,40,12.0,73.0
11215,60.0,33,40,10.0,73.0
11216,57.0,2,40,11.0,73.0
11217,53.0,5,40,12.0,73.0
11218,62.0,33,40,10.0,73.0
11219,58.0,2,40,11.0,73.0
11220,48.0,5,40,12.0,73.0
11221,60.0,33,40,10.0,73.0
11222,57.0,2,40,11.0,73.0
11223,69.0,4,357,2.0,91.0
11224,65.0,0,357,2.0,91.0
11225,41.0,1,1077,5.0,81.0
11226,53.0,5,40,12.0,73.0
11227,62.0,33,40,10.0,73.0
11228,58.0,2,40,11.0,73.0
11229,48.0,1,40,12.0,73.0
11230,60.0,33,40,10.0,73.0
11231,57.0,2,40,11.0,73.0
11232,53.0,5,40,12.0,73.0
11233,62.0,33,40,10.0,73.0
11234,58.0,2,40,11.0,73.0
11235,48.0,5,40,12.0,73.0
11236,53.0,1,1200,13.0,73.0
11237,53.0,5,477,3.0,113.0
11238,41.0,1,1200,14.0,73.0
11239,60.0,6,40,10.0,73.0
11240,57.0,2,40,11.0,73.0
11241,53.0,5,40,12.0,73.0
11242,65.0,4,402,5.0,100.0
11243,62.0,27,40,10.0,73.0
11244,58.0,2,40,11.0,73.0
11245,48.0,5,40,12.0,73.0
11246,60.0,19,44,5.0,100.0
11247,36.0,0,120,8.0,82.0
11248,48.0,27,120,8.0,82.0
11249,60.0,14,40,10.0,73.0
11250,57.0,2,40,11.0,73.0
11251,53.0,5,40,12.0,73.0
11252,48.0,1,120,13.0,73.0
11253,53.0,4,117,3.0,113.0
11254,36.0,1,120,14.0,73.0
11255,62.0,33,40,10.0,73.0
11256,58.0,2,40,11.0,73.0
11257,48.0,1,40,12.0,73.0
11258,67.0,4,44,5.0,100.0
11259,60.0,26,40,10.0,73.0
11260,57.0,2,40,11.0,73.0
11261,52.0,5,40,12.0,73.0
11262,60.0,19,44,5.0,100.0
11263,62.0,14,40,10.0,73.0
11264,46.0,1,108,8.0,86.0
11265,58.0,2,40,11.0,73.0
11266,34.0,0,108,8.0,86.0
11267,70.0,4,357,2.0,79.0
11268,67.0,0,357,2.0,79.0
11269,48.0,5,40,12.0,73.0
11270,46.0,1,120,13.0,73.0
11271,52.0,4,117,3.0,113.0
11272,34.0,1,120,14.0,73.0
11273,33.0,1,40,8.0,101.0
11274,45.0,30,40,8.0,106.0
11275,60.0,33,120,10.0,73.0
11276,60.0,2,120,11.0,73.0
11277,48.0,42,40,8.0,99.0
11278,53.0,1,120,12.0,73.0
11279,45.0,1,120,13.0,100.0
11280,33.0,1,120,14.0,100.0
11281,53.0,39,40,8.0,100.0
11282,57.0,42,40,8.0,105.0
11283,60.0,36,40,8.0,107.0
11284,72.0,0,237,2.0,91.0
11285,65.0,0,237,2.0,91.0
11286,53.0,4,237,3.0,113.0
11287,72.0,37,25,7.0,109.0
11288,65.0,40,40,7.0,111.0
11289,77.0,42,25,7.0,114.0
11290,33.0,4,40,8.0,103.0
11291,45.0,26,40,8.0,102.0
11292,66.0,37,120,7.0,117.0
11293,51.0,39,40,8.0,107.0
11294,72.0,3,477,5.0,115.0
11295,45.0,6,120,13.0,49.0
11296,33.0,5,120,14.0,49.0
11297,78.0,4,120,7.0,116.0
11298,54.0,44,40,8.0,107.0
11299,60.0,38,40,8.0,112.0
11300,63.0,41,40,8.0,111.0
11301,72.0,33,25,7.0,114.0
11302,66.0,43,40,7.0,114.0
11303,78.0,39,25,7.0,117.0
11304,34.0,1,40,8.0,101.0
11305,46.0,4,40,8.0,102.0
11306,64.0,38,60,7.0,110.0
11307,79.0,15,40,7.0,120.0
11308,72.0,14,13,7.0,103.0
11309,48.0,17,40,8.0,120.0
11310,52.0,24,40,8.0,117.0
11311,46.0,5,120,13.0,49.0
11312,34.0,1,120,14.0,49.0
11313,60.0,1,40,8.0,117.0
11314,79.0,25,17,7.0,116.0
11315,81.0,0,17,7.0,116.0
11316,55.0,15,40,8.0,115.0
11317,79.0,18,60,7.0,116.0
11318,84.0,38,120,7.0,117.0
11319,52.0,24,40,8.0,115.0
11320,55.0,7,40,8.0,116.0
11321,77.0,35,60,7.0,115.0
11322,52.0,38,40,8.0,113.0
11323,48.0,24,25,8.0,111.0
11324,76.0,18,60,7.0,113.0
11325,33.0,36,25,8.0,112.0
11326,45.0,3,25,8.0,113.0
11327,79.0,0,45,7.0,113.0
11328,48.0,30,40,8.0,112.0
11329,60.0,17,60,7.0,112.0
11330,53.0,23,40,8.0,110.0
11331,45.0,3,120,13.0,49.0
11332,33.0,5,120,14.0,49.0
11333,60.0,3,40,8.0,107.0
11334,72.0,37,60,7.0,109.0
11335,57.0,26,40,8.0,107.0
11336,69.0,17,60,7.0,106.0
11337,53.0,24,40,8.0,106.0
11338,57.0,6,40,8.0,103.0
11339,67.0,34,60,7.0,104.0
11340,77.0,14,165,7.0,109.0
11341,53.0,42,40,8.0,102.0
11342,48.0,22,25,8.0,103.0
11343,76.0,1,60,7.0,103.0
11344,34.0,1,25,8.0,100.0
11345,46.0,0,25,8.0,100.0
11346,65.0,13,120,7.0,102.0
11347,73.0,38,60,7.0,100.0
11348,50.0,33,25,8.0,96.0
11349,57.0,23,25,8.0,94.0
11350,66.0,3,60,7.0,95.0
11351,34.0,5,120,14.0,49.0
11352,62.0,3,25,8.0,93.0
11353,74.0,13,105,7.0,95.0
11354,67.0,36,60,7.0,92.0
11355,58.0,41,25,8.0,88.0
11356,55.0,25,25,8.0,85.0
11357,72.0,2,60,7.0,85.0
11358,58.0,6,25,8.0,88.0
11359,70.0,32,60,7.0,85.0
11360,62.0,14,120,7.0,86.0
11361,55.0,41,25,8.0,85.0
11362,67.0,0,45,7.0,82.0
11363,50.0,27,25,8.0,79.0
11364,58.0,14,60,7.0,84.0
11365,62.0,2,360,11.0,100.0
11366,50.0,4,360,12.0,100.0
11367,46.0,1,360,13.0,100.0
11368,36.0,4,25,8.0,76.0
11369,58.0,34,60,7.0,84.0
11370,67.0,0,60,7.0,85.0
11371,48.0,31,25,8.0,74.0
11372,52.0,22,25,8.0,70.0
11373,57.0,15,60,7.0,77.0
11374,65.0,2,60,7.0,80.0
11375,36.0,5,120,14.0,49.0
11376,53.0,41,25,8.0,65.0
11377,48.0,38,25,8.0,68.0
11378,57.0,16,45,7.0,71.0
11379,65.0,0,45,7.0,71.0
11380,36.0,19,25,8.0,66.0
11381,60.0,8,44,5.0,94.0
11382,67.0,10,25,7.0,70.0
11383,57.0,1,240,12.0,100.0
11384,48.0,1,240,13.0,100.0
11385,67.0,4,44,5.0,94.0
11386,65.0,1,60,7.0,72.0
11387,36.0,30,25,8.0,65.0
11388,46.0,1,105,8.0,66.0
11389,34.0,16,25,8.0,65.0
11390,60.0,8,44,5.0,94.0
11391,64.0,15,60,7.0,71.0
11392,55.0,25,120,7.0,70.0
11393,55.0,1,120,12.0,100.0
11394,46.0,1,120,13.0,100.0
11395,34.0,5,120,14.0,49.0
11396,32.0,1,40,8.0,70.0
11397,44.0,17,40,8.0,68.0
11398,60.0,36,120,7.0,82.0
11399,60.0,2,480,11.0,100.0
11400,48.0,39,40,8.0,75.0
11401,53.0,1,120,12.0,100.0
11402,32.0,5,120,14.0,49.0
11403,72.0,14,120,7.0,82.0
11404,53.0,43,40,8.0,76.0
11405,56.0,39,40,8.0,82.0
11406,60.0,37,40,8.0,84.0
11407,72.0,40,25,7.0,88.0
11408,65.0,38,40,7.0,93.0
11409,77.0,40,25,7.0,93.0
11410,32.0,4,40,8.0,82.0
11411,44.0,20,40,8.0,84.0
11412,66.0,38,120,7.0,95.0
11413,72.0,7,477,5.0,94.0
11414,51.0,42,40,8.0,88.0
11415,78.0,21,120,7.0,100.0
11416,56.0,37,40,8.0,92.0
11417,60.0,42,40,8.0,97.0
11418,63.0,39,40,8.0,95.0
11419,72.0,35,25,7.0,98.0
11420,66.0,41,40,7.0,104.0
11421,78.0,43,25,7.0,106.0
11422,32.0,36,35,8.0,91.0
11423,44.0,1,35,8.0,92.0
11424,65.0,2,60,7.0,112.0
11425,73.0,21,60,7.0,113.0
11426,53.0,11,35,8.0,91.0
11427,80.0,16,60,7.0,117.0
11428,77.0,9,60,7.0,117.0
11429,56.0,29,35,8.0,100.0
11430,68.0,5,35,8.0,100.0
11431,89.0,31,60,7.0,117.0
11432,61.0,46,35,8.0,100.0
11433,85.0,13,60,7.0,117.0
11434,56.0,27,35,8.0,101.0
11435,65.0,6,35,8.0,99.0
11436,84.0,30,60,7.0,117.0
11437,61.0,42,35,8.0,101.0
11438,82.0,11,60,7.0,117.0
11439,56.0,28,35,8.0,100.0
11440,44.0,6,35,8.0,100.0
11441,57.0,3,35,8.0,100.0
11442,77.0,38,40,7.0,111.0
11443,78.0,37,40,7.0,111.0
11444,60.0,5,35,8.0,100.0
11445,66.0,5,35,8.0,100.0
11446,74.0,34,40,7.0,111.0
11447,60.0,4,35,8.0,100.0
11448,75.0,36,40,7.0,112.0
11449,80.0,32,225,7.0,120.0
11450,72.0,32,40,7.0,111.0
11451,56.0,8,35,8.0,100.0
11452,60.0,3,35,8.0,101.0
11453,70.0,33,60,7.0,111.0
11454,56.0,45,35,8.0,100.0
11455,68.0,11,60,7.0,111.0
11456,51.0,26,35,8.0,100.0
11457,44.0,5,35,8.0,99.0
11458,78.0,2,180,7.0,118.0
11459,53.0,43,35,8.0,99.0
11460,77.0,10,45,7.0,117.0
11461,56.0,30,35,8.0,99.0
11462,61.0,2,35,8.0,99.0
11463,75.0,32,45,7.0,113.0
11464,73.0,12,2,7.0,109.0
11465,57.0,44,35,8.0,97.0
11466,77.0,1,45,7.0,116.0
11467,53.0,25,35,8.0,103.0
11468,72.0,0,40,7.0,107.0
11469,56.0,5,35,8.0,103.0
11470,70.0,35,40,7.0,106.0
11471,51.0,8,35,8.0,101.0
11472,44.0,4,35,8.0,102.0
11473,72.0,33,40,7.0,103.0
11474,32.0,4,40,8.0,102.0
11475,78.0,35,180,7.0,112.0
11476,53.0,47,40,8.0,101.0
11477,77.0,11,45,7.0,109.0
11478,56.0,25,40,8.0,96.0
11479,76.0,36,45,7.0,109.0
11480,61.0,5,40,8.0,95.0
11481,73.0,33,180,7.0,87.0
11482,56.0,43,40,8.0,92.0
11483,73.0,2,60,7.0,92.0
11484,53.0,24,40,8.0,92.0
11485,77.0,11,105,7.0,106.0
11486,56.0,4,40,8.0,92.0
11487,72.0,35,60,7.0,87.0
11488,53.0,44,40,8.0,92.0
11489,49.0,29,25,8.0,91.0
11490,77.0,9,60,7.0,100.0
11491,44.0,6,40,8.0,91.0
11492,76.0,31,60,7.0,99.0
11493,73.0,1,120,7.0,87.0
11494,48.0,41,40,8.0,91.0
11495,72.0,13,60,7.0,82.0
11496,53.0,27,40,8.0,86.0
11497,60.0,6,40,8.0,84.0
11498,71.0,31,60,7.0,80.0
11499,53.0,41,40,8.0,84.0
11500,48.0,26,40,8.0,84.0
11501,53.0,37,40,8.0,84.0
11502,77.0,12,1,7.0,101.0
11503,48.0,44,40,8.0,84.0
11504,44.0,28,25,8.0,84.0
11505,44.0,1,2520,13.0,100.0
11506,43.0,5,40,8.0,79.0
11507,76.0,32,60,7.0,92.0
11508,72.0,14,3,7.0,72.0
11509,50.0,32,40,8.0,80.0
11510,55.0,27,40,8.0,79.0
11511,31.0,5,120,14.0,49.0
11512,62.0,2,40,8.0,78.0
11513,70.0,30,60,7.0,68.0
11514,55.0,42,40,8.0,73.0
11515,67.0,1,120,10.0,66.0
11516,67.0,3,120,6.0,92.0
11517,50.0,29,40,8.0,77.0
11518,55.0,0,40,8.0,73.0
11519,77.0,11,2,7.0,87.0
11520,50.0,46,40,8.0,72.0
11521,43.0,27,25,8.0,72.0
11522,79.0,32,120,10.0,66.0
11523,79.0,3,120,6.0,92.0
11524,43.0,2,360,13.0,100.0
11525,36.0,3,40,8.0,65.0
11526,71.0,12,240,7.0,66.0
11527,75.0,33,60,7.0,85.0
11528,48.0,33,40,8.0,70.0
11529,72.0,1,60,7.0,64.0
11530,67.0,0,120,10.0,66.0
11531,36.0,22,40,8.0,62.0
11532,67.0,3,120,6.0,92.0
11533,48.0,2,120,13.0,100.0
11534,36.0,5,120,14.0,49.0
11535,48.0,2,40,8.0,70.0
11536,69.0,36,60,7.0,63.0
11537,76.0,13,120,7.0,84.0
11538,36.0,43,40,8.0,61.0
11539,77.0,2,120,10.0,66.0
11540,76.0,3,60,7.0,84.0
11541,77.0,1,120,6.0,92.0
11542,48.0,23,40,8.0,70.0
11543,36.0,2,40,8.0,61.0
11544,70.0,13,120,7.0,62.0
11545,73.0,0,60,7.0,84.0
11546,48.0,42,40,8.0,70.0
11547,71.0,0,60,7.0,61.0
11548,74.0,1,1,7.0,57.0
11549,65.0,35,120,10.0,66.0
11550,65.0,1,120,6.0,92.0
11551,36.0,24,40,8.0,61.0
11552,48.0,0,40,8.0,70.0
11553,67.0,34,60,7.0,60.0
11554,36.0,40,40,8.0,57.0
11555,74.0,16,60,7.0,79.0
11556,76.0,1,120,10.0,66.0
11557,76.0,3,120,6.0,92.0
11558,48.0,24,40,8.0,70.0
11559,36.0,1,40,8.0,60.0
11560,71.0,1,60,7.0,82.0
11561,69.0,18,0,7.0,61.0
11562,48.0,40,40,8.0,68.0
11563,64.0,35,120,10.0,66.0
11564,36.0,21,40,8.0,55.0
11565,64.0,1,120,6.0,92.0
11566,48.0,2,40,8.0,65.0
11567,72.0,1,120,7.0,79.0
11568,65.0,2,60,7.0,59.0
11569,36.0,41,40,8.0,60.0
11570,48.0,23,25,8.0,65.0
11571,74.0,37,120,10.0,66.0
11572,67.0,4,60,7.0,59.0
11573,74.0,1,120,6.0,92.0
11574,36.0,3,40,8.0,56.0
11575,48.0,39,40,8.0,65.0
11576,70.0,12,180,7.0,80.0
11577,62.0,1,120,10.0,66.0
11578,36.0,41,40,8.0,56.0
11579,62.0,0,120,6.0,92.0
11580,48.0,3,40,8.0,65.0
11581,36.0,39,40,8.0,54.0
11582,64.0,34,240,7.0,60.0
11583,72.0,2,120,10.0,66.0
11584,48.0,37,40,8.0,65.0
11585,72.0,3,120,6.0,92.0
11586,36.0,3,40,8.0,51.0
11587,48.0,39,40,8.0,65.0
11588,65.0,36,120,7.0,56.0
11589,60.0,2,120,10.0,66.0
11590,60.0,3,120,6.0,92.0
11591,36.0,38,40,8.0,51.0
11592,48.0,2,40,8.0,62.0
11593,36.0,39,40,8.0,50.0
11594,69.0,35,360,7.0,79.0
11595,70.0,37,120,10.0,66.0
11596,48.0,39,40,8.0,63.0
11597,70.0,3,120,6.0,92.0
11598,36.0,3,40,8.0,51.0
11599,48.0,36,40,8.0,63.0
11600,62.0,0,240,7.0,53.0
11601,58.0,37,120,10.0,66.0
11602,58.0,1,120,6.0,92.0
11603,36.0,41,40,8.0,48.0
11604,48.0,2,40,8.0,61.0
11605,36.0,42,40,8.0,48.0
11606,64.0,36,105,7.0,52.0
11607,48.0,37,25,8.0,61.0
11608,60.0,1,120,10.0,66.0
11609,67.0,2,240,7.0,73.0
11610,60.0,1,120,6.0,92.0
11611,48.0,0,1437,5.0,100.0
11612,60.0,1,40,7.0,60.0
11613,41.0,2,40,8.0,59.0
11614,69.0,28,40,7.0,57.0
11615,48.0,2,40,8.0,59.0
11616,60.0,23,32,5.0,105.0
11617,57.0,38,120,10.0,66.0
11618,72.0,16,40,7.0,57.0
11619,57.0,2,120,6.0,92.0
11620,41.0,1,117,5.0,100.0
11621,57.0,5,40,8.0,59.0
11622,48.0,2,120,13.0,100.0
11623,36.0,5,120,14.0,49.0
11624,60.0,31,40,7.0,59.0
11625,41.0,4,40,8.0,57.0
11626,65.0,37,40,7.0,57.0
11627,48.0,4,40,8.0,57.0
11628,68.0,35,40,7.0,57.0
11629,56.0,4,40,8.0,55.0
11630,60.0,34,40,7.0,59.0
11631,41.0,6,40,8.0,57.0
11632,65.0,37,40,7.0,55.0
11633,48.0,4,40,8.0,57.0
11634,69.0,35,40,7.0,55.0
11635,57.0,1,40,8.0,55.0
11636,60.0,36,40,7.0,59.0
11637,41.0,4,40,8.0,55.0
11638,65.0,39,40,7.0,55.0
11639,48.0,5,40,8.0,56.0
11640,70.0,34,40,7.0,55.0
11641,55.0,2,40,8.0,55.0
11642,60.0,35,40,7.0,57.0
11643,41.0,9,40,8.0,55.0
11644,65.0,4,402,5.0,105.0
11645,70.0,33,40,7.0,55.0
11646,48.0,3,40,8.0,55.0
11647,60.0,23,44,5.0,105.0
11648,74.0,13,40,7.0,55.0
11649,55.0,7,40,8.0,55.0
11650,64.0,33,40,7.0,55.0
11651,41.0,5,40,8.0,55.0
11652,67.0,2,44,5.0,106.0
11653,70.0,33,40,7.0,55.0
11654,48.0,6,40,8.0,55.0
11655,60.0,21,44,5.0,106.0
11656,76.0,16,40,7.0,55.0
11657,55.0,4,40,8.0,55.0
11658,65.0,35,40,7.0,55.0
11659,41.0,3,40,8.0,55.0
11660,65.0,2,42,5.0,106.0
11661,69.0,33,40,7.0,55.0
11662,48.0,8,40,8.0,55.0
11663,60.0,19,32,5.0,106.0
11664,77.0,13,40,7.0,55.0
11665,57.0,4,40,8.0,55.0
11666,69.0,30,40,7.0,56.0
11667,41.0,7,40,8.0,55.0
11668,77.0,33,40,7.0,55.0
11669,48.0,5,40,8.0,55.0
11670,81.0,35,40,7.0,55.0
11671,57.0,4,40,8.0,55.0
11672,72.0,38,40,7.0,57.0
11673,41.0,1,40,8.0,55.0
11674,81.0,39,40,7.0,55.0
11675,48.0,3,40,8.0,55.0
11676,84.0,38,40,7.0,55.0
11677,57.0,3,40,8.0,55.0
11678,70.0,37,40,7.0,56.0
11679,41.0,1,40,8.0,56.0
11680,76.0,39,40,7.0,56.0
11681,48.0,3,40,8.0,56.0
11682,82.0,33,40,7.0,56.0
11683,55.0,4,40,8.0,55.0
11684,67.0,38,40,7.0,57.0
11685,41.0,4,40,8.0,55.0
11686,65.0,6,402,5.0,108.0
11687,76.0,39,40,7.0,56.0
11688,48.0,3,40,8.0,55.0
11689,60.0,20,44,5.0,109.0
11690,79.0,14,40,7.0,55.0
11691,58.0,4,40,8.0,55.0
11692,64.0,38,40,7.0,59.0
11693,41.0,1,40,8.0,55.0
11694,67.0,4,44,5.0,109.0
11695,70.0,33,40,7.0,56.0
11696,48.0,4,40,8.0,55.0
11697,60.0,22,44,5.0,109.0
11698,76.0,16,40,7.0,55.0
11699,55.0,3,40,8.0,55.0
11700,63.0,33,40,7.0,59.0
11701,41.0,0,40,8.0,56.0
11702,65.0,8,42,5.0,109.0
11703,69.0,36,40,7.0,56.0
11704,48.0,4,40,8.0,56.0
11705,60.0,20,32,5.0,109.0
11706,75.0,16,40,7.0,56.0
11707,53.0,0,40,8.0,55.0
11708,63.0,35,40,7.0,59.0
11709,41.0,5,40,8.0,56.0
11710,69.0,35,40,7.0,55.0
11711,48.0,4,40,8.0,56.0
11712,75.0,33,40,7.0,55.0
11713,53.0,9,40,8.0,56.0
11714,63.0,31,40,7.0,59.0
11715,41.0,9,40,8.0,55.0
11716,69.0,31,40,7.0,56.0
11717,48.0,6,40,8.0,56.0
11718,75.0,38,40,7.0,55.0
11719,53.0,4,40,8.0,55.0
11720,65.0,4,277,5.0,109.0
11721,62.0,37,40,7.0,59.0
11722,41.0,3,40,8.0,55.0
11723,70.0,35,40,7.0,55.0
11724,46.0,3,40,8.0,55.0
11725,58.0,22,32,5.0,110.0
11726,74.0,12,40,7.0,55.0
11727,53.0,8,40,8.0,56.0
11728,62.0,31,40,7.0,59.0
11729,41.0,2,40,8.0,55.0
11730,70.0,34,40,7.0,55.0
11731,46.0,2,40,8.0,55.0
11732,74.0,40,40,7.0,56.0
11733,53.0,3,40,8.0,56.0
11734,62.0,35,40,7.0,56.0
11735,41.0,3,40,8.0,55.0
11736,70.0,40,40,7.0,55.0
11737,46.0,1,40,8.0,56.0
11738,74.0,39,40,7.0,55.0
11739,53.0,2,40,8.0,55.0
11740,60.0,36,40,7.0,59.0
11741,65.0,7,277,5.0,111.0
11742,41.0,5,40,8.0,57.0
11743,65.0,32,40,7.0,57.0
11744,45.0,6,40,8.0,56.0
11745,53.0,22,32,5.0,112.0
11746,72.0,14,40,7.0,57.0
11747,53.0,7,40,8.0,57.0
11748,60.0,26,40,7.0,59.0
11749,41.0,7,40,8.0,56.0
11750,65.0,36,40,7.0,56.0
11751,45.0,4,40,8.0,57.0
11752,72.0,35,40,7.0,56.0
11753,53.0,5,40,8.0,56.0
11754,60.0,33,40,7.0,59.0
11755,41.0,3,40,8.0,56.0
11756,65.0,41,40,7.0,57.0
11757,45.0,4,40,8.0,56.0
11758,72.0,36,40,7.0,56.0
11759,53.0,1,40,8.0,56.0
11760,65.0,39,40,7.0,59.0
11761,48.0,2,40,8.0,56.0
11762,69.0,36,40,7.0,57.0
11763,53.0,6,40,8.0,56.0
11764,65.0,6,347,5.0,112.0
11765,77.0,35,40,7.0,55.0
11766,60.0,5,40,8.0,57.0
11767,65.0,35,40,7.0,57.0
11768,48.0,2,40,8.0,56.0
11769,69.0,34,40,7.0,56.0
11770,53.0,4,40,8.0,56.0
11771,77.0,38,40,7.0,57.0
11772,60.0,5,40,8.0,57.0
11773,48.0,36,40,8.0,57.0
11774,65.0,0,40,7.0,57.0
11775,69.0,37,40,7.0,56.0
11776,53.0,5,40,8.0,57.0
11777,77.0,35,40,7.0,56.0
11778,53.0,2,237,5.0,105.0
11779,60.0,7,40,8.0,56.0
11780,53.0,0,40,8.0,56.0
11781,69.0,35,40,7.0,59.0
11782,77.0,34,40,7.0,57.0
11783,60.0,3,40,8.0,57.0
11784,81.0,37,40,7.0,57.0
11785,65.0,3,40,8.0,56.0
11786,69.0,35,40,7.0,57.0
11787,53.0,6,40,8.0,56.0
11788,77.0,39,40,7.0,55.0
11789,60.0,3,40,8.0,55.0
11790,81.0,34,40,7.0,55.0
11791,65.0,3,40,8.0,55.0
11792,69.0,37,40,7.0,59.0
11793,53.0,7,40,8.0,54.0
11794,77.0,32,40,7.0,55.0
11795,60.0,8,40,8.0,51.0
11796,81.0,32,40,7.0,55.0
11797,65.0,3,40,8.0,51.0
11798,72.0,39,40,7.0,55.0
11799,53.0,2,40,8.0,50.0
11800,77.0,40,40,7.0,55.0
11801,60.0,0,40,8.0,51.0
11802,84.0,37,40,7.0,55.0
11803,69.0,7,40,8.0,50.0
11804,53.0,35,40,8.0,50.0
11805,72.0,1,40,7.0,55.0
11806,77.0,37,40,7.0,55.0
11807,60.0,6,40,8.0,50.0
11808,84.0,35,40,7.0,55.0
11809,69.0,4,40,8.0,49.0
11810,53.0,37,40,8.0,48.0
11811,72.0,1,40,7.0,54.0
11812,77.0,36,40,7.0,54.0
11813,60.0,7,40,8.0,48.0
11814,84.0,35,40,7.0,55.0
11815,69.0,2,40,8.0,48.0
11816,77.0,1,40,7.0,56.0
11817,65.0,37,60,8.0,54.0
11818,84.0,40,40,7.0,55.0
11819,77.0,20,60,8.0,45.0
11820,89.0,22,40,7.0,56.0
11821,77.0,39,40,7.0,55.0
11822,65.0,1,60,8.0,48.0
11823,84.0,35,40,7.0,54.0
11824,89.0,15,40,7.0,54.0
11825,77.0,27,60,8.0,40.0
11826,77.0,38,40,7.0,55.0
11827,65.0,6,60,8.0,46.0
11828,84.0,34,40,7.0,55.0
11829,77.0,22,60,8.0,39.0
11830,89.0,22,40,7.0,51.0
11831,77.0,36,40,7.0,55.0
11832,65.0,2,60,8.0,44.0
11833,84.0,43,40,7.0,51.0
11834,89.0,17,40,7.0,50.0
11835,77.0,22,60,8.0,37.0
11836,77.0,1,40,7.0,54.0
11837,65.0,39,60,8.0,38.0
11838,84.0,39,40,7.0,51.0
11839,89.0,18,40,7.0,51.0
11840,77.0,19,60,8.0,34.0
11841,77.0,2,40,7.0,44.0
11842,65.0,43,60,8.0,32.0
11843,84.0,40,40,7.0,38.0
11844,89.0,16,40,7.0,35.0
11845,77.0,19,60,8.0,23.0
11846,41.0,4,1437,5.0,100.0
11847,53.0,1,40,12.0,79.0
11848,65.0,35,40,12.0,79.0
11849,53.0,40,40,12.0,79.0
11850,65.0,40,40,12.0,79.0
11851,53.0,40,40,12.0,79.0
11852,65.0,40,40,12.0,79.0
11853,53.0,40,40,12.0,79.0
11854,65.0,40,40,12.0,79.0
11855,53.0,40,40,12.0,79.0
11856,65.0,40,40,12.0,79.0
11857,53.0,40,40,12.0,79.0
11858,75.0,46,480,1.0,100.0
11859,65.0,40,40,12.0,79.0
11860,53.0,3,40,12.0,79.0
11861,65.0,40,40,12.0,79.0
11862,74.0,37,120,1.0,100.0
11863,53.0,40,40,12.0,79.0
11864,65.0,3,40,12.0,79.0
11865,53.0,40,40,12.0,79.0
11866,72.0,37,85,1.0,100.0
11867,65.0,40,40,12.0,79.0
11868,53.0,3,40,12.0,79.0
11869,65.0,40,40,12.0,79.0
11870,53.0,40,40,12.0,79.0
11871,65.0,40,40,12.0,79.0
11872,53.0,40,40,12.0,79.0
11873,72.0,37,240,1.0,100.0
11874,65.0,40,40,12.0,79.0
11875,53.0,3,40,12.0,79.0
11876,65.0,40,40,12.0,79.0
11877,65.0,2,1070,2.0,73.0
11878,63.0,0,1070,2.0,73.0
11879,74.0,37,120,1.0,100.0
11880,53.0,40,40,12.0,79.0
11881,57.0,5,1080,3.0,74.0
11882,63.0,0,1080,3.0,74.0
11883,65.0,1,40,12.0,79.0
11884,53.0,35,40,12.0,79.0
11885,65.0,40,40,12.0,79.0
11886,53.0,40,40,12.0,79.0
11887,65.0,40,40,12.0,79.0
11888,70.0,37,230,1.0,100.0
11889,53.0,40,40,12.0,79.0
11890,65.0,3,40,12.0,79.0
11891,53.0,40,40,12.0,79.0
11892,74.0,37,120,1.0,100.0
11893,65.0,40,40,12.0,79.0
11894,58.0,5,360,3.0,83.0
11895,53.0,3,40,12.0,79.0
11896,65.0,40,40,12.0,79.0
11897,77.0,2,120,1.0,100.0
11898,53.0,40,40,12.0,79.0
11899,65.0,3,40,12.0,79.0
11900,53.0,40,40,12.0,79.0
11901,81.0,37,120,1.0,100.0
11902,65.0,40,40,12.0,79.0
11903,62.0,0,600,3.0,83.0
11904,53.0,3,40,12.0,79.0
11905,65.0,35,40,12.0,79.0
11906,70.0,0,350,1.0,100.0
11907,65.0,2,720,2.0,82.0
11908,62.0,0,720,2.0,82.0
11909,53.0,40,40,12.0,79.0
11910,64.0,5,120,3.0,83.0
11911,65.0,1,40,12.0,79.0
11912,53.0,35,40,12.0,79.0
11913,82.0,33,480,10.0,90.0
11914,70.0,2,480,11.0,90.0
11915,65.0,40,40,12.0,79.0
11916,53.0,5,40,12.0,79.0
11917,65.0,40,40,12.0,79.0
11918,81.0,33,120,10.0,90.0
11919,69.0,2,120,11.0,90.0
11920,53.0,40,40,12.0,79.0
11921,65.0,5,40,12.0,79.0
11922,53.0,40,40,12.0,79.0
11923,79.0,33,110,10.0,90.0
11924,67.0,2,110,11.0,90.0
11925,65.0,5,350,3.0,83.0
11926,73.0,37,360,1.0,90.0
11927,61.0,0,360,2.0,82.0
11928,65.0,40,40,12.0,79.0
11929,53.0,1,40,12.0,79.0
11930,65.0,35,40,12.0,79.0
11931,53.0,40,40,12.0,79.0
11932,65.0,40,40,12.0,79.0
11933,53.0,40,40,12.0,79.0
11934,79.0,33,240,10.0,90.0
11935,67.0,2,240,11.0,90.0
11936,65.0,40,40,12.0,79.0
11937,53.0,5,40,12.0,79.0
11938,65.0,40,40,12.0,79.0
11939,81.0,33,120,10.0,90.0
11940,69.0,2,120,11.0,90.0
11941,82.0,37,840,1.0,100.0
11942,64.0,2,720,2.0,82.0
11943,53.0,40,40,12.0,79.0
11944,65.0,1,40,12.0,79.0
11945,53.0,40,40,12.0,79.0
11946,65.0,40,40,12.0,79.0
11947,53.0,40,40,12.0,79.0
11948,65.0,40,40,12.0,79.0
11949,81.0,2,240,1.0,90.0
11950,72.0,2,600,1.0,90.0
11951,53.0,40,40,12.0,79.0
11952,65.0,3,40,12.0,79.0
11953,53.0,40,40,12.0,79.0
11954,81.0,34,120,0.0,114.0
11955,69.0,3,120,1.0,100.0
11956,41.0,0,2880,5.0,60.0
11957,65.0,2,360,2.0,82.0
11958,53.0,0,2880,5.0,60.0
11959,60.0,2,720,2.0,82.0
11960,65.0,40,40,12.0,79.0
11961,60.0,5,720,3.0,83.0
11962,53.0,1,40,12.0,79.0
11963,65.0,35,40,12.0,79.0
11964,84.0,34,120,0.0,126.0
11965,72.0,3,120,1.0,100.0
11966,53.0,40,40,12.0,79.0
11967,65.0,3,40,12.0,79.0
11968,53.0,40,40,12.0,79.0
11969,88.0,34,120,0.0,106.0
11970,76.0,3,120,1.0,95.0
11971,65.0,40,40,12.0,79.0
11972,53.0,3,40,12.0,79.0
11973,65.0,40,40,12.0,79.0
11974,53.0,40,40,12.0,79.0
11975,65.0,40,40,12.0,79.0
11976,53.0,40,40,12.0,79.0
11977,65.0,40,40,12.0,79.0
11978,51.0,1,480,13.0,103.0
11979,53.0,40,40,12.0,79.0
11980,65.0,39,40,12.0,79.0
11981,53.0,40,40,12.0,79.0
11982,50.0,1,120,13.0,103.0
11983,65.0,40,40,12.0,79.0
11984,53.0,39,40,12.0,79.0
11985,48.0,1,110,13.0,103.0
11986,77.0,33,1080,10.0,90.0
11987,65.0,2,1080,11.0,90.0
11988,65.0,0,720,2.0,82.0
11989,65.0,40,40,12.0,79.0
11990,57.0,4,720,3.0,83.0
11991,53.0,1,40,12.0,79.0
11992,65.0,35,40,12.0,79.0
11993,53.0,40,40,12.0,79.0
11994,65.0,40,40,12.0,79.0
11995,53.0,40,40,12.0,79.0
11996,65.0,40,40,12.0,79.0
11997,48.0,1,240,13.0,103.0
11998,53.0,40,40,12.0,79.0
11999,65.0,39,40,12.0,79.0
12000,75.0,33,360,10.0,90.0
12001,69.0,2,360,11.0,90.0
12002,69.0,2,1080,2.0,82.0
12003,63.0,4,360,2.0,82.0
12004,53.0,40,40,12.0,79.0
12005,50.0,1,120,13.0,103.0
12006,63.0,4,360,3.0,83.0
12007,65.0,1,40,12.0,79.0
12008,53.0,35,40,12.0,79.0
12009,65.0,40,40,12.0,79.0
12010,53.0,40,40,12.0,79.0
12011,65.0,40,40,12.0,79.0
12012,46.0,1,230,13.0,103.0
12013,53.0,40,40,12.0,79.0
12014,65.0,40,40,12.0,79.0
12015,53.0,39,40,12.0,79.0
12016,70.0,2,360,11.0,90.0
12017,65.0,40,40,12.0,79.0
12018,50.0,1,120,13.0,103.0
12019,53.0,5,40,12.0,79.0
12020,65.0,34,40,12.0,79.0
12021,53.0,40,40,12.0,79.0
12022,53.0,1,120,13.0,103.0
12023,65.0,40,40,12.0,79.0
12024,53.0,39,40,12.0,79.0
12025,65.0,40,40,12.0,79.0
12026,57.0,1,120,13.0,103.0
12027,53.0,40,40,12.0,79.0
12028,65.0,39,40,12.0,79.0
12029,89.0,34,1550,0.0,99.0
12030,77.0,3,1550,1.0,90.0
12031,62.0,0,710,2.0,82.0
12032,74.0,33,720,10.0,90.0
12033,65.0,35,360,11.0,90.0
12034,53.0,40,40,12.0,79.0
12035,62.0,4,720,3.0,83.0
12036,65.0,1,40,12.0,79.0
12037,53.0,35,40,12.0,79.0
12038,65.0,40,40,12.0,79.0
12039,46.0,4,480,3.0,83.0
12040,34.0,1,480,14.0,90.0
12041,53.0,40,40,12.0,79.0
12042,65.0,34,40,12.0,79.0
12043,53.0,40,40,12.0,79.0
12044,45.0,5,120,3.0,83.0
12045,33.0,1,120,14.0,90.0
12046,65.0,40,40,12.0,79.0
12047,53.0,34,40,12.0,79.0
12048,61.0,5,350,3.0,83.0
12049,43.0,5,110,3.0,83.0
12050,31.0,1,110,14.0,90.0
12051,65.0,40,40,12.0,79.0
12052,53.0,40,40,12.0,79.0
12053,65.0,34,40,12.0,79.0
12054,53.0,40,40,12.0,79.0
12055,65.0,40,40,12.0,79.0
12056,53.0,40,40,12.0,79.0
12057,65.0,40,40,12.0,79.0
12058,53.0,40,40,12.0,79.0
12059,65.0,40,40,12.0,79.0
12060,88.0,1,720,0.0,99.0
12061,76.0,2,720,1.0,90.0
12062,53.0,40,40,12.0,79.0
12063,43.0,0,360,3.0,83.0
12064,33.0,1,360,14.0,90.0
12065,65.0,3,40,12.0,79.0
12066,53.0,34,40,12.0,79.0
12067,65.0,40,40,12.0,79.0
12068,53.0,40,40,12.0,79.0
12069,65.0,40,40,12.0,79.0
12070,53.0,40,40,12.0,79.0
12071,65.0,40,40,12.0,79.0
12072,53.0,40,40,12.0,79.0
12073,73.0,33,1080,10.0,90.0
12074,70.0,1,1080,11.0,90.0
12075,70.0,4,1800,2.0,82.0
12076,61.0,2,1080,2.0,82.0
12077,65.0,40,40,12.0,79.0
12078,58.0,1,1200,13.0,90.0
12079,61.0,5,720,3.0,83.0
12080,53.0,1,40,12.0,79.0
12081,65.0,35,40,12.0,79.0
12082,53.0,40,40,12.0,79.0
12083,65.0,40,40,12.0,79.0
12084,53.0,40,40,12.0,79.0
12085,65.0,40,40,12.0,79.0
12086,53.0,40,40,12.0,79.0
12087,65.0,40,40,12.0,79.0
12088,72.0,33,360,10.0,85.0
12089,60.0,0,360,2.0,82.0
12090,69.0,4,360,2.0,82.0
12091,53.0,40,40,12.0,79.0
12092,57.0,1,360,13.0,85.0
12093,60.0,4,360,3.0,83.0
12094,65.0,1,40,12.0,79.0
12095,53.0,35,40,12.0,79.0
12096,65.0,40,40,12.0,79.0
12097,53.0,40,40,12.0,79.0
12098,65.0,40,40,12.0,79.0
12099,53.0,40,40,12.0,79.0
12100,65.0,40,40,12.0,79.0
12101,53.0,40,40,12.0,79.0
12102,70.0,33,360,10.0,85.0
12103,58.0,6,360,2.0,82.0
12104,67.0,0,360,2.0,82.0
12105,65.0,40,40,12.0,79.0
12106,55.0,1,360,13.0,85.0
12107,58.0,4,360,3.0,83.0
12108,41.0,5,1080,3.0,83.0
12109,53.0,1,40,12.0,79.0
12110,65.0,35,40,12.0,79.0
12111,53.0,40,40,12.0,79.0
12112,65.0,40,40,12.0,79.0
12113,53.0,40,40,12.0,79.0
12114,65.0,40,40,12.0,79.0
12115,53.0,40,40,12.0,79.0
12116,65.0,40,40,12.0,79.0
12117,53.0,40,40,12.0,79.0
12118,65.0,40,40,12.0,79.0
12119,53.0,40,40,12.0,79.0
12120,65.0,40,40,12.0,79.0
12121,53.0,40,40,12.0,79.0
12122,65.0,40,40,12.0,79.0
12123,53.0,40,40,12.0,79.0
12124,65.0,40,40,12.0,79.0
12125,53.0,40,40,12.0,79.0
12126,65.0,40,40,12.0,79.0
12127,84.0,53,30,7.0,118.0
12128,96.0,1,30,7.0,120.0
12129,72.0,0,30,8.0,117.0
12130,60.0,1,30,8.0,116.0
12131,72.0,33,840,10.0,85.0
12132,89.0,34,1920,0.0,99.0
12133,65.0,2,1560,11.0,85.0
12134,77.0,3,1920,1.0,90.0
12135,60.0,6,840,2.0,82.0
12136,69.0,0,840,2.0,82.0
12137,53.0,40,120,12.0,79.0
12138,57.0,1,840,13.0,85.0
12139,41.0,0,840,3.0,83.0
12140,60.0,4,840,3.0,83.0
12141,31.0,1,1920,14.0,90.0
12142,101.0,57,155,7.0,127.0
12143,89.0,1,155,7.0,127.0
12144,77.0,2,155,8.0,127.0
12145,65.0,0,155,8.0,127.0
12146,84.0,177,30,7.0,120.0
12147,96.0,2,30,7.0,120.0
12148,60.0,0,30,8.0,118.0
12149,72.0,2,30,8.0,120.0
12150,101.0,56,155,7.0,127.0
12151,89.0,2,155,7.0,127.0
12152,65.0,0,155,8.0,127.0
12153,77.0,2,155,8.0,127.0
12154,81.0,0,50,7.0,110.0
12155,93.0,175,50,7.0,110.0
12156,69.0,4,50,8.0,110.0
12157,57.0,1,50,8.0,113.0
12158,84.0,56,50,7.0,116.0
12159,96.0,3,50,7.0,117.0
12160,72.0,1,50,8.0,118.0
12161,60.0,1,50,8.0,120.0
12162,89.0,54,50,7.0,110.0
12163,77.0,2,50,7.0,111.0
12164,65.0,4,50,8.0,110.0
12165,53.0,2,50,8.0,112.0
12166,81.0,0,50,7.0,117.0
12167,93.0,52,50,7.0,117.0
12168,69.0,0,50,8.0,117.0
12169,57.0,7,50,8.0,116.0
12170,89.0,50,50,7.0,112.0
12171,77.0,5,50,7.0,110.0
12172,65.0,0,50,8.0,112.0
12173,53.0,6,50,8.0,112.0
12174,86.0,51,50,7.0,117.0
12175,74.0,4,50,7.0,118.0
12176,62.0,4,50,8.0,120.0
12177,50.0,2,50,8.0,117.0
12178,84.0,52,50,7.0,113.0
12179,72.0,3,50,7.0,113.0
12180,60.0,4,50,8.0,109.0
12181,48.0,1,50,8.0,112.0
12182,89.0,50,50,7.0,116.0
12183,77.0,3,50,7.0,117.0
12184,53.0,9,50,8.0,117.0
12185,65.0,2,50,8.0,120.0
12186,84.0,48,50,7.0,110.0
12187,72.0,2,50,7.0,113.0
12188,48.0,7,50,8.0,113.0
12189,60.0,1,50,8.0,110.0
12190,82.0,50,50,7.0,120.0
12191,70.0,2,50,7.0,117.0
12192,46.0,7,50,8.0,117.0
12193,58.0,4,50,8.0,118.0
12194,69.0,0,50,7.0,110.0
12195,81.0,47,50,7.0,109.0
12196,45.0,9,50,8.0,109.0
12197,57.0,3,50,8.0,113.0
12198,84.0,47,50,7.0,116.0
12199,72.0,1,50,7.0,116.0
12200,48.0,0,50,8.0,117.0
12201,60.0,11,50,8.0,117.0
12202,81.0,46,50,7.0,110.0
12203,69.0,2,50,7.0,113.0
12204,57.0,10,50,8.0,110.0
12205,45.0,2,50,8.0,111.0
12206,79.0,47,50,7.0,117.0
12207,67.0,5,50,7.0,118.0
12208,55.0,9,50,8.0,117.0
12209,43.0,1,50,8.0,120.0
12210,77.0,45,50,7.0,110.0
12211,65.0,4,50,7.0,111.0
12212,41.0,8,50,8.0,113.0
12213,53.0,3,50,8.0,113.0
12214,81.0,45,50,7.0,120.0
12215,69.0,4,50,7.0,116.0
12216,57.0,10,50,8.0,116.0
12217,45.0,3,50,8.0,117.0
12218,77.0,44,50,7.0,112.0
12219,65.0,2,50,7.0,110.0
12220,53.0,11,50,8.0,113.0
12221,41.0,3,50,8.0,113.0
12222,74.0,41,50,7.0,117.0
12223,62.0,5,50,7.0,117.0
12224,50.0,11,50,8.0,117.0
12225,38.0,3,50,8.0,117.0
12226,72.0,43,50,7.0,113.0
12227,60.0,3,50,7.0,113.0
12228,36.0,12,50,8.0,110.0
12229,48.0,3,50,8.0,111.0
12230,65.0,0,50,7.0,117.0
12231,77.0,43,50,7.0,117.0
12232,41.0,15,50,8.0,117.0
12233,53.0,1,50,8.0,116.0
12234,72.0,43,50,7.0,109.0
12235,60.0,4,50,7.0,111.0
12236,36.0,12,50,8.0,110.0
12237,48.0,0,50,8.0,113.0
12238,70.0,42,50,7.0,120.0
12239,58.0,3,50,7.0,120.0
12240,34.0,0,50,8.0,117.0
12241,46.0,16,50,8.0,117.0
12242,69.0,43,50,7.0,109.0
12243,57.0,4,50,7.0,110.0
12244,45.0,10,50,8.0,112.0
12245,33.0,0,50,8.0,112.0
12246,60.0,47,50,7.0,120.0
12247,72.0,1,50,7.0,117.0
12248,36.0,15,50,8.0,117.0
12249,48.0,1,50,8.0,117.0
12250,57.0,43,50,7.0,110.0
12251,69.0,1,50,7.0,112.0
12252,45.0,13,50,8.0,113.0
12253,33.0,1,50,8.0,110.0
12254,67.0,42,50,7.0,117.0
12255,55.0,7,50,7.0,117.0
12256,43.0,9,50,8.0,117.0
12257,31.0,4,50,8.0,117.0
12258,65.0,43,50,7.0,110.0
12259,53.0,1,50,7.0,111.0
12260,41.0,12,50,8.0,113.0
12261,29.0,4,50,8.0,112.0
12262,50.0,3,15,15.0,42.0
12263,50.0,15,15,15.0,43.0
12264,69.0,43,50,7.0,118.0
12265,57.0,3,50,7.0,117.0
12266,45.0,10,50,8.0,117.0
12267,33.0,0,50,8.0,117.0
12268,50.0,5,1,15.0,45.0
12269,50.0,12,3,15.0,46.0
12270,64.0,9,50,7.0,111.0
12271,52.0,2,50,7.0,110.0
12272,50.0,3,1,15.0,45.0
12273,40.0,9,50,8.0,113.0
12274,28.0,4,50,8.0,113.0
12275,50.0,3,1,15.0,47.0
12276,50.0,15,0,15.0,47.0
12277,65.0,11,50,7.0,117.0
12278,53.0,0,50,7.0,120.0
12279,41.0,11,50,8.0,117.0
12280,50.0,2,3,15.0,49.0
12281,29.0,0,50,8.0,120.0
12282,50.0,0,15,15.0,50.0
12283,50.0,15,0,15.0,52.0
12284,62.0,10,50,7.0,113.0
12285,50.0,3,50,7.0,114.0
12286,50.0,13,2,15.0,53.0
12287,38.0,10,50,8.0,111.0
12288,26.0,2,50,8.0,113.0
12289,50.0,14,1,15.0,55.0
12290,69.0,0,50,7.0,120.0
12291,57.0,1,50,7.0,120.0
12292,33.0,11,50,8.0,120.0
12293,45.0,1,50,8.0,120.0
12294,50.0,4,1,15.0,55.0
12295,50.0,2,15,15.0,55.0
12296,50.0,14,1,15.0,55.0
12297,64.0,10,50,7.0,113.0
12298,52.0,1,50,7.0,113.0
12299,50.0,2,1,15.0,57.0
12300,40.0,10,50,8.0,114.0
12301,28.0,3,50,8.0,116.0
12302,50.0,15,0,15.0,59.0
12303,53.0,12,50,7.0,122.0
12304,65.0,0,50,7.0,120.0
12305,50.0,1,1,15.0,59.0
12306,41.0,9,50,8.0,122.0
12307,29.0,1,50,8.0,123.0
12308,50.0,2,1,15.0,59.0
12309,50.0,13,2,15.0,57.0
12310,62.0,12,50,7.0,114.0
12311,50.0,1,50,7.0,117.0
12312,38.0,10,50,8.0,117.0
12313,26.0,2,50,8.0,113.0
12314,50.0,3,2,15.0,59.0
12315,50.0,16,15,15.0,59.0
12316,69.0,12,50,7.0,120.0
12317,57.0,1,50,7.0,125.0
12318,45.0,10,50,8.0,122.0
12319,33.0,0,50,8.0,124.0
12320,50.0,16,15,15.0,59.0
12321,50.0,2,2,15.0,59.0
12322,50.0,14,1,15.0,59.0
12323,64.0,13,50,7.0,117.0
12324,52.0,1,50,7.0,117.0
12325,40.0,0,50,8.0,117.0
12326,28.0,11,50,8.0,117.0
12327,50.0,0,15,15.0,57.0
12328,50.0,15,0,15.0,59.0
12329,50.0,15,0,15.0,59.0
12330,65.0,14,50,7.0,122.0
12331,53.0,2,50,7.0,123.0
12332,50.0,4,2,15.0,59.0
12333,29.0,11,50,8.0,122.0
12334,41.0,3,50,8.0,122.0
12335,50.0,0,15,15.0,59.0
12336,62.0,9,50,7.0,120.0
12337,50.0,16,15,15.0,59.0
12338,50.0,0,50,7.0,120.0
12339,38.0,13,50,8.0,120.0
12340,50.0,1,3,15.0,59.0
12341,26.0,3,50,8.0,120.0
12342,70.0,9,30,7.0,125.0
12343,58.0,2,30,7.0,127.0
12344,50.0,1,15,15.0,57.0
12345,34.0,5,30,8.0,127.0
12346,46.0,2,30,8.0,127.0
12347,50.0,13,2,15.0,59.0
12348,50.0,0,15,15.0,59.0
12349,65.0,15,30,7.0,120.0
12350,50.0,14,1,15.0,59.0
12351,53.0,2,30,7.0,120.0
12352,41.0,0,30,8.0,121.0
12353,29.0,11,30,8.0,118.0
12354,50.0,0,3,15.0,60.0
12355,74.0,8,30,7.0,125.0
12356,62.0,4,30,7.0,127.0
12357,50.0,12,3,15.0,59.0
12358,50.0,12,30,8.0,125.0
12359,38.0,2,30,8.0,127.0
12360,50.0,3,3,15.0,60.0
12361,70.0,9,30,7.0,120.0
12362,50.0,14,1,15.0,60.0
12363,58.0,3,30,7.0,122.0
12364,46.0,9,30,8.0,120.0
12365,34.0,2,30,8.0,120.0
12366,50.0,16,15,15.0,60.0
12367,50.0,3,2,15.0,60.0
12368,77.0,9,30,7.0,127.0
12369,65.0,5,30,7.0,127.0
12370,53.0,10,30,8.0,127.0
12371,41.0,1,30,8.0,127.0
12372,50.0,14,1,15.0,62.0
12373,50.0,2,1,15.0,60.0
12374,74.0,12,30,7.0,123.0
12375,62.0,0,30,7.0,120.0
12376,50.0,14,1,15.0,60.0
12377,38.0,11,30,8.0,120.0
12378,50.0,4,30,8.0,120.0
12379,50.0,14,1,15.0,60.0
12380,50.0,3,2,15.0,62.0
12381,82.0,12,30,7.0,127.0
12382,70.0,4,30,7.0,127.0
12383,46.0,10,30,8.0,127.0
12384,58.0,0,30,8.0,127.0
12385,50.0,14,1,15.0,64.0
12386,50.0,2,2,15.0,66.0
12387,77.0,11,30,7.0,122.0
12388,65.0,1,30,7.0,123.0
12389,50.0,14,1,15.0,66.0
12390,41.0,13,30,8.0,125.0
12391,53.0,2,30,8.0,125.0
12392,50.0,13,2,15.0,67.0
12393,62.0,4,470,6.0,125.0
12394,50.0,2,0,15.0,66.0
12395,86.0,13,30,7.0,127.0
12396,74.0,0,30,7.0,127.0
12397,62.0,9,30,8.0,127.0
12398,50.0,2,30,8.0,127.0
12399,50.0,14,1,15.0,67.0
12400,50.0,1,3,15.0,69.0
12401,82.0,9,30,7.0,124.0
12402,70.0,6,30,7.0,127.0
12403,58.0,10,30,8.0,123.0
12404,46.0,1,30,8.0,127.0
12405,50.0,16,15,15.0,70.0
12406,62.0,2,110,6.0,125.0
12407,50.0,4,1,15.0,72.0
12408,89.0,10,30,7.0,127.0
12409,77.0,1,30,7.0,127.0
12410,50.0,14,1,15.0,73.0
12411,65.0,10,30,8.0,127.0
12412,53.0,1,30,8.0,127.0
12413,50.0,14,1,15.0,70.0
12414,50.0,1,1,15.0,72.0
12415,86.0,10,30,7.0,127.0
12416,74.0,3,30,7.0,127.0
12417,50.0,12,3,15.0,72.0
12418,62.0,12,30,8.0,127.0
12419,50.0,2,30,8.0,127.0
12420,62.0,3,110,6.0,125.0
12421,50.0,2,2,15.0,76.0
12422,58.0,0,360,11.0,100.0
12423,53.0,3,0,2.0,97.0
12424,53.0,1,720,12.0,100.0
12425,58.0,0,360,3.0,98.0
12426,50.0,1,0,15.0,76.0
12427,50.0,12,3,15.0,79.0
12428,50.0,15,0,15.0,77.0
12429,50.0,15,0,15.0,76.0
12430,50.0,15,0,15.0,73.0
12431,62.0,1,120,6.0,125.0
12432,74.0,0,120,6.0,125.0
12433,50.0,11,4,15.0,74.0
12434,50.0,15,15,15.0,74.0
12435,50.0,13,2,15.0,72.0
12436,50.0,14,1,15.0,72.0
12437,50.0,15,15,15.0,70.0
12438,94.0,11,240,7.0,127.0
12439,50.0,14,1,15.0,69.0
12440,82.0,0,240,7.0,127.0
12441,70.0,1,240,8.0,127.0
12442,58.0,0,240,8.0,127.0
12443,50.0,15,0,15.0,69.0
12444,50.0,11,4,15.0,69.0
12445,58.0,1,330,10.0,100.0
12446,70.0,0,330,10.0,100.0
12447,65.0,0,330,10.0,100.0
12448,50.0,18,15,15.0,67.0
12449,46.0,0,330,5.0,100.0
12450,58.0,0,330,5.0,100.0
12451,50.0,1,330,13.0,100.0
12452,58.0,0,330,13.0,100.0
12453,50.0,16,15,15.0,66.0
12454,50.0,11,4,15.0,66.0
12455,50.0,7,15,15.0,66.0
12456,50.0,13,2,15.0,64.0
12457,50.0,14,1,15.0,63.0
12458,50.0,15,0,15.0,62.0
12459,50.0,12,3,15.0,62.0
12460,50.0,13,2,15.0,59.0
12461,50.0,18,15,15.0,60.0
12462,50.0,14,1,15.0,60.0
12463,50.0,14,1,15.0,60.0
12464,65.0,2,220,10.0,100.0
12465,50.0,16,15,15.0,57.0
12466,41.0,6,220,5.0,100.0
12467,53.0,0,220,5.0,100.0
12468,53.0,2,220,13.0,100.0
12469,50.0,12,3,15.0,59.0
12470,50.0,5,1,15.0,59.0
12471,50.0,17,15,15.0,55.0
12472,50.0,12,3,15.0,55.0
12473,50.0,16,15,15.0,55.0
12474,62.0,1,100,10.0,100.0
12475,50.0,14,1,15.0,55.0
12476,50.0,2,100,13.0,100.0
12477,50.0,6,105,5.0,100.0
12478,50.0,13,2,15.0,52.0
12479,50.0,12,3,15.0,53.0
12480,50.0,15,0,15.0,54.0
12481,74.0,1,60,10.0,127.0
12482,50.0,0,60,5.0,127.0
12483,62.0,6,60,5.0,127.0
12484,62.0,2,60,13.0,127.0
12485,50.0,17,15,15.0,54.0
12486,50.0,13,2,15.0,52.0
12487,50.0,13,2,15.0,52.0
12488,65.0,2,840,11.0,100.0
12489,58.0,0,840,11.0,100.0
12490,50.0,5,1,15.0,52.0
12491,50.0,16,15,15.0,52.0
12492,77.0,1,60,10.0,127.0
12493,50.0,15,0,15.0,49.0
12494,65.0,0,60,5.0,120.0
12495,53.0,6,60,5.0,120.0
12496,65.0,2,60,13.0,127.0
12497,50.0,12,3,15.0,49.0
12498,50.0,15,0,15.0,49.0
12499,50.0,14,1,15.0,49.0
12500,50.0,15,15,15.0,49.0
12501,50.0,18,15,15.0,47.0
12502,50.0,15,15,15.0,49.0
12503,50.0,12,3,15.0,47.0
12504,50.0,15,0,15.0,49.0
12505,50.0,17,15,15.0,49.0
12506,50.0,16,15,15.0,47.0
12507,50.0,13,2,15.0,46.0
12508,50.0,14,1,15.0,49.0
12509,50.0,15,15,15.0,43.0
12510,50.0,16,15,15.0,47.0
12511,50.0,15,15,15.0,43.0
12512,50.0,15,0,15.0,45.0
12513,38.0,4,2280,4.0,100.0
12514,50.0,1,1200,12.0,100.0
12515,50.0,14,1,15.0,43.0
12516,50.0,14,1,15.0,45.0
12517,50.0,12,3,15.0,43.0
12518,50.0,12,3,15.0,42.0
12519,50.0,3,1,15.0,43.0
12520,50.0,14,1,15.0,42.0
12521,62.0,11,60,7.0,99.0
12522,50.0,1,60,7.0,92.0
12523,50.0,0,2,15.0,42.0
12524,38.0,10,60,8.0,91.0
12525,50.0,8,15,15.0,42.0
12526,50.0,13,2,15.0,38.0
12527,63.0,11,60,7.0,103.0
12528,51.0,2,60,7.0,96.0
12529,39.0,8,60,8.0,94.0
12530,50.0,5,15,15.0,39.0
12531,65.0,11,60,7.0,105.0
12532,53.0,1,60,7.0,106.0
12533,41.0,13,60,8.0,103.0
12534,67.0,41,60,7.0,109.0
12535,55.0,6,60,7.0,100.0
12536,43.0,11,60,8.0,100.0
12537,68.0,42,60,7.0,125.0
12538,56.0,3,60,7.0,117.0
12539,44.0,16,60,8.0,118.0
12540,55.0,44,60,7.0,103.0
12541,67.0,2,60,7.0,111.0
12542,43.0,14,60,8.0,103.0
12543,53.0,44,60,7.0,99.0
12544,65.0,0,60,7.0,109.0
12545,41.0,16,60,8.0,100.0
12546,63.0,41,60,7.0,102.0
12547,51.0,6,60,7.0,103.0
12548,39.0,14,60,8.0,103.0
12549,62.0,42,60,7.0,101.0
12550,50.0,1,60,7.0,94.0
12551,38.0,14,60,8.0,93.0
12552,63.0,47,60,7.0,96.0
12553,51.0,2,60,7.0,94.0
12554,39.0,11,60,8.0,96.0
12555,65.0,48,60,7.0,102.0
12556,53.0,3,60,7.0,102.0
12557,41.0,10,60,8.0,103.0
12558,67.0,45,60,7.0,103.0
12559,55.0,2,60,7.0,96.0
12560,43.0,11,60,8.0,99.0
12561,68.0,48,60,7.0,111.0
12562,56.0,4,60,7.0,100.0
12563,44.0,8,60,8.0,100.0
12564,70.0,49,60,7.0,113.0
12565,58.0,1,60,7.0,106.0
12566,46.0,15,60,8.0,105.0
12567,60.0,43,60,7.0,117.0
12568,72.0,1,60,7.0,123.0
12569,48.0,16,60,8.0,117.0
12570,70.0,41,60,7.0,109.0
12571,58.0,5,60,7.0,99.0
12572,46.0,10,60,8.0,100.0
12573,68.0,44,60,7.0,109.0
12574,56.0,2,60,7.0,102.0
12575,44.0,15,60,8.0,99.0
12576,67.0,45,60,7.0,109.0
12577,55.0,5,60,7.0,100.0
12578,43.0,11,60,8.0,100.0
12579,65.0,43,60,7.0,109.0
12580,53.0,5,60,7.0,99.0
12581,41.0,11,60,8.0,100.0
12582,63.0,46,45,7.0,109.0
12583,51.0,1,45,7.0,100.0
12584,39.0,14,45,8.0,100.0
12585,62.0,45,60,7.0,109.0
12586,50.0,2,60,7.0,97.0
12587,38.0,15,60,8.0,100.0
12588,63.0,42,60,7.0,109.0
12589,51.0,0,60,7.0,99.0
12590,39.0,16,60,8.0,101.0
12591,65.0,43,60,7.0,113.0
12592,53.0,4,60,7.0,109.0
12593,41.0,13,60,8.0,106.0
12594,67.0,42,60,7.0,116.0
12595,55.0,6,60,7.0,109.0
12596,43.0,10,60,8.0,110.0
12597,68.0,47,60,7.0,120.0
12598,56.0,1,60,7.0,112.0
12599,44.0,14,60,8.0,116.0
12600,75.0,41,60,7.0,127.0
12601,63.0,3,60,7.0,120.0
12602,51.0,14,60,8.0,117.0
12603,74.0,47,45,7.0,123.0
12604,62.0,1,45,7.0,114.0
12605,50.0,14,45,8.0,117.0
12606,65.0,41,60,7.0,113.0
12607,53.0,8,60,7.0,107.0
12608,41.0,11,60,8.0,105.0
12609,56.0,45,60,7.0,105.0
12610,68.0,0,60,7.0,113.0
12611,44.0,14,60,8.0,105.0
12612,74.0,42,60,7.0,113.0
12613,62.0,7,60,7.0,107.0
12614,50.0,13,60,8.0,107.0
12615,67.0,44,60,7.0,113.0
12616,79.0,0,60,7.0,120.0
12617,55.0,15,60,8.0,113.0
12618,77.0,45,60,7.0,116.0
12619,65.0,3,60,7.0,110.0
12620,65.0,4,3240,3.0,98.0
12621,53.0,13,60,8.0,109.0
12622,74.0,40,60,7.0,114.0
12623,62.0,8,60,7.0,109.0
12624,50.0,2,60,8.0,110.0
12625,77.0,43,60,7.0,117.0
12626,65.0,4,60,7.0,111.0
12627,53.0,15,60,8.0,111.0
12628,80.0,44,60,7.0,120.0
12629,68.0,1,60,7.0,112.0
12630,56.0,14,60,8.0,111.0
12631,86.0,42,60,7.0,120.0
12632,74.0,6,60,7.0,113.0
12633,62.0,12,60,8.0,113.0
12634,77.0,45,60,7.0,113.0
12635,89.0,0,60,7.0,120.0
12636,65.0,12,60,8.0,113.0
12637,92.0,44,45,7.0,120.0
12638,80.0,6,45,7.0,113.0
12639,50.0,4,345,12.0,100.0
12640,68.0,10,45,8.0,113.0
12641,50.0,5,360,3.0,98.0
12642,38.0,0,360,3.0,98.0
12643,92.0,48,30,7.0,127.0
12644,68.0,4,30,8.0,127.0
12645,80.0,43,30,7.0,109.0
12646,77.0,6,30,7.0,109.0
12647,86.0,57,30,7.0,125.0
12648,62.0,13,30,8.0,125.0
12649,77.0,47,30,7.0,103.0
12650,74.0,5,30,7.0,109.0
12651,89.0,55,30,7.0,125.0
12652,65.0,8,30,8.0,125.0
12653,77.0,52,30,7.0,109.0
12654,80.0,2,30,7.0,103.0
12655,80.0,56,30,7.0,125.0
12656,56.0,10,30,8.0,125.0
12657,74.0,50,30,7.0,105.0
12658,68.0,2,30,7.0,109.0
12659,86.0,62,30,7.0,125.0
12660,62.0,9,30,8.0,125.0
12661,77.0,49,30,7.0,109.0
12662,74.0,1,30,7.0,103.0
12663,58.0,0,585,11.0,100.0
12664,65.0,2,585,11.0,100.0
12665,77.0,56,30,7.0,125.0
12666,53.0,7,30,8.0,125.0
12667,65.0,0,30,7.0,103.0
12668,68.0,50,30,7.0,109.0
12669,58.0,7,105,11.0,100.0
12670,58.0,0,705,12.0,100.0
12671,50.0,1,705,12.0,100.0
12672,38.0,7,3225,13.0,100.0
12673,38.0,0,4305,14.0,100.0
12674,58.0,0,4320,2.0,97.0
12675,58.0,5,720,3.0,98.0
12676,50.0,0,720,3.0,98.0
12677,81.0,58,120,7.0,120.0
12678,69.0,0,120,7.0,120.0
12679,76.0,0,120,7.0,120.0
12680,52.0,0,120,8.0,120.0
12681,57.0,0,120,8.0,120.0
12682,49.0,0,120,8.0,120.0
12683,64.0,1,120,8.0,120.0
12684,69.0,0,330,10.0,100.0
12685,81.0,3,330,10.0,100.0
12686,57.0,0,330,11.0,100.0
12687,69.0,2,330,11.0,100.0
12688,64.0,0,330,11.0,100.0
12689,76.0,347,220,10.0,100.0
12690,64.0,2,220,11.0,100.0
12691,73.0,238,110,10.0,100.0
12692,61.0,2,110,11.0,100.0
12693,85.0,118,60,10.0,127.0
12694,73.0,2,60,11.0,127.0
12695,88.0,118,60,10.0,127.0
12696,76.0,2,60,11.0,127.0
12697,49.0,0,960,12.0,100.0
12698,57.0,1,960,12.0,100.0
12699,49.0,4,960,3.0,98.0
12700,57.0,0,960,3.0,98.0
12701,57.0,0,1080,2.0,97.0
12702,61.0,231,60,7.0,101.0
12703,49.0,5,60,7.0,93.0
12704,37.0,13,60,8.0,92.0
12705,62.0,41,60,7.0,101.0
12706,50.0,3,60,7.0,101.0
12707,38.0,15,60,8.0,94.0
12708,64.0,44,60,7.0,101.0
12709,52.0,5,60,7.0,103.0
12710,40.0,13,60,8.0,101.0
12711,65.0,38,60,7.0,103.0
12712,53.0,9,60,7.0,103.0
12713,41.0,12,60,8.0,96.0
12714,67.0,38,60,7.0,117.0
12715,55.0,4,60,7.0,109.0
12716,43.0,15,60,8.0,110.0
12717,53.0,49,60,7.0,99.0
12718,65.0,0,60,7.0,109.0
12719,41.0,15,60,8.0,97.0
12720,52.0,42,60,7.0,103.0
12721,64.0,0,60,7.0,106.0
12722,40.0,16,60,8.0,96.0
12723,62.0,42,60,7.0,100.0
12724,50.0,7,60,7.0,102.0
12725,38.0,13,60,8.0,102.0
12726,61.0,39,60,7.0,103.0
12727,49.0,4,60,7.0,95.0
12728,37.0,11,60,8.0,93.0
12729,50.0,49,60,7.0,95.0
12730,62.0,3,60,7.0,96.0
12731,38.0,13,60,8.0,96.0
12732,64.0,45,60,7.0,102.0
12733,52.0,5,60,7.0,100.0
12734,40.0,9,60,8.0,100.0
12735,65.0,0,60,7.0,100.0
12736,53.0,47,60,7.0,101.0
12737,41.0,10,60,8.0,97.0
12738,67.0,47,60,7.0,106.0
12739,55.0,3,60,7.0,97.0
12740,43.0,13,60,8.0,106.0
12741,69.0,44,60,7.0,109.0
12742,57.0,6,60,7.0,99.0
12743,45.0,11,60,8.0,103.0
12744,58.0,42,60,7.0,111.0
12745,70.0,1,60,7.0,118.0
12746,46.0,16,60,8.0,113.0
12747,69.0,46,60,7.0,102.0
12748,57.0,4,60,7.0,106.0
12749,45.0,7,60,8.0,103.0
12750,55.0,45,60,7.0,99.0
12751,67.0,2,60,7.0,109.0
12752,43.0,14,60,8.0,97.0
12753,65.0,45,60,7.0,109.0
12754,53.0,5,60,7.0,102.0
12755,41.0,14,60,8.0,102.0
12756,64.0,41,60,7.0,111.0
12757,52.0,5,60,7.0,103.0
12758,40.0,9,60,8.0,102.0
12759,62.0,49,45,7.0,112.0
12760,50.0,2,45,7.0,109.0
12761,38.0,10,45,8.0,107.0
12762,61.0,45,60,7.0,117.0
12763,49.0,6,60,7.0,109.0
12764,37.0,14,60,8.0,109.0
12765,62.0,39,60,7.0,120.0
12766,50.0,2,60,7.0,110.0
12767,38.0,17,60,8.0,111.0
12768,64.0,40,60,7.0,124.0
12769,52.0,7,60,7.0,116.0
12770,40.0,12,60,8.0,116.0
12771,65.0,43,60,7.0,125.0
12772,53.0,4,60,7.0,117.0
12773,41.0,11,60,8.0,117.0
12774,67.0,46,60,7.0,127.0
12775,55.0,4,60,7.0,118.0
12776,43.0,11,60,8.0,123.0
12777,74.0,44,60,7.0,127.0
12778,62.0,4,60,7.0,127.0
12779,50.0,14,60,8.0,125.0
12780,73.0,43,45,7.0,127.0
12781,61.0,2,45,7.0,127.0
12782,49.0,17,45,8.0,127.0
12783,64.0,37,60,7.0,127.0
12784,52.0,10,60,7.0,123.0
12785,40.0,12,60,8.0,122.0
12786,55.0,41,60,7.0,120.0
12787,67.0,3,60,7.0,127.0
12788,43.0,14,60,8.0,121.0
12789,73.0,39,60,7.0,127.0
12790,61.0,12,60,7.0,122.0
12791,49.0,11,60,8.0,123.0
12792,65.0,41,60,7.0,127.0
12793,77.0,5,60,7.0,127.0
12794,53.0,11,60,8.0,127.0
12795,76.0,46,60,7.0,127.0
12796,64.0,1,60,7.0,125.0
12797,52.0,14,60,8.0,122.0
12798,73.0,41,60,7.0,127.0
12799,61.0,11,60,7.0,127.0
12800,49.0,7,60,8.0,127.0
12801,76.0,45,60,7.0,127.0
12802,64.0,5,60,7.0,127.0
12803,52.0,13,60,8.0,127.0
12804,67.0,44,60,7.0,127.0
12805,79.0,1,60,7.0,127.0
12806,55.0,13,60,8.0,127.0
12807,85.0,43,60,7.0,127.0
12808,73.0,7,60,7.0,127.0
12809,61.0,11,60,8.0,127.0
12810,88.0,45,60,7.0,127.0
12811,76.0,2,60,7.0,127.0
12812,64.0,9,60,8.0,127.0
12813,94.0,43,45,7.0,127.0
12814,82.0,9,45,7.0,127.0
12815,70.0,10,45,8.0,127.0
12816,64.0,242,2520,1.0,97.0
12817,67.0,0,2520,1.0,97.0
12818,55.0,2,2520,2.0,97.0
12819,37.0,0,3600,13.0,100.0
12820,94.0,48,30,7.0,127.0
12821,70.0,2,30,8.0,127.0
12822,82.0,46,30,7.0,117.0
12823,79.0,5,30,7.0,117.0
12824,88.0,57,30,7.0,127.0
12825,64.0,18,30,8.0,127.0
12826,79.0,47,30,7.0,113.0
12827,76.0,4,30,7.0,117.0
12828,91.0,55,30,7.0,127.0
12829,67.0,9,30,8.0,127.0
12830,82.0,49,30,7.0,113.0
12831,79.0,1,30,7.0,117.0
12832,82.0,59,30,7.0,127.0
12833,58.0,11,30,8.0,127.0
12834,70.0,47,30,7.0,117.0
12835,76.0,1,30,7.0,114.0
12836,88.0,61,30,7.0,127.0
12837,64.0,10,30,8.0,127.0
12838,79.0,49,30,7.0,113.0
12839,76.0,5,30,7.0,113.0
12840,79.0,56,30,7.0,127.0
12841,55.0,11,30,8.0,127.0
12842,67.0,49,30,7.0,114.0
12843,70.0,1,30,7.0,117.0
12844,67.0,0,705,1.0,97.0
12845,76.0,3,705,1.0,97.0
12846,64.0,0,705,2.0,97.0
12847,49.0,2,705,13.0,100.0
12848,37.0,1,4305,14.0,100.0
12849,52.0,4,4320,2.0,97.0
12850,94.0,60,30,7.0,127.0
12851,70.0,1,30,8.0,127.0
12852,82.0,41,30,7.0,117.0
12853,79.0,10,30,7.0,114.0
12854,88.0,57,30,7.0,127.0
12855,64.0,5,30,8.0,127.0
12856,79.0,50,30,7.0,113.0
12857,76.0,6,30,7.0,117.0
12858,91.0,58,30,7.0,127.0
12859,67.0,10,30,8.0,127.0
12860,79.0,47,30,7.0,117.0
12861,82.0,1,30,7.0,113.0
12862,64.0,2,345,2.0,97.0
12863,67.0,0,345,2.0,97.0
12864,82.0,56,30,7.0,127.0
12865,58.0,4,30,8.0,127.0
12866,76.0,44,30,7.0,113.0
12867,70.0,3,30,7.0,117.0
12868,88.0,62,30,7.0,127.0
12869,64.0,7,30,8.0,127.0
12870,76.0,51,30,7.0,113.0
12871,79.0,4,30,7.0,117.0
12872,79.0,53,30,7.0,127.0
12873,55.0,15,30,8.0,127.0
12874,67.0,51,30,7.0,113.0
12875,70.0,2,30,7.0,117.0
12876,79.0,5,705,1.0,97.0
12877,76.0,0,705,1.0,97.0
12878,64.0,0,1425,4.0,100.0
12879,76.0,12,345,2.0,97.0
12880,67.0,0,345,2.0,97.0
12881,48.0,1,705,13.0,100.0
12882,36.0,5,705,14.0,100.0
12883,59.0,2,45,10.0,115.0
12884,59.0,2,45,11.0,115.0
12885,59.0,0,45,12.0,115.0
12886,47.0,1,45,13.0,115.0
12887,35.0,1,45,14.0,115.0
12888,59.0,47,45,10.0,100.0
12889,59.0,2,45,11.0,100.0
12890,59.0,5,45,12.0,100.0
12891,47.0,1,45,13.0,100.0
12892,71.0,0,120,7.0,127.0
12893,35.0,5,45,14.0,100.0
12894,83.0,56,120,7.0,127.0
12895,78.0,1,120,7.0,127.0
12896,51.0,1,120,8.0,127.0
12897,59.0,1,120,8.0,127.0
12898,66.0,1,120,8.0,127.0
12899,54.0,1,120,8.0,127.0
12900,66.0,47,45,10.0,115.0
12901,66.0,2,45,11.0,115.0
12902,66.0,5,45,12.0,115.0
12903,54.0,1,45,13.0,115.0
12904,42.0,5,45,14.0,115.0
12905,66.0,47,45,10.0,100.0
12906,66.0,2,45,11.0,100.0
12907,66.0,5,45,12.0,100.0
12908,54.0,1,45,13.0,100.0
12909,42.0,5,45,14.0,100.0
12910,63.0,47,45,10.0,115.0
12911,63.0,2,45,11.0,115.0
12912,63.0,5,45,12.0,115.0
12913,51.0,1,45,13.0,115.0
12914,39.0,5,45,14.0,115.0
12915,83.0,0,340,1.0,97.0
12916,54.0,0,340,4.0,100.0
12917,75.0,1,340,1.0,97.0
12918,66.0,0,340,4.0,100.0
12919,63.0,47,45,10.0,100.0
12920,75.0,2,340,2.0,97.0
12921,78.0,0,340,2.0,97.0
12922,63.0,2,45,11.0,100.0
12923,63.0,5,45,12.0,100.0
12924,63.0,0,340,3.0,98.0
12925,66.0,1,340,3.0,98.0
12926,51.0,1,45,13.0,100.0
12927,39.0,5,45,14.0,100.0
12928,71.0,47,45,10.0,115.0
12929,71.0,2,45,11.0,115.0
12930,71.0,1,45,12.0,115.0
12931,59.0,1,45,13.0,115.0
12932,47.0,1,45,14.0,115.0
12933,71.0,47,45,10.0,100.0
12934,71.0,2,45,11.0,100.0
12935,71.0,5,45,12.0,100.0
12936,59.0,1,45,13.0,100.0
12937,47.0,5,45,14.0,100.0
12938,66.0,47,45,10.0,115.0
12939,66.0,2,45,11.0,115.0
12940,66.0,5,45,12.0,115.0
12941,54.0,1,45,13.0,115.0
12942,42.0,5,45,14.0,115.0
12943,66.0,47,45,10.0,100.0
12944,66.0,2,45,11.0,100.0
12945,75.0,0,225,1.0,97.0
12946,66.0,0,225,4.0,100.0
12947,54.0,0,225,4.0,100.0
12948,78.0,2,225,1.0,97.0
12949,75.0,2,225,2.0,97.0
12950,78.0,0,225,2.0,97.0
12951,66.0,5,45,12.0,100.0
12952,54.0,1,45,13.0,100.0
12953,59.0,4,225,3.0,98.0
12954,63.0,0,225,3.0,98.0
12955,42.0,5,45,14.0,100.0
12956,75.0,47,45,10.0,115.0
12957,75.0,2,45,11.0,115.0
12958,75.0,1,45,12.0,115.0
12959,63.0,1,45,13.0,115.0
12960,51.0,1,45,14.0,115.0
12961,75.0,47,45,10.0,100.0
12962,75.0,2,45,11.0,100.0
12963,54.0,0,105,4.0,100.0
12964,71.0,2,105,1.0,97.0
12965,66.0,0,105,4.0,100.0
12966,75.0,0,105,1.0,97.0
12967,71.0,2,105,2.0,97.0
12968,75.0,0,105,2.0,97.0
12969,75.0,5,45,12.0,100.0
12970,63.0,1,45,13.0,100.0
12971,63.0,0,105,3.0,98.0
12972,59.0,4,105,3.0,98.0
12973,51.0,5,45,14.0,100.0
12974,84.0,47,18,7.0,127.0
12975,72.0,2,18,8.0,127.0
12976,76.0,45,18,7.0,96.0
12977,72.0,1,18,7.0,96.0
12978,64.0,9,18,8.0,100.0
12979,60.0,1,18,8.0,96.0
12980,57.0,0,120,10.0,100.0
12981,57.0,2,120,11.0,100.0
12982,57.0,0,120,4.0,100.0
12983,76.0,0,120,1.0,97.0
12984,72.0,2,120,1.0,97.0
12985,69.0,0,120,4.0,100.0
12986,76.0,0,120,2.0,97.0
12987,72.0,2,120,2.0,97.0
12988,57.0,1,120,12.0,100.0
12989,45.0,1,120,13.0,100.0
12990,64.0,0,120,3.0,98.0
12991,60.0,2,120,3.0,98.0
12992,33.0,1,120,14.0,100.0
12993,76.0,48,18,7.0,127.0
12994,64.0,9,18,8.0,127.0
12995,64.0,52,18,7.0,96.0
12996,69.0,1,18,7.0,103.0
12997,57.0,7,18,8.0,96.0
12998,52.0,1,18,8.0,103.0
12999,81.0,51,18,7.0,127.0
13000,69.0,9,18,8.0,127.0
13001,72.0,51,18,7.0,96.0
13002,69.0,1,18,7.0,102.0
13003,57.0,7,18,8.0,96.0
13004,60.0,5,18,8.0,96.0
13005,72.0,47,18,7.0,127.0
13006,60.0,8,18,8.0,127.0
13007,64.0,51,18,7.0,100.0
13008,60.0,3,18,7.0,96.0
13009,48.0,6,18,8.0,96.0
13010,52.0,5,18,8.0,96.0
13011,76.0,47,18,7.0,127.0
13012,64.0,13,18,8.0,127.0
13013,69.0,46,18,7.0,100.0
13014,64.0,6,18,7.0,100.0
13015,57.0,5,18,8.0,96.0
13016,52.0,1,18,8.0,100.0
13017,69.0,47,18,7.0,127.0
13018,57.0,15,18,8.0,127.0
13019,60.0,47,18,7.0,96.0
13020,57.0,3,18,7.0,103.0
13021,48.0,0,18,8.0,96.0
13022,45.0,5,18,8.0,96.0
13023,62.0,1,45,10.0,115.0
13024,62.0,1,45,11.0,115.0
13025,62.0,1,45,12.0,115.0
13026,50.0,0,45,13.0,115.0
13027,38.0,1,45,14.0,115.0
13028,62.0,47,45,10.0,100.0
13029,62.0,2,45,11.0,100.0
13030,62.0,5,45,12.0,100.0
13031,50.0,1,45,13.0,100.0
13032,65.0,52,120,7.0,126.0
13033,38.0,5,45,14.0,100.0
13034,69.0,1,120,7.0,126.0
13035,77.0,0,120,7.0,127.0
13036,53.0,1,120,8.0,126.0
13037,57.0,0,120,8.0,127.0
13038,62.0,0,120,8.0,127.0
13039,50.0,1,120,8.0,126.0
13040,69.0,47,45,10.0,115.0
13041,69.0,2,45,11.0,115.0
13042,69.0,5,45,12.0,115.0
13043,57.0,1,45,13.0,115.0
13044,45.0,5,45,14.0,115.0
13045,69.0,47,45,10.0,100.0
13046,69.0,2,45,11.0,100.0
13047,69.0,5,45,12.0,100.0
13048,57.0,1,45,13.0,100.0
13049,45.0,5,45,14.0,100.0
13050,65.0,47,45,10.0,115.0
13051,65.0,2,45,11.0,115.0
13052,65.0,5,45,12.0,115.0
13053,53.0,1,45,13.0,115.0
13054,41.0,5,45,14.0,115.0
13055,89.0,0,340,0.0,99.0
13056,93.0,1,340,0.0,99.0
13057,62.0,0,340,4.0,100.0
13058,50.0,0,340,4.0,100.0
13059,81.0,0,340,1.0,97.0
13060,77.0,2,340,1.0,97.0
13061,65.0,47,45,10.0,100.0
13062,81.0,2,340,2.0,97.0
13063,77.0,0,340,2.0,97.0
13064,65.0,2,45,11.0,100.0
13065,65.0,5,45,12.0,100.0
13066,65.0,3,340,3.0,98.0
13067,69.0,0,340,3.0,98.0
13068,53.0,1,45,13.0,100.0
13069,41.0,5,45,14.0,100.0
13070,74.0,47,45,10.0,115.0
13071,74.0,1,45,11.0,115.0
13072,74.0,1,45,12.0,115.0
13073,62.0,1,45,13.0,115.0
13074,50.0,1,45,14.0,115.0
13075,74.0,47,45,10.0,100.0
13076,74.0,2,45,11.0,100.0
13077,74.0,5,45,12.0,100.0
13078,62.0,1,45,13.0,100.0
13079,50.0,5,45,14.0,100.0
13080,69.0,47,45,10.0,115.0
13081,69.0,2,45,11.0,115.0
13082,69.0,5,45,12.0,115.0
13083,57.0,1,45,13.0,115.0
13084,45.0,5,45,14.0,115.0
13085,69.0,47,45,10.0,100.0
13086,86.0,0,225,0.0,99.0
13087,89.0,1,225,0.0,99.0
13088,69.0,2,45,11.0,100.0
13089,50.0,0,225,4.0,100.0
13090,77.0,0,225,1.0,97.0
13091,74.0,2,225,1.0,97.0
13092,62.0,0,225,4.0,100.0
13093,77.0,0,225,2.0,97.0
13094,74.0,2,225,2.0,97.0
13095,69.0,5,45,12.0,100.0
13096,57.0,1,45,13.0,100.0
13097,57.0,4,225,3.0,98.0
13098,65.0,0,225,3.0,98.0
13099,45.0,5,45,14.0,100.0
13100,77.0,47,45,10.0,115.0
13101,77.0,1,45,11.0,115.0
13102,77.0,1,45,12.0,115.0
13103,65.0,1,45,13.0,115.0
13104,53.0,1,45,14.0,115.0
13105,77.0,47,45,10.0,100.0
13106,81.0,0,105,0.0,99.0
13107,77.0,1,105,0.0,99.0
13108,77.0,2,45,11.0,100.0
13109,62.0,0,105,4.0,100.0
13110,50.0,0,105,4.0,100.0
13111,69.0,2,105,1.0,97.0
13112,81.0,0,105,1.0,97.0
13113,69.0,2,105,2.0,97.0
13114,65.0,0,105,2.0,97.0
13115,77.0,5,45,12.0,100.0
13116,65.0,1,45,13.0,100.0
13117,65.0,4,105,3.0,98.0
13118,57.0,0,105,3.0,98.0
13119,53.0,5,45,14.0,100.0
13120,86.0,46,30,7.0,127.0
13121,74.0,0,30,8.0,127.0
13122,77.0,44,30,7.0,101.0
13123,74.0,6,30,7.0,101.0
13124,62.0,4,30,8.0,103.0
13125,65.0,1,30,8.0,101.0
13126,55.0,1,120,10.0,100.0
13127,77.0,1,120,0.0,99.0
13128,83.0,0,120,0.0,99.0
13129,55.0,1,120,11.0,100.0
13130,62.0,0,120,4.0,100.0
13131,83.0,0,120,1.0,97.0
13132,71.0,2,120,1.0,97.0
13133,65.0,0,120,2.0,97.0
13134,71.0,2,120,2.0,97.0
13135,55.0,1,120,12.0,100.0
13136,43.0,1,120,13.0,100.0
13137,59.0,0,120,3.0,98.0
13138,65.0,4,120,3.0,98.0
13139,43.0,1,120,14.0,100.0
13140,77.0,49,30,7.0,127.0
13141,65.0,14,30,8.0,127.0
13142,71.0,46,30,7.0,102.0
13143,65.0,5,30,7.0,102.0
13144,53.0,5,30,8.0,101.0
13145,59.0,1,30,8.0,103.0
13146,83.0,51,30,7.0,127.0
13147,71.0,9,30,8.0,127.0
13148,74.0,0,30,7.0,102.0
13149,71.0,51,30,7.0,101.0
13150,62.0,9,30,8.0,101.0
13151,59.0,1,30,8.0,102.0
13152,74.0,48,30,7.0,127.0
13153,62.0,11,30,8.0,127.0
13154,65.0,47,30,7.0,102.0
13155,62.0,4,30,7.0,101.0
13156,53.0,9,30,8.0,101.0
13157,50.0,3,30,8.0,101.0
13158,77.0,47,30,7.0,127.0
13159,65.0,12,30,8.0,127.0
13160,71.0,45,30,7.0,101.0
13161,65.0,7,30,7.0,101.0
13162,53.0,4,30,8.0,101.0
13163,59.0,0,30,8.0,101.0
13164,71.0,49,30,7.0,127.0
13165,59.0,13,30,8.0,127.0
13166,62.0,47,30,7.0,101.0
13167,59.0,4,30,7.0,102.0
13168,47.0,8,30,8.0,100.0
13169,50.0,2,30,8.0,100.0
13170,60.0,1,45,10.0,115.0
13171,60.0,0,45,11.0,115.0
13172,60.0,0,45,12.0,115.0
13173,48.0,0,45,13.0,115.0
13174,36.0,1,60,14.0,100.0
13175,60.0,47,45,10.0,100.0
13176,60.0,2,45,11.0,100.0
13177,60.0,5,45,12.0,100.0
13178,48.0,1,45,13.0,100.0
13179,67.0,49,120,7.0,124.0
13180,76.0,1,120,7.0,124.0
13181,71.0,0,120,7.0,123.0
13182,64.0,1,120,7.0,123.0
13183,64.0,2,120,4.0,100.0
13184,67.0,0,120,4.0,100.0
13185,64.0,0,120,8.0,123.0
13186,55.0,1,120,8.0,124.0
13187,52.0,1,120,8.0,124.0
13188,59.0,1,120,8.0,123.0
13189,67.0,52,45,10.0,115.0
13190,67.0,2,45,11.0,115.0
13191,67.0,5,45,12.0,115.0
13192,55.0,1,45,13.0,115.0
13193,43.0,5,60,14.0,100.0
13194,67.0,47,45,10.0,100.0
13195,67.0,2,45,11.0,100.0
13196,67.0,5,45,12.0,100.0
13197,55.0,1,45,13.0,100.0
13198,64.0,52,45,10.0,115.0
13199,64.0,2,45,11.0,115.0
13200,64.0,5,45,12.0,115.0
13201,52.0,1,45,13.0,115.0
13202,40.0,5,60,14.0,100.0
13203,64.0,47,45,10.0,100.0
13204,64.0,2,45,11.0,100.0
13205,64.0,5,45,12.0,100.0
13206,52.0,1,45,13.0,100.0
13207,76.0,0,360,0.0,99.0
13208,71.0,0,360,1.0,97.0
13209,79.0,2,360,2.0,97.0
13210,67.0,0,360,2.0,97.0
13211,59.0,0,360,3.0,98.0
13212,81.0,47,30,7.0,127.0
13213,69.0,0,30,8.0,127.0
13214,41.0,1,60,14.0,100.0
13215,72.0,42,30,7.0,101.0
13216,69.0,5,30,7.0,101.0
13217,60.0,10,30,8.0,99.0
13218,57.0,1,30,8.0,100.0
13219,65.0,5,120,10.0,100.0
13220,88.0,1,480,0.0,99.0
13221,81.0,1,120,0.0,99.0
13222,65.0,1,120,11.0,100.0
13223,60.0,0,120,4.0,100.0
13224,69.0,0,120,4.0,100.0
13225,77.0,2,120,2.0,97.0
13226,65.0,0,120,2.0,97.0
13227,65.0,1,120,12.0,100.0
13228,53.0,1,120,13.0,100.0
13229,72.0,48,30,7.0,126.0
13230,60.0,12,30,8.0,126.0
13231,64.0,48,30,7.0,101.0
13232,60.0,1,30,7.0,99.0
13233,52.0,7,30,8.0,99.0
13234,48.0,1,30,8.0,99.0
13235,76.0,47,30,7.0,127.0
13236,64.0,13,30,8.0,127.0
13237,69.0,48,30,7.0,96.0
13238,65.0,3,30,7.0,101.0
13239,57.0,9,30,8.0,101.0
13240,53.0,3,30,8.0,99.0
13241,76.0,0,720,1.0,97.0
13242,64.0,3,720,3.0,98.0
13243,59.0,1,45,10.0,115.0
13244,59.0,1,45,11.0,115.0
13245,59.0,1,45,12.0,115.0
13246,47.0,1,45,13.0,115.0
13247,35.0,1,60,14.0,100.0
13248,59.0,47,45,10.0,100.0
13249,59.0,2,45,11.0,100.0
13250,59.0,5,45,12.0,100.0
13251,47.0,1,45,13.0,100.0
13252,74.0,46,120,7.0,120.0
13253,69.0,2,120,7.0,121.0
13254,65.0,0,120,7.0,121.0
13255,62.0,2,120,4.0,100.0
13256,62.0,2,120,8.0,123.0
13257,57.0,2,120,8.0,120.0
13258,53.0,1,120,8.0,121.0
13259,65.0,52,45,10.0,115.0
13260,65.0,2,45,11.0,115.0
13261,65.0,5,45,12.0,115.0
13262,53.0,1,45,13.0,115.0
13263,41.0,5,60,14.0,100.0
13264,65.0,47,45,10.0,100.0
13265,65.0,2,45,11.0,100.0
13266,65.0,5,45,12.0,100.0
13267,53.0,1,45,13.0,100.0
13268,62.0,52,45,10.0,115.0
13269,62.0,2,45,11.0,115.0
13270,62.0,5,45,12.0,115.0
13271,50.0,1,45,13.0,115.0
13272,38.0,5,60,14.0,100.0
13273,62.0,47,45,10.0,100.0
13274,62.0,2,45,11.0,100.0
13275,62.0,5,45,12.0,100.0
13276,50.0,1,45,13.0,100.0
13277,81.0,0,360,0.0,99.0
13278,69.0,2,720,1.0,97.0
13279,65.0,0,360,2.0,97.0
13280,77.0,0,360,2.0,97.0
13281,57.0,4,720,3.0,98.0
13282,79.0,50,30,7.0,125.0
13283,67.0,1,30,8.0,125.0
13284,40.0,1,60,14.0,100.0
13285,71.0,44,30,7.0,96.0
13286,67.0,6,30,7.0,101.0
13287,59.0,3,30,8.0,99.0
13288,55.0,1,30,8.0,96.0
13289,64.0,2,120,10.0,100.0
13290,79.0,1,120,0.0,99.0
13291,86.0,1,480,0.0,99.0
13292,64.0,1,120,11.0,100.0
13293,67.0,0,120,4.0,100.0
13294,64.0,0,120,4.0,100.0
13295,76.0,0,120,2.0,97.0
13296,64.0,2,120,2.0,97.0
13297,64.0,1,120,12.0,100.0
13298,52.0,0,120,13.0,100.0
13299,71.0,51,30,7.0,126.0
13300,59.0,13,30,8.0,125.0
13301,62.0,44,30,7.0,99.0
13302,59.0,8,30,7.0,96.0
13303,50.0,4,30,8.0,96.0
13304,47.0,1,30,8.0,96.0
13305,74.0,48,30,7.0,124.0
13306,62.0,11,30,8.0,124.0
13307,67.0,50,30,7.0,95.0
13308,64.0,1,30,7.0,99.0
13309,52.0,8,30,8.0,96.0
13310,55.0,1,30,8.0,96.0
13311,74.0,0,720,1.0,97.0
13312,62.0,1,720,3.0,98.0
13313,57.0,0,45,10.0,115.0
13314,57.0,1,45,11.0,115.0
13315,57.0,1,45,12.0,115.0
13316,45.0,0,45,13.0,115.0
13317,33.0,1,60,14.0,100.0
13318,57.0,47,45,10.0,100.0
13319,57.0,2,45,11.0,100.0
13320,57.0,5,45,12.0,100.0
13321,45.0,1,45,13.0,100.0
13322,72.0,48,120,7.0,120.0
13323,64.0,5,120,7.0,120.0
13324,67.0,1,120,7.0,120.0
13325,60.0,0,120,4.0,100.0
13326,57.0,1,120,4.0,100.0
13327,52.0,0,120,8.0,120.0
13328,60.0,1,120,8.0,120.0
13329,55.0,3,120,8.0,120.0
13330,64.0,52,45,10.0,115.0
13331,64.0,2,45,11.0,115.0
13332,64.0,5,45,12.0,115.0
13333,52.0,1,45,13.0,115.0
13334,40.0,5,60,14.0,100.0
13335,64.0,47,45,10.0,100.0
13336,64.0,2,45,11.0,100.0
13337,64.0,5,45,12.0,100.0
13338,52.0,1,45,13.0,100.0
13339,60.0,52,45,10.0,115.0
13340,60.0,2,45,11.0,115.0
13341,60.0,5,45,12.0,115.0
13342,48.0,1,45,13.0,115.0
13343,36.0,5,60,14.0,100.0
13344,60.0,47,45,10.0,100.0
13345,60.0,2,45,11.0,100.0
13346,60.0,5,45,12.0,100.0
13347,48.0,1,45,13.0,100.0
13348,79.0,0,360,0.0,99.0
13349,67.0,2,720,1.0,97.0
13350,64.0,2,360,2.0,97.0
13351,76.0,0,360,2.0,97.0
13352,55.0,4,720,3.0,98.0
13353,77.0,50,30,7.0,125.0
13354,65.0,0,30,8.0,124.0
13355,38.0,1,60,14.0,100.0
13356,69.0,47,30,7.0,96.0
13357,65.0,1,30,7.0,95.0
13358,57.0,0,30,8.0,99.0
13359,53.0,6,30,8.0,95.0
13360,62.0,2,120,10.0,100.0
13361,77.0,1,120,0.0,99.0
13362,84.0,1,480,0.0,99.0
13363,62.0,1,120,11.0,100.0
13364,57.0,2,120,4.0,100.0
13365,62.0,2,120,2.0,97.0
13366,74.0,0,120,2.0,97.0
13367,62.0,1,120,12.0,100.0
13368,50.0,1,120,13.0,100.0
13369,69.0,52,30,7.0,123.0
13370,57.0,11,30,8.0,124.0
13371,60.0,48,30,7.0,95.0
13372,57.0,3,30,7.0,96.0
13373,48.0,5,30,8.0,95.0
13374,45.0,3,30,8.0,96.0
13375,72.0,50,30,7.0,123.0
13376,60.0,8,30,8.0,124.0
13377,65.0,48,30,7.0,95.0
13378,62.0,5,30,7.0,95.0
13379,53.0,10,30,8.0,95.0
13380,50.0,1,30,8.0,95.0
13381,72.0,0,720,1.0,97.0
13382,60.0,1,720,3.0,98.0
13383,71.0,49,60,7.0,117.0
13384,62.0,0,60,7.0,120.0
13385,65.0,0,60,7.0,118.0
13386,59.0,0,60,8.0,118.0
13387,53.0,0,60,8.0,120.0
13388,50.0,3,60,8.0,117.0
13389,77.0,0,120,0.0,99.0
13390,83.0,1,120,0.0,99.0
13391,74.0,1,120,6.0,105.0
13392,62.0,0,120,6.0,105.0
13393,56.0,0,123,10.0,100.0
13394,53.0,0,120,4.0,100.0
13395,62.0,0,120,4.0,100.0
13396,56.0,1,123,11.0,100.0
13397,74.0,0,120,2.0,97.0
13398,71.0,2,120,2.0,97.0
13399,56.0,1,123,12.0,100.0
13400,44.0,1,123,13.0,100.0
13401,50.0,2,120,15.0,79.0
13402,32.0,1,123,14.0,100.0
13403,59.0,108,30,7.0,91.0
13404,47.0,8,30,8.0,92.0
13405,62.0,20,30,7.0,92.0
13406,50.0,11,30,8.0,92.0
13407,65.0,20,30,7.0,95.0
13408,53.0,7,30,8.0,95.0
13409,71.0,20,30,7.0,100.0
13410,59.0,10,30,8.0,96.0
13411,74.0,23,30,7.0,96.0
13412,62.0,12,30,8.0,101.0
13413,77.0,19,30,7.0,100.0
13414,65.0,10,30,8.0,97.0
13415,83.0,18,30,7.0,100.0
13416,71.0,8,30,8.0,100.0
13417,86.0,22,30,7.0,103.0
13418,65.0,0,720,1.0,97.0
13419,71.0,0,0,1.0,97.0
13420,74.0,7,29,8.0,106.0
13421,59.0,4,0,3.0,98.0
13422,53.0,4,720,3.0,98.0
13423,101.0,21,20,7.0,99.0
13424,89.0,0,20,7.0,96.0
13425,77.0,4,20,8.0,96.0
13426,103.0,6,20,7.0,91.0
13427,91.0,2,20,7.0,96.0
13428,79.0,3,20,8.0,96.0
13429,101.0,14,20,7.0,92.0
13430,89.0,4,20,7.0,97.0
13431,77.0,1,20,8.0,103.0
13432,91.0,15,20,7.0,103.0
13433,103.0,2,20,7.0,92.0
13434,79.0,4,20,8.0,106.0
13435,101.0,14,20,7.0,90.0
13436,89.0,2,20,7.0,96.0
13437,77.0,3,20,8.0,96.0
13438,103.0,17,20,7.0,90.0
13439,91.0,0,20,7.0,106.0
13440,79.0,4,20,8.0,103.0
13441,89.0,15,25,7.0,96.0
13442,101.0,1,25,7.0,91.0
13443,77.0,4,25,8.0,106.0
13444,103.0,18,25,7.0,92.0
13445,91.0,3,25,7.0,96.0
13446,79.0,5,25,8.0,96.0
13447,101.0,19,25,7.0,92.0
13448,89.0,2,25,7.0,96.0
13449,77.0,3,25,8.0,106.0
13450,91.0,21,25,7.0,96.0
13451,103.0,0,25,7.0,92.0
13452,79.0,2,25,8.0,103.0
13453,89.0,23,23,7.0,97.0
13454,101.0,1,23,7.0,91.0
13455,77.0,3,23,8.0,96.0
13456,103.0,0,23,7.0,90.0
13457,91.0,17,23,7.0,103.0
13458,79.0,5,23,8.0,96.0
13459,89.0,20,23,7.0,96.0
13460,101.0,0,23,7.0,89.0
13461,77.0,4,23,8.0,106.0
13462,103.0,16,23,7.0,90.0
13463,79.0,4,23,8.0,96.0
13464,91.0,0,23,7.0,96.0
13465,89.0,16,18,7.0,97.0
13466,101.0,0,18,7.0,90.0
13467,77.0,4,18,8.0,96.0
13468,100.0,18,27,7.0,93.0
13469,88.0,3,27,7.0,109.0
13470,74.0,1,0,1.0,97.0
13471,76.0,6,27,8.0,98.0
13472,86.0,21,23,7.0,96.0
13473,98.0,1,23,7.0,91.0
13474,74.0,4,23,8.0,96.0
13475,88.0,10,23,7.0,106.0
13476,100.0,2,23,7.0,91.0
13477,76.0,4,23,8.0,96.0
13478,98.0,19,23,7.0,91.0
13479,86.0,0,23,7.0,96.0
13480,74.0,3,23,8.0,103.0
13481,88.0,19,23,7.0,106.0
13482,100.0,2,23,7.0,91.0
13483,76.0,4,23,8.0,106.0
13484,98.0,17,23,7.0,90.0
13485,86.0,1,23,7.0,96.0
13486,74.0,4,23,8.0,96.0
13487,88.0,20,23,7.0,106.0
13488,100.0,0,23,7.0,89.0
13489,76.0,5,23,8.0,103.0
13490,98.0,17,23,7.0,91.0
13491,86.0,1,23,7.0,96.0
13492,74.0,4,23,8.0,106.0
13493,100.0,18,23,7.0,91.0
13494,88.0,3,23,7.0,97.0
13495,76.0,3,23,8.0,96.0
13496,86.0,18,29,7.0,96.0
13497,98.0,0,29,7.0,92.0
13498,74.0,6,29,8.0,106.0
13499,62.0,0,585,4.0,100.0
13500,53.0,1,585,4.0,100.0
13501,44.0,4,585,13.0,100.0
13502,32.0,1,585,14.0,100.0
13503,88.0,24,29,7.0,96.0
13504,100.0,1,29,7.0,91.0
13505,76.0,2,29,8.0,103.0
13506,86.0,2,27,7.0,96.0
13507,98.0,0,27,7.0,91.0
13508,74.0,2,27,8.0,96.0
13509,100.0,17,27,7.0,90.0
13510,88.0,4,27,7.0,103.0
13511,76.0,2,27,8.0,96.0
13512,86.0,25,27,7.0,97.0
13513,98.0,0,27,7.0,90.0
13514,74.0,3,27,8.0,106.0
13515,96.0,26,27,7.0,79.0
13516,84.0,1,27,7.0,102.0
13517,72.0,6,27,8.0,101.0
13518,83.0,0,23,7.0,97.0
13519,95.0,21,23,7.0,91.0
13520,71.0,4,23,8.0,96.0
13521,96.0,19,23,7.0,92.0
13522,84.0,2,23,7.0,106.0
13523,72.0,4,23,8.0,96.0
13524,83.0,19,23,7.0,97.0
13525,95.0,0,23,7.0,91.0
13526,71.0,2,23,8.0,103.0
13527,84.0,18,23,7.0,106.0
13528,96.0,4,23,7.0,92.0
13529,72.0,3,23,8.0,106.0
13530,53.0,25,221,4.0,100.0
13531,62.0,0,221,4.0,100.0
13532,43.0,2,221,13.0,100.0
13533,83.0,16,23,7.0,96.0
13534,95.0,0,23,7.0,89.0
13535,31.0,3,221,14.0,100.0
13536,71.0,6,23,8.0,96.0
13537,96.0,17,23,7.0,89.0
13538,84.0,2,23,7.0,96.0
13539,72.0,5,23,8.0,103.0
13540,95.0,2,23,7.0,90.0
13541,83.0,1,23,7.0,96.0
13542,71.0,5,23,8.0,106.0
13543,96.0,16,23,7.0,92.0
13544,84.0,4,23,7.0,97.0
13545,72.0,3,23,8.0,96.0
13546,95.0,17,28,7.0,92.0
13547,83.0,2,28,7.0,96.0
13548,71.0,5,28,8.0,106.0
13549,62.0,5,102,4.0,100.0
13550,53.0,0,102,4.0,100.0
13551,50.0,4,102,13.0,100.0
13552,38.0,5,102,14.0,100.0
13553,84.0,24,28,7.0,106.0
13554,72.0,3,28,8.0,103.0
13555,96.0,0,28,7.0,92.0
13556,95.0,26,26,7.0,92.0
13557,83.0,1,26,7.0,96.0
13558,71.0,2,26,8.0,96.0
13559,84.0,13,26,7.0,106.0
13560,96.0,2,26,7.0,90.0
13561,72.0,2,26,8.0,96.0
13562,95.0,22,26,7.0,89.0
13563,83.0,0,26,7.0,96.0
13564,71.0,5,26,8.0,106.0
13565,62.0,0,102,4.0,100.0
13566,53.0,0,102,4.0,100.0
13567,89.0,24,27,7.0,78.0
13568,55.0,4,102,13.0,100.0
13569,77.0,4,27,7.0,103.0
13570,43.0,5,102,14.0,100.0
13571,65.0,4,27,8.0,101.0
13572,65.0,0,720,3.0,98.0
13573,62.0,8,720,3.0,98.0
13574,77.0,30,23,7.0,100.0
13575,89.0,1,23,7.0,92.0
13576,65.0,0,23,8.0,99.0
13577,79.0,10,23,7.0,95.0
13578,67.0,0,23,8.0,95.0
13579,91.0,2,23,7.0,93.0
13580,77.0,19,23,7.0,99.0
13581,89.0,4,23,7.0,92.0
13582,65.0,3,23,8.0,98.0
13583,79.0,19,23,7.0,96.0
13584,91.0,3,23,7.0,92.0
13585,67.0,2,23,8.0,96.0
13586,77.0,17,23,7.0,98.0
13587,89.0,4,23,7.0,91.0
13588,65.0,1,23,8.0,95.0
13589,62.0,3,120,4.0,100.0
13590,53.0,0,120,4.0,100.0
13591,56.0,2,120,13.0,100.0
13592,44.0,1,120,14.0,100.0
13593,79.0,20,23,7.0,99.0
13594,91.0,1,23,7.0,93.0
13595,67.0,3,23,8.0,98.0
13596,89.0,19,23,7.0,92.0
13597,77.0,2,23,7.0,96.0
13598,65.0,3,23,8.0,98.0
13599,91.0,18,23,7.0,92.0
13600,79.0,4,23,7.0,96.0
13601,67.0,2,23,8.0,95.0
13602,77.0,18,23,7.0,96.0
13603,89.0,1,23,7.0,93.0
13604,65.0,4,23,8.0,99.0
13605,91.0,17,23,7.0,92.0
13606,79.0,2,23,7.0,96.0
13607,67.0,5,23,8.0,98.0
13608,77.0,19,23,7.0,96.0
13609,89.0,0,23,7.0,91.0
13610,65.0,3,23,8.0,95.0
13611,91.0,19,23,7.0,92.0
13612,79.0,1,23,7.0,98.0
13613,67.0,4,23,8.0,99.0
13614,77.0,16,23,7.0,99.0
13615,89.0,4,23,7.0,92.0
13616,65.0,2,23,8.0,98.0
13617,91.0,20,23,7.0,93.0
13618,79.0,2,23,7.0,100.0
13619,67.0,1,23,8.0,95.0
13620,89.0,20,23,7.0,91.0
13621,77.0,1,23,7.0,96.0
13622,65.0,2,23,8.0,99.0
13623,74.0,0,360,0.0,99.0
13624,77.0,4,0,0.0,99.0
13625,65.0,2,0,2.0,97.0
13626,62.0,2,360,2.0,97.0
13627,91.0,21,23,7.0,91.0
13628,79.0,2,23,7.0,99.0
13629,67.0,4,23,8.0,98.0
13630,89.0,1,23,7.0,93.0
13631,65.0,2,23,8.0,96.0
13632,77.0,2,23,7.0,96.0
13633,79.0,18,23,7.0,100.0
13634,91.0,1,23,7.0,91.0
13635,67.0,3,23,8.0,95.0
13636,77.0,19,30,7.0,98.0
13637,89.0,3,30,7.0,93.0
13638,65.0,5,30,8.0,99.0
13639,91.0,22,30,7.0,89.0
13640,79.0,3,30,7.0,98.0
13641,67.0,5,30,8.0,96.0
13642,77.0,22,30,7.0,96.0
13643,89.0,5,30,7.0,93.0
13644,65.0,1,30,8.0,96.0
13645,79.0,25,30,7.0,95.0
13646,91.0,3,30,7.0,91.0
13647,67.0,3,30,8.0,98.0
13648,77.0,23,30,7.0,98.0
13649,89.0,4,30,7.0,93.0
13650,65.0,1,30,8.0,96.0
13651,79.0,27,30,7.0,95.0
13652,91.0,1,30,7.0,89.0
13653,67.0,4,30,8.0,96.0
13654,77.0,23,30,7.0,96.0
13655,89.0,3,30,7.0,91.0
13656,65.0,6,30,8.0,98.0
13657,91.0,22,30,7.0,84.0
13658,79.0,4,30,7.0,94.0
13659,67.0,4,30,8.0,93.0
13660,89.0,24,30,7.0,84.0
13661,77.0,0,30,7.0,91.0
13662,65.0,3,30,8.0,89.0
13663,88.0,24,27,7.0,79.0
13664,76.0,2,27,7.0,102.0
13665,83.0,0,360,0.0,99.0
13666,71.0,3,0,2.0,97.0
13667,64.0,9,27,8.0,101.0
13668,74.0,18,23,7.0,97.0
13669,86.0,1,23,7.0,91.0
13670,62.0,2,23,8.0,96.0
13671,88.0,18,23,7.0,91.0
13672,76.0,0,23,7.0,106.0
13673,64.0,4,23,8.0,96.0
13674,86.0,16,23,7.0,92.0
13675,74.0,5,23,7.0,96.0
13676,62.0,1,23,8.0,103.0
13677,76.0,18,23,7.0,106.0
13678,88.0,3,23,7.0,92.0
13679,64.0,4,23,8.0,106.0
13680,74.0,16,23,7.0,96.0
13681,86.0,2,23,7.0,89.0
13682,62.0,4,23,8.0,96.0
13683,88.0,19,23,7.0,90.0
13684,76.0,1,23,7.0,106.0
13685,64.0,5,23,8.0,103.0
13686,86.0,16,23,7.0,91.0
13687,74.0,3,23,7.0,97.0
13688,62.0,3,23,8.0,106.0
13689,88.0,18,23,7.0,92.0
13690,76.0,0,23,7.0,97.0
13691,64.0,6,23,8.0,96.0
13692,86.0,17,29,7.0,91.0
13693,74.0,3,29,7.0,106.0
13694,62.0,4,29,8.0,106.0
13695,53.0,3,585,4.0,100.0
13696,62.0,0,585,4.0,100.0
13697,44.0,2,585,13.0,100.0
13698,32.0,5,585,14.0,100.0
13699,76.0,22,29,7.0,96.0
13700,88.0,2,29,7.0,91.0
13701,64.0,3,29,8.0,103.0
13702,86.0,0,26,7.0,91.0
13703,74.0,2,26,7.0,96.0
13704,62.0,1,26,8.0,96.0
13705,76.0,16,26,7.0,106.0
13706,88.0,1,26,7.0,89.0
13707,64.0,5,26,8.0,96.0
13708,74.0,23,26,7.0,97.0
13709,86.0,1,26,7.0,89.0
13710,62.0,3,26,8.0,106.0
13711,84.0,27,27,7.0,79.0
13712,72.0,4,27,7.0,102.0
13713,60.0,4,27,8.0,101.0
13714,83.0,0,23,7.0,92.0
13715,71.0,23,23,7.0,97.0
13716,59.0,3,23,8.0,96.0
13717,84.0,0,23,7.0,91.0
13718,72.0,20,23,7.0,96.0
13719,60.0,5,23,8.0,96.0
13720,83.0,17,23,7.0,91.0
13721,71.0,1,23,7.0,97.0
13722,59.0,4,23,8.0,103.0
13723,72.0,0,23,7.0,103.0
13724,84.0,20,23,7.0,91.0
13725,60.0,4,23,8.0,106.0
13726,62.0,25,221,4.0,100.0
13727,53.0,0,221,4.0,100.0
13728,43.0,2,221,13.0,100.0
13729,83.0,17,23,7.0,89.0
13730,31.0,4,221,14.0,100.0
13731,71.0,2,23,7.0,96.0
13732,59.0,4,23,8.0,96.0
13733,84.0,17,23,7.0,89.0
13734,72.0,3,23,7.0,96.0
13735,60.0,4,23,8.0,103.0
13736,83.0,6,23,7.0,90.0
13737,71.0,2,23,7.0,97.0
13738,59.0,2,23,8.0,106.0
13739,84.0,19,23,7.0,91.0
13740,72.0,0,23,7.0,96.0
13741,60.0,6,23,8.0,96.0
13742,71.0,0,29,7.0,96.0
13743,83.0,18,29,7.0,92.0
13744,59.0,4,29,8.0,106.0
13745,62.0,3,102,4.0,100.0
13746,53.0,0,102,4.0,100.0
13747,50.0,4,102,13.0,100.0
13748,38.0,5,102,14.0,100.0
13749,72.0,24,29,7.0,96.0
13750,84.0,3,29,7.0,92.0
13751,60.0,1,29,8.0,103.0
13752,71.0,26,26,7.0,97.0
13753,83.0,1,26,7.0,91.0
13754,59.0,1,26,8.0,96.0
13755,72.0,17,26,7.0,103.0
13756,84.0,0,26,7.0,89.0
13757,60.0,4,26,8.0,96.0
13758,83.0,22,26,7.0,89.0
13759,71.0,3,26,7.0,97.0
13760,59.0,2,26,8.0,106.0
13761,53.0,0,102,4.0,100.0
13762,62.0,0,102,4.0,100.0
13763,55.0,3,102,13.0,100.0
13764,77.0,25,27,7.0,85.0
13765,65.0,2,27,7.0,102.0
13766,43.0,4,102,14.0,100.0
13767,53.0,5,27,8.0,101.0
13768,77.0,0,120,7.0,107.0
13769,74.0,27,120,7.0,107.0
13770,89.0,0,840,0.0,99.0
13771,86.0,2,840,0.0,99.0
13772,71.0,2,120,7.0,110.0
13773,65.0,1,120,7.0,109.0
13774,77.0,0,2280,1.0,97.0
13775,77.0,0,840,2.0,97.0
13776,59.0,3,120,12.0,79.0
13777,53.0,1,120,8.0,109.0
13778,44.0,1,120,8.0,109.0
13779,50.0,2,120,8.0,107.0
13780,59.0,4,1560,3.0,98.0
13781,65.0,0,1560,3.0,98.0
13782,59.0,0,120,8.0,107.0
13783,53.0,114,120,12.0,79.0
13784,53.0,5,120,3.0,78.0
13785,50.0,115,120,12.0,79.0
13786,56.0,1,360,13.0,100.0
13787,50.0,5,120,3.0,78.0
13788,59.0,4,120,3.0,78.0
13789,44.0,1,480,14.0,100.0
13790,59.0,114,240,2.0,88.0
13791,59.0,1,240,12.0,79.0
13792,65.0,1,105,12.0,79.0
13793,65.0,234,120,2.0,101.0
13794,59.0,119,120,2.0,101.0
13795,59.0,1,120,12.0,79.0
13796,59.0,5,120,3.0,78.0
13797,53.0,115,120,12.0,79.0
13798,53.0,5,120,3.0,78.0
13799,50.0,115,120,12.0,79.0
13800,50.0,5,120,3.0,78.0
13801,59.0,5,120,3.0,78.0
13802,59.0,114,240,2.0,88.0
13803,59.0,1,240,12.0,79.0
13804,65.0,1,105,12.0,79.0
13805,53.0,1,1440,4.0,100.0
13806,62.0,0,1440,4.0,100.0
13807,65.0,234,120,2.0,101.0
13808,59.0,2,120,2.0,101.0
13809,59.0,1,120,12.0,79.0
13810,59.0,5,120,3.0,78.0
13811,52.0,115,120,12.0,79.0
13812,52.0,5,120,3.0,78.0
13813,59.0,115,105,12.0,79.0
13814,47.0,5,120,3.0,78.0
13815,59.0,5,120,3.0,78.0
13816,59.0,114,240,2.0,88.0
13817,59.0,1,240,12.0,79.0
13818,64.0,1,105,12.0,79.0
13819,64.0,234,120,2.0,101.0
13820,59.0,119,120,2.0,101.0
13821,59.0,1,120,12.0,79.0
13822,59.0,5,120,3.0,78.0
13823,52.0,115,120,12.0,79.0
13824,52.0,5,120,3.0,78.0
13825,59.0,115,105,12.0,79.0
13826,47.0,5,120,3.0,78.0
13827,59.0,5,120,3.0,78.0
13828,44.0,1,2385,13.0,100.0
13829,59.0,114,240,2.0,88.0
13830,59.0,1,240,12.0,79.0
13831,64.0,1,105,12.0,79.0
13832,64.0,117,1440,4.0,90.0
13833,64.0,3,120,2.0,101.0
13834,57.0,2,120,2.0,101.0
13835,57.0,1,120,12.0,79.0
13836,57.0,5,120,3.0,86.0
13837,52.0,115,120,12.0,79.0
13838,52.0,5,120,3.0,86.0
13839,48.0,115,120,12.0,79.0
13840,48.0,5,120,3.0,86.0
13841,57.0,5,120,3.0,86.0
13842,48.0,231,720,6.0,88.0
13843,57.0,114,240,2.0,88.0
13844,57.0,1,240,12.0,79.0
13845,48.0,1,720,13.0,73.0
13846,36.0,5,720,14.0,79.0
13847,60.0,1,105,12.0,79.0
13848,53.0,231,120,6.0,91.0
13849,60.0,3,120,2.0,101.0
13850,53.0,1,120,13.0,76.0
13851,41.0,5,120,14.0,81.0
13852,57.0,3,120,2.0,101.0
13853,57.0,1,120,12.0,79.0
13854,57.0,4,120,3.0,86.0
13855,52.0,114,120,12.0,79.0
13856,52.0,5,120,3.0,86.0
13857,48.0,115,120,12.0,79.0
13858,48.0,5,120,3.0,86.0
13859,52.0,110,480,6.0,88.0
13860,52.0,1,480,13.0,73.0
13861,57.0,5,120,3.0,86.0
13862,40.0,1,480,14.0,79.0
13863,50.0,111,120,6.0,88.0
13864,57.0,114,240,2.0,88.0
13865,57.0,1,240,12.0,79.0
13866,50.0,5,120,13.0,73.0
13867,38.0,5,120,14.0,79.0
13868,64.0,1,105,12.0,79.0
13869,48.0,110,120,6.0,88.0
13870,57.0,0,1440,4.0,100.0
13871,64.0,111,1440,4.0,100.0
13872,64.0,3,120,2.0,101.0
13873,48.0,1,120,13.0,73.0
13874,36.0,5,120,14.0,79.0
13875,57.0,2,120,2.0,101.0
13876,57.0,1,120,12.0,79.0
13877,57.0,4,120,3.0,86.0
13878,53.0,114,120,12.0,79.0
13879,53.0,5,120,3.0,86.0
13880,50.0,115,120,12.0,79.0
13881,50.0,5,120,3.0,86.0
13882,57.0,5,120,3.0,86.0
13883,47.0,110,585,6.0,88.0
13884,47.0,1,585,13.0,73.0
13885,35.0,1,585,14.0,79.0
13886,57.0,114,240,2.0,88.0
13887,57.0,1,240,12.0,79.0
13888,62.0,1,105,12.0,79.0
13889,55.0,231,120,6.0,91.0
13890,62.0,3,120,2.0,101.0
13891,55.0,1,120,13.0,76.0
13892,43.0,5,120,14.0,81.0
13893,57.0,3,120,2.0,101.0
13894,57.0,1,120,12.0,79.0
13895,57.0,4,120,3.0,86.0
13896,50.0,114,120,12.0,79.0
13897,50.0,5,120,3.0,86.0
13898,53.0,115,120,12.0,79.0
13899,47.0,5,120,3.0,86.0
13900,53.0,110,480,6.0,88.0
13901,53.0,1,480,13.0,73.0
13902,57.0,5,120,3.0,86.0
13903,41.0,1,480,14.0,79.0
13904,52.0,111,120,6.0,88.0
13905,57.0,114,240,2.0,88.0
13906,57.0,1,240,12.0,79.0
13907,52.0,5,120,13.0,73.0
13908,40.0,5,120,14.0,79.0
13909,50.0,110,105,6.0,88.0
13910,65.0,1,105,12.0,79.0
13911,50.0,1,105,13.0,73.0
13912,38.0,5,105,14.0,79.0
13913,57.0,0,0,4.0,100.0
13914,62.0,1,1440,4.0,100.0
13915,65.0,3,120,2.0,101.0
13916,64.0,2,120,2.0,101.0
13917,64.0,0,120,12.0,79.0
13918,49.0,110,240,6.0,88.0
13919,61.0,113,120,2.0,101.0
13920,61.0,1,120,12.0,79.0
13921,49.0,1,240,13.0,73.0
13922,37.0,1,240,14.0,79.0
13923,52.0,116,120,6.0,79.0
13924,57.0,3,120,2.0,101.0
13925,57.0,1,120,12.0,79.0
13926,52.0,1,120,13.0,66.0
13927,40.0,5,120,14.0,79.0
13928,64.0,3,120,2.0,101.0
13929,76.0,1,592,7.0,57.0
13930,64.0,108,240,0.0,99.0
13931,64.0,4,592,8.0,60.0
13932,64.0,1,240,12.0,79.0
13933,73.0,6,105,12.0,79.0
13934,81.0,226,120,7.0,96.0
13935,73.0,2,120,0.0,99.0
13936,69.0,0,120,8.0,95.0
13937,64.0,114,120,0.0,99.0
13938,64.0,2,120,2.0,90.0
13939,64.0,1,120,12.0,79.0
13940,61.0,119,120,2.0,90.0
13941,61.0,1,120,12.0,79.0
13942,56.0,119,120,2.0,90.0
13943,56.0,1,120,12.0,79.0
13944,80.0,0,480,7.0,84.0
13945,68.0,0,480,8.0,84.0
13946,64.0,5,120,2.0,90.0
13947,78.0,113,120,7.0,81.0
13948,64.0,114,240,0.0,99.0
13949,66.0,5,120,8.0,77.0
13950,64.0,1,240,12.0,79.0
13951,61.0,2,1065,6.0,79.0
13952,73.0,5,105,12.0,79.0
13953,61.0,1,1065,13.0,66.0
13954,49.0,5,1065,14.0,79.0
13955,73.0,116,120,0.0,99.0
13956,64.0,1,120,8.0,77.0
13957,76.0,0,120,7.0,79.0
13958,64.0,1,1440,4.0,100.0
13959,56.0,3,720,4.0,100.0
13960,66.0,2,120,0.0,99.0
13961,66.0,2,120,2.0,90.0
13962,66.0,1,120,12.0,79.0
13963,49.0,1,240,6.0,86.0
13964,61.0,113,120,2.0,90.0
13965,61.0,1,120,12.0,79.0
13966,49.0,1,240,13.0,72.0
13967,37.0,1,240,14.0,79.0
13968,51.0,116,120,6.0,88.0
13969,57.0,3,120,2.0,90.0
13970,57.0,1,120,12.0,79.0
13971,51.0,1,120,13.0,73.0
13972,39.0,5,120,14.0,80.0
13973,66.0,3,120,2.0,90.0
13974,75.0,112,600,7.0,85.0
13975,66.0,108,240,0.0,99.0
13976,63.0,1,600,8.0,81.0
13977,66.0,1,240,12.0,79.0
13978,73.0,5,105,12.0,79.0
13979,71.0,227,120,8.0,89.0
13980,73.0,1,120,0.0,99.0
13981,83.0,1,120,7.0,88.0
13982,66.0,0,120,0.0,99.0
13983,66.0,5,120,2.0,90.0
13984,66.0,1,120,12.0,79.0
13985,61.0,119,120,2.0,90.0
13986,61.0,1,120,12.0,79.0
13987,57.0,119,120,2.0,90.0
13988,57.0,1,120,12.0,79.0
13989,81.0,112,480,7.0,85.0
13990,69.0,2,480,8.0,85.0
13991,66.0,5,120,2.0,90.0
13992,80.0,111,120,7.0,85.0
13993,66.0,114,240,0.0,99.0
13994,68.0,5,120,8.0,86.0
13995,66.0,1,240,12.0,79.0
13996,61.0,2,1065,6.0,93.0
13997,73.0,2,105,12.0,79.0
13998,61.0,1,1065,13.0,80.0
13999,78.0,115,120,7.0,79.0
14000,49.0,5,1065,14.0,87.0
14001,73.0,3,120,0.0,99.0
14002,66.0,1,1440,4.0,100.0
14003,66.0,4,120,8.0,82.0
14004,57.0,4,1440,3.0,98.0
14005,68.0,114,120,0.0,99.0
14006,68.0,3,120,2.0,90.0
14007,68.0,1,120,12.0,79.0
14008,65.0,1,240,8.0,79.0
14009,77.0,0,240,7.0,79.0
14010,61.0,113,120,2.0,90.0
14011,61.0,1,120,12.0,79.0
14012,80.0,111,120,7.0,94.0
14013,68.0,2,120,8.0,95.0
14014,53.0,6,120,2.0,90.0
14015,53.0,1,120,12.0,79.0
14016,49.0,1,585,6.0,86.0
14017,49.0,1,585,13.0,72.0
14018,37.0,1,585,14.0,79.0
14019,61.0,8,240,2.0,90.0
14020,61.0,1,240,12.0,79.0
14021,68.0,1,105,12.0,79.0
14022,54.0,236,120,6.0,79.0
14023,68.0,3,120,2.0,90.0
14024,54.0,1,120,13.0,66.0
14025,65.0,4,720,3.0,98.0
14026,56.0,0,720,3.0,98.0
14027,42.0,5,120,14.0,71.0
14028,69.0,3,120,2.0,90.0
14029,69.0,1,120,12.0,79.0
14030,61.0,113,120,2.0,90.0
14031,61.0,1,120,12.0,79.0
14032,53.0,119,120,2.0,90.0
14033,53.0,1,120,12.0,79.0
14034,53.0,110,480,6.0,79.0
14035,53.0,1,480,13.0,66.0
14036,41.0,5,480,14.0,72.0
14037,51.0,116,120,6.0,86.0
14038,61.0,119,240,2.0,90.0
14039,61.0,1,240,12.0,79.0
14040,51.0,5,120,13.0,72.0
14041,39.0,5,120,14.0,79.0
14042,70.0,1,105,12.0,76.0
14043,77.0,110,1080,8.0,102.0
14044,89.0,1,1080,7.0,108.0
14045,70.0,107,0,10.0,86.0
14046,49.0,3,120,6.0,86.0
14047,70.0,3,120,2.0,85.0
14048,49.0,1,120,13.0,72.0
14049,37.0,5,120,14.0,79.0
14050,70.0,2,120,12.0,76.0
14051,63.0,107,120,10.0,86.0
14052,78.0,1,240,7.0,71.0
14053,66.0,2,240,8.0,69.0
14054,63.0,7,120,12.0,76.0
14055,58.0,113,120,10.0,86.0
14056,82.0,1,120,7.0,91.0
14057,70.0,3,120,8.0,90.0
14058,48.0,2,585,6.0,86.0
14059,48.0,1,585,13.0,72.0
14060,36.0,5,585,14.0,79.0
14061,70.0,2,240,10.0,86.0
14062,58.0,3,360,12.0,76.0
14063,75.0,239,105,10.0,86.0
14064,63.0,4,105,12.0,76.0
14065,56.0,3,120,6.0,89.0
14066,56.0,1,120,13.0,76.0
14067,44.0,5,120,14.0,81.0
14068,70.0,107,120,10.0,86.0
14069,70.0,4,120,12.0,76.0
14070,63.0,107,120,10.0,86.0
14071,63.0,7,120,12.0,76.0
14072,60.0,113,120,10.0,86.0
14073,54.0,3,480,6.0,86.0
14074,54.0,1,480,13.0,72.0
14075,42.0,5,480,14.0,79.0
14076,90.0,111,960,7.0,97.0
14077,69.0,113,240,10.0,86.0
14078,78.0,1,960,8.0,82.0
14079,53.0,123,120,6.0,86.0
14080,53.0,5,120,13.0,72.0
14081,41.0,5,120,14.0,79.0
14082,77.0,107,105,10.0,86.0
14083,60.0,7,465,12.0,76.0
14084,51.0,3,120,6.0,86.0
14085,51.0,3,120,13.0,72.0
14086,39.0,5,120,14.0,79.0
14087,70.0,107,120,10.0,86.0
14088,58.0,4,120,12.0,76.0
14089,65.0,107,120,10.0,86.0
14090,50.0,1,240,6.0,86.0
14091,53.0,7,120,12.0,76.0
14092,50.0,1,240,13.0,72.0
14093,38.0,5,240,14.0,79.0
14094,62.0,113,120,10.0,86.0
14095,53.0,3,120,6.0,86.0
14096,50.0,4,120,12.0,76.0
14097,53.0,1,120,13.0,72.0
14098,41.0,5,120,14.0,79.0
14099,77.0,0,720,7.0,91.0
14100,70.0,107,240,10.0,86.0
14101,53.0,2,600,8.0,67.0
14102,65.0,2,720,8.0,80.0
14103,58.0,4,240,12.0,76.0
14104,77.0,2,105,10.0,86.0
14105,65.0,1,105,12.0,76.0
14106,83.0,225,120,7.0,88.0
14107,71.0,5,120,8.0,81.0
14108,59.0,1,120,8.0,81.0
14109,70.0,113,120,10.0,86.0
14110,58.0,0,120,12.0,76.0
14111,65.0,113,120,10.0,86.0
14112,53.0,7,120,12.0,76.0
14113,62.0,113,120,10.0,86.0
14114,62.0,3,720,6.0,86.0
14115,50.0,7,120,12.0,76.0
14116,62.0,1,720,13.0,72.0
14117,50.0,5,720,14.0,79.0
14118,82.0,2,480,7.0,88.0
14119,70.0,2,480,8.0,81.0
14120,58.0,3,480,8.0,87.0
14121,70.0,113,240,10.0,86.0
14122,80.0,108,120,7.0,84.0
14123,56.0,4,120,8.0,77.0
14124,68.0,2,120,8.0,80.0
14125,58.0,4,240,12.0,76.0
14126,77.0,113,105,10.0,86.0
14127,65.0,4,105,12.0,76.0
14128,54.0,0,120,8.0,80.0
14129,78.0,3,120,7.0,84.0
14130,66.0,0,120,8.0,80.0
14131,70.0,113,120,10.0,86.0
14132,58.0,2,120,12.0,76.0
14133,67.0,113,120,10.0,86.0
14134,55.0,7,120,12.0,76.0
14135,61.0,113,120,10.0,86.0
14136,61.0,3,720,6.0,86.0
14137,49.0,7,120,12.0,76.0
14138,61.0,1,720,13.0,72.0
14139,49.0,5,720,14.0,79.0
14140,70.0,113,240,10.0,86.0
14141,58.0,3,240,12.0,76.0
14142,77.0,228,105,10.0,86.0
14143,65.0,7,105,12.0,76.0
14144,77.0,3,720,7.0,89.0
14145,65.0,2,720,8.0,75.0
14146,53.0,0,720,8.0,77.0
14147,70.0,113,120,10.0,86.0
14148,58.0,4,120,12.0,76.0
14149,64.0,112,120,10.0,86.0
14150,52.0,7,120,12.0,76.0
14151,61.0,113,120,10.0,86.0
14152,67.0,4,720,1.0,112.0
14153,49.0,7,120,12.0,76.0
14154,67.0,1,720,13.0,100.0
14155,55.0,4,720,3.0,98.0
14156,70.0,113,240,10.0,86.0
14157,58.0,3,240,12.0,76.0
14158,76.0,228,105,10.0,86.0
14159,64.0,7,105,12.0,76.0
14160,76.0,1,720,7.0,66.0
14161,64.0,2,720,8.0,56.0
14162,52.0,1,720,8.0,56.0
14163,76.0,113,120,10.0,86.0
14164,64.0,4,120,12.0,76.0
14165,70.0,113,120,10.0,86.0
14166,58.0,7,120,12.0,76.0
14167,66.0,113,120,10.0,86.0
14168,66.0,4,720,1.0,112.0
14169,54.0,7,120,12.0,76.0
14170,66.0,1,720,13.0,100.0
14171,54.0,4,720,3.0,98.0
14172,76.0,113,240,10.0,86.0
14173,64.0,3,240,12.0,76.0
14174,78.0,228,105,10.0,86.0
14175,66.0,7,105,12.0,76.0
14176,74.0,0,720,8.0,80.0
14177,86.0,0,720,7.0,93.0
14178,62.0,3,720,8.0,82.0
14179,76.0,1,120,10.0,86.0
14180,64.0,4,120,12.0,76.0
14181,73.0,113,120,10.0,86.0
14182,61.0,7,120,12.0,76.0
14183,66.0,113,120,10.0,86.0
14184,71.0,4,720,1.0,112.0
14185,54.0,7,120,12.0,76.0
14186,71.0,1,720,13.0,100.0
14187,59.0,4,720,3.0,98.0
14188,76.0,113,240,10.0,86.0
14189,64.0,3,240,12.0,76.0
14190,85.0,228,105,10.0,86.0
14191,73.0,7,105,12.0,76.0
14192,73.0,112,720,8.0,59.0
14193,61.0,0,720,8.0,59.0
14194,85.0,3,720,7.0,68.0
14195,70.0,4,360,1.0,112.0
14196,70.0,1,360,13.0,100.0
14197,58.0,4,360,3.0,98.0
14198,66.0,117,120,10.0,83.0
14199,54.0,7,120,12.0,83.0
14200,70.0,113,120,10.0,100.0
14201,58.0,7,120,12.0,100.0
14202,73.0,113,120,10.0,100.0
14203,61.0,7,120,12.0,100.0
14204,77.0,113,120,10.0,100.0
14205,65.0,7,120,12.0,100.0
14206,78.0,113,105,10.0,100.0
14207,64.0,113,705,8.0,46.0
14208,76.0,1,705,8.0,52.0
14209,88.0,2,705,7.0,77.0
14210,66.0,7,105,12.0,100.0
14211,42.0,0,30,8.0,102.0
14212,46.0,58,30,8.0,103.0
14213,42.0,4,120,13.0,100.0
14214,30.0,5,120,14.0,100.0
14215,49.0,59,30,8.0,96.0
14216,53.0,58,30,8.0,102.0
14217,76.0,112,240,7.0,127.0
14218,67.0,2,240,7.0,117.0
14219,74.0,49,30,7.0,109.0
14220,66.0,4,30,7.0,103.0
14221,73.0,50,30,7.0,111.0
14222,64.0,6,30,7.0,102.0
14223,67.0,3,350,4.0,100.0
14224,64.0,0,350,4.0,100.0
14225,73.0,54,60,7.0,113.0
14226,64.0,6,60,7.0,102.0
14227,74.0,51,45,7.0,110.0
14228,66.0,3,45,7.0,103.0
14229,71.0,57,105,7.0,109.0
14230,62.0,8,105,7.0,106.0
14231,54.0,5,345,8.0,109.0
14232,62.0,0,240,4.0,100.0
14233,66.0,2,240,4.0,100.0
14234,42.0,0,30,8.0,107.0
14235,30.0,4,30,8.0,107.0
14236,34.0,58,30,8.0,96.0
14237,46.0,2,30,8.0,103.0
14238,37.0,3,30,8.0,102.0
14239,49.0,3,30,8.0,102.0
14240,53.0,53,30,8.0,106.0
14241,41.0,5,30,8.0,106.0
14242,54.0,1,120,13.0,100.0
14243,42.0,2,120,14.0,100.0
14244,88.0,112,345,7.0,118.0
14245,79.0,6,345,7.0,109.0
14246,76.0,0,345,7.0,107.0
14247,86.0,108,30,7.0,109.0
14248,74.0,3,30,7.0,102.0
14249,78.0,2,30,7.0,103.0
14250,85.0,59,30,7.0,109.0
14251,73.0,2,30,7.0,103.0
14252,76.0,2,30,7.0,96.0
14253,55.0,5,465,8.0,109.0
14254,64.0,0,465,8.0,109.0
14255,85.0,57,60,7.0,113.0
14256,76.0,0,60,7.0,107.0
14257,73.0,1,60,7.0,101.0
14258,52.0,0,60,8.0,106.0
14259,61.0,9,60,8.0,101.0
14260,86.0,50,45,7.0,111.0
14261,74.0,2,45,7.0,103.0
14262,78.0,1,45,7.0,102.0
14263,54.0,4,45,8.0,96.0
14264,62.0,4,45,8.0,97.0
14265,42.0,1,360,8.0,102.0
14266,76.0,48,30,7.0,101.0
14267,88.0,1,30,7.0,113.0
14268,79.0,1,30,7.0,102.0
14269,64.0,6,30,8.0,101.0
14270,55.0,4,30,8.0,102.0
14271,90.0,44,30,7.0,109.0
14272,81.0,5,30,7.0,102.0
14273,78.0,2,30,7.0,103.0
14274,57.0,4,30,8.0,102.0
14275,66.0,5,30,8.0,103.0
14276,69.0,6,105,8.0,102.0
14277,61.0,1,105,8.0,102.0
14278,85.0,48,120,7.0,103.0
14279,93.0,1,120,7.0,109.0
14280,81.0,1,120,7.0,102.0
14281,42.0,6,30,13.0,100.0
14282,30.0,2,30,14.0,100.0
14283,49.0,55,30,13.0,100.0
14284,37.0,5,30,14.0,100.0
14285,53.0,55,30,13.0,100.0
14286,41.0,5,30,14.0,100.0
14287,54.0,55,30,13.0,100.0
14288,42.0,5,30,14.0,100.0
14289,91.0,109,240,7.0,113.0
14290,79.0,3,240,7.0,102.0
14291,83.0,2,240,7.0,102.0
14292,59.0,1,240,8.0,106.0
14293,67.0,2,240,8.0,102.0
14294,58.0,6,30,13.0,100.0
14295,46.0,2,30,14.0,100.0
14296,61.0,55,30,13.0,100.0
14297,49.0,5,30,14.0,100.0
14298,90.0,46,105,7.0,109.0
14299,82.0,2,105,7.0,97.0
14300,78.0,1,105,7.0,106.0
14301,54.0,0,1070,4.0,100.0
14302,66.0,54,1070,4.0,100.0
14303,58.0,3,105,8.0,102.0
14304,66.0,0,105,8.0,103.0
14305,54.0,0,360,8.0,101.0
14306,66.0,0,30,7.0,117.0
14307,54.0,45,30,7.0,101.0
14308,42.0,2,30,8.0,106.0
14309,73.0,45,30,7.0,109.0
14310,61.0,2,30,7.0,103.0
14311,49.0,7,30,8.0,96.0
14312,65.0,0,30,7.0,101.0
14313,77.0,52,30,7.0,101.0
14314,53.0,12,30,8.0,102.0
14315,78.0,48,30,7.0,103.0
14316,66.0,1,30,7.0,103.0
14317,54.0,10,30,8.0,96.0
14318,76.0,2,225,10.0,115.0
14319,67.0,2,225,11.0,115.0
14320,82.0,45,30,7.0,113.0
14321,70.0,3,30,7.0,106.0
14322,74.0,2,30,10.0,100.0
14323,66.0,2,30,11.0,100.0
14324,58.0,7,30,8.0,101.0
14325,85.0,48,30,7.0,109.0
14326,73.0,3,30,10.0,100.0
14327,73.0,2,30,7.0,103.0
14328,64.0,0,30,11.0,100.0
14329,61.0,8,30,8.0,102.0
14330,54.0,2,345,13.0,120.0
14331,42.0,1,345,14.0,120.0
14332,82.0,0,360,1.0,112.0
14333,70.0,0,360,1.0,112.0
14334,58.0,4,360,3.0,98.0
14335,78.0,48,30,7.0,106.0
14336,90.0,2,30,7.0,113.0
14337,66.0,2,30,8.0,101.0
14338,73.0,0,60,10.0,100.0
14339,64.0,2,60,11.0,100.0
14340,86.0,46,30,7.0,110.0
14341,74.0,0,30,7.0,102.0
14342,62.0,6,30,8.0,96.0
14343,74.0,1,45,10.0,100.0
14344,66.0,2,45,11.0,100.0
14345,71.0,50,30,7.0,101.0
14346,83.0,1,30,7.0,113.0
14347,59.0,9,30,8.0,101.0
14348,78.0,48,30,7.0,109.0
14349,66.0,0,30,7.0,103.0
14350,54.0,7,30,8.0,102.0
14351,71.0,1,105,10.0,100.0
14352,62.0,2,105,11.0,100.0
14353,47.0,2,225,13.0,100.0
14354,35.0,1,225,14.0,100.0
14355,83.0,0,240,1.0,97.0
14356,66.0,2,600,4.0,100.0
14357,54.0,0,600,4.0,100.0
14358,71.0,2,240,1.0,97.0
14359,59.0,4,240,3.0,98.0
14360,74.0,53,30,7.0,113.0
14361,71.0,1,30,10.0,100.0
14362,59.0,0,30,11.0,100.0
14363,62.0,2,30,7.0,102.0
14364,47.0,0,30,13.0,100.0
14365,50.0,6,30,8.0,106.0
14366,35.0,5,30,14.0,100.0
14367,73.0,42,30,7.0,111.0
14368,74.0,5,30,10.0,100.0
14369,62.0,2,30,11.0,100.0
14370,61.0,1,30,7.0,103.0
14371,49.0,4,30,8.0,102.0
14372,50.0,1,30,13.0,100.0
14373,38.0,5,30,14.0,100.0
14374,71.0,44,30,7.0,113.0
14375,78.0,3,30,10.0,100.0
14376,59.0,1,30,7.0,107.0
14377,66.0,1,30,11.0,100.0
14378,47.0,4,30,8.0,106.0
14379,54.0,2,30,13.0,100.0
14380,42.0,5,30,14.0,100.0
14381,82.0,47,30,10.0,100.0
14382,74.0,0,30,7.0,110.0
14383,62.0,1,30,7.0,102.0
14384,70.0,1,30,11.0,100.0
14385,58.0,6,30,13.0,100.0
14386,50.0,1,30,8.0,103.0
14387,46.0,4,30,14.0,100.0
14388,78.0,0,30,7.0,113.0
14389,66.0,0,30,7.0,101.0
14390,54.0,2,30,8.0,107.0
14391,83.0,44,30,7.0,109.0
14392,71.0,6,30,7.0,106.0
14393,59.0,4,30,8.0,102.0
14394,83.0,47,120,10.0,100.0
14395,71.0,2,120,11.0,100.0
14396,59.0,6,120,13.0,100.0
14397,47.0,3,120,14.0,100.0
14398,35.0,1,45,8.0,111.0
14399,47.0,2,45,8.0,110.0
14400,54.0,54,45,8.0,106.0
14401,42.0,4,45,8.0,106.0
14402,87.0,110,120,10.0,100.0
14403,75.0,2,120,11.0,100.0
14404,54.0,2,120,4.0,100.0
14405,66.0,0,120,4.0,100.0
14406,59.0,4,120,13.0,100.0
14407,47.0,1,120,14.0,100.0
14408,46.0,55,45,8.0,102.0
14409,58.0,2,45,8.0,102.0
14410,93.0,0,345,7.0,123.0
14411,84.0,52,345,7.0,111.0
14412,81.0,4,345,7.0,111.0
14413,59.0,59,45,8.0,103.0
14414,47.0,1,45,8.0,96.0
14415,60.0,6,345,8.0,111.0
14416,69.0,1,345,8.0,111.0
14417,91.0,50,30,7.0,113.0
14418,83.0,0,30,7.0,101.0
14419,79.0,3,30,7.0,102.0
14420,54.0,5,45,8.0,101.0
14421,66.0,1,45,8.0,102.0
14422,90.0,51,30,7.0,109.0
14423,78.0,3,30,7.0,103.0
14424,81.0,2,30,7.0,102.0
14425,70.0,4,45,8.0,97.0
14426,58.0,4,45,8.0,96.0
14427,59.0,1,345,3.0,113.0
14428,47.0,0,345,3.0,113.0
14429,59.0,0,45,8.0,97.0
14430,71.0,1,45,8.0,106.0
14431,81.0,47,60,7.0,96.0
14432,78.0,1,60,7.0,103.0
14433,90.0,0,60,7.0,109.0
14434,91.0,43,45,7.0,109.0
14435,83.0,2,45,7.0,103.0
14436,79.0,5,45,7.0,106.0
14437,67.0,4,45,8.0,102.0
14438,55.0,4,45,8.0,96.0
14439,88.0,1,120,10.0,100.0
14440,76.0,2,120,11.0,100.0
14441,64.0,2,120,4.0,100.0
14442,52.0,4,120,13.0,100.0
14443,40.0,1,120,14.0,100.0
14444,64.0,11,45,8.0,101.0
14445,52.0,1,45,8.0,107.0
14446,47.0,0,45,8.0,102.0
14447,59.0,59,45,8.0,102.0
14448,76.0,46,2,7.0,113.0
14449,88.0,47,120,7.0,109.0
14450,79.0,1,120,7.0,96.0
14451,64.0,6,30,7.0,107.0
14452,43.0,4,45,8.0,102.0
14453,55.0,0,45,8.0,96.0
14454,67.0,52,30,7.0,102.0
14455,79.0,0,30,7.0,109.0
14456,42.0,12,45,8.0,106.0
14457,54.0,1,45,8.0,103.0
14458,52.0,3,345,3.0,113.0
14459,83.0,48,30,7.0,109.0
14460,71.0,2,30,7.0,103.0
14461,52.0,3,30,8.0,106.0
14462,40.0,1,30,8.0,101.0
14463,87.0,45,30,7.0,109.0
14464,75.0,5,30,7.0,106.0
14465,55.0,7,30,8.0,96.0
14466,43.0,1,30,8.0,103.0
14467,47.0,6,30,8.0,103.0
14468,59.0,2,30,8.0,102.0
14469,88.0,47,60,7.0,111.0
14470,76.0,4,60,7.0,106.0
14471,51.0,58,30,8.0,102.0
14472,63.0,1,30,8.0,103.0
14473,76.0,50,30,7.0,113.0
14474,64.0,3,30,7.0,102.0
14475,52.0,7,60,8.0,103.0
14476,64.0,0,60,8.0,96.0
14477,79.0,0,30,7.0,110.0
14478,67.0,51,30,7.0,102.0
14479,83.0,57,30,7.0,110.0
14480,71.0,4,30,7.0,103.0
14481,40.0,6,30,8.0,102.0
14482,52.0,2,30,8.0,102.0
14483,87.0,47,30,7.0,111.0
14484,75.0,3,30,7.0,96.0
14485,43.0,10,30,8.0,106.0
14486,55.0,1,30,8.0,103.0
14487,64.0,3,480,4.0,100.0
14488,47.0,3,30,8.0,96.0
14489,59.0,2,30,8.0,106.0
14490,88.0,51,60,7.0,109.0
14491,76.0,3,60,7.0,102.0
14492,52.0,62,30,8.0,103.0
14493,64.0,1,30,8.0,103.0
14494,40.0,2,600,3.0,98.0
14495,77.0,46,30,7.0,117.0
14496,65.0,2,30,7.0,102.0
14497,65.0,0,60,8.0,103.0
14498,53.0,10,60,8.0,103.0
14499,79.0,46,30,7.0,109.0
14500,67.0,2,30,7.0,102.0
14501,83.0,0,705,0.0,99.0
14502,71.0,0,705,1.0,97.0
14503,67.0,0,705,1.0,97.0
14504,55.0,0,705,2.0,97.0
14505,79.0,2,705,2.0,97.0
14506,59.0,0,705,3.0,98.0
14507,41.0,3,105,3.0,98.0
14508,50.0,1,15,15.0,49.0
14509,83.0,60,30,7.0,109.0
14510,71.0,0,30,7.0,103.0
14511,53.0,2,30,8.0,106.0
14512,41.0,3,30,8.0,102.0
14513,50.0,16,15,15.0,52.0
14514,50.0,2,1,15.0,52.0
14515,86.0,12,30,7.0,110.0
14516,74.0,1,30,7.0,106.0
14517,50.0,12,3,15.0,53.0
14518,43.0,8,30,8.0,97.0
14519,55.0,2,30,8.0,102.0
14520,50.0,0,3,15.0,52.0
14521,50.0,5,1,15.0,52.0
14522,47.0,0,30,8.0,97.0
14523,59.0,9,30,8.0,103.0
14524,50.0,15,15,15.0,52.0
14525,89.0,11,60,7.0,109.0
14526,77.0,1,60,7.0,102.0
14527,50.0,10,5,15.0,52.0
14528,50.0,2,0,15.0,53.0
14529,62.0,12,30,8.0,96.0
14530,50.0,1,30,8.0,96.0
14531,50.0,18,15,15.0,55.0
14532,50.0,0,3,15.0,56.0
14533,77.0,12,30,7.0,113.0
14534,65.0,1,30,7.0,101.0
14535,50.0,13,2,15.0,59.0
14536,50.0,1,1,15.0,57.0
14537,65.0,8,60,8.0,96.0
14538,53.0,2,60,8.0,97.0
14539,79.0,11,30,7.0,109.0
14540,67.0,2,30,7.0,103.0
14541,50.0,17,15,15.0,59.0
14542,50.0,13,2,15.0,57.0
14543,50.0,2,1,15.0,59.0
14544,83.0,12,30,7.0,111.0
14545,71.0,2,30,7.0,103.0
14546,50.0,14,1,15.0,62.0
14547,53.0,5,30,8.0,101.0
14548,41.0,4,30,8.0,101.0
14549,50.0,3,2,15.0,60.0
14550,50.0,3,2,15.0,62.0
14551,86.0,10,30,7.0,109.0
14552,74.0,1,30,7.0,96.0
14553,59.0,5,30,8.0,97.0
14554,47.0,4,30,8.0,102.0
14555,50.0,12,3,15.0,62.0
14556,50.0,2,4,15.0,66.0
14557,62.0,3,30,8.0,103.0
14558,50.0,5,30,8.0,103.0
14559,50.0,16,15,15.0,63.0
14560,89.0,14,60,7.0,110.0
14561,50.0,17,15,15.0,66.0
14562,77.0,1,60,7.0,106.0
14563,50.0,8,3,15.0,66.0
14564,53.0,3,30,8.0,96.0
14565,65.0,1,30,8.0,97.0
14566,50.0,13,2,15.0,67.0
14567,41.0,0,600,3.0,98.0
14568,50.0,4,1,15.0,66.0
14569,78.0,11,30,7.0,113.0
14570,66.0,6,30,7.0,101.0
14571,50.0,14,1,15.0,69.0
14572,50.0,0,3,15.0,69.0
14573,54.0,4,60,8.0,97.0
14574,66.0,2,60,8.0,102.0
14575,83.0,10,30,7.0,109.0
14576,71.0,2,30,7.0,96.0
14577,50.0,17,15,15.0,70.0
14578,50.0,16,15,15.0,70.0
14579,86.0,1,705,0.0,99.0
14580,83.0,0,705,0.0,99.0
14581,71.0,0,705,1.0,97.0
14582,67.0,0,705,1.0,97.0
14583,55.0,0,705,2.0,97.0
14584,79.0,2,705,2.0,97.0
14585,42.0,4,105,3.0,98.0
14586,59.0,1,705,3.0,98.0
14587,50.0,4,3,15.0,72.0
14588,62.0,0,720,4.0,100.0
14589,85.0,8,30,7.0,109.0
14590,50.0,3,15,15.0,70.0
14591,73.0,2,30,7.0,97.0
14592,42.0,0,30,8.0,102.0
14593,54.0,2,30,8.0,101.0
14594,50.0,11,4,15.0,72.0
14595,50.0,3,0,15.0,72.0
14596,86.0,12,30,7.0,109.0
14597,74.0,3,30,7.0,102.0
14598,50.0,13,2,15.0,70.0
14599,47.0,7,30,8.0,96.0
14600,59.0,1,30,8.0,103.0
14601,50.0,0,5,15.0,72.0
14602,50.0,12,3,15.0,71.0
14603,61.0,8,30,8.0,97.0
14604,49.0,1,30,8.0,96.0
14605,90.0,10,60,7.0,109.0
14606,78.0,2,60,7.0,106.0
14607,50.0,11,4,15.0,72.0
14608,50.0,12,3,15.0,72.0
14609,50.0,13,30,8.0,106.0
14610,62.0,0,30,8.0,103.0
14611,50.0,4,0,15.0,72.0
14612,50.0,2,4,15.0,72.0
14613,78.0,10,30,7.0,113.0
14614,66.0,1,30,7.0,107.0
14615,50.0,13,2,15.0,73.0
14616,50.0,1,1,15.0,72.0
14617,54.0,8,60,8.0,102.0
14618,66.0,1,60,8.0,103.0
14619,83.0,13,30,7.0,109.0
14620,71.0,2,30,7.0,106.0
14621,50.0,13,2,15.0,72.0
14622,50.0,14,1,15.0,72.0
14623,50.0,4,3,15.0,72.0
14624,85.0,11,30,7.0,109.0
14625,73.0,0,30,7.0,106.0
14626,54.0,8,30,8.0,107.0
14627,42.0,0,30,8.0,101.0
14628,50.0,14,1,15.0,74.0
14629,50.0,4,3,15.0,74.0
14630,86.0,8,30,7.0,111.0
14631,74.0,3,30,7.0,97.0
14632,50.0,13,2,15.0,76.0
14633,47.0,4,30,8.0,106.0
14634,59.0,2,30,8.0,97.0
14635,50.0,12,3,15.0,76.0
14636,50.0,3,15,15.0,72.0
14637,50.0,8,15,15.0,72.0
14638,61.0,5,30,8.0,103.0
14639,49.0,2,30,8.0,102.0
14640,50.0,13,2,15.0,73.0
14641,78.0,0,60,7.0,106.0
14642,90.0,15,60,7.0,109.0
14643,50.0,6,5,15.0,76.0
14644,50.0,3,30,8.0,97.0
14645,62.0,1,30,8.0,106.0
14646,50.0,16,15,15.0,76.0
14647,83.0,0,585,0.0,99.0
14648,90.0,2,585,0.0,99.0
14649,71.0,0,585,1.0,97.0
14650,66.0,0,585,1.0,97.0
14651,54.0,0,585,2.0,97.0
14652,78.0,2,585,2.0,97.0
14653,42.0,0,585,3.0,98.0
14654,59.0,4,585,3.0,98.0
14655,50.0,0,1,15.0,76.0
14656,62.0,0,1320,6.0,125.0
14657,74.0,2,1320,6.0,125.0
14658,54.0,1,600,4.0,100.0
14659,50.0,1,1320,4.0,100.0
14660,90.0,12,60,7.0,113.0
14661,78.0,2,60,7.0,107.0
14662,83.0,0,60,0.0,99.0
14663,83.0,3,60,7.0,102.0
14664,90.0,0,60,0.0,99.0
14665,66.0,3,60,1.0,97.0
14666,71.0,0,60,2.0,97.0
14667,78.0,2,60,2.0,97.0
14668,38.0,3,60,8.0,101.0
14669,50.0,1,60,8.0,101.0
14670,50.0,0,60,3.0,98.0
14671,59.0,2,60,3.0,98.0
14672,91.0,105,48,7.0,117.0
14673,79.0,0,48,7.0,117.0
14674,83.0,1,48,7.0,117.0
14675,37.0,1,48,8.0,116.0
14676,49.0,1,48,8.0,116.0
14677,88.0,0,60,0.0,99.0
14678,91.0,3,60,0.0,99.0
14679,76.0,2,60,6.0,105.0
14680,64.0,0,60,4.0,100.0
14681,64.0,1,60,1.0,97.0
14682,67.0,0,60,1.0,97.0
14683,76.0,0,60,2.0,97.0
14684,79.0,2,60,2.0,97.0
14685,47.0,4,60,3.0,98.0
14686,59.0,0,60,3.0,98.0
14687,82.0,344,48,7.0,118.0
14688,73.0,1,48,7.0,116.0
14689,70.0,1,48,7.0,118.0
14690,54.0,0,48,8.0,117.0
14691,42.0,1,48,8.0,116.0
14692,90.0,3,60,0.0,99.0
14693,85.0,0,60,0.0,99.0
14694,66.0,2,60,6.0,105.0
14695,78.0,0,60,6.0,105.0
14696,54.0,0,60,4.0,100.0
14697,70.0,0,60,1.0,97.0
14698,66.0,1,60,4.0,100.0
14699,64.0,0,60,1.0,97.0
14700,76.0,0,60,2.0,97.0
14701,82.0,1,60,2.0,97.0
14702,42.0,0,60,3.0,98.0
14703,54.0,6,60,3.0,98.0
14704,90.0,349,31,7.0,89.0
14705,87.0,15,31,7.0,75.0
14706,47.0,3,60,8.0,73.0
14707,83.0,30,31,7.0,76.0
14708,87.0,35,15,7.0,74.0
14709,59.0,4,120,13.0,52.0
14710,47.0,5,120,14.0,52.0
14711,78.0,31,31,7.0,79.0
14712,66.0,3,30,12.0,56.0
14713,75.0,26,31,7.0,72.0
14714,71.0,33,31,7.0,71.0
14715,75.0,26,15,7.0,69.0
14716,66.0,30,31,7.0,75.0
14717,63.0,5,30,12.0,56.0
14718,63.0,23,31,7.0,68.0
14719,59.0,31,31,7.0,66.0
14720,59.0,6,30,12.0,56.0
14721,63.0,26,15,7.0,67.0
14722,68.0,22,30,7.0,71.0
14723,56.0,4,30,7.0,72.0
14724,44.0,1,30,8.0,71.0
14725,71.0,1,60,12.0,56.0
14726,63.0,45,30,7.0,78.0
14727,75.0,2,30,7.0,77.0
14728,51.0,6,30,8.0,78.0
14729,80.0,2,120,1.0,97.0
14730,71.0,2,120,2.0,97.0
14731,56.0,0,120,13.0,52.0
14732,63.0,0,120,3.0,98.0
14733,59.0,4,120,3.0,98.0
14734,44.0,1,120,14.0,52.0
14735,79.0,49,30,7.0,78.0
14736,67.0,3,30,7.0,77.0
14737,55.0,8,30,8.0,77.0
14738,80.0,54,30,7.0,78.0
14739,68.0,2,30,7.0,77.0
14740,56.0,5,30,8.0,78.0
14741,80.0,1,220,10.0,110.0
14742,68.0,2,220,11.0,100.0
14743,83.0,48,30,7.0,77.0
14744,71.0,0,30,7.0,77.0
14745,59.0,5,30,8.0,78.0
14746,78.0,5,60,10.0,121.0
14747,66.0,2,60,11.0,110.0
14748,87.0,49,30,7.0,77.0
14749,75.0,3,30,7.0,77.0
14750,63.0,6,30,8.0,77.0
14751,77.0,1,40,10.0,110.0
14752,65.0,2,40,11.0,100.0
14753,90.0,0,31,7.0,76.0
14754,78.0,52,31,7.0,72.0
14755,77.0,0,60,10.0,121.0
14756,65.0,2,60,11.0,110.0
14757,85.0,19,31,7.0,62.0
14758,58.0,0,60,8.0,65.0
14759,66.0,1,60,8.0,63.0
14760,61.0,2,60,8.0,65.0
14761,82.0,1,31,7.0,66.0
14762,78.0,28,40,10.0,110.0
14763,66.0,1,40,11.0,100.0
14764,85.0,30,15,7.0,66.0
14765,73.0,2,120,1.0,97.0
14766,73.0,2,120,2.0,97.0
14767,58.0,2,120,13.0,52.0
14768,58.0,0,120,3.0,98.0
14769,66.0,1,120,3.0,98.0
14770,46.0,1,120,14.0,52.0
14771,78.0,3,31,7.0,68.0
14772,61.0,2,30,12.0,56.0
14773,73.0,30,31,7.0,63.0
14774,70.0,30,31,7.0,63.0
14775,73.0,27,15,7.0,63.0
14776,73.0,28,120,10.0,86.0
14777,61.0,2,120,11.0,80.0
14778,66.0,24,31,7.0,72.0
14779,58.0,9,30,12.0,56.0
14780,61.0,23,31,7.0,66.0
14781,58.0,28,31,7.0,62.0
14782,54.0,9,30,12.0,56.0
14783,61.0,21,15,7.0,66.0
14784,66.0,30,30,7.0,72.0
14785,54.0,1,30,7.0,70.0
14786,42.0,2,30,8.0,68.0
14787,66.0,1,60,12.0,56.0
14788,73.0,43,30,7.0,73.0
14789,61.0,6,30,7.0,79.0
14790,49.0,5,30,8.0,73.0
14791,78.0,2,120,1.0,97.0
14792,69.0,2,120,2.0,97.0
14793,54.0,1,120,13.0,52.0
14794,61.0,0,120,3.0,98.0
14795,57.0,2,120,3.0,98.0
14796,42.0,1,120,14.0,52.0
14797,77.0,49,30,7.0,79.0
14798,65.0,7,30,7.0,78.0
14799,53.0,8,30,8.0,79.0
14800,78.0,48,30,7.0,78.0
14801,66.0,1,30,7.0,77.0
14802,54.0,9,30,8.0,78.0
14803,78.0,2,220,10.0,110.0
14804,66.0,1,220,11.0,100.0
14805,81.0,47,30,7.0,79.0
14806,69.0,3,30,7.0,79.0
14807,57.0,4,30,8.0,80.0
14808,76.0,1,60,10.0,121.0
14809,64.0,2,60,11.0,110.0
14810,85.0,49,30,7.0,79.0
14811,73.0,1,30,7.0,80.0
14812,61.0,7,30,8.0,79.0
14813,75.0,5,40,10.0,110.0
14814,63.0,1,40,11.0,100.0
14815,76.0,49,31,7.0,72.0
14816,88.0,1,31,7.0,76.0
14817,75.0,2,60,10.0,121.0
14818,63.0,1,60,11.0,110.0
14819,83.0,20,31,7.0,66.0
14820,59.0,2,60,8.0,63.0
14821,64.0,0,60,8.0,63.0
14822,56.0,3,60,8.0,63.0
14823,80.0,25,31,7.0,63.0
14824,76.0,2,40,10.0,110.0
14825,64.0,2,40,11.0,100.0
14826,83.0,31,15,7.0,66.0
14827,71.0,2,120,1.0,97.0
14828,71.0,2,120,2.0,97.0
14829,56.0,0,120,13.0,52.0
14830,59.0,1,120,3.0,98.0
14831,56.0,0,120,3.0,98.0
14832,44.0,1,120,14.0,52.0
14833,59.0,5,30,12.0,56.0
14834,76.0,0,31,7.0,68.0
14835,71.0,28,31,7.0,66.0
14836,68.0,32,31,7.0,66.0
14837,71.0,26,15,7.0,62.0
14838,71.0,27,120,10.0,86.0
14839,59.0,2,120,11.0,80.0
14840,64.0,25,31,7.0,72.0
14841,56.0,9,30,12.0,56.0
14842,59.0,23,31,7.0,63.0
14843,56.0,30,31,7.0,62.0
14844,52.0,7,30,12.0,56.0
14845,59.0,26,15,7.0,63.0
14846,64.0,26,30,7.0,68.0
14847,52.0,1,30,7.0,72.0
14848,40.0,1,30,8.0,70.0
14849,64.0,1,60,12.0,56.0
14850,71.0,43,30,7.0,77.0
14851,59.0,5,30,7.0,78.0
14852,47.0,7,30,8.0,77.0
14853,76.0,2,120,1.0,97.0
14854,67.0,2,120,2.0,97.0
14855,52.0,1,120,13.0,52.0
14856,55.0,3,120,3.0,98.0
14857,59.0,0,120,3.0,98.0
14858,40.0,1,120,14.0,52.0
14859,75.0,49,30,7.0,78.0
14860,63.0,4,30,7.0,77.0
14861,51.0,6,30,8.0,78.0
14862,76.0,52,30,7.0,80.0
14863,64.0,1,30,7.0,79.0
14864,76.0,1,220,10.0,110.0
14865,52.0,11,30,8.0,80.0
14866,64.0,1,220,11.0,100.0
14867,79.0,44,30,7.0,80.0
14868,67.0,1,30,7.0,78.0
14869,59.0,5,30,12.0,56.0
14870,55.0,3,30,8.0,79.0
14871,74.0,5,60,10.0,110.0
14872,62.0,1,60,11.0,100.0
14873,83.0,46,30,7.0,79.0
14874,71.0,1,30,7.0,79.0
14875,55.0,5,30,12.0,56.0
14876,73.0,4,40,10.0,110.0
14877,59.0,3,30,8.0,79.0
14878,61.0,1,40,11.0,100.0
14879,86.0,48,31,7.0,85.0
14880,83.0,15,31,7.0,73.0
14881,73.0,2,60,10.0,110.0
14882,61.0,2,60,11.0,100.0
14883,67.0,1,60,12.0,56.0
14884,67.0,0,60,8.0,68.0
14885,55.0,2,60,8.0,70.0
14886,77.0,1,31,7.0,73.0
14887,83.0,29,15,7.0,73.0
14888,74.0,32,60,10.0,110.0
14889,62.0,2,60,11.0,100.0
14890,55.0,1,120,13.0,52.0
14891,43.0,1,120,14.0,52.0
14892,74.0,2,31,7.0,79.0
14893,76.0,28,60,10.0,110.0
14894,64.0,2,60,11.0,100.0
14895,71.0,30,31,7.0,73.0
14896,65.0,5,31,7.0,69.0
14897,71.0,28,15,7.0,69.0
14898,77.0,26,60,10.0,110.0
14899,65.0,2,60,11.0,100.0
14900,71.0,0,240,1.0,97.0
14901,67.0,2,240,2.0,97.0
14902,62.0,0,31,7.0,74.0
14903,59.0,25,31,7.0,72.0
14904,53.0,27,31,7.0,68.0
14905,84.0,25,105,10.0,110.0
14906,59.0,34,15,7.0,72.0
14907,72.0,2,105,11.0,100.0
14908,77.0,2,110,1.0,97.0
14909,74.0,2,110,2.0,97.0
14910,74.0,1,31,7.0,74.0
14911,71.0,29,31,7.0,72.0
14912,65.0,31,31,7.0,72.0
14913,71.0,26,15,7.0,73.0
14914,62.0,26,31,7.0,75.0
14915,59.0,33,31,7.0,73.0
14916,53.0,27,31,7.0,73.0
14917,59.0,35,15,7.0,72.0
14918,83.0,28,240,10.0,110.0
14919,71.0,2,240,11.0,100.0
14920,55.0,4,31,7.0,74.0
14921,50.0,28,31,7.0,73.0
14922,43.0,31,31,7.0,72.0
14923,81.0,27,105,10.0,110.0
14924,69.0,2,105,11.0,100.0
14925,55.0,27,15,7.0,69.0
14926,77.0,2,350,1.0,97.0
14927,74.0,1,350,2.0,97.0
14928,65.0,0,720,4.0,100.0
14929,62.0,2,720,4.0,100.0
14930,67.0,0,720,3.0,98.0
14931,55.0,4,0,3.0,98.0
14932,91.0,27,31,7.0,76.0
14933,88.0,20,31,7.0,66.0
14934,84.0,26,31,7.0,66.0
14935,88.0,31,15,7.0,63.0
14936,79.0,1,120,10.0,83.0
14937,67.0,2,120,11.0,76.0
14938,76.0,2,120,1.0,97.0
14939,64.0,0,120,4.0,100.0
14940,76.0,2,120,2.0,97.0
14941,60.0,2,120,13.0,52.0
14942,60.0,0,120,3.0,98.0
14943,48.0,1,120,14.0,52.0
14944,67.0,0,30,12.0,56.0
14945,79.0,37,31,7.0,72.0
14946,76.0,28,31,7.0,62.0
14947,72.0,29,31,7.0,66.0
14948,76.0,33,15,7.0,66.0
14949,67.0,22,31,7.0,72.0
14950,64.0,8,30,12.0,56.0
14951,64.0,22,31,7.0,63.0
14952,60.0,34,31,7.0,62.0
14953,60.0,4,30,12.0,56.0
14954,64.0,26,15,7.0,62.0
14955,69.0,23,30,7.0,71.0
14956,57.0,2,30,7.0,70.0
14957,45.0,1,30,8.0,70.0
14958,72.0,0,60,12.0,56.0
14959,76.0,0,30,7.0,77.0
14960,64.0,46,30,7.0,77.0
14961,52.0,7,30,8.0,78.0
14962,81.0,2,120,1.0,97.0
14963,72.0,2,120,2.0,97.0
14964,57.0,1,120,13.0,52.0
14965,60.0,0,120,3.0,98.0
14966,64.0,4,120,3.0,98.0
14967,45.0,1,120,14.0,52.0
14968,80.0,49,30,7.0,77.0
14969,68.0,3,30,7.0,77.0
14970,56.0,9,30,8.0,78.0
14971,81.0,49,30,7.0,78.0
14972,69.0,2,30,7.0,79.0
14973,57.0,9,30,8.0,77.0
14974,81.0,2,220,10.0,110.0
14975,69.0,2,220,11.0,100.0
14976,84.0,49,30,7.0,80.0
14977,72.0,2,30,7.0,80.0
14978,60.0,8,30,8.0,82.0
14979,79.0,2,60,10.0,121.0
14980,67.0,2,60,11.0,110.0
14981,88.0,46,30,7.0,80.0
14982,76.0,1,30,7.0,82.0
14983,64.0,3,30,8.0,79.0
14984,78.0,4,40,10.0,110.0
14985,66.0,2,40,11.0,100.0
14986,91.0,1,31,7.0,76.0
14987,79.0,1,31,7.0,71.0
14988,78.0,54,60,10.0,121.0
14989,66.0,1,60,11.0,110.0
14990,86.0,20,31,7.0,63.0
14991,67.0,0,60,8.0,65.0
14992,62.0,0,60,8.0,63.0
14993,59.0,1,60,8.0,65.0
14994,83.0,25,31,7.0,66.0
14995,79.0,2,40,10.0,110.0
14996,67.0,2,40,11.0,100.0
14997,86.0,29,15,7.0,66.0
14998,74.0,1,120,1.0,97.0
14999,74.0,2,120,2.0,97.0
15000,59.0,2,120,13.0,52.0
15001,59.0,3,120,3.0,98.0
15002,62.0,0,120,3.0,98.0
15003,47.0,1,120,14.0,52.0
15004,79.0,2,31,7.0,72.0
15005,62.0,3,30,12.0,56.0
15006,74.0,27,31,7.0,66.0
15007,71.0,29,31,7.0,62.0
15008,74.0,34,15,7.0,66.0
15009,74.0,29,120,10.0,86.0
15010,62.0,2,120,11.0,80.0
15011,67.0,26,31,7.0,67.0
15012,59.0,4,30,12.0,56.0
15013,62.0,24,31,7.0,62.0
15014,59.0,28,31,7.0,63.0
15015,55.0,8,30,12.0,56.0
15016,62.0,23,15,7.0,66.0
15017,67.0,25,30,7.0,70.0
15018,55.0,2,30,7.0,71.0
15019,43.0,3,30,8.0,70.0
15020,67.0,1,60,12.0,56.0
15021,74.0,45,30,7.0,77.0
15022,62.0,1,30,7.0,77.0
15023,50.0,11,30,8.0,78.0
15024,79.0,2,120,1.0,97.0
15025,70.0,2,120,2.0,97.0
15026,55.0,1,120,13.0,52.0
15027,62.0,1,120,3.0,98.0
15028,58.0,0,120,3.0,98.0
15029,43.0,1,120,14.0,52.0
15030,78.0,48,30,7.0,77.0
15031,66.0,3,30,7.0,79.0
15032,54.0,8,30,8.0,77.0
15033,79.0,48,30,7.0,80.0
15034,67.0,3,30,7.0,79.0
15035,55.0,9,30,8.0,80.0
15036,79.0,5,220,10.0,110.0
15037,67.0,0,220,11.0,100.0
15038,82.0,49,30,7.0,80.0
15039,70.0,1,30,7.0,79.0
15040,58.0,4,30,8.0,78.0
15041,77.0,2,60,10.0,121.0
15042,65.0,2,60,11.0,110.0
15043,86.0,49,30,7.0,79.0
15044,74.0,0,30,7.0,79.0
15045,62.0,5,30,8.0,80.0
15046,76.0,4,40,10.0,110.0
15047,64.0,2,40,11.0,100.0
15048,89.0,1,31,7.0,73.0
15049,77.0,0,31,7.0,71.0
15050,84.0,15,31,7.0,66.0
15051,76.0,53,60,10.0,121.0
15052,64.0,1,60,11.0,110.0
15053,57.0,1,60,8.0,65.0
15054,65.0,0,60,8.0,63.0
15055,60.0,1,60,8.0,65.0
15056,81.0,31,31,7.0,62.0
15057,77.0,1,40,10.0,110.0
15058,65.0,2,40,11.0,100.0
15059,84.0,31,15,7.0,62.0
15060,72.0,2,120,1.0,97.0
15061,72.0,2,120,2.0,97.0
15062,57.0,0,120,13.0,52.0
15063,57.0,0,120,3.0,98.0
15064,60.0,4,120,3.0,98.0
15065,45.0,1,120,14.0,52.0
15066,77.0,2,31,7.0,72.0
15067,60.0,3,30,12.0,56.0
15068,72.0,26,31,7.0,62.0
15069,69.0,32,31,7.0,66.0
15070,72.0,29,15,7.0,63.0
15071,72.0,27,120,10.0,86.0
15072,60.0,2,120,11.0,80.0
15073,65.0,28,31,7.0,67.0
15074,57.0,5,30,12.0,56.0
15075,60.0,23,31,7.0,63.0
15076,57.0,33,31,7.0,66.0
15077,53.0,4,30,12.0,56.0
15078,60.0,23,15,7.0,66.0
15079,65.0,29,30,7.0,72.0
15080,53.0,1,30,7.0,71.0
15081,41.0,3,30,8.0,72.0
15082,65.0,1,60,12.0,56.0
15083,72.0,43,30,7.0,73.0
15084,60.0,6,30,7.0,78.0
15085,48.0,9,30,8.0,79.0
15086,53.0,1,120,13.0,52.0
15087,41.0,1,120,14.0,52.0
15088,76.0,46,30,7.0,78.0
15089,64.0,5,30,7.0,79.0
15090,52.0,9,30,8.0,79.0
15091,77.0,45,30,7.0,78.0
15092,65.0,2,30,7.0,78.0
15093,53.0,9,30,8.0,79.0
15094,77.0,0,220,10.0,110.0
15095,65.0,2,220,11.0,100.0
15096,81.0,52,30,7.0,80.0
15097,69.0,0,30,7.0,79.0
15098,57.0,6,30,8.0,80.0
15099,76.0,1,60,10.0,110.0
15100,64.0,1,60,11.0,100.0
15101,85.0,47,30,7.0,79.0
15102,73.0,3,30,7.0,79.0
15103,61.0,5,30,8.0,82.0
15104,73.0,2,40,10.0,110.0
15105,61.0,2,40,11.0,100.0
15106,73.0,1,120,0.0,99.0
15107,85.0,0,120,0.0,99.0
15108,57.0,1,360,3.0,98.0
15109,74.0,51,31,7.0,79.0
15110,86.0,1,31,7.0,87.0
15111,81.0,8,31,7.0,72.0
15112,73.0,1,60,10.0,110.0
15113,50.0,1,60,8.0,79.0
15114,61.0,0,60,11.0,100.0
15115,53.0,3,60,8.0,79.0
15116,57.0,7,60,8.0,79.0
15117,62.0,1,60,8.0,79.0
15118,77.0,0,31,7.0,72.0
15119,81.0,30,15,7.0,69.0
15120,74.0,31,60,10.0,110.0
15121,62.0,2,60,11.0,100.0
15122,50.0,6,120,13.0,52.0
15123,38.0,1,120,14.0,52.0
15124,74.0,3,31,7.0,86.0
15125,57.0,2,30,12.0,56.0
15126,76.0,28,60,10.0,110.0
15127,64.0,2,60,11.0,100.0
15128,69.0,26,31,7.0,73.0
15129,65.0,4,31,7.0,73.0
15130,69.0,31,15,7.0,72.0
15131,77.0,27,60,10.0,110.0
15132,65.0,2,60,11.0,100.0
15133,69.0,0,600,1.0,97.0
15134,62.0,1,31,7.0,87.0
15135,53.0,3,30,12.0,56.0
15136,57.0,21,31,7.0,73.0
15137,53.0,30,31,7.0,68.0
15138,50.0,9,30,12.0,56.0
15139,86.0,23,105,10.0,110.0
15140,57.0,23,15,7.0,69.0
15141,74.0,1,105,11.0,100.0
15142,74.0,2,110,1.0,97.0
15143,86.0,1,360,0.0,99.0
15144,74.0,0,360,0.0,99.0
15145,77.0,2,720,1.0,97.0
15146,65.0,0,720,2.0,97.0
15147,69.0,2,720,2.0,97.0
15148,53.0,1,360,3.0,98.0
15149,74.0,1,31,7.0,87.0
15150,67.0,23,31,7.0,72.0
15151,58.0,1,60,12.0,56.0
15152,64.0,29,31,7.0,72.0
15153,67.0,29,15,7.0,73.0
15154,46.0,1,120,13.0,52.0
15155,34.0,1,120,14.0,52.0
15156,62.0,28,31,7.0,87.0
15157,55.0,30,31,7.0,72.0
15158,52.0,28,31,7.0,69.0
15159,55.0,28,15,7.0,72.0
15160,84.0,30,240,10.0,110.0
15161,72.0,1,240,11.0,100.0
15162,52.0,0,31,7.0,87.0
15163,50.0,19,31,7.0,69.0
15164,55.0,5,60,12.0,56.0
15165,82.0,32,90,10.0,93.0
15166,70.0,2,90,11.0,86.0
15167,43.0,31,31,7.0,72.0
15168,50.0,30,15,7.0,69.0
15169,88.0,1,350,0.0,99.0
15170,76.0,0,350,0.0,99.0
15171,76.0,0,350,1.0,97.0
15172,74.0,2,350,1.0,97.0
15173,62.0,0,350,2.0,97.0
15174,67.0,1,350,2.0,97.0
15175,55.0,4,350,3.0,98.0
15176,43.0,1,120,13.0,52.0
15177,31.0,5,120,14.0,52.0
15178,93.0,26,31,7.0,80.0
15179,81.0,1,60,10.0,56.0
15180,88.0,16,31,7.0,62.0
15181,69.0,1,60,11.0,56.0
15182,45.0,1,62,7.0,57.0
15183,57.0,1,60,12.0,56.0
15184,86.0,30,31,7.0,66.0
15185,88.0,31,15,7.0,62.0
15186,45.0,1,120,13.0,52.0
15187,33.0,1,120,14.0,52.0
15188,81.0,0,31,7.0,76.0
15189,69.0,30,60,10.0,56.0
15190,69.0,2,60,11.0,56.0
15191,76.0,30,31,7.0,66.0
15192,74.0,30,31,7.0,62.0
15193,76.0,35,15,7.0,63.0
15194,69.0,23,31,7.0,79.0
15195,57.0,0,60,10.0,56.0
15196,57.0,2,60,11.0,56.0
15197,64.0,29,31,7.0,66.0
15198,62.0,29,31,7.0,62.0
15199,64.0,33,15,7.0,66.0
15200,81.0,5,31,7.0,79.0
15201,69.0,29,60,11.0,56.0
15202,76.0,27,31,7.0,66.0
15203,74.0,31,31,7.0,63.0
15204,76.0,32,15,7.0,66.0
15205,69.0,24,31,7.0,76.0
15206,64.0,20,31,7.0,63.0
15207,69.0,6,60,12.0,56.0
15208,57.0,1,60,13.0,52.0
15209,62.0,35,31,7.0,66.0
15210,64.0,26,15,7.0,63.0
15211,57.0,33,31,7.0,76.0
15212,52.0,24,31,7.0,62.0
15213,57.0,5,60,12.0,56.0
15214,45.0,1,60,13.0,52.0
15215,50.0,32,31,7.0,62.0
15216,52.0,31,15,7.0,62.0
15217,86.0,1,710,0.0,99.0
15218,88.0,0,710,0.0,99.0
15219,76.0,1,710,1.0,97.0
15220,74.0,0,710,1.0,97.0
15221,64.0,0,710,2.0,97.0
15222,62.0,2,710,2.0,97.0
15223,57.0,4,710,3.0,98.0
15224,62.0,0,720,4.0,100.0
15225,81.0,23,31,7.0,79.0
15226,81.0,0,60,10.0,56.0
15227,76.0,18,31,7.0,63.0
15228,81.0,1,60,11.0,56.0
15229,45.0,2,62,7.0,60.0
15230,69.0,1,60,12.0,56.0
15231,73.0,28,31,7.0,63.0
15232,76.0,35,15,7.0,66.0
15233,69.0,3,31,7.0,80.0
15234,69.0,27,60,10.0,56.0
15235,69.0,2,60,11.0,56.0
15236,64.0,25,31,7.0,68.0
15237,57.0,2,60,12.0,56.0
15238,61.0,32,31,7.0,68.0
15239,64.0,29,15,7.0,72.0
15240,57.0,27,31,7.0,87.0
15241,69.0,0,60,10.0,56.0
15242,52.0,23,31,7.0,72.0
15243,57.0,2,60,11.0,56.0
15244,57.0,5,60,12.0,56.0
15245,45.0,1,60,13.0,52.0
15246,49.0,32,31,7.0,73.0
15247,52.0,28,15,7.0,73.0
15248,69.0,5,31,7.0,87.0
15249,81.0,29,60,10.0,63.0
15250,69.0,2,60,11.0,63.0
15251,64.0,25,31,7.0,76.0
15252,57.0,1,60,13.0,56.0
15253,61.0,31,31,7.0,79.0
15254,64.0,30,15,7.0,79.0
15255,57.0,2,31,7.0,94.0
15256,69.0,26,60,10.0,70.0
15257,57.0,0,60,11.0,70.0
15258,52.0,23,31,7.0,83.0
15259,45.0,6,60,13.0,62.0
15260,49.0,30,31,7.0,82.0
15261,52.0,31,15,7.0,81.0
15262,57.0,28,60,10.0,77.0
15263,40.0,22,31,7.0,73.0
15264,45.0,8,60,13.0,67.0
15265,45.0,5,60,14.0,67.0
15266,37.0,29,31,7.0,66.0
15267,88.0,0,710,0.0,99.0
15268,85.0,1,710,0.0,99.0
15269,40.0,33,15,7.0,56.0
15270,76.0,2,710,1.0,97.0
15271,73.0,0,710,1.0,97.0
15272,61.0,0,710,2.0,97.0
15273,64.0,2,710,2.0,97.0
15274,45.0,0,120,8.0,95.0
15275,45.0,5,710,3.0,98.0
15276,57.0,0,720,4.0,100.0
15277,72.0,0,30,11.0,110.0
15278,76.0,25,30,11.0,110.0
15279,45.0,13,2,15.0,29.0
15280,60.0,1,30,12.0,110.0
15281,64.0,0,30,12.0,110.0
15282,45.0,2,2,15.0,28.0
15283,45.0,11,1,15.0,29.0
15284,76.0,0,30,11.0,110.0
15285,72.0,11,30,11.0,110.0
15286,60.0,3,30,12.0,110.0
15287,64.0,0,30,12.0,110.0
15288,45.0,2,3,15.0,29.0
15289,76.0,0,30,11.0,110.0
15290,72.0,5,30,11.0,110.0
15291,64.0,0,30,12.0,110.0
15292,60.0,5,30,12.0,110.0
15293,45.0,12,3,15.0,32.0
15294,45.0,1,120,13.0,67.0
15295,76.0,0,30,11.0,110.0
15296,72.0,4,30,11.0,110.0
15297,45.0,14,1,15.0,32.0
15298,64.0,5,30,12.0,110.0
15299,60.0,0,30,12.0,110.0
15300,45.0,3,1,15.0,32.0
15301,76.0,11,30,11.0,110.0
15302,72.0,0,30,11.0,110.0
15303,60.0,2,30,12.0,110.0
15304,45.0,13,2,15.0,32.0
15305,64.0,0,30,12.0,110.0
15306,45.0,15,0,15.0,32.0
15307,76.0,7,30,11.0,110.0
15308,72.0,0,30,11.0,110.0
15309,64.0,0,30,12.0,110.0
15310,60.0,5,30,12.0,110.0
15311,81.0,2,240,1.0,112.0
15312,45.0,15,15,15.0,35.0
15313,72.0,1,30,11.0,110.0
15314,45.0,12,3,15.0,35.0
15315,76.0,0,30,11.0,110.0
15316,79.0,2,30,1.0,97.0
15317,64.0,0,30,12.0,110.0
15318,60.0,3,30,12.0,110.0
15319,45.0,2,0,15.0,36.0
15320,72.0,0,30,11.0,110.0
15321,76.0,13,30,11.0,110.0
15322,45.0,9,2,15.0,36.0
15323,60.0,0,30,12.0,110.0
15324,64.0,3,30,12.0,110.0
15325,78.0,4,30,1.0,97.0
15326,45.0,1,15,15.0,36.0
15327,76.0,0,30,11.0,110.0
15328,72.0,9,30,11.0,110.0
15329,60.0,0,30,12.0,110.0
15330,64.0,5,30,12.0,110.0
15331,45.0,1,0,15.0,36.0
15332,45.0,7,4,15.0,37.0
15333,74.0,14,30,11.0,110.0
15334,72.0,0,30,11.0,110.0
15335,60.0,0,30,12.0,110.0
15336,62.0,3,30,12.0,110.0
15337,45.0,16,15,15.0,36.0
15338,45.0,13,1,15.0,37.0
15339,78.0,1,60,1.0,97.0
15340,72.0,12,30,11.0,110.0
15341,74.0,0,30,11.0,110.0
15342,62.0,0,30,12.0,110.0
15343,60.0,1,30,12.0,110.0
15344,45.0,12,15,15.0,38.0
15345,45.0,13,2,15.0,38.0
15346,72.0,0,30,11.0,110.0
15347,74.0,6,30,11.0,110.0
15348,62.0,5,30,12.0,110.0
15349,60.0,0,30,12.0,110.0
15350,45.0,15,0,15.0,37.0
15351,79.0,4,60,1.0,97.0
15352,45.0,2,2,15.0,38.0
15353,71.0,1,30,11.0,110.0
15354,74.0,0,30,11.0,110.0
15355,59.0,0,30,12.0,110.0
15356,62.0,3,30,12.0,110.0
15357,67.0,1,30,13.0,67.0
15358,67.0,4,30,3.0,98.0
15359,45.0,2,2,15.0,37.0
15360,71.0,11,30,11.0,110.0
15361,74.0,0,30,11.0,110.0
15362,45.0,14,15,15.0,38.0
15363,62.0,3,30,12.0,110.0
15364,59.0,0,30,12.0,110.0
15365,45.0,3,1,15.0,37.0
15366,74.0,0,30,11.0,110.0
15367,71.0,6,30,11.0,110.0
15368,59.0,0,30,12.0,110.0
15369,62.0,5,30,12.0,110.0
15370,45.0,14,1,15.0,39.0
15371,71.0,0,30,11.0,110.0
15372,74.0,1,30,11.0,110.0
15373,45.0,14,1,15.0,40.0
15374,59.0,5,30,12.0,110.0
15375,62.0,0,30,12.0,110.0
15376,62.0,1,30,13.0,67.0
15377,62.0,4,30,3.0,98.0
15378,45.0,14,1,15.0,38.0
15379,71.0,0,30,11.0,110.0
15380,74.0,11,30,11.0,110.0
15381,45.0,5,0,15.0,42.0
15382,59.0,0,30,12.0,110.0
15383,62.0,5,30,12.0,110.0
15384,45.0,2,3,15.0,39.0
15385,59.0,6,30,13.0,67.0
15386,59.0,4,30,3.0,98.0
15387,45.0,15,0,15.0,38.0
15388,71.0,0,30,11.0,110.0
15389,74.0,5,30,11.0,110.0
15390,59.0,5,30,12.0,110.0
15391,62.0,0,30,12.0,110.0
15392,45.0,14,1,15.0,42.0
15393,74.0,2,240,1.0,97.0
15394,70.0,0,30,11.0,110.0
15395,73.0,4,30,11.0,110.0
15396,45.0,10,5,15.0,39.0
15397,61.0,1,30,12.0,110.0
15398,58.0,0,30,12.0,110.0
15399,45.0,1,0,15.0,38.0
15400,58.0,1,60,13.0,67.0
15401,73.0,14,30,11.0,110.0
15402,70.0,0,30,11.0,110.0
15403,45.0,15,0,15.0,42.0
15404,58.0,4,30,12.0,110.0
15405,61.0,0,30,12.0,110.0
15406,45.0,3,1,15.0,40.0
15407,45.0,15,0,15.0,42.0
15408,73.0,0,30,11.0,110.0
15409,70.0,6,30,11.0,110.0
15410,61.0,0,30,12.0,110.0
15411,58.0,5,30,12.0,110.0
15412,45.0,13,2,15.0,40.0
15413,70.0,4,30,11.0,110.0
15414,73.0,0,30,11.0,110.0
15415,45.0,15,0,15.0,43.0
15416,61.0,5,30,12.0,110.0
15417,58.0,0,30,12.0,110.0
15418,45.0,11,4,15.0,43.0
15419,73.0,0,30,11.0,110.0
15420,70.0,10,30,11.0,110.0
15421,45.0,14,1,15.0,40.0
15422,61.0,0,30,12.0,110.0
15423,58.0,5,30,12.0,110.0
15424,45.0,14,1,15.0,45.0
15425,73.0,0,30,11.0,110.0
15426,70.0,9,30,11.0,110.0
15427,58.0,5,30,12.0,110.0
15428,61.0,0,30,12.0,110.0
15429,45.0,12,3,15.0,45.0
15430,79.0,4,240,2.0,112.0
15431,45.0,12,3,15.0,43.0
15432,70.0,0,30,11.0,110.0
15433,73.0,4,30,11.0,110.0
15434,77.0,4,30,2.0,97.0
15435,61.0,0,30,12.0,110.0
15436,58.0,1,30,12.0,110.0
15437,45.0,2,15,15.0,42.0
15438,73.0,14,30,11.0,110.0
15439,70.0,0,30,11.0,110.0
15440,61.0,3,30,12.0,110.0
15441,58.0,0,30,12.0,110.0
15442,45.0,10,2,15.0,42.0
15443,45.0,3,1,15.0,43.0
15444,76.0,3,30,2.0,97.0
15445,73.0,6,30,11.0,110.0
15446,70.0,0,30,11.0,110.0
15447,58.0,5,30,12.0,110.0
15448,61.0,0,30,12.0,110.0
15449,45.0,15,15,15.0,45.0
15450,61.0,4,360,3.0,113.0
15451,45.0,16,15,15.0,43.0
15452,45.0,14,1,15.0,43.0
15453,72.0,1,30,11.0,110.0
15454,70.0,0,30,11.0,110.0
15455,60.0,0,30,12.0,110.0
15456,58.0,1,30,12.0,110.0
15457,45.0,1,3,15.0,45.0
15458,45.0,11,0,15.0,45.0
15459,76.0,4,60,2.0,97.0
15460,72.0,0,30,11.0,110.0
15461,70.0,11,30,11.0,110.0
15462,60.0,4,30,12.0,110.0
15463,58.0,0,30,12.0,110.0
15464,45.0,5,1,15.0,45.0
15465,45.0,13,2,15.0,45.0
15466,72.0,4,30,11.0,110.0
15467,70.0,0,30,11.0,110.0
15468,58.0,0,30,12.0,110.0
15469,60.0,5,30,12.0,110.0
15470,77.0,8,60,2.0,97.0
15471,45.0,16,15,15.0,43.0
15472,72.0,0,30,11.0,110.0
15473,69.0,1,30,11.0,110.0
15474,45.0,11,4,15.0,43.0
15475,57.0,0,30,12.0,110.0
15476,60.0,1,30,12.0,110.0
15477,65.0,1,30,13.0,67.0
15478,65.0,4,30,3.0,98.0
15479,45.0,1,1,15.0,45.0
15480,69.0,0,30,11.0,110.0
15481,72.0,13,30,11.0,110.0
15482,57.0,0,30,12.0,110.0
15483,60.0,4,30,12.0,110.0
15484,45.0,10,5,15.0,43.0
15485,45.0,1,0,15.0,45.0
15486,45.0,15,0,15.0,46.0
15487,72.0,0,30,11.0,110.0
15488,69.0,9,30,11.0,110.0
15489,60.0,5,30,12.0,110.0
15490,57.0,0,30,12.0,110.0
15491,45.0,5,1,15.0,46.0
15492,69.0,19,30,11.0,110.0
15493,45.0,11,4,15.0,43.0
15494,72.0,0,30,11.0,110.0
15495,60.0,0,30,12.0,110.0
15496,57.0,4,30,12.0,110.0
15497,60.0,1,30,13.0,67.0
15498,60.0,4,30,3.0,98.0
15499,45.0,12,3,15.0,43.0
15500,69.0,0,30,11.0,110.0
15501,72.0,14,30,11.0,110.0
15502,45.0,2,0,15.0,45.0
15503,60.0,5,30,12.0,110.0
15504,57.0,0,30,12.0,110.0
15505,57.0,9,30,13.0,67.0
15506,57.0,4,30,3.0,98.0
15507,45.0,3,15,15.0,43.0
15508,37.0,0,1425,8.0,65.0
15509,49.0,2,1425,8.0,65.0
15510,69.0,0,30,11.0,110.0
15511,72.0,8,30,11.0,110.0
15512,57.0,5,30,12.0,110.0
15513,60.0,0,30,12.0,110.0
15514,45.0,15,15,15.0,45.0
15515,72.0,4,240,2.0,97.0
15516,45.0,4,1,15.0,45.0
15517,70.0,0,30,11.0,110.0
15518,69.0,0,30,11.0,110.0
15519,57.0,5,30,12.0,110.0
15520,58.0,0,30,12.0,110.0
15521,45.0,1,4,15.0,45.0
15522,69.0,10,30,11.0,110.0
15523,70.0,0,30,11.0,110.0
15524,45.0,13,2,15.0,46.0
15525,58.0,0,30,12.0,110.0
15526,57.0,4,30,12.0,110.0
15527,45.0,1,0,15.0,45.0
15528,70.0,0,30,11.0,110.0
15529,69.0,9,30,11.0,110.0
15530,57.0,0,30,12.0,110.0
15531,58.0,5,30,12.0,110.0
15532,45.0,15,0,15.0,43.0
15533,45.0,1,120,13.0,67.0
15534,45.0,7,2,15.0,43.0
15535,70.0,1,30,11.0,110.0
15536,69.0,0,30,11.0,110.0
15537,58.0,0,30,12.0,110.0
15538,57.0,5,30,12.0,110.0
15539,45.0,2,3,15.0,45.0
15540,69.0,0,30,11.0,110.0
15541,70.0,10,30,11.0,110.0
15542,58.0,0,30,12.0,110.0
15543,57.0,3,30,12.0,110.0
15544,45.0,14,1,15.0,45.0
15545,45.0,3,2,15.0,46.0
15546,77.0,12,225,7.0,99.0
15547,65.0,1,225,7.0,106.0
15548,45.0,14,1,15.0,46.0
15549,69.0,0,30,11.0,110.0
15550,70.0,5,30,11.0,110.0
15551,53.0,2,225,8.0,99.0
15552,58.0,5,30,12.0,110.0
15553,57.0,0,30,12.0,110.0
15554,45.0,15,15,15.0,43.0
15555,45.0,12,3,15.0,43.0
15556,70.0,2,30,11.0,110.0
15557,69.0,0,30,11.0,110.0
15558,58.0,5,30,12.0,110.0
15559,57.0,0,30,12.0,110.0
15560,75.0,1,45,7.0,77.0
15561,63.0,0,45,7.0,79.0
15562,51.0,3,45,8.0,82.0
15563,45.0,11,3,15.0,43.0
15564,69.0,14,30,11.0,110.0
15565,70.0,0,30,11.0,110.0
15566,58.0,1,30,12.0,110.0
15567,57.0,0,30,12.0,110.0
15568,45.0,1,5,15.0,43.0
15569,74.0,1,45,7.0,79.0
15570,62.0,4,45,7.0,78.0
15571,69.0,0,30,11.0,110.0
15572,70.0,4,30,11.0,110.0
15573,50.0,9,45,8.0,79.0
15574,58.0,5,30,12.0,110.0
15575,57.0,0,30,12.0,110.0
15576,45.0,0,5,15.0,43.0
15577,58.0,2,360,3.0,113.0
15578,45.0,15,0,15.0,45.0
15579,67.0,0,30,11.0,110.0
15580,70.0,0,30,11.0,110.0
15581,58.0,0,30,12.0,110.0
15582,55.0,5,30,12.0,110.0
15583,74.0,10,60,7.0,88.0
15584,62.0,4,60,7.0,87.0
15585,45.0,5,2,15.0,46.0
15586,50.0,3,60,8.0,87.0
15587,67.0,12,30,11.0,110.0
15588,70.0,0,30,11.0,110.0
15589,55.0,5,30,12.0,110.0
15590,58.0,0,30,12.0,110.0
15591,45.0,2,3,15.0,43.0
15592,75.0,8,45,7.0,78.0
15593,63.0,1,45,7.0,79.0
15594,67.0,0,30,11.0,110.0
15595,70.0,5,30,11.0,110.0
15596,55.0,0,30,12.0,110.0
15597,58.0,5,30,12.0,110.0
15598,51.0,11,45,8.0,78.0
15599,45.0,2,1,15.0,43.0
15600,45.0,5,15,15.0,43.0
15601,67.0,2,30,11.0,110.0
15602,70.0,0,30,11.0,110.0
15603,58.0,0,30,12.0,110.0
15604,55.0,4,30,12.0,110.0
15605,45.0,3,2,15.0,46.0
15606,78.0,12,60,7.0,88.0
15607,45.0,2,2,15.0,46.0
15608,66.0,1,60,7.0,91.0
15609,54.0,4,60,8.0,91.0
15610,67.0,0,30,11.0,110.0
15611,70.0,10,30,11.0,110.0
15612,55.0,2,30,12.0,110.0
15613,58.0,0,30,12.0,110.0
15614,45.0,4,0,15.0,43.0
15615,79.0,9,45,7.0,84.0
15616,45.0,13,2,15.0,43.0
15617,67.0,3,45,7.0,84.0
15618,70.0,0,30,11.0,110.0
15619,67.0,6,30,11.0,110.0
15620,55.0,11,45,8.0,84.0
15621,58.0,5,30,12.0,110.0
15622,55.0,0,30,12.0,110.0
15623,45.0,14,1,15.0,45.0
15624,45.0,2,15,15.0,45.0
15625,70.0,0,30,11.0,110.0
15626,67.0,0,30,11.0,110.0
15627,55.0,0,30,12.0,110.0
15628,58.0,5,30,12.0,110.0
15629,45.0,0,1,15.0,45.0
15630,81.0,1,60,7.0,94.0
15631,69.0,3,60,7.0,88.0
15632,57.0,4,60,8.0,91.0
15633,67.0,0,30,11.0,110.0
15634,70.0,9,30,11.0,110.0
15635,58.0,0,30,12.0,110.0
15636,45.0,3,1,15.0,45.0
15637,55.0,5,30,12.0,110.0
15638,45.0,1,3,15.0,45.0
15639,82.0,8,45,7.0,80.0
15640,70.0,1,45,7.0,84.0
15641,67.0,0,30,11.0,110.0
15642,70.0,6,30,11.0,110.0
15643,58.0,5,30,12.0,110.0
15644,55.0,0,30,12.0,110.0
15645,58.0,10,45,8.0,80.0
15646,45.0,2,4,15.0,46.0
15647,45.0,12,3,15.0,45.0
15648,65.0,2,30,11.0,110.0
15649,69.0,0,30,11.0,110.0
15650,57.0,5,30,12.0,110.0
15651,53.0,0,30,12.0,110.0
15652,80.0,9,60,7.0,82.0
15653,68.0,2,60,7.0,86.0
15654,45.0,3,4,15.0,43.0
15655,56.0,3,60,8.0,82.0
15656,69.0,14,30,11.0,110.0
15657,65.0,0,30,11.0,110.0
15658,57.0,0,30,12.0,110.0
15659,53.0,5,30,12.0,110.0
15660,45.0,2,4,15.0,46.0
15661,81.0,8,45,7.0,79.0
15662,69.0,4,45,7.0,80.0
15663,65.0,0,30,11.0,110.0
15664,69.0,4,30,11.0,110.0
15665,57.0,0,30,12.0,110.0
15666,53.0,5,30,12.0,110.0
15667,57.0,11,45,8.0,82.0
15668,45.0,3,1,15.0,43.0
15669,45.0,7,0,15.0,45.0
15670,65.0,0,30,11.0,110.0
15671,69.0,1,30,11.0,110.0
15672,57.0,5,30,12.0,110.0
15673,53.0,0,30,12.0,110.0
15674,45.0,18,15,15.0,43.0
15675,85.0,11,60,7.0,93.0
15676,73.0,2,60,7.0,92.0
15677,45.0,10,5,15.0,45.0
15678,69.0,9,30,11.0,110.0
15679,65.0,0,30,11.0,110.0
15680,61.0,1,60,8.0,91.0
15681,57.0,5,30,12.0,110.0
15682,53.0,0,30,12.0,110.0
15683,45.0,14,15,15.0,46.0
15684,74.0,1,45,7.0,88.0
15685,86.0,1,45,7.0,88.0
15686,45.0,12,3,15.0,45.0
15687,69.0,7,30,11.0,110.0
15688,65.0,0,30,11.0,110.0
15689,57.0,0,30,12.0,110.0
15690,53.0,5,30,12.0,110.0
15691,45.0,2,1,15.0,45.0
15692,62.0,1,45,8.0,88.0
15693,45.0,2,0,15.0,45.0
15694,74.0,2,30,11.0,110.0
15695,69.0,0,30,11.0,110.0
15696,62.0,0,30,12.0,110.0
15697,53.0,5,30,12.0,110.0
15698,45.0,1,1,15.0,43.0
15699,88.0,12,60,7.0,99.0
15700,76.0,2,60,7.0,106.0
15701,64.0,4,60,8.0,99.0
15702,74.0,13,30,11.0,110.0
15703,69.0,0,30,11.0,110.0
15704,45.0,1,1,15.0,45.0
15705,53.0,4,30,12.0,110.0
15706,62.0,0,30,12.0,110.0
15707,89.0,9,45,7.0,103.0
15708,45.0,11,4,15.0,45.0
15709,77.0,4,45,7.0,103.0
15710,74.0,9,30,11.0,110.0
15711,69.0,0,30,11.0,110.0
15712,53.0,0,30,12.0,110.0
15713,65.0,9,45,8.0,106.0
15714,62.0,5,30,12.0,110.0
15715,45.0,0,2520,4.0,100.0
15716,45.0,1,720,13.0,100.0
15717,33.0,5,2520,14.0,100.0
15718,45.0,3,15,15.0,45.0
15719,76.0,0,30,11.0,110.0
15720,73.0,1,30,11.0,110.0
15721,45.0,5,15,15.0,45.0
15722,61.0,3,30,12.0,110.0
15723,57.0,0,30,12.0,110.0
15724,45.0,1,5,15.0,45.0
15725,80.0,11,60,7.0,101.0
15726,68.0,3,60,7.0,102.0
15727,73.0,0,30,11.0,110.0
15728,56.0,4,60,8.0,100.0
15729,76.0,9,30,11.0,110.0
15730,45.0,6,15,15.0,45.0
15731,57.0,4,30,12.0,110.0
15732,61.0,0,30,12.0,110.0
15733,45.0,4,2,15.0,45.0
15734,81.0,8,45,7.0,92.0
15735,45.0,13,2,15.0,43.0
15736,69.0,0,45,7.0,98.0
15737,73.0,0,30,11.0,110.0
15738,76.0,4,30,11.0,110.0
15739,57.0,5,30,12.0,110.0
15740,61.0,0,30,12.0,110.0
15741,57.0,14,45,8.0,96.0
15742,45.0,0,15,15.0,43.0
15743,76.0,0,30,11.0,110.0
15744,73.0,2,30,11.0,110.0
15745,45.0,11,4,15.0,43.0
15746,61.0,5,30,12.0,110.0
15747,57.0,0,30,12.0,110.0
15748,87.0,11,60,7.0,107.0
15749,75.0,5,60,7.0,107.0
15750,45.0,1,2,15.0,43.0
15751,76.0,14,30,11.0,110.0
15752,63.0,5,60,8.0,106.0
15753,73.0,0,30,11.0,110.0
15754,57.0,0,30,12.0,110.0
15755,61.0,1,30,12.0,110.0
15756,45.0,4,0,15.0,45.0
15757,88.0,11,45,7.0,103.0
15758,45.0,14,1,15.0,45.0
15759,76.0,3,45,7.0,101.0
15760,73.0,6,30,11.0,110.0
15761,76.0,0,30,11.0,110.0
15762,57.0,5,30,12.0,110.0
15763,61.0,0,30,12.0,110.0
15764,64.0,12,45,8.0,106.0
15765,45.0,5,0,15.0,46.0
15766,45.0,6,15,15.0,43.0
15767,76.0,1,30,11.0,110.0
15768,73.0,0,30,11.0,110.0
15769,57.0,5,30,12.0,110.0
15770,45.0,3,3,15.0,46.0
15771,92.0,10,60,7.0,121.0
15772,45.0,3,1,15.0,46.0
15773,80.0,1,60,7.0,124.0
15774,68.0,3,60,8.0,124.0
15775,76.0,0,30,11.0,110.0
15776,73.0,9,30,11.0,110.0
15777,57.0,2,30,12.0,110.0
15778,45.0,1,15,15.0,45.0
15779,93.0,9,45,7.0,114.0
15780,45.0,12,3,15.0,43.0
15781,81.0,4,45,7.0,118.0
15782,73.0,0,30,11.0,110.0
15783,76.0,6,30,11.0,110.0
15784,57.0,5,30,12.0,110.0
15785,69.0,12,45,8.0,120.0
15786,57.0,0,360,4.0,100.0
15787,69.0,2,360,4.0,100.0
15788,57.0,1,360,13.0,100.0
15789,45.0,1,360,14.0,100.0
15790,45.0,16,15,15.0,45.0
15791,84.0,1,30,10.0,110.0
15792,88.0,0,30,10.0,110.0
15793,76.0,0,30,11.0,110.0
15794,72.0,2,30,11.0,110.0
15795,45.0,14,1,15.0,42.0
15796,45.0,3,2,15.0,39.0
15797,84.0,8,30,10.0,110.0
15798,88.0,0,30,10.0,110.0
15799,72.0,2,30,11.0,110.0
15800,76.0,0,30,11.0,110.0
15801,45.0,12,3,15.0,40.0
15802,45.0,8,15,15.0,42.0
15803,84.0,0,30,10.0,110.0
15804,88.0,5,30,10.0,110.0
15805,72.0,2,30,11.0,110.0
15806,76.0,0,30,11.0,110.0
15807,45.0,17,15,15.0,42.0
15808,57.0,1,120,6.0,105.0
15809,45.0,2,3,15.0,42.0
15810,84.0,0,30,10.0,110.0
15811,88.0,13,30,10.0,110.0
15812,76.0,1,30,11.0,110.0
15813,72.0,0,30,11.0,110.0
15814,45.0,3,2,15.0,43.0
15815,45.0,13,2,15.0,45.0
15816,84.0,8,30,10.0,110.0
15817,88.0,0,30,10.0,110.0
15818,72.0,0,30,11.0,110.0
15819,76.0,2,30,11.0,110.0
15820,45.0,16,15,15.0,43.0
15821,45.0,9,15,15.0,43.0
15822,84.0,0,30,10.0,110.0
15823,88.0,6,30,10.0,110.0
15824,76.0,2,30,11.0,110.0
15825,72.0,0,30,11.0,110.0
15826,45.0,11,4,15.0,43.0
15827,69.0,1,240,1.0,97.0
15828,57.0,0,240,2.0,97.0
15829,69.0,2,240,2.0,97.0
15830,57.0,1,240,12.0,100.0
15831,57.0,1,240,13.0,100.0
15832,45.0,5,15,15.0,43.0
15833,84.0,0,30,10.0,110.0
15834,88.0,2,30,10.0,110.0
15835,76.0,0,30,11.0,110.0
15836,72.0,2,30,11.0,110.0
15837,45.0,1,1,15.0,43.0
15838,67.0,2,60,1.0,97.0
15839,55.0,0,60,2.0,97.0
15840,67.0,2,60,2.0,97.0
15841,55.0,1,60,12.0,110.0
15842,55.0,1,60,13.0,110.0
15843,84.0,11,30,10.0,110.0
15844,88.0,0,30,10.0,110.0
15845,72.0,0,30,11.0,110.0
15846,76.0,2,30,11.0,110.0
15847,45.0,15,15,15.0,45.0
15848,45.0,10,0,15.0,45.0
15849,54.0,1,40,12.0,100.0
15850,45.0,14,1,15.0,45.0
15851,54.0,1,40,13.0,100.0
15852,66.0,6,45,1.0,97.0
15853,84.0,3,30,10.0,110.0
15854,88.0,0,30,10.0,110.0
15855,66.0,2,45,2.0,97.0
15856,54.0,0,45,2.0,97.0
15857,72.0,2,30,11.0,110.0
15858,76.0,0,30,11.0,110.0
15859,45.0,12,3,15.0,45.0
15860,88.0,1,240,0.0,99.0
15861,64.0,10,240,3.0,98.0
15862,45.0,1,0,15.0,46.0
15863,86.0,2,30,10.0,110.0
15864,84.0,0,30,10.0,110.0
15865,72.0,1,30,11.0,110.0
15866,74.0,0,30,11.0,110.0
15867,45.0,17,15,15.0,46.0
15868,45.0,15,0,15.0,45.0
15869,66.0,1,60,1.0,97.0
15870,54.0,2,60,2.0,97.0
15871,66.0,0,60,2.0,97.0
15872,54.0,1,60,12.0,110.0
15873,54.0,1,60,13.0,110.0
15874,86.0,10,30,10.0,110.0
15875,84.0,0,30,10.0,110.0
15876,72.0,2,30,11.0,110.0
15877,74.0,0,30,11.0,110.0
15878,45.0,7,2,15.0,43.0
15879,45.0,6,2,15.0,46.0
15880,55.0,1,40,12.0,100.0
15881,55.0,1,40,13.0,100.0
15882,67.0,2,45,1.0,97.0
15883,86.0,5,30,10.0,110.0
15884,84.0,0,30,10.0,110.0
15885,67.0,2,45,2.0,97.0
15886,55.0,0,45,2.0,97.0
15887,72.0,0,30,11.0,110.0
15888,74.0,2,30,11.0,110.0
15889,45.0,15,0,15.0,45.0
15890,84.0,0,360,0.0,99.0
15891,57.0,1,120,6.0,105.0
15892,69.0,0,120,6.0,105.0
15893,60.0,0,360,3.0,98.0
15894,45.0,2,15,15.0,43.0
15895,86.0,1,30,10.0,110.0
15896,83.0,0,30,10.0,110.0
15897,74.0,0,30,11.0,110.0
15898,71.0,1,30,11.0,110.0
15899,45.0,3,0,15.0,45.0
15900,73.0,2,60,1.0,97.0
15901,73.0,0,60,2.0,97.0
15902,61.0,2,60,2.0,97.0
15903,61.0,1,60,12.0,110.0
15904,61.0,1,60,13.0,110.0
15905,83.0,10,30,10.0,110.0
15906,86.0,0,30,10.0,110.0
15907,74.0,2,30,11.0,110.0
15908,71.0,0,30,11.0,110.0
15909,45.0,7,1,15.0,43.0
15910,62.0,1,40,12.0,100.0
15911,62.0,1,40,13.0,100.0
15912,45.0,13,2,15.0,46.0
15913,74.0,3,45,1.0,97.0
15914,86.0,0,30,10.0,110.0
15915,83.0,5,30,10.0,110.0
15916,62.0,0,45,2.0,97.0
15917,74.0,2,45,2.0,97.0
15918,71.0,2,30,11.0,110.0
15919,74.0,0,30,11.0,110.0
15920,45.0,12,3,15.0,45.0
15921,86.0,0,30,10.0,110.0
15922,83.0,2,30,10.0,110.0
15923,71.0,2,30,11.0,110.0
15924,74.0,0,30,11.0,110.0
15925,45.0,11,4,15.0,43.0
15926,45.0,1,1,15.0,45.0
15927,78.0,2,60,1.0,97.0
15928,66.0,2,60,2.0,97.0
15929,78.0,0,60,2.0,97.0
15930,66.0,1,60,12.0,110.0
15931,66.0,1,60,13.0,110.0
15932,86.0,11,30,10.0,110.0
15933,83.0,0,30,10.0,110.0
15934,71.0,2,30,11.0,110.0
15935,74.0,0,30,11.0,110.0
15936,45.0,5,2,15.0,45.0
15937,67.0,1,40,12.0,100.0
15938,45.0,12,3,15.0,45.0
15939,67.0,1,40,13.0,100.0
15940,79.0,4,45,1.0,86.0
15941,83.0,0,30,10.0,110.0
15942,86.0,7,30,10.0,110.0
15943,79.0,0,45,2.0,85.0
15944,67.0,2,45,2.0,85.0
15945,74.0,2,30,11.0,110.0
15946,71.0,0,30,11.0,110.0
15947,86.0,1,360,0.0,99.0
15948,83.0,1,240,0.0,99.0
15949,59.0,4,240,3.0,98.0
15950,62.0,4,360,3.0,98.0
15951,45.0,1,15,15.0,46.0
15952,82.0,0,30,10.0,126.0
15953,85.0,15,30,10.0,126.0
15954,73.0,0,30,11.0,126.0
15955,70.0,1,30,11.0,126.0
15956,45.0,13,2,15.0,43.0
15957,45.0,14,1,15.0,45.0
15958,85.0,9,30,10.0,110.0
15959,82.0,0,30,10.0,110.0
15960,73.0,0,30,11.0,110.0
15961,70.0,2,30,11.0,110.0
15962,45.0,15,15,15.0,46.0
15963,45.0,11,4,15.0,43.0
15964,82.0,4,30,10.0,110.0
15965,85.0,0,30,10.0,110.0
15966,73.0,0,30,11.0,110.0
15967,70.0,2,30,11.0,110.0
15968,57.0,1,120,6.0,105.0
15969,45.0,0,15,15.0,43.0
15970,82.0,0,30,10.0,110.0
15971,85.0,17,30,10.0,110.0
15972,70.0,1,30,11.0,110.0
15973,73.0,0,30,11.0,110.0
15974,45.0,5,15,15.0,43.0
15975,45.0,5,1,15.0,45.0
15976,82.0,0,30,10.0,110.0
15977,85.0,7,30,10.0,110.0
15978,73.0,2,30,11.0,110.0
15979,70.0,0,30,11.0,110.0
15980,45.0,13,2,15.0,46.0
15981,45.0,12,3,15.0,46.0
15982,85.0,4,30,10.0,110.0
15983,82.0,0,30,10.0,110.0
15984,73.0,2,30,11.0,110.0
15985,70.0,0,30,11.0,110.0
15986,67.0,1,240,1.0,97.0
15987,67.0,2,240,2.0,97.0
15988,55.0,0,240,2.0,97.0
15989,55.0,1,240,12.0,100.0
15990,55.0,1,240,13.0,100.0
15991,45.0,0,15,15.0,46.0
15992,85.0,0,30,10.0,110.0
15993,82.0,16,30,10.0,110.0
15994,73.0,2,30,11.0,110.0
15995,70.0,0,30,11.0,110.0
15996,45.0,13,2,15.0,43.0
15997,45.0,4,0,15.0,43.0
15998,45.0,13,2,15.0,45.0
15999,65.0,2,60,1.0,97.0
16000,53.0,0,60,2.0,97.0
16001,65.0,2,60,2.0,97.0
16002,53.0,1,60,12.0,110.0
16003,53.0,1,60,13.0,110.0
16004,85.0,0,30,10.0,110.0
16005,82.0,9,30,10.0,110.0
16006,70.0,2,30,11.0,110.0
16007,73.0,0,30,11.0,110.0
16008,45.0,10,0,15.0,45.0
16009,45.0,11,4,15.0,46.0
16010,52.0,1,40,12.0,100.0
16011,52.0,1,40,13.0,100.0
16012,64.0,5,45,1.0,97.0
16013,85.0,3,30,10.0,110.0
16014,82.0,0,30,10.0,110.0
16015,52.0,0,45,2.0,97.0
16016,64.0,2,45,2.0,97.0
16017,70.0,0,30,11.0,110.0
16018,73.0,2,30,11.0,110.0
16019,85.0,1,240,0.0,99.0
16020,61.0,0,240,3.0,98.0
16021,45.0,2,4,15.0,45.0
16022,82.0,17,30,10.0,110.0
16023,84.0,0,30,10.0,110.0
16024,72.0,0,30,11.0,110.0
16025,70.0,1,30,11.0,110.0
16026,45.0,2,1,15.0,45.0
16027,64.0,1,60,1.0,97.0
16028,52.0,0,60,2.0,97.0
16029,64.0,2,60,2.0,97.0
16030,52.0,1,60,12.0,110.0
16031,52.0,1,60,13.0,110.0
16032,84.0,10,30,10.0,110.0
16033,82.0,0,30,10.0,110.0
16034,72.0,2,30,11.0,110.0
16035,70.0,0,30,11.0,110.0
16036,45.0,8,2,15.0,45.0
16037,45.0,7,2,15.0,43.0
16038,45.0,15,0,15.0,45.0
16039,53.0,1,40,12.0,100.0
16040,53.0,1,40,13.0,100.0
16041,65.0,1,45,1.0,97.0
16042,84.0,0,30,10.0,110.0
16043,82.0,4,30,10.0,110.0
16044,53.0,0,45,2.0,97.0
16045,65.0,2,45,2.0,97.0
16046,72.0,2,30,11.0,110.0
16047,70.0,0,30,11.0,110.0
16048,82.0,0,360,0.0,99.0
16049,57.0,0,120,6.0,105.0
16050,69.0,0,120,6.0,105.0
16051,58.0,10,360,3.0,98.0
16052,45.0,3,3,15.0,45.0
16053,81.0,16,30,10.0,110.0
16054,45.0,14,1,15.0,45.0
16055,84.0,0,30,10.0,110.0
16056,72.0,0,30,11.0,110.0
16057,69.0,1,30,11.0,110.0
16058,45.0,2,15,15.0,43.0
16059,71.0,1,60,1.0,97.0
16060,71.0,0,60,2.0,97.0
16061,59.0,2,60,2.0,97.0
16062,59.0,1,60,12.0,110.0
16063,59.0,1,60,13.0,110.0
16064,81.0,11,30,10.0,110.0
16065,84.0,0,30,10.0,110.0
16066,72.0,2,30,11.0,110.0
16067,69.0,0,30,11.0,110.0
16068,45.0,5,5,15.0,45.0
16069,45.0,6,15,15.0,43.0
16070,60.0,1,40,12.0,100.0
16071,60.0,1,40,13.0,100.0
16072,72.0,1,45,1.0,97.0
16073,81.0,0,30,10.0,110.0
16074,84.0,7,30,10.0,110.0
16075,72.0,0,45,2.0,97.0
16076,60.0,2,45,2.0,97.0
16077,69.0,2,30,11.0,110.0
16078,72.0,0,30,11.0,110.0
16079,45.0,15,15,15.0,43.0
16080,45.0,7,1,15.0,45.0
16081,45.0,13,2,15.0,45.0
16082,81.0,0,30,10.0,110.0
16083,84.0,17,30,10.0,110.0
16084,69.0,0,30,11.0,110.0
16085,72.0,1,30,11.0,110.0
16086,45.0,14,1,15.0,46.0
16087,76.0,2,60,1.0,97.0
16088,64.0,0,60,2.0,97.0
16089,76.0,2,60,2.0,97.0
16090,64.0,1,60,12.0,110.0
16091,64.0,1,60,13.0,110.0
16092,84.0,0,30,10.0,110.0
16093,81.0,12,30,10.0,110.0
16094,72.0,0,30,11.0,110.0
16095,69.0,2,30,11.0,110.0
16096,45.0,8,0,15.0,45.0
16097,45.0,6,3,15.0,45.0
16098,65.0,1,40,12.0,100.0
16099,65.0,1,40,13.0,100.0
16100,77.0,3,45,1.0,86.0
16101,84.0,0,30,10.0,110.0
16102,81.0,4,30,10.0,110.0
16103,65.0,2,45,2.0,85.0
16104,77.0,0,45,2.0,85.0
16105,69.0,2,30,11.0,110.0
16106,72.0,0,30,11.0,110.0
16107,45.0,16,15,15.0,45.0
16108,81.0,1,240,0.0,99.0
16109,84.0,1,360,0.0,99.0
16110,57.0,4,240,3.0,98.0
16111,60.0,4,360,3.0,98.0
16112,45.0,1,5,15.0,45.0
16113,82.0,0,30,10.0,126.0
16114,81.0,1,30,10.0,126.0
16115,70.0,2,30,11.0,126.0
16116,69.0,0,30,11.0,126.0
16117,45.0,19,15,15.0,45.0
16118,45.0,11,4,15.0,46.0
16119,81.0,0,30,10.0,110.0
16120,82.0,8,30,10.0,110.0
16121,70.0,2,30,11.0,110.0
16122,69.0,0,30,11.0,110.0
16123,45.0,17,15,15.0,45.0
16124,45.0,10,15,15.0,45.0
16125,81.0,0,30,10.0,110.0
16126,82.0,4,30,10.0,110.0
16127,70.0,0,30,11.0,110.0
16128,69.0,2,30,11.0,110.0
16129,45.0,16,15,15.0,46.0
16130,45.0,12,3,15.0,43.0
16131,81.0,12,30,10.0,110.0
16132,82.0,0,30,10.0,110.0
16133,45.0,15,0,15.0,46.0
16134,70.0,2,30,11.0,110.0
16135,69.0,0,30,11.0,110.0
16136,45.0,13,2,15.0,45.0
16137,82.0,0,30,10.0,110.0
16138,81.0,10,30,10.0,110.0
16139,69.0,0,30,11.0,110.0
16140,70.0,2,30,11.0,110.0
16141,45.0,6,4,15.0,43.0
16142,82.0,0,30,10.0,110.0
16143,81.0,3,30,10.0,110.0
16144,69.0,0,30,11.0,110.0
16145,70.0,2,30,11.0,110.0
16146,53.0,14,240,7.0,96.0
16147,65.0,1,240,7.0,96.0
16148,45.0,2,4,15.0,43.0
16149,41.0,4,240,8.0,96.0
16150,45.0,3,15,15.0,43.0
16151,81.0,2,30,10.0,110.0
16152,82.0,0,30,10.0,110.0
16153,70.0,0,30,11.0,110.0
16154,69.0,2,30,11.0,110.0
16155,45.0,15,15,15.0,46.0
16156,63.0,9,60,7.0,71.0
16157,45.0,4,15,15.0,43.0
16158,51.0,1,60,7.0,72.0
16159,39.0,7,60,8.0,77.0
16160,81.0,0,30,10.0,110.0
16161,82.0,12,30,10.0,110.0
16162,70.0,0,30,11.0,110.0
16163,69.0,2,30,11.0,110.0
16164,45.0,4,3,15.0,43.0
16165,45.0,7,1,15.0,43.0
16166,62.0,12,45,7.0,73.0
16167,50.0,4,45,7.0,77.0
16168,81.0,0,30,10.0,110.0
16169,82.0,5,30,10.0,110.0
16170,70.0,0,30,11.0,110.0
16171,69.0,2,30,11.0,110.0
16172,38.0,8,45,8.0,73.0
16173,45.0,12,3,15.0,46.0
16174,45.0,10,0,15.0,45.0
16175,82.0,0,30,10.0,110.0
16176,79.0,0,30,10.0,110.0
16177,70.0,0,30,11.0,110.0
16178,67.0,2,30,11.0,110.0
16179,45.0,3,1,15.0,43.0
16180,45.0,2,1,15.0,45.0
16181,62.0,2,60,7.0,82.0
16182,50.0,1,60,7.0,84.0
16183,79.0,0,30,10.0,110.0
16184,82.0,9,30,10.0,110.0
16185,67.0,2,30,11.0,110.0
16186,70.0,0,30,11.0,110.0
16187,38.0,2,60,8.0,83.0
16188,45.0,4,15,15.0,45.0
16189,63.0,12,45,7.0,72.0
16190,51.0,1,45,7.0,72.0
16191,45.0,9,15,15.0,43.0
16192,82.0,0,30,10.0,110.0
16193,79.0,5,30,10.0,110.0
16194,70.0,0,30,11.0,110.0
16195,67.0,2,30,11.0,110.0
16196,39.0,11,45,8.0,73.0
16197,45.0,1,5,15.0,45.0
16198,82.0,0,30,10.0,110.0
16199,79.0,2,30,10.0,110.0
16200,70.0,0,30,11.0,110.0
16201,67.0,2,30,11.0,110.0
16202,45.0,5,15,15.0,46.0
16203,45.0,4,1,15.0,46.0
16204,66.0,9,60,7.0,88.0
16205,54.0,0,60,7.0,85.0
16206,79.0,0,30,10.0,110.0
16207,82.0,8,30,10.0,110.0
16208,70.0,2,30,11.0,110.0
16209,67.0,0,30,11.0,110.0
16210,42.0,10,60,8.0,87.0
16211,45.0,5,1,15.0,43.0
16212,67.0,9,45,7.0,82.0
16213,45.0,13,2,15.0,45.0
16214,55.0,0,45,7.0,80.0
16215,79.0,0,30,10.0,110.0
16216,82.0,4,30,10.0,110.0
16217,67.0,0,30,11.0,110.0
16218,70.0,2,30,11.0,110.0
16219,43.0,9,45,8.0,83.0
16220,45.0,0,15,15.0,46.0
16221,82.0,0,30,10.0,110.0
16222,79.0,5,30,10.0,110.0
16223,45.0,14,1,15.0,45.0
16224,67.0,0,30,11.0,110.0
16225,70.0,0,30,11.0,110.0
16226,69.0,11,60,7.0,91.0
16227,45.0,5,15,15.0,45.0
16228,57.0,2,60,7.0,88.0
16229,79.0,9,30,10.0,110.0
16230,82.0,0,30,10.0,110.0
16231,45.0,9,60,8.0,92.0
16232,67.0,2,30,11.0,110.0
16233,70.0,0,30,11.0,110.0
16234,45.0,6,2,15.0,46.0
16235,45.0,9,0,15.0,46.0
16236,70.0,8,45,7.0,84.0
16237,58.0,3,45,7.0,84.0
16238,45.0,15,0,15.0,45.0
16239,79.0,0,30,10.0,110.0
16240,82.0,4,30,10.0,110.0
16241,70.0,0,30,11.0,110.0
16242,67.0,2,30,11.0,110.0
16243,46.0,7,45,8.0,84.0
16244,45.0,0,1,15.0,46.0
16245,82.0,2,30,10.0,110.0
16246,80.0,0,30,10.0,110.0
16247,74.0,2,30,11.0,110.0
16248,65.0,0,30,11.0,110.0
16249,45.0,11,4,15.0,43.0
16250,67.0,12,60,7.0,84.0
16251,45.0,1,1,15.0,43.0
16252,55.0,1,60,7.0,84.0
16253,80.0,11,30,10.0,110.0
16254,82.0,0,30,10.0,110.0
16255,74.0,2,30,11.0,110.0
16256,65.0,0,30,11.0,110.0
16257,43.0,12,60,8.0,85.0
16258,45.0,4,0,15.0,43.0
16259,68.0,9,45,7.0,79.0
16260,56.0,4,45,7.0,82.0
16261,45.0,14,1,15.0,45.0
16262,82.0,0,30,10.0,110.0
16263,80.0,4,30,10.0,110.0
16264,65.0,2,30,11.0,110.0
16265,74.0,0,30,11.0,110.0
16266,44.0,11,45,8.0,77.0
16267,45.0,5,2,15.0,45.0
16268,82.0,2,30,10.0,110.0
16269,80.0,0,30,10.0,110.0
16270,45.0,13,2,15.0,49.0
16271,74.0,2,30,11.0,110.0
16272,65.0,0,30,11.0,110.0
16273,69.0,13,60,7.0,92.0
16274,57.0,0,60,7.0,91.0
16275,45.0,2,15,15.0,47.0
16276,80.0,11,30,10.0,110.0
16277,82.0,0,30,10.0,110.0
16278,45.0,8,60,8.0,92.0
16279,74.0,2,30,11.0,110.0
16280,65.0,0,30,11.0,110.0
16281,45.0,3,1,15.0,49.0
16282,70.0,11,45,7.0,86.0
16283,58.0,6,45,7.0,91.0
16284,45.0,13,2,15.0,50.0
16285,80.0,0,30,10.0,110.0
16286,82.0,5,30,10.0,110.0
16287,65.0,0,30,11.0,110.0
16288,74.0,2,30,11.0,110.0
16289,46.0,11,45,8.0,91.0
16290,45.0,2,4,15.0,50.0
16291,82.0,0,30,10.0,110.0
16292,80.0,4,30,10.0,110.0
16293,74.0,0,30,11.0,110.0
16294,65.0,2,30,11.0,110.0
16295,45.0,17,15,15.0,49.0
16296,73.0,11,60,7.0,100.0
16297,61.0,0,60,7.0,99.0
16298,45.0,5,15,15.0,52.0
16299,80.0,0,30,10.0,110.0
16300,82.0,10,30,10.0,110.0
16301,49.0,9,60,8.0,100.0
16302,65.0,2,30,11.0,110.0
16303,74.0,0,30,11.0,110.0
16304,45.0,5,2,15.0,52.0
16305,74.0,10,45,7.0,103.0
16306,62.0,4,45,7.0,95.0
16307,45.0,10,15,15.0,54.0
16308,80.0,4,30,10.0,110.0
16309,82.0,0,30,10.0,110.0
16310,65.0,2,30,11.0,110.0
16311,74.0,0,30,11.0,110.0
16312,50.0,8,45,8.0,96.0
16313,45.0,2,3,15.0,52.0
16314,82.0,0,30,10.0,110.0
16315,80.0,0,30,10.0,110.0
16316,65.0,0,30,11.0,110.0
16317,74.0,2,30,11.0,110.0
16318,45.0,12,3,15.0,52.0
16319,61.0,10,60,7.0,96.0
16320,73.0,0,60,7.0,106.0
16321,45.0,10,5,15.0,55.0
16322,80.0,0,30,10.0,110.0
16323,82.0,10,30,10.0,110.0
16324,74.0,0,30,11.0,110.0
16325,65.0,2,30,11.0,110.0
16326,49.0,12,60,8.0,101.0
16327,45.0,6,5,15.0,55.0
16328,45.0,15,0,15.0,55.0
16329,74.0,1,45,7.0,93.0
16330,62.0,3,45,7.0,95.0
16331,82.0,0,30,10.0,110.0
16332,80.0,2,30,10.0,110.0
16333,74.0,0,30,11.0,110.0
16334,65.0,2,30,11.0,110.0
16335,45.0,15,0,15.0,56.0
16336,50.0,11,45,8.0,101.0
16337,82.0,2,30,10.0,110.0
16338,80.0,0,30,10.0,110.0
16339,45.0,6,15,15.0,57.0
16340,74.0,0,30,11.0,110.0
16341,65.0,0,30,11.0,110.0
16342,45.0,5,0,15.0,56.0
16343,76.0,0,60,7.0,109.0
16344,64.0,2,60,7.0,109.0
16345,45.0,1,0,15.0,57.0
16346,80.0,0,30,10.0,110.0
16347,52.0,8,60,8.0,102.0
16348,82.0,8,30,10.0,110.0
16349,74.0,2,30,11.0,110.0
16350,65.0,0,30,11.0,110.0
16351,45.0,7,4,15.0,57.0
16352,77.0,11,45,7.0,99.0
16353,65.0,3,45,7.0,101.0
16354,82.0,2,30,10.0,110.0
16355,80.0,0,30,10.0,110.0
16356,65.0,2,30,11.0,110.0
16357,74.0,0,30,11.0,110.0
16358,53.0,9,45,8.0,100.0
16359,45.0,16,15,15.0,59.0
16360,45.0,1,15,15.0,59.0
16361,80.0,1,30,10.0,110.0
16362,82.0,0,30,10.0,110.0
16363,65.0,1,30,11.0,110.0
16364,74.0,0,30,11.0,110.0
16365,45.0,12,3,15.0,59.0
16366,45.0,1,2,15.0,59.0
16367,79.0,12,60,7.0,113.0
16368,45.0,15,0,15.0,62.0
16369,67.0,2,60,7.0,117.0
16370,80.0,0,30,10.0,110.0
16371,82.0,10,30,10.0,110.0
16372,65.0,2,30,11.0,110.0
16373,74.0,0,30,11.0,110.0
16374,55.0,13,60,8.0,116.0
16375,45.0,6,4,15.0,60.0
16376,80.0,1,45,7.0,107.0
16377,68.0,2,45,7.0,107.0
16378,80.0,0,30,10.0,110.0
16379,82.0,3,30,10.0,110.0
16380,65.0,2,30,11.0,110.0
16381,74.0,0,30,11.0,110.0
16382,56.0,13,45,8.0,107.0
16383,45.0,17,15,15.0,62.0
16384,45.0,5,1440,13.0,100.0
16385,33.0,5,2880,14.0,100.0
16386,45.0,0,15,15.0,62.0
16387,86.0,1,30,10.0,110.0
16388,45.0,14,1,15.0,60.0
16389,69.0,0,30,11.0,110.0
16390,77.0,2,30,11.0,110.0
16391,80.0,14,60,7.0,120.0
16392,45.0,6,15,15.0,66.0
16393,68.0,0,60,7.0,120.0
16394,56.0,2,60,8.0,120.0
16395,86.0,9,30,10.0,110.0
16396,69.0,2,30,11.0,110.0
16397,77.0,0,30,11.0,110.0
16398,44.0,2,60,8.0,122.0
16399,45.0,3,3,15.0,66.0
16400,81.0,10,45,7.0,112.0
16401,69.0,3,45,7.0,109.0
16402,45.0,12,3,15.0,69.0
16403,86.0,5,30,10.0,110.0
16404,69.0,2,30,11.0,110.0
16405,77.0,0,30,11.0,110.0
16406,57.0,7,45,8.0,111.0
16407,45.0,2,45,8.0,110.0
16408,45.0,3,1,15.0,66.0
16409,81.0,2,30,10.0,110.0
16410,45.0,15,0,15.0,69.0
16411,69.0,2,30,11.0,110.0
16412,77.0,0,30,11.0,110.0
16413,85.0,14,60,7.0,123.0
16414,73.0,0,60,7.0,123.0
16415,45.0,5,15,15.0,66.0
16416,81.0,9,30,10.0,110.0
16417,61.0,8,60,8.0,123.0
16418,69.0,2,30,11.0,110.0
16419,77.0,0,30,11.0,110.0
16420,49.0,3,60,8.0,123.0
16421,45.0,2,15,15.0,69.0
16422,45.0,10,1,15.0,69.0
16423,74.0,12,45,7.0,110.0
16424,86.0,1,45,7.0,113.0
16425,45.0,13,2,15.0,71.0
16426,81.0,2,30,10.0,110.0
16427,77.0,2,30,11.0,110.0
16428,69.0,0,30,11.0,110.0
16429,57.0,5,225,13.0,100.0
16430,62.0,8,45,8.0,113.0
16431,45.0,3,225,14.0,100.0
16432,45.0,13,2,15.0,72.0
16433,50.0,5,45,8.0,110.0
16434,57.0,1,240,6.0,125.0
16435,69.0,0,240,6.0,125.0
16436,45.0,0,15,15.0,73.0
16437,86.0,2,30,10.0,110.0
16438,77.0,2,30,11.0,110.0
16439,69.0,0,30,11.0,110.0
16440,45.0,1,4,15.0,72.0
16441,50.0,6,45,13.0,100.0
16442,38.0,3,45,14.0,100.0
16443,88.0,0,60,7.0,125.0
16444,76.0,0,60,7.0,124.0
16445,86.0,8,30,10.0,110.0
16446,64.0,2,60,8.0,124.0
16447,77.0,0,30,11.0,110.0
16448,69.0,2,30,11.0,110.0
16449,52.0,1,60,8.0,125.0
16450,45.0,1,2,15.0,76.0
16451,89.0,15,45,7.0,111.0
16452,77.0,3,45,7.0,111.0
16453,45.0,10,15,15.0,76.0
16454,86.0,5,30,10.0,110.0
16455,77.0,2,30,11.0,110.0
16456,69.0,0,30,11.0,110.0
16457,45.0,6,45,13.0,100.0
16458,33.0,5,45,14.0,100.0
16459,53.0,1,45,8.0,111.0
16460,65.0,0,45,8.0,113.0
16461,45.0,2,4,15.0,77.0
16462,89.0,1,30,10.0,110.0
16463,69.0,2,30,11.0,110.0
16464,77.0,0,30,11.0,110.0
16465,45.0,10,5,15.0,77.0
16466,45.0,1,0,15.0,80.0
16467,92.0,9,60,7.0,127.0
16468,80.0,1,60,7.0,124.0
16469,89.0,12,30,10.0,110.0
16470,56.0,3,60,8.0,125.0
16471,77.0,0,30,11.0,110.0
16472,69.0,2,30,11.0,110.0
16473,45.0,3,15,15.0,79.0
16474,68.0,2,60,8.0,124.0
16475,45.0,2,15,15.0,77.0
16476,93.0,13,45,7.0,114.0
16477,81.0,2,45,7.0,114.0
16478,45.0,10,15,15.0,79.0
16479,89.0,3,30,10.0,110.0
16480,69.0,0,30,11.0,110.0
16481,77.0,2,30,11.0,110.0
16482,69.0,10,45,8.0,116.0
16483,57.0,4,45,8.0,114.0
16484,45.0,0,4,15.0,80.0
16485,45.0,3,15,15.0,83.0
16486,86.0,1,30,10.0,110.0
16487,69.0,0,30,11.0,110.0
16488,77.0,2,30,11.0,110.0
16489,45.0,6,0,15.0,84.0
16490,97.0,10,60,7.0,127.0
16491,85.0,1,60,7.0,127.0
16492,45.0,1,5,15.0,83.0
16493,86.0,7,30,10.0,110.0
16494,61.0,9,60,8.0,127.0
16495,73.0,0,60,8.0,127.0
16496,69.0,2,30,11.0,110.0
16497,77.0,0,30,11.0,110.0
16498,45.0,12,15,15.0,84.0
16499,98.0,9,45,7.0,118.0
16500,45.0,8,15,15.0,84.0
16501,86.0,4,45,7.0,120.0
16502,86.0,5,30,10.0,110.0
16503,69.0,2,30,11.0,110.0
16504,77.0,0,30,11.0,110.0
16505,57.0,5,225,13.0,100.0
16506,45.0,2,225,14.0,100.0
16507,62.0,0,45,8.0,120.0
16508,74.0,1,45,8.0,121.0
16509,74.0,0,240,6.0,125.0
16510,45.0,1,2,15.0,89.0
16511,62.0,0,240,6.0,125.0
16512,45.0,1,0,15.0,89.0
16513,89.0,0,30,10.0,110.0
16514,69.0,0,30,11.0,110.0
16515,77.0,1,30,11.0,110.0
16516,45.0,6,0,15.0,90.0
16517,50.0,6,45,13.0,100.0
16518,38.0,5,45,14.0,100.0
16519,100.0,11,60,7.0,127.0
16520,88.0,1,60,7.0,127.0
16521,45.0,1,5,15.0,89.0
16522,89.0,7,30,10.0,110.0
16523,77.0,0,30,11.0,110.0
16524,69.0,2,30,11.0,110.0
16525,76.0,1,60,8.0,127.0
16526,64.0,1,60,8.0,127.0
16527,45.0,1,15,15.0,89.0
16528,101.0,9,45,7.0,127.0
16529,89.0,0,45,7.0,127.0
16530,45.0,14,1,15.0,89.0
16531,89.0,5,30,10.0,110.0
16532,69.0,2,30,11.0,110.0
16533,77.0,0,30,11.0,110.0
16534,45.0,10,45,13.0,100.0
16535,77.0,2,45,8.0,127.0
16536,33.0,3,45,14.0,100.0
16537,65.0,1,45,8.0,127.0
16538,57.0,0,3600,4.0,100.0
16539,45.0,0,3600,4.0,100.0
16540,105.0,12,60,7.0,127.0
16541,93.0,0,60,7.0,127.0
16542,69.0,2,60,8.0,127.0
16543,81.0,0,60,8.0,127.0
16544,86.0,0,105,0.0,99.0
16545,93.0,1,105,0.0,99.0
16546,76.0,0,105,6.0,127.0
16547,74.0,1,105,6.0,127.0
16548,69.0,0,105,1.0,97.0
16549,64.0,1,105,4.0,100.0
16550,62.0,0,105,4.0,100.0
16551,81.0,0,105,1.0,97.0
16552,81.0,2,105,2.0,97.0
16553,69.0,0,105,2.0,97.0
16554,45.0,4,105,3.0,98.0
16555,57.0,0,105,3.0,98.0
16556,93.0,0,120,10.0,100.0
16557,69.0,1,120,10.0,100.0
16558,69.0,1,120,11.0,100.0
16559,81.0,0,120,11.0,100.0
16560,64.0,0,120,12.0,100.0
16561,74.0,1,120,12.0,100.0
16562,57.0,1,120,13.0,100.0
16563,45.0,1,120,14.0,100.0
16564,45.0,0,120,15.0,97.0
16565,93.0,103,120,7.0,127.0
16566,81.0,2,120,7.0,127.0
16567,88.0,2,120,7.0,127.0
16568,86.0,1,120,7.0,127.0
16569,52.0,8,120,8.0,127.0
16570,45.0,1,120,8.0,127.0
16571,57.0,3,120,8.0,127.0
16572,50.0,0,120,8.0,127.0
16573,93.0,0,25,10.0,90.0
16574,69.0,105,25,10.0,90.0
16575,86.0,0,25,0.0,91.0
16576,93.0,1,25,0.0,91.0
16577,86.0,1,25,11.0,90.0
16578,69.0,0,25,11.0,90.0
16579,74.0,0,25,6.0,119.0
16580,76.0,1,25,6.0,119.0
16581,62.0,0,25,4.0,92.0
16582,64.0,1,25,4.0,92.0
16583,69.0,0,25,1.0,89.0
16584,81.0,0,25,1.0,89.0
16585,81.0,2,25,2.0,89.0
16586,69.0,0,25,2.0,89.0
16587,74.0,1,25,12.0,90.0
16588,64.0,0,25,12.0,90.0
16589,57.0,1,25,13.0,90.0
16590,57.0,0,25,3.0,90.0
16591,45.0,4,25,3.0,90.0
16592,45.0,1,25,14.0,90.0
16593,45.0,2,40,15.0,86.0
16594,93.0,0,25,10.0,90.0
16595,69.0,25,25,10.0,90.0
16596,86.0,0,25,0.0,91.0
16597,93.0,1,25,0.0,91.0
16598,86.0,1,25,11.0,90.0
16599,69.0,0,25,11.0,90.0
16600,76.0,0,25,6.0,119.0
16601,74.0,1,25,6.0,119.0
16602,62.0,0,25,4.0,92.0
16603,69.0,0,25,1.0,89.0
16604,81.0,0,25,1.0,89.0
16605,64.0,1,25,4.0,92.0
16606,81.0,0,25,2.0,89.0
16607,69.0,2,25,2.0,89.0
16608,74.0,1,25,12.0,90.0
16609,64.0,0,25,12.0,90.0
16610,57.0,1,25,13.0,90.0
16611,45.0,4,25,3.0,90.0
16612,57.0,0,25,3.0,90.0
16613,45.0,1,25,14.0,90.0
16614,45.0,2,0,15.0,86.0
16615,93.0,25,25,10.0,90.0
16616,69.0,0,25,10.0,90.0
16617,93.0,0,25,0.0,91.0
16618,86.0,1,25,0.0,91.0
16619,86.0,0,25,11.0,90.0
16620,69.0,1,25,11.0,90.0
16621,76.0,0,25,6.0,119.0
16622,74.0,1,25,6.0,119.0
16623,81.0,1,25,1.0,89.0
16624,69.0,0,25,1.0,89.0
16625,62.0,0,25,4.0,92.0
16626,64.0,0,25,4.0,92.0
16627,69.0,0,25,2.0,89.0
16628,81.0,2,25,2.0,89.0
16629,74.0,0,25,12.0,90.0
16630,64.0,1,25,12.0,90.0
16631,57.0,1,25,13.0,90.0
16632,57.0,4,25,3.0,90.0
16633,45.0,0,25,3.0,90.0
16634,45.0,1,25,14.0,90.0
16635,86.0,0,105,0.0,91.0
16636,93.0,1,105,0.0,91.0
16637,74.0,1,105,6.0,119.0
16638,76.0,0,105,6.0,119.0
16639,62.0,0,105,4.0,92.0
16640,69.0,0,105,1.0,89.0
16641,81.0,0,105,1.0,89.0
16642,64.0,1,105,4.0,92.0
16643,81.0,2,105,2.0,89.0
16644,69.0,0,105,2.0,89.0
16645,57.0,4,105,3.0,90.0
16646,45.0,0,105,3.0,90.0
16647,93.0,0,120,10.0,90.0
16648,69.0,25,120,10.0,90.0
16649,69.0,0,120,11.0,90.0
16650,86.0,1,120,11.0,90.0
16651,74.0,0,120,12.0,90.0
16652,64.0,1,120,12.0,90.0
16653,57.0,1,120,13.0,90.0
16654,45.0,1,120,14.0,90.0
16655,45.0,2,120,15.0,89.0
16656,81.0,103,120,7.0,127.0
16657,88.0,0,120,7.0,127.0
16658,93.0,2,120,7.0,127.0
16659,86.0,3,120,7.0,127.0
16660,57.0,8,120,8.0,127.0
16661,45.0,1,120,8.0,127.0
16662,52.0,1,120,8.0,127.0
16663,50.0,1,120,8.0,127.0
16664,69.0,106,25,10.0,90.0
16665,93.0,0,25,10.0,90.0
16666,86.0,0,25,0.0,91.0
16667,93.0,1,25,0.0,91.0
16668,69.0,1,25,11.0,90.0
16669,86.0,0,25,11.0,90.0
16670,74.0,1,25,6.0,119.0
16671,76.0,0,25,6.0,119.0
16672,64.0,0,25,4.0,92.0
16673,81.0,1,25,1.0,89.0
16674,69.0,0,25,1.0,89.0
16675,62.0,0,25,4.0,92.0
16676,69.0,0,25,2.0,89.0
16677,81.0,2,25,2.0,89.0
16678,74.0,0,25,12.0,90.0
16679,64.0,1,25,12.0,90.0
16680,57.0,1,25,13.0,90.0
16681,57.0,4,25,3.0,90.0
16682,45.0,0,25,3.0,90.0
16683,45.0,1,25,14.0,90.0
16684,45.0,2,0,15.0,86.0
16685,69.0,25,25,10.0,90.0
16686,93.0,0,25,10.0,90.0
16687,93.0,1,25,0.0,91.0
16688,86.0,0,25,0.0,91.0
16689,69.0,1,25,11.0,90.0
16690,86.0,0,25,11.0,90.0
16691,76.0,1,25,6.0,119.0
16692,74.0,0,25,6.0,119.0
16693,69.0,0,25,1.0,89.0
16694,64.0,0,25,4.0,92.0
16695,81.0,1,25,1.0,89.0
16696,62.0,0,25,4.0,92.0
16697,81.0,0,25,2.0,89.0
16698,69.0,2,25,2.0,89.0
16699,74.0,0,25,12.0,90.0
16700,64.0,1,25,12.0,90.0
16701,57.0,1,25,13.0,90.0
16702,57.0,4,25,3.0,90.0
16703,45.0,0,25,3.0,90.0
16704,45.0,1,25,14.0,90.0
16705,93.0,0,25,10.0,90.0
16706,69.0,25,25,10.0,90.0
16707,86.0,1,25,0.0,91.0
16708,93.0,0,25,0.0,91.0
16709,86.0,0,25,11.0,90.0
16710,69.0,1,25,11.0,90.0
16711,76.0,1,25,6.0,119.0
16712,74.0,0,25,6.0,119.0
16713,62.0,0,25,4.0,92.0
16714,64.0,1,25,4.0,92.0
16715,81.0,0,25,1.0,89.0
16716,69.0,0,25,1.0,89.0
16717,81.0,0,25,2.0,89.0
16718,69.0,2,25,2.0,89.0
16719,74.0,1,25,12.0,90.0
16720,64.0,0,25,12.0,90.0
16721,57.0,1,25,13.0,90.0
16722,45.0,0,25,3.0,90.0
16723,57.0,4,25,3.0,90.0
16724,45.0,1,25,14.0,90.0
16725,45.0,2,40,15.0,86.0
16726,93.0,0,105,0.0,91.0
16727,85.0,1,105,0.0,91.0
16728,76.0,1,105,6.0,119.0
16729,69.0,0,105,6.0,119.0
16730,45.0,0,105,4.0,92.0
16731,57.0,0,105,4.0,92.0
16732,81.0,0,105,1.0,89.0
16733,69.0,1,105,1.0,89.0
16734,73.0,2,105,2.0,89.0
16735,76.0,0,105,2.0,89.0
16736,64.0,4,105,3.0,90.0
16737,61.0,0,105,3.0,90.0
16738,93.0,0,120,10.0,90.0
16739,69.0,25,120,10.0,90.0
16740,69.0,0,120,11.0,90.0
16741,85.0,1,120,11.0,90.0
16742,73.0,1,120,12.0,90.0
16743,64.0,0,120,12.0,90.0
16744,57.0,0,120,13.0,90.0
16745,45.0,1,120,13.0,90.0
16746,33.0,1,120,14.0,90.0
16747,45.0,2,120,15.0,89.0
16748,88.0,0,120,7.0,127.0
16749,85.0,103,120,7.0,127.0
16750,81.0,0,120,7.0,127.0
16751,93.0,2,120,7.0,127.0
16752,45.0,0,120,8.0,127.0
16753,52.0,12,120,8.0,127.0
16754,57.0,1,120,8.0,127.0
16755,49.0,2,120,8.0,127.0
16756,93.0,105,25,10.0,90.0
16757,69.0,0,25,10.0,90.0
16758,93.0,0,25,0.0,91.0
16759,85.0,1,25,0.0,91.0
16760,69.0,1,25,11.0,90.0
16761,85.0,0,25,11.0,90.0
16762,69.0,0,25,6.0,119.0
16763,76.0,1,25,6.0,119.0
16764,69.0,0,25,1.0,89.0
16765,45.0,1,25,4.0,92.0
16766,81.0,0,25,1.0,89.0
16767,57.0,0,25,4.0,92.0
16768,76.0,0,25,2.0,89.0
16769,73.0,2,25,2.0,89.0
16770,73.0,1,25,12.0,90.0
16771,64.0,0,25,12.0,90.0
16772,45.0,1,25,13.0,90.0
16773,57.0,0,25,13.0,90.0
16774,64.0,4,25,3.0,90.0
16775,61.0,0,25,3.0,90.0
16776,33.0,1,25,14.0,90.0
16777,45.0,2,40,15.0,86.0
16778,93.0,0,25,10.0,90.0
16779,69.0,25,25,10.0,90.0
16780,85.0,1,25,0.0,91.0
16781,93.0,0,25,0.0,91.0
16782,85.0,0,25,11.0,90.0
16783,69.0,1,25,11.0,90.0
16784,69.0,1,25,6.0,119.0
16785,76.0,0,25,6.0,119.0
16786,69.0,1,25,1.0,89.0
16787,81.0,0,25,1.0,89.0
16788,57.0,0,25,4.0,92.0
16789,45.0,0,25,4.0,92.0
16790,76.0,2,25,2.0,89.0
16791,73.0,0,25,2.0,89.0
16792,73.0,0,25,12.0,90.0
16793,64.0,1,25,12.0,90.0
16794,57.0,1,25,13.0,90.0
16795,45.0,0,25,13.0,90.0
16796,61.0,0,25,3.0,90.0
16797,64.0,4,25,3.0,90.0
16798,33.0,1,25,14.0,90.0
16799,45.0,2,0,15.0,86.0
16800,93.0,25,25,10.0,90.0
16801,69.0,0,25,10.0,90.0
16802,93.0,0,25,0.0,91.0
16803,85.0,1,25,0.0,91.0
16804,85.0,1,25,11.0,90.0
16805,69.0,0,25,11.0,90.0
16806,76.0,1,25,6.0,119.0
16807,69.0,0,25,6.0,119.0
16808,57.0,0,25,4.0,92.0
16809,81.0,1,25,1.0,89.0
16810,69.0,0,25,1.0,89.0
16811,45.0,0,25,4.0,92.0
16812,73.0,2,25,2.0,89.0
16813,76.0,0,25,2.0,89.0
16814,64.0,1,25,12.0,90.0
16815,73.0,0,25,12.0,90.0
16816,57.0,0,25,13.0,90.0
16817,45.0,1,25,13.0,90.0
16818,64.0,4,25,3.0,90.0
16819,61.0,0,25,3.0,90.0
16820,33.0,1,25,14.0,90.0
16821,84.0,1,105,0.0,91.0
16822,93.0,0,105,0.0,91.0
16823,69.0,1,105,6.0,119.0
16824,76.0,0,105,6.0,119.0
16825,69.0,0,105,1.0,89.0
16826,81.0,0,105,1.0,89.0
16827,45.0,1,105,4.0,92.0
16828,57.0,0,105,4.0,92.0
16829,76.0,0,105,2.0,89.0
16830,72.0,2,105,2.0,89.0
16831,60.0,0,105,3.0,90.0
16832,64.0,4,105,3.0,90.0
16833,93.0,25,120,10.0,90.0
16834,69.0,0,120,10.0,90.0
16835,84.0,1,120,11.0,90.0
16836,69.0,0,120,11.0,90.0
16837,64.0,1,120,12.0,90.0
16838,72.0,0,120,12.0,90.0
16839,57.0,1,120,13.0,90.0
16840,45.0,0,120,13.0,90.0
16841,33.0,1,120,14.0,90.0
16842,45.0,2,120,15.0,89.0
16843,93.0,103,120,7.0,127.0
16844,84.0,0,120,7.0,127.0
16845,88.0,0,120,7.0,127.0
16846,81.0,4,120,7.0,127.0
16847,52.0,0,120,8.0,127.0
16848,45.0,8,120,8.0,127.0
16849,48.0,1,120,8.0,127.0
16850,57.0,0,120,8.0,127.0
16851,69.0,109,25,10.0,90.0
16852,93.0,0,25,10.0,90.0
16853,84.0,1,25,0.0,91.0
16854,93.0,0,25,0.0,91.0
16855,84.0,0,25,11.0,90.0
16856,69.0,1,25,11.0,90.0
16857,76.0,0,25,6.0,119.0
16858,69.0,1,25,6.0,119.0
16859,81.0,0,25,1.0,89.0
16860,57.0,1,25,4.0,92.0
16861,45.0,0,25,4.0,92.0
16862,69.0,0,25,1.0,89.0
16863,72.0,2,25,2.0,89.0
16864,76.0,0,25,2.0,89.0
16865,72.0,0,25,12.0,90.0
16866,64.0,1,25,12.0,90.0
16867,57.0,1,25,13.0,90.0
16868,45.0,0,25,13.0,90.0
16869,60.0,4,25,3.0,90.0
16870,64.0,0,25,3.0,90.0
16871,33.0,1,25,14.0,90.0
16872,45.0,2,0,15.0,86.0
16873,69.0,25,25,10.0,90.0
16874,93.0,0,25,10.0,90.0
16875,84.0,1,25,0.0,91.0
16876,93.0,0,25,0.0,91.0
16877,84.0,1,25,11.0,90.0
16878,69.0,0,25,11.0,90.0
16879,69.0,0,25,6.0,119.0
16880,76.0,1,25,6.0,119.0
16881,57.0,0,25,4.0,92.0
16882,45.0,0,25,4.0,92.0
16883,81.0,1,25,1.0,89.0
16884,69.0,0,25,1.0,89.0
16885,76.0,2,25,2.0,89.0
16886,72.0,0,25,2.0,89.0
16887,64.0,0,25,12.0,90.0
16888,72.0,1,25,12.0,90.0
16889,57.0,1,25,13.0,90.0
16890,45.0,0,25,13.0,90.0
16891,60.0,0,25,3.0,90.0
16892,64.0,4,25,3.0,90.0
16893,33.0,1,25,14.0,90.0
16894,69.0,25,25,10.0,90.0
16895,93.0,0,25,10.0,90.0
16896,93.0,0,25,0.0,91.0
16897,84.0,1,25,0.0,91.0
16898,84.0,1,25,11.0,90.0
16899,69.0,0,25,11.0,90.0
16900,69.0,0,25,6.0,119.0
16901,76.0,1,25,6.0,119.0
16902,45.0,0,25,4.0,92.0
16903,57.0,1,25,4.0,92.0
16904,69.0,0,25,1.0,89.0
16905,81.0,0,25,1.0,89.0
16906,76.0,0,25,2.0,89.0
16907,72.0,2,25,2.0,89.0
16908,64.0,0,25,12.0,90.0
16909,72.0,1,25,12.0,90.0
16910,57.0,0,25,13.0,90.0
16911,45.0,1,25,13.0,90.0
16912,60.0,0,25,3.0,90.0
16913,64.0,4,25,3.0,90.0
16914,33.0,1,25,14.0,90.0
16915,45.0,2,0,15.0,89.0
16916,69.0,0,60,10.0,90.0
16917,93.0,25,60,10.0,90.0
16918,62.0,0,60,11.0,90.0
16919,69.0,1,60,11.0,90.0
16920,83.0,0,60,11.0,90.0
16921,71.0,0,60,12.0,90.0
16922,57.0,1,60,12.0,90.0
16923,57.0,1,60,13.0,90.0
16924,45.0,0,60,13.0,90.0
16925,33.0,1,60,14.0,90.0
16926,93.0,1,105,0.0,91.0
16927,83.0,0,105,0.0,91.0
16928,74.0,1,105,6.0,119.0
16929,69.0,0,105,6.0,119.0
16930,69.0,1,105,1.0,89.0
16931,81.0,0,105,1.0,89.0
16932,57.0,0,105,4.0,92.0
16933,45.0,0,105,4.0,92.0
16934,74.0,0,105,2.0,89.0
16935,71.0,2,105,2.0,89.0
16936,62.0,0,105,3.0,90.0
16937,59.0,4,105,3.0,90.0
16938,86.0,104,120,7.0,127.0
16939,83.0,0,120,7.0,127.0
16940,93.0,1,120,7.0,127.0
16941,81.0,1,120,7.0,127.0
16942,50.0,10,120,8.0,127.0
16943,57.0,0,120,8.0,127.0
16944,45.0,2,120,8.0,127.0
16945,47.0,1,120,8.0,127.0
16946,93.0,0,60,10.0,90.0
16947,69.0,106,60,10.0,90.0
16948,62.0,1,60,11.0,90.0
16949,82.0,0,60,11.0,90.0
16950,69.0,0,60,11.0,90.0
16951,70.0,1,60,12.0,90.0
16952,57.0,0,60,12.0,90.0
16953,57.0,1,60,13.0,90.0
16954,45.0,0,60,13.0,90.0
16955,33.0,1,60,14.0,90.0
16956,93.0,1,105,0.0,91.0
16957,82.0,0,105,0.0,91.0
16958,69.0,1,105,6.0,119.0
16959,74.0,0,105,6.0,119.0
16960,69.0,0,105,1.0,89.0
16961,81.0,0,105,1.0,89.0
16962,57.0,1,105,4.0,92.0
16963,45.0,0,105,4.0,92.0
16964,70.0,0,105,2.0,89.0
16965,74.0,2,105,2.0,89.0
16966,58.0,4,105,3.0,90.0
16967,62.0,0,105,3.0,90.0
16968,45.0,2,120,15.0,89.0
16969,81.0,103,120,7.0,127.0
16970,82.0,0,120,7.0,127.0
16971,86.0,0,120,7.0,127.0
16972,93.0,2,120,7.0,127.0
16973,45.0,10,120,8.0,127.0
16974,57.0,1,120,8.0,127.0
16975,46.0,0,120,8.0,127.0
16976,50.0,4,120,8.0,127.0
16977,69.0,105,60,10.0,90.0
16978,93.0,0,60,10.0,90.0
16979,81.0,1,60,11.0,90.0
16980,69.0,0,60,11.0,90.0
16981,69.0,1,60,12.0,90.0
16982,57.0,0,60,12.0,90.0
16983,45.0,1,60,13.0,90.0
16984,57.0,0,60,13.0,90.0
16985,33.0,1,60,14.0,90.0
16986,81.0,1,105,0.0,91.0
16987,93.0,0,105,0.0,91.0
16988,69.0,0,105,6.0,119.0
16989,57.0,1,105,6.0,119.0
16990,57.0,0,105,4.0,92.0
16991,69.0,1,105,1.0,89.0
16992,81.0,0,105,1.0,89.0
16993,45.0,0,105,4.0,92.0
16994,73.0,0,105,2.0,89.0
16995,69.0,2,105,2.0,89.0
16996,61.0,4,105,3.0,90.0
16997,57.0,0,105,3.0,90.0
16998,45.0,2,120,15.0,89.0
16999,85.0,103,120,7.0,127.0
17000,93.0,1,120,7.0,127.0
17001,81.0,1,120,7.0,127.0
17002,49.0,0,120,8.0,127.0
17003,57.0,10,120,8.0,127.0
17004,45.0,3,120,8.0,127.0
17005,93.0,107,60,10.0,90.0
17006,69.0,0,60,10.0,90.0
17007,79.0,0,60,11.0,90.0
17008,69.0,1,60,11.0,90.0
17009,69.0,1,60,12.0,90.0
17010,67.0,0,60,12.0,90.0
17011,55.0,0,60,13.0,90.0
17012,45.0,1,60,13.0,90.0
17013,33.0,1,60,14.0,90.0
17014,93.0,1,105,0.0,91.0
17015,91.0,0,105,0.0,91.0
17016,57.0,0,105,6.0,119.0
17017,69.0,1,105,6.0,119.0
17018,45.0,0,105,4.0,92.0
17019,57.0,0,105,4.0,92.0
17020,85.0,1,105,1.0,89.0
17021,79.0,0,105,1.0,89.0
17022,67.0,2,105,2.0,89.0
17023,73.0,0,105,2.0,89.0
17024,61.0,4,105,3.0,90.0
17025,55.0,0,105,3.0,90.0
17026,45.0,2,120,15.0,89.0
17027,81.0,102,120,7.0,127.0
17028,69.0,4,120,7.0,127.0
17029,79.0,1,120,7.0,127.0
17030,67.0,1,120,7.0,127.0
17031,43.0,8,120,8.0,127.0
17032,57.0,0,120,8.0,127.0
17033,55.0,0,120,8.0,127.0
17034,45.0,1,120,8.0,127.0
17035,93.0,108,60,10.0,90.0
17036,69.0,0,60,10.0,90.0
17037,77.0,1,60,11.0,90.0
17038,69.0,0,60,11.0,90.0
17039,69.0,1,60,12.0,90.0
17040,65.0,0,60,12.0,90.0
17041,53.0,0,60,13.0,90.0
17042,45.0,1,60,13.0,90.0
17043,33.0,1,60,14.0,90.0
17044,89.0,1,105,0.0,91.0
17045,93.0,0,105,0.0,91.0
17046,69.0,0,105,6.0,119.0
17047,57.0,1,105,6.0,119.0
17048,85.0,0,105,1.0,89.0
17049,57.0,1,105,4.0,92.0
17050,45.0,0,105,4.0,92.0
17051,77.0,0,105,1.0,89.0
17052,73.0,0,105,2.0,89.0
17053,65.0,2,105,2.0,89.0
17054,61.0,4,105,3.0,90.0
17055,53.0,0,105,3.0,90.0
17056,45.0,2,120,15.0,89.0
17057,81.0,102,120,7.0,127.0
17058,69.0,5,120,7.0,127.0
17059,77.0,1,120,7.0,127.0
17060,45.0,7,120,8.0,127.0
17061,53.0,3,120,8.0,127.0
17062,41.0,2,120,8.0,127.0
17063,93.0,0,60,10.0,90.0
17064,69.0,105,60,10.0,90.0
17065,69.0,1,60,11.0,90.0
17066,76.0,0,60,11.0,90.0
17067,69.0,0,60,12.0,90.0
17068,64.0,1,60,12.0,90.0
17069,52.0,0,60,13.0,90.0
17070,45.0,1,60,13.0,90.0
17071,33.0,1,60,14.0,90.0
17072,93.0,1,105,0.0,91.0
17073,88.0,0,105,0.0,91.0
17074,69.0,1,105,6.0,119.0
17075,57.0,0,105,6.0,119.0
17076,57.0,1,105,4.0,92.0
17077,45.0,0,105,4.0,92.0
17078,76.0,0,105,1.0,89.0
17079,85.0,0,105,1.0,89.0
17080,64.0,2,105,2.0,89.0
17081,73.0,0,105,2.0,89.0
17082,61.0,0,105,3.0,90.0
17083,52.0,4,105,3.0,90.0
17084,45.0,2,120,15.0,89.0
17085,69.0,103,105,7.0,127.0
17086,57.0,1,105,7.0,127.0
17087,64.0,3,105,7.0,127.0
17088,33.0,9,105,8.0,127.0
17089,40.0,2,105,8.0,127.0
17090,45.0,1,105,8.0,127.0
17091,50.0,3,15,15.0,97.0
17092,50.0,11,4,15.0,83.0
17093,50.0,17,15,15.0,80.0
17094,50.0,10,5,15.0,79.0
17095,50.0,14,1,15.0,76.0
17096,50.0,14,1,15.0,77.0
17097,50.0,18,15,15.0,72.0
17098,50.0,12,3,15.0,70.0
17099,50.0,14,1,15.0,71.0
17100,62.0,3,240,10.0,100.0
17101,62.0,1,240,0.0,114.0
17102,62.0,1,240,11.0,100.0
17103,50.0,13,2,15.0,69.0
17104,62.0,1,240,6.0,127.0
17105,50.0,1,240,12.0,100.0
17106,50.0,11,4,15.0,66.0
17107,50.0,13,2,15.0,63.0
17108,50.0,14,1,15.0,62.0
17109,50.0,14,1,15.0,60.0
17110,50.0,11,4,15.0,59.0
17111,50.0,14,1,15.0,56.0
17112,50.0,11,4,15.0,55.0
17113,50.0,18,15,15.0,57.0
17114,50.0,14,1,15.0,55.0
17115,50.0,15,0,15.0,56.0
17116,50.0,11,4,15.0,55.0
17117,50.0,15,0,15.0,53.0
17118,50.0,19,15,15.0,55.0
17119,50.0,14,1,15.0,52.0
17120,50.0,14,1,15.0,52.0
17121,50.0,14,1,15.0,53.0
17122,50.0,13,2,15.0,53.0
17123,50.0,13,2,15.0,52.0
17124,50.0,102,705,7.0,127.0
17125,62.0,1,705,7.0,127.0
17126,26.0,0,705,8.0,127.0
17127,50.0,16,15,15.0,52.0
17128,38.0,0,705,8.0,127.0
17129,50.0,0,710,4.0,127.0
17130,38.0,1,710,4.0,127.0
17131,62.0,2,710,2.0,112.0
17132,50.0,0,710,2.0,112.0
17133,50.0,15,15,15.0,49.0
17134,50.0,4,710,3.0,113.0
17135,38.0,0,710,3.0,113.0
17136,38.0,1,720,13.0,100.0
17137,38.0,1,0,14.0,100.0
17138,50.0,0,15,15.0,46.0
17139,50.0,14,1,15.0,47.0
17140,50.0,10,5,15.0,45.0
17141,50.0,15,15,15.0,46.0
17142,50.0,16,15,15.0,49.0
17143,50.0,13,2,15.0,46.0
17144,50.0,10,5,15.0,49.0
17145,50.0,17,15,15.0,49.0
17146,50.0,10,5,15.0,47.0
17147,50.0,15,0,15.0,46.0
17148,50.0,13,2,15.0,49.0
17149,50.0,15,0,15.0,49.0
17150,50.0,14,1,15.0,45.0
17151,50.0,12,3,15.0,47.0
17152,76.0,12,330,7.0,127.0
17153,71.0,1,330,7.0,127.0
17154,64.0,2,330,7.0,127.0
17155,68.0,1,330,7.0,127.0
17156,50.0,12,3,15.0,49.0
17157,52.0,1,330,8.0,127.0
17158,59.0,1,330,8.0,127.0
17159,56.0,2,330,8.0,127.0
17160,50.0,1,330,8.0,127.0
17161,50.0,15,15,15.0,46.0
17162,50.0,1,15,15.0,49.0
17163,50.0,15,0,15.0,47.0
17164,50.0,15,0,15.0,49.0
17165,50.0,11,4,15.0,49.0
17166,50.0,16,15,15.0,49.0
17167,50.0,12,3,15.0,49.0
17168,50.0,15,0,15.0,46.0
17169,50.0,12,3,15.0,45.0
17170,50.0,18,15,15.0,46.0
17171,50.0,12,3,15.0,45.0
17172,50.0,13,2,15.0,46.0
17173,71.0,11,220,7.0,127.0
17174,59.0,5,220,7.0,127.0
17175,47.0,8,220,8.0,127.0
17176,50.0,18,15,15.0,45.0
17177,50.0,3,15,15.0,45.0
17178,50.0,11,4,15.0,46.0
17179,50.0,16,15,15.0,49.0
17180,50.0,13,2,15.0,49.0
17181,50.0,13,2,15.0,49.0
17182,68.0,13,105,7.0,127.0
17183,56.0,1,105,7.0,127.0
17184,44.0,5,105,8.0,127.0
17185,50.0,17,15,15.0,49.0
17186,50.0,6,5,15.0,46.0
17187,50.0,14,1,15.0,49.0
17188,50.0,11,4,15.0,45.0
17189,80.0,12,105,7.0,127.0
17190,68.0,3,105,7.0,127.0
17191,50.0,11,4,15.0,49.0
17192,56.0,4,105,8.0,127.0
17193,50.0,2,0,15.0,46.0
17194,50.0,11,15,15.0,49.0
17195,50.0,13,2,15.0,45.0
17196,50.0,14,1,15.0,45.0
17197,50.0,15,0,15.0,49.0
17198,83.0,13,105,7.0,127.0
17199,50.0,15,0,15.0,47.0
17200,71.0,4,105,7.0,127.0
17201,59.0,3,105,8.0,127.0
17202,50.0,13,2,15.0,49.0
17203,50.0,13,2,15.0,46.0
17204,50.0,16,15,15.0,46.0
17205,50.0,17,15,15.0,45.0
17206,50.0,17,15,15.0,46.0
17207,50.0,10,5,15.0,47.0
17208,50.0,17,15,15.0,45.0
17209,50.0,14,1,15.0,49.0
17210,50.0,14,1,15.0,50.0
17211,50.0,14,1,15.0,55.0
17212,50.0,10,5,15.0,58.0
17213,50.0,12,3,15.0,61.0
17214,50.0,12,3,15.0,61.0
17215,50.0,10,5,15.0,63.0
17216,50.0,19,15,15.0,64.0
17217,50.0,14,1,15.0,64.0
17218,50.0,0,1,15.0,62.0
17219,50.0,5,2,15.0,61.0
17220,74.0,13,30,7.0,124.0
17221,62.0,1,30,7.0,124.0
17222,50.0,8,30,8.0,125.0
17223,50.0,17,15,15.0,60.0
17224,50.0,1,2,15.0,59.0
17225,76.0,9,30,7.0,124.0
17226,64.0,3,30,7.0,123.0
17227,50.0,10,5,15.0,59.0
17228,52.0,10,30,8.0,121.0
17229,50.0,16,15,15.0,58.0
17230,50.0,9,0,15.0,57.0
17231,77.0,18,27,7.0,127.0
17232,65.0,0,27,7.0,127.0
17233,50.0,8,2,15.0,56.0
17234,53.0,6,27,8.0,127.0
17235,50.0,7,3,15.0,54.0
17236,67.0,3,27,7.0,107.0
17237,79.0,2,27,7.0,109.0
17238,55.0,5,27,8.0,106.0
17239,77.0,0,27,7.0,109.0
17240,50.0,6,15,15.0,52.0
17241,65.0,7,27,7.0,107.0
17242,53.0,4,27,8.0,107.0
17243,50.0,5,2,15.0,53.0
17244,79.0,8,27,7.0,109.0
17245,67.0,6,27,7.0,109.0
17246,50.0,5,0,15.0,52.0
17247,55.0,8,27,8.0,109.0
17248,65.0,2,27,7.0,109.0
17249,77.0,8,27,7.0,109.0
17250,53.0,0,27,8.0,107.0
17251,50.0,7,3,15.0,49.0
17252,67.0,10,27,7.0,106.0
17253,79.0,3,27,7.0,106.0
17254,55.0,5,27,8.0,107.0
17255,65.0,3,27,7.0,109.0
17256,50.0,0,4,15.0,48.0
17257,77.0,4,27,7.0,109.0
17258,53.0,9,27,8.0,106.0
17259,50.0,4,1,15.0,48.0
17260,79.0,9,27,7.0,107.0
17261,67.0,2,27,7.0,107.0
17262,55.0,10,27,8.0,109.0
17263,50.0,9,1,15.0,48.0
17264,77.0,10,26,7.0,109.0
17265,65.0,0,26,7.0,109.0
17266,53.0,5,26,8.0,107.0
17267,67.0,2,26,7.0,107.0
17268,79.0,2,26,7.0,106.0
17269,50.0,3,1,15.0,49.0
17270,55.0,11,26,8.0,107.0
17271,50.0,5,2,15.0,47.0
17272,65.0,0,26,7.0,109.0
17273,77.0,11,26,7.0,109.0
17274,53.0,8,26,8.0,109.0
17275,50.0,4,15,15.0,49.0
17276,67.0,6,26,7.0,107.0
17277,79.0,1,26,7.0,109.0
17278,55.0,4,26,8.0,107.0
17279,65.0,11,13,7.0,107.0
17280,77.0,4,13,7.0,107.0
17281,50.0,4,2,15.0,46.0
17282,53.0,9,13,8.0,107.0
17283,64.0,2,29,7.0,106.0
17284,76.0,0,29,7.0,106.0
17285,50.0,1,0,15.0,47.0
17286,52.0,8,29,8.0,106.0
17287,77.0,14,30,7.0,109.0
17288,65.0,2,30,7.0,107.0
17289,50.0,0,2,15.0,46.0
17290,53.0,8,30,8.0,109.0
17291,50.0,12,3,15.0,47.0
17292,50.0,14,1,15.0,49.0
17293,50.0,12,3,15.0,49.0
17294,64.0,11,84,7.0,117.0
17295,76.0,2,84,7.0,120.0
17296,50.0,14,1,15.0,47.0
17297,52.0,11,84,8.0,117.0
17298,50.0,15,15,15.0,47.0
17299,50.0,2,1,15.0,47.0
17300,50.0,14,1,15.0,47.0
17301,50.0,13,2,15.0,47.0
17302,74.0,14,84,7.0,117.0
17303,62.0,0,84,7.0,117.0
17304,50.0,12,84,8.0,120.0
17305,50.0,13,2,15.0,49.0
17306,50.0,3,15,15.0,49.0
17307,50.0,14,1,15.0,46.0
17308,50.0,14,1,15.0,49.0
17309,50.0,14,1,15.0,46.0
17310,50.0,14,1,15.0,46.0
17311,81.0,14,84,7.0,126.0
17312,69.0,0,84,7.0,122.0
17313,57.0,6,84,8.0,122.0
17314,50.0,14,1,15.0,47.0
17315,50.0,0,15,15.0,45.0
17316,50.0,14,1,15.0,49.0
17317,50.0,14,1,15.0,49.0
17318,50.0,11,4,15.0,49.0
17319,50.0,14,1,15.0,50.0
17320,68.0,17,120,7.0,120.0
17321,80.0,1,120,7.0,117.0
17322,50.0,18,15,15.0,52.0
17323,56.0,7,120,8.0,117.0
17324,50.0,15,15,15.0,52.0
17325,50.0,11,4,15.0,54.0
17326,50.0,13,2,15.0,55.0
17327,50.0,15,15,15.0,57.0
17328,50.0,14,1,15.0,60.0
17329,50.0,11,4,15.0,60.0
17330,50.0,15,15,15.0,60.0
17331,50.0,14,1,15.0,66.0
17332,50.0,14,1,15.0,66.0
17333,50.0,13,2,15.0,63.0
17334,50.0,16,15,15.0,63.0
17335,50.0,12,3,15.0,62.0
17336,50.0,15,0,15.0,60.0
17337,50.0,15,0,15.0,59.0
17338,50.0,14,1,15.0,59.0
17339,50.0,14,1,15.0,57.0
17340,50.0,13,2,15.0,55.0
17341,50.0,14,1,15.0,57.0
17342,50.0,13,2,15.0,54.0
17343,50.0,16,15,15.0,55.0
17344,50.0,5,0,15.0,52.0
17345,50.0,7,2,15.0,53.0
17346,62.0,10,30,7.0,117.0
17347,74.0,0,30,7.0,117.0
17348,50.0,6,30,8.0,117.0
17349,50.0,14,1,15.0,52.0
17350,50.0,1,15,15.0,49.0
17351,64.0,15,30,7.0,117.0
17352,50.0,12,3,15.0,49.0
17353,76.0,1,30,7.0,117.0
17354,52.0,3,30,8.0,117.0
17355,50.0,10,5,15.0,45.0
17356,77.0,2,27,7.0,127.0
17357,50.0,3,15,15.0,49.0
17358,65.0,3,27,7.0,127.0
17359,53.0,9,27,8.0,127.0
17360,67.0,6,27,7.0,109.0
17361,50.0,12,3,15.0,49.0
17362,79.0,5,27,7.0,109.0
17363,55.0,5,27,8.0,109.0
17364,50.0,0,2,15.0,46.0
17365,77.0,3,27,7.0,106.0
17366,65.0,4,27,7.0,109.0
17367,53.0,6,27,8.0,109.0
17368,50.0,4,15,15.0,49.0
17369,67.0,9,27,7.0,106.0
17370,79.0,5,27,7.0,107.0
17371,55.0,2,27,8.0,107.0
17372,50.0,14,15,15.0,46.0
17373,50.0,12,3,15.0,46.0
17374,77.0,3,27,7.0,109.0
17375,65.0,0,27,7.0,106.0
17376,53.0,9,27,8.0,107.0
17377,50.0,2,0,15.0,47.0
17378,79.0,0,27,7.0,107.0
17379,67.0,4,27,7.0,109.0
17380,55.0,9,27,8.0,107.0
17381,50.0,11,4,15.0,49.0
17382,65.0,9,27,7.0,107.0
17383,77.0,4,27,7.0,109.0
17384,53.0,0,27,8.0,109.0
17385,79.0,2,27,7.0,109.0
17386,67.0,2,27,7.0,109.0
17387,50.0,3,5,15.0,49.0
17388,55.0,15,27,8.0,109.0
17389,77.0,4,27,7.0,109.0
17390,65.0,3,27,7.0,109.0
17391,50.0,3,2,15.0,49.0
17392,53.0,11,27,8.0,106.0
17393,50.0,13,2,15.0,49.0
17394,79.0,5,27,7.0,107.0
17395,67.0,1,27,7.0,106.0
17396,55.0,4,26,8.0,107.0
17397,77.0,2,26,7.0,107.0
17398,65.0,0,26,7.0,109.0
17399,50.0,3,15,15.0,49.0
17400,53.0,12,26,8.0,109.0
17401,79.0,4,26,7.0,107.0
17402,67.0,2,26,7.0,109.0
17403,50.0,3,3,15.0,49.0
17404,53.0,9,13,8.0,107.0
17405,65.0,0,13,7.0,107.0
17406,77.0,0,13,7.0,107.0
17407,55.0,9,26,8.0,109.0
17408,50.0,3,15,15.0,49.0
17409,76.0,15,29,7.0,109.0
17410,64.0,1,29,7.0,109.0
17411,50.0,1,2,15.0,49.0
17412,52.0,6,29,8.0,109.0
17413,77.0,11,30,7.0,109.0
17414,65.0,1,30,7.0,109.0
17415,50.0,0,2,15.0,49.0
17416,53.0,8,30,8.0,107.0
17417,50.0,14,1,15.0,49.0
17418,50.0,13,2,15.0,49.0
17419,50.0,16,15,15.0,49.0
17420,64.0,13,84,7.0,117.0
17421,76.0,3,84,7.0,120.0
17422,50.0,13,2,15.0,47.0
17423,52.0,9,84,8.0,117.0
17424,50.0,12,3,15.0,49.0
17425,50.0,3,1,15.0,47.0
17426,50.0,17,15,15.0,47.0
17427,50.0,12,3,15.0,46.0
17428,62.0,0,84,7.0,117.0
17429,74.0,15,84,7.0,117.0
17430,50.0,16,15,15.0,46.0
17431,50.0,11,84,8.0,117.0
17432,50.0,13,2,15.0,47.0
17433,50.0,13,2,15.0,45.0
17434,50.0,15,0,15.0,47.0
17435,50.0,12,3,15.0,46.0
17436,72.0,0,84,7.0,122.0
17437,84.0,3,84,7.0,122.0
17438,50.0,13,2,15.0,45.0
17439,60.0,8,84,8.0,122.0
17440,50.0,13,2,15.0,45.0
17441,50.0,15,0,15.0,45.0
17442,50.0,6,15,15.0,45.0
17443,50.0,13,2,15.0,47.0
17444,50.0,13,2,15.0,49.0
17445,50.0,16,15,15.0,47.0
17446,50.0,19,15,15.0,49.0
17447,71.0,2,120,7.0,120.0
17448,83.0,0,120,7.0,117.0
17449,50.0,13,2,15.0,46.0
17450,59.0,9,120,8.0,117.0
17451,50.0,14,1,15.0,49.0
17452,50.0,13,2,15.0,49.0
17453,50.0,15,15,15.0,45.0
17454,50.0,16,15,15.0,49.0
17455,50.0,15,15,15.0,49.0
17456,50.0,13,2,15.0,49.0
17457,50.0,11,4,15.0,52.0
17458,50.0,15,15,15.0,54.0
17459,50.0,15,15,15.0,56.0
17460,50.0,11,4,15.0,60.0
17461,50.0,14,1,15.0,63.0
17462,38.0,0,3945,13.0,100.0
17463,50.0,15,15,15.0,67.0
17464,50.0,5,0,15.0,77.0
17465,50.0,14,1,15.0,77.0
17466,50.0,10,5,15.0,76.0
17467,50.0,16,15,15.0,75.0
17468,50.0,13,2,15.0,71.0
17469,50.0,13,2,15.0,66.0
17470,50.0,15,0,15.0,61.0
17471,50.0,13,2,15.0,59.0
17472,50.0,15,0,15.0,55.0
17473,50.0,14,1,15.0,53.0
17474,50.0,6,2,15.0,51.0
17475,71.0,14,20,7.0,110.0
17476,83.0,1,20,7.0,110.0
17477,59.0,7,20,8.0,111.0
17478,50.0,3,0,15.0,51.0
17479,86.0,8,20,7.0,111.0
17480,74.0,4,20,7.0,110.0
17481,62.0,3,20,8.0,109.0
17482,50.0,12,3,15.0,50.0
17483,88.0,3,20,7.0,109.0
17484,76.0,3,20,7.0,110.0
17485,64.0,5,20,8.0,110.0
17486,50.0,13,2,15.0,49.0
17487,59.0,2,4310,2.0,97.0
17488,56.0,0,4310,2.0,97.0
17489,50.0,13,2,15.0,45.0
17490,50.0,5,360,13.0,100.0
17491,38.0,5,360,14.0,100.0
17492,77.0,1,22,7.0,127.0
17493,89.0,0,22,7.0,117.0
17494,50.0,9,0,15.0,49.0
17495,65.0,2,23,8.0,127.0
17496,91.0,4,22,7.0,92.0
17497,79.0,2,22,7.0,99.0
17498,67.0,5,22,8.0,97.0
17499,77.0,4,22,7.0,97.0
17500,89.0,1,22,7.0,93.0
17501,50.0,1,3,15.0,46.0
17502,65.0,1,22,8.0,97.0
17503,79.0,10,22,7.0,99.0
17504,91.0,2,22,7.0,92.0
17505,50.0,0,0,15.0,49.0
17506,67.0,9,22,8.0,99.0
17507,77.0,3,22,7.0,99.0
17508,89.0,5,22,7.0,92.0
17509,50.0,2,0,15.0,45.0
17510,65.0,7,22,8.0,99.0
17511,50.0,3,3,15.0,49.0
17512,79.0,13,22,7.0,97.0
17513,91.0,0,22,7.0,92.0
17514,67.0,9,22,8.0,99.0
17515,89.0,1,22,7.0,92.0
17516,77.0,1,22,7.0,99.0
17517,65.0,10,22,8.0,99.0
17518,50.0,10,3,15.0,45.0
17519,79.0,1,22,7.0,99.0
17520,91.0,1,22,7.0,94.0
17521,50.0,8,1,15.0,45.0
17522,67.0,6,22,8.0,99.0
17523,89.0,1,22,7.0,93.0
17524,77.0,0,22,7.0,99.0
17525,50.0,4,15,15.0,49.0
17526,65.0,11,22,8.0,97.0
17527,79.0,0,22,7.0,97.0
17528,91.0,3,22,7.0,93.0
17529,50.0,3,2,15.0,47.0
17530,67.0,13,22,8.0,97.0
17531,89.0,6,22,7.0,92.0
17532,77.0,4,22,7.0,99.0
17533,65.0,2,22,8.0,97.0
17534,50.0,4,2,15.0,49.0
17535,91.0,13,22,7.0,93.0
17536,79.0,3,22,7.0,96.0
17537,67.0,6,22,8.0,97.0
17538,89.0,7,22,7.0,93.0
17539,77.0,2,22,7.0,97.0
17540,65.0,4,22,8.0,99.0
17541,50.0,6,3,15.0,45.0
17542,79.0,4,22,7.0,99.0
17543,91.0,2,22,7.0,92.0
17544,67.0,7,22,8.0,97.0
17545,50.0,3,15,15.0,49.0
17546,89.0,5,22,7.0,93.0
17547,77.0,1,22,7.0,99.0
17548,50.0,4,15,15.0,49.0
17549,65.0,11,22,8.0,99.0
17550,79.0,3,22,7.0,99.0
17551,50.0,7,1,15.0,45.0
17552,91.0,5,22,7.0,93.0
17553,67.0,3,22,8.0,99.0
17554,77.0,7,22,7.0,97.0
17555,50.0,1,2,15.0,45.0
17556,89.0,0,22,7.0,94.0
17557,65.0,4,22,8.0,97.0
17558,91.0,8,22,7.0,92.0
17559,79.0,7,22,7.0,97.0
17560,50.0,9,15,15.0,45.0
17561,67.0,1,22,8.0,99.0
17562,89.0,6,22,7.0,92.0
17563,77.0,3,22,7.0,99.0
17564,50.0,3,15,15.0,49.0
17565,65.0,4,22,8.0,99.0
17566,50.0,1,15,15.0,49.0
17567,91.0,11,22,7.0,94.0
17568,79.0,3,22,7.0,97.0
17569,67.0,9,22,8.0,97.0
17570,50.0,1,1,15.0,49.0
17571,89.0,3,22,7.0,94.0
17572,77.0,0,22,7.0,96.0
17573,65.0,13,22,8.0,99.0
17574,79.0,5,22,7.0,99.0
17575,91.0,1,22,7.0,93.0
17576,50.0,0,4,15.0,49.0
17577,67.0,8,22,8.0,97.0
17578,77.0,9,22,7.0,99.0
17579,89.0,2,22,7.0,92.0
17580,65.0,10,22,8.0,99.0
17581,50.0,11,4,15.0,49.0
17582,91.0,6,22,7.0,94.0
17583,79.0,3,22,7.0,97.0
17584,67.0,3,22,8.0,99.0
17585,77.0,4,22,7.0,97.0
17586,50.0,2,0,15.0,47.0
17587,89.0,6,22,7.0,92.0
17588,65.0,5,22,8.0,97.0
17589,79.0,8,22,7.0,99.0
17590,91.0,0,22,7.0,94.0
17591,50.0,4,15,15.0,46.0
17592,67.0,12,22,8.0,97.0
17593,77.0,0,22,7.0,99.0
17594,89.0,4,22,7.0,93.0
17595,50.0,3,3,15.0,47.0
17596,65.0,9,22,8.0,99.0
17597,50.0,0,0,15.0,47.0
17598,79.0,6,22,7.0,97.0
17599,91.0,3,22,7.0,92.0
17600,67.0,10,22,8.0,99.0
17601,77.0,5,22,7.0,96.0
17602,89.0,4,22,7.0,93.0
17603,50.0,11,15,15.0,49.0
17604,65.0,0,22,8.0,97.0
17605,91.0,3,24,7.0,93.0
17606,79.0,6,24,7.0,96.0
17607,50.0,4,1,15.0,47.0
17608,67.0,8,24,8.0,97.0
17609,77.0,7,24,7.0,99.0
17610,89.0,3,24,7.0,94.0
17611,50.0,8,4,15.0,49.0
17612,65.0,8,24,8.0,96.0
17613,79.0,1,24,7.0,97.0
17614,91.0,2,24,7.0,93.0
17615,67.0,4,24,8.0,99.0
17616,50.0,2,3,15.0,45.0
17617,89.0,8,25,7.0,93.0
17618,77.0,1,25,7.0,97.0
17619,50.0,14,1,15.0,47.0
17620,65.0,10,25,8.0,99.0
17621,76.0,1,24,7.0,110.0
17622,88.0,1,24,7.0,100.0
17623,64.0,6,24,8.0,110.0
17624,50.0,0,3,15.0,49.0
17625,74.0,11,26,7.0,120.0
17626,86.0,1,26,7.0,109.0
17627,50.0,3,3,15.0,47.0
17628,62.0,7,26,8.0,120.0
17629,76.0,4,26,7.0,97.0
17630,88.0,5,26,7.0,92.0
17631,50.0,1,2,15.0,45.0
17632,64.0,10,26,8.0,99.0
17633,86.0,3,26,7.0,92.0
17634,74.0,5,26,7.0,99.0
17635,50.0,1,1,15.0,47.0
17636,62.0,12,26,8.0,99.0
17637,50.0,12,1,15.0,49.0
17638,76.0,6,26,7.0,97.0
17639,88.0,7,26,7.0,93.0
17640,64.0,2,26,8.0,99.0
17641,50.0,7,1,15.0,47.0
17642,74.0,6,26,7.0,97.0
17643,86.0,1,26,7.0,92.0
17644,62.0,3,26,8.0,99.0
17645,50.0,9,15,15.0,45.0
17646,76.0,0,26,7.0,96.0
17647,88.0,6,26,7.0,92.0
17648,64.0,6,26,8.0,96.0
17649,50.0,3,3,15.0,46.0
17650,86.0,10,26,7.0,94.0
17651,74.0,2,26,7.0,99.0
17652,62.0,7,26,8.0,99.0
17653,50.0,6,4,15.0,49.0
17654,88.0,7,26,7.0,92.0
17655,76.0,0,26,7.0,99.0
17656,64.0,5,26,8.0,99.0
17657,50.0,5,2,15.0,49.0
17658,86.0,9,26,7.0,94.0
17659,74.0,2,26,7.0,97.0
17660,62.0,3,26,8.0,97.0
17661,76.0,5,26,7.0,99.0
17662,88.0,1,26,7.0,92.0
17663,50.0,5,0,15.0,46.0
17664,64.0,5,26,8.0,99.0
17665,50.0,14,0,15.0,47.0
17666,86.0,5,26,7.0,92.0
17667,74.0,5,26,7.0,99.0
17668,62.0,1,25,8.0,96.0
17669,88.0,2,25,7.0,93.0
17670,76.0,0,25,7.0,99.0
17671,50.0,7,15,15.0,46.0
17672,64.0,7,25,8.0,99.0
17673,86.0,0,25,7.0,92.0
17674,74.0,3,25,7.0,97.0
17675,50.0,13,15,15.0,46.0
17676,62.0,2,25,8.0,97.0
17677,88.0,3,25,7.0,92.0
17678,76.0,1,25,7.0,99.0
17679,50.0,1,5,15.0,49.0
17680,74.0,2,14,7.0,99.0
17681,86.0,2,14,7.0,99.0
17682,64.0,5,25,8.0,99.0
17683,62.0,0,15,8.0,99.0
17684,50.0,2,1,15.0,49.0
17685,84.0,17,30,7.0,102.0
17686,72.0,1,30,7.0,111.0
17687,60.0,11,30,8.0,111.0
17688,50.0,6,1,15.0,49.0
17689,50.0,0,2,15.0,49.0
17690,71.0,4,26,7.0,121.0
17691,83.0,4,26,7.0,114.0
17692,59.0,4,26,8.0,121.0
17693,72.0,7,26,7.0,97.0
17694,84.0,2,26,7.0,96.0
17695,50.0,5,15,15.0,45.0
17696,60.0,11,26,8.0,97.0
17697,83.0,4,26,7.0,101.0
17698,50.0,3,2,15.0,49.0
17699,71.0,1,26,7.0,97.0
17700,59.0,4,26,8.0,99.0
17701,72.0,6,26,7.0,97.0
17702,84.0,2,26,7.0,102.0
17703,50.0,5,15,15.0,47.0
17704,60.0,10,26,8.0,97.0
17705,50.0,6,15,15.0,45.0
17706,83.0,5,26,7.0,101.0
17707,71.0,5,26,7.0,99.0
17708,59.0,0,26,8.0,99.0
17709,50.0,12,3,15.0,47.0
17710,72.0,13,26,7.0,99.0
17711,84.0,0,26,7.0,101.0
17712,50.0,0,0,15.0,49.0
17713,60.0,1,26,8.0,99.0
17714,71.0,7,26,7.0,99.0
17715,83.0,7,26,7.0,101.0
17716,59.0,3,26,8.0,99.0
17717,50.0,12,3,15.0,45.0
17718,72.0,0,26,7.0,96.0
17719,84.0,12,26,7.0,102.0
17720,60.0,2,26,8.0,99.0
17721,50.0,8,3,15.0,45.0
17722,71.0,8,26,7.0,97.0
17723,83.0,4,26,7.0,102.0
17724,59.0,4,26,8.0,99.0
17725,84.0,0,26,7.0,96.0
17726,72.0,4,26,7.0,99.0
17727,50.0,1,2,15.0,49.0
17728,60.0,2,26,8.0,96.0
17729,71.0,9,26,7.0,97.0
17730,83.0,1,26,7.0,102.0
17731,50.0,7,15,15.0,49.0
17732,59.0,9,26,8.0,99.0
17733,50.0,5,2,15.0,49.0
17734,84.0,8,25,7.0,101.0
17735,72.0,2,25,7.0,96.0
17736,60.0,1,25,8.0,97.0
17737,83.0,7,25,7.0,96.0
17738,71.0,0,25,7.0,99.0
17739,59.0,5,25,8.0,99.0
17740,50.0,3,1,15.0,49.0
17741,72.0,13,25,7.0,97.0
17742,83.0,7,15,7.0,99.0
17743,60.0,1,25,8.0,96.0
17744,71.0,2,15,7.0,99.0
17745,84.0,1,25,7.0,101.0
17746,50.0,6,4,15.0,45.0
17747,59.0,5,15,8.0,99.0
17748,69.0,2,24,7.0,111.0
17749,81.0,1,24,7.0,102.0
17750,57.0,6,24,8.0,110.0
17751,50.0,2,3,15.0,47.0
17752,50.0,11,4,15.0,49.0
17753,50.0,13,2,15.0,49.0
17754,50.0,14,1,15.0,47.0
17755,68.0,10,84,7.0,111.0
17756,80.0,3,84,7.0,110.0
17757,56.0,6,84,8.0,110.0
17758,50.0,19,15,15.0,49.0
17759,50.0,2,2,15.0,49.0
17760,50.0,7,1,15.0,49.0
17761,50.0,15,0,15.0,49.0
17762,50.0,13,2,15.0,45.0
17763,50.0,15,0,15.0,49.0
17764,71.0,7,84,7.0,110.0
17765,59.0,4,84,7.0,110.0
17766,50.0,14,1,15.0,49.0
17767,47.0,7,84,8.0,109.0
17768,50.0,3,3,15.0,47.0
17769,50.0,8,15,15.0,47.0
17770,50.0,11,4,15.0,49.0
17771,50.0,16,15,15.0,46.0
17772,76.0,9,84,7.0,109.0
17773,64.0,4,84,7.0,109.0
17774,50.0,16,15,15.0,49.0
17775,52.0,6,84,8.0,111.0
17776,50.0,11,4,15.0,46.0
17777,38.0,3,6110,4.0,100.0
17778,50.0,0,6110,4.0,100.0
17779,48.0,0,6110,3.0,98.0
17780,36.0,1,6110,3.0,98.0
17781,59.0,7,1800,2.0,97.0
17782,71.0,0,1800,2.0,97.0
17783,50.0,7,15,15.0,45.0
17784,50.0,11,15,15.0,46.0
17785,50.0,11,4,15.0,49.0
17786,50.0,13,2,15.0,47.0
17787,68.0,12,84,7.0,109.0
17788,56.0,0,84,7.0,111.0
17789,44.0,4,84,8.0,109.0
17790,50.0,19,15,15.0,46.0
17791,50.0,2,4,15.0,47.0
17792,50.0,8,15,15.0,49.0
17793,50.0,10,5,15.0,47.0
17794,50.0,20,15,15.0,47.0
17795,71.0,9,84,7.0,109.0
17796,59.0,3,84,7.0,109.0
17797,47.0,5,84,8.0,110.0
17798,50.0,11,4,15.0,46.0
17799,50.0,18,15,15.0,46.0
17800,50.0,10,2,15.0,47.0
17801,50.0,12,3,15.0,49.0
17802,50.0,19,15,15.0,45.0
17803,62.0,13,84,7.0,110.0
17804,50.0,0,84,7.0,109.0
17805,38.0,3,84,8.0,110.0
17806,50.0,12,3,15.0,45.0
17807,50.0,16,15,15.0,49.0
17808,44.0,2,2160,13.0,100.0
17809,32.0,3,2160,14.0,100.0
17810,45.0,2,60,15.0,76.0
17811,61.0,10,120,7.0,109.0
17812,49.0,5,120,7.0,111.0
17813,37.0,6,120,8.0,110.0
17814,45.0,14,1,15.0,74.0
17815,45.0,14,1,15.0,71.0
17816,45.0,13,2,15.0,72.0
17817,45.0,11,4,15.0,72.0
17818,45.0,11,4,15.0,69.0
17819,45.0,10,5,15.0,70.0
17820,45.0,15,0,15.0,69.0
17821,45.0,14,1,15.0,66.0
17822,45.0,13,2,15.0,66.0
17823,45.0,17,15,15.0,66.0
17824,45.0,14,1,15.0,66.0
17825,45.0,14,1,15.0,63.0
17826,81.0,343,330,7.0,113.0
17827,69.0,4,330,7.0,113.0
17828,45.0,15,0,15.0,63.0
17829,73.0,0,330,7.0,113.0
17830,76.0,4,330,7.0,113.0
17831,52.0,3,330,8.0,113.0
17832,45.0,0,330,8.0,113.0
17833,49.0,4,330,8.0,113.0
17834,57.0,1,330,8.0,113.0
17835,45.0,14,1,15.0,62.0
17836,45.0,7,0,15.0,60.0
17837,45.0,10,5,15.0,60.0
17838,45.0,13,2,15.0,59.0
17839,45.0,13,2,15.0,57.0
17840,45.0,16,15,15.0,59.0
17841,45.0,14,1,15.0,56.0
17842,45.0,16,15,15.0,59.0
17843,45.0,12,3,15.0,54.0
17844,45.0,13,2,15.0,54.0
17845,76.0,10,220,7.0,113.0
17846,64.0,3,220,7.0,113.0
17847,52.0,5,220,8.0,113.0
17848,40.0,3,220,8.0,113.0
17849,45.0,17,15,15.0,55.0
17850,45.0,5,1,15.0,52.0
17851,45.0,11,4,15.0,53.0
17852,45.0,13,2,15.0,53.0
17853,73.0,13,105,7.0,113.0
17854,45.0,15,15,15.0,49.0
17855,61.0,1,105,7.0,113.0
17856,49.0,6,105,8.0,113.0
17857,37.0,3,105,8.0,113.0
17858,45.0,16,15,15.0,52.0
17859,45.0,3,15,15.0,52.0
17860,45.0,4,15,15.0,50.0
17861,45.0,16,15,15.0,52.0
17862,45.0,10,5,15.0,49.0
17863,45.0,18,15,15.0,52.0
17864,85.0,12,105,7.0,113.0
17865,73.0,4,105,7.0,113.0
17866,45.0,15,0,15.0,52.0
17867,49.0,0,105,8.0,113.0
17868,61.0,8,105,8.0,113.0
17869,93.0,0,1200,0.0,91.0
17870,88.0,346,1200,0.0,91.0
17871,45.0,0,3,15.0,50.0
17872,69.0,0,1200,1.0,89.0
17873,81.0,0,1200,1.0,89.0
17874,45.0,12,3,15.0,52.0
17875,45.0,13,2,15.0,49.0
17876,45.0,12,3,15.0,49.0
17877,88.0,9,105,7.0,113.0
17878,76.0,3,105,7.0,113.0
17879,45.0,14,1,15.0,49.0
17880,64.0,6,105,8.0,113.0
17881,52.0,0,105,8.0,113.0
17882,45.0,15,15,15.0,52.0
17883,45.0,15,0,15.0,49.0
17884,45.0,13,2,15.0,49.0
17885,45.0,11,4,15.0,50.0
17886,45.0,14,1,15.0,49.0
17887,45.0,14,1,15.0,49.0
17888,64.0,3,1440,4.0,92.0
17889,45.0,0,1440,4.0,92.0
17890,76.0,0,1440,2.0,89.0
17891,73.0,2,1440,2.0,89.0
17892,64.0,6,1440,3.0,90.0
17893,61.0,0,1440,3.0,90.0
17894,45.0,14,1,15.0,50.0
17895,45.0,15,15,15.0,49.0
17896,45.0,15,15,15.0,49.0
17897,45.0,13,2,15.0,49.0
17898,45.0,15,15,15.0,49.0
17899,45.0,13,2,15.0,50.0
17900,45.0,15,15,15.0,52.0
17901,45.0,15,15,15.0,52.0
17902,45.0,11,4,15.0,49.0
17903,45.0,13,2,15.0,49.0
17904,45.0,7,3,15.0,49.0
17905,79.0,10,30,7.0,109.0
17906,67.0,3,30,7.0,111.0
17907,55.0,5,30,8.0,110.0
17908,45.0,13,2,15.0,49.0
17909,45.0,1,1,15.0,52.0
17910,69.0,12,30,7.0,109.0
17911,81.0,1,30,7.0,110.0
17912,45.0,11,4,15.0,49.0
17913,57.0,8,30,8.0,110.0
17914,45.0,14,1,15.0,52.0
17915,45.0,16,15,15.0,49.0
17916,82.0,1,28,7.0,120.0
17917,70.0,1,28,7.0,120.0
17918,45.0,7,15,15.0,49.0
17919,58.0,6,28,8.0,122.0
17920,45.0,11,4,15.0,49.0
17921,84.0,11,28,7.0,99.0
17922,72.0,1,28,7.0,97.0
17923,60.0,6,28,8.0,96.0
17924,45.0,1,15,15.0,49.0
17925,82.0,8,28,7.0,99.0
17926,70.0,0,28,7.0,99.0
17927,58.0,6,28,8.0,99.0
17928,45.0,11,0,15.0,49.0
17929,72.0,12,28,7.0,99.0
17930,84.0,2,28,7.0,99.0
17931,45.0,4,1,15.0,52.0
17932,60.0,4,28,8.0,96.0
17933,70.0,5,28,7.0,99.0
17934,82.0,1,28,7.0,97.0
17935,58.0,4,28,8.0,97.0
17936,45.0,8,1,15.0,52.0
17937,84.0,10,28,7.0,99.0
17938,72.0,5,28,7.0,99.0
17939,60.0,6,28,8.0,99.0
17940,82.0,3,28,7.0,99.0
17941,45.0,12,15,15.0,50.0
17942,70.0,4,28,7.0,99.0
17943,58.0,2,28,8.0,97.0
17944,45.0,5,1,15.0,52.0
17945,72.0,7,28,7.0,97.0
17946,84.0,1,28,7.0,99.0
17947,45.0,11,1,15.0,50.0
17948,60.0,9,28,8.0,97.0
17949,82.0,3,28,7.0,96.0
17950,70.0,0,28,7.0,97.0
17951,45.0,3,2,15.0,52.0
17952,58.0,2,28,8.0,97.0
17953,84.0,1,28,7.0,96.0
17954,72.0,1,28,7.0,97.0
17955,60.0,8,28,8.0,99.0
17956,45.0,7,15,15.0,49.0
17957,70.0,8,28,7.0,99.0
17958,82.0,0,28,7.0,99.0
17959,45.0,1,15,15.0,49.0
17960,58.0,4,28,8.0,96.0
17961,84.0,10,28,7.0,99.0
17962,72.0,2,28,7.0,97.0
17963,45.0,5,1,15.0,52.0
17964,60.0,1,28,8.0,96.0
17965,70.0,6,25,7.0,96.0
17966,82.0,2,25,7.0,96.0
17967,45.0,5,1,15.0,49.0
17968,58.0,8,25,8.0,96.0
17969,81.0,7,30,7.0,110.0
17970,69.0,2,30,7.0,111.0
17971,57.0,7,30,8.0,110.0
17972,45.0,7,1,15.0,52.0
17973,82.0,14,30,7.0,110.0
17974,70.0,1,30,7.0,109.0
17975,58.0,6,30,8.0,110.0
17976,45.0,5,15,15.0,49.0
17977,45.0,15,0,15.0,50.0
17978,45.0,11,4,15.0,49.0
17979,45.0,14,1,15.0,49.0
17980,81.0,10,84,7.0,111.0
17981,69.0,3,84,7.0,110.0
17982,45.0,14,1,15.0,49.0
17983,57.0,5,84,8.0,110.0
17984,45.0,7,0,15.0,52.0
17985,45.0,6,4,15.0,49.0
17986,45.0,13,2,15.0,50.0
17987,45.0,18,15,15.0,52.0
17988,79.0,8,84,7.0,110.0
17989,67.0,0,84,7.0,110.0
17990,55.0,5,84,8.0,111.0
17991,45.0,13,2,15.0,49.0
17992,45.0,1,1,15.0,52.0
17993,45.0,8,1,15.0,52.0
17994,45.0,13,2,15.0,49.0
17995,67.0,2,30,10.0,100.0
17996,55.0,1,30,12.0,100.0
17997,45.0,15,0,15.0,52.0
17998,45.0,16,15,15.0,49.0
17999,86.0,11,84,7.0,110.0
18000,74.0,2,84,7.0,110.0
18001,45.0,7,15,15.0,49.0
18002,69.0,1,30,10.0,100.0
18003,62.0,3,84,8.0,111.0
18004,57.0,7,30,12.0,100.0
18005,45.0,10,5,15.0,49.0
18006,45.0,3,15,15.0,52.0
18007,70.0,2,20,10.0,111.0
18008,60.0,0,20,12.0,111.0
18009,45.0,6,15,15.0,50.0
18010,72.0,6,20,10.0,106.0
18011,62.0,7,20,12.0,106.0
18012,45.0,2,0,15.0,49.0
18013,70.0,6,20,10.0,98.0
18014,45.0,2,3,15.0,49.0
18015,60.0,7,20,12.0,98.0
18016,72.0,10,23,10.0,93.0
18017,62.0,5,23,12.0,93.0
18018,45.0,11,15,15.0,52.0
18019,70.0,2,23,10.0,93.0
18020,45.0,5,5,15.0,50.0
18021,60.0,7,23,12.0,93.0
18022,85.0,12,120,7.0,109.0
18023,72.0,5,23,10.0,93.0
18024,73.0,2,120,7.0,110.0
18025,61.0,5,120,8.0,110.0
18026,62.0,2,23,12.0,93.0
18027,45.0,1,15,15.0,50.0
18028,70.0,12,23,10.0,93.0
18029,60.0,6,23,12.0,93.0
18030,45.0,11,15,15.0,52.0
18031,72.0,2,23,10.0,93.0
18032,45.0,2,1,15.0,49.0
18033,62.0,7,23,12.0,93.0
18034,70.0,5,23,10.0,93.0
18035,60.0,7,23,12.0,93.0
18036,45.0,10,3,15.0,49.0
18037,72.0,11,23,10.0,93.0
18038,62.0,2,23,12.0,93.0
18039,70.0,3,23,10.0,93.0
18040,45.0,2,1,15.0,52.0
18041,60.0,7,23,12.0,93.0
18042,72.0,5,23,10.0,93.0
18043,62.0,7,23,12.0,93.0
18044,45.0,0,4,15.0,50.0
18045,70.0,11,23,10.0,93.0
18046,60.0,7,23,12.0,93.0
18047,72.0,11,23,10.0,93.0
18048,62.0,7,23,12.0,93.0
18049,45.0,9,15,15.0,52.0
18050,70.0,4,23,10.0,93.0
18051,45.0,15,0,15.0,49.0
18052,60.0,7,23,12.0,93.0
18053,69.0,0,30,10.0,100.0
18054,45.0,0,1,15.0,49.0
18055,57.0,7,30,12.0,100.0
18056,70.0,14,30,10.0,94.0
18057,45.0,12,3,15.0,50.0
18058,58.0,7,30,12.0,94.0
18059,45.0,11,4,15.0,49.0
18060,45.0,15,0,15.0,49.0
18061,69.0,0,74,10.0,100.0
18062,45.0,14,1,15.0,49.0
18063,57.0,7,74,12.0,100.0
18064,45.0,13,2,15.0,52.0
18065,45.0,7,1,15.0,49.0
18066,45.0,12,3,15.0,50.0
18067,67.0,0,74,10.0,100.0
18068,45.0,19,15,15.0,49.0
18069,55.0,7,74,12.0,100.0
18070,45.0,16,15,15.0,49.0
18071,45.0,11,4,15.0,49.0
18072,45.0,8,0,15.0,52.0
18073,79.0,15,30,7.0,111.0
18074,67.0,0,30,7.0,111.0
18075,55.0,6,30,8.0,109.0
18076,45.0,12,3,15.0,52.0
18077,74.0,0,74,10.0,127.0
18078,45.0,5,4,15.0,52.0
18079,62.0,1,74,12.0,127.0
18080,81.0,12,30,7.0,111.0
18081,69.0,1,30,7.0,111.0
18082,57.0,5,30,8.0,109.0
18083,45.0,12,3,15.0,49.0
18084,45.0,13,2,15.0,49.0
18085,70.0,1,28,7.0,121.0
18086,45.0,0,15,15.0,49.0
18087,82.0,2,28,7.0,120.0
18088,58.0,7,28,8.0,121.0
18089,72.0,5,28,7.0,99.0
18090,45.0,2,4,15.0,49.0
18091,84.0,3,28,7.0,97.0
18092,60.0,10,28,8.0,99.0
18093,73.0,2,60,10.0,115.0
18094,61.0,4,60,12.0,115.0
18095,82.0,9,28,7.0,97.0
18096,45.0,3,1,15.0,49.0
18097,70.0,4,28,7.0,99.0
18098,58.0,9,28,8.0,97.0
18099,72.0,7,28,7.0,99.0
18100,84.0,4,28,7.0,96.0
18101,45.0,6,1,15.0,50.0
18102,60.0,8,28,8.0,99.0
18103,82.0,0,28,7.0,97.0
18104,70.0,8,28,7.0,97.0
18105,58.0,3,28,8.0,96.0
18106,45.0,9,3,15.0,52.0
18107,72.0,11,28,7.0,99.0
18108,84.0,4,28,7.0,99.0
18109,45.0,7,1,15.0,49.0
18110,60.0,3,28,8.0,99.0
18111,82.0,0,28,7.0,97.0
18112,70.0,7,28,7.0,97.0
18113,45.0,7,1,15.0,52.0
18114,58.0,7,28,8.0,99.0
18115,72.0,7,28,7.0,99.0
18116,84.0,1,28,7.0,97.0
18117,60.0,6,28,8.0,99.0
18118,45.0,3,15,15.0,49.0
18119,82.0,7,28,7.0,99.0
18120,70.0,5,28,7.0,97.0
18121,58.0,2,28,8.0,99.0
18122,45.0,5,1,15.0,52.0
18123,72.0,13,27,7.0,96.0
18124,84.0,3,27,7.0,97.0
18125,45.0,7,3,15.0,49.0
18126,60.0,9,27,8.0,99.0
18127,82.0,0,27,7.0,99.0
18128,70.0,5,27,7.0,99.0
18129,58.0,3,27,8.0,99.0
18130,45.0,4,15,15.0,52.0
18131,84.0,9,27,7.0,96.0
18132,72.0,4,27,7.0,97.0
18133,45.0,13,1,15.0,49.0
18134,60.0,7,27,8.0,99.0
18135,82.0,1,24,7.0,96.0
18136,70.0,0,24,7.0,96.0
18137,58.0,1,24,8.0,96.0
18138,45.0,5,5,15.0,52.0
18139,81.0,13,30,7.0,109.0
18140,69.0,0,30,7.0,111.0
18141,57.0,5,30,8.0,109.0
18142,45.0,15,15,15.0,49.0
18143,82.0,0,30,7.0,111.0
18144,45.0,8,15,15.0,50.0
18145,70.0,4,30,7.0,110.0
18146,58.0,5,30,8.0,111.0
18147,45.0,7,3,15.0,52.0
18148,45.0,15,0,15.0,49.0
18149,45.0,14,1,15.0,49.0
18150,45.0,11,4,15.0,49.0
18151,81.0,13,84,7.0,110.0
18152,69.0,2,84,7.0,110.0
18153,57.0,5,84,8.0,109.0
18154,45.0,15,0,15.0,52.0
18155,45.0,1,3,15.0,49.0
18156,45.0,9,15,15.0,49.0
18157,45.0,11,4,15.0,49.0
18158,45.0,15,15,15.0,49.0
18159,79.0,11,84,7.0,109.0
18160,67.0,3,84,7.0,110.0
18161,45.0,15,15,15.0,49.0
18162,55.0,7,84,8.0,109.0
18163,45.0,14,1,15.0,49.0
18164,45.0,2,15,15.0,52.0
18165,67.0,2,30,10.0,100.0
18166,45.0,15,0,15.0,49.0
18167,55.0,1,30,12.0,100.0
18168,45.0,10,5,15.0,49.0
18169,45.0,3,15,15.0,49.0
18170,77.0,11,84,7.0,110.0
18171,89.0,1,84,7.0,109.0
18172,65.0,3,84,8.0,110.0
18173,69.0,17,30,10.0,100.0
18174,45.0,11,15,15.0,49.0
18175,57.0,4,30,12.0,100.0
18176,45.0,11,4,15.0,52.0
18177,45.0,7,3,15.0,52.0
18178,70.0,16,20,10.0,111.0
18179,60.0,4,20,12.0,111.0
18180,45.0,3,1,15.0,49.0
18181,72.0,4,20,10.0,106.0
18182,62.0,7,20,12.0,106.0
18183,70.0,10,20,10.0,98.0
18184,45.0,0,15,15.0,52.0
18185,60.0,7,20,12.0,98.0
18186,45.0,10,2,15.0,52.0
18187,72.0,12,23,10.0,93.0
18188,62.0,3,23,12.0,93.0
18189,70.0,3,23,10.0,93.0
18190,45.0,0,1,15.0,49.0
18191,60.0,7,23,12.0,93.0
18192,72.0,7,23,10.0,93.0
18193,76.0,2,120,7.0,110.0
18194,88.0,0,120,7.0,110.0
18195,64.0,1,120,8.0,109.0
18196,62.0,7,23,12.0,93.0
18197,45.0,11,3,15.0,49.0
18198,70.0,12,23,10.0,93.0
18199,60.0,1,23,12.0,93.0
18200,45.0,5,1,15.0,49.0
18201,72.0,2,23,10.0,93.0
18202,45.0,7,1,15.0,52.0
18203,62.0,7,23,12.0,93.0
18204,70.0,7,23,10.0,93.0
18205,60.0,0,23,12.0,93.0
18206,45.0,10,1,15.0,52.0
18207,72.0,13,23,10.0,93.0
18208,62.0,4,23,12.0,93.0
18209,70.0,3,23,10.0,93.0
18210,60.0,7,23,12.0,93.0
18211,45.0,2,2,15.0,49.0
18212,72.0,4,23,10.0,93.0
18213,62.0,7,23,12.0,93.0
18214,45.0,2,1,15.0,52.0
18215,70.0,11,23,10.0,93.0
18216,60.0,7,23,12.0,93.0
18217,45.0,8,2,15.0,49.0
18218,72.0,12,23,10.0,93.0
18219,62.0,5,23,12.0,93.0
18220,70.0,5,23,10.0,93.0
18221,45.0,11,4,15.0,52.0
18222,60.0,7,23,12.0,93.0
18223,45.0,6,1,15.0,52.0
18224,69.0,1,30,10.0,100.0
18225,57.0,7,30,12.0,100.0
18226,45.0,15,15,15.0,49.0
18227,45.0,6,15,15.0,50.0
18228,70.0,2,30,10.0,94.0
18229,58.0,7,30,12.0,94.0
18230,45.0,7,2,15.0,49.0
18231,45.0,15,0,15.0,49.0
18232,45.0,14,1,15.0,52.0
18233,69.0,17,74,10.0,100.0
18234,57.0,6,74,12.0,100.0
18235,45.0,17,15,15.0,49.0
18236,45.0,10,5,15.0,49.0
18237,45.0,7,3,15.0,49.0
18238,45.0,15,0,15.0,49.0
18239,67.0,17,74,10.0,100.0
18240,45.0,11,4,15.0,50.0
18241,55.0,5,74,12.0,100.0
18242,45.0,12,3,15.0,49.0
18243,88.0,13,20,7.0,109.0
18244,45.0,8,3,15.0,52.0
18245,76.0,1,20,7.0,109.0
18246,64.0,0,20,8.0,109.0
18247,45.0,16,15,15.0,49.0
18248,45.0,13,2,15.0,50.0
18249,79.0,0,20,7.0,109.0
18250,91.0,12,20,7.0,110.0
18251,67.0,3,20,8.0,109.0
18252,77.0,2,74,10.0,123.0
18253,65.0,4,74,12.0,123.0
18254,45.0,18,15,15.0,49.0
18255,93.0,1,20,7.0,110.0
18256,81.0,3,20,7.0,110.0
18257,45.0,12,3,15.0,49.0
18258,69.0,7,20,8.0,111.0
18259,45.0,0,0,15.0,50.0
18260,45.0,5,0,15.0,50.0
18261,94.0,14,23,7.0,117.0
18262,82.0,3,23,7.0,120.0
18263,70.0,3,23,8.0,120.0
18264,96.0,0,23,7.0,92.0
18265,84.0,8,23,7.0,99.0
18266,45.0,4,15,15.0,49.0
18267,72.0,4,23,8.0,97.0
18268,45.0,8,5,15.0,49.0
18269,94.0,11,23,7.0,91.0
18270,82.0,0,23,7.0,99.0
18271,70.0,2,23,8.0,96.0
18272,84.0,0,23,7.0,99.0
18273,96.0,6,23,7.0,88.0
18274,45.0,1,15,15.0,52.0
18275,72.0,8,23,8.0,97.0
18276,82.0,6,23,7.0,97.0
18277,45.0,5,15,15.0,52.0
18278,94.0,5,23,7.0,88.0
18279,70.0,4,23,8.0,99.0
18280,76.0,1,120,10.0,115.0
18281,96.0,6,23,7.0,91.0
18282,45.0,4,4,15.0,53.0
18283,84.0,5,23,7.0,97.0
18284,64.0,4,120,12.0,115.0
18285,72.0,7,23,8.0,99.0
18286,82.0,1,23,7.0,97.0
18287,94.0,4,23,7.0,91.0
18288,45.0,7,4,15.0,55.0
18289,70.0,10,23,8.0,97.0
18290,84.0,2,23,7.0,99.0
18291,96.0,2,23,7.0,91.0
18292,72.0,2,23,8.0,99.0
18293,45.0,1,15,15.0,53.0
18294,94.0,10,23,7.0,91.0
18295,82.0,2,23,7.0,99.0
18296,70.0,6,23,8.0,96.0
18297,45.0,1,15,15.0,54.0
18298,84.0,10,23,7.0,99.0
18299,96.0,4,23,7.0,91.0
18300,45.0,2,3,15.0,54.0
18301,72.0,7,23,8.0,97.0
18302,82.0,3,23,7.0,97.0
18303,45.0,4,1,15.0,59.0
18304,94.0,1,23,7.0,91.0
18305,70.0,6,23,8.0,99.0
18306,96.0,8,23,7.0,91.0
18307,84.0,2,23,7.0,99.0
18308,45.0,2,3,15.0,57.0
18309,72.0,11,23,8.0,97.0
18310,82.0,1,23,7.0,97.0
18311,94.0,1,23,7.0,91.0
18312,70.0,8,23,8.0,96.0
18313,84.0,8,23,7.0,99.0
18314,96.0,2,23,7.0,88.0
18315,45.0,2,4,15.0,59.0
18316,72.0,7,23,8.0,96.0
18317,94.0,6,23,7.0,91.0
18318,82.0,3,23,7.0,97.0
18319,70.0,11,23,8.0,99.0
18320,45.0,3,3,15.0,60.0
18321,96.0,7,23,7.0,91.0
18322,84.0,2,23,7.0,96.0
18323,45.0,4,0,15.0,60.0
18324,72.0,7,23,8.0,99.0
18325,94.0,8,23,7.0,88.0
18326,82.0,3,23,7.0,97.0
18327,43.0,1,5390,13.0,100.0
18328,70.0,5,23,8.0,97.0
18329,45.0,6,2,15.0,60.0
18330,31.0,5,5390,14.0,100.0
18331,61.0,7,3600,2.0,97.0
18332,52.0,0,3600,2.0,97.0
18333,96.0,9,23,7.0,88.0
18334,84.0,1,23,7.0,99.0
18335,72.0,7,23,8.0,99.0
18336,82.0,1,23,7.0,99.0
18337,94.0,1,23,7.0,88.0
18338,45.0,2,4,15.0,62.0
18339,70.0,2,23,8.0,99.0
18340,84.0,7,23,7.0,96.0
18341,96.0,2,23,7.0,92.0
18342,72.0,5,23,8.0,96.0
18343,45.0,11,15,15.0,62.0
18344,82.0,0,23,7.0,99.0
18345,94.0,2,23,7.0,91.0
18346,45.0,7,2,15.0,63.0
18347,70.0,5,23,8.0,99.0
18348,96.0,3,23,7.0,91.0
18349,84.0,3,23,7.0,97.0
18350,72.0,2,23,8.0,97.0
18351,45.0,3,15,15.0,63.0
18352,82.0,8,23,7.0,97.0
18353,94.0,2,23,7.0,88.0
18354,45.0,0,15,15.0,63.0
18355,70.0,8,23,8.0,99.0
18356,84.0,7,23,7.0,99.0
18357,96.0,4,23,7.0,92.0
18358,72.0,7,23,8.0,97.0
18359,45.0,3,2,15.0,66.0
18360,94.0,7,23,7.0,92.0
18361,82.0,3,23,7.0,97.0
18362,70.0,7,23,8.0,97.0
18363,84.0,8,23,7.0,97.0
18364,45.0,0,0,15.0,66.0
18365,96.0,1,23,7.0,91.0
18366,72.0,6,23,8.0,96.0
18367,94.0,8,23,7.0,91.0
18368,82.0,1,23,7.0,99.0
18369,45.0,5,15,15.0,66.0
18370,70.0,11,23,8.0,97.0
18371,96.0,2,23,7.0,91.0
18372,84.0,4,23,7.0,99.0
18373,45.0,6,0,15.0,67.0
18374,72.0,10,23,8.0,99.0
18375,45.0,5,1,15.0,69.0
18376,82.0,8,23,7.0,99.0
18377,94.0,1,23,7.0,91.0
18378,45.0,4,2,15.0,69.0
18379,70.0,6,25,8.0,99.0
18380,96.0,3,25,7.0,88.0
18381,84.0,0,25,7.0,97.0
18382,72.0,9,25,8.0,97.0
18383,76.0,0,30,10.0,100.0
18384,94.0,7,25,7.0,92.0
18385,45.0,1,1,15.0,69.0
18386,82.0,5,25,7.0,96.0
18387,64.0,0,30,12.0,100.0
18388,70.0,3,25,8.0,97.0
18389,45.0,6,3,15.0,71.0
18390,84.0,1,25,7.0,96.0
18391,96.0,2,25,7.0,88.0
18392,77.0,12,30,10.0,100.0
18393,72.0,1,25,8.0,99.0
18394,65.0,3,30,12.0,100.0
18395,45.0,9,1,15.0,70.0
18396,82.0,8,25,7.0,99.0
18397,94.0,4,25,7.0,91.0
18398,79.0,4,30,10.0,100.0
18399,45.0,12,3,15.0,72.0
18400,67.0,5,30,12.0,100.0
18401,81.0,1,24,7.0,109.0
18402,93.0,1,24,7.0,103.0
18403,45.0,14,1,15.0,73.0
18404,81.0,1,30,10.0,100.0
18405,69.0,4,24,8.0,111.0
18406,69.0,6,30,12.0,100.0
18407,82.0,1,22,10.0,111.0
18408,45.0,1,0,15.0,73.0
18409,70.0,3,22,12.0,111.0
18410,79.0,2,28,7.0,121.0
18411,91.0,1,28,7.0,103.0
18412,67.0,7,28,8.0,121.0
18413,84.0,3,22,10.0,106.0
18414,93.0,4,28,7.0,88.0
18415,81.0,0,28,7.0,99.0
18416,72.0,7,22,12.0,106.0
18417,45.0,7,1,15.0,72.0
18418,82.0,0,22,10.0,98.0
18419,69.0,9,28,8.0,99.0
18420,91.0,5,28,7.0,91.0
18421,70.0,1,22,12.0,98.0
18422,45.0,3,2,15.0,76.0
18423,79.0,2,28,7.0,96.0
18424,67.0,4,28,8.0,99.0
18425,45.0,3,0,15.0,72.0
18426,84.0,3,25,10.0,93.0
18427,93.0,1,28,7.0,88.0
18428,81.0,2,28,7.0,99.0
18429,72.0,4,25,12.0,93.0
18430,45.0,1,1,15.0,72.0
18431,69.0,5,28,8.0,99.0
18432,82.0,7,25,10.0,93.0
18433,70.0,1,25,12.0,93.0
18434,91.0,3,28,7.0,91.0
18435,79.0,2,28,7.0,99.0
18436,67.0,7,28,8.0,99.0
18437,84.0,5,25,10.0,93.0
18438,45.0,1,15,15.0,76.0
18439,72.0,3,25,12.0,93.0
18440,93.0,4,28,7.0,92.0
18441,81.0,3,28,7.0,99.0
18442,45.0,5,15,15.0,72.0
18443,69.0,4,28,8.0,97.0
18444,82.0,6,25,10.0,93.0
18445,70.0,2,25,12.0,93.0
18446,91.0,1,28,7.0,88.0
18447,45.0,0,15,15.0,74.0
18448,79.0,5,28,7.0,96.0
18449,84.0,9,25,10.0,93.0
18450,67.0,2,28,8.0,97.0
18451,45.0,4,15,15.0,72.0
18452,72.0,5,25,12.0,93.0
18453,93.0,1,28,7.0,88.0
18454,81.0,3,28,7.0,97.0
18455,45.0,3,15,15.0,72.0
18456,82.0,2,25,10.0,93.0
18457,69.0,4,28,8.0,99.0
18458,70.0,7,25,12.0,93.0
18459,45.0,3,15,15.0,72.0
18460,79.0,0,28,7.0,99.0
18461,91.0,5,28,7.0,88.0
18462,84.0,7,25,10.0,93.0
18463,72.0,4,25,12.0,93.0
18464,45.0,7,4,15.0,74.0
18465,67.0,1,28,8.0,99.0
18466,81.0,6,28,7.0,97.0
18467,82.0,2,25,10.0,93.0
18468,93.0,2,28,7.0,91.0
18469,70.0,0,25,12.0,93.0
18470,69.0,2,28,8.0,97.0
18471,45.0,3,15,15.0,73.0
18472,91.0,4,28,7.0,88.0
18473,84.0,8,25,10.0,93.0
18474,79.0,0,28,7.0,99.0
18475,72.0,4,25,12.0,93.0
18476,45.0,2,3,15.0,72.0
18477,67.0,3,28,8.0,99.0
18478,81.0,6,27,7.0,97.0
18479,82.0,1,25,10.0,93.0
18480,93.0,4,27,7.0,88.0
18481,70.0,7,25,12.0,93.0
18482,69.0,2,27,8.0,96.0
18483,45.0,8,2,15.0,73.0
18484,79.0,7,27,7.0,97.0
18485,84.0,3,25,10.0,93.0
18486,91.0,1,27,7.0,91.0
18487,72.0,6,25,12.0,93.0
18488,67.0,5,27,8.0,99.0
18489,91.0,2,14,7.0,101.0
18490,79.0,1,14,7.0,101.0
18491,82.0,1,25,10.0,93.0
18492,93.0,1,27,7.0,91.0
18493,81.0,0,27,7.0,97.0
18494,45.0,4,4,15.0,73.0
18495,70.0,7,25,12.0,93.0
18496,67.0,7,14,8.0,101.0
18497,69.0,3,27,8.0,99.0
18498,81.0,2,24,10.0,114.0
18499,89.0,2,24,7.0,101.0
18500,77.0,1,24,7.0,111.0
18501,69.0,4,24,12.0,114.0
18502,45.0,9,15,15.0,72.0
18503,65.0,1,24,8.0,109.0
18504,45.0,8,0,15.0,72.0
18505,79.0,2,22,10.0,111.0
18506,76.0,11,28,7.0,120.0
18507,67.0,5,22,12.0,111.0
18508,88.0,1,28,7.0,106.0
18509,45.0,3,1,15.0,72.0
18510,64.0,2,28,8.0,120.0
18511,81.0,4,22,10.0,106.0
18512,45.0,0,3,15.0,72.0
18513,69.0,3,22,12.0,106.0
18514,89.0,4,28,7.0,88.0
18515,77.0,0,28,7.0,96.0
18516,45.0,2,0,15.0,74.0
18517,79.0,3,22,10.0,98.0
18518,65.0,9,28,8.0,99.0
18519,67.0,0,22,12.0,98.0
18520,76.0,7,28,7.0,97.0
18521,88.0,1,28,7.0,91.0
18522,64.0,5,28,8.0,97.0
18523,45.0,2,15,15.0,74.0
18524,81.0,6,25,10.0,93.0
18525,69.0,1,25,12.0,93.0
18526,89.0,6,28,7.0,91.0
18527,77.0,2,28,7.0,97.0
18528,45.0,6,15,15.0,74.0
18529,79.0,0,25,10.0,93.0
18530,65.0,11,28,8.0,99.0
18531,67.0,1,25,12.0,93.0
18532,76.0,0,28,7.0,99.0
18533,88.0,1,28,7.0,91.0
18534,45.0,1,2,15.0,72.0
18535,64.0,9,28,8.0,97.0
18536,81.0,5,25,10.0,93.0
18537,45.0,4,3,15.0,72.0
18538,69.0,1,25,12.0,93.0
18539,89.0,6,28,7.0,92.0
18540,77.0,5,28,7.0,99.0
18541,65.0,4,28,8.0,99.0
18542,79.0,4,25,10.0,93.0
18543,67.0,3,25,12.0,93.0
18544,45.0,7,2,15.0,72.0
18545,88.0,5,28,7.0,88.0
18546,76.0,0,28,7.0,96.0
18547,81.0,10,25,10.0,93.0
18548,64.0,2,28,8.0,97.0
18549,69.0,4,25,12.0,93.0
18550,77.0,0,28,7.0,96.0
18551,89.0,1,28,7.0,91.0
18552,45.0,1,2,15.0,72.0
18553,79.0,6,25,10.0,93.0
18554,67.0,7,25,12.0,93.0
18555,65.0,1,28,8.0,96.0
18556,76.0,6,28,7.0,97.0
18557,81.0,1,25,10.0,93.0
18558,88.0,5,28,7.0,91.0
18559,69.0,2,25,12.0,93.0
18560,64.0,4,28,8.0,96.0
18561,45.0,5,0,15.0,72.0
18562,79.0,0,25,10.0,93.0
18563,77.0,1,28,7.0,96.0
18564,45.0,4,2,15.0,73.0
18565,89.0,2,28,7.0,91.0
18566,67.0,7,25,12.0,93.0
18567,65.0,0,28,8.0,97.0
18568,45.0,3,3,15.0,76.0
18569,76.0,5,28,7.0,99.0
18570,81.0,1,25,10.0,93.0
18571,88.0,3,28,7.0,92.0
18572,69.0,3,25,12.0,93.0
18573,64.0,6,28,8.0,99.0
18574,79.0,6,25,10.0,93.0
18575,45.0,3,2,15.0,73.0
18576,89.0,0,27,7.0,91.0
18577,77.0,2,27,7.0,99.0
18578,67.0,5,25,12.0,93.0
18579,65.0,1,27,8.0,97.0
18580,81.0,10,25,10.0,93.0
18581,88.0,0,27,7.0,88.0
18582,76.0,1,27,7.0,99.0
18583,69.0,3,25,12.0,93.0
18584,64.0,1,27,8.0,99.0
18585,45.0,1,1,15.0,72.0
18586,79.0,1,25,10.0,93.0
18587,89.0,13,27,7.0,88.0
18588,88.0,4,15,7.0,101.0
18589,76.0,2,15,7.0,101.0
18590,45.0,1,2,15.0,74.0
18591,77.0,3,27,7.0,97.0
18592,67.0,4,25,12.0,93.0
18593,65.0,2,27,8.0,99.0
18594,64.0,1,15,8.0,101.0
18595,86.0,10,24,7.0,109.0
18596,74.0,1,24,7.0,110.0
18597,77.0,0,24,10.0,114.0
18598,65.0,6,24,12.0,114.0
18599,45.0,3,0,15.0,73.0
18600,62.0,3,24,8.0,111.0
18601,45.0,10,0,15.0,76.0
18602,45.0,13,2,15.0,73.0
18603,45.0,16,15,15.0,71.0
18604,45.0,13,2,15.0,72.0
18605,85.0,7,84,7.0,110.0
18606,73.0,0,84,7.0,111.0
18607,61.0,1,84,8.0,111.0
18608,45.0,17,15,15.0,72.0
18609,76.0,5,120,10.0,92.0
18610,45.0,4,3,15.0,72.0
18611,64.0,4,120,12.0,92.0
18612,45.0,5,15,15.0,70.0
18613,45.0,13,2,15.0,70.0
18614,45.0,13,2,15.0,67.0
18615,76.0,8,84,7.0,110.0
18616,64.0,2,84,7.0,111.0
18617,52.0,8,84,8.0,110.0
18618,45.0,12,3,15.0,67.0
18619,45.0,5,1,15.0,67.0
18620,45.0,15,15,15.0,67.0
18621,45.0,17,15,15.0,69.0
18622,45.0,12,3,15.0,66.0
18623,81.0,14,84,7.0,110.0
18624,69.0,1,84,7.0,110.0
18625,57.0,9,84,8.0,110.0
18626,45.0,12,3,15.0,67.0
18627,45.0,0,15,15.0,66.0
18628,45.0,11,4,15.0,66.0
18629,45.0,17,15,15.0,66.0
18630,45.0,15,15,15.0,64.0
18631,73.0,11,84,7.0,110.0
18632,61.0,5,84,7.0,111.0
18633,45.0,15,15,15.0,66.0
18634,49.0,6,84,8.0,109.0
18635,45.0,14,1,15.0,63.0
18636,45.0,2,4,15.0,63.0
18637,45.0,13,2,15.0,63.0
18638,45.0,15,15,15.0,66.0
18639,45.0,11,4,15.0,67.0
18640,76.0,9,84,7.0,109.0
18641,64.0,5,84,7.0,111.0
18642,52.0,4,84,8.0,110.0
18643,45.0,14,1,15.0,71.0
18644,45.0,2,0,15.0,72.0
18645,45.0,7,1,15.0,74.0
18646,81.0,1,30,10.0,100.0
18647,45.0,12,3,15.0,75.0
18648,69.0,0,30,11.0,100.0
18649,82.0,2,30,10.0,100.0
18650,70.0,2,30,11.0,100.0
18651,45.0,16,15,15.0,78.0
18652,45.0,10,5,15.0,84.0
18653,67.0,11,84,7.0,109.0
18654,55.0,1,84,7.0,109.0
18655,84.0,12,30,10.0,100.0
18656,72.0,2,30,11.0,100.0
18657,43.0,7,84,8.0,110.0
18658,45.0,12,2,15.0,93.0
18659,45.0,1,1430,4.0,100.0
18660,57.0,0,1430,4.0,100.0
18661,37.0,2,1790,13.0,100.0
18662,86.0,17,30,10.0,100.0
18663,74.0,1,30,11.0,100.0
18664,37.0,5,1790,14.0,100.0
18665,67.0,4,1800,1.0,97.0
18666,64.0,0,1800,1.0,97.0
18667,64.0,1,1800,2.0,97.0
18668,55.0,0,1800,2.0,97.0
18669,45.0,1,15,15.0,96.0
18670,87.0,2,21,10.0,111.0
18671,75.0,0,21,11.0,111.0
18672,45.0,11,0,15.0,97.0
18673,89.0,2,21,10.0,106.0
18674,77.0,2,21,11.0,106.0
18675,45.0,4,1,15.0,97.0
18676,87.0,8,21,10.0,98.0
18677,75.0,2,21,11.0,98.0
18678,45.0,1,15,15.0,97.0
18679,89.0,14,24,10.0,93.0
18680,77.0,1,24,11.0,93.0
18681,45.0,5,4,15.0,96.0
18682,87.0,4,24,10.0,93.0
18683,75.0,2,24,11.0,93.0
18684,45.0,1,15,15.0,94.0
18685,89.0,14,24,10.0,93.0
18686,77.0,1,24,11.0,93.0
18687,45.0,9,4,15.0,91.0
18688,87.0,18,24,10.0,93.0
18689,75.0,2,24,11.0,93.0
18690,89.0,10,24,10.0,93.0
18691,45.0,0,4,15.0,88.0
18692,77.0,2,24,11.0,93.0
18693,87.0,11,24,10.0,93.0
18694,75.0,2,24,11.0,93.0
18695,45.0,8,2,15.0,85.0
18696,89.0,3,24,10.0,93.0
18697,77.0,2,24,11.0,93.0
18698,45.0,3,15,15.0,84.0
18699,87.0,11,24,10.0,93.0
18700,75.0,2,24,11.0,93.0
18701,66.0,14,240,7.0,109.0
18702,54.0,2,240,7.0,109.0
18703,45.0,12,2,15.0,75.0
18704,89.0,15,24,10.0,93.0
18705,42.0,3,240,8.0,110.0
18706,77.0,1,24,11.0,93.0
18707,87.0,7,24,10.0,93.0
18708,75.0,2,24,11.0,93.0
18709,45.0,2,4,15.0,72.0
18710,89.0,9,24,10.0,93.0
18711,77.0,0,24,11.0,93.0
18712,45.0,10,1,15.0,74.0
18713,87.0,2,24,10.0,93.0
18714,75.0,2,24,11.0,93.0
18715,45.0,3,1,15.0,72.0
18716,45.0,14,1,15.0,72.0
18717,89.0,9,24,10.0,93.0
18718,77.0,2,24,11.0,93.0
18719,87.0,1,24,10.0,93.0
18720,75.0,2,24,11.0,93.0
18721,45.0,14,15,15.0,72.0
18722,66.0,1,360,1.0,97.0
18723,63.0,0,360,1.0,97.0
18724,56.0,2,360,2.0,97.0
18725,63.0,0,360,2.0,97.0
18726,89.0,5,24,10.0,93.0
18727,77.0,2,24,11.0,93.0
18728,45.0,2,2,15.0,74.0
18729,87.0,9,24,10.0,93.0
18730,75.0,2,24,11.0,93.0
18731,45.0,10,3,15.0,72.0
18732,89.0,0,24,10.0,93.0
18733,77.0,2,24,11.0,93.0
18734,45.0,6,15,15.0,74.0
18735,87.0,9,24,10.0,93.0
18736,75.0,2,24,11.0,93.0
18737,45.0,13,2,15.0,72.0
18738,89.0,12,24,10.0,93.0
18739,77.0,2,24,11.0,93.0
18740,87.0,3,24,10.0,93.0
18741,75.0,2,24,11.0,93.0
18742,45.0,5,3,15.0,72.0
18743,89.0,5,24,10.0,93.0
18744,77.0,2,24,11.0,93.0
18745,45.0,2,15,15.0,72.0
18746,87.0,14,24,10.0,93.0
18747,75.0,0,24,11.0,93.0
18748,45.0,16,15,15.0,74.0
18749,89.0,3,24,10.0,93.0
18750,77.0,2,24,11.0,93.0
18751,45.0,1,4,15.0,72.0
18752,87.0,8,24,10.0,93.0
18753,75.0,2,24,11.0,93.0
18754,45.0,13,2,15.0,74.0
18755,89.0,18,24,10.0,93.0
18756,77.0,0,24,11.0,93.0
18757,87.0,5,24,10.0,93.0
18758,75.0,2,24,11.0,93.0
18759,45.0,4,0,15.0,72.0
18760,45.0,12,3,15.0,74.0
18761,89.0,9,24,10.0,93.0
18762,77.0,2,24,11.0,93.0
18763,87.0,3,24,10.0,93.0
18764,75.0,2,24,11.0,93.0
18765,45.0,12,15,15.0,72.0
18766,89.0,6,24,10.0,93.0
18767,45.0,1,2,15.0,72.0
18768,77.0,2,24,11.0,93.0
18769,87.0,12,24,10.0,93.0
18770,75.0,1,24,11.0,93.0
18771,45.0,13,2,15.0,72.0
18772,45.0,11,2,15.0,72.0
18773,86.0,0,24,10.0,120.0
18774,74.0,2,24,11.0,120.0
18775,78.0,0,60,0.0,99.0
18776,66.0,3,60,1.0,97.0
18777,66.0,2,60,2.0,97.0
18778,54.0,6,60,3.0,98.0
18779,45.0,2,2,15.0,72.0
18780,87.0,1,19,0.0,99.0
18781,84.0,17,22,10.0,111.0
18782,75.0,2,19,1.0,97.0
18783,72.0,1,22,11.0,111.0
18784,75.0,2,19,2.0,97.0
18785,63.0,6,19,3.0,98.0
18786,89.0,6,19,0.0,99.0
18787,77.0,2,19,1.0,97.0
18788,86.0,1,22,10.0,106.0
18789,77.0,2,19,2.0,97.0
18790,74.0,0,22,11.0,106.0
18791,45.0,5,15,15.0,74.0
18792,65.0,1,19,3.0,98.0
18793,87.0,8,19,0.0,99.0
18794,45.0,1,15,15.0,72.0
18795,75.0,3,19,1.0,97.0
18796,75.0,1,19,2.0,97.0
18797,84.0,1,22,10.0,98.0
18798,72.0,1,22,11.0,98.0
18799,63.0,4,19,3.0,98.0
18800,89.0,8,19,0.0,99.0
18801,45.0,6,2,15.0,72.0
18802,77.0,3,19,1.0,97.0
18803,77.0,1,19,2.0,97.0
18804,65.0,3,19,3.0,98.0
18805,86.0,1,25,10.0,93.0
18806,74.0,2,25,11.0,93.0
18807,87.0,2,19,0.0,99.0
18808,75.0,3,19,1.0,97.0
18809,75.0,2,19,2.0,97.0
18810,63.0,0,19,3.0,98.0
18811,45.0,4,2,15.0,72.0
18812,84.0,4,25,10.0,93.0
18813,72.0,2,25,11.0,93.0
18814,89.0,4,19,0.0,99.0
18815,77.0,3,19,1.0,97.0
18816,77.0,2,19,2.0,97.0
18817,65.0,2,19,3.0,98.0
18818,86.0,0,25,10.0,93.0
18819,87.0,6,19,0.0,99.0
18820,74.0,2,25,11.0,93.0
18821,45.0,1,15,15.0,74.0
18822,75.0,3,19,1.0,97.0
18823,75.0,2,19,2.0,97.0
18824,63.0,5,19,3.0,98.0
18825,45.0,2,4,15.0,73.0
18826,89.0,4,19,0.0,99.0
18827,84.0,2,25,10.0,93.0
18828,72.0,2,25,11.0,93.0
18829,77.0,1,19,1.0,97.0
18830,77.0,2,19,2.0,97.0
18831,65.0,6,19,3.0,98.0
18832,87.0,1,19,0.0,99.0
18833,86.0,3,25,10.0,93.0
18834,75.0,3,19,1.0,97.0
18835,74.0,2,25,11.0,93.0
18836,75.0,2,19,2.0,97.0
18837,45.0,2,3,15.0,72.0
18838,63.0,6,19,3.0,98.0
18839,89.0,1,19,0.0,99.0
18840,77.0,2,19,1.0,97.0
18841,84.0,4,25,10.0,93.0
18842,77.0,2,19,2.0,97.0
18843,72.0,1,25,11.0,93.0
18844,65.0,4,19,3.0,98.0
18845,45.0,2,15,15.0,72.0
18846,87.0,9,19,0.0,99.0
18847,75.0,0,19,1.0,97.0
18848,75.0,2,19,2.0,97.0
18849,86.0,1,25,10.0,93.0
18850,74.0,0,25,11.0,93.0
18851,63.0,6,19,3.0,98.0
18852,45.0,5,0,15.0,74.0
18853,89.0,8,19,0.0,99.0
18854,77.0,2,19,1.0,97.0
18855,77.0,1,19,2.0,97.0
18856,84.0,1,25,10.0,93.0
18857,65.0,5,19,3.0,98.0
18858,45.0,1,3,15.0,72.0
18859,72.0,1,25,11.0,93.0
18860,87.0,3,19,0.0,99.0
18861,75.0,3,19,1.0,97.0
18862,45.0,0,0,15.0,73.0
18863,75.0,2,19,2.0,97.0
18864,63.0,2,19,3.0,98.0
18865,86.0,1,25,10.0,93.0
18866,74.0,2,25,11.0,93.0
18867,89.0,8,19,0.0,99.0
18868,77.0,3,19,1.0,97.0
18869,77.0,2,19,2.0,97.0
18870,65.0,2,19,3.0,98.0
18871,84.0,4,25,10.0,93.0
18872,72.0,0,25,11.0,93.0
18873,87.0,8,19,0.0,99.0
18874,45.0,2,4,15.0,74.0
18875,75.0,3,19,1.0,97.0
18876,75.0,1,19,2.0,97.0
18877,63.0,6,19,3.0,98.0
18878,86.0,0,25,10.0,93.0
18879,74.0,2,25,11.0,93.0
18880,89.0,5,19,0.0,99.0
18881,77.0,3,19,1.0,97.0
18882,77.0,2,19,2.0,97.0
18883,45.0,1,15,15.0,76.0
18884,65.0,6,19,3.0,98.0
18885,84.0,1,25,10.0,93.0
18886,87.0,4,19,0.0,99.0
18887,72.0,2,25,11.0,93.0
18888,75.0,3,19,1.0,97.0
18889,75.0,2,19,2.0,97.0
18890,45.0,9,5,15.0,72.0
18891,63.0,1,19,3.0,98.0
18892,82.0,2,24,10.0,114.0
18893,70.0,1,24,11.0,114.0
18894,66.0,1,1070,12.0,100.0
18895,57.0,0,1070,12.0,100.0
18896,45.0,15,0,15.0,72.0
18897,86.0,1,30,0.0,99.0
18898,74.0,2,30,1.0,97.0
18899,74.0,2,30,2.0,97.0
18900,62.0,6,30,3.0,98.0
18901,84.0,1,19,0.0,99.0
18902,81.0,1,22,10.0,111.0
18903,72.0,2,19,1.0,97.0
18904,69.0,1,22,11.0,111.0
18905,72.0,2,19,2.0,97.0
18906,69.0,1,22,12.0,111.0
18907,45.0,3,15,15.0,76.0
18908,60.0,5,19,3.0,98.0
18909,86.0,5,19,0.0,99.0
18910,74.0,2,19,1.0,97.0
18911,82.0,1,22,10.0,106.0
18912,74.0,2,19,2.0,97.0
18913,70.0,0,22,11.0,106.0
18914,45.0,0,3,15.0,72.0
18915,62.0,3,19,3.0,98.0
18916,70.0,3,22,12.0,106.0
18917,84.0,7,19,0.0,99.0
18918,72.0,3,19,1.0,97.0
18919,72.0,1,19,2.0,97.0
18920,81.0,1,22,10.0,98.0
18921,69.0,1,22,11.0,98.0
18922,60.0,0,19,3.0,98.0
18923,69.0,5,22,12.0,98.0
18924,86.0,8,19,0.0,99.0
18925,45.0,1,0,15.0,74.0
18926,74.0,3,19,1.0,97.0
18927,74.0,0,19,2.0,97.0
18928,62.0,3,19,3.0,98.0
18929,82.0,1,25,10.0,93.0
18930,70.0,2,25,11.0,93.0
18931,45.0,0,5,15.0,73.0
18932,84.0,6,19,0.0,99.0
18933,70.0,2,25,12.0,93.0
18934,72.0,2,19,1.0,97.0
18935,72.0,2,19,2.0,97.0
18936,60.0,0,19,3.0,98.0
18937,81.0,4,25,10.0,93.0
18938,69.0,2,25,11.0,93.0
18939,86.0,4,19,0.0,99.0
18940,69.0,5,25,12.0,93.0
18941,74.0,3,19,1.0,97.0
18942,45.0,0,0,15.0,74.0
18943,74.0,2,19,2.0,97.0
18944,62.0,0,19,3.0,98.0
18945,82.0,4,25,10.0,93.0
18946,84.0,1,19,0.0,99.0
18947,70.0,2,25,11.0,93.0
18948,72.0,3,19,1.0,97.0
18949,72.0,2,19,2.0,97.0
18950,70.0,5,25,12.0,93.0
18951,60.0,6,19,3.0,98.0
18952,45.0,2,5,15.0,74.0
18953,86.0,4,19,0.0,99.0
18954,81.0,2,25,10.0,93.0
18955,69.0,2,25,11.0,93.0
18956,74.0,0,19,1.0,97.0
18957,74.0,2,19,2.0,97.0
18958,69.0,1,25,12.0,93.0
18959,62.0,6,19,3.0,98.0
18960,84.0,1,19,0.0,99.0
18961,72.0,3,19,1.0,97.0
18962,82.0,3,25,10.0,93.0
18963,72.0,1,19,2.0,97.0
18964,70.0,2,25,11.0,93.0
18965,45.0,2,1,15.0,72.0
18966,70.0,1,25,12.0,93.0
18967,60.0,6,19,3.0,98.0
18968,86.0,1,19,0.0,99.0
18969,74.0,2,19,1.0,97.0
18970,45.0,0,3,15.0,72.0
18971,81.0,5,25,10.0,93.0
18972,74.0,2,19,2.0,97.0
18973,69.0,1,25,11.0,93.0
18974,62.0,3,19,3.0,98.0
18975,69.0,1,25,12.0,93.0
18976,84.0,9,19,0.0,99.0
18977,72.0,2,19,1.0,97.0
18978,72.0,2,19,2.0,97.0
18979,82.0,1,25,10.0,93.0
18980,70.0,0,25,11.0,93.0
18981,60.0,3,19,3.0,98.0
18982,70.0,3,25,12.0,93.0
18983,45.0,1,3,15.0,72.0
18984,86.0,8,19,0.0,99.0
18985,74.0,3,19,1.0,97.0
18986,74.0,1,19,2.0,97.0
18987,45.0,1,1,15.0,73.0
18988,81.0,1,25,10.0,93.0
18989,62.0,0,19,3.0,98.0
18990,69.0,1,25,11.0,93.0
18991,69.0,5,25,12.0,93.0
18992,84.0,7,19,0.0,99.0
18993,72.0,3,19,1.0,97.0
18994,72.0,2,19,2.0,97.0
18995,60.0,3,19,3.0,98.0
18996,82.0,1,25,10.0,93.0
18997,70.0,1,25,11.0,93.0
18998,70.0,2,25,12.0,93.0
18999,86.0,6,19,0.0,99.0
19000,45.0,1,15,15.0,74.0
19001,74.0,3,19,1.0,97.0
19002,74.0,1,19,2.0,97.0
19003,62.0,2,19,3.0,98.0
19004,81.0,4,25,10.0,93.0
19005,45.0,2,15,15.0,73.0
19006,69.0,0,25,11.0,93.0
19007,84.0,3,19,0.0,99.0
19008,72.0,1,19,1.0,97.0
19009,69.0,5,25,12.0,93.0
19010,72.0,2,19,2.0,97.0
19011,60.0,6,19,3.0,98.0
19012,45.0,2,1,15.0,73.0
19013,82.0,0,25,10.0,93.0
19014,70.0,2,25,11.0,93.0
19015,86.0,1,19,0.0,99.0
19016,74.0,3,19,1.0,97.0
19017,70.0,5,25,12.0,93.0
19018,74.0,2,19,2.0,97.0
19019,45.0,0,4,15.0,72.0
19020,62.0,6,19,3.0,98.0
19021,84.0,2,19,0.0,99.0
19022,81.0,0,25,10.0,93.0
19023,45.0,9,0,15.0,74.0
19024,69.0,1,25,11.0,93.0
19025,72.0,2,19,1.0,97.0
19026,72.0,2,19,2.0,97.0
19027,69.0,1,25,12.0,93.0
19028,60.0,6,19,3.0,98.0
19029,70.0,0,45,7.0,120.0
19030,82.0,1,45,7.0,120.0
19031,58.0,2,45,8.0,122.0
19032,79.0,2,24,10.0,114.0
19033,57.0,0,1430,4.0,100.0
19034,45.0,0,1430,4.0,100.0
19035,67.0,1,24,11.0,114.0
19036,36.0,1,1430,13.0,100.0
19037,82.0,1,30,0.0,99.0
19038,67.0,1,24,12.0,114.0
19039,36.0,2,1430,14.0,100.0
19040,45.0,1,4,15.0,72.0
19041,70.0,2,30,1.0,97.0
19042,70.0,2,30,2.0,97.0
19043,58.0,5,30,3.0,98.0
19044,80.0,10,24,7.0,127.0
19045,92.0,0,24,7.0,123.0
19046,50.0,0,15,15.0,73.0
19047,68.0,0,24,8.0,127.0
19048,82.0,6,24,7.0,110.0
19049,50.0,5,15,15.0,73.0
19050,94.0,5,24,7.0,97.0
19051,70.0,1,24,8.0,110.0
19052,50.0,0,15,15.0,73.0
19053,80.0,12,24,7.0,110.0
19054,92.0,3,24,7.0,97.0
19055,68.0,7,24,8.0,109.0
19056,50.0,5,0,15.0,73.0
19057,82.0,7,24,7.0,110.0
19058,77.0,1,84,10.0,100.0
19059,65.0,1,84,11.0,100.0
19060,94.0,0,24,7.0,100.0
19061,65.0,1,84,12.0,100.0
19062,50.0,1,4,15.0,76.0
19063,70.0,10,24,8.0,111.0
19064,92.0,3,24,7.0,97.0
19065,80.0,7,24,7.0,110.0
19066,80.0,1,120,0.0,99.0
19067,68.0,9,24,8.0,109.0
19068,50.0,2,3,15.0,72.0
19069,68.0,0,120,1.0,97.0
19070,94.0,4,24,7.0,97.0
19071,68.0,2,120,2.0,97.0
19072,82.0,2,24,7.0,109.0
19073,56.0,4,120,3.0,98.0
19074,50.0,0,1,15.0,76.0
19075,70.0,10,24,8.0,109.0
19076,80.0,1,24,7.0,110.0
19077,92.0,5,24,7.0,99.0
19078,68.0,6,24,8.0,111.0
19079,50.0,3,15,15.0,74.0
19080,94.0,13,24,7.0,99.0
19081,82.0,1,24,7.0,110.0
19082,70.0,5,24,8.0,109.0
19083,50.0,3,15,15.0,74.0
19084,80.0,8,24,7.0,109.0
19085,92.0,2,24,7.0,99.0
19086,50.0,10,2,15.0,76.0
19087,68.0,8,24,8.0,110.0
19088,68.0,1,84,10.0,100.0
19089,68.0,1,84,11.0,100.0
19090,94.0,3,24,7.0,99.0
19091,82.0,0,24,7.0,110.0
19092,56.0,0,84,12.0,100.0
19093,70.0,0,24,8.0,109.0
19094,50.0,7,5,15.0,72.0
19095,80.0,14,24,7.0,110.0
19096,92.0,3,24,7.0,97.0
19097,68.0,3,24,8.0,110.0
19098,94.0,9,24,7.0,97.0
19099,82.0,0,24,7.0,111.0
19100,50.0,7,2,15.0,72.0
19101,70.0,7,24,8.0,111.0
19102,92.0,3,24,7.0,100.0
19103,50.0,2,3,15.0,72.0
19104,80.0,2,24,7.0,110.0
19105,68.0,1,24,8.0,109.0
19106,82.0,9,24,7.0,111.0
19107,94.0,2,24,7.0,99.0
19108,50.0,7,15,15.0,72.0
19109,70.0,8,24,8.0,109.0
19110,80.0,2,24,7.0,110.0
19111,92.0,4,24,7.0,97.0
19112,50.0,4,1,15.0,76.0
19113,68.0,6,24,8.0,109.0
19114,74.0,1,84,10.0,100.0
19115,74.0,2,84,11.0,100.0
19116,62.0,1,84,12.0,100.0
19117,50.0,13,0,15.0,76.0
19118,82.0,6,24,7.0,111.0
19119,94.0,4,24,7.0,99.0
19120,70.0,2,24,8.0,109.0
19121,50.0,9,2,15.0,72.0
19122,92.0,0,24,7.0,97.0
19123,80.0,4,24,7.0,109.0
19124,50.0,6,0,15.0,72.0
19125,68.0,0,24,8.0,109.0
19126,82.0,5,24,7.0,110.0
19127,94.0,4,24,7.0,97.0
19128,70.0,0,24,8.0,109.0
19129,50.0,7,15,15.0,72.0
19130,80.0,1,24,7.0,109.0
19131,92.0,2,24,7.0,97.0
19132,68.0,5,24,8.0,110.0
19133,50.0,0,15,15.0,74.0
19134,82.0,9,24,7.0,109.0
19135,94.0,2,24,7.0,100.0
19136,50.0,2,3,15.0,76.0
19137,70.0,9,24,8.0,111.0
19138,50.0,0,2,15.0,74.0
19139,80.0,7,24,7.0,109.0
19140,92.0,3,24,7.0,97.0
19141,65.0,1,84,10.0,100.0
19142,65.0,2,84,11.0,100.0
19143,68.0,7,24,8.0,109.0
19144,53.0,5,84,12.0,100.0
19145,82.0,6,24,7.0,109.0
19146,94.0,2,24,7.0,99.0
19147,50.0,5,15,15.0,73.0
19148,70.0,9,24,8.0,110.0
19149,92.0,3,24,7.0,99.0
19150,50.0,5,15,15.0,74.0
19151,80.0,7,24,7.0,111.0
19152,68.0,1,24,8.0,109.0
19153,50.0,1,15,15.0,72.0
19154,94.0,13,24,7.0,96.0
19155,82.0,1,24,7.0,109.0
19156,70.0,0,24,8.0,111.0
19157,50.0,7,0,15.0,76.0
19158,92.0,7,24,7.0,96.0
19159,80.0,2,24,7.0,110.0
19160,50.0,5,2,15.0,72.0
19161,68.0,6,24,8.0,111.0
19162,94.0,3,24,7.0,97.0
19163,50.0,3,1,15.0,74.0
19164,82.0,5,24,7.0,110.0
19165,70.0,6,24,8.0,111.0
19166,80.0,5,24,7.0,109.0
19167,68.0,1,84,10.0,100.0
19168,92.0,1,24,7.0,99.0
19169,68.0,1,84,11.0,100.0
19170,56.0,5,84,12.0,100.0
19171,68.0,6,24,8.0,110.0
19172,50.0,10,15,15.0,76.0
19173,82.0,3,24,7.0,110.0
19174,94.0,3,24,7.0,97.0
19175,50.0,4,5,15.0,72.0
19176,70.0,3,24,8.0,109.0
19177,80.0,6,24,7.0,110.0
19178,92.0,0,24,7.0,96.0
19179,68.0,6,24,8.0,110.0
19180,50.0,1,15,15.0,76.0
19181,82.0,1,24,7.0,110.0
19182,94.0,0,24,7.0,97.0
19183,50.0,6,15,15.0,73.0
19184,70.0,3,24,8.0,110.0
19185,80.0,3,24,7.0,110.0
19186,92.0,2,24,7.0,99.0
19187,50.0,2,15,15.0,72.0
19188,68.0,8,24,8.0,111.0
19189,50.0,5,15,15.0,72.0
19190,82.0,9,24,7.0,111.0
19191,94.0,2,24,7.0,100.0
19192,70.0,6,24,8.0,109.0
19193,50.0,10,15,15.0,72.0
19194,62.0,11,84,10.0,100.0
19195,62.0,1,84,11.0,100.0
19196,80.0,3,24,7.0,109.0
19197,92.0,0,24,7.0,97.0
19198,50.0,4,84,12.0,100.0
19199,50.0,1,3,15.0,72.0
19200,68.0,5,24,8.0,110.0
19201,50.0,6,0,15.0,72.0
19202,91.0,10,24,7.0,110.0
19203,79.0,1,24,7.0,121.0
19204,50.0,14,1,15.0,72.0
19205,67.0,9,24,8.0,121.0
19206,80.0,1,22,10.0,111.0
19207,68.0,4,22,12.0,111.0
19208,77.0,3,26,7.0,127.0
19209,89.0,0,26,7.0,123.0
19210,50.0,1,4,15.0,76.0
19211,65.0,6,26,8.0,127.0
19212,82.0,2,22,10.0,106.0
19213,91.0,1,26,7.0,97.0
19214,79.0,1,26,7.0,110.0
19215,70.0,6,22,12.0,106.0
19216,50.0,2,0,15.0,74.0
19217,67.0,7,26,8.0,111.0
19218,80.0,5,22,10.0,98.0
19219,68.0,2,22,12.0,98.0
19220,77.0,0,26,7.0,110.0
19221,89.0,4,26,7.0,99.0
19222,65.0,11,26,8.0,109.0
19223,82.0,0,27,10.0,93.0
19224,91.0,0,26,7.0,99.0
19225,79.0,4,26,7.0,109.0
19226,50.0,3,0,15.0,72.0
19227,70.0,3,27,12.0,93.0
19228,67.0,2,26,8.0,110.0
19229,50.0,2,1,15.0,74.0
19230,80.0,3,27,10.0,93.0
19231,89.0,0,26,7.0,99.0
19232,68.0,7,27,12.0,93.0
19233,77.0,2,26,7.0,110.0
19234,65.0,0,26,8.0,109.0
19235,82.0,10,27,10.0,93.0
19236,70.0,5,27,12.0,93.0
19237,79.0,1,26,7.0,110.0
19238,50.0,3,1,15.0,74.0
19239,91.0,7,26,7.0,96.0
19240,80.0,1,27,10.0,93.0
19241,67.0,5,26,8.0,109.0
19242,68.0,2,27,12.0,93.0
19243,89.0,2,26,7.0,97.0
19244,77.0,1,26,7.0,109.0
19245,50.0,4,4,15.0,73.0
19246,65.0,8,26,8.0,110.0
19247,82.0,1,27,10.0,93.0
19248,70.0,0,27,12.0,93.0
19249,79.0,3,26,7.0,110.0
19250,91.0,4,26,7.0,99.0
19251,80.0,4,27,10.0,93.0
19252,50.0,0,15,15.0,76.0
19253,67.0,3,26,8.0,109.0
19254,68.0,4,27,12.0,93.0
19255,89.0,4,26,7.0,99.0
19256,77.0,2,26,7.0,110.0
19257,50.0,1,0,15.0,73.0
19258,82.0,8,27,10.0,93.0
19259,65.0,6,26,8.0,110.0
19260,70.0,1,27,12.0,93.0
19261,50.0,7,2,15.0,76.0
19262,91.0,4,26,7.0,97.0
19263,79.0,4,26,7.0,110.0
19264,80.0,6,27,10.0,93.0
19265,67.0,1,26,8.0,109.0
19266,68.0,5,27,12.0,93.0
19267,77.0,0,26,7.0,110.0
19268,89.0,3,26,7.0,97.0
19269,50.0,1,4,15.0,73.0
19270,82.0,4,27,10.0,93.0
19271,70.0,7,27,12.0,93.0
19272,65.0,0,26,8.0,111.0
19273,79.0,8,25,7.0,109.0
19274,91.0,2,25,7.0,100.0
19275,80.0,0,27,10.0,93.0
19276,67.0,4,25,8.0,109.0
19277,50.0,11,15,15.0,73.0
19278,68.0,3,27,12.0,93.0
19279,89.0,0,25,7.0,97.0
19280,77.0,1,25,7.0,109.0
19281,82.0,4,27,10.0,93.0
19282,50.0,2,4,15.0,73.0
19283,70.0,6,27,12.0,93.0
19284,65.0,4,25,8.0,111.0
19285,50.0,1,0,15.0,76.0
19286,91.0,4,25,7.0,97.0
19287,79.0,3,25,7.0,110.0
19288,80.0,2,27,10.0,93.0
19289,77.0,0,15,7.0,101.0
19290,89.0,7,15,7.0,101.0
19291,50.0,10,0,15.0,72.0
19292,68.0,5,27,12.0,93.0
19293,67.0,2,25,8.0,110.0
19294,65.0,5,15,8.0,101.0
19295,50.0,2,1070,4.0,100.0
19296,79.0,0,24,10.0,114.0
19297,87.0,1,24,7.0,112.0
19298,62.0,0,1070,4.0,100.0
19299,75.0,1,24,7.0,120.0
19300,47.0,1,1070,13.0,100.0
19301,67.0,6,24,12.0,114.0
19302,50.0,1,1,15.0,73.0
19303,35.0,1,1070,14.0,100.0
19304,63.0,2,28,8.0,122.0
19305,77.0,1,22,10.0,111.0
19306,74.0,11,26,7.0,127.0
19307,86.0,1,26,7.0,120.0
19308,65.0,3,22,12.0,111.0
19309,50.0,0,2,15.0,73.0
19310,62.0,3,26,8.0,127.0
19311,79.0,0,22,10.0,106.0
19312,87.0,2,26,7.0,99.0
19313,50.0,6,0,15.0,72.0
19314,75.0,1,26,7.0,109.0
19315,67.0,6,22,12.0,106.0
19316,63.0,4,26,8.0,110.0
19317,77.0,9,22,10.0,98.0
19318,65.0,1,22,12.0,98.0
19319,74.0,0,26,7.0,111.0
19320,86.0,2,26,7.0,97.0
19321,50.0,5,1,15.0,72.0
19322,62.0,5,26,8.0,109.0
19323,79.0,6,27,10.0,93.0
19324,50.0,0,3,15.0,76.0
19325,67.0,5,27,12.0,93.0
19326,87.0,2,26,7.0,99.0
19327,75.0,2,26,7.0,110.0
19328,63.0,0,26,8.0,110.0
19329,77.0,5,27,10.0,93.0
19330,65.0,7,27,12.0,93.0
19331,86.0,3,26,7.0,100.0
19332,50.0,2,4,15.0,76.0
19333,74.0,5,26,7.0,109.0
19334,62.0,5,26,8.0,109.0
19335,79.0,2,27,10.0,93.0
19336,67.0,3,27,12.0,93.0
19337,75.0,3,26,7.0,110.0
19338,87.0,3,26,7.0,99.0
19339,50.0,2,2,15.0,72.0
19340,63.0,0,26,8.0,110.0
19341,77.0,6,27,10.0,93.0
19342,65.0,7,27,12.0,93.0
19343,74.0,5,26,7.0,109.0
19344,86.0,3,26,7.0,97.0
19345,79.0,3,27,10.0,93.0
19346,50.0,3,15,15.0,71.0
19347,67.0,5,27,12.0,93.0
19348,62.0,1,26,8.0,110.0
19349,87.0,6,26,7.0,97.0
19350,75.0,3,26,7.0,110.0
19351,50.0,5,1,15.0,72.0
19352,77.0,2,27,10.0,93.0
19353,65.0,7,27,12.0,93.0
19354,63.0,3,26,8.0,111.0
19355,74.0,6,26,7.0,110.0
19356,86.0,0,26,7.0,97.0
19357,79.0,3,27,10.0,93.0
19358,67.0,2,27,12.0,93.0
19359,62.0,2,26,8.0,109.0
19360,50.0,7,2,15.0,73.0
19361,87.0,11,26,7.0,99.0
19362,75.0,1,26,7.0,109.0
19363,77.0,1,27,10.0,93.0
19364,63.0,3,26,8.0,110.0
19365,65.0,3,27,12.0,93.0
19366,86.0,3,26,7.0,100.0
19367,50.0,0,3,15.0,75.0
19368,79.0,4,27,10.0,93.0
19369,74.0,2,26,7.0,111.0
19370,67.0,5,27,12.0,93.0
19371,62.0,2,26,8.0,111.0
19372,75.0,6,25,7.0,110.0
19373,87.0,3,25,7.0,99.0
19374,77.0,1,27,10.0,93.0
19375,50.0,7,15,15.0,77.0
19376,65.0,7,27,12.0,93.0
19377,63.0,3,25,8.0,110.0
19378,86.0,1,25,7.0,99.0
19379,74.0,1,25,7.0,109.0
19380,50.0,2,4,15.0,79.0
19381,79.0,3,27,10.0,93.0
19382,67.0,7,27,12.0,93.0
19383,62.0,3,25,8.0,110.0
19384,50.0,0,0,15.0,81.0
19385,87.0,9,25,7.0,99.0
19386,77.0,0,27,10.0,93.0
19387,75.0,1,25,7.0,111.0
19388,86.0,9,15,7.0,101.0
19389,74.0,1,15,7.0,101.0
19390,63.0,0,25,8.0,111.0
19391,65.0,4,27,12.0,93.0
19392,62.0,5,15,8.0,101.0
19393,50.0,1,15,15.0,84.0
19394,68.0,10,24,7.0,120.0
19395,46.0,1,345,13.0,100.0
19396,62.0,0,350,4.0,100.0
19397,50.0,3,350,4.0,100.0
19398,74.0,1,24,10.0,120.0
19399,80.0,2,24,7.0,120.0
19400,34.0,5,345,14.0,100.0
19401,56.0,0,24,8.0,122.0
19402,62.0,4,24,12.0,120.0
19403,50.0,10,15,15.0,88.0
19404,74.0,13,60,10.0,100.0
19405,86.0,0,60,10.0,100.0
19406,86.0,1,60,0.0,99.0
19407,77.0,2,60,1.0,97.0
19408,50.0,0,60,4.0,100.0
19409,62.0,0,60,4.0,100.0
19410,74.0,0,60,1.0,97.0
19411,74.0,0,60,2.0,97.0
19412,77.0,2,60,2.0,97.0
19413,77.0,0,60,12.0,100.0
19414,65.0,0,60,12.0,100.0
19415,50.0,2,60,15.0,102.0
19416,92.0,0,120,7.0,127.0
19417,80.0,0,120,7.0,127.0
19418,89.0,0,120,7.0,127.0
19419,86.0,1,120,7.0,127.0
19420,57.0,1,120,8.0,127.0
19421,62.0,0,120,8.0,127.0
19422,65.0,1,120,8.0,127.0
19423,68.0,2,120,8.0,127.0
19424,45.0,1,330,13.0,100.0
19425,57.0,0,330,13.0,100.0
19426,45.0,1,330,3.0,98.0
19427,57.0,0,330,3.0,98.0
19428,45.0,1,330,14.0,100.0
19429,86.0,0,60,10.0,100.0
19430,74.0,1,60,10.0,100.0
19431,86.0,1,60,0.0,99.0
19432,77.0,0,60,1.0,97.0
19433,74.0,0,60,1.0,97.0
19434,45.0,1,60,4.0,100.0
19435,57.0,0,60,4.0,100.0
19436,74.0,0,60,2.0,97.0
19437,77.0,0,60,2.0,97.0
19438,65.0,1,60,12.0,100.0
19439,77.0,0,60,12.0,100.0
19440,45.0,2,60,15.0,89.0
19441,93.0,344,120,7.0,127.0
19442,86.0,0,120,7.0,127.0
19443,89.0,0,120,7.0,127.0
19444,81.0,2,120,7.0,127.0
19445,57.0,2,120,8.0,127.0
19446,69.0,0,120,8.0,127.0
19447,62.0,1,120,8.0,127.0
19448,65.0,3,120,8.0,127.0
19449,53.0,0,220,13.0,100.0
19450,53.0,0,220,3.0,98.0
19451,41.0,1,220,3.0,98.0
19452,41.0,1,220,14.0,100.0
19453,50.0,233,105,13.0,100.0
19454,38.0,0,105,3.0,98.0
19455,50.0,4,105,3.0,98.0
19456,38.0,1,105,14.0,100.0
19457,61.0,0,60,4.0,100.0
19458,73.0,0,60,4.0,100.0
19459,62.0,1,60,13.0,100.0
19460,50.0,0,60,3.0,98.0
19461,62.0,4,60,3.0,98.0
19462,50.0,1,60,14.0,100.0
19463,82.0,102,180,7.0,127.0
19464,77.0,5,180,7.0,120.0
19465,74.0,2,180,7.0,120.0
19466,70.0,0,180,8.0,120.0
19467,76.0,109,60,4.0,100.0
19468,64.0,0,60,4.0,100.0
19469,65.0,1,180,8.0,120.0
19470,62.0,3,4,8.0,110.0
19471,65.0,4,60,13.0,100.0
19472,65.0,4,60,3.0,98.0
19473,53.0,0,60,3.0,98.0
19474,53.0,1,60,14.0,100.0
19475,81.0,42,30,7.0,118.0
19476,69.0,5,30,7.0,110.0
19477,65.0,4,30,8.0,110.0
19478,82.0,1,240,0.0,99.0
19479,86.0,0,240,0.0,99.0
19480,62.0,0,240,6.0,120.0
19481,74.0,0,240,6.0,120.0
19482,82.0,1,240,1.0,97.0
19483,70.0,0,240,1.0,97.0
19484,74.0,1,240,2.0,97.0
19485,77.0,0,240,2.0,97.0
19486,50.0,2,240,15.0,55.0
19487,53.0,0,15,13.0,100.0
19488,41.0,0,15,3.0,98.0
19489,53.0,4,15,3.0,98.0
19490,41.0,1,15,14.0,100.0
19491,82.0,51,30,7.0,117.0
19492,70.0,4,30,7.0,110.0
19493,62.0,3,30,8.0,110.0
19494,65.0,3,30,8.0,110.0
19495,55.0,25,15,13.0,100.0
19496,43.0,0,15,3.0,98.0
19497,55.0,4,15,3.0,98.0
19498,43.0,1,15,14.0,100.0
19499,76.0,13,30,7.0,118.0
19500,56.0,0,15,3.0,98.0
19501,44.0,2,15,3.0,98.0
19502,56.0,4,23,13.0,93.0
19503,64.0,6,30,7.0,110.0
19504,62.0,2,30,8.0,111.0
19505,44.0,5,23,14.0,93.0
19506,58.0,0,30,8.0,109.0
19507,58.0,0,15,3.0,98.0
19508,46.0,1,15,3.0,98.0
19509,58.0,14,23,13.0,93.0
19510,44.0,6,15,3.0,98.0
19511,46.0,4,23,14.0,93.0
19512,56.0,5,15,3.0,98.0
19513,56.0,5,23,13.0,93.0
19514,46.0,2,15,3.0,98.0
19515,58.0,1,15,3.0,98.0
19516,44.0,5,23,14.0,93.0
19517,56.0,0,15,3.0,98.0
19518,77.0,1,30,7.0,117.0
19519,44.0,2,15,3.0,98.0
19520,65.0,3,30,7.0,109.0
19521,58.0,5,23,13.0,93.0
19522,62.0,2,30,8.0,109.0
19523,58.0,2,30,8.0,110.0
19524,46.0,3,23,14.0,93.0
19525,58.0,11,15,3.0,98.0
19526,46.0,3,15,3.0,98.0
19527,56.0,2,23,13.0,93.0
19528,56.0,7,15,3.0,98.0
19529,44.0,5,23,14.0,93.0
19530,44.0,1,15,3.0,98.0
19531,46.0,0,15,3.0,98.0
19532,58.0,2,15,3.0,98.0
19533,58.0,8,23,13.0,93.0
19534,46.0,0,23,14.0,93.0
19535,61.0,3,30,7.0,109.0
19536,56.0,6,15,3.0,98.0
19537,44.0,1,15,3.0,98.0
19538,73.0,2,30,7.0,118.0
19539,53.0,4,30,8.0,109.0
19540,56.0,0,23,13.0,93.0
19541,58.0,4,30,8.0,110.0
19542,46.0,6,15,3.0,98.0
19543,44.0,4,23,14.0,93.0
19544,58.0,4,15,3.0,98.0
19545,44.0,1,15,3.0,98.0
19546,56.0,2,15,3.0,98.0
19547,58.0,6,23,13.0,93.0
19548,46.0,5,23,14.0,93.0
19549,58.0,1,15,3.0,98.0
19550,46.0,2,15,3.0,98.0
19551,56.0,1,23,13.0,93.0
19552,44.0,2,23,14.0,93.0
19553,74.0,12,30,7.0,117.0
19554,44.0,2,15,3.0,98.0
19555,56.0,1,15,3.0,98.0
19556,62.0,1,30,7.0,111.0
19557,58.0,4,30,8.0,111.0
19558,53.0,2,30,8.0,109.0
19559,58.0,6,23,13.0,93.0
19560,58.0,5,15,3.0,98.0
19561,46.0,2,15,3.0,98.0
19562,46.0,5,23,14.0,93.0
19563,44.0,1,15,3.0,98.0
19564,56.0,1,15,3.0,98.0
19565,56.0,9,23,13.0,93.0
19566,44.0,5,23,14.0,93.0
19567,46.0,10,15,3.0,98.0
19568,58.0,1,15,3.0,98.0
19569,58.0,3,23,13.0,93.0
19570,69.0,0,30,7.0,116.0
19571,56.0,7,15,3.0,98.0
19572,46.0,1,23,14.0,93.0
19573,44.0,3,15,3.0,98.0
19574,57.0,1,30,7.0,110.0
19575,53.0,3,30,8.0,111.0
19576,50.0,0,30,8.0,109.0
19577,58.0,0,15,3.0,98.0
19578,46.0,3,15,3.0,98.0
19579,56.0,6,23,13.0,93.0
19580,44.0,5,23,14.0,93.0
19581,56.0,3,15,3.0,98.0
19582,44.0,0,15,3.0,98.0
19583,58.0,13,23,13.0,93.0
19584,46.0,2,23,14.0,93.0
19585,58.0,11,15,3.0,98.0
19586,46.0,1,15,3.0,98.0
19587,56.0,0,23,13.0,93.0
19588,44.0,4,15,3.0,98.0
19589,70.0,0,30,7.0,117.0
19590,56.0,1,15,3.0,98.0
19591,44.0,2,23,14.0,93.0
19592,58.0,4,30,7.0,110.0
19593,53.0,2,30,8.0,109.0
19594,50.0,1,30,8.0,110.0
19595,58.0,2,15,3.0,98.0
19596,46.0,1,15,3.0,98.0
19597,58.0,11,23,13.0,93.0
19598,46.0,3,23,14.0,93.0
19599,44.0,11,15,3.0,98.0
19600,56.0,2,15,3.0,98.0
19601,56.0,2,23,13.0,93.0
19602,44.0,5,23,14.0,93.0
19603,64.0,0,30,7.0,117.0
19604,52.0,10,30,7.0,109.0
19605,46.0,5,30,8.0,110.0
19606,50.0,1,30,8.0,110.0
19607,55.0,3,30,13.0,100.0
19608,43.0,0,30,3.0,98.0
19609,55.0,4,30,3.0,98.0
19610,43.0,1,30,14.0,100.0
19611,56.0,25,30,13.0,100.0
19612,44.0,0,30,3.0,98.0
19613,56.0,4,30,3.0,98.0
19614,44.0,1,30,14.0,100.0
19615,65.0,16,30,7.0,117.0
19616,62.0,1,30,7.0,109.0
19617,59.0,1,30,7.0,109.0
19618,47.0,0,30,8.0,109.0
19619,50.0,1,30,8.0,110.0
19620,53.0,1,30,8.0,110.0
19621,71.0,41,30,7.0,113.0
19622,62.0,6,30,7.0,107.0
19623,50.0,0,30,8.0,109.0
19624,65.0,1,30,7.0,109.0
19625,53.0,1,30,8.0,107.0
19626,59.0,2,30,8.0,107.0
19627,77.0,51,30,7.0,111.0
19628,74.0,4,30,7.0,103.0
19629,71.0,2,30,7.0,106.0
19630,62.0,1,30,8.0,103.0
19631,65.0,0,30,8.0,103.0
19632,59.0,2,30,8.0,107.0
19633,83.0,0,30,7.0,111.0
19634,77.0,52,30,7.0,102.0
19635,74.0,2,30,7.0,103.0
19636,62.0,6,30,8.0,102.0
19637,65.0,0,30,8.0,103.0
19638,71.0,1,30,8.0,101.0
19639,86.0,0,240,0.0,99.0
19640,83.0,0,240,0.0,99.0
19641,62.0,2,240,6.0,120.0
19642,74.0,0,240,6.0,120.0
19643,71.0,0,240,1.0,97.0
19644,83.0,1,240,1.0,97.0
19645,74.0,0,240,2.0,97.0
19646,77.0,0,240,2.0,97.0
19647,50.0,2,240,15.0,55.0
19648,64.0,112,15,7.0,94.0
19649,52.0,8,15,8.0,101.0
19650,55.0,2,330,13.0,100.0
19651,55.0,4,330,3.0,98.0
19652,43.0,0,330,3.0,98.0
19653,43.0,1,330,14.0,100.0
19654,65.0,24,15,7.0,102.0
19655,53.0,7,15,8.0,102.0
19656,65.0,25,30,7.0,102.0
19657,53.0,4,30,8.0,103.0
19658,67.0,17,30,7.0,103.0
19659,55.0,11,30,8.0,103.0
19660,69.0,20,30,7.0,99.0
19661,57.0,9,30,8.0,97.0
19662,71.0,22,30,7.0,102.0
19663,59.0,4,30,8.0,100.0
19664,72.0,24,30,7.0,105.0
19665,60.0,9,30,8.0,103.0
19666,74.0,19,30,7.0,105.0
19667,62.0,12,30,8.0,106.0
19668,76.0,20,30,7.0,106.0
19669,64.0,6,30,8.0,109.0
19670,50.0,1,220,13.0,100.0
19671,50.0,4,220,3.0,98.0
19672,38.0,0,220,3.0,98.0
19673,38.0,1,220,14.0,100.0
19674,77.0,24,30,7.0,112.0
19675,65.0,10,30,8.0,109.0
19676,79.0,23,17,7.0,107.0
19677,67.0,3,17,8.0,107.0
19678,81.0,4,17,7.0,102.0
19679,69.0,10,17,8.0,105.0
19680,83.0,9,17,7.0,103.0
19681,71.0,7,17,8.0,105.0
19682,84.0,8,17,7.0,106.0
19683,72.0,8,17,8.0,106.0
19684,86.0,7,17,7.0,103.0
19685,74.0,9,17,8.0,103.0
19686,88.0,8,17,7.0,102.0
19687,76.0,11,17,8.0,102.0
19688,47.0,5,105,13.0,100.0
19689,47.0,1,105,3.0,98.0
19690,35.0,1,105,14.0,100.0
19691,89.0,8,17,7.0,100.0
19692,77.0,4,17,8.0,101.0
19693,59.0,0,60,13.0,100.0
19694,59.0,4,60,3.0,98.0
19695,47.0,1,60,14.0,100.0
19696,86.0,12,180,7.0,117.0
19697,90.0,1,180,7.0,127.0
19698,83.0,1,180,7.0,117.0
19699,74.0,0,1,8.0,109.0
19700,71.0,0,180,8.0,117.0
19701,78.0,2,180,8.0,117.0
19702,62.0,113,60,13.0,100.0
19703,62.0,4,60,3.0,98.0
19704,50.0,1,60,14.0,100.0
19705,89.0,43,30,7.0,126.0
19706,77.0,7,30,7.0,109.0
19707,71.0,5,30,8.0,109.0
19708,86.0,0,240,0.0,99.0
19709,83.0,1,240,0.0,99.0
19710,74.0,0,240,6.0,120.0
19711,62.0,2,240,6.0,120.0
19712,83.0,0,240,1.0,97.0
19713,71.0,1,240,1.0,97.0
19714,78.0,2,240,2.0,97.0
19715,74.0,0,240,2.0,97.0
19716,50.0,2,240,15.0,55.0
19717,50.0,1,15,13.0,100.0
19718,50.0,4,15,3.0,98.0
19719,90.0,50,30,7.0,124.0
19720,38.0,1,15,14.0,100.0
19721,78.0,5,30,7.0,109.0
19722,71.0,2,30,8.0,111.0
19723,74.0,2,30,8.0,110.0
19724,52.0,25,15,13.0,100.0
19725,52.0,4,15,3.0,98.0
19726,40.0,1,15,14.0,100.0
19727,85.0,14,30,7.0,126.0
19728,73.0,1,30,7.0,110.0
19729,54.0,0,15,3.0,98.0
19730,54.0,2,23,13.0,93.0
19731,42.0,5,23,14.0,93.0
19732,66.0,8,30,8.0,109.0
19733,71.0,0,30,8.0,111.0
19734,55.0,13,15,3.0,98.0
19735,55.0,3,23,13.0,93.0
19736,43.0,5,23,14.0,93.0
19737,54.0,9,15,3.0,98.0
19738,55.0,0,15,3.0,98.0
19739,54.0,7,23,13.0,93.0
19740,42.0,5,23,14.0,93.0
19741,86.0,1,30,7.0,124.0
19742,54.0,3,15,3.0,98.0
19743,74.0,2,30,7.0,109.0
19744,55.0,0,23,13.0,93.0
19745,71.0,9,30,8.0,111.0
19746,66.0,1,30,8.0,109.0
19747,43.0,5,23,14.0,93.0
19748,55.0,14,15,3.0,98.0
19749,54.0,2,23,13.0,93.0
19750,54.0,3,15,3.0,98.0
19751,42.0,5,23,14.0,93.0
19752,55.0,1,15,3.0,98.0
19753,55.0,13,23,13.0,93.0
19754,43.0,2,23,14.0,93.0
19755,54.0,2,15,3.0,98.0
19756,82.0,3,30,7.0,124.0
19757,70.0,4,30,7.0,109.0
19758,66.0,2,30,8.0,111.0
19759,54.0,4,23,13.0,93.0
19760,62.0,3,30,8.0,109.0
19761,42.0,5,23,14.0,93.0
19762,55.0,10,15,3.0,98.0
19763,54.0,2,15,3.0,98.0
19764,55.0,6,23,13.0,93.0
19765,43.0,5,23,14.0,93.0
19766,55.0,2,15,3.0,98.0
19767,54.0,14,23,13.0,93.0
19768,42.0,0,23,14.0,93.0
19769,54.0,7,15,3.0,98.0
19770,83.0,1,30,7.0,124.0
19771,71.0,2,30,7.0,110.0
19772,62.0,0,30,8.0,109.0
19773,66.0,3,30,8.0,110.0
19774,55.0,6,23,13.0,93.0
19775,55.0,6,15,3.0,98.0
19776,43.0,5,23,14.0,93.0
19777,54.0,4,15,3.0,98.0
19778,54.0,10,23,13.0,93.0
19779,42.0,1,23,14.0,93.0
19780,55.0,2,15,3.0,98.0
19781,55.0,1,23,13.0,93.0
19782,77.0,12,30,7.0,124.0
19783,54.0,4,15,3.0,98.0
19784,43.0,5,23,14.0,93.0
19785,65.0,1,30,7.0,109.0
19786,59.0,1,30,8.0,110.0
19787,62.0,2,30,8.0,109.0
19788,55.0,0,15,3.0,98.0
19789,54.0,9,23,13.0,93.0
19790,42.0,5,23,14.0,93.0
19791,54.0,15,15,3.0,98.0
19792,55.0,1,23,13.0,93.0
19793,43.0,5,23,14.0,93.0
19794,55.0,10,15,3.0,98.0
19795,54.0,2,23,13.0,93.0
19796,54.0,2,15,3.0,98.0
19797,66.0,2,30,7.0,110.0
19798,42.0,2,23,14.0,93.0
19799,78.0,2,30,7.0,124.0
19800,62.0,3,30,8.0,110.0
19801,59.0,1,30,8.0,110.0
19802,55.0,1,15,3.0,98.0
19803,55.0,13,23,13.0,93.0
19804,43.0,5,23,14.0,93.0
19805,54.0,1,15,3.0,98.0
19806,54.0,15,23,13.0,93.0
19807,42.0,4,23,14.0,93.0
19808,73.0,7,30,7.0,124.0
19809,61.0,2,30,7.0,111.0
19810,59.0,5,30,8.0,109.0
19811,53.0,0,30,13.0,100.0
19812,54.0,5,30,8.0,110.0
19813,53.0,4,30,3.0,98.0
19814,41.0,1,30,14.0,100.0
19815,55.0,25,30,13.0,100.0
19816,55.0,4,30,3.0,98.0
19817,43.0,1,30,14.0,100.0
19818,74.0,12,30,7.0,124.0
19819,67.0,0,30,7.0,109.0
19820,71.0,0,30,7.0,110.0
19821,55.0,0,30,8.0,110.0
19822,59.0,0,30,8.0,109.0
19823,62.0,0,30,8.0,111.0
19824,79.0,40,30,7.0,120.0
19825,74.0,7,30,7.0,107.0
19826,71.0,1,30,7.0,109.0
19827,67.0,1,30,8.0,109.0
19828,62.0,3,30,8.0,109.0
19829,59.0,1,30,8.0,107.0
19830,86.0,48,30,7.0,117.0
19831,83.0,4,30,7.0,106.0
19832,79.0,2,30,7.0,106.0
19833,71.0,2,30,8.0,106.0
19834,74.0,0,30,8.0,107.0
19835,67.0,3,30,8.0,105.0
19836,91.0,51,30,7.0,117.0
19837,86.0,2,30,7.0,101.0
19838,83.0,2,30,7.0,101.0
19839,71.0,1,30,8.0,102.0
19840,74.0,2,30,8.0,103.0
19841,79.0,2,30,8.0,101.0
19842,83.0,6,240,0.0,99.0
19843,86.0,0,240,0.0,99.0
19844,74.0,2,240,6.0,120.0
19845,62.0,0,240,6.0,120.0
19846,83.0,1,240,1.0,97.0
19847,71.0,0,240,1.0,97.0
19848,79.0,2,240,2.0,97.0
19849,74.0,0,240,2.0,97.0
19850,50.0,2,240,15.0,55.0
19851,66.0,114,15,7.0,103.0
19852,54.0,5,15,8.0,106.0
19853,53.0,2,330,13.0,100.0
19854,53.0,4,330,3.0,98.0
19855,41.0,1,330,14.0,100.0
19856,67.0,23,15,7.0,103.0
19857,55.0,12,15,8.0,106.0
19858,67.0,20,30,7.0,97.0
19859,55.0,5,30,8.0,99.0
19860,69.0,18,30,7.0,99.0
19861,57.0,9,30,8.0,101.0
19862,71.0,20,30,7.0,101.0
19863,59.0,9,30,8.0,102.0
19864,72.0,22,30,7.0,103.0
19865,60.0,7,30,8.0,103.0
19866,74.0,21,30,7.0,107.0
19867,62.0,8,30,8.0,107.0
19868,76.0,24,30,7.0,109.0
19869,64.0,10,30,8.0,107.0
19870,78.0,20,30,7.0,109.0
19871,66.0,8,30,8.0,107.0
19872,50.0,2,220,13.0,100.0
19873,50.0,4,220,3.0,98.0
19874,38.0,1,220,14.0,100.0
19875,79.0,24,30,7.0,112.0
19876,67.0,3,30,8.0,111.0
19877,81.0,24,17,7.0,107.0
19878,69.0,2,17,8.0,105.0
19879,83.0,6,17,7.0,107.0
19880,71.0,9,17,8.0,103.0
19881,84.0,6,17,7.0,103.0
19882,72.0,11,17,8.0,106.0
19883,86.0,4,17,7.0,106.0
19884,74.0,8,17,8.0,106.0
19885,88.0,10,17,7.0,103.0
19886,76.0,11,17,8.0,105.0
19887,90.0,6,17,7.0,102.0
19888,78.0,10,17,8.0,102.0
19889,47.0,8,105,13.0,100.0
19890,47.0,2,105,3.0,98.0
19891,35.0,1,105,14.0,100.0
19892,91.0,11,17,7.0,102.0
19893,79.0,3,17,8.0,101.0
19894,59.0,1,60,13.0,100.0
19895,59.0,4,60,3.0,98.0
19896,47.0,1,60,14.0,100.0
19897,92.0,9,165,7.0,127.0
19898,89.0,1,165,7.0,127.0
19899,86.0,0,165,7.0,127.0
19900,74.0,0,165,8.0,127.0
19901,80.0,1,165,8.0,127.0
19902,77.0,1,165,8.0,127.0
19903,62.0,113,60,13.0,100.0
19904,62.0,4,60,3.0,98.0
19905,50.0,1,60,14.0,100.0
19906,91.0,43,30,7.0,117.0
19907,79.0,6,30,7.0,109.0
19908,74.0,4,30,8.0,109.0
19909,77.0,0,30,8.0,110.0
19910,62.0,1,240,6.0,120.0
19911,74.0,0,240,6.0,120.0
19912,50.0,2,240,15.0,55.0
19913,92.0,51,30,7.0,114.0
19914,74.0,6,30,8.0,110.0
19915,80.0,0,30,7.0,110.0
19916,77.0,4,30,8.0,109.0
19917,88.0,49,30,7.0,114.0
19918,76.0,4,30,7.0,109.0
19919,74.0,3,30,8.0,110.0
19920,68.0,3,30,8.0,109.0
19921,89.0,52,30,7.0,117.0
19922,77.0,1,30,7.0,110.0
19923,74.0,1,30,8.0,109.0
19924,68.0,2,30,8.0,110.0
19925,59.0,1,60,13.0,100.0
19926,59.0,4,60,3.0,98.0
19927,47.0,1,60,14.0,100.0
19928,85.0,40,30,7.0,117.0
19929,73.0,5,30,7.0,111.0
19930,68.0,0,30,8.0,110.0
19931,65.0,7,30,8.0,110.0
19932,68.0,1,120,10.0,100.0
19933,62.0,2,120,11.0,100.0
19934,62.0,1,120,6.0,120.0
19935,74.0,0,120,6.0,120.0
19936,62.0,0,120,12.0,100.0
19937,56.0,1,120,12.0,100.0
19938,50.0,2,120,15.0,55.0
19939,86.0,50,30,7.0,114.0
19940,74.0,6,30,7.0,110.0
19941,65.0,3,30,8.0,109.0
19942,68.0,1,30,8.0,110.0
19943,62.0,1,60,13.0,100.0
19944,62.0,4,60,3.0,98.0
19945,50.0,1,60,14.0,100.0
19946,79.0,45,30,7.0,114.0
19947,67.0,3,30,7.0,110.0
19948,62.0,5,30,8.0,109.0
19949,65.0,2,30,8.0,109.0
19950,80.0,50,30,7.0,117.0
19951,68.0,2,30,7.0,110.0
19952,62.0,4,30,8.0,110.0
19953,65.0,1,30,8.0,110.0
19954,77.0,51,30,7.0,117.0
19955,65.0,2,30,7.0,111.0
19956,62.0,5,30,8.0,110.0
19957,56.0,5,30,8.0,110.0
19958,46.0,1,60,13.0,100.0
19959,46.0,4,60,3.0,98.0
19960,34.0,1,60,14.0,100.0
19961,62.0,0,120,10.0,100.0
19962,74.0,2,120,10.0,100.0
19963,68.0,0,120,11.0,100.0
19964,62.0,1,120,11.0,100.0
19965,62.0,0,120,6.0,120.0
19966,74.0,1,120,6.0,120.0
19967,56.0,0,120,12.0,100.0
19968,65.0,2,120,12.0,100.0
19969,50.0,2,120,15.0,66.0
19970,92.0,50,165,7.0,127.0
19971,80.0,1,165,7.0,127.0
19972,77.0,2,165,8.0,127.0
19973,74.0,0,165,8.0,127.0
19974,50.0,113,60,13.0,100.0
19975,50.0,4,60,3.0,98.0
19976,38.0,1,60,14.0,100.0
19977,88.0,47,30,7.0,117.0
19978,76.0,2,30,7.0,111.0
19979,74.0,3,30,8.0,110.0
19980,68.0,3,30,8.0,111.0
19981,77.0,51,30,7.0,111.0
19982,89.0,1,30,7.0,118.0
19983,68.0,0,30,8.0,109.0
19984,74.0,3,30,8.0,110.0
19985,53.0,5,60,13.0,100.0
19986,53.0,4,60,3.0,98.0
19987,41.0,1,60,14.0,100.0
19988,85.0,43,30,7.0,116.0
19989,73.0,7,30,7.0,110.0
19990,68.0,0,30,8.0,110.0
19991,65.0,5,30,8.0,109.0
19992,86.0,48,30,7.0,117.0
19993,74.0,3,30,7.0,111.0
19994,65.0,1,30,8.0,109.0
19995,68.0,1,30,8.0,110.0
19996,58.0,0,60,13.0,100.0
19997,58.0,4,60,3.0,98.0
19998,46.0,1,60,14.0,100.0
19999,79.0,42,30,7.0,117.0
20000,67.0,5,30,7.0,110.0
20001,65.0,4,30,8.0,109.0
20002,62.0,1,30,8.0,110.0
20003,62.0,1,120,10.0,100.0
20004,77.0,0,120,10.0,100.0
20005,74.0,0,120,10.0,100.0
20006,74.0,2,120,11.0,100.0
20007,68.0,0,120,11.0,100.0
20008,74.0,0,120,6.0,120.0
20009,62.0,1,120,6.0,120.0
20010,56.0,0,120,12.0,100.0
20011,65.0,0,120,12.0,100.0
20012,74.0,3,120,12.0,100.0
20013,50.0,2,120,15.0,77.0
20014,80.0,49,30,7.0,118.0
20015,68.0,3,30,7.0,110.0
20016,65.0,6,30,8.0,110.0
20017,62.0,1,30,8.0,110.0
20018,62.0,2,60,13.0,100.0
20019,62.0,4,60,3.0,98.0
20020,50.0,1,60,14.0,100.0
20021,76.0,46,30,7.0,116.0
20022,64.0,0,30,7.0,110.0
20023,56.0,7,30,8.0,110.0
20024,62.0,1,30,8.0,110.0
20025,77.0,52,30,7.0,117.0
20026,65.0,2,30,7.0,110.0
20027,62.0,2,30,8.0,109.0
20028,56.0,2,30,8.0,110.0
20029,74.0,50,30,7.0,117.0
20030,62.0,7,30,7.0,109.0
20031,56.0,3,30,8.0,110.0
20032,53.0,3,30,8.0,109.0
20033,86.0,0,1430,0.0,99.0
20034,80.0,4,1430,0.0,99.0
20035,74.0,0,1430,1.0,97.0
20036,77.0,1,1430,1.0,97.0
20037,77.0,0,1430,2.0,97.0
20038,68.0,1,1430,2.0,97.0
20039,69.0,1,20,12.0,115.0
20040,57.0,0,20,12.0,115.0
20041,57.0,1,20,13.0,115.0
20042,69.0,0,20,12.0,100.0
20043,57.0,22,20,12.0,100.0
20044,57.0,1,20,13.0,100.0
20045,57.0,0,20,12.0,115.0
20046,69.0,29,20,12.0,115.0
20047,57.0,1,20,13.0,115.0
20048,77.0,47,120,7.0,127.0
20049,57.0,29,20,12.0,100.0
20050,69.0,0,20,12.0,100.0
20051,57.0,1,20,13.0,100.0
20052,65.0,4,120,7.0,122.0
20053,62.0,1,120,6.0,127.0
20054,74.0,0,120,7.0,120.0
20055,74.0,0,120,6.0,127.0
20056,65.0,0,1560,4.0,100.0
20057,62.0,0,1560,4.0,100.0
20058,50.0,0,120,8.0,120.0
20059,57.0,1,120,8.0,122.0
20060,45.0,1,120,8.0,120.0
20061,53.0,1,120,8.0,122.0
20062,57.0,1,120,3.0,98.0
20063,45.0,1,120,14.0,100.0
20064,50.0,2,120,15.0,89.0
20065,62.0,29,20,12.0,115.0
20066,50.0,1,20,13.0,115.0
20067,77.0,1,165,10.0,100.0
20068,74.0,0,165,10.0,100.0
20069,62.0,0,165,10.0,100.0
20070,57.0,1,165,11.0,100.0
20071,74.0,0,165,11.0,100.0
20072,65.0,0,165,11.0,100.0
20073,62.0,25,20,12.0,100.0
20074,50.0,1,20,13.0,100.0
20075,81.0,0,180,0.0,99.0
20076,93.0,1,180,0.0,99.0
20077,77.0,0,180,1.0,97.0
20078,74.0,1,180,1.0,97.0
20079,69.0,0,180,2.0,97.0
20080,77.0,2,180,2.0,97.0
20081,76.0,0,20,10.0,115.0
20082,73.0,22,20,10.0,115.0
20083,67.0,1,20,11.0,115.0
20084,62.0,1,20,12.0,115.0
20085,50.0,1,20,13.0,115.0
20086,76.0,22,20,10.0,100.0
20087,73.0,0,20,10.0,100.0
20088,79.0,1,50,0.0,99.0
20089,88.0,0,50,0.0,99.0
20090,67.0,2,20,11.0,100.0
20091,76.0,2,50,1.0,97.0
20092,73.0,0,50,1.0,97.0
20093,76.0,0,50,2.0,97.0
20094,67.0,2,50,2.0,97.0
20095,62.0,5,20,12.0,100.0
20096,50.0,1,20,13.0,100.0
20097,50.0,4,120,3.0,98.0
20098,76.0,0,20,10.0,115.0
20099,73.0,22,20,10.0,115.0
20100,67.0,1,20,11.0,115.0
20101,57.0,1,20,12.0,115.0
20102,45.0,1,20,13.0,115.0
20103,76.0,0,20,10.0,100.0
20104,73.0,18,20,10.0,100.0
20105,67.0,2,20,11.0,100.0
20106,57.0,5,20,12.0,100.0
20107,45.0,1,20,13.0,100.0
20108,79.0,1,60,0.0,99.0
20109,88.0,0,60,0.0,99.0
20110,76.0,0,60,1.0,97.0
20111,73.0,2,60,1.0,97.0
20112,67.0,2,60,2.0,97.0
20113,76.0,0,60,2.0,97.0
20114,77.0,22,20,10.0,115.0
20115,74.0,0,20,10.0,115.0
20116,69.0,1,20,11.0,115.0
20117,57.0,1,20,12.0,115.0
20118,45.0,1,20,13.0,115.0
20119,74.0,22,20,10.0,100.0
20120,77.0,0,20,10.0,100.0
20121,81.0,0,50,0.0,99.0
20122,89.0,1,50,0.0,99.0
20123,69.0,2,20,11.0,100.0
20124,74.0,0,50,1.0,97.0
20125,77.0,2,50,1.0,97.0
20126,69.0,0,50,2.0,97.0
20127,77.0,2,50,2.0,97.0
20128,45.0,4,105,3.0,98.0
20129,57.0,5,20,12.0,100.0
20130,45.0,1,20,13.0,100.0
20131,74.0,0,20,10.0,115.0
20132,77.0,22,20,10.0,115.0
20133,69.0,1,20,11.0,115.0
20134,69.0,0,20,12.0,115.0
20135,57.0,1,20,12.0,115.0
20136,57.0,1,20,13.0,115.0
20137,74.0,0,20,10.0,100.0
20138,77.0,15,20,10.0,100.0
20139,69.0,2,20,11.0,100.0
20140,57.0,5,20,12.0,100.0
20141,69.0,0,20,12.0,100.0
20142,57.0,1,20,13.0,100.0
20143,81.0,1,60,0.0,99.0
20144,89.0,0,60,0.0,99.0
20145,77.0,0,60,1.0,97.0
20146,74.0,1,60,1.0,97.0
20147,77.0,0,60,2.0,97.0
20148,69.0,2,60,2.0,97.0
20149,76.0,0,20,10.0,115.0
20150,79.0,22,20,10.0,115.0
20151,70.0,1,20,11.0,115.0
20152,57.0,1,20,12.0,115.0
20153,69.0,0,20,12.0,115.0
20154,57.0,1,20,13.0,115.0
20155,79.0,0,20,10.0,100.0
20156,76.0,22,20,10.0,100.0
20157,82.0,0,50,0.0,99.0
20158,91.0,1,50,0.0,99.0
20159,70.0,2,20,11.0,100.0
20160,79.0,2,50,1.0,97.0
20161,76.0,0,50,1.0,97.0
20162,70.0,0,50,2.0,97.0
20163,79.0,2,50,2.0,97.0
20164,57.0,5,20,12.0,100.0
20165,69.0,0,20,12.0,100.0
20166,57.0,1,20,13.0,100.0
20167,74.0,1,120,6.0,127.0
20168,62.0,0,120,6.0,127.0
20169,57.0,4,120,3.0,98.0
20170,50.0,3,120,15.0,89.0
20171,79.0,22,20,10.0,115.0
20172,76.0,0,20,10.0,115.0
20173,70.0,1,20,11.0,115.0
20174,62.0,1,20,12.0,115.0
20175,50.0,1,20,13.0,115.0
20176,76.0,0,20,10.0,100.0
20177,79.0,18,20,10.0,100.0
20178,70.0,2,20,11.0,100.0
20179,62.0,5,20,12.0,100.0
20180,50.0,1,20,13.0,100.0
20181,91.0,1,60,0.0,99.0
20182,82.0,0,60,0.0,99.0
20183,76.0,2,60,1.0,97.0
20184,79.0,0,60,1.0,97.0
20185,70.0,2,60,2.0,97.0
20186,79.0,0,60,2.0,97.0
20187,76.0,22,20,10.0,115.0
20188,73.0,0,20,10.0,115.0
20189,67.0,1,20,11.0,115.0
20190,62.0,1,20,12.0,115.0
20191,50.0,1,20,13.0,115.0
20192,73.0,0,20,10.0,100.0
20193,76.0,22,20,10.0,100.0
20194,88.0,1,50,0.0,99.0
20195,79.0,0,50,0.0,99.0
20196,67.0,2,20,11.0,100.0
20197,76.0,2,50,1.0,97.0
20198,73.0,0,50,1.0,97.0
20199,67.0,2,50,2.0,97.0
20200,76.0,0,50,2.0,97.0
20201,62.0,5,20,12.0,100.0
20202,50.0,1,20,13.0,100.0
20203,50.0,4,120,3.0,98.0
20204,73.0,22,20,10.0,115.0
20205,76.0,0,20,10.0,115.0
20206,67.0,1,20,11.0,115.0
20207,57.0,1,20,12.0,115.0
20208,45.0,1,20,13.0,115.0
20209,76.0,18,20,10.0,100.0
20210,73.0,0,20,10.0,100.0
20211,67.0,2,20,11.0,100.0
20212,57.0,5,20,12.0,100.0
20213,45.0,1,20,13.0,100.0
20214,79.0,0,60,0.0,99.0
20215,88.0,1,60,0.0,99.0
20216,76.0,2,60,1.0,97.0
20217,73.0,0,60,1.0,97.0
20218,76.0,2,60,2.0,97.0
20219,67.0,0,60,2.0,97.0
20220,74.0,0,20,10.0,115.0
20221,77.0,22,20,10.0,115.0
20222,69.0,1,20,11.0,115.0
20223,57.0,1,20,12.0,115.0
20224,45.0,1,20,13.0,115.0
20225,77.0,0,20,10.0,100.0
20226,74.0,22,20,10.0,100.0
20227,89.0,1,50,0.0,99.0
20228,81.0,0,50,0.0,99.0
20229,69.0,2,20,11.0,100.0
20230,77.0,2,50,1.0,97.0
20231,74.0,0,50,1.0,97.0
20232,77.0,2,50,2.0,97.0
20233,69.0,0,50,2.0,97.0
20234,57.0,5,20,12.0,100.0
20235,45.0,4,105,3.0,98.0
20236,45.0,1,20,13.0,100.0
20237,62.0,1,20,12.0,115.0
20238,50.0,1,20,13.0,115.0
20239,62.0,24,20,12.0,100.0
20240,50.0,1,20,13.0,100.0
20241,62.0,29,20,12.0,115.0
20242,50.0,1,20,13.0,115.0
20243,62.0,29,20,12.0,100.0
20244,50.0,1,20,13.0,100.0
20245,62.0,4,120,3.0,98.0
20246,50.0,0,120,3.0,98.0
20247,38.0,1,120,14.0,127.0
20248,57.0,29,20,12.0,115.0
20249,45.0,1,20,13.0,115.0
20250,74.0,22,165,10.0,90.0
20251,77.0,0,165,10.0,90.0
20252,69.0,1,165,11.0,90.0
20253,57.0,25,20,12.0,100.0
20254,45.0,1,20,13.0,100.0
20255,81.0,0,180,0.0,99.0
20256,89.0,1,180,0.0,99.0
20257,74.0,2,180,1.0,97.0
20258,77.0,0,180,1.0,97.0
20259,77.0,2,180,2.0,97.0
20260,69.0,0,180,2.0,97.0
20261,73.0,22,20,10.0,115.0
20262,64.0,1,20,11.0,115.0
20263,57.0,1,20,12.0,115.0
20264,45.0,1,20,13.0,115.0
20265,73.0,22,20,10.0,100.0
20266,76.0,1,50,0.0,99.0
20267,85.0,0,50,0.0,99.0
20268,64.0,2,20,11.0,100.0
20269,69.0,0,50,1.0,97.0
20270,73.0,2,50,1.0,97.0
20271,64.0,2,50,2.0,97.0
20272,73.0,0,50,2.0,97.0
20273,57.0,5,20,12.0,100.0
20274,45.0,1,20,13.0,100.0
20275,57.0,4,120,3.0,98.0
20276,45.0,0,120,3.0,98.0
20277,73.0,22,20,10.0,115.0
20278,64.0,1,20,11.0,115.0
20279,50.0,1,20,12.0,115.0
20280,38.0,1,20,13.0,115.0
20281,73.0,18,20,10.0,100.0
20282,64.0,2,20,11.0,100.0
20283,50.0,5,20,12.0,100.0
20284,38.0,1,20,13.0,100.0
20285,85.0,1,60,0.0,99.0
20286,76.0,0,60,0.0,99.0
20287,73.0,2,60,1.0,97.0
20288,64.0,2,60,2.0,97.0
20289,73.0,0,60,2.0,97.0
20290,74.0,22,20,10.0,115.0
20291,65.0,1,20,11.0,115.0
20292,50.0,1,20,12.0,115.0
20293,38.0,1,20,13.0,115.0
20294,74.0,22,20,10.0,100.0
20295,77.0,0,50,0.0,99.0
20296,86.0,1,50,0.0,99.0
20297,65.0,2,20,11.0,100.0
20298,69.0,0,110,1.0,97.0
20299,74.0,2,50,1.0,97.0
20300,65.0,0,50,2.0,97.0
20301,74.0,2,50,2.0,97.0
20302,38.0,0,105,3.0,98.0
20303,50.0,5,20,12.0,100.0
20304,50.0,4,105,3.0,98.0
20305,38.0,1,20,13.0,100.0
20306,74.0,22,20,10.0,115.0
20307,65.0,1,20,11.0,115.0
20308,62.0,1,20,12.0,115.0
20309,50.0,1,20,13.0,115.0
20310,74.0,15,20,10.0,100.0
20311,65.0,2,20,11.0,100.0
20312,62.0,5,20,12.0,100.0
20313,50.0,1,20,13.0,100.0
20314,86.0,0,60,0.0,99.0
20315,77.0,1,60,0.0,99.0
20316,74.0,1,60,1.0,97.0
20317,65.0,0,60,2.0,97.0
20318,74.0,2,60,2.0,97.0
20319,76.0,22,20,10.0,115.0
20320,67.0,1,20,11.0,115.0
20321,62.0,1,20,12.0,115.0
20322,50.0,1,20,13.0,115.0
20323,76.0,22,20,10.0,100.0
20324,79.0,0,50,0.0,99.0
20325,88.0,1,50,0.0,99.0
20326,67.0,2,20,11.0,100.0
20327,76.0,2,50,1.0,97.0
20328,69.0,0,110,1.0,97.0
20329,76.0,2,50,2.0,97.0
20330,67.0,0,50,2.0,97.0
20331,62.0,5,20,12.0,100.0
20332,50.0,1,20,13.0,100.0
20333,74.0,0,120,6.0,127.0
20334,62.0,1,120,6.0,127.0
20335,62.0,4,120,3.0,98.0
20336,50.0,0,120,3.0,98.0
20337,50.0,3,120,15.0,74.0
20338,76.0,22,20,10.0,115.0
20339,67.0,1,20,11.0,115.0
20340,57.0,1,20,12.0,115.0
20341,45.0,1,20,13.0,115.0
20342,76.0,18,20,10.0,100.0
20343,67.0,2,20,11.0,100.0
20344,57.0,5,20,12.0,100.0
20345,45.0,1,20,13.0,100.0
20346,79.0,0,60,0.0,99.0
20347,88.0,1,60,0.0,99.0
20348,76.0,0,60,1.0,97.0
20349,67.0,0,60,2.0,97.0
20350,76.0,2,60,2.0,97.0
20351,73.0,22,20,10.0,115.0
20352,64.0,1,20,11.0,115.0
20353,57.0,1,20,12.0,115.0
20354,45.0,1,20,13.0,115.0
20355,73.0,22,20,10.0,100.0
20356,85.0,1,50,0.0,99.0
20357,76.0,0,50,0.0,99.0
20358,64.0,2,20,11.0,100.0
20359,73.0,2,50,1.0,97.0
20360,69.0,2,110,1.0,97.0
20361,64.0,2,50,2.0,97.0
20362,73.0,0,50,2.0,97.0
20363,57.0,5,20,12.0,100.0
20364,45.0,1,20,13.0,100.0
20365,45.0,4,120,3.0,98.0
20366,57.0,0,120,3.0,98.0
20367,73.0,22,20,10.0,115.0
20368,64.0,1,20,11.0,115.0
20369,50.0,1,20,12.0,115.0
20370,38.0,1,20,13.0,115.0
20371,73.0,18,20,10.0,100.0
20372,64.0,2,20,11.0,100.0
20373,50.0,5,20,12.0,100.0
20374,38.0,1,20,13.0,100.0
20375,85.0,0,60,0.0,99.0
20376,76.0,1,60,0.0,99.0
20377,73.0,0,60,1.0,97.0
20378,64.0,0,60,2.0,97.0
20379,73.0,2,60,2.0,97.0
20380,74.0,22,20,10.0,115.0
20381,65.0,1,20,11.0,115.0
20382,50.0,1,20,12.0,115.0
20383,38.0,1,20,13.0,115.0
20384,74.0,22,20,10.0,100.0
20385,86.0,1,50,0.0,99.0
20386,77.0,0,50,0.0,99.0
20387,65.0,2,20,11.0,100.0
20388,74.0,2,50,1.0,97.0
20389,69.0,2,110,1.0,97.0
20390,74.0,2,50,2.0,97.0
20391,65.0,0,50,2.0,97.0
20392,38.0,4,105,3.0,98.0
20393,50.0,5,20,12.0,100.0
20394,50.0,0,105,3.0,98.0
20395,38.0,1,20,13.0,100.0
20396,62.0,0,20,12.0,98.0
20397,74.0,1,20,12.0,98.0
20398,50.0,0,20,13.0,98.0
20399,62.0,1,20,13.0,98.0
20400,62.0,0,20,12.0,86.0
20401,74.0,22,20,12.0,86.0
20402,62.0,0,20,13.0,86.0
20403,50.0,1,20,13.0,86.0
20404,62.0,29,20,12.0,98.0
20405,74.0,0,20,12.0,98.0
20406,62.0,0,20,13.0,98.0
20407,50.0,1,20,13.0,98.0
20408,74.0,29,20,12.0,86.0
20409,62.0,0,20,12.0,86.0
20410,50.0,1,20,13.0,86.0
20411,62.0,0,20,13.0,86.0
20412,62.0,1,120,6.0,119.0
20413,74.0,0,120,6.0,119.0
20414,50.0,4,120,3.0,98.0
20415,62.0,0,120,3.0,98.0
20416,31.0,1,120,14.0,106.0
20417,50.0,2,120,15.0,66.0
20418,67.0,29,20,12.0,115.0
20419,55.0,1,20,13.0,115.0
20420,74.0,22,165,10.0,93.0
20421,67.0,1,165,11.0,80.0
20422,70.0,0,165,11.0,80.0
20423,67.0,25,20,12.0,100.0
20424,55.0,1,20,13.0,100.0
20425,79.0,0,180,0.0,99.0
20426,86.0,1,180,0.0,99.0
20427,67.0,0,180,2.0,97.0
20428,74.0,2,180,2.0,97.0
20429,70.0,22,20,10.0,115.0
20430,62.0,1,20,11.0,115.0
20431,67.0,1,20,12.0,115.0
20432,55.0,1,20,13.0,115.0
20433,70.0,22,20,10.0,100.0
20434,74.0,0,50,0.0,99.0
20435,82.0,1,50,0.0,99.0
20436,62.0,2,20,11.0,100.0
20437,62.0,4,50,2.0,97.0
20438,70.0,0,50,2.0,97.0
20439,67.0,5,20,12.0,100.0
20440,55.0,1,20,13.0,100.0
20441,70.0,1,240,1.0,97.0
20442,55.0,0,120,3.0,98.0
20443,43.0,4,120,3.0,98.0
20444,70.0,22,20,10.0,115.0
20445,62.0,1,20,11.0,115.0
20446,55.0,1,20,12.0,115.0
20447,43.0,1,20,13.0,115.0
20448,70.0,22,20,10.0,100.0
20449,62.0,2,20,11.0,100.0
20450,55.0,5,20,12.0,100.0
20451,43.0,1,20,13.0,100.0
20452,74.0,0,60,0.0,99.0
20453,82.0,1,60,0.0,99.0
20454,70.0,4,60,2.0,97.0
20455,62.0,0,60,2.0,97.0
20456,69.0,22,20,10.0,115.0
20457,60.0,1,20,11.0,115.0
20458,55.0,1,20,12.0,115.0
20459,43.0,1,20,13.0,115.0
20460,69.0,22,20,10.0,100.0
20461,81.0,1,50,0.0,99.0
20462,72.0,0,50,0.0,99.0
20463,60.0,2,20,11.0,100.0
20464,69.0,4,50,2.0,97.0
20465,60.0,0,50,2.0,97.0
20466,55.0,5,20,12.0,100.0
20467,43.0,1,20,13.0,100.0
20468,69.0,22,20,10.0,115.0
20469,60.0,1,20,11.0,115.0
20470,62.0,1,20,12.0,115.0
20471,50.0,0,20,13.0,115.0
20472,62.0,1,20,13.0,115.0
20473,69.0,18,20,10.0,100.0
20474,60.0,2,20,11.0,100.0
20475,62.0,5,20,12.0,100.0
20476,50.0,1,20,13.0,100.0
20477,62.0,0,20,13.0,100.0
20478,72.0,0,60,0.0,99.0
20479,81.0,1,60,0.0,99.0
20480,60.0,0,60,2.0,97.0
20481,69.0,4,60,2.0,97.0
20482,67.0,22,20,10.0,115.0
20483,58.0,1,20,11.0,115.0
20484,62.0,1,20,12.0,115.0
20485,62.0,1,20,13.0,115.0
20486,50.0,0,20,13.0,115.0
20487,67.0,22,20,10.0,100.0
20488,70.0,0,50,0.0,99.0
20489,79.0,1,50,0.0,99.0
20490,58.0,2,20,11.0,100.0
20491,58.0,4,50,2.0,97.0
20492,67.0,0,50,2.0,97.0
20493,62.0,5,20,12.0,100.0
20494,50.0,0,20,13.0,100.0
20495,62.0,1,20,13.0,100.0
20496,50.0,4,120,3.0,98.0
20497,62.0,0,120,3.0,98.0
20498,67.0,22,20,10.0,115.0
20499,58.0,1,20,11.0,115.0
20500,55.0,1,20,12.0,115.0
20501,55.0,1,20,13.0,115.0
20502,67.0,17,20,10.0,100.0
20503,58.0,2,20,11.0,100.0
20504,55.0,5,20,12.0,100.0
20505,55.0,1,20,13.0,100.0
20506,79.0,0,60,0.0,99.0
20507,70.0,1,60,0.0,99.0
20508,67.0,4,60,2.0,97.0
20509,58.0,0,60,2.0,97.0
20510,65.0,22,20,10.0,115.0
20511,57.0,1,20,11.0,115.0
20512,55.0,1,20,12.0,115.0
20513,55.0,1,20,13.0,115.0
20514,65.0,22,20,10.0,100.0
20515,69.0,0,50,0.0,99.0
20516,77.0,1,50,0.0,99.0
20517,57.0,2,20,11.0,100.0
20518,57.0,4,50,2.0,97.0
20519,65.0,0,50,2.0,97.0
20520,55.0,5,20,12.0,100.0
20521,55.0,1,20,13.0,100.0
20522,43.0,4,120,3.0,98.0
20523,55.0,0,120,3.0,98.0
20524,43.0,1,120,14.0,83.0
20525,65.0,22,20,10.0,115.0
20526,57.0,1,20,11.0,115.0
20527,55.0,1,20,12.0,115.0
20528,43.0,1,20,13.0,115.0
20529,65.0,17,20,10.0,100.0
20530,57.0,2,20,11.0,100.0
20531,55.0,5,20,12.0,100.0
20532,43.0,1,20,13.0,100.0
20533,69.0,0,60,0.0,99.0
20534,77.0,1,60,0.0,99.0
20535,65.0,4,60,2.0,97.0
20536,57.0,0,60,2.0,97.0
20537,64.0,22,20,10.0,115.0
20538,55.0,1,20,11.0,115.0
20539,55.0,1,20,12.0,115.0
20540,43.0,1,20,13.0,115.0
20541,64.0,22,20,10.0,100.0
20542,76.0,1,50,0.0,99.0
20543,67.0,0,50,0.0,99.0
20544,55.0,2,20,11.0,100.0
20545,55.0,4,50,2.0,97.0
20546,64.0,0,50,2.0,97.0
20547,55.0,5,20,12.0,100.0
20548,43.0,1,20,13.0,100.0
20549,31.0,5,120,14.0,80.0
20550,64.0,22,20,10.0,115.0
20551,55.0,1,20,11.0,115.0
20552,62.0,1,20,12.0,115.0
20553,62.0,1,20,13.0,115.0
20554,50.0,0,20,13.0,115.0
20555,64.0,17,20,10.0,100.0
20556,55.0,2,20,11.0,100.0
20557,62.0,5,20,12.0,100.0
20558,50.0,1,20,13.0,100.0
20559,62.0,0,20,13.0,100.0
20560,76.0,0,60,0.0,99.0
20561,67.0,1,60,0.0,99.0
20562,64.0,0,60,2.0,97.0
20563,55.0,4,60,2.0,97.0
20564,67.0,22,20,10.0,115.0
20565,58.0,1,20,11.0,115.0
20566,62.0,1,20,12.0,115.0
20567,50.0,0,20,13.0,115.0
20568,62.0,1,20,13.0,115.0
20569,67.0,22,20,10.0,100.0
20570,58.0,2,20,11.0,100.0
20571,62.0,5,20,12.0,100.0
20572,50.0,0,20,13.0,100.0
20573,62.0,1,20,13.0,100.0
20574,70.0,0,60,0.0,99.0
20575,79.0,1,60,0.0,99.0
20576,67.0,0,60,2.0,97.0
20577,58.0,4,60,2.0,97.0
20578,62.0,4,120,3.0,98.0
20579,50.0,0,120,3.0,98.0
20580,43.0,1,120,14.0,77.0
20581,70.0,22,20,10.0,115.0
20582,64.0,1,20,11.0,115.0
20583,55.0,1,20,12.0,115.0
20584,55.0,1,20,13.0,115.0
20585,70.0,18,20,10.0,100.0
20586,64.0,2,20,11.0,100.0
20587,55.0,5,20,12.0,100.0
20588,55.0,1,20,13.0,100.0
20589,76.0,1,60,0.0,99.0
20590,82.0,0,60,0.0,99.0
20591,70.0,0,60,2.0,97.0
20592,64.0,4,60,2.0,97.0
20593,76.0,22,20,10.0,115.0
20594,67.0,1,20,11.0,115.0
20595,55.0,1,20,12.0,115.0
20596,55.0,1,20,13.0,115.0
20597,76.0,22,20,10.0,100.0
20598,67.0,2,20,11.0,100.0
20599,55.0,5,20,12.0,100.0
20600,55.0,1,20,13.0,100.0
20601,88.0,0,60,0.0,99.0
20602,79.0,1,60,0.0,99.0
20603,67.0,4,60,2.0,97.0
20604,76.0,0,60,2.0,97.0
20605,55.0,4,120,3.0,98.0
20606,43.0,0,120,3.0,98.0
20607,79.0,22,20,10.0,115.0
20608,70.0,1,20,11.0,115.0
20609,55.0,1,20,12.0,115.0
20610,43.0,1,20,13.0,115.0
20611,79.0,22,20,10.0,100.0
20612,70.0,2,20,11.0,100.0
20613,55.0,5,20,12.0,100.0
20614,43.0,1,20,13.0,100.0
20615,82.0,1,60,0.0,99.0
20616,91.0,0,60,0.0,99.0
20617,79.0,0,60,2.0,97.0
20618,70.0,4,60,2.0,97.0
20619,76.0,22,20,10.0,115.0
20620,67.0,1,20,11.0,115.0
20621,55.0,1,20,12.0,115.0
20622,43.0,1,20,13.0,115.0
20623,76.0,22,20,10.0,100.0
20624,88.0,1,50,0.0,99.0
20625,79.0,0,50,0.0,99.0
20626,67.0,2,20,11.0,100.0
20627,76.0,0,50,2.0,97.0
20628,67.0,4,50,2.0,97.0
20629,55.0,5,20,12.0,100.0
20630,43.0,1,20,13.0,100.0
20631,74.0,22,20,10.0,115.0
20632,65.0,1,20,11.0,115.0
20633,62.0,1,20,12.0,115.0
20634,50.0,1,20,13.0,115.0
20635,62.0,0,20,13.0,115.0
20636,74.0,15,20,10.0,100.0
20637,65.0,2,20,11.0,100.0
20638,62.0,5,20,12.0,100.0
20639,62.0,1,20,13.0,100.0
20640,50.0,0,20,13.0,100.0
20641,74.0,22,20,10.0,115.0
20642,65.0,2,20,11.0,115.0
20643,62.0,5,20,12.0,115.0
20644,62.0,0,20,13.0,115.0
20645,50.0,1,20,13.0,115.0
20646,74.0,22,20,10.0,100.0
20647,65.0,2,20,11.0,100.0
20648,62.0,5,20,12.0,100.0
20649,50.0,1,20,13.0,100.0
20650,62.0,0,20,13.0,100.0
20651,86.0,0,120,0.0,99.0
20652,77.0,1,120,0.0,99.0
20653,69.0,0,120,6.0,127.0
20654,57.0,1,120,6.0,127.0
20655,74.0,0,1200,1.0,97.0
20656,74.0,3,120,2.0,97.0
20657,65.0,0,120,2.0,97.0
20658,57.0,0,120,3.0,98.0
20659,45.0,4,120,3.0,98.0
20660,45.0,3,120,15.0,49.0
20661,73.0,22,20,10.0,115.0
20662,64.0,1,20,11.0,115.0
20663,57.0,1,20,12.0,115.0
20664,55.0,1,20,13.0,115.0
20665,73.0,17,20,10.0,100.0
20666,64.0,2,20,11.0,100.0
20667,57.0,5,20,12.0,100.0
20668,55.0,1,20,13.0,100.0
20669,73.0,22,20,10.0,115.0
20670,64.0,2,20,11.0,115.0
20671,57.0,5,20,12.0,115.0
20672,55.0,1,20,13.0,115.0
20673,73.0,22,20,10.0,100.0
20674,85.0,1,110,0.0,99.0
20675,76.0,0,110,0.0,99.0
20676,64.0,2,20,11.0,100.0
20677,64.0,2,110,2.0,97.0
20678,73.0,0,110,2.0,97.0
20679,57.0,5,20,12.0,100.0
20680,55.0,1,20,13.0,100.0
20681,73.0,2,120,1.0,97.0
20682,45.0,5,120,14.0,52.0
20683,74.0,22,20,10.0,115.0
20684,69.0,1,20,11.0,115.0
20685,65.0,1,20,12.0,115.0
20686,43.0,1,20,13.0,115.0
20687,74.0,17,20,10.0,100.0
20688,69.0,2,20,11.0,100.0
20689,65.0,5,20,12.0,100.0
20690,43.0,1,20,13.0,100.0
20691,77.0,0,60,0.0,99.0
20692,86.0,1,60,0.0,99.0
20693,74.0,4,60,2.0,97.0
20694,65.0,0,60,2.0,97.0
20695,76.0,22,20,10.0,115.0
20696,73.0,1,20,11.0,115.0
20697,67.0,1,20,12.0,115.0
20698,43.0,1,20,13.0,115.0
20699,76.0,22,20,10.0,100.0
20700,88.0,0,50,0.0,99.0
20701,79.0,1,50,0.0,99.0
20702,73.0,2,20,11.0,100.0
20703,67.0,4,50,2.0,97.0
20704,76.0,0,50,2.0,97.0
20705,67.0,5,20,12.0,100.0
20706,43.0,1,20,13.0,100.0
20707,33.0,5,120,14.0,55.0
20708,50.0,11,4,15.0,43.0
20709,50.0,13,2,15.0,42.0
20710,50.0,14,1,15.0,42.0
20711,50.0,15,0,15.0,42.0
20712,50.0,0,1,15.0,42.0
20713,78.0,22,120,10.0,86.0
20714,81.0,0,120,0.0,87.0
20715,90.0,1,120,0.0,87.0
20716,74.0,1,120,11.0,86.0
20717,62.0,1,120,6.0,127.0
20718,74.0,0,120,6.0,127.0
20719,69.0,0,120,2.0,85.0
20720,78.0,2,120,2.0,85.0
20721,69.0,1,120,12.0,86.0
20722,50.0,1,120,13.0,86.0
20723,50.0,4,120,3.0,86.0
20724,38.0,1,120,14.0,49.0
20725,50.0,11,4,15.0,40.0
20726,80.0,14,40,7.0,84.0
20727,68.0,9,40,8.0,77.0
20728,50.0,14,1,15.0,38.0
20729,81.0,10,40,7.0,61.0
20730,69.0,3,40,8.0,54.0
20731,50.0,2,4,15.0,39.0
20732,84.0,3,40,7.0,59.0
20733,50.0,18,15,15.0,39.0
20734,72.0,6,40,8.0,50.0
20735,50.0,14,1,15.0,38.0
20736,50.0,15,0,15.0,39.0
20737,77.0,13,40,7.0,79.0
20738,65.0,2,40,8.0,70.0
20739,50.0,1,4,15.0,39.0
20740,50.0,15,15,15.0,38.0
20741,78.0,0,40,7.0,57.0
20742,66.0,10,40,8.0,51.0
20743,50.0,19,15,15.0,38.0
20744,62.0,1,335,4.0,92.0
20745,50.0,14,1,15.0,37.0
20746,81.0,2,40,7.0,59.0
20747,50.0,14,1,15.0,37.0
20748,69.0,3,40,8.0,51.0
20749,50.0,14,1,15.0,38.0
20750,74.0,1,40,7.0,76.0
20751,62.0,1,40,8.0,70.0
20752,50.0,5,2,15.0,38.0
20753,50.0,13,2,15.0,38.0
20754,75.0,8,40,7.0,55.0
20755,63.0,2,40,8.0,50.0
20756,50.0,4,15,15.0,38.0
20757,78.0,4,40,7.0,54.0
20758,50.0,2,0,15.0,37.0
20759,66.0,8,40,8.0,48.0
20760,50.0,13,2,15.0,36.0
20761,71.0,13,40,7.0,72.0
20762,59.0,6,40,8.0,68.0
20763,50.0,13,1,15.0,37.0
20764,50.0,15,0,15.0,37.0
20765,72.0,15,40,7.0,55.0
20766,60.0,1,40,8.0,48.0
20767,50.0,5,2,15.0,37.0
20768,57.0,2,225,4.0,89.0
20769,75.0,3,40,7.0,51.0
20770,63.0,5,40,8.0,48.0
20771,50.0,4,1,15.0,35.0
20772,50.0,12,1,15.0,35.0
20773,68.0,10,40,7.0,71.0
20774,56.0,0,40,8.0,61.0
20775,50.0,4,1,15.0,35.0
20776,50.0,15,0,15.0,35.0
20777,69.0,10,40,7.0,51.0
20778,57.0,0,40,8.0,46.0
20779,50.0,4,2,15.0,33.0
20780,50.0,14,1,15.0,35.0
20781,72.0,3,30,7.0,51.0
20782,54.0,2,110,4.0,87.0
20783,60.0,6,30,8.0,44.0
20784,50.0,2,0,15.0,43.0
20785,68.0,13,40,7.0,72.0
20786,56.0,4,40,8.0,60.0
20787,66.0,0,60,4.0,86.0
20788,54.0,0,60,4.0,86.0
20789,69.0,25,40,7.0,49.0
20790,57.0,2,40,8.0,44.0
20791,72.0,36,40,7.0,50.0
20792,60.0,4,40,8.0,45.0
20793,50.0,11,120,15.0,33.0
20794,71.0,40,40,7.0,68.0
20795,59.0,2,40,8.0,60.0
20796,57.0,2,60,4.0,85.0
20797,69.0,0,60,4.0,85.0
20798,72.0,35,40,7.0,47.0
20799,60.0,1,40,8.0,44.0
20800,75.0,41,40,7.0,49.0
20801,63.0,1,40,8.0,46.0
20802,68.0,39,40,7.0,69.0
20803,56.0,1,40,8.0,59.0
20804,69.0,37,40,7.0,46.0
20805,57.0,5,40,8.0,41.0
20806,72.0,34,30,7.0,46.0
20807,60.0,5,30,8.0,43.0
20808,65.0,38,40,7.0,63.0
20809,53.0,0,40,8.0,59.0
20810,60.0,4,60,12.0,100.0
20811,48.0,1,60,13.0,100.0
20812,66.0,34,40,7.0,47.0
20813,54.0,5,40,8.0,42.0
20814,69.0,36,40,7.0,46.0
20815,57.0,1,40,8.0,42.0
20816,68.0,37,40,7.0,63.0
20817,56.0,5,40,8.0,57.0
20818,63.0,1,60,12.0,100.0
20819,51.0,1,60,13.0,100.0
20820,69.0,31,40,7.0,46.0
20821,57.0,4,40,8.0,43.0
20822,72.0,40,40,7.0,45.0
20823,60.0,3,40,8.0,41.0
20824,65.0,34,40,7.0,60.0
20825,53.0,5,40,8.0,55.0
20826,66.0,37,40,7.0,44.0
20827,54.0,3,40,8.0,42.0
20828,69.0,33,30,7.0,44.0
20829,57.0,8,30,8.0,40.0
20830,62.0,33,30,7.0,62.0
20831,50.0,7,30,8.0,56.0
20832,63.0,33,30,7.0,44.0
20833,51.0,6,30,8.0,41.0
20834,66.0,36,30,7.0,44.0
20835,54.0,3,30,8.0,40.0
20836,57.0,1,110,12.0,45.0
20837,45.0,1,110,13.0,45.0
20838,62.0,34,30,7.0,64.0
20839,50.0,4,30,8.0,58.0
20840,51.0,34,30,8.0,42.0
20841,63.0,0,30,7.0,48.0
20842,66.0,38,30,7.0,49.0
20843,54.0,2,30,8.0,43.0
20844,60.0,3,110,12.0,46.0
20845,48.0,1,110,13.0,46.0
20846,62.0,40,30,7.0,66.0
20847,50.0,4,30,8.0,55.0
20848,63.0,33,30,7.0,50.0
20849,51.0,1,30,8.0,44.0
20850,66.0,40,30,7.0,52.0
20851,54.0,4,30,8.0,44.0
20852,59.0,1,110,12.0,46.0
20853,47.0,1,110,13.0,46.0
20854,65.0,35,30,7.0,63.0
20855,53.0,3,30,8.0,57.0
20856,66.0,30,30,7.0,53.0
20857,54.0,8,30,8.0,47.0
20858,75.0,34,30,7.0,56.0
20859,57.0,3,110,12.0,47.0
20860,63.0,7,30,8.0,48.0
20861,45.0,1,110,13.0,47.0
20862,66.0,34,30,7.0,72.0
20863,54.0,2,30,8.0,59.0
20864,67.0,34,30,7.0,56.0
20865,55.0,5,30,8.0,48.0
20866,76.0,32,30,7.0,61.0
20867,64.0,3,30,8.0,49.0
20868,55.0,4,110,12.0,47.0
20869,43.0,1,110,13.0,47.0
20870,67.0,0,30,7.0,75.0
20871,55.0,0,30,8.0,71.0
20872,69.0,30,30,7.0,63.0
20873,57.0,1,30,8.0,57.0
20874,78.0,35,30,7.0,69.0
20875,66.0,8,30,8.0,58.0
20876,54.0,3,110,12.0,49.0
20877,42.0,1,110,13.0,49.0
20878,71.0,38,120,10.0,90.0
20879,71.0,1,120,0.0,87.0
20880,71.0,1,120,11.0,90.0
20881,52.0,1,20,12.0,115.0
20882,52.0,24,20,12.0,100.0
20883,52.0,30,20,12.0,115.0
20884,52.0,30,20,12.0,100.0
20885,79.0,32,120,7.0,81.0
20886,52.0,1,110,13.0,52.0
20887,67.0,2,120,7.0,70.0
20888,71.0,0,120,7.0,74.0
20889,40.0,1,110,14.0,52.0
20890,52.0,1,120,8.0,66.0
20891,64.0,2,120,8.0,71.0
20892,59.0,0,120,8.0,70.0
20893,59.0,30,20,12.0,115.0
20894,59.0,29,20,12.0,100.0
20895,79.0,0,180,10.0,90.0
20896,76.0,1,180,0.0,96.0
20897,76.0,1,180,11.0,90.0
20898,71.0,2,300,1.0,103.0
20899,79.0,1,180,1.0,119.0
20900,67.0,4,180,3.0,95.0
20901,59.0,4,300,3.0,86.0
20902,59.0,3,20,12.0,115.0
20903,75.0,24,45,0.0,87.0
20904,69.0,3,45,1.0,103.0
20905,78.0,0,45,1.0,103.0
20906,66.0,0,45,3.0,86.0
20907,59.0,25,20,12.0,100.0
20908,57.0,5,45,3.0,86.0
20909,47.0,1,110,13.0,52.0
20910,52.0,3,20,12.0,115.0
20911,52.0,25,20,12.0,100.0
20912,75.0,24,60,0.0,87.0
20913,78.0,3,60,1.0,103.0
20914,69.0,0,60,1.0,103.0
20915,66.0,0,60,3.0,86.0
20916,57.0,4,60,3.0,86.0
20917,52.0,3,20,12.0,115.0
20918,76.0,24,45,0.0,87.0
20919,79.0,0,45,1.0,103.0
20920,71.0,3,45,1.0,103.0
20921,52.0,25,20,12.0,100.0
20922,59.0,5,45,3.0,86.0
20923,67.0,0,45,3.0,86.0
20924,40.0,1,110,13.0,52.0
20925,64.0,3,20,12.0,115.0
20926,64.0,25,20,12.0,100.0
20927,76.0,24,60,0.0,87.0
20928,71.0,0,60,1.0,103.0
20929,79.0,3,60,1.0,103.0
20930,59.0,0,60,3.0,86.0
20931,67.0,4,60,3.0,86.0
20932,64.0,3,20,12.0,115.0
20933,78.0,24,45,0.0,87.0
20934,72.0,3,45,1.0,103.0
20935,81.0,0,45,1.0,103.0
20936,69.0,5,45,3.0,86.0
20937,60.0,0,45,3.0,86.0
20938,64.0,25,20,12.0,100.0
20939,52.0,1,110,13.0,52.0
20940,59.0,3,20,12.0,115.0
20941,59.0,25,20,12.0,100.0
20942,78.0,24,60,0.0,87.0
20943,72.0,0,60,1.0,103.0
20944,81.0,3,60,1.0,103.0
20945,69.0,0,60,3.0,86.0
20946,60.0,4,60,3.0,86.0
20947,59.0,3,20,12.0,115.0
20948,75.0,24,45,0.0,87.0
20949,69.0,3,45,1.0,103.0
20950,78.0,0,45,1.0,103.0
20951,59.0,25,20,12.0,100.0
20952,66.0,5,45,3.0,86.0
20953,57.0,0,45,3.0,86.0
20954,47.0,1,110,13.0,52.0
20955,52.0,3,20,12.0,115.0
20956,52.0,25,20,12.0,100.0
20957,75.0,1,60,0.0,87.0
20958,69.0,2,60,1.0,103.0
20959,78.0,0,60,1.0,103.0
20960,57.0,0,60,3.0,86.0
20961,66.0,4,60,3.0,86.0
20962,52.0,3,20,12.0,115.0
20963,76.0,24,45,0.0,87.0
20964,71.0,0,45,1.0,103.0
20965,79.0,3,45,1.0,103.0
20966,52.0,25,20,12.0,100.0
20967,67.0,5,45,3.0,86.0
20968,59.0,0,45,3.0,86.0
20969,40.0,1,110,13.0,52.0
20970,59.0,23,120,10.0,110.0
20971,59.0,1,120,11.0,110.0
20972,64.0,3,20,12.0,115.0
20973,64.0,24,20,12.0,100.0
20974,64.0,30,20,12.0,115.0
20975,64.0,30,20,12.0,100.0
20976,52.0,1,110,13.0,52.0
20977,76.0,1,120,0.0,87.0
20978,40.0,1,110,14.0,52.0
20979,59.0,6,20,12.0,115.0
20980,59.0,29,20,12.0,100.0
20981,67.0,23,180,10.0,98.0
20982,64.0,1,180,11.0,98.0
20983,79.0,2,180,1.0,103.0
20984,71.0,0,180,1.0,103.0
20985,59.0,4,180,3.0,86.0
20986,67.0,0,180,3.0,86.0
20987,59.0,3,20,12.0,115.0
20988,66.0,27,45,1.0,103.0
20989,75.0,0,45,1.0,103.0
20990,63.0,0,45,3.0,86.0
20991,54.0,5,45,3.0,86.0
20992,59.0,25,20,12.0,100.0
20993,47.0,1,110,13.0,52.0
20994,52.0,3,20,12.0,115.0
20995,52.0,25,20,12.0,100.0
20996,75.0,27,60,1.0,103.0
20997,66.0,0,60,1.0,103.0
20998,54.0,0,60,3.0,86.0
20999,63.0,4,60,3.0,86.0
21000,52.0,3,20,12.0,115.0
21001,67.0,0,45,1.0,103.0
21002,76.0,27,45,1.0,103.0
21003,64.0,0,45,3.0,86.0
21004,52.0,25,20,12.0,100.0
21005,55.0,5,45,3.0,86.0
21006,40.0,1,110,13.0,52.0
21007,64.0,3,20,12.0,115.0
21008,64.0,25,20,12.0,100.0
21009,76.0,0,60,1.0,103.0
21010,67.0,27,60,1.0,103.0
21011,64.0,0,60,3.0,86.0
21012,55.0,4,60,3.0,86.0
21013,64.0,3,20,12.0,115.0
21014,69.0,0,45,1.0,103.0
21015,78.0,27,45,1.0,103.0
21016,57.0,5,45,3.0,86.0
21017,64.0,25,20,12.0,100.0
21018,66.0,0,45,3.0,86.0
21019,52.0,1,110,13.0,52.0
21020,59.0,3,20,12.0,115.0
21021,59.0,25,20,12.0,100.0
21022,69.0,0,60,1.0,103.0
21023,78.0,27,60,1.0,103.0
21024,57.0,4,60,3.0,86.0
21025,66.0,0,60,3.0,86.0
21026,59.0,3,20,12.0,115.0
21027,66.0,27,45,1.0,103.0
21028,75.0,0,45,1.0,103.0
21029,54.0,5,45,3.0,86.0
21030,59.0,25,20,12.0,100.0
21031,63.0,0,45,3.0,86.0
21032,47.0,1,110,13.0,52.0
21033,52.0,3,20,12.0,115.0
21034,52.0,25,20,12.0,100.0
21035,66.0,0,60,1.0,103.0
21036,75.0,2,60,1.0,103.0
21037,63.0,4,60,3.0,86.0
21038,54.0,0,60,3.0,86.0
21039,52.0,3,20,12.0,115.0
21040,76.0,0,45,1.0,103.0
21041,67.0,27,45,1.0,103.0
21042,52.0,25,20,12.0,100.0
21043,64.0,5,45,3.0,86.0
21044,55.0,0,45,3.0,86.0
21045,40.0,1,110,13.0,52.0
21046,71.0,23,120,10.0,100.0
21047,71.0,24,600,0.0,87.0
21048,71.0,2,120,11.0,100.0
21049,64.0,3,20,12.0,115.0
21050,64.0,24,20,12.0,100.0
21051,64.0,30,20,12.0,115.0
21052,64.0,30,20,12.0,100.0
21053,52.0,1,110,13.0,52.0
21054,33.0,1,110,14.0,52.0
21055,57.0,30,20,12.0,115.0
21056,72.0,0,170,1.0,103.0
21057,57.0,29,20,12.0,100.0
21058,76.0,23,180,10.0,100.0
21059,72.0,1,180,0.0,87.0
21060,69.0,0,180,0.0,87.0
21061,72.0,1,180,11.0,100.0
21062,76.0,1,180,1.0,103.0
21063,57.0,4,180,3.0,84.0
21064,64.0,0,180,3.0,84.0
21065,57.0,3,20,12.0,115.0
21066,72.0,2,50,1.0,103.0
21067,57.0,25,20,12.0,100.0
21068,45.0,1,110,13.0,52.0
21069,72.0,23,60,10.0,100.0
21070,64.0,2,60,11.0,100.0
21071,60.0,5,50,3.0,84.0
21072,52.0,3,20,12.0,115.0
21073,52.0,25,20,12.0,100.0
21074,72.0,23,60,10.0,100.0
21075,64.0,2,60,11.0,100.0
21076,72.0,2,60,1.0,103.0
21077,60.0,4,60,3.0,84.0
21078,52.0,3,20,12.0,115.0
21079,71.0,2,50,1.0,103.0
21080,52.0,25,20,12.0,100.0
21081,40.0,1,110,13.0,52.0
21082,71.0,23,0,10.0,100.0
21083,62.0,2,60,11.0,100.0
21084,59.0,5,50,3.0,84.0
21085,69.0,3,20,12.0,115.0
21086,69.0,25,20,12.0,100.0
21087,62.0,2,60,11.0,100.0
21088,71.0,2,60,1.0,103.0
21089,59.0,4,60,3.0,84.0
21090,69.0,3,20,12.0,115.0
21091,69.0,2,50,1.0,103.0
21092,69.0,25,20,12.0,100.0
21093,57.0,1,110,13.0,52.0
21094,69.0,23,0,10.0,100.0
21095,57.0,5,50,3.0,84.0
21096,60.0,2,0,11.0,100.0
21097,64.0,3,20,12.0,115.0
21098,64.0,25,20,12.0,100.0
21099,69.0,2,60,1.0,103.0
21100,57.0,4,60,3.0,84.0
21101,64.0,3,20,12.0,115.0
21102,67.0,2,50,1.0,103.0
21103,64.0,25,20,12.0,100.0
21104,52.0,1,110,13.0,52.0
21105,67.0,23,0,10.0,100.0
21106,55.0,5,50,3.0,84.0
21107,59.0,2,60,11.0,100.0
21108,57.0,3,20,12.0,115.0
21109,57.0,25,20,12.0,100.0
21110,59.0,2,60,11.0,100.0
21111,67.0,2,60,1.0,103.0
21112,55.0,4,60,3.0,84.0
21113,57.0,3,20,12.0,115.0
21114,66.0,2,50,1.0,103.0
21115,57.0,25,20,12.0,100.0
21116,45.0,1,110,13.0,52.0
21117,66.0,23,60,10.0,100.0
21118,57.0,2,0,11.0,100.0
21119,54.0,5,50,3.0,84.0
21120,64.0,3,20,12.0,115.0
21121,64.0,24,20,12.0,100.0
21122,66.0,2,60,1.0,103.0
21123,54.0,4,60,3.0,84.0
21124,64.0,3,20,12.0,115.0
21125,64.0,25,20,12.0,100.0
21126,64.0,1,110,13.0,52.0
21127,33.0,1,110,14.0,52.0
21128,69.0,27,60,1.0,103.0
21129,57.0,5,60,3.0,84.0
21130,57.0,3,20,12.0,115.0
21131,57.0,25,20,12.0,100.0
21132,72.0,27,60,1.0,103.0
21133,60.0,4,60,3.0,84.0
21134,57.0,3,20,12.0,115.0
21135,57.0,25,20,12.0,100.0
21136,57.0,1,110,13.0,52.0
21137,66.0,23,240,10.0,100.0
21138,78.0,27,60,1.0,103.0
21139,66.0,5,60,3.0,84.0
21140,52.0,3,20,12.0,115.0
21141,52.0,25,20,12.0,100.0
21142,69.0,23,60,10.0,100.0
21143,60.0,2,60,11.0,100.0
21144,81.0,2,60,1.0,103.0
21145,69.0,4,60,3.0,84.0
21146,52.0,3,20,12.0,115.0
21147,78.0,2,50,1.0,103.0
21148,52.0,25,20,12.0,100.0
21149,45.0,1,110,13.0,52.0
21150,66.0,23,60,10.0,100.0
21151,66.0,5,50,3.0,84.0
21152,57.0,2,60,11.0,100.0
21153,76.0,1,1080,6.0,102.0
21154,64.0,3,20,12.0,115.0
21155,64.0,24,20,12.0,100.0
21156,64.0,30,20,12.0,115.0
21157,64.0,30,20,12.0,100.0
21158,64.0,1,110,13.0,52.0
21159,64.0,23,120,10.0,100.0
21160,79.0,1,120,6.0,81.0
21161,35.0,1,110,14.0,52.0
21162,76.0,1,120,1.0,103.0
21163,64.0,4,120,3.0,84.0
21164,59.0,1,20,12.0,115.0
21165,59.0,25,20,12.0,100.0
21166,59.0,30,20,12.0,115.0
21167,59.0,30,20,12.0,100.0
21168,59.0,1,110,13.0,52.0
21169,63.0,23,120,10.0,100.0
21170,59.0,2,240,11.0,100.0
21171,78.0,3,120,6.0,81.0
21172,75.0,1,120,1.0,103.0
21173,72.0,2,120,2.0,94.0
21174,63.0,4,120,3.0,84.0
21175,55.0,1,20,12.0,115.0
21176,64.0,23,60,10.0,100.0
21177,76.0,4,60,1.0,103.0
21178,55.0,25,30,12.0,100.0
21179,64.0,4,60,3.0,84.0
21180,57.0,3,20,12.0,115.0
21181,78.0,4,50,1.0,103.0
21182,57.0,25,20,12.0,100.0
21183,47.0,1,110,13.0,52.0
21184,66.0,23,60,10.0,100.0
21185,66.0,5,50,3.0,84.0
21186,68.0,23,120,10.0,100.0
21187,80.0,2,120,1.0,92.0
21188,71.0,2,240,2.0,94.0
21189,59.0,3,120,12.0,100.0
21190,52.0,4,120,3.0,86.0
21191,82.0,0,40,7.0,82.0
21192,70.0,111,40,8.0,79.0
21193,83.0,35,40,7.0,54.0
21194,71.0,9,40,8.0,50.0
21195,86.0,35,40,7.0,51.0
21196,74.0,5,40,8.0,48.0
21197,79.0,32,40,7.0,76.0
21198,67.0,3,40,8.0,71.0
21199,80.0,40,40,7.0,51.0
21200,68.0,1,40,8.0,48.0
21201,64.0,2,340,11.0,100.0
21202,52.0,1,340,13.0,100.0
21203,83.0,35,40,7.0,51.0
21204,71.0,6,40,8.0,48.0
21205,76.0,38,40,7.0,77.0
21206,64.0,5,40,8.0,72.0
21207,77.0,31,40,7.0,51.0
21208,65.0,6,40,8.0,48.0
21209,80.0,37,40,7.0,51.0
21210,68.0,3,40,8.0,48.0
21211,73.0,37,40,7.0,73.0
21212,61.0,5,40,8.0,70.0
21213,74.0,31,40,7.0,54.0
21214,62.0,9,40,8.0,48.0
21215,59.0,0,225,11.0,100.0
21216,47.0,1,225,13.0,100.0
21217,65.0,35,40,8.0,44.0
21218,77.0,1,40,7.0,48.0
21219,70.0,38,40,7.0,73.0
21220,58.0,1,40,8.0,68.0
21221,71.0,32,40,7.0,48.0
21222,59.0,7,40,8.0,46.0
21223,56.0,1,105,11.0,100.0
21224,44.0,5,105,13.0,100.0
21225,74.0,36,30,7.0,48.0
21226,62.0,3,30,8.0,44.0
21227,70.0,35,40,7.0,71.0
21228,58.0,3,40,8.0,70.0
21229,68.0,1,60,11.0,112.0
21230,56.0,3,60,13.0,112.0
21231,71.0,32,40,7.0,48.0
21232,59.0,6,40,8.0,46.0
21233,62.0,36,40,8.0,43.0
21234,74.0,1,40,7.0,47.0
21235,73.0,37,40,7.0,68.0
21236,61.0,2,40,8.0,68.0
21237,71.0,2,60,11.0,112.0
21238,59.0,4,60,13.0,112.0
21239,74.0,35,40,7.0,44.0
21240,62.0,4,40,8.0,42.0
21241,65.0,35,40,8.0,42.0
21242,77.0,0,40,7.0,46.0
21243,70.0,37,40,7.0,69.0
21244,58.0,5,40,8.0,63.0
21245,71.0,0,40,7.0,45.0
21246,59.0,39,40,8.0,41.0
21247,74.0,38,30,7.0,45.0
21248,62.0,1,30,8.0,43.0
21249,67.0,36,40,7.0,66.0
21250,55.0,7,40,8.0,62.0
21251,62.0,2,60,12.0,100.0
21252,68.0,34,40,7.0,44.0
21253,56.0,5,40,8.0,42.0
21254,71.0,35,40,7.0,42.0
21255,59.0,2,40,8.0,40.0
21256,70.0,40,40,7.0,64.0
21257,58.0,3,40,8.0,60.0
21258,65.0,1,60,12.0,100.0
21259,71.0,34,40,7.0,43.0
21260,59.0,4,40,8.0,40.0
21261,74.0,38,40,7.0,43.0
21262,62.0,4,40,8.0,39.0
21263,67.0,31,40,7.0,63.0
21264,55.0,7,40,8.0,62.0
21265,68.0,34,40,7.0,42.0
21266,56.0,8,40,8.0,38.0
21267,71.0,32,30,7.0,42.0
21268,59.0,4,30,8.0,40.0
21269,64.0,35,30,7.0,60.0
21270,52.0,6,30,8.0,53.0
21271,53.0,34,30,8.0,38.0
21272,65.0,1,30,7.0,40.0
21273,68.0,38,30,7.0,40.0
21274,56.0,3,30,8.0,36.0
21275,59.0,3,115,12.0,46.0
21276,47.0,1,115,13.0,46.0
21277,64.0,35,30,7.0,60.0
21278,52.0,4,30,8.0,57.0
21279,65.0,30,30,7.0,39.0
21280,53.0,5,30,8.0,39.0
21281,68.0,0,30,7.0,45.0
21282,56.0,39,30,8.0,43.0
21283,62.0,4,115,12.0,46.0
21284,50.0,1,115,13.0,46.0
21285,64.0,37,30,7.0,60.0
21286,52.0,8,30,8.0,54.0
21287,65.0,33,30,7.0,40.0
21288,53.0,2,30,8.0,40.0
21289,68.0,35,30,7.0,42.0
21290,56.0,7,30,8.0,40.0
21291,61.0,0,115,12.0,46.0
21292,49.0,1,115,13.0,46.0
21293,67.0,37,30,7.0,65.0
21294,55.0,2,30,8.0,60.0
21295,68.0,33,30,7.0,43.0
21296,56.0,6,30,8.0,38.0
21297,77.0,33,30,7.0,43.0
21298,65.0,3,30,8.0,41.0
21299,59.0,3,115,12.0,46.0
21300,47.0,1,115,13.0,46.0
21301,68.0,39,30,7.0,66.0
21302,56.0,4,30,8.0,61.0
21303,69.0,32,30,7.0,46.0
21304,57.0,7,30,8.0,46.0
21305,78.0,34,30,7.0,46.0
21306,66.0,5,30,8.0,44.0
21307,57.0,1,115,12.0,46.0
21308,45.0,1,115,13.0,46.0
21309,69.0,35,30,7.0,69.0
21310,57.0,5,30,8.0,68.0
21311,71.0,29,30,7.0,52.0
21312,59.0,1,30,8.0,47.0
21313,80.0,0,30,7.0,53.0
21314,68.0,40,30,8.0,47.0
21315,73.0,0,120,0.0,99.0
21316,56.0,1,115,12.0,46.0
21317,44.0,1,115,13.0,46.0
21318,54.0,0,115,12.0,49.0
21319,42.0,0,115,13.0,49.0
21320,66.0,6,120,8.0,83.0
21321,54.0,0,120,8.0,75.0
21322,42.0,5,115,14.0,49.0
21323,61.0,1,120,8.0,79.0
21324,81.0,34,180,7.0,87.0
21325,78.0,3,180,7.0,71.0
21326,69.0,1,180,7.0,71.0
21327,77.0,0,50,7.0,77.0
21328,68.0,53,50,7.0,71.0
21329,80.0,2,50,7.0,84.0
21330,49.0,112,110,8.0,77.0
21331,80.0,57,60,7.0,92.0
21332,68.0,2,60,7.0,78.0
21333,77.0,4,60,7.0,83.0
21334,81.0,52,50,7.0,85.0
21335,69.0,2,50,7.0,71.0
21336,78.0,1,50,7.0,77.0
21337,42.0,3,110,8.0,80.0
21338,81.0,57,60,7.0,92.0
21339,69.0,3,60,7.0,78.0
21340,78.0,2,60,7.0,84.0
21341,83.0,49,50,7.0,86.0
21342,71.0,1,50,7.0,70.0
21343,80.0,0,50,7.0,77.0
21344,54.0,4,120,8.0,88.0
21345,61.0,2,120,8.0,88.0
21346,83.0,59,60,7.0,92.0
21347,71.0,2,60,7.0,77.0
21348,80.0,53,3,7.0,85.0
21349,68.0,0,50,7.0,70.0
21350,77.0,4,50,7.0,77.0
21351,49.0,4,110,8.0,79.0
21352,80.0,58,60,7.0,94.0
21353,77.0,1,60,7.0,84.0
21354,68.0,1,60,7.0,77.0
21355,81.0,53,50,7.0,84.0
21356,69.0,3,50,7.0,71.0
21357,78.0,3,50,7.0,77.0
21358,42.0,1,110,8.0,80.0
21359,85.0,1,720,0.0,99.0
21360,73.0,0,840,2.0,97.0
21361,61.0,4,840,3.0,98.0
21362,59.0,1,115,12.0,49.0
21363,47.0,0,115,13.0,49.0
21364,47.0,1,115,14.0,49.0
21365,59.0,0,120,8.0,88.0
21366,54.0,1,120,8.0,85.0
21367,81.0,53,180,7.0,95.0
21368,78.0,3,180,7.0,77.0
21369,69.0,2,180,7.0,78.0
21370,80.0,54,50,7.0,86.0
21371,76.0,0,50,7.0,74.0
21372,68.0,3,50,7.0,71.0
21373,47.0,111,110,8.0,79.0
21374,80.0,56,60,7.0,93.0
21375,68.0,1,60,7.0,77.0
21376,76.0,2,60,7.0,83.0
21377,81.0,55,50,7.0,86.0
21378,78.0,3,50,7.0,74.0
21379,69.0,1,50,7.0,71.0
21380,35.0,4,110,8.0,78.0
21381,81.0,52,60,7.0,92.0
21382,78.0,4,60,7.0,84.0
21383,69.0,3,60,7.0,77.0
21384,83.0,46,50,7.0,86.0
21385,71.0,6,50,7.0,70.0
21386,80.0,0,50,7.0,77.0
21387,59.0,4,120,8.0,86.0
21388,54.0,3,120,8.0,88.0
21389,83.0,55,60,7.0,92.0
21390,80.0,53,1,7.0,84.0
21391,71.0,5,60,7.0,77.0
21392,68.0,3,50,7.0,71.0
21393,76.0,1,50,7.0,74.0
21394,47.0,1,110,8.0,80.0
21395,80.0,58,60,7.0,93.0
21396,76.0,0,60,7.0,83.0
21397,68.0,2,60,7.0,77.0
21398,69.0,0,50,7.0,71.0
21399,78.0,54,50,7.0,77.0
21400,81.0,2,50,7.0,84.0
21401,35.0,3,110,8.0,79.0
21402,87.0,3,720,0.0,99.0
21403,75.0,3,720,2.0,97.0
21404,63.0,4,720,3.0,98.0
21405,52.0,1,115,12.0,49.0
21406,52.0,1,115,13.0,49.0
21407,59.0,4,120,8.0,88.0
21408,40.0,1,115,14.0,49.0
21409,52.0,3,120,8.0,87.0
21410,81.0,58,180,7.0,92.0
21411,69.0,2,180,7.0,78.0
21412,78.0,1,180,7.0,77.0
21413,80.0,49,50,7.0,78.0
21414,68.0,4,50,7.0,63.0
21415,76.0,4,50,7.0,70.0
21416,47.0,113,110,8.0,78.0
21417,80.0,52,60,7.0,94.0
21418,68.0,3,60,7.0,78.0
21419,76.0,5,60,7.0,85.0
21420,78.0,53,50,7.0,72.0
21421,81.0,2,50,7.0,79.0
21422,69.0,2,50,7.0,68.0
21423,40.0,2,110,8.0,79.0
21424,81.0,54,60,7.0,96.0
21425,78.0,2,60,7.0,85.0
21426,69.0,4,60,7.0,83.0
21427,83.0,45,50,7.0,84.0
21428,80.0,2,50,7.0,74.0
21429,71.0,1,50,7.0,68.0
21430,52.0,4,120,8.0,91.0
21431,59.0,1,120,8.0,91.0
21432,83.0,3,0,7.0,77.0
21433,71.0,0,60,7.0,85.0
21434,80.0,4,60,7.0,93.0
21435,86.0,48,50,7.0,86.0
21436,74.0,2,50,7.0,70.0
21437,47.0,5,110,8.0,86.0
21438,81.0,58,60,7.0,94.0
21439,85.0,0,60,7.0,99.0
21440,73.0,3,60,7.0,85.0
21441,83.0,49,50,7.0,91.0
21442,80.0,3,50,7.0,77.0
21443,71.0,3,50,7.0,72.0
21444,40.0,6,110,8.0,88.0
21445,83.0,57,60,7.0,102.0
21446,71.0,1,60,7.0,91.0
21447,80.0,3,60,7.0,99.0
21448,85.0,45,50,7.0,92.0
21449,81.0,0,50,7.0,83.0
21450,73.0,1,50,7.0,72.0
21451,57.0,4,115,12.0,49.0
21452,45.0,1,115,13.0,49.0
21453,33.0,4,115,14.0,49.0
21454,52.0,0,120,8.0,101.0
21455,57.0,1,120,8.0,101.0
21456,73.0,59,60,7.0,91.0
21457,81.0,0,60,7.0,99.0
21458,85.0,0,60,7.0,105.0
21459,76.0,54,50,7.0,73.0
21460,88.0,2,50,7.0,92.0
21461,85.0,3,50,7.0,83.0
21462,45.0,6,110,8.0,91.0
21463,88.0,54,60,7.0,109.0
21464,85.0,1,60,7.0,101.0
21465,76.0,2,60,7.0,94.0
21466,93.0,52,50,7.0,94.0
21467,81.0,2,50,7.0,78.0
21468,85.0,2,50,7.0,86.0
21469,33.0,7,110,8.0,92.0
21470,88.0,1,1080,0.0,99.0
21471,64.0,2,720,4.0,100.0
21472,76.0,0,1080,2.0,97.0
21473,64.0,1,1080,3.0,98.0
21474,52.0,3,720,3.0,98.0
21475,93.0,55,60,7.0,111.0
21476,85.0,1,60,7.0,106.0
21477,81.0,1,60,7.0,96.0
21478,92.0,45,50,7.0,99.0
21479,83.0,4,50,7.0,85.0
21480,80.0,1,50,7.0,80.0
21481,54.0,3,120,8.0,100.0
21482,61.0,1,120,8.0,102.0
21483,92.0,56,60,7.0,107.0
21484,83.0,0,60,7.0,96.0
21485,80.0,3,60,7.0,96.0
21486,90.0,52,50,7.0,94.0
21487,78.0,3,50,7.0,77.0
21488,81.0,1,50,7.0,83.0
21489,45.0,2,110,8.0,95.0
21490,90.0,60,60,7.0,107.0
21491,78.0,3,60,7.0,94.0
21492,81.0,1,60,7.0,101.0
21493,76.0,51,50,7.0,76.0
21494,88.0,1,50,7.0,93.0
21495,90.0,1,350,0.0,99.0
21496,80.0,2,50,7.0,83.0
21497,78.0,2,350,2.0,97.0
21498,33.0,4,110,8.0,92.0
21499,66.0,2,350,3.0,98.0
21500,54.0,0,350,3.0,98.0
21501,66.0,3,360,4.0,100.0
21502,88.0,54,60,7.0,105.0
21503,80.0,3,60,7.0,102.0
21504,76.0,3,60,7.0,92.0
21505,81.0,46,50,7.0,80.0
21506,87.0,1,50,7.0,91.0
21507,78.0,3,50,7.0,83.0
21508,56.0,0,115,12.0,49.0
21509,44.0,1,115,13.0,49.0
21510,68.0,1,120,8.0,96.0
21511,32.0,1,115,14.0,49.0
21512,87.0,53,60,7.0,102.0
21513,81.0,3,60,7.0,102.0
21514,78.0,1,60,7.0,101.0
21515,80.0,52,50,7.0,83.0
21516,85.0,1,50,7.0,92.0
21517,76.0,3,50,7.0,80.0
21518,56.0,7,110,8.0,91.0
21519,80.0,55,60,7.0,101.0
21520,85.0,1,60,7.0,107.0
21521,76.0,0,60,7.0,102.0
21522,83.0,52,50,7.0,92.0
21523,75.0,3,50,7.0,83.0
21524,78.0,1,50,7.0,83.0
21525,44.0,4,110,8.0,92.0
21526,83.0,57,60,7.0,103.0
21527,75.0,2,60,7.0,100.0
21528,78.0,1,60,7.0,102.0
21529,81.0,45,50,7.0,93.0
21530,76.0,2,50,7.0,83.0
21531,73.0,5,50,7.0,83.0
21532,68.0,12,120,8.0,106.0
21533,81.0,57,60,7.0,106.0
21534,76.0,1,60,7.0,101.0
21535,73.0,1,60,7.0,101.0
21536,75.0,55,50,7.0,83.0
21537,80.0,2,50,7.0,92.0
21538,72.0,1,50,7.0,83.0
21539,56.0,1,110,8.0,92.0
21540,80.0,56,60,7.0,102.0
21541,72.0,2,60,7.0,100.0
21542,75.0,2,60,7.0,101.0
21543,70.0,56,50,7.0,82.0
21544,79.0,0,50,7.0,91.0
21545,73.0,4,50,7.0,80.0
21546,44.0,1,110,8.0,92.0
21547,79.0,54,60,7.0,102.0
21548,70.0,5,60,7.0,101.0
21549,73.0,0,60,7.0,101.0
21550,80.0,51,50,7.0,88.0
21551,72.0,2,50,7.0,83.0
21552,75.0,0,50,7.0,82.0
21553,80.0,0,840,0.0,99.0
21554,92.0,0,840,0.0,99.0
21555,80.0,0,840,2.0,97.0
21556,68.0,5,840,2.0,97.0
21557,56.0,6,120,8.0,103.0
21558,68.0,0,840,3.0,98.0
21559,56.0,4,840,3.0,98.0
21560,80.0,56,60,7.0,102.0
21561,72.0,4,60,7.0,99.0
21562,75.0,1,60,7.0,99.0
21563,77.0,52,50,7.0,85.0
21564,74.0,6,50,7.0,77.0
21565,71.0,0,50,7.0,77.0
21566,49.0,2,110,8.0,88.0
21567,74.0,0,60,7.0,93.0
21568,77.0,58,60,7.0,99.0
21569,71.0,4,60,7.0,94.0
21570,78.0,53,50,7.0,84.0
21571,73.0,3,50,7.0,73.0
21572,70.0,3,50,7.0,73.0
21573,37.0,1,110,8.0,88.0
21574,78.0,56,60,7.0,99.0
21575,73.0,43,4,7.0,77.0
21576,70.0,0,60,7.0,91.0
21577,69.0,6,50,7.0,70.0
21578,61.0,4,120,8.0,88.0
21579,54.0,0,120,8.0,91.0
21580,73.0,53,60,7.0,90.0
21581,69.0,5,60,7.0,78.0
21582,75.0,0,50,7.0,68.0
21583,66.0,54,50,7.0,59.0
21584,72.0,2,50,7.0,59.0
21585,49.0,5,110,8.0,75.0
21586,73.0,1,240,10.0,100.0
21587,61.0,2,240,11.0,100.0
21588,61.0,1,240,12.0,100.0
21589,75.0,54,60,7.0,76.0
21590,72.0,3,60,7.0,67.0
21591,66.0,1,60,7.0,70.0
21592,77.0,48,50,7.0,61.0
21593,73.0,3,50,7.0,54.0
21594,65.0,4,50,7.0,53.0
21595,37.0,2,110,8.0,66.0
21596,75.0,1,120,10.0,100.0
21597,63.0,2,120,11.0,100.0
21598,60.0,3,120,12.0,100.0
21599,54.0,1,360,13.0,100.0
21600,42.0,5,360,14.0,100.0
21601,77.0,1,115,10.0,90.0
21602,65.0,1,115,11.0,90.0
21603,61.0,5,115,12.0,90.0
21604,49.0,0,115,13.0,90.0
21605,37.0,4,115,14.0,90.0
21606,65.0,56,170,7.0,54.0
21607,77.0,1,170,7.0,63.0
21608,73.0,1,170,7.0,54.0
21609,49.0,1,170,8.0,63.0
21610,61.0,1,170,8.0,61.0
21611,89.0,164,45,7.0,92.0
21612,77.0,1,45,7.0,92.0
21613,65.0,8,45,8.0,92.0
21614,89.0,53,60,7.0,113.0
21615,77.0,3,60,7.0,112.0
21616,65.0,4,60,8.0,113.0
21617,90.0,49,45,7.0,101.0
21618,78.0,5,45,7.0,99.0
21619,66.0,5,45,8.0,100.0
21620,90.0,51,60,7.0,112.0
21621,78.0,3,60,7.0,110.0
21622,66.0,7,60,8.0,110.0
21623,92.0,50,45,7.0,99.0
21624,80.0,4,45,7.0,96.0
21625,68.0,6,45,8.0,99.0
21626,83.0,52,60,7.0,110.0
21627,71.0,2,60,7.0,110.0
21628,59.0,9,60,8.0,110.0
21629,86.0,48,60,7.0,102.0
21630,74.0,6,60,7.0,106.0
21631,62.0,1,60,8.0,105.0
21632,84.0,51,60,7.0,109.0
21633,72.0,6,60,7.0,111.0
21634,60.0,5,60,8.0,109.0
21635,73.0,53,45,7.0,106.0
21636,85.0,1,45,7.0,106.0
21637,61.0,4,45,8.0,106.0
21638,80.0,53,60,7.0,107.0
21639,68.0,1,60,7.0,110.0
21640,56.0,10,60,8.0,110.0
21641,81.0,47,45,7.0,96.0
21642,69.0,8,45,7.0,99.0
21643,57.0,3,45,8.0,103.0
21644,81.0,52,60,7.0,110.0
21645,69.0,2,60,7.0,109.0
21646,57.0,7,60,8.0,110.0
21647,83.0,53,45,7.0,106.0
21648,71.0,1,45,7.0,103.0
21649,59.0,9,45,8.0,96.0
21650,77.0,48,60,7.0,97.0
21651,65.0,4,60,7.0,97.0
21652,53.0,7,60,8.0,96.0
21653,78.0,49,45,7.0,92.0
21654,66.0,4,45,7.0,91.0
21655,54.0,8,45,8.0,92.0
21656,78.0,47,60,7.0,101.0
21657,66.0,1,60,7.0,101.0
21658,54.0,13,60,8.0,101.0
21659,80.0,48,45,7.0,88.0
21660,68.0,4,45,7.0,86.0
21661,56.0,5,45,8.0,86.0
21662,71.0,52,60,7.0,94.0
21663,59.0,2,60,7.0,101.0
21664,47.0,4,60,8.0,94.0
21665,74.0,53,60,7.0,88.0
21666,62.0,2,60,7.0,88.0
21667,50.0,7,60,8.0,87.0
21668,72.0,51,60,7.0,88.0
21669,60.0,0,60,7.0,88.0
21670,48.0,9,60,8.0,84.0
21671,73.0,50,45,7.0,71.0
21672,61.0,5,45,7.0,73.0
21673,49.0,4,45,8.0,70.0
21674,59.0,54,60,7.0,71.0
21675,47.0,9,60,8.0,70.0
21676,62.0,49,60,7.0,68.0
21677,50.0,7,60,8.0,67.0
21678,60.0,56,60,7.0,68.0
21679,48.0,6,60,8.0,70.0
21680,61.0,54,45,7.0,62.0
21681,49.0,4,45,8.0,64.0
21682,58.0,52,60,7.0,70.0
21683,46.0,8,60,8.0,66.0
21684,60.0,57,60,7.0,62.0
21685,48.0,4,60,8.0,65.0
21686,57.0,52,60,7.0,66.0
21687,45.0,8,60,8.0,66.0
21688,59.0,53,60,7.0,62.0
21689,47.0,8,60,8.0,57.0
21690,56.0,51,60,7.0,64.0
21691,44.0,10,60,8.0,65.0
21692,57.0,54,60,7.0,56.0
21693,45.0,8,60,8.0,57.0
21694,53.0,50,60,7.0,62.0
21695,41.0,5,60,8.0,57.0
21696,54.0,53,45,7.0,51.0
21697,42.0,10,45,8.0,55.0
21698,37.0,54,60,8.0,48.0
21699,44.0,60,60,8.0,66.0
21700,49.0,57,60,8.0,66.0
21701,50.0,62,60,8.0,68.0
21702,53.0,57,60,8.0,71.0
21703,59.0,64,45,8.0,59.0
21704,49.0,56,60,7.0,59.0
21705,56.0,64,60,7.0,72.0
21706,61.0,57,60,7.0,73.0
21707,62.0,59,60,7.0,73.0
21708,65.0,60,60,7.0,72.0
21709,71.0,64,45,7.0,62.0
21710,61.0,58,60,8.0,59.0
21711,68.0,57,60,8.0,68.0
21712,73.0,63,60,8.0,70.0
21713,74.0,59,60,8.0,70.0
21714,77.0,60,60,8.0,70.0
21715,83.0,63,45,8.0,60.0
21716,61.0,55,60,7.0,57.0
21717,68.0,60,60,7.0,66.0
21718,73.0,60,60,7.0,68.0
21719,74.0,63,60,7.0,69.0
21720,77.0,59,60,7.0,71.0
21721,83.0,58,45,7.0,62.0
21722,71.0,64,60,7.0,55.0
21723,49.0,7,60,8.0,50.0
21724,74.0,52,60,7.0,66.0
21725,56.0,6,60,8.0,61.0
21726,83.0,51,60,7.0,84.0
21727,65.0,1,60,8.0,72.0
21728,74.0,45,60,7.0,66.0
21729,56.0,7,60,8.0,62.0
21730,37.0,10,120,13.0,100.0
21731,37.0,4,120,14.0,100.0
21732,71.0,54,60,7.0,66.0
21733,49.0,8,60,8.0,61.0
21734,74.0,50,60,7.0,66.0
21735,56.0,3,60,8.0,59.0
21736,41.0,1,120,13.0,100.0
21737,41.0,5,120,14.0,100.0
21738,83.0,49,60,7.0,84.0
21739,65.0,10,60,8.0,70.0
21740,74.0,49,60,7.0,66.0
21741,44.0,3,120,13.0,100.0
21742,56.0,7,60,8.0,62.0
21743,44.0,5,120,14.0,100.0
21744,73.0,54,60,7.0,66.0
21745,49.0,5,60,8.0,62.0
21746,81.0,43,60,7.0,86.0
21747,56.0,12,60,8.0,70.0
21748,49.0,0,120,13.0,100.0
21749,49.0,5,120,14.0,100.0
21750,80.0,50,60,7.0,85.0
21751,65.0,0,60,8.0,70.0
21752,73.0,49,45,7.0,66.0
21753,47.0,10,105,13.0,100.0
21754,56.0,6,45,8.0,63.0
21755,47.0,5,105,14.0,100.0
21756,71.0,55,60,7.0,66.0
21757,49.0,3,60,8.0,59.0
21758,74.0,50,60,7.0,66.0
21759,56.0,3,60,8.0,59.0
21760,80.0,51,60,7.0,83.0
21761,65.0,12,60,8.0,72.0
21762,74.0,51,60,7.0,66.0
21763,56.0,7,60,8.0,62.0
21764,73.0,53,60,7.0,63.0
21765,49.0,7,60,8.0,62.0
21766,81.0,48,60,7.0,85.0
21767,57.0,12,60,8.0,72.0
21768,69.0,55,60,7.0,63.0
21769,66.0,6,60,8.0,63.0
21770,45.0,2,465,13.0,100.0
21771,45.0,5,465,14.0,100.0
21772,73.0,50,60,7.0,65.0
21773,57.0,6,60,8.0,62.0
21774,78.0,55,60,7.0,86.0
21775,49.0,0,60,8.0,70.0
21776,73.0,45,60,7.0,57.0
21777,57.0,8,60,8.0,55.0
21778,45.0,9,120,13.0,100.0
21779,45.0,5,120,14.0,100.0
21780,69.0,52,60,7.0,59.0
21781,66.0,9,60,8.0,56.0
21782,81.0,42,45,7.0,86.0
21783,57.0,9,45,8.0,70.0
21784,44.0,1,105,13.0,100.0
21785,44.0,5,105,14.0,100.0
21786,85.0,54,60,7.0,87.0
21787,49.0,1,60,8.0,72.0
21788,73.0,50,60,7.0,63.0
21789,57.0,4,60,8.0,56.0
21790,77.0,53,60,7.0,65.0
21791,66.0,6,60,8.0,59.0
21792,89.0,50,60,7.0,87.0
21793,57.0,13,60,8.0,76.0
21794,90.0,49,60,7.0,95.0
21795,49.0,7,60,8.0,77.0
21796,78.0,53,60,7.0,66.0
21797,57.0,6,60,8.0,63.0
21798,42.0,10,360,13.0,100.0
21799,42.0,4,360,14.0,100.0
21800,77.0,54,60,7.0,71.0
21801,66.0,7,60,8.0,59.0
21802,89.0,53,60,7.0,92.0
21803,57.0,7,60,8.0,78.0
21804,90.0,52,60,7.0,95.0
21805,50.0,11,60,8.0,79.0
21806,78.0,46,60,7.0,66.0
21807,59.0,5,60,8.0,61.0
21808,47.0,0,120,13.0,100.0
21809,35.0,5,120,14.0,100.0
21810,77.0,56,60,7.0,70.0
21811,66.0,4,60,8.0,61.0
21812,89.0,45,45,7.0,87.0
21813,59.0,9,45,8.0,77.0
21814,50.0,4,120,13.0,100.0
21815,38.0,5,120,14.0,100.0
21816,90.0,53,60,7.0,95.0
21817,50.0,7,60,8.0,77.0
21818,78.0,45,60,7.0,66.0
21819,59.0,8,60,8.0,62.0
21820,54.0,1,120,13.0,100.0
21821,42.0,5,120,14.0,100.0
21822,76.0,56,60,7.0,71.0
21823,66.0,4,60,8.0,59.0
21824,88.0,46,60,7.0,92.0
21825,58.0,6,60,8.0,79.0
21826,58.0,2,120,13.0,100.0
21827,46.0,5,120,14.0,100.0
21828,86.0,53,60,7.0,96.0
21829,50.0,1,60,8.0,79.0
21830,59.0,10,105,13.0,100.0
21831,74.0,49,60,7.0,65.0
21832,59.0,7,60,8.0,59.0
21833,73.0,52,60,7.0,70.0
21834,66.0,7,60,8.0,63.0
21835,85.0,50,60,7.0,92.0
21836,59.0,9,60,8.0,79.0
21837,47.0,0,120,13.0,100.0
21838,47.0,4,240,14.0,100.0
21839,83.0,49,60,7.0,95.0
21840,51.0,8,60,8.0,79.0
21841,71.0,47,60,7.0,66.0
21842,60.0,2,60,8.0,63.0
21843,48.0,4,120,13.0,100.0
21844,48.0,5,120,14.0,100.0
21845,69.0,60,60,7.0,71.0
21846,66.0,3,60,8.0,59.0
21847,81.0,45,45,7.0,88.0
21848,54.0,4,45,8.0,78.0
21849,79.0,57,60,7.0,95.0
21850,52.0,4,60,8.0,79.0
21851,67.0,60,60,7.0,66.0
21852,49.0,2,60,8.0,63.0
21853,68.0,56,60,7.0,74.0
21854,53.0,5,60,8.0,66.0
21855,80.0,52,60,7.0,95.0
21856,61.0,4,60,8.0,79.0
21857,81.0,56,60,7.0,101.0
21858,54.0,6,60,8.0,80.0
21859,69.0,56,60,7.0,73.0
21860,49.0,6,60,8.0,66.0
21861,70.0,57,60,7.0,75.0
21862,55.0,6,60,8.0,66.0
21863,82.0,47,60,7.0,99.0
21864,61.0,10,60,8.0,86.0
21865,83.0,53,60,7.0,101.0
21866,56.0,7,60,8.0,88.0
21867,71.0,55,60,7.0,73.0
21868,49.0,4,60,8.0,70.0
21869,72.0,56,60,7.0,78.0
21870,57.0,5,60,8.0,73.0
21871,84.0,52,45,7.0,98.0
21872,61.0,4,45,8.0,88.0
21873,85.0,55,60,7.0,103.0
21874,58.0,4,60,8.0,88.0
21875,73.0,62,60,7.0,73.0
21876,49.0,5,60,8.0,73.0
21877,76.0,53,60,7.0,74.0
21878,59.0,7,60,8.0,68.0
21879,88.0,48,60,7.0,94.0
21880,66.0,5,60,8.0,79.0
21881,86.0,55,60,7.0,94.0
21882,62.0,8,60,8.0,79.0
21883,74.0,57,60,7.0,63.0
21884,49.0,4,60,8.0,59.0
21885,72.0,55,60,7.0,63.0
21886,57.0,8,60,8.0,57.0
21887,82.0,51,60,7.0,74.0
21888,63.0,7,60,8.0,66.0
21889,84.0,51,60,7.0,76.0
21890,66.0,7,60,8.0,59.0
21891,72.0,58,60,7.0,50.0
21892,49.0,6,60,8.0,45.0
21893,73.0,50,60,7.0,48.0
21894,56.0,9,60,8.0,45.0
21895,85.0,50,45,7.0,40.0
21896,65.0,9,45,8.0,35.0
21897,49.0,3,1560,13.0,100.0
21898,49.0,5,1560,14.0,100.0
21899,65.0,1,40,12.0,79.0
21900,71.0,54,60,10.0,79.0
21901,62.0,35,40,12.0,86.0
21902,62.0,13,60,10.0,86.0
21903,65.0,27,40,12.0,86.0
21904,62.0,7,40,12.0,86.0
21905,71.0,33,60,10.0,86.0
21906,65.0,34,40,12.0,86.0
21907,62.0,13,60,10.0,86.0
21908,62.0,27,40,12.0,86.0
21909,49.0,1,120,13.0,100.0
21910,37.0,5,120,14.0,100.0
21911,65.0,7,40,12.0,86.0
21912,71.0,33,60,10.0,86.0
21913,62.0,34,40,12.0,86.0
21914,62.0,13,60,10.0,86.0
21915,65.0,27,40,12.0,86.0
21916,53.0,1,120,13.0,100.0
21917,41.0,5,120,14.0,100.0
21918,62.0,7,40,12.0,86.0
21919,71.0,33,60,10.0,86.0
21920,65.0,34,40,12.0,86.0
21921,62.0,13,60,10.0,86.0
21922,71.0,6,480,2.0,89.0
21923,62.0,27,40,12.0,86.0
21924,56.0,1,120,13.0,100.0
21925,44.0,5,120,14.0,100.0
21926,65.0,1,40,12.0,86.0
21927,69.0,33,60,10.0,86.0
21928,62.0,34,40,12.0,86.0
21929,62.0,13,60,10.0,86.0
21930,69.0,6,120,2.0,97.0
21931,65.0,27,40,12.0,86.0
21932,61.0,1,120,13.0,100.0
21933,49.0,5,120,14.0,100.0
21934,62.0,1,40,12.0,86.0
21935,68.0,33,60,10.0,86.0
21936,65.0,34,40,12.0,86.0
21937,62.0,13,45,10.0,86.0
21938,62.0,27,25,12.0,86.0
21939,59.0,1,105,13.0,100.0
21940,68.0,6,110,2.0,97.0
21941,47.0,5,105,14.0,100.0
21942,62.0,0,720,3.0,90.0
21943,65.0,1,40,12.0,86.0
21944,68.0,33,60,10.0,86.0
21945,61.0,34,40,12.0,86.0
21946,61.0,13,60,10.0,86.0
21947,65.0,27,40,12.0,86.0
21948,61.0,6,40,12.0,86.0
21949,68.0,33,60,10.0,86.0
21950,65.0,40,40,12.0,86.0
21951,61.0,13,60,10.0,86.0
21952,73.0,1,120,0.0,99.0
21953,68.0,6,240,2.0,97.0
21954,61.0,27,40,12.0,86.0
21955,65.0,1,40,12.0,86.0
21956,69.0,33,60,10.0,86.0
21957,61.0,40,40,12.0,86.0
21958,69.0,5,110,2.0,97.0
21959,61.0,13,60,10.0,86.0
21960,77.0,1,120,0.0,99.0
21961,65.0,27,40,12.0,86.0
21962,65.0,5,1080,3.0,90.0
21963,61.0,4,360,3.0,98.0
21964,57.0,1,40,12.0,86.0
21965,66.0,33,60,10.0,86.0
21966,66.0,35,40,12.0,86.0
21967,57.0,1,465,13.0,100.0
21968,45.0,1,465,14.0,100.0
21969,61.0,13,60,10.0,86.0
21970,78.0,1,120,0.0,99.0
21971,57.0,27,40,12.0,86.0
21972,66.0,6,40,12.0,86.0
21973,66.0,33,60,10.0,86.0
21974,57.0,34,40,12.0,86.0
21975,61.0,13,60,10.0,86.0
21976,84.0,1,120,0.0,99.0
21977,66.0,27,40,12.0,86.0
21978,56.0,1,120,13.0,100.0
21979,44.0,5,120,14.0,100.0
21980,57.0,6,40,12.0,86.0
21981,66.0,33,60,10.0,86.0
21982,66.0,34,40,12.0,86.0
21983,61.0,13,45,10.0,86.0
21984,85.0,1,110,0.0,99.0
21985,57.0,27,25,12.0,86.0
21986,54.0,1,105,13.0,100.0
21987,66.0,5,350,2.0,97.0
21988,42.0,5,105,14.0,100.0
21989,66.0,0,350,3.0,98.0
21990,57.0,5,350,3.0,98.0
21991,67.0,1,40,12.0,100.0
21992,71.0,2,60,11.0,100.0
21993,61.0,34,40,12.0,100.0
21994,61.0,15,60,11.0,100.0
21995,67.0,25,40,12.0,100.0
21996,61.0,5,40,12.0,100.0
21997,71.0,35,60,11.0,100.0
21998,67.0,40,40,12.0,100.0
21999,61.0,15,60,11.0,100.0
22000,61.0,25,40,12.0,100.0
22001,67.0,5,40,12.0,100.0
22002,40.0,35,60,7.0,87.0
22003,71.0,0,60,11.0,100.0
22004,61.0,40,40,12.0,100.0
22005,61.0,15,60,11.0,100.0
22006,43.0,1,60,7.0,88.0
22007,67.0,24,40,12.0,100.0
22008,61.0,5,40,12.0,100.0
22009,49.0,34,60,7.0,91.0
22010,71.0,1,60,11.0,100.0
22011,67.0,40,40,12.0,100.0
22012,52.0,1,465,13.0,100.0
22013,40.0,1,465,14.0,100.0
22014,71.0,33,480,10.0,100.0
22015,52.0,0,60,7.0,92.0
22016,61.0,15,60,11.0,100.0
22017,40.0,4,60,8.0,85.0
22018,71.0,4,480,2.0,97.0
22019,61.0,21,40,12.0,100.0
22020,61.0,0,480,3.0,98.0
22021,67.0,4,480,3.0,98.0
22022,64.0,1,40,12.0,100.0
22023,69.0,2,60,11.0,100.0
22024,55.0,1,60,7.0,92.0
22025,43.0,3,60,8.0,88.0
22026,57.0,34,40,12.0,100.0
22027,61.0,13,60,7.0,92.0
22028,69.0,33,120,10.0,100.0
22029,64.0,2,60,11.0,100.0
22030,69.0,0,120,2.0,97.0
22031,64.0,20,40,12.0,100.0
22032,49.0,5,60,8.0,86.0
22033,49.0,1,120,13.0,100.0
22034,57.0,4,0,3.0,98.0
22035,64.0,0,120,3.0,98.0
22036,37.0,1,120,14.0,100.0
22037,57.0,1,40,12.0,100.0
22038,67.0,2,60,11.0,100.0
22039,64.0,1,60,7.0,101.0
22040,52.0,0,60,8.0,88.0
22041,62.0,34,40,12.0,100.0
22042,67.0,33,105,10.0,100.0
22043,62.0,2,45,11.0,100.0
22044,67.0,13,50,7.0,96.0
22045,57.0,16,25,12.0,100.0
22046,47.0,1,105,13.0,100.0
22047,67.0,3,110,2.0,97.0
22048,35.0,1,105,14.0,100.0
22049,55.0,9,50,8.0,92.0
22050,62.0,0,110,3.0,98.0
22051,73.0,32,23,7.0,92.0
22052,61.0,0,23,8.0,92.0
22053,74.0,6,23,7.0,72.0
22054,62.0,4,23,8.0,70.0
22055,61.0,1,40,12.0,100.0
22056,67.0,2,60,11.0,100.0
22057,73.0,17,23,7.0,70.0
22058,61.0,4,23,8.0,71.0
22059,74.0,13,23,7.0,73.0
22060,62.0,1,23,8.0,74.0
22061,57.0,3,40,12.0,100.0
22062,73.0,18,23,7.0,73.0
22063,61.0,3,23,8.0,70.0
22064,74.0,12,23,7.0,74.0
22065,61.0,2,60,11.0,100.0
22066,62.0,4,23,8.0,72.0
22067,61.0,3,40,12.0,100.0
22068,73.0,18,22,7.0,74.0
22069,61.0,2,22,8.0,74.0
22070,74.0,11,22,7.0,72.0
22071,62.0,4,22,8.0,74.0
22072,57.0,3,40,12.0,100.0
22073,73.0,15,22,7.0,75.0
22074,67.0,1,60,11.0,100.0
22075,61.0,3,22,8.0,73.0
22076,74.0,9,22,7.0,73.0
22077,62.0,4,22,8.0,77.0
22078,61.0,7,40,12.0,100.0
22079,73.0,15,22,7.0,76.0
22080,61.0,2,22,8.0,78.0
22081,74.0,7,22,7.0,75.0
22082,62.0,5,22,8.0,76.0
22083,61.0,2,60,11.0,100.0
22084,57.0,8,40,12.0,100.0
22085,73.0,14,26,7.0,78.0
22086,61.0,3,26,8.0,79.0
22087,74.0,9,26,7.0,79.0
22088,62.0,4,26,8.0,76.0
22089,61.0,5,40,12.0,100.0
22090,67.0,6,60,11.0,100.0
22091,73.0,18,26,7.0,79.0
22092,61.0,5,26,8.0,79.0
22093,74.0,12,26,7.0,79.0
22094,57.0,4,40,12.0,100.0
22095,62.0,1,26,8.0,80.0
22096,73.0,20,26,7.0,79.0
22097,61.0,3,26,8.0,82.0
22098,61.0,3,60,11.0,100.0
22099,57.0,0,350,3.0,98.0
22100,61.0,1,40,12.0,100.0
22101,74.0,17,26,7.0,82.0
22102,62.0,6,26,8.0,80.0
22103,73.0,2,26,7.0,82.0
22104,61.0,2,26,8.0,80.0
22105,52.0,5,40,12.0,100.0
22106,74.0,18,26,7.0,82.0
22107,62.0,5,26,8.0,83.0
22108,67.0,12,60,11.0,100.0
22109,73.0,7,26,7.0,83.0
22110,61.0,1,26,8.0,84.0
22111,61.0,12,40,12.0,100.0
22112,74.0,14,26,7.0,85.0
22113,62.0,4,26,8.0,84.0
22114,45.0,1,465,13.0,100.0
22115,33.0,1,465,14.0,100.0
22116,67.0,1,480,10.0,100.0
22117,57.0,7,60,11.0,100.0
22118,73.0,10,26,7.0,82.0
22119,67.0,0,480,4.0,115.0
22120,79.0,2,480,1.0,112.0
22121,61.0,2,26,8.0,82.0
22122,52.0,7,40,12.0,100.0
22123,74.0,20,26,7.0,83.0
22124,62.0,0,26,8.0,84.0
22125,61.0,3,40,12.0,100.0
22126,73.0,10,26,7.0,84.0
22127,61.0,1,26,8.0,85.0
22128,66.0,2,60,11.0,100.0
22129,74.0,21,26,7.0,88.0
22130,62.0,2,26,8.0,85.0
22131,52.0,2,40,12.0,100.0
22132,73.0,5,26,7.0,88.0
22133,61.0,2,26,8.0,88.0
22134,74.0,2,26,7.0,87.0
22135,66.0,1,120,10.0,100.0
22136,62.0,5,26,8.0,90.0
22137,57.0,13,60,11.0,100.0
22138,66.0,0,120,4.0,115.0
22139,78.0,2,120,1.0,112.0
22140,61.0,18,40,12.0,100.0
22141,44.0,1,120,13.0,100.0
22142,32.0,5,120,14.0,100.0
22143,73.0,16,25,7.0,87.0
22144,61.0,6,25,8.0,87.0
22145,74.0,0,25,7.0,87.0
22146,62.0,1,25,8.0,88.0
22147,52.0,3,40,12.0,100.0
22148,73.0,19,25,7.0,87.0
22149,64.0,2,60,11.0,100.0
22150,61.0,5,25,8.0,88.0
22151,61.0,9,40,12.0,100.0
22152,71.0,1,30,7.0,84.0
22153,59.0,4,30,8.0,83.0
22154,64.0,4,105,10.0,100.0
22155,55.0,15,45,11.0,100.0
22156,52.0,20,25,12.0,100.0
22157,45.0,1,105,13.0,100.0
22158,64.0,2,110,4.0,115.0
22159,76.0,0,110,1.0,112.0
22160,33.0,5,105,14.0,100.0
22161,73.0,3,30,7.0,85.0
22162,61.0,4,710,3.0,98.0
22163,52.0,1,350,3.0,98.0
22164,73.0,2,720,2.0,97.0
22165,61.0,8,30,8.0,83.0
22166,74.0,21,23,7.0,99.0
22167,62.0,0,23,8.0,99.0
22168,76.0,6,23,7.0,73.0
22169,64.0,4,23,8.0,71.0
22170,55.0,1,40,12.0,100.0
22171,62.0,2,60,11.0,100.0
22172,74.0,17,23,7.0,73.0
22173,62.0,4,23,8.0,73.0
22174,76.0,13,23,7.0,76.0
22175,64.0,1,23,8.0,76.0
22176,50.0,3,40,12.0,100.0
22177,74.0,18,23,7.0,77.0
22178,62.0,3,23,8.0,76.0
22179,76.0,12,23,7.0,79.0
22180,55.0,2,60,11.0,100.0
22181,64.0,4,23,8.0,77.0
22182,55.0,3,40,12.0,100.0
22183,74.0,18,26,7.0,79.0
22184,62.0,2,26,8.0,80.0
22185,76.0,14,26,7.0,79.0
22186,50.0,3,40,12.0,100.0
22187,64.0,4,26,8.0,82.0
22188,62.0,1,60,11.0,100.0
22189,74.0,19,26,7.0,82.0
22190,62.0,0,26,8.0,80.0
22191,55.0,3,40,12.0,100.0
22192,76.0,5,26,7.0,82.0
22193,64.0,4,26,8.0,85.0
22194,74.0,5,27,7.0,85.0
22195,62.0,2,28,8.0,87.0
22196,55.0,15,60,11.0,100.0
22197,74.0,2,240,2.0,97.0
22198,50.0,16,40,12.0,100.0
22199,76.0,18,27,7.0,85.0
22200,64.0,7,28,8.0,86.0
22201,55.0,5,40,12.0,100.0
22202,74.0,26,22,7.0,91.0
22203,62.0,4,22,8.0,91.0
22204,62.0,3,60,11.0,100.0
22205,50.0,10,40,12.0,100.0
22206,73.0,11,30,7.0,99.0
22207,62.0,6,21,8.0,92.0
22208,74.0,3,30,7.0,101.0
22209,55.0,4,350,3.0,98.0
22210,55.0,4,60,11.0,100.0
22211,55.0,19,40,12.0,100.0
22212,62.0,10,30,8.0,99.0
22213,50.0,5,40,12.0,100.0
22214,78.0,22,60,7.0,109.0
22215,62.0,0,60,11.0,100.0
22216,66.0,4,60,8.0,109.0
22217,55.0,35,40,12.0,100.0
22218,79.0,0,45,7.0,97.0
22219,47.0,1,465,13.0,100.0
22220,67.0,8,45,8.0,103.0
22221,35.0,1,465,14.0,100.0
22222,62.0,1,480,10.0,100.0
22223,55.0,15,60,11.0,100.0
22224,74.0,2,480,1.0,112.0
22225,50.0,17,40,12.0,100.0
22226,47.0,1,120,3.0,98.0
22227,62.0,0,480,3.0,98.0
22228,57.0,1,40,12.0,100.0
22229,82.0,0,60,7.0,109.0
22230,61.0,2,60,11.0,100.0
22231,70.0,2,60,8.0,109.0
22232,50.0,34,40,12.0,100.0
22233,83.0,11,45,7.0,100.0
22234,71.0,2,45,8.0,99.0
22235,61.0,33,120,10.0,100.0
22236,55.0,4,60,11.0,100.0
22237,73.0,2,120,1.0,112.0
22238,57.0,23,40,12.0,100.0
22239,45.0,1,120,13.0,100.0
22240,61.0,4,120,3.0,98.0
22241,45.0,0,120,3.0,98.0
22242,33.0,1,120,14.0,100.0
22243,50.0,3,40,12.0,100.0
22244,85.0,32,60,7.0,109.0
22245,59.0,2,60,11.0,100.0
22246,73.0,2,60,8.0,111.0
22247,55.0,34,40,12.0,100.0
22248,86.0,12,45,7.0,100.0
22249,59.0,1,105,10.0,100.0
22250,55.0,3,45,11.0,100.0
22251,50.0,19,25,12.0,100.0
22252,47.0,1,105,13.0,100.0
22253,74.0,6,45,8.0,99.0
22254,67.0,0,710,4.0,115.0
22255,71.0,0,110,1.0,112.0
22256,35.0,1,105,14.0,100.0
22257,47.0,0,110,3.0,98.0
22258,59.0,4,110,3.0,98.0
22259,55.0,3,40,12.0,100.0
22260,87.0,32,60,7.0,123.0
22261,57.0,2,60,11.0,100.0
22262,75.0,0,60,8.0,122.0
22263,52.0,34,40,12.0,100.0
22264,88.0,13,45,7.0,111.0
22265,76.0,6,45,8.0,111.0
22266,55.0,2,60,11.0,100.0
22267,55.0,19,40,12.0,100.0
22268,52.0,1,40,12.0,100.0
22269,78.0,33,60,7.0,113.0
22270,57.0,2,60,11.0,100.0
22271,66.0,4,60,8.0,113.0
22272,55.0,40,40,12.0,100.0
22273,57.0,1,225,10.0,100.0
22274,79.0,14,45,7.0,102.0
22275,49.0,1,225,13.0,100.0
22276,67.0,6,45,8.0,102.0
22277,69.0,2,230,1.0,112.0
22278,37.0,1,225,14.0,100.0
22279,57.0,4,230,3.0,98.0
22280,49.0,0,230,3.0,98.0
22281,55.0,1,60,11.0,100.0
22282,52.0,19,40,12.0,100.0
22283,55.0,3,40,12.0,100.0
22284,87.0,33,60,7.0,127.0
22285,59.0,2,60,11.0,100.0
22286,75.0,1,60,8.0,127.0
22287,52.0,34,40,12.0,100.0
22288,88.0,1,45,7.0,117.0
22289,76.0,2,45,8.0,116.0
22290,55.0,15,60,11.0,100.0
22291,55.0,22,40,12.0,100.0
22292,52.0,5,40,12.0,100.0
22293,78.0,34,60,7.0,117.0
22294,59.0,1,60,11.0,100.0
22295,66.0,2,60,8.0,114.0
22296,55.0,38,40,12.0,100.0
22297,79.0,11,45,7.0,105.0
22298,59.0,0,225,10.0,100.0
22299,67.0,2,45,8.0,102.0
22300,50.0,1,225,13.0,100.0
22301,71.0,2,230,1.0,112.0
22302,38.0,1,225,14.0,100.0
22303,50.0,3,230,3.0,98.0
22304,55.0,4,60,11.0,100.0
22305,59.0,0,230,3.0,98.0
22306,52.0,23,40,12.0,100.0
22307,55.0,3,40,12.0,100.0
22308,57.0,2,60,11.0,100.0
22309,87.0,1,60,7.0,127.0
22310,75.0,1,60,8.0,127.0
22311,52.0,34,40,12.0,100.0
22312,88.0,12,45,7.0,117.0
22313,76.0,3,45,8.0,117.0
22314,55.0,3,60,11.0,100.0
22315,55.0,22,40,12.0,100.0
22316,52.0,5,40,12.0,100.0
22317,78.0,31,60,7.0,120.0
22318,57.0,4,60,11.0,100.0
22319,66.0,1,60,8.0,117.0
22320,55.0,39,40,12.0,100.0
22321,79.0,13,45,7.0,107.0
22322,57.0,33,225,10.0,100.0
22323,55.0,2,45,11.0,100.0
22324,52.0,19,25,12.0,100.0
22325,67.0,6,45,8.0,107.0
22326,49.0,1,225,13.0,100.0
22327,69.0,0,230,1.0,112.0
22328,67.0,0,710,4.0,115.0
22329,37.0,1,225,14.0,100.0
22330,49.0,0,230,3.0,98.0
22331,57.0,4,230,3.0,98.0
22332,90.0,0,40,7.0,127.0
22333,78.0,1,40,8.0,127.0
22334,91.0,30,40,7.0,116.0
22335,79.0,4,40,8.0,113.0
22336,90.0,33,40,7.0,109.0
22337,78.0,7,40,8.0,109.0
22338,91.0,34,40,7.0,109.0
22339,79.0,10,40,8.0,109.0
22340,90.0,32,40,7.0,109.0
22341,78.0,8,40,8.0,109.0
22342,62.0,33,240,10.0,100.0
22343,91.0,30,40,7.0,107.0
22344,62.0,2,240,11.0,100.0
22345,74.0,2,240,1.0,97.0
22346,79.0,5,40,8.0,107.0
22347,47.0,1,240,13.0,100.0
22348,62.0,0,240,3.0,98.0
22349,47.0,4,240,3.0,98.0
22350,35.0,1,240,14.0,100.0
22351,90.0,2,40,7.0,109.0
22352,78.0,3,40,8.0,107.0
22353,91.0,28,40,7.0,111.0
22354,79.0,7,40,8.0,110.0
22355,61.0,34,105,10.0,100.0
22356,90.0,33,25,7.0,109.0
22357,61.0,0,105,11.0,100.0
22358,45.0,1,105,13.0,100.0
22359,73.0,2,110,1.0,97.0
22360,78.0,10,25,8.0,109.0
22361,33.0,1,105,14.0,100.0
22362,45.0,4,110,3.0,98.0
22363,61.0,0,110,3.0,98.0
22364,91.0,2,40,7.0,107.0
22365,79.0,1,40,8.0,109.0
22366,87.0,25,40,7.0,110.0
22367,75.0,11,40,8.0,111.0
22368,88.0,31,40,7.0,107.0
22369,76.0,11,40,8.0,109.0
22370,84.0,31,40,7.0,107.0
22371,72.0,9,40,8.0,109.0
22372,85.0,32,40,7.0,110.0
22373,73.0,3,40,8.0,110.0
22374,61.0,29,240,10.0,100.0
22375,61.0,0,240,11.0,100.0
22376,80.0,36,40,7.0,109.0
22377,73.0,2,240,1.0,97.0
22378,68.0,5,40,8.0,107.0
22379,61.0,0,240,3.0,98.0
22380,45.0,3,240,3.0,98.0
22381,81.0,36,40,7.0,110.0
22382,69.0,8,40,8.0,111.0
22383,78.0,30,40,7.0,109.0
22384,66.0,9,40,8.0,107.0
22385,79.0,32,25,7.0,109.0
22386,67.0,7,25,8.0,109.0
22387,75.0,30,40,7.0,109.0
22388,63.0,11,40,8.0,109.0
22389,76.0,32,40,7.0,109.0
22390,64.0,4,40,8.0,109.0
22391,73.0,37,40,7.0,109.0
22392,61.0,5,40,8.0,109.0
22393,69.0,33,40,7.0,107.0
22394,57.0,10,40,8.0,109.0
22395,67.0,30,40,7.0,107.0
22396,55.0,5,40,8.0,109.0
22397,64.0,33,40,7.0,107.0
22398,52.0,9,40,8.0,105.0
22399,62.0,34,40,7.0,102.0
22400,50.0,5,40,8.0,106.0
22401,61.0,35,40,7.0,103.0
22402,49.0,4,40,8.0,106.0
22403,62.0,32,40,7.0,105.0
22404,50.0,11,40,8.0,102.0
22405,61.0,34,40,7.0,100.0
22406,49.0,7,40,8.0,102.0
22407,59.0,29,40,7.0,100.0
22408,47.0,8,40,8.0,99.0
22409,61.0,33,40,7.0,100.0
22410,49.0,10,40,8.0,99.0
22411,59.0,29,40,7.0,100.0
22412,47.0,10,40,8.0,100.0
22413,57.0,34,40,7.0,102.0
22414,45.0,8,40,8.0,103.0
22415,59.0,30,40,7.0,101.0
22416,47.0,8,40,8.0,102.0
22417,57.0,30,40,7.0,92.0
22418,45.0,12,40,8.0,94.0
22419,56.0,28,40,7.0,92.0
22420,44.0,8,40,8.0,92.0
22421,57.0,36,40,7.0,88.0
22422,45.0,5,40,8.0,88.0
22423,59.0,32,60,7.0,85.0
22424,47.0,2,60,8.0,84.0
22425,57.0,57,60,7.0,82.0
22426,67.0,0,1560,4.0,100.0
22427,64.0,0,1560,4.0,100.0
22428,45.0,5,60,8.0,79.0
22429,55.0,0,1560,12.0,100.0
22430,52.0,2,1560,12.0,100.0
22431,45.0,4,1200,13.0,100.0
22432,33.0,1,1200,14.0,100.0
22433,56.0,55,60,7.0,77.0
22434,44.0,4,60,8.0,79.0
22435,45.0,60,60,8.0,77.0
22436,57.0,0,60,7.0,73.0
22437,59.0,55,60,7.0,73.0
22438,47.0,4,60,8.0,73.0
22439,57.0,56,60,7.0,68.0
22440,45.0,9,60,8.0,70.0
22441,56.0,53,60,7.0,70.0
22442,44.0,4,60,8.0,70.0
22443,57.0,56,60,7.0,62.0
22444,45.0,4,60,8.0,62.0
22445,59.0,56,60,7.0,60.0
22446,47.0,4,60,8.0,57.0
22447,57.0,56,60,7.0,51.0
22448,45.0,4,60,8.0,51.0
22449,56.0,56,60,7.0,45.0
22450,44.0,4,60,8.0,43.0
22451,57.0,56,60,7.0,40.0
22452,45.0,2,60,8.0,40.0
22453,57.0,1,113,7.0,59.0
22454,54.0,0,114,7.0,44.0
22455,50.0,2,120,7.0,42.0
22456,62.0,112,120,7.0,76.0
22457,54.0,3,120,7.0,56.0
22458,57.0,3,2,7.0,59.0
22459,38.0,58,345,8.0,42.0
22460,45.0,0,345,8.0,30.0
22461,64.0,115,120,7.0,79.0
22462,61.0,3,120,7.0,54.0
22463,26.0,1,120,8.0,51.0
22464,38.0,2,120,8.0,53.0
22465,66.0,117,240,7.0,84.0
22466,62.0,3,240,7.0,66.0
22467,57.0,1,1,7.0,63.0
22468,42.0,119,120,8.0,53.0
22469,30.0,0,120,8.0,53.0
22470,64.0,115,105,7.0,75.0
22471,61.0,1,105,7.0,63.0
22472,45.0,2,105,8.0,54.0
22473,33.0,1,105,8.0,53.0
22474,62.0,113,1,7.0,63.0
22475,59.0,1,120,7.0,71.0
22476,54.0,2,120,7.0,66.0
22477,66.0,1,120,7.0,79.0
22478,59.0,3,120,7.0,66.0
22479,47.0,2,240,8.0,44.0
22480,35.0,1,240,8.0,53.0
22481,45.0,2,105,8.0,59.0
22482,33.0,2,105,8.0,54.0
22483,71.0,117,120,7.0,83.0
22484,62.0,2,120,7.0,63.0
22485,66.0,1,120,7.0,66.0
22486,32.0,6,120,8.0,60.0
22487,44.0,1,120,8.0,59.0
22488,74.0,113,240,7.0,86.0
22489,64.0,2,240,7.0,66.0
22490,62.0,0,240,7.0,74.0
22491,71.0,1,240,7.0,66.0
22492,35.0,0,120,8.0,54.0
22493,47.0,114,120,8.0,52.0
22494,73.0,115,105,7.0,73.0
22495,69.0,1,105,7.0,63.0
22496,61.0,0,105,7.0,56.0
22497,64.0,3,105,7.0,59.0
22498,52.0,4,120,8.0,59.0
22499,40.0,0,2,8.0,54.0
22500,72.0,110,120,7.0,87.0
22501,63.0,0,120,7.0,73.0
22502,69.0,5,120,7.0,74.0
22503,54.0,3,120,8.0,52.0
22504,71.0,112,120,7.0,87.0
22505,62.0,3,120,7.0,71.0
22506,64.0,1,1,7.0,73.0
22507,56.0,4,120,8.0,61.0
22508,52.0,1,105,8.0,54.0
22509,69.0,110,120,7.0,81.0
22510,61.0,4,120,7.0,73.0
22511,57.0,4,120,8.0,59.0
22512,68.0,112,120,7.0,86.0
22513,52.0,2,225,8.0,73.0
22514,66.0,113,120,7.0,86.0
22515,57.0,2,240,7.0,79.0
22516,63.0,1,240,7.0,79.0
22517,60.0,0,240,8.0,74.0
22518,68.0,119,105,7.0,83.0
22519,62.0,6,105,7.0,74.0
22520,59.0,3,105,8.0,62.0
22521,52.0,1,105,8.0,62.0
22522,69.0,113,120,7.0,75.0
22523,61.0,2,120,7.0,67.0
22524,57.0,0,120,8.0,57.0
22525,56.0,1,60,8.0,51.0
22526,40.0,6,225,8.0,57.0
22527,63.0,111,120,7.0,69.0
22528,54.0,57,60,8.0,48.0
22529,57.0,2,120,7.0,60.0
22530,60.0,2,120,7.0,57.0
22531,52.0,1,60,8.0,47.0
22532,50.0,57,45,8.0,51.0
22533,64.0,59,105,7.0,62.0
22534,59.0,1,105,7.0,47.0
22535,40.0,0,105,8.0,60.0
22536,56.0,1,105,7.0,54.0
22537,50.0,2,120,8.0,44.0
22538,49.0,116,60,8.0,53.0
22539,33.0,1,225,8.0,56.0
22540,64.0,60,240,7.0,77.0
22541,47.0,61,60,8.0,46.0
22542,45.0,58,60,8.0,45.0
22543,52.0,1,355,7.0,61.0
22544,57.0,2,355,7.0,65.0
22545,33.0,3,115,8.0,51.0
22546,43.0,60,55,8.0,41.0
22547,38.0,58,120,8.0,37.0
22548,57.0,0,0,7.0,59.0
22549,42.0,1,120,8.0,32.0
22550,50.0,1,120,7.0,48.0
22551,62.0,114,120,7.0,80.0
22552,57.0,4,1,7.0,59.0
22553,54.0,4,120,7.0,59.0
22554,64.0,115,120,7.0,73.0
22555,57.0,3,1,7.0,66.0
22556,61.0,2,120,7.0,62.0
22557,26.0,3,120,8.0,59.0
22558,38.0,2,120,8.0,56.0
22559,66.0,114,240,7.0,80.0
22560,62.0,2,240,7.0,66.0
22561,42.0,117,120,8.0,53.0
22562,30.0,2,120,8.0,51.0
22563,64.0,113,105,7.0,79.0
22564,57.0,0,105,7.0,59.0
22565,61.0,2,105,7.0,56.0
22566,45.0,3,105,8.0,54.0
22567,33.0,3,105,8.0,54.0
22568,62.0,112,120,7.0,86.0
22569,54.0,2,120,7.0,67.0
22570,59.0,0,3,7.0,66.0
22571,47.0,1,225,8.0,54.0
22572,35.0,1,225,8.0,54.0
22573,66.0,117,120,7.0,86.0
22574,62.0,1,1,7.0,66.0
22575,71.0,118,120,7.0,87.0
22576,66.0,0,120,7.0,63.0
22577,45.0,3,120,8.0,61.0
22578,33.0,0,120,8.0,54.0
22579,31.0,2,120,8.0,63.0
22580,43.0,3,120,8.0,66.0
22581,76.0,116,240,7.0,87.0
22582,64.0,1,240,7.0,76.0
22583,71.0,3,0,7.0,63.0
22584,35.0,119,120,8.0,51.0
22585,47.0,2,120,8.0,53.0
22586,74.0,110,105,7.0,75.0
22587,62.0,3,105,7.0,59.0
22588,40.0,0,105,8.0,54.0
22589,52.0,2,105,8.0,52.0
22590,61.0,3,120,7.0,66.0
22591,69.0,1,120,7.0,66.0
22592,76.0,113,120,7.0,75.0
22593,73.0,113,240,7.0,79.0
22594,71.0,3,120,7.0,66.0
22595,64.0,0,120,7.0,69.0
22596,43.0,1,240,8.0,64.0
22597,55.0,1,240,8.0,61.0
22598,74.0,120,105,7.0,66.0
22599,81.0,0,105,7.0,73.0
22600,42.0,0,105,8.0,66.0
22601,69.0,3,105,7.0,66.0
22602,54.0,4,105,8.0,61.0
22603,53.0,3,120,8.0,75.0
22604,41.0,1,120,8.0,74.0
22605,74.0,112,180,7.0,80.0
22606,81.0,0,180,7.0,86.0
22607,69.0,1,180,7.0,76.0
22608,35.0,0,120,8.0,64.0
22609,47.0,119,120,8.0,63.0
22610,80.0,53,120,7.0,87.0
22611,68.0,3,120,7.0,76.0
22612,74.0,4,120,7.0,69.0
22613,81.0,55,45,7.0,86.0
22614,69.0,2,45,7.0,71.0
22615,52.0,61,120,8.0,68.0
22616,40.0,0,120,8.0,64.0
22617,46.0,3,120,8.0,64.0
22618,34.0,1,120,8.0,66.0
22619,79.0,56,165,7.0,80.0
22620,67.0,2,165,7.0,69.0
22621,74.0,3,165,7.0,69.0
22622,50.0,118,120,8.0,73.0
22623,38.0,3,120,8.0,66.0
22624,78.0,50,120,7.0,87.0
22625,74.0,2,120,7.0,76.0
22626,66.0,2,120,7.0,76.0
22627,79.0,52,45,7.0,87.0
22628,67.0,4,45,7.0,79.0
22629,33.0,64,120,8.0,72.0
22630,45.0,2,120,8.0,72.0
22631,50.0,4,120,8.0,73.0
22632,38.0,0,120,8.0,66.0
22633,74.0,0,165,7.0,79.0
22634,66.0,56,165,7.0,73.0
22635,78.0,1,165,7.0,87.0
22636,32.0,0,120,8.0,73.0
22637,44.0,122,120,8.0,74.0
22638,76.0,51,120,7.0,87.0
22639,71.0,0,120,7.0,79.0
22640,74.0,2,120,7.0,79.0
22641,64.0,1,120,7.0,79.0
22642,78.0,54,45,7.0,84.0
22643,66.0,3,45,7.0,80.0
22644,38.0,65,120,8.0,66.0
22645,50.0,0,120,8.0,73.0
22646,71.0,54,120,7.0,86.0
22647,45.0,1,120,8.0,62.0
22648,33.0,4,120,8.0,69.0
22649,73.0,14,60,7.0,86.0
22650,38.0,111,120,8.0,49.0
22651,50.0,1,120,8.0,57.0
22652,71.0,47,60,7.0,81.0
22653,70.0,59,60,7.0,81.0
22654,62.0,4,345,7.0,71.0
22655,66.0,2,345,7.0,66.0
22656,44.0,6,120,8.0,49.0
22657,32.0,2,120,8.0,53.0
22658,73.0,50,57,7.0,86.0
22659,74.0,31,60,7.0,75.0
22660,50.0,21,120,8.0,63.0
22661,38.0,4,120,8.0,59.0
22662,71.0,50,300,7.0,86.0
22663,31.0,9,120,8.0,62.0
22664,43.0,2,120,8.0,56.0
22665,76.0,73,180,7.0,73.0
22666,69.0,60,45,7.0,62.0
22667,49.0,116,120,8.0,47.0
22668,37.0,0,120,8.0,47.0
22669,69.0,11,25,7.0,63.0
22670,30.0,58,60,8.0,66.0
22671,57.0,8,60,7.0,59.0
22672,62.0,8,60,7.0,62.0
22673,66.0,8,60,7.0,64.0
22674,69.0,30,30,7.0,72.0
22675,42.0,4,60,8.0,64.0
22676,45.0,4,60,8.0,67.0
22677,62.0,36,40,7.0,76.0
22678,66.0,16,40,7.0,76.0
22679,57.0,24,60,8.0,84.0
22680,62.0,40,40,7.0,76.0
22681,50.0,4,60,8.0,70.0
22682,66.0,36,40,7.0,76.0
22683,45.0,24,45,8.0,70.0
22684,62.0,16,40,7.0,76.0
22685,64.0,40,40,7.0,76.0
22686,31.0,4,60,8.0,84.0
22687,61.0,36,40,7.0,76.0
22688,64.0,16,40,7.0,76.0
22689,43.0,24,60,8.0,70.0
22690,61.0,40,40,7.0,76.0
22691,74.0,51,405,7.0,95.0
22692,45.0,4,60,8.0,70.0
22693,64.0,36,40,7.0,76.0
22694,69.0,20,42,7.0,92.0
22695,61.0,16,40,7.0,76.0
22696,57.0,4,60,8.0,84.0
22697,76.0,40,42,7.0,92.0
22698,49.0,4,60,8.0,70.0
22699,61.0,36,40,7.0,76.0
22700,69.0,20,42,7.0,92.0
22701,45.0,4,45,8.0,70.0
22702,64.0,16,40,7.0,76.0
22703,74.0,40,60,7.0,92.0
22704,30.0,4,60,8.0,84.0
22705,62.0,36,40,7.0,76.0
22706,69.0,20,30,7.0,92.0
22707,66.0,16,40,7.0,76.0
22708,42.0,4,60,8.0,70.0
22709,45.0,4,60,8.0,70.0
22710,62.0,36,40,7.0,76.0
22711,66.0,16,40,7.0,76.0
22712,57.0,24,60,8.0,84.0
22713,62.0,40,40,7.0,76.0
22714,50.0,4,60,8.0,70.0
22715,66.0,36,40,7.0,76.0
22716,45.0,24,45,8.0,70.0
22717,62.0,16,40,7.0,76.0
22718,67.0,40,40,7.0,76.0
22719,33.0,4,60,8.0,84.0
22720,61.0,36,40,7.0,76.0
22721,67.0,16,40,7.0,76.0
22722,45.0,24,60,8.0,70.0
22723,61.0,40,40,7.0,76.0
22724,74.0,40,405,7.0,109.0
22725,52.0,4,60,8.0,70.0
22726,67.0,36,40,7.0,76.0
22727,69.0,20,42,7.0,93.0
22728,61.0,16,40,7.0,76.0
22729,57.0,4,60,8.0,84.0
22730,76.0,40,42,7.0,93.0
22731,52.0,4,60,8.0,70.0
22732,61.0,36,40,7.0,76.0
22733,69.0,20,42,7.0,93.0
22734,49.0,4,45,8.0,70.0
22735,67.0,16,40,7.0,76.0
22736,78.0,40,60,7.0,94.0
22737,36.0,4,60,8.0,84.0
22738,62.0,36,40,7.0,77.0
22739,69.0,20,30,7.0,94.0
22740,66.0,16,40,7.0,77.0
22741,48.0,4,60,8.0,71.0
22742,50.0,4,60,8.0,71.0
22743,69.0,36,40,7.0,77.0
22744,74.0,16,40,7.0,78.0
22745,57.0,24,60,8.0,87.0
22746,66.0,40,40,7.0,78.0
22747,50.0,4,60,8.0,72.0
22748,69.0,36,40,7.0,78.0
22749,48.0,20,45,8.0,72.0
22750,62.0,20,40,7.0,79.0
22751,67.0,40,40,7.0,79.0
22752,35.0,4,60,8.0,91.0
22753,62.0,36,40,7.0,79.0
22754,67.0,16,40,7.0,79.0
22755,47.0,24,60,8.0,73.0
22756,62.0,40,40,7.0,79.0
22757,78.0,40,405,7.0,109.0
22758,50.0,4,60,8.0,73.0
22759,67.0,36,40,7.0,83.0
22760,71.0,20,42,7.0,103.0
22761,62.0,16,40,7.0,83.0
22762,59.0,4,60,8.0,93.0
22763,79.0,40,42,7.0,96.0
22764,50.0,4,60,8.0,77.0
22765,62.0,36,40,7.0,84.0
22766,71.0,20,42,7.0,96.0
22767,47.0,4,45,8.0,78.0
22768,67.0,16,40,7.0,84.0
22769,80.0,40,60,7.0,99.0
22770,29.0,4,60,8.0,96.0
22771,62.0,36,40,7.0,84.0
22772,71.0,20,30,7.0,99.0
22773,68.0,16,40,7.0,84.0
22774,41.0,4,60,8.0,78.0
22775,47.0,4,60,8.0,79.0
22776,71.0,36,40,7.0,86.0
22777,74.0,16,40,7.0,86.0
22778,59.0,24,60,8.0,102.0
22779,68.0,40,40,7.0,87.0
22780,50.0,4,60,8.0,80.0
22781,71.0,36,40,7.0,87.0
22782,47.0,24,45,8.0,80.0
22783,62.0,16,40,7.0,87.0
22784,69.0,40,40,7.0,87.0
22785,30.0,4,60,8.0,103.0
22786,62.0,36,40,7.0,88.0
22787,69.0,16,40,7.0,88.0
22788,42.0,24,60,8.0,83.0
22789,62.0,40,40,7.0,88.0
22790,80.0,40,405,7.0,121.0
22791,45.0,4,60,8.0,83.0
22792,69.0,36,40,7.0,91.0
22793,72.0,20,42,7.0,109.0
22794,62.0,16,40,7.0,91.0
22795,57.0,4,60,8.0,99.0
22796,81.0,40,42,7.0,109.0
22797,50.0,4,60,8.0,84.0
22798,62.0,36,40,7.0,91.0
22799,72.0,20,42,7.0,110.0
22800,45.0,4,45,8.0,84.0
22801,69.0,16,40,7.0,91.0
22802,83.0,40,60,7.0,110.0
22803,31.0,4,60,8.0,101.0
22804,62.0,36,40,7.0,92.0
22805,71.0,20,30,7.0,113.0
22806,67.0,16,40,7.0,93.0
22807,43.0,4,60,8.0,85.0
22808,55.0,4,60,8.0,87.0
22809,50.0,0,60,8.0,87.0
22810,74.0,36,40,7.0,94.0
22811,79.0,16,40,7.0,94.0
22812,59.0,24,60,8.0,106.0
22813,71.0,40,40,7.0,94.0
22814,55.0,0,60,8.0,87.0
22815,50.0,4,60,8.0,87.0
22816,74.0,36,40,7.0,98.0
22817,47.0,24,45,8.0,93.0
22818,67.0,16,40,7.0,101.0
22819,71.0,40,40,7.0,100.0
22820,83.0,40,285,7.0,127.0
22821,35.0,4,60,8.0,113.0
22822,62.0,36,40,7.0,101.0
22823,74.0,20,30,7.0,127.0
22824,67.0,16,40,7.0,107.0
22825,47.0,4,60,8.0,96.0
22826,55.0,4,60,8.0,100.0
22827,50.0,0,60,8.0,100.0
22828,79.0,36,40,7.0,111.0
22829,83.0,16,40,7.0,114.0
22830,59.0,24,60,8.0,127.0
22831,74.0,40,40,7.0,117.0
22832,55.0,0,60,8.0,109.0
22833,50.0,4,60,8.0,109.0
22834,79.0,36,40,7.0,121.0
22835,47.0,24,45,8.0,113.0
22836,71.0,16,40,7.0,123.0
22837,74.0,39,40,7.0,118.0
22838,86.0,40,285,7.0,127.0
22839,33.0,5,60,8.0,77.0
22840,67.0,34,40,7.0,88.0
22841,83.0,23,30,7.0,127.0
22842,71.0,0,40,7.0,110.0
22843,74.0,16,40,7.0,84.0
22844,45.0,4,60,8.0,116.0
22845,79.0,35,40,7.0,63.0
22846,91.0,37,120,7.0,127.0
22847,83.0,38,40,7.0,68.0
22848,74.0,6,120,8.0,101.0
22849,71.0,5,2,8.0,79.0
22850,76.0,34,40,7.0,69.0
22851,88.0,40,120,7.0,127.0
22852,79.0,42,40,7.0,69.0
22853,67.0,2,2,8.0,77.0
22854,73.0,37,40,7.0,65.0
22855,76.0,37,40,7.0,68.0
22856,85.0,40,120,7.0,127.0
22857,64.0,1,120,8.0,77.0
22858,74.0,41,40,7.0,62.0
22859,78.0,37,40,7.0,65.0
22860,66.0,40,120,8.0,99.0
22861,69.0,0,120,8.0,96.0
22862,86.0,1,120,7.0,127.0
22863,71.0,33,40,7.0,62.0
22864,83.0,40,120,7.0,123.0
22865,74.0,38,40,7.0,62.0
22866,57.0,0,360,8.0,88.0
22867,65.0,7,120,8.0,71.0
22868,62.0,2,120,8.0,72.0
22869,71.0,34,40,7.0,63.0
22870,74.0,37,40,7.0,67.0
22871,80.0,42,120,7.0,117.0
22872,59.0,5,120,8.0,71.0
22873,62.0,3,120,8.0,70.0
22874,69.0,38,40,7.0,59.0
22875,81.0,39,120,7.0,117.0
22876,61.0,2,120,8.0,93.0
22877,73.0,41,40,7.0,59.0
22878,64.0,2,120,8.0,93.0
22879,71.0,34,40,7.0,61.0
22880,74.0,41,40,7.0,62.0
22881,77.0,41,120,7.0,93.0
22882,59.0,2,120,8.0,68.0
22883,56.0,1,120,8.0,68.0
22884,57.0,2,1,8.0,66.0
22885,69.0,35,40,7.0,61.0
22886,73.0,39,40,7.0,62.0
22887,76.0,42,120,7.0,93.0
22888,61.0,1,120,8.0,66.0
22889,71.0,37,40,7.0,62.0
22890,74.0,36,40,7.0,59.0
22891,83.0,42,120,7.0,117.0
22892,62.0,3,120,8.0,91.0
22893,65.0,1,120,8.0,88.0
22894,71.0,33,40,7.0,62.0
22895,74.0,41,40,7.0,57.0
22896,77.0,44,120,7.0,92.0
22897,56.0,5,120,8.0,68.0
22898,59.0,1,120,8.0,70.0
22899,69.0,41,40,7.0,57.0
22900,76.0,36,120,7.0,85.0
22901,73.0,37,40,7.0,57.0
22902,57.0,2,120,8.0,63.0
22903,61.0,1,120,8.0,63.0
22904,71.0,37,40,7.0,57.0
22905,83.0,39,120,7.0,107.0
22906,74.0,41,40,7.0,54.0
22907,65.0,0,120,8.0,83.0
22908,62.0,6,120,8.0,85.0
22909,71.0,34,40,7.0,54.0
22910,74.0,39,40,7.0,57.0
22911,77.0,39,120,7.0,85.0
22912,56.0,4,120,8.0,63.0
22913,59.0,1,120,8.0,61.0
22914,69.0,37,40,7.0,57.0
22915,73.0,39,40,7.0,57.0
22916,76.0,42,120,7.0,86.0
22917,57.0,3,120,8.0,61.0
22918,61.0,0,120,8.0,61.0
22919,71.0,36,40,7.0,54.0
22920,83.0,38,120,7.0,105.0
22921,74.0,43,40,7.0,53.0
22922,62.0,3,120,8.0,80.0
22923,65.0,1,120,8.0,80.0
22924,71.0,35,40,7.0,54.0
22925,74.0,36,40,7.0,54.0
22926,77.0,41,120,7.0,84.0
22927,59.0,4,120,8.0,56.0
22928,56.0,1,120,8.0,56.0
22929,71.0,38,40,7.0,48.0
22930,74.0,40,40,7.0,48.0
22931,83.0,42,120,7.0,99.0
22932,62.0,0,120,8.0,76.0
22933,65.0,1,120,8.0,78.0
22934,71.0,32,40,7.0,54.0
22935,77.0,39,120,7.0,76.0
22936,74.0,39,40,7.0,50.0
22937,56.0,7,120,8.0,51.0
22938,59.0,3,120,8.0,57.0
22939,71.0,32,40,7.0,45.0
22940,74.0,43,40,7.0,40.0
22941,83.0,43,120,7.0,97.0
22942,65.0,2,120,8.0,70.0
22943,62.0,2,120,8.0,71.0
22944,71.0,32,40,7.0,43.0
22945,77.0,37,120,7.0,69.0
22946,74.0,38,40,7.0,44.0
22947,59.0,8,120,8.0,48.0
22948,56.0,2,120,8.0,48.0
22949,71.0,30,40,7.0,40.0
22950,74.0,44,40,7.0,38.0
22951,83.0,44,120,7.0,84.0
22952,65.0,3,120,8.0,65.0
22953,62.0,3,120,8.0,65.0
22954,71.0,34,40,7.0,38.0
22955,74.0,40,40,7.0,38.0
22956,77.0,40,120,7.0,66.0
22957,56.0,5,120,8.0,44.0
22958,59.0,0,120,8.0,44.0
22959,70.0,33,40,7.0,42.0
22960,82.0,38,120,7.0,82.0
22961,74.0,41,40,7.0,42.0
22962,62.0,7,120,8.0,55.0
22963,65.0,2,120,8.0,51.0
22964,70.0,35,40,7.0,38.0
22965,74.0,36,40,7.0,40.0
22966,77.0,39,120,7.0,67.0
22967,58.0,3,120,8.0,39.0
22968,56.0,3,120,8.0,41.0
22969,70.0,37,40,7.0,38.0
22970,82.0,41,120,7.0,77.0
22971,74.0,40,40,7.0,38.0
22972,65.0,5,120,8.0,48.0
22973,62.0,1,120,8.0,48.0
22974,70.0,34,40,7.0,38.0
22975,74.0,42,40,7.0,38.0
22976,77.0,38,120,7.0,63.0
22977,58.0,0,120,8.0,40.0
22978,57.0,4,120,8.0,41.0
22979,70.0,31,40,7.0,38.0
22980,74.0,40,40,7.0,38.0
22981,82.0,40,120,7.0,70.0
22982,62.0,5,120,8.0,46.0
22983,65.0,2,120,8.0,48.0
22984,70.0,33,40,7.0,38.0
22985,77.0,43,120,7.0,57.0
22986,77.0,5,120,2.0,112.0
22987,82.0,37,120,7.0,50.0
22988,74.0,2,120,0.0,99.0
22989,68.0,0,120,8.0,37.0
22990,74.0,43,160,7.0,51.0
22991,58.0,0,240,8.0,40.0
22992,65.0,6,120,3.0,98.0
22993,75.0,109,120,0.0,99.0
22994,67.0,11,120,3.0,98.0
22995,74.0,109,120,0.0,99.0
22996,65.0,11,120,3.0,98.0
22997,77.0,109,120,0.0,99.0
22998,68.0,11,120,3.0,98.0
22999,82.0,2,590,2.0,117.0
23000,75.0,109,120,0.0,99.0
23001,67.0,11,120,3.0,98.0
23002,58.0,0,705,2.0,91.0
23003,72.0,109,110,0.0,99.0
23004,58.0,3,705,5.0,88.0
23005,63.0,6,110,3.0,98.0
23006,77.0,5,120,2.0,118.0
23007,74.0,109,120,0.0,99.0
23008,65.0,6,120,3.0,98.0
23009,75.0,109,120,0.0,99.0
23010,67.0,11,120,3.0,98.0
23011,74.0,109,120,0.0,99.0
23012,65.0,11,120,3.0,98.0
23013,77.0,109,120,0.0,99.0
23014,68.0,11,120,3.0,98.0
23015,82.0,5,590,2.0,118.0
23016,75.0,109,120,0.0,99.0
23017,67.0,11,120,3.0,98.0
23018,58.0,0,705,2.0,91.0
23019,72.0,109,110,0.0,99.0
23020,58.0,0,705,5.0,88.0
23021,63.0,6,110,3.0,98.0
23022,77.0,5,120,2.0,118.0
23023,70.0,109,120,0.0,99.0
23024,62.0,6,120,3.0,98.0
23025,72.0,109,120,0.0,99.0
23026,63.0,11,120,3.0,98.0
23027,70.0,109,120,0.0,99.0
23028,62.0,11,120,3.0,98.0
23029,75.0,109,120,0.0,99.0
23030,67.0,11,120,3.0,98.0
23031,80.0,0,590,2.0,118.0
23032,74.0,109,120,0.0,99.0
23033,65.0,11,120,3.0,98.0
23034,58.0,0,705,5.0,88.0
23035,58.0,5,705,2.0,91.0
23036,69.0,109,110,0.0,99.0
23037,60.0,6,110,3.0,98.0
23038,77.0,5,120,2.0,118.0
23039,70.0,109,120,0.0,99.0
23040,62.0,6,120,3.0,98.0
23041,72.0,109,120,0.0,99.0
23042,63.0,11,120,3.0,98.0
23043,70.0,109,120,0.0,99.0
23044,62.0,11,120,3.0,98.0
23045,75.0,109,120,0.0,99.0
23046,67.0,11,120,3.0,98.0
23047,80.0,0,590,2.0,118.0
23048,74.0,109,120,0.0,99.0
23049,65.0,11,120,3.0,98.0
23050,58.0,0,705,2.0,91.0
23051,58.0,5,705,5.0,88.0
23052,69.0,109,110,0.0,99.0
23053,60.0,6,110,3.0,98.0
23054,77.0,5,120,2.0,118.0
23055,70.0,109,120,0.0,99.0
23056,62.0,6,120,3.0,98.0
23057,72.0,109,120,0.0,99.0
23058,80.0,5,240,2.0,118.0
23059,58.0,0,240,2.0,91.0
23060,63.0,11,120,3.0,98.0
23061,58.0,0,345,5.0,88.0
23062,62.0,0,120,2.0,107.0
23063,79.0,5,120,2.0,118.0
23064,74.0,109,120,0.0,99.0
23065,70.0,109,240,0.0,99.0
23066,74.0,0,120,2.0,107.0
23067,62.0,6,240,3.0,98.0
23068,68.0,109,120,0.0,99.0
23069,72.0,0,120,0.0,99.0
23070,72.0,5,120,2.0,107.0
23071,77.0,5,240,2.0,118.0
23072,68.0,6,120,3.0,98.0
23073,58.0,0,345,5.0,88.0
23074,67.0,109,120,0.0,99.0
23075,70.0,0,120,0.0,99.0
23076,58.0,6,350,3.0,98.0
23077,75.0,5,120,2.0,118.0
23078,70.0,0,120,2.0,107.0
23079,67.0,6,120,3.0,98.0
23080,65.0,109,120,0.0,99.0
23081,68.0,0,120,0.0,99.0
23082,68.0,5,120,2.0,107.0
23083,74.0,0,120,2.0,118.0
23084,65.0,6,120,3.0,98.0
23085,70.0,0,120,2.0,107.0
23086,75.0,114,120,2.0,118.0
23087,67.0,6,120,3.0,98.0
23088,58.0,0,345,5.0,88.0
23089,58.0,0,350,3.0,98.0
23090,69.0,0,120,2.0,118.0
23091,66.0,114,240,2.0,107.0
23092,63.0,6,240,3.0,98.0
23093,70.0,114,240,2.0,118.0
23094,58.0,0,345,5.0,88.0
23095,68.0,2,110,2.0,118.0
23096,65.0,114,230,2.0,107.0
23097,62.0,6,230,3.0,98.0
23098,58.0,6,350,3.0,98.0
23099,80.0,112,120,1.0,106.0
23100,69.0,2,0,2.0,107.0
23101,66.0,0,120,2.0,107.0
23102,66.0,109,120,0.0,99.0
23103,78.0,0,120,0.0,99.0
23104,62.0,3,120,4.0,100.0
23105,74.0,0,120,2.0,107.0
23106,57.0,6,240,3.0,98.0
23107,62.0,6,120,3.0,98.0
23108,81.0,0,120,0.0,99.0
23109,69.0,109,120,0.0,99.0
23110,64.0,3,120,4.0,100.0
23111,76.0,2,120,2.0,107.0
23112,73.0,0,120,2.0,107.0
23113,64.0,6,120,3.0,98.0
23114,61.0,0,120,3.0,98.0
23115,74.0,0,120,0.0,99.0
23116,86.0,109,0,0.0,99.0
23117,90.0,0,120,0.0,99.0
23118,66.0,3,240,4.0,100.0
23119,78.0,2,240,2.0,107.0
23120,74.0,0,240,2.0,107.0
23121,66.0,6,240,3.0,98.0
23122,62.0,0,240,3.0,98.0
23123,85.0,0,110,0.0,99.0
23124,93.0,120,110,0.0,99.0
23125,57.0,118,710,4.0,100.0
23126,64.0,3,110,4.0,100.0
23127,81.0,0,710,1.0,106.0
23128,73.0,0,110,2.0,107.0
23129,76.0,2,110,2.0,107.0
23130,61.0,6,110,3.0,98.0
23131,64.0,0,110,3.0,98.0
23132,83.0,109,120,0.0,99.0
23133,91.0,0,120,0.0,99.0
23134,79.0,3,120,1.0,106.0
23135,74.0,0,120,2.0,107.0
23136,71.0,2,120,2.0,107.0
23137,62.0,0,120,3.0,98.0
23138,59.0,6,120,3.0,98.0
23139,90.0,0,120,0.0,99.0
23140,81.0,109,120,0.0,99.0
23141,78.0,3,120,1.0,106.0
23142,73.0,0,120,2.0,107.0
23143,69.0,2,120,2.0,107.0
23144,57.0,0,120,3.0,98.0
23145,61.0,6,120,3.0,98.0
23146,88.0,0,120,0.0,99.0
23147,79.0,109,120,0.0,99.0
23148,76.0,3,120,1.0,106.0
23149,67.0,2,120,2.0,107.0
23150,71.0,0,120,2.0,107.0
23151,55.0,0,120,3.0,98.0
23152,59.0,6,120,3.0,98.0
23153,78.0,109,120,0.0,99.0
23154,69.0,2,120,2.0,107.0
23155,66.0,0,120,2.0,107.0
23156,57.0,0,120,3.0,98.0
23157,54.0,6,120,3.0,98.0
23158,86.0,0,240,0.0,99.0
23159,74.0,3,240,1.0,106.0
23160,76.0,109,240,0.0,99.0
23161,85.0,109,120,0.0,90.0
23162,45.0,0,720,4.0,100.0
23163,73.0,3,120,1.0,94.0
23164,67.0,0,240,2.0,107.0
23165,64.0,5,240,2.0,107.0
23166,52.0,0,240,3.0,98.0
23167,55.0,6,240,3.0,98.0
23168,57.0,116,120,10.0,97.0
23169,78.0,0,120,0.0,77.0
23170,86.0,1,120,0.0,77.0
23171,74.0,0,120,1.0,79.0
23172,69.0,0,840,4.0,100.0
23173,38.0,2,120,4.0,78.0
23174,62.0,0,120,2.0,80.0
23175,66.0,2,120,2.0,80.0
23176,54.0,4,120,3.0,76.0
23177,50.0,0,120,3.0,76.0
23178,62.0,107,120,10.0,100.0
23179,57.0,1,240,11.0,97.0
23180,54.0,1,240,12.0,97.0
23181,38.0,1,345,13.0,97.0
23182,38.0,1,345,14.0,97.0
23183,64.0,120,120,10.0,100.0
23184,61.0,2,120,11.0,100.0
23185,57.0,5,0,12.0,100.0
23186,38.0,1,120,13.0,100.0
23187,38.0,5,120,14.0,100.0
23188,66.0,113,240,10.0,100.0
23189,62.0,2,240,11.0,100.0
23190,42.0,115,120,13.0,100.0
23191,30.0,5,120,14.0,100.0
23192,64.0,107,105,10.0,100.0
23193,61.0,2,105,11.0,100.0
23194,45.0,6,105,13.0,100.0
23195,33.0,5,105,14.0,100.0
23196,61.0,100,60,7.0,74.0
23197,49.0,3,60,8.0,72.0
23198,62.0,4,120,10.0,100.0
23199,59.0,2,120,11.0,100.0
23200,62.0,50,60,7.0,72.0
23201,50.0,1,60,8.0,72.0
23202,54.0,5,120,12.0,100.0
23203,65.0,1,60,7.0,76.0
23204,53.0,2,60,8.0,76.0
23205,66.0,56,120,10.0,100.0
23206,54.0,0,60,8.0,79.0
23207,62.0,2,120,11.0,100.0
23208,66.0,55,60,7.0,79.0
23209,59.0,2,120,12.0,100.0
23210,47.0,1,240,13.0,100.0
23211,35.0,5,240,14.0,100.0
23212,70.0,1,60,7.0,85.0
23213,58.0,1,60,8.0,82.0
23214,45.0,1,105,13.0,100.0
23215,33.0,5,105,14.0,100.0
23216,71.0,58,120,10.0,100.0
23217,71.0,48,60,7.0,84.0
23218,66.0,0,120,11.0,100.0
23219,59.0,6,60,8.0,82.0
23220,62.0,5,120,12.0,100.0
23221,75.0,52,60,7.0,91.0
23222,63.0,4,60,8.0,91.0
23223,76.0,46,60,7.0,86.0
23224,64.0,3,60,8.0,88.0
23225,44.0,1,120,13.0,100.0
23226,32.0,5,120,14.0,100.0
23227,78.0,57,60,7.0,95.0
23228,66.0,7,60,8.0,101.0
23229,64.0,1,225,12.0,100.0
23230,74.0,1,240,10.0,100.0
23231,76.0,47,60,7.0,94.0
23232,71.0,2,240,11.0,100.0
23233,64.0,6,60,8.0,95.0
23234,47.0,2,120,13.0,100.0
23235,35.0,5,120,14.0,100.0
23236,75.0,53,60,7.0,97.0
23237,63.0,1,60,8.0,103.0
23238,73.0,1,105,10.0,100.0
23239,69.0,2,105,11.0,100.0
23240,64.0,4,105,12.0,100.0
23241,52.0,1,105,13.0,100.0
23242,40.0,5,105,14.0,100.0
23243,76.0,52,1,7.0,99.0
23244,64.0,7,60,8.0,95.0
23245,64.0,0,60,8.0,100.0
23246,72.0,1,120,10.0,100.0
23247,75.0,48,60,7.0,103.0
23248,69.0,2,120,11.0,100.0
23249,63.0,2,60,8.0,101.0
23250,63.0,5,120,12.0,100.0
23251,54.0,1,120,13.0,100.0
23252,74.0,0,60,7.0,101.0
23253,62.0,1,60,8.0,99.0
23254,64.0,2,105,11.0,100.0
23255,71.0,57,120,10.0,100.0
23256,64.0,0,60,8.0,103.0
23257,76.0,55,60,7.0,103.0
23258,62.0,4,120,12.0,100.0
23259,56.0,1,120,13.0,100.0
23260,74.0,1,60,7.0,101.0
23261,62.0,0,60,8.0,102.0
23262,64.0,2,105,11.0,100.0
23263,69.0,57,120,10.0,100.0
23264,73.0,55,60,7.0,96.0
23265,61.0,3,60,8.0,103.0
23266,61.0,4,120,12.0,100.0
23267,57.0,1,120,13.0,100.0
23268,72.0,53,60,7.0,102.0
23269,60.0,4,60,8.0,106.0
23270,74.0,52,60,7.0,100.0
23271,68.0,1,120,10.0,100.0
23272,62.0,7,60,8.0,102.0
23273,72.0,52,60,7.0,101.0
23274,60.0,7,60,8.0,101.0
23275,71.0,51,60,7.0,96.0
23276,66.0,1,120,10.0,100.0
23277,59.0,4,60,8.0,96.0
23278,63.0,2,240,11.0,100.0
23279,57.0,1,240,12.0,100.0
23280,60.0,1,240,13.0,100.0
23281,70.0,2,60,7.0,103.0
23282,58.0,0,60,8.0,95.0
23283,68.0,58,105,10.0,100.0
23284,62.0,0,105,11.0,100.0
23285,71.0,54,50,7.0,96.0
23286,59.0,5,105,12.0,100.0
23287,59.0,1,105,13.0,100.0
23288,59.0,5,50,8.0,103.0
23289,40.0,5,705,14.0,100.0
23290,69.0,51,40,7.0,96.0
23291,57.0,0,40,8.0,96.0
23292,61.0,28,40,7.0,93.0
23293,40.0,2,40,8.0,92.0
23294,68.0,36,40,7.0,100.0
23295,69.0,2,120,10.0,100.0
23296,61.0,2,120,11.0,100.0
23297,56.0,8,40,8.0,95.0
23298,60.0,0,40,7.0,92.0
23299,40.0,2,40,8.0,92.0
23300,54.0,39,40,8.0,93.0
23301,66.0,0,40,7.0,99.0
23302,52.0,1,225,13.0,100.0
23303,40.0,5,225,14.0,100.0
23304,63.0,33,120,10.0,100.0
23305,57.0,38,40,7.0,91.0
23306,60.0,2,120,11.0,100.0
23307,40.0,4,40,8.0,92.0
23308,57.0,5,240,12.0,100.0
23309,64.0,0,40,7.0,92.0
23310,52.0,4,40,8.0,100.0
23311,59.0,27,40,7.0,92.0
23312,56.0,1,40,7.0,92.0
23313,40.0,3,40,8.0,92.0
23314,64.0,35,105,10.0,100.0
23315,59.0,2,105,11.0,100.0
23316,56.0,1,105,12.0,100.0
23317,40.0,1,105,13.0,100.0
23318,62.0,34,40,7.0,95.0
23319,28.0,5,105,14.0,100.0
23320,50.0,7,40,8.0,94.0
23321,52.0,33,40,7.0,91.0
23322,33.0,2,40,8.0,87.0
23323,61.0,26,40,7.0,94.0
23324,49.0,8,40,8.0,95.0
23325,52.0,32,40,7.0,85.0
23326,33.0,5,40,8.0,85.0
23327,57.0,3,120,12.0,100.0
23328,59.0,39,40,7.0,94.0
23329,47.0,0,40,8.0,92.0
23330,52.0,31,40,7.0,86.0
23331,33.0,4,40,8.0,88.0
23332,45.0,1,225,13.0,100.0
23333,33.0,5,225,14.0,100.0
23334,57.0,36,40,7.0,95.0
23335,64.0,2,240,10.0,100.0
23336,45.0,5,40,8.0,93.0
23337,52.0,4,120,12.0,100.0
23338,49.0,35,40,7.0,84.0
23339,33.0,2,40,8.0,86.0
23340,55.0,30,40,7.0,80.0
23341,43.0,2,40,8.0,86.0
23342,57.0,2,105,10.0,100.0
23343,57.0,2,345,11.0,100.0
23344,49.0,5,105,12.0,100.0
23345,33.0,38,30,8.0,77.0
23346,45.0,1,105,13.0,100.0
23347,49.0,0,30,7.0,77.0
23348,33.0,5,105,14.0,100.0
23349,54.0,37,40,7.0,62.0
23350,42.0,4,40,8.0,72.0
23351,50.0,28,40,7.0,60.0
23352,38.0,4,40,8.0,68.0
23353,57.0,0,120,10.0,100.0
23354,54.0,0,40,7.0,62.0
23355,42.0,38,40,8.0,66.0
23356,50.0,1,120,12.0,100.0
23357,57.0,35,40,7.0,72.0
23358,45.0,7,40,8.0,70.0
23359,54.0,31,40,7.0,68.0
23360,42.0,5,40,8.0,73.0
23361,62.0,2,120,10.0,100.0
23362,57.0,37,40,7.0,68.0
23363,45.0,2,40,8.0,62.0
23364,57.0,2,240,11.0,100.0
23365,54.0,0,120,12.0,100.0
23366,61.0,1,40,7.0,73.0
23367,49.0,1,40,8.0,66.0
23368,57.0,33,40,7.0,68.0
23369,45.0,2,40,8.0,63.0
23370,57.0,5,105,12.0,100.0
23371,38.0,1,345,13.0,100.0
23372,38.0,5,345,14.0,100.0
23373,64.0,38,120,10.0,100.0
23374,61.0,39,40,7.0,71.0
23375,61.0,0,120,11.0,100.0
23376,49.0,4,40,8.0,63.0
23377,57.0,33,40,7.0,77.0
23378,45.0,1,40,8.0,72.0
23379,62.0,27,40,7.0,72.0
23380,50.0,3,40,8.0,63.0
23381,57.0,36,40,7.0,74.0
23382,45.0,5,40,8.0,68.0
23383,38.0,1,120,13.0,100.0
23384,38.0,5,120,14.0,100.0
23385,50.0,0,40,8.0,80.0
23386,62.0,39,40,7.0,83.0
23387,57.0,26,40,7.0,77.0
23388,45.0,6,40,8.0,71.0
23389,62.0,35,40,7.0,79.0
23390,66.0,2,240,10.0,100.0
23391,62.0,2,240,11.0,100.0
23392,50.0,7,40,8.0,74.0
23393,42.0,5,120,13.0,100.0
23394,30.0,5,120,14.0,100.0
23395,57.0,0,40,7.0,91.0
23396,45.0,2,40,8.0,84.0
23397,61.0,27,40,7.0,80.0
23398,49.0,6,40,8.0,74.0
23399,64.0,33,105,10.0,100.0
23400,61.0,0,105,11.0,100.0
23401,57.0,35,30,7.0,84.0
23402,57.0,4,345,12.0,100.0
23403,45.0,2,30,8.0,77.0
23404,45.0,6,105,13.0,100.0
23405,33.0,5,105,14.0,100.0
23406,62.0,37,40,7.0,94.0
23407,50.0,3,40,8.0,99.0
23408,54.0,30,40,7.0,84.0
23409,42.0,2,40,8.0,91.0
23410,62.0,0,120,10.0,100.0
23411,62.0,35,40,7.0,86.0
23412,59.0,2,120,11.0,100.0
23413,50.0,6,40,8.0,86.0
23414,54.0,2,120,12.0,100.0
23415,66.0,0,40,7.0,101.0
23416,54.0,0,40,8.0,103.0
23417,62.0,31,40,7.0,87.0
23418,50.0,9,40,8.0,91.0
23419,66.0,31,40,7.0,91.0
23420,66.0,34,120,10.0,100.0
23421,62.0,2,120,11.0,100.0
23422,54.0,6,40,8.0,91.0
23423,59.0,5,120,12.0,100.0
23424,47.0,1,240,13.0,100.0
23425,35.0,5,240,14.0,100.0
23426,71.0,36,40,7.0,100.0
23427,59.0,5,40,8.0,100.0
23428,66.0,26,40,7.0,91.0
23429,54.0,5,40,8.0,95.0
23430,62.0,0,105,12.0,100.0
23431,45.0,1,105,13.0,100.0
23432,33.0,5,105,14.0,100.0
23433,71.0,0,120,10.0,100.0
23434,71.0,37,40,7.0,94.0
23435,66.0,2,120,11.0,100.0
23436,59.0,4,40,8.0,94.0
23437,74.0,34,40,7.0,109.0
23438,62.0,3,40,8.0,106.0
23439,71.0,27,40,7.0,102.0
23440,59.0,3,40,8.0,101.0
23441,74.0,36,40,7.0,101.0
23442,62.0,7,40,8.0,103.0
23443,43.0,1,120,13.0,100.0
23444,31.0,5,120,14.0,100.0
23445,79.0,35,40,7.0,111.0
23446,67.0,6,40,8.0,112.0
23447,74.0,25,40,7.0,99.0
23448,62.0,6,40,8.0,97.0
23449,74.0,1,240,10.0,100.0
23450,79.0,38,40,7.0,97.0
23451,67.0,2,240,11.0,100.0
23452,67.0,2,40,8.0,100.0
23453,47.0,1,120,13.0,100.0
23454,35.0,5,120,14.0,100.0
23455,83.0,1,40,7.0,116.0
23456,71.0,1,40,8.0,116.0
23457,79.0,30,40,7.0,102.0
23458,67.0,2,40,8.0,101.0
23459,67.0,36,105,10.0,100.0
23460,62.0,2,105,11.0,100.0
23461,83.0,34,30,7.0,103.0
23462,59.0,2,345,12.0,100.0
23463,53.0,4,105,13.0,100.0
23464,71.0,8,30,8.0,103.0
23465,41.0,5,105,14.0,100.0
23466,84.0,33,40,7.0,121.0
23467,72.0,2,40,8.0,122.0
23468,79.0,27,40,7.0,109.0
23469,67.0,2,40,8.0,107.0
23470,67.0,0,120,10.0,100.0
23471,64.0,0,120,11.0,100.0
23472,84.0,0,40,7.0,109.0
23473,72.0,41,40,8.0,109.0
23474,60.0,5,120,12.0,100.0
23475,88.0,37,40,7.0,127.0
23476,76.0,4,40,8.0,126.0
23477,72.0,35,40,8.0,111.0
23478,84.0,0,40,7.0,109.0
23479,88.0,36,40,7.0,113.0
23480,72.0,0,120,10.0,100.0
23481,67.0,2,120,11.0,100.0
23482,76.0,9,40,8.0,113.0
23483,64.0,1,120,12.0,100.0
23484,52.0,1,240,13.0,100.0
23485,40.0,5,240,14.0,100.0
23486,79.0,0,40,8.0,127.0
23487,91.0,1,40,7.0,127.0
23488,79.0,27,40,7.0,113.0
23489,67.0,3,40,8.0,113.0
23490,76.0,33,105,10.0,100.0
23491,72.0,2,105,11.0,100.0
23492,67.0,4,105,12.0,100.0
23493,48.0,1,105,13.0,100.0
23494,88.0,35,40,7.0,114.0
23495,36.0,5,105,14.0,100.0
23496,76.0,7,40,8.0,113.0
23497,91.0,34,40,7.0,127.0
23498,79.0,0,40,8.0,127.0
23499,79.0,30,40,7.0,117.0
23500,67.0,1,40,8.0,116.0
23501,88.0,35,40,7.0,117.0
23502,76.0,4,40,8.0,120.0
23503,91.0,37,30,7.0,127.0
23504,79.0,5,30,8.0,127.0
23505,79.0,1,240,10.0,100.0
23506,76.0,2,240,11.0,100.0
23507,60.0,5,240,12.0,100.0
23508,48.0,1,240,13.0,100.0
23509,36.0,5,240,14.0,100.0
23510,93.0,114,40,7.0,127.0
23511,81.0,0,40,8.0,127.0
23512,81.0,1,60,10.0,115.0
23513,81.0,0,60,0.0,114.0
23514,79.0,1,60,0.0,114.0
23515,79.0,1,60,11.0,115.0
23516,69.0,0,60,11.0,115.0
23517,69.0,2,60,1.0,113.0
23518,73.0,0,60,1.0,113.0
23519,57.0,2,60,2.0,112.0
23520,69.0,0,60,2.0,112.0
23521,61.0,1,60,12.0,115.0
23522,45.0,1,60,13.0,115.0
23523,45.0,4,60,3.0,113.0
23524,57.0,0,60,3.0,113.0
23525,33.0,1,60,14.0,115.0
23526,81.0,26,40,7.0,127.0
23527,69.0,8,40,8.0,127.0
23528,85.0,31,20,7.0,127.0
23529,73.0,5,20,8.0,127.0
23530,93.0,1,40,7.0,127.0
23531,81.0,1,40,8.0,127.0
23532,81.0,27,40,7.0,127.0
23533,69.0,4,40,8.0,127.0
23534,85.0,35,40,7.0,127.0
23535,73.0,5,40,8.0,127.0
23536,93.0,36,60,7.0,127.0
23537,81.0,5,60,8.0,127.0
23538,81.0,37,225,10.0,100.0
23539,69.0,0,225,11.0,100.0
23540,79.0,1,225,11.0,100.0
23541,61.0,0,225,12.0,100.0
23542,45.0,1,225,13.0,100.0
23543,33.0,1,225,14.0,100.0
23544,81.0,0,240,0.0,114.0
23545,79.0,1,240,0.0,114.0
23546,73.0,1,240,1.0,112.0
23547,69.0,0,240,1.0,112.0
23548,61.0,2,240,2.0,112.0
23549,69.0,0,240,2.0,112.0
23550,57.0,4,240,3.0,113.0
23551,45.0,0,240,3.0,113.0
23552,95.0,114,40,7.0,127.0
23553,83.0,1,40,8.0,127.0
23554,83.0,1,60,10.0,115.0
23555,83.0,0,60,0.0,114.0
23556,79.0,1,60,0.0,114.0
23557,79.0,1,60,11.0,115.0
23558,71.0,0,60,11.0,115.0
23559,71.0,1,60,1.0,111.0
23560,74.0,0,60,1.0,111.0
23561,62.0,0,60,2.0,112.0
23562,71.0,2,60,2.0,112.0
23563,62.0,1,60,12.0,115.0
23564,43.0,1,60,13.0,115.0
23565,55.0,4,60,3.0,113.0
23566,43.0,0,60,3.0,113.0
23567,31.0,1,60,14.0,115.0
23568,83.0,26,40,7.0,127.0
23569,71.0,8,40,8.0,127.0
23570,86.0,35,40,7.0,127.0
23571,74.0,1,40,8.0,127.0
23572,95.0,0,40,7.0,127.0
23573,83.0,2,40,8.0,127.0
23574,83.0,25,40,7.0,127.0
23575,71.0,6,40,8.0,127.0
23576,86.0,35,40,7.0,127.0
23577,74.0,3,40,8.0,127.0
23578,83.0,40,60,8.0,127.0
23579,95.0,1,60,7.0,127.0
23580,83.0,37,225,10.0,100.0
23581,71.0,1,225,11.0,100.0
23582,62.0,1,225,12.0,100.0
23583,43.0,1,225,13.0,100.0
23584,31.0,1,225,14.0,100.0
23585,79.0,0,240,0.0,114.0
23586,83.0,1,240,0.0,114.0
23587,71.0,0,240,1.0,112.0
23588,74.0,0,240,1.0,112.0
23589,62.0,2,240,2.0,112.0
23590,71.0,0,240,2.0,112.0
23591,55.0,4,240,3.0,113.0
23592,43.0,0,240,3.0,113.0
23593,97.0,1,40,7.0,127.0
23594,85.0,0,40,8.0,127.0
23595,85.0,117,60,10.0,115.0
23596,82.0,0,60,0.0,114.0
23597,85.0,1,60,0.0,114.0
23598,73.0,0,60,11.0,115.0
23599,78.0,2,60,1.0,111.0
23600,70.0,0,60,1.0,111.0
23601,66.0,2,60,2.0,112.0
23602,73.0,0,60,2.0,112.0
23603,58.0,0,60,12.0,115.0
23604,66.0,1,60,12.0,115.0
23605,42.0,1,60,13.0,115.0
23606,42.0,0,60,3.0,113.0
23607,54.0,4,60,3.0,113.0
23608,30.0,1,60,14.0,115.0
23609,85.0,30,40,7.0,127.0
23610,73.0,3,40,8.0,127.0
23611,90.0,32,40,7.0,127.0
23612,78.0,6,40,8.0,127.0
23613,97.0,0,60,7.0,127.0
23614,58.0,1,54,12.0,100.0
23615,66.0,0,54,12.0,100.0
23616,85.0,0,60,8.0,127.0
23617,61.0,54,30,12.0,100.0
23618,85.0,36,120,10.0,100.0
23619,85.0,0,120,0.0,114.0
23620,82.0,1,120,0.0,114.0
23621,73.0,1,120,11.0,100.0
23622,70.0,2,120,1.0,112.0
23623,78.0,0,120,1.0,112.0
23624,66.0,2,120,2.0,112.0
23625,73.0,0,120,2.0,112.0
23626,42.0,1,120,13.0,100.0
23627,42.0,0,120,3.0,113.0
23628,54.0,4,120,3.0,113.0
23629,30.0,1,120,14.0,100.0
23630,70.0,49,40,7.0,92.0
23631,66.0,5,40,7.0,92.0
23632,42.0,3,40,8.0,92.0
23633,71.0,30,40,7.0,92.0
23634,68.0,2,40,7.0,92.0
23635,49.0,4,40,8.0,92.0
23636,70.0,37,40,7.0,96.0
23637,66.0,0,40,7.0,96.0
23638,42.0,2,40,8.0,96.0
23639,71.0,37,40,7.0,94.0
23640,68.0,3,40,7.0,95.0
23641,49.0,1,40,8.0,94.0
23642,73.0,34,40,7.0,96.0
23643,70.0,5,40,7.0,101.0
23644,54.0,1,40,8.0,96.0
23645,71.0,37,40,7.0,101.0
23646,68.0,0,40,7.0,96.0
23647,49.0,6,40,8.0,101.0
23648,70.0,32,40,7.0,103.0
23649,66.0,3,40,7.0,106.0
23650,42.0,1,40,8.0,100.0
23651,71.0,36,40,7.0,106.0
23652,49.0,0,40,8.0,102.0
23653,68.0,4,40,7.0,96.0
23654,70.0,33,40,7.0,106.0
23655,66.0,7,40,7.0,103.0
23656,66.0,3,360,4.0,120.0
23657,42.0,3,40,8.0,106.0
23658,71.0,32,40,7.0,106.0
23659,68.0,4,40,7.0,106.0
23660,49.0,4,40,8.0,106.0
23661,66.0,0,405,12.0,100.0
23662,73.0,30,40,7.0,96.0
23663,70.0,8,40,7.0,101.0
23664,54.0,1,40,8.0,102.0
23665,61.0,23,30,12.0,127.0
23666,75.0,11,40,7.0,100.0
23667,71.0,2,40,7.0,105.0
23668,61.0,4,40,8.0,100.0
23669,76.0,33,30,7.0,101.0
23670,73.0,3,30,7.0,101.0
23671,66.0,0,30,8.0,101.0
23672,66.0,1,30,12.0,127.0
23673,66.0,3,60,4.0,120.0
23674,61.0,54,30,12.0,127.0
23675,85.0,1,105,0.0,114.0
23676,82.0,0,105,0.0,114.0
23677,70.0,0,105,1.0,112.0
23678,73.0,0,105,1.0,112.0
23679,66.0,0,105,2.0,112.0
23680,76.0,2,105,2.0,112.0
23681,58.0,4,105,3.0,113.0
23682,54.0,0,105,3.0,113.0
23683,54.0,1,120,13.0,100.0
23684,42.0,1,120,14.0,100.0
23685,66.0,49,30,11.0,100.0
23686,87.0,54,120,0.0,114.0
23687,81.0,0,120,0.0,114.0
23688,66.0,3,120,4.0,120.0
23689,71.0,0,120,1.0,112.0
23690,75.0,0,120,1.0,112.0
23691,75.0,2,120,2.0,112.0
23692,71.0,0,120,2.0,112.0
23693,47.0,1,120,13.0,100.0
23694,59.0,0,120,3.0,113.0
23695,47.0,4,120,3.0,113.0
23696,35.0,1,120,14.0,100.0
23697,75.0,56,40,7.0,94.0
23698,71.0,3,40,7.0,93.0
23699,35.0,2,40,8.0,94.0
23700,76.0,31,40,7.0,95.0
23701,73.0,6,40,7.0,91.0
23702,42.0,1,40,8.0,94.0
23703,75.0,34,40,7.0,95.0
23704,71.0,2,40,7.0,96.0
23705,35.0,6,40,8.0,94.0
23706,66.0,1,240,12.0,115.0
23707,59.0,0,240,12.0,115.0
23708,76.0,33,40,7.0,99.0
23709,73.0,4,40,7.0,99.0
23710,42.0,3,40,8.0,96.0
23711,78.0,34,40,7.0,101.0
23712,75.0,1,40,7.0,101.0
23713,47.0,3,40,8.0,101.0
23714,73.0,36,40,7.0,96.0
23715,76.0,1,40,7.0,99.0
23716,42.0,3,40,8.0,99.0
23717,75.0,35,40,7.0,100.0
23718,71.0,5,40,7.0,106.0
23719,35.0,3,40,8.0,102.0
23720,76.0,31,40,7.0,103.0
23721,73.0,2,40,7.0,102.0
23722,42.0,5,40,8.0,101.0
23723,75.0,34,40,7.0,100.0
23724,71.0,4,40,7.0,96.0
23725,35.0,5,40,8.0,96.0
23726,76.0,31,40,7.0,101.0
23727,73.0,2,40,7.0,106.0
23728,42.0,4,40,8.0,100.0
23729,71.0,1,405,11.0,100.0
23730,78.0,32,40,7.0,100.0
23731,75.0,4,40,7.0,96.0
23732,47.0,3,40,8.0,96.0
23733,66.0,20,30,11.0,127.0
23734,80.0,17,40,7.0,102.0
23735,76.0,3,40,7.0,101.0
23736,54.0,1,40,8.0,101.0
23737,81.0,34,30,7.0,106.0
23738,78.0,1,30,7.0,105.0
23739,71.0,1,30,11.0,127.0
23740,59.0,0,30,8.0,101.0
23741,66.0,49,30,11.0,127.0
23742,87.0,0,105,0.0,114.0
23743,81.0,3,105,0.0,114.0
23744,75.0,0,105,1.0,112.0
23745,71.0,2,105,1.0,112.0
23746,71.0,0,105,2.0,112.0
23747,66.0,2,105,2.0,112.0
23748,57.0,4,105,3.0,113.0
23749,47.0,0,105,3.0,113.0
23750,59.0,2,120,13.0,100.0
23751,47.0,1,120,14.0,100.0
23752,71.0,47,30,10.0,100.0
23753,88.0,59,120,0.0,114.0
23754,80.0,0,120,0.0,114.0
23755,74.0,2,120,1.0,112.0
23756,76.0,0,120,1.0,112.0
23757,71.0,2,120,2.0,112.0
23758,64.0,0,120,2.0,112.0
23759,52.0,2,120,13.0,100.0
23760,40.0,4,120,3.0,113.0
23761,56.0,0,120,3.0,113.0
23762,40.0,1,120,14.0,100.0
23763,68.0,56,40,7.0,96.0
23764,64.0,3,40,7.0,97.0
23765,40.0,4,40,8.0,106.0
23766,69.0,32,40,7.0,99.0
23767,66.0,6,40,7.0,100.0
23768,47.0,2,40,8.0,101.0
23769,64.0,1,225,11.0,115.0
23770,71.0,0,225,11.0,115.0
23771,68.0,35,40,7.0,106.0
23772,64.0,1,40,7.0,101.0
23773,40.0,2,40,8.0,102.0
23774,69.0,35,40,7.0,107.0
23775,66.0,0,40,7.0,109.0
23776,47.0,5,40,8.0,109.0
23777,68.0,36,40,7.0,109.0
23778,71.0,1,40,7.0,109.0
23779,52.0,4,40,8.0,109.0
23780,69.0,34,40,7.0,113.0
23781,66.0,3,40,7.0,113.0
23782,47.0,2,40,8.0,111.0
23783,68.0,36,40,7.0,113.0
23784,64.0,2,40,7.0,113.0
23785,40.0,4,40,8.0,113.0
23786,69.0,0,40,7.0,113.0
23787,66.0,35,40,7.0,113.0
23788,47.0,4,40,8.0,113.0
23789,68.0,33,40,7.0,113.0
23790,64.0,4,40,7.0,113.0
23791,40.0,5,40,8.0,113.0
23792,69.0,31,40,7.0,113.0
23793,66.0,5,40,7.0,113.0
23794,47.0,2,40,8.0,113.0
23795,64.0,1,405,10.0,100.0
23796,76.0,0,405,10.0,100.0
23797,71.0,32,40,7.0,117.0
23798,68.0,4,40,7.0,113.0
23799,52.0,7,40,8.0,113.0
23800,71.0,14,30,10.0,127.0
23801,73.0,17,40,7.0,114.0
23802,69.0,3,40,7.0,114.0
23803,59.0,3,40,8.0,113.0
23804,76.0,4,30,10.0,127.0
23805,74.0,33,40,7.0,116.0
23806,71.0,0,40,7.0,113.0
23807,64.0,2,40,8.0,116.0
23808,73.0,26,40,7.0,116.0
23809,69.0,3,40,7.0,113.0
23810,59.0,4,40,8.0,114.0
23811,71.0,14,30,10.0,127.0
23812,64.0,0,110,4.0,100.0
23813,71.0,15,40,7.0,114.0
23814,88.0,0,120,0.0,114.0
23815,80.0,1,120,0.0,114.0
23816,68.0,7,40,7.0,116.0
23817,74.0,1,120,1.0,112.0
23818,76.0,0,120,1.0,112.0
23819,52.0,2,40,8.0,114.0
23820,64.0,0,120,2.0,112.0
23821,71.0,2,120,2.0,112.0
23822,52.0,2,120,13.0,100.0
23823,52.0,0,120,3.0,113.0
23824,56.0,4,120,3.0,113.0
23825,40.0,1,120,14.0,100.0
23826,73.0,33,40,7.0,116.0
23827,69.0,1,40,7.0,116.0
23828,57.0,1,40,8.0,113.0
23829,74.0,25,40,7.0,114.0
23830,71.0,1,40,7.0,117.0
23831,52.0,3,40,8.0,113.0
23832,69.0,20,30,11.0,100.0
23833,69.0,0,25,7.0,114.0
23834,73.0,17,25,7.0,113.0
23835,45.0,4,25,8.0,113.0
23836,73.0,36,40,7.0,113.0
23837,69.0,2,40,7.0,114.0
23838,33.0,1,40,8.0,113.0
23839,74.0,34,40,7.0,117.0
23840,71.0,3,40,7.0,113.0
23841,40.0,4,40,8.0,113.0
23842,69.0,0,40,7.0,113.0
23843,73.0,35,40,7.0,114.0
23844,69.0,3,240,10.0,100.0
23845,76.0,0,240,10.0,100.0
23846,81.0,0,240,0.0,114.0
23847,91.0,1,240,0.0,114.0
23848,33.0,4,40,8.0,113.0
23849,73.0,0,240,1.0,112.0
23850,79.0,0,240,1.0,112.0
23851,69.0,2,240,2.0,112.0
23852,67.0,0,240,2.0,112.0
23853,45.0,4,240,3.0,113.0
23854,57.0,0,240,3.0,113.0
23855,74.0,35,40,7.0,114.0
23856,71.0,5,40,7.0,117.0
23857,40.0,4,40,8.0,116.0
23858,76.0,31,40,7.0,113.0
23859,73.0,3,40,7.0,113.0
23860,45.0,5,40,8.0,113.0
23861,57.0,15,30,10.0,100.0
23862,57.0,1,350,4.0,100.0
23863,74.0,19,40,7.0,117.0
23864,71.0,1,40,7.0,113.0
23865,40.0,5,40,8.0,117.0
23866,69.0,33,40,7.0,117.0
23867,73.0,1,40,7.0,113.0
23868,33.0,4,40,8.0,117.0
23869,74.0,32,40,7.0,117.0
23870,71.0,2,40,7.0,117.0
23871,40.0,7,40,8.0,116.0
23872,73.0,30,40,7.0,113.0
23873,69.0,3,40,7.0,116.0
23874,33.0,7,40,8.0,117.0
23875,74.0,31,40,7.0,114.0
23876,71.0,3,40,7.0,117.0
23877,40.0,5,40,8.0,117.0
23878,76.0,34,40,7.0,117.0
23879,73.0,2,40,7.0,117.0
23880,45.0,3,40,8.0,117.0
23881,74.0,0,40,7.0,117.0
23882,78.0,36,40,7.0,117.0
23883,52.0,3,40,8.0,117.0
23884,79.0,35,40,7.0,117.0
23885,57.0,5,40,8.0,117.0
23886,76.0,0,40,7.0,117.0
23887,81.0,34,40,7.0,117.0
23888,78.0,3,40,7.0,117.0
23889,52.0,4,40,8.0,117.0
23890,83.0,35,25,7.0,117.0
23891,79.0,3,25,7.0,117.0
23892,45.0,1,25,8.0,117.0
23893,57.0,0,350,4.0,100.0
23894,86.0,35,40,7.0,117.0
23895,81.0,3,40,7.0,109.0
23896,66.0,0,40,8.0,109.0
23897,83.0,34,25,7.0,109.0
23898,88.0,1,25,7.0,117.0
23899,57.0,6,40,8.0,107.0
23900,85.0,30,20,7.0,115.0
23901,79.0,4,20,7.0,107.0
23902,45.0,6,40,8.0,107.0
23903,85.0,34,40,7.0,114.0
23904,79.0,1,40,7.0,102.0
23905,64.0,4,40,8.0,100.0
23906,81.0,34,25,7.0,102.0
23907,86.0,1,25,7.0,109.0
23908,57.0,7,40,8.0,101.0
23909,83.0,31,20,7.0,108.0
23910,78.0,5,20,7.0,96.0
23911,45.0,1,40,8.0,92.0
23912,83.0,32,40,7.0,104.0
23913,78.0,3,40,7.0,91.0
23914,62.0,4,40,8.0,100.0
23915,85.0,33,25,7.0,103.0
23916,79.0,4,25,7.0,90.0
23917,57.0,5,40,8.0,99.0
23918,81.0,34,20,7.0,101.0
23919,76.0,3,20,7.0,95.0
23920,45.0,3,25,8.0,94.0
23921,81.0,31,40,7.0,95.0
23922,76.0,6,40,7.0,89.0
23923,61.0,5,40,8.0,91.0
23924,83.0,30,25,7.0,93.0
23925,78.0,5,25,7.0,91.0
23926,57.0,2,40,8.0,88.0
23927,79.0,34,20,7.0,91.0
23928,74.0,2,20,7.0,84.0
23929,81.0,0,1080,11.0,100.0
23930,45.0,7,40,8.0,85.0
23931,79.0,33,40,7.0,86.0
23932,74.0,0,40,7.0,84.0
23933,81.0,31,25,7.0,94.0
23934,59.0,3,60,8.0,81.0
23935,76.0,6,25,7.0,80.0
23936,78.0,13,20,7.0,84.0
23937,73.0,2,20,7.0,80.0
23938,79.0,3,120,11.0,100.0
23939,45.0,23,60,8.0,80.0
23940,78.0,35,40,7.0,80.0
23941,73.0,3,40,7.0,73.0
23942,79.0,29,25,7.0,78.0
23943,74.0,5,25,7.0,68.0
23944,57.0,4,60,8.0,72.0
23945,76.0,15,20,7.0,75.0
23946,71.0,1,20,7.0,66.0
23947,33.0,24,45,8.0,68.0
23948,69.0,1,1080,10.0,100.0
23949,78.0,4,120,11.0,100.0
23950,76.0,35,40,7.0,74.0
23951,71.0,4,40,7.0,65.0
23952,67.0,3,40,8.0,69.0
23953,78.0,33,40,7.0,73.0
23954,73.0,2,40,7.0,65.0
23955,57.0,2,40,8.0,67.0
23956,76.0,34,40,7.0,73.0
23957,76.0,3,120,11.0,100.0
23958,67.0,6,40,8.0,63.0
23959,71.0,0,40,7.0,66.0
23960,45.0,2,1560,13.0,100.0
23961,33.0,1,1560,14.0,100.0
23962,78.0,37,40,7.0,75.0
23963,73.0,1,40,7.0,64.0
23964,57.0,3,40,8.0,62.0
23965,76.0,33,40,7.0,73.0
23966,71.0,4,40,7.0,64.0
23967,67.0,2,40,8.0,64.0
23968,78.0,37,40,7.0,70.0
23969,73.0,2,40,7.0,63.0
23970,57.0,1,40,8.0,64.0
23971,71.0,36,40,7.0,63.0
23972,76.0,1,40,7.0,71.0
23973,67.0,6,40,8.0,63.0
23974,78.0,34,40,7.0,67.0
23975,73.0,2,40,7.0,63.0
23976,57.0,2,40,8.0,61.0
23977,69.0,35,40,7.0,57.0
23978,74.0,1,40,7.0,68.0
23979,66.0,5,40,8.0,59.0
23980,76.0,32,40,7.0,68.0
23981,71.0,2,40,7.0,59.0
23982,55.0,7,40,8.0,60.0
23983,73.0,33,40,7.0,67.0
23984,67.0,4,40,7.0,57.0
23985,64.0,1,40,8.0,58.0
23986,74.0,35,40,7.0,65.0
23987,69.0,2,40,7.0,53.0
23988,45.0,3,40,8.0,47.0
23989,55.0,1,40,8.0,47.0
23990,71.0,32,40,7.0,66.0
23991,66.0,5,40,7.0,57.0
23992,62.0,3,40,8.0,53.0
23993,73.0,34,40,7.0,62.0
23994,67.0,2,40,7.0,56.0
23995,52.0,4,40,8.0,46.0
23996,45.0,0,40,8.0,48.0
23997,69.0,31,40,7.0,60.0
23998,64.0,3,40,7.0,53.0
23999,62.0,5,40,8.0,53.0
24000,71.0,35,40,7.0,57.0
24001,66.0,4,40,7.0,49.0
24002,45.0,2,40,8.0,43.0
24003,50.0,1,40,8.0,45.0
24004,62.0,33,40,7.0,49.0
24005,67.0,1,40,7.0,60.0
24006,61.0,3,40,8.0,50.0
24007,69.0,35,25,7.0,58.0
24008,64.0,2,25,7.0,50.0
24009,45.0,3,25,8.0,43.0
24010,49.0,2,25,8.0,44.0
24011,66.0,32,60,7.0,57.0
24012,61.0,2,60,7.0,51.0
24013,57.0,4,60,8.0,51.0
24014,67.0,55,60,7.0,57.0
24015,62.0,2,60,7.0,50.0
24016,45.0,7,60,8.0,40.0
24017,47.0,0,60,8.0,44.0
24018,59.0,52,60,7.0,50.0
24019,64.0,1,60,7.0,57.0
24020,55.0,5,60,8.0,50.0
24021,66.0,0,60,7.0,54.0
24022,61.0,54,60,7.0,48.0
24023,45.0,7,60,8.0,48.0
24024,62.0,52,60,7.0,55.0
24025,57.0,1,60,7.0,48.0
24026,54.0,6,60,8.0,50.0
24027,59.0,54,60,7.0,48.0
24028,64.0,1,60,7.0,54.0
24029,43.0,6,60,8.0,48.0
24030,61.0,54,60,7.0,51.0
24031,55.0,3,60,7.0,48.0
24032,52.0,4,60,8.0,48.0
24033,62.0,52,60,7.0,51.0
24034,57.0,3,60,7.0,46.0
24035,33.0,3,60,8.0,41.0
24036,42.0,2,60,8.0,41.0
24037,59.0,50,60,7.0,51.0
24038,54.0,5,60,7.0,46.0
24039,50.0,1,60,8.0,44.0
24040,61.0,57,60,7.0,51.0
24041,55.0,2,60,7.0,44.0
24042,33.0,2,60,8.0,38.0
24043,40.0,3,60,8.0,38.0
24044,57.0,1,60,7.0,51.0
24045,49.0,5,60,8.0,46.0
24046,55.0,52,50,7.0,51.0
24047,52.0,52,110,7.0,46.0
24048,33.0,6,50,8.0,37.0
24049,45.0,4,2150,4.0,100.0
24050,37.0,2,50,8.0,39.0
24051,57.0,3,40,11.0,73.0
24052,54.0,1,40,12.0,73.0
24053,50.0,1,40,13.0,73.0
24054,59.0,29,40,11.0,73.0
24055,55.0,5,40,12.0,73.0
24056,45.0,1,40,13.0,73.0
24057,57.0,16,36,4.0,100.0
24058,54.0,55,120,7.0,44.0
24059,57.0,18,40,11.0,73.0
24060,50.0,0,120,7.0,39.0
24061,45.0,1,120,8.0,39.0
24062,38.0,1,120,8.0,40.0
24063,54.0,5,40,12.0,73.0
24064,50.0,1,40,13.0,73.0
24065,59.0,34,40,11.0,73.0
24066,55.0,3,40,12.0,73.0
24067,45.0,1,40,13.0,73.0
24068,57.0,34,40,11.0,73.0
24069,54.0,5,40,12.0,73.0
24070,50.0,1,40,13.0,73.0
24071,59.0,34,40,11.0,73.0
24072,55.0,5,40,12.0,73.0
24073,45.0,1,40,13.0,73.0
24074,57.0,34,40,11.0,73.0
24075,54.0,5,40,12.0,73.0
24076,50.0,1,40,13.0,73.0
24077,59.0,34,40,11.0,73.0
24078,55.0,5,40,12.0,73.0
24079,45.0,1,40,13.0,73.0
24080,57.0,34,40,11.0,73.0
24081,62.0,0,360,2.0,91.0
24082,66.0,0,360,2.0,91.0
24083,54.0,5,40,12.0,73.0
24084,50.0,1,40,13.0,73.0
24085,59.0,34,40,11.0,73.0
24086,55.0,1,40,12.0,73.0
24087,45.0,1,40,13.0,73.0
24088,57.0,34,40,11.0,73.0
24089,52.0,5,40,12.0,73.0
24090,50.0,1,40,13.0,73.0
24091,59.0,34,40,11.0,73.0
24092,55.0,5,40,12.0,73.0
24093,45.0,1,40,13.0,73.0
24094,50.0,4,0,3.0,113.0
24095,57.0,34,40,11.0,73.0
24096,52.0,5,40,12.0,73.0
24097,50.0,1,40,13.0,73.0
24098,62.0,2,405,4.0,100.0
24099,59.0,30,40,11.0,73.0
24100,55.0,5,40,12.0,73.0
24101,45.0,1,40,13.0,73.0
24102,57.0,16,44,4.0,100.0
24103,57.0,18,40,11.0,73.0
24104,52.0,5,40,12.0,73.0
24105,50.0,1,40,13.0,73.0
24106,59.0,34,40,11.0,73.0
24107,55.0,3,40,12.0,73.0
24108,45.0,1,40,13.0,73.0
24109,64.0,2,44,4.0,100.0
24110,57.0,30,40,11.0,73.0
24111,52.0,5,40,12.0,73.0
24112,49.0,1,40,13.0,73.0
24113,57.0,16,44,4.0,100.0
24114,59.0,18,40,11.0,73.0
24115,64.0,0,360,2.0,79.0
24116,67.0,4,360,2.0,79.0
24117,55.0,5,40,12.0,73.0
24118,45.0,1,40,13.0,73.0
24119,49.0,4,120,3.0,113.0
24120,62.0,2,36,4.0,100.0
24121,57.0,34,40,11.0,73.0
24122,54.0,1,40,12.0,73.0
24123,50.0,1,40,13.0,73.0
24124,59.0,30,40,11.0,73.0
24125,55.0,5,40,12.0,73.0
24126,45.0,1,40,13.0,73.0
24127,57.0,16,36,4.0,100.0
24128,57.0,18,40,11.0,73.0
24129,54.0,5,40,12.0,73.0
24130,50.0,1,40,13.0,73.0
24131,59.0,34,40,11.0,73.0
24132,55.0,3,40,12.0,73.0
24133,45.0,1,40,13.0,73.0
24134,57.0,34,40,11.0,73.0
24135,54.0,5,40,12.0,73.0
24136,50.0,1,40,13.0,73.0
24137,59.0,34,40,11.0,73.0
24138,55.0,5,40,12.0,73.0
24139,45.0,1,40,13.0,73.0
24140,57.0,34,40,11.0,73.0
24141,54.0,5,40,12.0,73.0
24142,50.0,1,40,13.0,73.0
24143,59.0,34,40,11.0,73.0
24144,55.0,5,40,12.0,73.0
24145,45.0,1,40,13.0,73.0
24146,57.0,34,40,11.0,73.0
24147,38.0,2,1080,4.0,81.0
24148,62.0,0,360,2.0,91.0
24149,66.0,2,360,2.0,91.0
24150,54.0,5,40,12.0,73.0
24151,50.0,1,40,13.0,73.0
24152,59.0,34,40,11.0,73.0
24153,55.0,1,40,12.0,73.0
24154,45.0,1,40,13.0,73.0
24155,57.0,34,40,11.0,73.0
24156,52.0,5,40,12.0,73.0
24157,50.0,1,40,13.0,73.0
24158,59.0,34,40,11.0,73.0
24159,55.0,5,40,12.0,73.0
24160,45.0,1,40,13.0,73.0
24161,50.0,4,0,3.0,113.0
24162,38.0,1,1200,14.0,73.0
24163,57.0,8,40,11.0,73.0
24164,52.0,5,40,12.0,73.0
24165,50.0,1,40,13.0,73.0
24166,62.0,2,405,4.0,100.0
24167,59.0,29,40,11.0,73.0
24168,55.0,5,40,12.0,73.0
24169,45.0,1,40,13.0,73.0
24170,57.0,16,44,4.0,110.0
24171,45.0,0,120,8.0,82.0
24172,33.0,26,120,8.0,82.0
24173,57.0,18,40,11.0,73.0
24174,52.0,5,40,12.0,73.0
24175,50.0,1,40,13.0,73.0
24176,33.0,1,120,14.0,73.0
24177,59.0,34,40,11.0,73.0
24178,55.0,3,40,12.0,73.0
24179,45.0,1,40,13.0,73.0
24180,64.0,2,44,4.0,110.0
24181,57.0,28,40,11.0,73.0
24182,52.0,5,40,12.0,73.0
24183,49.0,1,40,13.0,73.0
24184,57.0,16,44,4.0,110.0
24185,43.0,0,108,8.0,86.0
24186,31.0,1,108,8.0,86.0
24187,59.0,18,40,11.0,73.0
24188,64.0,0,360,2.0,79.0
24189,67.0,4,360,2.0,79.0
24190,55.0,5,40,12.0,73.0
24191,45.0,1,40,13.0,73.0
24192,49.0,4,120,3.0,113.0
24193,31.0,1,120,14.0,73.0
24194,30.0,1,40,8.0,101.0
24195,42.0,30,40,8.0,106.0
24196,57.0,34,120,11.0,73.0
24197,45.0,42,40,8.0,99.0
24198,57.0,1,120,12.0,73.0
24199,42.0,1,120,13.0,100.0
24200,30.0,1,120,14.0,100.0
24201,50.0,39,40,8.0,100.0
24202,54.0,42,40,8.0,105.0
24203,57.0,36,40,8.0,107.0
24204,69.0,0,240,2.0,91.0
24205,62.0,2,240,2.0,91.0
24206,50.0,4,240,3.0,113.0
24207,69.0,37,25,7.0,109.0
24208,62.0,40,40,7.0,111.0
24209,74.0,42,25,7.0,114.0
24210,30.0,4,40,8.0,103.0
24211,42.0,26,40,8.0,102.0
24212,63.0,37,120,7.0,117.0
24213,48.0,39,40,8.0,107.0
24214,69.0,1,480,4.0,126.0
24215,42.0,6,120,13.0,49.0
24216,30.0,5,120,14.0,49.0
24217,75.0,4,120,7.0,116.0
24218,51.0,44,40,8.0,107.0
24219,57.0,38,40,8.0,112.0
24220,60.0,41,40,8.0,111.0
24221,69.0,33,25,7.0,114.0
24222,63.0,43,40,7.0,114.0
24223,75.0,39,25,7.0,117.0
24224,31.0,1,40,8.0,101.0
24225,43.0,4,40,8.0,102.0
24226,61.0,38,60,7.0,110.0
24227,76.0,15,40,7.0,120.0
24228,69.0,14,13,7.0,103.0
24229,45.0,17,40,8.0,120.0
24230,49.0,24,40,8.0,117.0
24231,47.0,5,120,13.0,49.0
24232,31.0,1,120,14.0,49.0
24233,57.0,1,40,8.0,117.0
24234,76.0,25,17,7.0,116.0
24235,78.0,0,17,7.0,116.0
24236,52.0,15,40,8.0,115.0
24237,76.0,18,60,7.0,116.0
24238,81.0,38,120,7.0,117.0
24239,49.0,24,40,8.0,115.0
24240,52.0,7,40,8.0,116.0
24241,74.0,35,60,7.0,115.0
24242,49.0,38,40,8.0,113.0
24243,45.0,24,25,8.0,111.0
24244,73.0,18,60,7.0,113.0
24245,30.0,36,25,8.0,112.0
24246,42.0,3,25,8.0,113.0
24247,76.0,0,45,7.0,113.0
24248,45.0,30,40,8.0,112.0
24249,57.0,17,60,7.0,112.0
24250,50.0,23,40,8.0,110.0
24251,42.0,3,120,13.0,49.0
24252,30.0,5,120,14.0,49.0
24253,57.0,3,40,8.0,107.0
24254,69.0,37,60,7.0,109.0
24255,54.0,26,40,8.0,107.0
24256,66.0,17,60,7.0,106.0
24257,50.0,24,40,8.0,106.0
24258,54.0,6,40,8.0,103.0
24259,64.0,34,60,7.0,104.0
24260,74.0,14,165,7.0,109.0
24261,50.0,42,40,8.0,102.0
24262,45.0,22,25,8.0,103.0
24263,73.0,1,60,7.0,103.0
24264,43.0,0,25,8.0,100.0
24265,31.0,3,25,8.0,100.0
24266,62.0,13,120,7.0,102.0
24267,70.0,0,60,7.0,100.0
24268,47.0,33,25,8.0,96.0
24269,54.0,23,25,8.0,94.0
24270,63.0,3,60,7.0,95.0
24271,31.0,5,120,14.0,49.0
24272,59.0,3,25,8.0,93.0
24273,71.0,13,105,7.0,95.0
24274,64.0,36,60,7.0,92.0
24275,55.0,41,25,8.0,88.0
24276,52.0,25,25,8.0,85.0
24277,69.0,2,60,7.0,85.0
24278,55.0,6,25,8.0,88.0
24279,67.0,32,60,7.0,85.0
24280,59.0,14,120,7.0,86.0
24281,52.0,41,25,8.0,85.0
24282,64.0,14,45,7.0,82.0
24283,47.0,27,25,8.0,79.0
24284,55.0,0,60,7.0,84.0
24285,59.0,38,360,10.0,100.0
24286,55.0,4,360,12.0,100.0
24287,43.0,1,360,13.0,100.0
24288,33.0,4,25,8.0,76.0
24289,55.0,34,60,7.0,84.0
24290,64.0,2,60,7.0,85.0
24291,45.0,31,25,8.0,74.0
24292,49.0,22,25,8.0,70.0
24293,54.0,15,60,7.0,79.0
24294,62.0,2,60,7.0,80.0
24295,33.0,5,120,14.0,49.0
24296,50.0,41,25,8.0,65.0
24297,45.0,38,25,8.0,68.0
24298,62.0,16,45,7.0,71.0
24299,54.0,0,45,7.0,71.0
24300,57.0,6,44,4.0,112.0
24301,33.0,21,25,8.0,66.0
24302,64.0,10,25,7.0,70.0
24303,54.0,1,240,12.0,100.0
24304,45.0,1,240,13.0,100.0
24305,64.0,2,44,4.0,112.0
24306,62.0,1,60,7.0,72.0
24307,33.0,30,25,8.0,65.0
24308,31.0,18,25,8.0,65.0
24309,43.0,1,105,8.0,66.0
24310,57.0,6,44,4.0,112.0
24311,61.0,15,60,7.0,71.0
24312,52.0,25,120,7.0,70.0
24313,52.0,3,120,12.0,100.0
24314,43.0,1,120,13.0,100.0
24315,31.0,5,120,14.0,49.0
24316,29.0,1,40,8.0,70.0
24317,41.0,17,40,8.0,68.0
24318,57.0,36,120,7.0,82.0
24319,57.0,0,480,10.0,100.0
24320,45.0,39,40,8.0,75.0
24321,50.0,3,120,12.0,100.0
24322,29.0,5,120,14.0,49.0
24323,69.0,14,120,7.0,82.0
24324,50.0,43,40,8.0,76.0
24325,53.0,39,40,8.0,82.0
24326,57.0,37,40,8.0,84.0
24327,69.0,40,25,7.0,88.0
24328,62.0,38,40,7.0,93.0
24329,74.0,40,25,7.0,93.0
24330,29.0,4,40,8.0,82.0
24331,41.0,20,40,8.0,84.0
24332,63.0,38,120,7.0,95.0
24333,69.0,5,480,4.0,112.0
24334,48.0,42,40,8.0,88.0
24335,75.0,21,120,7.0,100.0
24336,53.0,37,40,8.0,92.0
24337,57.0,42,40,8.0,97.0
24338,60.0,39,40,8.0,95.0
24339,69.0,35,25,7.0,98.0
24340,63.0,41,40,7.0,104.0
24341,75.0,43,25,7.0,106.0
24342,41.0,7,0,13.0,100.0
24343,29.0,36,35,8.0,91.0
24344,41.0,1,35,8.0,92.0
24345,62.0,2,60,7.0,112.0
24346,70.0,14,60,7.0,113.0
24347,50.0,11,35,8.0,91.0
24348,77.0,16,60,7.0,117.0
24349,74.0,9,60,7.0,117.0
24350,53.0,29,35,8.0,100.0
24351,65.0,5,35,8.0,100.0
24352,86.0,31,60,7.0,117.0
24353,58.0,46,35,8.0,100.0
24354,82.0,13,60,7.0,117.0
24355,53.0,27,35,8.0,101.0
24356,62.0,6,35,8.0,99.0
24357,81.0,30,60,7.0,117.0
24358,58.0,42,35,8.0,101.0
24359,79.0,11,60,7.0,117.0
24360,53.0,28,35,8.0,100.0
24361,41.0,6,35,8.0,100.0
24362,54.0,3,35,8.0,100.0
24363,74.0,38,40,7.0,111.0
24364,57.0,5,35,8.0,100.0
24365,75.0,37,40,7.0,111.0
24366,71.0,34,40,7.0,111.0
24367,63.0,5,35,8.0,100.0
24368,57.0,4,35,8.0,100.0
24369,72.0,36,40,7.0,112.0
24370,77.0,32,225,7.0,120.0
24371,69.0,32,40,7.0,111.0
24372,53.0,8,35,8.0,100.0
24373,57.0,3,35,8.0,101.0
24374,67.0,33,60,7.0,111.0
24375,53.0,45,35,8.0,100.0
24376,65.0,11,60,7.0,111.0
24377,48.0,26,35,8.0,100.0
24378,41.0,5,35,8.0,99.0
24379,75.0,2,180,7.0,118.0
24380,50.0,43,35,8.0,99.0
24381,74.0,10,45,7.0,117.0
24382,53.0,30,35,8.0,99.0
24383,58.0,2,35,8.0,99.0
24384,72.0,32,45,7.0,113.0
24385,70.0,12,2,7.0,109.0
24386,54.0,44,35,8.0,97.0
24387,74.0,1,45,7.0,116.0
24388,50.0,25,35,8.0,103.0
24389,69.0,0,40,7.0,107.0
24390,53.0,5,35,8.0,103.0
24391,67.0,35,40,7.0,106.0
24392,48.0,8,35,8.0,101.0
24393,41.0,4,35,8.0,102.0
24394,69.0,33,40,7.0,103.0
24395,29.0,4,40,8.0,102.0
24396,75.0,35,180,7.0,112.0
24397,50.0,47,40,8.0,101.0
24398,74.0,11,45,7.0,109.0
24399,53.0,25,40,8.0,96.0
24400,73.0,36,45,7.0,109.0
24401,58.0,5,40,8.0,95.0
24402,70.0,33,180,7.0,87.0
24403,53.0,43,40,8.0,92.0
24404,70.0,2,60,7.0,93.0
24405,50.0,24,40,8.0,92.0
24406,53.0,4,40,8.0,92.0
24407,74.0,11,105,7.0,106.0
24408,69.0,35,60,7.0,87.0
24409,50.0,44,40,8.0,92.0
24410,46.0,29,25,8.0,91.0
24411,74.0,9,60,7.0,100.0
24412,41.0,6,40,8.0,91.0
24413,70.0,1,120,7.0,87.0
24414,73.0,31,60,7.0,99.0
24415,45.0,41,40,8.0,91.0
24416,69.0,13,60,7.0,82.0
24417,50.0,27,40,8.0,86.0
24418,57.0,6,40,8.0,84.0
24419,68.0,31,60,7.0,80.0
24420,50.0,41,40,8.0,84.0
24421,45.0,26,40,8.0,84.0
24422,50.0,37,40,8.0,84.0
24423,74.0,12,1,7.0,101.0
24424,45.0,44,40,8.0,84.0
24425,41.0,28,25,8.0,84.0
24426,40.0,5,40,8.0,79.0
24427,73.0,32,60,7.0,92.0
24428,69.0,14,3,7.0,72.0
24429,47.0,37,40,8.0,80.0
24430,52.0,27,40,8.0,79.0
24431,59.0,2,40,8.0,78.0
24432,67.0,30,60,7.0,68.0
24433,52.0,42,40,8.0,73.0
24434,64.0,1,120,10.0,83.0
24435,64.0,3,120,6.0,82.0
24436,47.0,29,40,8.0,77.0
24437,52.0,0,40,8.0,73.0
24438,74.0,11,2,7.0,87.0
24439,47.0,46,40,8.0,72.0
24440,40.0,27,25,8.0,72.0
24441,76.0,32,120,10.0,81.0
24442,76.0,3,120,6.0,81.0
24443,40.0,2,360,13.0,100.0
24444,33.0,3,40,8.0,65.0
24445,68.0,12,240,7.0,66.0
24446,72.0,33,60,7.0,85.0
24447,45.0,33,40,8.0,70.0
24448,64.0,0,120,10.0,81.0
24449,69.0,1,60,7.0,64.0
24450,33.0,22,40,8.0,62.0
24451,64.0,3,120,6.0,80.0
24452,45.0,2,120,13.0,100.0
24453,33.0,5,120,14.0,49.0
24454,45.0,2,40,8.0,70.0
24455,66.0,36,60,7.0,63.0
24456,73.0,13,120,7.0,84.0
24457,33.0,43,40,8.0,61.0
24458,74.0,2,120,10.0,80.0
24459,73.0,3,60,7.0,84.0
24460,74.0,1,120,6.0,79.0
24461,45.0,23,40,8.0,70.0
24462,33.0,2,40,8.0,61.0
24463,67.0,13,120,7.0,62.0
24464,70.0,0,60,7.0,84.0
24465,45.0,42,40,8.0,70.0
24466,62.0,35,120,10.0,80.0
24467,68.0,0,60,7.0,61.0
24468,71.0,1,1,7.0,57.0
24469,62.0,1,120,6.0,79.0
24470,33.0,24,40,8.0,61.0
24471,45.0,0,40,8.0,70.0
24472,64.0,34,60,7.0,60.0
24473,33.0,40,40,8.0,59.0
24474,71.0,16,60,7.0,79.0
24475,73.0,1,120,10.0,79.0
24476,73.0,3,120,6.0,79.0
24477,45.0,24,40,8.0,70.0
24478,33.0,1,40,8.0,60.0
24479,66.0,18,0,7.0,61.0
24480,68.0,1,60,7.0,82.0
24481,45.0,40,40,8.0,68.0
24482,61.0,35,120,10.0,77.0
24483,61.0,1,120,6.0,78.0
24484,33.0,21,40,8.0,55.0
24485,45.0,2,40,8.0,65.0
24486,69.0,1,120,7.0,79.0
24487,62.0,2,60,7.0,59.0
24488,33.0,41,40,8.0,60.0
24489,45.0,23,25,8.0,65.0
24490,71.0,37,120,10.0,77.0
24491,64.0,4,60,7.0,59.0
24492,71.0,1,120,6.0,78.0
24493,33.0,0,40,8.0,56.0
24494,45.0,39,40,8.0,65.0
24495,67.0,12,180,7.0,80.0
24496,59.0,1,120,10.0,77.0
24497,33.0,41,40,8.0,56.0
24498,59.0,3,120,6.0,77.0
24499,45.0,3,40,8.0,65.0
24500,33.0,39,40,8.0,54.0
24501,61.0,34,240,7.0,60.0
24502,69.0,2,120,10.0,76.0
24503,45.0,37,40,8.0,65.0
24504,69.0,3,120,6.0,76.0
24505,33.0,3,40,8.0,51.0
24506,45.0,39,40,8.0,65.0
24507,62.0,36,120,7.0,56.0
24508,57.0,2,120,10.0,76.0
24509,57.0,3,120,6.0,76.0
24510,33.0,38,40,8.0,51.0
24511,45.0,2,40,8.0,62.0
24512,33.0,39,40,8.0,50.0
24513,66.0,35,360,7.0,79.0
24514,45.0,39,40,8.0,63.0
24515,33.0,4,40,8.0,51.0
24516,45.0,36,40,8.0,63.0
24517,59.0,0,240,7.0,53.0
24518,33.0,41,40,8.0,48.0
24519,45.0,3,40,8.0,61.0
24520,33.0,43,40,8.0,48.0
24521,61.0,36,105,7.0,52.0
24522,67.0,37,360,10.0,76.0
24523,64.0,39,240,7.0,73.0
24524,45.0,37,40,8.0,61.0
24525,67.0,3,360,6.0,75.0
24526,57.0,1,40,7.0,56.0
24527,38.0,2,40,8.0,51.0
24528,66.0,28,40,7.0,57.0
24529,45.0,2,40,8.0,59.0
24530,57.0,21,36,4.0,114.0
24531,66.0,38,120,10.0,73.0
24532,69.0,18,40,7.0,57.0
24533,66.0,2,120,6.0,73.0
24534,54.0,5,40,8.0,59.0
24535,38.0,3,120,13.0,49.0
24536,38.0,5,120,14.0,49.0
24537,57.0,31,40,7.0,59.0
24538,38.0,4,40,8.0,55.0
24539,62.0,39,40,7.0,57.0
24540,45.0,4,40,8.0,57.0
24541,65.0,35,40,7.0,57.0
24542,53.0,4,40,8.0,55.0
24543,57.0,34,40,7.0,59.0
24544,38.0,6,40,8.0,55.0
24545,62.0,37,40,7.0,55.0
24546,45.0,4,40,8.0,57.0
24547,66.0,35,40,7.0,55.0
24548,54.0,1,40,8.0,55.0
24549,57.0,36,40,7.0,59.0
24550,38.0,4,40,8.0,55.0
24551,62.0,39,40,7.0,55.0
24552,45.0,5,40,8.0,56.0
24553,67.0,34,40,7.0,55.0
24554,52.0,2,40,8.0,55.0
24555,57.0,35,40,7.0,57.0
24556,38.0,9,40,8.0,51.0
24557,62.0,2,405,4.0,114.0
24558,67.0,33,40,7.0,55.0
24559,45.0,3,40,8.0,55.0
24560,57.0,21,44,4.0,114.0
24561,71.0,15,40,7.0,55.0
24562,52.0,7,40,8.0,55.0
24563,61.0,33,40,7.0,55.0
24564,38.0,5,40,8.0,51.0
24565,64.0,0,44,4.0,114.0
24566,67.0,35,40,7.0,55.0
24567,45.0,6,40,8.0,55.0
24568,57.0,19,44,4.0,114.0
24569,73.0,18,40,7.0,55.0
24570,52.0,4,40,8.0,55.0
24571,62.0,3,36,4.0,114.0
24572,62.0,35,40,7.0,55.0
24573,38.0,0,40,8.0,51.0
24574,66.0,35,40,7.0,55.0
24575,45.0,8,40,8.0,55.0
24576,57.0,17,36,4.0,114.0
24577,74.0,15,40,7.0,55.0
24578,54.0,4,40,8.0,55.0
24579,66.0,30,40,7.0,56.0
24580,38.0,7,40,8.0,51.0
24581,74.0,35,40,7.0,55.0
24582,45.0,5,40,8.0,55.0
24583,78.0,35,40,7.0,55.0
24584,54.0,4,40,8.0,55.0
24585,69.0,38,40,7.0,57.0
24586,38.0,1,40,8.0,51.0
24587,78.0,39,40,7.0,55.0
24588,45.0,3,40,8.0,55.0
24589,81.0,38,40,7.0,55.0
24590,54.0,3,40,8.0,55.0
24591,67.0,37,40,7.0,56.0
24592,38.0,1,40,8.0,55.0
24593,73.0,39,40,7.0,56.0
24594,45.0,3,40,8.0,56.0
24595,79.0,33,40,7.0,56.0
24596,52.0,4,40,8.0,55.0
24597,64.0,38,40,7.0,57.0
24598,38.0,4,40,8.0,55.0
24599,62.0,4,405,4.0,114.0
24600,73.0,39,40,7.0,56.0
24601,45.0,3,40,8.0,55.0
24602,57.0,18,44,4.0,114.0
24603,76.0,16,40,7.0,55.0
24604,55.0,4,40,8.0,55.0
24605,61.0,38,40,7.0,59.0
24606,38.0,3,40,8.0,51.0
24607,64.0,2,44,4.0,114.0
24608,67.0,33,40,7.0,56.0
24609,45.0,4,40,8.0,55.0
24610,57.0,20,44,4.0,114.0
24611,73.0,18,40,7.0,55.0
24612,52.0,3,40,8.0,55.0
24613,60.0,33,40,7.0,59.0
24614,62.0,6,36,4.0,114.0
24615,38.0,2,40,8.0,55.0
24616,66.0,36,40,7.0,56.0
24617,45.0,4,40,8.0,56.0
24618,57.0,18,36,4.0,114.0
24619,72.0,0,40,7.0,56.0
24620,50.0,18,40,8.0,55.0
24621,60.0,35,40,7.0,59.0
24622,38.0,5,40,8.0,55.0
24623,66.0,37,40,7.0,55.0
24624,45.0,4,40,8.0,56.0
24625,72.0,33,40,7.0,55.0
24626,50.0,9,40,8.0,56.0
24627,60.0,31,40,7.0,57.0
24628,38.0,9,40,8.0,51.0
24629,66.0,31,40,7.0,55.0
24630,45.0,6,40,8.0,55.0
24631,72.0,38,40,7.0,55.0
24632,50.0,4,40,8.0,55.0
24633,59.0,37,40,7.0,57.0
24634,62.0,2,280,4.0,114.0
24635,38.0,3,40,8.0,51.0
24636,67.0,35,40,7.0,55.0
24637,43.0,3,40,8.0,55.0
24638,55.0,20,36,4.0,114.0
24639,71.0,14,40,7.0,55.0
24640,50.0,8,40,8.0,55.0
24641,59.0,31,40,7.0,56.0
24642,38.0,2,40,8.0,51.0
24643,67.0,36,40,7.0,55.0
24644,43.0,2,40,8.0,55.0
24645,71.0,40,40,7.0,55.0
24646,50.0,3,40,8.0,55.0
24647,59.0,35,40,7.0,55.0
24648,38.0,3,40,8.0,51.0
24649,67.0,40,40,7.0,55.0
24650,43.0,1,40,8.0,55.0
24651,71.0,39,40,7.0,51.0
24652,50.0,2,40,8.0,55.0
24653,57.0,36,40,7.0,57.0
24654,62.0,5,280,4.0,114.0
24655,38.0,5,40,8.0,55.0
24656,62.0,32,40,7.0,55.0
24657,42.0,6,40,8.0,55.0
24658,50.0,20,36,4.0,114.0
24659,69.0,16,40,7.0,55.0
24660,50.0,7,40,8.0,55.0
24661,57.0,26,40,7.0,57.0
24662,38.0,7,40,8.0,51.0
24663,62.0,38,40,7.0,55.0
24664,42.0,4,40,8.0,55.0
24665,69.0,35,40,7.0,55.0
24666,50.0,5,40,8.0,55.0
24667,57.0,33,40,7.0,55.0
24668,38.0,3,40,8.0,51.0
24669,62.0,41,40,7.0,55.0
24670,42.0,4,40,8.0,55.0
24671,69.0,36,40,7.0,55.0
24672,50.0,1,40,8.0,55.0
24673,62.0,39,40,7.0,56.0
24674,45.0,2,40,8.0,51.0
24675,66.0,36,40,7.0,55.0
24676,50.0,6,40,8.0,55.0
24677,62.0,4,350,4.0,114.0
24678,74.0,35,40,7.0,51.0
24679,57.0,5,40,8.0,55.0
24680,62.0,35,40,7.0,55.0
24681,45.0,0,40,8.0,49.0
24682,66.0,36,40,7.0,51.0
24683,50.0,4,40,8.0,51.0
24684,74.0,38,40,7.0,55.0
24685,57.0,5,40,8.0,55.0
24686,62.0,36,40,7.0,55.0
24687,45.0,0,40,8.0,51.0
24688,66.0,37,40,7.0,51.0
24689,50.0,5,40,8.0,55.0
24690,74.0,35,40,7.0,51.0
24691,50.0,2,240,4.0,105.0
24692,57.0,7,40,8.0,51.0
24693,66.0,0,40,7.0,59.0
24694,50.0,35,40,8.0,59.0
24695,74.0,36,40,7.0,51.0
24696,57.0,3,40,8.0,51.0
24697,45.0,8,60,15.0,43.0
24698,78.0,27,40,7.0,51.0
24699,62.0,5,40,8.0,51.0
24700,66.0,35,40,7.0,57.0
24701,50.0,6,40,8.0,59.0
24702,74.0,34,40,7.0,51.0
24703,57.0,3,40,8.0,51.0
24704,78.0,32,40,7.0,51.0
24705,62.0,5,40,8.0,51.0
24706,50.0,5,120,15.0,43.0
24707,66.0,37,40,7.0,59.0
24708,50.0,7,40,8.0,57.0
24709,74.0,32,40,7.0,51.0
24710,57.0,8,40,8.0,51.0
24711,78.0,30,40,7.0,51.0
24712,62.0,5,40,8.0,51.0
24713,65.0,36,40,7.0,59.0
24714,50.0,9,40,8.0,59.0
24715,74.0,32,40,7.0,55.0
24716,57.0,3,40,8.0,51.0
24717,45.0,9,60,15.0,43.0
24718,77.0,28,40,7.0,51.0
24719,62.0,4,40,8.0,55.0
24720,65.0,37,40,7.0,59.0
24721,50.0,3,40,8.0,59.0
24722,57.0,33,40,8.0,51.0
24723,74.0,0,40,7.0,51.0
24724,77.0,35,40,7.0,51.0
24725,62.0,10,40,8.0,51.0
24726,50.0,6,120,15.0,43.0
24727,65.0,35,40,7.0,59.0
24728,50.0,3,40,8.0,59.0
24729,74.0,34,40,7.0,49.0
24730,57.0,4,40,8.0,49.0
24731,77.0,33,40,7.0,51.0
24732,62.0,6,40,8.0,49.0
24733,64.0,36,40,7.0,56.0
24734,50.0,8,40,8.0,59.0
24735,70.0,37,40,7.0,51.0
24736,55.0,0,40,8.0,49.0
24737,45.0,8,60,15.0,42.0
24738,76.0,25,40,7.0,49.0
24739,62.0,9,40,8.0,49.0
24740,64.0,33,40,7.0,57.0
24741,50.0,4,40,8.0,59.0
24742,70.0,32,40,7.0,51.0
24743,55.0,5,40,8.0,49.0
24744,76.0,33,40,7.0,51.0
24745,62.0,6,40,8.0,48.0
24746,50.0,7,120,15.0,42.0
24747,64.0,33,40,7.0,59.0
24748,50.0,6,40,8.0,55.0
24749,70.0,36,40,7.0,49.0
24750,55.0,6,40,8.0,49.0
24751,76.0,30,40,7.0,49.0
24752,62.0,8,40,8.0,48.0
24753,62.0,38,40,7.0,59.0
24754,50.0,3,40,8.0,55.0
24755,69.0,36,40,7.0,49.0
24756,53.0,4,40,8.0,48.0
24757,45.0,6,60,15.0,42.0
24758,74.0,30,40,7.0,49.0
24759,57.0,4,40,8.0,48.0
24760,62.0,38,40,7.0,57.0
24761,50.0,3,40,8.0,55.0
24762,69.0,32,40,7.0,48.0
24763,53.0,2,40,8.0,46.0
24764,74.0,35,40,7.0,48.0
24765,57.0,5,40,8.0,48.0
24766,50.0,3,120,15.0,40.0
24767,62.0,40,40,7.0,55.0
24768,50.0,1,40,8.0,55.0
24769,53.0,38,40,8.0,48.0
24770,69.0,0,40,7.0,49.0
24771,74.0,39,40,7.0,49.0
24772,57.0,1,40,8.0,46.0
24773,61.0,39,40,7.0,55.0
24774,50.0,6,40,8.0,49.0
24775,67.0,32,40,7.0,49.0
24776,52.0,8,40,8.0,46.0
24777,45.0,4,60,15.0,40.0
24778,73.0,30,40,7.0,48.0
24779,55.0,2,40,8.0,46.0
24780,61.0,37,40,7.0,51.0
24781,50.0,4,40,8.0,49.0
24782,67.0,33,40,7.0,48.0
24783,52.0,3,40,8.0,46.0
24784,73.0,31,40,7.0,49.0
24785,55.0,8,40,8.0,46.0
24786,50.0,5,120,15.0,39.0
24787,61.0,35,40,7.0,51.0
24788,50.0,6,40,8.0,51.0
24789,67.0,36,40,7.0,48.0
24790,52.0,6,40,8.0,44.0
24791,73.0,34,40,7.0,48.0
24792,55.0,4,40,8.0,44.0
24793,58.0,35,40,7.0,49.0
24794,49.0,3,60,8.0,44.0
24795,64.0,39,40,7.0,48.0
24796,45.0,9,60,15.0,37.0
24797,70.0,17,40,7.0,48.0
24798,55.0,10,60,8.0,40.0
24799,58.0,44,40,7.0,48.0
24800,49.0,1,60,8.0,48.0
24801,64.0,32,40,7.0,48.0
24802,70.0,19,40,7.0,48.0
24803,55.0,20,60,8.0,37.0
24804,50.0,6,120,15.0,36.0
24805,58.0,41,40,7.0,48.0
24806,49.0,2,60,8.0,44.0
24807,64.0,35,40,7.0,48.0
24808,70.0,15,40,7.0,48.0
24809,55.0,25,60,8.0,37.0
24810,57.0,43,40,7.0,48.0
24811,48.0,1,60,8.0,39.0
24812,63.0,40,40,7.0,44.0
24813,45.0,9,60,15.0,39.0
24814,69.0,13,40,7.0,46.0
24815,54.0,13,60,8.0,37.0
24816,57.0,43,40,7.0,46.0
24817,48.0,3,60,8.0,40.0
24818,63.0,33,40,7.0,46.0
24819,69.0,12,40,7.0,48.0
24820,54.0,22,60,8.0,34.0
24821,50.0,6,120,15.0,39.0
24822,57.0,42,40,7.0,48.0
24823,48.0,5,60,8.0,40.0
24824,63.0,39,40,7.0,44.0
24825,69.0,13,40,7.0,44.0
24826,54.0,23,60,8.0,37.0
24827,55.0,45,40,7.0,46.0
24828,46.0,1,60,8.0,37.0
24829,62.0,34,40,7.0,46.0
24830,45.0,13,60,15.0,38.0
24831,67.0,16,40,7.0,44.0
24832,50.0,13,60,8.0,35.0
24833,55.0,39,40,7.0,41.0
24834,46.0,2,60,8.0,37.0
24835,62.0,33,40,7.0,44.0
24836,67.0,15,40,7.0,44.0
24837,50.0,19,60,8.0,32.0
24838,50.0,8,120,15.0,36.0
24839,55.0,2,40,7.0,44.0
24840,46.0,44,60,8.0,37.0
24841,62.0,37,40,7.0,44.0
24842,67.0,15,40,7.0,44.0
24843,50.0,26,60,8.0,33.0
24844,55.0,2,40,7.0,41.0
24845,45.0,40,60,8.0,35.0
24846,62.0,36,40,7.0,44.0
24847,45.0,10,60,15.0,36.0
24848,46.0,12,60,8.0,29.0
24849,65.0,21,40,7.0,40.0
24850,55.0,10,40,7.0,41.0
24851,45.0,2,60,8.0,37.0
24852,62.0,37,40,7.0,40.0
24853,50.0,30,120,15.0,36.0
24854,65.0,18,40,7.0,44.0
24855,46.0,23,60,8.0,29.0
24856,55.0,10,40,7.0,38.0
24857,45.0,1,60,8.0,33.0
24858,62.0,38,40,7.0,40.0
24859,45.0,30,120,15.0,35.0
24860,65.0,19,40,7.0,40.0
24861,46.0,22,60,8.0,29.0
24862,56.0,0,40,7.0,37.0
24863,45.0,9,60,8.0,32.0
24864,62.0,43,40,7.0,39.0
24865,50.0,30,120,15.0,36.0
24866,65.0,16,40,7.0,39.0
24867,47.0,21,60,8.0,26.0
24868,56.0,8,40,7.0,38.0
24869,45.0,5,60,8.0,32.0
24870,62.0,39,40,7.0,38.0
24871,45.0,31,120,15.0,36.0
24872,65.0,14,40,7.0,40.0
24873,47.0,22,60,8.0,26.0
24874,56.0,7,40,7.0,37.0
24875,45.0,3,60,8.0,29.0
24876,62.0,40,40,7.0,37.0
24877,50.0,32,120,15.0,36.0
24878,65.0,19,40,7.0,37.0
24879,47.0,19,60,8.0,24.0
24880,38.0,2,3600,4.0,100.0
24881,45.0,1,100,4.0,88.0
24882,45.0,30,120,15.0,35.0
24883,64.0,10,240,7.0,39.0
24884,45.0,2,240,8.0,29.0
24885,49.0,1,240,8.0,28.0
24886,57.0,1,240,7.0,37.0
24887,33.0,129,120,14.0,115.0
24888,37.0,115,120,13.0,115.0
24889,37.0,5,120,14.0,115.0
24890,40.0,115,120,13.0,115.0
24891,40.0,5,120,14.0,115.0
24892,44.0,115,120,13.0,115.0
24893,44.0,5,120,14.0,115.0
24894,45.0,115,120,13.0,115.0
24895,45.0,5,120,14.0,115.0
24896,67.0,106,240,7.0,88.0
24897,58.0,1,240,7.0,92.0
24898,65.0,108,45,7.0,88.0
24899,57.0,3,45,7.0,91.0
24900,64.0,48,45,7.0,87.0
24901,55.0,6,45,7.0,91.0
24902,49.0,12,120,8.0,88.0
24903,64.0,53,60,7.0,91.0
24904,55.0,4,60,7.0,88.0
24905,65.0,48,45,7.0,91.0
24906,57.0,3,45,7.0,88.0
24907,52.0,9,120,8.0,91.0
24908,62.0,53,120,7.0,91.0
24909,53.0,8,120,7.0,88.0
24910,56.0,7,120,8.0,91.0
24911,45.0,126,705,8.0,87.0
24912,57.0,119,225,8.0,92.0
24913,58.0,110,225,7.0,91.0
24914,67.0,2,225,7.0,88.0
24915,33.0,130,120,8.0,88.0
24916,65.0,106,45,7.0,91.0
24917,57.0,7,45,7.0,88.0
24918,64.0,48,45,7.0,91.0
24919,55.0,1,45,7.0,88.0
24920,37.0,9,120,8.0,92.0
24921,64.0,53,60,7.0,92.0
24922,55.0,5,60,7.0,91.0
24923,65.0,46,45,7.0,91.0
24924,57.0,10,45,7.0,92.0
24925,38.0,9,120,8.0,92.0
24926,67.0,50,30,7.0,93.0
24927,58.0,4,30,7.0,92.0
24928,69.0,52,30,7.0,94.0
24929,60.0,5,30,7.0,92.0
24930,33.0,9,120,8.0,93.0
24931,72.0,0,105,7.0,93.0
24932,64.0,54,105,7.0,92.0
24933,44.0,12,105,8.0,92.0
24934,45.0,11,60,8.0,96.0
24935,52.0,56,60,8.0,93.0
24936,56.0,61,60,8.0,96.0
24937,70.0,105,240,7.0,92.0
24938,62.0,4,240,7.0,95.0
24939,57.0,65,60,8.0,101.0
24940,61.0,15,60,8.0,103.0
24941,69.0,44,105,7.0,96.0
24942,62.0,57,45,8.0,101.0
24943,45.0,5,30,8.0,103.0
24944,33.0,4,30,8.0,101.0
24945,38.0,56,30,8.0,103.0
24946,52.0,3,30,8.0,103.0
24947,56.0,56,30,8.0,102.0
24948,42.0,4,30,8.0,101.0
24949,57.0,57,30,8.0,106.0
24950,43.0,2,30,8.0,97.0
24951,79.0,48,225,7.0,102.0
24952,70.0,5,225,7.0,102.0
24953,67.0,2,225,7.0,103.0
24954,73.0,0,225,7.0,102.0
24955,77.0,46,30,7.0,103.0
24956,69.0,3,30,7.0,96.0
24957,49.0,7,30,8.0,99.0
24958,61.0,1,30,8.0,96.0
24959,76.0,47,30,7.0,96.0
24960,67.0,4,30,7.0,99.0
24961,64.0,12,30,8.0,103.0
24962,52.0,0,30,8.0,96.0
24963,76.0,48,60,7.0,96.0
24964,67.0,3,60,7.0,96.0
24965,77.0,50,45,7.0,96.0
24966,69.0,7,45,7.0,96.0
24967,65.0,56,105,7.0,100.0
24968,74.0,1,105,7.0,100.0
24969,74.0,116,30,7.0,102.0
24970,62.0,7,30,7.0,101.0
24971,77.0,52,30,7.0,100.0
24972,65.0,4,30,7.0,102.0
24973,57.0,5,345,8.0,110.0
24974,69.0,0,345,8.0,109.0
24975,81.0,55,30,7.0,100.0
24976,69.0,7,30,7.0,105.0
24977,85.0,46,30,7.0,101.0
24978,73.0,7,30,7.0,102.0
24979,86.0,54,105,7.0,102.0
24980,74.0,9,105,7.0,102.0
24981,62.0,5,345,8.0,113.0
24982,50.0,2,345,8.0,116.0
24983,38.0,122,30,8.0,110.0
24984,26.0,5,30,8.0,109.0
24985,45.0,59,30,8.0,109.0
24986,33.0,0,30,8.0,109.0
24987,49.0,0,30,8.0,110.0
24988,37.0,56,30,8.0,109.0
24989,38.0,63,30,8.0,110.0
24990,84.0,112,345,7.0,122.0
24991,50.0,2,30,8.0,109.0
24992,75.0,2,345,7.0,120.0
24993,72.0,2,345,7.0,120.0
24994,78.0,4,345,7.0,120.0
24995,82.0,47,30,7.0,109.0
24996,70.0,3,30,7.0,110.0
24997,74.0,3,30,7.0,110.0
24998,42.0,4,30,8.0,109.0
24999,54.0,2,30,8.0,110.0
25000,81.0,47,30,7.0,110.0
25001,72.0,2,30,7.0,107.0
25002,69.0,1,30,7.0,109.0
25003,57.0,6,30,8.0,110.0
25004,45.0,1,30,8.0,107.0
25005,81.0,50,60,7.0,110.0
25006,72.0,0,60,7.0,109.0
25007,69.0,5,60,7.0,110.0
25008,74.0,50,45,7.0,110.0
25009,82.0,0,45,7.0,110.0
25010,70.0,4,45,7.0,107.0
25011,79.0,52,105,7.0,109.0
25012,67.0,5,105,7.0,109.0
25013,62.0,5,225,8.0,109.0
25014,50.0,1,225,8.0,110.0
25015,79.0,115,30,7.0,109.0
25016,67.0,9,30,7.0,107.0
25017,58.0,6,30,8.0,107.0
25018,46.0,0,30,8.0,109.0
25019,82.0,49,30,7.0,110.0
25020,70.0,5,30,7.0,110.0
25021,57.0,5,30,8.0,109.0
25022,45.0,2,30,8.0,110.0
25023,86.0,44,30,7.0,110.0
25024,74.0,7,30,7.0,110.0
25025,43.0,1,30,8.0,111.0
25026,55.0,1,30,8.0,111.0
25027,90.0,40,30,7.0,112.0
25028,78.0,9,30,7.0,111.0
25029,46.0,3,30,8.0,110.0
25030,58.0,6,30,8.0,110.0
25031,55.0,2,120,11.0,93.0
25032,43.0,4,120,13.0,93.0
25033,43.0,3,120,14.0,93.0
25034,50.0,8,30,8.0,111.0
25035,62.0,2,30,8.0,110.0
25036,79.0,0,60,7.0,111.0
25037,91.0,46,60,7.0,112.0
25038,66.0,58,30,8.0,111.0
25039,54.0,2,30,8.0,110.0
25040,67.0,51,30,7.0,110.0
25041,79.0,1,30,7.0,110.0
25042,55.0,8,60,8.0,113.0
25043,67.0,4,60,8.0,113.0
25044,82.0,44,30,7.0,113.0
25045,70.0,8,30,7.0,113.0
25046,86.0,51,30,7.0,112.0
25047,74.0,5,30,7.0,113.0
25048,43.0,1,30,8.0,113.0
25049,55.0,2,30,8.0,113.0
25050,78.0,45,30,7.0,113.0
25051,90.0,1,30,7.0,112.0
25052,58.0,10,30,8.0,112.0
25053,46.0,1,30,8.0,113.0
25054,55.0,3,120,11.0,93.0
25055,43.0,6,120,13.0,93.0
25056,43.0,1,120,14.0,93.0
25057,62.0,5,30,8.0,114.0
25058,50.0,1,30,8.0,113.0
25059,91.0,43,60,7.0,114.0
25060,79.0,10,60,7.0,113.0
25061,54.0,56,30,8.0,113.0
25062,66.0,4,30,8.0,113.0
25063,82.0,49,30,7.0,117.0
25064,70.0,0,30,7.0,117.0
25065,55.0,9,60,8.0,113.0
25066,67.0,3,60,8.0,114.0
25067,86.0,44,30,7.0,114.0
25068,74.0,3,30,7.0,117.0
25069,90.0,58,30,7.0,117.0
25070,78.0,2,30,7.0,116.0
25071,46.0,2,30,8.0,117.0
25072,58.0,1,30,8.0,113.0
25073,91.0,41,30,7.0,116.0
25074,79.0,3,30,7.0,116.0
25075,62.0,11,30,8.0,117.0
25076,50.0,3,30,8.0,116.0
25077,58.0,5,120,11.0,93.0
25078,46.0,4,120,13.0,93.0
25079,46.0,2,120,14.0,93.0
25080,54.0,7,30,8.0,118.0
25081,66.0,4,30,8.0,118.0
25082,82.0,47,60,7.0,117.0
25083,94.0,1,60,7.0,118.0
25084,55.0,0,30,8.0,120.0
25085,67.0,60,30,8.0,120.0
25086,82.0,44,30,7.0,118.0
25087,70.0,7,30,7.0,117.0
25088,58.0,0,60,8.0,117.0
25089,70.0,8,60,8.0,117.0
25090,86.0,50,30,7.0,117.0
25091,74.0,4,30,7.0,118.0
25092,90.0,53,30,7.0,118.0
25093,78.0,2,30,7.0,120.0
25094,46.0,4,30,8.0,120.0
25095,58.0,2,30,8.0,117.0
25096,91.0,44,30,7.0,120.0
25097,79.0,6,30,7.0,120.0
25098,50.0,2,30,8.0,120.0
25099,62.0,4,30,8.0,120.0
25100,58.0,1,120,11.0,93.0
25101,46.0,2,120,13.0,93.0
25102,46.0,3,120,14.0,93.0
25103,66.0,9,30,8.0,120.0
25104,54.0,3,30,8.0,118.0
25105,94.0,46,60,7.0,118.0
25106,82.0,3,60,7.0,120.0
25107,55.0,56,30,8.0,120.0
25108,67.0,2,30,8.0,120.0
25109,74.0,49,46,7.0,127.0
25110,79.0,1,46,7.0,127.0
25111,67.0,3,46,7.0,127.0
25112,46.0,2,46,8.0,127.0
25113,58.0,2,46,8.0,127.0
25114,74.0,0,100,11.0,93.0
25115,79.0,1,100,11.0,93.0
25116,82.0,3,345,0.0,93.0
25117,79.0,0,345,0.0,93.0
25118,58.0,0,100,12.0,93.0
25119,62.0,5,100,12.0,93.0
25120,62.0,2,1425,4.0,94.0
25121,50.0,0,1425,4.0,94.0
25122,67.0,0,705,1.0,92.0
25123,70.0,2,705,1.0,92.0
25124,58.0,0,1065,3.0,92.0
25125,55.0,1,1065,3.0,92.0
25126,66.0,103,30,7.0,110.0
25127,54.0,4,30,7.0,111.0
25128,30.0,1,30,8.0,111.0
25129,42.0,3,30,8.0,109.0
25130,69.0,43,30,7.0,101.0
25131,57.0,1,30,7.0,99.0
25132,33.0,10,30,8.0,100.0
25133,45.0,2,30,8.0,101.0
25134,54.0,0,120,3.0,92.0
25135,42.0,1,120,3.0,92.0
25136,50.0,2,120,15.0,93.0
25137,73.0,43,30,7.0,113.0
25138,61.0,4,30,7.0,113.0
25139,49.0,9,30,8.0,110.0
25140,37.0,2,30,8.0,111.0
25141,62.0,48,30,7.0,102.0
25142,74.0,2,30,7.0,100.0
25143,38.0,11,30,8.0,100.0
25144,50.0,1,30,8.0,103.0
25145,78.0,42,30,7.0,113.0
25146,66.0,5,30,7.0,113.0
25147,42.0,10,30,8.0,117.0
25148,54.0,3,30,8.0,113.0
25149,81.0,46,30,7.0,102.0
25150,69.0,2,30,7.0,105.0
25151,62.0,1,330,6.0,115.0
25152,74.0,0,330,6.0,115.0
25153,62.0,0,330,4.0,94.0
25154,50.0,1,330,4.0,94.0
25155,57.0,8,30,8.0,102.0
25156,45.0,0,30,8.0,103.0
25157,86.0,0,340,10.0,93.0
25158,74.0,2,340,10.0,93.0
25159,74.0,0,340,11.0,93.0
25160,57.0,0,340,11.0,93.0
25161,62.0,1,340,11.0,93.0
25162,69.0,1,340,12.0,93.0
25163,62.0,0,340,12.0,93.0
25164,54.0,1,340,13.0,93.0
25165,42.0,1,340,14.0,93.0
25166,85.0,46,30,7.0,117.0
25167,73.0,1,30,7.0,117.0
25168,61.0,1,30,8.0,117.0
25169,49.0,2,30,8.0,117.0
25170,86.0,44,30,7.0,109.0
25171,74.0,3,30,7.0,109.0
25172,50.0,5,30,8.0,109.0
25173,62.0,4,30,8.0,107.0
25174,90.0,44,30,7.0,120.0
25175,78.0,5,30,7.0,120.0
25176,54.0,7,30,8.0,120.0
25177,66.0,1,30,8.0,120.0
25178,69.0,0,210,10.0,93.0
25179,81.0,7,210,10.0,93.0
25180,69.0,1,210,11.0,93.0
25181,69.0,0,210,6.0,115.0
25182,57.0,1,210,6.0,115.0
25183,57.0,0,210,4.0,94.0
25184,45.0,1,210,4.0,94.0
25185,57.0,2,210,12.0,93.0
25186,78.0,114,85,10.0,93.0
25187,78.0,2,85,11.0,93.0
25188,66.0,3,85,12.0,93.0
25189,66.0,1,100,6.0,115.0
25190,54.0,1,100,4.0,94.0
25191,81.0,0,705,0.0,93.0
25192,86.0,1,705,0.0,93.0
25193,42.0,1,340,13.0,93.0
25194,69.0,0,705,1.0,92.0
25195,74.0,0,705,1.0,92.0
25196,30.0,3,340,14.0,93.0
25197,69.0,107,30,7.0,113.0
25198,57.0,5,30,7.0,113.0
25199,33.0,1,30,8.0,112.0
25200,45.0,1,30,8.0,113.0
25201,90.0,1,85,10.0,97.0
25202,73.0,42,30,7.0,96.0
25203,90.0,1,85,11.0,97.0
25204,61.0,3,30,7.0,99.0
25205,78.0,3,85,12.0,97.0
25206,49.0,0,30,8.0,99.0
25207,37.0,11,30,8.0,99.0
25208,78.0,1,100,6.0,121.0
25209,66.0,0,100,6.0,121.0
25210,66.0,0,100,4.0,98.0
25211,54.0,0,100,4.0,98.0
25212,57.0,0,120,3.0,92.0
25213,45.0,2,120,3.0,92.0
25214,45.0,2,120,15.0,93.0
25215,77.0,47,30,7.0,116.0
25216,65.0,1,30,7.0,117.0
25217,41.0,1,30,8.0,113.0
25218,53.0,1,30,8.0,113.0
25219,93.0,1,85,10.0,93.0
25220,93.0,2,85,11.0,93.0
25221,78.0,49,30,7.0,100.0
25222,66.0,1,30,7.0,97.0
25223,81.0,3,85,12.0,93.0
25224,54.0,11,30,8.0,101.0
25225,42.0,1,30,8.0,99.0
25226,81.0,1,100,6.0,115.0
25227,69.0,0,100,6.0,115.0
25228,69.0,1,100,4.0,94.0
25229,57.0,0,100,4.0,94.0
25230,81.0,43,30,7.0,114.0
25231,69.0,4,30,7.0,117.0
25232,45.0,11,30,8.0,117.0
25233,57.0,2,30,8.0,117.0
25234,73.0,47,30,7.0,99.0
25235,85.0,1,30,7.0,100.0
25236,49.0,8,30,8.0,100.0
25237,61.0,4,30,8.0,99.0
25238,57.0,1,340,13.0,93.0
25239,45.0,1,340,14.0,93.0
25240,89.0,43,30,7.0,117.0
25241,77.0,7,30,7.0,118.0
25242,65.0,0,30,8.0,117.0
25243,53.0,2,30,8.0,117.0
25244,90.0,44,30,7.0,103.0
25245,78.0,1,30,7.0,103.0
25246,54.0,8,30,8.0,106.0
25247,66.0,1,30,8.0,102.0
25248,93.0,49,30,7.0,120.0
25249,81.0,2,30,7.0,120.0
25250,69.0,11,30,8.0,120.0
25251,57.0,2,30,8.0,120.0
25252,78.0,1,585,0.0,93.0
25253,85.0,0,585,0.0,93.0
25254,66.0,0,585,1.0,92.0
25255,73.0,1,585,1.0,92.0
25256,81.0,109,30,10.0,93.0
25257,81.0,1,30,0.0,93.0
25258,69.0,1,30,11.0,93.0
25259,69.0,2,30,1.0,92.0
25260,82.0,56,30,10.0,93.0
25261,82.0,1,30,0.0,93.0
25262,70.0,1,30,11.0,93.0
25263,70.0,2,30,1.0,92.0
25264,45.0,7,340,13.0,93.0
25265,66.0,1,1425,2.0,91.0
25266,78.0,0,1425,2.0,91.0
25267,33.0,3,340,14.0,93.0
25268,84.0,0,23,10.0,86.0
25269,72.0,1,23,11.0,86.0
25270,86.0,6,23,10.0,86.0
25271,74.0,2,23,11.0,86.0
25272,84.0,18,23,10.0,86.0
25273,72.0,2,23,11.0,86.0
25274,86.0,16,25,10.0,86.0
25275,74.0,2,25,11.0,86.0
25276,84.0,18,25,10.0,86.0
25277,72.0,2,25,11.0,86.0
25278,86.0,18,25,10.0,86.0
25279,74.0,2,25,11.0,86.0
25280,84.0,16,25,10.0,86.0
25281,72.0,2,25,11.0,86.0
25282,86.0,18,25,10.0,86.0
25283,74.0,2,25,11.0,86.0
25284,84.0,16,25,10.0,86.0
25285,72.0,2,25,11.0,86.0
25286,86.0,18,25,10.0,86.0
25287,74.0,2,25,11.0,86.0
25288,84.0,18,25,10.0,86.0
25289,72.0,2,25,11.0,86.0
25290,86.0,16,25,10.0,86.0
25291,72.0,52,240,7.0,117.0
25292,74.0,2,25,11.0,86.0
25293,63.0,4,240,7.0,117.0
25294,72.0,0,240,6.0,115.0
25295,60.0,0,240,7.0,117.0
25296,69.0,0,240,7.0,117.0
25297,69.0,1,240,6.0,115.0
25298,57.0,0,240,8.0,117.0
25299,51.0,3,240,8.0,117.0
25300,48.0,0,240,8.0,117.0
25301,42.0,2,240,8.0,117.0
25302,84.0,18,25,10.0,86.0
25303,72.0,2,25,11.0,86.0
25304,86.0,0,25,10.0,86.0
25305,74.0,2,25,11.0,86.0
25306,57.0,15,30,12.0,93.0
25307,45.0,1,30,13.0,93.0
25308,33.0,3,30,14.0,93.0
25309,84.0,15,25,10.0,86.0
25310,72.0,2,25,11.0,86.0
25311,82.0,30,30,10.0,93.0
25312,70.0,2,30,11.0,93.0
25313,58.0,5,30,12.0,93.0
25314,46.0,1,30,13.0,93.0
25315,34.0,5,30,14.0,93.0
25316,84.0,17,30,10.0,93.0
25317,72.0,2,30,11.0,93.0
25318,60.0,5,23,12.0,86.0
25319,48.0,1,23,13.0,86.0
25320,36.0,3,23,14.0,93.0
25321,62.0,15,23,12.0,86.0
25322,50.0,1,23,13.0,86.0
25323,38.0,4,23,14.0,93.0
25324,60.0,15,23,12.0,86.0
25325,48.0,1,23,13.0,86.0
25326,36.0,6,23,14.0,93.0
25327,62.0,12,25,12.0,86.0
25328,82.0,28,90,10.0,93.0
25329,50.0,1,25,13.0,86.0
25330,70.0,2,90,11.0,93.0
25331,38.0,6,23,14.0,93.0
25332,60.0,13,25,12.0,86.0
25333,48.0,1,25,13.0,86.0
25334,36.0,9,23,14.0,93.0
25335,62.0,10,25,12.0,86.0
25336,50.0,1,25,13.0,86.0
25337,38.0,5,23,14.0,93.0
25338,60.0,2,25,12.0,86.0
25339,48.0,1,25,13.0,86.0
25340,36.0,9,23,14.0,93.0
25341,62.0,10,25,12.0,86.0
25342,50.0,1,25,13.0,86.0
25343,38.0,7,23,14.0,93.0
25344,60.0,11,25,12.0,86.0
25345,48.0,1,25,13.0,86.0
25346,36.0,7,23,14.0,93.0
25347,81.0,9,80,10.0,93.0
25348,69.0,2,80,11.0,93.0
25349,62.0,12,25,12.0,86.0
25350,50.0,1,25,13.0,86.0
25351,38.0,7,23,14.0,93.0
25352,60.0,12,25,12.0,86.0
25353,48.0,1,25,13.0,86.0
25354,36.0,11,23,14.0,93.0
25355,62.0,7,25,12.0,86.0
25356,50.0,1,25,13.0,86.0
25357,38.0,8,23,14.0,93.0
25358,60.0,2,25,12.0,86.0
25359,48.0,1,25,13.0,86.0
25360,36.0,8,23,14.0,93.0
25361,62.0,10,25,12.0,86.0
25362,50.0,1,25,13.0,86.0
25363,38.0,11,23,14.0,93.0
25364,60.0,8,25,12.0,86.0
25365,48.0,1,25,13.0,86.0
25366,36.0,12,23,14.0,93.0
25367,87.0,9,80,10.0,121.0
25368,75.0,0,80,11.0,121.0
25369,58.0,13,30,12.0,93.0
25370,46.0,1,30,13.0,93.0
25371,34.0,5,30,14.0,93.0
25372,84.0,0,705,0.0,93.0
25373,75.0,1,705,0.0,93.0
25374,72.0,1,705,1.0,92.0
25375,63.0,0,705,1.0,92.0
25376,81.0,0,705,2.0,91.0
25377,69.0,2,705,2.0,91.0
25378,60.0,24,30,12.0,93.0
25379,48.0,1,30,13.0,93.0
25380,36.0,5,30,14.0,93.0
25381,86.0,17,80,10.0,108.0
25382,74.0,1,80,11.0,108.0
25383,58.0,1,80,12.0,93.0
25384,46.0,1,80,13.0,93.0
25385,34.0,5,80,14.0,93.0
25386,84.0,1,120,0.0,93.0
25387,74.0,0,120,0.0,93.0
25388,72.0,0,120,1.0,92.0
25389,62.0,2,120,1.0,92.0
25390,57.0,114,80,12.0,93.0
25391,45.0,1,80,13.0,93.0
25392,33.0,5,80,14.0,93.0
25393,57.0,0,960,4.0,94.0
25394,60.0,0,960,4.0,94.0
25395,81.0,2,240,2.0,91.0
25396,74.0,0,240,2.0,91.0
25397,42.0,0,960,3.0,92.0
25398,54.0,1,960,3.0,92.0
25399,81.0,107,30,10.0,93.0
25400,81.0,1,30,0.0,93.0
25401,69.0,1,30,11.0,93.0
25402,69.0,2,30,1.0,92.0
25403,63.0,3,80,12.0,93.0
25404,51.0,1,80,13.0,93.0
25405,82.0,47,30,10.0,93.0
25406,82.0,1,30,0.0,93.0
25407,70.0,1,30,11.0,93.0
25408,39.0,5,80,14.0,93.0
25409,70.0,2,30,1.0,92.0
25410,84.0,1,23,10.0,86.0
25411,72.0,1,23,11.0,86.0
25412,86.0,5,23,10.0,86.0
25413,74.0,2,23,11.0,86.0
25414,84.0,18,23,10.0,86.0
25415,72.0,2,23,11.0,86.0
25416,86.0,16,25,10.0,86.0
25417,74.0,2,25,11.0,86.0
25418,62.0,0,80,12.0,93.0
25419,50.0,1,80,13.0,93.0
25420,38.0,1,80,14.0,93.0
25421,84.0,18,25,10.0,86.0
25422,72.0,2,25,11.0,86.0
25423,86.0,18,25,10.0,86.0
25424,74.0,2,25,11.0,86.0
25425,84.0,16,25,10.0,86.0
25426,72.0,2,25,11.0,86.0
25427,86.0,18,25,10.0,86.0
25428,74.0,2,25,11.0,86.0
25429,84.0,16,25,10.0,86.0
25430,72.0,2,25,11.0,86.0
25431,86.0,18,25,10.0,86.0
25432,74.0,2,25,11.0,86.0
25433,84.0,18,25,10.0,86.0
25434,72.0,2,25,11.0,86.0
25435,86.0,16,25,10.0,86.0
25436,74.0,2,25,11.0,86.0
25437,72.0,54,240,7.0,117.0
25438,69.0,1,240,7.0,117.0
25439,60.0,1,240,7.0,117.0
25440,63.0,0,240,7.0,117.0
25441,72.0,1,240,6.0,115.0
25442,69.0,0,240,6.0,115.0
25443,48.0,2,240,8.0,117.0
25444,42.0,1,240,8.0,117.0
25445,57.0,1,240,8.0,117.0
25446,51.0,2,240,8.0,117.0
25447,84.0,18,25,10.0,86.0
25448,72.0,2,25,11.0,86.0
25449,86.0,0,25,10.0,86.0
25450,74.0,2,25,11.0,86.0
25451,57.0,15,30,12.0,93.0
25452,45.0,1,30,13.0,93.0
25453,33.0,3,30,14.0,93.0
25454,84.0,15,25,10.0,86.0
25455,72.0,2,25,11.0,86.0
25456,82.0,30,30,10.0,93.0
25457,70.0,2,30,11.0,93.0
25458,58.0,5,30,12.0,93.0
25459,46.0,1,30,13.0,93.0
25460,34.0,5,30,14.0,93.0
25461,84.0,17,30,10.0,93.0
25462,72.0,2,30,11.0,93.0
25463,60.0,5,23,12.0,86.0
25464,48.0,1,23,13.0,86.0
25465,36.0,3,23,14.0,93.0
25466,62.0,15,23,12.0,86.0
25467,50.0,1,23,13.0,86.0
25468,38.0,6,23,14.0,93.0
25469,60.0,13,23,12.0,86.0
25470,48.0,1,23,13.0,86.0
25471,36.0,4,23,14.0,93.0
25472,82.0,28,80,10.0,93.0
25473,70.0,2,80,11.0,93.0
25474,62.0,14,25,12.0,86.0
25475,50.0,1,25,13.0,86.0
25476,38.0,8,23,14.0,93.0
25477,60.0,11,25,12.0,86.0
25478,48.0,1,25,13.0,86.0
25479,36.0,7,23,14.0,93.0
25480,62.0,12,25,12.0,86.0
25481,50.0,1,25,13.0,86.0
25482,38.0,9,23,14.0,93.0
25483,60.0,2,25,12.0,86.0
25484,48.0,1,25,13.0,86.0
25485,36.0,10,23,14.0,93.0
25486,62.0,9,25,12.0,86.0
25487,50.0,1,25,13.0,86.0
25488,38.0,8,23,14.0,93.0
25489,60.0,10,25,12.0,86.0
25490,48.0,1,25,13.0,86.0
25491,36.0,9,23,14.0,93.0
25492,81.0,5,80,10.0,93.0
25493,69.0,2,80,11.0,93.0
25494,62.0,10,25,12.0,86.0
25495,50.0,1,25,13.0,86.0
25496,38.0,11,23,14.0,93.0
25497,60.0,8,25,12.0,86.0
25498,48.0,1,25,13.0,86.0
25499,36.0,10,23,14.0,93.0
25500,62.0,8,25,12.0,86.0
25501,50.0,1,25,13.0,86.0
25502,38.0,12,23,14.0,93.0
25503,60.0,0,25,12.0,86.0
25504,48.0,1,25,13.0,86.0
25505,36.0,11,23,14.0,93.0
25506,62.0,7,25,12.0,86.0
25507,50.0,1,25,13.0,86.0
25508,38.0,10,23,14.0,93.0
25509,60.0,9,25,12.0,86.0
25510,48.0,1,25,13.0,86.0
25511,36.0,13,23,14.0,93.0
25512,91.0,5,80,10.0,113.0
25513,79.0,2,80,11.0,113.0
25514,58.0,12,30,12.0,93.0
25515,46.0,1,30,13.0,93.0
25516,34.0,5,30,14.0,93.0
25517,75.0,0,705,0.0,93.0
25518,84.0,0,705,0.0,93.0
25519,72.0,0,705,1.0,92.0
25520,63.0,0,705,1.0,92.0
25521,81.0,0,705,2.0,91.0
25522,75.0,0,705,2.0,91.0
25523,60.0,24,30,12.0,93.0
25524,48.0,1,30,13.0,93.0
25525,36.0,5,30,14.0,93.0
25526,90.0,17,80,10.0,108.0
25527,78.0,1,80,11.0,108.0
25528,58.0,1,80,12.0,93.0
25529,46.0,1,80,13.0,93.0
25530,34.0,5,80,14.0,93.0
25531,84.0,0,120,0.0,93.0
25532,74.0,1,120,0.0,93.0
25533,62.0,0,120,1.0,92.0
25534,72.0,2,120,1.0,92.0
25535,60.0,1,840,4.0,94.0
25536,57.0,0,840,4.0,94.0
25537,74.0,2,120,2.0,91.0
25538,81.0,0,120,2.0,91.0
25539,54.0,0,840,3.0,92.0
25540,42.0,1,840,3.0,92.0
25541,57.0,114,80,12.0,93.0
25542,45.0,1,80,13.0,93.0
25543,33.0,5,80,14.0,93.0
25544,75.0,107,30,10.0,93.0
25545,75.0,1,30,0.0,93.0
25546,51.0,1,30,12.0,93.0
25547,78.0,17,30,10.0,93.0
25548,78.0,1,30,0.0,93.0
25549,81.0,1,60,11.0,110.0
25550,81.0,2,60,1.0,92.0
25551,81.0,2,60,2.0,91.0
25552,69.0,0,60,2.0,91.0
25553,54.0,6,30,12.0,93.0
25554,54.0,1,80,13.0,93.0
25555,79.0,23,30,10.0,93.0
25556,79.0,1,30,0.0,93.0
25557,42.0,1,80,14.0,93.0
25558,55.0,6,30,12.0,93.0
25559,42.0,4,105,3.0,92.0
25560,81.0,23,30,10.0,93.0
25561,81.0,1,30,0.0,93.0
25562,57.0,6,30,12.0,93.0
25563,74.0,1,20,11.0,105.0
25564,82.0,23,23,10.0,116.0
25565,62.0,0,20,12.0,105.0
25566,55.0,1,20,12.0,105.0
25567,84.0,6,23,10.0,110.0
25568,74.0,13,20,11.0,105.0
25569,62.0,5,20,12.0,105.0
25570,55.0,0,20,12.0,105.0
25571,82.0,2,23,10.0,103.0
25572,74.0,4,20,11.0,105.0
25573,84.0,19,26,10.0,96.0
25574,62.0,0,20,12.0,105.0
25575,55.0,5,20,12.0,105.0
25576,82.0,11,26,10.0,96.0
25577,74.0,14,20,11.0,105.0
25578,55.0,5,20,12.0,105.0
25579,62.0,0,20,12.0,105.0
25580,84.0,1,26,10.0,96.0
25581,74.0,5,20,11.0,105.0
25582,82.0,19,26,10.0,96.0
25583,62.0,5,20,12.0,105.0
25584,55.0,0,20,12.0,105.0
25585,84.0,10,26,10.0,96.0
25586,74.0,15,20,11.0,105.0
25587,55.0,1,20,12.0,105.0
25588,62.0,0,20,12.0,105.0
25589,82.0,4,26,10.0,96.0
25590,74.0,6,20,11.0,105.0
25591,84.0,19,26,10.0,96.0
25592,62.0,5,20,12.0,105.0
25593,55.0,0,20,12.0,105.0
25594,82.0,9,26,10.0,96.0
25595,62.0,2,225,2.0,102.0
25596,74.0,0,225,2.0,102.0
25597,74.0,16,20,11.0,105.0
25598,55.0,2,20,12.0,105.0
25599,62.0,0,225,3.0,103.0
25600,62.0,0,20,12.0,105.0
25601,84.0,3,26,10.0,96.0
25602,74.0,1,240,6.0,110.0
25603,62.0,0,240,6.0,110.0
25604,82.0,18,26,10.0,96.0
25605,70.0,7,20,11.0,105.0
25606,58.0,1,20,12.0,105.0
25607,58.0,0,30,2.0,91.0
25608,70.0,4,30,2.0,91.0
25609,84.0,2,26,10.0,96.0
25610,58.0,5,30,3.0,92.0
25611,70.0,18,20,11.0,105.0
25612,58.0,3,20,12.0,105.0
25613,82.0,2,26,10.0,96.0
25614,84.0,17,26,10.0,96.0
25615,67.0,8,20,11.0,105.0
25616,55.0,1,20,12.0,105.0
25617,67.0,4,30,2.0,91.0
25618,55.0,0,30,2.0,91.0
25619,82.0,1,26,10.0,96.0
25620,55.0,5,30,3.0,92.0
25621,82.0,1,345,0.0,93.0
25622,79.0,0,345,0.0,93.0
25623,55.0,1,340,13.0,105.0
25624,74.0,1,345,1.0,92.0
25625,70.0,0,345,1.0,92.0
25626,67.0,19,20,11.0,105.0
25627,43.0,1,340,14.0,105.0
25628,55.0,4,20,12.0,105.0
25629,43.0,4,345,3.0,92.0
25630,84.0,1,26,10.0,96.0
25631,76.0,1,20,11.0,105.0
25632,83.0,23,23,10.0,116.0
25633,56.0,0,20,12.0,105.0
25634,64.0,1,20,12.0,105.0
25635,84.0,6,23,10.0,110.0
25636,76.0,13,20,11.0,105.0
25637,64.0,0,20,12.0,105.0
25638,56.0,5,20,12.0,105.0
25639,83.0,2,23,10.0,103.0
25640,76.0,4,20,11.0,105.0
25641,84.0,19,26,10.0,96.0
25642,56.0,5,20,12.0,105.0
25643,64.0,0,20,12.0,105.0
25644,83.0,11,26,10.0,96.0
25645,76.0,14,20,11.0,105.0
25646,64.0,5,20,12.0,105.0
25647,56.0,0,20,12.0,105.0
25648,84.0,1,26,10.0,96.0
25649,76.0,5,20,11.0,105.0
25650,83.0,19,26,10.0,96.0
25651,64.0,5,20,12.0,105.0
25652,56.0,0,20,12.0,105.0
25653,84.0,10,26,10.0,96.0
25654,76.0,15,20,11.0,105.0
25655,64.0,1,20,12.0,105.0
25656,56.0,0,20,12.0,105.0
25657,83.0,4,26,10.0,96.0
25658,84.0,19,26,10.0,96.0
25659,76.0,6,20,11.0,105.0
25660,64.0,5,20,12.0,105.0
25661,56.0,0,20,12.0,105.0
25662,83.0,9,26,10.0,96.0
25663,64.0,0,225,2.0,102.0
25664,77.0,2,225,2.0,102.0
25665,76.0,16,20,11.0,105.0
25666,64.0,0,20,12.0,105.0
25667,64.0,0,225,3.0,103.0
25668,56.0,2,20,12.0,105.0
25669,84.0,3,26,10.0,96.0
25670,62.0,0,240,6.0,110.0
25671,74.0,1,240,6.0,110.0
25672,83.0,18,26,10.0,96.0
25673,71.0,7,20,11.0,105.0
25674,59.0,1,20,12.0,105.0
25675,59.0,4,30,2.0,91.0
25676,70.0,0,30,2.0,91.0
25677,84.0,2,26,10.0,96.0
25678,59.0,5,30,3.0,92.0
25679,71.0,18,20,11.0,105.0
25680,59.0,3,20,12.0,105.0
25681,83.0,2,26,10.0,96.0
25682,84.0,17,26,10.0,96.0
25683,68.0,8,20,11.0,105.0
25684,56.0,1,20,12.0,105.0
25685,56.0,4,30,2.0,91.0
25686,68.0,0,30,2.0,91.0
25687,83.0,1,26,10.0,96.0
25688,56.0,5,30,3.0,92.0
25689,83.0,1,345,0.0,93.0
25690,80.0,0,345,0.0,93.0
25691,52.0,1,340,13.0,105.0
25692,71.0,0,345,1.0,92.0
25693,76.0,1,345,1.0,92.0
25694,68.0,19,20,11.0,105.0
25695,40.0,1,340,14.0,105.0
25696,56.0,4,20,12.0,105.0
25697,40.0,4,345,3.0,92.0
25698,84.0,1,26,10.0,96.0
25699,77.0,1,20,11.0,105.0
25700,86.0,23,23,10.0,116.0
25701,57.0,0,20,12.0,105.0
25702,65.0,1,20,12.0,105.0
25703,88.0,6,23,10.0,110.0
25704,77.0,13,20,11.0,105.0
25705,65.0,0,20,12.0,105.0
25706,57.0,5,20,12.0,105.0
25707,86.0,2,23,10.0,103.0
25708,77.0,4,20,11.0,105.0
25709,88.0,19,26,10.0,96.0
25710,57.0,5,20,12.0,105.0
25711,65.0,0,20,12.0,105.0
25712,86.0,11,26,10.0,96.0
25713,77.0,14,20,11.0,105.0
25714,65.0,0,20,12.0,105.0
25715,57.0,5,20,12.0,105.0
25716,88.0,1,26,10.0,96.0
25717,77.0,5,20,11.0,105.0
25718,86.0,19,26,10.0,96.0
25719,57.0,5,20,12.0,105.0
25720,65.0,0,20,12.0,105.0
25721,88.0,10,26,10.0,96.0
25722,77.0,15,20,11.0,105.0
25723,57.0,1,20,12.0,105.0
25724,65.0,0,20,12.0,105.0
25725,86.0,4,26,10.0,96.0
25726,88.0,19,26,10.0,96.0
25727,77.0,6,20,11.0,105.0
25728,57.0,5,20,12.0,105.0
25729,65.0,0,20,12.0,105.0
25730,86.0,9,26,10.0,96.0
25731,65.0,0,225,2.0,102.0
25732,77.0,0,225,2.0,102.0
25733,77.0,16,20,11.0,105.0
25734,57.0,0,20,12.0,105.0
25735,65.0,4,225,3.0,103.0
25736,65.0,2,20,12.0,105.0
25737,88.0,3,26,10.0,96.0
25738,62.0,1,240,6.0,110.0
25739,74.0,0,240,6.0,110.0
25740,53.0,2,240,5.0,94.0
25741,65.0,0,240,5.0,94.0
25742,86.0,18,26,10.0,96.0
25743,74.0,7,20,11.0,105.0
25744,62.0,1,20,12.0,105.0
25745,74.0,4,30,2.0,91.0
25746,62.0,0,30,2.0,91.0
25747,88.0,2,26,10.0,96.0
25748,62.0,5,30,3.0,92.0
25749,74.0,18,20,11.0,105.0
25750,62.0,3,20,12.0,105.0
25751,86.0,2,26,10.0,96.0
25752,88.0,17,26,10.0,96.0
25753,69.0,8,20,11.0,105.0
25754,57.0,1,20,12.0,105.0
25755,68.0,0,30,2.0,91.0
25756,57.0,4,30,2.0,91.0
25757,86.0,1,26,10.0,96.0
25758,57.0,5,30,3.0,92.0
25759,86.0,0,345,0.0,93.0
25760,81.0,1,345,0.0,93.0
25761,50.0,1,340,13.0,105.0
25762,77.0,0,345,1.0,92.0
25763,74.0,1,345,1.0,92.0
25764,69.0,19,20,11.0,105.0
25765,38.0,1,340,14.0,105.0
25766,38.0,0,345,3.0,92.0
25767,57.0,4,20,12.0,105.0
25768,88.0,1,26,10.0,96.0
25769,79.0,1,20,11.0,105.0
25770,91.0,23,23,10.0,116.0
25771,67.0,1,20,12.0,105.0
25772,70.0,0,20,12.0,105.0
25773,93.0,6,23,10.0,110.0
25774,79.0,13,20,11.0,105.0
25775,67.0,5,20,12.0,105.0
25776,70.0,0,20,12.0,105.0
25777,91.0,2,23,10.0,103.0
25778,79.0,4,20,11.0,105.0
25779,93.0,19,26,10.0,96.0
25780,70.0,0,20,12.0,105.0
25781,67.0,5,20,12.0,105.0
25782,91.0,11,26,10.0,96.0
25783,79.0,14,20,11.0,105.0
25784,70.0,5,20,12.0,105.0
25785,67.0,0,20,12.0,105.0
25786,93.0,1,26,10.0,96.0
25787,79.0,5,20,11.0,105.0
25788,91.0,19,26,10.0,96.0
25789,67.0,0,20,12.0,105.0
25790,70.0,5,20,12.0,105.0
25791,93.0,10,26,10.0,96.0
25792,79.0,15,20,11.0,105.0
25793,67.0,1,20,12.0,105.0
25794,70.0,0,20,12.0,105.0
25795,91.0,4,26,10.0,96.0
25796,93.0,19,26,10.0,96.0
25797,79.0,6,20,11.0,105.0
25798,67.0,0,20,12.0,105.0
25799,70.0,5,20,12.0,105.0
25800,91.0,9,26,10.0,96.0
25801,67.0,0,225,2.0,102.0
25802,79.0,0,225,2.0,102.0
25803,79.0,16,20,11.0,105.0
25804,70.0,0,20,12.0,105.0
25805,67.0,2,20,12.0,105.0
25806,67.0,0,225,3.0,103.0
25807,93.0,3,26,10.0,96.0
25808,62.0,1,240,6.0,110.0
25809,74.0,0,240,6.0,110.0
25810,58.0,2,240,5.0,94.0
25811,62.0,0,240,5.0,94.0
25812,91.0,18,26,10.0,96.0
25813,74.0,7,20,11.0,105.0
25814,62.0,1,20,12.0,105.0
25815,74.0,4,30,2.0,91.0
25816,62.0,0,30,2.0,91.0
25817,93.0,2,26,10.0,96.0
25818,62.0,5,30,3.0,92.0
25819,74.0,18,20,11.0,105.0
25820,62.0,3,20,12.0,105.0
25821,91.0,2,26,10.0,96.0
25822,93.0,17,26,10.0,96.0
25823,70.0,8,20,11.0,105.0
25824,58.0,1,20,12.0,105.0
25825,58.0,0,30,2.0,91.0
25826,70.0,4,30,2.0,91.0
25827,91.0,1,26,10.0,96.0
25828,58.0,5,30,3.0,92.0
25829,91.0,0,345,0.0,93.0
25830,82.0,1,345,0.0,93.0
25831,46.0,1,340,13.0,105.0
25832,79.0,1,345,1.0,92.0
25833,74.0,0,345,1.0,92.0
25834,70.0,19,20,11.0,105.0
25835,34.0,1,340,14.0,105.0
25836,46.0,4,345,3.0,92.0
25837,58.0,4,20,12.0,105.0
25838,93.0,1,26,10.0,96.0
25839,82.0,1,20,11.0,105.0
25840,94.0,23,23,10.0,116.0
25841,74.0,0,20,12.0,105.0
25842,62.0,1,20,12.0,105.0
25843,96.0,6,23,10.0,110.0
25844,82.0,13,20,11.0,105.0
25845,62.0,0,20,12.0,105.0
25846,74.0,5,20,12.0,105.0
25847,94.0,2,23,10.0,103.0
25848,82.0,4,20,11.0,105.0
25849,96.0,19,26,10.0,96.0
25850,74.0,0,20,12.0,105.0
25851,62.0,5,20,12.0,105.0
25852,94.0,11,26,10.0,96.0
25853,82.0,14,20,11.0,105.0
25854,62.0,5,20,12.0,105.0
25855,74.0,0,20,12.0,105.0
25856,96.0,1,26,10.0,96.0
25857,82.0,5,20,11.0,105.0
25858,94.0,19,26,10.0,96.0
25859,62.0,0,20,12.0,105.0
25860,74.0,5,20,12.0,105.0
25861,96.0,10,26,10.0,96.0
25862,82.0,15,20,11.0,105.0
25863,62.0,1,20,12.0,105.0
25864,74.0,0,20,12.0,105.0
25865,94.0,4,26,10.0,96.0
25866,82.0,6,20,11.0,105.0
25867,96.0,19,26,10.0,96.0
25868,62.0,0,20,12.0,105.0
25869,74.0,5,20,12.0,105.0
25870,94.0,9,26,10.0,96.0
25871,70.0,2,225,2.0,102.0
25872,82.0,16,20,11.0,105.0
25873,58.0,0,225,3.0,103.0
25874,74.0,0,20,12.0,105.0
25875,62.0,2,20,12.0,105.0
25876,96.0,3,26,10.0,96.0
25877,74.0,1,240,6.0,110.0
25878,62.0,0,240,6.0,110.0
25879,58.0,0,240,5.0,94.0
25880,46.0,0,240,5.0,94.0
25881,94.0,18,26,10.0,96.0
25882,79.0,7,20,11.0,105.0
25883,67.0,1,20,12.0,105.0
25884,67.0,4,30,2.0,91.0
25885,96.0,2,26,10.0,96.0
25886,55.0,5,30,3.0,92.0
25887,79.0,18,20,11.0,105.0
25888,67.0,3,20,12.0,105.0
25889,94.0,2,26,10.0,96.0
25890,96.0,17,26,10.0,96.0
25891,74.0,8,20,11.0,105.0
25892,62.0,1,20,12.0,105.0
25893,62.0,4,30,2.0,91.0
25894,94.0,1,26,10.0,96.0
25895,50.0,5,30,3.0,92.0
25896,86.0,1,345,0.0,93.0
25897,94.0,0,345,0.0,93.0
25898,43.0,1,340,13.0,105.0
25899,82.0,1,345,1.0,92.0
25900,79.0,0,345,1.0,92.0
25901,74.0,19,20,11.0,105.0
25902,31.0,1,340,14.0,105.0
25903,62.0,4,20,12.0,105.0
25904,43.0,4,345,3.0,92.0
25905,96.0,1,26,10.0,96.0
25906,83.0,1,20,11.0,105.0
25907,95.0,23,23,10.0,116.0
25908,68.0,1,20,12.0,105.0
25909,80.0,0,20,12.0,105.0
25910,96.0,6,23,10.0,110.0
25911,83.0,13,20,11.0,105.0
25912,68.0,5,20,12.0,105.0
25913,80.0,0,20,12.0,105.0
25914,95.0,2,23,10.0,103.0
25915,83.0,4,20,11.0,105.0
25916,96.0,19,26,10.0,96.0
25917,80.0,5,20,12.0,105.0
25918,68.0,0,20,12.0,105.0
25919,95.0,11,26,10.0,96.0
25920,83.0,14,20,11.0,105.0
25921,80.0,5,20,12.0,105.0
25922,68.0,0,20,12.0,105.0
25923,96.0,1,26,10.0,96.0
25924,83.0,5,20,11.0,105.0
25925,95.0,19,26,10.0,96.0
25926,68.0,5,20,12.0,105.0
25927,80.0,0,20,12.0,105.0
25928,96.0,10,26,10.0,96.0
25929,83.0,15,20,11.0,105.0
25930,68.0,1,20,12.0,105.0
25931,80.0,0,20,12.0,105.0
25932,95.0,4,26,10.0,96.0
25933,83.0,6,20,11.0,105.0
25934,96.0,19,26,10.0,96.0
25935,68.0,5,20,12.0,105.0
25936,80.0,0,20,12.0,105.0
25937,95.0,9,26,10.0,96.0
25938,70.0,2,225,2.0,102.0
25939,83.0,16,20,11.0,105.0
25940,68.0,2,20,12.0,105.0
25941,80.0,0,20,12.0,105.0
25942,59.0,0,225,3.0,103.0
25943,96.0,3,26,10.0,96.0
25944,56.0,0,240,5.0,94.0
25945,95.0,18,26,10.0,96.0
25946,80.0,7,20,11.0,105.0
25947,68.0,1,20,12.0,105.0
25948,68.0,4,30,2.0,91.0
25949,96.0,2,26,10.0,96.0
25950,56.0,5,30,3.0,92.0
25951,80.0,18,20,11.0,105.0
25952,68.0,3,20,12.0,105.0
25953,95.0,2,26,10.0,96.0
25954,96.0,17,26,10.0,96.0
25955,74.0,8,20,11.0,105.0
25956,62.0,1,20,12.0,105.0
25957,62.0,4,30,2.0,91.0
25958,95.0,1,26,10.0,96.0
25959,50.0,5,30,3.0,92.0
25960,62.0,0,2140,4.0,94.0
25961,50.0,0,2140,4.0,94.0
25962,86.0,1,345,0.0,93.0
25963,95.0,0,345,0.0,93.0
25964,40.0,1,340,13.0,105.0
25965,83.0,2,345,1.0,92.0
25966,80.0,0,345,1.0,92.0
25967,74.0,19,20,11.0,105.0
25968,28.0,1,340,14.0,105.0
25969,40.0,4,345,3.0,92.0
25970,62.0,4,20,12.0,105.0
25971,96.0,1,26,10.0,96.0
25972,69.0,23,10,10.0,105.0
25973,93.0,0,10,10.0,105.0
25974,93.0,0,10,10.0,105.0
25975,69.0,2,10,10.0,105.0
25976,69.0,15,10,10.0,105.0
25977,93.0,0,10,10.0,105.0
25978,93.0,0,10,10.0,105.0
25979,69.0,15,10,10.0,105.0
25980,93.0,0,10,10.0,105.0
25981,69.0,15,10,10.0,105.0
25982,69.0,15,10,10.0,105.0
25983,93.0,0,10,10.0,105.0
25984,93.0,0,10,10.0,105.0
25985,69.0,15,10,10.0,105.0
25986,93.0,0,10,10.0,105.0
25987,69.0,15,10,10.0,105.0
25988,93.0,15,10,10.0,105.0
25989,69.0,0,10,10.0,105.0
25990,69.0,15,10,10.0,105.0
25991,93.0,0,10,10.0,105.0
25992,69.0,0,10,10.0,105.0
25993,93.0,15,10,10.0,105.0
25994,93.0,15,10,10.0,105.0
25995,69.0,0,10,10.0,105.0
25996,69.0,0,10,10.0,105.0
25997,93.0,15,10,10.0,105.0
25998,69.0,0,10,10.0,105.0
25999,93.0,15,10,10.0,105.0
26000,74.0,0,210,6.0,110.0
26001,62.0,1,210,6.0,110.0
26002,50.0,0,210,4.0,94.0
26003,62.0,1,210,4.0,94.0
26004,86.0,0,215,0.0,93.0
26005,62.0,0,210,5.0,94.0
26006,93.0,1,215,0.0,93.0
26007,53.0,0,210,13.0,105.0
26008,41.0,1,210,13.0,105.0
26009,74.0,0,215,1.0,92.0
26010,81.0,0,215,1.0,92.0
26011,93.0,0,10,10.0,105.0
26012,69.0,15,10,10.0,105.0
26013,60.0,0,215,2.0,91.0
26014,72.0,2,215,2.0,91.0
26015,29.0,1,210,14.0,105.0
26016,41.0,4,215,3.0,92.0
26017,53.0,0,215,3.0,92.0
26018,93.0,0,10,10.0,105.0
26019,69.0,15,10,10.0,105.0
26020,74.0,1,240,11.0,105.0
26021,86.0,0,240,11.0,105.0
26022,77.0,1,240,12.0,105.0
26023,65.0,0,240,12.0,105.0
26024,93.0,0,10,10.0,105.0
26025,69.0,15,10,10.0,105.0
26026,69.0,0,10,10.0,105.0
26027,93.0,2,10,10.0,105.0
26028,69.0,0,10,10.0,105.0
26029,93.0,15,10,10.0,105.0
26030,93.0,15,10,10.0,105.0
26031,69.0,0,10,10.0,105.0
26032,69.0,15,10,10.0,105.0
26033,93.0,0,10,10.0,105.0
26034,69.0,15,10,10.0,105.0
26035,93.0,0,10,10.0,105.0
26036,93.0,0,10,10.0,105.0
26037,69.0,15,10,10.0,105.0
26038,69.0,0,10,10.0,105.0
26039,93.0,15,10,10.0,105.0
26040,93.0,15,10,10.0,105.0
26041,69.0,0,10,10.0,105.0
26042,93.0,0,10,10.0,105.0
26043,69.0,15,10,10.0,105.0
26044,93.0,0,10,10.0,105.0
26045,69.0,15,10,10.0,105.0
26046,93.0,15,10,10.0,105.0
26047,69.0,0,10,10.0,105.0
26048,93.0,15,10,10.0,105.0
26049,69.0,0,10,10.0,105.0
26050,93.0,0,10,10.0,105.0
26051,69.0,15,10,10.0,105.0
26052,72.0,0,210,6.0,110.0
26053,69.0,1,210,6.0,110.0
26054,60.0,0,210,4.0,94.0
26055,57.0,0,210,4.0,94.0
26056,93.0,1,215,0.0,93.0
26057,87.0,0,215,0.0,93.0
26058,53.0,0,210,13.0,105.0
26059,41.0,1,210,13.0,105.0
26060,81.0,0,215,1.0,92.0
26061,75.0,1,215,1.0,92.0
26062,69.0,0,10,10.0,105.0
26063,93.0,15,10,10.0,105.0
26064,72.0,0,215,2.0,91.0
26065,60.0,2,215,2.0,91.0
26066,29.0,1,210,14.0,105.0
26067,41.0,0,215,3.0,92.0
26068,53.0,4,215,3.0,92.0
26069,93.0,15,10,10.0,105.0
26070,69.0,0,10,10.0,105.0
26071,87.0,1,240,11.0,105.0
26072,75.0,0,240,11.0,105.0
26073,93.0,15,10,10.0,105.0
26074,69.0,0,10,10.0,105.0
26075,93.0,0,10,10.0,105.0
26076,69.0,2,10,10.0,105.0
26077,93.0,0,10,10.0,105.0
26078,69.0,15,10,10.0,105.0
26079,93.0,0,10,10.0,105.0
26080,69.0,15,10,10.0,105.0
26081,93.0,0,10,10.0,105.0
26082,69.0,15,10,10.0,105.0
26083,93.0,15,10,10.0,105.0
26084,69.0,0,10,10.0,105.0
26085,93.0,15,10,10.0,105.0
26086,69.0,0,10,10.0,105.0
26087,69.0,15,10,10.0,105.0
26088,93.0,0,10,10.0,105.0
26089,69.0,0,10,10.0,105.0
26090,93.0,15,10,10.0,105.0
26091,93.0,15,10,10.0,105.0
26092,69.0,0,10,10.0,105.0
26093,93.0,15,10,10.0,105.0
26094,69.0,0,10,10.0,105.0
26095,69.0,15,10,10.0,105.0
26096,93.0,0,10,10.0,105.0
26097,69.0,0,10,10.0,105.0
26098,93.0,15,10,10.0,105.0
26099,72.0,1,200,6.0,110.0
26100,69.0,0,200,6.0,110.0
26101,57.0,1,200,4.0,94.0
26102,60.0,0,200,4.0,94.0
26103,93.0,0,10,10.0,105.0
26104,69.0,15,10,10.0,105.0
26105,88.0,1,205,0.0,93.0
26106,93.0,0,205,0.0,93.0
26107,40.0,2,200,13.0,105.0
26108,52.0,0,200,13.0,105.0
26109,81.0,0,205,1.0,92.0
26110,76.0,0,205,1.0,92.0
26111,60.0,2,205,2.0,91.0
26112,72.0,0,205,2.0,91.0
26113,28.0,1,200,14.0,105.0
26114,40.0,4,205,3.0,92.0
26115,52.0,0,205,3.0,92.0
26116,69.0,15,10,10.0,105.0
26117,93.0,0,10,10.0,105.0
26118,69.0,15,10,10.0,105.0
26119,93.0,0,10,10.0,105.0
26120,76.0,0,240,11.0,105.0
26121,88.0,1,240,11.0,105.0
26122,77.0,1,0,12.0,93.0
26123,69.0,0,0,12.0,93.0
26124,93.0,0,48,0.0,93.0
26125,89.0,1,48,0.0,93.0
26126,69.0,0,51,10.0,93.0
26127,93.0,15,51,10.0,93.0
26128,77.0,0,48,1.0,92.0
26129,81.0,1,48,1.0,92.0
26130,77.0,0,51,11.0,93.0
26131,89.0,1,51,11.0,93.0
26132,62.0,2,48,2.0,91.0
26133,74.0,0,48,2.0,91.0
26134,38.0,4,48,3.0,92.0
26135,50.0,0,48,3.0,92.0
26136,69.0,1,60,6.0,110.0
26137,74.0,0,60,6.0,110.0
26138,62.0,0,60,4.0,94.0
26139,57.0,0,60,4.0,94.0
26140,38.0,0,60,13.0,93.0
26141,50.0,1,60,13.0,93.0
26142,38.0,1,60,14.0,93.0
26143,88.0,1,48,0.0,93.0
26144,83.0,0,48,0.0,93.0
26145,64.0,0,51,10.0,93.0
26146,71.0,347,51,10.0,93.0
26147,80.0,0,51,10.0,93.0
26148,80.0,0,48,1.0,92.0
26149,76.0,1,48,1.0,92.0
26150,71.0,1,51,11.0,93.0
26151,76.0,0,51,11.0,93.0
26152,64.0,0,51,11.0,93.0
26153,68.0,2,48,2.0,91.0
26154,76.0,0,48,2.0,91.0
26155,64.0,0,51,12.0,93.0
26156,52.0,1,51,12.0,93.0
26157,52.0,4,48,3.0,92.0
26158,40.0,0,48,3.0,92.0
26159,76.0,1,60,6.0,110.0
26160,64.0,0,60,4.0,94.0
26161,50.0,0,60,13.0,93.0
26162,38.0,1,60,13.0,93.0
26163,38.0,1,60,14.0,93.0
26164,88.0,0,48,0.0,93.0
26165,85.0,1,48,0.0,93.0
26166,81.0,0,51,10.0,93.0
26167,64.0,347,51,10.0,93.0
26168,73.0,0,51,10.0,93.0
26169,76.0,0,48,1.0,92.0
26170,81.0,0,48,1.0,92.0
26171,76.0,0,51,11.0,93.0
26172,69.0,1,51,11.0,93.0
26173,73.0,0,51,11.0,93.0
26174,69.0,2,48,2.0,91.0
26175,76.0,0,48,2.0,91.0
26176,57.0,1,51,12.0,93.0
26177,64.0,0,51,12.0,93.0
26178,57.0,4,48,3.0,92.0
26179,45.0,0,48,3.0,92.0
26180,69.0,1,60,6.0,110.0
26181,57.0,1,60,4.0,94.0
26182,45.0,1,60,13.0,93.0
26183,33.0,1,60,14.0,93.0
26184,45.0,2,120,15.0,93.0
26185,69.0,100,30,7.0,110.0
26186,57.0,2,30,7.0,112.0
26187,33.0,9,30,8.0,109.0
26188,45.0,4,30,8.0,110.0
26189,71.0,47,30,7.0,113.0
26190,59.0,5,30,7.0,113.0
26191,47.0,5,30,8.0,113.0
26192,35.0,2,30,8.0,110.0
26193,73.0,45,30,7.0,113.0
26194,61.0,3,30,7.0,113.0
26195,49.0,13,30,8.0,113.0
26196,37.0,1,30,8.0,113.0
26197,74.0,43,30,7.0,113.0
26198,62.0,8,30,7.0,117.0
26199,38.0,5,30,8.0,114.0
26200,50.0,4,30,8.0,113.0
26201,76.0,45,30,7.0,116.0
26202,64.0,1,30,7.0,117.0
26203,52.0,8,30,8.0,116.0
26204,40.0,1,30,8.0,118.0
26205,77.0,50,30,7.0,117.0
26206,65.0,6,30,7.0,120.0
26207,41.0,5,30,8.0,117.0
26208,53.0,3,30,8.0,117.0
26209,79.0,47,30,7.0,120.0
26210,67.0,3,30,7.0,120.0
26211,55.0,10,30,8.0,120.0
26212,43.0,1,30,8.0,120.0
26213,76.0,45,30,7.0,117.0
26214,64.0,5,30,7.0,117.0
26215,52.0,5,30,8.0,118.0
26216,40.0,0,30,8.0,117.0
26217,73.0,50,30,7.0,117.0
26218,61.0,5,30,7.0,113.0
26219,37.0,9,30,8.0,117.0
26220,49.0,1,30,8.0,117.0
26221,69.0,46,30,7.0,116.0
26222,57.0,1,30,7.0,113.0
26223,33.0,7,30,8.0,113.0
26224,45.0,1,30,8.0,113.0
26225,85.0,54,60,10.0,93.0
26226,76.0,0,60,10.0,93.0
26227,69.0,0,60,10.0,93.0
26228,88.0,0,60,0.0,93.0
26229,85.0,1,60,0.0,93.0
26230,64.0,0,60,11.0,93.0
26231,81.0,0,60,11.0,93.0
26232,73.0,1,60,11.0,93.0
26233,69.0,0,60,6.0,110.0
26234,76.0,1,60,6.0,110.0
26235,57.0,0,60,4.0,94.0
26236,64.0,0,60,4.0,94.0
26237,76.0,1,60,1.0,92.0
26238,81.0,0,60,1.0,92.0
26239,76.0,2,60,2.0,91.0
26240,73.0,0,60,2.0,91.0
26241,57.0,0,60,12.0,93.0
26242,64.0,1,60,12.0,93.0
26243,52.0,0,60,13.0,93.0
26244,45.0,1,60,13.0,93.0
26245,57.0,4,60,3.0,92.0
26246,61.0,0,60,3.0,92.0
26247,33.0,1,60,14.0,93.0
26248,45.0,2,120,15.0,93.0
26249,73.0,101,30,7.0,113.0
26250,61.0,2,30,7.0,113.0
26251,49.0,10,30,8.0,110.0
26252,37.0,3,30,8.0,111.0
26253,74.0,42,30,7.0,113.0
26254,62.0,4,30,7.0,112.0
26255,50.0,11,30,8.0,113.0
26256,38.0,0,30,8.0,113.0
26257,76.0,51,30,7.0,113.0
26258,64.0,4,30,7.0,113.0
26259,52.0,8,30,8.0,116.0
26260,40.0,0,30,8.0,116.0
26261,77.0,43,30,7.0,117.0
26262,65.0,5,30,7.0,113.0
26263,41.0,0,30,8.0,114.0
26264,53.0,7,30,8.0,113.0
26265,79.0,51,30,7.0,117.0
26266,67.0,3,30,7.0,117.0
26267,43.0,10,30,8.0,116.0
26268,55.0,1,30,8.0,117.0
26269,81.0,46,30,7.0,118.0
26270,69.0,5,30,7.0,120.0
26271,45.0,7,30,8.0,120.0
26272,57.0,1,30,8.0,120.0
26273,82.0,47,30,7.0,120.0
26274,70.0,3,30,7.0,120.0
26275,58.0,5,30,8.0,120.0
26276,46.0,2,30,8.0,120.0
26277,79.0,49,30,7.0,118.0
26278,67.0,2,30,7.0,117.0
26279,55.0,7,30,8.0,117.0
26280,43.0,6,30,8.0,118.0
26281,76.0,43,30,7.0,114.0
26282,64.0,7,30,7.0,117.0
26283,40.0,5,30,8.0,116.0
26284,52.0,2,30,8.0,113.0
26285,73.0,49,30,7.0,113.0
26286,61.0,3,30,7.0,113.0
26287,49.0,6,30,8.0,116.0
26288,37.0,2,30,8.0,113.0
26289,69.0,52,60,10.0,93.0
26290,88.0,0,60,10.0,93.0
26291,85.0,1,60,0.0,93.0
26292,88.0,0,60,0.0,93.0
26293,76.0,0,60,11.0,93.0
26294,69.0,1,60,11.0,93.0
26295,85.0,0,60,11.0,93.0
26296,81.0,0,60,6.0,110.0
26297,69.0,1,60,6.0,110.0
26298,57.0,0,60,4.0,94.0
26299,76.0,0,60,1.0,92.0
26300,81.0,0,60,1.0,92.0
26301,69.0,1,60,4.0,94.0
26302,73.0,2,60,2.0,91.0
26303,76.0,0,60,2.0,91.0
26304,57.0,1,60,12.0,93.0
26305,69.0,0,60,12.0,93.0
26306,64.0,0,60,12.0,93.0
26307,45.0,0,60,13.0,93.0
26308,57.0,1,60,13.0,93.0
26309,52.0,0,60,13.0,93.0
26310,61.0,0,60,3.0,92.0
26311,57.0,4,60,3.0,92.0
26312,33.0,1,60,14.0,93.0
26313,45.0,2,120,15.0,93.0
26314,81.0,103,30,7.0,106.0
26315,69.0,3,30,7.0,107.0
26316,45.0,5,30,8.0,102.0
26317,57.0,4,30,8.0,107.0
26318,83.0,48,30,7.0,105.0
26319,71.0,3,30,7.0,109.0
26320,47.0,7,30,8.0,109.0
26321,59.0,2,30,8.0,106.0
26322,85.0,48,30,7.0,107.0
26323,73.0,5,30,7.0,109.0
26324,61.0,5,30,8.0,110.0
26325,49.0,2,30,8.0,107.0
26326,86.0,47,30,7.0,111.0
26327,74.0,2,30,7.0,110.0
26328,62.0,7,30,8.0,110.0
26329,50.0,5,30,8.0,110.0
26330,88.0,42,30,7.0,113.0
26331,76.0,6,30,7.0,110.0
26332,64.0,6,30,8.0,112.0
26333,52.0,2,30,8.0,111.0
26334,89.0,0,30,7.0,113.0
26335,77.0,51,30,7.0,112.0
26336,65.0,9,30,8.0,113.0
26337,53.0,0,30,8.0,111.0
26338,79.0,50,30,7.0,113.0
26339,91.0,0,30,7.0,114.0
26340,55.0,8,30,8.0,116.0
26341,67.0,1,30,8.0,116.0
26342,93.0,50,30,7.0,116.0
26343,81.0,3,30,7.0,114.0
26344,57.0,7,30,8.0,117.0
26345,69.0,5,30,8.0,116.0
26346,94.0,43,30,7.0,117.0
26347,82.0,6,30,7.0,117.0
26348,58.0,7,30,8.0,116.0
26349,70.0,1,30,8.0,117.0
26350,93.0,50,30,7.0,120.0
26351,81.0,4,30,7.0,117.0
26352,57.0,4,30,8.0,117.0
26353,69.0,5,30,8.0,117.0
26354,94.0,48,220,7.0,127.0
26355,82.0,0,220,7.0,127.0
26356,58.0,10,220,8.0,127.0
26357,70.0,2,220,8.0,127.0
26358,62.0,0,120,10.0,74.0
26359,70.0,109,120,10.0,74.0
26360,94.0,1,120,0.0,79.0
26361,82.0,0,120,0.0,79.0
26362,62.0,0,120,11.0,74.0
26363,70.0,1,120,11.0,74.0
26364,82.0,0,120,1.0,78.0
26365,50.0,0,120,4.0,80.0
26366,62.0,2,120,4.0,80.0
26367,74.0,2,120,2.0,77.0
26368,58.0,0,120,12.0,74.0
26369,62.0,1,120,12.0,74.0
26370,55.0,1,120,13.0,74.0
26371,43.0,0,120,3.0,78.0
26372,55.0,4,120,3.0,78.0
26373,43.0,1,120,14.0,74.0
26374,82.0,104,30,7.0,109.0
26375,94.0,1,30,7.0,111.0
26376,70.0,0,30,8.0,110.0
26377,58.0,12,30,8.0,112.0
26378,81.0,0,30,7.0,113.0
26379,93.0,47,30,7.0,113.0
26380,57.0,0,30,8.0,111.0
26381,69.0,8,30,8.0,109.0
26382,94.0,48,220,7.0,127.0
26383,82.0,8,220,7.0,127.0
26384,70.0,9,220,8.0,127.0
26385,58.0,1,220,8.0,127.0
26386,69.0,0,120,10.0,74.0
26387,62.0,109,120,10.0,74.0
26388,93.0,0,120,0.0,79.0
26389,81.0,1,120,0.0,79.0
26390,69.0,1,120,11.0,74.0
26391,62.0,0,120,11.0,74.0
26392,50.0,2,120,4.0,80.0
26393,82.0,0,120,1.0,78.0
26394,81.0,0,120,1.0,78.0
26395,62.0,0,120,4.0,80.0
26396,74.0,2,120,2.0,77.0
26397,62.0,1,120,12.0,74.0
26398,57.0,0,120,12.0,74.0
26399,53.0,1,120,13.0,74.0
26400,53.0,0,120,3.0,78.0
26401,41.0,4,120,3.0,78.0
26402,41.0,1,120,14.0,74.0
26403,94.0,101,30,7.0,110.0
26404,82.0,9,30,7.0,111.0
26405,70.0,6,30,8.0,109.0
26406,58.0,1,30,8.0,109.0
26407,93.0,46,30,7.0,110.0
26408,81.0,5,30,7.0,109.0
26409,57.0,7,30,8.0,112.0
26410,69.0,1,30,8.0,113.0
26411,94.0,47,160,7.0,127.0
26412,82.0,4,160,7.0,127.0
26413,70.0,6,160,8.0,127.0
26414,58.0,3,160,8.0,127.0
26415,94.0,44,30,7.0,111.0
26416,82.0,4,30,7.0,111.0
26417,70.0,5,30,8.0,113.0
26418,58.0,2,30,8.0,112.0
26419,67.0,0,120,10.0,62.0
26420,58.0,111,120,10.0,62.0
26421,91.0,1,120,0.0,67.0
26422,82.0,0,120,0.0,67.0
26423,67.0,1,120,11.0,62.0
26424,58.0,0,120,11.0,62.0
26425,79.0,0,120,1.0,66.0
26426,82.0,2,120,1.0,66.0
26427,46.0,0,120,5.0,68.0
26428,70.0,2,120,2.0,65.0
26429,58.0,0,120,5.0,68.0
26430,55.0,1,120,12.0,62.0
26431,58.0,0,120,12.0,62.0
26432,51.0,1,120,13.0,62.0
26433,51.0,0,120,3.0,66.0
26434,39.0,4,120,3.0,66.0
26435,39.0,1,120,14.0,62.0
26436,94.0,45,30,7.0,112.0
26437,82.0,4,30,7.0,111.0
26438,70.0,10,30,8.0,111.0
26439,58.0,1,30,8.0,111.0
26440,93.0,50,30,7.0,107.0
26441,81.0,5,30,7.0,107.0
26442,69.0,2,30,8.0,107.0
26443,57.0,2,30,8.0,107.0
26444,94.0,48,160,7.0,127.0
26445,82.0,5,160,7.0,127.0
26446,70.0,8,160,8.0,127.0
26447,58.0,1,160,8.0,127.0
26448,82.0,45,30,7.0,111.0
26449,94.0,1,30,7.0,111.0
26450,70.0,6,30,8.0,113.0
26451,58.0,2,30,8.0,111.0
26452,65.0,111,120,10.0,62.0
26453,58.0,0,120,10.0,62.0
26454,89.0,0,120,0.0,67.0
26455,82.0,1,120,0.0,67.0
26456,58.0,0,120,11.0,62.0
26457,65.0,1,120,11.0,62.0
26458,82.0,0,120,1.0,66.0
26459,77.0,2,120,1.0,66.0
26460,46.0,0,120,5.0,68.0
26461,58.0,2,120,5.0,68.0
26462,70.0,0,120,2.0,65.0
26463,53.0,1,120,12.0,62.0
26464,58.0,0,120,12.0,62.0
26465,50.0,1,120,13.0,62.0
26466,50.0,0,120,3.0,66.0
26467,38.0,4,120,3.0,66.0
26468,38.0,1,120,14.0,62.0
26469,82.0,50,30,7.0,112.0
26470,94.0,2,30,7.0,111.0
26471,70.0,10,30,8.0,111.0
26472,58.0,2,30,8.0,111.0
26473,93.0,42,30,7.0,107.0
26474,81.0,4,30,7.0,109.0
26475,57.0,11,30,8.0,106.0
26476,69.0,1,30,8.0,107.0
26477,88.0,0,120,0.0,60.0
26478,82.0,1,120,0.0,60.0
26479,79.0,2,120,1.0,59.0
26480,76.0,0,120,1.0,59.0
26481,46.0,0,120,5.0,61.0
26482,58.0,2,120,5.0,61.0
26483,67.0,0,120,2.0,58.0
26484,76.0,0,120,2.0,58.0
26485,82.0,48,160,7.0,120.0
26486,94.0,2,160,7.0,118.0
26487,58.0,1,160,8.0,117.0
26488,64.0,1,210,10.0,93.0
26489,55.0,0,210,10.0,93.0
26490,64.0,1,210,11.0,93.0
26491,61.0,0,210,11.0,93.0
26492,81.0,44,45,7.0,118.0
26493,93.0,1,45,7.0,121.0
26494,52.0,120,102,12.0,105.0
26495,37.0,1,102,13.0,105.0
26496,52.0,0,102,3.0,92.0
26497,37.0,4,102,3.0,92.0
26498,37.0,1,102,14.0,105.0
26499,69.0,13,45,8.0,121.0
26500,93.0,43,60,7.0,118.0
26501,81.0,1,60,7.0,120.0
26502,69.0,3,60,8.0,120.0
26503,91.0,41,45,7.0,120.0
26504,65.0,6,102,10.0,105.0
26505,79.0,5,45,7.0,120.0
26506,53.0,6,102,12.0,105.0
26507,38.0,1,102,13.0,105.0
26508,53.0,1,102,3.0,92.0
26509,67.0,10,45,8.0,118.0
26510,38.0,0,102,3.0,92.0
26511,38.0,1,102,14.0,105.0
26512,91.0,49,60,7.0,120.0
26513,79.0,1,60,7.0,120.0
26514,67.0,7,60,8.0,120.0
26515,89.0,43,45,7.0,120.0
26516,67.0,1,102,10.0,105.0
26517,77.0,6,45,7.0,121.0
26518,55.0,0,102,12.0,105.0
26519,40.0,1,102,13.0,105.0
26520,65.0,6,45,8.0,118.0
26521,55.0,0,102,3.0,92.0
26522,40.0,4,102,3.0,92.0
26523,40.0,1,102,14.0,105.0
26524,89.0,47,60,7.0,120.0
26525,77.0,3,60,7.0,120.0
26526,65.0,3,60,8.0,120.0
26527,87.0,40,45,7.0,121.0
26528,75.0,4,45,7.0,120.0
26529,69.0,2,102,10.0,105.0
26530,57.0,7,102,12.0,105.0
26531,42.0,1,102,13.0,105.0
26532,57.0,1,102,3.0,92.0
26533,42.0,0,102,3.0,92.0
26534,42.0,1,102,14.0,105.0
26535,63.0,13,45,8.0,121.0
26536,87.0,46,60,7.0,120.0
26537,75.0,1,60,7.0,120.0
26538,63.0,1,60,8.0,120.0
26539,70.0,4,102,10.0,105.0
26540,86.0,45,45,7.0,118.0
26541,74.0,1,45,7.0,118.0
26542,58.0,6,102,12.0,105.0
26543,43.0,1,102,13.0,105.0
26544,62.0,7,45,8.0,120.0
26545,43.0,3,102,3.0,92.0
26546,58.0,0,102,3.0,92.0
26547,43.0,1,102,14.0,105.0
26548,69.0,6,60,10.0,116.0
26549,57.0,4,60,12.0,116.0
26550,45.0,1,60,13.0,116.0
26551,45.0,0,60,3.0,92.0
26552,57.0,1,60,3.0,92.0
26553,33.0,1,60,14.0,116.0
26554,86.0,48,165,7.0,123.0
26555,74.0,3,165,7.0,123.0
26556,62.0,3,165,8.0,122.0
26557,81.0,107,60,10.0,67.0
26558,69.0,7,60,12.0,67.0
26559,57.0,1,60,13.0,67.0
26560,45.0,5,60,14.0,67.0
26561,85.0,42,30,7.0,109.0
26562,73.0,7,30,7.0,107.0
26563,61.0,5,30,8.0,109.0
26564,85.0,47,30,7.0,109.0
26565,73.0,4,30,7.0,106.0
26566,61.0,3,30,8.0,106.0
26567,79.0,2,60,10.0,67.0
26568,67.0,7,60,12.0,67.0
26569,55.0,1,60,13.0,67.0
26570,43.0,2,60,14.0,67.0
26571,86.0,40,30,7.0,99.0
26572,74.0,7,30,7.0,102.0
26573,62.0,6,30,8.0,100.0
26574,65.0,3,60,10.0,116.0
26575,53.0,7,60,12.0,116.0
26576,41.0,1,60,13.0,116.0
26577,53.0,1,60,3.0,92.0
26578,41.0,0,60,3.0,92.0
26579,29.0,1,60,14.0,116.0
26580,86.0,50,165,7.0,122.0
26581,74.0,1,165,7.0,122.0
26582,62.0,3,165,8.0,123.0
26583,77.0,107,60,10.0,67.0
26584,65.0,7,60,12.0,67.0
26585,53.0,1,60,13.0,67.0
26586,41.0,5,60,14.0,67.0
26587,81.0,41,30,7.0,105.0
26588,69.0,9,30,7.0,106.0
26589,57.0,2,30,8.0,109.0
26590,69.0,52,30,7.0,105.0
26591,81.0,2,30,7.0,105.0
26592,57.0,5,30,8.0,107.0
26593,75.0,1,60,10.0,67.0
26594,63.0,2,60,12.0,67.0
26595,51.0,1,60,13.0,67.0
26596,39.0,5,60,14.0,67.0
26597,82.0,42,30,7.0,102.0
26598,70.0,4,30,7.0,100.0
26599,58.0,7,30,8.0,100.0
26600,62.0,1,60,10.0,116.0
26601,50.0,2,60,12.0,116.0
26602,38.0,1,60,13.0,116.0
26603,38.0,0,60,3.0,92.0
26604,50.0,4,60,3.0,92.0
26605,26.0,1,60,14.0,116.0
26606,82.0,53,165,7.0,124.0
26607,70.0,0,165,7.0,124.0
26608,58.0,5,165,8.0,122.0
26609,74.0,107,60,10.0,67.0
26610,62.0,7,60,12.0,67.0
26611,50.0,1,60,13.0,67.0
26612,38.0,5,60,14.0,67.0
26613,78.0,44,30,7.0,106.0
26614,66.0,1,30,7.0,105.0
26615,54.0,10,30,8.0,109.0
26616,78.0,47,30,7.0,106.0
26617,66.0,5,30,7.0,109.0
26618,54.0,5,30,8.0,105.0
26619,72.0,0,60,10.0,67.0
26620,60.0,2,60,12.0,67.0
26621,48.0,1,60,13.0,67.0
26622,36.0,5,60,14.0,67.0
26623,79.0,44,30,7.0,100.0
26624,67.0,4,30,7.0,102.0
26625,55.0,6,30,8.0,100.0
26626,58.0,3,60,10.0,116.0
26627,58.0,7,60,12.0,116.0
26628,46.0,0,60,13.0,116.0
26629,46.0,4,60,3.0,92.0
26630,58.0,0,60,3.0,92.0
26631,34.0,1,60,14.0,116.0
26632,79.0,49,165,7.0,124.0
26633,67.0,1,165,7.0,124.0
26634,55.0,1,165,8.0,122.0
26635,70.0,107,60,10.0,67.0
26636,58.0,7,60,12.0,67.0
26637,46.0,1,60,13.0,67.0
26638,34.0,5,60,14.0,67.0
26639,74.0,44,30,7.0,109.0
26640,62.0,4,30,7.0,105.0
26641,50.0,6,30,8.0,109.0
26642,74.0,47,30,7.0,106.0
26643,62.0,3,30,7.0,106.0
26644,50.0,1,30,8.0,106.0
26645,69.0,3,60,10.0,67.0
26646,57.0,7,60,12.0,67.0
26647,45.0,1,60,13.0,67.0
26648,33.0,4,60,14.0,67.0
26649,63.0,44,30,7.0,100.0
26650,75.0,1,30,7.0,99.0
26651,51.0,10,30,8.0,100.0
26652,75.0,50,30,7.0,113.0
26653,63.0,1,30,7.0,114.0
26654,51.0,3,30,8.0,113.0
26655,55.0,0,60,3.0,92.0
26656,43.0,1,60,3.0,92.0
26657,79.0,40,30,7.0,116.0
26658,67.0,7,30,7.0,116.0
26659,55.0,10,30,8.0,116.0
26660,67.0,2,120,10.0,116.0
26661,70.0,0,120,10.0,116.0
26662,46.0,0,120,5.0,94.0
26663,58.0,5,120,5.0,94.0
26664,55.0,1,120,12.0,116.0
26665,63.0,0,120,12.0,116.0
26666,43.0,1,120,13.0,116.0
26667,31.0,1,120,14.0,116.0
26668,67.0,47,30,7.0,117.0
26669,79.0,1,30,7.0,117.0
26670,55.0,12,30,8.0,116.0
26671,82.0,43,30,7.0,117.0
26672,70.0,8,30,7.0,117.0
26673,58.0,10,30,8.0,116.0
26674,70.0,47,30,7.0,111.0
26675,82.0,1,30,7.0,111.0
26676,58.0,12,30,8.0,112.0
26677,87.0,44,30,7.0,111.0
26678,75.0,8,30,7.0,111.0
26679,63.0,8,30,8.0,111.0
26680,84.0,43,30,7.0,117.0
26681,72.0,5,30,7.0,120.0
26682,60.0,1,30,8.0,120.0
26683,45.0,4,60,3.0,92.0
26684,57.0,0,60,3.0,92.0
26685,85.0,41,30,7.0,120.0
26686,73.0,9,30,7.0,117.0
26687,61.0,5,30,8.0,118.0
26688,69.0,1,120,10.0,116.0
26689,64.0,0,120,10.0,116.0
26690,69.0,0,120,4.0,94.0
26691,57.0,4,120,4.0,94.0
26692,57.0,2,120,12.0,116.0
26693,61.0,0,120,12.0,116.0
26694,45.0,1,120,13.0,105.0
26695,33.0,1,120,14.0,105.0
26696,85.0,45,30,7.0,120.0
26697,73.0,10,30,7.0,120.0
26698,61.0,2,30,8.0,118.0
26699,88.0,49,30,7.0,122.0
26700,76.0,8,30,7.0,122.0
26701,64.0,6,30,8.0,122.0
26702,88.0,45,30,7.0,117.0
26703,76.0,5,30,7.0,117.0
26704,64.0,7,30,8.0,116.0
26705,93.0,48,30,7.0,113.0
26706,81.0,6,30,7.0,116.0
26707,69.0,7,30,8.0,113.0
26708,38.0,4,60,3.0,92.0
26709,50.0,0,60,3.0,92.0
26710,66.0,1,102,10.0,105.0
26711,66.0,1,102,11.0,105.0
26712,54.0,1,102,12.0,105.0
26713,50.0,1,102,13.0,105.0
26714,38.0,1,102,14.0,105.0
26715,50.0,2,120,4.0,94.0
26716,62.0,0,120,4.0,94.0
26717,99.0,50,165,7.0,127.0
26718,96.0,1,165,7.0,127.0
26719,93.0,1,165,7.0,127.0
26720,87.0,1,165,7.0,127.0
26721,72.0,0,165,8.0,127.0
26722,69.0,0,165,8.0,127.0
26723,63.0,0,165,8.0,127.0
26724,75.0,0,165,8.0,127.0
26725,67.0,107,102,10.0,105.0
26726,98.0,44,45,7.0,113.0
26727,86.0,1,45,7.0,114.0
26728,67.0,2,102,11.0,105.0
26729,55.0,5,102,12.0,105.0
26730,52.0,1,102,13.0,105.0
26731,62.0,10,45,8.0,113.0
26732,40.0,5,102,14.0,105.0
26733,87.0,0,240,0.0,93.0
26734,75.0,0,240,1.0,92.0
26735,98.0,51,60,7.0,113.0
26736,86.0,1,60,7.0,113.0
26737,74.0,1,60,8.0,113.0
26738,96.0,43,45,7.0,113.0
26739,69.0,1,102,10.0,105.0
26740,84.0,2,45,7.0,113.0
26741,69.0,1,102,11.0,105.0
26742,57.0,2,102,12.0,105.0
26743,54.0,1,102,13.0,105.0
26744,72.0,9,45,8.0,114.0
26745,42.0,5,102,14.0,105.0
26746,86.0,1,120,0.0,93.0
26747,81.0,1,360,0.0,93.0
26748,74.0,1,120,1.0,92.0
26749,69.0,0,360,1.0,92.0
26750,69.0,0,360,2.0,91.0
26751,72.0,2,360,2.0,91.0
26752,96.0,50,60,7.0,113.0
26753,84.0,1,60,7.0,113.0
26754,72.0,0,60,8.0,113.0
26755,94.0,41,45,7.0,113.0
26756,70.0,3,102,10.0,105.0
26757,82.0,5,45,7.0,113.0
26758,70.0,2,102,11.0,105.0
26759,58.0,4,102,12.0,105.0
26760,55.0,1,102,13.0,105.0
26761,70.0,8,45,8.0,113.0
26762,43.0,5,102,14.0,105.0
26763,94.0,46,60,7.0,113.0
26764,82.0,2,60,7.0,113.0
26765,70.0,2,60,8.0,113.0
26766,93.0,41,45,7.0,113.0
26767,72.0,7,102,10.0,105.0
26768,72.0,0,102,11.0,105.0
26769,81.0,7,45,7.0,113.0
26770,60.0,5,102,12.0,105.0
26771,57.0,1,102,13.0,105.0
26772,69.0,4,45,8.0,113.0
26773,45.0,3,102,14.0,105.0
26774,93.0,52,60,7.0,114.0
26775,81.0,1,60,7.0,113.0
26776,69.0,5,60,8.0,114.0
26777,91.0,42,45,7.0,116.0
26778,74.0,3,102,10.0,105.0
26779,74.0,1,102,11.0,105.0
26780,79.0,5,45,7.0,114.0
26781,62.0,0,102,12.0,105.0
26782,58.0,1,102,13.0,105.0
26783,67.0,6,45,8.0,116.0
26784,46.0,5,102,14.0,105.0
26785,63.0,1,60,10.0,116.0
26786,63.0,1,60,11.0,116.0
26787,63.0,2,60,12.0,116.0
26788,48.0,1,60,13.0,116.0
26789,48.0,4,60,3.0,103.0
26790,36.0,1,60,14.0,116.0
26791,91.0,53,165,7.0,127.0
26792,79.0,1,165,7.0,127.0
26793,67.0,3,165,8.0,127.0
26794,75.0,107,60,10.0,67.0
26795,75.0,2,60,11.0,67.0
26796,63.0,5,60,12.0,67.0
26797,60.0,1,60,13.0,67.0
26798,60.0,4,60,3.0,64.0
26799,48.0,1,60,14.0,67.0
26800,90.0,42,30,7.0,109.0
26801,78.0,3,30,7.0,109.0
26802,66.0,8,30,8.0,109.0
26803,90.0,51,30,7.0,106.0
26804,78.0,1,30,7.0,109.0
26805,66.0,4,30,8.0,107.0
26806,74.0,3,60,10.0,67.0
26807,74.0,1,60,11.0,67.0
26808,62.0,1,60,12.0,67.0
26809,58.0,1,60,13.0,67.0
26810,58.0,4,60,3.0,64.0
26811,46.0,1,60,14.0,67.0
26812,91.0,41,30,7.0,100.0
26813,79.0,3,30,7.0,100.0
26814,67.0,10,30,8.0,100.0
26815,62.0,1,60,10.0,116.0
26816,62.0,2,60,11.0,116.0
26817,62.0,5,60,12.0,116.0
26818,46.0,1,60,13.0,116.0
26819,46.0,3,60,3.0,103.0
26820,34.0,1,60,14.0,116.0
26821,91.0,52,165,7.0,127.0
26822,79.0,0,165,7.0,127.0
26823,67.0,1,165,8.0,127.0
26824,74.0,107,60,10.0,67.0
26825,74.0,2,60,11.0,67.0
26826,62.0,5,60,12.0,67.0
26827,58.0,1,60,13.0,67.0
26828,58.0,4,60,3.0,64.0
26829,46.0,1,60,14.0,67.0
26830,86.0,42,30,7.0,106.0
26831,74.0,8,30,7.0,106.0
26832,62.0,8,30,8.0,109.0
26833,86.0,44,30,7.0,109.0
26834,74.0,4,30,7.0,107.0
26835,62.0,3,30,8.0,105.0
26836,72.0,1,60,10.0,67.0
26837,72.0,2,60,11.0,67.0
26838,60.0,2,60,12.0,67.0
26839,57.0,1,60,13.0,67.0
26840,57.0,4,60,3.0,64.0
26841,45.0,1,60,14.0,67.0
26842,87.0,45,30,7.0,101.0
26843,75.0,4,30,7.0,99.0
26844,63.0,6,30,8.0,101.0
26845,58.0,6,60,10.0,116.0
26846,58.0,1,60,11.0,116.0
26847,58.0,5,60,12.0,116.0
26848,43.0,1,60,13.0,116.0
26849,43.0,1,60,3.0,103.0
26850,31.0,1,60,14.0,116.0
26851,87.0,46,165,7.0,127.0
26852,75.0,1,165,7.0,127.0
26853,63.0,3,165,8.0,127.0
26854,70.0,107,60,10.0,67.0
26855,70.0,2,60,11.0,67.0
26856,58.0,5,60,12.0,67.0
26857,55.0,1,60,13.0,67.0
26858,55.0,4,60,3.0,64.0
26859,43.0,1,60,14.0,67.0
26860,85.0,40,30,7.0,109.0
26861,73.0,6,30,7.0,107.0
26862,61.0,12,30,8.0,109.0
26863,85.0,43,30,7.0,107.0
26864,73.0,1,30,7.0,106.0
26865,61.0,0,30,8.0,107.0
26866,69.0,6,60,10.0,67.0
26867,69.0,1,60,11.0,67.0
26868,57.0,5,60,12.0,67.0
26869,53.0,1,60,13.0,67.0
26870,53.0,4,60,3.0,64.0
26871,41.0,1,60,14.0,67.0
26872,86.0,0,30,7.0,99.0
26873,74.0,44,30,7.0,99.0
26874,62.0,12,30,8.0,100.0
26875,56.0,3,60,10.0,116.0
26876,56.0,2,60,11.0,116.0
26877,56.0,1,60,12.0,116.0
26878,41.0,1,60,13.0,116.0
26879,41.0,4,60,3.0,103.0
26880,29.0,1,60,14.0,116.0
26881,86.0,46,165,7.0,127.0
26882,74.0,2,165,7.0,127.0
26883,62.0,4,165,8.0,127.0
26884,68.0,107,60,10.0,67.0
26885,68.0,2,60,11.0,67.0
26886,56.0,5,60,12.0,67.0
26887,53.0,1,60,13.0,67.0
26888,53.0,4,60,3.0,64.0
26889,41.0,1,60,14.0,67.0
26890,83.0,40,30,7.0,106.0
26891,71.0,4,30,7.0,109.0
26892,59.0,14,30,8.0,109.0
26893,83.0,47,30,7.0,106.0
26894,71.0,1,30,7.0,107.0
26895,59.0,1,30,8.0,106.0
26896,67.0,2,60,10.0,67.0
26897,67.0,1,60,11.0,67.0
26898,55.0,5,60,12.0,67.0
26899,51.0,1,60,13.0,67.0
26900,51.0,3,60,3.0,64.0
26901,39.0,1,60,14.0,67.0
26902,84.0,40,30,7.0,100.0
26903,72.0,8,30,7.0,100.0
26904,60.0,4,30,8.0,100.0
26905,79.0,48,30,7.0,116.0
26906,67.0,0,30,7.0,116.0
26907,55.0,1,30,8.0,113.0
26908,84.0,45,30,7.0,113.0
26909,72.0,3,30,7.0,114.0
26910,60.0,6,30,8.0,113.0
26911,75.0,0,120,10.0,116.0
26912,67.0,7,120,10.0,116.0
26913,75.0,0,120,11.0,116.0
26914,67.0,2,120,11.0,116.0
26915,60.0,5,120,12.0,116.0
26916,51.0,0,120,12.0,116.0
26917,48.0,1,120,13.0,116.0
26918,48.0,3,120,3.0,103.0
26919,36.0,1,120,14.0,116.0
26920,84.0,46,30,7.0,116.0
26921,72.0,6,30,7.0,113.0
26922,60.0,9,30,8.0,116.0
26923,87.0,46,30,7.0,113.0
26924,75.0,5,30,7.0,117.0
26925,63.0,12,30,8.0,117.0
26926,87.0,43,30,7.0,111.0
26927,75.0,6,30,7.0,111.0
26928,63.0,11,30,8.0,111.0
26929,91.0,46,30,7.0,110.0
26930,79.0,3,30,7.0,109.0
26931,67.0,8,30,8.0,109.0
26932,85.0,47,30,7.0,117.0
26933,73.0,2,30,7.0,118.0
26934,61.0,3,30,8.0,117.0
26935,88.0,42,30,7.0,118.0
26936,76.0,0,30,7.0,117.0
26937,64.0,10,30,8.0,117.0
26938,73.0,0,120,10.0,116.0
26939,64.0,0,120,10.0,116.0
26940,57.0,5,120,10.0,116.0
26941,73.0,0,120,11.0,116.0
26942,64.0,0,120,11.0,116.0
26943,57.0,0,120,11.0,116.0
26944,69.0,0,120,6.0,99.0
26945,57.0,1,120,6.0,99.0
26946,57.0,0,120,4.0,94.0
26947,45.0,1,120,4.0,94.0
26948,52.0,0,120,12.0,116.0
26949,61.0,3,120,12.0,116.0
26950,45.0,1,120,13.0,105.0
26951,45.0,1,120,3.0,92.0
26952,33.0,1,120,14.0,105.0
26953,45.0,2,120,15.0,80.0
26954,88.0,48,30,7.0,117.0
26955,76.0,8,30,7.0,117.0
26956,64.0,5,30,8.0,117.0
26957,93.0,45,30,7.0,118.0
26958,81.0,6,30,7.0,117.0
26959,69.0,8,30,8.0,117.0
26960,93.0,46,30,7.0,113.0
26961,81.0,10,30,7.0,116.0
26962,69.0,4,30,8.0,113.0
26963,97.0,50,30,7.0,112.0
26964,85.0,2,30,7.0,112.0
26965,73.0,12,30,8.0,111.0
26966,93.0,0,40,7.0,106.0
26967,81.0,2,40,8.0,106.0
26968,95.0,26,40,7.0,93.0
26969,83.0,8,40,8.0,93.0
26970,96.0,33,40,7.0,94.0
26971,62.0,0,120,6.0,99.0
26972,74.0,1,120,6.0,99.0
26973,62.0,0,120,4.0,94.0
26974,50.0,1,120,4.0,94.0
26975,57.0,3,120,12.0,79.0
26976,62.0,0,120,12.0,79.0
26977,50.0,1,120,13.0,79.0
26978,84.0,8,40,8.0,94.0
26979,38.0,3,120,14.0,79.0
26980,50.0,2,120,15.0,80.0
26981,69.0,0,155,10.0,115.0
26982,79.0,49,155,10.0,115.0
26983,67.0,2,155,11.0,115.0
26984,98.0,31,40,7.0,97.0
26985,86.0,9,40,8.0,99.0
26986,93.0,30,40,7.0,99.0
26987,81.0,7,40,8.0,95.0
26988,77.0,13,35,10.0,105.0
26989,65.0,2,35,11.0,105.0
26990,89.0,19,40,7.0,96.0
26991,77.0,7,40,8.0,95.0
26992,77.0,3,35,10.0,105.0
26993,65.0,2,35,11.0,105.0
26994,86.0,29,40,7.0,96.0
26995,74.0,8,40,8.0,100.0
26996,81.0,29,40,7.0,96.0
26997,69.0,9,40,8.0,100.0
26998,76.0,12,35,10.0,105.0
26999,64.0,2,35,11.0,105.0
27000,74.0,20,40,7.0,101.0
27001,62.0,6,40,8.0,101.0
27002,81.0,1,40,7.0,100.0
27003,69.0,1,40,8.0,103.0
27004,83.0,29,40,7.0,102.0
27005,71.0,8,40,8.0,106.0
27006,85.0,33,40,7.0,102.0
27007,62.0,1,120,4.0,94.0
27008,73.0,3,40,8.0,103.0
27009,57.0,0,120,12.0,79.0
27010,62.0,3,120,12.0,79.0
27011,50.0,1,120,13.0,79.0
27012,38.0,4,120,14.0,79.0
27013,69.0,32,155,10.0,115.0
27014,77.0,0,155,10.0,115.0
27015,65.0,2,155,11.0,115.0
27016,86.0,34,40,7.0,109.0
27017,74.0,10,40,8.0,102.0
27018,81.0,32,40,7.0,99.0
27019,69.0,6,40,8.0,103.0
27020,76.0,12,35,10.0,105.0
27021,64.0,2,35,11.0,105.0
27022,77.0,16,40,7.0,99.0
27023,65.0,10,40,8.0,106.0
27024,76.0,32,35,10.0,105.0
27025,64.0,2,35,11.0,105.0
27026,74.0,0,40,7.0,100.0
27027,62.0,3,40,8.0,96.0
27028,69.0,37,40,7.0,100.0
27029,57.0,9,40,8.0,99.0
27030,74.0,9,35,10.0,105.0
27031,62.0,2,35,11.0,105.0
27032,62.0,19,25,7.0,99.0
27033,50.0,8,25,8.0,97.0
27034,74.0,1,40,7.0,110.0
27035,62.0,0,40,8.0,112.0
27036,76.0,25,40,7.0,101.0
27037,64.0,13,40,8.0,100.0
27038,78.0,31,40,7.0,100.0
27039,62.0,0,120,4.0,94.0
27040,67.0,2,120,4.0,94.0
27041,66.0,4,40,8.0,100.0
27042,62.0,3,120,12.0,79.0
27043,55.0,0,120,12.0,79.0
27044,55.0,1,120,13.0,79.0
27045,43.0,5,120,14.0,79.0
27046,82.0,31,155,10.0,115.0
27047,70.0,1,155,11.0,115.0
27048,79.0,35,40,7.0,111.0
27049,67.0,4,40,8.0,113.0
27050,74.0,32,40,7.0,102.0
27051,62.0,9,40,8.0,100.0
27052,81.0,14,35,10.0,105.0
27053,69.0,2,35,11.0,105.0
27054,70.0,20,40,7.0,100.0
27055,58.0,4,40,8.0,101.0
27056,81.0,1,35,10.0,105.0
27057,69.0,2,35,11.0,105.0
27058,67.0,33,40,7.0,102.0
27059,55.0,8,40,8.0,102.0
27060,62.0,30,40,7.0,103.0
27061,50.0,5,40,8.0,101.0
27062,79.0,15,35,10.0,105.0
27063,67.0,2,35,11.0,105.0
27064,55.0,16,40,7.0,103.0
27065,43.0,7,40,8.0,101.0
27066,76.0,1,40,7.0,111.0
27067,64.0,0,40,8.0,112.0
27068,69.0,35,60,10.0,106.0
27069,86.0,0,60,10.0,106.0
27070,74.0,0,60,11.0,106.0
27071,76.0,2,60,11.0,106.0
27072,77.0,28,40,7.0,105.0
27073,65.0,8,40,8.0,101.0
27074,80.0,29,40,7.0,102.0
27075,57.0,0,120,12.0,79.0
27076,52.0,3,120,12.0,79.0
27077,57.0,1,120,13.0,79.0
27078,68.0,10,40,8.0,106.0
27079,45.0,5,120,14.0,79.0
27080,81.0,30,40,7.0,114.0
27081,69.0,4,40,8.0,112.0
27082,85.0,2,60,10.0,90.0
27083,69.0,0,60,10.0,90.0
27084,76.0,2,60,11.0,90.0
27085,73.0,0,60,11.0,90.0
27086,76.0,27,40,7.0,105.0
27087,64.0,4,40,8.0,106.0
27088,73.0,33,40,7.0,107.0
27089,57.0,5,0,6.0,121.0
27090,69.0,0,0,6.0,121.0
27091,61.0,12,40,8.0,106.0
27092,45.0,4,0,15.0,65.0
27093,69.0,27,40,7.0,106.0
27094,57.0,8,40,8.0,102.0
27095,64.0,23,40,7.0,105.0
27096,52.0,12,40,8.0,109.0
27097,57.0,33,25,7.0,105.0
27098,45.0,6,25,8.0,107.0
27099,64.0,0,360,4.0,94.0
27100,57.0,1,360,4.0,94.0
27101,93.0,28,40,7.0,96.0
27102,81.0,1,40,8.0,106.0
27103,95.0,23,40,7.0,93.0
27104,83.0,8,40,8.0,96.0
27105,97.0,31,40,7.0,94.0
27106,62.0,1,120,6.0,121.0
27107,74.0,0,120,6.0,121.0
27108,62.0,0,120,4.0,94.0
27109,50.0,1,120,4.0,94.0
27110,85.0,9,40,8.0,94.0
27111,57.0,0,120,12.0,79.0
27112,62.0,3,120,12.0,79.0
27113,50.0,1,120,13.0,79.0
27114,38.0,4,120,14.0,79.0
27115,50.0,2,120,15.0,65.0
27116,69.0,0,155,10.0,115.0
27117,79.0,3,155,10.0,115.0
27118,67.0,2,155,11.0,115.0
27119,98.0,35,40,7.0,96.0
27120,86.0,5,40,8.0,106.0
27121,93.0,33,40,7.0,96.0
27122,81.0,8,40,8.0,99.0
27123,77.0,13,35,10.0,105.0
27124,65.0,2,35,11.0,105.0
27125,89.0,15,40,7.0,99.0
27126,77.0,9,40,8.0,100.0
27127,77.0,34,35,10.0,105.0
27128,65.0,1,35,11.0,105.0
27129,86.0,1,40,7.0,99.0
27130,74.0,5,40,8.0,101.0
27131,81.0,34,40,7.0,101.0
27132,69.0,5,40,8.0,95.0
27133,76.0,14,35,10.0,105.0
27134,64.0,2,35,11.0,105.0
27135,74.0,18,40,7.0,101.0
27136,62.0,9,40,8.0,101.0
27137,81.0,28,40,7.0,100.0
27138,69.0,0,40,8.0,103.0
27139,82.0,25,40,7.0,102.0
27140,70.0,13,40,8.0,101.0
27141,84.0,32,40,7.0,103.0
27142,57.0,0,120,12.0,79.0
27143,62.0,5,120,12.0,79.0
27144,53.0,1,120,13.0,79.0
27145,72.0,8,40,8.0,103.0
27146,41.0,5,120,14.0,79.0
27147,77.0,3,155,10.0,115.0
27148,69.0,0,155,10.0,115.0
27149,86.0,26,40,7.0,106.0
27150,65.0,2,155,11.0,115.0
27151,74.0,14,40,8.0,106.0
27152,81.0,30,40,7.0,97.0
27153,69.0,5,40,8.0,106.0
27154,76.0,14,35,10.0,105.0
27155,64.0,2,35,11.0,105.0
27156,77.0,21,40,7.0,99.0
27157,65.0,4,40,8.0,96.0
27158,76.0,1,35,10.0,105.0
27159,64.0,2,35,11.0,105.0
27160,74.0,32,40,7.0,100.0
27161,62.0,5,40,8.0,96.0
27162,69.0,34,40,7.0,100.0
27163,57.0,4,40,8.0,96.0
27164,74.0,15,35,10.0,105.0
27165,62.0,2,35,11.0,105.0
27166,62.0,20,25,7.0,100.0
27167,50.0,7,25,8.0,101.0
27168,74.0,1,40,7.0,112.0
27169,62.0,1,40,8.0,111.0
27170,76.0,30,40,7.0,101.0
27171,64.0,2,40,8.0,100.0
27172,78.0,35,40,7.0,100.0
27173,55.0,0,120,12.0,79.0
27174,62.0,4,120,12.0,79.0
27175,55.0,1,120,13.0,79.0
27176,66.0,9,40,8.0,102.0
27177,43.0,4,120,14.0,79.0
27178,82.0,31,155,10.0,115.0
27179,70.0,2,155,11.0,115.0
27180,79.0,30,40,7.0,112.0
27181,67.0,8,40,8.0,111.0
27182,74.0,32,40,7.0,101.0
27183,62.0,11,40,8.0,103.0
27184,81.0,10,35,10.0,105.0
27185,69.0,2,35,11.0,105.0
27186,70.0,15,40,7.0,102.0
27187,58.0,14,40,8.0,102.0
27188,81.0,29,35,10.0,105.0
27189,69.0,0,35,11.0,105.0
27190,67.0,2,40,7.0,101.0
27191,55.0,7,40,8.0,101.0
27192,62.0,28,40,7.0,102.0
27193,50.0,13,40,8.0,101.0
27194,79.0,10,35,10.0,105.0
27195,67.0,2,35,11.0,105.0
27196,55.0,19,40,7.0,103.0
27197,43.0,7,40,8.0,103.0
27198,76.0,30,40,7.0,111.0
27199,64.0,0,40,8.0,114.0
27200,69.0,0,60,10.0,106.0
27201,86.0,2,60,10.0,106.0
27202,76.0,0,60,11.0,106.0
27203,74.0,2,60,11.0,106.0
27204,77.0,24,40,7.0,102.0
27205,65.0,8,40,8.0,102.0
27206,80.0,32,40,7.0,107.0
27207,68.0,8,40,8.0,106.0
27208,52.0,0,120,12.0,79.0
27209,57.0,3,120,12.0,79.0
27210,57.0,1,120,13.0,79.0
27211,45.0,5,120,14.0,79.0
27212,81.0,1,40,7.0,112.0
27213,69.0,3,40,8.0,113.0
27214,85.0,0,60,10.0,90.0
27215,69.0,35,60,10.0,90.0
27216,73.0,1,60,11.0,90.0
27217,76.0,0,60,11.0,90.0
27218,76.0,28,40,7.0,105.0
27219,64.0,3,40,8.0,102.0
27220,73.0,34,40,7.0,102.0
27221,69.0,0,120,6.0,121.0
27222,57.0,5,0,6.0,121.0
27223,61.0,11,40,8.0,107.0
27224,45.0,9,120,15.0,64.0
27225,69.0,27,40,7.0,105.0
27226,57.0,2,40,8.0,105.0
27227,64.0,26,40,7.0,107.0
27228,52.0,4,40,8.0,109.0
27229,57.0,32,25,7.0,107.0
27230,45.0,8,25,8.0,107.0
27231,69.0,0,120,6.0,121.0
27232,64.0,0,360,4.0,94.0
27233,57.0,2,360,4.0,94.0
27234,45.0,10,120,15.0,64.0
27235,69.0,32,40,7.0,113.0
27236,57.0,3,40,8.0,113.0
27237,71.0,25,40,7.0,97.0
27238,59.0,11,40,8.0,103.0
27239,73.0,29,40,7.0,103.0
27240,62.0,1,120,6.0,121.0
27241,74.0,0,120,6.0,121.0
27242,62.0,0,120,4.0,94.0
27243,50.0,1,120,4.0,94.0
27244,61.0,7,40,8.0,103.0
27245,53.0,3,120,12.0,66.0
27246,57.0,0,120,12.0,66.0
27247,50.0,1,120,13.0,66.0
27248,38.0,2,120,14.0,66.0
27249,74.0,3,155,10.0,115.0
27250,74.0,2,155,11.0,115.0
27251,74.0,32,40,7.0,114.0
27252,62.0,10,40,8.0,114.0
27253,50.0,13,0,15.0,60.0
27254,69.0,30,40,7.0,106.0
27255,57.0,12,40,8.0,103.0
27256,69.0,9,35,10.0,105.0
27257,69.0,2,35,11.0,105.0
27258,65.0,6,40,7.0,103.0
27259,53.0,4,40,8.0,97.0
27260,69.0,35,35,10.0,105.0
27261,69.0,2,35,11.0,105.0
27262,62.0,1,40,7.0,99.0
27263,50.0,2,40,8.0,97.0
27264,50.0,13,0,15.0,62.0
27265,57.0,23,40,7.0,96.0
27266,45.0,9,40,8.0,99.0
27267,62.0,13,35,10.0,105.0
27268,62.0,2,35,11.0,105.0
27269,50.0,6,40,7.0,100.0
27270,38.0,8,40,8.0,96.0
27271,73.0,2,40,7.0,116.0
27272,61.0,3,40,8.0,114.0
27273,74.0,26,40,7.0,100.0
27274,62.0,8,40,8.0,100.0
27275,76.0,32,40,7.0,97.0
27276,74.0,1,120,6.0,110.0
27277,62.0,0,120,6.0,110.0
27278,50.0,0,120,4.0,94.0
27279,62.0,1,120,4.0,94.0
27280,64.0,4,40,8.0,96.0
27281,57.0,0,120,12.0,72.0
27282,62.0,0,120,12.0,72.0
27283,50.0,1,120,13.0,72.0
27284,38.0,5,120,14.0,72.0
27285,77.0,31,155,10.0,115.0
27286,77.0,0,155,11.0,115.0
27287,77.0,35,40,7.0,116.0
27288,65.0,7,40,8.0,116.0
27289,50.0,13,0,15.0,63.0
27290,74.0,33,40,7.0,100.0
27291,62.0,7,40,8.0,100.0
27292,69.0,13,35,10.0,105.0
27293,69.0,2,35,11.0,105.0
27294,69.0,3,40,7.0,100.0
27295,57.0,12,40,8.0,99.0
27296,69.0,0,35,10.0,105.0
27297,69.0,2,35,11.0,105.0
27298,65.0,30,40,7.0,101.0
27299,53.0,4,40,8.0,100.0
27300,50.0,13,0,15.0,64.0
27301,62.0,26,40,7.0,101.0
27302,50.0,7,40,8.0,101.0
27303,62.0,12,35,10.0,105.0
27304,62.0,2,35,11.0,105.0
27305,53.0,6,25,7.0,100.0
27306,41.0,7,25,8.0,100.0
27307,76.0,2,40,7.0,120.0
27308,64.0,0,40,8.0,117.0
27309,77.0,28,40,7.0,100.0
27310,65.0,6,40,8.0,102.0
27311,79.0,32,40,7.0,102.0
27312,62.0,1,120,6.0,110.0
27313,74.0,0,120,6.0,110.0
27314,50.0,1,120,4.0,94.0
27315,62.0,0,120,4.0,94.0
27316,65.0,3,120,12.0,81.0
27317,62.0,0,120,12.0,81.0
27318,67.0,6,40,8.0,101.0
27319,50.0,1,120,13.0,81.0
27320,38.0,5,120,14.0,81.0
27321,81.0,32,155,10.0,115.0
27322,81.0,0,155,11.0,115.0
27323,81.0,34,40,7.0,121.0
27324,69.0,10,40,8.0,120.0
27325,50.0,13,0,15.0,66.0
27326,77.0,29,40,7.0,101.0
27327,65.0,7,40,8.0,102.0
27328,74.0,13,35,10.0,105.0
27329,74.0,2,35,11.0,105.0
27330,74.0,5,40,7.0,103.0
27331,62.0,10,40,8.0,100.0
27332,50.0,9,0,15.0,67.0
27333,74.0,30,35,10.0,105.0
27334,74.0,2,35,11.0,105.0
27335,69.0,1,40,7.0,101.0
27336,57.0,3,40,8.0,101.0
27337,50.0,13,0,15.0,67.0
27338,65.0,23,40,7.0,101.0
27339,53.0,7,40,8.0,101.0
27340,69.0,15,35,10.0,105.0
27341,69.0,2,35,11.0,105.0
27342,57.0,7,40,7.0,105.0
27343,45.0,6,40,8.0,102.0
27344,81.0,1,40,7.0,120.0
27345,69.0,0,40,8.0,120.0
27346,83.0,26,40,7.0,101.0
27347,71.0,8,40,8.0,101.0
27348,85.0,31,40,7.0,105.0
27349,62.0,1,120,6.0,110.0
27350,74.0,0,120,6.0,110.0
27351,50.0,1,120,4.0,94.0
27352,62.0,0,120,4.0,94.0
27353,73.0,6,40,8.0,106.0
27354,65.0,3,120,12.0,88.0
27355,57.0,0,120,12.0,88.0
27356,50.0,1,120,13.0,88.0
27357,38.0,5,120,14.0,88.0
27358,86.0,32,155,10.0,115.0
27359,74.0,1,155,11.0,115.0
27360,86.0,34,40,7.0,120.0
27361,74.0,8,40,8.0,124.0
27362,50.0,2,180,15.0,69.0
27363,81.0,35,40,7.0,102.0
27364,69.0,3,40,8.0,102.0
27365,81.0,14,35,10.0,105.0
27366,69.0,2,35,11.0,105.0
27367,77.0,6,40,7.0,102.0
27368,65.0,7,40,8.0,103.0
27369,50.0,10,0,15.0,70.0
27370,81.0,2,35,10.0,105.0
27371,69.0,2,35,11.0,105.0
27372,74.0,30,40,7.0,106.0
27373,62.0,3,40,8.0,106.0
27374,50.0,13,0,15.0,71.0
27375,69.0,24,40,7.0,105.0
27376,57.0,11,40,8.0,103.0
27377,74.0,10,35,10.0,105.0
27378,62.0,2,35,11.0,105.0
27379,62.0,6,25,7.0,106.0
27380,50.0,10,25,8.0,106.0
27381,85.0,28,40,7.0,106.0
27382,73.0,3,40,8.0,107.0
27383,57.0,1,60,10.0,116.0
27384,57.0,2,60,11.0,116.0
27385,86.0,26,40,7.0,105.0
27386,74.0,5,40,8.0,106.0
27387,45.0,1,102,3.0,103.0
27388,88.0,34,40,7.0,109.0
27389,69.0,1,120,6.0,110.0
27390,57.0,3,120,12.0,96.0
27391,45.0,1,120,13.0,96.0
27392,76.0,8,40,8.0,107.0
27393,33.0,1,120,14.0,96.0
27394,45.0,2,120,15.0,71.0
27395,89.0,0,40,7.0,109.0
27396,77.0,5,40,8.0,109.0
27397,88.0,22,40,7.0,109.0
27398,76.0,13,40,8.0,109.0
27399,65.0,32,102,10.0,105.0
27400,74.0,0,102,0.0,104.0
27401,77.0,1,102,0.0,104.0
27402,62.0,1,102,11.0,105.0
27403,53.0,0,102,3.0,103.0
27404,50.0,5,102,3.0,103.0
27405,89.0,29,40,7.0,109.0
27406,77.0,8,40,8.0,110.0
27407,45.0,3,120,15.0,73.0
27408,91.0,1,40,7.0,110.0
27409,79.0,8,40,8.0,109.0
27410,89.0,28,40,7.0,110.0
27411,77.0,2,40,8.0,110.0
27412,67.0,33,102,10.0,105.0
27413,76.0,1,102,0.0,104.0
27414,79.0,0,102,0.0,104.0
27415,64.0,0,102,11.0,105.0
27416,55.0,0,102,3.0,103.0
27417,52.0,2,102,3.0,103.0
27418,91.0,36,40,7.0,110.0
27419,79.0,9,40,8.0,110.0
27420,45.0,3,0,15.0,81.0
27421,93.0,1,40,7.0,112.0
27422,81.0,5,40,8.0,110.0
27423,91.0,28,40,7.0,111.0
27424,79.0,2,40,8.0,111.0
27425,69.0,30,102,10.0,105.0
27426,77.0,0,102,0.0,104.0
27427,81.0,1,102,0.0,104.0
27428,65.0,0,102,11.0,105.0
27429,53.0,0,102,3.0,103.0
27430,57.0,5,102,3.0,103.0
27431,93.0,34,40,7.0,110.0
27432,81.0,7,40,8.0,112.0
27433,95.0,1,40,7.0,113.0
27434,83.0,8,40,8.0,112.0
27435,93.0,25,40,7.0,111.0
27436,81.0,7,40,8.0,111.0
27437,71.0,34,102,10.0,105.0
27438,79.0,0,102,0.0,104.0
27439,83.0,1,102,0.0,104.0
27440,67.0,1,102,11.0,105.0
27441,57.0,1,585,4.0,94.0
27442,45.0,0,585,4.0,94.0
27443,59.0,0,102,3.0,103.0
27444,55.0,1,102,3.0,103.0
27445,95.0,36,40,7.0,113.0
27446,83.0,4,40,8.0,113.0
27447,45.0,3,120,15.0,83.0
27448,97.0,30,40,7.0,113.0
27449,85.0,2,40,8.0,113.0
27450,95.0,28,40,7.0,113.0
27451,83.0,3,40,8.0,113.0
27452,73.0,3,102,10.0,105.0
27453,76.0,0,102,0.0,104.0
27454,85.0,1,102,0.0,104.0
27455,97.0,32,25,7.0,113.0
27456,64.0,1,102,11.0,105.0
27457,45.0,2,100,13.0,105.0
27458,45.0,0,105,4.0,94.0
27459,57.0,2,105,4.0,94.0
27460,85.0,7,25,8.0,114.0
27461,33.0,1,100,14.0,105.0
27462,52.0,0,102,3.0,103.0
27463,61.0,4,102,3.0,103.0
27464,45.0,2,120,15.0,87.0
27465,86.0,3,30,10.0,105.0
27466,62.0,1,30,11.0,105.0
27467,74.0,0,30,11.0,105.0
27468,98.0,32,40,7.0,116.0
27469,74.0,1,30,12.0,105.0
27470,50.0,2,30,15.0,87.0
27471,86.0,3,40,8.0,117.0
27472,93.0,22,40,7.0,116.0
27473,81.0,11,40,8.0,117.0
27474,81.0,12,30,10.0,105.0
27475,69.0,7,30,12.0,105.0
27476,45.0,8,30,15.0,87.0
27477,89.0,6,40,7.0,117.0
27478,77.0,5,40,8.0,114.0
27479,50.0,1,120,13.0,105.0
27480,38.0,1,120,14.0,105.0
27481,81.0,34,30,10.0,105.0
27482,81.0,2,30,11.0,105.0
27483,69.0,5,30,12.0,105.0
27484,86.0,0,40,7.0,117.0
27485,45.0,7,30,15.0,87.0
27486,74.0,0,165,6.0,110.0
27487,62.0,1,165,6.0,110.0
27488,74.0,1,40,8.0,117.0
27489,50.0,0,165,4.0,94.0
27490,62.0,1,165,4.0,94.0
27491,81.0,26,40,7.0,114.0
27492,69.0,5,40,8.0,117.0
27493,74.0,14,30,10.0,105.0
27494,74.0,0,30,6.0,110.0
27495,62.0,3,30,6.0,110.0
27496,62.0,1,30,4.0,94.0
27497,50.0,0,30,4.0,94.0
27498,62.0,3,30,12.0,105.0
27499,62.0,1,30,13.0,105.0
27500,50.0,7,30,15.0,87.0
27501,77.0,7,40,7.0,116.0
27502,65.0,4,40,8.0,114.0
27503,74.0,34,30,10.0,105.0
27504,74.0,2,30,11.0,105.0
27505,74.0,0,30,6.0,110.0
27506,62.0,0,30,6.0,110.0
27507,50.0,1,30,4.0,94.0
27508,62.0,0,30,4.0,94.0
27509,62.0,3,30,12.0,105.0
27510,62.0,1,30,13.0,105.0
27511,74.0,1,40,7.0,117.0
27512,50.0,5,30,15.0,87.0
27513,62.0,2,40,8.0,117.0
27514,69.0,23,40,7.0,116.0
27515,57.0,11,40,8.0,117.0
27516,69.0,11,30,10.0,105.0
27517,57.0,3,30,6.0,110.0
27518,69.0,0,30,6.0,110.0
27519,57.0,0,30,4.0,94.0
27520,45.0,1,30,4.0,94.0
27521,69.0,3,30,12.0,105.0
27522,57.0,1,30,13.0,105.0
27523,45.0,7,30,15.0,87.0
27524,65.0,4,40,7.0,117.0
27525,53.0,6,40,8.0,117.0
27526,69.0,35,30,10.0,105.0
27527,69.0,1,30,11.0,105.0
27528,69.0,3,30,12.0,105.0
27529,57.0,1,30,13.0,105.0
27530,86.0,1,40,7.0,117.0
27531,45.0,2,30,15.0,87.0
27532,74.0,0,40,8.0,117.0
27533,81.0,28,40,7.0,117.0
27534,62.0,9,30,10.0,105.0
27535,69.0,8,40,8.0,117.0
27536,62.0,7,30,12.0,105.0
27537,50.0,1,30,13.0,105.0
27538,50.0,7,30,15.0,87.0
27539,77.0,4,40,7.0,117.0
27540,65.0,10,40,8.0,117.0
27541,38.0,5,120,14.0,105.0
27542,62.0,3,30,10.0,105.0
27543,62.0,2,30,11.0,105.0
27544,62.0,5,30,12.0,105.0
27545,74.0,28,40,7.0,117.0
27546,50.0,1,30,13.0,105.0
27547,50.0,4,30,15.0,87.0
27548,57.0,0,165,6.0,110.0
27549,69.0,1,165,6.0,110.0
27550,45.0,1,165,4.0,94.0
27551,57.0,0,165,4.0,94.0
27552,62.0,3,40,8.0,117.0
27553,69.0,22,40,7.0,117.0
27554,57.0,8,40,8.0,117.0
27555,57.0,15,30,10.0,105.0
27556,69.0,3,30,6.0,110.0
27557,57.0,1,30,4.0,94.0
27558,57.0,3,30,12.0,105.0
27559,45.0,1,30,13.0,105.0
27560,45.0,7,30,15.0,87.0
27561,65.0,7,40,7.0,117.0
27562,53.0,3,40,8.0,117.0
27563,57.0,3,30,10.0,105.0
27564,57.0,2,30,11.0,105.0
27565,69.0,1,30,6.0,110.0
27566,57.0,1,30,4.0,94.0
27567,62.0,32,40,7.0,117.0
27568,57.0,0,30,12.0,105.0
27569,45.0,1,30,13.0,105.0
27570,45.0,7,30,15.0,87.0
27571,50.0,3,40,8.0,117.0
27572,57.0,24,40,7.0,117.0
27573,45.0,9,40,8.0,117.0
27574,62.0,12,30,10.0,105.0
27575,62.0,3,30,6.0,110.0
27576,50.0,1,30,4.0,94.0
27577,50.0,3,30,12.0,105.0
27578,38.0,1,30,13.0,105.0
27579,50.0,7,30,15.0,87.0
27580,53.0,5,25,7.0,117.0
27581,41.0,5,25,8.0,117.0
27582,86.0,1,810,0.0,104.0
27583,77.0,0,810,0.0,104.0
27584,69.0,0,810,1.0,103.0
27585,74.0,0,810,1.0,103.0
27586,74.0,0,810,2.0,102.0
27587,65.0,2,810,2.0,102.0
27588,50.0,0,810,3.0,103.0
27589,62.0,1,810,3.0,103.0
27590,50.0,2,90,15.0,87.0
27591,62.0,35,210,10.0,105.0
27592,62.0,0,210,11.0,105.0
27593,62.0,1,210,6.0,110.0
27594,50.0,1,210,4.0,94.0
27595,50.0,3,210,12.0,105.0
27596,38.0,1,210,13.0,105.0
27597,38.0,3,210,14.0,105.0
27598,38.0,0,330,8.0,127.0
27599,50.0,2,330,7.0,127.0
27600,26.0,2,330,8.0,127.0
27601,50.0,2,120,15.0,94.0
27602,77.0,333,240,7.0,127.0
27603,53.0,1,240,8.0,127.0
27604,74.0,1,240,7.0,127.0
27605,62.0,0,240,8.0,127.0
27606,69.0,0,240,7.0,127.0
27607,65.0,4,240,7.0,127.0
27608,57.0,3,240,8.0,127.0
27609,50.0,1,240,8.0,127.0
27610,77.0,2,240,10.0,103.0
27611,69.0,0,240,10.0,103.0
27612,77.0,1,240,0.0,102.0
27613,74.0,1,240,11.0,103.0
27614,69.0,0,240,11.0,103.0
27615,62.0,0,240,11.0,103.0
27616,74.0,0,240,6.0,108.0
27617,62.0,1,240,6.0,108.0
27618,74.0,0,240,1.0,101.0
27619,77.0,0,240,1.0,101.0
27620,62.0,0,240,4.0,92.0
27621,50.0,1,240,4.0,92.0
27622,62.0,2,240,5.0,92.0
27623,65.0,0,240,5.0,92.0
27624,77.0,0,240,2.0,100.0
27625,69.0,0,240,2.0,100.0
27626,62.0,0,240,12.0,103.0
27627,50.0,1,240,12.0,103.0
27628,57.0,0,240,12.0,103.0
27629,57.0,0,240,13.0,103.0
27630,50.0,1,240,13.0,103.0
27631,50.0,0,240,3.0,101.0
27632,57.0,4,240,3.0,101.0
27633,38.0,1,240,14.0,103.0
27634,50.0,2,120,15.0,94.0
27635,69.0,332,240,7.0,127.0
27636,81.0,2,240,7.0,127.0
27637,65.0,1,240,8.0,127.0
27638,77.0,0,240,7.0,127.0
27639,74.0,2,240,7.0,127.0
27640,62.0,2,240,8.0,127.0
27641,57.0,1,240,8.0,127.0
27642,53.0,3,240,8.0,127.0
27643,69.0,0,240,10.0,103.0
27644,81.0,2,240,10.0,103.0
27645,81.0,1,240,0.0,102.0
27646,77.0,1,240,11.0,103.0
27647,69.0,0,240,11.0,103.0
27648,62.0,0,240,11.0,103.0
27649,62.0,0,240,6.0,108.0
27650,74.0,1,240,6.0,108.0
27651,74.0,0,240,1.0,101.0
27652,50.0,1,240,4.0,92.0
27653,62.0,0,240,4.0,92.0
27654,81.0,0,240,1.0,101.0
27655,77.0,0,240,2.0,100.0
27656,69.0,2,240,2.0,100.0
27657,65.0,0,240,5.0,92.0
27658,62.0,0,240,5.0,92.0
27659,62.0,1,240,12.0,103.0
27660,65.0,0,240,12.0,103.0
27661,50.0,0,240,12.0,103.0
27662,57.0,0,240,13.0,103.0
27663,50.0,1,240,13.0,103.0
27664,50.0,0,240,3.0,101.0
27665,62.0,4,240,3.0,101.0
27666,38.0,1,240,14.0,103.0
27667,50.0,2,120,15.0,94.0
27668,86.0,332,240,7.0,127.0
27669,77.0,1,240,7.0,127.0
27670,65.0,1,240,8.0,127.0
27671,57.0,3,240,8.0,127.0
27672,74.0,0,240,7.0,127.0
27673,81.0,3,240,7.0,127.0
27674,62.0,3,240,8.0,127.0
27675,69.0,1,240,8.0,127.0
27676,69.0,1,240,10.0,103.0
27677,86.0,0,240,10.0,103.0
27678,86.0,1,240,0.0,102.0
27679,69.0,0,240,11.0,103.0
27680,62.0,1,240,11.0,103.0
27681,77.0,0,240,11.0,103.0
27682,74.0,1,240,6.0,108.0
27683,62.0,0,240,6.0,108.0
27684,62.0,0,240,4.0,92.0
27685,86.0,1,240,1.0,101.0
27686,50.0,0,240,4.0,92.0
27687,74.0,0,240,1.0,101.0
27688,65.0,0,240,5.0,92.0
27689,77.0,0,240,2.0,100.0
27690,69.0,0,240,2.0,100.0
27691,62.0,2,240,5.0,92.0
27692,50.0,0,240,12.0,103.0
27693,65.0,1,240,12.0,103.0
27694,62.0,0,240,12.0,103.0
27695,50.0,0,240,13.0,103.0
27696,57.0,1,240,13.0,103.0
27697,62.0,4,240,3.0,101.0
27698,50.0,0,240,3.0,101.0
27699,38.0,1,240,14.0,103.0
27700,50.0,1,0,15.0,72.0
27701,50.0,14,1,15.0,59.0
27702,50.0,11,4,15.0,52.0
27703,50.0,13,2,15.0,52.0
27704,50.0,14,1,15.0,55.0
27705,50.0,15,0,15.0,55.0
27706,50.0,11,4,15.0,56.0
27707,50.0,15,15,15.0,60.0
27708,50.0,17,15,15.0,63.0
27709,50.0,12,3,15.0,67.0
27710,50.0,13,2,15.0,69.0
27711,50.0,14,1,15.0,70.0
27712,50.0,17,15,15.0,73.0
27713,50.0,13,2,15.0,71.0
27714,50.0,15,0,15.0,72.0
27715,50.0,14,1,15.0,77.0
27716,50.0,14,1,15.0,73.0
27717,50.0,13,2,15.0,73.0
27718,50.0,12,3,15.0,72.0
27719,50.0,12,3,15.0,76.0
27720,50.0,16,15,15.0,70.0
27721,50.0,16,15,15.0,72.0
27722,50.0,13,2,15.0,69.0
27723,50.0,14,1,15.0,71.0
27724,50.0,14,1,15.0,66.0
27725,50.0,14,1,15.0,60.0
27726,50.0,13,2,15.0,59.0
27727,50.0,17,15,15.0,56.0
27728,50.0,15,15,15.0,49.0
27729,62.0,327,720,7.0,127.0
27730,53.0,3,720,7.0,127.0
27731,50.0,1,720,7.0,127.0
27732,57.0,1,720,7.0,127.0
27733,50.0,16,15,15.0,42.0
27734,26.0,5,720,8.0,127.0
27735,38.0,3,720,8.0,127.0
27736,33.0,2,720,8.0,127.0
27737,62.0,1,720,10.0,127.0
27738,74.0,1,720,0.0,102.0
27739,62.0,1,720,11.0,127.0
27740,62.0,1,720,6.0,108.0
27741,62.0,1,720,1.0,101.0
27742,65.0,0,720,1.0,101.0
27743,50.0,0,720,4.0,92.0
27744,38.0,0,720,4.0,92.0
27745,62.0,0,720,5.0,92.0
27746,53.0,0,720,5.0,92.0
27747,57.0,2,720,2.0,100.0
27748,53.0,0,720,2.0,100.0
27749,53.0,1,720,12.0,118.0
27750,57.0,0,720,12.0,118.0
27751,38.0,0,720,13.0,118.0
27752,45.0,1,720,13.0,118.0
27753,38.0,4,720,3.0,101.0
27754,53.0,0,720,3.0,101.0
27755,38.0,1,720,14.0,118.0
