,note,step,duration,channel,velocity
0,76.0,0,96,1.0,80.0
1,64.0,0,96,1.0,80.0
2,64.0,120,192,1.0,80.0
3,76.0,0,192,1.0,80.0
4,76.0,0,192,1.0,80.0
5,64.0,240,192,1.0,80.0
6,76.0,0,216,1.0,80.0
7,64.0,240,216,1.0,80.0
8,76.0,0,192,1.0,80.0
9,64.0,240,192,1.0,80.0
10,64.0,240,192,1.0,80.0
11,76.0,0,192,1.0,80.0
12,48.0,0,192,1.0,80.0
13,72.0,0,192,0.0,80.0
14,45.0,120,192,1.0,80.0
15,76.0,120,216,1.0,80.0
16,72.0,0,216,1.0,80.0
17,64.0,0,216,1.0,80.0
18,76.0,0,192,1.0,80.0
19,72.0,0,192,1.0,80.0
20,64.0,120,192,1.0,80.0
21,72.0,0,384,0.0,80.0
22,48.0,0,384,1.0,80.0
23,45.0,120,384,1.0,80.0
24,72.0,0,192,1.0,80.0
25,76.0,0,192,1.0,80.0
26,64.0,240,192,1.0,80.0
27,47.0,0,192,1.0,80.0
28,43.0,0,192,1.0,80.0
29,71.0,120,192,0.0,80.0
30,71.0,0,216,1.0,80.0
31,76.0,0,216,1.0,80.0
32,64.0,120,216,1.0,80.0
33,74.0,120,192,1.0,80.0
34,76.0,0,192,1.0,80.0
35,64.0,0,192,1.0,80.0
36,74.0,120,384,0.0,80.0
37,47.0,0,384,1.0,80.0
38,50.0,0,384,1.0,80.0
39,76.0,0,192,1.0,80.0
40,74.0,240,192,1.0,80.0
41,64.0,0,192,1.0,80.0
42,48.0,0,192,1.0,80.0
43,45.0,0,192,1.0,80.0
44,72.0,120,192,0.0,80.0
45,64.0,0,216,1.0,80.0
46,72.0,120,216,1.0,80.0
47,76.0,0,216,1.0,80.0
48,76.0,0,192,1.0,80.0
49,64.0,120,192,1.0,80.0
50,48.0,120,384,1.0,80.0
51,52.0,0,384,1.0,80.0
52,76.0,0,384,0.0,80.0
53,64.0,240,192,1.0,80.0
54,76.0,0,192,1.0,80.0
55,74.0,0,192,0.0,80.0
56,47.0,120,192,1.0,80.0
57,50.0,0,192,1.0,80.0
58,74.0,0,216,1.0,80.0
59,76.0,120,216,1.0,80.0
60,64.0,0,216,1.0,80.0
61,77.0,0,192,0.0,80.0
62,76.0,120,192,1.0,80.0
63,77.0,0,192,1.0,80.0
64,64.0,0,192,1.0,80.0
65,50.0,0,384,1.0,80.0
66,53.0,120,384,1.0,80.0
67,77.0,0,192,1.0,80.0
68,76.0,0,192,1.0,80.0
69,64.0,240,192,1.0,80.0
70,76.0,0,192,0.0,80.0
71,52.0,120,192,1.0,80.0
72,48.0,0,192,1.0,80.0
73,64.0,120,216,1.0,80.0
74,76.0,0,216,1.0,80.0
75,76.0,0,192,1.0,80.0
76,74.0,120,192,1.0,80.0
77,64.0,0,192,1.0,80.0
78,47.0,0,384,1.0,80.0
79,74.0,120,384,0.0,80.0
80,50.0,0,384,1.0,80.0
81,64.0,0,192,1.0,80.0
82,74.0,0,192,1.0,80.0
83,76.0,240,192,1.0,80.0
84,45.0,0,192,1.0,80.0
85,72.0,0,192,0.0,80.0
86,48.0,120,192,1.0,80.0
87,76.0,120,216,1.0,80.0
88,64.0,0,216,1.0,80.0
89,72.0,0,216,1.0,80.0
90,76.0,0,192,1.0,80.0
91,71.0,120,192,1.0,80.0
92,64.0,0,192,1.0,80.0
93,43.0,0,384,1.0,80.0
94,71.0,0,384,0.0,80.0
95,47.0,120,384,1.0,80.0
96,76.0,0,192,1.0,80.0
97,71.0,0,192,1.0,80.0
98,64.0,240,192,1.0,80.0
99,45.0,0,192,1.0,80.0
100,41.0,0,192,1.0,80.0
101,69.0,120,192,0.0,80.0
102,69.0,0,216,1.0,80.0
103,64.0,120,216,1.0,80.0
104,76.0,0,216,1.0,80.0
105,64.0,0,192,1.0,80.0
106,76.0,0,192,1.0,80.0
107,68.0,120,192,1.0,80.0
108,44.0,120,384,1.0,80.0
109,71.0,0,384,0.0,80.0
110,76.0,0,192,1.0,80.0
111,64.0,0,192,1.0,80.0
112,68.0,240,192,1.0,80.0
113,40.0,0,576,1.0,80.0
114,47.0,120,192,1.0,80.0
115,64.0,0,216,1.0,80.0
116,71.0,0,216,1.0,80.0
117,76.0,120,216,1.0,80.0
118,76.0,0,192,1.0,80.0
119,64.0,120,192,1.0,80.0
120,52.0,120,384,1.0,80.0
121,64.0,0,192,1.0,80.0
122,76.0,240,192,1.0,80.0
123,40.0,0,576,1.0,80.0
124,50.0,0,192,1.0,80.0
125,64.0,120,192,0.0,80.0
126,64.0,0,216,1.0,80.0
127,76.0,120,216,1.0,80.0
128,74.0,0,216,1.0,80.0
129,72.0,0,192,1.0,80.0
130,76.0,120,192,1.0,80.0
131,64.0,0,192,1.0,80.0
132,72.0,0,384,0.0,80.0
133,48.0,120,384,1.0,80.0
134,45.0,0,384,1.0,80.0
135,72.0,0,192,1.0,80.0
136,76.0,240,192,1.0,80.0
137,64.0,0,192,1.0,80.0
138,71.0,0,192,0.0,80.0
139,47.0,0,192,1.0,80.0
140,43.0,120,192,1.0,80.0
141,64.0,120,216,1.0,80.0
142,71.0,0,216,1.0,80.0
143,76.0,0,216,1.0,80.0
144,64.0,120,192,1.0,80.0
145,76.0,0,192,1.0,80.0
146,74.0,0,192,1.0,80.0
147,50.0,120,384,1.0,80.0
148,74.0,0,384,0.0,80.0
149,47.0,0,384,1.0,80.0
150,76.0,0,192,1.0,80.0
151,74.0,0,192,1.0,80.0
152,64.0,240,192,1.0,80.0
153,45.0,0,192,1.0,80.0
154,48.0,120,192,1.0,80.0
155,72.0,0,192,0.0,80.0
156,64.0,0,216,1.0,80.0
157,76.0,120,216,1.0,80.0
158,72.0,0,216,1.0,80.0
159,64.0,0,192,1.0,80.0
160,76.0,120,192,1.0,80.0
161,76.0,0,384,0.0,80.0
162,48.0,0,384,1.0,80.0
163,52.0,120,384,1.0,80.0
164,64.0,240,192,1.0,80.0
165,76.0,0,192,1.0,80.0
166,74.0,0,192,0.0,80.0
167,47.0,120,192,1.0,80.0
168,50.0,0,192,1.0,80.0
169,74.0,0,216,1.0,80.0
170,76.0,0,216,1.0,80.0
171,64.0,120,216,1.0,80.0
172,77.0,120,192,0.0,80.0
173,77.0,120,192,1.0,80.0
174,64.0,0,192,1.0,80.0
175,76.0,0,192,1.0,80.0
176,53.0,0,384,1.0,80.0
177,50.0,0,384,1.0,80.0
178,77.0,0,192,1.0,80.0
179,64.0,0,192,1.0,80.0
180,76.0,240,192,1.0,80.0
181,52.0,120,192,1.0,80.0
182,48.0,0,192,1.0,80.0
183,76.0,0,192,0.0,80.0
184,76.0,0,216,1.0,80.0
185,64.0,120,216,1.0,80.0
186,74.0,120,192,1.0,80.0
187,76.0,0,192,1.0,80.0
188,64.0,0,192,1.0,80.0
189,50.0,0,384,1.0,80.0
190,74.0,120,384,0.0,80.0
191,47.0,0,384,1.0,80.0
192,76.0,240,192,1.0,80.0
193,74.0,0,192,1.0,80.0
194,64.0,0,192,1.0,80.0
195,48.0,0,192,1.0,80.0
196,45.0,0,192,1.0,80.0
197,72.0,120,192,0.0,80.0
198,64.0,0,216,1.0,80.0
199,76.0,0,216,1.0,80.0
200,72.0,120,216,1.0,80.0
201,64.0,120,192,1.0,80.0
202,76.0,0,192,1.0,80.0
203,71.0,0,192,1.0,80.0
204,43.0,0,384,1.0,80.0
205,47.0,0,384,1.0,80.0
206,71.0,120,384,0.0,80.0
207,76.0,240,192,1.0,80.0
208,71.0,0,192,1.0,80.0
209,64.0,0,192,1.0,80.0
210,69.0,0,192,0.0,80.0
211,45.0,120,192,1.0,80.0
212,41.0,0,192,1.0,80.0
213,69.0,0,216,1.0,80.0
214,76.0,0,216,1.0,80.0
215,64.0,120,216,1.0,80.0
216,64.0,0,192,1.0,80.0
217,67.0,0,192,1.0,80.0
218,76.0,120,192,1.0,80.0
219,67.0,0,384,0.0,80.0
220,43.0,0,384,1.0,80.0
221,76.0,0,192,1.0,80.0
222,67.0,0,192,1.0,80.0
223,64.0,240,192,1.0,80.0
224,36.0,120,576,1.0,80.0
225,44.0,120,192,1.0,80.0
226,76.0,0,216,1.0,80.0
227,64.0,120,216,1.0,80.0
228,67.0,0,216,1.0,80.0
229,67.0,0,192,1.0,80.0
230,64.0,120,192,1.0,80.0
231,76.0,0,192,1.0,80.0
232,45.0,120,384,1.0,80.0
233,64.0,0,192,1.0,80.0
234,76.0,0,192,1.0,80.0
235,67.0,240,192,1.0,80.0
236,36.0,0,576,1.0,80.0
237,67.0,120,192,0.0,80.0
238,46.0,0,192,1.0,80.0
239,76.0,0,96,1.0,80.0
240,67.0,120,96,1.0,80.0
241,64.0,0,96,1.0,80.0
242,68.0,120,192,1.0,80.0
243,76.0,0,192,1.0,80.0
244,47.0,0,384,1.0,80.0
245,35.0,120,384,1.0,80.0
246,68.0,0,384,0.0,80.0
247,68.0,240,192,1.0,80.0
248,76.0,0,192,1.0,80.0
249,64.0,120,192,1.0,80.0
250,68.0,0,192,0.0,80.0
251,56.0,0,192,1.0,80.0
252,76.0,120,216,1.0,80.0
253,68.0,0,216,1.0,80.0
254,78.0,120,192,1.0,80.0
255,71.0,0,192,1.0,80.0
256,66.0,0,384,1.0,80.0
257,71.0,0,384,0.0,80.0
258,59.0,120,384,1.0,80.0
259,71.0,240,192,1.0,80.0
260,78.0,0,192,1.0,80.0
261,71.0,0,192,0.0,80.0
262,59.0,0,192,1.0,80.0
263,66.0,120,192,1.0,80.0
264,71.0,0,96,1.0,80.0
265,78.0,0,216,1.0,80.0
266,80.0,0,192,1.0,80.0
267,83.0,120,192,1.0,80.0
268,68.0,120,384,1.0,80.0
269,83.0,240,192,1.0,80.0
270,80.0,0,192,1.0,80.0
271,76.0,0,576,0.0,80.0
272,68.0,0,192,1.0,80.0
273,64.0,120,192,1.0,80.0
274,76.0,0,216,1.0,80.0
275,80.0,120,216,1.0,80.0
276,71.0,0,192,1.0,80.0
277,78.0,120,192,1.0,80.0
278,71.0,120,384,0.0,80.0
279,59.0,0,384,1.0,80.0
280,66.0,0,384,1.0,80.0
281,78.0,240,192,1.0,80.0
282,71.0,0,192,1.0,80.0
283,71.0,120,192,0.0,80.0
284,71.0,0,216,1.0,80.0
285,78.0,120,216,1.0,80.0
286,67.0,0,192,1.0,80.0
287,76.0,120,192,1.0,80.0
288,47.0,0,384,1.0,80.0
289,35.0,120,384,1.0,80.0
290,67.0,0,384,0.0,80.0
291,76.0,240,192,1.0,80.0
292,67.0,0,192,1.0,80.0
293,67.0,0,192,0.0,80.0
294,55.0,0,192,1.0,80.0
295,64.0,120,192,1.0,80.0
296,67.0,0,216,1.0,80.0
297,76.0,120,216,1.0,80.0
298,71.0,120,192,1.0,80.0
299,78.0,0,192,1.0,80.0
300,66.0,0,384,1.0,80.0
301,59.0,0,384,1.0,80.0
302,71.0,120,384,0.0,80.0
303,78.0,0,192,1.0,80.0
304,71.0,240,192,1.0,80.0
305,71.0,0,192,0.0,80.0
306,59.0,0,192,1.0,80.0
307,66.0,120,192,1.0,80.0
308,78.0,120,216,1.0,80.0
309,71.0,0,96,1.0,80.0
310,83.0,0,192,1.0,80.0
311,79.0,120,192,1.0,80.0
312,67.0,120,384,1.0,80.0
313,76.0,0,384,0.0,80.0
314,83.0,240,192,1.0,80.0
315,79.0,0,192,1.0,80.0
316,64.0,0,192,1.0,80.0
317,67.0,120,192,1.0,80.0
318,76.0,120,216,1.0,80.0
319,79.0,0,216,1.0,80.0
320,78.0,0,192,1.0,80.0
321,71.0,120,192,1.0,80.0
322,66.0,0,384,1.0,80.0
323,59.0,120,384,1.0,80.0
324,71.0,240,192,1.0,80.0
325,78.0,0,192,1.0,80.0
326,71.0,120,192,0.0,80.0
327,78.0,120,216,1.0,80.0
328,71.0,0,216,1.0,80.0
329,43.0,0,192,1.0,80.0
330,36.0,0,192,1.0,80.0
331,76.0,0,192,1.0,80.0
332,67.0,120,192,1.0,80.0
333,72.0,0,192,1.0,80.0
334,76.0,120,384,0.0,80.0
335,60.0,120,192,1.0,80.0
336,64.0,0,192,1.0,80.0
337,76.0,0,192,1.0,80.0
338,72.0,0,192,1.0,80.0
339,67.0,120,192,1.0,80.0
340,55.0,0,192,1.0,80.0
341,62.0,0,192,1.0,80.0
342,74.0,120,192,0.0,80.0
343,74.0,0,216,1.0,80.0
344,71.0,120,216,1.0,80.0
345,67.0,0,216,1.0,80.0
346,33.0,0,192,1.0,80.0
347,45.0,0,192,1.0,80.0
348,64.0,0,192,1.0,80.0
349,72.0,0,192,1.0,80.0
350,69.0,120,192,1.0,80.0
351,72.0,120,384,0.0,80.0
352,57.0,120,192,1.0,80.0
353,60.0,0,192,1.0,80.0
354,64.0,120,192,1.0,80.0
355,72.0,0,192,1.0,80.0
356,69.0,0,192,1.0,80.0
357,71.0,0,192,0.0,80.0
358,52.0,120,192,1.0,80.0
359,59.0,0,192,1.0,80.0
360,67.0,0,216,1.0,80.0
361,71.0,0,216,1.0,80.0
362,64.0,120,216,1.0,80.0
363,41.0,0,192,1.0,80.0
364,48.0,0,192,1.0,80.0
365,69.0,0,192,1.0,80.0
366,65.0,120,192,1.0,80.0
367,60.0,0,192,1.0,80.0
368,69.0,0,192,1.0,80.0
369,65.0,0,192,1.0,80.0
370,60.0,120,192,1.0,80.0
371,69.0,120,576,0.0,80.0
372,53.0,120,432,1.0,80.0
373,57.0,0,432,1.0,80.0
374,50.0,120,192,1.0,80.0
375,65.0,0,216,1.0,80.0
376,62.0,120,216,1.0,80.0
377,69.0,0,216,1.0,80.0
378,36.0,0,192,1.0,80.0
379,48.0,0,192,1.0,80.0
380,64.0,120,192,0.0,80.0
381,64.0,0,192,1.0,80.0
382,69.0,0,192,1.0,80.0
383,76.0,120,192,1.0,80.0
384,60.0,0,192,1.0,80.0
385,52.0,120,192,1.0,80.0
386,57.0,0,192,1.0,80.0
387,69.0,0,192,1.0,80.0
388,76.0,120,192,1.0,80.0
389,64.0,0,192,1.0,80.0
390,43.0,0,192,1.0,80.0
391,67.0,0,192,0.0,80.0
392,31.0,120,192,1.0,80.0
393,71.0,0,216,1.0,80.0
394,65.0,0,216,1.0,80.0
395,62.0,120,216,1.0,80.0
396,60.0,120,192,1.0,80.0
397,65.0,0,192,1.0,80.0
398,72.0,0,192,1.0,80.0
399,72.0,120,384,0.0,80.0
400,33.0,0,384,1.0,80.0
401,45.0,0,384,1.0,80.0
402,72.0,240,192,1.0,80.0
403,65.0,0,192,1.0,80.0
404,60.0,0,192,1.0,80.0
405,35.0,0,192,1.0,80.0
406,47.0,0,192,1.0,80.0
407,74.0,120,192,0.0,80.0
408,74.0,0,216,1.0,80.0
409,67.0,120,216,1.0,80.0
410,65.0,0,216,1.0,80.0
411,67.0,0,192,1.0,80.0
412,76.0,0,192,1.0,80.0
413,64.0,120,192,1.0,80.0
414,76.0,120,384,0.0,80.0
415,48.0,0,384,1.0,80.0
416,36.0,0,384,1.0,80.0
417,67.0,0,192,1.0,80.0
418,76.0,0,192,1.0,80.0
419,64.0,240,192,1.0,80.0
420,77.0,0,192,0.0,80.0
421,50.0,120,192,1.0,80.0
422,38.0,0,192,1.0,80.0
423,77.0,120,216,1.0,80.0
424,67.0,0,216,1.0,80.0
425,71.0,0,216,1.0,80.0
426,79.0,0,192,1.0,80.0
427,72.0,120,192,1.0,80.0
428,67.0,0,192,1.0,80.0
429,72.0,0,192,1.0,80.0
430,67.0,0,192,1.0,80.0
431,79.0,240,192,1.0,80.0
432,52.0,0,576,1.0,80.0
433,40.0,0,576,1.0,80.0
434,79.0,120,576,0.0,80.0
435,67.0,0,216,1.0,80.0
436,72.0,0,216,1.0,80.0
437,79.0,240,216,1.0,80.0
438,76.0,0,192,1.0,80.0
439,80.0,0,192,1.0,80.0
440,68.0,0,192,1.0,80.0
441,72.0,120,192,1.0,80.0
442,80.0,0,192,1.0,80.0
443,76.0,0,192,1.0,80.0
444,72.0,0,192,1.0,80.0
445,68.0,240,192,1.0,80.0
446,40.0,0,576,1.0,80.0
447,52.0,120,576,1.0,80.0
448,72.0,120,192,0.0,80.0
449,72.0,0,216,1.0,80.0
450,76.0,120,216,1.0,80.0
451,68.0,0,216,1.0,80.0
452,80.0,0,216,1.0,80.0
453,45.0,120,192,1.0,80.0
454,33.0,0,192,1.0,80.0
455,72.0,0,192,1.0,80.0
456,76.0,0,192,1.0,80.0
457,69.0,120,192,1.0,80.0
458,81.0,0,192,1.0,80.0
459,72.0,0,384,0.0,80.0
460,45.0,0,192,1.0,80.0
461,48.0,0,192,1.0,80.0
462,52.0,120,192,1.0,80.0
463,72.0,120,192,1.0,80.0
464,81.0,0,192,1.0,80.0
465,69.0,0,192,1.0,80.0
466,71.0,0,192,0.0,80.0
467,45.0,120,192,1.0,80.0
468,47.0,0,192,1.0,80.0
469,50.0,0,192,1.0,80.0
470,81.0,0,216,1.0,80.0
471,69.0,120,216,1.0,80.0
472,71.0,0,216,1.0,80.0
473,45.0,0,192,1.0,80.0
474,69.0,0,192,1.0,80.0
475,81.0,0,192,1.0,80.0
476,74.0,120,192,1.0,80.0
477,53.0,0,384,1.0,80.0
478,74.0,0,384,0.0,80.0
479,50.0,120,384,1.0,80.0
480,45.0,120,192,1.0,80.0
481,81.0,120,192,1.0,80.0
482,69.0,0,192,1.0,80.0
483,52.0,0,192,1.0,80.0
484,45.0,0,192,1.0,80.0
485,48.0,120,192,1.0,80.0
486,72.0,0,192,0.0,80.0
487,69.0,0,216,1.0,80.0
488,81.0,120,216,1.0,80.0
489,72.0,0,216,1.0,80.0
490,45.0,0,192,1.0,80.0
491,69.0,0,192,1.0,80.0
492,81.0,120,192,1.0,80.0
493,76.0,0,192,1.0,80.0
494,76.0,0,384,0.0,80.0
495,55.0,0,384,1.0,80.0
496,52.0,120,384,1.0,80.0
497,45.0,120,192,1.0,80.0
498,81.0,0,192,1.0,80.0
499,69.0,120,192,1.0,80.0
500,76.0,0,192,1.0,80.0
501,50.0,0,192,1.0,80.0
502,53.0,120,192,1.0,80.0
503,45.0,0,192,1.0,80.0
504,74.0,0,192,0.0,80.0
505,69.0,120,216,1.0,80.0
506,74.0,0,216,1.0,80.0
507,81.0,0,216,1.0,80.0
508,45.0,0,192,1.0,80.0
509,77.0,120,192,0.0,80.0
510,77.0,120,192,1.0,80.0
511,81.0,0,192,1.0,80.0
512,69.0,0,192,1.0,80.0
513,57.0,0,384,1.0,80.0
514,53.0,0,384,1.0,80.0
515,45.0,120,192,1.0,80.0
516,81.0,120,192,1.0,80.0
517,77.0,0,192,1.0,80.0
518,69.0,0,192,1.0,80.0
519,45.0,0,192,1.0,80.0
520,52.0,0,192,1.0,80.0
521,76.0,0,192,0.0,80.0
522,55.0,120,192,1.0,80.0
523,76.0,120,216,1.0,80.0
524,69.0,0,216,1.0,80.0
525,81.0,0,216,1.0,80.0
526,45.0,0,192,1.0,80.0
527,81.0,0,192,1.0,80.0
528,69.0,120,192,1.0,80.0
529,74.0,0,192,1.0,80.0
530,53.0,0,384,1.0,80.0
531,50.0,0,384,1.0,80.0
532,74.0,120,384,0.0,80.0
533,45.0,120,192,1.0,80.0
534,81.0,0,192,1.0,80.0
535,74.0,0,192,1.0,80.0
536,69.0,120,192,1.0,80.0
537,48.0,0,192,1.0,80.0
538,52.0,0,192,1.0,80.0
539,72.0,120,192,0.0,80.0
540,45.0,0,192,1.0,80.0
541,72.0,0,216,1.0,80.0
542,69.0,0,216,1.0,80.0
543,81.0,120,216,1.0,80.0
544,45.0,0,192,1.0,80.0
545,81.0,120,192,1.0,80.0
546,71.0,0,192,1.0,80.0
547,69.0,0,192,1.0,80.0
548,47.0,120,384,1.0,80.0
549,71.0,0,384,0.0,80.0
550,50.0,0,384,1.0,80.0
551,45.0,120,192,1.0,80.0
552,81.0,0,192,1.0,80.0
553,69.0,0,192,1.0,80.0
554,71.0,120,192,1.0,80.0
555,48.0,0,192,1.0,80.0
556,45.0,0,192,1.0,80.0
557,69.0,120,192,0.0,80.0
558,69.0,0,216,1.0,80.0
559,81.0,120,216,1.0,80.0
560,69.0,120,192,1.0,80.0
561,81.0,0,192,1.0,80.0
562,69.0,0,192,1.0,80.0
563,81.0,240,192,1.0,80.0
564,41.0,0,576,1.0,80.0
565,45.0,0,576,1.0,80.0
566,69.0,0,216,1.0,80.0
567,81.0,240,216,1.0,80.0
568,69.0,120,192,1.0,80.0
569,77.0,0,192,1.0,80.0
570,81.0,0,192,1.0,80.0
571,77.0,0,192,1.0,80.0
572,81.0,240,192,1.0,80.0
573,69.0,0,192,1.0,80.0
574,38.0,0,576,1.0,80.0
575,45.0,120,576,1.0,80.0
576,81.0,240,216,1.0,80.0
577,77.0,0,216,1.0,80.0
578,69.0,0,216,1.0,80.0
579,76.0,120,192,1.0,80.0
580,81.0,0,192,1.0,80.0
581,69.0,0,192,1.0,80.0
582,69.0,120,1824,0.0,80.0
583,69.0,0,192,1.0,80.0
584,76.0,240,192,1.0,80.0
585,81.0,0,192,1.0,80.0
586,45.0,120,576,1.0,80.0
587,40.0,0,576,1.0,80.0
588,33.0,0,576,1.0,80.0
589,69.0,240,216,1.0,80.0
590,73.0,0,216,1.0,80.0
591,81.0,0,216,1.0,80.0
592,57.0,0,576,1.0,80.0
593,61.0,120,576,1.0,80.0
594,64.0,0,576,1.0,80.0
595,69.0,0,504,1.0,80.0
596,81.0,120,504,1.0,80.0
