,note,step,duration,channel,velocity
0,41.0,0,2078,0.0,23.0
1,53.0,2048,2078,0.0,29.0
2,58.0,2048,2078,0.0,38.0
3,70.0,2048,2078,0.0,45.0
4,39.0,0,2078,0.0,27.0
5,54.0,0,8222,0.0,29.0
6,51.0,2048,2078,0.0,31.0
7,71.0,2048,5150,0.0,45.0
8,55.0,2048,2078,0.0,27.0
9,72.0,1024,2078,0.0,49.0
10,52.0,0,4126,0.0,31.0
11,67.0,1024,2078,0.0,37.0
12,73.0,1024,1054,0.0,47.0
13,71.0,1024,1054,0.0,48.0
14,53.0,0,2078,0.0,26.0
15,72.0,1024,1054,0.0,39.0
16,65.0,1024,2078,0.0,39.0
17,68.0,0,4126,0.0,25.0
18,69.0,2048,2078,0.0,38.0
19,81.0,2048,2078,0.0,45.0
20,75.0,0,4126,0.0,36.0
21,66.0,0,8222,0.0,39.0
22,87.0,2048,2078,0.0,44.0
23,67.0,0,1054,0.0,30.0
24,82.0,2048,5150,0.0,49.0
25,55.0,0,2078,0.0,32.0
26,83.0,1024,2078,0.0,53.0
27,88.0,2048,4126,0.0,48.0
28,67.0,1024,2078,0.0,40.0
29,84.0,1024,1054,0.0,51.0
30,76.0,0,4126,0.0,30.0
31,82.0,0,1054,0.0,52.0
32,78.0,0,1054,0.0,33.0
33,90.0,1024,1054,0.0,45.0
34,83.0,1024,1054,0.0,43.0
35,51.0,0,2078,0.0,20.0
36,63.0,1024,2078,0.0,40.0
37,66.0,0,4126,0.0,30.0
38,67.0,0,2078,0.0,41.0
39,83.0,1024,2078,0.0,53.0
40,64.0,2048,4126,0.0,40.0
41,79.0,1024,2078,0.0,48.0
42,84.0,1024,1054,0.0,56.0
43,66.0,0,1054,0.0,38.0
44,82.0,1024,1054,0.0,57.0
45,78.0,0,1054,0.0,50.0
46,39.0,0,2078,0.0,32.0
47,83.0,1024,1054,0.0,51.0
48,54.0,0,2078,0.0,34.0
49,71.0,0,2078,0.0,45.0
50,66.0,1024,2078,0.0,44.0
51,72.0,1024,1054,0.0,54.0
52,51.0,0,2078,0.0,36.0
53,70.0,0,1054,0.0,55.0
54,67.0,0,2048,0.0,33.0
55,64.0,1024,0,0.0,37.0
56,55.0,1024,2078,0.0,31.0
57,71.0,1024,2078,0.0,44.0
58,83.0,0,2078,0.0,60.0
59,67.0,0,2048,0.0,49.0
60,52.0,0,0,0.0,52.0
61,84.0,1024,1054,0.0,67.0
62,79.0,0,2078,0.0,58.0
63,76.0,0,2078,0.0,46.0
64,72.0,0,1054,0.0,51.0
65,64.0,0,0,0.0,48.0
66,55.0,0,0,0.0,36.0
67,58.0,0,0,0.0,36.0
68,61.0,683,0,0.0,40.0
69,64.0,682,0,0.0,46.0
70,58.0,0,0,0.0,35.0
71,61.0,0,0,0.0,35.0
72,55.0,0,0,0.0,35.0
73,73.0,0,2048,0.0,55.0
74,36.0,763,2309,0.0,49.0
75,43.0,87,2222,0.0,40.0
76,48.0,87,2135,0.0,40.0
77,64.0,0,683,0.0,31.0
78,61.0,0,0,0.0,32.0
79,58.0,0,0,0.0,32.0
80,55.0,0,0,0.0,31.0
81,61.0,682,0,0.0,31.0
82,58.0,0,0,0.0,31.0
83,64.0,0,0,0.0,41.0
84,58.0,0,0,0.0,28.0
85,64.0,0,0,0.0,39.0
86,61.0,0,0,0.0,28.0
87,70.0,683,3072,0.0,31.0
88,73.0,0,3072,0.0,43.0
89,67.0,0,3072,0.0,31.0
90,82.0,0,5150,0.0,55.0
91,85.0,0,5150,0.0,74.0
92,64.0,341,0,0.0,37.0
93,58.0,0,0,0.0,27.0
94,55.0,0,0,0.0,27.0
95,61.0,0,0,0.0,27.0
96,84.0,341,1054,0.0,61.0
97,72.0,0,1054,0.0,47.0
98,70.0,0,1054,0.0,48.0
99,82.0,683,1054,0.0,62.0
100,58.0,0,682,0.0,25.0
101,55.0,683,682,0.0,25.0
102,64.0,341,0,0.0,34.0
103,61.0,0,0,0.0,24.0
104,80.0,0,1024,0.0,59.0
105,68.0,0,0,0.0,43.0
106,55.0,0,1366,0.0,24.0
107,58.0,0,1366,0.0,24.0
108,80.0,683,1054,0.0,57.0
109,61.0,0,682,0.0,23.0
110,64.0,0,682,0.0,33.0
111,58.0,0,0,0.0,23.0
112,55.0,0,0,0.0,23.0
113,67.0,0,1054,0.0,43.0
114,79.0,341,1054,0.0,57.0
115,64.0,0,1366,0.0,32.0
116,61.0,341,1366,0.0,23.0
117,55.0,0,0,0.0,22.0
118,58.0,683,0,0.0,22.0
119,70.0,0,1054,0.0,44.0
120,82.0,683,1054,0.0,56.0
121,61.0,0,682,0.0,22.0
122,64.0,0,682,0.0,31.0
123,55.0,341,0,0.0,21.0
124,65.0,341,1024,0.0,40.0
125,77.0,0,1024,0.0,50.0
126,58.0,0,0,0.0,17.0
127,61.0,0,1366,0.0,21.0
128,64.0,0,1366,0.0,30.0
129,55.0,0,0,0.0,17.0
130,65.0,683,1054,0.0,46.0
131,77.0,0,1054,0.0,57.0
132,60.0,683,682,0.0,26.0
133,58.0,341,0,0.0,17.0
134,76.0,341,1054,0.0,55.0
135,64.0,0,1054,0.0,44.0
136,55.0,0,1366,0.0,17.0
137,60.0,0,1366,0.0,25.0
138,58.0,683,0,0.0,15.0
139,79.0,683,1054,0.0,52.0
140,67.0,0,1054,0.0,42.0
141,55.0,0,682,0.0,15.0
142,64.0,0,682,0.0,23.0
143,55.0,0,683,0.0,15.0
144,58.0,0,683,0.0,15.0
145,64.0,341,683,0.0,23.0
146,36.0,422,261,0.0,31.0
147,24.0,0,14336,0.0,52.0
148,73.0,341,1054,0.0,50.0
149,61.0,0,1054,0.0,40.0
150,68.0,0,683,0.0,37.0
151,66.0,0,0,0.0,21.0
152,59.0,0,1024,0.0,47.0
153,71.0,0,1024,0.0,66.0
154,51.0,0,682,0.0,27.0
155,68.0,341,0,0.0,32.0
156,56.0,0,682,0.0,31.0
157,66.0,0,0,0.0,20.0
158,44.0,683,682,0.0,27.0
159,72.0,0,1024,0.0,52.0
160,60.0,341,1024,0.0,40.0
161,44.0,0,683,0.0,26.0
162,48.0,87,2135,0.0,31.0
163,51.0,0,683,0.0,26.0
164,56.0,0,1366,0.0,26.0
165,66.0,0,0,0.0,17.0
166,63.0,0,682,0.0,17.0
167,68.0,683,682,0.0,29.0
168,44.0,0,0,0.0,22.0
169,51.0,682,0,0.0,22.0
170,56.0,0,0,0.0,22.0
171,63.0,0,1366,0.0,16.0
172,68.0,1366,0,0.0,25.0
173,66.0,0,1366,0.0,16.0
174,78.0,0,5120,0.0,69.0
175,75.0,87,5120,0.0,40.0
176,68.0,341,0,0.0,24.0
177,63.0,0,0,0.0,14.0
178,56.0,0,682,0.0,22.0
179,51.0,0,682,0.0,22.0
180,44.0,0,0,0.0,22.0
181,77.0,341,1054,0.0,60.0
182,65.0,0,1054,0.0,46.0
183,63.0,0,683,0.0,44.0
184,56.0,0,1366,0.0,22.0
185,51.0,0,0,0.0,21.0
186,63.0,0,371,0.0,12.0
187,75.0,683,1054,0.0,58.0
188,68.0,683,682,0.0,22.0
189,56.0,0,682,0.0,21.0
190,44.0,0,682,0.0,21.0
191,61.0,683,0,0.0,39.0
192,73.0,0,1024,0.0,55.0
193,63.0,0,683,0.0,11.0
194,68.0,341,683,0.0,20.0
195,56.0,0,1366,0.0,20.0
196,51.0,0,1366,0.0,20.0
197,44.0,0,1366,0.0,20.0
198,63.0,0,341,0.0,28.0
199,68.0,0,1024,0.0,20.0
200,73.0,0,1054,0.0,53.0
201,63.0,341,0,0.0,28.0
202,51.0,0,0,0.0,20.0
203,56.0,0,0,0.0,20.0
204,60.0,0,1054,0.0,39.0
205,72.0,341,1054,0.0,53.0
206,63.0,683,683,0.0,40.0
207,51.0,0,0,0.0,19.0
208,75.0,0,1054,0.0,52.0
209,63.0,0,371,0.0,27.0
210,54.0,683,682,0.0,19.0
211,58.0,0,1024,0.0,36.0
212,70.0,341,1024,0.0,46.0
213,63.0,0,0,0.0,26.0
214,51.0,683,0,0.0,19.0
215,54.0,0,1366,0.0,19.0
216,70.0,0,1054,0.0,53.0
217,58.0,683,1054,0.0,42.0
218,53.0,0,682,0.0,19.0
219,63.0,341,0,0.0,26.0
220,57.0,0,1054,0.0,40.0
221,69.0,341,1054,0.0,51.0
222,53.0,0,1366,0.0,18.0
223,51.0,0,0,0.0,18.0
224,72.0,0,1054,0.0,48.0
225,60.0,683,1054,0.0,38.0
226,63.0,341,0,0.0,25.0
227,57.0,683,682,0.0,18.0
228,51.0,0,0,0.0,17.0
229,24.0,683,14336,0.0,52.0
230,36.0,0,14336,0.0,40.0
231,57.0,0,683,0.0,17.0
232,54.0,0,1054,0.0,36.0
233,66.0,341,1054,0.0,46.0
234,53.0,116,683,0.0,41.0
235,38.0,451,915,0.0,29.0
236,46.0,683,0,0.0,29.0
237,52.0,0,1054,0.0,41.0
238,64.0,0,1054,0.0,55.0
239,58.0,0,682,0.0,29.0
240,53.0,0,341,0.0,40.0
241,46.0,341,0,0.0,29.0
242,56.0,0,0,0.0,41.0
243,70.0,0,2048,0.0,49.0
244,68.0,0,2048,0.0,49.0
245,65.0,341,1054,0.0,53.0
246,53.0,0,713,0.0,29.0
247,80.0,0,2078,0.0,70.0
248,58.0,0,1366,0.0,29.0
249,67.0,0,1054,0.0,50.0
250,55.0,683,1054,0.0,38.0
251,79.0,0,1054,0.0,64.0
252,56.0,0,0,0.0,41.0
253,58.0,341,0,0.0,29.0
254,53.0,0,0,0.0,29.0
255,46.0,0,682,0.0,29.0
256,68.0,341,1024,0.0,49.0
257,26.0,0,4096,0.0,52.0
258,65.0,0,1054,0.0,47.0
259,77.0,0,1054,0.0,61.0
260,56.0,683,683,0.0,41.0
261,46.0,0,1366,0.0,29.0
262,53.0,0,0,0.0,29.0
263,75.0,0,1054,0.0,59.0
264,63.0,0,1054,0.0,45.0
265,46.0,683,682,0.0,29.0
266,58.0,0,0,0.0,29.0
267,56.0,341,0,0.0,41.0
268,68.0,0,2048,0.0,55.0
269,74.0,0,1054,0.0,59.0
270,62.0,341,1054,0.0,45.0
271,53.0,0,1366,0.0,29.0
272,58.0,683,0,0.0,41.0
273,46.0,0,1366,0.0,29.0
274,77.0,0,1054,0.0,58.0
275,65.0,683,1054,0.0,46.0
276,56.0,0,682,0.0,29.0
277,50.0,0,0,0.0,29.0
278,58.0,0,683,0.0,41.0
279,56.0,341,683,0.0,29.0
280,41.0,0,4096,0.0,52.0
281,29.0,0,4096,0.0,40.0
282,60.0,341,1054,0.0,42.0
283,72.0,0,1054,0.0,52.0
284,43.0,451,915,0.0,33.0
285,58.0,0,683,0.0,45.0
286,51.0,116,799,0.0,33.0
287,57.0,0,1054,0.0,44.0
288,69.0,0,1054,0.0,56.0
289,58.0,0,341,0.0,39.0
290,51.0,341,0,0.0,33.0
291,63.0,0,0,0.0,33.0
292,61.0,0,0,0.0,45.0
293,73.0,0,2048,0.0,51.0
294,75.0,116,2048,0.0,51.0
295,58.0,0,713,0.0,33.0
296,70.0,341,1054,0.0,52.0
297,85.0,0,2078,0.0,72.0
298,61.0,0,0,0.0,45.0
299,58.0,683,0,0.0,33.0
300,51.0,0,0,0.0,33.0
301,72.0,0,1054,0.0,52.0
302,84.0,0,1054,0.0,66.0
303,60.0,683,1054,0.0,41.0
304,61.0,0,341,0.0,39.0
305,63.0,341,0,0.0,33.0
306,61.0,0,683,0.0,45.0
307,73.0,0,1024,0.0,52.0
308,31.0,0,4096,0.0,52.0
309,82.0,341,1054,0.0,63.0
310,70.0,0,1054,0.0,49.0
311,58.0,0,1366,0.0,33.0
312,61.0,0,683,0.0,44.0
313,51.0,683,0,0.0,33.0
314,80.0,0,1054,0.0,61.0
315,68.0,683,1054,0.0,47.0
316,61.0,0,0,0.0,45.0
317,58.0,0,0,0.0,33.0
318,51.0,0,0,0.0,33.0
319,63.0,341,0,0.0,33.0
320,73.0,0,2048,0.0,56.0
321,79.0,341,1054,0.0,61.0
322,67.0,0,1054,0.0,47.0
323,63.0,683,0,0.0,33.0
324,58.0,0,0,0.0,33.0
325,70.0,0,1054,0.0,48.0
326,82.0,683,1054,0.0,60.0
327,55.0,0,682,0.0,33.0
328,61.0,0,682,0.0,45.0
329,63.0,0,683,0.0,33.0
330,61.0,0,683,0.0,45.0
331,58.0,0,683,0.0,33.0
332,55.0,341,683,0.0,33.0
333,46.0,0,4096,0.0,40.0
334,34.0,0,4096,0.0,52.0
335,77.0,0,1054,0.0,54.0
336,65.0,341,1054,0.0,44.0
337,74.0,0,1024,0.0,56.0
338,62.0,0,1024,0.0,44.0
339,63.0,0,341,0.0,39.0
340,56.0,0,682,0.0,33.0
341,68.0,0,0,0.0,46.0
342,75.0,341,1024,0.0,52.0
343,63.0,0,683,0.0,33.0
344,90.0,0,2048,0.0,72.0
345,80.0,0,2048,0.0,51.0
346,78.0,0,2048,0.0,51.0
347,68.0,683,0,0.0,46.0
348,56.0,0,0,0.0,34.0
349,65.0,0,1024,0.0,45.0
350,77.0,0,1024,0.0,52.0
351,89.0,683,1024,0.0,66.0
352,63.0,341,0,0.0,34.0
353,56.0,0,0,0.0,34.0
354,75.0,0,1024,0.0,49.0
355,87.0,341,1024,0.0,63.0
356,66.0,0,1024,0.0,48.0
357,78.0,0,1024,0.0,61.0
358,36.0,422,4357,0.0,52.0
359,44.0,87,4270,0.0,52.0
360,48.0,87,4183,0.0,52.0
361,51.0,87,4096,0.0,52.0
362,68.0,0,1366,0.0,47.0
363,86.0,0,1024,0.0,63.0
364,74.0,0,1024,0.0,49.0
365,69.0,683,682,0.0,47.0
366,63.0,341,0,0.0,35.0
367,57.0,0,0,0.0,35.0
368,75.0,0,1024,0.0,47.0
369,87.0,341,1024,0.0,61.0
370,66.0,683,2048,0.0,53.0
371,78.0,0,2048,0.0,65.0
372,69.0,0,1366,0.0,48.0
373,57.0,683,0,0.0,35.0
374,63.0,0,0,0.0,35.0
375,77.0,0,1024,0.0,52.0
376,89.0,683,1024,0.0,64.0
377,65.0,0,1024,0.0,55.0
378,63.0,341,0,0.0,36.0
379,69.0,0,682,0.0,48.0
380,35.0,0,4096,0.0,52.0
381,47.0,0,4096,0.0,40.0
382,90.0,0,0,0.0,74.0
383,78.0,0,0,0.0,55.0
384,75.0,341,1024,0.0,60.0
385,57.0,0,1366,0.0,36.0
386,69.0,0,1366,0.0,49.0
387,74.0,0,1024,0.0,56.0
388,62.0,683,1024,0.0,44.0
389,70.0,341,0,0.0,49.0
390,63.0,0,0,0.0,37.0
391,58.0,0,0,0.0,37.0
392,75.0,341,1024,0.0,52.0
393,65.0,0,1024,0.0,41.0
394,89.0,683,1024,0.0,70.0
395,77.0,0,1024,0.0,56.0
396,63.0,0,682,0.0,38.0
397,58.0,341,0,0.0,39.0
398,70.0,0,682,0.0,51.0
399,46.0,0,4096,0.0,43.0
400,34.0,0,4096,0.0,55.0
401,87.0,0,1024,0.0,67.0
402,78.0,0,0,0.0,66.0
403,75.0,0,1024,0.0,53.0
404,66.0,0,0,0.0,54.0
405,70.0,0,1366,0.0,53.0
406,63.0,0,0,0.0,42.0
407,74.0,0,1024,0.0,53.0
408,86.0,0,1024,0.0,67.0
409,59.0,341,0,0.0,42.0
410,71.0,0,0,0.0,58.0
411,75.0,0,1024,0.0,51.0
412,87.0,341,1024,0.0,65.0
413,63.0,0,1366,0.0,42.0
414,76.0,0,1024,0.0,54.0
415,88.0,683,1024,0.0,68.0
416,64.0,0,1024,0.0,48.0
417,59.0,683,682,0.0,44.0
418,63.0,0,341,0.0,51.0
419,71.0,0,682,0.0,60.0
420,63.0,0,683,0.0,46.0
421,66.0,341,1024,0.0,51.0
422,78.0,0,1024,0.0,59.0
423,71.0,0,683,0.0,62.0
424,33.0,0,4096,0.0,57.0
425,59.0,341,683,0.0,46.0
426,75.0,0,1024,0.0,63.0
427,45.0,683,4096,0.0,33.0
428,90.0,0,1024,0.0,70.0
429,79.0,0,512,0.0,58.0
430,71.0,0,512,0.0,52.0
431,88.0,0,512,0.0,58.0
432,91.0,0,512,0.0,72.0
433,64.0,0,512,0.0,52.0
434,67.0,0,512,0.0,52.0
435,83.0,0,512,0.0,58.0
436,76.0,0,512,0.0,64.0
437,31.0,0,512,0.0,59.0
438,52.0,116,4096,0.0,43.0
439,47.0,116,4212,0.0,43.0
440,43.0,451,4328,0.0,43.0
441,71.0,2048,4096,0.0,36.0
442,79.0,0,4096,0.0,45.0
443,83.0,0,4096,0.0,52.0
444,67.0,0,2048,0.0,28.0
445,64.0,2048,4096,0.0,45.0
446,72.0,2048,2048,0.0,36.0
447,84.0,0,2048,0.0,52.0
448,70.0,0,1024,0.0,28.0
449,82.0,0,1024,0.0,44.0
450,65.0,0,1024,0.0,28.0
451,37.0,2048,4096,0.0,30.0
452,77.0,2048,4096,0.0,53.0
453,65.0,0,4096,0.0,36.0
454,70.0,0,4096,0.0,36.0
455,65.0,2048,2048,0.0,33.0
456,67.0,0,2048,0.0,24.0
457,70.0,0,2048,0.0,24.0
458,79.0,0,2048,0.0,41.0
459,49.0,2048,4096,0.0,35.0
460,67.0,0,683,0.0,15.0
461,72.0,0,683,0.0,15.0
462,79.0,0,683,0.0,27.0
463,48.0,0,1024,0.0,30.0
464,64.0,0,341,0.0,15.0
465,67.0,0,682,0.0,27.0
466,55.0,683,682,0.0,15.0
467,64.0,0,0,0.0,14.0
468,52.0,0,2048,0.0,28.0
469,67.0,683,0,0.0,26.0
470,64.0,0,0,0.0,14.0
471,55.0,0,0,0.0,14.0
472,71.0,0,2078,0.0,39.0
473,83.0,341,2078,0.0,53.0
474,67.0,341,0,0.0,26.0
475,64.0,0,0,0.0,14.0
476,55.0,0,683,0.0,14.0
477,72.0,341,1054,0.0,35.0
478,84.0,0,1054,0.0,53.0
479,53.0,0,683,0.0,19.0
480,58.0,0,683,0.0,19.0
481,65.0,0,341,0.0,31.0
482,70.0,0,1054,0.0,37.0
483,82.0,683,1054,0.0,55.0
484,53.0,683,682,0.0,19.0
485,58.0,341,0,0.0,19.0
486,65.0,0,341,0.0,49.0
487,37.0,0,2048,0.0,31.0
488,65.0,0,1366,0.0,31.0
489,58.0,683,0,0.0,18.0
490,53.0,0,0,0.0,18.0
491,77.0,341,2078,0.0,37.0
492,65.0,0,371,0.0,30.0
493,53.0,0,0,0.0,18.0
494,58.0,0,0,0.0,18.0
495,65.0,341,0,0.0,30.0
496,79.0,683,0,0.0,40.0
497,67.0,0,0,0.0,52.0
498,49.0,683,2048,0.0,29.0
499,64.0,683,0,0.0,14.0
500,55.0,0,0,0.0,14.0
501,48.0,0,1024,0.0,26.0
502,67.0,0,381,0.0,26.0
503,67.0,341,0,0.0,26.0
504,64.0,0,0,0.0,14.0
505,52.0,0,2048,0.0,24.0
506,55.0,0,1366,0.0,14.0
507,64.0,683,683,0.0,32.0
508,83.0,0,2078,0.0,57.0
509,71.0,341,2078,0.0,39.0
510,55.0,683,682,0.0,13.0
511,64.0,0,682,0.0,13.0
512,67.0,0,682,0.0,25.0
513,64.0,0,683,0.0,13.0
514,67.0,0,683,0.0,25.0
515,55.0,341,683,0.0,13.0
516,84.0,341,1054,0.0,58.0
517,72.0,0,1054,0.0,40.0
518,58.0,0,0,0.0,16.0
519,65.0,683,341,0.0,28.0
520,69.0,0,1064,0.0,43.0
521,81.0,0,1064,0.0,61.0
522,53.0,0,682,0.0,16.0
523,65.0,341,0,0.0,27.0
524,58.0,0,0,0.0,15.0
525,37.0,0,2048,0.0,34.0
526,82.0,341,1054,0.0,51.0
527,70.0,0,1054,0.0,33.0
528,53.0,0,1366,0.0,15.0
529,65.0,0,683,0.0,49.0
530,77.0,0,1054,0.0,37.0
531,65.0,683,381,0.0,27.0
532,58.0,341,0,0.0,15.0
533,53.0,0,0,0.0,15.0
534,65.0,0,683,0.0,27.0
535,79.0,341,1024,0.0,35.0
536,67.0,683,0,0.0,49.0
537,49.0,683,2048,0.0,32.0
538,79.0,0,1054,0.0,37.0
539,53.0,683,682,0.0,14.0
540,65.0,0,682,0.0,26.0
541,60.0,0,0,0.0,14.0
542,65.0,0,0,0.0,34.0
543,53.0,0,0,0.0,44.0
544,80.0,341,1024,0.0,27.0
545,68.0,0,1024,0.0,39.0
546,36.0,0,2048,0.0,31.0
547,65.0,0,341,0.0,25.0
548,53.0,0,341,0.0,13.0
549,58.0,683,682,0.0,13.0
550,55.0,0,1024,0.0,42.0
551,67.0,341,1024,0.0,32.0
552,58.0,0,683,0.0,13.0
553,65.0,341,683,0.0,25.0
554,53.0,0,683,0.0,13.0
555,37.0,683,2048,0.0,29.0
556,67.0,0,1054,0.0,35.0
557,55.0,683,1064,0.0,45.0
558,53.0,0,682,0.0,12.0
559,65.0,683,682,0.0,24.0
560,60.0,0,0,0.0,12.0
561,36.0,0,2048,0.0,28.0
562,56.0,341,1024,0.0,35.0
563,68.0,0,1024,0.0,25.0
564,53.0,341,683,0.0,12.0
565,65.0,0,683,0.0,24.0
566,64.0,0,1024,0.0,38.0
567,52.0,683,1024,0.0,26.0
568,58.0,341,0,0.0,32.0
569,46.0,0,0,0.0,18.0
570,53.0,683,0,0.0,25.0
571,37.0,0,0,0.0,29.0
572,65.0,341,1024,0.0,36.0
573,49.0,0,1024,0.0,21.0
574,58.0,0,1024,0.0,35.0
575,65.0,0,1024,0.0,35.0
576,48.0,0,1324,0.0,11.0
577,64.0,0,1324,0.0,18.0
578,36.0,2048,1324,0.0,19.0
579,67.0,0,1324,0.0,27.0
580,55.0,0,1324,0.0,19.0
581,55.0,0,1024,0.0,11.0
582,36.0,0,1024,0.0,11.0
583,67.0,4096,1024,0.0,16.0
584,48.0,0,1024,0.0,3.0
585,64.0,0,1024,0.0,7.0
586,53.0,4096,179,0.0,42.0
587,48.0,256,176,0.0,32.0
588,52.0,256,176,0.0,34.0
589,36.0,0,179,0.0,31.0
590,55.0,0,179,0.0,45.0
591,55.0,256,176,0.0,35.0
592,53.0,256,176,0.0,39.0
593,48.0,256,176,0.0,37.0
594,56.0,0,512,0.0,48.0
595,48.0,0,176,0.0,34.0
596,41.0,256,179,0.0,31.0
597,55.0,0,256,0.0,46.0
598,48.0,256,176,0.0,32.0
599,53.0,256,0,0.0,31.0
600,56.0,0,179,0.0,46.0
601,48.0,256,176,0.0,32.0
602,55.0,256,176,0.0,34.0
603,36.0,0,179,0.0,31.0
604,58.0,0,179,0.0,48.0
605,58.0,256,176,0.0,35.0
606,56.0,256,176,0.0,39.0
607,48.0,256,176,0.0,37.0
608,48.0,0,176,0.0,34.0
609,41.0,256,179,0.0,31.0
610,48.0,256,176,0.0,32.0
611,60.0,0,1024,0.0,51.0
612,53.0,256,179,0.0,43.0
613,48.0,256,176,0.0,32.0
614,55.0,0,90,0.0,46.0
615,52.0,256,176,0.0,34.0
616,36.0,0,179,0.0,31.0
617,56.0,256,148,0.0,42.0
618,55.0,0,176,0.0,37.0
619,58.0,128,148,0.0,42.0
620,53.0,0,176,0.0,39.0
621,41.0,0,179,0.0,31.0
622,48.0,256,176,0.0,37.0
623,56.0,128,512,0.0,49.0
624,48.0,256,176,0.0,34.0
625,55.0,0,256,0.0,47.0
626,48.0,256,176,0.0,32.0
627,53.0,0,256,0.0,45.0
628,53.0,0,176,0.0,32.0
629,39.0,256,179,0.0,31.0
630,56.0,0,179,0.0,47.0
631,48.0,256,176,0.0,34.0
632,55.0,0,176,0.0,35.0
633,58.0,256,179,0.0,49.0
634,58.0,256,176,0.0,37.0
635,56.0,0,176,0.0,39.0
636,51.0,256,176,0.0,37.0
637,51.0,256,176,0.0,34.0
638,44.0,0,179,0.0,40.0
639,51.0,256,176,0.0,32.0
640,60.0,256,0,0.0,49.0
641,56.0,0,179,0.0,37.0
642,51.0,256,176,0.0,32.0
643,59.0,256,134,0.0,34.0
644,62.0,0,134,0.0,52.0
645,56.0,0,176,0.0,35.0
646,41.0,0,179,0.0,40.0
647,59.0,128,48,0.0,33.0
648,62.0,0,128,0.0,45.0
649,56.0,0,176,0.0,40.0
650,51.0,256,176,0.0,37.0
651,51.0,0,176,0.0,35.0
652,44.0,256,179,0.0,35.0
653,51.0,256,176,0.0,32.0
654,60.0,0,1024,0.0,43.0
655,63.0,128,1024,0.0,55.0
656,60.0,0,179,0.0,49.0
657,56.0,256,179,0.0,37.0
658,51.0,256,176,0.0,32.0
659,59.0,256,134,0.0,34.0
660,62.0,0,134,0.0,52.0
661,56.0,0,176,0.0,35.0
662,41.0,0,179,0.0,35.0
663,59.0,0,48,0.0,30.0
664,62.0,128,128,0.0,42.0
665,56.0,0,176,0.0,44.0
666,51.0,256,176,0.0,41.0
667,51.0,0,176,0.0,39.0
668,44.0,256,179,0.0,35.0
669,51.0,256,176,0.0,36.0
670,60.0,0,1024,0.0,43.0
671,63.0,128,1024,0.0,55.0
672,56.0,256,179,0.0,40.0
673,60.0,0,179,0.0,51.0
674,51.0,256,176,0.0,35.0
675,56.0,0,176,0.0,38.0
676,53.0,0,179,0.0,40.0
677,41.0,0,179,0.0,35.0
678,59.0,0,179,0.0,40.0
679,62.0,256,179,0.0,55.0
680,59.0,256,176,0.0,40.0
681,60.0,256,176,0.0,43.0
682,39.0,0,179,0.0,35.0
683,55.0,256,176,0.0,35.0
684,63.0,0,512,0.0,34.0
685,51.0,0,512,0.0,22.0
686,56.0,0,176,0.0,40.0
687,41.0,256,179,0.0,35.0
688,67.0,0,768,0.0,54.0
689,65.0,0,128,0.0,53.0
690,53.0,256,176,0.0,35.0
691,63.0,128,64,0.0,44.0
692,65.0,64,64,0.0,44.0
693,61.0,0,512,0.0,36.0
694,57.0,0,176,0.0,40.0
695,63.0,0,256,0.0,55.0
696,51.0,256,176,0.0,35.0
697,62.0,0,256,0.0,53.0
698,57.0,0,176,0.0,40.0
699,63.0,256,256,0.0,52.0
700,51.0,0,176,0.0,35.0
701,42.0,0,1024,0.0,35.0
702,65.0,256,256,0.0,50.0
703,54.0,64,1024,0.0,26.0
704,60.0,0,1024,0.0,38.0
705,55.0,256,176,0.0,35.0
706,50.0,256,176,0.0,35.0
707,55.0,256,176,0.0,35.0
708,55.0,256,176,0.0,35.0
709,59.0,0,1024,0.0,33.0
710,62.0,0,1024,0.0,47.0
711,43.0,0,1024,0.0,35.0
712,60.0,0,542,0.0,55.0
713,44.0,256,542,0.0,33.0
714,51.0,0,542,0.0,23.0
715,62.0,0,542,0.0,58.0
716,41.0,512,542,0.0,37.0
717,56.0,0,1054,0.0,28.0
718,59.0,0,1054,0.0,39.0
719,38.0,512,542,0.0,40.0
720,65.0,0,542,0.0,57.0
721,39.0,0,352,0.0,31.0
722,58.0,0,352,0.0,28.0
723,55.0,0,352,0.0,16.0
724,63.0,512,352,0.0,49.0
725,51.0,512,542,0.0,23.0
726,44.0,0,542,0.0,26.0
727,60.0,0,542,0.0,42.0
728,62.0,0,542,0.0,45.0
729,41.0,0,542,0.0,30.0
730,65.0,0,542,0.0,45.0
731,59.0,0,1054,0.0,31.0
732,56.0,512,1054,0.0,19.0
733,38.0,512,542,0.0,33.0
734,58.0,0,352,0.0,24.0
735,55.0,512,352,0.0,12.0
736,63.0,0,352,0.0,38.0
737,39.0,0,512,0.0,22.0
738,60.0,0,542,0.0,48.0
739,51.0,0,542,0.0,18.0
740,44.0,512,542,0.0,35.0
741,41.0,0,352,0.0,39.0
742,62.0,512,542,0.0,53.0
743,59.0,0,542,0.0,33.0
744,63.0,0,0,0.0,36.0
745,56.0,0,1054,0.0,21.0
746,68.0,0,542,0.0,54.0
747,36.0,0,542,0.0,43.0
748,67.0,0,352,0.0,52.0
749,58.0,0,542,0.0,24.0
750,39.0,512,542,0.0,40.0
751,56.0,0,512,0.0,21.0
752,61.0,0,542,0.0,33.0
753,41.0,0,542,0.0,38.0
754,65.0,512,542,0.0,50.0
755,63.0,0,286,0.0,48.0
756,62.0,256,128,0.0,48.0
757,63.0,128,128,0.0,48.0
758,57.0,512,542,0.0,19.0
759,42.0,0,542,0.0,35.0
760,60.0,0,542,0.0,31.0
761,62.0,128,286,0.0,52.0
762,60.0,256,286,0.0,51.0
763,62.0,256,286,0.0,50.0
764,43.0,0,1024,0.0,31.0
765,55.0,0,1024,0.0,17.0
766,59.0,0,1024,0.0,29.0
767,63.0,256,286,0.0,49.0
768,70.0,0,179,0.0,39.0
769,73.0,256,179,0.0,53.0
770,36.0,0,256,0.0,33.0
771,68.0,0,179,0.0,41.0
772,72.0,256,179,0.0,56.0
773,36.0,0,256,0.0,33.0
774,48.0,256,512,0.0,33.0
775,48.0,256,256,0.0,33.0
776,48.0,256,0,0.0,33.0
777,36.0,256,256,0.0,33.0
778,70.0,0,512,0.0,56.0
779,67.0,0,512,0.0,40.0
780,36.0,0,256,0.0,33.0
781,68.0,256,256,0.0,42.0
782,72.0,0,256,0.0,58.0
783,60.0,0,2048,0.0,46.0
784,73.0,256,256,0.0,55.0
785,70.0,0,256,0.0,41.0
786,67.0,0,179,0.0,39.0
787,70.0,0,179,0.0,50.0
788,52.0,0,179,0.0,27.0
789,55.0,0,179,0.0,47.0
790,48.0,0,512,0.0,33.0
791,36.0,0,256,0.0,33.0
792,68.0,0,179,0.0,47.0
793,65.0,256,179,0.0,36.0
794,53.0,0,179,0.0,29.0
795,56.0,0,179,0.0,49.0
796,48.0,256,0,0.0,33.0
797,36.0,0,256,0.0,33.0
798,48.0,256,0,0.0,33.0
799,36.0,0,256,0.0,33.0
800,58.0,0,512,0.0,52.0
801,55.0,0,512,0.0,31.0
802,56.0,256,256,0.0,49.0
803,53.0,0,256,0.0,29.0
804,36.0,0,256,0.0,33.0
805,48.0,256,0,0.0,33.0
806,67.0,0,1024,0.0,42.0
807,64.0,256,1024,0.0,33.0
808,52.0,0,256,0.0,28.0
809,60.0,256,2048,0.0,40.0
810,55.0,256,0,0.0,27.0
811,70.0,0,179,0.0,39.0
812,73.0,0,179,0.0,53.0
813,58.0,0,179,0.0,47.0
814,48.0,256,0,0.0,33.0
815,36.0,0,256,0.0,33.0
816,68.0,0,179,0.0,41.0
817,72.0,0,179,0.0,56.0
818,56.0,0,179,0.0,29.0
819,60.0,0,179,0.0,49.0
820,36.0,256,256,0.0,33.0
821,48.0,256,0,0.0,33.0
822,36.0,0,256,0.0,33.0
823,67.0,0,512,0.0,40.0
824,70.0,0,512,0.0,56.0
825,48.0,256,512,0.0,33.0
826,36.0,0,256,0.0,33.0
827,68.0,0,256,0.0,42.0
828,72.0,256,256,0.0,58.0
829,61.0,256,1024,0.0,51.0
830,58.0,0,1024,0.0,31.0
831,73.0,0,256,0.0,55.0
832,70.0,0,0,0.0,50.0
833,60.0,0,0,0.0,40.0
834,55.0,256,179,0.0,47.0
835,52.0,0,179,0.0,27.0
836,67.0,0,179,0.0,39.0
837,48.0,256,0,0.0,33.0
838,36.0,0,256,0.0,33.0
839,53.0,0,179,0.0,29.0
840,68.0,0,179,0.0,47.0
841,65.0,256,179,0.0,36.0
842,56.0,0,179,0.0,49.0
843,36.0,0,256,0.0,33.0
844,48.0,256,256,0.0,33.0
845,48.0,256,0,0.0,33.0
846,36.0,0,256,0.0,33.0
847,55.0,0,512,0.0,31.0
848,58.0,0,512,0.0,52.0
849,56.0,0,256,0.0,51.0
850,36.0,256,256,0.0,33.0
851,53.0,0,256,0.0,31.0
852,64.0,256,1024,0.0,30.0
853,67.0,0,1024,0.0,42.0
854,52.0,0,256,0.0,27.0
855,55.0,0,256,0.0,47.0
856,48.0,256,256,0.0,33.0
857,53.0,0,179,0.0,35.0
858,41.0,0,179,0.0,33.0
859,65.0,256,179,0.0,54.0
860,48.0,256,176,0.0,33.0
861,60.0,0,176,0.0,35.0
862,52.0,0,176,0.0,33.0
863,64.0,0,176,0.0,35.0
864,36.0,0,179,0.0,33.0
865,55.0,256,179,0.0,31.0
866,67.0,0,179,0.0,52.0
867,67.0,256,176,0.0,25.0
868,55.0,0,176,0.0,33.0
869,53.0,256,176,0.0,42.0
870,65.0,0,176,0.0,42.0
871,48.0,256,176,0.0,40.0
872,60.0,0,176,0.0,40.0
873,68.0,0,512,0.0,54.0
874,56.0,0,512,0.0,33.0
875,48.0,256,176,0.0,37.0
876,60.0,0,176,0.0,37.0
877,67.0,0,256,0.0,52.0
878,55.0,0,256,0.0,31.0
879,48.0,0,176,0.0,35.0
880,60.0,0,176,0.0,35.0
881,41.0,0,1024,0.0,33.0
882,65.0,256,256,0.0,50.0
883,53.0,256,0,0.0,34.0
884,65.0,0,176,0.0,34.0
885,56.0,0,179,0.0,32.0
886,41.0,0,179,0.0,33.0
887,68.0,0,179,0.0,53.0
888,60.0,0,176,0.0,35.0
889,48.0,256,176,0.0,35.0
890,67.0,0,176,0.0,37.0
891,55.0,0,176,0.0,37.0
892,70.0,0,179,0.0,55.0
893,36.0,0,179,0.0,31.0
894,58.0,256,179,0.0,34.0
895,58.0,0,176,0.0,38.0
896,70.0,256,176,0.0,25.0
897,56.0,0,176,0.0,42.0
898,68.0,0,176,0.0,42.0
899,48.0,0,176,0.0,40.0
900,60.0,256,176,0.0,40.0
901,48.0,0,176,0.0,37.0
902,60.0,256,176,0.0,37.0
903,60.0,0,176,0.0,35.0
904,48.0,256,176,0.0,35.0
905,72.0,0,1024,0.0,58.0
906,41.0,0,1024,0.0,33.0
907,53.0,256,179,0.0,30.0
908,41.0,0,179,0.0,33.0
909,65.0,0,179,0.0,56.0
910,48.0,256,176,0.0,35.0
911,60.0,0,176,0.0,35.0
912,52.0,256,176,0.0,37.0
913,64.0,0,176,0.0,37.0
914,36.0,0,179,0.0,31.0
915,55.0,0,179,0.0,34.0
916,67.0,0,179,0.0,55.0
917,67.0,256,176,0.0,40.0
918,55.0,0,176,0.0,40.0
919,53.0,0,176,0.0,42.0
920,65.0,256,176,0.0,42.0
921,70.0,0,276,0.0,58.0
922,58.0,0,276,0.0,37.0
923,56.0,0,156,0.0,35.0
924,68.0,0,156,0.0,56.0
925,60.0,0,176,0.0,40.0
926,48.0,256,176,0.0,40.0
927,55.0,0,76,0.0,31.0
928,67.0,0,76,0.0,52.0
929,60.0,0,176,0.0,37.0
930,48.0,256,176,0.0,37.0
931,53.0,0,76,0.0,29.0
932,65.0,0,76,0.0,50.0
933,48.0,256,176,0.0,35.0
934,60.0,0,176,0.0,35.0
935,41.0,0,0,0.0,31.0
936,65.0,0,176,0.0,35.0
937,53.0,0,176,0.0,35.0
938,68.0,0,179,0.0,53.0
939,56.0,256,179,0.0,32.0
940,48.0,256,176,0.0,37.0
941,60.0,0,176,0.0,37.0
942,55.0,256,176,0.0,38.0
943,67.0,0,176,0.0,38.0
944,70.0,0,179,0.0,55.0
945,58.0,0,179,0.0,34.0
946,39.0,0,179,0.0,33.0
947,70.0,256,176,0.0,40.0
948,58.0,0,176,0.0,40.0
949,56.0,0,176,0.0,42.0
950,68.0,256,176,0.0,42.0
951,63.0,0,176,0.0,40.0
952,51.0,256,176,0.0,40.0
953,60.0,0,176,0.0,37.0
954,48.0,256,176,0.0,37.0
955,63.0,256,176,0.0,35.0
956,51.0,0,176,0.0,35.0
957,44.0,0,0,0.0,33.0
958,72.0,0,0,0.0,56.0
959,68.0,0,176,0.0,42.0
960,56.0,256,176,0.0,33.0
961,60.0,0,179,0.0,35.0
962,51.0,0,176,0.0,35.0
963,63.0,256,176,0.0,35.0
964,62.0,0,134,0.0,38.0
965,74.0,0,134,0.0,59.0
966,59.0,0,176,0.0,38.0
967,71.0,0,176,0.0,38.0
968,41.0,256,179,0.0,40.0
969,56.0,256,176,0.0,40.0
970,68.0,0,176,0.0,40.0
971,74.0,128,128,0.0,52.0
972,62.0,0,128,0.0,31.0
973,60.0,0,176,0.0,43.0
974,72.0,128,176,0.0,43.0
975,68.0,0,176,0.0,40.0
976,56.0,256,176,0.0,40.0
977,51.0,256,176,0.0,38.0
978,63.0,0,176,0.0,38.0
979,68.0,256,176,0.0,35.0
980,56.0,0,176,0.0,35.0
981,44.0,0,1024,0.0,33.0
982,75.0,0,1024,0.0,62.0
983,61.0,256,179,0.0,35.0
984,73.0,0,179,0.0,56.0
985,41.0,0,179,0.0,33.0
986,56.0,0,176,0.0,35.0
987,68.0,256,176,0.0,35.0
988,75.0,0,134,0.0,59.0
989,63.0,256,134,0.0,38.0
990,72.0,0,176,0.0,38.0
991,60.0,0,176,0.0,38.0
992,44.0,0,179,0.0,35.0
993,56.0,256,176,0.0,41.0
994,68.0,0,176,0.0,41.0
995,63.0,0,128,0.0,28.0
996,75.0,128,128,0.0,49.0
997,73.0,0,176,0.0,44.0
998,61.0,128,176,0.0,44.0
999,68.0,0,176,0.0,41.0
1000,56.0,256,176,0.0,41.0
1001,65.0,256,176,0.0,39.0
1002,53.0,0,176,0.0,39.0
1003,68.0,256,176,0.0,36.0
1004,56.0,0,176,0.0,36.0
1005,41.0,0,1024,0.0,33.0
1006,77.0,0,1024,0.0,62.0
1007,72.0,0,176,0.0,42.0
1008,60.0,0,176,0.0,33.0
1009,44.0,256,179,0.0,33.0
1010,63.0,0,179,0.0,45.0
1011,75.0,0,179,0.0,58.0
1012,68.0,256,176,0.0,35.0
1013,56.0,0,176,0.0,35.0
1014,73.0,0,176,0.0,38.0
1015,61.0,256,176,0.0,38.0
1016,41.0,0,179,0.0,35.0
1017,65.0,0,179,0.0,45.0
1018,77.0,0,179,0.0,60.0
1019,68.0,256,176,0.0,40.0
1020,56.0,0,176,0.0,40.0
1021,61.0,0,176,0.0,43.0
1022,73.0,0,176,0.0,43.0
1023,39.0,256,179,0.0,35.0
1024,58.0,256,176,0.0,35.0
1025,70.0,0,176,0.0,35.0
1026,49.0,0,176,0.0,40.0
1027,61.0,0,176,0.0,40.0
1028,46.0,256,179,0.0,35.0
1029,66.0,0,768,0.0,50.0
1030,78.0,0,768,0.0,62.0
1031,77.0,0,128,0.0,59.0
1032,70.0,256,176,0.0,35.0
1033,58.0,0,176,0.0,35.0
1034,78.0,128,64,0.0,47.0
1035,65.0,0,256,0.0,47.0
1036,80.0,64,64,0.0,47.0
1037,61.0,0,176,0.0,40.0
1038,73.0,0,176,0.0,40.0
1039,51.0,64,179,0.0,35.0
1040,78.0,0,286,0.0,59.0
1041,66.0,0,286,0.0,46.0
1042,70.0,256,176,0.0,35.0
1043,58.0,0,176,0.0,35.0
1044,77.0,0,286,0.0,57.0
1045,65.0,0,286,0.0,45.0
1046,72.0,0,176,0.0,40.0
1047,60.0,0,176,0.0,40.0
1048,44.0,256,179,0.0,33.0
1049,78.0,0,286,0.0,55.0
1050,66.0,0,286,0.0,43.0
1051,56.0,0,176,0.0,35.0
1052,80.0,256,286,0.0,53.0
1053,68.0,0,286,0.0,42.0
1054,73.0,0,256,0.0,35.0
1055,61.0,256,256,0.0,35.0
1056,56.0,0,256,0.0,33.0
1057,68.0,256,256,0.0,33.0
1058,65.0,256,256,0.0,30.0
1059,53.0,0,256,0.0,30.0
1060,77.0,0,1024,0.0,49.0
1061,68.0,0,256,0.0,28.0
1062,56.0,256,256,0.0,28.0
1063,49.0,0,1024,0.0,35.0
1064,73.0,0,512,0.0,53.0
1065,61.0,0,512,0.0,41.0
1066,68.0,256,512,0.0,35.0
1067,65.0,0,512,0.0,23.0
1068,57.0,0,512,0.0,32.0
1069,63.0,512,512,0.0,45.0
1070,75.0,0,512,0.0,57.0
1071,54.0,0,512,0.0,33.0
1072,72.0,0,1024,0.0,32.0
1073,66.0,0,512,0.0,48.0
1074,78.0,512,512,0.0,60.0
1075,69.0,0,1024,0.0,43.0
1076,68.0,0,512,0.0,28.0
1077,49.0,512,512,0.0,22.0
1078,77.0,0,512,0.0,47.0
1079,65.0,0,512,0.0,16.0
1080,49.0,0,512,0.0,28.0
1081,56.0,0,512,0.0,31.0
1082,53.0,0,512,0.0,19.0
1083,61.0,512,512,0.0,50.0
1084,45.0,0,512,0.0,33.0
1085,63.0,0,512,0.0,54.0
1086,66.0,512,512,0.0,55.0
1087,60.0,0,1024,0.0,41.0
1088,54.0,512,1024,0.0,24.0
1089,57.0,0,1024,0.0,36.0
1090,42.0,0,512,0.0,37.0
1091,61.0,0,512,0.0,28.0
1092,37.0,0,512,0.0,23.0
1093,56.0,0,512,0.0,23.0
1094,53.0,0,512,0.0,11.0
1095,65.0,0,0,0.0,43.0
1096,68.0,512,512,0.0,31.0
1097,61.0,0,512,0.0,23.0
1098,77.0,0,512,0.0,55.0
1099,67.0,0,512,0.0,46.0
1100,79.0,0,512,0.0,58.0
1101,64.0,0,512,0.0,22.0
1102,73.0,512,512,0.0,34.0
1103,58.0,0,512,0.0,28.0
1104,85.0,512,512,0.0,62.0
1105,65.0,0,512,0.0,27.0
1106,53.0,0,512,0.0,33.0
1107,73.0,0,512,0.0,50.0
1108,56.0,0,512,0.0,31.0
1109,63.0,0,512,0.0,36.0
1110,68.0,0,1024,0.0,39.0
1111,84.0,512,512,0.0,60.0
1112,72.0,0,512,0.0,48.0
1113,58.0,0,512,0.0,29.0
1114,73.0,512,512,0.0,32.0
1115,66.0,0,512,0.0,20.0
1116,82.0,0,512,0.0,57.0
1117,70.0,0,512,0.0,45.0
1118,68.0,0,256,0.0,43.0
1119,80.0,0,256,0.0,55.0
1120,67.0,256,128,0.0,34.0
1121,79.0,0,128,0.0,46.0
1122,59.0,0,512,0.0,27.0
1123,74.0,512,512,0.0,29.0
1124,65.0,0,512,0.0,17.0
1125,68.0,0,128,0.0,34.0
1126,80.0,128,128,0.0,46.0
1127,67.0,0,276,0.0,42.0
1128,79.0,0,276,0.0,54.0
1129,77.0,0,276,0.0,53.0
1130,65.0,256,276,0.0,41.0
1131,67.0,256,276,0.0,40.0
1132,79.0,0,276,0.0,52.0
1133,60.0,0,1024,0.0,25.0
1134,68.0,256,256,0.0,39.0
1135,80.0,0,256,0.0,51.0
1136,64.0,0,1024,0.0,14.0
1137,72.0,128,1024,0.0,26.0
1138,49.0,256,512,0.0,22.0
1139,65.0,0,512,0.0,50.0
1140,77.0,0,512,0.0,40.0
1141,46.0,512,512,0.0,27.0
1142,64.0,0,512,0.0,27.0
1143,67.0,0,512,0.0,53.0
1144,41.0,512,512,0.0,31.0
1145,65.0,0,512,0.0,25.0
1146,61.0,0,512,0.0,34.0
1147,73.0,0,512,0.0,53.0
1148,72.0,0,512,0.0,51.0
1149,68.0,0,1024,0.0,35.0
1150,44.0,0,512,0.0,29.0
1151,63.0,512,512,0.0,22.0
1152,56.0,0,512,0.0,10.0
1153,60.0,0,512,0.0,32.0
1154,70.0,0,512,0.0,49.0
1155,66.0,0,512,0.0,29.0
1156,61.0,512,512,0.0,20.0
1157,58.0,0,512,0.0,8.0
1158,46.0,0,512,0.0,26.0
1159,68.0,0,256,0.0,43.0
1160,67.0,256,128,0.0,34.0
1161,68.0,128,128,0.0,33.0
1162,65.0,512,512,0.0,27.0
1163,47.0,0,512,0.0,24.0
1164,62.0,0,512,0.0,18.0
1165,59.0,0,512,0.0,6.0
1166,67.0,128,256,0.0,40.0
1167,65.0,256,256,0.0,39.0
1168,67.0,256,256,0.0,38.0
1169,68.0,256,128,0.0,37.0
1170,64.0,0,1024,0.0,24.0
1171,48.0,0,1024,0.0,31.0
1172,53.0,0,512,0.0,27.0
1173,69.0,0,512,0.0,38.0
1174,65.0,256,512,0.0,27.0
1175,53.0,0,512,0.0,27.0
1176,76.0,0,542,0.0,49.0
1177,72.0,256,542,0.0,37.0
1178,65.0,256,512,0.0,27.0
1179,53.0,256,512,0.0,27.0
1180,70.0,0,542,0.0,40.0
1181,74.0,0,542,0.0,52.0
1182,65.0,256,512,0.0,27.0
1183,76.0,0,286,0.0,50.0
1184,72.0,256,286,0.0,38.0
1185,65.0,256,256,0.0,27.0
1186,53.0,256,0,0.0,27.0
1187,77.0,0,256,0.0,49.0
1188,77.0,0,0,0.0,54.0
1189,74.0,0,286,0.0,37.0
1190,53.0,256,0,0.0,27.0
1191,72.0,0,542,0.0,48.0
1192,69.0,0,542,0.0,34.0
1193,60.0,256,0,0.0,27.0
1194,70.0,0,542,0.0,37.0
1195,79.0,0,542,0.0,57.0
1196,67.0,0,542,0.0,31.0
1197,53.0,0,512,0.0,27.0
1198,72.0,256,542,0.0,35.0
1199,81.0,0,542,0.0,55.0
1200,60.0,256,512,0.0,27.0
1201,79.0,256,286,0.0,54.0
1202,70.0,0,286,0.0,40.0
1203,77.0,0,256,0.0,50.0
1204,65.0,0,1024,0.0,25.0
1205,69.0,256,0,0.0,41.0
1206,53.0,0,512,0.0,27.0
1207,60.0,0,512,0.0,27.0
1208,48.0,0,512,0.0,27.0
1209,60.0,256,0,0.0,27.0
1210,48.0,256,512,0.0,27.0
1211,76.0,0,542,0.0,51.0
1212,72.0,0,542,0.0,39.0
1213,60.0,256,0,0.0,27.0
1214,48.0,256,0,0.0,27.0
1215,70.0,0,542,0.0,40.0
1216,74.0,0,542,0.0,52.0
1217,60.0,256,0,0.0,27.0
1218,72.0,0,286,0.0,38.0
1219,76.0,0,286,0.0,50.0
1220,77.0,256,0,0.0,52.0
1221,48.0,0,0,0.0,27.0
1222,65.0,256,1024,0.0,43.0
1223,74.0,0,286,0.0,37.0
1224,53.0,0,0,0.0,27.0
1225,48.0,0,0,0.0,27.0
1226,69.0,0,542,0.0,32.0
1227,72.0,0,542,0.0,48.0
1228,53.0,256,0,0.0,27.0
1229,67.0,0,542,0.0,31.0
1230,70.0,256,542,0.0,35.0
1231,79.0,0,542,0.0,55.0
1232,48.0,256,0,0.0,27.0
1233,72.0,0,542,0.0,33.0
1234,81.0,0,542,0.0,53.0
1235,53.0,0,0,0.0,27.0
1236,70.0,0,286,0.0,38.0
1237,79.0,0,286,0.0,52.0
1238,65.0,0,1024,0.0,30.0
1239,69.0,256,256,0.0,32.0
1240,72.0,256,512,0.0,42.0
1241,69.0,0,512,0.0,30.0
1242,77.0,0,768,0.0,53.0
1243,41.0,0,0,0.0,27.0
1244,53.0,256,0,0.0,27.0
1245,70.0,256,512,0.0,31.0
1246,79.0,0,512,0.0,49.0
1247,67.0,0,512,0.0,35.0
1248,53.0,256,0,0.0,27.0
1249,41.0,256,0,0.0,27.0
1250,72.0,0,512,0.0,38.0
1251,81.0,0,512,0.0,52.0
1252,70.0,0,256,0.0,33.0
1253,79.0,0,256,0.0,51.0
1254,69.0,256,256,0.0,31.0
1255,65.0,0,1024,0.0,27.0
1256,53.0,0,512,0.0,27.0
1257,41.0,0,512,0.0,27.0
1258,48.0,256,512,0.0,27.0
1259,77.0,0,1280,0.0,49.0
1260,69.0,0,1024,0.0,41.0
1261,60.0,256,1024,0.0,20.0
1262,41.0,256,512,0.0,27.0
1263,48.0,256,512,0.0,27.0
1264,41.0,0,512,0.0,27.0
1265,48.0,256,512,0.0,27.0
1266,41.0,256,512,0.0,26.0
1267,48.0,256,0,0.0,25.0
1268,41.0,256,0,0.0,24.0
1269,48.0,256,0,0.0,24.0
1270,67.0,0,2048,0.0,33.0
1271,58.0,256,2048,0.0,12.0
1272,70.0,0,2048,0.0,28.0
1273,41.0,0,0,0.0,23.0
1274,79.0,0,2048,0.0,44.0
1275,48.0,341,0,0.0,23.0
1276,48.0,341,0,0.0,21.0
1277,77.0,0,1024,0.0,39.0
1278,69.0,0,1024,0.0,23.0
1279,57.0,0,1024,0.0,16.0
1280,60.0,256,1024,0.0,28.0
1281,41.0,342,682,0.0,22.0
1282,48.0,342,0,0.0,20.0
1283,41.0,341,683,0.0,21.0
1284,58.0,0,2048,0.0,25.0
1285,55.0,0,2048,0.0,13.0
1286,79.0,0,2048,0.0,41.0
1287,70.0,0,2048,0.0,25.0
1288,41.0,341,1024,0.0,28.0
1289,65.0,0,179,0.0,73.0
1290,53.0,1024,179,0.0,64.0
1291,55.0,512,179,0.0,57.0
1292,67.0,0,179,0.0,64.0
1293,65.0,0,179,0.0,64.0
1294,53.0,512,179,0.0,64.0
1295,77.0,0,179,0.0,76.0
1296,67.0,512,179,0.0,57.0
1297,79.0,0,179,0.0,69.0
1298,55.0,0,179,0.0,57.0
1299,41.0,0,179,0.0,61.0
1300,53.0,0,179,0.0,73.0
1301,77.0,0,179,0.0,64.0
1302,89.0,0,179,0.0,76.0
1303,65.0,512,179,0.0,66.0
1304,79.0,0,179,0.0,71.0
1305,43.0,0,179,0.0,58.0
1306,55.0,0,179,0.0,70.0
1307,67.0,0,179,0.0,70.0
1308,91.0,512,179,0.0,83.0
1309,68.0,0,256,0.0,69.0
1310,80.0,0,256,0.0,82.0
1311,92.0,0,256,0.0,95.0
1312,29.0,0,256,0.0,81.0
1313,41.0,512,256,0.0,81.0
1314,79.0,0,90,0.0,75.0
1315,43.0,0,90,0.0,71.0
1316,31.0,0,90,0.0,71.0
1317,91.0,256,90,0.0,84.0
1318,77.0,256,90,0.0,72.0
1319,32.0,0,90,0.0,69.0
1320,89.0,0,90,0.0,81.0
1321,44.0,0,90,0.0,69.0
1322,84.0,0,90,0.0,79.0
1323,36.0,0,90,0.0,68.0
1324,48.0,256,90,0.0,68.0
1325,72.0,0,90,0.0,70.0
1326,41.0,256,256,0.0,68.0
1327,53.0,0,256,0.0,68.0
1328,80.0,0,256,0.0,82.0
1329,68.0,0,256,0.0,73.0
1330,67.0,0,90,0.0,65.0
1331,55.0,0,90,0.0,67.0
1332,43.0,0,90,0.0,67.0
1333,79.0,256,90,0.0,74.0
1334,77.0,0,90,0.0,71.0
1335,44.0,0,90,0.0,69.0
1336,56.0,256,90,0.0,69.0
1337,65.0,0,90,0.0,62.0
1338,60.0,0,90,0.0,72.0
1339,48.0,256,90,0.0,72.0
1340,72.0,0,90,0.0,69.0
1341,56.0,0,422,0.0,61.0
1342,68.0,0,422,0.0,74.0
1343,53.0,256,512,0.0,74.0
1344,41.0,0,512,0.0,65.0
1345,60.0,0,512,0.0,76.0
1346,55.0,512,166,0.0,61.0
1347,67.0,0,166,0.0,74.0
1348,53.0,256,166,0.0,59.0
1349,65.0,0,166,0.0,72.0
1350,29.0,0,179,0.0,57.0
1351,41.0,0,179,0.0,69.0
1352,63.0,0,256,0.0,67.0
1353,75.0,0,256,0.0,76.0
1354,61.0,256,90,0.0,63.0
1355,73.0,0,90,0.0,72.0
1356,56.0,0,512,0.0,55.0
1357,53.0,256,512,0.0,55.0
1358,68.0,0,512,0.0,64.0
1359,65.0,0,0,0.0,66.0
1360,72.0,0,90,0.0,76.0
1361,55.0,50,129,0.0,64.0
1362,31.0,0,179,0.0,57.0
1363,43.0,0,179,0.0,69.0
1364,50.0,0,179,0.0,53.0
1365,53.0,0,179,0.0,53.0
1366,60.0,256,256,0.0,64.0
1367,59.0,0,90,0.0,62.0
1368,71.0,206,90,0.0,74.0
1369,65.0,0,0,0.0,64.0
1370,62.0,0,512,0.0,66.0
1371,32.0,0,512,0.0,63.0
1372,44.0,0,512,0.0,75.0
1373,56.0,0,512,0.0,70.0
1374,55.0,0,90,0.0,69.0
1375,31.0,0,90,0.0,62.0
1376,43.0,512,90,0.0,74.0
1377,41.0,0,90,0.0,72.0
1378,53.0,256,90,0.0,67.0
1379,29.0,0,90,0.0,60.0
1380,48.0,0,1024,0.0,43.0
1381,72.0,0,1024,0.0,76.0
1382,60.0,0,1024,0.0,64.0
1383,63.0,0,179,0.0,64.0
1384,67.0,0,179,0.0,64.0
1385,72.0,0,179,0.0,76.0
1386,55.0,0,179,0.0,55.0
1387,60.0,0,179,0.0,67.0
1388,51.0,0,296,0.0,76.0
1389,39.0,0,296,0.0,64.0
1390,62.0,0,90,0.0,72.0
1391,50.0,256,90,0.0,72.0
1392,38.0,0,90,0.0,60.0
1393,36.0,0,90,0.0,56.0
1394,48.0,0,90,0.0,68.0
1395,60.0,0,90,0.0,68.0
1396,62.0,0,179,0.0,67.0
1397,65.0,0,179,0.0,64.0
1398,67.0,256,179,0.0,64.0
1399,53.0,0,179,0.0,55.0
1400,55.0,0,179,0.0,55.0
1401,74.0,0,179,0.0,76.0
1402,35.0,0,90,0.0,53.0
1403,59.0,0,90,0.0,65.0
1404,47.0,256,90,0.0,65.0
1405,55.0,0,422,0.0,49.0
1406,75.0,0,422,0.0,74.0
1407,67.0,0,422,0.0,62.0
1408,63.0,0,422,0.0,61.0
1409,74.0,512,166,0.0,74.0
1410,62.0,0,166,0.0,61.0
1411,72.0,256,166,0.0,72.0
1412,60.0,0,166,0.0,59.0
1413,48.0,0,1024,0.0,64.0
1414,36.0,0,0,0.0,64.0
1415,60.0,0,179,0.0,64.0
1416,48.0,0,179,0.0,52.0
1417,63.0,0,296,0.0,55.0
1418,72.0,256,296,0.0,64.0
1419,75.0,0,296,0.0,64.0
1420,82.0,0,296,0.0,76.0
1421,70.0,0,296,0.0,67.0
1422,80.0,256,90,0.0,72.0
1423,68.0,0,90,0.0,63.0
1424,57.0,0,90,0.0,51.0
1425,60.0,0,90,0.0,51.0
1426,67.0,0,90,0.0,64.0
1427,69.0,0,90,0.0,64.0
1428,72.0,0,90,0.0,64.0
1429,79.0,0,90,0.0,76.0
1430,62.0,0,179,0.0,64.0
1431,50.0,0,179,0.0,52.0
1432,38.0,256,179,0.0,64.0
1433,78.0,256,90,0.0,74.0
1434,66.0,0,90,0.0,62.0
1435,63.0,0,512,0.0,70.0
1436,39.0,0,512,0.0,70.0
1437,51.0,256,512,0.0,58.0
1438,50.0,512,90,0.0,57.0
1439,38.0,0,90,0.0,69.0
1440,62.0,0,90,0.0,69.0
1441,48.0,256,90,0.0,55.0
1442,60.0,0,90,0.0,67.0
1443,36.0,0,90,0.0,67.0
1444,55.0,0,1024,0.0,55.0
1445,72.0,0,1024,0.0,64.0
1446,67.0,0,1024,0.0,64.0
1447,79.0,0,1024,0.0,76.0
1448,51.0,256,179,0.0,55.0
1449,72.0,0,179,0.0,76.0
1450,63.0,0,179,0.0,64.0
1451,60.0,0,179,0.0,67.0
1452,46.0,0,296,0.0,76.0
1453,70.0,0,296,0.0,76.0
1454,58.0,0,296,0.0,64.0
1455,56.0,256,90,0.0,60.0
1456,68.0,0,90,0.0,72.0
1457,44.0,0,90,0.0,72.0
1458,43.0,0,90,0.0,68.0
1459,67.0,0,90,0.0,68.0
1460,55.0,0,90,0.0,56.0
1461,60.0,256,179,0.0,55.0
1462,74.0,0,179,0.0,76.0
1463,62.0,0,179,0.0,67.0
1464,72.0,0,179,0.0,64.0
1465,42.0,256,90,0.0,65.0
1466,54.0,0,90,0.0,53.0
1467,66.0,0,90,0.0,65.0
1468,67.0,0,422,0.0,62.0
1469,72.0,0,422,0.0,62.0
1470,75.0,0,422,0.0,74.0
1471,55.0,0,422,0.0,52.0
1472,60.0,256,422,0.0,49.0
1473,63.0,0,422,0.0,61.0
1474,74.0,512,166,0.0,74.0
1475,62.0,0,166,0.0,61.0
1476,60.0,0,166,0.0,59.0
1477,72.0,256,166,0.0,72.0
1478,43.0,0,1024,0.0,64.0
1479,60.0,0,179,0.0,55.0
1480,48.0,256,179,0.0,68.0
1481,36.0,0,179,0.0,56.0
1482,70.0,0,296,0.0,67.0
1483,63.0,0,296,0.0,55.0
1484,72.0,0,296,0.0,64.0
1485,82.0,0,296,0.0,76.0
1486,75.0,0,296,0.0,64.0
1487,80.0,0,90,0.0,72.0
1488,68.0,256,90,0.0,63.0
1489,69.0,0,90,0.0,64.0
1490,72.0,256,90,0.0,64.0
1491,79.0,0,90,0.0,76.0
1492,57.0,0,90,0.0,51.0
1493,60.0,0,90,0.0,51.0
1494,67.0,0,90,0.0,64.0
1495,62.0,0,179,0.0,64.0
1496,38.0,0,179,0.0,59.0
1497,50.0,0,179,0.0,71.0
1498,66.0,256,90,0.0,62.0
1499,78.0,0,90,0.0,74.0
1500,80.0,0,296,0.0,77.0
1501,68.0,0,296,0.0,68.0
1502,60.0,0,296,0.0,56.0
1503,72.0,0,296,0.0,65.0
1504,67.0,256,90,0.0,64.0
1505,79.0,0,90,0.0,73.0
1506,55.0,0,512,0.0,52.0
1507,39.0,256,552,0.0,61.0
1508,51.0,0,552,0.0,73.0
1509,71.0,0,90,0.0,64.0
1510,77.0,0,90,0.0,76.0
1511,50.0,256,90,0.0,70.0
1512,38.0,0,90,0.0,58.0
1513,55.0,0,90,0.0,52.0
1514,59.0,0,90,0.0,55.0
1515,65.0,0,90,0.0,67.0
1516,63.0,0,90,0.0,65.0
1517,72.0,256,90,0.0,62.0
1518,75.0,0,90,0.0,74.0
1519,60.0,0,90,0.0,53.0
1520,55.0,0,90,0.0,52.0
1521,36.0,0,90,0.0,56.0
1522,48.0,0,90,0.0,67.0
1523,67.0,0,296,0.0,67.0
1524,58.0,0,296,0.0,55.0
1525,79.0,0,296,0.0,76.0
1526,70.0,0,296,0.0,64.0
1527,77.0,0,90,0.0,72.0
1528,65.0,256,90,0.0,63.0
1529,53.0,256,512,0.0,64.0
1530,38.0,0,552,0.0,61.0
1531,50.0,0,552,0.0,73.0
1532,36.0,0,90,0.0,56.0
1533,53.0,0,90,0.0,52.0
1534,48.0,0,90,0.0,67.0
1535,57.0,256,90,0.0,51.0
1536,69.0,0,90,0.0,61.0
1537,63.0,0,90,0.0,64.0
1538,75.0,0,90,0.0,73.0
1539,53.0,0,90,0.0,52.0
1540,34.0,0,90,0.0,53.0
1541,58.0,0,90,0.0,49.0
1542,46.0,0,90,0.0,63.0
1543,70.0,0,90,0.0,59.0
1544,74.0,0,90,0.0,71.0
1545,62.0,256,90,0.0,62.0
1546,65.0,0,256,0.0,68.0
1547,56.0,0,256,0.0,56.0
1548,77.0,0,296,0.0,77.0
1549,68.0,0,296,0.0,65.0
1550,63.0,0,90,0.0,62.0
1551,75.0,256,90,0.0,73.0
1552,48.0,256,512,0.0,73.0
1553,36.0,0,512,0.0,61.0
1554,51.0,0,0,0.0,52.0
1555,46.0,0,90,0.0,67.0
1556,34.0,0,90,0.0,56.0
1557,67.0,0,90,0.0,61.0
1558,74.0,256,90,0.0,73.0
1559,55.0,0,90,0.0,52.0
1560,62.0,0,90,0.0,64.0
1561,32.0,0,90,0.0,53.0
1562,44.0,0,90,0.0,63.0
1563,72.0,0,90,0.0,71.0
1564,60.0,0,90,0.0,62.0
1565,56.0,0,90,0.0,50.0
1566,68.0,256,90,0.0,59.0
1567,51.0,0,90,0.0,52.0
1568,55.0,0,179,0.0,55.0
1569,50.0,0,512,0.0,55.0
1570,31.0,256,512,0.0,57.0
1571,43.0,0,512,0.0,69.0
1572,59.0,0,512,0.0,67.0
1573,71.0,0,512,0.0,76.0
1574,62.0,0,512,0.0,64.0
1575,57.0,512,179,0.0,58.0
1576,58.0,512,512,0.0,78.0
1577,57.0,512,90,0.0,68.0
1578,55.0,256,90,0.0,65.0
1579,61.0,0,1024,0.0,53.0
1580,64.0,0,1024,0.0,53.0
1581,67.0,0,1024,0.0,53.0
1582,36.0,0,1024,0.0,69.0
1583,70.0,0,1024,0.0,69.0
1584,53.0,0,179,0.0,63.0
1585,60.0,0,512,0.0,52.0
1586,65.0,0,512,0.0,52.0
1587,69.0,256,512,0.0,64.0
1588,55.0,512,179,0.0,65.0
1589,56.0,0,512,0.0,78.0
1590,55.0,512,90,0.0,68.0
1591,53.0,256,90,0.0,65.0
1592,68.0,0,1024,0.0,69.0
1593,65.0,0,1024,0.0,53.0
1594,62.0,512,1024,0.0,53.0
1595,24.0,0,1024,0.0,60.0
1596,36.0,0,1024,0.0,69.0
1597,59.0,0,1024,0.0,53.0
1598,48.0,0,179,0.0,62.0
1599,67.0,0,512,0.0,64.0
1600,60.0,256,512,0.0,52.0
1601,64.0,0,512,0.0,52.0
1602,50.0,512,179,0.0,51.0
1603,62.0,0,179,0.0,63.0
1604,51.0,0,512,0.0,66.0
1605,63.0,0,512,0.0,78.0
1606,50.0,512,90,0.0,54.0
1607,62.0,0,90,0.0,66.0
1608,60.0,0,90,0.0,63.0
1609,48.0,256,90,0.0,52.0
1610,36.0,0,1024,0.0,69.0
1611,56.0,0,1024,0.0,53.0
1612,66.0,512,1024,0.0,69.0
1613,55.0,0,179,0.0,52.0
1614,67.0,0,512,0.0,64.0
1615,59.0,0,512,0.0,52.0
1616,43.0,0,512,0.0,60.0
1617,62.0,0,179,0.0,64.0
1618,50.0,512,179,0.0,52.0
1619,63.0,0,512,0.0,78.0
1620,51.0,512,512,0.0,66.0
1621,50.0,512,90,0.0,54.0
1622,62.0,0,90,0.0,66.0
1623,48.0,256,90,0.0,52.0
1624,60.0,0,90,0.0,63.0
1625,56.0,0,1024,0.0,53.0
1626,36.0,0,1024,0.0,69.0
1627,66.0,0,1024,0.0,69.0
1628,67.0,256,512,0.0,64.0
1629,55.0,0,512,0.0,69.0
1630,59.0,0,512,0.0,52.0
1631,43.0,0,512,0.0,60.0
1632,50.0,512,179,0.0,69.0
1633,62.0,512,179,0.0,53.0
1634,74.0,512,179,0.0,57.0
1635,79.0,512,1024,0.0,60.0
1636,67.0,0,0,0.0,38.0
1637,43.0,1024,1024,0.0,33.0
1638,79.0,0,2068,0.0,60.0
1639,78.0,1024,1044,0.0,51.0
1640,73.0,1024,824,0.0,55.0
1641,55.0,512,7168,0.0,64.0
1642,45.0,1024,3092,0.0,33.0
1643,74.0,0,276,0.0,52.0
1644,47.0,0,1044,0.0,35.0
1645,77.0,256,1812,0.0,55.0
1646,48.0,768,1556,0.0,35.0
1647,50.0,512,532,0.0,35.0
1648,76.0,1024,1044,0.0,50.0
1649,71.0,512,874,0.0,50.0
1650,52.0,0,1044,0.0,35.0
1651,72.0,1024,276,0.0,52.0
1652,67.0,0,4638,0.0,30.0
1653,54.0,0,1044,0.0,36.0
1654,69.0,256,542,0.0,44.0
1655,75.0,256,1812,0.0,55.0
1656,55.0,512,1536,0.0,42.0
1657,70.0,0,1566,0.0,48.0
1658,74.0,1024,1024,0.0,50.0
1659,69.0,0,542,0.0,37.0
1660,57.0,512,542,0.0,45.0
1661,58.0,0,1054,0.0,45.0
1662,72.0,0,276,0.0,50.0
1663,63.0,0,542,0.0,48.0
1664,67.0,512,1566,0.0,34.0
1665,48.0,1024,1024,0.0,35.0
1666,69.0,256,542,0.0,44.0
1667,60.0,0,542,0.0,44.0
1668,75.0,256,1812,0.0,55.0
1669,70.0,0,1566,0.0,49.0
1670,57.0,512,512,0.0,43.0
1671,74.0,1024,1024,0.0,50.0
1672,69.0,0,542,0.0,37.0
1673,55.0,512,3072,0.0,35.0
1674,58.0,512,1024,0.0,45.0
1675,72.0,0,286,0.0,50.0
1676,63.0,1024,512,0.0,48.0
1677,67.0,0,1566,0.0,34.0
1678,48.0,0,1024,0.0,35.0
1679,60.0,0,512,0.0,44.0
1680,69.0,256,542,0.0,44.0
1681,75.0,256,1822,0.0,58.0
1682,58.0,0,1566,0.0,38.0
1683,65.0,512,1566,0.0,50.0
1684,74.0,1024,824,0.0,48.0
1685,50.0,0,2048,0.0,35.0
1686,66.0,512,542,0.0,43.0
1687,63.0,0,542,0.0,31.0
1688,69.0,0,1054,0.0,51.0
1689,62.0,512,1566,0.0,34.0
1690,65.0,0,1566,0.0,46.0
1691,70.0,1024,824,0.0,45.0
1692,63.0,0,542,0.0,41.0
1693,60.0,512,542,0.0,29.0
1694,66.0,0,1054,0.0,53.0
1695,62.0,0,1566,0.0,44.0
1696,58.0,512,1566,0.0,32.0
1697,67.0,1024,824,0.0,40.0
1698,57.0,512,542,0.0,27.0
1699,60.0,0,542,0.0,39.0
1700,61.0,512,1054,0.0,47.0
1701,50.0,0,5632,0.0,27.0
1702,55.0,0,1566,0.0,30.0
1703,58.0,0,1566,0.0,42.0
1704,38.0,0,179,0.0,44.0
1705,62.0,1024,824,0.0,44.0
1706,57.0,0,542,0.0,37.0
1707,54.0,512,542,0.0,25.0
1708,50.0,512,179,0.0,55.0
1709,62.0,0,1024,0.0,36.0
1710,59.0,0,1024,0.0,31.0
1711,55.0,512,0,0.0,55.0
1712,74.0,512,179,0.0,55.0
1713,67.0,1024,0,0.0,58.0
1714,66.0,1024,1024,0.0,54.0
1715,61.0,1024,824,0.0,51.0
1716,69.0,1024,3072,0.0,55.0
1717,62.0,0,256,0.0,53.0
1718,71.0,1024,1024,0.0,50.0
1719,65.0,256,1792,0.0,57.0
1720,72.0,768,1536,0.0,53.0
1721,74.0,512,512,0.0,50.0
1722,64.0,1024,1024,0.0,47.0
1723,79.0,512,8614,0.0,55.0
1724,59.0,0,1024,0.0,43.0
1725,43.0,0,11264,0.0,55.0
1726,67.0,0,0,0.0,45.0
1727,71.0,512,532,0.0,55.0
1728,76.0,512,2048,0.0,54.0
1729,52.0,512,1024,0.0,28.0
1730,59.0,0,1024,0.0,40.0
1731,40.0,0,1024,0.0,36.0
1732,83.0,0,2068,0.0,60.0
1733,42.0,0,1566,0.0,36.0
1734,82.0,1024,1044,0.0,56.0
1735,44.0,512,542,0.0,39.0
1736,77.0,512,824,0.0,57.0
1737,54.0,1024,3072,0.0,40.0
1738,66.0,0,3072,0.0,33.0
1739,73.0,0,3072,0.0,45.0
1740,46.0,0,1054,0.0,39.0
1741,78.0,0,276,0.0,57.0
1742,75.0,0,1024,0.0,45.0
1743,66.0,0,1024,0.0,33.0
1744,47.0,0,1054,0.0,41.0
1745,64.0,768,1024,0.0,33.0
1746,81.0,256,1812,0.0,63.0
1747,52.0,0,1566,0.0,43.0
1748,80.0,1024,1044,0.0,59.0
1749,54.0,512,542,0.0,45.0
1750,75.0,512,824,0.0,56.0
1751,71.0,0,3072,0.0,45.0
1752,68.0,0,2048,0.0,33.0
1753,59.0,1024,4116,0.0,40.0
1754,56.0,0,1054,0.0,44.0
1755,76.0,1024,276,0.0,56.0
1756,67.0,0,532,0.0,44.0
1757,58.0,0,1024,0.0,44.0
1758,64.0,256,532,0.0,42.0
1759,73.0,0,1044,0.0,44.0
1760,79.0,256,1812,0.0,62.0
1761,71.0,512,1556,0.0,44.0
1762,63.0,0,1556,0.0,40.0
1763,78.0,1024,1044,0.0,53.0
1764,64.0,512,532,0.0,40.0
1765,73.0,0,532,0.0,47.0
1766,71.0,0,824,0.0,56.0
1767,59.0,0,3072,0.0,44.0
1768,75.0,0,1044,0.0,50.0
1769,66.0,512,1044,0.0,41.0
1770,76.0,0,276,0.0,56.0
1771,67.0,0,532,0.0,44.0
1772,52.0,1024,1024,0.0,44.0
1773,73.0,0,1044,0.0,47.0
1774,64.0,256,532,0.0,42.0
1775,79.0,256,1812,0.0,62.0
1776,63.0,0,1556,0.0,40.0
1777,71.0,0,1556,0.0,44.0
1778,78.0,1024,1044,0.0,53.0
1779,64.0,0,532,0.0,42.0
1780,73.0,512,532,0.0,44.0
1781,71.0,0,824,0.0,52.0
1782,59.0,512,3072,0.0,44.0
1783,66.0,0,1044,0.0,43.0
1784,75.0,512,1044,0.0,47.0
1785,76.0,0,276,0.0,57.0
1786,67.0,0,532,0.0,44.0
1787,71.0,1024,542,0.0,44.0
1788,52.0,0,1024,0.0,44.0
1789,64.0,0,532,0.0,42.0
1790,73.0,256,542,0.0,47.0
1791,83.0,256,1792,0.0,63.0
1792,62.0,512,1536,0.0,40.0
1793,74.0,0,1566,0.0,49.0
1794,70.0,512,512,0.0,44.0
1795,81.0,1024,1024,0.0,55.0
1796,73.0,0,542,0.0,44.0
1797,77.0,512,1054,0.0,62.0
1798,69.0,0,1536,0.0,44.0
1799,74.0,0,1566,0.0,44.0
1800,78.0,1024,824,0.0,55.0
1801,67.0,0,512,0.0,42.0
1802,70.0,512,542,0.0,43.0
1803,73.0,0,1054,0.0,60.0
1804,66.0,512,1536,0.0,42.0
1805,69.0,0,1566,0.0,42.0
1806,74.0,1024,824,0.0,55.0
1807,64.0,0,512,0.0,40.0
1808,67.0,512,542,0.0,41.0
1809,68.0,0,1054,0.0,60.0
1810,62.0,512,1536,0.0,40.0
1811,54.0,0,7680,0.0,44.0
1812,66.0,0,30,0.0,52.0
1813,69.0,0,312,0.0,40.0
1814,57.0,0,512,0.0,40.0
1815,50.0,0,512,0.0,64.0
1816,38.0,512,512,0.0,52.0
1817,60.0,0,341,0.0,55.0
1818,67.0,0,512,0.0,47.0
1819,72.0,512,512,0.0,59.0
1820,72.0,171,179,0.0,64.0
1821,55.0,341,382,0.0,56.0
1822,57.0,171,119,0.0,57.0
1823,84.0,0,358,0.0,64.0
1824,72.0,341,358,0.0,52.0
1825,59.0,0,381,0.0,44.0
1826,55.0,0,381,0.0,46.0
1827,57.0,341,120,0.0,46.0
1828,60.0,0,120,0.0,58.0
1829,66.0,0,552,0.0,64.0
1830,67.0,171,179,0.0,56.0
1831,59.0,171,119,0.0,47.0
1832,62.0,0,119,0.0,59.0
1833,39.0,0,2048,0.0,58.0
1834,51.0,0,2048,0.0,70.0
1835,67.0,341,382,0.0,55.0
1836,69.0,342,119,0.0,57.0
1837,63.0,0,1024,0.0,60.0
1838,60.0,0,1024,0.0,48.0
1839,66.0,341,1054,0.0,50.0
1840,78.0,0,1054,0.0,69.0
1841,71.0,0,341,0.0,59.0
1842,62.0,175,381,0.0,60.0
1843,60.0,341,120,0.0,58.0
1844,72.0,0,120,0.0,60.0
1845,74.0,342,119,0.0,62.0
1846,59.0,0,119,0.0,55.0
1847,79.0,0,934,0.0,62.0
1848,51.0,0,2048,0.0,64.0
1849,55.0,166,1199,0.0,43.0
1850,67.0,0,1024,0.0,55.0
1851,59.0,341,381,0.0,60.0
1852,60.0,0,120,0.0,58.0
1853,69.0,341,382,0.0,58.0
1854,71.0,0,119,0.0,59.0
1855,62.0,342,119,0.0,55.0
1856,51.0,0,1024,0.0,52.0
1857,67.0,0,1024,0.0,52.0
1858,77.0,0,1024,0.0,64.0
1859,72.0,0,381,0.0,60.0
1860,75.0,0,381,0.0,64.0
1861,74.0,0,120,0.0,62.0
1862,75.0,342,119,0.0,63.0
1863,72.0,0,119,0.0,60.0
1864,51.0,0,1024,0.0,43.0
1865,55.0,341,1024,0.0,60.0
1866,63.0,0,1024,0.0,55.0
1867,65.0,0,381,0.0,60.0
1868,74.0,0,381,0.0,64.0
1869,63.0,341,120,0.0,58.0
1870,75.0,0,120,0.0,62.0
1871,77.0,0,119,0.0,60.0
1872,62.0,342,119,0.0,55.0
1873,68.0,0,1024,0.0,57.0
1874,80.0,341,1024,0.0,75.0
1875,47.0,0,1064,0.0,64.0
1876,63.0,0,381,0.0,60.0
1877,79.0,341,381,0.0,64.0
1878,77.0,341,120,0.0,62.0
1879,62.0,0,120,0.0,58.0
1880,75.0,0,119,0.0,60.0
1881,60.0,342,119,0.0,55.0
1882,39.0,0,2048,0.0,52.0
1883,48.0,0,1024,0.0,55.0
1884,67.0,0,1024,0.0,60.0
1885,68.0,0,179,0.0,47.0
1886,74.0,0,179,0.0,59.0
1887,62.0,0,341,0.0,55.0
1888,74.0,171,179,0.0,64.0
1889,56.0,341,382,0.0,56.0
1890,58.0,171,119,0.0,57.0
1891,86.0,0,358,0.0,71.0
1892,74.0,0,358,0.0,52.0
1893,56.0,0,381,0.0,46.0
1894,60.0,0,381,0.0,58.0
1895,58.0,341,120,0.0,46.0
1896,62.0,0,120,0.0,58.0
1897,67.0,341,552,0.0,64.0
1898,68.0,171,179,0.0,56.0
1899,60.0,171,119,0.0,47.0
1900,63.0,0,119,0.0,59.0
1901,41.0,341,2048,0.0,58.0
1902,53.0,0,2048,0.0,70.0
1903,68.0,341,382,0.0,55.0
1904,70.0,342,119,0.0,57.0
1905,65.0,0,1024,0.0,60.0
1906,62.0,341,1024,0.0,48.0
1907,67.0,0,1054,0.0,50.0
1908,79.0,0,1054,0.0,69.0
1909,72.0,0,381,0.0,59.0
1910,63.0,0,381,0.0,60.0
1911,62.0,341,120,0.0,58.0
1912,74.0,0,120,0.0,60.0
1913,75.0,342,119,0.0,62.0
1914,60.0,0,119,0.0,55.0
1915,80.0,0,934,0.0,62.0
1916,68.0,341,0,0.0,52.0
1917,56.0,166,1199,0.0,43.0
1918,53.0,0,0,0.0,52.0
1919,60.0,0,381,0.0,60.0
1920,58.0,341,120,0.0,58.0
1921,70.0,0,382,0.0,58.0
1922,56.0,342,119,0.0,55.0
1923,72.0,0,119,0.0,59.0
1924,79.0,0,1024,0.0,64.0
1925,53.0,166,175,0.0,43.0
1926,64.0,0,1064,0.0,64.0
1927,74.0,175,381,0.0,60.0
1928,77.0,0,381,0.0,64.0
1929,75.0,0,120,0.0,62.0
1930,74.0,342,119,0.0,60.0
1931,77.0,0,119,0.0,63.0
1932,65.0,0,1024,0.0,55.0
1933,68.0,0,1024,0.0,60.0
1934,76.0,0,381,0.0,64.0
1935,67.0,0,381,0.0,60.0
1936,77.0,341,120,0.0,62.0
1937,65.0,0,342,0.0,58.0
1938,79.0,342,119,0.0,60.0
1939,64.0,0,119,0.0,55.0
1940,70.0,0,1024,0.0,57.0
1941,82.0,0,1024,0.0,74.0
1942,49.0,341,1064,0.0,64.0
1943,80.0,341,381,0.0,64.0
1944,79.0,341,120,0.0,62.0
1945,77.0,342,119,0.0,60.0
1946,68.0,0,1024,0.0,60.0
1947,53.0,0,1024,0.0,44.0
1948,65.0,0,1024,0.0,56.0
1949,41.0,0,2048,0.0,52.0
1950,50.0,0,1024,0.0,55.0
1951,70.0,0,119,0.0,53.0
1952,63.0,0,119,0.0,43.0
1953,75.0,0,179,0.0,66.0
1954,87.0,0,179,0.0,71.0
1955,75.0,171,179,0.0,58.0
1956,58.0,341,382,0.0,56.0
1957,60.0,171,119,0.0,58.0
1958,55.0,0,1024,0.0,60.0
1959,62.0,0,381,0.0,60.0
1960,58.0,0,381,0.0,48.0
1961,60.0,341,120,0.0,49.0
1962,63.0,0,120,0.0,61.0
1963,69.0,0,552,0.0,60.0
1964,81.0,341,552,0.0,73.0
1965,82.0,0,179,0.0,65.0
1966,70.0,0,179,0.0,52.0
1967,58.0,0,179,0.0,52.0
1968,65.0,0,119,0.0,63.0
1969,62.0,171,119,0.0,51.0
1970,31.0,341,0,0.0,55.0
1971,43.0,0,0,0.0,64.0
1972,62.0,0,552,0.0,64.0
1973,75.0,512,179,0.0,61.0
1974,63.0,0,179,0.0,55.0
1975,65.0,0,1024,0.0,52.0
1976,68.0,0,1024,0.0,64.0
1977,67.0,0,381,0.0,60.0
1978,58.0,512,381,0.0,48.0
1979,65.0,341,120,0.0,58.0
1980,56.0,0,120,0.0,46.0
1981,69.0,0,552,0.0,63.0
1982,57.0,0,552,0.0,64.0
1983,58.0,0,179,0.0,55.0
1984,70.0,171,179,0.0,54.0
1985,64.0,171,119,0.0,55.0
1986,55.0,0,119,0.0,43.0
1987,36.0,0,512,0.0,64.0
1988,24.0,0,512,0.0,55.0
1989,65.0,0,179,0.0,64.0
1990,72.0,0,179,0.0,78.0
1991,60.0,0,179,0.0,64.0
1992,89.0,171,179,0.0,79.0
1993,77.0,0,179,0.0,65.0
1994,60.0,341,382,0.0,55.0
1995,62.0,171,119,0.0,57.0
1996,56.0,0,1024,0.0,64.0
1997,44.0,0,1024,0.0,52.0
1998,64.0,0,381,0.0,59.0
1999,60.0,0,381,0.0,47.0
2000,65.0,0,120,0.0,60.0
2001,62.0,341,120,0.0,48.0
2002,71.0,0,552,0.0,62.0
2003,83.0,341,552,0.0,76.0
2004,72.0,0,179,0.0,57.0
2005,84.0,171,179,0.0,72.0
2006,67.0,0,119,0.0,62.0
2007,64.0,171,119,0.0,50.0
2008,32.0,0,0,0.0,55.0
2009,60.0,0,512,0.0,52.0
2010,44.0,0,0,0.0,64.0
2011,64.0,0,552,0.0,64.0
2012,77.0,512,179,0.0,68.0
2013,65.0,0,179,0.0,55.0
2014,70.0,0,1024,0.0,64.0
2015,67.0,341,1024,0.0,52.0
2016,60.0,0,381,0.0,48.0
2017,68.0,0,381,0.0,60.0
2018,58.0,341,120,0.0,46.0
2019,67.0,0,120,0.0,58.0
2020,71.0,512,552,0.0,69.0
2021,59.0,0,552,0.0,64.0
2022,60.0,0,179,0.0,55.0
2023,72.0,171,179,0.0,60.0
2024,66.0,0,119,0.0,55.0
2025,57.0,171,119,0.0,43.0
2026,26.0,0,512,0.0,64.0
2027,38.0,0,512,0.0,64.0
2028,47.0,341,119,0.0,64.0
2029,59.0,0,119,0.0,64.0
2030,35.0,0,119,0.0,52.0
2031,74.0,0,341,0.0,78.0
2032,67.0,0,341,0.0,64.0
2033,62.0,0,341,0.0,52.0
2034,43.0,0,382,0.0,60.0
2035,55.0,0,382,0.0,60.0
2036,57.0,0,119,0.0,61.0
2037,45.0,342,119,0.0,61.0
2038,91.0,341,683,0.0,78.0
2039,79.0,0,683,0.0,64.0
2040,67.0,0,381,0.0,60.0
2041,59.0,0,381,0.0,62.0
2042,47.0,341,381,0.0,62.0
2043,69.0,0,120,0.0,61.0
2044,60.0,341,120,0.0,62.0
2045,48.0,0,120,0.0,62.0
2046,90.0,0,683,0.0,78.0
2047,78.0,0,683,0.0,64.0
2048,62.0,342,119,0.0,63.0
2049,50.0,0,119,0.0,63.0
2050,71.0,0,119,0.0,63.0
2051,77.0,0,341,0.0,64.0
2052,89.0,0,341,0.0,78.0
2053,55.0,0,119,0.0,64.0
2054,43.0,0,341,0.0,64.0
2055,88.0,0,341,0.0,78.0
2056,76.0,0,341,0.0,64.0
2057,72.0,341,512,0.0,64.0
2058,63.0,0,342,0.0,65.0
2059,51.0,0,342,0.0,53.0
2060,65.0,0,119,0.0,66.0
2061,53.0,342,119,0.0,54.0
2062,31.0,341,0,0.0,52.0
2063,43.0,0,0,0.0,64.0
2064,75.0,341,683,0.0,64.0
2065,87.0,0,683,0.0,78.0
2066,63.0,0,381,0.0,60.0
2067,67.0,0,381,0.0,67.0
2068,55.0,0,381,0.0,55.0
2069,68.0,341,120,0.0,67.0
2070,56.0,0,120,0.0,55.0
2071,65.0,0,120,0.0,61.0
2072,86.0,0,683,0.0,78.0
2073,74.0,0,683,0.0,64.0
2074,58.0,0,119,0.0,56.0
2075,67.0,0,119,0.0,63.0
2076,70.0,0,119,0.0,68.0
2077,27.0,0,341,0.0,52.0
2078,85.0,0,341,0.0,78.0
2079,73.0,0,341,0.0,64.0
2080,39.0,342,341,0.0,64.0
2081,72.0,341,119,0.0,64.0
2082,68.0,0,119,0.0,64.0
2083,84.0,0,119,0.0,78.0
2084,32.0,0,341,0.0,52.0
2085,44.0,0,341,0.0,64.0
2086,51.0,0,512,0.0,57.0
2087,63.0,0,512,0.0,69.0
2088,72.0,0,382,0.0,64.0
2089,60.0,0,382,0.0,71.0
2090,62.0,0,119,0.0,61.0
2091,74.0,342,119,0.0,66.0
2092,48.0,0,683,0.0,59.0
2093,60.0,0,0,0.0,60.0
2094,76.0,341,381,0.0,67.0
2095,64.0,0,381,0.0,62.0
2096,62.0,0,120,0.0,61.0
2097,77.0,0,120,0.0,68.0
2098,65.0,341,120,0.0,62.0
2099,47.0,0,683,0.0,59.0
2100,59.0,0,683,0.0,71.0
2101,79.0,0,119,0.0,70.0
2102,64.0,0,119,0.0,63.0
2103,67.0,0,119,0.0,63.0
2104,46.0,342,341,0.0,59.0
2105,58.0,0,341,0.0,71.0
2106,72.0,0,119,0.0,64.0
2107,57.0,0,341,0.0,71.0
2108,45.0,0,341,0.0,59.0
2109,60.0,0,0,0.0,60.0
2110,65.0,341,512,0.0,64.0
2111,68.0,0,382,0.0,56.0
2112,80.0,0,382,0.0,68.0
2113,82.0,342,119,0.0,71.0
2114,70.0,0,119,0.0,58.0
2115,56.0,0,0,0.0,60.0
2116,44.0,341,683,0.0,59.0
2117,68.0,0,341,0.0,72.0
2118,72.0,0,381,0.0,60.0
2119,84.0,0,381,0.0,73.0
2120,73.0,0,120,0.0,62.0
2121,85.0,0,120,0.0,75.0
2122,70.0,0,120,0.0,73.0
2123,58.0,341,120,0.0,61.0
2124,60.0,341,683,0.0,62.0
2125,55.0,0,683,0.0,71.0
2126,43.0,0,683,0.0,59.0
2127,60.0,0,119,0.0,63.0
2128,87.0,0,119,0.0,78.0
2129,75.0,342,119,0.0,64.0
2130,72.0,0,119,0.0,75.0
2131,42.0,0,341,0.0,59.0
2132,56.0,0,341,0.0,64.0
2133,54.0,0,341,0.0,71.0
2134,61.0,0,119,0.0,64.0
2135,80.0,0,221,0.0,78.0
2136,68.0,341,221,0.0,64.0
2137,41.0,0,221,0.0,59.0
2138,53.0,0,221,0.0,71.0
2139,73.0,341,0,0.0,68.0
2140,65.0,0,382,0.0,65.0
2141,72.0,0,119,0.0,56.0
2142,75.0,0,119,0.0,70.0
2143,63.0,0,119,0.0,65.0
2144,66.0,0,119,0.0,66.0
2145,68.0,0,683,0.0,52.0
2146,80.0,341,0,0.0,64.0
2147,73.0,0,381,0.0,58.0
2148,77.0,0,381,0.0,72.0
2149,61.0,0,381,0.0,66.0
2150,65.0,0,381,0.0,67.0
2151,60.0,0,120,0.0,56.0
2152,63.0,0,120,0.0,68.0
2153,75.0,341,120,0.0,60.0
2154,80.0,0,120,0.0,74.0
2155,68.0,0,683,0.0,52.0
2156,63.0,0,119,0.0,69.0
2157,56.0,0,119,0.0,57.0
2158,80.0,0,119,0.0,64.0
2159,72.0,342,119,0.0,52.0
2160,75.0,0,119,0.0,62.0
2161,84.0,0,119,0.0,76.0
2162,53.0,0,119,0.0,70.0
2163,61.0,0,221,0.0,70.0
2164,77.0,341,221,0.0,64.0
2165,89.0,0,221,0.0,78.0
2166,80.0,0,0,0.0,64.0
2167,73.0,0,382,0.0,68.0
2168,68.0,0,382,0.0,52.0
2169,65.0,341,382,0.0,64.0
2170,72.0,342,119,0.0,56.0
2171,75.0,0,119,0.0,70.0
2172,67.0,0,119,0.0,65.0
2173,63.0,0,119,0.0,65.0
2174,80.0,0,0,0.0,64.0
2175,68.0,0,0,0.0,52.0
2176,77.0,0,381,0.0,72.0
2177,61.0,0,381,0.0,66.0
2178,65.0,341,381,0.0,66.0
2179,73.0,0,381,0.0,58.0
2180,63.0,0,120,0.0,68.0
2181,80.0,341,120,0.0,75.0
2182,75.0,0,120,0.0,61.0
2183,60.0,0,120,0.0,68.0
2184,84.0,0,119,0.0,77.0
2185,75.0,0,119,0.0,63.0
2186,56.0,0,119,0.0,69.0
2187,63.0,342,119,0.0,69.0
2188,80.0,0,0,0.0,71.0
2189,72.0,0,341,0.0,52.0
2190,53.0,0,119,0.0,58.0
2191,77.0,341,221,0.0,65.0
2192,89.0,0,221,0.0,79.0
2193,61.0,0,221,0.0,70.0
2194,65.0,341,382,0.0,64.0
2195,62.0,0,382,0.0,64.0
2196,71.0,0,382,0.0,68.0
2197,63.0,0,119,0.0,65.0
2198,69.0,0,119,0.0,56.0
2199,72.0,0,119,0.0,70.0
2200,60.0,342,119,0.0,65.0
2201,79.0,341,0,0.0,64.0
2202,67.0,0,683,0.0,52.0
2203,59.0,0,381,0.0,66.0
2204,74.0,0,381,0.0,72.0
2205,62.0,0,381,0.0,66.0
2206,71.0,0,381,0.0,58.0
2207,57.0,0,120,0.0,68.0
2208,72.0,0,120,0.0,61.0
2209,75.0,0,120,0.0,75.0
2210,60.0,341,120,0.0,68.0
2211,67.0,0,683,0.0,52.0
2212,77.0,0,119,0.0,77.0
2213,59.0,342,119,0.0,69.0
2214,55.0,0,119,0.0,69.0
2215,74.0,0,119,0.0,63.0
2216,79.0,341,0,0.0,71.0
2217,55.0,0,119,0.0,70.0
2218,47.0,0,119,0.0,58.0
2219,86.0,0,221,0.0,79.0
2220,77.0,0,221,0.0,65.0
2221,74.0,0,341,0.0,52.0
2222,62.0,0,342,0.0,64.0
2223,65.0,0,342,0.0,64.0
2224,71.0,341,342,0.0,68.0
2225,63.0,0,119,0.0,65.0
2226,69.0,0,119,0.0,57.0
2227,72.0,0,119,0.0,71.0
2228,60.0,342,119,0.0,65.0
2229,67.0,0,683,0.0,52.0
2230,79.0,0,683,0.0,64.0
2231,71.0,341,341,0.0,59.0
2232,74.0,0,341,0.0,73.0
2233,62.0,0,341,0.0,66.0
2234,59.0,0,341,0.0,66.0
2235,57.0,0,120,0.0,68.0
2236,72.0,0,120,0.0,62.0
2237,75.0,341,120,0.0,76.0
2238,60.0,0,120,0.0,68.0
2239,67.0,0,683,0.0,52.0
2240,79.0,0,683,0.0,64.0
2241,55.0,0,119,0.0,69.0
2242,59.0,0,119,0.0,69.0
2243,77.0,0,119,0.0,52.0
2244,74.0,342,119,0.0,64.0
2245,77.0,0,0,0.0,67.0
2246,79.0,0,341,0.0,64.0
2247,55.0,0,179,0.0,71.0
2248,47.0,0,179,0.0,52.0
2249,79.0,0,341,0.0,71.0
2250,74.0,0,341,0.0,52.0
2251,86.0,341,392,0.0,81.0
2252,67.0,341,382,0.0,64.0
2253,66.0,0,119,0.0,56.0
2254,69.0,342,119,0.0,65.0
2255,67.0,0,381,0.0,55.0
2256,71.0,0,381,0.0,67.0
2257,62.0,0,381,0.0,46.0
2258,65.0,341,381,0.0,58.0
2259,63.0,0,120,0.0,59.0
2260,60.0,0,120,0.0,47.0
2261,72.0,0,120,0.0,68.0
2262,69.0,341,120,0.0,56.0
2263,62.0,0,381,0.0,60.0
2264,79.0,0,381,0.0,71.0
2265,67.0,0,381,0.0,59.0
2266,71.0,0,381,0.0,57.0
2267,41.0,342,381,0.0,59.0
2268,74.0,0,381,0.0,69.0
2269,53.0,0,381,0.0,71.0
2270,60.0,0,119,0.0,61.0
2271,75.0,0,119,0.0,70.0
2272,72.0,0,119,0.0,58.0
2273,55.0,0,460,0.0,48.0
2274,69.0,0,119,0.0,62.0
2275,51.0,341,119,0.0,74.0
2276,81.0,0,119,0.0,74.0
2277,39.0,0,119,0.0,62.0
2278,38.0,0,382,0.0,65.0
2279,83.0,341,382,0.0,77.0
2280,71.0,0,382,0.0,65.0
2281,53.0,0,382,0.0,55.0
2282,50.0,0,382,0.0,77.0
2283,74.0,0,382,0.0,71.0
2284,55.0,0,461,0.0,62.0
2285,51.0,0,119,0.0,55.0
2286,75.0,0,119,0.0,73.0
2287,48.0,0,119,0.0,81.0
2288,84.0,0,119,0.0,81.0
2289,72.0,0,119,0.0,69.0
2290,36.0,342,119,0.0,69.0
2291,68.0,0,381,0.0,68.0
2292,29.0,0,381,0.0,75.0
2293,41.0,0,381,0.0,87.0
2294,80.0,0,381,0.0,80.0
2295,53.0,341,381,0.0,69.0
2296,77.0,0,120,0.0,82.0
2297,65.0,0,120,0.0,70.0
2298,44.0,341,120,0.0,82.0
2299,56.0,0,120,0.0,64.0
2300,32.0,0,120,0.0,70.0
2301,62.0,0,683,0.0,62.0
2302,72.0,0,683,0.0,62.0
2303,74.0,0,683,0.0,74.0
2304,31.0,0,119,0.0,64.0
2305,55.0,0,119,0.0,52.0
2306,43.0,0,119,0.0,76.0
2307,79.0,0,119,0.0,76.0
2308,67.0,0,119,0.0,64.0
2309,74.0,0,341,0.0,64.0
2310,71.0,0,341,0.0,52.0
2311,62.0,342,341,0.0,52.0
2312,60.0,0,221,0.0,64.0
2313,72.0,0,341,0.0,64.0
2314,36.0,0,392,0.0,67.0
2315,75.0,341,392,0.0,81.0
2316,48.0,0,392,0.0,81.0
2317,63.0,0,392,0.0,67.0
2318,67.0,341,382,0.0,65.0
2319,66.0,342,119,0.0,58.0
2320,69.0,0,119,0.0,67.0
2321,65.0,341,381,0.0,59.0
2322,71.0,0,381,0.0,68.0
2323,67.0,0,381,0.0,56.0
2324,62.0,0,381,0.0,47.0
2325,69.0,0,120,0.0,57.0
2326,72.0,0,120,0.0,69.0
2327,60.0,0,120,0.0,48.0
2328,63.0,341,120,0.0,60.0
2329,71.0,342,381,0.0,58.0
2330,74.0,0,381,0.0,70.0
2331,41.0,0,381,0.0,59.0
2332,79.0,0,381,0.0,71.0
2333,62.0,0,381,0.0,61.0
2334,53.0,0,381,0.0,71.0
2335,67.0,0,381,0.0,59.0
2336,69.0,0,119,0.0,62.0
2337,81.0,0,119,0.0,74.0
2338,39.0,341,119,0.0,62.0
2339,51.0,0,119,0.0,74.0
2340,72.0,0,119,0.0,59.0
2341,75.0,0,119,0.0,71.0
2342,55.0,0,460,0.0,49.0
2343,60.0,0,119,0.0,62.0
2344,71.0,0,382,0.0,65.0
2345,38.0,0,382,0.0,65.0
2346,50.0,0,382,0.0,77.0
2347,74.0,0,382,0.0,73.0
2348,53.0,0,382,0.0,55.0
2349,83.0,0,382,0.0,77.0
2350,75.0,0,119,0.0,74.0
2351,51.0,0,119,0.0,55.0
2352,55.0,341,461,0.0,64.0
2353,48.0,0,119,0.0,81.0
2354,72.0,342,119,0.0,69.0
2355,84.0,0,119,0.0,81.0
2356,36.0,0,119,0.0,69.0
2357,53.0,0,381,0.0,65.0
2358,41.0,0,381,0.0,87.0
2359,68.0,0,381,0.0,68.0
2360,80.0,0,381,0.0,80.0
2361,29.0,341,381,0.0,75.0
2362,56.0,0,120,0.0,64.0
2363,65.0,0,120,0.0,70.0
2364,77.0,0,120,0.0,82.0
2365,32.0,0,120,0.0,70.0
2366,44.0,341,120,0.0,82.0
2367,62.0,0,683,0.0,58.0
2368,74.0,0,0,0.0,64.0
2369,72.0,0,683,0.0,58.0
2370,67.0,0,119,0.0,64.0
2371,79.0,0,119,0.0,76.0
2372,31.0,0,119,0.0,64.0
2373,43.0,0,119,0.0,76.0
2374,55.0,342,119,0.0,52.0
2375,62.0,0,341,0.0,52.0
2376,71.0,0,341,0.0,52.0
2377,63.0,341,119,0.0,70.0
2378,75.0,0,119,0.0,78.0
2379,72.0,0,119,0.0,64.0
2380,60.0,0,119,0.0,70.0
2381,36.0,0,221,0.0,65.0
2382,48.0,0,221,0.0,74.0
2383,38.0,341,382,0.0,61.0
2384,50.0,0,382,0.0,70.0
2385,51.0,342,119,0.0,72.0
2386,39.0,0,119,0.0,63.0
2387,67.0,0,683,0.0,69.0
2388,60.0,0,0,0.0,66.0
2389,84.0,0,683,0.0,79.0
2390,79.0,0,683,0.0,64.0
2391,72.0,0,0,0.0,61.0
2392,53.0,341,381,0.0,73.0
2393,41.0,0,381,0.0,64.0
2394,55.0,341,120,0.0,71.0
2395,43.0,0,120,0.0,62.0
2396,80.0,0,683,0.0,75.0
2397,60.0,0,0,0.0,64.0
2398,65.0,0,0,0.0,64.0
2399,68.0,0,683,0.0,66.0
2400,72.0,0,0,0.0,58.0
2401,44.0,0,119,0.0,60.0
2402,56.0,342,119,0.0,69.0
2403,77.0,0,341,0.0,71.0
2404,68.0,0,341,0.0,64.0
2405,48.0,341,221,0.0,74.0
2406,36.0,0,221,0.0,65.0
2407,50.0,341,382,0.0,70.0
2408,38.0,0,382,0.0,61.0
2409,39.0,342,119,0.0,63.0
2410,51.0,0,119,0.0,72.0
2411,72.0,0,683,0.0,64.0
2412,79.0,0,683,0.0,64.0
2413,60.0,0,683,0.0,70.0
2414,67.0,0,683,0.0,70.0
2415,84.0,0,683,0.0,79.0
2416,41.0,341,381,0.0,64.0
2417,53.0,0,381,0.0,73.0
2418,43.0,341,120,0.0,62.0
2419,55.0,0,120,0.0,71.0
2420,65.0,0,683,0.0,67.0
2421,68.0,0,683,0.0,67.0
2422,60.0,0,683,0.0,67.0
2423,80.0,0,683,0.0,75.0
2424,72.0,0,0,0.0,58.0
2425,56.0,0,119,0.0,69.0
2426,44.0,0,119,0.0,60.0
2427,77.0,342,341,0.0,71.0
2428,60.0,0,341,0.0,64.0
2429,65.0,0,341,0.0,64.0
2430,68.0,0,341,0.0,64.0
2431,31.0,0,221,0.0,65.0
2432,43.0,341,221,0.0,74.0
2433,33.0,0,382,0.0,61.0
2434,45.0,0,382,0.0,70.0
2435,35.0,0,119,0.0,63.0
2436,47.0,342,119,0.0,72.0
2437,74.0,341,683,0.0,64.0
2438,79.0,0,683,0.0,79.0
2439,62.0,0,683,0.0,70.0
2440,67.0,0,0,0.0,67.0
2441,36.0,0,381,0.0,64.0
2442,48.0,0,381,0.0,73.0
2443,50.0,341,120,0.0,71.0
2444,38.0,0,120,0.0,62.0
2445,67.0,0,0,0.0,64.0
2446,63.0,0,683,0.0,67.0
2447,75.0,341,683,0.0,75.0
2448,72.0,342,0,0.0,71.0
2449,39.0,0,119,0.0,60.0
2450,51.0,0,119,0.0,69.0
2451,63.0,0,341,0.0,64.0
2452,60.0,0,341,0.0,64.0
2453,29.0,0,221,0.0,65.0
2454,41.0,0,221,0.0,74.0
2455,56.0,341,252,0.0,71.0
2456,68.0,0,252,0.0,64.0
2457,65.0,0,252,0.0,64.0
2458,61.0,0,252,0.0,64.0
2459,73.0,0,252,0.0,83.0
2460,52.0,0,382,0.0,69.0
2461,40.0,341,382,0.0,60.0
2462,60.0,0,252,0.0,58.0
2463,56.0,0,252,0.0,65.0
2464,72.0,0,252,0.0,77.0
2465,63.0,171,252,0.0,58.0
2466,41.0,171,119,0.0,55.0
2467,53.0,0,119,0.0,64.0
2468,43.0,0,221,0.0,74.0
2469,31.0,341,221,0.0,65.0
2470,72.0,0,252,0.0,83.0
2471,55.0,0,252,0.0,71.0
2472,67.0,0,252,0.0,64.0
2473,63.0,0,252,0.0,64.0
2474,60.0,0,252,0.0,64.0
2475,42.0,341,382,0.0,60.0
2476,54.0,0,382,0.0,69.0
2477,55.0,0,81,0.0,64.0
2478,71.0,0,252,0.0,77.0
2479,62.0,0,252,0.0,58.0
2480,59.0,0,252,0.0,58.0
2481,43.0,171,119,0.0,55.0
2482,48.0,0,221,0.0,74.0
2483,36.0,0,221,0.0,65.0
2484,63.0,0,341,0.0,78.0
2485,60.0,341,341,0.0,64.0
2486,72.0,0,0,0.0,64.0
2487,38.0,0,382,0.0,61.0
2488,50.0,0,382,0.0,70.0
2489,51.0,0,119,0.0,72.0
2490,39.0,342,119,0.0,63.0
2491,79.0,341,683,0.0,64.0
2492,84.0,0,683,0.0,79.0
2493,60.0,0,683,0.0,69.0
2494,67.0,0,683,0.0,69.0
2495,72.0,341,0,0.0,61.0
2496,41.0,0,381,0.0,64.0
2497,53.0,0,381,0.0,73.0
2498,43.0,341,120,0.0,62.0
2499,55.0,0,120,0.0,71.0
2500,65.0,0,683,0.0,66.0
2501,80.0,0,683,0.0,75.0
2502,72.0,0,0,0.0,58.0
2503,60.0,342,0,0.0,64.0
2504,68.0,0,0,0.0,64.0
2505,44.0,0,119,0.0,60.0
2506,56.0,0,119,0.0,69.0
2507,65.0,0,341,0.0,64.0
2508,77.0,0,341,0.0,71.0
2509,48.0,341,221,0.0,74.0
2510,36.0,0,221,0.0,65.0
2511,38.0,0,382,0.0,61.0
2512,50.0,0,382,0.0,70.0
2513,39.0,342,119,0.0,63.0
2514,51.0,0,119,0.0,72.0
2515,67.0,0,683,0.0,70.0
2516,84.0,0,683,0.0,79.0
2517,72.0,0,0,0.0,61.0
2518,60.0,0,0,0.0,67.0
2519,79.0,0,683,0.0,64.0
2520,53.0,0,381,0.0,73.0
2521,41.0,0,381,0.0,64.0
2522,43.0,0,120,0.0,62.0
2523,55.0,341,120,0.0,71.0
2524,65.0,341,683,0.0,67.0
2525,68.0,0,0,0.0,64.0
2526,80.0,0,683,0.0,75.0
2527,72.0,342,0,0.0,58.0
2528,56.0,0,119,0.0,69.0
2529,44.0,0,119,0.0,60.0
2530,77.0,0,341,0.0,71.0
2531,60.0,0,341,0.0,64.0
2532,65.0,0,341,0.0,64.0
2533,44.0,341,221,0.0,74.0
2534,32.0,0,221,0.0,65.0
2535,34.0,0,382,0.0,61.0
2536,46.0,341,382,0.0,70.0
2537,36.0,342,119,0.0,63.0
2538,48.0,0,119,0.0,72.0
2539,80.0,0,683,0.0,67.0
2540,87.0,0,683,0.0,82.0
2541,68.0,0,683,0.0,70.0
2542,75.0,0,683,0.0,70.0
2543,49.0,0,381,0.0,73.0
2544,37.0,0,381,0.0,64.0
2545,51.0,0,120,0.0,71.0
2546,39.0,341,120,0.0,62.0
2547,68.0,0,683,0.0,67.0
2548,89.0,0,683,0.0,87.0
2549,65.0,0,0,0.0,64.0
2550,77.0,0,683,0.0,67.0
2551,80.0,0,0,0.0,68.0
2552,41.0,0,119,0.0,60.0
2553,53.0,342,119,0.0,69.0
2554,85.0,0,341,0.0,83.0
2555,73.0,0,341,0.0,64.0
2556,68.0,0,341,0.0,64.0
2557,44.0,0,221,0.0,74.0
2558,32.0,341,221,0.0,65.0
2559,46.0,0,382,0.0,70.0
2560,34.0,341,382,0.0,61.0
2561,48.0,342,119,0.0,72.0
2562,36.0,0,119,0.0,63.0
2563,75.0,0,683,0.0,64.0
2564,68.0,0,0,0.0,71.0
2565,87.0,0,683,0.0,82.0
2566,80.0,0,0,0.0,73.0
2567,49.0,0,381,0.0,73.0
2568,37.0,0,381,0.0,64.0
2569,51.0,0,120,0.0,71.0
2570,39.0,341,120,0.0,62.0
2571,77.0,0,683,0.0,71.0
2572,65.0,0,0,0.0,64.0
2573,89.0,341,683,0.0,88.0
2574,80.0,0,0,0.0,65.0
2575,68.0,0,0,0.0,64.0
2576,41.0,0,119,0.0,60.0
2577,53.0,0,119,0.0,69.0
2578,73.0,0,0,0.0,64.0
2579,85.0,0,341,0.0,80.0
2580,80.0,341,0,0.0,64.0
2581,29.0,0,221,0.0,65.0
2582,41.0,0,221,0.0,74.0
2583,68.0,0,252,0.0,71.0
2584,85.0,0,252,0.0,83.0
2585,77.0,0,252,0.0,64.0
2586,52.0,341,382,0.0,69.0
2587,40.0,0,382,0.0,60.0
2588,72.0,0,252,0.0,58.0
2589,75.0,0,252,0.0,58.0
2590,84.0,0,252,0.0,77.0
2591,68.0,171,252,0.0,65.0
2592,53.0,0,119,0.0,64.0
2593,41.0,171,119,0.0,55.0
2594,43.0,0,221,0.0,74.0
2595,31.0,341,221,0.0,65.0
2596,72.0,0,252,0.0,64.0
2597,75.0,0,252,0.0,64.0
2598,79.0,0,252,0.0,64.0
2599,84.0,0,252,0.0,83.0
2600,67.0,0,252,0.0,71.0
2601,54.0,0,382,0.0,69.0
2602,42.0,341,382,0.0,60.0
2603,83.0,0,252,0.0,77.0
2604,67.0,171,252,0.0,65.0
2605,71.0,0,252,0.0,58.0
2606,74.0,0,252,0.0,58.0
2607,43.0,171,119,0.0,55.0
2608,55.0,0,119,0.0,64.0
2609,41.0,341,221,0.0,74.0
2610,29.0,0,221,0.0,65.0
2611,61.0,0,252,0.0,64.0
2612,65.0,0,252,0.0,64.0
2613,68.0,0,252,0.0,64.0
2614,73.0,0,252,0.0,83.0
2615,56.0,0,252,0.0,71.0
2616,40.0,0,382,0.0,60.0
2617,52.0,341,382,0.0,69.0
2618,56.0,0,252,0.0,65.0
2619,63.0,171,252,0.0,58.0
2620,60.0,0,252,0.0,58.0
2621,72.0,0,252,0.0,77.0
2622,41.0,171,119,0.0,55.0
2623,53.0,0,119,0.0,64.0
2624,31.0,0,221,0.0,65.0
2625,43.0,0,221,0.0,74.0
2626,67.0,0,252,0.0,64.0
2627,72.0,0,252,0.0,83.0
2628,55.0,0,252,0.0,71.0
2629,63.0,0,252,0.0,64.0
2630,60.0,341,252,0.0,64.0
2631,54.0,341,382,0.0,69.0
2632,42.0,0,382,0.0,60.0
2633,59.0,0,252,0.0,58.0
2634,62.0,171,252,0.0,58.0
2635,71.0,0,252,0.0,77.0
2636,55.0,171,81,0.0,64.0
2637,43.0,0,119,0.0,55.0
2638,43.0,341,179,0.0,64.0
2639,60.0,0,179,0.0,64.0
2640,63.0,0,179,0.0,64.0
2641,72.0,0,179,0.0,76.0
2642,31.0,0,179,0.0,52.0
2643,54.0,512,512,0.0,52.0
2644,66.0,0,512,0.0,64.0
2645,67.0,0,179,0.0,64.0
2646,55.0,0,179,0.0,52.0
2647,59.0,512,179,0.0,52.0
2648,62.0,0,179,0.0,64.0
2649,43.0,0,179,0.0,64.0
2650,55.0,512,179,0.0,52.0
2651,63.0,0,179,0.0,64.0
2652,60.0,0,179,0.0,52.0
2653,43.0,512,179,0.0,45.0
2654,31.0,0,179,0.0,36.0
2655,66.0,0,512,0.0,57.0
2656,54.0,512,512,0.0,45.0
2657,67.0,0,179,0.0,57.0
2658,55.0,0,179,0.0,45.0
2659,59.0,512,512,0.0,43.0
2660,62.0,0,512,0.0,55.0
2661,55.0,512,179,0.0,45.0
2662,43.0,0,179,0.0,50.0
2663,48.0,0,179,0.0,31.0
2664,36.0,0,179,0.0,25.0
2665,51.0,0,512,0.0,43.0
2666,60.0,0,512,0.0,52.0
2667,54.0,512,134,0.0,40.0
2668,54.0,384,45,0.0,40.0
2669,63.0,0,179,0.0,25.0
2670,60.0,0,179,0.0,39.0
2671,72.0,0,179,0.0,53.0
2672,48.0,128,179,0.0,28.0
2673,55.0,0,179,0.0,40.0
2674,71.0,512,134,0.0,34.0
2675,74.0,0,134,0.0,54.0
2676,59.0,0,134,0.0,28.0
2677,62.0,0,134,0.0,40.0
2678,62.0,0,128,0.0,28.0
2679,71.0,384,128,0.0,26.0
2680,74.0,0,128,0.0,46.0
2681,59.0,0,128,0.0,16.0
2682,48.0,0,179,0.0,37.0
2683,36.0,0,179,0.0,25.0
2684,75.0,0,512,0.0,58.0
2685,63.0,0,512,0.0,44.0
2686,60.0,0,512,0.0,32.0
2687,72.0,128,512,0.0,38.0
2688,54.0,512,134,0.0,40.0
2689,54.0,384,128,0.0,40.0
2690,48.0,0,179,0.0,28.0
2691,55.0,0,179,0.0,40.0
2692,72.0,0,179,0.0,53.0
2693,60.0,128,179,0.0,39.0
2694,63.0,0,179,0.0,27.0
2695,71.0,0,134,0.0,34.0
2696,74.0,0,134,0.0,54.0
2697,59.0,0,134,0.0,28.0
2698,62.0,512,134,0.0,40.0
2699,74.0,0,128,0.0,46.0
2700,59.0,0,128,0.0,16.0
2701,62.0,0,128,0.0,28.0
2702,71.0,384,128,0.0,26.0
2703,48.0,0,179,0.0,37.0
2704,36.0,0,179,0.0,25.0
2705,72.0,0,512,0.0,38.0
2706,63.0,128,512,0.0,44.0
2707,60.0,0,512,0.0,32.0
2708,75.0,0,512,0.0,58.0
2709,55.0,512,134,0.0,40.0
2710,55.0,384,128,0.0,40.0
2711,56.0,0,179,0.0,40.0
2712,72.0,0,179,0.0,53.0
2713,60.0,0,179,0.0,39.0
2714,63.0,0,179,0.0,27.0
2715,48.0,128,179,0.0,28.0
2716,75.0,0,134,0.0,54.0
2717,60.0,0,134,0.0,28.0
2718,63.0,0,134,0.0,40.0
2719,72.0,512,134,0.0,34.0
2720,63.0,0,0,0.0,32.0
2721,72.0,384,128,0.0,26.0
2722,75.0,0,0,0.0,38.0
2723,46.0,0,179,0.0,37.0
2724,34.0,128,179,0.0,25.0
2725,67.0,0,512,0.0,44.0
2726,79.0,0,512,0.0,58.0
2727,51.0,512,179,0.0,40.0
2728,58.0,0,179,0.0,40.0
2729,62.0,0,179,0.0,44.0
2730,67.0,0,179,0.0,30.0
2731,74.0,0,179,0.0,53.0
2732,46.0,512,179,0.0,28.0
2733,77.0,0,134,0.0,54.0
2734,74.0,0,134,0.0,34.0
2735,65.0,512,179,0.0,45.0
2736,62.0,0,179,0.0,33.0
2737,74.0,384,128,0.0,46.0
2738,32.0,128,179,0.0,25.0
2739,44.0,0,179,0.0,37.0
2740,60.0,0,512,0.0,37.0
2741,65.0,0,512,0.0,49.0
2742,77.0,0,512,0.0,58.0
2743,72.0,0,512,0.0,38.0
2744,53.0,512,179,0.0,40.0
2745,44.0,512,179,0.0,28.0
2746,65.0,0,179,0.0,30.0
2747,60.0,0,179,0.0,42.0
2748,72.0,0,179,0.0,53.0
2749,56.0,0,179,0.0,40.0
2750,75.0,0,134,0.0,54.0
2751,63.0,512,179,0.0,45.0
2752,60.0,0,179,0.0,33.0
2753,72.0,384,128,0.0,42.0
2754,43.0,0,179,0.0,37.0
2755,31.0,0,179,0.0,25.0
2756,58.0,0,512,0.0,34.0
2757,63.0,0,512,0.0,46.0
2758,75.0,128,512,0.0,58.0
2759,70.0,0,512,0.0,42.0
2760,51.0,512,179,0.0,40.0
2761,55.0,0,179,0.0,40.0
2762,43.0,0,179,0.0,28.0
2763,58.0,512,0,0.0,25.0
2764,63.0,512,512,0.0,21.0
2765,70.0,0,0,0.0,44.0
2766,58.0,0,0,0.0,24.0
2767,62.0,512,0,0.0,42.0
2768,74.0,0,0,0.0,61.0
2769,29.0,0,179,0.0,25.0
2770,41.0,0,179,0.0,37.0
2771,50.0,0,179,0.0,33.0
2772,70.0,0,692,0.0,49.0
2773,60.0,0,40,0.0,21.0
2774,56.0,0,552,0.0,23.0
2775,53.0,0,179,0.0,33.0
2776,41.0,512,179,0.0,21.0
2777,72.0,0,692,0.0,59.0
2778,68.0,0,692,0.0,47.0
2779,58.0,0,552,0.0,38.0
2780,55.0,0,552,0.0,21.0
2781,70.0,0,692,0.0,55.0
2782,67.0,0,692,0.0,43.0
2783,65.0,0,512,0.0,42.0
2784,48.0,0,1024,0.0,35.0
2785,53.0,512,512,0.0,20.0
2786,56.0,0,552,0.0,37.0
2787,31.0,0,179,0.0,26.0
2788,68.0,0,692,0.0,53.0
2789,66.0,0,552,0.0,54.0
2790,62.0,512,552,0.0,44.0
2791,54.0,0,552,0.0,33.0
2792,48.0,512,179,0.0,35.0
2793,60.0,0,1024,0.0,44.0
2794,55.0,512,40,0.0,33.0
2795,63.0,0,552,0.0,43.0
2796,67.0,0,552,0.0,52.0
2797,43.0,0,179,0.0,23.0
2798,53.0,0,552,0.0,28.0
2799,65.0,0,552,0.0,51.0
2800,59.0,0,1024,0.0,42.0
2801,50.0,0,512,0.0,25.0
2802,62.0,512,552,0.0,44.0
2803,36.0,0,179,0.0,20.0
2804,48.0,0,179,0.0,21.0
2805,51.0,0,512,0.0,21.0
2806,60.0,0,512,0.0,37.0
2807,54.0,512,134,0.0,40.0
2808,54.0,384,128,0.0,35.0
2809,55.0,0,179,0.0,40.0
2810,48.0,0,179,0.0,28.0
2811,72.0,128,179,0.0,47.0
2812,60.0,0,179,0.0,34.0
2813,63.0,0,179,0.0,20.0
2814,59.0,0,134,0.0,24.0
2815,71.0,512,134,0.0,35.0
2816,74.0,0,134,0.0,51.0
2817,62.0,0,134,0.0,36.0
2818,59.0,0,128,0.0,16.0
2819,74.0,0,128,0.0,42.0
2820,71.0,384,128,0.0,26.0
2821,62.0,0,128,0.0,28.0
2822,36.0,0,179,0.0,25.0
2823,48.0,0,179,0.0,37.0
2824,63.0,128,512,0.0,40.0
2825,60.0,0,512,0.0,28.0
2826,75.0,0,512,0.0,55.0
2827,72.0,0,512,0.0,39.0
2828,54.0,512,134,0.0,40.0
2829,54.0,384,128,0.0,35.0
2830,60.0,0,179,0.0,34.0
2831,48.0,0,179,0.0,28.0
2832,72.0,0,179,0.0,47.0
2833,63.0,0,179,0.0,22.0
2834,55.0,128,179,0.0,40.0
2835,62.0,512,134,0.0,36.0
2836,74.0,0,134,0.0,51.0
2837,71.0,0,134,0.0,35.0
2838,59.0,0,134,0.0,24.0
2839,74.0,0,128,0.0,42.0
2840,62.0,384,128,0.0,28.0
2841,71.0,0,128,0.0,26.0
2842,59.0,0,128,0.0,16.0
2843,48.0,0,179,0.0,37.0
2844,36.0,0,179,0.0,25.0
2845,63.0,0,512,0.0,40.0
2846,60.0,0,512,0.0,28.0
2847,72.0,128,512,0.0,39.0
2848,75.0,0,512,0.0,55.0
2849,55.0,512,134,0.0,40.0
2850,55.0,384,128,0.0,35.0
2851,60.0,128,179,0.0,34.0
2852,72.0,0,179,0.0,47.0
2853,48.0,0,179,0.0,28.0
2854,63.0,0,179,0.0,22.0
2855,56.0,0,179,0.0,40.0
2856,72.0,512,134,0.0,35.0
2857,75.0,0,134,0.0,51.0
2858,60.0,0,134,0.0,24.0
2859,63.0,0,134,0.0,36.0
2860,63.0,0,128,0.0,25.0
2861,75.0,0,0,0.0,35.0
2862,72.0,0,128,0.0,26.0
2863,46.0,0,179,0.0,37.0
2864,34.0,0,179,0.0,25.0
2865,67.0,128,512,0.0,40.0
2866,63.0,0,512,0.0,28.0
2867,79.0,0,512,0.0,51.0
2868,51.0,512,179,0.0,40.0
2869,58.0,0,179,0.0,40.0
2870,46.0,0,179,0.0,28.0
2871,67.0,0,179,0.0,25.0
2872,62.0,512,179,0.0,39.0
2873,74.0,0,179,0.0,47.0
2874,77.0,0,134,0.0,50.0
2875,74.0,0,134,0.0,34.0
2876,62.0,512,179,0.0,33.0
2877,65.0,0,179,0.0,45.0
2878,74.0,384,128,0.0,42.0
2879,44.0,0,179,0.0,37.0
2880,32.0,0,179,0.0,25.0
2881,72.0,128,512,0.0,42.0
2882,77.0,0,512,0.0,54.0
2883,60.0,0,512,0.0,37.0
2884,65.0,0,512,0.0,49.0
2885,53.0,512,179,0.0,40.0
2886,56.0,0,179,0.0,40.0
2887,65.0,0,179,0.0,44.0
2888,60.0,0,179,0.0,32.0
2889,72.0,512,179,0.0,47.0
2890,44.0,0,179,0.0,28.0
2891,75.0,512,134,0.0,50.0
2892,60.0,0,179,0.0,33.0
2893,63.0,0,179,0.0,45.0
2894,72.0,384,128,0.0,42.0
2895,43.0,0,179,0.0,37.0
2896,31.0,0,179,0.0,25.0
2897,58.0,128,512,0.0,37.0
2898,75.0,0,512,0.0,54.0
2899,70.0,0,512,0.0,42.0
2900,63.0,0,512,0.0,49.0
2901,51.0,512,179,0.0,40.0
2902,43.0,512,179,0.0,28.0
2903,55.0,0,179,0.0,40.0
2904,58.0,0,179,0.0,32.0
2905,70.0,0,179,0.0,47.0
2906,73.0,0,134,0.0,50.0
2907,70.0,0,134,0.0,38.0
2908,58.0,512,179,0.0,33.0
2909,61.0,0,179,0.0,45.0
2910,70.0,384,128,0.0,42.0
2911,29.0,128,179,0.0,23.0
2912,41.0,0,179,0.0,35.0
2913,61.0,0,512,0.0,47.0
2914,56.0,0,512,0.0,35.0
2915,73.0,0,512,0.0,51.0
2916,68.0,0,512,0.0,40.0
2917,49.0,512,179,0.0,38.0
2918,41.0,0,179,0.0,26.0
2919,53.0,0,179,0.0,37.0
2920,56.0,0,179,0.0,29.0
2921,68.0,512,179,0.0,43.0
2922,70.0,512,134,0.0,47.0
2923,67.0,0,134,0.0,33.0
2924,58.0,0,179,0.0,42.0
2925,55.0,0,179,0.0,31.0
2926,70.0,384,128,0.0,39.0
2927,68.0,0,128,0.0,29.0
2928,28.0,0,179,0.0,29.0
2929,40.0,0,179,0.0,40.0
2930,60.0,0,512,0.0,45.0
2931,55.0,0,512,0.0,34.0
2932,72.0,0,512,0.0,50.0
2933,67.0,128,512,0.0,39.0
2934,48.0,512,179,0.0,36.0
2935,56.0,0,179,0.0,33.0
2936,41.0,0,179,0.0,29.0
2937,53.0,0,179,0.0,40.0
2938,68.0,512,179,0.0,42.0
2939,70.0,0,134,0.0,46.0
2940,67.0,0,134,0.0,35.0
2941,58.0,512,179,0.0,41.0
2942,55.0,0,179,0.0,30.0
2943,68.0,0,128,0.0,28.0
2944,70.0,384,128,0.0,37.0
2945,40.0,0,179,0.0,39.0
2946,28.0,128,179,0.0,28.0
2947,60.0,0,512,0.0,44.0
2948,55.0,0,512,0.0,33.0
2949,72.0,0,512,0.0,49.0
2950,67.0,0,512,0.0,38.0
2951,48.0,512,179,0.0,35.0
2952,68.0,0,179,0.0,40.0
2953,56.0,0,179,0.0,32.0
2954,41.0,0,179,0.0,28.0
2955,53.0,512,179,0.0,38.0
2956,70.0,0,134,0.0,44.0
2957,67.0,512,134,0.0,34.0
2958,58.0,0,179,0.0,39.0
2959,55.0,0,179,0.0,29.0
2960,68.0,384,128,0.0,26.0
2961,70.0,0,128,0.0,36.0
2962,39.0,0,179,0.0,35.0
2963,60.0,0,512,0.0,42.0
2964,55.0,0,512,0.0,32.0
2965,72.0,0,512,0.0,47.0
2966,67.0,128,512,0.0,37.0
2967,51.0,512,179,0.0,34.0
2968,65.0,0,179,0.0,38.0
2969,53.0,0,179,0.0,27.0
2970,37.0,512,179,0.0,27.0
2971,55.0,0,134,0.0,34.0
2972,67.0,512,134,0.0,45.0
2973,65.0,0,134,0.0,32.0
2974,53.0,0,134,0.0,24.0
2975,55.0,0,128,0.0,22.0
2976,67.0,384,128,0.0,35.0
2977,36.0,0,179,0.0,34.0
2978,65.0,128,512,0.0,35.0
2979,56.0,0,512,0.0,37.0
2980,53.0,0,512,0.0,27.0
2981,68.0,0,512,0.0,45.0
2982,48.0,512,179,0.0,33.0
2983,53.0,0,179,0.0,26.0
2984,65.0,0,179,0.0,41.0
2985,37.0,512,179,0.0,26.0
2986,65.0,0,134,0.0,31.0
2987,67.0,512,134,0.0,41.0
2988,53.0,0,134,0.0,23.0
2989,55.0,0,134,0.0,32.0
2990,67.0,384,128,0.0,34.0
2991,55.0,0,128,0.0,21.0
2992,36.0,128,179,0.0,40.0
2993,68.0,0,512,0.0,43.0
2994,65.0,0,512,0.0,33.0
2995,53.0,0,512,0.0,25.0
2996,56.0,0,512,0.0,34.0
2997,48.0,512,179,0.0,35.0
2998,53.0,512,179,0.0,38.0
2999,37.0,0,179,0.0,35.0
3000,55.0,512,134,0.0,36.0
3001,55.0,384,128,0.0,29.0
3002,36.0,128,179,0.0,34.0
3003,56.0,0,512,0.0,41.0
3004,53.0,0,512,0.0,24.0
3005,48.0,512,179,0.0,29.0
3006,53.0,512,179,0.0,27.0
3007,37.0,0,179,0.0,29.0
3008,55.0,512,134,0.0,29.0
3009,55.0,384,128,0.0,22.0
3010,36.0,128,179,0.0,34.0
3011,53.0,0,512,0.0,16.0
3012,56.0,0,512,0.0,33.0
3013,48.0,512,179,0.0,29.0
3014,53.0,512,179,0.0,31.0
3015,37.0,0,179,0.0,29.0
3016,52.0,0,179,0.0,20.0
3017,55.0,0,179,0.0,32.0
3018,36.0,2048,179,0.0,19.0
3019,53.0,0,176,0.0,39.0
3020,41.0,0,179,0.0,35.0
3021,48.0,256,176,0.0,37.0
3022,56.0,1024,512,0.0,48.0
3023,48.0,0,176,0.0,34.0
3024,55.0,256,256,0.0,46.0
3025,48.0,256,176,0.0,32.0
3026,53.0,0,256,0.0,44.0
3027,53.0,0,176,0.0,31.0
3028,41.0,256,179,0.0,35.0
3029,56.0,0,179,0.0,46.0
3030,48.0,256,176,0.0,32.0
3031,55.0,0,176,0.0,34.0
3032,58.0,0,179,0.0,48.0
3033,36.0,256,179,0.0,35.0
3034,58.0,256,176,0.0,35.0
3035,56.0,0,176,0.0,39.0
3036,41.0,256,179,0.0,35.0
3037,48.0,256,176,0.0,37.0
3038,48.0,256,176,0.0,34.0
3039,48.0,256,176,0.0,32.0
3040,60.0,0,1024,0.0,51.0
3041,53.0,0,179,0.0,43.0
3042,41.0,256,179,0.0,35.0
3043,48.0,256,176,0.0,32.0
3044,55.0,256,90,0.0,46.0
3045,52.0,0,176,0.0,34.0
3046,36.0,0,179,0.0,35.0
3047,56.0,0,148,0.0,42.0
3048,55.0,256,176,0.0,37.0
3049,58.0,128,148,0.0,42.0
3050,53.0,0,176,0.0,39.0
3051,41.0,128,179,0.0,35.0
3052,48.0,256,176,0.0,37.0
3053,56.0,0,512,0.0,49.0
3054,48.0,256,176,0.0,34.0
3055,55.0,0,256,0.0,47.0
3056,48.0,0,176,0.0,32.0
3057,53.0,256,256,0.0,45.0
3058,53.0,0,176,0.0,32.0
3059,56.0,256,179,0.0,47.0
3060,41.0,0,179,0.0,35.0
3061,48.0,256,176,0.0,34.0
3062,55.0,256,176,0.0,35.0
3063,39.0,0,179,0.0,35.0
3064,58.0,0,179,0.0,49.0
3065,58.0,256,176,0.0,37.0
3066,56.0,0,176,0.0,39.0
3067,44.0,256,179,0.0,35.0
3068,51.0,256,176,0.0,37.0
3069,51.0,256,176,0.0,34.0
3070,51.0,256,176,0.0,32.0
3071,60.0,256,0,0.0,49.0
3072,44.0,0,179,0.0,35.0
3073,56.0,0,179,0.0,37.0
3074,51.0,256,176,0.0,32.0
3075,59.0,256,134,0.0,34.0
3076,62.0,0,134,0.0,52.0
3077,56.0,0,176,0.0,35.0
3078,41.0,0,179,0.0,35.0
3079,59.0,0,48,0.0,33.0
3080,62.0,128,128,0.0,45.0
3081,56.0,0,176,0.0,40.0
3082,44.0,0,179,0.0,35.0
3083,51.0,256,176,0.0,37.0
3084,51.0,256,176,0.0,35.0
3085,51.0,256,176,0.0,32.0
3086,63.0,128,1024,0.0,55.0
3087,60.0,256,0,0.0,49.0
3088,44.0,0,179,0.0,35.0
3089,56.0,0,179,0.0,37.0
3090,51.0,256,176,0.0,32.0
3091,62.0,0,134,0.0,52.0
3092,59.0,256,134,0.0,34.0
3093,56.0,0,176,0.0,35.0
3094,41.0,0,179,0.0,35.0
3095,59.0,0,48,0.0,30.0
3096,62.0,128,128,0.0,42.0
3097,56.0,0,176,0.0,44.0
3098,44.0,0,179,0.0,35.0
3099,51.0,256,176,0.0,41.0
3100,51.0,256,176,0.0,39.0
3101,51.0,256,176,0.0,36.0
3102,60.0,128,1024,0.0,43.0
3103,63.0,0,1024,0.0,55.0
3104,44.0,0,179,0.0,35.0
3105,56.0,256,179,0.0,40.0
3106,60.0,0,179,0.0,51.0
3107,51.0,256,176,0.0,35.0
3108,56.0,0,176,0.0,38.0
3109,59.0,256,179,0.0,40.0
3110,41.0,0,179,0.0,35.0
3111,53.0,0,179,0.0,40.0
3112,62.0,0,179,0.0,55.0
3113,59.0,256,176,0.0,40.0
3114,60.0,0,176,0.0,43.0
3115,39.0,0,179,0.0,35.0
3116,55.0,256,176,0.0,35.0
3117,51.0,0,512,0.0,22.0
3118,63.0,0,512,0.0,34.0
3119,56.0,0,176,0.0,40.0
3120,41.0,256,179,0.0,35.0
3121,67.0,256,768,0.0,54.0
3122,65.0,0,128,0.0,53.0
3123,53.0,256,176,0.0,35.0
3124,63.0,128,64,0.0,44.0
3125,65.0,64,64,0.0,44.0
3126,61.0,0,512,0.0,36.0
3127,57.0,0,176,0.0,40.0
3128,63.0,0,256,0.0,55.0
3129,51.0,256,176,0.0,35.0
3130,62.0,0,256,0.0,53.0
3131,57.0,0,176,0.0,40.0
3132,63.0,256,256,0.0,52.0
3133,51.0,0,176,0.0,35.0
3134,42.0,64,1024,0.0,35.0
3135,65.0,256,256,0.0,50.0
3136,60.0,0,1024,0.0,38.0
3137,54.0,0,1024,0.0,26.0
3138,55.0,0,176,0.0,35.0
3139,50.0,256,176,0.0,35.0
3140,55.0,256,176,0.0,35.0
3141,55.0,256,176,0.0,35.0
3142,62.0,0,1024,0.0,47.0
3143,59.0,0,1024,0.0,33.0
3144,43.0,256,1024,0.0,35.0
3145,44.0,0,542,0.0,33.0
3146,51.0,0,542,0.0,23.0
3147,60.0,256,542,0.0,55.0
3148,62.0,0,542,0.0,58.0
3149,41.0,512,542,0.0,37.0
3150,65.0,512,542,0.0,57.0
3151,59.0,0,1054,0.0,39.0
3152,56.0,0,1054,0.0,28.0
3153,38.0,0,542,0.0,40.0
3154,55.0,0,352,0.0,16.0
3155,58.0,0,352,0.0,28.0
3156,39.0,0,352,0.0,31.0
3157,63.0,512,352,0.0,49.0
3158,60.0,0,542,0.0,42.0
3159,44.0,0,542,0.0,26.0
3160,51.0,512,542,0.0,23.0
3161,62.0,512,542,0.0,45.0
3162,41.0,0,542,0.0,30.0
3163,59.0,0,1054,0.0,31.0
3164,65.0,0,542,0.0,45.0
3165,56.0,0,1054,0.0,19.0
3166,38.0,512,542,0.0,33.0
3167,63.0,512,352,0.0,38.0
3168,55.0,0,352,0.0,12.0
3169,58.0,0,352,0.0,24.0
3170,39.0,0,512,0.0,22.0
3171,44.0,0,542,0.0,35.0
3172,51.0,0,542,0.0,18.0
3173,60.0,512,542,0.0,48.0
3174,41.0,0,352,0.0,39.0
3175,59.0,0,542,0.0,33.0
3176,62.0,0,542,0.0,53.0
3177,63.0,0,0,0.0,36.0
3178,56.0,512,1054,0.0,21.0
3179,68.0,0,542,0.0,54.0
3180,36.0,0,542,0.0,43.0
3181,67.0,512,352,0.0,52.0
3182,39.0,0,542,0.0,40.0
3183,58.0,0,542,0.0,24.0
3184,56.0,0,512,0.0,21.0
3185,61.0,0,542,0.0,33.0
3186,41.0,0,542,0.0,38.0
3187,65.0,512,542,0.0,50.0
3188,63.0,0,286,0.0,48.0
3189,62.0,256,128,0.0,48.0
3190,63.0,128,128,0.0,48.0
3191,57.0,512,542,0.0,19.0
3192,42.0,0,542,0.0,35.0
3193,60.0,0,542,0.0,31.0
3194,62.0,0,286,0.0,52.0
3195,60.0,256,286,0.0,51.0
3196,62.0,256,286,0.0,50.0
3197,43.0,0,1024,0.0,31.0
3198,59.0,0,1024,0.0,29.0
3199,55.0,128,1024,0.0,17.0
3200,63.0,0,30,0.0,39.0
3201,56.0,0,542,0.0,40.0
3202,72.0,0,542,0.0,53.0
3203,68.0,512,0,0.0,44.0
3204,60.0,0,1024,0.0,16.0
3205,44.0,256,1024,0.0,33.0
3206,71.0,0,542,0.0,39.0
3207,74.0,512,542,0.0,56.0
3208,53.0,0,542,0.0,42.0
3209,75.0,0,0,0.0,42.0
3210,80.0,0,542,0.0,58.0
3211,48.0,0,542,0.0,44.0
3212,70.0,0,542,0.0,42.0
3213,79.0,0,542,0.0,56.0
3214,51.0,512,542,0.0,43.0
3215,68.0,0,512,0.0,39.0
3216,73.0,512,542,0.0,39.0
3217,53.0,0,542,0.0,42.0
3218,77.0,0,542,0.0,53.0
3219,73.0,384,64,0.0,39.0
3220,75.0,64,64,0.0,39.0
3221,72.0,0,512,0.0,36.0
3222,69.0,512,512,0.0,36.0
3223,54.0,0,542,0.0,41.0
3224,73.0,64,286,0.0,55.0
3225,72.0,256,286,0.0,53.0
3226,73.0,256,286,0.0,52.0
3227,70.0,0,1024,0.0,39.0
3228,55.0,0,1024,0.0,28.0
3229,75.0,256,286,0.0,50.0
3230,68.0,256,512,0.0,23.0
3231,72.0,0,512,0.0,46.0
3232,56.0,0,512,0.0,25.0
3233,63.0,0,1536,0.0,40.0
3234,51.0,0,512,0.0,24.0
3235,44.0,0,542,0.0,26.0
3236,60.0,0,542,0.0,46.0
3237,56.0,0,512,0.0,35.0
3238,59.0,512,512,0.0,32.0
3239,62.0,0,542,0.0,49.0
3240,41.0,0,542,0.0,28.0
3241,63.0,512,512,0.0,34.0
3242,56.0,0,542,0.0,34.0
3243,68.0,0,542,0.0,52.0
3244,36.0,0,542,0.0,37.0
3245,58.0,512,542,0.0,32.0
3246,63.0,0,542,0.0,32.0
3247,67.0,0,542,0.0,50.0
3248,39.0,0,542,0.0,36.0
3249,65.0,0,542,0.0,53.0
3250,61.0,0,542,0.0,32.0
3251,41.0,0,542,0.0,35.0
3252,56.0,512,1024,0.0,32.0
3253,44.0,512,542,0.0,34.0
3254,63.0,0,542,0.0,50.0
3255,60.0,0,542,0.0,29.0
3256,37.0,512,542,0.0,30.0
3257,65.0,0,542,0.0,52.0
3258,56.0,0,1024,0.0,33.0
3259,61.0,0,542,0.0,47.0
3260,41.0,512,542,0.0,28.0
3261,72.0,0,512,0.0,53.0
3262,63.0,0,512,0.0,39.0
3263,39.0,0,542,0.0,27.0
3264,60.0,0,542,0.0,43.0
3265,56.0,512,542,0.0,25.0
3266,67.0,0,512,0.0,34.0
3267,70.0,0,512,0.0,31.0
3268,75.0,512,512,0.0,56.0
3269,55.0,0,542,0.0,21.0
3270,58.0,0,542,0.0,39.0
3271,51.0,0,542,0.0,25.0
3272,48.0,0,512,0.0,35.0
3273,80.0,0,512,0.0,58.0
3274,75.0,512,0,0.0,34.0
3275,56.0,0,512,0.0,19.0
3276,60.0,0,512,0.0,36.0
3277,68.0,512,512,0.0,36.0
3278,44.0,0,542,0.0,24.0
3279,70.0,0,512,0.0,34.0
3280,79.0,0,512,0.0,56.0
3281,51.0,0,512,0.0,34.0
3282,68.0,0,512,0.0,31.0
3283,73.0,512,512,0.0,31.0
3284,53.0,0,512,0.0,33.0
3285,77.0,0,512,0.0,53.0
3286,56.0,512,512,0.0,32.0
3287,75.0,0,512,0.0,48.0
3288,72.0,0,512,0.0,28.0
3289,49.0,0,512,0.0,34.0
3290,73.0,0,512,0.0,28.0
3291,68.0,512,512,0.0,28.0
3292,77.0,0,512,0.0,48.0
3293,51.0,512,512,0.0,32.0
3294,75.0,0,512,0.0,46.0
3295,72.0,0,512,0.0,29.0
3296,66.0,0,512,0.0,29.0
3297,73.0,0,512,0.0,47.0
3298,53.0,0,512,0.0,31.0
3299,58.0,0,512,0.0,30.0
3300,61.0,0,512,0.0,53.0
3301,70.0,512,512,0.0,27.0
3302,57.0,0,512,0.0,33.0
3303,60.0,0,512,0.0,30.0
3304,69.0,0,512,0.0,24.0
3305,41.0,0,512,0.0,35.0
3306,65.0,0,0,0.0,35.0
3307,72.0,0,512,0.0,44.0
3308,73.0,0,512,0.0,42.0
3309,70.0,0,512,0.0,58.0
3310,37.0,0,512,0.0,44.0
3311,58.0,512,512,0.0,35.0
3312,65.0,0,0,0.0,33.0
3313,60.0,512,512,0.0,33.0
3314,68.0,0,512,0.0,56.0
3315,41.0,0,512,0.0,43.0
3316,42.0,512,512,0.0,42.0
3317,63.0,0,512,0.0,33.0
3318,66.0,0,512,0.0,56.0
3319,58.0,0,1024,0.0,33.0
3320,61.0,0,512,0.0,28.0
3321,46.0,512,512,0.0,41.0
3322,65.0,0,512,0.0,52.0
3323,39.0,512,512,0.0,43.0
3324,66.0,0,512,0.0,55.0
3325,42.0,512,512,0.0,41.0
3326,63.0,0,512,0.0,52.0
3327,58.0,0,0,0.0,26.0
3328,61.0,0,512,0.0,47.0
3329,41.0,0,512,0.0,40.0
3330,65.0,0,512,0.0,27.0
3331,73.0,512,512,0.0,53.0
3332,77.0,0,512,0.0,56.0
3333,72.0,0,512,0.0,27.0
3334,53.0,512,512,0.0,38.0
3335,60.0,0,512,0.0,44.0
3336,57.0,0,512,0.0,23.0
3337,69.0,0,512,0.0,30.0
3338,49.0,0,512,0.0,40.0
3339,46.0,512,512,0.0,35.0
3340,82.0,0,512,0.0,58.0
3341,77.0,0,0,0.0,30.0
3342,70.0,0,512,0.0,32.0
3343,61.0,0,512,0.0,33.0
3344,58.0,0,512,0.0,12.0
3345,72.0,0,512,0.0,30.0
3346,80.0,0,512,0.0,56.0
3347,53.0,512,512,0.0,37.0
3348,54.0,0,512,0.0,35.0
3349,78.0,0,512,0.0,53.0
3350,75.0,512,512,0.0,27.0
3351,73.0,0,512,0.0,36.0
3352,70.0,0,1024,0.0,27.0
3353,58.0,0,512,0.0,33.0
3354,77.0,512,512,0.0,48.0
3355,51.0,0,512,0.0,33.0
3356,77.0,0,512,0.0,25.0
3357,80.0,0,512,0.0,47.0
3358,70.0,512,1024,0.0,25.0
3359,78.0,512,512,0.0,44.0
3360,54.0,0,512,0.0,26.0
3361,75.0,0,512,0.0,25.0
3362,53.0,512,512,0.0,39.0
3363,68.0,0,0,0.0,12.0
3364,73.0,0,512,0.0,24.0
3365,77.0,0,512,0.0,44.0
3366,56.0,512,0,0.0,42.0
3367,75.0,0,512,0.0,40.0
3368,72.0,0,512,0.0,20.0
3369,53.0,0,512,0.0,38.0
3370,61.0,0,512,0.0,50.0
3371,77.0,0,512,0.0,40.0
3372,37.0,0,512,0.0,30.0
3373,73.0,512,512,0.0,16.0
3374,44.0,0,512,0.0,32.0
3375,60.0,0,512,0.0,48.0
3376,51.0,512,512,0.0,36.0
3377,46.0,512,512,0.0,34.0
3378,49.0,0,512,0.0,33.0
3379,58.0,0,512,0.0,45.0
3380,65.0,0,512,0.0,44.0
3381,51.0,0,512,0.0,36.0
3382,56.0,512,512,0.0,48.0
3383,48.0,0,512,0.0,36.0
3384,68.0,0,512,0.0,47.0
3385,65.0,0,512,0.0,43.0
3386,73.0,0,512,0.0,55.0
3387,37.0,0,512,0.0,44.0
3388,61.0,0,512,0.0,52.0
3389,53.0,512,512,0.0,40.0
3390,63.0,512,512,0.0,41.0
3391,72.0,0,512,0.0,53.0
3392,60.0,0,512,0.0,49.0
3393,51.0,0,512,0.0,37.0
3394,44.0,0,512,0.0,43.0
3395,46.0,0,512,0.0,41.0
3396,49.0,0,512,0.0,35.0
3397,58.0,0,512,0.0,47.0
3398,77.0,0,512,0.0,61.0
3399,61.0,512,512,0.0,38.0
3400,70.0,0,512,0.0,50.0
3401,51.0,0,512,0.0,32.0
3402,68.0,0,512,0.0,53.0
3403,48.0,512,512,0.0,40.0
3404,56.0,0,512,0.0,44.0
3405,63.0,0,512,0.0,41.0
3406,80.0,0,512,0.0,64.0
3407,73.0,0,512,0.0,57.0
3408,65.0,512,512,0.0,45.0
3409,85.0,0,512,0.0,67.0
3410,49.0,0,512,0.0,44.0
3411,37.0,0,512,0.0,44.0
3412,77.0,0,512,0.0,55.0
3413,53.0,0,512,0.0,47.0
3414,72.0,0,512,0.0,54.0
3415,84.0,0,512,0.0,65.0
3416,75.0,512,512,0.0,53.0
3417,41.0,0,512,0.0,45.0
3418,63.0,0,512,0.0,42.0
3419,73.0,0,512,0.0,50.0
3420,82.0,0,512,0.0,62.0
3421,61.0,512,0,0.0,37.0
3422,70.0,0,512,0.0,52.0
3423,54.0,512,512,0.0,50.0
3424,42.0,0,512,0.0,46.0
3425,68.0,0,512,0.0,49.0
3426,80.0,0,512,0.0,65.0
3427,44.0,0,512,0.0,46.0
3428,56.0,0,512,0.0,52.0
3429,78.0,0,512,0.0,63.0
3430,73.0,0,1024,0.0,53.0
3431,46.0,0,512,0.0,47.0
3432,58.0,0,512,0.0,55.0
3433,66.0,512,512,0.0,48.0
3434,77.0,0,512,0.0,60.0
3435,56.0,0,512,0.0,50.0
3436,65.0,512,512,0.0,47.0
3437,44.0,0,512,0.0,48.0
3438,43.0,0,512,0.0,49.0
3439,55.0,512,512,0.0,51.0
3440,76.0,0,512,0.0,61.0
3441,73.0,0,1024,0.0,48.0
3442,61.0,0,1024,0.0,36.0
3443,64.0,0,512,0.0,48.0
3444,46.0,512,512,0.0,49.0
3445,58.0,0,512,0.0,46.0
3446,66.0,0,512,0.0,49.0
3447,78.0,0,512,0.0,61.0
3448,44.0,0,512,0.0,55.0
3449,73.0,0,1024,0.0,49.0
3450,65.0,512,512,0.0,50.0
3451,61.0,0,0,0.0,39.0
3452,77.0,0,512,0.0,65.0
3453,56.0,0,512,0.0,53.0
3454,41.0,512,512,0.0,53.0
3455,53.0,0,512,0.0,50.0
3456,80.0,0,512,0.0,67.0
3457,68.0,0,512,0.0,51.0
3458,73.0,0,1024,0.0,55.0
3459,79.0,0,512,0.0,71.0
3460,67.0,0,512,0.0,51.0
3461,52.0,0,512,0.0,54.0
3462,40.0,512,512,0.0,51.0
3463,54.0,0,512,0.0,48.0
3464,42.0,0,512,0.0,49.0
3465,82.0,0,512,0.0,66.0
3466,70.0,0,512,0.0,52.0
3467,80.0,0,512,0.0,66.0
3468,53.0,512,512,0.0,36.0
3469,41.0,0,512,0.0,27.0
3470,68.0,0,512,0.0,48.0
3471,37.0,512,0,0.0,18.0
3472,49.0,0,0,0.0,23.0
3473,73.0,512,512,0.0,38.0
3474,85.0,0,512,0.0,58.0
3475,61.0,0,1536,0.0,40.0
3476,65.0,0,542,0.0,51.0
3477,49.0,0,512,0.0,13.0
3478,51.0,0,542,0.0,25.0
3479,39.0,512,542,0.0,21.0
3480,66.0,0,542,0.0,53.0
3481,68.0,0,542,0.0,54.0
3482,53.0,512,542,0.0,29.0
3483,41.0,0,542,0.0,24.0
3484,51.0,0,286,0.0,27.0
3485,39.0,512,286,0.0,22.0
3486,66.0,0,286,0.0,50.0
3487,61.0,0,2048,0.0,29.0
3488,73.0,0,2048,0.0,43.0
3489,37.0,0,286,0.0,20.0
3490,65.0,0,286,0.0,42.0
3491,49.0,256,286,0.0,25.0
3492,63.0,0,542,0.0,44.0
3493,72.0,256,542,0.0,43.0
3494,65.0,512,542,0.0,46.0
3495,73.0,0,542,0.0,40.0
3496,66.0,512,542,0.0,48.0
3497,75.0,0,542,0.0,42.0
3498,65.0,512,286,0.0,46.0
3499,73.0,0,286,0.0,40.0
3500,56.0,0,2048,0.0,21.0
3501,44.0,0,2048,0.0,20.0
3502,68.0,0,2048,0.0,37.0
3503,63.0,256,286,0.0,44.0
3504,72.0,0,286,0.0,38.0
3505,37.0,256,542,0.0,21.0
3506,65.0,0,542,0.0,49.0
3507,49.0,0,542,0.0,29.0
3508,66.0,512,542,0.0,51.0
3509,51.0,0,542,0.0,31.0
3510,39.0,0,542,0.0,23.0
3511,54.0,0,286,0.0,33.0
3512,70.0,512,286,0.0,54.0
3513,42.0,0,286,0.0,25.0
3514,68.0,256,286,0.0,53.0
3515,41.0,0,286,0.0,23.0
3516,53.0,0,286,0.0,31.0
3517,51.0,0,286,0.0,29.0
3518,39.0,0,286,0.0,21.0
3519,66.0,256,286,0.0,51.0
3520,73.0,0,2048,0.0,31.0
3521,61.0,0,2048,0.0,37.0
3522,49.0,0,286,0.0,27.0
3523,65.0,256,286,0.0,49.0
3524,37.0,0,286,0.0,19.0
3525,63.0,0,542,0.0,45.0
3526,72.0,0,542,0.0,38.0
3527,44.0,0,1024,0.0,17.0
3528,65.0,512,542,0.0,45.0
3529,73.0,0,542,0.0,38.0
3530,77.0,0,286,0.0,40.0
3531,68.0,0,286,0.0,47.0
3532,75.0,256,286,0.0,40.0
3533,66.0,0,286,0.0,47.0
3534,65.0,0,286,0.0,45.0
3535,73.0,256,286,0.0,38.0
3536,72.0,0,256,0.0,36.0
3537,56.0,0,2048,0.0,22.0
3538,32.0,512,1024,0.0,22.0
3539,63.0,256,256,0.0,43.0
3540,52.0,256,542,0.0,18.0
3541,64.0,0,542,0.0,18.0
3542,74.0,0,542,0.0,51.0
3543,65.0,0,542,0.0,20.0
3544,53.0,512,542,0.0,20.0
3545,67.0,0,542,0.0,22.0
3546,55.0,0,542,0.0,22.0
3547,76.0,512,542,0.0,53.0
3548,74.0,0,286,0.0,51.0
3549,65.0,512,286,0.0,20.0
3550,53.0,0,286,0.0,20.0
3551,60.0,0,2048,0.0,19.0
3552,72.0,256,256,0.0,49.0
3553,43.0,0,0,0.0,24.0
3554,36.0,0,0,0.0,17.0
3555,48.0,0,0,0.0,24.0
3556,52.0,0,286,0.0,18.0
3557,64.0,0,286,0.0,18.0
3558,50.0,0,542,0.0,24.0
3559,59.0,0,542,0.0,38.0
3560,71.0,0,542,0.0,30.0
3561,60.0,512,542,0.0,39.0
3562,72.0,0,542,0.0,29.0
3563,52.0,0,542,0.0,26.0
3564,62.0,512,542,0.0,41.0
3565,74.0,0,542,0.0,31.0
3566,53.0,0,542,0.0,28.0
3567,72.0,0,286,0.0,29.0
3568,52.0,512,286,0.0,26.0
3569,60.0,0,286,0.0,39.0
3570,36.0,256,0,0.0,17.0
3571,79.0,256,2048,0.0,49.0
3572,67.0,0,2048,0.0,18.0
3573,48.0,0,0,0.0,24.0
3574,43.0,0,0,0.0,24.0
3575,59.0,256,286,0.0,37.0
3576,71.0,0,286,0.0,27.0
3577,50.0,0,286,0.0,24.0
3578,52.0,0,542,0.0,18.0
3579,64.0,0,542,0.0,22.0
3580,72.0,0,542,0.0,41.0
3581,53.0,0,542,0.0,20.0
3582,65.0,0,542,0.0,25.0
3583,74.0,512,542,0.0,47.0
3584,69.0,0,286,0.0,28.0
3585,77.0,512,286,0.0,50.0
3586,57.0,0,286,0.0,22.0
3587,67.0,256,286,0.0,24.0
3588,76.0,0,286,0.0,46.0
3589,55.0,0,286,0.0,19.0
3590,65.0,0,286,0.0,22.0
3591,53.0,256,286,0.0,20.0
3592,74.0,0,286,0.0,44.0
3593,60.0,0,2048,0.0,26.0
3594,72.0,0,256,0.0,41.0
3595,52.0,256,286,0.0,18.0
3596,64.0,0,286,0.0,19.0
3597,59.0,0,542,0.0,47.0
3598,71.0,0,542,0.0,34.0
3599,50.0,256,542,0.0,18.0
3600,52.0,0,542,0.0,22.0
3601,60.0,0,542,0.0,50.0
3602,72.0,512,542,0.0,37.0
3603,55.0,512,286,0.0,22.0
3604,64.0,0,286,0.0,52.0
3605,76.0,0,286,0.0,39.0
3606,53.0,0,286,0.0,22.0
3607,62.0,256,286,0.0,50.0
3608,74.0,0,286,0.0,37.0
3609,60.0,0,286,0.0,48.0
3610,72.0,256,286,0.0,35.0
3611,52.0,0,286,0.0,22.0
3612,36.0,0,2048,0.0,17.0
3613,48.0,0,2048,0.0,24.0
3614,43.0,0,2048,0.0,24.0
3615,67.0,0,2048,0.0,22.0
3616,79.0,0,2048,0.0,44.0
3617,50.0,256,286,0.0,22.0
3618,59.0,0,286,0.0,46.0
3619,71.0,0,286,0.0,33.0
3620,77.0,0,542,0.0,41.0
3621,81.0,256,542,0.0,53.0
3622,72.0,512,512,0.0,35.0
3623,72.0,512,30,0.0,25.0
3624,79.0,0,542,0.0,47.0
3625,65.0,0,512,0.0,24.0
3626,77.0,0,542,0.0,36.0
3627,81.0,0,542,0.0,53.0
3628,60.0,0,256,0.0,23.0
3629,72.0,0,286,0.0,33.0
3630,79.0,512,286,0.0,50.0
3631,72.0,256,0,0.0,33.0
3632,57.0,0,256,0.0,22.0
3633,36.0,0,2048,0.0,17.0
3634,48.0,0,2048,0.0,24.0
3635,77.0,0,286,0.0,47.0
3636,69.0,256,286,0.0,30.0
3637,76.0,0,512,0.0,22.0
3638,64.0,0,512,0.0,34.0
3639,55.0,0,542,0.0,19.0
3640,77.0,512,512,0.0,23.0
3641,65.0,0,512,0.0,35.0
3642,57.0,0,542,0.0,23.0
3643,58.0,512,542,0.0,26.0
3644,79.0,0,542,0.0,24.0
3645,67.0,0,542,0.0,37.0
3646,65.0,0,286,0.0,35.0
3647,57.0,512,286,0.0,21.0
3648,77.0,0,286,0.0,23.0
3649,84.0,0,2048,0.0,53.0
3650,36.0,256,0,0.0,16.0
3651,48.0,0,0,0.0,25.0
3652,72.0,0,0,0.0,13.0
3653,55.0,0,286,0.0,19.0
3654,76.0,256,286,0.0,21.0
3655,64.0,0,286,0.0,33.0
3656,69.0,0,542,0.0,36.0
3657,77.0,0,542,0.0,28.0
3658,70.0,0,512,0.0,37.0
3659,72.0,512,542,0.0,36.0
3660,79.0,0,542,0.0,54.0
3661,74.0,512,286,0.0,36.0
3662,82.0,0,286,0.0,54.0
3663,72.0,0,286,0.0,34.0
3664,81.0,256,286,0.0,52.0
3665,79.0,0,286,0.0,50.0
3666,70.0,256,286,0.0,32.0
3667,65.0,0,2048,0.0,13.0
3668,77.0,256,256,0.0,48.0
3669,69.0,0,286,0.0,30.0
3670,64.0,0,542,0.0,34.0
3671,76.0,0,542,0.0,19.0
3672,67.0,0,542,0.0,31.0
3673,69.0,512,512,0.0,34.0
3674,65.0,0,542,0.0,38.0
3675,77.0,0,542,0.0,23.0
3676,69.0,0,256,0.0,39.0
3677,72.0,512,286,0.0,36.0
3678,81.0,0,286,0.0,16.0
3679,67.0,0,286,0.0,37.0
3680,79.0,0,286,0.0,28.0
3681,70.0,256,286,0.0,34.0
3682,65.0,0,286,0.0,35.0
3683,77.0,256,286,0.0,26.0
3684,69.0,0,286,0.0,33.0
3685,48.0,0,2048,0.0,30.0
3686,84.0,256,2048,0.0,57.0
3687,36.0,0,2048,0.0,21.0
3688,67.0,0,286,0.0,31.0
3689,76.0,0,286,0.0,24.0
3690,64.0,256,286,0.0,33.0
3691,69.0,0,542,0.0,41.0
3692,57.0,0,542,0.0,34.0
3693,41.0,256,542,0.0,25.0
3694,53.0,0,542,0.0,37.0
3695,43.0,0,542,0.0,28.0
3696,58.0,0,542,0.0,37.0
3697,70.0,512,542,0.0,48.0
3698,55.0,0,542,0.0,40.0
3699,75.0,0,542,0.0,50.0
3700,60.0,0,542,0.0,42.0
3701,48.0,512,542,0.0,30.0
3702,63.0,0,542,0.0,39.0
3703,74.0,512,286,0.0,47.0
3704,58.0,0,286,0.0,39.0
3705,46.0,0,286,0.0,27.0
3706,62.0,0,286,0.0,36.0
3707,77.0,0,2048,0.0,29.0
3708,65.0,0,2048,0.0,44.0
3709,72.0,0,286,0.0,46.0
3710,60.0,256,286,0.0,34.0
3711,45.0,0,286,0.0,26.0
3712,57.0,0,286,0.0,38.0
3713,58.0,0,542,0.0,42.0
3714,64.0,0,542,0.0,41.0
3715,76.0,0,542,0.0,55.0
3716,74.0,0,542,0.0,50.0
3717,62.0,0,542,0.0,39.0
3718,46.0,256,542,0.0,30.0
3719,72.0,0,542,0.0,47.0
3720,77.0,0,542,0.0,58.0
3721,65.0,0,542,0.0,44.0
3722,60.0,512,542,0.0,36.0
3723,45.0,0,542,0.0,27.0
3724,57.0,0,542,0.0,39.0
3725,81.0,0,542,0.0,60.0
3726,69.0,0,542,0.0,46.0
3727,79.0,0,286,0.0,55.0
3728,67.0,512,286,0.0,41.0
3729,59.0,0,1024,0.0,34.0
3730,43.0,0,1024,0.0,25.0
3731,55.0,0,1024,0.0,37.0
3732,71.0,256,0,0.0,40.0
3733,77.0,0,286,0.0,52.0
3734,65.0,256,286,0.0,38.0
3735,43.0,0,542,0.0,33.0
3736,55.0,0,542,0.0,45.0
3737,59.0,0,542,0.0,40.0
3738,45.0,0,542,0.0,36.0
3739,72.0,0,542,0.0,48.0
3740,60.0,512,542,0.0,43.0
3741,57.0,0,542,0.0,48.0
3742,77.0,512,542,0.0,50.0
3743,50.0,0,542,0.0,38.0
3744,65.0,0,542,0.0,45.0
3745,62.0,0,542,0.0,50.0
3746,64.0,0,286,0.0,42.0
3747,76.0,512,286,0.0,47.0
3748,48.0,0,286,0.0,35.0
3749,60.0,0,286,0.0,47.0
3750,67.0,0,2048,0.0,36.0
3751,79.0,0,2048,0.0,50.0
3752,74.0,0,286,0.0,47.0
3753,62.0,256,286,0.0,41.0
3754,59.0,0,286,0.0,46.0
3755,47.0,0,286,0.0,34.0
3756,60.0,0,542,0.0,52.0
3757,48.0,0,542,0.0,39.0
3758,76.0,256,542,0.0,52.0
3759,64.0,0,542,0.0,46.0
3760,66.0,0,542,0.0,42.0
3761,78.0,0,542,0.0,57.0
3762,62.0,512,542,0.0,44.0
3763,46.0,0,542,0.0,36.0
3764,58.0,0,542,0.0,49.0
3765,74.0,0,542,0.0,49.0
3766,79.0,0,542,0.0,60.0
3767,67.0,0,542,0.0,46.0
3768,70.0,0,542,0.0,48.0
3769,82.0,0,542,0.0,63.0
3770,69.0,512,286,0.0,46.0
3771,81.0,0,286,0.0,60.0
3772,61.0,0,1024,0.0,42.0
3773,45.0,0,1024,0.0,35.0
3774,57.0,0,1024,0.0,47.0
3775,67.0,256,286,0.0,44.0
3776,79.0,0,286,0.0,59.0
3777,73.0,512,1054,0.0,47.0
3778,65.0,256,512,0.0,49.0
3779,62.0,0,512,0.0,54.0
3780,50.0,0,512,0.0,41.0
3781,80.0,0,542,0.0,59.0
3782,77.0,0,542,0.0,54.0
3783,68.0,0,542,0.0,44.0
3784,60.0,0,512,0.0,51.0
3785,48.0,512,512,0.0,38.0
3786,64.0,0,512,0.0,46.0
3787,69.0,0,542,0.0,48.0
3788,81.0,0,542,0.0,63.0
3789,76.0,0,542,0.0,51.0
3790,72.0,0,512,0.0,51.0
3791,84.0,0,512,0.0,66.0
3792,83.0,0,256,0.0,63.0
3793,71.0,512,256,0.0,48.0
3794,69.0,256,256,0.0,47.0
3795,81.0,0,256,0.0,63.0
3796,75.0,0,1024,0.0,50.0
3797,63.0,512,1024,0.0,44.0
3798,59.0,0,1024,0.0,50.0
3799,47.0,0,1024,0.0,36.0
3800,79.0,0,512,0.0,57.0
3801,82.0,0,512,0.0,62.0
3802,70.0,256,512,0.0,46.0
3803,64.0,0,512,0.0,57.0
3804,67.0,0,512,0.0,51.0
3805,52.0,0,512,0.0,43.0
3806,77.0,0,512,0.0,54.0
3807,83.0,0,512,0.0,66.0
3808,71.0,512,512,0.0,50.0
3809,62.0,0,512,0.0,54.0
3810,50.0,0,512,0.0,40.0
3811,65.0,0,512,0.0,48.0
3812,86.0,0,542,0.0,71.0
3813,74.0,0,542,0.0,54.0
3814,84.0,512,286,0.0,69.0
3815,72.0,0,286,0.0,53.0
3816,64.0,0,1024,0.0,47.0
3817,48.0,512,1024,0.0,39.0
3818,60.0,0,1024,0.0,53.0
3819,76.0,0,1024,0.0,53.0
3820,71.0,256,286,0.0,52.0
3821,83.0,0,286,0.0,68.0
3822,57.0,0,542,0.0,43.0
3823,41.0,0,542,0.0,43.0
3824,53.0,0,30,0.0,40.0
3825,77.0,0,542,0.0,44.0
3826,84.0,0,542,0.0,67.0
3827,72.0,256,542,0.0,50.0
3828,65.0,0,542,0.0,55.0
3829,74.0,0,542,0.0,54.0
3830,59.0,0,542,0.0,52.0
3831,86.0,0,542,0.0,70.0
3832,38.0,0,542,0.0,46.0
3833,50.0,0,542,0.0,58.0
3834,71.0,512,542,0.0,50.0
3835,60.0,0,542,0.0,43.0
3836,57.0,0,542,0.0,31.0
3837,69.0,0,542,0.0,36.0
3838,72.0,0,542,0.0,48.0
3839,75.0,0,1024,0.0,61.0
3840,87.0,0,1024,0.0,75.0
3841,58.0,0,542,0.0,39.0
3842,67.0,0,542,0.0,32.0
3843,70.0,0,542,0.0,42.0
3844,55.0,512,542,0.0,29.0
3845,81.0,0,542,0.0,59.0
3846,54.0,0,1024,0.0,24.0
3847,48.0,512,2048,0.0,60.0
3848,66.0,512,1024,0.0,33.0
3849,69.0,0,1024,0.0,45.0
3850,57.0,0,1024,0.0,36.0
3851,36.0,0,2048,0.0,48.0
3852,82.0,0,542,0.0,61.0
3853,70.0,512,542,0.0,47.0
3854,55.0,0,542,0.0,31.0
3855,52.0,0,542,0.0,21.0
3856,64.0,512,542,0.0,30.0
3857,67.0,0,542,0.0,40.0
3858,84.0,0,1024,0.0,63.0
3859,72.0,0,1024,0.0,49.0
3860,62.0,0,0,0.0,50.0
3861,66.0,0,542,0.0,42.0
3862,54.0,0,542,0.0,33.0
3863,50.0,512,542,0.0,23.0
3864,82.0,0,542,0.0,56.0
3865,74.0,0,0,0.0,47.0
3866,70.0,512,0,0.0,40.0
3867,58.0,512,1024,0.0,24.0
3868,36.0,0,0,0.0,20.0
3869,48.0,0,0,0.0,32.0
3870,84.0,512,542,0.0,59.0
3871,72.0,0,542,0.0,45.0
3872,67.0,0,542,0.0,30.0
3873,55.0,0,542,0.0,21.0
3874,58.0,0,542,0.0,31.0
3875,86.0,0,1024,0.0,61.0
3876,53.0,0,542,0.0,23.0
3877,69.0,0,542,0.0,42.0
3878,65.0,512,542,0.0,32.0
3879,57.0,0,542,0.0,33.0
3880,79.0,0,542,0.0,54.0
3881,48.0,512,0,0.0,28.0
3882,36.0,0,0,0.0,16.0
3883,55.0,0,1024,0.0,36.0
3884,52.0,0,1024,0.0,24.0
3885,67.0,0,1024,0.0,45.0
3886,64.0,512,1024,0.0,33.0
3887,69.0,0,542,0.0,43.0
3888,81.0,512,542,0.0,57.0
3889,50.0,0,542,0.0,21.0
3890,53.0,0,542,0.0,31.0
3891,65.0,0,542,0.0,40.0
3892,62.0,0,542,0.0,30.0
3893,60.0,512,0,0.0,50.0
3894,70.0,0,1024,0.0,45.0
3895,82.0,0,1024,0.0,59.0
3896,52.0,0,542,0.0,33.0
3897,64.0,0,542,0.0,42.0
3898,48.0,0,542,0.0,23.0
3899,81.0,0,542,0.0,51.0
3900,69.0,0,1024,0.0,33.0
3901,72.0,0,1024,0.0,53.0
3902,48.0,0,0,0.0,25.0
3903,36.0,0,0,0.0,13.0
3904,57.0,0,1024,0.0,24.0
3905,70.0,512,542,0.0,40.0
3906,82.0,0,542,0.0,54.0
3907,64.0,0,542,0.0,30.0
3908,67.0,512,542,0.0,40.0
3909,52.0,0,542,0.0,21.0
3910,55.0,0,542,0.0,31.0
3911,84.0,0,1024,0.0,56.0
3912,72.0,0,1024,0.0,42.0
3913,65.0,512,542,0.0,42.0
3914,62.0,0,542,0.0,32.0
3915,50.0,0,542,0.0,23.0
3916,53.0,0,542,0.0,33.0
3917,67.0,0,542,0.0,35.0
3918,79.0,0,542,0.0,49.0
3919,60.0,0,1024,0.0,33.0
3920,64.0,0,1024,0.0,45.0
3921,36.0,0,0,0.0,9.0
3922,52.0,0,1024,0.0,36.0
3923,48.0,0,0,0.0,21.0
3924,69.0,512,542,0.0,38.0
3925,81.0,0,542,0.0,52.0
3926,58.0,0,542,0.0,40.0
3927,62.0,0,542,0.0,35.0
3928,82.0,0,1024,0.0,54.0
3929,70.0,512,1024,0.0,40.0
3930,60.0,0,542,0.0,32.0
3931,57.0,512,542,0.0,37.0
3932,74.0,0,542,0.0,50.0
3933,62.0,0,542,0.0,36.0
3934,55.0,512,1024,0.0,35.0
3935,58.0,0,1024,0.0,30.0
3936,64.0,512,542,0.0,33.0
3937,76.0,0,542,0.0,47.0
3938,53.0,0,512,0.0,33.0
3939,57.0,0,512,0.0,30.0
3940,65.0,512,1024,0.0,31.0
3941,77.0,0,1024,0.0,45.0
3942,55.0,512,512,0.0,27.0
3943,52.0,0,512,0.0,29.0
3944,69.0,0,512,0.0,45.0
3945,57.0,512,512,0.0,31.0
3946,36.0,0,2048,0.0,13.0
3947,48.0,0,2048,0.0,22.0
3948,50.0,0,1024,0.0,26.0
3949,53.0,0,1024,0.0,25.0
3950,71.0,0,512,0.0,46.0
3951,59.0,512,512,0.0,32.0
3952,60.0,0,1024,0.0,33.0
3953,72.0,0,1024,0.0,47.0
3954,52.0,512,1024,0.0,20.0
3955,48.0,0,1024,0.0,22.0
3956,36.0,0,1024,0.0,13.0
3957,46.0,0,179,0.0,64.0
3958,58.0,1024,179,0.0,64.0
3959,48.0,512,179,0.0,55.0
3960,60.0,0,179,0.0,55.0
3961,46.0,0,179,0.0,64.0
3962,70.0,0,179,0.0,76.0
3963,58.0,512,179,0.0,64.0
3964,72.0,0,179,0.0,69.0
3965,48.0,0,179,0.0,57.0
3966,60.0,512,179,0.0,57.0
3967,82.0,0,179,0.0,76.0
3968,58.0,512,179,0.0,66.0
3969,46.0,0,179,0.0,73.0
3970,34.0,0,179,0.0,61.0
3971,70.0,0,179,0.0,64.0
3972,60.0,0,179,0.0,59.0
3973,72.0,0,179,0.0,57.0
3974,84.0,0,179,0.0,69.0
3975,48.0,0,179,0.0,64.0
3976,36.0,512,179,0.0,52.0
3977,34.0,512,256,0.0,86.0
3978,97.0,0,256,0.0,88.0
3979,73.0,0,256,0.0,82.0
3980,61.0,0,256,0.0,69.0
3981,72.0,0,90,0.0,75.0
3982,96.0,0,90,0.0,84.0
3983,36.0,256,90,0.0,76.0
3984,94.0,256,90,0.0,81.0
3985,70.0,0,90,0.0,72.0
3986,37.0,0,90,0.0,74.0
3987,41.0,0,90,0.0,73.0
3988,65.0,0,90,0.0,70.0
3989,89.0,256,90,0.0,79.0
3990,85.0,0,256,0.0,82.0
3991,61.0,0,256,0.0,73.0
3992,46.0,256,256,0.0,73.0
3993,34.0,0,256,0.0,73.0
3994,60.0,256,90,0.0,65.0
3995,48.0,0,90,0.0,72.0
3996,84.0,0,90,0.0,74.0
3997,36.0,0,90,0.0,72.0
3998,58.0,0,90,0.0,62.0
3999,37.0,0,90,0.0,74.0
4000,49.0,256,90,0.0,74.0
4001,82.0,0,90,0.0,71.0
4002,53.0,0,90,0.0,77.0
4003,77.0,0,90,0.0,69.0
4004,41.0,0,90,0.0,77.0
4005,73.0,256,422,0.0,74.0
4006,61.0,0,422,0.0,61.0
4007,46.0,0,512,0.0,65.0
4008,58.0,0,512,0.0,74.0
4009,72.0,0,166,0.0,74.0
4010,60.0,512,166,0.0,61.0
4011,58.0,256,166,0.0,59.0
4012,70.0,0,166,0.0,72.0
4013,46.0,0,179,0.0,69.0
4014,34.0,0,179,0.0,57.0
4015,68.0,256,256,0.0,67.0
4016,80.0,0,256,0.0,76.0
4017,78.0,256,90,0.0,72.0
4018,66.0,0,90,0.0,63.0
4019,61.0,0,512,0.0,55.0
4020,73.0,0,512,0.0,64.0
4021,58.0,0,0,0.0,50.0
4022,70.0,0,0,0.0,63.0
4023,77.0,0,90,0.0,73.0
4024,55.0,0,179,0.0,50.0
4025,60.0,0,179,0.0,64.0
4026,36.0,0,179,0.0,57.0
4027,48.0,256,179,0.0,69.0
4028,65.0,0,256,0.0,61.0
4029,64.0,0,90,0.0,59.0
4030,76.0,256,90,0.0,71.0
4031,70.0,0,0,0.0,64.0
4032,67.0,0,512,0.0,63.0
4033,61.0,0,512,0.0,70.0
4034,37.0,0,512,0.0,63.0
4035,49.0,256,512,0.0,75.0
4036,60.0,512,90,0.0,69.0
4037,36.0,0,90,0.0,62.0
4038,48.0,0,90,0.0,74.0
4039,58.0,256,90,0.0,67.0
4040,34.0,0,90,0.0,60.0
4041,46.0,0,90,0.0,72.0
4042,65.0,0,0,0.0,67.0
4043,77.0,0,0,0.0,76.0
4044,53.0,0,1024,0.0,43.0
4045,60.0,0,179,0.0,55.0
4046,72.0,256,179,0.0,64.0
4047,68.0,0,179,0.0,64.0
4048,56.0,0,256,0.0,76.0
4049,44.0,0,256,0.0,64.0
4050,43.0,0,90,0.0,60.0
4051,67.0,0,90,0.0,72.0
4052,55.0,256,90,0.0,72.0
4053,41.0,0,90,0.0,56.0
4054,53.0,0,90,0.0,68.0
4055,65.0,0,90,0.0,68.0
4056,60.0,0,179,0.0,55.0
4057,70.0,0,179,0.0,64.0
4058,79.0,0,179,0.0,76.0
4059,58.0,0,179,0.0,55.0
4060,67.0,0,179,0.0,67.0
4061,72.0,256,179,0.0,64.0
4062,52.0,256,90,0.0,65.0
4063,40.0,0,90,0.0,53.0
4064,64.0,0,90,0.0,65.0
4065,68.0,0,422,0.0,61.0
4066,60.0,0,422,0.0,49.0
4067,80.0,0,422,0.0,74.0
4068,72.0,0,422,0.0,62.0
4069,79.0,0,166,0.0,74.0
4070,67.0,512,166,0.0,61.0
4071,77.0,0,166,0.0,72.0
4072,65.0,256,166,0.0,59.0
4073,41.0,0,0,0.0,64.0
4074,65.0,0,0,0.0,64.0
4075,53.0,0,0,0.0,52.0
4076,75.0,256,256,0.0,67.0
4077,68.0,0,256,0.0,55.0
4078,87.0,0,256,0.0,76.0
4079,80.0,0,256,0.0,64.0
4080,77.0,0,256,0.0,64.0
4081,73.0,256,90,0.0,63.0
4082,85.0,0,90,0.0,72.0
4083,72.0,256,90,0.0,61.0
4084,77.0,0,90,0.0,61.0
4085,74.0,0,90,0.0,61.0
4086,62.0,0,90,0.0,48.0
4087,65.0,0,90,0.0,48.0
4088,84.0,0,90,0.0,73.0
4089,43.0,0,179,0.0,64.0
4090,55.0,0,179,0.0,52.0
4091,67.0,0,179,0.0,64.0
4092,71.0,0,90,0.0,59.0
4093,83.0,256,90,0.0,71.0
4094,44.0,0,512,0.0,70.0
4095,68.0,0,512,0.0,70.0
4096,56.0,0,512,0.0,58.0
4097,55.0,0,90,0.0,57.0
4098,67.0,0,90,0.0,69.0
4099,43.0,512,90,0.0,69.0
4100,41.0,0,90,0.0,67.0
4101,65.0,0,90,0.0,67.0
4102,53.0,256,90,0.0,55.0
4103,60.0,0,1024,0.0,55.0
4104,72.0,0,1024,0.0,64.0
4105,77.0,0,0,0.0,76.0
4106,84.0,256,1024,0.0,76.0
4107,65.0,0,0,0.0,67.0
4108,56.0,256,179,0.0,55.0
4109,68.0,0,179,0.0,64.0
4110,63.0,0,256,0.0,64.0
4111,51.0,0,256,0.0,76.0
4112,75.0,0,256,0.0,76.0
4113,49.0,256,90,0.0,72.0
4114,73.0,0,90,0.0,72.0
4115,61.0,0,90,0.0,60.0
4116,48.0,0,90,0.0,68.0
4117,72.0,0,90,0.0,68.0
4118,60.0,0,90,0.0,56.0
4119,67.0,0,179,0.0,67.0
4120,65.0,0,179,0.0,55.0
4121,79.0,0,179,0.0,76.0
4122,77.0,256,179,0.0,64.0
4123,59.0,256,90,0.0,53.0
4124,47.0,0,90,0.0,65.0
4125,71.0,0,90,0.0,65.0
4126,68.0,0,422,0.0,61.0
4127,65.0,0,422,0.0,49.0
4128,80.0,0,422,0.0,74.0
4129,77.0,0,422,0.0,62.0
4130,79.0,0,166,0.0,74.0
4131,67.0,512,166,0.0,61.0
4132,77.0,256,166,0.0,72.0
4133,65.0,0,166,0.0,59.0
4134,60.0,0,1024,0.0,52.0
4135,72.0,0,1024,0.0,52.0
4136,48.0,256,1024,0.0,64.0
4137,65.0,0,179,0.0,64.0
4138,41.0,0,179,0.0,56.0
4139,53.0,0,179,0.0,68.0
4140,77.0,0,256,0.0,64.0
4141,80.0,0,256,0.0,64.0
4142,87.0,256,256,0.0,76.0
4143,68.0,0,256,0.0,55.0
4144,75.0,0,256,0.0,67.0
4145,85.0,256,90,0.0,72.0
4146,73.0,0,90,0.0,63.0
4147,72.0,256,90,0.0,64.0
4148,74.0,0,90,0.0,64.0
4149,77.0,0,90,0.0,64.0
4150,84.0,0,90,0.0,76.0
4151,62.0,0,90,0.0,51.0
4152,65.0,0,90,0.0,51.0
4153,67.0,0,179,0.0,64.0
4154,55.0,0,179,0.0,71.0
4155,43.0,0,179,0.0,59.0
4156,71.0,0,90,0.0,62.0
4157,83.0,256,90,0.0,74.0
4158,73.0,0,256,0.0,68.0
4159,65.0,0,256,0.0,56.0
4160,85.0,0,256,0.0,77.0
4161,77.0,0,256,0.0,65.0
4162,84.0,0,90,0.0,73.0
4163,72.0,256,90,0.0,62.0
4164,56.0,0,512,0.0,73.0
4165,60.0,0,0,0.0,52.0
4166,44.0,0,512,0.0,61.0
4167,64.0,0,90,0.0,55.0
4168,82.0,0,90,0.0,76.0
4169,76.0,0,90,0.0,64.0
4170,43.0,256,90,0.0,58.0
4171,70.0,0,90,0.0,55.0
4172,55.0,0,90,0.0,70.0
4173,53.0,256,90,0.0,67.0
4174,41.0,0,90,0.0,56.0
4175,60.0,0,90,0.0,52.0
4176,77.0,0,90,0.0,62.0
4177,80.0,0,90,0.0,74.0
4178,68.0,0,90,0.0,65.0
4179,65.0,0,90,0.0,53.0
4180,75.0,256,256,0.0,64.0
4181,84.0,0,256,0.0,76.0
4182,63.0,0,256,0.0,55.0
4183,72.0,0,256,0.0,67.0
4184,82.0,256,90,0.0,72.0
4185,70.0,0,90,0.0,63.0
4186,58.0,0,512,0.0,64.0
4187,55.0,0,512,0.0,73.0
4188,43.0,0,512,0.0,61.0
4189,41.0,256,90,0.0,56.0
4190,68.0,0,90,0.0,64.0
4191,53.0,0,90,0.0,67.0
4192,74.0,0,90,0.0,61.0
4193,80.0,0,90,0.0,73.0
4194,58.0,0,90,0.0,52.0
4195,62.0,0,90,0.0,51.0
4196,39.0,0,90,0.0,53.0
4197,51.0,0,90,0.0,63.0
4198,58.0,256,90,0.0,52.0
4199,63.0,0,90,0.0,49.0
4200,79.0,0,90,0.0,71.0
4201,75.0,0,90,0.0,59.0
4202,67.0,0,90,0.0,62.0
4203,73.0,0,256,0.0,65.0
4204,82.0,0,256,0.0,77.0
4205,61.0,0,256,0.0,56.0
4206,70.0,256,256,0.0,68.0
4207,80.0,256,90,0.0,71.0
4208,68.0,0,90,0.0,62.0
4209,53.0,0,512,0.0,64.0
4210,56.0,0,512,0.0,52.0
4211,41.0,0,512,0.0,52.0
4212,67.0,0,90,0.0,64.0
4213,60.0,0,90,0.0,52.0
4214,79.0,0,90,0.0,73.0
4215,72.0,0,90,0.0,61.0
4216,56.0,0,90,0.0,52.0
4217,39.0,256,90,0.0,47.0
4218,51.0,0,90,0.0,58.0
4219,49.0,0,90,0.0,54.0
4220,37.0,0,90,0.0,44.0
4221,77.0,256,90,0.0,71.0
4222,61.0,0,90,0.0,50.0
4223,65.0,0,90,0.0,62.0
4224,56.0,0,90,0.0,52.0
4225,73.0,0,90,0.0,59.0
4226,60.0,256,179,0.0,55.0
4227,48.0,0,512,0.0,60.0
4228,67.0,0,512,0.0,64.0
4229,76.0,0,512,0.0,76.0
4230,55.0,0,512,0.0,55.0
4231,36.0,0,512,0.0,48.0
4232,64.0,0,512,0.0,67.0
4233,50.0,512,179,0.0,58.0
4234,62.0,0,179,0.0,64.0
4235,51.0,0,512,0.0,56.0
4236,63.0,512,512,0.0,68.0
4237,50.0,0,90,0.0,52.0
4238,62.0,512,90,0.0,64.0
4239,48.0,256,90,0.0,50.0
4240,60.0,0,90,0.0,62.0
4241,54.0,0,1024,0.0,38.0
4242,57.0,0,1024,0.0,38.0
4243,29.0,0,1024,0.0,61.0
4244,41.0,0,1024,0.0,73.0
4245,75.0,0,1064,0.0,77.0
4246,72.0,0,1064,0.0,58.0
4247,69.0,0,1064,0.0,58.0
4248,66.0,0,1064,0.0,58.0
4249,46.0,0,179,0.0,55.0
4250,58.0,0,179,0.0,67.0
4251,34.0,0,512,0.0,57.0
4252,62.0,0,512,0.0,50.0
4253,74.0,256,512,0.0,52.0
4254,65.0,0,512,0.0,52.0
4255,70.0,0,512,0.0,64.0
4256,53.0,0,512,0.0,38.0
4257,48.0,512,179,0.0,57.0
4258,60.0,0,179,0.0,69.0
4259,49.0,512,512,0.0,56.0
4260,61.0,0,512,0.0,68.0
4261,60.0,512,90,0.0,64.0
4262,48.0,0,90,0.0,52.0
4263,46.0,256,90,0.0,50.0
4264,58.0,0,90,0.0,62.0
4265,52.0,0,1024,0.0,38.0
4266,55.0,0,1024,0.0,38.0
4267,29.0,0,1024,0.0,57.0
4268,41.0,0,1024,0.0,69.0
4269,64.0,0,1064,0.0,53.0
4270,67.0,0,1064,0.0,53.0
4271,70.0,0,1064,0.0,53.0
4272,73.0,0,1064,0.0,69.0
4273,53.0,0,179,0.0,55.0
4274,72.0,0,512,0.0,64.0
4275,69.0,0,512,0.0,52.0
4276,65.0,256,512,0.0,52.0
4277,41.0,0,512,0.0,64.0
4278,60.0,0,512,0.0,50.0
4279,57.0,0,512,0.0,38.0
4280,55.0,512,179,0.0,57.0
4281,56.0,0,512,0.0,56.0
4282,68.0,512,512,0.0,68.0
4283,55.0,512,90,0.0,52.0
4284,67.0,0,90,0.0,64.0
4285,53.0,256,90,0.0,50.0
4286,65.0,0,90,0.0,62.0
4287,49.0,0,1024,0.0,50.0
4288,29.0,0,1024,0.0,57.0
4289,41.0,0,1024,0.0,60.0
4290,71.0,0,1064,0.0,65.0
4291,61.0,0,1064,0.0,53.0
4292,60.0,256,179,0.0,55.0
4293,48.0,0,512,0.0,64.0
4294,36.0,0,512,0.0,52.0
4295,64.0,0,512,0.0,52.0
4296,72.0,0,512,0.0,64.0
4297,55.0,0,179,0.0,57.0
4298,67.0,512,179,0.0,69.0
4299,56.0,0,512,0.0,56.0
4300,68.0,512,512,0.0,68.0
4301,55.0,0,90,0.0,52.0
4302,67.0,512,90,0.0,64.0
4303,53.0,256,90,0.0,50.0
4304,65.0,0,90,0.0,62.0
4305,49.0,0,1024,0.0,50.0
4306,29.0,0,1024,0.0,57.0
4307,41.0,0,1024,0.0,69.0
4308,61.0,0,1064,0.0,53.0
4309,71.0,0,1064,0.0,69.0
4310,36.0,0,179,0.0,48.0
4311,48.0,0,179,0.0,60.0
4312,60.0,0,179,0.0,55.0
4313,64.0,256,512,0.0,52.0
4314,72.0,0,512,0.0,64.0
4315,55.0,512,179,0.0,64.0
4316,67.0,512,179,0.0,53.0
4317,79.0,512,179,0.0,57.0
4318,84.0,512,1024,0.0,60.0
4319,72.0,1024,0,0.0,38.0
4320,48.0,0,1024,0.0,33.0
4321,84.0,0,2068,0.0,60.0
4322,83.0,1024,1044,0.0,51.0
4323,78.0,1024,824,0.0,55.0
4324,72.0,0,0,0.0,30.0
4325,60.0,1024,0,0.0,33.0
4326,50.0,1024,3092,0.0,33.0
4327,79.0,0,276,0.0,52.0
4328,52.0,0,1044,0.0,35.0
4329,82.0,256,1812,0.0,55.0
4330,53.0,768,1556,0.0,35.0
4331,55.0,512,532,0.0,35.0
4332,81.0,1024,1044,0.0,50.0
4333,76.0,0,874,0.0,50.0
4334,57.0,512,1044,0.0,35.0
4335,77.0,1024,276,0.0,52.0
4336,59.0,0,1044,0.0,36.0
4337,74.0,256,542,0.0,44.0
4338,80.0,256,1812,0.0,55.0
4339,60.0,512,1536,0.0,42.0
4340,75.0,0,1566,0.0,48.0
4341,79.0,1024,1024,0.0,50.0
4342,62.0,0,542,0.0,45.0
4343,74.0,512,542,0.0,37.0
4344,63.0,512,1054,0.0,45.0
4345,77.0,1024,276,0.0,50.0
4346,68.0,0,542,0.0,48.0
4347,72.0,0,1566,0.0,34.0
4348,53.0,0,1024,0.0,35.0
4349,74.0,256,542,0.0,44.0
4350,65.0,0,542,0.0,44.0
4351,80.0,256,1812,0.0,55.0
4352,75.0,512,1566,0.0,49.0
4353,62.0,512,512,0.0,43.0
4354,79.0,1024,1024,0.0,50.0
4355,74.0,0,542,0.0,37.0
4356,60.0,0,3072,0.0,35.0
4357,63.0,0,1024,0.0,45.0
4358,77.0,0,286,0.0,50.0
4359,68.0,0,512,0.0,48.0
4360,72.0,512,1566,0.0,34.0
4361,53.0,1024,1024,0.0,35.0
4362,65.0,0,512,0.0,44.0
4363,74.0,256,542,0.0,44.0
4364,80.0,256,1822,0.0,58.0
4365,63.0,512,1566,0.0,38.0
4366,70.0,0,1566,0.0,50.0
4367,79.0,1024,824,0.0,48.0
4368,55.0,0,0,0.0,33.0
4369,68.0,512,542,0.0,31.0
4370,71.0,0,542,0.0,43.0
4371,74.0,512,1054,0.0,55.0
4372,67.0,0,1566,0.0,34.0
4373,70.0,0,1566,0.0,46.0
4374,75.0,1024,824,0.0,45.0
4375,65.0,0,542,0.0,29.0
4376,68.0,512,542,0.0,41.0
4377,71.0,512,1054,0.0,53.0
4378,67.0,0,1566,0.0,44.0
4379,63.0,0,1566,0.0,32.0
4380,72.0,1024,824,0.0,44.0
4381,65.0,512,542,0.0,39.0
4382,62.0,0,542,0.0,27.0
4383,66.0,512,1054,0.0,47.0
4384,43.0,0,5632,0.0,33.0
4385,60.0,0,1566,0.0,30.0
4386,63.0,0,1566,0.0,42.0
4387,43.0,0,179,0.0,44.0
4388,67.0,1024,824,0.0,44.0
4389,59.0,512,542,0.0,25.0
4390,62.0,0,542,0.0,37.0
4391,55.0,512,179,0.0,55.0
4392,64.0,0,1024,0.0,31.0
4393,60.0,512,0,0.0,55.0
4394,67.0,0,1024,0.0,36.0
4395,79.0,512,179,0.0,55.0
4396,72.0,512,1024,0.0,43.0
4397,71.0,1024,1024,0.0,54.0
4398,66.0,1024,824,0.0,51.0
4399,74.0,1024,3072,0.0,55.0
4400,67.0,0,256,0.0,50.0
4401,76.0,1024,1024,0.0,50.0
4402,70.0,256,1792,0.0,54.0
4403,77.0,768,1536,0.0,53.0
4404,79.0,512,512,0.0,50.0
4405,69.0,1024,1024,0.0,47.0
4406,84.0,0,8614,0.0,55.0
4407,72.0,0,0,0.0,45.0
4408,48.0,512,11264,0.0,55.0
4409,64.0,0,0,0.0,40.0
4410,76.0,512,20,0.0,50.0
4411,45.0,0,1024,0.0,36.0
4412,57.0,0,1024,0.0,28.0
4413,81.0,0,2048,0.0,54.0
4414,88.0,0,2068,0.0,64.0
4415,47.0,0,1566,0.0,36.0
4416,75.0,1024,1044,0.0,42.0
4417,87.0,0,1044,0.0,56.0
4418,49.0,512,542,0.0,39.0
4419,70.0,0,824,0.0,43.0
4420,82.0,512,824,0.0,57.0
4421,71.0,0,0,0.0,33.0
4422,78.0,0,3072,0.0,45.0
4423,59.0,1024,3072,0.0,40.0
4424,51.0,0,1054,0.0,39.0
4425,83.0,0,276,0.0,57.0
4426,80.0,0,1024,0.0,45.0
4427,52.0,1024,1054,0.0,41.0
4428,69.0,0,1024,0.0,33.0
4429,86.0,0,1812,0.0,63.0
4430,74.0,256,1812,0.0,49.0
4431,57.0,768,1566,0.0,43.0
4432,85.0,0,1044,0.0,54.0
4433,73.0,0,1044,0.0,40.0
4434,59.0,512,542,0.0,45.0
4435,80.0,512,824,0.0,56.0
4436,76.0,0,3072,0.0,45.0
4437,64.0,0,4116,0.0,40.0
4438,61.0,0,1054,0.0,44.0
4439,81.0,0,276,0.0,56.0
4440,69.0,1024,276,0.0,42.0
4441,72.0,0,276,0.0,48.0
4442,63.0,0,1024,0.0,44.0
4443,69.0,256,532,0.0,42.0
4444,78.0,0,1044,0.0,44.0
4445,84.0,256,1812,0.0,62.0
4446,76.0,0,1556,0.0,44.0
4447,68.0,0,1556,0.0,40.0
4448,71.0,512,0,0.0,41.0
4449,78.0,0,532,0.0,47.0
4450,83.0,1024,1044,0.0,53.0
4451,69.0,512,532,0.0,40.0
4452,64.0,512,3072,0.0,44.0
4453,76.0,0,1024,0.0,56.0
4454,80.0,0,1044,0.0,50.0
4455,81.0,0,276,0.0,56.0
4456,72.0,0,276,0.0,48.0
4457,57.0,1024,1024,0.0,44.0
4458,69.0,256,532,0.0,42.0
4459,78.0,0,1044,0.0,47.0
4460,84.0,256,1812,0.0,62.0
4461,76.0,512,1556,0.0,44.0
4462,68.0,0,1556,0.0,40.0
4463,71.0,512,0,0.0,43.0
4464,83.0,1024,1044,0.0,53.0
4465,78.0,0,532,0.0,44.0
4466,69.0,512,532,0.0,42.0
4467,64.0,0,3072,0.0,44.0
4468,76.0,0,0,0.0,44.0
4469,80.0,0,1044,0.0,47.0
4470,81.0,1024,276,0.0,57.0
4471,72.0,0,532,0.0,44.0
4472,76.0,0,286,0.0,48.0
4473,57.0,0,1024,0.0,44.0
4474,69.0,0,532,0.0,42.0
4475,78.0,256,542,0.0,47.0
4476,88.0,256,1792,0.0,63.0
4477,67.0,0,1536,0.0,40.0
4478,79.0,512,1566,0.0,49.0
4479,75.0,512,512,0.0,44.0
4480,74.0,512,0,0.0,44.0
4481,86.0,1024,1024,0.0,55.0
4482,78.0,0,542,0.0,44.0
4483,82.0,0,1054,0.0,62.0
4484,70.0,0,1054,0.0,47.0
4485,79.0,0,1566,0.0,44.0
4486,71.0,1024,824,0.0,40.0
4487,83.0,0,824,0.0,55.0
4488,72.0,512,512,0.0,42.0
4489,75.0,0,542,0.0,43.0
4490,66.0,512,1054,0.0,45.0
4491,78.0,0,1054,0.0,60.0
4492,71.0,0,1536,0.0,42.0
4493,74.0,0,1566,0.0,42.0
4494,79.0,1024,824,0.0,55.0
4495,67.0,0,824,0.0,40.0
4496,69.0,512,512,0.0,40.0
4497,72.0,0,542,0.0,41.0
4498,61.0,0,1054,0.0,45.0
4499,73.0,0,1054,0.0,60.0
4500,67.0,512,0,0.0,64.0
4501,47.0,0,5632,0.0,33.0
4502,59.0,0,0,0.0,40.0
4503,71.0,0,1566,0.0,41.0
4504,74.0,0,824,0.0,55.0
4505,62.0,0,312,0.0,52.0
4506,43.0,0,512,0.0,52.0
4507,31.0,0,512,0.0,52.0
4508,65.0,0,341,0.0,55.0
4509,77.0,171,0,0.0,68.0
4510,72.0,0,512,0.0,60.0
4511,48.0,341,342,0.0,56.0
4512,50.0,171,119,0.0,57.0
4513,60.0,0,341,0.0,58.0
4514,52.0,341,341,0.0,46.0
4515,62.0,0,120,0.0,58.0
4516,53.0,341,120,0.0,46.0
4517,71.0,0,512,0.0,64.0
4518,72.0,171,179,0.0,56.0
4519,64.0,171,119,0.0,59.0
4520,55.0,0,119,0.0,47.0
4521,32.0,0,2048,0.0,58.0
4522,44.0,0,0,0.0,64.0
4523,77.0,0,1024,0.0,56.0
4524,89.0,0,1024,0.0,71.0
4525,60.0,341,342,0.0,55.0
4526,62.0,342,119,0.0,57.0
4527,83.0,0,1024,0.0,68.0
4528,71.0,0,1024,0.0,49.0
4529,65.0,0,1024,0.0,60.0
4530,56.0,341,1024,0.0,48.0
4531,64.0,175,341,0.0,59.0
4532,55.0,0,341,0.0,60.0
4533,53.0,0,120,0.0,58.0
4534,65.0,341,120,0.0,60.0
4535,52.0,0,119,0.0,55.0
4536,67.0,342,119,0.0,62.0
4537,72.0,0,1024,0.0,56.0
4538,60.0,0,0,0.0,52.0
4539,84.0,0,1024,0.0,68.0
4540,52.0,0,341,0.0,60.0
4541,53.0,0,120,0.0,58.0
4542,74.0,341,342,0.0,62.0
4543,76.0,342,119,0.0,63.0
4544,55.0,0,119,0.0,55.0
4545,70.0,0,1024,0.0,64.0
4546,44.0,341,1024,0.0,52.0
4547,68.0,341,341,0.0,64.0
4548,77.0,0,341,0.0,64.0
4549,67.0,341,120,0.0,62.0
4550,79.0,0,120,0.0,66.0
4551,65.0,342,119,0.0,60.0
4552,80.0,0,119,0.0,67.0
4553,44.0,0,0,0.0,52.0
4554,48.0,0,1024,0.0,60.0
4555,58.0,341,341,0.0,60.0
4556,67.0,0,341,0.0,64.0
4557,68.0,0,120,0.0,62.0
4558,56.0,341,120,0.0,58.0
4559,70.0,0,119,0.0,60.0
4560,55.0,342,119,0.0,55.0
4561,73.0,0,1024,0.0,61.0
4562,52.0,0,1024,0.0,64.0
4563,85.0,0,1024,0.0,73.0
4564,56.0,0,341,0.0,60.0
4565,84.0,0,341,0.0,68.0
4566,72.0,0,341,0.0,56.0
4567,55.0,0,120,0.0,58.0
4568,70.0,341,120,0.0,54.0
4569,82.0,0,120,0.0,66.0
4570,53.0,342,119,0.0,55.0
4571,80.0,0,119,0.0,64.0
4572,68.0,0,119,0.0,52.0
4573,60.0,0,1024,0.0,60.0
4574,55.0,0,341,0.0,55.0
4575,67.0,0,512,0.0,54.0
4576,73.0,0,512,0.0,54.0
4577,79.0,0,512,0.0,63.0
4578,49.0,341,342,0.0,56.0
4579,51.0,342,119,0.0,57.0
4580,61.0,0,341,0.0,58.0
4581,53.0,341,341,0.0,46.0
4582,63.0,0,120,0.0,58.0
4583,55.0,341,120,0.0,46.0
4584,65.0,342,119,0.0,59.0
4585,56.0,0,119,0.0,47.0
4586,34.0,0,2048,0.0,58.0
4587,46.0,341,2048,0.0,70.0
4588,91.0,0,1024,0.0,75.0
4589,79.0,0,1024,0.0,56.0
4590,67.0,0,341,0.0,64.0
4591,61.0,341,342,0.0,55.0
4592,63.0,342,119,0.0,57.0
4593,58.0,341,1024,0.0,60.0
4594,84.0,0,1024,0.0,68.0
4595,72.0,0,1024,0.0,49.0
4596,65.0,0,341,0.0,59.0
4597,56.0,175,341,0.0,60.0
4598,67.0,341,120,0.0,60.0
4599,55.0,0,120,0.0,58.0
4600,68.0,0,119,0.0,62.0
4601,53.0,342,119,0.0,55.0
4602,73.0,0,1024,0.0,56.0
4603,61.0,0,0,0.0,52.0
4604,85.0,0,1024,0.0,66.0
4605,46.0,0,2048,0.0,64.0
4606,53.0,341,341,0.0,60.0
4607,51.0,341,120,0.0,58.0
4608,75.0,0,342,0.0,58.0
4609,58.0,0,764,0.0,52.0
4610,77.0,0,119,0.0,59.0
4611,49.0,342,119,0.0,55.0
4612,72.0,0,1024,0.0,64.0
4613,69.0,0,1024,0.0,64.0
4614,79.0,0,341,0.0,60.0
4615,70.0,0,341,0.0,55.0
4616,80.0,0,120,0.0,62.0
4617,68.0,341,120,0.0,62.0
4618,67.0,342,119,0.0,60.0
4619,82.0,0,119,0.0,63.0
4620,61.0,0,1024,0.0,60.0
4621,58.0,166,1199,0.0,43.0
4622,69.0,0,341,0.0,64.0
4623,60.0,0,341,0.0,60.0
4624,70.0,0,120,0.0,62.0
4625,58.0,341,342,0.0,58.0
4626,57.0,0,119,0.0,55.0
4627,72.0,342,119,0.0,60.0
4628,75.0,0,1024,0.0,57.0
4629,54.0,341,1024,0.0,64.0
4630,87.0,0,1024,0.0,69.0
4631,73.0,0,341,0.0,52.0
4632,85.0,0,341,0.0,64.0
4633,84.0,0,120,0.0,62.0
4634,72.0,341,120,0.0,50.0
4635,82.0,0,119,0.0,60.0
4636,70.0,342,119,0.0,48.0
4637,61.0,0,1024,0.0,60.0
4638,46.0,0,1024,0.0,44.0
4639,58.0,341,1024,0.0,56.0
4640,55.0,0,1024,0.0,55.0
4641,75.0,0,119,0.0,53.0
4642,68.0,0,119,0.0,43.0
4643,80.0,0,179,0.0,66.0
4644,51.0,341,342,0.0,56.0
4645,92.0,171,179,0.0,71.0
4646,80.0,0,179,0.0,58.0
4647,53.0,171,119,0.0,58.0
4648,60.0,341,1024,0.0,60.0
4649,63.0,337,4,0.0,52.0
4650,55.0,0,341,0.0,48.0
4651,56.0,4,120,0.0,49.0
4652,65.0,0,120,0.0,61.0
4653,74.0,0,512,0.0,60.0
4654,86.0,341,512,0.0,73.0
4655,75.0,0,179,0.0,64.0
4656,87.0,0,179,0.0,65.0
4657,58.0,0,119,0.0,51.0
4658,67.0,171,119,0.0,63.0
4659,48.0,341,0,0.0,55.0
4660,36.0,0,0,0.0,43.0
4661,67.0,0,512,0.0,64.0
4662,80.0,0,179,0.0,67.0
4663,68.0,512,179,0.0,55.0
4664,70.0,0,1024,0.0,65.0
4665,61.0,0,1024,0.0,52.0
4666,60.0,0,341,0.0,48.0
4667,63.0,0,341,0.0,60.0
4668,58.0,341,120,0.0,46.0
4669,62.0,0,120,0.0,58.0
4670,74.0,0,512,0.0,69.0
4671,75.0,171,179,0.0,60.0
4672,63.0,0,179,0.0,55.0
4673,57.0,171,119,0.0,43.0
4674,60.0,0,119,0.0,55.0
4675,29.0,0,512,0.0,43.0
4676,41.0,0,512,0.0,55.0
4677,70.0,0,179,0.0,64.0
4678,77.0,0,179,0.0,78.0
4679,65.0,0,179,0.0,64.0
4680,53.0,341,342,0.0,59.0
4681,94.0,0,179,0.0,79.0
4682,82.0,171,179,0.0,65.0
4683,55.0,171,119,0.0,61.0
4684,61.0,0,1024,0.0,64.0
4685,49.0,0,1024,0.0,55.0
4686,65.0,337,4,0.0,52.0
4687,57.0,0,341,0.0,51.0
4688,58.0,0,120,0.0,52.0
4689,67.0,4,120,0.0,64.0
4690,76.0,0,512,0.0,62.0
4691,88.0,341,512,0.0,76.0
4692,89.0,171,179,0.0,72.0
4693,69.0,0,119,0.0,66.0
4694,60.0,171,119,0.0,54.0
4695,77.0,0,512,0.0,64.0
4696,37.0,341,2048,0.0,43.0
4697,69.0,341,512,0.0,64.0
4698,70.0,0,179,0.0,55.0
4699,82.0,512,179,0.0,68.0
4700,63.0,0,1024,0.0,56.0
4701,72.0,0,1024,0.0,68.0
4702,65.0,0,341,0.0,64.0
4703,61.0,0,341,0.0,52.0
4704,63.0,0,120,0.0,62.0
4705,60.0,341,120,0.0,50.0
4706,76.0,0,512,0.0,69.0
4707,64.0,512,512,0.0,64.0
4708,37.0,0,1536,0.0,43.0
4709,49.0,0,1536,0.0,55.0
4710,77.0,0,179,0.0,60.0
4711,65.0,0,179,0.0,55.0
4712,59.0,171,119,0.0,47.0
4713,62.0,0,119,0.0,59.0
4714,31.0,0,512,0.0,52.0
4715,43.0,171,512,0.0,64.0
4716,40.0,0,119,0.0,64.0
4717,28.0,0,119,0.0,52.0
4718,52.0,0,119,0.0,64.0
4719,79.0,0,341,0.0,78.0
4720,72.0,0,0,0.0,64.0
4721,67.0,0,341,0.0,52.0
4722,36.0,0,342,0.0,60.0
4723,48.0,0,342,0.0,60.0
4724,38.0,342,119,0.0,61.0
4725,50.0,0,119,0.0,61.0
4726,84.0,341,683,0.0,78.0
4727,60.0,0,341,0.0,60.0
4728,40.0,0,341,0.0,62.0
4729,52.0,341,341,0.0,62.0
4730,62.0,341,120,0.0,61.0
4731,41.0,0,120,0.0,62.0
4732,53.0,0,120,0.0,62.0
4733,83.0,0,683,0.0,78.0
4734,71.0,0,683,0.0,64.0
4735,43.0,342,119,0.0,63.0
4736,64.0,0,119,0.0,63.0
4737,55.0,0,119,0.0,63.0
4738,82.0,0,341,0.0,78.0
4739,70.0,0,341,0.0,64.0
4740,48.0,341,119,0.0,64.0
4741,69.0,0,341,0.0,64.0
4742,36.0,0,0,0.0,52.0
4743,81.0,0,341,0.0,78.0
4744,65.0,0,512,0.0,64.0
4745,56.0,0,342,0.0,62.0
4746,58.0,342,119,0.0,63.0
4747,48.0,341,0,0.0,64.0
4748,80.0,0,683,0.0,78.0
4749,68.0,0,683,0.0,64.0
4750,56.0,0,341,0.0,60.0
4751,60.0,0,341,0.0,64.0
4752,58.0,341,120,0.0,61.0
4753,61.0,0,120,0.0,64.0
4754,79.0,0,683,0.0,78.0
4755,67.0,0,683,0.0,64.0
4756,36.0,0,683,0.0,52.0
4757,60.0,0,119,0.0,63.0
4758,63.0,0,119,0.0,65.0
4759,66.0,342,341,0.0,64.0
4760,78.0,0,341,0.0,78.0
4761,44.0,0,341,0.0,64.0
4762,32.0,0,341,0.0,52.0
4763,61.0,0,119,0.0,64.0
4764,77.0,0,119,0.0,78.0
4765,65.0,341,119,0.0,64.0
4766,49.0,0,341,0.0,64.0
4767,37.0,0,341,0.0,52.0
4768,56.0,0,512,0.0,65.0
4769,77.0,0,342,0.0,64.0
4770,65.0,0,342,0.0,60.0
4771,79.0,342,119,0.0,66.0
4772,67.0,0,119,0.0,61.0
4773,53.0,341,683,0.0,65.0
4774,65.0,0,0,0.0,60.0
4775,81.0,0,341,0.0,67.0
4776,69.0,341,341,0.0,62.0
4777,82.0,341,120,0.0,68.0
4778,67.0,0,120,0.0,61.0
4779,70.0,0,120,0.0,62.0
4780,64.0,0,683,0.0,77.0
4781,52.0,0,683,0.0,64.0
4782,69.0,0,119,0.0,63.0
4783,72.0,0,119,0.0,63.0
4784,84.0,342,119,0.0,70.0
4785,63.0,0,341,0.0,75.0
4786,51.0,0,341,0.0,63.0
4787,77.0,0,119,0.0,69.0
4788,62.0,0,341,0.0,75.0
4789,50.0,0,341,0.0,62.0
4790,65.0,341,0,0.0,60.0
4791,70.0,341,512,0.0,64.0
4792,85.0,0,342,0.0,73.0
4793,73.0,0,342,0.0,61.0
4794,75.0,0,119,0.0,63.0
4795,87.0,342,119,0.0,76.0
4796,61.0,0,0,0.0,60.0
4797,49.0,0,683,0.0,62.0
4798,89.0,0,341,0.0,78.0
4799,77.0,0,341,0.0,65.0
4800,78.0,0,120,0.0,67.0
4801,90.0,0,120,0.0,80.0
4802,63.0,341,120,0.0,61.0
4803,60.0,0,683,0.0,73.0
4804,65.0,0,0,0.0,63.0
4805,48.0,341,683,0.0,61.0
4806,80.0,0,119,0.0,69.0
4807,92.0,0,119,0.0,83.0
4808,47.0,0,341,0.0,60.0
4809,59.0,342,341,0.0,72.0
4810,61.0,341,0,0.0,64.0
4811,46.0,0,251,0.0,59.0
4812,58.0,0,251,0.0,71.0
4813,66.0,0,251,0.0,66.0
4814,85.0,0,251,0.0,83.0
4815,73.0,0,251,0.0,69.0
4816,58.0,341,342,0.0,65.0
4817,66.0,0,342,0.0,68.0
4818,68.0,0,119,0.0,70.0
4819,65.0,0,119,0.0,56.0
4820,56.0,0,119,0.0,54.0
4821,59.0,342,119,0.0,66.0
4822,61.0,0,683,0.0,52.0
4823,73.0,341,0,0.0,64.0
4824,58.0,0,341,0.0,67.0
4825,54.0,0,341,0.0,55.0
4826,70.0,0,341,0.0,72.0
4827,66.0,0,341,0.0,58.0
4828,73.0,0,120,0.0,74.0
4829,56.0,0,120,0.0,68.0
4830,68.0,341,120,0.0,60.0
4831,53.0,0,120,0.0,56.0
4832,61.0,0,683,0.0,52.0
4833,73.0,0,0,0.0,76.0
4834,37.0,0,119,0.0,57.0
4835,65.0,0,119,0.0,64.0
4836,56.0,0,119,0.0,52.0
4837,68.0,0,119,0.0,62.0
4838,49.0,0,119,0.0,69.0
4839,77.0,342,119,0.0,62.0
4840,34.0,0,251,0.0,58.0
4841,46.0,0,251,0.0,70.0
4842,70.0,0,251,0.0,64.0
4843,73.0,0,251,0.0,64.0
4844,54.0,341,251,0.0,70.0
4845,82.0,0,251,0.0,80.0
4846,66.0,341,342,0.0,68.0
4847,58.0,0,342,0.0,64.0
4848,59.0,0,119,0.0,77.0
4849,56.0,0,119,0.0,65.0
4850,68.0,0,119,0.0,70.0
4851,65.0,342,119,0.0,56.0
4852,61.0,0,683,0.0,52.0
4853,73.0,0,0,0.0,64.0
4854,70.0,0,341,0.0,72.0
4855,58.0,0,341,0.0,78.0
4856,54.0,0,341,0.0,66.0
4857,66.0,0,341,0.0,58.0
4858,53.0,0,120,0.0,68.0
4859,68.0,341,120,0.0,61.0
4860,56.0,0,120,0.0,80.0
4861,73.0,0,120,0.0,75.0
4862,73.0,342,0,0.0,77.0
4863,61.0,341,683,0.0,52.0
4864,68.0,0,119,0.0,63.0
4865,77.0,0,119,0.0,63.0
4866,49.0,0,119,0.0,81.0
4867,37.0,0,119,0.0,69.0
4868,65.0,0,341,0.0,64.0
4869,56.0,0,341,0.0,52.0
4870,70.0,0,251,0.0,64.0
4871,73.0,0,251,0.0,71.0
4872,82.0,0,251,0.0,80.0
4873,46.0,0,251,0.0,82.0
4874,54.0,0,251,0.0,70.0
4875,34.0,0,251,0.0,70.0
4876,55.0,0,342,0.0,64.0
4877,58.0,341,342,0.0,76.0
4878,60.0,0,342,0.0,64.0
4879,64.0,0,342,0.0,68.0
4880,53.0,342,119,0.0,65.0
4881,56.0,0,119,0.0,77.0
4882,62.0,0,119,0.0,56.0
4883,65.0,0,119,0.0,70.0
4884,72.0,341,0,0.0,64.0
4885,52.0,0,341,0.0,66.0
4886,67.0,0,341,0.0,72.0
4887,64.0,0,341,0.0,58.0
4888,55.0,0,341,0.0,78.0
4889,65.0,0,120,0.0,61.0
4890,68.0,341,120,0.0,75.0
4891,50.0,0,120,0.0,68.0
4892,53.0,0,120,0.0,80.0
4893,60.0,0,0,0.0,52.0
4894,67.0,0,119,0.0,63.0
4895,48.0,0,119,0.0,69.0
4896,70.0,0,119,0.0,52.0
4897,52.0,0,119,0.0,81.0
4898,72.0,0,341,0.0,64.0
4899,60.0,0,0,0.0,52.0
4900,40.0,341,251,0.0,70.0
4901,48.0,0,251,0.0,82.0
4902,72.0,0,251,0.0,52.0
4903,70.0,0,251,0.0,65.0
4904,79.0,0,251,0.0,79.0
4905,67.0,0,251,0.0,71.0
4906,58.0,0,342,0.0,76.0
4907,55.0,0,342,0.0,64.0
4908,60.0,0,342,0.0,52.0
4909,64.0,0,342,0.0,68.0
4910,65.0,0,119,0.0,71.0
4911,53.0,0,119,0.0,65.0
4912,56.0,342,119,0.0,77.0
4913,62.0,0,119,0.0,57.0
4914,72.0,0,683,0.0,64.0
4915,52.0,0,341,0.0,66.0
4916,55.0,0,341,0.0,78.0
4917,67.0,341,341,0.0,73.0
4918,64.0,0,341,0.0,59.0
4919,50.0,341,120,0.0,68.0
4920,53.0,0,120,0.0,80.0
4921,68.0,0,120,0.0,76.0
4922,65.0,0,120,0.0,62.0
4923,72.0,0,683,0.0,64.0
4924,60.0,0,0,0.0,52.0
4925,48.0,0,119,0.0,69.0
4926,52.0,0,119,0.0,81.0
4927,70.0,0,119,0.0,78.0
4928,67.0,342,119,0.0,64.0
4929,72.0,0,0,0.0,52.0
4930,60.0,341,0,0.0,52.0
4931,40.0,0,341,0.0,64.0
4932,67.0,0,341,0.0,71.0
4933,48.0,0,341,0.0,83.0
4934,79.0,0,512,0.0,81.0
4935,70.0,0,512,0.0,67.0
4936,60.0,341,342,0.0,82.0
4937,59.0,0,119,0.0,69.0
4938,62.0,342,341,0.0,79.0
4939,64.0,0,341,0.0,52.0
4940,55.0,0,341,0.0,52.0
4941,72.0,0,341,0.0,64.0
4942,58.0,0,341,0.0,72.0
4943,65.0,0,120,0.0,52.0
4944,74.0,0,120,0.0,64.0
4945,60.0,0,461,0.0,64.0
4946,53.0,0,120,0.0,52.0
4947,56.0,0,120,0.0,75.0
4948,67.0,0,341,0.0,59.0
4949,76.0,0,341,0.0,71.0
4950,58.0,0,341,0.0,69.0
4951,46.0,0,341,0.0,57.0
4952,84.0,0,341,0.0,74.0
4953,72.0,0,341,0.0,62.0
4954,60.0,0,460,0.0,59.0
4955,77.0,0,119,0.0,74.0
4956,86.0,0,119,0.0,75.0
4957,68.0,341,119,0.0,62.0
4958,48.0,342,460,0.0,59.0
4959,55.0,0,460,0.0,71.0
4960,74.0,0,119,0.0,63.0
4961,44.0,0,119,0.0,58.0
4962,56.0,0,119,0.0,70.0
4963,58.0,0,342,0.0,77.0
4964,79.0,0,342,0.0,77.0
4965,43.0,341,342,0.0,64.0
4966,88.0,0,342,0.0,76.0
4967,55.0,0,342,0.0,71.0
4968,76.0,0,342,0.0,69.0
4969,72.0,0,461,0.0,65.0
4970,80.0,0,119,0.0,81.0
4971,48.0,0,461,0.0,65.0
4972,56.0,342,119,0.0,81.0
4973,41.0,0,119,0.0,64.0
4974,53.0,0,119,0.0,73.0
4975,89.0,0,119,0.0,78.0
4976,77.0,0,119,0.0,69.0
4977,58.0,341,341,0.0,87.0
4978,73.0,0,341,0.0,71.0
4979,85.0,0,341,0.0,83.0
4980,34.0,0,341,0.0,61.0
4981,46.0,0,341,0.0,70.0
4982,82.0,0,120,0.0,78.0
4983,61.0,0,120,0.0,82.0
4984,49.0,0,120,0.0,70.0
4985,37.0,0,120,0.0,61.0
4986,70.0,341,120,0.0,66.0
4987,79.0,342,0,0.0,64.0
4988,77.0,0,683,0.0,80.0
4989,67.0,0,0,0.0,64.0
4990,76.0,0,32,0.0,76.0
4991,72.0,0,119,0.0,59.0
4992,84.0,0,119,0.0,71.0
4993,60.0,0,119,0.0,76.0
4994,36.0,0,119,0.0,61.0
4995,48.0,0,119,0.0,70.0
4996,53.0,0,341,0.0,83.0
4997,41.0,0,341,0.0,64.0
4998,80.0,341,512,0.0,80.0
4999,77.0,0,512,0.0,64.0
5000,68.0,0,512,0.0,64.0
5001,65.0,0,512,0.0,81.0
5002,60.0,341,342,0.0,77.0
5003,59.0,342,119,0.0,69.0
5004,62.0,0,341,0.0,75.0
5005,58.0,0,341,0.0,72.0
5006,64.0,0,341,0.0,76.0
5007,72.0,0,341,0.0,64.0
5008,55.0,0,341,0.0,52.0
5009,60.0,0,461,0.0,64.0
5010,53.0,341,120,0.0,52.0
5011,65.0,0,120,0.0,52.0
5012,74.0,0,120,0.0,64.0
5013,56.0,0,120,0.0,75.0
5014,67.0,0,341,0.0,59.0
5015,76.0,0,341,0.0,71.0
5016,58.0,0,341,0.0,69.0
5017,46.0,342,341,0.0,57.0
5018,84.0,0,341,0.0,75.0
5019,72.0,0,341,0.0,63.0
5020,48.0,0,460,0.0,59.0
5021,77.0,0,119,0.0,74.0
5022,68.0,341,119,0.0,62.0
5023,55.0,0,460,0.0,71.0
5024,86.0,0,119,0.0,76.0
5025,60.0,0,460,0.0,59.0
5026,56.0,0,119,0.0,70.0
5027,74.0,0,119,0.0,64.0
5028,44.0,0,119,0.0,58.0
5029,79.0,341,342,0.0,77.0
5030,58.0,0,342,0.0,77.0
5031,76.0,0,342,0.0,69.0
5032,88.0,0,342,0.0,78.0
5033,43.0,0,342,0.0,70.0
5034,55.0,0,342,0.0,71.0
5035,80.0,0,119,0.0,81.0
5036,48.0,0,461,0.0,65.0
5037,56.0,0,119,0.0,81.0
5038,89.0,342,119,0.0,79.0
5039,41.0,0,119,0.0,72.0
5040,77.0,0,119,0.0,69.0
5041,53.0,0,119,0.0,73.0
5042,72.0,0,461,0.0,65.0
5043,73.0,341,341,0.0,69.0
5044,58.0,0,341,0.0,87.0
5045,46.0,0,341,0.0,70.0
5046,85.0,0,341,0.0,81.0
5047,34.0,0,341,0.0,70.0
5048,49.0,0,120,0.0,70.0
5049,70.0,0,120,0.0,64.0
5050,82.0,0,120,0.0,76.0
5051,61.0,341,120,0.0,82.0
5052,37.0,0,120,0.0,71.0
5053,77.0,0,683,0.0,80.0
5054,79.0,0,683,0.0,68.0
5055,67.0,0,0,0.0,64.0
5056,79.0,0,32,0.0,64.0
5057,76.0,0,32,0.0,76.0
5058,48.0,0,119,0.0,70.0
5059,72.0,0,119,0.0,57.0
5060,84.0,342,119,0.0,69.0
5061,36.0,0,119,0.0,73.0
5062,60.0,0,119,0.0,76.0
5063,41.0,0,221,0.0,60.0
5064,29.0,0,221,0.0,72.0
5065,53.0,341,341,0.0,76.0
5066,68.0,0,0,0.0,69.0
5067,65.0,0,0,0.0,69.0
5068,80.0,0,341,0.0,78.0
5069,77.0,0,0,0.0,64.0
5070,43.0,341,342,0.0,61.0
5071,55.0,0,342,0.0,70.0
5072,44.0,342,119,0.0,63.0
5073,56.0,0,119,0.0,72.0
5074,77.0,0,0,0.0,61.0
5075,89.0,0,683,0.0,76.0
5076,72.0,0,683,0.0,69.0
5077,58.0,0,341,0.0,73.0
5078,46.0,0,341,0.0,64.0
5079,48.0,341,120,0.0,62.0
5080,60.0,0,120,0.0,71.0
5081,73.0,0,0,0.0,64.0
5082,85.0,341,683,0.0,75.0
5083,65.0,0,0,0.0,64.0
5084,49.0,342,119,0.0,60.0
5085,61.0,0,119,0.0,69.0
5086,82.0,0,341,0.0,71.0
5087,70.0,0,341,0.0,64.0
5088,41.0,341,221,0.0,67.0
5089,53.0,0,341,0.0,76.0
5090,43.0,341,342,0.0,61.0
5091,55.0,0,342,0.0,70.0
5092,44.0,342,119,0.0,63.0
5093,56.0,0,119,0.0,72.0
5094,77.0,0,683,0.0,64.0
5095,84.0,0,683,0.0,64.0
5096,72.0,0,683,0.0,70.0
5097,68.0,0,683,0.0,70.0
5098,65.0,341,0,0.0,67.0
5099,89.0,0,683,0.0,79.0
5100,46.0,0,341,0.0,64.0
5101,58.0,0,341,0.0,73.0
5102,60.0,341,120,0.0,71.0
5103,48.0,0,120,0.0,62.0
5104,73.0,0,683,0.0,67.0
5105,65.0,0,0,0.0,64.0
5106,85.0,0,683,0.0,75.0
5107,77.0,0,683,0.0,61.0
5108,49.0,0,119,0.0,60.0
5109,61.0,0,119,0.0,69.0
5110,70.0,342,341,0.0,64.0
5111,82.0,0,341,0.0,71.0
5112,73.0,0,341,0.0,64.0
5113,36.0,341,221,0.0,67.0
5114,48.0,0,341,0.0,76.0
5115,38.0,0,342,0.0,61.0
5116,50.0,341,342,0.0,70.0
5117,52.0,0,119,0.0,72.0
5118,40.0,342,119,0.0,63.0
5119,64.0,0,683,0.0,70.0
5120,60.0,0,683,0.0,70.0
5121,84.0,0,683,0.0,79.0
5122,67.0,0,683,0.0,70.0
5123,72.0,0,683,0.0,64.0
5124,53.0,341,341,0.0,73.0
5125,41.0,0,341,0.0,64.0
5126,55.0,0,120,0.0,71.0
5127,43.0,341,120,0.0,62.0
5128,80.0,0,683,0.0,75.0
5129,60.0,0,683,0.0,67.0
5130,72.0,0,683,0.0,61.0
5131,68.0,0,0,0.0,64.0
5132,44.0,0,119,0.0,60.0
5133,56.0,0,119,0.0,69.0
5134,77.0,0,341,0.0,71.0
5135,60.0,0,341,0.0,64.0
5136,65.0,342,341,0.0,64.0
5137,34.0,0,221,0.0,65.0
5138,66.0,0,252,0.0,64.0
5139,70.0,341,252,0.0,64.0
5140,73.0,0,252,0.0,64.0
5141,78.0,0,252,0.0,83.0
5142,61.0,0,252,0.0,71.0
5143,46.0,0,341,0.0,74.0
5144,57.0,0,342,0.0,69.0
5145,45.0,341,342,0.0,60.0
5146,65.0,171,252,0.0,58.0
5147,68.0,0,252,0.0,58.0
5148,61.0,0,252,0.0,65.0
5149,77.0,0,252,0.0,77.0
5150,58.0,171,119,0.0,64.0
5151,46.0,0,119,0.0,55.0
5152,36.0,0,221,0.0,65.0
5153,77.0,341,252,0.0,83.0
5154,68.0,0,252,0.0,64.0
5155,65.0,0,252,0.0,64.0
5156,72.0,0,252,0.0,64.0
5157,60.0,0,252,0.0,71.0
5158,48.0,0,341,0.0,74.0
5159,47.0,341,342,0.0,60.0
5160,59.0,0,342,0.0,69.0
5161,64.0,0,252,0.0,58.0
5162,67.0,0,252,0.0,58.0
5163,60.0,0,81,0.0,64.0
5164,76.0,0,252,0.0,77.0
5165,48.0,171,119,0.0,55.0
5166,41.0,0,221,0.0,67.0
5167,68.0,0,341,0.0,78.0
5168,77.0,0,341,0.0,64.0
5169,53.0,0,341,0.0,76.0
5170,65.0,0,0,0.0,69.0
5171,43.0,0,342,0.0,61.0
5172,55.0,0,342,0.0,70.0
5173,56.0,0,119,0.0,72.0
5174,44.0,342,119,0.0,63.0
5175,77.0,0,683,0.0,64.0
5176,72.0,0,683,0.0,69.0
5177,89.0,341,683,0.0,79.0
5178,65.0,341,0,0.0,66.0
5179,68.0,0,683,0.0,69.0
5180,58.0,0,341,0.0,73.0
5181,46.0,0,341,0.0,64.0
5182,60.0,341,120,0.0,71.0
5183,48.0,0,120,0.0,62.0
5184,85.0,0,683,0.0,75.0
5185,73.0,0,683,0.0,66.0
5186,77.0,0,683,0.0,61.0
5187,49.0,0,119,0.0,60.0
5188,61.0,0,119,0.0,69.0
5189,73.0,0,341,0.0,64.0
5190,70.0,0,341,0.0,64.0
5191,65.0,0,341,0.0,64.0
5192,82.0,342,341,0.0,71.0
5193,41.0,0,221,0.0,67.0
5194,53.0,341,341,0.0,76.0
5195,55.0,0,342,0.0,70.0
5196,43.0,341,342,0.0,61.0
5197,56.0,342,119,0.0,72.0
5198,44.0,0,119,0.0,63.0
5199,72.0,0,683,0.0,70.0
5200,84.0,0,683,0.0,64.0
5201,89.0,0,683,0.0,79.0
5202,65.0,0,683,0.0,70.0
5203,68.0,0,683,0.0,70.0
5204,77.0,341,0,0.0,61.0
5205,58.0,0,341,0.0,73.0
5206,46.0,0,341,0.0,64.0
5207,60.0,341,120,0.0,71.0
5208,48.0,0,120,0.0,62.0
5209,85.0,0,683,0.0,75.0
5210,65.0,0,683,0.0,67.0
5211,73.0,0,683,0.0,67.0
5212,61.0,0,119,0.0,69.0
5213,49.0,0,119,0.0,60.0
5214,73.0,0,341,0.0,64.0
5215,70.0,0,341,0.0,64.0
5216,82.0,342,341,0.0,71.0
5217,65.0,0,341,0.0,64.0
5218,37.0,0,221,0.0,72.0
5219,49.0,341,341,0.0,81.0
5220,51.0,0,342,0.0,75.0
5221,39.0,0,342,0.0,66.0
5222,41.0,0,119,0.0,68.0
5223,53.0,342,119,0.0,77.0
5224,73.0,0,683,0.0,75.0
5225,92.0,0,683,0.0,87.0
5226,85.0,341,683,0.0,72.0
5227,80.0,0,683,0.0,75.0
5228,54.0,341,341,0.0,78.0
5229,42.0,0,341,0.0,69.0
5230,56.0,341,120,0.0,76.0
5231,44.0,0,120,0.0,67.0
5232,85.0,0,683,0.0,78.0
5233,73.0,0,0,0.0,64.0
5234,70.0,0,0,0.0,64.0
5235,94.0,0,683,0.0,92.0
5236,82.0,0,683,0.0,72.0
5237,58.0,0,119,0.0,74.0
5238,46.0,342,119,0.0,65.0
5239,78.0,0,341,0.0,64.0
5240,85.0,0,341,0.0,68.0
5241,90.0,0,341,0.0,83.0
5242,49.0,341,221,0.0,81.0
5243,37.0,0,221,0.0,72.0
5244,39.0,341,342,0.0,66.0
5245,51.0,0,342,0.0,75.0
5246,41.0,0,119,0.0,68.0
5247,53.0,342,119,0.0,77.0
5248,80.0,0,683,0.0,69.0
5249,92.0,0,683,0.0,87.0
5250,85.0,0,0,0.0,78.0
5251,73.0,0,0,0.0,76.0
5252,42.0,0,341,0.0,69.0
5253,54.0,341,341,0.0,78.0
5254,44.0,341,120,0.0,67.0
5255,56.0,0,120,0.0,76.0
5256,94.0,0,683,0.0,93.0
5257,70.0,0,683,0.0,76.0
5258,82.0,0,683,0.0,76.0
5259,46.0,342,119,0.0,65.0
5260,58.0,0,119,0.0,74.0
5261,85.0,0,341,0.0,70.0
5262,90.0,0,341,0.0,85.0
5263,70.0,0,341,0.0,69.0
5264,73.0,0,341,0.0,69.0
5265,78.0,0,341,0.0,69.0
5266,34.0,341,221,0.0,65.0
5267,46.0,0,221,0.0,74.0
5268,85.0,0,252,0.0,64.0
5269,90.0,0,252,0.0,83.0
5270,73.0,0,252,0.0,71.0
5271,82.0,0,252,0.0,64.0
5272,78.0,0,252,0.0,64.0
5273,45.0,341,342,0.0,60.0
5274,57.0,0,342,0.0,69.0
5275,77.0,0,252,0.0,58.0
5276,80.0,171,252,0.0,58.0
5277,73.0,0,252,0.0,65.0
5278,89.0,0,252,0.0,77.0
5279,46.0,0,119,0.0,55.0
5280,58.0,171,119,0.0,64.0
5281,48.0,0,221,0.0,74.0
5282,36.0,0,221,0.0,65.0
5283,72.0,341,252,0.0,71.0
5284,89.0,0,252,0.0,83.0
5285,80.0,0,252,0.0,64.0
5286,77.0,0,252,0.0,64.0
5287,84.0,0,252,0.0,64.0
5288,47.0,341,342,0.0,60.0
5289,59.0,0,342,0.0,69.0
5290,79.0,0,252,0.0,58.0
5291,76.0,0,252,0.0,58.0
5292,88.0,0,252,0.0,77.0
5293,72.0,171,252,0.0,65.0
5294,60.0,171,119,0.0,64.0
5295,48.0,0,119,0.0,55.0
5296,78.0,0,252,0.0,83.0
5297,61.0,341,252,0.0,71.0
5298,70.0,0,252,0.0,64.0
5299,73.0,0,252,0.0,64.0
5300,66.0,0,252,0.0,64.0
5301,34.0,0,341,0.0,65.0
5302,46.0,0,341,0.0,74.0
5303,45.0,341,342,0.0,60.0
5304,57.0,0,342,0.0,69.0
5305,61.0,0,252,0.0,65.0
5306,68.0,171,252,0.0,58.0
5307,65.0,0,252,0.0,58.0
5308,77.0,0,252,0.0,77.0
5309,46.0,171,119,0.0,55.0
5310,58.0,0,119,0.0,64.0
5311,77.0,0,252,0.0,83.0
5312,72.0,0,252,0.0,64.0
5313,68.0,0,252,0.0,64.0
5314,65.0,0,252,0.0,64.0
5315,60.0,341,252,0.0,71.0
5316,48.0,0,341,0.0,74.0
5317,36.0,0,341,0.0,65.0
5318,59.0,0,342,0.0,69.0
5319,47.0,341,342,0.0,60.0
5320,60.0,0,81,0.0,64.0
5321,76.0,0,252,0.0,77.0
5322,67.0,171,252,0.0,58.0
5323,64.0,0,252,0.0,58.0
5324,48.0,171,119,0.0,55.0
5325,65.0,0,179,0.0,64.0
5326,48.0,0,179,0.0,52.0
5327,68.0,0,179,0.0,64.0
5328,77.0,0,179,0.0,76.0
5329,36.0,341,179,0.0,40.0
5330,59.0,0,512,0.0,64.0
5331,47.0,512,512,0.0,52.0
5332,48.0,0,179,0.0,47.0
5333,60.0,0,179,0.0,59.0
5334,72.0,0,179,0.0,64.0
5335,67.0,0,179,0.0,52.0
5336,64.0,512,179,0.0,52.0
5337,36.0,512,179,0.0,43.0
5338,48.0,0,179,0.0,55.0
5339,48.0,512,179,0.0,36.0
5340,60.0,0,179,0.0,49.0
5341,68.0,0,179,0.0,61.0
5342,65.0,0,179,0.0,49.0
5343,59.0,512,512,0.0,50.0
5344,47.0,0,512,0.0,38.0
5345,48.0,512,179,0.0,33.0
5346,60.0,0,179,0.0,45.0
5347,55.0,0,179,0.0,31.0
5348,67.0,0,179,0.0,43.0
5349,64.0,0,179,0.0,55.0
5350,36.0,512,179,0.0,28.0
5351,48.0,0,179,0.0,40.0
5352,65.0,0,179,0.0,50.0
5353,56.0,0,179,0.0,39.0
5354,48.0,0,179,0.0,22.0
5355,60.0,512,179,0.0,39.0
5356,47.0,512,512,0.0,40.0
5357,48.0,512,179,0.0,37.0
5358,60.0,0,179,0.0,43.0
5359,55.0,0,179,0.0,32.0
5360,52.0,0,179,0.0,32.0
5361,36.0,512,179,0.0,35.0
5362,48.0,0,312,0.0,12.0
5363,36.0,0,312,0.0,12.0
5364,52.0,1536,312,0.0,22.0
5365,55.0,0,312,0.0,22.0
5366,60.0,0,312,0.0,37.0
5367,65.0,512,512,0.0,48.0
5368,53.0,0,512,0.0,35.0
5369,48.0,1024,1024,0.0,29.0
5370,60.0,0,1024,0.0,38.0
5371,29.0,0,2048,0.0,24.0
5372,41.0,1024,2048,0.0,33.0
5373,49.0,0,1024,0.0,33.0
5374,53.0,0,1024,0.0,33.0
5375,61.0,0,1024,0.0,42.0
5376,25.0,0,1024,0.0,21.0
5377,37.0,0,1024,0.0,30.0
5378,56.0,1024,512,0.0,29.0
5379,68.0,512,1536,0.0,52.0
5380,53.0,0,512,0.0,35.0
5381,65.0,512,512,0.0,48.0
5382,29.0,0,1024,0.0,17.0
5383,60.0,0,1024,0.0,38.0
5384,48.0,0,1024,0.0,29.0
5385,41.0,0,1024,0.0,26.0
5386,49.0,512,1024,0.0,33.0
5387,25.0,0,1024,0.0,21.0
5388,53.0,0,1024,0.0,33.0
5389,61.0,0,1024,0.0,42.0
5390,37.0,0,1024,0.0,30.0
5391,68.0,0,1536,0.0,52.0
5392,56.0,0,512,0.0,29.0
5393,48.0,1024,1024,0.0,29.0
5394,60.0,0,1024,0.0,38.0
5395,29.0,0,1024,0.0,17.0
5396,41.0,0,1024,0.0,26.0
5397,53.0,0,512,0.0,35.0
5398,65.0,512,512,0.0,48.0
5399,27.0,0,1024,0.0,21.0
5400,39.0,1024,0,0.0,33.0
5401,68.0,0,1024,0.0,42.0
5402,56.0,0,1024,0.0,24.0
5403,60.0,512,1536,0.0,33.0
5404,72.0,0,1536,0.0,52.0
5405,67.0,512,512,0.0,48.0
5406,55.0,0,1024,0.0,23.0
5407,51.0,0,2048,0.0,17.0
5408,66.0,512,1024,0.0,42.0
5409,54.0,0,1024,0.0,22.0
5410,70.0,0,1536,0.0,52.0
5411,58.0,0,2048,0.0,33.0
5412,65.0,0,512,0.0,48.0
5413,37.0,0,2048,0.0,33.0
5414,49.0,1024,1024,0.0,29.0
5415,53.0,0,1024,0.0,21.0
5416,53.0,0,1024,0.0,20.0
5417,65.0,512,1024,0.0,42.0
5418,56.0,512,2048,0.0,33.0
5419,68.0,0,1536,0.0,52.0
5420,36.0,0,2048,0.0,33.0
5421,48.0,0,1024,0.0,29.0
5422,63.0,512,0,0.0,33.0
5423,51.0,0,0,0.0,18.0
5424,67.0,0,1024,0.0,52.0
5425,55.0,0,0,0.0,20.0
5426,49.0,1024,1024,0.0,17.0
5427,46.0,0,1024,0.0,29.0
5428,34.0,0,2048,0.0,33.0
5429,61.0,0,1024,0.0,29.0
5430,53.0,0,2078,0.0,36.0
5431,65.0,0,2078,0.0,48.0
5432,36.0,0,2048,0.0,33.0
5433,60.0,0,2048,0.0,26.0
5434,48.0,1024,1024,0.0,29.0
5435,64.0,0,1054,0.0,37.0
5436,52.0,0,1054,0.0,25.0
5437,41.0,0,2048,0.0,33.0
5438,29.0,1024,2048,0.0,24.0
5439,60.0,1024,1024,0.0,45.0
5440,48.0,0,1024,0.0,22.0
5441,65.0,0,512,0.0,37.0
5442,53.0,0,0,0.0,26.0
5443,61.0,0,1024,0.0,49.0
5444,25.0,0,1024,0.0,18.0
5445,37.0,512,1024,0.0,27.0
5446,49.0,0,1024,0.0,26.0
5447,68.0,0,1536,0.0,41.0
5448,56.0,0,512,0.0,22.0
5449,53.0,0,512,0.0,22.0
5450,65.0,512,512,0.0,39.0
5451,41.0,0,1024,0.0,26.0
5452,29.0,0,1024,0.0,17.0
5453,60.0,0,1024,0.0,45.0
5454,48.0,1024,1024,0.0,22.0
5455,37.0,0,1024,0.0,27.0
5456,61.0,0,1024,0.0,49.0
5457,53.0,0,1024,0.0,26.0
5458,49.0,0,1024,0.0,26.0
5459,25.0,512,1024,0.0,18.0
5460,68.0,0,1536,0.0,43.0
5461,56.0,0,512,0.0,22.0
5462,53.0,512,512,0.0,23.0
5463,65.0,0,512,0.0,40.0
5464,41.0,1024,1024,0.0,26.0
5465,29.0,0,1024,0.0,17.0
5466,60.0,0,0,0.0,26.0
5467,56.0,0,0,0.0,22.0
5468,48.0,0,1024,0.0,22.0
5469,68.0,0,1024,0.0,49.0
5470,27.0,0,1024,0.0,18.0
5471,39.0,0,0,0.0,21.0
5472,72.0,0,1536,0.0,44.0
5473,55.0,1024,1024,0.0,22.0
5474,51.0,512,2048,0.0,16.0
5475,67.0,512,512,0.0,34.0
5476,66.0,0,1024,0.0,43.0
5477,54.0,0,1024,0.0,21.0
5478,58.0,0,2048,0.0,26.0
5479,70.0,0,1536,0.0,46.0
5480,49.0,1024,1024,0.0,17.0
5481,53.0,0,1024,0.0,20.0
5482,37.0,0,2048,0.0,21.0
5483,65.0,512,512,0.0,36.0
5484,52.0,0,1024,0.0,20.0
5485,64.0,0,1024,0.0,37.0
5486,56.0,0,2048,0.0,26.0
5487,68.0,512,1536,0.0,47.0
5488,47.0,0,1024,0.0,17.0
5489,63.0,0,512,0.0,37.0
5490,35.0,0,2048,0.0,26.0
5491,51.0,1024,1024,0.0,19.0
5492,50.0,512,1024,0.0,18.0
5493,62.0,0,1024,0.0,40.0
5494,66.0,0,1536,0.0,33.0
5495,61.0,512,512,0.0,33.0
5496,45.0,1024,1024,0.0,17.0
5497,49.0,0,1024,0.0,17.0
5498,33.0,0,2048,0.0,26.0
5499,54.0,512,2560,0.0,26.0
5500,56.0,0,1024,0.0,25.0
5501,44.0,0,1024,0.0,24.0
5502,52.0,0,1536,0.0,16.0
5503,64.0,512,1536,0.0,32.0
5504,61.0,0,512,0.0,33.0
5505,49.0,512,512,0.0,22.0
5506,45.0,0,1024,0.0,23.0
5507,54.0,1024,1024,0.0,25.0
5508,44.0,0,1024,0.0,22.0
5509,56.0,512,1024,0.0,24.0
5510,52.0,0,1536,0.0,21.0
5511,64.0,0,1536,0.0,33.0
5512,49.0,512,512,0.0,20.0
5513,61.0,0,512,0.0,33.0
5514,54.0,1024,1024,0.0,24.0
5515,37.0,0,4096,0.0,15.0
5516,45.0,0,1024,0.0,21.0
5517,49.0,0,0,0.0,15.0
5518,57.0,0,1024,0.0,24.0
5519,42.0,0,1024,0.0,20.0
5520,63.0,512,1536,0.0,33.0
5521,51.0,0,1536,0.0,19.0
5522,54.0,1024,1024,0.0,24.0
5523,45.0,0,1024,0.0,19.0
5524,49.0,512,512,0.0,17.0
5525,61.0,0,512,0.0,33.0
5526,57.0,0,1024,0.0,23.0
5527,42.0,512,1024,0.0,18.0
5528,45.0,1024,1024,0.0,17.0
5529,37.0,0,4096,0.0,11.0
5530,54.0,0,1024,0.0,23.0
5531,51.0,0,2048,0.0,17.0
5532,63.0,0,2048,0.0,33.0
5533,57.0,0,1024,0.0,23.0
5534,42.0,0,1024,0.0,16.0
5535,49.0,0,2048,0.0,14.0
5536,61.0,0,2048,0.0,33.0
5537,44.0,0,2048,0.0,15.0
5538,56.0,1024,2048,0.0,23.0
5539,54.0,0,1024,0.0,13.0
5540,45.0,1024,1024,0.0,8.0
5541,51.0,1024,2048,0.0,12.0
5542,37.0,1024,4096,0.0,7.0
5543,63.0,0,2048,0.0,24.0
5544,49.0,0,179,0.0,38.0
5545,64.0,0,179,0.0,50.0
5546,61.0,1024,179,0.0,38.0
5547,44.0,0,179,0.0,35.0
5548,63.0,512,179,0.0,46.0
5549,60.0,0,179,0.0,35.0
5550,49.0,512,179,0.0,32.0
5551,61.0,0,179,0.0,43.0
5552,64.0,1024,179,0.0,45.0
5553,49.0,0,179,0.0,34.0
5554,61.0,0,179,0.0,34.0
5555,45.0,512,179,0.0,38.0
5556,66.0,0,179,0.0,50.0
5557,63.0,0,179,0.0,38.0
5558,49.0,0,179,0.0,38.0
5559,68.0,512,179,0.0,50.0
5560,64.0,0,179,0.0,38.0
5561,66.0,512,179,0.0,34.0
5562,69.0,0,179,0.0,45.0
5563,42.0,0,179,0.0,34.0
5564,64.0,512,179,0.0,30.0
5565,49.0,0,179,0.0,30.0
5566,68.0,0,179,0.0,40.0
5567,49.0,1024,179,0.0,34.0
5568,61.0,0,179,0.0,45.0
5569,60.0,0,179,0.0,38.0
5570,63.0,0,179,0.0,50.0
5571,44.0,512,179,0.0,38.0
5572,61.0,512,179,0.0,38.0
5573,64.0,0,179,0.0,50.0
5574,49.0,0,179,0.0,38.0
5575,60.0,512,179,0.0,35.0
5576,63.0,0,179,0.0,46.0
5577,44.0,0,179,0.0,35.0
5578,61.0,512,179,0.0,43.0
5579,49.0,0,179,0.0,32.0
5580,61.0,1024,179,0.0,34.0
5581,64.0,0,179,0.0,45.0
5582,49.0,0,179,0.0,34.0
5583,63.0,512,179,0.0,38.0
5584,66.0,0,179,0.0,50.0
5585,47.0,0,179,0.0,38.0
5586,64.0,0,179,0.0,38.0
5587,68.0,512,179,0.0,50.0
5588,52.0,0,179,0.0,38.0
5589,66.0,512,179,0.0,35.0
5590,47.0,0,179,0.0,35.0
5591,69.0,0,179,0.0,46.0
5592,52.0,512,179,0.0,32.0
5593,68.0,0,179,0.0,43.0
5594,64.0,0,179,0.0,32.0
5595,52.0,1024,179,0.0,34.0
5596,68.0,0,179,0.0,46.0
5597,64.0,0,179,0.0,34.0
5598,67.0,0,179,0.0,38.0
5599,49.0,512,179,0.0,38.0
5600,70.0,0,179,0.0,50.0
5601,68.0,0,179,0.0,38.0
5602,71.0,0,179,0.0,50.0
5603,52.0,512,179,0.0,38.0
5604,70.0,0,179,0.0,35.0
5605,51.0,512,179,0.0,35.0
5606,73.0,0,179,0.0,46.0
5607,71.0,0,179,0.0,43.0
5608,68.0,512,179,0.0,32.0
5609,52.0,0,179,0.0,32.0
5610,64.0,1024,179,0.0,34.0
5611,68.0,0,179,0.0,46.0
5612,52.0,0,179,0.0,34.0
5613,67.0,512,179,0.0,38.0
5614,70.0,0,179,0.0,50.0
5615,49.0,0,179,0.0,38.0
5616,71.0,0,512,0.0,50.0
5617,68.0,512,512,0.0,38.0
5618,52.0,0,512,0.0,38.0
5619,73.0,512,512,0.0,40.0
5620,71.0,512,0,0.0,37.0
5621,73.0,0,512,0.0,44.0
5622,71.0,512,512,0.0,46.0
5623,79.0,0,1536,0.0,49.0
5624,40.0,0,1536,0.0,31.0
5625,52.0,0,1536,0.0,43.0
5626,73.0,512,512,0.0,48.0
5627,71.0,0,0,0.0,43.0
5628,67.0,0,1536,0.0,37.0
5629,73.0,512,512,0.0,51.0
5630,78.0,0,1536,0.0,57.0
5631,50.0,0,1536,0.0,48.0
5632,47.0,0,3072,0.0,31.0
5633,71.0,512,512,0.0,53.0
5634,66.0,0,1536,0.0,43.0
5635,38.0,0,1536,0.0,35.0
5636,73.0,512,512,0.0,55.0
5637,71.0,512,512,0.0,57.0
5638,47.0,0,1536,0.0,38.0
5639,37.0,0,1536,0.0,38.0
5640,76.0,0,1536,0.0,64.0
5641,71.0,0,0,0.0,59.0
5642,64.0,0,1536,0.0,48.0
5643,73.0,512,512,0.0,59.0
5644,49.0,0,1536,0.0,53.0
5645,71.0,0,179,0.0,50.0
5646,74.0,0,179,0.0,62.0
5647,35.0,0,179,0.0,50.0
5648,47.0,0,179,0.0,38.0
5649,62.0,512,179,0.0,59.0
5650,70.0,512,179,0.0,35.0
5651,73.0,0,179,0.0,46.0
5652,42.0,0,179,0.0,35.0
5653,54.0,0,179,0.0,35.0
5654,59.0,512,179,0.0,32.0
5655,71.0,0,179,0.0,43.0
5656,47.0,0,179,0.0,32.0
5657,59.0,0,179,0.0,34.0
5658,71.0,0,179,0.0,34.0
5659,74.0,0,179,0.0,45.0
5660,47.0,1024,179,0.0,34.0
5661,47.0,0,179,0.0,38.0
5662,73.0,512,179,0.0,38.0
5663,76.0,0,179,0.0,50.0
5664,43.0,0,179,0.0,38.0
5665,78.0,0,179,0.0,50.0
5666,47.0,0,179,0.0,38.0
5667,59.0,0,179,0.0,38.0
5668,74.0,512,179,0.0,38.0
5669,76.0,512,179,0.0,34.0
5670,79.0,0,179,0.0,45.0
5671,40.0,0,179,0.0,34.0
5672,47.0,0,179,0.0,34.0
5673,47.0,0,179,0.0,30.0
5674,78.0,0,179,0.0,40.0
5675,74.0,0,179,0.0,30.0
5676,59.0,512,179,0.0,30.0
5677,59.0,0,179,0.0,34.0
5678,71.0,1024,179,0.0,45.0
5679,47.0,0,179,0.0,34.0
5680,54.0,0,179,0.0,38.0
5681,70.0,0,179,0.0,38.0
5682,73.0,512,179,0.0,50.0
5683,42.0,0,179,0.0,38.0
5684,71.0,512,179,0.0,38.0
5685,47.0,0,179,0.0,38.0
5686,74.0,0,179,0.0,50.0
5687,59.0,0,179,0.0,38.0
5688,73.0,0,179,0.0,46.0
5689,70.0,0,179,0.0,35.0
5690,42.0,512,179,0.0,35.0
5691,54.0,0,179,0.0,35.0
5692,59.0,0,179,0.0,32.0
5693,71.0,512,179,0.0,43.0
5694,47.0,0,179,0.0,32.0
5695,74.0,0,179,0.0,45.0
5696,59.0,1024,179,0.0,33.0
5697,47.0,0,179,0.0,21.0
5698,71.0,0,179,0.0,34.0
5699,73.0,512,179,0.0,38.0
5700,76.0,0,179,0.0,50.0
5701,45.0,0,179,0.0,21.0
5702,57.0,0,179,0.0,33.0
5703,78.0,0,179,0.0,50.0
5704,62.0,0,179,0.0,33.0
5705,50.0,512,179,0.0,21.0
5706,74.0,0,179,0.0,38.0
5707,79.0,0,179,0.0,46.0
5708,57.0,0,179,0.0,33.0
5709,45.0,0,179,0.0,21.0
5710,76.0,512,179,0.0,35.0
5711,50.0,512,179,0.0,21.0
5712,62.0,0,179,0.0,33.0
5713,74.0,0,179,0.0,32.0
5714,78.0,0,179,0.0,43.0
5715,78.0,0,179,0.0,46.0
5716,50.0,1024,179,0.0,21.0
5717,62.0,0,179,0.0,33.0
5718,74.0,0,179,0.0,34.0
5719,80.0,0,179,0.0,50.0
5720,77.0,0,179,0.0,38.0
5721,47.0,0,179,0.0,21.0
5722,59.0,512,179,0.0,33.0
5723,81.0,0,179,0.0,50.0
5724,78.0,512,179,0.0,38.0
5725,62.0,0,179,0.0,33.0
5726,50.0,0,179,0.0,21.0
5727,61.0,0,179,0.0,33.0
5728,49.0,0,179,0.0,21.0
5729,80.0,0,179,0.0,35.0
5730,83.0,512,179,0.0,46.0
5731,62.0,512,179,0.0,33.0
5732,50.0,0,179,0.0,21.0
5733,78.0,0,179,0.0,32.0
5734,81.0,0,179,0.0,43.0
5735,78.0,0,179,0.0,46.0
5736,50.0,0,179,0.0,21.0
5737,62.0,0,179,0.0,33.0
5738,74.0,1024,179,0.0,34.0
5739,59.0,0,179,0.0,33.0
5740,80.0,0,179,0.0,50.0
5741,77.0,512,179,0.0,38.0
5742,47.0,0,179,0.0,21.0
5743,50.0,512,179,0.0,21.0
5744,62.0,0,179,0.0,33.0
5745,81.0,0,179,0.0,50.0
5746,78.0,0,179,0.0,38.0
5747,80.0,0,179,0.0,40.0
5748,83.0,512,179,0.0,52.0
5749,61.0,0,179,0.0,33.0
5750,49.0,0,179,0.0,21.0
5751,81.0,0,179,0.0,54.0
5752,78.0,512,179,0.0,42.0
5753,62.0,0,179,0.0,33.0
5754,50.0,0,179,0.0,21.0
5755,66.0,0,179,0.0,39.0
5756,50.0,1024,179,0.0,35.0
5757,78.0,0,179,0.0,51.0
5758,74.0,0,179,0.0,44.0
5759,77.0,0,179,0.0,49.0
5760,80.0,0,179,0.0,53.0
5761,68.0,0,179,0.0,41.0
5762,47.0,512,179,0.0,38.0
5763,65.0,0,179,0.0,37.0
5764,81.0,512,512,0.0,55.0
5765,78.0,0,512,0.0,53.0
5766,66.0,0,512,0.0,44.0
5767,69.0,0,512,0.0,43.0
5768,50.0,0,512,0.0,41.0
5769,71.0,512,512,0.0,32.0
5770,83.0,0,512,0.0,44.0
5771,81.0,0,512,0.0,45.0
5772,69.0,512,512,0.0,33.0
5773,71.0,512,512,0.0,35.0
5774,83.0,0,512,0.0,47.0
5775,69.0,0,512,0.0,36.0
5776,81.0,512,512,0.0,48.0
5777,38.0,0,1536,0.0,35.0
5778,89.0,0,1536,0.0,54.0
5779,77.0,0,1536,0.0,37.0
5780,71.0,512,512,0.0,38.0
5781,83.0,0,512,0.0,50.0
5782,50.0,0,1536,0.0,47.0
5783,81.0,0,512,0.0,51.0
5784,69.0,0,512,0.0,39.0
5785,71.0,512,512,0.0,40.0
5786,83.0,0,512,0.0,52.0
5787,36.0,0,1536,0.0,39.0
5788,88.0,512,1536,0.0,57.0
5789,76.0,0,1536,0.0,43.0
5790,45.0,0,3072,0.0,35.0
5791,81.0,0,512,0.0,54.0
5792,48.0,0,1536,0.0,52.0
5793,81.0,0,0,0.0,48.0
5794,69.0,512,512,0.0,42.0
5795,83.0,0,512,0.0,55.0
5796,71.0,0,512,0.0,43.0
5797,69.0,0,512,0.0,45.0
5798,81.0,512,512,0.0,57.0
5799,71.0,0,512,0.0,46.0
5800,83.0,512,512,0.0,58.0
5801,74.0,0,1536,0.0,48.0
5802,45.0,0,1536,0.0,42.0
5803,35.0,0,1536,0.0,42.0
5804,47.0,512,1536,0.0,57.0
5805,86.0,0,1536,0.0,60.0
5806,84.0,0,179,0.0,64.0
5807,72.0,0,179,0.0,52.0
5808,81.0,0,512,0.0,52.0
5809,33.0,0,512,0.0,52.0
5810,45.0,0,512,0.0,64.0
5811,83.0,512,179,0.0,57.0
5812,71.0,0,179,0.0,48.0
5813,81.0,512,179,0.0,53.0
5814,69.0,0,179,0.0,45.0
5815,84.0,512,179,0.0,46.0
5816,72.0,0,179,0.0,33.0
5817,74.0,0,179,0.0,36.0
5818,86.0,512,179,0.0,50.0
5819,60.0,0,1536,0.0,32.0
5820,81.0,0,1576,0.0,55.0
5821,69.0,512,1576,0.0,41.0
5822,65.0,0,1576,0.0,46.0
5823,77.0,0,1576,0.0,41.0
5824,53.0,0,1576,0.0,32.0
5825,88.0,0,179,0.0,53.0
5826,77.0,512,179,0.0,36.0
5827,89.0,0,179,0.0,50.0
5828,76.0,512,179,0.0,34.0
5829,88.0,0,179,0.0,48.0
5830,67.0,0,1576,0.0,44.0
5831,79.0,0,1576,0.0,56.0
5832,48.0,0,1576,0.0,35.0
5833,60.0,512,1576,0.0,49.0
5834,69.0,512,179,0.0,35.0
5835,81.0,0,179,0.0,49.0
5836,71.0,512,179,0.0,38.0
5837,83.0,0,179,0.0,52.0
5838,57.0,0,1536,0.0,38.0
5839,65.0,512,1576,0.0,47.0
5840,74.0,0,1576,0.0,47.0
5841,77.0,0,1576,0.0,61.0
5842,62.0,0,1576,0.0,52.0
5843,50.0,0,1576,0.0,38.0
5844,84.0,512,179,0.0,55.0
5845,71.0,512,179,0.0,37.0
5846,83.0,0,179,0.0,52.0
5847,72.0,0,1024,0.0,50.0
5848,76.0,0,1024,0.0,63.0
5849,45.0,0,1024,0.0,32.0
5850,57.0,0,1024,0.0,46.0
5851,64.0,0,1024,0.0,50.0
5852,69.0,512,179,0.0,36.0
5853,81.0,0,179,0.0,50.0
5854,88.0,0,179,0.0,50.0
5855,76.0,512,179,0.0,36.0
5856,90.0,0,179,0.0,54.0
5857,78.0,512,179,0.0,40.0
5858,64.0,0,0,0.0,55.0
5859,84.0,0,1576,0.0,65.0
5860,81.0,0,1576,0.0,51.0
5861,72.0,0,1576,0.0,51.0
5862,57.0,0,1576,0.0,38.0
5863,69.0,512,1576,0.0,52.0
5864,91.0,0,179,0.0,57.0
5865,93.0,0,179,0.0,54.0
5866,81.0,512,179,0.0,39.0
5867,91.0,512,179,0.0,51.0
5868,79.0,0,179,0.0,36.0
5869,71.0,512,1576,0.0,57.0
5870,52.0,0,1576,0.0,41.0
5871,83.0,0,1576,0.0,69.0
5872,84.0,0,179,0.0,52.0
5873,72.0,512,179,0.0,37.0
5874,74.0,0,179,0.0,41.0
5875,86.0,512,179,0.0,56.0
5876,60.0,0,0,0.0,50.0
5877,65.0,0,1576,0.0,53.0
5878,53.0,0,1576,0.0,41.0
5879,81.0,0,1576,0.0,65.0
5880,69.0,0,1576,0.0,52.0
5881,77.0,512,1576,0.0,52.0
5882,88.0,0,179,0.0,59.0
5883,74.0,512,179,0.0,40.0
5884,86.0,0,179,0.0,55.0
5885,79.0,0,1024,0.0,60.0
5886,76.0,0,1024,0.0,49.0
5887,67.0,0,1024,0.0,49.0
5888,48.0,512,1024,0.0,38.0
5889,84.0,512,179,0.0,54.0
5890,72.0,0,179,0.0,38.0
5891,91.0,0,179,0.0,55.0
5892,79.0,0,179,0.0,39.0
5893,67.0,512,512,0.0,39.0
5894,81.0,0,179,0.0,43.0
5895,93.0,0,179,0.0,59.0
5896,69.0,512,512,0.0,43.0
5897,76.0,512,1576,0.0,56.0
5898,84.0,0,1576,0.0,56.0
5899,88.0,0,1576,0.0,67.0
5900,60.0,0,1576,0.0,40.0
5901,72.0,0,1576,0.0,54.0
5902,94.0,0,512,0.0,62.0
5903,70.0,0,512,0.0,36.0
5904,84.0,512,512,0.0,42.0
5905,96.0,0,512,0.0,59.0
5906,72.0,0,512,0.0,33.0
5907,67.0,0,1024,0.0,54.0
5908,86.0,512,1024,0.0,68.0
5909,82.0,0,1024,0.0,58.0
5910,74.0,0,1024,0.0,57.0
5911,55.0,0,1024,0.0,40.0
5912,94.0,512,512,0.0,56.0
5913,70.0,0,512,0.0,31.0
5914,82.0,0,512,0.0,40.0
5915,67.0,0,512,0.0,41.0
5916,55.0,0,512,0.0,31.0
5917,79.0,512,512,0.0,57.0
5918,81.0,512,512,0.0,62.0
5919,69.0,0,512,0.0,45.0
5920,57.0,0,512,0.0,36.0
5921,55.0,0,0,0.0,58.0
5922,76.0,0,1576,0.0,63.0
5923,48.0,0,1576,0.0,40.0
5924,60.0,0,1576,0.0,54.0
5925,64.0,512,1576,0.0,51.0
5926,72.0,0,1576,0.0,51.0
5927,82.0,512,512,0.0,65.0
5928,58.0,0,512,0.0,39.0
5929,60.0,0,512,0.0,35.0
5930,43.0,0,1024,0.0,44.0
5931,74.0,0,1024,0.0,61.0
5932,70.0,0,1024,0.0,49.0
5933,62.0,0,1024,0.0,49.0
5934,84.0,0,512,0.0,61.0
5935,72.0,512,512,0.0,44.0
5936,58.0,0,512,0.0,33.0
5937,82.0,512,512,0.0,59.0
5938,70.0,0,512,0.0,42.0
5939,67.0,512,512,0.0,36.0
5940,91.0,0,512,0.0,59.0
5941,79.0,0,512,0.0,46.0
5942,60.0,0,1536,0.0,51.0
5943,81.0,512,512,0.0,47.0
5944,93.0,0,512,0.0,60.0
5945,69.0,0,512,0.0,37.0
5946,72.0,0,1536,0.0,62.0
5947,67.0,0,0,0.0,61.0
5948,84.0,0,1576,0.0,57.0
5949,88.0,0,1576,0.0,69.0
5950,76.0,0,1576,0.0,57.0
5951,94.0,0,552,0.0,62.0
5952,70.0,512,552,0.0,39.0
5953,72.0,0,472,0.0,40.0
5954,96.0,0,472,0.0,63.0
5955,84.0,552,472,0.0,50.0
5956,58.0,0,1536,0.0,51.0
5957,55.0,0,1536,0.0,51.0
5958,94.0,0,472,0.0,64.0
5959,82.0,0,472,0.0,51.0
5960,70.0,512,472,0.0,41.0
5961,82.0,0,40,0.0,60.0
5962,74.0,0,1576,0.0,58.0
5963,86.0,0,1576,0.0,71.0
5964,96.0,0,552,0.0,65.0
5965,84.0,472,552,0.0,52.0
5966,72.0,0,552,0.0,43.0
5967,70.0,0,472,0.0,44.0
5968,94.0,0,472,0.0,66.0
5969,82.0,552,472,0.0,53.0
5970,53.0,0,1536,0.0,50.0
5971,72.0,512,472,0.0,45.0
5972,96.0,0,472,0.0,68.0
5973,79.0,0,1536,0.0,60.0
5974,58.0,0,1536,0.0,50.0
5975,65.0,0,1536,0.0,61.0
5976,84.0,0,0,0.0,75.0
5977,73.0,0,1576,0.0,60.0
5978,82.0,0,40,0.0,61.0
5979,85.0,0,1576,0.0,73.0
5980,94.0,472,552,0.0,69.0
5981,70.0,0,552,0.0,46.0
5982,64.0,0,1024,0.0,59.0
5983,58.0,0,1024,0.0,49.0
5984,72.0,0,472,0.0,47.0
5985,79.0,0,1024,0.0,61.0
5986,84.0,552,472,0.0,57.0
5987,96.0,0,472,0.0,70.0
5988,52.0,0,1024,0.0,49.0
5989,70.0,0,0,0.0,63.0
5990,94.0,0,472,0.0,73.0
5991,82.0,0,472,0.0,60.0
5992,96.0,0,552,0.0,74.0
5993,72.0,0,552,0.0,51.0
5994,84.0,0,552,0.0,61.0
5995,67.0,0,1024,0.0,63.0
5996,82.0,0,472,0.0,63.0
5997,70.0,552,472,0.0,53.0
5998,94.0,0,472,0.0,76.0
5999,61.0,0,1064,0.0,63.0
6000,73.0,0,1064,0.0,76.0
6001,53.0,472,1536,0.0,64.0
6002,46.0,0,0,0.0,53.0
6003,84.0,0,472,0.0,64.0
6004,96.0,0,472,0.0,77.0
6005,72.0,0,0,0.0,78.0
6006,41.0,0,1536,0.0,51.0
6007,94.0,0,552,0.0,79.0
6008,82.0,0,552,0.0,66.0
6009,67.0,0,1024,0.0,64.0
6010,70.0,472,1024,0.0,64.0
6011,72.0,552,472,0.0,57.0
6012,60.0,0,1024,0.0,64.0
6013,84.0,0,472,0.0,67.0
6014,96.0,0,472,0.0,80.0
6015,70.0,512,472,0.0,58.0
6016,94.0,0,472,0.0,81.0
6017,82.0,0,472,0.0,68.0
6018,52.0,0,1536,0.0,65.0
6019,40.0,0,1536,0.0,53.0
6020,72.0,472,552,0.0,59.0
6021,84.0,0,552,0.0,70.0
6022,96.0,0,552,0.0,83.0
6023,82.0,0,472,0.0,71.0
6024,94.0,0,472,0.0,84.0
6025,70.0,552,472,0.0,60.0
6026,25.0,0,1536,0.0,55.0
6027,96.0,512,472,0.0,86.0
6028,84.0,0,472,0.0,72.0
6029,65.0,0,1536,0.0,76.0
6030,55.0,0,1536,0.0,64.0
6031,53.0,0,1536,0.0,64.0
6032,72.0,0,472,0.0,62.0
6033,58.0,472,0,0.0,64.0
6034,37.0,0,1536,0.0,67.0
6035,94.0,0,179,0.0,85.0
6036,70.0,0,179,0.0,69.0
6037,82.0,0,179,0.0,69.0
6038,52.0,0,512,0.0,64.0
6039,64.0,0,512,0.0,64.0
6040,80.0,0,179,0.0,68.0
6041,68.0,512,179,0.0,68.0
6042,92.0,0,179,0.0,84.0
6043,79.0,512,179,0.0,68.0
6044,91.0,0,179,0.0,82.0
6045,67.0,0,179,0.0,68.0
6046,36.0,0,1536,0.0,64.0
6047,24.0,0,1536,0.0,64.0
6048,65.0,0,179,0.0,67.0
6049,77.0,512,179,0.0,67.0
6050,89.0,0,179,0.0,81.0
6051,76.0,0,179,0.0,66.0
6052,88.0,0,179,0.0,80.0
6053,64.0,512,179,0.0,66.0
6054,61.0,0,179,0.0,65.0
6055,85.0,0,179,0.0,79.0
6056,73.0,512,179,0.0,65.0
6057,72.0,512,179,0.0,64.0
6058,84.0,0,179,0.0,78.0
6059,60.0,0,179,0.0,64.0
6060,58.0,0,179,0.0,64.0
6061,82.0,512,179,0.0,77.0
6062,70.0,0,179,0.0,64.0
6063,68.0,0,179,0.0,63.0
6064,80.0,512,179,0.0,77.0
6065,56.0,0,179,0.0,63.0
6066,55.0,0,179,0.0,62.0
6067,79.0,0,179,0.0,75.0
6068,67.0,512,179,0.0,62.0
6069,65.0,512,179,0.0,61.0
6070,77.0,0,179,0.0,75.0
6071,53.0,0,179,0.0,61.0
6072,64.0,0,179,0.0,60.0
6073,76.0,0,179,0.0,73.0
6074,52.0,512,179,0.0,60.0
6075,61.0,512,179,0.0,60.0
6076,73.0,0,179,0.0,73.0
6077,49.0,0,179,0.0,60.0
6078,60.0,512,179,0.0,59.0
6079,72.0,0,179,0.0,71.0
6080,48.0,0,179,0.0,59.0
6081,58.0,512,179,0.0,58.0
6082,70.0,0,179,0.0,71.0
6083,46.0,0,179,0.0,58.0
6084,56.0,512,179,0.0,56.0
6085,68.0,0,179,0.0,69.0
6086,44.0,0,179,0.0,56.0
6087,55.0,0,179,0.0,56.0
6088,67.0,512,179,0.0,69.0
6089,43.0,0,179,0.0,56.0
6090,53.0,512,179,0.0,56.0
6091,65.0,0,179,0.0,68.0
6092,41.0,0,179,0.0,56.0
6093,64.0,0,179,0.0,66.0
6094,52.0,512,179,0.0,55.0
6095,40.0,0,179,0.0,55.0
6096,49.0,0,179,0.0,54.0
6097,61.0,512,179,0.0,66.0
6098,37.0,0,179,0.0,54.0
6099,36.0,0,179,0.0,53.0
6100,60.0,0,179,0.0,65.0
6101,48.0,512,179,0.0,53.0
6102,58.0,512,179,0.0,65.0
6103,34.0,0,179,0.0,53.0
6104,32.0,0,179,0.0,51.0
6105,56.0,0,179,0.0,63.0
6106,65.0,0,179,0.0,73.0
6107,53.0,512,179,0.0,73.0
6108,55.0,0,179,0.0,62.0
6109,31.0,512,179,0.0,50.0
6110,64.0,0,179,0.0,64.0
6111,67.0,0,179,0.0,76.0
6112,52.0,0,179,0.0,64.0
6113,65.0,0,179,0.0,67.0
6114,41.0,0,179,0.0,73.0
6115,29.0,0,179,0.0,64.0
6116,53.0,0,179,0.0,67.0
6117,68.0,0,179,0.0,79.0
6118,56.0,0,179,0.0,79.0
6119,36.0,0,179,0.0,73.0
6120,55.0,0,179,0.0,76.0
6121,52.0,512,179,0.0,64.0
6122,67.0,0,179,0.0,76.0
6123,64.0,0,179,0.0,64.0
6124,48.0,0,179,0.0,71.0
6125,29.0,0,179,0.0,64.0
6126,41.0,0,179,0.0,73.0
6127,65.0,512,179,0.0,73.0
6128,53.0,0,179,0.0,73.0
6129,48.0,512,179,0.0,73.0
6130,36.0,0,179,0.0,73.0
6131,56.0,512,179,0.0,73.0
6132,53.0,0,179,0.0,61.0
6133,68.0,0,179,0.0,73.0
6134,65.0,0,179,0.0,61.0
6135,41.0,0,179,0.0,73.0
6136,29.0,0,179,0.0,64.0
6137,36.0,0,179,0.0,73.0
6138,48.0,0,179,0.0,69.0
6139,67.0,0,179,0.0,64.0
6140,70.0,512,179,0.0,76.0
6141,55.0,0,179,0.0,64.0
6142,58.0,0,179,0.0,76.0
6143,56.0,0,179,0.0,67.0
6144,72.0,0,179,0.0,79.0
6145,60.0,512,179,0.0,79.0
6146,53.0,0,179,0.0,73.0
6147,68.0,0,179,0.0,67.0
6148,29.0,0,179,0.0,64.0
6149,41.0,0,179,0.0,64.0
6150,73.0,0,179,0.0,76.0
6151,61.0,0,179,0.0,76.0
6152,48.0,0,179,0.0,71.0
6153,36.0,0,179,0.0,73.0
6154,70.0,512,179,0.0,64.0
6155,58.0,0,179,0.0,64.0
6156,56.0,0,179,0.0,61.0
6157,68.0,0,179,0.0,61.0
6158,60.0,0,179,0.0,73.0
6159,72.0,0,179,0.0,73.0
6160,53.0,512,179,0.0,69.0
6161,29.0,0,179,0.0,64.0
6162,41.0,0,179,0.0,64.0
6163,36.0,512,179,0.0,73.0
6164,48.0,0,179,0.0,73.0
6165,29.0,0,179,0.0,64.0
6166,41.0,0,179,0.0,64.0
6167,53.0,0,179,0.0,73.0
6168,65.0,0,179,0.0,73.0
6169,48.0,512,179,0.0,69.0
6170,36.0,0,179,0.0,73.0
6171,55.0,0,179,0.0,76.0
6172,64.0,0,179,0.0,64.0
6173,67.0,0,179,0.0,76.0
6174,52.0,0,179,0.0,64.0
6175,65.0,0,179,0.0,67.0
6176,68.0,0,179,0.0,79.0
6177,53.0,0,179,0.0,73.0
6178,56.0,0,179,0.0,79.0
6179,29.0,512,179,0.0,64.0
6180,41.0,0,179,0.0,64.0
6181,52.0,0,179,0.0,64.0
6182,55.0,0,179,0.0,76.0
6183,48.0,0,179,0.0,71.0
6184,36.0,0,179,0.0,73.0
6185,64.0,0,179,0.0,64.0
6186,67.0,512,179,0.0,76.0
6187,41.0,0,179,0.0,64.0
6188,29.0,0,179,0.0,64.0
6189,53.0,0,179,0.0,69.0
6190,65.0,0,179,0.0,73.0
6191,36.0,512,179,0.0,73.0
6192,48.0,0,179,0.0,73.0
6193,53.0,0,179,0.0,71.0
6194,56.0,0,179,0.0,73.0
6195,68.0,0,179,0.0,73.0
6196,65.0,0,179,0.0,61.0
6197,29.0,0,179,0.0,64.0
6198,41.0,0,179,0.0,64.0
6199,27.0,0,179,0.0,64.0
6200,51.0,0,179,0.0,69.0
6201,39.0,0,179,0.0,73.0
6202,67.0,0,179,0.0,64.0
6203,70.0,0,179,0.0,76.0
6204,55.0,512,179,0.0,64.0
6205,58.0,0,179,0.0,76.0
6206,44.0,0,179,0.0,64.0
6207,68.0,0,179,0.0,67.0
6208,32.0,0,179,0.0,64.0
6209,56.0,0,179,0.0,73.0
6210,60.0,0,179,0.0,79.0
6211,72.0,512,179,0.0,79.0
6212,51.0,0,179,0.0,71.0
6213,39.0,0,179,0.0,73.0
6214,73.0,0,179,0.0,76.0
6215,58.0,0,179,0.0,64.0
6216,61.0,0,179,0.0,76.0
6217,70.0,512,179,0.0,64.0
6218,68.0,0,179,0.0,61.0
6219,72.0,0,179,0.0,73.0
6220,56.0,0,179,0.0,69.0
6221,60.0,0,179,0.0,73.0
6222,44.0,0,179,0.0,64.0
6223,32.0,0,179,0.0,64.0
6224,51.0,0,179,0.0,73.0
6225,39.0,512,179,0.0,73.0
6226,68.0,0,179,0.0,61.0
6227,56.0,0,179,0.0,61.0
6228,44.0,0,179,0.0,64.0
6229,60.0,0,179,0.0,73.0
6230,72.0,0,179,0.0,73.0
6231,71.0,0,179,0.0,64.0
6232,41.0,0,179,0.0,73.0
6233,53.0,0,179,0.0,69.0
6234,62.0,0,179,0.0,76.0
6235,59.0,512,179,0.0,64.0
6236,74.0,0,179,0.0,76.0
6237,63.0,0,179,0.0,79.0
6238,60.0,0,179,0.0,67.0
6239,72.0,0,179,0.0,67.0
6240,75.0,512,179,0.0,79.0
6241,44.0,0,179,0.0,64.0
6242,56.0,0,179,0.0,73.0
6243,74.0,512,179,0.0,64.0
6244,77.0,0,179,0.0,76.0
6245,62.0,0,179,0.0,64.0
6246,65.0,0,179,0.0,76.0
6247,43.0,0,179,0.0,73.0
6248,55.0,0,179,0.0,71.0
6249,75.0,0,179,0.0,73.0
6250,63.0,512,179,0.0,73.0
6251,44.0,0,179,0.0,64.0
6252,56.0,0,179,0.0,69.0
6253,72.0,0,179,0.0,61.0
6254,60.0,0,179,0.0,61.0
6255,51.0,0,179,0.0,73.0
6256,39.0,512,179,0.0,73.0
6257,68.0,0,179,0.0,61.0
6258,72.0,0,179,0.0,73.0
6259,44.0,0,179,0.0,64.0
6260,56.0,0,179,0.0,71.0
6261,60.0,0,179,0.0,73.0
6262,74.0,0,179,0.0,76.0
6263,71.0,0,179,0.0,64.0
6264,53.0,0,179,0.0,69.0
6265,41.0,0,179,0.0,73.0
6266,59.0,0,179,0.0,64.0
6267,62.0,512,179,0.0,76.0
6268,44.0,0,179,0.0,64.0
6269,56.0,512,179,0.0,73.0
6270,72.0,0,179,0.0,67.0
6271,75.0,0,179,0.0,79.0
6272,60.0,0,179,0.0,67.0
6273,63.0,0,179,0.0,79.0
6274,55.0,0,179,0.0,71.0
6275,74.0,0,179,0.0,64.0
6276,77.0,512,179,0.0,76.0
6277,62.0,0,179,0.0,64.0
6278,65.0,0,179,0.0,76.0
6279,43.0,0,179,0.0,73.0
6280,75.0,0,179,0.0,73.0
6281,72.0,512,179,0.0,61.0
6282,63.0,0,179,0.0,73.0
6283,60.0,0,179,0.0,61.0
6284,44.0,0,179,0.0,64.0
6285,56.0,0,179,0.0,69.0
6286,41.0,512,179,0.0,73.0
6287,41.0,512,179,0.0,64.0
6288,61.0,0,179,0.0,73.0
6289,56.0,0,179,0.0,61.0
6290,73.0,0,179,0.0,73.0
6291,68.0,0,179,0.0,61.0
6292,53.0,0,179,0.0,71.0
6293,56.0,0,179,0.0,69.0
6294,75.0,0,179,0.0,76.0
6295,44.0,0,179,0.0,73.0
6296,60.0,512,179,0.0,64.0
6297,63.0,0,179,0.0,76.0
6298,72.0,0,179,0.0,64.0
6299,73.0,0,179,0.0,54.0
6300,61.0,512,179,0.0,54.0
6301,65.0,0,179,0.0,65.0
6302,77.0,0,179,0.0,65.0
6303,49.0,0,179,0.0,64.0
6304,37.0,0,179,0.0,55.0
6305,63.0,0,179,0.0,56.0
6306,78.0,0,179,0.0,66.0
6307,75.0,0,179,0.0,56.0
6308,66.0,0,179,0.0,66.0
6309,44.0,0,179,0.0,64.0
6310,56.0,512,179,0.0,62.0
6311,77.0,0,179,0.0,66.0
6312,37.0,512,179,0.0,55.0
6313,65.0,0,179,0.0,66.0
6314,61.0,0,179,0.0,56.0
6315,49.0,0,179,0.0,60.0
6316,73.0,0,179,0.0,56.0
6317,76.0,512,179,0.0,57.0
6318,67.0,0,179,0.0,68.0
6319,64.0,0,179,0.0,57.0
6320,79.0,0,179,0.0,68.0
6321,48.0,0,179,0.0,64.0
6322,36.0,0,179,0.0,64.0
6323,80.0,0,179,0.0,69.0
6324,68.0,0,179,0.0,69.0
6325,77.0,0,179,0.0,58.0
6326,65.0,0,179,0.0,58.0
6327,60.0,512,179,0.0,62.0
6328,48.0,0,179,0.0,55.0
6329,48.0,0,179,0.0,60.0
6330,67.0,0,179,0.0,70.0
6331,76.0,0,179,0.0,60.0
6332,79.0,512,179,0.0,70.0
6333,64.0,0,179,0.0,60.0
6334,36.0,0,179,0.0,64.0
6335,41.0,0,179,0.0,55.0
6336,53.0,0,179,0.0,64.0
6337,80.0,512,227,0.0,70.0
6338,68.0,0,227,0.0,70.0
6339,65.0,0,227,0.0,60.0
6340,77.0,0,227,0.0,60.0
6341,60.0,0,179,0.0,62.0
6342,48.0,0,179,0.0,64.0
6343,70.0,512,242,0.0,72.0
6344,67.0,0,242,0.0,61.0
6345,82.0,0,242,0.0,72.0
6346,79.0,0,242,0.0,61.0
6347,53.0,512,179,0.0,60.0
6348,41.0,0,179,0.0,55.0
6349,68.0,0,257,0.0,73.0
6350,80.0,0,257,0.0,73.0
6351,65.0,0,257,0.0,62.0
6352,77.0,0,257,0.0,62.0
6353,51.0,0,179,0.0,64.0
6354,39.0,0,179,0.0,64.0
6355,79.0,512,272,0.0,64.0
6356,82.0,0,272,0.0,75.0
6357,67.0,0,272,0.0,64.0
6358,70.0,0,272,0.0,75.0
6359,63.0,0,179,0.0,62.0
6360,51.0,512,179,0.0,55.0
6361,84.0,0,287,0.0,76.0
6362,68.0,0,287,0.0,65.0
6363,72.0,0,287,0.0,76.0
6364,80.0,0,287,0.0,65.0
6365,39.0,0,179,0.0,64.0
6366,51.0,512,179,0.0,60.0
6367,82.0,0,302,0.0,76.0
6368,70.0,0,302,0.0,76.0
6369,67.0,0,302,0.0,66.0
6370,79.0,0,302,0.0,66.0
6371,44.0,0,179,0.0,55.0
6372,56.0,0,179,0.0,64.0
6373,80.0,0,317,0.0,67.0
6374,72.0,512,317,0.0,78.0
6375,68.0,0,317,0.0,67.0
6376,84.0,0,317,0.0,78.0
6377,51.0,0,179,0.0,64.0
6378,63.0,0,179,0.0,62.0
6379,73.0,512,332,0.0,78.0
6380,70.0,0,332,0.0,67.0
6381,85.0,0,332,0.0,78.0
6382,82.0,0,332,0.0,67.0
6383,56.0,0,179,0.0,60.0
6384,44.0,0,179,0.0,55.0
6385,80.0,0,347,0.0,69.0
6386,84.0,512,347,0.0,80.0
6387,72.0,0,347,0.0,80.0
6388,68.0,0,347,0.0,69.0
6389,55.0,0,179,0.0,64.0
6390,43.0,0,179,0.0,64.0
6391,71.0,0,362,0.0,70.0
6392,86.0,512,362,0.0,81.0
6393,83.0,0,362,0.0,70.0
6394,74.0,0,362,0.0,81.0
6395,55.0,0,179,0.0,67.0
6396,48.0,0,179,0.0,55.0
6397,67.0,0,179,0.0,62.0
6398,76.0,0,377,0.0,83.0
6399,72.0,0,377,0.0,71.0
6400,88.0,0,377,0.0,83.0
6401,84.0,512,377,0.0,71.0
6402,55.0,0,179,0.0,60.0
6403,43.0,0,179,0.0,64.0
6404,83.0,0,392,0.0,71.0
6405,86.0,512,392,0.0,83.0
6406,71.0,0,392,0.0,71.0
6407,74.0,0,392,0.0,83.0
6408,55.0,0,179,0.0,67.0
6409,48.0,0,179,0.0,55.0
6410,60.0,0,179,0.0,64.0
6411,67.0,0,179,0.0,64.0
6412,76.0,512,392,0.0,64.0
6413,72.0,0,392,0.0,64.0
6414,88.0,0,392,0.0,82.0
6415,84.0,0,392,0.0,70.0
6416,43.0,0,179,0.0,64.0
6417,55.0,0,179,0.0,62.0
6418,71.0,0,392,0.0,64.0
6419,74.0,512,392,0.0,64.0
6420,83.0,0,392,0.0,70.0
6421,86.0,0,392,0.0,82.0
6422,55.0,0,179,0.0,67.0
6423,60.0,0,179,0.0,60.0
6424,67.0,0,179,0.0,60.0
6425,48.0,0,179,0.0,55.0
6426,76.0,0,392,0.0,64.0
6427,72.0,0,392,0.0,64.0
6428,88.0,512,392,0.0,83.0
6429,84.0,0,392,0.0,71.0
6430,55.0,0,179,0.0,64.0
6431,43.0,0,179,0.0,64.0
6432,74.0,0,392,0.0,64.0
6433,86.0,0,392,0.0,83.0
6434,83.0,512,392,0.0,71.0
6435,71.0,0,392,0.0,64.0
6436,67.0,0,179,0.0,62.0
6437,60.0,0,179,0.0,62.0
6438,55.0,0,179,0.0,67.0
6439,48.0,0,179,0.0,55.0
6440,84.0,0,392,0.0,72.0
6441,88.0,512,392,0.0,84.0
6442,72.0,0,392,0.0,64.0
6443,76.0,0,392,0.0,64.0
6444,55.0,0,179,0.0,60.0
6445,43.0,512,179,0.0,64.0
6446,71.0,0,392,0.0,64.0
6447,86.0,0,392,0.0,84.0
6448,74.0,0,392,0.0,64.0
6449,83.0,0,392,0.0,72.0
6450,55.0,0,179,0.0,67.0
6451,48.0,0,179,0.0,55.0
6452,67.0,0,179,0.0,64.0
6453,60.0,0,179,0.0,64.0
6454,76.0,512,392,0.0,64.0
6455,72.0,0,392,0.0,64.0
6456,88.0,0,392,0.0,84.0
6457,84.0,0,392,0.0,72.0
6458,43.0,0,179,0.0,64.0
6459,55.0,512,179,0.0,62.0
6460,83.0,0,392,0.0,73.0
6461,71.0,0,392,0.0,64.0
6462,74.0,0,392,0.0,64.0
6463,86.0,0,392,0.0,85.0
6464,60.0,0,179,0.0,60.0
6465,67.0,0,179,0.0,60.0
6466,48.0,0,179,0.0,55.0
6467,55.0,0,179,0.0,67.0
6468,84.0,512,392,0.0,73.0
6469,88.0,0,392,0.0,85.0
6470,76.0,0,392,0.0,64.0
6471,72.0,0,392,0.0,64.0
6472,36.0,512,179,0.0,64.0
6473,84.0,0,392,0.0,74.0
6474,88.0,0,392,0.0,86.0
6475,76.0,0,392,0.0,64.0
6476,43.0,512,179,0.0,55.0
6477,48.0,0,179,0.0,67.0
6478,77.0,0,392,0.0,64.0
6479,89.0,0,392,0.0,86.0
6480,74.0,0,392,0.0,64.0
6481,86.0,0,392,0.0,74.0
6482,36.0,0,179,0.0,64.0
6483,76.0,0,392,0.0,64.0
6484,88.0,0,392,0.0,87.0
6485,84.0,0,392,0.0,75.0
6486,72.0,512,392,0.0,64.0
6487,60.0,0,1536,0.0,76.0
6488,48.0,0,179,0.0,67.0
6489,43.0,0,179,0.0,55.0
6490,77.0,0,392,0.0,64.0
6491,74.0,0,392,0.0,64.0
6492,89.0,0,392,0.0,87.0
6493,86.0,0,392,0.0,75.0
6494,36.0,0,179,0.0,64.0
6495,76.0,0,392,0.0,64.0
6496,84.0,512,392,0.0,75.0
6497,88.0,0,392,0.0,87.0
6498,48.0,0,179,0.0,67.0
6499,43.0,0,179,0.0,55.0
6500,77.0,0,392,0.0,64.0
6501,89.0,0,392,0.0,88.0
6502,86.0,512,392,0.0,76.0
6503,74.0,0,392,0.0,64.0
6504,60.0,0,1536,0.0,73.0
6505,59.0,512,1576,0.0,73.0
6506,71.0,0,1576,0.0,85.0
6507,36.0,0,179,0.0,64.0
6508,84.0,0,392,0.0,76.0
6509,88.0,0,392,0.0,88.0
6510,72.0,0,392,0.0,64.0
6511,76.0,0,392,0.0,64.0
6512,48.0,0,179,0.0,67.0
6513,43.0,0,179,0.0,55.0
6514,86.0,512,392,0.0,77.0
6515,89.0,0,392,0.0,89.0
6516,74.0,0,392,0.0,64.0
6517,77.0,0,392,0.0,64.0
6518,36.0,0,179,0.0,64.0
6519,84.0,0,392,0.0,77.0
6520,72.0,0,392,0.0,64.0
6521,76.0,512,392,0.0,64.0
6522,88.0,0,392,0.0,89.0
6523,60.0,512,0,0.0,73.0
6524,70.0,0,1576,0.0,85.0
6525,58.0,0,1576,0.0,73.0
6526,89.0,0,179,0.0,87.0
6527,77.0,0,179,0.0,80.0
6528,44.0,0,512,0.0,67.0
6529,32.0,0,512,0.0,55.0
6530,88.0,512,179,0.0,86.0
6531,76.0,0,179,0.0,79.0
6532,41.0,0,512,0.0,64.0
6533,75.0,512,179,0.0,78.0
6534,87.0,0,179,0.0,85.0
6535,44.0,0,512,0.0,67.0
6536,56.0,0,1536,0.0,73.0
6537,68.0,0,1536,0.0,85.0
6538,32.0,0,512,0.0,55.0
6539,85.0,0,179,0.0,84.0
6540,73.0,512,179,0.0,77.0
6541,53.0,0,512,0.0,64.0
6542,72.0,0,179,0.0,76.0
6543,84.0,0,179,0.0,83.0
6544,49.0,512,512,0.0,64.0
6545,82.0,0,179,0.0,82.0
6546,70.0,512,179,0.0,75.0
6547,34.0,0,1536,0.0,64.0
6548,61.0,0,1536,0.0,76.0
6549,53.0,0,512,0.0,64.0
6550,46.0,0,1536,0.0,76.0
6551,80.0,0,179,0.0,81.0
6552,68.0,512,179,0.0,74.0
6553,36.0,0,512,0.0,55.0
6554,48.0,0,512,0.0,67.0
6555,67.0,0,179,0.0,73.0
6556,79.0,0,179,0.0,80.0
6557,44.0,512,512,0.0,64.0
6558,66.0,512,179,0.0,72.0
6559,78.0,0,179,0.0,79.0
6560,56.0,0,1536,0.0,64.0
6561,63.0,0,1536,0.0,76.0
6562,36.0,0,512,0.0,55.0
6563,48.0,0,512,0.0,67.0
6564,77.0,512,179,0.0,78.0
6565,65.0,0,179,0.0,76.0
6566,56.0,0,512,0.0,64.0
6567,75.0,512,179,0.0,77.0
6568,53.0,0,512,0.0,64.0
6569,73.0,0,179,0.0,76.0
6570,56.0,512,512,0.0,64.0
6571,37.0,0,1536,0.0,64.0
6572,49.0,0,1536,0.0,76.0
6573,52.0,512,179,0.0,73.0
6574,40.0,0,179,0.0,62.0
6575,72.0,0,179,0.0,75.0
6576,71.0,512,179,0.0,73.0
6577,48.0,0,179,0.0,75.0
6578,40.0,0,179,0.0,67.0
6579,52.0,512,179,0.0,79.0
6580,70.0,0,179,0.0,71.0
6581,60.0,0,1536,0.0,64.0
6582,67.0,0,1536,0.0,76.0
6583,56.0,0,179,0.0,64.0
6584,68.0,0,179,0.0,68.0
6585,55.0,512,179,0.0,64.0
6586,67.0,0,179,0.0,66.0
6587,65.0,512,179,0.0,64.0
6588,53.0,0,179,0.0,64.0
6589,53.0,0,0,0.0,67.0
6590,41.0,0,1536,0.0,69.0
6591,60.0,512,1536,0.0,76.0
6592,46.0,0,179,0.0,81.0
6593,34.0,0,179,0.0,69.0
6594,61.0,0,512,0.0,77.0
6595,73.0,512,512,0.0,77.0
6596,65.0,0,538,0.0,67.0
6597,36.0,0,179,0.0,69.0
6598,60.0,0,179,0.0,75.0
6599,48.0,0,179,0.0,81.0
6600,72.0,512,179,0.0,75.0
6601,70.0,512,179,0.0,74.0
6602,58.0,0,179,0.0,74.0
6603,49.0,0,179,0.0,81.0
6604,37.0,0,179,0.0,69.0
6605,67.0,0,1536,0.0,64.0
6606,56.0,0,512,0.0,72.0
6607,53.0,0,512,0.0,63.0
6608,68.0,0,512,0.0,72.0
6609,65.0,512,512,0.0,63.0
6610,58.0,512,179,0.0,71.0
6611,55.0,0,179,0.0,62.0
6612,70.0,0,179,0.0,71.0
6613,67.0,0,179,0.0,62.0
6614,36.0,0,1024,0.0,69.0
6615,48.0,0,1024,0.0,81.0
6616,55.0,512,179,0.0,69.0
6617,36.0,0,179,0.0,82.0
6618,67.0,0,179,0.0,69.0
6619,52.0,0,179,0.0,61.0
6620,64.0,0,179,0.0,61.0
6621,41.0,512,179,0.0,90.0
6622,69.0,0,179,0.0,73.0
6623,53.0,0,179,0.0,79.0
6624,65.0,0,179,0.0,71.0
6625,52.0,512,179,0.0,78.0
6626,69.0,512,179,0.0,69.0
6627,51.0,0,179,0.0,77.0
6628,65.0,512,0,0.0,73.0
6629,60.0,0,1536,0.0,73.0
6630,49.0,0,179,0.0,75.0
6631,65.0,0,179,0.0,73.0
6632,61.0,0,179,0.0,71.0
6633,48.0,512,179,0.0,74.0
6634,65.0,512,0,0.0,69.0
6635,46.0,0,179,0.0,73.0
6636,61.0,0,179,0.0,73.0
6637,70.0,0,1536,0.0,73.0
6638,44.0,512,179,0.0,64.0
6639,72.0,0,179,0.0,73.0
6640,56.0,0,179,0.0,79.0
6641,55.0,0,179,0.0,78.0
6642,68.0,512,179,0.0,71.0
6643,43.0,0,179,0.0,66.0
6644,54.0,0,179,0.0,77.0
6645,72.0,0,179,0.0,69.0
6646,42.0,512,179,0.0,67.0
6647,68.0,0,0,0.0,73.0
6648,63.0,0,1536,0.0,73.0
6649,53.0,512,179,0.0,75.0
6650,68.0,0,179,0.0,73.0
6651,41.0,0,179,0.0,69.0
6652,39.0,0,179,0.0,71.0
6653,65.0,512,179,0.0,71.0
6654,51.0,0,179,0.0,74.0
6655,37.0,512,179,0.0,72.0
6656,65.0,0,179,0.0,73.0
6657,49.0,0,179,0.0,73.0
6658,56.0,0,179,0.0,69.0
6659,73.0,0,1536,0.0,73.0
6660,76.0,0,392,0.0,73.0
6661,60.0,0,392,0.0,79.0
6662,48.0,0,392,0.0,74.0
6663,36.0,0,392,0.0,65.0
6664,47.0,512,392,0.0,70.0
6665,59.0,0,392,0.0,78.0
6666,72.0,0,392,0.0,74.0
6667,46.0,512,392,0.0,71.0
6668,76.0,0,392,0.0,76.0
6669,67.0,512,1416,0.0,61.0
6670,58.0,0,392,0.0,77.0
6671,56.0,0,392,0.0,75.0
6672,60.0,512,392,0.0,73.0
6673,44.0,0,392,0.0,72.0
6674,77.0,0,392,0.0,77.0
6675,72.0,0,392,0.0,65.0
6676,65.0,0,392,0.0,65.0
6677,55.0,0,392,0.0,74.0
6678,43.0,512,392,0.0,73.0
6679,68.0,0,392,0.0,71.0
6680,67.0,0,392,0.0,66.0
6681,79.0,0,392,0.0,78.0
6682,80.0,0,392,0.0,80.0
6683,68.0,512,392,0.0,68.0
6684,41.0,0,392,0.0,74.0
6685,72.0,0,392,0.0,69.0
6686,60.0,0,392,0.0,60.0
6687,53.0,0,392,0.0,73.0
6688,49.0,0,392,0.0,75.0
6689,37.0,0,392,0.0,66.0
6690,70.0,0,392,0.0,69.0
6691,82.0,512,392,0.0,81.0
6692,61.0,0,392,0.0,73.0
6693,36.0,0,392,0.0,66.0
6694,48.0,512,392,0.0,75.0
6695,72.0,0,392,0.0,70.0
6696,84.0,0,392,0.0,82.0
6697,60.0,0,392,0.0,76.0
6698,85.0,0,392,0.0,84.0
6699,34.0,0,392,0.0,67.0
6700,58.0,0,392,0.0,78.0
6701,46.0,0,392,0.0,76.0
6702,73.0,512,392,0.0,72.0
6703,77.0,0,1536,0.0,73.0
6704,67.0,0,1536,0.0,73.0
6705,65.0,512,0,0.0,64.0
6706,72.0,0,392,0.0,73.0
6707,32.0,0,392,0.0,68.0
6708,84.0,0,392,0.0,85.0
6709,56.0,0,392,0.0,81.0
6710,44.0,0,392,0.0,77.0
6711,34.0,0,392,0.0,69.0
6712,46.0,512,392,0.0,78.0
6713,74.0,0,392,0.0,74.0
6714,86.0,0,392,0.0,86.0
6715,58.0,0,392,0.0,84.0
6716,77.0,0,1024,0.0,77.0
6717,76.0,0,392,0.0,76.0
6718,82.0,0,392,0.0,76.0
6719,88.0,0,392,0.0,88.0
6720,55.0,0,392,0.0,86.0
6721,43.0,512,392,0.0,79.0
6722,31.0,0,392,0.0,70.0
6723,70.0,0,512,0.0,79.0
6724,67.0,0,512,0.0,66.0
6725,53.0,0,512,0.0,89.0
6726,77.0,0,512,0.0,77.0
6727,41.0,0,512,0.0,80.0
6728,89.0,0,512,0.0,89.0
6729,80.0,0,512,0.0,77.0
6730,29.0,0,512,0.0,71.0
6731,72.0,512,512,0.0,80.0
6732,68.0,0,512,0.0,67.0
6733,53.0,0,1024,0.0,73.0
6734,48.0,0,1024,0.0,73.0
6735,44.0,0,1024,0.0,73.0
6736,84.0,0,1024,0.0,73.0
6737,80.0,0,1024,0.0,73.0
6738,77.0,0,1024,0.0,73.0
6739,89.0,1536,1024,0.0,87.0
6740,41.0,0,1024,0.0,85.0
6741,29.0,0,1024,0.0,73.0
6742,72.0,0,1024,0.0,73.0
6743,68.0,0,1024,0.0,73.0
6744,65.0,0,1024,0.0,61.0
6745,68.0,0,1024,0.0,76.0
6746,77.0,3072,1024,0.0,76.0
6747,80.0,0,1024,0.0,76.0
6748,84.0,0,1024,0.0,76.0
6749,89.0,0,1024,0.0,87.0
6750,44.0,0,1024,0.0,76.0
6751,53.0,0,1024,0.0,76.0
6752,48.0,0,1024,0.0,76.0
6753,41.0,0,1024,0.0,83.0
6754,29.0,0,1024,0.0,71.0
6755,72.0,0,1024,0.0,76.0
6756,65.0,0,1024,0.0,76.0
6757,41.0,3072,1536,0.0,81.0
6758,29.0,0,1536,0.0,69.0
6759,60.0,0,1536,0.0,69.0
6760,56.0,0,1536,0.0,69.0
6761,68.0,0,1536,0.0,69.0
6762,72.0,0,1536,0.0,83.0
6763,89.0,0,2048,0.0,87.0
6764,59.0,1536,512,0.0,69.0
6765,55.0,0,512,0.0,69.0
6766,71.0,0,512,0.0,83.0
6767,31.0,0,512,0.0,69.0
6768,43.0,0,512,0.0,81.0
6769,65.0,0,2048,0.0,81.0
6770,77.0,0,2048,0.0,75.0
6771,67.0,0,512,0.0,69.0
6772,41.0,0,1536,0.0,81.0
6773,68.0,0,1536,0.0,69.0
6774,72.0,0,1536,0.0,83.0
6775,60.0,1536,1536,0.0,69.0
6776,56.0,0,1536,0.0,69.0
6777,29.0,0,1536,0.0,69.0
6778,77.0,0,3072,0.0,75.0
6779,89.0,0,3072,0.0,87.0
6780,65.0,0,3072,0.0,81.0
6781,43.0,1536,2560,0.0,81.0
6782,31.0,0,2560,0.0,69.0
6783,59.0,0,1536,0.0,69.0
6784,76.0,1536,1536,0.0,75.0
6785,88.0,0,1536,0.0,87.0
6786,64.0,0,1536,0.0,81.0
6787,55.0,0,0,0.0,69.0
6788,52.0,1024,512,0.0,69.0
6789,67.0,0,4096,0.0,69.0
6790,83.0,0,1024,0.0,87.0
6791,55.0,0,1024,0.0,81.0
6792,59.0,512,1024,0.0,81.0
6793,71.0,0,1024,0.0,75.0
6794,43.0,0,1024,0.0,69.0
6795,72.0,1408,128,0.0,63.0
6796,60.0,0,0,0.0,69.0
6797,84.0,0,128,0.0,75.0
6798,72.0,0,1536,0.0,81.0
6799,33.0,0,1536,0.0,69.0
6800,54.0,0,1536,0.0,69.0
6801,66.0,0,1536,0.0,69.0
6802,45.0,0,1536,0.0,81.0
6803,63.0,128,3072,0.0,81.0
6804,75.0,0,3072,0.0,75.0
6805,87.0,0,3072,0.0,87.0
6806,46.0,0,2560,0.0,81.0
6807,34.0,1536,2560,0.0,69.0
6808,74.0,1536,1536,0.0,70.0
6809,86.0,0,1536,0.0,82.0
6810,53.0,0,0,0.0,69.0
6811,58.0,0,3072,0.0,69.0
6812,62.0,0,1536,0.0,81.0
6813,48.0,0,512,0.0,81.0
6814,36.0,1024,512,0.0,69.0
6815,65.0,0,0,0.0,81.0
6816,50.0,0,1024,0.0,81.0
6817,38.0,0,1024,0.0,69.0
6818,53.0,0,1024,0.0,69.0
6819,69.0,0,1024,0.0,66.0
6820,81.0,0,1024,0.0,78.0
6821,57.0,512,1024,0.0,81.0
6822,70.0,1408,128,0.0,63.0
6823,58.0,0,128,0.0,72.0
6824,67.0,0,1536,0.0,69.0
6825,70.0,0,1536,0.0,69.0
6826,79.0,0,1536,0.0,81.0
6827,40.0,0,1536,0.0,69.0
6828,52.0,0,1536,0.0,81.0
6829,82.0,0,1664,0.0,75.0
6830,55.0,0,1536,0.0,69.0
6831,73.0,0,3072,0.0,75.0
6832,85.0,0,3072,0.0,87.0
6833,61.0,0,3072,0.0,81.0
6834,68.0,1536,2560,0.0,68.0
6835,41.0,0,2560,0.0,68.0
6836,53.0,0,2560,0.0,68.0
6837,60.0,0,1536,0.0,80.0
6838,56.0,0,3072,0.0,68.0
6839,72.0,1536,1536,0.0,69.0
6840,80.0,0,3072,0.0,74.0
6841,84.0,0,1536,0.0,81.0
6842,79.0,1024,512,0.0,80.0
6843,43.0,0,512,0.0,68.0
6844,55.0,0,512,0.0,80.0
6845,67.0,0,512,0.0,68.0
6846,44.0,0,1024,0.0,68.0
6847,56.0,0,1024,0.0,80.0
6848,77.0,0,1024,0.0,77.0
6849,65.0,512,1024,0.0,65.0
6850,53.0,0,1024,0.0,68.0
6851,70.0,0,128,0.0,62.0
6852,58.0,0,0,0.0,68.0
6853,53.0,0,0,0.0,68.0
6854,65.0,0,1536,0.0,68.0
6855,77.0,0,1536,0.0,68.0
6856,34.0,0,1536,0.0,68.0
6857,46.0,0,1536,0.0,68.0
6858,82.0,1408,1664,0.0,74.0
6859,73.0,128,3072,0.0,74.0
6860,85.0,0,3072,0.0,86.0
6861,61.0,0,3072,0.0,80.0
6862,72.0,1536,1024,0.0,69.0
6863,80.0,0,2560,0.0,74.0
6864,84.0,0,1024,0.0,81.0
6865,68.0,0,2560,0.0,68.0
6866,41.0,1536,2560,0.0,68.0
6867,43.0,0,512,0.0,68.0
6868,55.0,0,512,0.0,68.0
6869,56.0,0,0,0.0,77.0
6870,60.0,0,1536,0.0,80.0
6871,79.0,0,512,0.0,68.0
6872,67.0,1024,512,0.0,68.0
6873,53.0,0,804,0.0,68.0
6874,65.0,0,1024,0.0,65.0
6875,77.0,0,1024,0.0,77.0
6876,44.0,512,1024,0.0,77.0
6877,82.0,1408,128,0.0,62.0
6878,65.0,512,292,0.0,77.0
6879,53.0,0,292,0.0,65.0
6880,82.0,0,1024,0.0,79.0
6881,79.0,0,1024,0.0,79.0
6882,77.0,128,1024,0.0,79.0
6883,89.0,0,1024,0.0,93.0
6884,67.0,512,292,0.0,82.0
6885,55.0,0,292,0.0,70.0
6886,37.0,0,1536,0.0,77.0
6887,25.0,0,1536,0.0,89.0
6888,56.0,512,292,0.0,61.0
6889,68.0,0,292,0.0,75.0
6890,70.0,0,292,0.0,74.0
6891,58.0,512,292,0.0,61.0
6892,87.0,0,1024,0.0,89.0
6893,80.0,0,1024,0.0,76.0
6894,75.0,0,1024,0.0,76.0
6895,68.0,512,292,0.0,74.0
6896,56.0,0,292,0.0,61.0
6897,65.0,0,292,0.0,74.0
6898,53.0,512,292,0.0,60.0
6899,55.0,512,292,0.0,60.0
6900,67.0,0,292,0.0,73.0
6901,71.0,0,1024,0.0,70.0
6902,74.0,0,1024,0.0,70.0
6903,80.0,0,1024,0.0,82.0
6904,83.0,0,1024,0.0,70.0
6905,53.0,512,292,0.0,59.0
6906,65.0,0,292,0.0,72.0
6907,24.0,0,3072,0.0,85.0
6908,36.0,0,0,0.0,73.0
6909,51.0,0,292,0.0,59.0
6910,63.0,0,292,0.0,73.0
6911,53.0,512,292,0.0,59.0
6912,65.0,0,292,0.0,72.0
6913,84.0,0,1024,0.0,83.0
6914,80.0,0,1024,0.0,68.0
6915,72.0,512,1024,0.0,68.0
6916,75.0,0,1024,0.0,68.0
6917,63.0,512,292,0.0,71.0
6918,51.0,0,292,0.0,58.0
6919,61.0,0,292,0.0,71.0
6920,49.0,0,292,0.0,58.0
6921,51.0,0,292,0.0,57.0
6922,63.0,512,292,0.0,71.0
6923,70.0,0,1024,0.0,67.0
6924,79.0,512,1024,0.0,81.0
6925,76.0,0,1024,0.0,67.0
6926,67.0,0,1024,0.0,67.0
6927,61.0,512,292,0.0,71.0
6928,49.0,0,292,0.0,58.0
6929,24.0,0,0,0.0,85.0
6930,36.0,0,0,0.0,73.0
6931,48.0,0,292,0.0,57.0
6932,60.0,0,292,0.0,70.0
6933,49.0,512,292,0.0,57.0
6934,61.0,0,292,0.0,70.0
6935,80.0,0,1024,0.0,80.0
6936,75.0,512,1024,0.0,66.0
6937,68.0,0,1024,0.0,66.0
6938,72.0,0,1024,0.0,66.0
6939,48.0,0,292,0.0,56.0
6940,60.0,512,292,0.0,69.0
6941,46.0,0,292,0.0,57.0
6942,58.0,512,292,0.0,70.0
6943,48.0,512,292,0.0,56.0
6944,60.0,0,292,0.0,68.0
6945,73.0,0,1024,0.0,65.0
6946,64.0,0,1024,0.0,65.0
6947,67.0,0,1024,0.0,65.0
6948,76.0,0,1024,0.0,79.0
6949,58.0,0,292,0.0,67.0
6950,46.0,512,292,0.0,55.0
6951,36.0,0,0,0.0,73.0
6952,44.0,0,292,0.0,55.0
6953,56.0,0,292,0.0,68.0
6954,46.0,512,292,0.0,54.0
6955,58.0,0,292,0.0,67.0
6956,72.0,512,1024,0.0,64.0
6957,65.0,0,1024,0.0,64.0
6958,77.0,0,1024,0.0,78.0
6959,44.0,0,292,0.0,55.0
6960,56.0,512,292,0.0,66.0
6961,24.0,0,1536,0.0,85.0
6962,45.0,0,292,0.0,53.0
6963,57.0,0,292,0.0,65.0
6964,57.0,512,292,0.0,57.0
6965,69.0,0,292,0.0,70.0
6966,65.0,0,1024,0.0,71.0
6967,77.0,0,1024,0.0,89.0
6968,72.0,0,1024,0.0,71.0
6969,69.0,512,0,0.0,70.0
6970,57.0,0,292,0.0,57.0
6971,27.0,0,1536,0.0,85.0
6972,39.0,0,1536,0.0,73.0
6973,70.0,0,292,0.0,75.0
6974,58.0,0,292,0.0,61.0
6975,72.0,512,292,0.0,74.0
6976,60.0,0,292,0.0,61.0
6977,89.0,0,1024,0.0,89.0
6978,82.0,0,1024,0.0,76.0
6979,77.0,0,1024,0.0,76.0
6980,58.0,512,292,0.0,61.0
6981,70.0,0,292,0.0,74.0
6982,66.0,512,292,0.0,74.0
6983,54.0,0,292,0.0,60.0
6984,56.0,512,292,0.0,60.0
6985,68.0,0,292,0.0,73.0
6986,72.0,0,1024,0.0,70.0
6987,84.0,0,1024,0.0,70.0
6988,81.0,0,1024,0.0,82.0
6989,75.0,0,1024,0.0,70.0
6990,54.0,512,292,0.0,59.0
6991,66.0,0,292,0.0,72.0
6992,25.0,0,0,0.0,85.0
6993,37.0,0,0,0.0,73.0
6994,53.0,0,292,0.0,59.0
6995,65.0,512,292,0.0,73.0
6996,66.0,0,292,0.0,72.0
6997,54.0,512,292,0.0,59.0
6998,77.0,0,1024,0.0,68.0
6999,82.0,0,1024,0.0,68.0
7000,85.0,0,1024,0.0,83.0
7001,73.0,0,1024,0.0,68.0
7002,53.0,512,292,0.0,58.0
7003,65.0,0,292,0.0,71.0
7004,63.0,512,292,0.0,71.0
7005,51.0,0,292,0.0,58.0
7006,53.0,512,292,0.0,57.0
7007,65.0,0,292,0.0,71.0
7008,78.0,0,1024,0.0,67.0
7009,72.0,0,1024,0.0,67.0
7010,69.0,0,1024,0.0,67.0
7011,81.0,0,1024,0.0,81.0
7012,51.0,0,292,0.0,58.0
7013,63.0,512,292,0.0,71.0
7014,25.0,512,0,0.0,85.0
7015,49.0,0,292,0.0,57.0
7016,61.0,0,292,0.0,70.0
7017,51.0,512,292,0.0,57.0
7018,63.0,0,292,0.0,70.0
7019,82.0,0,1024,0.0,80.0
7020,70.0,0,1024,0.0,66.0
7021,73.0,0,1024,0.0,66.0
7022,77.0,0,1024,0.0,66.0
7023,61.0,512,292,0.0,69.0
7024,49.0,0,292,0.0,56.0
7025,47.0,0,292,0.0,57.0
7026,59.0,0,292,0.0,70.0
7027,61.0,0,292,0.0,68.0
7028,49.0,512,292,0.0,56.0
7029,74.0,0,1024,0.0,65.0
7030,68.0,512,1024,0.0,65.0
7031,77.0,0,1024,0.0,79.0
7032,65.0,0,1024,0.0,65.0
7033,47.0,512,292,0.0,55.0
7034,59.0,0,292,0.0,67.0
7035,37.0,0,3072,0.0,73.0
7036,25.0,512,0,0.0,85.0
7037,46.0,0,292,0.0,55.0
7038,58.0,0,292,0.0,68.0
7039,47.0,0,292,0.0,54.0
7040,59.0,512,292,0.0,67.0
7041,66.0,0,1024,0.0,64.0
7042,70.0,0,1024,0.0,64.0
7043,73.0,0,1024,0.0,78.0
7044,78.0,0,1024,0.0,64.0
7045,46.0,512,292,0.0,55.0
7046,58.0,0,292,0.0,66.0
7047,37.0,0,1536,0.0,73.0
7048,46.0,0,292,0.0,53.0
7049,58.0,0,292,0.0,65.0
7050,58.0,512,292,0.0,57.0
7051,70.0,0,292,0.0,70.0
7052,66.0,0,1024,0.0,71.0
7053,73.0,0,1024,0.0,71.0
7054,78.0,0,1024,0.0,89.0
7055,58.0,0,292,0.0,57.0
7056,70.0,512,292,0.0,70.0
7057,28.0,512,1536,0.0,85.0
7058,40.0,0,1536,0.0,73.0
7059,71.0,512,292,0.0,75.0
7060,59.0,0,292,0.0,61.0
7061,73.0,512,292,0.0,74.0
7062,61.0,0,292,0.0,61.0
7063,90.0,0,1024,0.0,89.0
7064,83.0,0,1024,0.0,76.0
7065,78.0,0,1024,0.0,76.0
7066,71.0,512,292,0.0,73.0
7067,59.0,0,292,0.0,60.0
7068,67.0,0,292,0.0,73.0
7069,55.0,0,292,0.0,59.0
7070,57.0,0,292,0.0,59.0
7071,69.0,512,292,0.0,72.0
7072,76.0,512,1024,0.0,70.0
7073,82.0,0,1024,0.0,82.0
7074,85.0,0,1024,0.0,70.0
7075,73.0,0,1024,0.0,70.0
7076,67.0,0,292,0.0,71.0
7077,55.0,512,292,0.0,58.0
7078,54.0,0,292,0.0,57.0
7079,66.0,0,292,0.0,71.0
7080,67.0,0,292,0.0,70.0
7081,55.0,512,292,0.0,57.0
7082,87.0,0,1024,0.0,83.0
7083,75.0,512,1024,0.0,68.0
7084,78.0,0,1024,0.0,68.0
7085,83.0,0,1024,0.0,68.0
7086,54.0,512,292,0.0,56.0
7087,66.0,0,292,0.0,69.0
7088,27.0,0,4608,0.0,85.0
7089,39.0,0,4608,0.0,73.0
7090,46.0,0,292,0.0,56.0
7091,58.0,0,292,0.0,68.0
7092,58.0,512,292,0.0,55.0
7093,70.0,0,292,0.0,68.0
7094,66.0,0,1024,0.0,74.0
7095,70.0,512,0,0.0,68.0
7096,78.0,0,1024,0.0,88.0
7097,73.0,0,1024,0.0,74.0
7098,58.0,0,292,0.0,55.0
7099,40.0,0,1536,0.0,73.0
7100,28.0,512,1536,0.0,85.0
7101,71.0,0,292,0.0,75.0
7102,59.0,0,292,0.0,61.0
7103,73.0,0,292,0.0,74.0
7104,61.0,512,292,0.0,61.0
7105,78.0,0,1024,0.0,76.0
7106,90.0,0,1024,0.0,89.0
7107,83.0,0,1024,0.0,76.0
7108,71.0,0,292,0.0,73.0
7109,59.0,512,292,0.0,60.0
7110,55.0,0,292,0.0,59.0
7111,67.0,0,292,0.0,73.0
7112,57.0,512,292,0.0,59.0
7113,69.0,0,292,0.0,72.0
7114,82.0,0,1024,0.0,82.0
7115,85.0,0,1024,0.0,70.0
7116,73.0,512,1024,0.0,70.0
7117,76.0,0,1024,0.0,70.0
7118,55.0,512,292,0.0,58.0
7119,67.0,0,292,0.0,71.0
7120,66.0,0,292,0.0,71.0
7121,54.0,0,292,0.0,57.0
7122,67.0,0,292,0.0,70.0
7123,55.0,512,292,0.0,57.0
7124,83.0,0,1024,0.0,68.0
7125,78.0,0,1024,0.0,68.0
7126,74.0,512,1024,0.0,68.0
7127,86.0,0,1024,0.0,83.0
7128,54.0,512,292,0.0,56.0
7129,66.0,0,292,0.0,69.0
7130,38.0,512,4608,0.0,73.0
7131,26.0,0,4608,0.0,85.0
7132,59.0,512,292,0.0,68.0
7133,47.0,0,292,0.0,56.0
7134,71.0,512,292,0.0,68.0
7135,59.0,0,292,0.0,55.0
7136,67.0,0,1024,0.0,74.0
7137,74.0,0,1024,0.0,74.0
7138,79.0,0,1024,0.0,88.0
7139,71.0,512,0,0.0,68.0
7140,59.0,0,292,0.0,55.0
7141,41.0,0,1536,0.0,73.0
7142,29.0,0,1536,0.0,85.0
7143,72.0,0,292,0.0,78.0
7144,60.0,0,292,0.0,64.0
7145,74.0,512,292,0.0,77.0
7146,62.0,0,292,0.0,64.0
7147,91.0,0,1024,0.0,92.0
7148,79.0,0,1024,0.0,79.0
7149,84.0,0,1024,0.0,79.0
7150,72.0,0,292,0.0,76.0
7151,60.0,512,292,0.0,63.0
7152,56.0,0,292,0.0,62.0
7153,68.0,0,292,0.0,76.0
7154,58.0,512,292,0.0,62.0
7155,70.0,0,292,0.0,75.0
7156,77.0,512,1024,0.0,73.0
7157,74.0,0,1024,0.0,73.0
7158,86.0,0,1024,0.0,73.0
7159,83.0,0,1024,0.0,85.0
7160,56.0,512,292,0.0,61.0
7161,68.0,0,292,0.0,74.0
7162,55.0,0,292,0.0,60.0
7163,67.0,0,292,0.0,74.0
7164,56.0,0,292,0.0,60.0
7165,68.0,512,292,0.0,73.0
7166,76.0,512,1024,0.0,71.0
7167,79.0,0,1024,0.0,71.0
7168,84.0,0,1024,0.0,71.0
7169,88.0,0,1024,0.0,86.0
7170,55.0,512,292,0.0,59.0
7171,67.0,0,292,0.0,72.0
7172,40.0,512,4608,0.0,73.0
7173,28.0,0,4608,0.0,85.0
7174,59.0,0,292,0.0,71.0
7175,47.0,0,292,0.0,59.0
7176,71.0,512,292,0.0,71.0
7177,59.0,0,292,0.0,58.0
7178,67.0,0,1024,0.0,77.0
7179,74.0,512,1024,0.0,77.0
7180,79.0,0,1024,0.0,91.0
7181,71.0,0,0,0.0,71.0
7182,59.0,512,292,0.0,58.0
7183,41.0,0,1536,0.0,73.0
7184,29.0,0,1536,0.0,85.0
7185,72.0,512,292,0.0,80.0
7186,60.0,0,292,0.0,66.0
7187,62.0,512,292,0.0,66.0
7188,74.0,0,292,0.0,79.0
7189,84.0,0,1024,0.0,81.0
7190,91.0,0,1024,0.0,94.0
7191,79.0,0,1024,0.0,81.0
7192,72.0,0,292,0.0,78.0
7193,60.0,512,292,0.0,65.0
7194,56.0,0,292,0.0,64.0
7195,68.0,0,292,0.0,78.0
7196,58.0,512,292,0.0,64.0
7197,70.0,0,292,0.0,77.0
7198,74.0,0,1024,0.0,75.0
7199,77.0,512,1024,0.0,75.0
7200,83.0,0,1024,0.0,87.0
7201,86.0,0,1024,0.0,75.0
7202,56.0,512,292,0.0,63.0
7203,68.0,0,292,0.0,76.0
7204,67.0,0,292,0.0,76.0
7205,55.0,0,292,0.0,62.0
7206,68.0,512,292,0.0,75.0
7207,56.0,0,292,0.0,62.0
7208,79.0,512,1024,0.0,73.0
7209,75.0,0,1024,0.0,73.0
7210,84.0,0,1024,0.0,73.0
7211,87.0,0,1024,0.0,88.0
7212,55.0,512,292,0.0,61.0
7213,67.0,0,292,0.0,74.0
7214,27.0,0,4608,0.0,85.0
7215,39.0,0,4608,0.0,73.0
7216,58.0,0,292,0.0,61.0
7217,70.0,0,292,0.0,79.0
7218,51.0,512,292,0.0,60.0
7219,63.0,0,292,0.0,73.0
7220,79.0,0,1024,0.0,93.0
7221,75.0,0,1024,0.0,79.0
7222,67.0,512,1024,0.0,79.0
7223,51.0,0,292,0.0,60.0
7224,63.0,512,292,0.0,73.0
7225,25.0,0,1536,0.0,85.0
7226,37.0,0,1536,0.0,73.0
7227,60.0,512,724,0.0,64.0
7228,87.0,0,724,0.0,82.0
7229,92.0,0,724,0.0,100.0
7230,63.0,0,724,0.0,64.0
7231,68.0,0,724,0.0,71.0
7232,48.0,0,724,0.0,64.0
7233,51.0,0,724,0.0,64.0
7234,56.0,0,724,0.0,73.0
7235,24.0,0,724,0.0,76.0
7236,36.0,0,724,0.0,64.0
7237,80.0,0,724,0.0,82.0
7238,76.0,0,724,0.0,70.0
7239,48.0,0,724,0.0,64.0
7240,36.0,0,724,0.0,76.0
7241,55.0,1536,724,0.0,64.0
7242,79.0,0,724,0.0,70.0
7243,73.0,0,724,0.0,71.0
7244,70.0,0,724,0.0,64.0
7245,67.0,0,724,0.0,64.0
7246,64.0,0,724,0.0,64.0
7247,61.0,0,724,0.0,64.0
7248,88.0,0,724,0.0,88.0
7249,85.0,0,724,0.0,70.0
7250,82.0,0,724,0.0,70.0
7251,53.0,1536,724,0.0,64.0
7252,77.0,0,724,0.0,70.0
7253,80.0,0,724,0.0,70.0
7254,84.0,0,724,0.0,70.0
7255,89.0,0,724,0.0,88.0
7256,60.0,0,724,0.0,64.0
7257,68.0,0,724,0.0,64.0
7258,72.0,0,724,0.0,71.0
7259,41.0,0,724,0.0,64.0
7260,29.0,0,724,0.0,76.0
7261,65.0,0,724,0.0,64.0
7262,53.0,0,724,0.0,64.0
7263,60.0,0,724,0.0,64.0
7264,41.0,0,724,0.0,76.0
7265,75.0,0,724,0.0,70.0
7266,81.0,0,724,0.0,70.0
7267,84.0,0,724,0.0,88.0
7268,63.0,0,724,0.0,64.0
7269,69.0,0,724,0.0,71.0
7270,72.0,1536,724,0.0,70.0
7271,61.0,0,724,0.0,64.0
7272,65.0,0,724,0.0,64.0
7273,70.0,0,724,0.0,71.0
7274,82.0,0,724,0.0,70.0
7275,58.0,0,724,0.0,64.0
7276,34.0,0,724,0.0,76.0
7277,46.0,1536,724,0.0,64.0
7278,77.0,0,724,0.0,70.0
7279,73.0,0,724,0.0,70.0
7280,85.0,0,724,0.0,88.0
7281,61.0,0,724,0.0,76.0
7282,46.0,1536,724,0.0,76.0
7283,58.0,0,724,0.0,64.0
7284,55.0,0,724,0.0,64.0
7285,70.0,0,724,0.0,71.0
7286,73.0,0,724,0.0,70.0
7287,77.0,0,724,0.0,70.0
7288,79.0,0,724,0.0,88.0
7289,65.0,0,724,0.0,64.0
7290,67.0,0,724,0.0,64.0
7291,84.0,0,1224,0.0,88.0
7292,48.0,1275,1485,0.0,69.0
7293,36.0,87,1224,0.0,77.0
7294,64.0,0,1224,0.0,81.0
7295,67.0,0,1224,0.0,64.0
7296,60.0,87,1311,0.0,69.0
7297,72.0,0,1224,0.0,70.0
7298,76.0,0,1224,0.0,70.0
7299,79.0,0,1224,0.0,70.0
7300,55.0,87,1398,0.0,69.0
7301,41.0,0,352,0.0,48.0
7302,53.0,512,352,0.0,60.0
7303,55.0,0,352,0.0,63.0
7304,43.0,512,352,0.0,50.0
7305,44.0,0,352,0.0,52.0
7306,56.0,512,352,0.0,66.0
7307,43.0,0,352,0.0,52.0
7308,55.0,512,352,0.0,64.0
7309,41.0,512,352,0.0,48.0
7310,53.0,0,352,0.0,60.0
7311,65.0,1536,3122,0.0,79.0
7312,55.0,512,352,0.0,60.0
7313,43.0,0,352,0.0,48.0
7314,54.0,512,352,0.0,64.0
7315,42.0,0,352,0.0,52.0
7316,64.0,512,1586,0.0,79.0
7317,43.0,0,352,0.0,52.0
7318,55.0,512,352,0.0,64.0
7319,54.0,512,352,0.0,61.0
7320,42.0,0,352,0.0,50.0
7321,59.0,0,1024,0.0,79.0
7322,43.0,0,352,0.0,48.0
7323,55.0,512,352,0.0,59.0
7324,60.0,256,306,0.0,74.0
7325,45.0,256,352,0.0,48.0
7326,57.0,0,352,0.0,60.0
7327,57.0,0,352,0.0,63.0
7328,45.0,512,352,0.0,50.0
7329,58.0,512,352,0.0,66.0
7330,46.0,0,352,0.0,52.0
7331,48.0,0,352,0.0,52.0
7332,60.0,512,352,0.0,64.0
7333,46.0,0,352,0.0,48.0
7334,58.0,512,352,0.0,60.0
7335,57.0,0,352,0.0,57.0
7336,45.0,512,352,0.0,45.0
7337,63.0,0,3122,0.0,79.0
7338,46.0,512,352,0.0,60.0
7339,48.0,512,352,0.0,61.0
7340,62.0,512,1586,0.0,75.0
7341,50.0,512,352,0.0,61.0
7342,49.0,512,352,0.0,61.0
7343,57.0,0,1024,0.0,75.0
7344,50.0,512,352,0.0,62.0
7345,58.0,256,306,0.0,70.0
7346,52.0,0,352,0.0,62.0
7347,52.0,512,352,0.0,50.0
7348,55.0,0,352,0.0,63.0
7349,53.0,512,352,0.0,50.0
7350,57.0,0,352,0.0,63.0
7351,55.0,512,352,0.0,51.0
7352,58.0,0,352,0.0,63.0
7353,53.0,512,352,0.0,49.0
7354,57.0,0,352,0.0,61.0
7355,52.0,512,352,0.0,46.0
7356,55.0,0,352,0.0,58.0
7357,70.0,0,3122,0.0,75.0
7358,61.0,256,3122,0.0,63.0
7359,53.0,0,352,0.0,52.0
7360,57.0,512,352,0.0,65.0
7361,58.0,512,352,0.0,66.0
7362,55.0,0,352,0.0,52.0
7363,60.0,0,0,0.0,69.0
7364,69.0,512,1586,0.0,75.0
7365,57.0,0,352,0.0,57.0
7366,56.0,0,352,0.0,54.0
7367,59.0,512,352,0.0,66.0
7368,64.0,512,1024,0.0,75.0
7369,57.0,0,352,0.0,52.0
7370,60.0,512,352,0.0,63.0
7371,65.0,0,50,0.0,63.0
7372,62.0,0,50,0.0,63.0
7373,59.0,0,352,0.0,52.0
7374,62.0,512,352,0.0,66.0
7375,59.0,0,352,0.0,54.0
7376,64.0,0,352,0.0,69.0
7377,60.0,512,352,0.0,57.0
7378,65.0,512,352,0.0,69.0
7379,62.0,0,352,0.0,57.0
7380,60.0,0,352,0.0,54.0
7381,64.0,512,352,0.0,66.0
7382,59.0,0,352,0.0,52.0
7383,62.0,512,352,0.0,63.0
7384,68.0,256,3122,0.0,75.0
7385,60.0,512,352,0.0,47.0
7386,64.0,0,352,0.0,58.0
7387,65.0,512,352,0.0,61.0
7388,62.0,0,352,0.0,50.0
7389,67.0,0,50,0.0,64.0
7390,64.0,0,50,0.0,52.0
7391,66.0,0,352,0.0,62.0
7392,63.0,512,352,0.0,50.0
7393,60.0,512,1024,0.0,75.0
7394,64.0,0,352,0.0,48.0
7395,67.0,512,352,0.0,60.0
7396,65.0,512,352,0.0,58.0
7397,41.0,512,352,0.0,49.0
7398,53.0,0,352,0.0,59.0
7399,43.0,512,352,0.0,52.0
7400,55.0,0,352,0.0,63.0
7401,56.0,512,352,0.0,66.0
7402,44.0,0,352,0.0,52.0
7403,55.0,512,352,0.0,64.0
7404,43.0,0,352,0.0,52.0
7405,41.0,512,352,0.0,48.0
7406,53.0,0,352,0.0,60.0
7407,68.0,0,3122,0.0,64.0
7408,72.0,0,3122,0.0,64.0
7409,77.0,0,3122,0.0,81.0
7410,55.0,0,352,0.0,60.0
7411,43.0,512,352,0.0,48.0
7412,54.0,512,352,0.0,64.0
7413,42.0,0,352,0.0,52.0
7414,67.0,512,1536,0.0,64.0
7415,71.0,0,1536,0.0,64.0
7416,76.0,0,1586,0.0,81.0
7417,43.0,0,352,0.0,52.0
7418,55.0,512,352,0.0,64.0
7419,54.0,0,352,0.0,61.0
7420,42.0,512,352,0.0,50.0
7421,71.0,0,1024,0.0,81.0
7422,67.0,0,1024,0.0,64.0
7423,64.0,0,1024,0.0,64.0
7424,55.0,0,352,0.0,59.0
7425,43.0,512,352,0.0,48.0
7426,45.0,256,352,0.0,48.0
7427,57.0,0,352,0.0,60.0
7428,45.0,512,352,0.0,50.0
7429,57.0,0,352,0.0,63.0
7430,58.0,512,352,0.0,66.0
7431,46.0,0,352,0.0,52.0
7432,48.0,512,352,0.0,52.0
7433,60.0,0,352,0.0,66.0
7434,58.0,512,352,0.0,64.0
7435,46.0,0,352,0.0,52.0
7436,45.0,0,352,0.0,48.0
7437,57.0,512,352,0.0,60.0
7438,75.0,0,3122,0.0,81.0
7439,66.0,0,3122,0.0,64.0
7440,72.0,256,3378,0.0,69.0
7441,58.0,512,352,0.0,60.0
7442,46.0,0,352,0.0,48.0
7443,48.0,512,352,0.0,52.0
7444,60.0,0,352,0.0,64.0
7445,65.0,0,1536,0.0,57.0
7446,74.0,0,1536,0.0,74.0
7447,70.0,512,1536,0.0,57.0
7448,50.0,0,352,0.0,52.0
7449,62.0,512,352,0.0,66.0
7450,61.0,512,352,0.0,64.0
7451,49.0,0,352,0.0,52.0
7452,69.0,0,1024,0.0,74.0
7453,65.0,0,1024,0.0,57.0
7454,62.0,0,352,0.0,60.0
7455,50.0,512,352,0.0,48.0
7456,53.0,0,352,0.0,63.0
7457,50.0,0,352,0.0,52.0
7458,38.0,512,352,0.0,60.0
7459,52.0,512,352,0.0,54.0
7460,55.0,0,352,0.0,66.0
7461,40.0,0,352,0.0,62.0
7462,53.0,512,352,0.0,57.0
7463,41.0,0,352,0.0,64.0
7464,57.0,0,352,0.0,69.0
7465,52.0,512,352,0.0,54.0
7466,55.0,0,352,0.0,66.0
7467,40.0,0,352,0.0,62.0
7468,53.0,0,352,0.0,63.0
7469,38.0,0,352,0.0,60.0
7470,50.0,512,352,0.0,52.0
7471,74.0,0,3378,0.0,64.0
7472,77.0,256,3378,0.0,76.0
7473,81.0,256,3122,0.0,84.0
7474,65.0,0,3378,0.0,52.0
7475,69.0,0,3122,0.0,64.0
7476,40.0,512,352,0.0,60.0
7477,56.0,0,352,0.0,63.0
7478,52.0,0,352,0.0,52.0
7479,42.0,0,352,0.0,62.0
7480,57.0,0,352,0.0,66.0
7481,54.0,512,352,0.0,54.0
7482,64.0,0,1536,0.0,52.0
7483,68.0,0,0,0.0,64.0
7484,71.0,512,50,0.0,67.0
7485,76.0,512,1586,0.0,67.0
7486,80.0,0,1586,0.0,79.0
7487,59.0,0,352,0.0,69.0
7488,44.0,0,352,0.0,64.0
7489,56.0,0,352,0.0,57.0
7490,55.0,0,352,0.0,54.0
7491,58.0,512,352,0.0,66.0
7492,43.0,0,352,0.0,62.0
7493,75.0,0,1024,0.0,79.0
7494,63.0,0,1024,0.0,52.0
7495,56.0,512,352,0.0,52.0
7496,59.0,0,352,0.0,63.0
7497,44.0,0,352,0.0,60.0
7498,46.0,0,352,0.0,60.0
7499,61.0,0,352,0.0,63.0
7500,58.0,0,352,0.0,52.0
7501,46.0,0,352,0.0,61.0
7502,61.0,512,352,0.0,66.0
7503,58.0,0,352,0.0,54.0
7504,59.0,512,352,0.0,57.0
7505,63.0,0,352,0.0,69.0
7506,47.0,0,352,0.0,63.0
7507,64.0,0,352,0.0,64.0
7508,61.0,512,352,0.0,52.0
7509,49.0,0,352,0.0,58.0
7510,59.0,0,352,0.0,49.0
7511,63.0,512,352,0.0,59.0
7512,47.0,0,352,0.0,55.0
7513,46.0,512,352,0.0,52.0
7514,61.0,0,352,0.0,57.0
7515,58.0,0,352,0.0,45.0
7516,79.0,256,3112,0.0,83.0
7517,73.0,256,3368,0.0,67.0
7518,76.0,0,3368,0.0,79.0
7519,67.0,0,3122,0.0,64.0
7520,59.0,512,352,0.0,41.0
7521,63.0,0,352,0.0,52.0
7522,47.0,0,352,0.0,49.0
7523,61.0,0,352,0.0,46.0
7524,58.0,512,352,0.0,38.0
7525,46.0,0,352,0.0,49.0
7526,71.0,512,1536,0.0,52.0
7527,63.0,512,0,0.0,55.0
7528,78.0,0,1576,0.0,64.0
7529,66.0,0,50,0.0,41.0
7530,59.0,0,512,0.0,42.0
7531,47.0,0,512,0.0,49.0
7532,35.0,512,352,0.0,46.0
7533,71.0,0,1024,0.0,53.0
7534,47.0,512,352,0.0,43.0
7535,67.0,0,512,0.0,37.0
7536,71.0,512,512,0.0,48.0
7537,55.0,0,1536,0.0,43.0
7538,69.0,0,512,0.0,39.0
7539,72.0,512,512,0.0,50.0
7540,71.0,0,512,0.0,41.0
7541,74.0,0,512,0.0,53.0
7542,70.0,0,512,0.0,39.0
7543,73.0,512,512,0.0,50.0
7544,74.0,0,512,0.0,48.0
7545,71.0,512,512,0.0,37.0
7546,67.0,512,1536,0.0,32.0
7547,65.0,512,3102,0.0,60.0
7548,53.0,0,3102,0.0,55.0
7549,64.0,0,512,0.0,39.0
7550,72.0,512,512,0.0,48.0
7551,74.0,512,512,0.0,50.0
7552,66.0,0,512,0.0,41.0
7553,52.0,0,1566,0.0,43.0
7554,76.0,0,512,0.0,53.0
7555,67.0,512,512,0.0,44.0
7556,59.0,0,1024,0.0,55.0
7557,47.0,0,1024,0.0,41.0
7558,75.0,512,512,0.0,50.0
7559,67.0,0,0,0.0,39.0
7560,66.0,0,512,0.0,41.0
7561,76.0,512,512,0.0,48.0
7562,67.0,0,0,0.0,43.0
7563,60.0,0,286,0.0,54.0
7564,48.0,256,286,0.0,40.0
7565,78.0,0,512,0.0,48.0
7566,69.0,0,0,0.0,40.0
7567,78.0,512,512,0.0,49.0
7568,79.0,512,512,0.0,51.0
7569,71.0,0,512,0.0,42.0
7570,72.0,512,512,0.0,43.0
7571,81.0,0,512,0.0,52.0
7572,71.0,0,512,0.0,41.0
7573,79.0,512,512,0.0,50.0
7574,69.0,512,512,0.0,39.0
7575,78.0,0,512,0.0,48.0
7576,51.0,0,3102,0.0,46.0
7577,63.0,0,3102,0.0,60.0
7578,71.0,512,512,0.0,39.0
7579,79.0,0,512,0.0,48.0
7580,78.0,512,512,0.0,50.0
7581,70.0,0,512,0.0,41.0
7582,62.0,0,1566,0.0,52.0
7583,50.0,512,1566,0.0,43.0
7584,71.0,0,512,0.0,43.0
7585,79.0,0,512,0.0,52.0
7586,78.0,0,512,0.0,50.0
7587,43.0,512,1024,0.0,41.0
7588,55.0,0,1024,0.0,50.0
7589,70.0,512,512,0.0,41.0
7590,71.0,0,512,0.0,39.0
7591,79.0,512,512,0.0,48.0
7592,60.0,256,286,0.0,49.0
7593,48.0,0,286,0.0,40.0
7594,72.0,256,512,0.0,39.0
7595,81.0,0,512,0.0,48.0
7596,78.0,512,512,0.0,49.0
7597,69.0,0,512,0.0,40.0
7598,79.0,512,512,0.0,51.0
7599,71.0,0,512,0.0,42.0
7600,72.0,512,512,0.0,43.0
7601,81.0,0,512,0.0,52.0
7602,79.0,512,512,0.0,50.0
7603,71.0,0,512,0.0,41.0
7604,69.0,0,512,0.0,39.0
7605,78.0,512,512,0.0,48.0
7606,51.0,0,3102,0.0,46.0
7607,63.0,0,3102,0.0,55.0
7608,79.0,512,512,0.0,45.0
7609,71.0,0,512,0.0,36.0
7610,78.0,512,512,0.0,47.0
7611,70.0,0,512,0.0,38.0
7612,62.0,0,1566,0.0,52.0
7613,50.0,512,1566,0.0,43.0
7614,79.0,0,512,0.0,49.0
7615,71.0,0,512,0.0,40.0
7616,55.0,0,1024,0.0,44.0
7617,43.0,512,1024,0.0,40.0
7618,70.0,0,512,0.0,41.0
7619,67.0,0,5632,0.0,43.0
7620,78.0,512,512,0.0,50.0
7621,79.0,512,256,0.0,52.0
7622,71.0,0,256,0.0,43.0
7623,52.0,512,512,0.0,25.0
7624,55.0,0,512,0.0,37.0
7625,53.0,512,512,0.0,28.0
7626,57.0,0,512,0.0,40.0
7627,55.0,0,512,0.0,31.0
7628,58.0,0,512,0.0,43.0
7629,53.0,0,512,0.0,28.0
7630,57.0,512,512,0.0,40.0
7631,55.0,0,512,0.0,37.0
7632,52.0,512,512,0.0,25.0
7633,82.0,256,3102,0.0,64.0
7634,70.0,0,3102,0.0,50.0
7635,57.0,0,512,0.0,37.0
7636,53.0,512,512,0.0,25.0
7637,58.0,0,512,0.0,40.0
7638,55.0,512,512,0.0,28.0
7639,69.0,0,1566,0.0,44.0
7640,81.0,512,1566,0.0,58.0
7641,57.0,0,512,0.0,31.0
7642,60.0,0,512,0.0,43.0
7643,59.0,512,512,0.0,40.0
7644,56.0,0,512,0.0,28.0
7645,76.0,512,1024,0.0,60.0
7646,60.0,512,0,0.0,36.0
7647,64.0,0,1024,0.0,46.0
7648,72.0,256,5888,0.0,45.0
7649,36.0,512,4608,0.0,28.0
7650,48.0,0,6144,0.0,33.0
7651,57.0,0,512,0.0,24.0
7652,62.0,0,512,0.0,33.0
7653,59.0,0,0,0.0,38.0
7654,50.0,512,512,0.0,26.0
7655,60.0,512,512,0.0,40.0
7656,52.0,0,512,0.0,28.0
7657,77.0,256,1792,0.0,55.0
7658,62.0,0,512,0.0,42.0
7659,53.0,0,512,0.0,30.0
7660,52.0,512,512,0.0,28.0
7661,60.0,0,512,0.0,40.0
7662,59.0,512,512,0.0,38.0
7663,50.0,0,512,0.0,26.0
7664,80.0,0,3102,0.0,67.0
7665,68.0,0,3102,0.0,45.0
7666,60.0,0,512,0.0,38.0
7667,52.0,512,512,0.0,26.0
7668,51.0,512,512,0.0,28.0
7669,59.0,0,512,0.0,40.0
7670,67.0,0,1566,0.0,40.0
7671,79.0,512,1566,0.0,58.0
7672,60.0,0,512,0.0,42.0
7673,52.0,512,512,0.0,30.0
7674,72.0,0,1024,0.0,49.0
7675,51.0,0,512,0.0,28.0
7676,59.0,512,512,0.0,40.0
7677,48.0,0,6144,0.0,40.0
7678,52.0,512,512,0.0,25.0
7679,36.0,512,4608,0.0,28.0
7680,60.0,0,512,0.0,37.0
7681,62.0,256,512,0.0,38.0
7682,53.0,0,512,0.0,26.0
7683,50.0,512,512,0.0,28.0
7684,59.0,0,512,0.0,40.0
7685,60.0,0,512,0.0,41.0
7686,52.0,512,512,0.0,29.0
7687,77.0,256,1792,0.0,45.0
7688,53.0,0,512,0.0,30.0
7689,62.0,512,512,0.0,42.0
7690,60.0,512,512,0.0,40.0
7691,52.0,0,512,0.0,28.0
7692,50.0,512,512,0.0,26.0
7693,59.0,0,512,0.0,38.0
7694,68.0,0,3102,0.0,45.0
7695,80.0,0,3102,0.0,62.0
7696,52.0,512,512,0.0,26.0
7697,60.0,0,512,0.0,38.0
7698,59.0,0,512,0.0,40.0
7699,51.0,512,512,0.0,28.0
7700,67.0,0,1566,0.0,35.0
7701,79.0,512,1566,0.0,53.0
7702,60.0,0,512,0.0,42.0
7703,52.0,0,512,0.0,30.0
7704,48.0,0,5632,0.0,40.0
7705,59.0,0,512,0.0,40.0
7706,51.0,512,512,0.0,28.0
7707,36.0,0,4096,0.0,28.0
7708,72.0,512,1024,0.0,44.0
7709,60.0,0,512,0.0,38.0
7710,52.0,512,512,0.0,26.0
7711,55.0,0,512,0.0,27.0
7712,64.0,256,512,0.0,39.0
7713,52.0,0,512,0.0,30.0
7714,60.0,512,512,0.0,42.0
7715,48.0,0,1024,0.0,40.0
7716,62.0,512,512,0.0,44.0
7717,79.0,256,1792,0.0,48.0
7718,53.0,0,512,0.0,32.0
7719,64.0,512,512,0.0,47.0
7720,55.0,0,512,0.0,34.0
7721,53.0,512,512,0.0,32.0
7722,62.0,0,512,0.0,45.0
7723,60.0,0,512,0.0,43.0
7724,52.0,512,512,0.0,30.0
7725,70.0,0,3102,0.0,48.0
7726,82.0,0,3102,0.0,66.0
7727,53.0,0,512,0.0,30.0
7728,62.0,512,512,0.0,44.0
7729,52.0,0,512,0.0,33.0
7730,61.0,512,512,0.0,48.0
7731,81.0,512,1566,0.0,59.0
7732,69.0,0,1566,0.0,50.0
7733,53.0,0,512,0.0,36.0
7734,62.0,512,512,0.0,50.0
7735,52.0,512,512,0.0,33.0
7736,61.0,0,512,0.0,49.0
7737,74.0,0,1024,0.0,47.0
7738,36.0,0,4096,0.0,28.0
7739,48.0,0,4096,0.0,40.0
7740,53.0,512,512,0.0,31.0
7741,62.0,0,512,0.0,46.0
7742,57.0,0,512,0.0,32.0
7743,65.0,0,512,0.0,48.0
7744,53.0,512,512,0.0,36.0
7745,62.0,0,512,0.0,52.0
7746,81.0,256,1792,0.0,50.0
7747,55.0,512,512,0.0,38.0
7748,64.0,0,512,0.0,53.0
7749,65.0,0,512,0.0,55.0
7750,57.0,512,512,0.0,39.0
7751,55.0,0,512,0.0,37.0
7752,64.0,512,512,0.0,53.0
7753,53.0,512,512,0.0,35.0
7754,62.0,0,512,0.0,51.0
7755,72.0,0,3102,0.0,50.0
7756,84.0,256,3102,0.0,70.0
7757,64.0,0,512,0.0,46.0
7758,55.0,512,512,0.0,32.0
7759,54.0,0,512,0.0,36.0
7760,63.0,512,512,0.0,51.0
7761,70.0,512,1566,0.0,51.0
7762,82.0,0,1566,0.0,63.0
7763,55.0,0,512,0.0,38.0
7764,64.0,512,512,0.0,53.0
7765,54.0,512,512,0.0,36.0
7766,36.0,0,4096,0.0,28.0
7767,48.0,0,5632,0.0,40.0
7768,63.0,0,512,0.0,51.0
7769,76.0,0,1024,0.0,51.0
7770,64.0,0,512,0.0,48.0
7771,55.0,512,512,0.0,33.0
7772,82.0,256,256,0.0,54.0
7773,67.0,256,512,0.0,49.0
7774,58.0,0,512,0.0,34.0
7775,64.0,0,512,0.0,54.0
7776,55.0,512,512,0.0,36.0
7777,57.0,512,512,0.0,39.0
7778,65.0,0,512,0.0,55.0
7779,67.0,0,512,0.0,51.0
7780,58.0,512,512,0.0,37.0
7781,65.0,512,512,0.0,49.0
7782,57.0,0,512,0.0,35.0
7783,64.0,512,512,0.0,47.0
7784,55.0,0,512,0.0,32.0
7785,86.0,0,3102,0.0,72.0
7786,74.0,0,3102,0.0,54.0
7787,65.0,0,512,0.0,47.0
7788,57.0,512,512,0.0,33.0
7789,67.0,512,512,0.0,51.0
7790,58.0,0,512,0.0,35.0
7791,84.0,512,1566,0.0,66.0
7792,72.0,0,1566,0.0,47.0
7793,60.0,0,512,0.0,30.0
7794,69.0,0,512,0.0,42.0
7795,58.0,512,512,0.0,28.0
7796,77.0,512,1024,0.0,54.0
7797,67.0,0,512,0.0,40.0
7798,36.0,0,4096,0.0,28.0
7799,48.0,0,5632,0.0,40.0
7800,65.0,512,512,0.0,37.0
7801,57.0,0,512,0.0,25.0
7802,55.0,512,512,0.0,28.0
7803,64.0,0,512,0.0,40.0
7804,57.0,512,512,0.0,29.0
7805,65.0,0,512,0.0,41.0
7806,82.0,0,1566,0.0,61.0
7807,70.0,0,1566,0.0,42.0
7808,58.0,0,512,0.0,30.0
7809,67.0,0,512,0.0,42.0
7810,76.0,0,1024,0.0,53.0
7811,65.0,0,512,0.0,40.0
7812,57.0,512,512,0.0,28.0
7813,36.0,512,1536,0.0,28.0
7814,55.0,512,512,0.0,26.0
7815,64.0,0,512,0.0,38.0
7816,53.0,512,512,0.0,26.0
7817,62.0,0,512,0.0,38.0
7818,55.0,512,512,0.0,28.0
7819,64.0,0,512,0.0,40.0
7820,81.0,512,1566,0.0,61.0
7821,69.0,0,1566,0.0,42.0
7822,57.0,0,512,0.0,30.0
7823,65.0,512,512,0.0,42.0
7824,55.0,512,512,0.0,28.0
7825,74.0,0,1024,0.0,53.0
7826,64.0,0,512,0.0,40.0
7827,62.0,0,512,0.0,37.0
7828,53.0,512,512,0.0,25.0
7829,36.0,512,0,0.0,27.0
7830,52.0,512,512,0.0,28.0
7831,60.0,0,512,0.0,40.0
7832,48.0,512,7680,0.0,40.0
7833,53.0,512,512,0.0,29.0
7834,62.0,0,512,0.0,41.0
7835,79.0,0,1566,0.0,61.0
7836,67.0,0,1566,0.0,42.0
7837,64.0,0,512,0.0,42.0
7838,55.0,0,512,0.0,30.0
7839,53.0,512,512,0.0,28.0
7840,72.0,512,1024,0.0,50.0
7841,62.0,0,512,0.0,40.0
7842,60.0,512,512,0.0,38.0
7843,52.0,0,512,0.0,26.0
7844,51.0,0,512,0.0,26.0
7845,60.0,512,512,0.0,38.0
7846,53.0,0,512,0.0,28.0
7847,62.0,512,512,0.0,40.0
7848,79.0,0,1566,0.0,54.0
7849,67.0,0,1566,0.0,37.0
7850,55.0,0,512,0.0,30.0
7851,63.0,512,512,0.0,42.0
7852,72.0,0,1024,0.0,50.0
7853,53.0,0,512,0.0,28.0
7854,62.0,512,512,0.0,40.0
7855,48.0,0,4608,0.0,38.0
7856,36.0,512,3072,0.0,26.0
7857,60.0,0,512,0.0,37.0
7858,51.0,512,512,0.0,25.0
7859,58.0,0,512,0.0,36.0
7860,50.0,512,512,0.0,28.0
7861,60.0,512,512,0.0,37.0
7862,55.0,0,512,0.0,33.0
7863,67.0,0,1566,0.0,37.0
7864,79.0,0,1566,0.0,54.0
7865,62.0,0,512,0.0,37.0
7866,58.0,512,512,0.0,34.0
7867,55.0,0,512,0.0,32.0
7868,60.0,512,512,0.0,35.0
7869,70.0,0,1024,0.0,45.0
7870,43.0,0,3072,0.0,44.0
7871,31.0,512,3072,0.0,34.0
7872,50.0,512,512,0.0,27.0
7873,58.0,0,512,0.0,33.0
7874,49.0,512,512,0.0,27.0
7875,58.0,0,512,0.0,32.0
7876,55.0,0,512,0.0,32.0
7877,60.0,512,512,0.0,33.0
7878,67.0,0,1566,0.0,37.0
7879,79.0,0,1566,0.0,54.0
7880,61.0,0,512,0.0,34.0
7881,58.0,512,512,0.0,32.0
7882,60.0,0,512,0.0,32.0
7883,70.0,0,1024,0.0,45.0
7884,55.0,512,512,0.0,32.0
7885,49.0,0,512,0.0,29.0
7886,41.0,0,3072,0.0,42.0
7887,29.0,512,3072,0.0,32.0
7888,58.0,512,512,0.0,29.0
7889,55.0,512,512,0.0,22.0
7890,58.0,0,512,0.0,29.0
7891,60.0,0,512,0.0,31.0
7892,57.0,512,512,0.0,23.0
7893,79.0,0,1566,0.0,54.0
7894,48.0,0,2560,0.0,26.0
7895,28.0,0,2560,0.0,27.0
7896,40.0,512,2560,0.0,39.0
7897,67.0,0,2560,0.0,37.0
7898,70.0,512,1024,0.0,40.0
7899,58.0,0,1024,0.0,26.0
7900,61.0,0,1024,0.0,34.0
7901,58.0,512,512,0.0,30.0
7902,28.0,0,1024,0.0,16.0
7903,55.0,0,512,0.0,21.0
7904,40.0,1536,1024,0.0,28.0
7905,60.0,512,512,0.0,34.0
7906,57.0,0,512,0.0,25.0
7907,48.0,0,2560,0.0,25.0
7908,28.0,512,1024,0.0,20.0
7909,61.0,0,1024,0.0,37.0
7910,40.0,0,1024,0.0,32.0
7911,58.0,0,1024,0.0,25.0
7912,70.0,0,2560,0.0,38.0
7913,67.0,0,2560,0.0,22.0
7914,58.0,0,512,0.0,26.0
7915,55.0,512,512,0.0,14.0
7916,57.0,0,512,0.0,18.0
7917,60.0,512,512,0.0,30.0
7918,40.0,1536,2560,0.0,32.0
7919,70.0,0,2560,0.0,34.0
7920,28.0,0,2560,0.0,20.0
7921,67.0,0,2560,0.0,20.0
7922,48.0,0,2560,0.0,21.0
7923,67.0,0,2560,0.0,15.0
7924,70.0,0,2560,0.0,24.0
7925,58.0,512,4096,0.0,21.0
7926,61.0,0,4096,0.0,33.0
7927,48.0,1536,2560,0.0,16.0
7928,28.0,0,2560,0.0,12.0
7929,40.0,0,2560,0.0,12.0
7930,40.0,0,512,0.0,9.0
7931,48.0,512,512,0.0,21.0
7932,58.0,1024,0,0.0,53.0
7933,48.0,0,512,0.0,45.0
7934,41.0,512,512,0.0,33.0
7935,45.0,0,512,0.0,45.0
7936,33.0,0,512,0.0,33.0
7937,48.0,512,512,0.0,32.0
7938,53.0,0,512,0.0,41.0
7939,65.0,0,1536,0.0,50.0
7940,57.0,1024,1536,0.0,54.0
7941,36.0,512,512,0.0,34.0
7942,48.0,0,512,0.0,42.0
7943,56.0,0,1536,0.0,55.0
7944,65.0,1024,1536,0.0,51.0
7945,55.0,0,512,0.0,42.0
7946,48.0,512,512,0.0,47.0
7947,64.0,1024,1536,0.0,52.0
7948,70.0,0,1536,0.0,56.0
7949,48.0,512,512,0.0,42.0
7950,53.0,0,512,0.0,47.0
7951,41.0,0,512,0.0,35.0
7952,70.0,0,1536,0.0,56.0
7953,64.0,1024,1536,0.0,52.0
7954,45.0,0,512,0.0,35.0
7955,53.0,0,512,0.0,48.0
7956,48.0,0,512,0.0,33.0
7957,60.0,512,512,0.0,43.0
7958,65.0,0,1536,0.0,40.0
7959,69.0,1024,1536,0.0,57.0
7960,77.0,0,0,0.0,54.0
7961,48.0,512,512,0.0,36.0
7962,53.0,0,512,0.0,49.0
7963,60.0,0,512,0.0,44.0
7964,68.0,0,1536,0.0,41.0
7965,60.0,0,512,0.0,37.0
7966,67.0,0,512,0.0,50.0
7967,48.0,512,512,0.0,45.0
7968,76.0,0,1536,0.0,55.0
7969,70.0,1024,1536,0.0,45.0
7970,79.0,0,0,0.0,47.0
7971,82.0,1024,0,0.0,61.0
7972,53.0,512,512,0.0,36.0
7973,56.0,0,512,0.0,46.0
7974,41.0,0,512,0.0,51.0
7975,67.0,0,1536,0.0,44.0
7976,76.0,0,1536,0.0,57.0
7977,70.0,0,1536,0.0,47.0
7978,53.0,512,512,0.0,59.0
7979,65.0,0,512,0.0,32.0
7980,68.0,0,512,0.0,45.0
7981,84.0,1024,0,0.0,63.0
7982,72.0,0,0,0.0,49.0
7983,77.0,0,1536,0.0,47.0
7984,80.0,0,0,0.0,49.0
7985,58.0,0,512,0.0,54.0
7986,55.0,512,512,0.0,43.0
7987,43.0,0,512,0.0,48.0
7988,73.0,0,0,0.0,51.0
7989,68.0,0,1536,0.0,47.0
7990,55.0,512,512,0.0,51.0
7991,70.0,0,512,0.0,56.0
7992,67.0,0,512,0.0,45.0
7993,79.0,0,1536,0.0,67.0
7994,82.0,0,1536,0.0,51.0
7995,85.0,1024,1536,0.0,67.0
7996,60.0,0,512,0.0,52.0
7997,56.0,512,512,0.0,41.0
7998,44.0,0,512,0.0,57.0
7999,82.0,0,1536,0.0,54.0
8000,73.0,0,1536,0.0,54.0
8001,85.0,0,1536,0.0,70.0
8002,70.0,1024,1536,0.0,54.0
8003,75.0,0,0,0.0,55.0
8004,72.0,512,512,0.0,55.0
8005,68.0,0,512,0.0,44.0
8006,56.0,0,512,0.0,59.0
8007,84.0,0,1536,0.0,72.0
8008,80.0,0,1536,0.0,55.0
8009,87.0,0,1536,0.0,71.0
8010,61.0,0,512,0.0,60.0
8011,46.0,512,512,0.0,56.0
8012,58.0,0,512,0.0,48.0
8013,72.0,0,1536,0.0,58.0
8014,87.0,0,1536,0.0,73.0
8015,84.0,0,1536,0.0,56.0
8016,75.0,0,1536,0.0,56.0
8017,77.0,1024,0,0.0,60.0
8018,73.0,0,512,0.0,61.0
8019,70.0,0,512,0.0,49.0
8020,58.0,512,512,0.0,59.0
8021,89.0,0,1536,0.0,76.0
8022,85.0,0,1536,0.0,60.0
8023,82.0,0,1536,0.0,74.0
8024,77.0,0,0,0.0,76.0
8025,67.0,0,512,0.0,70.0
8026,59.0,512,512,0.0,63.0
8027,74.0,0,1536,0.0,59.0
8028,79.0,1024,1536,0.0,62.0
8029,86.0,0,1536,0.0,62.0
8030,89.0,0,1536,0.0,80.0
8031,68.0,512,512,0.0,69.0
8032,60.0,0,512,0.0,65.0
8033,72.0,0,1536,0.0,82.0
8034,77.0,0,1536,0.0,67.0
8035,84.0,0,1536,0.0,67.0
8036,80.0,1024,1536,0.0,67.0
8037,89.0,0,0,0.0,85.0
8038,67.0,0,512,0.0,68.0
8039,59.0,0,512,0.0,56.0
8040,55.0,512,512,0.0,63.0
8041,47.0,0,512,0.0,52.0
8042,74.0,1024,1536,0.0,82.0
8043,77.0,0,1536,0.0,69.0
8044,79.0,0,1536,0.0,69.0
8045,86.0,0,1536,0.0,69.0
8046,89.0,0,0,0.0,83.0
8047,60.0,512,512,0.0,55.0
8048,68.0,0,512,0.0,67.0
8049,56.0,0,512,0.0,64.0
8050,48.0,0,512,0.0,53.0
8051,72.0,0,1536,0.0,80.0
8052,89.0,0,0,0.0,84.0
8053,84.0,1024,1536,0.0,67.0
8054,80.0,0,1536,0.0,67.0
8055,77.0,0,0,0.0,67.0
8056,67.0,0,1536,0.0,63.0
8057,71.0,0,1536,0.0,63.0
8058,74.0,1024,1536,0.0,79.0
8059,31.0,512,1024,0.0,77.0
8060,43.0,0,1024,0.0,75.0
8061,59.0,0,1024,0.0,65.0
8062,47.0,0,1024,0.0,54.0
8063,86.0,0,1536,0.0,67.0
8064,72.0,0,1536,0.0,74.0
8065,67.0,1024,1536,0.0,60.0
8066,36.0,512,1024,0.0,86.0
8067,76.0,0,1536,0.0,64.0
8068,84.0,0,1536,0.0,64.0
8069,88.0,0,1536,0.0,82.0
8070,48.0,0,1024,0.0,64.0
8071,60.0,0,1024,0.0,64.0
8072,66.0,0,1024,0.0,64.0
8073,72.0,0,1536,0.0,76.0
8074,33.0,0,1024,0.0,77.0
8075,45.0,0,1024,0.0,75.0
8076,75.0,1024,1536,0.0,65.0
8077,54.0,512,1024,0.0,49.0
8078,87.0,0,1536,0.0,83.0
8079,84.0,0,1536,0.0,65.0
8080,65.0,512,1024,0.0,64.0
8081,70.0,0,1536,0.0,76.0
8082,34.0,0,1024,0.0,77.0
8083,46.0,0,1024,0.0,75.0
8084,53.0,0,1024,0.0,51.0
8085,86.0,0,1536,0.0,83.0
8086,82.0,0,0,0.0,69.0
8087,74.0,0,1536,0.0,67.0
8088,70.0,0,1024,0.0,63.0
8089,67.0,1024,1536,0.0,63.0
8090,85.0,0,1536,0.0,84.0
8091,58.0,512,1024,0.0,50.0
8092,40.0,0,1024,0.0,79.0
8093,73.0,0,1536,0.0,69.0
8094,52.0,0,1024,0.0,76.0
8095,41.0,0,1024,0.0,81.0
8096,68.0,0,1024,0.0,65.0
8097,53.0,512,1024,0.0,79.0
8098,65.0,0,1536,0.0,63.0
8099,71.0,0,1536,0.0,69.0
8100,80.0,0,1536,0.0,69.0
8101,83.0,1024,1536,0.0,84.0
8102,56.0,0,1024,0.0,51.0
8103,67.0,0,1024,0.0,67.0
8104,64.0,0,1536,0.0,66.0
8105,36.0,512,1024,0.0,82.0
8106,55.0,0,1024,0.0,54.0
8107,84.0,0,1536,0.0,86.0
8108,72.0,1024,0,0.0,80.0
8109,76.0,0,1536,0.0,70.0
8110,48.0,0,1024,0.0,80.0
8111,65.0,0,1024,0.0,78.0
8112,80.0,0,1536,0.0,88.0
8113,53.0,0,1024,0.0,64.0
8114,29.0,512,1024,0.0,84.0
8115,41.0,1024,0,0.0,63.0
8116,77.0,0,1536,0.0,72.0
8117,68.0,0,1536,0.0,72.0
8118,59.0,0,1024,0.0,70.0
8119,55.0,512,1024,0.0,70.0
8120,67.0,0,1024,0.0,85.0
8121,65.0,0,1536,0.0,82.0
8122,53.0,0,1536,0.0,77.0
8123,79.0,0,1024,0.0,63.0
8124,74.0,0,1024,0.0,63.0
8125,83.0,0,1024,0.0,88.0
8126,71.0,0,1024,0.0,63.0
8127,62.0,0,1024,0.0,70.0
8128,64.0,0,1024,0.0,71.0
8129,79.0,0,1024,0.0,64.0
8130,72.0,0,1024,0.0,64.0
8131,55.0,0,1024,0.0,71.0
8132,60.0,0,1024,0.0,71.0
8133,67.0,512,1024,0.0,85.0
8134,40.0,1024,1536,0.0,65.0
8135,84.0,0,1024,0.0,89.0
8136,52.0,0,1536,0.0,79.0
8137,81.0,0,1024,0.0,63.0
8138,78.0,0,1024,0.0,63.0
8139,90.0,512,1024,0.0,88.0
8140,84.0,0,1024,0.0,63.0
8141,51.0,0,1536,0.0,81.0
8142,39.0,0,1536,0.0,67.0
8143,69.0,0,1024,0.0,85.0
8144,60.0,0,1024,0.0,70.0
8145,57.0,0,1024,0.0,70.0
8146,63.0,1024,1536,0.0,82.0
8147,66.0,0,1024,0.0,70.0
8148,70.0,0,1024,0.0,82.0
8149,38.0,0,1536,0.0,67.0
8150,58.0,0,1024,0.0,67.0
8151,65.0,0,1024,0.0,67.0
8152,50.0,0,1536,0.0,81.0
8153,82.0,512,1024,0.0,58.0
8154,77.0,0,1024,0.0,58.0
8155,89.0,0,1024,0.0,82.0
8156,62.0,1024,1536,0.0,83.0
8157,49.0,0,1536,0.0,81.0
8158,94.0,0,1024,0.0,87.0
8159,88.0,0,1024,0.0,65.0
8160,82.0,0,1024,0.0,65.0
8161,91.0,0,1024,0.0,65.0
8162,37.0,1024,1536,0.0,68.0
8163,61.0,0,1536,0.0,84.0
8164,73.0,0,1024,0.0,58.0
8165,67.0,0,1024,0.0,58.0
8166,64.0,0,1024,0.0,58.0
8167,76.0,512,1024,0.0,72.0
8168,80.0,0,1024,0.0,65.0
8169,47.0,1024,1536,0.0,80.0
8170,35.0,0,1536,0.0,67.0
8171,77.0,0,1024,0.0,74.0
8172,74.0,0,1024,0.0,60.0
8173,68.0,0,1024,0.0,60.0
8174,65.0,0,1024,0.0,60.0
8175,59.0,0,1536,0.0,84.0
8176,92.0,0,1024,0.0,88.0
8177,89.0,0,1024,0.0,65.0
8178,86.0,512,1024,0.0,65.0
8179,60.0,0,1024,0.0,63.0
8180,64.0,0,1024,0.0,63.0
8181,72.0,0,1024,0.0,77.0
8182,82.0,0,1024,0.0,63.0
8183,88.0,512,1024,0.0,63.0
8184,91.0,0,1024,0.0,84.0
8185,67.0,0,1024,0.0,63.0
8186,79.0,0,1024,0.0,63.0
8187,48.0,1024,1536,0.0,81.0
8188,36.0,0,1536,0.0,68.0
8189,29.0,1024,1536,0.0,68.0
8190,72.0,0,1024,0.0,80.0
8191,60.0,0,1024,0.0,66.0
8192,77.0,0,1024,0.0,64.0
8193,80.0,512,1024,0.0,64.0
8194,84.0,0,1024,0.0,64.0
8195,89.0,0,1024,0.0,85.0
8196,53.0,0,1536,0.0,87.0
8197,41.0,0,1536,0.0,81.0
8198,68.0,0,1024,0.0,66.0
8199,65.0,0,1024,0.0,66.0
8200,76.0,0,1024,0.0,70.0
8201,79.0,512,1024,0.0,70.0
8202,82.0,0,1024,0.0,84.0
8203,61.0,0,1536,0.0,74.0
8204,73.0,1024,1536,0.0,87.0
8205,64.0,0,1024,0.0,59.0
8206,67.0,0,1024,0.0,59.0
8207,70.0,0,1024,0.0,71.0
8208,77.0,512,1024,0.0,70.0
8209,80.0,0,1024,0.0,84.0
8210,59.0,1024,1536,0.0,65.0
8211,71.0,0,1536,0.0,77.0
8212,74.0,0,1024,0.0,70.0
8213,68.0,0,1024,0.0,71.0
8214,65.0,0,1024,0.0,59.0
8215,72.0,0,1024,0.0,71.0
8216,67.0,512,1024,0.0,59.0
8217,64.0,0,1024,0.0,59.0
8218,76.0,0,1024,0.0,70.0
8219,79.0,0,1024,0.0,84.0
8220,60.0,0,1536,0.0,65.0
8221,77.0,0,1024,0.0,80.0
8222,68.0,512,1024,0.0,66.0
8223,65.0,0,1024,0.0,59.0
8224,72.0,0,1024,0.0,64.0
8225,53.0,1024,1536,0.0,64.0
8226,36.0,1024,1536,0.0,64.0
8227,48.0,0,1536,0.0,77.0
8228,72.0,512,1024,0.0,82.0
8229,82.0,0,1024,0.0,67.0
8230,79.0,0,1024,0.0,67.0
8231,91.0,0,1024,0.0,86.0
8232,60.0,0,1024,0.0,67.0
8233,64.0,0,1024,0.0,67.0
8234,88.0,0,1024,0.0,67.0
8235,67.0,0,1024,0.0,67.0
8236,72.0,0,0,0.0,77.0
8237,68.0,0,1024,0.0,64.0
8238,65.0,0,1024,0.0,64.0
8239,41.0,0,1536,0.0,77.0
8240,53.0,0,1536,0.0,64.0
8241,89.0,0,1024,0.0,83.0
8242,84.0,0,1024,0.0,64.0
8243,80.0,512,1024,0.0,64.0
8244,77.0,0,1024,0.0,64.0
8245,60.0,1024,0,0.0,64.0
8246,29.0,1024,1536,0.0,64.0
8247,72.0,0,1024,0.0,83.0
8248,67.0,0,1024,0.0,67.0
8249,64.0,0,1024,0.0,64.0
8250,79.0,0,1024,0.0,87.0
8251,76.0,0,1024,0.0,67.0
8252,70.0,0,1024,0.0,67.0
8253,65.0,0,1024,0.0,76.0
8254,53.0,1024,1536,0.0,64.0
8255,77.0,0,1024,0.0,89.0
8256,72.0,0,1024,0.0,69.0
8257,68.0,512,1024,0.0,69.0
8258,60.0,0,1536,0.0,77.0
8259,79.0,0,1024,0.0,99.0
8260,77.0,0,1024,0.0,79.0
8261,72.0,0,1024,0.0,79.0
8262,67.0,0,1024,0.0,79.0
8263,84.0,512,1024,0.0,81.0
8264,48.0,0,1536,0.0,64.0
8265,91.0,0,1024,0.0,81.0
8266,36.0,1024,1536,0.0,76.0
8267,67.0,0,179,0.0,64.0
8268,79.0,2048,179,0.0,76.0
8269,55.0,0,512,0.0,60.0
8270,68.0,512,179,0.0,69.0
8271,80.0,0,179,0.0,81.0
8272,56.0,0,512,0.0,65.0
8273,82.0,0,179,0.0,86.0
8274,70.0,0,179,0.0,74.0
8275,58.0,0,512,0.0,69.0
8276,67.0,0,179,0.0,72.0
8277,79.0,512,179,0.0,84.0
8278,55.0,0,512,0.0,67.0
8279,76.0,0,179,0.0,82.0
8280,64.0,512,179,0.0,70.0
8281,24.0,0,1324,0.0,69.0
8282,96.0,0,1324,0.0,83.0
8283,91.0,512,1324,0.0,69.0
8284,88.0,0,1324,0.0,69.0
8285,84.0,0,1324,0.0,69.0
8286,36.0,0,1324,0.0,69.0
8287,52.0,0,512,0.0,65.0
8288,61.0,0,179,0.0,68.0
8289,73.0,512,179,0.0,80.0
8290,49.0,0,512,0.0,64.0
8291,72.0,0,179,0.0,78.0
8292,60.0,512,179,0.0,66.0
8293,48.0,0,512,0.0,62.0
8294,70.0,0,179,0.0,76.0
8295,58.0,0,179,0.0,64.0
8296,46.0,512,512,0.0,60.0
8297,56.0,0,179,0.0,66.0
8298,68.0,0,179,0.0,78.0
8299,44.0,0,512,0.0,61.0
8300,55.0,512,179,0.0,61.0
8301,67.0,0,179,0.0,73.0
8302,43.0,0,512,0.0,56.0
8303,65.0,0,179,0.0,68.0
8304,53.0,0,179,0.0,56.0
8305,84.0,512,1324,0.0,69.0
8306,80.0,0,1324,0.0,69.0
8307,77.0,0,1324,0.0,69.0
8308,29.0,0,1324,0.0,69.0
8309,41.0,512,300,0.0,51.0
8310,89.0,0,1324,0.0,83.0
