,note,step,duration,channel,velocity
0,57.0,0,55,7.0,99.0
1,55.0,38,22,8.0,95.0
2,53.0,7,22,8.0,95.0
3,52.0,29,22,8.0,93.0
4,53.0,32,22,8.0,93.0
5,62.0,22,115,7.0,125.0
6,57.0,28,22,8.0,92.0
7,64.0,4,8,7.0,95.0
8,65.0,9,8,7.0,95.0
9,55.0,30,22,8.0,93.0
10,64.0,5,8,7.0,95.0
11,62.0,10,15,7.0,93.0
12,52.0,3,22,8.0,92.0
13,64.0,10,15,7.0,92.0
14,50.0,6,22,8.0,93.0
15,65.0,13,30,7.0,106.0
16,53.0,32,22,8.0,95.0
17,52.0,3,22,8.0,95.0
18,69.0,22,30,7.0,106.0
19,64.0,4,30,7.0,93.0
20,48.0,30,22,8.0,95.0
21,46.0,6,22,8.0,93.0
22,50.0,29,22,8.0,92.0
23,74.0,23,85,7.0,121.0
24,65.0,2,85,7.0,110.0
25,45.0,31,22,8.0,93.0
26,74.0,23,15,7.0,106.0
27,65.0,2,15,7.0,93.0
28,50.0,4,22,8.0,93.0
29,43.0,4,22,8.0,103.0
30,73.0,23,30,7.0,116.0
31,64.0,3,30,7.0,100.0
32,74.0,23,25,7.0,106.0
33,65.0,4,25,7.0,95.0
34,50.0,4,22,8.0,93.0
35,76.0,23,15,7.0,106.0
36,67.0,3,15,7.0,95.0
37,41.0,2,22,8.0,92.0
38,77.0,26,15,7.0,107.0
39,69.0,1,15,7.0,92.0
40,50.0,4,22,8.0,92.0
41,45.0,4,22,8.0,93.0
42,73.0,24,30,7.0,106.0
43,64.0,3,30,7.0,92.0
44,57.0,30,22,8.0,92.0
45,58.0,30,22,8.0,93.0
46,74.0,24,15,7.0,107.0
47,65.0,2,15,7.0,95.0
48,57.0,4,22,8.0,92.0
49,41.0,5,22,8.0,103.0
50,73.0,23,30,7.0,116.0
51,64.0,1,30,7.0,99.0
52,74.0,25,25,7.0,106.0
53,65.0,1,25,7.0,92.0
54,53.0,5,22,8.0,95.0
55,76.0,24,15,7.0,106.0
56,67.0,0,15,7.0,95.0
57,40.0,4,22,8.0,95.0
58,77.0,24,15,7.0,106.0
59,69.0,3,15,7.0,95.0
60,52.0,5,22,8.0,95.0
61,45.0,5,22,8.0,95.0
62,73.0,24,30,7.0,107.0
63,64.0,1,30,7.0,92.0
64,57.0,29,22,8.0,92.0
65,55.0,30,22,8.0,92.0
66,69.0,27,10,7.0,93.0
67,71.0,7,10,7.0,95.0
68,52.0,2,22,8.0,95.0
69,73.0,11,10,7.0,92.0
70,50.0,4,22,8.0,92.0
71,74.0,7,30,7.0,106.0
72,66.0,3,30,7.0,93.0
73,48.0,30,22,8.0,93.0
74,46.0,3,22,8.0,95.0
75,45.0,32,22,8.0,92.0
76,46.0,28,22,8.0,93.0
77,79.0,23,115,7.0,119.0
78,74.0,1,115,7.0,110.0
79,70.0,0,115,7.0,110.0
80,67.0,1,115,7.0,110.0
81,50.0,31,22,8.0,95.0
82,46.0,3,22,8.0,95.0
83,45.0,32,22,8.0,92.0
84,81.0,0,60,7.0,106.0
85,69.0,25,60,7.0,93.0
86,43.0,5,22,8.0,95.0
87,82.0,0,30,7.0,106.0
88,70.0,24,30,7.0,95.0
89,74.0,1,90,7.0,92.0
90,46.0,29,22,8.0,92.0
91,43.0,2,22,8.0,95.0
92,86.0,24,55,7.0,107.0
93,70.0,3,55,7.0,92.0
94,81.0,1,55,7.0,92.0
95,41.0,32,22,8.0,93.0
96,39.0,3,22,8.0,95.0
97,51.0,29,22,8.0,93.0
98,38.0,30,22,8.0,92.0
99,91.0,0,115,7.0,120.0
100,82.0,24,115,7.0,110.0
101,79.0,2,115,7.0,110.0
102,50.0,32,22,8.0,92.0
103,37.0,2,22,8.0,95.0
104,94.0,22,30,7.0,127.0
105,82.0,2,30,7.0,116.0
106,91.0,2,30,7.0,116.0
107,52.0,30,22,8.0,92.0
108,38.0,2,22,8.0,93.0
109,89.0,0,30,7.0,106.0
110,93.0,26,30,7.0,116.0
111,81.0,2,30,7.0,107.0
112,53.0,31,22,8.0,93.0
113,40.0,3,22,8.0,93.0
114,91.0,25,30,7.0,116.0
115,88.0,0,30,7.0,106.0
116,79.0,2,30,7.0,106.0
117,55.0,29,22,8.0,93.0
118,41.0,4,22,8.0,93.0
119,89.0,25,30,7.0,116.0
120,86.0,2,30,7.0,106.0
121,77.0,1,30,7.0,107.0
122,57.0,29,22,8.0,95.0
123,43.0,3,22,8.0,93.0
124,88.0,24,30,7.0,127.0
125,85.0,2,30,7.0,116.0
126,76.0,1,30,7.0,116.0
127,58.0,29,22,8.0,93.0
128,86.0,27,11,7.0,81.0
129,88.0,4,11,7.0,82.0
130,44.0,2,22,8.0,93.0
131,86.0,12,11,7.0,81.0
132,85.0,11,15,7.0,82.0
133,59.0,5,22,8.0,93.0
134,86.0,9,15,7.0,82.0
135,77.0,1,60,7.0,92.0
136,45.0,3,22,8.0,93.0
137,61.0,32,22,8.0,95.0
138,85.0,14,60,7.0,106.0
139,76.0,2,60,7.0,92.0
140,57.0,26,20,7.0,93.0
141,45.0,4,20,8.0,95.0
142,61.0,15,20,7.0,97.0
143,49.0,3,20,8.0,98.0
144,64.0,18,20,7.0,102.0
145,52.0,3,20,8.0,103.0
146,69.0,15,22,7.0,99.0
147,57.0,5,22,8.0,98.0
148,57.0,1,30,10.0,100.0
149,67.0,16,22,7.0,98.0
150,55.0,6,22,8.0,98.0
151,57.0,3,60,13.0,72.0
152,45.0,5,60,14.0,72.0
153,65.0,24,22,7.0,98.0
154,53.0,5,22,8.0,98.0
155,64.0,16,22,7.0,98.0
156,52.0,5,22,8.0,97.0
157,55.0,3,60,13.0,72.0
158,43.0,5,60,14.0,72.0
159,65.0,27,22,7.0,98.0
160,53.0,2,22,8.0,98.0
161,62.0,1,105,10.0,115.0
162,69.0,17,22,7.0,98.0
163,57.0,4,22,8.0,97.0
164,69.0,1,60,11.0,72.0
165,57.0,3,60,12.0,72.0
166,65.0,1,8,10.0,100.0
167,53.0,1,60,13.0,72.0
168,41.0,5,60,14.0,72.0
169,64.0,0,8,10.0,100.0
170,67.0,25,22,7.0,97.0
171,65.0,2,8,10.0,100.0
172,55.0,1,22,8.0,98.0
173,64.0,7,8,10.0,100.0
174,62.0,1,15,10.0,100.0
175,64.0,7,22,7.0,97.0
176,52.0,5,22,8.0,97.0
177,64.0,10,15,10.0,100.0
178,67.0,2,60,11.0,72.0
179,55.0,4,60,12.0,72.0
180,52.0,1,60,13.0,72.0
181,40.0,5,60,14.0,72.0
182,62.0,1,22,7.0,98.0
183,50.0,1,22,8.0,98.0
184,65.0,15,30,10.0,100.0
185,65.0,16,22,7.0,97.0
186,53.0,6,22,8.0,98.0
187,65.0,1,60,11.0,72.0
188,53.0,4,60,12.0,72.0
189,50.0,1,60,13.0,72.0
190,38.0,5,60,14.0,72.0
191,64.0,25,22,7.0,97.0
192,52.0,1,22,8.0,97.0
193,69.0,0,30,10.0,100.0
194,60.0,16,22,7.0,98.0
195,48.0,4,22,8.0,98.0
196,64.0,2,60,11.0,72.0
197,52.0,4,60,12.0,72.0
198,48.0,1,60,13.0,72.0
199,36.0,5,60,14.0,72.0
200,58.0,1,22,7.0,98.0
201,46.0,1,22,8.0,98.0
202,62.0,17,22,7.0,97.0
203,50.0,4,22,8.0,97.0
204,62.0,1,60,11.0,72.0
205,50.0,4,60,12.0,72.0
206,46.0,1,60,13.0,72.0
207,34.0,5,60,14.0,72.0
208,74.0,27,75,10.0,115.0
209,57.0,26,22,7.0,97.0
210,45.0,5,22,8.0,98.0
211,74.0,17,15,10.0,100.0
212,65.0,1,15,11.0,100.0
213,62.0,1,22,7.0,97.0
214,50.0,2,22,8.0,97.0
215,45.0,3,60,13.0,72.0
216,33.0,5,60,14.0,72.0
217,55.0,26,22,7.0,97.0
218,43.0,1,22,8.0,98.0
219,73.0,0,30,10.0,100.0
220,64.0,2,30,11.0,100.0
221,62.0,1,30,4.0,100.0
222,50.0,0,30,4.0,100.0
223,62.0,17,22,7.0,98.0
224,74.0,0,25,10.0,100.0
225,50.0,2,22,8.0,98.0
226,65.0,2,25,11.0,100.0
227,50.0,3,60,12.0,72.0
228,62.0,3,0,12.0,72.0
229,43.0,1,60,13.0,72.0
230,31.0,5,60,14.0,72.0
231,76.0,26,15,10.0,100.0
232,67.0,2,15,11.0,100.0
233,53.0,0,22,7.0,97.0
234,41.0,1,22,8.0,98.0
235,50.0,1,30,4.0,100.0
236,62.0,0,30,4.0,100.0
237,77.0,0,15,10.0,100.0
238,69.0,2,15,11.0,100.0
239,62.0,17,22,7.0,98.0
240,50.0,1,22,8.0,98.0
241,50.0,0,60,12.0,72.0
242,41.0,1,60,13.0,72.0
243,29.0,5,60,14.0,72.0
244,57.0,1,22,7.0,98.0
245,45.0,0,22,8.0,98.0
246,73.0,27,30,10.0,100.0
247,64.0,1,30,11.0,100.0
248,45.0,0,30,4.0,100.0
249,57.0,2,30,4.0,100.0
250,69.0,16,22,7.0,98.0
251,57.0,5,22,8.0,97.0
252,57.0,3,60,12.0,72.0
253,45.0,1,60,13.0,72.0
254,33.0,5,60,14.0,72.0
255,70.0,25,22,7.0,98.0
256,58.0,4,22,8.0,98.0
257,74.0,0,15,10.0,100.0
258,65.0,2,15,11.0,100.0
259,69.0,27,22,7.0,98.0
260,57.0,2,22,8.0,98.0
261,57.0,25,22,7.0,98.0
262,45.0,0,22,8.0,97.0
263,73.0,1,30,10.0,100.0
264,64.0,2,30,11.0,100.0
265,57.0,0,30,4.0,100.0
266,69.0,2,30,4.0,100.0
267,69.0,16,22,7.0,98.0
268,74.0,1,25,10.0,100.0
269,57.0,3,22,8.0,98.0
270,65.0,2,25,11.0,100.0
271,69.0,3,60,12.0,72.0
272,53.0,1,60,13.0,72.0
273,41.0,5,60,14.0,72.0
274,76.0,25,15,10.0,100.0
275,67.0,1,15,11.0,100.0
276,57.0,1,22,7.0,97.0
277,45.0,1,22,8.0,98.0
278,69.0,0,30,4.0,100.0
279,57.0,1,30,4.0,100.0
280,77.0,17,15,10.0,100.0
281,69.0,1,15,11.0,100.0
282,69.0,1,22,7.0,97.0
283,57.0,3,22,8.0,98.0
284,69.0,3,60,12.0,72.0
285,50.0,1,60,13.0,72.0
286,38.0,5,60,14.0,72.0
287,64.0,2,15,11.0,100.0
288,57.0,24,22,7.0,98.0
289,45.0,1,22,8.0,98.0
290,73.0,1,30,10.0,100.0
291,57.0,2,30,4.0,100.0
292,45.0,0,30,4.0,100.0
293,69.0,17,22,7.0,97.0
294,57.0,4,22,8.0,98.0
295,57.0,2,60,12.0,72.0
296,57.0,1,60,13.0,72.0
297,45.0,5,60,14.0,72.0
298,67.0,26,22,7.0,98.0
299,55.0,5,22,8.0,97.0
300,57.0,25,10,10.0,100.0
301,59.0,6,10,10.0,100.0
302,64.0,0,22,7.0,98.0
303,52.0,4,22,8.0,97.0
304,61.0,10,10,10.0,100.0
305,62.0,0,22,7.0,98.0
306,50.0,3,22,8.0,98.0
307,62.0,10,30,10.0,100.0
308,74.0,1,30,0.0,98.0
309,74.0,0,30,1.0,97.0
310,60.0,18,22,7.0,98.0
311,48.0,2,22,8.0,98.0
312,62.0,4,60,13.0,72.0
313,50.0,5,60,14.0,72.0
314,58.0,27,22,7.0,98.0
315,46.0,3,22,8.0,98.0
316,57.0,17,22,7.0,98.0
317,45.0,5,22,8.0,98.0
318,60.0,4,60,13.0,72.0
319,48.0,5,60,14.0,72.0
320,58.0,24,22,7.0,98.0
321,46.0,2,22,8.0,98.0
322,62.0,0,30,3.0,99.0
323,58.0,4,30,3.0,99.0
324,67.0,0,105,10.0,115.0
325,79.0,1,105,0.0,113.0
326,79.0,0,105,1.0,112.0
327,67.0,0,105,1.0,112.0
328,62.0,17,22,7.0,98.0
329,50.0,5,22,8.0,98.0
330,74.0,3,60,11.0,72.0
331,62.0,3,60,12.0,72.0
332,58.0,1,60,13.0,72.0
333,70.0,1,8,10.0,100.0
334,82.0,1,8,0.0,98.0
335,70.0,2,8,1.0,97.0
336,46.0,1,60,14.0,72.0
337,69.0,0,8,10.0,100.0
338,81.0,1,8,0.0,98.0
339,69.0,3,8,1.0,97.0
340,60.0,24,22,7.0,97.0
341,70.0,2,8,10.0,100.0
342,82.0,1,8,0.0,98.0
343,48.0,1,22,8.0,97.0
344,70.0,3,8,1.0,97.0
345,69.0,3,8,10.0,100.0
346,81.0,1,8,0.0,98.0
347,69.0,3,8,1.0,97.0
348,57.0,1,30,3.0,99.0
349,60.0,0,30,3.0,99.0
350,67.0,0,15,10.0,100.0
351,79.0,1,15,0.0,98.0
352,67.0,0,15,1.0,97.0
353,57.0,4,22,7.0,98.0
354,45.0,3,22,8.0,98.0
355,69.0,11,15,10.0,100.0
356,81.0,1,15,0.0,98.0
357,72.0,1,60,11.0,72.0
358,69.0,3,15,1.0,97.0
359,60.0,2,60,12.0,72.0
360,57.0,0,60,13.0,72.0
361,45.0,1,60,14.0,72.0
362,55.0,0,22,7.0,98.0
363,43.0,0,22,8.0,98.0
364,70.0,11,30,10.0,100.0
365,82.0,1,30,0.0,98.0
366,70.0,2,30,1.0,97.0
367,55.0,0,30,3.0,99.0
368,58.0,4,30,3.0,99.0
369,58.0,17,22,7.0,97.0
370,46.0,4,22,8.0,98.0
371,70.0,1,60,11.0,72.0
372,58.0,3,60,12.0,72.0
373,55.0,1,60,13.0,72.0
374,43.0,1,60,14.0,72.0
375,57.0,1,22,7.0,98.0
376,45.0,0,22,8.0,98.0
377,74.0,26,30,10.0,100.0
378,86.0,0,30,0.0,98.0
379,74.0,2,30,1.0,97.0
380,53.0,4,30,3.0,99.0
381,57.0,0,30,3.0,99.0
382,53.0,17,22,7.0,98.0
383,41.0,5,22,8.0,97.0
384,69.0,1,60,11.0,72.0
385,57.0,3,60,12.0,72.0
386,53.0,1,60,13.0,72.0
387,41.0,1,60,14.0,72.0
388,55.0,0,22,7.0,97.0
389,39.0,1,22,8.0,97.0
390,51.0,4,30,3.0,99.0
391,55.0,0,30,3.0,99.0
392,67.0,17,22,7.0,98.0
393,51.0,5,22,8.0,98.0
394,67.0,1,60,11.0,72.0
395,55.0,3,60,12.0,72.0
396,51.0,1,60,13.0,72.0
397,39.0,1,60,14.0,72.0
398,53.0,26,22,7.0,98.0
399,38.0,2,22,8.0,97.0
400,50.0,4,30,3.0,99.0
401,53.0,0,30,3.0,99.0
402,79.0,25,105,10.0,115.0
403,91.0,1,105,0.0,113.0
404,79.0,1,105,1.0,112.0
405,65.0,18,22,7.0,97.0
406,50.0,3,22,8.0,97.0
407,65.0,1,60,11.0,72.0
408,53.0,3,60,12.0,72.0
409,50.0,1,60,13.0,72.0
410,38.0,1,60,14.0,72.0
411,52.0,0,22,7.0,98.0
412,37.0,0,22,8.0,98.0
413,82.0,26,30,10.0,100.0
414,91.0,0,30,0.0,98.0
415,94.0,1,30,0.0,98.0
416,82.0,2,30,1.0,97.0
417,79.0,0,30,1.0,97.0
418,52.0,0,30,3.0,99.0
419,49.0,4,30,3.0,99.0
420,64.0,16,22,7.0,98.0
421,49.0,5,22,8.0,97.0
422,64.0,1,60,11.0,72.0
423,52.0,3,60,12.0,72.0
424,49.0,1,60,13.0,72.0
425,37.0,1,60,14.0,72.0
426,53.0,25,22,7.0,97.0
427,38.0,1,22,8.0,97.0
428,81.0,1,30,10.0,100.0
429,89.0,1,30,0.0,98.0
430,93.0,0,30,0.0,98.0
431,81.0,0,30,1.0,97.0
432,77.0,2,30,1.0,97.0
433,50.0,4,30,3.0,99.0
434,53.0,0,30,3.0,99.0
435,65.0,16,22,7.0,98.0
436,50.0,5,22,8.0,97.0
437,65.0,1,60,11.0,72.0
438,53.0,2,60,12.0,72.0
439,50.0,1,60,13.0,72.0
440,38.0,1,60,14.0,72.0
441,55.0,0,22,7.0,98.0
442,40.0,1,22,8.0,98.0
443,79.0,26,30,10.0,100.0
444,91.0,1,30,0.0,98.0
445,88.0,0,30,0.0,98.0
446,76.0,1,30,1.0,97.0
447,79.0,0,30,1.0,97.0
448,55.0,0,30,3.0,99.0
449,52.0,4,30,3.0,99.0
450,67.0,16,22,7.0,97.0
451,52.0,4,22,8.0,97.0
452,67.0,1,60,11.0,72.0
453,55.0,3,60,12.0,72.0
454,52.0,1,60,13.0,72.0
455,40.0,1,60,14.0,72.0
456,57.0,26,22,7.0,97.0
457,41.0,0,22,8.0,98.0
458,77.0,1,30,10.0,100.0
459,89.0,1,30,0.0,98.0
460,86.0,0,30,0.0,98.0
461,77.0,0,30,1.0,97.0
462,74.0,2,30,1.0,97.0
463,57.0,4,30,3.0,99.0
464,53.0,0,30,3.0,99.0
465,69.0,17,22,7.0,98.0
466,53.0,4,22,8.0,97.0
467,69.0,1,60,11.0,72.0
468,57.0,3,60,12.0,72.0
469,53.0,1,60,13.0,72.0
470,41.0,1,60,14.0,72.0
471,58.0,26,22,7.0,98.0
472,43.0,1,22,8.0,97.0
473,76.0,0,30,10.0,100.0
474,85.0,1,30,0.0,98.0
475,88.0,0,30,0.0,98.0
476,73.0,0,30,1.0,97.0
477,76.0,2,30,1.0,97.0
478,58.0,0,30,3.0,99.0
479,55.0,4,30,3.0,99.0
480,70.0,17,22,7.0,97.0
481,55.0,4,22,8.0,98.0
482,70.0,1,60,11.0,72.0
483,58.0,2,60,12.0,72.0
484,55.0,1,60,13.0,72.0
485,76.0,26,8,10.0,100.0
486,43.0,1,60,14.0,72.0
487,74.0,2,8,10.0,100.0
488,86.0,0,8,0.0,98.0
489,74.0,3,8,1.0,97.0
490,59.0,0,22,7.0,98.0
491,76.0,2,8,10.0,100.0
492,88.0,1,8,0.0,98.0
493,76.0,3,8,1.0,97.0
494,44.0,1,22,8.0,98.0
495,74.0,3,8,10.0,100.0
496,86.0,1,8,0.0,98.0
497,74.0,3,8,1.0,97.0
498,59.0,0,30,3.0,99.0
499,56.0,1,30,3.0,99.0
500,73.0,1,15,10.0,100.0
501,85.0,1,15,0.0,98.0
502,73.0,1,15,1.0,97.0
503,71.0,3,22,7.0,97.0
504,56.0,2,22,8.0,98.0
505,74.0,11,15,10.0,100.0
506,82.0,1,60,0.0,98.0
507,86.0,1,15,0.0,98.0
508,71.0,1,60,11.0,72.0
509,74.0,3,15,1.0,97.0
510,70.0,2,60,1.0,97.0
511,59.0,0,60,12.0,72.0
512,56.0,1,60,13.0,72.0
513,44.0,1,60,14.0,72.0
514,61.0,0,22,7.0,97.0
515,45.0,0,22,8.0,97.0
516,61.0,0,30,3.0,99.0
517,57.0,4,30,3.0,99.0
518,73.0,18,22,7.0,98.0
519,57.0,4,22,8.0,98.0
520,73.0,11,60,10.0,100.0
521,81.0,1,60,0.0,98.0
522,85.0,0,60,0.0,98.0
523,69.0,1,60,11.0,72.0
524,69.0,0,60,1.0,97.0
525,73.0,2,60,1.0,97.0
526,57.0,3,60,12.0,72.0
527,57.0,1,60,13.0,72.0
528,45.0,1,60,14.0,72.0
529,69.0,31,8,7.0,99.0
530,70.0,8,8,7.0,95.0
531,69.0,9,8,7.0,93.0
532,68.0,7,15,7.0,92.0
533,69.0,14,15,7.0,87.0
534,49.0,6,22,8.0,76.0
535,82.0,14,30,7.0,106.0
536,79.0,1,30,7.0,93.0
537,57.0,29,22,8.0,74.0
538,50.0,4,22,8.0,74.0
539,81.0,23,30,7.0,100.0
540,77.0,4,30,7.0,89.0
541,57.0,30,22,8.0,70.0
542,52.0,4,22,8.0,67.0
543,79.0,23,30,7.0,97.0
544,76.0,2,30,7.0,85.0
545,57.0,31,22,8.0,67.0
546,53.0,4,22,8.0,63.0
547,77.0,23,30,7.0,93.0
548,74.0,2,30,7.0,80.0
549,57.0,31,22,8.0,63.0
550,55.0,3,22,8.0,62.0
551,76.0,24,30,7.0,89.0
552,73.0,1,30,7.0,78.0
553,57.0,32,22,8.0,61.0
554,74.0,5,8,7.0,73.0
555,76.0,8,8,7.0,67.0
556,53.0,3,22,8.0,61.0
557,74.0,6,8,7.0,68.0
558,73.0,8,15,7.0,67.0
559,57.0,3,22,8.0,62.0
560,74.0,13,15,7.0,67.0
561,52.0,6,22,8.0,62.0
562,73.0,11,55,7.0,89.0
563,64.0,31,22,8.0,63.0
564,69.0,25,120,7.0,78.0
565,57.0,8,22,8.0,63.0
566,64.0,23,22,8.0,61.0
567,61.0,7,60,3.0,99.0
568,56.0,30,22,8.0,62.0
569,64.0,23,22,8.0,63.0
570,76.0,23,120,7.0,110.0
571,74.0,3,8,7.0,71.0
572,76.0,8,8,7.0,67.0
573,52.0,28,22,8.0,61.0
574,74.0,7,8,7.0,68.0
575,73.0,10,15,7.0,67.0
576,64.0,3,22,8.0,61.0
577,74.0,12,15,7.0,68.0
578,59.0,7,120,3.0,99.0
579,57.0,7,22,8.0,61.0
580,73.0,11,55,7.0,88.0
581,64.0,23,22,8.0,61.0
582,61.0,8,60,3.0,99.0
583,55.0,5,22,8.0,61.0
584,64.0,21,22,8.0,61.0
585,59.0,8,60,3.0,99.0
586,54.0,30,22,8.0,63.0
587,64.0,23,22,8.0,62.0
588,76.0,24,120,7.0,110.0
589,58.0,9,60,3.0,99.0
590,74.0,3,8,7.0,71.0
591,76.0,3,8,7.0,63.0
592,59.0,28,22,8.0,60.0
593,74.0,7,8,7.0,65.0
594,73.0,9,15,7.0,66.0
595,64.0,3,22,8.0,60.0
596,76.0,11,15,7.0,65.0
597,59.0,6,60,3.0,99.0
598,58.0,5,22,8.0,57.0
599,73.0,14,55,7.0,86.0
600,64.0,23,22,8.0,56.0
601,55.0,7,22,8.0,55.0
602,67.0,31,22,8.0,57.0
603,61.0,8,120,3.0,99.0
604,56.0,30,22,8.0,52.0
605,68.0,22,22,8.0,52.0
606,76.0,22,120,7.0,100.0
607,75.0,1,8,7.0,62.0
608,76.0,8,8,7.0,56.0
609,60.0,31,22,8.0,54.0
610,75.0,8,8,7.0,55.0
611,73.0,8,15,7.0,55.0
612,68.0,3,22,8.0,52.0
613,75.0,11,15,7.0,54.0
614,66.0,7,120,3.0,91.0
615,61.0,6,22,8.0,50.0
616,73.0,15,55,7.0,74.0
617,68.0,22,22,8.0,50.0
618,56.0,7,22,8.0,51.0
619,68.0,31,22,8.0,50.0
620,76.0,23,85,7.0,76.0
621,61.0,30,22,8.0,51.0
622,68.0,6,22,8.0,51.0
623,73.0,24,30,7.0,66.0
624,56.0,6,22,8.0,50.0
625,68.0,29,22,8.0,51.0
626,76.0,24,85,7.0,75.0
627,61.0,29,22,8.0,51.0
628,68.0,5,22,8.0,51.0
629,73.0,25,30,7.0,66.0
630,56.0,8,22,8.0,50.0
631,68.0,28,22,8.0,50.0
632,76.0,24,85,7.0,76.0
633,61.0,32,22,8.0,50.0
634,68.0,7,22,8.0,49.0
635,73.0,22,30,7.0,52.0
636,56.0,7,22,8.0,43.0
637,64.0,7,480,3.0,91.0
638,76.0,24,85,7.0,63.0
639,68.0,30,55,8.0,48.0
640,73.0,54,30,7.0,57.0
641,61.0,4,30,8.0,57.0
642,76.0,27,22,7.0,56.0
643,64.0,5,22,8.0,55.0
644,73.0,24,30,7.0,68.0
645,61.0,4,30,8.0,68.0
646,76.0,28,22,7.0,65.0
647,64.0,2,22,8.0,68.0
648,68.0,26,30,7.0,77.0
649,56.0,4,30,8.0,78.0
650,73.0,28,22,7.0,70.0
651,61.0,4,22,8.0,70.0
652,68.0,24,30,7.0,81.0
653,56.0,6,30,8.0,81.0
654,73.0,25,22,7.0,77.0
655,61.0,5,22,8.0,75.0
656,64.0,25,30,7.0,87.0
657,52.0,3,30,8.0,86.0
658,68.0,28,22,7.0,80.0
659,56.0,2,22,8.0,80.0
660,64.0,27,30,7.0,91.0
661,52.0,5,30,8.0,91.0
662,68.0,26,22,7.0,84.0
663,56.0,4,22,8.0,84.0
664,61.0,24,30,7.0,95.0
665,49.0,4,30,8.0,95.0
666,64.0,27,22,7.0,88.0
667,52.0,3,22,8.0,87.0
668,61.0,27,30,7.0,98.0
669,49.0,4,30,8.0,98.0
670,64.0,26,22,7.0,89.0
671,52.0,5,22,8.0,90.0
672,56.0,26,30,7.0,105.0
673,44.0,3,30,8.0,105.0
674,61.0,26,22,7.0,95.0
675,49.0,4,22,8.0,95.0
676,57.0,25,30,7.0,115.0
677,45.0,6,30,8.0,115.0
678,61.0,25,22,7.0,95.0
679,49.0,5,22,8.0,95.0
680,56.0,25,30,7.0,103.0
681,44.0,3,30,8.0,105.0
682,61.0,26,22,7.0,96.0
683,49.0,4,22,8.0,95.0
684,55.0,26,30,7.0,106.0
685,43.0,6,30,8.0,106.0
686,61.0,24,22,7.0,97.0
687,49.0,6,22,8.0,96.0
688,56.0,26,30,7.0,106.0
689,44.0,3,30,8.0,110.0
690,61.0,27,22,7.0,98.0
691,49.0,4,22,8.0,98.0
692,57.0,26,30,7.0,119.0
693,45.0,2,30,8.0,119.0
694,61.0,27,22,7.0,100.0
695,49.0,4,22,8.0,99.0
696,56.0,25,30,7.0,110.0
697,44.0,6,30,8.0,110.0
698,61.0,26,22,7.0,100.0
699,49.0,2,22,8.0,100.0
700,55.0,26,30,7.0,111.0
701,43.0,5,30,8.0,110.0
702,61.0,26,22,7.0,102.0
703,49.0,3,22,8.0,102.0
704,56.0,26,30,7.0,111.0
705,44.0,4,30,8.0,111.0
706,61.0,28,22,7.0,102.0
707,49.0,3,22,8.0,102.0
708,57.0,25,30,7.0,121.0
709,45.0,6,30,8.0,123.0
710,61.0,26,22,7.0,103.0
711,49.0,2,22,8.0,102.0
712,61.0,26,30,7.0,114.0
713,49.0,6,30,8.0,112.0
714,64.0,25,22,7.0,106.0
715,52.0,4,22,8.0,106.0
716,64.0,25,30,7.0,113.0
717,52.0,6,30,8.0,113.0
718,67.0,24,22,7.0,106.0
719,55.0,5,22,8.0,107.0
720,67.0,27,30,7.0,114.0
721,55.0,4,30,8.0,115.0
722,73.0,26,22,7.0,110.0
723,61.0,2,22,8.0,110.0
724,73.0,26,30,7.0,118.0
725,61.0,5,30,8.0,118.0
726,76.0,25,22,7.0,113.0
727,64.0,4,22,8.0,113.0
728,76.0,28,30,7.0,123.0
729,64.0,3,30,8.0,121.0
730,79.0,25,22,7.0,116.0
731,67.0,4,22,8.0,117.0
732,79.0,26,30,7.0,127.0
733,67.0,4,30,8.0,127.0
734,85.0,26,22,7.0,120.0
735,73.0,4,22,8.0,121.0
736,85.0,26,30,7.0,127.0
737,73.0,6,30,8.0,127.0
738,88.0,24,22,7.0,123.0
739,76.0,4,22,8.0,124.0
740,88.0,26,30,7.0,127.0
741,76.0,5,30,8.0,127.0
742,91.0,25,20,7.0,121.0
743,79.0,5,20,8.0,120.0
744,89.0,17,20,7.0,121.0
745,77.0,4,20,8.0,120.0
746,88.0,14,20,7.0,121.0
747,76.0,4,20,8.0,120.0
748,86.0,17,20,7.0,121.0
749,74.0,5,20,8.0,121.0
750,85.0,16,20,7.0,121.0
751,73.0,4,20,8.0,121.0
752,82.0,16,20,7.0,121.0
753,70.0,4,20,8.0,121.0
754,81.0,14,20,7.0,121.0
755,69.0,6,20,8.0,121.0
756,79.0,15,20,7.0,121.0
757,67.0,3,20,8.0,121.0
758,77.0,18,20,7.0,121.0
759,65.0,2,20,8.0,120.0
760,76.0,17,20,7.0,121.0
761,64.0,5,20,8.0,121.0
762,74.0,14,20,7.0,121.0
763,62.0,6,20,8.0,121.0
764,73.0,15,20,7.0,120.0
765,61.0,5,20,8.0,120.0
766,70.0,16,16,7.0,120.0
767,58.0,3,16,8.0,120.0
768,69.0,11,16,7.0,121.0
769,57.0,6,16,8.0,121.0
770,67.0,11,16,7.0,120.0
771,55.0,4,16,8.0,121.0
772,65.0,11,16,7.0,120.0
773,53.0,4,16,8.0,121.0
774,64.0,13,16,7.0,121.0
775,52.0,4,16,8.0,121.0
776,62.0,13,16,7.0,121.0
777,50.0,3,16,8.0,121.0
778,61.0,13,16,7.0,121.0
779,49.0,4,16,8.0,121.0
780,58.0,12,16,7.0,121.0
781,46.0,4,16,8.0,120.0
782,57.0,12,16,7.0,120.0
783,45.0,4,16,8.0,121.0
784,55.0,13,16,7.0,121.0
785,43.0,3,16,8.0,121.0
786,53.0,13,16,7.0,121.0
787,41.0,3,16,8.0,120.0
788,52.0,12,16,7.0,121.0
789,40.0,5,16,8.0,121.0
790,50.0,12,16,7.0,121.0
791,38.0,4,16,8.0,121.0
792,49.0,12,16,7.0,121.0
793,37.0,4,16,8.0,121.0
794,46.0,11,16,7.0,120.0
795,34.0,4,16,8.0,121.0
796,33.0,4,22,8.0,122.0
797,57.0,8,30,7.0,127.0
798,45.0,4,30,7.0,123.0
799,55.0,22,22,8.0,111.0
800,57.0,2,60,12.0,72.0
801,45.0,1,60,13.0,72.0
802,33.0,5,60,14.0,72.0
803,53.0,5,22,8.0,111.0
804,52.0,30,22,8.0,111.0
805,53.0,0,22,8.0,111.0
806,57.0,30,30,4.0,100.0
807,57.0,22,22,8.0,112.0
808,62.0,24,120,7.0,127.0
809,57.0,3,60,12.0,72.0
810,53.0,1,60,13.0,72.0
811,41.0,5,60,14.0,72.0
812,64.0,1,8,7.0,111.0
813,65.0,2,8,7.0,111.0
814,55.0,1,22,8.0,111.0
815,64.0,7,8,7.0,112.0
816,57.0,29,30,4.0,100.0
817,62.0,9,15,7.0,112.0
818,52.0,3,22,8.0,111.0
819,64.0,12,15,7.0,111.0
820,55.0,2,60,12.0,72.0
821,52.0,0,60,13.0,72.0
822,40.0,5,60,14.0,72.0
823,50.0,0,22,8.0,111.0
824,65.0,11,30,7.0,120.0
825,57.0,7,30,4.0,100.0
826,53.0,21,22,8.0,111.0
827,53.0,3,60,12.0,72.0
828,50.0,1,60,13.0,72.0
829,38.0,5,60,14.0,72.0
830,52.0,1,22,8.0,111.0
831,69.0,25,30,7.0,121.0
832,64.0,1,30,7.0,111.0
833,57.0,4,30,4.0,100.0
834,48.0,22,22,8.0,112.0
835,52.0,2,60,12.0,72.0
836,48.0,1,60,13.0,72.0
837,36.0,5,60,14.0,72.0
838,46.0,0,22,8.0,111.0
839,62.0,5,30,4.0,100.0
840,50.0,20,22,8.0,111.0
841,50.0,3,60,12.0,72.0
842,46.0,1,60,13.0,72.0
843,34.0,5,60,14.0,72.0
844,74.0,22,85,7.0,121.0
845,65.0,2,85,7.0,111.0
846,45.0,32,22,8.0,111.0
847,74.0,15,25,7.0,121.0
848,50.0,2,22,8.0,112.0
849,65.0,3,25,7.0,111.0
850,45.0,3,60,13.0,72.0
851,33.0,5,60,14.0,72.0
852,73.0,24,30,7.0,120.0
853,43.0,1,22,8.0,111.0
854,64.0,2,30,7.0,111.0
855,62.0,0,30,4.0,100.0
856,50.0,5,30,4.0,100.0
857,74.0,14,25,7.0,121.0
858,65.0,2,25,7.0,111.0
859,50.0,4,22,8.0,111.0
860,62.0,2,60,12.0,72.0
861,43.0,1,60,13.0,72.0
862,76.0,24,15,7.0,121.0
863,31.0,5,60,14.0,72.0
864,67.0,4,15,7.0,111.0
865,41.0,1,22,8.0,111.0
866,62.0,0,30,4.0,100.0
867,50.0,3,30,4.0,100.0
868,77.0,16,15,7.0,121.0
869,69.0,1,15,7.0,111.0
870,50.0,3,22,8.0,112.0
871,62.0,2,60,12.0,72.0
872,41.0,1,60,13.0,72.0
873,29.0,5,60,14.0,72.0
874,45.0,4,22,8.0,111.0
875,57.0,1,30,4.0,100.0
876,45.0,0,30,4.0,100.0
877,57.0,20,22,8.0,111.0
878,73.0,24,60,7.0,121.0
879,64.0,2,60,7.0,112.0
880,57.0,3,60,12.0,72.0
881,45.0,1,60,13.0,72.0
882,33.0,5,60,14.0,72.0
883,58.0,30,22,8.0,111.0
884,57.0,3,22,8.0,112.0
885,74.0,25,30,7.0,121.0
886,65.0,3,30,7.0,111.0
887,41.0,3,22,8.0,111.0
888,73.0,25,30,7.0,121.0
889,64.0,1,30,7.0,111.0
890,57.0,0,30,4.0,100.0
891,69.0,1,30,4.0,100.0
892,74.0,14,25,7.0,121.0
893,65.0,2,25,7.0,111.0
894,53.0,5,22,8.0,111.0
895,69.0,3,0,12.0,72.0
896,41.0,1,60,13.0,72.0
897,76.0,23,15,7.0,121.0
898,29.0,5,60,14.0,72.0
899,67.0,2,15,7.0,111.0
900,40.0,5,22,8.0,111.0
901,57.0,0,30,4.0,100.0
902,69.0,0,30,4.0,100.0
903,77.0,15,15,7.0,120.0
904,69.0,2,15,7.0,111.0
905,52.0,4,22,8.0,112.0
906,38.0,1,60,13.0,72.0
907,26.0,5,60,14.0,72.0
908,45.0,0,22,8.0,111.0
909,57.0,0,30,4.0,100.0
910,45.0,4,30,4.0,100.0
911,57.0,21,22,8.0,111.0
912,73.0,24,60,7.0,121.0
913,64.0,2,60,7.0,111.0
914,57.0,0,0,12.0,100.0
915,45.0,1,60,13.0,72.0
916,33.0,5,60,14.0,72.0
917,55.0,31,22,8.0,111.0
918,57.0,23,10,10.0,89.0
919,69.0,1,10,0.0,98.0
920,57.0,1,10,11.0,89.0
921,69.0,2,10,1.0,97.0
922,69.0,1,10,2.0,98.0
923,59.0,4,10,10.0,90.0
924,71.0,1,10,0.0,98.0
925,57.0,0,10,3.0,99.0
926,59.0,1,10,11.0,90.0
927,71.0,2,10,1.0,97.0
928,71.0,2,10,2.0,98.0
929,52.0,1,22,8.0,112.0
930,61.0,4,10,10.0,93.0
931,73.0,1,10,0.0,98.0
932,61.0,0,10,11.0,93.0
933,59.0,1,10,3.0,99.0
934,73.0,2,10,1.0,97.0
935,73.0,2,10,2.0,98.0
936,69.0,2,60,12.0,100.0
937,61.0,0,10,3.0,99.0
938,62.0,1,20,13.0,94.0
939,62.0,4,30,10.0,94.0
940,74.0,1,30,0.0,98.0
941,62.0,1,30,11.0,94.0
942,62.0,4,20,3.0,99.0
943,50.0,1,20,14.0,94.0
944,74.0,1,30,1.0,97.0
945,74.0,1,30,2.0,98.0
946,60.0,23,20,13.0,102.0
947,60.0,4,20,3.0,99.0
948,74.0,0,60,6.0,120.0
949,62.0,1,60,6.0,120.0
950,48.0,1,20,14.0,102.0
951,50.0,1,60,8.0,111.0
952,68.0,0,60,12.0,94.0
953,57.0,1,60,12.0,94.0
954,50.0,2,60,15.0,87.0
955,58.0,1,20,13.0,110.0
956,58.0,4,20,3.0,99.0
957,46.0,1,20,14.0,110.0
958,57.0,25,20,13.0,110.0
959,57.0,4,20,3.0,99.0
960,45.0,1,20,14.0,110.0
961,58.0,1,80,12.0,126.0
962,62.0,0,80,12.0,126.0
963,58.0,5,20,13.0,110.0
964,58.0,4,20,3.0,99.0
965,74.0,20,30,6.0,120.0
966,62.0,0,30,6.0,120.0
967,46.0,1,20,14.0,110.0
968,67.0,17,105,10.0,126.0
969,50.0,2,30,15.0,87.0
970,79.0,1,105,0.0,113.0
971,67.0,1,105,11.0,126.0
972,67.0,2,105,1.0,112.0
973,79.0,0,105,1.0,112.0
974,74.0,0,105,2.0,113.0
975,67.0,2,105,2.0,113.0
976,62.0,1,20,13.0,110.0
977,62.0,4,20,3.0,99.0
978,50.0,1,20,14.0,110.0
979,50.0,22,30,12.0,110.0
980,70.0,17,8,10.0,110.0
981,82.0,1,8,0.0,98.0
982,70.0,1,8,11.0,110.0
983,70.0,0,8,1.0,97.0
984,82.0,1,8,1.0,97.0
985,79.0,0,8,2.0,98.0
986,70.0,2,8,2.0,98.0
987,69.0,1,8,10.0,110.0
988,81.0,1,8,0.0,98.0
989,69.0,1,8,11.0,110.0
990,81.0,2,8,1.0,97.0
991,69.0,0,8,1.0,97.0
992,69.0,0,8,2.0,98.0
993,78.0,0,8,2.0,98.0
994,70.0,0,8,10.0,110.0
995,82.0,1,8,0.0,98.0
996,70.0,1,8,11.0,110.0
997,70.0,2,8,1.0,97.0
998,82.0,0,8,1.0,97.0
999,60.0,0,20,13.0,110.0
1000,79.0,0,8,2.0,98.0
1001,70.0,2,8,2.0,98.0
1002,69.0,1,8,10.0,110.0
1003,81.0,1,8,0.0,98.0
1004,69.0,1,8,11.0,110.0
1005,60.0,1,20,3.0,99.0
1006,48.0,1,20,14.0,110.0
1007,62.0,1,30,6.0,120.0
1008,74.0,0,30,6.0,120.0
1009,81.0,0,8,1.0,97.0
1010,69.0,2,8,1.0,97.0
1011,69.0,0,8,2.0,98.0
1012,78.0,2,8,2.0,98.0
1013,62.0,0,30,12.0,110.0
1014,79.0,0,8,2.0,98.0
1015,70.0,2,8,2.0,98.0
1016,67.0,2,15,10.0,110.0
1017,50.0,2,30,15.0,87.0
1018,79.0,1,15,0.0,98.0
1019,67.0,1,15,11.0,110.0
1020,67.0,2,15,1.0,97.0
1021,79.0,0,15,1.0,97.0
1022,78.0,1,8,2.0,98.0
1023,69.0,0,8,2.0,98.0
1024,57.0,1,20,13.0,110.0
1025,70.0,2,8,2.0,98.0
1026,79.0,0,8,2.0,98.0
1027,69.0,2,15,10.0,110.0
1028,81.0,1,15,0.0,98.0
1029,69.0,1,15,11.0,110.0
1030,58.0,4,20,3.0,99.0
1031,45.0,0,20,14.0,110.0
1032,81.0,2,15,1.0,97.0
1033,69.0,0,15,1.0,97.0
1034,69.0,7,8,2.0,98.0
1035,78.0,0,8,2.0,98.0
1036,50.0,1,30,12.0,110.0
1037,55.0,1,20,13.0,110.0
1038,70.0,2,30,10.0,110.0
1039,82.0,1,30,0.0,98.0
1040,70.0,1,30,11.0,110.0
1041,55.0,4,20,3.0,99.0
1042,74.0,1,30,6.0,120.0
1043,62.0,0,30,6.0,120.0
1044,43.0,1,20,14.0,110.0
1045,82.0,0,30,1.0,97.0
1046,70.0,1,30,1.0,97.0
1047,79.0,0,30,2.0,98.0
1048,70.0,2,30,2.0,98.0
1049,62.0,1,30,12.0,110.0
1050,50.0,2,30,15.0,87.0
1051,58.0,23,20,13.0,110.0
1052,58.0,4,20,3.0,99.0
1053,46.0,1,20,14.0,110.0
1054,57.0,1,20,13.0,110.0
1055,74.0,17,30,10.0,110.0
1056,86.0,1,30,0.0,98.0
1057,57.0,4,20,3.0,99.0
1058,74.0,1,30,11.0,110.0
1059,62.0,1,30,6.0,120.0
1060,74.0,0,30,6.0,120.0
1061,45.0,1,20,14.0,110.0
1062,74.0,1,30,1.0,97.0
1063,81.0,2,30,2.0,98.0
1064,74.0,0,30,2.0,98.0
1065,50.0,1,30,12.0,110.0
1066,50.0,2,30,15.0,87.0
1067,53.0,23,20,13.0,110.0
1068,53.0,4,20,3.0,99.0
1069,41.0,1,20,14.0,110.0
1070,62.0,0,360,4.0,100.0
1071,50.0,0,360,4.0,100.0
1072,51.0,2,20,13.0,110.0
1073,51.0,4,20,3.0,99.0
1074,39.0,1,20,14.0,110.0
1075,79.0,1,30,6.0,120.0
1076,50.0,2,30,15.0,87.0
1077,79.0,1,50,11.0,126.0
1078,55.0,1,20,13.0,110.0
1079,55.0,4,20,3.0,99.0
1080,43.0,1,20,14.0,110.0
1081,51.0,22,30,12.0,110.0
1082,79.0,17,75,10.0,126.0
1083,91.0,1,75,0.0,113.0
1084,79.0,0,75,1.0,112.0
1085,70.0,0,75,1.0,112.0
1086,79.0,0,75,2.0,113.0
1087,70.0,2,75,2.0,113.0
1088,50.0,1,20,13.0,110.0
1089,50.0,4,20,3.0,99.0
1090,38.0,1,20,14.0,110.0
1091,55.0,24,30,12.0,110.0
1092,67.0,1,110,4.0,115.0
1093,77.0,17,25,10.0,110.0
1094,89.0,1,25,0.0,98.0
1095,55.0,1,20,13.0,110.0
1096,77.0,2,25,1.0,97.0
1097,70.0,0,25,1.0,97.0
1098,77.0,0,25,2.0,98.0
1099,70.0,2,25,2.0,98.0
1100,55.0,4,20,3.0,99.0
1101,65.0,1,30,11.0,110.0
1102,43.0,1,20,14.0,110.0
1103,50.0,1,30,12.0,110.0
1104,64.0,1,10,11.0,110.0
1105,49.0,1,10,12.0,110.0
1106,64.0,4,10,11.0,110.0
1107,76.0,17,30,10.0,110.0
1108,88.0,0,30,0.0,98.0
1109,49.0,5,10,12.0,110.0
1110,76.0,0,30,1.0,97.0
1111,76.0,2,30,2.0,98.0
1112,49.0,1,30,13.0,110.0
1113,64.0,1,10,11.0,110.0
1114,49.0,4,30,3.0,99.0
1115,37.0,1,30,14.0,110.0
1116,49.0,1,10,12.0,110.0
1117,77.0,8,25,10.0,110.0
1118,64.0,10,10,11.0,110.0
1119,89.0,1,27,0.0,98.0
1120,77.0,2,27,1.0,97.0
1121,49.0,5,10,12.0,110.0
1122,77.0,2,27,2.0,98.0
1123,73.0,1,10,11.0,110.0
1124,79.0,8,15,10.0,110.0
1125,91.0,1,15,0.0,98.0
1126,61.0,1,10,12.0,110.0
1127,79.0,2,15,1.0,97.0
1128,79.0,2,15,2.0,98.0
1129,73.0,4,10,11.0,110.0
1130,82.0,1,87,0.0,98.0
1131,70.0,2,87,1.0,97.0
1132,61.0,5,10,12.0,110.0
1133,70.0,0,87,2.0,98.0
1134,45.0,1,30,13.0,110.0
1135,64.0,4,30,3.0,99.0
1136,61.0,0,30,3.0,99.0
1137,73.0,1,10,11.0,110.0
1138,33.0,1,30,14.0,110.0
1139,81.0,8,15,10.0,110.0
1140,93.0,1,15,0.0,98.0
1141,81.0,0,15,0.0,98.0
1142,61.0,1,10,12.0,110.0
1143,69.0,2,15,1.0,97.0
1144,81.0,0,15,1.0,97.0
1145,69.0,0,15,2.0,98.0
1146,81.0,2,15,2.0,98.0
1147,73.0,10,10,11.0,110.0
1148,61.0,5,10,12.0,110.0
1149,74.0,1,10,11.0,110.0
1150,62.0,1,10,12.0,110.0
1151,74.0,4,10,11.0,110.0
1152,74.0,8,30,10.0,110.0
1153,62.0,5,10,12.0,110.0
1154,46.0,1,30,13.0,110.0
1155,74.0,1,10,11.0,110.0
1156,62.0,4,30,3.0,99.0
1157,34.0,1,30,14.0,110.0
1158,62.0,1,10,12.0,110.0
1159,76.0,8,25,10.0,110.0
1160,74.0,10,10,11.0,110.0
1161,88.0,1,27,0.0,98.0
1162,76.0,2,27,1.0,97.0
1163,62.0,5,10,12.0,110.0
1164,76.0,2,27,2.0,98.0
1165,70.0,1,10,11.0,110.0
1166,77.0,8,15,10.0,110.0
1167,89.0,1,15,0.0,98.0
1168,58.0,1,10,12.0,110.0
1169,77.0,2,15,1.0,97.0
1170,77.0,2,15,2.0,98.0
1171,70.0,4,10,11.0,110.0
1172,86.0,1,87,0.0,98.0
1173,74.0,2,87,1.0,97.0
1174,58.0,5,10,12.0,110.0
1175,74.0,2,87,2.0,98.0
1176,43.0,1,30,13.0,110.0
1177,70.0,1,10,11.0,110.0
1178,58.0,4,30,3.0,99.0
1179,55.0,0,30,3.0,99.0
1180,31.0,1,30,14.0,110.0
1181,79.0,8,15,10.0,110.0
1182,82.0,0,15,0.0,98.0
1183,91.0,1,15,0.0,98.0
1184,58.0,1,10,12.0,110.0
1185,79.0,0,15,1.0,97.0
1186,70.0,2,15,1.0,97.0
1187,79.0,0,15,2.0,98.0
1188,70.0,2,15,2.0,98.0
1189,70.0,10,10,11.0,110.0
1190,58.0,5,10,12.0,110.0
1191,64.0,1,10,11.0,110.0
1192,52.0,1,10,12.0,110.0
1193,64.0,2,10,11.0,110.0
1194,72.0,8,30,10.0,110.0
1195,52.0,5,10,12.0,110.0
1196,64.0,1,10,11.0,110.0
1197,52.0,1,10,12.0,110.0
1198,74.0,8,25,10.0,110.0
1199,64.0,10,10,11.0,110.0
1200,86.0,1,27,0.0,98.0
1201,74.0,2,27,1.0,97.0
1202,52.0,5,10,12.0,110.0
1203,74.0,2,27,2.0,98.0
1204,72.0,1,10,11.0,110.0
1205,76.0,8,15,10.0,110.0
1206,88.0,1,15,0.0,98.0
1207,60.0,1,10,12.0,110.0
1208,76.0,2,15,1.0,97.0
1209,76.0,2,15,2.0,98.0
1210,72.0,10,10,11.0,110.0
1211,84.0,1,87,0.0,98.0
1212,69.0,0,85,6.0,120.0
1213,57.0,1,85,6.0,120.0
1214,64.0,0,85,4.0,100.0
1215,57.0,1,85,4.0,100.0
1216,72.0,0,87,1.0,97.0
1217,60.0,5,10,12.0,110.0
1218,45.0,1,85,13.0,110.0
1219,72.0,2,87,2.0,98.0
1220,57.0,4,85,3.0,99.0
1221,64.0,0,85,3.0,99.0
1222,33.0,1,85,14.0,110.0
1223,45.0,2,85,15.0,87.0
1224,72.0,1,10,11.0,110.0
1225,77.0,8,15,10.0,110.0
1226,89.0,1,15,0.0,98.0
1227,84.0,0,15,0.0,98.0
1228,60.0,1,10,12.0,110.0
1229,72.0,0,15,1.0,97.0
1230,77.0,1,15,1.0,97.0
1231,72.0,0,15,2.0,98.0
1232,77.0,2,15,2.0,98.0
1233,72.0,2,10,11.0,110.0
1234,57.0,1,25,6.0,120.0
1235,69.0,0,25,6.0,120.0
1236,64.0,0,25,4.0,100.0
1237,57.0,0,25,4.0,100.0
1238,60.0,5,10,12.0,110.0
1239,45.0,1,25,13.0,110.0
1240,57.0,4,25,3.0,99.0
1241,60.0,0,25,3.0,99.0
1242,33.0,1,25,14.0,110.0
1243,45.0,2,25,15.0,87.0
1244,62.0,1,10,11.0,110.0
1245,50.0,1,10,12.0,110.0
1246,62.0,2,10,11.0,110.0
1247,50.0,5,10,12.0,110.0
1248,64.0,10,10,11.0,110.0
1249,52.0,5,10,12.0,110.0
1250,64.0,10,10,11.0,110.0
1251,70.0,8,60,10.0,110.0
1252,86.0,1,60,0.0,98.0
1253,82.0,0,60,0.0,98.0
1254,52.0,5,10,12.0,110.0
1255,62.0,0,60,6.0,120.0
1256,74.0,1,60,6.0,120.0
1257,62.0,0,60,4.0,100.0
1258,70.0,1,60,1.0,97.0
1259,74.0,0,60,1.0,97.0
1260,74.0,2,60,2.0,98.0
1261,70.0,0,60,2.0,98.0
1262,46.0,1,60,13.0,110.0
1263,58.0,4,60,3.0,99.0
1264,65.0,10,10,11.0,110.0
1265,34.0,1,60,14.0,110.0
1266,50.0,2,60,15.0,87.0
1267,53.0,5,10,12.0,110.0
1268,65.0,10,10,11.0,110.0
1269,53.0,5,10,12.0,110.0
1270,67.0,1,10,11.0,110.0
1271,55.0,1,10,12.0,110.0
1272,67.0,10,10,11.0,110.0
1273,74.0,8,30,10.0,110.0
1274,86.0,1,30,0.0,98.0
1275,55.0,5,10,12.0,110.0
1276,70.0,2,30,1.0,97.0
1277,74.0,0,30,1.0,97.0
1278,74.0,0,30,2.0,98.0
1279,70.0,2,30,2.0,98.0
1280,60.0,1,10,11.0,110.0
1281,52.0,1,10,12.0,110.0
1282,60.0,4,10,11.0,110.0
1283,72.0,8,30,10.0,110.0
1284,52.0,5,10,12.0,110.0
1285,45.0,1,30,13.0,110.0
1286,60.0,1,10,11.0,110.0
1287,57.0,0,30,3.0,99.0
1288,45.0,4,30,3.0,99.0
1289,33.0,1,30,14.0,110.0
1290,52.0,1,10,12.0,110.0
1291,74.0,8,25,10.0,110.0
1292,60.0,10,10,11.0,110.0
1293,86.0,1,27,0.0,98.0
1294,74.0,2,27,1.0,97.0
1295,52.0,5,10,12.0,110.0
1296,74.0,2,27,2.0,98.0
1297,69.0,1,10,11.0,110.0
1298,76.0,8,15,10.0,110.0
1299,88.0,1,15,0.0,98.0
1300,57.0,1,10,12.0,110.0
1301,76.0,2,15,1.0,97.0
1302,76.0,2,15,2.0,98.0
1303,69.0,4,10,11.0,110.0
1304,84.0,1,87,0.0,98.0
1305,72.0,2,87,1.0,97.0
1306,57.0,5,10,12.0,110.0
1307,72.0,2,87,2.0,98.0
1308,41.0,1,30,13.0,110.0
1309,60.0,0,30,3.0,99.0
1310,57.0,4,30,3.0,99.0
1311,69.0,1,10,11.0,110.0
1312,29.0,1,30,14.0,110.0
1313,77.0,8,15,10.0,110.0
1314,81.0,1,15,0.0,98.0
1315,89.0,0,15,0.0,98.0
1316,57.0,1,10,12.0,110.0
1317,77.0,2,15,1.0,97.0
1318,69.0,0,15,1.0,97.0
1319,77.0,2,15,2.0,98.0
1320,69.0,0,15,2.0,98.0
1321,69.0,10,10,11.0,110.0
1322,57.0,5,10,12.0,110.0
1323,70.0,1,10,11.0,110.0
1324,58.0,1,10,12.0,110.0
1325,70.0,4,10,11.0,110.0
1326,70.0,8,30,10.0,110.0
1327,58.0,5,10,12.0,110.0
1328,43.0,1,30,13.0,110.0
1329,70.0,1,10,11.0,110.0
1330,55.0,0,30,3.0,99.0
1331,58.0,4,30,3.0,99.0
1332,31.0,1,30,14.0,110.0
1333,58.0,1,10,12.0,110.0
1334,72.0,8,25,10.0,110.0
1335,70.0,10,10,11.0,110.0
1336,84.0,1,27,0.0,98.0
1337,72.0,2,27,1.0,97.0
1338,58.0,5,10,12.0,110.0
1339,72.0,2,27,2.0,98.0
1340,67.0,1,10,11.0,110.0
1341,74.0,8,15,10.0,110.0
1342,86.0,1,15,0.0,98.0
1343,55.0,1,10,12.0,110.0
1344,74.0,2,15,1.0,97.0
1345,74.0,2,15,2.0,98.0
1346,67.0,4,10,11.0,110.0
1347,82.0,1,87,0.0,98.0
1348,70.0,2,87,1.0,97.0
1349,55.0,5,10,12.0,110.0
1350,70.0,2,87,2.0,98.0
1351,40.0,1,30,13.0,110.0
1352,55.0,4,30,3.0,99.0
1353,67.0,1,10,11.0,110.0
1354,28.0,1,30,14.0,110.0
1355,76.0,8,15,10.0,110.0
1356,79.0,0,15,0.0,98.0
1357,88.0,1,15,0.0,98.0
1358,55.0,1,10,12.0,110.0
1359,76.0,0,15,1.0,97.0
1360,67.0,2,15,1.0,97.0
1361,76.0,0,15,2.0,98.0
1362,67.0,2,15,2.0,98.0
1363,67.0,10,10,11.0,110.0
1364,55.0,5,10,12.0,110.0
1365,60.0,1,10,11.0,110.0
1366,48.0,1,10,12.0,110.0
1367,60.0,2,10,11.0,110.0
1368,69.0,8,30,10.0,110.0
1369,48.0,5,10,12.0,110.0
1370,60.0,1,10,11.0,110.0
1371,48.0,1,10,12.0,110.0
1372,70.0,8,25,10.0,110.0
1373,60.0,10,10,11.0,110.0
1374,82.0,1,27,0.0,98.0
1375,70.0,2,27,1.0,97.0
1376,48.0,5,10,12.0,110.0
1377,70.0,2,27,2.0,98.0
1378,69.0,1,10,11.0,110.0
1379,72.0,8,15,10.0,110.0
1380,84.0,1,15,0.0,98.0
1381,57.0,1,10,12.0,110.0
1382,72.0,2,15,1.0,97.0
1383,72.0,2,15,2.0,98.0
1384,53.0,0,75,5.0,94.0
1385,60.0,0,75,5.0,94.0
1386,69.0,10,10,11.0,110.0
1387,81.0,1,87,0.0,98.0
1388,69.0,2,87,1.0,97.0
1389,57.0,5,10,12.0,110.0
1390,41.0,1,85,13.0,110.0
1391,69.0,2,87,2.0,98.0
1392,60.0,0,85,3.0,99.0
1393,53.0,4,85,3.0,99.0
1394,29.0,1,85,14.0,110.0
1395,45.0,2,85,15.0,87.0
1396,69.0,1,10,11.0,110.0
1397,74.0,8,15,10.0,110.0
1398,86.0,1,15,0.0,98.0
1399,81.0,0,15,0.0,98.0
1400,57.0,1,10,12.0,110.0
1401,69.0,2,15,1.0,97.0
1402,74.0,0,15,1.0,97.0
1403,74.0,0,15,2.0,98.0
1404,69.0,2,15,2.0,98.0
1405,69.0,2,10,11.0,110.0
1406,53.0,0,25,5.0,85.0
1407,60.0,0,25,5.0,85.0
1408,57.0,5,10,12.0,110.0
1409,41.0,1,25,13.0,110.0
1410,57.0,0,25,3.0,99.0
1411,53.0,4,25,3.0,99.0
1412,58.0,1,5,11.0,126.0
1413,29.0,1,25,14.0,110.0
1414,45.0,2,25,15.0,87.0
1415,58.0,1,5,12.0,126.0
1416,58.0,2,10,11.0,123.0
1417,58.0,5,10,12.0,123.0
1418,60.0,10,10,11.0,118.0
1419,60.0,5,10,12.0,118.0
1420,60.0,10,10,11.0,114.0
1421,67.0,8,60,10.0,93.0
1422,79.0,0,60,0.0,83.0
1423,82.0,1,60,0.0,83.0
1424,60.0,5,10,12.0,114.0
1425,67.0,2,60,1.0,82.0
1426,70.0,0,60,1.0,82.0
1427,58.0,0,60,5.0,72.0
1428,70.0,0,60,2.0,83.0
1429,67.0,2,60,2.0,83.0
1430,50.0,0,60,5.0,72.0
1431,43.0,1,60,13.0,110.0
1432,55.0,0,60,3.0,84.0
1433,58.0,4,60,3.0,84.0
1434,62.0,10,10,11.0,110.0
1435,31.0,1,60,14.0,110.0
1436,50.0,2,60,15.0,73.0
1437,62.0,5,10,12.0,110.0
1438,62.0,10,10,11.0,110.0
1439,62.0,5,10,12.0,110.0
1440,64.0,2,10,11.0,110.0
1441,65.0,5,10,12.0,110.0
1442,70.0,8,25,10.0,110.0
1443,64.0,4,10,11.0,110.0
1444,65.0,5,10,12.0,110.0
1445,62.0,1,25,13.0,110.0
1446,31.0,5,25,14.0,110.0
1447,60.0,1,25,13.0,110.0
1448,60.0,25,25,13.0,110.0
1449,36.0,5,60,14.0,110.0
1450,70.0,8,90,10.0,98.0
1451,67.0,2,90,11.0,98.0
1452,60.0,30,25,13.0,108.0
1453,64.0,5,90,12.0,98.0
1454,69.0,22,30,10.0,107.0
1455,69.0,2,30,11.0,107.0
1456,60.0,1,25,13.0,107.0
1457,65.0,5,30,12.0,107.0
1458,60.0,1,25,13.0,107.0
1459,72.0,22,60,10.0,107.0
1460,67.0,2,60,11.0,107.0
1461,60.0,30,25,13.0,106.0
1462,64.0,5,60,12.0,107.0
1463,60.0,30,25,13.0,105.0
1464,65.0,22,30,10.0,105.0
1465,65.0,2,30,11.0,105.0
1466,60.0,1,25,13.0,105.0
1467,62.0,5,30,12.0,105.0
1468,60.0,1,25,13.0,104.0
1469,60.0,30,25,13.0,104.0
1470,72.0,22,90,10.0,93.0
1471,67.0,2,90,11.0,93.0
1472,60.0,30,25,13.0,103.0
1473,64.0,5,90,12.0,93.0
1474,69.0,22,30,10.0,102.0
1475,69.0,2,30,11.0,102.0
1476,60.0,1,25,13.0,102.0
1477,65.0,5,30,12.0,102.0
1478,60.0,1,25,13.0,102.0
1479,72.0,22,60,10.0,102.0
1480,67.0,2,60,11.0,102.0
1481,60.0,30,25,13.0,101.0
1482,64.0,5,60,12.0,102.0
1483,60.0,30,25,13.0,101.0
1484,65.0,22,30,10.0,100.0
1485,65.0,2,30,11.0,100.0
1486,60.0,1,25,13.0,100.0
1487,62.0,5,30,12.0,100.0
1488,60.0,1,25,13.0,98.0
1489,60.0,30,25,13.0,98.0
1490,72.0,22,90,10.0,89.0
1491,67.0,2,90,11.0,89.0
1492,60.0,30,25,13.0,96.0
1493,64.0,5,90,12.0,89.0
1494,68.0,22,30,10.0,96.0
1495,65.0,2,30,11.0,96.0
1496,60.0,1,25,13.0,96.0
1497,65.0,5,30,12.0,96.0
1498,60.0,1,25,13.0,96.0
1499,72.0,22,60,10.0,96.0
1500,67.0,2,60,11.0,96.0
1501,60.0,30,25,13.0,94.0
1502,64.0,5,60,12.0,96.0
1503,60.0,30,25,13.0,94.0
1504,65.0,22,30,10.0,93.0
1505,65.0,2,30,11.0,93.0
1506,60.0,1,25,13.0,93.0
1507,62.0,5,30,12.0,93.0
1508,60.0,1,25,13.0,91.0
1509,72.0,22,60,10.0,91.0
1510,67.0,2,60,11.0,91.0
1511,60.0,30,25,13.0,90.0
1512,64.0,5,60,12.0,91.0
1513,60.0,30,25,13.0,89.0
1514,65.0,22,30,10.0,89.0
1515,65.0,2,30,11.0,89.0
1516,60.0,1,25,13.0,89.0
1517,62.0,5,30,12.0,89.0
1518,60.0,1,25,13.0,87.0
1519,72.0,22,60,10.0,87.0
1520,67.0,2,60,11.0,87.0
1521,60.0,30,25,13.0,86.0
1522,64.0,5,60,12.0,87.0
1523,60.0,30,25,13.0,86.0
1524,65.0,22,30,10.0,83.0
1525,65.0,2,30,11.0,83.0
1526,60.0,1,25,13.0,83.0
1527,62.0,5,30,12.0,83.0
1528,72.0,22,120,10.0,83.0
1529,67.0,2,120,11.0,83.0
1530,64.0,5,120,12.0,83.0
1531,60.0,1,120,13.0,83.0
1532,48.0,28,85,8.0,47.0
1533,36.0,25,115,8.0,42.0
1534,72.0,30,85,7.0,71.0
1535,60.0,28,115,7.0,57.0
1536,60.0,7,104,5.0,100.0
1537,48.0,30,85,8.0,62.0
1538,36.0,26,115,8.0,59.0
1539,60.0,28,115,7.0,63.0
1540,72.0,31,85,7.0,75.0
1541,60.0,5,104,5.0,100.0
1542,36.0,26,115,8.0,61.0
1543,48.0,30,85,8.0,63.0
1544,60.0,28,115,7.0,62.0
1545,72.0,1,85,7.0,76.0
1546,60.0,5,104,5.0,100.0
1547,48.0,29,85,8.0,64.0
1548,36.0,26,115,8.0,65.0
1549,60.0,28,115,7.0,67.0
1550,72.0,31,85,7.0,76.0
1551,72.0,30,240,10.0,100.0
1552,48.0,29,85,8.0,64.0
1553,36.0,26,115,8.0,63.0
1554,61.0,29,115,7.0,65.0
1555,73.0,1,85,7.0,79.0
1556,73.0,30,120,10.0,100.0
1557,72.0,1,360,12.0,100.0
1558,60.0,29,85,8.0,70.0
1559,48.0,31,115,8.0,69.0
1560,74.0,29,85,7.0,83.0
1561,62.0,29,115,7.0,71.0
1562,74.0,1,120,10.0,100.0
1563,70.0,7,120,12.0,100.0
1564,48.0,25,115,8.0,75.0
1565,60.0,30,85,8.0,74.0
1566,70.0,28,115,7.0,76.0
1567,82.0,30,85,7.0,91.0
1568,82.0,0,120,10.0,100.0
1569,79.0,0,120,2.0,98.0
1570,70.0,6,120,2.0,98.0
1571,64.0,1,120,12.0,100.0
1572,48.0,25,115,8.0,75.0
1573,60.0,31,85,8.0,78.0
1574,81.0,28,85,7.0,93.0
1575,69.0,28,115,7.0,78.0
1576,81.0,1,120,10.0,100.0
1577,72.0,3,600,1.0,97.0
1578,69.0,6,120,2.0,98.0
1579,77.0,0,120,2.0,98.0
1580,60.0,2,600,5.0,100.0
1581,65.0,1,120,12.0,100.0
1582,48.0,25,115,8.0,58.0
1583,60.0,31,85,8.0,56.0
1584,60.0,27,115,7.0,57.0
1585,72.0,31,85,7.0,72.0
1586,60.0,5,104,5.0,100.0
1587,36.0,26,115,8.0,62.0
1588,48.0,31,85,8.0,61.0
1589,60.0,26,115,7.0,63.0
1590,72.0,30,85,7.0,76.0
1591,60.0,7,104,5.0,100.0
1592,48.0,30,85,8.0,63.0
1593,36.0,27,115,8.0,60.0
1594,72.0,0,85,7.0,75.0
1595,60.0,28,115,7.0,63.0
1596,60.0,6,104,5.0,100.0
1597,48.0,30,85,8.0,62.0
1598,36.0,24,115,8.0,64.0
1599,72.0,28,85,7.0,80.0
1600,60.0,30,115,7.0,67.0
1601,72.0,29,240,10.0,100.0
1602,36.0,25,115,8.0,65.0
1603,48.0,32,85,8.0,64.0
1604,72.0,28,85,7.0,77.0
1605,60.0,28,115,7.0,66.0
1606,72.0,1,120,10.0,100.0
1607,72.0,1,360,12.0,100.0
1608,48.0,31,115,8.0,67.0
1609,60.0,30,85,8.0,70.0
1610,73.0,28,85,7.0,85.0
1611,61.0,30,115,7.0,70.0
1612,73.0,1,120,10.0,100.0
1613,70.0,7,120,12.0,100.0
1614,60.0,30,85,8.0,74.0
1615,48.0,25,115,8.0,77.0
1616,82.0,28,85,7.0,90.0
1617,70.0,29,115,7.0,76.0
1618,82.0,1,120,10.0,100.0
1619,88.0,0,120,0.0,98.0
1620,79.0,1,120,0.0,98.0
1621,67.0,6,120,12.0,100.0
1622,60.0,30,85,8.0,78.0
1623,48.0,25,115,8.0,77.0
1624,80.0,0,85,7.0,92.0
1625,68.0,29,115,7.0,80.0
1626,80.0,29,115,10.0,100.0
1627,72.0,5,595,1.0,97.0
1628,60.0,2,595,5.0,100.0
1629,89.0,1,120,0.0,98.0
1630,80.0,0,120,0.0,98.0
1631,65.0,6,120,12.0,100.0
1632,48.0,24,115,8.0,63.0
1633,60.0,32,85,8.0,63.0
1634,60.0,26,115,7.0,65.0
1635,72.0,32,85,7.0,75.0
1636,72.0,3,104,1.0,97.0
1637,60.0,2,104,5.0,100.0
1638,36.0,27,115,8.0,65.0
1639,48.0,30,85,8.0,64.0
1640,72.0,30,85,7.0,75.0
1641,60.0,27,115,7.0,66.0
1642,72.0,4,104,1.0,97.0
1643,60.0,2,104,5.0,100.0
1644,36.0,25,115,8.0,65.0
1645,48.0,30,85,8.0,62.0
1646,72.0,29,85,7.0,76.0
1647,60.0,30,115,7.0,67.0
1648,72.0,2,104,1.0,97.0
1649,60.0,2,104,5.0,100.0
1650,48.0,29,85,8.0,65.0
1651,36.0,27,115,8.0,64.0
1652,60.0,28,115,7.0,65.0
1653,72.0,31,85,7.0,76.0
1654,72.0,0,240,10.0,100.0
1655,60.0,2,240,11.0,100.0
1656,72.0,3,120,1.0,97.0
1657,36.0,23,115,8.0,65.0
1658,48.0,31,85,8.0,63.0
1659,61.0,28,115,7.0,66.0
1660,73.0,1,85,7.0,78.0
1661,73.0,30,120,10.0,100.0
1662,61.0,1,120,11.0,100.0
1663,60.0,2,240,5.0,100.0
1664,60.0,1,240,12.0,100.0
1665,48.0,1,240,13.0,100.0
1666,48.0,27,115,8.0,68.0
1667,60.0,30,85,8.0,68.0
1668,77.0,28,85,7.0,85.0
1669,65.0,30,115,7.0,71.0
1670,77.0,1,120,10.0,100.0
1671,65.0,1,120,11.0,100.0
1672,59.0,1,120,12.0,100.0
1673,47.0,1,120,13.0,100.0
1674,59.0,29,85,8.0,72.0
1675,47.0,25,115,8.0,74.0
1676,85.0,0,85,7.0,90.0
1677,73.0,29,115,7.0,74.0
1678,83.0,29,120,10.0,100.0
1679,77.0,1,240,0.0,98.0
1680,71.0,1,120,11.0,100.0
1681,44.0,1,115,13.0,100.0
1682,59.0,4,240,5.0,100.0
1683,56.0,5,120,12.0,100.0
1684,56.0,4,120,3.0,109.0
1685,59.0,0,120,3.0,109.0
1686,44.0,20,115,8.0,77.0
1687,60.0,30,85,8.0,80.0
1688,73.0,27,115,7.0,81.0
1689,85.0,31,85,7.0,92.0
1690,82.0,0,120,10.0,100.0
1691,70.0,1,120,11.0,100.0
1692,54.0,1,120,12.0,100.0
1693,42.0,1,120,13.0,100.0
1694,42.0,20,115,8.0,82.0
1695,58.0,31,85,8.0,83.0
1696,73.0,27,115,7.0,73.0
1697,85.0,31,85,7.0,97.0
1698,78.0,1,240,0.0,98.0
1699,58.0,4,240,5.0,100.0
1700,46.0,7,120,13.0,100.0
1701,58.0,4,240,3.0,109.0
1702,54.0,0,240,3.0,109.0
1703,58.0,29,85,8.0,83.0
1704,42.0,24,115,8.0,82.0
1705,73.0,29,115,7.0,73.0
1706,85.0,0,85,7.0,95.0
1707,49.0,2,120,13.0,100.0
1708,41.0,19,115,8.0,83.0
1709,56.0,32,85,8.0,82.0
1710,73.0,26,115,7.0,75.0
1711,85.0,30,85,7.0,98.0
1712,80.0,31,240,0.0,98.0
1713,56.0,5,240,5.0,100.0
1714,53.0,9,120,13.0,100.0
1715,56.0,4,240,3.0,109.0
1716,53.0,0,240,3.0,109.0
1717,56.0,29,85,8.0,84.0
1718,41.0,25,115,8.0,82.0
1719,85.0,30,85,7.0,97.0
1720,73.0,27,115,7.0,74.0
1721,82.0,2,120,0.0,98.0
1722,85.0,1,720,0.0,98.0
1723,73.0,2,960,1.0,97.0
1724,55.0,5,120,5.0,100.0
1725,55.0,2,120,13.0,100.0
1726,55.0,4,120,3.0,109.0
1727,52.0,0,120,3.0,109.0
1728,40.0,20,115,8.0,78.0
1729,55.0,31,85,8.0,83.0
1730,85.0,29,85,7.0,96.0
1731,73.0,28,115,7.0,75.0
1732,58.0,8,120,13.0,100.0
1733,55.0,30,85,8.0,83.0
1734,40.0,23,115,8.0,78.0
1735,73.0,28,115,7.0,73.0
1736,84.0,30,85,7.0,93.0
1737,55.0,28,85,8.0,81.0
1738,40.0,25,115,8.0,79.0
1739,82.0,28,85,7.0,89.0
1740,73.0,30,115,7.0,76.0
1741,40.0,32,115,8.0,75.0
1742,55.0,30,85,8.0,81.0
1743,80.0,29,85,7.0,87.0
1744,73.0,29,115,7.0,70.0
1745,56.0,30,85,8.0,78.0
1746,41.0,34,115,8.0,73.0
1747,78.0,29,85,7.0,82.0
1748,73.0,28,115,7.0,70.0
1749,42.0,31,115,8.0,67.0
1750,58.0,32,85,8.0,74.0
1751,73.0,27,115,7.0,66.0
1752,77.0,31,85,7.0,80.0
1753,61.0,30,85,8.0,73.0
1754,44.0,30,115,8.0,63.0
1755,76.0,30,85,7.0,77.0
1756,67.0,29,115,7.0,63.0
1757,61.0,9,720,13.0,100.0
1758,46.0,32,115,8.0,62.0
1759,61.0,30,85,8.0,69.0
1760,77.0,30,85,7.0,75.0
1761,65.0,28,115,7.0,62.0
1762,60.0,8,120,13.0,100.0
1763,60.0,29,85,8.0,67.0
1764,44.0,25,115,8.0,60.0
1765,71.0,28,85,7.0,69.0
1766,65.0,29,115,7.0,62.0
1767,53.0,7,120,5.0,88.0
1768,65.0,0,120,5.0,88.0
1769,53.0,2,120,13.0,100.0
1770,61.0,28,85,8.0,63.0
1771,49.0,25,115,8.0,58.0
1772,65.0,28,115,7.0,59.0
1773,72.0,31,85,7.0,66.0
1774,48.0,2,120,13.0,100.0
1775,60.0,29,85,8.0,62.0
1776,48.0,24,115,8.0,52.0
1777,58.0,28,85,7.0,61.0
1778,64.0,30,85,7.0,64.0
1779,36.0,23,85,8.0,49.0
1780,57.0,30,60,7.0,69.0
1781,48.0,4,60,8.0,63.0
1782,60.0,6,240,5.0,100.0
1783,48.0,8,120,12.0,100.0
1784,36.0,1,120,13.0,100.0
1785,41.0,5,18,8.0,66.0
1786,57.0,24,18,8.0,56.0
1787,53.0,30,18,8.0,56.0
1788,48.0,30,18,8.0,56.0
1789,65.0,52,120,7.0,80.0
1790,53.0,4,120,5.0,100.0
1791,53.0,1,120,12.0,100.0
1792,41.0,1,120,13.0,100.0
1793,45.0,2,18,8.0,66.0
1794,57.0,30,18,8.0,56.0
1795,67.0,25,60,7.0,80.0
1796,60.0,3,60,7.0,70.0
1797,53.0,2,18,8.0,56.0
1798,69.0,25,45,7.0,80.0
1799,65.0,3,45,7.0,70.0
1800,48.0,30,18,8.0,56.0
1801,60.0,13,15,7.0,78.0
1802,40.0,2,18,8.0,66.0
1803,60.0,30,18,8.0,56.0
1804,55.0,30,18,8.0,56.0
1805,52.0,30,18,8.0,56.0
1806,72.0,12,120,7.0,80.0
1807,67.0,25,3,7.0,66.0
1808,48.0,2,18,8.0,66.0
1809,60.0,30,18,8.0,56.0
1810,64.0,3,60,7.0,56.0
1811,55.0,2,18,8.0,56.0
1812,52.0,30,18,8.0,56.0
1813,72.0,25,60,7.0,80.0
1814,67.0,3,60,7.0,70.0
1815,64.0,0,60,7.0,70.0
1816,38.0,2,18,8.0,66.0
1817,62.0,30,18,8.0,56.0
1818,57.0,30,18,8.0,56.0
1819,53.0,30,18,8.0,56.0
1820,74.0,25,120,7.0,80.0
1821,65.0,0,0,7.0,77.0
1822,72.0,0,120,7.0,70.0
1823,69.0,0,120,7.0,70.0
1824,43.0,2,18,8.0,66.0
1825,74.0,25,34,7.0,89.0
1826,71.0,0,34,7.0,77.0
1827,67.0,3,34,7.0,77.0
1828,62.0,30,18,8.0,56.0
1829,76.0,5,34,7.0,86.0
1830,65.0,0,34,7.0,75.0
1831,67.0,0,34,7.0,75.0
1832,71.0,3,34,7.0,75.0
1833,59.0,22,18,8.0,56.0
1834,55.0,12,18,8.0,56.0
1835,77.0,15,34,7.0,83.0
1836,65.0,3,34,7.0,72.0
1837,67.0,0,34,7.0,72.0
1838,71.0,0,34,7.0,72.0
1839,36.0,2,18,8.0,66.0
1840,62.0,30,18,8.0,56.0
1841,59.0,30,18,8.0,56.0
1842,55.0,30,18,8.0,56.0
1843,77.0,25,120,7.0,80.0
1844,67.0,0,120,7.0,70.0
1845,65.0,0,120,7.0,70.0
1846,71.0,3,120,7.0,70.0
1847,48.0,2,18,8.0,66.0
1848,60.0,30,18,8.0,56.0
1849,76.0,25,60,7.0,66.0
1850,64.0,3,60,7.0,56.0
1851,72.0,0,60,7.0,56.0
1852,55.0,30,18,8.0,56.0
1853,52.0,30,18,8.0,56.0
1854,38.0,2,18,8.0,66.0
1855,57.0,24,18,8.0,56.0
1856,53.0,30,18,8.0,56.0
1857,50.0,30,18,8.0,57.0
1858,69.0,25,120,7.0,84.0
1859,65.0,0,120,7.0,73.0
1860,62.0,3,120,7.0,73.0
1861,50.0,6,120,13.0,66.0
1862,48.0,2,18,8.0,67.0
1863,62.0,24,18,8.0,59.0
1864,74.0,25,60,7.0,86.0
1865,65.0,0,60,7.0,75.0
1866,69.0,3,0,7.0,79.0
1867,57.0,2,18,8.0,59.0
1868,53.0,30,18,8.0,60.0
1869,77.0,25,60,7.0,90.0
1870,69.0,2,0,7.0,82.0
1871,74.0,0,60,7.0,79.0
1872,48.0,6,120,13.0,66.0
1873,47.0,2,18,8.0,71.0
1874,62.0,24,18,8.0,61.0
1875,57.0,30,18,8.0,61.0
1876,53.0,30,18,8.0,61.0
1877,74.0,0,120,7.0,82.0
1878,47.0,6,120,13.0,66.0
1879,45.0,2,18,8.0,73.0
1880,60.0,24,18,8.0,63.0
1881,81.0,26,0,7.0,98.0
1882,77.0,0,0,7.0,85.0
1883,69.0,2,0,7.0,85.0
1884,57.0,2,18,8.0,63.0
1885,53.0,30,18,8.0,63.0
1886,72.0,28,120,7.0,74.0
1887,45.0,6,120,13.0,66.0
1888,43.0,2,18,8.0,74.0
1889,59.0,24,18,8.0,63.0
1890,55.0,30,18,8.0,63.0
1891,83.0,26,90,7.0,98.0
1892,79.0,0,90,7.0,85.0
1893,71.0,2,90,7.0,85.0
1894,84.0,25,15,7.0,106.0
1895,53.0,5,18,8.0,63.0
1896,83.0,10,15,7.0,106.0
1897,43.0,6,120,13.0,66.0
1898,41.0,4,18,8.0,74.0
1899,62.0,24,18,8.0,63.0
1900,81.0,16,60,7.0,98.0
1901,55.0,2,18,8.0,63.0
1902,50.0,30,18,8.0,63.0
1903,83.0,26,60,7.0,98.0
1904,79.0,0,60,7.0,74.0
1905,71.0,2,60,7.0,74.0
1906,41.0,6,120,13.0,66.0
1907,40.0,2,18,8.0,74.0
1908,64.0,24,18,8.0,63.0
1909,84.0,26,60,7.0,98.0
1910,72.0,2,60,7.0,74.0
1911,79.0,26,2,7.0,98.0
1912,60.0,2,18,8.0,63.0
1913,55.0,30,18,8.0,65.0
1914,67.0,0,60,7.0,87.0
1915,72.0,2,60,7.0,87.0
1916,40.0,6,120,13.0,66.0
1917,52.0,2,18,8.0,77.0
1918,67.0,24,18,8.0,67.0
1919,61.0,30,18,8.0,68.0
1920,58.0,30,18,8.0,70.0
1921,73.0,0,120,7.0,96.0
1922,40.0,6,120,13.0,66.0
1923,41.0,2,18,8.0,81.0
1924,65.0,24,18,8.0,56.0
1925,82.0,26,180,7.0,110.0
1926,70.0,2,180,7.0,96.0
1927,60.0,2,18,8.0,56.0
1928,57.0,30,18,8.0,56.0
1929,81.0,25,60,7.0,89.0
1930,69.0,3,60,7.0,77.0
1931,72.0,28,120,7.0,90.0
1932,41.0,6,120,13.0,66.0
1933,43.0,2,18,8.0,66.0
1934,61.0,24,18,8.0,56.0
1935,58.0,30,18,8.0,56.0
1936,55.0,30,18,8.0,56.0
1937,62.0,0,120,7.0,82.0
1938,43.0,6,120,13.0,66.0
1939,44.0,2,18,8.0,66.0
1940,60.0,24,18,8.0,56.0
1941,76.0,25,180,7.0,96.0
1942,73.0,3,180,7.0,82.0
1943,70.0,0,180,7.0,82.0
1944,64.0,28,60,7.0,73.0
1945,57.0,2,18,8.0,56.0
1946,53.0,30,18,8.0,56.0
1947,77.0,26,60,7.0,96.0
1948,72.0,0,60,7.0,82.0
1949,44.0,6,120,13.0,66.0
1950,46.0,5,18,8.0,66.0
1951,61.0,24,18,8.0,56.0
1952,58.0,30,18,8.0,56.0
1953,53.0,30,18,8.0,57.0
1954,46.0,6,120,13.0,66.0
1955,45.0,30,18,8.0,67.0
1956,60.0,24,18,8.0,57.0
1957,66.0,25,180,7.0,89.0
1958,65.0,0,0,7.0,79.0
1959,57.0,2,18,8.0,57.0
1960,53.0,30,18,8.0,59.0
1961,77.0,26,60,7.0,91.0
1962,72.0,2,60,7.0,79.0
1963,45.0,6,120,13.0,66.0
1964,46.0,5,18,8.0,68.0
1965,62.0,24,18,8.0,59.0
1966,58.0,30,18,8.0,59.0
1967,53.0,30,18,8.0,59.0
1968,46.0,6,120,13.0,66.0
1969,48.0,30,18,8.0,70.0
1970,60.0,24,18,8.0,60.0
1971,67.0,25,180,7.0,92.0
1972,57.0,2,18,8.0,60.0
1973,69.0,25,45,7.0,95.0
1974,53.0,30,18,8.0,61.0
1975,72.0,10,15,7.0,96.0
1976,48.0,6,120,13.0,66.0
1977,48.0,5,18,8.0,71.0
1978,60.0,24,18,8.0,61.0
1979,70.0,15,60,7.0,96.0
1980,65.0,3,120,7.0,82.0
1981,58.0,2,18,8.0,61.0
1982,55.0,30,18,8.0,61.0
1983,67.0,25,60,7.0,96.0
1984,64.0,3,60,7.0,83.0
1985,36.0,6,120,13.0,66.0
1986,66.0,26,60,7.0,91.0
1987,63.0,0,60,7.0,84.0
1988,57.0,2,60,7.0,84.0
1989,48.0,2,60,8.0,62.0
1990,36.0,2,60,8.0,67.0
1991,36.0,4,60,13.0,66.0
1992,70.0,50,60,7.0,115.0
1993,69.0,2,60,7.0,118.0
1994,57.0,32,40,8.0,72.0
1995,75.0,60,120,7.0,91.0
1996,66.0,20,60,7.0,113.0
1997,54.0,20,40,8.0,74.0
1998,48.0,2,120,8.0,77.0
1999,48.0,6,120,13.0,100.0
2000,74.0,38,60,7.0,85.0
2001,67.0,2,60,7.0,114.0
2002,55.0,32,40,8.0,66.0
2003,46.0,2,80,8.0,81.0
2004,62.0,20,40,8.0,67.0
2005,50.0,2,40,8.0,72.0
2006,46.0,6,120,13.0,100.0
2007,55.0,38,40,8.0,67.0
2008,82.0,19,120,7.0,96.0
2009,70.0,1,120,7.0,90.0
2010,74.0,1,0,7.0,92.0
2011,67.0,32,40,8.0,67.0
2012,83.0,19,60,7.0,98.0
2013,65.0,20,40,8.0,68.0
2014,71.0,0,60,7.0,92.0
2015,43.0,2,120,8.0,73.0
2016,43.0,6,115,13.0,100.0
2017,84.0,38,60,7.0,104.0
2018,79.0,2,60,7.0,98.0
2019,72.0,20,0,7.0,111.0
2020,64.0,32,40,8.0,70.0
2021,60.0,20,40,8.0,70.0
2022,52.0,2,120,8.0,75.0
2023,52.0,6,120,13.0,100.0
2024,71.0,2,60,7.0,111.0
2025,59.0,32,40,8.0,71.0
2026,77.0,38,120,7.0,90.0
2027,56.0,20,40,8.0,72.0
2028,68.0,20,60,7.0,111.0
2029,50.0,2,120,8.0,76.0
2030,50.0,6,120,13.0,100.0
2031,76.0,38,60,7.0,83.0
2032,69.0,2,60,7.0,112.0
2033,57.0,32,40,8.0,73.0
2034,48.0,2,80,8.0,78.0
2035,52.0,0,40,8.0,73.0
2036,64.0,20,40,8.0,73.0
2037,48.0,6,120,13.0,100.0
2038,53.0,40,40,8.0,74.0
2039,84.0,19,120,7.0,104.0
2040,81.0,0,120,7.0,98.0
2041,72.0,1,120,7.0,98.0
2042,65.0,32,40,8.0,74.0
2043,89.0,19,60,7.0,112.0
2044,84.0,1,60,7.0,106.0
2045,77.0,1,0,7.0,105.0
2046,63.0,20,40,8.0,75.0
2047,45.0,2,120,8.0,79.0
2048,45.0,6,120,13.0,100.0
2049,62.0,24,18,8.0,76.0
2050,89.0,39,60,7.0,117.0
2051,82.0,27,1,7.0,111.0
2052,77.0,1,0,7.0,104.0
2053,46.0,4,60,8.0,75.0
2054,58.0,2,18,8.0,76.0
2055,53.0,30,18,8.0,76.0
2056,70.0,0,60,7.0,104.0
2057,46.0,4,115,13.0,100.0
2058,43.0,2,18,8.0,85.0
2059,64.0,24,18,8.0,77.0
2060,58.0,30,18,8.0,77.0
2061,55.0,30,18,8.0,78.0
2062,43.0,6,120,13.0,66.0
2063,44.0,30,18,8.0,87.0
2064,65.0,24,18,8.0,79.0
2065,85.0,27,180,7.0,94.0
2066,73.0,0,180,7.0,87.0
2067,76.0,1,180,7.0,87.0
2068,82.0,0,180,7.0,87.0
2069,60.0,2,18,8.0,79.0
2070,56.0,30,18,8.0,79.0
2071,84.0,27,60,7.0,115.0
2072,77.0,0,60,7.0,111.0
2073,80.0,1,60,7.0,111.0
2074,72.0,0,60,7.0,111.0
2075,44.0,6,120,13.0,70.0
2076,40.0,2,18,8.0,88.0
2077,67.0,24,18,8.0,79.0
2078,61.0,30,18,8.0,79.0
2079,58.0,30,18,8.0,79.0
2080,40.0,6,120,13.0,74.0
2081,41.0,30,18,8.0,88.0
2082,65.0,24,18,8.0,79.0
2083,79.0,27,180,7.0,91.0
2084,73.0,0,180,7.0,85.0
2085,70.0,1,180,7.0,85.0
2086,60.0,2,18,8.0,79.0
2087,56.0,30,18,8.0,79.0
2088,80.0,27,60,7.0,112.0
2089,72.0,0,60,7.0,106.0
2090,68.0,0,0,7.0,81.0
2091,41.0,6,120,13.0,79.0
2092,38.0,2,18,8.0,88.0
2093,59.0,24,18,8.0,79.0
2094,56.0,28,18,8.0,80.0
2095,53.0,32,18,8.0,80.0
2096,38.0,6,120,13.0,79.0
2097,36.0,30,18,8.0,89.0
2098,60.0,24,18,8.0,80.0
2099,71.0,27,180,7.0,88.0
2100,65.0,1,180,7.0,81.0
2101,55.0,2,18,8.0,80.0
2102,50.0,30,18,8.0,80.0
2103,72.0,26,60,7.0,112.0
2104,36.0,6,0,13.0,66.0
2105,52.0,4,18,8.0,80.0
2106,48.0,24,18,8.0,80.0
2107,70.0,26,60,7.0,113.0
2108,67.0,26,2,7.0,113.0
2109,65.0,0,120,7.0,106.0
2110,55.0,2,18,8.0,80.0
2111,48.0,30,18,8.0,80.0
2112,64.0,26,2,7.0,90.0
2113,60.0,2,60,7.0,85.0
2114,58.0,2,60,8.0,85.0
2115,81.0,50,60,7.0,104.0
2116,72.0,0,60,7.0,98.0
2117,69.0,2,60,7.0,98.0
2118,48.0,6,120,13.0,46.0
2119,72.0,2,40,7.0,98.0
2120,79.0,58,60,7.0,104.0
2121,34.0,0,60,8.0,98.0
2122,46.0,2,60,8.0,98.0
2123,67.0,32,40,7.0,98.0
2124,76.0,18,60,7.0,105.0
2125,72.0,38,2,7.0,105.0
2126,46.0,6,120,13.0,71.0
2127,33.0,4,60,8.0,98.0
2128,45.0,0,60,8.0,98.0
2129,45.0,6,60,13.0,76.0
2130,65.0,32,40,7.0,98.0
2131,69.0,10,80,7.0,105.0
2132,74.0,40,60,7.0,109.0
2133,41.0,0,120,8.0,98.0
2134,53.0,22,120,8.0,98.0
2135,53.0,6,120,13.0,76.0
2136,62.0,42,40,7.0,104.0
2137,72.0,18,60,7.0,110.0
2138,69.0,12,40,7.0,106.0
2139,54.0,4,60,8.0,106.0
2140,42.0,0,60,8.0,106.0
2141,54.0,6,60,13.0,79.0
2142,70.0,38,60,7.0,98.0
2143,67.0,2,60,7.0,94.0
2144,43.0,0,60,8.0,95.0
2145,55.0,2,60,8.0,95.0
2146,55.0,6,60,13.0,83.0
2147,82.0,50,60,7.0,111.0
2148,74.0,2,40,7.0,107.0
2149,81.0,60,60,7.0,112.0
2150,69.0,32,40,7.0,107.0
2151,78.0,18,60,7.0,113.0
2152,48.0,2,120,8.0,107.0
2153,36.0,0,120,8.0,107.0
2154,48.0,6,120,13.0,86.0
2155,74.0,22,80,7.0,109.0
2156,46.0,4,60,8.0,110.0
2157,34.0,0,60,8.0,110.0
2158,46.0,6,60,13.0,90.0
2159,79.0,38,80,7.0,114.0
2160,67.0,32,40,7.0,110.0
2161,70.0,12,80,7.0,110.0
2162,55.0,0,120,8.0,110.0
2163,43.0,22,120,8.0,110.0
2164,55.0,6,120,13.0,93.0
2165,76.0,38,80,7.0,116.0
2166,64.0,42,40,7.0,111.0
2167,74.0,5,40,7.0,117.0
2168,71.0,7,40,7.0,100.0
2169,44.0,0,60,8.0,112.0
2170,56.0,22,60,8.0,112.0
2171,56.0,6,60,13.0,96.0
2172,72.0,52,0,7.0,100.0
2173,69.0,40,60,7.0,87.0
2174,45.0,0,60,8.0,87.0
2175,57.0,2,60,8.0,87.0
2176,57.0,6,60,13.0,100.0
2177,41.0,2,18,8.0,100.0
2178,53.0,0,18,8.0,100.0
2179,57.0,24,18,8.0,100.0
2180,65.0,2,18,8.0,100.0
2181,57.0,19,18,8.0,100.0
2182,53.0,1,112,12.0,100.0
2183,53.0,1,112,13.0,100.0
2184,84.0,0,0,7.0,100.0
2185,75.0,0,0,7.0,100.0
2186,72.0,28,0,7.0,100.0
2187,41.0,4,115,5.0,117.0
2188,53.0,0,115,5.0,117.0
2189,41.0,0,18,8.0,100.0
2190,53.0,2,18,8.0,100.0
2191,57.0,24,18,8.0,100.0
2192,65.0,28,120,10.0,100.0
2193,41.0,1,112,14.0,100.0
2194,53.0,4,0,5.0,117.0
2195,41.0,0,60,5.0,117.0
2196,53.0,1,60,12.0,100.0
2197,53.0,1,60,13.0,100.0
2198,65.0,10,120,3.0,116.0
2199,65.0,2,18,8.0,102.0
2200,57.0,19,18,8.0,102.0
2201,65.0,1,52,12.0,100.0
2202,84.0,0,0,7.0,102.0
2203,75.0,28,0,7.0,102.0
2204,65.0,1,52,13.0,100.0
2205,65.0,0,55,5.0,117.0
2206,41.0,2,18,8.0,102.0
2207,53.0,0,18,8.0,102.0
2208,57.0,24,18,8.0,102.0
2209,63.0,28,112,10.0,100.0
2210,57.0,0,232,11.0,100.0
2211,41.0,1,112,14.0,100.0
2212,57.0,0,235,3.0,116.0
2213,63.0,4,115,3.0,116.0
2214,65.0,2,18,8.0,102.0
2215,57.0,19,18,8.0,102.0
2216,53.0,1,112,12.0,100.0
2217,72.0,0,120,7.0,102.0
2218,75.0,0,0,7.0,102.0
2219,53.0,1,112,13.0,100.0
2220,84.0,0,0,7.0,102.0
2221,53.0,4,115,5.0,117.0
2222,41.0,0,115,5.0,117.0
2223,41.0,2,18,8.0,102.0
2224,53.0,0,18,8.0,102.0
2225,57.0,24,18,8.0,102.0
2226,72.0,28,60,7.0,102.0
2227,63.0,28,120,10.0,100.0
2228,57.0,0,120,11.0,100.0
2229,41.0,1,112,14.0,100.0
2230,41.0,0,60,5.0,117.0
2231,53.0,4,60,5.0,117.0
2232,53.0,1,60,12.0,100.0
2233,53.0,1,60,13.0,100.0
2234,63.0,0,120,3.0,116.0
2235,57.0,10,120,3.0,116.0
2236,65.0,2,18,8.0,102.0
2237,58.0,19,18,8.0,102.0
2238,65.0,1,52,12.0,100.0
2239,86.0,0,60,7.0,111.0
2240,74.0,28,0,7.0,104.0
2241,65.0,1,52,13.0,100.0
2242,53.0,0,55,5.0,117.0
2243,65.0,4,55,5.0,117.0
2244,41.0,1,52,14.0,100.0
2245,41.0,0,18,8.0,102.0
2246,53.0,2,18,8.0,102.0
2247,58.0,19,18,8.0,102.0
2248,62.0,0,112,10.0,100.0
2249,58.0,0,112,11.0,100.0
2250,86.0,0,60,7.0,104.0
2251,41.0,4,60,5.0,117.0
2252,53.0,4,0,5.0,117.0
2253,58.0,4,115,3.0,116.0
2254,53.0,1,60,12.0,100.0
2255,62.0,0,115,3.0,116.0
2256,53.0,1,60,13.0,100.0
2257,65.0,0,18,8.0,102.0
2258,55.0,20,18,8.0,102.0
2259,65.0,1,52,12.0,100.0
2260,65.0,1,52,13.0,100.0
2261,82.0,0,120,7.0,104.0
2262,76.0,0,0,7.0,106.0
2263,88.0,28,0,7.0,106.0
2264,65.0,0,55,5.0,117.0
2265,41.0,5,112,14.0,100.0
2266,41.0,2,18,8.0,102.0
2267,53.0,0,18,8.0,102.0
2268,55.0,19,18,8.0,102.0
2269,64.0,0,112,10.0,100.0
2270,55.0,2,112,11.0,100.0
2271,82.0,0,60,7.0,106.0
2272,53.0,4,0,5.0,117.0
2273,41.0,0,60,5.0,117.0
2274,53.0,1,60,12.0,100.0
2275,58.0,0,115,3.0,116.0
2276,55.0,4,115,3.0,116.0
2277,53.0,1,60,13.0,100.0
2278,65.0,0,18,8.0,102.0
2279,53.0,20,18,8.0,102.0
2280,65.0,1,52,12.0,100.0
2281,89.0,28,60,7.0,113.0
2282,81.0,0,60,7.0,113.0
2283,65.0,1,52,13.0,100.0
2284,77.0,0,0,7.0,107.0
2285,65.0,0,55,5.0,117.0
2286,41.0,5,112,14.0,100.0
2287,41.0,2,18,8.0,102.0
2288,53.0,19,18,8.0,102.0
2289,65.0,0,112,10.0,100.0
2290,60.0,2,112,11.0,100.0
2291,81.0,0,60,7.0,107.0
2292,89.0,28,60,7.0,107.0
2293,65.0,4,60,5.0,117.0
2294,53.0,0,60,5.0,117.0
2295,65.0,1,60,12.0,100.0
2296,57.0,0,115,3.0,116.0
2297,53.0,4,115,3.0,116.0
2298,53.0,1,60,13.0,100.0
2299,41.0,5,60,14.0,100.0
2300,65.0,0,18,8.0,103.0
2301,53.0,19,18,8.0,103.0
2302,64.0,1,52,12.0,100.0
2303,84.0,0,60,7.0,117.0
2304,79.0,28,0,7.0,112.0
2305,52.0,1,52,13.0,100.0
2306,91.0,0,0,7.0,112.0
2307,60.0,4,55,5.0,117.0
2308,40.0,1,52,14.0,100.0
2309,41.0,2,18,8.0,103.0
2310,53.0,19,18,8.0,103.0
2311,67.0,0,112,10.0,100.0
2312,64.0,2,112,11.0,100.0
2313,84.0,0,60,7.0,112.0
2314,60.0,4,55,5.0,117.0
2315,55.0,0,115,3.0,116.0
2316,64.0,1,60,12.0,100.0
2317,52.0,4,115,3.0,116.0
2318,52.0,1,60,13.0,100.0
2319,40.0,5,60,14.0,100.0
2320,65.0,2,18,8.0,103.0
2321,53.0,19,18,8.0,103.0
2322,62.0,1,52,12.0,100.0
2323,81.0,0,60,7.0,120.0
2324,93.0,0,0,7.0,115.0
2325,50.0,1,52,13.0,100.0
2326,89.0,28,0,7.0,115.0
2327,38.0,1,52,14.0,100.0
2328,41.0,2,18,8.0,103.0
2329,53.0,19,18,8.0,103.0
2330,53.0,4,115,3.0,116.0
2331,50.0,0,115,3.0,116.0
2332,65.0,30,18,8.0,103.0
2333,53.0,20,18,8.0,103.0
2334,62.0,5,112,12.0,100.0
2335,81.0,28,0,7.0,118.0
2336,89.0,0,0,7.0,118.0
2337,50.0,1,112,13.0,100.0
2338,38.0,5,112,14.0,100.0
2339,41.0,2,18,8.0,104.0
2340,53.0,19,18,8.0,104.0
2341,69.0,28,232,10.0,100.0
2342,65.0,0,232,10.0,100.0
2343,62.0,0,232,11.0,100.0
2344,93.0,0,60,7.0,118.0
2345,62.0,0,235,5.0,117.0
2346,65.0,4,235,5.0,117.0
2347,62.0,5,60,12.0,100.0
2348,50.0,1,60,13.0,100.0
2349,38.0,10,120,3.0,116.0
2350,50.0,0,120,3.0,116.0
2351,38.0,5,60,14.0,100.0
2352,60.0,2,18,8.0,104.0
2353,48.0,19,18,8.0,104.0
2354,84.0,0,60,7.0,127.0
2355,96.0,0,60,7.0,127.0
2356,88.0,28,0,7.0,121.0
2357,48.0,1,52,13.0,100.0
2358,36.0,1,52,14.0,100.0
2359,36.0,2,18,8.0,104.0
2360,48.0,19,18,8.0,104.0
2361,60.0,1,112,12.0,100.0
2362,48.0,4,115,3.0,116.0
2363,36.0,0,115,3.0,116.0
2364,60.0,30,18,8.0,104.0
2365,48.0,20,18,8.0,104.0
2366,48.0,6,112,13.0,100.0
2367,84.0,28,0,7.0,125.0
2368,96.0,0,0,7.0,125.0
2369,88.0,0,0,7.0,125.0
2370,36.0,5,112,14.0,100.0
2371,36.0,2,18,8.0,104.0
2372,48.0,19,18,8.0,104.0
2373,72.0,28,232,10.0,100.0
2374,64.0,0,232,10.0,100.0
2375,60.0,0,232,11.0,100.0
2376,60.0,5,112,12.0,100.0
2377,64.0,2,0,4.0,117.0
2378,36.0,0,120,3.0,116.0
2379,48.0,0,0,3.0,116.0
2380,82.0,18,30,7.0,111.0
2381,94.0,0,30,7.0,111.0
2382,60.0,0,60,8.0,121.0
2383,79.0,30,30,7.0,98.0
2384,91.0,0,30,7.0,98.0
2385,72.0,0,120,10.0,100.0
2386,64.0,28,120,10.0,100.0
2387,76.0,30,30,7.0,95.0
2388,88.0,0,30,7.0,95.0
2389,60.0,2,120,11.0,100.0
2390,67.0,0,120,4.0,117.0
2391,60.0,2,360,5.0,117.0
2392,48.0,3,120,12.0,100.0
2393,60.0,0,120,12.0,100.0
2394,48.0,6,180,13.0,100.0
2395,60.0,4,120,3.0,116.0
2396,36.0,5,180,14.0,100.0
2397,84.0,30,30,7.0,91.0
2398,72.0,2,30,8.0,91.0
2399,82.0,28,30,7.0,89.0
2400,70.0,2,30,8.0,89.0
2401,79.0,28,30,7.0,85.0
2402,67.0,2,30,8.0,85.0
2403,76.0,28,30,7.0,82.0
2404,64.0,2,30,8.0,80.0
2405,72.0,28,30,7.0,78.0
2406,60.0,2,30,8.0,78.0
2407,70.0,28,30,7.0,75.0
2408,58.0,2,30,8.0,76.0
2409,67.0,28,30,7.0,73.0
2410,55.0,2,30,8.0,72.0
2411,64.0,28,30,7.0,70.0
2412,52.0,2,30,8.0,70.0
2413,60.0,28,30,7.0,66.0
2414,48.0,2,30,8.0,66.0
2415,58.0,28,30,7.0,62.0
2416,46.0,2,30,8.0,62.0
2417,55.0,28,30,7.0,55.0
2418,43.0,2,30,8.0,54.0
2419,52.0,28,30,7.0,51.0
2420,40.0,2,30,8.0,50.0
2421,36.0,1,532,13.0,100.0
2422,48.0,28,60,7.0,41.0
2423,36.0,2,60,8.0,41.0
2424,69.0,52,52,10.0,83.0
2425,60.0,2,52,11.0,83.0
2426,53.0,5,52,12.0,83.0
2427,36.0,66,112,13.0,100.0
2428,60.0,2,60,11.0,110.0
2429,69.0,53,112,10.0,100.0
2430,61.0,54,52,11.0,100.0
2431,53.0,5,112,12.0,100.0
2432,36.0,1,112,13.0,100.0
2433,61.0,2,60,11.0,110.0
2434,53.0,5,60,12.0,110.0
2435,69.0,58,112,10.0,100.0
2436,62.0,54,52,11.0,100.0
2437,54.0,5,52,12.0,100.0
2438,36.0,1,112,13.0,100.0
2439,69.0,53,60,10.0,110.0
2440,69.0,4,60,2.0,114.0
2441,54.0,1,60,12.0,110.0
2442,60.0,0,60,3.0,115.0
2443,54.0,4,60,3.0,115.0
2444,70.0,48,52,10.0,100.0
2445,62.0,2,112,11.0,100.0
2446,55.0,1,52,12.0,100.0
2447,36.0,1,112,13.0,100.0
2448,70.0,6,60,2.0,125.0
2449,58.0,0,60,3.0,126.0
2450,55.0,5,60,3.0,126.0
2451,70.0,48,60,10.0,110.0
2452,62.0,2,60,11.0,110.0
2453,55.0,5,60,12.0,110.0
2454,71.0,52,52,10.0,100.0
2455,67.0,2,52,11.0,100.0
2456,53.0,5,52,12.0,100.0
2457,36.0,1,112,13.0,100.0
2458,71.0,53,60,10.0,110.0
2459,71.0,4,60,2.0,114.0
2460,53.0,1,60,12.0,110.0
2461,53.0,0,60,3.0,115.0
2462,62.0,4,60,3.0,115.0
2463,72.0,48,52,10.0,100.0
2464,52.0,1,52,12.0,100.0
2465,36.0,1,112,13.0,100.0
2466,67.0,2,0,11.0,110.0
2467,72.0,6,60,2.0,125.0
2468,52.0,5,60,3.0,126.0
2469,60.0,0,60,3.0,126.0
2470,72.0,48,60,10.0,110.0
2471,52.0,5,60,12.0,110.0
2472,70.0,52,52,10.0,100.0
2473,64.0,2,52,11.0,100.0
2474,55.0,5,52,12.0,100.0
2475,36.0,1,112,13.0,100.0
2476,70.0,53,60,10.0,110.0
2477,64.0,2,60,11.0,110.0
2478,70.0,4,60,2.0,114.0
2479,64.0,0,60,2.0,114.0
2480,55.0,1,60,12.0,110.0
2481,58.0,0,60,3.0,115.0
2482,55.0,4,60,3.0,115.0
2483,69.0,48,52,10.0,100.0
2484,60.0,2,52,11.0,100.0
2485,53.0,1,52,12.0,100.0
2486,36.0,1,112,13.0,100.0
2487,69.0,0,60,2.0,125.0
2488,65.0,4,60,2.0,125.0
2489,57.0,0,60,3.0,126.0
2490,53.0,5,60,3.0,126.0
2491,69.0,48,60,10.0,110.0
2492,60.0,2,60,11.0,110.0
2493,53.0,5,60,12.0,110.0
2494,77.0,52,52,10.0,100.0
2495,69.0,2,52,11.0,100.0
2496,60.0,5,52,12.0,100.0
2497,36.0,1,112,13.0,100.0
2498,60.0,5,60,12.0,110.0
2499,77.0,53,112,10.0,100.0
2500,69.0,2,112,11.0,100.0
2501,61.0,59,52,12.0,100.0
2502,36.0,1,112,13.0,100.0
2503,77.0,53,60,10.0,110.0
2504,69.0,2,60,11.0,110.0
2505,61.0,5,60,12.0,110.0
2506,78.0,52,52,10.0,100.0
2507,72.0,2,52,11.0,100.0
2508,62.0,5,52,12.0,100.0
2509,36.0,1,112,13.0,100.0
2510,78.0,53,60,10.0,110.0
2511,72.0,0,60,0.0,125.0
2512,78.0,1,60,0.0,125.0
2513,72.0,1,60,11.0,110.0
2514,69.0,2,60,1.0,124.0
2515,62.0,3,60,12.0,110.0
2516,79.0,52,52,10.0,100.0
2517,71.0,1,52,11.0,100.0
2518,65.0,3,52,12.0,100.0
2519,36.0,1,112,13.0,100.0
2520,71.0,0,60,0.0,125.0
2521,79.0,1,60,0.0,125.0
2522,74.0,2,60,1.0,124.0
2523,79.0,53,60,10.0,110.0
2524,71.0,2,60,11.0,110.0
2525,65.0,5,60,12.0,110.0
2526,72.0,52,52,10.0,100.0
2527,70.0,2,52,11.0,100.0
2528,64.0,5,52,12.0,100.0
2529,36.0,1,112,13.0,100.0
2530,72.0,53,60,10.0,110.0
2531,67.0,0,60,0.0,125.0
2532,72.0,1,0,0.0,125.0
2533,70.0,1,60,11.0,110.0
2534,70.0,2,60,1.0,124.0
2535,64.0,3,60,12.0,110.0
2536,77.0,52,52,10.0,100.0
2537,69.0,1,52,11.0,100.0
2538,63.0,3,52,12.0,100.0
2539,36.0,1,112,13.0,100.0
2540,77.0,0,60,0.0,125.0
2541,69.0,2,60,1.0,124.0
2542,77.0,53,60,10.0,110.0
2543,69.0,2,60,11.0,110.0
2544,63.0,5,60,12.0,110.0
2545,70.0,52,52,10.0,100.0
2546,65.0,2,52,11.0,100.0
2547,62.0,5,52,12.0,100.0
2548,36.0,1,112,13.0,100.0
2549,70.0,53,60,10.0,110.0
2550,70.0,0,60,2.0,114.0
2551,62.0,1,60,12.0,110.0
2552,62.0,4,60,3.0,115.0
2553,69.0,48,52,10.0,100.0
2554,65.0,2,112,11.0,100.0
2555,60.0,1,52,12.0,100.0
2556,36.0,1,112,13.0,100.0
2557,69.0,6,60,2.0,125.0
2558,65.0,4,120,2.0,114.0
2559,60.0,5,60,3.0,126.0
2560,69.0,48,60,10.0,110.0
2561,60.0,5,60,12.0,110.0
2562,67.0,52,52,10.0,100.0
2563,65.0,2,112,11.0,100.0
2564,59.0,7,52,12.0,100.0
2565,36.0,1,112,13.0,100.0
2566,67.0,53,60,10.0,110.0
2567,67.0,0,60,2.0,114.0
2568,59.0,1,60,12.0,110.0
2569,59.0,4,60,3.0,115.0
2570,74.0,48,52,10.0,100.0
2571,65.0,2,112,11.0,100.0
2572,58.0,1,52,12.0,100.0
2573,36.0,1,112,13.0,100.0
2574,65.0,4,120,2.0,114.0
2575,74.0,6,60,2.0,125.0
2576,58.0,5,60,3.0,126.0
2577,74.0,48,60,10.0,110.0
2578,65.0,2,60,11.0,110.0
2579,72.0,52,52,10.0,100.0
2580,64.0,2,52,11.0,100.0
2581,55.0,5,52,12.0,100.0
2582,58.0,5,112,12.0,100.0
2583,36.0,1,112,13.0,100.0
2584,72.0,53,60,10.0,110.0
2585,72.0,1,60,0.0,125.0
2586,64.0,0,60,0.0,125.0
2587,64.0,1,60,11.0,110.0
2588,55.0,0,60,12.0,110.0
2589,58.0,5,60,12.0,110.0
2590,48.0,0,60,3.0,126.0
2591,58.0,4,60,3.0,126.0
2592,65.0,48,52,10.0,100.0
2593,65.0,1,52,11.0,100.0
2594,57.0,5,52,12.0,100.0
2595,53.0,0,52,12.0,100.0
2596,36.0,1,112,13.0,100.0
2597,65.0,1,60,0.0,125.0
2598,53.0,5,60,3.0,126.0
2599,57.0,0,60,3.0,126.0
2600,65.0,48,60,10.0,110.0
2601,53.0,5,60,12.0,110.0
2602,60.0,52,52,10.0,100.0
2603,57.0,2,112,11.0,100.0
2604,51.0,7,52,12.0,100.0
2605,36.0,1,112,13.0,100.0
2606,60.0,53,60,10.0,110.0
2607,57.0,2,60,11.0,110.0
2608,51.0,5,60,12.0,110.0
2609,65.0,52,52,10.0,100.0
2610,58.0,2,52,11.0,100.0
2611,50.0,5,52,12.0,100.0
2612,36.0,1,112,13.0,100.0
2613,65.0,53,60,10.0,110.0
2614,58.0,2,60,11.0,110.0
2615,50.0,5,60,12.0,110.0
2616,60.0,52,52,10.0,100.0
2617,55.0,2,52,11.0,100.0
2618,52.0,5,52,12.0,100.0
2619,36.0,1,112,13.0,100.0
2620,60.0,53,60,10.0,110.0
2621,55.0,2,60,11.0,110.0
2622,60.0,4,60,5.0,111.0
2623,52.0,1,60,12.0,110.0
2624,52.0,4,60,3.0,126.0
2625,65.0,48,52,10.0,100.0
2626,57.0,2,52,11.0,100.0
2627,53.0,1,52,12.0,100.0
2628,36.0,1,112,13.0,100.0
2629,53.0,4,60,5.0,121.0
2630,53.0,5,60,3.0,126.0
2631,65.0,48,60,10.0,110.0
2632,53.0,5,60,12.0,110.0
2633,60.0,52,52,10.0,100.0
2634,57.0,2,112,11.0,100.0
2635,51.0,7,52,12.0,100.0
2636,36.0,1,112,13.0,100.0
2637,60.0,53,60,10.0,110.0
2638,57.0,2,60,11.0,110.0
2639,51.0,5,60,12.0,110.0
2640,65.0,52,52,10.0,100.0
2641,58.0,2,52,11.0,100.0
2642,50.0,5,52,12.0,100.0
2643,36.0,1,112,13.0,100.0
2644,65.0,53,60,10.0,110.0
2645,58.0,2,60,11.0,110.0
2646,50.0,5,60,12.0,110.0
2647,60.0,52,52,10.0,100.0
2648,55.0,2,52,11.0,100.0
2649,52.0,5,52,12.0,100.0
2650,36.0,1,112,13.0,100.0
2651,55.0,2,60,11.0,110.0
2652,60.0,4,60,2.0,113.0
2653,52.0,1,60,12.0,110.0
2654,60.0,53,112,10.0,100.0
2655,57.0,54,52,11.0,100.0
2656,53.0,1,52,12.0,100.0
2657,36.0,1,112,13.0,100.0
2658,53.0,4,60,2.0,124.0
2659,57.0,2,60,11.0,110.0
2660,53.0,5,60,12.0,110.0
2661,60.0,53,112,10.0,100.0
2662,55.0,54,52,11.0,100.0
2663,52.0,5,52,12.0,100.0
2664,36.0,1,112,13.0,100.0
2665,55.0,2,60,11.0,110.0
2666,52.0,5,60,12.0,110.0
2667,60.0,53,112,10.0,100.0
2668,57.0,54,52,11.0,100.0
2669,53.0,5,52,12.0,100.0
2670,36.0,1,112,13.0,100.0
2671,57.0,2,60,11.0,106.0
2672,53.0,5,60,12.0,106.0
2673,60.0,53,112,10.0,96.0
2674,55.0,54,52,11.0,94.0
2675,52.0,5,52,12.0,94.0
2676,36.0,1,112,13.0,96.0
2677,36.0,1,52,13.0,84.0
2678,55.0,55,60,11.0,91.0
2679,52.0,5,60,12.0,91.0
2680,57.0,114,30,11.0,90.0
2681,53.0,5,30,12.0,90.0
2682,36.0,1,30,13.0,90.0
2683,55.0,114,30,11.0,91.0
2684,52.0,5,30,12.0,91.0
2685,36.0,1,30,13.0,91.0
2686,57.0,114,30,11.0,93.0
2687,53.0,5,30,12.0,93.0
2688,36.0,1,30,13.0,93.0
2689,55.0,114,30,11.0,94.0
2690,52.0,5,30,12.0,94.0
2691,36.0,1,30,13.0,94.0
2692,55.0,119,30,12.0,86.0
2693,50.0,1,30,13.0,86.0
2694,34.0,5,30,14.0,86.0
2695,53.0,114,30,12.0,83.0
2696,50.0,1,30,13.0,83.0
2697,34.0,5,30,14.0,83.0
2698,53.0,114,30,12.0,80.0
2699,48.0,1,30,13.0,80.0
2700,33.0,5,30,14.0,80.0
2701,52.0,114,30,12.0,77.0
2702,48.0,1,30,13.0,77.0
2703,33.0,5,30,14.0,77.0
2704,43.0,1,10,13.0,93.0
2705,58.0,47,20,10.0,93.0
2706,43.0,3,10,13.0,93.0
2707,52.0,7,30,12.0,93.0
2708,31.0,5,25,14.0,93.0
2709,64.0,7,20,10.0,80.0
2710,43.0,1,10,13.0,93.0
2711,58.0,2,20,10.0,93.0
2712,43.0,10,10,13.0,93.0
2713,58.0,14,30,12.0,93.0
2714,31.0,3,25,14.0,93.0
2715,43.0,1,10,13.0,94.0
2716,64.0,7,20,10.0,81.0
2717,43.0,3,10,13.0,94.0
2718,52.0,7,30,12.0,94.0
2719,31.0,5,25,14.0,94.0
2720,58.0,7,20,10.0,94.0
2721,43.0,1,10,13.0,94.0
2722,64.0,2,20,10.0,83.0
2723,43.0,10,10,13.0,94.0
2724,58.0,14,30,12.0,94.0
2725,31.0,3,25,14.0,94.0
2726,43.0,1,10,13.0,96.0
2727,58.0,7,20,10.0,96.0
2728,43.0,3,10,13.0,96.0
2729,52.0,7,30,12.0,96.0
2730,31.0,5,25,14.0,96.0
2731,64.0,7,20,10.0,83.0
2732,43.0,1,10,13.0,96.0
2733,58.0,2,20,10.0,96.0
2734,43.0,10,10,13.0,97.0
2735,58.0,14,30,12.0,96.0
2736,31.0,3,25,14.0,96.0
2737,43.0,1,10,13.0,97.0
2738,64.0,7,20,10.0,84.0
2739,43.0,3,10,13.0,98.0
2740,52.0,7,30,12.0,97.0
2741,31.0,5,25,14.0,97.0
2742,58.0,7,20,10.0,98.0
2743,43.0,1,10,13.0,98.0
2744,64.0,2,15,10.0,86.0
2745,58.0,14,25,12.0,98.0
2746,43.0,10,10,13.0,100.0
2747,31.0,3,25,14.0,98.0
2748,42.0,1,10,13.0,100.0
2749,57.0,7,20,10.0,100.0
2750,64.0,2,20,11.0,100.0
2751,45.0,1,10,15.0,38.0
2752,42.0,1,10,13.0,100.0
2753,57.0,2,30,4.0,100.0
2754,52.0,3,30,12.0,100.0
2755,30.0,5,25,14.0,100.0
2756,45.0,6,10,15.0,40.0
2757,69.0,6,20,10.0,86.0
2758,57.0,2,20,11.0,100.0
2759,42.0,1,10,13.0,100.0
2760,45.0,2,10,15.0,38.0
2761,57.0,2,20,10.0,100.0
2762,64.0,2,20,11.0,100.0
2763,42.0,8,10,13.0,100.0
2764,57.0,8,30,12.0,100.0
2765,30.0,1,25,14.0,100.0
2766,45.0,7,10,15.0,42.0
2767,42.0,1,10,13.0,100.0
2768,69.0,0,20,10.0,86.0
2769,57.0,2,20,11.0,100.0
2770,45.0,3,10,15.0,42.0
2771,42.0,1,10,13.0,100.0
2772,52.0,3,30,12.0,100.0
2773,30.0,5,25,14.0,100.0
2774,45.0,6,10,15.0,43.0
2775,57.0,4,20,10.0,100.0
2776,64.0,2,20,11.0,100.0
2777,42.0,1,10,13.0,100.0
2778,45.0,3,10,15.0,43.0
2779,69.0,2,20,10.0,86.0
2780,57.0,2,20,11.0,100.0
2781,42.0,7,10,13.0,100.0
2782,57.0,8,30,12.0,100.0
2783,30.0,1,25,14.0,100.0
2784,45.0,6,10,15.0,43.0
2785,42.0,1,10,13.0,100.0
2786,57.0,1,20,10.0,100.0
2787,64.0,2,20,11.0,100.0
2788,45.0,1,10,15.0,45.0
2789,42.0,1,10,13.0,100.0
2790,52.0,5,30,12.0,100.0
2791,30.0,5,25,14.0,100.0
2792,45.0,6,10,15.0,45.0
2793,69.0,6,20,10.0,86.0
2794,57.0,2,20,11.0,100.0
2795,42.0,1,10,13.0,100.0
2796,62.0,2,110,4.0,100.0
2797,45.0,3,10,15.0,46.0
2798,57.0,2,20,10.0,100.0
2799,64.0,2,20,11.0,100.0
2800,42.0,7,10,13.0,100.0
2801,57.0,8,30,12.0,100.0
2802,30.0,1,25,14.0,100.0
2803,45.0,6,10,15.0,46.0
2804,42.0,1,10,13.0,100.0
2805,69.0,1,20,10.0,86.0
2806,57.0,2,20,11.0,100.0
2807,45.0,1,10,15.0,49.0
2808,42.0,1,10,13.0,100.0
2809,64.0,2,30,4.0,100.0
2810,52.0,3,30,12.0,100.0
2811,30.0,5,25,14.0,100.0
2812,45.0,7,10,15.0,49.0
2813,57.0,6,20,10.0,100.0
2814,64.0,2,20,11.0,100.0
2815,42.0,1,10,13.0,100.0
2816,45.0,2,10,15.0,50.0
2817,69.0,2,15,10.0,86.0
2818,57.0,2,15,11.0,100.0
2819,57.0,7,25,12.0,100.0
2820,42.0,8,10,13.0,100.0
2821,30.0,1,25,14.0,100.0
2822,45.0,6,10,15.0,52.0
2823,41.0,1,10,13.0,100.0
2824,62.0,1,20,10.0,100.0
2825,69.0,2,20,11.0,100.0
2826,45.0,2,10,15.0,52.0
2827,41.0,1,10,13.0,100.0
2828,50.0,3,30,12.0,100.0
2829,29.0,5,25,14.0,100.0
2830,45.0,6,10,15.0,55.0
2831,74.0,5,20,10.0,86.0
2832,62.0,2,20,11.0,100.0
2833,41.0,1,10,13.0,100.0
2834,45.0,3,10,15.0,55.0
2835,62.0,2,20,10.0,100.0
2836,69.0,2,20,11.0,100.0
2837,41.0,7,10,13.0,100.0
2838,62.0,8,30,12.0,100.0
2839,29.0,1,25,14.0,100.0
2840,45.0,0,10,15.0,55.0
2841,41.0,1,10,13.0,100.0
2842,74.0,7,20,10.0,86.0
2843,62.0,2,20,11.0,100.0
2844,45.0,3,10,15.0,59.0
2845,41.0,1,10,13.0,100.0
2846,50.0,5,30,12.0,100.0
2847,29.0,5,25,14.0,100.0
2848,62.0,4,20,10.0,100.0
2849,45.0,8,10,15.0,59.0
2850,69.0,2,20,11.0,100.0
2851,41.0,1,10,13.0,100.0
2852,45.0,2,10,15.0,59.0
2853,74.0,2,20,10.0,86.0
2854,62.0,2,20,11.0,100.0
2855,41.0,8,10,13.0,100.0
2856,62.0,6,30,12.0,100.0
2857,29.0,1,25,14.0,100.0
2858,45.0,0,10,15.0,59.0
2859,41.0,1,10,13.0,100.0
2860,62.0,7,20,10.0,100.0
2861,69.0,2,20,11.0,100.0
2862,45.0,3,10,15.0,62.0
2863,41.0,1,10,13.0,100.0
2864,50.0,5,30,12.0,100.0
2865,29.0,5,25,14.0,100.0
2866,74.0,4,20,10.0,86.0
2867,45.0,8,10,15.0,63.0
2868,62.0,2,20,11.0,100.0
2869,41.0,1,10,13.0,100.0
2870,45.0,3,10,15.0,66.0
2871,62.0,2,20,10.0,100.0
2872,69.0,2,20,11.0,100.0
2873,41.0,7,10,13.0,100.0
2874,62.0,6,30,12.0,100.0
2875,29.0,1,25,14.0,100.0
2876,45.0,7,10,15.0,66.0
2877,41.0,1,10,13.0,100.0
2878,74.0,0,20,10.0,86.0
2879,62.0,2,20,11.0,100.0
2880,45.0,1,10,15.0,66.0
2881,41.0,1,10,13.0,100.0
2882,50.0,5,30,12.0,100.0
2883,29.0,5,25,14.0,100.0
2884,62.0,6,20,10.0,100.0
2885,45.0,8,10,15.0,66.0
2886,69.0,2,20,11.0,100.0
2887,41.0,1,10,13.0,100.0
2888,45.0,2,10,15.0,67.0
2889,74.0,2,15,10.0,86.0
2890,62.0,2,15,11.0,100.0
2891,62.0,6,25,12.0,100.0
2892,41.0,8,10,13.0,100.0
2893,69.0,2,240,4.0,100.0
2894,29.0,1,25,14.0,100.0
2895,45.0,1,10,15.0,69.0
2896,40.0,1,10,13.0,100.0
2897,69.0,7,20,10.0,100.0
2898,74.0,1,20,11.0,100.0
2899,45.0,1,10,15.0,72.0
2900,69.0,1,30,6.0,127.0
2901,40.0,1,10,13.0,100.0
2902,57.0,4,30,12.0,100.0
2903,28.0,5,25,14.0,100.0
2904,45.0,6,10,15.0,72.0
2905,81.0,6,20,10.0,72.0
2906,69.0,2,20,11.0,100.0
2907,40.0,1,10,13.0,100.0
2908,45.0,2,10,15.0,73.0
2909,69.0,2,20,10.0,100.0
2910,74.0,2,20,11.0,100.0
2911,40.0,8,10,13.0,100.0
2912,62.0,8,30,12.0,100.0
2913,28.0,1,25,14.0,100.0
2914,45.0,1,10,15.0,76.0
2915,40.0,1,10,13.0,100.0
2916,81.0,7,20,10.0,72.0
2917,69.0,1,20,11.0,100.0
2918,45.0,2,10,15.0,74.0
2919,40.0,1,10,13.0,100.0
2920,57.0,4,30,12.0,100.0
2921,28.0,5,25,14.0,100.0
2922,69.0,5,20,10.0,100.0
2923,45.0,8,10,15.0,77.0
2924,74.0,2,20,11.0,100.0
2925,40.0,1,10,13.0,100.0
2926,45.0,2,10,15.0,79.0
2927,81.0,2,20,10.0,72.0
2928,69.0,2,20,11.0,100.0
2929,40.0,8,10,13.0,100.0
2930,62.0,6,30,12.0,100.0
2931,28.0,1,25,14.0,100.0
2932,45.0,1,10,15.0,79.0
2933,40.0,1,10,13.0,100.0
2934,69.0,7,20,10.0,100.0
2935,74.0,1,20,11.0,100.0
2936,45.0,2,10,15.0,80.0
2937,40.0,1,10,13.0,100.0
2938,57.0,5,30,12.0,100.0
2939,28.0,5,25,14.0,100.0
2940,81.0,5,20,10.0,72.0
2941,45.0,8,10,15.0,83.0
2942,69.0,2,20,11.0,100.0
2943,40.0,1,10,13.0,100.0
2944,74.0,1,110,6.0,127.0
2945,45.0,2,10,15.0,83.0
2946,69.0,2,20,10.0,100.0
2947,74.0,2,20,11.0,100.0
2948,40.0,8,10,13.0,100.0
2949,62.0,6,30,12.0,100.0
2950,28.0,1,25,14.0,100.0
2951,45.0,6,10,15.0,83.0
2952,40.0,1,10,13.0,100.0
2953,81.0,1,20,10.0,72.0
2954,69.0,2,20,11.0,100.0
2955,45.0,2,10,15.0,87.0
2956,76.0,1,30,6.0,127.0
2957,40.0,1,10,13.0,100.0
2958,57.0,4,30,12.0,100.0
2959,28.0,5,25,14.0,100.0
2960,69.0,5,20,10.0,100.0
2961,45.0,7,10,15.0,88.0
2962,74.0,2,20,11.0,100.0
2963,40.0,1,10,13.0,100.0
2964,81.0,2,15,10.0,72.0
2965,45.0,3,10,15.0,87.0
2966,69.0,2,15,11.0,100.0
2967,62.0,7,25,12.0,100.0
2968,40.0,7,10,13.0,100.0
2969,28.0,1,25,14.0,100.0
2970,45.0,6,10,15.0,89.0
2971,39.0,1,10,13.0,100.0
2972,69.0,1,20,10.0,100.0
2973,81.0,2,20,11.0,100.0
2974,45.0,2,10,15.0,88.0
2975,39.0,1,10,13.0,100.0
2976,57.0,3,30,12.0,100.0
2977,81.0,5,20,10.0,72.0
2978,45.0,8,10,15.0,90.0
2979,72.0,2,20,11.0,100.0
2980,39.0,1,10,13.0,100.0
2981,45.0,2,10,15.0,90.0
2982,69.0,2,20,10.0,100.0
2983,81.0,2,20,11.0,100.0
2984,39.0,9,10,13.0,100.0
2985,66.0,6,30,12.0,100.0
2986,45.0,6,10,15.0,91.0
2987,39.0,1,10,13.0,100.0
2988,81.0,1,20,10.0,72.0
2989,72.0,2,20,11.0,100.0
2990,45.0,8,10,15.0,89.0
2991,39.0,1,10,13.0,100.0
2992,57.0,5,30,12.0,100.0
2993,69.0,4,20,10.0,100.0
2994,45.0,7,10,15.0,89.0
2995,81.0,2,20,11.0,100.0
2996,39.0,1,10,13.0,100.0
2997,45.0,4,10,15.0,90.0
2998,81.0,2,20,10.0,72.0
2999,72.0,2,20,11.0,100.0
3000,39.0,7,10,13.0,100.0
3001,66.0,7,30,12.0,100.0
3002,45.0,6,10,15.0,90.0
3003,39.0,1,10,13.0,100.0
3004,69.0,1,20,10.0,100.0
3005,81.0,2,20,11.0,100.0
3006,45.0,7,10,15.0,90.0
3007,39.0,1,10,13.0,100.0
3008,57.0,0,30,12.0,100.0
3009,45.0,6,10,15.0,89.0
3010,81.0,4,20,10.0,72.0
3011,72.0,2,20,11.0,100.0
3012,39.0,1,10,13.0,100.0
3013,45.0,4,10,15.0,89.0
3014,69.0,2,20,10.0,100.0
3015,51.0,0,60,8.0,120.0
3016,81.0,2,20,11.0,100.0
3017,39.0,7,10,13.0,100.0
3018,57.0,1,60,8.0,120.0
3019,60.0,3,60,8.0,120.0
3020,69.0,1,60,8.0,120.0
3021,66.0,8,30,12.0,100.0
3022,93.0,0,60,7.0,127.0
3023,81.0,1,60,7.0,122.0
3024,84.0,0,60,7.0,124.0
3025,45.0,6,10,15.0,90.0
3026,39.0,1,10,13.0,100.0
3027,81.0,1,20,10.0,72.0
3028,72.0,2,20,11.0,100.0
3029,45.0,8,10,15.0,89.0
3030,39.0,1,10,13.0,100.0
3031,57.0,5,30,12.0,100.0
3032,45.0,6,10,15.0,90.0
3033,69.0,4,20,10.0,100.0
3034,81.0,2,20,11.0,100.0
3035,39.0,1,10,13.0,100.0
3036,45.0,4,10,15.0,93.0
3037,81.0,2,20,10.0,72.0
3038,72.0,2,20,11.0,100.0
3039,81.0,1,240,6.0,122.0
3040,39.0,7,10,13.0,100.0
3041,69.0,1,240,4.0,100.0
3042,66.0,8,30,12.0,100.0
3043,39.0,5,240,14.0,100.0
3044,40.0,1,10,13.0,100.0
3045,76.0,0,20,10.0,100.0
3046,81.0,2,20,11.0,100.0
3047,40.0,1,10,13.0,100.0
3048,59.0,1,30,12.0,100.0
3049,83.0,5,20,10.0,72.0
3050,71.0,2,20,11.0,100.0
3051,40.0,1,10,13.0,100.0
3052,76.0,2,20,10.0,100.0
3053,52.0,7,60,8.0,120.0
3054,81.0,2,20,11.0,100.0
3055,76.0,0,60,6.0,120.0
3056,40.0,11,10,13.0,100.0
3057,57.0,1,60,8.0,120.0
3058,64.0,1,60,4.0,100.0
3059,59.0,2,60,8.0,120.0
3060,69.0,14,30,12.0,100.0
3061,69.0,0,60,8.0,120.0
3062,93.0,0,60,7.0,127.0
3063,83.0,0,60,7.0,124.0
3064,81.0,1,60,7.0,122.0
3065,40.0,4,60,14.0,100.0
3066,45.0,2,60,15.0,127.0
3067,40.0,1,10,13.0,100.0
3068,83.0,7,20,10.0,72.0
3069,71.0,2,20,11.0,100.0
3070,40.0,1,10,13.0,100.0
3071,59.0,5,30,12.0,100.0
3072,76.0,12,20,10.0,100.0
3073,81.0,2,20,11.0,100.0
3074,40.0,1,10,13.0,100.0
3075,83.0,2,20,10.0,72.0
3076,71.0,2,20,11.0,100.0
3077,40.0,11,10,13.0,100.0
3078,69.0,14,30,12.0,100.0
3079,40.0,1,10,13.0,100.0
3080,76.0,7,20,10.0,100.0
3081,80.0,2,20,11.0,100.0
3082,40.0,1,10,13.0,100.0
3083,59.0,1,30,12.0,100.0
3084,83.0,7,20,10.0,72.0
3085,71.0,2,20,11.0,100.0
3086,40.0,1,10,13.0,100.0
3087,52.0,0,60,8.0,120.0
3088,76.0,2,20,10.0,100.0
3089,80.0,2,20,11.0,100.0
3090,76.0,0,60,6.0,120.0
3091,56.0,1,60,8.0,120.0
3092,40.0,11,10,13.0,100.0
3093,64.0,1,60,4.0,100.0
3094,59.0,2,60,8.0,120.0
3095,68.0,0,60,8.0,120.0
3096,68.0,14,30,12.0,100.0
3097,92.0,0,60,7.0,127.0
3098,80.0,1,60,7.0,122.0
3099,83.0,0,60,7.0,124.0
3100,28.0,4,60,14.0,100.0
3101,40.0,1,10,13.0,100.0
3102,83.0,7,20,10.0,72.0
3103,71.0,2,20,11.0,100.0
3104,40.0,1,10,13.0,100.0
3105,59.0,5,30,12.0,100.0
3106,76.0,12,20,10.0,100.0
3107,80.0,2,20,11.0,100.0
3108,40.0,1,10,13.0,100.0
3109,83.0,2,20,10.0,72.0
3110,71.0,2,20,11.0,100.0
3111,40.0,11,10,13.0,100.0
3112,68.0,14,30,12.0,100.0
3113,64.0,0,30,10.0,90.0
3114,81.0,7,30,10.0,100.0
3115,73.0,0,30,10.0,90.0
3116,69.0,0,30,11.0,100.0
3117,81.0,2,30,11.0,100.0
3118,69.0,1,30,6.0,120.0
3119,69.0,1,30,4.0,100.0
3120,57.0,0,30,4.0,100.0
3121,45.0,1,30,13.0,100.0
3122,33.0,4,30,14.0,100.0
3123,45.0,0,60,8.0,120.0
3124,52.0,0,60,8.0,120.0
3125,61.0,0,60,8.0,120.0
3126,93.0,45,9,7.0,119.0
3127,81.0,0,9,7.0,126.0
3128,85.0,0,60,7.0,124.0
3129,45.0,2,60,15.0,101.0
3130,69.0,0,20,8.0,119.0
3131,92.0,7,20,7.0,119.0
3132,68.0,0,20,8.0,119.0
3133,67.0,0,20,8.0,119.0
3134,91.0,20,20,7.0,119.0
3135,57.0,3,120,12.0,100.0
3136,69.0,0,120,12.0,100.0
3137,90.0,0,20,7.0,119.0
3138,66.0,0,20,8.0,119.0
3139,74.0,0,30,10.0,90.0
3140,65.0,0,30,10.0,90.0
3141,81.0,20,30,10.0,100.0
3142,65.0,2,30,11.0,100.0
3143,62.0,0,30,11.0,100.0
3144,69.0,0,30,11.0,100.0
3145,69.0,0,30,6.0,120.0
3146,62.0,1,30,6.0,120.0
3147,62.0,0,30,4.0,100.0
3148,50.0,1,30,4.0,100.0
3149,65.0,0,20,8.0,119.0
3150,89.0,5,20,7.0,119.0
3151,50.0,8,110,13.0,120.0
3152,64.0,20,20,8.0,119.0
3153,88.0,0,20,7.0,119.0
3154,38.0,5,110,14.0,120.0
3155,50.0,11,60,15.0,101.0
3156,63.0,0,20,8.0,119.0
3157,87.0,20,20,7.0,119.0
3158,53.0,8,30,13.0,120.0
3159,62.0,7,20,8.0,119.0
3160,86.0,0,20,7.0,119.0
3161,41.0,5,30,14.0,120.0
3162,85.0,0,20,7.0,119.0
3163,57.0,0,180,8.0,127.0
3164,61.0,20,20,8.0,119.0
3165,84.0,0,20,7.0,119.0
3166,60.0,20,20,8.0,119.0
3167,64.0,0,30,10.0,90.0
3168,73.0,0,30,10.0,90.0
3169,81.0,0,30,10.0,100.0
3170,69.0,0,30,11.0,100.0
3171,57.0,0,30,11.0,100.0
3172,64.0,2,30,11.0,100.0
3173,57.0,1,30,6.0,120.0
3174,69.0,0,30,6.0,120.0
3175,64.0,1,30,4.0,100.0
3176,57.0,0,30,4.0,100.0
3177,57.0,3,30,12.0,100.0
3178,57.0,1,30,13.0,120.0
3179,83.0,5,20,7.0,119.0
3180,59.0,0,20,8.0,119.0
3181,58.0,20,20,8.0,119.0
3182,82.0,0,20,7.0,119.0
3183,45.0,2,60,15.0,101.0
3184,81.0,0,20,7.0,119.0
3185,57.0,20,20,8.0,119.0
3186,80.0,0,20,7.0,119.0
3187,56.0,12,20,8.0,119.0
3188,79.0,20,20,7.0,119.0
3189,55.0,0,20,8.0,119.0
3190,45.0,5,110,14.0,100.0
3191,78.0,0,20,7.0,119.0
3192,54.0,0,20,8.0,119.0
3193,74.0,0,30,10.0,90.0
3194,65.0,0,30,10.0,90.0
3195,81.0,20,30,10.0,100.0
3196,69.0,0,30,11.0,100.0
3197,65.0,0,30,11.0,100.0
3198,62.0,2,30,11.0,100.0
3199,69.0,1,30,6.0,120.0
3200,62.0,0,30,6.0,120.0
3201,50.0,0,30,4.0,100.0
3202,62.0,1,30,4.0,100.0
3203,53.0,0,20,8.0,119.0
3204,77.0,5,20,7.0,119.0
3205,62.0,7,110,12.0,120.0
3206,62.0,1,110,13.0,120.0
3207,76.0,0,20,7.0,119.0
3208,52.0,20,20,8.0,119.0
3209,50.0,2,60,15.0,101.0
3210,75.0,0,20,7.0,119.0
3211,51.0,20,20,8.0,119.0
3212,65.0,7,30,12.0,120.0
3213,65.0,1,30,13.0,120.0
3214,74.0,0,20,7.0,119.0
3215,50.0,12,20,8.0,119.0
3216,73.0,20,20,7.0,119.0
3217,69.0,0,180,7.0,127.0
3218,49.0,0,20,8.0,119.0
3219,45.0,0,180,8.0,127.0
3220,48.0,0,20,8.0,119.0
3221,72.0,0,20,7.0,119.0
3222,64.0,20,30,10.0,90.0
3223,73.0,0,30,10.0,90.0
3224,81.0,0,30,10.0,100.0
3225,69.0,2,30,11.0,100.0
3226,57.0,1,30,6.0,120.0
3227,69.0,0,30,6.0,120.0
3228,57.0,1,30,4.0,100.0
3229,64.0,0,30,4.0,100.0
3230,57.0,3,30,12.0,100.0
3231,71.0,0,20,7.0,119.0
3232,47.0,5,20,8.0,119.0
3233,70.0,0,20,7.0,119.0
3234,46.0,20,20,8.0,119.0
3235,45.0,7,60,15.0,101.0
3236,45.0,0,20,8.0,119.0
3237,69.0,0,20,7.0,119.0
3238,44.0,13,20,8.0,119.0
3239,68.0,0,20,7.0,119.0
3240,69.0,1,110,13.0,120.0
3241,43.0,20,20,8.0,119.0
3242,67.0,0,20,7.0,119.0
3243,33.0,9,230,14.0,100.0
3244,66.0,0,20,7.0,119.0
3245,42.0,0,20,8.0,119.0
3246,74.0,0,30,10.0,90.0
3247,81.0,0,30,10.0,100.0
3248,65.0,20,30,10.0,90.0
3249,93.0,0,30,0.0,98.0
3250,86.0,1,30,0.0,98.0
3251,62.0,2,30,6.0,120.0
3252,69.0,0,30,6.0,120.0
3253,62.0,0,30,4.0,100.0
3254,50.0,0,30,4.0,100.0
3255,81.0,0,30,1.0,97.0
3256,77.0,1,30,1.0,97.0
3257,65.0,2,30,2.0,98.0
3258,74.0,0,30,2.0,98.0
3259,62.0,2,30,13.0,100.0
3260,53.0,0,30,13.0,100.0
3261,65.0,5,20,7.0,119.0
3262,41.0,0,20,8.0,119.0
3263,53.0,0,30,3.0,99.0
3264,62.0,4,30,3.0,99.0
3265,45.0,1,30,14.0,100.0
3266,74.0,2,110,11.0,120.0
3267,62.0,5,110,12.0,120.0
3268,64.0,0,20,7.0,119.0
3269,40.0,20,20,8.0,119.0
3270,50.0,2,60,15.0,101.0
3271,63.0,0,20,7.0,119.0
3272,39.0,20,20,8.0,119.0
3273,77.0,2,30,11.0,120.0
3274,65.0,5,30,12.0,120.0
3275,62.0,13,20,7.0,119.0
3276,38.0,0,20,8.0,119.0
3277,33.0,0,180,8.0,127.0
3278,37.0,0,20,8.0,119.0
3279,61.0,20,20,7.0,119.0
3280,57.0,20,180,7.0,127.0
3281,36.0,0,20,8.0,115.0
3282,60.0,0,20,7.0,115.0
3283,81.0,0,30,10.0,100.0
3284,73.0,0,30,10.0,90.0
3285,64.0,20,30,10.0,90.0
3286,93.0,0,30,0.0,98.0
3287,85.0,1,30,0.0,98.0
3288,81.0,0,30,11.0,100.0
3289,69.0,1,30,11.0,100.0
3290,57.0,0,30,6.0,120.0
3291,69.0,1,30,6.0,120.0
3292,57.0,0,30,4.0,100.0
3293,45.0,0,30,4.0,100.0
3294,76.0,0,30,1.0,97.0
3295,81.0,1,30,1.0,97.0
3296,64.0,0,30,2.0,98.0
3297,73.0,2,30,2.0,98.0
3298,69.0,0,30,12.0,100.0
3299,61.0,1,30,12.0,100.0
3300,61.0,1,30,13.0,100.0
3301,52.0,0,30,13.0,100.0
3302,35.0,5,20,8.0,115.0
3303,59.0,0,20,7.0,115.0
3304,52.0,0,30,3.0,99.0
3305,61.0,4,30,3.0,99.0
3306,45.0,1,30,14.0,100.0
3307,59.0,20,20,7.0,115.0
3308,35.0,0,20,8.0,115.0
3309,45.0,2,60,15.0,101.0
3310,33.0,20,20,8.0,115.0
3311,57.0,0,0,7.0,115.0
3312,33.0,20,20,8.0,115.0
3313,32.0,0,20,8.0,115.0
3314,56.0,20,20,7.0,115.0
3315,57.0,0,20,7.0,115.0
3316,33.0,20,20,8.0,115.0
3317,81.0,0,30,10.0,100.0
3318,73.0,0,30,10.0,90.0
3319,64.0,0,30,10.0,90.0
3320,93.0,1,30,0.0,98.0
3321,85.0,0,30,0.0,98.0
3322,69.0,0,30,11.0,100.0
3323,81.0,1,30,11.0,100.0
3324,69.0,1,30,6.0,120.0
3325,57.0,0,30,6.0,120.0
3326,81.0,1,30,1.0,97.0
3327,76.0,0,30,1.0,97.0
3328,57.0,0,30,4.0,100.0
3329,45.0,0,30,4.0,100.0
3330,73.0,2,30,2.0,98.0
3331,64.0,0,30,2.0,98.0
3332,61.0,0,30,12.0,100.0
3333,69.0,1,30,12.0,100.0
3334,52.0,1,30,13.0,100.0
3335,61.0,0,30,13.0,100.0
3336,56.0,5,20,7.0,110.0
3337,32.0,0,20,8.0,112.0
3338,52.0,0,30,3.0,99.0
3339,61.0,4,30,3.0,99.0
3340,45.0,1,30,14.0,100.0
3341,33.0,0,20,8.0,114.0
3342,57.0,20,20,7.0,110.0
3343,45.0,2,60,15.0,101.0
3344,56.0,0,20,7.0,100.0
3345,32.0,20,20,8.0,110.0
3346,57.0,0,20,7.0,93.0
3347,33.0,20,20,8.0,103.0
3348,56.0,0,20,7.0,83.0
3349,32.0,20,20,8.0,97.0
3350,57.0,0,15,7.0,104.0
3351,64.0,20,30,10.0,90.0
3352,73.0,0,30,10.0,90.0
3353,81.0,0,30,10.0,100.0
3354,81.0,1,30,11.0,100.0
3355,69.0,0,30,11.0,100.0
3356,56.0,5,15,7.0,88.0
3357,45.0,1,30,13.0,100.0
3358,52.0,0,30,13.0,100.0
3359,61.0,0,30,13.0,100.0
3360,33.0,1,30,14.0,100.0
3361,57.0,19,15,7.0,84.0
3362,33.0,0,60,8.0,90.0
3363,45.0,2,60,15.0,83.0
3364,56.0,22,15,7.0,79.0
3365,57.0,20,15,7.0,70.0
3366,56.0,20,15,7.0,69.0
3367,76.0,0,120,1.0,97.0
3368,57.0,19,15,7.0,67.0
3369,56.0,21,15,7.0,64.0
3370,57.0,19,15,7.0,62.0
3371,56.0,21,15,7.0,62.0
3372,57.0,19,15,7.0,64.0
3373,56.0,21,15,7.0,62.0
3374,93.0,0,240,0.0,98.0
3375,85.0,1,240,0.0,98.0
3376,57.0,1,240,4.0,100.0
3377,81.0,0,240,1.0,97.0
3378,73.0,0,240,2.0,98.0
3379,69.0,2,240,2.0,98.0
3380,57.0,0,240,12.0,100.0
3381,61.0,1,240,12.0,100.0
3382,45.0,4,240,3.0,99.0
3383,61.0,0,240,3.0,99.0
3384,57.0,19,15,7.0,63.0
3385,56.0,9,15,7.0,64.0
3386,57.0,21,15,7.0,63.0
3387,56.0,18,15,7.0,62.0
3388,57.0,21,15,7.0,61.0
3389,56.0,20,15,7.0,62.0
3390,57.0,20,15,7.0,61.0
3391,56.0,20,15,7.0,62.0
3392,57.0,20,15,7.0,62.0
3393,56.0,20,15,7.0,61.0
3394,57.0,20,15,7.0,61.0
3395,56.0,20,15,7.0,60.0
3396,92.0,1,240,0.0,94.0
3397,86.0,0,240,0.0,94.0
3398,80.0,3,240,1.0,93.0
3399,62.0,0,240,4.0,96.0
3400,74.0,2,240,2.0,94.0
3401,68.0,0,240,2.0,94.0
3402,59.0,1,240,12.0,94.0
3403,62.0,0,240,12.0,94.0
3404,62.0,0,240,3.0,95.0
3405,47.0,5,240,3.0,95.0
3406,57.0,0,15,7.0,60.0
3407,56.0,10,15,7.0,61.0
3408,57.0,18,15,7.0,62.0
3409,56.0,21,15,7.0,61.0
3410,57.0,20,15,7.0,62.0
3411,56.0,19,15,7.0,62.0
3412,57.0,20,15,7.0,60.0
3413,56.0,21,15,7.0,57.0
3414,57.0,21,15,7.0,60.0
3415,56.0,19,15,7.0,57.0
3416,57.0,21,15,7.0,56.0
3417,56.0,18,15,7.0,57.0
3418,88.0,20,240,0.0,90.0
3419,91.0,0,240,0.0,90.0
3420,79.0,3,240,1.0,89.0
3421,64.0,0,240,4.0,92.0
3422,76.0,2,240,2.0,90.0
3423,67.0,0,240,2.0,90.0
3424,64.0,1,240,12.0,90.0
3425,61.0,0,240,12.0,90.0
3426,49.0,5,240,3.0,91.0
3427,64.0,0,240,3.0,91.0
3428,57.0,19,15,7.0,62.0
3429,56.0,7,15,7.0,60.0
3430,57.0,20,15,7.0,60.0
3431,56.0,22,15,7.0,61.0
3432,57.0,20,15,7.0,60.0
3433,56.0,19,15,7.0,57.0
3434,57.0,19,15,7.0,55.0
3435,56.0,22,15,7.0,57.0
3436,57.0,19,15,7.0,57.0
3437,56.0,20,15,7.0,57.0
3438,57.0,20,15,7.0,57.0
3439,56.0,21,15,7.0,61.0
3440,89.0,0,240,0.0,86.0
3441,86.0,2,240,0.0,86.0
3442,77.0,0,240,1.0,85.0
3443,77.0,2,240,2.0,86.0
3444,74.0,0,240,2.0,86.0
3445,62.0,1,240,12.0,86.0
3446,65.0,0,240,12.0,86.0
3447,50.0,5,240,3.0,87.0
3448,65.0,0,240,3.0,87.0
3449,57.0,19,20,7.0,54.0
3450,61.0,8,20,7.0,59.0
3451,64.0,20,20,7.0,70.0
3452,61.0,20,20,7.0,66.0
3453,64.0,20,20,7.0,66.0
3454,67.0,20,20,7.0,73.0
3455,88.0,1,120,0.0,77.0
3456,85.0,0,120,0.0,77.0
3457,69.0,0,1080,6.0,120.0
3458,57.0,1,1080,6.0,120.0
3459,76.0,3,120,1.0,76.0
3460,69.0,3,360,4.0,88.0
3461,73.0,0,120,2.0,77.0
3462,76.0,2,120,2.0,77.0
3463,61.0,0,120,12.0,76.0
3464,64.0,1,120,12.0,76.0
3465,57.0,0,120,3.0,78.0
3466,64.0,5,120,3.0,78.0
3467,64.0,20,20,7.0,65.0
3468,67.0,20,20,7.0,65.0
3469,70.0,20,20,7.0,72.0
3470,67.0,20,20,7.0,63.0
3471,70.0,20,20,7.0,63.0
3472,76.0,20,20,7.0,70.0
3473,70.0,20,20,7.0,62.0
3474,76.0,20,20,7.0,62.0
3475,79.0,20,20,7.0,70.0
3476,76.0,20,20,7.0,62.0
3477,79.0,20,20,7.0,62.0
3478,82.0,20,20,7.0,70.0
3479,81.0,20,20,7.0,62.0
3480,79.0,20,20,7.0,62.0
3481,77.0,20,20,7.0,70.0
3482,76.0,20,20,7.0,62.0
3483,79.0,20,20,7.0,62.0
3484,82.0,20,20,7.0,70.0
3485,81.0,20,20,7.0,62.0
3486,79.0,20,20,7.0,62.0
3487,77.0,20,20,7.0,70.0
3488,76.0,20,20,7.0,62.0
3489,79.0,20,20,7.0,62.0
3490,82.0,20,20,7.0,70.0
3491,79.0,20,20,7.0,62.0
3492,82.0,20,20,7.0,62.0
3493,88.0,20,20,7.0,70.0
3494,82.0,20,20,7.0,62.0
3495,88.0,20,20,7.0,62.0
3496,91.0,20,20,7.0,70.0
3497,88.0,20,20,7.0,62.0
3498,91.0,20,20,7.0,62.0
3499,94.0,20,20,7.0,70.0
3500,93.0,20,20,7.0,62.0
3501,91.0,20,20,7.0,62.0
3502,89.0,20,20,7.0,70.0
3503,88.0,20,20,7.0,62.0
3504,91.0,20,20,7.0,62.0
3505,94.0,20,20,7.0,70.0
3506,93.0,20,20,7.0,62.0
3507,91.0,20,20,7.0,62.0
3508,89.0,20,20,7.0,70.0
3509,87.0,0,20,7.0,63.0
3510,94.0,20,20,7.0,72.0
3511,88.0,20,20,7.0,63.0
3512,79.0,20,60,8.0,59.0
3513,84.0,20,20,7.0,63.0
3514,91.0,20,20,7.0,72.0
3515,85.0,20,20,7.0,63.0
3516,76.0,0,60,8.0,59.0
3517,81.0,20,20,7.0,63.0
3518,88.0,20,20,7.0,72.0
3519,73.0,0,60,8.0,59.0
3520,82.0,20,20,7.0,65.0
3521,78.0,0,20,7.0,65.0
3522,85.0,20,20,7.0,73.0
3523,70.0,20,60,8.0,60.0
3524,79.0,20,20,7.0,65.0
3525,75.0,0,20,7.0,65.0
3526,82.0,20,20,7.0,73.0
3527,67.0,20,60,8.0,60.0
3528,76.0,20,20,7.0,65.0
3529,72.0,0,20,7.0,65.0
3530,79.0,20,20,7.0,73.0
3531,64.0,20,60,8.0,60.0
3532,73.0,20,20,7.0,65.0
3533,69.0,0,20,7.0,65.0
3534,76.0,20,20,7.0,73.0
3535,61.0,20,60,8.0,60.0
3536,70.0,20,20,7.0,66.0
3537,66.0,0,20,7.0,66.0
3538,73.0,20,20,7.0,74.0
3539,67.0,20,20,7.0,66.0
3540,58.0,20,60,8.0,61.0
3541,63.0,20,20,7.0,66.0
3542,70.0,20,20,7.0,74.0
3543,64.0,20,20,7.0,66.0
3544,63.0,20,20,7.0,66.0
3545,70.0,20,20,7.0,75.0
3546,55.0,0,120,8.0,55.0
3547,64.0,20,20,7.0,67.0
3548,60.0,0,20,7.0,67.0
3549,67.0,20,20,7.0,75.0
3550,61.0,20,20,7.0,67.0
3551,60.0,20,20,7.0,67.0
3552,67.0,20,20,7.0,75.0
3553,52.0,20,120,8.0,55.0
3554,61.0,20,20,7.0,67.0
3555,57.0,20,20,7.0,68.0
3556,64.0,20,20,7.0,76.0
3557,58.0,20,20,7.0,68.0
3558,57.0,20,20,7.0,67.0
3559,64.0,20,20,7.0,75.0
3560,49.0,0,120,8.0,56.0
3561,58.0,20,20,7.0,66.0
3562,54.0,0,20,7.0,66.0
3563,62.0,20,20,7.0,74.0
3564,55.0,20,20,7.0,66.0
3565,54.0,20,20,7.0,66.0
3566,62.0,20,20,7.0,73.0
3567,55.0,20,20,7.0,66.0
3568,46.0,20,120,8.0,55.0
3569,54.0,20,20,7.0,66.0
3570,61.0,20,20,7.0,74.0
3571,55.0,20,20,7.0,63.0
3572,54.0,20,20,7.0,63.0
3573,61.0,20,20,7.0,70.0
3574,55.0,20,20,7.0,60.0
3575,51.0,20,20,7.0,60.0
3576,61.0,20,20,7.0,66.0
3577,52.0,20,20,7.0,59.0
3578,51.0,20,20,7.0,57.0
3579,61.0,20,20,7.0,65.0
3580,52.0,20,20,7.0,56.0
3581,51.0,20,20,7.0,55.0
3582,61.0,20,20,7.0,61.0
3583,52.0,20,20,7.0,54.0
3584,53.0,20,20,7.0,52.0
3585,61.0,20,20,7.0,59.0
3586,52.0,20,20,7.0,50.0
3587,55.0,20,20,7.0,50.0
3588,61.0,20,20,7.0,55.0
3589,53.0,20,20,7.0,50.0
3590,57.0,20,20,7.0,50.0
3591,61.0,20,20,7.0,57.0
3592,55.0,20,20,7.0,50.0
3593,58.0,20,20,7.0,51.0
3594,61.0,20,20,7.0,52.0
3595,57.0,20,20,7.0,55.0
3596,58.0,20,20,7.0,57.0
3597,61.0,20,20,7.0,62.0
3598,57.0,20,20,7.0,65.0
3599,58.0,20,20,7.0,71.0
3600,61.0,20,20,7.0,73.0
3601,57.0,20,20,7.0,76.0
3602,58.0,20,20,7.0,79.0
3603,61.0,20,20,7.0,83.0
3604,57.0,20,20,7.0,89.0
3605,58.0,20,20,7.0,91.0
3606,61.0,20,20,7.0,94.0
3607,56.0,20,20,7.0,95.0
3608,58.0,20,20,7.0,97.0
3609,61.0,20,20,7.0,102.0
3610,56.0,20,20,7.0,102.0
3611,58.0,20,20,7.0,104.0
3612,61.0,20,20,7.0,106.0
3613,56.0,20,20,7.0,107.0
3614,58.0,20,20,7.0,110.0
3615,61.0,20,20,7.0,111.0
3616,45.0,0,960,8.0,56.0
3617,33.0,0,840,8.0,51.0
3618,56.0,20,20,7.0,112.0
3619,57.0,17,55,7.0,110.0
3620,55.0,27,22,8.0,98.0
3621,45.0,0,60,4.0,85.0
3622,57.0,7,60,4.0,85.0
3623,57.0,3,60,12.0,83.0
3624,45.0,1,60,13.0,83.0
3625,53.0,7,22,8.0,98.0
3626,52.0,29,22,8.0,97.0
3627,53.0,1,22,8.0,97.0
3628,57.0,31,30,4.0,100.0
3629,62.0,22,115,7.0,122.0
3630,57.0,25,22,8.0,96.0
3631,57.0,2,60,12.0,69.0
3632,53.0,1,60,13.0,69.0
3633,64.0,0,8,7.0,98.0
3634,65.0,8,8,7.0,98.0
3635,55.0,30,22,8.0,97.0
3636,64.0,5,8,7.0,98.0
3637,57.0,1,30,4.0,100.0
3638,62.0,10,15,7.0,97.0
3639,52.0,3,22,8.0,96.0
3640,64.0,10,15,7.0,96.0
3641,55.0,3,60,12.0,66.0
3642,52.0,1,60,13.0,66.0
3643,50.0,6,22,8.0,97.0
3644,65.0,13,30,7.0,110.0
3645,57.0,1,30,4.0,100.0
3646,53.0,27,22,8.0,98.0
3647,53.0,3,60,12.0,66.0
3648,50.0,1,60,13.0,66.0
3649,52.0,3,22,8.0,98.0
3650,69.0,22,30,7.0,110.0
3651,64.0,4,30,7.0,97.0
3652,57.0,0,30,4.0,100.0
3653,48.0,26,22,8.0,98.0
3654,52.0,3,60,12.0,63.0
3655,48.0,1,60,13.0,63.0
3656,46.0,1,22,8.0,97.0
3657,50.0,26,22,8.0,96.0
3658,62.0,5,60,4.0,100.0
3659,50.0,2,60,12.0,62.0
3660,46.0,1,60,13.0,62.0
3661,74.0,23,85,7.0,127.0
3662,65.0,2,85,7.0,123.0
3663,45.0,31,22,8.0,97.0
3664,74.0,20,15,7.0,110.0
3665,65.0,2,15,7.0,97.0
3666,50.0,4,22,8.0,97.0
3667,45.0,3,60,13.0,60.0
3668,43.0,0,22,8.0,98.0
3669,73.0,23,30,7.0,110.0
3670,64.0,3,30,7.0,97.0
3671,62.0,0,30,4.0,100.0
3672,50.0,4,30,4.0,100.0
3673,74.0,19,25,7.0,110.0
3674,65.0,4,25,7.0,98.0
3675,50.0,4,22,8.0,97.0
3676,50.0,3,60,12.0,59.0
3677,43.0,1,60,13.0,59.0
3678,76.0,23,15,7.0,110.0
3679,67.0,3,15,7.0,98.0
3680,41.0,2,22,8.0,96.0
3681,50.0,0,30,4.0,100.0
3682,62.0,1,30,4.0,100.0
3683,77.0,21,15,7.0,110.0
3684,69.0,1,15,7.0,96.0
3685,50.0,4,22,8.0,96.0
3686,50.0,3,60,12.0,56.0
3687,41.0,1,60,13.0,56.0
3688,45.0,1,22,8.0,97.0
3689,73.0,24,30,7.0,127.0
3690,64.0,3,30,7.0,114.0
3691,57.0,3,30,4.0,100.0
3692,45.0,0,30,4.0,100.0
3693,57.0,27,22,8.0,96.0
3694,57.0,2,60,12.0,55.0
3695,45.0,1,60,13.0,55.0
3696,58.0,30,22,8.0,97.0
3697,74.0,24,15,7.0,110.0
3698,65.0,2,15,7.0,98.0
3699,57.0,4,22,8.0,96.0
3700,41.0,0,22,8.0,98.0
3701,73.0,23,30,7.0,110.0
3702,64.0,1,30,7.0,96.0
3703,69.0,0,30,4.0,100.0
3704,57.0,5,30,4.0,100.0
3705,74.0,21,25,7.0,110.0
3706,65.0,1,25,7.0,96.0
3707,53.0,5,22,8.0,98.0
3708,53.0,3,60,12.0,55.0
3709,41.0,1,60,13.0,55.0
3710,76.0,0,15,7.0,110.0
3711,67.0,24,15,7.0,98.0
3712,40.0,4,22,8.0,98.0
3713,57.0,1,30,4.0,100.0
3714,69.0,0,30,4.0,100.0
3715,77.0,19,15,7.0,121.0
3716,69.0,3,15,7.0,107.0
3717,52.0,5,22,8.0,98.0
3718,50.0,3,60,12.0,55.0
3719,38.0,1,60,13.0,55.0
3720,45.0,1,22,8.0,98.0
3721,73.0,24,30,7.0,121.0
3722,64.0,1,30,7.0,104.0
3723,57.0,26,22,8.0,96.0
3724,57.0,0,60,4.0,100.0
3725,45.0,4,60,4.0,100.0
3726,57.0,2,60,12.0,55.0
3727,45.0,1,60,13.0,55.0
3728,55.0,30,22,8.0,96.0
3729,69.0,27,10,7.0,97.0
3730,71.0,7,10,7.0,98.0
3731,52.0,2,22,8.0,98.0
3732,73.0,11,10,7.0,96.0
3733,50.0,1,22,8.0,96.0
3734,74.0,7,30,7.0,110.0
3735,66.0,3,30,7.0,97.0
3736,48.0,27,22,8.0,97.0
3737,50.0,3,60,13.0,55.0
3738,46.0,3,22,8.0,98.0
3739,45.0,27,22,8.0,96.0
3740,48.0,5,60,13.0,55.0
3741,46.0,28,22,8.0,97.0
3742,79.0,23,115,7.0,121.0
3743,74.0,1,115,7.0,111.0
3744,70.0,1,115,7.0,113.0
3745,67.0,0,115,7.0,113.0
3746,50.0,26,22,8.0,98.0
3747,62.0,4,60,12.0,55.0
3748,46.0,1,60,13.0,55.0
3749,46.0,3,22,8.0,98.0
3750,45.0,27,22,8.0,96.0
3751,81.0,25,60,7.0,110.0
3752,69.0,0,60,7.0,97.0
3753,60.0,4,60,12.0,55.0
3754,45.0,1,60,13.0,55.0
3755,43.0,5,22,8.0,98.0
3756,70.0,0,30,7.0,98.0
3757,82.0,24,30,7.0,110.0
3758,74.0,1,90,7.0,96.0
3759,46.0,25,22,8.0,96.0
3760,58.0,3,60,12.0,55.0
3761,43.0,1,60,13.0,55.0
3762,43.0,2,22,8.0,98.0
3763,86.0,24,55,7.0,110.0
3764,70.0,3,55,7.0,96.0
3765,81.0,1,55,7.0,96.0
3766,41.0,27,22,8.0,97.0
3767,50.0,3,360,4.0,100.0
3768,62.0,0,360,4.0,100.0
3769,57.0,4,60,12.0,55.0
3770,41.0,1,60,13.0,55.0
3771,39.0,3,22,8.0,98.0
3772,51.0,25,22,8.0,97.0
3773,55.0,3,60,12.0,55.0
3774,39.0,1,60,13.0,55.0
3775,38.0,30,22,8.0,96.0
3776,82.0,0,115,7.0,122.0
3777,91.0,24,115,7.0,127.0
3778,79.0,2,115,7.0,121.0
3779,50.0,27,22,8.0,96.0
3780,67.0,0,120,4.0,100.0
3781,53.0,4,60,12.0,55.0
3782,38.0,1,60,13.0,55.0
3783,37.0,2,22,8.0,98.0
3784,94.0,22,30,7.0,127.0
3785,82.0,2,30,7.0,124.0
3786,91.0,2,30,7.0,124.0
3787,67.0,1,30,4.0,100.0
3788,52.0,25,22,8.0,96.0
3789,52.0,3,60,12.0,55.0
3790,37.0,1,60,13.0,55.0
3791,38.0,2,22,8.0,97.0
3792,89.0,0,30,7.0,112.0
3793,93.0,26,30,7.0,121.0
3794,81.0,2,30,7.0,113.0
3795,65.0,1,30,4.0,100.0
3796,53.0,26,22,8.0,97.0
3797,53.0,3,60,12.0,55.0
3798,38.0,1,60,13.0,55.0
3799,40.0,0,22,8.0,97.0
3800,88.0,0,30,7.0,111.0
3801,91.0,25,30,7.0,120.0
3802,79.0,2,30,7.0,110.0
3803,64.0,3,30,4.0,100.0
3804,55.0,25,22,8.0,97.0
3805,55.0,3,60,12.0,55.0
3806,40.0,1,60,13.0,55.0
3807,41.0,1,22,8.0,97.0
3808,89.0,25,30,7.0,119.0
3809,86.0,2,30,7.0,110.0
3810,77.0,1,30,7.0,110.0
3811,62.0,3,30,4.0,100.0
3812,57.0,26,22,8.0,98.0
3813,57.0,2,60,12.0,55.0
3814,41.0,1,60,13.0,55.0
3815,43.0,3,22,8.0,97.0
3816,88.0,24,30,7.0,119.0
3817,85.0,2,30,7.0,110.0
3818,76.0,1,30,7.0,110.0
3819,64.0,0,30,4.0,100.0
3820,58.0,25,22,8.0,97.0
3821,58.0,3,60,12.0,55.0
3822,43.0,1,60,13.0,55.0
3823,86.0,0,8,7.0,84.0
3824,88.0,6,8,7.0,85.0
3825,44.0,3,22,8.0,97.0
3826,86.0,9,8,7.0,84.0
3827,65.0,1,30,4.0,100.0
3828,85.0,7,15,7.0,85.0
3829,59.0,5,22,8.0,97.0
3830,86.0,9,15,7.0,85.0
3831,77.0,27,60,7.0,96.0
3832,59.0,3,60,12.0,55.0
3833,44.0,1,60,13.0,55.0
3834,45.0,3,22,8.0,97.0
3835,64.0,1,30,4.0,100.0
3836,61.0,27,22,8.0,98.0
3837,85.0,14,60,7.0,110.0
3838,76.0,2,60,7.0,96.0
3839,60.0,3,60,12.0,55.0
3840,45.0,1,60,13.0,55.0
3841,69.0,25,10,7.0,87.0
3842,70.0,10,10,7.0,81.0
3843,69.0,10,10,7.0,81.0
3844,70.0,10,10,7.0,81.0
3845,69.0,10,10,7.0,81.0
3846,70.0,10,10,7.0,81.0
3847,49.0,6,22,8.0,90.0
3848,82.0,9,30,7.0,110.0
3849,79.0,1,30,7.0,97.0
3850,37.0,7,30,14.0,55.0
3851,57.0,22,22,8.0,88.0
3852,81.0,23,30,7.0,104.0
3853,50.0,4,22,8.0,87.0
3854,77.0,4,30,7.0,92.0
3855,38.0,7,30,14.0,55.0
3856,57.0,23,22,8.0,83.0
3857,52.0,4,22,8.0,81.0
3858,79.0,23,30,7.0,99.0
3859,76.0,2,30,7.0,88.0
3860,40.0,8,30,14.0,55.0
3861,57.0,23,22,8.0,81.0
3862,53.0,4,22,8.0,76.0
3863,77.0,23,30,7.0,97.0
3864,74.0,2,30,7.0,83.0
3865,41.0,8,30,14.0,55.0
3866,57.0,23,22,8.0,76.0
3867,55.0,3,22,8.0,75.0
3868,76.0,24,30,7.0,92.0
3869,73.0,1,30,7.0,81.0
3870,43.0,9,30,14.0,55.0
3871,57.0,23,22,8.0,74.0
3872,74.0,5,8,7.0,75.0
3873,76.0,4,8,7.0,70.0
3874,53.0,4,22,8.0,73.0
3875,74.0,6,8,7.0,71.0
3876,41.0,4,30,14.0,54.0
3877,73.0,8,15,7.0,68.0
3878,57.0,3,22,8.0,74.0
3879,74.0,13,15,7.0,68.0
3880,52.0,6,22,8.0,74.0
3881,40.0,9,30,14.0,53.0
3882,73.0,11,55,7.0,91.0
3883,64.0,22,22,8.0,75.0
3884,69.0,24,120,7.0,80.0
3885,57.0,8,22,8.0,74.0
3886,64.0,24,22,8.0,71.0
3887,73.0,0,60,2.0,98.0
3888,69.0,0,60,2.0,98.0
3889,61.0,1,60,12.0,100.0
3890,57.0,1,60,13.0,52.0
3891,57.0,4,60,3.0,99.0
3892,56.0,2,22,8.0,73.0
3893,64.0,24,22,8.0,73.0
3894,76.0,23,120,7.0,110.0
3895,56.0,1,60,13.0,52.0
3896,74.0,3,8,7.0,70.0
3897,76.0,7,8,7.0,66.0
3898,52.0,28,22,8.0,70.0
3899,74.0,7,8,7.0,67.0
3900,73.0,10,15,7.0,66.0
3901,64.0,3,22,8.0,70.0
3902,74.0,12,15,7.0,67.0
3903,71.0,0,120,2.0,98.0
3904,64.0,0,120,2.0,98.0
3905,59.0,1,120,12.0,100.0
3906,52.0,1,60,13.0,50.0
3907,56.0,4,120,3.0,99.0
3908,57.0,7,22,8.0,70.0
3909,73.0,11,55,7.0,86.0
3910,64.0,24,22,8.0,68.0
3911,64.0,28,180,4.0,100.0
3912,69.0,1,60,2.0,98.0
3913,73.0,0,60,2.0,98.0
3914,57.0,1,60,12.0,100.0
3915,57.0,1,60,13.0,49.0
3916,57.0,4,60,3.0,99.0
3917,55.0,5,22,8.0,68.0
3918,64.0,21,22,8.0,68.0
3919,43.0,8,60,14.0,49.0
3920,54.0,0,22,8.0,71.0
3921,64.0,23,22,8.0,68.0
3922,76.0,24,120,7.0,106.0
3923,42.0,9,60,14.0,49.0
3924,74.0,3,8,7.0,67.0
3925,76.0,3,8,7.0,59.0
3926,59.0,28,22,8.0,66.0
3927,74.0,7,8,7.0,60.0
3928,73.0,9,15,7.0,61.0
3929,64.0,3,22,8.0,65.0
3930,76.0,11,15,7.0,60.0
3931,47.0,6,60,14.0,47.0
3932,58.0,5,22,8.0,62.0
3933,73.0,14,55,7.0,80.0
3934,64.0,23,22,8.0,61.0
3935,64.0,30,180,4.0,100.0
3936,46.0,8,60,14.0,46.0
3937,55.0,3,22,8.0,60.0
3938,67.0,24,22,8.0,62.0
3939,73.0,3,60,0.0,98.0
3940,61.0,1,60,11.0,100.0
3941,61.0,2,60,12.0,100.0
3942,55.0,1,60,13.0,46.0
3943,55.0,4,60,3.0,99.0
3944,56.0,2,22,8.0,57.0
3945,68.0,23,22,8.0,57.0
3946,76.0,22,120,7.0,94.0
3947,72.0,25,60,0.0,98.0
3948,60.0,1,60,11.0,100.0
3949,56.0,1,60,13.0,46.0
3950,56.0,4,60,3.0,99.0
3951,75.0,1,8,7.0,61.0
3952,76.0,3,8,7.0,57.0
3953,60.0,4,22,8.0,59.0
3954,75.0,8,8,7.0,54.0
3955,73.0,8,15,7.0,54.0
3956,68.0,3,22,8.0,57.0
3957,75.0,11,15,7.0,52.0
3958,75.0,26,60,0.0,98.0
3959,63.0,1,60,11.0,100.0
3960,66.0,2,120,4.0,100.0
3961,66.0,1,120,12.0,100.0
3962,60.0,1,60,13.0,46.0
3963,60.0,4,60,3.0,99.0
3964,61.0,2,22,8.0,54.0
3965,73.0,15,55,7.0,68.0
3966,68.0,23,22,8.0,54.0
3967,68.0,1,60,0.0,98.0
3968,64.0,1,60,11.0,100.0
3969,64.0,2,60,4.0,100.0
3970,64.0,1,60,12.0,100.0
3971,61.0,1,60,13.0,46.0
3972,61.0,4,60,3.0,99.0
3973,56.0,1,22,8.0,56.0
3974,68.0,23,22,8.0,54.0
3975,44.0,8,60,14.0,46.0
3976,76.0,23,85,7.0,71.0
3977,61.0,30,22,8.0,55.0
3978,68.0,6,22,8.0,56.0
3979,73.0,17,30,7.0,62.0
3980,49.0,1,60,12.0,45.0
3981,49.0,6,60,14.0,45.0
3982,56.0,6,22,8.0,54.0
3983,68.0,27,22,8.0,55.0
3984,56.0,2,60,13.0,45.0
3985,76.0,24,85,7.0,70.0
3986,61.0,2,22,8.0,55.0
3987,68.0,5,22,8.0,56.0
3988,73.0,21,30,7.0,62.0
3989,61.0,27,60,11.0,43.0
3990,61.0,4,60,13.0,43.0
3991,56.0,8,22,8.0,54.0
3992,68.0,21,22,8.0,54.0
3993,44.0,7,60,14.0,42.0
3994,76.0,24,85,7.0,71.0
3995,61.0,32,22,8.0,54.0
3996,68.0,7,22,8.0,45.0
3997,73.0,15,30,7.0,48.0
3998,49.0,1,60,12.0,42.0
3999,49.0,6,60,14.0,42.0
4000,56.0,7,22,8.0,43.0
4001,56.0,2,60,13.0,40.0
4002,76.0,24,85,7.0,58.0
4003,68.0,28,55,8.0,53.0
4004,73.0,23,30,7.0,54.0
4005,68.0,25,60,11.0,39.0
4006,56.0,1,60,11.0,39.0
4007,61.0,4,30,8.0,54.0
4008,68.0,5,60,13.0,39.0
4009,76.0,27,22,7.0,52.0
4010,64.0,5,22,8.0,51.0
4011,73.0,24,30,7.0,63.0
4012,61.0,4,30,8.0,63.0
4013,76.0,28,22,7.0,60.0
4014,64.0,2,22,8.0,63.0
4015,68.0,26,30,7.0,72.0
4016,56.0,4,30,8.0,73.0
4017,73.0,28,22,7.0,65.0
4018,61.0,4,22,8.0,65.0
4019,68.0,24,30,7.0,76.0
4020,56.0,6,30,8.0,76.0
4021,73.0,25,22,7.0,72.0
4022,61.0,5,22,8.0,70.0
4023,64.0,25,30,7.0,81.0
4024,52.0,3,30,8.0,80.0
4025,68.0,28,22,7.0,75.0
4026,56.0,2,22,8.0,75.0
4027,64.0,27,30,7.0,85.0
4028,52.0,5,30,8.0,85.0
4029,68.0,26,22,7.0,78.0
4030,56.0,4,22,8.0,78.0
4031,61.0,24,30,7.0,88.0
4032,49.0,4,30,8.0,88.0
4033,64.0,27,22,7.0,82.0
4034,52.0,3,22,8.0,81.0
4035,61.0,27,30,7.0,91.0
4036,49.0,4,30,8.0,91.0
4037,64.0,26,22,7.0,83.0
4038,52.0,5,22,8.0,84.0
4039,56.0,26,30,7.0,98.0
4040,44.0,3,30,8.0,98.0
4041,61.0,26,22,7.0,88.0
4042,49.0,4,22,8.0,88.0
4043,57.0,25,30,7.0,111.0
4044,45.0,6,30,8.0,111.0
4045,61.0,25,22,7.0,88.0
4046,49.0,5,22,8.0,88.0
4047,56.0,25,30,7.0,97.0
4048,44.0,3,30,8.0,98.0
4049,61.0,26,22,7.0,89.0
4050,49.0,4,22,8.0,88.0
4051,55.0,26,30,7.0,98.0
4052,43.0,6,30,8.0,99.0
4053,61.0,24,22,7.0,90.0
4054,49.0,6,22,8.0,89.0
4055,56.0,26,30,7.0,99.0
4056,44.0,3,30,8.0,102.0
4057,61.0,27,22,7.0,91.0
4058,49.0,4,22,8.0,92.0
4059,57.0,26,30,7.0,115.0
4060,45.0,2,30,8.0,115.0
4061,61.0,27,22,7.0,94.0
4062,49.0,4,22,8.0,93.0
4063,56.0,25,30,7.0,104.0
4064,44.0,6,30,8.0,104.0
4065,61.0,26,22,7.0,94.0
4066,49.0,2,22,8.0,94.0
4067,55.0,26,30,7.0,105.0
4068,43.0,5,30,8.0,103.0
4069,61.0,26,22,7.0,96.0
4070,49.0,3,22,8.0,95.0
4071,56.0,26,30,7.0,105.0
4072,44.0,4,30,8.0,106.0
4073,61.0,28,22,7.0,95.0
4074,49.0,3,22,8.0,95.0
4075,57.0,25,30,7.0,116.0
4076,45.0,6,30,8.0,118.0
4077,61.0,26,22,7.0,97.0
4078,49.0,2,22,8.0,96.0
4079,61.0,26,30,7.0,110.0
4080,49.0,6,30,8.0,106.0
4081,64.0,25,22,7.0,99.0
4082,52.0,4,22,8.0,99.0
4083,64.0,25,30,7.0,109.0
4084,52.0,6,30,8.0,109.0
4085,67.0,24,22,7.0,99.0
4086,55.0,5,22,8.0,100.0
4087,67.0,27,30,7.0,110.0
4088,55.0,4,30,8.0,110.0
4089,73.0,26,22,7.0,102.0
4090,61.0,2,22,8.0,103.0
4091,73.0,26,30,7.0,113.0
4092,61.0,5,30,8.0,113.0
4093,76.0,25,22,7.0,109.0
4094,64.0,4,22,8.0,107.0
4095,76.0,28,30,7.0,118.0
4096,64.0,3,30,8.0,117.0
4097,79.0,25,22,7.0,112.0
4098,67.0,4,22,8.0,112.0
4099,79.0,26,30,7.0,121.0
4100,67.0,4,30,8.0,121.0
4101,85.0,26,22,7.0,115.0
4102,73.0,4,22,8.0,116.0
4103,85.0,26,30,7.0,125.0
4104,73.0,6,30,8.0,125.0
4105,88.0,24,22,7.0,118.0
4106,76.0,4,22,8.0,118.0
4107,88.0,26,30,7.0,127.0
4108,76.0,5,30,8.0,127.0
4109,91.0,25,20,7.0,116.0
4110,79.0,5,20,8.0,115.0
4111,89.0,17,20,7.0,116.0
4112,77.0,4,20,8.0,115.0
4113,88.0,14,20,7.0,116.0
4114,76.0,4,20,8.0,115.0
4115,86.0,17,20,7.0,116.0
4116,74.0,5,20,8.0,116.0
4117,85.0,16,20,7.0,116.0
4118,73.0,4,20,8.0,116.0
4119,82.0,16,20,7.0,116.0
4120,70.0,4,20,8.0,116.0
4121,81.0,14,20,7.0,116.0
4122,69.0,6,20,8.0,116.0
4123,79.0,15,20,7.0,116.0
4124,67.0,3,20,8.0,116.0
4125,77.0,18,20,7.0,116.0
4126,65.0,2,20,8.0,115.0
4127,76.0,17,20,7.0,116.0
4128,64.0,5,20,8.0,116.0
4129,74.0,14,20,7.0,116.0
4130,62.0,6,20,8.0,116.0
4131,73.0,15,20,7.0,115.0
4132,61.0,5,20,8.0,115.0
4133,70.0,16,16,7.0,115.0
4134,58.0,3,16,8.0,115.0
4135,69.0,11,16,7.0,116.0
4136,57.0,6,16,8.0,116.0
4137,67.0,11,16,7.0,115.0
4138,55.0,4,16,8.0,116.0
4139,65.0,11,16,7.0,115.0
4140,53.0,4,16,8.0,116.0
4141,64.0,13,16,7.0,116.0
4142,52.0,4,16,8.0,116.0
4143,62.0,13,16,7.0,116.0
4144,50.0,3,16,8.0,116.0
4145,61.0,13,16,7.0,116.0
4146,49.0,4,16,8.0,116.0
4147,58.0,12,16,7.0,116.0
4148,46.0,4,16,8.0,115.0
4149,57.0,12,16,7.0,115.0
4150,45.0,4,16,8.0,116.0
4151,55.0,13,16,7.0,116.0
4152,43.0,3,16,8.0,116.0
4153,53.0,13,16,7.0,116.0
4154,41.0,3,16,8.0,115.0
4155,52.0,12,16,7.0,116.0
4156,40.0,5,16,8.0,116.0
4157,50.0,12,16,7.0,116.0
4158,38.0,4,16,8.0,117.0
4159,49.0,12,16,7.0,120.0
4160,37.0,4,16,8.0,121.0
4161,46.0,11,16,7.0,124.0
4162,64.0,6,2460,4.0,100.0
4163,57.0,0,960,4.0,100.0
4164,34.0,4,16,8.0,127.0
4165,57.0,3,20,12.0,100.0
4166,57.0,1,20,13.0,100.0
4167,57.0,0,30,10.0,100.0
4168,57.0,2,30,11.0,100.0
4169,45.0,5,20,14.0,100.0
4170,55.0,24,20,12.0,100.0
4171,55.0,1,20,13.0,100.0
4172,45.0,10,60,7.0,119.0
4173,43.0,5,20,14.0,100.0
4174,33.0,1,60,8.0,118.0
4175,57.0,1,60,4.0,100.0
4176,45.0,0,60,4.0,100.0
4177,53.0,5,20,12.0,100.0
4178,53.0,1,20,13.0,100.0
4179,41.0,5,20,14.0,100.0
4180,52.0,24,20,12.0,100.0
4181,52.0,1,20,13.0,100.0
4182,40.0,5,20,14.0,100.0
4183,53.0,3,20,12.0,100.0
4184,53.0,1,20,13.0,100.0
4185,41.0,5,20,14.0,100.0
4186,57.0,21,30,4.0,100.0
4187,62.0,17,105,10.0,115.0
4188,62.0,2,105,11.0,115.0
4189,57.0,24,20,12.0,100.0
4190,57.0,1,20,13.0,100.0
4191,45.0,5,20,14.0,100.0
4192,65.0,17,8,10.0,100.0
4193,65.0,2,8,11.0,100.0
4194,64.0,3,8,10.0,100.0
4195,64.0,1,8,11.0,100.0
4196,65.0,2,8,10.0,100.0
4197,65.0,2,8,11.0,100.0
4198,55.0,0,20,12.0,100.0
4199,55.0,1,20,13.0,100.0
4200,64.0,5,8,10.0,100.0
4201,64.0,2,8,11.0,100.0
4202,43.0,4,20,14.0,100.0
4203,57.0,2,30,4.0,100.0
4204,62.0,6,15,10.0,100.0
4205,62.0,2,15,11.0,100.0
4206,52.0,5,20,12.0,100.0
4207,52.0,1,20,13.0,100.0
4208,64.0,2,15,10.0,100.0
4209,64.0,2,15,11.0,100.0
4210,40.0,5,20,14.0,100.0
4211,50.0,3,20,12.0,100.0
4212,50.0,1,20,13.0,100.0
4213,65.0,13,30,10.0,100.0
4214,65.0,2,30,11.0,100.0
4215,38.0,5,20,14.0,100.0
4216,57.0,2,30,4.0,100.0
4217,53.0,24,20,12.0,100.0
4218,53.0,1,20,13.0,100.0
4219,41.0,5,20,14.0,100.0
4220,52.0,3,20,12.0,100.0
4221,52.0,1,20,13.0,100.0
4222,69.0,17,30,10.0,100.0
4223,69.0,2,30,11.0,100.0
4224,40.0,5,20,14.0,100.0
4225,57.0,2,30,4.0,100.0
4226,48.0,24,20,12.0,100.0
4227,48.0,1,20,13.0,100.0
4228,36.0,5,20,14.0,100.0
4229,58.0,3,20,12.0,100.0
4230,46.0,1,20,13.0,100.0
4231,34.0,5,20,14.0,100.0
4232,62.0,2,30,4.0,100.0
4233,50.0,24,20,12.0,100.0
4234,50.0,1,20,13.0,100.0
4235,38.0,5,20,14.0,100.0
4236,74.0,17,75,10.0,115.0
4237,74.0,2,75,11.0,115.0
4238,57.0,24,20,12.0,100.0
4239,45.0,1,20,13.0,100.0
4240,33.0,5,20,14.0,100.0
4241,74.0,17,15,10.0,100.0
4242,74.0,2,15,11.0,100.0
4243,50.0,5,20,12.0,100.0
4244,50.0,1,20,13.0,100.0
4245,38.0,5,20,14.0,100.0
4246,55.0,3,20,12.0,100.0
4247,43.0,1,20,13.0,100.0
4248,73.0,17,30,10.0,100.0
4249,73.0,2,30,11.0,100.0
4250,50.0,0,30,4.0,100.0
4251,62.0,2,30,4.0,100.0
4252,74.0,17,25,10.0,100.0
4253,50.0,5,20,12.0,100.0
4254,74.0,2,25,11.0,100.0
4255,50.0,1,20,13.0,100.0
4256,31.0,5,50,14.0,100.0
4257,76.0,22,15,10.0,100.0
4258,76.0,2,15,11.0,100.0
4259,53.0,3,20,12.0,100.0
4260,41.0,1,20,13.0,100.0
4261,62.0,2,30,4.0,100.0
4262,50.0,0,30,4.0,100.0
4263,77.0,17,15,10.0,100.0
4264,77.0,2,15,11.0,100.0
4265,50.0,5,20,12.0,100.0
4266,50.0,1,20,13.0,100.0
4267,29.0,5,50,14.0,100.0
4268,57.0,3,20,12.0,100.0
4269,45.0,1,20,13.0,100.0
4270,73.0,22,30,10.0,100.0
4271,73.0,2,30,11.0,100.0
4272,45.0,0,30,4.0,100.0
4273,57.0,2,30,4.0,100.0
4274,57.0,24,20,12.0,100.0
4275,57.0,1,20,13.0,100.0
4276,33.0,5,50,14.0,100.0
4277,58.0,29,20,12.0,100.0
4278,58.0,1,20,13.0,100.0
4279,74.0,22,15,10.0,100.0
4280,74.0,2,15,11.0,100.0
4281,57.0,5,20,12.0,100.0
4282,57.0,1,20,13.0,100.0
4283,57.0,3,20,12.0,100.0
4284,41.0,1,20,13.0,100.0
4285,73.0,22,30,10.0,100.0
4286,73.0,2,30,11.0,100.0
4287,69.0,2,30,4.0,100.0
4288,57.0,0,30,4.0,100.0
4289,74.0,17,25,10.0,100.0
4290,74.0,2,25,11.0,100.0
4291,53.0,5,20,12.0,100.0
4292,53.0,1,20,13.0,100.0
4293,41.0,5,50,14.0,100.0
4294,76.0,22,15,10.0,100.0
4295,76.0,2,15,11.0,100.0
4296,57.0,3,20,12.0,100.0
4297,38.0,1,20,13.0,100.0
4298,57.0,2,30,4.0,100.0
4299,69.0,0,30,4.0,100.0
4300,77.0,17,15,10.0,100.0
4301,77.0,2,15,11.0,100.0
4302,50.0,5,20,12.0,100.0
4303,50.0,1,20,13.0,100.0
4304,38.0,5,50,14.0,100.0
4305,57.0,3,20,12.0,100.0
4306,45.0,1,20,13.0,100.0
4307,73.0,22,30,10.0,100.0
4308,73.0,2,30,11.0,100.0
4309,57.0,2,30,4.0,100.0
4310,45.0,0,30,4.0,100.0
4311,57.0,25,20,13.0,100.0
4312,45.0,5,50,14.0,100.0
4313,57.0,29,20,12.0,100.0
4314,55.0,1,20,13.0,100.0
4315,69.0,22,10,10.0,100.0
4316,69.0,1,10,0.0,98.0
4317,69.0,1,10,11.0,100.0
4318,69.0,2,10,1.0,97.0
4319,71.0,2,10,10.0,100.0
4320,71.0,1,10,0.0,98.0
4321,71.0,1,10,11.0,100.0
4322,71.0,2,10,1.0,97.0
4323,67.0,3,20,12.0,100.0
4324,52.0,1,20,13.0,100.0
4325,73.0,6,10,10.0,100.0
4326,73.0,1,10,0.0,98.0
4327,73.0,1,10,11.0,100.0
4328,73.0,2,10,1.0,97.0
4329,62.0,1,20,13.0,100.0
4330,74.0,6,30,10.0,100.0
4331,74.0,1,30,0.0,98.0
4332,74.0,1,30,11.0,100.0
4333,62.0,4,20,3.0,99.0
4334,50.0,1,20,14.0,100.0
4335,74.0,0,30,1.0,97.0
4336,74.0,2,30,2.0,98.0
4337,66.0,1,50,12.0,100.0
4338,57.0,0,50,12.0,100.0
4339,60.0,25,20,13.0,100.0
4340,60.0,4,20,3.0,99.0
4341,48.0,1,20,14.0,100.0
4342,50.0,0,60,5.0,100.0
4343,62.0,0,60,5.0,100.0
4344,58.0,1,20,13.0,100.0
4345,58.0,4,20,3.0,99.0
4346,46.0,1,20,14.0,100.0
4347,57.0,25,20,13.0,100.0
4348,57.0,4,20,3.0,99.0
4349,45.0,1,20,14.0,100.0
4350,58.0,0,80,12.0,100.0
4351,62.0,1,80,12.0,100.0
4352,58.0,2,20,13.0,100.0
4353,58.0,4,20,3.0,99.0
4354,46.0,1,20,14.0,100.0
4355,50.0,0,30,5.0,100.0
4356,62.0,23,30,5.0,100.0
4357,79.0,17,105,10.0,115.0
4358,79.0,1,105,0.0,113.0
4359,67.0,1,105,11.0,115.0
4360,67.0,2,105,1.0,112.0
4361,79.0,2,105,2.0,113.0
4362,50.0,24,20,12.0,100.0
4363,62.0,1,20,13.0,100.0
4364,62.0,4,20,3.0,99.0
4365,50.0,1,20,14.0,100.0
4366,82.0,17,8,10.0,100.0
4367,82.0,1,8,0.0,98.0
4368,67.0,1,8,11.0,100.0
4369,70.0,2,8,1.0,97.0
4370,79.0,0,8,2.0,98.0
4371,70.0,2,8,2.0,98.0
4372,81.0,0,8,10.0,100.0
4373,81.0,1,8,0.0,98.0
4374,66.0,1,8,11.0,100.0
4375,69.0,2,8,1.0,97.0
4376,78.0,0,8,2.0,98.0
4377,69.0,1,8,2.0,98.0
4378,82.0,2,8,10.0,100.0
4379,82.0,1,8,0.0,98.0
4380,67.0,1,8,11.0,100.0
4381,70.0,2,8,1.0,97.0
4382,62.0,1,20,12.0,100.0
4383,60.0,0,20,13.0,100.0
4384,79.0,2,8,2.0,98.0
4385,70.0,0,8,2.0,98.0
4386,81.0,1,8,10.0,100.0
4387,81.0,1,8,0.0,98.0
4388,66.0,1,8,11.0,100.0
4389,60.0,1,20,3.0,99.0
4390,48.0,0,20,14.0,100.0
4391,69.0,2,8,1.0,97.0
4392,69.0,0,8,2.0,98.0
4393,50.0,0,30,5.0,100.0
4394,78.0,2,8,2.0,98.0
4395,62.0,0,30,5.0,100.0
4396,79.0,2,15,10.0,100.0
4397,79.0,1,15,0.0,98.0
4398,64.0,1,15,11.0,100.0
4399,67.0,2,15,1.0,97.0
4400,67.0,2,15,2.0,98.0
4401,76.0,0,15,2.0,98.0
4402,50.0,1,20,12.0,100.0
4403,57.0,1,20,13.0,100.0
4404,81.0,2,15,10.0,100.0
4405,81.0,1,15,0.0,98.0
4406,57.0,4,20,3.0,99.0
4407,66.0,1,15,11.0,100.0
4408,45.0,1,20,14.0,100.0
4409,69.0,2,15,1.0,97.0
4410,69.0,2,15,2.0,98.0
4411,78.0,0,15,2.0,98.0
4412,55.0,1,20,13.0,100.0
4413,82.0,9,30,10.0,100.0
4414,82.0,1,30,0.0,98.0
4415,55.0,4,20,3.0,99.0
4416,67.0,1,30,11.0,100.0
4417,43.0,1,20,14.0,100.0
4418,70.0,2,30,1.0,97.0
4419,70.0,2,30,2.0,98.0
4420,79.0,0,30,2.0,98.0
4421,62.0,0,30,5.0,100.0
4422,50.0,0,30,5.0,100.0
4423,62.0,1,50,12.0,100.0
4424,58.0,25,20,13.0,100.0
4425,58.0,4,20,3.0,99.0
4426,46.0,1,20,14.0,100.0
4427,57.0,1,20,13.0,100.0
4428,86.0,17,30,10.0,100.0
4429,81.0,1,30,0.0,98.0
4430,86.0,0,30,0.0,98.0
4431,57.0,4,20,3.0,99.0
4432,69.0,1,30,11.0,100.0
4433,45.0,1,20,14.0,100.0
4434,74.0,2,30,1.0,97.0
4435,50.0,0,30,5.0,100.0
4436,62.0,0,30,5.0,100.0
4437,74.0,2,30,2.0,98.0
4438,69.0,0,30,2.0,98.0
4439,50.0,1,50,12.0,100.0
4440,53.0,25,20,13.0,100.0
4441,53.0,4,20,3.0,99.0
4442,41.0,1,20,14.0,100.0
4443,62.0,0,360,4.0,100.0
4444,50.0,2,360,4.0,100.0
4445,55.0,1,20,12.0,100.0
4446,51.0,1,20,13.0,100.0
4447,51.0,4,20,3.0,99.0
4448,39.0,1,20,14.0,100.0
4449,58.0,2,30,5.0,100.0
4450,51.0,24,20,12.0,100.0
4451,55.0,1,20,13.0,100.0
4452,55.0,4,20,3.0,99.0
4453,43.0,1,20,14.0,100.0
4454,58.0,24,20,12.0,100.0
4455,53.0,1,20,13.0,100.0
4456,53.0,4,20,3.0,99.0
4457,41.0,1,20,14.0,100.0
4458,91.0,17,105,10.0,115.0
4459,82.0,1,105,0.0,113.0
4460,91.0,0,105,0.0,113.0
4461,70.0,1,105,11.0,115.0
4462,79.0,2,105,1.0,112.0
4463,79.0,0,105,2.0,113.0
4464,70.0,0,105,2.0,113.0
4465,53.0,24,20,12.0,100.0
4466,50.0,1,20,13.0,100.0
4467,50.0,4,20,3.0,99.0
4468,38.0,1,20,14.0,100.0
4469,67.0,0,120,4.0,100.0
4470,52.0,1,20,12.0,100.0
4471,49.0,1,20,13.0,100.0
4472,82.0,17,30,10.0,100.0
4473,94.0,1,30,0.0,98.0
4474,91.0,0,30,0.0,98.0
4475,79.0,1,30,11.0,100.0
4476,79.0,0,30,1.0,97.0
4477,82.0,2,30,1.0,97.0
4478,76.0,2,30,2.0,98.0
4479,79.0,0,30,2.0,98.0
4480,52.0,4,30,3.0,99.0
4481,49.0,0,30,3.0,99.0
4482,37.0,1,30,14.0,100.0
4483,61.0,24,20,12.0,100.0
4484,52.0,1,20,13.0,100.0
4485,53.0,1,20,12.0,100.0
4486,50.0,1,20,13.0,100.0
4487,81.0,22,30,10.0,100.0
4488,93.0,1,30,0.0,98.0
4489,89.0,0,30,0.0,98.0
4490,77.0,1,30,11.0,100.0
4491,77.0,2,30,1.0,97.0
4492,81.0,0,30,1.0,97.0
4493,69.0,2,30,2.0,98.0
4494,77.0,0,30,2.0,98.0
4495,50.0,4,30,3.0,99.0
4496,53.0,0,30,3.0,99.0
4497,38.0,1,30,14.0,100.0
4498,62.0,24,20,12.0,100.0
4499,53.0,1,20,13.0,100.0
4500,55.0,1,20,12.0,100.0
4501,52.0,1,20,13.0,100.0
4502,79.0,22,30,10.0,100.0
4503,91.0,0,30,0.0,98.0
4504,88.0,1,30,0.0,98.0
4505,76.0,1,30,11.0,100.0
4506,76.0,0,30,1.0,97.0
4507,79.0,2,30,1.0,97.0
4508,69.0,2,30,2.0,98.0
4509,76.0,0,30,2.0,98.0
4510,55.0,4,30,3.0,99.0
4511,52.0,0,30,3.0,99.0
4512,40.0,1,30,14.0,100.0
4513,64.0,24,20,12.0,100.0
4514,55.0,1,20,13.0,100.0
4515,57.0,1,20,12.0,100.0
4516,53.0,1,20,13.0,100.0
4517,77.0,22,30,10.0,100.0
4518,86.0,0,30,0.0,98.0
4519,89.0,1,30,0.0,98.0
4520,74.0,1,30,11.0,100.0
4521,74.0,2,30,1.0,97.0
4522,77.0,0,30,1.0,97.0
4523,74.0,0,30,2.0,98.0
4524,69.0,2,30,2.0,98.0
4525,57.0,0,30,3.0,99.0
4526,53.0,4,30,3.0,99.0
4527,41.0,1,30,14.0,100.0
4528,65.0,24,20,12.0,100.0
4529,57.0,1,20,13.0,100.0
4530,58.0,1,20,12.0,100.0
4531,55.0,1,20,13.0,100.0
4532,76.0,22,30,10.0,100.0
4533,88.0,1,30,0.0,98.0
4534,70.0,1,30,11.0,100.0
4535,76.0,2,30,1.0,97.0
4536,76.0,0,30,2.0,98.0
4537,67.0,2,30,2.0,98.0
4538,55.0,4,30,3.0,99.0
4539,58.0,0,30,3.0,99.0
4540,43.0,1,30,14.0,100.0
4541,67.0,24,20,12.0,100.0
4542,58.0,1,20,13.0,100.0
4543,74.0,22,8,10.0,100.0
4544,73.0,1,8,10.0,100.0
4545,85.0,1,8,0.0,98.0
4546,73.0,3,8,1.0,97.0
4547,74.0,2,8,10.0,100.0
4548,86.0,1,8,0.0,98.0
4549,57.0,0,20,12.0,100.0
4550,74.0,3,8,1.0,97.0
4551,57.0,0,20,13.0,100.0
4552,73.0,3,8,10.0,100.0
4553,85.0,1,8,0.0,98.0
4554,64.0,2,30,11.0,100.0
4555,73.0,3,8,1.0,97.0
4556,64.0,3,30,2.0,98.0
4557,76.0,0,30,2.0,98.0
4558,57.0,1,30,3.0,99.0
4559,45.0,1,30,14.0,100.0
4560,71.0,4,15,10.0,100.0
4561,83.0,1,15,0.0,98.0
4562,71.0,3,15,1.0,97.0
4563,64.0,3,20,12.0,100.0
4564,61.0,1,20,13.0,100.0
4565,73.0,7,15,10.0,100.0
4566,85.0,1,15,0.0,98.0
4567,69.0,0,60,6.0,120.0
4568,57.0,1,60,6.0,120.0
4569,73.0,3,15,1.0,97.0
4570,45.0,0,60,15.0,87.0
4571,57.0,1,20,12.0,100.0
4572,53.0,1,20,13.0,100.0
4573,74.0,11,30,10.0,100.0
4574,86.0,1,30,0.0,98.0
4575,69.0,1,30,11.0,100.0
4576,74.0,1,30,1.0,97.0
4577,74.0,0,30,2.0,98.0
4578,69.0,2,30,2.0,98.0
4579,53.0,0,30,3.0,99.0
4580,57.0,4,30,3.0,99.0
4581,41.0,1,30,14.0,100.0
4582,62.0,22,20,12.0,100.0
4583,62.0,1,20,13.0,100.0
4584,62.0,1,60,6.0,120.0
4585,69.0,0,60,6.0,120.0
4586,76.0,22,15,10.0,100.0
4587,50.0,2,60,15.0,87.0
4588,85.0,0,15,0.0,98.0
4589,88.0,1,15,0.0,98.0
4590,73.0,1,15,11.0,100.0
4591,76.0,2,15,1.0,97.0
4592,73.0,0,15,1.0,97.0
4593,55.0,1,20,12.0,100.0
4594,52.0,1,20,13.0,100.0
4595,77.0,2,15,10.0,100.0
4596,89.0,1,15,0.0,98.0
4597,86.0,0,15,0.0,98.0
4598,74.0,1,15,11.0,100.0
4599,52.0,4,20,3.0,99.0
4600,55.0,0,20,3.0,99.0
4601,40.0,1,20,14.0,100.0
4602,77.0,0,15,1.0,97.0
4603,74.0,2,15,1.0,97.0
4604,67.0,0,30,2.0,98.0
4605,69.0,2,0,2.0,98.0
4606,79.0,11,15,10.0,100.0
4607,91.0,0,15,0.0,98.0
4608,88.0,1,15,0.0,98.0
4609,76.0,1,15,11.0,100.0
4610,79.0,2,15,1.0,97.0
4611,76.0,0,15,1.0,97.0
4612,53.0,1,20,12.0,100.0
4613,50.0,1,20,13.0,100.0
4614,81.0,2,15,10.0,100.0
4615,89.0,0,15,0.0,98.0
4616,93.0,1,15,0.0,98.0
4617,50.0,0,20,3.0,99.0
4618,77.0,1,15,11.0,100.0
4619,53.0,4,20,3.0,99.0
4620,38.0,1,20,14.0,100.0
4621,77.0,2,15,1.0,97.0
4622,81.0,0,15,1.0,97.0
4623,65.0,0,30,2.0,98.0
4624,52.0,1,20,12.0,100.0
4625,49.0,1,20,13.0,100.0
4626,82.0,11,30,10.0,100.0
4627,91.0,0,30,0.0,98.0
4628,94.0,1,30,0.0,98.0
4629,79.0,1,30,11.0,100.0
4630,82.0,0,30,1.0,97.0
4631,79.0,2,30,1.0,97.0
4632,82.0,0,30,2.0,98.0
4633,79.0,2,30,2.0,98.0
4634,49.0,4,30,3.0,99.0
4635,52.0,0,30,3.0,99.0
4636,37.0,1,30,14.0,100.0
4637,61.0,24,20,12.0,100.0
4638,52.0,1,20,13.0,100.0
4639,52.0,1,20,12.0,100.0
4640,50.0,1,20,13.0,100.0
4641,81.0,22,30,10.0,100.0
4642,89.0,1,30,0.0,98.0
4643,93.0,0,30,0.0,98.0
4644,77.0,1,30,11.0,100.0
4645,81.0,0,30,1.0,97.0
4646,77.0,2,30,1.0,97.0
4647,77.0,0,30,2.0,98.0
4648,69.0,2,30,2.0,98.0
4649,53.0,0,30,3.0,99.0
4650,50.0,4,30,3.0,99.0
4651,38.0,1,30,14.0,100.0
4652,62.0,24,20,12.0,100.0
4653,53.0,1,20,13.0,100.0
4654,55.0,1,20,12.0,100.0
4655,52.0,1,20,13.0,100.0
4656,79.0,22,30,10.0,100.0
4657,88.0,1,30,0.0,98.0
4658,91.0,0,30,0.0,98.0
4659,76.0,1,30,11.0,100.0
4660,76.0,0,30,1.0,97.0
4661,79.0,2,30,1.0,97.0
4662,76.0,2,30,2.0,98.0
4663,69.0,0,30,2.0,98.0
4664,55.0,4,30,3.0,99.0
4665,52.0,0,30,3.0,99.0
4666,40.0,1,30,14.0,100.0
4667,64.0,24,20,12.0,100.0
4668,55.0,1,20,13.0,100.0
4669,57.0,1,20,12.0,100.0
4670,53.0,1,20,13.0,100.0
4671,77.0,22,30,10.0,100.0
4672,86.0,1,30,0.0,98.0
4673,89.0,0,30,0.0,98.0
4674,74.0,1,30,11.0,100.0
4675,74.0,2,30,1.0,97.0
4676,77.0,0,30,1.0,97.0
4677,74.0,2,30,2.0,98.0
4678,69.0,0,30,2.0,98.0
4679,53.0,0,30,3.0,99.0
4680,57.0,4,30,3.0,99.0
4681,41.0,1,30,14.0,100.0
4682,65.0,24,20,12.0,100.0
4683,57.0,1,20,13.0,100.0
4684,58.0,1,20,12.0,100.0
4685,55.0,1,20,13.0,100.0
4686,76.0,22,30,10.0,100.0
4687,88.0,1,30,0.0,98.0
4688,74.0,1,30,11.0,100.0
4689,64.0,0,30,11.0,100.0
4690,76.0,2,30,1.0,97.0
4691,76.0,2,30,2.0,98.0
4692,67.0,0,30,2.0,98.0
4693,55.0,0,30,3.0,99.0
4694,58.0,4,30,3.0,99.0
4695,43.0,1,30,14.0,100.0
4696,67.0,24,20,12.0,100.0
4697,58.0,1,20,13.0,100.0
4698,74.0,22,8,10.0,100.0
4699,73.0,1,8,10.0,100.0
4700,85.0,0,8,0.0,98.0
4701,73.0,3,8,1.0,97.0
4702,74.0,0,8,10.0,100.0
4703,86.0,1,8,0.0,98.0
4704,74.0,3,8,1.0,97.0
4705,57.0,0,20,12.0,100.0
4706,57.0,1,20,13.0,100.0
4707,73.0,3,8,10.0,100.0
4708,85.0,1,8,0.0,98.0
4709,64.0,0,30,11.0,100.0
4710,73.0,2,30,11.0,100.0
4711,73.0,3,8,1.0,97.0
4712,76.0,0,30,2.0,98.0
4713,64.0,3,30,2.0,98.0
4714,57.0,1,30,3.0,99.0
4715,55.0,0,30,3.0,99.0
4716,45.0,1,30,14.0,100.0
4717,71.0,4,15,10.0,100.0
4718,83.0,1,15,0.0,98.0
4719,71.0,3,15,1.0,97.0
4720,64.0,3,20,12.0,100.0
4721,61.0,1,20,13.0,100.0
4722,73.0,7,15,10.0,100.0
4723,85.0,1,15,0.0,98.0
4724,57.0,1,60,6.0,120.0
4725,69.0,0,0,6.0,120.0
4726,73.0,3,15,1.0,97.0
4727,45.0,2,60,15.0,87.0
4728,57.0,1,20,12.0,100.0
4729,54.0,1,20,13.0,100.0
4730,74.0,11,30,10.0,100.0
4731,86.0,1,30,0.0,98.0
4732,62.0,0,30,11.0,100.0
4733,74.0,1,30,11.0,100.0
4734,74.0,1,30,1.0,97.0
4735,69.0,0,30,2.0,98.0
4736,74.0,2,30,2.0,98.0
4737,57.0,4,30,3.0,99.0
4738,54.0,0,30,3.0,99.0
4739,42.0,1,30,14.0,100.0
4740,62.0,22,20,12.0,100.0
4741,62.0,1,20,13.0,100.0
4742,62.0,1,0,6.0,120.0
4743,76.0,22,15,10.0,100.0
4744,50.0,2,60,15.0,87.0
4745,84.0,0,15,0.0,98.0
4746,88.0,1,15,0.0,98.0
4747,72.0,1,15,11.0,100.0
4748,76.0,0,15,1.0,97.0
4749,72.0,2,15,2.0,98.0
4750,76.0,0,15,2.0,98.0
4751,69.0,1,20,12.0,100.0
4752,50.0,1,20,13.0,100.0
4753,78.0,2,15,10.0,100.0
4754,86.0,1,15,0.0,98.0
4755,90.0,0,15,0.0,98.0
4756,74.0,1,15,11.0,100.0
4757,50.0,4,20,3.0,99.0
4758,38.0,1,20,14.0,100.0
4759,74.0,0,30,6.0,120.0
4760,78.0,2,15,1.0,97.0
4761,62.0,0,0,4.0,100.0
4762,78.0,0,15,2.0,98.0
4763,74.0,2,15,2.0,98.0
4764,50.0,0,30,15.0,87.0
4765,79.0,9,15,10.0,100.0
4766,88.0,1,15,0.0,98.0
4767,91.0,0,15,0.0,98.0
4768,76.0,1,15,11.0,100.0
4769,79.0,1,15,1.0,97.0
4770,76.0,2,15,2.0,98.0
4771,79.0,0,15,2.0,98.0
4772,66.0,1,20,12.0,100.0
4773,48.0,1,20,13.0,100.0
4774,81.0,0,15,10.0,100.0
4775,90.0,1,15,0.0,98.0
4776,93.0,0,15,0.0,98.0
4777,78.0,1,15,11.0,100.0
4778,48.0,4,20,3.0,99.0
4779,62.0,0,30,6.0,120.0
4780,36.0,1,20,14.0,100.0
4781,74.0,1,0,6.0,120.0
4782,81.0,2,15,1.0,97.0
4783,81.0,2,15,2.0,98.0
4784,78.0,0,15,2.0,98.0
4785,50.0,2,0,15.0,87.0
4786,86.0,9,30,10.0,100.0
4787,86.0,0,30,0.0,98.0
4788,94.0,1,30,0.0,98.0
4789,79.0,1,30,11.0,100.0
4790,62.0,0,30,6.0,120.0
4791,82.0,0,30,1.0,97.0
4792,86.0,1,30,1.0,97.0
4793,86.0,2,30,2.0,98.0
4794,79.0,0,30,2.0,98.0
4795,62.0,1,30,12.0,100.0
4796,46.0,1,30,13.0,100.0
4797,46.0,4,30,3.0,99.0
4798,34.0,1,30,14.0,100.0
4799,82.0,45,30,10.0,100.0
4800,86.0,1,30,0.0,98.0
4801,94.0,0,30,0.0,98.0
4802,74.0,1,30,11.0,100.0
4803,74.0,0,30,6.0,120.0
4804,62.0,1,30,6.0,120.0
4805,82.0,0,30,1.0,97.0
4806,79.0,1,30,1.0,97.0
4807,82.0,2,30,2.0,98.0
4808,74.0,0,30,2.0,98.0
4809,67.0,1,30,12.0,100.0
4810,50.0,1,30,13.0,100.0
4811,50.0,4,30,3.0,99.0
4812,38.0,1,30,14.0,100.0
4813,50.0,2,30,15.0,87.0
4814,79.0,45,30,10.0,100.0
4815,91.0,1,30,0.0,98.0
4816,86.0,0,30,0.0,98.0
4817,70.0,1,30,11.0,100.0
4818,62.0,1,30,6.0,120.0
4819,74.0,0,30,6.0,120.0
4820,79.0,0,30,1.0,97.0
4821,74.0,1,30,1.0,97.0
4822,70.0,0,30,2.0,98.0
4823,79.0,2,30,2.0,98.0
4824,58.0,1,30,12.0,100.0
4825,43.0,1,30,13.0,100.0
4826,43.0,0,30,3.0,99.0
4827,55.0,4,30,3.0,99.0
4828,43.0,1,30,14.0,100.0
4829,50.0,2,30,15.0,87.0
4830,74.0,45,30,10.0,100.0
4831,86.0,1,30,0.0,98.0
4832,67.0,1,30,11.0,100.0
4833,62.0,0,30,6.0,120.0
4834,74.0,1,30,6.0,120.0
4835,70.0,1,30,1.0,97.0
4836,74.0,0,30,1.0,97.0
4837,74.0,0,30,2.0,98.0
4838,67.0,2,30,2.0,98.0
4839,62.0,1,30,12.0,100.0
4840,46.0,1,30,13.0,100.0
4841,46.0,4,30,3.0,99.0
4842,58.0,0,30,3.0,99.0
4843,46.0,1,30,14.0,100.0
4844,50.0,2,30,15.0,87.0
4845,82.0,45,30,10.0,100.0
4846,82.0,1,30,0.0,98.0
4847,67.0,1,30,11.0,100.0
4848,74.0,1,30,6.0,120.0
4849,62.0,0,30,6.0,120.0
4850,67.0,0,30,1.0,97.0
4851,70.0,1,30,1.0,97.0
4852,67.0,2,30,2.0,98.0
4853,70.0,0,30,2.0,98.0
4854,67.0,1,30,12.0,100.0
4855,50.0,1,30,13.0,100.0
4856,62.0,0,30,3.0,99.0
4857,50.0,4,30,3.0,99.0
4858,50.0,1,30,14.0,100.0
4859,50.0,2,30,15.0,87.0
4860,67.0,0,300,4.0,100.0
4861,79.0,45,30,10.0,100.0
4862,79.0,1,30,0.0,98.0
4863,70.0,1,30,11.0,100.0
4864,62.0,0,30,11.0,100.0
4865,74.0,1,30,6.0,120.0
4866,62.0,0,30,6.0,120.0
4867,74.0,0,30,1.0,97.0
4868,79.0,1,30,1.0,97.0
4869,67.0,0,30,4.0,100.0
4870,79.0,0,30,2.0,98.0
4871,70.0,2,30,2.0,98.0
4872,70.0,1,30,12.0,100.0
4873,55.0,1,30,13.0,100.0
4874,55.0,4,30,3.0,99.0
4875,43.0,1,30,14.0,100.0
4876,50.0,2,30,15.0,87.0
4877,76.0,45,30,10.0,100.0
4878,76.0,1,30,0.0,98.0
4879,64.0,0,30,11.0,100.0
4880,74.0,1,30,11.0,100.0
4881,69.0,0,30,6.0,120.0
4882,57.0,1,30,6.0,120.0
4883,57.0,0,30,4.0,100.0
4884,64.0,1,30,4.0,100.0
4885,76.0,0,30,1.0,97.0
4886,74.0,0,30,1.0,97.0
4887,69.0,2,30,2.0,98.0
4888,76.0,0,30,2.0,98.0
4889,69.0,1,30,12.0,100.0
4890,57.0,1,30,13.0,100.0
4891,57.0,4,30,3.0,99.0
4892,45.0,1,30,14.0,100.0
4893,45.0,2,30,15.0,87.0
4894,81.0,45,30,10.0,100.0
4895,81.0,1,30,0.0,98.0
4896,73.0,1,30,11.0,100.0
4897,64.0,0,30,11.0,100.0
4898,76.0,1,30,6.0,120.0
4899,69.0,0,30,6.0,120.0
4900,69.0,0,30,4.0,100.0
4901,73.0,0,30,1.0,97.0
4902,57.0,1,30,4.0,100.0
4903,81.0,0,30,1.0,97.0
4904,69.0,2,30,2.0,98.0
4905,81.0,0,30,2.0,98.0
4906,57.0,0,30,12.0,100.0
4907,64.0,1,30,12.0,100.0
4908,45.0,1,30,13.0,100.0
4909,57.0,4,30,3.0,99.0
4910,45.0,0,30,3.0,99.0
4911,33.0,1,30,14.0,100.0
4912,45.0,2,30,15.0,87.0
4913,50.0,0,30,4.0,100.0
4914,62.0,1,30,4.0,100.0
4915,74.0,45,60,10.0,100.0
4916,74.0,1,60,0.0,98.0
4917,74.0,1,60,11.0,100.0
4918,62.0,0,60,11.0,100.0
4919,74.0,0,60,6.0,120.0
4920,62.0,1,60,6.0,120.0
4921,74.0,0,60,1.0,97.0
4922,65.0,2,60,2.0,98.0
4923,74.0,0,60,2.0,98.0
4924,57.0,0,60,12.0,100.0
4925,65.0,1,60,12.0,100.0
4926,50.0,1,60,13.0,100.0
4927,50.0,4,60,3.0,99.0
4928,53.0,0,60,3.0,99.0
4929,38.0,1,60,14.0,100.0
4930,50.0,2,60,15.0,87.0
4931,50.0,1,30,4.0,99.0
4932,62.0,105,60,10.0,77.0
4933,62.0,2,60,11.0,77.0
4934,62.0,1,60,6.0,108.0
4935,62.0,0,60,1.0,84.0
4936,62.0,2,60,2.0,85.0
4937,53.0,0,60,12.0,80.0
4938,57.0,1,60,12.0,80.0
4939,50.0,2,60,15.0,77.0
4940,50.0,0,240,5.0,85.0
4941,50.0,1,240,13.0,79.0
4942,50.0,4,240,3.0,84.0
4943,38.0,1,240,14.0,79.0
4944,53.0,0,0,5.0,100.0
4945,53.0,2,120,13.0,90.0
4946,53.0,4,120,3.0,91.0
4947,41.0,1,120,14.0,90.0
4948,62.0,107,60,10.0,80.0
4949,62.0,2,60,11.0,94.0
4950,65.0,47,60,10.0,90.0
4951,65.0,2,60,11.0,110.0
4952,46.0,2,120,13.0,83.0
4953,70.0,58,60,10.0,90.0
4954,70.0,2,60,11.0,110.0
4955,74.0,58,60,10.0,90.0
4956,74.0,2,60,11.0,110.0
4957,62.0,4,240,5.0,100.0
4958,46.0,4,240,3.0,99.0
4959,46.0,1,240,14.0,83.0
4960,53.0,1,60,12.0,100.0
4961,57.0,54,60,12.0,100.0
4962,77.0,58,175,10.0,90.0
4963,72.0,2,175,11.0,110.0
4964,60.0,60,60,12.0,100.0
4965,72.0,53,60,10.0,90.0
4966,72.0,2,60,11.0,110.0
4967,60.0,4,240,5.0,100.0
4968,65.0,5,60,12.0,100.0
4969,45.0,5,240,3.0,99.0
4970,45.0,1,240,14.0,100.0
4971,51.0,1,60,13.0,100.0
4972,75.0,53,115,10.0,90.0
4973,75.0,2,115,11.0,110.0
4974,55.0,55,60,13.0,100.0
4975,74.0,52,55,10.0,90.0
4976,74.0,2,55,11.0,110.0
4977,70.0,1,175,12.0,100.0
4978,58.0,6,60,13.0,100.0
4979,72.0,52,55,10.0,90.0
4980,72.0,2,55,11.0,110.0
4981,63.0,0,0,5.0,100.0
4982,58.0,4,240,5.0,100.0
4983,58.0,1,60,12.0,100.0
4984,63.0,1,60,13.0,100.0
4985,43.0,4,240,3.0,99.0
4986,43.0,1,240,14.0,100.0
4987,70.0,52,115,10.0,90.0
4988,70.0,2,115,11.0,110.0
4989,67.0,1,115,13.0,100.0
4990,67.0,4,120,5.0,100.0
4991,63.0,1,120,12.0,100.0
4992,65.0,0,60,5.0,100.0
4993,62.0,4,60,5.0,100.0
4994,62.0,1,60,12.0,100.0
4995,65.0,1,60,13.0,100.0
4996,60.0,1,55,12.0,100.0
4997,63.0,1,55,13.0,100.0
4998,63.0,58,60,5.0,100.0
4999,60.0,58,0,5.0,100.0
5000,41.0,4,240,3.0,99.0
5001,41.0,1,240,14.0,100.0
5002,69.0,107,180,10.0,90.0
5003,69.0,2,180,11.0,110.0
5004,70.0,47,60,10.0,90.0
5005,70.0,2,60,11.0,110.0
5006,63.0,0,120,5.0,100.0
5007,60.0,1,120,12.0,100.0
5008,63.0,1,120,13.0,100.0
5009,74.0,58,60,10.0,90.0
5010,74.0,2,60,11.0,110.0
5011,79.0,52,60,10.0,90.0
5012,58.0,1,115,12.0,100.0
5013,79.0,2,60,11.0,110.0
5014,62.0,1,115,13.0,100.0
5015,55.0,0,240,3.0,99.0
5016,43.0,4,240,3.0,99.0
5017,43.0,1,240,14.0,100.0
5018,58.0,53,0,2.0,113.0
5019,55.0,0,180,2.0,113.0
5020,58.0,5,60,12.0,100.0
5021,55.0,1,60,13.0,100.0
5022,62.0,58,0,2.0,113.0
5023,62.0,1,60,12.0,100.0
5024,58.0,1,60,13.0,100.0
5025,82.0,58,175,10.0,98.0
5026,82.0,2,175,11.0,121.0
5027,67.0,0,60,2.0,113.0
5028,67.0,1,60,12.0,100.0
5029,62.0,1,60,13.0,100.0
5030,70.0,52,60,10.0,90.0
5031,70.0,2,60,11.0,110.0
5032,74.0,1,55,12.0,100.0
5033,67.0,1,55,13.0,100.0
5034,50.0,0,360,4.0,100.0
5035,62.0,2,360,4.0,100.0
5036,67.0,0,60,2.0,113.0
5037,70.0,4,60,2.0,113.0
5038,62.0,0,360,5.0,100.0
5039,41.0,0,240,3.0,99.0
5040,53.0,4,240,3.0,99.0
5041,41.0,1,240,14.0,100.0
5042,81.0,52,120,10.0,94.0
5043,81.0,2,120,11.0,114.0
5044,72.0,1,120,12.0,100.0
5045,70.0,1,120,13.0,100.0
5046,79.0,107,60,10.0,90.0
5047,79.0,2,60,11.0,110.0
5048,58.0,0,540,5.0,100.0
5049,70.0,0,180,2.0,113.0
5050,70.0,5,60,12.0,100.0
5051,77.0,52,55,10.0,90.0
5052,77.0,2,55,11.0,110.0
5053,69.0,1,55,12.0,100.0
5054,60.0,1,115,13.0,100.0
5055,60.0,2,0,4.0,85.0
5056,72.0,2,240,2.0,113.0
5057,60.0,0,0,5.0,85.0
5058,57.0,2,0,5.0,85.0
5059,69.0,4,60,2.0,113.0
5060,40.0,0,240,3.0,99.0
5061,52.0,4,240,3.0,99.0
5062,40.0,1,240,14.0,100.0
5063,53.0,0,60,7.0,74.0
5064,41.0,1,60,8.0,74.0
5065,57.0,47,60,7.0,76.0
5066,77.0,53,120,10.0,72.0
5067,77.0,2,120,11.0,84.0
5068,57.0,0,120,4.0,85.0
5069,45.0,5,60,8.0,76.0
5070,69.0,0,120,2.0,79.0
5071,72.0,0,120,2.0,79.0
5072,69.0,1,120,12.0,79.0
5073,60.0,1,120,13.0,79.0
5074,53.0,0,120,3.0,72.0
5075,41.0,3,120,3.0,72.0
5076,41.0,1,120,14.0,83.0
5077,60.0,55,60,7.0,79.0
5078,48.0,5,60,8.0,79.0
5079,63.0,55,60,7.0,82.0
5080,53.0,5,60,8.0,82.0
5081,50.0,3,60,13.0,49.0
5082,46.0,60,115,8.0,74.0
5083,53.0,5,60,13.0,49.0
5084,46.0,5,120,14.0,49.0
5085,74.0,45,115,7.0,74.0
5086,62.0,5,115,8.0,74.0
5087,58.0,3,60,13.0,49.0
5088,58.0,57,115,8.0,68.0
5089,62.0,5,60,13.0,49.0
5090,77.0,50,115,7.0,91.0
5091,65.0,5,115,8.0,74.0
5092,48.0,2,60,12.0,49.0
5093,65.0,1,60,13.0,49.0
5094,57.0,57,115,8.0,68.0
5095,53.0,4,60,12.0,49.0
5096,45.0,5,120,14.0,49.0
5097,72.0,45,115,7.0,74.0
5098,60.0,5,115,8.0,74.0
5099,56.0,2,60,12.0,49.0
5100,56.0,58,115,8.0,68.0
5101,60.0,4,60,12.0,49.0
5102,44.0,6,120,14.0,49.0
5103,77.0,45,115,7.0,91.0
5104,65.0,5,115,8.0,74.0
5105,63.0,2,60,12.0,49.0
5106,46.0,1,60,13.0,49.0
5107,55.0,58,115,8.0,68.0
5108,50.0,5,60,13.0,49.0
5109,43.0,5,120,14.0,49.0
5110,70.0,45,115,7.0,74.0
5111,58.0,5,115,8.0,74.0
5112,54.0,3,60,13.0,49.0
5113,54.0,57,115,8.0,68.0
5114,58.0,5,60,13.0,49.0
5115,42.0,5,120,14.0,49.0
5116,75.0,45,115,7.0,91.0
5117,63.0,5,115,8.0,74.0
5118,48.0,2,60,12.0,49.0
5119,57.0,1,60,13.0,49.0
5120,53.0,4,60,12.0,49.0
5121,41.0,5,120,14.0,49.0
5122,74.0,45,115,7.0,83.0
5123,62.0,5,115,8.0,82.0
5124,57.0,60,60,12.0,49.0
5125,72.0,51,55,7.0,85.0
5126,60.0,5,55,8.0,74.0
5127,53.0,57,235,8.0,68.0
5128,63.0,4,60,12.0,49.0
5129,62.0,1,60,12.0,49.0
5130,50.0,1,60,13.0,49.0
5131,55.0,58,115,8.0,68.0
5132,55.0,5,60,13.0,49.0
5133,43.0,5,120,14.0,49.0
5134,70.0,45,115,7.0,74.0
5135,58.0,5,115,8.0,74.0
5136,58.0,3,60,13.0,49.0
5137,53.0,57,115,8.0,68.0
5138,62.0,8,60,13.0,49.0
5139,41.0,5,120,14.0,49.0
5140,82.0,45,115,7.0,98.0
5141,70.0,2,115,7.0,79.0
5142,52.0,2,60,12.0,49.0
5143,67.0,1,60,13.0,49.0
5144,52.0,57,115,8.0,68.0
5145,55.0,4,60,12.0,49.0
5146,40.0,5,120,14.0,49.0
5147,70.0,45,115,7.0,74.0
5148,58.0,5,115,8.0,74.0
5149,58.0,2,60,12.0,49.0
5150,50.0,58,115,8.0,68.0
5151,65.0,7,60,12.0,49.0
5152,38.0,6,120,14.0,49.0
5153,81.0,45,115,7.0,98.0
5154,69.0,2,115,7.0,79.0
5155,64.0,2,60,12.0,49.0
5156,48.0,1,60,13.0,49.0
5157,55.0,5,60,13.0,49.0
5158,36.0,5,120,14.0,49.0
5159,70.0,45,115,7.0,74.0
5160,58.0,5,115,8.0,74.0
5161,58.0,60,60,13.0,49.0
5162,48.0,58,235,8.0,68.0
5163,58.0,1,720,5.0,62.0
5164,58.0,7,60,12.0,49.0
5165,64.0,1,60,13.0,49.0
5166,48.0,5,120,14.0,49.0
5167,57.0,1,60,12.0,49.0
5168,60.0,1,60,13.0,49.0
5169,79.0,45,180,7.0,82.0
5170,67.0,2,180,7.0,66.0
5171,45.0,48,60,8.0,68.0
5172,57.0,1,120,5.0,62.0
5173,41.0,5,120,14.0,49.0
5174,77.0,57,60,7.0,71.0
5175,65.0,2,60,7.0,55.0
5176,48.0,1,60,8.0,82.0
5177,52.0,60,60,8.0,83.0
5178,41.0,57,240,8.0,60.0
5179,57.0,56,60,8.0,83.0
5180,60.0,1,60,8.0,93.0
5181,64.0,60,60,8.0,88.0
5182,65.0,60,60,8.0,99.0
5183,75.0,59,240,7.0,78.0
5184,57.0,60,60,8.0,83.0
5185,58.0,1,60,8.0,102.0
5186,66.0,60,60,8.0,95.0
5187,67.0,60,60,8.0,104.0
5188,74.0,59,240,7.0,81.0
5189,59.0,60,60,8.0,97.0
5190,53.0,60,600,8.0,87.0
5191,41.0,4,600,8.0,70.0
5192,60.0,57,60,7.0,105.0
5193,72.0,2,120,7.0,84.0
5194,70.0,53,120,7.0,98.0
5195,69.0,58,60,7.0,98.0
5196,79.0,62,120,7.0,85.0
5197,51.0,3,240,8.0,74.0
5198,39.0,2,240,8.0,74.0
5199,72.0,60,60,7.0,106.0
5200,70.0,53,60,7.0,98.0
5201,69.0,60,60,7.0,106.0
5202,70.0,60,60,7.0,98.0
5203,77.0,2,240,7.0,85.0
5204,50.0,3,240,8.0,74.0
5205,38.0,2,240,8.0,74.0
5206,67.0,60,60,7.0,106.0
5207,75.0,2,60,7.0,85.0
5208,63.0,53,60,7.0,81.0
5209,72.0,2,60,7.0,70.0
5210,60.0,58,60,7.0,102.0
5211,65.0,58,60,7.0,92.0
5212,69.0,2,120,7.0,81.0
5213,51.0,3,240,8.0,74.0
5214,39.0,2,240,8.0,74.0
5215,58.0,60,60,7.0,98.0
5216,65.0,53,60,7.0,88.0
5217,70.0,2,120,7.0,78.0
5218,50.0,3,120,8.0,68.0
5219,38.0,2,120,8.0,68.0
5220,57.0,1,60,7.0,84.0
5221,72.0,62,120,7.0,75.0
5222,48.0,2,120,8.0,65.0
5223,36.0,2,120,8.0,63.0
5224,65.0,53,120,7.0,84.0
5225,74.0,62,120,7.0,84.0
5226,34.0,5,120,8.0,84.0
5227,53.0,56,120,8.0,80.0
5228,52.0,61,60,8.0,77.0
5229,50.0,60,60,8.0,91.0
5230,82.0,59,240,7.0,90.0
5231,52.0,60,60,8.0,79.0
5232,53.0,1,60,8.0,73.0
5233,81.0,59,120,7.0,74.0
5234,57.0,58,60,8.0,72.0
5235,41.0,2,120,8.0,63.0
5236,60.0,60,60,8.0,77.0
5237,65.0,60,60,8.0,70.0
5238,37.0,1,30,8.0,54.0
5239,52.0,0,30,8.0,54.0
5240,53.0,19,22,8.0,63.0
5241,68.0,59,60,10.0,38.0
5242,56.0,0,60,10.0,38.0
5243,61.0,0,60,11.0,42.0
5244,65.0,0,60,11.0,42.0
5245,56.0,1,60,12.0,124.0
5246,56.0,1,60,13.0,127.0
5247,64.0,26,30,7.0,80.0
5248,65.0,20,22,7.0,80.0
5249,61.0,9,60,12.0,118.0
5250,61.0,1,60,13.0,127.0
5251,38.0,1,120,14.0,38.0
5252,52.0,34,30,8.0,70.0
5253,37.0,0,30,8.0,70.0
5254,53.0,24,22,8.0,70.0
5255,65.0,5,60,12.0,118.0
5256,65.0,1,60,13.0,127.0
5257,64.0,26,30,7.0,80.0
5258,65.0,20,22,7.0,80.0
5259,80.0,1,240,0.0,98.0
5260,68.0,9,60,12.0,118.0
5261,68.0,1,60,13.0,127.0
5262,49.0,4,240,3.0,99.0
5263,53.0,0,240,3.0,99.0
5264,52.0,0,30,8.0,70.0
5265,34.0,0,30,8.0,70.0
5266,53.0,19,22,8.0,70.0
5267,70.0,32,60,10.0,45.0
5268,61.0,0,60,10.0,45.0
5269,65.0,1,60,11.0,49.0
5270,61.0,0,60,11.0,49.0
5271,70.0,5,60,12.0,118.0
5272,70.0,1,60,13.0,127.0
5273,64.0,26,30,7.0,81.0
5274,65.0,20,22,7.0,81.0
5275,34.0,1,120,14.0,45.0
5276,34.0,0,30,8.0,70.0
5277,48.0,34,30,8.0,70.0
5278,49.0,30,22,8.0,70.0
5279,58.0,9,120,12.0,118.0
5280,58.0,1,120,13.0,127.0
5281,60.0,26,30,7.0,81.0
5282,61.0,20,22,7.0,81.0
5283,73.0,0,0,0.0,98.0
5284,82.0,1,0,0.0,98.0
5285,73.0,4,480,2.0,98.0
5286,65.0,0,480,2.0,98.0
5287,60.0,9,60,12.0,118.0
5288,60.0,1,60,13.0,127.0
5289,58.0,4,0,3.0,99.0
5290,46.0,4,240,3.0,99.0
5291,48.0,1,30,8.0,70.0
5292,30.0,0,30,8.0,70.0
5293,49.0,19,22,8.0,70.0
5294,70.0,0,60,10.0,45.0
5295,66.0,32,60,10.0,45.0
5296,58.0,0,60,10.0,45.0
5297,61.0,0,60,11.0,118.0
5298,61.0,1,60,12.0,118.0
5299,60.0,26,30,7.0,81.0
5300,61.0,21,22,7.0,81.0
5301,66.0,4,60,11.0,118.0
5302,66.0,5,60,12.0,118.0
5303,61.0,1,120,13.0,127.0
5304,30.0,1,120,14.0,45.0
5305,45.0,0,30,8.0,71.0
5306,30.0,34,30,8.0,71.0
5307,46.0,25,22,8.0,71.0
5308,70.0,0,60,11.0,118.0
5309,70.0,5,60,12.0,108.0
5310,57.0,26,30,7.0,81.0
5311,58.0,21,22,7.0,81.0
5312,73.0,4,60,11.0,118.0
5313,66.0,0,240,2.0,98.0
5314,73.0,5,60,12.0,108.0
5315,42.0,0,240,3.0,99.0
5316,30.0,0,30,8.0,71.0
5317,45.0,1,30,8.0,71.0
5318,46.0,19,22,8.0,67.0
5319,70.0,32,60,10.0,45.0
5320,66.0,0,60,10.0,45.0
5321,58.0,0,60,10.0,45.0
5322,75.0,0,60,11.0,118.0
5323,75.0,1,60,12.0,108.0
5324,57.0,26,30,7.0,76.0
5325,58.0,21,22,7.0,74.0
5326,42.0,1,120,14.0,45.0
5327,30.0,34,30,8.0,60.0
5328,42.0,19,22,8.0,60.0
5329,75.0,1,180,0.0,98.0
5330,63.0,4,120,11.0,118.0
5331,63.0,4,180,2.0,98.0
5332,63.0,5,120,12.0,118.0
5333,54.0,5,180,3.0,99.0
5334,42.0,11,60,14.0,45.0
5335,57.0,26,30,7.0,65.0
5336,29.0,1,30,8.0,55.0
5337,58.0,15,22,7.0,62.0
5338,41.0,4,22,8.0,52.0
5339,77.0,3,60,0.0,98.0
5340,65.0,0,60,11.0,118.0
5341,65.0,4,60,2.0,98.0
5342,65.0,1,60,12.0,118.0
5343,53.0,5,60,3.0,99.0
5344,41.0,1,60,14.0,45.0
5345,62.0,0,30,7.0,77.0
5346,63.0,17,22,7.0,78.0
5347,27.0,0,60,8.0,77.0
5348,70.0,0,60,10.0,45.0
5349,66.0,28,60,10.0,45.0
5350,58.0,0,60,10.0,45.0
5351,78.0,1,60,0.0,98.0
5352,66.0,1,60,11.0,118.0
5353,70.0,4,540,2.0,98.0
5354,66.0,4,60,2.0,98.0
5355,66.0,1,60,12.0,118.0
5356,51.0,5,60,3.0,99.0
5357,39.0,1,60,14.0,45.0
5358,65.0,0,30,7.0,80.0
5359,66.0,30,22,7.0,81.0
5360,54.0,30,60,8.0,68.0
5361,39.0,0,60,8.0,68.0
5362,69.0,0,30,7.0,84.0
5363,70.0,30,22,7.0,85.0
5364,41.0,30,60,8.0,72.0
5365,53.0,0,60,8.0,72.0
5366,46.0,0,120,8.0,68.0
5367,72.0,30,30,7.0,88.0
5368,73.0,18,22,7.0,89.0
5369,77.0,1,60,0.0,98.0
5370,65.0,6,60,3.0,99.0
5371,74.0,30,30,7.0,91.0
5372,75.0,18,22,7.0,92.0
5373,78.0,1,60,0.0,98.0
5374,70.0,5,120,2.0,98.0
5375,63.0,11,60,3.0,99.0
5376,77.0,30,30,7.0,94.0
5377,78.0,30,22,7.0,96.0
5378,51.0,0,60,8.0,81.0
5379,66.0,0,60,8.0,81.0
5380,81.0,30,30,7.0,98.0
5381,82.0,30,22,7.0,99.0
5382,65.0,0,60,8.0,84.0
5383,58.0,0,120,8.0,81.0
5384,53.0,0,60,8.0,84.0
5385,81.0,30,30,7.0,102.0
5386,82.0,18,22,7.0,103.0
5387,77.0,1,60,0.0,98.0
5388,70.0,5,60,2.0,98.0
5389,65.0,6,60,3.0,99.0
5390,82.0,30,14,7.0,70.0
5391,83.0,6,14,7.0,70.0
5392,82.0,16,14,7.0,73.0
5393,83.0,14,14,7.0,74.0
5394,76.0,1,60,0.0,98.0
5395,73.0,2,60,2.0,98.0
5396,82.0,14,14,7.0,75.0
5397,66.0,0,60,3.0,99.0
5398,83.0,8,14,7.0,77.0
5399,82.0,13,14,7.0,81.0
5400,83.0,15,14,7.0,80.0
5401,64.0,7,60,8.0,60.0
5402,61.0,0,60,8.0,60.0
5403,83.0,20,14,7.0,68.0
5404,85.0,10,14,7.0,70.0
5405,83.0,14,14,7.0,73.0
5406,85.0,16,14,7.0,75.0
5407,63.0,0,60,8.0,79.0
5408,59.0,4,60,8.0,79.0
5409,54.0,0,120,8.0,60.0
5410,83.0,12,14,7.0,75.0
5411,85.0,2,14,7.0,76.0
5412,83.0,15,14,7.0,81.0
5413,85.0,14,17,7.0,81.0
5414,75.0,5,60,10.0,100.0
5415,71.0,2,60,11.0,100.0
5416,71.0,5,60,12.0,100.0
5417,85.0,1,15,7.0,70.0
5418,87.0,7,15,7.0,72.0
5419,85.0,12,15,7.0,73.0
5420,87.0,14,15,7.0,73.0
5421,76.0,22,60,10.0,100.0
5422,73.0,1,60,11.0,100.0
5423,73.0,5,60,12.0,100.0
5424,85.0,18,15,7.0,76.0
5425,87.0,9,15,7.0,78.0
5426,85.0,13,15,7.0,81.0
5427,87.0,16,15,7.0,80.0
5428,58.0,0,60,8.0,60.0
5429,64.0,4,60,8.0,60.0
5430,54.0,1,120,13.0,49.0
5431,87.0,19,15,7.0,68.0
5432,88.0,11,15,7.0,72.0
5433,87.0,15,15,7.0,72.0
5434,88.0,15,15,7.0,74.0
5435,59.0,3,60,8.0,79.0
5436,54.0,0,120,8.0,60.0
5437,63.0,0,60,8.0,79.0
5438,87.0,14,15,7.0,76.0
5439,88.0,4,15,7.0,78.0
5440,87.0,14,15,7.0,80.0
5441,88.0,17,15,7.0,81.0
5442,75.0,2,60,10.0,100.0
5443,71.0,2,60,11.0,100.0
5444,71.0,5,60,12.0,100.0
5445,89.0,17,13,7.0,68.0
5446,90.0,4,13,7.0,70.0
5447,89.0,15,13,7.0,71.0
5448,90.0,10,13,7.0,70.0
5449,89.0,14,13,7.0,72.0
5450,90.0,2,13,7.0,74.0
5451,89.0,16,13,7.0,74.0
5452,90.0,13,13,7.0,76.0
5453,89.0,11,13,7.0,75.0
5454,62.0,0,60,8.0,60.0
5455,59.0,11,60,8.0,60.0
5456,56.0,0,60,8.0,60.0
5457,54.0,0,60,8.0,60.0
5458,42.0,1,120,13.0,49.0
5459,42.0,1,120,14.0,49.0
5460,90.0,16,13,7.0,76.0
5461,89.0,9,13,7.0,76.0
5462,90.0,13,13,7.0,78.0
5463,89.0,14,13,7.0,78.0
5464,42.0,2,60,8.0,97.0
5465,90.0,14,13,7.0,80.0
5466,89.0,1,13,7.0,82.0
5467,90.0,12,13,7.0,81.0
5468,89.0,15,13,7.0,83.0
5469,90.0,11,13,7.0,83.0
5470,68.0,13,60,2.0,98.0
5471,92.0,16,13,7.0,71.0
5472,94.0,3,13,7.0,73.0
5473,92.0,14,13,7.0,75.0
5474,94.0,13,13,7.0,74.0
5475,92.0,12,13,7.0,76.0
5476,94.0,1,13,7.0,77.0
5477,92.0,14,13,7.0,76.0
5478,94.0,14,13,7.0,79.0
5479,92.0,12,13,7.0,78.0
5480,65.0,0,60,8.0,60.0
5481,62.0,11,60,8.0,60.0
5482,59.0,0,60,8.0,60.0
5483,54.0,0,60,8.0,60.0
5484,42.0,2,120,13.0,49.0
5485,94.0,15,13,7.0,79.0
5486,42.0,2,120,14.0,49.0
5487,92.0,8,13,7.0,79.0
5488,94.0,16,13,7.0,80.0
5489,92.0,10,13,7.0,81.0
5490,42.0,4,60,8.0,97.0
5491,94.0,16,13,7.0,82.0
5492,92.0,11,13,7.0,83.0
5493,94.0,15,13,7.0,85.0
5494,92.0,13,13,7.0,85.0
5495,94.0,15,13,7.0,87.0
5496,77.0,0,60,1.0,97.0
5497,95.0,14,13,7.0,76.0
5498,97.0,4,13,7.0,76.0
5499,95.0,10,13,7.0,78.0
5500,97.0,14,13,7.0,78.0
5501,95.0,12,13,7.0,77.0
5502,97.0,12,13,7.0,79.0
5503,95.0,10,13,7.0,80.0
5504,97.0,13,13,7.0,81.0
5505,95.0,15,13,7.0,81.0
5506,59.0,0,60,8.0,60.0
5507,62.0,0,60,8.0,60.0
5508,65.0,2,60,8.0,60.0
5509,54.0,0,60,8.0,60.0
5510,97.0,12,13,7.0,82.0
5511,42.0,4,120,13.0,49.0
5512,42.0,1,120,14.0,49.0
5513,95.0,3,13,7.0,84.0
5514,97.0,11,13,7.0,86.0
5515,95.0,11,13,7.0,87.0
5516,97.0,15,13,7.0,88.0
5517,42.0,10,60,8.0,97.0
5518,95.0,10,13,7.0,89.0
5519,97.0,6,13,7.0,89.0
5520,95.0,11,13,7.0,89.0
5521,97.0,15,13,7.0,89.0
5522,95.0,10,13,7.0,90.0
5523,74.0,8,60,0.0,98.0
5524,95.0,0,13,7.0,95.0
5525,97.0,1,13,7.0,96.0
5526,95.0,10,13,7.0,97.0
5527,97.0,14,13,7.0,97.0
5528,95.0,16,13,7.0,97.0
5529,97.0,1,13,7.0,96.0
5530,95.0,14,13,7.0,97.0
5531,97.0,13,13,7.0,96.0
5532,95.0,13,13,7.0,97.0
5533,54.0,0,60,8.0,60.0
5534,68.0,9,60,8.0,60.0
5535,65.0,0,60,8.0,60.0
5536,62.0,0,60,8.0,60.0
5537,42.0,7,120,13.0,49.0
5538,97.0,14,13,7.0,95.0
5539,42.0,5,120,14.0,49.0
5540,95.0,8,13,7.0,95.0
5541,97.0,13,13,7.0,96.0
5542,95.0,16,13,7.0,97.0
5543,42.0,5,60,8.0,97.0
5544,97.0,12,16,7.0,97.0
5545,95.0,8,16,7.0,96.0
5546,97.0,18,16,7.0,96.0
5547,95.0,15,16,7.0,96.0
5548,74.0,1,960,10.0,86.0
5549,77.0,18,240,0.0,98.0
5550,83.0,9,60,0.0,98.0
5551,71.0,2,960,11.0,86.0
5552,80.0,3,480,1.0,97.0
5553,71.0,5,720,2.0,98.0
5554,68.0,5,960,12.0,86.0
5555,94.0,17,15,7.0,73.0
5556,95.0,1,15,7.0,74.0
5557,94.0,14,15,7.0,75.0
5558,95.0,15,18,7.0,78.0
5559,94.0,18,18,7.0,81.0
5560,95.0,14,18,7.0,82.0
5561,94.0,18,18,7.0,85.0
5562,85.0,0,120,0.0,98.0
5563,64.0,0,60,8.0,60.0
5564,66.0,0,60,8.0,60.0
5565,54.0,2,60,8.0,60.0
5566,61.0,0,60,8.0,60.0
5567,42.0,1,120,13.0,49.0
5568,30.0,5,120,14.0,49.0
5569,88.0,25,15,7.0,74.0
5570,90.0,10,15,7.0,74.0
5571,88.0,14,15,7.0,76.0
5572,90.0,17,18,7.0,79.0
5573,42.0,2,60,8.0,97.0
5574,88.0,18,18,7.0,81.0
5575,90.0,15,18,7.0,81.0
5576,88.0,19,18,7.0,83.0
5577,82.0,1,120,0.0,98.0
5578,82.0,0,240,1.0,97.0
5579,85.0,25,15,7.0,72.0
5580,87.0,13,15,7.0,73.0
5581,85.0,13,15,7.0,75.0
5582,87.0,14,14,7.0,76.0
5583,85.0,14,14,7.0,78.0
5584,87.0,14,14,7.0,78.0
5585,85.0,11,14,7.0,81.0
5586,87.0,13,14,7.0,83.0
5587,85.0,11,14,7.0,83.0
5588,76.0,0,120,0.0,98.0
5589,76.0,2,360,2.0,98.0
5590,82.0,17,16,7.0,71.0
5591,83.0,9,16,7.0,73.0
5592,82.0,15,16,7.0,74.0
5593,83.0,16,16,7.0,77.0
5594,82.0,18,16,7.0,79.0
5595,83.0,18,16,7.0,79.0
5596,82.0,16,16,7.0,83.0
5597,70.0,1,480,0.0,98.0
5598,70.0,1,480,11.0,100.0
5599,66.0,3,1920,4.0,100.0
5600,73.0,5,120,2.0,98.0
5601,76.0,22,15,7.0,67.0
5602,78.0,1,15,7.0,71.0
5603,76.0,15,15,7.0,73.0
5604,78.0,14,15,7.0,74.0
5605,76.0,16,14,7.0,77.0
5606,78.0,10,14,7.0,78.0
5607,76.0,12,14,7.0,80.0
5608,78.0,15,15,7.0,81.0
5609,76.0,7,15,7.0,81.0
5610,58.0,1,60,8.0,50.0
5611,64.0,0,60,8.0,50.0
5612,66.0,0,60,8.0,50.0
5613,61.0,0,60,8.0,50.0
5614,54.0,0,60,8.0,50.0
5615,73.0,1,600,10.0,100.0
5616,70.0,6,120,2.0,98.0
5617,42.0,2,120,13.0,49.0
5618,30.0,5,120,14.0,49.0
5619,73.0,1,15,7.0,76.0
5620,75.0,13,15,7.0,76.0
5621,73.0,14,15,7.0,76.0
5622,75.0,16,15,7.0,75.0
5623,42.0,16,60,8.0,82.0
5624,73.0,13,14,7.0,74.0
5625,75.0,14,14,7.0,75.0
5626,73.0,12,14,7.0,75.0
5627,75.0,13,14,7.0,76.0
5628,73.0,6,14,7.0,76.0
5629,70.0,0,120,10.0,100.0
5630,70.0,17,15,7.0,68.0
5631,71.0,16,15,7.0,70.0
5632,70.0,14,15,7.0,71.0
5633,71.0,12,15,7.0,75.0
5634,70.0,16,14,7.0,75.0
5635,71.0,12,14,7.0,77.0
5636,70.0,14,14,7.0,80.0
5637,71.0,12,14,7.0,81.0
5638,70.0,7,14,7.0,81.0
5639,64.0,1,120,10.0,100.0
5640,64.0,1,840,12.0,100.0
5641,64.0,17,12,7.0,67.0
5642,66.0,6,12,7.0,70.0
5643,64.0,11,12,7.0,71.0
5644,66.0,12,12,7.0,75.0
5645,64.0,12,12,7.0,75.0
5646,66.0,12,12,7.0,79.0
5647,64.0,13,12,7.0,81.0
5648,63.0,17,15,7.0,87.0
5649,64.0,14,15,7.0,89.0
5650,54.0,2,960,4.0,100.0
5651,61.0,7,120,12.0,100.0
5652,66.0,15,25,7.0,83.0
5653,63.0,22,25,7.0,75.0
5654,64.0,31,25,7.0,72.0
5655,67.0,30,25,7.0,78.0
5656,58.0,8,120,12.0,100.0
5657,63.0,31,25,7.0,68.0
5658,64.0,28,25,7.0,68.0
5659,66.0,32,25,7.0,72.0
5660,63.0,28,25,7.0,60.0
5661,64.0,30,25,7.0,61.0
5662,67.0,30,25,7.0,67.0
5663,66.0,32,25,7.0,61.0
5664,67.0,28,25,7.0,59.0
5665,69.0,30,25,7.0,66.0
5666,66.0,31,25,7.0,60.0
5667,67.0,30,25,7.0,60.0
5668,70.0,29,25,7.0,65.0
5669,69.0,31,25,7.0,57.0
5670,70.0,29,25,7.0,57.0
5671,72.0,32,25,7.0,65.0
5672,69.0,29,25,7.0,55.0
5673,70.0,31,25,7.0,56.0
5674,73.0,30,25,7.0,62.0
5675,69.0,29,25,7.0,52.0
5676,70.0,30,25,7.0,51.0
5677,73.0,31,25,7.0,51.0
5678,74.0,30,25,7.0,60.0
5679,69.0,30,25,7.0,54.0
5680,70.0,29,25,7.0,50.0
5681,73.0,29,25,7.0,50.0
5682,74.0,32,25,7.0,54.0
5683,69.0,29,25,7.0,52.0
5684,70.0,31,25,7.0,56.0
5685,73.0,28,30,7.0,56.0
5686,61.0,6,30,8.0,48.0
5687,74.0,16,25,7.0,55.0
5688,62.0,5,25,8.0,51.0
5689,76.0,26,30,7.0,61.0
5690,64.0,5,30,8.0,54.0
5691,77.0,25,25,7.0,67.0
5692,65.0,4,25,8.0,54.0
5693,46.0,2,120,13.0,100.0
5694,81.0,25,30,7.0,75.0
5695,69.0,5,30,8.0,63.0
5696,82.0,23,25,7.0,75.0
5697,70.0,2,25,8.0,62.0
5698,62.0,1,120,5.0,100.0
5699,85.0,27,30,7.0,80.0
5700,73.0,3,30,8.0,63.0
5701,86.0,25,25,7.0,81.0
5702,74.0,2,25,8.0,71.0
5703,58.0,3,120,13.0,100.0
5704,91.0,27,30,7.0,87.0
5705,79.0,5,30,8.0,72.0
5706,89.0,23,30,7.0,84.0
5707,77.0,2,30,8.0,68.0
5708,65.0,3,120,5.0,100.0
5709,88.0,27,30,7.0,83.0
5710,76.0,3,30,8.0,67.0
5711,89.0,23,30,7.0,82.0
5712,77.0,5,30,8.0,71.0
5713,41.0,1,360,5.0,100.0
5714,57.0,3,120,13.0,100.0
5715,84.0,26,30,7.0,89.0
5716,72.0,4,30,8.0,72.0
5717,80.0,22,30,7.0,85.0
5718,68.0,4,30,8.0,68.0
5719,60.0,3,120,5.0,100.0
5720,77.0,27,30,7.0,83.0
5721,65.0,3,30,8.0,70.0
5722,72.0,23,25,7.0,84.0
5723,60.0,4,25,8.0,68.0
5724,56.0,4,120,13.0,100.0
5725,89.0,27,30,7.0,86.0
5726,77.0,5,30,8.0,72.0
5727,87.0,23,30,7.0,84.0
5728,75.0,4,30,8.0,71.0
5729,65.0,2,120,5.0,100.0
5730,86.0,24,30,7.0,85.0
5731,74.0,6,30,8.0,70.0
5732,87.0,23,30,7.0,85.0
5733,75.0,4,30,8.0,71.0
5734,55.0,3,120,13.0,100.0
5735,82.0,28,30,7.0,87.0
5736,70.0,2,30,8.0,71.0
5737,78.0,22,30,7.0,82.0
5738,66.0,5,30,8.0,70.0
5739,58.0,1,120,5.0,100.0
5740,75.0,26,30,7.0,84.0
5741,63.0,3,30,8.0,71.0
5742,74.0,23,25,7.0,85.0
5743,62.0,4,25,8.0,71.0
5744,63.0,2,60,5.0,100.0
5745,54.0,5,120,13.0,100.0
5746,87.0,28,30,7.0,88.0
5747,75.0,3,30,8.0,72.0
5748,86.0,21,30,7.0,82.0
5749,74.0,4,30,8.0,70.0
5750,85.0,28,30,7.0,83.0
5751,73.0,2,30,8.0,68.0
5752,86.0,26,30,7.0,84.0
5753,74.0,6,30,8.0,70.0
5754,62.0,2,120,5.0,100.0
5755,53.0,2,120,13.0,100.0
5756,84.0,26,30,7.0,87.0
5757,72.0,3,30,8.0,71.0
5758,81.0,21,30,7.0,84.0
5759,69.0,5,30,8.0,68.0
5760,60.0,2,60,5.0,100.0
5761,77.0,27,30,7.0,85.0
5762,65.0,3,30,8.0,71.0
5763,72.0,27,30,7.0,83.0
5764,60.0,3,30,8.0,68.0
5765,51.0,2,120,13.0,100.0
5766,41.0,5,960,14.0,100.0
5767,69.0,25,30,7.0,87.0
5768,57.0,6,30,8.0,72.0
5769,70.0,18,25,7.0,82.0
5770,58.0,3,25,8.0,68.0
5771,76.0,26,30,7.0,84.0
5772,64.0,3,30,8.0,70.0
5773,77.0,24,25,7.0,82.0
5774,65.0,3,25,8.0,70.0
5775,50.0,2,120,12.0,100.0
5776,41.0,5,120,14.0,100.0
5777,81.0,28,30,7.0,89.0
5778,69.0,4,30,8.0,72.0
5779,82.0,17,25,7.0,83.0
5780,70.0,5,25,8.0,68.0
5781,62.0,3,120,5.0,100.0
5782,88.0,25,30,7.0,83.0
5783,76.0,4,30,8.0,71.0
5784,89.0,25,25,7.0,83.0
5785,77.0,3,25,8.0,68.0
5786,58.0,0,240,12.0,100.0
5787,53.0,2,120,12.0,100.0
5788,50.0,1,240,13.0,100.0
5789,38.0,6,120,14.0,100.0
5790,94.0,26,30,7.0,87.0
5791,82.0,5,30,8.0,72.0
5792,92.0,18,30,7.0,83.0
5793,80.0,2,30,8.0,68.0
5794,65.0,2,120,5.0,100.0
5795,91.0,28,30,7.0,84.0
5796,79.0,2,30,8.0,70.0
5797,92.0,23,30,7.0,85.0
5798,80.0,6,30,8.0,70.0
5799,91.0,26,30,7.0,87.0
5800,79.0,2,30,8.0,72.0
5801,89.0,27,30,7.0,85.0
5802,77.0,3,30,8.0,70.0
5803,58.0,3,120,5.0,100.0
5804,88.0,26,30,7.0,85.0
5805,76.0,4,30,8.0,71.0
5806,89.0,24,25,7.0,82.0
5807,77.0,5,25,8.0,70.0
5808,56.0,2,240,12.0,100.0
5809,62.0,0,240,12.0,100.0
5810,53.0,0,240,13.0,100.0
5811,46.0,1,240,13.0,100.0
5812,34.0,5,240,14.0,100.0
5813,89.0,25,30,7.0,86.0
5814,77.0,5,30,8.0,73.0
5815,87.0,18,30,7.0,84.0
5816,75.0,2,30,8.0,67.0
5817,70.0,3,120,5.0,100.0
5818,86.0,27,30,7.0,82.0
5819,74.0,5,30,8.0,70.0
5820,87.0,25,30,7.0,82.0
5821,75.0,2,30,8.0,67.0
5822,86.0,26,30,7.0,88.0
5823,74.0,4,30,8.0,72.0
5824,84.0,26,30,7.0,85.0
5825,72.0,5,30,8.0,68.0
5826,67.0,1,120,5.0,100.0
5827,83.0,25,30,7.0,83.0
5828,71.0,5,30,8.0,70.0
5829,84.0,23,25,7.0,84.0
5830,72.0,6,25,8.0,71.0
5831,63.0,2,60,5.0,100.0
5832,55.0,0,240,12.0,100.0
5833,39.0,0,240,13.0,100.0
5834,39.0,5,240,14.0,100.0
5835,87.0,26,30,7.0,88.0
5836,75.0,3,30,8.0,72.0
5837,84.0,17,30,7.0,84.0
5838,72.0,5,30,8.0,71.0
5839,81.0,24,30,7.0,82.0
5840,69.0,4,30,8.0,70.0
5841,79.0,26,30,7.0,82.0
5842,67.0,5,30,8.0,68.0
5843,60.0,2,120,5.0,100.0
5844,77.0,27,30,7.0,89.0
5845,65.0,2,30,8.0,73.0
5846,75.0,23,30,7.0,82.0
5847,63.0,4,30,8.0,68.0
5848,72.0,27,30,7.0,81.0
5849,60.0,4,30,8.0,66.0
5850,69.0,25,25,7.0,79.0
5851,57.0,5,25,8.0,62.0
5852,53.0,3,120,5.0,100.0
5853,63.0,2,480,12.0,100.0
5854,57.0,1,240,12.0,100.0
5855,51.0,1,480,13.0,100.0
5856,41.0,1,240,13.0,100.0
5857,41.0,5,240,14.0,100.0
5858,73.0,27,25,7.0,83.0
5859,61.0,2,25,8.0,62.0
5860,74.0,17,25,7.0,76.0
5861,62.0,5,25,8.0,61.0
5862,70.0,25,25,7.0,75.0
5863,58.0,3,25,8.0,63.0
5864,65.0,28,25,7.0,75.0
5865,53.0,4,25,8.0,61.0
5866,69.0,25,25,7.0,76.0
5867,57.0,5,25,8.0,63.0
5868,70.0,25,25,7.0,74.0
5869,58.0,4,25,8.0,60.0
5870,65.0,26,25,7.0,70.0
5871,53.0,3,25,8.0,59.0
5872,62.0,27,25,7.0,71.0
5873,50.0,3,25,8.0,54.0
5874,69.0,28,25,7.0,74.0
5875,57.0,3,25,8.0,60.0
5876,70.0,25,25,7.0,66.0
5877,58.0,4,25,8.0,51.0
5878,65.0,26,25,7.0,68.0
5879,53.0,5,25,8.0,51.0
5880,62.0,26,25,7.0,66.0
5881,50.0,3,25,8.0,50.0
5882,46.0,3,360,5.0,100.0
5883,62.0,0,360,12.0,100.0
5884,58.0,1,360,12.0,100.0
5885,46.0,1,360,13.0,100.0
5886,34.0,5,360,14.0,100.0
5887,64.0,26,25,7.0,68.0
5888,52.0,6,25,8.0,50.0
5889,65.0,24,25,7.0,61.0
5890,53.0,4,25,8.0,49.0
5891,62.0,28,25,7.0,59.0
5892,50.0,4,25,8.0,46.0
5893,58.0,26,25,7.0,59.0
5894,46.0,2,25,8.0,45.0
5895,61.0,26,25,7.0,62.0
5896,49.0,5,25,8.0,50.0
5897,62.0,26,25,7.0,56.0
5898,50.0,4,25,8.0,45.0
5899,58.0,26,25,7.0,56.0
5900,53.0,30,25,7.0,55.0
5901,57.0,30,25,7.0,56.0
5902,45.0,5,25,8.0,48.0
5903,58.0,26,25,7.0,55.0
5904,46.0,3,25,8.0,44.0
5905,53.0,26,25,7.0,52.0
5906,50.0,30,25,7.0,50.0
5907,52.0,29,25,7.0,54.0
5908,40.0,6,25,8.0,41.0
5909,53.0,25,25,7.0,51.0
5910,41.0,3,25,8.0,40.0
5911,50.0,26,25,7.0,46.0
5912,46.0,31,25,7.0,48.0
5913,52.0,30,25,7.0,49.0
5914,40.0,4,25,8.0,40.0
5915,53.0,26,25,7.0,44.0
5916,41.0,4,25,8.0,37.0
5917,46.0,27,25,7.0,46.0
5918,41.0,29,25,7.0,44.0
5919,34.0,0,30,8.0,50.0
5920,61.0,32,30,11.0,74.0
5921,65.0,60,30,11.0,73.0
5922,70.0,60,30,11.0,80.0
5923,73.0,60,30,11.0,88.0
5924,77.0,60,30,11.0,113.0
5925,70.0,60,30,11.0,98.0
5926,69.0,60,30,11.0,98.0
5927,75.0,60,30,11.0,98.0
5928,73.0,60,60,11.0,113.0
5929,73.0,150,15,11.0,98.0
5930,72.0,30,15,11.0,98.0
5931,68.0,30,15,11.0,98.0
5932,67.0,30,15,11.0,113.0
5933,70.0,30,15,11.0,98.0
5934,68.0,30,15,11.0,98.0
5935,65.0,30,15,11.0,98.0
5936,64.0,30,15,11.0,113.0
5937,67.0,30,15,11.0,98.0
5938,65.0,30,15,11.0,98.0
5939,61.0,30,15,11.0,98.0
5940,60.0,30,30,11.0,113.0
5941,44.0,6,30,13.0,90.0
5942,48.0,60,30,13.0,90.0
5943,53.0,60,30,13.0,90.0
5944,72.0,54,30,11.0,98.0
5945,56.0,6,30,13.0,90.0
5946,60.0,6,30,13.0,103.0
5947,53.0,60,30,13.0,90.0
5948,68.0,54,120,11.0,113.0
5949,52.0,6,30,13.0,90.0
5950,67.0,54,52,11.0,98.0
5951,72.0,54,30,11.0,98.0
5952,58.0,6,30,13.0,90.0
5953,57.0,6,30,13.0,103.0
5954,66.0,54,120,11.0,113.0
5955,54.0,36,15,13.0,90.0
5956,65.0,114,52,11.0,98.0
5957,53.0,6,15,13.0,90.0
5958,49.0,30,15,13.0,90.0
5959,70.0,24,81,11.0,113.0
5960,48.0,30,15,13.0,103.0
5961,51.0,6,15,13.0,90.0
5962,49.0,30,15,13.0,90.0
5963,68.0,24,51,11.0,98.0
5964,46.0,6,15,13.0,90.0
5965,44.0,30,15,13.0,103.0
5966,66.0,24,51,11.0,98.0
5967,48.0,6,15,13.0,90.0
5968,46.0,30,15,13.0,90.0
5969,65.0,24,51,11.0,98.0
5970,43.0,6,15,13.0,90.0
5971,41.0,30,30,13.0,103.0
5972,63.0,24,90,11.0,98.0
5973,45.0,6,30,13.0,90.0
5974,65.0,54,60,11.0,98.0
5975,48.0,59,30,12.0,90.0
5976,48.0,1,30,13.0,90.0
5977,57.0,5,30,12.0,90.0
5978,78.0,54,82,11.0,114.0
5979,49.0,1,30,13.0,103.0
5980,37.0,5,30,14.0,103.0
5981,77.0,19,15,11.0,98.0
5982,58.0,60,52,12.0,103.0
5983,75.0,30,15,11.0,98.0
5984,53.0,1,30,13.0,90.0
5985,41.0,5,30,14.0,90.0
5986,72.0,19,15,11.0,98.0
5987,66.0,5,82,12.0,103.0
5988,73.0,30,30,11.0,98.0
5989,58.0,6,30,13.0,90.0
5990,46.0,5,30,14.0,90.0
5991,65.0,24,15,12.0,90.0
5992,61.0,5,15,12.0,90.0
5993,77.0,25,30,11.0,98.0
5994,61.0,1,30,13.0,90.0
5995,49.0,5,30,14.0,90.0
5996,60.0,24,15,12.0,90.0
5997,58.0,5,30,12.0,103.0
5998,65.0,1,30,13.0,103.0
5999,53.0,5,30,14.0,103.0
6000,61.0,54,30,12.0,90.0
6001,58.0,1,30,13.0,90.0
6002,46.0,5,30,14.0,90.0
6003,73.0,25,120,11.0,113.0
6004,65.0,5,30,12.0,90.0
6005,57.0,1,30,13.0,90.0
6006,45.0,5,30,14.0,90.0
6007,72.0,49,52,11.0,98.0
6008,77.0,49,30,11.0,98.0
6009,63.0,6,30,13.0,90.0
6010,51.0,5,30,14.0,90.0
6011,53.0,5,30,12.0,90.0
6012,61.0,1,30,13.0,103.0
6013,49.0,5,30,14.0,103.0
6014,72.0,49,120,11.0,113.0
6015,61.0,36,15,13.0,90.0
6016,70.0,55,52,11.0,98.0
6017,49.0,5,15,14.0,90.0
6018,58.0,54,112,12.0,103.0
6019,60.0,5,10,12.0,103.0
6020,60.0,1,15,13.0,90.0
6021,61.0,4,10,12.0,103.0
6022,48.0,5,15,14.0,90.0
6023,68.0,19,30,11.0,98.0
6024,60.0,10,10,12.0,103.0
6025,58.0,5,15,12.0,103.0
6026,56.0,1,15,13.0,90.0
6027,44.0,5,15,14.0,90.0
6028,60.0,9,15,12.0,114.0
6029,77.0,5,51,11.0,113.0
6030,55.0,1,15,13.0,103.0
6031,43.0,5,15,14.0,103.0
6032,61.0,15,30,12.0,103.0
6033,58.0,6,15,13.0,90.0
6034,46.0,5,15,14.0,90.0
6035,56.0,1,15,13.0,90.0
6036,75.0,19,51,11.0,98.0
6037,44.0,5,15,14.0,90.0
6038,65.0,24,30,12.0,90.0
6039,53.0,6,15,13.0,90.0
6040,41.0,5,15,14.0,90.0
6041,73.0,19,51,11.0,98.0
6042,51.0,1,15,13.0,103.0
6043,39.0,5,15,14.0,103.0
6044,55.0,6,15,13.0,90.0
6045,43.0,5,15,14.0,90.0
6046,72.0,19,51,11.0,98.0
6047,53.0,25,15,13.0,90.0
6048,41.0,5,15,14.0,90.0
6049,67.0,24,82,12.0,90.0
6050,65.0,5,15,12.0,103.0
6051,49.0,1,15,13.0,90.0
6052,37.0,5,15,14.0,90.0
6053,48.0,1,30,13.0,103.0
6054,36.0,5,30,14.0,103.0
6055,71.0,19,90,11.0,113.0
6056,65.0,24,82,12.0,103.0
6057,55.0,6,30,13.0,90.0
6058,43.0,5,30,14.0,90.0
6059,64.0,24,22,12.0,90.0
6060,72.0,49,60,11.0,98.0
6061,67.0,30,30,12.0,103.0
6062,60.0,1,30,13.0,90.0
6063,48.0,5,30,14.0,90.0
6064,70.0,24,30,12.0,90.0
6065,68.0,5,30,12.0,90.0
6066,64.0,1,30,13.0,90.0
6067,52.0,5,30,14.0,90.0
6068,67.0,24,25,12.0,90.0
6069,72.0,25,75,11.0,103.0
6070,68.0,23,30,10.0,116.0
6071,65.0,1,30,13.0,103.0
6072,53.0,5,30,14.0,103.0
6073,74.0,19,15,11.0,100.0
6074,68.0,7,60,12.0,103.0
6075,76.0,2,15,11.0,100.0
6076,72.0,28,30,10.0,110.0
6077,56.0,6,30,13.0,100.0
6078,77.0,24,15,11.0,100.0
6079,79.0,2,15,11.0,100.0
6080,77.0,28,30,10.0,110.0
6081,60.0,6,30,13.0,100.0
6082,80.0,24,15,11.0,100.0
6083,80.0,28,30,10.0,110.0
6084,53.0,6,30,13.0,100.0
6085,84.0,52,30,10.0,126.0
6086,52.0,8,52,13.0,115.0
6087,68.0,2,120,11.0,100.0
6088,77.0,52,30,10.0,110.0
6089,67.0,2,60,11.0,100.0
6090,76.0,52,30,10.0,110.0
6091,49.0,6,82,13.0,115.0
6092,48.0,38,15,13.0,100.0
6093,52.0,6,15,13.0,100.0
6094,82.0,22,30,10.0,110.0
6095,55.0,30,15,13.0,100.0
6096,56.0,7,15,12.0,110.0
6097,80.0,22,30,10.0,126.0
6098,56.0,1,30,13.0,115.0
6099,48.0,5,30,14.0,115.0
6100,60.0,24,15,12.0,110.0
6101,67.0,2,120,11.0,100.0
6102,65.0,5,15,12.0,110.0
6103,68.0,24,15,12.0,110.0
6104,65.0,25,52,11.0,100.0
6105,72.0,5,15,12.0,126.0
6106,68.0,25,30,11.0,100.0
6107,80.0,23,15,10.0,110.0
6108,65.0,7,15,12.0,110.0
6109,41.0,1,112,13.0,100.0
6110,41.0,5,112,14.0,100.0
6111,79.0,23,15,10.0,110.0
6112,43.0,1,10,13.0,115.0
6113,64.0,5,15,12.0,110.0
6114,43.0,5,10,14.0,115.0
6115,44.0,5,10,13.0,115.0
6116,70.0,2,30,11.0,100.0
6117,44.0,5,10,14.0,115.0
6118,43.0,5,10,13.0,115.0
6119,43.0,3,10,14.0,115.0
6120,73.0,2,15,10.0,110.0
6121,70.0,4,15,12.0,110.0
6122,41.0,1,15,13.0,115.0
6123,44.0,5,10,14.0,115.0
6124,43.0,10,10,14.0,115.0
6125,43.0,0,15,13.0,115.0
6126,44.0,1,10,14.0,115.0
6127,72.0,7,15,10.0,126.0
6128,72.0,2,30,11.0,115.0
6129,44.0,1,30,13.0,115.0
6130,44.0,5,30,14.0,115.0
6131,77.0,17,15,10.0,110.0
6132,68.0,4,52,12.0,100.0
6133,73.0,30,15,10.0,110.0
6134,73.0,2,30,11.0,100.0
6135,55.0,5,30,12.0,100.0
6136,46.0,1,30,13.0,100.0
6137,46.0,5,30,14.0,100.0
6138,70.0,17,15,10.0,110.0
6139,68.0,30,15,10.0,126.0
6140,77.0,2,30,11.0,100.0
6141,56.0,5,30,12.0,100.0
6142,72.0,17,15,10.0,110.0
6143,70.0,30,15,10.0,110.0
6144,76.0,2,30,11.0,100.0
6145,67.0,23,15,10.0,110.0
6146,48.0,1,112,13.0,127.0
6147,48.0,5,112,14.0,127.0
6148,77.0,2,15,11.0,115.0
6149,65.0,30,30,10.0,126.0
6150,41.0,4,30,5.0,100.0
6151,53.0,0,30,5.0,100.0
6152,45.0,2,30,13.0,115.0
6153,33.0,5,30,14.0,115.0
6154,75.0,19,15,11.0,100.0
6155,60.0,5,112,12.0,115.0
6156,73.0,30,15,11.0,100.0
6157,61.0,1,30,12.0,100.0
6158,46.0,1,30,13.0,100.0
6159,34.0,5,30,14.0,100.0
6160,70.0,19,15,11.0,100.0
6161,69.0,30,15,11.0,115.0
6162,65.0,5,30,12.0,100.0
6163,72.0,19,15,11.0,100.0
6164,41.0,4,112,5.0,115.0
6165,53.0,0,112,5.0,115.0
6166,70.0,30,15,11.0,100.0
6167,53.0,4,30,5.0,100.0
6168,41.0,0,30,5.0,100.0
6169,64.0,1,30,12.0,100.0
6170,67.0,25,15,11.0,100.0
6171,48.0,1,112,13.0,115.0
6172,36.0,5,112,14.0,115.0
6173,77.0,28,15,10.0,126.0
6174,72.0,2,30,11.0,115.0
6175,41.0,0,30,5.0,100.0
6176,53.0,4,30,5.0,100.0
6177,65.0,1,30,12.0,115.0
6178,45.0,1,30,13.0,115.0
6179,33.0,5,30,14.0,115.0
6180,76.0,17,15,10.0,110.0
6181,77.0,30,15,10.0,110.0
6182,69.0,2,30,11.0,100.0
6183,53.0,0,30,5.0,100.0
6184,41.0,4,30,5.0,100.0
6185,53.0,1,30,12.0,100.0
6186,48.0,1,30,13.0,100.0
6187,36.0,5,30,14.0,100.0
6188,75.0,17,15,10.0,110.0
6189,73.0,30,15,10.0,126.0
6190,65.0,2,30,11.0,100.0
6191,57.0,1,30,12.0,100.0
6192,53.0,1,30,13.0,100.0
6193,41.0,5,30,14.0,100.0
6194,72.0,17,15,10.0,110.0
6195,73.0,30,15,10.0,110.0
6196,63.0,2,30,11.0,100.0
6197,65.0,5,30,12.0,100.0
6198,57.0,1,30,13.0,100.0
6199,45.0,5,30,14.0,100.0
6200,72.0,17,15,10.0,110.0
6201,53.0,4,112,5.0,100.0
6202,41.0,0,112,5.0,100.0
6203,78.0,30,15,10.0,126.0
6204,61.0,2,30,11.0,115.0
6205,53.0,4,30,5.0,100.0
6206,65.0,0,30,5.0,100.0
6207,58.0,1,30,12.0,115.0
6208,46.0,1,30,13.0,115.0
6209,34.0,5,30,14.0,115.0
6210,77.0,17,15,10.0,110.0
6211,75.0,30,15,10.0,110.0
6212,65.0,2,15,11.0,100.0
6213,58.0,2,30,13.0,100.0
6214,46.0,5,30,14.0,100.0
6215,73.0,17,15,10.0,110.0
6216,70.0,2,15,11.0,100.0
6217,81.0,28,15,10.0,126.0
6218,63.0,2,30,11.0,100.0
6219,48.0,6,30,13.0,100.0
6220,36.0,5,30,14.0,100.0
6221,78.0,17,15,10.0,110.0
6222,65.0,0,112,5.0,115.0
6223,53.0,4,112,5.0,115.0
6224,77.0,30,15,10.0,110.0
6225,69.0,2,15,11.0,100.0
6226,53.0,4,30,5.0,100.0
6227,65.0,0,30,5.0,100.0
6228,60.0,2,30,13.0,100.0
6229,48.0,5,30,14.0,100.0
6230,75.0,17,15,10.0,110.0
6231,72.0,2,15,11.0,100.0
6232,82.0,28,15,10.0,126.0
6233,70.0,2,30,11.0,115.0
6234,53.0,1,30,12.0,115.0
6235,49.0,1,30,13.0,127.0
6236,37.0,5,30,14.0,115.0
6237,77.0,17,15,10.0,110.0
6238,75.0,30,15,10.0,110.0
6239,69.0,2,15,11.0,100.0
6240,73.0,23,15,10.0,110.0
6241,70.0,2,15,11.0,100.0
6242,73.0,28,15,10.0,126.0
6243,53.0,6,30,13.0,115.0
6244,41.0,5,30,14.0,100.0
6245,72.0,17,15,10.0,110.0
6246,58.0,5,112,12.0,115.0
6247,70.0,30,15,10.0,110.0
6248,60.0,7,10,12.0,115.0
6249,61.0,10,10,12.0,115.0
6250,60.0,10,10,12.0,115.0
6251,69.0,3,15,10.0,110.0
6252,58.0,7,15,12.0,115.0
6253,65.0,2,112,11.0,100.0
6254,60.0,15,15,12.0,115.0
6255,70.0,8,30,10.0,126.0
6256,61.0,5,30,12.0,100.0
6257,58.0,1,30,13.0,127.0
6258,46.0,5,30,14.0,115.0
6259,65.0,2,52,11.0,110.0
6260,65.0,5,30,12.0,100.0
6261,61.0,1,30,13.0,115.0
6262,49.0,5,30,14.0,100.0
6263,70.0,49,112,11.0,127.0
6264,72.0,49,10,11.0,126.0
6265,73.0,10,10,11.0,126.0
6266,72.0,10,10,11.0,126.0
6267,70.0,10,15,11.0,126.0
6268,70.0,60,112,12.0,127.0
6269,72.0,15,15,11.0,126.0
6270,73.0,15,30,11.0,126.0
6271,65.0,6,30,13.0,127.0
6272,53.0,5,30,14.0,115.0
6273,70.0,24,15,12.0,100.0
6274,68.0,5,15,12.0,100.0
6275,77.0,25,30,11.0,110.0
6276,65.0,30,15,12.0,100.0
6277,63.0,5,15,12.0,115.0
6278,58.0,1,30,13.0,115.0
6279,46.0,5,30,14.0,100.0
6280,66.0,24,15,12.0,100.0
6281,65.0,30,15,12.0,100.0
6282,82.0,25,82,11.0,127.0
6283,61.0,5,15,12.0,100.0
6284,77.0,25,22,11.0,110.0
6285,75.0,25,15,11.0,126.0
6286,60.0,5,15,12.0,115.0
6287,57.0,1,30,13.0,127.0
6288,45.0,5,30,14.0,115.0
6289,78.0,19,15,11.0,110.0
6290,63.0,5,15,12.0,100.0
6291,77.0,25,15,11.0,110.0
6292,61.0,5,15,12.0,100.0
6293,75.0,25,15,11.0,110.0
6294,60.0,5,15,12.0,100.0
6295,73.0,25,15,11.0,126.0
6296,58.0,5,15,12.0,115.0
6297,63.0,1,30,13.0,115.0
6298,51.0,5,30,14.0,100.0
6299,72.0,19,15,11.0,110.0
6300,57.0,5,15,12.0,100.0
6301,73.0,25,15,11.0,110.0
6302,58.0,5,15,12.0,100.0
6303,75.0,25,15,11.0,110.0
6304,60.0,5,15,12.0,100.0
6305,61.0,23,15,10.0,100.0
6306,61.0,1,30,13.0,115.0
6307,49.0,5,30,14.0,100.0
6308,65.0,17,15,10.0,110.0
6309,77.0,2,60,11.0,110.0
6310,53.0,0,1020,5.0,100.0
6311,65.0,4,1020,5.0,100.0
6312,58.0,5,60,12.0,100.0
6313,70.0,30,15,10.0,110.0
6314,73.0,30,15,10.0,110.0
6315,77.0,30,15,10.0,110.0
6316,70.0,30,15,10.0,110.0
6317,65.0,0,15,2.0,98.0
6318,70.0,6,15,2.0,98.0
6319,61.0,6,15,3.0,99.0
6320,69.0,18,15,10.0,110.0
6321,65.0,0,15,2.0,98.0
6322,69.0,6,15,2.0,98.0
6323,60.0,6,15,3.0,99.0
6324,75.0,18,15,10.0,110.0
6325,72.0,6,15,2.0,98.0
6326,65.0,0,15,2.0,98.0
6327,57.0,6,15,3.0,99.0
6328,49.0,2,15,13.0,100.0
6329,73.0,18,52,10.0,93.0
6330,53.0,26,15,13.0,110.0
6331,65.0,6,52,2.0,86.0
6332,70.0,0,52,2.0,86.0
6333,58.0,4,52,3.0,87.0
6334,58.0,30,15,13.0,110.0
6335,61.0,30,15,13.0,110.0
6336,65.0,30,15,13.0,110.0
6337,73.0,22,15,10.0,100.0
6338,65.0,2,15,11.0,100.0
6339,65.0,5,15,12.0,100.0
6340,58.0,1,15,13.0,110.0
6341,72.0,22,15,10.0,100.0
6342,65.0,2,15,11.0,100.0
6343,63.0,5,15,12.0,100.0
6344,57.0,1,15,13.0,110.0
6345,69.0,22,15,10.0,100.0
6346,65.0,2,15,11.0,100.0
6347,60.0,5,15,12.0,100.0
6348,63.0,1,15,13.0,110.0
6349,77.0,1,15,0.0,98.0
6350,62.0,1,22,13.0,110.0
6351,82.0,23,15,0.0,98.0
6352,70.0,22,52,10.0,86.0
6353,65.0,1,52,11.0,86.0
6354,58.0,5,52,12.0,86.0
6355,86.0,30,15,0.0,98.0
6356,89.0,30,15,0.0,98.0
6357,92.0,30,15,0.0,98.0
6358,89.0,30,15,0.0,98.0
6359,70.0,3,15,1.0,97.0
6360,77.0,0,15,1.0,97.0
6361,68.0,0,15,2.0,98.0
6362,70.0,2,15,2.0,98.0
6363,87.0,25,15,0.0,98.0
6364,70.0,0,15,1.0,97.0
6365,75.0,3,15,1.0,97.0
6366,66.0,0,15,2.0,98.0
6367,70.0,2,15,2.0,98.0
6368,86.0,25,15,0.0,98.0
6369,70.0,3,15,1.0,97.0
6370,74.0,0,15,1.0,97.0
6371,65.0,2,15,2.0,98.0
6372,70.0,0,15,2.0,98.0
6373,42.0,6,15,3.0,99.0
6374,87.0,25,52,0.0,86.0
6375,75.0,0,52,1.0,85.0
6376,70.0,3,52,1.0,85.0
6377,46.0,30,15,3.0,99.0
6378,70.0,2,52,2.0,86.0
6379,66.0,0,52,2.0,86.0
6380,51.0,30,15,3.0,99.0
6381,54.0,30,15,3.0,99.0
6382,58.0,30,15,3.0,99.0
6383,72.0,18,15,10.0,60.0
6384,63.0,2,15,11.0,72.0
6385,58.0,4,15,5.0,100.0
6386,63.0,1,15,12.0,86.0
6387,54.0,5,15,3.0,99.0
6388,72.0,18,15,10.0,60.0
6389,65.0,2,15,11.0,72.0
6390,58.0,4,15,5.0,100.0
6391,61.0,1,15,12.0,86.0
6392,53.0,5,15,3.0,99.0
6393,72.0,18,15,10.0,60.0
6394,67.0,2,15,11.0,72.0
6395,58.0,4,15,5.0,100.0
6396,60.0,1,15,12.0,86.0
6397,52.0,5,15,3.0,99.0
6398,65.0,1,15,0.0,98.0
6399,70.0,19,15,0.0,98.0
6400,70.0,18,52,10.0,53.0
6401,60.0,0,52,10.0,63.0
6402,65.0,1,52,11.0,63.0
6403,65.0,4,52,5.0,88.0
6404,60.0,1,52,12.0,76.0
6405,53.0,5,52,3.0,87.0
6406,72.0,30,15,0.0,98.0
6407,77.0,30,15,0.0,98.0
6408,60.0,29,15,10.0,72.0
6409,70.0,0,15,10.0,60.0
6410,65.0,2,15,11.0,72.0
6411,65.0,4,15,5.0,100.0
6412,84.0,30,52,0.0,86.0
6413,70.0,0,15,10.0,60.0
6414,60.0,24,15,10.0,72.0
6415,65.0,2,15,11.0,72.0
6416,65.0,4,15,5.0,100.0
6417,60.0,24,15,10.0,72.0
6418,70.0,0,15,10.0,60.0
6419,65.0,2,15,11.0,72.0
6420,65.0,4,15,5.0,100.0
6421,48.0,6,15,3.0,99.0
6422,60.0,24,52,10.0,63.0
6423,69.0,0,52,10.0,53.0
6424,65.0,2,52,11.0,63.0
6425,53.0,30,15,3.0,99.0
6426,65.0,4,52,5.0,88.0
6427,57.0,30,15,3.0,99.0
6428,60.0,30,15,3.0,99.0
6429,60.0,0,15,10.0,72.0
6430,69.0,18,15,10.0,60.0
6431,65.0,2,15,11.0,72.0
6432,60.0,2,15,4.0,100.0
6433,65.0,30,52,3.0,87.0
6434,60.0,0,15,10.0,72.0
6435,69.0,26,15,10.0,60.0
6436,65.0,2,15,11.0,72.0
6437,60.0,2,15,4.0,100.0
6438,60.0,0,15,10.0,72.0
6439,69.0,26,15,10.0,60.0
6440,65.0,2,15,11.0,72.0
6441,60.0,2,15,4.0,100.0
6442,60.0,0,15,1.0,112.0
6443,65.0,30,15,1.0,112.0
6444,60.0,0,52,10.0,63.0
6445,68.0,26,52,10.0,53.0
6446,65.0,2,52,11.0,63.0
6447,60.0,2,52,4.0,88.0
6448,68.0,30,15,1.0,112.0
6449,72.0,30,15,1.0,112.0
6450,60.0,0,15,10.0,72.0
6451,68.0,26,15,10.0,72.0
6452,65.0,2,15,11.0,72.0
6453,60.0,2,15,4.0,100.0
6454,77.0,30,52,1.0,94.0
6455,60.0,26,15,10.0,72.0
6456,68.0,0,15,10.0,72.0
6457,65.0,2,15,11.0,72.0
6458,60.0,2,15,4.0,100.0
6459,68.0,0,15,10.0,72.0
6460,60.0,26,15,10.0,72.0
6461,65.0,2,15,11.0,72.0
6462,60.0,2,15,4.0,100.0
6463,48.0,8,15,3.0,99.0
6464,60.0,0,52,10.0,63.0
6465,67.0,26,52,10.0,63.0
6466,65.0,2,52,11.0,63.0
6467,60.0,2,52,4.0,88.0
6468,53.0,30,15,3.0,99.0
6469,55.0,30,15,3.0,99.0
6470,59.0,30,15,3.0,99.0
6471,67.0,0,15,10.0,72.0
6472,60.0,18,15,10.0,72.0
6473,64.0,2,15,11.0,72.0
6474,60.0,2,15,4.0,100.0
6475,60.0,30,52,3.0,87.0
6476,60.0,26,15,10.0,72.0
6477,67.0,0,15,10.0,72.0
6478,64.0,2,15,11.0,72.0
6479,60.0,2,15,4.0,100.0
6480,60.0,0,15,10.0,72.0
6481,67.0,26,15,10.0,72.0
6482,64.0,2,15,11.0,72.0
6483,60.0,2,15,4.0,100.0
6484,60.0,2,15,2.0,98.0
6485,63.0,23,15,2.0,98.0
6486,60.0,0,52,10.0,76.0
6487,67.0,26,52,10.0,76.0
6488,63.0,2,52,11.0,76.0
6489,60.0,2,52,4.0,88.0
6490,63.0,0,60,12.0,42.0
6491,55.0,1,60,12.0,42.0
6492,43.0,1,60,13.0,42.0
6493,31.0,5,60,14.0,42.0
6494,67.0,30,15,2.0,98.0
6495,72.0,30,15,2.0,98.0
6496,60.0,24,15,10.0,86.0
6497,67.0,0,15,10.0,86.0
6498,63.0,2,15,11.0,86.0
6499,60.0,2,15,4.0,100.0
6500,75.0,30,52,2.0,86.0
6501,60.0,0,15,10.0,86.0
6502,67.0,26,15,10.0,86.0
6503,63.0,2,15,11.0,86.0
6504,60.0,2,15,4.0,100.0
6505,67.0,0,15,10.0,86.0
6506,60.0,26,15,10.0,86.0
6507,63.0,2,15,11.0,86.0
6508,60.0,2,15,4.0,100.0
6509,43.0,4,15,3.0,99.0
6510,67.0,0,52,10.0,76.0
6511,60.0,26,52,10.0,76.0
6512,62.0,2,52,11.0,76.0
6513,60.0,2,52,4.0,88.0
6514,48.0,29,15,3.0,99.0
6515,55.0,3,60,12.0,38.0
6516,62.0,0,60,12.0,38.0
6517,43.0,1,60,13.0,38.0
6518,31.0,1,60,14.0,38.0
6519,50.0,30,15,3.0,99.0
6520,55.0,30,15,3.0,99.0
6521,67.0,1,15,0.0,98.0
6522,71.0,18,15,0.0,98.0
6523,67.0,0,52,10.0,100.0
6524,59.0,18,52,10.0,100.0
6525,62.0,1,52,11.0,100.0
6526,62.0,5,60,12.0,38.0
6527,55.0,0,60,12.0,38.0
6528,43.0,1,60,13.0,38.0
6529,31.0,5,60,14.0,38.0
6530,74.0,30,15,0.0,98.0
6531,79.0,30,15,0.0,98.0
6532,36.0,8,15,13.0,100.0
6533,36.0,5,15,14.0,100.0
6534,60.0,29,52,10.0,100.0
6535,67.0,0,52,10.0,100.0
6536,40.0,25,15,13.0,100.0
6537,40.0,5,15,14.0,100.0
6538,43.0,25,15,13.0,100.0
6539,43.0,5,15,14.0,100.0
6540,48.0,25,15,13.0,100.0
6541,48.0,5,15,14.0,100.0
6542,48.0,24,15,12.0,100.0
6543,52.0,1,30,13.0,100.0
6544,52.0,5,30,14.0,100.0
6545,52.0,24,15,12.0,100.0
6546,55.0,30,15,12.0,100.0
6547,48.0,1,30,13.0,100.0
6548,48.0,5,30,14.0,100.0
6549,60.0,24,15,12.0,100.0
6550,48.0,1,15,13.0,100.0
6551,64.0,30,30,12.0,100.0
6552,60.0,24,15,11.0,100.0
6553,52.0,6,15,13.0,100.0
6554,72.0,22,15,10.0,100.0
6555,72.0,1,15,0.0,98.0
6556,64.0,1,15,11.0,100.0
6557,55.0,1,15,13.0,100.0
6558,60.0,5,30,12.0,100.0
6559,76.0,22,15,10.0,100.0
6560,76.0,1,15,0.0,98.0
6561,67.0,1,15,11.0,100.0
6562,60.0,6,15,13.0,100.0
6563,79.0,22,15,10.0,100.0
6564,79.0,1,15,0.0,98.0
6565,72.0,1,15,11.0,100.0
6566,64.0,6,30,13.0,100.0
6567,84.0,22,15,10.0,100.0
6568,84.0,1,15,0.0,98.0
6569,76.0,1,15,11.0,100.0
6570,88.0,28,30,10.0,100.0
6571,79.0,1,30,11.0,100.0
6572,60.0,6,30,13.0,100.0
6573,88.0,1,60,0.0,98.0
6574,60.0,3,25,8.0,50.0
6575,72.0,52,30,7.0,92.0
6576,69.0,20,25,8.0,48.0
6577,60.0,3,25,8.0,48.0
6578,53.0,30,25,8.0,43.0
6579,60.0,30,25,8.0,50.0
6580,77.0,27,112,7.0,112.0
6581,70.0,30,25,8.0,48.0
6582,79.0,7,10,7.0,73.0
6583,60.0,30,25,8.0,48.0
6584,81.0,10,10,7.0,68.0
6585,79.0,10,10,7.0,68.0
6586,81.0,7,10,7.0,68.0
6587,53.0,3,25,8.0,43.0
6588,79.0,10,10,7.0,68.0
6589,60.0,3,25,8.0,52.0
6590,81.0,10,30,7.0,78.0
6591,72.0,30,25,8.0,48.0
6592,60.0,3,25,8.0,48.0
6593,84.0,27,30,7.0,78.0
6594,53.0,30,25,8.0,43.0
6595,60.0,3,25,8.0,52.0
6596,69.0,30,25,8.0,48.0
6597,60.0,30,25,8.0,48.0
6598,89.0,27,112,7.0,103.0
6599,53.0,30,25,8.0,43.0
6600,60.0,30,25,8.0,52.0
6601,67.0,3,25,8.0,48.0
6602,89.0,27,30,7.0,90.0
6603,60.0,3,25,8.0,48.0
6604,88.0,27,30,7.0,78.0
6605,53.0,3,25,8.0,43.0
6606,84.0,27,30,7.0,78.0
6607,60.0,3,25,8.0,52.0
6608,82.0,27,30,7.0,78.0
6609,65.0,3,25,8.0,48.0
6610,86.0,27,30,7.0,90.0
6611,60.0,3,25,8.0,48.0
6612,82.0,27,30,7.0,78.0
6613,53.0,3,25,8.0,43.0
6614,79.0,27,30,7.0,78.0
6615,60.0,3,25,8.0,52.0
6616,81.0,27,30,7.0,78.0
6617,64.0,3,25,8.0,48.0
6618,84.0,27,30,7.0,90.0
6619,60.0,3,25,8.0,48.0
6620,82.0,27,30,7.0,78.0
6621,53.0,3,25,8.0,43.0
6622,79.0,27,30,7.0,78.0
6623,60.0,3,25,8.0,52.0
6624,81.0,27,30,7.0,78.0
6625,63.0,3,25,8.0,48.0
6626,84.0,27,30,7.0,90.0
6627,60.0,3,25,8.0,48.0
6628,81.0,27,30,7.0,78.0
6629,53.0,3,25,8.0,43.0
6630,62.0,30,25,8.0,52.0
6631,77.0,27,60,7.0,78.0
6632,65.0,30,25,8.0,48.0
6633,62.0,3,25,8.0,48.0
6634,50.0,30,25,8.0,43.0
6635,63.0,30,25,8.0,52.0
6636,82.0,27,112,7.0,103.0
6637,69.0,30,25,8.0,48.0
6638,84.0,7,10,7.0,74.0
6639,63.0,30,25,8.0,48.0
6640,86.0,10,10,7.0,68.0
6641,84.0,10,10,7.0,68.0
6642,86.0,7,10,7.0,68.0
6643,53.0,3,25,8.0,43.0
6644,84.0,10,10,7.0,68.0
6645,58.0,3,25,8.0,52.0
6646,70.0,30,25,8.0,48.0
6647,86.0,10,60,7.0,78.0
6648,58.0,3,25,8.0,48.0
6649,53.0,30,25,8.0,43.0
6650,89.0,27,60,7.0,78.0
6651,61.0,3,25,8.0,52.0
6652,67.0,27,25,8.0,48.0
6653,61.0,30,25,8.0,48.0
6654,76.0,19,120,7.0,78.0
6655,53.0,30,25,8.0,43.0
6656,85.0,8,120,7.0,78.0
6657,94.0,3,120,7.0,78.0
6658,75.0,19,30,7.0,65.0
6659,60.0,3,25,8.0,52.0
6660,84.0,8,30,7.0,68.0
6661,87.0,4,30,7.0,78.0
6662,94.0,23,25,7.0,90.0
6663,65.0,3,25,8.0,48.0
6664,93.0,27,25,7.0,78.0
6665,60.0,3,25,8.0,48.0
6666,87.0,27,25,7.0,78.0
6667,53.0,3,25,8.0,43.0
6668,86.0,27,25,7.0,78.0
6669,59.0,3,25,8.0,52.0
6670,91.0,27,25,7.0,90.0
6671,65.0,3,25,8.0,48.0
6672,89.0,27,25,7.0,78.0
6673,59.0,3,25,8.0,48.0
6674,80.0,27,25,7.0,78.0
6675,53.0,3,25,8.0,43.0
6676,81.0,27,25,7.0,78.0
6677,60.0,3,25,8.0,52.0
6678,89.0,27,25,7.0,90.0
6679,65.0,3,25,8.0,48.0
6680,87.0,27,25,7.0,78.0
6681,60.0,3,25,8.0,48.0
6682,77.0,27,25,7.0,78.0
6683,53.0,3,25,8.0,43.0
6684,80.0,27,25,7.0,78.0
6685,59.0,3,25,8.0,52.0
6686,87.0,27,25,7.0,90.0
6687,65.0,3,25,8.0,48.0
6688,86.0,27,25,7.0,78.0
6689,59.0,3,25,8.0,48.0
6690,74.0,27,25,7.0,78.0
6691,53.0,3,25,8.0,43.0
6692,41.0,5,0,13.0,90.0
6693,29.0,1,0,14.0,90.0
6694,75.0,27,25,7.0,78.0
6695,60.0,2,25,8.0,66.0
6696,82.0,17,25,7.0,90.0
6697,65.0,3,25,8.0,59.0
6698,77.0,1,60,0.0,98.0
6699,53.0,4,60,3.0,99.0
6700,81.0,27,25,7.0,79.0
6701,53.0,2,25,8.0,60.0
6702,72.0,18,25,7.0,81.0
6703,65.0,3,25,8.0,61.0
6704,81.0,1,60,0.0,98.0
6705,57.0,9,60,3.0,99.0
6706,74.0,27,20,7.0,85.0
6707,53.0,2,25,8.0,70.0
6708,75.0,7,20,7.0,82.0
6709,65.0,13,25,8.0,61.0
6710,82.0,7,20,7.0,83.0
6711,84.0,1,60,0.0,98.0
6712,60.0,4,60,3.0,99.0
6713,81.0,20,20,7.0,84.0
6714,53.0,2,25,8.0,62.0
6715,75.0,8,20,7.0,84.0
6716,72.0,7,15,7.0,75.0
6717,65.0,13,25,8.0,59.0
6718,89.0,1,60,0.0,98.0
6719,45.0,5,120,13.0,90.0
6720,65.0,9,60,3.0,99.0
6721,33.0,1,120,14.0,90.0
6722,74.0,20,20,7.0,90.0
6723,54.0,2,25,8.0,73.0
6724,75.0,7,20,7.0,87.0
6725,66.0,13,25,8.0,66.0
6726,82.0,7,20,7.0,87.0
6727,93.0,1,60,0.0,98.0
6728,69.0,4,60,3.0,99.0
6729,81.0,20,20,7.0,88.0
6730,54.0,2,25,8.0,67.0
6731,75.0,8,20,7.0,88.0
6732,72.0,7,15,7.0,78.0
6733,66.0,13,25,8.0,68.0
6734,87.0,1,60,0.0,98.0
6735,48.0,5,120,13.0,90.0
6736,63.0,9,60,3.0,99.0
6737,36.0,1,120,14.0,90.0
6738,74.0,20,20,7.0,94.0
6739,54.0,2,25,8.0,72.0
6740,75.0,7,20,7.0,91.0
6741,66.0,13,25,8.0,70.0
6742,82.0,7,20,7.0,91.0
6743,86.0,1,60,0.0,98.0
6744,62.0,4,60,3.0,99.0
6745,81.0,20,20,7.0,92.0
6746,54.0,2,25,8.0,71.0
6747,75.0,8,20,7.0,93.0
6748,72.0,7,15,7.0,82.0
6749,66.0,13,25,8.0,65.0
6750,84.0,1,60,0.0,98.0
6751,54.0,5,120,13.0,90.0
6752,60.0,9,60,3.0,99.0
6753,42.0,1,120,14.0,90.0
6754,74.0,20,15,7.0,98.0
6755,55.0,1,25,8.0,81.0
6756,79.0,7,15,7.0,95.0
6757,84.0,7,15,7.0,96.0
6758,67.0,13,25,8.0,72.0
6759,70.0,1,60,1.0,97.0
6760,58.0,2,60,2.0,98.0
6761,82.0,20,15,7.0,96.0
6762,55.0,3,25,8.0,73.0
6763,79.0,14,15,7.0,97.0
6764,75.0,7,15,7.0,85.0
6765,67.0,13,25,8.0,74.0
6766,82.0,1,120,0.0,98.0
6767,55.0,1,120,11.0,90.0
6768,74.0,1,60,1.0,97.0
6769,62.0,2,60,2.0,98.0
6770,55.0,1,120,12.0,90.0
6771,43.0,1,120,13.0,90.0
6772,58.0,4,120,3.0,99.0
6773,43.0,1,120,14.0,90.0
6774,74.0,20,15,7.0,102.0
6775,55.0,1,25,8.0,79.0
6776,79.0,12,15,7.0,98.0
6777,84.0,7,15,7.0,99.0
6778,67.0,13,25,8.0,76.0
6779,79.0,1,60,1.0,97.0
6780,67.0,2,60,2.0,98.0
6781,82.0,20,15,7.0,99.0
6782,55.0,3,25,8.0,77.0
6783,79.0,14,15,7.0,100.0
6784,74.0,7,15,7.0,89.0
6785,67.0,13,25,8.0,72.0
6786,58.0,2,120,11.0,90.0
6787,82.0,1,60,1.0,97.0
6788,70.0,2,60,2.0,98.0
6789,46.0,2,120,13.0,90.0
6790,77.0,20,12,7.0,106.0
6791,56.0,1,25,8.0,88.0
6792,83.0,3,12,7.0,102.0
6793,88.0,0,12,7.0,102.0
6794,68.0,17,25,8.0,79.0
6795,86.0,17,12,7.0,103.0
6796,83.0,1,60,1.0,97.0
6797,71.0,2,60,2.0,98.0
6798,83.0,1,12,7.0,104.0
6799,56.0,13,25,8.0,80.0
6800,77.0,17,12,7.0,104.0
6801,74.0,7,12,7.0,92.0
6802,68.0,9,25,8.0,81.0
6803,62.0,2,120,11.0,90.0
6804,77.0,1,60,1.0,97.0
6805,74.0,2,60,2.0,98.0
6806,56.0,1,120,12.0,90.0
6807,77.0,20,8,7.0,110.0
6808,50.0,1,120,13.0,90.0
6809,44.0,5,120,14.0,90.0
6810,83.0,5,8,7.0,106.0
6811,56.0,1,25,8.0,85.0
6812,86.0,13,8,7.0,106.0
6813,91.0,7,8,7.0,106.0
6814,68.0,7,25,8.0,82.0
6815,89.0,13,8,7.0,106.0
6816,76.0,1,60,1.0,97.0
6817,73.0,2,60,2.0,98.0
6818,86.0,1,8,7.0,107.0
6819,83.0,13,8,7.0,107.0
6820,56.0,10,25,8.0,82.0
6821,77.0,13,8,7.0,109.0
6822,74.0,14,8,7.0,97.0
6823,68.0,0,25,8.0,77.0
6824,68.0,2,120,11.0,90.0
6825,74.0,1,60,1.0,97.0
6826,70.0,2,60,2.0,98.0
6827,56.0,2,120,13.0,90.0
6828,73.0,13,15,7.0,127.0
6829,76.0,2,15,7.0,110.0
6830,81.0,15,15,7.0,110.0
6831,86.0,15,15,7.0,110.0
6832,57.0,1,60,8.0,84.0
6833,69.0,0,60,8.0,84.0
6834,85.0,15,15,8.0,118.0
6835,81.0,15,15,8.0,98.0
6836,76.0,15,15,8.0,98.0
6837,61.0,0,120,10.0,79.0
6838,64.0,0,120,10.0,79.0
6839,73.0,15,15,8.0,98.0
6840,69.0,2,120,11.0,79.0
6841,73.0,1,120,1.0,97.0
6842,69.0,2,120,2.0,98.0
6843,57.0,1,120,12.0,79.0
6844,57.0,1,120,13.0,79.0
6845,45.0,5,120,14.0,79.0
6846,69.0,15,15,7.0,127.0
6847,73.0,15,15,7.0,110.0
6848,76.0,15,15,7.0,110.0
6849,82.0,15,15,7.0,110.0
6850,81.0,15,15,8.0,118.0
6851,76.0,15,15,8.0,98.0
6852,73.0,15,15,8.0,98.0
6853,69.0,15,15,8.0,98.0
6854,64.0,15,15,7.0,127.0
6855,69.0,15,15,7.0,110.0
6856,73.0,15,15,7.0,110.0
6857,77.0,15,15,7.0,110.0
6858,76.0,15,15,8.0,118.0
6859,73.0,15,15,8.0,98.0
6860,69.0,15,15,8.0,98.0
6861,64.0,15,15,8.0,98.0
6862,61.0,15,15,7.0,121.0
6863,64.0,15,15,7.0,110.0
6864,69.0,15,15,7.0,110.0
6865,74.0,15,15,7.0,110.0
6866,73.0,15,15,8.0,118.0
6867,69.0,15,15,8.0,98.0
6868,64.0,15,15,8.0,98.0
6869,61.0,15,15,8.0,98.0
6870,57.0,15,15,7.0,116.0
6871,61.0,15,15,7.0,110.0
6872,64.0,15,15,7.0,110.0
6873,70.0,15,15,7.0,110.0
6874,69.0,15,15,8.0,118.0
6875,64.0,15,15,8.0,98.0
6876,61.0,15,15,8.0,98.0
6877,57.0,15,10,8.0,98.0
6878,57.0,15,15,7.0,116.0
6879,61.0,15,15,7.0,110.0
6880,64.0,15,15,7.0,110.0
6881,69.0,15,15,7.0,110.0
6882,68.0,15,15,8.0,118.0
6883,64.0,15,15,8.0,98.0
6884,61.0,15,15,8.0,98.0
6885,57.0,15,11,8.0,98.0
6886,57.0,15,15,7.0,118.0
6887,61.0,15,15,7.0,110.0
6888,64.0,15,15,7.0,110.0
6889,68.0,15,15,7.0,110.0
6890,68.0,15,15,8.0,118.0
6891,64.0,15,15,8.0,98.0
6892,61.0,15,15,8.0,98.0
6893,57.0,15,15,8.0,98.0
6894,57.0,15,15,7.0,127.0
6895,60.0,15,15,7.0,110.0
6896,64.0,15,15,7.0,110.0
6897,67.0,15,15,7.0,110.0
6898,65.0,15,20,8.0,118.0
6899,61.0,20,20,8.0,97.0
6900,58.0,20,20,8.0,95.0
6901,57.0,20,20,7.0,106.0
6902,61.0,20,20,7.0,102.0
6903,65.0,20,20,7.0,100.0
6904,64.0,20,20,8.0,102.0
6905,61.0,20,20,8.0,86.0
6906,58.0,20,20,8.0,85.0
6907,57.0,20,20,7.0,96.0
6908,61.0,20,20,7.0,91.0
6909,65.0,20,20,7.0,89.0
6910,64.0,20,20,8.0,89.0
6911,61.0,20,20,8.0,76.0
6912,58.0,20,20,8.0,75.0
6913,57.0,20,20,7.0,88.0
6914,61.0,20,20,7.0,83.0
6915,65.0,20,20,7.0,83.0
6916,64.0,20,20,8.0,83.0
6917,61.0,20,20,8.0,72.0
6918,58.0,20,20,8.0,71.0
6919,57.0,20,20,7.0,80.0
6920,61.0,20,20,7.0,76.0
6921,65.0,20,20,7.0,76.0
6922,64.0,20,20,8.0,76.0
6923,61.0,20,20,8.0,65.0
6924,58.0,20,20,8.0,63.0
6925,57.0,20,60,7.0,60.0
6926,91.0,60,30,8.0,123.0
6927,79.0,3,30,8.0,123.0
6928,91.0,17,20,7.0,123.0
6929,103.0,20,20,7.0,123.0
6930,88.0,20,30,8.0,123.0
6931,76.0,3,30,8.0,123.0
6932,88.0,17,20,7.0,123.0
6933,100.0,20,20,7.0,123.0
6934,85.0,20,30,8.0,123.0
6935,73.0,3,30,8.0,123.0
6936,85.0,17,20,7.0,123.0
6937,97.0,20,20,7.0,123.0
6938,82.0,20,30,8.0,123.0
6939,70.0,3,30,8.0,123.0
6940,82.0,17,20,7.0,123.0
6941,94.0,20,20,7.0,123.0
6942,79.0,20,30,8.0,123.0
6943,67.0,3,30,8.0,123.0
6944,79.0,17,20,7.0,123.0
6945,91.0,20,20,7.0,123.0
6946,76.0,20,30,8.0,123.0
6947,64.0,3,30,8.0,123.0
6948,76.0,17,20,7.0,123.0
6949,88.0,20,20,7.0,123.0
6950,73.0,20,30,8.0,123.0
6951,61.0,3,30,8.0,123.0
6952,73.0,17,20,7.0,123.0
6953,85.0,20,20,7.0,123.0
6954,70.0,20,30,8.0,123.0
6955,58.0,3,30,8.0,123.0
6956,70.0,17,20,7.0,123.0
6957,82.0,20,20,7.0,123.0
6958,67.0,20,30,8.0,123.0
6959,55.0,3,30,8.0,123.0
6960,67.0,17,20,7.0,123.0
6961,79.0,20,20,7.0,123.0
6962,64.0,20,30,8.0,123.0
6963,52.0,3,30,8.0,123.0
6964,64.0,17,20,7.0,123.0
6965,76.0,20,20,7.0,123.0
6966,61.0,20,30,8.0,123.0
6967,49.0,3,30,8.0,123.0
6968,61.0,17,20,7.0,123.0
6969,73.0,20,20,7.0,123.0
6970,58.0,20,30,8.0,123.0
6971,46.0,3,30,8.0,123.0
6972,58.0,17,20,7.0,122.0
6973,70.0,20,20,7.0,121.0
6974,55.0,20,30,8.0,121.0
6975,43.0,3,30,8.0,121.0
6976,55.0,17,20,7.0,120.0
6977,67.0,20,20,7.0,119.0
6978,52.0,20,30,8.0,118.0
6979,40.0,3,30,8.0,118.0
6980,52.0,17,20,7.0,118.0
6981,64.0,20,20,7.0,117.0
6982,49.0,20,30,8.0,116.0
6983,37.0,3,30,8.0,116.0
6984,49.0,17,20,7.0,115.0
6985,61.0,20,20,7.0,114.0
6986,57.0,20,30,10.0,110.0
6987,57.0,2,30,11.0,110.0
6988,45.0,0,30,8.0,107.0
6989,69.0,0,30,6.0,120.0
6990,57.0,1,30,6.0,120.0
6991,57.0,1,30,4.0,100.0
6992,45.0,0,30,4.0,100.0
6993,69.0,0,30,1.0,97.0
6994,33.0,2,30,8.0,107.0
6995,45.0,5,20,7.0,124.0
6996,57.0,20,20,7.0,124.0
6997,57.0,1,60,12.0,89.0
6998,45.0,1,60,13.0,89.0
6999,33.0,5,60,14.0,89.0
7000,45.0,2,60,15.0,83.0
7001,55.0,1,30,8.0,107.0
7002,43.0,2,30,8.0,107.0
7003,55.0,7,20,7.0,124.0
7004,67.0,20,20,7.0,124.0
7005,58.0,1,60,12.0,89.0
7006,55.0,1,60,13.0,89.0
7007,43.0,5,60,14.0,89.0
7008,53.0,23,30,8.0,107.0
7009,41.0,3,30,8.0,107.0
7010,53.0,7,20,7.0,124.0
7011,62.0,20,105,10.0,126.0
7012,62.0,2,105,11.0,126.0
7013,74.0,1,105,1.0,112.0
7014,65.0,20,20,7.0,124.0
7015,57.0,1,60,12.0,89.0
7016,65.0,20,8,10.0,110.0
7017,53.0,1,60,13.0,89.0
7018,65.0,2,8,11.0,110.0
7019,77.0,1,8,1.0,97.0
7020,41.0,5,60,14.0,89.0
7021,64.0,1,8,10.0,110.0
7022,64.0,1,8,11.0,110.0
7023,76.0,2,8,1.0,97.0
7024,65.0,2,8,10.0,110.0
7025,65.0,2,8,11.0,110.0
7026,77.0,2,8,1.0,97.0
7027,64.0,2,8,10.0,110.0
7028,64.0,2,8,11.0,110.0
7029,52.0,1,30,8.0,107.0
7030,76.0,2,8,1.0,97.0
7031,40.0,2,30,8.0,107.0
7032,52.0,1,20,7.0,124.0
7033,62.0,4,15,10.0,110.0
7034,62.0,2,15,11.0,110.0
7035,74.0,2,15,1.0,97.0
7036,64.0,5,15,10.0,110.0
7037,64.0,6,20,7.0,124.0
7038,64.0,2,15,11.0,110.0
7039,76.0,2,15,1.0,97.0
7040,55.0,0,60,12.0,89.0
7041,52.0,1,60,13.0,89.0
7042,40.0,2,60,14.0,89.0
7043,65.0,11,30,10.0,110.0
7044,65.0,2,30,11.0,110.0
7045,50.0,1,30,8.0,107.0
7046,77.0,1,30,1.0,97.0
7047,38.0,2,30,8.0,107.0
7048,50.0,7,20,7.0,124.0
7049,62.0,20,20,7.0,124.0
7050,53.0,1,60,12.0,89.0
7051,50.0,1,60,13.0,89.0
7052,38.0,5,60,14.0,89.0
7053,69.0,20,30,10.0,110.0
7054,69.0,2,30,11.0,110.0
7055,48.0,1,30,8.0,107.0
7056,81.0,1,30,1.0,97.0
7057,36.0,2,30,8.0,107.0
7058,48.0,7,20,7.0,124.0
7059,60.0,20,20,7.0,124.0
7060,52.0,1,60,12.0,89.0
7061,48.0,1,60,13.0,89.0
7062,36.0,5,60,14.0,89.0
7063,46.0,1,30,8.0,107.0
7064,34.0,2,30,8.0,107.0
7065,46.0,7,20,7.0,124.0
7066,58.0,20,20,7.0,124.0
7067,50.0,1,60,12.0,89.0
7068,46.0,1,60,13.0,89.0
7069,34.0,5,60,14.0,89.0
7070,74.0,20,75,10.0,126.0
7071,74.0,2,75,11.0,126.0
7072,86.0,1,75,1.0,112.0
7073,62.0,23,30,8.0,111.0
7074,50.0,3,30,8.0,111.0
7075,74.0,1,30,12.0,101.0
7076,62.0,1,30,13.0,101.0
7077,62.0,5,20,7.0,124.0
7078,50.0,5,30,14.0,101.0
7079,74.0,10,15,10.0,110.0
7080,86.0,1,15,0.0,98.0
7081,77.0,0,15,0.0,98.0
7082,74.0,1,15,11.0,110.0
7083,74.0,2,15,1.0,97.0
7084,65.0,0,15,1.0,97.0
7085,74.0,6,20,7.0,124.0
7086,50.0,2,60,15.0,62.0
7087,73.0,20,30,10.0,110.0
7088,85.0,1,30,0.0,98.0
7089,76.0,0,30,0.0,98.0
7090,73.0,1,30,11.0,110.0
7091,57.0,1,30,8.0,107.0
7092,64.0,1,30,1.0,97.0
7093,73.0,0,30,1.0,97.0
7094,45.0,2,30,8.0,107.0
7095,69.0,1,30,12.0,89.0
7096,57.0,1,30,13.0,89.0
7097,57.0,5,20,7.0,124.0
7098,45.0,5,30,14.0,89.0
7099,74.0,10,25,10.0,110.0
7100,86.0,0,25,0.0,98.0
7101,77.0,1,25,0.0,98.0
7102,74.0,1,25,11.0,110.0
7103,74.0,2,25,1.0,97.0
7104,65.0,0,25,1.0,97.0
7105,69.0,6,20,7.0,124.0
7106,76.0,20,15,10.0,110.0
7107,45.0,2,60,15.0,62.0
7108,88.0,0,15,0.0,98.0
7109,79.0,1,15,0.0,98.0
7110,76.0,1,15,11.0,110.0
7111,67.0,0,15,1.0,97.0
7112,76.0,0,15,1.0,97.0
7113,74.0,0,30,6.0,120.0
7114,62.0,0,30,6.0,120.0
7115,50.0,1,30,8.0,107.0
7116,62.0,1,30,4.0,100.0
7117,50.0,0,30,4.0,100.0
7118,38.0,2,30,8.0,107.0
7119,62.0,1,30,12.0,89.0
7120,50.0,1,30,13.0,89.0
7121,50.0,7,20,7.0,124.0
7122,38.0,5,30,14.0,89.0
7123,77.0,10,15,10.0,110.0
7124,89.0,1,15,0.0,98.0
7125,81.0,0,15,0.0,98.0
7126,77.0,1,15,11.0,110.0
7127,69.0,2,15,1.0,97.0
7128,77.0,0,15,1.0,97.0
7129,62.0,6,20,7.0,124.0
7130,73.0,20,30,10.0,110.0
7131,76.0,1,30,0.0,98.0
7132,85.0,0,30,0.0,98.0
7133,73.0,1,30,11.0,110.0
7134,69.0,0,30,6.0,120.0
7135,57.0,0,30,6.0,120.0
7136,45.0,1,30,8.0,107.0
7137,64.0,1,30,1.0,97.0
7138,73.0,0,30,1.0,97.0
7139,57.0,0,30,4.0,100.0
7140,33.0,2,30,8.0,107.0
7141,57.0,1,30,12.0,89.0
7142,45.0,1,30,13.0,89.0
7143,45.0,7,20,7.0,124.0
7144,33.0,5,30,14.0,89.0
7145,57.0,20,20,7.0,124.0
7146,62.0,23,30,8.0,111.0
7147,50.0,3,30,8.0,111.0
7148,74.0,1,30,12.0,101.0
7149,62.0,1,30,13.0,101.0
7150,62.0,5,20,7.0,124.0
7151,50.0,5,30,14.0,101.0
7152,74.0,10,15,10.0,110.0
7153,77.0,1,15,0.0,98.0
7154,86.0,0,15,0.0,98.0
7155,74.0,1,15,11.0,110.0
7156,65.0,2,15,1.0,97.0
7157,74.0,0,15,1.0,97.0
7158,74.0,6,20,7.0,124.0
7159,50.0,2,60,15.0,62.0
7160,73.0,20,30,10.0,110.0
7161,76.0,0,30,0.0,98.0
7162,85.0,1,30,0.0,98.0
7163,73.0,1,30,11.0,110.0
7164,57.0,1,30,8.0,107.0
7165,73.0,0,30,1.0,97.0
7166,64.0,1,30,1.0,97.0
7167,45.0,2,30,8.0,107.0
7168,69.0,1,30,12.0,89.0
7169,57.0,1,30,13.0,89.0
7170,57.0,5,20,7.0,124.0
7171,45.0,5,30,14.0,89.0
7172,74.0,10,25,10.0,110.0
7173,86.0,1,25,0.0,98.0
7174,77.0,0,25,0.0,98.0
7175,74.0,1,25,11.0,110.0
7176,74.0,2,25,1.0,97.0
7177,65.0,0,25,1.0,97.0
7178,69.0,6,20,7.0,124.0
7179,45.0,2,60,15.0,62.0
7180,76.0,20,15,10.0,110.0
7181,88.0,1,15,0.0,98.0
7182,79.0,0,15,0.0,98.0
7183,76.0,1,15,11.0,110.0
7184,67.0,0,15,1.0,97.0
7185,76.0,0,15,1.0,97.0
7186,50.0,0,30,8.0,107.0
7187,74.0,1,30,6.0,120.0
7188,62.0,0,30,6.0,120.0
7189,62.0,0,30,4.0,100.0
7190,50.0,1,30,4.0,100.0
7191,38.0,2,30,8.0,107.0
7192,62.0,1,30,12.0,89.0
7193,50.0,1,30,13.0,89.0
7194,50.0,7,20,7.0,124.0
7195,38.0,5,30,14.0,89.0
7196,77.0,10,15,10.0,110.0
7197,81.0,1,15,0.0,98.0
7198,89.0,0,15,0.0,98.0
7199,77.0,1,15,11.0,110.0
7200,77.0,0,15,1.0,97.0
7201,69.0,2,15,1.0,97.0
7202,62.0,6,20,7.0,124.0
7203,73.0,20,30,10.0,110.0
7204,85.0,0,30,0.0,98.0
7205,76.0,1,30,0.0,98.0
7206,73.0,1,30,11.0,110.0
7207,69.0,0,30,6.0,120.0
7208,45.0,1,30,8.0,107.0
7209,57.0,0,30,6.0,120.0
7210,73.0,0,30,1.0,97.0
7211,64.0,0,30,1.0,97.0
7212,57.0,1,30,4.0,100.0
7213,33.0,2,30,8.0,107.0
7214,57.0,1,30,12.0,89.0
7215,45.0,1,30,13.0,89.0
7216,45.0,7,20,7.0,124.0
7217,33.0,5,30,14.0,89.0
7218,57.0,20,20,7.0,124.0
7219,57.0,23,30,8.0,107.0
7220,45.0,3,30,8.0,107.0
7221,69.0,10,10,10.0,110.0
7222,57.0,5,20,7.0,124.0
7223,73.0,1,10,0.0,98.0
7224,69.0,0,10,0.0,98.0
7225,69.0,1,10,11.0,110.0
7226,69.0,2,10,1.0,97.0
7227,45.0,1,0,15.0,72.0
7228,73.0,2,10,2.0,98.0
7229,69.0,0,10,2.0,98.0
7230,71.0,4,10,10.0,110.0
7231,71.0,0,10,0.0,98.0
7232,74.0,1,10,0.0,98.0
7233,71.0,0,10,11.0,110.0
7234,61.0,0,10,3.0,99.0
7235,57.0,1,10,3.0,99.0
7236,71.0,2,10,1.0,97.0
7237,71.0,1,10,2.0,98.0
7238,74.0,0,10,2.0,98.0
7239,69.0,0,20,7.0,124.0
7240,73.0,4,10,10.0,110.0
7241,76.0,1,10,0.0,98.0
7242,73.0,0,10,0.0,98.0
7243,62.0,1,10,3.0,99.0
7244,59.0,0,10,3.0,99.0
7245,73.0,0,10,11.0,110.0
7246,73.0,2,10,1.0,97.0
7247,73.0,0,10,2.0,98.0
7248,76.0,2,10,2.0,98.0
7249,57.0,1,60,12.0,89.0
7250,57.0,1,60,13.0,89.0
7251,64.0,0,10,3.0,99.0
7252,61.0,1,10,3.0,99.0
7253,45.0,5,60,14.0,89.0
7254,74.0,4,30,10.0,110.0
7255,78.0,1,30,0.0,98.0
7256,74.0,0,30,0.0,98.0
7257,74.0,0,30,11.0,110.0
7258,62.0,0,30,8.0,107.0
7259,74.0,0,30,1.0,97.0
7260,50.0,0,30,8.0,107.0
7261,78.0,2,30,2.0,98.0
7262,74.0,0,30,2.0,98.0
7263,62.0,5,20,7.0,124.0
7264,62.0,4,30,3.0,99.0
7265,66.0,0,30,3.0,99.0
7266,74.0,20,20,7.0,124.0
7267,62.0,1,60,6.0,120.0
7268,50.0,1,60,4.0,100.0
7269,66.0,1,60,12.0,89.0
7270,66.0,1,60,13.0,89.0
7271,50.0,1,60,14.0,89.0
7272,50.0,2,60,15.0,87.0
7273,60.0,1,30,8.0,107.0
7274,75.0,2,30,2.0,98.0
7275,48.0,0,30,8.0,107.0
7276,72.0,0,30,2.0,98.0
7277,60.0,7,20,7.0,124.0
7278,63.0,0,30,3.0,99.0
7279,60.0,4,30,3.0,99.0
7280,72.0,20,20,7.0,124.0
7281,75.0,1,60,12.0,89.0
7282,63.0,1,60,13.0,89.0
7283,48.0,1,60,14.0,89.0
7284,58.0,23,30,8.0,107.0
7285,70.0,0,30,2.0,98.0
7286,74.0,3,30,2.0,98.0
7287,46.0,0,30,8.0,107.0
7288,58.0,7,20,7.0,124.0
7289,58.0,4,30,3.0,99.0
7290,62.0,0,30,3.0,99.0
7291,79.0,20,105,10.0,126.0
7292,79.0,1,105,0.0,113.0
7293,79.0,1,105,11.0,126.0
7294,79.0,0,105,1.0,112.0
7295,67.0,1,105,1.0,112.0
7296,70.0,20,20,7.0,124.0
7297,74.0,1,60,12.0,89.0
7298,82.0,20,8,10.0,110.0
7299,62.0,1,60,13.0,89.0
7300,79.0,1,8,0.0,98.0
7301,82.0,0,8,0.0,98.0
7302,79.0,1,8,11.0,110.0
7303,70.0,0,8,1.0,97.0
7304,79.0,1,8,1.0,97.0
7305,46.0,1,60,14.0,89.0
7306,81.0,1,8,10.0,110.0
7307,78.0,0,8,0.0,98.0
7308,81.0,0,8,0.0,98.0
7309,78.0,1,8,11.0,110.0
7310,78.0,2,8,1.0,97.0
7311,69.0,0,8,1.0,97.0
7312,82.0,2,8,10.0,110.0
7313,82.0,0,8,0.0,98.0
7314,79.0,1,8,0.0,98.0
7315,79.0,1,8,11.0,110.0
7316,79.0,2,8,1.0,97.0
7317,70.0,0,8,1.0,97.0
7318,81.0,2,8,10.0,110.0
7319,81.0,1,8,0.0,98.0
7320,78.0,0,8,0.0,98.0
7321,78.0,1,8,11.0,110.0
7322,57.0,1,30,8.0,107.0
7323,78.0,0,8,1.0,97.0
7324,69.0,2,8,1.0,97.0
7325,45.0,2,30,8.0,107.0
7326,72.0,0,30,2.0,98.0
7327,69.0,0,30,2.0,98.0
7328,57.0,1,20,7.0,124.0
7329,60.0,1,30,3.0,99.0
7330,57.0,0,30,3.0,99.0
7331,79.0,4,15,10.0,110.0
7332,76.0,0,15,0.0,98.0
7333,79.0,1,15,0.0,98.0
7334,76.0,1,15,11.0,110.0
7335,76.0,2,15,1.0,97.0
7336,67.0,0,15,1.0,97.0
7337,81.0,5,15,10.0,110.0
7338,69.0,6,20,7.0,124.0
7339,81.0,1,15,0.0,98.0
7340,78.0,0,15,0.0,98.0
7341,78.0,1,15,11.0,110.0
7342,78.0,2,15,1.0,97.0
7343,69.0,0,15,1.0,97.0
7344,72.0,0,60,12.0,89.0
7345,60.0,1,60,13.0,89.0
7346,45.0,1,60,14.0,89.0
7347,82.0,11,30,10.0,110.0
7348,82.0,0,30,0.0,98.0
7349,79.0,1,30,0.0,98.0
7350,79.0,1,30,11.0,110.0
7351,55.0,1,30,8.0,107.0
7352,70.0,0,30,1.0,97.0
7353,79.0,1,30,1.0,97.0
7354,43.0,0,30,8.0,107.0
7355,70.0,2,30,2.0,98.0
7356,67.0,0,30,2.0,98.0
7357,55.0,7,20,7.0,124.0
7358,55.0,0,30,3.0,99.0
7359,58.0,4,30,3.0,99.0
7360,67.0,20,20,7.0,124.0
7361,70.0,1,60,12.0,89.0
7362,58.0,1,60,13.0,89.0
7363,43.0,1,60,14.0,89.0
7364,86.0,20,30,10.0,110.0
7365,86.0,1,30,0.0,98.0
7366,81.0,0,30,0.0,98.0
7367,81.0,1,30,11.0,110.0
7368,53.0,1,30,8.0,107.0
7369,74.0,0,30,1.0,97.0
7370,81.0,1,30,1.0,97.0
7371,41.0,2,30,8.0,107.0
7372,69.0,0,30,2.0,98.0
7373,65.0,0,30,2.0,98.0
7374,53.0,7,20,7.0,124.0
7375,53.0,4,30,3.0,99.0
7376,57.0,0,30,3.0,99.0
7377,65.0,20,20,7.0,124.0
7378,69.0,1,60,12.0,89.0
7379,57.0,1,60,13.0,89.0
7380,41.0,1,60,14.0,89.0
7381,51.0,1,30,8.0,107.0
7382,39.0,2,30,8.0,107.0
7383,63.0,0,30,2.0,98.0
7384,67.0,0,30,2.0,98.0
7385,51.0,7,20,7.0,124.0
7386,55.0,0,30,3.0,99.0
7387,51.0,4,30,3.0,99.0
7388,63.0,20,20,7.0,124.0
7389,67.0,1,0,12.0,89.0
7390,55.0,1,60,13.0,89.0
7391,39.0,1,60,14.0,89.0
7392,91.0,20,85,10.0,126.0
7393,82.0,1,85,0.0,113.0
7394,91.0,0,85,0.0,113.0
7395,79.0,1,85,11.0,126.0
7396,79.0,1,85,1.0,112.0
7397,82.0,0,85,1.0,112.0
7398,50.0,23,30,8.0,107.0
7399,62.0,0,30,2.0,98.0
7400,67.0,0,30,2.0,98.0
7401,38.0,3,30,8.0,107.0
7402,50.0,5,20,7.0,124.0
7403,62.0,0,30,3.0,99.0
7404,50.0,4,30,3.0,99.0
7405,89.0,10,25,10.0,110.0
7406,89.0,1,25,0.0,98.0
7407,86.0,0,25,0.0,98.0
7408,77.0,1,25,11.0,110.0
7409,74.0,2,25,1.0,97.0
7410,62.0,6,20,7.0,124.0
7411,67.0,1,0,12.0,89.0
7412,50.0,1,60,13.0,89.0
7413,38.0,1,60,14.0,89.0
7414,50.0,2,60,15.0,72.0
7415,79.0,1,25,0.0,98.0
7416,88.0,0,25,0.0,98.0
7417,67.0,0,25,1.0,97.0
7418,88.0,20,30,10.0,110.0
7419,76.0,1,30,11.0,110.0
7420,49.0,1,30,8.0,107.0
7421,37.0,0,30,8.0,107.0
7422,64.0,0,30,2.0,98.0
7423,67.0,2,30,2.0,98.0
7424,49.0,5,20,7.0,124.0
7425,49.0,0,30,3.0,99.0
7426,64.0,4,30,3.0,99.0
7427,69.0,2,20,1.0,97.0
7428,89.0,10,25,10.0,110.0
7429,81.0,0,25,0.0,98.0
7430,89.0,1,25,0.0,98.0
7431,77.0,1,25,11.0,110.0
7432,76.0,1,55,1.0,97.0
7433,61.0,6,20,7.0,124.0
7434,57.0,0,60,12.0,89.0
7435,49.0,1,60,13.0,89.0
7436,37.0,1,60,14.0,89.0
7437,91.0,20,15,10.0,110.0
7438,45.0,2,60,15.0,72.0
7439,91.0,0,15,0.0,98.0
7440,83.0,1,15,0.0,98.0
7441,79.0,1,15,11.0,110.0
7442,79.0,1,15,1.0,97.0
7443,71.0,0,15,1.0,97.0
7444,69.0,0,30,6.0,120.0
7445,45.0,1,30,8.0,107.0
7446,57.0,0,30,6.0,120.0
7447,57.0,0,30,4.0,100.0
7448,67.0,2,30,2.0,98.0
7449,33.0,0,30,8.0,107.0
7450,76.0,0,30,2.0,98.0
7451,45.0,7,20,7.0,124.0
7452,57.0,0,30,3.0,99.0
7453,45.0,4,30,3.0,99.0
7454,93.0,10,15,10.0,110.0
7455,93.0,0,15,0.0,98.0
7456,85.0,1,15,0.0,98.0
7457,81.0,1,15,11.0,110.0
7458,73.0,2,15,1.0,97.0
7459,81.0,0,15,1.0,97.0
7460,57.0,6,20,7.0,124.0
7461,69.0,1,60,12.0,89.0
7462,57.0,1,0,12.0,89.0
7463,45.0,1,60,13.0,89.0
7464,33.0,1,60,14.0,89.0
7465,89.0,20,15,10.0,110.0
7466,89.0,1,15,0.0,98.0
7467,86.0,0,15,0.0,98.0
7468,77.0,1,15,11.0,110.0
7469,74.0,0,15,1.0,97.0
7470,77.0,1,15,1.0,97.0
7471,74.0,1,30,6.0,120.0
7472,62.0,0,30,6.0,120.0
7473,50.0,0,30,8.0,107.0
7474,62.0,0,30,4.0,100.0
7475,50.0,0,30,4.0,100.0
7476,65.0,0,30,2.0,98.0
7477,69.0,0,30,2.0,98.0
7478,38.0,2,30,8.0,107.0
7479,50.0,7,20,7.0,124.0
7480,65.0,0,30,3.0,99.0
7481,50.0,4,30,3.0,99.0
7482,62.0,20,20,7.0,124.0
7483,69.0,1,0,12.0,89.0
7484,50.0,1,60,13.0,89.0
7485,38.0,1,60,14.0,89.0
7486,53.0,23,30,8.0,107.0
7487,74.0,0,30,2.0,98.0
7488,69.0,3,30,2.0,98.0
7489,41.0,0,30,8.0,107.0
7490,53.0,5,20,7.0,124.0
7491,53.0,0,30,3.0,99.0
7492,57.0,4,30,3.0,99.0
7493,65.0,6,20,7.0,124.0
7494,86.0,10,30,10.0,110.0
7495,86.0,1,30,0.0,98.0
7496,74.0,1,30,11.0,110.0
7497,74.0,2,30,1.0,97.0
7498,57.0,0,60,12.0,89.0
7499,53.0,1,60,13.0,89.0
7500,41.0,1,60,14.0,89.0
7501,50.0,2,0,15.0,72.0
7502,83.0,0,30,10.0,110.0
7503,52.0,20,30,8.0,123.0
7504,83.0,0,30,0.0,98.0
7505,76.0,1,30,0.0,98.0
7506,71.0,1,30,11.0,110.0
7507,40.0,1,30,8.0,123.0
7508,64.0,0,30,1.0,97.0
7509,71.0,1,30,1.0,97.0
7510,71.0,0,30,2.0,98.0
7511,69.0,2,30,2.0,98.0
7512,52.0,5,20,7.0,121.0
7513,59.0,4,30,3.0,99.0
7514,52.0,0,30,3.0,99.0
7515,85.0,10,25,10.0,110.0
7516,81.0,0,25,0.0,98.0
7517,85.0,1,25,0.0,98.0
7518,73.0,1,25,11.0,110.0
7519,73.0,0,25,1.0,97.0
7520,69.0,2,25,1.0,97.0
7521,64.0,6,20,7.0,120.0
7522,59.0,1,60,12.0,89.0
7523,69.0,0,60,12.0,89.0
7524,52.0,1,60,13.0,89.0
7525,40.0,1,60,14.0,89.0
7526,86.0,20,15,10.0,110.0
7527,83.0,0,15,0.0,98.0
7528,86.0,1,15,0.0,98.0
7529,74.0,1,15,11.0,110.0
7530,74.0,0,15,1.0,97.0
7531,71.0,1,15,1.0,97.0
7532,40.0,0,30,8.0,118.0
7533,28.0,1,30,8.0,118.0
7534,64.0,0,30,4.0,100.0
7535,68.0,0,30,2.0,98.0
7536,71.0,2,30,2.0,98.0
7537,52.0,7,20,7.0,116.0
7538,59.0,4,30,3.0,99.0
7539,52.0,0,30,3.0,99.0
7540,88.0,10,15,10.0,110.0
7541,80.0,0,15,0.0,98.0
7542,88.0,1,15,0.0,98.0
7543,76.0,1,15,11.0,110.0
7544,76.0,0,15,1.0,97.0
7545,68.0,2,15,1.0,97.0
7546,64.0,6,20,7.0,115.0
7547,68.0,0,60,12.0,89.0
7548,59.0,1,60,12.0,89.0
7549,40.0,1,60,13.0,89.0
7550,28.0,1,60,14.0,89.0
7551,85.0,0,15,10.0,110.0
7552,85.0,1,15,0.0,98.0
7553,81.0,0,15,0.0,98.0
7554,73.0,1,15,11.0,110.0
7555,69.0,0,15,1.0,97.0
7556,73.0,0,15,1.0,97.0
7557,45.0,0,30,8.0,113.0
7558,33.0,1,30,8.0,113.0
7559,69.0,0,30,6.0,120.0
7560,57.0,0,30,6.0,120.0
7561,57.0,0,30,4.0,100.0
7562,69.0,1,30,4.0,100.0
7563,69.0,2,30,2.0,98.0
7564,73.0,0,30,2.0,98.0
7565,57.0,0,30,3.0,99.0
7566,61.0,4,30,3.0,99.0
7567,57.0,20,60,7.0,113.0
7568,69.0,0,60,12.0,89.0
7569,57.0,1,60,12.0,89.0
7570,45.0,1,60,13.0,89.0
7571,69.0,45,10,7.0,96.0
7572,33.0,1,60,14.0,89.0
7573,45.0,2,60,15.0,72.0
7574,70.0,10,10,7.0,89.0
7575,69.0,10,10,7.0,89.0
7576,70.0,10,10,7.0,89.0
7577,69.0,10,10,7.0,89.0
7578,70.0,10,10,7.0,89.0
7579,49.0,6,22,8.0,98.0
7580,82.0,9,30,7.0,115.0
7581,79.0,1,30,7.0,106.0
7582,57.0,22,22,8.0,97.0
7583,37.0,7,60,14.0,83.0
7584,50.0,4,22,8.0,96.0
7585,81.0,23,30,7.0,112.0
7586,77.0,4,30,7.0,102.0
7587,57.0,23,22,8.0,92.0
7588,38.0,7,60,14.0,83.0
7589,52.0,4,22,8.0,89.0
7590,79.0,23,30,7.0,110.0
7591,76.0,2,30,7.0,97.0
7592,57.0,23,22,8.0,89.0
7593,40.0,8,60,14.0,83.0
7594,53.0,4,22,8.0,84.0
7595,77.0,23,30,7.0,106.0
7596,74.0,2,30,7.0,92.0
7597,57.0,23,22,8.0,84.0
7598,41.0,8,60,14.0,83.0
7599,55.0,3,22,8.0,83.0
7600,76.0,24,30,7.0,102.0
7601,73.0,1,30,7.0,89.0
7602,57.0,23,22,8.0,81.0
7603,43.0,9,60,14.0,83.0
7604,74.0,5,8,7.0,84.0
7605,76.0,4,8,7.0,78.0
7606,53.0,4,22,8.0,81.0
7607,74.0,6,8,7.0,79.0
7608,73.0,8,15,7.0,78.0
7609,57.0,3,22,8.0,83.0
7610,74.0,13,15,7.0,78.0
7611,41.0,4,60,14.0,83.0
7612,52.0,6,22,8.0,83.0
7613,73.0,11,55,7.0,102.0
7614,64.0,22,22,8.0,84.0
7615,69.0,24,120,7.0,89.0
7616,40.0,9,60,14.0,83.0
7617,57.0,0,22,8.0,84.0
7618,64.0,24,22,8.0,81.0
7619,73.0,8,60,2.0,98.0
7620,69.0,0,60,2.0,98.0
7621,61.0,1,60,12.0,69.0
7622,57.0,1,60,13.0,59.0
7623,57.0,4,60,3.0,99.0
7624,56.0,2,22,8.0,82.0
7625,76.0,23,120,7.0,118.0
7626,64.0,24,22,8.0,82.0
7627,56.0,1,60,13.0,59.0
7628,74.0,3,8,7.0,80.0
7629,76.0,7,8,7.0,76.0
7630,52.0,28,22,8.0,79.0
7631,74.0,7,8,7.0,77.0
7632,73.0,10,15,7.0,76.0
7633,64.0,3,22,8.0,79.0
7634,74.0,12,15,7.0,77.0
7635,71.0,0,120,2.0,98.0
7636,64.0,0,120,2.0,98.0
7637,59.0,1,120,12.0,69.0
7638,52.0,1,60,13.0,59.0
7639,56.0,4,120,3.0,99.0
7640,57.0,7,22,8.0,78.0
7641,73.0,11,55,7.0,97.0
7642,64.0,24,22,8.0,78.0
7643,64.0,28,180,4.0,100.0
7644,73.0,1,60,2.0,98.0
7645,69.0,0,60,2.0,98.0
7646,57.0,1,60,12.0,69.0
7647,57.0,1,60,13.0,59.0
7648,57.0,4,60,3.0,99.0
7649,55.0,5,22,8.0,77.0
7650,64.0,21,22,8.0,77.0
7651,43.0,8,60,14.0,59.0
7652,54.0,30,22,8.0,80.0
7653,64.0,23,22,8.0,78.0
7654,76.0,24,120,7.0,115.0
7655,42.0,9,60,14.0,59.0
7656,74.0,3,8,7.0,75.0
7657,76.0,3,8,7.0,67.0
7658,59.0,28,22,8.0,74.0
7659,74.0,7,8,7.0,68.0
7660,73.0,9,15,7.0,68.0
7661,64.0,3,22,8.0,73.0
7662,76.0,11,15,7.0,67.0
7663,47.0,6,60,14.0,59.0
7664,58.0,5,22,8.0,68.0
7665,73.0,14,55,7.0,88.0
7666,64.0,23,22,8.0,66.0
7667,64.0,0,180,4.0,100.0
7668,46.0,8,60,14.0,83.0
7669,55.0,3,22,8.0,63.0
7670,67.0,24,22,8.0,65.0
7671,73.0,3,60,0.0,98.0
7672,61.0,1,60,11.0,69.0
7673,61.0,2,60,12.0,69.0
7674,55.0,1,60,13.0,59.0
7675,55.0,4,60,3.0,99.0
7676,56.0,2,22,8.0,59.0
7677,68.0,23,22,8.0,57.0
7678,76.0,22,120,7.0,100.0
7679,72.0,25,60,0.0,98.0
7680,60.0,1,60,11.0,69.0
7681,56.0,1,60,13.0,59.0
7682,56.0,4,60,3.0,99.0
7683,75.0,1,8,7.0,70.0
7684,76.0,3,8,7.0,62.0
7685,60.0,4,22,8.0,66.0
7686,75.0,8,8,7.0,61.0
7687,73.0,8,15,7.0,61.0
7688,68.0,3,22,8.0,63.0
7689,75.0,11,15,7.0,59.0
7690,75.0,26,60,0.0,98.0
7691,63.0,1,60,11.0,67.0
7692,65.0,2,120,4.0,100.0
7693,66.0,1,120,12.0,69.0
7694,60.0,1,60,13.0,56.0
7695,60.0,4,60,3.0,99.0
7696,61.0,2,22,8.0,59.0
7697,73.0,15,55,7.0,75.0
7698,68.0,23,22,8.0,59.0
7699,64.0,2,55,4.0,100.0
7700,68.0,1,60,0.0,98.0
7701,64.0,1,60,11.0,66.0
7702,64.0,1,60,12.0,66.0
7703,61.0,1,60,13.0,55.0
7704,61.0,4,60,3.0,99.0
7705,56.0,1,22,8.0,60.0
7706,68.0,23,22,8.0,56.0
7707,44.0,8,60,14.0,55.0
7708,76.0,23,85,7.0,75.0
7709,61.0,30,22,8.0,57.0
7710,68.0,6,22,8.0,57.0
7711,73.0,17,30,7.0,73.0
7712,49.0,1,60,12.0,54.0
7713,49.0,6,60,14.0,54.0
7714,56.0,6,22,8.0,54.0
7715,68.0,27,22,8.0,55.0
7716,56.0,2,60,13.0,53.0
7717,76.0,24,85,7.0,71.0
7718,61.0,2,22,8.0,55.0
7719,68.0,5,22,8.0,56.0
7720,73.0,21,30,7.0,71.0
7721,61.0,27,60,11.0,52.0
7722,61.0,4,60,13.0,52.0
7723,56.0,8,22,8.0,55.0
7724,68.0,21,22,8.0,57.0
7725,44.0,7,60,14.0,52.0
7726,76.0,24,85,7.0,73.0
7727,61.0,32,22,8.0,60.0
7728,68.0,7,22,8.0,53.0
7729,73.0,15,30,7.0,65.0
7730,49.0,1,60,12.0,50.0
7731,49.0,6,60,14.0,50.0
7732,56.0,7,22,8.0,51.0
7733,56.0,2,60,13.0,49.0
7734,76.0,24,80,7.0,71.0
7735,68.0,28,55,8.0,71.0
7736,72.0,16,20,7.0,90.0
7737,76.0,6,20,7.0,82.0
7738,61.0,24,60,11.0,49.0
7739,61.0,14,30,8.0,85.0
7740,68.0,1,60,13.0,49.0
7741,88.0,22,12,7.0,102.0
7742,64.0,2,22,8.0,80.0
7743,72.0,17,20,7.0,99.0
7744,76.0,8,20,7.0,90.0
7745,61.0,14,30,8.0,97.0
7746,88.0,17,12,7.0,110.0
7747,64.0,3,22,8.0,87.0
7748,68.0,19,20,7.0,103.0
7749,73.0,6,20,7.0,89.0
7750,56.0,13,30,8.0,102.0
7751,85.0,19,12,7.0,110.0
7752,61.0,4,22,8.0,89.0
7753,68.0,16,20,7.0,102.0
7754,73.0,8,20,7.0,90.0
7755,56.0,15,30,8.0,103.0
7756,85.0,17,12,7.0,110.0
7757,61.0,2,22,8.0,91.0
7758,64.0,18,20,7.0,104.0
7759,67.0,9,20,7.0,92.0
7760,52.0,13,30,8.0,104.0
7761,80.0,0,12,7.0,111.0
7762,56.0,20,22,8.0,93.0
7763,64.0,18,20,7.0,92.0
7764,67.0,9,20,7.0,91.0
7765,52.0,12,30,8.0,106.0
7766,80.0,19,12,7.0,111.0
7767,56.0,4,22,8.0,92.0
7768,61.0,19,20,7.0,107.0
7769,64.0,8,20,7.0,92.0
7770,49.0,11,30,8.0,106.0
7771,76.0,0,12,7.0,112.0
7772,52.0,21,22,8.0,93.0
7773,61.0,20,20,7.0,107.0
7774,64.0,7,20,7.0,91.0
7775,49.0,12,30,8.0,109.0
7776,76.0,19,12,7.0,111.0
7777,52.0,2,22,8.0,98.0
7778,56.0,20,20,7.0,106.0
7779,61.0,8,20,7.0,95.0
7780,44.0,12,30,8.0,111.0
7781,73.0,20,12,7.0,113.0
7782,49.0,1,22,8.0,98.0
7783,57.0,18,20,7.0,115.0
7784,61.0,8,20,7.0,104.0
7785,45.0,11,30,8.0,119.0
7786,73.0,1,12,7.0,112.0
7787,49.0,21,22,8.0,100.0
7788,56.0,18,20,7.0,106.0
7789,44.0,11,30,8.0,111.0
7790,61.0,10,20,7.0,94.0
7791,73.0,18,12,7.0,115.0
7792,49.0,4,22,8.0,102.0
7793,55.0,17,20,7.0,109.0
7794,43.0,11,30,8.0,113.0
7795,61.0,10,20,7.0,96.0
7796,73.0,21,12,7.0,114.0
7797,49.0,1,22,8.0,102.0
7798,56.0,17,20,7.0,109.0
7799,44.0,11,30,8.0,115.0
7800,61.0,10,20,7.0,96.0
7801,73.0,19,12,7.0,115.0
7802,49.0,4,22,8.0,102.0
7803,57.0,17,20,7.0,116.0
7804,45.0,10,30,8.0,122.0
7805,61.0,10,20,7.0,107.0
7806,73.0,20,12,7.0,115.0
7807,49.0,3,22,8.0,104.0
7808,56.0,17,20,7.0,110.0
7809,61.0,8,20,7.0,96.0
7810,44.0,10,30,8.0,115.0
7811,73.0,21,12,7.0,116.0
7812,49.0,2,22,8.0,109.0
7813,55.0,19,20,7.0,111.0
7814,61.0,10,20,7.0,98.0
7815,43.0,11,30,8.0,117.0
7816,73.0,17,12,7.0,115.0
7817,49.0,5,22,8.0,110.0
7818,56.0,16,20,7.0,110.0
7819,61.0,8,20,7.0,99.0
7820,44.0,13,30,8.0,119.0
7821,73.0,18,12,7.0,116.0
7822,49.0,4,22,8.0,110.0
7823,57.0,16,20,7.0,118.0
7824,61.0,9,20,7.0,110.0
7825,45.0,13,30,8.0,127.0
7826,64.0,6,1500,4.0,100.0
7827,73.0,19,12,7.0,115.0
7828,49.0,3,22,8.0,111.0
7829,61.0,16,20,7.0,112.0
7830,64.0,7,20,7.0,102.0
7831,49.0,10,30,8.0,120.0
7832,76.0,23,12,7.0,116.0
7833,52.0,1,22,8.0,111.0
7834,64.0,16,20,7.0,112.0
7835,67.0,9,20,7.0,99.0
7836,52.0,14,30,8.0,123.0
7837,79.0,17,12,7.0,117.0
7838,55.0,3,22,8.0,113.0
7839,67.0,19,20,7.0,112.0
7840,73.0,9,20,7.0,100.0
7841,55.0,10,30,8.0,123.0
7842,85.0,21,12,7.0,118.0
7843,61.0,2,22,8.0,115.0
7844,73.0,18,20,7.0,113.0
7845,76.0,6,20,7.0,102.0
7846,61.0,12,30,8.0,123.0
7847,88.0,1,12,7.0,117.0
7848,64.0,22,22,8.0,115.0
7849,76.0,19,20,7.0,113.0
7850,79.0,9,20,7.0,102.0
7851,64.0,10,30,8.0,125.0
7852,91.0,1,12,7.0,121.0
7853,67.0,21,22,8.0,117.0
7854,79.0,19,20,7.0,115.0
7855,85.0,6,20,7.0,105.0
7856,67.0,13,30,8.0,127.0
7857,97.0,22,12,7.0,121.0
7858,73.0,2,22,8.0,119.0
7859,85.0,16,20,7.0,116.0
7860,88.0,9,20,7.0,107.0
7861,73.0,13,30,8.0,127.0
7862,100.0,19,12,7.0,116.0
7863,76.0,2,22,8.0,121.0
7864,88.0,16,20,7.0,119.0
7865,76.0,12,30,8.0,127.0
7866,91.0,11,20,7.0,110.0
7867,103.0,19,20,7.0,124.0
7868,79.0,4,20,8.0,124.0
7869,101.0,14,20,7.0,124.0
7870,77.0,4,20,8.0,124.0
7871,100.0,18,20,7.0,123.0
7872,76.0,4,20,8.0,124.0
7873,98.0,16,20,7.0,123.0
7874,74.0,2,20,8.0,124.0
7875,97.0,19,20,7.0,124.0
7876,73.0,4,20,8.0,123.0
7877,94.0,15,20,7.0,123.0
7878,70.0,3,20,8.0,123.0
7879,93.0,18,20,7.0,123.0
7880,69.0,4,20,8.0,124.0
7881,91.0,13,20,7.0,124.0
7882,67.0,5,20,8.0,124.0
7883,89.0,16,20,7.0,124.0
7884,65.0,4,20,8.0,124.0
7885,88.0,16,20,7.0,123.0
7886,64.0,3,20,8.0,123.0
7887,86.0,16,20,7.0,124.0
7888,62.0,4,20,8.0,124.0
7889,85.0,19,20,7.0,124.0
7890,61.0,4,20,8.0,123.0
7891,82.0,15,18,7.0,124.0
7892,58.0,5,18,8.0,123.0
7893,81.0,11,18,7.0,123.0
7894,57.0,3,18,8.0,124.0
7895,79.0,14,18,7.0,123.0
7896,55.0,4,18,8.0,124.0
7897,77.0,17,18,7.0,124.0
7898,53.0,4,18,8.0,124.0
7899,76.0,11,18,7.0,123.0
7900,52.0,4,18,8.0,123.0
7901,74.0,16,18,7.0,123.0
7902,50.0,2,18,8.0,124.0
7903,73.0,13,18,7.0,123.0
7904,49.0,4,18,8.0,123.0
7905,70.0,13,15,7.0,124.0
7906,46.0,2,15,8.0,124.0
7907,69.0,12,15,7.0,123.0
7908,45.0,2,15,8.0,123.0
7909,67.0,12,15,7.0,123.0
7910,43.0,3,15,8.0,123.0
7911,65.0,13,15,7.0,123.0
7912,41.0,2,15,8.0,124.0
7913,64.0,12,15,7.0,123.0
7914,40.0,6,15,8.0,124.0
7915,62.0,10,15,7.0,124.0
7916,38.0,2,15,8.0,124.0
7917,61.0,13,15,7.0,123.0
7918,37.0,4,15,8.0,124.0
7919,58.0,11,15,7.0,124.0
7920,57.0,3,960,4.0,100.0
7921,64.0,0,960,4.0,100.0
7922,34.0,5,15,8.0,123.0
7923,57.0,3,20,12.0,100.0
7924,57.0,1,20,13.0,100.0
7925,57.0,1,30,10.0,100.0
7926,57.0,2,30,11.0,100.0
7927,57.0,1,30,6.0,127.0
7928,45.0,5,20,14.0,100.0
7929,55.0,22,20,12.0,100.0
7930,55.0,1,20,13.0,100.0
7931,57.0,10,60,7.0,127.0
7932,43.0,5,20,14.0,100.0
7933,33.0,0,60,8.0,127.0
7934,45.0,0,60,4.0,100.0
7935,57.0,1,60,4.0,100.0
7936,45.0,2,60,15.0,115.0
7937,53.0,5,20,12.0,100.0
7938,53.0,1,20,13.0,100.0
7939,41.0,5,20,14.0,100.0
7940,52.0,24,20,12.0,100.0
7941,52.0,1,20,13.0,100.0
7942,40.0,5,20,14.0,100.0
7943,53.0,4,20,12.0,100.0
7944,53.0,1,20,13.0,100.0
7945,41.0,5,20,14.0,100.0
7946,57.0,20,30,6.0,127.0
7947,62.0,17,105,10.0,115.0
7948,62.0,2,105,11.0,115.0
7949,57.0,22,20,12.0,100.0
7950,57.0,1,20,13.0,100.0
7951,45.0,5,20,14.0,100.0
7952,65.0,17,8,10.0,100.0
7953,65.0,2,8,11.0,100.0
7954,64.0,0,8,10.0,100.0
7955,45.0,2,60,15.0,76.0
7956,64.0,1,8,11.0,100.0
7957,65.0,2,8,10.0,100.0
7958,65.0,2,8,11.0,100.0
7959,55.0,4,20,12.0,100.0
7960,55.0,1,20,13.0,100.0
7961,64.0,5,8,10.0,100.0
7962,64.0,2,8,11.0,100.0
7963,43.0,4,20,14.0,100.0
7964,57.0,1,30,6.0,127.0
7965,62.0,6,15,10.0,100.0
7966,62.0,2,15,11.0,100.0
7967,52.0,5,20,12.0,100.0
7968,52.0,1,20,13.0,100.0
7969,64.0,2,15,10.0,100.0
7970,64.0,2,15,11.0,100.0
7971,40.0,5,20,14.0,100.0
7972,45.0,0,60,15.0,76.0
7973,50.0,4,20,12.0,100.0
7974,50.0,1,20,13.0,100.0
7975,65.0,13,30,10.0,100.0
7976,65.0,2,30,11.0,100.0
7977,38.0,5,20,14.0,100.0
7978,57.0,1,30,6.0,127.0
7979,53.0,22,20,12.0,100.0
7980,53.0,1,20,13.0,100.0
7981,41.0,5,20,14.0,100.0
7982,45.0,2,60,15.0,76.0
7983,52.0,4,20,12.0,100.0
7984,52.0,1,20,13.0,100.0
7985,69.0,17,30,10.0,100.0
7986,69.0,2,30,11.0,100.0
7987,40.0,5,20,14.0,100.0
7988,57.0,1,30,6.0,127.0
7989,48.0,22,20,12.0,100.0
7990,48.0,1,20,13.0,100.0
7991,36.0,5,20,14.0,100.0
7992,45.0,2,60,15.0,76.0
7993,58.0,4,20,12.0,100.0
7994,46.0,1,20,13.0,100.0
7995,62.0,1,30,6.0,127.0
7996,34.0,5,20,14.0,100.0
7997,50.0,22,20,12.0,100.0
7998,50.0,1,20,13.0,100.0
7999,38.0,5,20,14.0,100.0
8000,74.0,17,75,10.0,115.0
8001,50.0,2,60,15.0,76.0
8002,74.0,2,75,11.0,115.0
8003,57.0,24,20,12.0,100.0
8004,45.0,1,20,13.0,100.0
8005,33.0,5,20,14.0,100.0
8006,74.0,17,15,10.0,100.0
8007,74.0,2,15,11.0,100.0
8008,50.0,5,20,12.0,100.0
8009,50.0,1,20,13.0,100.0
8010,38.0,5,20,14.0,100.0
8011,55.0,4,20,12.0,100.0
8012,43.0,1,20,13.0,100.0
8013,73.0,17,30,10.0,100.0
8014,73.0,2,30,11.0,100.0
8015,62.0,1,30,6.0,127.0
8016,74.0,15,25,10.0,100.0
8017,74.0,2,25,11.0,100.0
8018,50.0,5,20,12.0,100.0
8019,50.0,1,20,13.0,100.0
8020,31.0,5,50,14.0,100.0
8021,76.0,22,15,10.0,100.0
8022,50.0,2,60,15.0,76.0
8023,76.0,2,15,11.0,100.0
8024,53.0,4,20,12.0,100.0
8025,41.0,1,20,13.0,100.0
8026,62.0,1,30,6.0,127.0
8027,77.0,15,15,10.0,100.0
8028,77.0,2,15,11.0,100.0
8029,50.0,5,20,12.0,100.0
8030,50.0,1,20,13.0,100.0
8031,29.0,5,50,14.0,100.0
8032,50.0,2,60,15.0,76.0
8033,57.0,4,20,12.0,100.0
8034,45.0,1,20,13.0,100.0
8035,73.0,22,30,10.0,100.0
8036,73.0,2,30,11.0,100.0
8037,57.0,1,30,6.0,127.0
8038,57.0,22,20,12.0,100.0
8039,57.0,1,20,13.0,100.0
8040,33.0,5,50,14.0,100.0
8041,45.0,2,60,15.0,76.0
8042,58.0,29,20,12.0,100.0
8043,58.0,1,20,13.0,100.0
8044,74.0,22,15,10.0,100.0
8045,74.0,2,15,11.0,100.0
8046,57.0,5,20,12.0,100.0
8047,57.0,1,20,13.0,100.0
8048,57.0,4,20,12.0,100.0
8049,41.0,1,20,13.0,100.0
8050,73.0,22,30,10.0,100.0
8051,73.0,2,30,11.0,100.0
8052,57.0,1,30,6.0,127.0
8053,69.0,0,30,6.0,127.0
8054,74.0,15,25,10.0,100.0
8055,53.0,5,20,12.0,100.0
8056,74.0,2,25,11.0,100.0
8057,53.0,1,20,13.0,100.0
8058,41.0,5,50,14.0,100.0
8059,50.0,2,0,15.0,76.0
8060,76.0,22,15,10.0,100.0
8061,76.0,2,15,11.0,100.0
8062,57.0,4,20,12.0,100.0
8063,38.0,1,20,13.0,100.0
8064,57.0,0,30,6.0,127.0
8065,69.0,1,30,6.0,127.0
8066,77.0,15,15,10.0,100.0
8067,77.0,2,15,11.0,100.0
8068,50.0,5,20,12.0,100.0
8069,50.0,1,20,13.0,100.0
8070,38.0,5,50,14.0,100.0
8071,57.0,4,20,12.0,100.0
8072,45.0,1,20,13.0,100.0
8073,73.0,22,30,10.0,100.0
8074,73.0,2,30,11.0,100.0
8075,57.0,1,30,6.0,127.0
8076,57.0,22,20,12.0,100.0
8077,57.0,1,20,13.0,100.0
8078,45.0,5,50,14.0,100.0
8079,45.0,2,60,15.0,76.0
8080,67.0,29,20,12.0,100.0
8081,55.0,1,20,13.0,100.0
8082,69.0,19,10,7.0,111.0
8083,57.0,4,10,8.0,111.0
8084,71.0,6,10,7.0,112.0
8085,59.0,5,10,8.0,111.0
8086,52.0,1,20,13.0,100.0
8087,73.0,5,10,7.0,112.0
8088,61.0,6,10,8.0,111.0
8089,62.0,3,15,8.0,111.0
8090,50.0,0,15,8.0,111.0
8091,74.0,3,30,7.0,117.0
8092,66.0,2,30,7.0,111.0
8093,50.0,1,30,4.0,100.0
8094,62.0,0,30,4.0,100.0
8095,48.0,17,15,8.0,110.0
8096,60.0,2,15,8.0,110.0
8097,74.0,1,60,6.0,127.0
8098,62.0,0,60,6.0,127.0
8099,66.0,0,60,12.0,100.0
8100,57.0,3,60,12.0,100.0
8101,50.0,1,60,13.0,100.0
8102,38.0,5,60,14.0,100.0
8103,50.0,2,60,15.0,76.0
8104,58.0,1,15,8.0,111.0
8105,46.0,1,15,8.0,110.0
8106,57.0,28,15,8.0,110.0
8107,45.0,2,15,8.0,111.0
8108,58.0,29,15,8.0,111.0
8109,46.0,1,15,8.0,111.0
8110,50.0,1,30,4.0,100.0
8111,62.0,0,30,4.0,100.0
8112,62.0,28,15,8.0,112.0
8113,50.0,1,15,8.0,110.0
8114,74.0,25,120,7.0,119.0
8115,79.0,0,120,7.0,124.0
8116,67.0,1,120,7.0,117.0
8117,70.0,1,120,7.0,118.0
8118,48.0,1,15,8.0,112.0
8119,60.0,0,15,8.0,112.0
8120,50.0,0,30,4.0,100.0
8121,62.0,2,30,4.0,100.0
8122,45.0,27,15,8.0,112.0
8123,57.0,2,15,8.0,111.0
8124,81.0,26,60,7.0,117.0
8125,69.0,1,60,7.0,111.0
8126,43.0,0,15,8.0,111.0
8127,55.0,2,15,8.0,111.0
8128,82.0,27,30,7.0,117.0
8129,70.0,1,30,7.0,111.0
8130,50.0,1,30,4.0,100.0
8131,62.0,0,30,4.0,100.0
8132,58.0,28,15,8.0,111.0
8133,46.0,2,15,8.0,111.0
8134,74.0,1,120,7.0,111.0
8135,57.0,1,15,8.0,111.0
8136,45.0,1,15,8.0,112.0
8137,86.0,0,30,7.0,116.0
8138,81.0,25,30,7.0,111.0
8139,74.0,2,30,7.0,112.0
8140,62.0,0,30,4.0,100.0
8141,50.0,1,30,4.0,100.0
8142,41.0,28,15,8.0,111.0
8143,53.0,2,15,8.0,111.0
8144,51.0,1,15,8.0,111.0
8145,39.0,1,15,8.0,111.0
8146,67.0,1,30,4.0,100.0
8147,55.0,27,15,8.0,111.0
8148,43.0,2,15,8.0,110.0
8149,50.0,29,15,8.0,111.0
8150,38.0,1,15,8.0,112.0
8151,91.0,23,90,7.0,127.0
8152,79.0,4,90,7.0,127.0
8153,82.0,0,90,7.0,127.0
8154,41.0,0,15,8.0,111.0
8155,53.0,3,15,8.0,112.0
8156,89.0,25,30,7.0,116.0
8157,82.0,0,30,7.0,111.0
8158,77.0,0,30,7.0,111.0
8159,37.0,0,15,8.0,110.0
8160,49.0,1,15,8.0,111.0
8161,88.0,29,30,7.0,116.0
8162,82.0,1,30,7.0,112.0
8163,76.0,1,30,7.0,111.0
8164,69.0,0,30,6.0,120.0
8165,57.0,0,30,6.0,120.0
8166,57.0,1,30,4.0,100.0
8167,40.0,0,15,8.0,110.0
8168,52.0,0,15,8.0,111.0
8169,89.0,14,25,7.0,116.0
8170,77.0,2,25,7.0,112.0
8171,45.0,11,60,15.0,76.0
8172,33.0,1,15,8.0,111.0
8173,45.0,1,15,8.0,111.0
8174,91.0,27,30,7.0,117.0
8175,79.0,2,30,7.0,110.0
8176,57.0,0,30,6.0,120.0
8177,69.0,1,30,6.0,120.0
8178,57.0,1,30,4.0,100.0
8179,49.0,4,15,8.0,111.0
8180,37.0,1,15,8.0,110.0
8181,93.0,12,30,7.0,117.0
8182,81.0,2,1,7.0,127.0
8183,45.0,11,60,15.0,76.0
8184,38.0,0,15,8.0,111.0
8185,62.0,2,30,6.0,120.0
8186,74.0,0,30,6.0,120.0
8187,62.0,1,30,4.0,100.0
8188,50.0,18,15,8.0,111.0
8189,89.0,24,60,7.0,127.0
8190,77.0,2,60,7.0,126.0
8191,50.0,11,60,15.0,76.0
8192,41.0,28,15,8.0,111.0
8193,53.0,1,15,8.0,112.0
8194,86.0,28,30,7.0,116.0
8195,74.0,0,30,7.0,111.0
8196,81.0,1,30,7.0,111.0
8197,40.0,0,15,8.0,112.0
8198,83.0,26,30,7.0,116.0
8199,80.0,4,30,7.0,111.0
8200,71.0,1,30,7.0,112.0
8201,64.0,2,30,4.0,100.0
8202,52.0,3,15,8.0,111.0
8203,85.0,0,25,7.0,117.0
8204,73.0,23,25,7.0,112.0
8205,64.0,0,60,11.0,83.0
8206,52.0,3,0,12.0,83.0
8207,28.0,1,15,8.0,111.0
8208,86.0,24,30,7.0,116.0
8209,74.0,5,30,7.0,111.0
8210,64.0,1,30,4.0,100.0
8211,40.0,3,15,8.0,111.0
8212,76.0,0,30,7.0,112.0
8213,88.0,22,30,7.0,117.0
8214,64.0,0,60,11.0,83.0
8215,73.0,0,30,7.0,127.0
8216,81.0,27,30,7.0,127.0
8217,85.0,0,30,7.0,127.0
8218,69.0,2,30,4.0,100.0
8219,57.0,0,30,4.0,100.0
8220,45.0,0,60,8.0,110.0
8221,33.0,2,60,8.0,112.0
8222,69.0,1,60,11.0,83.0
8223,57.0,0,60,11.0,83.0
8224,57.0,3,60,12.0,83.0
8225,72.0,56,30,6.0,105.0
8226,60.0,1,30,4.0,100.0
8227,60.0,3,30,12.0,100.0
8228,48.0,1,30,13.0,100.0
8229,60.0,0,30,3.0,99.0
8230,48.0,4,30,3.0,99.0
8231,36.0,1,30,14.0,100.0
8232,76.0,17,25,10.0,100.0
8233,84.0,1,25,0.0,98.0
8234,88.0,0,25,0.0,98.0
8235,72.0,1,25,11.0,100.0
8236,76.0,2,25,1.0,97.0
8237,72.0,0,25,1.0,97.0
8238,74.0,26,30,10.0,100.0
8239,86.0,1,30,0.0,98.0
8240,83.0,0,30,0.0,98.0
8241,71.0,1,30,11.0,100.0
8242,74.0,0,30,1.0,97.0
8243,71.0,0,30,1.0,97.0
8244,64.0,3,30,12.0,100.0
8245,52.0,1,30,13.0,100.0
8246,52.0,4,30,3.0,99.0
8247,64.0,0,30,3.0,99.0
8248,40.0,1,30,14.0,100.0
8249,76.0,17,25,10.0,100.0
8250,88.0,0,25,0.0,98.0
8251,84.0,1,25,0.0,98.0
8252,72.0,1,25,11.0,100.0
8253,72.0,0,25,1.0,97.0
8254,76.0,2,25,1.0,97.0
8255,78.0,26,15,10.0,100.0
8256,86.0,0,15,0.0,98.0
8257,90.0,1,15,0.0,98.0
8258,74.0,1,15,11.0,100.0
8259,78.0,2,15,1.0,97.0
8260,74.0,0,15,1.0,97.0
8261,52.0,3,30,12.0,100.0
8262,40.0,1,30,13.0,100.0
8263,52.0,4,30,3.0,99.0
8264,40.0,0,30,3.0,99.0
8265,28.0,1,30,14.0,100.0
8266,80.0,17,15,10.0,100.0
8267,83.0,1,15,0.0,98.0
8268,92.0,0,15,0.0,98.0
8269,71.0,1,15,11.0,100.0
8270,71.0,2,15,1.0,97.0
8271,80.0,0,15,1.0,97.0
8272,57.0,3,30,12.0,100.0
8273,45.0,1,30,13.0,100.0
8274,57.0,0,30,3.0,99.0
8275,45.0,4,30,3.0,99.0
8276,33.0,1,30,14.0,100.0
8277,81.0,26,60,10.0,94.0
8278,93.0,1,60,0.0,98.0
8279,84.0,0,60,0.0,98.0
8280,72.0,1,60,11.0,94.0
8281,76.0,1,180,6.0,120.0
8282,81.0,0,60,1.0,97.0
8283,64.0,1,180,4.0,115.0
8284,72.0,2,60,1.0,97.0
8285,72.0,50,30,6.0,105.0
8286,60.0,1,30,4.0,100.0
8287,60.0,3,30,12.0,100.0
8288,48.0,1,30,13.0,100.0
8289,60.0,4,30,3.0,99.0
8290,48.0,0,30,3.0,99.0
8291,36.0,1,30,14.0,100.0
8292,76.0,17,25,10.0,100.0
8293,84.0,1,25,0.0,98.0
8294,88.0,0,25,0.0,98.0
8295,72.0,1,25,11.0,100.0
8296,76.0,0,25,1.0,97.0
8297,72.0,2,25,1.0,97.0
8298,74.0,26,30,10.0,100.0
8299,86.0,1,30,0.0,98.0
8300,83.0,0,30,0.0,98.0
8301,71.0,1,30,11.0,100.0
8302,74.0,0,30,1.0,97.0
8303,71.0,0,30,1.0,97.0
8304,64.0,3,30,12.0,100.0
8305,52.0,1,30,13.0,100.0
8306,52.0,0,30,3.0,99.0
8307,64.0,4,30,3.0,99.0
8308,40.0,1,30,14.0,100.0
8309,76.0,17,25,10.0,100.0
8310,88.0,0,25,0.0,98.0
8311,84.0,1,25,0.0,98.0
8312,72.0,1,25,11.0,100.0
8313,72.0,0,25,1.0,97.0
8314,76.0,2,25,1.0,97.0
8315,78.0,26,15,10.0,100.0
8316,90.0,0,15,0.0,98.0
8317,86.0,1,15,0.0,98.0
8318,74.0,1,15,11.0,100.0
8319,78.0,2,15,1.0,97.0
8320,74.0,0,15,1.0,97.0
8321,52.0,3,30,12.0,100.0
8322,40.0,1,30,13.0,100.0
8323,52.0,4,30,3.0,99.0
8324,40.0,0,30,3.0,99.0
8325,28.0,1,30,14.0,100.0
8326,80.0,17,15,10.0,100.0
8327,83.0,1,15,0.0,98.0
8328,92.0,0,15,0.0,98.0
8329,71.0,1,15,11.0,100.0
8330,71.0,2,15,1.0,97.0
8331,80.0,0,15,1.0,97.0
8332,57.0,3,30,12.0,100.0
8333,45.0,1,30,13.0,100.0
8334,45.0,0,30,3.0,99.0
8335,57.0,4,30,3.0,99.0
8336,33.0,1,30,14.0,100.0
8337,81.0,26,60,10.0,94.0
8338,93.0,0,60,0.0,98.0
8339,84.0,1,60,0.0,98.0
8340,72.0,1,60,11.0,94.0
8341,76.0,1,180,6.0,120.0
8342,72.0,2,60,1.0,97.0
8343,81.0,0,60,1.0,97.0
8344,64.0,1,180,4.0,115.0
8345,45.0,48,30,8.0,111.0
8346,57.0,1,30,8.0,112.0
8347,57.0,2,30,4.0,100.0
8348,81.0,26,25,7.0,117.0
8349,72.0,1,25,7.0,110.0
8350,79.0,27,30,7.0,116.0
8351,70.0,2,30,7.0,112.0
8352,60.0,0,30,8.0,110.0
8353,48.0,2,30,8.0,111.0
8354,81.0,25,25,7.0,116.0
8355,72.0,2,25,7.0,111.0
8356,74.0,28,15,7.0,111.0
8357,82.0,0,15,7.0,116.0
8358,48.0,3,30,8.0,111.0
8359,36.0,1,30,8.0,112.0
8360,84.0,24,15,7.0,117.0
8361,76.0,5,15,7.0,111.0
8362,53.0,3,30,8.0,112.0
8363,41.0,1,30,8.0,112.0
8364,81.0,27,60,7.0,116.0
8365,77.0,1,60,7.0,112.0
8366,60.0,2,180,4.0,115.0
8367,57.0,57,30,8.0,111.0
8368,45.0,0,30,8.0,111.0
8369,57.0,3,30,4.0,100.0
8370,81.0,25,25,7.0,116.0
8371,72.0,3,25,7.0,111.0
8372,79.0,25,30,7.0,116.0
8373,70.0,2,30,7.0,111.0
8374,60.0,2,30,8.0,111.0
8375,48.0,1,30,8.0,111.0
8376,72.0,25,25,7.0,111.0
8377,81.0,1,25,7.0,117.0
8378,82.0,27,15,7.0,117.0
8379,74.0,2,15,7.0,112.0
8380,48.0,2,30,8.0,111.0
8381,36.0,1,30,8.0,110.0
8382,84.0,28,15,7.0,117.0
8383,76.0,1,15,7.0,112.0
8384,41.0,1,30,8.0,111.0
8385,53.0,2,30,8.0,112.0
8386,81.0,26,60,7.0,116.0
8387,77.0,4,60,7.0,111.0
8388,60.0,2,180,4.0,115.0
8389,65.0,1,30,12.0,100.0
8390,53.0,1,30,13.0,100.0
8391,41.0,5,30,14.0,100.0
8392,80.0,17,25,10.0,100.0
8393,84.0,1,25,0.0,98.0
8394,77.0,1,25,11.0,100.0
8395,65.0,0,25,1.0,97.0
8396,68.0,2,25,1.0,97.0
8397,72.0,2,25,2.0,98.0
8398,53.0,62,55,5.0,100.0
8399,53.0,6,25,3.0,99.0
8400,56.0,0,25,3.0,99.0
8401,79.0,18,30,10.0,100.0
8402,76.0,1,30,11.0,100.0
8403,67.0,2,30,1.0,97.0
8404,64.0,0,30,1.0,97.0
8405,72.0,1,30,12.0,100.0
8406,60.0,1,30,13.0,100.0
8407,55.0,4,30,3.0,99.0
8408,52.0,0,30,3.0,99.0
8409,48.0,1,30,14.0,100.0
8410,80.0,17,25,10.0,100.0
8411,77.0,2,25,11.0,100.0
8412,65.0,0,25,1.0,97.0
8413,68.0,2,25,1.0,97.0
8414,56.0,8,25,3.0,99.0
8415,53.0,0,25,3.0,99.0
8416,82.0,18,15,10.0,100.0
8417,79.0,2,15,11.0,100.0
8418,67.0,2,15,1.0,97.0
8419,70.0,0,15,1.0,97.0
8420,84.0,1,85,0.0,98.0
8421,55.0,4,15,3.0,99.0
8422,58.0,0,15,3.0,99.0
8423,72.0,0,85,2.0,98.0
8424,60.0,3,30,12.0,100.0
8425,48.0,1,30,13.0,100.0
8426,36.0,1,30,14.0,100.0
8427,79.0,17,15,10.0,100.0
8428,76.0,1,15,11.0,100.0
8429,67.0,0,15,1.0,97.0
8430,64.0,2,15,1.0,97.0
8431,84.0,1,25,0.0,98.0
8432,52.0,0,15,3.0,99.0
8433,55.0,6,15,3.0,99.0
8434,72.0,2,25,2.0,98.0
8435,80.0,18,30,10.0,100.0
8436,77.0,1,30,11.0,100.0
8437,68.0,2,30,1.0,97.0
8438,65.0,0,30,1.0,97.0
8439,77.0,1,30,12.0,100.0
8440,65.0,1,30,13.0,100.0
8441,53.0,0,30,3.0,99.0
8442,56.0,4,30,3.0,99.0
8443,53.0,1,30,14.0,100.0
8444,82.0,17,25,10.0,100.0
8445,79.0,2,25,11.0,100.0
8446,67.0,0,25,1.0,97.0
8447,70.0,2,25,1.0,97.0
8448,60.0,2,175,5.0,115.0
8449,55.0,0,25,3.0,99.0
8450,58.0,8,25,3.0,99.0
8451,84.0,18,15,10.0,100.0
8452,80.0,2,15,11.0,100.0
8453,68.0,0,15,1.0,97.0
8454,72.0,2,15,1.0,97.0
8455,84.0,1,85,0.0,98.0
8456,60.0,0,15,3.0,99.0
8457,56.0,4,15,3.0,99.0
8458,72.0,2,85,2.0,98.0
8459,65.0,1,30,12.0,100.0
8460,53.0,1,30,13.0,100.0
8461,41.0,1,30,14.0,100.0
8462,80.0,17,15,10.0,100.0
8463,77.0,1,15,11.0,100.0
8464,65.0,0,15,1.0,97.0
8465,68.0,2,15,1.0,97.0
8466,84.0,1,25,0.0,98.0
8467,53.0,0,15,3.0,99.0
8468,56.0,6,15,3.0,99.0
8469,72.0,2,25,2.0,98.0
8470,60.0,2,55,5.0,100.0
8471,82.0,18,30,10.0,100.0
8472,79.0,1,30,11.0,100.0
8473,70.0,2,30,1.0,97.0
8474,67.0,0,30,1.0,97.0
8475,75.0,1,30,12.0,100.0
8476,63.0,1,30,13.0,100.0
8477,58.0,0,30,3.0,99.0
8478,55.0,4,30,3.0,99.0
8479,51.0,1,30,14.0,100.0
8480,84.0,17,25,10.0,100.0
8481,80.0,2,25,11.0,100.0
8482,72.0,0,25,1.0,97.0
8483,68.0,2,25,1.0,97.0
8484,56.0,8,25,3.0,99.0
8485,60.0,0,25,3.0,99.0
8486,85.0,18,15,10.0,100.0
8487,82.0,2,15,11.0,100.0
8488,70.0,0,15,1.0,97.0
8489,73.0,2,15,1.0,97.0
8490,87.0,1,85,0.0,98.0
8491,61.0,0,15,3.0,99.0
8492,58.0,4,15,3.0,99.0
8493,75.0,2,85,2.0,98.0
8494,63.0,3,30,12.0,100.0
8495,51.0,1,30,13.0,100.0
8496,39.0,1,30,14.0,100.0
8497,82.0,17,15,10.0,100.0
8498,79.0,1,15,11.0,100.0
8499,67.0,0,15,1.0,97.0
8500,70.0,2,15,1.0,97.0
8501,91.0,1,25,0.0,98.0
8502,55.0,0,15,3.0,99.0
8503,58.0,6,15,3.0,99.0
8504,79.0,2,25,2.0,98.0
8505,84.0,18,30,10.0,100.0
8506,80.0,1,30,11.0,100.0
8507,68.0,2,30,1.0,97.0
8508,72.0,0,30,1.0,97.0
8509,68.0,1,30,12.0,100.0
8510,56.0,1,30,13.0,100.0
8511,60.0,4,30,3.0,99.0
8512,56.0,0,30,3.0,99.0
8513,44.0,1,30,14.0,100.0
8514,85.0,17,25,10.0,100.0
8515,82.0,2,25,11.0,100.0
8516,73.0,0,25,1.0,97.0
8517,70.0,2,25,1.0,97.0
8518,63.0,0,175,5.0,115.0
8519,58.0,8,25,3.0,99.0
8520,61.0,0,25,3.0,99.0
8521,87.0,18,15,10.0,100.0
8522,84.0,2,15,11.0,100.0
8523,72.0,0,15,1.0,97.0
8524,75.0,0,15,1.0,97.0
8525,87.0,1,85,0.0,98.0
8526,60.0,4,15,3.0,99.0
8527,63.0,0,15,3.0,99.0
8528,75.0,2,85,2.0,98.0
8529,56.0,3,30,12.0,100.0
8530,44.0,1,30,13.0,100.0
8531,32.0,1,30,14.0,100.0
8532,84.0,17,15,10.0,100.0
8533,80.0,1,15,11.0,100.0
8534,72.0,2,15,1.0,97.0
8535,68.0,0,15,1.0,97.0
8536,91.0,1,25,0.0,98.0
8537,56.0,6,15,3.0,99.0
8538,60.0,0,15,3.0,99.0
8539,72.0,1,55,6.0,120.0
8540,60.0,1,55,4.0,100.0
8541,79.0,2,25,2.0,98.0
8542,71.0,1,10,11.0,100.0
8543,67.0,1,10,12.0,100.0
8544,79.0,0,25,10.0,100.0
8545,91.0,18,25,10.0,100.0
8546,71.0,4,10,11.0,100.0
8547,83.0,1,30,0.0,98.0
8548,67.0,5,10,12.0,100.0
8549,71.0,1,30,1.0,97.0
8550,67.0,0,30,1.0,97.0
8551,55.0,1,30,13.0,100.0
8552,55.0,0,30,3.0,99.0
8553,72.0,1,10,11.0,100.0
8554,59.0,4,30,3.0,99.0
8555,43.0,1,30,14.0,100.0
8556,69.0,3,10,12.0,100.0
8557,84.0,1,22,0.0,98.0
8558,79.0,0,25,10.0,100.0
8559,91.0,8,25,10.0,100.0
8560,72.0,0,22,1.0,97.0
8561,69.0,2,22,1.0,97.0
8562,72.0,5,10,11.0,100.0
8563,69.0,5,10,12.0,100.0
8564,57.0,0,22,3.0,99.0
8565,60.0,5,22,3.0,99.0
8566,74.0,1,10,11.0,100.0
8567,86.0,1,15,0.0,98.0
8568,71.0,3,10,12.0,100.0
8569,71.0,0,15,1.0,97.0
8570,74.0,2,15,1.0,97.0
8571,79.0,0,25,10.0,100.0
8572,91.0,8,25,10.0,100.0
8573,91.0,0,85,0.0,98.0
8574,62.0,4,15,3.0,99.0
8575,59.0,0,15,3.0,99.0
8576,74.0,4,10,11.0,100.0
8577,79.0,2,85,2.0,98.0
8578,71.0,5,10,12.0,100.0
8579,43.0,1,30,13.0,100.0
8580,77.0,1,10,11.0,100.0
8581,31.0,1,30,14.0,100.0
8582,89.0,0,15,0.0,98.0
8583,74.0,1,10,12.0,100.0
8584,77.0,2,15,1.0,97.0
8585,74.0,0,15,1.0,97.0
8586,79.0,8,25,10.0,100.0
8587,91.0,0,25,10.0,100.0
8588,91.0,1,25,0.0,98.0
8589,62.0,0,15,3.0,99.0
8590,77.0,5,10,11.0,100.0
8591,65.0,5,15,3.0,99.0
8592,79.0,2,25,2.0,98.0
8593,74.0,5,10,12.0,100.0
8594,76.0,1,10,11.0,100.0
8595,72.0,1,10,12.0,100.0
8596,91.0,8,25,10.0,100.0
8597,79.0,0,25,10.0,100.0
8598,76.0,4,10,11.0,100.0
8599,88.0,0,30,0.0,98.0
8600,72.0,5,10,12.0,100.0
8601,76.0,0,30,1.0,97.0
8602,72.0,2,30,1.0,97.0
8603,55.0,1,30,13.0,100.0
8604,64.0,0,30,3.0,99.0
8605,74.0,1,10,11.0,100.0
8606,60.0,4,30,3.0,99.0
8607,43.0,1,30,14.0,100.0
8608,71.0,3,10,12.0,100.0
8609,86.0,1,22,0.0,98.0
8610,79.0,0,25,10.0,100.0
8611,91.0,8,25,10.0,100.0
8612,71.0,2,22,1.0,97.0
8613,74.0,0,22,1.0,97.0
8614,74.0,5,10,11.0,100.0
8615,71.0,5,10,12.0,100.0
8616,79.0,1,180,6.0,127.0
8617,59.0,5,22,3.0,99.0
8618,62.0,0,22,3.0,99.0
8619,72.0,1,10,11.0,100.0
8620,84.0,1,15,0.0,98.0
8621,69.0,3,10,12.0,100.0
8622,69.0,2,15,1.0,97.0
8623,72.0,0,15,1.0,97.0
8624,91.0,0,25,10.0,100.0
8625,79.0,8,25,10.0,100.0
8626,91.0,1,85,0.0,98.0
8627,72.0,4,10,11.0,100.0
8628,60.0,4,15,3.0,99.0
8629,57.0,0,15,3.0,99.0
8630,79.0,2,85,2.0,98.0
8631,69.0,5,10,12.0,100.0
8632,43.0,1,30,13.0,100.0
8633,72.0,1,10,11.0,100.0
8634,31.0,1,30,14.0,100.0
8635,84.0,1,15,0.0,98.0
8636,69.0,1,10,12.0,100.0
8637,69.0,2,15,1.0,97.0
8638,72.0,0,15,1.0,97.0
8639,79.0,0,25,10.0,100.0
8640,91.0,8,25,10.0,100.0
8641,91.0,0,25,0.0,98.0
8642,72.0,5,10,11.0,100.0
8643,60.0,0,15,3.0,99.0
8644,57.0,5,15,3.0,99.0
8645,79.0,2,25,2.0,98.0
8646,69.0,5,10,12.0,100.0
8647,74.0,1,10,11.0,100.0
8648,71.0,1,10,12.0,100.0
8649,91.0,8,25,10.0,100.0
8650,79.0,0,25,10.0,100.0
8651,74.0,4,10,11.0,100.0
8652,86.0,0,30,0.0,98.0
8653,71.0,5,10,12.0,100.0
8654,74.0,0,30,1.0,97.0
8655,71.0,2,30,1.0,97.0
8656,55.0,1,30,13.0,100.0
8657,72.0,1,10,11.0,100.0
8658,59.0,4,30,3.0,99.0
8659,62.0,0,30,3.0,99.0
8660,43.0,1,30,14.0,100.0
8661,69.0,3,10,12.0,100.0
8662,84.0,1,22,0.0,98.0
8663,91.0,8,25,10.0,100.0
8664,79.0,0,25,10.0,100.0
8665,69.0,2,22,1.0,97.0
8666,72.0,0,22,1.0,97.0
8667,72.0,5,10,11.0,100.0
8668,69.0,5,10,12.0,100.0
8669,57.0,0,22,3.0,99.0
8670,60.0,5,22,3.0,99.0
8671,71.0,1,10,11.0,100.0
8672,83.0,1,15,0.0,98.0
8673,67.0,3,10,12.0,100.0
8674,71.0,2,15,1.0,97.0
8675,67.0,0,15,1.0,97.0
8676,79.0,0,25,10.0,100.0
8677,91.0,8,25,10.0,100.0
8678,91.0,1,85,0.0,98.0
8679,55.0,4,15,3.0,99.0
8680,59.0,0,15,3.0,99.0
8681,71.0,4,10,11.0,100.0
8682,79.0,2,85,2.0,98.0
8683,67.0,5,10,12.0,100.0
8684,43.0,1,30,13.0,100.0
8685,71.0,1,10,11.0,100.0
8686,31.0,1,30,14.0,100.0
8687,83.0,1,15,0.0,98.0
8688,67.0,1,10,12.0,100.0
8689,71.0,0,15,1.0,97.0
8690,67.0,2,15,1.0,97.0
8691,79.0,8,25,10.0,100.0
8692,91.0,0,25,10.0,100.0
8693,91.0,0,25,0.0,98.0
8694,71.0,5,10,11.0,100.0
8695,59.0,0,15,3.0,99.0
8696,55.0,5,15,3.0,99.0
8697,79.0,2,25,2.0,98.0
8698,67.0,5,10,12.0,100.0
8699,67.0,0,360,4.0,115.0
8700,72.0,1,10,11.0,100.0
8701,69.0,1,10,12.0,100.0
8702,79.0,0,25,10.0,100.0
8703,90.0,8,25,10.0,100.0
8704,72.0,4,10,11.0,100.0
8705,84.0,1,30,0.0,98.0
8706,69.0,5,10,12.0,100.0
8707,69.0,2,30,1.0,97.0
8708,72.0,0,30,1.0,97.0
8709,55.0,1,30,13.0,100.0
8710,60.0,0,30,3.0,99.0
8711,57.0,4,30,3.0,99.0
8712,71.0,1,10,11.0,100.0
8713,43.0,1,30,14.0,100.0
8714,67.0,3,10,12.0,100.0
8715,83.0,1,22,0.0,98.0
8716,90.0,8,25,10.0,100.0
8717,79.0,0,25,10.0,100.0
8718,67.0,2,22,1.0,97.0
8719,71.0,0,22,1.0,97.0
8720,71.0,5,10,11.0,100.0
8721,67.0,5,10,12.0,100.0
8722,55.0,0,22,3.0,99.0
8723,59.0,5,22,3.0,99.0
8724,72.0,1,10,11.0,100.0
8725,84.0,1,15,0.0,98.0
8726,69.0,3,10,12.0,100.0
8727,72.0,1,15,1.0,97.0
8728,69.0,0,15,1.0,97.0
8729,90.0,8,25,10.0,100.0
8730,79.0,0,25,10.0,100.0
8731,90.0,0,85,0.0,98.0
8732,57.0,0,15,3.0,99.0
8733,60.0,4,15,3.0,99.0
8734,72.0,4,10,11.0,100.0
8735,78.0,2,85,2.0,98.0
8736,69.0,5,10,12.0,100.0
8737,43.0,1,30,13.0,100.0
8738,74.0,1,10,11.0,100.0
8739,31.0,1,30,14.0,100.0
8740,86.0,1,15,0.0,98.0
8741,69.0,1,10,12.0,100.0
8742,69.0,2,15,1.0,97.0
8743,74.0,0,15,1.0,97.0
8744,79.0,8,25,10.0,100.0
8745,90.0,0,25,10.0,100.0
8746,90.0,0,25,0.0,98.0
8747,57.0,5,15,3.0,99.0
8748,62.0,0,15,3.0,99.0
8749,74.0,5,10,11.0,100.0
8750,72.0,1,55,6.0,120.0
8751,60.0,0,55,4.0,100.0
8752,78.0,2,25,2.0,98.0
8753,69.0,5,10,12.0,100.0
8754,79.0,0,25,10.0,100.0
8755,91.0,8,25,10.0,100.0
8756,71.0,1,25,11.0,100.0
8757,67.0,1,25,12.0,100.0
8758,55.0,1,30,13.0,100.0
8759,79.0,17,13,10.0,100.0
8760,43.0,1,30,14.0,100.0
8761,67.0,2,13,11.0,100.0
8762,55.0,5,13,12.0,100.0
8763,81.0,5,13,10.0,100.0
8764,69.0,2,13,11.0,100.0
8765,57.0,5,13,12.0,100.0
8766,83.0,6,13,10.0,100.0
8767,71.0,2,13,11.0,100.0
8768,59.0,5,13,12.0,100.0
8769,84.0,5,13,10.0,100.0
8770,72.0,1,13,11.0,100.0
8771,60.0,1,13,12.0,100.0
8772,86.0,6,13,10.0,100.0
8773,74.0,2,13,11.0,100.0
8774,43.0,1,30,13.0,100.0
8775,62.0,5,13,12.0,100.0
8776,31.0,4,30,14.0,100.0
8777,88.0,6,13,10.0,100.0
8778,76.0,2,13,11.0,100.0
8779,89.0,5,8,10.0,100.0
8780,91.0,1,112,0.0,98.0
8781,83.0,0,112,0.0,98.0
8782,64.0,5,13,12.0,100.0
8783,77.0,2,8,11.0,100.0
8784,71.0,0,112,1.0,97.0
8785,67.0,1,112,1.0,97.0
8786,79.0,2,112,2.0,98.0
8787,79.0,1,115,6.0,127.0
8788,67.0,0,115,4.0,115.0
8789,65.0,5,8,12.0,100.0
8790,55.0,0,112,3.0,99.0
8791,59.0,4,112,3.0,99.0
8792,74.0,1,10,11.0,100.0
8793,77.0,0,10,11.0,100.0
8794,65.0,0,10,12.0,100.0
8795,62.0,1,10,12.0,100.0
8796,79.0,8,25,10.0,100.0
8797,91.0,0,25,10.0,100.0
8798,77.0,1,10,11.0,100.0
8799,74.0,0,10,11.0,100.0
8800,89.0,1,30,0.0,98.0
8801,62.0,5,10,12.0,100.0
8802,65.0,0,10,12.0,100.0
8803,77.0,0,30,1.0,97.0
8804,86.0,0,30,1.0,97.0
8805,74.0,2,30,2.0,98.0
8806,77.0,0,30,2.0,98.0
8807,62.0,0,30,5.0,100.0
8808,50.0,3,20,15.0,86.0
8809,65.0,0,30,5.0,100.0
8810,55.0,1,30,13.0,100.0
8811,76.0,0,10,11.0,100.0
8812,65.0,0,30,3.0,99.0
8813,62.0,4,30,3.0,99.0
8814,72.0,1,10,11.0,100.0
8815,43.0,1,30,14.0,100.0
8816,64.0,1,10,12.0,100.0
8817,60.0,0,10,12.0,100.0
8818,88.0,1,22,0.0,98.0
8819,79.0,0,25,10.0,100.0
8820,91.0,8,25,10.0,100.0
8821,50.0,0,20,15.0,80.0
8822,76.0,2,22,1.0,97.0
8823,84.0,0,22,1.0,97.0
8824,72.0,5,10,11.0,100.0
8825,76.0,0,10,11.0,100.0
8826,76.0,0,22,2.0,98.0
8827,72.0,2,22,2.0,98.0
8828,60.0,0,25,5.0,100.0
8829,64.0,0,25,5.0,100.0
8830,60.0,0,10,12.0,100.0
8831,64.0,5,10,12.0,100.0
8832,64.0,5,22,3.0,99.0
8833,60.0,0,22,3.0,99.0
8834,74.0,1,10,11.0,100.0
8835,71.0,0,10,11.0,100.0
8836,86.0,1,15,0.0,98.0
8837,50.0,2,1,15.0,81.0
8838,59.0,0,10,12.0,100.0
8839,62.0,1,10,12.0,100.0
8840,74.0,2,15,1.0,97.0
8841,83.0,0,15,1.0,97.0
8842,71.0,0,15,2.0,98.0
8843,74.0,0,15,2.0,98.0
8844,50.0,2,15,5.0,100.0
8845,62.0,0,15,5.0,100.0
8846,91.0,4,25,10.0,100.0
8847,79.0,0,25,10.0,100.0
8848,91.0,0,85,0.0,98.0
8849,62.0,0,15,3.0,99.0
8850,74.0,2,10,11.0,100.0
8851,71.0,0,10,11.0,100.0
8852,59.0,4,15,3.0,99.0
8853,79.0,1,85,6.0,120.0
8854,67.0,1,85,4.0,100.0
8855,62.0,5,10,12.0,100.0
8856,59.0,0,10,12.0,100.0
8857,43.0,1,30,13.0,100.0
8858,71.0,0,10,11.0,100.0
8859,74.0,1,10,11.0,100.0
8860,31.0,1,30,14.0,100.0
8861,86.0,1,15,0.0,98.0
8862,59.0,1,10,12.0,100.0
8863,62.0,0,10,12.0,100.0
8864,74.0,0,15,1.0,97.0
8865,83.0,0,15,1.0,97.0
8866,74.0,0,15,2.0,98.0
8867,71.0,0,15,2.0,98.0
8868,50.0,0,15,5.0,100.0
8869,62.0,2,15,5.0,100.0
8870,91.0,0,25,10.0,100.0
8871,79.0,8,25,10.0,100.0
8872,50.0,2,2,15.0,81.0
8873,91.0,0,25,0.0,98.0
8874,59.0,5,15,3.0,99.0
8875,62.0,0,15,3.0,99.0
8876,74.0,5,10,11.0,100.0
8877,71.0,0,10,11.0,100.0
8878,79.0,1,25,6.0,120.0
8879,67.0,1,25,4.0,100.0
8880,62.0,0,10,12.0,100.0
8881,59.0,5,10,12.0,100.0
8882,72.0,0,10,11.0,100.0
8883,76.0,1,10,11.0,100.0
8884,64.0,0,10,12.0,100.0
8885,60.0,1,10,12.0,100.0
8886,91.0,0,25,10.0,100.0
8887,79.0,6,25,10.0,100.0
8888,72.0,1,10,11.0,100.0
8889,76.0,0,10,11.0,100.0
8890,88.0,0,30,0.0,98.0
8891,64.0,5,10,12.0,100.0
8892,60.0,0,10,12.0,100.0
8893,84.0,1,30,1.0,97.0
8894,76.0,0,30,1.0,97.0
8895,72.0,0,30,2.0,98.0
8896,60.0,2,30,5.0,100.0
8897,64.0,0,30,5.0,100.0
8898,76.0,0,30,2.0,98.0
8899,50.0,0,0,15.0,81.0
8900,55.0,1,30,13.0,100.0
8901,74.0,1,10,11.0,100.0
8902,71.0,0,10,11.0,100.0
8903,60.0,0,30,3.0,99.0
8904,64.0,4,30,3.0,99.0
8905,43.0,1,30,14.0,100.0
8906,62.0,0,10,12.0,100.0
8907,59.0,1,10,12.0,100.0
8908,86.0,1,22,0.0,98.0
8909,91.0,0,25,10.0,100.0
8910,79.0,8,25,10.0,100.0
8911,74.0,0,22,1.0,97.0
8912,83.0,2,22,1.0,97.0
8913,50.0,3,1,15.0,77.0
8914,71.0,5,10,11.0,100.0
8915,74.0,0,10,11.0,100.0
8916,74.0,0,22,2.0,98.0
8917,71.0,0,22,2.0,98.0
8918,59.0,0,25,5.0,100.0
8919,62.0,2,25,5.0,100.0
8920,62.0,0,10,12.0,100.0
8921,59.0,5,10,12.0,100.0
8922,62.0,5,22,3.0,99.0
8923,59.0,0,22,3.0,99.0
8924,72.0,1,10,11.0,100.0
8925,69.0,0,10,11.0,100.0
8926,50.0,2,0,15.0,77.0
8927,84.0,1,15,0.0,98.0
8928,57.0,1,10,12.0,100.0
8929,60.0,0,10,12.0,100.0
8930,81.0,2,15,1.0,97.0
8931,72.0,0,15,1.0,97.0
8932,69.0,0,15,2.0,98.0
8933,72.0,0,15,2.0,98.0
8934,60.0,2,15,5.0,100.0
8935,79.0,0,25,10.0,100.0
8936,91.0,5,25,10.0,100.0
8937,91.0,1,85,0.0,98.0
8938,60.0,0,15,3.0,99.0
8939,72.0,0,10,11.0,100.0
8940,69.0,2,10,11.0,100.0
8941,57.0,4,15,3.0,99.0
8942,79.0,1,85,6.0,120.0
8943,67.0,0,85,4.0,100.0
8944,60.0,5,10,12.0,100.0
8945,57.0,0,10,12.0,100.0
8946,50.0,0,1,15.0,80.0
8947,43.0,1,30,13.0,100.0
8948,72.0,0,10,11.0,100.0
8949,69.0,1,10,11.0,100.0
8950,31.0,1,30,14.0,100.0
8951,84.0,0,15,0.0,98.0
8952,60.0,0,10,12.0,100.0
8953,57.0,1,10,12.0,100.0
8954,72.0,1,15,1.0,97.0
8955,81.0,0,15,1.0,97.0
8956,72.0,2,15,2.0,98.0
8957,60.0,0,15,5.0,100.0
8958,69.0,0,15,2.0,98.0
8959,91.0,0,25,10.0,100.0
8960,79.0,8,25,10.0,100.0
8961,91.0,1,25,0.0,98.0
8962,60.0,0,15,3.0,99.0
8963,72.0,0,10,11.0,100.0
8964,69.0,5,10,11.0,100.0
8965,57.0,5,15,3.0,99.0
8966,79.0,1,25,6.0,120.0
8967,67.0,0,25,4.0,100.0
8968,60.0,5,10,12.0,100.0
8969,57.0,0,10,12.0,100.0
8970,69.0,0,10,11.0,100.0
8971,72.0,1,10,11.0,100.0
8972,50.0,3,0,15.0,79.0
8973,60.0,1,10,12.0,100.0
8974,57.0,0,10,12.0,100.0
8975,90.0,0,25,10.0,100.0
8976,79.0,4,25,10.0,100.0
8977,69.0,0,10,11.0,98.0
8978,72.0,1,10,11.0,98.0
8979,84.0,0,30,0.0,98.0
8980,60.0,0,10,12.0,98.0
8981,57.0,5,10,12.0,98.0
8982,81.0,0,30,1.0,97.0
8983,72.0,1,30,1.0,97.0
8984,69.0,2,30,2.0,98.0
8985,72.0,0,30,2.0,98.0
8986,50.0,0,2,15.0,80.0
8987,60.0,0,30,5.0,100.0
8988,55.0,1,30,13.0,100.0
8989,57.0,4,30,3.0,99.0
8990,67.0,0,10,11.0,97.0
8991,60.0,0,30,3.0,99.0
8992,71.0,1,10,11.0,97.0
8993,43.0,1,30,14.0,100.0
8994,59.0,0,10,12.0,97.0
8995,55.0,1,10,12.0,97.0
8996,83.0,1,22,0.0,96.0
8997,79.0,8,25,10.0,97.0
8998,90.0,0,25,10.0,97.0
8999,71.0,2,22,1.0,95.0
9000,79.0,0,22,1.0,95.0
9001,67.0,5,10,11.0,96.0
9002,71.0,0,10,11.0,96.0
9003,67.0,0,22,2.0,96.0
9004,71.0,2,22,2.0,96.0
9005,59.0,0,25,5.0,98.0
9006,59.0,0,10,12.0,96.0
9007,55.0,5,10,12.0,96.0
9008,55.0,0,22,3.0,97.0
9009,59.0,5,22,3.0,97.0
9010,72.0,0,10,11.0,96.0
9011,69.0,1,10,11.0,96.0
9012,50.0,1,2,15.0,76.0
9013,84.0,1,15,0.0,95.0
9014,57.0,0,10,12.0,96.0
9015,60.0,1,10,12.0,96.0
9016,72.0,0,15,1.0,94.0
9017,81.0,2,15,1.0,94.0
9018,69.0,0,15,2.0,95.0
9019,60.0,0,15,5.0,97.0
9020,72.0,2,15,2.0,95.0
9021,79.0,4,25,10.0,96.0
9022,90.0,0,25,10.0,96.0
9023,90.0,1,85,0.0,98.0
9024,72.0,0,10,11.0,94.0
9025,69.0,3,10,11.0,94.0
9026,57.0,4,15,3.0,96.0
9027,60.0,0,15,3.0,96.0
9028,78.0,1,85,6.0,120.0
9029,66.0,0,85,4.0,100.0
9030,57.0,0,10,12.0,94.0
9031,60.0,5,10,12.0,94.0
9032,74.0,3,10,7.0,127.0
9033,43.0,1,30,13.0,96.0
9034,62.0,3,10,8.0,127.0
9035,69.0,0,10,11.0,94.0
9036,74.0,1,10,11.0,94.0
9037,31.0,1,30,14.0,96.0
9038,76.0,0,10,7.0,127.0
9039,86.0,1,15,0.0,93.0
9040,57.0,0,10,12.0,94.0
9041,62.0,1,10,12.0,94.0
9042,64.0,1,10,8.0,127.0
9043,74.0,0,15,1.0,92.0
9044,81.0,1,15,1.0,92.0
9045,69.0,0,15,2.0,93.0
9046,62.0,0,15,5.0,95.0
9047,74.0,1,15,2.0,93.0
9048,50.0,2,1,15.0,76.0
9049,79.0,2,25,10.0,94.0
9050,90.0,0,25,10.0,94.0
9051,78.0,3,10,7.0,127.0
9052,90.0,0,25,0.0,93.0
9053,74.0,0,10,11.0,93.0
9054,57.0,0,15,3.0,94.0
9055,62.0,4,15,3.0,94.0
9056,69.0,0,10,11.0,93.0
9057,66.0,2,10,8.0,127.0
9058,78.0,1,25,6.0,113.0
9059,66.0,0,25,4.0,95.0
9060,62.0,0,10,12.0,93.0
9061,57.0,5,10,12.0,93.0
9062,55.0,1,30,13.0,83.0
9063,43.0,1,30,14.0,83.0
9064,79.0,0,60,10.0,83.0
9065,91.0,1,60,10.0,83.0
9066,83.0,1,60,0.0,84.0
9067,91.0,0,60,0.0,84.0
9068,67.0,0,60,11.0,83.0
9069,71.0,1,60,11.0,83.0
9070,79.0,1,60,6.0,100.0
9071,67.0,1,60,4.0,86.0
9072,79.0,0,60,1.0,83.0
9073,71.0,0,60,1.0,83.0
9074,67.0,0,60,2.0,84.0
9075,71.0,2,60,2.0,84.0
9076,62.0,0,60,5.0,86.0
9077,59.0,1,60,12.0,83.0
9078,55.0,0,60,12.0,83.0
9079,55.0,0,60,3.0,85.0
9080,59.0,4,60,3.0,85.0
9081,50.0,2,60,15.0,88.0
9082,50.0,53,15,13.0,100.0
9083,38.0,5,15,14.0,100.0
9084,48.0,10,15,13.0,100.0
9085,36.0,5,15,14.0,100.0
9086,47.0,10,15,13.0,100.0
9087,35.0,5,15,14.0,100.0
9088,45.0,10,10,13.0,100.0
9089,33.0,5,10,14.0,100.0
9090,71.0,1,172,7.0,127.0
9091,79.0,1,172,7.0,127.0
9092,59.0,2,172,8.0,127.0
9093,67.0,1,172,8.0,127.0
9094,74.0,47,12,7.0,112.0
9095,62.0,3,12,8.0,111.0
9096,76.0,10,12,7.0,111.0
9097,64.0,3,12,8.0,111.0
9098,78.0,7,12,7.0,111.0
9099,66.0,5,12,8.0,110.0
9100,79.0,8,12,7.0,110.0
9101,67.0,3,12,8.0,112.0
9102,81.0,10,12,7.0,111.0
9103,69.0,2,12,8.0,112.0
9104,43.0,10,120,13.0,100.0
9105,31.0,5,120,14.0,100.0
9106,62.0,55,15,12.0,100.0
9107,50.0,1,15,13.0,100.0
9108,38.0,5,15,14.0,100.0
9109,60.0,9,15,12.0,100.0
9110,48.0,1,15,13.0,100.0
9111,36.0,5,15,14.0,100.0
9112,59.0,9,15,12.0,100.0
9113,47.0,1,15,13.0,100.0
9114,35.0,5,15,14.0,100.0
9115,57.0,9,10,12.0,100.0
9116,45.0,1,10,13.0,100.0
9117,33.0,5,10,14.0,100.0
9118,74.0,0,172,7.0,110.0
9119,79.0,10,172,7.0,111.0
9120,83.0,0,172,7.0,110.0
9121,62.0,2,172,8.0,111.0
9122,67.0,0,172,8.0,112.0
9123,71.0,0,172,8.0,110.0
9124,74.0,47,9,7.0,112.0
9125,62.0,2,9,8.0,110.0
9126,76.0,7,9,7.0,112.0
9127,64.0,3,9,8.0,112.0
9128,78.0,4,9,7.0,112.0
9129,66.0,4,9,8.0,110.0
9130,79.0,6,9,7.0,112.0
9131,67.0,2,9,8.0,110.0
9132,81.0,7,9,7.0,112.0
9133,69.0,2,9,8.0,111.0
9134,83.0,5,9,7.0,110.0
9135,71.0,3,9,8.0,110.0
9136,83.0,0,235,0.0,98.0
9137,79.0,0,235,0.0,98.0
9138,74.0,0,235,1.0,97.0
9139,71.0,1,235,1.0,97.0
9140,67.0,0,235,4.0,100.0
9141,84.0,6,9,7.0,111.0
9142,71.0,2,235,2.0,98.0
9143,62.0,0,235,2.0,98.0
9144,72.0,4,9,8.0,110.0
9145,55.0,0,235,3.0,99.0
9146,62.0,6,235,3.0,99.0
9147,55.0,9,120,12.0,100.0
9148,43.0,1,120,13.0,100.0
9149,31.0,5,120,14.0,100.0
9150,86.0,4,30,7.0,111.0
9151,74.0,2,30,8.0,110.0
9152,74.0,49,9,7.0,110.0
9153,62.0,1,9,8.0,111.0
9154,76.0,7,9,7.0,111.0
9155,64.0,1,9,8.0,111.0
9156,78.0,6,9,7.0,112.0
9157,66.0,4,9,8.0,111.0
9158,79.0,6,9,7.0,110.0
9159,67.0,2,9,8.0,110.0
9160,81.0,5,9,7.0,111.0
9161,69.0,5,9,8.0,110.0
9162,83.0,4,9,7.0,112.0
9163,71.0,3,9,8.0,111.0
9164,84.0,5,9,7.0,111.0
9165,72.0,5,9,8.0,111.0
9166,86.0,6,30,7.0,110.0
9167,74.0,1,30,8.0,111.0
9168,62.0,58,9,7.0,111.0
9169,50.0,3,9,8.0,110.0
9170,65.0,4,9,7.0,110.0
9171,53.0,5,9,8.0,111.0
9172,71.0,4,9,7.0,111.0
9173,59.0,5,9,8.0,111.0
9174,74.0,5,9,7.0,111.0
9175,62.0,2,9,8.0,111.0
9176,83.0,0,235,0.0,98.0
9177,86.0,2,235,0.0,98.0
9178,74.0,0,235,1.0,97.0
9179,79.0,1,235,1.0,97.0
9180,67.0,0,235,4.0,100.0
9181,71.0,0,235,2.0,98.0
9182,74.0,2,235,2.0,98.0
9183,59.0,6,235,3.0,99.0
9184,55.0,0,235,3.0,99.0
9185,62.0,55,20,12.0,100.0
9186,50.0,1,20,13.0,100.0
9187,38.0,5,20,14.0,100.0
9188,59.0,14,20,12.0,100.0
9189,47.0,1,20,13.0,100.0
9190,35.0,5,20,14.0,100.0
9191,57.0,14,20,12.0,100.0
9192,45.0,1,20,13.0,100.0
9193,33.0,5,20,14.0,100.0
9194,89.0,5,175,7.0,127.0
9195,86.0,4,184,7.0,110.0
9196,83.0,3,193,7.0,111.0
9197,77.0,6,202,7.0,112.0
9198,74.0,4,184,8.0,110.0
9199,71.0,5,193,8.0,111.0
9200,65.0,4,202,8.0,111.0
9201,74.0,0,175,2.0,116.0
9202,71.0,2,175,2.0,116.0
9203,62.0,5,180,4.0,115.0
9204,62.0,6,175,3.0,117.0
9205,59.0,0,175,3.0,117.0
9206,88.0,44,30,7.0,117.0
9207,85.0,2,30,7.0,110.0
9208,73.0,4,30,8.0,110.0
9209,76.0,1,30,8.0,112.0
9210,76.0,0,30,2.0,98.0
9211,73.0,2,30,2.0,98.0
9212,61.0,6,30,3.0,99.0
9213,64.0,0,30,3.0,99.0
9214,86.0,45,30,7.0,116.0
9215,83.0,3,30,7.0,111.0
9216,74.0,2,30,8.0,111.0
9217,71.0,2,30,8.0,112.0
9218,74.0,2,30,2.0,98.0
9219,77.0,0,30,2.0,98.0
9220,65.0,6,30,3.0,99.0
9221,62.0,0,30,3.0,99.0
9222,56.0,14,175,12.0,100.0
9223,44.0,1,175,13.0,100.0
9224,32.0,5,175,14.0,100.0
9225,85.0,46,20,7.0,116.0
9226,81.0,1,20,7.0,111.0
9227,73.0,1,20,8.0,110.0
9228,69.0,2,20,8.0,110.0
9229,85.0,2,30,0.0,98.0
9230,88.0,0,30,0.0,98.0
9231,64.0,0,30,4.0,100.0
9232,73.0,0,30,1.0,97.0
9233,76.0,0,30,1.0,97.0
9234,73.0,0,30,2.0,98.0
9235,76.0,2,30,2.0,98.0
9236,88.0,6,20,7.0,116.0
9237,61.0,0,30,3.0,99.0
9238,76.0,3,20,8.0,111.0
9239,64.0,4,30,3.0,99.0
9240,90.0,16,20,7.0,117.0
9241,78.0,4,20,8.0,111.0
9242,57.0,1,60,12.0,100.0
9243,45.0,1,60,13.0,100.0
9244,33.0,1,60,14.0,100.0
9245,64.0,55,20,12.0,100.0
9246,52.0,1,20,13.0,100.0
9247,40.0,5,20,14.0,100.0
9248,61.0,14,20,12.0,100.0
9249,49.0,1,20,13.0,100.0
9250,37.0,5,20,14.0,100.0
9251,59.0,14,20,12.0,100.0
9252,47.0,1,20,13.0,100.0
9253,35.0,5,20,14.0,100.0
9254,91.0,16,150,7.0,127.0
9255,88.0,1,150,7.0,120.0
9256,79.0,2,150,8.0,121.0
9257,76.0,0,150,8.0,121.0
9258,91.0,2,175,0.0,116.0
9259,85.0,0,175,0.0,116.0
9260,64.0,0,175,4.0,118.0
9261,73.0,1,175,1.0,115.0
9262,67.0,0,175,4.0,118.0
9263,79.0,0,175,1.0,115.0
9264,73.0,0,175,2.0,116.0
9265,76.0,2,175,2.0,116.0
9266,61.0,0,175,3.0,117.0
9267,64.0,6,175,3.0,117.0
9268,90.0,44,30,7.0,116.0
9269,87.0,4,30,7.0,111.0
9270,75.0,3,30,8.0,111.0
9271,78.0,0,30,8.0,111.0
9272,78.0,2,30,2.0,98.0
9273,75.0,0,30,2.0,98.0
9274,63.0,0,30,3.0,99.0
9275,66.0,6,30,3.0,99.0
9276,88.0,48,30,7.0,117.0
9277,76.0,0,30,8.0,112.0
9278,85.0,1,30,7.0,112.0
9279,73.0,1,30,8.0,110.0
9280,76.0,0,30,2.0,98.0
9281,79.0,4,30,2.0,98.0
9282,64.0,6,30,3.0,99.0
9283,67.0,0,30,3.0,99.0
9284,58.0,14,175,12.0,100.0
9285,46.0,1,175,13.0,100.0
9286,34.0,5,175,14.0,100.0
9287,87.0,47,20,7.0,117.0
9288,83.0,0,20,7.0,112.0
9289,75.0,0,20,8.0,110.0
9290,71.0,2,20,8.0,110.0
9291,87.0,2,30,0.0,98.0
9292,90.0,0,30,0.0,98.0
9293,75.0,0,30,1.0,97.0
9294,66.0,1,30,4.0,100.0
9295,78.0,0,30,1.0,97.0
9296,78.0,0,30,2.0,98.0
9297,75.0,2,30,2.0,98.0
9298,90.0,5,20,7.0,117.0
9299,66.0,4,30,3.0,99.0
9300,63.0,0,30,3.0,99.0
9301,78.0,6,20,8.0,110.0
9302,92.0,15,20,7.0,117.0
9303,80.0,4,20,8.0,111.0
9304,59.0,1,60,12.0,100.0
9305,47.0,1,60,13.0,100.0
9306,35.0,1,60,14.0,100.0
9307,93.0,16,30,7.0,117.0
9308,90.0,0,30,7.0,111.0
9309,87.0,2,30,0.0,98.0
9310,93.0,0,30,0.0,98.0
9311,81.0,1,30,8.0,112.0
9312,69.0,0,30,8.0,110.0
9313,81.0,0,30,1.0,97.0
9314,75.0,0,30,1.0,97.0
9315,78.0,2,30,8.0,112.0
9316,66.0,0,30,4.0,100.0
9317,69.0,0,30,4.0,100.0
9318,75.0,0,30,2.0,98.0
9319,78.0,2,30,2.0,98.0
9320,63.0,6,30,3.0,99.0
9321,66.0,0,30,3.0,99.0
9322,87.0,46,20,7.0,116.0
9323,75.0,4,20,8.0,111.0
9324,90.0,5,20,7.0,117.0
9325,78.0,5,20,8.0,112.0
9326,92.0,15,20,7.0,116.0
9327,80.0,5,20,8.0,111.0
9328,59.0,5,60,12.0,100.0
9329,47.0,1,60,13.0,100.0
9330,35.0,5,60,14.0,100.0
9331,93.0,14,30,7.0,117.0
9332,93.0,4,30,0.0,98.0
9333,87.0,0,30,0.0,98.0
9334,90.0,0,30,7.0,110.0
9335,81.0,2,30,8.0,110.0
9336,78.0,0,30,8.0,112.0
9337,69.0,0,30,8.0,110.0
9338,75.0,0,30,1.0,97.0
9339,81.0,0,30,1.0,97.0
9340,66.0,0,30,4.0,100.0
9341,69.0,1,30,4.0,100.0
9342,78.0,2,30,2.0,98.0
9343,75.0,0,30,2.0,98.0
9344,63.0,4,30,3.0,99.0
9345,66.0,0,30,3.0,99.0
9346,60.0,1,50,12.0,100.0
9347,48.0,1,50,13.0,100.0
9348,36.0,1,50,14.0,100.0
9349,87.0,44,20,7.0,116.0
9350,75.0,7,20,8.0,110.0
9351,90.0,6,20,7.0,117.0
9352,78.0,4,20,8.0,111.0
9353,92.0,14,20,7.0,116.0
9354,80.0,7,20,8.0,112.0
9355,60.0,3,60,12.0,100.0
9356,48.0,1,60,13.0,100.0
9357,36.0,5,60,14.0,100.0
9358,93.0,13,30,7.0,116.0
9359,88.0,2,30,7.0,112.0
9360,93.0,2,30,0.0,98.0
9361,88.0,0,30,0.0,98.0
9362,76.0,1,30,8.0,112.0
9363,76.0,0,30,1.0,97.0
9364,81.0,0,30,1.0,97.0
9365,81.0,0,30,8.0,110.0
9366,64.0,0,30,4.0,100.0
9367,57.0,2,30,4.0,100.0
9368,79.0,2,30,2.0,98.0
9369,76.0,0,30,2.0,98.0
9370,67.0,4,30,3.0,99.0
9371,64.0,0,30,3.0,99.0
9372,61.0,1,50,12.0,100.0
9373,49.0,1,50,13.0,100.0
9374,37.0,1,55,14.0,100.0
9375,91.0,45,30,7.0,116.0
9376,88.0,2,30,7.0,110.0
9377,81.0,1,30,7.0,111.0
9378,79.0,0,30,8.0,110.0
9379,69.0,2,30,8.0,112.0
9380,76.0,1,30,8.0,110.0
9381,76.0,2,30,2.0,98.0
9382,69.0,0,30,2.0,98.0
9383,49.0,1,30,12.0,100.0
9384,37.0,1,30,13.0,100.0
9385,64.0,4,30,3.0,99.0
9386,57.0,0,30,3.0,99.0
9387,89.0,45,30,7.0,116.0
9388,81.0,2,30,7.0,112.0
9389,86.0,1,30,7.0,112.0
9390,77.0,4,30,8.0,111.0
9391,74.0,0,30,8.0,112.0
9392,69.0,0,30,8.0,111.0
9393,74.0,2,30,2.0,98.0
9394,77.0,0,30,2.0,98.0
9395,50.0,1,30,12.0,100.0
9396,38.0,1,30,13.0,100.0
9397,62.0,0,30,3.0,99.0
9398,65.0,4,30,3.0,99.0
9399,88.0,45,30,7.0,117.0
9400,85.0,3,30,7.0,112.0
9401,79.0,0,30,7.0,110.0
9402,73.0,0,30,8.0,111.0
9403,76.0,2,30,8.0,112.0
9404,67.0,1,30,8.0,111.0
9405,73.0,3,30,2.0,98.0
9406,67.0,0,30,2.0,98.0
9407,52.0,1,30,12.0,100.0
9408,40.0,1,30,13.0,100.0
9409,55.0,4,30,3.0,99.0
9410,61.0,0,30,3.0,99.0
9411,86.0,45,30,7.0,117.0
9412,77.0,3,30,7.0,110.0
9413,81.0,0,30,7.0,111.0
9414,69.0,2,30,8.0,110.0
9415,74.0,0,30,8.0,110.0
9416,65.0,2,30,8.0,110.0
9417,74.0,0,30,2.0,98.0
9418,65.0,2,30,2.0,98.0
9419,53.0,1,30,12.0,100.0
9420,41.0,1,30,13.0,100.0
9421,62.0,4,30,3.0,99.0
9422,53.0,0,30,3.0,99.0
9423,83.0,47,30,7.0,111.0
9424,88.0,0,30,7.0,117.0
9425,76.0,2,30,7.0,112.0
9426,71.0,2,30,8.0,111.0
9427,64.0,1,30,8.0,111.0
9428,71.0,0,30,2.0,98.0
9429,64.0,2,30,2.0,98.0
9430,56.0,1,30,12.0,100.0
9431,44.0,1,30,13.0,100.0
9432,59.0,4,30,3.0,99.0
9433,52.0,0,30,3.0,99.0
9434,85.0,47,30,7.0,117.0
9435,81.0,1,30,7.0,112.0
9436,76.0,1,30,7.0,111.0
9437,69.0,1,30,8.0,111.0
9438,73.0,2,30,8.0,111.0
9439,69.0,2,30,2.0,98.0
9440,73.0,0,30,2.0,98.0
9441,57.0,1,30,12.0,100.0
9442,45.0,1,30,13.0,100.0
9443,61.0,0,30,3.0,99.0
9444,57.0,4,30,3.0,99.0
9445,76.0,48,30,10.0,100.0
9446,88.0,1,30,0.0,98.0
9447,80.0,0,30,0.0,98.0
9448,68.0,1,30,11.0,100.0
9449,68.0,0,30,1.0,97.0
9450,76.0,0,30,1.0,97.0
9451,64.0,2,30,4.0,100.0
9452,76.0,0,30,2.0,98.0
9453,71.0,2,30,2.0,98.0
9454,64.0,1,30,12.0,100.0
9455,52.0,1,30,13.0,100.0
9456,64.0,4,30,3.0,99.0
9457,52.0,0,30,3.0,99.0
9458,40.0,1,30,14.0,100.0
9459,73.0,47,30,10.0,100.0
9460,85.0,0,30,0.0,98.0
9461,81.0,1,30,0.0,98.0
9462,69.0,1,30,11.0,100.0
9463,69.0,0,30,6.0,105.0
9464,57.0,1,30,6.0,105.0
9465,76.0,0,30,1.0,97.0
9466,69.0,0,30,1.0,97.0
9467,64.0,0,30,4.0,100.0
9468,57.0,1,30,4.0,100.0
9469,73.0,0,30,2.0,98.0
9470,69.0,2,30,2.0,98.0
9471,69.0,1,30,12.0,100.0
9472,57.0,1,30,13.0,100.0
9473,61.0,4,30,3.0,99.0
9474,57.0,0,30,3.0,99.0
9475,45.0,1,30,14.0,100.0
9476,45.0,2,60,15.0,87.0
9477,68.0,45,30,10.0,100.0
9478,76.0,1,30,0.0,98.0
9479,80.0,0,30,0.0,98.0
9480,64.0,1,30,11.0,100.0
9481,80.0,0,30,1.0,97.0
9482,64.0,0,30,4.0,100.0
9483,71.0,2,30,1.0,97.0
9484,71.0,0,30,2.0,98.0
9485,68.0,2,30,2.0,98.0
9486,64.0,1,30,12.0,100.0
9487,52.0,1,30,13.0,100.0
9488,52.0,4,30,3.0,99.0
9489,59.0,0,30,3.0,99.0
9490,40.0,1,30,14.0,100.0
9491,69.0,47,30,10.0,100.0
9492,76.0,0,30,0.0,98.0
9493,81.0,1,30,0.0,98.0
9494,64.0,1,30,11.0,100.0
9495,69.0,1,30,6.0,105.0
9496,57.0,0,30,6.0,105.0
9497,64.0,0,30,4.0,100.0
9498,57.0,1,30,4.0,100.0
9499,73.0,0,30,1.0,97.0
9500,81.0,0,30,1.0,97.0
9501,73.0,2,30,2.0,98.0
9502,69.0,0,30,2.0,98.0
9503,69.0,1,30,12.0,100.0
9504,57.0,1,30,13.0,100.0
9505,57.0,4,30,3.0,99.0
9506,45.0,0,30,3.0,99.0
9507,45.0,1,30,14.0,100.0
9508,45.0,2,60,15.0,87.0
9509,57.0,4,30,2.0,98.0
9510,69.0,0,30,2.0,98.0
9511,57.0,4,30,3.0,99.0
9512,45.0,0,30,3.0,99.0
9513,69.0,45,60,10.0,69.0
9514,57.0,2,60,11.0,69.0
9515,57.0,1,60,12.0,69.0
9516,45.0,1,60,13.0,69.0
9517,45.0,1,60,14.0,69.0
9518,38.0,1,18,8.0,79.0
9519,62.0,3,30,2.0,98.0
9520,38.0,0,30,3.0,99.0
9521,50.0,4,30,3.0,99.0
9522,53.0,20,18,8.0,68.0
9523,62.0,0,60,10.0,46.0
9524,62.0,2,60,11.0,46.0
9525,50.0,1,60,12.0,46.0
9526,38.0,1,60,13.0,46.0
9527,38.0,1,60,14.0,46.0
9528,50.0,30,18,8.0,68.0
9529,45.0,30,18,8.0,68.0
9530,53.0,0,120,7.0,95.0
9531,62.0,47,120,7.0,95.0
9532,41.0,3,18,8.0,79.0
9533,53.0,25,18,8.0,68.0
9534,64.0,27,60,7.0,95.0
9535,57.0,0,60,7.0,83.0
9536,50.0,5,60,13.0,60.0
9537,50.0,3,18,8.0,68.0
9538,45.0,30,18,8.0,68.0
9539,62.0,0,55,7.0,83.0
9540,65.0,27,55,7.0,95.0
9541,36.0,3,18,8.0,79.0
9542,57.0,25,18,8.0,68.0
9543,36.0,5,60,13.0,60.0
9544,52.0,30,18,8.0,68.0
9545,48.0,30,18,8.0,68.0
9546,64.0,0,0,7.0,84.0
9547,69.0,27,120,7.0,95.0
9548,45.0,3,18,8.0,79.0
9549,57.0,25,18,8.0,68.0
9550,60.0,27,60,7.0,74.0
9551,48.0,5,60,13.0,60.0
9552,52.0,3,18,8.0,68.0
9553,48.0,30,18,8.0,68.0
9554,60.0,27,60,7.0,83.0
9555,64.0,0,60,7.0,83.0
9556,69.0,0,60,7.0,95.0
9557,35.0,3,18,8.0,79.0
9558,62.0,25,18,8.0,68.0
9559,47.0,5,60,13.0,60.0
9560,57.0,30,18,8.0,68.0
9561,53.0,30,18,8.0,68.0
9562,74.0,24,120,7.0,104.0
9563,69.0,3,120,7.0,91.0
9564,65.0,0,120,7.0,91.0
9565,40.0,3,18,8.0,79.0
9566,74.0,24,34,7.0,105.0
9567,68.0,3,34,7.0,91.0
9568,71.0,0,34,7.0,91.0
9569,62.0,25,18,8.0,68.0
9570,40.0,5,60,13.0,60.0
9571,76.0,4,34,7.0,102.0
9572,71.0,0,34,7.0,89.0
9573,68.0,3,34,7.0,89.0
9574,56.0,23,18,8.0,68.0
9575,52.0,13,18,8.0,68.0
9576,77.0,14,34,7.0,98.0
9577,71.0,0,34,7.0,85.0
9578,68.0,3,34,7.0,85.0
9579,45.0,3,18,8.0,79.0
9580,65.0,25,18,8.0,68.0
9581,45.0,5,60,13.0,60.0
9582,57.0,30,18,8.0,68.0
9583,47.0,30,18,8.0,68.0
9584,77.0,24,120,7.0,95.0
9585,69.0,3,0,7.0,72.0
9586,74.0,0,120,7.0,83.0
9587,47.0,5,30,13.0,60.0
9588,49.0,3,18,8.0,79.0
9589,61.0,25,18,8.0,70.0
9590,76.0,19,60,7.0,82.0
9591,49.0,5,60,13.0,60.0
9592,57.0,30,18,8.0,70.0
9593,52.0,30,18,8.0,70.0
9594,50.0,3,18,8.0,80.0
9595,62.0,25,18,8.0,71.0
9596,50.0,5,60,13.0,60.0
9597,57.0,30,18,8.0,71.0
9598,53.0,30,18,8.0,72.0
9599,65.0,27,120,7.0,84.0
9600,62.0,0,120,7.0,84.0
9601,48.0,3,18,8.0,83.0
9602,65.0,25,18,8.0,73.0
9603,74.0,24,60,7.0,106.0
9604,69.0,3,60,7.0,92.0
9605,65.0,0,60,7.0,92.0
9606,48.0,5,60,13.0,60.0
9607,62.0,3,18,8.0,74.0
9608,57.0,30,18,8.0,76.0
9609,77.0,24,60,7.0,110.0
9610,74.0,3,60,7.0,98.0
9611,69.0,0,60,7.0,98.0
9612,47.0,3,18,8.0,88.0
9613,65.0,25,18,8.0,77.0
9614,47.0,5,60,13.0,60.0
9615,62.0,30,18,8.0,77.0
9616,57.0,30,18,8.0,78.0
9617,74.0,0,120,7.0,102.0
9618,45.0,3,18,8.0,91.0
9619,65.0,25,18,8.0,81.0
9620,81.0,25,0,7.0,118.0
9621,69.0,0,0,7.0,106.0
9622,77.0,2,0,7.0,106.0
9623,45.0,5,60,13.0,60.0
9624,60.0,3,18,8.0,81.0
9625,57.0,30,18,8.0,81.0
9626,72.0,27,120,7.0,93.0
9627,44.0,3,18,8.0,95.0
9628,64.0,25,18,8.0,82.0
9629,44.0,5,60,13.0,60.0
9630,59.0,30,18,8.0,82.0
9631,83.0,25,90,7.0,118.0
9632,71.0,0,90,7.0,107.0
9633,79.0,2,90,7.0,107.0
9634,84.0,24,15,7.0,124.0
9635,56.0,6,18,8.0,82.0
9636,83.0,9,15,7.0,125.0
9637,40.0,3,18,8.0,96.0
9638,64.0,25,18,8.0,82.0
9639,81.0,16,60,7.0,119.0
9640,40.0,1,60,13.0,60.0
9641,59.0,3,18,8.0,83.0
9642,55.0,30,18,8.0,83.0
9643,83.0,25,60,7.0,120.0
9644,71.0,2,60,7.0,97.0
9645,76.0,0,60,7.0,97.0
9646,64.0,2,120,10.0,100.0
9647,33.0,1,18,8.0,99.0
9648,64.0,20,15,8.0,79.0
9649,45.0,5,60,13.0,60.0
9650,33.0,5,60,14.0,60.0
9651,60.0,30,15,8.0,79.0
9652,57.0,30,15,8.0,79.0
9653,84.0,23,120,7.0,127.0
9654,76.0,0,0,7.0,66.0
9655,81.0,0,120,7.0,67.0
9656,72.0,4,120,7.0,67.0
9657,72.0,0,120,10.0,101.0
9658,69.0,2,120,11.0,101.0
9659,33.0,1,15,8.0,92.0
9660,64.0,20,15,8.0,77.0
9661,48.0,5,60,13.0,60.0
9662,36.0,5,60,14.0,60.0
9663,60.0,30,15,8.0,77.0
9664,57.0,30,15,8.0,77.0
9665,82.0,25,120,7.0,94.0
9666,70.0,0,120,10.0,103.0
9667,79.0,0,120,7.0,66.0
9668,70.0,2,120,7.0,66.0
9669,67.0,2,120,11.0,103.0
9670,64.0,4,0,12.0,105.0
9671,41.0,1,15,8.0,91.0
9672,65.0,20,15,8.0,76.0
9673,53.0,1,60,13.0,60.0
9674,41.0,5,60,14.0,60.0
9675,60.0,30,15,8.0,75.0
9676,57.0,30,15,8.0,74.0
9677,81.0,25,120,7.0,95.0
9678,69.0,2,120,10.0,105.0
9679,77.0,0,120,7.0,67.0
9680,69.0,0,120,7.0,67.0
9681,72.0,0,120,7.0,67.0
9682,65.0,2,120,11.0,105.0
9683,45.0,1,15,8.0,89.0
9684,64.0,20,15,8.0,74.0
9685,57.0,1,60,13.0,60.0
9686,45.0,5,60,14.0,60.0
9687,61.0,30,15,8.0,74.0
9688,57.0,30,15,8.0,74.0
9689,79.0,25,120,7.0,86.0
9690,67.0,0,120,10.0,107.0
9691,69.0,2,0,7.0,66.0
9692,67.0,0,120,7.0,60.0
9693,73.0,0,120,7.0,60.0
9694,76.0,0,0,7.0,66.0
9695,65.0,4,120,12.0,107.0
9696,38.0,3,15,8.0,87.0
9697,64.0,20,15,8.0,74.0
9698,50.0,1,60,13.0,60.0
9699,38.0,5,60,14.0,60.0
9700,57.0,30,15,8.0,74.0
9701,54.0,30,15,8.0,74.0
9702,78.0,25,120,7.0,92.0
9703,69.0,2,0,7.0,62.0
9704,66.0,0,120,7.0,66.0
9705,66.0,0,120,10.0,109.0
9706,64.0,2,240,11.0,107.0
9707,41.0,1,15,8.0,88.0
9708,62.0,20,15,8.0,74.0
9709,41.0,5,60,13.0,60.0
9710,29.0,5,60,14.0,60.0
9711,57.0,30,15,8.0,74.0
9712,53.0,30,15,8.0,75.0
9713,77.0,25,120,7.0,87.0
9714,65.0,0,120,7.0,62.0
9715,65.0,0,120,10.0,111.0
9716,74.0,0,120,7.0,62.0
9717,62.0,2,120,11.0,111.0
9718,57.0,4,240,12.0,109.0
9719,43.0,1,15,8.0,90.0
9720,58.0,20,15,8.0,75.0
9721,43.0,1,60,13.0,60.0
9722,31.0,5,60,14.0,60.0
9723,55.0,30,15,8.0,75.0
9724,51.0,30,15,8.0,76.0
9725,75.0,25,120,7.0,94.0
9726,67.0,0,120,7.0,68.0
9727,63.0,0,120,10.0,113.0
9728,70.0,0,120,7.0,68.0
9729,63.0,2,120,7.0,68.0
9730,58.0,2,120,11.0,113.0
9731,55.0,4,120,12.0,113.0
9732,44.0,1,15,8.0,91.0
9733,59.0,20,15,8.0,75.0
9734,44.0,1,60,13.0,60.0
9735,32.0,5,60,14.0,60.0
9736,53.0,30,15,8.0,73.0
9737,50.0,30,15,8.0,73.0
9738,74.0,25,120,7.0,89.0
9739,65.0,0,120,7.0,62.0
9740,71.0,2,120,7.0,62.0
9741,62.0,0,120,10.0,115.0
9742,62.0,0,120,7.0,62.0
9743,59.0,2,120,11.0,115.0
9744,56.0,4,120,12.0,115.0
9745,45.0,1,15,8.0,86.0
9746,57.0,20,15,8.0,73.0
9747,45.0,1,60,13.0,60.0
9748,33.0,5,60,14.0,60.0
9749,52.0,30,15,8.0,72.0
9750,49.0,30,15,8.0,71.0
9751,61.0,0,120,10.0,100.0
9752,73.0,0,120,7.0,77.0
9753,64.0,0,120,7.0,60.0
9754,61.0,27,120,7.0,60.0
9755,69.0,0,120,7.0,60.0
9756,57.0,2,120,11.0,100.0
9757,57.0,4,120,12.0,100.0
9758,45.0,30,52,8.0,85.0
9759,57.0,57,30,7.0,98.0
9760,33.0,0,52,8.0,90.0
9761,45.0,3,52,8.0,90.0
9762,69.0,27,30,7.0,82.0
9763,67.0,30,30,7.0,99.0
9764,79.0,22,30,7.0,83.0
9765,43.0,0,60,8.0,91.0
9766,55.0,1,60,8.0,91.0
9767,64.0,30,30,7.0,100.0
9768,67.0,0,120,10.0,100.0
9769,76.0,27,30,7.0,84.0
9770,64.0,2,120,11.0,100.0
9771,52.0,0,60,8.0,92.0
9772,40.0,3,60,8.0,92.0
9773,61.0,4,120,12.0,100.0
9774,57.0,1,120,13.0,100.0
9775,61.0,30,30,7.0,102.0
9776,73.0,27,25,7.0,85.0
9777,37.0,3,52,8.0,93.0
9778,49.0,0,52,8.0,93.0
9779,57.0,30,30,7.0,102.0
9780,45.0,3,52,8.0,93.0
9781,33.0,0,52,8.0,93.0
9782,69.0,27,30,7.0,86.0
9783,69.0,0,30,7.0,104.0
9784,81.0,22,30,7.0,87.0
9785,57.0,1,60,8.0,96.0
9786,45.0,0,60,8.0,96.0
9787,65.0,30,30,7.0,105.0
9788,77.0,27,30,7.0,88.0
9789,65.0,30,120,10.0,100.0
9790,65.0,2,120,11.0,100.0
9791,41.0,0,60,8.0,97.0
9792,53.0,3,60,8.0,97.0
9793,62.0,4,120,12.0,100.0
9794,57.0,1,120,13.0,100.0
9795,62.0,30,30,7.0,106.0
9796,38.0,3,52,8.0,98.0
9797,50.0,0,52,8.0,98.0
9798,74.0,27,25,7.0,89.0
9799,57.0,30,30,7.0,106.0
9800,33.0,3,52,8.0,98.0
9801,45.0,0,52,8.0,98.0
9802,69.0,27,30,7.0,90.0
9803,71.0,0,30,7.0,106.0
9804,83.0,22,30,7.0,90.0
9805,47.0,1,60,8.0,98.0
9806,59.0,0,60,8.0,98.0
9807,65.0,30,30,7.0,107.0
9808,77.0,27,30,7.0,91.0
9809,65.0,30,120,10.0,100.0
9810,62.0,2,120,11.0,100.0
9811,53.0,3,60,8.0,98.0
9812,41.0,0,60,8.0,98.0
9813,62.0,4,120,12.0,100.0
9814,57.0,1,120,13.0,100.0
9815,62.0,30,30,7.0,110.0
9816,50.0,3,52,8.0,100.0
9817,38.0,0,52,8.0,100.0
9818,74.0,27,25,7.0,92.0
9819,57.0,30,30,7.0,110.0
9820,33.0,0,52,8.0,102.0
9821,45.0,3,52,8.0,102.0
9822,69.0,27,30,7.0,93.0
9823,73.0,0,30,7.0,110.0
9824,49.0,1,52,8.0,102.0
9825,61.0,0,52,8.0,102.0
9826,64.0,30,60,10.0,100.0
9827,85.0,22,30,7.0,94.0
9828,69.0,0,60,10.0,100.0
9829,64.0,2,60,11.0,100.0
9830,57.0,4,60,12.0,100.0
9831,57.0,1,60,13.0,100.0
9832,57.0,30,30,7.0,111.0
9833,33.0,3,52,8.0,103.0
9834,45.0,0,52,8.0,103.0
9835,69.0,27,30,7.0,95.0
9836,76.0,0,30,7.0,111.0
9837,64.0,1,52,8.0,104.0
9838,52.0,0,52,8.0,104.0
9839,88.0,22,30,7.0,96.0
9840,76.0,30,60,10.0,100.0
9841,73.0,2,60,11.0,100.0
9842,64.0,4,60,12.0,100.0
9843,45.0,1,60,13.0,100.0
9844,57.0,30,30,7.0,112.0
9845,45.0,0,52,8.0,106.0
9846,33.0,3,52,8.0,106.0
9847,69.0,27,30,7.0,97.0
9848,79.0,30,30,7.0,113.0
9849,55.0,1,52,8.0,106.0
9850,67.0,0,52,8.0,106.0
9851,76.0,0,60,10.0,100.0
9852,91.0,22,30,7.0,98.0
9853,73.0,2,60,11.0,100.0
9854,67.0,4,60,12.0,100.0
9855,45.0,1,60,13.0,100.0
9856,57.0,30,30,7.0,113.0
9857,45.0,0,52,8.0,106.0
9858,33.0,3,52,8.0,106.0
9859,69.0,27,30,7.0,98.0
9860,80.0,30,30,7.0,113.0
9861,56.0,1,52,8.0,106.0
9862,68.0,0,52,8.0,106.0
9863,74.0,0,60,10.0,105.0
9864,92.0,22,30,7.0,98.0
9865,71.0,2,60,11.0,105.0
9866,65.0,4,60,12.0,105.0
9867,45.0,1,60,13.0,105.0
9868,57.0,30,30,7.0,114.0
9869,33.0,0,52,8.0,107.0
9870,45.0,3,52,8.0,107.0
9871,69.0,27,30,7.0,99.0
9872,81.0,30,30,7.0,115.0
9873,69.0,0,52,8.0,109.0
9874,57.0,1,52,8.0,109.0
9875,73.0,0,60,10.0,110.0
9876,93.0,22,30,7.0,100.0
9877,69.0,2,60,11.0,110.0
9878,64.0,4,60,12.0,110.0
9879,45.0,1,60,13.0,110.0
9880,57.0,30,30,7.0,115.0
9881,33.0,3,30,8.0,110.0
9882,69.0,27,30,7.0,110.0
9883,45.0,3,30,8.0,100.0
9884,82.0,27,30,7.0,127.0
9885,58.0,3,30,8.0,120.0
9886,94.0,27,30,7.0,115.0
9887,70.0,3,30,8.0,109.0
9888,79.0,27,30,7.0,127.0
9889,55.0,3,30,8.0,120.0
9890,91.0,27,25,7.0,115.0
9891,67.0,3,25,8.0,109.0
9892,76.0,27,30,7.0,127.0
9893,52.0,3,30,8.0,120.0
9894,88.0,27,30,7.0,127.0
9895,64.0,3,30,8.0,109.0
9896,73.0,27,30,7.0,127.0
9897,49.0,3,30,8.0,120.0
9898,85.0,27,30,7.0,115.0
9899,61.0,3,30,8.0,109.0
9900,70.0,27,30,7.0,127.0
9901,46.0,3,30,8.0,120.0
9902,82.0,27,30,7.0,115.0
9903,58.0,3,30,8.0,109.0
9904,67.0,27,30,7.0,127.0
9905,43.0,3,30,8.0,120.0
9906,79.0,27,25,7.0,115.0
9907,55.0,3,25,8.0,109.0
9908,65.0,27,30,7.0,127.0
9909,44.0,3,30,8.0,120.0
9910,77.0,27,30,7.0,115.0
9911,56.0,3,30,8.0,109.0
9912,62.0,27,30,7.0,127.0
9913,41.0,3,30,8.0,120.0
9914,74.0,27,30,7.0,115.0
9915,53.0,3,30,8.0,109.0
9916,59.0,27,30,7.0,127.0
9917,38.0,3,30,8.0,120.0
9918,71.0,27,30,7.0,115.0
9919,50.0,3,30,8.0,109.0
9920,56.0,27,30,7.0,127.0
9921,35.0,3,30,8.0,120.0
9922,68.0,27,25,7.0,115.0
9923,47.0,3,25,8.0,109.0
9924,57.0,27,30,7.0,127.0
9925,37.0,3,30,8.0,120.0
9926,69.0,27,30,7.0,113.0
9927,49.0,3,30,8.0,106.0
9928,52.0,27,30,7.0,124.0
9929,33.0,3,30,8.0,118.0
9930,64.0,27,30,7.0,110.0
9931,45.0,3,30,8.0,102.0
9932,49.0,27,30,7.0,120.0
9933,28.0,3,30,8.0,115.0
9934,61.0,27,30,7.0,105.0
9935,40.0,3,30,8.0,97.0
9936,45.0,27,30,7.0,116.0
9937,25.0,3,30,8.0,111.0
9938,57.0,27,30,7.0,83.0
9939,37.0,3,30,8.0,76.0
9940,63.0,27,20,10.0,73.0
9941,45.0,15,0,15.0,56.0
9942,57.0,7,30,12.0,73.0
9943,49.0,1,0,13.0,79.0
9944,69.0,5,20,10.0,62.0
9945,37.0,3,0,14.0,79.0
9946,63.0,2,20,10.0,83.0
9947,51.0,2,30,12.0,79.0
9948,45.0,2,0,15.0,57.0
9949,69.0,5,20,10.0,67.0
9950,57.0,7,30,12.0,86.0
9951,49.0,1,0,13.0,93.0
9952,63.0,5,20,10.0,90.0
9953,37.0,3,0,14.0,93.0
9954,45.0,15,20,15.0,59.0
9955,69.0,2,20,10.0,74.0
9956,51.0,2,30,12.0,93.0
9957,45.0,2,0,15.0,59.0
9958,63.0,5,20,10.0,100.0
9959,57.0,7,30,12.0,100.0
9960,49.0,1,0,13.0,100.0
9961,69.0,5,20,10.0,77.0
9962,37.0,5,30,14.0,100.0
9963,45.0,15,20,15.0,60.0
9964,63.0,2,20,10.0,100.0
9965,51.0,2,30,12.0,100.0
9966,49.0,1,0,13.0,100.0
9967,37.0,3,30,14.0,100.0
9968,45.0,12,20,15.0,62.0
9969,69.0,5,20,10.0,77.0
9970,45.0,15,0,15.0,62.0
9971,57.0,7,30,12.0,100.0
9972,63.0,5,20,10.0,100.0
9973,37.0,5,30,14.0,100.0
9974,69.0,2,15,10.0,77.0
9975,45.0,12,0,15.0,63.0
9976,51.0,2,25,12.0,100.0
9977,49.0,1,30,13.0,100.0
9978,37.0,3,30,14.0,100.0
9979,62.0,5,20,10.0,100.0
9980,69.0,2,20,11.0,100.0
9981,50.0,2,20,15.0,63.0
9982,50.0,1,30,12.0,112.0
9983,48.0,3,0,13.0,100.0
9984,74.0,5,20,10.0,77.0
9985,50.0,4,30,3.0,99.0
9986,62.0,2,20,11.0,100.0
9987,36.0,1,30,14.0,100.0
9988,50.0,13,20,15.0,64.0
9989,62.0,2,20,10.0,100.0
9990,69.0,2,20,11.0,100.0
9991,36.0,1,30,14.0,100.0
9992,50.0,12,20,15.0,64.0
9993,74.0,5,20,10.0,77.0
9994,62.0,2,20,11.0,100.0
9995,50.0,2,20,15.0,66.0
9996,48.0,1,30,13.0,100.0
9997,62.0,5,20,10.0,100.0
9998,69.0,2,20,11.0,100.0
9999,36.0,1,30,14.0,100.0
10000,50.0,12,0,15.0,66.0
10001,74.0,2,20,10.0,77.0
10002,62.0,2,20,11.0,100.0
10003,48.0,6,0,13.0,100.0
10004,36.0,1,30,14.0,100.0
10005,50.0,2,0,15.0,66.0
10006,62.0,5,20,10.0,100.0
10007,69.0,2,20,11.0,100.0
10008,48.0,3,0,13.0,100.0
10009,74.0,5,20,10.0,77.0
10010,62.0,2,20,11.0,100.0
10011,36.0,1,0,14.0,100.0
10012,50.0,13,20,15.0,67.0
10013,55.0,5,110,12.0,127.0
10014,62.0,2,20,10.0,100.0
10015,55.0,4,110,3.0,114.0
10016,69.0,2,20,11.0,100.0
10017,36.0,1,0,14.0,100.0
10018,50.0,12,20,15.0,67.0
10019,74.0,5,20,10.0,77.0
10020,62.0,2,20,11.0,100.0
10021,50.0,13,0,15.0,70.0
10022,57.0,5,30,12.0,112.0
10023,48.0,3,0,13.0,100.0
10024,62.0,5,20,10.0,100.0
10025,57.0,4,30,3.0,99.0
10026,69.0,2,20,11.0,100.0
10027,36.0,1,0,14.0,100.0
10028,74.0,2,15,10.0,77.0
10029,50.0,12,0,15.0,70.0
10030,62.0,2,15,11.0,100.0
10031,50.0,4,240,5.0,100.0
10032,74.0,5,20,10.0,100.0
10033,74.0,2,20,11.0,100.0
10034,50.0,0,25,12.0,100.0
10035,62.0,1,25,12.0,100.0
10036,46.0,1,25,13.0,100.0
10037,50.0,2,20,15.0,71.0
10038,34.0,1,25,14.0,100.0
10039,81.0,5,20,10.0,88.0
10040,69.0,2,20,11.0,100.0
10041,50.0,13,20,15.0,71.0
10042,74.0,2,20,10.0,100.0
10043,62.0,2,25,12.0,100.0
10044,50.0,0,25,12.0,100.0
10045,74.0,2,20,11.0,100.0
10046,46.0,1,25,13.0,100.0
10047,34.0,1,25,14.0,100.0
10048,50.0,2,0,15.0,72.0
10049,81.0,5,20,10.0,88.0
10050,69.0,2,20,11.0,100.0
10051,62.0,5,25,12.0,100.0
10052,50.0,0,25,12.0,100.0
10053,46.0,1,25,13.0,100.0
10054,50.0,13,0,15.0,72.0
10055,34.0,5,25,14.0,100.0
10056,74.0,5,20,10.0,100.0
10057,74.0,2,20,11.0,100.0
10058,81.0,2,20,10.0,88.0
10059,62.0,2,25,12.0,100.0
10060,69.0,2,20,11.0,100.0
10061,50.0,0,25,12.0,100.0
10062,46.0,1,25,13.0,100.0
10063,34.0,1,25,14.0,100.0
10064,50.0,12,20,15.0,73.0
10065,74.0,5,20,10.0,100.0
10066,74.0,2,20,11.0,100.0
10067,50.0,0,25,12.0,100.0
10068,62.0,5,25,12.0,100.0
10069,46.0,1,25,13.0,100.0
10070,50.0,13,0,15.0,74.0
10071,34.0,5,25,14.0,100.0
10072,81.0,5,20,10.0,88.0
10073,69.0,2,20,11.0,100.0
10074,50.0,12,0,15.0,76.0
10075,74.0,2,20,10.0,100.0
10076,62.0,2,25,12.0,100.0
10077,74.0,2,20,11.0,100.0
10078,50.0,0,25,12.0,100.0
10079,46.0,1,25,13.0,100.0
10080,34.0,1,25,14.0,100.0
10081,81.0,5,20,10.0,88.0
10082,69.0,2,20,11.0,100.0
10083,50.0,0,25,12.0,100.0
10084,62.0,5,25,12.0,100.0
10085,46.0,1,25,13.0,100.0
10086,50.0,2,20,15.0,76.0
10087,34.0,5,25,14.0,100.0
10088,74.0,5,20,10.0,100.0
10089,74.0,2,20,11.0,100.0
10090,50.0,13,20,15.0,76.0
10091,81.0,2,15,10.0,88.0
10092,69.0,2,15,11.0,100.0
10093,50.0,2,25,12.0,100.0
10094,62.0,0,25,12.0,100.0
10095,46.0,1,25,13.0,100.0
10096,62.0,4,240,5.0,100.0
10097,34.0,1,25,14.0,100.0
10098,50.0,2,0,15.0,77.0
10099,74.0,5,20,10.0,100.0
10100,81.0,1,20,11.0,100.0
10101,74.0,1,30,0.0,98.0
10102,45.0,1,25,13.0,100.0
10103,62.0,0,30,1.0,97.0
10104,74.0,1,30,1.0,97.0
10105,62.0,0,30,4.0,100.0
10106,62.0,1,30,12.0,100.0
10107,33.0,5,25,14.0,100.0
10108,86.0,5,20,10.0,100.0
10109,74.0,2,20,11.0,100.0
10110,50.0,12,0,15.0,79.0
10111,74.0,2,20,10.0,100.0
10112,81.0,2,20,11.0,100.0
10113,45.0,1,25,13.0,100.0
10114,67.0,2,30,12.0,100.0
10115,33.0,1,25,14.0,100.0
10116,50.0,2,0,15.0,79.0
10117,86.0,5,20,10.0,100.0
10118,74.0,1,20,11.0,100.0
10119,45.0,1,25,13.0,100.0
10120,50.0,13,0,15.0,80.0
10121,62.0,3,30,12.0,100.0
10122,33.0,5,25,14.0,100.0
10123,74.0,5,20,10.0,100.0
10124,81.0,2,20,11.0,100.0
10125,50.0,12,0,15.0,81.0
10126,86.0,2,20,10.0,100.0
10127,74.0,2,20,11.0,100.0
10128,45.0,1,25,13.0,100.0
10129,67.0,2,30,12.0,100.0
10130,33.0,1,25,14.0,100.0
10131,50.0,2,0,15.0,81.0
10132,74.0,5,20,10.0,100.0
10133,81.0,2,20,11.0,100.0
10134,45.0,1,25,13.0,100.0
10135,62.0,5,30,12.0,100.0
10136,33.0,5,25,14.0,100.0
10137,86.0,5,20,10.0,100.0
10138,74.0,2,20,11.0,100.0
10139,79.0,1,110,0.0,113.0
10140,79.0,0,110,1.0,112.0
10141,67.0,2,110,1.0,112.0
10142,67.0,0,110,4.0,115.0
10143,50.0,13,20,15.0,83.0
10144,74.0,2,20,10.0,100.0
10145,81.0,2,20,11.0,100.0
10146,45.0,1,25,13.0,100.0
10147,67.0,2,30,12.0,100.0
10148,33.0,1,25,14.0,100.0
10149,50.0,12,20,15.0,83.0
10150,86.0,5,20,10.0,100.0
10151,74.0,1,20,11.0,100.0
10152,81.0,1,30,0.0,98.0
10153,45.0,1,25,13.0,100.0
10154,69.0,2,30,4.0,100.0
10155,81.0,0,30,1.0,97.0
10156,69.0,0,30,1.0,97.0
10157,50.0,2,20,15.0,83.0
10158,62.0,3,30,12.0,100.0
10159,33.0,5,25,14.0,100.0
10160,74.0,5,20,10.0,100.0
10161,81.0,2,20,11.0,100.0
10162,86.0,2,15,10.0,100.0
10163,50.0,12,0,15.0,86.0
10164,74.0,2,15,11.0,100.0
10165,67.0,2,25,12.0,100.0
10166,45.0,1,25,13.0,100.0
10167,62.0,1,0,6.0,120.0
10168,74.0,2,0,2.0,98.0
10169,33.0,1,25,14.0,100.0
10170,62.0,4,480,3.0,119.0
10171,50.0,2,0,15.0,94.0
10172,74.0,5,90,10.0,100.0
10173,86.0,0,90,10.0,100.0
10174,86.0,1,90,0.0,98.0
10175,77.0,0,90,11.0,100.0
10176,74.0,1,90,11.0,100.0
10177,74.0,0,90,1.0,97.0
10178,86.0,0,90,1.0,97.0
10179,77.0,0,90,2.0,98.0
10180,65.0,1,90,12.0,100.0
10181,59.0,0,90,12.0,100.0
10182,44.0,1,90,13.0,100.0
10183,65.0,4,90,3.0,99.0
10184,62.0,0,90,3.0,99.0
10185,32.0,1,90,14.0,100.0
10186,77.0,0,90,10.0,100.0
10187,89.0,105,90,10.0,100.0
10188,89.0,1,90,0.0,98.0
10189,77.0,1,90,11.0,100.0
10190,71.0,0,90,11.0,100.0
10191,62.0,0,90,11.0,100.0
10192,74.0,0,210,6.0,120.0
10193,74.0,0,90,1.0,97.0
10194,77.0,2,90,1.0,97.0
10195,62.0,1,210,4.0,100.0
10196,74.0,0,210,4.0,100.0
10197,62.0,0,90,5.0,100.0
10198,74.0,0,90,2.0,98.0
10199,65.0,2,90,5.0,100.0
10200,71.0,0,90,2.0,98.0
10201,56.0,1,90,12.0,100.0
10202,65.0,0,90,12.0,100.0
10203,44.0,0,90,3.0,99.0
10204,56.0,5,90,3.0,99.0
10205,50.0,3,120,15.0,94.0
10206,47.0,113,90,13.0,100.0
10207,35.0,5,90,14.0,100.0
10208,80.0,107,90,10.0,100.0
10209,74.0,0,90,10.0,100.0
10210,62.0,0,90,10.0,100.0
10211,80.0,0,90,0.0,98.0
10212,77.0,1,90,0.0,98.0
10213,74.0,0,90,11.0,100.0
10214,77.0,1,90,11.0,100.0
10215,74.0,0,90,6.0,120.0
10216,62.0,1,90,6.0,120.0
10217,62.0,1,90,4.0,100.0
10218,80.0,0,90,1.0,97.0
10219,77.0,0,90,1.0,97.0
10220,62.0,0,90,5.0,100.0
10221,68.0,2,90,2.0,98.0
10222,65.0,0,90,5.0,100.0
10223,74.0,0,90,2.0,98.0
10224,65.0,1,90,12.0,100.0
10225,59.0,0,90,12.0,100.0
10226,47.0,5,90,3.0,99.0
10227,59.0,0,90,3.0,99.0
10228,45.0,0,3,15.0,120.0
10229,45.0,2,1,15.0,93.0
10230,50.0,3,120,15.0,100.0
10231,45.0,2,3,15.0,94.0
10232,45.0,3,0,15.0,94.0
10233,45.0,3,0,15.0,93.0
10234,45.0,3,0,15.0,94.0
10235,45.0,3,0,15.0,96.0
10236,45.0,3,0,15.0,96.0
10237,45.0,4,3,15.0,94.0
10238,45.0,3,0,15.0,94.0
10239,45.0,3,0,15.0,94.0
10240,45.0,3,0,15.0,96.0
10241,45.0,3,3,15.0,97.0
10242,45.0,3,3,15.0,97.0
10243,45.0,3,0,15.0,96.0
10244,45.0,3,0,15.0,98.0
10245,45.0,3,3,15.0,98.0
10246,45.0,4,3,15.0,96.0
10247,45.0,3,0,15.0,97.0
10248,45.0,3,0,15.0,97.0
10249,45.0,4,3,15.0,98.0
10250,45.0,3,3,15.0,98.0
10251,45.0,3,3,15.0,96.0
10252,45.0,3,3,15.0,90.0
10253,45.0,3,0,15.0,76.0
10254,45.0,3,0,15.0,70.0
10255,81.0,0,120,10.0,90.0
10256,74.0,0,120,10.0,90.0
10257,65.0,105,120,10.0,90.0
10258,45.0,3,5,15.0,64.0
10259,77.0,1,120,0.0,98.0
10260,81.0,0,120,0.0,98.0
10261,62.0,1,120,11.0,90.0
10262,81.0,0,120,11.0,90.0
10263,69.0,0,120,11.0,90.0
10264,69.0,1,120,6.0,127.0
10265,57.0,0,120,6.0,127.0
10266,57.0,0,120,4.0,115.0
10267,69.0,1,120,4.0,115.0
10268,81.0,0,120,1.0,97.0
10269,77.0,0,120,1.0,97.0
10270,62.0,0,120,5.0,115.0
10271,69.0,0,120,2.0,98.0
10272,65.0,0,120,5.0,115.0
10273,74.0,2,120,2.0,98.0
10274,65.0,0,120,12.0,100.0
10275,57.0,1,120,12.0,100.0
10276,45.0,1,120,13.0,100.0
10277,57.0,2,120,3.0,99.0
10278,45.0,0,120,3.0,99.0
10279,33.0,1,120,14.0,100.0
10280,45.0,1,20,8.0,115.0
10281,50.0,20,20,8.0,106.0
10282,53.0,20,20,8.0,106.0
10283,50.0,20,20,8.0,115.0
10284,53.0,20,20,8.0,106.0
10285,57.0,20,20,8.0,106.0
10286,53.0,0,20,8.0,115.0
10287,57.0,20,20,8.0,106.0
10288,62.0,20,20,8.0,106.0
10289,57.0,20,20,8.0,115.0
10290,62.0,20,20,8.0,106.0
10291,33.0,124,240,8.0,106.0
10292,65.0,20,20,8.0,106.0
10293,62.0,20,20,7.0,115.0
10294,65.0,20,20,7.0,106.0
10295,69.0,20,20,7.0,106.0
10296,65.0,20,20,7.0,115.0
10297,69.0,20,20,7.0,106.0
10298,74.0,20,20,7.0,106.0
10299,69.0,20,20,7.0,115.0
10300,74.0,20,20,7.0,106.0
10301,77.0,20,20,7.0,109.0
10302,74.0,20,20,7.0,117.0
10303,77.0,20,20,7.0,111.0
10304,81.0,20,20,7.0,111.0
10305,79.0,20,20,7.0,119.0
10306,77.0,20,20,7.0,113.0
10307,76.0,20,20,7.0,114.0
10308,74.0,20,20,7.0,121.0
10309,77.0,20,20,7.0,115.0
10310,81.0,20,20,7.0,116.0
10311,79.0,20,20,7.0,125.0
10312,77.0,20,20,7.0,117.0
10313,76.0,20,20,7.0,118.0
10314,74.0,20,20,7.0,127.0
10315,77.0,20,20,7.0,111.0
10316,81.0,20,20,7.0,95.0
10317,53.0,0,480,8.0,106.0
10318,45.0,20,600,8.0,106.0
10319,45.0,20,20,8.0,115.0
10320,50.0,18,20,8.0,106.0
10321,53.0,20,20,8.0,106.0
10322,50.0,20,20,8.0,115.0
10323,53.0,20,20,8.0,106.0
10324,59.0,20,20,8.0,106.0
10325,53.0,20,20,8.0,115.0
10326,59.0,18,20,8.0,106.0
10327,62.0,20,20,8.0,106.0
10328,59.0,20,20,8.0,115.0
10329,62.0,20,20,8.0,106.0
10330,65.0,20,20,8.0,106.0
10331,33.0,2,240,8.0,106.0
10332,62.0,0,20,7.0,115.0
10333,65.0,20,20,7.0,106.0
10334,71.0,20,20,7.0,106.0
10335,65.0,20,20,7.0,115.0
10336,71.0,20,20,7.0,106.0
10337,74.0,20,20,7.0,106.0
10338,71.0,20,20,7.0,115.0
10339,74.0,20,20,7.0,106.0
10340,77.0,20,20,7.0,109.0
10341,74.0,20,20,7.0,117.0
10342,77.0,20,20,7.0,111.0
10343,83.0,20,20,7.0,111.0
10344,79.0,20,20,7.0,119.0
10345,77.0,20,20,7.0,113.0
10346,76.0,20,20,7.0,114.0
10347,74.0,20,20,7.0,121.0
10348,77.0,20,20,7.0,115.0
10349,83.0,20,20,7.0,116.0
10350,79.0,20,20,7.0,125.0
10351,77.0,20,20,7.0,117.0
10352,76.0,20,20,7.0,118.0
10353,74.0,20,20,7.0,127.0
10354,77.0,20,20,7.0,111.0
10355,83.0,20,20,7.0,95.0
10356,56.0,20,480,8.0,106.0
10357,45.0,2,600,8.0,106.0
10358,49.0,20,20,8.0,115.0
10359,52.0,18,20,8.0,106.0
10360,55.0,20,20,8.0,106.0
10361,52.0,20,20,8.0,115.0
10362,55.0,20,20,8.0,106.0
10363,61.0,20,20,8.0,106.0
10364,55.0,0,20,8.0,115.0
10365,61.0,20,20,8.0,106.0
10366,64.0,20,20,8.0,106.0
10367,61.0,20,20,8.0,115.0
10368,64.0,20,20,8.0,106.0
10369,67.0,20,20,8.0,106.0
10370,33.0,2,240,8.0,106.0
10371,64.0,20,20,7.0,115.0
10372,67.0,20,20,7.0,106.0
10373,70.0,20,20,7.0,106.0
10374,45.0,20,180,8.0,106.0
10375,61.0,0,60,8.0,106.0
10376,67.0,20,20,7.0,115.0
10377,70.0,20,20,7.0,106.0
10378,76.0,20,20,7.0,106.0
10379,70.0,20,20,7.0,115.0
10380,76.0,18,20,7.0,106.0
10381,79.0,20,20,7.0,106.0
10382,76.0,20,20,7.0,115.0
10383,79.0,20,20,7.0,106.0
10384,82.0,20,20,7.0,106.0
10385,81.0,20,20,7.0,115.0
10386,79.0,18,20,7.0,106.0
10387,77.0,20,20,7.0,106.0
10388,76.0,20,20,7.0,114.0
10389,79.0,20,20,7.0,106.0
10390,82.0,20,20,7.0,105.0
10391,81.0,20,24,7.0,113.0
10392,79.0,24,24,7.0,104.0
10393,77.0,24,24,7.0,104.0
10394,76.0,24,24,7.0,103.0
10395,79.0,24,24,7.0,103.0
10396,73.0,2,240,8.0,106.0
10397,82.0,24,30,7.0,111.0
10398,75.0,28,30,7.0,102.0
10399,78.0,30,30,7.0,102.0
10400,82.0,30,30,7.0,100.0
10401,75.0,30,30,7.0,100.0
10402,78.0,30,30,7.0,99.0
10403,82.0,30,30,7.0,98.0
10404,74.0,30,30,7.0,98.0
10405,72.0,2,240,8.0,102.0
10406,78.0,30,30,7.0,110.0
10407,82.0,28,30,7.0,98.0
10408,74.0,30,30,7.0,98.0
10409,78.0,30,30,7.0,97.0
10410,82.0,30,30,7.0,96.0
10411,74.0,30,30,7.0,96.0
10412,78.0,30,30,7.0,95.0
10413,79.0,30,30,7.0,94.0
10414,71.0,2,240,8.0,98.0
10415,73.0,30,30,7.0,104.0
10416,76.0,28,30,7.0,94.0
10417,79.0,30,30,7.0,93.0
10418,73.0,30,30,7.0,92.0
10419,70.0,2,120,8.0,90.0
10420,74.0,30,30,7.0,100.0
10421,78.0,28,30,7.0,90.0
10422,73.0,30,30,7.0,90.0
10423,74.0,30,30,7.0,90.0
10424,69.0,2,120,8.0,86.0
10425,77.0,30,30,7.0,98.0
10426,71.0,28,30,7.0,88.0
10427,74.0,30,30,7.0,87.0
10428,77.0,30,30,7.0,87.0
10429,68.0,2,120,8.0,83.0
10430,70.0,30,30,7.0,96.0
10431,73.0,28,30,7.0,85.0
10432,76.0,30,30,7.0,84.0
10433,69.0,30,30,7.0,83.0
10434,67.0,2,120,8.0,79.0
10435,73.0,30,30,7.0,92.0
10436,76.0,28,30,7.0,82.0
10437,69.0,30,30,7.0,81.0
10438,73.0,30,30,7.0,81.0
10439,66.0,2,120,8.0,75.0
10440,74.0,30,30,7.0,89.0
10441,68.0,28,30,7.0,80.0
10442,71.0,30,30,7.0,79.0
10443,74.0,30,30,7.0,78.0
10444,65.0,2,120,8.0,70.0
10445,64.0,30,30,7.0,85.0
10446,69.0,30,30,7.0,76.0
10447,74.0,30,30,7.0,76.0
10448,73.0,30,30,7.0,75.0
10449,62.0,30,30,7.0,82.0
10450,68.0,30,30,7.0,73.0
10451,73.0,30,30,7.0,72.0
10452,71.0,30,30,7.0,72.0
10453,61.0,30,30,7.0,80.0
10454,64.0,30,30,7.0,72.0
10455,71.0,30,30,7.0,74.0
10456,69.0,30,30,7.0,76.0
10457,57.0,2,1920,8.0,106.0
10458,71.0,30,30,7.0,85.0
10459,69.0,30,30,7.0,79.0
10460,71.0,30,30,7.0,81.0
10461,69.0,30,30,7.0,81.0
10462,74.0,30,20,7.0,92.0
10463,73.0,20,20,7.0,84.0
10464,74.0,20,20,7.0,85.0
10465,73.0,20,20,7.0,86.0
10466,74.0,20,20,7.0,87.0
10467,73.0,20,20,7.0,88.0
10468,77.0,20,15,7.0,99.0
10469,76.0,15,15,7.0,90.0
10470,77.0,15,15,7.0,90.0
10471,76.0,15,15,7.0,91.0
10472,77.0,15,15,7.0,92.0
10473,76.0,15,15,7.0,93.0
10474,77.0,15,15,7.0,94.0
10475,76.0,15,15,7.0,94.0
10476,81.0,15,15,7.0,105.0
10477,79.0,15,15,7.0,96.0
10478,81.0,15,15,7.0,97.0
10479,79.0,15,15,7.0,98.0
10480,81.0,15,15,7.0,98.0
10481,79.0,15,15,7.0,98.0
10482,81.0,15,15,7.0,98.0
10483,79.0,15,15,7.0,99.0
10484,81.0,15,15,7.0,100.0
10485,80.0,15,15,7.0,102.0
10486,81.0,15,15,7.0,102.0
10487,80.0,15,15,7.0,102.0
10488,81.0,15,15,7.0,103.0
10489,80.0,15,15,7.0,104.0
10490,81.0,15,15,7.0,105.0
10491,80.0,15,15,7.0,106.0
10492,83.0,15,15,7.0,115.0
10493,81.0,15,15,7.0,106.0
10494,33.0,0,30,8.0,104.0
10495,83.0,0,15,7.0,106.0
10496,81.0,15,15,7.0,106.0
10497,45.0,15,30,8.0,90.0
10498,83.0,15,15,7.0,106.0
10499,49.0,0,30,8.0,91.0
10500,81.0,15,15,7.0,106.0
10501,83.0,15,15,7.0,106.0
10502,52.0,0,30,8.0,93.0
10503,81.0,15,15,7.0,106.0
10504,83.0,0,15,7.0,106.0
10505,55.0,15,20,8.0,94.0
10506,81.0,15,15,7.0,106.0
10507,61.0,5,20,8.0,94.0
10508,83.0,10,15,7.0,106.0
10509,81.0,5,15,7.0,106.0
10510,64.0,10,20,8.0,95.0
10511,83.0,15,15,7.0,106.0
10512,67.0,0,20,8.0,96.0
10513,81.0,15,15,7.0,106.0
10514,73.0,5,20,8.0,97.0
10515,83.0,10,15,7.0,106.0
10516,81.0,5,15,7.0,106.0
10517,76.0,10,20,8.0,98.0
10518,83.0,15,15,7.0,106.0
10519,81.0,15,15,7.0,102.0
10520,83.0,15,15,7.0,98.0
10521,79.0,0,60,8.0,98.0
10522,81.0,15,15,7.0,94.0
10523,83.0,15,15,7.0,90.0
10524,81.0,15,15,7.0,85.0
10525,83.0,15,15,7.0,81.0
10526,44.0,0,60,8.0,72.0
10527,56.0,0,60,8.0,72.0
10528,81.0,15,15,7.0,81.0
10529,83.0,0,15,7.0,81.0
10530,81.0,15,15,7.0,81.0
10531,83.0,15,15,7.0,82.0
10532,81.0,15,15,7.0,83.0
10533,57.0,15,60,8.0,84.0
10534,83.0,15,15,7.0,83.0
10535,81.0,15,15,7.0,84.0
10536,83.0,15,15,7.0,85.0
10537,81.0,15,15,7.0,86.0
10538,48.0,0,60,8.0,81.0
10539,60.0,0,60,8.0,81.0
10540,83.0,0,15,7.0,86.0
10541,81.0,15,15,7.0,87.0
10542,83.0,15,15,7.0,88.0
10543,61.0,15,60,8.0,97.0
10544,49.0,0,60,8.0,97.0
10545,81.0,15,15,7.0,89.0
10546,83.0,0,15,7.0,89.0
10547,81.0,15,15,7.0,90.0
10548,83.0,15,15,7.0,90.0
10549,81.0,15,15,7.0,91.0
10550,45.0,15,0,8.0,106.0
10551,63.0,0,60,8.0,91.0
10552,51.0,15,60,8.0,91.0
10553,79.0,0,15,7.0,91.0
10554,81.0,1,15,7.0,92.0
10555,79.0,15,15,7.0,93.0
10556,81.0,15,15,7.0,94.0
10557,52.0,7,60,8.0,109.0
10558,64.0,7,60,8.0,109.0
10559,79.0,0,15,7.0,94.0
10560,81.0,15,15,7.0,95.0
10561,79.0,15,15,7.0,96.0
10562,81.0,15,15,7.0,97.0
10563,68.0,0,60,8.0,102.0
10564,56.0,15,60,8.0,102.0
10565,79.0,0,15,7.0,97.0
10566,81.0,15,15,7.0,98.0
10567,79.0,15,15,7.0,98.0
10568,81.0,15,15,7.0,98.0
10569,57.0,15,60,8.0,106.0
10570,69.0,0,60,8.0,106.0
10571,79.0,15,20,7.0,98.0
10572,81.0,19,20,7.0,99.0
10573,79.0,20,20,7.0,100.0
10574,45.0,21,0,8.0,115.0
10575,49.0,0,60,8.0,106.0
10576,61.0,0,60,8.0,106.0
10577,78.0,0,15,7.0,102.0
10578,79.0,1,15,7.0,102.0
10579,78.0,15,15,7.0,103.0
10580,79.0,15,15,7.0,104.0
10581,50.0,7,60,8.0,115.0
10582,62.0,7,60,8.0,115.0
10583,78.0,15,15,7.0,104.0
10584,79.0,15,15,7.0,105.0
10585,78.0,15,15,7.0,106.0
10586,79.0,15,15,7.0,106.0
10587,69.0,0,60,8.0,106.0
10588,57.0,0,60,8.0,106.0
10589,78.0,15,15,7.0,106.0
10590,79.0,15,15,7.0,106.0
10591,78.0,15,15,7.0,106.0
10592,59.0,0,60,8.0,106.0
10593,79.0,15,15,7.0,106.0
10594,71.0,0,60,8.0,106.0
10595,78.0,0,20,7.0,106.0
10596,79.0,19,20,7.0,106.0
10597,78.0,20,20,7.0,106.0
10598,51.0,0,60,8.0,106.0
10599,63.0,15,60,8.0,106.0
10600,76.0,21,15,7.0,106.0
10601,78.0,1,15,7.0,106.0
10602,76.0,15,15,7.0,106.0
10603,78.0,15,15,7.0,106.0
10604,52.0,7,60,8.0,115.0
10605,64.0,7,60,8.0,115.0
10606,76.0,15,20,7.0,106.0
10607,78.0,20,20,7.0,106.0
10608,76.0,20,20,7.0,106.0
10609,43.0,0,120,8.0,115.0
10610,83.0,20,15,7.0,106.0
10611,84.0,15,15,7.0,106.0
10612,83.0,15,15,7.0,106.0
10613,84.0,15,15,7.0,106.0
10614,61.0,0,120,8.0,115.0
10615,73.0,0,0,8.0,106.0
10616,83.0,15,20,7.0,106.0
10617,84.0,19,20,7.0,106.0
10618,83.0,20,20,7.0,106.0
10619,61.0,0,60,8.0,106.0
10620,81.0,21,15,7.0,106.0
10621,83.0,15,15,7.0,106.0
10622,81.0,15,15,7.0,106.0
10623,83.0,15,15,7.0,106.0
10624,64.0,0,60,8.0,115.0
10625,76.0,0,60,8.0,115.0
10626,81.0,15,15,7.0,106.0
10627,83.0,15,15,7.0,106.0
10628,81.0,15,15,7.0,106.0
10629,74.0,0,60,8.0,106.0
10630,62.0,0,60,8.0,106.0
10631,83.0,15,15,7.0,106.0
10632,81.0,0,15,7.0,106.0
10633,83.0,15,15,7.0,106.0
10634,81.0,15,15,7.0,106.0
10635,61.0,0,60,8.0,115.0
10636,73.0,15,60,8.0,115.0
10637,83.0,15,15,7.0,106.0
10638,81.0,15,20,7.0,106.0
10639,83.0,20,20,7.0,106.0
10640,81.0,20,20,7.0,106.0
10641,74.0,0,60,8.0,106.0
10642,42.0,0,360,8.0,106.0
10643,62.0,0,60,8.0,106.0
10644,54.0,0,360,8.0,106.0
10645,79.0,20,24,7.0,106.0
10646,78.0,24,24,7.0,106.0
10647,71.0,0,60,8.0,115.0
10648,59.0,0,60,8.0,115.0
10649,81.0,24,24,7.0,106.0
10650,79.0,12,24,7.0,106.0
10651,43.0,0,120,8.0,115.0
10652,67.0,12,60,8.0,106.0
10653,55.0,0,60,8.0,106.0
10654,76.0,24,24,7.0,106.0
10655,74.0,4,20,7.0,85.0
10656,76.0,17,40,7.0,89.0
10657,73.0,40,40,7.0,92.0
10658,74.0,40,40,7.0,96.0
10659,76.0,40,40,7.0,98.0
10660,78.0,40,40,7.0,102.0
10661,79.0,40,40,7.0,106.0
10662,80.0,40,40,7.0,109.0
10663,81.0,40,40,7.0,111.0
10664,83.0,40,40,7.0,112.0
10665,80.0,40,50,7.0,115.0
10666,45.0,19,480,8.0,95.0
10667,54.0,6,480,8.0,95.0
10668,57.0,6,480,8.0,96.0
10669,66.0,6,480,8.0,96.0
10670,69.0,6,0,8.0,97.0
10671,81.0,50,70,7.0,117.0
10672,83.0,21,40,7.0,88.0
10673,85.0,40,40,7.0,91.0
10674,86.0,40,40,7.0,95.0
10675,88.0,40,40,7.0,98.0
10676,89.0,40,40,7.0,100.0
10677,91.0,40,40,7.0,104.0
10678,92.0,40,40,7.0,106.0
10679,93.0,40,40,7.0,110.0
10680,94.0,40,35,7.0,111.0
10681,92.0,40,50,7.0,113.0
10682,45.0,25,480,8.0,71.0
10683,53.0,6,480,8.0,74.0
10684,57.0,6,480,8.0,79.0
10685,65.0,6,480,8.0,82.0
10686,93.0,50,50,7.0,115.0
10687,90.0,1,25,7.0,98.0
10688,91.0,16,40,7.0,103.0
10689,88.0,40,40,7.0,115.0
10690,85.0,40,40,7.0,115.0
10691,81.0,40,40,7.0,113.0
10692,45.0,30,240,8.0,66.0
10693,79.0,40,40,7.0,110.0
10694,52.0,6,240,8.0,72.0
10695,57.0,6,240,8.0,76.0
10696,64.0,6,240,8.0,82.0
10697,69.0,5,240,8.0,98.0
10698,76.0,40,40,7.0,109.0
10699,73.0,40,40,7.0,99.0
10700,69.0,40,40,7.0,90.0
10701,67.0,40,40,7.0,82.0
10702,64.0,40,40,7.0,75.0
10703,61.0,40,40,7.0,67.0
10704,57.0,40,60,8.0,65.0
10705,55.0,60,60,8.0,62.0
10706,52.0,60,60,8.0,60.0
10707,49.0,60,60,8.0,59.0
10708,45.0,60,80,8.0,55.0
10709,43.0,80,80,8.0,51.0
10710,40.0,80,80,8.0,48.0
10711,50.0,9,1,15.0,37.0
10712,50.0,10,0,15.0,38.0
10713,50.0,11,10,15.0,38.0
10714,54.0,0,60,4.0,77.0
10715,50.0,1,0,15.0,40.0
10716,50.0,9,1,15.0,39.0
10717,50.0,8,2,15.0,38.0
10718,50.0,10,0,15.0,38.0
10719,50.0,10,0,15.0,38.0
10720,38.0,80,120,8.0,59.0
10721,57.0,9,60,4.0,77.0
10722,50.0,8,2,15.0,38.0
10723,50.0,10,10,15.0,38.0
10724,50.0,11,10,15.0,38.0
10725,50.0,10,10,15.0,38.0
10726,62.0,10,60,4.0,77.0
10727,50.0,10,10,15.0,38.0
10728,50.0,1,10,15.0,38.0
10729,50.0,10,10,15.0,39.0
10730,50.0,11,10,15.0,38.0
10731,50.0,10,10,15.0,38.0
10732,50.0,10,10,15.0,40.0
10733,66.0,9,60,4.0,77.0
10734,50.0,2,0,15.0,37.0
10735,50.0,4,240,13.0,100.0
10736,38.0,5,240,14.0,100.0
10737,50.0,3,10,15.0,37.0
10738,50.0,10,0,15.0,40.0
10739,50.0,9,1,15.0,38.0
10740,54.0,4,60,2.0,75.0
10741,50.0,5,1,15.0,37.0
10742,54.0,4,60,3.0,76.0
10743,50.0,9,1,15.0,37.0
10744,50.0,8,2,15.0,38.0
10745,57.0,4,60,2.0,75.0
10746,50.0,11,10,15.0,38.0
10747,57.0,7,60,3.0,76.0
10748,50.0,6,10,15.0,40.0
10749,50.0,9,1,15.0,38.0
10750,50.0,9,1,15.0,38.0
10751,69.0,4,175,4.0,77.0
10752,62.0,4,60,2.0,75.0
10753,50.0,11,10,15.0,38.0
10754,62.0,6,60,3.0,76.0
10755,50.0,3,10,15.0,38.0
10756,50.0,5,10,15.0,38.0
10757,50.0,9,1,15.0,38.0
10758,50.0,11,10,15.0,40.0
10759,66.0,3,60,2.0,75.0
10760,62.0,4,60,4.0,77.0
10761,50.0,10,10,15.0,39.0
10762,48.0,2,240,13.0,100.0
10763,66.0,5,60,3.0,76.0
10764,36.0,1,240,14.0,100.0
10765,50.0,3,10,15.0,38.0
10766,50.0,10,0,15.0,39.0
10767,50.0,9,1,15.0,39.0
10768,50.0,9,1,15.0,37.0
10769,50.0,9,1,15.0,38.0
10770,50.0,8,2,15.0,39.0
10771,67.0,4,115,4.0,77.0
10772,50.0,2,0,15.0,39.0
10773,50.0,9,1,15.0,38.0
10774,50.0,9,1,15.0,40.0
10775,74.0,3,175,2.0,75.0
10776,66.0,8,55,4.0,77.0
10777,50.0,11,10,15.0,38.0
10778,69.0,4,175,3.0,76.0
10779,50.0,3,10,15.0,38.0
10780,50.0,5,10,15.0,38.0
10781,50.0,9,1,15.0,37.0
10782,74.0,3,55,2.0,75.0
10783,50.0,10,0,15.0,39.0
10784,64.0,0,55,4.0,77.0
10785,50.0,4,715,4.0,64.0
10786,74.0,4,60,1.0,74.0
10787,69.0,5,55,3.0,76.0
10788,47.0,4,240,13.0,100.0
10789,35.0,1,240,14.0,100.0
10790,45.0,10,0,15.0,37.0
10791,45.0,9,1,15.0,37.0
10792,45.0,10,0,15.0,38.0
10793,45.0,9,1,15.0,38.0
10794,45.0,9,1,15.0,39.0
10795,45.0,9,1,15.0,38.0
10796,64.0,0,115,2.0,75.0
10797,74.0,3,115,2.0,75.0
10798,79.0,0,115,1.0,74.0
10799,64.0,4,120,4.0,77.0
10800,64.0,4,115,3.0,76.0
10801,45.0,4,120,13.0,100.0
10802,33.0,1,120,14.0,100.0
10803,45.0,1,1,15.0,38.0
10804,45.0,9,1,15.0,40.0
10805,45.0,12,10,15.0,40.0
10806,78.0,0,60,1.0,74.0
10807,45.0,8,2,15.0,42.0
10808,45.0,9,1,15.0,42.0
10809,45.0,10,10,15.0,39.0
10810,69.0,6,115,2.0,75.0
10811,73.0,0,115,2.0,75.0
10812,45.0,9,1,15.0,42.0
10813,76.0,0,55,1.0,74.0
10814,43.0,3,115,13.0,100.0
10815,57.0,4,115,3.0,76.0
10816,31.0,1,115,14.0,100.0
10817,45.0,1,10,15.0,40.0
10818,45.0,9,1,15.0,42.0
10819,45.0,11,10,15.0,42.0
10820,45.0,9,1,15.0,42.0
10821,69.0,1,60,0.0,91.0
10822,45.0,10,0,15.0,42.0
10823,45.0,9,1,15.0,42.0
10824,45.0,10,0,15.0,43.0
10825,74.0,6,60,0.0,90.0
10826,45.0,5,1,15.0,43.0
10827,45.0,8,2,15.0,43.0
10828,45.0,10,10,15.0,43.0
10829,45.0,10,10,15.0,43.0
10830,78.0,4,60,0.0,89.0
10831,45.0,11,10,15.0,43.0
10832,45.0,9,1,15.0,45.0
10833,45.0,10,0,15.0,43.0
10834,45.0,10,10,15.0,45.0
10835,81.0,5,55,0.0,89.0
10836,45.0,9,1,15.0,45.0
10837,57.0,0,475,4.0,64.0
10838,42.0,3,240,13.0,100.0
10839,54.0,4,240,3.0,76.0
10840,30.0,1,240,14.0,100.0
10841,45.0,3,1,15.0,45.0
10842,45.0,9,1,15.0,45.0
10843,45.0,11,10,15.0,46.0
10844,45.0,9,1,15.0,45.0
10845,69.0,0,60,1.0,58.0
10846,45.0,2,10,15.0,46.0
10847,45.0,9,1,15.0,45.0
10848,45.0,10,0,15.0,47.0
10849,69.0,5,355,2.0,75.0
10850,74.0,9,60,1.0,62.0
10851,45.0,2,1,15.0,47.0
10852,45.0,8,2,15.0,46.0
10853,45.0,10,0,15.0,49.0
10854,45.0,10,0,15.0,47.0
10855,83.0,5,175,0.0,88.0
10856,81.0,3,415,1.0,74.0
10857,77.0,4,60,1.0,67.0
10858,45.0,11,10,15.0,46.0
10859,45.0,9,1,15.0,49.0
10860,45.0,10,0,15.0,47.0
10861,62.0,3,115,2.0,75.0
10862,74.0,0,475,2.0,75.0
10863,83.0,5,55,0.0,86.0
10864,45.0,9,1,15.0,49.0
10865,69.0,4,595,4.0,77.0
10866,81.0,3,55,1.0,70.0
10867,62.0,3,240,4.0,77.0
10868,41.0,1,240,13.0,100.0
10869,53.0,4,240,3.0,76.0
10870,29.0,1,240,14.0,100.0
10871,45.0,3,10,15.0,49.0
10872,50.0,1,10,15.0,49.0
10873,50.0,9,1,15.0,49.0
10874,64.0,4,51,2.0,75.0
10875,50.0,10,10,15.0,49.0
10876,50.0,4,1,15.0,50.0
10877,50.0,10,10,15.0,49.0
10878,50.0,11,10,15.0,49.0
10879,50.0,10,0,15.0,50.0
10880,68.0,5,51,2.0,75.0
10881,50.0,9,1,15.0,49.0
10882,83.0,1,115,0.0,86.0
10883,62.0,3,115,4.0,64.0
10884,50.0,3,0,15.0,50.0
10885,50.0,10,10,15.0,49.0
10886,50.0,9,1,15.0,50.0
10887,50.0,10,0,15.0,52.0
10888,69.0,6,51,2.0,75.0
10889,85.0,1,60,0.0,84.0
10890,50.0,3,1,15.0,52.0
10891,50.0,10,0,15.0,52.0
10892,50.0,11,10,15.0,52.0
10893,50.0,10,0,15.0,52.0
10894,71.0,5,51,2.0,75.0
10895,50.0,9,1,15.0,52.0
10896,74.0,0,235,2.0,75.0
10897,64.0,0,115,4.0,64.0
10898,83.0,0,60,0.0,83.0
10899,86.0,1,60,0.0,83.0
10900,80.0,0,240,1.0,74.0
10901,50.0,3,0,15.0,53.0
10902,62.0,0,715,3.0,76.0
10903,40.0,1,240,13.0,100.0
10904,52.0,4,240,3.0,76.0
10905,28.0,1,240,14.0,100.0
10906,45.0,9,1,15.0,55.0
10907,45.0,11,10,15.0,54.0
10908,45.0,9,1,15.0,54.0
10909,73.0,6,60,2.0,75.0
10910,76.0,0,180,1.0,74.0
10911,45.0,2,10,15.0,53.0
10912,45.0,9,1,15.0,52.0
10913,45.0,11,10,15.0,52.0
10914,88.0,1,115,0.0,83.0
10915,45.0,10,10,15.0,50.0
10916,73.0,4,55,1.0,74.0
10917,79.0,0,115,1.0,74.0
10918,76.0,5,60,2.0,75.0
10919,45.0,2,1,15.0,49.0
10920,45.0,8,2,15.0,49.0
10921,45.0,10,10,15.0,49.0
10922,78.0,3,51,2.0,75.0
10923,90.0,1,51,0.0,82.0
10924,78.0,3,51,1.0,74.0
10925,45.0,10,10,15.0,47.0
10926,69.0,0,51,1.0,74.0
10927,45.0,11,10,15.0,47.0
10928,45.0,9,1,15.0,46.0
10929,45.0,10,10,15.0,47.0
10930,45.0,10,10,15.0,45.0
10931,79.0,4,51,2.0,75.0
10932,91.0,1,51,0.0,81.0
10933,76.0,3,51,1.0,74.0
10934,67.0,0,51,1.0,74.0
10935,69.0,0,235,2.0,75.0
10936,81.0,0,235,0.0,83.0
10937,45.0,9,1,15.0,45.0
10938,57.0,0,235,4.0,64.0
10939,64.0,0,235,4.0,64.0
10940,45.0,4,235,13.0,100.0
10941,57.0,0,235,3.0,76.0
10942,61.0,4,235,3.0,76.0
10943,33.0,1,235,14.0,100.0
10944,45.0,3,10,15.0,43.0
10945,48.0,1,10,13.0,115.0
10946,50.0,2,0,15.0,42.0
10947,48.0,8,10,13.0,112.0
10948,50.0,10,0,15.0,42.0
10949,50.0,7,0,15.0,42.0
10950,48.0,3,10,13.0,108.0
10951,81.0,4,60,2.0,75.0
10952,66.0,0,60,2.0,75.0
10953,48.0,8,10,13.0,104.0
10954,50.0,10,0,15.0,43.0
10955,62.0,4,60,3.0,76.0
10956,50.0,0,60,3.0,76.0
10957,50.0,6,1,15.0,43.0
10958,48.0,3,10,13.0,100.0
10959,50.0,1,0,15.0,43.0
10960,48.0,9,10,13.0,100.0
10961,50.0,2,0,15.0,43.0
10962,54.0,8,15,8.0,60.0
10963,48.0,4,10,13.0,100.0
10964,93.0,1,115,0.0,80.0
10965,50.0,1,2,15.0,43.0
10966,81.0,0,115,0.0,80.0
10967,66.0,0,115,1.0,74.0
10968,74.0,3,115,1.0,74.0
10969,62.0,0,15,8.0,76.0
10970,48.0,7,10,13.0,100.0
10971,50.0,0,0,15.0,42.0
10972,36.0,1,115,14.0,115.0
10973,69.0,7,15,7.0,80.0
10974,47.0,4,10,13.0,100.0
10975,50.0,1,10,15.0,42.0
10976,66.0,1,15,7.0,83.0
10977,47.0,8,10,13.0,100.0
10978,50.0,6,0,15.0,42.0
10979,74.0,4,15,7.0,88.0
10980,47.0,3,10,13.0,100.0
10981,50.0,1,10,15.0,42.0
10982,81.0,6,15,7.0,85.0
10983,47.0,8,10,13.0,100.0
10984,50.0,2,10,15.0,40.0
10985,35.0,5,55,14.0,100.0
10986,50.0,3,0,15.0,42.0
10987,78.0,6,15,7.0,81.0
10988,45.0,2,10,13.0,100.0
10989,86.0,0,15,7.0,77.0
10990,45.0,7,10,13.0,100.0
10991,50.0,4,1,15.0,42.0
10992,50.0,7,0,15.0,42.0
10993,93.0,5,15,7.0,73.0
10994,45.0,3,10,13.0,100.0
10995,45.0,8,10,13.0,100.0
10996,50.0,10,0,15.0,40.0
10997,33.0,5,55,14.0,100.0
10998,50.0,2,1,15.0,42.0
10999,48.0,2,10,13.0,115.0
11000,48.0,8,10,13.0,110.0
11001,50.0,9,1,15.0,39.0
11002,48.0,3,10,13.0,105.0
11003,50.0,7,10,15.0,42.0
11004,48.0,8,10,13.0,100.0
11005,50.0,9,1,15.0,42.0
11006,50.0,6,2,15.0,42.0
11007,48.0,2,10,13.0,100.0
11008,48.0,9,10,13.0,100.0
11009,50.0,1,0,15.0,39.0
11010,48.0,4,10,13.0,100.0
11011,54.0,9,15,8.0,60.0
11012,50.0,1,2,15.0,39.0
11013,62.0,8,15,8.0,77.0
11014,48.0,7,10,13.0,100.0
11015,50.0,5,0,15.0,38.0
11016,36.0,5,115,14.0,115.0
11017,69.0,5,15,7.0,80.0
11018,47.0,4,10,13.0,100.0
11019,50.0,1,10,15.0,39.0
11020,66.0,1,15,7.0,85.0
11021,47.0,8,10,13.0,100.0
11022,50.0,2,10,15.0,40.0
11023,50.0,7,0,15.0,40.0
11024,74.0,6,15,7.0,88.0
11025,47.0,3,10,13.0,100.0
11026,50.0,2,0,15.0,39.0
11027,81.0,1,15,7.0,85.0
11028,47.0,7,10,13.0,100.0
11029,35.0,5,55,14.0,100.0
11030,78.0,4,15,7.0,81.0
11031,50.0,2,0,15.0,39.0
11032,45.0,2,10,13.0,100.0
11033,86.0,1,15,7.0,78.0
11034,45.0,7,10,13.0,100.0
11035,50.0,5,1,15.0,38.0
11036,93.0,4,15,7.0,73.0
11037,45.0,3,10,13.0,100.0
11038,50.0,7,10,15.0,38.0
11039,45.0,8,10,13.0,100.0
11040,50.0,0,480,4.0,64.0
11041,62.0,0,480,4.0,64.0
11042,50.0,3,10,15.0,38.0
11043,33.0,5,55,14.0,100.0
11044,50.0,2,10,15.0,38.0
11045,51.0,1,10,12.0,86.0
11046,63.0,0,10,12.0,86.0
11047,48.0,1,10,13.0,115.0
11048,63.0,0,10,12.0,86.0
11049,51.0,9,10,12.0,86.0
11050,48.0,1,10,13.0,110.0
11051,51.0,0,10,12.0,87.0
11052,63.0,14,10,12.0,87.0
11053,48.0,1,10,13.0,105.0
11054,51.0,0,10,12.0,88.0
11055,63.0,14,10,12.0,88.0
11056,48.0,1,10,13.0,100.0
11057,51.0,14,10,12.0,89.0
11058,63.0,0,10,12.0,89.0
11059,48.0,1,10,13.0,100.0
11060,51.0,14,10,12.0,89.0
11061,63.0,0,10,12.0,89.0
11062,48.0,1,10,13.0,100.0
11063,51.0,5,10,12.0,90.0
11064,63.0,0,10,12.0,90.0
11065,54.0,9,15,8.0,62.0
11066,48.0,1,10,13.0,100.0
11067,63.0,8,15,8.0,78.0
11068,51.0,6,10,12.0,91.0
11069,63.0,0,10,12.0,91.0
11070,48.0,1,10,13.0,100.0
11071,78.0,0,480,1.0,97.0
11072,36.0,1,115,14.0,115.0
11073,69.0,8,15,7.0,81.0
11074,63.0,0,10,12.0,93.0
11075,51.0,3,10,12.0,93.0
11076,47.0,1,10,13.0,100.0
11077,66.0,2,15,7.0,85.0
11078,63.0,7,10,12.0,93.0
11079,51.0,0,10,12.0,93.0
11080,47.0,1,10,13.0,100.0
11081,75.0,7,15,7.0,88.0
11082,51.0,0,10,12.0,94.0
11083,63.0,7,10,12.0,94.0
11084,47.0,1,10,13.0,100.0
11085,81.0,8,15,7.0,86.0
11086,51.0,0,10,12.0,94.0
11087,63.0,6,10,12.0,94.0
11088,47.0,1,10,13.0,100.0
11089,35.0,5,55,14.0,100.0
11090,78.0,8,15,7.0,83.0
11091,63.0,6,10,12.0,96.0
11092,51.0,0,10,12.0,96.0
11093,45.0,1,10,13.0,100.0
11094,87.0,1,15,7.0,78.0
11095,51.0,0,10,12.0,96.0
11096,63.0,8,10,12.0,96.0
11097,45.0,1,10,13.0,100.0
11098,93.0,6,15,7.0,73.0
11099,63.0,0,10,12.0,97.0
11100,51.0,8,10,12.0,97.0
11101,45.0,1,10,13.0,100.0
11102,81.0,0,595,0.0,98.0
11103,78.0,0,595,0.0,98.0
11104,81.0,3,595,1.0,97.0
11105,63.0,14,10,12.0,98.0
11106,51.0,0,10,12.0,98.0
11107,45.0,1,10,13.0,100.0
11108,72.0,3,120,1.0,97.0
11109,63.0,8,240,4.0,64.0
11110,63.0,0,235,3.0,99.0
11111,51.0,4,235,3.0,99.0
11112,33.0,5,55,14.0,100.0
11113,52.0,0,10,12.0,100.0
11114,64.0,3,10,12.0,100.0
11115,43.0,1,10,13.0,100.0
11116,52.0,0,10,12.0,100.0
11117,64.0,9,10,12.0,100.0
11118,43.0,1,10,13.0,100.0
11119,52.0,0,10,12.0,100.0
11120,64.0,14,10,12.0,100.0
11121,43.0,1,10,13.0,100.0
11122,64.0,14,10,12.0,100.0
11123,52.0,0,10,12.0,100.0
11124,43.0,1,10,13.0,100.0
11125,64.0,14,10,12.0,100.0
11126,52.0,0,10,12.0,100.0
11127,43.0,1,10,13.0,100.0
11128,64.0,14,10,12.0,100.0
11129,52.0,0,10,12.0,100.0
11130,43.0,1,10,13.0,100.0
11131,55.0,8,15,8.0,60.0
11132,64.0,6,10,12.0,100.0
11133,52.0,0,10,12.0,100.0
11134,43.0,1,10,13.0,100.0
11135,64.0,0,115,4.0,64.0
11136,64.0,8,15,8.0,78.0
11137,64.0,6,10,12.0,100.0
11138,52.0,0,10,12.0,100.0
11139,43.0,1,10,13.0,100.0
11140,71.0,3,120,1.0,97.0
11141,52.0,4,115,3.0,99.0
11142,64.0,0,115,3.0,99.0
11143,31.0,1,115,14.0,100.0
11144,71.0,1,15,7.0,82.0
11145,66.0,3,10,12.0,100.0
11146,54.0,0,10,12.0,100.0
11147,42.0,1,10,13.0,100.0
11148,67.0,3,15,7.0,83.0
11149,66.0,0,10,12.0,100.0
11150,54.0,6,10,12.0,100.0
11151,42.0,1,10,13.0,100.0
11152,79.0,7,15,7.0,88.0
11153,66.0,0,10,12.0,100.0
11154,54.0,7,10,12.0,100.0
11155,42.0,1,10,13.0,100.0
11156,66.0,3,55,4.0,64.0
11157,83.0,8,15,7.0,86.0
11158,66.0,6,10,12.0,100.0
11159,54.0,0,10,12.0,100.0
11160,42.0,1,10,13.0,100.0
11161,30.0,1,55,14.0,100.0
11162,54.0,4,60,3.0,99.0
11163,66.0,0,60,3.0,99.0
11164,79.0,6,15,7.0,83.0
11165,55.0,3,10,12.0,100.0
11166,67.0,0,10,12.0,100.0
11167,40.0,1,10,13.0,100.0
11168,91.0,2,15,7.0,78.0
11169,67.0,0,10,12.0,100.0
11170,55.0,7,10,12.0,100.0
11171,40.0,1,10,13.0,100.0
11172,95.0,8,15,7.0,75.0
11173,55.0,6,10,12.0,100.0
11174,67.0,0,10,12.0,100.0
11175,40.0,1,10,13.0,100.0
11176,79.0,0,235,0.0,98.0
11177,83.0,8,235,0.0,98.0
11178,67.0,5,55,4.0,64.0
11179,79.0,0,115,1.0,97.0
11180,83.0,0,235,1.0,97.0
11181,71.0,7,120,2.0,98.0
11182,55.0,0,10,12.0,100.0
11183,67.0,14,10,12.0,100.0
11184,40.0,1,10,13.0,100.0
11185,55.0,4,55,3.0,99.0
11186,67.0,0,55,3.0,99.0
11187,28.0,1,55,14.0,100.0
11188,93.0,6,15,7.0,81.0
11189,69.0,3,10,12.0,100.0
11190,57.0,0,10,12.0,100.0
11191,45.0,1,10,13.0,100.0
11192,45.0,2,10,15.0,36.0
11193,90.0,0,15,7.0,68.0
11194,69.0,0,10,12.0,100.0
11195,57.0,7,10,12.0,100.0
11196,45.0,1,10,13.0,100.0
11197,45.0,2,10,15.0,37.0
11198,81.0,4,15,7.0,73.0
11199,45.0,0,1,15.0,37.0
11200,69.0,0,10,12.0,100.0
11201,57.0,2,10,12.0,100.0
11202,45.0,1,10,13.0,100.0
11203,90.0,6,15,7.0,74.0
11204,57.0,1,60,8.0,70.0
11205,69.0,0,10,12.0,100.0
11206,69.0,1,60,8.0,70.0
11207,57.0,8,10,12.0,100.0
11208,45.0,1,10,13.0,100.0
11209,45.0,1,10,15.0,37.0
11210,45.0,3,10,15.0,38.0
11211,81.0,8,15,8.0,75.0
11212,69.0,2,10,12.0,100.0
11213,57.0,0,10,12.0,100.0
11214,45.0,1,10,13.0,100.0
11215,45.0,2,0,15.0,36.0
11216,57.0,4,10,12.0,100.0
11217,69.0,0,10,12.0,100.0
11218,78.0,3,15,8.0,75.0
11219,45.0,1,10,13.0,100.0
11220,45.0,4,0,15.0,37.0
11221,69.0,6,15,8.0,74.0
11222,57.0,0,10,12.0,100.0
11223,69.0,2,10,12.0,100.0
11224,45.0,1,10,13.0,100.0
11225,45.0,1,2,15.0,38.0
11226,66.0,0,120,2.0,98.0
11227,69.0,1,120,2.0,98.0
11228,81.0,0,120,0.0,98.0
11229,78.0,0,120,0.0,98.0
11230,57.0,5,10,12.0,100.0
11231,78.0,1,15,8.0,76.0
11232,69.0,0,10,12.0,100.0
11233,62.0,1,120,6.0,127.0
11234,45.0,1,10,13.0,100.0
11235,81.0,1,120,1.0,97.0
11236,78.0,0,120,1.0,97.0
11237,45.0,1,0,15.0,37.0
11238,69.0,0,120,3.0,99.0
11239,57.0,4,120,3.0,99.0
11240,92.0,6,15,7.0,87.0
11241,65.0,0,10,12.0,100.0
11242,68.0,3,10,12.0,100.0
11243,47.0,1,10,13.0,100.0
11244,45.0,1,2,15.0,38.0
11245,89.0,0,15,7.0,78.0
11246,65.0,0,10,12.0,100.0
11247,68.0,6,10,12.0,100.0
11248,47.0,1,10,13.0,100.0
11249,81.0,5,15,7.0,77.0
11250,45.0,6,10,15.0,38.0
11251,65.0,0,10,12.0,100.0
11252,68.0,2,10,12.0,100.0
11253,47.0,1,10,13.0,100.0
11254,45.0,7,10,15.0,38.0
11255,89.0,1,15,7.0,77.0
11256,65.0,6,10,12.0,100.0
11257,68.0,0,10,12.0,100.0
11258,47.0,1,10,13.0,100.0
11259,45.0,4,10,15.0,38.0
11260,68.0,0,10,12.0,100.0
11261,65.0,4,10,12.0,100.0
11262,45.0,8,2,15.0,40.0
11263,80.0,6,15,8.0,79.0
11264,47.0,1,10,13.0,100.0
11265,68.0,4,10,12.0,100.0
11266,65.0,0,10,12.0,100.0
11267,77.0,2,15,8.0,81.0
11268,47.0,1,10,13.0,100.0
11269,45.0,3,10,15.0,38.0
11270,68.0,5,10,12.0,100.0
11271,65.0,0,10,12.0,100.0
11272,69.0,6,15,8.0,81.0
11273,45.0,8,2,15.0,40.0
11274,47.0,1,10,13.0,100.0
11275,68.0,0,120,2.0,98.0
11276,65.0,0,120,2.0,98.0
11277,77.0,1,120,0.0,98.0
11278,80.0,0,120,0.0,98.0
11279,68.0,0,10,12.0,100.0
11280,65.0,4,10,12.0,100.0
11281,62.0,2,120,6.0,127.0
11282,77.0,2,15,8.0,81.0
11283,47.0,1,10,13.0,100.0
11284,77.0,0,120,1.0,97.0
11285,80.0,0,120,1.0,97.0
11286,45.0,4,10,15.0,39.0
11287,59.0,4,120,3.0,99.0
11288,91.0,0,15,7.0,97.0
11289,45.0,3,2,15.0,39.0
11290,64.0,3,10,12.0,100.0
11291,67.0,0,10,12.0,100.0
11292,49.0,1,10,13.0,100.0
11293,45.0,2,0,15.0,42.0
11294,88.0,1,15,7.0,82.0
11295,67.0,6,10,12.0,100.0
11296,64.0,0,10,12.0,100.0
11297,49.0,1,10,13.0,100.0
11298,45.0,5,0,15.0,42.0
11299,45.0,6,1,15.0,42.0
11300,81.0,5,15,7.0,85.0
11301,67.0,0,10,12.0,100.0
11302,64.0,2,10,12.0,100.0
11303,49.0,1,10,13.0,100.0
11304,88.0,2,15,7.0,84.0
11305,67.0,6,10,12.0,100.0
11306,64.0,0,10,12.0,100.0
11307,49.0,1,10,13.0,100.0
11308,45.0,1,10,15.0,40.0
11309,45.0,7,0,15.0,40.0
11310,79.0,7,15,8.0,86.0
11311,67.0,2,10,12.0,100.0
11312,64.0,0,10,12.0,100.0
11313,49.0,1,10,13.0,100.0
11314,45.0,2,0,15.0,42.0
11315,64.0,4,10,12.0,100.0
11316,67.0,0,10,12.0,100.0
11317,76.0,3,15,8.0,86.0
11318,49.0,1,10,13.0,100.0
11319,45.0,3,0,15.0,43.0
11320,64.0,2,10,12.0,100.0
11321,67.0,0,10,12.0,100.0
11322,69.0,7,15,8.0,84.0
11323,49.0,1,10,13.0,100.0
11324,45.0,1,2,15.0,43.0
11325,64.0,0,120,2.0,98.0
11326,67.0,3,120,2.0,98.0
11327,76.0,0,15,8.0,86.0
11328,76.0,0,120,0.0,98.0
11329,79.0,1,120,0.0,98.0
11330,64.0,6,10,12.0,100.0
11331,67.0,0,10,12.0,100.0
11332,49.0,1,10,13.0,100.0
11333,76.0,0,120,1.0,97.0
11334,79.0,1,120,1.0,97.0
11335,64.0,4,120,3.0,99.0
11336,45.0,0,10,15.0,43.0
11337,90.0,5,15,7.0,103.0
11338,62.0,3,10,12.0,100.0
11339,66.0,0,10,12.0,100.0
11340,50.0,1,10,13.0,100.0
11341,45.0,1,2,15.0,43.0
11342,86.0,3,15,7.0,89.0
11343,66.0,6,10,12.0,100.0
11344,62.0,0,10,12.0,100.0
11345,50.0,1,10,13.0,100.0
11346,81.0,5,15,7.0,90.0
11347,45.0,7,0,15.0,43.0
11348,62.0,0,10,12.0,100.0
11349,66.0,2,10,12.0,100.0
11350,50.0,1,10,13.0,100.0
11351,86.0,0,15,7.0,89.0
11352,62.0,7,10,12.0,100.0
11353,66.0,0,10,12.0,100.0
11354,50.0,1,10,13.0,100.0
11355,45.0,4,10,15.0,43.0
11356,66.0,5,10,12.0,100.0
11357,62.0,0,10,12.0,100.0
11358,78.0,5,15,8.0,90.0
11359,50.0,1,10,13.0,100.0
11360,45.0,8,2,15.0,43.0
11361,45.0,3,0,15.0,43.0
11362,62.0,5,10,12.0,100.0
11363,66.0,0,10,12.0,100.0
11364,74.0,1,15,8.0,91.0
11365,50.0,1,10,13.0,100.0
11366,69.0,6,15,8.0,93.0
11367,62.0,5,10,12.0,100.0
11368,66.0,0,10,12.0,100.0
11369,50.0,1,10,13.0,100.0
11370,45.0,8,2,15.0,45.0
11371,62.0,1,120,2.0,98.0
11372,66.0,0,120,2.0,98.0
11373,78.0,0,120,0.0,98.0
11374,74.0,1,120,0.0,98.0
11375,62.0,0,10,12.0,100.0
11376,66.0,4,10,12.0,100.0
11377,50.0,1,10,13.0,100.0
11378,74.0,2,15,8.0,94.0
11379,78.0,3,120,1.0,97.0
11380,45.0,0,480,4.0,64.0
11381,69.0,0,480,4.0,64.0
11382,74.0,0,120,1.0,97.0
11383,45.0,4,10,15.0,45.0
11384,66.0,4,120,3.0,99.0
11385,85.0,2,15,7.0,107.0
11386,64.0,0,10,12.0,100.0
11387,45.0,1,2,15.0,45.0
11388,61.0,3,10,12.0,100.0
11389,55.0,1,10,13.0,100.0
11390,81.0,2,15,7.0,94.0
11391,61.0,0,10,12.0,100.0
11392,64.0,7,10,12.0,100.0
11393,55.0,1,10,13.0,100.0
11394,45.0,2,10,15.0,45.0
11395,76.0,4,15,7.0,93.0
11396,45.0,6,1,15.0,46.0
11397,61.0,0,10,12.0,100.0
11398,64.0,2,10,12.0,100.0
11399,55.0,1,10,13.0,100.0
11400,45.0,1,0,15.0,45.0
11401,81.0,2,15,7.0,92.0
11402,61.0,6,10,12.0,100.0
11403,64.0,0,10,12.0,100.0
11404,55.0,1,10,13.0,100.0
11405,45.0,7,0,15.0,47.0
11406,61.0,0,10,12.0,100.0
11407,64.0,2,10,12.0,100.0
11408,55.0,1,10,13.0,100.0
11409,73.0,9,15,8.0,89.0
11410,61.0,0,10,12.0,100.0
11411,64.0,5,10,12.0,100.0
11412,69.0,2,15,8.0,89.0
11413,55.0,1,10,13.0,100.0
11414,45.0,2,0,15.0,47.0
11415,61.0,2,10,12.0,100.0
11416,64.0,0,10,12.0,100.0
11417,55.0,1,10,13.0,100.0
11418,64.0,8,15,8.0,90.0
11419,45.0,1,2,15.0,47.0
11420,81.0,0,115,0.0,98.0
11421,69.0,0,115,1.0,97.0
11422,73.0,0,120,2.0,98.0
11423,64.0,1,120,2.0,98.0
11424,85.0,1,120,0.0,98.0
11425,69.0,0,15,8.0,89.0
11426,61.0,6,10,12.0,100.0
11427,64.0,0,10,12.0,100.0
11428,55.0,1,10,13.0,100.0
11429,73.0,3,120,1.0,97.0
11430,45.0,0,0,15.0,47.0
11431,67.0,4,120,3.0,99.0
11432,86.0,5,15,7.0,102.0
11433,62.0,3,10,12.0,100.0
11434,54.0,1,10,13.0,100.0
11435,45.0,1,2,15.0,49.0
11436,81.0,3,15,7.0,87.0
11437,62.0,6,10,12.0,100.0
11438,54.0,1,10,13.0,100.0
11439,74.0,6,15,7.0,86.0
11440,45.0,7,0,15.0,49.0
11441,62.0,2,10,12.0,100.0
11442,54.0,1,10,13.0,100.0
11443,81.0,1,15,7.0,84.0
11444,62.0,6,10,12.0,100.0
11445,54.0,1,10,13.0,100.0
11446,45.0,4,10,15.0,49.0
11447,74.0,5,15,8.0,85.0
11448,62.0,5,10,12.0,100.0
11449,54.0,0,10,13.0,100.0
11450,45.0,8,2,15.0,49.0
11451,45.0,3,0,15.0,49.0
11452,62.0,5,10,12.0,100.0
11453,69.0,1,15,8.0,84.0
11454,54.0,1,10,13.0,100.0
11455,62.0,5,15,8.0,83.0
11456,62.0,6,10,12.0,100.0
11457,45.0,8,2,15.0,49.0
11458,54.0,1,10,13.0,100.0
11459,86.0,1,115,0.0,98.0
11460,74.0,0,115,1.0,97.0
11461,81.0,0,120,0.0,98.0
11462,62.0,4,10,12.0,100.0
11463,69.0,2,15,8.0,85.0
11464,54.0,1,10,13.0,100.0
11465,69.0,3,120,1.0,97.0
11466,45.0,0,0,15.0,49.0
11467,66.0,4,120,3.0,99.0
11468,86.0,2,15,7.0,95.0
11469,56.0,0,10,12.0,100.0
11470,62.0,3,10,12.0,100.0
11471,45.0,3,2,15.0,49.0
11472,53.0,1,10,13.0,100.0
11473,45.0,2,0,15.0,49.0
11474,80.0,1,15,7.0,83.0
11475,62.0,0,10,12.0,100.0
11476,56.0,6,10,12.0,100.0
11477,53.0,1,10,13.0,100.0
11478,45.0,4,0,15.0,50.0
11479,45.0,6,1,15.0,52.0
11480,74.0,6,15,7.0,81.0
11481,56.0,0,10,12.0,100.0
11482,62.0,2,10,12.0,100.0
11483,53.0,1,10,13.0,100.0
11484,80.0,2,15,7.0,81.0
11485,56.0,6,10,12.0,100.0
11486,62.0,0,10,12.0,100.0
11487,53.0,1,10,13.0,100.0
11488,45.0,1,10,15.0,49.0
11489,45.0,2,10,15.0,50.0
11490,56.0,2,10,12.0,100.0
11491,62.0,0,10,12.0,100.0
11492,74.0,9,15,8.0,81.0
11493,53.0,1,10,13.0,100.0
11494,45.0,2,0,15.0,49.0
11495,62.0,4,10,12.0,100.0
11496,56.0,0,10,12.0,100.0
11497,53.0,1,10,13.0,100.0
11498,67.0,3,15,8.0,79.0
11499,45.0,2,10,15.0,49.0
11500,56.0,0,10,12.0,100.0
11501,62.0,2,10,12.0,100.0
11502,53.0,1,10,13.0,100.0
11503,62.0,8,15,8.0,79.0
11504,45.0,1,2,15.0,49.0
11505,74.0,1,240,2.0,98.0
11506,62.0,0,240,2.0,98.0
11507,80.0,0,120,0.0,98.0
11508,86.0,2,120,0.0,98.0
11509,62.0,0,10,12.0,100.0
11510,56.0,4,10,12.0,100.0
11511,67.0,2,15,8.0,79.0
11512,53.0,1,10,13.0,100.0
11513,68.0,3,120,1.0,97.0
11514,74.0,0,120,1.0,97.0
11515,45.0,0,0,15.0,49.0
11516,65.0,4,120,3.0,99.0
11517,85.0,0,15,7.0,90.0
11518,55.0,3,10,12.0,100.0
11519,61.0,0,10,12.0,100.0
11520,52.0,1,10,13.0,100.0
11521,45.0,1,2,15.0,49.0
11522,79.0,2,15,7.0,77.0
11523,55.0,0,10,12.0,100.0
11524,61.0,6,10,12.0,100.0
11525,52.0,1,10,13.0,100.0
11526,73.0,5,15,7.0,76.0
11527,45.0,6,10,15.0,49.0
11528,55.0,0,10,12.0,100.0
11529,61.0,2,10,12.0,100.0
11530,52.0,1,10,13.0,100.0
11531,45.0,7,10,15.0,49.0
11532,79.0,1,15,7.0,75.0
11533,55.0,6,10,12.0,100.0
11534,61.0,0,10,12.0,100.0
11535,52.0,1,10,13.0,100.0
11536,45.0,4,10,15.0,49.0
11537,73.0,5,15,8.0,74.0
11538,61.0,5,10,12.0,100.0
11539,55.0,0,10,12.0,100.0
11540,45.0,8,2,15.0,46.0
11541,52.0,1,10,13.0,100.0
11542,45.0,3,0,15.0,46.0
11543,55.0,0,10,12.0,100.0
11544,67.0,1,15,8.0,72.0
11545,61.0,5,10,12.0,100.0
11546,52.0,1,10,13.0,100.0
11547,61.0,4,10,12.0,100.0
11548,55.0,0,10,12.0,100.0
11549,45.0,8,2,15.0,45.0
11550,61.0,7,15,8.0,71.0
11551,52.0,1,10,13.0,100.0
11552,73.0,6,120,2.0,98.0
11553,64.0,0,120,2.0,98.0
11554,81.0,0,120,0.0,98.0
11555,85.0,1,120,0.0,98.0
11556,64.0,1,15,8.0,70.0
11557,61.0,5,10,12.0,100.0
11558,55.0,0,10,12.0,100.0
11559,52.0,1,10,13.0,100.0
11560,57.0,0,960,6.0,127.0
11561,69.0,2,720,6.0,127.0
11562,73.0,0,120,1.0,97.0
11563,45.0,0,0,4.0,70.0
11564,67.0,3,120,1.0,97.0
11565,45.0,0,0,15.0,45.0
11566,33.0,1,955,14.0,100.0
11567,64.0,4,120,3.0,99.0
11568,62.0,3,10,12.0,100.0
11569,45.0,2,2,15.0,46.0
11570,50.0,1,10,13.0,100.0
11571,62.0,7,10,12.0,100.0
11572,50.0,1,10,13.0,100.0
11573,45.0,10,0,15.0,45.0
11574,45.0,6,1,15.0,43.0
11575,62.0,2,10,12.0,100.0
11576,50.0,1,10,13.0,100.0
11577,74.0,3,60,2.0,98.0
11578,66.0,0,60,2.0,98.0
11579,86.0,0,60,7.0,66.0
11580,86.0,0,60,0.0,98.0
11581,81.0,0,60,0.0,98.0
11582,78.0,0,60,7.0,50.0
11583,74.0,1,60,7.0,51.0
11584,62.0,8,10,12.0,100.0
11585,69.0,1,60,8.0,51.0
11586,62.0,0,60,8.0,51.0
11587,50.0,1,10,13.0,100.0
11588,66.0,0,60,1.0,97.0
11589,45.0,1,10,15.0,43.0
11590,74.0,0,60,1.0,97.0
11591,54.0,2,60,4.0,81.0
11592,62.0,4,60,3.0,99.0
11593,45.0,1,10,15.0,43.0
11594,62.0,2,10,12.0,100.0
11595,50.0,1,10,13.0,100.0
11596,45.0,7,10,15.0,43.0
11597,62.0,7,10,12.0,100.0
11598,50.0,1,10,13.0,100.0
11599,45.0,10,0,15.0,43.0
11600,62.0,2,10,12.0,100.0
11601,50.0,1,10,13.0,100.0
11602,45.0,1,2,15.0,43.0
11603,62.0,6,10,12.0,100.0
11604,50.0,1,10,13.0,100.0
11605,57.0,10,60,4.0,81.0
11606,45.0,0,10,15.0,42.0
11607,62.0,3,10,12.0,100.0
11608,50.0,1,10,13.0,100.0
11609,45.0,1,2,15.0,40.0
11610,62.0,6,10,12.0,100.0
11611,50.0,1,10,13.0,100.0
11612,45.0,7,0,15.0,38.0
11613,62.0,2,10,12.0,100.0
11614,50.0,1,10,13.0,100.0
11615,62.0,7,10,12.0,100.0
11616,50.0,1,10,13.0,100.0
11617,62.0,10,60,4.0,81.0
11618,45.0,4,10,15.0,40.0
11619,62.0,3,10,12.0,100.0
11620,45.0,8,2,15.0,38.0
11621,50.0,1,10,13.0,100.0
11622,62.0,6,10,12.0,100.0
11623,50.0,1,10,13.0,100.0
11624,45.0,3,10,15.0,38.0
11625,62.0,11,10,12.0,100.0
11626,45.0,8,2,15.0,38.0
11627,50.0,0,10,13.0,100.0
11628,62.0,6,10,12.0,100.0
11629,50.0,1,10,13.0,100.0
11630,66.0,7,60,4.0,81.0
11631,45.0,4,10,15.0,38.0
11632,60.0,3,10,12.0,100.0
11633,45.0,3,2,15.0,37.0
11634,48.0,1,10,13.0,100.0
11635,60.0,7,10,12.0,100.0
11636,48.0,1,10,13.0,100.0
11637,45.0,2,10,15.0,37.0
11638,45.0,6,1,15.0,37.0
11639,60.0,2,10,12.0,100.0
11640,48.0,1,10,13.0,100.0
11641,54.0,3,60,2.0,94.0
11642,60.0,8,10,12.0,100.0
11643,48.0,1,10,13.0,100.0
11644,45.0,1,10,15.0,36.0
11645,54.0,4,60,3.0,95.0
11646,45.0,5,10,15.0,35.0
11647,60.0,2,10,12.0,100.0
11648,48.0,1,10,13.0,100.0
11649,45.0,2,0,15.0,37.0
11650,60.0,7,10,12.0,100.0
11651,48.0,1,10,13.0,100.0
11652,45.0,10,10,15.0,35.0
11653,60.0,2,10,12.0,100.0
11654,48.0,1,10,13.0,100.0
11655,45.0,1,2,15.0,36.0
11656,57.0,6,60,2.0,94.0
11657,60.0,6,10,12.0,100.0
11658,48.0,1,10,13.0,100.0
11659,45.0,4,0,15.0,35.0
11660,57.0,4,60,3.0,95.0
11661,60.0,3,10,12.0,100.0
11662,48.0,1,10,13.0,100.0
11663,45.0,1,2,15.0,36.0
11664,60.0,6,10,12.0,100.0
11665,48.0,1,10,13.0,100.0
11666,45.0,7,0,15.0,37.0
11667,60.0,2,10,12.0,100.0
11668,48.0,1,10,13.0,100.0
11669,69.0,4,175,4.0,81.0
11670,62.0,6,60,2.0,94.0
11671,60.0,7,10,12.0,100.0
11672,48.0,1,10,13.0,100.0
11673,45.0,4,10,15.0,37.0
11674,62.0,4,60,3.0,95.0
11675,60.0,3,10,12.0,100.0
11676,48.0,1,10,13.0,100.0
11677,45.0,4,2,15.0,35.0
11678,45.0,3,0,15.0,37.0
11679,60.0,6,10,12.0,100.0
11680,48.0,1,10,13.0,100.0
11681,60.0,11,10,12.0,100.0
11682,48.0,1,10,13.0,100.0
11683,45.0,8,2,15.0,35.0
11684,62.0,4,55,4.0,81.0
11685,66.0,3,60,2.0,94.0
11686,60.0,6,10,12.0,100.0
11687,48.0,1,10,13.0,100.0
11688,45.0,4,10,15.0,36.0
11689,66.0,4,60,3.0,95.0
11690,45.0,3,2,15.0,35.0
11691,59.0,3,10,12.0,100.0
11692,47.0,1,10,13.0,100.0
11693,45.0,2,0,15.0,37.0
11694,59.0,7,10,12.0,100.0
11695,47.0,1,10,13.0,100.0
11696,45.0,10,0,15.0,37.0
11697,45.0,6,1,15.0,37.0
11698,59.0,2,10,12.0,100.0
11699,47.0,1,10,13.0,100.0
11700,45.0,1,0,15.0,35.0
11701,59.0,8,10,12.0,100.0
11702,47.0,1,10,13.0,100.0
11703,62.0,0,60,1.0,93.0
11704,45.0,7,0,15.0,37.0
11705,59.0,2,10,12.0,100.0
11706,47.0,1,10,13.0,100.0
11707,45.0,2,0,15.0,37.0
11708,59.0,7,10,12.0,100.0
11709,47.0,1,10,13.0,100.0
11710,45.0,10,10,15.0,35.0
11711,59.0,2,10,12.0,100.0
11712,47.0,1,10,13.0,100.0
11713,45.0,1,2,15.0,36.0
11714,67.0,4,115,4.0,81.0
11715,59.0,6,10,12.0,100.0
11716,47.0,1,10,13.0,100.0
11717,67.0,10,60,1.0,93.0
11718,45.0,0,10,15.0,37.0
11719,59.0,3,10,12.0,100.0
11720,47.0,1,10,13.0,100.0
11721,45.0,1,2,15.0,37.0
11722,59.0,6,10,12.0,100.0
11723,47.0,1,10,13.0,100.0
11724,45.0,11,10,15.0,38.0
11725,59.0,2,10,12.0,100.0
11726,47.0,1,10,13.0,100.0
11727,45.0,7,10,15.0,37.0
11728,74.0,3,175,2.0,94.0
11729,66.0,0,55,4.0,81.0
11730,59.0,7,10,12.0,100.0
11731,47.0,1,10,13.0,100.0
11732,71.0,10,60,1.0,93.0
11733,45.0,4,10,15.0,37.0
11734,69.0,4,175,3.0,95.0
11735,59.0,3,10,12.0,100.0
11736,45.0,4,2,15.0,38.0
11737,47.0,1,10,13.0,100.0
11738,59.0,6,10,12.0,100.0
11739,47.0,1,10,13.0,100.0
11740,45.0,3,10,15.0,38.0
11741,59.0,11,10,12.0,100.0
11742,45.0,8,2,15.0,38.0
11743,47.0,1,10,13.0,100.0
11744,74.0,3,55,2.0,94.0
11745,64.0,0,55,4.0,81.0
11746,74.0,4,55,1.0,93.0
11747,59.0,6,10,12.0,100.0
11748,47.0,1,10,13.0,100.0
11749,50.0,0,475,3.0,95.0
11750,45.0,0,0,15.0,38.0
11751,69.0,4,55,3.0,95.0
11752,45.0,3,2,15.0,38.0
11753,57.0,3,10,12.0,100.0
11754,45.0,1,10,13.0,100.0
11755,45.0,2,0,15.0,38.0
11756,57.0,7,10,12.0,100.0
11757,45.0,1,10,13.0,100.0
11758,45.0,6,1,15.0,38.0
11759,57.0,2,10,12.0,100.0
11760,45.0,1,10,13.0,100.0
11761,45.0,1,0,15.0,38.0
11762,64.0,0,60,2.0,94.0
11763,57.0,8,10,12.0,100.0
11764,45.0,1,10,13.0,100.0
11765,45.0,5,10,15.0,38.0
11766,57.0,2,10,12.0,100.0
11767,45.0,1,10,13.0,100.0
11768,45.0,7,10,15.0,39.0
11769,57.0,7,10,12.0,100.0
11770,45.0,1,10,13.0,100.0
11771,45.0,10,0,15.0,39.0
11772,57.0,2,10,12.0,100.0
11773,45.0,1,10,13.0,100.0
11774,45.0,1,2,15.0,38.0
11775,79.0,4,115,1.0,93.0
11776,67.0,6,60,2.0,94.0
11777,57.0,6,10,12.0,100.0
11778,45.0,1,10,13.0,100.0
11779,64.0,0,120,4.0,81.0
11780,52.0,0,120,3.0,95.0
11781,67.0,4,120,3.0,95.0
11782,33.0,1,840,14.0,100.0
11783,45.0,0,10,15.0,38.0
11784,57.0,3,10,12.0,100.0
11785,43.0,1,10,13.0,100.0
11786,45.0,1,2,15.0,38.0
11787,57.0,6,10,12.0,100.0
11788,43.0,1,10,13.0,100.0
11789,45.0,7,0,15.0,40.0
11790,57.0,2,10,12.0,100.0
11791,43.0,1,10,13.0,100.0
11792,69.0,6,60,2.0,94.0
11793,74.0,3,180,2.0,94.0
11794,73.0,1,60,10.0,49.0
11795,57.0,7,10,12.0,100.0
11796,69.0,1,60,10.0,49.0
11797,43.0,1,10,13.0,100.0
11798,78.0,2,60,1.0,93.0
11799,69.0,0,60,11.0,49.0
11800,45.0,4,10,15.0,39.0
11801,57.0,3,10,12.0,100.0
11802,43.0,0,10,13.0,100.0
11803,45.0,8,2,15.0,39.0
11804,57.0,6,10,12.0,100.0
11805,43.0,1,10,13.0,100.0
11806,45.0,3,10,15.0,38.0
11807,57.0,11,10,12.0,100.0
11808,43.0,0,10,13.0,100.0
11809,45.0,8,2,15.0,40.0
11810,76.0,4,55,1.0,93.0
11811,69.0,0,115,4.0,81.0
11812,73.0,3,60,2.0,94.0
11813,57.0,6,10,12.0,100.0
11814,43.0,1,10,13.0,100.0
11815,45.0,4,10,15.0,39.0
11816,43.0,4,115,3.0,95.0
11817,57.0,0,115,3.0,95.0
11818,31.0,1,115,14.0,100.0
11819,45.0,2,2,15.0,39.0
11820,57.0,3,10,12.0,100.0
11821,42.0,1,10,13.0,100.0
11822,57.0,7,10,12.0,100.0
11823,42.0,1,10,13.0,100.0
11824,45.0,10,0,15.0,42.0
11825,45.0,6,1,15.0,42.0
11826,57.0,2,10,12.0,100.0
11827,42.0,1,10,13.0,100.0
11828,69.0,0,60,10.0,49.0
11829,69.0,0,60,11.0,49.0
11830,81.0,0,60,11.0,49.0
11831,69.0,1,60,0.0,125.0
11832,81.0,0,60,10.0,49.0
11833,62.0,1,60,11.0,49.0
11834,57.0,8,10,12.0,100.0
11835,42.0,1,10,13.0,100.0
11836,57.0,0,60,4.0,81.0
11837,45.0,1,10,15.0,40.0
11838,45.0,7,0,15.0,42.0
11839,57.0,2,10,12.0,100.0
11840,42.0,1,10,13.0,100.0
11841,57.0,7,10,12.0,100.0
11842,42.0,1,10,13.0,100.0
11843,45.0,10,0,15.0,42.0
11844,57.0,2,10,12.0,100.0
11845,42.0,1,10,13.0,100.0
11846,45.0,1,2,15.0,42.0
11847,74.0,3,120,2.0,94.0
11848,74.0,7,60,0.0,125.0
11849,57.0,6,10,12.0,100.0
11850,42.0,1,10,13.0,100.0
11851,45.0,3,0,15.0,40.0
11852,62.0,3,60,4.0,81.0
11853,57.0,3,10,12.0,100.0
11854,42.0,1,10,13.0,100.0
11855,45.0,1,2,15.0,40.0
11856,57.0,6,10,12.0,100.0
11857,42.0,1,10,13.0,100.0
11858,45.0,7,0,15.0,42.0
11859,57.0,2,10,12.0,100.0
11860,42.0,1,10,13.0,100.0
11861,78.0,1,60,0.0,125.0
11862,57.0,7,10,12.0,100.0
11863,42.0,1,10,13.0,100.0
11864,66.0,0,60,4.0,81.0
11865,74.0,2,180,1.0,93.0
11866,45.0,4,10,15.0,43.0
11867,57.0,3,10,12.0,100.0
11868,42.0,0,10,13.0,100.0
11869,45.0,8,2,15.0,43.0
11870,45.0,3,0,15.0,43.0
11871,57.0,6,10,12.0,100.0
11872,42.0,1,10,13.0,100.0
11873,57.0,11,10,12.0,100.0
11874,42.0,0,10,13.0,100.0
11875,45.0,8,2,15.0,42.0
11876,81.0,0,235,2.0,94.0
11877,69.0,3,55,4.0,81.0
11878,81.0,4,60,0.0,125.0
11879,57.0,6,10,12.0,100.0
11880,42.0,1,10,13.0,100.0
11881,78.0,0,60,1.0,93.0
11882,45.0,3,0,15.0,42.0
11883,30.0,1,235,14.0,100.0
11884,42.0,0,240,3.0,95.0
11885,45.0,2,2,15.0,43.0
11886,57.0,0,10,12.0,100.0
11887,41.0,1,10,13.0,100.0
11888,57.0,7,10,12.0,100.0
11889,41.0,1,10,13.0,100.0
11890,45.0,2,10,15.0,45.0
11891,45.0,6,1,15.0,45.0
11892,57.0,2,10,12.0,100.0
11893,41.0,1,10,13.0,100.0
11894,45.0,1,0,15.0,45.0
11895,83.0,0,60,10.0,49.0
11896,62.0,0,60,11.0,49.0
11897,74.0,0,60,10.0,49.0
11898,69.0,1,60,11.0,49.0
11899,62.0,1,60,10.0,49.0
11900,57.0,8,10,12.0,100.0
11901,41.0,1,10,13.0,100.0
11902,69.0,0,60,1.0,93.0
11903,81.0,0,60,11.0,49.0
11904,45.0,7,0,15.0,45.0
11905,57.0,2,10,12.0,100.0
11906,41.0,1,10,13.0,100.0
11907,57.0,7,10,12.0,100.0
11908,41.0,1,10,13.0,100.0
11909,45.0,10,0,15.0,46.0
11910,57.0,2,10,12.0,100.0
11911,41.0,1,10,13.0,100.0
11912,45.0,1,2,15.0,46.0
11913,69.0,6,240,2.0,94.0
11914,57.0,6,10,12.0,100.0
11915,41.0,1,10,13.0,100.0
11916,74.0,10,60,1.0,93.0
11917,45.0,0,0,15.0,49.0
11918,69.0,2,120,4.0,81.0
11919,57.0,3,10,12.0,100.0
11920,41.0,1,10,13.0,100.0
11921,45.0,1,2,15.0,49.0
11922,57.0,6,10,12.0,100.0
11923,41.0,1,10,13.0,100.0
11924,45.0,7,0,15.0,49.0
11925,57.0,2,10,12.0,100.0
11926,41.0,1,10,13.0,100.0
11927,83.0,0,175,0.0,125.0
11928,81.0,0,175,1.0,93.0
11929,57.0,7,10,12.0,100.0
11930,41.0,1,10,13.0,100.0
11931,77.0,4,60,1.0,93.0
11932,45.0,4,10,15.0,49.0
11933,57.0,3,10,12.0,100.0
11934,45.0,8,2,15.0,49.0
11935,41.0,0,10,13.0,100.0
11936,57.0,6,10,12.0,100.0
11937,41.0,1,10,13.0,100.0
11938,45.0,3,10,15.0,49.0
11939,57.0,11,10,12.0,100.0
11940,45.0,8,2,15.0,52.0
11941,41.0,0,10,13.0,100.0
11942,62.0,6,115,2.0,94.0
11943,83.0,3,235,2.0,94.0
11944,83.0,4,55,0.0,125.0
11945,81.0,3,55,1.0,93.0
11946,62.0,0,115,4.0,81.0
11947,50.0,0,115,4.0,81.0
11948,57.0,6,10,12.0,100.0
11949,41.0,1,10,13.0,100.0
11950,45.0,4,10,15.0,52.0
11951,29.0,1,235,14.0,100.0
11952,41.0,4,240,3.0,95.0
11953,45.0,3,10,15.0,50.0
11954,56.0,0,10,12.0,100.0
11955,40.0,1,10,13.0,100.0
11956,50.0,2,0,15.0,50.0
11957,56.0,7,10,12.0,100.0
11958,40.0,1,10,13.0,100.0
11959,50.0,6,1,15.0,52.0
11960,56.0,2,10,12.0,100.0
11961,40.0,1,10,13.0,100.0
11962,50.0,1,0,15.0,52.0
11963,83.0,2,60,10.0,40.0
11964,64.0,0,60,11.0,40.0
11965,80.0,1,60,11.0,40.0
11966,64.0,0,60,2.0,94.0
11967,62.0,0,60,10.0,40.0
11968,74.0,0,60,10.0,40.0
11969,56.0,8,10,12.0,100.0
11970,40.0,1,10,13.0,100.0
11971,74.0,2,60,11.0,40.0
11972,50.0,7,0,15.0,52.0
11973,56.0,2,10,12.0,100.0
11974,40.0,1,10,13.0,100.0
11975,56.0,7,10,12.0,100.0
11976,40.0,1,10,13.0,100.0
11977,50.0,2,10,15.0,53.0
11978,50.0,10,10,15.0,52.0
11979,56.0,2,10,12.0,100.0
11980,40.0,1,10,13.0,100.0
11981,50.0,1,2,15.0,52.0
11982,83.0,1,115,0.0,125.0
11983,68.0,6,60,2.0,94.0
11984,56.0,6,10,12.0,100.0
11985,40.0,1,10,13.0,100.0
11986,50.0,3,0,15.0,52.0
11987,56.0,3,10,12.0,100.0
11988,40.0,1,10,13.0,100.0
11989,50.0,1,2,15.0,54.0
11990,56.0,6,10,12.0,100.0
11991,40.0,1,10,13.0,100.0
11992,50.0,11,10,15.0,54.0
11993,56.0,2,10,12.0,100.0
11994,40.0,1,10,13.0,100.0
11995,50.0,7,10,15.0,53.0
11996,69.0,6,60,2.0,94.0
11997,85.0,1,60,0.0,125.0
11998,56.0,7,10,12.0,100.0
11999,40.0,1,10,13.0,100.0
12000,50.0,4,10,15.0,53.0
12001,56.0,6,10,12.0,100.0
12002,40.0,0,10,13.0,100.0
12003,50.0,8,2,15.0,54.0
12004,56.0,6,10,12.0,100.0
12005,40.0,1,10,13.0,100.0
12006,50.0,3,10,15.0,54.0
12007,56.0,11,10,12.0,100.0
12008,50.0,8,2,15.0,54.0
12009,40.0,0,10,13.0,100.0
12010,74.0,0,235,2.0,94.0
12011,71.0,3,55,2.0,94.0
12012,80.0,1,235,1.0,93.0
12013,64.0,0,235,4.0,81.0
12014,86.0,1,60,0.0,125.0
12015,56.0,6,10,12.0,100.0
12016,40.0,1,10,13.0,100.0
12017,50.0,4,10,15.0,54.0
12018,28.0,1,235,14.0,100.0
12019,62.0,4,720,3.0,95.0
12020,40.0,4,240,3.0,95.0
12021,50.0,0,10,15.0,54.0
12022,57.0,3,10,12.0,100.0
12023,45.0,1,10,13.0,100.0
12024,45.0,2,10,15.0,54.0
12025,57.0,7,10,12.0,100.0
12026,45.0,1,10,13.0,100.0
12027,45.0,10,0,15.0,53.0
12028,45.0,6,1,15.0,52.0
12029,57.0,2,10,12.0,100.0
12030,45.0,1,10,13.0,100.0
12031,76.0,0,175,1.0,93.0
12032,73.0,0,60,2.0,94.0
12033,64.0,3,60,10.0,40.0
12034,73.0,0,60,10.0,40.0
12035,81.0,1,60,10.0,40.0
12036,57.0,8,10,12.0,100.0
12037,81.0,0,60,11.0,40.0
12038,73.0,1,60,11.0,40.0
12039,45.0,1,10,13.0,100.0
12040,64.0,1,60,11.0,40.0
12041,45.0,1,10,15.0,52.0
12042,45.0,7,0,15.0,52.0
12043,57.0,2,10,12.0,100.0
12044,45.0,1,10,13.0,100.0
12045,57.0,7,10,12.0,100.0
12046,45.0,1,10,13.0,100.0
12047,45.0,2,10,15.0,50.0
12048,45.0,10,10,15.0,49.0
12049,57.0,2,10,12.0,100.0
12050,45.0,1,10,13.0,100.0
12051,76.0,6,55,2.0,94.0
12052,45.0,1,2,15.0,49.0
12053,88.0,0,115,0.0,125.0
12054,79.0,1,115,1.0,93.0
12055,73.0,4,55,1.0,93.0
12056,57.0,6,10,12.0,100.0
12057,45.0,1,10,13.0,100.0
12058,45.0,3,0,15.0,49.0
12059,57.0,3,10,12.0,100.0
12060,45.0,1,10,13.0,100.0
12061,45.0,1,2,15.0,46.0
12062,57.0,6,10,12.0,100.0
12063,45.0,1,10,13.0,100.0
12064,45.0,7,0,15.0,43.0
12065,57.0,2,10,12.0,100.0
12066,45.0,1,10,13.0,100.0
12067,78.0,6,51,2.0,94.0
12068,90.0,1,51,0.0,125.0
12069,78.0,0,51,1.0,93.0
12070,69.0,0,51,1.0,93.0
12071,57.0,7,10,12.0,100.0
12072,45.0,1,10,13.0,100.0
12073,45.0,4,10,15.0,43.0
12074,57.0,3,10,12.0,100.0
12075,45.0,8,2,15.0,42.0
12076,45.0,0,10,13.0,100.0
12077,57.0,6,10,12.0,100.0
12078,45.0,1,10,13.0,100.0
12079,45.0,3,10,15.0,39.0
12080,57.0,11,10,12.0,100.0
12081,45.0,8,2,15.0,39.0
12082,45.0,1,10,13.0,100.0
12083,79.0,3,51,2.0,94.0
12084,91.0,1,51,0.0,125.0
12085,67.0,3,51,1.0,93.0
12086,76.0,0,51,1.0,93.0
12087,69.0,0,235,2.0,94.0
12088,57.0,0,235,4.0,81.0
12089,64.0,0,235,4.0,81.0
12090,57.0,6,10,12.0,100.0
12091,45.0,1,10,13.0,100.0
12092,45.0,3,0,15.0,36.0
12093,33.0,1,235,14.0,100.0
12094,61.0,4,240,3.0,95.0
12095,45.0,0,240,3.0,95.0
12096,48.0,1,10,13.0,115.0
12097,50.0,2,10,15.0,35.0
12098,48.0,8,10,13.0,110.0
12099,50.0,2,10,15.0,37.0
12100,50.0,6,1,15.0,37.0
12101,48.0,3,10,13.0,105.0
12102,50.0,1,0,15.0,36.0
12103,66.0,1,60,10.0,40.0
12104,69.0,2,60,2.0,94.0
12105,81.0,0,60,2.0,94.0
12106,74.0,0,60,10.0,40.0
12107,78.0,1,60,11.0,40.0
12108,81.0,0,60,10.0,40.0
12109,48.0,9,10,13.0,100.0
12110,69.0,0,60,11.0,40.0
12111,62.0,0,60,11.0,40.0
12112,50.0,4,60,3.0,95.0
12113,62.0,0,60,3.0,95.0
12114,50.0,7,0,15.0,35.0
12115,48.0,3,10,13.0,100.0
12116,48.0,8,10,13.0,100.0
12117,50.0,2,0,15.0,36.0
12118,54.0,8,15,8.0,55.0
12119,48.0,3,10,13.0,100.0
12120,93.0,1,115,0.0,125.0
12121,50.0,1,2,15.0,36.0
12122,74.0,0,115,1.0,93.0
12123,66.0,0,115,1.0,93.0
12124,62.0,8,15,8.0,68.0
12125,48.0,7,10,13.0,100.0
12126,36.0,1,115,14.0,115.0
12127,50.0,0,10,15.0,37.0
12128,69.0,0,15,7.0,74.0
12129,47.0,1,10,13.0,100.0
12130,50.0,1,2,15.0,36.0
12131,66.0,2,15,7.0,76.0
12132,47.0,7,10,13.0,100.0
12133,74.0,5,15,7.0,79.0
12134,50.0,0,0,15.0,36.0
12135,47.0,3,10,13.0,100.0
12136,81.0,5,60,10.0,40.0
12137,81.0,7,15,7.0,76.0
12138,66.0,1,60,10.0,40.0
12139,62.0,0,60,11.0,40.0
12140,74.0,1,60,10.0,40.0
12141,78.0,1,60,11.0,40.0
12142,69.0,1,60,11.0,40.0
12143,47.0,8,10,13.0,100.0
12144,48.0,3,60,12.0,40.0
12145,50.0,4,10,15.0,37.0
12146,35.0,4,55,14.0,100.0
12147,60.0,1,60,12.0,40.0
12148,78.0,2,15,7.0,75.0
12149,45.0,9,10,13.0,100.0
12150,50.0,1,2,15.0,36.0
12151,50.0,3,0,15.0,37.0
12152,86.0,2,15,7.0,71.0
12153,45.0,7,10,13.0,100.0
12154,93.0,4,15,7.0,65.0
12155,50.0,8,2,15.0,37.0
12156,45.0,0,10,13.0,100.0
12157,45.0,7,10,13.0,100.0
12158,50.0,10,0,15.0,37.0
12159,33.0,5,55,14.0,100.0
12160,50.0,2,2,15.0,35.0
12161,48.0,1,10,13.0,115.0
12162,48.0,8,10,13.0,110.0
12163,50.0,10,0,15.0,36.0
12164,50.0,6,1,15.0,37.0
12165,48.0,3,10,13.0,105.0
12166,50.0,1,0,15.0,36.0
12167,48.0,9,10,13.0,100.0
12168,50.0,7,0,15.0,37.0
12169,48.0,3,10,13.0,100.0
12170,48.0,8,10,13.0,100.0
12171,50.0,2,0,15.0,36.0
12172,48.0,3,10,13.0,100.0
12173,54.0,8,15,8.0,52.0
12174,50.0,1,2,15.0,36.0
12175,62.0,1,15,8.0,67.0
12176,48.0,6,10,13.0,100.0
12177,36.0,5,115,14.0,115.0
12178,50.0,1,10,15.0,35.0
12179,69.0,0,15,7.0,73.0
12180,47.0,1,10,13.0,100.0
12181,50.0,1,2,15.0,37.0
12182,66.0,2,15,7.0,75.0
12183,47.0,7,10,13.0,100.0
12184,74.0,5,15,7.0,77.0
12185,50.0,6,10,15.0,37.0
12186,47.0,3,10,13.0,100.0
12187,50.0,0,10,15.0,37.0
12188,81.0,7,15,7.0,77.0
12189,74.0,6,60,10.0,40.0
12190,81.0,1,60,10.0,40.0
12191,62.0,0,60,11.0,40.0
12192,69.0,1,60,11.0,40.0
12193,66.0,0,60,10.0,40.0
12194,47.0,8,10,13.0,100.0
12195,78.0,1,60,11.0,40.0
12196,60.0,3,60,12.0,40.0
12197,48.0,0,60,12.0,40.0
12198,50.0,4,10,15.0,36.0
12199,35.0,5,55,14.0,100.0
12200,78.0,3,15,7.0,75.0
12201,45.0,8,10,13.0,100.0
12202,50.0,1,2,15.0,36.0
12203,86.0,2,15,7.0,70.0
12204,45.0,7,10,13.0,100.0
12205,50.0,3,10,15.0,36.0
12206,93.0,3,15,7.0,67.0
12207,50.0,8,2,15.0,36.0
12208,45.0,0,10,13.0,100.0
12209,45.0,7,10,13.0,100.0
12210,62.0,2,480,4.0,81.0
12211,50.0,0,480,4.0,81.0
12212,50.0,3,0,15.0,36.0
12213,33.0,5,55,14.0,100.0
12214,48.0,1,10,13.0,115.0
12215,48.0,10,10,13.0,110.0
12216,48.0,15,10,13.0,105.0
12217,48.0,15,10,13.0,100.0
12218,48.0,15,10,13.0,100.0
12219,48.0,15,10,13.0,100.0
12220,54.0,9,15,8.0,52.0
12221,48.0,6,10,13.0,100.0
12222,63.0,8,15,8.0,67.0
12223,48.0,7,10,13.0,100.0
12224,36.0,1,115,14.0,115.0
12225,69.0,2,15,7.0,73.0
12226,47.0,4,10,13.0,100.0
12227,66.0,3,15,7.0,74.0
12228,47.0,7,10,13.0,100.0
12229,75.0,7,15,7.0,78.0
12230,47.0,8,10,13.0,100.0
12231,81.0,5,60,10.0,40.0
12232,75.0,1,60,10.0,40.0
12233,81.0,7,15,7.0,75.0
12234,66.0,1,60,10.0,40.0
12235,72.0,1,60,6.0,119.0
12236,78.0,0,60,11.0,40.0
12237,69.0,0,60,11.0,40.0
12238,47.0,8,10,13.0,100.0
12239,63.0,1,60,11.0,40.0
12240,35.0,4,55,14.0,100.0
12241,48.0,1,60,12.0,40.0
12242,60.0,0,60,12.0,40.0
12243,78.0,7,15,7.0,73.0
12244,45.0,8,10,13.0,100.0
12245,87.0,3,15,7.0,71.0
12246,45.0,7,10,13.0,100.0
12247,93.0,8,15,7.0,66.0
12248,45.0,7,10,13.0,100.0
12249,78.0,0,600,0.0,98.0
12250,81.0,0,600,0.0,98.0
12251,45.0,15,10,13.0,100.0
12252,81.0,0,600,1.0,97.0
12253,78.0,1,600,1.0,97.0
12254,63.0,7,240,4.0,100.0
12255,33.0,5,55,14.0,100.0
12256,63.0,4,240,3.0,99.0
12257,51.0,0,240,3.0,99.0
12258,48.0,4,10,13.0,115.0
12259,48.0,10,10,13.0,110.0
12260,48.0,15,10,13.0,105.0
12261,48.0,15,10,13.0,100.0
12262,36.0,1,55,14.0,100.0
12263,43.0,15,10,13.0,100.0
12264,43.0,10,10,13.0,100.0
12265,43.0,5,10,13.0,100.0
12266,55.0,10,15,8.0,54.0
12267,64.0,9,15,8.0,67.0
12268,43.0,6,10,13.0,100.0
12269,31.0,5,55,14.0,100.0
12270,72.0,7,15,7.0,72.0
12271,42.0,1,10,13.0,100.0
12272,67.0,2,15,7.0,74.0
12273,42.0,8,10,13.0,100.0
12274,79.0,7,15,7.0,77.0
12275,42.0,8,10,13.0,100.0
12276,64.0,0,60,11.0,40.0
12277,67.0,0,60,10.0,40.0
12278,76.0,0,60,10.0,40.0
12279,72.0,1,60,11.0,40.0
12280,84.0,8,15,7.0,75.0
12281,84.0,1,60,10.0,40.0
12282,72.0,1,60,6.0,119.0
12283,42.0,7,10,13.0,100.0
12284,79.0,0,60,11.0,40.0
12285,60.0,0,60,12.0,100.0
12286,48.0,4,60,12.0,100.0
12287,30.0,5,55,14.0,100.0
12288,79.0,8,15,7.0,75.0
12289,40.0,7,10,13.0,100.0
12290,91.0,2,15,7.0,68.0
12291,40.0,8,10,13.0,100.0
12292,96.0,6,15,7.0,66.0
12293,40.0,9,10,13.0,100.0
12294,76.0,8,235,0.0,98.0
12295,79.0,0,235,0.0,98.0
12296,79.0,0,235,1.0,97.0
12297,64.0,0,235,4.0,100.0
12298,76.0,3,235,1.0,97.0
12299,60.0,0,235,4.0,100.0
12300,67.0,0,120,2.0,98.0
12301,40.0,15,10,13.0,100.0
12302,28.0,5,55,14.0,100.0
12303,52.0,4,240,3.0,99.0
12304,64.0,0,240,3.0,99.0
12305,84.0,1,15,7.0,80.0
12306,54.0,3,10,12.0,100.0
12307,38.0,1,10,13.0,100.0
12308,50.0,1,8,15.0,36.0
12309,78.0,1,15,7.0,72.0
12310,54.0,7,10,12.0,100.0
12311,38.0,1,10,13.0,100.0
12312,50.0,2,8,15.0,35.0
12313,50.0,4,8,15.0,36.0
12314,69.0,6,15,7.0,72.0
12315,54.0,2,10,12.0,100.0
12316,38.0,1,10,13.0,100.0
12317,50.0,0,8,15.0,36.0
12318,74.0,6,60,10.0,40.0
12319,78.0,6,15,7.0,74.0
12320,72.0,1,60,11.0,40.0
12321,81.0,0,60,11.0,40.0
12322,84.0,0,60,10.0,40.0
12323,54.0,8,10,12.0,100.0
12324,50.0,1,8,15.0,38.0
12325,38.0,1,60,8.0,72.0
12326,62.0,0,60,11.0,40.0
12327,38.0,1,10,13.0,100.0
12328,62.0,1,60,6.0,127.0
12329,50.0,2,8,15.0,38.0
12330,54.0,2,10,12.0,100.0
12331,72.0,9,15,8.0,76.0
12332,38.0,1,10,13.0,100.0
12333,50.0,7,8,15.0,38.0
12334,66.0,1,15,8.0,76.0
12335,54.0,6,10,12.0,100.0
12336,50.0,2,8,15.0,38.0
12337,38.0,1,10,13.0,100.0
12338,50.0,4,8,15.0,39.0
12339,57.0,6,15,8.0,79.0
12340,54.0,2,10,12.0,100.0
12341,38.0,1,10,13.0,100.0
12342,50.0,8,8,15.0,38.0
12343,72.0,0,120,2.0,98.0
12344,69.0,0,120,2.0,98.0
12345,81.0,0,120,0.0,98.0
12346,84.0,0,120,0.0,98.0
12347,66.0,0,15,8.0,80.0
12348,54.0,6,10,12.0,100.0
12349,50.0,1,8,15.0,38.0
12350,38.0,1,10,13.0,100.0
12351,84.0,0,120,1.0,97.0
12352,81.0,0,120,1.0,97.0
12353,66.0,0,120,4.0,100.0
12354,50.0,0,8,15.0,40.0
12355,54.0,4,120,3.0,99.0
12356,83.0,0,15,7.0,95.0
12357,55.0,3,10,12.0,100.0
12358,38.0,1,10,13.0,100.0
12359,50.0,2,8,15.0,39.0
12360,79.0,2,15,7.0,84.0
12361,50.0,1,8,15.0,40.0
12362,55.0,6,10,12.0,100.0
12363,38.0,1,10,13.0,100.0
12364,50.0,6,8,15.0,42.0
12365,71.0,5,15,7.0,84.0
12366,55.0,2,10,12.0,100.0
12367,38.0,1,10,13.0,100.0
12368,50.0,1,8,15.0,40.0
12369,79.0,6,15,7.0,84.0
12370,74.0,0,60,10.0,40.0
12371,71.0,0,60,11.0,40.0
12372,55.0,7,10,12.0,100.0
12373,83.0,1,60,10.0,40.0
12374,38.0,1,10,13.0,100.0
12375,79.0,0,60,11.0,40.0
12376,62.0,1,60,11.0,40.0
12377,50.0,4,8,15.0,42.0
12378,71.0,4,15,8.0,87.0
12379,50.0,0,8,15.0,43.0
12380,55.0,6,10,12.0,100.0
12381,38.0,1,10,13.0,100.0
12382,50.0,8,8,15.0,43.0
12383,55.0,4,10,12.0,100.0
12384,38.0,1,10,13.0,100.0
12385,67.0,2,15,8.0,90.0
12386,50.0,3,8,15.0,42.0
12387,50.0,1,8,15.0,43.0
12388,59.0,5,15,8.0,90.0
12389,55.0,6,10,12.0,100.0
12390,38.0,0,10,13.0,100.0
12391,50.0,0,8,15.0,42.0
12392,71.0,0,120,2.0,98.0
12393,67.0,6,120,2.0,98.0
12394,67.0,8,15,8.0,91.0
12395,83.0,0,120,0.0,98.0
12396,55.0,6,10,12.0,100.0
12397,38.0,1,10,13.0,100.0
12398,67.0,1,120,4.0,100.0
12399,50.0,4,8,15.0,45.0
12400,55.0,4,120,3.0,99.0
12401,91.0,2,15,7.0,105.0
12402,50.0,3,0,15.0,45.0
12403,59.0,0,10,12.0,100.0
12404,38.0,1,10,13.0,100.0
12405,50.0,0,8,15.0,45.0
12406,83.0,0,15,7.0,93.0
12407,59.0,7,10,12.0,100.0
12408,38.0,1,10,13.0,100.0
12409,50.0,2,8,15.0,45.0
12410,50.0,6,8,15.0,45.0
12411,79.0,4,15,7.0,91.0
12412,59.0,2,10,12.0,100.0
12413,38.0,1,10,13.0,100.0
12414,83.0,7,15,7.0,90.0
12415,50.0,1,8,15.0,46.0
12416,59.0,7,10,12.0,100.0
12417,38.0,1,10,13.0,100.0
12418,62.0,2,60,6.0,127.0
12419,50.0,3,8,15.0,45.0
12420,59.0,2,10,12.0,100.0
12421,74.0,8,15,8.0,90.0
12422,38.0,1,10,13.0,100.0
12423,50.0,7,8,15.0,46.0
12424,59.0,5,10,12.0,100.0
12425,71.0,2,15,8.0,89.0
12426,38.0,1,10,13.0,100.0
12427,50.0,2,8,15.0,47.0
12428,50.0,3,8,15.0,47.0
12429,62.0,7,15,8.0,91.0
12430,59.0,2,10,12.0,100.0
12431,38.0,1,10,13.0,100.0
12432,50.0,1,0,15.0,49.0
12433,71.0,0,120,2.0,98.0
12434,79.0,1,120,2.0,98.0
12435,91.0,1,120,0.0,98.0
12436,79.0,1,240,0.0,98.0
12437,59.0,5,10,12.0,100.0
12438,71.0,1,15,8.0,89.0
12439,38.0,1,10,13.0,100.0
12440,59.0,1,120,4.0,100.0
12441,79.0,0,240,1.0,97.0
12442,83.0,0,240,1.0,97.0
12443,50.0,0,8,15.0,49.0
12444,59.0,4,120,3.0,99.0
12445,90.0,2,15,7.0,103.0
12446,62.0,3,10,12.0,100.0
12447,38.0,1,10,13.0,100.0
12448,50.0,1,8,15.0,49.0
12449,81.0,3,15,7.0,89.0
12450,50.0,1,8,15.0,49.0
12451,62.0,6,10,12.0,100.0
12452,38.0,1,10,13.0,100.0
12453,50.0,5,8,15.0,49.0
12454,78.0,6,15,7.0,87.0
12455,62.0,2,10,12.0,100.0
12456,38.0,1,10,13.0,100.0
12457,50.0,7,8,15.0,49.0
12458,74.0,4,60,10.0,49.0
12459,81.0,0,15,7.0,88.0
12460,69.0,1,60,11.0,49.0
12461,62.0,7,10,12.0,100.0
12462,81.0,1,60,10.0,49.0
12463,38.0,1,10,13.0,100.0
12464,62.0,0,60,11.0,49.0
12465,78.0,0,60,11.0,49.0
12466,50.0,4,8,15.0,50.0
12467,50.0,8,0,15.0,52.0
12468,74.0,4,15,8.0,86.0
12469,62.0,6,10,12.0,100.0
12470,38.0,0,10,13.0,100.0
12471,62.0,4,10,12.0,100.0
12472,69.0,2,15,8.0,85.0
12473,38.0,1,10,13.0,100.0
12474,50.0,3,8,15.0,52.0
12475,50.0,1,8,15.0,52.0
12476,62.0,4,10,12.0,100.0
12477,38.0,0,10,13.0,100.0
12478,62.0,7,15,8.0,84.0
12479,50.0,8,8,15.0,53.0
12480,69.0,0,120,2.0,98.0
12481,78.0,0,120,2.0,98.0
12482,90.0,0,120,0.0,98.0
12483,81.0,0,120,0.0,98.0
12484,62.0,4,10,12.0,100.0
12485,38.0,1,10,13.0,100.0
12486,69.0,2,15,8.0,86.0
12487,50.0,1,480,4.0,100.0
12488,62.0,2,120,4.0,100.0
12489,78.0,0,120,1.0,97.0
12490,81.0,0,120,1.0,97.0
12491,50.0,4,8,15.0,53.0
12492,38.0,1,475,14.0,100.0
12493,62.0,4,120,3.0,99.0
12494,50.0,0,8,15.0,53.0
12495,88.0,0,15,7.0,97.0
12496,67.0,3,10,12.0,100.0
12497,43.0,1,10,13.0,100.0
12498,50.0,0,8,15.0,52.0
12499,79.0,1,15,7.0,85.0
12500,67.0,6,10,12.0,100.0
12501,43.0,1,10,13.0,100.0
12502,50.0,2,8,15.0,54.0
12503,50.0,4,8,15.0,52.0
12504,76.0,6,15,7.0,84.0
12505,67.0,2,10,12.0,100.0
12506,43.0,1,10,13.0,100.0
12507,79.0,8,15,7.0,82.0
12508,67.0,6,10,12.0,100.0
12509,50.0,1,8,15.0,52.0
12510,43.0,1,10,13.0,100.0
12511,50.0,3,8,15.0,52.0
12512,76.0,8,15,8.0,82.0
12513,67.0,2,10,12.0,100.0
12514,43.0,1,10,13.0,100.0
12515,50.0,7,8,15.0,52.0
12516,67.0,2,15,8.0,82.0
12517,67.0,5,10,12.0,100.0
12518,50.0,2,8,15.0,50.0
12519,43.0,1,10,13.0,100.0
12520,50.0,4,8,15.0,50.0
12521,64.0,6,15,8.0,82.0
12522,67.0,2,10,12.0,100.0
12523,43.0,1,10,13.0,100.0
12524,50.0,8,8,15.0,52.0
12525,76.0,0,120,2.0,98.0
12526,67.0,0,15,8.0,79.0
12527,88.0,0,120,0.0,98.0
12528,50.0,1,8,15.0,49.0
12529,67.0,6,10,12.0,100.0
12530,43.0,1,10,13.0,100.0
12531,79.0,0,120,1.0,97.0
12532,50.0,0,8,15.0,49.0
12533,83.0,0,15,7.0,91.0
12534,67.0,3,10,12.0,100.0
12535,43.0,1,10,13.0,100.0
12536,50.0,8,8,15.0,49.0
12537,76.0,0,15,7.0,81.0
12538,67.0,6,10,12.0,100.0
12539,50.0,1,8,15.0,49.0
12540,43.0,1,10,13.0,100.0
12541,50.0,6,8,15.0,49.0
12542,71.0,5,15,7.0,79.0
12543,67.0,2,10,12.0,100.0
12544,43.0,1,10,13.0,100.0
12545,50.0,0,8,15.0,49.0
12546,71.0,4,60,10.0,47.0
12547,64.0,2,60,11.0,47.0
12548,71.0,0,60,11.0,47.0
12549,76.0,7,15,7.0,78.0
12550,55.0,1,60,11.0,47.0
12551,79.0,1,60,10.0,47.0
12552,67.0,7,10,12.0,100.0
12553,43.0,1,10,13.0,100.0
12554,50.0,4,8,15.0,49.0
12555,50.0,1,8,15.0,49.0
12556,67.0,4,15,8.0,78.0
12557,67.0,6,10,12.0,100.0
12558,43.0,0,10,13.0,100.0
12559,50.0,8,8,15.0,46.0
12560,67.0,5,10,12.0,100.0
12561,64.0,1,15,8.0,76.0
12562,43.0,1,10,13.0,100.0
12563,50.0,3,8,15.0,49.0
12564,50.0,8,0,15.0,45.0
12565,55.0,5,15,8.0,76.0
12566,67.0,6,10,12.0,100.0
12567,43.0,0,10,13.0,100.0
12568,67.0,3,240,2.0,98.0
12569,71.0,0,120,2.0,98.0
12570,83.0,0,120,0.0,98.0
12571,67.0,5,10,12.0,100.0
12572,64.0,1,15,8.0,75.0
12573,43.0,1,10,13.0,100.0
12574,64.0,0,120,4.0,100.0
12575,67.0,3,240,4.0,100.0
12576,76.0,2,120,1.0,97.0
12577,50.0,4,8,15.0,47.0
12578,31.0,1,235,14.0,100.0
12579,67.0,4,240,3.0,99.0
12580,86.0,1,15,7.0,85.0
12581,50.0,3,8,15.0,45.0
12582,66.0,0,10,12.0,100.0
12583,45.0,2,8,15.0,46.0
12584,81.0,0,15,7.0,74.0
12585,66.0,7,10,12.0,100.0
12586,45.0,3,8,15.0,45.0
12587,45.0,1,26,13.0,100.0
12588,45.0,6,8,15.0,46.0
12589,74.0,4,15,7.0,72.0
12590,66.0,2,10,12.0,100.0
12591,45.0,6,8,15.0,45.0
12592,69.0,0,60,10.0,45.0
12593,76.0,1,60,10.0,45.0
12594,81.0,0,15,7.0,73.0
12595,66.0,8,10,12.0,100.0
12596,45.0,2,8,15.0,45.0
12597,66.0,0,60,11.0,45.0
12598,57.0,3,60,11.0,45.0
12599,74.0,0,60,11.0,45.0
12600,45.0,1,26,13.0,100.0
12601,45.0,4,8,15.0,46.0
12602,69.0,7,15,8.0,70.0
12603,66.0,2,10,12.0,100.0
12604,45.0,7,8,15.0,45.0
12605,66.0,2,15,8.0,71.0
12606,66.0,5,10,12.0,100.0
12607,45.0,3,8,15.0,45.0
12608,45.0,1,26,13.0,100.0
12609,45.0,3,8,15.0,45.0
12610,66.0,2,10,12.0,100.0
12611,57.0,7,15,8.0,73.0
12612,45.0,2,0,15.0,45.0
12613,69.0,0,120,2.0,98.0
12614,66.0,1,120,2.0,98.0
12615,81.0,0,120,0.0,98.0
12616,86.0,1,120,0.0,98.0
12617,66.0,4,10,12.0,100.0
12618,66.0,2,15,8.0,67.0
12619,78.0,0,120,1.0,97.0
12620,74.0,0,120,1.0,97.0
12621,66.0,0,120,4.0,100.0
12622,45.0,1,26,13.0,100.0
12623,66.0,4,120,3.0,99.0
12624,45.0,0,8,15.0,43.0
12625,85.0,0,15,7.0,80.0
12626,64.0,3,10,12.0,100.0
12627,45.0,1,8,15.0,45.0
12628,81.0,3,15,7.0,66.0
12629,45.0,2,8,15.0,45.0
12630,64.0,6,10,12.0,100.0
12631,45.0,1,26,13.0,100.0
12632,45.0,4,8,15.0,43.0
12633,73.0,7,15,7.0,68.0
12634,64.0,2,10,12.0,100.0
12635,45.0,7,8,15.0,45.0
12636,76.0,6,60,10.0,43.0
12637,67.0,1,60,10.0,42.0
12638,73.0,0,60,11.0,43.0
12639,81.0,1,15,7.0,66.0
12640,64.0,0,60,11.0,43.0
12641,64.0,6,10,12.0,100.0
12642,57.0,3,60,11.0,42.0
12643,45.0,1,26,13.0,100.0
12644,45.0,5,8,15.0,43.0
12645,45.0,8,0,15.0,43.0
12646,64.0,4,10,12.0,100.0
12647,69.0,6,15,8.0,66.0
12648,64.0,4,10,12.0,100.0
12649,64.0,2,15,8.0,66.0
12650,45.0,4,8,15.0,42.0
12651,45.0,1,26,13.0,100.0
12652,45.0,8,0,15.0,43.0
12653,57.0,5,15,8.0,62.0
12654,64.0,6,10,12.0,100.0
12655,67.0,0,120,2.0,98.0
12656,64.0,0,120,2.0,98.0
12657,79.0,0,120,0.0,98.0
12658,85.0,0,120,0.0,98.0
12659,64.0,1,15,8.0,63.0
12660,64.0,5,10,12.0,100.0
12661,45.0,0,26,13.0,100.0
12662,79.0,0,120,1.0,97.0
12663,64.0,0,120,4.0,100.0
12664,57.0,0,240,4.0,100.0
12665,73.0,0,120,1.0,97.0
12666,45.0,5,8,15.0,42.0
12667,33.0,1,235,14.0,100.0
12668,64.0,4,120,3.0,99.0
12669,45.0,3,8,15.0,42.0
12670,45.0,4,30,3.0,99.0
12671,66.0,0,60,2.0,98.0
12672,66.0,0,60,11.0,40.0
12673,62.0,0,60,2.0,98.0
12674,74.0,0,60,11.0,40.0
12675,86.0,1,60,0.0,98.0
12676,66.0,0,60,10.0,40.0
12677,78.0,0,60,0.0,98.0
12678,74.0,1,60,10.0,40.0
12679,57.0,2,60,11.0,40.0
12680,78.0,0,60,1.0,97.0
12681,74.0,0,60,1.0,97.0
12682,62.0,0,60,12.0,100.0
12683,38.0,1,60,14.0,100.0
12684,50.0,2,60,15.0,38.0
12685,45.0,1,102,13.0,100.0
12686,38.0,0,102,13.0,100.0
12687,81.0,2,120,7.0,44.0
12688,74.0,0,120,7.0,46.0
12689,86.0,1,120,7.0,54.0
12690,66.0,0,120,8.0,44.0
12691,62.0,0,120,8.0,44.0
12692,50.0,57,115,3.0,99.0
12693,50.0,7,60,15.0,38.0
12694,52.0,57,10,3.0,99.0
12695,54.0,10,10,3.0,99.0
12696,52.0,10,10,3.0,99.0
12697,38.0,0,102,13.0,100.0
12698,45.0,56,102,13.0,100.0
12699,50.0,10,15,3.0,99.0
12700,52.0,15,15,3.0,99.0
12701,54.0,4,30,3.0,99.0
12702,50.0,3,60,15.0,38.0
12703,57.0,57,30,3.0,99.0
12704,45.0,0,102,13.0,100.0
12705,38.0,11,102,13.0,100.0
12706,50.0,3,60,15.0,38.0
12707,45.0,56,77,13.0,100.0
12708,38.0,0,77,13.0,100.0
12709,74.0,0,25,1.0,97.0
12710,66.0,79,25,1.0,97.0
12711,38.0,0,26,13.0,100.0
12712,45.0,4,26,13.0,100.0
12713,73.0,0,30,1.0,97.0
12714,64.0,26,30,1.0,97.0
12715,74.0,19,20,1.0,97.0
12716,66.0,0,20,1.0,97.0
12717,50.0,7,60,15.0,38.0
12718,76.0,0,14,1.0,97.0
12719,67.0,30,14,1.0,97.0
12720,38.0,0,77,13.0,100.0
12721,45.0,4,77,13.0,100.0
12722,69.0,30,14,1.0,97.0
12723,78.0,0,14,1.0,97.0
12724,45.0,0,26,13.0,100.0
12725,38.0,4,26,13.0,100.0
12726,79.0,26,30,1.0,97.0
12727,71.0,0,30,1.0,97.0
12728,76.0,0,20,1.0,97.0
12729,67.0,19,20,1.0,97.0
12730,50.0,7,60,15.0,38.0
12731,74.0,0,14,1.0,97.0
12732,66.0,30,14,1.0,97.0
12733,45.0,0,77,13.0,100.0
12734,38.0,4,77,13.0,100.0
12735,64.0,0,14,1.0,97.0
12736,73.0,30,14,1.0,97.0
12737,45.0,0,26,13.0,100.0
12738,38.0,4,26,13.0,100.0
12739,74.0,0,30,1.0,97.0
12740,66.0,26,30,1.0,97.0
12741,76.0,0,20,1.0,97.0
12742,69.0,19,20,1.0,97.0
12743,50.0,7,60,15.0,38.0
12744,78.0,30,14,1.0,97.0
12745,74.0,0,14,1.0,97.0
12746,45.0,0,77,13.0,100.0
12747,38.0,4,77,13.0,100.0
12748,76.0,0,14,1.0,97.0
12749,79.0,30,14,1.0,97.0
12750,45.0,0,26,13.0,100.0
12751,38.0,4,26,13.0,100.0
12752,81.0,26,30,1.0,97.0
12753,78.0,0,30,1.0,97.0
12754,78.0,0,20,1.0,97.0
12755,74.0,19,20,1.0,97.0
12756,50.0,7,60,15.0,38.0
12757,69.0,30,14,1.0,97.0
12758,76.0,0,14,1.0,97.0
12759,45.0,0,77,13.0,100.0
12760,38.0,4,77,13.0,100.0
12761,62.0,4,565,3.0,99.0
12762,74.0,0,14,1.0,97.0
12763,66.0,30,14,1.0,97.0
12764,57.0,0,25,4.0,100.0
12765,62.0,0,25,4.0,100.0
12766,38.0,0,26,13.0,100.0
12767,45.0,4,26,13.0,100.0
12768,54.0,4,25,3.0,99.0
12769,61.0,0,30,4.0,100.0
12770,52.0,4,30,3.0,99.0
12771,62.0,19,25,4.0,100.0
12772,54.0,8,25,3.0,99.0
12773,50.0,3,60,15.0,38.0
12774,64.0,22,19,4.0,100.0
12775,45.0,4,77,13.0,100.0
12776,38.0,0,77,13.0,100.0
12777,57.0,0,85,4.0,100.0
12778,55.0,8,19,3.0,99.0
12779,66.0,22,19,4.0,100.0
12780,57.0,0,19,4.0,100.0
12781,57.0,4,19,3.0,99.0
12782,45.0,0,26,13.0,100.0
12783,38.0,4,26,13.0,100.0
12784,67.0,22,30,4.0,100.0
12785,59.0,4,30,3.0,99.0
12786,64.0,19,25,4.0,100.0
12787,55.0,8,25,3.0,99.0
12788,50.0,3,60,15.0,38.0
12789,62.0,22,19,4.0,100.0
12790,45.0,4,77,13.0,100.0
12791,38.0,0,77,13.0,100.0
12792,57.0,0,85,4.0,100.0
12793,54.0,8,19,3.0,99.0
12794,61.0,0,19,4.0,100.0
12795,57.0,22,19,4.0,100.0
12796,52.0,4,19,3.0,99.0
12797,38.0,4,26,13.0,100.0
12798,45.0,0,26,13.0,100.0
12799,62.0,22,30,4.0,100.0
12800,54.0,0,30,4.0,100.0
12801,57.0,19,25,4.0,100.0
12802,64.0,0,25,4.0,100.0
12803,50.0,3,60,15.0,38.0
12804,62.0,0,19,4.0,100.0
12805,66.0,30,19,4.0,100.0
12806,38.0,4,77,13.0,100.0
12807,45.0,0,77,13.0,100.0
12808,67.0,30,19,4.0,100.0
12809,64.0,0,19,4.0,100.0
12810,45.0,0,26,13.0,100.0
12811,38.0,4,26,13.0,100.0
12812,69.0,26,30,4.0,100.0
12813,66.0,0,30,4.0,100.0
12814,81.0,22,390,1.0,97.0
12815,62.0,19,25,4.0,100.0
12816,78.0,0,25,1.0,97.0
12817,66.0,0,25,4.0,100.0
12818,50.0,7,60,15.0,38.0
12819,64.0,0,19,4.0,100.0
12820,57.0,0,19,4.0,100.0
12821,38.0,4,77,13.0,100.0
12822,45.0,0,77,13.0,100.0
12823,76.0,30,30,1.0,97.0
12824,69.0,0,450,1.0,97.0
12825,54.0,0,19,4.0,100.0
12826,62.0,0,19,4.0,100.0
12827,81.0,1,25,0.0,98.0
12828,74.0,0,26,7.0,68.0
12829,66.0,26,26,7.0,68.0
12830,54.0,2,26,8.0,68.0
12831,62.0,0,26,8.0,68.0
12832,57.0,3,26,12.0,100.0
12833,50.0,0,26,12.0,100.0
12834,45.0,1,26,13.0,100.0
12835,69.0,1,30,1.0,97.0
12836,74.0,0,30,1.0,97.0
12837,38.0,0,26,13.0,100.0
12838,83.0,1,8,0.0,98.0
12839,57.0,4,240,3.0,99.0
12840,81.0,1,8,0.0,98.0
12841,83.0,1,8,0.0,98.0
12842,73.0,22,30,7.0,76.0
12843,64.0,0,30,7.0,76.0
12844,81.0,7,8,0.0,98.0
12845,61.0,2,30,8.0,76.0
12846,52.0,0,30,8.0,76.0
12847,83.0,1,8,0.0,98.0
12848,81.0,4,8,0.0,98.0
12849,83.0,8,8,0.0,98.0
12850,76.0,7,30,7.0,68.0
12851,67.0,0,30,7.0,68.0
12852,81.0,7,8,0.0,98.0
12853,64.0,2,30,8.0,68.0
12854,55.0,1,30,8.0,68.0
12855,83.0,0,8,0.0,98.0
12856,50.0,7,60,15.0,38.0
12857,81.0,4,8,0.0,98.0
12858,50.0,0,77,12.0,100.0
12859,57.0,3,77,12.0,100.0
12860,83.0,8,8,0.0,98.0
12861,38.0,0,77,13.0,100.0
12862,78.0,7,26,7.0,68.0
12863,69.0,1,26,7.0,68.0
12864,66.0,2,26,8.0,68.0
12865,57.0,1,26,8.0,68.0
12866,81.0,7,8,0.0,98.0
12867,83.0,1,8,0.0,98.0
12868,81.0,1,8,0.0,98.0
12869,83.0,8,8,0.0,98.0
12870,79.0,7,26,7.0,68.0
12871,71.0,0,26,7.0,68.0
12872,67.0,2,26,8.0,68.0
12873,59.0,1,26,8.0,68.0
12874,81.0,7,8,0.0,98.0
12875,57.0,0,26,12.0,100.0
12876,50.0,3,26,12.0,100.0
12877,38.0,0,26,13.0,100.0
12878,83.0,1,8,0.0,98.0
12879,81.0,0,8,0.0,98.0
12880,83.0,1,8,0.0,98.0
12881,83.0,7,30,7.0,72.0
12882,81.0,7,8,0.0,98.0
12883,74.0,0,30,7.0,72.0
12884,71.0,2,30,8.0,72.0
12885,62.0,1,30,8.0,72.0
12886,83.0,0,8,0.0,98.0
12887,81.0,4,8,0.0,98.0
12888,83.0,8,8,0.0,98.0
12889,71.0,7,30,7.0,68.0
12890,81.0,7,8,0.0,98.0
12891,79.0,1,30,7.0,68.0
12892,67.0,0,30,8.0,68.0
12893,59.0,3,30,8.0,68.0
12894,57.0,0,180,4.0,100.0
12895,64.0,1,180,4.0,100.0
12896,83.0,0,8,0.0,98.0
12897,50.0,7,60,15.0,42.0
12898,81.0,4,8,0.0,98.0
12899,50.0,3,77,12.0,100.0
12900,57.0,0,77,12.0,100.0
12901,83.0,8,8,0.0,98.0
12902,38.0,1,77,13.0,100.0
12903,78.0,7,26,7.0,68.0
12904,69.0,1,26,7.0,68.0
12905,57.0,2,26,8.0,68.0
12906,66.0,1,26,8.0,68.0
12907,81.0,7,8,0.0,98.0
12908,83.0,1,8,0.0,98.0
12909,81.0,1,8,0.0,98.0
12910,83.0,8,8,0.0,98.0
12911,76.0,7,26,7.0,68.0
12912,67.0,0,26,7.0,68.0
12913,64.0,2,26,8.0,68.0
12914,55.0,1,26,8.0,68.0
12915,81.0,7,8,0.0,98.0
12916,50.0,0,26,12.0,100.0
12917,57.0,3,26,12.0,100.0
12918,57.0,3,0,4.0,100.0
12919,38.0,0,26,13.0,100.0
12920,83.0,0,8,0.0,98.0
12921,81.0,0,8,0.0,98.0
12922,83.0,1,8,0.0,98.0
12923,66.0,0,30,7.0,76.0
12924,74.0,8,30,7.0,76.0
12925,81.0,7,8,0.0,98.0
12926,54.0,0,30,8.0,76.0
12927,62.0,0,30,8.0,76.0
12928,83.0,0,8,0.0,98.0
12929,81.0,4,8,0.0,98.0
12930,83.0,8,8,0.0,98.0
12931,81.0,7,8,0.0,98.0
12932,69.0,0,30,7.0,68.0
12933,76.0,8,30,7.0,68.0
12934,57.0,2,30,8.0,68.0
12935,64.0,1,30,8.0,68.0
12936,83.0,0,8,0.0,98.0
12937,50.0,7,60,15.0,42.0
12938,81.0,4,8,0.0,98.0
12939,57.0,0,77,12.0,100.0
12940,50.0,3,77,12.0,100.0
12941,83.0,8,8,0.0,98.0
12942,38.0,1,77,13.0,100.0
12943,78.0,7,26,7.0,68.0
12944,74.0,1,26,7.0,68.0
12945,62.0,2,26,8.0,68.0
12946,66.0,1,26,8.0,68.0
12947,81.0,7,8,0.0,98.0
12948,83.0,0,8,0.0,98.0
12949,81.0,1,8,0.0,98.0
12950,83.0,8,8,0.0,98.0
12951,81.0,8,26,7.0,68.0
12952,76.0,0,26,7.0,68.0
12953,69.0,2,26,8.0,68.0
12954,64.0,1,26,8.0,68.0
12955,81.0,7,8,0.0,98.0
12956,50.0,3,26,12.0,100.0
12957,57.0,0,26,12.0,100.0
12958,38.0,0,26,13.0,100.0
12959,83.0,0,8,0.0,98.0
12960,81.0,1,8,0.0,98.0
12961,83.0,1,8,0.0,98.0
12962,86.0,8,30,7.0,72.0
12963,78.0,7,1,7.0,68.0
12964,81.0,7,8,0.0,98.0
12965,66.0,2,1,8.0,68.0
12966,74.0,3,30,8.0,72.0
12967,83.0,0,8,0.0,98.0
12968,81.0,4,8,0.0,98.0
12969,83.0,8,8,0.0,98.0
12970,81.0,1,30,7.0,68.0
12971,81.0,7,8,0.0,98.0
12972,69.0,1,30,8.0,68.0
12973,50.0,0,180,4.0,100.0
12974,83.0,1,8,0.0,98.0
12975,50.0,7,60,15.0,42.0
12976,81.0,4,8,0.0,98.0
12977,50.0,3,77,12.0,100.0
12978,57.0,0,77,12.0,100.0
12979,83.0,8,8,0.0,98.0
12980,38.0,0,77,13.0,100.0
12981,76.0,7,26,7.0,68.0
12982,79.0,0,26,7.0,68.0
12983,67.0,0,26,8.0,68.0
12984,64.0,3,26,8.0,68.0
12985,81.0,7,8,0.0,98.0
12986,83.0,1,8,0.0,98.0
12987,81.0,1,8,0.0,98.0
12988,83.0,8,8,0.0,98.0
12989,78.0,7,26,7.0,68.0
12990,74.0,0,26,7.0,68.0
12991,66.0,3,26,8.0,68.0
12992,62.0,0,26,8.0,68.0
12993,81.0,7,8,0.0,98.0
12994,57.0,0,26,12.0,100.0
12995,50.0,3,26,12.0,100.0
12996,38.0,0,26,13.0,100.0
12997,88.0,0,8,0.0,98.0
12998,86.0,0,8,0.0,98.0
12999,88.0,8,8,0.0,98.0
13000,68.0,8,30,7.0,76.0
13001,86.0,7,8,0.0,98.0
13002,76.0,0,30,7.0,76.0
13003,64.0,2,30,8.0,76.0
13004,56.0,0,30,8.0,76.0
13005,88.0,1,8,0.0,98.0
13006,86.0,5,8,0.0,98.0
13007,88.0,8,8,0.0,98.0
13008,74.0,7,30,7.0,68.0
13009,78.0,0,30,7.0,68.0
13010,86.0,7,8,0.0,98.0
13011,62.0,0,30,8.0,68.0
13012,66.0,2,30,8.0,68.0
13013,88.0,0,8,0.0,98.0
13014,86.0,4,8,0.0,98.0
13015,88.0,8,8,0.0,98.0
13016,52.0,4,77,12.0,100.0
13017,40.0,0,77,13.0,100.0
13018,47.0,1,77,13.0,100.0
13019,76.0,7,26,7.0,68.0
13020,80.0,1,26,7.0,68.0
13021,68.0,3,26,8.0,68.0
13022,64.0,0,26,8.0,68.0
13023,86.0,7,8,0.0,98.0
13024,88.0,8,8,0.0,98.0
13025,86.0,1,8,0.0,98.0
13026,88.0,8,8,0.0,98.0
13027,78.0,0,26,7.0,68.0
13028,81.0,0,26,7.0,68.0
13029,66.0,0,26,8.0,68.0
13030,69.0,2,26,8.0,68.0
13031,86.0,7,8,0.0,98.0
13032,52.0,4,26,12.0,100.0
13033,47.0,0,26,13.0,100.0
13034,40.0,0,26,13.0,100.0
13035,88.0,1,8,0.0,98.0
13036,86.0,1,8,0.0,98.0
13037,88.0,8,8,0.0,98.0
13038,83.0,7,26,7.0,72.0
13039,80.0,0,26,7.0,72.0
13040,71.0,2,26,8.0,72.0
13041,68.0,1,26,8.0,72.0
13042,86.0,7,8,0.0,98.0
13043,88.0,1,8,0.0,98.0
13044,86.0,4,8,0.0,98.0
13045,88.0,8,8,0.0,98.0
13046,81.0,7,26,7.0,68.0
13047,85.0,0,26,7.0,68.0
13048,73.0,2,26,8.0,68.0
13049,69.0,1,26,8.0,68.0
13050,86.0,7,8,0.0,98.0
13051,88.0,0,8,0.0,98.0
13052,86.0,4,8,0.0,98.0
13053,52.0,3,77,12.0,100.0
13054,88.0,8,8,0.0,98.0
13055,47.0,0,77,13.0,100.0
13056,40.0,0,77,13.0,100.0
13057,86.0,7,26,7.0,68.0
13058,83.0,1,26,7.0,68.0
13059,71.0,3,26,8.0,68.0
13060,74.0,0,26,8.0,68.0
13061,86.0,7,8,0.0,98.0
13062,88.0,1,8,0.0,98.0
13063,86.0,0,8,0.0,98.0
13064,88.0,8,8,0.0,98.0
13065,83.0,7,26,7.0,68.0
13066,86.0,0,26,7.0,68.0
13067,71.0,2,26,8.0,68.0
13068,74.0,1,26,8.0,68.0
13069,86.0,1,0,0.0,98.0
13070,52.0,3,26,12.0,100.0
13071,47.0,0,26,13.0,100.0
13072,40.0,1,26,13.0,100.0
13073,88.0,7,11,7.0,68.0
13074,86.0,2,11,7.0,68.0
13075,88.0,11,11,7.0,68.0
13076,52.0,0,30,3.0,99.0
13077,56.0,1,30,3.0,99.0
13078,86.0,0,11,7.0,68.0
13079,88.0,12,11,7.0,68.0
13080,57.0,11,25,3.0,99.0
13081,54.0,0,25,3.0,99.0
13082,83.0,0,60,7.0,68.0
13083,74.0,0,60,8.0,59.0
13084,71.0,1,60,8.0,59.0
13085,86.0,11,11,7.0,68.0
13086,88.0,4,11,7.0,68.0
13087,56.0,0,18,3.0,99.0
13088,59.0,7,18,3.0,99.0
13089,40.0,1,77,13.0,100.0
13090,86.0,11,11,7.0,68.0
13091,88.0,12,11,7.0,68.0
13092,57.0,3,18,3.0,99.0
13093,61.0,0,18,3.0,99.0
13094,86.0,2,11,7.0,68.0
13095,88.0,11,11,7.0,68.0
13096,40.0,5,26,13.0,100.0
13097,52.0,4,120,12.0,100.0
13098,86.0,11,11,7.0,68.0
13099,88.0,6,11,7.0,68.0
13100,59.0,0,30,3.0,99.0
13101,62.0,0,30,3.0,99.0
13102,86.0,11,11,7.0,68.0
13103,88.0,4,11,7.0,68.0
13104,61.0,0,25,3.0,99.0
13105,64.0,7,25,3.0,99.0
13106,86.0,11,11,7.0,68.0
13107,88.0,13,11,7.0,68.0
13108,66.0,2,18,3.0,99.0
13109,62.0,0,18,3.0,99.0
13110,86.0,9,11,7.0,68.0
13111,40.0,5,77,13.0,100.0
13112,78.0,4,15,7.0,59.0
13113,52.0,1,120,8.0,68.0
13114,40.0,1,90,8.0,68.0
13115,80.0,15,15,7.0,70.0
13116,66.0,0,18,3.0,99.0
13117,62.0,2,18,3.0,99.0
13118,78.0,7,15,7.0,70.0
13119,40.0,5,26,13.0,100.0
13120,83.0,16,11,7.0,84.0
13121,85.0,3,11,7.0,68.0
13122,83.0,10,11,7.0,68.0
13123,85.0,12,11,7.0,68.0
13124,83.0,11,11,7.0,68.0
13125,85.0,11,11,7.0,70.0
13126,83.0,11,11,7.0,68.0
13127,76.0,8,15,7.0,59.0
13128,78.0,15,15,7.0,70.0
13129,76.0,15,15,7.0,70.0
13130,81.0,15,11,7.0,84.0
13131,62.0,1,120,3.0,99.0
13132,66.0,0,120,3.0,99.0
13133,83.0,0,11,7.0,71.0
13134,81.0,9,11,7.0,70.0
13135,83.0,11,11,7.0,71.0
13136,81.0,13,11,7.0,71.0
13137,83.0,10,11,7.0,70.0
13138,81.0,12,11,7.0,68.0
13139,74.0,8,15,7.0,59.0
13140,76.0,15,15,7.0,70.0
13141,74.0,15,15,7.0,70.0
13142,80.0,14,11,7.0,83.0
13143,61.0,12,120,3.0,99.0
13144,64.0,0,120,3.0,99.0
13145,81.0,0,11,7.0,68.0
13146,80.0,11,11,7.0,68.0
13147,81.0,9,11,7.0,71.0
13148,80.0,13,11,7.0,68.0
13149,81.0,11,11,7.0,70.0
13150,80.0,11,11,7.0,70.0
13151,73.0,8,15,7.0,59.0
13152,74.0,15,15,7.0,70.0
13153,73.0,15,15,7.0,70.0
13154,78.0,15,11,7.0,83.0
13155,62.0,0,120,3.0,99.0
13156,59.0,13,120,3.0,99.0
13157,80.0,12,11,7.0,71.0
13158,78.0,10,11,7.0,71.0
13159,80.0,11,11,7.0,70.0
13160,78.0,11,11,7.0,71.0
13161,80.0,12,11,7.0,71.0
13162,78.0,10,11,7.0,68.0
13163,71.0,9,15,7.0,59.0
13164,73.0,15,15,7.0,70.0
13165,71.0,15,15,7.0,70.0
13166,76.0,15,11,7.0,81.0
13167,57.0,0,120,3.0,99.0
13168,61.0,0,120,3.0,99.0
13169,78.0,11,11,7.0,66.0
13170,76.0,10,11,7.0,65.0
13171,78.0,12,11,7.0,65.0
13172,76.0,11,11,7.0,66.0
13173,78.0,12,11,7.0,63.0
13174,76.0,10,11,7.0,66.0
13175,69.0,8,15,7.0,59.0
13176,71.0,15,15,7.0,70.0
13177,69.0,15,15,7.0,70.0
13178,75.0,16,11,7.0,76.0
13179,56.0,0,120,3.0,99.0
13180,59.0,1,120,3.0,99.0
13181,76.0,11,11,7.0,61.0
13182,75.0,11,11,7.0,63.0
13183,76.0,9,11,7.0,62.0
13184,75.0,12,11,7.0,61.0
13185,76.0,11,11,7.0,62.0
13186,75.0,13,11,7.0,62.0
13187,69.0,7,15,7.0,54.0
13188,71.0,15,15,7.0,62.0
13189,69.0,15,15,7.0,62.0
13190,74.0,14,8,7.0,71.0
13191,57.0,0,120,3.0,99.0
13192,54.0,0,120,3.0,99.0
13193,76.0,7,8,7.0,59.0
13194,74.0,3,8,7.0,61.0
13195,76.0,8,8,7.0,60.0
13196,74.0,9,8,7.0,59.0
13197,76.0,8,8,7.0,60.0
13198,74.0,7,8,7.0,59.0
13199,76.0,9,8,7.0,60.0
13200,74.0,7,8,7.0,59.0
13201,64.0,12,15,7.0,54.0
13202,66.0,15,15,7.0,62.0
13203,64.0,15,15,7.0,62.0
13204,71.0,16,8,7.0,73.0
13205,73.0,7,8,7.0,62.0
13206,71.0,8,8,7.0,62.0
13207,73.0,7,8,7.0,62.0
13208,71.0,8,8,7.0,60.0
13209,73.0,10,8,7.0,61.0
13210,71.0,7,8,7.0,60.0
13211,73.0,9,8,7.0,61.0
13212,71.0,7,8,7.0,60.0
13213,64.0,11,15,7.0,54.0
13214,66.0,15,15,7.0,62.0
13215,64.0,15,15,7.0,62.0
13216,74.0,15,8,7.0,76.0
13217,76.0,7,8,7.0,62.0
13218,74.0,8,8,7.0,59.0
13219,76.0,8,8,7.0,59.0
13220,74.0,8,8,7.0,58.0
13221,76.0,10,8,7.0,58.0
13222,74.0,7,8,7.0,57.0
13223,76.0,9,8,7.0,58.0
13224,74.0,7,8,7.0,57.0
13225,64.0,11,15,7.0,54.0
13226,66.0,15,15,7.0,62.0
13227,64.0,15,15,7.0,62.0
13228,71.0,15,8,7.0,77.0
13229,73.0,7,8,7.0,63.0
13230,71.0,8,8,7.0,61.0
13231,73.0,9,8,7.0,61.0
13232,71.0,8,8,7.0,59.0
13233,73.0,7,8,7.0,62.0
13234,71.0,8,8,7.0,60.0
13235,73.0,8,8,7.0,62.0
13236,71.0,8,8,7.0,60.0
13237,64.0,12,15,7.0,54.0
13238,66.0,15,15,7.0,62.0
13239,64.0,15,15,7.0,62.0
13240,40.0,1,1230,8.0,68.0
13241,40.0,5,1195,13.0,100.0
13242,28.0,2,1200,8.0,68.0
13243,71.0,16,8,7.0,78.0
13244,56.0,0,480,3.0,99.0
13245,52.0,6,480,3.0,99.0
13246,73.0,0,8,7.0,63.0
13247,71.0,4,8,7.0,64.0
13248,73.0,8,8,7.0,63.0
13249,71.0,9,8,7.0,63.0
13250,73.0,6,8,7.0,62.0
13251,71.0,8,8,7.0,62.0
13252,73.0,8,8,7.0,62.0
13253,71.0,8,8,7.0,62.0
13254,64.0,12,15,7.0,54.0
13255,66.0,15,15,7.0,62.0
13256,64.0,15,15,7.0,62.0
13257,69.0,16,8,7.0,79.0
13258,71.0,6,8,7.0,64.0
13259,69.0,8,8,7.0,65.0
13260,71.0,8,8,7.0,64.0
13261,69.0,10,8,7.0,63.0
13262,71.0,8,8,7.0,63.0
13263,69.0,6,8,7.0,61.0
13264,71.0,10,8,7.0,63.0
13265,69.0,5,8,7.0,61.0
13266,64.0,13,15,7.0,54.0
13267,66.0,15,15,7.0,62.0
13268,64.0,15,15,7.0,62.0
13269,71.0,16,8,7.0,77.0
13270,73.0,6,8,7.0,61.0
13271,71.0,8,8,7.0,64.0
13272,73.0,9,8,7.0,62.0
13273,71.0,8,8,7.0,63.0
13274,73.0,9,8,7.0,63.0
13275,71.0,7,8,7.0,62.0
13276,73.0,9,8,7.0,63.0
13277,71.0,7,8,7.0,62.0
13278,64.0,11,15,7.0,54.0
13279,66.0,15,15,7.0,62.0
13280,64.0,15,15,7.0,62.0
13281,69.0,16,8,7.0,85.0
13282,71.0,6,8,7.0,71.0
13283,69.0,9,8,7.0,68.0
13284,71.0,7,8,7.0,70.0
13285,69.0,8,8,7.0,68.0
13286,71.0,9,8,7.0,65.0
13287,69.0,8,8,7.0,66.0
13288,71.0,8,8,7.0,65.0
13289,69.0,8,8,7.0,66.0
13290,64.0,11,15,7.0,54.0
13291,45.0,2,450,8.0,68.0
13292,33.0,0,450,8.0,68.0
13293,66.0,15,15,7.0,62.0
13294,64.0,12,15,7.0,62.0
13295,45.0,3,30,8.0,59.0
13296,45.0,5,480,13.0,100.0
13297,67.0,15,11,7.0,84.0
13298,55.0,0,480,3.0,99.0
13299,52.0,4,480,3.0,99.0
13300,69.0,6,11,7.0,68.0
13301,67.0,11,11,7.0,68.0
13302,66.0,11,11,7.0,68.0
13303,67.0,11,11,7.0,68.0
13304,69.0,11,11,7.0,68.0
13305,71.0,11,11,7.0,68.0
13306,73.0,11,11,7.0,68.0
13307,55.0,3,90,8.0,59.0
13308,74.0,11,11,7.0,68.0
13309,76.0,5,11,7.0,70.0
13310,78.0,11,11,7.0,71.0
13311,45.0,6,30,8.0,67.0
13312,79.0,11,12,7.0,72.0
13313,78.0,9,12,7.0,74.0
13314,76.0,12,12,7.0,75.0
13315,74.0,12,12,7.0,76.0
13316,73.0,12,12,7.0,77.0
13317,71.0,12,12,7.0,79.0
13318,69.0,12,12,7.0,81.0
13319,52.0,3,90,8.0,70.0
13320,67.0,12,12,7.0,81.0
13321,69.0,3,12,7.0,83.0
13322,71.0,12,12,7.0,85.0
13323,45.0,9,30,8.0,78.0
13324,73.0,0,13,7.0,87.0
13325,74.0,10,13,7.0,88.0
13326,76.0,13,13,7.0,89.0
13327,78.0,14,13,7.0,91.0
13328,79.0,13,13,7.0,93.0
13329,81.0,13,13,7.0,96.0
13330,83.0,14,13,7.0,97.0
13331,55.0,3,90,8.0,81.0
13332,85.0,13,13,7.0,98.0
13333,86.0,13,13,7.0,99.0
13334,45.0,0,30,8.0,89.0
13335,88.0,14,10,7.0,102.0
13336,86.0,7,10,7.0,103.0
13337,85.0,10,10,7.0,105.0
13338,83.0,10,10,7.0,105.0
13339,81.0,10,10,7.0,106.0
13340,79.0,10,10,7.0,107.0
13341,78.0,10,10,7.0,110.0
13342,76.0,10,10,7.0,110.0
13343,78.0,10,10,7.0,111.0
13344,52.0,2,90,8.0,92.0
13345,79.0,10,10,7.0,112.0
13346,81.0,7,10,7.0,112.0
13347,83.0,10,10,7.0,113.0
13348,45.0,3,30,8.0,99.0
13349,85.0,10,11,7.0,115.0
13350,86.0,6,11,7.0,115.0
13351,88.0,11,11,7.0,115.0
13352,90.0,11,11,7.0,116.0
13353,91.0,11,11,7.0,118.0
13354,93.0,11,11,7.0,118.0
13355,95.0,11,11,7.0,119.0
13356,97.0,11,11,7.0,120.0
13357,57.0,3,90,8.0,102.0
13358,98.0,11,11,7.0,120.0
13359,100.0,5,11,7.0,121.0
13360,102.0,11,11,7.0,122.0
13361,45.0,6,30,8.0,109.0
13362,73.0,0,120,1.0,97.0
13363,69.0,1,120,1.0,97.0
13364,103.0,11,11,7.0,124.0
13365,102.0,6,11,7.0,124.0
13366,100.0,11,11,7.0,125.0
13367,98.0,11,11,7.0,120.0
13368,97.0,11,11,7.0,121.0
13369,95.0,11,11,7.0,121.0
13370,93.0,11,11,7.0,121.0
13371,91.0,11,11,7.0,121.0
13372,57.0,3,90,8.0,110.0
13373,90.0,11,11,7.0,121.0
13374,88.0,5,11,7.0,121.0
13375,64.0,0,480,2.0,98.0
13376,61.0,12,480,2.0,98.0
13377,86.0,11,11,7.0,121.0
13378,76.0,0,360,0.0,98.0
13379,45.0,0,30,8.0,115.0
13380,33.0,6,30,8.0,115.0
13381,76.0,1,120,1.0,97.0
13382,73.0,0,120,1.0,97.0
13383,57.0,1,720,4.0,100.0
13384,45.0,0,720,4.0,100.0
13385,85.0,0,10,7.0,121.0
13386,52.0,0,600,3.0,99.0
13387,55.0,0,600,3.0,99.0
13388,83.0,6,10,7.0,121.0
13389,81.0,8,10,7.0,121.0
13390,79.0,10,10,7.0,122.0
13391,78.0,10,10,7.0,122.0
13392,76.0,10,10,7.0,122.0
13393,74.0,10,10,7.0,123.0
13394,73.0,10,10,7.0,123.0
13395,71.0,10,10,7.0,123.0
13396,45.0,3,0,8.0,120.0
13397,57.0,0,90,8.0,116.0
13398,69.0,10,10,7.0,123.0
13399,67.0,7,10,7.0,123.0
13400,66.0,10,10,7.0,123.0
13401,33.0,0,30,8.0,120.0
13402,45.0,0,0,8.0,121.0
13403,76.0,0,120,1.0,97.0
13404,79.0,1,0,1.0,97.0
13405,64.0,10,10,7.0,123.0
13406,62.0,6,10,7.0,124.0
13407,61.0,10,10,7.0,124.0
13408,59.0,10,10,7.0,124.0
13409,57.0,10,10,7.0,124.0
13410,55.0,10,10,7.0,124.0
13411,54.0,10,10,7.0,124.0
13412,52.0,10,10,7.0,124.0
13413,50.0,10,10,7.0,125.0
13414,45.0,3,0,8.0,125.0
13415,57.0,3,90,8.0,121.0
13416,49.0,10,10,7.0,125.0
13417,47.0,7,10,7.0,125.0
13418,45.0,10,10,7.0,125.0
13419,67.0,11,240,2.0,98.0
13420,69.0,1,600,0.0,98.0
13421,78.0,1,240,0.0,98.0
13422,33.0,0,30,8.0,125.0
13423,69.0,1,240,4.0,100.0
13424,57.0,2,0,4.0,85.0
13425,85.0,0,120,1.0,97.0
13426,45.0,2,240,3.0,99.0
13427,57.0,0,240,3.0,99.0
13428,57.0,10,30,7.0,125.0
13429,57.0,1,30,11.0,100.0
13430,55.0,18,30,7.0,125.0
13431,54.0,30,30,7.0,125.0
13432,52.0,28,30,7.0,125.0
13433,69.0,0,360,2.0,98.0
13434,74.0,1,120,0.0,83.0
13435,78.0,0,120,1.0,82.0
13436,86.0,0,120,1.0,82.0
13437,50.0,0,120,4.0,85.0
13438,38.0,2,120,13.0,86.0
13439,50.0,4,120,3.0,84.0
13440,54.0,30,30,7.0,125.0
13441,62.0,2,102,11.0,115.0
13442,57.0,30,30,7.0,125.0
13443,64.0,12,10,11.0,100.0
13444,55.0,30,30,7.0,125.0
13445,66.0,10,10,11.0,100.0
13446,64.0,2,10,11.0,100.0
13447,62.0,10,10,11.0,100.0
13448,66.0,0,240,2.0,83.0
13449,52.0,8,30,7.0,125.0
13450,64.0,10,10,11.0,100.0
13451,50.0,8,30,7.0,125.0
13452,66.0,2,45,11.0,100.0
13453,54.0,28,30,7.0,125.0
13454,50.0,30,30,7.0,125.0
13455,69.0,2,45,11.0,100.0
13456,49.0,28,30,7.0,125.0
13457,47.0,30,30,7.0,125.0
13458,74.0,2,45,11.0,100.0
13459,50.0,28,30,7.0,125.0
13460,49.0,30,30,7.0,125.0
13461,74.0,2,45,11.0,100.0
13462,45.0,28,30,7.0,125.0
13463,38.0,0,480,8.0,106.0
13464,26.0,4,0,8.0,106.0
13465,62.0,30,30,10.0,100.0
13466,47.0,0,30,7.0,125.0
13467,50.0,22,30,7.0,125.0
13468,55.0,0,30,7.0,125.0
13469,57.0,30,30,7.0,125.0
13470,38.0,2,120,13.0,86.0
13471,59.0,30,30,7.0,125.0
13472,67.0,30,112,10.0,115.0
13473,62.0,30,30,7.0,125.0
13474,71.0,30,15,10.0,100.0
13475,61.0,0,30,7.0,125.0
13476,69.0,15,15,10.0,100.0
13477,71.0,15,15,10.0,100.0
13478,69.0,15,15,10.0,100.0
13479,57.0,0,30,7.0,125.0
13480,55.0,0,30,7.0,125.0
13481,71.0,15,45,10.0,100.0
13482,74.0,2,285,11.0,100.0
13483,59.0,30,30,7.0,125.0
13484,57.0,0,30,7.0,125.0
13485,74.0,30,45,10.0,100.0
13486,74.0,2,45,11.0,100.0
13487,54.0,28,30,7.0,125.0
13488,52.0,0,30,7.0,125.0
13489,79.0,30,45,10.0,100.0
13490,73.0,2,45,11.0,100.0
13491,55.0,28,30,7.0,125.0
13492,54.0,0,30,7.0,125.0
13493,79.0,30,45,10.0,100.0
13494,71.0,2,45,11.0,100.0
13495,50.0,28,30,7.0,125.0
13496,38.0,0,0,8.0,106.0
13497,26.0,4,0,8.0,106.0
13498,49.0,30,30,7.0,125.0
13499,69.0,2,30,11.0,100.0
13500,52.0,22,30,7.0,125.0
13501,55.0,30,30,7.0,125.0
13502,61.0,28,30,7.0,125.0
13503,38.0,2,120,13.0,86.0
13504,64.0,30,30,7.0,125.0
13505,73.0,2,102,11.0,115.0
13506,67.0,30,30,7.0,125.0
13507,76.0,2,15,11.0,100.0
13508,66.0,30,30,7.0,125.0
13509,74.0,15,15,11.0,100.0
13510,76.0,2,15,11.0,100.0
13511,62.0,13,30,7.0,125.0
13512,74.0,15,15,11.0,100.0
13513,61.0,13,30,7.0,125.0
13514,79.0,0,285,10.0,100.0
13515,76.0,2,45,11.0,100.0
13516,64.0,28,30,7.0,125.0
13517,62.0,0,30,7.0,125.0
13518,79.0,30,45,10.0,100.0
13519,79.0,2,45,11.0,100.0
13520,59.0,28,30,7.0,125.0
13521,57.0,0,30,7.0,125.0
13522,78.0,30,45,10.0,100.0
13523,84.0,2,45,11.0,100.0
13524,60.0,28,30,7.0,125.0
13525,59.0,30,30,7.0,125.0
13526,76.0,0,45,10.0,100.0
13527,84.0,2,45,11.0,100.0
13528,55.0,28,30,7.0,125.0
13529,38.0,0,0,8.0,106.0
13530,74.0,0,30,10.0,100.0
13531,54.0,30,30,7.0,125.0
13532,57.0,22,30,7.0,125.0
13533,60.0,30,30,7.0,125.0
13534,66.0,30,30,7.0,125.0
13535,38.0,2,120,13.0,86.0
13536,69.0,30,30,7.0,125.0
13537,79.0,0,102,10.0,115.0
13538,72.0,30,30,7.0,125.0
13539,81.0,0,15,10.0,100.0
13540,71.0,30,30,7.0,125.0
13541,79.0,15,15,10.0,100.0
13542,81.0,0,15,10.0,100.0
13543,67.0,15,30,7.0,125.0
13544,79.0,15,15,10.0,100.0
13545,66.0,0,30,7.0,125.0
13546,81.0,15,45,10.0,100.0
13547,84.0,2,285,11.0,100.0
13548,69.0,30,30,7.0,125.0
13549,67.0,30,30,7.0,125.0
13550,84.0,0,45,10.0,100.0
13551,84.0,2,45,11.0,100.0
13552,64.0,28,30,7.0,125.0
13553,62.0,0,30,7.0,125.0
13554,93.0,30,45,10.0,100.0
13555,83.0,2,45,11.0,100.0
13556,66.0,18,30,7.0,125.0
13557,64.0,30,30,7.0,125.0
13558,93.0,0,45,10.0,100.0
13559,81.0,2,45,11.0,100.0
13560,60.0,28,30,7.0,125.0
13561,26.0,2,0,8.0,111.0
13562,59.0,0,30,7.0,125.0
13563,62.0,18,30,7.0,125.0
13564,93.0,30,60,10.0,100.0
13565,81.0,2,60,11.0,100.0
13566,71.0,30,30,7.0,125.0
13567,74.0,28,30,7.0,125.0
13568,38.0,0,120,13.0,86.0
13569,50.0,2,120,13.0,86.0
13570,86.0,30,30,7.0,125.0
13571,91.0,0,102,10.0,100.0
13572,79.0,2,102,11.0,100.0
13573,74.0,30,30,7.0,125.0
13574,71.0,30,30,7.0,125.0
13575,91.0,0,42,10.0,100.0
13576,79.0,2,42,11.0,100.0
13577,62.0,28,30,7.0,125.0
13578,71.0,2,240,1.0,97.0
13579,38.0,0,240,8.0,117.0
13580,26.0,2,0,8.0,111.0
13581,59.0,4,240,3.0,99.0
13582,57.0,0,30,7.0,125.0
13583,62.0,18,30,7.0,125.0
13584,91.0,30,60,10.0,100.0
13585,79.0,2,60,11.0,100.0
13586,69.0,0,30,7.0,125.0
13587,74.0,28,30,7.0,125.0
13588,38.0,0,120,13.0,86.0
13589,50.0,2,120,13.0,86.0
13590,86.0,30,30,7.0,125.0
13591,90.0,30,102,10.0,100.0
13592,78.0,2,102,11.0,100.0
13593,74.0,30,30,7.0,125.0
13594,69.0,30,30,7.0,125.0
13595,90.0,0,42,10.0,100.0
13596,78.0,2,42,11.0,100.0
13597,62.0,28,30,7.0,125.0
13598,74.0,2,0,1.0,97.0
13599,69.0,2,240,1.0,97.0
13600,26.0,2,0,8.0,111.0
13601,38.0,0,240,8.0,117.0
13602,57.0,4,240,3.0,99.0
13603,62.0,8,600,3.0,99.0
13604,56.0,30,30,7.0,125.0
13605,62.0,18,30,7.0,125.0
13606,90.0,0,60,10.0,100.0
13607,78.0,2,60,11.0,100.0
13608,68.0,30,30,7.0,125.0
13609,74.0,28,30,7.0,125.0
13610,38.0,2,120,13.0,86.0
13611,50.0,0,120,13.0,86.0
13612,86.0,30,30,7.0,125.0
13613,88.0,0,102,10.0,100.0
13614,76.0,2,102,11.0,100.0
13615,74.0,30,30,7.0,125.0
13616,68.0,0,30,7.0,125.0
13617,88.0,30,42,10.0,100.0
13618,76.0,2,42,11.0,100.0
13619,62.0,28,30,7.0,125.0
13620,83.0,0,240,1.0,97.0
13621,38.0,0,240,8.0,117.0
13622,26.0,2,0,8.0,111.0
13623,56.0,0,240,3.0,99.0
13624,59.0,4,240,3.0,99.0
13625,55.0,0,30,7.0,125.0
13626,61.0,18,30,7.0,125.0
13627,90.0,30,60,10.0,100.0
13628,78.0,2,60,11.0,100.0
13629,67.0,30,30,7.0,125.0
13630,73.0,28,30,7.0,125.0
13631,50.0,2,120,13.0,86.0
13632,38.0,0,120,13.0,86.0
13633,85.0,30,30,7.0,125.0
13634,88.0,0,102,10.0,100.0
13635,76.0,2,102,11.0,100.0
13636,73.0,30,30,7.0,125.0
13637,67.0,30,30,7.0,125.0
13638,88.0,0,42,10.0,100.0
13639,76.0,2,42,11.0,100.0
13640,61.0,28,30,7.0,125.0
13641,73.0,0,240,1.0,97.0
13642,81.0,0,0,1.0,97.0
13643,26.0,2,0,8.0,102.0
13644,38.0,0,0,8.0,102.0
13645,64.0,0,240,3.0,99.0
13646,55.0,4,240,3.0,99.0
13647,54.0,30,30,7.0,125.0
13648,88.0,0,30,10.0,115.0
13649,57.0,18,30,7.0,125.0
13650,76.0,2,60,1.0,97.0
13651,57.0,0,60,3.0,99.0
13652,54.0,4,60,3.0,99.0
13653,81.0,30,30,10.0,100.0
13654,66.0,0,30,7.0,125.0
13655,69.0,30,30,7.0,125.0
13656,69.0,2,120,11.0,100.0
13657,38.0,0,120,13.0,86.0
13658,50.0,2,0,13.0,86.0
13659,81.0,0,30,7.0,125.0
13660,86.0,30,30,10.0,115.0
13661,69.0,18,30,7.0,125.0
13662,81.0,4,60,1.0,97.0
13663,74.0,0,60,1.0,97.0
13664,53.0,0,60,8.0,102.0
13665,65.0,2,60,8.0,102.0
13666,62.0,0,60,8.0,102.0
13667,62.0,0,60,3.0,99.0
13668,53.0,4,60,3.0,99.0
13669,81.0,30,30,10.0,100.0
13670,65.0,0,30,7.0,125.0
13671,57.0,30,30,7.0,125.0
13672,38.0,0,120,13.0,86.0
13673,86.0,0,30,10.0,115.0
13674,52.0,30,30,7.0,125.0
13675,55.0,18,30,7.0,125.0
13676,79.0,4,60,1.0,97.0
13677,74.0,0,60,1.0,97.0
13678,26.0,0,60,8.0,102.0
13679,38.0,2,60,8.0,102.0
13680,52.0,4,60,3.0,99.0
13681,64.0,0,60,3.0,99.0
13682,79.0,0,30,10.0,100.0
13683,64.0,30,30,7.0,125.0
13684,67.0,30,30,7.0,125.0
13685,50.0,0,120,13.0,86.0
13686,38.0,2,120,13.0,86.0
13687,85.0,0,30,10.0,115.0
13688,79.0,30,30,7.0,125.0
13689,73.0,18,30,7.0,125.0
13690,73.0,0,60,1.0,97.0
13691,76.0,4,60,1.0,97.0
13692,52.0,0,60,8.0,102.0
13693,64.0,2,60,8.0,102.0
13694,61.0,0,60,8.0,102.0
13695,55.0,4,60,3.0,99.0
13696,64.0,0,60,3.0,99.0
13697,67.0,0,30,7.0,125.0
13698,76.0,30,30,10.0,100.0
13699,61.0,30,30,7.0,125.0
13700,38.0,0,0,13.0,86.0
13701,50.0,2,0,13.0,86.0
13702,86.0,0,30,10.0,115.0
13703,54.0,30,30,7.0,125.0
13704,57.0,18,30,7.0,125.0
13705,74.0,0,60,1.0,97.0
13706,78.0,4,60,1.0,97.0
13707,38.0,0,60,8.0,102.0
13708,26.0,2,60,8.0,102.0
13709,62.0,0,60,3.0,99.0
13710,54.0,4,60,3.0,99.0
13711,74.0,30,30,10.0,100.0
13712,66.0,0,30,7.0,125.0
13713,69.0,30,30,7.0,125.0
13714,83.0,30,30,10.0,115.0
13715,83.0,0,30,7.0,125.0
13716,74.0,18,30,7.0,125.0
13717,71.0,4,60,1.0,97.0
13718,74.0,0,60,1.0,97.0
13719,59.0,2,60,8.0,102.0
13720,50.0,0,60,8.0,102.0
13721,43.0,0,60,8.0,102.0
13722,62.0,0,60,3.0,99.0
13723,55.0,4,60,3.0,99.0
13724,71.0,30,30,7.0,125.0
13725,74.0,0,30,10.0,100.0
13726,62.0,30,30,7.0,125.0
13727,43.0,2,120,13.0,86.0
13728,81.0,30,30,10.0,115.0
13729,81.0,0,30,7.0,125.0
13730,74.0,18,30,7.0,125.0
13731,74.0,0,60,1.0,97.0
13732,69.0,4,60,1.0,97.0
13733,54.0,0,60,8.0,102.0
13734,57.0,2,60,8.0,102.0
13735,45.0,0,60,8.0,102.0
13736,57.0,0,60,3.0,99.0
13737,66.0,4,60,3.0,99.0
13738,69.0,30,30,10.0,100.0
13739,69.0,0,30,7.0,125.0
13740,62.0,30,30,7.0,125.0
13741,45.0,2,0,13.0,86.0
13742,81.0,30,30,7.0,125.0
13743,81.0,0,30,10.0,115.0
13744,73.0,18,30,7.0,125.0
13745,73.0,0,60,1.0,97.0
13746,69.0,4,60,1.0,97.0
13747,61.0,2,60,8.0,102.0
13748,45.0,0,60,8.0,102.0
13749,52.0,0,60,8.0,102.0
13750,57.0,4,60,3.0,99.0
13751,64.0,0,60,3.0,99.0
13752,69.0,0,30,7.0,125.0
13753,73.0,30,30,10.0,100.0
13754,61.0,30,30,7.0,125.0
13755,57.0,0,30,7.0,125.0
13756,57.0,2,30,11.0,100.0
13757,69.0,30,60,10.0,100.0
13758,55.0,17,30,7.0,125.0
13759,57.0,4,60,3.0,99.0
13760,54.0,30,30,7.0,125.0
13761,52.0,28,30,7.0,125.0
13762,50.0,2,120,13.0,86.0
13763,38.0,1,120,14.0,86.0
13764,54.0,30,30,7.0,125.0
13765,54.0,0,30,3.0,99.0
13766,57.0,12,30,3.0,99.0
13767,62.0,2,102,11.0,115.0
13768,57.0,18,30,7.0,125.0
13769,66.0,2,15,11.0,100.0
13770,55.0,30,30,7.0,125.0
13771,64.0,5,15,11.0,100.0
13772,55.0,10,30,3.0,99.0
13773,52.0,0,30,3.0,99.0
13774,66.0,2,15,11.0,100.0
13775,52.0,13,30,7.0,125.0
13776,64.0,15,15,11.0,100.0
13777,26.0,0,240,8.0,102.0
13778,50.0,13,30,7.0,125.0
13779,50.0,10,30,3.0,99.0
13780,54.0,0,30,3.0,99.0
13781,66.0,2,45,11.0,100.0
13782,54.0,18,30,7.0,125.0
13783,38.0,4,300,8.0,102.0
13784,52.0,30,30,7.0,125.0
13785,52.0,0,30,3.0,99.0
13786,48.0,4,30,3.0,99.0
13787,69.0,2,45,11.0,100.0
13788,48.0,17,30,7.0,125.0
13789,36.0,4,60,8.0,111.0
13790,48.0,2,60,13.0,86.0
13791,36.0,1,60,14.0,86.0
13792,47.0,30,30,7.0,125.0
13793,50.0,0,30,3.0,99.0
13794,47.0,4,30,3.0,99.0
13795,74.0,2,45,11.0,100.0
13796,50.0,17,30,7.0,125.0
13797,35.0,4,60,8.0,111.0
13798,47.0,2,60,13.0,86.0
13799,35.0,1,60,14.0,86.0
13800,45.0,30,30,7.0,125.0
13801,45.0,4,30,3.0,99.0
13802,48.0,0,30,3.0,99.0
13803,74.0,2,45,11.0,100.0
13804,50.0,17,30,7.0,125.0
13805,33.0,4,60,8.0,111.0
13806,45.0,2,60,13.0,86.0
13807,33.0,1,60,14.0,86.0
13808,47.0,30,30,7.0,125.0
13809,62.0,0,30,10.0,100.0
13810,31.0,4,30,8.0,102.0
13811,50.0,17,30,7.0,125.0
13812,35.0,6,30,8.0,102.0
13813,55.0,24,30,7.0,125.0
13814,38.0,6,30,8.0,102.0
13815,59.0,24,30,7.0,125.0
13816,43.0,6,30,8.0,102.0
13817,43.0,4,115,3.0,99.0
13818,47.0,0,115,3.0,99.0
13819,43.0,2,120,13.0,86.0
13820,31.0,1,120,14.0,86.0
13821,62.0,24,30,7.0,125.0
13822,47.0,6,30,8.0,102.0
13823,59.0,6,30,3.0,99.0
13824,67.0,0,102,10.0,115.0
13825,62.0,0,30,3.0,99.0
13826,74.0,18,30,7.0,125.0
13827,59.0,6,30,8.0,102.0
13828,71.0,24,15,10.0,100.0
13829,72.0,0,30,7.0,125.0
13830,69.0,3,15,10.0,100.0
13831,45.0,6,30,8.0,102.0
13832,60.0,0,30,3.0,99.0
13833,57.0,6,30,3.0,99.0
13834,71.0,15,15,10.0,100.0
13835,69.0,9,15,10.0,100.0
13836,60.0,0,30,7.0,125.0
13837,57.0,6,30,8.0,102.0
13838,59.0,0,30,7.0,125.0
13839,43.0,6,30,8.0,102.0
13840,59.0,0,30,3.0,99.0
13841,55.0,6,30,3.0,99.0
13842,71.0,15,45,10.0,100.0
13843,74.0,2,285,11.0,100.0
13844,71.0,18,30,7.0,125.0
13845,55.0,6,30,8.0,102.0
13846,69.0,24,30,7.0,125.0
13847,41.0,4,30,8.0,102.0
13848,57.0,0,30,3.0,99.0
13849,53.0,4,30,3.0,99.0
13850,74.0,0,45,10.0,100.0
13851,74.0,2,45,11.0,100.0
13852,57.0,17,30,7.0,125.0
13853,53.0,6,30,8.0,102.0
13854,53.0,2,60,13.0,86.0
13855,41.0,1,60,14.0,86.0
13856,55.0,24,30,7.0,125.0
13857,40.0,4,30,8.0,102.0
13858,55.0,4,30,3.0,99.0
13859,52.0,0,30,3.0,99.0
13860,79.0,0,45,10.0,100.0
13861,72.0,2,45,11.0,100.0
13862,67.0,17,30,7.0,125.0
13863,52.0,6,30,8.0,102.0
13864,52.0,2,60,13.0,86.0
13865,40.0,1,60,14.0,86.0
13866,65.0,0,30,7.0,125.0
13867,38.0,4,30,8.0,102.0
13868,50.0,4,30,3.0,99.0
13869,53.0,0,30,3.0,99.0
13870,79.0,24,45,10.0,100.0
13871,71.0,2,45,11.0,100.0
13872,53.0,17,30,7.0,125.0
13873,50.0,6,30,8.0,102.0
13874,50.0,2,60,13.0,86.0
13875,38.0,1,60,14.0,86.0
13876,52.0,24,30,7.0,125.0
13877,69.0,2,30,11.0,100.0
13878,36.0,4,30,8.0,102.0
13879,55.0,17,30,7.0,125.0
13880,40.0,6,30,8.0,102.0
13881,60.0,24,30,7.0,125.0
13882,43.0,4,30,8.0,102.0
13883,64.0,24,30,7.0,125.0
13884,48.0,6,30,8.0,102.0
13885,52.0,0,115,3.0,99.0
13886,48.0,4,115,3.0,99.0
13887,48.0,2,120,13.0,86.0
13888,36.0,1,120,14.0,86.0
13889,79.0,0,30,2.0,98.0
13890,67.0,24,30,7.0,125.0
13891,76.0,0,30,2.0,98.0
13892,52.0,6,30,8.0,102.0
13893,67.0,0,30,3.0,99.0
13894,64.0,6,30,3.0,99.0
13895,72.0,2,102,11.0,115.0
13896,79.0,18,30,7.0,125.0
13897,64.0,6,30,8.0,102.0
13898,76.0,2,15,11.0,100.0
13899,77.0,0,30,7.0,125.0
13900,74.0,24,30,2.0,98.0
13901,77.0,0,30,2.0,98.0
13902,74.0,5,15,11.0,100.0
13903,50.0,4,30,8.0,102.0
13904,62.0,0,30,3.0,99.0
13905,65.0,6,30,3.0,99.0
13906,76.0,2,15,11.0,100.0
13907,65.0,13,30,7.0,125.0
13908,74.0,11,15,11.0,100.0
13909,62.0,4,30,8.0,102.0
13910,64.0,13,30,7.0,125.0
13911,72.0,0,30,2.0,98.0
13912,76.0,0,30,2.0,98.0
13913,48.0,4,30,8.0,102.0
13914,60.0,6,30,3.0,99.0
13915,64.0,0,30,3.0,99.0
13916,79.0,0,285,10.0,100.0
13917,76.0,2,45,11.0,100.0
13918,76.0,18,30,7.0,125.0
13919,60.0,6,30,8.0,102.0
13920,74.0,0,30,2.0,98.0
13921,74.0,24,30,7.0,125.0
13922,71.0,0,30,2.0,98.0
13923,47.0,4,30,8.0,102.0
13924,59.0,0,30,3.0,99.0
13925,62.0,4,30,3.0,99.0
13926,79.0,0,45,10.0,100.0
13927,79.0,2,45,11.0,100.0
13928,62.0,17,30,7.0,125.0
13929,59.0,6,30,8.0,102.0
13930,59.0,2,60,13.0,86.0
13931,47.0,1,60,14.0,86.0
13932,72.0,0,30,2.0,98.0
13933,69.0,24,30,2.0,98.0
13934,60.0,0,30,7.0,125.0
13935,45.0,4,30,8.0,102.0
13936,60.0,0,30,3.0,99.0
13937,57.0,4,30,3.0,99.0
13938,84.0,0,45,10.0,100.0
13939,81.0,2,45,11.0,100.0
13940,72.0,17,30,7.0,125.0
13941,57.0,6,30,8.0,102.0
13942,57.0,2,60,13.0,86.0
13943,45.0,1,60,14.0,86.0
13944,74.0,0,30,7.0,125.0
13945,71.0,24,30,2.0,98.0
13946,74.0,0,30,2.0,98.0
13947,43.0,4,30,8.0,102.0
13948,62.0,0,30,3.0,99.0
13949,55.0,4,30,3.0,99.0
13950,86.0,0,45,10.0,100.0
13951,83.0,2,45,11.0,100.0
13952,62.0,17,30,7.0,125.0
13953,55.0,6,30,8.0,102.0
13954,55.0,2,60,13.0,86.0
13955,43.0,1,60,14.0,86.0
13956,88.0,0,30,10.0,100.0
13957,52.0,0,30,7.0,125.0
13958,84.0,2,30,11.0,100.0
13959,36.0,4,30,8.0,102.0
13960,55.0,17,30,7.0,125.0
13961,40.0,6,30,8.0,102.0
13962,60.0,24,30,7.0,125.0
13963,43.0,4,30,8.0,102.0
13964,72.0,24,115,2.0,98.0
13965,76.0,0,115,2.0,98.0
13966,64.0,24,30,7.0,125.0
13967,48.0,6,30,8.0,102.0
13968,48.0,0,115,3.0,99.0
13969,64.0,4,115,3.0,99.0
13970,48.0,2,120,13.0,86.0
13971,36.0,1,120,14.0,86.0
13972,72.0,24,30,2.0,98.0
13973,79.0,0,30,2.0,98.0
13974,67.0,0,30,7.0,125.0
13975,91.0,1,30,0.0,98.0
13976,79.0,3,30,1.0,97.0
13977,52.0,2,30,8.0,102.0
13978,72.0,0,102,10.0,115.0
13979,64.0,0,30,3.0,99.0
13980,67.0,4,30,3.0,99.0
13981,72.0,2,102,11.0,115.0
13982,79.0,18,30,7.0,125.0
13983,52.0,2,55,13.0,100.0
13984,64.0,6,30,8.0,102.0
13985,76.0,0,15,10.0,100.0
13986,72.0,1,15,11.0,100.0
13987,77.0,0,30,7.0,125.0
13988,77.0,0,30,2.0,98.0
13989,74.0,24,30,2.0,98.0
13990,74.0,3,15,10.0,100.0
13991,89.0,1,30,0.0,98.0
13992,71.0,2,15,11.0,100.0
13993,79.0,2,30,1.0,97.0
13994,50.0,2,30,8.0,102.0
13995,62.0,0,30,3.0,99.0
13996,65.0,4,30,3.0,99.0
13997,76.0,0,15,10.0,100.0
13998,72.0,2,15,11.0,100.0
13999,65.0,13,30,7.0,125.0
14000,74.0,9,15,10.0,100.0
14001,71.0,2,15,11.0,100.0
14002,50.0,2,55,13.0,100.0
14003,62.0,4,30,8.0,102.0
14004,64.0,0,30,7.0,125.0
14005,76.0,13,30,2.0,98.0
14006,67.0,0,30,2.0,98.0
14007,88.0,1,30,0.0,98.0
14008,79.0,2,30,1.0,97.0
14009,48.0,2,30,8.0,102.0
14010,64.0,0,30,3.0,99.0
14011,76.0,0,42,10.0,100.0
14012,60.0,4,30,3.0,99.0
14013,72.0,1,42,11.0,100.0
14014,48.0,2,42,13.0,100.0
14015,76.0,18,30,7.0,125.0
14016,60.0,6,30,8.0,102.0
14017,67.0,24,30,2.0,98.0
14018,74.0,0,30,2.0,98.0
14019,74.0,0,30,7.0,125.0
14020,86.0,1,30,0.0,98.0
14021,79.0,2,30,1.0,97.0
14022,47.0,2,30,8.0,102.0
14023,62.0,0,30,3.0,99.0
14024,79.0,0,42,10.0,100.0
14025,59.0,4,30,3.0,99.0
14026,74.0,1,42,11.0,100.0
14027,67.0,1,42,12.0,100.0
14028,47.0,1,42,13.0,100.0
14029,47.0,1,42,14.0,100.0
14030,62.0,17,30,7.0,125.0
14031,59.0,6,30,8.0,102.0
14032,60.0,0,30,7.0,125.0
14033,69.0,0,30,2.0,98.0
14034,72.0,24,30,2.0,98.0
14035,84.0,1,30,0.0,98.0
14036,79.0,2,30,1.0,97.0
14037,45.0,2,30,8.0,102.0
14038,57.0,4,30,3.0,99.0
14039,84.0,0,42,10.0,100.0
14040,60.0,0,30,3.0,99.0
14041,76.0,1,42,11.0,100.0
14042,72.0,1,42,12.0,100.0
14043,45.0,1,42,13.0,100.0
14044,45.0,1,42,14.0,100.0
14045,72.0,17,30,7.0,125.0
14046,57.0,6,30,8.0,102.0
14047,74.0,0,30,2.0,98.0
14048,74.0,0,30,7.0,125.0
14049,71.0,24,30,2.0,98.0
14050,86.0,1,30,0.0,98.0
14051,79.0,2,30,1.0,97.0
14052,43.0,2,30,8.0,102.0
14053,62.0,0,30,3.0,99.0
14054,55.0,4,30,3.0,99.0
14055,86.0,0,42,10.0,100.0
14056,79.0,1,42,11.0,100.0
14057,71.0,1,42,12.0,100.0
14058,43.0,1,42,13.0,100.0
14059,43.0,1,42,14.0,100.0
14060,62.0,17,30,7.0,125.0
14061,55.0,6,30,8.0,102.0
14062,76.0,24,30,2.0,98.0
14063,72.0,0,30,2.0,98.0
14064,88.0,0,30,10.0,100.0
14065,84.0,0,30,0.0,98.0
14066,88.0,1,30,0.0,98.0
14067,84.0,1,30,11.0,100.0
14068,64.0,0,30,4.0,100.0
14069,76.0,2,30,1.0,97.0
14070,72.0,0,30,1.0,97.0
14071,72.0,0,30,12.0,100.0
14072,64.0,1,30,12.0,100.0
14073,36.0,1,30,13.0,100.0
14074,48.0,0,30,13.0,100.0
14075,60.0,4,30,3.0,99.0
14076,64.0,0,30,3.0,99.0
14077,36.0,1,30,14.0,100.0
14078,64.0,0,60,7.0,121.0
14079,72.0,0,60,7.0,121.0
14080,76.0,0,60,7.0,121.0
14081,48.0,2,60,8.0,102.0
14082,36.0,0,60,8.0,102.0
14083,76.0,47,112,10.0,103.0
14084,88.0,0,112,10.0,103.0
14085,84.0,1,112,11.0,103.0
14086,72.0,0,112,11.0,103.0
14087,72.0,3,112,12.0,103.0
14088,64.0,0,112,12.0,103.0
14089,72.0,0,120,2.0,113.0
14090,64.0,0,120,2.0,113.0
14091,36.0,0,112,13.0,103.0
14092,48.0,1,112,13.0,103.0
14093,88.0,0,120,0.0,113.0
14094,84.0,1,0,0.0,98.0
14095,64.0,0,120,4.0,115.0
14096,72.0,0,120,1.0,112.0
14097,76.0,2,0,1.0,97.0
14098,36.0,1,112,14.0,103.0
14099,48.0,4,120,3.0,114.0
14100,60.0,4,0,3.0,99.0
14101,72.0,0,30,2.0,98.0
14102,64.0,107,30,2.0,98.0
14103,88.0,0,30,10.0,100.0
14104,76.0,0,30,10.0,100.0
14105,88.0,0,30,0.0,98.0
14106,72.0,1,30,11.0,100.0
14107,84.0,0,30,11.0,100.0
14108,64.0,0,30,4.0,100.0
14109,72.0,0,30,1.0,97.0
14110,64.0,0,30,12.0,100.0
14111,72.0,3,30,12.0,100.0
14112,48.0,0,30,13.0,100.0
14113,36.0,1,30,13.0,100.0
14114,48.0,0,30,3.0,99.0
14115,36.0,1,30,14.0,100.0
14116,76.0,0,30,10.0,100.0
14117,64.0,0,30,2.0,98.0
14118,72.0,0,30,2.0,98.0
14119,88.0,47,30,10.0,100.0
14120,88.0,1,30,0.0,98.0
14121,84.0,0,30,0.0,98.0
14122,84.0,0,30,11.0,100.0
14123,72.0,1,30,11.0,100.0
14124,72.0,0,30,1.0,97.0
14125,76.0,0,30,1.0,97.0
14126,64.0,2,30,4.0,100.0
14127,72.0,0,30,12.0,100.0
14128,64.0,3,30,12.0,100.0
14129,48.0,1,30,13.0,100.0
14130,36.0,0,30,13.0,100.0
14131,60.0,0,30,3.0,99.0
14132,48.0,4,30,3.0,99.0
14133,36.0,1,30,14.0,100.0
14134,88.0,47,112,10.0,103.0
14135,76.0,0,112,10.0,103.0
14136,72.0,1,112,11.0,103.0
14137,84.0,0,112,11.0,103.0
14138,64.0,3,112,12.0,103.0
14139,72.0,0,112,12.0,103.0
14140,64.0,0,0,2.0,98.0
14141,72.0,107,0,2.0,98.0
14142,36.0,0,112,13.0,103.0
14143,48.0,1,112,13.0,103.0
14144,88.0,0,120,0.0,113.0
14145,84.0,1,0,0.0,98.0
14146,64.0,2,0,4.0,100.0
14147,76.0,0,0,1.0,97.0
14148,72.0,0,0,1.0,97.0
14149,36.0,1,112,14.0,103.0
14150,48.0,4,0,3.0,99.0
14151,60.0,0,0,3.0,99.0
14152,88.0,0,30,10.0,100.0
14153,76.0,0,30,10.0,100.0
14154,88.0,0,30,0.0,98.0
14155,84.0,0,30,11.0,100.0
14156,72.0,1,30,11.0,100.0
14157,72.0,0,30,12.0,100.0
14158,64.0,3,30,12.0,100.0
14159,36.0,0,30,13.0,100.0
14160,48.0,1,30,13.0,100.0
14161,36.0,1,30,14.0,100.0
14162,76.0,0,30,10.0,100.0
14163,88.0,0,30,10.0,100.0
14164,72.0,1,30,11.0,100.0
14165,84.0,0,30,11.0,100.0
14166,64.0,0,30,12.0,100.0
14167,72.0,3,30,12.0,100.0
14168,48.0,0,30,13.0,100.0
14169,36.0,1,30,13.0,100.0
14170,36.0,1,30,14.0,100.0
14171,72.0,1,60,6.0,127.0
14172,52.0,47,20,7.0,127.0
14173,36.0,6,20,8.0,127.0
14174,60.0,14,20,7.0,119.0
14175,40.0,6,20,8.0,113.0
14176,64.0,14,0,7.0,127.0
14177,48.0,6,20,8.0,113.0
14178,48.0,6,20,8.0,127.0
14179,72.0,14,20,7.0,119.0
14180,52.0,6,20,8.0,113.0
14181,76.0,14,20,7.0,119.0
14182,60.0,6,20,8.0,113.0
14183,76.0,14,20,7.0,127.0
14184,60.0,6,20,8.0,127.0
14185,84.0,14,20,7.0,119.0
14186,64.0,6,20,8.0,113.0
14187,88.0,14,20,7.0,119.0
14188,72.0,6,20,8.0,113.0
14189,72.0,0,270,2.0,98.0
14190,64.0,47,270,2.0,98.0
14191,88.0,1,270,0.0,98.0
14192,84.0,0,270,0.0,98.0
14193,64.0,1,270,4.0,100.0
14194,76.0,0,270,1.0,97.0
14195,72.0,0,270,1.0,97.0
14196,48.0,4,270,3.0,99.0
14197,60.0,0,270,3.0,99.0
14198,76.0,0,120,7.0,127.0
14199,88.0,0,120,7.0,127.0
14200,84.0,14,120,7.0,127.0
14201,64.0,0,120,8.0,127.0
14202,72.0,0,120,8.0,127.0
14203,60.0,6,120,8.0,127.0
14204,76.0,54,112,10.0,103.0
14205,88.0,0,112,10.0,103.0
14206,72.0,1,112,11.0,103.0
14207,84.0,0,112,11.0,103.0
14208,64.0,3,112,12.0,103.0
14209,72.0,0,120,2.0,113.0
14210,48.0,1,112,13.0,103.0
14211,64.0,0,0,2.0,98.0
14212,88.0,1,120,0.0,113.0
14213,84.0,1,0,0.0,98.0
14214,76.0,0,120,1.0,112.0
14215,72.0,0,120,1.0,112.0
14216,64.0,0,0,4.0,100.0
14217,36.0,1,112,14.0,103.0
14218,48.0,0,0,3.0,99.0
14219,60.0,4,0,3.0,99.0
14220,88.0,107,30,10.0,100.0
14221,76.0,0,30,10.0,100.0
14222,72.0,0,30,2.0,98.0
14223,88.0,0,30,0.0,98.0
14224,72.0,0,30,11.0,100.0
14225,84.0,1,30,11.0,100.0
14226,76.0,2,30,1.0,97.0
14227,72.0,0,30,1.0,97.0
14228,64.0,3,30,12.0,100.0
14229,48.0,1,30,13.0,100.0
14230,36.0,1,30,14.0,100.0
14231,76.0,47,30,10.0,100.0
14232,88.0,0,30,10.0,100.0
14233,73.0,0,30,11.0,100.0
14234,85.0,1,30,11.0,100.0
14235,69.0,3,30,12.0,100.0
14236,57.0,0,30,12.0,100.0
14237,45.0,1,30,13.0,100.0
14238,33.0,1,30,14.0,100.0
14239,69.0,0,60,6.0,127.0
14240,76.0,1,60,6.0,127.0
14241,52.0,45,20,7.0,127.0
14242,33.0,6,20,8.0,127.0
14243,61.0,14,20,7.0,119.0
14244,40.0,6,20,8.0,113.0
14245,64.0,14,20,7.0,119.0
14246,45.0,6,20,8.0,113.0
14247,45.0,2,120,15.0,104.0
14248,64.0,14,20,7.0,127.0
14249,45.0,6,20,8.0,127.0
14250,73.0,14,20,7.0,119.0
14251,52.0,6,20,8.0,113.0
14252,76.0,14,0,7.0,127.0
14253,57.0,6,20,8.0,113.0
14254,57.0,6,20,8.0,127.0
14255,85.0,14,20,7.0,119.0
14256,64.0,6,20,8.0,113.0
14257,88.0,14,0,7.0,127.0
14258,69.0,0,0,8.0,127.0
14259,64.0,0,270,2.0,98.0
14260,73.0,0,270,2.0,98.0
14261,85.0,0,270,0.0,98.0
14262,88.0,1,270,0.0,98.0
14263,76.0,0,270,1.0,97.0
14264,69.0,0,270,4.0,100.0
14265,45.0,1,270,4.0,100.0
14266,73.0,0,270,1.0,97.0
14267,45.0,4,270,3.0,99.0
14268,57.0,0,270,3.0,99.0
14269,76.0,0,120,7.0,127.0
14270,85.0,0,120,7.0,127.0
14271,64.0,6,120,8.0,127.0
14272,57.0,0,120,8.0,127.0
14273,88.0,0,112,10.0,103.0
14274,76.0,54,112,10.0,103.0
14275,85.0,1,112,11.0,103.0
14276,73.0,0,112,11.0,103.0
14277,69.0,3,112,12.0,103.0
14278,64.0,0,120,2.0,113.0
14279,73.0,0,120,2.0,113.0
14280,45.0,1,112,13.0,103.0
14281,85.0,1,0,0.0,98.0
14282,88.0,0,0,0.0,98.0
14283,57.0,0,120,4.0,115.0
14284,69.0,0,120,4.0,115.0
14285,76.0,0,0,1.0,97.0
14286,69.0,0,0,1.0,97.0
14287,33.0,1,112,14.0,103.0
14288,45.0,4,120,3.0,114.0
14289,57.0,0,120,3.0,114.0
14290,76.0,0,30,10.0,100.0
14291,88.0,0,30,10.0,100.0
14292,64.0,107,30,2.0,98.0
14293,73.0,0,30,2.0,98.0
14294,85.0,0,30,11.0,100.0
14295,73.0,1,30,11.0,100.0
14296,69.0,0,30,4.0,100.0
14297,57.0,2,30,4.0,100.0
14298,69.0,3,30,12.0,100.0
14299,45.0,1,30,13.0,100.0
14300,45.0,0,30,3.0,99.0
14301,57.0,4,30,3.0,99.0
14302,33.0,1,30,14.0,100.0
14303,89.0,0,30,10.0,100.0
14304,77.0,47,30,10.0,100.0
14305,69.0,1,30,11.0,100.0
14306,81.0,0,30,11.0,100.0
14307,60.0,0,30,12.0,100.0
14308,72.0,3,30,12.0,100.0
14309,41.0,1,30,13.0,100.0
14310,29.0,1,30,14.0,100.0
14311,69.0,1,60,6.0,127.0
14312,72.0,0,60,6.0,127.0
14313,53.0,45,20,7.0,127.0
14314,30.0,6,20,8.0,127.0
14315,57.0,14,20,7.0,119.0
14316,33.0,6,20,8.0,113.0
14317,65.0,14,0,7.0,127.0
14318,41.0,6,0,8.0,127.0
14319,45.0,2,120,15.0,104.0
14320,69.0,14,20,7.0,119.0
14321,45.0,6,20,8.0,113.0
14322,77.0,14,0,7.0,127.0
14323,53.0,6,0,8.0,127.0
14324,81.0,14,20,7.0,119.0
14325,57.0,6,20,8.0,113.0
14326,89.0,14,0,7.0,127.0
14327,65.0,6,20,8.0,113.0
14328,65.0,0,270,2.0,98.0
14329,72.0,0,270,2.0,98.0
14330,84.0,0,270,0.0,98.0
14331,89.0,1,270,0.0,98.0
14332,69.0,1,270,4.0,100.0
14333,77.0,0,270,1.0,97.0
14334,69.0,0,270,1.0,97.0
14335,57.0,0,270,4.0,100.0
14336,53.0,0,270,3.0,99.0
14337,41.0,4,270,3.0,99.0
14338,77.0,0,120,7.0,127.0
14339,81.0,0,120,7.0,127.0
14340,57.0,0,120,8.0,127.0
14341,65.0,6,120,8.0,127.0
14342,53.0,0,120,8.0,127.0
14343,89.0,0,120,10.0,100.0
14344,77.0,54,120,10.0,100.0
14345,72.0,107,0,2.0,98.0
14346,65.0,0,0,2.0,98.0
14347,84.0,1,120,0.0,113.0
14348,89.0,0,120,0.0,113.0
14349,81.0,1,120,11.0,100.0
14350,69.0,0,120,11.0,100.0
14351,69.0,0,120,4.0,115.0
14352,57.0,2,120,4.0,115.0
14353,69.0,0,120,1.0,112.0
14354,77.0,0,120,1.0,112.0
14355,72.0,3,120,12.0,100.0
14356,53.0,1,120,13.0,100.0
14357,41.0,0,0,3.0,99.0
14358,53.0,4,0,3.0,99.0
14359,41.0,1,120,14.0,100.0
14360,77.0,0,22,10.0,115.0
14361,89.0,0,22,10.0,115.0
14362,81.0,1,22,11.0,115.0
14363,69.0,0,22,11.0,115.0
14364,72.0,3,22,12.0,115.0
14365,53.0,1,22,13.0,115.0
14366,84.0,1,30,0.0,98.0
14367,89.0,0,30,0.0,98.0
14368,57.0,2,30,4.0,100.0
14369,69.0,0,30,4.0,100.0
14370,69.0,0,30,1.0,97.0
14371,77.0,0,30,1.0,97.0
14372,41.0,1,22,14.0,115.0
14373,90.0,47,22,10.0,115.0
14374,78.0,0,22,10.0,115.0
14375,81.0,0,22,11.0,115.0
14376,69.0,1,22,11.0,115.0
14377,62.0,0,22,12.0,115.0
14378,74.0,3,22,12.0,115.0
14379,50.0,1,22,13.0,115.0
14380,38.0,1,22,14.0,115.0
14381,74.0,0,60,6.0,127.0
14382,62.0,1,60,6.0,127.0
14383,57.0,45,20,7.0,127.0
14384,26.0,6,20,8.0,127.0
14385,66.0,14,20,7.0,119.0
14386,33.0,6,20,8.0,113.0
14387,69.0,14,20,7.0,119.0
14388,38.0,6,0,8.0,127.0
14389,45.0,2,120,15.0,104.0
14390,69.0,14,20,7.0,127.0
14391,78.0,14,20,7.0,119.0
14392,45.0,6,20,8.0,113.0
14393,81.0,14,20,7.0,119.0
14394,50.0,6,20,8.0,113.0
14395,81.0,14,20,7.0,127.0
14396,50.0,6,20,8.0,127.0
14397,90.0,14,20,7.0,119.0
14398,57.0,6,20,8.0,113.0
14399,93.0,11,3,7.0,127.0
14400,62.0,6,20,8.0,113.0
14401,74.0,0,270,2.0,98.0
14402,66.0,0,270,2.0,98.0
14403,86.0,1,270,0.0,98.0
14404,90.0,0,270,0.0,98.0
14405,78.0,0,270,1.0,97.0
14406,62.0,0,270,4.0,100.0
14407,69.0,0,270,1.0,97.0
14408,57.0,1,270,4.0,100.0
14409,38.0,4,270,3.0,99.0
14410,50.0,0,270,3.0,99.0
14411,90.0,3,120,7.0,120.0
14412,81.0,0,120,7.0,120.0
14413,62.0,0,120,8.0,127.0
14414,50.0,6,120,8.0,127.0
14415,57.0,0,120,8.0,127.0
14416,74.0,54,120,2.0,113.0
14417,78.0,0,120,10.0,100.0
14418,66.0,0,0,2.0,98.0
14419,90.0,0,0,10.0,115.0
14420,86.0,1,120,0.0,113.0
14421,90.0,0,120,0.0,113.0
14422,74.0,1,120,11.0,100.0
14423,81.0,0,120,11.0,100.0
14424,62.0,0,120,4.0,115.0
14425,69.0,0,0,1.0,97.0
14426,78.0,0,0,1.0,97.0
14427,66.0,0,0,4.0,100.0
14428,62.0,3,0,12.0,115.0
14429,69.0,3,120,12.0,100.0
14430,50.0,1,120,13.0,100.0
14431,50.0,4,0,3.0,99.0
14432,38.0,0,0,3.0,99.0
14433,38.0,1,120,14.0,100.0
14434,78.0,107,22,10.0,115.0
14435,81.0,1,22,11.0,115.0
14436,74.0,0,22,11.0,115.0
14437,69.0,0,22,12.0,115.0
14438,74.0,0,30,2.0,98.0
14439,50.0,1,22,13.0,115.0
14440,86.0,0,30,0.0,98.0
14441,90.0,1,30,0.0,98.0
14442,62.0,2,30,4.0,100.0
14443,38.0,1,22,14.0,115.0
14444,91.0,0,22,10.0,115.0
14445,79.0,47,22,10.0,115.0
14446,74.0,0,22,11.0,115.0
14447,83.0,1,22,11.0,115.0
14448,71.0,3,22,12.0,115.0
14449,62.0,0,22,12.0,115.0
14450,71.0,0,30,2.0,98.0
14451,43.0,1,22,13.0,115.0
14452,67.0,0,30,2.0,98.0
14453,86.0,1,30,0.0,98.0
14454,91.0,0,30,0.0,98.0
14455,79.0,0,30,1.0,97.0
14456,62.0,0,30,4.0,100.0
14457,71.0,1,30,1.0,97.0
14458,67.0,0,30,4.0,100.0
14459,31.0,1,22,14.0,115.0
14460,55.0,0,30,3.0,99.0
14461,43.0,4,30,3.0,99.0
14462,74.0,1,60,6.0,127.0
14463,62.0,0,60,6.0,127.0
14464,50.0,2,60,15.0,104.0
14465,91.0,42,60,7.0,127.0
14466,86.0,3,60,7.0,127.0
14467,83.0,0,60,7.0,127.0
14468,79.0,0,60,7.0,127.0
14469,31.0,0,60,8.0,121.0
14470,43.0,6,60,8.0,121.0
14471,38.0,0,60,8.0,121.0
14472,35.0,0,60,8.0,121.0
14473,90.0,0,22,10.0,115.0
14474,78.0,0,22,10.0,115.0
14475,81.0,1,22,11.0,115.0
14476,74.0,0,22,11.0,115.0
14477,69.0,3,22,12.0,115.0
14478,62.0,0,22,12.0,115.0
14479,66.0,54,30,2.0,98.0
14480,74.0,0,30,2.0,98.0
14481,50.0,1,22,13.0,115.0
14482,86.0,1,30,0.0,98.0
14483,90.0,0,30,0.0,98.0
14484,78.0,0,30,1.0,97.0
14485,50.0,0,30,4.0,100.0
14486,66.0,1,30,4.0,100.0
14487,69.0,0,30,1.0,97.0
14488,38.0,1,22,14.0,115.0
14489,38.0,4,30,3.0,99.0
14490,50.0,0,30,3.0,99.0
14491,74.0,1,60,6.0,127.0
14492,62.0,0,60,6.0,127.0
14493,50.0,2,60,15.0,104.0
14494,90.0,42,60,7.0,127.0
14495,81.0,3,60,7.0,127.0
14496,86.0,0,60,7.0,127.0
14497,78.0,0,60,7.0,127.0
14498,50.0,0,60,8.0,121.0
14499,45.0,6,60,8.0,121.0
14500,38.0,0,60,8.0,121.0
14501,42.0,0,60,8.0,121.0
14502,91.0,54,22,10.0,115.0
14503,79.0,0,22,10.0,115.0
14504,83.0,1,22,11.0,115.0
14505,74.0,0,22,11.0,115.0
14506,71.0,0,22,12.0,115.0
14507,62.0,3,22,12.0,115.0
14508,67.0,0,30,2.0,98.0
14509,71.0,0,30,2.0,98.0
14510,43.0,1,22,13.0,115.0
14511,86.0,1,30,0.0,98.0
14512,91.0,0,30,0.0,98.0
14513,79.0,0,30,1.0,97.0
14514,71.0,0,30,1.0,97.0
14515,62.0,1,30,4.0,100.0
14516,67.0,0,30,4.0,100.0
14517,31.0,1,22,14.0,115.0
14518,43.0,4,30,3.0,99.0
14519,55.0,0,30,3.0,99.0
14520,74.0,0,60,6.0,127.0
14521,62.0,1,60,6.0,127.0
14522,50.0,2,60,15.0,104.0
14523,91.0,42,60,7.0,127.0
14524,79.0,3,60,7.0,127.0
14525,83.0,0,60,7.0,127.0
14526,86.0,0,60,7.0,127.0
14527,43.0,6,60,8.0,121.0
14528,31.0,0,60,8.0,121.0
14529,35.0,0,60,8.0,121.0
14530,38.0,0,60,8.0,121.0
14531,90.0,54,22,10.0,115.0
14532,78.0,0,22,10.0,115.0
14533,81.0,1,22,11.0,115.0
14534,74.0,0,22,11.0,115.0
14535,62.0,0,22,12.0,115.0
14536,69.0,3,22,12.0,115.0
14537,74.0,0,30,2.0,98.0
14538,66.0,0,30,2.0,98.0
14539,50.0,1,22,13.0,115.0
14540,90.0,1,30,0.0,98.0
14541,86.0,0,30,0.0,98.0
14542,78.0,0,30,1.0,97.0
14543,69.0,1,30,1.0,97.0
14544,66.0,0,30,4.0,100.0
14545,50.0,0,30,4.0,100.0
14546,38.0,1,22,14.0,115.0
14547,38.0,4,30,3.0,99.0
14548,50.0,0,30,3.0,99.0
14549,74.0,0,60,6.0,127.0
14550,62.0,1,60,6.0,127.0
14551,50.0,2,60,15.0,104.0
14552,90.0,42,60,7.0,127.0
14553,81.0,0,60,7.0,127.0
14554,86.0,3,60,7.0,127.0
14555,78.0,0,60,7.0,127.0
14556,50.0,0,60,8.0,121.0
14557,42.0,6,60,8.0,121.0
14558,45.0,0,3,8.0,121.0
14559,38.0,0,60,8.0,121.0
14560,88.0,0,22,10.0,115.0
14561,76.0,3,22,10.0,115.0
14562,81.0,0,22,11.0,115.0
14563,73.0,1,22,11.0,115.0
14564,62.0,0,22,12.0,115.0
14565,69.0,3,22,12.0,115.0
14566,45.0,1,22,13.0,115.0
14567,33.0,1,22,14.0,115.0
14568,88.0,51,60,7.0,127.0
14569,76.0,0,60,7.0,127.0
14570,81.0,0,60,7.0,127.0
14571,85.0,0,60,7.0,127.0
14572,57.0,0,60,6.0,127.0
14573,40.0,0,60,8.0,121.0
14574,37.0,0,60,8.0,121.0
14575,69.0,1,60,6.0,127.0
14576,33.0,3,0,8.0,114.0
14577,45.0,2,60,15.0,104.0
14578,49.0,45,30,7.0,120.0
14579,52.0,27,30,7.0,120.0
14580,73.0,0,120,2.0,90.0
14581,64.0,0,120,2.0,90.0
14582,85.0,1,120,0.0,90.0
14583,88.0,0,120,0.0,90.0
14584,37.0,3,30,8.0,114.0
14585,76.0,1,120,1.0,89.0
14586,57.0,0,120,4.0,92.0
14587,64.0,0,120,4.0,92.0
14588,69.0,0,120,1.0,89.0
14589,57.0,4,120,3.0,91.0
14590,45.0,0,120,3.0,91.0
14591,57.0,27,30,7.0,120.0
14592,40.0,3,30,8.0,114.0
14593,61.0,27,30,7.0,120.0
14594,45.0,3,30,8.0,114.0
14595,64.0,27,30,7.0,120.0
14596,49.0,3,30,8.0,114.0
14597,69.0,27,30,7.0,120.0
14598,52.0,3,30,8.0,114.0
14599,76.0,0,60,7.0,120.0
14600,64.0,27,60,7.0,120.0
14601,73.0,0,60,7.0,120.0
14602,45.0,3,0,8.0,114.0
14603,57.0,0,60,8.0,114.0
14604,61.0,57,30,7.0,120.0
14605,64.0,27,30,7.0,120.0
14606,49.0,3,30,8.0,114.0
14607,69.0,27,30,7.0,120.0
14608,52.0,3,30,8.0,114.0
14609,73.0,27,30,7.0,120.0
14610,57.0,3,30,8.0,114.0
14611,76.0,27,30,7.0,120.0
14612,61.0,3,30,8.0,114.0
14613,81.0,27,30,7.0,120.0
14614,64.0,3,30,8.0,114.0
14615,85.0,0,60,7.0,120.0
14616,88.0,0,60,7.0,120.0
14617,76.0,27,60,7.0,120.0
14618,69.0,3,60,8.0,114.0
14619,57.0,0,60,8.0,114.0
14620,52.0,57,30,7.0,120.0
14621,33.0,3,30,8.0,114.0
14622,55.0,27,30,7.0,120.0
14623,37.0,3,30,8.0,114.0
14624,61.0,27,30,7.0,120.0
14625,40.0,3,30,8.0,114.0
14626,64.0,27,30,7.0,120.0
14627,45.0,3,30,8.0,114.0
14628,67.0,27,30,7.0,120.0
14629,49.0,3,30,8.0,114.0
14630,73.0,27,30,7.0,120.0
14631,52.0,3,30,8.0,114.0
14632,79.0,0,60,7.0,120.0
14633,76.0,27,60,7.0,120.0
14634,67.0,0,60,7.0,120.0
14635,57.0,0,60,8.0,114.0
14636,45.0,3,60,8.0,114.0
14637,61.0,57,30,7.0,120.0
14638,57.0,3,30,8.0,114.0
14639,64.0,27,30,7.0,120.0
14640,52.0,3,30,8.0,114.0
14641,67.0,27,30,7.0,120.0
14642,49.0,3,30,8.0,114.0
14643,73.0,27,30,7.0,120.0
14644,45.0,3,30,8.0,114.0
14645,76.0,27,30,7.0,120.0
14646,40.0,3,30,8.0,114.0
14647,79.0,27,30,7.0,120.0
14648,37.0,3,30,8.0,114.0
14649,91.0,0,60,7.0,121.0
14650,85.0,25,60,7.0,121.0
14651,33.0,5,60,8.0,114.0
14652,45.0,3,60,8.0,114.0
14653,85.0,56,120,7.0,120.0
14654,79.0,1,120,7.0,119.0
14655,91.0,2,120,7.0,120.0
14656,35.0,59,60,8.0,112.0
14657,33.0,1,60,8.0,102.0
14658,45.0,0,60,8.0,113.0
14659,78.0,53,120,7.0,119.0
14660,90.0,1,120,7.0,118.0
14661,86.0,2,120,7.0,119.0
14662,37.0,0,60,8.0,113.0
14663,33.0,61,60,8.0,100.0
14664,45.0,3,60,8.0,112.0
14665,81.0,53,0,7.0,115.0
14666,76.0,0,120,7.0,117.0
14667,88.0,1,120,7.0,117.0
14668,33.0,62,60,8.0,98.0
14669,38.0,1,60,8.0,111.0
14670,45.0,2,60,8.0,110.0
14671,74.0,0,120,7.0,115.0
14672,86.0,2,120,7.0,116.0
14673,40.0,59,60,8.0,105.0
14674,33.0,4,60,8.0,97.0
14675,85.0,53,60,7.0,106.0
14676,73.0,3,60,7.0,106.0
14677,45.0,1,60,8.0,99.0
14678,80.0,56,60,7.0,103.0
14679,68.0,2,60,7.0,102.0
14680,33.0,1,60,8.0,90.0
14681,41.0,2,60,8.0,96.0
14682,45.0,3,60,8.0,93.0
14683,83.0,57,120,7.0,93.0
14684,71.0,1,120,7.0,94.0
14685,40.0,59,60,8.0,80.0
14686,33.0,0,60,8.0,65.0
14687,73.0,0,60,7.0,88.0
14688,85.0,59,60,7.0,88.0
14689,45.0,2,60,8.0,82.0
14690,68.0,56,60,7.0,73.0
14691,80.0,0,60,7.0,73.0
14692,33.0,0,60,8.0,59.0
14693,41.0,3,60,8.0,63.0
14694,45.0,2,60,8.0,73.0
14695,83.0,58,120,7.0,76.0
14696,71.0,1,120,7.0,74.0
14697,40.0,59,60,8.0,70.0
14698,33.0,1,60,8.0,57.0
14699,45.0,0,60,8.0,76.0
14700,73.0,57,60,7.0,85.0
14701,85.0,1,60,7.0,86.0
14702,68.0,57,60,7.0,67.0
14703,47.0,2,60,8.0,63.0
14704,80.0,1,60,7.0,66.0
14705,50.0,2,60,8.0,80.0
14706,71.0,57,120,7.0,78.0
14707,83.0,2,120,7.0,78.0
14708,33.0,0,60,8.0,56.0
14709,45.0,58,60,8.0,71.0
14710,69.0,57,60,7.0,81.0
14711,81.0,1,60,7.0,80.0
14712,48.0,6,60,8.0,71.0
14713,76.0,55,60,7.0,63.0
14714,64.0,2,60,7.0,63.0
14715,49.0,3,60,8.0,54.0
14716,52.0,1,60,8.0,73.0
14717,67.0,55,120,7.0,68.0
14718,79.0,1,120,7.0,70.0
14719,33.0,61,60,8.0,50.0
14720,45.0,1,60,8.0,62.0
14721,66.0,56,60,7.0,76.0
14722,78.0,1,60,7.0,75.0
14723,50.0,2,60,8.0,67.0
14724,73.0,57,60,7.0,58.0
14725,61.0,1,60,7.0,59.0
14726,52.0,2,60,8.0,53.0
14727,55.0,5,60,8.0,65.0
14728,76.0,55,120,7.0,68.0
14729,64.0,2,120,7.0,68.0
14730,45.0,58,60,8.0,61.0
14731,33.0,1,60,8.0,52.0
14732,74.0,0,60,7.0,79.0
14733,62.0,56,60,7.0,79.0
14734,53.0,1,60,8.0,71.0
14735,65.0,60,60,7.0,79.0
14736,56.0,2,60,8.0,74.0
14737,59.0,2,60,8.0,74.0
14738,74.0,54,0,7.0,96.0
14739,62.0,2,120,7.0,81.0
14740,45.0,61,60,8.0,76.0
14741,33.0,1,60,8.0,66.0
14742,62.0,3,60,7.0,96.0
14743,53.0,2,60,8.0,86.0
14744,65.0,55,60,7.0,102.0
14745,56.0,6,60,8.0,95.0
14746,59.0,3,60,8.0,101.0
14747,62.0,56,120,7.0,107.0
14748,74.0,53,3,7.0,114.0
14749,45.0,59,60,8.0,104.0
14750,33.0,2,60,8.0,99.0
14751,62.0,4,60,7.0,113.0
14752,53.0,3,60,8.0,106.0
14753,65.0,57,60,7.0,115.0
14754,56.0,2,60,8.0,106.0
14755,62.0,54,60,7.0,114.0
14756,74.0,4,60,7.0,115.0
14757,59.0,2,60,8.0,110.0
14758,45.0,0,60,8.0,110.0
14759,33.0,58,60,8.0,109.0
14760,62.0,56,60,7.0,112.0
14761,64.0,1,60,7.0,112.0
14762,50.0,2,60,8.0,112.0
14763,76.0,0,60,7.0,111.0
14764,69.0,60,60,7.0,118.0
14765,52.0,4,60,8.0,112.0
14766,64.0,53,60,7.0,112.0
14767,76.0,0,60,7.0,112.0
14768,57.0,3,60,8.0,112.0
14769,62.0,1,60,7.0,112.0
14770,33.0,59,60,8.0,111.0
14771,45.0,3,60,8.0,114.0
14772,76.0,0,60,7.0,114.0
14773,62.0,56,60,7.0,115.0
14774,64.0,2,60,7.0,115.0
14775,50.0,1,60,8.0,115.0
14776,69.0,57,60,7.0,121.0
14777,52.0,3,60,8.0,115.0
14778,64.0,0,60,7.0,116.0
14779,76.0,57,60,7.0,116.0
14780,62.0,2,60,7.0,116.0
14781,57.0,1,60,8.0,116.0
14782,33.0,58,60,8.0,117.0
14783,45.0,3,60,8.0,117.0
14784,64.0,54,60,7.0,118.0
14785,76.0,3,60,7.0,117.0
14786,62.0,1,60,7.0,117.0
14787,50.0,3,60,8.0,118.0
14788,69.0,57,60,7.0,125.0
14789,52.0,3,60,8.0,119.0
14790,62.0,53,60,7.0,107.0
14791,76.0,2,60,7.0,106.0
14792,64.0,0,60,7.0,107.0
14793,57.0,2,60,8.0,109.0
14794,33.0,420,15,8.0,97.0
14795,45.0,0,15,7.0,97.0
14796,38.0,0,15,8.0,102.0
14797,50.0,15,15,7.0,102.0
14798,40.0,15,15,8.0,106.0
14799,52.0,0,15,7.0,106.0
14800,45.0,0,15,8.0,110.0
14801,57.0,15,15,7.0,110.0
14802,50.0,0,15,8.0,112.0
14803,62.0,15,15,7.0,112.0
14804,64.0,0,15,7.0,115.0
14805,52.0,15,15,8.0,115.0
14806,69.0,15,15,7.0,117.0
14807,57.0,0,15,8.0,117.0
14808,74.0,0,15,7.0,120.0
14809,62.0,15,15,8.0,120.0
14810,76.0,15,15,7.0,115.0
14811,64.0,1,15,8.0,110.0
14812,78.0,11,15,7.0,114.0
14813,66.0,6,15,8.0,106.0
14814,76.0,10,15,7.0,112.0
14815,64.0,5,15,8.0,106.0
14816,78.0,11,15,7.0,112.0
14817,66.0,4,15,8.0,105.0
14818,76.0,9,15,7.0,112.0
14819,64.0,4,15,8.0,104.0
14820,78.0,11,15,7.0,111.0
14821,66.0,4,15,8.0,103.0
14822,76.0,13,15,7.0,109.0
14823,64.0,3,15,8.0,102.0
14824,78.0,11,15,7.0,106.0
14825,66.0,5,15,8.0,99.0
14826,76.0,12,15,7.0,106.0
14827,64.0,3,15,8.0,98.0
14828,78.0,9,15,7.0,106.0
14829,66.0,5,15,8.0,96.0
14830,76.0,13,15,7.0,103.0
14831,64.0,1,15,8.0,96.0
14832,78.0,11,15,7.0,99.0
14833,66.0,4,15,8.0,91.0
14834,76.0,14,15,7.0,98.0
14835,64.0,2,15,8.0,92.0
14836,78.0,10,15,7.0,98.0
14837,66.0,4,15,8.0,89.0
14838,76.0,13,15,7.0,96.0
14839,64.0,3,15,8.0,87.0
14840,78.0,11,15,7.0,95.0
14841,66.0,4,15,8.0,87.0
14842,76.0,12,15,7.0,93.0
14843,64.0,4,15,8.0,85.0
14844,78.0,11,15,7.0,90.0
14845,66.0,3,15,8.0,82.0
14846,76.0,10,15,7.0,88.0
14847,64.0,7,15,8.0,82.0
14848,78.0,11,15,7.0,86.0
14849,66.0,3,15,8.0,81.0
14850,76.0,11,15,7.0,86.0
14851,64.0,2,15,8.0,79.0
14852,78.0,12,15,7.0,81.0
14853,66.0,6,15,8.0,75.0
14854,76.0,11,15,7.0,83.0
14855,64.0,2,15,8.0,74.0
14856,78.0,12,15,7.0,79.0
14857,66.0,2,15,8.0,73.0
14858,76.0,12,15,7.0,78.0
14859,64.0,4,15,8.0,71.0
14860,78.0,13,15,7.0,76.0
14861,66.0,1,15,8.0,70.0
14862,76.0,12,15,7.0,73.0
14863,64.0,6,15,8.0,68.0
14864,78.0,11,15,7.0,72.0
14865,66.0,2,15,8.0,66.0
14866,76.0,12,15,7.0,71.0
14867,64.0,4,15,8.0,65.0
14868,78.0,9,15,7.0,71.0
14869,66.0,7,15,8.0,62.0
14870,76.0,11,15,7.0,65.0
14871,64.0,3,15,8.0,57.0
14872,78.0,11,15,7.0,65.0
14873,66.0,5,15,8.0,56.0
14874,76.0,8,15,7.0,65.0
14875,64.0,1,15,8.0,57.0
14876,78.0,11,15,7.0,61.0
14877,57.0,5,30,4.0,100.0
14878,66.0,4,15,8.0,59.0
14879,76.0,11,15,7.0,61.0
14880,64.0,4,15,8.0,56.0
14881,78.0,12,15,7.0,63.0
14882,66.0,1,15,8.0,56.0
14883,76.0,13,15,7.0,61.0
14884,64.0,3,15,8.0,55.0
14885,78.0,13,15,7.0,61.0
14886,66.0,4,15,8.0,56.0
14887,76.0,8,15,7.0,63.0
14888,64.0,7,15,8.0,55.0
14889,78.0,9,15,7.0,65.0
14890,66.0,5,15,8.0,57.0
14891,76.0,10,15,7.0,62.0
14892,64.0,6,15,8.0,55.0
14893,78.0,8,15,7.0,63.0
14894,66.0,6,15,8.0,59.0
14895,62.0,0,100,4.0,115.0
14896,76.0,12,15,7.0,63.0
14897,64.0,4,15,8.0,59.0
14898,78.0,10,15,7.0,63.0
14899,66.0,2,15,8.0,59.0
14900,76.0,12,15,7.0,61.0
14901,64.0,2,15,8.0,59.0
14902,78.0,8,15,7.0,61.0
14903,64.0,4,30,4.0,100.0
14904,66.0,7,15,8.0,59.0
14905,76.0,11,15,7.0,65.0
14906,64.0,3,15,8.0,55.0
14907,78.0,9,15,7.0,61.0
14908,66.0,6,15,8.0,56.0
14909,76.0,11,15,7.0,61.0
14910,64.0,3,15,8.0,57.0
14911,78.0,10,15,7.0,62.0
14912,57.0,0,30,4.0,100.0
14913,66.0,7,15,8.0,55.0
14914,76.0,11,15,7.0,63.0
14915,64.0,3,15,8.0,56.0
14916,78.0,11,15,7.0,61.0
14917,66.0,2,15,8.0,59.0
14918,76.0,12,15,7.0,61.0
14919,64.0,2,15,8.0,55.0
14920,78.0,10,15,7.0,62.0
14921,66.0,3,15,8.0,57.0
14922,76.0,11,15,7.0,61.0
14923,64.0,4,15,8.0,59.0
14924,78.0,12,15,7.0,63.0
14925,66.0,2,15,8.0,57.0
14926,76.0,13,15,7.0,61.0
14927,64.0,5,15,8.0,55.0
14928,78.0,10,15,7.0,65.0
14929,66.0,4,15,8.0,57.0
14930,64.0,4,100,4.0,115.0
14931,76.0,11,15,7.0,65.0
14932,64.0,2,15,8.0,55.0
14933,78.0,11,15,7.0,62.0
14934,66.0,5,15,8.0,57.0
14935,76.0,10,15,7.0,65.0
14936,64.0,2,15,8.0,57.0
14937,78.0,9,15,7.0,65.0
14938,66.0,4,15,8.0,59.0
14939,69.0,5,30,4.0,100.0
14940,76.0,10,15,7.0,63.0
14941,64.0,4,15,8.0,57.0
14942,78.0,11,15,7.0,62.0
14943,66.0,4,15,8.0,55.0
14944,76.0,14,15,7.0,61.0
14945,64.0,2,15,8.0,56.0
14946,78.0,5,15,7.0,62.0
14947,66.0,1,15,8.0,59.0
14948,57.0,2,30,4.0,100.0
14949,57.0,6,30,3.0,99.0
14950,76.0,11,15,7.0,66.0
14951,64.0,4,15,8.0,56.0
14952,78.0,12,15,7.0,63.0
14953,66.0,3,15,8.0,59.0
14954,76.0,13,15,7.0,68.0
14955,64.0,1,15,8.0,61.0
14956,78.0,3,15,7.0,67.0
14957,66.0,4,15,8.0,61.0
14958,76.0,12,15,7.0,70.0
14959,64.0,2,15,8.0,62.0
14960,78.0,14,15,7.0,72.0
14961,66.0,3,15,8.0,62.0
14962,76.0,11,15,7.0,72.0
14963,64.0,4,15,8.0,66.0
14964,78.0,11,15,7.0,71.0
14965,66.0,4,15,8.0,65.0
14966,62.0,3,100,4.0,115.0
14967,76.0,9,15,7.0,73.0
14968,64.0,4,15,8.0,65.0
14969,62.0,7,100,3.0,114.0
14970,78.0,13,15,7.0,75.0
14971,66.0,3,15,8.0,66.0
14972,76.0,10,15,7.0,73.0
14973,64.0,2,15,8.0,67.0
14974,78.0,4,15,7.0,75.0
14975,66.0,2,15,8.0,68.0
14976,64.0,5,30,4.0,100.0
14977,64.0,6,30,3.0,99.0
14978,76.0,13,15,7.0,76.0
14979,64.0,4,15,8.0,72.0
14980,78.0,10,15,7.0,76.0
14981,66.0,6,15,8.0,72.0
14982,76.0,10,15,7.0,79.0
14983,64.0,0,15,8.0,73.0
14984,78.0,4,15,7.0,79.0
14985,57.0,3,30,4.0,100.0
14986,66.0,4,15,8.0,72.0
14987,45.0,0,30,3.0,99.0
14988,57.0,8,30,3.0,99.0
14989,76.0,12,15,7.0,78.0
14990,64.0,4,15,8.0,74.0
14991,78.0,10,15,7.0,82.0
14992,66.0,5,15,8.0,75.0
14993,76.0,11,15,7.0,82.0
14994,64.0,2,15,8.0,75.0
14995,78.0,4,15,7.0,80.0
14996,66.0,3,15,8.0,73.0
14997,76.0,12,15,7.0,84.0
14998,64.0,3,15,8.0,77.0
14999,78.0,11,15,7.0,84.0
15000,66.0,4,15,8.0,75.0
15001,76.0,11,15,7.0,84.0
15002,64.0,3,15,8.0,79.0
15003,78.0,11,15,7.0,87.0
15004,66.0,7,15,8.0,77.0
15005,64.0,2,100,4.0,115.0
15006,76.0,11,15,7.0,87.0
15007,64.0,1,15,8.0,79.0
15008,64.0,0,100,3.0,114.0
15009,52.0,6,100,3.0,114.0
15010,78.0,11,15,7.0,87.0
15011,66.0,6,15,8.0,81.0
15012,76.0,9,15,7.0,87.0
15013,64.0,4,15,8.0,80.0
15014,78.0,4,15,7.0,90.0
15015,66.0,2,15,8.0,81.0
15016,69.0,1,30,4.0,100.0
15017,57.0,8,30,3.0,99.0
15018,69.0,0,30,3.0,99.0
15019,76.0,13,15,7.0,89.0
15020,64.0,2,15,8.0,83.0
15021,78.0,12,15,7.0,90.0
15022,66.0,5,15,8.0,81.0
15023,79.0,9,15,7.0,83.0
15024,76.0,1,15,7.0,84.0
15025,64.0,0,15,8.0,75.0
15026,67.0,2,15,8.0,77.0
15027,78.0,3,15,7.0,83.0
15028,81.0,1,15,7.0,85.0
15029,69.0,1,15,8.0,76.0
15030,57.0,4,30,4.0,100.0
15031,66.0,2,15,8.0,78.0
15032,57.0,1,30,12.0,100.0
15033,45.0,1,30,13.0,100.0
15034,76.0,10,15,7.0,85.0
15035,79.0,2,15,7.0,84.0
15036,64.0,1,15,8.0,78.0
15037,67.0,0,15,8.0,77.0
15038,78.0,11,15,7.0,83.0
15039,81.0,3,15,7.0,85.0
15040,69.0,2,15,8.0,76.0
15041,66.0,1,15,8.0,79.0
15042,33.0,1,60,14.0,56.0
15043,79.0,9,15,7.0,86.0
15044,76.0,2,15,7.0,86.0
15045,67.0,0,15,8.0,79.0
15046,64.0,3,15,8.0,77.0
15047,81.0,6,15,7.0,86.0
15048,78.0,2,15,7.0,85.0
15049,66.0,4,15,8.0,77.0
15050,69.0,1,15,8.0,80.0
15051,79.0,8,15,7.0,85.0
15052,76.0,3,15,7.0,86.0
15053,67.0,1,15,8.0,78.0
15054,64.0,2,15,8.0,80.0
15055,78.0,10,15,7.0,85.0
15056,81.0,1,15,7.0,84.0
15057,69.0,4,15,8.0,80.0
15058,66.0,1,15,8.0,79.0
15059,79.0,9,15,7.0,88.0
15060,76.0,1,15,7.0,86.0
15061,64.0,4,15,8.0,79.0
15062,67.0,0,15,8.0,79.0
15063,78.0,11,15,7.0,86.0
15064,81.0,0,15,7.0,87.0
15065,69.0,2,15,8.0,80.0
15066,66.0,2,15,8.0,80.0
15067,79.0,9,15,7.0,88.0
15068,76.0,0,15,7.0,88.0
15069,64.0,0,100,4.0,115.0
15070,67.0,5,15,8.0,81.0
15071,64.0,1,15,8.0,81.0
15072,64.0,3,112,12.0,115.0
15073,52.0,1,112,13.0,115.0
15074,81.0,11,15,7.0,87.0
15075,78.0,1,15,7.0,87.0
15076,66.0,3,15,8.0,80.0
15077,69.0,1,15,8.0,81.0
15078,79.0,9,15,7.0,90.0
15079,76.0,1,15,7.0,88.0
15080,67.0,1,15,8.0,82.0
15081,64.0,1,15,8.0,80.0
15082,81.0,6,15,7.0,88.0
15083,78.0,3,15,7.0,89.0
15084,69.0,3,30,4.0,100.0
15085,66.0,0,15,8.0,82.0
15086,69.0,3,15,8.0,81.0
15087,69.0,1,30,12.0,100.0
15088,57.0,1,30,13.0,100.0
15089,76.0,9,15,7.0,89.0
15090,79.0,3,15,7.0,89.0
15091,67.0,2,15,8.0,82.0
15092,64.0,2,15,8.0,80.0
15093,81.0,8,15,7.0,90.0
15094,78.0,0,15,7.0,89.0
15095,66.0,5,15,8.0,81.0
15096,69.0,1,15,8.0,83.0
15097,79.0,9,15,7.0,91.0
15098,76.0,2,15,7.0,90.0
15099,67.0,0,15,8.0,81.0
15100,64.0,1,15,8.0,81.0
15101,81.0,1,15,7.0,89.0
15102,78.0,2,15,7.0,92.0
15103,69.0,1,30,6.0,127.0
15104,69.0,3,15,8.0,81.0
15105,69.0,1,30,1.0,97.0
15106,57.0,0,30,4.0,100.0
15107,66.0,1,15,8.0,83.0
15108,57.0,2,30,12.0,100.0
15109,45.0,1,30,13.0,100.0
15110,76.0,9,15,7.0,89.0
15111,79.0,2,15,7.0,91.0
15112,64.0,4,15,8.0,81.0
15113,67.0,1,15,8.0,81.0
15114,81.0,8,15,7.0,91.0
15115,78.0,1,15,7.0,90.0
15116,69.0,3,15,8.0,83.0
15117,66.0,1,15,8.0,82.0
15118,33.0,5,60,14.0,66.0
15119,79.0,11,15,7.0,92.0
15120,76.0,2,15,7.0,93.0
15121,64.0,0,15,8.0,82.0
15122,67.0,1,15,8.0,83.0
15123,81.0,8,15,7.0,92.0
15124,78.0,1,15,7.0,93.0
15125,66.0,2,15,8.0,84.0
15126,69.0,1,15,8.0,82.0
15127,79.0,9,15,7.0,92.0
15128,76.0,1,15,7.0,91.0
15129,67.0,3,15,8.0,83.0
15130,64.0,3,15,8.0,83.0
15131,78.0,8,15,7.0,91.0
15132,81.0,0,15,7.0,93.0
15133,69.0,5,15,8.0,82.0
15134,66.0,2,15,8.0,84.0
15135,76.0,0,15,7.0,92.0
15136,79.0,10,15,7.0,91.0
15137,67.0,4,15,8.0,85.0
15138,64.0,1,15,8.0,85.0
15139,78.0,9,15,7.0,91.0
15140,81.0,2,15,7.0,91.0
15141,69.0,3,15,8.0,85.0
15142,66.0,1,15,8.0,84.0
15143,76.0,0,100,1.0,112.0
15144,64.0,1,100,4.0,115.0
15145,76.0,9,15,7.0,94.0
15146,79.0,2,15,7.0,94.0
15147,67.0,2,15,8.0,83.0
15148,64.0,2,15,8.0,86.0
15149,76.0,1,112,6.0,127.0
15150,64.0,2,112,12.0,115.0
15151,52.0,1,112,13.0,115.0
15152,81.0,9,15,7.0,95.0
15153,78.0,1,15,7.0,94.0
15154,69.0,3,15,8.0,84.0
15155,66.0,2,15,8.0,87.0
15156,79.0,8,15,7.0,92.0
15157,76.0,0,15,7.0,95.0
15158,67.0,4,15,8.0,85.0
15159,64.0,2,15,8.0,84.0
15160,78.0,6,15,7.0,93.0
15161,81.0,2,15,7.0,96.0
15162,66.0,2,15,8.0,87.0
15163,69.0,0,15,8.0,85.0
15164,81.0,0,30,6.0,127.0
15165,81.0,1,30,1.0,97.0
15166,69.0,0,30,4.0,100.0
15167,69.0,1,30,12.0,100.0
15168,57.0,1,30,13.0,100.0
15169,76.0,11,15,7.0,94.0
15170,79.0,2,15,7.0,94.0
15171,64.0,2,15,8.0,87.0
15172,67.0,2,15,8.0,87.0
15173,78.0,9,15,7.0,94.0
15174,81.0,3,15,7.0,94.0
15175,66.0,0,15,8.0,87.0
15176,69.0,3,15,8.0,89.0
15177,79.0,9,15,7.0,87.0
15178,85.0,1,15,7.0,90.0
15179,76.0,2,15,7.0,87.0
15180,64.0,1,15,8.0,80.0
15181,67.0,0,15,8.0,81.0
15182,73.0,2,15,8.0,82.0
15183,57.0,1,15,12.0,115.0
15184,45.0,1,15,13.0,115.0
15185,45.0,0,10,15.0,56.0
15186,78.0,2,15,7.0,88.0
15187,86.0,1,15,7.0,90.0
15188,81.0,1,15,7.0,90.0
15189,69.0,2,15,8.0,80.0
15190,74.0,1,15,8.0,80.0
15191,45.0,1,1,15.0,59.0
15192,66.0,1,15,8.0,80.0
15193,85.0,4,15,7.0,88.0
15194,76.0,0,15,7.0,91.0
15195,79.0,1,15,7.0,89.0
15196,67.0,2,15,8.0,81.0
15197,64.0,0,15,8.0,83.0
15198,64.0,0,15,4.0,100.0
15199,73.0,1,15,8.0,81.0
15200,64.0,2,15,12.0,115.0
15201,52.0,1,15,13.0,115.0
15202,45.0,3,2,15.0,60.0
15203,69.0,0,55,6.0,127.0
15204,76.0,0,55,6.0,127.0
15205,78.0,7,15,7.0,89.0
15206,86.0,0,15,7.0,90.0
15207,81.0,1,15,7.0,92.0
15208,69.0,2,15,8.0,82.0
15209,66.0,1,15,8.0,84.0
15210,74.0,2,15,8.0,84.0
15211,33.0,5,60,14.0,73.0
15212,79.0,5,15,7.0,93.0
15213,85.0,1,15,7.0,93.0
15214,45.0,6,2,15.0,60.0
15215,76.0,1,15,7.0,93.0
15216,64.0,0,15,4.0,100.0
15217,67.0,1,15,8.0,83.0
15218,64.0,0,15,8.0,82.0
15219,73.0,1,15,8.0,82.0
15220,64.0,1,15,12.0,115.0
15221,52.0,1,15,13.0,115.0
15222,86.0,0,15,7.0,91.0
15223,81.0,0,15,7.0,91.0
15224,78.0,2,15,7.0,90.0
15225,66.0,3,15,8.0,84.0
15226,45.0,3,10,15.0,60.0
15227,69.0,0,15,8.0,85.0
15228,74.0,2,15,8.0,82.0
15229,45.0,0,10,15.0,62.0
15230,76.0,5,15,7.0,92.0
15231,79.0,3,15,7.0,90.0
15232,85.0,0,15,7.0,92.0
15233,69.0,0,15,4.0,100.0
15234,73.0,2,15,8.0,85.0
15235,64.0,1,15,8.0,85.0
15236,67.0,1,15,8.0,82.0
15237,69.0,1,15,12.0,115.0
15238,57.0,1,15,13.0,115.0
15239,45.0,1,10,15.0,62.0
15240,69.0,2,55,6.0,127.0
15241,76.0,0,55,6.0,127.0
15242,81.0,6,15,7.0,93.0
15243,78.0,1,15,7.0,94.0
15244,86.0,0,15,7.0,93.0
15245,66.0,4,15,8.0,83.0
15246,69.0,0,15,8.0,86.0
15247,74.0,0,15,8.0,83.0
15248,45.0,1,0,15.0,62.0
15249,85.0,3,15,7.0,95.0
15250,45.0,1,0,15.0,64.0
15251,79.0,2,15,7.0,95.0
15252,76.0,0,15,7.0,94.0
15253,57.0,1,15,4.0,100.0
15254,67.0,1,15,8.0,86.0
15255,73.0,0,15,8.0,87.0
15256,64.0,0,15,8.0,85.0
15257,57.0,1,15,12.0,115.0
15258,45.0,1,15,13.0,115.0
15259,86.0,1,15,7.0,94.0
15260,78.0,1,15,7.0,92.0
15261,81.0,1,15,7.0,92.0
15262,69.0,1,15,8.0,86.0
15263,66.0,0,15,8.0,87.0
15264,74.0,1,15,8.0,85.0
15265,45.0,1,2,15.0,64.0
15266,85.0,4,15,7.0,96.0
15267,76.0,0,15,7.0,95.0
15268,79.0,2,15,7.0,95.0
15269,67.0,1,15,8.0,85.0
15270,64.0,0,15,4.0,100.0
15271,64.0,1,15,8.0,85.0
15272,73.0,1,15,8.0,85.0
15273,64.0,1,15,12.0,115.0
15274,52.0,1,15,13.0,115.0
15275,45.0,1,10,15.0,64.0
15276,76.0,2,55,6.0,127.0
15277,69.0,0,55,6.0,127.0
15278,81.0,0,15,7.0,94.0
15279,78.0,6,15,7.0,96.0
15280,86.0,2,15,7.0,94.0
15281,74.0,2,15,8.0,88.0
15282,45.0,4,10,15.0,66.0
15283,69.0,2,15,8.0,88.0
15284,66.0,0,15,8.0,87.0
15285,33.0,5,60,14.0,77.0
15286,85.0,4,15,7.0,98.0
15287,76.0,0,15,7.0,98.0
15288,45.0,1,1,15.0,66.0
15289,79.0,3,15,7.0,96.0
15290,73.0,1,15,8.0,87.0
15291,64.0,0,15,4.0,100.0
15292,64.0,1,15,8.0,88.0
15293,67.0,2,15,8.0,87.0
15294,64.0,1,15,12.0,115.0
15295,52.0,1,15,13.0,115.0
15296,45.0,3,1,15.0,67.0
15297,81.0,6,15,7.0,96.0
15298,78.0,0,15,7.0,98.0
15299,86.0,2,15,7.0,98.0
15300,69.0,1,15,8.0,90.0
15301,74.0,1,15,8.0,88.0
15302,45.0,0,0,15.0,69.0
15303,66.0,2,15,8.0,87.0
15304,79.0,5,15,7.0,98.0
15305,76.0,0,15,7.0,98.0
15306,85.0,1,15,7.0,99.0
15307,73.0,0,15,8.0,89.0
15308,69.0,4,15,4.0,100.0
15309,64.0,0,15,8.0,90.0
15310,67.0,2,15,8.0,89.0
15311,69.0,1,15,12.0,115.0
15312,57.0,1,15,13.0,115.0
15313,45.0,3,2,15.0,69.0
15314,76.0,0,55,6.0,127.0
15315,69.0,0,55,6.0,127.0
15316,78.0,0,15,7.0,99.0
15317,81.0,6,15,7.0,98.0
15318,57.0,1,480,2.0,113.0
15319,64.0,0,480,2.0,113.0
15320,86.0,1,15,7.0,100.0
15321,69.0,1,15,8.0,92.0
15322,69.0,1,240,1.0,112.0
15323,76.0,0,240,1.0,112.0
15324,74.0,0,15,8.0,91.0
15325,66.0,3,15,8.0,92.0
15326,76.0,5,15,7.0,102.0
15327,45.0,1,10,15.0,72.0
15328,57.0,0,15,10.0,115.0
15329,79.0,0,15,7.0,100.0
15330,57.0,0,15,11.0,115.0
15331,85.0,1,15,7.0,99.0
15332,67.0,0,15,8.0,90.0
15333,73.0,0,15,8.0,91.0
15334,57.0,1,15,4.0,100.0
15335,64.0,0,15,8.0,90.0
15336,57.0,2,15,12.0,115.0
15337,45.0,1,15,13.0,115.0
15338,45.0,1,10,15.0,71.0
15339,33.0,5,15,14.0,115.0
15340,78.0,1,15,7.0,100.0
15341,86.0,1,15,7.0,99.0
15342,81.0,1,15,7.0,100.0
15343,74.0,0,15,8.0,92.0
15344,69.0,3,15,8.0,93.0
15345,66.0,1,15,8.0,92.0
15346,45.0,1,1,15.0,71.0
15347,64.0,0,15,10.0,115.0
15348,76.0,4,15,7.0,99.0
15349,85.0,1,15,7.0,100.0
15350,64.0,1,15,11.0,115.0
15351,79.0,0,15,7.0,100.0
15352,73.0,1,15,8.0,91.0
15353,64.0,1,15,4.0,100.0
15354,64.0,0,15,8.0,93.0
15355,67.0,1,15,8.0,93.0
15356,64.0,1,15,12.0,115.0
15357,52.0,1,15,13.0,115.0
15358,45.0,5,0,15.0,72.0
15359,40.0,5,15,14.0,115.0
15360,57.0,1,55,6.0,127.0
15361,69.0,0,55,6.0,127.0
15362,86.0,1,15,7.0,99.0
15363,81.0,1,15,7.0,98.0
15364,78.0,1,15,7.0,98.0
15365,69.0,2,15,8.0,90.0
15366,66.0,1,15,8.0,90.0
15367,45.0,0,1,15.0,73.0
15368,74.0,1,15,8.0,92.0
15369,85.0,3,15,7.0,99.0
15370,64.0,1,15,10.0,115.0
15371,79.0,0,15,7.0,100.0
15372,76.0,1,15,7.0,99.0
15373,64.0,1,15,11.0,115.0
15374,67.0,0,15,8.0,93.0
15375,64.0,1,15,4.0,100.0
15376,73.0,1,15,8.0,94.0
15377,64.0,0,15,8.0,94.0
15378,64.0,2,15,12.0,115.0
15379,52.0,1,15,13.0,115.0
15380,45.0,3,2,15.0,76.0
15381,40.0,5,15,14.0,115.0
15382,81.0,2,15,7.0,102.0
15383,86.0,0,15,7.0,102.0
15384,78.0,1,15,7.0,102.0
15385,74.0,2,15,8.0,94.0
15386,69.0,1,15,8.0,93.0
15387,66.0,2,15,8.0,94.0
15388,85.0,0,15,7.0,103.0
15389,69.0,6,15,10.0,115.0
15390,45.0,1,1,15.0,76.0
15391,76.0,1,15,7.0,100.0
15392,79.0,0,15,7.0,103.0
15393,69.0,1,15,11.0,115.0
15394,67.0,1,15,8.0,95.0
15395,64.0,0,15,8.0,93.0
15396,73.0,1,15,8.0,92.0
15397,69.0,0,15,4.0,100.0
15398,69.0,1,15,12.0,115.0
15399,57.0,1,15,13.0,115.0
15400,45.0,4,0,15.0,77.0
15401,45.0,5,15,14.0,115.0
15402,57.0,1,55,6.0,127.0
15403,69.0,0,55,6.0,127.0
15404,78.0,1,15,7.0,105.0
15405,86.0,1,15,7.0,104.0
15406,81.0,0,15,7.0,103.0
15407,66.0,2,15,8.0,94.0
15408,69.0,2,15,8.0,94.0
15409,74.0,1,15,8.0,97.0
15410,79.0,4,15,7.0,104.0
15411,69.0,0,15,10.0,115.0
15412,76.0,1,15,7.0,104.0
15413,45.0,0,10,15.0,76.0
15414,57.0,2,15,11.0,115.0
15415,85.0,0,15,7.0,105.0
15416,57.0,1,15,4.0,100.0
15417,73.0,1,15,8.0,98.0
15418,64.0,0,15,8.0,96.0
15419,67.0,1,15,8.0,95.0
15420,57.0,1,15,12.0,115.0
15421,45.0,1,15,13.0,115.0
15422,45.0,5,0,15.0,79.0
15423,33.0,5,15,14.0,115.0
15424,78.0,2,15,7.0,104.0
15425,81.0,0,15,7.0,106.0
15426,86.0,1,15,7.0,104.0
15427,69.0,1,15,8.0,98.0
15428,66.0,2,15,8.0,98.0
15429,74.0,1,15,8.0,97.0
15430,76.0,4,15,10.0,115.0
15431,85.0,0,15,7.0,106.0
15432,79.0,0,15,7.0,106.0
15433,76.0,1,15,7.0,106.0
15434,45.0,1,1,15.0,79.0
15435,64.0,1,15,11.0,115.0
15436,67.0,1,15,8.0,98.0
15437,64.0,0,15,8.0,96.0
15438,64.0,1,15,4.0,100.0
15439,73.0,0,15,8.0,97.0
15440,64.0,1,15,12.0,115.0
15441,52.0,1,15,13.0,115.0
15442,45.0,5,1,15.0,80.0
15443,40.0,5,15,14.0,115.0
15444,69.0,1,55,6.0,127.0
15445,57.0,0,55,6.0,127.0
15446,78.0,1,15,7.0,106.0
15447,86.0,1,15,7.0,105.0
15448,81.0,0,15,7.0,107.0
15449,74.0,2,15,8.0,98.0
15450,69.0,0,15,8.0,98.0
15451,66.0,1,15,8.0,98.0
15452,79.0,0,15,7.0,107.0
15453,45.0,1,10,15.0,81.0
15454,85.0,5,15,7.0,109.0
15455,76.0,0,15,7.0,107.0
15456,76.0,1,15,10.0,115.0
15457,64.0,2,15,11.0,115.0
15458,73.0,1,15,8.0,98.0
15459,64.0,0,15,4.0,100.0
15460,67.0,1,15,8.0,98.0
15461,64.0,1,15,8.0,98.0
15462,64.0,1,15,12.0,115.0
15463,52.0,1,15,13.0,115.0
15464,45.0,3,2,15.0,80.0
15465,40.0,5,15,14.0,115.0
15466,78.0,1,20,7.0,106.0
15467,74.0,2,20,7.0,106.0
15468,83.0,0,20,7.0,106.0
15469,62.0,0,20,8.0,98.0
15470,71.0,3,20,8.0,98.0
15471,66.0,2,20,8.0,98.0
15472,81.0,6,15,10.0,115.0
15473,45.0,2,1,15.0,83.0
15474,69.0,2,15,11.0,115.0
15475,69.0,0,15,4.0,100.0
15476,69.0,1,15,12.0,115.0
15477,76.0,0,20,7.0,106.0
15478,57.0,1,15,13.0,115.0
15479,79.0,1,20,7.0,106.0
15480,85.0,1,20,7.0,107.0
15481,57.0,0,55,6.0,127.0
15482,69.0,0,55,6.0,127.0
15483,45.0,3,15,14.0,115.0
15484,67.0,1,20,8.0,98.0
15485,64.0,0,20,8.0,98.0
15486,73.0,1,240,2.0,113.0
15487,67.0,0,240,2.0,113.0
15488,73.0,1,20,8.0,98.0
15489,85.0,1,240,0.0,113.0
15490,81.0,0,240,0.0,113.0
15491,76.0,0,240,1.0,112.0
15492,79.0,0,240,1.0,112.0
15493,45.0,0,240,4.0,100.0
15494,45.0,11,10,15.0,83.0
15495,45.0,0,960,3.0,114.0
15496,57.0,4,960,3.0,114.0
15497,45.0,2,10,15.0,84.0
15498,74.0,4,30,10.0,115.0
15499,62.0,1,30,11.0,115.0
15500,62.0,1,30,12.0,115.0
15501,50.0,1,30,13.0,115.0
15502,38.0,1,30,14.0,115.0
15503,78.0,0,60,7.0,120.0
15504,86.0,0,60,7.0,120.0
15505,66.0,0,60,2.0,113.0
15506,74.0,0,60,2.0,113.0
15507,86.0,1,60,0.0,113.0
15508,62.0,1,60,6.0,127.0
15509,62.0,0,60,4.0,115.0
15510,50.0,0,60,4.0,115.0
15511,74.0,1,60,8.0,114.0
15512,62.0,0,60,8.0,114.0
15513,69.0,0,60,8.0,114.0
15514,78.0,0,60,1.0,112.0
15515,74.0,0,60,1.0,112.0
15516,66.0,0,60,8.0,114.0
15517,50.0,4,60,3.0,114.0
15518,50.0,1,60,15.0,91.0
15519,50.0,46,15,10.0,115.0
15520,50.0,2,15,11.0,115.0
15521,50.0,5,15,12.0,103.0
15522,50.0,1,15,13.0,103.0
15523,45.0,4,15,3.0,114.0
15524,38.0,1,15,14.0,103.0
15525,45.0,3,15,15.0,93.0
15526,54.0,14,15,10.0,115.0
15527,54.0,2,15,11.0,115.0
15528,54.0,5,15,12.0,103.0
15529,54.0,1,15,13.0,103.0
15530,50.0,4,15,3.0,114.0
15531,42.0,1,15,14.0,103.0
15532,50.0,1,15,15.0,93.0
15533,57.0,16,15,10.0,115.0
15534,57.0,2,15,11.0,115.0
15535,57.0,5,15,12.0,103.0
15536,57.0,1,15,13.0,103.0
15537,52.0,4,15,3.0,114.0
15538,45.0,1,15,14.0,103.0
15539,45.0,1,15,15.0,94.0
15540,62.0,16,15,10.0,115.0
15541,62.0,2,15,11.0,115.0
15542,62.0,5,15,12.0,103.0
15543,62.0,1,15,13.0,103.0
15544,54.0,4,15,3.0,114.0
15545,50.0,1,15,14.0,103.0
15546,50.0,1,15,15.0,94.0
15547,69.0,14,15,7.0,125.0
15548,62.0,2,15,7.0,120.0
15549,57.0,0,15,8.0,120.0
15550,50.0,4,15,8.0,120.0
15551,45.0,12,15,15.0,93.0
15552,74.0,12,15,7.0,125.0
15553,66.0,2,15,7.0,120.0
15554,54.0,0,15,8.0,120.0
15555,62.0,4,15,8.0,120.0
15556,50.0,12,15,15.0,93.0
15557,76.0,12,15,7.0,125.0
15558,69.0,2,15,7.0,120.0
15559,64.0,0,15,8.0,120.0
15560,57.0,4,15,8.0,120.0
15561,45.0,12,15,15.0,93.0
15562,78.0,12,15,7.0,125.0
15563,74.0,2,15,7.0,120.0
15564,62.0,0,15,8.0,120.0
15565,66.0,4,15,8.0,120.0
15566,50.0,10,15,15.0,93.0
15567,81.0,14,15,7.0,125.0
15568,76.0,2,15,7.0,120.0
15569,69.0,4,15,8.0,120.0
15570,64.0,0,15,8.0,120.0
15571,45.0,10,15,15.0,94.0
15572,86.0,14,15,7.0,125.0
15573,78.0,2,15,7.0,120.0
15574,74.0,4,15,8.0,120.0
15575,66.0,0,15,8.0,120.0
15576,50.0,12,15,15.0,94.0
15577,88.0,12,15,7.0,125.0
15578,81.0,2,15,7.0,120.0
15579,69.0,0,15,8.0,120.0
15580,76.0,4,15,8.0,120.0
15581,45.0,12,15,15.0,94.0
15582,90.0,12,15,7.0,125.0
15583,86.0,2,15,7.0,120.0
15584,78.0,0,15,8.0,120.0
15585,74.0,4,15,8.0,120.0
15586,50.0,10,15,15.0,93.0
15587,93.0,14,30,7.0,125.0
15588,88.0,0,30,7.0,120.0
15589,85.0,0,30,7.0,120.0
15590,81.0,0,30,7.0,120.0
15591,64.0,0,30,8.0,120.0
15592,57.0,3,30,8.0,120.0
15593,61.0,0,30,8.0,120.0
15594,69.0,0,30,8.0,120.0
15595,57.0,4,30,13.0,100.0
15596,45.0,1,30,14.0,100.0
15597,64.0,2,45,2.0,113.0
15598,73.0,0,45,2.0,113.0
15599,85.0,1,45,0.0,113.0
15600,76.0,0,45,0.0,113.0
15601,73.0,0,45,1.0,112.0
15602,57.0,0,45,4.0,115.0
15603,69.0,0,45,4.0,115.0
15604,81.0,0,45,1.0,112.0
15605,57.0,0,45,3.0,114.0
15606,45.0,4,45,3.0,114.0
15607,45.0,1,60,15.0,94.0
15608,90.0,44,30,7.0,125.0
15609,86.0,2,30,7.0,120.0
15610,78.0,0,30,7.0,120.0
15611,69.0,0,30,8.0,120.0
15612,74.0,0,30,8.0,120.0
15613,62.0,0,30,8.0,120.0
15614,66.0,0,30,8.0,120.0
15615,62.0,4,30,13.0,100.0
15616,50.0,1,30,14.0,100.0
15617,50.0,2,30,15.0,93.0
15618,74.0,0,45,2.0,113.0
15619,66.0,0,45,2.0,113.0
15620,78.0,0,45,0.0,113.0
15621,86.0,1,45,0.0,113.0
15622,66.0,0,45,4.0,115.0
15623,62.0,0,45,4.0,115.0
15624,74.0,3,45,1.0,112.0
15625,78.0,0,45,1.0,112.0
15626,50.0,4,45,3.0,114.0
15627,50.0,45,15,10.0,115.0
15628,50.0,2,15,11.0,115.0
15629,50.0,5,15,12.0,103.0
15630,50.0,1,15,13.0,103.0
15631,45.0,4,15,3.0,114.0
15632,38.0,1,15,14.0,103.0
15633,45.0,3,15,15.0,94.0
15634,54.0,14,15,10.0,115.0
15635,54.0,2,15,11.0,115.0
15636,54.0,5,15,12.0,103.0
15637,54.0,1,15,13.0,103.0
15638,50.0,4,15,3.0,114.0
15639,42.0,1,15,14.0,103.0
15640,50.0,2,15,15.0,94.0
15641,57.0,15,15,10.0,115.0
15642,57.0,2,15,11.0,115.0
15643,57.0,5,15,12.0,103.0
15644,57.0,1,15,13.0,103.0
15645,52.0,4,15,3.0,114.0
15646,45.0,1,15,14.0,103.0
15647,45.0,2,15,15.0,94.0
15648,62.0,15,15,10.0,115.0
15649,62.0,2,15,11.0,115.0
15650,62.0,5,15,12.0,103.0
15651,62.0,1,15,13.0,103.0
15652,54.0,4,15,3.0,114.0
15653,50.0,1,15,14.0,103.0
15654,50.0,3,15,15.0,94.0
15655,69.0,12,15,7.0,125.0
15656,62.0,2,15,7.0,120.0
15657,57.0,4,15,8.0,120.0
15658,50.0,0,15,8.0,120.0
15659,45.0,12,15,15.0,94.0
15660,74.0,12,15,7.0,125.0
15661,66.0,2,15,7.0,120.0
15662,54.0,0,15,8.0,120.0
15663,62.0,4,15,8.0,120.0
15664,50.0,10,15,15.0,94.0
15665,76.0,14,15,7.0,125.0
15666,69.0,2,15,7.0,120.0
15667,57.0,4,15,8.0,120.0
15668,64.0,0,15,8.0,120.0
15669,45.0,10,15,15.0,93.0
15670,78.0,14,15,7.0,125.0
15671,74.0,2,15,7.0,120.0
15672,66.0,0,15,8.0,120.0
15673,62.0,4,15,8.0,120.0
15674,50.0,12,15,15.0,94.0
15675,81.0,12,15,7.0,125.0
15676,76.0,2,15,7.0,120.0
15677,64.0,0,15,8.0,120.0
15678,69.0,4,15,8.0,120.0
15679,45.0,12,15,15.0,93.0
15680,86.0,12,15,7.0,125.0
15681,78.0,2,15,7.0,120.0
15682,74.0,0,15,8.0,120.0
15683,66.0,4,15,8.0,120.0
15684,50.0,11,15,15.0,94.0
15685,88.0,13,15,7.0,125.0
15686,81.0,2,15,7.0,120.0
15687,76.0,0,15,8.0,120.0
15688,69.0,4,15,8.0,120.0
15689,45.0,12,15,15.0,94.0
15690,90.0,12,15,7.0,125.0
15691,86.0,2,15,7.0,120.0
15692,74.0,4,15,8.0,120.0
15693,78.0,0,15,8.0,120.0
15694,50.0,10,15,15.0,94.0
15695,93.0,14,30,7.0,125.0
15696,88.0,0,30,7.0,120.0
15697,85.0,0,30,7.0,120.0
15698,81.0,2,30,7.0,120.0
15699,69.0,0,30,8.0,120.0
15700,64.0,0,30,8.0,120.0
15701,61.0,0,30,8.0,120.0
15702,57.0,0,30,8.0,120.0
15703,73.0,0,45,2.0,113.0
15704,45.0,2,30,15.0,94.0
15705,64.0,0,45,2.0,113.0
15706,76.0,0,45,0.0,113.0
15707,85.0,1,45,0.0,113.0
15708,73.0,0,45,1.0,112.0
15709,81.0,0,45,1.0,112.0
15710,57.0,0,45,4.0,115.0
15711,69.0,3,45,4.0,115.0
15712,45.0,4,42,13.0,100.0
15713,33.0,1,42,14.0,100.0
15714,57.0,4,45,3.0,114.0
15715,45.0,0,45,3.0,114.0
15716,90.0,43,30,7.0,125.0
15717,78.0,0,30,7.0,120.0
15718,86.0,2,30,7.0,120.0
15719,66.0,0,30,8.0,120.0
15720,69.0,0,30,8.0,120.0
15721,74.0,0,30,8.0,120.0
15722,62.0,0,30,8.0,120.0
15723,66.0,0,45,2.0,113.0
15724,74.0,0,45,2.0,113.0
15725,50.0,3,30,15.0,94.0
15726,86.0,1,45,0.0,113.0
15727,78.0,0,45,0.0,113.0
15728,78.0,0,45,1.0,112.0
15729,74.0,0,45,1.0,112.0
15730,62.0,3,45,4.0,115.0
15731,66.0,0,45,4.0,115.0
15732,50.0,4,42,13.0,100.0
15733,38.0,1,42,14.0,100.0
15734,62.0,4,45,3.0,114.0
15735,50.0,0,45,3.0,114.0
15736,57.0,0,25,12.0,100.0
15737,69.0,3,25,12.0,100.0
15738,81.0,0,37,10.0,100.0
15739,69.0,0,37,10.0,100.0
15740,73.0,1,37,11.0,100.0
15741,64.0,0,37,11.0,100.0
15742,45.0,1,30,15.0,94.0
15743,73.0,0,45,2.0,113.0
15744,69.0,44,45,2.0,113.0
15745,81.0,1,45,0.0,113.0
15746,57.0,2,45,4.0,115.0
15747,64.0,0,45,1.0,112.0
15748,73.0,0,45,1.0,112.0
15749,57.0,1,42,13.0,100.0
15750,45.0,1,42,14.0,100.0
15751,45.0,0,45,3.0,114.0
15752,57.0,4,45,3.0,114.0
15753,57.0,23,25,12.0,100.0
15754,69.0,0,25,12.0,100.0
15755,57.0,0,25,12.0,100.0
15756,69.0,1,25,12.0,100.0
15757,69.0,23,37,10.0,100.0
15758,78.0,0,37,10.0,100.0
15759,74.0,1,37,11.0,100.0
15760,66.0,0,37,11.0,100.0
15761,50.0,2,30,15.0,93.0
15762,74.0,0,45,2.0,113.0
15763,69.0,0,45,2.0,113.0
15764,78.0,1,45,0.0,113.0
15765,66.0,0,45,1.0,112.0
15766,74.0,2,45,1.0,112.0
15767,62.0,0,45,4.0,115.0
15768,50.0,0,45,4.0,115.0
15769,62.0,1,42,13.0,100.0
15770,50.0,2,45,5.0,115.0
15771,50.0,1,42,14.0,100.0
15772,57.0,0,45,3.0,114.0
15773,50.0,4,45,3.0,114.0
15774,69.0,22,25,12.0,100.0
15775,57.0,0,25,12.0,100.0
15776,69.0,3,25,12.0,100.0
15777,57.0,0,25,12.0,100.0
15778,69.0,23,37,10.0,100.0
15779,81.0,0,37,10.0,100.0
15780,64.0,1,37,11.0,100.0
15781,73.0,0,37,11.0,100.0
15782,45.0,1,30,15.0,94.0
15783,69.0,0,45,2.0,113.0
15784,73.0,0,45,2.0,113.0
15785,81.0,1,45,0.0,113.0
15786,64.0,2,45,1.0,112.0
15787,57.0,0,45,4.0,115.0
15788,73.0,0,45,1.0,112.0
15789,57.0,1,42,13.0,100.0
15790,45.0,1,42,14.0,100.0
15791,45.0,4,45,3.0,114.0
15792,57.0,0,45,3.0,114.0
15793,69.0,23,25,12.0,100.0
15794,57.0,0,25,12.0,100.0
15795,69.0,0,25,12.0,100.0
15796,57.0,1,25,12.0,100.0
15797,78.0,0,37,10.0,100.0
15798,69.0,0,37,10.0,100.0
15799,74.0,0,37,11.0,100.0
15800,66.0,1,37,11.0,100.0
15801,50.0,1,30,15.0,94.0
15802,69.0,23,45,2.0,113.0
15803,74.0,0,45,2.0,113.0
15804,78.0,1,45,0.0,113.0
15805,62.0,0,45,4.0,115.0
15806,66.0,0,45,1.0,112.0
15807,74.0,0,45,1.0,112.0
15808,50.0,2,45,4.0,115.0
15809,62.0,1,42,13.0,100.0
15810,50.0,2,45,5.0,115.0
15811,50.0,1,42,14.0,100.0
15812,50.0,4,45,3.0,114.0
15813,57.0,0,45,3.0,114.0
15814,57.0,23,25,12.0,100.0
15815,69.0,0,25,12.0,100.0
15816,57.0,0,25,12.0,100.0
15817,69.0,3,25,12.0,100.0
15818,81.0,0,37,10.0,100.0
15819,69.0,23,37,10.0,100.0
15820,73.0,0,37,11.0,100.0
15821,64.0,1,37,11.0,100.0
15822,45.0,2,30,15.0,93.0
15823,73.0,0,45,2.0,113.0
15824,69.0,0,45,2.0,113.0
15825,81.0,1,45,0.0,113.0
15826,57.0,0,45,4.0,115.0
15827,64.0,1,45,1.0,112.0
15828,73.0,0,45,1.0,112.0
15829,57.0,1,42,13.0,100.0
15830,45.0,1,42,14.0,100.0
15831,57.0,0,45,3.0,114.0
15832,45.0,4,45,3.0,114.0
15833,69.0,0,25,12.0,100.0
15834,57.0,22,25,12.0,100.0
15835,69.0,1,60,6.0,127.0
15836,57.0,1,25,12.0,100.0
15837,69.0,0,25,12.0,100.0
15838,69.0,0,37,10.0,100.0
15839,86.0,23,37,10.0,100.0
15840,66.0,1,37,11.0,100.0
15841,74.0,0,37,11.0,100.0
15842,74.0,0,45,2.0,113.0
15843,69.0,0,45,2.0,113.0
15844,86.0,1,45,0.0,113.0
15845,50.0,3,30,15.0,94.0
15846,50.0,1,45,4.0,115.0
15847,62.0,0,45,4.0,115.0
15848,74.0,0,45,1.0,112.0
15849,66.0,0,45,1.0,112.0
15850,62.0,1,42,13.0,100.0
15851,50.0,2,45,5.0,115.0
15852,50.0,1,42,14.0,100.0
15853,57.0,0,45,3.0,114.0
15854,50.0,4,45,3.0,114.0
15855,57.0,0,25,12.0,100.0
15856,69.0,21,25,12.0,100.0
15857,66.0,0,60,6.0,127.0
15858,74.0,1,60,6.0,127.0
15859,69.0,3,25,12.0,100.0
15860,57.0,0,25,12.0,100.0
15861,88.0,0,37,10.0,100.0
15862,69.0,0,37,10.0,100.0
15863,73.0,1,37,11.0,100.0
15864,76.0,0,37,11.0,100.0
15865,45.0,1,30,15.0,93.0
15866,73.0,23,45,2.0,113.0
15867,69.0,0,45,2.0,113.0
15868,88.0,1,45,0.0,113.0
15869,57.0,1,45,4.0,115.0
15870,73.0,0,45,1.0,112.0
15871,76.0,0,45,1.0,112.0
15872,64.0,0,45,4.0,115.0
15873,57.0,1,42,13.0,100.0
15874,45.0,1,42,14.0,100.0
15875,57.0,4,45,3.0,114.0
15876,45.0,0,45,3.0,114.0
15877,69.0,0,25,12.0,100.0
15878,57.0,23,25,12.0,100.0
15879,76.0,1,60,6.0,127.0
15880,69.0,0,60,6.0,127.0
15881,69.0,0,45,2.0,113.0
15882,74.0,0,45,2.0,113.0
15883,90.0,1,45,0.0,113.0
15884,74.0,1,45,1.0,112.0
15885,78.0,0,45,1.0,112.0
15886,62.0,0,45,4.0,115.0
15887,66.0,0,45,4.0,115.0
15888,50.0,2,45,5.0,115.0
15889,50.0,4,45,3.0,114.0
15890,57.0,0,45,3.0,114.0
15891,69.0,0,60,10.0,100.0
15892,90.0,23,60,10.0,100.0
15893,78.0,0,60,11.0,100.0
15894,74.0,1,60,11.0,100.0
15895,78.0,0,60,6.0,127.0
15896,74.0,1,60,6.0,127.0
15897,57.0,0,60,12.0,100.0
15898,69.0,1,60,12.0,100.0
15899,50.0,1,60,13.0,100.0
15900,38.0,1,60,14.0,100.0
15901,50.0,3,60,15.0,93.0
15902,73.0,104,45,2.0,113.0
15903,69.0,0,45,2.0,113.0
15904,93.0,1,45,0.0,113.0
15905,81.0,1,45,1.0,112.0
15906,64.0,0,45,4.0,115.0
15907,57.0,0,45,4.0,115.0
15908,73.0,0,45,1.0,112.0
15909,57.0,4,45,3.0,114.0
15910,45.0,0,45,3.0,114.0
15911,69.0,0,60,10.0,100.0
15912,93.0,0,60,10.0,100.0
15913,81.0,1,60,11.0,100.0
15914,73.0,0,60,11.0,100.0
15915,69.0,1,60,6.0,127.0
15916,81.0,0,60,6.0,127.0
15917,57.0,0,60,12.0,100.0
15918,64.0,0,60,12.0,100.0
15919,69.0,3,60,12.0,100.0
15920,45.0,1,60,13.0,100.0
15921,33.0,1,60,14.0,100.0
15922,45.0,2,60,15.0,105.0
15923,74.0,0,45,2.0,113.0
15924,69.0,0,45,2.0,113.0
15925,90.0,1,45,0.0,113.0
15926,74.0,1,45,1.0,112.0
15927,78.0,0,45,1.0,112.0
15928,62.0,0,45,4.0,115.0
15929,66.0,0,45,4.0,115.0
15930,50.0,2,45,5.0,115.0
15931,57.0,0,45,3.0,114.0
15932,50.0,4,45,3.0,114.0
15933,69.0,0,60,10.0,100.0
15934,90.0,105,60,10.0,100.0
15935,74.0,1,60,11.0,100.0
15936,78.0,0,60,11.0,100.0
15937,74.0,1,60,6.0,127.0
15938,78.0,0,60,6.0,127.0
15939,69.0,1,60,12.0,100.0
15940,62.0,0,60,12.0,100.0
15941,50.0,1,60,13.0,100.0
15942,38.0,1,60,14.0,100.0
15943,50.0,3,60,15.0,103.0
15944,69.0,0,45,2.0,113.0
15945,73.0,104,45,2.0,113.0
15946,93.0,1,45,0.0,113.0
15947,57.0,0,45,4.0,115.0
15948,64.0,0,45,4.0,115.0
15949,81.0,0,45,1.0,112.0
15950,73.0,1,45,1.0,112.0
15951,45.0,0,45,3.0,114.0
15952,57.0,4,45,3.0,114.0
15953,93.0,0,60,10.0,100.0
15954,69.0,0,60,10.0,100.0
15955,73.0,0,60,11.0,100.0
15956,81.0,1,60,11.0,100.0
15957,81.0,0,60,6.0,127.0
15958,69.0,1,60,6.0,127.0
15959,64.0,0,60,12.0,100.0
15960,69.0,0,60,12.0,100.0
15961,57.0,3,60,12.0,100.0
15962,45.0,1,60,13.0,100.0
15963,33.0,1,60,14.0,100.0
15964,45.0,2,60,15.0,105.0
15965,50.0,1,5,15.0,83.0
15966,50.0,2,5,15.0,106.0
15967,50.0,2,5,15.0,107.0
15968,50.0,4,1,15.0,107.0
15969,50.0,4,1,15.0,107.0
15970,50.0,4,1,15.0,104.0
15971,50.0,5,0,15.0,104.0
15972,50.0,4,1,15.0,104.0
15973,50.0,5,5,15.0,105.0
15974,50.0,6,5,15.0,106.0
15975,50.0,4,1,15.0,106.0
15976,50.0,5,5,15.0,105.0
15977,50.0,5,5,15.0,106.0
15978,50.0,5,0,15.0,105.0
15979,50.0,5,0,15.0,106.0
15980,50.0,5,5,15.0,107.0
15981,50.0,4,1,15.0,104.0
15982,50.0,6,5,15.0,104.0
15983,50.0,5,0,15.0,107.0
15984,50.0,4,1,15.0,105.0
15985,50.0,4,1,15.0,104.0
15986,50.0,4,1,15.0,107.0
15987,50.0,5,0,15.0,105.0
15988,50.0,6,5,15.0,106.0
15989,50.0,4,1,15.0,104.0
15990,50.0,4,1,15.0,101.0
15991,50.0,5,0,15.0,86.0
15992,50.0,5,0,15.0,81.0
15993,50.0,5,0,15.0,74.0
15994,50.0,4,1,15.0,69.0
15995,50.0,5,0,15.0,66.0
15996,69.0,0,240,2.0,113.0
15997,86.0,0,240,10.0,100.0
15998,74.0,105,240,2.0,113.0
15999,74.0,0,240,10.0,100.0
16000,86.0,1,240,0.0,113.0
16001,50.0,6,5,15.0,60.0
16002,74.0,0,240,11.0,100.0
16003,78.0,1,240,11.0,100.0
16004,74.0,0,240,6.0,127.0
16005,66.0,1,240,6.0,127.0
16006,74.0,0,240,1.0,112.0
16007,62.0,0,240,4.0,115.0
16008,50.0,1,240,4.0,115.0
16009,78.0,0,240,1.0,112.0
16010,62.0,0,240,5.0,115.0
16011,50.0,1,240,5.0,115.0
16012,62.0,0,240,12.0,100.0
16013,69.0,1,240,12.0,100.0
16014,50.0,1,240,13.0,100.0
16015,50.0,2,240,3.0,114.0
16016,38.0,0,240,3.0,114.0
16017,38.0,1,240,14.0,100.0
