,note,step,duration,channel,velocity
0,71.0,232,500,0.0,0.0
1,66.0,196,252,0.0,0.0
2,74.0,524,208,0.0,0.0
3,59.0,236,496,1.0,0.0
4,74.0,4,492,0.0,0.0
5,68.0,4,924,0.0,0.0
6,53.0,428,952,1.0,0.0
7,61.0,192,252,1.0,0.0
8,73.0,0,252,0.0,0.0
9,71.0,24,208,0.0,0.0
10,62.0,0,208,1.0,0.0
11,54.0,4,712,1.0,0.0
12,62.0,206,464,1.0,0.0
13,71.0,44,420,0.0,0.0
14,66.0,0,420,0.0,0.0
15,61.0,196,236,1.0,0.0
16,70.0,42,190,0.0,0.0
17,76.0,0,52,0.0,0.0
18,67.0,4,228,1.0,0.0
19,73.0,28,192,0.0,0.0
20,64.0,8,220,1.0,0.0
21,70.0,140,52,0.0,0.0
22,73.0,80,132,0.0,0.0
23,62.0,152,220,1.0,0.0
24,66.0,4,216,1.0,0.0
25,71.0,4,92,0.0,0.0
26,74.0,81,132,0.0,0.0
27,66.0,150,224,1.0,0.0
28,58.0,4,220,1.0,0.0
29,73.0,7,93,0.0,0.0
30,59.0,3,208,1.0,0.0
31,76.0,74,134,0.0,0.0
32,66.0,0,208,1.0,0.0
33,74.0,373,91,0.0,0.0
34,62.0,120,104,1.0,0.0
35,66.0,0,104,1.0,0.0
36,62.0,120,104,1.0,0.0
37,66.0,0,104,1.0,0.0
38,62.0,120,104,1.0,0.0
39,71.0,1,501,0.0,0.0
40,83.0,82,502,0.0,0.0
41,66.0,0,104,1.0,0.0
42,66.0,120,104,1.0,0.0
43,62.0,0,104,1.0,0.0
44,61.0,0,104,1.0,0.0
45,64.0,120,104,1.0,0.0
46,61.0,37,104,1.0,0.0
47,64.0,0,104,1.0,0.0
48,61.0,0,104,1.0,0.0
49,82.0,100,244,0.0,0.0
50,70.0,4,240,0.0,0.0
51,64.0,120,104,1.0,0.0
52,61.0,16,104,1.0,0.0
53,64.0,0,104,1.0,0.0
54,62.0,0,104,1.0,0.0
55,59.0,120,104,1.0,0.0
56,62.0,120,104,1.0,0.0
57,59.0,0,104,1.0,0.0
58,62.0,88,104,1.0,0.0
59,59.0,0,104,1.0,0.0
60,79.0,32,192,0.0,0.0
61,62.0,25,104,1.0,0.0
62,59.0,0,104,1.0,0.0
63,81.0,95,69,0.0,0.0
64,61.0,0,104,1.0,0.0
65,79.0,88,256,0.0,0.0
66,58.0,120,104,1.0,0.0
67,58.0,32,104,1.0,0.0
68,61.0,0,104,1.0,0.0
69,78.0,104,240,0.0,0.0
70,58.0,120,104,1.0,0.0
71,61.0,0,104,1.0,0.0
72,58.0,16,104,1.0,0.0
73,61.0,0,104,1.0,0.0
74,62.0,0,104,1.0,0.0
75,59.0,120,104,1.0,0.0
76,59.0,120,104,1.0,0.0
77,62.0,0,104,1.0,0.0
78,67.0,83,501,0.0,0.0
79,59.0,120,104,1.0,0.0
80,62.0,0,104,1.0,0.0
81,79.0,0,501,0.0,0.0
82,59.0,0,104,1.0,0.0
83,62.0,120,104,1.0,0.0
84,57.0,0,104,1.0,0.0
85,61.0,120,104,1.0,0.0
86,61.0,37,104,1.0,0.0
87,57.0,0,104,1.0,0.0
88,57.0,120,104,1.0,0.0
89,61.0,0,104,1.0,0.0
90,66.0,0,240,0.0,0.0
91,78.0,104,240,0.0,0.0
92,57.0,16,104,1.0,0.0
93,61.0,0,104,1.0,0.0
94,55.0,120,104,1.0,0.0
95,59.0,0,104,1.0,0.0
96,59.0,0,104,1.0,0.0
97,55.0,120,104,1.0,0.0
98,55.0,88,104,1.0,0.0
99,59.0,0,104,1.0,0.0
100,76.0,32,192,0.0,0.0
101,55.0,28,104,1.0,0.0
102,59.0,0,104,1.0,0.0
103,78.0,120,72,0.0,0.0
104,54.0,8,456,1.0,0.0
105,76.0,115,256,0.0,0.0
106,57.0,120,132,1.0,0.0
107,59.0,4,132,1.0,0.0
108,60.0,77,131,1.0,0.0
109,75.0,8,208,0.0,0.0
110,59.0,147,104,1.0,0.0
111,76.0,122,131,0.0,0.0
112,59.0,148,468,1.0,0.0
113,55.0,0,468,1.0,0.0
114,83.0,58,133,0.0,0.0
115,81.0,60,71,0.0,0.0
116,79.0,61,71,0.0,0.0
117,78.0,28,72,0.0,0.0
118,76.0,8,40,0.0,0.0
119,76.0,0,256,0.0,0.0
120,57.0,120,136,1.0,0.0
121,54.0,8,456,1.0,0.0
122,59.0,120,136,1.0,0.0
123,60.0,72,136,1.0,0.0
124,75.0,8,208,0.0,0.0
125,59.0,148,104,1.0,0.0
126,55.0,16,452,1.0,0.0
127,59.0,0,452,1.0,0.0
128,76.0,120,132,0.0,0.0
129,83.0,57,132,0.0,0.0
130,84.0,62,69,0.0,0.0
131,83.0,60,71,0.0,0.0
132,81.0,21,71,0.0,0.0
133,79.0,144,48,0.0,0.0
134,59.0,116,132,1.0,0.0
135,56.0,28,420,1.0,0.0
136,78.0,120,252,0.0,0.0
137,61.0,4,128,1.0,0.0
138,77.0,16,208,0.0,0.0
139,62.0,48,132,1.0,0.0
140,61.0,199,104,1.0,0.0
141,58.0,32,464,1.0,0.0
142,61.0,24,208,1.0,0.0
143,78.0,25,183,0.0,0.0
144,73.0,232,52,0.0,0.0
145,76.0,0,496,0.0,0.0
146,67.0,236,256,1.0,0.0
147,73.0,192,496,0.0,0.0
148,66.0,4,252,1.0,0.0
149,59.0,0,448,1.0,0.0
150,74.0,403,208,0.0,0.0
151,71.0,0,208,0.0,0.0
152,65.0,0,208,1.0,0.0
153,66.0,11,480,1.0,0.0
154,54.0,0,480,1.0,0.0
155,74.0,57,374,0.0,0.0
156,78.0,3,371,0.0,0.0
157,73.0,48,72,0.0,0.0
158,76.0,1,71,0.0,0.0
159,74.0,168,72,0.0,0.0
160,71.0,1,71,0.0,0.0
161,70.0,0,180,0.0,0.0
162,73.0,796,180,0.0,0.0
163,47.0,236,496,1.0,0.0
164,42.0,196,252,1.0,0.0
165,50.0,524,208,1.0,0.0
166,77.0,236,496,0.0,0.0
167,50.0,4,492,1.0,0.0
168,68.0,4,924,0.0,0.0
169,49.0,4,252,1.0,0.0
170,76.0,188,256,0.0,0.0
171,47.0,0,208,1.0,0.0
172,74.0,164,208,0.0,0.0
173,74.0,76,132,0.0,0.0
174,68.0,0,132,0.0,0.0
175,45.0,16,208,1.0,0.0
176,73.0,224,104,0.0,0.0
177,69.0,0,104,0.0,0.0
178,45.0,16,208,1.0,0.0
179,71.0,0,104,0.0,0.0
180,67.0,224,104,0.0,0.0
181,47.0,16,208,1.0,0.0
182,66.0,0,104,0.0,0.0
183,69.0,224,104,0.0,0.0
184,49.0,16,208,1.0,0.0
185,67.0,0,104,0.0,0.0
186,64.0,92,104,0.0,0.0
187,50.0,44,208,1.0,0.0
188,66.0,0,76,0.0,0.0
189,69.0,60,76,0.0,0.0
190,64.0,48,76,0.0,0.0
191,67.0,0,76,0.0,0.0
192,62.0,12,76,0.0,0.0
193,66.0,12,64,0.0,0.0
194,67.0,4,72,0.0,0.0
195,64.0,88,76,0.0,0.0
196,62.0,0,104,0.0,0.0
197,66.0,152,104,0.0,0.0
198,62.0,116,136,1.0,0.0
199,61.0,120,132,1.0,0.0
200,62.0,120,132,1.0,0.0
201,57.0,92,132,1.0,0.0
202,54.0,120,104,1.0,0.0
203,58.0,120,104,1.0,0.0
204,55.0,0,104,1.0,0.0
205,58.0,120,104,1.0,0.0
206,55.0,0,104,1.0,0.0
207,61.0,88,496,0.0,0.0
208,73.0,4,492,0.0,0.0
209,58.0,120,104,1.0,0.0
210,55.0,0,104,1.0,0.0
211,58.0,120,104,1.0,0.0
212,55.0,0,104,1.0,0.0
213,57.0,120,104,1.0,0.0
214,54.0,0,104,1.0,0.0
215,57.0,28,104,1.0,0.0
216,54.0,0,104,1.0,0.0
217,62.0,16,208,0.0,0.0
218,54.0,0,104,1.0,0.0
219,57.0,104,104,1.0,0.0
220,74.0,0,208,0.0,0.0
221,57.0,120,104,1.0,0.0
222,54.0,0,104,1.0,0.0
223,55.0,120,104,1.0,0.0
224,64.0,0,104,1.0,0.0
225,55.0,0,104,1.0,0.0
226,64.0,120,104,1.0,0.0
227,85.0,4,460,0.0,0.0
228,55.0,120,104,1.0,0.0
229,64.0,0,104,1.0,0.0
230,73.0,0,464,0.0,0.0
231,55.0,120,104,1.0,0.0
232,64.0,0,104,1.0,0.0
233,56.0,116,104,1.0,0.0
234,65.0,0,104,1.0,0.0
235,56.0,120,104,1.0,0.0
236,65.0,0,104,1.0,0.0
237,65.0,32,104,1.0,0.0
238,74.0,16,240,0.0,0.0
239,56.0,0,104,1.0,0.0
240,86.0,88,136,0.0,0.0
241,62.0,0,104,1.0,0.0
242,83.0,88,136,0.0,0.0
243,56.0,16,104,1.0,0.0
244,57.0,0,104,1.0,0.0
245,61.0,120,104,1.0,0.0
246,81.0,88,256,0.0,0.0
247,57.0,32,104,1.0,0.0
248,61.0,0,104,1.0,0.0
249,80.0,16,208,0.0,0.0
250,59.0,104,104,1.0,0.0
251,62.0,0,104,1.0,0.0
252,62.0,120,104,1.0,0.0
253,59.0,0,104,1.0,0.0
254,61.0,120,104,1.0,0.0
255,64.0,0,104,1.0,0.0
256,79.0,57,256,0.0,0.0
257,64.0,0,104,1.0,0.0
258,61.0,32,104,1.0,0.0
259,78.0,31,73,0.0,0.0
260,69.0,26,104,1.0,0.0
261,62.0,0,104,1.0,0.0
262,79.0,62,70,0.0,0.0
263,66.0,4,104,1.0,0.0
264,62.0,0,104,1.0,0.0
265,80.0,32,72,0.0,0.0
266,81.0,324,48,0.0,0.0
267,81.0,48,372,0.0,0.0
268,57.0,36,420,1.0,0.0
269,66.0,60,312,1.0,0.0
270,78.0,8,96,0.0,0.0
271,62.0,206,104,1.0,0.0
272,76.0,18,190,0.0,0.0
273,57.0,0,208,1.0,0.0
274,61.0,376,208,1.0,0.0
275,66.0,0,104,0.0,0.0
276,69.0,120,104,0.0,0.0
277,38.0,26,436,1.0,0.0
278,69.0,120,104,0.0,0.0
279,66.0,0,104,0.0,0.0
280,69.0,92,104,0.0,0.0
281,66.0,0,104,0.0,0.0
282,69.0,0,104,0.0,0.0
283,66.0,32,104,0.0,0.0
284,42.0,2,42,1.0,0.0
285,45.0,88,48,1.0,0.0
286,69.0,0,104,0.0,0.0
287,66.0,120,104,0.0,0.0
288,50.0,106,238,1.0,0.0
289,66.0,14,104,0.0,0.0
290,69.0,0,104,0.0,0.0
291,66.0,120,104,0.0,0.0
292,69.0,0,104,0.0,0.0
293,66.0,120,104,0.0,0.0
294,69.0,0,104,0.0,0.0
295,69.0,0,104,0.0,0.0
296,66.0,120,104,0.0,0.0
297,75.0,88,496,1.0,0.0
298,66.0,0,104,0.0,0.0
299,69.0,120,104,0.0,0.0
300,66.0,120,104,0.0,0.0
301,69.0,0,104,0.0,0.0
302,66.0,32,104,0.0,0.0
303,69.0,0,104,0.0,0.0
304,69.0,0,104,0.0,0.0
305,67.0,120,104,0.0,0.0
306,76.0,105,239,1.0,0.0
307,67.0,15,104,0.0,0.0
308,69.0,0,104,0.0,0.0
309,67.0,120,104,0.0,0.0
310,69.0,0,104,0.0,0.0
311,67.0,120,104,0.0,0.0
312,69.0,0,104,0.0,0.0
313,61.0,0,104,0.0,0.0
314,67.0,0,104,0.0,0.0
315,69.0,120,104,0.0,0.0
316,33.0,18,444,1.0,0.0
317,61.0,120,104,0.0,0.0
318,67.0,0,104,0.0,0.0
319,69.0,0,104,0.0,0.0
320,69.0,100,104,0.0,0.0
321,67.0,0,104,0.0,0.0
322,61.0,0,104,0.0,0.0
323,69.0,0,104,0.0,0.0
324,61.0,27,104,0.0,0.0
325,67.0,0,104,0.0,0.0
326,37.0,2,42,1.0,0.0
327,40.0,93,43,1.0,0.0
328,67.0,0,104,0.0,0.0
329,69.0,0,104,0.0,0.0
330,61.0,120,104,0.0,0.0
331,45.0,102,242,1.0,0.0
332,61.0,18,104,0.0,0.0
333,67.0,0,104,0.0,0.0
334,69.0,0,104,0.0,0.0
335,61.0,120,104,0.0,0.0
336,67.0,0,104,0.0,0.0
337,69.0,0,104,0.0,0.0
338,61.0,0,104,0.0,0.0
339,69.0,0,104,0.0,0.0
340,67.0,120,104,0.0,0.0
341,67.0,0,104,0.0,0.0
342,69.0,120,104,0.0,0.0
343,77.0,92,492,1.0,0.0
344,61.0,0,104,0.0,0.0
345,69.0,0,104,0.0,0.0
346,67.0,120,104,0.0,0.0
347,61.0,0,104,0.0,0.0
348,67.0,0,104,0.0,0.0
349,61.0,120,104,0.0,0.0
350,69.0,0,104,0.0,0.0
351,69.0,0,104,0.0,0.0
352,61.0,0,104,0.0,0.0
353,67.0,28,104,0.0,0.0
354,62.0,0,104,0.0,0.0
355,78.0,105,239,1.0,0.0
356,69.0,120,104,0.0,0.0
357,66.0,0,104,0.0,0.0
358,69.0,0,104,0.0,0.0
359,62.0,15,104,0.0,0.0
360,62.0,120,104,0.0,0.0
361,69.0,0,104,0.0,0.0
362,69.0,0,104,0.0,0.0
363,63.0,29,104,0.0,0.0
364,78.0,91,73,1.0,0.0
365,79.0,16,208,1.0,0.0
366,69.0,0,104,0.0,0.0
367,64.0,104,104,0.0,0.0
368,64.0,0,104,0.0,0.0
369,69.0,120,104,0.0,0.0
370,69.0,120,104,0.0,0.0
371,64.0,0,104,0.0,0.0
372,69.0,28,104,0.0,0.0
373,65.0,0,104,0.0,0.0
374,80.0,92,72,1.0,0.0
375,81.0,16,208,1.0,0.0
376,66.0,104,104,0.0,0.0
377,69.0,0,104,0.0,0.0
378,66.0,120,104,0.0,0.0
379,69.0,0,104,0.0,0.0
380,69.0,120,104,0.0,0.0
381,66.0,0,104,0.0,0.0
382,66.0,28,104,0.0,0.0
383,69.0,0,104,0.0,0.0
384,81.0,92,72,1.0,0.0
385,80.0,0,104,1.0,0.0
386,65.0,0,104,0.0,0.0
387,69.0,120,104,0.0,0.0
388,69.0,29,104,0.0,0.0
389,64.0,0,104,0.0,0.0
390,79.0,91,73,1.0,0.0
391,78.0,0,104,1.0,0.0
392,63.0,0,104,0.0,0.0
393,69.0,120,104,0.0,0.0
394,69.0,29,104,0.0,0.0
395,62.0,0,104,0.0,0.0
396,77.0,91,73,1.0,0.0
397,76.0,16,208,1.0,0.0
398,69.0,104,104,0.0,0.0
399,61.0,0,104,0.0,0.0
400,81.0,120,104,0.0,0.0
401,81.0,120,104,0.0,0.0
402,81.0,28,104,0.0,0.0
403,66.0,0,72,1.0,0.0
404,63.0,92,72,1.0,0.0
405,64.0,0,208,1.0,0.0
406,67.0,16,208,1.0,0.0
407,81.0,104,104,0.0,0.0
408,81.0,120,104,0.0,0.0
409,81.0,120,104,0.0,0.0
410,81.0,28,104,0.0,0.0
411,68.0,92,72,1.0,0.0
412,65.0,0,72,1.0,0.0
413,69.0,16,208,1.0,0.0
414,66.0,0,208,1.0,0.0
415,81.0,104,104,0.0,0.0
416,81.0,120,104,0.0,0.0
417,81.0,120,104,0.0,0.0
418,81.0,27,104,0.0,0.0
419,66.0,92,72,1.0,0.0
420,69.0,1,71,1.0,0.0
421,65.0,0,104,1.0,0.0
422,81.0,0,104,0.0,0.0
423,83.0,0,104,0.0,0.0
424,68.0,120,104,1.0,0.0
425,85.0,28,104,0.0,0.0
426,81.0,0,104,0.0,0.0
427,64.0,92,72,1.0,0.0
428,67.0,0,72,1.0,0.0
429,62.0,0,104,1.0,0.0
430,66.0,120,104,1.0,0.0
431,86.0,0,104,0.0,0.0
432,81.0,0,104,0.0,0.0
433,81.0,0,104,0.0,0.0
434,87.0,27,104,0.0,0.0
435,62.0,196,72,1.0,0.0
436,65.0,1,71,1.0,0.0
437,88.0,0,208,0.0,0.0
438,82.0,0,208,0.0,0.0
439,79.0,480,208,0.0,0.0
440,64.0,0,208,1.0,0.0
441,61.0,0,208,1.0,0.0
442,70.0,0,240,0.0,0.0
443,76.0,0,225,0.0,0.0
444,49.0,0,208,1.0,0.0
445,37.0,2,208,1.0,0.0
446,79.0,238,210,0.0,0.0
447,73.0,0,240,0.0,0.0
448,79.0,238,225,0.0,0.0
449,40.0,0,208,1.0,0.0
450,52.0,2,208,1.0,0.0
451,82.0,0,210,0.0,0.0
452,64.0,374,240,0.0,0.0
453,69.0,0,225,0.0,0.0
454,43.0,2,208,1.0,0.0
455,55.0,0,208,1.0,0.0
456,73.0,0,210,0.0,0.0
457,57.0,120,104,1.0,0.0
458,54.0,8,456,1.0,0.0
459,74.0,88,256,0.0,0.0
460,62.0,32,104,1.0,0.0
461,81.0,92,492,0.0,0.0
462,57.0,112,104,1.0,0.0
463,62.0,120,104,1.0,0.0
464,57.0,120,104,1.0,0.0
465,54.0,0,464,1.0,0.0
466,62.0,28,104,1.0,0.0
467,79.0,92,132,0.0,0.0
468,57.0,28,104,1.0,0.0
469,78.0,0,104,0.0,0.0
470,62.0,120,104,1.0,0.0
471,59.0,120,104,1.0,0.0
472,55.0,8,456,1.0,0.0
473,76.0,88,256,0.0,0.0
474,62.0,32,104,1.0,0.0
475,79.0,88,496,0.0,0.0
476,59.0,112,104,1.0,0.0
477,62.0,120,104,1.0,0.0
478,55.0,116,468,1.0,0.0
479,59.0,120,104,1.0,0.0
480,62.0,32,104,1.0,0.0
481,78.0,92,132,0.0,0.0
482,59.0,28,104,1.0,0.0
483,64.0,4,104,1.0,0.0
484,76.0,0,104,0.0,0.0
485,62.0,120,104,1.0,0.0
486,57.0,12,420,1.0,0.0
487,74.0,48,372,0.0,0.0
488,66.0,120,104,1.0,0.0
489,62.0,28,104,1.0,0.0
490,76.0,32,72,0.0,0.0
491,66.0,28,104,1.0,0.0
492,74.0,60,72,0.0,0.0
493,57.0,12,420,1.0,0.0
494,64.0,28,104,1.0,0.0
495,73.0,32,72,0.0,0.0
496,74.0,60,72,0.0,0.0
497,67.0,28,104,1.0,0.0
498,76.0,32,72,0.0,0.0
499,78.0,60,72,0.0,0.0
500,79.0,32,72,0.0,0.0
501,64.0,28,104,1.0,0.0
502,81.0,48,72,0.0,0.0
503,83.0,32,72,0.0,0.0
504,67.0,8,104,1.0,0.0
505,81.0,112,52,0.0,0.0
506,79.0,44,376,0.0,0.0
507,58.0,12,420,1.0,0.0
508,61.0,120,104,1.0,0.0
509,64.0,120,104,1.0,0.0
510,61.0,32,104,1.0,0.0
511,64.0,28,104,1.0,0.0
512,81.0,32,72,0.0,0.0
513,79.0,92,72,0.0,0.0
514,59.0,44,420,1.0,0.0
515,62.0,104,104,1.0,0.0
516,78.0,16,208,0.0,0.0
517,66.0,120,104,1.0,0.0
518,62.0,76,104,1.0,0.0
519,66.0,120,104,1.0,0.0
520,62.0,0,104,0.0,0.0
521,54.0,68,104,1.0,0.0
522,64.0,52,52,0.0,0.0
523,57.0,8,104,1.0,0.0
524,66.0,60,52,0.0,0.0
525,67.0,52,52,0.0,0.0
526,54.0,8,104,1.0,0.0
527,69.0,60,52,0.0,0.0
528,71.0,52,52,0.0,0.0
529,57.0,8,104,1.0,0.0
530,73.0,60,52,0.0,0.0
531,74.0,52,52,0.0,0.0
532,54.0,8,104,1.0,0.0
533,76.0,60,52,0.0,0.0
534,78.0,52,52,0.0,0.0
535,62.0,8,104,1.0,0.0
536,79.0,60,52,0.0,0.0
537,81.0,52,52,0.0,0.0
538,57.0,8,104,1.0,0.0
539,83.0,60,52,0.0,0.0
540,62.0,8,104,1.0,0.0
541,85.0,52,52,0.0,0.0
542,86.0,60,52,0.0,0.0
543,55.0,8,104,1.0,0.0
544,85.0,52,52,0.0,0.0
545,83.0,60,52,0.0,0.0
546,62.0,8,104,1.0,0.0
547,82.0,52,52,0.0,0.0
548,83.0,60,52,0.0,0.0
549,59.0,8,104,1.0,0.0
550,81.0,52,52,0.0,0.0
551,79.0,60,52,0.0,0.0
552,62.0,8,104,1.0,0.0
553,78.0,52,52,0.0,0.0
554,79.0,60,52,0.0,0.0
555,78.0,52,52,0.0,0.0
556,55.0,8,104,1.0,0.0
557,76.0,60,52,0.0,0.0
558,62.0,8,104,1.0,0.0
559,75.0,52,52,0.0,0.0
560,76.0,60,52,0.0,0.0
561,78.0,52,52,0.0,0.0
562,59.0,8,104,1.0,0.0
563,76.0,60,52,0.0,0.0
564,62.0,8,104,1.0,0.0
565,79.0,52,52,0.0,0.0
566,76.0,203,52,0.0,0.0
567,66.0,316,420,1.0,0.0
568,57.0,44,900,1.0,0.0
569,81.0,37,195,0.0,0.0
570,78.0,188,52,0.0,0.0
571,74.0,120,496,0.0,0.0
572,67.0,0,420,1.0,0.0
573,73.0,436,224,0.0,0.0
574,78.0,44,136,0.0,0.0
575,76.0,0,104,0.0,0.0
576,62.0,244,492,1.0,0.0
577,74.0,72,420,0.0,0.0
578,57.0,192,256,1.0,0.0
579,66.0,136,208,1.0,0.0
580,73.0,90,494,0.0,0.0
581,64.0,104,104,1.0,0.0
582,67.0,16,208,1.0,0.0
583,57.0,120,104,1.0,0.0
584,64.0,104,104,1.0,0.0
585,67.0,16,208,1.0,0.0
586,57.0,30,104,1.0,0.0
587,69.0,88,256,0.0,0.0
588,64.0,104,104,1.0,0.0
589,67.0,16,208,1.0,0.0
590,57.0,32,104,1.0,0.0
591,64.0,104,104,1.0,0.0
592,67.0,16,208,1.0,0.0
593,85.0,0,208,0.0,0.0
594,57.0,36,104,1.0,0.0
595,86.0,112,20,0.0,0.0
596,62.0,0,492,1.0,0.0
597,81.0,60,72,0.0,0.0
598,80.0,60,72,0.0,0.0
599,83.0,60,72,0.0,0.0
600,81.0,60,72,0.0,0.0
601,78.0,60,72,0.0,0.0
602,76.0,60,72,0.0,0.0
603,79.0,60,72,0.0,0.0
604,57.0,36,256,1.0,0.0
605,78.0,60,72,0.0,0.0
606,74.0,60,72,0.0,0.0
607,73.0,40,72,0.0,0.0
608,76.0,24,52,0.0,0.0
609,66.0,24,208,1.0,0.0
610,74.0,60,52,0.0,0.0
611,69.0,60,52,0.0,0.0
612,68.0,36,52,0.0,0.0
613,71.0,80,52,0.0,0.0
614,69.0,32,72,0.0,0.0
615,64.0,28,104,1.0,0.0
616,67.0,16,208,1.0,0.0
617,71.0,60,72,0.0,0.0
618,69.0,16,72,0.0,0.0
619,57.0,8,104,1.0,0.0
620,68.0,28,52,0.0,0.0
621,64.0,36,104,1.0,0.0
622,69.0,60,20,0.0,0.0
623,67.0,16,208,1.0,0.0
624,70.0,24,20,0.0,0.0
625,57.0,36,104,1.0,0.0
626,71.0,60,20,0.0,0.0
627,72.0,8,20,0.0,0.0
628,67.0,16,208,1.0,0.0
629,64.0,36,104,1.0,0.0
630,73.0,60,20,0.0,0.0
631,74.0,24,20,0.0,0.0
632,57.0,36,104,1.0,0.0
633,76.0,60,20,0.0,0.0
634,78.0,8,20,0.0,0.0
635,64.0,36,104,1.0,0.0
636,67.0,12,212,1.0,0.0
637,79.0,60,20,0.0,0.0
638,81.0,24,20,0.0,0.0
639,83.0,60,20,0.0,0.0
640,57.0,508,104,1.0,0.0
641,85.0,12,20,0.0,0.0
642,64.0,188,500,1.0,0.0
643,57.0,4,492,1.0,0.0
644,85.0,4,496,0.0,0.0
645,67.0,0,492,1.0,0.0
646,66.0,480,208,1.0,0.0
647,86.0,0,208,0.0,0.0
648,62.0,0,208,1.0,0.0
649,61.0,0,208,1.0,0.0
650,73.0,0,208,0.0,0.0
651,67.0,0,208,0.0,0.0
652,49.0,0,208,1.0,0.0
653,76.0,240,208,0.0,0.0
654,59.0,0,208,1.0,0.0
655,47.0,0,208,1.0,0.0
656,73.0,240,208,0.0,0.0
657,76.0,0,208,0.0,0.0
658,79.0,0,208,0.0,0.0
659,58.0,772,208,1.0,0.0
660,46.0,0,208,1.0,0.0
661,66.0,0,208,0.0,0.0
662,64.0,0,208,0.0,0.0
663,61.0,0,208,0.0,0.0
664,71.0,232,500,0.0,0.0
665,66.0,196,252,0.0,0.0
666,74.0,524,208,0.0,0.0
667,59.0,236,496,1.0,0.0
668,53.0,428,952,1.0,0.0
669,74.0,4,492,0.0,0.0
670,68.0,4,924,0.0,0.0
671,61.0,0,252,1.0,0.0
672,73.0,192,252,0.0,0.0
673,62.0,24,208,1.0,0.0
674,71.0,0,208,0.0,0.0
675,66.0,0,420,0.0,0.0
676,71.0,44,420,0.0,0.0
677,54.0,4,712,1.0,0.0
678,62.0,206,464,1.0,0.0
679,70.0,42,190,0.0,0.0
680,61.0,196,236,1.0,0.0
681,76.0,0,52,0.0,0.0
682,73.0,28,192,0.0,0.0
683,64.0,8,220,1.0,0.0
684,67.0,4,228,1.0,0.0
685,70.0,140,52,0.0,0.0
686,66.0,4,216,1.0,0.0
687,62.0,152,220,1.0,0.0
688,73.0,80,132,0.0,0.0
689,71.0,4,92,0.0,0.0
690,74.0,81,132,0.0,0.0
691,58.0,4,220,1.0,0.0
692,66.0,150,224,1.0,0.0
693,73.0,7,93,0.0,0.0
694,59.0,3,208,1.0,0.0
695,66.0,0,208,1.0,0.0
696,76.0,74,134,0.0,0.0
697,74.0,373,91,0.0,0.0
698,66.0,120,104,1.0,0.0
699,62.0,0,104,1.0,0.0
700,66.0,120,104,1.0,0.0
701,62.0,0,104,1.0,0.0
702,66.0,0,104,1.0,0.0
703,62.0,120,104,1.0,0.0
704,83.0,82,502,0.0,0.0
705,71.0,1,501,0.0,0.0
706,62.0,120,104,1.0,0.0
707,66.0,0,104,1.0,0.0
708,64.0,120,104,1.0,0.0
709,61.0,0,104,1.0,0.0
710,64.0,0,104,1.0,0.0
711,61.0,37,104,1.0,0.0
712,70.0,4,240,0.0,0.0
713,82.0,100,244,0.0,0.0
714,61.0,120,104,1.0,0.0
715,64.0,0,104,1.0,0.0
716,61.0,16,104,1.0,0.0
717,64.0,0,104,1.0,0.0
718,59.0,120,104,1.0,0.0
719,62.0,0,104,1.0,0.0
720,59.0,120,104,1.0,0.0
721,62.0,0,104,1.0,0.0
722,62.0,88,104,1.0,0.0
723,59.0,0,104,1.0,0.0
724,79.0,32,192,0.0,0.0
725,59.0,25,104,1.0,0.0
726,62.0,0,104,1.0,0.0
727,81.0,95,69,0.0,0.0
728,79.0,88,256,0.0,0.0
729,61.0,0,104,1.0,0.0
730,58.0,120,104,1.0,0.0
731,58.0,0,104,1.0,0.0
732,61.0,32,104,1.0,0.0
733,61.0,120,104,1.0,0.0
734,78.0,104,240,0.0,0.0
735,58.0,0,104,1.0,0.0
736,58.0,16,104,1.0,0.0
737,61.0,0,104,1.0,0.0
738,59.0,120,104,1.0,0.0
739,62.0,0,104,1.0,0.0
740,62.0,120,104,1.0,0.0
741,59.0,0,104,1.0,0.0
742,79.0,83,501,0.0,0.0
743,59.0,120,104,1.0,0.0
744,67.0,0,501,0.0,0.0
745,62.0,0,104,1.0,0.0
746,62.0,0,104,1.0,0.0
747,59.0,120,104,1.0,0.0
748,57.0,120,104,1.0,0.0
749,61.0,0,104,1.0,0.0
750,61.0,37,104,1.0,0.0
751,57.0,0,104,1.0,0.0
752,61.0,0,104,1.0,0.0
753,57.0,120,104,1.0,0.0
754,66.0,0,240,0.0,0.0
755,78.0,104,240,0.0,0.0
756,57.0,0,104,1.0,0.0
757,61.0,16,104,1.0,0.0
758,55.0,0,104,1.0,0.0
759,59.0,120,104,1.0,0.0
760,59.0,120,104,1.0,0.0
761,55.0,0,104,1.0,0.0
762,59.0,88,104,1.0,0.0
763,76.0,32,192,0.0,0.0
764,55.0,0,104,1.0,0.0
765,59.0,28,104,1.0,0.0
766,55.0,0,104,1.0,0.0
767,78.0,120,72,0.0,0.0
768,76.0,115,256,0.0,0.0
769,54.0,8,456,1.0,0.0
770,57.0,120,132,1.0,0.0
771,59.0,4,132,1.0,0.0
772,75.0,8,208,0.0,0.0
773,60.0,77,131,1.0,0.0
774,59.0,147,104,1.0,0.0
775,59.0,148,468,1.0,0.0
776,55.0,0,468,1.0,0.0
777,76.0,122,131,0.0,0.0
778,83.0,58,133,0.0,0.0
779,81.0,60,71,0.0,0.0
780,79.0,61,71,0.0,0.0
781,78.0,28,72,0.0,0.0
782,76.0,8,40,0.0,0.0
783,54.0,8,456,1.0,0.0
784,76.0,120,256,0.0,0.0
785,57.0,120,136,1.0,0.0
786,59.0,0,136,1.0,0.0
787,60.0,72,136,1.0,0.0
788,75.0,8,208,0.0,0.0
789,59.0,148,104,1.0,0.0
790,59.0,16,452,1.0,0.0
791,76.0,120,132,0.0,0.0
792,55.0,0,452,1.0,0.0
793,83.0,57,132,0.0,0.0
794,84.0,62,69,0.0,0.0
795,83.0,60,71,0.0,0.0
796,81.0,21,71,0.0,0.0
797,79.0,144,48,0.0,0.0
798,59.0,116,132,1.0,0.0
799,78.0,120,252,0.0,0.0
800,56.0,28,420,1.0,0.0
801,61.0,4,128,1.0,0.0
802,77.0,16,208,0.0,0.0
803,62.0,48,132,1.0,0.0
804,61.0,199,104,1.0,0.0
805,58.0,32,464,1.0,0.0
806,61.0,24,208,1.0,0.0
807,78.0,25,183,0.0,0.0
808,73.0,232,52,0.0,0.0
809,67.0,236,256,1.0,0.0
810,73.0,0,496,0.0,0.0
811,76.0,192,496,0.0,0.0
812,59.0,0,448,1.0,0.0
813,66.0,4,252,1.0,0.0
814,65.0,403,208,1.0,0.0
815,71.0,0,208,0.0,0.0
816,74.0,0,208,0.0,0.0
817,54.0,11,480,1.0,0.0
818,78.0,3,371,0.0,0.0
819,66.0,0,480,1.0,0.0
820,74.0,57,374,0.0,0.0
821,73.0,48,72,0.0,0.0
822,76.0,1,71,0.0,0.0
823,74.0,168,72,0.0,0.0
824,71.0,1,71,0.0,0.0
825,73.0,0,180,0.0,0.0
826,70.0,796,180,0.0,0.0
827,47.0,236,496,1.0,0.0
828,42.0,196,252,1.0,0.0
829,50.0,524,208,1.0,0.0
830,77.0,236,496,0.0,0.0
831,50.0,4,492,1.0,0.0
832,68.0,4,924,0.0,0.0
833,76.0,188,256,0.0,0.0
834,49.0,4,252,1.0,0.0
835,74.0,164,208,0.0,0.0
836,47.0,0,208,1.0,0.0
837,45.0,16,208,1.0,0.0
838,68.0,0,132,0.0,0.0
839,74.0,76,132,0.0,0.0
840,69.0,0,104,0.0,0.0
841,73.0,224,104,0.0,0.0
842,45.0,16,208,1.0,0.0
843,71.0,0,104,0.0,0.0
844,67.0,224,104,0.0,0.0
845,47.0,16,208,1.0,0.0
846,66.0,0,104,0.0,0.0
847,69.0,224,104,0.0,0.0
848,49.0,16,208,1.0,0.0
849,64.0,92,104,0.0,0.0
850,67.0,0,104,0.0,0.0
851,50.0,44,208,1.0,0.0
852,69.0,60,76,0.0,0.0
853,66.0,0,76,0.0,0.0
854,67.0,48,76,0.0,0.0
855,64.0,0,76,0.0,0.0
856,62.0,12,76,0.0,0.0
857,66.0,12,64,0.0,0.0
858,64.0,88,76,0.0,0.0
859,67.0,4,72,0.0,0.0
860,66.0,0,104,0.0,0.0
861,62.0,152,104,0.0,0.0
862,62.0,116,136,1.0,0.0
863,61.0,120,132,1.0,0.0
864,62.0,120,132,1.0,0.0
865,57.0,92,132,1.0,0.0
866,54.0,120,104,1.0,0.0
867,55.0,0,104,1.0,0.0
868,58.0,120,104,1.0,0.0
869,55.0,0,104,1.0,0.0
870,58.0,120,104,1.0,0.0
871,61.0,88,496,0.0,0.0
872,73.0,4,492,0.0,0.0
873,55.0,120,104,1.0,0.0
874,58.0,0,104,1.0,0.0
875,58.0,0,104,1.0,0.0
876,55.0,120,104,1.0,0.0
877,57.0,120,104,1.0,0.0
878,54.0,0,104,1.0,0.0
879,54.0,28,104,1.0,0.0
880,57.0,0,104,1.0,0.0
881,62.0,16,208,0.0,0.0
882,54.0,104,104,1.0,0.0
883,57.0,0,104,1.0,0.0
884,74.0,0,208,0.0,0.0
885,54.0,120,104,1.0,0.0
886,57.0,0,104,1.0,0.0
887,55.0,120,104,1.0,0.0
888,64.0,0,104,1.0,0.0
889,55.0,0,104,1.0,0.0
890,64.0,120,104,1.0,0.0
891,64.0,120,104,1.0,0.0
892,73.0,120,464,0.0,0.0
893,85.0,4,460,0.0,0.0
894,55.0,0,104,1.0,0.0
895,55.0,120,104,1.0,0.0
896,64.0,0,104,1.0,0.0
897,56.0,0,104,1.0,0.0
898,65.0,116,104,1.0,0.0
899,65.0,0,104,1.0,0.0
900,56.0,0,104,1.0,0.0
901,74.0,16,240,0.0,0.0
902,86.0,88,136,0.0,0.0
903,65.0,0,104,1.0,0.0
904,56.0,32,104,1.0,0.0
905,62.0,0,104,1.0,0.0
906,83.0,88,136,0.0,0.0
907,56.0,16,104,1.0,0.0
908,81.0,88,256,0.0,0.0
909,61.0,120,104,1.0,0.0
910,57.0,0,104,1.0,0.0
911,61.0,0,104,1.0,0.0
912,57.0,32,104,1.0,0.0
913,59.0,104,104,1.0,0.0
914,80.0,16,208,0.0,0.0
915,62.0,0,104,1.0,0.0
916,59.0,0,104,1.0,0.0
917,62.0,120,104,1.0,0.0
918,64.0,0,104,1.0,0.0
919,79.0,57,256,0.0,0.0
920,61.0,120,104,1.0,0.0
921,61.0,0,104,1.0,0.0
922,64.0,32,104,1.0,0.0
923,62.0,0,104,1.0,0.0
924,78.0,31,73,0.0,0.0
925,69.0,26,104,1.0,0.0
926,79.0,62,70,0.0,0.0
927,66.0,4,104,1.0,0.0
928,62.0,0,104,1.0,0.0
929,80.0,32,72,0.0,0.0
930,81.0,324,48,0.0,0.0
931,81.0,48,372,0.0,0.0
932,57.0,36,420,1.0,0.0
933,66.0,60,312,1.0,0.0
934,78.0,8,96,0.0,0.0
935,62.0,206,104,1.0,0.0
936,76.0,18,190,0.0,0.0
937,57.0,0,208,1.0,0.0
938,61.0,376,208,1.0,0.0
939,69.0,0,104,0.0,0.0
940,66.0,120,104,0.0,0.0
941,38.0,26,436,1.0,0.0
942,66.0,0,104,0.0,0.0
943,69.0,120,104,0.0,0.0
944,66.0,0,104,0.0,0.0
945,69.0,92,104,0.0,0.0
946,66.0,32,104,0.0,0.0
947,69.0,0,104,0.0,0.0
948,42.0,2,42,1.0,0.0
949,45.0,88,48,1.0,0.0
950,69.0,120,104,0.0,0.0
951,66.0,0,104,0.0,0.0
952,50.0,106,238,1.0,0.0
953,69.0,0,104,0.0,0.0
954,66.0,14,104,0.0,0.0
955,66.0,0,104,0.0,0.0
956,69.0,120,104,0.0,0.0
957,66.0,120,104,0.0,0.0
958,69.0,0,104,0.0,0.0
959,75.0,88,496,1.0,0.0
960,66.0,0,104,0.0,0.0
961,69.0,120,104,0.0,0.0
962,69.0,120,104,0.0,0.0
963,66.0,0,104,0.0,0.0
964,69.0,0,104,0.0,0.0
965,66.0,120,104,0.0,0.0
966,66.0,0,104,0.0,0.0
967,69.0,32,104,0.0,0.0
968,69.0,0,104,0.0,0.0
969,67.0,120,104,0.0,0.0
970,76.0,105,239,1.0,0.0
971,69.0,0,104,0.0,0.0
972,67.0,15,104,0.0,0.0
973,67.0,0,104,0.0,0.0
974,69.0,120,104,0.0,0.0
975,69.0,120,104,0.0,0.0
976,67.0,0,104,0.0,0.0
977,61.0,0,104,0.0,0.0
978,67.0,0,104,0.0,0.0
979,69.0,120,104,0.0,0.0
980,33.0,18,444,1.0,0.0
981,67.0,0,104,0.0,0.0
982,61.0,0,104,0.0,0.0
983,69.0,120,104,0.0,0.0
984,61.0,0,104,0.0,0.0
985,69.0,100,104,0.0,0.0
986,67.0,0,104,0.0,0.0
987,61.0,0,104,0.0,0.0
988,67.0,27,104,0.0,0.0
989,69.0,0,104,0.0,0.0
990,37.0,2,42,1.0,0.0
991,40.0,93,43,1.0,0.0
992,67.0,0,104,0.0,0.0
993,45.0,102,242,1.0,0.0
994,69.0,0,104,0.0,0.0
995,61.0,120,104,0.0,0.0
996,67.0,0,104,0.0,0.0
997,69.0,0,104,0.0,0.0
998,61.0,18,104,0.0,0.0
999,69.0,120,104,0.0,0.0
1000,67.0,0,104,0.0,0.0
1001,61.0,0,104,0.0,0.0
1002,67.0,0,104,0.0,0.0
1003,69.0,120,104,0.0,0.0
1004,61.0,0,104,0.0,0.0
1005,77.0,92,492,1.0,0.0
1006,61.0,120,104,0.0,0.0
1007,67.0,0,104,0.0,0.0
1008,69.0,0,104,0.0,0.0
1009,61.0,0,104,0.0,0.0
1010,67.0,0,104,0.0,0.0
1011,69.0,120,104,0.0,0.0
1012,67.0,120,104,0.0,0.0
1013,69.0,0,104,0.0,0.0
1014,61.0,0,104,0.0,0.0
1015,69.0,0,104,0.0,0.0
1016,61.0,28,104,0.0,0.0
1017,67.0,0,104,0.0,0.0
1018,62.0,0,104,0.0,0.0
1019,66.0,0,104,0.0,0.0
1020,69.0,120,104,0.0,0.0
1021,78.0,105,239,1.0,0.0
1022,69.0,15,104,0.0,0.0
1023,62.0,0,104,0.0,0.0
1024,62.0,120,104,0.0,0.0
1025,69.0,0,104,0.0,0.0
1026,69.0,29,104,0.0,0.0
1027,63.0,0,104,0.0,0.0
1028,78.0,91,73,1.0,0.0
1029,79.0,105,239,1.0,0.0
1030,64.0,120,104,0.0,0.0
1031,69.0,0,104,0.0,0.0
1032,69.0,15,104,0.0,0.0
1033,64.0,0,104,0.0,0.0
1034,69.0,0,104,0.0,0.0
1035,64.0,120,104,0.0,0.0
1036,65.0,0,104,0.0,0.0
1037,69.0,28,104,0.0,0.0
1038,80.0,92,72,1.0,0.0
1039,81.0,105,239,1.0,0.0
1040,66.0,0,104,0.0,0.0
1041,69.0,120,104,0.0,0.0
1042,69.0,0,104,0.0,0.0
1043,66.0,15,104,0.0,0.0
1044,66.0,120,104,0.0,0.0
1045,69.0,0,104,0.0,0.0
1046,66.0,28,104,0.0,0.0
1047,69.0,0,104,0.0,0.0
1048,81.0,92,72,1.0,0.0
1049,80.0,0,104,1.0,0.0
1050,65.0,0,104,0.0,0.0
1051,69.0,120,104,0.0,0.0
1052,69.0,29,104,0.0,0.0
1053,64.0,0,104,0.0,0.0
1054,79.0,91,73,1.0,0.0
1055,63.0,0,104,0.0,0.0
1056,69.0,0,104,0.0,0.0
1057,78.0,120,104,1.0,0.0
1058,69.0,0,104,0.0,0.0
1059,62.0,29,104,0.0,0.0
1060,77.0,91,73,1.0,0.0
1061,69.0,104,104,0.0,0.0
1062,61.0,0,104,0.0,0.0
1063,76.0,16,208,1.0,0.0
1064,81.0,120,104,0.0,0.0
1065,81.0,120,104,0.0,0.0
1066,81.0,28,104,0.0,0.0
1067,63.0,92,72,1.0,0.0
1068,66.0,0,72,1.0,0.0
1069,64.0,0,208,1.0,0.0
1070,67.0,16,208,1.0,0.0
1071,81.0,104,104,0.0,0.0
1072,81.0,120,104,0.0,0.0
1073,81.0,120,104,0.0,0.0
1074,81.0,28,104,0.0,0.0
1075,65.0,0,72,1.0,0.0
1076,68.0,92,72,1.0,0.0
1077,66.0,0,208,1.0,0.0
1078,69.0,16,208,1.0,0.0
1079,81.0,104,104,0.0,0.0
1080,81.0,120,104,0.0,0.0
1081,81.0,120,104,0.0,0.0
1082,81.0,27,104,0.0,0.0
1083,69.0,1,71,1.0,0.0
1084,66.0,92,72,1.0,0.0
1085,68.0,120,104,1.0,0.0
1086,83.0,0,104,0.0,0.0
1087,81.0,0,104,0.0,0.0
1088,65.0,0,104,1.0,0.0
1089,85.0,28,104,0.0,0.0
1090,81.0,0,104,0.0,0.0
1091,64.0,0,72,1.0,0.0
1092,67.0,92,72,1.0,0.0
1093,66.0,0,104,1.0,0.0
1094,86.0,0,104,0.0,0.0
1095,81.0,0,104,0.0,0.0
1096,62.0,120,104,1.0,0.0
1097,81.0,0,104,0.0,0.0
1098,87.0,27,104,0.0,0.0
1099,62.0,196,72,1.0,0.0
1100,65.0,1,71,1.0,0.0
1101,88.0,0,208,0.0,0.0
1102,61.0,0,208,1.0,0.0
1103,64.0,0,208,1.0,0.0
1104,79.0,480,208,0.0,0.0
1105,82.0,0,208,0.0,0.0
1106,70.0,0,240,0.0,0.0
1107,76.0,238,225,0.0,0.0
1108,37.0,2,208,1.0,0.0
1109,79.0,0,210,0.0,0.0
1110,49.0,0,208,1.0,0.0
1111,73.0,238,240,0.0,0.0
1112,79.0,0,225,0.0,0.0
1113,82.0,0,210,0.0,0.0
1114,40.0,0,208,1.0,0.0
1115,52.0,2,208,1.0,0.0
1116,64.0,0,240,0.0,0.0
1117,69.0,0,225,0.0,0.0
1118,55.0,0,208,1.0,0.0
1119,73.0,374,210,0.0,0.0
1120,43.0,2,208,1.0,0.0
1121,54.0,8,456,1.0,0.0
1122,74.0,88,256,0.0,0.0
1123,57.0,120,104,1.0,0.0
1124,62.0,32,104,1.0,0.0
1125,57.0,112,104,1.0,0.0
1126,81.0,92,492,0.0,0.0
1127,62.0,120,104,1.0,0.0
1128,54.0,0,464,1.0,0.0
1129,57.0,120,104,1.0,0.0
1130,62.0,28,104,1.0,0.0
1131,57.0,28,104,1.0,0.0
1132,79.0,92,132,0.0,0.0
1133,62.0,0,104,1.0,0.0
1134,78.0,120,104,0.0,0.0
1135,59.0,120,104,1.0,0.0
1136,76.0,88,256,0.0,0.0
1137,55.0,8,456,1.0,0.0
1138,62.0,32,104,1.0,0.0
1139,59.0,112,104,1.0,0.0
1140,79.0,88,496,0.0,0.0
1141,62.0,120,104,1.0,0.0
1142,55.0,116,468,1.0,0.0
1143,59.0,120,104,1.0,0.0
1144,62.0,32,104,1.0,0.0
1145,78.0,92,132,0.0,0.0
1146,59.0,28,104,1.0,0.0
1147,64.0,0,104,1.0,0.0
1148,76.0,4,104,0.0,0.0
1149,57.0,12,420,1.0,0.0
1150,74.0,48,372,0.0,0.0
1151,62.0,120,104,1.0,0.0
1152,66.0,120,104,1.0,0.0
1153,62.0,28,104,1.0,0.0
1154,76.0,32,72,0.0,0.0
1155,66.0,28,104,1.0,0.0
1156,74.0,60,72,0.0,0.0
1157,64.0,28,104,1.0,0.0
1158,57.0,12,420,1.0,0.0
1159,73.0,32,72,0.0,0.0
1160,74.0,60,72,0.0,0.0
1161,67.0,28,104,1.0,0.0
1162,76.0,32,72,0.0,0.0
1163,78.0,60,72,0.0,0.0
1164,79.0,32,72,0.0,0.0
1165,64.0,28,104,1.0,0.0
1166,81.0,48,72,0.0,0.0
1167,83.0,32,72,0.0,0.0
1168,67.0,8,104,1.0,0.0
1169,81.0,112,52,0.0,0.0
1170,61.0,120,104,1.0,0.0
1171,58.0,12,420,1.0,0.0
1172,79.0,44,376,0.0,0.0
1173,64.0,120,104,1.0,0.0
1174,61.0,32,104,1.0,0.0
1175,81.0,32,72,0.0,0.0
1176,64.0,28,104,1.0,0.0
1177,79.0,92,72,0.0,0.0
1178,78.0,16,208,0.0,0.0
1179,59.0,44,420,1.0,0.0
1180,62.0,104,104,1.0,0.0
1181,66.0,120,104,1.0,0.0
1182,62.0,76,104,1.0,0.0
1183,66.0,120,104,1.0,0.0
1184,62.0,68,104,0.0,0.0
1185,54.0,0,104,1.0,0.0
1186,57.0,8,104,1.0,0.0
1187,64.0,52,52,0.0,0.0
1188,66.0,60,52,0.0,0.0
1189,67.0,52,52,0.0,0.0
1190,54.0,8,104,1.0,0.0
1191,69.0,60,52,0.0,0.0
1192,71.0,52,52,0.0,0.0
1193,57.0,8,104,1.0,0.0
1194,73.0,60,52,0.0,0.0
1195,54.0,8,104,1.0,0.0
1196,74.0,52,52,0.0,0.0
1197,76.0,60,52,0.0,0.0
1198,78.0,52,52,0.0,0.0
1199,62.0,8,104,1.0,0.0
1200,79.0,60,52,0.0,0.0
1201,81.0,52,52,0.0,0.0
1202,57.0,8,104,1.0,0.0
1203,83.0,60,52,0.0,0.0
1204,85.0,52,52,0.0,0.0
1205,62.0,8,104,1.0,0.0
1206,86.0,60,52,0.0,0.0
1207,55.0,8,104,1.0,0.0
1208,85.0,52,52,0.0,0.0
1209,83.0,60,52,0.0,0.0
1210,82.0,52,52,0.0,0.0
1211,62.0,8,104,1.0,0.0
1212,83.0,60,52,0.0,0.0
1213,59.0,8,104,1.0,0.0
1214,81.0,52,52,0.0,0.0
1215,79.0,60,52,0.0,0.0
1216,62.0,8,104,1.0,0.0
1217,78.0,52,52,0.0,0.0
1218,79.0,60,52,0.0,0.0
1219,78.0,52,52,0.0,0.0
1220,55.0,8,104,1.0,0.0
1221,76.0,60,52,0.0,0.0
1222,62.0,8,104,1.0,0.0
1223,75.0,52,52,0.0,0.0
1224,76.0,60,52,0.0,0.0
1225,78.0,52,52,0.0,0.0
1226,59.0,8,104,1.0,0.0
1227,76.0,60,52,0.0,0.0
1228,79.0,52,52,0.0,0.0
1229,62.0,8,104,1.0,0.0
1230,76.0,203,52,0.0,0.0
1231,66.0,316,420,1.0,0.0
1232,81.0,37,195,0.0,0.0
1233,57.0,0,900,1.0,0.0
1234,78.0,188,52,0.0,0.0
1235,74.0,120,496,0.0,0.0
1236,67.0,44,420,1.0,0.0
1237,78.0,44,136,0.0,0.0
1238,73.0,436,224,0.0,0.0
1239,76.0,0,104,0.0,0.0
1240,74.0,72,420,0.0,0.0
1241,62.0,244,492,1.0,0.0
1242,57.0,192,256,1.0,0.0
1243,66.0,136,208,1.0,0.0
1244,73.0,90,494,0.0,0.0
1245,64.0,104,104,1.0,0.0
1246,67.0,16,208,1.0,0.0
1247,57.0,120,104,1.0,0.0
1248,67.0,16,208,1.0,0.0
1249,64.0,104,104,1.0,0.0
1250,57.0,30,104,1.0,0.0
1251,69.0,88,256,0.0,0.0
1252,64.0,104,104,1.0,0.0
1253,67.0,16,208,1.0,0.0
1254,57.0,32,104,1.0,0.0
1255,67.0,16,208,1.0,0.0
1256,64.0,104,104,1.0,0.0
1257,85.0,0,208,0.0,0.0
1258,57.0,36,104,1.0,0.0
1259,86.0,112,20,0.0,0.0
1260,62.0,60,492,1.0,0.0
1261,81.0,60,72,0.0,0.0
1262,80.0,60,72,0.0,0.0
1263,83.0,60,72,0.0,0.0
1264,81.0,60,72,0.0,0.0
1265,78.0,60,72,0.0,0.0
1266,76.0,60,72,0.0,0.0
1267,79.0,0,72,0.0,0.0
1268,57.0,36,256,1.0,0.0
1269,78.0,60,72,0.0,0.0
1270,74.0,60,72,0.0,0.0
1271,73.0,40,72,0.0,0.0
1272,76.0,24,52,0.0,0.0
1273,74.0,60,52,0.0,0.0
1274,66.0,24,208,1.0,0.0
1275,69.0,60,52,0.0,0.0
1276,68.0,36,52,0.0,0.0
1277,71.0,80,52,0.0,0.0
1278,64.0,28,104,1.0,0.0
1279,69.0,32,72,0.0,0.0
1280,67.0,16,208,1.0,0.0
1281,71.0,60,72,0.0,0.0
1282,57.0,8,104,1.0,0.0
1283,69.0,16,72,0.0,0.0
1284,68.0,28,52,0.0,0.0
1285,69.0,60,20,0.0,0.0
1286,67.0,16,208,1.0,0.0
1287,64.0,36,104,1.0,0.0
1288,70.0,24,20,0.0,0.0
1289,57.0,36,104,1.0,0.0
1290,71.0,60,20,0.0,0.0
1291,72.0,8,20,0.0,0.0
1292,73.0,60,20,0.0,0.0
1293,67.0,16,208,1.0,0.0
1294,64.0,36,104,1.0,0.0
1295,74.0,24,20,0.0,0.0
1296,76.0,60,20,0.0,0.0
1297,57.0,36,104,1.0,0.0
1298,78.0,8,20,0.0,0.0
1299,64.0,36,104,1.0,0.0
1300,79.0,60,20,0.0,0.0
1301,67.0,12,212,1.0,0.0
1302,81.0,24,20,0.0,0.0
1303,83.0,60,20,0.0,0.0
1304,57.0,508,104,1.0,0.0
1305,85.0,12,20,0.0,0.0
1306,85.0,4,496,0.0,0.0
1307,64.0,188,500,1.0,0.0
1308,57.0,0,492,1.0,0.0
1309,67.0,4,492,1.0,0.0
1310,66.0,480,208,1.0,0.0
1311,62.0,0,208,1.0,0.0
1312,86.0,0,208,0.0,0.0
1313,64.0,0,208,0.0,0.0
1314,69.0,0,208,0.0,0.0
1315,72.0,240,208,0.0,0.0
1316,45.0,0,208,1.0,0.0
1317,57.0,0,208,1.0,0.0
1318,72.0,0,208,0.0,0.0
1319,76.0,0,208,0.0,0.0
1320,43.0,240,208,1.0,0.0
1321,55.0,0,208,1.0,0.0
1322,69.0,0,208,0.0,0.0
1323,54.0,0,208,1.0,0.0
1324,42.0,0,208,1.0,0.0
1325,60.0,0,208,0.0,0.0
1326,57.0,764,208,0.0,0.0
1327,62.0,0,208,0.0,0.0
1328,67.0,240,492,0.0,0.0
1329,62.0,196,252,0.0,0.0
1330,71.0,404,208,0.0,0.0
1331,55.0,59,372,1.0,0.0
1332,71.0,1,492,0.0,0.0
1333,64.0,0,928,0.0,0.0
1334,48.0,0,928,1.0,0.0
1335,57.0,61,71,1.0,0.0
1336,59.0,239,73,1.0,0.0
1337,60.0,192,256,1.0,0.0
1338,69.0,4,252,0.0,0.0
1339,59.0,452,208,1.0,0.0
1340,67.0,0,208,0.0,0.0
1341,59.0,176,496,1.0,0.0
1342,50.0,4,684,1.0,0.0
1343,67.0,0,420,0.0,0.0
1344,62.0,76,420,0.0,0.0
1345,66.0,12,192,0.0,0.0
1346,57.0,24,208,1.0,0.0
1347,72.0,196,52,0.0,0.0
1348,62.0,24,208,1.0,0.0
1349,60.0,0,208,1.0,0.0
1350,69.0,20,188,0.0,0.0
1351,66.0,140,52,0.0,0.0
1352,62.0,16,208,1.0,0.0
1353,59.0,0,208,1.0,0.0
1354,69.0,76,132,0.0,0.0
1355,67.0,152,104,0.0,0.0
1356,62.0,16,208,1.0,0.0
1357,54.0,0,208,1.0,0.0
1358,71.0,72,136,0.0,0.0
1359,69.0,148,104,0.0,0.0
1360,72.0,76,132,0.0,0.0
1361,62.0,16,208,1.0,0.0
1362,55.0,0,208,1.0,0.0
1363,71.0,360,104,0.0,0.0
1364,62.0,0,104,1.0,0.0
1365,59.0,120,104,1.0,0.0
1366,79.0,28,432,0.0,0.0
1367,62.0,120,104,1.0,0.0
1368,59.0,0,104,1.0,0.0
1369,62.0,88,104,1.0,0.0
1370,59.0,0,104,1.0,0.0
1371,59.0,26,104,1.0,0.0
1372,62.0,0,104,1.0,0.0
1373,74.0,4,40,0.0,0.0
1374,71.0,94,42,0.0,0.0
1375,62.0,0,104,1.0,0.0
1376,67.0,16,208,0.0,0.0
1377,59.0,104,104,1.0,0.0
1378,59.0,120,104,1.0,0.0
1379,62.0,0,104,1.0,0.0
1380,62.0,0,104,1.0,0.0
1381,59.0,120,104,1.0,0.0
1382,62.0,0,104,1.0,0.0
1383,59.0,120,104,1.0,0.0
1384,44.0,92,492,0.0,0.0
1385,59.0,120,104,1.0,0.0
1386,62.0,0,104,1.0,0.0
1387,62.0,0,104,1.0,0.0
1388,59.0,120,104,1.0,0.0
1389,62.0,120,104,1.0,0.0
1390,59.0,0,104,1.0,0.0
1391,59.0,28,104,1.0,0.0
1392,62.0,0,104,1.0,0.0
1393,60.0,104,104,1.0,0.0
1394,62.0,0,104,1.0,0.0
1395,45.0,16,208,0.0,0.0
1396,60.0,120,104,1.0,0.0
1397,62.0,0,104,1.0,0.0
1398,60.0,120,104,1.0,0.0
1399,62.0,0,104,1.0,0.0
1400,62.0,0,104,1.0,0.0
1401,60.0,120,104,1.0,0.0
1402,84.0,26,436,0.0,0.0
1403,62.0,120,104,1.0,0.0
1404,57.0,0,104,1.0,0.0
1405,54.0,0,104,1.0,0.0
1406,54.0,120,104,1.0,0.0
1407,62.0,0,104,1.0,0.0
1408,57.0,0,104,1.0,0.0
1409,54.0,92,104,1.0,0.0
1410,57.0,0,104,1.0,0.0
1411,62.0,0,104,1.0,0.0
1412,62.0,0,104,1.0,0.0
1413,54.0,27,104,1.0,0.0
1414,57.0,0,104,1.0,0.0
1415,81.0,2,42,0.0,0.0
1416,78.0,93,43,0.0,0.0
1417,57.0,0,104,1.0,0.0
1418,62.0,104,104,1.0,0.0
1419,54.0,0,104,1.0,0.0
1420,72.0,16,208,0.0,0.0
1421,62.0,0,104,1.0,0.0
1422,57.0,120,104,1.0,0.0
1423,54.0,0,104,1.0,0.0
1424,57.0,0,104,1.0,0.0
1425,62.0,120,104,1.0,0.0
1426,54.0,0,104,1.0,0.0
1427,54.0,0,104,1.0,0.0
1428,57.0,0,104,1.0,0.0
1429,62.0,120,104,1.0,0.0
1430,54.0,120,104,1.0,0.0
1431,57.0,0,104,1.0,0.0
1432,60.0,0,104,1.0,0.0
1433,40.0,44,420,0.0,0.0
1434,60.0,0,104,1.0,0.0
1435,57.0,120,104,1.0,0.0
1436,54.0,0,104,1.0,0.0
1437,54.0,0,104,1.0,0.0
1438,57.0,76,104,1.0,0.0
1439,60.0,0,104,1.0,0.0
1440,60.0,0,104,1.0,0.0
1441,57.0,0,104,1.0,0.0
1442,54.0,120,104,1.0,0.0
1443,57.0,104,104,1.0,0.0
1444,54.0,0,104,1.0,0.0
1445,39.0,16,208,0.0,0.0
1446,59.0,0,104,1.0,0.0
1447,54.0,120,104,1.0,0.0
1448,57.0,0,104,1.0,0.0
1449,59.0,0,104,1.0,0.0
1450,54.0,120,104,1.0,0.0
1451,57.0,0,104,1.0,0.0
1452,59.0,0,104,1.0,0.0
1453,59.0,0,104,1.0,0.0
1454,54.0,120,104,1.0,0.0
1455,57.0,0,104,1.0,0.0
1456,38.0,44,420,0.0,0.0
1457,54.0,120,104,1.0,0.0
1458,56.0,0,104,1.0,0.0
1459,59.0,0,104,1.0,0.0
1460,54.0,120,104,1.0,0.0
1461,56.0,0,104,1.0,0.0
1462,59.0,0,104,1.0,0.0
1463,54.0,0,104,1.0,0.0
1464,56.0,76,104,1.0,0.0
1465,59.0,0,104,1.0,0.0
1466,54.0,0,104,1.0,0.0
1467,56.0,224,104,1.0,0.0
1468,59.0,0,104,1.0,0.0
1469,56.0,0,208,1.0,0.0
1470,59.0,0,208,1.0,0.0
1471,53.0,0,208,1.0,0.0
1472,37.0,768,208,0.0,0.0
1473,66.0,244,496,0.0,0.0
1474,61.0,188,260,0.0,0.0
1475,69.0,528,208,0.0,0.0
1476,69.0,0,496,0.0,0.0
1477,54.0,240,496,1.0,0.0
1478,48.0,0,928,1.0,0.0
1479,63.0,452,928,0.0,0.0
1480,68.0,0,256,0.0,0.0
1481,56.0,192,256,1.0,0.0
1482,66.0,0,208,0.0,0.0
1483,57.0,0,208,1.0,0.0
1484,49.0,20,692,1.0,0.0
1485,57.0,180,496,1.0,0.0
1486,61.0,0,420,0.0,0.0
1487,66.0,76,420,0.0,0.0
1488,56.0,4,208,1.0,0.0
1489,65.0,12,196,0.0,0.0
1490,71.0,204,52,0.0,0.0
1491,61.0,0,208,1.0,0.0
1492,68.0,12,196,0.0,0.0
1493,59.0,24,208,1.0,0.0
1494,65.0,144,52,0.0,0.0
1495,61.0,0,208,1.0,0.0
1496,57.0,16,208,1.0,0.0
1497,68.0,72,136,0.0,0.0
1498,66.0,120,104,0.0,0.0
1499,69.0,104,104,0.0,0.0
1500,53.0,16,208,1.0,0.0
1501,61.0,0,208,1.0,0.0
1502,68.0,120,104,0.0,0.0
1503,61.0,16,208,1.0,0.0
1504,71.0,104,104,0.0,0.0
1505,54.0,0,208,1.0,0.0
1506,69.0,360,104,0.0,0.0
1507,57.0,120,104,1.0,0.0
1508,61.0,0,104,1.0,0.0
1509,78.0,38,424,0.0,0.0
1510,61.0,120,104,1.0,0.0
1511,57.0,0,104,1.0,0.0
1512,61.0,80,104,1.0,0.0
1513,57.0,0,104,1.0,0.0
1514,57.0,0,104,1.0,0.0
1515,61.0,27,104,1.0,0.0
1516,73.0,2,42,0.0,0.0
1517,69.0,93,43,0.0,0.0
1518,61.0,104,104,1.0,0.0
1519,57.0,0,104,1.0,0.0
1520,66.0,16,208,0.0,0.0
1521,61.0,0,104,1.0,0.0
1522,57.0,120,104,1.0,0.0
1523,61.0,120,104,1.0,0.0
1524,57.0,0,104,1.0,0.0
1525,61.0,120,104,1.0,0.0
1526,57.0,0,104,1.0,0.0
1527,58.0,0,104,1.0,0.0
1528,61.0,120,104,1.0,0.0
1529,43.0,88,496,0.0,0.0
1530,58.0,0,104,1.0,0.0
1531,61.0,120,104,1.0,0.0
1532,58.0,120,104,1.0,0.0
1533,61.0,0,104,1.0,0.0
1534,58.0,32,104,1.0,0.0
1535,61.0,0,104,1.0,0.0
1536,44.0,104,240,0.0,0.0
1537,59.0,120,104,1.0,0.0
1538,61.0,0,104,1.0,0.0
1539,61.0,0,104,1.0,0.0
1540,59.0,16,104,1.0,0.0
1541,59.0,0,104,1.0,0.0
1542,61.0,120,104,1.0,0.0
1543,61.0,120,104,1.0,0.0
1544,59.0,0,104,1.0,0.0
1545,61.0,0,104,1.0,0.0
1546,56.0,0,104,1.0,0.0
1547,53.0,120,104,1.0,0.0
1548,83.0,4,440,0.0,0.0
1549,61.0,0,104,1.0,0.0
1550,56.0,120,104,1.0,0.0
1551,53.0,0,104,1.0,0.0
1552,56.0,0,104,1.0,0.0
1553,53.0,96,104,1.0,0.0
1554,61.0,0,104,1.0,0.0
1555,53.0,12,104,1.0,0.0
1556,56.0,0,104,1.0,0.0
1557,61.0,0,104,1.0,0.0
1558,80.0,20,24,0.0,0.0
1559,77.0,108,28,0.0,0.0
1560,53.0,104,104,1.0,0.0
1561,61.0,0,104,1.0,0.0
1562,56.0,0,104,1.0,0.0
1563,71.0,16,208,0.0,0.0
1564,53.0,0,104,1.0,0.0
1565,56.0,0,104,1.0,0.0
1566,61.0,120,104,1.0,0.0
1567,53.0,120,104,1.0,0.0
1568,56.0,0,104,1.0,0.0
1569,61.0,0,104,1.0,0.0
1570,53.0,120,104,1.0,0.0
1571,56.0,0,104,1.0,0.0
1572,61.0,0,104,1.0,0.0
1573,40.0,88,496,0.0,0.0
1574,61.0,120,104,1.0,0.0
1575,56.0,0,104,1.0,0.0
1576,58.0,0,104,1.0,0.0
1577,56.0,0,104,1.0,0.0
1578,61.0,0,104,1.0,0.0
1579,58.0,120,104,1.0,0.0
1580,56.0,120,104,1.0,0.0
1581,58.0,0,104,1.0,0.0
1582,61.0,0,104,1.0,0.0
1583,56.0,32,104,1.0,0.0
1584,58.0,0,104,1.0,0.0
1585,61.0,0,104,1.0,0.0
1586,61.0,0,104,1.0,0.0
1587,39.0,104,240,0.0,0.0
1588,55.0,0,104,1.0,0.0
1589,58.0,120,104,1.0,0.0
1590,61.0,0,104,1.0,0.0
1591,58.0,0,104,1.0,0.0
1592,55.0,16,104,1.0,0.0
1593,55.0,0,104,1.0,0.0
1594,61.0,120,104,1.0,0.0
1595,58.0,0,104,1.0,0.0
1596,58.0,120,104,1.0,0.0
1597,55.0,0,104,1.0,0.0
1598,61.0,0,104,1.0,0.0
1599,60.0,120,104,1.0,0.0
1600,57.0,0,104,1.0,0.0
1601,55.0,0,104,1.0,0.0
1602,39.0,196,492,0.0,0.0
1603,55.0,0,104,1.0,0.0
1604,60.0,120,104,1.0,0.0
1605,57.0,0,104,1.0,0.0
1606,60.0,120,104,1.0,0.0
1607,57.0,0,104,1.0,0.0
1608,55.0,0,104,1.0,0.0
1609,57.0,0,104,1.0,0.0
1610,60.0,28,104,1.0,0.0
1611,55.0,0,104,1.0,0.0
1612,57.0,40,208,1.0,0.0
1613,60.0,0,208,1.0,0.0
1614,38.0,728,248,0.0,0.0
1615,54.0,0,208,1.0,0.0
1616,55.0,240,496,1.0,0.0
1617,50.0,192,256,1.0,0.0
1618,58.0,492,208,1.0,0.0
1619,67.0,32,460,0.0,0.0
1620,73.0,8,920,0.0,0.0
1621,64.0,20,900,0.0,0.0
1622,58.0,196,492,1.0,0.0
1623,69.0,44,208,0.0,0.0
1624,57.0,168,252,1.0,0.0
1625,70.0,524,208,0.0,0.0
1626,55.0,0,208,1.0,0.0
1627,55.0,8,492,1.0,0.0
1628,63.0,172,500,0.0,0.0
1629,69.0,0,688,0.0,0.0
1630,72.0,0,688,0.0,0.0
1631,62.0,24,208,0.0,0.0
1632,54.0,16,192,1.0,0.0
1633,60.0,204,52,1.0,0.0
1634,57.0,26,196,1.0,0.0
1635,54.0,154,42,1.0,0.0
1636,57.0,72,136,1.0,0.0
1637,71.0,0,208,0.0,0.0
1638,65.0,16,208,0.0,0.0
1639,62.0,0,208,0.0,0.0
1640,56.0,152,104,1.0,0.0
1641,59.0,72,136,1.0,0.0
1642,69.0,0,208,0.0,0.0
1643,65.0,0,208,0.0,0.0
1644,62.0,16,208,0.0,0.0
1645,57.0,152,104,1.0,0.0
1646,62.0,16,208,0.0,0.0
1647,64.0,0,208,0.0,0.0
1648,68.0,0,208,0.0,0.0
1649,60.0,72,136,1.0,0.0
1650,59.0,748,104,1.0,0.0
1651,57.0,240,492,1.0,0.0
1652,52.0,196,252,1.0,0.0
1653,60.0,524,208,1.0,0.0
1654,66.0,72,660,0.0,0.0
1655,69.0,0,660,0.0,0.0
1656,75.0,0,660,0.0,0.0
1657,60.0,168,492,1.0,0.0
1658,59.0,196,252,1.0,0.0
1659,78.0,0,208,0.0,0.0
1660,74.0,0,208,0.0,0.0
1661,57.0,512,208,1.0,0.0
1662,84.0,0,208,0.0,0.0
1663,74.0,0,688,0.0,0.0
1664,77.0,0,688,0.0,0.0
1665,84.0,140,496,0.0,0.0
1666,57.0,16,480,1.0,0.0
1667,56.0,52,156,1.0,0.0
1668,83.0,24,208,0.0,0.0
1669,62.0,164,52,1.0,0.0
1670,59.0,76,156,1.0,0.0
1671,56.0,112,52,1.0,0.0
1672,59.0,104,104,1.0,0.0
1673,67.0,0,208,0.0,0.0
1674,73.0,0,208,0.0,0.0
1675,76.0,16,208,0.0,0.0
1676,58.0,120,104,1.0,0.0
1677,66.0,0,208,0.0,0.0
1678,71.0,16,208,0.0,0.0
1679,61.0,104,104,1.0,0.0
1680,74.0,0,208,0.0,0.0
1681,59.0,120,104,1.0,0.0
1682,64.0,16,208,0.0,0.0
1683,66.0,0,208,0.0,0.0
1684,70.0,0,208,0.0,0.0
1685,62.0,104,104,1.0,0.0
1686,61.0,748,104,1.0,0.0
1687,71.0,240,492,0.0,0.0
1688,66.0,196,252,0.0,0.0
1689,74.0,524,208,0.0,0.0
1690,53.0,4,928,1.0,0.0
1691,59.0,4,492,1.0,0.0
1692,74.0,240,496,0.0,0.0
1693,68.0,448,932,0.0,0.0
1694,61.0,188,260,1.0,0.0
1695,73.0,4,256,0.0,0.0
1696,71.0,0,208,0.0,0.0
1697,62.0,0,208,1.0,0.0
1698,66.0,76,420,0.0,0.0
1699,71.0,0,420,0.0,0.0
1700,62.0,177,496,1.0,0.0
1701,54.0,23,688,1.0,0.0
1702,61.0,0,208,1.0,0.0
1703,70.0,15,193,0.0,0.0
1704,76.0,201,51,0.0,0.0
1705,64.0,24,208,1.0,0.0
1706,67.0,0,208,1.0,0.0
1707,73.0,16,192,0.0,0.0
1708,70.0,144,52,0.0,0.0
1709,66.0,0,208,1.0,0.0
1710,62.0,16,208,1.0,0.0
1711,73.0,72,136,0.0,0.0
1712,71.0,152,104,0.0,0.0
1713,66.0,16,208,1.0,0.0
1714,58.0,0,208,1.0,0.0
1715,74.0,72,136,0.0,0.0
1716,73.0,152,104,0.0,0.0
1717,66.0,16,208,1.0,0.0
1718,59.0,0,208,1.0,0.0
1719,76.0,72,136,0.0,0.0
1720,74.0,360,104,0.0,0.0
1721,62.0,120,104,1.0,0.0
1722,66.0,0,104,1.0,0.0
1723,66.0,120,104,1.0,0.0
1724,62.0,0,104,1.0,0.0
1725,62.0,0,104,1.0,0.0
1726,71.0,0,496,0.0,0.0
1727,66.0,120,104,1.0,0.0
1728,83.0,88,496,0.0,0.0
1729,62.0,0,104,1.0,0.0
1730,66.0,120,104,1.0,0.0
1731,64.0,120,104,1.0,0.0
1732,61.0,0,104,1.0,0.0
1733,64.0,32,104,1.0,0.0
1734,61.0,0,104,1.0,0.0
1735,64.0,104,104,1.0,0.0
1736,61.0,0,104,1.0,0.0
1737,82.0,16,208,0.0,0.0
1738,70.0,0,208,0.0,0.0
1739,64.0,120,104,1.0,0.0
1740,61.0,0,104,1.0,0.0
1741,59.0,120,104,1.0,0.0
1742,62.0,0,104,1.0,0.0
1743,62.0,120,104,1.0,0.0
1744,59.0,0,104,1.0,0.0
1745,79.0,34,190,0.0,0.0
1746,62.0,86,104,1.0,0.0
1747,59.0,0,104,1.0,0.0
1748,59.0,0,104,1.0,0.0
1749,62.0,28,104,1.0,0.0
1750,81.0,92,72,0.0,0.0
1751,61.0,0,104,1.0,0.0
1752,58.0,120,104,1.0,0.0
1753,79.0,92,252,0.0,0.0
1754,58.0,28,104,1.0,0.0
1755,61.0,0,104,1.0,0.0
1756,61.0,104,104,1.0,0.0
1757,78.0,16,208,0.0,0.0
1758,58.0,0,104,1.0,0.0
1759,61.0,0,104,1.0,0.0
1760,58.0,120,104,1.0,0.0
1761,59.0,0,104,1.0,0.0
1762,62.0,120,104,1.0,0.0
1763,62.0,0,104,1.0,0.0
1764,59.0,120,104,1.0,0.0
1765,79.0,4,492,0.0,0.0
1766,67.0,88,496,0.0,0.0
1767,62.0,120,104,1.0,0.0
1768,59.0,0,104,1.0,0.0
1769,59.0,0,104,1.0,0.0
1770,62.0,120,104,1.0,0.0
1771,61.0,120,104,1.0,0.0
1772,57.0,0,104,1.0,0.0
1773,61.0,28,104,1.0,0.0
1774,57.0,0,104,1.0,0.0
1775,66.0,0,208,0.0,0.0
1776,78.0,16,208,0.0,0.0
1777,61.0,0,104,1.0,0.0
1778,57.0,104,104,1.0,0.0
1779,57.0,120,104,1.0,0.0
1780,61.0,0,104,1.0,0.0
1781,59.0,120,104,1.0,0.0
1782,55.0,0,104,1.0,0.0
1783,55.0,120,104,1.0,0.0
1784,59.0,0,104,1.0,0.0
1785,55.0,86,104,1.0,0.0
1786,76.0,34,190,0.0,0.0
1787,59.0,0,104,1.0,0.0
1788,59.0,0,104,1.0,0.0
1789,55.0,28,104,1.0,0.0
1790,78.0,124,72,0.0,0.0
1791,57.0,116,136,1.0,0.0
1792,76.0,4,252,0.0,0.0
1793,54.0,8,440,1.0,0.0
1794,59.0,120,136,1.0,0.0
1795,75.0,16,208,0.0,0.0
1796,60.0,64,136,1.0,0.0
1797,59.0,149,104,1.0,0.0
1798,59.0,0,420,1.0,0.0
1799,55.0,52,420,1.0,0.0
1800,76.0,119,133,0.0,0.0
1801,83.0,40,132,0.0,0.0
1802,81.0,60,52,0.0,0.0
1803,79.0,60,52,0.0,0.0
1804,78.0,8,52,0.0,0.0
1805,76.0,112,52,0.0,0.0
1806,76.0,88,256,0.0,0.0
1807,57.0,120,104,1.0,0.0
1808,54.0,28,420,1.0,0.0
1809,59.0,32,104,1.0,0.0
1810,75.0,16,208,0.0,0.0
1811,60.0,76,104,1.0,0.0
1812,59.0,120,104,1.0,0.0
1813,59.0,0,420,1.0,0.0
1814,55.0,10,420,1.0,0.0
1815,76.0,120,104,0.0,0.0
1816,83.0,86,104,0.0,0.0
1817,84.0,60,70,0.0,0.0
1818,83.0,50,70,0.0,0.0
1819,81.0,60,70,0.0,0.0
1820,79.0,94,70,0.0,0.0
1821,56.0,8,456,1.0,0.0
1822,59.0,120,104,1.0,0.0
1823,78.0,88,256,0.0,0.0
1824,61.0,32,104,1.0,0.0
1825,77.0,8,208,0.0,0.0
1826,62.0,104,104,1.0,0.0
1827,61.0,185,104,1.0,0.0
1828,58.0,20,472,1.0,0.0
1829,61.0,4,228,1.0,0.0
1830,78.0,59,169,0.0,0.0
1831,73.0,240,52,0.0,0.0
1832,76.0,2,493,0.0,0.0
1833,73.0,193,495,0.0,0.0
1834,67.0,240,252,1.0,0.0
1835,59.0,402,452,1.0,0.0
1836,66.0,1,252,1.0,0.0
1837,74.0,4,208,0.0,0.0
1838,65.0,0,208,1.0,0.0
1839,71.0,0,208,0.0,0.0
1840,66.0,0,479,1.0,0.0
1841,54.0,14,479,1.0,0.0
1842,74.0,2,374,0.0,0.0
1843,78.0,56,376,0.0,0.0
1844,76.0,1,72,0.0,0.0
1845,73.0,46,73,0.0,0.0
1846,74.0,1,73,0.0,0.0
1847,71.0,194,74,0.0,0.0
1848,70.0,0,208,0.0,0.0
1849,73.0,376,208,0.0,0.0
1850,66.0,120,104,0.0,0.0
1851,62.0,0,104,0.0,0.0
1852,35.0,28,434,1.0,0.0
1853,66.0,120,104,0.0,0.0
1854,62.0,0,104,0.0,0.0
1855,66.0,0,104,0.0,0.0
1856,62.0,90,104,0.0,0.0
1857,62.0,0,104,0.0,0.0
1858,66.0,26,104,0.0,0.0
1859,38.0,2,42,1.0,0.0
1860,42.0,94,42,1.0,0.0
1861,47.0,104,240,1.0,0.0
1862,62.0,120,104,0.0,0.0
1863,66.0,0,104,0.0,0.0
1864,66.0,16,104,0.0,0.0
1865,62.0,0,104,0.0,0.0
1866,66.0,0,104,0.0,0.0
1867,62.0,120,104,0.0,0.0
1868,66.0,0,104,0.0,0.0
1869,62.0,120,104,0.0,0.0
1870,63.0,120,104,0.0,0.0
1871,66.0,0,104,0.0,0.0
1872,72.0,88,496,1.0,0.0
1873,63.0,120,104,0.0,0.0
1874,66.0,0,104,0.0,0.0
1875,63.0,120,104,0.0,0.0
1876,66.0,0,104,0.0,0.0
1877,63.0,32,104,0.0,0.0
1878,66.0,0,104,0.0,0.0
1879,73.0,105,239,1.0,0.0
1880,66.0,120,104,0.0,0.0
1881,64.0,0,104,0.0,0.0
1882,66.0,15,104,0.0,0.0
1883,64.0,0,104,0.0,0.0
1884,66.0,0,104,0.0,0.0
1885,64.0,120,104,0.0,0.0
1886,64.0,120,104,0.0,0.0
1887,66.0,0,104,0.0,0.0
1888,66.0,120,104,0.0,0.0
1889,30.0,30,433,1.0,0.0
1890,58.0,0,104,0.0,0.0
1891,64.0,0,104,0.0,0.0
1892,66.0,120,104,0.0,0.0
1893,64.0,0,104,0.0,0.0
1894,58.0,0,104,0.0,0.0
1895,64.0,0,104,0.0,0.0
1896,58.0,0,104,0.0,0.0
1897,66.0,89,104,0.0,0.0
1898,64.0,0,104,0.0,0.0
1899,58.0,0,104,0.0,0.0
1900,66.0,28,104,0.0,0.0
1901,34.0,1,43,1.0,0.0
1902,37.0,92,44,1.0,0.0
1903,42.0,104,240,1.0,0.0
1904,58.0,120,104,0.0,0.0
1905,64.0,0,104,0.0,0.0
1906,66.0,0,104,0.0,0.0
1907,64.0,0,104,0.0,0.0
1908,66.0,16,104,0.0,0.0
1909,58.0,0,104,0.0,0.0
1910,58.0,0,104,0.0,0.0
1911,64.0,120,104,0.0,0.0
1912,66.0,0,104,0.0,0.0
1913,58.0,0,104,0.0,0.0
1914,66.0,0,104,0.0,0.0
1915,64.0,120,104,0.0,0.0
1916,58.0,120,104,0.0,0.0
1917,64.0,0,104,0.0,0.0
1918,66.0,0,104,0.0,0.0
1919,73.0,92,492,1.0,0.0
1920,64.0,0,104,0.0,0.0
1921,66.0,120,104,0.0,0.0
1922,58.0,0,104,0.0,0.0
1923,66.0,0,104,0.0,0.0
1924,64.0,0,104,0.0,0.0
1925,58.0,120,104,0.0,0.0
1926,58.0,0,104,0.0,0.0
1927,66.0,28,104,0.0,0.0
1928,64.0,0,104,0.0,0.0
1929,62.0,0,104,0.0,0.0
1930,66.0,0,104,0.0,0.0
1931,59.0,120,104,0.0,0.0
1932,74.0,105,239,1.0,0.0
1933,59.0,15,104,0.0,0.0
1934,66.0,0,104,0.0,0.0
1935,66.0,0,104,0.0,0.0
1936,59.0,120,104,0.0,0.0
1937,66.0,29,104,0.0,0.0
1938,60.0,0,104,0.0,0.0
1939,75.0,91,73,1.0,0.0
1940,66.0,0,104,0.0,0.0
1941,61.0,120,104,0.0,0.0
1942,76.0,105,239,1.0,0.0
1943,66.0,0,104,0.0,0.0
1944,61.0,15,104,0.0,0.0
1945,66.0,120,104,0.0,0.0
1946,61.0,0,104,0.0,0.0
1947,61.0,30,104,0.0,0.0
1948,66.0,0,104,0.0,0.0
1949,77.0,90,74,1.0,0.0
1950,62.0,120,104,0.0,0.0
1951,66.0,0,104,0.0,0.0
1952,78.0,105,239,1.0,0.0
1953,66.0,0,104,0.0,0.0
1954,62.0,15,104,0.0,0.0
1955,66.0,120,104,0.0,0.0
1956,62.0,0,104,0.0,0.0
1957,62.0,0,104,0.0,0.0
1958,66.0,28,104,0.0,0.0
1959,78.0,92,72,1.0,0.0
1960,61.0,0,104,0.0,0.0
1961,66.0,120,104,0.0,0.0
1962,77.0,0,104,1.0,0.0
1963,66.0,0,104,0.0,0.0
1964,61.0,28,104,0.0,0.0
1965,76.0,92,72,1.0,0.0
1966,66.0,0,104,0.0,0.0
1967,59.0,120,104,0.0,0.0
1968,75.0,0,104,1.0,0.0
1969,66.0,29,104,0.0,0.0
1970,59.0,0,104,0.0,0.0
1971,74.0,91,73,1.0,0.0
1972,73.0,16,208,1.0,0.0
1973,66.0,0,104,0.0,0.0
1974,58.0,104,104,0.0,0.0
1975,78.0,120,104,0.0,0.0
1976,78.0,120,104,0.0,0.0
1977,78.0,29,104,0.0,0.0
1978,75.0,91,73,1.0,0.0
1979,72.0,0,73,1.0,0.0
1980,78.0,104,104,0.0,0.0
1981,76.0,16,208,1.0,0.0
1982,73.0,0,208,1.0,0.0
1983,78.0,120,104,0.0,0.0
1984,78.0,120,104,0.0,0.0
1985,78.0,24,104,0.0,0.0
1986,77.0,3,72,1.0,0.0
1987,73.0,93,71,1.0,0.0
1988,78.0,104,104,0.0,0.0
1989,74.0,16,208,1.0,0.0
1990,78.0,0,208,1.0,0.0
1991,78.0,120,104,0.0,0.0
1992,78.0,120,104,0.0,0.0
1993,78.0,28,104,0.0,0.0
1994,74.0,0,72,1.0,0.0
1995,78.0,92,72,1.0,0.0
1996,78.0,0,104,0.0,0.0
1997,80.0,0,104,0.0,0.0
1998,73.0,0,104,1.0,0.0
1999,77.0,120,104,1.0,0.0
2000,78.0,28,104,0.0,0.0
2001,82.0,0,104,0.0,0.0
2002,73.0,0,72,1.0,0.0
2003,76.0,92,72,1.0,0.0
2004,83.0,0,104,0.0,0.0
2005,71.0,120,104,1.0,0.0
2006,75.0,0,104,1.0,0.0
2007,78.0,0,104,0.0,0.0
2008,84.0,18,104,0.0,0.0
2009,78.0,0,104,0.0,0.0
2010,71.0,10,62,1.0,0.0
2011,74.0,196,72,1.0,0.0
2012,73.0,0,208,1.0,0.0
2013,70.0,472,208,1.0,0.0
2014,85.0,0,208,0.0,0.0
2015,79.0,0,208,0.0,0.0
2016,76.0,0,208,0.0,0.0
2017,67.0,190,288,0.0,0.0
2018,73.0,18,255,0.0,0.0
2019,76.0,8,200,0.0,0.0
2020,46.0,0,208,1.0,0.0
2021,34.0,32,208,1.0,0.0
2022,70.0,24,250,0.0,0.0
2023,76.0,238,267,0.0,0.0
2024,79.0,8,244,0.0,0.0
2025,49.0,12,208,1.0,0.0
2026,37.0,0,208,1.0,0.0
2027,61.0,0,288,0.0,0.0
2028,66.0,326,273,0.0,0.0
2029,52.0,1,250,1.0,0.0
2030,40.0,7,251,1.0,0.0
2031,70.0,0,258,0.0,0.0
2032,54.0,120,104,1.0,0.0
2033,50.0,44,420,1.0,0.0
2034,71.0,84,260,0.0,0.0
2035,59.0,36,104,1.0,0.0
2036,54.0,76,104,1.0,0.0
2037,78.0,84,500,0.0,0.0
2038,59.0,120,104,1.0,0.0
2039,54.0,120,104,1.0,0.0
2040,50.0,44,420,1.0,0.0
2041,59.0,36,104,1.0,0.0
2042,76.0,40,140,0.0,0.0
2043,54.0,36,104,1.0,0.0
2044,74.0,120,104,0.0,0.0
2045,59.0,0,104,1.0,0.0
2046,73.0,84,260,0.0,0.0
2047,52.0,44,420,1.0,0.0
2048,55.0,120,104,1.0,0.0
2049,59.0,36,104,1.0,0.0
2050,79.0,84,500,0.0,0.0
2051,55.0,76,104,1.0,0.0
2052,59.0,120,104,1.0,0.0
2053,55.0,120,104,1.0,0.0
2054,52.0,44,420,1.0,0.0
2055,59.0,36,104,1.0,0.0
2056,55.0,36,104,1.0,0.0
2057,76.0,40,140,0.0,0.0
2058,73.0,0,104,0.0,0.0
2059,61.0,88,104,1.0,0.0
2060,77.0,32,72,0.0,0.0
2061,54.0,12,900,1.0,0.0
2062,59.0,28,104,1.0,0.0
2063,78.0,60,72,0.0,0.0
2064,62.0,28,104,1.0,0.0
2065,79.0,32,72,0.0,0.0
2066,78.0,60,72,0.0,0.0
2067,59.0,28,104,1.0,0.0
2068,76.0,32,72,0.0,0.0
2069,74.0,60,72,0.0,0.0
2070,62.0,28,104,1.0,0.0
2071,73.0,32,72,0.0,0.0
2072,71.0,60,72,0.0,0.0
2073,61.0,28,104,1.0,0.0
2074,70.0,32,72,0.0,0.0
2075,71.0,60,72,0.0,0.0
2076,64.0,28,104,1.0,0.0
2077,73.0,32,72,0.0,0.0
2078,74.0,60,72,0.0,0.0
2079,76.0,32,72,0.0,0.0
2080,61.0,28,104,1.0,0.0
2081,78.0,48,72,0.0,0.0
2082,79.0,32,72,0.0,0.0
2083,64.0,8,104,1.0,0.0
2084,78.0,112,52,0.0,0.0
2085,76.0,60,372,0.0,0.0
2086,55.0,44,900,1.0,0.0
2087,58.0,120,104,1.0,0.0
2088,61.0,120,104,1.0,0.0
2089,58.0,28,104,1.0,0.0
2090,78.0,32,72,0.0,0.0
2091,61.0,28,104,1.0,0.0
2092,76.0,92,72,0.0,0.0
2093,74.0,16,208,0.0,0.0
2094,59.0,104,104,1.0,0.0
2095,62.0,120,104,1.0,0.0
2096,59.0,76,104,1.0,0.0
2097,62.0,120,104,1.0,0.0
2098,59.0,0,104,0.0,0.0
2099,50.0,68,104,1.0,0.0
2100,61.0,52,52,0.0,0.0
2101,59.0,8,104,1.0,0.0
2102,62.0,60,52,0.0,0.0
2103,64.0,52,52,0.0,0.0
2104,54.0,8,104,1.0,0.0
2105,66.0,60,52,0.0,0.0
2106,59.0,8,104,1.0,0.0
2107,68.0,52,52,0.0,0.0
2108,70.0,60,52,0.0,0.0
2109,71.0,52,52,0.0,0.0
2110,50.0,8,104,1.0,0.0
2111,73.0,60,52,0.0,0.0
2112,74.0,52,52,0.0,0.0
2113,59.0,8,104,1.0,0.0
2114,76.0,60,52,0.0,0.0
2115,78.0,52,52,0.0,0.0
2116,54.0,8,104,1.0,0.0
2117,80.0,60,52,0.0,0.0
2118,59.0,8,104,1.0,0.0
2119,82.0,52,52,0.0,0.0
2120,83.0,76,52,0.0,0.0
2121,52.0,44,104,1.0,0.0
2122,60.0,36,68,0.0,0.0
2123,64.0,76,72,0.0,0.0
2124,60.0,4,104,1.0,0.0
2125,67.0,80,72,0.0,0.0
2126,55.0,44,104,1.0,0.0
2127,72.0,36,68,0.0,0.0
2128,76.0,76,72,0.0,0.0
2129,60.0,4,104,1.0,0.0
2130,79.0,107,72,0.0,0.0
2131,84.0,9,95,0.0,0.0
2132,52.0,72,104,1.0,0.0
2133,76.0,48,100,0.0,0.0
2134,60.0,32,104,1.0,0.0
2135,79.0,79,100,0.0,0.0
2136,55.0,72,104,1.0,0.0
2137,72.0,9,95,0.0,0.0
2138,76.0,48,100,0.0,0.0
2139,60.0,4,104,1.0,0.0
2140,67.0,216,72,0.0,0.0
2141,54.0,8,952,1.0,0.0
2142,62.0,252,488,1.0,0.0
2143,78.0,28,204,0.0,0.0
2144,74.0,256,52,0.0,0.0
2145,71.0,124,500,0.0,0.0
2146,64.0,420,480,1.0,0.0
2147,74.0,80,144,0.0,0.0
2148,70.0,8,224,0.0,0.0
2149,73.0,0,104,0.0,0.0
2150,71.0,80,420,0.0,0.0
2151,59.0,228,500,1.0,0.0
2152,54.0,200,248,1.0,0.0
2153,62.0,136,208,1.0,0.0
2154,64.0,16,208,1.0,0.0
2155,70.0,80,504,0.0,0.0
2156,61.0,104,104,1.0,0.0
2157,54.0,120,104,1.0,0.0
2158,64.0,16,208,1.0,0.0
2159,61.0,104,104,1.0,0.0
2160,54.0,40,104,1.0,0.0
2161,64.0,16,208,1.0,0.0
2162,61.0,104,104,1.0,0.0
2163,66.0,84,260,0.0,0.0
2164,54.0,36,104,1.0,0.0
2165,82.0,16,208,0.0,0.0
2166,64.0,0,208,1.0,0.0
2167,61.0,104,104,1.0,0.0
2168,54.0,36,104,1.0,0.0
2169,59.0,48,504,1.0,0.0
2170,83.0,112,20,0.0,0.0
2171,78.0,60,72,0.0,0.0
2172,77.0,60,72,0.0,0.0
2173,79.0,60,72,0.0,0.0
2174,78.0,60,72,0.0,0.0
2175,74.0,60,72,0.0,0.0
2176,73.0,60,72,0.0,0.0
2177,76.0,12,72,0.0,0.0
2178,54.0,48,264,1.0,0.0
2179,74.0,60,72,0.0,0.0
2180,71.0,60,72,0.0,0.0
2181,70.0,60,72,0.0,0.0
2182,73.0,12,72,0.0,0.0
2183,62.0,24,208,1.0,0.0
2184,71.0,60,72,0.0,0.0
2185,66.0,60,72,0.0,0.0
2186,65.0,16,72,0.0,0.0
2187,67.0,80,52,0.0,0.0
2188,66.0,32,72,0.0,0.0
2189,64.0,16,208,1.0,0.0
2190,61.0,28,104,1.0,0.0
2191,67.0,60,72,0.0,0.0
2192,54.0,28,104,1.0,0.0
2193,66.0,16,72,0.0,0.0
2194,65.0,60,72,0.0,0.0
2195,66.0,32,72,0.0,0.0
2196,61.0,28,104,1.0,0.0
2197,64.0,16,208,1.0,0.0
2198,67.0,60,72,0.0,0.0
2199,68.0,16,72,0.0,0.0
2200,54.0,8,104,1.0,0.0
2201,69.0,28,52,0.0,0.0
2202,64.0,16,208,1.0,0.0
2203,70.0,60,20,0.0,0.0
2204,61.0,36,104,1.0,0.0
2205,71.0,24,20,0.0,0.0
2206,54.0,36,104,1.0,0.0
2207,73.0,60,20,0.0,0.0
2208,74.0,8,20,0.0,0.0
2209,61.0,36,104,1.0,0.0
2210,76.0,60,20,0.0,0.0
2211,64.0,16,208,1.0,0.0
2212,78.0,24,20,0.0,0.0
2213,79.0,60,20,0.0,0.0
2214,54.0,520,104,1.0,0.0
2215,82.0,8,20,0.0,0.0
2216,54.0,0,508,1.0,0.0
2217,61.0,0,508,1.0,0.0
2218,64.0,180,508,1.0,0.0
2219,82.0,4,504,0.0,0.0
2220,59.0,480,208,1.0,0.0
2221,83.0,0,208,0.0,0.0
2222,62.0,0,208,1.0,0.0
2223,84.0,0,208,0.0,0.0
2224,81.0,240,208,0.0,0.0
2225,76.0,0,208,0.0,0.0
2226,45.0,0,208,1.0,0.0
2227,57.0,0,208,1.0,0.0
2228,55.0,0,208,1.0,0.0
2229,81.0,0,208,0.0,0.0
2230,84.0,0,208,0.0,0.0
2231,88.0,0,208,0.0,0.0
2232,43.0,240,208,1.0,0.0
2233,57.0,0,208,0.0,0.0
2234,62.0,0,208,0.0,0.0
2235,60.0,0,208,0.0,0.0
2236,54.0,0,208,1.0,0.0
2237,42.0,764,208,1.0,0.0
2238,67.0,240,492,0.0,0.0
2239,62.0,196,252,0.0,0.0
2240,71.0,404,208,0.0,0.0
2241,64.0,452,928,0.0,0.0
2242,55.0,59,372,1.0,0.0
2243,48.0,0,928,1.0,0.0
2244,71.0,1,492,0.0,0.0
2245,57.0,61,71,1.0,0.0
2246,59.0,239,73,1.0,0.0
2247,69.0,4,252,0.0,0.0
2248,60.0,192,256,1.0,0.0
2249,67.0,0,208,0.0,0.0
2250,59.0,0,208,1.0,0.0
2251,59.0,176,496,1.0,0.0
2252,50.0,4,684,1.0,0.0
2253,62.0,76,420,0.0,0.0
2254,67.0,0,420,0.0,0.0
2255,66.0,12,192,0.0,0.0
2256,57.0,24,208,1.0,0.0
2257,72.0,196,52,0.0,0.0
2258,69.0,20,188,0.0,0.0
2259,60.0,24,208,1.0,0.0
2260,62.0,0,208,1.0,0.0
2261,66.0,140,52,0.0,0.0
2262,59.0,16,208,1.0,0.0
2263,62.0,0,208,1.0,0.0
2264,69.0,76,132,0.0,0.0
2265,67.0,152,104,0.0,0.0
2266,71.0,72,136,0.0,0.0
2267,62.0,16,208,1.0,0.0
2268,54.0,0,208,1.0,0.0
2269,69.0,148,104,0.0,0.0
2270,72.0,76,132,0.0,0.0
2271,62.0,16,208,1.0,0.0
2272,55.0,0,208,1.0,0.0
2273,71.0,360,104,0.0,0.0
2274,59.0,0,104,1.0,0.0
2275,62.0,120,104,1.0,0.0
2276,79.0,28,432,0.0,0.0
2277,59.0,120,104,1.0,0.0
2278,62.0,0,104,1.0,0.0
2279,59.0,88,104,1.0,0.0
2280,62.0,0,104,1.0,0.0
2281,62.0,26,104,1.0,0.0
2282,59.0,0,104,1.0,0.0
2283,74.0,4,40,0.0,0.0
2284,71.0,94,42,0.0,0.0
2285,67.0,16,208,0.0,0.0
2286,62.0,104,104,1.0,0.0
2287,59.0,0,104,1.0,0.0
2288,59.0,120,104,1.0,0.0
2289,62.0,0,104,1.0,0.0
2290,59.0,120,104,1.0,0.0
2291,62.0,0,104,1.0,0.0
2292,62.0,120,104,1.0,0.0
2293,59.0,0,104,1.0,0.0
2294,59.0,0,104,1.0,0.0
2295,62.0,120,104,1.0,0.0
2296,44.0,92,492,0.0,0.0
2297,59.0,0,104,1.0,0.0
2298,62.0,120,104,1.0,0.0
2299,59.0,120,104,1.0,0.0
2300,62.0,0,104,1.0,0.0
2301,59.0,0,104,1.0,0.0
2302,62.0,28,104,1.0,0.0
2303,45.0,100,244,0.0,0.0
2304,62.0,120,104,1.0,0.0
2305,60.0,0,104,1.0,0.0
2306,62.0,20,104,1.0,0.0
2307,60.0,0,104,1.0,0.0
2308,60.0,0,104,1.0,0.0
2309,62.0,120,104,1.0,0.0
2310,62.0,120,104,1.0,0.0
2311,60.0,0,104,1.0,0.0
2312,62.0,120,104,1.0,0.0
2313,54.0,0,104,1.0,0.0
2314,57.0,0,104,1.0,0.0
2315,84.0,26,436,0.0,0.0
2316,62.0,120,104,1.0,0.0
2317,57.0,0,104,1.0,0.0
2318,54.0,0,104,1.0,0.0
2319,54.0,0,104,1.0,0.0
2320,62.0,0,104,1.0,0.0
2321,57.0,92,104,1.0,0.0
2322,57.0,0,104,1.0,0.0
2323,54.0,27,104,1.0,0.0
2324,62.0,0,104,1.0,0.0
2325,81.0,2,42,0.0,0.0
2326,78.0,93,43,0.0,0.0
2327,57.0,0,104,1.0,0.0
2328,62.0,0,104,1.0,0.0
2329,54.0,104,104,1.0,0.0
2330,72.0,16,208,0.0,0.0
2331,62.0,120,104,1.0,0.0
2332,54.0,0,104,1.0,0.0
2333,57.0,0,104,1.0,0.0
2334,54.0,120,104,1.0,0.0
2335,57.0,0,104,1.0,0.0
2336,62.0,0,104,1.0,0.0
2337,54.0,0,104,1.0,0.0
2338,62.0,0,104,1.0,0.0
2339,57.0,120,104,1.0,0.0
2340,40.0,92,492,0.0,0.0
2341,60.0,0,104,1.0,0.0
2342,57.0,0,104,1.0,0.0
2343,54.0,120,104,1.0,0.0
2344,60.0,120,104,1.0,0.0
2345,54.0,0,104,1.0,0.0
2346,57.0,0,104,1.0,0.0
2347,54.0,120,104,1.0,0.0
2348,57.0,0,104,1.0,0.0
2349,60.0,0,104,1.0,0.0
2350,60.0,0,104,1.0,0.0
2351,54.0,0,104,1.0,0.0
2352,57.0,28,104,1.0,0.0
2353,39.0,96,248,0.0,0.0
2354,54.0,0,104,1.0,0.0
2355,57.0,120,104,1.0,0.0
2356,59.0,0,104,1.0,0.0
2357,57.0,0,104,1.0,0.0
2358,59.0,0,104,1.0,0.0
2359,54.0,24,104,1.0,0.0
2360,54.0,0,104,1.0,0.0
2361,57.0,120,104,1.0,0.0
2362,59.0,0,104,1.0,0.0
2363,54.0,120,104,1.0,0.0
2364,57.0,0,104,1.0,0.0
2365,59.0,0,104,1.0,0.0
2366,38.0,184,504,0.0,0.0
2367,59.0,0,104,1.0,0.0
2368,54.0,120,104,1.0,0.0
2369,56.0,0,104,1.0,0.0
2370,59.0,0,104,1.0,0.0
2371,56.0,120,104,1.0,0.0
2372,54.0,0,104,1.0,0.0
2373,54.0,120,104,1.0,0.0
2374,56.0,0,104,1.0,0.0
2375,59.0,0,104,1.0,0.0
2376,59.0,0,104,1.0,0.0
2377,54.0,0,104,1.0,0.0
2378,56.0,40,104,1.0,0.0
2379,59.0,0,208,1.0,0.0
2380,56.0,0,208,1.0,0.0
2381,53.0,36,208,1.0,0.0
2382,37.0,732,244,0.0,0.0
2383,66.0,244,496,0.0,0.0
2384,61.0,188,260,0.0,0.0
2385,69.0,528,208,0.0,0.0
2386,54.0,0,496,1.0,0.0
2387,48.0,452,928,1.0,0.0
2388,69.0,240,496,0.0,0.0
2389,63.0,0,928,0.0,0.0
2390,56.0,192,256,1.0,0.0
2391,68.0,0,256,0.0,0.0
2392,57.0,0,208,1.0,0.0
2393,66.0,0,208,0.0,0.0
2394,57.0,180,496,1.0,0.0
2395,49.0,20,692,1.0,0.0
2396,61.0,0,420,0.0,0.0
2397,66.0,76,420,0.0,0.0
2398,65.0,12,196,0.0,0.0
2399,56.0,4,208,1.0,0.0
2400,71.0,204,52,0.0,0.0
2401,68.0,12,196,0.0,0.0
2402,59.0,24,208,1.0,0.0
2403,61.0,0,208,1.0,0.0
2404,65.0,144,52,0.0,0.0
2405,68.0,72,136,0.0,0.0
2406,61.0,16,208,1.0,0.0
2407,57.0,0,208,1.0,0.0
2408,66.0,120,104,0.0,0.0
2409,69.0,104,104,0.0,0.0
2410,61.0,16,208,1.0,0.0
2411,53.0,0,208,1.0,0.0
2412,68.0,120,104,0.0,0.0
2413,71.0,104,104,0.0,0.0
2414,61.0,16,208,1.0,0.0
2415,54.0,0,208,1.0,0.0
2416,69.0,360,104,0.0,0.0
2417,61.0,0,104,1.0,0.0
2418,57.0,120,104,1.0,0.0
2419,78.0,38,424,0.0,0.0
2420,61.0,120,104,1.0,0.0
2421,57.0,0,104,1.0,0.0
2422,61.0,0,104,1.0,0.0
2423,57.0,80,104,1.0,0.0
2424,57.0,0,104,1.0,0.0
2425,61.0,27,104,1.0,0.0
2426,73.0,2,42,0.0,0.0
2427,69.0,93,43,0.0,0.0
2428,61.0,0,104,1.0,0.0
2429,66.0,16,208,0.0,0.0
2430,57.0,104,104,1.0,0.0
2431,57.0,120,104,1.0,0.0
2432,61.0,0,104,1.0,0.0
2433,57.0,120,104,1.0,0.0
2434,61.0,0,104,1.0,0.0
2435,57.0,120,104,1.0,0.0
2436,61.0,0,104,1.0,0.0
2437,61.0,0,104,1.0,0.0
2438,58.0,120,104,1.0,0.0
2439,43.0,88,496,0.0,0.0
2440,58.0,0,104,1.0,0.0
2441,61.0,120,104,1.0,0.0
2442,58.0,120,104,1.0,0.0
2443,61.0,0,104,1.0,0.0
2444,58.0,32,104,1.0,0.0
2445,61.0,0,104,1.0,0.0
2446,59.0,0,104,1.0,0.0
2447,44.0,104,240,0.0,0.0
2448,61.0,120,104,1.0,0.0
2449,59.0,16,104,1.0,0.0
2450,61.0,0,104,1.0,0.0
2451,59.0,120,104,1.0,0.0
2452,61.0,0,104,1.0,0.0
2453,59.0,120,104,1.0,0.0
2454,61.0,0,104,1.0,0.0
2455,61.0,0,104,1.0,0.0
2456,83.0,4,440,0.0,0.0
2457,53.0,0,104,1.0,0.0
2458,56.0,120,104,1.0,0.0
2459,53.0,120,104,1.0,0.0
2460,56.0,0,104,1.0,0.0
2461,61.0,0,104,1.0,0.0
2462,53.0,96,104,1.0,0.0
2463,56.0,0,104,1.0,0.0
2464,61.0,0,104,1.0,0.0
2465,56.0,0,104,1.0,0.0
2466,53.0,0,104,1.0,0.0
2467,61.0,12,104,1.0,0.0
2468,80.0,20,24,0.0,0.0
2469,77.0,108,28,0.0,0.0
2470,71.0,16,208,0.0,0.0
2471,53.0,0,104,1.0,0.0
2472,61.0,104,104,1.0,0.0
2473,56.0,0,104,1.0,0.0
2474,56.0,120,104,1.0,0.0
2475,53.0,0,104,1.0,0.0
2476,61.0,0,104,1.0,0.0
2477,53.0,120,104,1.0,0.0
2478,56.0,0,104,1.0,0.0
2479,61.0,0,104,1.0,0.0
2480,53.0,120,104,1.0,0.0
2481,56.0,0,104,1.0,0.0
2482,61.0,0,104,1.0,0.0
2483,40.0,88,496,0.0,0.0
2484,56.0,120,104,1.0,0.0
2485,58.0,0,104,1.0,0.0
2486,61.0,0,104,1.0,0.0
2487,58.0,0,104,1.0,0.0
2488,56.0,120,104,1.0,0.0
2489,61.0,0,104,1.0,0.0
2490,61.0,0,104,1.0,0.0
2491,58.0,0,104,1.0,0.0
2492,56.0,120,104,1.0,0.0
2493,58.0,0,104,1.0,0.0
2494,61.0,0,104,1.0,0.0
2495,56.0,32,104,1.0,0.0
2496,61.0,0,104,1.0,0.0
2497,39.0,104,240,0.0,0.0
2498,55.0,0,104,1.0,0.0
2499,58.0,120,104,1.0,0.0
2500,55.0,0,104,1.0,0.0
2501,58.0,0,104,1.0,0.0
2502,61.0,16,104,1.0,0.0
2503,55.0,0,104,1.0,0.0
2504,58.0,120,104,1.0,0.0
2505,61.0,0,104,1.0,0.0
2506,61.0,0,104,1.0,0.0
2507,55.0,120,104,1.0,0.0
2508,58.0,0,104,1.0,0.0
2509,55.0,0,104,1.0,0.0
2510,39.0,196,492,0.0,0.0
2511,60.0,120,104,1.0,0.0
2512,57.0,0,104,1.0,0.0
2513,60.0,120,104,1.0,0.0
2514,57.0,0,104,1.0,0.0
2515,55.0,0,104,1.0,0.0
2516,57.0,0,104,1.0,0.0
2517,60.0,0,104,1.0,0.0
2518,55.0,120,104,1.0,0.0
2519,55.0,0,104,1.0,0.0
2520,57.0,0,104,1.0,0.0
2521,60.0,28,104,1.0,0.0
2522,54.0,0,208,1.0,0.0
2523,57.0,0,208,1.0,0.0
2524,60.0,32,208,1.0,0.0
2525,38.0,736,240,0.0,0.0
2526,55.0,240,496,1.0,0.0
2527,50.0,192,256,1.0,0.0
2528,58.0,492,208,1.0,0.0
2529,58.0,196,492,1.0,0.0
2530,64.0,20,900,0.0,0.0
2531,67.0,32,460,0.0,0.0
2532,73.0,8,920,0.0,0.0
2533,57.0,168,252,1.0,0.0
2534,69.0,44,208,0.0,0.0
2535,55.0,524,208,1.0,0.0
2536,70.0,0,208,0.0,0.0
2537,63.0,172,500,0.0,0.0
2538,55.0,8,492,1.0,0.0
2539,69.0,24,688,0.0,0.0
2540,72.0,0,688,0.0,0.0
2541,62.0,0,208,0.0,0.0
2542,54.0,16,192,1.0,0.0
2543,60.0,204,52,1.0,0.0
2544,57.0,26,196,1.0,0.0
2545,54.0,154,42,1.0,0.0
2546,71.0,0,208,0.0,0.0
2547,57.0,72,136,1.0,0.0
2548,65.0,0,208,0.0,0.0
2549,62.0,16,208,0.0,0.0
2550,56.0,152,104,1.0,0.0
2551,59.0,72,136,1.0,0.0
2552,62.0,0,208,0.0,0.0
2553,65.0,16,208,0.0,0.0
2554,69.0,0,208,0.0,0.0
2555,57.0,152,104,1.0,0.0
2556,60.0,72,136,1.0,0.0
2557,62.0,16,208,0.0,0.0
2558,64.0,0,208,0.0,0.0
2559,68.0,0,208,0.0,0.0
2560,59.0,748,104,1.0,0.0
2561,57.0,240,492,1.0,0.0
2562,52.0,196,252,1.0,0.0
2563,60.0,524,208,1.0,0.0
2564,60.0,168,492,1.0,0.0
2565,75.0,0,660,0.0,0.0
2566,69.0,0,660,0.0,0.0
2567,66.0,72,660,0.0,0.0
2568,59.0,196,252,1.0,0.0
2569,74.0,452,208,0.0,0.0
2570,57.0,0,208,1.0,0.0
2571,78.0,0,208,0.0,0.0
2572,84.0,0,208,0.0,0.0
2573,74.0,24,688,0.0,0.0
2574,77.0,0,688,0.0,0.0
2575,84.0,140,496,0.0,0.0
2576,57.0,76,420,1.0,0.0
2577,83.0,0,208,0.0,0.0
2578,56.0,52,156,1.0,0.0
2579,62.0,164,52,1.0,0.0
2580,59.0,76,156,1.0,0.0
2581,56.0,112,52,1.0,0.0
2582,59.0,104,104,1.0,0.0
2583,76.0,0,208,0.0,0.0
2584,73.0,0,208,0.0,0.0
2585,67.0,16,208,0.0,0.0
2586,58.0,120,104,1.0,0.0
2587,61.0,104,104,1.0,0.0
2588,74.0,16,208,0.0,0.0
2589,66.0,0,208,0.0,0.0
2590,71.0,0,208,0.0,0.0
2591,59.0,120,104,1.0,0.0
2592,70.0,16,208,0.0,0.0
2593,62.0,104,104,1.0,0.0
2594,66.0,0,208,0.0,0.0
2595,64.0,0,208,0.0,0.0
2596,61.0,748,104,1.0,0.0
2597,71.0,240,492,0.0,0.0
2598,66.0,196,252,0.0,0.0
2599,74.0,524,208,0.0,0.0
2600,53.0,4,928,1.0,0.0
2601,68.0,448,932,0.0,0.0
2602,74.0,240,496,0.0,0.0
2603,59.0,4,492,1.0,0.0
2604,73.0,4,256,0.0,0.0
2605,61.0,188,260,1.0,0.0
2606,71.0,0,208,0.0,0.0
2607,62.0,0,208,1.0,0.0
2608,54.0,23,688,1.0,0.0
2609,71.0,90,420,0.0,0.0
2610,66.0,0,420,0.0,0.0
2611,62.0,163,510,1.0,0.0
2612,61.0,0,208,1.0,0.0
2613,70.0,15,193,0.0,0.0
2614,76.0,201,51,0.0,0.0
2615,73.0,16,192,0.0,0.0
2616,64.0,0,208,1.0,0.0
2617,67.0,24,208,1.0,0.0
2618,70.0,144,52,0.0,0.0
2619,62.0,0,208,1.0,0.0
2620,66.0,16,208,1.0,0.0
2621,73.0,72,136,0.0,0.0
2622,71.0,152,104,0.0,0.0
2623,58.0,16,208,1.0,0.0
2624,74.0,72,136,0.0,0.0
2625,66.0,0,208,1.0,0.0
2626,73.0,152,104,0.0,0.0
2627,59.0,0,208,1.0,0.0
2628,66.0,16,208,1.0,0.0
2629,76.0,72,136,0.0,0.0
2630,74.0,360,104,0.0,0.0
2631,62.0,120,104,1.0,0.0
2632,66.0,0,104,1.0,0.0
2633,62.0,120,104,1.0,0.0
2634,66.0,0,104,1.0,0.0
2635,62.0,0,104,1.0,0.0
2636,66.0,120,104,1.0,0.0
2637,71.0,88,496,0.0,0.0
2638,83.0,0,496,0.0,0.0
2639,62.0,120,104,1.0,0.0
2640,66.0,0,104,1.0,0.0
2641,61.0,120,104,1.0,0.0
2642,64.0,0,104,1.0,0.0
2643,64.0,0,104,1.0,0.0
2644,61.0,32,104,1.0,0.0
2645,70.0,4,240,0.0,0.0
2646,82.0,100,244,0.0,0.0
2647,64.0,120,104,1.0,0.0
2648,61.0,0,104,1.0,0.0
2649,61.0,16,104,1.0,0.0
2650,64.0,0,104,1.0,0.0
2651,59.0,120,104,1.0,0.0
2652,62.0,0,104,1.0,0.0
2653,62.0,0,104,1.0,0.0
2654,59.0,120,104,1.0,0.0
2655,79.0,34,190,0.0,0.0
2656,62.0,0,104,1.0,0.0
2657,59.0,86,104,1.0,0.0
2658,59.0,0,104,1.0,0.0
2659,62.0,28,104,1.0,0.0
2660,81.0,92,72,0.0,0.0
2661,61.0,0,104,1.0,0.0
2662,58.0,120,104,1.0,0.0
2663,79.0,92,252,0.0,0.0
2664,58.0,0,104,1.0,0.0
2665,61.0,28,104,1.0,0.0
2666,58.0,0,104,1.0,0.0
2667,61.0,104,104,1.0,0.0
2668,78.0,16,208,0.0,0.0
2669,58.0,120,104,1.0,0.0
2670,61.0,0,104,1.0,0.0
2671,59.0,120,104,1.0,0.0
2672,62.0,0,104,1.0,0.0
2673,62.0,120,104,1.0,0.0
2674,59.0,0,104,1.0,0.0
2675,59.0,0,104,1.0,0.0
2676,62.0,120,104,1.0,0.0
2677,67.0,88,496,0.0,0.0
2678,79.0,4,492,0.0,0.0
2679,62.0,0,104,1.0,0.0
2680,59.0,120,104,1.0,0.0
2681,57.0,120,104,1.0,0.0
2682,61.0,0,104,1.0,0.0
2683,57.0,0,104,1.0,0.0
2684,61.0,28,104,1.0,0.0
2685,61.0,0,104,1.0,0.0
2686,57.0,120,104,1.0,0.0
2687,66.0,4,240,0.0,0.0
2688,78.0,100,244,0.0,0.0
2689,57.0,16,104,1.0,0.0
2690,61.0,0,104,1.0,0.0
2691,59.0,120,104,1.0,0.0
2692,55.0,0,104,1.0,0.0
2693,55.0,120,104,1.0,0.0
2694,59.0,0,104,1.0,0.0
2695,55.0,86,104,1.0,0.0
2696,59.0,0,104,1.0,0.0
2697,76.0,34,190,0.0,0.0
2698,59.0,0,104,1.0,0.0
2699,55.0,28,104,1.0,0.0
2700,78.0,124,72,0.0,0.0
2701,76.0,4,252,0.0,0.0
2702,57.0,116,136,1.0,0.0
2703,54.0,8,440,1.0,0.0
2704,59.0,120,136,1.0,0.0
2705,75.0,16,208,0.0,0.0
2706,60.0,64,136,1.0,0.0
2707,59.0,149,104,1.0,0.0
2708,76.0,119,133,0.0,0.0
2709,55.0,52,420,1.0,0.0
2710,59.0,0,420,1.0,0.0
2711,83.0,40,132,0.0,0.0
2712,81.0,60,52,0.0,0.0
2713,79.0,60,52,0.0,0.0
2714,78.0,8,52,0.0,0.0
2715,76.0,112,52,0.0,0.0
2716,54.0,28,420,1.0,0.0
2717,57.0,120,104,1.0,0.0
2718,76.0,88,256,0.0,0.0
2719,59.0,32,104,1.0,0.0
2720,60.0,76,104,1.0,0.0
2721,75.0,16,208,0.0,0.0
2722,59.0,120,104,1.0,0.0
2723,55.0,0,420,1.0,0.0
2724,76.0,120,104,0.0,0.0
2725,59.0,10,420,1.0,0.0
2726,83.0,86,104,0.0,0.0
2727,84.0,60,70,0.0,0.0
2728,83.0,50,70,0.0,0.0
2729,81.0,60,70,0.0,0.0
2730,79.0,94,70,0.0,0.0
2731,59.0,120,104,1.0,0.0
2732,78.0,88,256,0.0,0.0
2733,56.0,8,456,1.0,0.0
2734,61.0,32,104,1.0,0.0
2735,77.0,8,208,0.0,0.0
2736,62.0,104,104,1.0,0.0
2737,61.0,185,104,1.0,0.0
2738,78.0,59,169,0.0,0.0
2739,58.0,20,472,1.0,0.0
2740,61.0,4,228,1.0,0.0
2741,73.0,240,52,0.0,0.0
2742,76.0,2,493,0.0,0.0
2743,73.0,193,495,0.0,0.0
2744,67.0,240,252,1.0,0.0
2745,66.0,1,252,1.0,0.0
2746,59.0,402,452,1.0,0.0
2747,74.0,0,208,0.0,0.0
2748,71.0,4,208,0.0,0.0
2749,65.0,0,208,1.0,0.0
2750,78.0,44,376,0.0,0.0
2751,66.0,12,420,1.0,0.0
2752,54.0,0,420,1.0,0.0
2753,74.0,2,374,0.0,0.0
2754,76.0,1,72,0.0,0.0
2755,73.0,60,73,0.0,0.0
2756,71.0,194,74,0.0,0.0
2757,74.0,1,73,0.0,0.0
2758,70.0,376,208,0.0,0.0
2759,73.0,0,208,0.0,0.0
2760,66.0,120,104,0.0,0.0
2761,62.0,0,104,0.0,0.0
2762,35.0,28,434,1.0,0.0
2763,66.0,0,104,0.0,0.0
2764,62.0,120,104,0.0,0.0
2765,62.0,0,104,0.0,0.0
2766,66.0,90,104,0.0,0.0
2767,66.0,0,104,0.0,0.0
2768,62.0,26,104,0.0,0.0
2769,38.0,2,42,1.0,0.0
2770,42.0,94,42,1.0,0.0
2771,47.0,104,240,1.0,0.0
2772,62.0,120,104,0.0,0.0
2773,66.0,0,104,0.0,0.0
2774,62.0,16,104,0.0,0.0
2775,66.0,0,104,0.0,0.0
2776,62.0,0,104,0.0,0.0
2777,66.0,120,104,0.0,0.0
2778,62.0,120,104,0.0,0.0
2779,66.0,0,104,0.0,0.0
2780,63.0,0,104,0.0,0.0
2781,66.0,120,104,0.0,0.0
2782,72.0,88,496,1.0,0.0
2783,63.0,120,104,0.0,0.0
2784,66.0,0,104,0.0,0.0
2785,63.0,120,104,0.0,0.0
2786,66.0,0,104,0.0,0.0
2787,63.0,0,104,0.0,0.0
2788,66.0,32,104,0.0,0.0
2789,73.0,16,208,1.0,0.0
2790,64.0,104,104,0.0,0.0
2791,66.0,0,104,0.0,0.0
2792,64.0,120,104,0.0,0.0
2793,66.0,0,104,0.0,0.0
2794,64.0,120,104,0.0,0.0
2795,66.0,0,104,0.0,0.0
2796,64.0,120,104,0.0,0.0
2797,66.0,0,104,0.0,0.0
2798,30.0,30,433,1.0,0.0
2799,64.0,0,104,0.0,0.0
2800,66.0,120,104,0.0,0.0
2801,58.0,0,104,0.0,0.0
2802,58.0,120,104,0.0,0.0
2803,64.0,0,104,0.0,0.0
2804,66.0,0,104,0.0,0.0
2805,58.0,89,104,0.0,0.0
2806,66.0,0,104,0.0,0.0
2807,64.0,0,104,0.0,0.0
2808,66.0,0,104,0.0,0.0
2809,64.0,0,104,0.0,0.0
2810,58.0,28,104,0.0,0.0
2811,34.0,1,43,1.0,0.0
2812,37.0,92,44,1.0,0.0
2813,58.0,0,104,0.0,0.0
2814,42.0,104,240,1.0,0.0
2815,64.0,0,104,0.0,0.0
2816,66.0,120,104,0.0,0.0
2817,66.0,0,104,0.0,0.0
2818,64.0,16,104,0.0,0.0
2819,58.0,0,104,0.0,0.0
2820,58.0,0,104,0.0,0.0
2821,64.0,0,104,0.0,0.0
2822,66.0,120,104,0.0,0.0
2823,58.0,120,104,0.0,0.0
2824,64.0,0,104,0.0,0.0
2825,66.0,0,104,0.0,0.0
2826,73.0,92,492,1.0,0.0
2827,58.0,0,104,0.0,0.0
2828,64.0,0,104,0.0,0.0
2829,66.0,120,104,0.0,0.0
2830,58.0,0,104,0.0,0.0
2831,66.0,120,104,0.0,0.0
2832,64.0,0,104,0.0,0.0
2833,58.0,120,104,0.0,0.0
2834,64.0,0,104,0.0,0.0
2835,66.0,0,104,0.0,0.0
2836,64.0,0,104,0.0,0.0
2837,66.0,0,104,0.0,0.0
2838,58.0,28,104,0.0,0.0
2839,59.0,104,104,0.0,0.0
2840,62.0,0,104,0.0,0.0
2841,74.0,16,208,1.0,0.0
2842,66.0,0,104,0.0,0.0
2843,66.0,0,104,0.0,0.0
2844,59.0,120,104,0.0,0.0
2845,59.0,120,104,0.0,0.0
2846,66.0,0,104,0.0,0.0
2847,60.0,29,104,0.0,0.0
2848,66.0,0,104,0.0,0.0
2849,75.0,91,73,1.0,0.0
2850,61.0,0,104,0.0,0.0
2851,66.0,104,104,0.0,0.0
2852,76.0,16,208,1.0,0.0
2853,61.0,0,104,0.0,0.0
2854,66.0,120,104,0.0,0.0
2855,61.0,0,104,0.0,0.0
2856,66.0,120,104,0.0,0.0
2857,66.0,0,104,0.0,0.0
2858,61.0,30,104,0.0,0.0
2859,77.0,90,74,1.0,0.0
2860,78.0,16,208,1.0,0.0
2861,62.0,0,104,0.0,0.0
2862,66.0,104,104,0.0,0.0
2863,66.0,120,104,0.0,0.0
2864,62.0,0,104,0.0,0.0
2865,62.0,120,104,0.0,0.0
2866,66.0,0,104,0.0,0.0
2867,66.0,0,104,0.0,0.0
2868,62.0,28,104,0.0,0.0
2869,78.0,92,72,1.0,0.0
2870,61.0,0,104,0.0,0.0
2871,77.0,0,104,1.0,0.0
2872,66.0,120,104,0.0,0.0
2873,61.0,0,104,0.0,0.0
2874,66.0,28,104,0.0,0.0
2875,76.0,92,72,1.0,0.0
2876,66.0,0,104,0.0,0.0
2877,75.0,120,104,1.0,0.0
2878,59.0,0,104,0.0,0.0
2879,59.0,0,104,0.0,0.0
2880,66.0,29,104,0.0,0.0
2881,74.0,91,73,1.0,0.0
2882,66.0,0,104,0.0,0.0
2883,58.0,104,104,0.0,0.0
2884,73.0,16,208,1.0,0.0
2885,78.0,120,104,0.0,0.0
2886,78.0,120,104,0.0,0.0
2887,78.0,29,104,0.0,0.0
2888,75.0,0,73,1.0,0.0
2889,72.0,91,73,1.0,0.0
2890,73.0,0,208,1.0,0.0
2891,76.0,16,208,1.0,0.0
2892,78.0,104,104,0.0,0.0
2893,78.0,120,104,0.0,0.0
2894,78.0,120,104,0.0,0.0
2895,78.0,24,104,0.0,0.0
2896,77.0,3,72,1.0,0.0
2897,73.0,93,71,1.0,0.0
2898,78.0,104,104,0.0,0.0
2899,74.0,0,208,1.0,0.0
2900,78.0,16,208,1.0,0.0
2901,78.0,120,104,0.0,0.0
2902,78.0,120,104,0.0,0.0
2903,78.0,28,104,0.0,0.0
2904,78.0,0,72,1.0,0.0
2905,74.0,92,72,1.0,0.0
2906,78.0,0,104,0.0,0.0
2907,80.0,0,104,0.0,0.0
2908,77.0,0,104,1.0,0.0
2909,73.0,120,104,1.0,0.0
2910,78.0,0,104,0.0,0.0
2911,82.0,28,104,0.0,0.0
2912,73.0,92,72,1.0,0.0
2913,76.0,0,72,1.0,0.0
2914,75.0,0,104,1.0,0.0
2915,71.0,0,104,1.0,0.0
2916,78.0,120,104,0.0,0.0
2917,83.0,0,104,0.0,0.0
2918,78.0,18,104,0.0,0.0
2919,84.0,0,104,0.0,0.0
2920,74.0,196,72,1.0,0.0
2921,71.0,10,62,1.0,0.0
2922,79.0,0,208,0.0,0.0
2923,70.0,472,208,1.0,0.0
2924,73.0,0,208,1.0,0.0
2925,85.0,0,208,0.0,0.0
2926,76.0,0,208,0.0,0.0
2927,67.0,190,288,0.0,0.0
2928,73.0,18,255,0.0,0.0
2929,76.0,8,200,0.0,0.0
2930,34.0,32,208,1.0,0.0
2931,46.0,0,208,1.0,0.0
2932,70.0,24,250,0.0,0.0
2933,76.0,238,267,0.0,0.0
2934,79.0,8,244,0.0,0.0
2935,37.0,0,208,1.0,0.0
2936,49.0,12,208,1.0,0.0
2937,61.0,0,288,0.0,0.0
2938,66.0,0,273,0.0,0.0
2939,40.0,7,251,1.0,0.0
2940,52.0,1,250,1.0,0.0
2941,70.0,326,258,0.0,0.0
2942,50.0,44,420,1.0,0.0
2943,54.0,120,104,1.0,0.0
2944,71.0,84,260,0.0,0.0
2945,59.0,36,104,1.0,0.0
2946,78.0,84,500,0.0,0.0
2947,54.0,76,104,1.0,0.0
2948,59.0,120,104,1.0,0.0
2949,50.0,44,420,1.0,0.0
2950,54.0,120,104,1.0,0.0
2951,59.0,36,104,1.0,0.0
2952,76.0,40,140,0.0,0.0
2953,54.0,36,104,1.0,0.0
2954,74.0,0,104,0.0,0.0
2955,59.0,120,104,1.0,0.0
2956,73.0,84,260,0.0,0.0
2957,55.0,120,104,1.0,0.0
2958,52.0,44,420,1.0,0.0
2959,59.0,36,104,1.0,0.0
2960,79.0,84,500,0.0,0.0
2961,55.0,76,104,1.0,0.0
2962,59.0,120,104,1.0,0.0
2963,52.0,44,420,1.0,0.0
2964,55.0,120,104,1.0,0.0
2965,59.0,36,104,1.0,0.0
2966,76.0,40,140,0.0,0.0
2967,55.0,36,104,1.0,0.0
2968,73.0,0,104,0.0,0.0
2969,61.0,88,104,1.0,0.0
2970,77.0,32,72,0.0,0.0
2971,54.0,12,900,1.0,0.0
2972,59.0,28,104,1.0,0.0
2973,78.0,60,72,0.0,0.0
2974,62.0,28,104,1.0,0.0
2975,79.0,32,72,0.0,0.0
2976,78.0,60,72,0.0,0.0
2977,76.0,32,72,0.0,0.0
2978,59.0,28,104,1.0,0.0
2979,74.0,60,72,0.0,0.0
2980,62.0,28,104,1.0,0.0
2981,73.0,32,72,0.0,0.0
2982,71.0,60,72,0.0,0.0
2983,61.0,28,104,1.0,0.0
2984,70.0,32,72,0.0,0.0
2985,71.0,60,72,0.0,0.0
2986,73.0,32,72,0.0,0.0
2987,64.0,28,104,1.0,0.0
2988,74.0,60,72,0.0,0.0
2989,76.0,32,72,0.0,0.0
2990,61.0,28,104,1.0,0.0
2991,78.0,48,72,0.0,0.0
2992,79.0,32,72,0.0,0.0
2993,64.0,8,104,1.0,0.0
2994,78.0,112,52,0.0,0.0
2995,55.0,44,900,1.0,0.0
2996,76.0,60,372,0.0,0.0
2997,58.0,120,104,1.0,0.0
2998,61.0,120,104,1.0,0.0
2999,58.0,28,104,1.0,0.0
3000,78.0,32,72,0.0,0.0
3001,61.0,28,104,1.0,0.0
3002,76.0,92,72,0.0,0.0
3003,59.0,104,104,1.0,0.0
3004,74.0,16,208,0.0,0.0
3005,62.0,120,104,1.0,0.0
3006,59.0,76,104,1.0,0.0
3007,62.0,120,104,1.0,0.0
3008,50.0,0,104,1.0,0.0
3009,59.0,68,104,0.0,0.0
3010,59.0,8,104,1.0,0.0
3011,61.0,52,52,0.0,0.0
3012,62.0,60,52,0.0,0.0
3013,54.0,8,104,1.0,0.0
3014,64.0,52,52,0.0,0.0
3015,66.0,60,52,0.0,0.0
3016,68.0,52,52,0.0,0.0
3017,59.0,8,104,1.0,0.0
3018,70.0,60,52,0.0,0.0
3019,71.0,52,52,0.0,0.0
3020,50.0,8,104,1.0,0.0
3021,73.0,60,52,0.0,0.0
3022,59.0,8,104,1.0,0.0
3023,74.0,52,52,0.0,0.0
3024,76.0,60,52,0.0,0.0
3025,78.0,52,52,0.0,0.0
3026,54.0,8,104,1.0,0.0
3027,80.0,60,52,0.0,0.0
3028,59.0,8,104,1.0,0.0
3029,82.0,52,52,0.0,0.0
3030,83.0,76,52,0.0,0.0
3031,52.0,44,104,1.0,0.0
3032,60.0,36,68,0.0,0.0
3033,64.0,76,72,0.0,0.0
3034,60.0,4,104,1.0,0.0
3035,67.0,80,72,0.0,0.0
3036,55.0,44,104,1.0,0.0
3037,72.0,36,68,0.0,0.0
3038,76.0,76,72,0.0,0.0
3039,60.0,4,104,1.0,0.0
3040,79.0,107,72,0.0,0.0
3041,84.0,9,95,0.0,0.0
3042,52.0,72,104,1.0,0.0
3043,76.0,48,100,0.0,0.0
3044,60.0,32,104,1.0,0.0
3045,79.0,79,100,0.0,0.0
3046,72.0,9,95,0.0,0.0
3047,55.0,72,104,1.0,0.0
3048,76.0,48,100,0.0,0.0
3049,60.0,4,104,1.0,0.0
3050,67.0,216,72,0.0,0.0
3051,62.0,252,488,1.0,0.0
3052,54.0,8,952,1.0,0.0
3053,78.0,28,204,0.0,0.0
3054,74.0,256,52,0.0,0.0
3055,71.0,124,500,0.0,0.0
3056,64.0,420,480,1.0,0.0
3057,70.0,8,224,0.0,0.0
3058,74.0,80,144,0.0,0.0
3059,73.0,0,104,0.0,0.0
3060,71.0,80,420,0.0,0.0
3061,59.0,228,500,1.0,0.0
3062,54.0,200,248,1.0,0.0
3063,62.0,136,208,1.0,0.0
3064,64.0,16,208,1.0,0.0
3065,61.0,104,104,1.0,0.0
3066,70.0,80,504,0.0,0.0
3067,54.0,120,104,1.0,0.0
3068,61.0,104,104,1.0,0.0
3069,64.0,16,208,1.0,0.0
3070,54.0,40,104,1.0,0.0
3071,66.0,84,260,0.0,0.0
3072,64.0,16,208,1.0,0.0
3073,61.0,104,104,1.0,0.0
3074,54.0,36,104,1.0,0.0
3075,64.0,16,208,1.0,0.0
3076,61.0,104,104,1.0,0.0
3077,82.0,0,208,0.0,0.0
3078,54.0,36,104,1.0,0.0
3079,59.0,48,504,1.0,0.0
3080,83.0,112,20,0.0,0.0
3081,78.0,60,72,0.0,0.0
3082,77.0,60,72,0.0,0.0
3083,79.0,60,72,0.0,0.0
3084,78.0,60,72,0.0,0.0
3085,74.0,60,72,0.0,0.0
3086,73.0,60,72,0.0,0.0
3087,76.0,12,72,0.0,0.0
3088,54.0,48,264,1.0,0.0
3089,74.0,60,72,0.0,0.0
3090,71.0,60,72,0.0,0.0
3091,70.0,60,72,0.0,0.0
3092,73.0,12,72,0.0,0.0
3093,62.0,24,208,1.0,0.0
3094,71.0,60,72,0.0,0.0
3095,66.0,60,72,0.0,0.0
3096,65.0,16,72,0.0,0.0
3097,67.0,80,52,0.0,0.0
3098,66.0,32,72,0.0,0.0
3099,64.0,16,208,1.0,0.0
3100,61.0,28,104,1.0,0.0
3101,67.0,60,72,0.0,0.0
3102,66.0,16,72,0.0,0.0
3103,54.0,28,104,1.0,0.0
3104,65.0,60,72,0.0,0.0
3105,64.0,16,208,1.0,0.0
3106,66.0,32,72,0.0,0.0
3107,61.0,28,104,1.0,0.0
3108,67.0,60,72,0.0,0.0
3109,54.0,8,104,1.0,0.0
3110,68.0,16,72,0.0,0.0
3111,69.0,28,52,0.0,0.0
3112,64.0,16,208,1.0,0.0
3113,61.0,36,104,1.0,0.0
3114,70.0,60,20,0.0,0.0
3115,71.0,24,20,0.0,0.0
3116,54.0,36,104,1.0,0.0
3117,73.0,60,20,0.0,0.0
3118,74.0,8,20,0.0,0.0
3119,76.0,60,20,0.0,0.0
3120,64.0,16,208,1.0,0.0
3121,61.0,36,104,1.0,0.0
3122,78.0,24,20,0.0,0.0
3123,79.0,60,20,0.0,0.0
3124,54.0,516,104,1.0,0.0
3125,82.0,8,20,0.0,0.0
3126,61.0,0,500,1.0,0.0
3127,64.0,0,500,1.0,0.0
3128,82.0,4,500,0.0,0.0
3129,54.0,184,504,1.0,0.0
3130,62.0,0,208,1.0,0.0
3131,59.0,0,208,1.0,0.0
3132,83.0,768,208,0.0,0.0
3133,83.0,0,508,0.0,0.0
3134,62.0,12,496,1.0,0.0
3135,59.0,180,508,1.0,0.0
3136,84.0,0,208,0.0,0.0
3137,57.0,0,208,1.0,0.0
3138,66.0,740,208,1.0,0.0
3139,63.0,0,208,1.0,0.0
3140,59.0,32,468,1.0,0.0
3141,83.0,4,500,0.0,0.0
3142,56.0,0,500,1.0,0.0
3143,64.0,184,504,1.0,0.0
3144,86.0,0,208,0.0,0.0
3145,65.0,537,208,1.0,0.0
3146,55.0,0,208,1.0,0.0
3147,59.0,0,208,1.0,0.0
3148,42.0,17,488,1.0,0.0
3149,83.0,120,145,0.0,0.0
3150,82.0,103,145,0.0,0.0
3151,81.0,120,145,0.0,0.0
3152,80.0,120,145,0.0,0.0
3153,79.0,120,145,0.0,0.0
3154,78.0,120,145,0.0,0.0
3155,77.0,100,145,0.0,0.0
3156,54.0,24,1444,1.0,0.0
3157,61.0,0,125,1.0,0.0
3158,58.0,120,125,1.0,0.0
3159,78.0,88,1096,0.0,0.0
3160,59.0,0,125,1.0,0.0
3161,62.0,120,125,1.0,0.0
3162,58.0,0,125,1.0,0.0
3163,61.0,120,125,1.0,0.0
3164,59.0,120,125,1.0,0.0
3165,62.0,0,125,1.0,0.0
3166,61.0,0,125,1.0,0.0
3167,64.0,120,125,1.0,0.0
3168,59.0,0,125,1.0,0.0
3169,62.0,99,125,1.0,0.0
3170,61.0,21,104,1.0,0.0
3171,64.0,120,125,1.0,0.0
3172,61.0,0,125,1.0,0.0
3173,58.0,131,125,1.0,0.0
3174,59.0,0,484,1.0,0.0
3175,62.0,4,480,1.0,0.0
3176,86.0,44,104,0.0,0.0
3177,85.0,80,28,0.0,0.0
3178,84.0,80,32,0.0,0.0
3179,83.0,52,32,0.0,0.0
3180,82.0,80,28,0.0,0.0
3181,81.0,80,32,0.0,0.0
3182,80.0,80,32,0.0,0.0
3183,79.0,80,28,0.0,0.0
3184,78.0,80,32,0.0,0.0
3185,77.0,177,32,0.0,0.0
3186,61.0,120,125,1.0,0.0
3187,58.0,0,125,1.0,0.0
3188,54.0,0,1448,1.0,0.0
3189,78.0,60,1032,0.0,0.0
3190,59.0,120,125,1.0,0.0
3191,62.0,0,125,1.0,0.0
3192,61.0,120,125,1.0,0.0
3193,58.0,0,125,1.0,0.0
3194,59.0,120,125,1.0,0.0
3195,62.0,0,125,1.0,0.0
3196,61.0,0,125,1.0,0.0
3197,64.0,120,125,1.0,0.0
3198,62.0,0,125,1.0,0.0
3199,59.0,87,125,1.0,0.0
3200,64.0,120,125,1.0,0.0
3201,61.0,33,92,1.0,0.0
3202,61.0,67,125,1.0,0.0
3203,58.0,0,125,1.0,0.0
3204,62.0,8,480,1.0,0.0
3205,59.0,36,488,1.0,0.0
3206,74.0,60,72,0.0,0.0
3207,86.0,60,72,0.0,0.0
3208,74.0,60,72,0.0,0.0
3209,85.0,60,72,0.0,0.0
3210,73.0,60,72,0.0,0.0
3211,84.0,40,72,0.0,0.0
3212,72.0,8,52,0.0,0.0
3213,83.0,42,44,0.0,0.0
3214,71.0,40,50,0.0,0.0
3215,82.0,40,50,0.0,0.0
3216,70.0,40,50,0.0,0.0
3217,81.0,26,50,0.0,0.0
3218,69.0,80,36,0.0,0.0
3219,80.0,60,72,0.0,0.0
3220,68.0,60,72,0.0,0.0
3221,79.0,40,72,0.0,0.0
3222,67.0,133,52,0.0,0.0
3223,78.0,37,208,0.0,0.0
3224,66.0,0,208,0.0,0.0
3225,58.0,83,125,1.0,0.0
3226,61.0,0,125,1.0,0.0
3227,54.0,137,968,1.0,0.0
3228,59.0,120,125,1.0,0.0
3229,62.0,0,125,1.0,0.0
3230,58.0,0,125,1.0,0.0
3231,66.0,0,208,0.0,0.0
3232,78.0,37,208,0.0,0.0
3233,61.0,83,125,1.0,0.0
3234,62.0,0,125,1.0,0.0
3235,59.0,120,125,1.0,0.0
3236,66.0,0,208,0.0,0.0
3237,78.0,37,208,0.0,0.0
3238,61.0,0,125,1.0,0.0
3239,64.0,83,125,1.0,0.0
3240,59.0,95,125,1.0,0.0
3241,62.0,0,125,1.0,0.0
3242,61.0,25,100,1.0,0.0
3243,66.0,0,208,0.0,0.0
3244,78.0,37,208,0.0,0.0
3245,64.0,83,125,1.0,0.0
3246,61.0,0,125,1.0,0.0
3247,58.0,3,125,1.0,0.0
3248,59.0,5,380,1.0,0.0
3249,47.0,0,900,1.0,0.0
3250,75.0,120,145,0.0,0.0
3251,71.0,115,145,0.0,0.0
3252,66.0,79,145,0.0,0.0
3253,78.0,38,104,0.0,0.0
3254,57.0,120,142,1.0,0.0
3255,56.0,114,142,1.0,0.0
3256,76.0,24,420,0.0,0.0
3257,68.0,6,136,0.0,0.0
3258,52.0,114,142,1.0,0.0
3259,58.0,38,142,1.0,0.0
3260,73.0,6,136,0.0,0.0
3261,70.0,152,104,0.0,0.0
3262,54.0,20,84,1.0,0.0
3263,75.0,120,136,0.0,0.0
3264,47.0,158,1064,1.0,0.0
3265,59.0,68,384,1.0,0.0
3266,71.0,120,136,0.0,0.0
3267,66.0,8,136,0.0,0.0
3268,57.0,120,142,1.0,0.0
3269,78.0,38,104,0.0,0.0
3270,56.0,114,142,1.0,0.0
3271,76.0,44,420,0.0,0.0
3272,52.0,114,142,1.0,0.0
3273,68.0,6,136,0.0,0.0
3274,58.0,38,142,1.0,0.0
3275,73.0,6,136,0.0,0.0
3276,54.0,0,104,1.0,0.0
3277,70.0,120,104,0.0,0.0
3278,59.0,0,104,1.0,0.0
3279,75.0,0,104,0.0,0.0
3280,66.0,0,104,0.0,0.0
3281,70.0,117,145,0.0,0.0
3282,76.0,0,145,0.0,0.0
3283,54.0,3,142,1.0,0.0
3284,61.0,0,142,1.0,0.0
3285,63.0,3,142,1.0,0.0
3286,59.0,0,142,1.0,0.0
3287,71.0,0,145,0.0,0.0
3288,75.0,117,145,0.0,0.0
3289,61.0,0,142,1.0,0.0
3290,76.0,0,145,0.0,0.0
3291,54.0,3,142,1.0,0.0
3292,70.0,117,145,0.0,0.0
3293,75.0,0,145,0.0,0.0
3294,63.0,3,142,1.0,0.0
3295,59.0,0,142,1.0,0.0
3296,71.0,117,145,0.0,0.0
3297,54.0,3,142,1.0,0.0
3298,61.0,0,142,1.0,0.0
3299,76.0,117,145,0.0,0.0
3300,70.0,0,145,0.0,0.0
3301,71.0,0,145,0.0,0.0
3302,75.0,117,145,0.0,0.0
3303,63.0,3,142,1.0,0.0
3304,59.0,0,142,1.0,0.0
3305,54.0,0,142,1.0,0.0
3306,70.0,0,145,0.0,0.0
3307,76.0,183,145,0.0,0.0
3308,61.0,3,142,1.0,0.0
3309,59.0,0,208,1.0,0.0
3310,63.0,256,208,1.0,0.0
3311,71.0,0,208,0.0,0.0
3312,75.0,0,208,0.0,0.0
3313,49.0,0,104,1.0,0.0
3314,64.0,0,104,0.0,0.0
3315,58.0,0,104,0.0,0.0
3316,66.0,0,104,0.0,0.0
3317,42.0,224,104,1.0,0.0
3318,47.0,0,208,1.0,0.0
3319,51.0,0,208,1.0,0.0
3320,66.0,256,208,0.0,0.0
3321,63.0,0,208,0.0,0.0
3322,59.0,0,208,0.0,0.0
3323,42.0,0,104,1.0,0.0
3324,54.0,0,104,0.0,0.0
3325,46.0,224,104,0.0,0.0
3326,52.0,0,104,0.0,0.0
3327,35.0,0,208,1.0,0.0
3328,47.0,0,208,0.0,0.0
3329,51.0,0,208,0.0,0.0
3330,54.0,0,208,0.0,0.0
