,note,step,duration,channel,velocity
0,64.0,0,60,4.0,80.0
1,48.0,0,60,5.0,80.0
2,72.0,0,95,4.0,80.0
3,84.0,0,47,4.0,80.0
4,48.0,0,60,5.0,80.0
5,76.0,120,60,4.0,80.0
6,48.0,0,190,3.0,80.0
7,72.0,0,190,0.0,80.0
8,64.0,0,190,1.0,80.0
9,83.0,60,47,4.0,80.0
10,77.0,0,60,4.0,80.0
11,50.0,0,60,5.0,80.0
12,84.0,0,95,4.0,80.0
13,72.0,0,47,4.0,80.0
14,65.0,120,60,4.0,80.0
15,50.0,0,60,5.0,80.0
16,50.0,60,190,3.0,80.0
17,72.0,0,190,0.0,80.0
18,65.0,0,190,1.0,80.0
19,71.0,60,47,4.0,80.0
20,52.0,0,47,3.0,80.0
21,72.0,0,47,4.0,80.0
22,52.0,60,47,5.0,80.0
23,72.0,0,47,0.0,80.0
24,67.0,0,47,1.0,80.0
25,50.0,0,47,3.0,80.0
26,74.0,0,47,4.0,80.0
27,50.0,0,47,5.0,80.0
28,71.0,60,47,0.0,80.0
29,65.0,0,47,1.0,80.0
30,76.0,0,47,4.0,80.0
31,48.0,0,47,3.0,80.0
32,48.0,60,47,5.0,80.0
33,64.0,0,47,1.0,80.0
34,67.0,0,190,4.0,80.0
35,72.0,0,95,0.0,80.0
36,65.0,0,47,1.0,80.0
37,77.0,0,47,4.0,80.0
38,50.0,60,47,5.0,80.0
39,50.0,0,47,3.0,80.0
40,79.0,0,47,4.0,80.0
41,52.0,0,60,5.0,80.0
42,67.0,0,60,4.0,80.0
43,67.0,0,95,0.0,80.0
44,60.0,0,95,2.0,80.0
45,67.0,60,95,1.0,80.0
46,52.0,0,95,3.0,80.0
47,77.0,60,47,4.0,80.0
48,76.0,0,47,4.0,80.0
49,67.0,0,60,4.0,80.0
50,52.0,0,60,5.0,80.0
51,52.0,0,95,3.0,80.0
52,67.0,60,95,1.0,80.0
53,60.0,0,95,2.0,80.0
54,74.0,60,47,4.0,80.0
55,79.0,0,47,4.0,80.0
56,69.0,0,60,4.0,80.0
57,53.0,0,60,5.0,80.0
58,60.0,60,95,2.0,80.0
59,53.0,0,95,3.0,80.0
60,69.0,0,95,1.0,80.0
61,74.0,0,95,0.0,80.0
62,77.0,60,47,4.0,80.0
63,76.0,0,47,4.0,80.0
64,71.0,0,60,4.0,80.0
65,55.0,0,60,5.0,80.0
66,76.0,60,95,0.0,80.0
67,55.0,0,95,3.0,80.0
68,67.0,0,95,1.0,80.0
69,60.0,0,95,2.0,80.0
70,79.0,60,47,4.0,80.0
71,79.0,0,47,4.0,80.0
72,57.0,0,60,5.0,80.0
73,72.0,0,60,4.0,80.0
74,57.0,0,95,3.0,80.0
75,77.0,0,95,0.0,80.0
76,60.0,60,95,2.0,80.0
77,65.0,0,95,1.0,80.0
78,77.0,60,47,4.0,80.0
79,76.0,0,47,4.0,80.0
80,76.0,0,47,0.0,80.0
81,59.0,0,60,5.0,80.0
82,67.0,0,60,4.0,80.0
83,67.0,60,95,1.0,80.0
84,59.0,0,95,3.0,80.0
85,62.0,0,95,2.0,80.0
86,74.0,0,47,0.0,80.0
87,74.0,60,47,4.0,80.0
88,76.0,0,47,4.0,80.0
89,76.0,0,47,0.0,80.0
90,60.0,0,47,2.0,80.0
91,60.0,0,60,5.0,80.0
92,67.0,0,60,4.0,80.0
93,67.0,60,95,1.0,80.0
94,60.0,0,95,3.0,80.0
95,62.0,60,47,2.0,80.0
96,74.0,0,47,0.0,80.0
97,74.0,0,47,4.0,80.0
98,72.0,0,47,4.0,80.0
99,67.0,0,60,4.0,80.0
100,48.0,60,60,5.0,80.0
101,48.0,0,95,3.0,80.0
102,72.0,0,95,0.0,80.0
103,64.0,0,95,2.0,80.0
104,67.0,0,95,1.0,80.0
105,76.0,60,47,4.0,80.0
106,79.0,60,47,4.0,80.0
107,67.0,0,60,4.0,80.0
108,52.0,0,60,5.0,80.0
109,76.0,60,47,4.0,80.0
110,77.0,0,47,4.0,80.0
111,71.0,0,60,4.0,80.0
112,55.0,60,60,5.0,80.0
113,74.0,60,47,4.0,80.0
114,72.0,0,60,4.0,80.0
115,60.0,120,60,4.0,80.0
116,60.0,0,190,5.0,80.0
117,67.0,60,287,0.0,80.0
118,64.0,0,287,1.0,80.0
119,60.0,120,60,4.0,80.0
120,65.0,120,47,1.0,80.0
121,69.0,0,47,0.0,80.0
122,60.0,0,60,4.0,80.0
123,64.0,60,47,1.0,80.0
124,67.0,0,47,0.0,80.0
125,60.0,0,60,4.0,80.0
126,60.0,120,60,4.0,80.0
127,64.0,0,287,1.0,80.0
128,67.0,60,287,0.0,80.0
129,60.0,120,60,4.0,80.0
130,76.0,0,47,0.0,80.0
131,67.0,120,47,1.0,80.0
132,60.0,0,60,4.0,80.0
133,64.0,60,47,1.0,80.0
134,72.0,0,47,0.0,80.0
135,57.0,0,60,4.0,80.0
136,57.0,120,60,4.0,80.0
137,67.0,0,190,0.0,80.0
138,64.0,60,190,1.0,80.0
139,65.0,0,22,0.0,80.0
140,62.0,0,22,1.0,80.0
141,67.0,30,22,0.0,80.0
142,64.0,0,22,1.0,80.0
143,59.0,120,60,4.0,80.0
144,62.0,0,22,1.0,80.0
145,65.0,30,22,0.0,80.0
146,64.0,30,22,1.0,80.0
147,67.0,0,22,0.0,80.0
148,62.0,0,47,1.0,80.0
149,65.0,30,47,0.0,80.0
150,59.0,0,60,4.0,80.0
151,60.0,0,47,1.0,80.0
152,64.0,60,47,0.0,80.0
153,60.0,60,60,4.0,80.0
154,76.0,0,47,4.0,80.0
155,72.0,0,47,4.0,80.0
156,48.0,120,60,5.0,80.0
157,60.0,0,190,1.0,80.0
158,64.0,0,190,0.0,80.0
159,79.0,0,47,4.0,80.0
160,76.0,60,47,4.0,80.0
161,76.0,0,47,4.0,80.0
162,79.0,60,47,4.0,80.0
163,52.0,0,60,5.0,80.0
164,76.0,60,47,4.0,80.0
165,72.0,0,47,4.0,80.0
166,77.0,0,47,4.0,80.0
167,74.0,0,47,4.0,80.0
168,55.0,60,60,5.0,80.0
169,71.0,0,47,4.0,80.0
170,74.0,60,47,4.0,80.0
171,48.0,0,60,5.0,80.0
172,67.0,0,60,4.0,80.0
173,72.0,0,60,4.0,80.0
174,60.0,120,60,4.0,80.0
175,48.0,0,60,5.0,80.0
176,52.0,0,287,3.0,80.0
177,55.0,60,287,2.0,80.0
178,48.0,120,60,5.0,80.0
179,53.0,0,47,3.0,80.0
180,57.0,0,47,2.0,80.0
181,48.0,120,60,5.0,80.0
182,55.0,0,47,2.0,80.0
183,52.0,60,47,3.0,80.0
184,48.0,0,60,5.0,80.0
185,48.0,120,60,5.0,80.0
186,52.0,60,287,3.0,80.0
187,55.0,0,287,2.0,80.0
188,48.0,120,60,5.0,80.0
189,55.0,0,47,3.0,80.0
190,64.0,0,47,2.0,80.0
191,48.0,120,60,5.0,80.0
192,52.0,0,47,3.0,80.0
193,60.0,60,47,2.0,80.0
194,45.0,60,60,5.0,80.0
195,45.0,120,60,5.0,80.0
196,52.0,0,190,3.0,80.0
197,55.0,0,190,2.0,80.0
198,53.0,0,22,2.0,80.0
199,50.0,0,22,3.0,80.0
200,55.0,30,22,2.0,80.0
201,52.0,0,22,3.0,80.0
202,47.0,120,60,5.0,80.0
203,53.0,30,22,2.0,80.0
204,50.0,0,22,3.0,80.0
205,52.0,0,22,3.0,80.0
206,55.0,30,22,2.0,80.0
207,53.0,0,47,2.0,80.0
208,50.0,0,47,3.0,80.0
209,47.0,30,60,5.0,80.0
210,52.0,60,47,2.0,80.0
211,48.0,0,47,3.0,80.0
212,48.0,60,60,5.0,80.0
213,60.0,60,47,4.0,80.0
214,64.0,0,47,4.0,80.0
215,52.0,60,47,5.0,80.0
216,48.0,0,190,3.0,80.0
217,52.0,0,190,2.0,80.0
218,55.0,60,47,5.0,80.0
219,67.0,0,47,4.0,80.0
220,72.0,0,47,4.0,80.0
221,60.0,60,95,3.0,80.0
222,72.0,0,95,0.0,80.0
223,64.0,0,95,2.0,80.0
224,60.0,0,95,5.0,80.0
225,67.0,0,95,1.0,80.0
226,76.0,60,47,4.0,80.0
227,64.0,0,107,4.0,80.0
228,74.0,0,47,4.0,80.0
229,55.0,0,95,3.0,80.0
230,67.0,60,95,1.0,80.0
231,59.0,0,95,2.0,80.0
232,74.0,0,95,0.0,80.0
233,55.0,0,95,5.0,80.0
234,77.0,60,47,4.0,80.0
235,67.0,0,107,4.0,80.0
236,71.0,0,107,4.0,80.0
237,76.0,0,47,4.0,80.0
238,76.0,0,95,0.0,80.0
239,60.0,0,95,2.0,80.0
240,67.0,0,95,4.0,80.0
241,72.0,0,95,4.0,80.0
242,60.0,0,95,5.0,80.0
243,67.0,0,95,1.0,80.0
244,60.0,60,95,3.0,80.0
245,74.0,60,47,4.0,80.0
246,72.0,60,47,4.0,80.0
247,72.0,0,47,0.0,80.0
248,64.0,0,47,2.0,80.0
249,64.0,0,95,4.0,80.0
250,48.0,0,95,5.0,80.0
251,48.0,0,95,3.0,80.0
252,67.0,0,95,1.0,80.0
253,74.0,0,47,0.0,80.0
254,62.0,60,47,2.0,80.0
255,74.0,0,47,4.0,80.0
256,76.0,0,47,4.0,80.0
257,67.0,0,95,4.0,80.0
258,60.0,0,95,3.0,80.0
259,67.0,60,95,1.0,80.0
260,60.0,0,95,5.0,80.0
261,76.0,0,95,0.0,80.0
262,60.0,0,95,2.0,80.0
263,79.0,60,47,4.0,80.0
264,78.0,60,47,4.0,80.0
265,60.0,0,95,2.0,80.0
266,69.0,0,95,1.0,80.0
267,57.0,0,95,3.0,80.0
268,72.0,0,95,4.0,80.0
269,57.0,0,95,5.0,80.0
270,78.0,0,95,0.0,80.0
271,81.0,60,47,4.0,80.0
272,79.0,0,95,0.0,80.0
273,55.0,0,95,5.0,80.0
274,62.0,0,95,1.0,80.0
275,71.0,0,95,4.0,80.0
276,55.0,0,95,3.0,80.0
277,59.0,0,95,2.0,80.0
278,79.0,60,95,4.0,80.0
279,67.0,0,95,4.0,80.0
280,43.0,0,95,3.0,80.0
281,67.0,0,95,0.0,80.0
282,62.0,0,95,1.0,80.0
283,43.0,0,95,5.0,80.0
284,59.0,0,95,2.0,80.0
285,60.0,60,47,4.0,80.0
286,62.0,60,47,4.0,80.0
287,72.0,360,190,0.0,80.0
288,64.0,60,47,4.0,80.0
289,65.0,60,47,4.0,80.0
290,69.0,60,47,4.0,80.0
291,67.0,60,47,4.0,80.0
292,72.0,0,190,0.0,80.0
293,65.0,60,47,4.0,80.0
294,64.0,60,47,4.0,80.0
295,72.0,0,95,0.0,80.0
296,62.0,60,47,4.0,80.0
297,60.0,0,47,4.0,80.0
298,72.0,60,47,0.0,80.0
299,72.0,0,47,0.0,80.0
300,62.0,60,47,4.0,80.0
301,64.0,60,47,4.0,80.0
302,72.0,0,95,0.0,80.0
303,60.0,60,47,4.0,80.0
304,72.0,60,47,0.0,80.0
305,62.0,0,47,4.0,80.0
306,64.0,0,47,4.0,80.0
307,72.0,60,47,0.0,80.0
308,65.0,60,47,4.0,80.0
309,62.0,60,47,4.0,80.0
310,64.0,60,47,4.0,80.0
311,65.0,60,47,4.0,80.0
312,67.0,60,47,4.0,80.0
313,69.0,60,47,4.0,80.0
314,74.0,0,382,0.0,80.0
315,65.0,60,47,4.0,80.0
316,67.0,60,47,4.0,80.0
317,64.0,60,47,4.0,80.0
318,65.0,60,47,4.0,80.0
319,62.0,60,47,4.0,80.0
320,72.0,0,190,0.0,80.0
321,64.0,60,47,4.0,80.0
322,60.0,60,47,4.0,80.0
323,72.0,0,95,0.0,80.0
324,62.0,60,47,4.0,80.0
325,59.0,60,47,4.0,80.0
326,72.0,0,95,0.0,80.0
327,60.0,60,47,4.0,80.0
328,57.0,60,47,4.0,80.0
329,57.0,60,47,4.0,80.0
330,59.0,60,47,4.0,80.0
331,72.0,0,190,0.0,80.0
332,60.0,60,47,4.0,80.0
333,62.0,0,47,4.0,80.0
334,72.0,60,95,0.0,80.0
335,60.0,60,47,4.0,80.0
336,59.0,60,47,4.0,80.0
337,72.0,0,95,0.0,80.0
338,57.0,60,47,4.0,80.0
339,55.0,0,47,4.0,80.0
340,67.0,60,47,4.0,80.0
341,65.0,60,47,4.0,80.0
342,71.0,60,190,0.0,80.0
343,67.0,60,47,4.0,80.0
344,64.0,60,47,4.0,80.0
345,62.0,60,47,4.0,80.0
346,60.0,60,47,4.0,80.0
347,72.0,0,190,0.0,80.0
348,59.0,60,47,4.0,80.0
349,60.0,60,47,4.0,80.0
350,57.0,60,47,4.0,80.0
351,59.0,60,47,4.0,80.0
352,60.0,60,47,4.0,80.0
353,62.0,60,47,4.0,80.0
354,64.0,60,47,4.0,80.0
355,69.0,0,382,0.0,80.0
356,60.0,60,47,4.0,80.0
357,62.0,60,47,4.0,80.0
358,59.0,0,47,4.0,80.0
359,43.0,60,47,5.0,80.0
360,55.0,0,47,4.0,80.0
361,59.0,60,47,4.0,80.0
362,47.0,0,47,5.0,80.0
363,67.0,60,190,0.0,80.0
364,62.0,60,47,4.0,80.0
365,50.0,0,47,5.0,80.0
366,55.0,0,47,5.0,80.0
367,55.0,0,47,3.0,80.0
368,59.0,0,47,2.0,80.0
369,74.0,0,95,4.0,80.0
370,74.0,0,95,0.0,80.0
371,67.0,60,95,4.0,80.0
372,67.0,0,95,1.0,80.0
373,57.0,0,47,3.0,80.0
374,57.0,60,47,5.0,80.0
375,60.0,0,47,2.0,80.0
376,62.0,0,47,2.0,80.0
377,59.0,0,47,5.0,80.0
378,59.0,0,47,3.0,80.0
379,74.0,0,95,4.0,80.0
380,74.0,60,95,0.0,80.0
381,67.0,0,95,4.0,80.0
382,67.0,0,95,1.0,80.0
383,55.0,0,47,5.0,80.0
384,59.0,60,47,2.0,80.0
385,55.0,0,47,3.0,80.0
386,76.0,0,47,4.0,80.0
387,76.0,0,95,0.0,80.0
388,60.0,0,95,2.0,80.0
389,72.0,60,47,4.0,80.0
390,76.0,60,47,4.0,80.0
391,67.0,0,190,4.0,80.0
392,67.0,60,190,1.0,80.0
393,60.0,0,190,3.0,80.0
394,60.0,0,190,5.0,80.0
395,62.0,0,95,2.0,80.0
396,74.0,0,95,0.0,80.0
397,79.0,60,47,4.0,80.0
398,84.0,0,47,4.0,80.0
399,79.0,0,47,4.0,80.0
400,72.0,0,47,4.0,80.0
401,60.0,60,47,5.0,80.0
402,55.0,60,47,5.0,80.0
403,67.0,0,47,4.0,80.0
404,64.0,0,190,2.0,80.0
405,48.0,0,190,3.0,80.0
406,72.0,0,190,0.0,80.0
407,67.0,60,190,1.0,80.0
408,64.0,0,47,4.0,80.0
409,52.0,60,47,5.0,80.0
410,48.0,0,95,5.0,80.0
411,60.0,60,95,4.0,80.0
412,60.0,120,95,5.0,80.0
413,64.0,0,95,4.0,80.0
414,72.0,0,95,4.0,80.0
415,72.0,120,190,4.0,80.0
416,64.0,0,190,4.0,80.0
417,60.0,0,190,5.0,80.0
418,48.0,0,190,5.0,80.0
419,48.0,60,47,5.0,80.0
420,50.0,60,47,5.0,80.0
421,60.0,240,190,2.0,80.0
422,52.0,60,47,5.0,80.0
423,53.0,0,47,5.0,80.0
424,57.0,60,47,5.0,80.0
425,55.0,60,47,5.0,80.0
426,60.0,60,190,2.0,80.0
427,53.0,60,47,5.0,80.0
428,52.0,0,47,5.0,80.0
429,60.0,60,95,2.0,80.0
430,50.0,60,47,5.0,80.0
431,48.0,60,47,5.0,80.0
432,60.0,0,47,2.0,80.0
433,50.0,60,47,5.0,80.0
434,60.0,0,47,2.0,80.0
435,52.0,60,47,5.0,80.0
436,60.0,0,95,2.0,80.0
437,48.0,60,47,5.0,80.0
438,60.0,60,47,2.0,80.0
439,50.0,0,47,5.0,80.0
440,60.0,60,47,2.0,80.0
441,52.0,0,47,5.0,80.0
442,53.0,60,47,5.0,80.0
443,50.0,60,47,5.0,80.0
444,52.0,60,47,5.0,80.0
445,53.0,60,47,5.0,80.0
446,55.0,60,47,5.0,80.0
447,57.0,60,47,5.0,80.0
448,62.0,0,382,2.0,80.0
449,53.0,60,47,5.0,80.0
450,55.0,60,47,5.0,80.0
451,52.0,0,47,5.0,80.0
452,53.0,60,47,5.0,80.0
453,55.0,60,47,5.0,80.0
454,60.0,60,190,2.0,80.0
455,53.0,60,47,5.0,80.0
456,52.0,60,47,5.0,80.0
457,60.0,0,95,2.0,80.0
458,50.0,60,47,5.0,80.0
459,52.0,0,47,5.0,80.0
460,60.0,60,95,2.0,80.0
461,48.0,60,47,5.0,80.0
462,50.0,60,47,5.0,80.0
463,52.0,60,47,5.0,80.0
464,54.0,60,47,5.0,80.0
465,60.0,0,190,2.0,80.0
466,55.0,60,47,5.0,80.0
467,57.0,0,47,5.0,80.0
468,60.0,60,95,2.0,80.0
469,54.0,60,47,5.0,80.0
470,52.0,60,47,5.0,80.0
471,60.0,0,95,2.0,80.0
472,50.0,60,47,5.0,80.0
473,55.0,60,47,5.0,80.0
474,54.0,60,47,5.0,80.0
475,52.0,60,47,5.0,80.0
476,59.0,0,190,2.0,80.0
477,50.0,60,47,5.0,80.0
478,52.0,60,47,5.0,80.0
479,50.0,60,47,5.0,80.0
480,48.0,60,47,5.0,80.0
481,60.0,0,190,2.0,80.0
482,47.0,60,47,5.0,80.0
483,48.0,0,47,5.0,80.0
484,45.0,60,47,5.0,80.0
485,47.0,60,47,5.0,80.0
486,48.0,60,47,5.0,80.0
487,50.0,60,47,5.0,80.0
488,48.0,60,47,5.0,80.0
489,57.0,60,382,2.0,80.0
490,47.0,60,47,5.0,80.0
491,45.0,60,47,5.0,80.0
492,47.0,60,47,5.0,80.0
493,43.0,60,47,5.0,80.0
494,55.0,0,47,4.0,80.0
495,59.0,0,47,4.0,80.0
496,47.0,60,47,5.0,80.0
497,55.0,0,190,2.0,80.0
498,62.0,60,47,4.0,80.0
499,50.0,0,47,5.0,80.0
500,67.0,0,47,4.0,80.0
501,55.0,0,47,3.0,80.0
502,55.0,0,47,5.0,80.0
503,67.0,0,95,1.0,80.0
504,74.0,0,95,0.0,80.0
505,59.0,60,95,2.0,80.0
506,71.0,0,47,4.0,80.0
507,57.0,0,47,5.0,80.0
508,57.0,60,47,3.0,80.0
509,55.0,0,47,3.0,80.0
510,55.0,60,47,5.0,80.0
511,74.0,0,47,4.0,80.0
512,59.0,0,95,2.0,80.0
513,67.0,0,95,1.0,80.0
514,74.0,0,95,0.0,80.0
515,53.0,60,47,5.0,80.0
516,71.0,0,47,4.0,80.0
517,53.0,0,47,3.0,80.0
518,72.0,0,47,4.0,80.0
519,52.0,0,60,5.0,80.0
520,60.0,60,95,2.0,80.0
521,72.0,0,95,0.0,80.0
522,67.0,0,95,1.0,80.0
523,52.0,0,95,3.0,80.0
524,74.0,60,47,4.0,80.0
525,76.0,0,47,4.0,80.0
526,60.0,0,47,2.0,80.0
527,76.0,0,47,0.0,80.0
528,48.0,60,60,5.0,80.0
529,67.0,0,190,4.0,80.0
530,67.0,0,95,1.0,80.0
531,48.0,0,95,3.0,80.0
532,62.0,0,47,2.0,80.0
533,74.0,60,47,0.0,80.0
534,74.0,0,47,4.0,80.0
535,72.0,0,47,4.0,80.0
536,72.0,60,47,0.0,80.0
537,48.0,0,60,5.0,80.0
538,48.0,0,95,3.0,80.0
539,64.0,0,95,2.0,80.0
540,67.0,0,95,1.0,80.0
541,71.0,60,47,4.0,80.0
542,71.0,0,47,0.0,80.0
543,69.0,0,47,0.0,80.0
544,69.0,0,47,4.0,80.0
545,49.0,0,60,5.0,80.0
546,64.0,0,190,4.0,80.0
547,64.0,0,95,1.0,80.0
548,49.0,0,95,3.0,80.0
549,57.0,60,95,2.0,80.0
550,67.0,0,47,4.0,80.0
551,67.0,60,47,0.0,80.0
552,50.0,0,60,5.0,80.0
553,66.0,0,95,4.0,80.0
554,57.0,0,95,2.0,80.0
555,66.0,0,95,0.0,80.0
556,50.0,0,95,3.0,80.0
557,62.0,60,95,1.0,80.0
558,81.0,0,47,4.0,80.0
559,50.0,0,60,5.0,80.0
560,62.0,0,190,4.0,80.0
561,66.0,0,95,1.0,80.0
562,50.0,120,95,3.0,80.0
563,74.0,0,95,0.0,80.0
564,57.0,0,95,2.0,80.0
565,78.0,60,47,4.0,80.0
566,50.0,0,60,5.0,80.0
567,62.0,0,95,2.0,80.0
568,74.0,60,95,4.0,80.0
569,62.0,0,95,4.0,80.0
570,50.0,0,60,5.0,80.0
571,74.0,0,95,4.0,80.0
572,62.0,0,95,2.0,80.0
573,62.0,120,95,4.0,80.0
574,74.0,0,47,4.0,80.0
575,78.0,60,47,4.0,80.0
576,81.0,60,47,4.0,80.0
577,62.0,0,190,4.0,80.0
578,62.0,120,190,5.0,80.0
579,79.0,60,47,4.0,80.0
580,78.0,60,47,4.0,80.0
581,54.0,0,95,5.0,80.0
582,69.0,0,95,4.0,80.0
583,69.0,0,95,1.0,80.0
584,54.0,0,95,3.0,80.0
585,72.0,0,95,0.0,80.0
586,76.0,60,47,4.0,80.0
587,62.0,0,382,2.0,80.0
588,74.0,0,47,4.0,80.0
589,54.0,0,95,5.0,80.0
590,69.0,0,95,4.0,80.0
591,54.0,0,95,3.0,80.0
592,69.0,0,95,1.0,80.0
593,72.0,60,95,0.0,80.0
594,72.0,60,47,4.0,80.0
595,72.0,0,47,4.0,80.0
596,69.0,0,95,1.0,80.0
597,69.0,60,47,4.0,80.0
598,74.0,60,47,4.0,80.0
599,54.0,0,190,3.0,80.0
600,62.0,0,190,2.0,80.0
601,54.0,60,190,5.0,80.0
602,62.0,0,95,1.0,80.0
603,72.0,60,47,4.0,80.0
604,79.0,0,95,4.0,80.0
605,67.0,0,95,1.0,80.0
606,71.0,0,95,4.0,80.0
607,55.0,60,190,5.0,80.0
608,55.0,0,190,3.0,80.0
609,79.0,0,95,4.0,80.0
610,67.0,0,95,4.0,80.0
611,67.0,120,95,1.0,80.0
612,79.0,0,47,4.0,80.0
613,83.0,60,47,4.0,80.0
614,86.0,60,47,4.0,80.0
615,67.0,0,190,4.0,80.0
616,84.0,60,47,4.0,80.0
617,83.0,60,47,4.0,80.0
618,65.0,0,95,2.0,80.0
619,74.0,0,95,0.0,80.0
620,47.0,0,95,3.0,80.0
621,74.0,0,95,4.0,80.0
622,47.0,0,95,5.0,80.0
623,81.0,60,47,4.0,80.0
624,67.0,120,382,1.0,80.0
625,79.0,0,47,4.0,80.0
626,74.0,0,95,0.0,80.0
627,74.0,0,95,4.0,80.0
628,47.0,0,95,5.0,80.0
629,65.0,0,95,2.0,80.0
630,47.0,60,95,3.0,80.0
631,77.0,60,47,4.0,80.0
632,77.0,0,47,4.0,80.0
633,74.0,60,47,4.0,80.0
634,79.0,60,47,4.0,80.0
635,47.0,0,190,5.0,80.0
636,74.0,0,190,0.0,80.0
637,67.0,0,190,1.0,80.0
638,65.0,0,190,2.0,80.0
639,67.0,60,190,4.0,80.0
640,47.0,0,190,3.0,80.0
641,77.0,60,47,4.0,80.0
642,76.0,0,47,4.0,80.0
643,67.0,0,47,1.0,80.0
644,64.0,0,47,2.0,80.0
645,74.0,60,47,4.0,80.0
646,65.0,0,47,1.0,80.0
647,62.0,0,47,2.0,80.0
648,60.0,60,47,2.0,80.0
649,64.0,0,47,1.0,80.0
650,72.0,0,47,4.0,80.0
651,67.0,0,190,4.0,80.0
652,48.0,0,190,5.0,80.0
653,48.0,60,190,3.0,80.0
654,72.0,0,190,0.0,80.0
655,62.0,0,47,1.0,80.0
656,71.0,0,47,4.0,80.0
657,59.0,60,47,2.0,80.0
658,69.0,0,47,4.0,80.0
659,62.0,0,95,1.0,80.0
660,50.0,60,95,3.0,80.0
661,57.0,0,95,2.0,80.0
662,50.0,0,95,5.0,80.0
663,66.0,0,95,0.0,80.0
664,66.0,0,95,4.0,80.0
665,74.0,60,47,4.0,80.0
666,78.0,0,47,4.0,80.0
667,62.0,0,95,1.0,80.0
668,48.0,0,95,5.0,80.0
669,57.0,0,95,2.0,80.0
670,48.0,0,95,3.0,80.0
671,69.0,60,95,4.0,80.0
672,66.0,0,95,0.0,80.0
673,74.0,60,47,4.0,80.0
674,79.0,0,47,4.0,80.0
675,47.0,0,95,3.0,80.0
676,62.0,0,95,1.0,80.0
677,57.0,0,95,2.0,80.0
678,67.0,60,95,4.0,80.0
679,47.0,0,95,5.0,80.0
680,74.0,60,47,4.0,80.0
681,45.0,0,47,3.0,80.0
682,45.0,0,47,5.0,80.0
683,60.0,0,47,2.0,80.0
684,72.0,0,47,4.0,80.0
685,67.0,0,95,4.0,80.0
686,62.0,60,95,1.0,80.0
687,71.0,0,47,4.0,80.0
688,43.0,0,47,3.0,80.0
689,43.0,60,47,5.0,80.0
690,59.0,0,47,2.0,80.0
691,69.0,0,47,4.0,80.0
692,50.0,60,95,3.0,80.0
693,50.0,0,95,5.0,80.0
694,67.0,0,335,0.0,80.0
695,79.0,60,47,4.0,80.0
696,78.0,60,47,4.0,80.0
697,66.0,0,47,0.0,80.0
698,50.0,0,95,5.0,80.0
699,50.0,0,95,3.0,80.0
700,64.0,60,47,0.0,80.0
701,76.0,0,47,4.0,80.0
702,78.0,0,47,4.0,80.0
703,50.0,0,95,5.0,80.0
704,69.0,60,47,4.0,80.0
705,62.0,0,382,1.0,80.0
706,57.0,0,382,2.0,80.0
707,71.0,60,47,4.0,80.0
708,66.0,0,190,0.0,80.0
709,69.0,60,10,4.0,80.0
710,50.0,60,190,3.0,80.0
711,50.0,0,95,5.0,80.0
712,67.0,0,47,4.0,80.0
713,43.0,0,95,5.0,80.0
714,74.0,60,47,4.0,80.0
715,79.0,0,47,4.0,80.0
716,67.0,0,190,0.0,80.0
717,55.0,60,190,2.0,80.0
718,43.0,0,190,3.0,80.0
719,62.0,0,190,1.0,80.0
720,47.0,60,95,5.0,80.0
721,71.0,60,47,4.0,80.0
722,69.0,0,47,4.0,80.0
723,50.0,60,95,5.0,80.0
724,79.0,60,47,4.0,80.0
725,69.0,60,47,4.0,80.0
726,50.0,0,95,5.0,80.0
727,78.0,60,47,4.0,80.0
728,43.0,60,60,5.0,80.0
729,55.0,120,60,5.0,80.0
730,71.0,0,190,4.0,80.0
731,79.0,0,190,4.0,80.0
732,74.0,0,287,0.0,80.0
733,59.0,0,287,2.0,80.0
734,55.0,120,60,5.0,80.0
735,76.0,0,47,0.0,80.0
736,60.0,0,47,2.0,80.0
737,55.0,120,60,5.0,80.0
738,74.0,0,47,0.0,80.0
739,59.0,60,47,2.0,80.0
740,55.0,60,60,5.0,80.0
741,55.0,120,60,5.0,80.0
742,74.0,0,287,0.0,80.0
743,59.0,0,287,2.0,80.0
744,55.0,120,60,5.0,80.0
745,79.0,0,47,0.0,80.0
746,62.0,0,47,2.0,80.0
747,55.0,120,60,5.0,80.0
748,59.0,0,47,2.0,80.0
749,74.0,60,47,0.0,80.0
750,57.0,60,60,5.0,80.0
751,57.0,120,60,5.0,80.0
752,74.0,0,190,0.0,80.0
753,59.0,0,190,2.0,80.0
754,50.0,0,60,5.0,80.0
755,50.0,120,60,5.0,80.0
756,72.0,120,190,0.0,80.0
757,57.0,0,190,2.0,80.0
758,55.0,0,60,5.0,80.0
759,43.0,120,60,5.0,80.0
760,71.0,0,190,0.0,80.0
761,55.0,120,190,2.0,80.0
762,74.0,0,95,4.0,80.0
763,71.0,0,95,4.0,80.0
764,71.0,0,47,4.0,80.0
765,74.0,0,47,4.0,80.0
766,47.0,120,60,5.0,80.0
767,71.0,60,47,4.0,80.0
768,67.0,0,47,4.0,80.0
769,72.0,60,47,4.0,80.0
770,69.0,0,47,4.0,80.0
771,50.0,0,60,5.0,80.0
772,66.0,60,47,4.0,80.0
773,69.0,0,47,4.0,80.0
774,55.0,0,60,5.0,80.0
775,55.0,120,60,5.0,80.0
776,67.0,0,190,4.0,80.0
777,71.0,0,190,4.0,80.0
778,62.0,60,287,1.0,80.0
779,59.0,0,287,3.0,80.0
780,55.0,120,60,5.0,80.0
781,64.0,0,47,1.0,80.0
782,60.0,0,47,3.0,80.0
783,55.0,120,60,5.0,80.0
784,62.0,0,47,1.0,80.0
785,59.0,60,47,3.0,80.0
786,55.0,60,60,5.0,80.0
787,55.0,120,60,5.0,80.0
788,62.0,0,287,1.0,80.0
789,59.0,0,287,3.0,80.0
790,55.0,120,60,5.0,80.0
791,62.0,0,47,3.0,80.0
792,67.0,0,47,1.0,80.0
793,55.0,120,60,5.0,80.0
794,59.0,0,47,3.0,80.0
795,62.0,60,47,1.0,80.0
796,52.0,0,60,5.0,80.0
797,52.0,120,60,5.0,80.0
798,59.0,0,190,3.0,80.0
799,62.0,60,190,1.0,80.0
800,54.0,0,60,5.0,80.0
801,54.0,120,60,5.0,80.0
802,57.0,120,190,3.0,80.0
803,60.0,0,190,1.0,80.0
804,55.0,0,95,3.0,80.0
805,59.0,120,95,1.0,80.0
806,55.0,0,95,5.0,80.0
807,62.0,60,47,4.0,80.0
808,74.0,60,47,4.0,80.0
809,59.0,0,95,5.0,80.0
810,59.0,0,95,3.0,80.0
811,62.0,60,47,4.0,80.0
812,72.0,0,47,4.0,80.0
813,62.0,0,215,1.0,80.0
814,66.0,60,95,2.0,80.0
815,57.0,0,95,3.0,80.0
816,57.0,0,95,5.0,80.0
817,72.0,0,95,0.0,80.0
818,62.0,60,47,4.0,80.0
819,62.0,0,47,2.0,80.0
820,69.0,0,47,4.0,80.0
821,62.0,60,95,1.0,80.0
822,54.0,0,95,3.0,80.0
823,69.0,0,95,0.0,80.0
824,54.0,0,95,5.0,80.0
825,60.0,60,47,2.0,80.0
826,62.0,0,47,4.0,80.0
827,71.0,60,47,4.0,80.0
828,55.0,0,95,3.0,80.0
829,71.0,0,95,0.0,80.0
830,59.0,0,95,2.0,80.0
831,55.0,0,95,5.0,80.0
832,62.0,60,47,4.0,80.0
833,74.0,0,47,4.0,80.0
834,59.0,0,95,5.0,80.0
835,74.0,0,95,0.0,80.0
836,67.0,60,95,2.0,80.0
837,59.0,0,95,3.0,80.0
838,62.0,60,47,4.0,80.0
839,72.0,0,47,4.0,80.0
840,57.0,0,95,3.0,80.0
841,72.0,0,95,0.0,80.0
842,66.0,0,95,2.0,80.0
843,57.0,60,95,5.0,80.0
844,62.0,60,47,4.0,80.0
845,62.0,0,382,1.0,80.0
846,69.0,0,47,4.0,80.0
847,62.0,0,47,2.0,80.0
848,54.0,60,95,3.0,80.0
849,69.0,0,95,0.0,80.0
850,54.0,0,95,5.0,80.0
851,62.0,0,47,4.0,80.0
852,60.0,60,47,2.0,80.0
853,71.0,0,47,4.0,80.0
854,59.0,0,95,2.0,80.0
855,55.0,0,95,5.0,80.0
856,62.0,0,95,1.0,80.0
857,71.0,0,95,0.0,80.0
858,72.0,60,47,4.0,80.0
859,71.0,0,47,4.0,80.0
860,62.0,0,190,4.0,80.0
861,55.0,60,190,3.0,80.0
862,55.0,0,95,5.0,80.0
863,55.0,60,95,2.0,80.0
864,72.0,60,47,4.0,80.0
865,74.0,60,47,4.0,80.0
866,71.0,0,190,1.0,80.0
867,74.0,0,190,0.0,80.0
868,53.0,0,95,5.0,80.0
869,76.0,60,47,4.0,80.0
870,77.0,0,47,4.0,80.0
871,53.0,0,190,3.0,80.0
872,69.0,60,10,4.0,80.0
873,69.0,0,95,0.0,80.0
874,53.0,60,95,5.0,80.0
875,62.0,0,95,1.0,80.0
876,52.0,0,95,3.0,80.0
877,68.0,0,95,4.0,80.0
878,52.0,0,95,5.0,80.0
879,59.0,0,95,2.0,80.0
880,68.0,0,95,0.0,80.0
881,62.0,60,190,1.0,80.0
882,77.0,0,95,4.0,80.0
883,77.0,0,95,0.0,80.0
884,56.0,120,95,2.0,80.0
885,50.0,0,95,3.0,80.0
886,50.0,0,95,5.0,80.0
887,76.0,0,95,4.0,80.0
888,57.0,0,95,2.0,80.0
889,69.0,0,95,4.0,80.0
890,76.0,0,95,0.0,80.0
891,48.0,0,95,3.0,80.0
892,64.0,120,95,1.0,80.0
893,48.0,0,95,5.0,80.0
894,66.0,0,47,1.0,80.0
895,47.0,0,95,5.0,80.0
896,64.0,0,95,2.0,80.0
897,74.0,0,95,4.0,80.0
898,47.0,0,95,3.0,80.0
899,74.0,0,95,0.0,80.0
900,68.0,120,95,4.0,80.0
901,68.0,60,47,1.0,80.0
902,45.0,0,95,3.0,80.0
903,64.0,60,95,2.0,80.0
904,45.0,0,95,5.0,80.0
905,72.0,0,95,0.0,80.0
906,69.0,0,95,4.0,80.0
907,72.0,0,95,4.0,80.0
908,57.0,0,95,5.0,80.0
909,74.0,0,95,0.0,80.0
910,62.0,0,95,2.0,80.0
911,74.0,0,95,4.0,80.0
912,71.0,120,95,4.0,80.0
913,72.0,0,47,4.0,80.0
914,57.0,0,215,3.0,80.0
915,60.0,0,95,2.0,80.0
916,57.0,0,95,5.0,80.0
917,74.0,60,47,4.0,80.0
918,71.0,60,47,4.0,80.0
919,55.0,0,95,5.0,80.0
920,59.0,0,95,2.0,80.0
921,55.0,0,95,3.0,80.0
922,72.0,60,47,4.0,80.0
923,53.0,60,95,5.0,80.0
924,76.0,0,335,4.0,80.0
925,76.0,120,335,0.0,80.0
926,74.0,0,47,0.0,80.0
927,57.0,0,190,2.0,80.0
928,53.0,120,95,5.0,80.0
929,81.0,0,95,4.0,80.0
930,72.0,60,47,0.0,80.0
931,69.0,0,767,1.0,80.0
932,69.0,0,287,4.0,80.0
933,53.0,0,95,5.0,80.0
934,53.0,0,382,3.0,80.0
935,65.0,0,190,2.0,80.0
936,74.0,60,190,0.0,80.0
937,81.0,0,190,4.0,80.0
938,53.0,120,95,5.0,80.0
939,74.0,0,95,4.0,80.0
940,76.0,0,47,4.0,80.0
941,80.0,0,47,4.0,80.0
942,64.0,60,47,4.0,80.0
943,68.0,60,47,4.0,80.0
944,68.0,0,190,1.0,80.0
945,52.0,120,190,3.0,80.0
946,59.0,0,190,2.0,80.0
947,76.0,0,190,0.0,80.0
948,52.0,0,190,5.0,80.0
949,71.0,60,47,4.0,80.0
950,76.0,0,47,4.0,80.0
951,52.0,60,95,5.0,80.0
952,79.0,60,47,4.0,80.0
953,64.0,0,107,4.0,80.0
954,67.0,0,47,4.0,80.0
955,77.0,0,47,4.0,80.0
956,50.0,60,95,5.0,80.0
957,71.0,0,47,4.0,80.0
958,65.0,60,47,4.0,80.0
959,48.0,0,47,5.0,80.0
960,48.0,60,47,5.0,80.0
961,50.0,60,47,5.0,80.0
962,55.0,60,190,4.0,80.0
963,72.0,0,190,4.0,80.0
964,64.0,0,190,4.0,80.0
965,60.0,0,190,3.0,80.0
966,52.0,60,47,5.0,80.0
967,53.0,60,47,5.0,80.0
968,57.0,60,47,5.0,80.0
969,55.0,60,47,5.0,80.0
970,60.0,0,190,3.0,80.0
971,53.0,60,47,5.0,80.0
972,52.0,60,47,5.0,80.0
973,60.0,0,95,3.0,80.0
974,53.0,60,47,5.0,80.0
975,55.0,0,47,5.0,80.0
976,60.0,60,47,3.0,80.0
977,53.0,60,47,5.0,80.0
978,60.0,0,47,3.0,80.0
979,52.0,60,47,5.0,80.0
980,60.0,0,95,3.0,80.0
981,50.0,60,47,5.0,80.0
982,52.0,60,47,5.0,80.0
983,60.0,0,47,3.0,80.0
984,48.0,0,47,5.0,80.0
985,60.0,60,47,3.0,80.0
986,53.0,0,47,5.0,80.0
987,50.0,60,47,5.0,80.0
988,52.0,60,47,5.0,80.0
989,53.0,60,47,5.0,80.0
990,55.0,60,47,5.0,80.0
991,57.0,60,47,5.0,80.0
992,62.0,60,382,3.0,80.0
993,53.0,60,47,5.0,80.0
994,55.0,60,47,5.0,80.0
995,52.0,60,47,5.0,80.0
996,53.0,60,47,5.0,80.0
997,50.0,60,47,5.0,80.0
998,60.0,0,190,3.0,80.0
999,52.0,60,47,5.0,80.0
1000,48.0,0,47,5.0,80.0
1001,60.0,60,95,3.0,80.0
1002,50.0,60,47,5.0,80.0
1003,47.0,60,47,5.0,80.0
1004,60.0,0,95,3.0,80.0
1005,48.0,60,47,5.0,80.0
1006,45.0,0,47,5.0,80.0
1007,45.0,60,47,5.0,80.0
1008,47.0,60,47,5.0,80.0
1009,60.0,60,190,3.0,80.0
1010,48.0,60,47,5.0,80.0
1011,50.0,0,47,5.0,80.0
1012,60.0,60,95,3.0,80.0
1013,48.0,60,47,5.0,80.0
1014,47.0,0,47,5.0,80.0
1015,60.0,60,95,3.0,80.0
1016,45.0,60,47,5.0,80.0
1017,43.0,60,47,5.0,80.0
1018,55.0,60,47,5.0,80.0
1019,54.0,60,47,5.0,80.0
1020,59.0,0,190,3.0,80.0
1021,55.0,60,47,5.0,80.0
1022,52.0,60,47,5.0,80.0
1023,50.0,60,47,5.0,80.0
1024,52.0,60,47,5.0,80.0
1025,60.0,0,190,3.0,80.0
1026,48.0,60,47,5.0,80.0
1027,50.0,0,47,5.0,80.0
1028,45.0,60,47,5.0,80.0
1029,47.0,60,47,5.0,80.0
1030,48.0,60,47,5.0,80.0
1031,50.0,60,47,5.0,80.0
1032,48.0,60,47,5.0,80.0
1033,57.0,60,382,3.0,80.0
1034,47.0,60,47,5.0,80.0
1035,45.0,60,47,5.0,80.0
1036,47.0,60,47,5.0,80.0
1037,55.0,60,47,4.0,80.0
1038,43.0,0,47,5.0,80.0
1039,59.0,0,47,4.0,80.0
1040,47.0,60,47,5.0,80.0
1041,55.0,0,190,3.0,80.0
1042,50.0,0,47,5.0,80.0
1043,62.0,60,47,4.0,80.0
1044,55.0,0,47,5.0,80.0
1045,55.0,0,47,3.0,80.0
1046,71.0,0,47,0.0,80.0
1047,62.0,0,95,2.0,80.0
1048,67.0,60,95,1.0,80.0
1049,67.0,0,95,4.0,80.0
1050,72.0,0,47,0.0,80.0
1051,57.0,60,47,3.0,80.0
1052,57.0,0,47,5.0,80.0
1053,59.0,0,47,3.0,80.0
1054,59.0,60,47,5.0,80.0
1055,74.0,0,47,0.0,80.0
1056,67.0,0,95,1.0,80.0
1057,74.0,0,95,4.0,80.0
1058,62.0,0,95,2.0,80.0
1059,67.0,0,95,4.0,80.0
1060,55.0,0,47,5.0,80.0
1061,71.0,60,47,0.0,80.0
1062,55.0,0,47,3.0,80.0
1063,60.0,0,47,3.0,80.0
1064,60.0,60,47,5.0,80.0
1065,67.0,0,95,4.0,80.0
1066,76.0,0,95,4.0,80.0
1067,59.0,0,47,3.0,80.0
1068,59.0,60,47,5.0,80.0
1069,60.0,0,47,5.0,80.0
1070,60.0,0,47,3.0,80.0
1071,67.0,0,190,1.0,80.0
1072,79.0,0,95,4.0,80.0
1073,59.0,60,47,3.0,80.0
1074,59.0,0,47,5.0,80.0
1075,57.0,60,47,5.0,80.0
1076,60.0,0,287,2.0,80.0
1077,57.0,0,47,3.0,80.0
1078,76.0,0,287,0.0,80.0
1079,67.0,60,215,4.0,80.0
1080,76.0,0,215,4.0,80.0
1081,84.0,0,95,4.0,80.0
1082,59.0,0,47,2.0,80.0
1083,55.0,0,47,3.0,80.0
1084,55.0,60,47,5.0,80.0
1085,60.0,0,47,2.0,80.0
1086,57.0,0,47,5.0,80.0
1087,57.0,60,47,3.0,80.0
1088,77.0,0,95,0.0,80.0
1089,76.0,0,95,4.0,80.0
1090,69.0,0,95,4.0,80.0
1091,53.0,0,47,3.0,80.0
1092,53.0,0,47,5.0,80.0
1093,57.0,60,47,2.0,80.0
1094,59.0,0,47,5.0,80.0
1095,59.0,0,47,3.0,80.0
1096,69.0,0,95,4.0,80.0
1097,77.0,0,215,4.0,80.0
1098,74.0,0,95,4.0,80.0
1099,57.0,0,47,3.0,80.0
1100,57.0,60,47,5.0,80.0
1101,59.0,0,47,3.0,80.0
1102,59.0,0,47,5.0,80.0
1103,65.0,0,430,1.0,80.0
1104,77.0,0,95,4.0,80.0
1105,57.0,0,47,3.0,80.0
1106,57.0,60,47,5.0,80.0
1107,56.0,60,47,5.0,80.0
1108,56.0,0,47,3.0,80.0
1109,74.0,60,287,0.0,80.0
1110,59.0,0,287,2.0,80.0
1111,71.0,60,215,4.0,80.0
1112,83.0,0,95,4.0,80.0
1113,74.0,0,215,4.0,80.0
1114,54.0,60,47,5.0,80.0
1115,54.0,0,47,3.0,80.0
1116,57.0,0,47,2.0,80.0
1117,56.0,0,47,5.0,80.0
1118,59.0,0,47,2.0,80.0
1119,56.0,0,47,3.0,80.0
1120,76.0,60,95,0.0,80.0
1121,76.0,0,95,4.0,80.0
1122,74.0,0,95,4.0,80.0
1123,71.0,0,95,4.0,80.0
1124,52.0,0,47,3.0,80.0
1125,52.0,60,47,5.0,80.0
1126,56.0,0,47,2.0,80.0
1127,57.0,0,95,3.0,80.0
1128,57.0,0,95,5.0,80.0
1129,76.0,0,95,4.0,80.0
1130,64.0,0,382,1.0,80.0
1131,57.0,0,190,2.0,80.0
1132,55.0,120,95,3.0,80.0
1133,76.0,0,95,4.0,80.0
1134,55.0,0,95,5.0,80.0
1135,72.0,0,287,0.0,80.0
1136,69.0,0,335,4.0,80.0
1137,72.0,60,335,4.0,80.0
1138,53.0,0,95,3.0,80.0
1139,53.0,0,95,5.0,80.0
1140,69.0,120,190,1.0,80.0
1141,57.0,0,190,2.0,80.0
1142,52.0,0,95,5.0,80.0
1143,72.0,120,95,4.0,80.0
1144,52.0,0,95,3.0,80.0
1145,69.0,0,95,4.0,80.0
1146,81.0,0,215,4.0,80.0
1147,72.0,0,95,0.0,80.0
1148,71.0,0,95,0.0,80.0
1149,50.0,120,95,5.0,80.0
1150,71.0,0,95,4.0,80.0
1151,81.0,0,95,4.0,80.0
1152,50.0,0,95,3.0,80.0
1153,65.0,0,95,2.0,80.0
1154,69.0,0,190,1.0,80.0
1155,71.0,0,95,0.0,80.0
1156,50.0,0,95,3.0,80.0
1157,50.0,0,95,5.0,80.0
1158,65.0,120,95,2.0,80.0
1159,81.0,0,95,4.0,80.0
1160,71.0,0,95,4.0,80.0
1161,52.0,0,95,5.0,80.0
1162,80.0,0,190,4.0,80.0
1163,68.0,0,190,1.0,80.0
1164,52.0,0,190,3.0,80.0
1165,64.0,0,190,2.0,80.0
1166,71.0,120,190,4.0,80.0
1167,71.0,0,190,0.0,80.0
1168,52.0,120,95,5.0,80.0
1169,81.0,0,47,4.0,80.0
1170,45.0,120,95,5.0,80.0
1171,76.0,60,47,4.0,80.0
1172,72.0,60,47,4.0,80.0
1173,64.0,0,190,2.0,80.0
1174,69.0,60,10,4.0,80.0
1175,69.0,0,190,1.0,80.0
1176,69.0,0,190,0.0,80.0
1177,45.0,0,190,3.0,80.0
1178,48.0,0,95,5.0,80.0
1179,50.0,60,95,5.0,80.0
1180,77.0,60,47,4.0,80.0
1181,76.0,0,47,4.0,80.0
1182,52.0,60,95,5.0,80.0
1183,68.0,60,47,4.0,80.0
1184,69.0,0,47,4.0,80.0
1185,57.0,60,47,4.0,80.0
1186,59.0,60,47,4.0,80.0
1187,69.0,0,190,1.0,80.0
1188,57.0,60,190,5.0,80.0
1189,45.0,0,190,5.0,80.0
1190,60.0,60,47,4.0,80.0
1191,62.0,0,47,4.0,80.0
1192,64.0,60,47,4.0,80.0
1193,65.0,60,47,4.0,80.0
1194,69.0,60,190,1.0,80.0
1195,62.0,60,47,4.0,80.0
1196,60.0,0,47,4.0,80.0
1197,69.0,60,95,1.0,80.0
1198,62.0,60,47,4.0,80.0
1199,64.0,60,47,4.0,80.0
1200,69.0,0,47,1.0,80.0
1201,69.0,0,47,1.0,80.0
1202,62.0,60,47,4.0,80.0
1203,60.0,60,47,4.0,80.0
1204,69.0,0,95,1.0,80.0
1205,59.0,60,47,4.0,80.0
1206,69.0,0,47,1.0,80.0
1207,60.0,60,47,4.0,80.0
1208,69.0,60,47,1.0,80.0
1209,57.0,0,47,4.0,80.0
1210,62.0,0,47,4.0,80.0
1211,64.0,60,47,4.0,80.0
1212,65.0,60,47,4.0,80.0
1213,62.0,60,47,4.0,80.0
1214,64.0,60,47,4.0,80.0
1215,62.0,60,47,4.0,80.0
1216,71.0,60,382,1.0,80.0
1217,60.0,60,47,4.0,80.0
1218,59.0,60,47,4.0,80.0
1219,60.0,0,47,4.0,80.0
1220,62.0,60,47,4.0,80.0
1221,64.0,60,47,4.0,80.0
1222,69.0,60,190,1.0,80.0
1223,62.0,60,47,4.0,80.0
1224,60.0,0,47,4.0,80.0
1225,69.0,60,95,1.0,80.0
1226,59.0,60,47,4.0,80.0
1227,60.0,60,47,4.0,80.0
1228,69.0,0,95,1.0,80.0
1229,57.0,60,47,4.0,80.0
1230,59.0,60,47,4.0,80.0
1231,60.0,60,47,4.0,80.0
1232,62.0,60,47,4.0,80.0
1233,69.0,0,190,1.0,80.0
1234,64.0,60,47,4.0,80.0
1235,65.0,60,47,4.0,80.0
1236,69.0,0,95,1.0,80.0
1237,62.0,60,47,4.0,80.0
1238,60.0,0,47,4.0,80.0
1239,69.0,60,95,1.0,80.0
1240,59.0,60,47,4.0,80.0
1241,64.0,60,47,4.0,80.0
1242,65.0,60,47,4.0,80.0
1243,64.0,60,47,4.0,80.0
1244,67.0,0,190,1.0,80.0
1245,62.0,60,47,4.0,80.0
1246,60.0,0,47,4.0,80.0
1247,62.0,60,47,4.0,80.0
1248,60.0,60,47,4.0,80.0
1249,69.0,60,190,1.0,80.0
1250,59.0,60,47,4.0,80.0
1251,57.0,0,47,4.0,80.0
1252,60.0,60,47,4.0,80.0
1253,59.0,60,47,4.0,80.0
1254,57.0,60,47,4.0,80.0
1255,59.0,60,47,4.0,80.0
1256,59.0,60,47,4.0,80.0
1257,66.0,60,382,1.0,80.0
1258,61.0,60,47,4.0,80.0
1259,63.0,60,47,4.0,80.0
1260,64.0,0,47,4.0,80.0
1261,64.0,60,95,1.0,80.0
1262,67.0,0,47,4.0,80.0
1263,52.0,60,47,5.0,80.0
1264,64.0,0,47,5.0,80.0
1265,79.0,60,47,4.0,80.0
1266,77.0,0,47,4.0,80.0
1267,62.0,60,47,5.0,80.0
1268,76.0,0,47,4.0,80.0
1269,64.0,0,47,2.0,80.0
1270,61.0,0,47,5.0,80.0
1271,61.0,0,47,3.0,80.0
1272,67.0,0,215,1.0,80.0
1273,76.0,60,95,0.0,80.0
1274,59.0,0,47,3.0,80.0
1275,74.0,60,47,4.0,80.0
1276,62.0,0,47,2.0,80.0
1277,59.0,0,47,5.0,80.0
1278,61.0,0,47,3.0,80.0
1279,61.0,60,47,5.0,80.0
1280,64.0,0,47,2.0,80.0
1281,76.0,0,47,4.0,80.0
1282,76.0,0,95,0.0,80.0
1283,67.0,0,95,1.0,80.0
1284,57.0,0,47,5.0,80.0
1285,73.0,0,47,4.0,80.0
1286,61.0,0,47,2.0,80.0
1287,69.0,0,227,4.0,80.0
1288,57.0,60,47,3.0,80.0
1289,77.0,0,47,4.0,80.0
1290,62.0,0,47,5.0,80.0
1291,62.0,0,95,3.0,80.0
1292,65.0,0,95,2.0,80.0
1293,60.0,0,47,5.0,80.0
1294,76.0,60,47,4.0,80.0
1295,77.0,0,47,4.0,80.0
1296,62.0,0,47,5.0,80.0
1297,76.0,60,190,0.0,80.0
1298,57.0,0,95,2.0,80.0
1299,50.0,60,95,3.0,80.0
1300,76.0,60,47,4.0,80.0
1301,60.0,0,47,5.0,80.0
1302,59.0,0,47,5.0,80.0
1303,59.0,60,47,3.0,80.0
1304,62.0,0,47,2.0,80.0
1305,74.0,0,47,4.0,80.0
1306,57.0,60,47,5.0,80.0
1307,72.0,0,47,4.0,80.0
1308,57.0,0,47,3.0,80.0
1309,60.0,0,47,2.0,80.0
1310,69.0,0,347,4.0,80.0
1311,65.0,0,382,1.0,80.0
1312,59.0,60,47,5.0,80.0
1313,74.0,0,47,4.0,80.0
1314,62.0,0,47,2.0,80.0
1315,59.0,0,47,3.0,80.0
1316,55.0,0,47,5.0,80.0
1317,55.0,0,47,3.0,80.0
1318,59.0,60,47,2.0,80.0
1319,76.0,0,47,4.0,80.0
1320,60.0,0,47,5.0,80.0
1321,60.0,0,95,3.0,80.0
1322,64.0,60,95,2.0,80.0
1323,74.0,0,47,4.0,80.0
1324,59.0,60,47,5.0,80.0
1325,74.0,0,382,0.0,80.0
1326,60.0,60,47,5.0,80.0
1327,76.0,0,47,4.0,80.0
1328,48.0,0,95,3.0,80.0
1329,55.0,0,95,2.0,80.0
1330,59.0,60,47,5.0,80.0
1331,74.0,0,47,4.0,80.0
1332,57.0,60,47,5.0,80.0
1333,72.0,0,47,4.0,80.0
1334,57.0,0,47,3.0,80.0
1335,60.0,0,95,2.0,80.0
1336,55.0,60,47,5.0,80.0
1337,55.0,0,47,3.0,80.0
1338,71.0,0,407,4.0,80.0
1339,67.0,0,467,4.0,80.0
1340,64.0,0,382,1.0,80.0
1341,57.0,0,47,5.0,80.0
1342,57.0,60,47,3.0,80.0
1343,72.0,0,47,4.0,80.0
1344,72.0,0,190,0.0,80.0
1345,59.0,0,95,2.0,80.0
1346,69.0,60,47,4.0,80.0
1347,64.0,0,107,4.0,80.0
1348,55.0,0,47,3.0,80.0
1349,55.0,0,47,5.0,80.0
1350,69.0,0,47,4.0,80.0
1351,54.0,60,95,5.0,80.0
1352,57.0,0,95,2.0,80.0
1353,54.0,0,95,3.0,80.0
1354,76.0,60,47,4.0,80.0
1355,84.0,0,47,4.0,80.0
1356,54.0,60,95,3.0,80.0
1357,54.0,0,95,5.0,80.0
1358,64.0,0,95,2.0,80.0
1359,76.0,60,47,4.0,80.0
1360,84.0,0,47,4.0,80.0
1361,72.0,0,215,0.0,80.0
1362,64.0,60,95,2.0,80.0
1363,54.0,0,95,3.0,80.0
1364,54.0,0,95,5.0,80.0
1365,69.0,0,215,1.0,80.0
1366,76.0,60,47,4.0,80.0
1367,84.0,60,47,4.0,80.0
1368,54.0,0,95,5.0,80.0
1369,72.0,0,95,0.0,80.0
1370,64.0,0,95,2.0,80.0
1371,69.0,0,95,1.0,80.0
1372,54.0,0,95,3.0,80.0
1373,76.0,60,47,4.0,80.0
1374,74.0,0,47,4.0,80.0
1375,55.0,0,95,5.0,80.0
1376,55.0,0,95,3.0,80.0
1377,79.0,60,47,4.0,80.0
1378,83.0,0,47,4.0,80.0
1379,67.0,60,190,1.0,80.0
1380,62.0,0,190,2.0,80.0
1381,71.0,0,190,0.0,80.0
1382,53.0,60,95,3.0,80.0
1383,53.0,0,95,5.0,80.0
1384,62.0,0,215,5.0,80.0
1385,79.0,60,47,4.0,80.0
1386,84.0,60,47,4.0,80.0
1387,52.0,0,95,5.0,80.0
1388,79.0,60,47,4.0,80.0
1389,76.0,60,47,4.0,80.0
1390,72.0,0,190,0.0,80.0
1391,52.0,0,190,3.0,80.0
1392,64.0,0,190,2.0,80.0
1393,67.0,0,190,1.0,80.0
1394,64.0,0,215,5.0,80.0
1395,52.0,0,95,5.0,80.0
1396,72.0,60,47,4.0,80.0
1397,81.0,0,47,4.0,80.0
1398,53.0,0,95,5.0,80.0
1399,69.0,0,95,1.0,80.0
1400,53.0,60,95,3.0,80.0
1401,62.0,0,95,2.0,80.0
1402,72.0,0,95,0.0,80.0
1403,77.0,60,47,4.0,80.0
1404,72.0,0,47,4.0,80.0
1405,72.0,0,47,0.0,80.0
1406,53.0,0,95,3.0,80.0
1407,53.0,60,95,5.0,80.0
1408,62.0,0,95,2.0,80.0
1409,69.0,0,95,1.0,80.0
1410,74.0,0,47,0.0,80.0
1411,74.0,60,47,4.0,80.0
1412,64.0,0,47,4.0,80.0
1413,55.0,0,95,5.0,80.0
1414,64.0,0,95,2.0,80.0
1415,72.0,0,95,0.0,80.0
1416,72.0,60,47,4.0,80.0
1417,62.0,0,47,4.0,80.0
1418,55.0,0,190,3.0,80.0
1419,67.0,60,190,1.0,80.0
1420,71.0,0,95,0.0,80.0
1421,43.0,60,95,5.0,80.0
1422,62.0,0,95,2.0,80.0
1423,71.0,60,47,4.0,80.0
1424,72.0,0,47,4.0,80.0
1425,48.0,0,95,5.0,80.0
1426,79.0,60,47,4.0,80.0
1427,76.0,0,47,4.0,80.0
1428,72.0,0,190,0.0,80.0
1429,60.0,0,190,2.0,80.0
1430,48.0,60,190,3.0,80.0
1431,67.0,0,190,1.0,80.0
1432,52.0,60,95,5.0,80.0
1433,72.0,60,47,4.0,80.0
1434,53.0,60,95,5.0,80.0
1435,77.0,60,47,4.0,80.0
1436,74.0,60,47,4.0,80.0
1437,55.0,0,95,5.0,80.0
1438,71.0,60,47,4.0,80.0
1439,72.0,0,95,4.0,80.0
1440,76.0,0,47,4.0,80.0
1441,48.0,0,190,5.0,80.0
1442,79.0,0,47,4.0,80.0
1443,72.0,0,95,4.0,80.0
1444,84.0,0,95,4.0,80.0
1445,60.0,0,95,2.0,80.0
1446,60.0,60,95,5.0,80.0
1447,60.0,0,95,2.0,80.0
1448,84.0,0,95,4.0,80.0
1449,72.0,120,95,4.0,80.0
1450,60.0,0,95,5.0,80.0
1451,84.0,120,47,4.0,80.0
1452,76.0,60,47,4.0,80.0
1453,79.0,60,47,4.0,80.0
1454,72.0,0,190,4.0,80.0
1455,60.0,0,190,5.0,80.0
1456,77.0,60,47,4.0,80.0
1457,76.0,0,47,4.0,80.0
1458,67.0,0,95,1.0,80.0
1459,52.0,0,95,5.0,80.0
1460,70.0,0,95,0.0,80.0
1461,52.0,0,95,3.0,80.0
1462,74.0,60,47,4.0,80.0
1463,60.0,0,382,2.0,80.0
1464,72.0,60,47,4.0,80.0
1465,67.0,60,190,4.0,80.0
1466,52.0,0,95,5.0,80.0
1467,67.0,0,95,1.0,80.0
1468,70.0,0,95,0.0,80.0
1469,52.0,0,95,3.0,80.0
1470,70.0,60,47,4.0,80.0
1471,71.0,0,47,4.0,80.0
1472,67.0,0,95,1.0,80.0
1473,52.0,0,95,5.0,80.0
1474,67.0,60,47,4.0,80.0
1475,72.0,0,47,4.0,80.0
1476,60.0,0,190,2.0,80.0
1477,70.0,60,190,0.0,80.0
1478,52.0,0,190,3.0,80.0
1479,60.0,0,190,4.0,80.0
1480,60.0,60,95,1.0,80.0
1481,52.0,0,95,5.0,80.0
1482,71.0,60,47,4.0,80.0
1483,60.0,60,95,4.0,80.0
1484,65.0,0,95,1.0,80.0
1485,53.0,0,95,5.0,80.0
1486,69.0,0,95,4.0,80.0
1487,69.0,0,190,0.0,80.0
1488,53.0,0,190,3.0,80.0
1489,65.0,120,95,4.0,80.0
1490,65.0,0,95,1.0,80.0
1491,77.0,0,95,4.0,80.0
1492,76.0,0,47,4.0,80.0
1493,74.0,60,47,4.0,80.0
1494,76.0,60,47,4.0,80.0
1495,65.0,0,190,4.0,80.0
1496,77.0,60,47,4.0,80.0
1497,79.0,0,47,4.0,80.0
1498,71.0,60,95,0.0,80.0
1499,62.0,0,95,2.0,80.0
1500,62.0,0,95,5.0,80.0
1501,55.0,0,95,3.0,80.0
1502,59.0,0,95,5.0,80.0
1503,55.0,0,95,5.0,80.0
1504,81.0,60,47,4.0,80.0
1505,79.0,0,47,4.0,80.0
1506,62.0,60,95,5.0,80.0
1507,59.0,0,95,5.0,80.0
1508,55.0,0,95,5.0,80.0
1509,71.0,0,95,0.0,80.0
1510,55.0,0,95,3.0,80.0
1511,62.0,0,95,2.0,80.0
1512,77.0,60,47,4.0,80.0
1513,77.0,0,47,4.0,80.0
1514,55.0,0,95,5.0,80.0
1515,74.0,60,47,4.0,80.0
1516,79.0,0,47,4.0,80.0
1517,62.0,0,190,2.0,80.0
1518,59.0,0,190,5.0,80.0
1519,65.0,120,670,1.0,80.0
1520,71.0,60,190,0.0,80.0
1521,62.0,0,190,5.0,80.0
1522,55.0,0,190,3.0,80.0
1523,55.0,60,95,5.0,80.0
1524,77.0,60,47,4.0,80.0
1525,76.0,0,47,4.0,80.0
1526,57.0,0,95,5.0,80.0
1527,72.0,60,47,4.0,80.0
1528,72.0,0,190,0.0,80.0
1529,60.0,0,190,2.0,80.0
1530,57.0,0,190,3.0,80.0
1531,64.0,60,190,1.0,80.0
1532,60.0,0,190,5.0,80.0
1533,84.0,0,95,4.0,80.0
1534,57.0,60,95,5.0,80.0
1535,84.0,0,95,4.0,80.0
1536,69.0,0,95,1.0,80.0
1537,53.0,0,95,5.0,80.0
1538,72.0,120,95,0.0,80.0
1539,62.0,0,95,2.0,80.0
1540,53.0,0,95,3.0,80.0
1541,65.0,0,190,5.0,80.0
1542,53.0,0,95,5.0,80.0
1543,86.0,120,95,4.0,80.0
1544,62.0,0,95,2.0,80.0
1545,74.0,0,95,0.0,80.0
1546,69.0,0,95,1.0,80.0
1547,53.0,0,95,3.0,80.0
1548,76.0,120,47,4.0,80.0
1549,64.0,0,95,2.0,80.0
1550,55.0,0,95,5.0,80.0
1551,72.0,0,95,0.0,80.0
1552,64.0,0,95,5.0,80.0
1553,84.0,60,47,4.0,80.0
1554,74.0,0,47,4.0,80.0
1555,67.0,0,190,1.0,80.0
1556,55.0,0,190,3.0,80.0
1557,65.0,0,95,5.0,80.0
1558,62.0,0,95,2.0,80.0
1559,71.0,60,95,0.0,80.0
1560,55.0,0,95,5.0,80.0
1561,83.0,60,47,4.0,80.0
1562,84.0,60,47,4.0,80.0
1563,48.0,0,95,5.0,80.0
1564,79.0,60,47,4.0,80.0
1565,76.0,60,47,4.0,80.0
1566,64.0,0,190,5.0,80.0
1567,72.0,60,10,4.0,80.0
1568,48.0,0,190,3.0,80.0
1569,67.0,0,190,1.0,80.0
1570,60.0,0,190,2.0,80.0
1571,72.0,0,190,0.0,80.0
1572,52.0,0,95,5.0,80.0
1573,53.0,60,95,5.0,80.0
1574,65.0,0,95,5.0,80.0
1575,81.0,60,47,4.0,80.0
1576,77.0,60,47,4.0,80.0
1577,53.0,0,95,5.0,80.0
1578,65.0,0,95,5.0,80.0
1579,74.0,60,47,4.0,80.0
1580,55.0,0,95,5.0,80.0
1581,64.0,60,95,5.0,80.0
1582,79.0,60,47,4.0,80.0
1583,76.0,60,47,4.0,80.0
1584,64.0,0,95,5.0,80.0
1585,55.0,0,95,5.0,80.0
1586,72.0,60,47,4.0,80.0
1587,67.0,0,95,1.0,80.0
1588,74.0,60,95,0.0,80.0
1589,65.0,0,95,5.0,80.0
1590,55.0,0,95,3.0,80.0
1591,43.0,0,95,5.0,80.0
1592,65.0,0,95,2.0,80.0
1593,77.0,60,47,4.0,80.0
1594,74.0,0,47,4.0,80.0
1595,55.0,60,95,3.0,80.0
1596,62.0,0,95,2.0,80.0
1597,65.0,0,95,5.0,80.0
1598,43.0,0,95,5.0,80.0
1599,71.0,0,95,0.0,80.0
1600,67.0,0,95,1.0,80.0
1601,71.0,60,47,4.0,80.0
1602,72.0,0,95,0.0,80.0
1603,64.0,0,95,2.0,80.0
1604,64.0,0,95,5.0,80.0
1605,48.0,0,95,5.0,80.0
1606,84.0,60,47,4.0,80.0
1607,79.0,0,47,4.0,80.0
1608,67.0,0,190,1.0,80.0
1609,48.0,60,190,3.0,80.0
1610,60.0,60,95,2.0,80.0
1611,64.0,0,95,5.0,80.0
1612,76.0,0,95,0.0,80.0
1613,48.0,0,95,5.0,80.0
1614,76.0,60,47,4.0,80.0
1615,53.0,60,95,5.0,80.0
1616,65.0,0,95,5.0,80.0
1617,81.0,60,47,4.0,80.0
1618,77.0,60,47,4.0,80.0
1619,74.0,0,190,0.0,80.0
1620,69.0,0,190,1.0,80.0
1621,53.0,0,190,3.0,80.0
1622,60.0,0,190,2.0,80.0
1623,53.0,0,95,5.0,80.0
1624,65.0,0,95,5.0,80.0
1625,72.0,60,47,4.0,80.0
1626,55.0,0,95,5.0,80.0
1627,64.0,60,95,5.0,80.0
1628,79.0,60,47,4.0,80.0
1629,76.0,0,47,4.0,80.0
1630,55.0,0,95,5.0,80.0
1631,64.0,60,95,5.0,80.0
1632,72.0,60,47,4.0,80.0
1633,74.0,0,95,0.0,80.0
1634,55.0,60,95,5.0,80.0
1635,65.0,0,95,2.0,80.0
1636,67.0,0,95,1.0,80.0
1637,62.0,0,95,5.0,80.0
1638,55.0,0,95,3.0,80.0
1639,77.0,60,47,4.0,80.0
1640,74.0,0,47,4.0,80.0
1641,55.0,60,95,5.0,80.0
1642,71.0,0,95,0.0,80.0
1643,62.0,0,95,5.0,80.0
1644,67.0,0,95,1.0,80.0
1645,62.0,0,95,2.0,80.0
1646,55.0,0,95,3.0,80.0
1647,71.0,60,47,4.0,80.0
1648,72.0,60,47,4.0,80.0
1649,48.0,0,95,5.0,80.0
1650,64.0,0,95,2.0,80.0
1651,67.0,0,95,1.0,80.0
1652,48.0,0,95,3.0,80.0
1653,60.0,0,95,5.0,80.0
1654,72.0,0,95,0.0,80.0
1655,76.0,60,47,4.0,80.0
1656,79.0,0,47,4.0,80.0
1657,76.0,0,95,0.0,80.0
1658,48.0,0,95,5.0,80.0
1659,60.0,0,95,2.0,80.0
1660,48.0,60,95,3.0,80.0
1661,67.0,0,95,1.0,80.0
1662,60.0,0,95,5.0,80.0
1663,84.0,60,47,4.0,80.0
1664,74.0,0,47,4.0,80.0
1665,55.0,60,95,5.0,80.0
1666,84.0,60,47,4.0,80.0
1667,55.0,0,47,3.0,80.0
1668,67.0,0,47,1.0,80.0
1669,59.0,0,47,2.0,80.0
1670,74.0,0,47,0.0,80.0
1671,74.0,0,47,4.0,80.0
1672,43.0,60,95,5.0,80.0
1673,55.0,0,47,3.0,80.0
1674,59.0,0,47,2.0,80.0
1675,83.0,0,47,4.0,80.0
1676,74.0,0,47,0.0,80.0
1677,67.0,60,47,1.0,80.0
1678,84.0,0,47,4.0,80.0
1679,60.0,0,95,3.0,80.0
1680,48.0,0,95,5.0,80.0
1681,67.0,60,95,1.0,80.0
1682,60.0,0,95,2.0,80.0
1683,76.0,0,95,0.0,80.0
1684,79.0,60,47,4.0,80.0
1685,76.0,0,47,4.0,80.0
1686,72.0,0,95,0.0,80.0
1687,64.0,0,95,2.0,80.0
1688,48.0,0,95,3.0,80.0
1689,48.0,0,95,5.0,80.0
1690,67.0,60,95,1.0,80.0
1691,72.0,60,47,4.0,80.0
1692,74.0,0,47,4.0,80.0
1693,55.0,60,95,5.0,80.0
1694,84.0,60,47,4.0,80.0
1695,55.0,0,47,3.0,80.0
1696,67.0,0,47,1.0,80.0
1697,65.0,0,47,2.0,80.0
1698,74.0,0,47,0.0,80.0
1699,74.0,0,47,4.0,80.0
1700,43.0,60,95,5.0,80.0
1701,83.0,0,47,4.0,80.0
1702,62.0,0,47,2.0,80.0
1703,71.0,60,47,0.0,80.0
1704,55.0,0,47,3.0,80.0
1705,67.0,0,47,1.0,80.0
1706,64.0,0,95,2.0,80.0
1707,67.0,0,95,1.0,80.0
1708,72.0,0,95,0.0,80.0
1709,60.0,60,95,3.0,80.0
1710,48.0,0,142,5.0,80.0
1711,76.0,0,190,4.0,80.0
1712,84.0,0,190,4.0,80.0
1713,72.0,0,190,4.0,80.0
1714,48.0,120,95,3.0,80.0
1715,67.0,0,95,1.0,80.0
1716,72.0,0,95,0.0,80.0
1717,64.0,0,95,2.0,80.0
1718,60.0,60,47,5.0,80.0
1719,55.0,60,70,5.0,80.0
1720,64.0,0,95,4.0,80.0
1721,72.0,0,95,4.0,80.0
1722,60.0,90,22,5.0,80.0
1723,55.0,0,70,5.0,80.0
1724,72.0,30,95,4.0,80.0
1725,64.0,0,95,4.0,80.0
1726,52.0,90,22,5.0,80.0
1727,48.0,30,382,5.0,80.0
1728,64.0,0,382,4.0,80.0
1729,72.0,0,382,4.0,80.0
1730,64.0,0,60,4.0,80.0
1731,48.0,0,60,5.0,80.0
1732,72.0,480,95,4.0,80.0
1733,84.0,0,47,4.0,80.0
1734,76.0,120,60,4.0,80.0
1735,48.0,0,60,5.0,80.0
1736,72.0,0,190,0.0,80.0
1737,64.0,0,190,1.0,80.0
1738,48.0,0,190,3.0,80.0
1739,83.0,60,47,4.0,80.0
1740,77.0,0,60,4.0,80.0
1741,50.0,0,60,5.0,80.0
1742,84.0,60,95,4.0,80.0
1743,72.0,0,47,4.0,80.0
1744,65.0,120,60,4.0,80.0
1745,50.0,0,60,5.0,80.0
1746,72.0,0,190,0.0,80.0
1747,65.0,0,190,1.0,80.0
1748,50.0,0,190,3.0,80.0
1749,71.0,60,47,4.0,80.0
1750,67.0,0,47,1.0,80.0
1751,52.0,60,47,5.0,80.0
1752,72.0,0,47,0.0,80.0
1753,52.0,0,47,3.0,80.0
1754,72.0,0,47,4.0,80.0
1755,50.0,0,47,5.0,80.0
1756,71.0,0,47,0.0,80.0
1757,50.0,60,47,3.0,80.0
1758,74.0,0,47,4.0,80.0
1759,65.0,0,47,1.0,80.0
1760,48.0,0,47,3.0,80.0
1761,64.0,0,47,1.0,80.0
1762,76.0,0,47,4.0,80.0
1763,48.0,0,47,5.0,80.0
1764,67.0,0,190,4.0,80.0
1765,72.0,60,95,0.0,80.0
1766,65.0,0,47,1.0,80.0
1767,77.0,60,47,4.0,80.0
1768,50.0,0,47,5.0,80.0
1769,50.0,0,47,3.0,80.0
1770,79.0,0,47,4.0,80.0
1771,52.0,0,60,5.0,80.0
1772,67.0,0,60,4.0,80.0
1773,67.0,0,95,0.0,80.0
1774,52.0,0,95,3.0,80.0
1775,67.0,0,95,1.0,80.0
1776,60.0,60,95,2.0,80.0
1777,77.0,60,47,4.0,80.0
1778,76.0,0,47,4.0,80.0
1779,52.0,0,60,5.0,80.0
1780,67.0,0,60,4.0,80.0
1781,67.0,0,95,1.0,80.0
1782,60.0,60,95,2.0,80.0
1783,52.0,0,95,3.0,80.0
1784,74.0,60,47,4.0,80.0
1785,79.0,0,47,4.0,80.0
1786,53.0,0,60,5.0,80.0
1787,69.0,60,60,4.0,80.0
1788,53.0,0,95,3.0,80.0
1789,69.0,0,95,1.0,80.0
1790,74.0,0,95,0.0,80.0
1791,60.0,0,95,2.0,80.0
1792,77.0,60,47,4.0,80.0
1793,76.0,0,47,4.0,80.0
1794,71.0,0,60,4.0,80.0
1795,55.0,60,60,5.0,80.0
1796,60.0,0,95,2.0,80.0
1797,67.0,0,95,1.0,80.0
1798,55.0,0,95,3.0,80.0
1799,76.0,0,95,0.0,80.0
1800,79.0,60,47,4.0,80.0
1801,79.0,0,47,4.0,80.0
1802,57.0,0,60,5.0,80.0
1803,72.0,0,60,4.0,80.0
1804,57.0,60,95,3.0,80.0
1805,65.0,0,95,1.0,80.0
1806,60.0,0,95,2.0,80.0
1807,77.0,0,95,0.0,80.0
1808,77.0,60,47,4.0,80.0
1809,76.0,0,47,0.0,80.0
1810,76.0,60,47,4.0,80.0
1811,67.0,0,60,4.0,80.0
1812,59.0,0,60,5.0,80.0
1813,62.0,0,95,2.0,80.0
1814,59.0,0,95,3.0,80.0
1815,67.0,0,95,1.0,80.0
1816,74.0,60,47,4.0,80.0
1817,74.0,0,47,0.0,80.0
1818,76.0,0,47,0.0,80.0
1819,76.0,0,47,4.0,80.0
1820,60.0,0,47,2.0,80.0
1821,67.0,60,60,4.0,80.0
1822,60.0,0,60,5.0,80.0
1823,67.0,0,95,1.0,80.0
1824,60.0,0,95,3.0,80.0
1825,74.0,0,47,4.0,80.0
1826,74.0,0,47,0.0,80.0
1827,62.0,60,47,2.0,80.0
1828,72.0,0,47,4.0,80.0
1829,67.0,0,60,4.0,80.0
1830,48.0,0,60,5.0,80.0
1831,48.0,0,95,3.0,80.0
1832,72.0,0,95,0.0,80.0
1833,64.0,60,95,2.0,80.0
1834,67.0,0,95,1.0,80.0
1835,76.0,60,47,4.0,80.0
1836,79.0,0,47,4.0,80.0
1837,52.0,0,60,5.0,80.0
1838,67.0,60,60,4.0,80.0
1839,76.0,60,47,4.0,80.0
1840,77.0,0,47,4.0,80.0
1841,71.0,0,60,4.0,80.0
1842,55.0,60,60,5.0,80.0
1843,74.0,60,47,4.0,80.0
1844,72.0,0,60,4.0,80.0
1845,60.0,120,60,4.0,80.0
1846,60.0,60,190,5.0,80.0
1847,67.0,0,287,0.0,80.0
1848,64.0,0,287,1.0,80.0
1849,60.0,120,60,4.0,80.0
1850,69.0,120,47,0.0,80.0
1851,65.0,0,47,1.0,80.0
1852,60.0,0,60,4.0,80.0
1853,64.0,0,47,1.0,80.0
1854,67.0,60,47,0.0,80.0
1855,60.0,0,60,4.0,80.0
1856,60.0,120,60,4.0,80.0
1857,64.0,0,287,1.0,80.0
1858,67.0,60,287,0.0,80.0
1859,60.0,120,60,4.0,80.0
1860,76.0,120,47,0.0,80.0
1861,67.0,0,47,1.0,80.0
1862,60.0,0,60,4.0,80.0
1863,72.0,60,47,0.0,80.0
1864,64.0,0,47,1.0,80.0
1865,57.0,0,60,4.0,80.0
1866,57.0,120,60,4.0,80.0
1867,67.0,0,190,0.0,80.0
1868,64.0,60,190,1.0,80.0
1869,62.0,120,22,1.0,80.0
1870,65.0,0,22,0.0,80.0
1871,64.0,30,22,1.0,80.0
1872,67.0,0,22,0.0,80.0
1873,59.0,0,60,4.0,80.0
1874,62.0,30,22,1.0,80.0
1875,65.0,0,22,0.0,80.0
1876,67.0,30,22,0.0,80.0
1877,64.0,0,22,1.0,80.0
1878,65.0,30,47,0.0,80.0
1879,62.0,0,47,1.0,80.0
1880,59.0,0,60,4.0,80.0
1881,64.0,60,47,0.0,80.0
1882,60.0,0,47,1.0,80.0
1883,60.0,0,60,4.0,80.0
1884,72.0,0,47,4.0,80.0
1885,76.0,0,47,4.0,80.0
1886,48.0,120,60,5.0,80.0
1887,64.0,0,190,0.0,80.0
1888,60.0,60,190,1.0,80.0
1889,76.0,0,47,4.0,80.0
1890,79.0,60,47,4.0,80.0
1891,76.0,0,47,4.0,80.0
1892,79.0,0,47,4.0,80.0
1893,52.0,60,60,5.0,80.0
1894,72.0,0,47,4.0,80.0
1895,76.0,60,47,4.0,80.0
1896,77.0,0,47,4.0,80.0
1897,74.0,0,47,4.0,80.0
1898,55.0,60,60,5.0,80.0
1899,71.0,0,47,4.0,80.0
1900,74.0,60,47,4.0,80.0
1901,72.0,60,60,4.0,80.0
1902,48.0,0,60,5.0,80.0
1903,67.0,0,60,4.0,80.0
1904,48.0,120,60,5.0,80.0
1905,60.0,0,60,4.0,80.0
1906,55.0,0,287,2.0,80.0
1907,52.0,0,287,3.0,80.0
1908,48.0,120,60,5.0,80.0
1909,57.0,0,47,2.0,80.0
1910,53.0,120,47,3.0,80.0
1911,48.0,0,60,5.0,80.0
1912,55.0,60,47,2.0,80.0
1913,52.0,0,47,3.0,80.0
1914,48.0,0,60,5.0,80.0
1915,48.0,120,60,5.0,80.0
1916,55.0,60,287,2.0,80.0
1917,52.0,0,287,3.0,80.0
1918,48.0,120,60,5.0,80.0
1919,55.0,120,47,3.0,80.0
1920,64.0,0,47,2.0,80.0
1921,48.0,0,60,5.0,80.0
1922,52.0,0,47,3.0,80.0
1923,60.0,60,47,2.0,80.0
1924,45.0,0,60,5.0,80.0
1925,45.0,120,60,5.0,80.0
1926,52.0,0,190,3.0,80.0
1927,55.0,60,190,2.0,80.0
1928,53.0,0,22,2.0,80.0
1929,50.0,0,22,3.0,80.0
1930,52.0,30,22,3.0,80.0
1931,55.0,0,22,2.0,80.0
1932,47.0,120,60,5.0,80.0
1933,50.0,0,22,3.0,80.0
1934,53.0,30,22,2.0,80.0
1935,52.0,0,22,3.0,80.0
1936,55.0,30,22,2.0,80.0
1937,50.0,0,47,3.0,80.0
1938,53.0,30,47,2.0,80.0
1939,47.0,0,60,5.0,80.0
1940,48.0,60,47,3.0,80.0
1941,52.0,0,47,2.0,80.0
1942,48.0,60,60,5.0,80.0
1943,60.0,60,47,4.0,80.0
1944,52.0,0,47,5.0,80.0
1945,64.0,60,47,4.0,80.0
1946,48.0,0,190,3.0,80.0
1947,52.0,0,190,2.0,80.0
1948,55.0,60,47,5.0,80.0
1949,67.0,0,47,4.0,80.0
1950,72.0,0,47,4.0,80.0
1951,60.0,0,95,5.0,80.0
1952,67.0,0,95,1.0,80.0
1953,72.0,60,95,0.0,80.0
1954,64.0,0,95,2.0,80.0
1955,60.0,0,95,3.0,80.0
1956,64.0,0,107,4.0,80.0
1957,76.0,60,47,4.0,80.0
1958,74.0,0,47,4.0,80.0
1959,59.0,0,95,2.0,80.0
1960,55.0,0,95,5.0,80.0
1961,67.0,0,95,1.0,80.0
1962,74.0,0,95,0.0,80.0
1963,55.0,60,95,3.0,80.0
1964,71.0,0,107,4.0,80.0
1965,67.0,0,107,4.0,80.0
1966,77.0,60,47,4.0,80.0
1967,76.0,60,47,4.0,80.0
1968,60.0,0,95,2.0,80.0
1969,67.0,0,95,4.0,80.0
1970,72.0,0,95,4.0,80.0
1971,67.0,0,95,1.0,80.0
1972,60.0,0,95,5.0,80.0
1973,76.0,0,95,0.0,80.0
1974,60.0,0,95,3.0,80.0
1975,74.0,60,47,4.0,80.0
1976,72.0,0,47,0.0,80.0
1977,72.0,0,47,4.0,80.0
1978,64.0,60,47,2.0,80.0
1979,67.0,0,95,1.0,80.0
1980,48.0,0,95,5.0,80.0
1981,48.0,0,95,3.0,80.0
1982,64.0,0,95,4.0,80.0
1983,62.0,60,47,2.0,80.0
1984,74.0,0,47,4.0,80.0
1985,74.0,0,47,0.0,80.0
1986,76.0,0,47,4.0,80.0
1987,60.0,0,95,2.0,80.0
1988,60.0,0,95,3.0,80.0
1989,67.0,60,95,1.0,80.0
1990,60.0,0,95,5.0,80.0
1991,76.0,0,95,0.0,80.0
1992,67.0,0,95,4.0,80.0
1993,79.0,60,47,4.0,80.0
1994,78.0,0,47,4.0,80.0
1995,78.0,0,95,0.0,80.0
1996,60.0,0,95,2.0,80.0
1997,57.0,0,95,5.0,80.0
1998,57.0,0,95,3.0,80.0
1999,69.0,0,95,1.0,80.0
2000,72.0,60,95,4.0,80.0
2001,81.0,60,47,4.0,80.0
2002,79.0,0,95,4.0,80.0
2003,71.0,60,95,4.0,80.0
2004,55.0,0,95,5.0,80.0
2005,62.0,0,95,1.0,80.0
2006,59.0,0,95,2.0,80.0
2007,79.0,0,95,0.0,80.0
2008,55.0,0,95,3.0,80.0
2009,67.0,120,95,0.0,80.0
2010,62.0,0,95,1.0,80.0
2011,59.0,0,95,2.0,80.0
2012,67.0,0,95,4.0,80.0
2013,43.0,0,95,5.0,80.0
2014,43.0,0,95,3.0,80.0
2015,60.0,60,47,4.0,80.0
2016,62.0,60,47,4.0,80.0
2017,72.0,360,190,0.0,80.0
2018,64.0,60,47,4.0,80.0
2019,65.0,0,47,4.0,80.0
2020,69.0,60,47,4.0,80.0
2021,67.0,60,47,4.0,80.0
2022,72.0,60,190,0.0,80.0
2023,65.0,60,47,4.0,80.0
2024,64.0,0,47,4.0,80.0
2025,72.0,60,95,0.0,80.0
2026,62.0,60,47,4.0,80.0
2027,60.0,0,47,4.0,80.0
2028,72.0,60,47,0.0,80.0
2029,62.0,60,47,4.0,80.0
2030,72.0,0,47,0.0,80.0
2031,64.0,60,47,4.0,80.0
2032,72.0,0,95,0.0,80.0
2033,60.0,60,47,4.0,80.0
2034,62.0,60,47,4.0,80.0
2035,72.0,0,47,0.0,80.0
2036,64.0,60,47,4.0,80.0
2037,72.0,0,47,0.0,80.0
2038,65.0,60,47,4.0,80.0
2039,62.0,60,47,4.0,80.0
2040,64.0,60,47,4.0,80.0
2041,65.0,60,47,4.0,80.0
2042,67.0,60,47,4.0,80.0
2043,69.0,60,47,4.0,80.0
2044,74.0,0,382,0.0,80.0
2045,65.0,60,47,4.0,80.0
2046,67.0,60,47,4.0,80.0
2047,64.0,0,47,4.0,80.0
2048,65.0,60,47,4.0,80.0
2049,62.0,60,47,4.0,80.0
2050,72.0,60,190,0.0,80.0
2051,64.0,60,47,4.0,80.0
2052,60.0,0,47,4.0,80.0
2053,72.0,60,95,0.0,80.0
2054,62.0,60,47,4.0,80.0
2055,59.0,0,47,4.0,80.0
2056,72.0,60,95,0.0,80.0
2057,60.0,60,47,4.0,80.0
2058,57.0,60,47,4.0,80.0
2059,57.0,60,47,4.0,80.0
2060,59.0,60,47,4.0,80.0
2061,72.0,0,190,0.0,80.0
2062,60.0,60,47,4.0,80.0
2063,62.0,60,47,4.0,80.0
2064,72.0,0,95,0.0,80.0
2065,60.0,60,47,4.0,80.0
2066,59.0,60,47,4.0,80.0
2067,72.0,0,95,0.0,80.0
2068,57.0,60,47,4.0,80.0
2069,55.0,0,47,4.0,80.0
2070,67.0,60,47,4.0,80.0
2071,65.0,60,47,4.0,80.0
2072,71.0,60,190,0.0,80.0
2073,67.0,60,47,4.0,80.0
2074,64.0,0,47,4.0,80.0
2075,62.0,60,47,4.0,80.0
2076,60.0,60,47,4.0,80.0
2077,72.0,60,190,0.0,80.0
2078,59.0,60,47,4.0,80.0
2079,60.0,0,47,4.0,80.0
2080,57.0,60,47,4.0,80.0
2081,59.0,60,47,4.0,80.0
2082,60.0,60,47,4.0,80.0
2083,62.0,60,47,4.0,80.0
2084,64.0,60,47,4.0,80.0
2085,69.0,60,382,0.0,80.0
2086,60.0,60,47,4.0,80.0
2087,62.0,60,47,4.0,80.0
2088,59.0,60,47,4.0,80.0
2089,55.0,60,47,4.0,80.0
2090,43.0,0,47,5.0,80.0
2091,59.0,60,47,4.0,80.0
2092,47.0,0,47,5.0,80.0
2093,67.0,0,190,0.0,80.0
2094,62.0,60,47,4.0,80.0
2095,50.0,0,47,5.0,80.0
2096,55.0,0,47,5.0,80.0
2097,55.0,60,47,3.0,80.0
2098,59.0,0,47,2.0,80.0
2099,67.0,0,95,4.0,80.0
2100,74.0,0,95,4.0,80.0
2101,74.0,0,95,0.0,80.0
2102,67.0,0,95,1.0,80.0
2103,57.0,60,47,5.0,80.0
2104,57.0,0,47,3.0,80.0
2105,60.0,0,47,2.0,80.0
2106,62.0,0,47,2.0,80.0
2107,59.0,0,47,3.0,80.0
2108,59.0,0,47,5.0,80.0
2109,74.0,0,95,0.0,80.0
2110,67.0,60,95,1.0,80.0
2111,74.0,0,95,4.0,80.0
2112,67.0,0,95,4.0,80.0
2113,55.0,0,47,3.0,80.0
2114,59.0,0,47,2.0,80.0
2115,55.0,60,47,5.0,80.0
2116,76.0,0,47,4.0,80.0
2117,76.0,0,95,0.0,80.0
2118,60.0,0,95,2.0,80.0
2119,72.0,60,47,4.0,80.0
2120,76.0,0,47,4.0,80.0
2121,67.0,0,190,4.0,80.0
2122,60.0,60,190,3.0,80.0
2123,67.0,0,190,1.0,80.0
2124,60.0,0,190,5.0,80.0
2125,74.0,0,95,0.0,80.0
2126,62.0,60,95,2.0,80.0
2127,79.0,60,47,4.0,80.0
2128,84.0,0,47,4.0,80.0
2129,79.0,0,47,4.0,80.0
2130,72.0,0,47,4.0,80.0
2131,60.0,60,47,5.0,80.0
2132,67.0,60,47,4.0,80.0
2133,55.0,0,47,5.0,80.0
2134,64.0,0,190,2.0,80.0
2135,67.0,0,190,1.0,80.0
2136,72.0,0,190,0.0,80.0
2137,48.0,60,190,3.0,80.0
2138,52.0,0,47,5.0,80.0
2139,64.0,60,47,4.0,80.0
2140,60.0,0,95,4.0,80.0
2141,48.0,60,95,5.0,80.0
2142,64.0,120,95,4.0,80.0
2143,60.0,0,95,5.0,80.0
2144,72.0,0,95,4.0,80.0
2145,60.0,0,190,5.0,80.0
2146,64.0,0,190,4.0,80.0
2147,48.0,120,190,5.0,80.0
2148,72.0,0,190,4.0,80.0
2149,48.0,60,47,5.0,80.0
2150,50.0,60,47,5.0,80.0
2151,60.0,240,190,2.0,80.0
2152,52.0,60,47,5.0,80.0
2153,53.0,60,47,5.0,80.0
2154,57.0,60,47,5.0,80.0
2155,55.0,60,47,5.0,80.0
2156,60.0,0,190,2.0,80.0
2157,53.0,60,47,5.0,80.0
2158,52.0,0,47,5.0,80.0
2159,60.0,60,95,2.0,80.0
2160,50.0,60,47,5.0,80.0
2161,48.0,60,47,5.0,80.0
2162,60.0,0,47,2.0,80.0
2163,60.0,60,47,2.0,80.0
2164,50.0,0,47,5.0,80.0
2165,52.0,0,47,5.0,80.0
2166,60.0,60,95,2.0,80.0
2167,48.0,60,47,5.0,80.0
2168,50.0,60,47,5.0,80.0
2169,60.0,0,47,2.0,80.0
2170,52.0,0,47,5.0,80.0
2171,60.0,60,47,2.0,80.0
2172,53.0,60,47,5.0,80.0
2173,50.0,60,47,5.0,80.0
2174,52.0,60,47,5.0,80.0
2175,53.0,60,47,5.0,80.0
2176,55.0,60,47,5.0,80.0
2177,57.0,60,47,5.0,80.0
2178,62.0,0,382,2.0,80.0
2179,53.0,60,47,5.0,80.0
2180,55.0,60,47,5.0,80.0
2181,52.0,60,47,5.0,80.0
2182,53.0,60,47,5.0,80.0
2183,55.0,60,47,5.0,80.0
2184,60.0,0,190,2.0,80.0
2185,53.0,60,47,5.0,80.0
2186,52.0,0,47,5.0,80.0
2187,60.0,60,95,2.0,80.0
2188,50.0,60,47,5.0,80.0
2189,52.0,0,47,5.0,80.0
2190,60.0,60,95,2.0,80.0
2191,48.0,60,47,5.0,80.0
2192,50.0,60,47,5.0,80.0
2193,52.0,60,47,5.0,80.0
2194,54.0,60,47,5.0,80.0
2195,60.0,0,190,2.0,80.0
2196,55.0,60,47,5.0,80.0
2197,57.0,60,47,5.0,80.0
2198,60.0,0,95,2.0,80.0
2199,54.0,60,47,5.0,80.0
2200,52.0,0,47,5.0,80.0
2201,60.0,60,95,2.0,80.0
2202,50.0,60,47,5.0,80.0
2203,55.0,0,47,5.0,80.0
2204,54.0,60,47,5.0,80.0
2205,52.0,60,47,5.0,80.0
2206,59.0,60,190,2.0,80.0
2207,50.0,60,47,5.0,80.0
2208,52.0,0,47,5.0,80.0
2209,50.0,60,47,5.0,80.0
2210,48.0,60,47,5.0,80.0
2211,60.0,60,190,2.0,80.0
2212,47.0,60,47,5.0,80.0
2213,48.0,0,47,5.0,80.0
2214,45.0,60,47,5.0,80.0
2215,47.0,60,47,5.0,80.0
2216,48.0,60,47,5.0,80.0
2217,50.0,60,47,5.0,80.0
2218,48.0,60,47,5.0,80.0
2219,57.0,60,382,2.0,80.0
2220,47.0,60,47,5.0,80.0
2221,45.0,60,47,5.0,80.0
2222,47.0,0,47,5.0,80.0
2223,55.0,0,47,4.0,80.0
2224,43.0,60,47,5.0,80.0
2225,47.0,60,47,5.0,80.0
2226,59.0,0,47,4.0,80.0
2227,55.0,60,190,2.0,80.0
2228,62.0,60,47,4.0,80.0
2229,50.0,0,47,5.0,80.0
2230,55.0,0,47,3.0,80.0
2231,55.0,0,47,5.0,80.0
2232,67.0,0,47,4.0,80.0
2233,59.0,60,95,2.0,80.0
2234,74.0,0,95,0.0,80.0
2235,67.0,0,95,1.0,80.0
2236,57.0,60,47,3.0,80.0
2237,57.0,0,47,5.0,80.0
2238,71.0,0,47,4.0,80.0
2239,74.0,0,47,4.0,80.0
2240,55.0,0,47,3.0,80.0
2241,55.0,0,47,5.0,80.0
2242,67.0,0,95,1.0,80.0
2243,74.0,0,95,0.0,80.0
2244,59.0,60,95,2.0,80.0
2245,53.0,60,47,3.0,80.0
2246,53.0,0,47,5.0,80.0
2247,71.0,0,47,4.0,80.0
2248,72.0,0,47,4.0,80.0
2249,52.0,0,60,5.0,80.0
2250,67.0,0,95,1.0,80.0
2251,60.0,0,95,2.0,80.0
2252,72.0,60,95,0.0,80.0
2253,52.0,0,95,3.0,80.0
2254,74.0,60,47,4.0,80.0
2255,60.0,0,47,2.0,80.0
2256,76.0,0,47,4.0,80.0
2257,76.0,0,47,0.0,80.0
2258,48.0,60,60,5.0,80.0
2259,67.0,0,190,4.0,80.0
2260,48.0,0,95,3.0,80.0
2261,67.0,0,95,1.0,80.0
2262,62.0,0,47,2.0,80.0
2263,74.0,0,47,4.0,80.0
2264,74.0,60,47,0.0,80.0
2265,72.0,0,47,0.0,80.0
2266,72.0,0,47,4.0,80.0
2267,48.0,0,60,5.0,80.0
2268,64.0,60,95,2.0,80.0
2269,48.0,0,95,3.0,80.0
2270,67.0,0,95,1.0,80.0
2271,71.0,0,47,0.0,80.0
2272,71.0,60,47,4.0,80.0
2273,69.0,0,47,4.0,80.0
2274,69.0,0,47,0.0,80.0
2275,49.0,0,60,5.0,80.0
2276,64.0,0,190,4.0,80.0
2277,57.0,60,95,2.0,80.0
2278,49.0,0,95,3.0,80.0
2279,64.0,0,95,1.0,80.0
2280,67.0,60,47,0.0,80.0
2281,67.0,0,47,4.0,80.0
2282,50.0,0,60,5.0,80.0
2283,66.0,0,95,4.0,80.0
2284,50.0,0,95,3.0,80.0
2285,62.0,0,95,1.0,80.0
2286,66.0,60,95,0.0,80.0
2287,57.0,0,95,2.0,80.0
2288,81.0,0,47,4.0,80.0
2289,50.0,0,60,5.0,80.0
2290,62.0,0,190,4.0,80.0
2291,57.0,0,95,2.0,80.0
2292,50.0,0,95,3.0,80.0
2293,66.0,120,95,1.0,80.0
2294,74.0,0,95,0.0,80.0
2295,78.0,60,47,4.0,80.0
2296,50.0,0,60,5.0,80.0
2297,62.0,60,95,2.0,80.0
2298,62.0,0,95,4.0,80.0
2299,74.0,0,95,4.0,80.0
2300,50.0,120,60,5.0,80.0
2301,74.0,0,95,4.0,80.0
2302,62.0,0,95,2.0,80.0
2303,62.0,0,95,4.0,80.0
2304,74.0,0,47,4.0,80.0
2305,78.0,60,47,4.0,80.0
2306,81.0,60,47,4.0,80.0
2307,62.0,0,190,4.0,80.0
2308,62.0,0,190,5.0,80.0
2309,79.0,60,47,4.0,80.0
2310,78.0,0,47,4.0,80.0
2311,69.0,0,95,1.0,80.0
2312,72.0,0,95,0.0,80.0
2313,69.0,0,95,4.0,80.0
2314,54.0,0,95,5.0,80.0
2315,54.0,60,95,3.0,80.0
2316,76.0,60,47,4.0,80.0
2317,62.0,120,382,2.0,80.0
2318,74.0,0,47,4.0,80.0
2319,69.0,0,95,4.0,80.0
2320,69.0,0,95,1.0,80.0
2321,54.0,0,95,3.0,80.0
2322,72.0,0,95,0.0,80.0
2323,54.0,60,95,5.0,80.0
2324,72.0,60,47,4.0,80.0
2325,72.0,0,47,4.0,80.0
2326,69.0,60,95,1.0,80.0
2327,69.0,60,47,4.0,80.0
2328,74.0,0,47,4.0,80.0
2329,54.0,0,190,3.0,80.0
2330,62.0,0,190,2.0,80.0
2331,54.0,0,190,5.0,80.0
2332,62.0,60,95,1.0,80.0
2333,72.0,60,47,4.0,80.0
2334,79.0,60,95,4.0,80.0
2335,67.0,0,95,1.0,80.0
2336,71.0,0,95,4.0,80.0
2337,55.0,0,190,5.0,80.0
2338,55.0,0,190,3.0,80.0
2339,67.0,0,95,4.0,80.0
2340,79.0,120,95,4.0,80.0
2341,67.0,0,95,1.0,80.0
2342,79.0,120,47,4.0,80.0
2343,83.0,60,47,4.0,80.0
2344,86.0,60,47,4.0,80.0
2345,67.0,0,190,4.0,80.0
2346,84.0,60,47,4.0,80.0
2347,83.0,0,47,4.0,80.0
2348,47.0,0,95,3.0,80.0
2349,74.0,60,95,0.0,80.0
2350,74.0,0,95,4.0,80.0
2351,47.0,0,95,5.0,80.0
2352,65.0,0,95,2.0,80.0
2353,81.0,60,47,4.0,80.0
2354,67.0,0,382,1.0,80.0
2355,79.0,60,47,4.0,80.0
2356,65.0,0,95,2.0,80.0
2357,74.0,0,95,0.0,80.0
2358,74.0,0,95,4.0,80.0
2359,47.0,0,95,3.0,80.0
2360,47.0,0,95,5.0,80.0
2361,77.0,60,47,4.0,80.0
2362,77.0,0,47,4.0,80.0
2363,74.0,60,47,4.0,80.0
2364,79.0,60,47,4.0,80.0
2365,65.0,0,190,2.0,80.0
2366,67.0,60,190,4.0,80.0
2367,67.0,0,190,1.0,80.0
2368,74.0,0,190,0.0,80.0
2369,47.0,0,190,3.0,80.0
2370,47.0,0,190,5.0,80.0
2371,77.0,60,47,4.0,80.0
2372,76.0,0,47,4.0,80.0
2373,64.0,0,47,2.0,80.0
2374,67.0,0,47,1.0,80.0
2375,65.0,0,47,1.0,80.0
2376,74.0,0,47,4.0,80.0
2377,62.0,60,47,2.0,80.0
2378,64.0,0,47,1.0,80.0
2379,72.0,60,47,4.0,80.0
2380,60.0,0,47,2.0,80.0
2381,48.0,0,190,3.0,80.0
2382,67.0,0,190,4.0,80.0
2383,48.0,0,190,5.0,80.0
2384,72.0,60,190,0.0,80.0
2385,62.0,0,47,1.0,80.0
2386,71.0,0,47,4.0,80.0
2387,59.0,60,47,2.0,80.0
2388,69.0,0,47,4.0,80.0
2389,50.0,0,95,5.0,80.0
2390,62.0,0,95,1.0,80.0
2391,66.0,60,95,4.0,80.0
2392,57.0,0,95,2.0,80.0
2393,66.0,0,95,0.0,80.0
2394,50.0,0,95,3.0,80.0
2395,74.0,60,47,4.0,80.0
2396,78.0,0,47,4.0,80.0
2397,57.0,0,95,2.0,80.0
2398,48.0,0,95,5.0,80.0
2399,48.0,60,95,3.0,80.0
2400,69.0,0,95,4.0,80.0
2401,66.0,0,95,0.0,80.0
2402,62.0,0,95,1.0,80.0
2403,74.0,60,47,4.0,80.0
2404,79.0,0,47,4.0,80.0
2405,62.0,0,95,1.0,80.0
2406,47.0,0,95,3.0,80.0
2407,47.0,0,95,5.0,80.0
2408,57.0,0,95,2.0,80.0
2409,67.0,0,95,4.0,80.0
2410,74.0,60,47,4.0,80.0
2411,45.0,0,47,3.0,80.0
2412,72.0,0,47,4.0,80.0
2413,45.0,0,47,5.0,80.0
2414,60.0,0,47,2.0,80.0
2415,67.0,60,95,4.0,80.0
2416,62.0,0,95,1.0,80.0
2417,43.0,60,47,5.0,80.0
2418,59.0,0,47,2.0,80.0
2419,43.0,0,47,3.0,80.0
2420,71.0,0,47,4.0,80.0
2421,69.0,0,47,4.0,80.0
2422,67.0,60,335,0.0,80.0
2423,50.0,0,95,5.0,80.0
2424,50.0,0,95,3.0,80.0
2425,79.0,60,47,4.0,80.0
2426,66.0,0,47,0.0,80.0
2427,78.0,60,47,4.0,80.0
2428,50.0,0,95,3.0,80.0
2429,50.0,0,95,5.0,80.0
2430,64.0,60,47,0.0,80.0
2431,76.0,0,47,4.0,80.0
2432,78.0,0,47,4.0,80.0
2433,50.0,0,95,5.0,80.0
2434,69.0,60,47,4.0,80.0
2435,62.0,0,382,1.0,80.0
2436,57.0,60,382,2.0,80.0
2437,71.0,0,47,4.0,80.0
2438,69.0,60,10,4.0,80.0
2439,66.0,60,190,0.0,80.0
2440,50.0,0,190,3.0,80.0
2441,50.0,60,95,5.0,80.0
2442,67.0,0,47,4.0,80.0
2443,43.0,0,95,5.0,80.0
2444,74.0,60,47,4.0,80.0
2445,79.0,60,47,4.0,80.0
2446,55.0,0,190,2.0,80.0
2447,67.0,0,190,0.0,80.0
2448,62.0,60,190,1.0,80.0
2449,43.0,0,190,3.0,80.0
2450,47.0,0,95,5.0,80.0
2451,71.0,60,47,4.0,80.0
2452,69.0,0,47,4.0,80.0
2453,50.0,60,95,5.0,80.0
2454,79.0,60,47,4.0,80.0
2455,69.0,0,47,4.0,80.0
2456,50.0,60,95,5.0,80.0
2457,78.0,60,47,4.0,80.0
2458,43.0,60,60,5.0,80.0
2459,55.0,120,60,5.0,80.0
2460,79.0,0,190,4.0,80.0
2461,71.0,0,190,4.0,80.0
2462,74.0,0,287,0.0,80.0
2463,59.0,0,287,2.0,80.0
2464,55.0,120,60,5.0,80.0
2465,76.0,120,47,0.0,80.0
2466,60.0,0,47,2.0,80.0
2467,55.0,0,60,5.0,80.0
2468,59.0,60,47,2.0,80.0
2469,74.0,0,47,0.0,80.0
2470,55.0,60,60,5.0,80.0
2471,55.0,120,60,5.0,80.0
2472,59.0,0,287,2.0,80.0
2473,74.0,0,287,0.0,80.0
2474,55.0,120,60,5.0,80.0
2475,79.0,0,47,0.0,80.0
2476,62.0,0,47,2.0,80.0
2477,55.0,120,60,5.0,80.0
2478,59.0,0,47,2.0,80.0
2479,74.0,60,47,0.0,80.0
2480,57.0,60,60,5.0,80.0
2481,57.0,120,60,5.0,80.0
2482,59.0,0,190,2.0,80.0
2483,74.0,0,190,0.0,80.0
2484,50.0,0,60,5.0,80.0
2485,50.0,120,60,5.0,80.0
2486,72.0,0,190,0.0,80.0
2487,57.0,120,190,2.0,80.0
2488,55.0,0,60,5.0,80.0
2489,43.0,0,60,5.0,80.0
2490,71.0,120,190,0.0,80.0
2491,55.0,0,190,2.0,80.0
2492,74.0,0,95,4.0,80.0
2493,71.0,120,95,4.0,80.0
2494,74.0,0,47,4.0,80.0
2495,71.0,120,47,4.0,80.0
2496,47.0,0,60,5.0,80.0
2497,71.0,0,47,4.0,80.0
2498,67.0,60,47,4.0,80.0
2499,69.0,0,47,4.0,80.0
2500,72.0,0,47,4.0,80.0
2501,50.0,60,60,5.0,80.0
2502,66.0,0,47,4.0,80.0
2503,69.0,60,47,4.0,80.0
2504,55.0,0,60,5.0,80.0
2505,55.0,120,60,5.0,80.0
2506,71.0,60,190,4.0,80.0
2507,67.0,0,190,4.0,80.0
2508,62.0,0,287,1.0,80.0
2509,59.0,0,287,3.0,80.0
2510,55.0,120,60,5.0,80.0
2511,64.0,0,47,1.0,80.0
2512,60.0,120,47,3.0,80.0
2513,55.0,0,60,5.0,80.0
2514,59.0,0,47,3.0,80.0
2515,62.0,60,47,1.0,80.0
2516,55.0,60,60,5.0,80.0
2517,55.0,120,60,5.0,80.0
2518,62.0,0,287,1.0,80.0
2519,59.0,0,287,3.0,80.0
2520,55.0,120,60,5.0,80.0
2521,67.0,0,47,1.0,80.0
2522,62.0,0,47,3.0,80.0
2523,55.0,120,60,5.0,80.0
2524,59.0,60,47,3.0,80.0
2525,62.0,0,47,1.0,80.0
2526,52.0,60,60,5.0,80.0
2527,52.0,120,60,5.0,80.0
2528,59.0,0,190,3.0,80.0
2529,62.0,0,190,1.0,80.0
2530,54.0,120,60,5.0,80.0
2531,54.0,120,60,5.0,80.0
2532,57.0,0,190,3.0,80.0
2533,60.0,0,190,1.0,80.0
2534,55.0,0,95,5.0,80.0
2535,59.0,0,95,1.0,80.0
2536,55.0,120,95,3.0,80.0
2537,62.0,60,47,4.0,80.0
2538,74.0,0,47,4.0,80.0
2539,59.0,60,95,5.0,80.0
2540,59.0,0,95,3.0,80.0
2541,62.0,60,47,4.0,80.0
2542,72.0,60,47,4.0,80.0
2543,72.0,0,95,0.0,80.0
2544,57.0,0,95,5.0,80.0
2545,57.0,0,95,3.0,80.0
2546,62.0,0,215,1.0,80.0
2547,66.0,0,95,2.0,80.0
2548,62.0,60,47,4.0,80.0
2549,62.0,0,47,2.0,80.0
2550,69.0,0,47,4.0,80.0
2551,69.0,0,95,0.0,80.0
2552,62.0,0,95,1.0,80.0
2553,54.0,60,95,3.0,80.0
2554,54.0,0,95,5.0,80.0
2555,60.0,60,47,2.0,80.0
2556,62.0,0,47,4.0,80.0
2557,71.0,0,47,4.0,80.0
2558,55.0,0,95,5.0,80.0
2559,55.0,0,95,3.0,80.0
2560,59.0,0,95,2.0,80.0
2561,71.0,60,95,0.0,80.0
2562,62.0,60,47,4.0,80.0
2563,74.0,0,47,4.0,80.0
2564,74.0,0,95,0.0,80.0
2565,59.0,0,95,3.0,80.0
2566,67.0,60,95,2.0,80.0
2567,59.0,0,95,5.0,80.0
2568,62.0,60,47,4.0,80.0
2569,72.0,0,47,4.0,80.0
2570,57.0,0,95,3.0,80.0
2571,72.0,0,95,0.0,80.0
2572,66.0,0,95,2.0,80.0
2573,57.0,60,95,5.0,80.0
2574,62.0,60,47,4.0,80.0
2575,62.0,0,382,1.0,80.0
2576,62.0,0,47,2.0,80.0
2577,69.0,0,47,4.0,80.0
2578,54.0,0,95,3.0,80.0
2579,69.0,60,95,0.0,80.0
2580,54.0,0,95,5.0,80.0
2581,60.0,60,47,2.0,80.0
2582,62.0,0,47,4.0,80.0
2583,71.0,0,47,4.0,80.0
2584,62.0,60,95,1.0,80.0
2585,55.0,0,95,5.0,80.0
2586,59.0,0,95,2.0,80.0
2587,71.0,0,95,0.0,80.0
2588,72.0,60,47,4.0,80.0
2589,71.0,0,47,4.0,80.0
2590,55.0,0,190,3.0,80.0
2591,62.0,0,190,4.0,80.0
2592,55.0,0,95,5.0,80.0
2593,55.0,0,95,2.0,80.0
2594,72.0,60,47,4.0,80.0
2595,74.0,0,47,4.0,80.0
2596,74.0,60,190,0.0,80.0
2597,71.0,0,190,1.0,80.0
2598,53.0,60,95,5.0,80.0
2599,76.0,60,47,4.0,80.0
2600,77.0,0,47,4.0,80.0
2601,69.0,60,10,4.0,80.0
2602,53.0,0,190,3.0,80.0
2603,53.0,0,95,5.0,80.0
2604,62.0,60,95,1.0,80.0
2605,69.0,0,95,0.0,80.0
2606,52.0,0,95,3.0,80.0
2607,52.0,0,95,5.0,80.0
2608,68.0,0,95,4.0,80.0
2609,59.0,0,95,2.0,80.0
2610,68.0,0,95,0.0,80.0
2611,62.0,60,190,1.0,80.0
2612,56.0,0,95,2.0,80.0
2613,50.0,0,95,3.0,80.0
2614,50.0,120,95,5.0,80.0
2615,77.0,0,95,4.0,80.0
2616,77.0,0,95,0.0,80.0
2617,76.0,0,95,4.0,80.0
2618,57.0,0,95,2.0,80.0
2619,48.0,0,95,5.0,80.0
2620,76.0,0,95,0.0,80.0
2621,48.0,120,95,3.0,80.0
2622,64.0,0,95,1.0,80.0
2623,69.0,0,95,4.0,80.0
2624,66.0,0,47,1.0,80.0
2625,47.0,0,95,5.0,80.0
2626,47.0,0,95,3.0,80.0
2627,74.0,0,95,0.0,80.0
2628,64.0,0,95,2.0,80.0
2629,74.0,0,95,4.0,80.0
2630,68.0,120,95,4.0,80.0
2631,68.0,60,47,1.0,80.0
2632,72.0,0,95,0.0,80.0
2633,45.0,0,95,5.0,80.0
2634,69.0,0,95,4.0,80.0
2635,72.0,60,95,4.0,80.0
2636,64.0,0,95,2.0,80.0
2637,45.0,0,95,3.0,80.0
2638,71.0,0,95,4.0,80.0
2639,62.0,0,95,2.0,80.0
2640,57.0,0,95,5.0,80.0
2641,74.0,0,95,4.0,80.0
2642,74.0,0,95,0.0,80.0
2643,72.0,0,47,4.0,80.0
2644,57.0,0,95,5.0,80.0
2645,60.0,120,95,2.0,80.0
2646,57.0,120,215,3.0,80.0
2647,74.0,60,47,4.0,80.0
2648,71.0,0,47,4.0,80.0
2649,59.0,60,95,2.0,80.0
2650,55.0,0,95,5.0,80.0
2651,55.0,0,95,3.0,80.0
2652,72.0,60,47,4.0,80.0
2653,76.0,0,335,4.0,80.0
2654,53.0,0,95,5.0,80.0
2655,76.0,0,335,0.0,80.0
2656,74.0,0,47,0.0,80.0
2657,57.0,0,190,2.0,80.0
2658,53.0,0,95,5.0,80.0
2659,81.0,120,95,4.0,80.0
2660,72.0,60,47,0.0,80.0
2661,69.0,60,287,4.0,80.0
2662,69.0,0,767,1.0,80.0
2663,53.0,0,95,5.0,80.0
2664,53.0,0,382,3.0,80.0
2665,81.0,0,190,4.0,80.0
2666,74.0,0,190,0.0,80.0
2667,65.0,60,190,2.0,80.0
2668,53.0,0,95,5.0,80.0
2669,74.0,120,95,4.0,80.0
2670,80.0,0,47,4.0,80.0
2671,76.0,0,47,4.0,80.0
2672,64.0,60,47,4.0,80.0
2673,68.0,60,47,4.0,80.0
2674,59.0,0,190,2.0,80.0
2675,52.0,0,190,3.0,80.0
2676,76.0,0,190,0.0,80.0
2677,68.0,0,190,1.0,80.0
2678,52.0,120,190,5.0,80.0
2679,71.0,60,47,4.0,80.0
2680,76.0,0,47,4.0,80.0
2681,52.0,60,95,5.0,80.0
2682,64.0,0,107,4.0,80.0
2683,79.0,60,47,4.0,80.0
2684,77.0,60,47,4.0,80.0
2685,67.0,0,47,4.0,80.0
2686,50.0,0,95,5.0,80.0
2687,71.0,60,47,4.0,80.0
2688,65.0,0,47,4.0,80.0
2689,48.0,0,47,5.0,80.0
2690,48.0,60,47,5.0,80.0
2691,50.0,60,47,5.0,80.0
2692,60.0,0,190,3.0,80.0
2693,64.0,0,190,4.0,80.0
2694,72.0,60,190,4.0,80.0
2695,55.0,0,190,4.0,80.0
2696,52.0,60,47,5.0,80.0
2697,53.0,60,47,5.0,80.0
2698,57.0,60,47,5.0,80.0
2699,55.0,60,47,5.0,80.0
2700,60.0,0,190,3.0,80.0
2701,53.0,60,47,5.0,80.0
2702,52.0,60,47,5.0,80.0
2703,60.0,0,95,3.0,80.0
2704,53.0,60,47,5.0,80.0
2705,60.0,60,47,3.0,80.0
2706,55.0,0,47,5.0,80.0
2707,60.0,60,47,3.0,80.0
2708,53.0,0,47,5.0,80.0
2709,52.0,60,47,5.0,80.0
2710,60.0,0,95,3.0,80.0
2711,50.0,60,47,5.0,80.0
2712,60.0,0,47,3.0,80.0
2713,52.0,60,47,5.0,80.0
2714,48.0,60,47,5.0,80.0
2715,60.0,0,47,3.0,80.0
2716,53.0,0,47,5.0,80.0
2717,50.0,60,47,5.0,80.0
2718,52.0,60,47,5.0,80.0
2719,53.0,60,47,5.0,80.0
2720,55.0,60,47,5.0,80.0
2721,57.0,60,47,5.0,80.0
2722,62.0,60,382,3.0,80.0
2723,53.0,60,47,5.0,80.0
2724,55.0,60,47,5.0,80.0
2725,52.0,0,47,5.0,80.0
2726,53.0,60,47,5.0,80.0
2727,50.0,60,47,5.0,80.0
2728,60.0,60,190,3.0,80.0
2729,52.0,60,47,5.0,80.0
2730,48.0,60,47,5.0,80.0
2731,60.0,0,95,3.0,80.0
2732,50.0,60,47,5.0,80.0
2733,47.0,0,47,5.0,80.0
2734,60.0,60,95,3.0,80.0
2735,48.0,60,47,5.0,80.0
2736,45.0,60,47,5.0,80.0
2737,45.0,60,47,5.0,80.0
2738,47.0,60,47,5.0,80.0
2739,60.0,0,190,3.0,80.0
2740,48.0,60,47,5.0,80.0
2741,50.0,0,47,5.0,80.0
2742,60.0,60,95,3.0,80.0
2743,48.0,60,47,5.0,80.0
2744,47.0,0,47,5.0,80.0
2745,60.0,60,95,3.0,80.0
2746,45.0,60,47,5.0,80.0
2747,43.0,0,47,5.0,80.0
2748,55.0,60,47,5.0,80.0
2749,54.0,60,47,5.0,80.0
2750,59.0,60,190,3.0,80.0
2751,55.0,60,47,5.0,80.0
2752,52.0,0,47,5.0,80.0
2753,50.0,60,47,5.0,80.0
2754,52.0,60,47,5.0,80.0
2755,60.0,60,190,3.0,80.0
2756,48.0,60,47,5.0,80.0
2757,50.0,60,47,5.0,80.0
2758,45.0,60,47,5.0,80.0
2759,47.0,60,47,5.0,80.0
2760,48.0,60,47,5.0,80.0
2761,50.0,60,47,5.0,80.0
2762,48.0,60,47,5.0,80.0
2763,57.0,0,382,3.0,80.0
2764,47.0,60,47,5.0,80.0
2765,45.0,60,47,5.0,80.0
2766,47.0,0,47,5.0,80.0
2767,55.0,60,47,4.0,80.0
2768,43.0,0,47,5.0,80.0
2769,59.0,60,47,4.0,80.0
2770,47.0,0,47,5.0,80.0
2771,55.0,60,190,3.0,80.0
2772,50.0,0,47,5.0,80.0
2773,62.0,60,47,4.0,80.0
2774,55.0,0,47,3.0,80.0
2775,55.0,60,47,5.0,80.0
2776,71.0,0,47,0.0,80.0
2777,62.0,0,95,2.0,80.0
2778,67.0,0,95,4.0,80.0
2779,67.0,0,95,1.0,80.0
2780,57.0,0,47,3.0,80.0
2781,72.0,0,47,0.0,80.0
2782,57.0,60,47,5.0,80.0
2783,59.0,0,47,3.0,80.0
2784,59.0,0,47,5.0,80.0
2785,74.0,0,47,0.0,80.0
2786,62.0,0,95,2.0,80.0
2787,67.0,60,95,1.0,80.0
2788,74.0,0,95,4.0,80.0
2789,67.0,0,95,4.0,80.0
2790,71.0,0,47,0.0,80.0
2791,55.0,0,47,3.0,80.0
2792,55.0,60,47,5.0,80.0
2793,60.0,0,47,5.0,80.0
2794,60.0,60,47,3.0,80.0
2795,67.0,0,95,4.0,80.0
2796,76.0,0,95,4.0,80.0
2797,59.0,0,47,5.0,80.0
2798,59.0,60,47,3.0,80.0
2799,60.0,0,47,5.0,80.0
2800,60.0,60,47,3.0,80.0
2801,67.0,0,190,1.0,80.0
2802,79.0,0,95,4.0,80.0
2803,59.0,60,47,5.0,80.0
2804,59.0,0,47,3.0,80.0
2805,57.0,0,47,5.0,80.0
2806,57.0,60,47,3.0,80.0
2807,60.0,0,287,2.0,80.0
2808,76.0,0,287,0.0,80.0
2809,84.0,0,95,4.0,80.0
2810,67.0,0,215,4.0,80.0
2811,76.0,0,215,4.0,80.0
2812,55.0,0,47,3.0,80.0
2813,59.0,0,47,2.0,80.0
2814,55.0,60,47,5.0,80.0
2815,60.0,0,47,2.0,80.0
2816,57.0,60,47,5.0,80.0
2817,57.0,0,47,3.0,80.0
2818,76.0,0,95,4.0,80.0
2819,69.0,0,95,4.0,80.0
2820,77.0,0,95,0.0,80.0
2821,57.0,60,47,2.0,80.0
2822,53.0,0,47,3.0,80.0
2823,53.0,0,47,5.0,80.0
2824,59.0,0,47,5.0,80.0
2825,59.0,60,47,3.0,80.0
2826,69.0,0,95,4.0,80.0
2827,77.0,0,215,4.0,80.0
2828,74.0,0,95,4.0,80.0
2829,57.0,0,47,5.0,80.0
2830,57.0,60,47,3.0,80.0
2831,59.0,0,47,3.0,80.0
2832,59.0,0,47,5.0,80.0
2833,65.0,0,430,1.0,80.0
2834,77.0,60,95,4.0,80.0
2835,57.0,0,47,5.0,80.0
2836,57.0,60,47,3.0,80.0
2837,56.0,0,47,5.0,80.0
2838,74.0,0,287,0.0,80.0
2839,56.0,0,47,3.0,80.0
2840,59.0,0,287,2.0,80.0
2841,83.0,0,95,4.0,80.0
2842,71.0,0,215,4.0,80.0
2843,74.0,0,215,4.0,80.0
2844,54.0,60,47,5.0,80.0
2845,57.0,0,47,2.0,80.0
2846,54.0,0,47,3.0,80.0
2847,59.0,0,47,2.0,80.0
2848,56.0,0,47,3.0,80.0
2849,56.0,0,47,5.0,80.0
2850,71.0,0,95,4.0,80.0
2851,74.0,0,95,4.0,80.0
2852,76.0,0,95,4.0,80.0
2853,76.0,60,95,0.0,80.0
2854,52.0,60,47,5.0,80.0
2855,56.0,0,47,2.0,80.0
2856,52.0,0,47,3.0,80.0
2857,57.0,0,95,3.0,80.0
2858,57.0,60,95,5.0,80.0
2859,76.0,0,95,4.0,80.0
2860,64.0,60,382,1.0,80.0
2861,57.0,0,190,2.0,80.0
2862,55.0,120,95,3.0,80.0
2863,76.0,0,95,4.0,80.0
2864,55.0,0,95,5.0,80.0
2865,72.0,0,287,0.0,80.0
2866,69.0,0,335,4.0,80.0
2867,72.0,0,335,4.0,80.0
2868,53.0,0,95,3.0,80.0
2869,53.0,0,95,5.0,80.0
2870,69.0,0,190,1.0,80.0
2871,57.0,0,190,2.0,80.0
2872,72.0,120,95,0.0,80.0
2873,72.0,0,95,4.0,80.0
2874,69.0,0,95,4.0,80.0
2875,81.0,120,215,4.0,80.0
2876,52.0,0,95,3.0,80.0
2877,52.0,0,95,5.0,80.0
2878,50.0,0,95,5.0,80.0
2879,71.0,0,95,0.0,80.0
2880,71.0,0,95,4.0,80.0
2881,50.0,120,95,3.0,80.0
2882,65.0,0,95,2.0,80.0
2883,81.0,0,95,4.0,80.0
2884,69.0,0,190,1.0,80.0
2885,71.0,0,95,0.0,80.0
2886,50.0,120,95,3.0,80.0
2887,65.0,0,95,2.0,80.0
2888,71.0,0,95,4.0,80.0
2889,81.0,0,95,4.0,80.0
2890,50.0,0,95,5.0,80.0
2891,52.0,0,95,5.0,80.0
2892,71.0,0,190,0.0,80.0
2893,64.0,120,190,2.0,80.0
2894,68.0,0,190,1.0,80.0
2895,80.0,0,190,4.0,80.0
2896,52.0,0,190,3.0,80.0
2897,71.0,0,190,4.0,80.0
2898,52.0,120,95,5.0,80.0
2899,81.0,0,47,4.0,80.0
2900,45.0,0,95,5.0,80.0
2901,76.0,60,47,4.0,80.0
2902,72.0,60,47,4.0,80.0
2903,69.0,60,10,4.0,80.0
2904,45.0,0,190,3.0,80.0
2905,69.0,120,190,1.0,80.0
2906,69.0,0,190,0.0,80.0
2907,64.0,0,190,2.0,80.0
2908,48.0,0,95,5.0,80.0
2909,50.0,60,95,5.0,80.0
2910,77.0,60,47,4.0,80.0
2911,76.0,0,47,4.0,80.0
2912,52.0,60,95,5.0,80.0
2913,68.0,60,47,4.0,80.0
2914,69.0,60,47,4.0,80.0
2915,57.0,60,47,4.0,80.0
2916,59.0,60,47,4.0,80.0
2917,57.0,0,190,5.0,80.0
2918,45.0,0,190,5.0,80.0
2919,69.0,0,190,1.0,80.0
2920,60.0,60,47,4.0,80.0
2921,62.0,0,47,4.0,80.0
2922,64.0,60,47,4.0,80.0
2923,65.0,60,47,4.0,80.0
2924,69.0,60,190,1.0,80.0
2925,62.0,60,47,4.0,80.0
2926,60.0,60,47,4.0,80.0
2927,69.0,0,95,1.0,80.0
2928,62.0,60,47,4.0,80.0
2929,69.0,60,47,1.0,80.0
2930,64.0,0,47,4.0,80.0
2931,62.0,60,47,4.0,80.0
2932,69.0,0,47,1.0,80.0
2933,60.0,0,47,4.0,80.0
2934,69.0,60,95,1.0,80.0
2935,59.0,60,47,4.0,80.0
2936,69.0,0,47,1.0,80.0
2937,60.0,60,47,4.0,80.0
2938,57.0,60,47,4.0,80.0
2939,69.0,0,47,1.0,80.0
2940,62.0,0,47,4.0,80.0
2941,64.0,60,47,4.0,80.0
2942,65.0,60,47,4.0,80.0
2943,62.0,60,47,4.0,80.0
2944,64.0,60,47,4.0,80.0
2945,62.0,60,47,4.0,80.0
2946,71.0,60,382,1.0,80.0
2947,60.0,60,47,4.0,80.0
2948,59.0,60,47,4.0,80.0
2949,60.0,60,47,4.0,80.0
2950,62.0,60,47,4.0,80.0
2951,64.0,60,47,4.0,80.0
2952,69.0,0,190,1.0,80.0
2953,62.0,60,47,4.0,80.0
2954,60.0,60,47,4.0,80.0
2955,69.0,0,95,1.0,80.0
2956,59.0,60,47,4.0,80.0
2957,60.0,0,47,4.0,80.0
2958,69.0,60,95,1.0,80.0
2959,57.0,60,47,4.0,80.0
2960,59.0,0,47,4.0,80.0
2961,60.0,60,47,4.0,80.0
2962,62.0,60,47,4.0,80.0
2963,69.0,60,190,1.0,80.0
2964,64.0,60,47,4.0,80.0
2965,65.0,60,47,4.0,80.0
2966,69.0,0,95,1.0,80.0
2967,62.0,60,47,4.0,80.0
2968,60.0,60,47,4.0,80.0
2969,69.0,0,95,1.0,80.0
2970,59.0,60,47,4.0,80.0
2971,64.0,0,47,4.0,80.0
2972,65.0,60,47,4.0,80.0
2973,64.0,60,47,4.0,80.0
2974,67.0,60,190,1.0,80.0
2975,62.0,60,47,4.0,80.0
2976,60.0,0,47,4.0,80.0
2977,62.0,60,47,4.0,80.0
2978,60.0,60,47,4.0,80.0
2979,69.0,60,190,1.0,80.0
2980,59.0,60,47,4.0,80.0
2981,57.0,0,47,4.0,80.0
2982,60.0,60,47,4.0,80.0
2983,59.0,60,47,4.0,80.0
2984,57.0,60,47,4.0,80.0
2985,59.0,60,47,4.0,80.0
2986,59.0,60,47,4.0,80.0
2987,66.0,60,382,1.0,80.0
2988,61.0,60,47,4.0,80.0
2989,63.0,60,47,4.0,80.0
2990,64.0,60,47,4.0,80.0
2991,64.0,0,95,1.0,80.0
2992,67.0,0,47,4.0,80.0
2993,52.0,60,47,5.0,80.0
2994,79.0,60,47,4.0,80.0
2995,64.0,0,47,5.0,80.0
2996,77.0,60,47,4.0,80.0
2997,62.0,0,47,5.0,80.0
2998,64.0,0,47,2.0,80.0
2999,61.0,0,47,5.0,80.0
3000,61.0,0,47,3.0,80.0
3001,76.0,0,47,4.0,80.0
3002,76.0,60,95,0.0,80.0
3003,67.0,0,215,1.0,80.0
3004,74.0,0,47,4.0,80.0
3005,59.0,0,47,3.0,80.0
3006,62.0,60,47,2.0,80.0
3007,59.0,0,47,5.0,80.0
3008,64.0,0,47,2.0,80.0
3009,61.0,60,47,3.0,80.0
3010,76.0,0,47,4.0,80.0
3011,61.0,0,47,5.0,80.0
3012,76.0,0,95,0.0,80.0
3013,67.0,0,95,1.0,80.0
3014,61.0,60,47,2.0,80.0
3015,69.0,0,227,4.0,80.0
3016,73.0,0,47,4.0,80.0
3017,57.0,0,47,5.0,80.0
3018,57.0,0,47,3.0,80.0
3019,62.0,0,47,5.0,80.0
3020,77.0,0,47,4.0,80.0
3021,65.0,0,95,2.0,80.0
3022,62.0,0,95,3.0,80.0
3023,76.0,0,47,4.0,80.0
3024,60.0,60,47,5.0,80.0
3025,77.0,0,47,4.0,80.0
3026,62.0,0,47,5.0,80.0
3027,76.0,0,190,0.0,80.0
3028,50.0,0,95,3.0,80.0
3029,57.0,60,95,2.0,80.0
3030,60.0,60,47,5.0,80.0
3031,76.0,0,47,4.0,80.0
3032,62.0,0,47,2.0,80.0
3033,59.0,0,47,3.0,80.0
3034,59.0,0,47,5.0,80.0
3035,74.0,0,47,4.0,80.0
3036,60.0,60,47,2.0,80.0
3037,72.0,0,47,4.0,80.0
3038,69.0,0,347,4.0,80.0
3039,57.0,0,47,3.0,80.0
3040,57.0,0,47,5.0,80.0
3041,65.0,60,382,1.0,80.0
3042,74.0,0,47,4.0,80.0
3043,59.0,60,47,3.0,80.0
3044,59.0,0,47,5.0,80.0
3045,62.0,0,47,2.0,80.0
3046,55.0,0,47,5.0,80.0
3047,59.0,0,47,2.0,80.0
3048,55.0,60,47,3.0,80.0
3049,76.0,0,47,4.0,80.0
3050,60.0,0,47,5.0,80.0
3051,60.0,60,95,3.0,80.0
3052,64.0,0,95,2.0,80.0
3053,59.0,60,47,5.0,80.0
3054,74.0,0,47,4.0,80.0
3055,74.0,60,382,0.0,80.0
3056,60.0,0,47,5.0,80.0
3057,76.0,0,47,4.0,80.0
3058,55.0,60,95,2.0,80.0
3059,48.0,0,95,3.0,80.0
3060,59.0,60,47,5.0,80.0
3061,74.0,0,47,4.0,80.0
3062,57.0,60,47,5.0,80.0
3063,57.0,0,47,3.0,80.0
3064,72.0,0,47,4.0,80.0
3065,60.0,0,95,2.0,80.0
3066,67.0,0,467,4.0,80.0
3067,71.0,0,407,4.0,80.0
3068,55.0,60,47,5.0,80.0
3069,55.0,0,47,3.0,80.0
3070,64.0,0,382,1.0,80.0
3071,57.0,0,47,3.0,80.0
3072,57.0,60,47,5.0,80.0
3073,72.0,0,47,4.0,80.0
3074,72.0,0,190,0.0,80.0
3075,59.0,0,95,2.0,80.0
3076,55.0,0,47,3.0,80.0
3077,55.0,60,47,5.0,80.0
3078,64.0,0,107,4.0,80.0
3079,69.0,0,47,4.0,80.0
3080,69.0,0,47,4.0,80.0
3081,54.0,60,95,5.0,80.0
3082,54.0,0,95,3.0,80.0
3083,57.0,0,95,2.0,80.0
3084,76.0,60,47,4.0,80.0
3085,84.0,0,47,4.0,80.0
3086,64.0,0,95,2.0,80.0
3087,54.0,0,95,5.0,80.0
3088,54.0,0,95,3.0,80.0
3089,76.0,60,47,4.0,80.0
3090,84.0,0,47,4.0,80.0
3091,64.0,60,95,2.0,80.0
3092,72.0,0,215,0.0,80.0
3093,54.0,0,95,3.0,80.0
3094,54.0,0,95,5.0,80.0
3095,69.0,60,215,1.0,80.0
3096,76.0,60,47,4.0,80.0
3097,84.0,0,47,4.0,80.0
3098,72.0,0,95,0.0,80.0
3099,64.0,0,95,2.0,80.0
3100,54.0,60,95,3.0,80.0
3101,54.0,0,95,5.0,80.0
3102,69.0,0,95,1.0,80.0
3103,76.0,60,47,4.0,80.0
3104,74.0,0,47,4.0,80.0
3105,55.0,0,95,3.0,80.0
3106,55.0,60,95,5.0,80.0
3107,79.0,60,47,4.0,80.0
3108,83.0,0,47,4.0,80.0
3109,71.0,0,190,0.0,80.0
3110,62.0,0,190,2.0,80.0
3111,67.0,0,190,1.0,80.0
3112,53.0,0,95,5.0,80.0
3113,62.0,0,215,5.0,80.0
3114,53.0,60,95,3.0,80.0
3115,79.0,60,47,4.0,80.0
3116,84.0,0,47,4.0,80.0
3117,52.0,0,95,5.0,80.0
3118,79.0,60,47,4.0,80.0
3119,76.0,0,47,4.0,80.0
3120,67.0,60,190,1.0,80.0
3121,64.0,0,190,2.0,80.0
3122,52.0,0,190,3.0,80.0
3123,72.0,0,190,0.0,80.0
3124,52.0,60,95,5.0,80.0
3125,64.0,0,215,5.0,80.0
3126,72.0,60,47,4.0,80.0
3127,81.0,0,47,4.0,80.0
3128,69.0,60,95,1.0,80.0
3129,53.0,0,95,5.0,80.0
3130,62.0,0,95,2.0,80.0
3131,53.0,0,95,3.0,80.0
3132,72.0,0,95,0.0,80.0
3133,77.0,60,47,4.0,80.0
3134,72.0,60,47,4.0,80.0
3135,72.0,0,47,0.0,80.0
3136,53.0,0,95,5.0,80.0
3137,53.0,0,95,3.0,80.0
3138,69.0,0,95,1.0,80.0
3139,62.0,0,95,2.0,80.0
3140,74.0,60,47,4.0,80.0
3141,74.0,0,47,0.0,80.0
3142,64.0,0,47,4.0,80.0
3143,64.0,0,95,2.0,80.0
3144,72.0,0,95,0.0,80.0
3145,55.0,0,95,5.0,80.0
3146,72.0,60,47,4.0,80.0
3147,62.0,0,47,4.0,80.0
3148,67.0,60,190,1.0,80.0
3149,55.0,0,190,3.0,80.0
3150,62.0,0,95,2.0,80.0
3151,43.0,60,95,5.0,80.0
3152,71.0,0,95,0.0,80.0
3153,71.0,60,47,4.0,80.0
3154,72.0,60,47,4.0,80.0
3155,48.0,0,95,5.0,80.0
3156,79.0,60,47,4.0,80.0
3157,76.0,0,47,4.0,80.0
3158,72.0,0,190,0.0,80.0
3159,67.0,0,190,1.0,80.0
3160,60.0,0,190,2.0,80.0
3161,48.0,0,190,3.0,80.0
3162,52.0,60,95,5.0,80.0
3163,72.0,60,47,4.0,80.0
3164,53.0,60,95,5.0,80.0
3165,77.0,60,47,4.0,80.0
3166,74.0,0,47,4.0,80.0
3167,55.0,60,95,5.0,80.0
3168,71.0,60,47,4.0,80.0
3169,72.0,0,95,4.0,80.0
3170,76.0,0,47,4.0,80.0
3171,48.0,60,190,5.0,80.0
3172,79.0,0,47,4.0,80.0
3173,60.0,0,95,5.0,80.0
3174,72.0,60,95,4.0,80.0
3175,60.0,0,95,2.0,80.0
3176,84.0,0,95,4.0,80.0
3177,60.0,120,95,2.0,80.0
3178,84.0,0,95,4.0,80.0
3179,72.0,0,95,4.0,80.0
3180,60.0,0,95,5.0,80.0
3181,84.0,0,47,4.0,80.0
3182,76.0,60,47,4.0,80.0
3183,79.0,60,47,4.0,80.0
3184,72.0,120,190,4.0,80.0
3185,60.0,0,190,5.0,80.0
3186,77.0,60,47,4.0,80.0
3187,76.0,60,47,4.0,80.0
3188,52.0,0,95,3.0,80.0
3189,70.0,0,95,0.0,80.0
3190,52.0,0,95,5.0,80.0
3191,67.0,0,95,1.0,80.0
3192,74.0,60,47,4.0,80.0
3193,60.0,0,382,2.0,80.0
3194,72.0,60,47,4.0,80.0
3195,67.0,0,190,4.0,80.0
3196,52.0,0,95,3.0,80.0
3197,52.0,0,95,5.0,80.0
3198,67.0,0,95,1.0,80.0
3199,70.0,0,95,0.0,80.0
3200,70.0,60,47,4.0,80.0
3201,71.0,0,47,4.0,80.0
3202,67.0,0,95,1.0,80.0
3203,52.0,60,95,5.0,80.0
3204,67.0,60,47,4.0,80.0
3205,72.0,60,47,4.0,80.0
3206,60.0,0,190,2.0,80.0
3207,60.0,0,190,4.0,80.0
3208,52.0,0,190,3.0,80.0
3209,70.0,0,190,0.0,80.0
3210,52.0,0,95,5.0,80.0
3211,60.0,0,95,1.0,80.0
3212,71.0,60,47,4.0,80.0
3213,69.0,60,95,4.0,80.0
3214,60.0,0,95,4.0,80.0
3215,65.0,0,95,1.0,80.0
3216,53.0,0,95,5.0,80.0
3217,53.0,0,190,3.0,80.0
3218,69.0,0,190,0.0,80.0
3219,65.0,0,95,1.0,80.0
3220,77.0,120,95,4.0,80.0
3221,65.0,0,95,4.0,80.0
3222,76.0,0,47,4.0,80.0
3223,74.0,60,47,4.0,80.0
3224,76.0,60,47,4.0,80.0
3225,65.0,0,190,4.0,80.0
3226,77.0,60,47,4.0,80.0
3227,79.0,60,47,4.0,80.0
3228,59.0,0,95,5.0,80.0
3229,62.0,0,95,5.0,80.0
3230,71.0,0,95,0.0,80.0
3231,62.0,0,95,2.0,80.0
3232,55.0,0,95,3.0,80.0
3233,55.0,0,95,5.0,80.0
3234,81.0,60,47,4.0,80.0
3235,79.0,0,47,4.0,80.0
3236,62.0,0,95,2.0,80.0
3237,55.0,60,95,5.0,80.0
3238,59.0,0,95,5.0,80.0
3239,62.0,0,95,5.0,80.0
3240,55.0,0,95,3.0,80.0
3241,71.0,0,95,0.0,80.0
3242,77.0,60,47,4.0,80.0
3243,77.0,0,47,4.0,80.0
3244,55.0,0,95,5.0,80.0
3245,74.0,60,47,4.0,80.0
3246,79.0,60,47,4.0,80.0
3247,59.0,0,190,5.0,80.0
3248,62.0,0,190,5.0,80.0
3249,71.0,60,190,0.0,80.0
3250,55.0,0,190,3.0,80.0
3251,65.0,120,670,1.0,80.0
3252,62.0,0,190,2.0,80.0
3253,55.0,0,95,5.0,80.0
3254,77.0,60,47,4.0,80.0
3255,76.0,0,47,4.0,80.0
3256,57.0,0,95,5.0,80.0
3257,72.0,60,47,4.0,80.0
3258,72.0,60,190,0.0,80.0
3259,57.0,0,190,3.0,80.0
3260,60.0,0,190,2.0,80.0
3261,64.0,0,190,1.0,80.0
3262,60.0,0,190,5.0,80.0
3263,84.0,0,95,4.0,80.0
3264,57.0,60,95,5.0,80.0
3265,72.0,0,95,0.0,80.0
3266,53.0,0,95,5.0,80.0
3267,62.0,0,95,2.0,80.0
3268,84.0,0,95,4.0,80.0
3269,69.0,0,95,1.0,80.0
3270,53.0,120,95,3.0,80.0
3271,65.0,0,190,5.0,80.0
3272,62.0,0,95,2.0,80.0
3273,74.0,0,95,0.0,80.0
3274,53.0,120,95,3.0,80.0
3275,53.0,0,95,5.0,80.0
3276,69.0,0,95,1.0,80.0
3277,86.0,0,95,4.0,80.0
3278,76.0,0,47,4.0,80.0
3279,64.0,0,95,2.0,80.0
3280,72.0,0,95,0.0,80.0
3281,55.0,0,95,5.0,80.0
3282,64.0,0,95,5.0,80.0
3283,84.0,60,47,4.0,80.0
3284,74.0,60,47,4.0,80.0
3285,67.0,120,190,1.0,80.0
3286,55.0,0,190,3.0,80.0
3287,62.0,0,95,2.0,80.0
3288,65.0,0,95,5.0,80.0
3289,71.0,0,95,0.0,80.0
3290,55.0,0,95,5.0,80.0
3291,83.0,60,47,4.0,80.0
3292,84.0,0,47,4.0,80.0
3293,48.0,0,95,5.0,80.0
3294,79.0,60,47,4.0,80.0
3295,76.0,60,47,4.0,80.0
3296,72.0,60,10,4.0,80.0
3297,60.0,0,190,2.0,80.0
3298,72.0,0,190,0.0,80.0
3299,67.0,0,190,1.0,80.0
3300,64.0,0,190,5.0,80.0
3301,48.0,0,190,3.0,80.0
3302,52.0,0,95,5.0,80.0
3303,65.0,60,95,5.0,80.0
3304,53.0,0,95,5.0,80.0
3305,81.0,60,47,4.0,80.0
3306,77.0,60,47,4.0,80.0
3307,53.0,0,95,5.0,80.0
3308,65.0,0,95,5.0,80.0
3309,74.0,60,47,4.0,80.0
3310,64.0,0,95,5.0,80.0
3311,55.0,60,95,5.0,80.0
3312,79.0,60,47,4.0,80.0
3313,76.0,0,47,4.0,80.0
3314,55.0,60,95,5.0,80.0
3315,64.0,0,95,5.0,80.0
3316,72.0,60,47,4.0,80.0
3317,67.0,0,95,1.0,80.0
3318,55.0,0,95,3.0,80.0
3319,43.0,0,95,5.0,80.0
3320,65.0,60,95,5.0,80.0
3321,65.0,0,95,2.0,80.0
3322,74.0,0,95,0.0,80.0
3323,77.0,60,47,4.0,80.0
3324,74.0,0,47,4.0,80.0
3325,67.0,0,95,1.0,80.0
3326,55.0,0,95,3.0,80.0
3327,71.0,0,95,0.0,80.0
3328,43.0,0,95,5.0,80.0
3329,62.0,0,95,2.0,80.0
3330,65.0,60,95,5.0,80.0
3331,71.0,60,47,4.0,80.0
3332,64.0,0,95,5.0,80.0
3333,64.0,60,95,2.0,80.0
3334,72.0,0,95,0.0,80.0
3335,48.0,0,95,5.0,80.0
3336,84.0,60,47,4.0,80.0
3337,79.0,0,47,4.0,80.0
3338,48.0,0,190,3.0,80.0
3339,67.0,0,190,1.0,80.0
3340,48.0,0,95,5.0,80.0
3341,64.0,60,95,5.0,80.0
3342,76.0,0,95,0.0,80.0
3343,60.0,0,95,2.0,80.0
3344,76.0,60,47,4.0,80.0
3345,65.0,0,95,5.0,80.0
3346,53.0,0,95,5.0,80.0
3347,81.0,60,47,4.0,80.0
3348,77.0,60,47,4.0,80.0
3349,69.0,0,190,1.0,80.0
3350,60.0,0,190,2.0,80.0
3351,74.0,0,190,0.0,80.0
3352,53.0,60,190,3.0,80.0
3353,53.0,0,95,5.0,80.0
3354,65.0,0,95,5.0,80.0
3355,72.0,60,47,4.0,80.0
3356,55.0,0,95,5.0,80.0
3357,64.0,60,95,5.0,80.0
3358,79.0,60,47,4.0,80.0
3359,76.0,0,47,4.0,80.0
3360,55.0,0,95,5.0,80.0
3361,64.0,60,95,5.0,80.0
3362,72.0,60,47,4.0,80.0
3363,55.0,0,95,3.0,80.0
3364,65.0,0,95,2.0,80.0
3365,55.0,0,95,5.0,80.0
3366,62.0,0,95,5.0,80.0
3367,67.0,0,95,1.0,80.0
3368,74.0,60,95,0.0,80.0
3369,77.0,60,47,4.0,80.0
3370,74.0,0,47,4.0,80.0
3371,62.0,0,95,5.0,80.0
3372,55.0,0,95,5.0,80.0
3373,62.0,60,95,2.0,80.0
3374,67.0,0,95,1.0,80.0
3375,55.0,0,95,3.0,80.0
3376,71.0,0,95,0.0,80.0
3377,71.0,60,47,4.0,80.0
3378,72.0,60,47,4.0,80.0
3379,64.0,0,95,2.0,80.0
3380,67.0,0,95,1.0,80.0
3381,72.0,0,95,0.0,80.0
3382,48.0,0,95,3.0,80.0
3383,60.0,0,95,5.0,80.0
3384,48.0,0,95,5.0,80.0
3385,76.0,60,47,4.0,80.0
3386,79.0,0,47,4.0,80.0
3387,67.0,0,95,1.0,80.0
3388,76.0,60,95,0.0,80.0
3389,60.0,0,95,2.0,80.0
3390,48.0,0,95,5.0,80.0
3391,60.0,0,95,5.0,80.0
3392,48.0,0,95,3.0,80.0
3393,84.0,60,47,4.0,80.0
3394,74.0,60,47,4.0,80.0
3395,55.0,0,95,5.0,80.0
3396,84.0,60,47,4.0,80.0
3397,74.0,60,47,0.0,80.0
3398,55.0,0,47,3.0,80.0
3399,59.0,0,47,2.0,80.0
3400,74.0,0,47,4.0,80.0
3401,67.0,0,47,1.0,80.0
3402,43.0,0,95,5.0,80.0
3403,67.0,0,47,1.0,80.0
3404,83.0,0,47,4.0,80.0
3405,59.0,60,47,2.0,80.0
3406,74.0,0,47,0.0,80.0
3407,55.0,0,47,3.0,80.0
3408,84.0,60,47,4.0,80.0
3409,67.0,0,95,1.0,80.0
3410,60.0,0,95,2.0,80.0
3411,76.0,0,95,0.0,80.0
3412,60.0,0,95,3.0,80.0
3413,48.0,0,95,5.0,80.0
3414,79.0,60,47,4.0,80.0
3415,76.0,0,47,4.0,80.0
3416,67.0,0,95,1.0,80.0
3417,48.0,0,95,3.0,80.0
3418,64.0,0,95,2.0,80.0
3419,48.0,0,95,5.0,80.0
3420,72.0,60,95,0.0,80.0
3421,72.0,60,47,4.0,80.0
3422,74.0,0,47,4.0,80.0
3423,55.0,60,95,5.0,80.0
3424,84.0,60,47,4.0,80.0
3425,74.0,60,47,0.0,80.0
3426,74.0,0,47,4.0,80.0
3427,65.0,0,47,2.0,80.0
3428,55.0,0,47,3.0,80.0
3429,67.0,0,47,1.0,80.0
3430,43.0,0,95,5.0,80.0
3431,55.0,0,47,3.0,80.0
3432,62.0,0,47,2.0,80.0
3433,71.0,0,47,0.0,80.0
3434,67.0,0,47,1.0,80.0
3435,83.0,60,47,4.0,80.0
3436,72.0,0,95,0.0,80.0
3437,60.0,0,95,3.0,80.0
3438,64.0,0,95,2.0,80.0
3439,67.0,0,95,1.0,80.0
3440,48.0,60,142,5.0,80.0
3441,72.0,0,190,4.0,80.0
3442,76.0,0,190,4.0,80.0
3443,84.0,0,190,4.0,80.0
3444,67.0,120,95,1.0,80.0
3445,72.0,0,95,0.0,80.0
3446,48.0,0,95,3.0,80.0
3447,64.0,0,95,2.0,80.0
3448,60.0,60,47,5.0,80.0
3449,55.0,0,70,5.0,80.0
3450,72.0,0,95,4.0,80.0
3451,64.0,60,95,4.0,80.0
3452,60.0,90,22,5.0,80.0
3453,55.0,30,70,5.0,80.0
3454,64.0,0,95,4.0,80.0
3455,72.0,0,95,4.0,80.0
3456,52.0,90,22,5.0,80.0
3457,72.0,0,382,4.0,80.0
3458,48.0,30,382,5.0,80.0
3459,64.0,0,382,4.0,80.0
