,note,step,duration,channel,velocity
0,60.0,0,60,4.0,105.0
1,64.0,25,60,4.0,105.0
2,67.0,30,60,4.0,105.0
3,84.0,40,684,5.0,105.0
4,72.0,4,684,6.0,105.0
5,60.0,4,684,7.0,105.0
6,84.0,2,684,0.0,105.0
7,60.0,2,684,8.0,105.0
8,48.0,0,684,10.0,105.0
9,60.0,0,684,2.0,105.0
10,84.0,8,720,3.0,105.0
11,48.0,0,720,4.0,105.0
12,72.0,0,720,4.0,105.0
13,79.0,700,228,5.0,105.0
14,67.0,4,228,6.0,105.0
15,55.0,4,228,7.0,105.0
16,79.0,2,228,0.0,105.0
17,55.0,2,228,8.0,105.0
18,43.0,8,228,10.0,105.0
19,55.0,0,228,2.0,105.0
20,43.0,0,240,4.0,105.0
21,79.0,0,240,3.0,105.0
22,67.0,0,240,4.0,105.0
23,76.0,220,228,5.0,105.0
24,64.0,4,228,6.0,105.0
25,52.0,4,228,7.0,105.0
26,76.0,2,228,0.0,105.0
27,52.0,2,228,8.0,105.0
28,40.0,8,228,10.0,105.0
29,52.0,0,228,2.0,105.0
30,40.0,0,240,4.0,105.0
31,64.0,0,240,4.0,105.0
32,76.0,0,240,3.0,105.0
33,72.0,220,228,5.0,105.0
34,60.0,4,228,6.0,105.0
35,48.0,4,228,7.0,105.0
36,72.0,2,228,0.0,105.0
37,48.0,2,228,8.0,105.0
38,48.0,0,228,2.0,105.0
39,36.0,0,228,10.0,105.0
40,72.0,0,240,3.0,105.0
41,36.0,0,240,4.0,105.0
42,60.0,8,240,4.0,105.0
43,76.0,220,228,5.0,105.0
44,64.0,4,228,6.0,105.0
45,52.0,4,228,7.0,105.0
46,76.0,2,228,0.0,105.0
47,52.0,2,228,8.0,105.0
48,52.0,8,228,2.0,105.0
49,40.0,0,228,10.0,105.0
50,40.0,0,240,4.0,105.0
51,64.0,0,240,4.0,105.0
52,76.0,0,240,3.0,105.0
53,79.0,220,228,5.0,105.0
54,67.0,4,228,6.0,105.0
55,55.0,4,228,7.0,105.0
56,79.0,2,228,0.0,105.0
57,55.0,2,228,8.0,105.0
58,55.0,0,228,2.0,105.0
59,43.0,0,228,10.0,105.0
60,79.0,8,240,3.0,105.0
61,43.0,0,240,4.0,105.0
62,67.0,0,240,4.0,105.0
63,84.0,220,684,5.0,105.0
64,72.0,4,684,6.0,105.0
65,60.0,4,684,7.0,105.0
66,84.0,2,684,0.0,105.0
67,60.0,2,684,8.0,105.0
68,60.0,0,684,2.0,105.0
69,48.0,8,684,10.0,105.0
70,84.0,0,720,3.0,105.0
71,48.0,0,720,4.0,105.0
72,72.0,0,720,4.0,105.0
73,79.0,700,228,5.0,105.0
74,67.0,4,228,6.0,105.0
75,55.0,4,228,7.0,105.0
76,79.0,2,228,0.0,105.0
77,55.0,2,228,8.0,105.0
78,43.0,0,228,10.0,105.0
79,55.0,8,228,2.0,105.0
80,79.0,0,240,3.0,105.0
81,67.0,0,240,4.0,105.0
82,43.0,0,240,4.0,105.0
83,76.0,220,228,5.0,105.0
84,64.0,4,228,6.0,105.0
85,52.0,4,228,7.0,105.0
86,76.0,2,228,0.0,105.0
87,52.0,2,228,8.0,105.0
88,40.0,0,228,10.0,105.0
89,52.0,8,228,2.0,105.0
90,64.0,0,240,4.0,105.0
91,40.0,0,240,4.0,105.0
92,76.0,0,240,3.0,105.0
93,72.0,220,228,5.0,105.0
94,60.0,4,228,6.0,105.0
95,48.0,4,228,7.0,105.0
96,72.0,2,228,0.0,105.0
97,48.0,2,228,8.0,105.0
98,36.0,0,228,10.0,105.0
99,48.0,0,228,2.0,105.0
100,36.0,0,240,4.0,105.0
101,60.0,0,240,4.0,105.0
102,72.0,8,240,3.0,105.0
103,76.0,220,228,5.0,105.0
104,64.0,4,228,6.0,105.0
105,52.0,4,228,7.0,105.0
106,76.0,2,228,0.0,105.0
107,52.0,2,228,8.0,105.0
108,52.0,0,228,2.0,105.0
109,40.0,8,228,10.0,105.0
110,64.0,0,240,4.0,105.0
111,76.0,0,240,3.0,105.0
112,40.0,0,240,4.0,105.0
113,79.0,220,228,5.0,105.0
114,67.0,4,228,6.0,105.0
115,55.0,4,228,7.0,105.0
116,79.0,2,228,0.0,105.0
117,55.0,2,228,8.0,105.0
118,43.0,0,228,10.0,105.0
119,55.0,0,228,2.0,105.0
120,67.0,8,240,4.0,105.0
121,43.0,0,240,4.0,105.0
122,79.0,0,240,3.0,105.0
123,84.0,220,456,5.0,105.0
124,72.0,4,456,6.0,105.0
125,60.0,4,456,7.0,105.0
126,84.0,2,456,0.0,105.0
127,60.0,2,456,8.0,105.0
128,60.0,0,456,2.0,105.0
129,48.0,0,456,10.0,105.0
130,72.0,0,480,4.0,105.0
131,84.0,0,480,3.0,105.0
132,48.0,8,480,4.0,105.0
133,60.0,220,240,5.0,70.0
134,48.0,2,544,8.0,70.0
135,36.0,8,544,10.0,70.0
136,72.0,470,599,0.0,70.0
137,59.0,220,240,5.0,70.0
138,71.0,250,539,0.0,70.0
139,47.0,2,539,8.0,70.0
140,35.0,8,539,10.0,70.0
141,72.0,250,419,0.0,70.0
142,48.0,2,419,8.0,70.0
143,36.0,8,419,10.0,70.0
144,60.0,220,240,5.0,70.0
145,62.0,240,96,5.0,105.0
146,74.0,10,192,0.0,88.0
147,50.0,2,192,8.0,105.0
148,38.0,8,192,10.0,105.0
149,62.0,220,96,5.0,105.0
150,62.0,0,480,2.0,92.0
151,62.0,220,240,5.0,70.0
152,50.0,2,564,8.0,70.0
153,38.0,8,564,10.0,70.0
154,74.0,250,599,0.0,70.0
155,61.0,220,240,5.0,70.0
156,73.0,250,539,0.0,70.0
157,49.0,2,564,8.0,70.0
158,37.0,8,564,10.0,70.0
159,50.0,2,409,8.0,70.0
160,74.0,250,416,0.0,70.0
161,38.0,8,409,10.0,70.0
162,62.0,220,240,5.0,70.0
163,64.0,240,96,5.0,105.0
164,76.0,10,192,0.0,89.0
165,52.0,2,192,8.0,105.0
166,40.0,0,192,10.0,105.0
167,64.0,220,96,5.0,105.0
168,52.0,0,480,2.0,89.0
169,64.0,8,480,2.0,89.0
170,64.0,220,240,5.0,70.0
171,76.0,250,552,0.0,70.0
172,52.0,2,574,8.0,70.0
173,40.0,8,574,10.0,70.0
174,63.0,220,240,5.0,70.0
175,75.0,250,544,0.0,70.0
176,51.0,2,569,8.0,70.0
177,39.0,8,569,10.0,70.0
178,76.0,250,408,0.0,70.0
179,52.0,2,409,8.0,70.0
180,40.0,8,409,10.0,70.0
181,64.0,220,240,5.0,70.0
182,65.0,220,240,5.0,71.0
183,77.0,250,544,0.0,70.0
184,53.0,2,574,8.0,71.0
185,41.0,8,574,10.0,71.0
186,67.0,220,240,5.0,79.0
187,79.0,250,560,0.0,77.0
188,55.0,2,564,8.0,79.0
189,43.0,8,564,10.0,79.0
190,69.0,220,240,5.0,87.0
191,57.0,2,529,8.0,88.0
192,45.0,8,529,10.0,88.0
193,81.0,250,544,0.0,85.0
194,83.0,250,400,0.0,94.0
195,59.0,2,399,8.0,97.0
196,47.0,8,399,10.0,97.0
197,71.0,220,240,5.0,95.0
198,60.0,232,0,8.0,105.0
199,48.0,0,240,10.0,105.0
200,72.0,240,480,5.0,100.0
201,60.0,2,0,8.0,105.0
202,48.0,8,240,10.0,105.0
203,84.0,220,96,5.0,105.0
204,81.0,4,96,6.0,105.0
205,72.0,4,96,7.0,105.0
206,69.0,0,96,7.0,105.0
207,60.0,232,0,8.0,105.0
208,48.0,8,0,10.0,105.0
209,48.0,8,0,10.0,105.0
210,83.0,220,96,5.0,105.0
211,79.0,4,96,6.0,105.0
212,71.0,0,96,7.0,105.0
213,67.0,4,96,7.0,105.0
214,60.0,232,0,8.0,105.0
215,48.0,8,0,10.0,105.0
216,48.0,8,0,10.0,105.0
217,81.0,220,96,5.0,105.0
218,77.0,4,96,6.0,105.0
219,69.0,0,96,7.0,105.0
220,65.0,4,96,7.0,105.0
221,60.0,232,0,8.0,105.0
222,60.0,4,0,8.0,105.0
223,48.0,8,240,10.0,105.0
224,48.0,8,0,10.0,105.0
225,60.0,232,240,8.0,105.0
226,79.0,220,720,5.0,105.0
227,76.0,4,720,6.0,105.0
228,67.0,4,720,7.0,105.0
229,64.0,0,720,7.0,105.0
230,60.0,4,0,8.0,105.0
231,48.0,8,0,10.0,105.0
232,77.0,220,240,5.0,105.0
233,74.0,4,240,6.0,105.0
234,65.0,4,240,7.0,105.0
235,62.0,0,240,7.0,105.0
236,60.0,4,0,8.0,105.0
237,48.0,8,0,10.0,105.0
238,60.0,232,0,8.0,105.0
239,48.0,8,0,10.0,105.0
240,84.0,10,3296,0.0,102.0
241,72.0,2,2824,1.0,105.0
242,60.0,0,429,7.0,105.0
243,48.0,0,3299,2.0,105.0
244,60.0,8,3299,2.0,105.0
245,64.0,4,449,7.0,105.0
246,76.0,220,480,5.0,105.0
247,72.0,4,480,6.0,105.0
248,64.0,228,160,7.0,111.0
249,60.0,0,160,7.0,111.0
250,76.0,2,160,0.0,103.0
251,72.0,0,160,1.0,103.0
252,60.0,2,240,8.0,105.0
253,48.0,0,240,10.0,105.0
254,62.0,108,160,7.0,112.0
255,65.0,0,160,7.0,112.0
256,77.0,2,160,0.0,106.0
257,74.0,0,160,1.0,106.0
258,48.0,8,289,2.0,105.0
259,60.0,0,299,2.0,105.0
260,76.0,2,96,0.0,105.0
261,76.0,0,96,1.0,105.0
262,64.0,118,105,7.0,110.0
263,67.0,0,160,7.0,110.0
264,79.0,0,160,0.0,105.0
265,60.0,0,98,2.0,105.0
266,48.0,10,99,2.0,105.0
267,64.0,0,120,7.0,107.0
268,60.0,108,120,7.0,107.0
269,72.0,0,120,1.0,101.0
270,76.0,2,120,0.0,101.0
271,60.0,2,240,8.0,105.0
272,48.0,8,240,10.0,105.0
273,60.0,2,96,8.0,105.0
274,48.0,0,96,10.0,105.0
275,69.0,108,480,7.0,103.0
276,65.0,0,480,7.0,103.0
277,77.0,2,480,1.0,101.0
278,81.0,0,480,0.0,101.0
279,48.0,232,240,8.0,77.0
280,36.0,8,240,10.0,77.0
281,81.0,220,96,5.0,70.0
282,72.0,4,96,6.0,70.0
283,69.0,4,96,7.0,78.0
284,60.0,0,96,7.0,78.0
285,48.0,232,0,8.0,70.0
286,36.0,8,0,10.0,70.0
287,79.0,220,96,5.0,70.0
288,71.0,4,96,6.0,70.0
289,67.0,4,96,7.0,70.0
290,59.0,0,96,7.0,70.0
291,48.0,232,0,8.0,70.0
292,36.0,8,240,10.0,70.0
293,36.0,8,0,10.0,70.0
294,77.0,220,96,5.0,70.0
295,69.0,4,96,6.0,70.0
296,57.0,4,96,7.0,70.0
297,65.0,0,96,7.0,70.0
298,48.0,232,0,8.0,70.0
299,36.0,8,0,10.0,70.0
300,36.0,8,0,10.0,70.0
301,48.0,4,240,8.0,70.0
302,48.0,232,240,8.0,70.0
303,36.0,8,240,10.0,70.0
304,76.0,220,720,5.0,70.0
305,67.0,4,720,6.0,70.0
306,55.0,0,720,7.0,70.0
307,64.0,4,720,7.0,70.0
308,48.0,4,0,8.0,70.0
309,36.0,8,240,10.0,70.0
310,74.0,220,240,5.0,70.0
311,65.0,4,240,6.0,70.0
312,62.0,0,240,7.0,70.0
313,53.0,4,240,7.0,70.0
314,48.0,4,0,8.0,70.0
315,36.0,8,240,10.0,70.0
316,36.0,8,240,10.0,70.0
317,48.0,0,3229,2.0,70.0
318,60.0,8,3239,2.0,70.0
319,72.0,220,480,5.0,70.0
320,64.0,4,480,6.0,70.0
321,52.0,4,480,7.0,70.0
322,60.0,228,0,7.0,105.0
323,60.0,2,0,8.0,105.0
324,48.0,0,0,10.0,105.0
325,72.0,2,160,0.0,94.0
326,62.0,0,120,7.0,105.0
327,59.0,108,120,7.0,105.0
328,74.0,2,160,0.0,101.0
329,71.0,0,160,1.0,101.0
330,48.0,0,279,2.0,105.0
331,60.0,8,289,2.0,105.0
332,64.0,0,120,7.0,105.0
333,60.0,108,0,7.0,105.0
334,76.0,2,0,0.0,96.0
335,72.0,0,0,1.0,96.0
336,55.0,0,120,7.0,105.0
337,48.0,0,109,2.0,105.0
338,60.0,10,109,2.0,105.0
339,60.0,2,240,8.0,105.0
340,48.0,8,240,10.0,105.0
341,67.0,4,120,6.0,105.0
342,62.0,104,120,6.0,105.0
343,59.0,4,240,7.0,105.0
344,59.0,2,240,8.0,105.0
345,47.0,0,240,10.0,105.0
346,59.0,120,120,6.0,105.0
347,74.0,0,480,5.0,105.0
348,77.0,116,0,5.0,105.0
349,55.0,104,120,6.0,105.0
350,74.0,4,240,7.0,105.0
351,62.0,4,240,8.0,105.0
352,50.0,8,240,10.0,105.0
353,67.0,104,0,6.0,105.0
354,71.0,4,240,7.0,105.0
355,59.0,4,240,8.0,105.0
356,47.0,8,240,10.0,105.0
357,67.0,104,0,6.0,105.0
358,67.0,120,0,6.0,105.0
359,67.0,4,240,7.0,105.0
360,55.0,4,240,8.0,105.0
361,43.0,8,240,10.0,105.0
362,62.0,104,120,6.0,105.0
363,65.0,4,240,7.0,105.0
364,53.0,4,240,8.0,105.0
365,41.0,8,240,10.0,105.0
366,59.0,120,120,6.0,105.0
367,86.0,0,960,5.0,105.0
368,77.0,0,0,5.0,105.0
369,55.0,104,120,6.0,105.0
370,62.0,4,240,7.0,105.0
371,50.0,4,240,8.0,105.0
372,38.0,8,240,10.0,105.0
373,67.0,4,120,6.0,105.0
374,67.0,120,0,6.0,105.0
375,59.0,4,240,7.0,105.0
376,47.0,4,240,8.0,105.0
377,35.0,8,240,10.0,105.0
378,67.0,104,0,6.0,105.0
379,74.0,116,480,5.0,105.0
380,55.0,4,240,7.0,105.0
381,77.0,0,1920,0.0,104.0
382,74.0,2,1920,1.0,104.0
383,43.0,4,240,8.0,105.0
384,55.0,8,1920,2.0,105.0
385,31.0,8,240,10.0,105.0
386,62.0,0,1920,2.0,105.0
387,67.0,4,120,6.0,105.0
388,64.0,104,120,6.0,105.0
389,60.0,4,240,7.0,105.0
390,48.0,2,240,8.0,105.0
391,36.0,0,240,10.0,105.0
392,60.0,120,120,6.0,105.0
393,76.0,0,480,5.0,105.0
394,72.0,116,480,5.0,105.0
395,55.0,104,120,6.0,105.0
396,76.0,4,240,7.0,105.0
397,64.0,4,240,8.0,105.0
398,52.0,8,240,10.0,105.0
399,67.0,4,120,6.0,105.0
400,67.0,120,0,6.0,105.0
401,72.0,4,240,7.0,105.0
402,60.0,4,240,8.0,105.0
403,48.0,8,240,10.0,105.0
404,67.0,104,0,6.0,105.0
405,67.0,4,240,7.0,105.0
406,55.0,4,240,8.0,105.0
407,43.0,8,240,10.0,105.0
408,67.0,120,120,6.0,105.0
409,64.0,104,120,6.0,105.0
410,64.0,4,240,7.0,105.0
411,52.0,4,240,8.0,105.0
412,40.0,8,240,10.0,105.0
413,60.0,120,120,6.0,105.0
414,84.0,116,960,5.0,105.0
415,76.0,116,0,5.0,105.0
416,55.0,104,120,6.0,105.0
417,67.0,4,240,7.0,105.0
418,55.0,4,240,8.0,105.0
419,43.0,8,240,10.0,105.0
420,67.0,104,0,6.0,105.0
421,67.0,120,0,6.0,105.0
422,64.0,4,240,7.0,105.0
423,52.0,4,240,8.0,105.0
424,40.0,8,240,10.0,105.0
425,67.0,104,0,6.0,105.0
426,72.0,0,1856,1.0,105.0
427,76.0,2,1872,0.0,105.0
428,72.0,0,480,5.0,105.0
429,60.0,4,240,7.0,105.0
430,48.0,4,240,8.0,105.0
431,36.0,8,240,10.0,105.0
432,60.0,8,1920,2.0,105.0
433,64.0,0,1920,2.0,105.0
434,65.0,4,240,7.0,105.0
435,53.0,2,240,8.0,105.0
436,41.0,8,0,10.0,105.0
437,74.0,116,480,5.0,105.0
438,69.0,4,480,6.0,105.0
439,65.0,4,0,7.0,105.0
440,53.0,4,240,8.0,105.0
441,79.0,220,120,5.0,105.0
442,71.0,4,120,6.0,105.0
443,77.0,100,120,5.0,105.0
444,69.0,4,120,6.0,105.0
445,53.0,4,240,8.0,105.0
446,41.0,8,0,10.0,105.0
447,74.0,2,752,0.0,105.0
448,76.0,116,120,5.0,105.0
449,67.0,4,120,6.0,105.0
450,76.0,2,160,0.0,104.0
451,77.0,6,104,0.0,108.0
452,74.0,100,120,5.0,105.0
453,65.0,4,120,6.0,105.0
454,65.0,4,240,7.0,105.0
455,69.0,0,960,1.0,105.0
456,53.0,2,240,8.0,105.0
457,65.0,8,960,2.0,105.0
458,62.0,0,960,2.0,105.0
459,67.0,228,0,7.0,105.0
460,55.0,4,0,8.0,105.0
461,43.0,8,240,10.0,105.0
462,72.0,110,480,5.0,105.0
463,64.0,4,480,6.0,105.0
464,67.0,4,0,7.0,105.0
465,72.0,2,480,0.0,102.0
466,64.0,0,480,1.0,102.0
467,55.0,2,0,8.0,105.0
468,43.0,8,0,10.0,105.0
469,64.0,0,480,2.0,105.0
470,60.0,0,480,2.0,105.0
471,67.0,228,0,7.0,105.0
472,71.0,220,480,5.0,105.0
473,62.0,4,480,6.0,105.0
474,62.0,0,480,1.0,105.0
475,71.0,2,480,0.0,105.0
476,55.0,4,240,8.0,105.0
477,55.0,0,480,2.0,105.0
478,43.0,8,240,10.0,105.0
479,62.0,0,480,2.0,105.0
480,72.0,220,88,5.0,79.0
481,60.0,4,88,6.0,75.0
482,60.0,4,96,7.0,79.0
483,48.0,4,96,8.0,80.0
484,36.0,8,96,10.0,80.0
485,76.0,100,88,5.0,72.0
486,60.0,0,192,2.0,70.0
487,48.0,0,192,2.0,70.0
488,64.0,4,88,6.0,59.0
489,74.0,116,88,5.0,79.0
490,62.0,4,88,6.0,75.0
491,62.0,4,96,7.0,75.0
492,50.0,4,96,8.0,76.0
493,38.0,8,96,10.0,76.0
494,77.0,100,88,5.0,71.0
495,65.0,4,88,6.0,59.0
496,62.0,0,192,2.0,70.0
497,76.0,116,88,5.0,79.0
498,64.0,4,88,6.0,74.0
499,64.0,4,96,7.0,74.0
500,52.0,4,96,8.0,76.0
501,40.0,0,96,10.0,76.0
502,79.0,100,88,5.0,72.0
503,52.0,8,192,2.0,70.0
504,64.0,0,192,2.0,70.0
505,67.0,4,88,6.0,67.0
506,77.0,116,88,5.0,80.0
507,65.0,4,88,6.0,81.0
508,65.0,4,96,7.0,74.0
509,53.0,4,96,8.0,77.0
510,41.0,8,96,10.0,77.0
511,81.0,100,88,5.0,75.0
512,69.0,4,88,6.0,67.0
513,65.0,0,192,2.0,70.0
514,79.0,116,96,5.0,78.0
515,67.0,4,96,6.0,85.0
516,81.0,220,96,5.0,80.0
517,69.0,4,96,6.0,71.0
518,67.0,4,480,7.0,80.0
519,55.0,4,480,8.0,80.0
520,67.0,0,480,2.0,70.0
521,43.0,8,480,10.0,80.0
522,55.0,0,480,2.0,70.0
523,83.0,236,96,5.0,83.0
524,71.0,4,96,6.0,72.0
525,84.0,236,96,5.0,88.0
526,72.0,4,96,6.0,78.0
527,67.0,4,120,6.0,105.0
528,62.0,104,120,6.0,105.0
529,71.0,4,240,7.0,105.0
530,59.0,2,240,8.0,105.0
531,47.0,0,240,10.0,105.0
532,59.0,120,120,6.0,105.0
533,74.0,0,480,5.0,105.0
534,77.0,236,480,5.0,105.0
535,55.0,104,120,6.0,105.0
536,74.0,4,240,7.0,105.0
537,62.0,4,240,8.0,105.0
538,50.0,8,240,10.0,105.0
539,67.0,4,120,6.0,105.0
540,67.0,104,120,6.0,105.0
541,71.0,4,240,7.0,105.0
542,59.0,4,240,8.0,105.0
543,47.0,8,240,10.0,105.0
544,67.0,104,0,6.0,105.0
545,67.0,120,0,6.0,105.0
546,67.0,4,240,7.0,105.0
547,55.0,4,240,8.0,105.0
548,62.0,8,960,2.0,105.0
549,55.0,0,0,2.0,105.0
550,43.0,8,240,10.0,105.0
551,62.0,104,120,6.0,105.0
552,65.0,4,240,7.0,105.0
553,53.0,4,240,8.0,105.0
554,41.0,8,240,10.0,105.0
555,59.0,120,120,6.0,105.0
556,86.0,116,960,5.0,105.0
557,77.0,116,0,5.0,105.0
558,55.0,104,120,6.0,105.0
559,62.0,4,240,7.0,105.0
560,50.0,4,240,8.0,105.0
561,62.0,8,0,2.0,105.0
562,38.0,8,240,10.0,105.0
563,55.0,0,0,2.0,105.0
564,67.0,4,120,6.0,105.0
565,67.0,120,0,6.0,105.0
566,59.0,4,240,7.0,105.0
567,47.0,4,240,8.0,105.0
568,35.0,0,240,10.0,105.0
569,74.0,0,480,5.0,105.0
570,67.0,4,0,6.0,105.0
571,55.0,4,240,7.0,105.0
572,74.0,0,1920,1.0,105.0
573,77.0,2,1920,0.0,105.0
574,43.0,4,240,8.0,105.0
575,31.0,8,240,10.0,105.0
576,64.0,104,120,6.0,105.0
577,60.0,4,240,7.0,105.0
578,48.0,2,240,8.0,105.0
579,36.0,0,240,10.0,105.0
580,60.0,120,120,6.0,105.0
581,72.0,116,480,5.0,105.0
582,76.0,116,0,5.0,105.0
583,55.0,104,120,6.0,105.0
584,76.0,4,240,7.0,105.0
585,64.0,4,240,8.0,105.0
586,52.0,8,240,10.0,105.0
587,72.0,4,120,6.0,105.0
588,72.0,104,120,6.0,105.0
589,72.0,4,240,7.0,105.0
590,60.0,4,240,8.0,105.0
591,48.0,8,240,10.0,105.0
592,72.0,104,0,6.0,105.0
593,72.0,120,0,6.0,105.0
594,68.0,4,240,7.0,105.0
595,56.0,4,240,8.0,105.0
596,60.0,0,960,2.0,105.0
597,64.0,8,0,2.0,105.0
598,44.0,8,240,10.0,105.0
599,69.0,104,120,6.0,105.0
600,69.0,4,240,7.0,105.0
601,57.0,4,240,8.0,105.0
602,45.0,0,240,10.0,105.0
603,64.0,120,120,6.0,105.0
604,84.0,0,960,5.0,105.0
605,60.0,104,120,6.0,105.0
606,72.0,4,240,7.0,105.0
607,60.0,4,240,8.0,105.0
608,48.0,8,240,10.0,105.0
609,60.0,0,0,2.0,105.0
610,64.0,8,0,2.0,105.0
611,72.0,104,0,6.0,105.0
612,72.0,120,0,6.0,105.0
613,69.0,4,240,7.0,105.0
614,57.0,4,240,8.0,105.0
615,45.0,0,240,10.0,105.0
616,72.0,104,0,6.0,105.0
617,72.0,0,480,5.0,105.0
618,76.0,116,480,5.0,105.0
619,64.0,4,240,7.0,105.0
620,76.0,2,1920,0.0,105.0
621,72.0,2,0,1.0,97.0
622,52.0,4,240,8.0,105.0
623,60.0,8,0,2.0,105.0
624,40.0,8,240,10.0,105.0
625,74.0,116,120,5.0,105.0
626,77.0,100,120,5.0,105.0
627,69.0,8,240,7.0,105.0
628,74.0,0,240,0.0,97.0
629,53.0,2,240,8.0,105.0
630,41.0,0,240,10.0,105.0
631,62.0,0,240,2.0,105.0
632,76.0,120,120,5.0,105.0
633,79.0,100,120,5.0,105.0
634,67.0,8,240,7.0,105.0
635,76.0,2,240,0.0,102.0
636,55.0,2,240,8.0,105.0
637,43.0,0,240,10.0,105.0
638,64.0,8,240,2.0,105.0
639,77.0,120,120,5.0,105.0
640,81.0,100,120,5.0,105.0
641,72.0,8,240,7.0,105.0
642,77.0,2,240,0.0,106.0
643,57.0,2,240,8.0,105.0
644,45.0,0,240,10.0,105.0
645,65.0,8,240,2.0,105.0
646,79.0,120,120,5.0,105.0
647,82.0,100,120,5.0,105.0
648,60.0,8,0,7.0,105.0
649,79.0,2,240,0.0,108.0
650,52.0,2,240,8.0,105.0
651,40.0,0,240,10.0,105.0
652,67.0,8,240,2.0,105.0
653,81.0,120,120,5.0,105.0
654,81.0,2,120,0.0,105.0
655,79.0,100,120,5.0,105.0
656,79.0,10,120,0.0,105.0
657,53.0,2,240,8.0,105.0
658,41.0,8,0,10.0,105.0
659,77.0,110,120,5.0,105.0
660,77.0,2,120,0.0,105.0
661,76.0,100,120,5.0,105.0
662,76.0,10,120,0.0,107.0
663,53.0,2,240,8.0,105.0
664,65.0,0,480,2.0,105.0
665,60.0,0,0,2.0,105.0
666,74.0,110,120,5.0,105.0
667,74.0,10,120,0.0,106.0
668,72.0,100,120,5.0,105.0
669,69.0,8,480,7.0,105.0
670,72.0,10,120,0.0,105.0
671,54.0,2,240,8.0,105.0
672,42.0,8,240,10.0,105.0
673,71.0,110,120,5.0,105.0
674,71.0,2,120,0.0,103.0
675,72.0,100,120,5.0,105.0
676,69.0,8,240,7.0,105.0
677,72.0,10,120,0.0,103.0
678,69.0,0,480,1.0,106.0
679,54.0,2,240,8.0,105.0
680,42.0,8,240,10.0,105.0
681,62.0,8,0,2.0,105.0
682,71.0,4,120,6.0,105.0
683,74.0,104,120,6.0,105.0
684,67.0,4,240,7.0,105.0
685,67.0,0,240,1.0,102.0
686,55.0,2,240,8.0,105.0
687,43.0,0,240,10.0,105.0
688,79.0,120,44,6.0,105.0
689,71.0,2,288,0.0,102.0
690,79.0,104,44,6.0,105.0
691,74.0,2,160,0.0,105.0
692,79.0,0,480,5.0,105.0
693,71.0,0,480,5.0,105.0
694,62.0,110,480,5.0,105.0
695,71.0,4,240,7.0,105.0
696,59.0,2,240,8.0,105.0
697,47.0,8,240,10.0,105.0
698,55.0,0,480,2.0,105.0
699,77.0,2,96,0.0,105.0
700,71.0,0,96,1.0,105.0
701,79.0,104,0,6.0,105.0
702,74.0,4,240,7.0,105.0
703,62.0,2,240,8.0,105.0
704,50.0,8,240,10.0,105.0
705,77.0,0,96,0.0,105.0
706,71.0,2,96,1.0,105.0
707,79.0,4,120,6.0,105.0
708,83.0,0,168,5.0,105.0
709,74.0,116,168,5.0,105.0
710,79.0,104,120,6.0,105.0
711,67.0,4,240,7.0,105.0
712,55.0,2,240,8.0,105.0
713,43.0,8,240,10.0,105.0
714,62.0,0,240,2.0,105.0
715,55.0,0,240,2.0,105.0
716,72.0,4,120,6.0,105.0
717,76.0,0,168,5.0,113.0
718,84.0,116,168,5.0,113.0
719,76.0,104,120,6.0,105.0
720,72.0,4,240,7.0,111.0
721,60.0,2,240,8.0,109.0
722,64.0,0,240,2.0,105.0
723,60.0,8,240,2.0,105.0
724,48.0,0,240,10.0,109.0
725,79.0,4,44,6.0,105.0
726,84.0,0,168,5.0,103.0
727,79.0,104,44,6.0,105.0
728,76.0,116,168,5.0,103.0
729,67.0,4,240,7.0,105.0
730,72.0,2,480,1.0,105.0
731,76.0,0,480,0.0,105.0
732,55.0,4,240,8.0,105.0
733,60.0,0,240,2.0,105.0
734,64.0,0,240,2.0,105.0
735,43.0,8,240,10.0,105.0
736,79.0,104,0,6.0,105.0
737,76.0,116,168,5.0,105.0
738,84.0,0,168,5.0,105.0
739,64.0,4,240,7.0,105.0
740,52.0,4,240,8.0,105.0
741,40.0,0,240,10.0,105.0
742,64.0,8,240,2.0,105.0
743,60.0,0,0,2.0,105.0
744,79.0,104,0,6.0,105.0
745,76.0,0,168,5.0,105.0
746,84.0,116,168,5.0,105.0
747,60.0,4,240,7.0,105.0
748,76.0,0,240,0.0,105.0
749,72.0,2,240,1.0,105.0
750,48.0,2,240,8.0,105.0
751,64.0,8,240,2.0,105.0
752,36.0,0,240,10.0,105.0
753,71.0,4,120,6.0,105.0
754,74.0,104,120,6.0,105.0
755,67.0,4,240,7.0,97.0
756,74.0,2,0,0.0,105.0
757,55.0,2,240,8.0,97.0
758,43.0,8,240,10.0,97.0
759,79.0,120,44,6.0,105.0
760,71.0,0,296,1.0,105.0
761,79.0,104,44,6.0,105.0
762,74.0,0,480,5.0,97.0
763,83.0,116,480,5.0,97.0
764,71.0,4,240,7.0,105.0
765,59.0,2,240,8.0,105.0
766,62.0,0,480,2.0,105.0
767,55.0,0,480,2.0,105.0
768,47.0,8,240,10.0,105.0
769,77.0,0,96,0.0,105.0
770,71.0,2,96,1.0,105.0
771,79.0,120,120,6.0,105.0
772,79.0,104,120,6.0,105.0
773,74.0,4,240,7.0,105.0
774,62.0,2,240,8.0,105.0
775,50.0,8,240,10.0,105.0
776,71.0,0,96,1.0,105.0
777,77.0,2,96,0.0,105.0
778,79.0,104,0,6.0,105.0
779,83.0,116,168,5.0,105.0
780,74.0,0,168,5.0,105.0
781,67.0,4,240,7.0,105.0
782,55.0,2,240,8.0,105.0
783,55.0,0,240,2.0,105.0
784,62.0,0,240,2.0,105.0
785,43.0,8,240,10.0,105.0
786,72.0,4,120,6.0,105.0
787,84.0,0,168,5.0,111.0
788,76.0,116,168,5.0,111.0
789,76.0,104,120,6.0,105.0
790,72.0,4,240,7.0,112.0
791,60.0,2,240,8.0,109.0
792,48.0,0,240,10.0,109.0
793,60.0,0,240,2.0,105.0
794,64.0,8,240,2.0,105.0
795,79.0,4,44,6.0,105.0
796,79.0,104,44,6.0,105.0
797,76.0,116,168,5.0,105.0
798,84.0,0,168,5.0,105.0
799,67.0,4,240,7.0,105.0
800,72.0,2,480,1.0,105.0
801,76.0,0,480,0.0,105.0
802,55.0,4,240,8.0,105.0
803,43.0,8,240,10.0,105.0
804,60.0,0,0,2.0,105.0
805,64.0,0,240,2.0,105.0
806,79.0,4,120,6.0,105.0
807,76.0,116,168,5.0,105.0
808,84.0,0,168,5.0,105.0
809,79.0,4,0,6.0,105.0
810,64.0,4,240,7.0,105.0
811,52.0,4,240,8.0,105.0
812,64.0,0,240,2.0,105.0
813,40.0,8,240,10.0,105.0
814,76.0,116,168,5.0,105.0
815,84.0,0,168,5.0,105.0
816,79.0,4,0,6.0,105.0
817,60.0,4,240,7.0,105.0
818,76.0,2,240,0.0,105.0
819,72.0,0,240,1.0,105.0
820,48.0,2,240,8.0,105.0
821,64.0,0,240,2.0,105.0
822,36.0,8,240,10.0,105.0
823,60.0,0,240,2.0,105.0
824,83.0,116,359,5.0,94.0
825,74.0,0,389,5.0,94.0
826,55.0,4,480,7.0,94.0
827,74.0,0,480,0.0,105.0
828,71.0,2,480,1.0,105.0
829,43.0,2,480,8.0,96.0
830,55.0,8,0,2.0,105.0
831,62.0,0,480,2.0,105.0
832,31.0,0,480,10.0,96.0
833,62.0,380,169,5.0,105.0
834,79.0,80,429,5.0,105.0
835,71.0,4,459,6.0,105.0
836,67.0,4,480,7.0,105.0
837,79.0,2,480,0.0,105.0
838,55.0,2,480,8.0,105.0
839,43.0,0,480,10.0,105.0
840,55.0,0,0,2.0,105.0
841,67.0,0,480,2.0,105.0
842,55.0,460,480,5.0,105.0
843,55.0,4,480,6.0,105.0
844,55.0,4,480,7.0,105.0
845,67.0,2,480,0.0,105.0
846,43.0,2,480,8.0,105.0
847,31.0,8,480,10.0,105.0
848,64.0,940,319,5.0,70.0
849,60.0,4,319,6.0,70.0
850,60.0,220,319,5.0,70.0
851,55.0,4,319,6.0,70.0
852,64.0,236,319,5.0,70.0
853,60.0,4,319,6.0,70.0
854,60.0,236,319,5.0,70.0
855,55.0,4,319,6.0,70.0
856,64.0,236,319,5.0,70.0
857,60.0,4,319,6.0,70.0
858,60.0,236,319,5.0,70.0
859,55.0,4,319,6.0,70.0
860,64.0,236,319,5.0,70.0
861,60.0,4,319,6.0,70.0
862,60.0,236,204,5.0,70.0
863,55.0,4,204,6.0,70.0
864,60.0,16,1920,2.0,70.0
865,65.0,236,319,5.0,70.0
866,62.0,4,319,6.0,70.0
867,62.0,220,319,5.0,70.0
868,55.0,4,319,6.0,70.0
869,65.0,236,319,5.0,70.0
870,62.0,4,319,6.0,70.0
871,62.0,236,319,5.0,70.0
872,55.0,4,319,6.0,70.0
873,65.0,236,319,5.0,70.0
874,62.0,4,319,6.0,70.0
875,62.0,236,319,5.0,70.0
876,55.0,4,319,6.0,70.0
877,65.0,236,319,5.0,70.0
878,62.0,4,319,6.0,70.0
879,55.0,4,194,6.0,70.0
880,62.0,236,204,5.0,70.0
881,55.0,16,1920,2.0,70.0
882,67.0,4,160,7.0,80.0
883,64.0,0,160,7.0,80.0
884,76.0,2,160,1.0,72.0
885,79.0,0,160,0.0,72.0
886,69.0,108,160,7.0,83.0
887,65.0,0,160,7.0,83.0
888,77.0,2,160,1.0,75.0
889,81.0,0,160,0.0,75.0
890,64.0,118,160,7.0,83.0
891,67.0,0,160,7.0,83.0
892,76.0,0,160,1.0,79.0
893,79.0,2,160,0.0,79.0
894,67.0,236,480,5.0,70.0
895,64.0,4,480,6.0,70.0
896,65.0,0,120,7.0,78.0
897,62.0,118,120,7.0,78.0
898,77.0,0,120,0.0,77.0
899,74.0,2,120,1.0,77.0
900,48.0,8,480,2.0,70.0
901,36.0,0,480,10.0,105.0
902,60.0,0,480,7.0,90.0
903,64.0,118,480,7.0,90.0
904,72.0,2,480,1.0,75.0
905,76.0,0,480,0.0,75.0
906,79.0,470,96,5.0,70.0
907,67.0,4,96,6.0,70.0
908,60.0,2,1069,8.0,70.0
909,81.0,220,96,5.0,70.0
910,69.0,4,96,6.0,70.0
911,40.0,8,480,10.0,105.0
912,83.0,236,96,5.0,70.0
913,71.0,4,96,6.0,70.0
914,84.0,236,96,5.0,70.0
915,72.0,4,96,6.0,70.0
916,64.0,8,864,8.0,70.0
917,84.0,236,295,5.0,70.0
918,72.0,4,295,6.0,70.0
919,38.0,8,480,10.0,105.0
920,83.0,220,295,5.0,70.0
921,71.0,4,295,6.0,70.0
922,81.0,236,295,5.0,70.0
923,69.0,4,295,6.0,70.0
924,79.0,236,204,5.0,70.0
925,67.0,4,240,6.0,70.0
926,62.0,8,1049,8.0,70.0
927,79.0,236,120,5.0,70.0
928,67.0,4,120,6.0,70.0
929,77.0,100,120,5.0,70.0
930,65.0,4,120,6.0,70.0
931,76.0,116,120,5.0,70.0
932,64.0,4,120,6.0,70.0
933,77.0,116,120,5.0,70.0
934,65.0,4,120,6.0,70.0
935,31.0,8,480,10.0,105.0
936,81.0,116,240,5.0,70.0
937,69.0,4,240,6.0,70.0
938,55.0,8,869,8.0,70.0
939,77.0,236,240,5.0,70.0
940,65.0,4,240,6.0,70.0
941,76.0,0,120,1.0,76.0
942,79.0,2,120,0.0,76.0
943,67.0,0,160,7.0,81.0
944,64.0,4,160,7.0,81.0
945,75.0,236,240,5.0,70.0
946,63.0,4,240,6.0,70.0
947,81.0,0,120,0.0,81.0
948,77.0,2,120,1.0,81.0
949,65.0,108,160,7.0,85.0
950,69.0,0,160,7.0,85.0
951,76.0,0,120,1.0,81.0
952,79.0,2,120,0.0,81.0
953,67.0,0,160,7.0,85.0
954,64.0,4,160,7.0,85.0
955,76.0,110,240,5.0,70.0
956,64.0,4,240,6.0,70.0
957,62.0,118,120,7.0,78.0
958,65.0,0,120,7.0,78.0
959,77.0,2,120,0.0,81.0
960,74.0,0,120,1.0,81.0
961,36.0,8,480,10.0,105.0
962,76.0,230,44,5.0,70.0
963,64.0,4,44,6.0,70.0
964,77.0,116,44,5.0,70.0
965,65.0,4,44,6.0,70.0
966,64.0,118,480,7.0,80.0
967,60.0,0,480,7.0,80.0
968,76.0,2,480,0.0,80.0
969,72.0,0,480,1.0,80.0
970,60.0,2,1044,8.0,70.0
971,79.0,116,96,5.0,70.0
972,67.0,4,96,6.0,70.0
973,81.0,220,96,5.0,70.0
974,69.0,4,96,6.0,70.0
975,40.0,8,480,10.0,105.0
976,83.0,236,96,5.0,70.0
977,71.0,4,96,6.0,70.0
978,84.0,236,96,5.0,70.0
979,72.0,4,96,6.0,70.0
980,64.0,8,879,8.0,70.0
981,84.0,236,295,5.0,70.0
982,72.0,4,295,6.0,70.0
983,38.0,8,480,10.0,105.0
984,83.0,220,295,5.0,70.0
985,71.0,4,295,6.0,70.0
986,81.0,236,295,5.0,70.0
987,69.0,4,295,6.0,70.0
988,79.0,236,189,5.0,70.0
989,67.0,4,204,6.0,70.0
990,62.0,8,1044,8.0,70.0
991,79.0,236,120,5.0,74.0
992,67.0,4,120,6.0,75.0
993,77.0,100,120,5.0,78.0
994,65.0,4,120,6.0,79.0
995,76.0,116,120,5.0,78.0
996,64.0,4,120,6.0,79.0
997,77.0,116,120,5.0,75.0
998,65.0,4,120,6.0,76.0
999,31.0,8,480,10.0,105.0
1000,81.0,116,240,5.0,80.0
1001,69.0,4,240,6.0,76.0
1002,55.0,8,864,8.0,70.0
1003,77.0,236,240,5.0,70.0
1004,65.0,4,240,6.0,70.0
1005,64.0,0,160,7.0,82.0
1006,67.0,4,160,7.0,82.0
1007,76.0,0,160,1.0,75.0
1008,79.0,2,160,0.0,75.0
1009,76.0,236,189,5.0,70.0
1010,64.0,4,189,6.0,70.0
1011,69.0,108,160,7.0,88.0
1012,65.0,0,160,7.0,88.0
1013,81.0,0,160,0.0,78.0
1014,77.0,2,160,1.0,78.0
1015,64.0,0,160,7.0,90.0
1016,67.0,4,160,7.0,90.0
1017,79.0,0,160,0.0,83.0
1018,76.0,2,160,1.0,83.0
1019,65.0,118,120,7.0,84.0
1020,62.0,0,120,7.0,84.0
1021,77.0,2,120,0.0,82.0
1022,74.0,0,120,1.0,82.0
1023,36.0,8,480,10.0,105.0
1024,84.0,110,552,5.0,70.0
1025,72.0,4,552,6.0,70.0
1026,64.0,118,480,7.0,87.0
1027,60.0,0,480,7.0,87.0
1028,76.0,0,480,0.0,78.0
1029,72.0,2,480,1.0,78.0
1030,60.0,2,1064,8.0,70.0
1031,82.0,230,552,5.0,70.0
1032,70.0,4,552,6.0,70.0
1033,36.0,8,480,10.0,105.0
1034,81.0,220,552,5.0,70.0
1035,69.0,4,552,6.0,70.0
1036,58.0,248,884,8.0,70.0
1037,67.0,4,399,6.0,70.0
1038,57.0,244,160,7.0,91.0
1039,60.0,0,160,7.0,91.0
1040,79.0,476,409,5.0,70.0
1041,84.0,0,160,0.0,74.0
1042,81.0,2,160,1.0,74.0
1043,62.0,0,160,7.0,96.0
1044,58.0,108,160,7.0,96.0
1045,86.0,0,160,0.0,77.0
1046,82.0,2,160,1.0,77.0
1047,57.0,0,160,7.0,96.0
1048,60.0,4,160,7.0,96.0
1049,84.0,2,160,0.0,81.0
1050,81.0,0,160,1.0,81.0
1051,55.0,0,120,7.0,88.0
1052,58.0,118,120,7.0,88.0
1053,82.0,0,120,0.0,81.0
1054,79.0,2,120,1.0,81.0
1055,36.0,8,480,10.0,105.0
1056,77.0,110,552,5.0,70.0
1057,65.0,4,552,6.0,70.0
1058,57.0,118,480,7.0,89.0
1059,53.0,0,480,7.0,89.0
1060,81.0,0,480,0.0,77.0
1061,77.0,2,480,1.0,77.0
1062,57.0,2,1049,8.0,70.0
1063,84.0,230,552,5.0,70.0
1064,72.0,4,552,6.0,70.0
1065,36.0,8,480,10.0,105.0
1066,82.0,220,552,5.0,70.0
1067,70.0,4,552,6.0,70.0
1068,53.0,248,879,8.0,70.0
1069,81.0,476,394,5.0,70.0
1070,58.0,244,160,7.0,100.0
1071,55.0,0,160,7.0,100.0
1072,82.0,2,160,0.0,75.0
1073,79.0,0,160,1.0,75.0
1074,69.0,4,409,6.0,70.0
1075,60.0,0,160,7.0,109.0
1076,57.0,108,160,7.0,109.0
1077,84.0,2,160,0.0,79.0
1078,81.0,0,160,1.0,79.0
1079,55.0,4,160,7.0,109.0
1080,58.0,0,160,7.0,109.0
1081,79.0,0,160,1.0,79.0
1082,82.0,2,160,0.0,79.0
1083,53.0,0,120,7.0,99.0
1084,57.0,118,120,7.0,99.0
1085,81.0,2,120,0.0,79.0
1086,77.0,0,120,1.0,79.0
1087,36.0,8,480,10.0,105.0
1088,79.0,110,552,5.0,70.0
1089,67.0,4,552,6.0,70.0
1090,52.0,0,480,7.0,103.0
1091,55.0,118,480,7.0,103.0
1092,79.0,0,480,0.0,76.0
1093,76.0,2,480,1.0,76.0
1094,52.0,2,1054,8.0,70.0
1095,84.0,230,552,5.0,70.0
1096,72.0,4,552,6.0,70.0
1097,36.0,8,480,10.0,105.0
1098,82.0,220,552,5.0,70.0
1099,70.0,4,568,6.0,70.0
1100,64.0,248,889,8.0,70.0
1101,80.0,476,394,5.0,70.0
1102,68.0,4,399,6.0,70.0
1103,81.0,220,96,5.0,70.0
1104,69.0,4,96,6.0,70.0
1105,65.0,248,480,8.0,70.0
1106,48.0,0,6240,2.0,70.0
1107,60.0,0,6240,2.0,70.0
1108,41.0,8,480,10.0,105.0
1109,83.0,236,96,5.0,70.0
1110,71.0,4,96,6.0,70.0
1111,84.0,236,96,5.0,70.0
1112,72.0,4,96,6.0,70.0
1113,76.0,236,96,5.0,70.0
1114,64.0,4,96,6.0,70.0
1115,77.0,236,96,5.0,70.0
1116,65.0,4,96,6.0,70.0
1117,80.0,236,96,5.0,70.0
1118,68.0,4,96,6.0,70.0
1119,81.0,236,96,5.0,70.0
1120,69.0,4,96,6.0,70.0
1121,73.0,236,96,5.0,70.0
1122,61.0,4,96,6.0,70.0
1123,74.0,236,96,5.0,70.0
1124,62.0,4,96,6.0,70.0
1125,76.0,236,96,5.0,70.0
1126,61.0,4,96,6.0,70.0
1127,77.0,236,96,5.0,70.0
1128,62.0,4,96,6.0,70.0
1129,76.0,236,96,5.0,70.0
1130,61.0,4,96,6.0,70.0
1131,77.0,236,96,5.0,70.0
1132,62.0,4,96,6.0,70.0
1133,79.0,236,96,5.0,70.0
1134,64.0,4,96,6.0,70.0
1135,81.0,236,96,5.0,70.0
1136,65.0,4,96,6.0,70.0
1137,64.0,156,104,5.0,105.0
1138,64.0,4,104,6.0,105.0
1139,55.0,4,168,7.0,105.0
1140,67.0,0,168,7.0,105.0
1141,55.0,2,168,8.0,105.0
1142,43.0,0,168,10.0,105.0
1143,72.0,56,414,5.0,105.0
1144,79.0,16,409,5.0,105.0
1145,55.0,0,168,7.0,105.0
1146,67.0,228,168,7.0,105.0
1147,55.0,4,168,8.0,105.0
1148,43.0,8,168,10.0,105.0
1149,72.0,4,499,6.0,105.0
1150,76.0,4,0,6.0,105.0
1151,76.0,0,480,1.0,91.0
1152,79.0,2,0,0.0,91.0
1153,64.0,0,480,2.0,95.0
1154,67.0,8,480,2.0,95.0
1155,67.0,4,168,7.0,105.0
1156,55.0,0,168,7.0,105.0
1157,55.0,2,168,8.0,105.0
1158,43.0,0,168,10.0,105.0
1159,55.0,0,168,7.0,105.0
1160,67.0,228,168,7.0,105.0
1161,55.0,4,168,8.0,105.0
1162,43.0,8,168,10.0,105.0
1163,67.0,0,168,7.0,105.0
1164,55.0,228,168,7.0,105.0
1165,55.0,4,168,8.0,105.0
1166,43.0,8,168,10.0,105.0
1167,79.0,220,720,5.0,105.0
1168,76.0,0,720,1.0,91.0
1169,81.0,220,120,5.0,105.0
1170,77.0,4,120,6.0,105.0
1171,81.0,0,120,0.0,97.0
1172,77.0,2,120,1.0,97.0
1173,55.0,4,168,7.0,105.0
1174,67.0,0,168,7.0,105.0
1175,55.0,2,168,8.0,105.0
1176,43.0,8,168,10.0,105.0
1177,79.0,100,120,5.0,105.0
1178,76.0,4,120,6.0,105.0
1179,76.0,0,120,1.0,103.0
1180,79.0,6,120,0.0,103.0
1181,67.0,0,960,2.0,95.0
1182,64.0,8,960,2.0,95.0
1183,67.0,4,168,7.0,105.0
1184,55.0,0,168,7.0,105.0
1185,55.0,2,168,8.0,105.0
1186,43.0,0,168,10.0,105.0
1187,77.0,110,240,5.0,105.0
1188,74.0,4,240,6.0,105.0
1189,74.0,2,240,1.0,97.0
1190,77.0,0,240,0.0,97.0
1191,62.0,0,240,2.0,96.0
1192,65.0,8,240,2.0,96.0
1193,55.0,0,168,7.0,105.0
1194,67.0,4,168,7.0,105.0
1195,55.0,2,168,8.0,105.0
1196,43.0,8,168,10.0,105.0
1197,76.0,220,189,5.0,105.0
1198,76.0,2,208,0.0,94.0
1199,72.0,0,216,1.0,94.0
1200,72.0,4,240,6.0,105.0
1201,64.0,0,0,2.0,97.0
1202,60.0,0,240,2.0,97.0
1203,67.0,3,168,7.0,105.0
1204,55.0,0,168,7.0,105.0
1205,55.0,2,168,8.0,105.0
1206,43.0,0,168,10.0,105.0
1207,67.0,224,360,6.0,105.0
1208,76.0,1,360,5.0,105.0
1209,67.0,8,360,2.0,97.0
1210,67.0,2,400,1.0,91.0
1211,55.0,228,168,7.0,105.0
1212,67.0,0,168,7.0,105.0
1213,76.0,0,408,0.0,91.0
1214,55.0,4,168,8.0,105.0
1215,43.0,8,168,10.0,105.0
1216,74.0,6,100,0.0,87.0
1217,65.0,0,100,1.0,87.0
1218,74.0,100,120,5.0,105.0
1219,65.0,4,120,6.0,105.0
1220,62.0,10,120,2.0,97.0
1221,65.0,0,120,2.0,97.0
1222,67.0,4,168,7.0,105.0
1223,55.0,0,168,7.0,105.0
1224,55.0,2,168,8.0,105.0
1225,43.0,8,168,10.0,105.0
1226,67.0,0,168,7.0,105.0
1227,55.0,228,168,7.0,105.0
1228,55.0,4,168,8.0,105.0
1229,43.0,8,168,10.0,105.0
1230,55.0,0,168,7.0,105.0
1231,67.0,228,168,7.0,105.0
1232,55.0,4,168,8.0,105.0
1233,43.0,8,168,10.0,105.0
1234,55.0,0,168,7.0,105.0
1235,67.0,228,168,7.0,105.0
1236,55.0,4,168,8.0,105.0
1237,43.0,8,168,10.0,105.0
1238,72.0,100,960,5.0,105.0
1239,64.0,4,960,6.0,105.0
1240,64.0,2,960,1.0,87.0
1241,72.0,0,960,0.0,87.0
1242,60.0,0,960,2.0,97.0
1243,64.0,0,960,2.0,97.0
1244,55.0,0,168,7.0,105.0
1245,67.0,4,168,7.0,105.0
1246,55.0,2,168,8.0,105.0
1247,43.0,0,168,10.0,105.0
1248,55.0,0,168,7.0,105.0
1249,67.0,228,168,7.0,105.0
1250,55.0,4,168,8.0,105.0
1251,43.0,8,168,10.0,105.0
1252,71.0,220,480,5.0,105.0
1253,62.0,4,480,6.0,105.0
1254,62.0,2,480,1.0,91.0
1255,71.0,0,480,0.0,91.0
1256,62.0,0,480,2.0,105.0
1257,55.0,8,480,2.0,105.0
1258,60.0,4,44,6.0,105.0
1259,55.0,104,44,6.0,105.0
1260,57.0,120,44,6.0,105.0
1261,59.0,120,44,6.0,105.0
1262,72.0,220,480,5.0,105.0
1263,55.0,0,480,7.0,105.0
1264,67.0,4,480,7.0,105.0
1265,72.0,0,480,0.0,91.0
1266,64.0,2,480,1.0,91.0
1267,48.0,2,480,8.0,105.0
1268,60.0,0,480,2.0,105.0
1269,36.0,8,480,10.0,105.0
1270,52.0,0,480,2.0,105.0
1271,60.0,120,44,6.0,105.0
1272,62.0,120,44,6.0,105.0
1273,64.0,120,44,6.0,105.0
1274,62.0,120,44,6.0,105.0
1275,60.0,4,96,6.0,70.0
1276,77.0,116,120,5.0,70.0
1277,76.0,100,120,5.0,70.0
1278,60.0,0,240,2.0,70.0
1279,64.0,16,240,2.0,70.0
1280,55.0,4,96,6.0,70.0
1281,74.0,120,120,5.0,70.0
1282,76.0,116,120,5.0,70.0
1283,62.0,4,96,6.0,70.0
1284,79.0,120,120,5.0,70.0
1285,77.0,100,120,5.0,70.0
1286,62.0,16,240,2.0,70.0
1287,55.0,0,240,2.0,70.0
1288,55.0,4,96,6.0,70.0
1289,76.0,120,120,5.0,70.0
1290,77.0,116,120,5.0,70.0
1291,64.0,4,96,6.0,70.0
1292,79.0,120,294,5.0,70.0
1293,55.0,4,96,6.0,70.0
1294,84.0,220,179,5.0,70.0
1295,60.0,0,480,2.0,70.0
1296,52.0,16,480,2.0,70.0
1297,64.0,4,96,6.0,70.0
1298,79.0,236,114,5.0,70.0
1299,55.0,4,96,6.0,70.0
1300,79.0,236,104,5.0,70.0
1301,60.0,4,96,6.0,70.0
1302,77.0,236,120,5.0,70.0
1303,76.0,100,120,5.0,70.0
1304,64.0,16,240,2.0,70.0
1305,60.0,0,240,2.0,70.0
1306,55.0,4,96,6.0,70.0
1307,74.0,120,120,5.0,70.0
1308,76.0,116,120,5.0,70.0
1309,62.0,4,96,6.0,70.0
1310,79.0,120,120,5.0,70.0
1311,77.0,100,120,5.0,70.0
1312,62.0,0,240,2.0,70.0
1313,55.0,16,240,2.0,70.0
1314,55.0,4,96,6.0,70.0
1315,76.0,120,120,5.0,70.0
1316,77.0,116,120,5.0,70.0
1317,64.0,4,96,6.0,70.0
1318,79.0,120,289,5.0,70.0
1319,55.0,4,96,6.0,70.0
1320,84.0,220,164,5.0,70.0
1321,60.0,0,480,2.0,70.0
1322,52.0,16,480,2.0,70.0
1323,64.0,4,96,6.0,70.0
1324,79.0,236,129,5.0,70.0
1325,55.0,4,96,6.0,70.0
1326,79.0,236,109,5.0,70.0
1327,60.0,4,96,6.0,70.0
1328,77.0,236,120,5.0,70.0
1329,76.0,6,144,0.0,70.0
1330,72.0,0,144,1.0,70.0
1331,76.0,100,120,5.0,70.0
1332,64.0,10,240,2.0,70.0
1333,60.0,0,240,2.0,70.0
1334,55.0,4,96,6.0,70.0
1335,74.0,120,120,5.0,70.0
1336,76.0,116,120,5.0,70.0
1337,62.0,4,96,6.0,70.0
1338,79.0,120,120,5.0,70.0
1339,74.0,6,144,1.0,70.0
1340,77.0,0,144,0.0,70.0
1341,77.0,100,120,5.0,70.0
1342,55.0,0,240,2.0,70.0
1343,62.0,10,240,2.0,70.0
1344,55.0,4,96,6.0,70.0
1345,76.0,120,120,5.0,70.0
1346,77.0,116,120,5.0,70.0
1347,64.0,4,96,6.0,70.0
1348,79.0,0,144,0.0,70.0
1349,76.0,6,144,1.0,70.0
1350,79.0,120,160,5.0,70.0
1351,52.0,0,240,2.0,70.0
1352,60.0,10,240,2.0,70.0
1353,81.0,100,160,5.0,70.0
1354,55.0,4,96,6.0,70.0
1355,79.0,120,160,5.0,70.0
1356,81.0,116,160,5.0,70.0
1357,62.0,4,96,6.0,70.0
1358,74.0,0,144,1.0,70.0
1359,77.0,6,144,0.0,70.0
1360,77.0,120,160,5.0,70.0
1361,55.0,0,240,2.0,70.0
1362,62.0,10,240,2.0,70.0
1363,79.0,100,160,5.0,70.0
1364,55.0,4,96,6.0,70.0
1365,77.0,120,160,5.0,70.0
1366,79.0,116,160,5.0,70.0
1367,60.0,4,96,6.0,70.0
1368,76.0,0,144,0.0,70.0
1369,72.0,6,144,1.0,70.0
1370,76.0,120,160,5.0,70.0
1371,60.0,10,240,2.0,70.0
1372,64.0,0,240,2.0,70.0
1373,77.0,100,160,5.0,70.0
1374,55.0,4,96,6.0,70.0
1375,76.0,120,160,5.0,70.0
1376,77.0,116,160,5.0,70.0
1377,59.0,4,96,6.0,70.0
1378,74.0,6,144,0.0,70.0
1379,71.0,0,144,1.0,70.0
1380,74.0,120,160,5.0,70.0
1381,55.0,10,240,2.0,70.0
1382,62.0,0,240,2.0,70.0
1383,76.0,100,160,5.0,70.0
1384,55.0,4,96,6.0,70.0
1385,74.0,120,160,5.0,70.0
1386,76.0,116,120,5.0,70.0
1387,72.0,120,120,5.0,105.0
1388,60.0,4,120,6.0,105.0
1389,64.0,4,168,7.0,105.0
1390,52.0,2,168,8.0,105.0
1391,40.0,0,168,10.0,105.0
1392,74.0,100,120,5.0,105.0
1393,62.0,4,120,6.0,105.0
1394,76.0,116,120,5.0,105.0
1395,64.0,4,120,6.0,105.0
1396,64.0,4,168,7.0,105.0
1397,52.0,4,168,8.0,105.0
1398,40.0,8,168,10.0,105.0
1399,77.0,100,120,5.0,105.0
1400,65.0,4,120,6.0,105.0
1401,60.0,0,0,2.0,105.0
1402,48.0,8,480,2.0,105.0
1403,79.0,116,120,5.0,105.0
1404,67.0,4,120,6.0,105.0
1405,64.0,4,168,7.0,105.0
1406,52.0,4,168,8.0,105.0
1407,40.0,8,168,10.0,105.0
1408,81.0,100,120,5.0,105.0
1409,69.0,4,120,6.0,105.0
1410,60.0,8,0,2.0,105.0
1411,83.0,116,120,5.0,105.0
1412,71.0,4,120,6.0,105.0
1413,64.0,4,168,7.0,105.0
1414,52.0,4,168,8.0,105.0
1415,40.0,0,168,10.0,105.0
1416,84.0,100,120,5.0,105.0
1417,72.0,4,120,6.0,105.0
1418,72.0,2,960,0.0,105.0
1419,60.0,0,0,2.0,105.0
1420,69.0,116,120,5.0,105.0
1421,57.0,4,120,6.0,105.0
1422,65.0,4,168,7.0,105.0
1423,53.0,2,168,8.0,105.0
1424,41.0,8,168,10.0,105.0
1425,71.0,100,120,5.0,105.0
1426,59.0,4,120,6.0,105.0
1427,72.0,116,120,5.0,105.0
1428,60.0,4,120,6.0,105.0
1429,65.0,4,168,7.0,105.0
1430,53.0,4,168,8.0,105.0
1431,41.0,8,168,10.0,105.0
1432,74.0,100,120,5.0,105.0
1433,62.0,4,120,6.0,105.0
1434,62.0,0,480,2.0,105.0
1435,60.0,8,0,2.0,105.0
1436,76.0,116,120,5.0,105.0
1437,64.0,4,120,6.0,105.0
1438,65.0,4,168,7.0,105.0
1439,53.0,4,168,8.0,105.0
1440,41.0,0,168,10.0,105.0
1441,77.0,100,120,5.0,105.0
1442,65.0,4,120,6.0,105.0
1443,62.0,8,0,2.0,105.0
1444,79.0,116,120,5.0,105.0
1445,67.0,4,120,6.0,105.0
1446,65.0,4,168,7.0,105.0
1447,53.0,4,168,8.0,105.0
1448,41.0,0,168,10.0,105.0
1449,81.0,100,120,5.0,105.0
1450,69.0,4,120,6.0,105.0
1451,81.0,2,960,0.0,105.0
1452,60.0,8,0,2.0,105.0
1453,67.0,116,120,5.0,105.0
1454,55.0,4,120,6.0,105.0
1455,67.0,4,168,7.0,105.0
1456,55.0,2,168,8.0,105.0
1457,43.0,0,168,10.0,105.0
1458,69.0,100,120,5.0,105.0
1459,57.0,4,120,6.0,105.0
1460,71.0,116,120,5.0,105.0
1461,59.0,4,120,6.0,105.0
1462,67.0,4,168,7.0,105.0
1463,55.0,4,168,8.0,105.0
1464,43.0,8,168,10.0,105.0
1465,72.0,100,120,5.0,105.0
1466,60.0,4,120,6.0,105.0
1467,64.0,0,480,2.0,105.0
1468,74.0,116,120,5.0,105.0
1469,62.0,4,120,6.0,105.0
1470,67.0,4,168,7.0,105.0
1471,55.0,4,168,8.0,105.0
1472,43.0,8,168,10.0,105.0
1473,76.0,100,120,5.0,105.0
1474,64.0,4,120,6.0,105.0
1475,72.0,0,720,1.0,105.0
1476,76.0,2,720,0.0,105.0
1477,64.0,0,0,2.0,105.0
1478,60.0,8,0,2.0,105.0
1479,77.0,116,120,5.0,105.0
1480,65.0,4,120,6.0,105.0
1481,77.0,2,120,0.0,105.0
1482,74.0,0,120,1.0,105.0
1483,67.0,4,168,7.0,105.0
1484,55.0,2,168,8.0,105.0
1485,43.0,0,168,10.0,105.0
1486,79.0,6,100,0.0,105.0
1487,76.0,0,100,1.0,105.0
1488,79.0,110,0,5.0,105.0
1489,67.0,4,0,6.0,105.0
1490,64.0,0,0,2.0,105.0
1491,67.0,4,168,7.0,105.0
1492,55.0,2,168,8.0,105.0
1493,43.0,0,168,10.0,105.0
1494,67.0,8,240,2.0,105.0
1495,79.0,2,296,0.0,105.0
1496,76.0,0,304,1.0,105.0
1497,77.0,220,169,5.0,105.0
1498,67.0,4,168,7.0,105.0
1499,55.0,2,168,8.0,105.0
1500,74.0,2,176,1.0,105.0
1501,43.0,8,168,10.0,105.0
1502,65.0,4,189,6.0,105.0
1503,77.0,0,192,0.0,105.0
1504,62.0,0,240,2.0,105.0
1505,65.0,0,240,2.0,105.0
1506,76.0,220,96,5.0,105.0
1507,64.0,4,96,6.0,105.0
1508,76.0,0,96,0.0,105.0
1509,72.0,2,96,1.0,105.0
1510,60.0,0,96,2.0,105.0
1511,64.0,8,96,2.0,105.0
1512,55.0,4,168,7.0,105.0
1513,43.0,2,168,8.0,105.0
1514,31.0,0,168,10.0,105.0
1515,74.0,220,96,5.0,105.0
1516,62.0,4,96,6.0,105.0
1517,71.0,0,96,1.0,105.0
1518,74.0,2,96,0.0,105.0
1519,62.0,0,96,2.0,105.0
1520,55.0,8,96,2.0,105.0
1521,55.0,4,168,7.0,105.0
1522,43.0,2,168,8.0,105.0
1523,31.0,0,168,10.0,105.0
1524,60.0,4,240,7.0,105.0
1525,48.0,2,240,8.0,105.0
1526,36.0,0,240,10.0,105.0
1527,72.0,2,414,0.0,105.0
1528,60.0,8,424,2.0,105.0
1529,52.0,0,424,2.0,105.0
1530,55.0,0,480,5.0,105.0
1531,64.0,0,480,5.0,105.0
1532,72.0,220,480,5.0,105.0
1533,60.0,4,480,6.0,105.0
1534,64.0,228,240,7.0,105.0
1535,52.0,4,240,8.0,105.0
1536,40.0,8,240,10.0,105.0
1537,67.0,228,240,7.0,105.0
1538,55.0,2,240,8.0,105.0
1539,43.0,8,240,10.0,105.0
1540,72.0,0,279,0.0,105.0
1541,67.0,2,279,1.0,105.0
1542,52.0,0,319,2.0,105.0
1543,60.0,0,319,2.0,105.0
1544,79.0,220,106,5.0,98.0
1545,67.0,4,106,6.0,103.0
1546,81.0,60,101,5.0,100.0
1547,69.0,4,101,6.0,107.0
1548,72.0,0,89,0.0,105.0
1549,67.0,46,94,1.0,105.0
1550,52.0,0,84,2.0,105.0
1551,60.0,10,89,2.0,105.0
1552,64.0,4,240,7.0,105.0
1553,52.0,4,240,8.0,105.0
1554,40.0,8,240,10.0,105.0
1555,83.0,16,112,5.0,101.0
1556,71.0,4,112,6.0,108.0
1557,60.0,4,240,7.0,105.0
1558,48.0,2,240,8.0,105.0
1559,36.0,0,240,10.0,105.0
1560,72.0,2,424,0.0,105.0
1561,67.0,0,439,1.0,105.0
1562,60.0,8,429,2.0,105.0
1563,52.0,0,444,2.0,105.0
1564,84.0,80,480,5.0,105.0
1565,72.0,4,480,6.0,110.0
1566,64.0,228,240,7.0,105.0
1567,52.0,4,240,8.0,105.0
1568,40.0,8,240,10.0,105.0
1569,67.0,228,240,7.0,105.0
1570,55.0,2,240,8.0,105.0
1571,43.0,8,240,10.0,105.0
1572,76.0,0,294,0.0,105.0
1573,72.0,2,304,1.0,105.0
1574,64.0,0,309,2.0,105.0
1575,60.0,0,319,2.0,105.0
1576,79.0,220,106,5.0,100.0
1577,67.0,4,106,6.0,100.0
1578,81.0,60,101,5.0,103.0
1579,69.0,4,101,6.0,102.0
1580,72.0,46,89,1.0,105.0
1581,64.0,0,84,2.0,105.0
1582,76.0,0,94,0.0,105.0
1583,60.0,10,84,2.0,105.0
1584,64.0,4,240,7.0,105.0
1585,52.0,4,240,8.0,105.0
1586,40.0,8,240,10.0,105.0
1587,83.0,16,112,5.0,105.0
1588,71.0,4,112,6.0,105.0
1589,60.0,4,240,7.0,105.0
1590,48.0,2,240,8.0,105.0
1591,36.0,0,240,10.0,105.0
1592,72.0,0,439,1.0,105.0
1593,76.0,2,439,0.0,105.0
1594,64.0,0,439,2.0,105.0
1595,60.0,8,444,2.0,105.0
1596,84.0,80,480,5.0,108.0
1597,72.0,4,480,6.0,109.0
1598,64.0,228,240,7.0,105.0
1599,52.0,4,240,8.0,105.0
1600,40.0,8,240,10.0,105.0
1601,67.0,228,240,7.0,105.0
1602,55.0,2,240,8.0,105.0
1603,43.0,8,240,10.0,105.0
1604,76.0,2,289,1.0,105.0
1605,79.0,0,294,0.0,105.0
1606,67.0,0,304,2.0,105.0
1607,64.0,0,324,2.0,105.0
1608,79.0,220,106,5.0,97.0
1609,67.0,4,106,6.0,102.0
1610,81.0,60,101,5.0,101.0
1611,69.0,4,101,6.0,105.0
1612,76.0,0,89,1.0,105.0
1613,79.0,46,89,0.0,105.0
1614,67.0,0,84,2.0,105.0
1615,64.0,10,89,2.0,105.0
1616,64.0,4,240,7.0,105.0
1617,52.0,4,240,8.0,105.0
1618,40.0,8,240,10.0,105.0
1619,83.0,16,112,5.0,103.0
1620,71.0,4,112,6.0,107.0
1621,84.0,80,240,5.0,106.0
1622,72.0,4,240,6.0,109.0
1623,60.0,4,240,7.0,105.0
1624,48.0,2,240,8.0,105.0
1625,36.0,8,240,10.0,105.0
1626,79.0,220,106,5.0,102.0
1627,67.0,4,106,6.0,102.0
1628,81.0,60,101,5.0,104.0
1629,69.0,4,101,6.0,103.0
1630,64.0,0,429,2.0,105.0
1631,76.0,2,439,1.0,105.0
1632,79.0,0,454,0.0,105.0
1633,64.0,4,240,7.0,105.0
1634,52.0,4,240,8.0,105.0
1635,40.0,8,240,10.0,105.0
1636,67.0,0,480,2.0,105.0
1637,83.0,72,112,5.0,106.0
1638,71.0,4,112,6.0,106.0
1639,84.0,80,240,5.0,109.0
1640,72.0,4,240,6.0,109.0
1641,67.0,4,240,7.0,105.0
1642,55.0,2,240,8.0,105.0
1643,43.0,8,240,10.0,105.0
1644,84.0,0,289,0.0,105.0
1645,76.0,2,294,1.0,105.0
1646,60.0,0,309,2.0,105.0
1647,79.0,220,106,5.0,103.0
1648,64.0,0,329,2.0,105.0
1649,67.0,4,106,6.0,100.0
1650,81.0,60,101,5.0,108.0
1651,69.0,4,101,6.0,102.0
1652,76.0,46,89,1.0,105.0
1653,84.0,0,94,0.0,105.0
1654,60.0,10,89,2.0,105.0
1655,64.0,0,104,2.0,105.0
1656,64.0,4,240,7.0,105.0
1657,52.0,4,240,8.0,105.0
1658,40.0,8,240,10.0,105.0
1659,83.0,16,112,5.0,108.0
1660,71.0,4,112,6.0,103.0
1661,84.0,2,408,0.0,105.0
1662,60.0,4,434,7.0,105.0
1663,76.0,0,440,1.0,105.0
1664,48.0,2,439,8.0,105.0
1665,36.0,0,439,10.0,105.0
1666,84.0,80,480,5.0,114.0
1667,72.0,4,480,6.0,107.0
1668,60.0,8,480,2.0,105.0
1669,64.0,0,480,2.0,105.0
1670,72.0,220,240,5.0,79.0
1671,60.0,2,554,8.0,81.0
1672,84.0,470,560,0.0,77.0
1673,48.0,8,554,10.0,81.0
1674,71.0,220,240,5.0,70.0
1675,59.0,2,549,8.0,70.0
1676,83.0,250,552,0.0,78.0
1677,47.0,8,549,10.0,70.0
1678,81.0,250,400,0.0,78.0
1679,57.0,2,409,8.0,70.0
1680,45.0,8,409,10.0,70.0
1681,69.0,220,240,5.0,70.0
1682,67.0,220,0,5.0,105.0
1683,55.0,2,234,8.0,105.0
1684,43.0,0,234,10.0,105.0
1685,79.0,10,248,0.0,94.0
1686,55.0,0,480,2.0,70.0
1687,67.0,8,480,2.0,70.0
1688,65.0,220,240,5.0,70.0
1689,53.0,2,529,8.0,70.0
1690,41.0,8,529,10.0,70.0
1691,77.0,250,568,0.0,82.0
1692,64.0,220,240,5.0,70.0
1693,76.0,250,544,0.0,78.0
1694,52.0,2,554,8.0,70.0
1695,40.0,8,554,10.0,70.0
1696,72.0,0,60,4.0,105.0
1697,48.0,80,60,4.0,105.0
1698,74.0,250,408,0.0,70.0
1699,76.0,0,60,4.0,105.0
1700,52.0,60,60,4.0,105.0
1701,50.0,2,429,8.0,70.0
1702,38.0,8,429,10.0,70.0
1703,62.0,220,240,5.0,70.0
1704,55.0,0,60,4.0,105.0
1705,79.0,60,60,4.0,105.0
1706,72.0,10,480,0.0,92.0
1707,60.0,0,480,2.0,70.0
1708,48.0,0,480,2.0,70.0
1709,60.0,40,684,5.0,105.0
1710,48.0,2,684,8.0,105.0
1711,36.0,8,684,10.0,105.0
1712,84.0,0,720,4.0,105.0
1713,60.0,0,720,4.0,105.0
1714,84.0,0,720,3.0,105.0
1715,67.0,700,228,5.0,105.0
1716,55.0,12,228,8.0,105.0
1717,43.0,0,228,10.0,105.0
1718,79.0,8,240,3.0,105.0
1719,55.0,0,240,4.0,105.0
1720,79.0,0,240,4.0,105.0
1721,64.0,220,228,5.0,105.0
1722,52.0,12,228,8.0,105.0
1723,40.0,0,228,10.0,105.0
1724,76.0,8,240,4.0,105.0
1725,76.0,0,240,3.0,105.0
1726,52.0,0,240,4.0,105.0
1727,60.0,220,228,5.0,105.0
1728,48.0,12,228,8.0,105.0
1729,36.0,0,228,10.0,105.0
1730,48.0,0,240,4.0,105.0
1731,72.0,8,240,4.0,105.0
1732,72.0,0,240,3.0,105.0
1733,64.0,220,228,5.0,105.0
1734,52.0,12,228,8.0,105.0
1735,40.0,0,228,10.0,105.0
1736,76.0,8,240,4.0,105.0
1737,52.0,0,240,4.0,105.0
1738,76.0,0,240,3.0,105.0
1739,67.0,220,228,5.0,105.0
1740,55.0,12,228,8.0,105.0
1741,43.0,0,228,10.0,105.0
1742,79.0,0,240,3.0,105.0
1743,79.0,8,240,4.0,105.0
1744,55.0,0,240,4.0,105.0
1745,72.0,220,684,5.0,105.0
1746,60.0,12,684,8.0,105.0
1747,48.0,0,684,10.0,105.0
1748,84.0,0,720,4.0,105.0
1749,84.0,8,720,3.0,105.0
1750,60.0,0,720,4.0,105.0
1751,67.0,700,228,5.0,105.0
1752,55.0,12,228,8.0,105.0
1753,43.0,0,228,10.0,105.0
1754,79.0,0,240,3.0,105.0
1755,79.0,8,240,4.0,105.0
1756,55.0,0,240,4.0,105.0
1757,64.0,220,228,5.0,105.0
1758,52.0,12,228,8.0,105.0
1759,40.0,0,228,10.0,105.0
1760,52.0,0,240,4.0,105.0
1761,76.0,0,240,4.0,105.0
1762,76.0,8,240,3.0,105.0
1763,60.0,220,228,5.0,105.0
1764,48.0,12,228,8.0,105.0
1765,36.0,0,228,10.0,105.0
1766,72.0,8,240,3.0,105.0
1767,48.0,0,240,4.0,105.0
1768,72.0,0,240,4.0,105.0
1769,64.0,220,228,5.0,105.0
1770,52.0,12,228,8.0,105.0
1771,40.0,0,228,10.0,105.0
1772,76.0,0,240,4.0,105.0
1773,52.0,0,240,4.0,105.0
1774,76.0,8,240,3.0,105.0
1775,67.0,220,228,5.0,105.0
1776,55.0,12,228,8.0,105.0
1777,43.0,0,228,10.0,105.0
1778,79.0,8,240,3.0,105.0
1779,55.0,0,240,4.0,105.0
1780,79.0,0,240,4.0,105.0
1781,84.0,8,439,3.0,105.0
1782,72.0,220,480,5.0,105.0
1783,60.0,12,480,8.0,105.0
1784,84.0,0,480,4.0,105.0
1785,60.0,0,480,4.0,105.0
1786,48.0,0,480,10.0,105.0
1787,60.0,120,120,4.0,70.0
1788,72.0,20,120,4.0,70.0
1789,60.0,100,240,5.0,70.0
1790,60.0,120,120,4.0,70.0
1791,48.0,0,480,4.0,70.0
1792,48.0,472,549,8.0,70.0
1793,36.0,0,549,10.0,70.0
1794,72.0,8,549,3.0,70.0
1795,59.0,120,120,4.0,70.0
1796,71.0,20,120,4.0,70.0
1797,59.0,100,240,5.0,70.0
1798,47.0,8,480,4.0,70.0
1799,59.0,120,120,4.0,70.0
1800,71.0,0,524,3.0,70.0
1801,47.0,112,559,8.0,70.0
1802,35.0,0,559,10.0,70.0
1803,60.0,120,120,4.0,70.0
1804,72.0,20,120,4.0,70.0
1805,48.0,112,409,8.0,70.0
1806,36.0,0,409,10.0,70.0
1807,72.0,0,439,3.0,70.0
1808,60.0,100,240,5.0,70.0
1809,60.0,120,120,4.0,70.0
1810,48.0,8,480,4.0,70.0
1811,62.0,100,96,5.0,70.0
1812,50.0,12,192,8.0,70.0
1813,74.0,0,192,3.0,105.0
1814,38.0,0,192,10.0,70.0
1815,62.0,120,120,4.0,105.0
1816,62.0,100,96,5.0,70.0
1817,74.0,20,120,4.0,105.0
1818,62.0,120,120,4.0,105.0
1819,38.0,8,480,4.0,105.0
1820,50.0,8,0,4.0,70.0
1821,62.0,120,120,4.0,70.0
1822,74.0,20,120,4.0,70.0
1823,62.0,100,240,5.0,70.0
1824,62.0,120,120,4.0,70.0
1825,50.0,112,559,8.0,70.0
1826,38.0,0,559,10.0,70.0
1827,74.0,0,569,3.0,70.0
1828,61.0,120,120,4.0,70.0
1829,73.0,20,120,4.0,70.0
1830,61.0,100,240,5.0,70.0
1831,49.0,0,480,4.0,70.0
1832,61.0,120,120,4.0,70.0
1833,73.0,8,549,3.0,70.0
1834,49.0,112,564,8.0,70.0
1835,37.0,0,564,10.0,70.0
1836,62.0,120,120,4.0,70.0
1837,74.0,20,120,4.0,70.0
1838,50.0,112,409,8.0,70.0
1839,38.0,0,409,10.0,70.0
1840,74.0,0,419,3.0,70.0
1841,62.0,100,240,5.0,70.0
1842,62.0,120,120,4.0,70.0
1843,50.0,8,480,4.0,70.0
1844,64.0,100,96,5.0,70.0
1845,52.0,12,192,8.0,70.0
1846,76.0,0,192,3.0,105.0
1847,40.0,8,192,10.0,70.0
1848,64.0,120,120,4.0,105.0
1849,64.0,100,96,5.0,70.0
1850,76.0,20,120,4.0,105.0
1851,64.0,120,120,4.0,105.0
1852,52.0,0,480,4.0,105.0
1853,40.0,0,480,4.0,105.0
1854,64.0,120,120,4.0,70.0
1855,76.0,20,120,4.0,70.0
1856,64.0,100,240,5.0,70.0
1857,52.0,8,480,4.0,70.0
1858,64.0,120,120,4.0,70.0
1859,52.0,112,559,8.0,70.0
1860,76.0,0,559,3.0,70.0
1861,40.0,0,559,10.0,70.0
1862,63.0,120,120,4.0,70.0
1863,75.0,20,120,4.0,70.0
1864,63.0,100,240,5.0,70.0
1865,51.0,8,480,4.0,70.0
1866,63.0,120,120,4.0,70.0
1867,51.0,112,569,8.0,70.0
1868,39.0,0,569,10.0,70.0
1869,75.0,0,569,3.0,70.0
1870,64.0,120,120,4.0,70.0
1871,76.0,20,120,4.0,70.0
1872,52.0,112,419,8.0,70.0
1873,76.0,0,419,3.0,70.0
1874,40.0,8,419,10.0,70.0
1875,64.0,100,240,5.0,70.0
1876,64.0,120,120,4.0,70.0
1877,52.0,0,480,4.0,70.0
1878,65.0,120,120,4.0,80.0
1879,77.0,20,120,4.0,80.0
1880,65.0,100,240,5.0,70.0
1881,65.0,120,120,4.0,80.0
1882,53.0,8,480,4.0,80.0
1883,53.0,112,534,8.0,70.0
1884,41.0,0,534,10.0,70.0
1885,77.0,0,549,3.0,80.0
1886,67.0,120,120,4.0,80.0
1887,79.0,20,120,4.0,80.0
1888,67.0,100,240,5.0,70.0
1889,43.0,8,480,4.0,80.0
1890,67.0,120,120,4.0,80.0
1891,55.0,0,480,4.0,80.0
1892,55.0,112,559,8.0,70.0
1893,43.0,0,559,10.0,70.0
1894,79.0,0,599,3.0,80.0
1895,69.0,120,120,4.0,90.0
1896,81.0,20,120,4.0,90.0
1897,69.0,100,240,5.0,70.0
1898,69.0,120,120,4.0,90.0
1899,57.0,8,480,4.0,90.0
1900,45.0,0,480,4.0,90.0
1901,57.0,112,554,8.0,70.0
1902,45.0,0,554,10.0,70.0
1903,81.0,0,569,3.0,90.0
1904,71.0,120,120,4.0,90.0
1905,83.0,20,120,4.0,90.0
1906,83.0,0,379,3.0,90.0
1907,59.0,112,419,8.0,70.0
1908,47.0,0,419,10.0,70.0
1909,71.0,100,240,5.0,70.0
1910,47.0,8,480,4.0,90.0
1911,59.0,0,480,4.0,90.0
1912,71.0,120,120,4.0,90.0
1913,48.0,0,120,4.0,105.0
1914,52.0,120,120,4.0,105.0
1915,55.0,120,120,4.0,105.0
1916,72.0,100,480,5.0,70.0
1917,60.0,12,480,8.0,70.0
1918,48.0,0,480,10.0,70.0
1919,60.0,120,120,4.0,105.0
1920,72.0,120,120,4.0,105.0
1921,76.0,120,120,4.0,105.0
1922,79.0,120,120,4.0,105.0
1923,84.0,120,120,4.0,105.0
1924,76.0,120,120,4.0,105.0
1925,79.0,120,120,4.0,105.0
1926,84.0,120,120,4.0,105.0
1927,88.0,120,120,4.0,105.0
1928,86.0,120,120,4.0,105.0
1929,84.0,120,120,4.0,105.0
1930,83.0,120,120,4.0,105.0
1931,84.0,8,1859,3.0,105.0
1932,84.0,120,120,4.0,105.0
1933,86.0,120,120,4.0,105.0
1934,71.0,0,240,4.0,105.0
1935,83.0,120,120,4.0,105.0
1936,84.0,0,120,4.0,105.0
1937,69.0,120,240,4.0,105.0
1938,81.0,120,120,4.0,105.0
1939,83.0,120,120,4.0,105.0
1940,67.0,0,240,4.0,105.0
1941,79.0,120,120,4.0,105.0
1942,81.0,120,120,4.0,105.0
1943,77.0,120,120,4.0,105.0
1944,65.0,0,240,4.0,105.0
1945,79.0,120,120,4.0,105.0
1946,64.0,0,240,4.0,105.0
1947,76.0,120,120,4.0,105.0
1948,77.0,0,120,4.0,105.0
1949,62.0,120,240,4.0,105.0
1950,74.0,120,120,4.0,105.0
1951,76.0,0,120,4.0,105.0
1952,60.0,120,240,4.0,105.0
1953,72.0,120,120,4.0,105.0
1954,74.0,120,120,4.0,105.0
1955,79.0,0,1859,3.0,105.0
1956,71.0,120,120,4.0,105.0
1957,59.0,0,240,4.0,105.0
1958,48.0,120,120,4.0,105.0
1959,52.0,120,120,4.0,105.0
1960,55.0,120,120,4.0,105.0
1961,60.0,120,120,4.0,105.0
1962,72.0,120,120,4.0,105.0
1963,76.0,120,120,4.0,105.0
1964,79.0,120,120,4.0,105.0
1965,84.0,120,120,4.0,105.0
1966,76.0,120,120,4.0,105.0
1967,79.0,120,120,4.0,105.0
1968,84.0,120,120,4.0,105.0
1969,88.0,120,120,4.0,105.0
1970,86.0,120,120,4.0,105.0
1971,84.0,120,120,4.0,105.0
1972,83.0,120,120,4.0,105.0
1973,72.0,0,1849,3.0,105.0
1974,84.0,120,120,4.0,105.0
1975,86.0,0,120,4.0,105.0
1976,83.0,120,120,4.0,105.0
1977,71.0,120,240,4.0,105.0
1978,84.0,120,120,4.0,105.0
1979,81.0,120,120,4.0,105.0
1980,69.0,0,240,4.0,105.0
1981,83.0,120,120,4.0,105.0
1982,67.0,0,240,4.0,105.0
1983,79.0,120,120,4.0,105.0
1984,81.0,120,120,4.0,105.0
1985,65.0,0,240,4.0,105.0
1986,77.0,120,120,4.0,105.0
1987,79.0,0,120,4.0,105.0
1988,76.0,120,120,4.0,105.0
1989,64.0,120,240,4.0,105.0
1990,77.0,120,120,4.0,105.0
1991,62.0,0,240,4.0,105.0
1992,74.0,120,120,4.0,105.0
1993,76.0,120,120,4.0,105.0
1994,60.0,0,240,4.0,105.0
1995,72.0,120,120,4.0,105.0
1996,74.0,0,120,4.0,105.0
1997,67.0,0,1839,3.0,105.0
1998,71.0,120,120,4.0,105.0
1999,59.0,120,240,4.0,105.0
2000,72.0,0,240,3.0,105.0
2001,74.0,12,120,3.0,105.0
2002,67.0,220,168,5.0,70.0
2003,64.0,4,168,6.0,70.0
2004,60.0,4,168,7.0,70.0
2005,48.0,112,480,8.0,70.0
2006,76.0,120,120,3.0,105.0
2007,72.0,8,480,4.0,105.0
2008,60.0,0,480,4.0,105.0
2009,36.0,0,480,10.0,70.0
2010,77.0,12,120,3.0,105.0
2011,67.0,100,168,5.0,70.0
2012,64.0,4,168,6.0,70.0
2013,60.0,4,168,7.0,70.0
2014,79.0,120,120,3.0,105.0
2015,81.0,12,120,3.0,105.0
2016,67.0,100,168,5.0,70.0
2017,64.0,4,168,6.0,70.0
2018,60.0,4,168,7.0,70.0
2019,83.0,120,120,3.0,105.0
2020,84.0,12,120,3.0,105.0
2021,67.0,100,168,5.0,70.0
2022,64.0,4,168,6.0,70.0
2023,60.0,4,168,7.0,70.0
2024,83.0,120,120,3.0,105.0
2025,84.0,12,120,3.0,105.0
2026,67.0,100,168,5.0,70.0
2027,64.0,4,168,6.0,70.0
2028,60.0,4,168,7.0,70.0
2029,83.0,120,120,3.0,105.0
2030,84.0,12,120,3.0,105.0
2031,67.0,100,168,5.0,70.0
2032,64.0,4,168,6.0,70.0
2033,60.0,4,168,7.0,70.0
2034,83.0,120,120,3.0,105.0
2035,81.0,12,120,3.0,105.0
2036,67.0,100,168,5.0,70.0
2037,64.0,4,168,6.0,70.0
2038,60.0,4,168,7.0,70.0
2039,79.0,120,120,3.0,105.0
2040,81.0,8,89,3.0,105.0
2041,72.0,120,120,3.0,105.0
2042,74.0,12,120,3.0,105.0
2043,69.0,100,168,5.0,70.0
2044,65.0,4,168,6.0,70.0
2045,60.0,4,168,7.0,70.0
2046,48.0,112,480,8.0,70.0
2047,36.0,0,480,10.0,70.0
2048,76.0,120,120,3.0,105.0
2049,77.0,12,120,3.0,105.0
2050,69.0,100,168,5.0,70.0
2051,65.0,4,168,6.0,70.0
2052,60.0,4,168,7.0,70.0
2053,79.0,120,120,3.0,105.0
2054,81.0,12,120,3.0,105.0
2055,69.0,100,168,5.0,70.0
2056,65.0,4,168,6.0,70.0
2057,60.0,4,168,7.0,70.0
2058,83.0,120,120,3.0,105.0
2059,84.0,12,120,3.0,105.0
2060,69.0,100,168,5.0,70.0
2061,65.0,4,168,6.0,70.0
2062,60.0,4,168,7.0,70.0
2063,83.0,120,120,3.0,105.0
2064,84.0,12,120,3.0,105.0
2065,69.0,100,168,5.0,70.0
2066,65.0,4,168,6.0,70.0
2067,60.0,4,168,7.0,70.0
2068,83.0,120,120,3.0,105.0
2069,86.0,12,120,3.0,105.0
2070,69.0,100,168,5.0,70.0
2071,65.0,4,168,6.0,70.0
2072,60.0,4,168,7.0,70.0
2073,84.0,120,120,3.0,105.0
2074,83.0,12,120,3.0,105.0
2075,69.0,100,168,5.0,70.0
2076,65.0,4,168,6.0,70.0
2077,60.0,4,168,7.0,70.0
2078,81.0,120,120,3.0,105.0
2079,79.0,8,84,3.0,105.0
2080,72.0,120,120,3.0,105.0
2081,74.0,12,120,3.0,105.0
2082,67.0,100,168,5.0,70.0
2083,64.0,4,168,6.0,70.0
2084,60.0,4,168,7.0,70.0
2085,48.0,112,480,8.0,70.0
2086,36.0,0,480,10.0,70.0
2087,76.0,120,120,3.0,105.0
2088,77.0,12,120,3.0,105.0
2089,67.0,100,168,5.0,70.0
2090,64.0,4,168,6.0,70.0
2091,60.0,4,168,7.0,70.0
2092,79.0,120,120,3.0,105.0
2093,81.0,12,120,3.0,105.0
2094,67.0,100,168,5.0,70.0
2095,64.0,4,168,6.0,70.0
2096,60.0,4,168,7.0,70.0
2097,83.0,120,120,3.0,105.0
2098,84.0,12,120,3.0,105.0
2099,67.0,100,168,5.0,70.0
2100,64.0,4,168,6.0,70.0
2101,60.0,4,168,7.0,70.0
2102,86.0,120,120,3.0,105.0
2103,88.0,12,120,3.0,105.0
2104,67.0,100,168,5.0,70.0
2105,64.0,4,168,6.0,70.0
2106,60.0,4,168,7.0,70.0
2107,86.0,120,120,3.0,105.0
2108,84.0,12,120,3.0,105.0
2109,67.0,100,168,5.0,70.0
2110,64.0,4,168,6.0,70.0
2111,60.0,4,168,7.0,70.0
2112,83.0,120,120,3.0,105.0
2113,81.0,12,120,3.0,105.0
2114,67.0,100,168,5.0,70.0
2115,64.0,4,168,6.0,70.0
2116,60.0,4,168,7.0,70.0
2117,79.0,120,84,3.0,105.0
2118,79.0,0,149,3.0,105.0
2119,77.0,120,139,3.0,105.0
2120,67.0,100,284,5.0,70.0
2121,64.0,4,309,6.0,70.0
2122,81.0,16,144,3.0,105.0
2123,65.0,100,189,5.0,70.0
2124,62.0,4,189,6.0,70.0
2125,77.0,120,104,3.0,105.0
2126,64.0,100,96,5.0,70.0
2127,60.0,4,96,6.0,70.0
2128,64.0,220,96,5.0,70.0
2129,60.0,4,96,6.0,70.0
2130,53.0,4,1059,8.0,70.0
2131,41.0,8,1059,10.0,70.0
2132,57.0,4,1079,7.0,70.0
2133,64.0,236,298,5.0,70.0
2134,60.0,4,298,6.0,70.0
2135,76.0,16,914,3.0,105.0
2136,67.0,220,298,5.0,70.0
2137,64.0,4,298,6.0,70.0
2138,76.0,16,84,3.0,105.0
2139,74.0,70,32,3.0,105.0
2140,76.0,40,28,3.0,105.0
2141,74.0,30,32,3.0,105.0
2142,76.0,40,28,3.0,105.0
2143,74.0,28,32,3.0,105.0
2144,65.0,236,298,5.0,70.0
2145,62.0,4,298,6.0,70.0
2146,72.0,16,120,3.0,105.0
2147,55.0,4,894,8.0,70.0
2148,62.0,12,189,5.0,70.0
2149,55.0,4,904,7.0,70.0
2150,43.0,8,894,10.0,70.0
2151,59.0,4,199,6.0,70.0
2152,74.0,120,120,3.0,105.0
2153,60.0,100,240,5.0,70.0
2154,60.0,4,240,6.0,70.0
2155,72.0,8,240,4.0,105.0
2156,60.0,0,240,4.0,105.0
2157,74.0,0,120,4.0,105.0
2158,55.0,4,419,7.0,70.0
2159,48.0,4,480,8.0,70.0
2160,36.0,0,480,10.0,70.0
2161,67.0,240,240,4.0,105.0
2162,76.0,120,120,4.0,105.0
2163,72.0,0,480,3.0,105.0
2164,77.0,0,120,4.0,105.0
2165,72.0,100,240,5.0,68.0
2166,67.0,4,240,6.0,70.0
2167,64.0,16,240,4.0,105.0
2168,79.0,120,120,4.0,105.0
2169,81.0,0,120,4.0,105.0
2170,67.0,120,240,4.0,105.0
2171,83.0,120,120,4.0,105.0
2172,84.0,16,120,4.0,105.0
2173,76.0,100,240,5.0,71.0
2174,72.0,4,240,6.0,70.0
2175,60.0,0,240,4.0,105.0
2176,83.0,120,120,4.0,105.0
2177,84.0,0,120,4.0,105.0
2178,83.0,120,120,4.0,105.0
2179,67.0,120,240,4.0,105.0
2180,84.0,16,120,4.0,105.0
2181,79.0,100,240,5.0,74.0
2182,76.0,4,240,6.0,70.0
2183,83.0,120,120,4.0,105.0
2184,64.0,0,240,4.0,105.0
2185,81.0,0,120,4.0,105.0
2186,67.0,120,240,4.0,105.0
2187,79.0,120,120,4.0,105.0
2188,81.0,0,120,4.0,105.0
2189,81.0,100,240,5.0,77.0
2190,77.0,4,240,6.0,70.0
2191,72.0,120,120,4.0,105.0
2192,60.0,0,240,4.0,105.0
2193,74.0,120,120,4.0,105.0
2194,48.0,4,480,8.0,70.0
2195,36.0,8,480,10.0,70.0
2196,69.0,0,240,4.0,105.0
2197,76.0,120,120,4.0,105.0
2198,77.0,0,120,4.0,105.0
2199,72.0,100,240,5.0,64.0
2200,69.0,4,240,6.0,70.0
2201,79.0,120,120,4.0,105.0
2202,65.0,16,240,4.0,105.0
2203,81.0,120,120,4.0,105.0
2204,69.0,0,240,4.0,105.0
2205,83.0,120,120,4.0,105.0
2206,84.0,16,120,4.0,105.0
2207,77.0,100,240,5.0,68.0
2208,72.0,4,240,6.0,70.0
2209,83.0,120,120,4.0,105.0
2210,60.0,0,240,4.0,105.0
2211,84.0,120,120,4.0,105.0
2212,83.0,120,120,4.0,105.0
2213,69.0,0,240,4.0,105.0
2214,86.0,16,120,4.0,105.0
2215,81.0,100,240,5.0,73.0
2216,77.0,4,240,6.0,70.0
2217,84.0,120,120,4.0,105.0
2218,65.0,0,240,4.0,105.0
2219,83.0,0,120,4.0,105.0
2220,69.0,120,240,4.0,105.0
2221,81.0,120,120,4.0,105.0
2222,79.0,8,120,4.0,105.0
2223,79.0,100,240,5.0,77.0
2224,79.0,4,240,6.0,70.0
2225,72.0,120,120,4.0,105.0
2226,60.0,0,240,4.0,105.0
2227,74.0,0,120,4.0,105.0
2228,48.0,8,480,8.0,70.0
2229,76.0,120,120,4.0,105.0
2230,67.0,120,240,4.0,105.0
2231,36.0,0,480,10.0,70.0
2232,77.0,16,120,4.0,105.0
2233,72.0,100,240,5.0,68.0
2234,72.0,4,240,6.0,70.0
2235,64.0,0,240,4.0,105.0
2236,79.0,120,120,4.0,105.0
2237,81.0,0,120,4.0,105.0
2238,83.0,120,120,4.0,105.0
2239,67.0,120,240,4.0,105.0
2240,84.0,16,120,4.0,105.0
2241,76.0,100,240,5.0,74.0
2242,76.0,4,240,6.0,70.0
2243,86.0,120,120,4.0,105.0
2244,60.0,0,240,4.0,105.0
2245,88.0,120,120,4.0,105.0
2246,67.0,0,240,4.0,105.0
2247,86.0,120,120,4.0,105.0
2248,84.0,0,120,4.0,105.0
2249,79.0,100,240,5.0,80.0
2250,79.0,4,240,6.0,70.0
2251,83.0,120,120,4.0,105.0
2252,64.0,16,240,4.0,105.0
2253,81.0,120,120,4.0,105.0
2254,67.0,0,240,4.0,105.0
2255,79.0,120,120,4.0,105.0
2256,55.0,0,240,4.0,105.0
2257,67.0,220,96,5.0,72.0
2258,64.0,4,96,6.0,70.0
2259,79.0,0,360,4.0,105.0
2260,72.0,4,4320,7.0,70.0
2261,64.0,16,240,4.0,105.0
2262,77.0,120,120,4.0,105.0
2263,72.0,100,96,5.0,75.0
2264,67.0,4,96,6.0,70.0
2265,60.0,0,240,4.0,105.0
2266,76.0,220,96,5.0,79.0
2267,72.0,4,96,6.0,70.0
2268,55.0,112,960,8.0,70.0
2269,43.0,8,960,10.0,70.0
2270,64.0,16,240,4.0,105.0
2271,79.0,220,96,5.0,82.0
2272,76.0,4,96,6.0,70.0
2273,76.0,12,600,4.0,105.0
2274,72.0,120,120,4.0,105.0
2275,55.0,0,240,4.0,105.0
2276,76.0,100,96,5.0,81.0
2277,72.0,4,96,6.0,70.0
2278,76.0,16,120,4.0,105.0
2279,67.0,4,0,7.0,70.0
2280,79.0,120,120,4.0,105.0
2281,60.0,0,240,4.0,105.0
2282,77.0,100,96,5.0,78.0
2283,74.0,4,96,6.0,70.0
2284,79.0,12,120,4.0,105.0
2285,77.0,120,120,4.0,105.0
2286,55.0,0,240,4.0,105.0
2287,74.0,100,96,5.0,75.0
2288,71.0,4,96,6.0,70.0
2289,76.0,16,120,4.0,105.0
2290,43.0,8,960,8.0,70.0
2291,59.0,0,240,4.0,105.0
2292,74.0,120,120,4.0,105.0
2293,31.0,8,960,10.0,70.0
2294,72.0,0,120,4.0,105.0
2295,76.0,120,120,4.0,105.0
2296,72.0,0,284,3.0,105.0
2297,79.0,120,120,4.0,105.0
2298,72.0,100,480,5.0,72.0
2299,72.0,4,480,6.0,70.0
2300,67.0,4,480,7.0,70.0
2301,48.0,4,480,8.0,70.0
2302,60.0,8,480,4.0,105.0
2303,84.0,120,120,4.0,105.0
2304,36.0,0,480,10.0,70.0
2305,72.0,120,120,4.0,105.0
2306,88.0,0,389,3.0,105.0
2307,60.0,0,240,4.0,105.0
2308,48.0,0,240,4.0,105.0
2309,84.0,120,120,4.0,105.0
2310,71.0,0,120,4.0,105.0
2311,86.0,0,214,3.0,105.0
2312,47.0,0,240,4.0,105.0
2313,59.0,120,240,4.0,105.0
2314,83.0,120,120,4.0,105.0
2315,69.0,0,120,4.0,105.0
2316,72.0,120,120,4.0,105.0
2317,69.0,0,309,3.0,105.0
2318,76.0,0,120,4.0,105.0
2319,81.0,120,120,4.0,105.0
2320,57.0,120,480,4.0,105.0
2321,45.0,0,480,4.0,105.0
2322,69.0,120,120,4.0,105.0
2323,84.0,120,409,3.0,105.0
2324,45.0,0,240,4.0,105.0
2325,81.0,120,120,4.0,105.0
2326,57.0,0,240,4.0,105.0
2327,67.0,120,120,4.0,105.0
2328,83.0,0,219,3.0,105.0
2329,43.0,0,240,4.0,105.0
2330,79.0,120,120,4.0,105.0
2331,55.0,0,240,4.0,105.0
2332,65.0,120,120,4.0,105.0
2333,69.0,120,120,4.0,105.0
2334,65.0,0,319,3.0,105.0
2335,72.0,0,120,4.0,105.0
2336,41.0,120,0,4.0,105.0
2337,53.0,0,480,4.0,105.0
2338,77.0,120,120,4.0,105.0
2339,65.0,0,120,4.0,105.0
2340,81.0,120,399,3.0,105.0
2341,77.0,120,120,4.0,105.0
2342,53.0,0,240,4.0,105.0
2343,64.0,0,120,4.0,105.0
2344,79.0,0,214,3.0,105.0
2345,40.0,120,240,4.0,105.0
2346,52.0,0,240,4.0,105.0
2347,76.0,120,120,4.0,105.0
2348,62.0,120,120,4.0,105.0
2349,77.0,0,129,3.0,105.0
2350,74.0,120,120,4.0,105.0
2351,50.0,0,240,4.0,105.0
2352,38.0,0,240,4.0,105.0
2353,48.0,120,96,4.0,105.0
2354,76.0,0,119,3.0,105.0
2355,60.0,0,120,4.0,105.0
2356,72.0,120,120,4.0,105.0
2357,47.0,0,96,4.0,105.0
2358,59.0,120,120,4.0,105.0
2359,74.0,0,149,3.0,105.0
2360,71.0,120,120,4.0,105.0
2361,45.0,0,96,4.0,105.0
2362,57.0,0,120,4.0,105.0
2363,72.0,120,129,3.0,105.0
2364,69.0,120,120,4.0,105.0
2365,55.0,0,0,4.0,105.0
2366,43.0,240,0,4.0,105.0
2367,59.0,120,120,4.0,105.0
2368,57.0,120,120,4.0,105.0
2369,60.0,120,120,4.0,105.0
2370,45.0,0,240,4.0,105.0
2371,59.0,120,120,4.0,105.0
2372,62.0,120,120,4.0,105.0
2373,47.0,0,240,4.0,105.0
2374,60.0,120,120,4.0,105.0
2375,48.0,0,240,4.0,105.0
2376,64.0,120,120,4.0,105.0
2377,62.0,120,120,4.0,105.0
2378,65.0,120,120,4.0,105.0
2379,50.0,0,240,4.0,105.0
2380,64.0,120,120,4.0,105.0
2381,67.0,120,120,4.0,105.0
2382,52.0,0,240,4.0,105.0
2383,66.0,120,120,4.0,105.0
2384,69.0,120,120,4.0,105.0
2385,54.0,0,240,4.0,105.0
2386,67.0,120,240,4.0,105.0
2387,79.0,0,0,3.0,105.0
2388,55.0,0,240,4.0,105.0
2389,67.0,220,96,5.0,70.0
2390,55.0,4,96,6.0,70.0
2391,55.0,4,96,7.0,70.0
2392,67.0,12,120,4.0,105.0
2393,43.0,0,120,4.0,105.0
2394,55.0,0,120,4.0,105.0
2395,71.0,120,120,4.0,105.0
2396,69.0,100,96,5.0,70.0
2397,57.0,4,96,6.0,70.0
2398,57.0,4,96,7.0,70.0
2399,81.0,12,96,3.0,105.0
2400,45.0,0,120,4.0,105.0
2401,69.0,0,120,4.0,105.0
2402,72.0,120,120,4.0,105.0
2403,57.0,0,120,4.0,105.0
2404,71.0,100,96,5.0,70.0
2405,59.0,4,96,6.0,70.0
2406,59.0,4,96,7.0,70.0
2407,83.0,0,96,3.0,105.0
2408,71.0,0,120,4.0,105.0
2409,47.0,12,120,4.0,105.0
2410,74.0,120,120,4.0,105.0
2411,59.0,0,120,4.0,105.0
2412,72.0,100,96,5.0,70.0
2413,60.0,4,96,6.0,70.0
2414,60.0,4,96,7.0,70.0
2415,84.0,0,96,3.0,105.0
2416,48.0,12,120,4.0,105.0
2417,72.0,0,120,4.0,105.0
2418,60.0,0,120,4.0,105.0
2419,76.0,120,120,4.0,105.0
2420,74.0,100,96,5.0,68.0
2421,62.0,4,96,6.0,70.0
2422,62.0,4,96,7.0,70.0
2423,86.0,12,96,3.0,105.0
2424,50.0,0,120,4.0,105.0
2425,74.0,0,120,4.0,105.0
2426,77.0,120,120,4.0,105.0
2427,62.0,0,120,4.0,105.0
2428,76.0,100,96,5.0,69.0
2429,64.0,4,96,6.0,70.0
2430,64.0,4,96,7.0,70.0
2431,88.0,0,96,3.0,105.0
2432,76.0,0,120,4.0,105.0
2433,52.0,12,120,4.0,105.0
2434,79.0,120,120,4.0,105.0
2435,64.0,0,120,4.0,105.0
2436,78.0,100,96,5.0,71.0
2437,66.0,4,96,6.0,73.0
2438,66.0,4,96,7.0,74.0
2439,90.0,12,96,3.0,105.0
2440,78.0,0,120,4.0,105.0
2441,54.0,0,120,4.0,105.0
2442,81.0,0,120,4.0,105.0
2443,66.0,120,120,4.0,105.0
2444,79.0,100,240,5.0,85.0
2445,67.0,4,240,6.0,80.0
2446,81.0,220,28,5.0,97.0
2447,79.0,28,32,5.0,97.0
2448,81.0,32,28,5.0,99.0
2449,79.0,28,32,5.0,99.0
2450,78.0,32,60,5.0,99.0
2451,79.0,60,60,5.0,101.0
2452,67.0,4,480,7.0,82.0
2453,79.0,0,480,4.0,105.0
2454,55.0,12,480,4.0,105.0
2455,67.0,0,480,4.0,105.0
2456,91.0,0,480,3.0,105.0
2457,83.0,60,240,5.0,103.0
2458,79.0,240,96,5.0,105.0
2459,74.0,240,96,5.0,105.0
2460,79.0,240,96,5.0,105.0
2461,71.0,240,96,5.0,105.0
2462,74.0,240,96,5.0,105.0
2463,67.0,240,259,5.0,105.0
2464,69.0,240,82,5.0,105.0
2465,67.0,8,96,7.0,105.0
2466,55.0,4,96,8.0,105.0
2467,43.0,8,96,10.0,105.0
2468,67.0,40,82,5.0,106.0
2469,66.0,60,82,5.0,102.0
2470,67.0,60,82,5.0,102.0
2471,71.0,8,96,7.0,105.0
2472,59.0,4,96,8.0,105.0
2473,47.0,8,96,10.0,105.0
2474,71.0,60,189,5.0,108.0
2475,67.0,220,96,5.0,105.0
2476,67.0,8,96,7.0,105.0
2477,55.0,4,96,8.0,105.0
2478,43.0,8,96,10.0,105.0
2479,62.0,220,96,5.0,105.0
2480,62.0,8,96,7.0,105.0
2481,50.0,4,96,8.0,105.0
2482,38.0,8,96,10.0,105.0
2483,67.0,220,96,5.0,105.0
2484,67.0,8,96,7.0,105.0
2485,55.0,4,96,8.0,105.0
2486,43.0,8,96,10.0,105.0
2487,59.0,220,96,5.0,105.0
2488,59.0,8,96,7.0,105.0
2489,47.0,4,96,8.0,105.0
2490,35.0,8,96,10.0,105.0
2491,62.0,220,96,5.0,105.0
2492,62.0,8,96,7.0,105.0
2493,50.0,4,96,8.0,105.0
2494,38.0,8,96,10.0,105.0
2495,74.0,180,109,3.0,105.0
2496,55.0,40,480,5.0,105.0
2497,55.0,8,480,7.0,105.0
2498,43.0,4,480,8.0,105.0
2499,31.0,0,480,10.0,105.0
2500,86.0,8,929,3.0,105.0
2501,83.0,960,240,3.0,105.0
2502,84.0,240,60,3.0,105.0
2503,83.0,60,60,3.0,105.0
2504,81.0,60,169,3.0,105.0
2505,83.0,120,209,3.0,105.0
2506,84.0,240,114,3.0,105.0
2507,43.0,0,120,4.0,105.0
2508,47.0,120,120,4.0,105.0
2509,88.0,240,289,3.0,105.0
2510,50.0,120,120,4.0,105.0
2511,86.0,0,159,3.0,105.0
2512,55.0,120,120,4.0,105.0
2513,71.0,0,120,4.0,105.0
2514,74.0,120,120,4.0,105.0
2515,71.0,120,120,4.0,105.0
2516,67.0,120,120,4.0,105.0
2517,43.0,120,120,4.0,105.0
2518,47.0,120,120,4.0,105.0
2519,50.0,120,120,4.0,105.0
2520,86.0,120,879,3.0,105.0
2521,55.0,120,120,4.0,105.0
2522,71.0,0,120,4.0,105.0
2523,84.0,120,120,3.0,105.0
2524,83.0,0,120,3.0,105.0
2525,74.0,120,120,4.0,105.0
2526,81.0,120,120,3.0,105.0
2527,71.0,0,120,4.0,105.0
2528,79.0,120,99,3.0,105.0
2529,67.0,0,120,4.0,105.0
2530,43.0,120,120,4.0,105.0
2531,48.0,120,120,4.0,105.0
2532,79.0,0,294,3.0,105.0
2533,52.0,120,120,4.0,105.0
2534,88.0,0,189,3.0,105.0
2535,55.0,120,120,4.0,105.0
2536,72.0,0,120,4.0,105.0
2537,76.0,120,120,4.0,105.0
2538,72.0,120,120,4.0,105.0
2539,67.0,120,120,4.0,105.0
2540,43.0,120,120,4.0,105.0
2541,48.0,120,120,4.0,105.0
2542,52.0,120,120,4.0,105.0
2543,55.0,120,120,4.0,105.0
2544,72.0,120,120,4.0,105.0
2545,76.0,120,120,4.0,105.0
2546,72.0,120,120,4.0,105.0
2547,88.0,120,1440,3.0,105.0
2548,67.0,120,120,4.0,105.0
2549,43.0,0,120,4.0,105.0
2550,55.0,120,120,4.0,105.0
2551,71.0,0,120,4.0,105.0
2552,67.0,120,120,4.0,105.0
2553,86.0,120,480,3.0,105.0
2554,62.0,120,120,4.0,105.0
2555,40.0,0,120,4.0,105.0
2556,67.0,120,120,4.0,105.0
2557,52.0,0,120,4.0,105.0
2558,62.0,120,120,4.0,105.0
2559,79.0,120,480,3.0,105.0
2560,59.0,120,120,4.0,105.0
2561,36.0,120,120,4.0,105.0
2562,69.0,0,120,4.0,105.0
2563,48.0,120,120,4.0,105.0
2564,67.0,120,120,4.0,105.0
2565,64.0,120,120,4.0,105.0
2566,38.0,120,120,4.0,105.0
2567,69.0,0,120,4.0,105.0
2568,50.0,120,120,4.0,105.0
2569,81.0,0,769,3.0,105.0
2570,66.0,120,120,4.0,105.0
2571,83.0,0,164,3.0,105.0
2572,84.0,120,99,3.0,105.0
2573,62.0,0,120,4.0,105.0
2574,86.0,120,120,4.0,105.0
2575,83.0,120,120,4.0,105.0
2576,43.0,0,480,4.0,105.0
2577,79.0,120,120,4.0,105.0
2578,83.0,120,480,3.0,105.0
2579,74.0,120,120,4.0,105.0
2580,83.0,120,120,4.0,105.0
2581,79.0,120,120,4.0,105.0
2582,74.0,120,120,4.0,105.0
2583,71.0,120,120,4.0,105.0
2584,79.0,120,120,4.0,105.0
2585,74.0,120,120,4.0,105.0
2586,71.0,120,120,4.0,105.0
2587,67.0,120,120,4.0,105.0
2588,74.0,120,120,4.0,105.0
2589,71.0,120,120,4.0,105.0
2590,67.0,120,120,4.0,105.0
2591,43.0,120,120,4.0,105.0
2592,47.0,120,120,4.0,105.0
2593,50.0,120,120,4.0,105.0
2594,55.0,120,120,4.0,105.0
2595,62.0,120,120,4.0,105.0
2596,67.0,120,120,4.0,105.0
2597,62.0,120,120,4.0,105.0
2598,59.0,120,120,4.0,105.0
2599,43.0,120,120,4.0,105.0
2600,47.0,120,120,4.0,105.0
2601,74.0,0,1200,3.0,105.0
2602,50.0,120,120,4.0,105.0
2603,76.0,0,120,3.0,105.0
2604,74.0,0,120,3.0,105.0
2605,55.0,120,120,4.0,105.0
2606,62.0,120,120,4.0,105.0
2607,72.0,0,120,3.0,105.0
2608,71.0,0,120,3.0,105.0
2609,67.0,120,120,4.0,105.0
2610,69.0,120,120,3.0,105.0
2611,62.0,0,120,4.0,105.0
2612,67.0,120,89,3.0,105.0
2613,59.0,0,120,4.0,105.0
2614,43.0,0,120,4.0,105.0
2615,48.0,120,120,4.0,105.0
2616,67.0,120,279,3.0,105.0
2617,52.0,0,120,4.0,105.0
2618,76.0,120,219,3.0,105.0
2619,55.0,120,120,4.0,105.0
2620,64.0,0,120,4.0,105.0
2621,67.0,120,120,4.0,105.0
2622,64.0,120,120,4.0,105.0
2623,60.0,120,120,4.0,105.0
2624,43.0,120,120,4.0,105.0
2625,76.0,120,679,3.0,105.0
2626,48.0,120,120,4.0,105.0
2627,52.0,0,120,4.0,105.0
2628,55.0,120,120,4.0,105.0
2629,79.0,120,309,3.0,105.0
2630,64.0,0,120,4.0,105.0
2631,67.0,120,120,4.0,105.0
2632,78.0,120,309,3.0,105.0
2633,64.0,0,120,4.0,105.0
2634,76.0,120,189,3.0,105.0
2635,60.0,120,120,4.0,105.0
2636,43.0,0,120,4.0,105.0
2637,55.0,0,120,4.0,105.0
2638,59.0,120,120,4.0,105.0
2639,76.0,120,284,3.0,105.0
2640,62.0,120,120,4.0,105.0
2641,74.0,0,209,3.0,105.0
2642,67.0,120,120,4.0,105.0
2643,40.0,120,120,4.0,105.0
2644,72.0,0,174,3.0,105.0
2645,52.0,0,120,4.0,105.0
2646,59.0,120,120,4.0,105.0
2647,71.0,0,149,3.0,105.0
2648,64.0,0,120,4.0,105.0
2649,69.0,120,169,3.0,105.0
2650,67.0,0,109,3.0,105.0
2651,67.0,120,120,4.0,105.0
2652,36.0,0,120,4.0,105.0
2653,48.0,0,120,4.0,105.0
2654,57.0,120,120,4.0,105.0
2655,64.0,120,120,4.0,105.0
2656,67.0,120,120,4.0,105.0
2657,38.0,120,120,4.0,105.0
2658,50.0,0,120,4.0,105.0
2659,57.0,120,120,4.0,105.0
2660,69.0,120,759,3.0,105.0
2661,62.0,120,120,4.0,105.0
2662,71.0,0,169,3.0,105.0
2663,72.0,0,94,3.0,105.0
2664,66.0,120,120,4.0,105.0
2665,71.0,16,120,3.0,105.0
2666,67.0,100,168,5.0,70.0
2667,55.0,4,168,6.0,70.0
2668,74.0,120,120,3.0,105.0
2669,76.0,16,120,3.0,105.0
2670,67.0,100,168,5.0,70.0
2671,55.0,4,168,6.0,70.0
2672,78.0,120,120,3.0,105.0
2673,67.0,0,480,4.0,105.0
2674,43.0,0,480,4.0,105.0
2675,79.0,16,120,3.0,105.0
2676,67.0,100,168,5.0,70.0
2677,55.0,4,168,6.0,70.0
2678,81.0,120,120,3.0,105.0
2679,83.0,16,120,3.0,105.0
2680,67.0,100,168,5.0,70.0
2681,55.0,4,168,6.0,70.0
2682,84.0,120,120,3.0,105.0
2683,67.0,100,168,5.0,70.0
2684,59.0,4,168,6.0,70.0
2685,86.0,16,204,3.0,105.0
2686,67.0,220,168,5.0,70.0
2687,59.0,4,168,6.0,70.0
2688,67.0,220,168,5.0,70.0
2689,59.0,4,168,6.0,70.0
2690,86.0,16,480,3.0,105.0
2691,84.0,16,114,3.0,105.0
2692,67.0,236,168,5.0,70.0
2693,59.0,4,168,6.0,70.0
2694,83.0,120,94,3.0,105.0
2695,64.0,100,168,5.0,70.0
2696,60.0,4,168,6.0,70.0
2697,83.0,16,309,3.0,105.0
2698,64.0,220,168,5.0,70.0
2699,60.0,4,168,6.0,70.0
2700,81.0,16,209,3.0,105.0
2701,64.0,220,168,5.0,70.0
2702,60.0,4,168,6.0,70.0
2703,64.0,220,168,5.0,70.0
2704,60.0,4,168,6.0,70.0
2705,76.0,236,168,5.0,70.0
2706,60.0,4,168,6.0,70.0
2707,81.0,16,720,3.0,105.0
2708,83.0,16,120,3.0,105.0
2709,76.0,236,168,5.0,70.0
2710,60.0,4,168,6.0,70.0
2711,81.0,120,120,3.0,105.0
2712,81.0,16,120,3.0,105.0
2713,76.0,100,168,5.0,70.0
2714,61.0,4,168,6.0,70.0
2715,79.0,120,120,3.0,105.0
2716,78.0,16,120,3.0,105.0
2717,76.0,100,168,5.0,70.0
2718,61.0,4,168,6.0,70.0
2719,79.0,120,120,3.0,105.0
2720,50.0,4,240,7.0,70.0
2721,38.0,12,240,4.0,105.0
2722,84.0,120,120,4.0,105.0
2723,50.0,0,240,4.0,105.0
2724,62.0,4,295,6.0,70.0
2725,81.0,16,120,4.0,105.0
2726,78.0,0,480,3.0,105.0
2727,78.0,120,120,4.0,105.0
2728,84.0,100,539,5.0,70.0
2729,66.0,104,295,6.0,70.0
2730,81.0,100,184,5.0,70.0
2731,62.0,4,240,7.0,70.0
2732,72.0,12,240,4.0,105.0
2733,81.0,120,120,4.0,105.0
2734,69.0,4,295,6.0,70.0
2735,78.0,16,120,4.0,105.0
2736,74.0,120,120,4.0,105.0
2737,66.0,104,295,6.0,70.0
2738,66.0,4,240,7.0,70.0
2739,69.0,12,240,4.0,105.0
2740,78.0,120,120,4.0,105.0
2741,62.0,4,295,6.0,70.0
2742,74.0,16,120,4.0,105.0
2743,72.0,120,120,4.0,105.0
2744,66.0,104,295,6.0,70.0
2745,81.0,100,549,5.0,70.0
2746,78.0,100,209,5.0,70.0
2747,62.0,4,240,7.0,70.0
2748,74.0,120,120,4.0,105.0
2749,66.0,12,240,4.0,105.0
2750,69.0,4,295,6.0,70.0
2751,72.0,16,120,4.0,105.0
2752,66.0,104,169,6.0,70.0
2753,69.0,120,120,4.0,105.0
2754,60.0,4,240,7.0,70.0
2755,72.0,120,120,4.0,105.0
2756,62.0,12,240,4.0,105.0
2757,62.0,4,295,6.0,70.0
2758,69.0,16,120,4.0,105.0
2759,66.0,120,120,4.0,105.0
2760,78.0,100,539,5.0,70.0
2761,66.0,104,295,6.0,70.0
2762,74.0,100,199,5.0,70.0
2763,57.0,4,240,7.0,70.0
2764,60.0,12,240,4.0,105.0
2765,69.0,120,120,4.0,105.0
2766,69.0,4,295,6.0,70.0
2767,66.0,16,120,4.0,105.0
2768,62.0,120,120,4.0,105.0
2769,66.0,104,295,6.0,70.0
2770,54.0,4,240,7.0,70.0
2771,66.0,120,120,4.0,105.0
2772,57.0,12,240,4.0,105.0
2773,62.0,4,295,6.0,70.0
2774,62.0,16,120,4.0,105.0
2775,60.0,120,120,4.0,105.0
2776,72.0,100,529,5.0,70.0
2777,66.0,104,295,6.0,70.0
2778,69.0,100,199,5.0,70.0
2779,62.0,4,240,7.0,70.0
2780,54.0,12,240,4.0,105.0
2781,62.0,120,120,4.0,105.0
2782,69.0,4,295,6.0,70.0
2783,60.0,16,120,4.0,105.0
2784,66.0,104,189,6.0,70.0
2785,62.0,0,214,3.0,105.0
2786,57.0,120,120,4.0,105.0
2787,43.0,4,240,8.0,70.0
2788,31.0,0,240,10.0,70.0
2789,59.0,120,120,4.0,105.0
2790,55.0,8,240,4.0,105.0
2791,43.0,0,240,4.0,105.0
2792,62.0,120,120,4.0,105.0
2793,71.0,100,480,5.0,70.0
2794,67.0,4,480,6.0,70.0
2795,55.0,0,480,7.0,70.0
2796,62.0,4,480,7.0,70.0
2797,59.0,120,120,4.0,105.0
2798,72.0,100,28,5.0,78.0
2799,69.0,4,28,6.0,80.0
2800,71.0,8,32,5.0,78.0
2801,67.0,4,32,6.0,81.0
2802,72.0,28,28,5.0,78.0
2803,86.0,0,549,3.0,115.0
2804,69.0,4,28,6.0,81.0
2805,71.0,24,32,5.0,75.0
2806,67.0,4,32,6.0,81.0
2807,67.0,0,120,4.0,105.0
2808,83.0,0,179,3.0,105.0
2809,55.0,8,240,8.0,70.0
2810,43.0,8,240,10.0,70.0
2811,62.0,16,120,4.0,105.0
2812,69.0,28,154,5.0,74.0
2813,66.0,4,169,6.0,78.0
2814,71.0,16,120,4.0,105.0
2815,67.0,4,154,6.0,74.0
2816,71.0,100,169,5.0,75.0
2817,67.0,16,120,4.0,105.0
2818,69.0,4,169,6.0,75.0
2819,72.0,100,174,5.0,78.0
2820,62.0,8,240,8.0,70.0
2821,50.0,8,240,10.0,70.0
2822,74.0,0,240,4.0,105.0
2823,62.0,120,120,4.0,105.0
2824,67.0,120,120,4.0,105.0
2825,74.0,100,480,5.0,83.0
2826,71.0,4,480,6.0,83.0
2827,62.0,120,120,4.0,105.0
2828,83.0,0,569,3.0,117.0
2829,71.0,0,120,4.0,105.0
2830,79.0,8,199,3.0,105.0
2831,59.0,112,240,8.0,70.0
2832,47.0,0,240,10.0,70.0
2833,67.0,120,120,4.0,105.0
2834,74.0,120,120,4.0,105.0
2835,71.0,120,120,4.0,105.0
2836,55.0,8,240,8.0,70.0
2837,67.0,120,120,4.0,105.0
2838,43.0,8,240,10.0,70.0
2839,79.0,0,240,4.0,105.0
2840,71.0,120,120,4.0,105.0
2841,83.0,100,480,5.0,70.0
2842,79.0,4,480,6.0,70.0
2843,67.0,120,120,4.0,105.0
2844,84.0,100,28,5.0,85.0
2845,81.0,4,28,6.0,86.0
2846,83.0,8,32,5.0,86.0
2847,79.0,4,32,6.0,86.0
2848,84.0,28,28,5.0,89.0
2849,81.0,4,28,6.0,86.0
2850,79.0,0,574,3.0,117.0
2851,83.0,24,32,5.0,89.0
2852,79.0,4,32,6.0,87.0
2853,74.0,8,120,4.0,105.0
2854,74.0,0,179,3.0,105.0
2855,59.0,8,240,8.0,70.0
2856,71.0,16,120,4.0,105.0
2857,47.0,0,240,10.0,70.0
2858,81.0,28,164,5.0,87.0
2859,78.0,4,169,6.0,84.0
2860,79.0,16,120,4.0,105.0
2861,79.0,4,149,6.0,80.0
2862,83.0,100,169,5.0,83.0
2863,84.0,100,120,5.0,84.0
2864,81.0,4,120,6.0,81.0
2865,74.0,16,120,4.0,105.0
2866,55.0,8,240,8.0,70.0
2867,74.0,120,120,4.0,105.0
2868,43.0,0,240,10.0,70.0
2869,83.0,0,240,4.0,105.0
2870,79.0,120,120,4.0,105.0
2871,86.0,100,480,5.0,92.0
2872,83.0,4,480,6.0,88.0
2873,74.0,120,120,4.0,105.0
2874,71.0,8,564,3.0,115.0
2875,83.0,8,120,4.0,105.0
2876,67.0,0,189,3.0,105.0
2877,43.0,112,240,8.0,70.0
2878,31.0,0,240,10.0,70.0
2879,79.0,120,120,4.0,105.0
2880,86.0,120,120,4.0,105.0
2881,83.0,120,120,4.0,105.0
2882,50.0,4,240,7.0,70.0
2883,38.0,0,240,4.0,105.0
2884,50.0,0,240,4.0,105.0
2885,84.0,120,120,4.0,105.0
2886,62.0,4,295,6.0,70.0
2887,81.0,16,120,4.0,105.0
2888,50.0,4,480,8.0,70.0
2889,62.0,0,480,3.0,105.0
2890,38.0,8,480,10.0,70.0
2891,78.0,120,120,4.0,105.0
2892,84.0,100,539,5.0,70.0
2893,66.0,104,295,6.0,70.0
2894,81.0,100,169,5.0,70.0
2895,62.0,4,240,7.0,70.0
2896,72.0,12,240,4.0,105.0
2897,81.0,120,120,4.0,105.0
2898,69.0,4,295,6.0,70.0
2899,78.0,16,120,4.0,105.0
2900,74.0,120,120,4.0,105.0
2901,66.0,104,295,6.0,70.0
2902,66.0,4,240,7.0,70.0
2903,78.0,120,120,4.0,105.0
2904,69.0,12,240,4.0,105.0
2905,62.0,4,295,6.0,70.0
2906,74.0,16,120,4.0,105.0
2907,72.0,120,120,4.0,105.0
2908,66.0,104,295,6.0,70.0
2909,81.0,100,549,5.0,70.0
2910,78.0,100,169,5.0,70.0
2911,62.0,4,240,7.0,70.0
2912,66.0,12,240,4.0,105.0
2913,74.0,120,120,4.0,105.0
2914,69.0,4,295,6.0,70.0
2915,72.0,16,120,4.0,105.0
2916,66.0,104,194,6.0,70.0
2917,69.0,120,120,4.0,105.0
2918,60.0,4,240,7.0,70.0
2919,62.0,12,240,4.0,105.0
2920,72.0,120,120,4.0,105.0
2921,62.0,4,295,6.0,70.0
2922,69.0,16,120,4.0,105.0
2923,66.0,120,120,4.0,105.0
2924,66.0,104,295,6.0,70.0
2925,78.0,100,539,5.0,70.0
2926,74.0,100,194,5.0,70.0
2927,57.0,4,240,7.0,70.0
2928,69.0,120,120,4.0,105.0
2929,60.0,0,240,4.0,105.0
2930,69.0,4,295,6.0,70.0
2931,66.0,16,120,4.0,105.0
2932,62.0,120,120,4.0,105.0
2933,66.0,104,295,6.0,70.0
2934,62.0,12,539,3.0,105.0
2935,74.0,0,66,3.0,105.0
2936,54.0,4,240,7.0,70.0
2937,57.0,12,240,4.0,105.0
2938,66.0,120,120,4.0,105.0
2939,62.0,4,295,6.0,70.0
2940,76.0,16,66,3.0,105.0
2941,62.0,0,120,4.0,105.0
2942,78.0,0,66,3.0,105.0
2943,60.0,120,120,4.0,105.0
2944,72.0,100,534,5.0,70.0
2945,66.0,104,295,6.0,70.0
2946,79.0,12,66,3.0,105.0
2947,69.0,100,179,5.0,70.0
2948,81.0,120,66,3.0,105.0
2949,62.0,4,240,7.0,70.0
2950,62.0,0,120,4.0,105.0
2951,54.0,0,240,4.0,105.0
2952,69.0,4,295,6.0,70.0
2953,83.0,16,66,3.0,105.0
2954,60.0,0,120,4.0,105.0
2955,66.0,104,189,6.0,70.0
2956,84.0,0,66,3.0,105.0
2957,57.0,120,120,4.0,105.0
2958,43.0,4,240,8.0,70.0
2959,55.0,0,240,4.0,105.0
2960,43.0,0,240,4.0,105.0
2961,31.0,8,240,10.0,70.0
2962,59.0,120,120,4.0,105.0
2963,62.0,120,120,4.0,105.0
2964,71.0,100,480,5.0,70.0
2965,67.0,4,480,6.0,70.0
2966,55.0,4,480,7.0,70.0
2967,59.0,120,120,4.0,105.0
2968,72.0,100,28,5.0,83.0
2969,69.0,4,28,6.0,83.0
2970,71.0,8,32,5.0,83.0
2971,67.0,4,32,6.0,84.0
2972,86.0,0,534,3.0,121.0
2973,72.0,28,28,5.0,85.0
2974,69.0,4,28,6.0,82.0
2975,71.0,24,32,5.0,85.0
2976,67.0,4,32,6.0,81.0
2977,67.0,8,120,4.0,105.0
2978,83.0,0,169,3.0,105.0
2979,55.0,8,240,8.0,70.0
2980,62.0,16,120,4.0,105.0
2981,43.0,0,240,10.0,70.0
2982,69.0,28,144,5.0,80.0
2983,66.0,4,174,6.0,80.0
2984,71.0,16,120,4.0,105.0
2985,71.0,100,154,5.0,80.0
2986,67.0,4,154,6.0,79.0
2987,67.0,16,120,4.0,105.0
2988,69.0,4,159,6.0,79.0
2989,72.0,100,169,5.0,82.0
2990,62.0,8,240,8.0,70.0
2991,50.0,0,240,10.0,70.0
2992,62.0,120,120,4.0,105.0
2993,74.0,8,240,4.0,105.0
2994,67.0,120,120,4.0,105.0
2995,74.0,100,480,5.0,90.0
2996,71.0,4,480,6.0,79.0
2997,62.0,120,120,4.0,105.0
2998,83.0,0,559,3.0,117.0
2999,71.0,0,120,4.0,105.0
3000,79.0,8,189,3.0,105.0
3001,59.0,112,240,8.0,70.0
3002,47.0,0,240,10.0,70.0
3003,67.0,120,120,4.0,105.0
3004,74.0,120,120,4.0,105.0
3005,71.0,120,120,4.0,105.0
3006,55.0,8,240,8.0,70.0
3007,79.0,0,240,4.0,105.0
3008,67.0,120,120,4.0,105.0
3009,43.0,0,240,10.0,70.0
3010,71.0,120,120,4.0,105.0
3011,83.0,100,480,5.0,70.0
3012,79.0,4,480,6.0,70.0
3013,67.0,120,120,4.0,105.0
3014,84.0,100,28,5.0,84.0
3015,81.0,4,28,6.0,81.0
3016,83.0,8,32,5.0,83.0
3017,79.0,4,32,6.0,81.0
3018,84.0,28,28,5.0,82.0
3019,81.0,4,28,6.0,85.0
3020,79.0,8,559,3.0,119.0
3021,83.0,24,32,5.0,80.0
3022,79.0,4,32,6.0,85.0
3023,74.0,0,120,4.0,105.0
3024,74.0,0,179,3.0,105.0
3025,59.0,8,240,8.0,70.0
3026,47.0,8,240,10.0,70.0
3027,71.0,16,120,4.0,105.0
3028,78.0,4,149,6.0,84.0
3029,81.0,28,169,5.0,79.0
3030,79.0,16,120,4.0,105.0
3031,83.0,100,159,5.0,78.0
3032,79.0,4,159,6.0,75.0
3033,84.0,100,120,5.0,80.0
3034,81.0,4,120,6.0,75.0
3035,74.0,16,120,4.0,105.0
3036,55.0,8,240,8.0,70.0
3037,83.0,0,240,4.0,105.0
3038,43.0,8,240,10.0,70.0
3039,74.0,120,120,4.0,105.0
3040,79.0,120,120,4.0,105.0
3041,86.0,100,480,5.0,86.0
3042,83.0,4,480,6.0,82.0
3043,74.0,120,120,4.0,105.0
3044,71.0,0,549,3.0,120.0
3045,83.0,0,120,4.0,105.0
3046,67.0,0,174,3.0,105.0
3047,43.0,112,240,8.0,70.0
3048,31.0,8,240,10.0,70.0
3049,79.0,120,120,4.0,105.0
3050,86.0,120,120,4.0,105.0
3051,83.0,120,120,4.0,105.0
3052,62.0,4,240,7.0,105.0
3053,50.0,2,240,8.0,105.0
3054,38.0,0,240,10.0,105.0
3055,74.0,2,280,0.0,93.0
3056,81.0,2,192,0.0,93.0
3057,62.0,100,480,5.0,105.0
3058,62.0,4,480,6.0,105.0
3059,66.0,228,240,7.0,105.0
3060,54.0,2,240,8.0,105.0
3061,81.0,0,480,4.0,105.0
3062,42.0,8,240,10.0,105.0
3063,50.0,0,480,4.0,105.0
3064,62.0,0,480,3.0,105.0
3065,78.0,0,480,4.0,105.0
3066,62.0,0,480,4.0,105.0
3067,62.0,8,480,2.0,105.0
3068,69.0,228,240,7.0,105.0
3069,84.0,0,240,0.0,98.0
3070,78.0,2,240,1.0,98.0
3071,57.0,2,240,8.0,105.0
3072,45.0,8,240,10.0,105.0
3073,74.0,220,168,5.0,105.0
3074,81.0,0,168,5.0,105.0
3075,78.0,4,168,6.0,105.0
3076,69.0,0,168,6.0,105.0
3077,62.0,4,240,7.0,105.0
3078,78.0,0,240,1.0,98.0
3079,84.0,2,240,0.0,98.0
3080,50.0,2,240,8.0,105.0
3081,62.0,8,0,2.0,105.0
3082,38.0,0,240,10.0,105.0
3083,83.0,220,168,5.0,105.0
3084,74.0,0,168,5.0,105.0
3085,71.0,4,168,6.0,105.0
3086,79.0,0,168,6.0,105.0
3087,67.0,4,240,7.0,105.0
3088,55.0,2,240,8.0,105.0
3089,43.0,0,240,10.0,105.0
3090,55.0,0,0,2.0,105.0
3091,62.0,0,0,2.0,105.0
3092,74.0,220,168,5.0,105.0
3093,83.0,0,168,5.0,105.0
3094,71.0,0,168,6.0,105.0
3095,79.0,4,168,6.0,105.0
3096,62.0,4,240,7.0,105.0
3097,83.0,2,480,0.0,98.0
3098,79.0,0,480,1.0,98.0
3099,50.0,4,240,8.0,105.0
3100,38.0,8,240,10.0,105.0
3101,62.0,0,0,2.0,105.0
3102,55.0,8,0,2.0,105.0
3103,83.0,0,168,5.0,105.0
3104,74.0,220,168,5.0,105.0
3105,71.0,0,168,6.0,105.0
3106,79.0,4,168,6.0,105.0
3107,59.0,4,240,7.0,105.0
3108,47.0,4,240,8.0,105.0
3109,35.0,0,240,10.0,105.0
3110,83.0,220,168,5.0,105.0
3111,74.0,0,168,5.0,105.0
3112,79.0,0,168,6.0,105.0
3113,71.0,4,168,6.0,105.0
3114,55.0,4,240,7.0,105.0
3115,83.0,0,240,0.0,98.0
3116,79.0,2,240,1.0,98.0
3117,43.0,2,240,8.0,105.0
3118,62.0,8,240,2.0,105.0
3119,55.0,0,240,2.0,105.0
3120,31.0,0,240,10.0,105.0
3121,81.0,0,200,0.0,98.0
3122,62.0,4,240,7.0,105.0
3123,50.0,2,240,8.0,105.0
3124,38.0,0,240,10.0,105.0
3125,78.0,2,280,1.0,98.0
3126,81.0,0,480,5.0,105.0
3127,74.0,220,480,5.0,105.0
3128,78.0,4,480,6.0,105.0
3129,69.0,0,480,6.0,105.0
3130,66.0,228,240,7.0,105.0
3131,54.0,4,240,8.0,105.0
3132,81.0,6,240,0.0,98.0
3133,42.0,2,240,10.0,105.0
3134,62.0,8,480,2.0,105.0
3135,78.0,0,128,1.0,98.0
3136,84.0,2,128,0.0,98.0
3137,69.0,228,240,7.0,105.0
3138,57.0,2,240,8.0,105.0
3139,45.0,8,240,10.0,105.0
3140,84.0,2,104,0.0,98.0
3141,78.0,0,120,1.0,98.0
3142,81.0,220,168,5.0,105.0
3143,74.0,0,168,5.0,105.0
3144,69.0,4,168,6.0,105.0
3145,78.0,0,168,6.0,105.0
3146,62.0,4,240,7.0,105.0
3147,50.0,2,240,8.0,105.0
3148,62.0,8,0,2.0,105.0
3149,38.0,8,240,10.0,105.0
3150,74.0,220,168,5.0,105.0
3151,83.0,0,168,5.0,105.0
3152,79.0,0,168,6.0,105.0
3153,71.0,4,168,6.0,105.0
3154,67.0,4,240,7.0,105.0
3155,55.0,2,240,8.0,105.0
3156,55.0,0,240,2.0,105.0
3157,43.0,0,240,10.0,105.0
3158,74.0,220,168,5.0,105.0
3159,83.0,0,168,5.0,105.0
3160,79.0,4,168,6.0,105.0
3161,71.0,0,168,6.0,105.0
3162,74.0,4,240,7.0,105.0
3163,83.0,0,480,0.0,98.0
3164,79.0,2,480,1.0,98.0
3165,62.0,4,240,8.0,105.0
3166,55.0,8,240,2.0,105.0
3167,62.0,0,240,2.0,105.0
3168,50.0,0,240,10.0,105.0
3169,83.0,220,168,5.0,105.0
3170,74.0,0,168,5.0,105.0
3171,79.0,0,168,6.0,105.0
3172,71.0,4,168,6.0,105.0
3173,71.0,4,240,7.0,105.0
3174,59.0,4,240,8.0,105.0
3175,55.0,0,0,2.0,105.0
3176,47.0,0,240,10.0,105.0
3177,62.0,0,0,2.0,105.0
3178,83.0,220,168,5.0,105.0
3179,74.0,0,168,5.0,105.0
3180,79.0,0,168,6.0,105.0
3181,71.0,4,168,6.0,105.0
3182,67.0,4,240,7.0,105.0
3183,79.0,0,240,1.0,98.0
3184,83.0,2,240,0.0,98.0
3185,55.0,2,240,8.0,105.0
3186,43.0,8,240,10.0,105.0
3187,62.0,0,0,2.0,105.0
3188,69.0,0,383,6.0,105.0
3189,74.0,220,389,5.0,105.0
3190,78.0,4,449,6.0,105.0
3191,81.0,0,480,5.0,105.0
3192,62.0,4,480,7.0,105.0
3193,78.0,2,480,1.0,98.0
3194,81.0,0,480,0.0,98.0
3195,50.0,2,480,8.0,105.0
3196,38.0,8,480,10.0,105.0
3197,62.0,380,120,5.0,105.0
3198,86.0,20,424,5.0,105.0
3199,74.0,60,469,5.0,105.0
3200,86.0,10,480,0.0,98.0
3201,74.0,0,480,1.0,98.0
3202,62.0,2,480,8.0,105.0
3203,62.0,8,0,2.0,105.0
3204,50.0,8,480,10.0,105.0
3205,62.0,460,480,5.0,105.0
3206,62.0,0,480,1.0,98.0
3207,74.0,10,480,0.0,98.0
3208,50.0,2,480,8.0,105.0
3209,38.0,0,480,10.0,105.0
3210,71.0,940,295,5.0,70.0
3211,67.0,4,295,6.0,70.0
3212,67.0,220,295,5.0,70.0
3213,62.0,4,295,6.0,70.0
3214,71.0,236,295,5.0,70.0
3215,67.0,4,295,6.0,70.0
3216,67.0,236,295,5.0,70.0
3217,62.0,4,295,6.0,70.0
3218,71.0,236,295,5.0,70.0
3219,67.0,4,295,6.0,70.0
3220,67.0,236,295,5.0,70.0
3221,62.0,4,295,6.0,70.0
3222,71.0,236,295,5.0,70.0
3223,67.0,4,295,6.0,70.0
3224,62.0,4,189,6.0,70.0
3225,67.0,236,204,5.0,70.0
3226,79.0,16,1864,3.0,105.0
3227,72.0,236,295,5.0,70.0
3228,69.0,4,295,6.0,70.0
3229,69.0,220,295,5.0,70.0
3230,62.0,4,295,6.0,70.0
3231,72.0,236,295,5.0,70.0
3232,69.0,4,295,6.0,70.0
3233,69.0,236,295,5.0,70.0
3234,62.0,4,295,6.0,70.0
3235,72.0,236,295,5.0,70.0
3236,69.0,4,295,6.0,70.0
3237,69.0,236,295,5.0,70.0
3238,62.0,4,295,6.0,70.0
3239,72.0,236,295,5.0,70.0
3240,69.0,4,295,6.0,70.0
3241,74.0,16,1849,3.0,105.0
3242,62.0,4,189,6.0,70.0
3243,69.0,236,204,5.0,70.0
3244,59.0,0,120,4.0,105.0
3245,74.0,0,120,4.0,105.0
3246,60.0,0,120,4.0,105.0
3247,76.0,120,120,4.0,105.0
3248,59.0,120,120,4.0,105.0
3249,74.0,0,120,4.0,105.0
3250,74.0,236,480,5.0,70.0
3251,71.0,4,480,6.0,70.0
3252,55.0,4,480,8.0,70.0
3253,43.0,0,480,10.0,70.0
3254,57.0,0,120,4.0,105.0
3255,72.0,120,120,4.0,105.0
3256,67.0,8,480,3.0,105.0
3257,55.0,0,480,4.0,105.0
3258,71.0,120,480,4.0,105.0
3259,62.0,460,96,5.0,70.0
3260,74.0,8,96,3.0,105.0
3261,67.0,4,1074,7.0,70.0
3262,64.0,220,96,5.0,70.0
3263,76.0,20,96,3.0,105.0
3264,59.0,4,480,8.0,70.0
3265,47.0,0,480,10.0,70.0
3266,66.0,220,96,5.0,70.0
3267,78.0,20,96,3.0,105.0
3268,67.0,220,96,5.0,70.0
3269,79.0,20,96,3.0,105.0
3270,71.0,8,879,7.0,70.0
3271,67.0,220,295,5.0,70.0
3272,79.0,0,319,3.0,105.0
3273,57.0,4,480,8.0,70.0
3274,45.0,8,480,10.0,70.0
3275,66.0,220,295,5.0,70.0
3276,78.0,20,299,3.0,105.0
3277,64.0,220,295,5.0,70.0
3278,76.0,20,284,3.0,105.0
3279,62.0,220,169,5.0,70.0
3280,74.0,20,184,3.0,105.0
3281,69.0,8,1029,7.0,70.0
3282,62.0,220,120,5.0,72.0
3283,74.0,0,120,3.0,105.0
3284,60.0,100,120,5.0,76.0
3285,72.0,20,120,3.0,105.0
3286,59.0,100,120,5.0,76.0
3287,71.0,20,120,3.0,105.0
3288,60.0,100,120,5.0,74.0
3289,50.0,4,480,8.0,70.0
3290,38.0,8,480,10.0,70.0
3291,72.0,20,120,3.0,105.0
3292,64.0,100,240,5.0,74.0
3293,76.0,20,240,3.0,105.0
3294,62.0,4,869,7.0,70.0
3295,60.0,220,240,5.0,70.0
3296,66.0,0,960,6.0,70.0
3297,72.0,20,240,3.0,105.0
3298,57.0,4,1029,6.0,70.0
3299,86.0,0,120,4.0,105.0
3300,71.0,8,120,4.0,105.0
3301,58.0,220,240,5.0,70.0
3302,72.0,120,120,4.0,105.0
3303,88.0,0,120,4.0,105.0
3304,70.0,0,240,3.0,105.0
3305,86.0,20,120,4.0,105.0
3306,71.0,0,120,4.0,105.0
3307,59.0,100,240,5.0,70.0
3308,55.0,4,480,6.0,70.0
3309,67.0,0,480,6.0,70.0
3310,55.0,4,480,8.0,70.0
3311,71.0,0,240,3.0,105.0
3312,43.0,0,480,10.0,70.0
3313,84.0,120,120,4.0,105.0
3314,69.0,0,120,4.0,105.0
3315,59.0,220,44,5.0,70.0
3316,71.0,20,66,3.0,105.0
3317,60.0,100,44,5.0,70.0
3318,72.0,20,66,3.0,105.0
3319,67.0,0,480,4.0,105.0
3320,83.0,120,480,4.0,105.0
3321,67.0,4,1024,7.0,70.0
3322,62.0,100,96,5.0,70.0
3323,74.0,8,96,3.0,105.0
3324,64.0,220,96,5.0,70.0
3325,76.0,20,96,3.0,105.0
3326,59.0,4,480,8.0,70.0
3327,47.0,0,480,10.0,70.0
3328,66.0,220,96,5.0,70.0
3329,78.0,20,96,3.0,105.0
3330,67.0,220,96,5.0,70.0
3331,79.0,20,96,3.0,105.0
3332,71.0,8,884,7.0,70.0
3333,67.0,220,295,5.0,70.0
3334,79.0,8,299,3.0,105.0
3335,57.0,4,480,8.0,70.0
3336,45.0,0,480,10.0,70.0
3337,66.0,220,295,5.0,70.0
3338,78.0,20,319,3.0,105.0
3339,64.0,220,295,5.0,70.0
3340,76.0,20,309,3.0,105.0
3341,62.0,220,179,5.0,70.0
3342,74.0,20,179,3.0,105.0
3343,69.0,8,1024,7.0,70.0
3344,62.0,220,120,5.0,75.0
3345,74.0,0,120,3.0,105.0
3346,60.0,100,120,5.0,80.0
3347,72.0,20,120,3.0,105.0
3348,59.0,100,120,5.0,80.0
3349,71.0,20,120,3.0,105.0
3350,60.0,100,120,5.0,76.0
3351,50.0,4,480,8.0,70.0
3352,72.0,20,120,3.0,105.0
3353,38.0,8,480,10.0,70.0
3354,64.0,100,240,5.0,75.0
3355,76.0,20,240,3.0,105.0
3356,62.0,4,899,7.0,70.0
3357,60.0,220,240,5.0,70.0
3358,66.0,4,960,6.0,70.0
3359,72.0,20,240,3.0,105.0
3360,57.0,0,1029,6.0,70.0
3361,74.0,0,120,4.0,105.0
3362,59.0,8,120,4.0,105.0
3363,59.0,220,199,5.0,70.0
3364,71.0,0,184,3.0,105.0
3365,60.0,0,120,4.0,105.0
3366,76.0,120,120,4.0,105.0
3367,59.0,0,120,4.0,105.0
3368,74.0,20,120,4.0,105.0
3369,67.0,0,480,6.0,70.0
3370,55.0,4,480,6.0,70.0
3371,55.0,4,480,8.0,70.0
3372,72.0,120,120,4.0,105.0
3373,43.0,0,480,10.0,70.0
3374,57.0,0,120,4.0,105.0
3375,67.0,100,557,5.0,70.0
3376,79.0,0,599,3.0,105.0
3377,71.0,120,480,4.0,105.0
3378,55.0,0,480,4.0,105.0
3379,55.0,4,1044,7.0,70.0
3380,65.0,220,557,5.0,70.0
3381,77.0,20,584,3.0,105.0
3382,55.0,4,480,8.0,70.0
3383,43.0,8,480,10.0,70.0
3384,64.0,220,557,5.0,70.0
3385,76.0,20,564,3.0,105.0
3386,53.0,228,884,7.0,70.0
3387,79.0,0,120,4.0,105.0
3388,64.0,8,120,4.0,105.0
3389,62.0,460,394,5.0,70.0
3390,74.0,20,389,3.0,105.0
3391,81.0,0,120,4.0,105.0
3392,65.0,120,120,4.0,105.0
3393,64.0,20,120,4.0,105.0
3394,79.0,0,120,4.0,105.0
3395,55.0,4,480,8.0,70.0
3396,77.0,0,120,4.0,105.0
3397,62.0,120,120,4.0,105.0
3398,43.0,0,480,10.0,70.0
3399,60.0,100,557,5.0,70.0
3400,72.0,0,539,3.0,105.0
3401,60.0,120,480,4.0,105.0
3402,76.0,0,480,4.0,105.0
3403,52.0,228,1029,7.0,70.0
3404,67.0,220,557,5.0,70.0
3405,79.0,20,569,3.0,105.0
3406,55.0,4,480,8.0,70.0
3407,43.0,8,480,10.0,70.0
3408,65.0,220,557,5.0,70.0
3409,77.0,20,584,3.0,105.0
3410,60.0,228,899,7.0,70.0
3411,77.0,8,120,4.0,105.0
3412,62.0,0,120,4.0,105.0
3413,64.0,460,389,5.0,70.0
3414,76.0,20,419,3.0,105.0
3415,79.0,0,120,4.0,105.0
3416,64.0,120,120,4.0,105.0
3417,77.0,0,120,4.0,105.0
3418,62.0,0,120,4.0,105.0
3419,55.0,4,480,8.0,70.0
3420,76.0,0,120,4.0,105.0
3421,43.0,0,480,10.0,70.0
3422,60.0,120,120,4.0,105.0
3423,62.0,100,557,5.0,70.0
3424,74.0,20,569,3.0,105.0
3425,59.0,228,960,7.0,70.0
3426,74.0,0,480,4.0,105.0
3427,59.0,120,480,4.0,105.0
3428,67.0,220,557,5.0,70.0
3429,79.0,20,549,3.0,105.0
3430,55.0,4,480,8.0,70.0
3431,43.0,8,480,10.0,70.0
3432,77.0,20,529,3.0,105.0
3433,65.0,220,557,5.0,70.0
3434,63.0,460,184,5.0,70.0
3435,75.0,20,199,3.0,105.0
3436,55.0,0,5760,2.0,70.0
3437,71.0,228,1039,7.0,70.0
3438,64.0,220,96,5.0,73.0
3439,76.0,0,89,3.0,111.0
3440,76.0,12,120,4.0,105.0
3441,78.0,60,99,3.0,104.0
3442,60.0,0,240,4.0,105.0
3443,79.0,0,120,4.0,105.0
3444,67.0,100,96,5.0,74.0
3445,84.0,20,120,4.0,105.0
3446,79.0,60,319,3.0,101.0
3447,72.0,8,480,7.0,70.0
3448,79.0,120,120,4.0,105.0
3449,64.0,0,240,4.0,105.0
3450,72.0,100,96,5.0,76.0
3451,79.0,20,96,3.0,105.0
3452,88.0,0,120,4.0,105.0
3453,67.0,0,240,4.0,105.0
3454,84.0,120,120,4.0,105.0
3455,76.0,100,96,5.0,79.0
3456,67.0,4,96,6.0,69.0
3457,79.0,0,96,3.0,105.0
3458,79.0,0,120,4.0,105.0
3459,60.0,16,240,4.0,105.0
3460,76.0,120,120,4.0,105.0
3461,67.0,4,96,6.0,71.0
3462,74.0,0,120,4.0,105.0
3463,59.0,16,240,4.0,105.0
3464,79.0,120,120,4.0,105.0
3465,71.0,104,96,6.0,73.0
3466,67.0,4,96,7.0,75.0
3467,83.0,12,120,4.0,105.0
3468,74.0,100,480,5.0,81.0
3469,79.0,120,120,4.0,105.0
3470,62.0,0,240,4.0,105.0
3471,79.0,0,480,3.0,105.0
3472,67.0,104,96,6.0,75.0
3473,62.0,4,96,7.0,72.0
3474,86.0,12,120,4.0,105.0
3475,67.0,0,240,4.0,105.0
3476,83.0,120,120,4.0,105.0
3477,62.0,104,96,6.0,76.0
3478,59.0,4,96,7.0,70.0
3479,79.0,0,120,4.0,105.0
3480,59.0,12,240,4.0,105.0
3481,74.0,120,120,4.0,105.0
3482,64.0,100,96,5.0,68.0
3483,76.0,0,99,3.0,114.0
3484,76.0,12,120,4.0,105.0
3485,78.0,60,104,3.0,110.0
3486,60.0,0,240,4.0,105.0
3487,79.0,60,120,4.0,105.0
3488,67.0,100,96,5.0,70.0
3489,84.0,0,120,4.0,105.0
3490,79.0,0,304,3.0,105.0
3491,67.0,4,480,6.0,78.0
3492,60.0,4,480,7.0,67.0
3493,64.0,20,240,4.0,105.0
3494,79.0,120,120,4.0,105.0
3495,72.0,100,96,5.0,72.0
3496,79.0,0,96,3.0,105.0
3497,88.0,20,120,4.0,105.0
3498,67.0,0,240,4.0,105.0
3499,84.0,120,120,4.0,105.0
3500,76.0,100,96,5.0,74.0
3501,67.0,4,96,6.0,69.0
3502,79.0,16,96,3.0,105.0
3503,79.0,0,120,4.0,105.0
3504,76.0,120,120,4.0,105.0
3505,60.0,0,240,4.0,105.0
3506,67.0,4,96,6.0,70.0
3507,74.0,16,120,4.0,105.0
3508,59.0,0,240,4.0,105.0
3509,79.0,120,120,4.0,105.0
3510,71.0,104,96,6.0,71.0
3511,67.0,4,96,7.0,80.0
3512,83.0,12,120,4.0,105.0
3513,74.0,100,480,5.0,76.0
3514,79.0,120,120,4.0,105.0
3515,79.0,0,480,3.0,105.0
3516,62.0,0,240,4.0,105.0
3517,67.0,104,96,6.0,73.0
3518,62.0,4,96,7.0,77.0
3519,86.0,12,120,4.0,105.0
3520,67.0,0,240,4.0,105.0
3521,83.0,120,120,4.0,105.0
3522,62.0,104,96,6.0,74.0
3523,59.0,4,96,7.0,74.0
3524,79.0,0,120,4.0,105.0
3525,59.0,12,240,4.0,105.0
3526,74.0,120,120,4.0,105.0
3527,60.0,0,240,4.0,105.0
3528,72.0,8,240,4.0,105.0
3529,69.0,0,120,4.0,105.0
3530,84.0,240,120,4.0,105.0
3531,64.0,104,480,6.0,75.0
3532,57.0,4,0,7.0,70.0
3533,57.0,4,480,8.0,70.0
3534,45.0,0,480,10.0,70.0
3535,86.0,120,120,4.0,105.0
3536,71.0,0,120,4.0,105.0
3537,88.0,0,120,4.0,105.0
3538,72.0,12,120,4.0,105.0
3539,86.0,120,120,4.0,105.0
3540,71.0,0,120,4.0,105.0
3541,84.0,0,120,4.0,105.0
3542,69.0,120,120,4.0,105.0
3543,72.0,100,480,5.0,70.0
3544,64.0,0,480,5.0,70.0
3545,69.0,0,480,6.0,70.0
3546,67.0,4,480,6.0,70.0
3547,67.0,120,120,4.0,105.0
3548,69.0,0,960,3.0,105.0
3549,83.0,0,120,4.0,105.0
3550,81.0,8,120,4.0,105.0
3551,66.0,0,120,4.0,105.0
3552,83.0,0,120,4.0,105.0
3553,67.0,120,120,4.0,105.0
3554,81.0,0,120,4.0,105.0
3555,66.0,120,120,4.0,105.0
3556,50.0,112,480,8.0,70.0
3557,38.0,0,480,10.0,70.0
3558,79.0,0,120,4.0,105.0
3559,64.0,120,120,4.0,105.0
3560,62.0,0,120,4.0,105.0
3561,78.0,12,120,4.0,105.0
3562,60.0,0,120,4.0,105.0
3563,76.0,120,120,4.0,105.0
3564,59.0,0,120,4.0,105.0
3565,74.0,120,120,4.0,105.0
3566,72.0,0,480,5.0,70.0
3567,62.0,100,480,5.0,70.0
3568,69.0,0,480,6.0,70.0
3569,66.0,4,480,6.0,70.0
3570,50.0,4,480,7.0,70.0
3571,84.0,0,960,3.0,105.0
3572,72.0,120,120,4.0,105.0
3573,57.0,0,120,4.0,105.0
3574,71.0,8,240,4.0,105.0
3575,55.0,0,240,4.0,105.0
3576,83.0,240,120,4.0,105.0
3577,67.0,0,120,4.0,105.0
3578,55.0,112,480,8.0,70.0
3579,69.0,0,120,4.0,105.0
3580,84.0,120,120,4.0,105.0
3581,43.0,0,480,10.0,70.0
3582,71.0,0,120,4.0,105.0
3583,86.0,12,120,4.0,105.0
3584,69.0,0,120,4.0,105.0
3585,84.0,120,120,4.0,105.0
3586,67.0,120,120,4.0,105.0
3587,83.0,0,120,4.0,105.0
3588,71.0,100,480,5.0,70.0
3589,62.0,0,480,5.0,70.0
3590,59.0,0,480,6.0,70.0
3591,67.0,4,480,6.0,70.0
3592,55.0,4,480,7.0,70.0
3593,67.0,0,960,3.0,105.0
3594,66.0,120,120,4.0,105.0
3595,81.0,0,120,4.0,105.0
3596,64.0,0,120,4.0,105.0
3597,79.0,0,120,4.0,105.0
3598,66.0,0,120,4.0,105.0
3599,81.0,120,120,4.0,105.0
3600,79.0,120,120,4.0,105.0
3601,64.0,0,120,4.0,105.0
3602,52.0,112,480,8.0,70.0
3603,62.0,0,120,4.0,105.0
3604,78.0,120,120,4.0,105.0
3605,40.0,0,480,10.0,70.0
3606,60.0,0,120,4.0,105.0
3607,76.0,12,120,4.0,105.0
3608,74.0,0,120,4.0,105.0
3609,59.0,120,120,4.0,105.0
3610,57.0,0,120,4.0,105.0
3611,72.0,120,120,4.0,105.0
3612,71.0,100,480,5.0,70.0
3613,64.0,0,480,5.0,70.0
3614,59.0,4,480,6.0,70.0
3615,67.0,0,480,6.0,70.0
3616,52.0,4,480,7.0,70.0
3617,71.0,0,120,4.0,105.0
3618,55.0,120,120,4.0,105.0
3619,83.0,8,960,3.0,105.0
3620,76.0,0,120,4.0,105.0
3621,81.0,8,240,3.0,105.0
3622,48.0,0,240,4.0,105.0
3623,72.0,120,120,4.0,105.0
3624,83.0,0,60,3.0,105.0
3625,81.0,60,60,3.0,105.0
3626,76.0,0,120,4.0,105.0
3627,80.0,60,120,3.0,105.0
3628,60.0,120,240,4.0,105.0
3629,72.0,0,120,4.0,105.0
3630,69.0,100,720,5.0,70.0
3631,64.0,4,720,6.0,70.0
3632,69.0,0,240,4.0,105.0
3633,81.0,120,240,3.0,105.0
3634,48.0,0,240,4.0,105.0
3635,76.0,220,240,5.0,76.0
3636,72.0,4,240,6.0,78.0
3637,60.0,4,960,7.0,70.0
3638,76.0,0,240,4.0,105.0
3639,60.0,16,240,4.0,105.0
3640,84.0,0,240,3.0,105.0
3641,74.0,220,96,5.0,75.0
3642,71.0,4,96,6.0,76.0
3643,48.0,4,1049,8.0,70.0
3644,36.0,0,1049,10.0,70.0
3645,83.0,0,96,3.0,105.0
3646,50.0,0,240,4.0,105.0
3647,74.0,8,240,4.0,105.0
3648,72.0,220,96,5.0,74.0
3649,69.0,4,96,6.0,72.0
3650,72.0,0,96,4.0,105.0
3651,81.0,0,96,3.0,105.0
3652,62.0,16,240,4.0,105.0
3653,71.0,220,96,5.0,70.0
3654,67.0,4,96,6.0,72.0
3655,71.0,0,96,4.0,105.0
3656,79.0,0,96,3.0,105.0
3657,62.0,4,720,7.0,70.0
3658,50.0,16,240,4.0,105.0
3659,69.0,220,96,5.0,69.0
3660,66.0,4,96,6.0,71.0
3661,78.0,12,96,3.0,105.0
3662,69.0,0,96,4.0,105.0
3663,50.0,4,889,8.0,70.0
3664,38.0,0,889,10.0,70.0
3665,60.0,4,240,7.0,77.0
3666,62.0,0,240,4.0,105.0
3667,67.0,220,96,5.0,69.0
3668,59.0,8,96,7.0,70.0
3669,55.0,4,96,8.0,70.0
3670,43.0,0,96,10.0,70.0
3671,79.0,8,96,3.0,105.0
3672,67.0,0,120,4.0,105.0
3673,55.0,0,240,4.0,105.0
3674,71.0,120,120,4.0,105.0
3675,43.0,0,240,4.0,105.0
3676,69.0,100,96,5.0,69.0
3677,57.0,8,96,7.0,72.0
3678,57.0,4,96,8.0,72.0
3679,81.0,0,96,3.0,105.0
3680,45.0,8,96,10.0,72.0
3681,69.0,0,120,4.0,105.0
3682,45.0,0,240,4.0,105.0
3683,72.0,120,120,4.0,105.0
3684,57.0,0,240,4.0,105.0
3685,71.0,100,96,5.0,71.0
3686,59.0,8,96,7.0,75.0
3687,59.0,4,96,8.0,74.0
3688,47.0,0,96,10.0,74.0
3689,83.0,0,96,3.0,105.0
3690,71.0,8,120,4.0,105.0
3691,74.0,120,120,4.0,105.0
3692,59.0,0,240,4.0,105.0
3693,47.0,0,240,4.0,105.0
3694,72.0,100,96,5.0,73.0
3695,60.0,8,96,7.0,77.0
3696,60.0,4,96,8.0,76.0
3697,84.0,0,96,3.0,105.0
3698,48.0,8,96,10.0,76.0
3699,72.0,0,120,4.0,105.0
3700,48.0,0,240,4.0,105.0
3701,60.0,0,240,4.0,105.0
3702,76.0,120,120,4.0,105.0
3703,74.0,8,96,4.0,105.0
3704,76.0,240,96,4.0,105.0
3705,74.0,100,480,5.0,78.0
3706,62.0,8,480,7.0,80.0
3707,62.0,4,480,8.0,78.0
3708,62.0,0,480,4.0,105.0
3709,50.0,0,480,4.0,105.0
3710,86.0,0,480,3.0,105.0
3711,50.0,0,480,10.0,78.0
3712,78.0,240,96,4.0,105.0
3713,79.0,240,96,4.0,105.0
3714,69.0,240,120,4.0,105.0
3715,72.0,0,239,3.0,105.0
3716,71.0,120,120,4.0,105.0
3717,69.0,120,120,4.0,105.0
3718,84.0,0,120,3.0,105.0
3719,71.0,120,120,4.0,105.0
3720,86.0,0,120,3.0,105.0
3721,60.0,120,120,4.0,105.0
3722,88.0,0,120,3.0,105.0
3723,59.0,0,120,4.0,105.0
3724,86.0,120,120,3.0,105.0
3725,57.0,120,120,4.0,105.0
3726,84.0,0,120,3.0,105.0
3727,69.0,0,480,4.0,105.0
3728,55.0,120,120,4.0,105.0
3729,83.0,0,120,3.0,105.0
3730,84.0,120,120,4.0,105.0
3731,81.0,0,120,3.0,105.0
3732,83.0,120,120,4.0,105.0
3733,80.0,0,120,3.0,105.0
3734,81.0,0,120,3.0,105.0
3735,84.0,120,120,4.0,105.0
3736,54.0,0,480,4.0,105.0
3737,83.0,0,120,4.0,105.0
3738,79.0,120,120,3.0,105.0
3739,50.0,0,120,4.0,105.0
3740,78.0,0,120,3.0,105.0
3741,76.0,0,120,3.0,105.0
3742,48.0,120,120,4.0,105.0
3743,74.0,0,120,3.0,105.0
3744,47.0,120,120,4.0,105.0
3745,72.0,120,120,3.0,105.0
3746,45.0,0,120,4.0,105.0
3747,84.0,120,480,4.0,105.0
3748,67.0,0,120,4.0,105.0
3749,71.0,120,189,3.0,105.0
3750,69.0,120,120,4.0,105.0
3751,67.0,0,120,4.0,105.0
3752,83.0,120,120,3.0,105.0
3753,43.0,0,480,4.0,105.0
3754,84.0,0,120,3.0,105.0
3755,69.0,120,120,4.0,105.0
3756,59.0,120,120,4.0,105.0
3757,86.0,0,120,3.0,105.0
3758,57.0,120,120,4.0,105.0
3759,84.0,0,120,3.0,105.0
3760,55.0,120,120,4.0,105.0
3761,83.0,0,120,3.0,105.0
3762,81.0,120,120,3.0,105.0
3763,54.0,0,120,4.0,105.0
3764,67.0,0,480,4.0,105.0
3765,83.0,0,120,4.0,105.0
3766,79.0,120,120,3.0,105.0
3767,78.0,0,120,3.0,105.0
3768,82.0,120,120,4.0,105.0
3769,83.0,0,120,4.0,105.0
3770,79.0,120,120,3.0,105.0
3771,52.0,0,480,4.0,105.0
3772,82.0,0,120,4.0,105.0
3773,78.0,120,120,3.0,105.0
3774,67.0,120,120,4.0,105.0
3775,76.0,0,120,3.0,105.0
3776,66.0,120,120,4.0,105.0
3777,74.0,0,120,3.0,105.0
3778,64.0,120,120,4.0,105.0
3779,72.0,0,120,3.0,105.0
3780,71.0,0,89,3.0,105.0
3781,62.0,120,120,4.0,105.0
3782,83.0,0,480,4.0,105.0
3783,60.0,12,120,4.0,105.0
3784,64.0,120,120,4.0,105.0
3785,69.0,120,120,4.0,105.0
3786,72.0,120,120,4.0,105.0
3787,76.0,120,120,4.0,105.0
3788,81.0,120,120,4.0,105.0
3789,69.0,0,804,3.0,105.0
3790,84.0,0,120,4.0,105.0
3791,84.0,120,149,3.0,105.0
3792,88.0,120,120,4.0,105.0
3793,72.0,4,994,6.0,77.0
3794,76.0,100,1004,5.0,76.0
3795,60.0,4,1039,7.0,70.0
3796,74.0,100,96,5.0,77.0
3797,71.0,4,96,6.0,78.0
3798,83.0,0,96,3.0,105.0
3799,86.0,0,120,4.0,105.0
3800,74.0,12,240,4.0,105.0
3801,83.0,120,120,4.0,105.0
3802,72.0,100,96,5.0,75.0
3803,69.0,4,96,6.0,76.0
3804,81.0,0,96,3.0,105.0
3805,84.0,16,120,4.0,105.0
3806,81.0,120,120,4.0,105.0
3807,71.0,100,96,5.0,72.0
3808,67.0,4,96,6.0,73.0
3809,79.0,0,96,3.0,105.0
3810,83.0,0,120,4.0,105.0
3811,79.0,120,120,4.0,105.0
3812,62.0,16,240,4.0,105.0
3813,69.0,100,96,5.0,69.0
3814,66.0,4,96,6.0,71.0
3815,78.0,16,96,3.0,105.0
3816,81.0,0,120,4.0,105.0
3817,62.0,4,899,7.0,70.0
3818,78.0,120,120,4.0,105.0
3819,79.0,0,120,4.0,105.0
3820,74.0,120,120,4.0,105.0
3821,76.0,120,120,4.0,105.0
3822,67.0,100,480,5.0,67.0
3823,67.0,4,480,6.0,69.0
3824,55.0,4,480,7.0,70.0
3825,72.0,120,120,4.0,105.0
3826,67.0,0,480,4.0,105.0
3827,79.0,12,480,3.0,105.0
3828,74.0,120,120,4.0,105.0
3829,71.0,120,120,4.0,105.0
3830,72.0,120,120,4.0,105.0
3831,69.0,120,120,4.0,105.0
3832,84.0,0,120,3.0,103.0
3833,67.0,120,240,4.0,105.0
3834,83.0,120,120,3.0,105.0
3835,81.0,0,120,3.0,107.0
3836,83.0,120,120,3.0,109.0
3837,62.0,120,240,4.0,105.0
3838,86.0,0,120,3.0,111.0
3839,84.0,120,120,3.0,113.0
3840,69.0,120,240,4.0,105.0
3841,83.0,120,120,3.0,115.0
3842,84.0,120,120,3.0,117.0
3843,62.0,0,240,4.0,105.0
3844,71.0,0,240,4.0,105.0
3845,86.0,120,289,3.0,119.0
3846,83.0,240,159,3.0,105.0
3847,62.0,0,240,4.0,105.0
3848,79.0,0,96,3.0,105.0
3849,71.0,240,240,4.0,105.0
3850,79.0,240,96,3.0,105.0
3851,62.0,0,240,4.0,105.0
3852,84.0,0,120,3.0,99.0
3853,83.0,120,120,3.0,101.0
3854,67.0,240,240,4.0,105.0
3855,81.0,120,120,3.0,104.0
3856,83.0,120,120,3.0,107.0
3857,62.0,0,240,4.0,105.0
3858,86.0,0,120,3.0,110.0
3859,69.0,120,240,4.0,105.0
3860,84.0,120,120,3.0,112.0
3861,83.0,0,120,3.0,115.0
3862,84.0,120,120,3.0,118.0
3863,62.0,120,240,4.0,105.0
3864,71.0,0,240,4.0,105.0
3865,86.0,120,304,3.0,121.0
3866,83.0,240,199,3.0,105.0
3867,62.0,0,240,4.0,105.0
3868,79.0,240,96,3.0,105.0
3869,71.0,0,240,4.0,105.0
3870,79.0,0,96,3.0,105.0
3871,62.0,240,240,4.0,105.0
3872,84.0,240,120,3.0,103.0
3873,67.0,0,240,4.0,105.0
3874,83.0,120,120,3.0,105.0
3875,81.0,120,120,3.0,105.0
3876,62.0,0,240,4.0,105.0
3877,83.0,120,120,3.0,105.0
3878,86.0,120,120,3.0,105.0
3879,84.0,120,120,3.0,105.0
3880,69.0,0,240,4.0,105.0
3881,83.0,0,120,3.0,105.0
3882,62.0,120,240,4.0,105.0
3883,84.0,120,120,3.0,105.0
3884,86.0,120,96,3.0,105.0
3885,71.0,0,240,4.0,105.0
3886,86.0,240,169,3.0,105.0
3887,88.0,120,104,3.0,105.0
3888,62.0,0,240,4.0,105.0
3889,84.0,120,96,3.0,105.0
3890,69.0,0,240,4.0,105.0
3891,84.0,0,169,3.0,105.0
3892,86.0,120,104,3.0,105.0
3893,62.0,240,240,4.0,105.0
3894,83.0,0,96,3.0,105.0
3895,67.0,120,240,4.0,105.0
3896,83.0,240,179,3.0,105.0
3897,84.0,120,89,3.0,105.0
3898,62.0,0,240,4.0,105.0
3899,81.0,0,96,3.0,105.0
3900,66.0,120,240,4.0,105.0
3901,81.0,0,169,3.0,105.0
3902,83.0,120,99,3.0,105.0
3903,62.0,240,240,4.0,105.0
3904,79.0,120,120,3.0,105.0
3905,74.0,120,120,3.0,105.0
3906,50.0,0,120,4.0,105.0
3907,52.0,120,120,4.0,105.0
3908,76.0,0,120,3.0,105.0
3909,54.0,120,120,4.0,105.0
3910,78.0,0,120,3.0,105.0
3911,67.0,0,480,4.0,105.0
3912,79.0,0,120,3.0,105.0
3913,55.0,120,120,4.0,105.0
3914,81.0,120,120,3.0,105.0
3915,57.0,0,120,4.0,105.0
3916,83.0,120,120,3.0,105.0
3917,59.0,0,120,4.0,105.0
3918,57.0,0,120,4.0,105.0
3919,84.0,120,120,3.0,105.0
3920,72.0,0,120,4.0,105.0
3921,79.0,100,240,5.0,70.0
3922,71.0,4,240,6.0,70.0
3923,67.0,4,240,7.0,70.0
3924,55.0,12,240,4.0,105.0
3925,71.0,120,120,4.0,105.0
3926,69.0,120,120,4.0,105.0
3927,71.0,120,120,4.0,105.0
3928,50.0,0,240,4.0,105.0
3929,74.0,12,120,4.0,105.0
3930,78.0,100,240,5.0,70.0
3931,69.0,4,240,6.0,70.0
3932,62.0,4,240,7.0,70.0
3933,57.0,0,240,4.0,105.0
3934,72.0,120,120,4.0,105.0
3935,71.0,120,120,4.0,105.0
3936,72.0,120,120,4.0,105.0
3937,50.0,0,240,4.0,105.0
3938,59.0,0,240,4.0,105.0
3939,74.0,12,240,4.0,105.0
3940,79.0,100,480,5.0,70.0
3941,67.0,4,480,6.0,70.0
3942,59.0,4,480,7.0,70.0
3943,79.0,0,240,4.0,105.0
3944,50.0,240,240,4.0,105.0
3945,74.0,0,96,4.0,105.0
3946,59.0,240,240,4.0,105.0
3947,74.0,240,96,4.0,105.0
3948,50.0,0,240,4.0,105.0
3949,72.0,12,120,4.0,105.0
3950,79.0,220,168,5.0,70.0
3951,71.0,4,168,6.0,70.0
3952,67.0,4,168,7.0,70.0
3953,55.0,0,240,4.0,105.0
3954,71.0,120,120,4.0,105.0
3955,69.0,12,120,4.0,105.0
3956,79.0,100,168,5.0,70.0
3957,71.0,4,168,6.0,70.0
3958,67.0,4,168,7.0,70.0
3959,50.0,0,240,4.0,105.0
3960,71.0,120,120,4.0,105.0
3961,74.0,0,120,4.0,105.0
3962,78.0,100,168,5.0,70.0
3963,69.0,4,168,6.0,70.0
3964,62.0,4,168,7.0,70.0
3965,57.0,12,240,4.0,105.0
3966,72.0,120,120,4.0,105.0
3967,71.0,0,120,4.0,105.0
3968,78.0,100,168,5.0,70.0
3969,69.0,4,168,6.0,70.0
3970,62.0,4,168,7.0,70.0
3971,50.0,12,240,4.0,105.0
3972,72.0,120,120,4.0,105.0
3973,74.0,12,120,4.0,105.0
3974,79.0,120,120,4.0,105.0
3975,59.0,0,240,4.0,105.0
3976,83.0,120,120,4.0,105.0
3977,79.0,100,480,5.0,70.0
3978,67.0,4,480,6.0,70.0
3979,59.0,4,480,7.0,70.0
3980,50.0,0,240,4.0,105.0
3981,79.0,120,120,4.0,105.0
3982,74.0,0,96,4.0,105.0
3983,59.0,120,240,4.0,105.0
3984,74.0,240,96,4.0,105.0
3985,50.0,0,240,4.0,105.0
3986,84.0,12,120,4.0,105.0
3987,79.0,220,240,5.0,70.0
3988,71.0,4,240,6.0,70.0
3989,67.0,4,240,7.0,70.0
3990,83.0,120,120,4.0,105.0
3991,67.0,0,240,4.0,105.0
3992,81.0,0,120,4.0,105.0
3993,83.0,120,120,4.0,105.0
3994,62.0,120,240,4.0,105.0
3995,86.0,12,120,4.0,105.0
3996,78.0,100,240,5.0,70.0
3997,69.0,4,240,6.0,70.0
3998,62.0,4,240,7.0,70.0
3999,84.0,120,120,4.0,105.0
4000,69.0,0,240,4.0,105.0
4001,83.0,0,120,4.0,105.0
4002,62.0,120,240,4.0,105.0
4003,84.0,120,120,4.0,105.0
4004,86.0,0,120,4.0,105.0
4005,79.0,100,240,5.0,70.0
4006,67.0,4,240,6.0,70.0
4007,59.0,4,240,7.0,70.0
4008,71.0,12,240,4.0,105.0
4009,83.0,120,120,4.0,105.0
4010,86.0,120,120,4.0,105.0
4011,83.0,120,120,4.0,105.0
4012,62.0,0,240,4.0,105.0
4013,84.0,12,120,4.0,105.0
4014,81.0,100,240,5.0,70.0
4015,66.0,4,240,6.0,70.0
4016,62.0,4,240,7.0,70.0
4017,69.0,0,240,4.0,105.0
4018,81.0,120,120,4.0,105.0
4019,84.0,120,120,4.0,105.0
4020,81.0,120,120,4.0,105.0
4021,62.0,0,240,4.0,105.0
4022,83.0,12,120,4.0,105.0
4023,83.0,100,240,5.0,70.0
4024,74.0,4,240,6.0,70.0
4025,67.0,4,240,7.0,70.0
4026,79.0,120,120,4.0,105.0
4027,67.0,0,240,4.0,105.0
4028,83.0,120,120,4.0,105.0
4029,62.0,0,240,4.0,105.0
4030,79.0,120,120,4.0,105.0
4031,81.0,12,120,4.0,105.0
4032,81.0,100,240,5.0,70.0
4033,72.0,4,240,6.0,70.0
4034,62.0,4,240,7.0,70.0
4035,78.0,120,120,4.0,105.0
4036,66.0,0,240,4.0,105.0
4037,81.0,120,120,4.0,105.0
4038,78.0,120,120,4.0,105.0
4039,62.0,0,240,4.0,105.0
4040,47.0,0,120,4.0,105.0
4041,74.0,12,120,4.0,105.0
4042,50.0,120,120,4.0,105.0
4043,79.0,0,120,4.0,105.0
4044,86.0,0,7024,3.0,105.0
4045,83.0,120,120,4.0,105.0
4046,55.0,0,120,4.0,105.0
4047,79.0,100,480,5.0,70.0
4048,71.0,4,480,6.0,70.0
4049,55.0,4,480,7.0,70.0
4050,86.0,120,120,4.0,105.0
4051,59.0,0,120,4.0,105.0
4052,84.0,0,120,4.0,105.0
4053,83.0,120,120,4.0,105.0
4054,81.0,120,120,4.0,105.0
4055,71.0,120,449,3.0,105.0
4056,79.0,120,120,4.0,105.0
4057,76.0,0,120,4.0,105.0
4058,48.0,12,120,4.0,105.0
4059,81.0,0,120,4.0,105.0
4060,52.0,120,120,4.0,105.0
4061,57.0,120,120,4.0,105.0
4062,84.0,0,120,4.0,105.0
4063,76.0,100,480,5.0,70.0
4064,72.0,0,464,3.0,105.0
4065,67.0,4,480,6.0,70.0
4066,69.0,0,480,6.0,70.0
4067,60.0,4,480,7.0,70.0
4068,64.0,0,480,7.0,70.0
4069,60.0,0,120,4.0,105.0
4070,88.0,120,120,4.0,105.0
4071,86.0,120,120,4.0,105.0
4072,84.0,120,120,4.0,105.0
4073,83.0,120,120,4.0,105.0
4074,88.0,0,449,3.0,105.0
4075,81.0,120,120,4.0,105.0
4076,74.0,100,240,5.0,70.0
4077,71.0,4,240,6.0,70.0
4078,50.0,0,240,4.0,105.0
4079,83.0,120,120,4.0,105.0
4080,86.0,12,240,3.0,105.0
4081,86.0,0,120,4.0,105.0
4082,62.0,4,480,7.0,70.0
4083,83.0,120,120,4.0,105.0
4084,71.0,100,240,5.0,70.0
4085,67.0,4,240,6.0,70.0
4086,62.0,0,240,4.0,105.0
4087,71.0,16,240,4.0,105.0
4088,79.0,120,120,4.0,105.0
4089,83.0,120,564,3.0,105.0
4090,83.0,120,120,4.0,105.0
4091,79.0,0,204,3.0,105.0
4092,79.0,120,120,4.0,105.0
4093,69.0,100,240,5.0,70.0
4094,66.0,4,240,6.0,70.0
4095,84.0,12,229,3.0,105.0
4096,81.0,120,120,4.0,105.0
4097,72.0,0,240,4.0,105.0
4098,62.0,0,240,4.0,105.0
4099,84.0,120,120,4.0,105.0
4100,62.0,4,480,7.0,70.0
4101,81.0,120,120,4.0,105.0
4102,72.0,100,240,5.0,70.0
4103,66.0,4,240,6.0,70.0
4104,69.0,0,240,4.0,105.0
4105,78.0,120,120,4.0,105.0
4106,62.0,16,240,4.0,105.0
4107,81.0,0,564,3.0,105.0
4108,81.0,0,120,4.0,105.0
4109,78.0,120,149,3.0,105.0
4110,78.0,120,120,4.0,105.0
4111,86.0,0,120,3.0,116.0
4112,84.0,120,120,3.0,110.0
4113,83.0,120,120,3.0,106.0
4114,67.0,0,572,4.0,105.0
4115,55.0,28,512,4.0,105.0
4116,59.0,8,480,4.0,105.0
4117,71.0,0,540,4.0,105.0
4118,50.0,32,540,4.0,105.0
4119,74.0,0,512,4.0,105.0
4120,79.0,0,480,4.0,105.0
4121,47.0,28,572,4.0,105.0
4122,81.0,120,120,3.0,101.0
4123,79.0,120,120,3.0,101.0
4124,78.0,120,120,3.0,98.0
4125,76.0,120,120,3.0,99.0
4126,74.0,120,120,3.0,99.0
4127,59.0,20,1039,7.0,70.0
4128,47.0,4,1054,8.0,70.0
4129,35.0,0,1054,10.0,70.0
4130,76.0,8,120,3.0,93.0
4131,78.0,120,120,3.0,95.0
4132,79.0,120,120,3.0,100.0
4133,79.0,0,480,4.0,105.0
4134,81.0,120,120,3.0,105.0
4135,52.0,32,540,4.0,105.0
4136,72.0,0,540,4.0,105.0
4137,48.0,28,572,4.0,105.0
4138,76.0,28,512,4.0,105.0
4139,67.0,0,572,4.0,105.0
4140,60.0,0,480,4.0,105.0
4141,55.0,0,512,4.0,105.0
4142,83.0,120,120,3.0,109.0
4143,84.0,120,120,3.0,111.0
4144,86.0,120,120,3.0,114.0
4145,60.0,20,894,7.0,70.0
4146,48.0,4,894,8.0,70.0
4147,36.0,0,894,10.0,70.0
4148,88.0,120,120,3.0,117.0
4149,47.0,0,120,4.0,105.0
4150,62.0,0,156,3.0,91.0
4151,62.0,108,168,7.0,70.0
4152,55.0,120,120,4.0,105.0
4153,67.0,36,164,3.0,98.0
4154,59.0,12,120,4.0,105.0
4155,71.0,64,168,5.0,70.0
4156,67.0,4,168,6.0,70.0
4157,62.0,4,168,7.0,70.0
4158,50.0,4,480,8.0,70.0
4159,71.0,80,160,3.0,103.0
4160,38.0,8,480,10.0,70.0
4161,62.0,0,0,4.0,105.0
4162,71.0,100,168,5.0,70.0
4163,67.0,4,168,6.0,70.0
4164,74.0,12,156,3.0,103.0
4165,62.0,4,168,7.0,70.0
4166,67.0,120,120,4.0,105.0
4167,79.0,36,164,3.0,100.0
4168,71.0,12,120,4.0,105.0
4169,71.0,64,168,5.0,70.0
4170,67.0,4,168,6.0,70.0
4171,62.0,4,168,7.0,70.0
4172,83.0,80,160,3.0,103.0
4173,74.0,40,120,4.0,105.0
4174,62.0,0,120,4.0,105.0
4175,71.0,100,168,5.0,70.0
4176,67.0,4,168,6.0,70.0
4177,62.0,4,168,7.0,70.0
4178,67.0,120,120,4.0,105.0
4179,71.0,12,120,4.0,105.0
4180,71.0,100,168,5.0,70.0
4181,67.0,4,168,6.0,70.0
4182,62.0,4,168,7.0,70.0
4183,50.0,4,480,8.0,70.0
4184,86.0,0,480,3.0,115.0
4185,74.0,0,0,4.0,105.0
4186,38.0,8,480,10.0,70.0
4187,84.0,12,120,3.0,104.0
4188,71.0,100,168,5.0,70.0
4189,67.0,4,168,6.0,70.0
4190,62.0,4,168,7.0,70.0
4191,83.0,0,120,3.0,112.0
4192,79.0,120,120,4.0,105.0
4193,81.0,0,120,3.0,114.0
4194,83.0,12,120,4.0,105.0
4195,71.0,100,168,5.0,70.0
4196,67.0,4,168,6.0,70.0
4197,62.0,4,168,7.0,70.0
4198,79.0,0,109,3.0,105.0
4199,86.0,120,120,4.0,105.0
4200,69.0,100,0,5.0,74.0
4201,66.0,4,120,6.0,71.0
4202,84.0,0,120,4.0,105.0
4203,62.0,4,168,7.0,70.0
4204,50.0,4,168,8.0,70.0
4205,38.0,8,168,10.0,70.0
4206,83.0,0,194,3.0,103.0
4207,66.0,4,120,6.0,73.0
4208,81.0,16,120,4.0,105.0
4209,81.0,45,119,3.0,116.0
4210,83.0,5,84,3.0,113.0
4211,69.0,35,0,5.0,76.0
4212,66.0,4,120,6.0,75.0
4213,78.0,0,120,4.0,105.0
4214,62.0,4,168,7.0,73.0
4215,81.0,60,94,3.0,111.0
4216,50.0,4,168,8.0,73.0
4217,38.0,8,168,10.0,73.0
4218,83.0,10,94,3.0,109.0
4219,66.0,4,120,6.0,77.0
4220,74.0,16,120,4.0,105.0
4221,81.0,60,96,3.0,108.0
4222,83.0,0,84,3.0,104.0
4223,69.0,40,0,5.0,81.0
4224,66.0,4,120,6.0,79.0
4225,72.0,8,120,4.0,105.0
4226,62.0,4,168,7.0,77.0
4227,81.0,60,96,3.0,103.0
4228,50.0,4,168,8.0,77.0
4229,38.0,0,168,10.0,77.0
4230,83.0,0,84,3.0,101.0
4231,66.0,4,120,6.0,81.0
4232,69.0,16,120,4.0,105.0
4233,81.0,55,96,3.0,101.0
4234,83.0,0,84,3.0,101.0
4235,69.0,40,0,5.0,84.0
4236,66.0,4,0,6.0,85.0
4237,66.0,0,120,4.0,105.0
4238,62.0,4,168,7.0,81.0
4239,81.0,60,96,3.0,101.0
4240,50.0,4,168,8.0,81.0
4241,38.0,8,168,10.0,81.0
4242,83.0,16,84,3.0,101.0
4243,62.0,0,120,4.0,105.0
4244,81.0,60,96,3.0,102.0
4245,83.0,0,84,3.0,103.0
4246,72.0,40,120,5.0,88.0
4247,69.0,4,120,6.0,87.0
4248,72.0,8,120,4.0,105.0
4249,62.0,4,168,7.0,85.0
4250,81.0,60,96,3.0,106.0
4251,50.0,4,168,8.0,85.0
4252,38.0,0,168,10.0,85.0
4253,83.0,16,84,3.0,107.0
4254,72.0,40,0,5.0,91.0
4255,69.0,4,0,6.0,90.0
4256,69.0,0,120,4.0,105.0
4257,81.0,60,96,3.0,109.0
4258,83.0,0,84,3.0,111.0
4259,69.0,4,0,6.0,92.0
4260,66.0,8,120,4.0,105.0
4261,81.0,60,96,3.0,111.0
4262,62.0,4,168,7.0,89.0
4263,50.0,4,168,8.0,89.0
4264,38.0,0,168,10.0,89.0
4265,83.0,16,84,3.0,111.0
4266,72.0,40,120,5.0,93.0
4267,62.0,0,120,4.0,105.0
4268,81.0,60,96,3.0,111.0
4269,83.0,0,84,3.0,111.0
4270,78.0,35,0,5.0,96.0
4271,72.0,4,120,6.0,94.0
4272,60.0,8,120,4.0,105.0
4273,62.0,4,168,7.0,93.0
4274,50.0,4,168,8.0,93.0
4275,81.0,65,96,3.0,114.0
4276,38.0,0,168,10.0,93.0
4277,83.0,16,84,3.0,114.0
4278,72.0,4,0,6.0,98.0
4279,57.0,0,120,4.0,105.0
4280,81.0,65,96,3.0,113.0
4281,83.0,8,84,3.0,113.0
4282,78.0,35,0,5.0,98.0
4283,54.0,0,120,4.0,105.0
4284,62.0,4,168,7.0,97.0
4285,50.0,4,168,8.0,97.0
4286,81.0,65,96,3.0,113.0
4287,38.0,0,168,10.0,97.0
4288,72.0,4,120,6.0,100.0
4289,50.0,0,120,4.0,105.0
4290,79.0,0,60,3.0,123.0
4291,81.0,60,180,3.0,108.0
4292,55.0,2,168,8.0,101.0
4293,43.0,0,168,10.0,101.0
4294,55.0,232,168,8.0,105.0
4295,43.0,8,168,10.0,105.0
4296,79.0,40,480,5.0,105.0
4297,71.0,4,480,6.0,102.0
4298,62.0,4,480,7.0,102.0
4299,55.0,0,480,4.0,105.0
4300,67.0,0,480,4.0,105.0
4301,59.0,0,480,4.0,105.0
4302,62.0,8,480,4.0,105.0
4303,43.0,0,480,4.0,105.0
4304,79.0,220,96,5.0,105.0
4305,76.0,4,96,6.0,105.0
4306,67.0,4,96,7.0,105.0
4307,64.0,0,96,7.0,105.0
4308,55.0,4,168,8.0,105.0
4309,43.0,8,168,10.0,105.0
4310,55.0,232,168,8.0,105.0
4311,43.0,8,168,10.0,105.0
4312,78.0,220,96,5.0,105.0
4313,74.0,4,96,6.0,105.0
4314,62.0,0,96,7.0,105.0
4315,66.0,4,96,7.0,105.0
4316,55.0,4,168,8.0,105.0
4317,43.0,8,168,10.0,105.0
4318,55.0,232,168,8.0,105.0
4319,43.0,8,168,10.0,105.0
4320,76.0,220,96,5.0,105.0
4321,72.0,4,96,6.0,105.0
4322,60.0,0,96,7.0,105.0
4323,64.0,4,96,7.0,105.0
4324,55.0,4,168,8.0,105.0
4325,43.0,8,168,10.0,105.0
4326,55.0,232,168,8.0,105.0
4327,43.0,8,168,10.0,105.0
4328,55.0,4,168,8.0,105.0
4329,43.0,8,168,10.0,105.0
4330,55.0,232,168,8.0,105.0
4331,43.0,8,168,10.0,105.0
4332,55.0,232,168,8.0,105.0
4333,43.0,8,168,10.0,105.0
4334,74.0,220,720,5.0,105.0
4335,71.0,4,720,6.0,105.0
4336,62.0,4,720,7.0,105.0
4337,59.0,0,720,7.0,105.0
4338,55.0,4,168,8.0,105.0
4339,43.0,8,168,10.0,105.0
4340,72.0,220,240,5.0,105.0
4341,69.0,4,240,6.0,105.0
4342,57.0,4,240,7.0,105.0
4343,60.0,0,240,7.0,105.0
4344,55.0,4,168,8.0,105.0
4345,43.0,8,168,10.0,105.0
4346,67.0,2,3288,1.0,105.0
4347,55.0,232,168,8.0,105.0
4348,43.0,8,168,10.0,105.0
4349,79.0,0,3304,0.0,105.0
4350,71.0,220,480,5.0,105.0
4351,67.0,4,480,6.0,105.0
4352,59.0,228,0,7.0,108.0
4353,55.0,0,0,7.0,108.0
4354,55.0,8,0,2.0,105.0
4355,67.0,2,160,1.0,105.0
4356,71.0,0,160,0.0,105.0
4357,55.0,2,168,8.0,105.0
4358,43.0,0,168,10.0,105.0
4359,60.0,0,160,7.0,114.0
4360,57.0,108,160,7.0,114.0
4361,69.0,0,160,1.0,105.0
4362,72.0,2,160,0.0,105.0
4363,59.0,0,92,7.0,117.0
4364,71.0,0,106,0.0,105.0
4365,71.0,2,106,1.0,105.0
4366,55.0,10,0,2.0,105.0
4367,62.0,118,160,7.0,117.0
4368,74.0,0,160,0.0,105.0
4369,55.0,2,168,8.0,105.0
4370,43.0,8,168,10.0,105.0
4371,55.0,0,120,7.0,109.0
4372,59.0,108,120,7.0,109.0
4373,67.0,2,120,1.0,105.0
4374,71.0,0,120,0.0,105.0
4375,55.0,0,0,2.0,105.0
4376,55.0,2,168,8.0,105.0
4377,43.0,8,168,10.0,105.0
4378,55.0,232,168,8.0,105.0
4379,43.0,8,168,10.0,105.0
4380,64.0,108,480,7.0,114.0
4381,60.0,0,480,7.0,114.0
4382,72.0,0,480,1.0,105.0
4383,76.0,2,480,0.0,105.0
4384,76.0,220,96,5.0,70.0
4385,67.0,4,96,6.0,70.0
4386,67.0,4,96,7.0,70.0
4387,64.0,0,96,7.0,70.0
4388,55.0,4,168,8.0,70.0
4389,43.0,8,168,10.0,70.0
4390,55.0,232,168,8.0,70.0
4391,43.0,8,168,10.0,70.0
4392,74.0,220,96,5.0,70.0
4393,66.0,4,96,6.0,70.0
4394,62.0,0,96,7.0,70.0
4395,66.0,4,96,7.0,70.0
4396,55.0,4,168,8.0,70.0
4397,43.0,0,168,10.0,70.0
4398,55.0,232,168,8.0,70.0
4399,43.0,8,168,10.0,70.0
4400,72.0,220,96,5.0,70.0
4401,64.0,4,96,6.0,70.0
4402,64.0,0,96,7.0,70.0
4403,60.0,4,96,7.0,70.0
4404,55.0,4,168,8.0,70.0
4405,43.0,8,168,10.0,70.0
4406,55.0,232,168,8.0,70.0
4407,43.0,8,168,10.0,70.0
4408,55.0,4,168,8.0,70.0
4409,43.0,8,168,10.0,70.0
4410,55.0,232,168,8.0,70.0
4411,43.0,8,168,10.0,70.0
4412,55.0,232,168,8.0,70.0
4413,43.0,8,168,10.0,70.0
4414,71.0,220,720,5.0,70.0
4415,62.0,4,720,6.0,70.0
4416,62.0,0,720,7.0,70.0
4417,59.0,4,720,7.0,70.0
4418,55.0,4,168,8.0,70.0
4419,43.0,8,168,10.0,70.0
4420,69.0,220,240,5.0,70.0
4421,60.0,4,240,6.0,70.0
4422,57.0,0,240,7.0,70.0
4423,60.0,4,240,7.0,70.0
4424,55.0,4,168,8.0,70.0
4425,43.0,8,168,10.0,70.0
4426,55.0,232,168,8.0,70.0
4427,43.0,8,168,10.0,70.0
4428,67.0,220,480,5.0,70.0
4429,59.0,4,480,6.0,70.0
4430,59.0,0,480,7.0,70.0
4431,55.0,4,480,7.0,70.0
4432,55.0,8,2400,2.0,70.0
4433,67.0,228,160,7.0,110.0
4434,79.0,2,160,0.0,105.0
4435,55.0,2,168,8.0,105.0
4436,43.0,8,168,10.0,105.0
4437,69.0,108,160,7.0,103.0
4438,66.0,0,160,7.0,103.0
4439,81.0,0,160,0.0,105.0
4440,78.0,2,160,1.0,105.0
4441,67.0,0,92,7.0,106.0
4442,79.0,0,120,1.0,105.0
4443,83.0,0,0,0.0,105.0
4444,62.0,10,0,2.0,105.0
4445,55.0,0,0,2.0,105.0
4446,71.0,118,160,7.0,106.0
4447,55.0,2,168,8.0,105.0
4448,43.0,8,168,10.0,105.0
4449,67.0,0,120,7.0,110.0
4450,62.0,108,120,7.0,110.0
4451,79.0,2,120,1.0,105.0
4452,62.0,0,0,2.0,105.0
4453,74.0,4,120,6.0,105.0
4454,69.0,104,120,6.0,105.0
4455,66.0,4,240,7.0,104.0
4456,54.0,2,240,8.0,105.0
4457,42.0,8,240,10.0,105.0
4458,66.0,120,120,6.0,105.0
4459,72.0,0,480,5.0,105.0
4460,62.0,100,480,5.0,105.0
4461,62.0,104,120,6.0,105.0
4462,69.0,4,240,7.0,105.0
4463,57.0,4,240,8.0,105.0
4464,45.0,8,240,10.0,105.0
4465,74.0,4,120,6.0,105.0
4466,74.0,104,120,6.0,105.0
4467,66.0,4,240,7.0,105.0
4468,54.0,4,240,8.0,105.0
4469,42.0,8,240,10.0,105.0
4470,74.0,104,0,6.0,105.0
4471,62.0,4,240,7.0,105.0
4472,50.0,4,240,8.0,105.0
4473,38.0,8,240,10.0,105.0
4474,74.0,120,120,6.0,105.0
4475,69.0,104,120,6.0,105.0
4476,66.0,4,240,7.0,105.0
4477,54.0,4,240,8.0,105.0
4478,42.0,8,240,10.0,105.0
4479,66.0,120,120,6.0,105.0
4480,84.0,0,960,5.0,105.0
4481,74.0,116,960,5.0,105.0
4482,62.0,104,120,6.0,105.0
4483,69.0,4,240,7.0,105.0
4484,57.0,4,240,8.0,105.0
4485,45.0,8,240,10.0,105.0
4486,74.0,104,0,6.0,105.0
4487,66.0,4,240,7.0,105.0
4488,54.0,4,240,8.0,105.0
4489,42.0,8,240,10.0,105.0
4490,74.0,120,120,6.0,105.0
4491,62.0,0,0,5.0,105.0
4492,72.0,0,480,5.0,105.0
4493,74.0,104,120,6.0,105.0
4494,62.0,4,240,7.0,105.0
4495,81.0,2,1920,1.0,105.0
4496,84.0,0,1920,0.0,105.0
4497,50.0,4,240,8.0,105.0
4498,38.0,8,240,10.0,105.0
4499,62.0,0,0,2.0,105.0
4500,74.0,4,120,6.0,105.0
4501,71.0,104,120,6.0,105.0
4502,67.0,4,240,7.0,105.0
4503,55.0,2,240,8.0,105.0
4504,43.0,8,240,10.0,105.0
4505,67.0,120,120,6.0,105.0
4506,71.0,116,480,5.0,105.0
4507,62.0,104,120,6.0,105.0
4508,71.0,4,240,7.0,105.0
4509,59.0,4,240,8.0,105.0
4510,47.0,8,240,10.0,105.0
4511,74.0,104,0,6.0,105.0
4512,74.0,120,0,6.0,105.0
4513,67.0,4,240,7.0,105.0
4514,55.0,4,240,8.0,105.0
4515,43.0,8,240,10.0,105.0
4516,74.0,104,120,6.0,105.0
4517,62.0,4,240,7.0,105.0
4518,50.0,4,240,8.0,105.0
4519,38.0,8,240,10.0,105.0
4520,74.0,120,120,6.0,105.0
4521,71.0,104,120,6.0,105.0
4522,59.0,4,240,7.0,105.0
4523,47.0,4,240,8.0,105.0
4524,35.0,8,240,10.0,105.0
4525,67.0,120,120,6.0,105.0
4526,83.0,0,960,5.0,105.0
4527,74.0,116,960,5.0,105.0
4528,62.0,104,120,6.0,105.0
4529,62.0,4,240,7.0,105.0
4530,50.0,4,240,8.0,105.0
4531,38.0,8,240,10.0,105.0
4532,74.0,104,0,6.0,105.0
4533,59.0,4,240,7.0,105.0
4534,47.0,4,240,8.0,105.0
4535,35.0,8,240,10.0,105.0
4536,74.0,104,0,6.0,105.0
4537,79.0,0,1872,1.0,105.0
4538,83.0,2,1872,0.0,105.0
4539,71.0,0,480,5.0,105.0
4540,62.0,116,480,5.0,105.0
4541,55.0,4,240,7.0,105.0
4542,43.0,4,240,8.0,105.0
4543,31.0,8,240,10.0,105.0
4544,55.0,0,1920,2.0,105.0
4545,60.0,4,168,7.0,105.0
4546,48.0,2,168,8.0,105.0
4547,36.0,8,168,10.0,105.0
4548,60.0,228,168,7.0,105.0
4549,48.0,4,168,8.0,105.0
4550,36.0,8,168,10.0,105.0
4551,69.0,116,480,5.0,105.0
4552,62.0,4,480,6.0,105.0
4553,78.0,220,120,5.0,105.0
4554,74.0,4,120,6.0,105.0
4555,60.0,4,168,7.0,105.0
4556,48.0,4,168,8.0,105.0
4557,36.0,8,168,10.0,105.0
4558,76.0,100,120,5.0,105.0
4559,72.0,4,120,6.0,105.0
4560,81.0,0,768,0.0,105.0
4561,74.0,116,120,5.0,105.0
4562,71.0,4,120,6.0,105.0
4563,60.0,4,168,7.0,105.0
4564,83.0,2,168,0.0,105.0
4565,48.0,2,168,8.0,105.0
4566,36.0,8,168,10.0,105.0
4567,76.0,2,920,1.0,105.0
4568,84.0,6,96,0.0,105.0
4569,72.0,100,120,5.0,105.0
4570,69.0,4,120,6.0,105.0
4571,64.0,0,960,2.0,105.0
4572,60.0,0,960,2.0,105.0
4573,62.0,4,168,7.0,105.0
4574,50.0,2,168,8.0,105.0
4575,38.0,8,168,10.0,105.0
4576,62.0,228,168,7.0,105.0
4577,50.0,4,168,8.0,105.0
4578,38.0,8,168,10.0,105.0
4579,71.0,110,480,5.0,105.0
4580,67.0,4,480,6.0,105.0
4581,71.0,2,480,1.0,105.0
4582,79.0,0,480,0.0,105.0
4583,62.0,0,480,2.0,105.0
4584,62.0,4,168,7.0,105.0
4585,50.0,2,168,8.0,105.0
4586,38.0,8,168,10.0,105.0
4587,62.0,228,168,7.0,105.0
4588,50.0,4,168,8.0,105.0
4589,38.0,8,168,10.0,105.0
4590,69.0,220,480,5.0,105.0
4591,66.0,4,480,6.0,105.0
4592,69.0,2,480,1.0,105.0
4593,78.0,0,480,0.0,105.0
4594,62.0,0,480,2.0,105.0
4595,86.0,220,120,5.0,121.0
4596,74.0,4,120,6.0,115.0
4597,59.0,4,168,7.0,105.0
4598,47.0,2,168,8.0,105.0
4599,35.0,0,168,10.0,105.0
4600,84.0,100,120,5.0,120.0
4601,72.0,4,120,6.0,112.0
4602,83.0,116,120,5.0,119.0
4603,71.0,4,120,6.0,110.0
4604,59.0,4,168,7.0,105.0
4605,47.0,4,168,8.0,105.0
4606,35.0,8,168,10.0,105.0
4607,81.0,100,120,5.0,117.0
4608,69.0,4,120,6.0,108.0
4609,55.0,0,0,2.0,105.0
4610,62.0,0,0,2.0,105.0
4611,79.0,116,120,5.0,115.0
4612,67.0,4,120,6.0,108.0
4613,59.0,4,168,7.0,105.0
4614,47.0,4,168,8.0,105.0
4615,35.0,8,168,10.0,105.0
4616,78.0,100,120,5.0,111.0
4617,66.0,4,120,6.0,107.0
4618,55.0,0,0,2.0,105.0
4619,62.0,8,0,2.0,105.0
4620,76.0,116,120,5.0,109.0
4621,64.0,4,120,6.0,107.0
4622,59.0,4,168,7.0,105.0
4623,47.0,4,168,8.0,105.0
4624,35.0,0,168,10.0,105.0
4625,74.0,100,120,5.0,109.0
4626,62.0,4,120,6.0,107.0
4627,67.0,2,960,1.0,97.0
4628,76.0,116,96,5.0,113.0
4629,64.0,4,96,6.0,109.0
4630,60.0,4,168,7.0,105.0
4631,48.0,2,168,8.0,105.0
4632,36.0,0,168,10.0,105.0
4633,79.0,220,96,5.0,105.0
4634,67.0,4,96,6.0,105.0
4635,60.0,4,168,7.0,105.0
4636,48.0,4,168,8.0,105.0
4637,36.0,8,168,10.0,105.0
4638,60.0,8,0,2.0,105.0
4639,64.0,0,0,2.0,105.0
4640,84.0,220,96,5.0,105.0
4641,72.0,4,96,6.0,105.0
4642,60.0,4,168,7.0,105.0
4643,48.0,4,168,8.0,105.0
4644,36.0,0,168,10.0,105.0
4645,88.0,220,96,5.0,105.0
4646,76.0,4,96,6.0,105.0
4647,60.0,4,168,7.0,105.0
4648,48.0,4,168,8.0,105.0
4649,36.0,8,168,10.0,105.0
4650,79.0,0,1920,0.0,97.0
4651,76.0,2,960,1.0,96.0
4652,60.0,0,240,2.0,105.0
4653,64.0,0,240,2.0,105.0
4654,62.0,4,168,7.0,105.0
4655,50.0,2,168,8.0,105.0
4656,38.0,8,168,10.0,105.0
4657,62.0,228,168,7.0,105.0
4658,50.0,4,168,8.0,105.0
4659,38.0,8,168,10.0,105.0
4660,62.0,220,480,5.0,105.0
4661,62.0,4,480,6.0,105.0
4662,74.0,2,480,0.0,105.0
4663,62.0,4,168,7.0,105.0
4664,50.0,2,168,8.0,105.0
4665,38.0,8,168,10.0,105.0
4666,62.0,228,168,7.0,105.0
4667,50.0,4,168,8.0,105.0
4668,38.0,8,168,10.0,105.0
4669,62.0,228,168,7.0,105.0
4670,50.0,4,168,8.0,105.0
4671,38.0,8,168,10.0,105.0
4672,86.0,220,720,5.0,105.0
4673,83.0,4,720,6.0,105.0
4674,71.0,0,720,1.0,105.0
4675,74.0,2,720,0.0,105.0
4676,88.0,220,120,5.0,105.0
4677,84.0,4,120,6.0,105.0
4678,76.0,2,120,0.0,105.0
4679,72.0,0,120,1.0,105.0
4680,62.0,4,168,7.0,105.0
4681,50.0,2,168,8.0,105.0
4682,38.0,8,168,10.0,105.0
4683,86.0,100,120,5.0,105.0
4684,83.0,4,120,6.0,105.0
4685,71.0,6,120,1.0,105.0
4686,74.0,0,120,0.0,105.0
4687,62.0,4,168,7.0,105.0
4688,50.0,2,168,8.0,105.0
4689,38.0,8,168,10.0,105.0
4690,84.0,110,240,5.0,105.0
4691,81.0,4,240,6.0,105.0
4692,72.0,2,240,0.0,105.0
4693,69.0,0,240,1.0,105.0
4694,62.0,4,168,7.0,105.0
4695,50.0,2,168,8.0,105.0
4696,38.0,8,168,10.0,105.0
4697,71.0,0,200,0.0,105.0
4698,67.0,2,200,1.0,105.0
4699,83.0,220,240,5.0,105.0
4700,79.0,4,240,6.0,105.0
4701,62.0,4,168,7.0,105.0
4702,50.0,2,168,8.0,105.0
4703,38.0,8,168,10.0,105.0
4704,74.0,0,384,0.0,105.0
4705,83.0,220,399,5.0,105.0
4706,74.0,4,404,6.0,105.0
4707,71.0,2,400,1.0,105.0
4708,62.0,228,168,7.0,105.0
4709,50.0,4,168,8.0,105.0
4710,38.0,8,168,10.0,105.0
4711,72.0,4,84,6.0,105.0
4712,81.0,100,94,5.0,105.0
4713,72.0,6,88,0.0,105.0
4714,69.0,0,96,1.0,105.0
4715,62.0,8,0,2.0,105.0
4716,62.0,4,168,7.0,105.0
4717,50.0,2,168,8.0,105.0
4718,38.0,0,168,10.0,105.0
4719,62.0,228,168,7.0,105.0
4720,50.0,4,168,8.0,105.0
4721,38.0,8,168,10.0,105.0
4722,62.0,120,120,2.0,105.0
4723,62.0,108,168,7.0,105.0
4724,50.0,4,168,8.0,105.0
4725,38.0,8,168,10.0,105.0
4726,62.0,228,168,7.0,105.0
4727,50.0,4,168,8.0,105.0
4728,38.0,8,168,10.0,105.0
4729,79.0,110,960,5.0,105.0
4730,71.0,4,960,6.0,105.0
4731,67.0,0,960,1.0,105.0
4732,71.0,2,960,0.0,105.0
4733,62.0,0,480,2.0,105.0
4734,62.0,4,168,7.0,105.0
4735,50.0,2,168,8.0,105.0
4736,38.0,8,168,10.0,105.0
4737,62.0,228,168,7.0,105.0
4738,50.0,4,168,8.0,105.0
4739,38.0,8,168,10.0,105.0
4740,69.0,4,429,6.0,105.0
4741,78.0,220,480,5.0,105.0
4742,69.0,2,480,0.0,105.0
4743,66.0,0,480,1.0,105.0
4744,62.0,8,0,2.0,105.0
4745,55.0,189,104,6.0,105.0
4746,79.0,6,480,5.0,105.0
4747,71.0,4,480,6.0,105.0
4748,62.0,25,494,6.0,105.0
4749,55.0,4,480,7.0,105.0
4750,67.0,2,480,0.0,105.0
4751,43.0,2,480,8.0,105.0
4752,31.0,0,480,10.0,105.0
4753,55.0,0,480,2.0,105.0
4754,67.0,220,240,5.0,70.0
4755,67.0,468,549,7.0,70.0
4756,55.0,4,554,8.0,70.0
4757,43.0,8,554,10.0,70.0
4758,66.0,220,240,5.0,70.0
4759,66.0,248,544,7.0,70.0
4760,54.0,4,549,8.0,70.0
4761,42.0,8,549,10.0,70.0
4762,64.0,248,424,7.0,70.0
4763,52.0,4,439,8.0,70.0
4764,40.0,8,439,10.0,70.0
4765,64.0,220,240,5.0,70.0
4766,63.0,240,96,5.0,105.0
4767,63.0,8,224,7.0,105.0
4768,51.0,4,244,8.0,105.0
4769,39.0,8,244,10.0,105.0
4770,63.0,220,96,5.0,105.0
4771,64.0,220,240,5.0,70.0
4772,64.0,248,534,7.0,70.0
4773,52.0,4,549,8.0,70.0
4774,40.0,8,549,10.0,70.0
4775,62.0,220,240,5.0,70.0
4776,62.0,248,534,7.0,70.0
4777,50.0,4,549,8.0,70.0
4778,38.0,8,549,10.0,70.0
4779,48.0,4,429,8.0,70.0
4780,36.0,8,429,10.0,70.0
4781,60.0,248,444,7.0,70.0
4782,60.0,220,240,5.0,70.0
4783,59.0,240,96,5.0,105.0
4784,47.0,4,249,8.0,105.0
4785,59.0,8,254,7.0,105.0
4786,35.0,8,249,10.0,105.0
4787,59.0,220,96,5.0,105.0
4788,60.0,244,240,6.0,70.0
4789,60.0,220,240,5.0,70.0
4790,60.0,4,544,7.0,70.0
4791,48.0,4,544,8.0,70.0
4792,36.0,8,544,10.0,70.0
4793,59.0,244,240,6.0,70.0
4794,59.0,220,240,5.0,70.0
4795,59.0,4,559,7.0,70.0
4796,47.0,4,559,8.0,70.0
4797,35.0,8,559,10.0,70.0
4798,57.0,244,240,6.0,70.0
4799,57.0,4,419,7.0,70.0
4800,45.0,4,424,8.0,70.0
4801,33.0,8,424,10.0,70.0
4802,57.0,220,240,5.0,70.0
4803,56.0,244,480,6.0,105.0
4804,56.0,4,480,7.0,105.0
4805,44.0,4,480,8.0,105.0
4806,32.0,0,480,10.0,105.0
4807,56.0,220,294,5.0,70.0
4808,59.0,240,294,5.0,70.0
4809,76.0,8,754,3.0,105.0
4810,77.0,20,154,3.0,105.0
4811,64.0,240,240,5.0,70.0
4812,76.0,120,154,3.0,105.0
4813,44.0,112,480,8.0,70.0
4814,32.0,8,480,10.0,70.0
4815,56.0,220,284,5.0,70.0
4816,71.0,0,709,3.0,105.0
4817,59.0,240,284,5.0,70.0
4818,74.0,20,214,3.0,105.0
4819,64.0,240,240,5.0,70.0
4820,72.0,8,96,3.0,105.0
4821,76.0,20,96,3.0,105.0
4822,45.0,232,480,8.0,70.0
4823,33.0,0,480,10.0,70.0
4824,57.0,220,324,5.0,70.0
4825,81.0,20,96,3.0,105.0
4826,60.0,220,294,5.0,70.0
4827,84.0,20,96,3.0,105.0
4828,64.0,220,240,5.0,70.0
4829,45.0,232,480,8.0,70.0
4830,33.0,8,480,10.0,70.0
4831,57.0,220,279,5.0,70.0
4832,88.0,0,689,3.0,105.0
4833,60.0,240,299,5.0,70.0
4834,88.0,20,199,3.0,105.0
4835,64.0,240,240,5.0,70.0
4836,88.0,0,289,3.0,105.0
4837,80.0,20,189,3.0,105.0
4838,47.0,4,480,8.0,70.0
4839,35.0,8,480,10.0,70.0
4840,59.0,220,289,5.0,70.0
4841,62.0,220,289,5.0,70.0
4842,64.0,220,240,5.0,70.0
4843,80.0,20,659,3.0,105.0
4844,47.0,252,480,8.0,70.0
4845,35.0,8,480,10.0,70.0
4846,88.0,20,274,3.0,105.0
4847,59.0,220,299,5.0,70.0
4848,64.0,220,279,5.0,70.0
4849,87.0,20,284,3.0,105.0
4850,88.0,20,209,3.0,105.0
4851,68.0,220,240,5.0,70.0
4852,68.0,224,1920,6.0,70.0
4853,59.0,0,1920,6.0,70.0
4854,62.0,4,1920,7.0,70.0
4855,88.0,0,304,3.0,105.0
4856,81.0,20,179,3.0,105.0
4857,48.0,4,480,8.0,70.0
4858,36.0,8,480,10.0,70.0
4859,60.0,220,294,5.0,70.0
4860,64.0,220,284,5.0,70.0
4861,69.0,220,240,5.0,70.0
4862,81.0,20,720,3.0,105.0
4863,48.0,252,480,8.0,70.0
4864,36.0,8,480,10.0,70.0
4865,60.0,220,289,5.0,70.0
4866,84.0,20,289,3.0,105.0
4867,64.0,220,289,5.0,70.0
4868,80.0,20,279,3.0,105.0
4869,81.0,20,199,3.0,105.0
4870,69.0,220,240,5.0,70.0
4871,57.0,0,1920,6.0,70.0
4872,69.0,224,1920,6.0,70.0
4873,64.0,0,3840,7.0,70.0
4874,60.0,4,1920,7.0,70.0
4875,79.0,8,149,3.0,105.0
4876,77.0,120,104,3.0,105.0
4877,76.0,120,120,3.0,105.0
4878,77.0,120,120,3.0,105.0
4879,79.0,20,120,3.0,105.0
4880,77.0,120,120,3.0,105.0
4881,76.0,120,120,3.0,105.0
4882,59.0,4,960,7.0,70.0
4883,50.0,4,960,8.0,70.0
4884,74.0,120,120,3.0,105.0
4885,38.0,0,960,10.0,70.0
4886,74.0,100,529,5.0,70.0
4887,72.0,8,439,3.0,105.0
4888,52.0,8,0,8.0,70.0
4889,40.0,0,0,10.0,70.0
4890,72.0,100,529,5.0,70.0
4891,69.0,224,1499,6.0,70.0
4892,72.0,8,56,3.0,98.0
4893,71.0,28,4,3.0,103.0
4894,72.0,32,56,3.0,103.0
4895,71.0,28,4,3.0,108.0
4896,72.0,32,56,3.0,106.0
4897,71.0,28,4,3.0,106.0
4898,72.0,32,56,3.0,107.0
4899,69.0,32,120,3.0,99.0
4900,71.0,460,439,5.0,70.0
4901,68.0,4,444,6.0,70.0
4902,64.0,4,0,7.0,70.0
4903,71.0,120,120,3.0,105.0
4904,72.0,100,192,5.0,70.0
4905,69.0,4,192,6.0,70.0
4906,57.0,4,192,8.0,70.0
4907,69.0,8,189,3.0,97.0
4908,45.0,0,192,10.0,70.0
4909,84.0,240,204,3.0,114.0
4910,68.0,220,192,5.0,70.0
4911,62.0,4,192,6.0,70.0
4912,64.0,4,192,7.0,70.0
4913,59.0,4,192,8.0,70.0
4914,47.0,0,192,10.0,70.0
4915,71.0,8,209,3.0,96.0
4916,86.0,240,224,3.0,118.0
4917,69.0,220,192,5.0,70.0
4918,60.0,4,192,6.0,70.0
4919,64.0,4,192,7.0,70.0
4920,60.0,4,192,8.0,70.0
4921,48.0,0,192,10.0,70.0
4922,72.0,8,219,3.0,95.0
4923,88.0,240,189,3.0,118.0
4924,86.0,240,120,3.0,105.0
4925,84.0,120,120,3.0,105.0
4926,83.0,120,120,3.0,105.0
4927,81.0,120,120,3.0,105.0
4928,80.0,0,120,3.0,105.0
4929,81.0,120,120,3.0,105.0
4930,80.0,120,120,3.0,105.0
4931,81.0,120,120,3.0,105.0
4932,79.0,120,120,3.0,105.0
4933,77.0,120,120,3.0,105.0
4934,59.0,4,754,6.0,70.0
4935,65.0,100,769,5.0,70.0
4936,62.0,4,779,7.0,70.0
4937,76.0,12,120,3.0,105.0
4938,74.0,100,184,5.0,70.0
4939,65.0,4,184,7.0,70.0
4940,71.0,4,199,6.0,70.0
4941,62.0,4,960,8.0,70.0
4942,50.0,8,960,10.0,70.0
4943,74.0,120,120,3.0,105.0
4944,72.0,0,429,3.0,105.0
4945,64.0,4,480,8.0,70.0
4946,52.0,8,480,10.0,70.0
4947,64.0,4,544,7.0,70.0
4948,69.0,4,549,6.0,70.0
4949,72.0,8,56,3.0,92.0
4950,72.0,100,559,5.0,70.0
4951,71.0,28,4,3.0,105.0
4952,72.0,32,56,3.0,102.0
4953,71.0,28,4,3.0,103.0
4954,72.0,32,56,3.0,107.0
4955,71.0,28,4,3.0,98.0
4956,72.0,32,56,3.0,98.0
4957,69.0,32,120,3.0,98.0
4958,62.0,4,409,7.0,70.0
4959,71.0,460,434,5.0,70.0
4960,68.0,4,439,6.0,70.0
4961,52.0,4,480,8.0,70.0
4962,40.0,0,480,10.0,70.0
4963,71.0,120,120,3.0,106.0
4964,69.0,100,96,5.0,105.0
4965,69.0,0,120,4.0,105.0
4966,60.0,8,192,7.0,105.0
4967,57.0,4,192,8.0,105.0
4968,45.0,8,192,10.0,105.0
4969,72.0,120,120,4.0,105.0
4970,69.0,100,96,5.0,105.0
4971,76.0,20,120,4.0,105.0
4972,57.0,0,480,4.0,105.0
4973,81.0,120,120,4.0,105.0
4974,69.0,0,480,3.0,114.0
4975,45.0,0,480,4.0,105.0
4976,72.0,120,120,4.0,70.0
4977,84.0,20,120,4.0,70.0
4978,72.0,100,240,5.0,70.0
4979,72.0,120,120,4.0,70.0
4980,60.0,0,480,4.0,70.0
4981,60.0,112,574,8.0,70.0
4982,48.0,8,574,10.0,70.0
4983,71.0,120,120,4.0,70.0
4984,83.0,20,120,4.0,70.0
4985,71.0,100,240,5.0,70.0
4986,59.0,8,480,4.0,70.0
4987,71.0,120,120,4.0,70.0
4988,59.0,112,549,8.0,70.0
4989,47.0,0,549,10.0,70.0
4990,69.0,120,120,4.0,70.0
4991,81.0,20,120,4.0,70.0
4992,57.0,112,444,8.0,70.0
4993,45.0,8,444,10.0,70.0
4994,69.0,100,240,5.0,70.0
4995,69.0,120,120,4.0,70.0
4996,57.0,0,480,4.0,70.0
4997,68.0,100,96,5.0,105.0
4998,56.0,12,192,8.0,105.0
4999,44.0,8,192,10.0,105.0
5000,68.0,120,120,4.0,105.0
5001,68.0,100,96,5.0,105.0
5002,80.0,20,120,4.0,105.0
5003,44.0,0,480,4.0,105.0
5004,56.0,0,480,4.0,105.0
5005,68.0,120,120,4.0,105.0
5006,69.0,120,120,4.0,70.0
5007,81.0,20,120,4.0,70.0
5008,69.0,100,240,5.0,70.0
5009,57.0,8,480,4.0,70.0
5010,45.0,0,480,4.0,70.0
5011,69.0,120,120,4.0,70.0
5012,57.0,112,549,8.0,70.0
5013,45.0,0,549,10.0,70.0
5014,67.0,120,120,4.0,70.0
5015,79.0,20,120,4.0,70.0
5016,67.0,100,240,5.0,70.0
5017,43.0,8,480,4.0,70.0
5018,55.0,0,480,4.0,70.0
5019,67.0,120,120,4.0,70.0
5020,55.0,112,549,8.0,70.0
5021,43.0,0,549,10.0,70.0
5022,65.0,120,120,4.0,70.0
5023,77.0,20,120,4.0,70.0
5024,53.0,112,439,8.0,70.0
5025,41.0,0,439,10.0,70.0
5026,65.0,100,240,5.0,70.0
5027,65.0,120,120,4.0,70.0
5028,53.0,8,480,4.0,70.0
5029,41.0,0,480,4.0,70.0
5030,64.0,100,96,5.0,105.0
5031,52.0,12,192,8.0,105.0
5032,40.0,0,192,10.0,105.0
5033,64.0,120,120,4.0,105.0
5034,64.0,100,96,5.0,105.0
5035,76.0,20,120,4.0,105.0
5036,52.0,8,480,4.0,105.0
5037,64.0,120,120,4.0,105.0
5038,40.0,0,480,4.0,105.0
5039,65.0,120,120,4.0,70.0
5040,77.0,20,120,4.0,70.0
5041,65.0,100,240,5.0,70.0
5042,65.0,120,120,4.0,70.0
5043,53.0,0,480,4.0,70.0
5044,53.0,112,564,8.0,70.0
5045,41.0,8,564,10.0,70.0
5046,64.0,120,120,4.0,70.0
5047,76.0,20,120,4.0,70.0
5048,64.0,100,240,5.0,70.0
5049,52.0,8,480,4.0,70.0
5050,64.0,120,120,4.0,70.0
5051,52.0,112,549,8.0,70.0
5052,40.0,0,549,10.0,70.0
5053,62.0,120,120,4.0,70.0
5054,74.0,20,120,4.0,70.0
5055,50.0,112,444,8.0,70.0
5056,38.0,0,444,10.0,70.0
5057,62.0,100,240,5.0,70.0
5058,50.0,8,480,4.0,70.0
5059,62.0,120,120,4.0,70.0
5060,61.0,104,480,6.0,105.0
5061,49.0,8,480,8.0,105.0
5062,49.0,0,480,4.0,105.0
5063,61.0,0,480,4.0,105.0
5064,73.0,0,480,4.0,105.0
5065,37.0,8,480,4.0,105.0
5066,37.0,0,480,10.0,105.0
5067,61.0,220,289,5.0,70.0
5068,64.0,240,284,5.0,70.0
5069,81.0,0,749,3.0,110.0
5070,82.0,20,169,3.0,110.0
5071,69.0,240,240,5.0,70.0
5072,81.0,120,169,3.0,110.0
5073,49.0,112,480,8.0,70.0
5074,37.0,0,480,10.0,70.0
5075,61.0,220,304,5.0,70.0
5076,76.0,8,684,3.0,110.0
5077,64.0,240,299,5.0,70.0
5078,79.0,20,214,3.0,110.0
5079,69.0,240,240,5.0,70.0
5080,77.0,0,44,3.0,110.0
5081,81.0,120,160,3.0,110.0
5082,80.0,20,160,3.0,110.0
5083,50.0,232,480,8.0,70.0
5084,38.0,8,480,10.0,70.0
5085,62.0,100,289,5.0,70.0
5086,81.0,120,160,3.0,110.0
5087,80.0,20,160,3.0,110.0
5088,65.0,100,289,5.0,70.0
5089,81.0,120,160,3.0,110.0
5090,80.0,20,160,3.0,110.0
5091,69.0,100,240,5.0,70.0
5092,81.0,120,160,3.0,110.0
5093,80.0,0,160,3.0,110.0
5094,81.0,120,160,3.0,110.0
5095,80.0,20,160,3.0,110.0
5096,50.0,112,480,8.0,70.0
5097,38.0,8,480,10.0,70.0
5098,62.0,100,289,5.0,70.0
5099,81.0,120,160,3.0,110.0
5100,79.0,20,120,3.0,110.0
5101,77.0,120,120,3.0,110.0
5102,65.0,100,304,5.0,70.0
5103,76.0,20,120,3.0,110.0
5104,69.0,100,240,5.0,70.0
5105,74.0,120,109,3.0,110.0
5106,74.0,8,304,3.0,110.0
5107,73.0,20,184,3.0,110.0
5108,52.0,4,480,8.0,70.0
5109,40.0,0,480,10.0,70.0
5110,64.0,220,289,5.0,70.0
5111,67.0,220,289,5.0,70.0
5112,70.0,220,240,5.0,70.0
5113,73.0,20,759,3.0,110.0
5114,58.0,104,1440,6.0,70.0
5115,67.0,0,0,6.0,70.0
5116,52.0,252,480,8.0,70.0
5117,40.0,8,480,10.0,70.0
5118,64.0,220,304,5.0,70.0
5119,82.0,20,304,3.0,110.0
5120,73.0,220,289,5.0,70.0
5121,81.0,16,294,3.0,110.0
5122,73.0,20,184,3.0,110.0
5123,76.0,220,240,5.0,70.0
5124,57.0,4,480,6.0,70.0
5125,61.0,4,1920,7.0,70.0
5126,52.0,0,1920,7.0,70.0
5127,74.0,8,240,3.0,110.0
5128,73.0,220,124,5.0,70.0
5129,76.0,20,120,3.0,110.0
5130,53.0,4,480,8.0,70.0
5131,77.0,120,120,3.0,110.0
5132,41.0,0,480,10.0,70.0
5133,81.0,100,114,5.0,70.0
5134,79.0,20,120,3.0,110.0
5135,81.0,120,120,3.0,110.0
5136,77.0,100,104,5.0,70.0
5137,83.0,20,120,3.0,110.0
5138,85.0,120,120,3.0,110.0
5139,74.0,100,129,5.0,70.0
5140,86.0,8,199,3.0,110.0
5141,69.0,220,129,5.0,70.0
5142,86.0,20,209,3.0,109.0
5143,53.0,12,480,8.0,70.0
5144,41.0,0,480,10.0,70.0
5145,65.0,220,149,5.0,70.0
5146,86.0,20,199,3.0,109.0
5147,62.0,220,124,5.0,70.0
5148,57.0,0,1920,6.0,70.0
5149,65.0,224,1920,6.0,70.0
5150,62.0,0,1920,7.0,70.0
5151,53.0,4,1920,7.0,70.0
5152,86.0,20,240,3.0,109.0
5153,76.0,0,480,3.0,109.0
5154,58.0,4,549,7.0,70.0
5155,81.0,12,120,3.0,109.0
5156,79.0,120,120,3.0,109.0
5157,62.0,224,779,6.0,70.0
5158,77.0,16,120,3.0,109.0
5159,55.0,8,409,7.0,70.0
5160,64.0,104,179,6.0,70.0
5161,55.0,4,960,8.0,70.0
5162,43.0,8,960,10.0,70.0
5163,76.0,120,120,3.0,109.0
5164,70.0,460,544,5.0,70.0
5165,57.0,4,480,8.0,70.0
5166,74.0,0,480,3.0,109.0
5167,45.0,0,0,10.0,70.0
5168,69.0,100,539,5.0,70.0
5169,65.0,4,549,6.0,70.0
5170,64.0,4,414,6.0,70.0
5171,67.0,460,419,5.0,70.0
5172,73.0,8,434,3.0,109.0
5173,57.0,4,0,7.0,70.0
5174,57.0,8,480,8.0,70.0
5175,65.0,460,192,5.0,70.0
5176,62.0,4,192,6.0,70.0
5177,50.0,4,192,8.0,70.0
5178,38.0,0,192,10.0,70.0
5179,62.0,8,199,3.0,109.0
5180,77.0,240,199,3.0,109.0
5181,61.0,220,192,5.0,70.0
5182,55.0,4,192,6.0,70.0
5183,57.0,4,192,7.0,70.0
5184,52.0,4,192,8.0,70.0
5185,40.0,8,192,10.0,70.0
5186,64.0,0,219,3.0,109.0
5187,79.0,240,189,3.0,109.0
5188,62.0,220,192,5.0,70.0
5189,57.0,4,192,6.0,70.0
5190,57.0,4,192,7.0,70.0
5191,53.0,4,192,8.0,70.0
5192,65.0,0,189,3.0,109.0
5193,41.0,8,192,10.0,70.0
5194,81.0,240,240,3.0,109.0
5195,79.0,240,120,3.0,109.0
5196,77.0,120,120,3.0,109.0
5197,76.0,120,120,3.0,109.0
5198,74.0,120,120,3.0,109.0
5199,67.0,8,189,3.0,109.0
5200,86.0,240,199,3.0,109.0
5201,84.0,240,120,3.0,109.0
5202,82.0,120,120,3.0,109.0
5203,67.0,100,759,5.0,70.0
5204,81.0,20,120,3.0,109.0
5205,69.0,100,159,5.0,74.0
5206,58.0,4,960,8.0,70.0
5207,79.0,20,120,3.0,109.0
5208,46.0,0,960,10.0,70.0
5209,70.0,100,169,5.0,72.0
5210,58.0,4,1044,7.0,70.0
5211,65.0,100,414,5.0,69.0
5212,77.0,0,409,3.0,109.0
5213,62.0,4,1440,6.0,70.0
5214,57.0,4,480,8.0,70.0
5215,45.0,8,480,10.0,70.0
5216,65.0,460,28,5.0,80.0
5217,64.0,8,32,5.0,82.0
5218,77.0,0,56,3.0,98.0
5219,65.0,12,28,5.0,82.0
5220,76.0,20,4,3.0,106.0
5221,64.0,8,32,5.0,84.0
5222,77.0,20,56,3.0,105.0
5223,65.0,12,28,5.0,84.0
5224,76.0,20,4,3.0,114.0
5225,64.0,8,32,5.0,83.0
5226,77.0,20,56,3.0,112.0
5227,65.0,12,28,5.0,77.0
5228,76.0,20,4,3.0,107.0
5229,64.0,8,32,5.0,77.0
5230,77.0,20,56,3.0,112.0
5231,62.0,12,120,5.0,75.0
5232,74.0,20,120,3.0,102.0
5233,57.0,8,894,7.0,70.0
5234,64.0,100,120,5.0,75.0
5235,61.0,4,480,6.0,70.0
5236,45.0,8,480,8.0,70.0
5237,33.0,8,480,10.0,70.0
5238,76.0,20,120,3.0,101.0
5239,62.0,0,120,4.0,70.0
5240,65.0,120,120,4.0,70.0
5241,74.0,0,240,4.0,70.0
5242,77.0,0,96,4.0,70.0
5243,69.0,120,120,4.0,70.0
5244,62.0,100,480,5.0,76.0
5245,62.0,4,480,6.0,70.0
5246,57.0,4,480,7.0,70.0
5247,50.0,4,480,8.0,70.0
5248,65.0,120,120,4.0,70.0
5249,38.0,0,480,10.0,70.0
5250,77.0,120,96,4.0,70.0
5251,62.0,0,120,4.0,70.0
5252,65.0,120,120,4.0,70.0
5253,77.0,120,96,4.0,70.0
5254,69.0,0,120,4.0,70.0
5255,74.0,8,960,3.0,113.0
5256,65.0,120,120,4.0,70.0
5257,79.0,0,120,4.0,70.0
5258,62.0,0,120,4.0,70.0
5259,77.0,0,120,4.0,70.0
5260,65.0,120,120,4.0,70.0
5261,69.0,0,120,4.0,70.0
5262,76.0,120,120,4.0,70.0
5263,77.0,120,120,4.0,70.0
5264,65.0,0,120,4.0,70.0
5265,62.0,0,120,4.0,70.0
5266,79.0,120,120,4.0,70.0
5267,77.0,0,120,4.0,70.0
5268,65.0,120,120,4.0,70.0
5269,69.0,0,120,4.0,70.0
5270,76.0,120,120,4.0,70.0
5271,65.0,0,120,4.0,70.0
5272,77.0,120,120,4.0,70.0
5273,76.0,120,96,4.0,70.0
5274,62.0,0,120,4.0,70.0
5275,67.0,120,120,4.0,70.0
5276,76.0,120,96,4.0,70.0
5277,70.0,0,120,4.0,70.0
5278,67.0,120,120,4.0,70.0
5279,76.0,120,96,4.0,70.0
5280,62.0,0,120,4.0,70.0
5281,67.0,120,120,4.0,70.0
5282,76.0,120,96,4.0,70.0
5283,70.0,0,120,4.0,70.0
5284,62.0,120,1920,3.0,89.0
5285,67.0,120,120,4.0,68.0
5286,76.0,0,120,4.0,72.0
5287,61.0,0,120,4.0,72.0
5288,77.0,0,120,4.0,76.0
5289,67.0,120,120,4.0,76.0
5290,79.0,120,120,4.0,79.0
5291,70.0,0,120,4.0,79.0
5292,77.0,120,120,4.0,83.0
5293,67.0,0,120,4.0,83.0
5294,61.0,120,120,4.0,87.0
5295,76.0,0,120,4.0,87.0
5296,77.0,120,120,4.0,91.0
5297,67.0,0,120,4.0,91.0
5298,79.0,120,120,4.0,95.0
5299,70.0,0,120,4.0,95.0
5300,67.0,120,120,4.0,99.0
5301,77.0,0,120,4.0,99.0
5302,61.0,120,960,3.0,99.0
5303,60.0,0,120,4.0,105.0
5304,76.0,120,240,4.0,105.0
5305,67.0,120,120,4.0,105.0
5306,82.0,120,96,4.0,105.0
5307,70.0,0,120,4.0,105.0
5308,67.0,120,120,4.0,105.0
5309,82.0,120,96,4.0,105.0
5310,60.0,0,120,4.0,105.0
5311,67.0,120,120,4.0,105.0
5312,82.0,120,96,4.0,105.0
5313,70.0,0,120,4.0,105.0
5314,67.0,120,120,4.0,105.0
5315,82.0,120,120,4.0,105.0
5316,60.0,0,120,4.0,105.0
5317,81.0,0,120,4.0,105.0
5318,67.0,120,120,4.0,105.0
5319,70.0,120,120,4.0,105.0
5320,82.0,0,120,4.0,105.0
5321,67.0,120,120,4.0,105.0
5322,81.0,0,120,4.0,105.0
5323,60.0,0,120,4.0,105.0
5324,82.0,120,120,4.0,105.0
5325,67.0,0,120,4.0,105.0
5326,79.0,120,120,4.0,105.0
5327,70.0,0,120,4.0,105.0
5328,77.0,120,120,4.0,105.0
5329,67.0,120,120,4.0,105.0
5330,76.0,0,120,4.0,105.0
5331,60.0,0,1920,3.0,105.0
5332,77.0,12,120,4.0,105.0
5333,69.0,120,120,4.0,92.0
5334,72.0,120,120,4.0,85.0
5335,81.0,0,209,3.0,88.0
5336,65.0,0,0,4.0,79.0
5337,69.0,120,120,4.0,82.0
5338,81.0,120,209,3.0,88.0
5339,69.0,120,120,4.0,77.0
5340,72.0,0,120,4.0,77.0
5341,81.0,120,224,3.0,88.0
5342,69.0,120,120,4.0,77.0
5343,83.0,120,120,3.0,88.0
5344,65.0,0,120,4.0,77.0
5345,81.0,0,120,3.0,88.0
5346,69.0,120,120,4.0,77.0
5347,72.0,0,120,4.0,77.0
5348,80.0,120,120,3.0,88.0
5349,81.0,120,120,3.0,88.0
5350,69.0,0,120,4.0,77.0
5351,65.0,0,120,4.0,77.0
5352,83.0,120,120,3.0,88.0
5353,69.0,0,120,4.0,77.0
5354,81.0,120,120,3.0,88.0
5355,72.0,120,120,4.0,77.0
5356,80.0,0,120,3.0,88.0
5357,69.0,120,120,4.0,77.0
5358,81.0,0,120,3.0,88.0
5359,80.0,0,96,3.0,88.0
5360,65.0,0,120,4.0,77.0
5361,71.0,120,120,4.0,77.0
5362,80.0,120,96,3.0,87.0
5363,74.0,0,120,4.0,77.0
5364,71.0,120,120,4.0,77.0
5365,53.0,120,480,4.0,77.0
5366,80.0,120,96,3.0,90.0
5367,65.0,0,120,4.0,77.0
5368,71.0,120,120,4.0,78.0
5369,80.0,120,96,3.0,93.0
5370,74.0,0,120,4.0,81.0
5371,71.0,120,120,4.0,83.0
5372,65.0,120,120,4.0,86.0
5373,80.0,0,120,3.0,96.0
5374,81.0,0,120,3.0,97.0
5375,71.0,120,120,4.0,89.0
5376,83.0,0,120,3.0,98.0
5377,74.0,120,120,4.0,92.0
5378,71.0,0,120,4.0,94.0
5379,81.0,120,120,3.0,100.0
5380,80.0,0,120,3.0,101.0
5381,65.0,120,120,4.0,97.0
5382,81.0,120,120,3.0,103.0
5383,71.0,0,120,4.0,100.0
5384,74.0,120,120,4.0,102.0
5385,83.0,0,120,3.0,104.0
5386,65.0,100,3840,5.0,70.0
5387,53.0,8,3840,7.0,70.0
5388,81.0,0,120,3.0,105.0
5389,71.0,120,120,4.0,105.0
5390,64.0,12,120,4.0,105.0
5391,80.0,0,240,3.0,105.0
5392,71.0,120,120,4.0,105.0
5393,86.0,120,96,3.0,105.0
5394,74.0,0,120,4.0,105.0
5395,52.0,0,480,4.0,105.0
5396,71.0,120,120,4.0,105.0
5397,86.0,0,96,3.0,105.0
5398,64.0,120,120,4.0,105.0
5399,71.0,120,120,4.0,105.0
5400,86.0,0,96,3.0,105.0
5401,74.0,120,120,4.0,105.0
5402,71.0,120,120,4.0,105.0
5403,64.0,120,120,4.0,105.0
5404,86.0,0,120,3.0,105.0
5405,71.0,120,120,4.0,105.0
5406,85.0,0,120,3.0,105.0
5407,74.0,120,120,4.0,105.0
5408,86.0,0,120,3.0,105.0
5409,71.0,120,120,4.0,105.0
5410,85.0,0,120,3.0,105.0
5411,64.0,120,120,4.0,105.0
5412,86.0,0,120,3.0,105.0
5413,83.0,0,120,3.0,105.0
5414,71.0,120,120,4.0,105.0
5415,81.0,120,120,3.0,105.0
5416,74.0,0,120,4.0,105.0
5417,64.0,100,1920,5.0,105.0
5418,52.0,8,1920,7.0,105.0
5419,80.0,120,120,3.0,105.0
5420,71.0,0,120,4.0,105.0
5421,57.0,0,120,4.0,70.0
5422,60.0,120,120,4.0,87.0
5423,69.0,0,240,4.0,105.0
5424,64.0,0,120,4.0,83.0
5425,69.0,100,480,5.0,105.0
5426,57.0,4,480,6.0,105.0
5427,57.0,4,480,7.0,105.0
5428,60.0,120,120,4.0,82.0
5429,84.0,120,240,4.0,83.0
5430,57.0,0,120,4.0,77.0
5431,84.0,120,0,4.0,70.0
5432,60.0,120,120,4.0,70.0
5433,64.0,0,120,4.0,70.0
5434,81.0,12,960,3.0,105.0
5435,60.0,120,120,4.0,70.0
5436,57.0,0,120,4.0,70.0
5437,86.0,120,120,4.0,70.0
5438,60.0,0,120,4.0,70.0
5439,84.0,120,120,4.0,70.0
5440,64.0,0,120,4.0,70.0
5441,83.0,120,120,4.0,70.0
5442,84.0,120,120,4.0,70.0
5443,60.0,0,120,4.0,70.0
5444,57.0,120,120,4.0,70.0
5445,86.0,0,120,4.0,70.0
5446,60.0,0,120,4.0,70.0
5447,84.0,120,120,4.0,70.0
5448,83.0,120,120,4.0,70.0
5449,64.0,0,120,4.0,70.0
5450,60.0,0,120,4.0,70.0
5451,84.0,120,120,4.0,70.0
5452,57.0,120,120,4.0,70.0
5453,62.0,120,120,4.0,74.0
5454,83.0,0,240,4.0,70.0
5455,65.0,0,120,4.0,76.0
5456,83.0,0,0,4.0,80.0
5457,62.0,120,120,4.0,78.0
5458,57.0,120,120,4.0,80.0
5459,62.0,120,120,4.0,82.0
5460,65.0,0,120,4.0,84.0
5461,62.0,120,120,4.0,86.0
5462,83.0,120,0,4.0,88.0
5463,69.0,0,1920,3.0,70.0
5464,56.0,0,120,4.0,88.0
5465,62.0,0,120,4.0,89.0
5466,84.0,120,120,4.0,89.0
5467,65.0,120,120,4.0,91.0
5468,86.0,0,120,4.0,91.0
5469,62.0,0,120,4.0,93.0
5470,84.0,120,120,4.0,93.0
5471,56.0,0,120,4.0,95.0
5472,83.0,120,120,4.0,95.0
5473,84.0,120,120,4.0,97.0
5474,62.0,0,120,4.0,97.0
5475,65.0,0,120,4.0,99.0
5476,86.0,120,120,4.0,99.0
5477,68.0,0,960,3.0,90.0
5478,62.0,0,120,4.0,101.0
5479,84.0,120,120,4.0,101.0
5480,55.0,0,120,4.0,105.0
5481,62.0,120,120,4.0,105.0
5482,83.0,0,240,4.0,105.0
5483,89.0,120,96,4.0,105.0
5484,65.0,0,120,4.0,105.0
5485,62.0,120,120,4.0,105.0
5486,89.0,120,96,4.0,105.0
5487,55.0,0,120,4.0,105.0
5488,62.0,120,120,4.0,105.0
5489,89.0,120,96,4.0,105.0
5490,65.0,0,120,4.0,105.0
5491,62.0,120,120,4.0,105.0
5492,89.0,0,120,4.0,105.0
5493,55.0,120,120,4.0,105.0
5494,88.0,120,120,4.0,105.0
5495,62.0,0,120,4.0,105.0
5496,89.0,0,120,4.0,105.0
5497,65.0,120,120,4.0,105.0
5498,62.0,120,120,4.0,105.0
5499,88.0,0,120,4.0,105.0
5500,55.0,0,120,4.0,105.0
5501,89.0,120,120,4.0,105.0
5502,62.0,0,120,4.0,105.0
5503,86.0,120,120,4.0,105.0
5504,65.0,0,120,4.0,105.0
5505,84.0,120,120,4.0,105.0
5506,62.0,0,120,4.0,105.0
5507,83.0,120,120,4.0,105.0
5508,55.0,12,120,4.0,70.0
5509,84.0,0,240,4.0,105.0
5510,60.0,120,120,4.0,84.0
5511,63.0,0,120,4.0,74.0
5512,79.0,120,240,4.0,74.0
5513,60.0,120,120,4.0,69.0
5514,55.0,120,120,4.0,70.0
5515,60.0,120,120,4.0,70.0
5516,79.0,0,240,4.0,70.0
5517,75.0,4,779,6.0,70.0
5518,79.0,100,794,5.0,70.0
5519,63.0,0,120,4.0,70.0
5520,79.0,16,240,4.0,70.0
5521,60.0,120,120,4.0,70.0
5522,75.0,100,299,5.0,70.0
5523,72.0,4,319,6.0,70.0
5524,78.0,0,120,4.0,70.0
5525,55.0,16,120,4.0,70.0
5526,79.0,100,169,5.0,70.0
5527,75.0,4,169,6.0,70.0
5528,60.0,120,120,4.0,70.0
5529,79.0,0,120,4.0,70.0
5530,63.0,0,120,4.0,70.0
5531,78.0,120,120,4.0,70.0
5532,60.0,0,120,4.0,70.0
5533,79.0,120,120,4.0,70.0
5534,75.0,100,114,5.0,70.0
5535,72.0,4,129,6.0,70.0
5536,55.0,16,120,4.0,70.0
5537,77.0,0,120,4.0,70.0
5538,60.0,0,120,4.0,70.0
5539,75.0,120,120,4.0,70.0
5540,67.0,120,3604,3.0,105.0
5541,63.0,0,120,4.0,72.0
5542,74.0,120,120,4.0,72.0
5543,60.0,0,120,4.0,75.0
5544,72.0,120,120,4.0,75.0
5545,67.0,60,89,3.0,105.0
5546,55.0,16,120,4.0,105.0
5547,71.0,0,240,4.0,70.0
5548,62.0,120,120,4.0,105.0
5549,89.0,0,96,4.0,105.0
5550,65.0,120,120,4.0,105.0
5551,74.0,40,480,5.0,70.0
5552,71.0,4,480,6.0,70.0
5553,67.0,4,2400,7.0,70.0
5554,62.0,120,120,4.0,105.0
5555,89.0,0,96,4.0,105.0
5556,55.0,120,120,4.0,105.0
5557,62.0,120,120,4.0,105.0
5558,89.0,0,96,4.0,105.0
5559,65.0,120,120,4.0,105.0
5560,62.0,120,120,4.0,105.0
5561,89.0,0,120,4.0,105.0
5562,55.0,120,120,4.0,105.0
5563,62.0,120,120,4.0,105.0
5564,88.0,0,120,4.0,105.0
5565,65.0,0,120,4.0,105.0
5566,89.0,120,120,4.0,105.0
5567,88.0,0,120,4.0,105.0
5568,62.0,120,120,4.0,105.0
5569,55.0,120,120,4.0,105.0
5570,89.0,0,120,4.0,105.0
5571,86.0,120,120,4.0,105.0
5572,62.0,0,120,4.0,105.0
5573,65.0,120,120,4.0,105.0
5574,84.0,0,120,4.0,105.0
5575,62.0,0,120,4.0,105.0
5576,83.0,120,120,4.0,105.0
5577,55.0,12,120,4.0,70.0
5578,84.0,0,240,4.0,105.0
5579,60.0,120,120,4.0,89.0
5580,79.0,0,96,4.0,88.0
5581,63.0,120,120,4.0,88.0
5582,60.0,120,120,4.0,86.0
5583,79.0,120,96,4.0,84.0
5584,55.0,0,120,4.0,84.0
5585,60.0,120,120,4.0,81.0
5586,79.0,100,804,5.0,70.0
5587,75.0,4,809,6.0,70.0
5588,79.0,16,96,4.0,81.0
5589,63.0,0,120,4.0,81.0
5590,60.0,120,120,4.0,81.0
5591,72.0,4,309,6.0,70.0
5592,75.0,100,319,5.0,70.0
5593,78.0,0,120,4.0,81.0
5594,55.0,16,120,4.0,81.0
5595,79.0,100,189,5.0,70.0
5596,75.0,4,189,6.0,70.0
5597,60.0,120,120,4.0,81.0
5598,79.0,0,120,4.0,81.0
5599,78.0,120,120,4.0,81.0
5600,63.0,0,120,4.0,81.0
5601,60.0,120,120,4.0,81.0
5602,79.0,0,120,4.0,81.0
5603,75.0,100,96,5.0,70.0
5604,72.0,4,96,6.0,70.0
5605,77.0,0,120,4.0,81.0
5606,55.0,16,120,4.0,81.0
5607,60.0,0,120,4.0,81.0
5608,75.0,120,120,4.0,81.0
5609,74.0,120,120,4.0,79.0
5610,63.0,0,120,4.0,79.0
5611,79.0,0,3840,3.0,105.0
5612,60.0,120,120,4.0,79.0
5613,72.0,0,120,4.0,79.0
5614,55.0,0,240,4.0,79.0
5615,79.0,120,160,3.0,80.0
5616,78.0,120,160,3.0,80.0
5617,74.0,100,480,5.0,70.0
5618,71.0,4,480,6.0,70.0
5619,67.0,4,2400,7.0,70.0
5620,47.0,0,240,4.0,77.0
5621,71.0,16,480,4.0,79.0
5622,79.0,120,160,3.0,80.0
5623,80.0,120,160,3.0,80.0
5624,48.0,0,240,4.0,77.0
5625,79.0,120,160,3.0,80.0
5626,78.0,120,160,3.0,80.0
5627,50.0,0,240,4.0,76.0
5628,79.0,120,160,3.0,80.0
5629,77.0,0,160,3.0,80.0
5630,51.0,120,240,4.0,74.0
5631,75.0,120,160,3.0,80.0
5632,74.0,0,160,3.0,80.0
5633,52.0,120,240,4.0,78.0
5634,75.0,120,160,3.0,80.0
5635,74.0,0,160,3.0,80.0
5636,53.0,120,240,4.0,80.0
5637,72.0,120,160,3.0,80.0
5638,71.0,120,160,3.0,80.0
5639,72.0,120,89,3.0,80.0
5640,54.0,0,240,4.0,82.0
5641,71.0,0,84,3.0,80.0
5642,79.0,120,160,3.0,81.0
5643,78.0,0,160,3.0,81.0
5644,55.0,120,480,4.0,83.0
5645,59.0,120,240,4.0,78.0
5646,79.0,120,160,3.0,81.0
5647,80.0,120,160,3.0,81.0
5648,60.0,0,240,4.0,79.0
5649,79.0,120,160,3.0,81.0
5650,78.0,120,160,3.0,81.0
5651,62.0,0,240,4.0,80.0
5652,79.0,120,160,3.0,81.0
5653,77.0,120,160,3.0,81.0
5654,63.0,0,240,4.0,81.0
5655,75.0,120,160,3.0,81.0
5656,74.0,0,160,3.0,81.0
5657,64.0,120,240,4.0,83.0
5658,75.0,120,160,3.0,81.0
5659,74.0,120,160,3.0,81.0
5660,65.0,0,240,4.0,84.0
5661,72.0,120,160,3.0,81.0
5662,71.0,0,160,3.0,81.0
5663,72.0,120,99,3.0,81.0
5664,66.0,120,240,4.0,85.0
5665,67.0,0,480,4.0,86.0
5666,71.0,120,480,3.0,81.0
5667,67.0,4,299,6.0,70.0
5668,79.0,220,309,5.0,70.0
5669,66.0,4,294,6.0,70.0
5670,78.0,236,299,5.0,70.0
5671,79.0,236,184,5.0,70.0
5672,67.0,4,184,6.0,70.0
5673,54.0,12,60,4.0,104.0
5674,72.0,196,124,3.0,112.0
5675,57.0,60,60,4.0,106.0
5676,60.0,60,60,4.0,108.0
5677,63.0,60,60,4.0,110.0
5678,72.0,60,60,4.0,112.0
5679,75.0,60,60,4.0,114.0
5680,78.0,60,60,4.0,116.0
5681,81.0,60,60,4.0,118.0
5682,84.0,60,240,4.0,121.0
5683,84.0,0,779,3.0,118.0
5684,75.0,0,209,3.0,105.0
5685,66.0,48,960,7.0,70.0
5686,72.0,240,240,4.0,70.0
5687,67.0,228,480,7.0,70.0
5688,71.0,12,480,4.0,70.0
5689,74.0,0,480,3.0,105.0
5690,55.0,0,480,4.0,70.0
5691,79.0,220,284,5.0,70.0
5692,67.0,4,299,6.0,70.0
5693,78.0,236,304,5.0,70.0
5694,66.0,4,309,6.0,70.0
5695,79.0,236,189,5.0,70.0
5696,67.0,4,209,6.0,70.0
5697,54.0,12,60,4.0,100.0
5698,72.0,196,129,3.0,115.0
5699,57.0,60,60,4.0,102.0
5700,60.0,60,60,4.0,105.0
5701,63.0,60,60,4.0,108.0
5702,72.0,60,60,4.0,110.0
5703,75.0,60,60,4.0,113.0
5704,78.0,60,60,4.0,116.0
5705,81.0,60,60,4.0,118.0
5706,84.0,60,240,4.0,121.0
5707,84.0,0,799,3.0,119.0
5708,75.0,240,199,3.0,70.0
5709,66.0,48,960,7.0,70.0
5710,72.0,0,240,4.0,70.0
5711,75.0,0,80,3.0,70.0
5712,74.0,60,80,3.0,70.0
5713,75.0,60,80,3.0,70.0
5714,74.0,0,240,4.0,70.0
5715,71.0,0,240,4.0,70.0
5716,74.0,60,80,3.0,71.0
5717,75.0,0,80,3.0,71.0
5718,74.0,60,80,3.0,72.0
5719,75.0,60,80,3.0,72.0
5720,62.0,40,240,5.0,70.0
5721,59.0,4,240,6.0,70.0
5722,67.0,228,480,7.0,70.0
5723,55.0,4,480,8.0,70.0
5724,43.0,0,480,10.0,70.0
5725,55.0,0,240,4.0,70.0
5726,62.0,0,240,4.0,70.0
5727,59.0,16,240,4.0,70.0
5728,74.0,60,80,3.0,73.0
5729,75.0,16,80,3.0,73.0
5730,74.0,60,80,3.0,74.0
5731,75.0,60,80,3.0,75.0
5732,62.0,40,240,5.0,70.0
5733,59.0,4,0,6.0,70.0
5734,43.0,0,240,4.0,70.0
5735,74.0,60,80,3.0,75.0
5736,72.0,0,179,3.0,76.0
5737,74.0,120,99,3.0,77.0
5738,62.0,40,240,5.0,70.0
5739,67.0,4,240,7.0,70.0
5740,74.0,0,240,4.0,70.0
5741,71.0,12,240,4.0,70.0
5742,77.0,0,80,3.0,78.0
5743,76.0,60,80,3.0,78.0
5744,77.0,60,80,3.0,79.0
5745,72.0,0,240,4.0,70.0
5746,76.0,0,240,4.0,70.0
5747,76.0,60,80,3.0,79.0
5748,77.0,0,80,3.0,80.0
5749,76.0,60,80,3.0,80.0
5750,77.0,60,80,3.0,81.0
5751,64.0,40,0,5.0,70.0
5752,60.0,4,240,6.0,70.0
5753,55.0,108,480,7.0,70.0
5754,55.0,4,480,8.0,70.0
5755,60.0,16,240,4.0,70.0
5756,64.0,0,240,4.0,70.0
5757,55.0,0,240,4.0,70.0
5758,43.0,8,480,10.0,70.0
5759,76.0,60,80,3.0,81.0
5760,77.0,0,80,3.0,82.0
5761,76.0,60,80,3.0,83.0
5762,77.0,60,80,3.0,83.0
5763,64.0,40,0,5.0,70.0
5764,60.0,4,240,6.0,70.0
5765,43.0,16,240,4.0,70.0
5766,76.0,60,80,3.0,84.0
5767,74.0,0,179,3.0,84.0
5768,76.0,120,89,3.0,85.0
5769,60.0,4,240,6.0,70.0
5770,67.0,4,240,7.0,70.0
5771,55.0,8,1920,2.0,70.0
5772,72.0,0,240,4.0,70.0
5773,76.0,12,240,4.0,70.0
5774,79.0,8,60,3.0,86.0
5775,77.0,60,80,3.0,87.0
5776,79.0,60,80,3.0,87.0
5777,74.0,0,240,4.0,72.0
5778,77.0,0,240,4.0,72.0
5779,77.0,60,80,3.0,88.0
5780,79.0,0,80,3.0,88.0
5781,77.0,60,80,3.0,89.0
5782,79.0,60,80,3.0,90.0
5783,65.0,40,240,5.0,80.0
5784,62.0,4,240,6.0,80.0
5785,55.0,108,480,7.0,80.0
5786,55.0,4,480,8.0,80.0
5787,43.0,0,480,10.0,80.0
5788,55.0,16,240,4.0,75.0
5789,65.0,0,240,4.0,75.0
5790,62.0,0,240,4.0,75.0
5791,77.0,60,80,3.0,90.0
5792,79.0,16,80,3.0,91.0
5793,77.0,60,80,3.0,91.0
5794,79.0,60,80,3.0,92.0
5795,65.0,40,0,5.0,80.0
5796,62.0,4,240,6.0,80.0
5797,43.0,0,240,4.0,78.0
5798,77.0,60,80,3.0,92.0
5799,76.0,12,179,3.0,93.0
5800,77.0,120,84,3.0,94.0
5801,62.0,4,240,6.0,80.0
5802,67.0,4,240,7.0,80.0
5803,77.0,0,240,4.0,80.0
5804,74.0,0,240,4.0,80.0
5805,81.0,8,80,3.0,95.0
5806,79.0,60,80,3.0,95.0
5807,81.0,60,80,3.0,96.0
5808,76.0,0,240,4.0,83.0
5809,79.0,0,240,4.0,83.0
5810,79.0,60,80,3.0,96.0
5811,81.0,0,80,3.0,97.0
5812,79.0,60,80,3.0,98.0
5813,81.0,60,80,3.0,98.0
5814,67.0,40,0,5.0,90.0
5815,64.0,4,240,6.0,90.0
5816,55.0,108,480,7.0,90.0
5817,55.0,4,480,8.0,90.0
5818,64.0,0,240,4.0,86.0
5819,67.0,0,240,4.0,86.0
5820,43.0,0,480,10.0,90.0
5821,55.0,16,240,4.0,86.0
5822,79.0,60,80,3.0,99.0
5823,81.0,16,80,3.0,99.0
5824,79.0,60,80,3.0,100.0
5825,81.0,60,80,3.0,100.0
5826,64.0,4,240,6.0,90.0
5827,43.0,0,240,4.0,88.0
5828,79.0,60,80,3.0,101.0
5829,77.0,0,159,3.0,101.0
5830,79.0,120,84,3.0,102.0
5831,67.0,40,240,5.0,90.0
5832,64.0,4,240,6.0,90.0
5833,67.0,4,240,7.0,90.0
5834,55.0,0,1920,2.0,90.0
5835,79.0,0,240,4.0,91.0
5836,76.0,12,240,4.0,91.0
5837,83.0,0,80,3.0,103.0
5838,81.0,60,80,3.0,104.0
5839,83.0,60,80,3.0,105.0
5840,77.0,0,240,4.0,93.0
5841,81.0,0,240,4.0,93.0
5842,81.0,60,80,3.0,105.0
5843,83.0,16,80,3.0,105.0
5844,81.0,60,80,3.0,105.0
5845,83.0,60,80,3.0,105.0
5846,69.0,40,240,5.0,105.0
5847,65.0,4,240,6.0,105.0
5848,55.0,108,480,7.0,105.0
5849,55.0,4,480,8.0,105.0
5850,65.0,0,240,4.0,96.0
5851,43.0,0,480,10.0,105.0
5852,55.0,0,240,4.0,96.0
5853,69.0,0,240,4.0,96.0
5854,81.0,60,80,3.0,105.0
5855,83.0,0,80,3.0,105.0
5856,81.0,60,80,3.0,105.0
5857,83.0,60,80,3.0,105.0
5858,69.0,40,240,5.0,105.0
5859,65.0,4,0,6.0,105.0
5860,43.0,16,240,4.0,99.0
5861,81.0,60,80,3.0,105.0
5862,79.0,12,164,3.0,105.0
5863,81.0,120,89,3.0,105.0
5864,69.0,40,240,5.0,105.0
5865,67.0,4,240,7.0,105.0
5866,81.0,0,240,4.0,101.0
5867,77.0,0,0,4.0,104.0
5868,84.0,0,80,3.0,105.0
5869,83.0,60,80,3.0,105.0
5870,84.0,60,80,3.0,105.0
5871,83.0,8,240,4.0,104.0
5872,74.0,0,240,4.0,104.0
5873,83.0,60,80,3.0,105.0
5874,84.0,0,80,3.0,105.0
5875,83.0,60,80,3.0,105.0
5876,84.0,60,80,3.0,105.0
5877,62.0,0,0,5.0,105.0
5878,71.0,40,0,5.0,105.0
5879,65.0,4,0,6.0,105.0
5880,55.0,108,480,7.0,105.0
5881,55.0,4,480,8.0,105.0
5882,43.0,0,480,10.0,105.0
5883,55.0,0,240,4.0,106.0
5884,62.0,0,240,4.0,106.0
5885,65.0,16,240,4.0,106.0
5886,71.0,0,240,4.0,106.0
5887,83.0,60,80,3.0,105.0
5888,84.0,16,80,3.0,105.0
5889,83.0,60,80,3.0,105.0
5890,84.0,60,80,3.0,105.0
5891,62.0,40,0,5.0,105.0
5892,43.0,0,240,4.0,109.0
5893,83.0,60,80,3.0,105.0
5894,74.0,0,119,4.0,112.0
5895,77.0,0,124,4.0,112.0
5896,83.0,0,139,4.0,112.0
5897,71.0,0,179,5.0,105.0
5898,81.0,12,169,3.0,105.0
5899,83.0,120,89,3.0,105.0
5900,65.0,4,240,6.0,105.0
5901,67.0,4,240,7.0,105.0
5902,55.0,8,1920,2.0,105.0
5903,55.0,12,139,5.0,105.0
5904,84.0,8,480,4.0,114.0
5905,60.0,0,480,4.0,114.0
5906,72.0,0,572,4.0,113.0
5907,79.0,0,512,4.0,114.0
5908,48.0,28,572,4.0,113.0
5909,76.0,0,540,4.0,114.0
5910,55.0,18,512,4.0,114.0
5911,52.0,20,540,4.0,114.0
5912,84.0,0,480,3.0,117.0
5913,64.0,10,712,5.0,105.0
5914,72.0,12,684,5.0,105.0
5915,55.0,4,684,6.0,105.0
5916,64.0,0,684,6.0,105.0
5917,84.0,6,684,0.0,105.0
5918,60.0,2,684,8.0,105.0
5919,48.0,0,684,10.0,105.0
5920,60.0,0,684,2.0,105.0
5921,79.0,700,228,5.0,105.0
5922,67.0,4,228,6.0,105.0
5923,79.0,6,228,0.0,105.0
5924,55.0,2,228,8.0,105.0
5925,43.0,8,228,10.0,105.0
5926,55.0,0,228,2.0,105.0
5927,76.0,220,228,5.0,105.0
5928,64.0,4,228,6.0,105.0
5929,76.0,6,228,0.0,105.0
5930,52.0,2,228,8.0,105.0
5931,40.0,8,228,10.0,105.0
5932,52.0,0,228,2.0,105.0
5933,72.0,220,228,5.0,105.0
5934,60.0,4,228,6.0,105.0
5935,72.0,6,228,0.0,105.0
5936,48.0,2,228,8.0,105.0
5937,48.0,0,228,2.0,105.0
5938,36.0,8,228,10.0,105.0
5939,76.0,220,228,5.0,105.0
5940,64.0,4,228,6.0,105.0
5941,76.0,6,228,0.0,105.0
5942,52.0,2,228,8.0,105.0
5943,52.0,0,228,2.0,105.0
5944,40.0,8,228,10.0,105.0
5945,79.0,220,228,5.0,105.0
5946,67.0,4,228,6.0,105.0
5947,79.0,6,228,0.0,105.0
5948,55.0,2,228,8.0,105.0
5949,43.0,0,228,10.0,105.0
5950,55.0,8,228,2.0,105.0
5951,84.0,220,684,5.0,105.0
5952,72.0,4,684,6.0,105.0
5953,84.0,6,684,0.0,105.0
5954,60.0,2,684,8.0,105.0
5955,48.0,8,684,10.0,105.0
5956,60.0,0,684,2.0,105.0
5957,79.0,700,228,5.0,105.0
5958,67.0,4,228,6.0,105.0
5959,79.0,6,228,0.0,105.0
5960,55.0,2,228,8.0,105.0
5961,43.0,0,228,10.0,105.0
5962,55.0,8,228,2.0,105.0
5963,76.0,220,228,5.0,105.0
5964,64.0,4,228,6.0,105.0
5965,76.0,6,228,0.0,105.0
5966,52.0,2,228,8.0,105.0
5967,52.0,0,228,2.0,105.0
5968,40.0,8,228,10.0,105.0
5969,72.0,220,228,5.0,105.0
5970,60.0,4,228,6.0,105.0
5971,72.0,6,228,0.0,105.0
5972,48.0,2,228,8.0,105.0
5973,36.0,8,228,10.0,105.0
5974,48.0,0,228,2.0,105.0
5975,76.0,220,228,5.0,105.0
5976,64.0,4,228,6.0,105.0
5977,76.0,6,228,0.0,105.0
5978,52.0,2,228,8.0,105.0
5979,52.0,0,228,2.0,105.0
5980,40.0,8,228,10.0,105.0
5981,79.0,220,228,5.0,105.0
5982,67.0,4,228,6.0,105.0
5983,79.0,6,228,0.0,105.0
5984,55.0,2,228,8.0,105.0
5985,55.0,0,228,2.0,105.0
5986,43.0,8,228,10.0,105.0
5987,84.0,6,456,0.0,105.0
5988,60.0,8,456,2.0,105.0
5989,84.0,220,480,5.0,105.0
5990,72.0,4,480,6.0,105.0
5991,60.0,2,480,8.0,105.0
5992,48.0,0,480,10.0,105.0
5993,60.0,220,240,5.0,70.0
5994,48.0,2,549,8.0,70.0
5995,36.0,8,549,10.0,70.0
5996,72.0,470,560,0.0,70.0
5997,59.0,220,240,5.0,70.0
5998,47.0,2,549,8.0,70.0
5999,71.0,250,552,0.0,70.0
6000,35.0,8,549,10.0,70.0
6001,72.0,250,424,0.0,70.0
6002,48.0,2,444,8.0,70.0
6003,36.0,8,444,10.0,70.0
6004,60.0,220,240,5.0,70.0
6005,62.0,240,96,5.0,105.0
6006,50.0,2,192,8.0,105.0
6007,38.0,0,192,10.0,105.0
6008,74.0,10,240,0.0,95.0
6009,62.0,220,96,5.0,105.0
6010,62.0,8,480,2.0,105.0
6011,62.0,220,240,5.0,70.0
6012,74.0,250,544,0.0,70.0
6013,50.0,2,549,8.0,70.0
6014,38.0,8,549,10.0,70.0
6015,61.0,220,240,5.0,70.0
6016,49.0,2,549,8.0,70.0
6017,37.0,8,549,10.0,70.0
6018,73.0,250,560,0.0,70.0
6019,74.0,250,400,0.0,70.0
6020,50.0,2,434,8.0,70.0
6021,38.0,8,434,10.0,70.0
6022,62.0,220,240,5.0,70.0
6023,64.0,240,96,5.0,105.0
6024,52.0,2,192,8.0,105.0
6025,40.0,8,192,10.0,105.0
6026,76.0,10,240,0.0,92.0
6027,64.0,220,96,5.0,105.0
6028,52.0,0,480,2.0,105.0
6029,64.0,0,480,2.0,105.0
6030,64.0,220,240,5.0,70.0
6031,52.0,2,539,8.0,70.0
6032,40.0,8,539,10.0,70.0
6033,76.0,250,552,0.0,70.0
6034,63.0,220,240,5.0,70.0
6035,75.0,250,552,0.0,70.0
6036,51.0,2,559,8.0,70.0
6037,39.0,8,559,10.0,70.0
6038,76.0,250,408,0.0,70.0
6039,52.0,2,434,8.0,70.0
6040,40.0,8,434,10.0,70.0
6041,64.0,220,240,5.0,70.0
6042,65.0,220,240,5.0,80.0
6043,53.0,2,539,8.0,70.0
6044,41.0,8,539,10.0,70.0
6045,77.0,250,552,0.0,70.0
6046,67.0,220,240,5.0,80.0
6047,55.0,2,539,8.0,80.0
6048,43.0,8,539,10.0,80.0
6049,79.0,250,552,0.0,80.0
6050,69.0,220,240,5.0,90.0
6051,81.0,250,536,0.0,80.0
6052,57.0,2,559,8.0,90.0
6053,45.0,8,559,10.0,90.0
6054,83.0,250,440,0.0,90.0
6055,59.0,2,439,8.0,90.0
6056,47.0,8,439,10.0,90.0
6057,71.0,220,240,5.0,90.0
6058,67.0,0,120,4.0,105.0
6059,79.0,120,120,4.0,105.0
6060,67.0,120,120,4.0,105.0
6061,72.0,240,480,5.0,105.0
6062,84.0,10,480,0.0,105.0
6063,60.0,2,480,8.0,105.0
6064,48.0,8,480,10.0,105.0
6065,79.0,120,120,4.0,105.0
6066,67.0,0,120,4.0,70.0
6067,79.0,120,120,4.0,70.0
6068,60.0,0,240,4.0,70.0
6069,72.0,120,289,3.0,82.0
6070,67.0,120,120,4.0,70.0
6071,84.0,0,199,3.0,82.0
6072,79.0,120,120,4.0,70.0
6073,64.0,0,240,4.0,70.0
6074,67.0,0,120,4.0,70.0
6075,62.0,0,240,4.0,70.0
6076,79.0,120,120,4.0,70.0
6077,71.0,120,309,3.0,82.0
6078,67.0,0,120,4.0,70.0
6079,83.0,120,179,3.0,82.0
6080,65.0,0,240,4.0,70.0
6081,79.0,120,120,4.0,70.0
6082,67.0,0,120,4.0,70.0
6083,60.0,120,240,4.0,70.0
6084,79.0,120,120,4.0,70.0
6085,72.0,0,299,3.0,82.0
6086,67.0,0,120,4.0,70.0
6087,84.0,120,179,3.0,82.0
6088,79.0,120,120,4.0,70.0
6089,64.0,0,240,4.0,70.0
6090,67.0,0,120,4.0,105.0
6091,79.0,120,120,4.0,105.0
6092,67.0,120,120,4.0,105.0
6093,86.0,120,480,3.0,105.0
6094,59.0,0,0,4.0,70.0
6095,79.0,120,120,4.0,105.0
6096,67.0,0,120,4.0,70.0
6097,79.0,120,120,4.0,70.0
6098,74.0,120,329,3.0,83.0
6099,67.0,120,120,4.0,70.0
6100,86.0,0,199,3.0,83.0
6101,79.0,120,120,4.0,70.0
6102,62.0,0,240,4.0,70.0
6103,67.0,0,120,4.0,70.0
6104,58.0,0,240,4.0,70.0
6105,79.0,120,120,4.0,70.0
6106,73.0,120,299,3.0,83.0
6107,67.0,0,120,4.0,70.0
6108,85.0,120,159,3.0,82.0
6109,61.0,0,240,4.0,70.0
6110,79.0,120,120,4.0,70.0
6111,67.0,120,120,4.0,70.0
6112,79.0,120,120,4.0,70.0
6113,59.0,0,240,4.0,70.0
6114,74.0,0,309,3.0,82.0
6115,67.0,0,120,4.0,70.0
6116,86.0,120,189,3.0,82.0
6117,62.0,0,240,4.0,70.0
6118,79.0,120,120,4.0,70.0
6119,67.0,0,120,4.0,105.0
6120,79.0,120,120,4.0,105.0
6121,67.0,120,120,4.0,105.0
6122,64.0,120,480,4.0,105.0
6123,60.0,0,480,4.0,105.0
6124,88.0,0,480,3.0,105.0
6125,79.0,120,120,4.0,105.0
6126,67.0,120,120,4.0,70.0
6127,60.0,0,240,4.0,70.0
6128,79.0,120,120,4.0,70.0
6129,64.0,0,289,3.0,81.0
6130,67.0,0,120,4.0,70.0
6131,76.0,120,169,3.0,81.0
6132,64.0,0,240,4.0,70.0
6133,79.0,120,120,4.0,70.0
6134,67.0,0,120,4.0,70.0
6135,79.0,120,120,4.0,70.0
6136,59.0,0,240,4.0,70.0
6137,63.0,120,339,3.0,81.0
6138,67.0,0,120,4.0,70.0
6139,75.0,120,189,3.0,81.0
6140,63.0,0,240,4.0,70.0
6141,79.0,120,120,4.0,70.0
6142,67.0,0,120,4.0,70.0
6143,79.0,120,120,4.0,70.0
6144,60.0,0,240,4.0,70.0
6145,64.0,120,309,3.0,81.0
6146,67.0,0,120,4.0,70.0
6147,76.0,120,179,3.0,81.0
6148,64.0,0,240,4.0,70.0
6149,79.0,120,120,4.0,70.0
6150,65.0,0,120,4.0,69.0
6151,65.0,120,128,3.0,80.0
6152,69.0,120,120,4.0,71.0
6153,57.0,0,240,4.0,69.0
6154,72.0,120,120,4.0,73.0
6155,77.0,0,128,3.0,83.0
6156,60.0,0,240,4.0,73.0
6157,77.0,120,120,4.0,75.0
6158,67.0,0,120,4.0,77.0
6159,67.0,120,128,3.0,86.0
6160,52.0,0,240,4.0,77.0
6161,72.0,120,120,4.0,80.0
6162,76.0,0,120,4.0,82.0
6163,79.0,0,128,3.0,89.0
6164,79.0,120,120,4.0,84.0
6165,60.0,120,240,4.0,82.0
6166,69.0,0,120,4.0,86.0
6167,69.0,0,128,3.0,93.0
6168,53.0,120,240,4.0,86.0
6169,72.0,120,120,4.0,89.0
6170,77.0,0,120,4.0,91.0
6171,81.0,0,128,3.0,96.0
6172,60.0,120,240,4.0,91.0
6173,81.0,120,120,4.0,93.0
6174,71.0,0,120,4.0,95.0
6175,71.0,0,128,3.0,99.0
6176,74.0,120,120,4.0,97.0
6177,50.0,120,240,4.0,95.0
6178,77.0,120,120,4.0,100.0
6179,83.0,0,128,3.0,102.0
6180,83.0,120,120,4.0,102.0
6181,59.0,0,240,4.0,100.0
6182,48.0,0,120,4.0,104.0
6183,52.0,120,120,4.0,106.0
6184,55.0,120,120,4.0,105.0
6185,60.0,120,120,4.0,105.0
6186,72.0,120,120,4.0,105.0
6187,76.0,120,120,4.0,105.0
6188,79.0,120,120,4.0,105.0
6189,84.0,120,120,4.0,105.0
6190,76.0,120,120,4.0,105.0
6191,79.0,120,120,4.0,105.0
6192,84.0,120,120,4.0,105.0
6193,88.0,120,120,4.0,105.0
6194,86.0,120,120,4.0,105.0
6195,84.0,120,120,4.0,105.0
6196,83.0,120,120,4.0,105.0
6197,84.0,120,1869,3.0,105.0
6198,84.0,120,120,4.0,105.0
6199,86.0,0,120,4.0,105.0
6200,83.0,120,120,4.0,105.0
6201,71.0,120,240,4.0,105.0
6202,84.0,0,120,4.0,105.0
6203,69.0,120,240,4.0,105.0
6204,81.0,120,120,4.0,105.0
6205,83.0,0,120,4.0,105.0
6206,79.0,120,120,4.0,105.0
6207,67.0,120,240,4.0,105.0
6208,81.0,0,120,4.0,105.0
6209,77.0,120,120,4.0,105.0
6210,65.0,120,240,4.0,105.0
6211,79.0,0,120,4.0,105.0
6212,64.0,120,240,4.0,105.0
6213,76.0,120,120,4.0,105.0
6214,77.0,120,120,4.0,105.0
6215,62.0,0,240,4.0,105.0
6216,74.0,120,120,4.0,105.0
6217,76.0,0,120,4.0,105.0
6218,72.0,120,120,4.0,105.0
6219,60.0,120,240,4.0,105.0
6220,74.0,120,120,4.0,105.0
6221,79.0,0,1859,3.0,105.0
6222,59.0,0,240,4.0,105.0
6223,71.0,120,120,4.0,105.0
6224,48.0,0,120,4.0,105.0
6225,52.0,120,120,4.0,105.0
6226,55.0,120,120,4.0,105.0
6227,60.0,120,120,4.0,105.0
6228,72.0,120,120,4.0,105.0
6229,76.0,120,120,4.0,105.0
6230,79.0,120,120,4.0,105.0
6231,84.0,120,120,4.0,105.0
6232,76.0,120,120,4.0,105.0
6233,79.0,120,120,4.0,105.0
6234,84.0,120,120,4.0,105.0
6235,88.0,120,120,4.0,105.0
6236,86.0,120,120,4.0,105.0
6237,84.0,120,120,4.0,105.0
6238,83.0,120,120,4.0,105.0
6239,72.0,120,1869,3.0,105.0
6240,84.0,120,120,4.0,105.0
6241,89.0,0,120,4.0,105.0
6242,86.0,120,120,4.0,105.0
6243,74.0,0,240,4.0,105.0
6244,88.0,120,120,4.0,105.0
6245,84.0,120,120,4.0,105.0
6246,72.0,0,240,4.0,105.0
6247,86.0,120,120,4.0,105.0
6248,71.0,0,240,4.0,105.0
6249,83.0,120,120,4.0,105.0
6250,84.0,120,120,4.0,105.0
6251,81.0,120,120,4.0,105.0
6252,69.0,0,240,4.0,105.0
6253,83.0,120,120,4.0,105.0
6254,79.0,120,120,4.0,105.0
6255,67.0,0,240,4.0,105.0
6256,81.0,0,120,4.0,105.0
6257,77.0,120,120,4.0,105.0
6258,65.0,120,240,4.0,105.0
6259,79.0,120,120,4.0,105.0
6260,64.0,0,240,4.0,105.0
6261,76.0,120,120,4.0,105.0
6262,77.0,0,120,4.0,105.0
6263,67.0,120,1839,3.0,105.0
6264,74.0,120,120,4.0,105.0
6265,62.0,120,240,4.0,105.0
6266,72.0,0,120,4.0,105.0
6267,76.0,120,120,4.0,105.0
6268,79.0,0,120,4.0,105.0
6269,72.0,120,379,3.0,105.0
6270,84.0,120,120,4.0,105.0
6271,60.0,0,480,4.0,105.0
6272,72.0,120,120,4.0,105.0
6273,88.0,120,389,3.0,105.0
6274,48.0,0,240,4.0,105.0
6275,60.0,0,240,4.0,105.0
6276,84.0,120,120,4.0,105.0
6277,71.0,0,120,4.0,105.0
6278,86.0,0,189,3.0,105.0
6279,47.0,0,240,4.0,105.0
6280,59.0,120,240,4.0,105.0
6281,83.0,120,120,4.0,105.0
6282,69.0,0,120,4.0,105.0
6283,72.0,120,120,4.0,105.0
6284,69.0,120,329,3.0,105.0
6285,76.0,120,120,4.0,105.0
6286,81.0,120,120,4.0,105.0
6287,57.0,120,0,4.0,105.0
6288,45.0,0,480,4.0,105.0
6289,69.0,0,120,4.0,105.0
6290,84.0,0,369,3.0,105.0
6291,45.0,0,240,4.0,105.0
6292,81.0,120,120,4.0,105.0
6293,67.0,120,120,4.0,105.0
6294,83.0,0,209,3.0,105.0
6295,43.0,0,240,4.0,105.0
6296,79.0,120,120,4.0,105.0
6297,55.0,0,240,4.0,105.0
6298,65.0,0,120,4.0,105.0
6299,69.0,120,120,4.0,105.0
6300,72.0,0,120,4.0,105.0
6301,65.0,0,399,3.0,105.0
6302,77.0,120,120,4.0,105.0
6303,53.0,120,480,4.0,105.0
6304,41.0,0,480,4.0,105.0
6305,65.0,120,120,4.0,105.0
6306,81.0,120,379,3.0,105.0
6307,77.0,120,120,4.0,105.0
6308,41.0,0,240,4.0,105.0
6309,53.0,0,240,4.0,105.0
6310,64.0,0,120,4.0,105.0
6311,79.0,0,149,3.0,105.0
6312,40.0,0,240,4.0,105.0
6313,52.0,120,240,4.0,105.0
6314,76.0,120,120,4.0,105.0
6315,62.0,0,120,4.0,105.0
6316,77.0,0,169,3.0,105.0
6317,74.0,120,120,4.0,105.0
6318,50.0,120,240,4.0,105.0
6319,38.0,0,240,4.0,105.0
6320,60.0,120,120,4.0,105.0
6321,76.0,0,149,3.0,105.0
6322,72.0,120,120,4.0,105.0
6323,48.0,0,240,4.0,105.0
6324,59.0,0,120,4.0,105.0
6325,74.0,120,149,3.0,105.0
6326,47.0,0,240,4.0,105.0
6327,71.0,120,120,4.0,105.0
6328,57.0,120,120,4.0,105.0
6329,72.0,0,129,3.0,105.0
6330,69.0,120,120,4.0,105.0
6331,45.0,0,240,4.0,105.0
6332,43.0,240,0,4.0,105.0
6333,55.0,0,0,4.0,105.0
6334,59.0,120,120,4.0,105.0
6335,57.0,0,120,4.0,105.0
6336,60.0,120,120,4.0,105.0
6337,45.0,120,240,4.0,105.0
6338,59.0,120,120,4.0,105.0
6339,47.0,0,240,4.0,105.0
6340,62.0,120,120,4.0,105.0
6341,60.0,120,120,4.0,105.0
6342,48.0,0,240,4.0,105.0
6343,64.0,120,120,4.0,105.0
6344,62.0,0,120,4.0,105.0
6345,65.0,120,120,4.0,105.0
6346,50.0,120,240,4.0,105.0
6347,64.0,120,120,4.0,105.0
6348,52.0,0,240,4.0,105.0
6349,67.0,120,120,4.0,105.0
6350,66.0,120,120,4.0,105.0
6351,69.0,120,120,4.0,105.0
6352,54.0,0,240,4.0,105.0
6353,79.0,120,2099,3.0,105.0
6354,67.0,0,0,4.0,105.0
6355,55.0,120,240,4.0,105.0
6356,67.0,220,96,5.0,70.0
6357,55.0,4,96,6.0,69.0
6358,55.0,4,96,7.0,71.0
6359,43.0,0,120,4.0,105.0
6360,79.0,12,128,3.0,104.0
6361,55.0,0,120,4.0,105.0
6362,71.0,120,120,4.0,105.0
6363,69.0,100,96,5.0,72.0
6364,57.0,4,96,6.0,71.0
6365,57.0,4,96,7.0,73.0
6366,45.0,12,120,4.0,105.0
6367,69.0,0,120,4.0,105.0
6368,81.0,0,128,3.0,104.0
6369,72.0,0,120,4.0,105.0
6370,57.0,120,120,4.0,105.0
6371,71.0,100,96,5.0,74.0
6372,59.0,4,96,6.0,73.0
6373,59.0,4,96,7.0,76.0
6374,71.0,0,120,4.0,105.0
6375,47.0,0,120,4.0,105.0
6376,83.0,12,128,3.0,106.0
6377,59.0,0,120,4.0,105.0
6378,74.0,120,120,4.0,105.0
6379,72.0,100,96,5.0,76.0
6380,60.0,4,96,6.0,74.0
6381,60.0,4,96,7.0,78.0
6382,72.0,0,120,4.0,105.0
6383,48.0,0,120,4.0,105.0
6384,84.0,12,128,3.0,108.0
6385,76.0,0,120,4.0,105.0
6386,60.0,120,120,4.0,105.0
6387,74.0,100,96,5.0,78.0
6388,62.0,4,96,6.0,76.0
6389,62.0,4,96,7.0,80.0
6390,50.0,0,120,4.0,105.0
6391,74.0,12,120,4.0,105.0
6392,86.0,0,128,3.0,114.0
6393,62.0,120,120,4.0,105.0
6394,77.0,0,120,4.0,105.0
6395,76.0,100,96,5.0,80.0
6396,64.0,4,96,6.0,78.0
6397,64.0,4,96,7.0,83.0
6398,52.0,12,120,4.0,105.0
6399,76.0,0,120,4.0,105.0
6400,88.0,0,128,3.0,117.0
6401,64.0,120,120,4.0,105.0
6402,79.0,0,120,4.0,105.0
6403,78.0,100,96,5.0,82.0
6404,66.0,4,96,6.0,80.0
6405,66.0,4,96,7.0,85.0
6406,78.0,0,120,4.0,105.0
6407,54.0,0,120,4.0,105.0
6408,90.0,12,128,3.0,115.0
6409,81.0,0,120,4.0,105.0
6410,66.0,120,120,4.0,105.0
6411,67.0,4,189,6.0,82.0
6412,79.0,100,194,5.0,85.0
6413,81.0,220,28,5.0,111.0
6414,79.0,28,32,5.0,111.0
6415,81.0,32,28,5.0,113.0
6416,79.0,28,32,5.0,113.0
6417,78.0,32,84,5.0,111.0
6418,67.0,4,480,7.0,88.0
6419,55.0,12,480,4.0,105.0
6420,79.0,0,480,4.0,105.0
6421,67.0,0,480,4.0,105.0
6422,91.0,0,480,3.0,110.0
6423,79.0,60,99,5.0,111.0
6424,83.0,60,240,5.0,116.0
6425,79.0,240,96,5.0,105.0
6426,74.0,240,96,5.0,105.0
6427,79.0,240,96,5.0,105.0
6428,71.0,240,96,5.0,105.0
6429,74.0,240,96,5.0,105.0
6430,67.0,240,240,5.0,105.0
6431,69.0,240,82,5.0,113.0
6432,55.0,12,96,8.0,105.0
6433,43.0,8,96,10.0,105.0
6434,67.0,40,82,5.0,116.0
6435,66.0,60,82,5.0,113.0
6436,67.0,60,82,5.0,111.0
6437,59.0,12,96,8.0,105.0
6438,47.0,8,96,10.0,105.0
6439,71.0,60,240,5.0,112.0
6440,67.0,220,96,5.0,105.0
6441,55.0,12,96,8.0,105.0
6442,43.0,8,96,10.0,105.0
6443,62.0,220,96,5.0,105.0
6444,50.0,12,96,8.0,105.0
6445,38.0,8,96,10.0,105.0
6446,67.0,220,96,5.0,105.0
6447,55.0,12,96,8.0,105.0
6448,43.0,8,96,10.0,105.0
6449,59.0,220,96,5.0,105.0
6450,47.0,12,96,8.0,105.0
6451,35.0,8,96,10.0,105.0
6452,62.0,220,96,5.0,105.0
6453,50.0,12,96,8.0,105.0
6454,38.0,8,96,10.0,105.0
6455,67.0,180,149,3.0,115.0
6456,55.0,40,480,5.0,105.0
6457,43.0,12,480,8.0,105.0
6458,31.0,0,480,10.0,105.0
6459,79.0,8,939,3.0,122.0
6460,76.0,960,279,3.0,105.0
6461,77.0,240,89,3.0,105.0
6462,76.0,60,79,3.0,105.0
6463,74.0,60,159,3.0,105.0
6464,76.0,120,199,3.0,105.0
6465,77.0,240,119,3.0,105.0
6466,48.0,240,120,4.0,105.0
6467,52.0,120,120,4.0,105.0
6468,81.0,0,289,3.0,105.0
6469,55.0,0,120,4.0,105.0
6470,79.0,120,179,3.0,105.0
6471,60.0,120,120,4.0,105.0
6472,64.0,120,120,4.0,105.0
6473,67.0,120,120,4.0,105.0
6474,64.0,120,120,4.0,105.0
6475,60.0,120,120,4.0,105.0
6476,48.0,120,120,4.0,105.0
6477,52.0,120,120,4.0,105.0
6478,55.0,120,120,4.0,105.0
6479,60.0,120,120,4.0,105.0
6480,79.0,0,960,3.0,105.0
6481,64.0,120,120,4.0,105.0
6482,77.0,0,120,3.0,105.0
6483,67.0,0,120,4.0,105.0
6484,76.0,120,120,3.0,105.0
6485,64.0,0,120,4.0,105.0
6486,74.0,120,120,3.0,105.0
6487,72.0,0,84,3.0,105.0
6488,60.0,120,120,4.0,105.0
6489,48.0,120,120,4.0,105.0
6490,53.0,120,120,4.0,105.0
6491,72.0,0,309,3.0,105.0
6492,57.0,0,120,4.0,105.0
6493,81.0,120,169,3.0,105.0
6494,60.0,120,120,4.0,105.0
6495,65.0,120,120,4.0,105.0
6496,69.0,120,120,4.0,105.0
6497,65.0,120,120,4.0,105.0
6498,60.0,120,120,4.0,105.0
6499,48.0,120,120,4.0,105.0
6500,53.0,120,120,4.0,105.0
6501,81.0,0,749,3.0,105.0
6502,57.0,0,120,4.0,105.0
6503,83.0,120,169,3.0,105.0
6504,60.0,120,120,4.0,105.0
6505,84.0,0,169,3.0,105.0
6506,65.0,0,120,4.0,105.0
6507,83.0,120,204,3.0,105.0
6508,69.0,120,120,4.0,105.0
6509,65.0,0,120,4.0,105.0
6510,81.0,120,124,3.0,105.0
6511,60.0,120,120,4.0,105.0
6512,64.0,120,120,4.0,105.0
6513,48.0,120,240,4.0,105.0
6514,60.0,120,120,4.0,105.0
6515,79.0,0,469,3.0,105.0
6516,55.0,120,120,4.0,105.0
6517,45.0,0,240,4.0,105.0
6518,64.0,120,120,4.0,105.0
6519,60.0,120,120,4.0,105.0
6520,72.0,120,459,3.0,105.0
6521,57.0,120,120,4.0,105.0
6522,62.0,120,120,4.0,105.0
6523,41.0,120,240,4.0,105.0
6524,60.0,120,120,4.0,105.0
6525,57.0,120,120,4.0,105.0
6526,43.0,120,240,4.0,105.0
6527,62.0,120,120,4.0,105.0
6528,74.0,0,769,3.0,105.0
6529,59.0,120,120,4.0,105.0
6530,76.0,0,169,3.0,105.0
6531,77.0,0,99,3.0,105.0
6532,55.0,120,120,4.0,105.0
6533,84.0,120,120,4.0,105.0
6534,79.0,120,120,4.0,105.0
6535,36.0,0,480,4.0,105.0
6536,76.0,120,120,4.0,105.0
6537,76.0,120,480,3.0,105.0
6538,72.0,120,120,4.0,105.0
6539,79.0,120,120,4.0,105.0
6540,76.0,120,120,4.0,105.0
6541,72.0,120,120,4.0,105.0
6542,67.0,120,120,4.0,105.0
6543,76.0,120,120,4.0,105.0
6544,72.0,120,120,4.0,105.0
6545,67.0,120,120,4.0,105.0
6546,64.0,120,120,4.0,105.0
6547,72.0,120,120,4.0,105.0
6548,67.0,120,120,4.0,105.0
6549,64.0,120,120,4.0,105.0
6550,36.0,120,120,4.0,105.0
6551,40.0,120,120,4.0,105.0
6552,43.0,120,120,4.0,105.0
6553,48.0,120,120,4.0,105.0
6554,60.0,120,120,4.0,105.0
6555,64.0,120,120,4.0,105.0
6556,60.0,120,120,4.0,105.0
6557,55.0,120,120,4.0,105.0
6558,36.0,120,120,4.0,105.0
6559,40.0,120,120,4.0,105.0
6560,79.0,0,1200,3.0,105.0
6561,43.0,120,120,4.0,105.0
6562,81.0,0,120,3.0,105.0
6563,48.0,120,120,4.0,105.0
6564,79.0,0,120,3.0,105.0
6565,60.0,120,120,4.0,105.0
6566,77.0,0,120,3.0,105.0
6567,76.0,0,120,3.0,105.0
6568,64.0,120,120,4.0,105.0
6569,74.0,120,120,3.0,105.0
6570,60.0,0,120,4.0,105.0
6571,55.0,120,120,4.0,105.0
6572,72.0,0,120,3.0,105.0
6573,36.0,120,120,4.0,105.0
6574,72.0,0,240,3.0,105.0
6575,41.0,120,120,4.0,105.0
6576,74.0,120,120,3.0,105.0
6577,45.0,0,120,4.0,105.0
6578,48.0,0,120,4.0,105.0
6579,76.0,120,120,3.0,105.0
6580,60.0,0,120,4.0,105.0
6581,77.0,120,120,3.0,105.0
6582,79.0,120,120,3.0,105.0
6583,65.0,0,120,4.0,105.0
6584,81.0,120,120,3.0,105.0
6585,60.0,0,120,4.0,105.0
6586,83.0,120,120,3.0,105.0
6587,57.0,0,120,4.0,105.0
6588,36.0,120,120,4.0,105.0
6589,84.0,0,120,3.0,105.0
6590,41.0,120,120,4.0,105.0
6591,83.0,0,120,3.0,105.0
6592,45.0,120,120,4.0,105.0
6593,84.0,0,120,3.0,105.0
6594,83.0,120,120,3.0,105.0
6595,48.0,0,120,4.0,105.0
6596,86.0,120,120,3.0,105.0
6597,60.0,0,120,4.0,105.0
6598,84.0,120,120,3.0,105.0
6599,65.0,0,120,4.0,105.0
6600,60.0,0,120,4.0,105.0
6601,83.0,120,120,3.0,105.0
6602,36.0,60,60,4.0,105.0
6603,57.0,120,120,4.0,105.0
6604,81.0,0,120,3.0,105.0
6605,64.0,120,120,4.0,105.0
6606,48.0,60,240,4.0,105.0
6607,60.0,120,120,4.0,105.0
6608,45.0,60,60,4.0,105.0
6609,79.0,0,480,3.0,105.0
6610,55.0,120,120,4.0,105.0
6611,72.0,120,120,4.0,105.0
6612,57.0,0,240,4.0,105.0
6613,69.0,120,120,4.0,105.0
6614,84.0,60,480,3.0,105.0
6615,41.0,60,60,4.0,105.0
6616,64.0,120,120,4.0,105.0
6617,72.0,120,120,4.0,105.0
6618,53.0,0,240,4.0,105.0
6619,69.0,120,120,4.0,105.0
6620,43.0,60,60,4.0,105.0
6621,62.0,120,120,4.0,105.0
6622,55.0,60,240,4.0,105.0
6623,71.0,120,120,4.0,105.0
6624,86.0,60,764,3.0,105.0
6625,67.0,120,120,4.0,105.0
6626,88.0,0,169,3.0,105.0
6627,89.0,120,104,3.0,105.0
6628,62.0,0,120,4.0,105.0
6629,88.0,0,120,3.0,105.0
6630,84.0,120,120,3.0,105.0
6631,79.0,16,120,3.0,105.0
6632,76.0,100,0,5.0,70.0
6633,67.0,4,0,6.0,70.0
6634,48.0,0,480,4.0,105.0
6635,64.0,12,480,4.0,105.0
6636,72.0,0,480,4.0,105.0
6637,67.0,0,480,4.0,105.0
6638,76.0,120,120,3.0,105.0
6639,72.0,16,120,3.0,105.0
6640,76.0,100,0,5.0,70.0
6641,67.0,4,0,6.0,70.0
6642,76.0,120,120,3.0,105.0
6643,79.0,16,120,3.0,105.0
6644,76.0,100,0,5.0,70.0
6645,67.0,4,0,6.0,70.0
6646,84.0,120,120,3.0,105.0
6647,76.0,220,0,5.0,70.0
6648,67.0,4,0,6.0,70.0
6649,88.0,16,240,3.0,105.0
6650,60.0,108,1440,7.0,70.0
6651,72.0,16,240,3.0,105.0
6652,71.0,12,240,3.0,105.0
6653,74.0,220,299,5.0,70.0
6654,71.0,220,164,5.0,70.0
6655,56.0,4,480,7.0,70.0
6656,86.0,20,240,3.0,105.0
6657,84.0,12,120,3.0,105.0
6658,69.0,220,240,5.0,70.0
6659,64.0,4,0,6.0,70.0
6660,81.0,120,120,3.0,105.0
6661,76.0,16,120,3.0,105.0
6662,72.0,100,240,5.0,70.0
6663,64.0,4,0,6.0,70.0
6664,72.0,120,120,3.0,105.0
6665,69.0,16,120,3.0,105.0
6666,72.0,100,0,5.0,70.0
6667,72.0,120,120,3.0,105.0
6668,76.0,16,120,3.0,105.0
6669,64.0,4,240,6.0,70.0
6670,81.0,120,120,3.0,105.0
6671,72.0,100,240,5.0,70.0
6672,64.0,4,240,6.0,70.0
6673,84.0,16,240,3.0,105.0
6674,72.0,220,209,5.0,70.0
6675,64.0,4,240,6.0,70.0
6676,57.0,8,1440,7.0,70.0
6677,69.0,16,240,3.0,105.0
6678,67.0,12,240,3.0,105.0
6679,70.0,220,304,5.0,70.0
6680,67.0,220,189,5.0,70.0
6681,52.0,4,480,7.0,70.0
6682,82.0,20,240,3.0,105.0
6683,81.0,8,120,3.0,105.0
6684,65.0,220,240,5.0,70.0
6685,60.0,4,0,6.0,70.0
6686,77.0,120,120,3.0,105.0
6687,72.0,16,120,3.0,105.0
6688,69.0,100,240,5.0,70.0
6689,69.0,120,120,3.0,105.0
6690,65.0,16,120,3.0,105.0
6691,69.0,100,240,5.0,70.0
6692,60.0,4,0,6.0,70.0
6693,69.0,120,120,3.0,105.0
6694,72.0,16,120,3.0,105.0
6695,69.0,100,240,5.0,70.0
6696,77.0,120,120,3.0,105.0
6697,69.0,100,240,5.0,70.0
6698,60.0,4,0,6.0,70.0
6699,81.0,16,240,3.0,105.0
6700,69.0,220,199,5.0,70.0
6701,53.0,4,1399,8.0,70.0
6702,41.0,0,1399,10.0,70.0
6703,65.0,16,240,3.0,105.0
6704,53.0,8,1509,7.0,70.0
6705,64.0,0,240,3.0,105.0
6706,67.0,220,299,5.0,70.0
6707,52.0,4,419,7.0,70.0
6708,64.0,220,199,5.0,70.0
6709,49.0,4,459,8.0,70.0
6710,37.0,8,459,10.0,70.0
6711,79.0,20,240,3.0,105.0
6712,79.0,8,120,3.0,105.0
6713,77.0,120,120,3.0,105.0
6714,76.0,120,120,3.0,105.0
6715,57.0,4,960,6.0,70.0
6716,77.0,8,0,3.0,105.0
6717,50.0,4,539,8.0,70.0
6718,62.0,220,559,5.0,70.0
6719,38.0,0,539,10.0,70.0
6720,50.0,8,574,7.0,70.0
6721,76.0,120,120,3.0,105.0
6722,74.0,120,120,3.0,105.0
6723,58.0,4,389,7.0,70.0
6724,61.0,100,414,5.0,70.0
6725,55.0,4,480,6.0,70.0
6726,76.0,120,120,3.0,105.0
6727,52.0,4,569,8.0,70.0
6728,40.0,0,569,10.0,70.0
6729,76.0,8,120,3.0,105.0
6730,74.0,120,120,3.0,105.0
6731,73.0,120,120,3.0,105.0
6732,74.0,120,120,3.0,105.0
6733,69.0,100,554,5.0,70.0
6734,57.0,4,559,7.0,70.0
6735,53.0,4,559,8.0,70.0
6736,41.0,0,559,10.0,70.0
6737,74.0,8,120,3.0,105.0
6738,72.0,120,120,3.0,105.0
6739,71.0,120,120,3.0,105.0
6740,60.0,8,384,7.0,70.0
6741,62.0,100,414,5.0,70.0
6742,54.0,4,414,8.0,70.0
6743,42.0,0,414,10.0,70.0
6744,57.0,4,960,6.0,70.0
6745,72.0,120,120,3.0,105.0
6746,59.0,4,240,7.0,70.0
6747,55.0,0,240,4.0,105.0
6748,43.0,0,240,4.0,105.0
6749,89.0,120,120,4.0,105.0
6750,55.0,4,300,6.0,70.0
6751,86.0,16,120,4.0,105.0
6752,55.0,4,480,8.0,70.0
6753,83.0,120,120,4.0,105.0
6754,43.0,8,480,10.0,70.0
6755,71.0,0,480,3.0,105.0
6756,59.0,104,300,6.0,70.0
6757,77.0,100,549,5.0,70.0
6758,74.0,100,174,5.0,70.0
6759,67.0,4,240,7.0,70.0
6760,77.0,12,240,4.0,105.0
6761,86.0,120,120,4.0,105.0
6762,62.0,4,300,6.0,70.0
6763,83.0,16,120,4.0,105.0
6764,79.0,120,120,4.0,105.0
6765,59.0,104,300,6.0,70.0
6766,71.0,4,240,7.0,70.0
6767,83.0,120,120,4.0,105.0
6768,74.0,12,240,4.0,105.0
6769,55.0,4,300,6.0,70.0
6770,79.0,16,120,4.0,105.0
6771,77.0,120,120,4.0,105.0
6772,59.0,104,300,6.0,70.0
6773,74.0,100,544,5.0,70.0
6774,71.0,100,174,5.0,70.0
6775,67.0,4,240,7.0,70.0
6776,79.0,120,120,4.0,105.0
6777,71.0,12,240,4.0,105.0
6778,62.0,4,300,6.0,70.0
6779,77.0,16,120,4.0,105.0
6780,59.0,104,179,6.0,70.0
6781,74.0,120,120,4.0,105.0
6782,65.0,4,240,7.0,70.0
6783,67.0,12,240,4.0,105.0
6784,77.0,120,120,4.0,105.0
6785,55.0,4,300,6.0,70.0
6786,74.0,16,120,4.0,105.0
6787,71.0,120,120,4.0,105.0
6788,59.0,104,300,6.0,70.0
6789,71.0,100,559,5.0,70.0
6790,67.0,100,174,5.0,70.0
6791,62.0,4,240,7.0,70.0
6792,65.0,12,240,4.0,105.0
6793,74.0,120,120,4.0,105.0
6794,62.0,4,300,6.0,70.0
6795,71.0,16,120,4.0,105.0
6796,67.0,120,120,4.0,105.0
6797,59.0,104,300,6.0,70.0
6798,59.0,4,240,7.0,70.0
6799,71.0,120,120,4.0,105.0
6800,62.0,12,240,4.0,105.0
6801,55.0,4,300,6.0,70.0
6802,67.0,16,120,4.0,105.0
6803,65.0,120,120,4.0,105.0
6804,59.0,104,300,6.0,70.0
6805,65.0,100,554,5.0,70.0
6806,62.0,100,159,5.0,70.0
6807,67.0,4,240,7.0,70.0
6808,67.0,120,120,4.0,105.0
6809,59.0,12,240,4.0,105.0
6810,62.0,4,300,6.0,70.0
6811,65.0,0,120,4.0,105.0
6812,59.0,104,184,6.0,70.0
6813,67.0,16,189,3.0,121.0
6814,62.0,120,120,4.0,105.0
6815,48.0,4,240,8.0,70.0
6816,36.0,8,240,10.0,70.0
6817,55.0,120,120,4.0,105.0
6818,48.0,0,240,4.0,105.0
6819,36.0,0,240,4.0,105.0
6820,60.0,120,120,4.0,105.0
6821,64.0,100,414,5.0,77.0
6822,60.0,4,414,6.0,75.0
6823,60.0,0,480,7.0,70.0
6824,67.0,4,480,7.0,70.0
6825,55.0,120,120,4.0,105.0
6826,65.0,100,28,5.0,81.0
6827,62.0,4,28,6.0,82.0
6828,64.0,8,32,5.0,81.0
6829,60.0,4,32,6.0,82.0
6830,65.0,28,28,5.0,83.0
6831,62.0,4,28,6.0,85.0
6832,88.0,0,569,3.0,116.0
6833,64.0,8,120,4.0,105.0
6834,64.0,24,74,5.0,85.0
6835,60.0,4,89,6.0,85.0
6836,84.0,0,189,3.0,105.0
6837,60.0,8,240,8.0,70.0
6838,48.0,0,240,10.0,70.0
6839,60.0,16,120,4.0,105.0
6840,62.0,28,159,5.0,81.0
6841,59.0,4,159,6.0,84.0
6842,67.0,16,120,4.0,105.0
6843,64.0,100,169,5.0,78.0
6844,60.0,4,169,6.0,78.0
6845,64.0,16,120,4.0,105.0
6846,65.0,100,164,5.0,78.0
6847,62.0,4,189,6.0,77.0
6848,55.0,8,240,8.0,70.0
6849,60.0,120,120,4.0,105.0
6850,43.0,0,240,10.0,70.0
6851,72.0,8,240,4.0,105.0
6852,64.0,120,120,4.0,105.0
6853,67.0,100,480,5.0,79.0
6854,64.0,4,480,6.0,84.0
6855,60.0,120,120,4.0,105.0
6856,84.0,0,569,3.0,116.0
6857,67.0,8,120,4.0,105.0
6858,79.0,0,189,3.0,105.0
6859,52.0,112,240,8.0,70.0
6860,40.0,0,240,10.0,70.0
6861,64.0,120,120,4.0,105.0
6862,72.0,120,120,4.0,105.0
6863,67.0,120,120,4.0,105.0
6864,48.0,8,240,8.0,70.0
6865,76.0,8,240,4.0,105.0
6866,64.0,120,120,4.0,105.0
6867,36.0,0,240,10.0,70.0
6868,67.0,120,120,4.0,105.0
6869,72.0,4,389,6.0,77.0
6870,76.0,100,404,5.0,78.0
6871,64.0,120,120,4.0,105.0
6872,77.0,100,28,5.0,89.0
6873,74.0,4,28,6.0,85.0
6874,76.0,8,32,5.0,89.0
6875,72.0,4,32,6.0,85.0
6876,77.0,28,28,5.0,91.0
6877,79.0,0,549,3.0,117.0
6878,74.0,4,28,6.0,86.0
6879,72.0,0,120,4.0,105.0
6880,76.0,24,84,5.0,93.0
6881,72.0,4,89,6.0,86.0
6882,76.0,0,169,3.0,105.0
6883,52.0,8,240,8.0,70.0
6884,67.0,16,120,4.0,105.0
6885,40.0,8,240,10.0,70.0
6886,74.0,28,159,5.0,89.0
6887,71.0,4,159,6.0,90.0
6888,76.0,16,120,4.0,105.0
6889,76.0,100,164,5.0,82.0
6890,72.0,4,164,6.0,85.0
6891,72.0,16,120,4.0,105.0
6892,77.0,100,159,5.0,82.0
6893,74.0,4,179,6.0,87.0
6894,55.0,8,240,8.0,70.0
6895,67.0,120,120,4.0,105.0
6896,79.0,8,240,4.0,105.0
6897,43.0,0,240,10.0,70.0
6898,72.0,120,120,4.0,105.0
6899,79.0,100,480,5.0,88.0
6900,76.0,4,480,6.0,94.0
6901,67.0,120,120,4.0,105.0
6902,76.0,0,564,3.0,121.0
6903,76.0,0,120,4.0,105.0
6904,72.0,8,189,3.0,105.0
6905,60.0,112,240,8.0,70.0
6906,72.0,120,120,4.0,105.0
6907,48.0,0,240,10.0,70.0
6908,79.0,120,120,4.0,105.0
6909,76.0,120,120,4.0,105.0
6910,55.0,4,240,7.0,70.0
6911,77.0,120,120,4.0,105.0
6912,55.0,0,240,4.0,105.0
6913,43.0,0,240,4.0,105.0
6914,55.0,4,300,6.0,70.0
6915,74.0,16,120,4.0,105.0
6916,55.0,2,480,8.0,70.0
6917,43.0,0,480,10.0,70.0
6918,67.0,0,480,3.0,105.0
6919,71.0,120,120,4.0,105.0
6920,59.0,104,300,6.0,70.0
6921,77.0,100,544,5.0,70.0
6922,74.0,100,169,5.0,70.0
6923,67.0,4,240,7.0,70.0
6924,65.0,12,240,4.0,105.0
6925,74.0,120,120,4.0,105.0
6926,62.0,4,300,6.0,70.0
6927,71.0,16,120,4.0,105.0
6928,67.0,120,120,4.0,105.0
6929,59.0,104,300,6.0,70.0
6930,71.0,4,240,7.0,70.0
6931,62.0,12,240,4.0,105.0
6932,71.0,120,120,4.0,105.0
6933,55.0,4,300,6.0,70.0
6934,67.0,16,120,4.0,105.0
6935,65.0,120,120,4.0,105.0
6936,59.0,104,300,6.0,70.0
6937,74.0,100,559,5.0,70.0
6938,71.0,100,179,5.0,70.0
6939,67.0,4,240,7.0,70.0
6940,67.0,120,120,4.0,105.0
6941,59.0,12,240,4.0,105.0
6942,62.0,4,300,6.0,70.0
6943,65.0,16,120,4.0,105.0
6944,59.0,104,169,6.0,70.0
6945,62.0,120,120,4.0,105.0
6946,65.0,4,240,7.0,70.0
6947,67.0,12,240,3.0,105.0
6948,55.0,0,240,4.0,105.0
6949,65.0,120,120,4.0,105.0
6950,55.0,4,300,6.0,70.0
6951,69.0,16,120,3.0,105.0
6952,62.0,0,120,4.0,105.0
6953,71.0,0,120,3.0,105.0
6954,59.0,120,120,4.0,105.0
6955,59.0,104,300,6.0,70.0
6956,71.0,100,564,5.0,70.0
6957,72.0,12,120,3.0,105.0
6958,67.0,100,169,5.0,70.0
6959,62.0,4,240,7.0,70.0
6960,53.0,0,240,4.0,105.0
6961,62.0,120,120,4.0,105.0
6962,74.0,0,120,3.0,105.0
6963,62.0,4,300,6.0,70.0
6964,59.0,0,120,4.0,105.0
6965,76.0,16,120,3.0,105.0
6966,77.0,0,120,3.0,105.0
6967,55.0,120,120,4.0,105.0
6968,59.0,104,300,6.0,70.0
6969,79.0,12,120,3.0,105.0
6970,59.0,4,240,7.0,70.0
6971,50.0,0,240,4.0,105.0
6972,59.0,0,120,4.0,105.0
6973,81.0,120,120,3.0,105.0
6974,55.0,4,300,6.0,70.0
6975,83.0,0,120,3.0,105.0
6976,55.0,16,120,4.0,105.0
6977,53.0,0,120,4.0,105.0
6978,84.0,120,120,3.0,105.0
6979,59.0,104,300,6.0,70.0
6980,65.0,100,549,5.0,70.0
6981,62.0,100,174,5.0,70.0
6982,86.0,12,189,3.0,105.0
6983,67.0,4,240,7.0,70.0
6984,47.0,0,240,4.0,105.0
6985,55.0,120,120,4.0,105.0
6986,62.0,4,300,6.0,70.0
6987,53.0,0,120,4.0,105.0
6988,59.0,104,189,6.0,70.0
6989,86.0,16,189,3.0,105.0
6990,77.0,0,3840,0.0,70.0
6991,71.0,2,3840,1.0,70.0
6992,50.0,120,120,4.0,105.0
6993,55.0,0,3840,2.0,70.0
6994,62.0,8,3840,2.0,70.0
6995,48.0,2,240,8.0,70.0
6996,48.0,0,240,4.0,105.0
6997,52.0,120,120,4.0,105.0
6998,36.0,0,240,10.0,70.0
6999,36.0,0,240,4.0,105.0
7000,55.0,120,120,4.0,105.0
7001,60.0,4,399,6.0,76.0
7002,64.0,100,409,5.0,82.0
7003,67.0,0,480,7.0,70.0
7004,60.0,4,480,7.0,70.0
7005,52.0,120,120,4.0,105.0
7006,65.0,100,28,5.0,85.0
7007,62.0,4,28,6.0,87.0
7008,64.0,8,32,5.0,85.0
7009,60.0,4,32,6.0,87.0
7010,65.0,28,28,5.0,86.0
7011,62.0,4,28,6.0,87.0
7012,88.0,8,569,3.0,120.0
7013,60.0,0,120,4.0,105.0
7014,60.0,4,79,6.0,87.0
7015,64.0,24,84,5.0,84.0
7016,84.0,0,189,3.0,105.0
7017,60.0,8,240,8.0,70.0
7018,48.0,8,240,10.0,70.0
7019,55.0,16,120,4.0,105.0
7020,59.0,4,159,6.0,83.0
7021,62.0,28,164,5.0,84.0
7022,64.0,16,120,4.0,105.0
7023,60.0,4,159,6.0,83.0
7024,64.0,100,169,5.0,83.0
7025,60.0,16,120,4.0,105.0
7026,62.0,4,174,6.0,85.0
7027,65.0,100,179,5.0,86.0
7028,55.0,8,240,8.0,70.0
7029,43.0,0,240,10.0,70.0
7030,60.0,120,120,4.0,105.0
7031,72.0,0,240,4.0,105.0
7032,64.0,120,120,4.0,105.0
7033,67.0,100,480,5.0,93.0
7034,64.0,4,480,6.0,90.0
7035,60.0,120,120,4.0,105.0
7036,84.0,8,549,3.0,121.0
7037,67.0,8,120,4.0,105.0
7038,79.0,0,169,3.0,105.0
7039,52.0,112,240,8.0,70.0
7040,40.0,0,240,10.0,70.0
7041,64.0,120,120,4.0,105.0
7042,72.0,120,120,4.0,105.0
7043,67.0,120,120,4.0,105.0
7044,48.0,8,240,8.0,70.0
7045,76.0,8,240,4.0,105.0
7046,64.0,120,120,4.0,105.0
7047,36.0,0,240,10.0,70.0
7048,67.0,120,120,4.0,105.0
7049,72.0,4,419,6.0,80.0
7050,76.0,100,424,5.0,79.0
7051,64.0,120,120,4.0,105.0
7052,77.0,100,28,5.0,86.0
7053,74.0,4,28,6.0,84.0
7054,76.0,8,32,5.0,87.0
7055,72.0,4,32,6.0,85.0
7056,77.0,28,28,5.0,87.0
7057,74.0,4,28,6.0,85.0
7058,79.0,0,569,3.0,117.0
7059,72.0,0,120,4.0,105.0
7060,72.0,4,84,6.0,85.0
7061,76.0,24,99,5.0,86.0
7062,76.0,8,189,3.0,105.0
7063,52.0,8,240,8.0,70.0
7064,40.0,0,240,10.0,70.0
7065,67.0,16,120,4.0,105.0
7066,74.0,28,149,5.0,83.0
7067,71.0,4,159,6.0,82.0
7068,76.0,16,120,4.0,105.0
7069,76.0,100,159,5.0,83.0
7070,72.0,4,159,6.0,82.0
7071,74.0,4,120,6.0,87.0
7072,72.0,16,120,4.0,105.0
7073,77.0,100,159,5.0,85.0
7074,55.0,8,240,8.0,70.0
7075,79.0,0,240,4.0,105.0
7076,67.0,120,120,4.0,105.0
7077,43.0,8,240,10.0,70.0
7078,72.0,120,120,4.0,105.0
7079,79.0,100,480,5.0,90.0
7080,76.0,4,480,6.0,91.0
7081,67.0,120,120,4.0,105.0
7082,76.0,0,589,3.0,120.0
7083,76.0,0,120,4.0,105.0
7084,72.0,0,169,3.0,105.0
7085,60.0,112,240,8.0,70.0
7086,72.0,120,120,4.0,105.0
7087,48.0,8,240,10.0,70.0
7088,79.0,120,120,4.0,105.0
7089,72.0,0,3840,1.0,70.0
7090,76.0,2,3840,0.0,70.0
7091,76.0,120,120,4.0,105.0
7092,60.0,0,3840,2.0,70.0
7093,64.0,0,3840,2.0,70.0
7094,71.0,2,96,1.0,92.0
7095,74.0,0,96,0.0,92.0
7096,71.0,4,154,6.0,105.0
7097,74.0,104,74,6.0,105.0
7098,67.0,4,240,7.0,105.0
7099,55.0,2,240,8.0,105.0
7100,43.0,0,240,10.0,105.0
7101,79.0,120,44,6.0,105.0
7102,79.0,104,44,6.0,105.0
7103,55.0,100,480,5.0,103.0
7104,67.0,0,480,5.0,103.0
7105,71.0,4,240,7.0,105.0
7106,59.0,2,240,8.0,105.0
7107,79.0,0,480,3.0,105.0
7108,74.0,0,480,4.0,105.0
7109,47.0,8,240,10.0,105.0
7110,71.0,8,480,4.0,105.0
7111,55.0,0,480,4.0,105.0
7112,62.0,0,480,2.0,105.0
7113,43.0,0,480,4.0,105.0
7114,55.0,0,480,2.0,105.0
7115,74.0,2,304,0.0,91.0
7116,79.0,120,120,6.0,105.0
7117,71.0,2,184,1.0,91.0
7118,77.0,0,184,0.0,91.0
7119,79.0,104,120,6.0,105.0
7120,74.0,4,240,7.0,105.0
7121,62.0,2,240,8.0,105.0
7122,50.0,8,240,10.0,105.0
7123,77.0,2,96,0.0,91.0
7124,71.0,0,96,1.0,91.0
7125,79.0,4,120,6.0,105.0
7126,83.0,116,240,5.0,103.0
7127,74.0,0,240,5.0,103.0
7128,79.0,104,120,6.0,105.0
7129,67.0,4,240,7.0,105.0
7130,55.0,2,240,8.0,105.0
7131,43.0,0,240,10.0,105.0
7132,55.0,0,240,2.0,105.0
7133,62.0,8,240,2.0,105.0
7134,72.0,4,154,6.0,105.0
7135,76.0,104,84,6.0,105.0
7136,76.0,0,240,5.0,103.0
7137,84.0,116,0,5.0,103.0
7138,72.0,4,240,7.0,105.0
7139,60.0,2,240,8.0,105.0
7140,60.0,0,0,2.0,105.0
7141,64.0,0,0,2.0,105.0
7142,48.0,8,240,10.0,105.0
7143,79.0,4,44,6.0,105.0
7144,79.0,104,44,6.0,105.0
7145,76.0,0,240,5.0,103.0
7146,67.0,4,240,7.0,105.0
7147,72.0,0,480,1.0,91.0
7148,76.0,2,480,0.0,91.0
7149,55.0,4,240,8.0,105.0
7150,60.0,0,0,2.0,105.0
7151,64.0,8,0,2.0,105.0
7152,43.0,8,240,10.0,105.0
7153,79.0,4,120,6.0,105.0
7154,84.0,0,240,5.0,103.0
7155,76.0,116,240,5.0,103.0
7156,79.0,4,0,6.0,105.0
7157,64.0,4,240,7.0,105.0
7158,52.0,4,240,8.0,105.0
7159,64.0,0,0,2.0,105.0
7160,40.0,0,240,10.0,105.0
7161,60.0,0,0,2.0,105.0
7162,84.0,116,240,5.0,103.0
7163,76.0,0,240,5.0,103.0
7164,79.0,104,120,6.0,105.0
7165,60.0,4,240,7.0,105.0
7166,72.0,0,240,1.0,91.0
7167,76.0,2,240,0.0,91.0
7168,48.0,2,240,8.0,105.0
7169,36.0,8,240,10.0,105.0
7170,74.0,2,96,0.0,91.0
7171,71.0,0,96,1.0,91.0
7172,71.0,4,159,6.0,105.0
7173,74.0,104,79,6.0,105.0
7174,67.0,4,240,7.0,105.0
7175,55.0,2,240,8.0,105.0
7176,43.0,8,240,10.0,105.0
7177,79.0,120,44,6.0,105.0
7178,79.0,104,44,6.0,105.0
7179,83.0,116,480,5.0,103.0
7180,74.0,0,480,5.0,103.0
7181,71.0,4,240,7.0,105.0
7182,59.0,2,240,8.0,105.0
7183,47.0,8,240,10.0,105.0
7184,55.0,0,480,2.0,105.0
7185,62.0,0,480,2.0,105.0
7186,74.0,2,304,0.0,91.0
7187,79.0,104,0,6.0,105.0
7188,77.0,2,192,0.0,91.0
7189,71.0,0,192,1.0,91.0
7190,79.0,4,0,6.0,105.0
7191,74.0,4,240,7.0,105.0
7192,62.0,2,240,8.0,105.0
7193,50.0,8,240,10.0,105.0
7194,77.0,0,96,0.0,92.0
7195,71.0,2,96,1.0,92.0
7196,79.0,104,0,6.0,105.0
7197,74.0,0,240,5.0,104.0
7198,83.0,116,240,5.0,104.0
7199,67.0,4,240,7.0,105.0
7200,55.0,2,240,8.0,105.0
7201,62.0,0,240,2.0,105.0
7202,43.0,0,240,10.0,105.0
7203,55.0,8,240,2.0,105.0
7204,72.0,4,169,6.0,105.0
7205,76.0,104,99,6.0,105.0
7206,84.0,116,240,5.0,104.0
7207,76.0,116,0,5.0,104.0
7208,72.0,4,240,7.0,105.0
7209,60.0,2,240,8.0,105.0
7210,60.0,8,0,2.0,105.0
7211,64.0,0,0,2.0,105.0
7212,48.0,0,240,10.0,105.0
7213,79.0,4,44,6.0,105.0
7214,79.0,104,44,6.0,105.0
7215,84.0,116,0,5.0,104.0
7216,67.0,4,240,7.0,105.0
7217,72.0,0,480,1.0,92.0
7218,76.0,2,480,0.0,92.0
7219,55.0,4,240,8.0,105.0
7220,43.0,0,240,10.0,105.0
7221,60.0,8,0,2.0,105.0
7222,64.0,0,0,2.0,105.0
7223,79.0,104,0,6.0,105.0
7224,76.0,0,0,5.0,104.0
7225,84.0,116,0,5.0,104.0
7226,64.0,4,240,7.0,105.0
7227,52.0,4,240,8.0,105.0
7228,40.0,0,240,10.0,105.0
7229,79.0,104,0,6.0,105.0
7230,79.0,4,0,6.0,105.0
7231,60.0,4,240,7.0,105.0
7232,72.0,2,240,1.0,92.0
7233,76.0,0,240,0.0,92.0
7234,48.0,2,240,8.0,105.0
7235,36.0,0,240,10.0,105.0
7236,64.0,0,240,2.0,105.0
7237,60.0,8,240,2.0,105.0
7238,74.0,0,329,5.0,104.0
7239,83.0,116,480,5.0,104.0
7240,55.0,4,480,7.0,105.0
7241,74.0,2,480,0.0,92.0
7242,71.0,0,480,1.0,92.0
7243,43.0,2,480,8.0,105.0
7244,62.0,8,480,2.0,105.0
7245,31.0,0,480,10.0,105.0
7246,55.0,0,480,2.0,105.0
7247,62.0,400,154,5.0,104.0
7248,79.0,21,480,5.0,104.0
7249,67.0,8,480,7.0,105.0
7250,79.0,2,480,0.0,92.0
7251,55.0,2,480,8.0,105.0
7252,71.0,39,514,6.0,105.0
7253,55.0,0,480,2.0,105.0
7254,43.0,8,480,10.0,105.0
7255,67.0,0,480,2.0,105.0
7256,55.0,460,480,5.0,104.0
7257,55.0,8,480,7.0,105.0
7258,67.0,2,480,0.0,92.0
7259,43.0,2,480,8.0,105.0
7260,31.0,8,480,10.0,105.0
7261,55.0,0,480,2.0,105.0
7262,64.0,940,300,5.0,70.0
7263,60.0,4,300,6.0,70.0
7264,60.0,220,300,5.0,70.0
7265,55.0,4,300,6.0,70.0
7266,64.0,236,300,5.0,70.0
7267,60.0,4,300,6.0,70.0
7268,60.0,236,300,5.0,70.0
7269,55.0,4,300,6.0,70.0
7270,64.0,236,300,5.0,70.0
7271,60.0,4,300,6.0,70.0
7272,60.0,236,300,5.0,70.0
7273,55.0,4,300,6.0,70.0
7274,64.0,236,300,5.0,70.0
7275,60.0,4,300,6.0,70.0
7276,60.0,236,169,5.0,70.0
7277,55.0,4,189,6.0,70.0
7278,84.0,16,1920,3.0,105.0
7279,60.0,0,1920,2.0,100.0
7280,65.0,236,300,5.0,70.0
7281,62.0,4,300,6.0,70.0
7282,62.0,220,300,5.0,70.0
7283,55.0,4,300,6.0,70.0
7284,65.0,236,300,5.0,70.0
7285,62.0,4,300,6.0,70.0
7286,62.0,236,300,5.0,70.0
7287,55.0,4,300,6.0,70.0
7288,65.0,236,300,5.0,70.0
7289,62.0,4,300,6.0,70.0
7290,62.0,236,300,5.0,70.0
7291,55.0,4,300,6.0,70.0
7292,65.0,236,300,5.0,70.0
7293,62.0,4,300,6.0,70.0
7294,62.0,236,169,5.0,70.0
7295,55.0,4,174,6.0,70.0
7296,79.0,16,1920,3.0,105.0
7297,55.0,0,1920,2.0,101.0
7298,79.0,0,120,4.0,105.0
7299,64.0,0,120,4.0,105.0
7300,65.0,0,120,4.0,105.0
7301,81.0,120,120,4.0,105.0
7302,79.0,0,120,4.0,105.0
7303,64.0,120,120,4.0,105.0
7304,64.0,236,480,5.0,70.0
7305,60.0,4,480,6.0,70.0
7306,48.0,4,480,8.0,70.0
7307,36.0,0,480,10.0,70.0
7308,72.0,8,480,3.0,105.0
7309,62.0,0,120,4.0,105.0
7310,77.0,120,120,4.0,105.0
7311,48.0,0,480,2.0,99.0
7312,76.0,120,480,4.0,105.0
7313,60.0,0,480,4.0,105.0
7314,67.0,460,96,5.0,68.0
7315,60.0,4,1049,7.0,70.0
7316,79.0,0,96,3.0,105.0
7317,69.0,220,96,5.0,71.0
7318,81.0,20,96,3.0,105.0
7319,52.0,4,480,8.0,70.0
7320,40.0,8,480,10.0,70.0
7321,71.0,220,96,5.0,74.0
7322,83.0,20,96,3.0,105.0
7323,72.0,220,96,5.0,76.0
7324,84.0,20,96,3.0,105.0
7325,64.0,8,859,7.0,70.0
7326,72.0,220,309,5.0,79.0
7327,84.0,8,299,3.0,105.0
7328,50.0,4,480,8.0,70.0
7329,38.0,0,480,10.0,70.0
7330,71.0,220,294,5.0,75.0
7331,83.0,20,289,3.0,105.0
7332,69.0,220,304,5.0,75.0
7333,81.0,20,289,3.0,105.0
7334,67.0,220,179,5.0,75.0
7335,79.0,20,199,3.0,105.0
7336,62.0,8,1054,7.0,70.0
7337,67.0,220,120,5.0,78.0
7338,79.0,0,120,3.0,105.0
7339,65.0,100,120,5.0,81.0
7340,77.0,20,120,3.0,105.0
7341,64.0,100,120,5.0,80.0
7342,76.0,20,120,3.0,105.0
7343,65.0,100,120,5.0,73.0
7344,43.0,4,480,8.0,70.0
7345,77.0,20,120,3.0,105.0
7346,31.0,8,480,10.0,70.0
7347,69.0,100,240,5.0,76.0
7348,81.0,20,240,3.0,105.0
7349,55.0,4,899,7.0,70.0
7350,65.0,220,240,5.0,76.0
7351,59.0,4,960,6.0,70.0
7352,62.0,0,960,6.0,70.0
7353,77.0,20,240,3.0,105.0
7354,79.0,0,120,4.0,105.0
7355,64.0,0,120,4.0,105.0
7356,81.0,0,120,4.0,105.0
7357,75.0,0,240,3.0,105.0
7358,65.0,120,120,4.0,105.0
7359,63.0,220,294,5.0,72.0
7360,64.0,0,120,4.0,105.0
7361,79.0,20,120,4.0,105.0
7362,64.0,100,189,5.0,68.0
7363,60.0,4,480,6.0,70.0
7364,48.0,4,480,8.0,70.0
7365,76.0,0,240,3.0,105.0
7366,36.0,8,480,10.0,70.0
7367,77.0,120,120,4.0,105.0
7368,62.0,0,120,4.0,105.0
7369,64.0,220,44,5.0,68.0
7370,76.0,20,44,3.0,105.0
7371,65.0,100,44,5.0,69.0
7372,77.0,20,44,3.0,105.0
7373,76.0,0,480,4.0,105.0
7374,60.0,120,480,4.0,105.0
7375,67.0,100,96,5.0,70.0
7376,79.0,0,96,3.0,105.0
7377,60.0,4,1074,7.0,70.0
7378,69.0,220,96,5.0,72.0
7379,81.0,20,96,3.0,105.0
7380,52.0,4,480,8.0,70.0
7381,40.0,8,480,10.0,70.0
7382,71.0,220,96,5.0,74.0
7383,83.0,20,96,3.0,105.0
7384,72.0,220,96,5.0,76.0
7385,84.0,20,96,3.0,105.0
7386,64.0,8,879,7.0,70.0
7387,72.0,220,294,5.0,78.0
7388,84.0,0,309,3.0,105.0
7389,50.0,4,480,8.0,70.0
7390,38.0,8,480,10.0,70.0
7391,71.0,220,279,5.0,79.0
7392,83.0,30,329,3.0,105.0
7393,69.0,210,294,5.0,79.0
7394,81.0,20,279,3.0,105.0
7395,67.0,220,184,5.0,79.0
7396,79.0,20,184,3.0,105.0
7397,67.0,220,120,5.0,87.0
7398,62.0,8,1079,7.0,70.0
7399,79.0,0,120,3.0,105.0
7400,65.0,100,120,5.0,89.0
7401,77.0,20,120,3.0,105.0
7402,64.0,100,120,5.0,88.0
7403,76.0,20,120,3.0,105.0
7404,65.0,100,89,5.0,83.0
7405,43.0,4,480,8.0,70.0
7406,77.0,20,120,3.0,105.0
7407,31.0,8,480,10.0,70.0
7408,81.0,20,209,3.0,105.0
7409,69.0,100,239,5.0,83.0
7410,55.0,4,899,7.0,70.0
7411,77.0,20,209,3.0,105.0
7412,62.0,0,960,6.0,70.0
7413,65.0,220,254,5.0,77.0
7414,59.0,4,1024,6.0,70.0
7415,64.0,0,120,4.0,105.0
7416,79.0,0,120,4.0,105.0
7417,64.0,220,204,5.0,73.0
7418,76.0,0,204,3.0,105.0
7419,81.0,0,120,4.0,105.0
7420,65.0,120,120,4.0,105.0
7421,64.0,0,120,4.0,105.0
7422,79.0,0,120,4.0,105.0
7423,60.0,4,480,6.0,70.0
7424,48.0,4,480,8.0,70.0
7425,62.0,0,120,4.0,105.0
7426,77.0,120,120,4.0,105.0
7427,36.0,0,480,10.0,70.0
7428,84.0,20,539,3.0,105.0
7429,72.0,100,569,5.0,68.0
7430,76.0,0,480,4.0,105.0
7431,60.0,120,480,4.0,105.0
7432,60.0,4,1064,7.0,70.0
7433,70.0,220,544,5.0,70.0
7434,82.0,20,544,3.0,105.0
7435,48.0,4,480,8.0,70.0
7436,36.0,8,480,10.0,70.0
7437,69.0,220,549,5.0,70.0
7438,81.0,20,549,3.0,105.0
7439,58.0,228,884,7.0,70.0
7440,69.0,0,120,4.0,105.0
7441,84.0,8,120,4.0,105.0
7442,67.0,460,389,5.0,70.0
7443,79.0,20,419,3.0,105.0
7444,86.0,0,120,4.0,105.0
7445,70.0,120,120,4.0,105.0
7446,84.0,0,120,4.0,105.0
7447,69.0,0,120,4.0,105.0
7448,48.0,4,480,8.0,70.0
7449,36.0,0,480,10.0,70.0
7450,67.0,120,120,4.0,105.0
7451,82.0,0,120,4.0,105.0
7452,65.0,100,529,5.0,70.0
7453,77.0,20,554,3.0,105.0
7454,65.0,0,480,4.0,105.0
7455,81.0,120,480,4.0,105.0
7456,57.0,228,1059,7.0,70.0
7457,72.0,220,549,5.0,70.0
7458,84.0,20,554,3.0,105.0
7459,48.0,4,480,8.0,70.0
7460,36.0,8,480,10.0,70.0
7461,70.0,220,564,5.0,70.0
7462,82.0,20,589,3.0,105.0
7463,53.0,228,849,7.0,70.0
7464,82.0,0,120,4.0,105.0
7465,67.0,8,120,4.0,105.0
7466,69.0,460,429,5.0,70.0
7467,81.0,20,414,3.0,105.0
7468,69.0,120,120,4.0,105.0
7469,84.0,0,120,4.0,105.0
7470,67.0,0,120,4.0,105.0
7471,82.0,20,120,4.0,105.0
7472,48.0,4,480,8.0,70.0
7473,81.0,120,120,4.0,105.0
7474,36.0,0,480,10.0,70.0
7475,65.0,0,120,4.0,105.0
7476,67.0,100,549,5.0,70.0
7477,79.0,0,584,3.0,105.0
7478,79.0,0,480,4.0,105.0
7479,64.0,120,480,4.0,105.0
7480,52.0,228,1069,7.0,70.0
7481,72.0,220,534,5.0,70.0
7482,84.0,20,554,3.0,105.0
7483,48.0,4,480,8.0,70.0
7484,36.0,8,480,10.0,70.0
7485,70.0,220,569,5.0,70.0
7486,82.0,20,554,3.0,105.0
7487,64.0,228,844,7.0,70.0
7488,68.0,460,194,5.0,67.0
7489,80.0,20,189,3.0,105.0
7490,60.0,0,5760,2.0,70.0
7491,48.0,8,5760,2.0,70.0
7492,69.0,220,96,5.0,68.0
7493,81.0,0,94,3.0,110.0
7494,69.0,0,120,4.0,105.0
7495,83.0,60,94,3.0,115.0
7496,72.0,0,120,4.0,105.0
7497,53.0,12,240,4.0,105.0
7498,72.0,100,96,5.0,70.0
7499,77.0,20,120,4.0,105.0
7500,84.0,60,309,3.0,123.0
7501,65.0,8,480,7.0,70.0
7502,72.0,120,120,4.0,105.0
7503,57.0,0,240,4.0,105.0
7504,77.0,100,96,5.0,71.0
7505,84.0,20,96,3.0,105.0
7506,81.0,0,120,4.0,105.0
7507,60.0,0,240,4.0,105.0
7508,77.0,120,120,4.0,105.0
7509,81.0,100,96,5.0,73.0
7510,72.0,4,96,6.0,67.0
7511,84.0,0,96,3.0,105.0
7512,72.0,16,120,4.0,105.0
7513,69.0,120,120,4.0,105.0
7514,53.0,0,240,4.0,105.0
7515,72.0,4,96,6.0,69.0
7516,67.0,0,120,4.0,105.0
7517,72.0,120,120,4.0,105.0
7518,52.0,0,240,4.0,105.0
7519,76.0,104,96,6.0,72.0
7520,72.0,4,96,7.0,70.0
7521,76.0,12,120,4.0,105.0
7522,79.0,100,480,5.0,74.0
7523,55.0,0,240,4.0,105.0
7524,72.0,120,120,4.0,105.0
7525,84.0,16,480,3.0,105.0
7526,72.0,104,96,6.0,74.0
7527,67.0,4,96,7.0,70.0
7528,79.0,12,120,4.0,105.0
7529,60.0,0,240,4.0,105.0
7530,76.0,120,120,4.0,105.0
7531,67.0,104,96,6.0,77.0
7532,64.0,4,96,7.0,70.0
7533,72.0,0,120,4.0,105.0
7534,67.0,120,120,4.0,105.0
7535,52.0,12,240,4.0,105.0
7536,69.0,100,96,5.0,66.0
7537,81.0,0,114,3.0,104.0
7538,69.0,12,120,4.0,105.0
7539,83.0,60,114,3.0,107.0
7540,72.0,0,120,4.0,105.0
7541,53.0,0,240,4.0,105.0
7542,72.0,100,96,5.0,69.0
7543,77.0,0,120,4.0,105.0
7544,84.0,60,309,3.0,114.0
7545,72.0,4,480,6.0,78.0
7546,65.0,4,480,7.0,70.0
7547,57.0,20,240,4.0,105.0
7548,72.0,120,120,4.0,105.0
7549,77.0,100,96,5.0,72.0
7550,84.0,0,96,3.0,105.0
7551,81.0,20,120,4.0,105.0
7552,60.0,0,240,4.0,105.0
7553,77.0,120,120,4.0,105.0
7554,81.0,100,96,5.0,74.0
7555,60.0,4,96,6.0,68.0
7556,84.0,16,96,3.0,105.0
7557,72.0,0,120,4.0,105.0
7558,69.0,120,120,4.0,105.0
7559,53.0,0,240,4.0,105.0
7560,60.0,4,96,6.0,70.0
7561,67.0,0,120,4.0,105.0
7562,52.0,0,240,4.0,105.0
7563,72.0,120,120,4.0,105.0
7564,64.0,104,96,6.0,72.0
7565,60.0,4,96,7.0,70.0
7566,76.0,0,120,4.0,105.0
7567,79.0,100,480,5.0,77.0
7568,84.0,16,480,3.0,105.0
7569,72.0,120,120,4.0,105.0
7570,55.0,12,240,4.0,105.0
7571,60.0,104,96,6.0,74.0
7572,55.0,4,96,7.0,70.0
7573,79.0,0,120,4.0,105.0
7574,60.0,12,240,4.0,105.0
7575,76.0,120,120,4.0,105.0
7576,55.0,104,96,6.0,76.0
7577,52.0,4,96,7.0,70.0
7578,72.0,12,120,4.0,105.0
7579,52.0,0,240,4.0,105.0
7580,67.0,120,120,4.0,105.0
7581,50.0,0,240,4.0,105.0
7582,65.0,0,240,4.0,105.0
7583,62.0,0,120,4.0,105.0
7584,77.0,240,120,4.0,105.0
7585,60.0,104,480,6.0,78.0
7586,50.0,4,480,7.0,70.0
7587,64.0,0,120,4.0,105.0
7588,79.0,120,120,4.0,105.0
7589,65.0,0,120,4.0,105.0
7590,81.0,12,120,4.0,105.0
7591,64.0,0,120,4.0,105.0
7592,79.0,120,120,4.0,105.0
7593,62.0,120,120,4.0,105.0
7594,77.0,0,120,4.0,105.0
7595,69.0,100,480,5.0,70.0
7596,77.0,0,480,5.0,70.0
7597,72.0,4,480,6.0,70.0
7598,62.0,0,480,6.0,70.0
7599,62.0,4,480,7.0,70.0
7600,60.0,120,120,4.0,105.0
7601,76.0,0,120,4.0,105.0
7602,74.0,8,960,3.0,105.0
7603,50.0,4,1034,8.0,70.0
7604,38.0,0,1034,10.0,70.0
7605,74.0,8,120,4.0,105.0
7606,59.0,0,120,4.0,105.0
7607,60.0,120,120,4.0,105.0
7608,76.0,0,120,4.0,105.0
7609,59.0,0,120,4.0,105.0
7610,74.0,120,120,4.0,105.0
7611,57.0,120,120,4.0,105.0
7612,72.0,0,120,4.0,105.0
7613,55.0,0,120,4.0,105.0
7614,71.0,12,120,4.0,105.0
7615,53.0,120,120,4.0,105.0
7616,69.0,0,120,4.0,105.0
7617,52.0,0,120,4.0,105.0
7618,67.0,120,120,4.0,105.0
7619,55.0,112,879,8.0,70.0
7620,43.0,0,879,10.0,70.0
7621,77.0,100,480,5.0,70.0
7622,67.0,0,480,5.0,70.0
7623,71.0,0,480,6.0,70.0
7624,62.0,4,480,6.0,70.0
7625,67.0,4,480,7.0,70.0
7626,65.0,120,120,4.0,105.0
7627,50.0,0,120,4.0,105.0
7628,89.0,0,960,3.0,105.0
7629,48.0,0,240,4.0,105.0
7630,64.0,8,240,4.0,105.0
7631,60.0,0,120,4.0,105.0
7632,76.0,240,120,4.0,105.0
7633,77.0,120,120,4.0,105.0
7634,62.0,0,120,4.0,105.0
7635,79.0,12,120,4.0,105.0
7636,64.0,0,120,4.0,105.0
7637,77.0,120,120,4.0,105.0
7638,62.0,0,120,4.0,105.0
7639,60.0,0,120,4.0,105.0
7640,76.0,120,120,4.0,105.0
7641,67.0,100,480,5.0,70.0
7642,76.0,0,480,5.0,70.0
7643,72.0,4,480,6.0,70.0
7644,64.0,0,480,6.0,70.0
7645,60.0,4,480,7.0,70.0
7646,74.0,120,120,4.0,105.0
7647,72.0,0,960,3.0,105.0
7648,59.0,0,120,4.0,105.0
7649,48.0,112,1044,8.0,70.0
7650,36.0,0,1044,10.0,70.0
7651,57.0,0,120,4.0,105.0
7652,72.0,0,120,4.0,105.0
7653,59.0,0,120,4.0,105.0
7654,74.0,120,120,4.0,105.0
7655,72.0,120,120,4.0,105.0
7656,57.0,0,120,4.0,105.0
7657,55.0,0,120,4.0,105.0
7658,71.0,120,120,4.0,105.0
7659,53.0,0,120,4.0,105.0
7660,69.0,12,120,4.0,105.0
7661,52.0,0,120,4.0,105.0
7662,67.0,120,120,4.0,105.0
7663,50.0,120,120,4.0,105.0
7664,65.0,0,120,4.0,105.0
7665,57.0,112,889,8.0,70.0
7666,45.0,0,889,10.0,70.0
7667,76.0,100,480,5.0,70.0
7668,69.0,0,480,5.0,70.0
7669,64.0,0,480,6.0,70.0
7670,72.0,4,480,6.0,70.0
7671,57.0,4,480,7.0,70.0
7672,64.0,0,120,4.0,105.0
7673,48.0,120,120,4.0,105.0
7674,88.0,8,960,3.0,105.0
7675,53.0,0,240,4.0,105.0
7676,69.0,8,240,4.0,105.0
7677,74.0,0,240,3.0,105.0
7678,76.0,240,60,4.0,105.0
7679,79.0,0,60,3.0,105.0
7680,74.0,60,60,4.0,105.0
7681,77.0,0,60,3.0,105.0
7682,73.0,60,120,4.0,105.0
7683,65.0,0,240,4.0,105.0
7684,76.0,0,120,3.0,105.0
7685,74.0,0,240,4.0,105.0
7686,53.0,120,240,4.0,105.0
7687,77.0,0,240,3.0,105.0
7688,74.0,100,769,5.0,70.0
7689,77.0,220,189,5.0,78.0
7690,69.0,4,960,6.0,70.0
7691,53.0,4,960,7.0,70.0
7692,65.0,20,240,4.0,105.0
7693,77.0,0,240,4.0,105.0
7694,81.0,0,240,3.0,105.0
7695,76.0,220,96,5.0,76.0
7696,53.0,4,1044,8.0,70.0
7697,67.0,4,96,6.0,74.0
7698,41.0,0,1044,10.0,70.0
7699,79.0,8,96,3.0,105.0
7700,76.0,0,240,4.0,105.0
7701,55.0,0,240,4.0,105.0
7702,74.0,220,96,5.0,73.0
7703,65.0,4,96,6.0,72.0
7704,77.0,0,96,3.0,105.0
7705,74.0,16,240,4.0,105.0
7706,67.0,0,240,4.0,105.0
7707,72.0,220,96,5.0,70.0
7708,64.0,4,96,6.0,71.0
7709,76.0,0,96,3.0,105.0
7710,55.0,4,720,7.0,70.0
7711,72.0,0,240,4.0,105.0
7712,55.0,16,240,4.0,105.0
7713,71.0,220,96,5.0,68.0
7714,62.0,4,96,6.0,69.0
7715,74.0,0,96,3.0,105.0
7716,55.0,4,894,8.0,70.0
7717,43.0,0,894,10.0,70.0
7718,53.0,4,240,7.0,73.0
7719,67.0,12,240,4.0,105.0
7720,71.0,0,240,4.0,105.0
7721,72.0,220,96,5.0,68.0
7722,60.0,4,96,6.0,67.0
7723,52.0,4,96,7.0,68.0
7724,48.0,4,96,8.0,69.0
7725,72.0,8,96,3.0,105.0
7726,36.0,0,96,10.0,69.0
7727,72.0,0,120,4.0,105.0
7728,76.0,120,120,4.0,105.0
7729,48.0,0,240,4.0,105.0
7730,60.0,0,240,4.0,105.0
7731,74.0,100,96,5.0,71.0
7732,62.0,4,96,6.0,68.0
7733,50.0,8,96,8.0,72.0
7734,38.0,0,96,10.0,72.0
7735,74.0,0,96,3.0,105.0
7736,74.0,0,120,4.0,105.0
7737,62.0,0,240,4.0,105.0
7738,50.0,8,240,4.0,105.0
7739,77.0,120,120,4.0,105.0
7740,76.0,100,96,5.0,73.0
7741,64.0,4,96,6.0,71.0
7742,52.0,8,96,8.0,75.0
7743,76.0,0,96,3.0,105.0
7744,40.0,0,96,10.0,75.0
7745,76.0,8,120,4.0,105.0
7746,79.0,120,120,4.0,105.0
7747,64.0,0,240,4.0,105.0
7748,52.0,0,240,4.0,105.0
7749,77.0,100,96,5.0,76.0
7750,65.0,4,96,6.0,75.0
7751,53.0,8,96,8.0,79.0
7752,41.0,0,96,10.0,79.0
7753,77.0,8,96,3.0,105.0
7754,77.0,0,120,4.0,105.0
7755,81.0,120,120,4.0,105.0
7756,65.0,0,240,4.0,105.0
7757,53.0,0,240,4.0,105.0
7758,79.0,0,240,4.0,105.0
7759,79.0,100,480,5.0,78.0
7760,67.0,4,480,6.0,78.0
7761,55.0,8,480,8.0,82.0
7762,81.0,240,240,4.0,105.0
7763,67.0,0,480,4.0,105.0
7764,55.0,0,480,4.0,105.0
7765,43.0,8,480,10.0,82.0
7766,79.0,0,480,3.0,105.0
7767,83.0,240,240,4.0,105.0
7768,84.0,240,240,4.0,105.0
7769,77.0,240,120,4.0,105.0
7770,74.0,0,240,3.0,105.0
7771,79.0,120,120,4.0,105.0
7772,86.0,120,120,3.0,105.0
7773,77.0,0,120,4.0,105.0
7774,79.0,0,120,4.0,105.0
7775,88.0,120,120,3.0,105.0
7776,89.0,0,120,3.0,105.0
7777,62.0,120,120,4.0,105.0
7778,88.0,0,120,3.0,105.0
7779,60.0,120,120,4.0,105.0
7780,86.0,0,120,3.0,105.0
7781,59.0,120,120,4.0,105.0
7782,57.0,0,120,4.0,105.0
7783,77.0,0,480,4.0,105.0
7784,84.0,120,120,3.0,105.0
7785,83.0,120,120,3.0,105.0
7786,89.0,0,120,4.0,105.0
7787,88.0,120,120,4.0,105.0
7788,84.0,0,120,3.0,105.0
7789,86.0,0,120,3.0,105.0
7790,89.0,120,120,4.0,105.0
7791,84.0,0,120,3.0,105.0
7792,88.0,120,120,4.0,105.0
7793,55.0,0,480,4.0,105.0
7794,83.0,120,120,3.0,105.0
7795,67.0,0,120,4.0,105.0
7796,81.0,120,120,3.0,105.0
7797,65.0,0,120,4.0,105.0
7798,64.0,120,120,4.0,105.0
7799,79.0,0,120,3.0,105.0
7800,62.0,120,120,4.0,105.0
7801,89.0,0,480,4.0,105.0
7802,77.0,0,120,3.0,105.0
7803,79.0,0,120,4.0,105.0
7804,78.0,120,120,4.0,105.0
7805,76.0,0,240,3.0,105.0
7806,88.0,0,120,3.0,105.0
7807,79.0,120,120,4.0,105.0
7808,78.0,120,120,4.0,105.0
7809,60.0,120,480,4.0,105.0
7810,87.0,0,120,3.0,105.0
7811,55.0,0,120,4.0,105.0
7812,88.0,0,120,3.0,105.0
7813,86.0,120,120,3.0,105.0
7814,53.0,0,120,4.0,105.0
7815,84.0,120,120,3.0,105.0
7816,52.0,0,120,4.0,105.0
7817,79.0,120,480,4.0,105.0
7818,50.0,120,120,4.0,105.0
7819,83.0,0,120,3.0,105.0
7820,88.0,120,120,4.0,105.0
7821,81.0,0,120,3.0,105.0
7822,87.0,120,120,4.0,105.0
7823,83.0,0,120,3.0,105.0
7824,84.0,0,120,3.0,105.0
7825,88.0,120,120,4.0,105.0
7826,48.0,0,480,4.0,105.0
7827,83.0,120,120,3.0,105.0
7828,87.0,0,120,4.0,105.0
7829,60.0,120,120,4.0,105.0
7830,81.0,0,120,3.0,105.0
7831,79.0,120,120,3.0,105.0
7832,59.0,0,120,4.0,105.0
7833,77.0,120,120,3.0,105.0
7834,57.0,0,120,4.0,105.0
7835,76.0,120,120,3.0,105.0
7836,88.0,0,480,4.0,105.0
7837,55.0,0,120,4.0,105.0
7838,53.0,0,120,4.0,105.0
7839,57.0,120,120,4.0,105.0
7840,62.0,120,120,4.0,105.0
7841,65.0,120,120,4.0,105.0
7842,69.0,120,120,4.0,105.0
7843,74.0,120,120,4.0,105.0
7844,74.0,12,789,3.0,105.0
7845,77.0,0,120,4.0,105.0
7846,89.0,120,189,3.0,105.0
7847,65.0,4,960,6.0,78.0
7848,81.0,120,120,4.0,105.0
7849,69.0,100,1009,5.0,79.0
7850,53.0,4,1039,7.0,70.0
7851,67.0,100,96,5.0,79.0
7852,64.0,4,96,6.0,79.0
7853,88.0,12,96,3.0,105.0
7854,79.0,0,120,4.0,105.0
7855,76.0,120,120,4.0,105.0
7856,67.0,0,240,4.0,105.0
7857,65.0,100,96,5.0,77.0
7858,62.0,4,96,6.0,77.0
7859,86.0,16,96,3.0,105.0
7860,77.0,0,120,4.0,105.0
7861,74.0,120,120,4.0,105.0
7862,64.0,100,96,5.0,75.0
7863,60.0,4,96,6.0,75.0
7864,84.0,0,96,3.0,105.0
7865,76.0,0,120,4.0,105.0
7866,55.0,16,240,4.0,105.0
7867,72.0,120,120,4.0,105.0
7868,62.0,100,96,5.0,73.0
7869,59.0,4,96,6.0,73.0
7870,83.0,0,96,3.0,105.0
7871,74.0,16,120,4.0,105.0
7872,55.0,4,884,7.0,70.0
7873,71.0,120,120,4.0,105.0
7874,72.0,0,120,4.0,105.0
7875,67.0,120,120,4.0,105.0
7876,69.0,120,120,4.0,105.0
7877,60.0,100,480,5.0,71.0
7878,48.0,12,480,8.0,70.0
7879,84.0,0,480,3.0,105.0
7880,65.0,120,120,4.0,105.0
7881,36.0,0,480,10.0,70.0
7882,60.0,8,480,4.0,105.0
7883,67.0,120,120,4.0,105.0
7884,64.0,120,120,4.0,105.0
7885,65.0,120,120,4.0,105.0
7886,62.0,120,120,4.0,105.0
7887,77.0,120,120,3.0,105.0
7888,60.0,0,240,4.0,105.0
7889,76.0,120,120,3.0,105.0
7890,74.0,120,120,3.0,105.0
7891,55.0,0,240,4.0,105.0
7892,76.0,120,120,3.0,105.0
7893,79.0,120,120,3.0,105.0
7894,77.0,120,120,3.0,105.0
7895,62.0,0,240,4.0,105.0
7896,76.0,0,120,3.0,105.0
7897,77.0,120,120,3.0,105.0
7898,55.0,120,240,4.0,105.0
7899,64.0,0,240,4.0,105.0
7900,79.0,120,324,3.0,105.0
7901,84.0,240,184,3.0,105.0
7902,55.0,0,240,4.0,105.0
7903,79.0,0,129,3.0,105.0
7904,64.0,240,240,4.0,105.0
7905,79.0,0,129,3.0,105.0
7906,55.0,240,240,4.0,105.0
7907,77.0,240,120,3.0,105.0
7908,76.0,120,120,3.0,105.0
7909,60.0,0,240,4.0,105.0
7910,74.0,0,120,3.0,105.0
7911,55.0,120,240,4.0,105.0
7912,76.0,120,120,3.0,105.0
7913,79.0,120,120,3.0,105.0
7914,62.0,0,240,4.0,105.0
7915,77.0,120,120,3.0,105.0
7916,76.0,120,120,3.0,105.0
7917,77.0,120,120,3.0,105.0
7918,55.0,0,240,4.0,105.0
7919,64.0,120,240,4.0,105.0
7920,79.0,0,309,3.0,105.0
7921,84.0,0,144,3.0,105.0
7922,55.0,240,240,4.0,105.0
7923,79.0,0,96,3.0,105.0
7924,64.0,240,240,4.0,105.0
7925,79.0,240,96,3.0,105.0
7926,55.0,0,240,4.0,105.0
7927,77.0,0,120,3.0,105.0
7928,76.0,120,120,3.0,105.0
7929,60.0,240,240,4.0,105.0
7930,74.0,120,120,3.0,105.0
7931,76.0,120,120,3.0,105.0
7932,55.0,0,240,4.0,105.0
7933,79.0,120,120,3.0,105.0
7934,77.0,120,120,3.0,105.0
7935,62.0,0,240,4.0,105.0
7936,76.0,120,120,3.0,105.0
7937,55.0,0,240,4.0,105.0
7938,77.0,120,120,3.0,105.0
7939,79.0,0,96,3.0,105.0
7940,64.0,120,240,4.0,105.0
7941,79.0,0,164,3.0,105.0
7942,81.0,120,84,3.0,105.0
7943,55.0,240,240,4.0,105.0
7944,77.0,120,96,3.0,105.0
7945,62.0,0,240,4.0,105.0
7946,77.0,240,169,3.0,105.0
7947,79.0,120,89,3.0,105.0
7948,55.0,0,240,4.0,105.0
7949,76.0,120,96,3.0,105.0
7950,60.0,0,240,4.0,105.0
7951,76.0,240,164,3.0,105.0
7952,77.0,120,89,3.0,105.0
7953,55.0,0,240,4.0,105.0
7954,74.0,0,96,3.0,105.0
7955,59.0,120,240,4.0,105.0
7956,74.0,0,164,3.0,105.0
7957,76.0,120,89,3.0,105.0
7958,55.0,240,240,4.0,105.0
7959,60.0,120,120,4.0,105.0
7960,72.0,0,120,3.0,105.0
7961,67.0,120,120,3.0,105.0
7962,55.0,0,120,4.0,105.0
7963,69.0,120,120,3.0,105.0
7964,57.0,0,120,4.0,105.0
7965,71.0,120,120,3.0,105.0
7966,59.0,0,120,4.0,105.0
7967,72.0,0,120,3.0,105.0
7968,60.0,120,120,4.0,105.0
7969,74.0,120,120,3.0,105.0
7970,62.0,0,120,4.0,105.0
7971,76.0,0,120,3.0,105.0
7972,64.0,120,120,4.0,105.0
7973,62.0,0,120,4.0,105.0
7974,77.0,120,120,3.0,105.0
7975,77.0,0,120,4.0,105.0
7976,84.0,100,240,5.0,70.0
7977,72.0,4,240,6.0,70.0
7978,60.0,0,240,7.0,70.0
7979,64.0,4,240,7.0,70.0
7980,60.0,0,240,2.0,70.0
7981,64.0,12,240,2.0,70.0
7982,60.0,0,240,4.0,105.0
7983,76.0,120,120,4.0,105.0
7984,74.0,120,120,4.0,105.0
7985,55.0,0,240,4.0,105.0
7986,76.0,120,120,4.0,105.0
7987,79.0,12,120,4.0,105.0
7988,83.0,100,240,5.0,70.0
7989,71.0,4,240,6.0,70.0
7990,62.0,4,240,7.0,70.0
7991,65.0,0,240,7.0,70.0
7992,62.0,0,240,4.0,105.0
7993,62.0,0,240,2.0,70.0
7994,77.0,120,120,4.0,105.0
7995,55.0,0,240,2.0,70.0
7996,76.0,0,120,4.0,105.0
7997,77.0,120,120,4.0,105.0
7998,55.0,120,240,4.0,105.0
7999,64.0,0,240,4.0,105.0
8000,79.0,0,240,4.0,105.0
8001,84.0,100,480,5.0,70.0
8002,72.0,4,480,6.0,70.0
8003,67.0,4,480,7.0,70.0
8004,64.0,0,480,7.0,70.0
8005,60.0,12,480,2.0,70.0
8006,52.0,0,480,2.0,70.0
8007,55.0,240,240,4.0,105.0
8008,84.0,0,240,4.0,105.0
8009,64.0,0,240,4.0,105.0
8010,79.0,240,240,4.0,105.0
8011,55.0,0,240,4.0,105.0
8012,79.0,240,240,4.0,105.0
8013,77.0,0,120,4.0,105.0
8014,84.0,100,0,5.0,70.0
8015,72.0,4,0,6.0,70.0
8016,64.0,4,240,7.0,70.0
8017,60.0,0,240,7.0,70.0
8018,60.0,0,240,2.0,70.0
8019,76.0,120,120,4.0,105.0
8020,60.0,0,240,4.0,105.0
8021,64.0,12,240,2.0,70.0
8022,74.0,12,120,4.0,105.0
8023,64.0,0,240,7.0,70.0
8024,60.0,4,240,7.0,70.0
8025,76.0,120,120,4.0,105.0
8026,55.0,0,240,4.0,105.0
8027,79.0,12,120,4.0,105.0
8028,83.0,100,0,5.0,70.0
8029,71.0,4,240,6.0,70.0
8030,62.0,0,240,7.0,70.0
8031,65.0,4,240,7.0,70.0
8032,62.0,0,240,2.0,70.0
8033,55.0,0,240,2.0,70.0
8034,77.0,120,120,4.0,105.0
8035,62.0,0,240,4.0,105.0
8036,76.0,12,120,4.0,105.0
8037,71.0,4,240,6.0,70.0
8038,65.0,0,240,7.0,70.0
8039,62.0,4,240,7.0,70.0
8040,77.0,120,120,4.0,105.0
8041,55.0,0,240,4.0,105.0
8042,79.0,0,120,4.0,105.0
8043,84.0,120,120,4.0,105.0
8044,64.0,12,240,4.0,105.0
8045,88.0,120,120,4.0,105.0
8046,84.0,100,480,5.0,70.0
8047,72.0,4,480,6.0,70.0
8048,64.0,0,480,7.0,70.0
8049,67.0,4,480,7.0,70.0
8050,52.0,0,480,2.0,70.0
8051,60.0,0,480,2.0,70.0
8052,55.0,0,240,4.0,105.0
8053,84.0,120,120,4.0,105.0
8054,79.0,0,0,4.0,105.0
8055,64.0,0,240,4.0,105.0
8056,55.0,240,240,4.0,105.0
8057,77.0,10,120,4.0,105.0
8058,84.0,220,240,5.0,70.0
8059,72.0,4,240,6.0,70.0
8060,64.0,0,240,7.0,70.0
8061,60.0,4,240,7.0,70.0
8062,72.0,2,240,1.0,70.0
8063,76.0,0,240,0.0,70.0
8064,76.0,120,120,4.0,105.0
8065,60.0,0,240,4.0,105.0
8066,64.0,0,240,2.0,70.0
8067,60.0,0,240,2.0,70.0
8068,74.0,0,120,4.0,105.0
8069,76.0,120,120,4.0,105.0
8070,55.0,120,240,4.0,105.0
8071,79.0,0,120,4.0,105.0
8072,83.0,100,240,5.0,70.0
8073,71.0,4,240,6.0,70.0
8074,65.0,4,240,7.0,70.0
8075,62.0,0,240,7.0,70.0
8076,74.0,2,240,1.0,70.0
8077,77.0,0,240,0.0,70.0
8078,62.0,0,240,4.0,105.0
8079,77.0,120,120,4.0,105.0
8080,62.0,10,240,2.0,70.0
8081,55.0,0,240,2.0,70.0
8082,76.0,120,120,4.0,105.0
8083,79.0,0,4759,3.0,105.0
8084,55.0,0,240,4.0,105.0
8085,77.0,120,120,4.0,105.0
8086,79.0,0,120,4.0,105.0
8087,84.0,100,240,5.0,70.0
8088,72.0,4,240,6.0,70.0
8089,67.0,0,240,7.0,70.0
8090,64.0,4,240,7.0,70.0
8091,79.0,2,240,0.0,70.0
8092,76.0,0,240,1.0,70.0
8093,76.0,120,120,4.0,105.0
8094,52.0,10,240,2.0,70.0
8095,64.0,0,240,4.0,105.0
8096,60.0,0,240,2.0,70.0
8097,79.0,120,120,4.0,105.0
8098,91.0,0,444,3.0,105.0
8099,76.0,120,120,4.0,105.0
8100,55.0,0,240,4.0,105.0
8101,77.0,0,120,4.0,105.0
8102,79.0,100,240,5.0,70.0
8103,67.0,4,240,6.0,70.0
8104,62.0,0,240,7.0,70.0
8105,65.0,4,240,7.0,70.0
8106,74.0,0,240,1.0,70.0
8107,77.0,2,240,0.0,70.0
8108,55.0,0,240,2.0,70.0
8109,62.0,0,240,2.0,70.0
8110,74.0,120,120,4.0,105.0
8111,62.0,0,240,4.0,105.0
8112,77.0,0,120,4.0,105.0
8113,89.0,10,459,3.0,105.0
8114,55.0,120,240,4.0,105.0
8115,74.0,120,120,4.0,105.0
8116,76.0,0,120,4.0,105.0
8117,84.0,100,240,5.0,70.0
8118,72.0,4,240,6.0,70.0
8119,60.0,0,240,7.0,70.0
8120,64.0,4,240,7.0,70.0
8121,76.0,2,240,0.0,70.0
8122,72.0,0,240,1.0,70.0
8123,60.0,10,240,4.0,105.0
8124,64.0,0,240,2.0,70.0
8125,60.0,0,240,2.0,70.0
8126,72.0,120,120,4.0,105.0
8127,76.0,120,120,4.0,105.0
8128,88.0,0,449,3.0,105.0
8129,55.0,0,240,4.0,105.0
8130,72.0,120,120,4.0,105.0
8131,74.0,0,120,4.0,105.0
8132,79.0,100,240,5.0,70.0
8133,67.0,4,240,6.0,70.0
8134,62.0,0,240,7.0,70.0
8135,59.0,4,240,7.0,70.0
8136,71.0,2,240,1.0,70.0
8137,74.0,0,240,0.0,70.0
8138,55.0,0,240,2.0,70.0
8139,62.0,0,240,2.0,70.0
8140,59.0,0,240,4.0,105.0
8141,71.0,120,120,4.0,105.0
8142,74.0,0,120,4.0,105.0
8143,86.0,10,464,3.0,105.0
8144,55.0,120,240,4.0,105.0
8145,71.0,120,120,4.0,105.0
8146,67.0,0,120,4.0,105.0
8147,52.0,0,120,4.0,105.0
8148,55.0,120,120,4.0,105.0
8149,72.0,0,120,4.0,105.0
8150,76.0,0,120,4.0,105.0
8151,60.0,120,120,4.0,105.0
8152,84.0,12,439,3.0,105.0
8153,79.0,0,480,5.0,70.0
8154,64.0,0,480,5.0,70.0
8155,72.0,100,480,5.0,70.0
8156,67.0,4,480,6.0,70.0
8157,60.0,0,480,7.0,70.0
8158,64.0,4,480,7.0,70.0
8159,79.0,120,120,4.0,105.0
8160,64.0,0,120,4.0,105.0
8161,77.0,120,120,4.0,105.0
8162,76.0,120,120,4.0,105.0
8163,74.0,120,120,4.0,105.0
8164,64.0,0,449,3.0,105.0
8165,72.0,120,120,4.0,105.0
8166,53.0,0,120,4.0,105.0
8167,69.0,12,120,4.0,105.0
8168,74.0,120,120,4.0,105.0
8169,57.0,0,120,4.0,105.0
8170,62.0,120,120,4.0,105.0
8171,77.0,0,120,4.0,105.0
8172,65.0,0,449,3.0,105.0
8173,72.0,100,480,5.0,70.0
8174,65.0,0,480,5.0,70.0
8175,81.0,0,480,5.0,70.0
8176,62.0,4,480,6.0,70.0
8177,65.0,4,480,7.0,70.0
8178,65.0,0,120,4.0,105.0
8179,81.0,120,120,4.0,105.0
8180,79.0,0,120,4.0,105.0
8181,77.0,120,120,4.0,105.0
8182,76.0,120,120,4.0,105.0
8183,81.0,120,459,3.0,105.0
8184,74.0,120,120,4.0,105.0
8185,79.0,12,189,3.0,105.0
8186,79.0,100,240,5.0,70.0
8187,64.0,4,240,6.0,70.0
8188,72.0,0,240,6.0,70.0
8189,76.0,120,120,4.0,105.0
8190,43.0,0,240,4.0,105.0
8191,79.0,0,120,4.0,105.0
8192,67.0,4,480,7.0,70.0
8193,76.0,120,120,4.0,105.0
8194,76.0,100,240,5.0,70.0
8195,72.0,4,240,6.0,70.0
8196,55.0,16,240,4.0,105.0
8197,64.0,0,240,4.0,105.0
8198,72.0,120,120,4.0,105.0
8199,76.0,120,539,3.0,105.0
8200,76.0,120,120,4.0,105.0
8201,72.0,0,189,3.0,105.0
8202,72.0,120,120,4.0,105.0
8203,77.0,0,209,3.0,105.0
8204,74.0,100,240,5.0,70.0
8205,71.0,4,240,6.0,70.0
8206,55.0,12,240,4.0,105.0
8207,74.0,120,120,4.0,105.0
8208,65.0,0,240,4.0,105.0
8209,77.0,120,120,4.0,105.0
8210,55.0,4,480,7.0,70.0
8211,74.0,120,120,4.0,105.0
8212,77.0,100,240,5.0,70.0
8213,71.0,4,240,6.0,70.0
8214,62.0,0,240,4.0,105.0
8215,55.0,16,240,4.0,105.0
8216,71.0,120,120,4.0,105.0
8217,74.0,0,549,3.0,105.0
8218,74.0,120,120,4.0,105.0
8219,71.0,120,59,4.0,113.0
8220,71.0,0,189,3.0,105.0
8221,84.0,10,120,3.0,105.0
8222,83.0,60,120,3.0,105.0
8223,81.0,120,120,3.0,105.0
8224,64.0,20,480,4.0,120.0
8225,76.0,20,439,4.0,125.0
8226,67.0,0,480,4.0,122.0
8227,79.0,120,120,3.0,105.0
8228,79.0,20,424,4.0,125.0
8229,55.0,20,549,4.0,117.0
8230,52.0,40,569,4.0,115.0
8231,60.0,20,529,4.0,120.0
8232,72.0,20,469,4.0,123.0
8233,77.0,120,120,3.0,105.0
8234,76.0,120,120,3.0,105.0
8235,74.0,120,120,3.0,105.0
8236,72.0,120,104,3.0,105.0
8237,76.0,0,960,1.0,70.0
8238,79.0,2,960,0.0,70.0
8239,52.0,8,1044,7.0,70.0
8240,81.0,10,120,3.0,105.0
8241,79.0,60,120,3.0,105.0
8242,77.0,120,120,3.0,105.0
8243,57.0,20,539,4.0,116.0
8244,77.0,20,439,4.0,127.0
8245,69.0,0,480,4.0,125.0
8246,76.0,120,120,3.0,105.0
8247,53.0,40,569,4.0,115.0
8248,60.0,20,529,4.0,118.0
8249,65.0,20,509,4.0,124.0
8250,72.0,20,474,4.0,125.0
8251,81.0,20,444,4.0,127.0
8252,74.0,120,120,3.0,105.0
8253,72.0,120,120,3.0,105.0
8254,71.0,120,120,3.0,105.0
8255,53.0,8,909,7.0,70.0
8256,69.0,120,99,3.0,105.0
8257,74.0,0,960,1.0,70.0
8258,77.0,2,960,0.0,70.0
8259,43.0,0,120,4.0,105.0
8260,55.0,108,168,7.0,70.0
8261,48.0,120,120,4.0,105.0
8262,52.0,12,120,4.0,105.0
8263,76.0,100,168,5.0,70.0
8264,72.0,4,168,6.0,70.0
8265,67.0,4,168,7.0,70.0
8266,76.0,2,440,0.0,70.0
8267,72.0,0,448,1.0,70.0
8268,55.0,2,480,8.0,70.0
8269,43.0,8,480,10.0,70.0
8270,55.0,120,120,4.0,105.0
8271,64.0,10,120,4.0,105.0
8272,67.0,0,624,3.0,105.0
8273,76.0,100,168,5.0,70.0
8274,72.0,4,168,6.0,70.0
8275,67.0,4,168,7.0,70.0
8276,76.0,0,240,0.0,70.0
8277,72.0,2,240,1.0,70.0
8278,67.0,120,120,4.0,105.0
8279,72.0,0,120,4.0,105.0
8280,69.0,12,120,3.0,105.0
8281,76.0,100,168,5.0,70.0
8282,72.0,4,168,6.0,70.0
8283,67.0,4,168,7.0,70.0
8284,76.0,120,120,4.0,105.0
8285,71.0,0,120,3.0,105.0
8286,55.0,8,120,4.0,105.0
8287,72.0,0,120,3.0,105.0
8288,76.0,100,168,5.0,70.0
8289,72.0,4,168,6.0,70.0
8290,67.0,4,168,7.0,70.0
8291,60.0,120,120,4.0,105.0
8292,74.0,0,120,3.0,105.0
8293,76.0,12,120,3.0,105.0
8294,64.0,0,120,4.0,105.0
8295,76.0,100,168,5.0,70.0
8296,72.0,4,168,6.0,70.0
8297,67.0,4,168,7.0,70.0
8298,76.0,2,480,1.0,70.0
8299,55.0,2,480,8.0,70.0
8300,43.0,0,480,10.0,70.0
8301,67.0,120,120,4.0,105.0
8302,77.0,0,120,3.0,105.0
8303,79.0,0,544,0.0,70.0
8304,79.0,0,120,3.0,105.0
8305,72.0,10,120,4.0,105.0
8306,76.0,100,168,5.0,70.0
8307,72.0,4,168,6.0,70.0
8308,67.0,4,168,7.0,70.0
8309,81.0,120,120,3.0,105.0
8310,76.0,0,120,4.0,105.0
8311,79.0,12,120,4.0,105.0
8312,83.0,0,120,3.0,105.0
8313,76.0,100,168,5.0,70.0
8314,72.0,4,168,6.0,70.0
8315,67.0,4,168,7.0,70.0
8316,84.0,120,84,3.0,105.0
8317,72.0,0,480,1.0,70.0
8318,76.0,2,480,0.0,70.0
8319,84.0,0,120,4.0,105.0
8320,74.0,100,120,5.0,71.0
8321,71.0,4,0,6.0,71.0
8322,83.0,8,120,4.0,105.0
8323,67.0,4,168,7.0,70.0
8324,55.0,4,168,8.0,71.0
8325,43.0,0,168,10.0,71.0
8326,88.0,0,209,3.0,105.0
8327,74.0,100,120,5.0,73.0
8328,71.0,4,0,6.0,73.0
8329,79.0,16,120,4.0,105.0
8330,86.0,60,114,3.0,108.0
8331,74.0,40,120,5.0,75.0
8332,71.0,4,0,6.0,75.0
8333,77.0,8,120,4.0,105.0
8334,88.0,30,104,3.0,107.0
8335,67.0,4,168,7.0,74.0
8336,55.0,4,168,8.0,75.0
8337,43.0,0,168,10.0,75.0
8338,74.0,70,120,5.0,77.0
8339,71.0,4,0,6.0,77.0
8340,86.0,6,114,3.0,103.0
8341,74.0,10,120,4.0,105.0
8342,88.0,90,109,3.0,94.0
8343,74.0,0,0,5.0,81.0
8344,71.0,4,0,6.0,80.0
8345,65.0,8,120,4.0,105.0
8346,86.0,45,84,3.0,91.0
8347,67.0,4,168,7.0,78.0
8348,55.0,2,168,8.0,79.0
8349,43.0,0,168,10.0,79.0
8350,88.0,55,96,3.0,91.0
8351,74.0,0,0,5.0,82.0
8352,71.0,4,0,6.0,82.0
8353,74.0,2,240,0.0,80.0
8354,71.0,0,240,1.0,80.0
8355,62.0,16,120,4.0,105.0
8356,86.0,40,84,3.0,89.0
8357,88.0,60,96,3.0,89.0
8358,74.0,5,0,5.0,84.0
8359,71.0,4,0,6.0,84.0
8360,59.0,8,120,4.0,105.0
8361,86.0,40,84,3.0,90.0
8362,67.0,4,168,7.0,83.0
8363,55.0,4,168,8.0,84.0
8364,43.0,0,168,10.0,84.0
8365,88.0,55,84,3.0,90.0
8366,55.0,16,120,4.0,105.0
8367,86.0,25,96,3.0,92.0
8368,88.0,60,84,3.0,92.0
8369,77.0,15,120,5.0,86.0
8370,74.0,4,120,6.0,86.0
8371,86.0,6,6,3.0,101.0
8372,77.0,8,120,4.0,105.0
8373,88.0,50,84,3.0,101.0
8374,67.0,4,168,7.0,87.0
8375,55.0,2,168,8.0,88.0
8376,43.0,0,168,10.0,88.0
8377,77.0,10,0,5.0,90.0
8378,74.0,4,0,6.0,90.0
8379,88.0,35,84,3.0,103.0
8380,74.0,10,120,4.0,105.0
8381,86.0,55,96,3.0,105.0
8382,77.0,30,0,5.0,92.0
8383,74.0,4,0,6.0,92.0
8384,88.0,20,84,3.0,106.0
8385,71.0,0,120,4.0,105.0
8386,67.0,4,168,7.0,91.0
8387,55.0,4,168,8.0,92.0
8388,86.0,50,96,3.0,108.0
8389,43.0,8,168,10.0,92.0
8390,88.0,16,84,3.0,110.0
8391,74.0,2,480,1.0,80.0
8392,67.0,0,120,4.0,105.0
8393,86.0,50,96,3.0,113.0
8394,77.0,0,536,0.0,80.0
8395,88.0,1,84,3.0,117.0
8396,83.0,10,0,5.0,96.0
8397,77.0,4,120,6.0,94.0
8398,53.0,8,120,4.0,105.0
8399,86.0,35,96,3.0,118.0
8400,67.0,3,168,7.0,96.0
8401,55.0,2,168,8.0,97.0
8402,43.0,0,168,10.0,97.0
8403,88.0,55,96,3.0,122.0
8404,83.0,80,0,5.0,98.0
8405,77.0,4,0,6.0,98.0
8406,50.0,16,120,4.0,105.0
8407,86.0,20,139,3.0,123.0
8408,77.0,4,0,6.0,100.0
8409,47.0,0,120,4.0,105.0
8410,67.0,4,168,7.0,100.0
8411,84.0,0,159,3.0,127.0
8412,55.0,4,168,8.0,101.0
8413,43.0,8,168,10.0,101.0
8414,71.0,0,456,1.0,90.0
8415,74.0,2,456,0.0,90.0
8416,83.0,100,120,5.0,100.0
8417,43.0,16,120,4.0,105.0
8418,55.0,0,3840,2.0,70.0
8419,86.0,0,154,3.0,119.0
8420,67.0,4,456,7.0,105.0
8421,48.0,2,456,8.0,105.0
8422,36.0,0,456,10.0,105.0
8423,60.0,0,456,2.0,105.0
8424,52.0,0,456,2.0,105.0
8425,84.0,8,480,3.0,124.0
8426,72.0,0,480,4.0,105.0
8427,64.0,0,480,4.0,105.0
8428,67.0,0,480,4.0,105.0
8429,36.0,0,480,4.0,105.0
8430,48.0,0,480,4.0,105.0
8431,76.0,100,684,5.0,102.0
8432,84.0,0,684,5.0,102.0
8433,72.0,4,684,6.0,102.0
8434,72.0,2,684,0.0,105.0
8435,79.0,700,228,5.0,105.0
8436,67.0,4,228,6.0,105.0
8437,79.0,6,228,0.0,105.0
8438,76.0,230,228,5.0,105.0
8439,64.0,4,228,6.0,105.0
8440,76.0,2,228,0.0,105.0
8441,72.0,220,228,5.0,105.0
8442,60.0,4,228,6.0,105.0
8443,72.0,6,228,0.0,105.0
8444,72.0,4,684,7.0,105.0
8445,60.0,2,684,8.0,105.0
8446,48.0,0,684,10.0,105.0
8447,60.0,8,684,2.0,105.0
8448,76.0,230,228,5.0,105.0
8449,64.0,4,228,6.0,105.0
8450,76.0,6,228,0.0,105.0
8451,79.0,230,228,5.0,105.0
8452,67.0,4,228,6.0,105.0
8453,67.0,4,228,7.0,105.0
8454,79.0,2,228,0.0,105.0
8455,55.0,2,228,8.0,105.0
8456,55.0,0,228,2.0,105.0
8457,43.0,8,228,10.0,105.0
8458,64.0,4,228,7.0,105.0
8459,52.0,2,228,8.0,105.0
8460,40.0,8,228,10.0,105.0
8461,52.0,0,228,2.0,105.0
8462,60.0,228,228,7.0,105.0
8463,48.0,4,228,8.0,105.0
8464,36.0,0,228,10.0,105.0
8465,48.0,8,228,2.0,105.0
8466,84.0,220,684,5.0,105.0
8467,72.0,4,684,6.0,105.0
8468,84.0,2,684,0.0,105.0
8469,64.0,228,228,7.0,105.0
8470,52.0,4,228,8.0,105.0
8471,40.0,8,228,10.0,105.0
8472,52.0,0,228,2.0,105.0
8473,79.0,220,228,5.0,105.0
8474,67.0,4,228,6.0,105.0
8475,67.0,4,228,7.0,105.0
8476,79.0,2,228,0.0,105.0
8477,55.0,2,228,8.0,105.0
8478,43.0,8,228,10.0,105.0
8479,55.0,0,228,2.0,105.0
8480,76.0,220,228,5.0,105.0
8481,64.0,4,228,6.0,105.0
8482,76.0,2,228,0.0,105.0
8483,72.0,220,228,5.0,105.0
8484,60.0,4,228,6.0,105.0
8485,72.0,6,228,0.0,105.0
8486,72.0,4,684,7.0,105.0
8487,60.0,2,684,8.0,105.0
8488,60.0,0,684,2.0,105.0
8489,48.0,8,684,10.0,105.0
8490,76.0,230,228,5.0,105.0
8491,64.0,4,228,6.0,105.0
8492,76.0,6,228,0.0,105.0
8493,79.0,230,228,5.0,105.0
8494,67.0,4,228,6.0,105.0
8495,67.0,4,228,7.0,105.0
8496,79.0,2,228,0.0,105.0
8497,55.0,2,228,8.0,105.0
8498,43.0,8,228,10.0,105.0
8499,55.0,0,228,2.0,105.0
8500,52.0,2,240,8.0,105.0
8501,40.0,0,240,10.0,105.0
8502,52.0,8,240,2.0,105.0
8503,48.0,232,240,8.0,105.0
8504,36.0,8,240,10.0,105.0
8505,48.0,0,240,2.0,105.0
8506,84.0,220,720,5.0,105.0
8507,72.0,0,720,6.0,105.0
8508,76.0,4,720,6.0,105.0
8509,67.0,4,720,7.0,105.0
8510,76.0,2,720,1.0,105.0
8511,84.0,0,720,0.0,105.0
8512,52.0,232,240,8.0,105.0
8513,40.0,8,240,10.0,105.0
8514,52.0,0,240,2.0,105.0
8515,83.0,220,240,5.0,105.0
8516,74.0,4,240,6.0,105.0
8517,67.0,4,240,7.0,105.0
8518,74.0,2,240,1.0,105.0
8519,83.0,0,240,0.0,105.0
8520,55.0,2,240,8.0,105.0
8521,55.0,0,240,2.0,105.0
8522,43.0,8,240,10.0,105.0
8523,60.0,2,240,8.0,105.0
8524,48.0,8,240,10.0,105.0
8525,57.0,232,240,8.0,105.0
8526,45.0,8,240,10.0,105.0
8527,81.0,220,720,5.0,105.0
8528,64.0,4,720,6.0,105.0
8529,72.0,0,720,6.0,105.0
8530,64.0,4,0,7.0,105.0
8531,72.0,2,720,1.0,105.0
8532,81.0,0,720,0.0,105.0
8533,60.0,232,240,8.0,105.0
8534,48.0,8,240,10.0,105.0
8535,60.0,0,720,2.0,105.0
8536,79.0,220,240,5.0,105.0
8537,71.0,4,240,6.0,105.0
8538,79.0,0,240,0.0,105.0
8539,71.0,2,240,1.0,105.0
8540,64.0,2,240,8.0,105.0
8541,52.0,0,240,10.0,105.0
8542,64.0,8,240,2.0,105.0
8543,52.0,0,960,2.0,105.0
8544,57.0,2,240,8.0,105.0
8545,45.0,0,240,10.0,105.0
8546,53.0,232,240,8.0,105.0
8547,48.0,0,480,2.0,105.0
8548,60.0,8,480,2.0,105.0
8549,41.0,8,240,10.0,105.0
8550,77.0,220,720,5.0,105.0
8551,69.0,4,720,6.0,105.0
8552,65.0,0,720,6.0,105.0
8553,60.0,4,720,7.0,105.0
8554,69.0,2,720,1.0,105.0
8555,77.0,0,720,0.0,105.0
8556,57.0,232,240,8.0,105.0
8557,45.0,8,240,10.0,105.0
8558,76.0,220,240,5.0,105.0
8559,67.0,4,240,6.0,105.0
8560,60.0,4,240,7.0,105.0
8561,76.0,0,240,0.0,105.0
8562,67.0,2,240,1.0,105.0
8563,60.0,2,240,8.0,105.0
8564,48.0,8,240,10.0,105.0
8565,53.0,2,240,8.0,105.0
8566,41.0,8,240,10.0,105.0
8567,50.0,232,240,8.0,105.0
8568,38.0,8,240,10.0,105.0
8569,74.0,220,720,5.0,105.0
8570,65.0,0,720,6.0,105.0
8571,57.0,4,720,6.0,105.0
8572,57.0,4,0,7.0,105.0
8573,74.0,2,720,0.0,105.0
8574,65.0,0,720,1.0,105.0
8575,53.0,232,240,8.0,105.0
8576,41.0,8,240,10.0,105.0
8577,73.0,220,240,5.0,105.0
8578,64.0,4,240,6.0,105.0
8579,57.0,4,0,7.0,105.0
8580,64.0,2,240,1.0,105.0
8581,73.0,0,240,0.0,105.0
8582,57.0,2,240,8.0,105.0
8583,45.0,8,240,10.0,105.0
8584,74.0,220,120,5.0,106.0
8585,77.0,100,120,5.0,107.0
8586,69.0,4,240,6.0,105.0
8587,74.0,0,240,0.0,105.0
8588,53.0,2,240,8.0,105.0
8589,41.0,8,240,10.0,105.0
8590,76.0,120,120,5.0,107.0
8591,79.0,100,120,5.0,109.0
8592,61.0,8,240,7.0,105.0
8593,76.0,2,240,0.0,105.0
8594,49.0,2,240,8.0,105.0
8595,37.0,8,240,10.0,105.0
8596,77.0,120,120,5.0,111.0
8597,81.0,100,120,5.0,111.0
8598,62.0,8,240,7.0,105.0
8599,77.0,2,240,0.0,105.0
8600,50.0,2,240,8.0,105.0
8601,38.0,8,240,10.0,105.0
8602,79.0,120,120,5.0,110.0
8603,82.0,100,120,5.0,108.0
8604,64.0,8,240,7.0,105.0
8605,79.0,2,240,0.0,105.0
8606,52.0,2,240,8.0,105.0
8607,40.0,8,240,10.0,105.0
8608,81.0,120,120,5.0,107.0
8609,81.0,2,120,0.0,105.0
8610,79.0,100,120,5.0,105.0
8611,65.0,8,240,7.0,105.0
8612,79.0,10,120,0.0,105.0
8613,53.0,2,0,8.0,105.0
8614,41.0,8,240,10.0,105.0
8615,77.0,110,120,5.0,105.0
8616,77.0,2,120,0.0,105.0
8617,76.0,100,120,5.0,103.0
8618,65.0,8,240,7.0,105.0
8619,76.0,10,120,0.0,105.0
8620,41.0,8,240,10.0,105.0
8621,62.0,8,0,2.0,105.0
8622,74.0,110,120,5.0,103.0
8623,74.0,2,120,0.0,105.0
8624,72.0,100,120,5.0,103.0
8625,66.0,8,240,7.0,105.0
8626,72.0,10,120,0.0,105.0
8627,54.0,2,240,8.0,105.0
8628,42.0,0,240,10.0,105.0
8629,71.0,110,120,5.0,104.0
8630,71.0,2,120,0.0,105.0
8631,72.0,100,120,5.0,106.0
8632,66.0,8,240,7.0,105.0
8633,72.0,10,120,0.0,105.0
8634,69.0,2,1920,1.0,105.0
8635,54.0,2,240,8.0,105.0
8636,62.0,0,240,2.0,105.0
8637,42.0,8,240,10.0,105.0
8638,71.0,4,144,6.0,109.0
8639,67.0,2,184,1.0,105.0
8640,71.0,0,200,0.0,105.0
8641,74.0,104,89,6.0,105.0
8642,67.0,4,240,7.0,105.0
8643,55.0,2,240,8.0,105.0
8644,43.0,8,240,10.0,105.0
8645,79.0,120,44,6.0,105.0
8646,79.0,104,44,6.0,105.0
8647,79.0,110,480,5.0,109.0
8648,71.0,0,480,5.0,109.0
8649,71.0,4,240,7.0,105.0
8650,59.0,2,240,8.0,105.0
8651,62.0,0,480,2.0,105.0
8652,47.0,8,240,10.0,105.0
8653,55.0,0,480,2.0,105.0
8654,74.0,2,296,0.0,105.0
8655,79.0,120,120,6.0,105.0
8656,71.0,0,200,1.0,105.0
8657,77.0,2,216,0.0,105.0
8658,79.0,104,120,6.0,105.0
8659,74.0,4,240,7.0,105.0
8660,62.0,2,240,8.0,105.0
8661,50.0,8,240,10.0,105.0
8662,71.0,0,112,1.0,105.0
8663,77.0,2,112,0.0,105.0
8664,79.0,104,0,6.0,105.0
8665,74.0,0,168,5.0,105.0
8666,83.0,116,168,5.0,105.0
8667,67.0,4,240,7.0,105.0
8668,55.0,2,240,8.0,105.0
8669,43.0,8,240,10.0,105.0
8670,55.0,0,240,2.0,105.0
8671,62.0,0,240,2.0,105.0
8672,72.0,4,159,6.0,105.0
8673,76.0,0,168,5.0,105.0
8674,84.0,116,168,5.0,105.0
8675,76.0,104,99,6.0,105.0
8676,72.0,4,240,7.0,105.0
8677,60.0,2,240,8.0,105.0
8678,48.0,0,240,10.0,105.0
8679,64.0,8,240,2.0,105.0
8680,60.0,0,240,2.0,105.0
8681,79.0,4,44,6.0,105.0
8682,84.0,116,168,5.0,105.0
8683,79.0,104,44,6.0,105.0
8684,76.0,0,168,5.0,105.0
8685,67.0,4,240,7.0,105.0
8686,76.0,2,480,0.0,105.0
8687,72.0,0,480,1.0,105.0
8688,55.0,4,240,8.0,105.0
8689,43.0,8,240,10.0,105.0
8690,64.0,0,0,2.0,105.0
8691,60.0,0,0,2.0,105.0
8692,79.0,4,120,6.0,105.0
8693,76.0,116,168,5.0,105.0
8694,84.0,0,168,5.0,105.0
8695,79.0,4,0,6.0,105.0
8696,64.0,4,240,7.0,105.0
8697,52.0,4,240,8.0,105.0
8698,40.0,8,240,10.0,105.0
8699,60.0,0,0,2.0,105.0
8700,64.0,8,0,2.0,105.0
8701,79.0,104,0,6.0,105.0
8702,76.0,0,168,5.0,105.0
8703,84.0,116,168,5.0,105.0
8704,60.0,4,240,7.0,105.0
8705,72.0,2,240,1.0,105.0
8706,76.0,0,240,0.0,105.0
8707,48.0,2,240,8.0,105.0
8708,36.0,0,240,10.0,105.0
8709,71.0,4,164,6.0,105.0
8710,74.0,0,200,0.0,105.0
8711,71.0,2,208,1.0,105.0
8712,74.0,104,99,6.0,105.0
8713,67.0,4,240,7.0,105.0
8714,55.0,2,240,8.0,105.0
8715,43.0,0,240,10.0,105.0
8716,79.0,120,44,6.0,105.0
8717,79.0,104,44,6.0,105.0
8718,74.0,0,480,5.0,105.0
8719,83.0,116,480,5.0,105.0
8720,71.0,4,240,7.0,105.0
8721,59.0,2,240,8.0,105.0
8722,55.0,0,480,2.0,105.0
8723,62.0,8,480,2.0,105.0
8724,47.0,8,240,10.0,105.0
8725,74.0,2,328,0.0,105.0
8726,79.0,120,120,6.0,105.0
8727,77.0,0,200,0.0,105.0
8728,71.0,2,208,1.0,105.0
8729,79.0,104,120,6.0,105.0
8730,74.0,4,240,7.0,105.0
8731,62.0,2,240,8.0,105.0
8732,50.0,8,240,10.0,105.0
8733,79.0,104,0,6.0,105.0
8734,77.0,2,120,0.0,105.0
8735,71.0,0,128,1.0,105.0
8736,83.0,0,168,5.0,105.0
8737,74.0,116,168,5.0,105.0
8738,67.0,4,240,7.0,105.0
8739,55.0,2,240,8.0,105.0
8740,62.0,8,240,2.0,105.0
8741,43.0,0,240,10.0,105.0
8742,55.0,0,240,2.0,105.0
8743,84.0,0,168,5.0,105.0
8744,76.0,116,168,5.0,105.0
8745,72.0,4,169,6.0,105.0
8746,76.0,104,89,6.0,105.0
8747,72.0,4,240,7.0,105.0
8748,60.0,2,240,8.0,105.0
8749,60.0,8,0,2.0,105.0
8750,64.0,0,240,2.0,105.0
8751,48.0,8,240,10.0,105.0
8752,79.0,4,44,6.0,105.0
8753,79.0,104,44,6.0,105.0
8754,84.0,116,168,5.0,105.0
8755,76.0,0,168,5.0,105.0
8756,67.0,4,240,7.0,105.0
8757,72.0,2,480,1.0,105.0
8758,76.0,0,480,0.0,105.0
8759,55.0,4,240,8.0,105.0
8760,64.0,0,240,2.0,105.0
8761,43.0,0,240,10.0,105.0
8762,79.0,104,0,6.0,105.0
8763,84.0,116,168,5.0,105.0
8764,76.0,0,168,5.0,105.0
8765,79.0,4,0,6.0,105.0
8766,64.0,4,240,7.0,105.0
8767,52.0,4,240,8.0,105.0
8768,64.0,0,240,2.0,105.0
8769,40.0,8,240,10.0,105.0
8770,60.0,0,0,2.0,105.0
8771,84.0,0,168,5.0,105.0
8772,76.0,116,168,5.0,105.0
8773,79.0,104,120,6.0,105.0
8774,60.0,4,240,7.0,105.0
8775,84.0,0,240,0.0,105.0
8776,76.0,2,240,1.0,105.0
8777,48.0,2,240,8.0,105.0
8778,36.0,8,240,10.0,105.0
8779,64.0,0,240,2.0,105.0
8780,55.0,116,480,5.0,120.0
8781,55.0,8,480,7.0,119.0
8782,67.0,2,480,0.0,105.0
8783,43.0,2,480,8.0,119.0
8784,31.0,8,480,10.0,119.0
8785,76.0,0,480,4.0,105.0
8786,43.0,0,480,4.0,105.0
8787,55.0,0,480,4.0,105.0
8788,64.0,0,480,2.0,105.0
8789,60.0,0,480,2.0,105.0
8790,84.0,0,480,3.0,105.0
8791,72.0,0,240,4.0,105.0
8792,81.0,720,240,3.0,105.0
8793,84.0,240,120,3.0,105.0
8794,76.0,0,120,4.0,105.0
8795,83.0,120,120,3.0,105.0
8796,74.0,0,120,4.0,105.0
8797,84.0,0,60,3.0,105.0
8798,76.0,120,60,4.0,105.0
8799,74.0,60,60,4.0,105.0
8800,83.0,0,60,3.0,105.0
8801,76.0,0,28,4.0,105.0
8802,84.0,60,28,3.0,105.0
8803,74.0,0,32,4.0,105.0
8804,83.0,28,32,3.0,105.0
8805,76.0,32,28,4.0,105.0
8806,84.0,0,28,3.0,105.0
8807,83.0,0,32,3.0,105.0
8808,74.0,28,32,4.0,105.0
8809,84.0,32,28,3.0,105.0
8810,76.0,0,28,4.0,105.0
8811,74.0,0,32,4.0,105.0
8812,83.0,28,32,3.0,105.0
8813,84.0,0,28,3.0,105.0
8814,76.0,32,28,4.0,105.0
8815,74.0,28,32,4.0,105.0
8816,83.0,0,32,3.0,105.0
8817,84.0,0,28,3.0,105.0
8818,76.0,32,28,4.0,105.0
8819,74.0,0,32,4.0,105.0
8820,83.0,28,32,3.0,105.0
8821,76.0,32,28,4.0,105.0
8822,84.0,0,28,3.0,105.0
8823,74.0,28,32,4.0,105.0
8824,83.0,0,32,3.0,105.0
8825,72.0,32,120,4.0,105.0
8826,81.0,0,120,3.0,105.0
8827,83.0,0,120,3.0,105.0
8828,74.0,120,120,4.0,105.0
8829,55.0,15,94,5.0,105.0
8830,48.0,2,168,8.0,105.0
8831,36.0,8,168,10.0,105.0
8832,60.0,232,168,8.0,105.0
8833,48.0,8,168,10.0,105.0
8834,72.0,12,480,5.0,105.0
8835,64.0,4,480,6.0,105.0
8836,48.0,4,480,7.0,105.0
8837,60.0,0,480,7.0,105.0
8838,60.0,0,480,4.0,105.0
8839,55.0,13,512,4.0,105.0
8840,52.0,32,540,4.0,105.0
8841,72.0,0,480,4.0,105.0
8842,84.0,0,480,3.0,105.0
8843,48.0,28,572,4.0,105.0
8844,84.0,220,96,5.0,105.0
8845,81.0,4,96,6.0,105.0
8846,72.0,0,96,7.0,105.0
8847,69.0,4,96,7.0,105.0
8848,60.0,4,168,8.0,105.0
8849,48.0,8,168,10.0,105.0
8850,60.0,232,168,8.0,105.0
8851,48.0,8,168,10.0,105.0
8852,83.0,220,96,5.0,105.0
8853,79.0,4,96,6.0,105.0
8854,67.0,4,96,7.0,105.0
8855,71.0,0,96,7.0,105.0
8856,60.0,4,168,8.0,105.0
8857,48.0,8,168,10.0,105.0
8858,60.0,232,168,8.0,105.0
8859,48.0,8,168,10.0,105.0
8860,81.0,220,96,5.0,105.0
8861,77.0,4,96,6.0,105.0
8862,69.0,0,96,7.0,105.0
8863,65.0,4,96,7.0,105.0
8864,60.0,4,168,8.0,105.0
8865,48.0,8,168,10.0,105.0
8866,60.0,232,168,8.0,105.0
8867,48.0,8,168,10.0,105.0
8868,60.0,4,168,8.0,105.0
8869,48.0,8,168,10.0,105.0
8870,60.0,232,168,8.0,105.0
8871,48.0,8,168,10.0,105.0
8872,60.0,232,168,8.0,105.0
8873,48.0,8,168,10.0,105.0
8874,79.0,220,720,5.0,105.0
8875,76.0,4,720,6.0,105.0
8876,64.0,0,720,7.0,105.0
8877,67.0,4,720,7.0,105.0
8878,60.0,4,168,8.0,105.0
8879,48.0,8,168,10.0,105.0
8880,77.0,220,240,5.0,105.0
8881,74.0,4,240,6.0,105.0
8882,65.0,0,240,7.0,105.0
8883,62.0,4,240,7.0,105.0
8884,60.0,4,168,8.0,105.0
8885,48.0,8,168,10.0,105.0
8886,60.0,232,168,8.0,105.0
8887,48.0,8,168,10.0,105.0
8888,72.0,0,3304,1.0,105.0
8889,84.0,2,3320,0.0,105.0
8890,76.0,220,480,5.0,105.0
8891,72.0,4,480,6.0,105.0
8892,60.0,0,480,7.0,105.0
8893,64.0,228,0,7.0,111.0
8894,60.0,0,3360,2.0,105.0
8895,48.0,0,0,2.0,105.0
8896,60.0,0,160,7.0,111.0
8897,76.0,2,160,0.0,105.0
8898,72.0,0,160,1.0,105.0
8899,60.0,2,168,8.0,105.0
8900,48.0,0,168,10.0,105.0
8901,62.0,0,160,7.0,114.0
8902,65.0,108,160,7.0,114.0
8903,77.0,2,160,0.0,105.0
8904,74.0,0,160,1.0,105.0
8905,64.0,0,92,7.0,114.0
8906,76.0,2,120,0.0,105.0
8907,76.0,0,120,1.0,105.0
8908,60.0,0,0,2.0,105.0
8909,67.0,118,160,7.0,114.0
8910,79.0,0,160,0.0,105.0
8911,60.0,2,168,8.0,105.0
8912,48.0,8,168,10.0,105.0
8913,64.0,0,120,7.0,113.0
8914,60.0,108,120,7.0,113.0
8915,72.0,2,120,1.0,105.0
8916,48.0,10,120,2.0,105.0
8917,60.0,2,168,8.0,105.0
8918,48.0,8,168,10.0,105.0
8919,48.0,232,168,8.0,70.0
8920,36.0,8,168,10.0,70.0
8921,69.0,108,480,7.0,114.0
8922,65.0,0,480,7.0,114.0
8923,77.0,2,480,1.0,105.0
8924,81.0,0,480,0.0,105.0
8925,81.0,220,96,5.0,70.0
8926,72.0,4,96,6.0,70.0
8927,60.0,4,96,7.0,70.0
8928,69.0,0,96,7.0,70.0
8929,48.0,4,168,8.0,70.0
8930,36.0,8,168,10.0,70.0
8931,48.0,232,168,8.0,70.0
8932,36.0,8,168,10.0,70.0
8933,60.0,0,960,2.0,105.0
8934,48.0,0,960,2.0,105.0
8935,79.0,220,96,5.0,70.0
8936,71.0,4,96,6.0,70.0
8937,67.0,4,96,7.0,70.0
8938,59.0,0,96,7.0,70.0
8939,48.0,4,168,8.0,70.0
8940,36.0,0,168,10.0,70.0
8941,48.0,232,168,8.0,70.0
8942,36.0,8,168,10.0,70.0
8943,77.0,220,96,5.0,70.0
8944,69.0,4,96,6.0,70.0
8945,65.0,0,96,7.0,70.0
8946,57.0,4,96,7.0,70.0
8947,48.0,4,168,8.0,70.0
8948,36.0,8,168,10.0,70.0
8949,48.0,232,168,8.0,70.0
8950,36.0,8,168,10.0,70.0
8951,48.0,4,168,8.0,70.0
8952,36.0,8,168,10.0,70.0
8953,48.0,232,168,8.0,70.0
8954,36.0,8,168,10.0,70.0
8955,48.0,232,168,8.0,70.0
8956,36.0,8,168,10.0,70.0
8957,76.0,220,720,5.0,70.0
8958,67.0,4,720,6.0,70.0
8959,55.0,0,720,7.0,70.0
8960,64.0,4,720,7.0,70.0
8961,48.0,4,168,8.0,70.0
8962,36.0,8,168,10.0,70.0
8963,74.0,220,240,5.0,70.0
8964,65.0,4,240,6.0,70.0
8965,53.0,0,240,7.0,70.0
8966,62.0,4,240,7.0,70.0
8967,48.0,4,168,8.0,70.0
8968,36.0,8,168,10.0,70.0
8969,60.0,232,168,8.0,105.0
8970,48.0,8,168,10.0,105.0
8971,72.0,220,480,5.0,70.0
8972,64.0,4,480,6.0,70.0
8973,52.0,4,480,7.0,70.0
8974,60.0,228,0,7.0,114.0
8975,48.0,8,2400,2.0,70.0
8976,60.0,8,0,2.0,105.0
8977,72.0,2,160,0.0,105.0
8978,60.0,2,168,8.0,105.0
8979,48.0,0,168,10.0,105.0
8980,59.0,108,160,7.0,119.0
8981,62.0,0,160,7.0,119.0
8982,74.0,2,160,0.0,105.0
8983,71.0,0,160,1.0,105.0
8984,60.0,118,105,7.0,116.0
8985,76.0,2,0,0.0,105.0
8986,72.0,0,0,1.0,105.0
8987,52.0,0,360,2.0,105.0
8988,64.0,0,160,7.0,116.0
8989,60.0,2,168,8.0,105.0
8990,48.0,8,168,10.0,105.0
8991,55.0,0,120,7.0,113.0
8992,60.0,108,120,7.0,113.0
8993,52.0,10,120,2.0,105.0
8994,60.0,0,120,2.0,105.0
8995,67.0,4,120,6.0,105.0
8996,62.0,104,120,6.0,105.0
8997,59.0,4,240,7.0,113.0
8998,59.0,2,240,8.0,105.0
8999,47.0,0,240,10.0,105.0
9000,59.0,120,120,6.0,105.0
9001,74.0,100,480,5.0,105.0
9002,77.0,0,0,5.0,105.0
9003,55.0,104,120,6.0,105.0
9004,74.0,4,240,7.0,105.0
9005,62.0,4,240,8.0,105.0
9006,50.0,8,240,10.0,105.0
9007,67.0,104,0,6.0,105.0
9008,71.0,4,240,7.0,105.0
9009,59.0,4,240,8.0,105.0
9010,47.0,8,240,10.0,105.0
9011,67.0,104,0,6.0,105.0
9012,67.0,120,0,6.0,105.0
9013,67.0,4,240,7.0,105.0
9014,55.0,4,240,8.0,105.0
9015,43.0,8,240,10.0,105.0
9016,62.0,104,120,6.0,105.0
9017,65.0,4,240,7.0,105.0
9018,53.0,4,240,8.0,105.0
9019,41.0,8,240,10.0,105.0
9020,59.0,120,120,6.0,105.0
9021,86.0,116,960,5.0,105.0
9022,55.0,104,120,6.0,105.0
9023,62.0,4,240,7.0,105.0
9024,50.0,4,240,8.0,105.0
9025,38.0,8,240,10.0,105.0
9026,67.0,4,120,6.0,105.0
9027,67.0,104,120,6.0,105.0
9028,59.0,4,240,7.0,105.0
9029,47.0,4,240,8.0,105.0
9030,35.0,8,240,10.0,105.0
9031,67.0,120,120,6.0,105.0
9032,77.0,0,480,5.0,105.0
9033,74.0,116,480,5.0,105.0
9034,67.0,104,120,6.0,105.0
9035,55.0,4,240,7.0,105.0
9036,74.0,2,1920,1.0,105.0
9037,77.0,0,1920,0.0,105.0
9038,43.0,4,240,8.0,105.0
9039,31.0,8,240,10.0,105.0
9040,55.0,0,1920,2.0,105.0
9041,62.0,8,1920,2.0,105.0
9042,67.0,4,120,6.0,105.0
9043,64.0,104,120,6.0,105.0
9044,60.0,4,240,7.0,105.0
9045,48.0,2,240,8.0,105.0
9046,36.0,8,240,10.0,105.0
9047,60.0,120,120,6.0,105.0
9048,72.0,0,480,5.0,105.0
9049,76.0,116,480,5.0,105.0
9050,55.0,104,120,6.0,105.0
9051,76.0,4,240,7.0,105.0
9052,64.0,4,240,8.0,105.0
9053,52.0,8,240,10.0,105.0
9054,72.0,4,120,6.0,105.0
9055,72.0,104,120,6.0,105.0
9056,72.0,4,240,7.0,105.0
9057,60.0,4,240,8.0,105.0
9058,48.0,8,240,10.0,105.0
9059,72.0,120,120,6.0,105.0
9060,72.0,104,120,6.0,105.0
9061,68.0,4,240,7.0,105.0
9062,56.0,4,240,8.0,105.0
9063,44.0,8,240,10.0,105.0
9064,72.0,120,120,6.0,105.0
9065,69.0,104,120,6.0,105.0
9066,69.0,4,240,7.0,105.0
9067,57.0,4,240,8.0,105.0
9068,45.0,8,240,10.0,105.0
9069,64.0,120,120,6.0,105.0
9070,84.0,116,960,5.0,105.0
9071,76.0,0,960,5.0,105.0
9072,60.0,104,120,6.0,105.0
9073,72.0,4,240,7.0,105.0
9074,60.0,4,240,8.0,105.0
9075,48.0,8,240,10.0,105.0
9076,72.0,104,0,6.0,105.0
9077,72.0,120,0,6.0,105.0
9078,69.0,4,240,7.0,105.0
9079,57.0,4,240,8.0,105.0
9080,45.0,8,240,10.0,105.0
9081,72.0,104,0,6.0,105.0
9082,72.0,116,480,5.0,105.0
9083,76.0,0,480,5.0,105.0
9084,64.0,4,240,7.0,105.0
9085,72.0,2,1920,1.0,105.0
9086,76.0,0,1920,0.0,105.0
9087,52.0,4,240,8.0,105.0
9088,60.0,0,1920,2.0,105.0
9089,40.0,8,240,10.0,105.0
9090,64.0,0,1920,2.0,105.0
9091,65.0,4,168,7.0,105.0
9092,53.0,2,168,8.0,105.0
9093,41.0,8,168,10.0,105.0
9094,65.0,228,168,7.0,105.0
9095,53.0,4,168,8.0,105.0
9096,41.0,8,168,10.0,105.0
9097,74.0,116,480,5.0,105.0
9098,69.0,4,480,6.0,105.0
9099,79.0,220,120,5.0,105.0
9100,71.0,4,120,6.0,105.0
9101,65.0,4,168,7.0,105.0
9102,53.0,4,168,8.0,105.0
9103,41.0,8,168,10.0,105.0
9104,77.0,100,120,5.0,105.0
9105,69.0,4,120,6.0,105.0
9106,74.0,2,752,0.0,105.0
9107,76.0,116,120,5.0,105.0
9108,67.0,4,120,6.0,105.0
9109,76.0,2,120,0.0,105.0
9110,65.0,4,168,7.0,105.0
9111,53.0,2,168,8.0,105.0
9112,41.0,8,168,10.0,105.0
9113,77.0,6,80,0.0,105.0
9114,74.0,100,120,5.0,105.0
9115,65.0,4,120,6.0,105.0
9116,69.0,0,960,1.0,105.0
9117,62.0,0,960,2.0,105.0
9118,65.0,0,960,2.0,105.0
9119,67.0,4,168,7.0,105.0
9120,55.0,2,168,8.0,105.0
9121,43.0,0,168,10.0,105.0
9122,67.0,228,168,7.0,105.0
9123,55.0,4,168,8.0,105.0
9124,43.0,8,168,10.0,105.0
9125,72.0,110,480,5.0,105.0
9126,64.0,4,480,6.0,105.0
9127,72.0,2,480,0.0,105.0
9128,64.0,0,480,1.0,105.0
9129,64.0,0,480,2.0,105.0
9130,60.0,8,480,2.0,105.0
9131,67.0,4,168,7.0,105.0
9132,55.0,2,168,8.0,105.0
9133,43.0,0,168,10.0,105.0
9134,67.0,228,168,7.0,105.0
9135,55.0,4,168,8.0,105.0
9136,43.0,8,168,10.0,105.0
9137,71.0,220,480,5.0,105.0
9138,62.0,4,480,6.0,105.0
9139,62.0,0,480,1.0,98.0
9140,71.0,2,480,0.0,98.0
9141,62.0,8,480,2.0,105.0
9142,55.0,0,480,2.0,105.0
9143,72.0,220,120,5.0,105.0
9144,60.0,4,120,6.0,105.0
9145,64.0,4,168,7.0,105.0
9146,52.0,2,168,8.0,105.0
9147,40.0,0,168,10.0,105.0
9148,74.0,100,120,5.0,105.0
9149,62.0,4,120,6.0,105.0
9150,76.0,116,120,5.0,105.0
9151,64.0,4,120,6.0,105.0
9152,64.0,4,168,7.0,105.0
9153,52.0,4,168,8.0,105.0
9154,40.0,8,168,10.0,105.0
9155,77.0,100,120,5.0,105.0
9156,65.0,4,120,6.0,105.0
9157,48.0,8,480,2.0,105.0
9158,60.0,0,480,2.0,105.0
9159,79.0,116,120,5.0,105.0
9160,67.0,4,120,6.0,105.0
9161,64.0,4,168,7.0,105.0
9162,52.0,4,168,8.0,105.0
9163,40.0,8,168,10.0,105.0
9164,81.0,100,120,5.0,105.0
9165,69.0,4,120,6.0,105.0
9166,60.0,0,240,2.0,105.0
9167,83.0,116,120,5.0,105.0
9168,71.0,4,120,6.0,105.0
9169,64.0,4,168,7.0,105.0
9170,52.0,4,168,8.0,105.0
9171,40.0,0,168,10.0,105.0
9172,84.0,100,120,5.0,105.0
9173,72.0,4,120,6.0,105.0
9174,72.0,2,960,0.0,96.0
9175,67.0,0,960,1.0,96.0
9176,60.0,8,240,2.0,105.0
9177,69.0,116,120,5.0,105.0
9178,57.0,4,120,6.0,105.0
9179,65.0,4,168,7.0,105.0
9180,53.0,2,168,8.0,105.0
9181,41.0,0,168,10.0,105.0
9182,71.0,100,120,5.0,105.0
9183,59.0,4,120,6.0,105.0
9184,72.0,116,120,5.0,105.0
9185,60.0,4,120,6.0,105.0
9186,65.0,4,168,7.0,105.0
9187,53.0,4,168,8.0,105.0
9188,41.0,8,168,10.0,105.0
9189,74.0,100,120,5.0,105.0
9190,62.0,4,120,6.0,105.0
9191,60.0,0,480,2.0,105.0
9192,62.0,8,0,2.0,105.0
9193,76.0,116,120,5.0,105.0
9194,64.0,4,120,6.0,105.0
9195,65.0,4,168,7.0,105.0
9196,53.0,4,168,8.0,105.0
9197,41.0,0,168,10.0,105.0
9198,77.0,100,120,5.0,105.0
9199,65.0,4,120,6.0,105.0
9200,60.0,0,240,2.0,105.0
9201,79.0,116,120,5.0,105.0
9202,67.0,4,120,6.0,105.0
9203,65.0,4,168,7.0,105.0
9204,53.0,4,168,8.0,105.0
9205,41.0,0,168,10.0,105.0
9206,81.0,100,120,5.0,105.0
9207,69.0,4,120,6.0,105.0
9208,81.0,2,960,0.0,96.0
9209,72.0,0,960,1.0,96.0
9210,60.0,0,0,2.0,105.0
9211,62.0,8,240,2.0,105.0
9212,67.0,116,120,5.0,105.0
9213,55.0,4,120,6.0,105.0
9214,67.0,4,168,7.0,105.0
9215,55.0,2,168,8.0,105.0
9216,43.0,8,168,10.0,105.0
9217,69.0,100,120,5.0,105.0
9218,57.0,4,120,6.0,105.0
9219,71.0,116,120,5.0,105.0
9220,59.0,4,120,6.0,105.0
9221,67.0,4,168,7.0,105.0
9222,55.0,4,168,8.0,105.0
9223,43.0,8,168,10.0,105.0
9224,72.0,100,120,5.0,105.0
9225,60.0,4,120,6.0,105.0
9226,60.0,0,0,2.0,105.0
9227,64.0,8,0,2.0,105.0
9228,74.0,116,120,5.0,105.0
9229,62.0,4,120,6.0,105.0
9230,67.0,4,168,7.0,105.0
9231,55.0,4,168,8.0,105.0
9232,43.0,0,168,10.0,105.0
9233,76.0,100,120,5.0,105.0
9234,64.0,4,120,6.0,105.0
9235,72.0,2,720,1.0,105.0
9236,76.0,0,720,0.0,105.0
9237,77.0,116,120,5.0,105.0
9238,65.0,4,120,6.0,105.0
9239,77.0,2,120,0.0,105.0
9240,74.0,0,120,1.0,105.0
9241,67.0,4,168,7.0,105.0
9242,55.0,2,168,8.0,105.0
9243,43.0,8,168,10.0,105.0
9244,76.0,6,96,1.0,105.0
9245,79.0,0,96,0.0,105.0
9246,79.0,110,0,5.0,105.0
9247,67.0,4,0,6.0,105.0
9248,64.0,0,240,2.0,105.0
9249,60.0,0,240,2.0,105.0
9250,67.0,4,168,7.0,105.0
9251,55.0,2,168,8.0,105.0
9252,43.0,0,168,10.0,105.0
9253,64.0,0,240,2.0,105.0
9254,67.0,8,240,2.0,105.0
9255,76.0,0,296,1.0,105.0
9256,79.0,2,296,0.0,105.0
9257,65.0,4,169,6.0,105.0
9258,67.0,4,168,7.0,105.0
9259,77.0,220,179,5.0,105.0
9260,55.0,2,168,8.0,105.0
9261,43.0,0,168,10.0,105.0
9262,74.0,2,184,1.0,105.0
9263,77.0,0,192,0.0,105.0
9264,65.0,8,240,2.0,105.0
9265,62.0,0,240,2.0,105.0
9266,76.0,220,96,5.0,105.0
9267,64.0,4,96,6.0,105.0
9268,76.0,0,96,0.0,105.0
9269,72.0,2,96,1.0,105.0
9270,55.0,4,168,7.0,105.0
9271,43.0,2,168,8.0,105.0
9272,31.0,0,168,10.0,105.0
9273,60.0,8,240,2.0,105.0
9274,64.0,0,240,2.0,105.0
9275,74.0,220,96,5.0,105.0
9276,62.0,4,96,6.0,105.0
9277,71.0,0,96,1.0,105.0
9278,74.0,2,96,0.0,105.0
9279,55.0,4,168,7.0,105.0
9280,43.0,2,168,8.0,105.0
9281,31.0,0,168,10.0,105.0
9282,55.0,0,240,2.0,105.0
9283,62.0,8,240,2.0,105.0
9284,60.0,4,240,7.0,105.0
9285,48.0,2,240,8.0,105.0
9286,36.0,0,240,10.0,105.0
9287,72.0,2,424,0.0,105.0
9288,60.0,0,429,2.0,105.0
9289,52.0,8,444,2.0,105.0
9290,55.0,0,480,5.0,105.0
9291,72.0,220,480,5.0,105.0
9292,64.0,0,480,5.0,105.0
9293,60.0,4,480,6.0,105.0
9294,64.0,228,240,7.0,105.0
9295,52.0,4,240,8.0,105.0
9296,40.0,8,240,10.0,105.0
9297,67.0,228,240,7.0,105.0
9298,55.0,2,240,8.0,105.0
9299,43.0,0,240,10.0,105.0
9300,67.0,2,304,1.0,105.0
9301,52.0,8,304,2.0,105.0
9302,72.0,0,319,0.0,105.0
9303,60.0,0,324,2.0,105.0
9304,79.0,220,106,5.0,105.0
9305,67.0,4,106,6.0,106.0
9306,81.0,60,101,5.0,103.0
9307,69.0,4,101,6.0,107.0
9308,67.0,46,89,1.0,105.0
9309,72.0,0,89,0.0,105.0
9310,52.0,0,84,2.0,105.0
9311,60.0,10,89,2.0,105.0
9312,64.0,4,240,7.0,105.0
9313,52.0,4,240,8.0,105.0
9314,40.0,8,240,10.0,105.0
9315,83.0,16,112,5.0,105.0
9316,71.0,4,112,6.0,107.0
9317,60.0,4,240,7.0,105.0
9318,48.0,2,240,8.0,105.0
9319,36.0,8,240,10.0,105.0
9320,72.0,0,449,0.0,105.0
9321,60.0,0,444,2.0,105.0
9322,67.0,2,454,1.0,105.0
9323,52.0,0,449,2.0,105.0
9324,84.0,80,480,5.0,107.0
9325,72.0,4,480,6.0,109.0
9326,64.0,228,240,7.0,105.0
9327,52.0,4,240,8.0,105.0
9328,40.0,8,240,10.0,105.0
9329,67.0,228,240,7.0,105.0
9330,55.0,2,240,8.0,105.0
9331,43.0,0,240,10.0,105.0
9332,64.0,0,304,2.0,105.0
9333,60.0,8,304,2.0,105.0
9334,76.0,2,319,0.0,105.0
9335,72.0,0,329,1.0,105.0
9336,79.0,220,106,5.0,104.0
9337,67.0,4,106,6.0,105.0
9338,81.0,60,101,5.0,106.0
9339,69.0,4,101,6.0,109.0
9340,76.0,46,89,0.0,105.0
9341,72.0,0,94,1.0,105.0
9342,60.0,10,89,2.0,105.0
9343,64.0,0,99,2.0,105.0
9344,64.0,4,240,7.0,105.0
9345,52.0,4,240,8.0,105.0
9346,40.0,8,240,10.0,105.0
9347,83.0,16,112,5.0,108.0
9348,71.0,4,112,6.0,110.0
9349,60.0,4,240,7.0,105.0
9350,48.0,2,240,8.0,105.0
9351,36.0,8,240,10.0,105.0
9352,76.0,2,429,0.0,105.0
9353,72.0,0,439,1.0,105.0
9354,64.0,0,429,2.0,105.0
9355,60.0,0,444,2.0,105.0
9356,84.0,80,480,5.0,111.0
9357,72.0,4,480,6.0,114.0
9358,64.0,228,240,7.0,105.0
9359,52.0,4,240,8.0,105.0
9360,40.0,8,240,10.0,105.0
9361,67.0,228,240,7.0,105.0
9362,55.0,2,240,8.0,105.0
9363,43.0,8,240,10.0,105.0
9364,79.0,2,309,0.0,105.0
9365,64.0,0,309,2.0,105.0
9366,76.0,0,319,1.0,105.0
9367,67.0,0,319,2.0,105.0
9368,79.0,220,106,5.0,103.0
9369,67.0,4,106,6.0,107.0
9370,81.0,60,101,5.0,105.0
9371,69.0,4,101,6.0,111.0
9372,79.0,0,94,0.0,105.0
9373,64.0,10,84,2.0,105.0
9374,76.0,46,94,1.0,105.0
9375,67.0,0,89,2.0,105.0
9376,64.0,4,240,7.0,105.0
9377,52.0,4,240,8.0,105.0
9378,40.0,8,240,10.0,105.0
9379,83.0,16,112,5.0,106.0
9380,71.0,4,112,6.0,113.0
9381,84.0,80,240,5.0,110.0
9382,72.0,4,240,6.0,114.0
9383,60.0,4,240,7.0,105.0
9384,48.0,2,240,8.0,105.0
9385,36.0,8,240,10.0,105.0
9386,79.0,220,106,5.0,102.0
9387,67.0,4,106,6.0,105.0
9388,81.0,60,101,5.0,102.0
9389,69.0,4,101,6.0,108.0
9390,79.0,2,449,0.0,105.0
9391,64.0,0,439,2.0,105.0
9392,76.0,0,449,1.0,105.0
9393,67.0,0,439,2.0,105.0
9394,64.0,4,240,7.0,105.0
9395,52.0,4,240,8.0,105.0
9396,40.0,8,240,10.0,105.0
9397,83.0,72,112,5.0,107.0
9398,71.0,4,112,6.0,111.0
9399,84.0,80,240,5.0,112.0
9400,72.0,4,240,6.0,113.0
9401,67.0,4,240,7.0,105.0
9402,55.0,2,240,8.0,105.0
9403,43.0,8,240,10.0,105.0
9404,76.0,2,304,1.0,105.0
9405,84.0,0,309,0.0,105.0
9406,60.0,0,319,2.0,105.0
9407,64.0,0,319,2.0,105.0
9408,79.0,220,106,5.0,109.0
9409,67.0,4,106,6.0,107.0
9410,81.0,60,101,5.0,112.0
9411,69.0,4,101,6.0,109.0
9412,84.0,0,89,0.0,105.0
9413,64.0,0,84,2.0,105.0
9414,60.0,10,84,2.0,105.0
9415,76.0,46,94,1.0,105.0
9416,64.0,4,240,7.0,105.0
9417,52.0,4,240,8.0,105.0
9418,40.0,8,240,10.0,105.0
9419,83.0,16,112,5.0,112.0
9420,71.0,4,112,6.0,111.0
9421,64.0,0,120,4.0,89.0
9422,79.0,0,120,4.0,89.0
9423,76.0,0,240,4.0,89.0
9424,84.0,120,120,4.0,89.0
9425,60.0,0,0,4.0,89.0
9426,67.0,0,120,4.0,89.0
9427,72.0,120,0,4.0,89.0
9428,64.0,0,120,4.0,89.0
9429,79.0,0,120,4.0,89.0
9430,60.0,4,456,7.0,105.0
9431,76.0,0,480,1.0,105.0
9432,84.0,2,480,0.0,105.0
9433,84.0,120,120,4.0,89.0
9434,76.0,0,0,4.0,89.0
9435,72.0,0,0,4.0,89.0
9436,67.0,0,120,4.0,89.0
9437,64.0,0,480,2.0,105.0
9438,60.0,0,480,2.0,105.0
9439,60.0,120,0,4.0,89.0
9440,64.0,0,120,4.0,89.0
9441,79.0,0,120,4.0,89.0
9442,84.0,80,684,5.0,114.0
9443,72.0,4,684,6.0,114.0
9444,60.0,2,684,8.0,105.0
9445,48.0,0,684,10.0,105.0
9446,84.0,120,120,4.0,89.0
9447,67.0,0,120,4.0,89.0
9448,64.0,0,120,4.0,89.0
9449,79.0,8,120,4.0,89.0
9450,79.0,100,228,5.0,105.0
9451,67.0,4,228,6.0,105.0
9452,55.0,8,228,8.0,105.0
9453,43.0,0,228,10.0,105.0
9454,67.0,120,120,4.0,89.0
9455,84.0,0,120,4.0,89.0
9456,76.0,0,0,4.0,89.0
9457,60.0,8,0,4.0,89.0
9458,72.0,0,0,4.0,89.0
9459,79.0,0,120,4.0,89.0
9460,64.0,0,120,4.0,89.0
9461,76.0,100,228,5.0,105.0
9462,64.0,4,228,6.0,105.0
9463,52.0,2,228,8.0,105.0
9464,40.0,0,228,10.0,105.0
9465,60.0,0,0,4.0,89.0
9466,84.0,0,120,4.0,89.0
9467,67.0,120,120,4.0,89.0
9468,64.0,0,120,4.0,89.0
9469,79.0,0,120,4.0,89.0
9470,72.0,100,228,5.0,105.0
9471,60.0,4,228,6.0,105.0
9472,48.0,8,228,8.0,105.0
9473,36.0,8,228,10.0,105.0
9474,84.0,0,120,4.0,90.0
9475,76.0,0,0,4.0,90.0
9476,60.0,0,0,4.0,90.0
9477,72.0,8,0,4.0,90.0
9478,67.0,120,120,4.0,90.0
9479,79.0,0,120,4.0,90.0
9480,64.0,0,120,4.0,90.0
9481,72.0,4,684,7.0,105.0
9482,76.0,100,228,5.0,105.0
9483,64.0,4,228,6.0,105.0
9484,52.0,8,228,8.0,105.0
9485,40.0,0,228,10.0,105.0
9486,84.0,2,720,0.0,105.0
9487,84.0,120,120,4.0,90.0
9488,76.0,0,0,4.0,90.0
9489,60.0,8,0,4.0,90.0
9490,67.0,0,120,4.0,90.0
9491,60.0,0,720,2.0,105.0
9492,79.0,0,120,4.0,90.0
9493,64.0,0,120,4.0,90.0
9494,79.0,100,228,5.0,105.0
9495,67.0,4,228,6.0,105.0
9496,67.0,4,228,7.0,105.0
9497,55.0,2,228,8.0,105.0
9498,43.0,0,228,10.0,105.0
9499,79.0,2,240,0.0,105.0
9500,55.0,0,240,2.0,105.0
9501,67.0,0,120,4.0,90.0
9502,84.0,120,120,4.0,90.0
9503,76.0,0,0,4.0,90.0
9504,60.0,0,0,4.0,90.0
9505,72.0,0,0,4.0,90.0
9506,64.0,8,120,4.0,90.0
9507,79.0,0,120,4.0,90.0
9508,64.0,4,228,7.0,105.0
9509,76.0,2,240,0.0,105.0
9510,52.0,0,240,2.0,105.0
9511,84.0,120,120,4.0,90.0
9512,67.0,0,120,4.0,90.0
9513,79.0,0,120,4.0,90.0
9514,64.0,0,120,4.0,90.0
9515,60.0,108,228,7.0,105.0
9516,72.0,2,240,0.0,105.0
9517,72.0,10,240,4.0,90.0
9518,48.0,0,240,2.0,105.0
9519,84.0,120,120,4.0,90.0
9520,76.0,0,0,4.0,90.0
9521,60.0,0,0,4.0,90.0
9522,67.0,0,120,4.0,90.0
9523,79.0,0,120,4.0,90.0
9524,64.0,0,120,4.0,90.0
9525,84.0,100,684,5.0,105.0
9526,72.0,4,684,6.0,105.0
9527,60.0,2,684,8.0,105.0
9528,48.0,0,684,10.0,105.0
9529,64.0,108,228,7.0,105.0
9530,76.0,2,240,0.0,105.0
9531,67.0,0,120,4.0,90.0
9532,72.0,0,240,4.0,90.0
9533,84.0,120,120,4.0,90.0
9534,76.0,8,0,4.0,91.0
9535,52.0,10,240,2.0,105.0
9536,79.0,0,120,4.0,91.0
9537,64.0,0,120,4.0,91.0
9538,79.0,100,228,5.0,105.0
9539,67.0,4,228,6.0,105.0
9540,67.0,4,228,7.0,105.0
9541,55.0,2,228,8.0,105.0
9542,43.0,0,228,10.0,105.0
9543,79.0,2,240,0.0,105.0
9544,72.0,0,240,4.0,91.0
9545,60.0,0,240,4.0,91.0
9546,55.0,0,240,2.0,105.0
9547,67.0,120,120,4.0,91.0
9548,84.0,0,120,4.0,91.0
9549,79.0,0,120,4.0,91.0
9550,64.0,0,120,4.0,91.0
9551,76.0,100,228,5.0,105.0
9552,64.0,4,228,6.0,105.0
9553,52.0,2,228,8.0,105.0
9554,40.0,8,228,10.0,105.0
9555,60.0,0,240,4.0,91.0
9556,72.0,0,240,4.0,91.0
9557,76.0,0,240,4.0,91.0
9558,84.0,0,120,4.0,91.0
9559,67.0,120,120,4.0,91.0
9560,79.0,0,120,4.0,91.0
9561,64.0,0,120,4.0,91.0
9562,72.0,100,228,5.0,105.0
9563,60.0,4,228,6.0,105.0
9564,48.0,8,228,8.0,105.0
9565,36.0,8,228,10.0,105.0
9566,84.0,120,120,4.0,91.0
9567,60.0,8,0,4.0,91.0
9568,72.0,0,0,4.0,91.0
9569,67.0,0,120,4.0,91.0
9570,76.0,0,0,4.0,91.0
9571,64.0,0,120,4.0,91.0
9572,79.0,0,120,4.0,91.0
9573,72.0,4,684,7.0,105.0
9574,76.0,100,228,5.0,105.0
9575,64.0,4,228,6.0,105.0
9576,52.0,8,228,8.0,105.0
9577,40.0,0,228,10.0,105.0
9578,84.0,2,720,0.0,105.0
9579,60.0,0,720,2.0,105.0
9580,72.0,0,0,4.0,91.0
9581,60.0,0,0,4.0,91.0
9582,76.0,8,0,4.0,91.0
9583,84.0,120,120,4.0,91.0
9584,67.0,0,120,4.0,91.0
9585,79.0,0,120,4.0,91.0
9586,64.0,0,120,4.0,91.0
9587,79.0,100,228,5.0,105.0
9588,67.0,4,228,6.0,105.0
9589,67.0,4,228,7.0,105.0
9590,55.0,2,228,8.0,105.0
9591,43.0,0,228,10.0,105.0
9592,79.0,2,240,0.0,105.0
9593,84.0,0,120,4.0,91.0
9594,55.0,0,240,2.0,105.0
9595,67.0,120,120,4.0,91.0
9596,60.0,0,0,4.0,91.0
9597,64.0,4,240,7.0,105.0
9598,76.0,2,240,0.0,105.0
9599,52.0,0,240,2.0,105.0
9600,84.0,100,480,5.0,105.0
9601,84.0,0,4304,3.0,123.0
9602,72.0,0,0,6.0,105.0
9603,60.0,228,240,7.0,105.0
9604,72.0,2,240,0.0,105.0
9605,60.0,2,0,8.0,105.0
9606,48.0,0,0,10.0,105.0
9607,48.0,10,240,2.0,105.0
9608,64.0,8,480,4.0,91.0
9609,79.0,0,480,4.0,91.0
9610,76.0,0,480,4.0,91.0
9611,72.0,0,0,4.0,105.0
9612,64.0,4,240,7.0,105.0
9613,76.0,2,240,0.0,105.0
9614,52.0,0,240,2.0,105.0
9615,84.0,8,449,3.0,127.0
9616,84.0,220,0,5.0,105.0
9617,76.0,0,0,5.0,105.0
9618,67.0,4,480,6.0,105.0
9619,76.0,0,0,6.0,105.0
9620,67.0,228,240,7.0,105.0
9621,79.0,2,240,0.0,105.0
9622,84.0,0,480,4.0,105.0
9623,76.0,0,0,4.0,105.0
9624,48.0,0,480,4.0,105.0
9625,72.0,8,0,4.0,105.0
9626,55.0,10,240,2.0,105.0
9627,79.0,0,480,4.0,105.0
9628,60.0,0,480,4.0,105.0
9629,64.0,4,240,7.0,105.0
9630,76.0,2,240,0.0,105.0
9631,52.0,0,240,2.0,105.0
9632,84.0,0,444,3.0,127.0
9633,76.0,0,0,5.0,105.0
9634,67.0,0,0,6.0,105.0
9635,72.0,4,0,6.0,105.0
9636,76.0,0,0,6.0,105.0
9637,60.0,228,240,7.0,105.0
9638,72.0,2,240,0.0,105.0
9639,55.0,2,480,8.0,105.0
9640,55.0,0,480,4.0,105.0
9641,79.0,0,480,4.0,105.0
9642,43.0,0,480,4.0,105.0
9643,84.0,8,0,4.0,105.0
9644,43.0,0,480,10.0,105.0
9645,48.0,10,240,2.0,105.0
9646,64.0,4,240,7.0,105.0
9647,76.0,2,240,0.0,105.0
9648,52.0,0,240,2.0,105.0
9649,84.0,0,449,3.0,126.0
9650,76.0,0,0,5.0,105.0
9651,84.0,220,0,5.0,105.0
9652,67.0,0,0,6.0,105.0
9653,76.0,4,0,6.0,105.0
9654,67.0,228,240,7.0,105.0
9655,79.0,2,240,0.0,105.0
9656,52.0,2,480,8.0,105.0
9657,40.0,0,480,10.0,105.0
9658,52.0,0,480,4.0,105.0
9659,76.0,0,0,4.0,105.0
9660,79.0,8,0,4.0,105.0
9661,55.0,10,240,2.0,105.0
9662,72.0,0,480,4.0,105.0
9663,40.0,0,480,4.0,105.0
9664,84.0,0,0,4.0,105.0
9665,72.0,0,480,6.0,105.0
9666,48.0,0,480,7.0,105.0
9667,55.0,0,480,7.0,105.0
9668,64.0,4,480,7.0,105.0
9669,72.0,0,480,1.0,105.0
9670,76.0,0,480,0.0,105.0
9671,72.0,2,480,0.0,105.0
9672,48.0,2,480,8.0,105.0
9673,36.0,0,480,4.0,105.0
9674,72.0,0,480,4.0,105.0
9675,36.0,0,480,10.0,105.0
9676,60.0,0,480,2.0,105.0
9677,52.0,0,480,2.0,105.0
9678,84.0,0,480,3.0,126.0
9679,48.0,0,480,4.0,105.0
