,note,step,duration,channel,velocity
0,36.0,0,94,6.0,92.0
1,48.0,0,94,6.0,92.0
2,60.0,0,160,4.0,92.0
3,72.0,0,160,4.0,92.0
4,36.0,96,94,6.0,92.0
5,48.0,0,94,6.0,92.0
6,48.0,0,94,6.0,92.0
7,60.0,0,94,4.0,92.0
8,36.0,96,94,6.0,92.0
9,72.0,0,94,4.0,92.0
10,36.0,96,94,6.0,92.0
11,48.0,0,94,6.0,92.0
12,36.0,0,94,6.0,92.0
13,72.0,96,94,4.0,92.0
14,48.0,0,94,6.0,92.0
15,71.0,0,46,4.0,92.0
16,64.0,0,528,1.0,108.0
17,48.0,0,528,3.0,108.0
18,55.0,0,528,2.0,108.0
19,67.0,0,528,5.0,92.0
20,64.0,0,528,5.0,92.0
21,72.0,0,528,0.0,108.0
22,36.0,0,94,6.0,92.0
23,48.0,96,94,6.0,92.0
24,72.0,48,46,4.0,92.0
25,65.0,0,160,1.0,108.0
26,50.0,0,160,6.0,92.0
27,55.0,0,160,2.0,108.0
28,71.0,0,160,0.0,108.0
29,50.0,0,160,3.0,108.0
30,38.0,0,160,6.0,92.0
31,71.0,48,160,4.0,92.0
32,62.0,0,160,4.0,92.0
33,65.0,0,160,4.0,92.0
34,67.0,0,160,4.0,92.0
35,67.0,288,48,4.0,92.0
36,66.0,48,48,4.0,92.0
37,67.0,48,94,4.0,92.0
38,69.0,96,32,4.0,92.0
39,71.0,96,32,4.0,92.0
40,69.0,96,32,4.0,92.0
41,67.0,96,32,4.0,92.0
42,69.0,96,32,4.0,92.0
43,71.0,96,32,4.0,92.0
44,72.0,96,32,4.0,92.0
45,74.0,96,32,4.0,92.0
46,72.0,96,32,4.0,92.0
47,71.0,96,32,4.0,92.0
48,72.0,96,32,4.0,92.0
49,74.0,96,32,4.0,92.0
50,76.0,96,32,4.0,92.0
51,35.0,0,94,6.0,92.0
52,47.0,0,94,6.0,92.0
53,77.0,96,160,4.0,92.0
54,47.0,0,94,6.0,92.0
55,35.0,96,94,6.0,92.0
56,67.0,0,94,4.0,92.0
57,35.0,0,94,6.0,92.0
58,47.0,96,94,6.0,92.0
59,77.0,96,94,4.0,92.0
60,35.0,0,94,6.0,92.0
61,47.0,0,94,6.0,92.0
62,77.0,96,94,4.0,92.0
63,35.0,0,94,6.0,92.0
64,47.0,0,94,6.0,92.0
65,76.0,0,46,4.0,92.0
66,62.0,0,526,2.0,108.0
67,47.0,0,526,3.0,108.0
68,77.0,0,526,0.0,108.0
69,67.0,0,526,1.0,108.0
70,67.0,0,528,5.0,92.0
71,74.0,0,528,5.0,92.0
72,67.0,48,46,1.0,108.0
73,47.0,0,46,3.0,108.0
74,77.0,0,46,0.0,108.0
75,35.0,0,94,6.0,92.0
76,47.0,96,94,6.0,92.0
77,77.0,0,46,4.0,92.0
78,62.0,0,46,2.0,108.0
79,48.0,0,160,3.0,108.0
80,76.0,0,160,0.0,108.0
81,67.0,0,160,1.0,108.0
82,72.0,0,160,4.0,92.0
83,76.0,0,160,4.0,92.0
84,36.0,0,160,6.0,92.0
85,48.0,0,160,6.0,92.0
86,67.0,0,160,4.0,92.0
87,60.0,48,160,2.0,108.0
88,72.0,288,48,4.0,92.0
89,71.0,48,48,4.0,92.0
90,72.0,48,94,4.0,92.0
91,74.0,96,32,4.0,92.0
92,76.0,96,32,4.0,92.0
93,74.0,96,32,4.0,92.0
94,72.0,96,32,4.0,92.0
95,74.0,96,32,4.0,92.0
96,76.0,96,32,4.0,92.0
97,77.0,96,32,4.0,92.0
98,79.0,96,32,4.0,92.0
99,77.0,96,32,4.0,92.0
100,76.0,96,32,4.0,92.0
101,77.0,96,32,4.0,92.0
102,79.0,96,32,4.0,92.0
103,80.0,96,32,4.0,92.0
104,48.0,0,94,6.0,92.0
105,36.0,0,94,6.0,92.0
106,81.0,96,160,4.0,92.0
107,72.0,0,160,4.0,92.0
108,69.0,0,160,4.0,92.0
109,77.0,0,160,4.0,92.0
110,36.0,96,94,6.0,92.0
111,48.0,0,94,6.0,92.0
112,60.0,0,256,2.0,108.0
113,69.0,0,256,1.0,108.0
114,48.0,0,256,3.0,108.0
115,77.0,0,256,0.0,108.0
116,36.0,0,94,6.0,92.0
117,48.0,96,94,6.0,92.0
118,72.0,0,160,4.0,92.0
119,77.0,0,160,4.0,92.0
120,69.0,0,160,4.0,92.0
121,81.0,0,160,4.0,92.0
122,72.0,0,94,0.0,108.0
123,69.0,0,94,1.0,108.0
124,48.0,0,94,3.0,108.0
125,48.0,0,94,6.0,92.0
126,36.0,0,94,6.0,92.0
127,60.0,96,94,2.0,108.0
128,36.0,0,94,6.0,92.0
129,48.0,0,94,6.0,92.0
130,60.0,96,160,2.0,108.0
131,65.0,0,160,1.0,108.0
132,69.0,0,160,0.0,108.0
133,81.0,0,160,4.0,92.0
134,72.0,0,160,4.0,92.0
135,69.0,0,160,4.0,92.0
136,77.0,0,160,4.0,92.0
137,48.0,0,160,3.0,108.0
138,48.0,0,94,6.0,92.0
139,36.0,96,94,6.0,92.0
140,65.0,0,160,1.0,108.0
141,48.0,0,160,3.0,108.0
142,60.0,0,160,2.0,108.0
143,69.0,0,160,0.0,108.0
144,36.0,0,160,6.0,92.0
145,48.0,96,160,6.0,92.0
146,81.0,0,160,4.0,92.0
147,69.0,0,160,4.0,92.0
148,77.0,0,160,4.0,92.0
149,72.0,0,160,4.0,92.0
150,60.0,0,160,2.0,108.0
151,48.0,0,160,3.0,108.0
152,67.0,0,160,0.0,108.0
153,76.0,0,160,4.0,92.0
154,67.0,0,160,4.0,92.0
155,72.0,192,160,4.0,92.0
156,79.0,0,160,4.0,92.0
157,48.0,0,160,6.0,92.0
158,36.0,0,160,6.0,92.0
159,64.0,0,160,1.0,108.0
160,72.0,192,24,4.0,92.0
161,74.0,24,24,4.0,92.0
162,76.0,24,142,4.0,92.0
163,76.0,0,24,4.0,92.0
164,77.0,24,24,4.0,92.0
165,79.0,24,142,4.0,92.0
166,67.0,0,336,0.0,108.0
167,64.0,144,336,1.0,108.0
168,55.0,0,160,2.0,108.0
169,52.0,0,160,3.0,108.0
170,67.0,0,160,4.0,92.0
171,40.0,144,160,6.0,92.0
172,52.0,0,160,6.0,92.0
173,76.0,0,94,4.0,92.0
174,74.0,96,46,4.0,92.0
175,64.0,0,160,2.0,108.0
176,72.0,0,160,0.0,108.0
177,53.0,0,160,6.0,92.0
178,69.0,0,160,4.0,92.0
179,72.0,48,16,4.0,92.0
180,69.0,192,160,1.0,108.0
181,53.0,0,160,3.0,108.0
182,41.0,0,160,6.0,92.0
183,67.0,0,160,1.0,108.0
184,72.0,0,160,0.0,108.0
185,55.0,0,160,6.0,92.0
186,43.0,0,160,6.0,92.0
187,64.0,0,160,2.0,108.0
188,55.0,0,160,3.0,108.0
189,67.0,0,192,4.0,92.0
190,64.0,0,192,4.0,92.0
191,72.0,48,192,4.0,92.0
192,62.0,0,160,2.0,108.0
193,67.0,0,160,1.0,108.0
194,71.0,0,160,0.0,108.0
195,43.0,0,160,3.0,108.0
196,71.0,0,160,4.0,92.0
197,43.0,0,160,6.0,92.0
198,31.0,0,160,6.0,92.0
199,62.0,192,160,4.0,92.0
200,67.0,0,160,4.0,92.0
201,71.0,192,24,4.0,92.0
202,72.0,24,24,4.0,92.0
203,74.0,24,142,4.0,92.0
204,74.0,144,24,4.0,92.0
205,76.0,24,24,4.0,92.0
206,59.0,0,160,2.0,108.0
207,67.0,0,160,0.0,108.0
208,67.0,0,160,1.0,108.0
209,55.0,0,160,3.0,108.0
210,77.0,24,142,4.0,92.0
211,57.0,144,160,6.0,92.0
212,45.0,0,160,6.0,92.0
213,60.0,0,160,2.0,108.0
214,67.0,0,160,4.0,92.0
215,57.0,0,160,3.0,108.0
216,67.0,0,256,1.0,108.0
217,67.0,0,256,0.0,108.0
218,77.0,0,94,4.0,92.0
219,76.0,0,46,4.0,92.0
220,59.0,0,160,6.0,92.0
221,47.0,0,160,6.0,92.0
222,59.0,192,160,3.0,108.0
223,67.0,0,160,4.0,92.0
224,74.0,48,16,4.0,92.0
225,65.0,0,160,2.0,108.0
226,67.0,0,94,1.0,108.0
227,74.0,96,94,0.0,108.0
228,48.0,0,160,6.0,92.0
229,74.0,0,160,0.0,108.0
230,60.0,0,160,6.0,92.0
231,60.0,0,160,3.0,108.0
232,67.0,48,160,1.0,108.0
233,65.0,0,160,2.0,108.0
234,67.0,192,0,4.0,92.0
235,74.0,0,192,4.0,92.0
236,65.0,0,192,4.0,92.0
237,72.0,0,160,4.0,92.0
238,67.0,0,160,1.0,108.0
239,64.0,0,160,2.0,108.0
240,64.0,0,160,4.0,92.0
241,48.0,0,160,6.0,92.0
242,48.0,0,160,3.0,108.0
243,36.0,0,160,6.0,92.0
244,72.0,0,160,0.0,108.0
245,72.0,192,24,4.0,92.0
246,74.0,24,24,4.0,92.0
247,76.0,24,142,4.0,92.0
248,76.0,0,24,4.0,92.0
249,77.0,24,24,4.0,92.0
250,79.0,24,142,4.0,92.0
251,76.0,144,336,0.0,108.0
252,60.0,0,336,3.0,108.0
253,64.0,0,336,2.0,108.0
254,67.0,0,336,1.0,108.0
255,60.0,144,160,6.0,92.0
256,81.0,0,24,4.0,92.0
257,83.0,24,24,4.0,92.0
258,65.0,192,160,6.0,92.0
259,60.0,0,160,2.0,108.0
260,57.0,0,160,3.0,108.0
261,57.0,0,160,6.0,92.0
262,65.0,0,160,1.0,108.0
263,60.0,0,160,6.0,92.0
264,77.0,0,160,0.0,108.0
265,84.0,24,142,4.0,92.0
266,74.0,144,24,4.0,92.0
267,76.0,24,24,4.0,92.0
268,77.0,24,142,4.0,92.0
269,62.0,0,256,2.0,108.0
270,65.0,0,256,1.0,108.0
271,74.0,0,256,0.0,108.0
272,59.0,0,256,3.0,108.0
273,59.0,144,160,6.0,92.0
274,65.0,96,94,1.0,108.0
275,59.0,0,94,3.0,108.0
276,62.0,0,94,2.0,108.0
277,74.0,0,94,0.0,108.0
278,79.0,0,24,4.0,92.0
279,81.0,24,24,4.0,92.0
280,55.0,0,94,3.0,108.0
281,64.0,0,94,1.0,108.0
282,76.0,0,94,0.0,108.0
283,59.0,0,94,2.0,108.0
284,64.0,0,160,6.0,92.0
285,59.0,96,160,6.0,92.0
286,55.0,0,160,6.0,92.0
287,76.0,0,94,0.0,108.0
288,64.0,0,94,1.0,108.0
289,83.0,24,142,4.0,92.0
290,59.0,0,94,2.0,108.0
291,55.0,48,94,3.0,108.0
292,72.0,0,24,4.0,92.0
293,74.0,24,24,4.0,92.0
294,76.0,24,142,4.0,92.0
295,57.0,0,336,3.0,108.0
296,60.0,0,336,2.0,108.0
297,64.0,96,336,1.0,108.0
298,72.0,0,336,0.0,108.0
299,57.0,144,160,6.0,92.0
300,77.0,0,24,4.0,92.0
301,79.0,24,24,4.0,92.0
302,65.0,0,160,2.0,108.0
303,62.0,0,160,6.0,92.0
304,57.0,0,160,6.0,92.0
305,53.0,0,160,6.0,92.0
306,69.0,0,160,1.0,108.0
307,74.0,192,160,0.0,108.0
308,53.0,0,160,3.0,108.0
309,81.0,24,142,4.0,92.0
310,55.0,0,160,6.0,92.0
311,55.0,0,160,3.0,108.0
312,71.0,0,160,4.0,92.0
313,67.0,0,160,4.0,92.0
314,62.0,0,160,4.0,92.0
315,53.0,0,94,6.0,92.0
316,62.0,192,94,6.0,92.0
317,83.0,0,94,4.0,92.0
318,81.0,0,46,4.0,92.0
319,62.0,0,336,2.0,108.0
320,71.0,144,336,0.0,108.0
321,67.0,0,336,1.0,108.0
322,53.0,0,160,3.0,108.0
323,79.0,48,46,4.0,92.0
324,55.0,96,94,6.0,92.0
325,52.0,0,94,6.0,92.0
326,84.0,0,94,4.0,92.0
327,72.0,48,94,0.0,108.0
328,60.0,0,94,6.0,92.0
329,64.0,0,94,2.0,108.0
330,67.0,0,94,1.0,108.0
331,52.0,0,160,3.0,108.0
332,55.0,0,94,6.0,92.0
333,79.0,0,94,4.0,92.0
334,67.0,0,94,1.0,108.0
335,64.0,96,94,2.0,108.0
336,72.0,0,94,0.0,108.0
337,43.0,0,160,6.0,92.0
338,77.0,0,160,4.0,92.0
339,79.0,0,160,4.0,92.0
340,86.0,96,160,4.0,92.0
341,55.0,0,160,6.0,92.0
342,47.0,192,94,6.0,92.0
343,45.0,96,46,6.0,92.0
344,77.0,0,336,0.0,108.0
345,67.0,0,336,1.0,108.0
346,62.0,0,336,2.0,108.0
347,47.0,0,336,3.0,108.0
348,77.0,0,160,4.0,92.0
349,74.0,0,160,4.0,92.0
350,67.0,0,160,4.0,92.0
351,43.0,48,46,6.0,92.0
352,48.0,48,94,6.0,92.0
353,76.0,0,160,0.0,108.0
354,67.0,0,160,1.0,108.0
355,48.0,0,160,3.0,108.0
356,67.0,0,160,4.0,92.0
357,76.0,0,160,4.0,92.0
358,60.0,0,160,2.0,108.0
359,72.0,0,160,4.0,92.0
360,52.0,96,94,6.0,92.0
361,74.0,0,160,0.0,108.0
362,67.0,0,160,1.0,108.0
363,59.0,0,160,2.0,108.0
364,55.0,96,160,6.0,92.0
365,55.0,0,160,3.0,108.0
366,43.0,0,160,6.0,92.0
367,74.0,0,160,4.0,92.0
368,71.0,0,160,4.0,92.0
369,67.0,0,160,4.0,92.0
370,53.0,0,94,6.0,92.0
371,62.0,0,94,6.0,92.0
372,83.0,0,94,4.0,92.0
373,81.0,96,46,4.0,92.0
374,62.0,0,160,2.0,108.0
375,53.0,192,160,3.0,108.0
376,67.0,0,160,1.0,108.0
377,71.0,0,160,0.0,108.0
378,79.0,48,46,4.0,92.0
379,55.0,0,94,6.0,92.0
380,84.0,0,94,4.0,92.0
381,52.0,0,94,6.0,92.0
382,60.0,0,94,6.0,92.0
383,60.0,0,160,2.0,108.0
384,52.0,0,160,3.0,108.0
385,72.0,0,160,0.0,108.0
386,67.0,48,160,1.0,108.0
387,55.0,0,94,6.0,92.0
388,79.0,96,94,4.0,92.0
389,43.0,0,160,6.0,92.0
390,77.0,0,160,4.0,92.0
391,79.0,0,160,4.0,92.0
392,86.0,0,160,4.0,92.0
393,55.0,0,160,6.0,92.0
394,47.0,0,94,6.0,92.0
395,45.0,96,46,6.0,92.0
396,74.0,192,160,4.0,92.0
397,67.0,0,160,4.0,92.0
398,77.0,0,160,4.0,92.0
399,43.0,48,46,6.0,92.0
400,62.0,0,384,2.0,108.0
401,77.0,0,384,0.0,108.0
402,59.0,96,384,3.0,108.0
403,48.0,0,94,6.0,92.0
404,67.0,0,528,1.0,108.0
405,72.0,0,160,4.0,92.0
406,76.0,0,160,4.0,92.0
407,60.0,0,160,3.0,108.0
408,60.0,0,160,2.0,108.0
409,76.0,48,160,0.0,108.0
410,67.0,0,160,4.0,92.0
411,52.0,96,94,6.0,92.0
412,67.0,96,160,1.0,108.0
413,74.0,0,160,4.0,92.0
414,71.0,0,160,4.0,92.0
415,74.0,0,160,0.0,108.0
416,55.0,0,160,3.0,108.0
417,55.0,0,160,6.0,92.0
418,67.0,0,160,4.0,92.0
419,59.0,0,160,2.0,108.0
420,83.0,0,94,4.0,92.0
421,59.0,192,94,6.0,92.0
422,81.0,96,46,4.0,92.0
423,57.0,0,46,6.0,92.0
424,79.0,48,46,4.0,92.0
425,55.0,0,46,6.0,92.0
426,84.0,48,94,4.0,92.0
427,60.0,0,94,6.0,92.0
428,79.0,0,94,4.0,92.0
429,55.0,96,94,6.0,92.0
430,55.0,0,94,6.0,92.0
431,67.0,96,94,6.0,92.0
432,79.0,0,94,4.0,92.0
433,78.0,96,46,4.0,92.0
434,67.0,0,94,6.0,92.0
435,55.0,0,94,6.0,92.0
436,79.0,48,46,4.0,92.0
437,76.0,0,94,4.0,92.0
438,64.0,0,94,6.0,92.0
439,52.0,48,94,6.0,92.0
440,75.0,0,46,4.0,92.0
441,76.0,48,46,4.0,92.0
442,52.0,96,94,6.0,92.0
443,64.0,0,94,6.0,92.0
444,72.0,0,94,4.0,92.0
445,60.0,48,94,6.0,92.0
446,48.0,0,94,6.0,92.0
447,71.0,96,46,4.0,92.0
448,60.0,0,94,6.0,92.0
449,48.0,0,94,6.0,92.0
450,72.0,48,46,4.0,92.0
451,67.0,48,142,4.0,92.0
452,43.0,0,160,6.0,92.0
453,55.0,0,160,6.0,92.0
454,67.0,144,46,4.0,92.0
455,79.0,48,142,4.0,92.0
456,79.0,0,336,0.0,108.0
457,79.0,144,46,4.0,92.0
458,76.0,0,142,4.0,92.0
459,76.0,48,160,0.0,108.0
460,76.0,144,46,4.0,92.0
461,73.0,0,142,4.0,92.0
462,73.0,48,160,0.0,108.0
463,73.0,144,46,4.0,92.0
464,76.0,0,142,4.0,92.0
465,76.0,48,160,0.0,108.0
466,76.0,144,46,4.0,92.0
467,70.0,48,142,4.0,92.0
468,70.0,0,160,0.0,108.0
469,70.0,144,46,4.0,92.0
470,69.0,0,32,4.0,92.0
471,81.0,96,32,4.0,92.0
472,65.0,0,32,6.0,92.0
473,69.0,48,160,0.0,108.0
474,69.0,0,94,1.0,108.0
475,64.0,0,32,6.0,92.0
476,79.0,96,32,4.0,92.0
477,81.0,0,32,4.0,92.0
478,67.0,0,96,1.0,108.0
479,77.0,0,32,4.0,92.0
480,81.0,96,32,4.0,92.0
481,62.0,0,32,6.0,92.0
482,69.0,0,160,0.0,108.0
483,65.0,0,94,1.0,108.0
484,76.0,0,32,4.0,92.0
485,81.0,0,32,4.0,92.0
486,61.0,0,32,6.0,92.0
487,64.0,96,96,1.0,108.0
488,74.0,0,32,4.0,92.0
489,81.0,96,32,4.0,92.0
490,58.0,0,32,6.0,92.0
491,69.0,0,160,0.0,108.0
492,62.0,0,94,1.0,108.0
493,57.0,0,32,6.0,92.0
494,81.0,0,32,4.0,92.0
495,73.0,96,32,4.0,92.0
496,74.0,0,32,4.0,92.0
497,81.0,0,32,4.0,92.0
498,58.0,96,32,6.0,92.0
499,64.0,0,94,2.0,108.0
500,57.0,0,32,6.0,92.0
501,81.0,96,32,4.0,92.0
502,73.0,0,32,4.0,92.0
503,61.0,0,256,1.0,108.0
504,70.0,0,32,4.0,92.0
505,55.0,0,32,6.0,92.0
506,81.0,0,32,4.0,92.0
507,69.0,0,336,0.0,108.0
508,57.0,0,160,2.0,108.0
509,64.0,96,94,1.0,108.0
510,53.0,0,32,6.0,92.0
511,69.0,96,32,5.0,92.0
512,79.0,96,32,5.0,92.0
513,52.0,0,32,6.0,92.0
514,81.0,0,144,4.0,92.0
515,69.0,0,160,1.0,108.0
516,79.0,0,160,0.0,108.0
517,61.0,0,160,2.0,108.0
518,83.0,48,24,4.0,92.0
519,85.0,24,24,4.0,92.0
520,50.0,0,32,6.0,92.0
521,62.0,24,94,2.0,108.0
522,86.0,0,94,4.0,92.0
523,77.0,0,94,4.0,92.0
524,77.0,0,94,0.0,108.0
525,81.0,0,32,4.0,92.0
526,65.0,96,32,6.0,92.0
527,57.0,0,160,3.0,108.0
528,74.0,0,94,0.0,108.0
529,65.0,0,94,2.0,108.0
530,64.0,0,32,6.0,92.0
531,79.0,0,32,4.0,92.0
532,81.0,96,32,4.0,92.0
533,67.0,0,94,2.0,108.0
534,73.0,0,96,0.0,108.0
535,77.0,0,32,4.0,92.0
536,81.0,0,32,4.0,92.0
537,62.0,0,32,6.0,92.0
538,57.0,0,160,3.0,108.0
539,74.0,0,94,0.0,108.0
540,65.0,96,94,2.0,108.0
541,76.0,0,32,4.0,92.0
542,81.0,0,32,4.0,92.0
543,61.0,96,32,6.0,92.0
544,64.0,0,94,2.0,108.0
545,76.0,0,96,0.0,108.0
546,58.0,0,32,6.0,92.0
547,74.0,0,32,4.0,92.0
548,81.0,0,32,4.0,92.0
549,69.0,0,528,1.0,108.0
550,57.0,0,160,3.0,108.0
551,62.0,96,94,2.0,108.0
552,77.0,0,94,0.0,108.0
553,73.0,0,32,4.0,92.0
554,81.0,0,32,4.0,92.0
555,57.0,0,32,6.0,92.0
556,81.0,0,32,4.0,92.0
557,58.0,96,32,6.0,92.0
558,74.0,0,32,4.0,92.0
559,73.0,96,32,4.0,92.0
560,81.0,0,32,4.0,92.0
561,57.0,0,32,6.0,92.0
562,55.0,96,32,6.0,92.0
563,81.0,0,32,4.0,92.0
564,70.0,0,32,4.0,92.0
565,53.0,0,32,6.0,92.0
566,69.0,0,32,5.0,92.0
567,79.0,96,32,5.0,92.0
568,52.0,0,32,6.0,92.0
569,57.0,0,526,3.0,108.0
570,61.0,0,528,2.0,108.0
571,69.0,0,528,1.0,108.0
572,81.0,96,144,4.0,92.0
573,79.0,96,528,0.0,108.0
574,83.0,0,24,4.0,92.0
575,57.0,48,46,3.0,108.0
576,85.0,24,24,4.0,92.0
577,77.0,0,160,0.0,108.0
578,86.0,0,160,4.0,92.0
579,77.0,0,160,4.0,92.0
580,50.0,0,160,6.0,92.0
581,62.0,0,160,2.0,108.0
582,50.0,24,160,3.0,108.0
583,69.0,0,160,1.0,108.0
584,77.0,192,142,4.0,92.0
585,77.0,0,160,0.0,108.0
586,77.0,144,46,4.0,92.0
587,74.0,48,142,4.0,92.0
588,74.0,0,160,0.0,108.0
589,74.0,144,46,4.0,92.0
590,71.0,0,142,4.0,92.0
591,71.0,48,160,0.0,108.0
592,71.0,144,46,4.0,92.0
593,74.0,0,142,4.0,92.0
594,74.0,48,160,0.0,108.0
595,74.0,144,46,4.0,92.0
596,68.0,0,142,4.0,92.0
597,68.0,48,160,0.0,108.0
598,68.0,144,46,4.0,92.0
599,67.0,0,32,4.0,92.0
600,64.0,0,32,6.0,92.0
601,79.0,96,32,4.0,92.0
602,67.0,0,94,1.0,108.0
603,79.0,0,32,4.0,92.0
604,77.0,0,32,4.0,92.0
605,62.0,0,32,6.0,92.0
606,67.0,48,256,0.0,108.0
607,65.0,96,96,1.0,108.0
608,60.0,0,32,6.0,92.0
609,79.0,96,32,4.0,92.0
610,76.0,0,32,4.0,92.0
611,64.0,0,94,1.0,108.0
612,67.0,0,94,0.0,108.0
613,79.0,0,32,4.0,92.0
614,74.0,0,32,4.0,92.0
615,59.0,0,32,6.0,92.0
616,62.0,0,94,1.0,108.0
617,79.0,0,32,4.0,92.0
618,72.0,0,32,4.0,92.0
619,57.0,0,32,6.0,92.0
620,67.0,96,160,0.0,108.0
621,60.0,96,94,1.0,108.0
622,55.0,0,32,6.0,92.0
623,71.0,0,32,4.0,92.0
624,79.0,0,32,4.0,92.0
625,62.0,96,94,2.0,108.0
626,79.0,0,32,4.0,92.0
627,72.0,0,32,4.0,92.0
628,57.0,96,32,6.0,92.0
629,67.0,0,160,0.0,108.0
630,59.0,0,160,1.0,108.0
631,62.0,0,94,2.0,108.0
632,55.0,0,32,6.0,92.0
633,79.0,0,32,4.0,92.0
634,71.0,0,32,4.0,92.0
635,79.0,0,32,4.0,92.0
636,53.0,96,32,6.0,92.0
637,69.0,0,32,4.0,92.0
638,67.0,0,160,0.0,108.0
639,62.0,0,160,1.0,108.0
640,55.0,96,192,2.0,108.0
641,52.0,0,32,6.0,92.0
642,67.0,0,32,5.0,92.0
643,50.0,96,32,6.0,92.0
644,77.0,0,32,5.0,92.0
645,79.0,0,142,4.0,92.0
646,67.0,96,160,1.0,108.0
647,77.0,0,160,0.0,108.0
648,81.0,48,22,4.0,92.0
649,83.0,24,22,4.0,92.0
650,59.0,0,192,2.0,108.0
651,48.0,0,32,6.0,92.0
652,76.0,0,94,4.0,92.0
653,84.0,24,94,4.0,92.0
654,60.0,0,96,2.0,108.0
655,76.0,0,96,0.0,108.0
656,64.0,0,32,6.0,92.0
657,79.0,96,32,4.0,92.0
658,67.0,0,160,1.0,108.0
659,72.0,0,94,0.0,108.0
660,64.0,0,94,2.0,108.0
661,77.0,0,32,4.0,92.0
662,79.0,0,32,4.0,92.0
663,62.0,96,32,6.0,92.0
664,71.0,0,96,0.0,108.0
665,65.0,0,96,2.0,108.0
666,60.0,96,32,6.0,92.0
667,76.0,0,32,4.0,92.0
668,79.0,0,32,4.0,92.0
669,55.0,0,336,3.0,108.0
670,67.0,0,160,1.0,108.0
671,64.0,0,94,2.0,108.0
672,72.0,0,94,0.0,108.0
673,79.0,0,32,4.0,92.0
674,59.0,0,32,6.0,92.0
675,74.0,0,32,4.0,92.0
676,62.0,96,96,2.0,108.0
677,74.0,0,96,0.0,108.0
678,72.0,96,32,4.0,92.0
679,79.0,0,32,4.0,92.0
680,57.0,0,32,6.0,92.0
681,67.0,0,160,1.0,108.0
682,55.0,0,160,3.0,108.0
683,60.0,0,94,2.0,108.0
684,76.0,0,94,0.0,108.0
685,79.0,0,32,4.0,92.0
686,71.0,0,32,4.0,92.0
687,55.0,0,32,6.0,92.0
688,57.0,96,32,6.0,92.0
689,79.0,0,32,4.0,92.0
690,72.0,0,32,4.0,92.0
691,55.0,0,32,6.0,92.0
692,71.0,0,32,4.0,92.0
693,79.0,96,32,4.0,92.0
694,53.0,0,32,6.0,92.0
695,69.0,96,32,4.0,92.0
696,79.0,0,32,4.0,92.0
697,67.0,0,32,5.0,92.0
698,52.0,0,32,6.0,92.0
699,50.0,0,32,6.0,92.0
700,77.0,96,32,5.0,92.0
701,59.0,0,526,2.0,108.0
702,55.0,0,528,3.0,108.0
703,67.0,0,528,1.0,108.0
704,79.0,96,144,4.0,92.0
705,77.0,96,528,0.0,108.0
706,81.0,0,24,4.0,92.0
707,59.0,48,46,2.0,108.0
708,83.0,24,24,4.0,92.0
709,84.0,0,94,4.0,92.0
710,76.0,0,94,4.0,92.0
711,48.0,0,94,6.0,92.0
712,67.0,0,160,1.0,108.0
713,48.0,0,160,3.0,108.0
714,60.0,0,160,2.0,108.0
715,76.0,24,160,0.0,108.0
716,60.0,0,94,6.0,92.0
717,67.0,96,160,4.0,92.0
718,76.0,0,160,4.0,92.0
719,48.0,0,94,6.0,92.0
720,67.0,0,160,1.0,108.0
721,76.0,96,160,0.0,108.0
722,60.0,96,94,6.0,92.0
723,67.0,0,160,4.0,92.0
724,76.0,0,160,4.0,92.0
725,48.0,0,94,6.0,92.0
726,76.0,96,160,0.0,108.0
727,67.0,0,160,1.0,108.0
728,76.0,0,94,4.0,92.0
729,60.0,96,94,6.0,92.0
730,67.0,0,94,4.0,92.0
731,48.0,0,94,6.0,92.0
732,66.0,0,94,4.0,92.0
733,75.0,96,94,4.0,92.0
734,60.0,96,94,6.0,92.0
735,66.0,0,160,4.0,92.0
736,75.0,0,160,4.0,92.0
737,48.0,0,94,6.0,92.0
738,66.0,96,160,2.0,108.0
739,60.0,0,160,3.0,108.0
740,60.0,0,94,6.0,92.0
741,66.0,0,160,4.0,92.0
742,75.0,96,160,4.0,92.0
743,48.0,0,94,6.0,92.0
744,69.0,0,528,1.0,108.0
745,75.0,0,528,0.0,108.0
746,60.0,96,160,3.0,108.0
747,66.0,0,160,2.0,108.0
748,60.0,96,94,6.0,92.0
749,75.0,0,94,4.0,92.0
750,66.0,0,94,4.0,92.0
751,67.0,0,94,5.0,92.0
752,43.0,0,94,6.0,92.0
753,76.0,96,94,4.0,92.0
754,71.0,0,46,4.0,92.0
755,76.0,0,142,0.0,108.0
756,71.0,0,142,1.0,108.0
757,76.0,0,46,0.0,108.0
758,55.0,0,94,6.0,92.0
759,76.0,48,46,4.0,92.0
760,71.0,0,46,1.0,108.0
761,67.0,96,160,5.0,92.0
762,79.0,0,94,4.0,92.0
763,43.0,0,94,6.0,92.0
764,76.0,0,46,4.0,92.0
765,71.0,0,160,1.0,108.0
766,79.0,48,160,0.0,108.0
767,79.0,48,46,4.0,92.0
768,55.0,96,94,6.0,92.0
769,71.0,0,160,5.0,92.0
770,76.0,0,160,5.0,92.0
771,43.0,0,94,6.0,92.0
772,83.0,48,94,4.0,92.0
773,55.0,0,528,3.0,108.0
774,59.0,0,528,2.0,108.0
775,67.0,0,160,1.0,108.0
776,76.0,0,160,0.0,108.0
777,83.0,96,94,4.0,92.0
778,55.0,0,94,6.0,92.0
779,71.0,0,94,5.0,92.0
780,73.0,0,94,4.0,92.0
781,46.0,0,94,6.0,92.0
782,67.0,0,94,4.0,92.0
783,64.0,96,94,4.0,92.0
784,64.0,0,142,2.0,108.0
785,58.0,0,142,3.0,108.0
786,64.0,0,46,2.0,108.0
787,58.0,48,46,3.0,108.0
788,58.0,0,94,6.0,92.0
789,73.0,0,160,4.0,92.0
790,67.0,96,160,4.0,92.0
791,64.0,0,160,4.0,92.0
792,46.0,48,94,6.0,92.0
793,73.0,0,336,0.0,108.0
794,67.0,0,336,1.0,108.0
795,64.0,0,160,2.0,108.0
796,58.0,0,160,3.0,108.0
797,58.0,0,94,6.0,92.0
798,73.0,0,160,4.0,92.0
799,64.0,96,160,4.0,92.0
800,67.0,0,160,4.0,92.0
801,46.0,0,94,6.0,92.0
802,73.0,96,160,0.0,108.0
803,64.0,0,160,2.0,108.0
804,58.0,0,160,3.0,108.0
805,67.0,0,160,1.0,108.0
806,73.0,0,94,4.0,92.0
807,58.0,96,94,6.0,92.0
808,67.0,0,94,4.0,92.0
809,64.0,0,94,4.0,92.0
810,74.0,96,94,4.0,92.0
811,41.0,0,94,6.0,92.0
812,69.0,0,94,5.0,92.0
813,69.0,96,46,4.0,92.0
814,69.0,0,160,1.0,108.0
815,74.0,0,160,0.0,108.0
816,74.0,48,46,4.0,92.0
817,53.0,0,94,6.0,92.0
818,65.0,0,160,5.0,92.0
819,41.0,0,94,6.0,92.0
820,77.0,0,94,4.0,92.0
821,74.0,0,46,4.0,92.0
822,53.0,0,336,3.0,108.0
823,57.0,0,336,2.0,108.0
824,77.0,0,160,0.0,108.0
825,69.0,48,160,1.0,108.0
826,53.0,96,94,6.0,92.0
827,77.0,48,46,4.0,92.0
828,74.0,0,160,5.0,92.0
829,69.0,0,160,5.0,92.0
830,81.0,48,94,4.0,92.0
831,41.0,0,94,6.0,92.0
832,74.0,0,160,0.0,108.0
833,65.0,0,160,1.0,108.0
834,53.0,0,160,3.0,108.0
835,57.0,0,160,2.0,108.0
836,69.0,96,94,5.0,92.0
837,81.0,0,94,4.0,92.0
838,53.0,0,94,6.0,92.0
839,44.0,0,94,6.0,92.0
840,71.0,0,94,4.0,92.0
841,65.0,0,94,4.0,92.0
842,62.0,0,94,4.0,92.0
843,62.0,96,160,2.0,108.0
844,56.0,0,160,3.0,108.0
845,56.0,0,94,6.0,92.0
846,62.0,96,160,4.0,92.0
847,65.0,0,160,4.0,92.0
848,71.0,0,160,4.0,92.0
849,44.0,96,94,6.0,92.0
850,62.0,0,160,2.0,108.0
851,56.0,0,160,3.0,108.0
852,56.0,96,94,6.0,92.0
853,62.0,0,160,4.0,92.0
854,65.0,0,160,4.0,92.0
855,71.0,0,160,4.0,92.0
856,44.0,0,94,6.0,92.0
857,71.0,0,528,0.0,108.0
858,65.0,0,528,1.0,108.0
859,62.0,0,160,2.0,108.0
860,56.0,96,160,3.0,108.0
861,71.0,0,94,4.0,92.0
862,56.0,96,94,6.0,92.0
863,62.0,0,94,4.0,92.0
864,65.0,0,94,4.0,92.0
865,60.0,96,94,5.0,92.0
866,67.0,0,94,5.0,92.0
867,72.0,0,94,4.0,92.0
868,39.0,0,94,6.0,92.0
869,67.0,96,46,4.0,92.0
870,72.0,0,160,0.0,108.0
871,67.0,0,160,1.0,108.0
872,72.0,48,46,4.0,92.0
873,51.0,0,94,6.0,92.0
874,67.0,0,160,5.0,92.0
875,75.0,0,94,4.0,92.0
876,39.0,0,94,6.0,92.0
877,72.0,96,46,4.0,92.0
878,67.0,0,160,1.0,108.0
879,72.0,48,160,0.0,108.0
880,51.0,0,94,6.0,92.0
881,75.0,48,46,4.0,92.0
882,67.0,0,160,5.0,92.0
883,72.0,0,160,5.0,92.0
884,79.0,48,94,4.0,92.0
885,39.0,0,94,6.0,92.0
886,55.0,0,528,2.0,108.0
887,51.0,0,528,3.0,108.0
888,79.0,0,160,0.0,108.0
889,67.0,0,160,1.0,108.0
890,67.0,0,94,5.0,92.0
891,79.0,96,94,4.0,92.0
892,51.0,0,94,6.0,92.0
893,38.0,0,94,6.0,92.0
894,78.0,0,94,4.0,92.0
895,74.0,0,94,4.0,92.0
896,69.0,0,94,4.0,92.0
897,50.0,0,160,3.0,108.0
898,50.0,0,160,2.0,108.0
899,50.0,96,94,6.0,92.0
900,78.0,96,256,0.0,108.0
901,74.0,0,160,4.0,92.0
902,69.0,0,256,1.0,108.0
903,69.0,0,160,4.0,92.0
904,78.0,0,160,4.0,92.0
905,38.0,96,94,6.0,92.0
906,62.0,0,160,2.0,108.0
907,50.0,0,160,3.0,108.0
908,69.0,96,94,1.0,108.0
909,50.0,0,94,6.0,92.0
910,78.0,0,94,0.0,108.0
911,78.0,0,160,4.0,92.0
912,69.0,0,160,4.0,92.0
913,74.0,0,160,4.0,92.0
914,38.0,96,94,6.0,92.0
915,78.0,0,94,0.0,108.0
916,69.0,0,94,1.0,108.0
917,50.0,0,160,3.0,108.0
918,62.0,0,160,2.0,108.0
919,69.0,0,94,1.0,108.0
920,69.0,0,94,4.0,92.0
921,78.0,0,94,0.0,108.0
922,50.0,96,94,6.0,92.0
923,74.0,0,94,4.0,92.0
924,78.0,0,94,4.0,92.0
925,38.0,0,94,6.0,92.0
926,76.0,0,94,4.0,92.0
927,66.0,0,94,4.0,92.0
928,72.0,96,94,4.0,92.0
929,50.0,0,94,6.0,92.0
930,76.0,0,160,4.0,92.0
931,50.0,0,256,3.0,108.0
932,60.0,0,256,2.0,108.0
933,72.0,96,160,4.0,92.0
934,66.0,0,160,4.0,92.0
935,38.0,96,94,6.0,92.0
936,60.0,96,94,2.0,108.0
937,50.0,0,94,6.0,92.0
938,50.0,0,94,3.0,108.0
939,72.0,0,160,4.0,92.0
940,66.0,0,160,4.0,92.0
941,76.0,0,160,4.0,92.0
942,60.0,96,94,2.0,108.0
943,50.0,0,94,3.0,108.0
944,38.0,0,94,6.0,92.0
945,66.0,0,528,1.0,108.0
946,76.0,0,528,0.0,108.0
947,76.0,0,94,4.0,92.0
948,72.0,0,94,4.0,92.0
949,66.0,0,94,4.0,92.0
950,50.0,96,94,6.0,92.0
951,60.0,0,94,2.0,108.0
952,50.0,0,94,3.0,108.0
953,71.0,96,94,4.0,92.0
954,38.0,0,94,6.0,92.0
955,67.0,0,94,4.0,92.0
956,74.0,0,94,4.0,92.0
957,76.0,96,46,4.0,92.0
958,50.0,0,160,3.0,108.0
959,59.0,0,160,2.0,108.0
960,78.0,48,46,4.0,92.0
961,50.0,0,94,6.0,92.0
962,79.0,0,46,4.0,92.0
963,81.0,48,46,4.0,92.0
964,38.0,48,94,6.0,92.0
965,83.0,0,46,4.0,92.0
966,67.0,0,336,1.0,108.0
967,74.0,0,336,0.0,108.0
968,59.0,0,160,2.0,108.0
969,50.0,0,160,3.0,108.0
970,50.0,48,94,6.0,92.0
971,84.0,48,46,4.0,92.0
972,38.0,0,94,6.0,92.0
973,74.0,0,160,0.0,108.0
974,67.0,0,160,1.0,108.0
975,59.0,0,160,2.0,108.0
976,50.0,48,160,3.0,108.0
977,83.0,0,160,4.0,92.0
978,86.0,0,160,4.0,92.0
979,50.0,96,94,6.0,92.0
980,72.0,0,94,4.0,92.0
981,69.0,0,94,4.0,92.0
982,38.0,0,94,6.0,92.0
983,74.0,96,46,4.0,92.0
984,76.0,48,46,4.0,92.0
985,50.0,0,94,6.0,92.0
986,78.0,0,46,4.0,92.0
987,50.0,0,256,3.0,108.0
988,54.0,96,256,2.0,108.0
989,72.0,0,256,0.0,108.0
990,69.0,0,256,1.0,108.0
991,38.0,48,94,6.0,92.0
992,79.0,48,46,4.0,92.0
993,81.0,0,46,4.0,92.0
994,83.0,48,46,4.0,92.0
995,54.0,0,94,2.0,108.0
996,69.0,0,94,1.0,108.0
997,50.0,48,94,6.0,92.0
998,50.0,0,94,3.0,108.0
999,72.0,0,94,0.0,108.0
1000,38.0,0,94,6.0,92.0
1001,72.0,0,160,0.0,108.0
1002,54.0,48,160,2.0,108.0
1003,84.0,0,160,4.0,92.0
1004,81.0,0,160,4.0,92.0
1005,50.0,0,160,3.0,108.0
1006,69.0,0,160,1.0,108.0
1007,50.0,96,94,6.0,92.0
1008,43.0,0,94,6.0,92.0
1009,71.0,0,94,4.0,92.0
1010,67.0,0,94,4.0,92.0
1011,72.0,0,46,4.0,92.0
1012,67.0,0,160,1.0,108.0
1013,55.0,0,160,2.0,108.0
1014,71.0,0,160,0.0,108.0
1015,55.0,96,160,3.0,108.0
1016,74.0,48,46,4.0,92.0
1017,55.0,96,94,6.0,92.0
1018,76.0,0,46,4.0,92.0
1019,43.0,0,94,6.0,92.0
1020,78.0,48,46,4.0,92.0
1021,79.0,0,46,4.0,92.0
1022,55.0,48,160,2.0,108.0
1023,67.0,0,160,1.0,108.0
1024,71.0,0,160,0.0,108.0
1025,55.0,0,160,3.0,108.0
1026,55.0,48,94,6.0,92.0
1027,81.0,48,46,4.0,92.0
1028,42.0,48,94,6.0,92.0
1029,67.0,0,160,1.0,108.0
1030,74.0,0,160,0.0,108.0
1031,83.0,0,160,4.0,92.0
1032,79.0,0,160,4.0,92.0
1033,59.0,0,160,2.0,108.0
1034,54.0,0,160,3.0,108.0
1035,54.0,96,94,6.0,92.0
1036,67.0,0,94,4.0,92.0
1037,40.0,0,94,6.0,92.0
1038,71.0,0,94,4.0,92.0
1039,72.0,0,46,4.0,92.0
1040,52.0,96,94,6.0,92.0
1041,74.0,48,46,4.0,92.0
1042,76.0,0,46,4.0,92.0
1043,59.0,0,256,2.0,108.0
1044,67.0,0,256,1.0,108.0
1045,79.0,96,256,0.0,108.0
1046,52.0,0,256,3.0,108.0
1047,40.0,48,94,6.0,92.0
1048,78.0,48,46,4.0,92.0
1049,79.0,0,46,4.0,92.0
1050,78.0,0,48,0.0,108.0
1051,67.0,0,94,1.0,108.0
1052,81.0,0,46,4.0,92.0
1053,52.0,0,94,6.0,92.0
1054,55.0,48,94,2.0,108.0
1055,76.0,48,46,0.0,108.0
1056,52.0,0,94,3.0,108.0
1057,35.0,0,94,6.0,92.0
1058,74.0,0,160,0.0,108.0
1059,62.0,0,160,2.0,108.0
1060,67.0,0,160,1.0,108.0
1061,47.0,0,160,3.0,108.0
1062,83.0,0,160,4.0,92.0
1063,79.0,48,160,4.0,92.0
1064,47.0,96,94,6.0,92.0
1065,36.0,0,94,6.0,92.0
1066,72.0,0,94,4.0,92.0
1067,76.0,0,160,5.0,92.0
1068,48.0,96,94,6.0,92.0
1069,81.0,0,94,4.0,92.0
1070,69.0,0,192,1.0,108.0
1071,48.0,0,192,3.0,108.0
1072,72.0,96,192,0.0,108.0
1073,64.0,0,192,2.0,108.0
1074,71.0,0,94,4.0,92.0
1075,38.0,96,94,6.0,92.0
1076,50.0,0,142,3.0,108.0
1077,62.0,0,142,2.0,108.0
1078,67.0,0,142,1.0,108.0
1079,71.0,0,142,0.0,108.0
1080,67.0,0,46,1.0,108.0
1081,71.0,48,46,0.0,108.0
1082,79.0,0,94,4.0,92.0
1083,62.0,0,46,2.0,108.0
1084,50.0,96,94,6.0,92.0
1085,50.0,0,46,3.0,108.0
1086,38.0,0,94,6.0,92.0
1087,69.0,0,94,4.0,92.0
1088,74.0,0,336,5.0,92.0
1089,69.0,48,160,0.0,108.0
1090,66.0,0,160,1.0,108.0
1091,50.0,0,160,3.0,108.0
1092,62.0,0,160,2.0,108.0
1093,50.0,0,94,6.0,92.0
1094,78.0,96,94,4.0,92.0
1095,43.0,0,160,6.0,92.0
1096,55.0,0,160,3.0,108.0
1097,67.0,0,160,0.0,108.0
1098,62.0,0,160,2.0,108.0
1099,79.0,0,160,4.0,92.0
1100,74.0,0,160,4.0,92.0
1101,67.0,0,160,4.0,92.0
1102,67.0,96,160,1.0,108.0
1103,55.0,0,32,4.0,92.0
1104,43.0,192,32,6.0,92.0
1105,57.0,96,32,4.0,92.0
1106,45.0,0,32,6.0,92.0
1107,47.0,0,32,6.0,92.0
1108,59.0,48,32,4.0,92.0
1109,60.0,48,32,4.0,92.0
1110,48.0,0,32,6.0,92.0
1111,62.0,0,32,4.0,92.0
1112,50.0,48,32,6.0,92.0
1113,64.0,48,32,4.0,92.0
1114,52.0,0,32,6.0,92.0
1115,66.0,0,32,4.0,92.0
1116,54.0,48,32,6.0,92.0
1117,55.0,0,32,6.0,92.0
1118,67.0,48,32,4.0,92.0
1119,55.0,96,32,6.0,92.0
1120,79.0,0,32,4.0,92.0
1121,55.0,96,32,6.0,92.0
1122,79.0,0,32,4.0,92.0
1123,55.0,0,32,6.0,92.0
1124,79.0,96,32,4.0,92.0
1125,55.0,0,32,6.0,92.0
1126,79.0,96,94,4.0,92.0
1127,55.0,0,32,6.0,92.0
1128,78.0,96,46,4.0,92.0
1129,55.0,0,528,3.0,108.0
1130,79.0,0,528,0.0,108.0
1131,67.0,0,528,2.0,108.0
1132,67.0,0,528,1.0,108.0
1133,79.0,48,46,4.0,92.0
1134,47.0,0,32,6.0,92.0
1135,71.0,0,32,4.0,92.0
1136,71.0,0,32,4.0,92.0
1137,47.0,96,32,6.0,92.0
1138,47.0,0,32,6.0,92.0
1139,71.0,96,32,4.0,92.0
1140,71.0,0,32,4.0,92.0
1141,47.0,96,32,6.0,92.0
1142,71.0,0,336,0.0,108.0
1143,59.0,48,336,1.0,108.0
1144,59.0,0,336,2.0,108.0
1145,47.0,0,336,3.0,108.0
1146,76.0,0,32,4.0,92.0
1147,52.0,96,32,6.0,92.0
1148,52.0,0,32,6.0,92.0
1149,76.0,96,32,4.0,92.0
1150,64.0,0,160,2.0,108.0
1151,52.0,0,160,3.0,108.0
1152,64.0,0,160,1.0,108.0
1153,76.0,0,160,0.0,108.0
1154,49.0,96,32,6.0,92.0
1155,73.0,0,32,4.0,92.0
1156,49.0,96,32,6.0,92.0
1157,61.0,0,32,4.0,92.0
1158,49.0,0,32,6.0,92.0
1159,61.0,96,32,4.0,92.0
1160,49.0,96,32,6.0,92.0
1161,61.0,0,32,4.0,92.0
1162,49.0,0,32,6.0,92.0
1163,61.0,96,94,4.0,92.0
1164,49.0,96,32,6.0,92.0
1165,61.0,0,526,2.0,108.0
1166,49.0,0,526,3.0,108.0
1167,61.0,0,526,1.0,108.0
1168,73.0,0,526,0.0,108.0
1169,59.0,0,46,4.0,92.0
1170,73.0,0,46,0.0,108.0
1171,61.0,0,46,4.0,92.0
1172,61.0,0,46,2.0,108.0
1173,49.0,0,46,3.0,108.0
1174,61.0,48,46,1.0,108.0
1175,62.0,0,94,4.0,92.0
1176,62.0,0,160,1.0,108.0
1177,74.0,0,160,0.0,108.0
1178,62.0,0,160,2.0,108.0
1179,50.0,48,160,3.0,108.0
1180,50.0,0,160,6.0,92.0
1181,62.0,96,96,4.0,92.0
1182,65.0,0,96,4.0,92.0
1183,64.0,0,96,4.0,92.0
1184,67.0,96,96,4.0,92.0
1185,69.0,0,96,4.0,92.0
1186,65.0,96,96,4.0,92.0
1187,67.0,96,96,4.0,92.0
1188,71.0,0,96,4.0,92.0
1189,69.0,96,94,4.0,92.0
1190,72.0,0,94,4.0,92.0
1191,74.0,0,96,4.0,45.0
1192,71.0,96,0,4.0,45.0
1193,50.0,0,160,6.0,45.0
1194,62.0,96,160,6.0,45.0
1195,67.0,0,96,4.0,45.0
1196,71.0,0,0,4.0,45.0
1197,79.0,0,96,4.0,45.0
1198,74.0,0,336,0.0,60.0
1199,71.0,0,336,1.0,60.0
1200,62.0,96,160,2.0,60.0
1201,78.0,0,96,4.0,45.0
1202,74.0,96,96,4.0,45.0
1203,72.0,96,96,4.0,45.0
1204,76.0,0,96,4.0,45.0
1205,76.0,0,96,0.0,60.0
1206,72.0,0,96,1.0,60.0
1207,62.0,0,160,2.0,60.0
1208,74.0,96,94,0.0,60.0
1209,71.0,0,94,1.0,60.0
1210,71.0,0,94,4.0,45.0
1211,74.0,0,94,4.0,45.0
1212,74.0,0,96,4.0,45.0
1213,71.0,0,96,1.0,60.0
1214,74.0,0,96,0.0,60.0
1215,71.0,0,96,4.0,45.0
1216,50.0,0,160,6.0,45.0
1217,62.0,96,160,6.0,45.0
1218,72.0,0,94,4.0,45.0
1219,69.0,0,94,4.0,45.0
1220,72.0,96,96,0.0,60.0
1221,69.0,0,96,1.0,60.0
1222,81.0,0,32,4.0,45.0
1223,84.0,0,32,4.0,45.0
1224,68.0,0,96,1.0,60.0
1225,71.0,96,96,0.0,60.0
1226,83.0,0,32,4.0,45.0
1227,79.0,0,32,4.0,45.0
1228,62.0,0,336,2.0,60.0
1229,50.0,0,160,3.0,60.0
1230,72.0,0,94,0.0,60.0
1231,69.0,96,94,1.0,60.0
1232,78.0,0,32,4.0,45.0
1233,81.0,0,32,4.0,45.0
1234,76.0,96,32,4.0,45.0
1235,79.0,0,32,4.0,45.0
1236,50.0,0,160,3.0,60.0
1237,72.0,0,160,0.0,60.0
1238,62.0,0,160,2.0,60.0
1239,69.0,96,160,1.0,60.0
1240,78.0,0,32,4.0,45.0
1241,74.0,0,32,4.0,45.0
1242,79.0,96,32,4.0,45.0
1243,76.0,0,32,4.0,45.0
1244,50.0,0,160,6.0,45.0
1245,62.0,0,160,6.0,45.0
1246,74.0,0,32,4.0,45.0
1247,78.0,96,32,4.0,45.0
1248,50.0,0,256,3.0,60.0
1249,69.0,96,288,1.0,60.0
1250,72.0,0,288,0.0,60.0
1251,72.0,96,32,4.0,45.0
1252,76.0,0,32,4.0,45.0
1253,62.0,0,336,2.0,60.0
1254,50.0,0,94,3.0,60.0
1255,72.0,0,94,1.0,60.0
1256,76.0,0,94,0.0,60.0
1257,71.0,0,32,4.0,45.0
1258,74.0,0,32,4.0,45.0
1259,50.0,0,94,3.0,60.0
1260,71.0,0,96,1.0,60.0
1261,74.0,96,96,0.0,60.0
1262,72.0,0,32,4.0,45.0
1263,69.0,0,32,4.0,45.0
1264,62.0,0,160,2.0,60.0
1265,72.0,96,94,0.0,60.0
1266,50.0,0,94,3.0,60.0
1267,69.0,0,94,1.0,60.0
1268,69.0,96,160,1.0,60.0
1269,72.0,0,160,0.0,60.0
1270,55.0,0,160,6.0,45.0
1271,72.0,0,160,4.0,45.0
1272,69.0,0,160,4.0,45.0
1273,62.0,0,160,2.0,60.0
1274,55.0,0,160,3.0,60.0
1275,62.0,0,160,2.0,60.0
1276,67.0,0,160,1.0,60.0
1277,71.0,0,160,4.0,45.0
1278,67.0,0,160,4.0,45.0
1279,71.0,192,160,0.0,60.0
1280,43.0,0,160,3.0,60.0
1281,79.0,192,24,4.0,92.0
1282,81.0,24,24,4.0,92.0
1283,83.0,24,142,4.0,92.0
1284,83.0,144,24,4.0,92.0
1285,84.0,24,24,4.0,92.0
1286,74.0,0,160,0.0,92.0
1287,55.0,0,160,3.0,92.0
1288,59.0,0,160,2.0,92.0
1289,67.0,0,160,1.0,92.0
1290,86.0,24,142,4.0,92.0
1291,59.0,144,48,6.0,92.0
1292,47.0,0,48,6.0,92.0
1293,47.0,0,160,3.0,92.0
1294,48.0,0,48,6.0,92.0
1295,60.0,192,48,6.0,92.0
1296,62.0,0,256,2.0,92.0
1297,67.0,0,256,1.0,92.0
1298,74.0,0,256,5.0,92.0
1299,74.0,0,256,0.0,92.0
1300,83.0,0,94,4.0,92.0
1301,81.0,0,46,4.0,92.0
1302,48.0,0,160,3.0,92.0
1303,72.0,0,94,5.0,92.0
1304,67.0,0,94,1.0,92.0
1305,76.0,0,94,0.0,92.0
1306,79.0,48,46,4.0,92.0
1307,60.0,96,94,2.0,92.0
1308,59.0,0,160,2.0,92.0
1309,67.0,0,160,0.0,92.0
1310,62.0,0,160,1.0,92.0
1311,50.0,0,160,6.0,92.0
1312,79.0,48,160,4.0,92.0
1313,71.0,0,160,4.0,92.0
1314,62.0,0,160,6.0,92.0
1315,50.0,0,160,3.0,92.0
1316,50.0,0,160,6.0,92.0
1317,62.0,0,160,1.0,92.0
1318,78.0,192,160,4.0,92.0
1319,69.0,0,160,4.0,92.0
1320,50.0,0,160,3.0,92.0
1321,57.0,0,160,2.0,92.0
1322,38.0,0,160,6.0,92.0
1323,66.0,0,160,0.0,92.0
1324,78.0,192,24,4.0,92.0
1325,79.0,24,24,4.0,92.0
1326,81.0,24,142,4.0,92.0
1327,81.0,0,24,4.0,92.0
1328,83.0,24,24,4.0,92.0
1329,84.0,24,142,4.0,92.0
1330,50.0,0,192,3.0,92.0
1331,66.0,0,192,1.0,92.0
1332,52.0,0,48,6.0,92.0
1333,40.0,0,48,6.0,92.0
1334,72.0,144,288,0.0,92.0
1335,57.0,0,336,2.0,92.0
1336,67.0,0,160,1.0,92.0
1337,72.0,144,160,4.0,92.0
1338,52.0,0,160,3.0,92.0
1339,76.0,96,94,0.0,92.0
1340,42.0,0,48,6.0,92.0
1341,54.0,0,48,6.0,92.0
1342,84.0,0,94,4.0,92.0
1343,74.0,0,96,0.0,92.0
1344,83.0,96,46,4.0,92.0
1345,62.0,0,160,2.0,92.0
1346,72.0,0,160,4.0,92.0
1347,69.0,0,160,1.0,92.0
1348,54.0,96,160,3.0,92.0
1349,81.0,48,46,4.0,92.0
1350,72.0,0,94,0.0,92.0
1351,43.0,0,48,6.0,92.0
1352,55.0,0,48,6.0,92.0
1353,55.0,0,160,3.0,92.0
1354,62.0,0,160,2.0,92.0
1355,72.0,0,160,0.0,92.0
1356,69.0,0,160,1.0,92.0
1357,72.0,0,192,4.0,92.0
1358,81.0,48,192,4.0,92.0
1359,31.0,0,48,6.0,92.0
1360,43.0,0,48,6.0,92.0
1361,43.0,192,160,3.0,92.0
1362,71.0,0,160,4.0,92.0
1363,79.0,0,160,4.0,92.0
1364,62.0,0,160,2.0,92.0
1365,67.0,0,160,1.0,92.0
1366,71.0,0,160,0.0,92.0
1367,79.0,0,24,4.0,92.0
1368,81.0,24,24,4.0,92.0
1369,67.0,192,160,0.0,92.0
1370,83.0,24,142,4.0,92.0
1371,83.0,0,24,4.0,92.0
1372,84.0,24,24,4.0,92.0
1373,86.0,24,142,4.0,92.0
1374,47.0,144,48,6.0,92.0
1375,59.0,0,48,6.0,92.0
1376,79.0,192,24,4.0,92.0
1377,55.0,0,48,6.0,92.0
1378,43.0,0,48,6.0,92.0
1379,81.0,24,24,4.0,92.0
1380,67.0,144,528,1.0,92.0
1381,62.0,0,336,5.0,92.0
1382,55.0,0,528,3.0,92.0
1383,67.0,0,336,5.0,92.0
1384,74.0,0,336,5.0,92.0
1385,59.0,0,528,2.0,92.0
1386,74.0,0,528,0.0,92.0
1387,83.0,24,142,4.0,92.0
1388,83.0,144,24,4.0,92.0
1389,84.0,24,24,4.0,92.0
1390,86.0,24,142,4.0,92.0
1391,47.0,0,48,6.0,92.0
1392,59.0,0,48,6.0,92.0
1393,59.0,0,336,2.0,92.0
1394,67.0,0,336,1.0,92.0
1395,53.0,0,336,3.0,92.0
1396,79.0,0,24,4.0,92.0
1397,41.0,0,48,6.0,92.0
1398,81.0,24,24,4.0,92.0
1399,53.0,0,48,6.0,92.0
1400,67.0,144,336,5.0,92.0
1401,62.0,0,336,5.0,92.0
1402,74.0,0,336,5.0,92.0
1403,74.0,0,528,0.0,92.0
1404,53.0,0,160,3.0,92.0
1405,67.0,192,160,1.0,92.0
1406,59.0,0,160,2.0,92.0
1407,83.0,24,142,4.0,92.0
1408,83.0,144,24,4.0,92.0
1409,84.0,24,24,4.0,92.0
1410,86.0,24,142,4.0,92.0
1411,52.0,0,256,3.0,92.0
1412,59.0,0,256,2.0,92.0
1413,74.0,0,256,0.0,92.0
1414,68.0,0,256,1.0,92.0
1415,59.0,144,160,6.0,92.0
1416,68.0,0,160,5.0,92.0
1417,74.0,0,160,5.0,92.0
1418,47.0,0,160,6.0,92.0
1419,76.0,0,94,4.0,92.0
1420,52.0,96,94,3.0,92.0
1421,59.0,0,94,2.0,92.0
1422,74.0,0,94,0.0,92.0
1423,68.0,0,94,1.0,92.0
1424,72.0,0,94,0.0,92.0
1425,76.0,0,94,4.0,92.0
1426,69.0,96,94,1.0,92.0
1427,72.0,0,94,4.0,92.0
1428,69.0,0,94,4.0,92.0
1429,57.0,0,94,2.0,92.0
1430,52.0,0,94,3.0,92.0
1431,52.0,0,160,6.0,92.0
1432,40.0,0,160,6.0,92.0
1433,64.0,96,94,1.0,92.0
1434,67.0,0,94,4.0,92.0
1435,71.0,0,94,4.0,92.0
1436,76.0,0,94,4.0,92.0
1437,52.0,0,94,3.0,92.0
1438,56.0,0,94,2.0,92.0
1439,71.0,0,94,0.0,92.0
1440,39.0,0,94,6.0,92.0
1441,81.0,96,94,4.0,92.0
1442,78.0,0,94,4.0,92.0
1443,72.0,0,94,4.0,92.0
1444,51.0,0,94,6.0,92.0
1445,81.0,96,160,4.0,92.0
1446,78.0,0,160,4.0,92.0
1447,72.0,0,160,4.0,92.0
1448,39.0,96,94,6.0,92.0
1449,51.0,96,94,6.0,92.0
1450,72.0,0,160,4.0,92.0
1451,78.0,0,160,4.0,92.0
1452,81.0,0,160,4.0,92.0
1453,39.0,96,94,6.0,92.0
1454,69.0,0,526,1.0,92.0
1455,72.0,0,526,0.0,92.0
1456,54.0,0,526,2.0,92.0
1457,51.0,0,526,3.0,92.0
1458,54.0,0,46,2.0,92.0
1459,72.0,0,46,0.0,92.0
1460,69.0,0,46,1.0,92.0
1461,81.0,0,94,4.0,92.0
1462,51.0,96,94,6.0,92.0
1463,72.0,0,94,4.0,92.0
1464,78.0,0,94,4.0,92.0
1465,51.0,48,46,3.0,92.0
1466,68.0,0,160,1.0,92.0
1467,71.0,0,160,4.0,92.0
1468,76.0,0,160,4.0,92.0
1469,56.0,0,160,2.0,92.0
1470,80.0,0,160,4.0,92.0
1471,36.0,0,160,6.0,92.0
1472,48.0,0,160,6.0,92.0
1473,71.0,48,160,0.0,92.0
1474,52.0,0,160,3.0,92.0
1475,76.0,0,142,0.0,92.0
1476,64.0,192,160,4.0,127.0
1477,76.0,0,160,4.0,127.0
1478,76.0,144,46,0.0,92.0
1479,76.0,0,160,4.0,127.0
1480,76.0,0,160,0.0,92.0
1481,64.0,48,160,4.0,127.0
1482,45.0,0,94,6.0,92.0
1483,57.0,0,94,6.0,92.0
1484,57.0,192,142,2.0,92.0
1485,76.0,0,160,5.0,127.0
1486,64.0,0,160,5.0,127.0
1487,76.0,0,160,0.0,92.0
1488,57.0,48,46,2.0,92.0
1489,76.0,0,94,4.0,92.0
1490,60.0,96,94,6.0,92.0
1491,76.0,0,32,4.0,92.0
1492,74.0,48,32,4.0,92.0
1493,59.0,0,94,6.0,92.0
1494,56.0,0,96,2.0,92.0
1495,72.0,96,32,4.0,92.0
1496,76.0,0,32,4.0,92.0
1497,76.0,0,160,0.0,92.0
1498,57.0,0,94,2.0,92.0
1499,57.0,0,94,6.0,92.0
1500,71.0,0,32,4.0,92.0
1501,76.0,0,32,4.0,92.0
1502,56.0,0,94,6.0,92.0
1503,59.0,96,96,2.0,92.0
1504,69.0,96,32,4.0,92.0
1505,76.0,0,32,4.0,92.0
1506,76.0,0,160,0.0,92.0
1507,53.0,0,94,6.0,92.0
1508,60.0,0,94,2.0,92.0
1509,68.0,0,32,4.0,92.0
1510,76.0,0,32,4.0,92.0
1511,52.0,0,94,6.0,92.0
1512,69.0,0,32,4.0,92.0
1513,76.0,0,32,4.0,92.0
1514,53.0,96,94,6.0,92.0
1515,76.0,0,32,4.0,92.0
1516,68.0,96,32,4.0,92.0
1517,52.0,0,94,6.0,92.0
1518,65.0,0,32,4.0,92.0
1519,76.0,96,32,4.0,92.0
1520,50.0,0,94,6.0,92.0
1521,48.0,0,94,6.0,92.0
1522,64.0,0,94,5.0,92.0
1523,52.0,0,526,3.0,92.0
1524,68.0,0,526,1.0,92.0
1525,76.0,0,528,0.0,92.0
1526,76.0,96,144,4.0,92.0
1527,78.0,0,24,4.0,92.0
1528,68.0,0,46,1.0,92.0
1529,52.0,48,46,3.0,92.0
1530,47.0,96,94,6.0,92.0
1531,74.0,0,94,5.0,92.0
1532,62.0,96,576,2.0,92.0
1533,80.0,24,24,4.0,92.0
1534,72.0,0,94,4.0,92.0
1535,81.0,0,94,4.0,92.0
1536,45.0,0,94,6.0,92.0
1537,76.0,0,94,0.0,92.0
1538,60.0,0,96,2.0,92.0
1539,76.0,96,32,4.0,92.0
1540,45.0,24,160,3.0,92.0
1541,69.0,0,160,1.0,92.0
1542,76.0,0,94,0.0,92.0
1543,60.0,0,94,6.0,92.0
1544,57.0,0,96,2.0,92.0
1545,74.0,0,32,4.0,92.0
1546,76.0,0,32,4.0,92.0
1547,59.0,0,94,6.0,92.0
1548,56.0,96,96,2.0,92.0
1549,76.0,0,32,4.0,92.0
1550,72.0,0,32,4.0,92.0
1551,76.0,0,160,0.0,92.0
1552,57.0,0,94,6.0,92.0
1553,57.0,96,94,2.0,92.0
1554,76.0,0,32,4.0,92.0
1555,71.0,96,32,4.0,92.0
1556,56.0,0,94,6.0,92.0
1557,59.0,0,96,2.0,92.0
1558,76.0,0,32,4.0,92.0
1559,69.0,0,32,4.0,92.0
1560,76.0,0,160,0.0,92.0
1561,60.0,0,94,2.0,92.0
1562,53.0,0,94,6.0,92.0
1563,69.0,96,94,1.0,92.0
1564,53.0,0,94,3.0,92.0
1565,68.0,0,32,4.0,92.0
1566,76.0,0,32,4.0,92.0
1567,52.0,0,94,6.0,92.0
1568,69.0,96,32,4.0,92.0
1569,76.0,0,32,4.0,92.0
1570,53.0,0,94,6.0,92.0
1571,68.0,96,32,4.0,92.0
1572,76.0,0,32,4.0,92.0
1573,52.0,0,94,6.0,92.0
1574,65.0,96,32,4.0,92.0
1575,76.0,0,32,4.0,92.0
1576,50.0,0,94,6.0,92.0
1577,48.0,96,94,6.0,92.0
1578,64.0,0,94,5.0,92.0
1579,52.0,0,528,3.0,92.0
1580,76.0,0,528,0.0,92.0
1581,62.0,96,528,2.0,92.0
1582,68.0,0,528,1.0,92.0
1583,76.0,0,144,4.0,92.0
1584,78.0,48,24,4.0,92.0
1585,74.0,96,94,5.0,92.0
1586,47.0,0,94,6.0,92.0
1587,80.0,24,24,4.0,92.0
1588,81.0,0,94,4.0,92.0
1589,72.0,0,94,4.0,92.0
1590,69.0,0,160,1.0,92.0
1591,60.0,24,160,2.0,92.0
1592,45.0,0,160,3.0,92.0
1593,76.0,0,160,0.0,92.0
1594,57.0,0,160,6.0,92.0
1595,45.0,0,160,6.0,92.0
1596,69.0,96,94,4.0,92.0
1597,57.0,96,94,6.0,92.0
1598,69.0,0,94,4.0,92.0
1599,45.0,96,94,6.0,92.0
1600,69.0,0,94,4.0,92.0
1601,57.0,0,94,6.0,92.0
1602,69.0,0,94,4.0,92.0
1603,68.0,96,46,4.0,92.0
1604,45.0,0,160,3.0,92.0
1605,69.0,0,160,0.0,92.0
1606,69.0,96,160,1.0,92.0
1607,60.0,0,160,2.0,92.0
1608,69.0,48,46,4.0,92.0
1609,45.0,0,94,6.0,92.0
1610,64.0,0,94,4.0,92.0
1611,57.0,0,94,6.0,92.0
1612,77.0,0,94,4.0,92.0
1613,45.0,0,94,6.0,92.0
1614,60.0,96,94,6.0,92.0
1615,57.0,0,94,6.0,92.0
1616,64.0,0,192,4.0,92.0
1617,77.0,96,192,4.0,92.0
1618,69.0,0,288,1.0,92.0
1619,57.0,0,288,3.0,92.0
1620,77.0,0,288,0.0,92.0
1621,60.0,48,288,2.0,92.0
1622,56.0,0,94,6.0,92.0
1623,71.0,0,94,1.0,92.0
1624,56.0,0,94,3.0,92.0
1625,76.0,0,94,0.0,92.0
1626,59.0,0,94,2.0,92.0
1627,59.0,0,94,6.0,92.0
1628,64.0,96,96,4.0,92.0
1629,76.0,0,96,4.0,92.0
1630,77.0,0,94,0.0,92.0
1631,57.0,0,94,3.0,92.0
1632,69.0,0,94,1.0,92.0
1633,60.0,0,94,2.0,92.0
1634,60.0,0,94,6.0,92.0
1635,57.0,0,94,6.0,92.0
1636,65.0,96,96,4.0,92.0
1637,77.0,0,96,4.0,92.0
1638,59.0,0,94,6.0,92.0
1639,56.0,0,94,6.0,92.0
1640,56.0,0,94,3.0,92.0
1641,71.0,0,94,1.0,92.0
1642,76.0,0,94,0.0,92.0
1643,59.0,96,94,2.0,92.0
1644,64.0,0,94,4.0,92.0
1645,76.0,0,94,4.0,92.0
1646,77.0,0,94,4.0,92.0
1647,64.0,0,94,4.0,92.0
1648,57.0,0,94,6.0,92.0
1649,45.0,0,94,6.0,92.0
1650,77.0,0,256,0.0,92.0
1651,69.0,96,256,1.0,92.0
1652,60.0,0,256,2.0,92.0
1653,57.0,0,256,3.0,92.0
1654,60.0,0,94,6.0,92.0
1655,57.0,96,94,6.0,92.0
1656,77.0,96,192,4.0,92.0
1657,64.0,0,0,4.0,92.0
1658,56.0,0,94,3.0,92.0
1659,71.0,0,94,1.0,92.0
1660,56.0,0,94,6.0,92.0
1661,59.0,96,94,6.0,92.0
1662,76.0,0,94,0.0,92.0
1663,59.0,0,94,2.0,92.0
1664,76.0,0,96,4.0,92.0
1665,60.0,0,94,6.0,92.0
1666,57.0,0,94,3.0,92.0
1667,77.0,96,94,0.0,92.0
1668,57.0,0,94,6.0,92.0
1669,60.0,0,94,2.0,92.0
1670,69.0,0,94,1.0,92.0
1671,65.0,0,96,4.0,92.0
1672,77.0,0,96,4.0,92.0
1673,59.0,0,94,6.0,92.0
1674,71.0,0,94,1.0,92.0
1675,64.0,0,94,4.0,92.0
1676,76.0,0,94,4.0,92.0
1677,56.0,0,94,3.0,92.0
1678,76.0,0,94,0.0,92.0
1679,59.0,96,94,2.0,92.0
1680,56.0,0,94,6.0,92.0
1681,65.0,0,94,4.0,92.0
1682,77.0,0,94,4.0,92.0
1683,77.0,96,94,4.0,92.0
1684,65.0,0,94,4.0,92.0
1685,77.0,96,94,4.0,92.0
1686,65.0,0,94,4.0,92.0
1687,57.0,0,336,3.0,92.0
1688,77.0,96,336,0.0,92.0
1689,57.0,0,336,6.0,92.0
1690,60.0,0,336,6.0,92.0
1691,69.0,0,336,1.0,92.0
1692,60.0,0,336,2.0,92.0
1693,65.0,0,94,4.0,92.0
1694,77.0,96,94,4.0,92.0
1695,76.0,0,94,4.0,92.0
1696,64.0,0,94,4.0,92.0
1697,59.0,0,160,2.0,92.0
1698,59.0,0,160,3.0,92.0
1699,59.0,96,160,6.0,92.0
1700,76.0,0,160,0.0,92.0
1701,67.0,0,160,1.0,92.0
1702,64.0,96,94,4.0,92.0
1703,76.0,0,94,4.0,92.0
1704,63.0,96,94,4.0,127.0
1705,75.0,0,94,4.0,127.0
1706,48.0,0,94,6.0,127.0
1707,66.0,0,94,4.0,92.0
1708,69.0,96,94,4.0,92.0
1709,60.0,0,94,6.0,92.0
1710,48.0,96,94,6.0,92.0
1711,63.0,0,94,4.0,92.0
1712,75.0,0,94,4.0,92.0
1713,69.0,0,94,4.0,92.0
1714,60.0,0,94,6.0,92.0
1715,66.0,96,94,4.0,92.0
1716,48.0,96,94,6.0,92.0
1717,63.0,0,94,4.0,92.0
1718,75.0,0,94,4.0,92.0
1719,60.0,0,528,3.0,127.0
1720,57.0,0,528,2.0,127.0
1721,75.0,0,528,0.0,127.0
1722,66.0,0,528,1.0,127.0
1723,69.0,0,94,4.0,92.0
1724,60.0,96,94,6.0,92.0
1725,66.0,0,94,4.0,92.0
1726,74.0,0,94,4.0,127.0
1727,62.0,0,94,4.0,127.0
1728,44.0,96,94,6.0,127.0
1729,71.0,96,94,4.0,92.0
1730,65.0,0,94,4.0,92.0
1731,56.0,0,94,6.0,92.0
1732,44.0,0,94,6.0,92.0
1733,74.0,0,94,4.0,92.0
1734,62.0,96,94,4.0,92.0
1735,56.0,96,94,6.0,92.0
1736,71.0,0,94,4.0,92.0
1737,65.0,0,94,4.0,92.0
1738,74.0,0,478,0.0,127.0
1739,65.0,0,478,1.0,127.0
1740,59.0,0,478,2.0,127.0
1741,44.0,0,94,6.0,92.0
1742,74.0,0,94,4.0,92.0
1743,62.0,96,94,4.0,92.0
1744,56.0,0,478,3.0,127.0
1745,59.0,0,94,2.0,92.0
1746,65.0,96,94,4.0,92.0
1747,56.0,0,94,3.0,92.0
1748,74.0,0,94,0.0,92.0
1749,56.0,0,94,6.0,92.0
1750,65.0,0,94,1.0,92.0
1751,71.0,0,94,4.0,92.0
1752,46.0,0,94,6.0,127.0
1753,73.0,0,94,4.0,127.0
1754,61.0,96,94,4.0,127.0
1755,64.0,0,94,4.0,92.0
1756,67.0,96,94,4.0,92.0
1757,58.0,0,94,6.0,92.0
1758,73.0,0,94,4.0,92.0
1759,46.0,96,94,6.0,92.0
1760,61.0,0,94,4.0,92.0
1761,58.0,96,94,6.0,92.0
1762,67.0,0,94,4.0,92.0
1763,64.0,0,94,4.0,92.0
1764,73.0,96,94,4.0,92.0
1765,61.0,0,94,4.0,92.0
1766,46.0,0,94,6.0,92.0
1767,55.0,0,528,2.0,127.0
1768,73.0,0,528,0.0,127.0
1769,58.0,0,528,3.0,127.0
1770,64.0,0,528,1.0,127.0
1771,67.0,0,94,4.0,92.0
1772,58.0,96,94,6.0,92.0
1773,64.0,0,94,4.0,92.0
1774,72.0,0,94,4.0,127.0
1775,42.0,0,94,6.0,127.0
1776,60.0,0,94,4.0,127.0
1777,63.0,0,94,4.0,92.0
1778,54.0,96,94,6.0,92.0
1779,69.0,0,94,4.0,92.0
1780,42.0,0,94,6.0,92.0
1781,72.0,0,94,4.0,92.0
1782,60.0,96,94,4.0,92.0
1783,54.0,96,94,6.0,92.0
1784,63.0,0,94,4.0,92.0
1785,69.0,0,94,4.0,92.0
1786,42.0,96,94,6.0,92.0
1787,72.0,0,94,4.0,92.0
1788,60.0,0,94,4.0,92.0
1789,72.0,0,528,0.0,127.0
1790,54.0,0,528,3.0,127.0
1791,63.0,96,528,1.0,127.0
1792,57.0,0,528,2.0,127.0
1793,54.0,0,94,6.0,92.0
1794,63.0,0,94,4.0,92.0
1795,69.0,96,94,4.0,92.0
1796,44.0,0,94,6.0,92.0
1797,71.0,0,94,4.0,92.0
1798,59.0,0,94,4.0,92.0
1799,62.0,96,94,4.0,92.0
1800,65.0,0,94,4.0,92.0
1801,56.0,0,94,6.0,92.0
1802,65.0,96,256,2.0,92.0
1803,56.0,0,256,3.0,92.0
1804,71.0,0,256,0.0,92.0
1805,62.0,0,256,1.0,92.0
1806,44.0,0,94,6.0,92.0
1807,71.0,0,94,4.0,92.0
1808,59.0,96,94,4.0,92.0
1809,65.0,0,94,4.0,92.0
1810,56.0,96,94,3.0,92.0
1811,62.0,0,94,4.0,92.0
1812,56.0,0,94,6.0,92.0
1813,62.0,0,94,1.0,92.0
1814,71.0,0,94,0.0,92.0
1815,65.0,0,94,2.0,92.0
1816,69.0,0,94,4.0,92.0
1817,57.0,0,94,4.0,92.0
1818,45.0,96,94,6.0,92.0
1819,61.0,0,160,1.0,92.0
1820,64.0,0,160,2.0,92.0
1821,57.0,0,160,3.0,92.0
1822,64.0,96,94,4.0,92.0
1823,57.0,0,94,6.0,92.0
1824,61.0,0,94,4.0,92.0
1825,72.0,0,94,4.0,92.0
1826,60.0,0,94,4.0,92.0
1827,39.0,0,94,6.0,92.0
1828,69.0,0,286,0.0,92.0
1829,51.0,96,160,3.0,92.0
1830,60.0,0,160,2.0,92.0
1831,66.0,0,160,1.0,92.0
1832,69.0,0,94,0.0,92.0
1833,66.0,96,94,4.0,92.0
1834,51.0,0,94,6.0,92.0
1835,69.0,0,94,4.0,92.0
1836,40.0,0,94,6.0,92.0
1837,71.0,0,94,4.0,92.0
1838,59.0,0,94,4.0,92.0
1839,69.0,0,94,4.0,92.0
1840,52.0,96,94,6.0,92.0
1841,64.0,0,94,4.0,92.0
1842,69.0,0,192,0.0,92.0
1843,59.0,0,94,4.0,92.0
1844,40.0,96,94,6.0,92.0
1845,71.0,0,94,4.0,92.0
1846,59.0,0,336,2.0,92.0
1847,64.0,0,336,1.0,92.0
1848,52.0,96,336,3.0,92.0
1849,68.0,0,160,0.0,92.0
1850,68.0,0,94,4.0,92.0
1851,64.0,96,94,4.0,92.0
1852,52.0,0,94,6.0,92.0
1853,69.0,96,160,4.0,92.0
1854,33.0,0,160,6.0,92.0
1855,60.0,0,160,4.0,92.0
1856,57.0,0,160,4.0,92.0
1857,45.0,0,160,6.0,92.0
1858,64.0,0,160,4.0,92.0
1859,69.0,0,160,0.0,92.0
1860,64.0,0,160,1.0,92.0
1861,45.0,0,160,3.0,92.0
1862,57.0,0,160,2.0,92.0
1863,57.0,192,32,4.0,92.0
1864,45.0,0,94,6.0,92.0
1865,59.0,96,32,4.0,92.0
1866,47.0,0,46,6.0,92.0
1867,60.0,48,32,4.0,92.0
1868,48.0,0,46,6.0,92.0
1869,62.0,0,32,4.0,92.0
1870,50.0,48,46,6.0,92.0
1871,64.0,48,32,4.0,92.0
1872,52.0,0,46,6.0,92.0
1873,65.0,48,32,4.0,92.0
1874,53.0,0,46,6.0,92.0
1875,68.0,0,32,4.0,92.0
1876,56.0,48,46,6.0,92.0
1877,69.0,0,32,4.0,92.0
1878,69.0,96,32,4.0,92.0
1879,57.0,0,160,6.0,92.0
1880,69.0,0,32,4.0,92.0
1881,45.0,96,94,6.0,92.0
1882,69.0,96,32,4.0,92.0
1883,57.0,0,94,6.0,92.0
1884,45.0,96,94,6.0,92.0
1885,69.0,0,94,4.0,92.0
1886,68.0,96,46,4.0,92.0
1887,57.0,0,528,2.0,92.0
1888,69.0,48,528,1.0,92.0
1889,57.0,0,528,3.0,92.0
1890,69.0,0,528,0.0,92.0
1891,69.0,48,46,4.0,92.0
1892,57.0,0,94,6.0,92.0
1893,70.0,0,94,4.0,92.0
1894,46.0,0,94,6.0,92.0
1895,70.0,96,94,4.0,92.0
1896,58.0,0,94,6.0,92.0
1897,46.0,96,94,6.0,92.0
1898,70.0,0,94,4.0,92.0
1899,70.0,0,94,4.0,92.0
1900,58.0,96,94,6.0,92.0
1901,70.0,96,94,4.0,92.0
1902,46.0,0,94,6.0,92.0
1903,69.0,96,46,4.0,92.0
1904,70.0,0,528,1.0,92.0
1905,58.0,0,528,3.0,92.0
1906,70.0,48,528,0.0,92.0
1907,58.0,0,528,2.0,92.0
1908,70.0,48,46,4.0,92.0
1909,58.0,0,94,6.0,92.0
1910,79.0,0,94,4.0,92.0
1911,37.0,0,94,6.0,92.0
1912,49.0,96,94,6.0,92.0
1913,79.0,0,94,4.0,92.0
1914,79.0,0,94,4.0,92.0
1915,37.0,96,94,6.0,92.0
1916,79.0,0,336,0.0,92.0
1917,69.0,0,336,5.0,92.0
1918,76.0,0,336,5.0,92.0
1919,52.0,0,336,2.0,92.0
1920,70.0,48,336,1.0,92.0
1921,49.0,0,336,3.0,92.0
1922,79.0,96,94,4.0,92.0
1923,49.0,0,94,6.0,92.0
1924,77.0,0,46,4.0,92.0
1925,37.0,96,94,6.0,92.0
1926,74.0,48,46,4.0,92.0
1927,69.0,0,46,4.0,92.0
1928,53.0,0,160,2.0,92.0
1929,77.0,0,160,0.0,92.0
1930,50.0,0,160,3.0,92.0
1931,69.0,0,160,1.0,92.0
1932,74.0,48,46,4.0,92.0
1933,49.0,48,94,6.0,92.0
1934,69.0,0,48,4.0,92.0
1935,74.0,0,48,4.0,92.0
1936,77.0,0,48,4.0,92.0
1937,38.0,0,48,6.0,92.0
1938,50.0,0,48,6.0,92.0
1939,62.0,0,160,2.0,92.0
1940,69.0,48,160,1.0,92.0
1941,50.0,0,160,3.0,92.0
1942,77.0,0,160,0.0,92.0
1943,75.0,0,48,4.0,92.0
1944,70.0,0,48,4.0,92.0
1945,67.0,192,48,4.0,92.0
1946,43.0,0,48,6.0,92.0
1947,55.0,0,48,6.0,92.0
1948,58.0,0,160,2.0,92.0
1949,75.0,0,160,0.0,92.0
1950,55.0,0,160,3.0,92.0
1951,67.0,0,160,1.0,92.0
1952,65.0,192,48,4.0,92.0
1953,71.0,0,48,4.0,92.0
1954,56.0,0,48,6.0,92.0
1955,44.0,0,48,6.0,92.0
1956,74.0,0,48,4.0,92.0
1957,56.0,0,160,3.0,92.0
1958,74.0,0,160,0.0,92.0
1959,65.0,0,160,2.0,92.0
1960,71.0,0,160,1.0,92.0
1961,45.0,0,48,6.0,92.0
1962,57.0,0,48,6.0,92.0
1963,73.0,0,160,4.0,92.0
1964,69.0,0,160,4.0,92.0
1965,64.0,192,160,4.0,92.0
1966,57.0,0,256,3.0,92.0
1967,73.0,0,256,0.0,92.0
1968,64.0,0,256,2.0,92.0
1969,69.0,0,256,1.0,92.0
1970,81.0,48,14,4.0,92.0
1971,33.0,0,160,6.0,92.0
1972,45.0,192,160,6.0,92.0
1973,83.0,16,14,4.0,92.0
1974,57.0,0,94,3.0,92.0
1975,69.0,0,94,1.0,92.0
1976,85.0,16,14,4.0,92.0
1977,64.0,0,94,2.0,92.0
1978,73.0,96,94,0.0,92.0
1979,86.0,0,160,4.0,92.0
1980,80.0,16,160,4.0,92.0
1981,74.0,0,160,4.0,92.0
1982,58.0,0,160,3.0,92.0
1983,68.0,0,160,1.0,92.0
1984,34.0,0,160,6.0,92.0
1985,46.0,0,160,6.0,92.0
1986,74.0,0,160,0.0,92.0
1987,62.0,0,160,2.0,92.0
1988,73.0,0,32,4.0,92.0
1989,81.0,192,32,4.0,92.0
1990,76.0,0,32,4.0,92.0
1991,45.0,0,94,6.0,92.0
1992,33.0,0,94,6.0,92.0
1993,81.0,0,32,4.0,92.0
1994,62.0,0,94,1.0,92.0
1995,69.0,0,94,0.0,92.0
1996,65.0,96,94,6.0,92.0
1997,81.0,0,32,4.0,92.0
1998,64.0,0,94,6.0,92.0
1999,61.0,96,96,1.0,92.0
2000,81.0,0,32,4.0,92.0
2001,79.0,0,32,4.0,92.0
2002,69.0,0,160,0.0,92.0
2003,62.0,0,94,6.0,92.0
2004,62.0,96,94,1.0,92.0
2005,77.0,0,32,4.0,92.0
2006,81.0,96,32,4.0,92.0
2007,69.0,0,94,0.0,92.0
2008,61.0,0,94,6.0,92.0
2009,64.0,0,94,1.0,92.0
2010,81.0,0,32,4.0,92.0
2011,76.0,96,32,4.0,92.0
2012,69.0,0,94,0.0,92.0
2013,58.0,0,94,3.0,92.0
2014,65.0,0,94,1.0,92.0
2015,58.0,0,94,6.0,92.0
2016,73.0,0,32,4.0,92.0
2017,81.0,0,32,4.0,92.0
2018,57.0,0,94,6.0,92.0
2019,74.0,0,32,4.0,92.0
2020,81.0,0,32,4.0,92.0
2021,58.0,96,94,6.0,92.0
2022,61.0,0,0,2.0,92.0
2023,73.0,96,32,4.0,92.0
2024,81.0,0,32,4.0,92.0
2025,57.0,0,94,6.0,92.0
2026,81.0,0,32,4.0,92.0
2027,70.0,0,32,4.0,92.0
2028,55.0,96,94,6.0,92.0
2029,69.0,0,94,5.0,92.0
2030,53.0,0,94,6.0,92.0
2031,67.0,0,528,1.0,92.0
2032,57.0,96,528,3.0,92.0
2033,81.0,96,144,4.0,92.0
2034,83.0,48,24,4.0,92.0
2035,79.0,0,94,5.0,92.0
2036,52.0,96,94,6.0,92.0
2037,85.0,24,24,4.0,92.0
2038,50.0,0,94,6.0,92.0
2039,86.0,24,94,4.0,92.0
2040,77.0,0,94,4.0,92.0
2041,69.0,0,672,0.0,92.0
2042,62.0,0,96,2.0,92.0
2043,81.0,0,32,4.0,92.0
2044,65.0,0,160,1.0,92.0
2045,50.0,0,160,3.0,92.0
2046,65.0,0,94,2.0,92.0
2047,65.0,0,94,6.0,92.0
2048,74.0,96,94,0.0,92.0
2049,81.0,0,32,4.0,92.0
2050,79.0,0,32,4.0,92.0
2051,64.0,0,94,6.0,92.0
2052,73.0,0,96,0.0,92.0
2053,67.0,0,96,2.0,92.0
2054,77.0,0,32,4.0,92.0
2055,81.0,0,32,4.0,92.0
2056,74.0,0,94,0.0,92.0
2057,62.0,0,94,6.0,92.0
2058,65.0,96,94,2.0,92.0
2059,76.0,0,32,4.0,92.0
2060,81.0,0,32,4.0,92.0
2061,76.0,0,94,0.0,92.0
2062,61.0,96,94,6.0,92.0
2063,64.0,0,96,2.0,92.0
2064,74.0,0,32,4.0,92.0
2065,81.0,96,32,4.0,92.0
2066,69.0,96,336,1.0,92.0
2067,58.0,0,94,6.0,92.0
2068,58.0,0,94,3.0,92.0
2069,77.0,0,94,0.0,92.0
2070,62.0,0,94,2.0,92.0
2071,73.0,0,32,4.0,92.0
2072,81.0,0,32,4.0,92.0
2073,57.0,96,94,6.0,92.0
2074,74.0,0,32,4.0,92.0
2075,81.0,0,32,4.0,92.0
2076,58.0,96,94,6.0,92.0
2077,73.0,0,32,4.0,92.0
2078,81.0,96,32,4.0,92.0
2079,57.0,0,94,6.0,92.0
2080,81.0,0,32,4.0,92.0
2081,70.0,96,32,4.0,92.0
2082,55.0,0,94,6.0,92.0
2083,53.0,96,94,6.0,92.0
2084,79.0,0,528,0.0,92.0
2085,81.0,0,144,4.0,92.0
2086,69.0,0,528,1.0,92.0
2087,61.0,0,528,2.0,92.0
2088,57.0,0,528,3.0,92.0
2089,83.0,48,24,4.0,92.0
2090,52.0,96,94,6.0,92.0
2091,85.0,24,24,4.0,92.0
2092,86.0,0,160,4.0,92.0
2093,77.0,0,160,4.0,92.0
2094,74.0,0,160,4.0,92.0
2095,50.0,24,160,6.0,92.0
2096,69.0,0,160,1.0,92.0
2097,77.0,0,160,0.0,92.0
2098,62.0,0,160,2.0,92.0
2099,50.0,0,160,3.0,92.0
2100,77.0,0,160,0.0,92.0
2101,62.0,192,160,6.0,92.0
2102,69.0,0,160,1.0,92.0
2103,77.0,0,160,4.0,92.0
2104,74.0,0,160,4.0,92.0
2105,69.0,0,160,4.0,92.0
2106,65.0,0,160,2.0,92.0
2107,62.0,0,160,3.0,92.0
2108,62.0,0,160,3.0,92.0
2109,77.0,0,160,4.0,92.0
2110,62.0,0,160,6.0,92.0
2111,69.0,0,160,1.0,92.0
2112,65.0,0,160,2.0,92.0
2113,74.0,192,160,4.0,92.0
2114,71.0,0,160,4.0,92.0
2115,77.0,0,160,0.0,92.0
2116,77.0,0,94,4.0,92.0
2117,74.0,192,94,4.0,92.0
2118,69.0,0,94,4.0,92.0
2119,62.0,0,94,6.0,92.0
2120,50.0,0,94,6.0,92.0
2121,62.0,96,94,6.0,92.0
2122,77.0,96,192,4.0,92.0
2123,77.0,0,288,0.0,92.0
2124,69.0,0,288,1.0,92.0
2125,62.0,0,288,3.0,92.0
2126,65.0,0,288,2.0,92.0
2127,69.0,0,192,4.0,92.0
2128,67.0,0,94,2.0,92.0
2129,61.0,96,94,6.0,92.0
2130,70.0,0,94,1.0,92.0
2131,76.0,0,94,0.0,92.0
2132,61.0,0,94,3.0,92.0
2133,70.0,0,96,4.0,92.0
2134,76.0,0,96,4.0,92.0
2135,62.0,0,94,6.0,92.0
2136,77.0,96,96,4.0,92.0
2137,69.0,0,96,4.0,92.0
2138,62.0,0,96,3.0,92.0
2139,77.0,0,96,0.0,92.0
2140,69.0,0,96,1.0,92.0
2141,65.0,0,96,2.0,92.0
2142,61.0,0,94,3.0,92.0
2143,61.0,0,94,6.0,92.0
2144,67.0,0,94,2.0,92.0
2145,70.0,96,94,4.0,92.0
2146,76.0,0,94,4.0,92.0
2147,70.0,0,94,1.0,92.0
2148,76.0,0,94,0.0,92.0
2149,62.0,0,94,6.0,92.0
2150,77.0,0,94,4.0,92.0
2151,69.0,0,94,4.0,92.0
2152,74.0,0,94,4.0,92.0
2153,50.0,0,94,6.0,92.0
2154,62.0,0,256,3.0,92.0
2155,65.0,0,256,2.0,92.0
2156,69.0,0,256,1.0,92.0
2157,77.0,96,256,0.0,92.0
2158,62.0,96,94,6.0,92.0
2159,77.0,0,192,4.0,92.0
2160,69.0,96,192,4.0,92.0
2161,61.0,0,94,6.0,92.0
2162,70.0,0,94,1.0,92.0
2163,76.0,0,94,0.0,92.0
2164,67.0,0,94,2.0,92.0
2165,61.0,0,94,3.0,92.0
2166,70.0,96,96,4.0,92.0
2167,76.0,0,96,4.0,92.0
2168,62.0,0,94,3.0,92.0
2169,65.0,0,94,2.0,92.0
2170,62.0,0,94,6.0,92.0
2171,77.0,0,94,0.0,92.0
2172,69.0,0,94,1.0,92.0
2173,69.0,0,96,4.0,92.0
2174,77.0,96,96,4.0,92.0
2175,70.0,0,94,4.0,92.0
2176,61.0,0,94,3.0,92.0
2177,67.0,96,94,2.0,92.0
2178,61.0,0,94,6.0,92.0
2179,70.0,0,94,1.0,92.0
2180,76.0,0,94,0.0,92.0
2181,76.0,0,94,4.0,92.0
2182,62.0,0,94,6.0,92.0
2183,62.0,0,160,3.0,92.0
2184,69.0,0,160,1.0,92.0
2185,69.0,0,160,4.0,92.0
2186,77.0,0,160,4.0,92.0
2187,77.0,96,160,0.0,92.0
2188,65.0,0,160,2.0,92.0
2189,50.0,96,94,6.0,92.0
2190,59.0,0,94,6.0,92.0
2191,65.0,0,160,2.0,92.0
2192,74.0,0,160,0.0,92.0
2193,86.0,0,160,4.0,92.0
2194,74.0,0,160,4.0,92.0
2195,62.0,96,160,1.0,92.0
2196,59.0,0,160,3.0,92.0
2197,47.0,96,94,6.0,92.0
2198,56.0,0,94,6.0,92.0
2199,78.0,0,160,4.0,92.0
2200,84.0,0,160,4.0,92.0
2201,66.0,0,160,1.0,92.0
2202,74.0,0,160,4.0,92.0
2203,56.0,96,160,3.0,92.0
2204,62.0,0,160,2.0,92.0
2205,71.0,0,160,0.0,92.0
2206,44.0,96,94,6.0,92.0
2207,74.0,0,32,4.0,92.0
2208,83.0,0,32,4.0,92.0
2209,79.0,0,32,4.0,92.0
2210,55.0,0,94,6.0,92.0
2211,62.0,0,96,2.0,92.0
2212,71.0,0,96,0.0,92.0
2213,79.0,96,32,4.0,92.0
2214,67.0,96,160,1.0,92.0
2215,64.0,0,94,6.0,92.0
2216,64.0,0,94,2.0,92.0
2217,67.0,0,94,0.0,92.0
2218,77.0,0,32,4.0,92.0
2219,79.0,0,32,4.0,92.0
2220,62.0,96,94,6.0,92.0
2221,65.0,0,96,2.0,92.0
2222,59.0,0,96,1.0,92.0
2223,79.0,0,32,4.0,92.0
2224,76.0,0,32,4.0,92.0
2225,67.0,0,160,0.0,92.0
2226,64.0,0,94,2.0,92.0
2227,60.0,96,94,1.0,92.0
2228,60.0,0,94,6.0,92.0
2229,74.0,96,32,4.0,92.0
2230,79.0,0,32,4.0,92.0
2231,59.0,0,94,6.0,92.0
2232,62.0,0,96,2.0,92.0
2233,62.0,0,96,1.0,92.0
2234,72.0,96,32,4.0,92.0
2235,79.0,0,32,4.0,92.0
2236,55.0,0,528,3.0,92.0
2237,67.0,0,160,0.0,92.0
2238,60.0,0,94,2.0,92.0
2239,57.0,0,94,6.0,92.0
2240,64.0,0,94,1.0,92.0
2241,71.0,0,32,4.0,92.0
2242,79.0,0,32,4.0,92.0
2243,55.0,96,94,6.0,92.0
2244,72.0,0,32,4.0,92.0
2245,79.0,96,32,4.0,92.0
2246,57.0,0,94,6.0,92.0
2247,79.0,0,32,4.0,92.0
2248,71.0,0,32,4.0,92.0
2249,55.0,96,94,6.0,92.0
2250,79.0,0,32,4.0,92.0
2251,69.0,0,32,4.0,92.0
2252,55.0,0,336,3.0,92.0
2253,53.0,96,94,6.0,92.0
2254,67.0,96,94,5.0,92.0
2255,52.0,0,94,6.0,92.0
2256,59.0,0,528,2.0,92.0
2257,79.0,0,144,4.0,92.0
2258,65.0,0,528,1.0,92.0
2259,55.0,0,160,3.0,92.0
2260,81.0,48,24,4.0,92.0
2261,77.0,96,94,5.0,92.0
2262,50.0,0,94,6.0,92.0
2263,83.0,24,24,4.0,92.0
2264,84.0,0,94,4.0,92.0
2265,55.0,0,94,6.0,92.0
2266,76.0,0,94,4.0,92.0
2267,67.0,0,672,0.0,92.0
2268,60.0,0,96,3.0,92.0
2269,60.0,0,96,2.0,92.0
2270,79.0,0,32,4.0,92.0
2271,64.0,24,160,1.0,92.0
2272,72.0,0,94,0.0,92.0
2273,64.0,0,94,3.0,92.0
2274,64.0,0,94,6.0,92.0
2275,67.0,96,96,2.0,92.0
2276,77.0,0,32,4.0,92.0
2277,79.0,0,32,4.0,92.0
2278,62.0,96,94,6.0,92.0
2279,65.0,0,96,2.0,92.0
2280,62.0,0,96,3.0,92.0
2281,71.0,0,96,0.0,92.0
2282,76.0,0,32,4.0,92.0
2283,79.0,0,32,4.0,92.0
2284,64.0,96,94,2.0,92.0
2285,72.0,0,94,0.0,92.0
2286,60.0,0,94,6.0,92.0
2287,60.0,0,94,3.0,92.0
2288,79.0,0,32,4.0,92.0
2289,74.0,96,32,4.0,92.0
2290,59.0,0,94,6.0,92.0
2291,74.0,0,96,0.0,92.0
2292,62.0,0,96,2.0,92.0
2293,59.0,0,96,3.0,92.0
2294,72.0,0,32,4.0,92.0
2295,79.0,0,32,4.0,92.0
2296,67.0,0,336,1.0,92.0
2297,57.0,0,94,3.0,92.0
2298,57.0,0,94,6.0,92.0
2299,76.0,96,94,0.0,92.0
2300,60.0,0,94,2.0,92.0
2301,71.0,0,32,4.0,92.0
2302,79.0,0,32,4.0,92.0
2303,55.0,96,94,6.0,92.0
2304,55.0,0,96,3.0,92.0
2305,72.0,96,32,4.0,92.0
2306,79.0,0,32,4.0,92.0
2307,57.0,0,94,6.0,92.0
2308,57.0,0,96,3.0,92.0
2309,71.0,0,32,4.0,92.0
2310,79.0,96,32,4.0,92.0
2311,55.0,0,94,6.0,92.0
2312,55.0,0,96,3.0,92.0
2313,79.0,0,32,4.0,92.0
2314,69.0,96,32,4.0,92.0
2315,53.0,0,94,6.0,92.0
2316,53.0,0,96,3.0,92.0
2317,52.0,0,94,6.0,92.0
2318,67.0,0,94,5.0,92.0
2319,52.0,96,96,3.0,92.0
2320,79.0,0,144,4.0,92.0
2321,77.0,0,528,0.0,92.0
2322,67.0,0,528,1.0,92.0
2323,59.0,0,528,2.0,92.0
2324,81.0,48,24,4.0,92.0
2325,50.0,0,94,6.0,92.0
2326,50.0,0,94,3.0,92.0
2327,77.0,96,94,5.0,92.0
2328,83.0,24,24,4.0,92.0
2329,48.0,0,94,6.0,92.0
2330,76.0,0,94,4.0,92.0
2331,84.0,0,94,4.0,92.0
2332,76.0,0,160,0.0,92.0
2333,60.0,0,160,2.0,92.0
2334,67.0,0,160,1.0,92.0
2335,48.0,24,160,3.0,92.0
2336,60.0,96,94,6.0,92.0
2337,67.0,0,160,4.0,92.0
2338,76.0,0,160,4.0,92.0
2339,48.0,0,94,6.0,92.0
2340,76.0,96,160,0.0,92.0
2341,67.0,0,160,1.0,92.0
2342,60.0,0,94,6.0,92.0
2343,67.0,96,160,4.0,92.0
2344,76.0,0,160,4.0,92.0
2345,48.0,96,94,6.0,92.0
2346,67.0,0,160,1.0,92.0
2347,76.0,0,160,0.0,92.0
2348,60.0,96,94,6.0,92.0
2349,67.0,0,94,4.0,92.0
2350,76.0,0,94,4.0,92.0
2351,66.0,0,94,4.0,92.0
2352,75.0,0,94,4.0,92.0
2353,48.0,0,94,6.0,92.0
2354,60.0,96,94,6.0,92.0
2355,75.0,0,160,4.0,92.0
2356,66.0,0,160,4.0,92.0
2357,48.0,96,94,6.0,92.0
2358,60.0,0,160,3.0,92.0
2359,66.0,0,160,2.0,92.0
2360,60.0,96,94,6.0,92.0
2361,75.0,0,160,4.0,92.0
2362,66.0,0,160,4.0,92.0
2363,48.0,0,94,6.0,92.0
2364,75.0,0,528,0.0,92.0
2365,69.0,96,528,1.0,92.0
2366,60.0,96,160,3.0,92.0
2367,66.0,0,160,2.0,92.0
2368,75.0,0,94,4.0,92.0
2369,66.0,0,94,4.0,92.0
2370,60.0,96,94,6.0,92.0
2371,71.0,0,94,5.0,92.0
2372,64.0,0,94,5.0,92.0
2373,76.0,0,94,4.0,92.0
2374,43.0,0,94,6.0,92.0
2375,76.0,96,94,0.0,92.0
2376,71.0,0,142,1.0,92.0
2377,71.0,0,46,4.0,92.0
2378,71.0,48,46,1.0,92.0
2379,55.0,0,94,6.0,92.0
2380,76.0,0,46,4.0,92.0
2381,76.0,0,94,0.0,92.0
2382,64.0,96,160,5.0,92.0
2383,71.0,0,160,5.0,92.0
2384,79.0,0,94,4.0,92.0
2385,43.0,0,94,6.0,92.0
2386,76.0,0,46,4.0,92.0
2387,79.0,0,160,0.0,92.0
2388,71.0,48,160,1.0,92.0
2389,79.0,48,46,4.0,92.0
2390,55.0,0,94,6.0,92.0
2391,76.0,96,160,5.0,92.0
2392,71.0,0,160,5.0,92.0
2393,43.0,0,94,6.0,92.0
2394,83.0,48,94,4.0,92.0
2395,59.0,0,528,2.0,92.0
2396,52.0,0,528,3.0,92.0
2397,67.0,0,160,1.0,92.0
2398,76.0,0,160,0.0,92.0
2399,55.0,0,94,6.0,92.0
2400,71.0,0,94,5.0,92.0
2401,83.0,96,94,4.0,92.0
2402,73.0,0,94,4.0,92.0
2403,64.0,0,94,4.0,92.0
2404,46.0,0,94,6.0,92.0
2405,67.0,0,94,4.0,92.0
2406,64.0,0,142,2.0,92.0
2407,58.0,0,142,3.0,92.0
2408,64.0,0,46,2.0,92.0
2409,58.0,48,46,3.0,92.0
2410,58.0,0,94,6.0,92.0
2411,73.0,96,160,4.0,92.0
2412,67.0,0,160,4.0,92.0
2413,64.0,0,160,4.0,92.0
2414,46.0,48,94,6.0,92.0
2415,64.0,0,160,2.0,92.0
2416,58.0,0,160,3.0,92.0
2417,58.0,96,94,6.0,92.0
2418,73.0,0,160,4.0,92.0
2419,67.0,0,160,4.0,92.0
2420,64.0,0,160,4.0,92.0
2421,46.0,0,94,6.0,92.0
2422,67.0,96,528,1.0,92.0
2423,73.0,0,528,0.0,92.0
2424,64.0,96,160,2.0,92.0
2425,58.0,0,160,3.0,92.0
2426,58.0,0,94,6.0,92.0
2427,67.0,0,94,4.0,92.0
2428,73.0,0,94,4.0,92.0
2429,64.0,96,94,4.0,92.0
2430,62.0,0,94,5.0,92.0
2431,74.0,0,94,0.0,92.0
2432,74.0,0,94,4.0,92.0
2433,41.0,0,94,6.0,92.0
2434,69.0,0,94,5.0,92.0
2435,69.0,0,142,1.0,92.0
2436,69.0,0,46,4.0,92.0
2437,74.0,0,94,0.0,92.0
2438,74.0,0,46,4.0,92.0
2439,53.0,96,94,6.0,92.0
2440,69.0,48,46,1.0,92.0
2441,62.0,0,160,5.0,92.0
2442,69.0,0,160,5.0,92.0
2443,41.0,0,94,6.0,92.0
2444,77.0,0,94,4.0,92.0
2445,74.0,0,46,4.0,92.0
2446,69.0,0,160,1.0,92.0
2447,77.0,48,160,0.0,92.0
2448,53.0,0,94,6.0,92.0
2449,77.0,48,46,4.0,92.0
2450,74.0,0,160,5.0,92.0
2451,69.0,96,160,5.0,92.0
2452,81.0,0,94,4.0,92.0
2453,41.0,48,94,6.0,92.0
2454,57.0,0,528,2.0,92.0
2455,53.0,96,528,3.0,92.0
2456,65.0,0,160,1.0,92.0
2457,74.0,0,160,0.0,92.0
2458,69.0,0,94,5.0,92.0
2459,81.0,0,94,4.0,92.0
2460,53.0,96,94,6.0,92.0
2461,62.0,0,94,4.0,92.0
2462,65.0,0,94,4.0,92.0
2463,44.0,96,94,6.0,92.0
2464,71.0,0,94,4.0,92.0
2465,62.0,0,142,2.0,92.0
2466,56.0,0,142,3.0,92.0
2467,62.0,48,46,2.0,92.0
2468,56.0,0,94,6.0,92.0
2469,56.0,0,46,3.0,92.0
2470,71.0,0,160,4.0,92.0
2471,65.0,0,160,4.0,92.0
2472,62.0,96,160,4.0,92.0
2473,44.0,48,94,6.0,92.0
2474,62.0,0,160,2.0,92.0
2475,56.0,0,160,3.0,92.0
2476,56.0,96,94,6.0,92.0
2477,62.0,0,160,4.0,92.0
2478,65.0,0,160,4.0,92.0
2479,71.0,0,160,4.0,92.0
2480,44.0,0,94,6.0,92.0
2481,71.0,0,528,0.0,92.0
2482,65.0,0,528,1.0,92.0
2483,56.0,0,160,3.0,92.0
2484,62.0,96,160,2.0,92.0
2485,56.0,0,94,6.0,92.0
2486,62.0,0,94,4.0,92.0
2487,65.0,0,94,4.0,92.0
2488,71.0,96,94,4.0,92.0
2489,67.0,0,94,5.0,92.0
2490,60.0,0,94,5.0,92.0
2491,72.0,96,94,4.0,92.0
2492,39.0,0,94,6.0,92.0
2493,67.0,96,46,4.0,92.0
2494,72.0,0,160,0.0,92.0
2495,67.0,0,160,1.0,92.0
2496,51.0,0,94,6.0,92.0
2497,72.0,48,46,4.0,92.0
2498,67.0,0,160,5.0,92.0
2499,60.0,0,160,5.0,92.0
2500,75.0,0,94,4.0,92.0
2501,39.0,0,94,6.0,92.0
2502,72.0,0,46,4.0,92.0
2503,51.0,0,94,6.0,92.0
2504,75.0,48,46,4.0,92.0
2505,72.0,48,192,0.0,92.0
2506,67.0,0,160,5.0,92.0
2507,72.0,96,160,5.0,92.0
2508,79.0,48,94,4.0,92.0
2509,39.0,0,94,6.0,92.0
2510,55.0,0,528,2.0,92.0
2511,51.0,0,528,3.0,92.0
2512,67.0,0,336,1.0,92.0
2513,79.0,0,160,0.0,92.0
2514,79.0,0,94,4.0,92.0
2515,67.0,96,94,5.0,92.0
2516,51.0,0,94,6.0,92.0
2517,69.0,0,94,4.0,92.0
2518,74.0,0,94,4.0,92.0
2519,78.0,0,94,4.0,92.0
2520,38.0,0,94,6.0,92.0
2521,50.0,96,160,2.0,92.0
2522,50.0,96,94,6.0,92.0
2523,69.0,0,256,1.0,92.0
2524,74.0,0,160,4.0,92.0
2525,78.0,0,160,4.0,92.0
2526,78.0,0,256,0.0,92.0
2527,69.0,0,160,4.0,92.0
2528,38.0,96,94,6.0,92.0
2529,50.0,0,336,3.0,92.0
2530,78.0,96,94,0.0,92.0
2531,50.0,0,94,6.0,92.0
2532,69.0,0,94,1.0,92.0
2533,69.0,0,160,4.0,92.0
2534,78.0,0,160,4.0,92.0
2535,74.0,0,160,4.0,92.0
2536,38.0,0,94,6.0,92.0
2537,62.0,0,336,2.0,92.0
2538,78.0,0,160,0.0,92.0
2539,69.0,96,160,1.0,92.0
2540,50.0,0,160,3.0,92.0
2541,74.0,0,94,4.0,92.0
2542,50.0,96,94,6.0,92.0
2543,69.0,0,94,4.0,92.0
2544,78.0,0,94,4.0,92.0
2545,38.0,0,94,6.0,92.0
2546,76.0,0,94,4.0,92.0
2547,72.0,96,94,4.0,92.0
2548,66.0,0,94,4.0,92.0
2549,50.0,0,94,6.0,92.0
2550,66.0,0,160,4.0,92.0
2551,72.0,0,160,4.0,92.0
2552,76.0,96,160,4.0,92.0
2553,60.0,0,256,2.0,92.0
2554,50.0,0,256,3.0,92.0
2555,38.0,96,94,6.0,92.0
2556,76.0,0,336,0.0,92.0
2557,66.0,0,336,1.0,92.0
2558,60.0,0,94,2.0,92.0
2559,50.0,0,94,6.0,92.0
2560,50.0,96,94,3.0,92.0
2561,76.0,0,160,4.0,92.0
2562,72.0,0,160,4.0,92.0
2563,66.0,0,160,4.0,92.0
2564,38.0,96,94,6.0,92.0
2565,50.0,0,160,3.0,92.0
2566,66.0,0,160,1.0,92.0
2567,76.0,0,160,0.0,92.0
2568,60.0,0,160,2.0,92.0
2569,76.0,0,94,4.0,92.0
2570,72.0,0,94,4.0,92.0
2571,66.0,96,94,4.0,92.0
2572,50.0,0,94,6.0,92.0
2573,38.0,0,94,6.0,92.0
2574,71.0,0,94,4.0,92.0
2575,67.0,0,94,4.0,92.0
2576,74.0,0,94,4.0,92.0
2577,76.0,96,46,4.0,92.0
2578,78.0,48,46,4.0,92.0
2579,50.0,0,94,6.0,92.0
2580,79.0,48,46,4.0,92.0
2581,38.0,0,94,6.0,92.0
2582,81.0,48,46,4.0,92.0
2583,83.0,48,46,4.0,92.0
2584,50.0,0,336,3.0,92.0
2585,59.0,0,336,2.0,92.0
2586,50.0,0,94,6.0,92.0
2587,84.0,48,46,4.0,92.0
2588,38.0,0,94,6.0,92.0
2589,74.0,0,528,0.0,92.0
2590,67.0,96,528,1.0,92.0
2591,50.0,48,160,3.0,92.0
2592,86.0,0,160,4.0,92.0
2593,59.0,0,160,2.0,92.0
2594,83.0,0,160,4.0,92.0
2595,50.0,96,94,6.0,92.0
2596,72.0,0,94,4.0,92.0
2597,38.0,0,94,6.0,92.0
2598,69.0,0,94,4.0,92.0
2599,74.0,96,46,4.0,92.0
2600,50.0,0,94,6.0,92.0
2601,76.0,48,46,4.0,92.0
2602,78.0,48,46,4.0,92.0
2603,79.0,48,46,4.0,92.0
2604,38.0,0,94,6.0,92.0
2605,81.0,48,46,4.0,92.0
2606,50.0,96,336,3.0,92.0
2607,83.0,48,46,4.0,92.0
2608,50.0,0,94,6.0,92.0
2609,38.0,0,94,6.0,92.0
2610,54.0,0,528,2.0,92.0
2611,69.0,0,528,1.0,92.0
2612,72.0,0,528,0.0,92.0
2613,81.0,0,160,4.0,92.0
2614,50.0,0,160,3.0,92.0
2615,84.0,48,160,4.0,92.0
2616,50.0,96,94,6.0,92.0
2617,62.0,0,94,4.0,92.0
2618,67.0,0,94,4.0,92.0
2619,71.0,0,94,4.0,92.0
2620,43.0,0,94,6.0,92.0
2621,55.0,96,160,2.0,92.0
2622,55.0,96,94,6.0,92.0
2623,67.0,0,160,4.0,92.0
2624,71.0,0,160,4.0,92.0
2625,62.0,0,160,4.0,92.0
2626,43.0,0,94,6.0,92.0
2627,55.0,96,94,6.0,92.0
2628,71.0,0,160,4.0,92.0
2629,62.0,0,160,4.0,92.0
2630,67.0,0,160,4.0,92.0
2631,43.0,96,94,6.0,92.0
2632,55.0,0,528,3.0,92.0
2633,67.0,0,528,1.0,92.0
2634,71.0,0,528,0.0,92.0
2635,67.0,0,94,4.0,92.0
2636,71.0,96,94,4.0,92.0
2637,55.0,0,94,6.0,92.0
2638,62.0,0,94,4.0,92.0
2639,69.0,96,94,4.0,92.0
2640,43.0,0,94,6.0,92.0
2641,72.0,0,94,4.0,92.0
2642,67.0,96,544,2.0,92.0
2643,67.0,0,160,5.0,92.0
2644,55.0,96,94,6.0,92.0
2645,69.0,0,160,4.0,92.0
2646,72.0,0,160,4.0,92.0
2647,43.0,96,94,6.0,92.0
2648,55.0,96,94,6.0,92.0
2649,72.0,0,160,4.0,92.0
2650,69.0,0,160,4.0,92.0
2651,43.0,96,94,6.0,92.0
2652,66.0,0,286,5.0,92.0
2653,72.0,0,528,0.0,92.0
2654,55.0,0,528,3.0,92.0
2655,69.0,0,528,1.0,92.0
2656,69.0,0,94,5.0,92.0
2657,55.0,0,94,6.0,92.0
2658,69.0,0,94,4.0,92.0
2659,72.0,96,94,4.0,92.0
2660,43.0,96,94,6.0,92.0
2661,74.0,0,94,4.0,92.0
2662,71.0,0,94,4.0,92.0
2663,76.0,96,46,4.0,92.0
2664,78.0,48,46,4.0,92.0
2665,55.0,0,94,6.0,92.0
2666,79.0,48,46,4.0,92.0
2667,43.0,0,94,6.0,92.0
2668,81.0,48,46,4.0,92.0
2669,83.0,0,46,4.0,92.0
2670,84.0,48,46,4.0,92.0
2671,55.0,48,94,6.0,92.0
2672,43.0,0,94,6.0,92.0
2673,55.0,0,528,3.0,92.0
2674,71.0,0,528,1.0,92.0
2675,74.0,0,528,0.0,92.0
2676,86.0,48,160,4.0,92.0
2677,83.0,0,160,4.0,92.0
2678,55.0,96,94,6.0,92.0
2679,76.0,96,94,4.0,92.0
2680,72.0,0,94,4.0,92.0
2681,43.0,0,94,6.0,92.0
2682,77.0,0,46,4.0,92.0
2683,65.0,0,544,2.0,92.0
2684,79.0,48,46,4.0,92.0
2685,55.0,96,94,6.0,92.0
2686,81.0,0,46,4.0,92.0
2687,83.0,48,46,4.0,92.0
2688,43.0,0,94,6.0,92.0
2689,84.0,48,46,4.0,92.0
2690,64.0,48,160,2.0,92.0
2691,86.0,48,46,4.0,92.0
2692,55.0,0,94,6.0,92.0
2693,43.0,0,94,6.0,92.0
2694,55.0,0,528,3.0,92.0
2695,76.0,0,528,0.0,92.0
2696,72.0,0,528,1.0,92.0
2697,88.0,0,160,4.0,92.0
2698,60.0,48,160,2.0,92.0
2699,84.0,0,160,4.0,92.0
2700,55.0,96,94,6.0,92.0
2701,43.0,0,94,6.0,92.0
2702,77.0,0,142,4.0,92.0
2703,74.0,0,142,4.0,92.0
2704,71.0,0,142,4.0,92.0
2705,55.0,96,94,6.0,92.0
2706,77.0,0,46,4.0,92.0
2707,74.0,48,46,4.0,92.0
2708,50.0,0,94,6.0,92.0
2709,74.0,0,142,4.0,92.0
2710,77.0,48,142,4.0,92.0
2711,74.0,48,46,4.0,92.0
2712,77.0,0,46,4.0,92.0
2713,83.0,0,46,4.0,92.0
2714,55.0,96,94,6.0,92.0
2715,47.0,0,94,6.0,92.0
2716,74.0,0,142,4.0,92.0
2717,77.0,0,142,4.0,92.0
2718,83.0,48,142,4.0,92.0
2719,62.0,0,528,2.0,92.0
2720,55.0,96,528,3.0,92.0
2721,77.0,0,528,0.0,92.0
2722,71.0,0,528,1.0,92.0
2723,83.0,0,46,4.0,92.0
2724,77.0,0,46,4.0,92.0
2725,86.0,48,46,4.0,92.0
2726,50.0,96,94,6.0,92.0
2727,74.0,0,46,4.0,92.0
2728,71.0,0,528,1.0,92.0
2729,62.0,48,528,2.0,92.0
2730,43.0,0,528,6.0,92.0
2731,55.0,0,528,3.0,92.0
2732,77.0,0,528,0.0,92.0
2733,31.0,0,528,6.0,92.0
2734,86.0,0,528,4.0,92.0
2735,83.0,0,528,4.0,92.0
2736,77.0,0,528,4.0,92.0
2737,74.0,0,528,4.0,92.0
2738,67.0,0,144,4.0,45.0
2739,55.0,576,144,6.0,45.0
2740,72.0,0,46,4.0,45.0
2741,60.0,144,46,6.0,45.0
2742,64.0,0,48,6.0,45.0
2743,76.0,48,48,4.0,45.0
2744,76.0,0,48,4.0,45.0
2745,64.0,192,48,6.0,45.0
2746,74.0,0,256,0.0,92.0
2747,67.0,0,256,1.0,92.0
2748,55.0,0,256,3.0,92.0
2749,65.0,0,256,2.0,92.0
2750,62.0,0,288,4.0,45.0
2751,74.0,0,288,4.0,45.0
2752,65.0,192,336,5.0,45.0
2753,55.0,0,336,6.0,45.0
2754,67.0,0,94,1.0,92.0
2755,71.0,0,94,0.0,92.0
2756,62.0,0,94,2.0,92.0
2757,55.0,0,94,3.0,92.0
2758,71.0,0,94,4.0,45.0
2759,59.0,288,94,4.0,45.0
2760,67.0,96,160,1.0,92.0
2761,72.0,0,160,4.0,45.0
2762,64.0,0,160,2.0,92.0
2763,72.0,0,160,0.0,92.0
2764,48.0,0,160,6.0,45.0
2765,60.0,0,160,6.0,45.0
2766,64.0,0,160,4.0,45.0
2767,48.0,0,160,3.0,92.0
2768,60.0,0,144,6.0,45.0
2769,72.0,192,144,4.0,45.0
2770,64.0,144,46,6.0,45.0
2771,76.0,0,46,4.0,45.0
2772,67.0,48,48,6.0,45.0
2773,79.0,0,48,4.0,45.0
2774,79.0,0,48,4.0,45.0
2775,67.0,192,48,6.0,45.0
2776,62.0,0,288,2.0,92.0
2777,65.0,0,288,4.0,45.0
2778,77.0,192,288,4.0,45.0
2779,77.0,0,288,0.0,92.0
2780,67.0,0,336,5.0,45.0
2781,55.0,0,336,3.0,92.0
2782,55.0,0,336,6.0,45.0
2783,62.0,0,94,4.0,45.0
2784,74.0,288,94,0.0,92.0
2785,74.0,0,94,4.0,45.0
2786,59.0,0,94,2.0,92.0
2787,67.0,0,528,1.0,92.0
2788,72.0,0,160,4.0,45.0
2789,76.0,0,160,4.0,45.0
2790,60.0,0,160,2.0,92.0
2791,48.0,96,160,3.0,92.0
2792,48.0,0,160,6.0,45.0
2793,64.0,0,160,4.0,45.0
2794,60.0,0,160,6.0,45.0
2795,76.0,0,160,0.0,92.0
2796,69.0,0,32,4.0,45.0
2797,72.0,0,32,4.0,45.0
2798,72.0,96,32,4.0,45.0
2799,69.0,0,32,4.0,45.0
2800,48.0,0,160,6.0,45.0
2801,69.0,0,32,4.0,45.0
2802,72.0,96,32,4.0,45.0
2803,69.0,96,32,4.0,45.0
2804,72.0,0,32,4.0,45.0
2805,72.0,0,94,4.0,45.0
2806,71.0,96,46,4.0,45.0
2807,57.0,0,528,3.0,92.0
2808,72.0,0,528,1.0,92.0
2809,69.0,96,160,4.0,45.0
2810,72.0,48,46,4.0,45.0
2811,67.0,48,32,4.0,45.0
2812,71.0,0,32,4.0,45.0
2813,71.0,96,32,4.0,45.0
2814,67.0,0,32,4.0,45.0
2815,48.0,0,160,6.0,45.0
2816,67.0,96,32,4.0,45.0
2817,71.0,0,32,4.0,45.0
2818,71.0,0,32,4.0,45.0
2819,67.0,96,32,4.0,45.0
2820,71.0,0,94,4.0,45.0
2821,69.0,96,46,4.0,45.0
2822,67.0,96,160,4.0,45.0
2823,71.0,48,46,4.0,45.0
2824,55.0,0,576,3.0,92.0
2825,71.0,0,576,1.0,92.0
2826,65.0,48,32,4.0,45.0
2827,69.0,0,32,4.0,45.0
2828,69.0,96,32,4.0,45.0
2829,65.0,0,32,4.0,45.0
2830,48.0,0,160,6.0,45.0
2831,69.0,0,32,4.0,45.0
2832,65.0,96,32,4.0,45.0
2833,65.0,96,32,4.0,45.0
2834,69.0,0,32,4.0,45.0
2835,69.0,0,94,4.0,45.0
2836,53.0,0,526,3.0,92.0
2837,69.0,0,526,1.0,92.0
2838,67.0,96,46,4.0,45.0
2839,65.0,96,160,4.0,45.0
2840,69.0,0,46,1.0,92.0
2841,53.0,0,46,3.0,92.0
2842,69.0,48,46,4.0,45.0
2843,67.0,0,32,4.0,45.0
2844,64.0,0,32,4.0,45.0
2845,64.0,96,32,4.0,45.0
2846,67.0,0,32,4.0,45.0
2847,48.0,0,160,6.0,45.0
2848,64.0,96,32,4.0,45.0
2849,67.0,0,32,4.0,45.0
2850,67.0,96,32,4.0,45.0
2851,64.0,0,32,4.0,45.0
2852,67.0,0,94,4.0,45.0
2853,66.0,96,46,4.0,45.0
2854,60.0,192,2256,6.0,45.0
2855,52.0,48,528,3.0,92.0
2856,67.0,0,528,1.0,92.0
2857,64.0,96,160,4.0,45.0
2858,67.0,48,46,4.0,45.0
2859,67.0,0,32,4.0,45.0
2860,64.0,0,32,4.0,45.0
2861,60.0,96,32,4.0,45.0
2862,64.0,0,32,4.0,45.0
2863,60.0,0,160,6.0,45.0
2864,48.0,0,160,6.0,45.0
2865,72.0,0,32,4.0,45.0
2866,67.0,96,32,4.0,45.0
2867,64.0,0,32,4.0,45.0
2868,67.0,96,32,4.0,45.0
2869,48.0,0,336,3.0,92.0
2870,67.0,0,336,1.0,92.0
2871,64.0,96,32,4.0,45.0
2872,60.0,0,32,4.0,45.0
2873,79.0,0,478,0.0,92.0
2874,64.0,48,478,2.0,92.0
2875,67.0,0,32,4.0,45.0
2876,64.0,0,32,4.0,45.0
2877,67.0,0,160,1.0,92.0
2878,48.0,0,160,3.0,92.0
2879,64.0,96,94,2.0,92.0
2880,79.0,0,94,0.0,92.0
2881,65.0,0,94,4.0,45.0
2882,59.0,0,160,6.0,45.0
2883,47.0,0,160,6.0,45.0
2884,62.0,96,94,4.0,45.0
2885,47.0,0,256,3.0,92.0
2886,67.0,0,256,1.0,92.0
2887,62.0,0,256,5.0,45.0
2888,74.0,96,94,4.0,45.0
2889,62.0,96,336,2.0,92.0
2890,77.0,0,336,0.0,92.0
2891,67.0,0,94,5.0,45.0
2892,67.0,0,94,1.0,92.0
2893,71.0,0,94,4.0,45.0
2894,47.0,96,94,3.0,92.0
2895,74.0,96,94,0.0,92.0
2896,62.0,0,94,5.0,45.0
2897,59.0,0,94,2.0,92.0
2898,65.0,0,94,4.0,45.0
2899,67.0,0,160,1.0,92.0
2900,47.0,0,160,3.0,92.0
2901,62.0,0,94,2.0,92.0
2902,62.0,96,94,4.0,45.0
2903,77.0,0,94,0.0,92.0
2904,59.0,0,94,5.0,45.0
2905,72.0,96,32,4.0,45.0
2906,60.0,0,32,4.0,45.0
2907,71.0,96,32,4.0,45.0
2908,59.0,0,32,4.0,45.0
2909,47.0,0,160,6.0,45.0
2910,60.0,0,160,6.0,45.0
2911,60.0,96,32,4.0,45.0
2912,72.0,0,32,4.0,45.0
2913,74.0,96,32,4.0,45.0
2914,62.0,0,32,4.0,45.0
2915,77.0,0,384,0.0,92.0
2916,62.0,0,384,2.0,92.0
2917,64.0,0,32,4.0,45.0
2918,76.0,96,32,4.0,45.0
2919,78.0,96,32,4.0,45.0
2920,66.0,0,32,4.0,45.0
2921,67.0,0,528,1.0,92.0
2922,48.0,0,528,3.0,92.0
2923,60.0,0,160,2.0,92.0
2924,76.0,0,160,0.0,92.0
2925,79.0,96,160,4.0,45.0
2926,43.0,0,160,3.0,92.0
2927,59.0,0,160,2.0,92.0
2928,67.0,0,160,4.0,45.0
2929,43.0,0,160,6.0,45.0
2930,67.0,0,160,1.0,92.0
2931,55.0,0,160,6.0,45.0
2932,74.0,0,160,0.0,92.0
2933,31.0,192,160,6.0,45.0
2934,43.0,0,160,6.0,45.0
2935,72.0,192,24,4.0,92.0
2936,74.0,24,24,4.0,92.0
2937,76.0,24,142,4.0,92.0
2938,76.0,0,24,4.0,92.0
2939,77.0,24,24,4.0,92.0
2940,79.0,24,142,4.0,92.0
2941,40.0,0,48,6.0,92.0
2942,52.0,0,48,6.0,92.0
2943,67.0,144,336,0.0,92.0
2944,64.0,0,336,1.0,92.0
2945,52.0,0,160,3.0,92.0
2946,55.0,144,160,2.0,92.0
2947,69.0,0,160,5.0,92.0
2948,72.0,0,160,5.0,92.0
2949,41.0,0,48,6.0,92.0
2950,53.0,0,48,6.0,92.0
2951,76.0,0,94,4.0,92.0
2952,74.0,96,46,4.0,92.0
2953,72.0,0,160,0.0,92.0
2954,64.0,0,160,2.0,92.0
2955,55.0,0,160,3.0,92.0
2956,69.0,192,160,5.0,92.0
2957,69.0,0,160,1.0,92.0
2958,72.0,48,46,4.0,92.0
2959,43.0,48,48,6.0,92.0
2960,55.0,0,48,6.0,92.0
2961,67.0,0,160,1.0,92.0
2962,72.0,0,160,0.0,92.0
2963,55.0,0,160,3.0,92.0
2964,64.0,0,160,2.0,92.0
2965,72.0,0,192,4.0,127.0
2966,64.0,0,192,4.0,127.0
2967,43.0,0,48,6.0,92.0
2968,31.0,0,48,6.0,92.0
2969,67.0,0,160,1.0,92.0
2970,71.0,0,160,0.0,92.0
2971,62.0,0,160,2.0,92.0
2972,62.0,0,160,4.0,92.0
2973,71.0,0,160,4.0,92.0
2974,43.0,192,160,3.0,92.0
2975,71.0,192,24,4.0,92.0
2976,72.0,24,24,4.0,92.0
2977,74.0,24,142,4.0,92.0
2978,74.0,0,24,4.0,92.0
2979,76.0,24,24,4.0,92.0
2980,77.0,24,142,4.0,92.0
2981,55.0,0,192,3.0,92.0
2982,59.0,0,192,2.0,92.0
2983,57.0,0,48,6.0,92.0
2984,45.0,0,48,6.0,92.0
2985,67.0,144,336,1.0,92.0
2986,67.0,0,336,0.0,92.0
2987,60.0,0,160,2.0,92.0
2988,57.0,144,160,3.0,92.0
2989,47.0,0,48,6.0,92.0
2990,59.0,192,48,6.0,92.0
2991,77.0,0,94,4.0,92.0
2992,76.0,96,46,4.0,92.0
2993,67.0,0,336,5.0,92.0
2994,65.0,0,160,2.0,92.0
2995,67.0,0,160,1.0,92.0
2996,59.0,0,160,3.0,92.0
2997,74.0,0,160,0.0,92.0
2998,74.0,48,46,4.0,92.0
2999,48.0,0,48,6.0,92.0
3000,60.0,48,48,6.0,92.0
3001,74.0,0,142,0.0,92.0
3002,67.0,0,142,1.0,92.0
3003,60.0,0,142,3.0,92.0
3004,65.0,0,142,2.0,92.0
3005,60.0,0,46,3.0,92.0
3006,65.0,0,46,2.0,92.0
3007,74.0,0,46,0.0,92.0
3008,67.0,144,46,1.0,92.0
3009,65.0,0,192,4.0,92.0
3010,74.0,0,192,4.0,92.0
3011,36.0,0,48,6.0,92.0
3012,48.0,0,48,6.0,92.0
3013,67.0,48,160,1.0,92.0
3014,72.0,0,160,0.0,92.0
3015,64.0,0,160,4.0,92.0
3016,72.0,0,160,4.0,92.0
3017,48.0,0,160,3.0,92.0
3018,64.0,0,160,2.0,92.0
3019,72.0,192,24,4.0,92.0
3020,74.0,24,24,4.0,92.0
3021,76.0,24,142,4.0,92.0
3022,76.0,0,24,4.0,92.0
3023,77.0,24,24,4.0,92.0
3024,79.0,24,142,4.0,92.0
3025,60.0,144,48,6.0,92.0
3026,67.0,0,336,1.0,92.0
3027,64.0,0,336,2.0,92.0
3028,76.0,0,336,0.0,92.0
3029,60.0,144,336,3.0,92.0
3030,81.0,0,24,4.0,92.0
3031,65.0,0,48,6.0,92.0
3032,60.0,0,48,6.0,92.0
3033,57.0,0,48,6.0,92.0
3034,83.0,24,24,4.0,92.0
3035,77.0,0,160,0.0,92.0
3036,57.0,0,160,3.0,92.0
3037,65.0,0,160,1.0,92.0
3038,60.0,192,160,2.0,92.0
3039,84.0,24,142,4.0,92.0
3040,74.0,0,24,4.0,92.0
3041,76.0,24,24,4.0,92.0
3042,77.0,24,142,4.0,92.0
3043,59.0,144,48,6.0,92.0
3044,59.0,144,336,3.0,92.0
3045,62.0,0,336,2.0,92.0
3046,74.0,0,336,0.0,92.0
3047,65.0,0,336,1.0,92.0
3048,79.0,0,24,4.0,92.0
3049,81.0,24,24,4.0,92.0
3050,55.0,0,48,6.0,92.0
3051,64.0,0,48,6.0,92.0
3052,59.0,192,48,6.0,92.0
3053,59.0,0,160,2.0,92.0
3054,64.0,0,160,1.0,92.0
3055,76.0,0,160,0.0,92.0
3056,55.0,0,160,3.0,92.0
3057,83.0,24,142,4.0,92.0
3058,72.0,0,24,4.0,92.0
3059,74.0,24,24,4.0,92.0
3060,76.0,24,142,4.0,92.0
3061,57.0,144,48,6.0,92.0
3062,57.0,0,336,3.0,92.0
3063,72.0,0,336,0.0,92.0
3064,64.0,144,336,1.0,92.0
3065,60.0,0,336,2.0,92.0
3066,77.0,0,24,4.0,92.0
3067,79.0,24,24,4.0,92.0
3068,57.0,0,48,6.0,92.0
3069,53.0,0,48,6.0,92.0
3070,62.0,0,48,6.0,92.0
3071,74.0,0,160,0.0,92.0
3072,69.0,0,160,1.0,92.0
3073,53.0,192,160,3.0,92.0
3074,65.0,0,160,2.0,92.0
3075,81.0,24,142,4.0,92.0
3076,62.0,0,142,2.0,92.0
3077,71.0,0,142,0.0,92.0
3078,67.0,0,142,1.0,92.0
3079,55.0,0,142,3.0,92.0
3080,62.0,0,160,4.0,92.0
3081,71.0,144,160,4.0,92.0
3082,67.0,0,160,4.0,92.0
3083,55.0,0,160,6.0,92.0
3084,67.0,0,46,1.0,92.0
3085,71.0,0,46,0.0,92.0
3086,55.0,144,46,3.0,92.0
3087,62.0,0,46,2.0,92.0
3088,53.0,0,94,6.0,92.0
3089,83.0,0,94,4.0,92.0
3090,55.0,0,94,6.0,92.0
3091,62.0,0,94,6.0,92.0
3092,81.0,0,46,4.0,92.0
3093,53.0,48,160,3.0,92.0
3094,67.0,0,160,1.0,92.0
3095,62.0,0,160,2.0,92.0
3096,71.0,0,160,0.0,92.0
3097,79.0,48,46,4.0,92.0
3098,55.0,96,94,6.0,92.0
3099,52.0,0,94,6.0,92.0
3100,60.0,0,94,6.0,92.0
3101,84.0,48,94,4.0,92.0
3102,67.0,0,160,1.0,92.0
3103,52.0,0,160,3.0,92.0
3104,72.0,0,160,0.0,92.0
3105,64.0,0,160,2.0,92.0
3106,55.0,96,94,6.0,92.0
3107,79.0,0,94,4.0,92.0
3108,86.0,0,160,4.0,92.0
3109,77.0,0,160,4.0,92.0
3110,79.0,96,160,4.0,92.0
3111,47.0,0,160,6.0,92.0
3112,55.0,0,160,6.0,92.0
3113,47.0,0,94,6.0,92.0
3114,45.0,96,46,6.0,92.0
3115,47.0,0,336,3.0,92.0
3116,77.0,0,336,0.0,92.0
3117,62.0,0,336,2.0,92.0
3118,67.0,0,336,1.0,92.0
3119,74.0,0,160,4.0,92.0
3120,67.0,0,160,4.0,92.0
3121,77.0,192,160,4.0,92.0
3122,43.0,48,46,6.0,92.0
3123,48.0,0,94,6.0,92.0
3124,60.0,0,160,2.0,92.0
3125,76.0,0,160,4.0,92.0
3126,67.0,48,160,1.0,92.0
3127,67.0,0,160,4.0,92.0
3128,76.0,0,160,0.0,92.0
3129,72.0,0,160,4.0,92.0
3130,48.0,0,160,3.0,92.0
3131,52.0,96,94,6.0,92.0
3132,67.0,0,160,4.0,92.0
3133,55.0,96,160,6.0,92.0
3134,74.0,0,160,4.0,92.0
3135,71.0,0,160,4.0,92.0
3136,74.0,0,192,0.0,92.0
3137,55.0,0,192,3.0,92.0
3138,59.0,0,192,2.0,92.0
3139,55.0,0,94,6.0,92.0
3140,62.0,0,94,6.0,92.0
3141,53.0,0,94,6.0,92.0
3142,83.0,0,94,4.0,92.0
3143,81.0,96,46,4.0,92.0
3144,67.0,0,336,1.0,92.0
3145,53.0,0,160,3.0,92.0
3146,62.0,0,160,2.0,92.0
3147,71.0,192,160,0.0,92.0
3148,55.0,0,94,6.0,92.0
3149,79.0,48,46,4.0,92.0
3150,84.0,0,94,4.0,92.0
3151,60.0,0,94,6.0,92.0
3152,52.0,0,94,6.0,92.0
3153,72.0,0,160,0.0,92.0
3154,67.0,0,160,1.0,92.0
3155,60.0,0,160,2.0,92.0
3156,52.0,48,160,3.0,92.0
3157,55.0,0,94,6.0,92.0
3158,79.0,96,94,4.0,92.0
3159,79.0,0,160,4.0,92.0
3160,77.0,0,160,4.0,92.0
3161,47.0,96,160,6.0,92.0
3162,55.0,0,160,6.0,92.0
3163,86.0,0,160,4.0,92.0
3164,47.0,0,94,6.0,92.0
3165,45.0,96,46,6.0,92.0
3166,77.0,0,336,0.0,92.0
3167,59.0,0,336,3.0,92.0
3168,67.0,0,336,1.0,92.0
3169,62.0,0,336,2.0,92.0
3170,67.0,192,160,4.0,92.0
3171,74.0,0,160,4.0,92.0
3172,77.0,0,160,4.0,92.0
3173,43.0,48,46,6.0,92.0
3174,48.0,0,94,6.0,92.0
3175,60.0,0,160,2.0,92.0
3176,60.0,0,160,3.0,92.0
3177,67.0,0,160,4.0,92.0
3178,72.0,0,160,4.0,92.0
3179,76.0,0,160,4.0,92.0
3180,76.0,0,160,0.0,92.0
3181,67.0,48,160,1.0,92.0
3182,52.0,96,94,6.0,92.0
3183,71.0,96,160,4.0,92.0
3184,74.0,0,160,4.0,92.0
3185,67.0,0,160,4.0,92.0
3186,55.0,0,160,6.0,92.0
3187,55.0,0,192,3.0,92.0
3188,67.0,0,192,1.0,92.0
3189,74.0,0,192,0.0,92.0
3190,83.0,0,94,4.0,92.0
3191,59.0,192,94,6.0,92.0
3192,71.0,0,142,0.0,92.0
3193,57.0,96,46,6.0,92.0
3194,59.0,0,142,3.0,92.0
3195,81.0,0,46,4.0,92.0
3196,59.0,0,334,2.0,92.0
3197,71.0,0,142,1.0,92.0
3198,55.0,48,46,6.0,92.0
3199,71.0,0,46,1.0,92.0
3200,59.0,0,46,2.0,92.0
3201,79.0,0,46,4.0,92.0
3202,59.0,0,46,3.0,92.0
3203,71.0,0,46,0.0,92.0
3204,84.0,0,94,4.0,92.0
3205,60.0,0,94,6.0,92.0
3206,72.0,0,160,0.0,92.0
3207,60.0,0,160,3.0,92.0
3208,72.0,48,160,1.0,92.0
3209,60.0,0,160,2.0,92.0
3210,79.0,96,94,4.0,92.0
3211,55.0,0,94,6.0,92.0
3212,55.0,0,48,6.0,92.0
3213,67.0,0,48,6.0,92.0
3214,79.0,96,94,4.0,92.0
3215,78.0,96,46,4.0,92.0
3216,79.0,48,46,4.0,92.0
3217,67.0,0,192,1.0,92.0
3218,79.0,0,192,0.0,92.0
3219,55.0,0,192,3.0,92.0
3220,67.0,0,192,2.0,92.0
3221,52.0,0,48,6.0,92.0
3222,64.0,0,48,6.0,92.0
3223,76.0,48,94,4.0,92.0
3224,75.0,96,46,4.0,92.0
3225,64.0,0,160,1.0,92.0
3226,52.0,0,160,3.0,92.0
3227,64.0,0,160,2.0,92.0
3228,76.0,0,160,0.0,92.0
3229,76.0,48,46,4.0,92.0
3230,48.0,0,48,6.0,92.0
3231,60.0,48,48,6.0,92.0
3232,72.0,0,94,4.0,92.0
3233,71.0,96,46,4.0,92.0
3234,72.0,0,160,0.0,92.0
3235,60.0,0,160,1.0,92.0
3236,48.0,0,160,3.0,92.0
3237,60.0,0,160,2.0,92.0
3238,72.0,48,46,4.0,92.0
3239,67.0,0,94,4.0,92.0
3240,43.0,0,160,6.0,92.0
3241,55.0,0,160,6.0,92.0
3242,67.0,96,94,4.0,45.0
3243,64.0,0,94,6.0,45.0
3244,79.0,96,94,4.0,45.0
3245,62.0,0,94,6.0,45.0
3246,77.0,96,94,4.0,45.0
3247,61.0,96,94,6.0,45.0
3248,76.0,0,94,4.0,45.0
3249,58.0,96,94,6.0,45.0
3250,74.0,0,94,4.0,45.0
3251,55.0,0,576,2.0,45.0
3252,55.0,0,576,3.0,45.0
3253,67.0,48,576,1.0,45.0
3254,67.0,0,576,0.0,45.0
3255,45.0,0,94,6.0,45.0
3256,57.0,0,94,6.0,45.0
3257,73.0,0,94,4.0,45.0
3258,81.0,0,32,4.0,45.0
3259,74.0,0,32,4.0,45.0
3260,58.0,96,94,6.0,45.0
3261,73.0,96,32,4.0,45.0
3262,81.0,0,32,4.0,45.0
3263,57.0,0,94,6.0,45.0
3264,81.0,0,32,4.0,45.0
3265,70.0,96,32,4.0,45.0
3266,55.0,0,94,6.0,45.0
3267,53.0,96,94,6.0,45.0
3268,69.0,0,94,5.0,45.0
3269,81.0,0,144,4.0,45.0
3270,82.0,48,24,4.0,45.0
3271,52.0,96,94,6.0,45.0
3272,79.0,0,94,5.0,45.0
3273,85.0,24,24,4.0,45.0
3274,64.0,96,576,1.0,45.0
3275,79.0,0,576,0.0,45.0
3276,61.0,0,576,2.0,45.0
3277,57.0,0,576,3.0,45.0
3278,86.0,0,94,4.0,45.0
3279,78.0,24,94,4.0,45.0
3280,50.0,0,94,6.0,45.0
3281,38.0,0,94,6.0,45.0
3282,66.0,0,94,6.0,45.0
3283,81.0,96,94,4.0,45.0
3284,78.0,96,94,4.0,45.0
3285,62.0,0,94,6.0,45.0
3286,75.0,96,94,4.0,45.0
3287,60.0,0,94,6.0,45.0
3288,74.0,96,94,4.0,45.0
3289,59.0,0,94,6.0,45.0
3290,72.0,0,94,4.0,45.0
3291,57.0,96,94,6.0,45.0
3292,50.0,0,576,3.0,45.0
3293,78.0,0,576,0.0,45.0
3294,60.0,0,576,2.0,45.0
3295,69.0,0,576,1.0,45.0
3296,55.0,0,94,6.0,45.0
3297,43.0,96,94,6.0,45.0
3298,71.0,0,94,4.0,45.0
3299,72.0,96,32,4.0,45.0
3300,79.0,0,32,4.0,45.0
3301,57.0,0,94,6.0,45.0
3302,71.0,0,32,4.0,45.0
3303,79.0,96,32,4.0,45.0
3304,55.0,0,94,6.0,45.0
3305,69.0,96,32,4.0,45.0
3306,79.0,0,32,4.0,45.0
3307,53.0,0,94,6.0,45.0
3308,52.0,96,94,6.0,45.0
3309,67.0,0,94,5.0,45.0
3310,79.0,0,144,4.0,45.0
3311,81.0,48,24,4.0,45.0
3312,77.0,0,94,5.0,45.0
3313,50.0,96,94,6.0,45.0
3314,55.0,0,576,3.0,45.0
3315,77.0,0,576,0.0,45.0
3316,62.0,0,576,1.0,45.0
3317,83.0,24,24,4.0,45.0
3318,59.0,0,576,2.0,45.0
3319,76.0,24,94,5.0,45.0
3320,48.0,0,94,6.0,45.0
3321,36.0,0,94,6.0,45.0
3322,84.0,0,160,4.0,45.0
3323,79.0,96,94,5.0,45.0
3324,64.0,0,94,6.0,45.0
3325,60.0,0,94,6.0,45.0
3326,76.0,96,94,5.0,45.0
3327,59.0,96,94,6.0,45.0
3328,74.0,0,94,5.0,45.0
3329,57.0,0,94,6.0,45.0
3330,72.0,96,94,5.0,45.0
3331,55.0,96,94,6.0,45.0
3332,71.0,0,94,5.0,45.0
3333,60.0,0,576,2.0,45.0
3334,76.0,0,576,0.0,45.0
3335,67.0,0,576,1.0,45.0
3336,48.0,0,576,3.0,45.0
3337,69.0,0,32,5.0,45.0
3338,54.0,0,94,6.0,45.0
3339,81.0,0,32,4.0,45.0
3340,72.0,96,32,5.0,45.0
3341,57.0,0,94,6.0,45.0
3342,81.0,0,32,4.0,45.0
3343,75.0,96,32,5.0,45.0
3344,60.0,0,94,6.0,45.0
3345,81.0,0,32,4.0,45.0
3346,72.0,0,32,5.0,45.0
3347,57.0,96,94,6.0,45.0
3348,54.0,96,94,6.0,45.0
3349,75.0,0,94,5.0,45.0
3350,81.0,0,144,4.0,45.0
3351,83.0,48,24,4.0,45.0
3352,81.0,0,94,5.0,45.0
3353,57.0,96,94,6.0,45.0
3354,57.0,0,576,2.0,45.0
3355,54.0,0,576,3.0,45.0
3356,84.0,24,24,4.0,45.0
3357,60.0,96,576,1.0,45.0
3358,75.0,0,576,0.0,45.0
3359,53.0,0,94,6.0,45.0
3360,68.0,24,160,1.0,45.0
3361,79.0,0,160,4.0,45.0
3362,86.0,0,160,4.0,45.0
3363,59.0,96,94,6.0,45.0
3364,62.0,96,94,6.0,45.0
3365,71.0,0,94,5.0,45.0
3366,79.0,0,144,4.0,45.0
3367,53.0,0,336,5.0,45.0
3368,59.0,0,336,2.0,45.0
3369,53.0,0,336,3.0,45.0
3370,74.0,0,336,0.0,45.0
3371,81.0,48,24,4.0,45.0
3372,53.0,0,94,6.0,45.0
3373,74.0,96,94,5.0,45.0
3374,83.0,24,24,4.0,45.0
3375,76.0,0,94,5.0,45.0
3376,84.0,0,94,4.0,45.0
3377,52.0,0,94,6.0,45.0
3378,67.0,0,336,1.0,45.0
3379,79.0,24,160,0.0,45.0
3380,60.0,0,160,2.0,45.0
3381,52.0,0,160,3.0,45.0
3382,52.0,0,160,5.0,45.0
3383,79.0,96,94,4.0,45.0
3384,60.0,0,94,6.0,45.0
3385,76.0,0,94,5.0,45.0
3386,69.0,0,32,4.0,45.0
3387,81.0,0,32,4.0,45.0
3388,53.0,0,48,6.0,45.0
3389,74.0,96,32,4.0,45.0
3390,77.0,0,32,4.0,45.0
3391,53.0,0,160,3.0,45.0
3392,57.0,0,160,2.0,45.0
3393,77.0,0,192,0.0,45.0
3394,69.0,96,192,1.0,45.0
3395,76.0,0,32,4.0,45.0
3396,72.0,96,32,4.0,45.0
3397,55.0,0,48,6.0,45.0
3398,79.0,96,32,4.0,45.0
3399,76.0,0,32,4.0,45.0
3400,60.0,0,160,2.0,45.0
3401,76.0,0,192,0.0,45.0
3402,77.0,0,32,4.0,45.0
3403,74.0,96,32,4.0,45.0
3404,43.0,0,48,6.0,45.0
3405,74.0,96,32,4.0,45.0
3406,71.0,0,32,4.0,45.0
3407,67.0,0,336,1.0,45.0
3408,55.0,0,336,3.0,45.0
3409,59.0,0,160,2.0,45.0
3410,74.0,0,160,0.0,45.0
3411,48.0,0,32,6.0,92.0
3412,72.0,0,94,4.0,92.0
3413,60.0,96,32,6.0,92.0
3414,60.0,96,160,2.0,45.0
3415,67.0,0,160,1.0,45.0
3416,72.0,0,160,5.0,92.0
3417,72.0,0,160,0.0,45.0
3418,48.0,0,160,3.0,45.0
3419,76.0,0,94,4.0,92.0
3420,64.0,96,32,6.0,92.0
3421,79.0,0,94,4.0,92.0
3422,64.0,0,96,2.0,92.0
3423,62.0,0,32,6.0,92.0
3424,79.0,0,160,0.0,92.0
3425,77.0,0,94,4.0,92.0
3426,62.0,96,96,2.0,92.0
3427,61.0,96,32,6.0,92.0
3428,76.0,0,94,4.0,92.0
3429,61.0,0,96,2.0,92.0
3430,58.0,0,32,6.0,92.0
3431,79.0,0,160,0.0,92.0
3432,58.0,96,94,2.0,92.0
3433,74.0,0,94,4.0,92.0
3434,57.0,0,94,6.0,92.0
3435,45.0,96,94,6.0,92.0
3436,73.0,0,94,5.0,92.0
3437,57.0,0,96,3.0,92.0
3438,81.0,96,32,4.0,92.0
3439,57.0,0,160,2.0,92.0
3440,74.0,0,94,5.0,92.0
3441,58.0,0,94,6.0,92.0
3442,58.0,0,96,3.0,92.0
3443,81.0,0,32,4.0,92.0
3444,73.0,0,94,5.0,92.0
3445,57.0,0,94,6.0,92.0
3446,57.0,0,96,3.0,92.0
3447,81.0,0,32,4.0,92.0
3448,69.0,96,160,1.0,92.0
3449,55.0,0,94,6.0,92.0
3450,70.0,0,94,5.0,92.0
3451,55.0,96,96,3.0,92.0
3452,61.0,0,256,2.0,92.0
3453,53.0,0,94,6.0,92.0
3454,69.0,0,94,5.0,92.0
3455,53.0,0,96,3.0,92.0
3456,59.0,96,46,2.0,92.0
3457,81.0,96,144,4.0,92.0
3458,79.0,0,528,0.0,92.0
3459,69.0,0,160,1.0,92.0
3460,83.0,48,24,4.0,92.0
3461,52.0,0,94,6.0,92.0
3462,52.0,0,94,3.0,92.0
3463,79.0,0,94,5.0,92.0
3464,61.0,0,46,2.0,92.0
3465,85.0,24,24,4.0,92.0
3466,78.0,0,94,5.0,92.0
3467,38.0,0,94,6.0,92.0
3468,50.0,0,94,6.0,92.0
3469,78.0,0,160,0.0,92.0
3470,62.0,24,160,2.0,92.0
3471,50.0,0,160,3.0,92.0
3472,86.0,0,160,4.0,92.0
3473,66.0,96,94,6.0,92.0
3474,81.0,0,94,5.0,92.0
3475,69.0,0,192,1.0,92.0
3476,62.0,0,94,6.0,92.0
3477,78.0,0,94,5.0,92.0
3478,62.0,96,96,2.0,92.0
3479,78.0,0,160,0.0,92.0
3480,75.0,96,94,5.0,92.0
3481,60.0,0,94,6.0,92.0
3482,60.0,0,96,2.0,92.0
3483,74.0,96,94,5.0,92.0
3484,59.0,0,94,6.0,92.0
3485,72.0,0,288,1.0,92.0
3486,59.0,0,96,2.0,92.0
3487,71.0,96,48,1.0,92.0
3488,78.0,0,160,0.0,92.0
3489,57.0,0,94,2.0,92.0
3490,72.0,0,94,5.0,92.0
3491,72.0,48,46,1.0,92.0
3492,57.0,0,94,6.0,92.0
3493,55.0,0,94,6.0,92.0
3494,71.0,0,94,5.0,92.0
3495,43.0,0,94,6.0,92.0
3496,55.0,0,96,3.0,92.0
3497,79.0,0,32,4.0,92.0
3498,55.0,48,160,2.0,92.0
3499,71.0,0,160,1.0,92.0
3500,72.0,0,94,5.0,92.0
3501,57.0,0,94,6.0,92.0
3502,57.0,96,96,3.0,92.0
3503,79.0,0,32,4.0,92.0
3504,71.0,0,94,5.0,92.0
3505,55.0,0,94,6.0,92.0
3506,55.0,0,96,3.0,92.0
3507,79.0,0,32,4.0,92.0
3508,67.0,0,160,1.0,92.0
3509,69.0,0,94,5.0,92.0
3510,53.0,96,94,6.0,92.0
3511,53.0,0,96,3.0,92.0
3512,59.0,96,256,2.0,92.0
3513,67.0,0,94,5.0,92.0
3514,52.0,0,94,6.0,92.0
3515,52.0,0,96,3.0,92.0
3516,57.0,0,46,2.0,92.0
3517,79.0,96,142,4.0,92.0
3518,77.0,0,528,0.0,92.0
3519,67.0,0,160,1.0,92.0
3520,81.0,48,22,4.0,92.0
3521,59.0,0,46,2.0,92.0
3522,50.0,0,94,6.0,92.0
3523,77.0,0,94,5.0,92.0
3524,50.0,96,94,3.0,92.0
3525,83.0,24,22,4.0,92.0
3526,48.0,24,94,6.0,92.0
3527,76.0,0,94,5.0,92.0
3528,84.0,0,160,4.0,92.0
3529,76.0,0,160,0.0,92.0
3530,48.0,0,160,3.0,92.0
3531,60.0,0,160,2.0,92.0
3532,64.0,96,94,6.0,92.0
3533,79.0,0,94,5.0,92.0
3534,60.0,0,94,6.0,92.0
3535,76.0,0,94,5.0,92.0
3536,64.0,96,96,2.0,92.0
3537,60.0,0,96,3.0,92.0
3538,67.0,0,336,1.0,92.0
3539,76.0,0,160,0.0,92.0
3540,59.0,0,94,3.0,92.0
3541,74.0,96,94,5.0,92.0
3542,62.0,0,94,2.0,92.0
3543,59.0,0,94,6.0,92.0
3544,57.0,0,94,6.0,92.0
3545,72.0,0,94,5.0,92.0
3546,57.0,96,96,3.0,92.0
3547,60.0,0,96,2.0,92.0
3548,72.0,0,160,1.0,92.0
3549,76.0,0,160,0.0,92.0
3550,55.0,0,94,3.0,92.0
3551,59.0,0,94,2.0,92.0
3552,55.0,96,94,6.0,92.0
3553,71.0,0,94,5.0,92.0
3554,69.0,0,94,5.0,92.0
3555,54.0,0,94,6.0,92.0
3556,81.0,0,32,4.0,92.0
3557,57.0,0,94,6.0,92.0
3558,72.0,96,94,5.0,92.0
3559,81.0,96,32,4.0,92.0
3560,75.0,0,94,5.0,92.0
3561,60.0,0,94,6.0,92.0
3562,81.0,0,32,4.0,92.0
3563,53.0,0,336,5.0,92.0
3564,72.0,0,94,5.0,92.0
3565,57.0,96,94,6.0,92.0
3566,54.0,0,94,6.0,92.0
3567,75.0,0,94,5.0,92.0
3568,81.0,0,144,4.0,92.0
3569,72.0,0,528,1.0,92.0
3570,51.0,96,160,5.0,92.0
3571,83.0,48,24,4.0,92.0
3572,81.0,0,94,5.0,92.0
3573,57.0,96,94,6.0,92.0
3574,54.0,0,576,3.0,92.0
3575,84.0,24,24,4.0,92.0
3576,75.0,96,576,0.0,92.0
3577,57.0,0,576,2.0,92.0
3578,53.0,24,94,6.0,92.0
3579,56.0,0,160,2.0,92.0
3580,79.0,0,160,4.0,92.0
3581,86.0,0,160,4.0,92.0
3582,59.0,96,94,6.0,92.0
3583,71.0,0,94,5.0,92.0
3584,62.0,96,94,6.0,92.0
3585,53.0,0,336,3.0,92.0
3586,79.0,0,144,4.0,92.0
3587,71.0,0,336,1.0,92.0
3588,74.0,0,336,0.0,92.0
3589,81.0,48,24,4.0,92.0
3590,53.0,0,94,6.0,92.0
3591,74.0,96,94,5.0,92.0
3592,83.0,24,24,4.0,92.0
3593,52.0,24,94,6.0,92.0
3594,84.0,0,94,4.0,92.0
3595,76.0,0,94,5.0,92.0
3596,79.0,0,32,4.0,92.0
3597,55.0,0,336,2.0,92.0
3598,72.0,0,160,1.0,92.0
3599,52.0,0,160,3.0,92.0
3600,79.0,0,160,0.0,92.0
3601,62.0,96,94,6.0,92.0
3602,76.0,0,94,5.0,92.0
3603,53.0,0,94,6.0,92.0
3604,57.0,0,160,2.0,92.0
3605,77.0,0,160,4.0,92.0
3606,74.0,0,160,4.0,92.0
3607,69.0,0,160,4.0,92.0
3608,50.0,96,94,6.0,92.0
3609,77.0,0,192,0.0,92.0
3610,53.0,0,192,3.0,92.0
3611,69.0,96,192,1.0,92.0
3612,55.0,0,94,6.0,92.0
3613,67.0,0,160,4.0,92.0
3614,72.0,0,160,4.0,92.0
3615,60.0,96,160,2.0,92.0
3616,76.0,0,160,4.0,92.0
3617,53.0,96,94,6.0,92.0
3618,76.0,0,192,0.0,92.0
3619,55.0,0,94,6.0,92.0
3620,67.0,0,336,1.0,92.0
3621,55.0,0,336,3.0,92.0
3622,59.0,0,160,2.0,92.0
3623,67.0,0,160,4.0,92.0
3624,74.0,0,160,0.0,92.0
3625,71.0,0,160,4.0,92.0
3626,74.0,96,160,4.0,92.0
3627,43.0,96,94,6.0,92.0
3628,72.0,0,94,4.0,92.0
3629,67.0,0,94,4.0,92.0
3630,64.0,96,94,4.0,92.0
3631,48.0,0,94,6.0,92.0
3632,43.0,0,32,6.0,92.0
3633,55.0,96,32,4.0,92.0
3634,67.0,0,160,1.0,92.0
3635,48.0,0,160,3.0,92.0
3636,72.0,0,160,0.0,92.0
3637,60.0,0,160,2.0,92.0
3638,43.0,96,32,6.0,92.0
3639,55.0,0,32,4.0,92.0
3640,43.0,96,32,6.0,92.0
3641,55.0,0,32,4.0,92.0
3642,53.0,0,336,5.0,92.0
3643,55.0,0,144,4.0,92.0
3644,43.0,96,144,6.0,92.0
3645,57.0,0,24,4.0,92.0
3646,45.0,144,24,6.0,92.0
3647,47.0,24,24,6.0,92.0
3648,59.0,0,24,4.0,92.0
3649,60.0,0,94,4.0,92.0
3650,48.0,0,94,6.0,92.0
3651,43.0,96,32,6.0,92.0
3652,55.0,0,32,4.0,92.0
3653,55.0,24,160,5.0,92.0
3654,52.0,0,160,5.0,92.0
3655,55.0,0,32,4.0,92.0
3656,43.0,96,32,6.0,92.0
3657,55.0,0,32,4.0,92.0
3658,43.0,96,32,6.0,92.0
3659,53.0,0,336,5.0,92.0
3660,43.0,96,144,6.0,92.0
3661,55.0,0,144,4.0,92.0
3662,45.0,144,24,6.0,92.0
3663,57.0,0,24,4.0,92.0
3664,59.0,0,24,4.0,92.0
3665,47.0,24,24,6.0,92.0
3666,48.0,0,94,6.0,92.0
3667,60.0,24,94,4.0,92.0
3668,60.0,0,94,2.0,92.0
3669,60.0,0,94,3.0,92.0
3670,67.0,0,94,1.0,92.0
3671,76.0,0,94,0.0,92.0
3672,55.0,0,160,6.0,92.0
3673,76.0,0,94,0.0,92.0
3674,67.0,0,94,1.0,92.0
3675,60.0,0,94,2.0,92.0
3676,52.0,0,94,6.0,92.0
3677,60.0,0,94,3.0,92.0
3678,64.0,96,94,4.0,92.0
3679,67.0,0,94,4.0,92.0
3680,55.0,0,94,6.0,92.0
3681,60.0,0,160,6.0,92.0
3682,66.0,96,94,4.0,92.0
3683,54.0,0,94,6.0,92.0
3684,60.0,0,192,2.0,92.0
3685,55.0,0,94,6.0,92.0
3686,67.0,96,94,4.0,92.0
3687,74.0,96,336,0.0,92.0
3688,62.0,0,336,5.0,92.0
3689,55.0,0,336,3.0,92.0
3690,67.0,0,336,1.0,92.0
3691,59.0,0,160,6.0,92.0
3692,59.0,0,160,2.0,92.0
3693,55.0,0,94,4.0,92.0
3694,43.0,96,94,6.0,92.0
3695,60.0,0,94,4.0,92.0
3696,79.0,96,32,4.0,92.0
3697,72.0,0,160,0.0,92.0
3698,48.0,0,160,3.0,92.0
3699,48.0,96,160,6.0,92.0
3700,55.0,0,160,6.0,92.0
3701,52.0,0,160,6.0,92.0
3702,60.0,0,160,2.0,92.0
3703,67.0,0,160,1.0,92.0
3704,79.0,0,32,4.0,92.0
3705,79.0,96,32,4.0,92.0
3706,65.0,96,336,6.0,92.0
3707,59.0,0,336,6.0,92.0
3708,55.0,0,336,6.0,92.0
3709,79.0,96,144,4.0,92.0
3710,81.0,144,24,4.0,92.0
3711,83.0,24,24,4.0,92.0
3712,84.0,24,94,4.0,92.0
3713,79.0,96,32,4.0,92.0
3714,60.0,0,160,6.0,92.0
3715,64.0,0,160,6.0,92.0
3716,79.0,96,32,4.0,92.0
3717,79.0,96,32,4.0,92.0
3718,79.0,96,142,4.0,92.0
3719,65.0,0,336,6.0,92.0
3720,55.0,0,336,6.0,92.0
3721,59.0,0,336,6.0,92.0
3722,81.0,144,22,4.0,92.0
3723,83.0,24,22,4.0,92.0
3724,64.0,0,94,6.0,92.0
3725,60.0,0,94,6.0,92.0
3726,67.0,24,94,1.0,92.0
3727,76.0,0,94,0.0,92.0
3728,60.0,0,94,2.0,92.0
3729,60.0,0,94,3.0,92.0
3730,84.0,0,160,4.0,92.0
3731,60.0,0,94,3.0,92.0
3732,52.0,0,94,6.0,92.0
3733,76.0,96,94,0.0,92.0
3734,60.0,0,94,2.0,92.0
3735,67.0,0,94,1.0,92.0
3736,55.0,0,94,6.0,92.0
3737,60.0,0,160,4.0,92.0
3738,67.0,0,160,4.0,92.0
3739,54.0,96,94,6.0,92.0
3740,60.0,0,192,2.0,92.0
3741,55.0,0,94,6.0,92.0
3742,67.0,0,336,1.0,92.0
3743,55.0,96,336,3.0,92.0
3744,74.0,0,336,0.0,92.0
3745,59.0,0,160,2.0,92.0
3746,71.0,0,160,4.0,92.0
3747,67.0,0,160,4.0,92.0
3748,62.0,0,160,4.0,92.0
3749,59.0,96,160,4.0,92.0
3750,43.0,96,94,6.0,92.0
3751,36.0,0,160,6.0,92.0
3752,48.0,0,160,3.0,92.0
3753,72.0,0,160,4.0,92.0
3754,67.0,0,160,4.0,92.0
3755,64.0,0,160,4.0,92.0
3756,60.0,0,160,4.0,92.0
3757,48.0,96,160,6.0,92.0
3758,67.0,0,160,1.0,92.0
3759,60.0,0,160,2.0,92.0
3760,72.0,0,160,0.0,92.0
