,note,step,duration,channel,velocity
0,60.0,0,43,0.0,88.0
1,62.0,48,21,0.0,88.0
2,48.0,0,86,1.0,88.0
3,64.0,24,21,0.0,88.0
4,65.0,24,21,0.0,88.0
5,67.0,24,21,0.0,88.0
6,69.0,24,21,0.0,88.0
7,71.0,24,21,0.0,88.0
8,72.0,24,21,0.0,88.0
9,71.0,24,21,0.0,88.0
10,69.0,24,21,0.0,88.0
11,67.0,24,21,0.0,88.0
12,65.0,24,21,0.0,88.0
13,64.0,24,21,0.0,88.0
14,62.0,24,21,0.0,88.0
15,48.0,0,86,1.0,88.0
16,60.0,24,21,0.0,88.0
17,62.0,24,43,0.0,88.0
18,64.0,48,21,0.0,88.0
19,43.0,0,86,1.0,88.0
20,65.0,24,21,0.0,88.0
21,67.0,24,21,0.0,88.0
22,69.0,24,21,0.0,88.0
23,71.0,24,21,0.0,88.0
24,72.0,24,21,0.0,88.0
25,74.0,24,86,0.0,88.0
26,55.0,48,43,1.0,88.0
27,50.0,48,43,1.0,88.0
28,47.0,48,43,1.0,88.0
29,62.0,48,43,0.0,88.0
30,64.0,48,21,0.0,88.0
31,43.0,0,86,1.0,88.0
32,65.0,24,21,0.0,88.0
33,67.0,24,21,0.0,88.0
34,69.0,24,21,0.0,88.0
35,71.0,24,21,0.0,88.0
36,72.0,24,21,0.0,88.0
37,74.0,24,21,0.0,88.0
38,72.0,24,21,0.0,88.0
39,71.0,24,21,0.0,88.0
40,69.0,24,21,0.0,88.0
41,67.0,24,21,0.0,88.0
42,65.0,24,21,0.0,88.0
43,64.0,24,21,0.0,88.0
44,43.0,0,86,1.0,88.0
45,62.0,24,21,0.0,88.0
46,64.0,24,43,0.0,88.0
47,65.0,48,21,0.0,88.0
48,48.0,0,86,1.0,88.0
49,67.0,24,21,0.0,88.0
50,69.0,24,21,0.0,88.0
51,71.0,24,21,0.0,88.0
52,72.0,24,21,0.0,88.0
53,74.0,24,21,0.0,88.0
54,76.0,24,86,0.0,88.0
55,60.0,48,43,1.0,88.0
56,55.0,48,43,1.0,88.0
57,52.0,48,43,1.0,88.0
58,76.0,0,21,0.0,88.0
59,74.0,24,21,0.0,88.0
60,72.0,24,21,0.0,88.0
61,48.0,48,86,1.0,88.0
62,71.0,24,21,0.0,88.0
63,69.0,24,21,0.0,88.0
64,67.0,24,21,0.0,88.0
65,65.0,24,21,0.0,88.0
66,60.0,0,86,1.0,88.0
67,64.0,24,21,0.0,88.0
68,65.0,24,43,0.0,88.0
69,67.0,48,21,0.0,88.0
70,69.0,24,21,0.0,88.0
71,71.0,24,21,0.0,88.0
72,72.0,24,21,0.0,88.0
73,74.0,24,21,0.0,88.0
74,62.0,0,172,1.0,88.0
75,76.0,24,21,0.0,88.0
76,77.0,0,21,0.0,88.0
77,76.0,24,21,0.0,88.0
78,74.0,24,21,0.0,88.0
79,50.0,24,86,1.0,88.0
80,72.0,24,21,0.0,88.0
81,71.0,0,21,0.0,88.0
82,69.0,24,21,0.0,88.0
83,67.0,24,21,0.0,88.0
84,62.0,24,86,1.0,88.0
85,65.0,24,21,0.0,88.0
86,67.0,24,43,0.0,88.0
87,69.0,48,21,0.0,88.0
88,71.0,24,21,0.0,88.0
89,72.0,24,21,0.0,88.0
90,74.0,24,21,0.0,88.0
91,76.0,24,21,0.0,88.0
92,64.0,0,172,1.0,88.0
93,77.0,24,21,0.0,88.0
94,79.0,0,21,0.0,88.0
95,77.0,24,21,0.0,88.0
96,76.0,24,21,0.0,88.0
97,52.0,24,86,1.0,88.0
98,74.0,24,21,0.0,88.0
99,72.0,0,21,0.0,88.0
100,71.0,24,21,0.0,88.0
101,69.0,24,21,0.0,88.0
102,64.0,24,86,1.0,88.0
103,67.0,24,21,0.0,88.0
104,69.0,0,43,0.0,88.0
105,71.0,48,21,0.0,88.0
106,72.0,24,21,0.0,88.0
107,74.0,24,21,0.0,88.0
108,76.0,24,21,0.0,88.0
109,77.0,24,21,0.0,88.0
110,65.0,24,172,1.0,88.0
111,79.0,24,21,0.0,88.0
112,81.0,0,21,0.0,88.0
113,53.0,24,43,1.0,88.0
114,79.0,24,21,0.0,88.0
115,77.0,0,21,0.0,88.0
116,55.0,24,43,1.0,88.0
117,76.0,24,21,0.0,88.0
118,77.0,24,21,0.0,88.0
119,57.0,0,43,1.0,88.0
120,76.0,24,21,0.0,88.0
121,74.0,24,21,0.0,88.0
122,54.0,0,43,1.0,88.0
123,72.0,24,21,0.0,88.0
124,55.0,0,43,1.0,88.0
125,71.0,24,86,0.0,88.0
126,55.0,48,43,1.0,88.0
127,50.0,48,43,1.0,88.0
128,48.0,48,43,1.0,88.0
129,74.0,48,21,0.0,88.0
130,72.0,24,21,0.0,88.0
131,71.0,24,21,0.0,88.0
132,47.0,0,86,1.0,88.0
133,69.0,24,21,0.0,88.0
134,67.0,0,21,0.0,88.0
135,65.0,24,21,0.0,88.0
136,64.0,24,21,0.0,88.0
137,59.0,24,86,1.0,88.0
138,62.0,24,21,0.0,88.0
139,64.0,24,43,0.0,88.0
140,66.0,48,21,0.0,88.0
141,60.0,0,86,1.0,88.0
142,67.0,24,21,0.0,88.0
143,69.0,24,21,0.0,88.0
144,71.0,24,21,0.0,88.0
145,72.0,24,21,0.0,88.0
146,74.0,24,21,0.0,88.0
147,76.0,24,21,0.0,88.0
148,74.0,24,21,0.0,88.0
149,73.0,24,21,0.0,88.0
150,61.0,0,86,1.0,88.0
151,71.0,24,21,0.0,88.0
152,69.0,24,21,0.0,88.0
153,67.0,24,21,0.0,88.0
154,66.0,24,21,0.0,88.0
155,49.0,0,86,1.0,88.0
156,64.0,24,21,0.0,88.0
157,66.0,0,43,0.0,88.0
158,67.0,48,21,0.0,88.0
159,50.0,24,86,1.0,88.0
160,69.0,24,21,0.0,88.0
161,71.0,24,21,0.0,88.0
162,73.0,24,21,0.0,88.0
163,74.0,24,21,0.0,88.0
164,76.0,24,21,0.0,88.0
165,78.0,0,21,0.0,88.0
166,76.0,24,21,0.0,88.0
167,75.0,24,21,0.0,88.0
168,51.0,24,86,1.0,88.0
169,72.0,24,21,0.0,88.0
170,71.0,24,21,0.0,88.0
171,69.0,24,21,0.0,88.0
172,67.0,24,21,0.0,88.0
173,63.0,0,86,1.0,88.0
174,66.0,24,21,0.0,88.0
175,67.0,0,43,0.0,88.0
176,69.0,48,21,0.0,88.0
177,64.0,24,86,1.0,88.0
178,71.0,24,21,0.0,88.0
179,72.0,24,21,0.0,88.0
180,75.0,24,21,0.0,88.0
181,76.0,24,21,0.0,88.0
182,78.0,24,21,0.0,88.0
183,79.0,0,21,0.0,88.0
184,78.0,24,21,0.0,88.0
185,76.0,24,21,0.0,88.0
186,64.0,24,86,1.0,88.0
187,74.0,24,21,0.0,88.0
188,72.0,0,21,0.0,88.0
189,71.0,24,21,0.0,88.0
190,69.0,24,21,0.0,88.0
191,52.0,24,86,1.0,88.0
192,67.0,24,21,0.0,88.0
193,69.0,0,43,0.0,88.0
194,71.0,48,21,0.0,88.0
195,54.0,24,86,1.0,88.0
196,72.0,24,21,0.0,88.0
197,74.0,24,21,0.0,88.0
198,76.0,24,21,0.0,88.0
199,78.0,24,21,0.0,88.0
200,79.0,24,21,0.0,88.0
201,81.0,24,21,0.0,88.0
202,79.0,24,21,0.0,88.0
203,78.0,24,21,0.0,88.0
204,54.0,0,86,1.0,88.0
205,76.0,24,21,0.0,88.0
206,74.0,0,21,0.0,88.0
207,72.0,24,21,0.0,88.0
208,71.0,24,21,0.0,88.0
209,66.0,24,86,1.0,88.0
210,69.0,24,21,0.0,88.0
211,67.0,24,43,1.0,88.0
212,71.0,0,86,0.0,88.0
213,55.0,48,43,1.0,88.0
214,57.0,48,43,1.0,88.0
215,74.0,48,43,0.0,88.0
216,59.0,0,43,1.0,88.0
217,76.0,0,21,0.0,88.0
218,60.0,48,43,1.0,88.0
219,74.0,24,21,0.0,88.0
220,76.0,24,21,0.0,88.0
221,60.0,0,43,1.0,88.0
222,71.0,24,21,0.0,88.0
223,72.0,0,21,0.0,88.0
224,60.0,24,43,1.0,88.0
225,69.0,24,21,0.0,88.0
226,71.0,24,21,0.0,88.0
227,60.0,0,43,1.0,88.0
228,68.0,24,21,0.0,88.0
229,69.0,0,21,0.0,88.0
230,60.0,24,43,1.0,88.0
231,72.0,24,21,0.0,88.0
232,71.0,0,21,0.0,88.0
233,60.0,24,43,1.0,88.0
234,74.0,24,21,0.0,88.0
235,72.0,0,21,0.0,88.0
236,60.0,24,43,1.0,88.0
237,74.0,24,21,0.0,88.0
238,76.0,24,21,0.0,88.0
239,60.0,0,43,1.0,88.0
240,72.0,24,21,0.0,88.0
241,76.0,24,21,0.0,88.0
242,59.0,0,43,1.0,88.0
243,73.0,24,21,0.0,88.0
244,74.0,0,21,0.0,88.0
245,59.0,24,43,1.0,88.0
246,69.0,24,21,0.0,88.0
247,71.0,24,21,0.0,88.0
248,59.0,0,43,1.0,88.0
249,69.0,24,21,0.0,88.0
250,71.0,24,21,0.0,88.0
251,59.0,0,43,1.0,88.0
252,66.0,24,21,0.0,88.0
253,67.0,24,21,0.0,88.0
254,59.0,0,43,1.0,88.0
255,71.0,24,21,0.0,88.0
256,74.0,24,21,0.0,88.0
257,59.0,0,43,1.0,88.0
258,73.0,24,21,0.0,88.0
259,71.0,24,21,0.0,88.0
260,59.0,0,43,1.0,88.0
261,73.0,24,21,0.0,88.0
262,74.0,24,21,0.0,88.0
263,59.0,0,43,1.0,88.0
264,71.0,24,21,0.0,88.0
265,72.0,24,21,0.0,88.0
266,57.0,0,43,1.0,88.0
267,71.0,24,21,0.0,88.0
268,72.0,0,21,0.0,88.0
269,57.0,24,43,1.0,88.0
270,69.0,24,21,0.0,88.0
271,78.0,0,21,0.0,88.0
272,57.0,24,43,1.0,88.0
273,76.0,24,21,0.0,88.0
274,78.0,0,21,0.0,88.0
275,57.0,24,43,1.0,88.0
276,72.0,24,21,0.0,88.0
277,81.0,0,21,0.0,88.0
278,50.0,24,43,1.0,88.0
279,78.0,24,21,0.0,88.0
280,81.0,24,21,0.0,88.0
281,50.0,0,43,1.0,88.0
282,78.0,24,21,0.0,88.0
283,81.0,0,21,0.0,88.0
284,50.0,24,43,1.0,88.0
285,78.0,24,21,0.0,88.0
286,74.0,24,21,0.0,88.0
287,50.0,0,43,1.0,88.0
288,72.0,24,21,0.0,88.0
289,71.0,0,24,0.0,88.0
290,55.0,24,43,1.0,88.0
291,74.0,24,24,0.0,88.0
292,72.0,24,24,0.0,88.0
293,55.0,0,43,1.0,88.0
294,71.0,24,24,0.0,88.0
295,72.0,0,24,0.0,88.0
296,57.0,24,43,1.0,88.0
297,74.0,24,24,0.0,88.0
298,76.0,0,24,0.0,88.0
299,57.0,24,43,1.0,88.0
300,78.0,24,24,0.0,88.0
301,79.0,0,96,0.0,88.0
302,77.0,96,48,0.0,88.0
303,76.0,48,24,0.0,88.0
304,59.0,24,172,1.0,88.0
305,75.0,24,24,0.0,88.0
306,60.0,24,43,1.0,88.0
307,48.0,48,43,1.0,88.0
308,76.0,0,96,0.0,88.0
309,60.0,48,43,1.0,88.0
310,72.0,24,21,0.0,88.0
311,74.0,0,21,0.0,88.0
312,59.0,24,43,1.0,88.0
313,76.0,24,21,0.0,88.0
314,78.0,0,48,0.0,88.0
315,76.0,48,48,0.0,88.0
316,74.0,48,48,0.0,88.0
317,57.0,24,172,1.0,88.0
318,73.0,48,48,0.0,88.0
319,59.0,0,43,1.0,88.0
320,47.0,48,43,1.0,88.0
321,74.0,48,96,0.0,88.0
322,59.0,48,43,1.0,88.0
323,71.0,24,21,0.0,88.0
324,72.0,24,21,0.0,88.0
325,57.0,0,43,1.0,88.0
326,74.0,24,21,0.0,88.0
327,76.0,24,48,0.0,88.0
328,74.0,48,48,0.0,88.0
329,72.0,48,48,0.0,88.0
330,55.0,0,172,1.0,88.0
331,71.0,48,48,0.0,88.0
332,57.0,48,43,1.0,88.0
333,45.0,48,43,1.0,88.0
334,72.0,0,96,0.0,88.0
335,57.0,48,43,1.0,88.0
336,69.0,24,21,0.0,88.0
337,71.0,24,21,0.0,88.0
338,55.0,0,43,1.0,88.0
339,72.0,24,21,0.0,88.0
340,74.0,24,48,0.0,88.0
341,72.0,48,48,0.0,88.0
342,71.0,48,48,0.0,88.0
343,54.0,0,172,1.0,88.0
344,69.0,48,48,0.0,88.0
345,55.0,48,43,1.0,88.0
346,71.0,0,72,0.0,88.0
347,55.0,48,43,1.0,88.0
348,67.0,24,24,0.0,88.0
349,69.0,24,12,0.0,88.0
350,67.0,12,12,0.0,88.0
351,69.0,12,12,0.0,88.0
352,55.0,0,43,1.0,88.0
353,67.0,12,12,0.0,88.0
354,69.0,12,12,0.0,88.0
355,67.0,12,12,0.0,88.0
356,69.0,12,12,0.0,88.0
357,55.0,0,43,1.0,88.0
358,67.0,12,12,0.0,88.0
359,69.0,12,12,0.0,88.0
360,67.0,12,12,0.0,88.0
361,69.0,12,12,0.0,88.0
362,55.0,0,43,1.0,88.0
363,67.0,12,12,0.0,88.0
364,66.0,0,21,0.0,88.0
365,55.0,12,43,1.0,88.0
366,67.0,24,21,0.0,88.0
367,55.0,0,43,1.0,88.0
368,71.0,24,72,0.0,88.0
369,55.0,48,43,1.0,88.0
370,67.0,24,24,0.0,88.0
371,55.0,24,43,1.0,88.0
372,72.0,0,72,0.0,88.0
373,55.0,48,43,1.0,88.0
374,69.0,24,24,0.0,88.0
375,71.0,0,12,0.0,88.0
376,69.0,12,12,0.0,88.0
377,71.0,12,12,0.0,88.0
378,55.0,24,43,1.0,88.0
379,69.0,12,12,0.0,88.0
380,71.0,12,12,0.0,88.0
381,69.0,12,12,0.0,88.0
382,71.0,12,12,0.0,88.0
383,55.0,0,43,1.0,88.0
384,69.0,12,12,0.0,88.0
385,71.0,12,12,0.0,88.0
386,69.0,12,12,0.0,88.0
387,71.0,12,12,0.0,88.0
388,55.0,0,43,1.0,88.0
389,69.0,12,12,0.0,88.0
390,68.0,12,21,0.0,88.0
391,55.0,0,43,1.0,88.0
392,69.0,24,21,0.0,88.0
393,55.0,0,43,1.0,88.0
394,72.0,24,72,0.0,88.0
395,55.0,48,43,1.0,88.0
396,69.0,24,24,0.0,88.0
397,55.0,0,43,1.0,88.0
398,74.0,24,72,0.0,88.0
399,55.0,48,43,1.0,88.0
400,71.0,24,24,0.0,88.0
401,72.0,0,12,0.0,88.0
402,71.0,12,12,0.0,88.0
403,72.0,12,12,0.0,88.0
404,55.0,24,43,1.0,88.0
405,71.0,12,12,0.0,88.0
406,72.0,12,12,0.0,88.0
407,71.0,12,12,0.0,88.0
408,72.0,12,12,0.0,88.0
409,55.0,0,43,1.0,88.0
410,71.0,12,12,0.0,88.0
411,72.0,12,12,0.0,88.0
412,71.0,12,12,0.0,88.0
413,72.0,12,12,0.0,88.0
414,55.0,0,43,1.0,88.0
415,71.0,12,12,0.0,88.0
416,70.0,12,21,0.0,88.0
417,55.0,0,43,1.0,88.0
418,71.0,24,21,0.0,88.0
419,55.0,0,43,1.0,88.0
420,74.0,24,72,0.0,88.0
421,55.0,48,43,1.0,88.0
422,71.0,24,24,0.0,88.0
423,55.0,0,43,1.0,88.0
424,76.0,24,72,0.0,88.0
425,55.0,48,43,1.0,88.0
426,72.0,24,24,0.0,88.0
427,74.0,0,12,0.0,88.0
428,72.0,12,12,0.0,88.0
429,74.0,12,12,0.0,88.0
430,55.0,24,43,1.0,88.0
431,72.0,12,12,0.0,88.0
432,74.0,12,12,0.0,88.0
433,72.0,12,12,0.0,88.0
434,71.0,12,10,0.0,88.0
435,55.0,0,43,1.0,88.0
436,72.0,12,10,0.0,88.0
437,55.0,12,43,1.0,88.0
438,78.0,0,72,0.0,88.0
439,55.0,48,43,1.0,88.0
440,74.0,24,24,0.0,88.0
441,76.0,24,12,0.0,88.0
442,74.0,12,12,0.0,88.0
443,76.0,12,12,0.0,88.0
444,55.0,0,43,1.0,88.0
445,74.0,12,12,0.0,88.0
446,76.0,0,12,0.0,88.0
447,74.0,12,12,0.0,88.0
448,72.0,12,10,0.0,88.0
449,55.0,12,43,1.0,88.0
450,74.0,12,10,0.0,88.0
451,79.0,12,21,0.0,88.0
452,55.0,0,43,1.0,88.0
453,76.0,24,21,0.0,88.0
454,78.0,0,21,0.0,88.0
455,55.0,24,43,1.0,88.0
456,74.0,24,21,0.0,88.0
457,78.0,24,21,0.0,88.0
458,55.0,0,43,1.0,88.0
459,76.0,24,21,0.0,88.0
460,78.0,24,21,0.0,88.0
461,55.0,0,43,1.0,88.0
462,76.0,24,21,0.0,88.0
463,81.0,24,21,0.0,88.0
464,55.0,0,43,1.0,88.0
465,78.0,24,21,0.0,88.0
466,79.0,24,21,0.0,88.0
467,55.0,0,43,1.0,88.0
468,78.0,24,21,0.0,88.0
469,79.0,24,21,0.0,88.0
470,55.0,0,43,1.0,88.0
471,78.0,24,21,0.0,88.0
472,79.0,0,21,0.0,88.0
473,55.0,24,43,1.0,88.0
474,78.0,24,21,0.0,88.0
475,55.0,24,86,1.0,88.0
476,83.0,0,86,0.0,88.0
477,52.0,192,43,1.0,88.0
478,52.0,48,43,1.0,88.0
479,52.0,48,43,1.0,88.0
480,59.0,0,172,0.0,88.0
481,52.0,48,43,1.0,88.0
482,48.0,0,43,1.0,88.0
483,48.0,48,43,1.0,88.0
484,48.0,48,43,1.0,88.0
485,48.0,48,43,1.0,88.0
486,48.0,48,43,1.0,88.0
487,48.0,48,43,1.0,88.0
488,48.0,48,43,1.0,88.0
489,57.0,48,345,0.0,88.0
490,48.0,48,43,1.0,88.0
491,49.0,0,43,1.0,88.0
492,49.0,48,43,1.0,88.0
493,49.0,48,43,1.0,88.0
494,49.0,48,43,1.0,88.0
495,49.0,48,43,1.0,88.0
496,79.0,48,240,0.0,88.0
497,49.0,48,43,1.0,88.0
498,78.0,0,48,0.0,88.0
499,49.0,48,43,1.0,88.0
500,78.0,0,48,0.0,88.0
501,49.0,48,43,1.0,88.0
502,76.0,0,43,0.0,88.0
503,50.0,48,43,1.0,88.0
504,50.0,48,43,1.0,88.0
505,50.0,48,43,1.0,88.0
506,50.0,48,43,1.0,88.0
507,50.0,48,43,1.0,88.0
508,74.0,0,240,0.0,88.0
509,50.0,48,43,1.0,88.0
510,73.0,0,48,0.0,88.0
511,50.0,48,43,1.0,88.0
512,72.0,0,48,0.0,88.0
513,50.0,0,43,1.0,88.0
514,71.0,48,48,0.0,88.0
515,71.0,48,12,0.0,88.0
516,69.0,12,12,0.0,88.0
517,71.0,12,12,0.0,88.0
518,50.0,0,43,1.0,88.0
519,69.0,12,12,0.0,88.0
520,71.0,12,12,0.0,88.0
521,69.0,12,12,0.0,88.0
522,71.0,12,12,0.0,88.0
523,50.0,0,43,1.0,88.0
524,69.0,12,12,0.0,88.0
525,71.0,0,12,0.0,88.0
526,69.0,12,12,0.0,88.0
527,71.0,12,12,0.0,88.0
528,50.0,12,43,1.0,88.0
529,69.0,12,12,0.0,88.0
530,71.0,0,12,0.0,88.0
531,69.0,12,12,0.0,88.0
532,71.0,12,12,0.0,88.0
533,50.0,12,43,1.0,88.0
534,69.0,12,12,0.0,88.0
535,71.0,0,12,0.0,88.0
536,69.0,12,12,0.0,88.0
537,71.0,12,12,0.0,88.0
538,50.0,12,43,1.0,88.0
539,69.0,12,12,0.0,88.0
540,71.0,12,12,0.0,88.0
541,69.0,12,12,0.0,88.0
542,71.0,12,12,0.0,88.0
543,50.0,0,43,1.0,88.0
544,69.0,12,12,0.0,88.0
545,71.0,12,12,0.0,88.0
546,69.0,12,12,0.0,88.0
547,71.0,12,12,0.0,88.0
548,50.0,0,43,1.0,88.0
549,69.0,12,12,0.0,88.0
550,67.0,0,21,0.0,88.0
551,50.0,12,43,1.0,88.0
552,69.0,24,21,0.0,88.0
553,43.0,0,43,1.0,88.0
554,55.0,48,43,1.0,88.0
555,83.0,24,96,0.0,88.0
556,57.0,0,43,1.0,88.0
557,59.0,48,43,1.0,88.0
558,79.0,48,96,0.0,88.0
559,60.0,48,86,1.0,88.0
560,79.0,48,48,0.0,88.0
561,78.0,48,48,0.0,88.0
562,76.0,48,0,0.0,88.0
563,74.0,48,96,0.0,88.0
564,62.0,48,86,1.0,88.0
565,71.0,48,43,0.0,88.0
566,74.0,48,48,0.0,88.0
567,72.0,48,96,0.0,88.0
568,47.0,48,86,1.0,88.0
569,69.0,48,43,0.0,88.0
570,55.0,48,43,1.0,88.0
571,83.0,48,96,0.0,88.0
572,57.0,0,43,1.0,88.0
573,59.0,48,43,1.0,88.0
574,79.0,48,96,0.0,88.0
575,60.0,48,86,1.0,88.0
576,79.0,48,48,0.0,88.0
577,78.0,48,48,0.0,88.0
578,76.0,48,0,0.0,88.0
579,74.0,48,96,0.0,88.0
580,62.0,48,86,1.0,88.0
581,71.0,48,43,0.0,88.0
582,74.0,48,48,0.0,88.0
583,72.0,48,96,0.0,88.0
584,50.0,48,86,1.0,88.0
585,69.0,48,43,0.0,88.0
586,55.0,48,345,1.0,88.0
587,83.0,0,384,0.0,88.0
588,82.0,384,288,0.0,88.0
589,49.0,0,345,1.0,88.0
590,82.0,336,43,0.0,88.0
591,83.0,48,96,0.0,88.0
592,48.0,0,172,1.0,88.0
593,78.0,96,96,0.0,88.0
594,79.0,0,48,0.0,88.0
595,47.0,96,86,1.0,88.0
596,74.0,48,48,0.0,88.0
597,76.0,48,48,0.0,88.0
598,48.0,0,86,1.0,88.0
599,72.0,48,48,0.0,88.0
600,50.0,48,43,1.0,88.0
601,71.0,0,86,0.0,88.0
602,50.0,48,43,1.0,88.0
603,74.0,48,6,0.0,88.0
604,73.0,6,6,0.0,88.0
605,74.0,6,6,0.0,88.0
606,73.0,6,6,0.0,88.0
607,71.0,6,12,0.0,88.0
608,62.0,48,86,1.0,88.0
609,73.0,12,12,0.0,88.0
610,50.0,48,43,1.0,88.0
611,74.0,12,96,0.0,88.0
612,74.0,48,6,0.0,88.0
613,73.0,6,6,0.0,88.0
614,74.0,6,6,0.0,88.0
615,73.0,6,6,0.0,88.0
616,71.0,6,12,0.0,88.0
617,62.0,48,86,1.0,88.0
618,73.0,12,12,0.0,88.0
619,50.0,48,43,1.0,88.0
620,74.0,12,96,0.0,88.0
621,74.0,48,6,0.0,88.0
622,73.0,6,6,0.0,88.0
623,74.0,6,6,0.0,88.0
624,73.0,6,6,0.0,88.0
625,71.0,6,12,0.0,88.0
626,62.0,48,86,1.0,88.0
627,73.0,12,12,0.0,88.0
628,74.0,48,0,0.0,88.0
629,73.0,6,6,0.0,88.0
630,74.0,6,6,0.0,88.0
631,73.0,6,6,0.0,88.0
632,71.0,6,12,0.0,88.0
633,73.0,12,12,0.0,88.0
634,74.0,12,48,0.0,88.0
635,74.0,48,6,0.0,88.0
636,73.0,6,6,0.0,88.0
637,74.0,6,6,0.0,88.0
638,73.0,6,6,0.0,88.0
639,71.0,6,12,0.0,88.0
640,73.0,12,12,0.0,88.0
641,74.0,0,48,0.0,88.0
642,50.0,12,86,1.0,88.0
643,71.0,48,48,0.0,88.0
644,79.0,48,0,0.0,88.0
645,79.0,0,48,0.0,88.0
646,50.0,48,86,1.0,88.0
647,74.0,48,48,0.0,88.0
648,83.0,48,0,0.0,88.0
649,83.0,0,43,0.0,88.0
650,50.0,48,86,1.0,88.0
651,79.0,48,43,0.0,88.0
652,74.0,48,43,0.0,88.0
653,71.0,48,43,0.0,88.0
654,79.0,48,43,0.0,88.0
655,74.0,48,43,0.0,88.0
656,71.0,48,43,0.0,88.0
657,67.0,48,43,0.0,88.0
658,50.0,0,43,1.0,88.0
659,50.0,48,43,1.0,88.0
660,62.0,48,129,0.0,88.0
661,50.0,48,43,1.0,88.0
662,64.0,48,21,0.0,88.0
663,50.0,0,43,1.0,88.0
664,66.0,24,21,0.0,88.0
665,67.0,24,21,0.0,88.0
666,50.0,0,43,1.0,88.0
667,69.0,24,21,0.0,88.0
668,71.0,0,21,0.0,88.0
669,50.0,24,43,1.0,88.0
670,72.0,24,21,0.0,88.0
671,74.0,0,21,0.0,88.0
672,50.0,24,43,1.0,88.0
673,76.0,24,21,0.0,88.0
674,78.0,0,21,0.0,88.0
675,50.0,24,43,1.0,88.0
676,79.0,24,21,0.0,88.0
677,71.0,24,12,0.0,88.0
678,69.0,12,12,0.0,88.0
679,71.0,12,12,0.0,88.0
680,50.0,0,43,1.0,88.0
681,69.0,12,12,0.0,88.0
682,71.0,0,12,0.0,88.0
683,69.0,12,12,0.0,88.0
684,71.0,12,12,0.0,88.0
685,50.0,12,43,1.0,88.0
686,69.0,12,12,0.0,88.0
687,71.0,0,12,0.0,88.0
688,69.0,12,12,0.0,88.0
689,71.0,12,12,0.0,88.0
690,50.0,12,43,1.0,88.0
691,69.0,12,12,0.0,88.0
692,71.0,12,12,0.0,88.0
693,69.0,12,12,0.0,88.0
694,71.0,12,12,0.0,88.0
695,50.0,0,43,1.0,88.0
696,69.0,12,12,0.0,88.0
697,71.0,12,12,0.0,88.0
698,69.0,12,12,0.0,88.0
699,71.0,12,12,0.0,88.0
700,50.0,0,43,1.0,88.0
701,69.0,12,12,0.0,88.0
702,71.0,0,12,0.0,88.0
703,69.0,12,12,0.0,88.0
704,71.0,12,12,0.0,88.0
705,50.0,12,43,1.0,88.0
706,69.0,12,12,0.0,88.0
707,71.0,0,12,0.0,88.0
708,69.0,12,12,0.0,88.0
709,71.0,12,12,0.0,88.0
710,50.0,12,43,1.0,88.0
711,69.0,12,12,0.0,88.0
712,67.0,0,21,0.0,88.0
713,50.0,12,43,1.0,88.0
714,69.0,24,21,0.0,88.0
715,43.0,24,43,1.0,88.0
716,67.0,0,86,0.0,88.0
717,55.0,48,43,1.0,88.0
718,55.0,48,43,1.0,88.0
719,55.0,48,43,1.0,88.0
720,55.0,48,43,1.0,88.0
721,53.0,48,43,1.0,88.0
722,52.0,48,43,1.0,88.0
723,50.0,48,43,1.0,88.0
724,60.0,0,43,0.0,88.0
725,62.0,48,21,0.0,88.0
726,48.0,48,86,1.0,88.0
727,64.0,24,21,0.0,88.0
728,65.0,24,21,0.0,88.0
729,67.0,24,21,0.0,88.0
730,69.0,24,21,0.0,88.0
731,71.0,24,21,0.0,88.0
732,72.0,24,21,0.0,88.0
733,71.0,24,21,0.0,88.0
734,69.0,24,21,0.0,88.0
735,67.0,24,21,0.0,88.0
736,65.0,0,21,0.0,88.0
737,64.0,24,21,0.0,88.0
738,62.0,24,21,0.0,88.0
739,48.0,24,86,1.0,88.0
740,60.0,24,21,0.0,88.0
741,62.0,0,43,0.0,88.0
742,64.0,48,21,0.0,88.0
743,43.0,24,86,1.0,88.0
744,65.0,24,21,0.0,88.0
745,67.0,24,21,0.0,88.0
746,69.0,24,21,0.0,88.0
747,71.0,24,21,0.0,88.0
748,72.0,24,21,0.0,88.0
749,74.0,24,86,0.0,88.0
750,55.0,48,43,1.0,88.0
751,50.0,48,43,1.0,88.0
752,47.0,48,43,1.0,88.0
753,62.0,0,43,0.0,88.0
754,64.0,48,21,0.0,88.0
755,43.0,48,86,1.0,88.0
756,65.0,24,21,0.0,88.0
757,67.0,24,21,0.0,88.0
758,69.0,24,21,0.0,88.0
759,71.0,24,21,0.0,88.0
760,72.0,24,21,0.0,88.0
761,74.0,24,21,0.0,88.0
762,72.0,24,21,0.0,88.0
763,71.0,24,21,0.0,88.0
764,69.0,24,21,0.0,88.0
765,67.0,0,21,0.0,88.0
766,65.0,24,21,0.0,88.0
767,64.0,24,21,0.0,88.0
768,43.0,24,86,1.0,88.0
769,62.0,24,21,0.0,88.0
770,64.0,0,43,0.0,88.0
771,65.0,48,21,0.0,88.0
772,48.0,24,86,1.0,88.0
773,67.0,24,21,0.0,88.0
774,69.0,24,21,0.0,88.0
775,71.0,24,21,0.0,88.0
776,72.0,24,21,0.0,88.0
777,74.0,24,21,0.0,88.0
778,76.0,24,86,0.0,88.0
779,60.0,48,43,1.0,88.0
780,55.0,48,43,1.0,88.0
781,52.0,48,43,1.0,88.0
782,76.0,0,21,0.0,88.0
783,74.0,24,21,0.0,88.0
784,72.0,24,21,0.0,88.0
785,48.0,48,86,1.0,88.0
786,71.0,24,21,0.0,88.0
787,69.0,24,21,0.0,88.0
788,67.0,24,21,0.0,88.0
789,65.0,24,21,0.0,88.0
790,60.0,0,86,1.0,88.0
791,64.0,24,21,0.0,88.0
792,65.0,0,43,0.0,88.0
793,67.0,48,21,0.0,88.0
794,69.0,24,21,0.0,88.0
795,71.0,24,21,0.0,88.0
796,72.0,24,21,0.0,88.0
797,74.0,24,21,0.0,88.0
798,62.0,24,172,1.0,88.0
799,76.0,24,21,0.0,88.0
800,77.0,24,21,0.0,88.0
801,76.0,24,21,0.0,88.0
802,74.0,24,21,0.0,88.0
803,50.0,0,86,1.0,88.0
804,72.0,24,21,0.0,88.0
805,71.0,24,21,0.0,88.0
806,69.0,24,21,0.0,88.0
807,67.0,24,21,0.0,88.0
808,62.0,0,86,1.0,88.0
809,65.0,24,21,0.0,88.0
810,67.0,0,43,0.0,88.0
811,69.0,48,21,0.0,88.0
812,71.0,24,21,0.0,88.0
813,72.0,24,21,0.0,88.0
814,74.0,24,21,0.0,88.0
815,76.0,24,21,0.0,88.0
816,64.0,24,172,1.0,88.0
817,77.0,24,21,0.0,88.0
818,79.0,24,21,0.0,88.0
819,77.0,24,21,0.0,88.0
820,76.0,24,21,0.0,88.0
821,52.0,0,86,1.0,88.0
822,74.0,24,21,0.0,88.0
823,72.0,24,21,0.0,88.0
824,71.0,24,21,0.0,88.0
825,69.0,24,21,0.0,88.0
826,64.0,0,86,1.0,88.0
827,67.0,24,21,0.0,88.0
828,69.0,0,43,0.0,88.0
829,71.0,48,21,0.0,88.0
830,72.0,24,21,0.0,88.0
831,74.0,24,21,0.0,88.0
832,76.0,24,21,0.0,88.0
833,77.0,24,21,0.0,88.0
834,65.0,24,172,1.0,88.0
835,79.0,24,21,0.0,88.0
836,81.0,24,21,0.0,88.0
837,53.0,0,43,1.0,88.0
838,79.0,24,21,0.0,88.0
839,77.0,24,21,0.0,88.0
840,55.0,0,43,1.0,88.0
841,76.0,24,21,0.0,88.0
842,77.0,24,21,0.0,88.0
843,57.0,0,43,1.0,88.0
844,76.0,24,21,0.0,88.0
845,74.0,24,21,0.0,88.0
846,54.0,0,43,1.0,88.0
847,72.0,24,21,0.0,88.0
848,55.0,0,43,1.0,88.0
849,71.0,24,86,0.0,88.0
850,55.0,48,43,1.0,88.0
851,50.0,48,43,1.0,88.0
852,48.0,48,43,1.0,88.0
853,74.0,0,21,0.0,88.0
854,72.0,24,21,0.0,88.0
855,71.0,24,21,0.0,88.0
856,47.0,48,86,1.0,88.0
857,69.0,24,21,0.0,88.0
858,67.0,24,21,0.0,88.0
859,65.0,24,21,0.0,88.0
860,64.0,24,21,0.0,88.0
861,59.0,0,86,1.0,88.0
862,62.0,24,21,0.0,88.0
863,64.0,0,43,0.0,88.0
864,66.0,48,21,0.0,88.0
865,60.0,24,86,1.0,88.0
866,67.0,24,21,0.0,88.0
867,69.0,24,21,0.0,88.0
868,71.0,24,21,0.0,88.0
869,72.0,24,21,0.0,88.0
870,74.0,24,21,0.0,88.0
871,76.0,0,21,0.0,88.0
872,74.0,24,21,0.0,88.0
873,73.0,24,21,0.0,88.0
874,61.0,24,86,1.0,88.0
875,71.0,24,21,0.0,88.0
876,69.0,24,21,0.0,88.0
877,67.0,24,21,0.0,88.0
878,66.0,24,21,0.0,88.0
879,49.0,0,86,1.0,88.0
880,64.0,24,21,0.0,88.0
881,66.0,24,43,0.0,88.0
882,67.0,48,21,0.0,88.0
883,50.0,0,86,1.0,88.0
884,69.0,24,21,0.0,88.0
885,71.0,24,21,0.0,88.0
886,73.0,24,21,0.0,88.0
887,74.0,24,21,0.0,88.0
888,76.0,24,21,0.0,88.0
889,78.0,24,21,0.0,88.0
890,76.0,24,21,0.0,88.0
891,75.0,24,21,0.0,88.0
892,51.0,0,86,1.0,88.0
893,72.0,24,21,0.0,88.0
894,71.0,0,21,0.0,88.0
895,69.0,24,21,0.0,88.0
896,67.0,24,21,0.0,88.0
897,63.0,24,86,1.0,88.0
898,66.0,24,21,0.0,88.0
899,67.0,0,43,0.0,88.0
900,69.0,48,21,0.0,88.0
901,64.0,24,86,1.0,88.0
902,71.0,24,21,0.0,88.0
903,72.0,24,21,0.0,88.0
904,75.0,24,21,0.0,88.0
905,76.0,24,21,0.0,88.0
906,78.0,24,21,0.0,88.0
907,79.0,0,21,0.0,88.0
908,78.0,24,21,0.0,88.0
909,76.0,24,21,0.0,88.0
910,64.0,24,86,1.0,88.0
911,74.0,24,21,0.0,88.0
912,72.0,0,21,0.0,88.0
913,71.0,24,21,0.0,88.0
914,69.0,24,21,0.0,88.0
915,52.0,24,86,1.0,88.0
916,67.0,24,21,0.0,88.0
917,69.0,24,43,0.0,88.0
918,71.0,48,21,0.0,88.0
919,54.0,0,86,1.0,88.0
920,72.0,24,21,0.0,88.0
921,74.0,24,21,0.0,88.0
922,76.0,24,21,0.0,88.0
923,78.0,24,21,0.0,88.0
924,79.0,24,21,0.0,88.0
925,81.0,24,21,0.0,88.0
926,79.0,24,21,0.0,88.0
927,78.0,24,21,0.0,88.0
928,54.0,0,86,1.0,88.0
929,76.0,24,21,0.0,88.0
930,74.0,0,21,0.0,88.0
931,72.0,24,21,0.0,88.0
932,71.0,24,21,0.0,88.0
933,66.0,24,86,1.0,88.0
934,69.0,24,21,0.0,88.0
935,67.0,24,43,1.0,88.0
936,71.0,0,86,0.0,88.0
937,55.0,48,43,1.0,88.0
938,57.0,48,43,1.0,88.0
939,74.0,0,43,0.0,88.0
940,59.0,48,43,1.0,88.0
941,76.0,0,21,0.0,88.0
942,60.0,48,43,1.0,88.0
943,74.0,24,21,0.0,88.0
944,76.0,0,21,0.0,88.0
945,60.0,24,43,1.0,88.0
946,71.0,24,21,0.0,88.0
947,72.0,0,21,0.0,88.0
948,60.0,24,43,1.0,88.0
949,69.0,24,21,0.0,88.0
950,71.0,0,21,0.0,88.0
951,60.0,24,43,1.0,88.0
952,68.0,24,21,0.0,88.0
953,69.0,24,21,0.0,88.0
954,60.0,0,43,1.0,88.0
955,72.0,24,21,0.0,88.0
956,71.0,24,21,0.0,88.0
957,60.0,0,43,1.0,88.0
958,74.0,24,21,0.0,88.0
959,72.0,24,21,0.0,88.0
960,60.0,0,43,1.0,88.0
961,74.0,24,21,0.0,88.0
962,76.0,24,21,0.0,88.0
963,60.0,0,43,1.0,88.0
964,72.0,24,21,0.0,88.0
965,76.0,24,21,0.0,88.0
966,59.0,0,43,1.0,88.0
967,73.0,24,21,0.0,88.0
968,74.0,0,21,0.0,88.0
969,59.0,24,43,1.0,88.0
970,69.0,24,21,0.0,88.0
971,71.0,24,21,0.0,88.0
972,59.0,0,43,1.0,88.0
973,69.0,24,21,0.0,88.0
974,71.0,24,21,0.0,88.0
975,59.0,0,43,1.0,88.0
976,66.0,24,21,0.0,88.0
977,67.0,24,21,0.0,88.0
978,59.0,0,43,1.0,88.0
979,71.0,24,21,0.0,88.0
980,74.0,0,21,0.0,88.0
981,59.0,24,43,1.0,88.0
982,73.0,24,21,0.0,88.0
983,71.0,0,21,0.0,88.0
984,59.0,24,43,1.0,88.0
985,73.0,24,21,0.0,88.0
986,74.0,0,21,0.0,88.0
987,59.0,24,43,1.0,88.0
988,71.0,24,21,0.0,88.0
989,72.0,0,21,0.0,88.0
990,57.0,24,43,1.0,88.0
991,71.0,24,21,0.0,88.0
992,72.0,0,21,0.0,88.0
993,57.0,24,43,1.0,88.0
994,69.0,24,21,0.0,88.0
995,78.0,24,21,0.0,88.0
996,57.0,0,43,1.0,88.0
997,76.0,24,21,0.0,88.0
998,78.0,24,21,0.0,88.0
999,57.0,0,43,1.0,88.0
1000,72.0,24,21,0.0,88.0
1001,81.0,24,21,0.0,88.0
1002,50.0,0,43,1.0,88.0
1003,78.0,24,21,0.0,88.0
1004,81.0,0,21,0.0,88.0
1005,50.0,24,43,1.0,88.0
1006,78.0,24,21,0.0,88.0
1007,81.0,0,21,0.0,88.0
1008,50.0,24,43,1.0,88.0
1009,78.0,24,21,0.0,88.0
1010,74.0,24,21,0.0,88.0
1011,50.0,0,43,1.0,88.0
1012,72.0,24,21,0.0,88.0
1013,71.0,24,24,0.0,88.0
1014,55.0,0,43,1.0,88.0
1015,74.0,24,24,0.0,88.0
1016,72.0,0,24,0.0,88.0
1017,55.0,24,43,1.0,88.0
1018,71.0,24,24,0.0,88.0
1019,72.0,24,24,0.0,88.0
1020,57.0,0,43,1.0,88.0
1021,74.0,24,24,0.0,88.0
1022,76.0,24,24,0.0,88.0
1023,57.0,0,43,1.0,88.0
1024,78.0,24,24,0.0,88.0
1025,79.0,24,96,0.0,88.0
1026,77.0,96,48,0.0,88.0
1027,76.0,48,24,0.0,88.0
1028,59.0,0,172,1.0,88.0
1029,75.0,24,24,0.0,88.0
1030,60.0,24,43,1.0,88.0
1031,48.0,48,43,1.0,88.0
1032,76.0,0,96,0.0,88.0
1033,60.0,48,43,1.0,88.0
1034,72.0,24,21,0.0,88.0
1035,74.0,24,21,0.0,88.0
1036,59.0,0,43,1.0,88.0
1037,76.0,24,21,0.0,88.0
1038,78.0,0,48,0.0,88.0
1039,76.0,48,48,0.0,88.0
1040,74.0,48,48,0.0,88.0
1041,57.0,24,172,1.0,88.0
1042,73.0,48,48,0.0,88.0
1043,59.0,48,43,1.0,88.0
1044,47.0,48,43,1.0,88.0
1045,74.0,0,96,0.0,88.0
1046,59.0,48,43,1.0,88.0
1047,71.0,24,21,0.0,88.0
1048,72.0,24,21,0.0,88.0
1049,57.0,0,43,1.0,88.0
1050,74.0,24,21,0.0,88.0
1051,76.0,0,48,0.0,88.0
1052,74.0,48,48,0.0,88.0
1053,72.0,48,48,0.0,88.0
1054,55.0,24,172,1.0,88.0
1055,71.0,48,48,0.0,88.0
1056,57.0,0,43,1.0,88.0
1057,45.0,48,43,1.0,88.0
1058,72.0,48,96,0.0,88.0
1059,57.0,48,43,1.0,88.0
1060,69.0,24,21,0.0,88.0
1061,71.0,0,21,0.0,88.0
1062,55.0,24,43,1.0,88.0
1063,72.0,24,21,0.0,88.0
1064,74.0,24,48,0.0,88.0
1065,72.0,48,48,0.0,88.0
1066,71.0,48,48,0.0,88.0
1067,54.0,0,172,1.0,88.0
1068,69.0,48,48,0.0,88.0
1069,55.0,48,43,1.0,88.0
1070,71.0,0,72,0.0,88.0
1071,55.0,48,43,1.0,88.0
1072,67.0,24,24,0.0,88.0
1073,69.0,0,12,0.0,88.0
1074,67.0,12,12,0.0,88.0
1075,69.0,12,12,0.0,88.0
1076,55.0,24,43,1.0,88.0
1077,67.0,12,12,0.0,88.0
1078,69.0,12,12,0.0,88.0
1079,67.0,12,12,0.0,88.0
1080,69.0,12,12,0.0,88.0
1081,55.0,0,43,1.0,88.0
1082,67.0,12,12,0.0,88.0
1083,69.0,0,12,0.0,88.0
1084,67.0,12,12,0.0,88.0
1085,69.0,12,12,0.0,88.0
1086,55.0,12,43,1.0,88.0
1087,67.0,12,12,0.0,88.0
1088,66.0,0,21,0.0,88.0
1089,55.0,12,43,1.0,88.0
1090,67.0,24,21,0.0,88.0
1091,55.0,0,43,1.0,88.0
1092,71.0,24,72,0.0,88.0
1093,55.0,48,43,1.0,88.0
1094,67.0,24,24,0.0,88.0
1095,55.0,24,43,1.0,88.0
1096,72.0,0,72,0.0,88.0
1097,55.0,48,43,1.0,88.0
1098,69.0,24,24,0.0,88.0
1099,71.0,0,12,0.0,88.0
1100,69.0,12,12,0.0,88.0
1101,71.0,12,12,0.0,88.0
1102,55.0,24,43,1.0,88.0
1103,69.0,12,12,0.0,88.0
1104,71.0,12,12,0.0,88.0
1105,69.0,12,12,0.0,88.0
1106,71.0,12,12,0.0,88.0
1107,55.0,0,43,1.0,88.0
1108,69.0,12,12,0.0,88.0
1109,71.0,12,12,0.0,88.0
1110,69.0,12,12,0.0,88.0
1111,71.0,12,12,0.0,88.0
1112,55.0,0,43,1.0,88.0
1113,69.0,12,12,0.0,88.0
1114,68.0,12,21,0.0,88.0
1115,55.0,0,43,1.0,88.0
1116,69.0,24,21,0.0,88.0
1117,55.0,0,43,1.0,88.0
1118,72.0,24,72,0.0,88.0
1119,55.0,48,43,1.0,88.0
1120,69.0,24,24,0.0,88.0
1121,55.0,0,43,1.0,88.0
1122,74.0,24,72,0.0,88.0
1123,55.0,48,43,1.0,88.0
1124,71.0,24,24,0.0,88.0
1125,72.0,24,12,0.0,88.0
1126,71.0,12,12,0.0,88.0
1127,72.0,12,12,0.0,88.0
1128,55.0,0,43,1.0,88.0
1129,71.0,12,12,0.0,88.0
1130,72.0,12,12,0.0,88.0
1131,71.0,12,12,0.0,88.0
1132,72.0,12,12,0.0,88.0
1133,55.0,0,43,1.0,88.0
1134,71.0,12,12,0.0,88.0
1135,72.0,12,12,0.0,88.0
1136,71.0,12,12,0.0,88.0
1137,72.0,12,12,0.0,88.0
1138,55.0,0,43,1.0,88.0
1139,71.0,12,12,0.0,88.0
1140,70.0,12,21,0.0,88.0
1141,55.0,0,43,1.0,88.0
1142,71.0,24,21,0.0,88.0
1143,55.0,0,43,1.0,88.0
1144,74.0,24,72,0.0,88.0
1145,55.0,48,43,1.0,88.0
1146,71.0,24,24,0.0,88.0
1147,55.0,24,43,1.0,88.0
1148,76.0,0,72,0.0,88.0
1149,55.0,48,43,1.0,88.0
1150,72.0,24,24,0.0,88.0
1151,74.0,24,12,0.0,88.0
1152,72.0,12,12,0.0,88.0
1153,74.0,12,12,0.0,88.0
1154,55.0,0,43,1.0,88.0
1155,72.0,12,12,0.0,88.0
1156,74.0,12,12,0.0,88.0
1157,72.0,12,12,0.0,88.0
1158,71.0,12,10,0.0,88.0
1159,55.0,0,43,1.0,88.0
1160,72.0,12,10,0.0,88.0
1161,55.0,0,43,1.0,88.0
1162,78.0,12,72,0.0,88.0
1163,55.0,48,43,1.0,88.0
1164,74.0,24,24,0.0,88.0
1165,76.0,24,12,0.0,88.0
1166,74.0,12,12,0.0,88.0
1167,76.0,12,12,0.0,88.0
1168,55.0,0,43,1.0,88.0
1169,74.0,12,12,0.0,88.0
1170,76.0,12,12,0.0,88.0
1171,74.0,12,12,0.0,88.0
1172,72.0,12,10,0.0,88.0
1173,55.0,0,43,1.0,88.0
1174,74.0,12,10,0.0,88.0
1175,79.0,12,21,0.0,88.0
1176,55.0,0,43,1.0,88.0
1177,76.0,24,21,0.0,88.0
1178,78.0,24,21,0.0,88.0
1179,55.0,0,43,1.0,88.0
1180,74.0,24,21,0.0,88.0
1181,78.0,24,21,0.0,88.0
1182,55.0,0,43,1.0,88.0
1183,76.0,24,21,0.0,88.0
1184,78.0,0,21,0.0,88.0
1185,55.0,24,43,1.0,88.0
1186,76.0,24,21,0.0,88.0
1187,81.0,24,21,0.0,88.0
1188,55.0,0,43,1.0,88.0
1189,78.0,24,21,0.0,88.0
1190,79.0,0,21,0.0,88.0
1191,55.0,24,43,1.0,88.0
1192,78.0,24,21,0.0,88.0
1193,79.0,24,21,0.0,88.0
1194,55.0,0,43,1.0,88.0
1195,78.0,24,21,0.0,88.0
1196,79.0,24,21,0.0,88.0
1197,55.0,0,43,1.0,88.0
1198,78.0,24,21,0.0,88.0
1199,83.0,24,86,0.0,88.0
1200,55.0,0,86,1.0,88.0
1201,52.0,0,43,1.0,88.0
1202,52.0,48,43,1.0,88.0
1203,52.0,48,43,1.0,88.0
1204,59.0,192,172,0.0,88.0
1205,52.0,48,43,1.0,88.0
1206,48.0,0,43,1.0,88.0
1207,48.0,48,43,1.0,88.0
1208,48.0,48,43,1.0,88.0
1209,48.0,48,43,1.0,88.0
1210,48.0,48,43,1.0,88.0
1211,48.0,48,43,1.0,88.0
1212,48.0,48,43,1.0,88.0
1213,57.0,48,345,0.0,88.0
1214,48.0,48,43,1.0,88.0
1215,49.0,0,43,1.0,88.0
1216,49.0,48,43,1.0,88.0
1217,49.0,48,43,1.0,88.0
1218,49.0,48,43,1.0,88.0
1219,49.0,48,43,1.0,88.0
1220,79.0,48,240,0.0,88.0
1221,49.0,48,43,1.0,88.0
1222,78.0,0,0,0.0,88.0
1223,49.0,48,43,1.0,88.0
1224,49.0,0,43,1.0,88.0
1225,76.0,48,43,0.0,88.0
1226,50.0,48,43,1.0,88.0
1227,50.0,48,43,1.0,88.0
1228,50.0,48,43,1.0,88.0
1229,50.0,48,43,1.0,88.0
1230,50.0,48,43,1.0,88.0
1231,74.0,0,240,0.0,88.0
1232,50.0,48,43,1.0,88.0
1233,73.0,0,48,0.0,88.0
1234,50.0,0,43,1.0,88.0
1235,72.0,48,48,0.0,88.0
1236,50.0,48,43,1.0,88.0
1237,71.0,0,48,0.0,88.0
1238,71.0,0,12,0.0,88.0
1239,69.0,12,12,0.0,88.0
1240,71.0,12,12,0.0,88.0
1241,50.0,48,43,1.0,88.0
1242,69.0,12,12,0.0,88.0
1243,71.0,0,12,0.0,88.0
1244,69.0,12,12,0.0,88.0
1245,71.0,12,12,0.0,88.0
1246,50.0,12,43,1.0,88.0
1247,69.0,12,12,0.0,88.0
1248,71.0,12,12,0.0,88.0
1249,69.0,12,12,0.0,88.0
1250,71.0,12,12,0.0,88.0
1251,50.0,0,43,1.0,88.0
1252,69.0,12,12,0.0,88.0
1253,71.0,0,12,0.0,88.0
1254,69.0,12,12,0.0,88.0
1255,71.0,12,12,0.0,88.0
1256,50.0,12,43,1.0,88.0
1257,69.0,12,12,0.0,88.0
1258,71.0,12,12,0.0,88.0
1259,69.0,12,12,0.0,88.0
1260,71.0,12,12,0.0,88.0
1261,50.0,0,43,1.0,88.0
1262,69.0,12,12,0.0,88.0
1263,71.0,0,12,0.0,88.0
1264,69.0,12,12,0.0,88.0
1265,71.0,12,12,0.0,88.0
1266,50.0,12,43,1.0,88.0
1267,69.0,12,12,0.0,88.0
1268,71.0,0,12,0.0,88.0
1269,69.0,12,12,0.0,88.0
1270,71.0,12,12,0.0,88.0
1271,50.0,12,43,1.0,88.0
1272,69.0,12,12,0.0,88.0
1273,67.0,0,21,0.0,88.0
1274,50.0,12,43,1.0,88.0
1275,69.0,24,21,0.0,88.0
1276,43.0,0,43,1.0,88.0
1277,55.0,48,43,1.0,88.0
1278,83.0,24,96,0.0,88.0
1279,57.0,48,43,1.0,88.0
1280,59.0,48,43,1.0,88.0
1281,79.0,0,96,0.0,88.0
1282,60.0,48,86,1.0,88.0
1283,79.0,48,48,0.0,88.0
1284,78.0,48,48,0.0,88.0
1285,76.0,48,48,0.0,88.0
1286,76.0,48,48,0.0,88.0
1287,74.0,48,96,0.0,88.0
1288,62.0,48,86,1.0,88.0
1289,71.0,48,43,0.0,88.0
1290,74.0,48,48,0.0,88.0
1291,72.0,48,96,0.0,88.0
1292,47.0,48,86,1.0,88.0
1293,69.0,48,43,0.0,88.0
1294,55.0,48,43,1.0,88.0
1295,83.0,48,96,0.0,88.0
1296,57.0,0,43,1.0,88.0
1297,59.0,48,43,1.0,88.0
1298,79.0,48,96,0.0,88.0
1299,60.0,48,86,1.0,88.0
1300,79.0,48,48,0.0,88.0
1301,78.0,48,48,0.0,88.0
1302,76.0,48,0,0.0,88.0
1303,74.0,48,96,0.0,88.0
1304,62.0,48,86,1.0,88.0
1305,71.0,48,43,0.0,88.0
1306,74.0,48,48,0.0,88.0
1307,72.0,48,96,0.0,88.0
1308,50.0,48,86,1.0,88.0
1309,69.0,48,43,0.0,88.0
1310,55.0,0,345,1.0,88.0
1311,83.0,48,384,0.0,88.0
1312,82.0,384,288,0.0,88.0
1313,49.0,0,345,1.0,88.0
1314,82.0,336,43,0.0,88.0
1315,83.0,0,96,0.0,88.0
1316,48.0,48,172,1.0,88.0
1317,78.0,96,96,0.0,88.0
1318,79.0,0,48,0.0,88.0
1319,47.0,96,86,1.0,88.0
1320,74.0,48,48,0.0,88.0
1321,76.0,0,48,0.0,88.0
1322,48.0,48,86,1.0,88.0
1323,72.0,48,48,0.0,88.0
1324,50.0,48,43,1.0,88.0
1325,71.0,0,86,0.0,88.0
1326,50.0,48,43,1.0,88.0
1327,74.0,48,6,0.0,88.0
1328,73.0,6,6,0.0,88.0
1329,74.0,6,6,0.0,88.0
1330,73.0,6,6,0.0,88.0
1331,71.0,6,12,0.0,88.0
1332,62.0,48,86,1.0,88.0
1333,73.0,12,12,0.0,88.0
1334,50.0,48,43,1.0,88.0
1335,74.0,12,96,0.0,88.0
1336,74.0,48,6,0.0,88.0
1337,73.0,6,6,0.0,88.0
1338,74.0,6,6,0.0,88.0
1339,73.0,6,6,0.0,88.0
1340,71.0,6,12,0.0,88.0
1341,62.0,48,86,1.0,88.0
1342,73.0,12,12,0.0,88.0
1343,50.0,48,43,1.0,88.0
1344,74.0,12,96,0.0,88.0
1345,74.0,48,6,0.0,88.0
1346,73.0,6,6,0.0,88.0
1347,74.0,6,6,0.0,88.0
1348,73.0,6,6,0.0,88.0
1349,71.0,6,12,0.0,88.0
1350,62.0,48,86,1.0,88.0
1351,73.0,12,12,0.0,88.0
1352,74.0,12,48,0.0,88.0
1353,74.0,48,6,0.0,88.0
1354,73.0,6,6,0.0,88.0
1355,74.0,6,6,0.0,88.0
1356,73.0,6,6,0.0,88.0
1357,71.0,6,12,0.0,88.0
1358,73.0,12,12,0.0,88.0
1359,74.0,12,48,0.0,88.0
1360,74.0,48,6,0.0,88.0
1361,73.0,6,6,0.0,88.0
1362,74.0,6,6,0.0,88.0
1363,73.0,6,6,0.0,88.0
1364,71.0,6,12,0.0,88.0
1365,73.0,12,12,0.0,88.0
1366,74.0,0,48,0.0,88.0
1367,50.0,12,86,1.0,88.0
1368,71.0,48,48,0.0,88.0
1369,79.0,48,48,0.0,88.0
1370,79.0,48,24,0.0,88.0
1371,79.0,0,48,0.0,88.0
1372,50.0,48,86,1.0,88.0
1373,74.0,48,48,0.0,88.0
1374,83.0,48,48,0.0,88.0
1375,83.0,48,24,0.0,88.0
1376,83.0,0,43,0.0,88.0
1377,50.0,48,86,1.0,88.0
1378,79.0,48,43,0.0,88.0
1379,74.0,48,43,0.0,88.0
1380,71.0,48,43,0.0,88.0
1381,79.0,48,43,0.0,88.0
1382,74.0,48,43,0.0,88.0
1383,71.0,48,43,0.0,88.0
1384,67.0,48,43,0.0,88.0
1385,50.0,48,43,1.0,88.0
1386,50.0,48,43,1.0,88.0
1387,62.0,0,129,0.0,88.0
1388,50.0,48,43,1.0,88.0
1389,64.0,48,21,0.0,88.0
1390,50.0,0,43,1.0,88.0
1391,66.0,24,21,0.0,88.0
1392,67.0,24,21,0.0,88.0
1393,50.0,0,43,1.0,88.0
1394,69.0,24,21,0.0,88.0
1395,71.0,0,21,0.0,88.0
1396,50.0,24,43,1.0,88.0
1397,72.0,24,21,0.0,88.0
1398,74.0,24,21,0.0,88.0
1399,50.0,0,43,1.0,88.0
1400,76.0,24,21,0.0,88.0
1401,78.0,0,21,0.0,88.0
1402,50.0,24,43,1.0,88.0
1403,79.0,24,21,0.0,88.0
1404,71.0,24,12,0.0,88.0
1405,69.0,12,12,0.0,88.0
1406,71.0,12,12,0.0,88.0
1407,50.0,0,43,1.0,88.0
1408,69.0,12,12,0.0,88.0
1409,71.0,0,12,0.0,88.0
1410,69.0,12,12,0.0,88.0
1411,71.0,12,12,0.0,88.0
1412,50.0,12,43,1.0,88.0
1413,69.0,12,12,0.0,88.0
1414,71.0,0,12,0.0,88.0
1415,69.0,12,12,0.0,88.0
1416,71.0,12,12,0.0,88.0
1417,50.0,12,43,1.0,88.0
1418,69.0,12,12,0.0,88.0
1419,71.0,0,12,0.0,88.0
1420,69.0,12,12,0.0,88.0
1421,71.0,12,12,0.0,88.0
1422,50.0,12,43,1.0,88.0
1423,69.0,12,12,0.0,88.0
1424,71.0,0,12,0.0,88.0
1425,69.0,12,12,0.0,88.0
1426,71.0,12,12,0.0,88.0
1427,50.0,12,43,1.0,88.0
1428,69.0,12,12,0.0,88.0
1429,71.0,0,12,0.0,88.0
1430,69.0,12,12,0.0,88.0
1431,71.0,12,12,0.0,88.0
1432,50.0,12,43,1.0,88.0
1433,69.0,12,12,0.0,88.0
1434,71.0,0,12,0.0,88.0
1435,69.0,12,12,0.0,88.0
1436,71.0,12,12,0.0,88.0
1437,50.0,12,43,1.0,88.0
1438,69.0,12,12,0.0,88.0
1439,67.0,0,21,0.0,88.0
1440,50.0,12,43,1.0,88.0
1441,69.0,24,21,0.0,88.0
1442,43.0,24,43,1.0,88.0
1443,67.0,0,86,0.0,88.0
1444,55.0,48,43,1.0,88.0
1445,55.0,48,43,1.0,88.0
1446,55.0,48,43,1.0,88.0
1447,55.0,48,48,1.0,88.0
1448,56.0,48,48,1.0,88.0
1449,59.0,48,24,1.0,88.0
1450,56.0,48,24,1.0,88.0
1451,57.0,48,43,1.0,88.0
1452,55.0,48,43,1.0,88.0
1453,53.0,48,43,1.0,88.0
1454,51.0,48,43,1.0,88.0
1455,50.0,48,43,1.0,88.0
1456,43.0,48,43,1.0,88.0
1457,45.0,48,43,1.0,88.0
1458,47.0,48,43,1.0,88.0
1459,51.0,0,43,1.0,88.0
1460,51.0,48,43,1.0,88.0
1461,51.0,48,43,1.0,88.0
1462,63.0,48,172,0.0,88.0
1463,51.0,48,43,1.0,88.0
1464,51.0,48,43,1.0,88.0
1465,67.0,0,86,0.0,88.0
1466,51.0,48,43,1.0,88.0
1467,51.0,48,43,1.0,88.0
1468,70.0,0,86,0.0,88.0
1469,51.0,48,43,1.0,88.0
1470,51.0,0,43,1.0,88.0
1471,51.0,48,43,1.0,88.0
1472,51.0,48,43,1.0,88.0
1473,51.0,48,43,1.0,88.0
1474,51.0,48,43,1.0,88.0
1475,75.0,48,235,0.0,88.0
1476,79.0,48,21,0.0,88.0
1477,51.0,0,43,1.0,88.0
1478,77.0,24,21,0.0,88.0
1479,75.0,24,21,0.0,88.0
1480,51.0,0,43,1.0,88.0
1481,74.0,24,21,0.0,88.0
1482,72.0,0,21,0.0,88.0
1483,51.0,24,43,1.0,88.0
1484,70.0,24,21,0.0,88.0
1485,68.0,0,21,0.0,88.0
1486,53.0,24,43,1.0,88.0
1487,70.0,24,21,0.0,88.0
1488,72.0,0,21,0.0,88.0
1489,53.0,24,43,1.0,88.0
1490,70.0,24,21,0.0,88.0
1491,53.0,0,43,1.0,88.0
1492,68.0,24,86,0.0,88.0
1493,53.0,48,43,1.0,88.0
1494,53.0,48,43,1.0,88.0
1495,72.0,0,21,0.0,88.0
1496,55.0,48,43,1.0,88.0
1497,70.0,24,21,0.0,88.0
1498,68.0,0,21,0.0,88.0
1499,50.0,24,43,1.0,88.0
1500,67.0,24,21,0.0,88.0
1501,65.0,0,21,0.0,88.0
1502,53.0,24,43,1.0,88.0
1503,63.0,24,21,0.0,88.0
1504,46.0,24,43,1.0,88.0
1505,46.0,48,43,1.0,88.0
1506,46.0,48,43,1.0,88.0
1507,62.0,0,172,0.0,88.0
1508,46.0,48,43,1.0,88.0
1509,46.0,48,43,1.0,88.0
1510,46.0,48,43,1.0,88.0
1511,46.0,48,43,1.0,88.0
1512,46.0,48,43,1.0,88.0
1513,80.0,0,213,0.0,88.0
1514,46.0,48,43,1.0,88.0
1515,79.0,24,21,0.0,88.0
1516,77.0,24,21,0.0,88.0
1517,46.0,0,43,1.0,88.0
1518,79.0,24,21,0.0,88.0
1519,77.0,0,21,0.0,88.0
1520,46.0,24,43,1.0,88.0
1521,75.0,24,21,0.0,88.0
1522,74.0,24,21,0.0,88.0
1523,46.0,0,43,1.0,88.0
1524,75.0,24,21,0.0,88.0
1525,74.0,0,21,0.0,88.0
1526,46.0,24,43,1.0,88.0
1527,75.0,24,21,0.0,88.0
1528,77.0,0,21,0.0,88.0
1529,46.0,24,43,1.0,88.0
1530,75.0,24,21,0.0,88.0
1531,74.0,0,21,0.0,88.0
1532,46.0,24,43,1.0,88.0
1533,72.0,24,21,0.0,88.0
1534,70.0,24,21,0.0,88.0
1535,46.0,0,43,1.0,88.0
1536,68.0,24,21,0.0,88.0
1537,67.0,24,21,0.0,88.0
1538,51.0,0,43,1.0,88.0
1539,68.0,24,21,0.0,88.0
1540,70.0,0,21,0.0,88.0
1541,51.0,24,43,1.0,88.0
1542,68.0,24,21,0.0,88.0
1543,51.0,24,43,1.0,88.0
1544,67.0,0,86,0.0,88.0
1545,51.0,48,43,1.0,88.0
1546,51.0,48,86,1.0,88.0
1547,70.0,48,43,0.0,88.0
1548,67.0,48,43,0.0,88.0
1549,63.0,48,43,0.0,88.0
1550,55.0,0,48,1.0,88.0
1551,72.0,48,43,0.0,88.0
1552,64.0,48,43,0.0,88.0
1553,56.0,0,96,1.0,88.0
1554,65.0,48,43,0.0,88.0
1555,73.0,0,43,0.0,88.0
1556,57.0,48,48,1.0,88.0
1557,74.0,48,43,0.0,88.0
1558,66.0,48,43,0.0,88.0
1559,58.0,0,96,1.0,88.0
1560,67.0,48,43,0.0,88.0
1561,74.0,48,43,0.0,88.0
1562,59.0,0,48,1.0,88.0
1563,75.0,0,43,0.0,88.0
1564,67.0,48,43,0.0,88.0
1565,60.0,48,96,1.0,88.0
1566,68.0,48,43,0.0,88.0
1567,76.0,0,43,0.0,88.0
1568,61.0,48,48,1.0,88.0
1569,77.0,0,43,0.0,88.0
1570,69.0,48,43,0.0,88.0
1571,62.0,48,96,1.0,88.0
1572,70.0,48,43,0.0,88.0
1573,50.0,0,43,1.0,88.0
1574,77.0,48,43,0.0,88.0
1575,78.0,0,48,0.0,88.0
1576,51.0,48,96,1.0,88.0
1577,79.0,48,48,0.0,88.0
1578,77.0,48,48,0.0,88.0
1579,55.0,0,96,1.0,88.0
1580,75.0,48,48,0.0,88.0
1581,74.0,0,48,0.0,88.0
1582,72.0,48,48,0.0,88.0
1583,51.0,48,96,1.0,88.0
1584,70.0,0,48,0.0,88.0
1585,48.0,48,96,1.0,88.0
1586,69.0,48,48,0.0,88.0
1587,46.0,48,43,1.0,88.0
1588,46.0,48,43,1.0,88.0
1589,68.0,0,96,0.0,88.0
1590,46.0,48,43,1.0,88.0
1591,46.0,48,43,1.0,88.0
1592,70.0,0,96,0.0,88.0
1593,58.0,48,43,1.0,88.0
1594,58.0,48,43,1.0,88.0
1595,70.0,24,21,0.0,88.0
1596,72.0,0,12,0.0,88.0
1597,70.0,12,12,0.0,88.0
1598,72.0,12,12,0.0,88.0
1599,58.0,24,43,1.0,88.0
1600,70.0,12,12,0.0,88.0
1601,72.0,0,12,0.0,88.0
1602,70.0,12,12,0.0,88.0
1603,68.0,12,10,0.0,88.0
1604,58.0,12,43,1.0,88.0
1605,70.0,12,10,0.0,88.0
1606,55.0,12,43,1.0,88.0
1607,55.0,48,43,1.0,88.0
1608,73.0,0,96,0.0,88.0
1609,53.0,48,43,1.0,88.0
1610,53.0,48,43,1.0,88.0
1611,70.0,0,96,0.0,88.0
1612,52.0,48,43,1.0,88.0
1613,52.0,48,43,1.0,88.0
1614,70.0,24,21,0.0,88.0
1615,72.0,0,12,0.0,88.0
1616,70.0,12,12,0.0,88.0
1617,72.0,12,12,0.0,88.0
1618,50.0,24,43,1.0,88.0
1619,70.0,12,12,0.0,88.0
1620,72.0,0,12,0.0,88.0
1621,70.0,12,12,0.0,88.0
1622,68.0,12,10,0.0,88.0
1623,50.0,12,43,1.0,88.0
1624,70.0,12,10,0.0,88.0
1625,79.0,0,48,0.0,88.0
1626,77.0,48,48,0.0,88.0
1627,76.0,48,48,0.0,88.0
1628,74.0,48,48,0.0,88.0
1629,72.0,48,48,0.0,88.0
1630,70.0,48,48,0.0,88.0
1631,68.0,48,48,0.0,88.0
1632,48.0,12,345,1.0,88.0
1633,67.0,48,48,0.0,88.0
1634,53.0,48,48,1.0,88.0
1635,67.0,48,96,0.0,88.0
1636,60.0,48,48,1.0,88.0
1637,68.0,0,96,0.0,88.0
1638,58.0,48,48,1.0,88.0
1639,56.0,48,48,1.0,88.0
1640,68.0,24,21,0.0,88.0
1641,55.0,48,48,1.0,88.0
1642,70.0,0,12,0.0,88.0
1643,68.0,12,12,0.0,88.0
1644,70.0,12,12,0.0,88.0
1645,53.0,24,48,1.0,88.0
1646,68.0,12,12,0.0,88.0
1647,70.0,0,12,0.0,88.0
1648,68.0,12,12,0.0,88.0
1649,67.0,12,10,0.0,88.0
1650,68.0,12,10,0.0,88.0
1651,51.0,12,48,1.0,88.0
1652,48.0,0,43,1.0,88.0
1653,53.0,48,43,1.0,88.0
1654,72.0,12,96,0.0,88.0
1655,56.0,0,43,1.0,88.0
1656,55.0,48,43,1.0,88.0
1657,68.0,48,96,0.0,88.0
1658,53.0,48,43,1.0,88.0
1659,51.0,48,43,1.0,88.0
1660,68.0,24,21,0.0,88.0
1661,70.0,0,12,0.0,88.0
1662,68.0,12,12,0.0,88.0
1663,70.0,12,12,0.0,88.0
1664,50.0,24,43,1.0,88.0
1665,68.0,12,12,0.0,88.0
1666,70.0,12,12,0.0,88.0
1667,68.0,12,12,0.0,88.0
1668,67.0,12,10,0.0,88.0
1669,46.0,0,43,1.0,88.0
1670,68.0,12,10,0.0,88.0
1671,77.0,12,48,0.0,88.0
1672,75.0,48,48,0.0,88.0
1673,74.0,48,48,0.0,88.0
1674,72.0,48,48,0.0,88.0
1675,70.0,48,48,0.0,88.0
1676,68.0,48,48,0.0,88.0
1677,67.0,48,48,0.0,88.0
1678,46.0,0,345,1.0,88.0
1679,65.0,48,48,0.0,88.0
1680,51.0,48,43,1.0,88.0
1681,51.0,48,43,1.0,88.0
1682,66.0,0,96,0.0,88.0
1683,51.0,48,43,1.0,88.0
1684,51.0,48,43,1.0,88.0
1685,67.0,0,96,0.0,88.0
1686,51.0,48,43,1.0,88.0
1687,51.0,48,43,1.0,88.0
1688,51.0,48,43,1.0,88.0
1689,51.0,48,43,1.0,88.0
