,note,step,duration,channel,velocity
0,58.0,240,239,2.0,0.0
1,53.0,120,239,2.0,0.0
2,62.0,120,119,2.0,0.0
3,58.0,120,119,2.0,0.0
4,53.0,120,119,2.0,0.0
5,50.0,240,119,2.0,0.0
6,58.0,240,239,13.0,0.0
7,46.0,120,479,2.0,0.0
8,53.0,0,239,13.0,0.0
9,62.0,120,119,13.0,0.0
10,58.0,120,119,13.0,0.0
11,53.0,120,119,13.0,0.0
12,50.0,120,119,13.0,0.0
13,46.0,30,1139,13.0,0.0
14,34.0,0,119,7.0,0.0
15,58.0,60,59,2.0,0.0
16,62.0,60,59,2.0,0.0
17,68.0,0,119,3.0,0.0
18,62.0,60,119,5.0,0.0
19,65.0,0,119,4.0,0.0
20,65.0,0,59,2.0,0.0
21,34.0,60,119,7.0,0.0
22,68.0,60,59,2.0,0.0
23,65.0,0,59,2.0,0.0
24,65.0,60,119,4.0,0.0
25,62.0,0,119,5.0,0.0
26,62.0,60,59,2.0,0.0
27,68.0,0,119,3.0,0.0
28,56.0,0,59,2.0,0.0
29,34.0,0,119,7.0,0.0
30,55.0,60,59,2.0,0.0
31,58.0,60,59,2.0,0.0
32,63.0,0,119,4.0,0.0
33,58.0,0,119,5.0,0.0
34,63.0,60,59,2.0,0.0
35,66.0,0,119,3.0,0.0
36,66.0,60,59,2.0,0.0
37,34.0,0,119,7.0,0.0
38,65.0,60,59,2.0,0.0
39,60.0,60,59,2.0,0.0
40,63.0,120,119,4.0,0.0
41,65.0,0,119,3.0,0.0
42,65.0,60,59,2.0,0.0
43,60.0,0,119,5.0,0.0
44,63.0,0,59,2.0,0.0
45,62.0,0,119,4.0,0.0
46,62.0,60,119,2.0,0.0
47,34.0,0,119,7.0,0.0
48,58.0,0,119,5.0,0.0
49,65.0,0,119,3.0,0.0
50,50.0,30,29,13.0,0.0
51,48.0,120,29,13.0,0.0
52,46.0,240,119,13.0,0.0
53,34.0,60,119,7.0,0.0
54,65.0,30,179,2.0,0.0
55,65.0,0,119,3.0,0.0
56,58.0,0,119,5.0,0.0
57,62.0,0,119,4.0,0.0
58,67.0,30,29,2.0,0.0
59,65.0,60,29,2.0,0.0
60,63.0,60,59,2.0,0.0
61,34.0,0,119,7.0,0.0
62,62.0,60,59,2.0,0.0
63,65.0,60,119,3.0,0.0
64,62.0,0,119,4.0,0.0
65,60.0,60,59,2.0,0.0
66,58.0,0,119,5.0,0.0
67,58.0,0,59,2.0,0.0
68,58.0,60,59,2.0,0.0
69,51.0,0,359,13.0,0.0
70,36.0,60,119,7.0,0.0
71,57.0,0,59,2.0,0.0
72,57.0,0,119,5.0,0.0
73,65.0,0,119,3.0,0.0
74,60.0,60,59,2.0,0.0
75,63.0,120,119,4.0,0.0
76,58.0,0,59,2.0,0.0
77,57.0,0,239,2.0,0.0
78,36.0,120,119,7.0,0.0
79,63.0,0,119,4.0,0.0
80,48.0,0,119,13.0,0.0
81,65.0,120,119,3.0,0.0
82,57.0,0,119,5.0,0.0
83,45.0,60,119,13.0,0.0
84,29.0,0,119,7.0,0.0
85,63.0,30,179,2.0,0.0
86,60.0,0,119,13.0,0.0
87,60.0,0,119,4.0,0.0
88,57.0,60,119,5.0,0.0
89,65.0,0,119,3.0,0.0
90,65.0,30,29,2.0,0.0
91,63.0,0,29,2.0,0.0
92,62.0,60,59,2.0,0.0
93,57.0,60,119,13.0,0.0
94,29.0,0,119,7.0,0.0
95,60.0,0,59,2.0,0.0
96,57.0,0,119,5.0,0.0
97,65.0,0,119,3.0,0.0
98,51.0,0,119,13.0,0.0
99,58.0,60,59,2.0,0.0
100,60.0,60,119,4.0,0.0
101,57.0,0,59,2.0,0.0
102,58.0,0,119,5.0,0.0
103,65.0,0,119,3.0,0.0
104,62.0,0,119,4.0,0.0
105,34.0,0,119,7.0,0.0
106,50.0,60,119,13.0,0.0
107,58.0,60,59,2.0,0.0
108,46.0,0,59,2.0,0.0
109,50.0,60,59,2.0,0.0
110,53.0,60,119,13.0,0.0
111,53.0,0,59,2.0,0.0
112,50.0,60,59,2.0,0.0
113,53.0,90,59,2.0,0.0
114,58.0,0,119,2.0,0.0
115,38.0,0,119,7.0,0.0
116,65.0,0,119,3.0,0.0
117,58.0,120,119,4.0,0.0
118,50.0,0,119,5.0,0.0
119,53.0,30,89,13.0,0.0
120,46.0,0,29,13.0,0.0
121,39.0,0,119,7.0,0.0
122,58.0,0,119,4.0,0.0
123,55.0,0,119,13.0,0.0
124,67.0,0,119,3.0,0.0
125,51.0,60,119,5.0,0.0
126,51.0,0,59,2.0,0.0
127,43.0,60,119,13.0,0.0
128,55.0,60,59,2.0,0.0
129,60.0,0,59,2.0,0.0
130,53.0,60,59,2.0,0.0
131,57.0,90,59,2.0,0.0
132,69.0,0,119,3.0,0.0
133,62.0,0,119,4.0,0.0
134,53.0,0,119,5.0,0.0
135,62.0,0,119,2.0,0.0
136,41.0,0,119,7.0,0.0
137,57.0,30,89,13.0,0.0
138,50.0,120,29,13.0,0.0
139,70.0,0,119,3.0,0.0
140,62.0,0,119,4.0,0.0
141,55.0,0,119,5.0,0.0
142,43.0,0,119,7.0,0.0
143,58.0,0,119,13.0,0.0
144,55.0,60,59,2.0,0.0
145,46.0,0,119,13.0,0.0
146,58.0,60,59,2.0,0.0
147,63.0,60,59,2.0,0.0
148,57.0,60,59,2.0,0.0
149,60.0,90,59,2.0,0.0
150,72.0,0,119,3.0,0.0
151,65.0,120,119,4.0,0.0
152,65.0,0,119,2.0,0.0
153,57.0,0,119,5.0,0.0
154,45.0,0,119,7.0,0.0
155,60.0,30,89,13.0,0.0
156,53.0,0,29,13.0,0.0
157,65.0,0,119,4.0,0.0
158,58.0,120,119,5.0,0.0
159,46.0,0,119,7.0,0.0
160,74.0,0,119,3.0,0.0
161,62.0,0,119,13.0,0.0
162,46.0,120,119,13.0,0.0
163,65.0,0,119,4.0,0.0
164,45.0,0,119,7.0,0.0
165,57.0,60,119,5.0,0.0
166,45.0,60,179,13.0,0.0
167,72.0,0,119,3.0,0.0
168,60.0,120,59,13.0,0.0
169,58.0,0,119,13.0,0.0
170,70.0,120,119,4.0,0.0
171,76.0,0,119,3.0,0.0
172,67.0,0,119,5.0,0.0
173,43.0,0,119,7.0,0.0
174,77.0,0,119,3.0,0.0
175,57.0,0,119,13.0,0.0
176,41.0,0,119,7.0,0.0
177,60.0,0,119,5.0,0.0
178,69.0,60,119,4.0,0.0
179,60.0,0,59,2.0,0.0
180,62.0,60,59,2.0,0.0
181,64.0,60,59,2.0,0.0
182,65.0,30,59,2.0,0.0
183,57.0,30,89,13.0,0.0
184,67.0,0,59,2.0,0.0
185,52.0,60,29,13.0,0.0
186,53.0,0,119,13.0,0.0
187,68.0,60,59,2.0,0.0
188,64.0,60,59,2.0,0.0
189,44.0,60,119,13.0,0.0
190,65.0,60,59,2.0,0.0
191,67.0,0,59,2.0,0.0
192,46.0,0,119,13.0,0.0
193,68.0,60,59,2.0,0.0
194,64.0,60,59,2.0,0.0
195,65.0,60,59,2.0,0.0
196,47.0,60,119,13.0,0.0
197,56.0,0,59,2.0,0.0
198,36.0,60,119,7.0,0.0
199,48.0,0,479,13.0,0.0
200,57.0,60,59,2.0,0.0
201,60.0,0,59,2.0,0.0
202,77.0,0,119,3.0,0.0
203,60.0,0,119,5.0,0.0
204,65.0,60,59,2.0,0.0
205,69.0,60,119,4.0,0.0
206,57.0,0,59,2.0,0.0
207,55.0,60,59,2.0,0.0
208,36.0,0,119,7.0,0.0
209,58.0,60,59,2.0,0.0
210,67.0,0,119,4.0,0.0
211,65.0,60,59,2.0,0.0
212,76.0,0,119,3.0,0.0
213,60.0,0,119,5.0,0.0
214,70.0,0,119,4.0,0.0
215,64.0,60,59,2.0,0.0
216,65.0,0,119,2.0,0.0
217,60.0,60,59,5.0,0.0
218,68.0,0,59,4.0,0.0
219,65.0,0,179,12.0,0.0
220,41.0,0,119,13.0,0.0
221,41.0,0,59,7.0,0.0
222,77.0,0,59,3.0,0.0
223,77.0,0,59,3.0,0.0
224,68.0,0,59,4.0,0.0
225,41.0,60,59,7.0,0.0
226,60.0,0,59,5.0,0.0
227,68.0,0,59,4.0,0.0
228,60.0,0,59,5.0,0.0
229,41.0,60,59,7.0,0.0
230,77.0,0,59,3.0,0.0
231,77.0,0,59,3.0,0.0
232,68.0,0,59,4.0,0.0
233,60.0,60,59,12.0,0.0
234,41.0,0,59,7.0,0.0
235,60.0,0,59,5.0,0.0
236,68.0,0,59,4.0,0.0
237,41.0,30,59,7.0,0.0
238,77.0,0,59,3.0,0.0
239,60.0,0,59,5.0,0.0
240,68.0,30,89,12.0,0.0
241,41.0,0,59,7.0,0.0
242,60.0,0,59,5.0,0.0
243,68.0,0,59,4.0,0.0
244,77.0,60,59,3.0,0.0
245,65.0,0,29,12.0,0.0
246,60.0,0,59,12.0,0.0
247,77.0,0,59,3.0,0.0
248,41.0,0,59,7.0,0.0
249,60.0,60,59,5.0,0.0
250,68.0,0,59,4.0,0.0
251,68.0,0,59,4.0,0.0
252,60.0,0,59,5.0,0.0
253,77.0,0,59,3.0,0.0
254,41.0,0,59,7.0,0.0
255,56.0,60,59,12.0,0.0
256,70.0,60,59,4.0,0.0
257,41.0,0,59,7.0,0.0
258,55.0,0,119,12.0,0.0
259,61.0,0,59,5.0,0.0
260,79.0,0,59,3.0,0.0
261,41.0,0,59,7.0,0.0
262,70.0,0,59,4.0,0.0
263,61.0,60,59,5.0,0.0
264,79.0,0,59,3.0,0.0
265,79.0,60,59,3.0,0.0
266,61.0,0,59,5.0,0.0
267,41.0,0,59,7.0,0.0
268,58.0,0,119,12.0,0.0
269,70.0,0,59,4.0,0.0
270,70.0,0,59,4.0,0.0
271,61.0,0,59,5.0,0.0
272,41.0,0,59,7.0,0.0
273,79.0,60,59,3.0,0.0
274,61.0,0,59,5.0,0.0
275,70.0,0,59,4.0,0.0
276,79.0,0,59,3.0,0.0
277,41.0,60,59,7.0,0.0
278,61.0,60,59,5.0,0.0
279,79.0,0,59,3.0,0.0
280,70.0,0,59,4.0,0.0
281,41.0,0,59,7.0,0.0
282,70.0,45,59,4.0,0.0
283,41.0,0,59,7.0,0.0
284,79.0,0,59,3.0,0.0
285,67.0,0,59,12.0,0.0
286,61.0,0,59,5.0,0.0
287,70.0,0,59,4.0,0.0
288,61.0,0,59,5.0,0.0
289,77.0,120,59,3.0,0.0
290,65.0,15,44,12.0,0.0
291,41.0,0,59,7.0,0.0
292,65.0,0,14,12.0,0.0
293,64.0,0,179,12.0,0.0
294,43.0,0,119,7.0,0.0
295,70.0,60,59,4.0,0.0
296,76.0,0,59,3.0,0.0
297,61.0,0,59,5.0,0.0
298,61.0,0,59,5.0,0.0
299,76.0,0,59,3.0,0.0
300,70.0,45,59,4.0,0.0
301,73.0,120,59,3.0,0.0
302,61.0,0,59,5.0,0.0
303,61.0,15,44,12.0,0.0
304,70.0,0,59,4.0,0.0
305,61.0,0,14,12.0,0.0
306,36.0,0,119,7.0,0.0
307,60.0,0,179,12.0,0.0
308,64.0,60,59,4.0,0.0
309,72.0,0,59,3.0,0.0
310,60.0,0,59,5.0,0.0
311,65.0,0,59,4.0,0.0
312,72.0,0,59,3.0,0.0
313,62.0,60,59,5.0,0.0
314,58.0,60,59,12.0,0.0
315,64.0,0,59,5.0,0.0
316,70.0,0,59,3.0,0.0
317,67.0,0,59,4.0,0.0
318,56.0,0,59,12.0,0.0
319,68.0,0,59,3.0,0.0
320,60.0,0,59,5.0,0.0
321,41.0,0,59,7.0,0.0
322,68.0,60,59,4.0,0.0
323,68.0,0,59,4.0,0.0
324,60.0,60,59,12.0,0.0
325,72.0,0,59,3.0,0.0
326,41.0,0,59,7.0,0.0
327,60.0,0,59,5.0,0.0
328,72.0,60,59,3.0,0.0
329,60.0,0,59,12.0,0.0
330,60.0,0,59,5.0,0.0
331,68.0,0,59,4.0,0.0
332,39.0,0,59,7.0,0.0
333,60.0,0,59,5.0,0.0
334,39.0,0,59,7.0,0.0
335,65.0,0,59,12.0,0.0
336,68.0,0,59,4.0,0.0
337,77.0,60,59,3.0,0.0
338,68.0,0,59,4.0,0.0
339,77.0,60,59,3.0,0.0
340,38.0,0,59,7.0,0.0
341,62.0,0,59,5.0,0.0
342,65.0,60,179,12.0,0.0
343,38.0,0,59,7.0,0.0
344,77.0,0,59,3.0,0.0
345,68.0,0,59,4.0,0.0
346,62.0,60,59,5.0,0.0
347,77.0,0,59,3.0,0.0
348,68.0,0,59,4.0,0.0
349,36.0,0,59,7.0,0.0
350,62.0,0,59,5.0,0.0
351,65.0,0,59,12.0,0.0
352,68.0,0,59,4.0,0.0
353,62.0,60,59,5.0,0.0
354,36.0,0,59,7.0,0.0
355,77.0,0,59,3.0,0.0
356,62.0,0,59,5.0,0.0
357,67.0,60,59,4.0,0.0
358,35.0,0,59,7.0,0.0
359,65.0,0,119,12.0,0.0
360,77.0,0,59,3.0,0.0
361,35.0,0,59,7.0,0.0
362,77.0,0,59,3.0,0.0
363,62.0,0,59,5.0,0.0
364,67.0,60,59,4.0,0.0
365,60.0,0,59,5.0,0.0
366,75.0,0,59,3.0,0.0
367,63.0,0,119,12.0,0.0
368,36.0,0,59,7.0,0.0
369,67.0,60,59,4.0,0.0
370,67.0,0,59,4.0,0.0
371,75.0,0,59,3.0,0.0
372,60.0,60,59,5.0,0.0
373,36.0,0,59,7.0,0.0
374,41.0,0,59,7.0,0.0
375,62.0,0,179,12.0,0.0
376,65.0,0,59,4.0,0.0
377,74.0,60,59,3.0,0.0
378,56.0,0,59,5.0,0.0
379,65.0,0,59,4.0,0.0
380,41.0,0,59,7.0,0.0
381,74.0,0,59,3.0,0.0
382,56.0,60,59,5.0,0.0
383,56.0,0,59,5.0,0.0
384,41.0,60,59,7.0,0.0
385,74.0,0,59,3.0,0.0
386,65.0,0,59,4.0,0.0
387,63.0,0,59,4.0,0.0
388,57.0,0,59,5.0,0.0
389,42.0,0,59,7.0,0.0
390,72.0,120,59,3.0,0.0
391,60.0,0,59,12.0,0.0
392,71.0,0,119,3.0,0.0
393,43.0,120,119,7.0,0.0
394,62.0,0,119,4.0,0.0
395,50.0,0,119,5.0,0.0
396,59.0,0,119,12.0,0.0
397,62.0,0,119,12.0,0.0
398,43.0,0,59,7.0,0.0
399,55.0,0,59,5.0,0.0
400,67.0,0,59,3.0,0.0
401,67.0,60,59,4.0,0.0
402,47.0,0,59,7.0,0.0
403,59.0,0,59,5.0,0.0
404,71.0,0,59,3.0,0.0
405,71.0,60,59,4.0,0.0
406,43.0,0,59,7.0,0.0
407,67.0,60,59,4.0,0.0
408,67.0,0,59,3.0,0.0
409,55.0,0,59,5.0,0.0
410,38.0,0,59,7.0,0.0
411,62.0,60,59,3.0,0.0
412,62.0,0,59,5.0,0.0
413,62.0,0,59,4.0,0.0
414,59.0,0,59,5.0,0.0
415,59.0,60,59,3.0,0.0
416,35.0,0,59,7.0,0.0
417,59.0,0,59,4.0,0.0
418,62.0,0,359,12.0,0.0
419,55.0,0,59,4.0,0.0
420,55.0,60,59,5.0,0.0
421,55.0,0,59,3.0,0.0
422,58.0,0,479,2.0,0.0
423,31.0,60,119,7.0,0.0
424,67.0,0,59,5.0,0.0
425,74.0,0,59,3.0,0.0
426,70.0,0,59,4.0,0.0
427,70.0,60,59,4.0,0.0
428,74.0,0,59,3.0,0.0
429,67.0,0,59,5.0,0.0
430,74.0,0,59,3.0,0.0
431,67.0,0,59,5.0,0.0
432,70.0,60,59,4.0,0.0
433,70.0,0,59,4.0,0.0
434,74.0,0,59,3.0,0.0
435,67.0,60,59,5.0,0.0
436,70.0,0,59,4.0,0.0
437,67.0,60,59,5.0,0.0
438,74.0,0,59,3.0,0.0
439,70.0,60,59,4.0,0.0
440,62.0,0,119,12.0,0.0
441,74.0,0,59,3.0,0.0
442,67.0,0,59,5.0,0.0
443,70.0,60,59,4.0,0.0
444,67.0,0,59,5.0,0.0
445,74.0,0,59,3.0,0.0
446,63.0,60,59,12.0,0.0
447,33.0,0,119,7.0,0.0
448,60.0,0,479,2.0,0.0
449,74.0,0,59,3.0,0.0
450,62.0,0,59,12.0,0.0
451,66.0,60,59,5.0,0.0
452,72.0,0,59,4.0,0.0
453,72.0,0,59,4.0,0.0
454,62.0,0,119,12.0,0.0
455,66.0,60,59,5.0,0.0
456,74.0,0,59,3.0,0.0
457,72.0,0,59,4.0,0.0
458,74.0,60,59,3.0,0.0
459,66.0,0,59,5.0,0.0
460,72.0,0,59,4.0,0.0
461,66.0,0,59,5.0,0.0
462,74.0,60,59,3.0,0.0
463,62.0,60,179,12.0,0.0
464,66.0,0,59,5.0,0.0
465,74.0,60,59,3.0,0.0
466,72.0,0,59,4.0,0.0
467,66.0,0,59,5.0,0.0
468,72.0,0,59,4.0,0.0
469,74.0,0,59,3.0,0.0
470,66.0,0,59,5.0,0.0
471,62.0,0,59,12.0,0.0
472,72.0,60,59,4.0,0.0
473,74.0,0,59,3.0,0.0
474,34.0,0,119,7.0,0.0
475,62.0,60,59,12.0,0.0
476,58.0,0,239,2.0,0.0
477,67.0,60,59,5.0,0.0
478,74.0,0,59,3.0,0.0
479,67.0,0,59,12.0,0.0
480,70.0,0,59,4.0,0.0
481,74.0,0,59,3.0,0.0
482,70.0,60,59,4.0,0.0
483,67.0,0,59,5.0,0.0
484,62.0,0,119,12.0,0.0
485,70.0,0,59,4.0,0.0
486,74.0,60,59,3.0,0.0
487,67.0,0,59,5.0,0.0
488,79.0,0,59,3.0,0.0
489,62.0,0,179,2.0,0.0
490,74.0,0,59,4.0,0.0
491,67.0,60,59,5.0,0.0
492,46.0,45,179,7.0,0.0
493,79.0,0,59,3.0,0.0
494,67.0,60,59,5.0,0.0
495,74.0,0,59,4.0,0.0
496,67.0,0,59,5.0,0.0
497,79.0,0,59,3.0,0.0
498,67.0,0,59,12.0,0.0
499,74.0,0,59,4.0,0.0
500,65.0,15,44,12.0,0.0
501,60.0,0,59,2.0,0.0
502,45.0,0,59,7.0,0.0
503,72.0,0,59,4.0,0.0
504,77.0,0,59,3.0,0.0
505,69.0,120,59,5.0,0.0
506,65.0,0,14,12.0,0.0
507,58.0,0,239,2.0,0.0
508,64.0,0,179,12.0,0.0
509,43.0,0,119,7.0,0.0
510,70.0,60,59,5.0,0.0
511,76.0,0,59,3.0,0.0
512,70.0,0,59,4.0,0.0
513,70.0,60,59,4.0,0.0
514,43.0,0,119,7.0,0.0
515,67.0,0,59,5.0,0.0
516,76.0,0,59,3.0,0.0
517,67.0,0,59,5.0,0.0
518,70.0,30,59,4.0,0.0
519,64.0,0,59,12.0,0.0
520,76.0,0,59,3.0,0.0
521,70.0,60,29,4.0,0.0
522,67.0,0,29,5.0,0.0
523,58.0,60,179,2.0,0.0
524,64.0,0,179,12.0,0.0
525,76.0,0,29,3.0,0.0
526,43.0,0,179,7.0,0.0
527,67.0,90,29,5.0,0.0
528,70.0,0,29,4.0,0.0
529,76.0,0,29,3.0,0.0
530,70.0,0,59,4.0,0.0
531,76.0,0,59,3.0,0.0
532,67.0,0,59,5.0,0.0
533,65.0,0,59,5.0,0.0
534,44.0,60,59,7.0,0.0
535,59.0,0,59,2.0,0.0
536,71.0,0,59,4.0,0.0
537,74.0,0,59,3.0,0.0
538,62.0,0,59,12.0,0.0
539,74.0,0,59,3.0,0.0
540,62.0,0,119,12.0,0.0
541,69.0,0,59,4.0,0.0
542,57.0,60,119,2.0,0.0
543,64.0,0,59,5.0,0.0
544,45.0,60,59,7.0,0.0
545,74.0,0,59,3.0,0.0
546,61.0,0,119,12.0,0.0
547,69.0,0,239,4.0,0.0
548,64.0,0,239,5.0,0.0
549,45.0,0,239,7.0,0.0
550,64.0,60,119,2.0,0.0
551,73.0,60,59,3.0,0.0
552,73.0,0,59,3.0,0.0
553,61.0,60,59,2.0,0.0
554,73.0,0,59,3.0,0.0
555,57.0,60,59,2.0,0.0
556,73.0,0,59,3.0,0.0
557,73.0,0,59,3.0,0.0
558,43.0,0,119,7.0,0.0
559,59.0,60,59,2.0,0.0
560,69.0,60,119,4.0,0.0
561,64.0,0,119,5.0,0.0
562,61.0,0,59,2.0,0.0
563,73.0,0,59,3.0,0.0
564,62.0,0,359,12.0,0.0
565,41.0,1,59,7.0,0.0
566,65.0,0,59,5.0,0.0
567,62.0,59,0,2.0,0.0
568,74.0,0,59,3.0,0.0
569,69.0,60,59,4.0,0.0
570,45.0,60,59,7.0,0.0
571,74.0,60,59,3.0,0.0
572,69.0,0,59,4.0,0.0
573,65.0,0,59,5.0,0.0
574,50.0,60,59,7.0,0.0
575,69.0,60,59,4.0,0.0
576,65.0,0,59,5.0,0.0
577,74.0,0,59,3.0,0.0
578,41.0,60,59,7.0,0.0
579,62.0,0,119,12.0,0.0
580,74.0,60,59,3.0,0.0
581,65.0,0,59,5.0,0.0
582,69.0,0,59,4.0,0.0
583,62.0,60,179,12.0,0.0
584,43.0,60,59,7.0,0.0
585,74.0,0,59,3.0,0.0
586,70.0,60,59,4.0,0.0
587,64.0,0,59,5.0,0.0
588,46.0,0,59,7.0,0.0
589,74.0,60,59,3.0,0.0
590,64.0,0,59,12.0,0.0
591,70.0,0,59,4.0,0.0
592,64.0,0,59,5.0,0.0
593,64.0,0,239,12.0,0.0
594,50.0,60,59,7.0,0.0
595,74.0,0,59,3.0,0.0
596,70.0,0,59,4.0,0.0
597,64.0,60,59,5.0,0.0
598,43.0,60,59,7.0,0.0
599,64.0,0,59,5.0,0.0
600,70.0,60,59,4.0,0.0
601,74.0,0,59,3.0,0.0
602,64.0,0,359,12.0,0.0
603,31.0,60,59,7.0,0.0
604,64.0,0,59,5.0,0.0
605,70.0,60,59,4.0,0.0
606,74.0,0,59,3.0,0.0
607,46.0,60,59,7.0,0.0
608,74.0,0,59,3.0,0.0
609,64.0,60,59,5.0,0.0
610,70.0,0,59,4.0,0.0
611,50.0,60,59,7.0,0.0
612,70.0,0,59,4.0,0.0
613,74.0,60,59,3.0,0.0
614,64.0,0,59,5.0,0.0
615,43.0,60,59,7.0,0.0
616,64.0,60,119,12.0,0.0
617,64.0,0,59,5.0,0.0
618,70.0,0,59,4.0,0.0
619,74.0,0,59,3.0,0.0
620,64.0,30,89,12.0,0.0
621,44.0,30,59,7.0,0.0
622,74.0,0,59,3.0,0.0
623,65.0,0,59,5.0,0.0
624,71.0,60,59,4.0,0.0
625,67.0,0,29,12.0,0.0
626,65.0,0,239,12.0,0.0
627,47.0,60,59,7.0,0.0
628,71.0,0,59,4.0,0.0
629,74.0,0,59,3.0,0.0
630,65.0,60,59,5.0,0.0
631,50.0,60,59,7.0,0.0
632,71.0,0,59,4.0,0.0
633,65.0,0,59,5.0,0.0
634,74.0,60,59,3.0,0.0
635,44.0,0,59,7.0,0.0
636,64.0,60,59,12.0,0.0
637,56.0,0,59,4.0,0.0
638,62.0,60,59,12.0,0.0
639,56.0,0,59,3.0,0.0
640,56.0,0,59,5.0,0.0
641,57.0,60,59,5.0,0.0
642,57.0,0,59,4.0,0.0
643,57.0,0,59,3.0,0.0
644,45.0,0,59,7.0,0.0
645,62.0,0,359,12.0,0.0
646,58.0,60,59,3.0,0.0
647,58.0,0,59,4.0,0.0
648,58.0,0,59,5.0,0.0
649,46.0,0,59,7.0,0.0
650,57.0,0,59,5.0,0.0
651,45.0,0,59,7.0,0.0
652,53.0,60,119,2.0,0.0
653,57.0,0,59,4.0,0.0
654,57.0,60,59,3.0,0.0
655,44.0,0,59,7.0,0.0
656,56.0,0,59,4.0,0.0
657,56.0,0,59,3.0,0.0
658,56.0,0,59,5.0,0.0
659,45.0,60,119,7.0,0.0
660,57.0,0,59,5.0,0.0
661,57.0,0,59,3.0,0.0
662,57.0,30,59,4.0,0.0
663,57.0,0,119,2.0,0.0
664,77.0,0,29,3.0,0.0
665,74.0,0,29,4.0,0.0
666,69.0,30,29,5.0,0.0
667,61.0,0,119,2.0,0.0
668,65.0,30,59,12.0,0.0
669,33.0,60,119,7.0,0.0
670,67.0,0,29,5.0,0.0
671,64.0,0,59,12.0,0.0
672,73.0,30,29,4.0,0.0
673,76.0,0,29,3.0,0.0
674,38.0,60,59,7.0,0.0
675,62.0,0,119,2.0,0.0
676,69.0,0,359,11.0,0.0
677,62.0,60,119,12.0,0.0
678,65.0,0,59,5.0,0.0
679,74.0,0,59,3.0,0.0
680,74.0,0,59,4.0,0.0
681,62.0,60,59,6.0,0.0
682,74.0,0,59,3.0,0.0
683,69.0,0,59,4.0,0.0
684,65.0,60,59,5.0,0.0
685,62.0,60,59,6.0,0.0
686,69.0,60,59,4.0,0.0
687,74.0,0,59,3.0,0.0
688,65.0,0,59,5.0,0.0
689,62.0,30,59,6.0,0.0
690,74.0,30,89,11.0,0.0
691,69.0,0,59,4.0,0.0
692,74.0,60,59,3.0,0.0
693,65.0,0,59,5.0,0.0
694,74.0,0,29,11.0,0.0
695,73.0,45,179,11.0,0.0
696,64.0,60,59,6.0,0.0
697,67.0,60,59,4.0,0.0
698,73.0,0,59,3.0,0.0
699,70.0,0,59,5.0,0.0
700,64.0,0,59,6.0,0.0
701,70.0,60,59,4.0,0.0
702,73.0,0,59,3.0,0.0
703,67.0,0,59,5.0,0.0
704,70.0,15,44,11.0,0.0
705,70.0,0,14,11.0,0.0
706,61.0,60,59,6.0,0.0
707,69.0,0,179,11.0,0.0
708,64.0,0,59,5.0,0.0
709,69.0,60,59,4.0,0.0
710,76.0,0,59,3.0,0.0
711,57.0,45,59,6.0,0.0
712,67.0,60,59,4.0,0.0
713,76.0,0,59,3.0,0.0
714,67.0,15,44,11.0,0.0
715,61.0,0,59,5.0,0.0
716,67.0,0,14,11.0,0.0
717,65.0,30,59,11.0,0.0
718,62.0,60,299,5.0,0.0
719,62.0,60,179,6.0,0.0
720,65.0,0,119,4.0,0.0
721,64.0,30,29,11.0,0.0
722,74.0,0,119,3.0,0.0
723,62.0,60,29,11.0,0.0
724,62.0,0,119,11.0,0.0
725,68.0,60,59,4.0,0.0
726,60.0,0,59,6.0,0.0
727,77.0,0,119,3.0,0.0
728,59.0,0,59,6.0,0.0
729,67.0,0,59,4.0,0.0
730,59.0,0,59,5.0,0.0
731,55.0,0,59,6.0,0.0
732,77.0,60,59,4.0,0.0
733,80.0,0,59,3.0,0.0
734,57.0,0,59,6.0,0.0
735,79.0,60,59,3.0,0.0
736,60.0,0,59,5.0,0.0
737,75.0,0,59,4.0,0.0
738,74.0,0,59,4.0,0.0
739,59.0,0,59,6.0,0.0
740,62.0,0,59,5.0,0.0
741,77.0,60,59,3.0,0.0
742,60.0,60,59,6.0,0.0
743,67.0,0,359,11.0,0.0
744,60.0,0,59,5.0,0.0
745,67.0,0,59,4.0,0.0
746,75.0,60,59,3.0,0.0
747,60.0,60,59,6.0,0.0
748,60.0,0,59,5.0,0.0
749,75.0,60,59,3.0,0.0
750,67.0,0,59,4.0,0.0
751,60.0,60,59,6.0,0.0
752,75.0,60,59,3.0,0.0
753,67.0,0,59,4.0,0.0
754,60.0,0,59,5.0,0.0
755,72.0,30,89,11.0,0.0
756,60.0,30,59,6.0,0.0
757,67.0,0,59,4.0,0.0
758,60.0,0,59,5.0,0.0
759,75.0,60,59,3.0,0.0
760,72.0,0,29,11.0,0.0
761,62.0,60,59,6.0,0.0
762,71.0,0,179,11.0,0.0
763,62.0,0,59,5.0,0.0
764,71.0,60,59,4.0,0.0
765,77.0,0,59,3.0,0.0
766,62.0,45,59,6.0,0.0
767,77.0,0,59,3.0,0.0
768,62.0,0,59,5.0,0.0
769,71.0,0,59,4.0,0.0
770,68.0,15,44,11.0,0.0
771,68.0,60,14,11.0,0.0
772,67.0,0,179,11.0,0.0
773,59.0,60,59,6.0,0.0
774,77.0,0,59,3.0,0.0
775,74.0,60,59,4.0,0.0
776,59.0,0,59,5.0,0.0
777,55.0,60,59,6.0,0.0
778,77.0,0,59,3.0,0.0
779,55.0,60,59,5.0,0.0
780,65.0,0,59,11.0,0.0
781,74.0,0,59,4.0,0.0
782,63.0,0,59,11.0,0.0
783,60.0,60,59,6.0,0.0
784,67.0,0,59,4.0,0.0
785,60.0,0,59,5.0,0.0
786,67.0,0,59,11.0,0.0
787,75.0,60,59,3.0,0.0
788,72.0,30,89,11.0,0.0
789,51.0,30,59,6.0,0.0
790,84.0,0,59,3.0,0.0
791,67.0,60,59,4.0,0.0
792,51.0,0,59,5.0,0.0
793,70.0,0,29,11.0,0.0
794,69.0,30,89,11.0,0.0
795,53.0,30,59,6.0,0.0
796,53.0,60,59,5.0,0.0
797,81.0,0,59,3.0,0.0
798,63.0,0,59,4.0,0.0
799,67.0,0,29,11.0,0.0
800,65.0,0,59,11.0,0.0
801,57.0,60,59,6.0,0.0
802,63.0,0,59,11.0,0.0
803,57.0,0,59,5.0,0.0
804,75.0,0,59,3.0,0.0
805,60.0,60,59,4.0,0.0
806,46.0,60,59,7.0,0.0
807,77.0,0,359,10.0,0.0
808,62.0,60,119,11.0,0.0
809,74.0,0,59,3.0,0.0
810,58.0,0,59,5.0,0.0
811,58.0,0,59,4.0,0.0
812,65.0,0,119,11.0,0.0
813,46.0,60,59,7.0,0.0
814,62.0,60,59,4.0,0.0
815,58.0,0,59,5.0,0.0
816,77.0,0,59,3.0,0.0
817,46.0,60,59,7.0,0.0
818,62.0,60,59,4.0,0.0
819,58.0,0,59,5.0,0.0
820,77.0,0,59,3.0,0.0
821,74.0,0,59,10.0,0.0
822,46.0,45,59,7.0,0.0
823,58.0,0,59,5.0,0.0
824,62.0,60,59,4.0,0.0
825,70.0,15,44,10.0,0.0
826,82.0,0,59,3.0,0.0
827,70.0,0,14,10.0,0.0
828,69.0,60,179,10.0,0.0
829,48.0,60,59,7.0,0.0
830,81.0,60,59,3.0,0.0
831,63.0,0,59,4.0,0.0
832,60.0,0,59,5.0,0.0
833,48.0,0,59,7.0,0.0
834,60.0,0,59,5.0,0.0
835,82.0,0,59,3.0,0.0
836,63.0,0,59,4.0,0.0
837,70.0,60,59,10.0,0.0
838,45.0,60,59,7.0,0.0
839,72.0,0,179,10.0,0.0
840,57.0,0,59,5.0,0.0
841,63.0,60,59,4.0,0.0
842,84.0,0,59,3.0,0.0
843,41.0,60,59,7.0,0.0
844,75.0,0,59,10.0,0.0
845,60.0,60,59,4.0,0.0
846,75.0,0,59,3.0,0.0
847,53.0,0,59,5.0,0.0
848,73.0,0,59,10.0,0.0
849,46.0,60,59,7.0,0.0
850,65.0,0,59,5.0,0.0
851,74.0,0,59,3.0,0.0
852,58.0,60,59,4.0,0.0
853,74.0,0,59,10.0,0.0
854,46.0,60,59,7.0,0.0
855,74.0,0,119,10.0,0.0
856,74.0,60,59,3.0,0.0
857,70.0,0,59,5.0,0.0
858,65.0,0,59,4.0,0.0
859,46.0,60,59,7.0,0.0
860,70.0,0,59,5.0,0.0
861,65.0,60,59,4.0,0.0
862,74.0,0,59,3.0,0.0
863,70.0,0,59,10.0,0.0
864,46.0,45,59,7.0,0.0
865,74.0,0,59,3.0,0.0
866,65.0,0,59,4.0,0.0
867,77.0,15,44,10.0,0.0
868,70.0,0,59,5.0,0.0
869,77.0,60,14,10.0,0.0
870,76.0,60,179,10.0,0.0
871,42.0,60,59,7.0,0.0
872,76.0,0,59,3.0,0.0
873,58.0,0,59,5.0,0.0
874,70.0,60,59,4.0,0.0
875,42.0,0,59,7.0,0.0
876,70.0,60,59,4.0,0.0
877,73.0,0,59,10.0,0.0
878,76.0,0,59,3.0,0.0
879,61.0,0,59,5.0,0.0
880,73.0,30,59,10.0,0.0
881,42.0,0,59,7.0,0.0
882,75.0,30,29,10.0,0.0
883,76.0,0,59,3.0,0.0
884,70.0,60,59,4.0,0.0
885,61.0,0,59,5.0,0.0
886,73.0,0,29,10.0,0.0
887,42.0,60,59,7.0,0.0
888,72.0,0,59,10.0,0.0
889,70.0,120,59,4.0,0.0
890,58.0,0,59,5.0,0.0
891,76.0,0,59,3.0,0.0
892,70.0,0,59,10.0,0.0
893,41.0,0,119,7.0,0.0
894,69.0,0,119,4.0,0.0
895,69.0,0,119,10.0,0.0
896,60.0,0,119,5.0,0.0
897,77.0,120,119,3.0,0.0
898,72.0,0,119,10.0,0.0
899,65.0,60,59,3.0,0.0
900,65.0,0,59,4.0,0.0
901,64.0,60,59,4.0,0.0
902,67.0,0,59,3.0,0.0
903,63.0,0,59,4.0,0.0
904,69.0,60,59,3.0,0.0
905,62.0,0,59,4.0,0.0
906,70.0,60,59,3.0,0.0
907,72.0,0,59,3.0,0.0
908,60.0,120,59,4.0,0.0
909,74.0,0,119,3.0,0.0
910,65.0,0,119,5.0,0.0
911,46.0,120,119,7.0,0.0
912,58.0,0,119,4.0,0.0
913,74.0,120,119,10.0,0.0
914,74.0,0,119,3.0,0.0
915,45.0,0,119,7.0,0.0
916,72.0,120,119,4.0,0.0
917,66.0,0,119,5.0,0.0
918,74.0,120,119,10.0,0.0
919,74.0,0,119,3.0,0.0
920,70.0,120,119,4.0,0.0
921,43.0,0,119,7.0,0.0
922,67.0,0,119,5.0,0.0
923,74.0,0,119,10.0,0.0
924,40.0,0,119,7.0,0.0
925,79.0,240,119,3.0,0.0
926,79.0,0,119,10.0,0.0
927,70.0,0,119,5.0,0.0
928,72.0,0,119,4.0,0.0
929,64.0,0,119,6.0,0.0
930,67.0,0,119,5.0,0.0
931,70.0,120,119,4.0,0.0
932,72.0,0,239,3.0,0.0
933,63.0,0,119,6.0,0.0
934,65.0,0,239,5.0,0.0
935,72.0,0,119,10.0,0.0
936,69.0,120,119,4.0,0.0
937,62.0,240,119,6.0,0.0
938,77.0,0,119,3.0,0.0
939,70.0,0,119,4.0,0.0
940,77.0,0,119,10.0,0.0
941,70.0,0,239,3.0,0.0
942,62.0,120,119,6.0,0.0
943,68.0,0,119,4.0,0.0
944,65.0,0,119,5.0,0.0
945,63.0,0,119,5.0,0.0
946,63.0,120,119,6.0,0.0
947,67.0,0,119,4.0,0.0
948,75.0,0,239,3.0,0.0
949,63.0,0,119,5.0,0.0
950,60.0,0,239,6.0,0.0
951,67.0,120,119,4.0,0.0
952,65.0,0,239,5.0,0.0
953,69.0,120,119,4.0,0.0
954,58.0,0,119,6.0,0.0
955,74.0,120,119,3.0,0.0
956,70.0,0,119,4.0,0.0
957,39.0,60,119,7.0,0.0
958,72.0,0,179,3.0,0.0
959,70.0,0,359,4.0,0.0
960,67.0,30,179,5.0,0.0
961,39.0,120,119,7.0,0.0
962,65.0,30,29,5.0,0.0
963,74.0,0,29,3.0,0.0
964,63.0,0,29,5.0,0.0
965,75.0,0,29,3.0,0.0
966,70.0,0,119,3.0,0.0
967,70.0,120,119,10.0,0.0
968,62.0,0,119,5.0,0.0
969,41.0,0,119,7.0,0.0
970,63.0,0,119,5.0,0.0
971,41.0,180,119,7.0,0.0
972,72.0,0,119,10.0,0.0
973,69.0,0,119,4.0,0.0
974,72.0,0,119,3.0,0.0
975,63.0,0,239,5.0,0.0
976,72.0,0,179,3.0,0.0
977,41.0,120,239,7.0,0.0
978,69.0,0,239,4.0,0.0
979,72.0,60,179,10.0,0.0
980,73.0,0,59,3.0,0.0
981,73.0,0,59,10.0,0.0
982,62.0,0,119,5.0,0.0
983,34.0,0,119,7.0,0.0
984,70.0,0,119,4.0,0.0
985,74.0,0,119,3.0,0.0
986,74.0,240,119,10.0,0.0
987,62.0,0,119,1.0,0.0
988,77.0,0,119,10.0,0.0
989,77.0,0,119,0.0,0.0
990,62.0,0,119,13.0,0.0
991,70.0,0,119,0.0,0.0
992,70.0,120,119,11.0,0.0
993,65.0,0,119,1.0,0.0
994,65.0,0,119,12.0,0.0
995,77.0,0,119,3.0,0.0
996,70.0,0,119,5.0,0.0
997,50.0,15,119,7.0,0.0
998,74.0,105,119,4.0,0.0
999,77.0,0,119,0.0,0.0
1000,68.0,0,119,11.0,0.0
1001,77.0,0,119,10.0,0.0
1002,60.0,0,119,1.0,0.0
1003,60.0,120,119,13.0,0.0
1004,68.0,0,119,0.0,0.0
1005,63.0,0,119,1.0,0.0
1006,74.0,0,119,4.0,0.0
1007,63.0,0,119,12.0,0.0
1008,77.0,120,119,3.0,0.0
1009,48.0,0,119,7.0,0.0
1010,68.0,0,119,5.0,0.0
1011,74.0,0,119,4.0,0.0
1012,62.0,0,119,1.0,0.0
1013,67.0,0,239,5.0,0.0
1014,59.0,0,119,1.0,0.0
1015,77.0,0,119,0.0,0.0
1016,77.0,0,119,10.0,0.0
1017,77.0,0,119,3.0,0.0
1018,62.0,0,119,12.0,0.0
1019,47.0,0,119,7.0,0.0
1020,59.0,60,119,13.0,0.0
1021,67.0,0,119,11.0,0.0
1022,67.0,0,119,0.0,0.0
1023,60.0,0,119,13.0,0.0
1024,48.0,0,59,7.0,0.0
1025,60.0,0,119,12.0,0.0
1026,76.0,0,119,10.0,0.0
1027,72.0,0,119,4.0,0.0
1028,60.0,120,119,1.0,0.0
1029,67.0,0,119,0.0,0.0
1030,76.0,0,119,0.0,0.0
1031,67.0,0,119,11.0,0.0
1032,76.0,60,59,3.0,0.0
1033,79.0,0,29,3.0,0.0
1034,83.0,60,119,3.0,0.0
1035,84.0,60,59,3.0,0.0
1036,72.0,120,29,3.0,0.0
1037,60.0,0,119,1.0,0.0
1038,54.0,60,119,13.0,0.0
1039,60.0,0,119,5.0,0.0
1040,75.0,0,119,10.0,0.0
1041,75.0,0,119,3.0,0.0
1042,60.0,0,119,12.0,0.0
1043,69.0,0,119,4.0,0.0
1044,54.0,0,119,1.0,0.0
1045,75.0,0,119,0.0,0.0
1046,69.0,0,119,0.0,0.0
1047,42.0,0,119,7.0,0.0
1048,69.0,0,119,11.0,0.0
1049,70.0,0,119,0.0,0.0
1050,58.0,0,119,5.0,0.0
1051,43.0,60,59,7.0,0.0
1052,74.0,0,119,10.0,0.0
1053,58.0,0,119,12.0,0.0
1054,74.0,0,119,0.0,0.0
1055,55.0,120,119,13.0,0.0
1056,70.0,0,119,4.0,0.0
1057,74.0,0,59,3.0,0.0
1058,70.0,0,119,11.0,0.0
1059,58.0,0,119,1.0,0.0
1060,55.0,0,119,1.0,0.0
1061,74.0,0,29,3.0,0.0
1062,81.0,60,119,3.0,0.0
1063,82.0,60,59,3.0,0.0
1064,70.0,120,29,3.0,0.0
1065,39.0,0,479,7.0,0.0
1066,79.0,30,269,3.0,0.0
1067,59.0,0,59,1.0,0.0
1068,55.0,0,59,1.0,0.0
1069,59.0,60,59,4.0,0.0
1070,55.0,0,59,5.0,0.0
1071,60.0,60,59,1.0,0.0
1072,57.0,0,59,1.0,0.0
1073,57.0,0,59,5.0,0.0
1074,60.0,0,59,4.0,0.0
1075,59.0,0,59,5.0,0.0
1076,62.0,30,59,1.0,0.0
1077,62.0,0,59,4.0,0.0
1078,59.0,0,59,1.0,0.0
1079,63.0,0,179,1.0,0.0
1080,60.0,0,179,5.0,0.0
1081,63.0,0,179,4.0,0.0
1082,60.0,30,179,1.0,0.0
1083,81.0,30,29,3.0,0.0
1084,82.0,30,29,3.0,0.0
1085,78.0,30,29,3.0,0.0
1086,79.0,30,29,3.0,0.0
1087,74.0,0,29,3.0,0.0
1088,63.0,0,59,1.0,0.0
1089,67.0,0,59,1.0,0.0
1090,67.0,60,59,4.0,0.0
1091,63.0,0,59,5.0,0.0
1092,75.0,30,29,3.0,0.0
1093,72.0,0,29,3.0,0.0
1094,41.0,0,59,7.0,0.0
1095,65.0,0,59,1.0,0.0
1096,62.0,0,59,1.0,0.0
1097,65.0,180,59,4.0,0.0
1098,70.0,0,59,3.0,0.0
1099,62.0,0,59,5.0,0.0
1100,58.0,0,119,5.0,0.0
1101,70.0,0,239,10.0,0.0
1102,62.0,0,239,12.0,0.0
1103,62.0,0,119,4.0,0.0
1104,62.0,0,119,1.0,0.0
1105,41.0,120,119,7.0,0.0
1106,65.0,0,239,11.0,0.0
1107,70.0,0,239,3.0,0.0
1108,58.0,0,119,1.0,0.0
1109,53.0,0,239,13.0,0.0
1110,65.0,0,239,0.0,0.0
1111,70.0,0,239,0.0,0.0
1112,65.0,120,119,4.0,0.0
1113,41.0,0,119,7.0,0.0
1114,65.0,0,119,1.0,0.0
1115,62.0,0,119,1.0,0.0
1116,62.0,0,119,5.0,0.0
1117,63.0,0,119,4.0,0.0
1118,63.0,0,119,0.0,0.0
1119,53.0,0,119,13.0,0.0
1120,69.0,0,119,3.0,0.0
1121,41.0,0,119,7.0,0.0
1122,63.0,0,119,11.0,0.0
1123,69.0,0,119,10.0,0.0
1124,60.0,0,119,12.0,0.0
1125,60.0,0,119,5.0,0.0
1126,69.0,0,119,0.0,0.0
1127,60.0,0,119,1.0,0.0
1128,63.0,180,119,1.0,0.0
1129,75.0,0,179,3.0,0.0
1130,69.0,0,179,11.0,0.0
1131,75.0,0,179,10.0,0.0
1132,60.0,0,179,12.0,0.0
1133,69.0,0,179,0.0,0.0
1134,63.0,60,179,0.0,0.0
1135,54.0,0,179,13.0,0.0
1136,42.0,0,179,7.0,0.0
1137,69.0,0,179,4.0,0.0
1138,63.0,0,179,1.0,0.0
1139,60.0,0,179,1.0,0.0
1140,60.0,0,179,5.0,0.0
1141,55.0,0,59,13.0,0.0
1142,70.0,0,59,0.0,0.0
1143,74.0,0,59,3.0,0.0
1144,58.0,0,59,5.0,0.0
1145,70.0,0,59,11.0,0.0
1146,58.0,0,59,1.0,0.0
1147,62.0,0,59,1.0,0.0
1148,58.0,0,59,12.0,0.0
1149,70.0,0,59,4.0,0.0
1150,74.0,60,59,10.0,0.0
1151,62.0,0,59,0.0,0.0
1152,43.0,0,59,7.0,0.0
1153,58.0,0,119,12.0,0.0
1154,62.0,0,119,0.0,0.0
1155,70.0,0,119,0.0,0.0
1156,58.0,0,119,1.0,0.0
1157,55.0,240,119,13.0,0.0
1158,70.0,0,59,4.0,0.0
1159,62.0,0,119,1.0,0.0
1160,70.0,0,119,11.0,0.0
1161,58.0,0,59,5.0,0.0
1162,74.0,0,59,3.0,0.0
1163,74.0,0,119,10.0,0.0
1164,43.0,60,59,7.0,0.0
1165,60.0,0,119,1.0,0.0
1166,64.0,0,119,1.0,0.0
1167,48.0,0,119,7.0,0.0
1168,67.0,0,119,0.0,0.0
1169,70.0,0,119,0.0,0.0
1170,72.0,0,119,3.0,0.0
1171,67.0,0,119,4.0,0.0
1172,70.0,0,119,4.0,0.0
1173,76.0,0,119,4.0,0.0
1174,48.0,120,119,5.0,0.0
1175,60.0,0,119,5.0,0.0
1176,82.0,0,119,3.0,0.0
1177,64.0,0,119,3.0,0.0
1178,76.0,60,119,10.0,0.0
1179,60.0,0,119,13.0,0.0
1180,70.0,0,119,11.0,0.0
1181,67.0,0,119,12.0,0.0
1182,84.0,60,59,3.0,0.0
1183,60.0,0,119,1.0,0.0
1184,58.0,0,119,1.0,0.0
1185,46.0,0,119,7.0,0.0
1186,60.0,0,119,5.0,0.0
1187,67.0,0,119,0.0,0.0
1188,64.0,120,119,0.0,0.0
1189,67.0,0,119,4.0,0.0
1190,76.0,0,59,3.0,0.0
1191,76.0,0,119,10.0,0.0
1192,60.0,0,119,12.0,0.0
1193,67.0,0,119,11.0,0.0
1194,58.0,120,119,13.0,0.0
1195,77.0,0,119,10.0,0.0
1196,45.0,0,359,7.0,0.0
1197,65.0,0,119,11.0,0.0
1198,60.0,0,119,12.0,0.0
1199,57.0,60,119,13.0,0.0
1200,77.0,0,59,3.0,0.0
1201,65.0,0,359,5.0,0.0
1202,57.0,0,119,13.0,0.0
1203,72.0,0,239,4.0,0.0
1204,84.0,60,59,3.0,0.0
1205,75.0,0,119,10.0,0.0
1206,69.0,60,119,0.0,0.0
1207,60.0,0,119,1.0,0.0
1208,60.0,0,119,12.0,0.0
1209,57.0,0,119,1.0,0.0
1210,65.0,0,119,11.0,0.0
1211,72.0,0,119,0.0,0.0
1212,81.0,0,59,3.0,0.0
1213,60.0,0,119,1.0,0.0
1214,63.0,0,119,1.0,0.0
1215,75.0,0,119,0.0,0.0
1216,72.0,0,119,0.0,0.0
1217,77.0,60,59,3.0,0.0
1218,75.0,60,59,3.0,0.0
1219,58.0,0,119,12.0,0.0
1220,74.0,60,59,3.0,0.0
1221,58.0,120,119,1.0,0.0
1222,70.0,0,119,4.0,0.0
1223,46.0,0,119,7.0,0.0
1224,74.0,0,119,10.0,0.0
1225,62.0,0,119,1.0,0.0
1226,74.0,0,119,0.0,0.0
1227,65.0,0,119,11.0,0.0
1228,58.0,0,119,13.0,0.0
1229,70.0,0,119,0.0,0.0
1230,82.0,0,59,3.0,0.0
1231,58.0,0,239,1.0,0.0
1232,51.0,0,239,1.0,0.0
1233,39.0,0,119,7.0,0.0
1234,63.0,0,239,0.0,0.0
1235,58.0,0,119,12.0,0.0
1236,63.0,60,119,11.0,0.0
1237,79.0,0,119,10.0,0.0
1238,51.0,0,119,13.0,0.0
1239,70.0,0,239,0.0,0.0
1240,70.0,60,119,4.0,0.0
1241,63.0,0,119,5.0,0.0
1242,79.0,0,119,3.0,0.0
1243,39.0,0,119,7.0,0.0
1244,58.0,0,119,12.0,0.0
1245,79.0,60,119,10.0,0.0
1246,51.0,0,119,13.0,0.0
1247,67.0,0,119,11.0,0.0
1248,67.0,60,119,5.0,0.0
1249,79.0,0,119,3.0,0.0
1250,70.0,0,119,4.0,0.0
1251,52.0,60,119,13.0,0.0
1252,67.0,0,239,0.0,0.0
1253,70.0,0,119,11.0,0.0
1254,60.0,0,119,1.0,0.0
1255,72.0,0,119,0.0,0.0
1256,79.0,0,119,10.0,0.0
1257,40.0,0,119,7.0,0.0
1258,60.0,0,119,12.0,0.0
1259,52.0,0,239,1.0,0.0
1260,67.0,0,119,5.0,0.0
1261,72.0,0,119,4.0,0.0
1262,82.0,60,119,3.0,0.0
1263,73.0,0,119,0.0,0.0
1264,40.0,0,119,7.0,0.0
1265,70.0,0,119,11.0,0.0
1266,61.0,0,119,12.0,0.0
1267,79.0,0,119,10.0,0.0
1268,61.0,60,119,1.0,0.0
1269,52.0,0,119,13.0,0.0
1270,82.0,0,119,3.0,0.0
1271,73.0,0,59,4.0,0.0
1272,67.0,0,59,5.0,0.0
1273,70.0,0,359,10.0,0.0
1274,53.0,0,479,13.0,0.0
1275,62.0,0,359,1.0,0.0
1276,65.0,0,359,11.0,0.0
1277,53.0,60,119,1.0,0.0
1278,41.0,0,119,7.0,0.0
1279,74.0,0,59,4.0,0.0
1280,65.0,0,119,0.0,0.0
1281,74.0,0,119,0.0,0.0
1282,65.0,60,59,5.0,0.0
1283,62.0,60,359,12.0,0.0
1284,70.0,0,119,3.0,0.0
1285,70.0,60,119,4.0,0.0
1286,62.0,0,119,5.0,0.0
1287,70.0,0,239,0.0,0.0
1288,41.0,60,119,7.0,0.0
1289,53.0,0,119,1.0,0.0
1290,65.0,0,239,0.0,0.0
1291,70.0,60,119,4.0,0.0
1292,62.0,0,119,5.0,0.0
1293,70.0,0,119,3.0,0.0
1294,41.0,0,119,7.0,0.0
1295,53.0,0,119,1.0,0.0
1296,62.0,0,59,5.0,0.0
1297,70.0,0,119,4.0,0.0
1298,70.0,0,59,3.0,0.0
1299,57.0,60,119,1.0,0.0
1300,74.0,0,59,10.0,0.0
1301,65.0,60,59,1.0,0.0
1302,41.0,0,119,7.0,0.0
1303,63.0,0,119,0.0,0.0
1304,65.0,0,59,12.0,0.0
1305,74.0,0,59,3.0,0.0
1306,69.0,0,119,11.0,0.0
1307,65.0,0,59,5.0,0.0
1308,74.0,0,59,0.0,0.0
1309,72.0,0,59,3.0,0.0
1310,69.0,0,59,4.0,0.0
1311,72.0,0,59,10.0,0.0
1312,72.0,0,59,0.0,0.0
1313,63.0,0,59,12.0,0.0
1314,63.0,0,59,5.0,0.0
1315,63.0,0,59,1.0,0.0
1316,70.0,0,119,11.0,0.0
1317,58.0,0,119,1.0,0.0
1318,62.0,0,119,1.0,0.0
1319,70.0,0,59,4.0,0.0
1320,70.0,0,119,10.0,0.0
1321,46.0,0,119,7.0,0.0
1322,62.0,0,119,5.0,0.0
1323,70.0,60,59,3.0,0.0
1324,62.0,60,119,12.0,0.0
1325,70.0,0,119,0.0,0.0
1326,62.0,0,119,0.0,0.0
1327,46.0,0,119,13.0,0.0
1328,62.0,0,59,4.0,0.0
1329,65.0,0,59,3.0,0.0
1330,65.0,0,59,4.0,0.0
1331,74.0,60,59,3.0,0.0
1332,62.0,0,59,4.0,0.0
1333,65.0,120,59,3.0,0.0
1334,63.0,0,119,1.0,0.0
1335,60.0,0,119,1.0,0.0
1336,41.0,0,119,7.0,0.0
1337,57.0,0,119,5.0,0.0
1338,69.0,0,119,0.0,0.0
1339,63.0,0,119,0.0,0.0
1340,60.0,0,59,4.0,0.0
1341,63.0,60,59,3.0,0.0
1342,72.0,0,59,3.0,0.0
1343,63.0,60,59,4.0,0.0
1344,60.0,0,59,4.0,0.0
1345,63.0,240,59,3.0,0.0
1346,60.0,0,239,4.0,0.0
1347,63.0,0,239,3.0,0.0
1348,63.0,0,239,1.0,0.0
1349,69.0,0,239,0.0,0.0
1350,34.0,0,359,7.0,0.0
1351,72.0,0,239,0.0,0.0
1352,57.0,0,239,5.0,0.0
1353,60.0,120,239,1.0,0.0
1354,58.0,0,119,5.0,0.0
1355,58.0,0,119,4.0,0.0
1356,58.0,0,119,1.0,0.0
1357,62.0,601,119,3.0,0.0
1358,62.0,0,119,1.0,0.0
1359,70.0,0,119,0.0,0.0
