,note,step,duration,channel,velocity
0,74.0,180,88,5.0,0.0
1,74.0,182,88,5.0,0.0
2,43.0,0,360,10.0,0.0
3,55.0,90,90,6.0,0.0
4,74.0,0,180,5.0,0.0
5,55.0,0,360,8.0,0.0
6,67.0,0,360,7.0,0.0
7,58.0,71,90,6.0,0.0
8,70.0,19,71,5.0,0.0
9,62.0,90,90,6.0,0.0
10,58.0,88,90,6.0,0.0
11,74.0,2,88,5.0,0.0
12,55.0,90,90,6.0,0.0
13,58.0,88,90,6.0,0.0
14,62.0,71,90,6.0,0.0
15,74.0,2,88,5.0,0.0
16,58.0,109,71,6.0,0.0
17,42.0,88,360,10.0,0.0
18,74.0,71,180,5.0,0.0
19,57.0,90,90,6.0,0.0
20,66.0,0,360,7.0,0.0
21,54.0,0,360,8.0,0.0
22,60.0,0,90,6.0,0.0
23,69.0,19,71,5.0,0.0
24,62.0,90,90,6.0,0.0
25,60.0,0,90,6.0,0.0
26,74.0,2,88,5.0,0.0
27,57.0,90,90,6.0,0.0
28,60.0,88,90,6.0,0.0
29,74.0,2,88,5.0,0.0
30,62.0,71,90,6.0,0.0
31,60.0,109,71,6.0,0.0
32,74.0,90,360,5.0,0.0
33,55.0,90,90,6.0,0.0
34,55.0,0,360,8.0,0.0
35,67.0,0,360,7.0,0.0
36,43.0,0,360,10.0,0.0
37,58.0,90,90,6.0,0.0
38,62.0,71,90,6.0,0.0
39,58.0,19,71,6.0,0.0
40,39.0,17,326,10.0,0.0
41,55.0,91,90,6.0,0.0
42,51.0,2,324,8.0,0.0
43,63.0,0,326,7.0,0.0
44,73.0,0,271,5.0,0.0
45,67.0,90,91,6.0,0.0
46,70.0,53,90,6.0,0.0
47,67.0,17,72,6.0,0.0
48,74.0,97,89,5.0,0.0
49,50.0,97,360,8.0,0.0
50,62.0,0,1795,3.0,0.0
51,38.0,0,353,10.0,0.0
52,66.0,54,90,6.0,0.0
53,74.0,17,144,5.0,0.0
54,62.0,0,353,7.0,0.0
55,50.0,0,1795,3.0,0.0
56,69.0,102,71,6.0,0.0
57,66.0,71,90,6.0,0.0
58,60.0,19,71,6.0,0.0
59,74.0,0,187,5.0,0.0
60,58.0,90,97,6.0,0.0
61,67.0,97,90,6.0,0.0
62,58.0,0,180,8.0,0.0
63,62.0,0,173,7.0,0.0
64,74.0,97,173,1.0,0.0
65,62.0,0,173,2.0,0.0
66,70.0,71,97,6.0,0.0
67,79.0,0,173,5.0,0.0
68,46.0,0,173,10.0,0.0
69,74.0,5,71,6.0,0.0
70,57.0,7,180,8.0,0.0
71,78.0,29,137,5.0,0.0
72,75.0,0,173,1.0,0.0
73,60.0,0,263,7.0,0.0
74,45.0,0,173,10.0,0.0
75,62.0,54,83,6.0,0.0
76,63.0,0,173,2.0,0.0
77,72.0,90,90,6.0,0.0
78,50.0,7,144,8.0,0.0
79,38.0,17,144,10.0,0.0
80,74.0,90,187,1.0,0.0
81,69.0,47,90,6.0,0.0
82,62.0,0,187,2.0,0.0
83,57.0,0,97,7.0,0.0
84,72.0,26,71,6.0,0.0
85,58.0,90,173,7.0,0.0
86,62.0,83,90,6.0,0.0
87,74.0,0,90,5.0,0.0
88,79.0,0,83,5.0,0.0
89,70.0,0,83,6.0,0.0
90,58.0,0,180,8.0,0.0
91,62.0,0,173,2.0,0.0
92,74.0,92,173,1.0,0.0
93,46.0,0,173,10.0,0.0
94,74.0,71,90,6.0,0.0
95,82.0,0,90,5.0,0.0
96,55.0,0,173,7.0,0.0
97,79.0,0,83,5.0,0.0
98,70.0,12,71,6.0,0.0
99,57.0,2,180,8.0,0.0
100,78.0,33,145,5.0,0.0
101,63.0,0,180,2.0,0.0
102,60.0,49,273,7.0,0.0
103,75.0,0,180,1.0,0.0
104,62.0,55,90,6.0,0.0
105,45.0,0,180,10.0,0.0
106,72.0,93,90,6.0,0.0
107,50.0,6,144,8.0,0.0
108,69.0,0,93,6.0,0.0
109,62.0,0,180,2.0,0.0
110,38.0,17,148,10.0,0.0
111,74.0,88,180,1.0,0.0
112,57.0,0,87,7.0,0.0
113,72.0,15,72,6.0,0.0
114,69.0,71,88,6.0,0.0
115,79.0,83,173,5.0,0.0
116,62.0,0,173,7.0,0.0
117,67.0,14,71,6.0,0.0
118,70.0,17,138,5.0,0.0
119,43.0,0,185,10.0,0.0
120,67.0,55,83,6.0,0.0
121,50.0,85,185,7.0,0.0
122,55.0,0,180,8.0,0.0
123,62.0,30,72,6.0,0.0
124,55.0,0,88,6.0,0.0
125,72.0,45,273,5.0,0.0
126,39.0,5,175,10.0,0.0
127,51.0,84,180,8.0,0.0
128,51.0,72,85,7.0,0.0
129,55.0,18,72,7.0,0.0
130,63.0,0,90,6.0,0.0
131,72.0,0,89,1.0,0.0
132,75.0,0,89,1.0,0.0
133,84.0,6,89,0.0,0.0
134,63.0,0,89,2.0,0.0
135,67.0,0,95,6.0,0.0
136,60.0,0,89,2.0,0.0
137,63.0,0,95,7.0,0.0
138,36.0,0,185,10.0,0.0
139,48.0,0,180,8.0,0.0
140,72.0,88,90,6.0,0.0
141,74.0,11,45,5.0,0.0
142,67.0,24,56,7.0,0.0
143,75.0,10,35,5.0,0.0
144,53.0,22,180,8.0,0.0
145,41.0,0,180,10.0,0.0
146,70.0,2,88,1.0,0.0
147,74.0,0,88,1.0,0.0
148,70.0,71,90,6.0,0.0
149,74.0,0,180,5.0,0.0
150,65.0,0,180,7.0,0.0
151,62.0,0,88,2.0,0.0
152,58.0,0,88,2.0,0.0
153,82.0,0,88,0.0,0.0
154,67.0,19,71,6.0,0.0
155,72.0,23,22,5.0,0.0
156,69.0,17,144,7.0,0.0
157,63.0,45,90,6.0,0.0
158,29.0,0,180,10.0,0.0
159,41.0,0,180,8.0,0.0
160,69.0,0,88,1.0,0.0
161,72.0,0,88,1.0,0.0
162,81.0,2,88,0.0,0.0
163,57.0,0,88,2.0,0.0
164,60.0,0,88,2.0,0.0
165,74.0,22,23,5.0,0.0
166,72.0,21,22,5.0,0.0
167,74.0,0,23,5.0,0.0
168,70.0,9,45,5.0,0.0
169,65.0,19,71,6.0,0.0
170,72.0,180,45,5.0,0.0
171,82.0,0,180,0.0,0.0
172,70.0,0,180,5.0,0.0
173,34.0,0,180,10.0,0.0
174,70.0,0,180,1.0,0.0
175,58.0,0,180,2.0,0.0
176,70.0,180,180,7.0,0.0
177,62.0,0,180,6.0,0.0
178,46.0,0,180,8.0,0.0
179,58.0,88,180,8.0,0.0
180,46.0,0,180,10.0,0.0
181,74.0,180,88,5.0,0.0
182,74.0,182,88,5.0,0.0
183,55.0,90,90,6.0,0.0
184,67.0,0,360,7.0,0.0
185,55.0,88,360,8.0,0.0
186,74.0,0,180,5.0,0.0
187,43.0,0,360,10.0,0.0
188,58.0,71,90,6.0,0.0
189,62.0,90,90,6.0,0.0
190,70.0,19,71,5.0,0.0
191,58.0,0,90,6.0,0.0
192,55.0,90,90,6.0,0.0
193,74.0,2,88,5.0,0.0
194,58.0,88,90,6.0,0.0
195,62.0,71,90,6.0,0.0
196,74.0,2,88,5.0,0.0
197,58.0,109,71,6.0,0.0
198,54.0,0,360,8.0,0.0
199,66.0,0,360,7.0,0.0
200,74.0,0,180,5.0,0.0
201,42.0,0,360,10.0,0.0
202,57.0,90,90,6.0,0.0
203,60.0,71,90,6.0,0.0
204,62.0,90,90,6.0,0.0
205,69.0,19,71,5.0,0.0
206,60.0,88,90,6.0,0.0
207,74.0,2,88,5.0,0.0
208,57.0,90,90,6.0,0.0
209,60.0,88,90,6.0,0.0
210,62.0,71,90,6.0,0.0
211,74.0,2,88,5.0,0.0
212,60.0,109,71,6.0,0.0
213,55.0,90,90,6.0,0.0
214,74.0,0,360,5.0,0.0
215,67.0,0,360,7.0,0.0
216,43.0,0,360,10.0,0.0
217,55.0,90,360,8.0,0.0
218,58.0,90,90,6.0,0.0
219,62.0,71,90,6.0,0.0
220,58.0,19,71,6.0,0.0
221,55.0,91,90,6.0,0.0
222,73.0,0,271,5.0,0.0
223,63.0,0,326,7.0,0.0
224,39.0,17,326,10.0,0.0
225,51.0,2,324,8.0,0.0
226,67.0,90,91,6.0,0.0
227,70.0,53,90,6.0,0.0
228,67.0,17,72,6.0,0.0
229,74.0,97,89,5.0,0.0
230,50.0,97,360,8.0,0.0
231,74.0,17,144,5.0,0.0
232,62.0,0,1795,3.0,0.0
233,50.0,0,1795,3.0,0.0
234,62.0,0,353,7.0,0.0
235,66.0,54,90,6.0,0.0
236,38.0,0,353,10.0,0.0
237,69.0,102,71,6.0,0.0
238,66.0,71,90,6.0,0.0
239,60.0,19,71,6.0,0.0
240,58.0,90,97,6.0,0.0
241,74.0,0,187,5.0,0.0
242,67.0,97,90,6.0,0.0
243,58.0,0,180,8.0,0.0
244,70.0,71,97,6.0,0.0
245,62.0,97,173,7.0,0.0
246,62.0,0,173,2.0,0.0
247,46.0,0,173,10.0,0.0
248,79.0,0,173,5.0,0.0
249,74.0,0,173,1.0,0.0
250,74.0,5,71,6.0,0.0
251,57.0,7,180,8.0,0.0
252,45.0,0,173,10.0,0.0
253,62.0,54,83,6.0,0.0
254,60.0,47,263,7.0,0.0
255,75.0,0,173,1.0,0.0
256,78.0,29,137,5.0,0.0
257,63.0,0,173,2.0,0.0
258,72.0,90,90,6.0,0.0
259,50.0,7,144,8.0,0.0
260,38.0,17,144,10.0,0.0
261,62.0,0,187,2.0,0.0
262,69.0,0,90,6.0,0.0
263,74.0,90,187,1.0,0.0
264,72.0,26,71,6.0,0.0
265,57.0,0,97,7.0,0.0
266,62.0,83,90,6.0,0.0
267,74.0,0,90,5.0,0.0
268,58.0,0,173,7.0,0.0
269,79.0,90,83,5.0,0.0
270,70.0,0,83,6.0,0.0
271,58.0,0,180,8.0,0.0
272,74.0,92,173,1.0,0.0
273,82.0,71,90,5.0,0.0
274,46.0,0,173,10.0,0.0
275,74.0,0,90,6.0,0.0
276,55.0,0,173,7.0,0.0
277,62.0,0,173,2.0,0.0
278,70.0,12,71,6.0,0.0
279,79.0,0,83,5.0,0.0
280,57.0,2,180,8.0,0.0
281,45.0,93,180,10.0,0.0
282,75.0,0,180,1.0,0.0
283,62.0,55,90,6.0,0.0
284,63.0,0,180,2.0,0.0
285,60.0,49,273,7.0,0.0
286,78.0,33,145,5.0,0.0
287,72.0,0,90,6.0,0.0
288,50.0,6,144,8.0,0.0
289,69.0,0,93,6.0,0.0
290,62.0,0,180,2.0,0.0
291,74.0,0,180,1.0,0.0
292,38.0,17,148,10.0,0.0
293,57.0,88,87,7.0,0.0
294,72.0,15,72,6.0,0.0
295,79.0,83,173,5.0,0.0
296,69.0,71,88,6.0,0.0
297,62.0,0,173,7.0,0.0
298,67.0,14,71,6.0,0.0
299,43.0,85,185,10.0,0.0
300,50.0,0,185,7.0,0.0
301,70.0,17,138,5.0,0.0
302,67.0,55,83,6.0,0.0
303,55.0,0,180,8.0,0.0
304,62.0,30,72,6.0,0.0
305,55.0,0,88,6.0,0.0
306,72.0,0,273,5.0,0.0
307,39.0,5,175,10.0,0.0
308,51.0,84,180,8.0,0.0
309,51.0,72,85,7.0,0.0
310,55.0,18,72,7.0,0.0
311,63.0,0,90,6.0,0.0
312,63.0,0,89,2.0,0.0
313,63.0,0,95,7.0,0.0
314,75.0,0,89,1.0,0.0
315,67.0,45,95,6.0,0.0
316,72.0,0,89,1.0,0.0
317,60.0,6,89,2.0,0.0
318,84.0,0,89,0.0,0.0
319,36.0,0,185,10.0,0.0
320,48.0,0,180,8.0,0.0
321,72.0,88,90,6.0,0.0
322,74.0,11,45,5.0,0.0
323,67.0,24,56,7.0,0.0
324,75.0,10,35,5.0,0.0
325,82.0,0,88,0.0,0.0
326,70.0,71,90,6.0,0.0
327,74.0,0,88,1.0,0.0
328,58.0,2,88,2.0,0.0
329,65.0,0,180,7.0,0.0
330,53.0,0,180,8.0,0.0
331,70.0,0,88,1.0,0.0
332,62.0,0,88,2.0,0.0
333,74.0,0,180,5.0,0.0
334,41.0,22,180,10.0,0.0
335,67.0,19,71,6.0,0.0
336,63.0,0,90,6.0,0.0
337,72.0,0,88,1.0,0.0
338,69.0,0,88,1.0,0.0
339,41.0,0,180,8.0,0.0
340,72.0,23,22,5.0,0.0
341,29.0,180,180,10.0,0.0
342,81.0,0,88,0.0,0.0
343,60.0,0,88,2.0,0.0
344,57.0,2,88,2.0,0.0
345,69.0,17,144,7.0,0.0
346,74.0,22,23,5.0,0.0
347,72.0,21,22,5.0,0.0
348,74.0,45,23,5.0,0.0
349,70.0,9,45,5.0,0.0
350,65.0,19,71,6.0,0.0
351,72.0,0,45,5.0,0.0
352,70.0,0,180,7.0,0.0
353,58.0,0,180,2.0,0.0
354,70.0,0,180,1.0,0.0
355,34.0,0,180,10.0,0.0
356,70.0,0,180,5.0,0.0
357,82.0,180,180,0.0,0.0
358,62.0,0,180,6.0,0.0
359,46.0,0,180,8.0,0.0
360,46.0,0,180,10.0,0.0
361,58.0,88,180,8.0,0.0
362,77.0,2,88,5.0,0.0
363,62.0,0,90,6.0,0.0
364,58.0,90,90,7.0,0.0
365,65.0,88,90,6.0,0.0
366,62.0,0,90,7.0,0.0
367,77.0,2,88,5.0,0.0
368,65.0,71,90,7.0,0.0
369,70.0,0,90,6.0,0.0
370,65.0,0,71,6.0,0.0
371,62.0,379,71,7.0,0.0
372,70.0,0,360,7.0,0.0
373,77.0,90,450,5.0,0.0
374,74.0,0,360,6.0,0.0
375,58.0,0,180,8.0,0.0
376,46.0,90,180,10.0,0.0
377,55.0,0,180,8.0,0.0
378,67.0,0,180,7.0,0.0
379,70.0,0,261,6.0,0.0
380,43.0,0,180,10.0,0.0
381,76.0,81,90,5.0,0.0
382,64.0,8,136,7.0,0.0
383,52.0,9,144,8.0,0.0
384,40.0,0,136,10.0,0.0
385,79.0,55,81,5.0,0.0
386,67.0,0,72,6.0,0.0
387,76.0,198,72,5.0,0.0
388,74.0,145,179,5.0,0.0
389,69.0,0,368,7.0,0.0
390,65.0,0,179,6.0,0.0
391,45.0,0,368,10.0,0.0
392,57.0,360,360,8.0,0.0
393,73.0,44,145,5.0,0.0
394,64.0,0,145,6.0,0.0
395,50.0,0,360,2.0,0.0
396,81.0,84,810,0.0,0.0
397,50.0,0,360,3.0,0.0
398,62.0,0,360,3.0,0.0
399,62.0,0,360,2.0,0.0
400,62.0,0,360,7.0,0.0
401,69.0,0,360,6.0,0.0
402,50.0,180,360,8.0,0.0
403,81.0,0,540,5.0,0.0
404,62.0,0,360,6.0,0.0
405,77.0,0,540,1.0,0.0
406,77.0,0,540,6.0,0.0
407,69.0,0,360,5.0,0.0
408,38.0,0,360,10.0,0.0
409,69.0,90,540,1.0,0.0
410,76.0,0,90,6.0,0.0
411,79.0,71,90,5.0,0.0
412,74.0,0,71,6.0,0.0
413,77.0,109,71,5.0,0.0
414,77.0,0,90,5.0,0.0
415,69.0,0,90,6.0,0.0
416,45.0,0,174,10.0,0.0
417,57.0,80,180,8.0,0.0
418,76.0,6,84,5.0,0.0
419,67.0,0,84,6.0,0.0
420,79.0,0,84,0.0,0.0
421,33.0,82,186,10.0,0.0
422,65.0,0,86,6.0,0.0
423,69.0,0,0,7.0,0.0
424,77.0,71,86,0.0,0.0
425,74.0,0,86,5.0,0.0
426,45.0,0,180,8.0,0.0
427,64.0,29,71,6.0,0.0
428,73.0,0,71,5.0,0.0
429,76.0,0,100,0.0,0.0
430,65.0,0,178,6.0,0.0
431,74.0,0,178,5.0,0.0
432,74.0,90,82,0.0,0.0
433,69.0,0,172,7.0,0.0
434,50.0,85,180,8.0,0.0
435,38.0,0,172,10.0,0.0
436,76.0,8,90,0.0,0.0
437,77.0,95,93,0.0,0.0
438,78.0,90,95,0.0,0.0
439,67.0,71,90,6.0,0.0
440,79.0,5,1255,0.0,0.0
441,75.0,0,90,5.0,0.0
442,65.0,19,71,6.0,0.0
443,74.0,0,71,5.0,0.0
444,63.0,0,43,6.0,0.0
445,67.0,0,180,7.0,0.0
446,79.0,43,0,1.0,0.0
447,67.0,0,0,1.0,0.0
448,72.0,93,43,5.0,0.0
449,43.0,0,180,10.0,0.0
450,55.0,25,180,8.0,0.0
451,71.0,0,44,5.0,0.0
452,62.0,44,44,6.0,0.0
453,60.0,2,360,8.0,0.0
454,79.0,0,898,1.0,0.0
455,67.0,0,898,1.0,0.0
456,63.0,0,23,6.0,0.0
457,67.0,88,360,7.0,0.0
458,72.0,22,23,5.0,0.0
459,48.0,0,360,10.0,0.0
460,65.0,0,22,6.0,0.0
461,74.0,45,22,5.0,0.0
462,63.0,72,45,6.0,0.0
463,72.0,0,45,5.0,0.0
464,71.0,0,72,5.0,0.0
465,62.0,62,72,6.0,0.0
466,72.0,90,44,5.0,0.0
467,63.0,0,44,6.0,0.0
468,65.0,44,44,6.0,0.0
469,74.0,0,44,5.0,0.0
470,67.0,0,88,6.0,0.0
471,75.0,71,88,5.0,0.0
472,74.0,0,71,5.0,0.0
473,65.0,62,71,6.0,0.0
474,43.0,0,180,10.0,0.0
475,67.0,175,180,7.0,0.0
476,55.0,0,180,8.0,0.0
477,72.0,86,43,5.0,0.0
478,63.0,0,43,6.0,0.0
479,62.0,51,44,6.0,0.0
480,71.0,0,44,5.0,0.0
481,63.0,0,183,6.0,0.0
482,72.0,180,183,5.0,0.0
483,36.0,88,360,10.0,0.0
484,48.0,0,360,8.0,0.0
485,67.0,0,180,7.0,0.0
486,68.0,88,180,6.0,0.0
487,72.0,92,88,5.0,0.0
488,63.0,88,180,7.0,0.0
489,72.0,56,88,5.0,0.0
490,67.0,36,144,6.0,0.0
491,72.0,71,180,5.0,0.0
492,66.0,92,88,6.0,0.0
493,62.0,124,324,7.0,0.0
494,69.0,73,71,5.0,0.0
495,44.0,0,180,10.0,0.0
496,63.0,0,88,2.0,0.0
497,78.0,92,88,5.0,0.0
498,56.0,88,180,8.0,0.0
499,72.0,0,88,6.0,0.0
500,87.0,0,88,0.0,0.0
501,75.0,0,88,1.0,0.0
502,43.0,124,144,10.0,0.0
503,75.0,56,88,1.0,0.0
504,87.0,0,88,0.0,0.0
505,63.0,0,88,2.0,0.0
506,55.0,0,144,8.0,0.0
507,81.0,0,88,6.0,0.0
508,54.0,0,180,8.0,0.0
509,63.0,0,180,2.0,0.0
510,87.0,0,180,0.0,0.0
511,42.0,0,180,10.0,0.0
512,84.0,92,88,5.0,0.0
513,75.0,90,180,1.0,0.0
514,74.0,0,90,1.0,0.0
515,62.0,270,90,2.0,0.0
516,86.0,0,90,0.0,0.0
517,43.0,0,180,8.0,0.0
518,61.0,0,180,6.0,0.0
519,82.0,0,180,5.0,0.0
520,31.0,0,180,10.0,0.0
521,52.0,144,180,7.0,0.0
522,73.0,216,144,5.0,0.0
523,70.0,0,144,6.0,0.0
524,43.0,0,144,10.0,0.0
525,64.0,0,144,7.0,0.0
526,55.0,0,144,8.0,0.0
527,54.0,9,180,8.0,0.0
528,42.0,0,180,10.0,0.0
529,66.0,0,180,7.0,0.0
530,69.0,86,180,6.0,0.0
531,74.0,0,180,5.0,0.0
532,55.0,0,180,8.0,0.0
533,72.0,85,86,5.0,0.0
534,62.0,78,256,6.0,0.0
535,67.0,0,171,7.0,0.0
536,43.0,85,171,10.0,0.0
537,70.0,0,85,5.0,0.0
538,48.0,73,180,8.0,0.0
539,63.0,0,163,7.0,0.0
540,36.0,17,163,10.0,0.0
541,70.0,0,85,5.0,0.0
542,60.0,0,78,6.0,0.0
543,69.0,0,78,5.0,0.0
544,67.0,54,90,5.0,0.0
545,38.0,0,144,10.0,0.0
546,62.0,17,144,7.0,0.0
547,58.0,0,90,6.0,0.0
548,50.0,36,144,8.0,0.0
549,66.0,172,107,5.0,0.0
550,57.0,0,71,6.0,0.0
551,82.0,0,181,0.0,0.0
552,67.0,180,726,3.0,0.0
553,55.0,0,726,3.0,0.0
554,67.0,0,178,7.0,0.0
555,55.0,0,546,2.0,0.0
556,55.0,183,178,6.0,0.0
557,58.0,0,178,2.0,0.0
558,67.0,144,546,1.0,0.0
559,70.0,0,178,1.0,0.0
560,39.0,0,546,10.0,0.0
561,67.0,0,172,5.0,0.0
562,51.0,0,540,8.0,0.0
563,59.0,2,183,2.0,0.0
564,71.0,0,183,1.0,0.0
565,83.0,183,185,0.0,0.0
566,72.0,0,185,1.0,0.0
567,55.0,0,185,7.0,0.0
568,67.0,0,185,6.0,0.0
569,60.0,0,185,2.0,0.0
570,79.0,0,185,5.0,0.0
571,84.0,0,183,0.0,0.0
572,67.0,36,144,7.0,0.0
573,73.0,0,144,5.0,0.0
574,85.0,0,144,0.0,0.0
575,40.0,0,180,10.0,0.0
576,58.0,0,144,2.0,0.0
577,52.0,0,180,8.0,0.0
578,70.0,0,144,1.0,0.0
579,73.0,0,144,1.0,0.0
580,70.0,0,144,6.0,0.0
581,61.0,0,144,2.0,0.0
582,57.0,0,180,2.0,0.0
583,62.0,0,540,2.0,0.0
584,69.0,0,180,6.0,0.0
585,74.0,0,540,1.0,0.0
586,69.0,0,180,1.0,0.0
587,86.0,0,540,0.0,0.0
588,62.0,0,180,7.0,0.0
589,69.0,36,324,3.0,0.0
590,62.0,0,324,3.0,0.0
591,74.0,0,540,5.0,0.0
592,53.0,0,180,8.0,0.0
593,41.0,144,180,10.0,0.0
594,60.0,0,180,2.0,0.0
595,72.0,0,144,6.0,0.0
596,42.0,0,180,10.0,0.0
597,72.0,180,180,1.0,0.0
598,69.0,0,180,7.0,0.0
599,54.0,0,180,8.0,0.0
600,58.0,0,180,2.0,0.0
601,70.0,0,180,6.0,0.0
602,67.0,0,180,7.0,0.0
603,55.0,0,180,8.0,0.0
604,55.0,0,180,3.0,0.0
605,67.0,90,180,3.0,0.0
606,70.0,0,180,1.0,0.0
607,43.0,0,180,10.0,0.0
608,62.0,95,180,7.0,0.0
609,72.0,0,90,5.0,0.0
610,72.0,71,90,1.0,0.0
611,84.0,0,90,0.0,0.0
612,60.0,0,90,2.0,0.0
613,69.0,0,90,6.0,0.0
614,58.0,0,71,2.0,0.0
615,70.0,0,71,1.0,0.0
616,70.0,0,71,5.0,0.0
617,82.0,0,71,0.0,0.0
618,67.0,19,71,6.0,0.0
619,48.0,2,180,8.0,0.0
620,58.0,0,90,2.0,0.0
621,63.0,0,265,6.0,0.0
622,70.0,0,90,5.0,0.0
623,60.0,0,177,7.0,0.0
624,82.0,0,90,0.0,0.0
625,70.0,85,90,1.0,0.0
626,69.0,88,87,1.0,0.0
627,57.0,0,87,2.0,0.0
628,69.0,0,87,5.0,0.0
629,81.0,0,87,0.0,0.0
630,48.0,174,180,8.0,0.0
631,84.0,0,88,0.0,0.0
632,60.0,54,88,2.0,0.0
633,36.0,0,0,10.0,0.0
634,63.0,17,142,7.0,0.0
635,72.0,0,88,5.0,0.0
636,72.0,0,88,1.0,0.0
637,81.0,0,71,0.0,0.0
638,57.0,16,71,2.0,0.0
639,69.0,0,71,1.0,0.0
640,69.0,0,71,5.0,0.0
641,60.0,0,71,6.0,0.0
642,79.0,0,177,0.0,0.0
643,62.0,0,177,7.0,0.0
644,67.0,0,177,5.0,0.0
645,67.0,0,177,1.0,0.0
646,58.0,0,177,6.0,0.0
647,55.0,0,177,2.0,0.0
648,57.0,0,186,6.0,0.0
649,66.0,180,186,5.0,0.0
650,78.0,0,186,0.0,0.0
651,62.0,0,0,3.0,0.0
652,54.0,41,145,2.0,0.0
653,60.0,0,186,7.0,0.0
654,38.0,6,0,10.0,0.0
655,66.0,0,145,1.0,0.0
656,50.0,139,0,8.0,0.0
657,55.0,0,182,2.0,0.0
658,67.0,0,182,1.0,0.0
659,55.0,0,180,6.0,0.0
660,79.0,0,180,0.0,0.0
661,67.0,0,180,5.0,0.0
662,55.0,0,180,3.0,0.0
663,62.0,0,180,3.0,0.0
664,31.0,0,180,10.0,0.0
665,58.0,0,180,7.0,0.0
666,43.0,270,180,8.0,0.0
667,77.0,0,89,5.0,0.0
668,58.0,0,89,7.0,0.0
669,62.0,90,89,6.0,0.0
670,65.0,0,90,6.0,0.0
671,62.0,88,90,7.0,0.0
672,77.0,2,88,5.0,0.0
673,65.0,0,90,7.0,0.0
674,70.0,71,90,6.0,0.0
675,65.0,379,71,6.0,0.0
676,62.0,0,71,7.0,0.0
677,77.0,90,450,5.0,0.0
678,70.0,0,360,7.0,0.0
679,74.0,0,360,6.0,0.0
680,58.0,90,180,8.0,0.0
681,46.0,0,180,10.0,0.0
682,43.0,0,180,10.0,0.0
683,70.0,0,267,6.0,0.0
684,67.0,0,180,7.0,0.0
685,55.0,87,180,8.0,0.0
686,76.0,0,90,5.0,0.0
687,40.0,2,142,10.0,0.0
688,79.0,55,87,5.0,0.0
689,64.0,0,142,7.0,0.0
690,52.0,14,144,8.0,0.0
691,76.0,0,71,5.0,0.0
692,67.0,197,71,6.0,0.0
693,74.0,0,178,5.0,0.0
694,69.0,360,363,7.0,0.0
695,65.0,145,178,6.0,0.0
696,45.0,0,363,10.0,0.0
697,57.0,0,360,8.0,0.0
698,64.0,0,145,6.0,0.0
699,73.0,40,145,5.0,0.0
700,50.0,0,360,3.0,0.0
701,50.0,0,360,8.0,0.0
702,62.0,0,360,3.0,0.0
703,62.0,0,360,2.0,0.0
704,69.0,0,360,6.0,0.0
705,62.0,0,360,6.0,0.0
706,50.0,180,360,2.0,0.0
707,69.0,0,360,5.0,0.0
708,77.0,0,540,1.0,0.0
709,69.0,0,540,1.0,0.0
710,81.0,0,540,5.0,0.0
711,81.0,85,810,0.0,0.0
712,62.0,0,360,7.0,0.0
713,77.0,90,540,6.0,0.0
714,38.0,0,360,10.0,0.0
715,76.0,0,90,6.0,0.0
716,79.0,71,90,5.0,0.0
717,77.0,109,71,5.0,0.0
718,74.0,0,71,6.0,0.0
719,45.0,0,175,10.0,0.0
720,77.0,0,90,5.0,0.0
721,57.0,81,180,8.0,0.0
722,69.0,0,90,6.0,0.0
723,79.0,5,85,0.0,0.0
724,76.0,0,85,5.0,0.0
725,67.0,0,85,6.0,0.0
726,69.0,0,0,7.0,0.0
727,74.0,0,86,5.0,0.0
728,33.0,0,185,10.0,0.0
729,65.0,0,86,6.0,0.0
730,77.0,72,86,0.0,0.0
731,45.0,0,180,8.0,0.0
732,73.0,0,72,5.0,0.0
733,64.0,27,72,6.0,0.0
734,76.0,0,99,0.0,0.0
735,74.0,0,178,5.0,0.0
736,65.0,0,178,6.0,0.0
737,38.0,0,172,10.0,0.0
738,69.0,82,0,7.0,0.0
739,74.0,90,82,0.0,0.0
740,50.0,85,180,8.0,0.0
741,76.0,0,90,0.0,0.0
742,77.0,95,93,0.0,0.0
743,78.0,90,95,0.0,0.0
744,75.0,71,90,5.0,0.0
745,79.0,5,1255,0.0,0.0
746,67.0,0,180,1.0,0.0
747,67.0,0,90,6.0,0.0
748,74.0,0,71,5.0,0.0
749,65.0,19,71,6.0,0.0
750,72.0,0,43,5.0,0.0
751,79.0,43,0,1.0,0.0
752,67.0,25,180,1.0,0.0
753,67.0,0,180,7.0,0.0
754,55.0,0,180,8.0,0.0
755,63.0,93,43,6.0,0.0
756,43.0,0,180,10.0,0.0
757,71.0,0,44,5.0,0.0
758,62.0,44,44,6.0,0.0
759,60.0,2,360,8.0,0.0
760,72.0,22,23,5.0,0.0
761,67.0,180,898,1.0,0.0
762,48.0,88,360,10.0,0.0
763,79.0,0,898,1.0,0.0
764,63.0,0,23,6.0,0.0
765,67.0,0,360,7.0,0.0
766,65.0,0,22,6.0,0.0
767,74.0,45,22,5.0,0.0
768,72.0,0,45,5.0,0.0
769,63.0,72,45,6.0,0.0
770,71.0,0,72,5.0,0.0
771,62.0,62,72,6.0,0.0
772,72.0,0,44,5.0,0.0
773,63.0,90,44,6.0,0.0
774,65.0,44,44,6.0,0.0
775,74.0,0,44,5.0,0.0
776,67.0,71,88,6.0,0.0
777,75.0,0,88,5.0,0.0
778,74.0,0,71,5.0,0.0
779,65.0,62,71,6.0,0.0
780,55.0,0,180,8.0,0.0
781,72.0,0,43,5.0,0.0
782,43.0,175,180,10.0,0.0
783,67.0,0,180,7.0,0.0
784,63.0,86,43,6.0,0.0
785,71.0,51,44,5.0,0.0
786,62.0,0,44,6.0,0.0
787,72.0,0,183,5.0,0.0
788,63.0,0,183,6.0,0.0
789,48.0,0,360,8.0,0.0
790,67.0,0,180,7.0,0.0
791,36.0,88,360,10.0,0.0
792,68.0,88,180,6.0,0.0
793,72.0,92,88,5.0,0.0
794,67.0,36,144,6.0,0.0
795,72.0,56,88,5.0,0.0
796,63.0,88,180,7.0,0.0
797,66.0,92,88,6.0,0.0
798,72.0,71,180,5.0,0.0
799,62.0,124,324,7.0,0.0
800,69.0,73,71,5.0,0.0
801,78.0,92,88,5.0,0.0
802,72.0,0,88,6.0,0.0
803,56.0,0,180,8.0,0.0
804,75.0,0,88,1.0,0.0
805,87.0,0,88,0.0,0.0
806,63.0,0,88,2.0,0.0
807,44.0,88,180,10.0,0.0
808,63.0,56,88,2.0,0.0
809,87.0,0,88,0.0,0.0
810,75.0,0,88,1.0,0.0
811,55.0,124,144,8.0,0.0
812,43.0,0,144,10.0,0.0
813,63.0,90,180,2.0,0.0
814,84.0,0,88,5.0,0.0
815,42.0,0,180,10.0,0.0
816,75.0,0,180,1.0,0.0
817,81.0,92,88,6.0,0.0
818,54.0,0,180,8.0,0.0
819,87.0,0,180,0.0,0.0
820,86.0,270,90,0.0,0.0
821,74.0,0,90,1.0,0.0
822,62.0,0,90,2.0,0.0
823,82.0,0,180,5.0,0.0
824,61.0,0,180,6.0,0.0
825,52.0,144,180,7.0,0.0
826,43.0,0,180,8.0,0.0
827,31.0,0,180,10.0,0.0
828,70.0,216,144,6.0,0.0
829,73.0,0,144,5.0,0.0
830,43.0,0,144,10.0,0.0
831,64.0,0,144,7.0,0.0
832,55.0,0,144,8.0,0.0
833,54.0,9,180,8.0,0.0
834,69.0,0,180,6.0,0.0
835,74.0,0,180,5.0,0.0
836,42.0,86,180,10.0,0.0
837,66.0,0,180,7.0,0.0
838,55.0,0,180,8.0,0.0
839,72.0,85,86,5.0,0.0
840,67.0,85,171,7.0,0.0
841,43.0,0,171,10.0,0.0
842,62.0,78,256,6.0,0.0
843,70.0,0,85,5.0,0.0
844,36.0,0,163,10.0,0.0
845,48.0,73,180,8.0,0.0
846,63.0,0,163,7.0,0.0
847,70.0,0,85,5.0,0.0
848,60.0,17,78,6.0,0.0
849,69.0,0,78,5.0,0.0
850,38.0,0,144,10.0,0.0
851,67.0,54,90,5.0,0.0
852,62.0,17,144,7.0,0.0
853,58.0,0,90,6.0,0.0
854,50.0,36,144,8.0,0.0
855,57.0,0,71,6.0,0.0
856,66.0,172,107,5.0,0.0
857,82.0,0,181,0.0,0.0
858,55.0,0,546,2.0,0.0
859,58.0,0,178,2.0,0.0
860,67.0,0,178,7.0,0.0
861,67.0,0,726,3.0,0.0
862,70.0,183,178,1.0,0.0
863,67.0,0,546,1.0,0.0
864,39.0,0,546,10.0,0.0
865,55.0,0,726,3.0,0.0
866,55.0,0,178,6.0,0.0
867,51.0,0,540,8.0,0.0
868,67.0,0,172,5.0,0.0
869,83.0,183,185,0.0,0.0
870,71.0,2,183,1.0,0.0
871,59.0,0,183,2.0,0.0
872,67.0,144,185,6.0,0.0
873,79.0,0,185,5.0,0.0
874,72.0,0,185,1.0,0.0
875,55.0,0,185,7.0,0.0
876,60.0,0,185,2.0,0.0
877,84.0,0,183,0.0,0.0
878,40.0,180,180,10.0,0.0
879,58.0,0,144,2.0,0.0
880,61.0,0,144,2.0,0.0
881,67.0,36,144,7.0,0.0
882,73.0,0,144,5.0,0.0
883,70.0,0,144,1.0,0.0
884,52.0,0,180,8.0,0.0
885,73.0,0,144,1.0,0.0
886,70.0,0,144,6.0,0.0
887,85.0,0,144,0.0,0.0
888,57.0,0,180,2.0,0.0
889,62.0,0,540,2.0,0.0
890,53.0,0,180,8.0,0.0
891,86.0,0,540,0.0,0.0
892,69.0,0,324,3.0,0.0
893,62.0,36,324,3.0,0.0
894,62.0,0,180,7.0,0.0
895,74.0,0,540,5.0,0.0
896,69.0,144,180,6.0,0.0
897,69.0,0,180,1.0,0.0
898,41.0,0,180,10.0,0.0
899,74.0,0,540,1.0,0.0
900,69.0,0,180,7.0,0.0
901,60.0,0,180,2.0,0.0
902,42.0,0,180,10.0,0.0
903,72.0,0,180,1.0,0.0
904,54.0,180,180,8.0,0.0
905,72.0,0,144,6.0,0.0
906,43.0,0,180,10.0,0.0
907,58.0,0,180,2.0,0.0
908,70.0,0,180,1.0,0.0
909,67.0,0,180,3.0,0.0
910,55.0,90,180,3.0,0.0
911,70.0,0,180,6.0,0.0
912,67.0,0,180,7.0,0.0
913,55.0,0,180,8.0,0.0
914,69.0,0,90,6.0,0.0
915,72.0,0,90,1.0,0.0
916,72.0,0,90,5.0,0.0
917,84.0,71,90,0.0,0.0
918,62.0,95,180,7.0,0.0
919,60.0,0,90,2.0,0.0
920,70.0,0,71,5.0,0.0
921,70.0,0,71,1.0,0.0
922,67.0,0,71,6.0,0.0
923,82.0,0,71,0.0,0.0
924,58.0,19,71,2.0,0.0
925,63.0,0,265,6.0,0.0
926,36.0,88,177,10.0,0.0
927,82.0,0,90,0.0,0.0
928,70.0,85,90,5.0,0.0
929,70.0,0,90,1.0,0.0
930,58.0,0,90,2.0,0.0
931,60.0,0,177,7.0,0.0
932,81.0,0,87,0.0,0.0
933,69.0,0,87,5.0,0.0
934,57.0,0,87,2.0,0.0
935,69.0,0,87,1.0,0.0
936,48.0,2,0,8.0,0.0
937,63.0,17,142,7.0,0.0
938,72.0,0,88,1.0,0.0
939,60.0,54,88,2.0,0.0
940,84.0,0,88,0.0,0.0
941,72.0,0,88,5.0,0.0
942,36.0,3,175,10.0,0.0
943,69.0,0,71,5.0,0.0
944,81.0,0,71,0.0,0.0
945,57.0,0,71,2.0,0.0
946,69.0,0,71,1.0,0.0
947,60.0,16,71,6.0,0.0
948,67.0,0,177,1.0,0.0
949,58.0,6,177,6.0,0.0
950,79.0,0,177,0.0,0.0
951,55.0,0,177,2.0,0.0
952,67.0,0,177,5.0,0.0
953,62.0,0,177,7.0,0.0
954,62.0,0,0,3.0,0.0
955,54.0,0,145,2.0,0.0
956,66.0,41,145,1.0,0.0
957,38.0,0,0,10.0,0.0
958,60.0,180,186,7.0,0.0
959,57.0,0,186,6.0,0.0
960,66.0,0,186,5.0,0.0
961,78.0,0,186,0.0,0.0
962,50.0,139,0,8.0,0.0
963,55.0,0,182,2.0,0.0
964,67.0,0,182,1.0,0.0
965,31.0,0,180,10.0,0.0
966,55.0,0,180,6.0,0.0
967,58.0,0,180,7.0,0.0
968,43.0,270,180,8.0,0.0
969,67.0,0,180,5.0,0.0
970,55.0,0,180,3.0,0.0
971,62.0,0,180,3.0,0.0
972,79.0,0,180,0.0,0.0
973,74.0,90,89,4.0,0.0
974,74.0,90,90,4.0,0.0
975,74.0,90,90,4.0,0.0
976,74.0,90,90,4.0,0.0
977,73.0,90,90,4.0,0.0
978,55.0,0,90,4.0,0.0
979,74.0,90,90,4.0,0.0
980,58.0,0,90,4.0,0.0
981,62.0,90,90,4.0,0.0
982,58.0,90,90,4.0,0.0
983,55.0,0,90,4.0,0.0
984,58.0,0,90,4.0,0.0
985,74.0,90,0,4.0,0.0
986,62.0,0,90,4.0,0.0
987,74.0,90,0,4.0,0.0
988,74.0,0,90,4.0,0.0
989,58.0,90,90,4.0,0.0
990,54.0,0,90,4.0,0.0
991,75.0,90,90,4.0,0.0
992,74.0,90,90,4.0,0.0
993,57.0,0,90,4.0,0.0
994,62.0,90,90,4.0,0.0
995,57.0,90,90,4.0,0.0
996,54.0,90,90,4.0,0.0
997,74.0,0,0,4.0,0.0
998,57.0,0,90,4.0,0.0
999,60.0,0,90,4.0,0.0
1000,74.0,90,0,4.0,0.0
1001,74.0,90,0,4.0,0.0
1002,57.0,0,90,4.0,0.0
1003,79.0,29,90,4.0,0.0
1004,55.0,0,175,4.0,0.0
1005,58.0,0,175,4.0,0.0
1006,81.0,30,29,4.0,0.0
1007,79.0,26,30,4.0,0.0
1008,78.0,95,26,4.0,0.0
1009,79.0,43,95,4.0,0.0
1010,81.0,90,43,4.0,0.0
1011,82.0,96,43,4.0,0.0
1012,63.0,0,360,4.0,0.0
1013,67.0,187,360,4.0,0.0
1014,83.0,100,44,4.0,0.0
1015,84.0,95,44,4.0,0.0
1016,85.0,26,43,4.0,0.0
1017,86.0,272,171,4.0,0.0
1018,62.0,0,171,4.0,0.0
1019,66.0,0,171,4.0,0.0
1020,74.0,95,92,4.0,0.0
1021,82.0,43,95,4.0,0.0
1022,58.0,98,166,4.0,0.0
1023,62.0,0,166,4.0,0.0
1024,81.0,90,43,4.0,0.0
1025,79.0,33,43,4.0,0.0
1026,78.0,89,89,4.0,0.0
1027,62.0,0,359,4.0,0.0
1028,57.0,0,178,4.0,0.0
1029,84.0,43,89,4.0,0.0
1030,50.0,91,181,4.0,0.0
1031,81.0,90,43,4.0,0.0
1032,78.0,48,43,4.0,0.0
1033,79.0,83,91,4.0,0.0
1034,86.0,45,83,4.0,0.0
1035,84.0,43,45,4.0,0.0
1036,62.0,0,178,4.0,0.0
1037,58.0,0,178,4.0,0.0
1038,82.0,45,43,4.0,0.0
1039,81.0,45,45,4.0,0.0
1040,79.0,45,45,4.0,0.0
1041,57.0,0,180,4.0,0.0
1042,62.0,0,180,4.0,0.0
1043,60.0,45,180,4.0,0.0
1044,78.0,45,45,4.0,0.0
1045,87.0,45,45,4.0,0.0
1046,86.0,45,45,4.0,0.0
1047,84.0,0,45,4.0,0.0
1048,82.0,45,45,4.0,0.0
1049,50.0,0,180,4.0,0.0
1050,81.0,45,45,4.0,0.0
1051,79.0,45,45,4.0,0.0
1052,78.0,45,45,4.0,0.0
1053,58.0,0,360,7.0,0.0
1054,62.0,0,360,7.0,0.0
1055,55.0,0,360,8.0,0.0
1056,43.0,0,360,10.0,0.0
1057,70.0,0,360,6.0,0.0
1058,74.0,37,360,5.0,0.0
1059,81.0,45,45,4.0,0.0
1060,79.0,45,45,4.0,0.0
1061,82.0,37,45,4.0,0.0
1062,81.0,45,37,4.0,0.0
1063,79.0,41,45,4.0,0.0
1064,55.0,0,188,4.0,0.0
1065,58.0,0,188,4.0,0.0
1066,77.0,45,41,4.0,0.0
1067,75.0,57,45,4.0,0.0
1068,74.0,0,57,4.0,0.0
1069,71.0,47,37,4.0,0.0
1070,39.0,0,358,10.0,0.0
1071,72.0,0,358,6.0,0.0
1072,51.0,178,360,8.0,0.0
1073,60.0,0,358,7.0,0.0
1074,55.0,45,175,4.0,0.0
1075,63.0,2,358,7.0,0.0
1076,75.0,0,358,5.0,0.0
1077,51.0,0,358,4.0,0.0
1078,72.0,45,47,4.0,0.0
1079,74.0,46,45,4.0,0.0
1080,75.0,0,46,4.0,0.0
1081,60.0,0,183,4.0,0.0
1082,77.0,47,45,4.0,0.0
1083,79.0,45,47,4.0,0.0
1084,77.0,46,45,4.0,0.0
1085,75.0,0,46,4.0,0.0
1086,41.0,1,325,10.0,0.0
1087,70.0,0,180,6.0,0.0
1088,74.0,0,180,4.0,0.0
1089,58.0,0,180,4.0,0.0
1090,53.0,144,362,4.0,0.0
1091,74.0,0,180,5.0,0.0
1092,62.0,0,180,7.0,0.0
1093,58.0,23,180,7.0,0.0
1094,53.0,36,324,8.0,0.0
1095,72.0,0,145,5.0,0.0
1096,72.0,22,23,4.0,0.0
1097,57.0,0,182,4.0,0.0
1098,57.0,0,145,7.0,0.0
1099,69.0,0,145,6.0,0.0
1100,60.0,0,145,7.0,0.0
1101,74.0,23,22,4.0,0.0
1102,72.0,22,23,4.0,0.0
1103,74.0,45,22,4.0,0.0
1104,70.0,10,45,4.0,0.0
1105,72.0,0,47,4.0,0.0
1106,70.0,0,182,5.0,0.0
1107,34.0,0,182,10.0,0.0
1108,58.0,0,182,7.0,0.0
1109,70.0,0,182,6.0,0.0
1110,70.0,36,144,4.0,0.0
1111,58.0,180,180,4.0,0.0
1112,46.0,0,180,8.0,0.0
1113,46.0,90,180,4.0,0.0
1114,74.0,90,0,4.0,0.0
1115,74.0,90,0,4.0,0.0
1116,74.0,90,90,4.0,0.0
1117,73.0,90,90,4.0,0.0
1118,55.0,0,90,4.0,0.0
1119,74.0,0,90,4.0,0.0
1120,58.0,90,90,4.0,0.0
1121,62.0,90,90,4.0,0.0
1122,58.0,90,90,4.0,0.0
1123,74.0,90,90,4.0,0.0
1124,55.0,0,90,4.0,0.0
1125,74.0,0,90,4.0,0.0
1126,58.0,90,90,4.0,0.0
1127,74.0,0,90,4.0,0.0
1128,62.0,90,90,4.0,0.0
1129,58.0,0,90,4.0,0.0
1130,74.0,90,90,4.0,0.0
1131,75.0,90,90,4.0,0.0
1132,54.0,0,90,4.0,0.0
1133,74.0,90,90,4.0,0.0
1134,57.0,0,90,4.0,0.0
1135,62.0,90,90,4.0,0.0
1136,57.0,90,90,4.0,0.0
1137,54.0,90,90,4.0,0.0
1138,57.0,0,90,4.0,0.0
1139,74.0,0,0,4.0,0.0
1140,74.0,90,90,4.0,0.0
1141,60.0,0,90,4.0,0.0
1142,57.0,0,90,4.0,0.0
1143,74.0,90,90,4.0,0.0
1144,79.0,29,90,4.0,0.0
1145,55.0,0,175,4.0,0.0
1146,58.0,0,175,4.0,0.0
1147,81.0,30,29,4.0,0.0
1148,79.0,26,30,4.0,0.0
1149,78.0,95,26,4.0,0.0
1150,79.0,43,95,4.0,0.0
1151,81.0,90,43,4.0,0.0
1152,67.0,0,360,4.0,0.0
1153,63.0,187,360,4.0,0.0
1154,82.0,97,43,4.0,0.0
1155,83.0,100,43,4.0,0.0
1156,84.0,97,44,4.0,0.0
1157,85.0,23,44,4.0,0.0
1158,66.0,272,171,4.0,0.0
1159,62.0,0,171,4.0,0.0
1160,86.0,0,171,4.0,0.0
1161,74.0,95,92,4.0,0.0
1162,82.0,43,95,4.0,0.0
1163,62.0,0,166,4.0,0.0
1164,58.0,98,166,4.0,0.0
1165,81.0,90,43,4.0,0.0
1166,79.0,33,43,4.0,0.0
1167,57.0,0,178,4.0,0.0
1168,62.0,0,359,4.0,0.0
1169,78.0,89,89,4.0,0.0
1170,84.0,43,89,4.0,0.0
1171,81.0,90,43,4.0,0.0
1172,50.0,91,181,4.0,0.0
1173,78.0,48,43,4.0,0.0
1174,79.0,83,91,4.0,0.0
1175,86.0,45,83,4.0,0.0
1176,58.0,0,178,4.0,0.0
1177,62.0,0,178,4.0,0.0
1178,84.0,43,45,4.0,0.0
1179,82.0,45,43,4.0,0.0
1180,81.0,45,45,4.0,0.0
1181,79.0,45,45,4.0,0.0
1182,78.0,45,45,4.0,0.0
1183,62.0,0,180,4.0,0.0
1184,57.0,0,180,4.0,0.0
1185,60.0,0,180,4.0,0.0
1186,87.0,45,45,4.0,0.0
1187,86.0,45,45,4.0,0.0
1188,84.0,45,45,4.0,0.0
1189,82.0,45,45,4.0,0.0
1190,50.0,45,180,4.0,0.0
1191,81.0,45,45,4.0,0.0
1192,79.0,45,45,4.0,0.0
1193,78.0,0,45,4.0,0.0
1194,55.0,37,360,8.0,0.0
1195,74.0,0,360,5.0,0.0
1196,43.0,0,360,10.0,0.0
1197,81.0,45,45,4.0,0.0
1198,70.0,0,360,6.0,0.0
1199,62.0,0,360,7.0,0.0
1200,58.0,0,360,7.0,0.0
1201,79.0,45,45,4.0,0.0
1202,82.0,37,45,4.0,0.0
1203,81.0,45,37,4.0,0.0
1204,58.0,0,188,4.0,0.0
1205,79.0,41,45,4.0,0.0
1206,77.0,45,41,4.0,0.0
1207,75.0,57,45,4.0,0.0
1208,74.0,0,57,4.0,0.0
1209,63.0,0,358,7.0,0.0
1210,60.0,0,358,7.0,0.0
1211,75.0,0,358,5.0,0.0
1212,39.0,0,358,10.0,0.0
1213,72.0,2,358,6.0,0.0
1214,51.0,0,358,4.0,0.0
1215,55.0,0,0,4.0,0.0
1216,71.0,47,37,4.0,0.0
1217,51.0,178,360,8.0,0.0
1218,72.0,45,47,4.0,0.0
1219,74.0,46,45,4.0,0.0
1220,75.0,45,46,4.0,0.0
1221,77.0,47,45,4.0,0.0
1222,60.0,0,183,4.0,0.0
1223,79.0,45,47,4.0,0.0
1224,77.0,46,45,4.0,0.0
1225,75.0,0,46,4.0,0.0
1226,58.0,0,180,7.0,0.0
1227,74.0,0,180,4.0,0.0
1228,70.0,23,180,6.0,0.0
1229,58.0,0,180,4.0,0.0
1230,53.0,144,362,4.0,0.0
1231,41.0,0,325,10.0,0.0
1232,74.0,0,180,5.0,0.0
1233,62.0,0,180,7.0,0.0
1234,53.0,36,324,8.0,0.0
1235,57.0,0,182,4.0,0.0
1236,72.0,22,23,4.0,0.0
1237,60.0,0,145,7.0,0.0
1238,72.0,1,145,5.0,0.0
1239,69.0,0,145,6.0,0.0
1240,57.0,0,145,7.0,0.0
1241,74.0,23,22,4.0,0.0
1242,72.0,22,23,4.0,0.0
1243,74.0,45,22,4.0,0.0
1244,70.0,10,45,4.0,0.0
1245,72.0,0,47,4.0,0.0
1246,70.0,0,182,5.0,0.0
1247,34.0,0,182,10.0,0.0
1248,70.0,180,182,6.0,0.0
1249,58.0,0,182,7.0,0.0
1250,70.0,36,144,4.0,0.0
1251,58.0,0,180,4.0,0.0
1252,46.0,0,180,8.0,0.0
1253,46.0,90,180,4.0,0.0
1254,62.0,90,90,4.0,0.0
1255,65.0,90,90,4.0,0.0
1256,70.0,90,90,4.0,0.0
1257,74.0,90,90,4.0,0.0
1258,46.0,87,90,4.0,0.0
1259,77.0,51,406,4.0,0.0
1260,50.0,93,87,4.0,0.0
1261,53.0,91,93,4.0,0.0
1262,58.0,45,91,4.0,0.0
1263,55.0,0,359,4.0,0.0
1264,76.0,45,51,4.0,0.0
1265,79.0,50,45,4.0,0.0
1266,77.0,45,50,4.0,0.0
1267,81.0,48,45,4.0,0.0
1268,67.0,188,168,4.0,0.0
1269,79.0,45,48,4.0,0.0
1270,77.0,30,45,4.0,0.0
1271,76.0,0,30,4.0,0.0
1272,74.0,0,176,4.0,0.0
1273,65.0,176,176,4.0,0.0
1274,57.0,0,352,4.0,0.0
1275,64.0,0,176,4.0,0.0
1276,73.0,356,176,4.0,0.0
1277,50.0,0,356,4.0,0.0
1278,69.0,90,356,4.0,0.0
1279,53.0,0,328,4.0,0.0
1280,74.0,0,328,4.0,0.0
1281,57.0,0,300,4.0,0.0
1282,77.0,0,300,4.0,0.0
1283,62.0,0,272,4.0,0.0
1284,81.0,0,0,4.0,0.0
1285,82.0,46,45,4.0,0.0
1286,81.0,90,46,4.0,0.0
1287,79.0,44,90,4.0,0.0
1288,77.0,130,44,4.0,0.0
1289,69.0,85,85,4.0,0.0
1290,57.0,140,360,4.0,0.0
1291,77.0,0,85,4.0,0.0
1292,76.0,88,85,4.0,0.0
1293,67.0,0,85,4.0,0.0
1294,74.0,44,88,4.0,0.0
1295,65.0,0,88,4.0,0.0
1296,73.0,58,44,4.0,0.0
1297,64.0,0,102,4.0,0.0
1298,62.0,0,140,4.0,0.0
1299,65.0,37,140,4.0,0.0
1300,74.0,181,177,4.0,0.0
1301,50.0,59,181,4.0,0.0
1302,77.0,62,59,4.0,0.0
1303,75.0,30,62,4.0,0.0
1304,74.0,88,30,4.0,0.0
1305,65.0,56,182,4.0,0.0
1306,55.0,0,182,4.0,0.0
1307,74.0,59,59,4.0,0.0
1308,72.0,30,59,4.0,0.0
1309,71.0,34,30,4.0,0.0
1310,63.0,0,360,4.0,0.0
1311,72.0,60,56,4.0,0.0
1312,60.0,59,360,4.0,0.0
1313,67.0,30,60,4.0,0.0
1314,79.0,91,30,4.0,0.0
1315,78.0,62,59,4.0,0.0
1316,79.0,30,62,4.0,0.0
1317,77.0,31,30,4.0,0.0
1318,77.0,60,59,4.0,0.0
1319,75.0,30,60,4.0,0.0
1320,74.0,84,30,4.0,0.0
1321,74.0,58,59,4.0,0.0
1322,55.0,175,186,4.0,0.0
1323,65.0,0,186,4.0,0.0
1324,72.0,29,58,4.0,0.0
1325,71.0,40,29,4.0,0.0
1326,63.0,183,357,4.0,0.0
1327,60.0,0,357,4.0,0.0
1328,74.0,92,175,4.0,0.0
1329,72.0,90,92,4.0,0.0
1330,68.0,180,183,4.0,0.0
1331,72.0,0,183,4.0,0.0
1332,72.0,0,180,4.0,0.0
1333,63.0,0,180,4.0,0.0
1334,67.0,171,180,4.0,0.0
1335,66.0,0,171,4.0,0.0
1336,72.0,0,171,4.0,0.0
1337,62.0,139,171,4.0,0.0
1338,70.0,0,95,4.0,0.0
1339,79.0,50,45,4.0,0.0
1340,84.0,45,50,4.0,0.0
1341,68.0,0,191,4.0,0.0
1342,78.0,50,45,4.0,0.0
1343,84.0,45,50,4.0,0.0
1344,77.0,51,45,4.0,0.0
1345,84.0,45,51,4.0,0.0
1346,67.0,0,169,4.0,0.0
1347,76.0,45,45,4.0,0.0
1348,84.0,45,45,4.0,0.0
1349,75.0,34,45,4.0,0.0
1350,84.0,151,34,4.0,0.0
1351,74.0,445,177,4.0,0.0
1352,66.0,34,143,4.0,0.0
1353,55.0,0,358,4.0,0.0
1354,70.0,0,268,4.0,0.0
1355,58.0,0,330,4.0,0.0
1356,76.0,0,240,4.0,0.0
1357,61.0,0,301,4.0,0.0
1358,79.0,0,211,4.0,0.0
1359,64.0,91,273,4.0,0.0
1360,82.0,90,183,4.0,0.0
1361,67.0,0,247,4.0,0.0
1362,73.0,0,90,4.0,0.0
1363,69.0,44,180,4.0,0.0
1364,54.0,0,180,4.0,0.0
1365,75.0,90,90,4.0,0.0
1366,74.0,0,90,4.0,0.0
1367,72.0,88,44,4.0,0.0
1368,55.0,0,179,4.0,0.0
1369,62.0,88,179,4.0,0.0
1370,70.0,47,43,4.0,0.0
1371,60.0,43,360,4.0,0.0
1372,70.0,87,88,4.0,0.0
1373,48.0,0,175,4.0,0.0
1374,69.0,44,87,4.0,0.0
1375,50.0,0,185,4.0,0.0
1376,67.0,90,44,4.0,0.0
1377,66.0,51,44,4.0,0.0
1378,58.0,0,177,4.0,0.0
1379,51.0,0,177,4.0,0.0
1380,67.0,44,43,4.0,0.0
1381,79.0,45,44,4.0,0.0
1382,66.0,45,45,4.0,0.0
1383,78.0,45,45,4.0,0.0
1384,67.0,46,45,4.0,0.0
1385,79.0,45,46,4.0,0.0
1386,69.0,47,45,4.0,0.0
1387,81.0,45,47,4.0,0.0
1388,67.0,0,360,4.0,0.0
1389,63.0,0,360,4.0,0.0
1390,70.0,46,45,4.0,0.0
1391,82.0,45,46,4.0,0.0
1392,71.0,46,45,4.0,0.0
1393,83.0,45,46,4.0,0.0
1394,72.0,48,45,4.0,0.0
1395,84.0,45,48,4.0,0.0
1396,73.0,40,45,4.0,0.0
1397,85.0,112,40,4.0,0.0
1398,50.0,2,360,8.0,0.0
1399,72.0,0,355,5.0,0.0
1400,75.0,72,105,4.0,0.0
1401,38.0,0,355,10.0,0.0
1402,54.0,0,355,7.0,0.0
1403,60.0,0,355,7.0,0.0
1404,62.0,178,355,4.0,0.0
1405,66.0,0,355,4.0,0.0
1406,66.0,0,355,6.0,0.0
1407,87.0,0,105,4.0,0.0
1408,86.0,0,44,4.0,0.0
1409,74.0,176,0,4.0,0.0
1410,86.0,0,356,4.0,0.0
1411,51.0,0,324,8.0,0.0
1412,55.0,0,322,7.0,0.0
1413,39.0,0,322,10.0,0.0
1414,67.0,0,322,6.0,0.0
1415,58.0,0,322,7.0,0.0
1416,67.0,0,358,4.0,0.0
1417,70.0,36,322,5.0,0.0
1418,84.0,54,90,4.0,0.0
1419,82.0,45,135,4.0,0.0
1420,63.0,45,0,4.0,0.0
1421,60.0,0,360,4.0,0.0
1422,75.0,45,180,5.0,0.0
1423,48.0,0,360,8.0,0.0
1424,36.0,0,360,10.0,0.0
1425,63.0,0,180,7.0,0.0
1426,72.0,0,180,6.0,0.0
1427,81.0,45,45,4.0,0.0
1428,84.0,45,45,4.0,0.0
1429,82.0,0,45,4.0,0.0
1430,60.0,0,0,7.0,0.0
1431,57.0,0,180,7.0,0.0
1432,69.0,0,180,6.0,0.0
1433,72.0,177,180,4.0,0.0
1434,86.0,45,45,4.0,0.0
1435,72.0,0,180,5.0,0.0
1436,84.0,45,45,4.0,0.0
1437,82.0,45,45,4.0,0.0
1438,81.0,0,45,4.0,0.0
1439,50.0,143,360,8.0,0.0
1440,70.0,22,177,4.0,0.0
1441,55.0,0,177,7.0,0.0
1442,58.0,0,177,7.0,0.0
1443,79.0,0,177,4.0,0.0
1444,62.0,0,360,4.0,0.0
1445,38.0,0,360,10.0,0.0
1446,70.0,0,177,5.0,0.0
1447,67.0,0,177,6.0,0.0
1448,57.0,0,143,7.0,0.0
1449,69.0,0,143,5.0,0.0
1450,54.0,0,143,7.0,0.0
1451,69.0,0,183,4.0,0.0
1452,78.0,23,22,4.0,0.0
1453,66.0,40,143,6.0,0.0
1454,79.0,22,23,4.0,0.0
1455,78.0,21,22,4.0,0.0
1456,79.0,45,21,4.0,0.0
1457,76.0,10,45,4.0,0.0
1458,78.0,0,50,4.0,0.0
1459,55.0,0,182,7.0,0.0
1460,67.0,180,182,5.0,0.0
1461,67.0,0,182,6.0,0.0
1462,79.0,37,143,4.0,0.0
1463,67.0,0,180,4.0,0.0
1464,31.0,0,180,10.0,0.0
1465,43.0,0,180,8.0,0.0
1466,55.0,90,180,4.0,0.0
1467,62.0,90,90,4.0,0.0
1468,65.0,90,90,4.0,0.0
1469,70.0,90,90,4.0,0.0
1470,74.0,90,90,4.0,0.0
1471,46.0,87,90,4.0,0.0
1472,77.0,49,406,4.0,0.0
1473,50.0,93,87,4.0,0.0
1474,53.0,91,93,4.0,0.0
1475,58.0,45,91,4.0,0.0
1476,55.0,0,359,4.0,0.0
1477,76.0,45,49,4.0,0.0
1478,79.0,49,45,4.0,0.0
1479,77.0,45,49,4.0,0.0
1480,67.0,0,171,4.0,0.0
1481,81.0,47,45,4.0,0.0
1482,79.0,45,47,4.0,0.0
1483,77.0,34,45,4.0,0.0
1484,76.0,187,34,4.0,0.0
1485,57.0,0,351,4.0,0.0
1486,65.0,175,176,4.0,0.0
1487,74.0,0,176,4.0,0.0
1488,64.0,0,175,4.0,0.0
1489,73.0,358,175,4.0,0.0
1490,69.0,0,358,4.0,0.0
1491,50.0,0,358,4.0,0.0
1492,53.0,0,330,4.0,0.0
1493,74.0,0,330,4.0,0.0
1494,57.0,0,301,4.0,0.0
1495,77.0,0,301,4.0,0.0
1496,81.0,90,273,4.0,0.0
1497,62.0,0,273,4.0,0.0
1498,81.0,45,90,4.0,0.0
1499,82.0,46,45,4.0,0.0
1500,81.0,90,46,4.0,0.0
1501,79.0,44,90,4.0,0.0
1502,77.0,130,44,4.0,0.0
1503,57.0,0,360,4.0,0.0
1504,69.0,85,85,4.0,0.0
1505,77.0,0,85,4.0,0.0
1506,67.0,88,85,4.0,0.0
1507,76.0,0,85,4.0,0.0
1508,65.0,44,88,4.0,0.0
1509,74.0,0,88,4.0,0.0
1510,64.0,140,102,4.0,0.0
1511,73.0,58,44,4.0,0.0
1512,65.0,37,140,4.0,0.0
1513,62.0,0,140,4.0,0.0
1514,74.0,181,177,4.0,0.0
1515,50.0,59,181,4.0,0.0
1516,77.0,62,59,4.0,0.0
1517,75.0,30,62,4.0,0.0
1518,74.0,88,30,4.0,0.0
1519,55.0,56,182,4.0,0.0
1520,74.0,59,59,4.0,0.0
1521,65.0,0,182,4.0,0.0
1522,72.0,30,59,4.0,0.0
1523,71.0,34,30,4.0,0.0
1524,72.0,60,56,4.0,0.0
1525,60.0,0,360,4.0,0.0
1526,63.0,59,360,4.0,0.0
1527,67.0,30,60,4.0,0.0
1528,79.0,91,30,4.0,0.0
1529,78.0,62,59,4.0,0.0
1530,79.0,30,62,4.0,0.0
1531,77.0,31,30,4.0,0.0
1532,77.0,60,59,4.0,0.0
1533,75.0,30,60,4.0,0.0
1534,74.0,84,30,4.0,0.0
1535,65.0,0,186,4.0,0.0
1536,55.0,175,186,4.0,0.0
1537,74.0,58,59,4.0,0.0
1538,72.0,29,58,4.0,0.0
1539,71.0,40,29,4.0,0.0
1540,74.0,92,175,4.0,0.0
1541,63.0,183,357,4.0,0.0
1542,60.0,0,357,4.0,0.0
1543,72.0,90,92,4.0,0.0
1544,68.0,180,183,4.0,0.0
1545,72.0,0,0,4.0,0.0
1546,67.0,171,180,4.0,0.0
1547,63.0,0,180,4.0,0.0
1548,62.0,139,171,4.0,0.0
1549,72.0,0,171,4.0,0.0
1550,66.0,0,171,4.0,0.0
1551,79.0,50,45,4.0,0.0
1552,70.0,45,95,4.0,0.0
1553,84.0,0,50,4.0,0.0
1554,78.0,50,45,4.0,0.0
1555,68.0,0,191,4.0,0.0
1556,84.0,45,50,4.0,0.0
1557,77.0,51,45,4.0,0.0
1558,84.0,45,51,4.0,0.0
1559,76.0,45,45,4.0,0.0
1560,67.0,151,169,4.0,0.0
1561,84.0,45,45,4.0,0.0
1562,75.0,34,45,4.0,0.0
1563,84.0,0,34,4.0,0.0
1564,74.0,445,177,4.0,0.0
1565,66.0,34,143,4.0,0.0
1566,70.0,90,268,4.0,0.0
1567,55.0,0,358,4.0,0.0
1568,58.0,91,330,4.0,0.0
1569,76.0,0,240,4.0,0.0
1570,79.0,0,211,4.0,0.0
1571,61.0,0,301,4.0,0.0
1572,82.0,0,183,4.0,0.0
1573,64.0,0,273,4.0,0.0
1574,67.0,0,247,4.0,0.0
1575,73.0,0,90,4.0,0.0
1576,69.0,44,180,4.0,0.0
1577,75.0,90,90,4.0,0.0
1578,54.0,0,180,4.0,0.0
1579,74.0,0,90,4.0,0.0
1580,72.0,88,44,4.0,0.0
1581,55.0,0,179,4.0,0.0
1582,62.0,88,179,4.0,0.0
1583,70.0,47,43,4.0,0.0
1584,60.0,43,360,4.0,0.0
1585,48.0,44,175,4.0,0.0
1586,70.0,87,88,4.0,0.0
1587,69.0,0,87,4.0,0.0
1588,50.0,0,185,4.0,0.0
1589,67.0,90,44,4.0,0.0
1590,66.0,51,44,4.0,0.0
1591,67.0,44,43,4.0,0.0
1592,58.0,0,177,4.0,0.0
1593,51.0,0,177,4.0,0.0
1594,79.0,45,44,4.0,0.0
1595,66.0,45,45,4.0,0.0
1596,78.0,45,45,4.0,0.0
1597,67.0,46,45,4.0,0.0
1598,79.0,45,46,4.0,0.0
1599,69.0,47,45,4.0,0.0
1600,81.0,45,47,4.0,0.0
1601,70.0,46,45,4.0,0.0
1602,63.0,112,360,4.0,0.0
1603,67.0,0,360,4.0,0.0
1604,82.0,45,46,4.0,0.0
1605,71.0,46,45,4.0,0.0
1606,83.0,45,46,4.0,0.0
1607,72.0,48,45,4.0,0.0
1608,84.0,45,48,4.0,0.0
1609,73.0,40,45,4.0,0.0
1610,85.0,0,40,4.0,0.0
1611,50.0,2,360,8.0,0.0
1612,60.0,0,355,7.0,0.0
1613,66.0,0,355,6.0,0.0
1614,54.0,0,355,7.0,0.0
1615,72.0,0,355,5.0,0.0
1616,38.0,0,355,10.0,0.0
1617,62.0,178,355,4.0,0.0
1618,87.0,0,105,4.0,0.0
1619,75.0,72,105,4.0,0.0
1620,66.0,0,355,4.0,0.0
1621,74.0,176,44,4.0,0.0
1622,86.0,0,44,4.0,0.0
1623,86.0,90,356,4.0,0.0
1624,74.0,0,356,4.0,0.0
1625,51.0,0,324,8.0,0.0
1626,67.0,36,322,6.0,0.0
1627,70.0,0,322,5.0,0.0
1628,39.0,0,322,10.0,0.0
1629,55.0,0,322,7.0,0.0
1630,58.0,0,322,7.0,0.0
1631,67.0,0,358,4.0,0.0
1632,84.0,54,90,4.0,0.0
1633,82.0,45,135,4.0,0.0
1634,72.0,0,180,6.0,0.0
1635,75.0,0,180,5.0,0.0
1636,36.0,0,360,10.0,0.0
1637,48.0,0,360,8.0,0.0
1638,60.0,45,180,7.0,0.0
1639,63.0,0,180,7.0,0.0
1640,63.0,45,0,4.0,0.0
1641,60.0,177,360,4.0,0.0
1642,81.0,45,45,4.0,0.0
1643,84.0,45,45,4.0,0.0
1644,82.0,0,45,4.0,0.0
1645,86.0,45,45,4.0,0.0
1646,57.0,0,180,7.0,0.0
1647,72.0,0,180,5.0,0.0
1648,69.0,0,180,6.0,0.0
1649,72.0,0,180,4.0,0.0
1650,60.0,0,180,7.0,0.0
1651,84.0,45,45,4.0,0.0
1652,82.0,45,45,4.0,0.0
1653,81.0,0,45,4.0,0.0
1654,38.0,0,360,10.0,0.0
1655,67.0,0,177,6.0,0.0
1656,50.0,0,360,8.0,0.0
1657,58.0,0,177,7.0,0.0
1658,70.0,0,177,5.0,0.0
1659,79.0,0,177,4.0,0.0
1660,55.0,0,177,7.0,0.0
1661,70.0,22,177,4.0,0.0
1662,62.0,0,360,4.0,0.0
1663,54.0,0,143,7.0,0.0
1664,57.0,40,143,7.0,0.0
1665,78.0,23,22,4.0,0.0
1666,66.0,0,143,6.0,0.0
1667,69.0,0,143,5.0,0.0
1668,69.0,0,183,4.0,0.0
1669,79.0,22,23,4.0,0.0
1670,78.0,21,22,4.0,0.0
1671,79.0,45,21,4.0,0.0
1672,76.0,10,45,4.0,0.0
1673,78.0,143,50,4.0,0.0
1674,55.0,0,182,7.0,0.0
1675,67.0,0,182,6.0,0.0
1676,67.0,0,182,5.0,0.0
1677,31.0,180,180,10.0,0.0
1678,43.0,0,180,8.0,0.0
1679,79.0,37,143,4.0,0.0
1680,67.0,0,180,4.0,0.0
1681,55.0,88,180,4.0,0.0
1682,86.0,180,88,0.0,0.0
1683,74.0,0,88,1.0,0.0
1684,74.0,0,88,1.0,0.0
1685,86.0,249,88,0.0,0.0
1686,86.0,0,180,0.0,0.0
1687,43.0,67,360,2.0,0.0
1688,43.0,157,720,10.0,0.0
1689,62.0,133,1800,5.0,0.0
1690,55.0,0,720,7.0,0.0
1691,74.0,67,180,1.0,0.0
1692,58.0,0,720,6.0,0.0
1693,55.0,0,720,8.0,0.0
1694,46.0,23,67,2.0,0.0
1695,70.0,67,90,1.0,0.0
1696,50.0,4,67,2.0,0.0
1697,82.0,19,71,0.0,0.0
1698,55.0,23,67,2.0,0.0
1699,58.0,21,67,2.0,0.0
1700,74.0,0,88,1.0,0.0
1701,86.0,69,88,0.0,0.0
1702,55.0,111,67,2.0,0.0
1703,74.0,0,88,1.0,0.0
1704,86.0,69,88,0.0,0.0
1705,43.0,0,180,2.0,0.0
1706,55.0,23,67,2.0,0.0
1707,42.0,0,360,10.0,0.0
1708,42.0,67,360,2.0,0.0
1709,74.0,0,180,1.0,0.0
1710,86.0,67,180,0.0,0.0
1711,57.0,0,720,6.0,0.0
1712,54.0,0,360,8.0,0.0
1713,57.0,0,720,7.0,0.0
1714,45.0,23,67,2.0,0.0
1715,69.0,67,90,1.0,0.0
1716,81.0,19,71,0.0,0.0
1717,50.0,4,67,2.0,0.0
1718,54.0,23,67,2.0,0.0
1719,53.0,157,360,8.0,0.0
1720,57.0,3,67,2.0,0.0
1721,74.0,69,88,1.0,0.0
1722,41.0,0,360,10.0,0.0
1723,86.0,18,70,0.0,0.0
1724,53.0,111,67,2.0,0.0
1725,41.0,0,180,2.0,0.0
1726,86.0,0,88,0.0,0.0
1727,74.0,0,88,1.0,0.0
1728,53.0,23,67,2.0,0.0
1729,67.0,0,720,1.0,0.0
1730,40.0,67,180,2.0,0.0
1731,74.0,0,360,1.0,0.0
1732,86.0,0,360,0.0,0.0
1733,40.0,0,360,10.0,0.0
1734,52.0,0,360,8.0,0.0
1735,55.0,0,684,6.0,0.0
1736,58.0,0,684,7.0,0.0
1737,52.0,23,67,2.0,0.0
1738,55.0,90,67,2.0,0.0
1739,52.0,23,67,2.0,0.0
1740,85.0,54,270,0.0,0.0
1741,51.0,0,324,8.0,0.0
1742,39.0,0,324,10.0,0.0
1743,61.0,13,324,5.0,0.0
1744,73.0,24,133,1.0,0.0
1745,39.0,67,180,2.0,0.0
1746,51.0,23,67,2.0,0.0
1747,55.0,23,67,2.0,0.0
1748,74.0,0,90,1.0,0.0
1749,51.0,23,67,2.0,0.0
1750,54.0,0,180,7.0,0.0
1751,38.0,0,360,10.0,0.0
1752,62.0,67,1620,3.0,0.0
1753,50.0,0,1620,3.0,0.0
1754,50.0,67,360,8.0,0.0
1755,86.0,144,0,0.0,0.0
1756,66.0,0,360,1.0,0.0
1757,74.0,0,180,1.0,0.0
1758,62.0,67,180,5.0,0.0
1759,57.0,0,180,6.0,0.0
1760,38.0,0,180,2.0,0.0
1761,50.0,23,67,2.0,0.0
1762,54.0,90,67,2.0,0.0
1763,57.0,23,67,2.0,0.0
1764,74.0,0,180,1.0,0.0
1765,58.0,90,67,2.0,0.0
1766,86.0,67,180,0.0,0.0
1767,62.0,0,180,1.0,0.0
1768,55.0,23,67,2.0,0.0
1769,67.0,0,144,1.0,0.0
1770,50.0,77,67,2.0,0.0
1771,79.0,13,144,1.0,0.0
1772,74.0,67,180,5.0,0.0
1773,62.0,0,180,6.0,0.0
1774,46.0,0,180,10.0,0.0
1775,91.0,0,144,0.0,0.0
1776,58.0,0,180,8.0,0.0
1777,58.0,23,67,2.0,0.0
1778,57.0,0,180,8.0,0.0
1779,45.0,67,180,10.0,0.0
1780,75.0,0,180,5.0,0.0
1781,63.0,0,180,6.0,0.0
1782,66.0,0,180,1.0,0.0
1783,78.0,0,180,1.0,0.0
1784,90.0,0,180,0.0,0.0
1785,60.0,90,67,2.0,0.0
1786,57.0,23,67,2.0,0.0
1787,50.0,0,144,8.0,0.0
1788,57.0,0,180,7.0,0.0
1789,60.0,67,180,7.0,0.0
1790,74.0,0,144,5.0,0.0
1791,38.0,0,144,10.0,0.0
1792,54.0,77,67,2.0,0.0
1793,62.0,13,144,6.0,0.0
1794,50.0,23,67,2.0,0.0
1795,58.0,23,67,2.0,0.0
1796,86.0,67,180,0.0,0.0
1797,58.0,0,144,7.0,0.0
1798,55.0,13,144,7.0,0.0
1799,62.0,0,90,1.0,0.0
1800,74.0,54,90,1.0,0.0
1801,55.0,23,67,2.0,0.0
1802,67.0,0,90,1.0,0.0
1803,79.0,0,90,1.0,0.0
1804,62.0,0,180,6.0,0.0
1805,70.0,0,90,1.0,0.0
1806,46.0,0,180,10.0,0.0
1807,91.0,13,144,0.0,0.0
1808,82.0,54,90,1.0,0.0
1809,58.0,67,180,8.0,0.0
1810,50.0,23,67,2.0,0.0
1811,58.0,4,67,2.0,0.0
1812,67.0,0,71,1.0,0.0
1813,79.0,19,71,1.0,0.0
1814,63.0,0,180,6.0,0.0
1815,60.0,90,67,2.0,0.0
1816,75.0,0,0,5.0,0.0
1817,90.0,0,180,0.0,0.0
1818,57.0,0,180,8.0,0.0
1819,78.0,0,180,1.0,0.0
1820,45.0,0,180,10.0,0.0
1821,66.0,0,180,1.0,0.0
1822,57.0,23,67,2.0,0.0
1823,38.0,13,144,10.0,0.0
1824,54.0,77,67,2.0,0.0
1825,57.0,0,180,7.0,0.0
1826,74.0,0,144,5.0,0.0
1827,62.0,0,144,6.0,0.0
1828,60.0,144,180,7.0,0.0
1829,50.0,0,144,8.0,0.0
1830,50.0,23,67,2.0,0.0
1831,70.0,0,180,1.0,0.0
1832,55.0,0,144,7.0,0.0
1833,58.0,36,144,7.0,0.0
1834,55.0,0,180,2.0,0.0
1835,82.0,180,180,0.0,0.0
1836,68.0,0,180,1.0,0.0
1837,53.0,0,180,2.0,0.0
1838,62.0,0,180,2.0,0.0
1839,71.0,180,180,1.0,0.0
1840,83.0,0,180,0.0,0.0
1841,67.0,144,180,1.0,0.0
1842,55.0,0,180,2.0,0.0
1843,51.0,0,180,2.0,0.0
1844,72.0,0,180,1.0,0.0
1845,84.0,0,180,0.0,0.0
1846,67.0,0,144,2.0,0.0
1847,52.0,0,144,2.0,0.0
1848,70.0,216,144,1.0,0.0
1849,73.0,0,144,1.0,0.0
1850,85.0,0,144,0.0,0.0
1851,86.0,0,270,0.0,0.0
1852,70.0,45,270,1.0,0.0
1853,74.0,0,270,1.0,0.0
1854,65.0,0,270,2.0,0.0
1855,53.0,90,180,2.0,0.0
1856,41.0,0,180,2.0,0.0
1857,63.0,0,90,2.0,0.0
1858,87.0,0,45,0.0,0.0
1859,75.0,45,45,1.0,0.0
1860,84.0,0,45,0.0,0.0
1861,72.0,0,0,1.0,0.0
1862,69.0,70,45,1.0,0.0
1863,70.0,0,70,1.0,0.0
1864,82.0,74,70,0.0,0.0
1865,62.0,0,144,2.0,0.0
1866,46.0,216,144,2.0,0.0
1867,58.0,88,180,2.0,0.0
1868,74.0,180,88,5.0,0.0
1869,74.0,137,88,5.0,0.0
1870,82.0,45,45,4.0,0.0
1871,58.0,0,720,7.0,0.0
1872,55.0,0,720,4.0,0.0
1873,43.0,0,720,4.0,0.0
1874,55.0,33,720,8.0,0.0
1875,74.0,0,182,5.0,0.0
1876,62.0,0,1440,6.0,0.0
1877,43.0,0,720,10.0,0.0
1878,81.0,45,45,4.0,0.0
1879,82.0,47,45,4.0,0.0
1880,86.0,45,47,4.0,0.0
1881,79.0,27,45,4.0,0.0
1882,70.0,16,72,5.0,0.0
1883,78.0,45,43,4.0,0.0
1884,79.0,45,45,4.0,0.0
1885,82.0,45,45,4.0,0.0
1886,74.0,42,88,5.0,0.0
1887,74.0,40,45,4.0,0.0
1888,73.0,3,40,4.0,0.0
1889,74.0,33,45,4.0,0.0
1890,79.0,45,33,4.0,0.0
1891,70.0,36,45,4.0,0.0
1892,74.0,38,88,5.0,0.0
1893,69.0,7,36,4.0,0.0
1894,70.0,71,45,4.0,0.0
1895,67.0,0,71,4.0,0.0
1896,74.0,0,185,5.0,0.0
1897,42.0,0,352,4.0,0.0
1898,54.0,0,352,4.0,0.0
1899,42.0,8,352,10.0,0.0
1900,74.0,49,33,4.0,0.0
1901,57.0,47,673,7.0,0.0
1902,54.0,37,360,8.0,0.0
1903,73.0,45,49,4.0,0.0
1904,74.0,48,45,4.0,0.0
1905,78.0,45,48,4.0,0.0
1906,69.0,18,72,5.0,0.0
1907,69.0,27,45,4.0,0.0
1908,68.0,45,45,4.0,0.0
1909,69.0,42,45,4.0,0.0
1910,74.0,0,42,4.0,0.0
1911,41.0,0,368,4.0,0.0
1912,65.0,44,45,4.0,0.0
1913,74.0,1,89,5.0,0.0
1914,53.0,0,368,4.0,0.0
1915,41.0,0,368,10.0,0.0
1916,53.0,42,360,8.0,0.0
1917,64.0,45,45,4.0,0.0
1918,65.0,41,45,4.0,0.0
1919,69.0,45,41,4.0,0.0
1920,62.0,44,45,4.0,0.0
1921,74.0,1,89,5.0,0.0
1922,61.0,45,45,4.0,0.0
1923,62.0,10,45,4.0,0.0
1924,65.0,0,57,4.0,0.0
1925,74.0,0,362,5.0,0.0
1926,58.0,45,362,7.0,0.0
1927,67.0,0,720,6.0,0.0
1928,52.0,0,360,8.0,0.0
1929,40.0,0,360,10.0,0.0
1930,67.0,42,42,4.0,0.0
1931,40.0,0,360,4.0,0.0
1932,52.0,0,360,4.0,0.0
1933,66.0,45,42,4.0,0.0
1934,67.0,48,45,4.0,0.0
1935,79.0,45,48,4.0,0.0
1936,67.0,48,45,4.0,0.0
1937,79.0,45,48,4.0,0.0
1938,69.0,45,45,4.0,0.0
1939,79.0,0,45,4.0,0.0
1940,51.0,0,360,4.0,0.0
1941,39.0,16,329,10.0,0.0
1942,51.0,5,324,8.0,0.0
1943,70.0,46,45,4.0,0.0
1944,39.0,0,360,4.0,0.0
1945,55.0,0,329,7.0,0.0
1946,73.0,0,274,5.0,0.0
1947,79.0,45,46,4.0,0.0
1948,69.0,48,45,4.0,0.0
1949,79.0,45,48,4.0,0.0
1950,70.0,45,45,4.0,0.0
1951,79.0,45,45,4.0,0.0
1952,67.0,5,45,4.0,0.0
1953,74.0,15,71,5.0,0.0
1954,79.0,47,41,4.0,0.0
1955,50.0,1,360,8.0,0.0
1956,38.0,0,359,10.0,0.0
1957,57.0,0,179,7.0,0.0
1958,74.0,45,179,5.0,0.0
1959,78.0,45,45,4.0,0.0
1960,38.0,0,359,4.0,0.0
1961,50.0,0,359,4.0,0.0
1962,66.0,34,145,6.0,0.0
1963,74.0,45,45,4.0,0.0
1964,81.0,10,45,4.0,0.0
1965,78.0,0,44,4.0,0.0
1966,74.0,45,45,4.0,0.0
1967,72.0,45,45,4.0,0.0
1968,69.0,44,45,4.0,0.0
1969,72.0,45,45,4.0,0.0
1970,74.0,0,184,5.0,0.0
1971,70.0,46,45,4.0,0.0
1972,74.0,45,46,4.0,0.0
1973,79.0,48,45,4.0,0.0
1974,82.0,45,48,4.0,0.0
1975,58.0,0,180,8.0,0.0
1976,79.0,34,141,5.0,0.0
1977,74.0,0,175,6.0,0.0
1978,58.0,46,175,4.0,0.0
1979,46.0,0,175,10.0,0.0
1980,86.0,41,45,4.0,0.0
1981,82.0,45,41,4.0,0.0
1982,79.0,10,45,4.0,0.0
1983,74.0,0,44,4.0,0.0
1984,57.0,1,180,8.0,0.0
1985,60.0,0,269,7.0,0.0
1986,75.0,0,180,6.0,0.0
1987,57.0,0,180,4.0,0.0
1988,78.0,45,180,5.0,0.0
1989,87.0,45,45,4.0,0.0
1990,45.0,0,180,10.0,0.0
1991,84.0,45,45,4.0,0.0
1992,81.0,44,45,4.0,0.0
1993,78.0,0,45,4.0,0.0
1994,50.0,0,144,8.0,0.0
1995,74.0,36,143,6.0,0.0
1996,50.0,45,179,4.0,0.0
1997,84.0,44,45,4.0,0.0
1998,38.0,0,143,10.0,0.0
1999,81.0,45,44,4.0,0.0
2000,78.0,0,45,4.0,0.0
2001,62.0,9,45,7.0,0.0
2002,72.0,0,45,4.0,0.0
2003,60.0,0,45,7.0,0.0
2004,58.0,36,144,7.0,0.0
2005,74.0,0,90,5.0,0.0
2006,70.0,45,45,4.0,0.0
2007,74.0,45,45,4.0,0.0
2008,79.0,9,45,4.0,0.0
2009,79.0,0,90,5.0,0.0
2010,82.0,45,45,4.0,0.0
2011,58.0,0,180,4.0,0.0
2012,46.0,0,180,10.0,0.0
2013,86.0,42,45,4.0,0.0
2014,82.0,45,87,5.0,0.0
2015,58.0,0,180,8.0,0.0
2016,50.0,42,180,7.0,0.0
2017,82.0,0,42,4.0,0.0
2018,79.0,26,45,4.0,0.0
2019,79.0,22,71,5.0,0.0
2020,74.0,0,48,4.0,0.0
2021,72.0,45,266,6.0,0.0
2022,78.0,3,179,5.0,0.0
2023,87.0,48,42,4.0,0.0
2024,57.0,0,177,4.0,0.0
2025,51.0,0,177,7.0,0.0
2026,57.0,42,180,8.0,0.0
2027,45.0,0,177,10.0,0.0
2028,84.0,45,48,4.0,0.0
2029,81.0,42,45,4.0,0.0
2030,78.0,0,42,4.0,0.0
2031,50.0,0,142,7.0,0.0
2032,38.0,5,142,10.0,0.0
2033,84.0,42,45,4.0,0.0
2034,50.0,0,175,4.0,0.0
2035,50.0,20,144,8.0,0.0
2036,81.0,0,42,4.0,0.0
2037,78.0,0,45,4.0,0.0
2038,74.0,10,45,6.0,0.0
2039,72.0,45,43,4.0,0.0
2040,72.0,8,35,6.0,0.0
2041,70.0,50,45,4.0,0.0
2042,70.0,0,185,6.0,0.0
2043,79.0,45,185,5.0,0.0
2044,74.0,45,50,4.0,0.0
2045,79.0,45,45,4.0,0.0
2046,82.0,0,45,4.0,0.0
2047,67.0,45,138,6.0,0.0
2048,86.0,38,45,4.0,0.0
2049,43.0,0,183,10.0,0.0
2050,62.0,0,183,7.0,0.0
2051,55.0,0,183,4.0,0.0
2052,70.0,0,138,5.0,0.0
2053,55.0,0,180,8.0,0.0
2054,82.0,45,38,4.0,0.0
2055,79.0,10,45,4.0,0.0
2056,74.0,39,55,4.0,0.0
2057,67.0,45,275,6.0,0.0
2058,72.0,0,275,5.0,0.0
2059,72.0,48,39,4.0,0.0
2060,51.0,0,180,4.0,0.0
2061,39.0,45,180,10.0,0.0
2062,60.0,0,180,7.0,0.0
2063,51.0,0,180,8.0,0.0
2064,75.0,45,48,4.0,0.0
2065,79.0,48,45,4.0,0.0
2066,84.0,0,48,4.0,0.0
2067,48.0,0,180,8.0,0.0
2068,87.0,45,45,4.0,0.0
2069,48.0,0,180,4.0,0.0
2070,36.0,0,180,10.0,0.0
2071,63.0,0,90,7.0,0.0
2072,84.0,0,45,4.0,0.0
2073,74.0,0,45,5.0,0.0
2074,79.0,26,45,4.0,0.0
2075,69.0,19,71,6.0,0.0
2076,67.0,0,71,7.0,0.0
2077,75.0,0,45,4.0,0.0
2078,75.0,45,45,5.0,0.0
2079,65.0,0,88,7.0,0.0
2080,70.0,41,88,6.0,0.0
2081,41.0,9,171,10.0,0.0
2082,53.0,14,180,8.0,0.0
2083,74.0,32,139,5.0,0.0
2084,74.0,39,45,4.0,0.0
2085,53.0,0,171,4.0,0.0
2086,77.0,4,39,4.0,0.0
2087,70.0,10,45,4.0,0.0
2088,74.0,0,42,4.0,0.0
2089,72.0,0,45,4.0,0.0
2090,63.0,0,89,7.0,0.0
2091,72.0,22,23,5.0,0.0
2092,29.0,0,189,10.0,0.0
2093,69.0,0,89,6.0,0.0
2094,41.0,0,189,4.0,0.0
2095,41.0,0,180,8.0,0.0
2096,74.0,23,22,5.0,0.0
2097,72.0,21,23,5.0,0.0
2098,75.0,45,44,4.0,0.0
2099,74.0,0,21,5.0,0.0
2100,70.0,0,45,5.0,0.0
2101,69.0,55,45,4.0,0.0
2102,72.0,142,55,4.0,0.0
2103,72.0,0,55,5.0,0.0
2104,62.0,0,182,7.0,0.0
2105,70.0,0,182,6.0,0.0
2106,70.0,35,142,5.0,0.0
2107,46.0,177,180,8.0,0.0
2108,46.0,0,177,4.0,0.0
2109,70.0,3,177,4.0,0.0
2110,34.0,0,177,10.0,0.0
2111,58.0,135,180,4.0,0.0
2112,74.0,180,135,1.0,0.0
2113,77.0,0,135,1.0,0.0
2114,77.0,177,135,1.0,0.0
2115,74.0,0,135,1.0,0.0
2116,74.0,90,363,1.0,0.0
2117,77.0,0,453,1.0,0.0
2118,46.0,0,132,2.0,0.0
2119,50.0,94,44,2.0,0.0
2120,53.0,90,43,2.0,0.0
2121,58.0,47,43,2.0,0.0
2122,43.0,43,90,2.0,0.0
2123,70.0,43,270,1.0,0.0
2124,76.0,43,90,1.0,0.0
2125,46.0,0,43,2.0,0.0
2126,52.0,47,43,2.0,0.0
2127,79.0,0,90,1.0,0.0
2128,55.0,47,43,2.0,0.0
2129,76.0,90,90,1.0,0.0
2130,67.0,0,90,1.0,0.0
2131,74.0,0,180,1.0,0.0
2132,65.0,71,180,1.0,0.0
2133,45.0,90,90,2.0,0.0
2134,56.0,0,90,2.0,0.0
2135,57.0,62,71,2.0,0.0
2136,73.0,0,180,1.0,0.0
2137,64.0,43,180,1.0,0.0
2138,55.0,47,43,2.0,0.0
2139,53.0,90,43,2.0,0.0
2140,81.0,43,450,1.0,0.0
2141,69.0,43,360,1.0,0.0
2142,50.0,90,43,2.0,0.0
2143,52.0,90,43,2.0,0.0
2144,53.0,47,43,2.0,0.0
2145,55.0,47,43,2.0,0.0
2146,70.0,43,180,1.0,0.0
2147,82.0,0,180,0.0,0.0
2148,52.0,47,43,2.0,0.0
2149,79.0,43,180,1.0,0.0
2150,81.0,43,270,0.0,0.0
2151,49.0,47,43,2.0,0.0
2152,69.0,0,270,1.0,0.0
2153,50.0,90,43,2.0,0.0
2154,77.0,0,180,1.0,0.0
2155,55.0,47,43,2.0,0.0
2156,67.0,0,84,1.0,0.0
2157,76.0,43,84,1.0,0.0
2158,52.0,41,43,2.0,0.0
2159,79.0,0,84,0.0,0.0
2160,77.0,0,84,0.0,0.0
2161,57.0,41,43,2.0,0.0
2162,65.0,0,84,1.0,0.0
2163,74.0,44,84,1.0,0.0
2164,64.0,0,102,1.0,0.0
2165,73.0,82,102,1.0,0.0
2166,76.0,0,102,0.0,0.0
2167,45.0,58,44,2.0,0.0
2168,50.0,0,178,2.0,0.0
2169,74.0,90,82,0.0,0.0
2170,74.0,93,172,1.0,0.0
2171,62.0,0,172,1.0,0.0
2172,76.0,0,90,0.0,0.0
2173,77.0,95,93,0.0,0.0
2174,78.0,92,95,0.0,0.0
2175,79.0,0,1260,0.0,0.0
2176,75.0,0,92,1.0,0.0
2177,67.0,93,92,2.0,0.0
2178,67.0,0,1260,1.0,0.0
2179,74.0,93,93,1.0,0.0
2180,65.0,0,93,2.0,0.0
2181,67.0,0,0,3.0,0.0
2182,55.0,0,0,3.0,0.0
2183,72.0,0,93,1.0,0.0
2184,63.0,82,93,2.0,0.0
2185,55.0,0,175,2.0,0.0
2186,71.0,0,82,1.0,0.0
2187,62.0,94,82,2.0,0.0
2188,72.0,90,87,1.0,0.0
2189,67.0,0,893,3.0,0.0
2190,55.0,0,893,3.0,0.0
2191,60.0,0,357,2.0,0.0
2192,63.0,0,87,2.0,0.0
2193,62.0,90,90,2.0,0.0
2194,71.0,0,90,1.0,0.0
2195,72.0,90,90,1.0,0.0
2196,63.0,0,90,2.0,0.0
2197,65.0,0,90,2.0,0.0
2198,74.0,87,90,1.0,0.0
2199,67.0,0,87,2.0,0.0
2200,75.0,89,87,1.0,0.0
2201,74.0,0,89,1.0,0.0
2202,65.0,87,89,2.0,0.0
2203,72.0,0,87,1.0,0.0
2204,55.0,180,180,2.0,0.0
2205,63.0,93,87,2.0,0.0
2206,71.0,0,93,1.0,0.0
2207,62.0,0,93,2.0,0.0
2208,48.0,88,360,2.0,0.0
2209,63.0,0,180,2.0,0.0
2210,72.0,180,180,1.0,0.0
2211,68.0,180,88,6.0,0.0
2212,72.0,0,88,5.0,0.0
2213,63.0,144,180,7.0,0.0
2214,67.0,0,88,6.0,0.0
2215,72.0,92,88,5.0,0.0
2216,72.0,71,180,5.0,0.0
2217,66.0,36,144,6.0,0.0
2218,62.0,124,324,7.0,0.0
2219,69.0,73,71,5.0,0.0
2220,72.0,0,88,6.0,0.0
2221,56.0,0,88,8.0,0.0
2222,87.0,0,88,0.0,0.0
2223,63.0,180,88,2.0,0.0
2224,75.0,0,88,1.0,0.0
2225,44.0,0,88,10.0,0.0
2226,78.0,0,88,5.0,0.0
2227,55.0,0,88,8.0,0.0
2228,87.0,0,88,0.0,0.0
2229,63.0,180,88,2.0,0.0
2230,43.0,0,88,10.0,0.0
2231,75.0,0,88,1.0,0.0
2232,54.0,0,144,8.0,0.0
2233,42.0,36,144,10.0,0.0
2234,75.0,0,180,1.0,0.0
2235,63.0,71,180,2.0,0.0
2236,84.0,0,88,5.0,0.0
2237,81.0,56,88,6.0,0.0
2238,87.0,0,180,0.0,0.0
2239,74.0,0,71,1.0,0.0
2240,86.0,0,71,0.0,0.0
2241,62.0,289,71,2.0,0.0
2242,55.0,90,360,8.0,0.0
2243,52.0,0,180,7.0,0.0
2244,61.0,0,180,6.0,0.0
2245,82.0,144,180,5.0,0.0
2246,43.0,0,360,10.0,0.0
2247,73.0,36,144,5.0,0.0
2248,70.0,0,144,6.0,0.0
2249,64.0,0,144,7.0,0.0
2250,54.0,180,180,8.0,0.0
2251,42.0,0,173,10.0,0.0
2252,74.0,90,83,5.0,0.0
2253,66.0,0,173,7.0,0.0
2254,69.0,0,0,6.0,0.0
2255,74.0,0,90,5.0,0.0
2256,55.0,0,180,8.0,0.0
2257,67.0,0,180,7.0,0.0
2258,43.0,90,180,10.0,0.0
2259,70.0,0,90,5.0,0.0
2260,67.0,0,90,6.0,0.0
2261,72.0,0,90,5.0,0.0
2262,48.0,136,180,8.0,0.0
2263,63.0,9,171,7.0,0.0
2264,36.0,0,171,10.0,0.0
2265,69.0,81,90,6.0,0.0
2266,72.0,0,81,5.0,0.0
2267,69.0,0,81,6.0,0.0
2268,62.0,8,145,7.0,0.0
2269,81.0,0,189,0.0,0.0
2270,66.0,0,189,1.0,0.0
2271,38.0,0,145,10.0,0.0
2272,69.0,0,189,1.0,0.0
2273,50.0,36,144,8.0,0.0
2274,66.0,0,99,6.0,0.0
2275,69.0,171,99,5.0,0.0
2276,67.0,180,728,3.0,0.0
2277,55.0,0,368,7.0,0.0
2278,31.0,0,368,10.0,0.0
2279,43.0,0,360,8.0,0.0
2280,70.0,0,171,1.0,0.0
2281,67.0,189,171,1.0,0.0
2282,67.0,180,360,5.0,0.0
2283,67.0,0,360,6.0,0.0
2284,82.0,0,171,0.0,0.0
2285,83.0,0,189,0.0,0.0
2286,65.0,0,189,1.0,0.0
2287,71.0,0,189,1.0,0.0
2288,84.0,0,180,0.0,0.0
2289,72.0,144,180,1.0,0.0
2290,64.0,0,180,1.0,0.0
2291,85.0,0,144,0.0,0.0
2292,58.0,0,180,2.0,0.0
2293,73.0,36,144,1.0,0.0
2294,63.0,0,144,1.0,0.0
2295,55.0,0,180,2.0,0.0
2296,57.0,180,180,2.0,0.0
2297,54.0,0,180,2.0,0.0
2298,62.0,180,360,3.0,0.0
2299,62.0,0,360,1.0,0.0
2300,74.0,0,540,1.0,0.0
2301,86.0,0,540,0.0,0.0
2302,56.0,0,180,2.0,0.0
2303,53.0,0,180,2.0,0.0
2304,52.0,180,180,2.0,0.0
2305,67.0,180,360,1.0,0.0
2306,55.0,0,360,2.0,0.0
2307,55.0,0,360,3.0,0.0
2308,84.0,90,360,0.0,0.0
2309,51.0,0,180,2.0,0.0
2310,72.0,0,180,1.0,0.0
2311,57.0,0,180,2.0,0.0
2312,50.0,0,180,2.0,0.0
2313,66.0,0,180,1.0,0.0
2314,72.0,0,180,1.0,0.0
2315,50.0,0,180,3.0,0.0
2316,67.0,0,360,1.0,0.0
2317,49.0,0,180,2.0,0.0
2318,58.0,54,90,2.0,0.0
2319,70.0,22,180,1.0,0.0
2320,82.0,36,144,0.0,0.0
2321,55.0,0,90,2.0,0.0
2322,69.0,0,360,1.0,0.0
2323,62.0,0,180,3.0,0.0
2324,62.0,45,262,2.0,0.0
2325,81.0,23,22,0.0,0.0
2326,82.0,22,23,0.0,0.0
2327,81.0,23,22,0.0,0.0
2328,82.0,22,23,0.0,0.0
2329,81.0,23,22,0.0,0.0
2330,82.0,22,23,0.0,0.0
2331,81.0,23,22,0.0,0.0
2332,82.0,0,23,0.0,0.0
2333,66.0,0,180,1.0,0.0
2334,81.0,23,22,0.0,0.0
2335,50.0,0,0,3.0,0.0
2336,62.0,0,180,3.0,0.0
2337,50.0,22,0,2.0,0.0
2338,82.0,22,23,0.0,0.0
2339,81.0,15,22,0.0,0.0
2340,82.0,0,15,0.0,0.0
2341,79.0,53,45,0.0,0.0
2342,60.0,0,98,2.0,0.0
2343,81.0,0,53,0.0,0.0
2344,79.0,36,144,0.0,0.0
2345,58.0,0,180,2.0,0.0
2346,43.0,0,180,2.0,0.0
2347,67.0,0,180,1.0,0.0
2348,50.0,180,180,3.0,0.0
2349,62.0,0,180,3.0,0.0
2350,55.0,88,180,2.0,0.0
2351,74.0,0,88,6.0,0.0
2352,77.0,180,88,5.0,0.0
2353,74.0,0,88,6.0,0.0
2354,77.0,137,88,5.0,0.0
2355,89.0,45,45,4.0,0.0
2356,58.0,39,360,8.0,0.0
2357,70.0,0,354,7.0,0.0
2358,74.0,0,354,6.0,0.0
2359,77.0,0,444,5.0,0.0
2360,46.0,6,354,10.0,0.0
2361,46.0,0,354,4.0,0.0
2362,58.0,0,354,4.0,0.0
2363,86.0,45,45,4.0,0.0
2364,82.0,45,45,4.0,0.0
2365,86.0,45,45,4.0,0.0
2366,77.0,45,45,4.0,0.0
2367,82.0,45,45,4.0,0.0
2368,74.0,39,45,4.0,0.0
2369,77.0,0,39,4.0,0.0
2370,82.0,45,45,4.0,0.0
2371,43.0,42,366,4.0,0.0
2372,43.0,17,313,10.0,0.0
2373,55.0,0,366,4.0,0.0
2374,70.0,0,259,6.0,0.0
2375,67.0,0,174,7.0,0.0
2376,55.0,36,324,8.0,0.0
2377,79.0,45,45,4.0,0.0
2378,76.0,0,84,5.0,0.0
2379,76.0,39,45,4.0,0.0
2380,79.0,45,39,4.0,0.0
2381,70.0,40,45,4.0,0.0
2382,64.0,0,139,7.0,0.0
2383,79.0,45,85,5.0,0.0
2384,76.0,0,40,4.0,0.0
2385,67.0,9,45,4.0,0.0
2386,67.0,0,71,6.0,0.0
2387,76.0,0,71,5.0,0.0
2388,76.0,0,62,4.0,0.0
2389,65.0,0,179,6.0,0.0
2390,69.0,0,359,7.0,0.0
2391,45.0,0,359,10.0,0.0
2392,74.0,45,179,5.0,0.0
2393,65.0,45,42,4.0,0.0
2394,45.0,0,357,4.0,0.0
2395,57.0,3,357,4.0,0.0
2396,57.0,42,360,8.0,0.0
2397,69.0,45,45,4.0,0.0
2398,74.0,45,45,4.0,0.0
2399,65.0,0,45,4.0,0.0
2400,64.0,45,45,4.0,0.0
2401,64.0,35,145,6.0,0.0
2402,73.0,0,145,5.0,0.0
2403,69.0,45,45,4.0,0.0
2404,73.0,10,45,4.0,0.0
2405,64.0,0,45,4.0,0.0
2406,81.0,0,363,5.0,0.0
2407,77.0,44,548,6.0,0.0
2408,62.0,0,363,7.0,0.0
2409,38.0,0,363,10.0,0.0
2410,69.0,0,363,6.0,0.0
2411,65.0,48,45,4.0,0.0
2412,50.0,0,363,4.0,0.0
2413,38.0,0,363,4.0,0.0
2414,50.0,0,360,8.0,0.0
2415,62.0,45,48,4.0,0.0
2416,69.0,49,45,4.0,0.0
2417,65.0,45,49,4.0,0.0
2418,74.0,50,45,4.0,0.0
2419,69.0,45,50,4.0,0.0
2420,77.0,36,45,4.0,0.0
2421,74.0,50,36,4.0,0.0
2422,81.0,45,45,4.0,0.0
2423,81.0,35,145,5.0,0.0
2424,77.0,45,45,4.0,0.0
2425,74.0,10,45,4.0,0.0
2426,69.0,0,45,4.0,0.0
2427,76.0,0,44,6.0,0.0
2428,81.0,44,45,4.0,0.0
2429,79.0,1,44,5.0,0.0
2430,69.0,43,44,4.0,0.0
2431,74.0,0,43,6.0,0.0
2432,77.0,2,43,5.0,0.0
2433,81.0,45,45,4.0,0.0
2434,69.0,45,45,4.0,0.0
2435,57.0,39,180,8.0,0.0
2436,45.0,0,171,10.0,0.0
2437,77.0,0,87,5.0,0.0
2438,57.0,5,171,4.0,0.0
2439,81.0,42,45,4.0,0.0
2440,69.0,45,87,6.0,0.0
2441,69.0,0,42,4.0,0.0
2442,67.0,0,72,6.0,0.0
2443,79.0,27,45,4.0,0.0
2444,76.0,12,72,5.0,0.0
2445,69.0,0,39,4.0,0.0
2446,74.0,0,44,5.0,0.0
2447,33.0,0,185,10.0,0.0
2448,69.0,0,0,7.0,0.0
2449,65.0,1,44,6.0,0.0
2450,45.0,40,185,4.0,0.0
2451,77.0,40,45,4.0,0.0
2452,45.0,0,180,8.0,0.0
2453,69.0,43,40,4.0,0.0
2454,64.0,0,43,6.0,0.0
2455,76.0,55,45,4.0,0.0
2456,73.0,2,43,5.0,0.0
2457,69.0,0,55,4.0,0.0
2458,65.0,45,178,6.0,0.0
2459,74.0,0,178,5.0,0.0
2460,38.0,0,358,10.0,0.0
2461,69.0,0,175,7.0,0.0
2462,74.0,45,40,4.0,0.0
2463,50.0,0,358,4.0,0.0
2464,50.0,43,360,8.0,0.0
2465,76.0,45,45,4.0,0.0
2466,74.0,45,45,4.0,0.0
2467,73.0,0,45,4.0,0.0
2468,74.0,47,45,4.0,0.0
2469,68.0,36,147,7.0,0.0
2470,76.0,45,47,4.0,0.0
2471,77.0,10,45,4.0,0.0
2472,78.0,2,46,4.0,0.0
2473,67.0,0,1262,7.0,0.0
2474,75.0,45,92,5.0,0.0
2475,67.0,0,92,6.0,0.0
2476,80.0,47,45,4.0,0.0
2477,79.0,0,47,4.0,0.0
2478,74.0,0,95,5.0,0.0
2479,78.0,50,45,4.0,0.0
2480,65.0,44,95,6.0,0.0
2481,79.0,0,50,4.0,0.0
2482,55.0,0,180,8.0,0.0
2483,55.0,0,175,4.0,0.0
2484,80.0,48,45,4.0,0.0
2485,72.0,1,44,5.0,0.0
2486,43.0,0,175,10.0,0.0
2487,63.0,0,44,6.0,0.0
2488,65.0,29,175,4.0,0.0
2489,81.0,44,48,4.0,0.0
2490,62.0,1,44,6.0,0.0
2491,82.0,37,45,4.0,0.0
2492,71.0,0,44,5.0,0.0
2493,83.0,0,37,4.0,0.0
2494,60.0,1,360,8.0,0.0
2495,63.0,0,354,4.0,0.0
2496,60.0,0,354,4.0,0.0
2497,84.0,45,45,4.0,0.0
2498,72.0,23,22,5.0,0.0
2499,48.0,45,354,10.0,0.0
2500,63.0,0,22,6.0,0.0
2501,65.0,0,23,6.0,0.0
2502,74.0,0,23,5.0,0.0
2503,72.0,45,45,5.0,0.0
2504,63.0,0,45,6.0,0.0
2505,86.0,0,45,4.0,0.0
2506,71.0,0,71,5.0,0.0
2507,84.0,26,45,4.0,0.0
2508,62.0,17,71,6.0,0.0
2509,83.0,44,43,4.0,0.0
2510,72.0,0,44,5.0,0.0
2511,84.0,42,45,4.0,0.0
2512,63.0,1,44,6.0,0.0
2513,86.0,44,42,4.0,0.0
2514,74.0,0,44,5.0,0.0
2515,65.0,1,44,6.0,0.0
2516,87.0,43,45,4.0,0.0
2517,84.0,0,44,4.0,0.0
2518,80.0,44,45,4.0,0.0
2519,67.0,45,89,6.0,0.0
2520,75.0,0,89,5.0,0.0
2521,79.0,0,44,4.0,0.0
2522,65.0,17,71,6.0,0.0
2523,74.0,0,71,5.0,0.0
2524,78.0,26,45,4.0,0.0
2525,79.0,44,43,4.0,0.0
2526,65.0,0,182,4.0,0.0
2527,72.0,1,44,5.0,0.0
2528,63.0,0,44,6.0,0.0
2529,80.0,45,45,4.0,0.0
2530,43.0,0,182,10.0,0.0
2531,55.0,0,182,4.0,0.0
2532,55.0,43,180,8.0,0.0
2533,81.0,44,45,4.0,0.0
2534,62.0,0,44,6.0,0.0
2535,71.0,1,44,5.0,0.0
2536,82.0,47,45,4.0,0.0
2537,83.0,0,47,4.0,0.0
2538,63.0,45,180,6.0,0.0
2539,72.0,0,180,5.0,0.0
2540,36.0,0,360,10.0,0.0
2541,84.0,47,43,4.0,0.0
2542,60.0,45,360,4.0,0.0
2543,63.0,0,360,4.0,0.0
2544,48.0,0,360,8.0,0.0
2545,86.0,45,47,4.0,0.0
2546,84.0,45,45,4.0,0.0
2547,83.0,0,45,4.0,0.0
2548,84.0,45,45,4.0,0.0
2549,86.0,45,45,4.0,0.0
2550,87.0,45,45,4.0,0.0
2551,86.0,0,45,4.0,0.0
2552,72.0,0,88,5.0,0.0
2553,84.0,43,45,4.0,0.0
2554,86.0,45,43,4.0,0.0
2555,82.0,41,45,4.0,0.0
2556,84.0,45,41,4.0,0.0
2557,72.0,45,88,5.0,0.0
2558,63.0,0,186,4.0,0.0
2559,60.0,0,186,4.0,0.0
2560,80.0,43,45,4.0,0.0
2561,63.0,40,186,7.0,0.0
2562,82.0,0,43,4.0,0.0
2563,79.0,53,45,4.0,0.0
2564,80.0,0,53,4.0,0.0
2565,72.0,45,180,5.0,0.0
2566,78.0,47,40,4.0,0.0
2567,62.0,45,358,4.0,0.0
2568,62.0,35,323,7.0,0.0
2569,81.0,45,47,4.0,0.0
2570,84.0,45,45,4.0,0.0
2571,87.0,0,45,4.0,0.0
2572,69.0,45,91,5.0,0.0
2573,84.0,46,45,4.0,0.0
2574,81.0,0,46,4.0,0.0
2575,78.0,10,45,4.0,0.0
2576,81.0,0,45,4.0,0.0
2577,63.0,0,89,6.0,0.0
2578,75.0,0,89,5.0,0.0
2579,75.0,44,45,4.0,0.0
2580,78.0,45,44,4.0,0.0
2581,72.0,43,45,4.0,0.0
2582,75.0,45,43,4.0,0.0
2583,69.0,44,45,4.0,0.0
2584,75.0,45,89,5.0,0.0
2585,63.0,0,89,6.0,0.0
2586,72.0,0,44,4.0,0.0
2587,66.0,51,45,4.0,0.0
2588,69.0,42,51,4.0,0.0
2589,75.0,0,179,5.0,0.0
2590,42.0,3,359,10.0,0.0
2591,57.0,0,359,7.0,0.0
2592,63.0,45,179,6.0,0.0
2593,60.0,0,359,7.0,0.0
2594,54.0,42,360,8.0,0.0
2595,42.0,0,357,4.0,0.0
2596,63.0,45,42,4.0,0.0
2597,54.0,0,357,4.0,0.0
2598,69.0,45,45,4.0,0.0
2599,72.0,45,45,4.0,0.0
2600,69.0,0,45,4.0,0.0
2601,62.0,45,45,4.0,0.0
2602,74.0,0,90,5.0,0.0
2603,62.0,45,90,6.0,0.0
2604,69.0,0,45,4.0,0.0
2605,72.0,45,45,4.0,0.0
2606,69.0,0,45,4.0,0.0
2607,82.0,11,176,5.0,0.0
2608,61.0,45,187,6.0,0.0
2609,52.0,0,187,7.0,0.0
2610,58.0,0,187,7.0,0.0
2611,55.0,0,363,4.0,0.0
2612,64.0,48,45,4.0,0.0
2613,43.0,0,363,10.0,0.0
2614,43.0,50,363,4.0,0.0
2615,55.0,0,360,8.0,0.0
2616,67.0,45,48,4.0,0.0
2617,70.0,38,45,4.0,0.0
2618,73.0,0,49,4.0,0.0
2619,73.0,5,88,5.0,0.0
2620,67.0,0,176,7.0,0.0
2621,64.0,0,176,7.0,0.0
2622,70.0,0,176,6.0,0.0
2623,76.0,43,45,4.0,0.0
2624,79.0,45,48,4.0,0.0
2625,82.0,38,45,4.0,0.0
2626,85.0,0,38,4.0,0.0
2627,54.0,4,180,8.0,0.0
2628,74.0,45,45,4.0,0.0
2629,74.0,0,179,5.0,0.0
2630,54.0,0,179,4.0,0.0
2631,42.0,0,179,10.0,0.0
2632,69.0,45,179,6.0,0.0
2633,66.0,0,179,7.0,0.0
2634,81.0,45,45,4.0,0.0
2635,86.0,40,45,4.0,0.0
2636,81.0,0,44,4.0,0.0
2637,55.0,2,180,8.0,0.0
2638,74.0,45,45,4.0,0.0
2639,55.0,45,178,4.0,0.0
2640,62.0,0,266,6.0,0.0
2641,67.0,0,178,7.0,0.0
2642,72.0,0,90,5.0,0.0
2643,43.0,0,178,10.0,0.0
2644,79.0,45,45,4.0,0.0
2645,82.0,41,45,4.0,0.0
2646,79.0,0,43,4.0,0.0
2647,48.0,42,180,8.0,0.0
2648,36.0,0,175,10.0,0.0
2649,70.0,0,0,5.0,0.0
2650,63.0,0,175,7.0,0.0
2651,48.0,0,175,4.0,0.0
2652,72.0,43,45,4.0,0.0
2653,75.0,0,43,4.0,0.0
2654,81.0,42,45,4.0,0.0
2655,69.0,0,87,5.0,0.0
2656,60.0,0,87,6.0,0.0
2657,75.0,3,42,4.0,0.0
2658,50.0,0,183,4.0,0.0
2659,62.0,0,183,7.0,0.0
2660,58.0,45,87,6.0,0.0
2661,67.0,0,87,5.0,0.0
2662,38.0,0,183,10.0,0.0
2663,72.0,42,45,4.0,0.0
2664,50.0,42,180,8.0,0.0
2665,74.0,0,42,4.0,0.0
2666,66.0,0,96,5.0,0.0
2667,78.0,51,45,4.0,0.0
2668,57.0,0,96,6.0,0.0
2669,74.0,0,51,4.0,0.0
2670,70.0,45,42,4.0,0.0
2671,39.0,0,540,4.0,0.0
2672,67.0,0,177,7.0,0.0
2673,67.0,0,177,5.0,0.0
2674,51.0,0,540,4.0,0.0
2675,55.0,0,177,6.0,0.0
2676,51.0,45,540,8.0,0.0
2677,39.0,0,540,10.0,0.0
2678,79.0,45,45,4.0,0.0
2679,82.0,45,45,4.0,0.0
2680,79.0,45,45,4.0,0.0
2681,71.0,48,45,4.0,0.0
2682,79.0,45,48,4.0,0.0
2683,83.0,45,45,4.0,0.0
2684,79.0,45,45,4.0,0.0
2685,79.0,0,180,5.0,0.0
2686,67.0,0,180,6.0,0.0
2687,72.0,45,45,4.0,0.0
2688,79.0,45,45,4.0,0.0
2689,84.0,45,45,4.0,0.0
2690,79.0,0,45,4.0,0.0
2691,70.0,46,180,6.0,0.0
2692,67.0,0,180,7.0,0.0
2693,73.0,0,180,5.0,0.0
2694,40.0,0,180,4.0,0.0
2695,52.0,0,180,4.0,0.0
2696,40.0,0,180,10.0,0.0
2697,73.0,46,45,4.0,0.0
2698,52.0,0,180,8.0,0.0
2699,79.0,45,46,4.0,0.0
2700,85.0,44,45,4.0,0.0
2701,79.0,0,44,4.0,0.0
2702,53.0,0,180,8.0,0.0
2703,74.0,45,539,5.0,0.0
2704,69.0,0,179,6.0,0.0
2705,74.0,44,45,4.0,0.0
2706,53.0,0,179,4.0,0.0
2707,41.0,0,179,10.0,0.0
2708,41.0,0,179,4.0,0.0
2709,62.0,0,179,7.0,0.0
2710,81.0,45,44,4.0,0.0
2711,86.0,45,45,4.0,0.0
2712,81.0,45,45,4.0,0.0
2713,72.0,0,182,6.0,0.0
2714,54.0,2,180,8.0,0.0
2715,42.0,0,182,10.0,0.0
2716,54.0,0,182,4.0,0.0
2717,42.0,45,182,4.0,0.0
2718,75.0,46,45,4.0,0.0
2719,69.0,0,182,7.0,0.0
2720,84.0,45,46,4.0,0.0
2721,87.0,44,45,4.0,0.0
2722,84.0,0,46,4.0,0.0
2723,55.0,0,360,8.0,0.0
2724,70.0,0,178,6.0,0.0
2725,55.0,0,358,4.0,0.0
2726,74.0,44,45,4.0,0.0
2727,43.0,0,358,10.0,0.0
2728,67.0,0,178,7.0,0.0
2729,43.0,0,358,4.0,0.0
2730,82.0,45,44,4.0,0.0
2731,86.0,44,45,4.0,0.0
2732,82.0,0,44,4.0,0.0
2733,81.0,45,45,4.0,0.0
2734,72.0,45,90,5.0,0.0
2735,62.0,0,180,7.0,0.0
2736,69.0,0,90,6.0,0.0
2737,84.0,0,45,4.0,0.0
2738,67.0,45,90,6.0,0.0
2739,79.0,45,45,4.0,0.0
2740,82.0,0,45,4.0,0.0
2741,60.0,45,181,7.0,0.0
2742,48.0,3,88,8.0,0.0
2743,70.0,0,0,5.0,0.0
2744,36.0,0,88,10.0,0.0
2745,63.0,0,270,6.0,0.0
2746,87.0,43,45,4.0,0.0
2747,48.0,0,181,4.0,0.0
2748,84.0,45,46,4.0,0.0
2749,69.0,0,90,5.0,0.0
2750,81.0,45,45,4.0,0.0
2751,84.0,0,45,4.0,0.0
2752,48.0,2,88,8.0,0.0
2753,75.0,42,45,4.0,0.0
2754,48.0,0,176,4.0,0.0
2755,36.0,0,89,10.0,0.0
2756,72.0,45,89,5.0,0.0
2757,63.0,0,176,7.0,0.0
2758,81.0,0,44,4.0,0.0
2759,72.0,42,45,4.0,0.0
2760,60.0,0,87,6.0,0.0
2761,69.0,0,87,5.0,0.0
2762,75.0,45,42,4.0,0.0
2763,62.0,0,88,7.0,0.0
2764,67.0,3,88,5.0,0.0
2765,50.0,45,174,4.0,0.0
2766,38.0,0,88,10.0,0.0
2767,58.0,0,88,6.0,0.0
2768,70.0,42,45,4.0,0.0
2769,50.0,41,88,8.0,0.0
2770,74.0,1,42,4.0,0.0
2771,67.0,42,45,4.0,0.0
2772,70.0,0,42,4.0,0.0
2773,57.0,0,89,6.0,0.0
2774,66.0,0,189,5.0,0.0
2775,38.0,0,89,10.0,0.0
2776,69.0,42,45,4.0,0.0
2777,50.0,174,189,4.0,0.0
2778,62.0,8,89,7.0,0.0
2779,50.0,35,88,8.0,0.0
2780,72.0,2,42,4.0,0.0
2781,66.0,57,45,4.0,0.0
2782,69.0,0,57,4.0,0.0
2783,58.0,0,180,6.0,0.0
2784,31.0,0,180,10.0,0.0
2785,58.0,6,180,7.0,0.0
2786,67.0,0,174,5.0,0.0
2787,43.0,177,180,8.0,0.0
2788,67.0,183,357,4.0,0.0
2789,43.0,0,174,4.0,0.0
2790,55.0,0,183,4.0,0.0
2791,62.0,0,723,1.0,0.0
2792,74.0,0,723,1.0,0.0
2793,62.0,0,363,6.0,0.0
2794,74.0,88,363,6.0,0.0
2795,62.0,0,363,15.0,0.0
2796,74.0,0,363,14.0,0.0
2797,62.0,0,363,14.0,0.0
2798,50.0,0,363,15.0,0.0
2799,62.0,0,723,2.0,0.0
2800,62.0,0,183,11.0,0.0
2801,74.0,180,183,11.0,0.0
2802,50.0,0,723,2.0,0.0
2803,70.0,2,88,6.0,0.0
2804,50.0,0,360,7.0,0.0
2805,62.0,0,360,7.0,0.0
2806,86.0,0,360,13.0,0.0
2807,82.0,0,540,11.0,0.0
2808,43.0,0,90,8.0,0.0
2809,31.0,45,90,10.0,0.0
2810,62.0,0,720,3.0,0.0
2811,67.0,9,360,7.0,0.0
2812,45.0,0,45,8.0,0.0
2813,33.0,45,45,10.0,0.0
2814,46.0,0,45,8.0,0.0
2815,34.0,45,45,10.0,0.0
2816,67.0,2,88,6.0,0.0
2817,36.0,0,45,10.0,0.0
2818,48.0,43,45,8.0,0.0
2819,50.0,41,49,8.0,0.0
2820,38.0,4,45,10.0,0.0
2821,40.0,4,45,10.0,0.0
2822,52.0,41,45,8.0,0.0
2823,42.0,0,45,10.0,0.0
2824,54.0,36,50,8.0,0.0
2825,50.0,0,360,15.0,0.0
2826,79.0,2,88,5.0,0.0
2827,50.0,0,720,2.0,0.0
2828,43.0,0,180,10.0,0.0
2829,74.0,0,360,14.0,0.0
2830,62.0,0,360,15.0,0.0
2831,62.0,0,360,14.0,0.0
2832,62.0,0,180,11.0,0.0
2833,74.0,0,180,11.0,0.0
2834,74.0,0,360,6.0,0.0
2835,55.0,43,45,7.0,0.0
2836,62.0,0,360,6.0,0.0
2837,55.0,6,165,8.0,0.0
2838,57.0,45,45,7.0,0.0
2839,58.0,39,45,7.0,0.0
2840,60.0,45,45,7.0,0.0
2841,74.0,2,88,5.0,0.0
2842,62.0,43,45,7.0,0.0
2843,64.0,45,45,7.0,0.0
2844,66.0,45,45,7.0,0.0
2845,67.0,0,45,7.0,0.0
2846,42.0,4,90,8.0,0.0
2847,50.0,0,0,3.0,0.0
2848,72.0,2,88,6.0,0.0
2849,66.0,0,360,7.0,0.0
2850,62.0,0,360,7.0,0.0
2851,30.0,39,90,10.0,0.0
2852,62.0,0,720,3.0,0.0
2853,86.0,0,360,13.0,0.0
2854,50.0,0,360,7.0,0.0
2855,86.0,84,0,0.0,0.0
2856,43.0,6,45,8.0,0.0
2857,31.0,40,45,10.0,0.0
2858,45.0,5,46,8.0,0.0
2859,33.0,40,45,10.0,0.0
2860,46.0,5,45,8.0,0.0
2861,69.0,2,88,6.0,0.0
2862,34.0,43,45,10.0,0.0
2863,48.0,45,50,8.0,0.0
2864,36.0,0,45,10.0,0.0
2865,50.0,0,45,8.0,0.0
2866,38.0,45,45,10.0,0.0
2867,52.0,43,47,8.0,0.0
2868,40.0,0,45,10.0,0.0
2869,42.0,0,180,10.0,0.0
2870,81.0,2,88,5.0,0.0
2871,74.0,0,360,6.0,0.0
2872,62.0,0,360,14.0,0.0
2873,74.0,0,360,14.0,0.0
2874,74.0,0,0,1.0,0.0
2875,62.0,0,0,2.0,0.0
2876,50.0,0,360,2.0,0.0
2877,74.0,45,180,11.0,0.0
2878,62.0,0,180,11.0,0.0
2879,50.0,85,360,15.0,0.0
2880,62.0,0,360,15.0,0.0
2881,54.0,43,45,7.0,0.0
2882,62.0,2,0,1.0,0.0
2883,62.0,0,360,6.0,0.0
2884,54.0,5,173,8.0,0.0
2885,55.0,45,45,7.0,0.0
2886,57.0,40,45,7.0,0.0
2887,58.0,0,45,7.0,0.0
2888,84.0,0,0,11.0,0.0
2889,74.0,2,88,5.0,0.0
2890,60.0,43,45,7.0,0.0
2891,62.0,0,45,7.0,0.0
2892,64.0,45,45,7.0,0.0
2893,66.0,0,45,7.0,0.0
2894,55.0,5,88,8.0,0.0
2895,88.0,0,720,0.0,0.0
2896,73.0,0,720,1.0,0.0
2897,82.0,144,720,1.0,0.0
2898,55.0,0,180,3.0,0.0
2899,76.0,88,180,5.0,0.0
2900,85.0,0,180,5.0,0.0
2901,67.0,0,180,3.0,0.0
2902,58.0,0,720,2.0,0.0
2903,73.0,0,180,6.0,0.0
2904,76.0,0,180,6.0,0.0
2905,43.0,40,90,10.0,0.0
2906,61.0,0,720,2.0,0.0
2907,58.0,5,45,8.0,0.0
2908,46.0,42,45,10.0,0.0
2909,67.0,0,0,7.0,0.0
2910,57.0,3,47,8.0,0.0
2911,45.0,0,45,10.0,0.0
2912,69.0,0,45,7.0,0.0
2913,55.0,2,91,8.0,0.0
2914,70.0,43,90,7.0,0.0
2915,43.0,0,90,10.0,0.0
2916,58.0,2,45,8.0,0.0
2917,46.0,0,45,10.0,0.0
2918,73.0,21,67,6.0,0.0
2919,76.0,0,67,6.0,0.0
2920,76.0,0,67,5.0,0.0
2921,85.0,0,67,5.0,0.0
2922,67.0,22,45,7.0,0.0
2923,67.0,0,67,3.0,0.0
2924,55.0,0,67,3.0,0.0
2925,57.0,2,45,8.0,0.0
2926,69.0,67,45,7.0,0.0
2927,45.0,0,45,10.0,0.0
2928,55.0,2,90,8.0,0.0
2929,67.0,21,67,3.0,0.0
2930,55.0,0,67,3.0,0.0
2931,73.0,0,67,6.0,0.0
2932,70.0,67,90,7.0,0.0
2933,43.0,0,90,10.0,0.0
2934,85.0,0,67,5.0,0.0
2935,76.0,0,67,5.0,0.0
2936,76.0,0,67,6.0,0.0
2937,58.0,3,89,8.0,0.0
2938,67.0,0,67,3.0,0.0
2939,55.0,0,67,3.0,0.0
2940,73.0,0,67,6.0,0.0
2941,67.0,67,90,7.0,0.0
2942,85.0,20,67,5.0,0.0
2943,76.0,0,67,5.0,0.0
2944,76.0,0,67,6.0,0.0
2945,46.0,0,90,10.0,0.0
2946,57.0,2,91,8.0,0.0
2947,45.0,0,90,10.0,0.0
2948,69.0,67,90,7.0,0.0
2949,73.0,0,67,6.0,0.0
2950,76.0,0,67,5.0,0.0
2951,85.0,0,67,5.0,0.0
2952,55.0,0,67,3.0,0.0
2953,76.0,21,67,6.0,0.0
2954,67.0,0,67,3.0,0.0
2955,55.0,0,92,8.0,0.0
2956,76.0,0,67,6.0,0.0
2957,73.0,0,67,6.0,0.0
2958,43.0,0,90,10.0,0.0
2959,55.0,0,67,3.0,0.0
2960,67.0,23,67,3.0,0.0
2961,70.0,0,90,7.0,0.0
2962,85.0,0,67,5.0,0.0
2963,76.0,0,67,5.0,0.0
2964,69.0,0,180,7.0,0.0
2965,74.0,0,180,6.0,0.0
2966,50.0,270,180,3.0,0.0
2967,62.0,0,180,3.0,0.0
2968,81.0,0,144,1.0,0.0
2969,42.0,0,180,10.0,0.0
2970,74.0,0,144,1.0,0.0
2971,86.0,0,180,5.0,0.0
2972,86.0,0,144,0.0,0.0
2973,62.0,0,144,2.0,0.0
2974,57.0,33,144,2.0,0.0
2975,54.0,3,177,8.0,0.0
2976,74.0,0,180,5.0,0.0
2977,55.0,0,92,8.0,0.0
2978,79.0,0,90,5.0,0.0
2979,70.0,0,90,5.0,0.0
2980,62.0,0,90,5.0,0.0
2981,67.0,45,90,7.0,0.0
2982,43.0,0,90,10.0,0.0
2983,79.0,0,90,6.0,0.0
2984,70.0,0,90,6.0,0.0
2985,62.0,0,90,6.0,0.0
2986,43.0,0,45,8.0,0.0
2987,55.0,0,45,6.0,0.0
2988,55.0,45,45,5.0,0.0
2989,55.0,0,45,7.0,0.0
2990,31.0,0,45,10.0,0.0
2991,45.0,89,46,8.0,0.0
2992,57.0,0,45,7.0,0.0
2993,57.0,0,45,6.0,0.0
2994,57.0,0,45,5.0,0.0
2995,33.0,1,45,10.0,0.0
2996,58.0,0,90,6.0,0.0
2997,55.0,0,0,3.0,0.0
2998,67.0,0,0,3.0,0.0
2999,58.0,0,90,5.0,0.0
3000,34.0,2,90,10.0,0.0
3001,58.0,0,90,7.0,0.0
3002,46.0,43,91,8.0,0.0
3003,60.0,0,90,5.0,0.0
3004,60.0,0,90,7.0,0.0
3005,60.0,0,90,6.0,0.0
3006,36.0,0,90,10.0,0.0
3007,48.0,0,88,8.0,0.0
3008,55.0,45,0,3.0,0.0
3009,67.0,0,45,3.0,0.0
3010,62.0,0,180,5.0,0.0
3011,38.0,0,180,10.0,0.0
3012,62.0,1,180,6.0,0.0
3013,50.0,0,180,3.0,0.0
3014,62.0,0,180,3.0,0.0
3015,62.0,0,180,7.0,0.0
3016,50.0,89,177,8.0,0.0
3017,50.0,0,90,2.0,0.0
3018,62.0,0,90,2.0,0.0
3019,74.0,0,0,1.0,0.0
3020,50.0,0,90,2.0,0.0
3021,86.0,0,0,0.0,0.0
3022,74.0,0,90,1.0,0.0
3023,86.0,90,90,0.0,0.0
3024,62.0,90,0,2.0,0.0
3025,50.0,0,90,2.0,0.0
3026,62.0,0,90,6.0,0.0
3027,55.0,44,91,8.0,0.0
3028,70.0,1,90,6.0,0.0
3029,46.0,0,180,2.0,0.0
3030,79.0,0,90,5.0,0.0
3031,70.0,0,90,5.0,0.0
3032,62.0,0,90,5.0,0.0
3033,67.0,0,180,3.0,0.0
3034,58.0,4,180,2.0,0.0
3035,79.0,0,90,6.0,0.0
3036,43.0,0,90,10.0,0.0
3037,70.0,0,180,1.0,0.0
3038,82.0,0,180,0.0,0.0
3039,67.0,0,90,7.0,0.0
3040,31.0,0,45,10.0,0.0
3041,55.0,0,45,5.0,0.0
3042,55.0,0,45,7.0,0.0
3043,55.0,1,45,6.0,0.0
3044,43.0,44,45,8.0,0.0
3045,33.0,0,45,10.0,0.0
3046,57.0,0,45,6.0,0.0
3047,57.0,0,45,5.0,0.0
3048,57.0,0,45,7.0,0.0
3049,45.0,86,48,8.0,0.0
3050,34.0,0,90,10.0,0.0
3051,58.0,0,90,5.0,0.0
3052,58.0,4,90,6.0,0.0
3053,55.0,0,0,3.0,0.0
3054,58.0,0,90,7.0,0.0
3055,67.0,0,135,3.0,0.0
3056,46.0,41,90,8.0,0.0
3057,60.0,0,90,7.0,0.0
3058,60.0,0,90,6.0,0.0
3059,36.0,0,90,10.0,0.0
3060,60.0,0,90,5.0,0.0
3061,48.0,0,86,8.0,0.0
3062,55.0,45,0,3.0,0.0
3063,67.0,180,45,3.0,0.0
3064,38.0,0,180,10.0,0.0
3065,62.0,0,180,7.0,0.0
3066,50.0,0,180,3.0,0.0
3067,62.0,0,180,3.0,0.0
3068,62.0,0,180,6.0,0.0
3069,62.0,0,180,5.0,0.0
3070,50.0,86,177,8.0,0.0
3071,74.0,0,90,1.0,0.0
3072,86.0,0,90,0.0,0.0
3073,50.0,4,90,2.0,0.0
3074,62.0,0,90,2.0,0.0
3075,86.0,0,90,0.0,0.0
3076,74.0,0,90,1.0,0.0
3077,62.0,0,90,2.0,0.0
3078,50.0,90,90,2.0,0.0
3079,74.0,0,90,1.0,0.0
3080,86.0,0,90,0.0,0.0
3081,50.0,45,90,2.0,0.0
3082,62.0,0,90,2.0,0.0
3083,70.0,0,45,6.0,0.0
3084,82.0,0,198,0.0,0.0
3085,82.0,0,198,5.0,0.0
3086,58.0,0,198,2.0,0.0
3087,58.0,45,45,7.0,0.0
3088,38.0,0,95,10.0,0.0
3089,70.0,0,198,1.0,0.0
3090,62.0,0,198,5.0,0.0
3091,70.0,0,198,5.0,0.0
3092,46.0,0,198,2.0,0.0
3093,50.0,5,89,8.0,0.0
3094,72.0,45,50,6.0,0.0
3095,60.0,0,50,7.0,0.0
3096,62.0,40,45,7.0,0.0
3097,74.0,0,45,6.0,0.0
3098,63.0,45,58,7.0,0.0
3099,75.0,0,58,6.0,0.0
3100,50.0,18,0,8.0,0.0
3101,77.0,27,45,6.0,0.0
3102,38.0,0,0,10.0,0.0
3103,65.0,0,45,7.0,0.0
3104,67.0,0,50,7.0,0.0
3105,79.0,45,50,6.0,0.0
3106,50.0,23,0,8.0,0.0
3107,38.0,0,0,10.0,0.0
3108,69.0,22,45,7.0,0.0
3109,81.0,0,45,6.0,0.0
3110,82.0,0,36,6.0,0.0
3111,70.0,42,36,7.0,0.0
3112,51.0,11,87,8.0,0.0
3113,70.0,0,177,5.0,0.0
3114,67.0,0,351,2.0,0.0
3115,63.0,0,177,5.0,0.0
3116,55.0,0,351,2.0,0.0
3117,91.0,0,351,0.0,0.0
3118,79.0,0,177,5.0,0.0
3119,39.0,0,87,10.0,0.0
3120,79.0,0,351,1.0,0.0
3121,79.0,31,42,6.0,0.0
3122,67.0,0,42,7.0,0.0
3123,80.0,0,42,6.0,0.0
3124,68.0,45,42,7.0,0.0
3125,51.0,11,90,8.0,0.0
3126,79.0,0,45,6.0,0.0
3127,67.0,34,45,7.0,0.0
3128,39.0,0,90,10.0,0.0
3129,77.0,0,45,6.0,0.0
3130,65.0,45,45,7.0,0.0
3131,39.0,0,87,10.0,0.0
3132,75.0,0,45,6.0,0.0
3133,63.0,37,45,7.0,0.0
3134,62.0,0,42,7.0,0.0
3135,74.0,45,42,6.0,0.0
3136,51.0,5,0,8.0,0.0
3137,72.0,0,45,6.0,0.0
3138,60.0,35,45,7.0,0.0
3139,39.0,45,87,10.0,0.0
3140,70.0,0,35,6.0,0.0
3141,58.0,5,35,7.0,0.0
3142,53.0,44,91,8.0,0.0
3143,69.0,0,358,1.0,0.0
3144,63.0,0,358,1.0,0.0
3145,69.0,43,45,6.0,0.0
3146,57.0,0,45,7.0,0.0
3147,81.0,0,358,0.0,0.0
3148,41.0,0,88,10.0,0.0
3149,57.0,0,358,2.0,0.0
3150,51.0,0,358,2.0,0.0
3151,58.0,0,43,7.0,0.0
3152,70.0,1,43,6.0,0.0
3153,57.0,0,45,7.0,0.0
3154,69.0,40,45,6.0,0.0
3155,41.0,0,85,10.0,0.0
3156,55.0,0,40,7.0,0.0
3157,67.0,0,40,6.0,0.0
3158,77.0,0,0,5.0,0.0
3159,53.0,42,45,7.0,0.0
3160,65.0,0,0,5.0,0.0
3161,72.0,6,0,5.0,0.0
3162,65.0,0,45,6.0,0.0
3163,41.0,0,87,10.0,0.0
3164,53.0,39,0,8.0,0.0
3165,63.0,9,42,6.0,0.0
3166,51.0,0,42,7.0,0.0
3167,50.0,36,45,7.0,0.0
3168,41.0,0,98,10.0,0.0
3169,62.0,9,36,6.0,0.0
3170,53.0,0,89,8.0,0.0
3171,48.0,17,36,7.0,0.0
3172,60.0,175,53,6.0,0.0
3173,50.0,0,178,7.0,0.0
3174,82.0,0,175,0.0,0.0
3175,34.0,0,175,10.0,0.0
3176,62.0,0,175,1.0,0.0
3177,70.0,0,175,1.0,0.0
3178,50.0,0,175,2.0,0.0
3179,58.0,0,175,2.0,0.0
3180,58.0,0,175,5.0,0.0
3181,58.0,7,175,6.0,0.0
3182,74.0,0,175,5.0,0.0
3183,65.0,0,175,5.0,0.0
3184,46.0,175,180,8.0,0.0
3185,74.0,93,90,4.0,0.0
3186,86.0,91,93,4.0,0.0
3187,81.0,91,91,4.0,0.0
3188,82.0,88,91,4.0,0.0
3189,78.0,91,88,4.0,0.0
3190,67.0,90,89,4.0,0.0
3191,81.0,0,89,4.0,0.0
3192,70.0,0,90,4.0,0.0
3193,74.0,90,90,4.0,0.0
3194,79.0,90,0,4.0,0.0
3195,70.0,55,90,4.0,0.0
3196,67.0,22,90,4.0,0.0
3197,70.0,72,90,4.0,0.0
3198,81.0,23,22,4.0,0.0
3199,79.0,45,23,4.0,0.0
3200,78.0,0,45,4.0,0.0
3201,79.0,17,72,4.0,0.0
3202,74.0,43,89,4.0,0.0
3203,79.0,47,43,4.0,0.0
3204,70.0,90,90,4.0,0.0
3205,87.0,90,90,4.0,0.0
3206,66.0,0,90,4.0,0.0
3207,86.0,90,90,4.0,0.0
3208,69.0,0,90,4.0,0.0
3209,86.0,45,270,4.0,0.0
3210,74.0,90,90,4.0,0.0
3211,69.0,90,90,4.0,0.0
3212,65.0,0,90,4.0,0.0
3213,69.0,45,90,4.0,0.0
3214,85.0,45,45,4.0,0.0
3215,86.0,0,45,4.0,0.0
3216,87.0,45,45,4.0,0.0
3217,74.0,0,90,4.0,0.0
3218,86.0,45,45,4.0,0.0
3219,69.0,90,90,4.0,0.0
3220,84.0,45,45,4.0,0.0
3221,82.0,0,45,4.0,0.0
3222,81.0,90,90,4.0,0.0
3223,64.0,0,90,4.0,0.0
3224,67.0,0,90,4.0,0.0
3225,79.0,43,90,4.0,0.0
3226,79.0,47,43,4.0,0.0
3227,74.0,43,90,4.0,0.0
3228,79.0,47,43,4.0,0.0
3229,67.0,45,90,4.0,0.0
3230,81.0,45,45,4.0,0.0
3231,63.0,0,90,4.0,0.0
3232,79.0,45,45,4.0,0.0
3233,67.0,45,90,4.0,0.0
3234,78.0,45,45,4.0,0.0
3235,79.0,0,45,4.0,0.0
3236,73.0,45,90,4.0,0.0
3237,78.0,45,45,4.0,0.0
3238,79.0,0,45,4.0,0.0
3239,81.0,45,45,4.0,0.0
3240,67.0,0,90,4.0,0.0
3241,79.0,180,45,4.0,0.0
3242,78.0,90,180,4.0,0.0
3243,62.0,265,365,4.0,0.0
3244,69.0,0,365,4.0,0.0
3245,81.0,95,90,4.0,0.0
3246,74.0,0,50,4.0,0.0
3247,82.0,45,265,4.0,0.0
3248,55.0,0,178,4.0,0.0
3249,58.0,177,178,4.0,0.0
3250,81.0,45,45,4.0,0.0
3251,79.0,0,45,4.0,0.0
3252,62.0,0,0,4.0,0.0
3253,60.0,185,177,4.0,0.0
3254,57.0,0,177,4.0,0.0
3255,78.0,0,177,4.0,0.0
3256,74.0,35,47,4.0,0.0
3257,86.0,31,35,4.0,0.0
3258,85.0,54,21,4.0,0.0
3259,84.0,45,21,4.0,0.0
3260,83.0,45,21,4.0,0.0
3261,74.0,0,169,4.0,0.0
3262,70.0,182,169,4.0,0.0
3263,82.0,45,21,4.0,0.0
3264,81.0,43,21,4.0,0.0
3265,80.0,45,21,4.0,0.0
3266,79.0,15,21,4.0,0.0
3267,78.0,185,177,4.0,0.0
3268,72.0,0,177,4.0,0.0
3269,74.0,0,177,4.0,0.0
3270,74.0,22,48,4.0,0.0
3271,79.0,23,22,4.0,0.0
3272,81.0,22,23,4.0,0.0
3273,79.0,23,22,4.0,0.0
3274,81.0,22,23,4.0,0.0
3275,79.0,23,22,4.0,0.0
3276,81.0,38,23,4.0,0.0
3277,81.0,84,38,4.0,0.0
3278,82.0,66,84,4.0,0.0
3279,55.0,19,180,4.0,0.0
3280,58.0,0,180,4.0,0.0
3281,62.0,0,180,4.0,0.0
3282,74.0,30,21,4.0,0.0
3283,75.0,23,19,4.0,0.0
3284,77.0,22,23,4.0,0.0
3285,75.0,24,22,4.0,0.0
3286,77.0,23,24,4.0,0.0
3287,75.0,22,23,4.0,0.0
3288,77.0,45,0,4.0,0.0
3289,60.0,0,180,4.0,0.0
3290,51.0,177,180,4.0,0.0
3291,79.0,66,90,4.0,0.0
3292,75.0,24,21,4.0,0.0
3293,74.0,23,177,4.0,0.0
3294,53.0,0,362,4.0,0.0
3295,58.0,0,177,4.0,0.0
3296,57.0,0,185,4.0,0.0
3297,72.0,22,23,4.0,0.0
3298,74.0,23,22,4.0,0.0
3299,72.0,21,23,4.0,0.0
3300,74.0,45,21,4.0,0.0
3301,70.0,51,45,4.0,0.0
3302,72.0,75,51,4.0,0.0
3303,46.0,12,95,8.0,0.0
3304,34.0,33,89,10.0,0.0
3305,46.0,0,89,2.0,0.0
3306,58.0,0,89,7.0,0.0
3307,46.0,0,87,4.0,0.0
3308,70.0,71,360,4.0,0.0
3309,48.0,12,45,8.0,0.0
3310,60.0,0,45,7.0,0.0
3311,48.0,39,45,2.0,0.0
3312,36.0,0,45,10.0,0.0
3313,50.0,7,51,8.0,0.0
3314,62.0,38,46,7.0,0.0
3315,50.0,0,46,2.0,0.0
3316,38.0,0,46,10.0,0.0
3317,51.0,7,45,8.0,0.0
3318,63.0,0,45,7.0,0.0
3319,39.0,47,45,10.0,0.0
3320,51.0,0,45,2.0,0.0
3321,53.0,44,55,8.0,0.0
3322,53.0,0,47,2.0,0.0
3323,65.0,1,47,7.0,0.0
3324,41.0,0,47,10.0,0.0
3325,67.0,1,45,7.0,0.0
3326,55.0,0,45,2.0,0.0
3327,43.0,0,45,10.0,0.0
3328,55.0,34,45,8.0,0.0
3329,45.0,0,35,10.0,0.0
3330,69.0,0,45,7.0,0.0
3331,57.0,1,35,2.0,0.0
3332,57.0,9,35,8.0,0.0
3333,46.0,0,90,10.0,0.0
3334,58.0,9,90,6.0,0.0
3335,58.0,0,90,2.0,0.0
3336,70.0,19,71,7.0,0.0
3337,58.0,36,92,8.0,0.0
3338,46.0,0,90,2.0,0.0
3339,34.0,9,90,10.0,0.0
3340,60.0,45,45,6.0,0.0
3341,58.0,0,90,7.0,0.0
3342,46.0,36,90,8.0,0.0
3343,62.0,0,45,6.0,0.0
3344,63.0,22,45,6.0,0.0
3345,70.0,10,67,7.0,0.0
3346,46.0,0,67,10.0,0.0
3347,58.0,45,91,2.0,0.0
3348,58.0,14,68,8.0,0.0
3349,65.0,0,46,6.0,0.0
3350,67.0,22,45,6.0,0.0
3351,45.0,0,67,10.0,0.0
3352,69.0,9,67,7.0,0.0
3353,57.0,68,89,2.0,0.0
3354,57.0,4,68,8.0,0.0
3355,69.0,9,35,6.0,0.0
3356,67.0,5,67,7.0,0.0
3357,70.0,0,89,5.0,0.0
3358,43.0,0,67,10.0,0.0
3359,70.0,0,67,6.0,0.0
3360,70.0,0,89,0.0,0.0
3361,55.0,0,89,2.0,0.0
3362,70.0,45,89,1.0,0.0
3363,55.0,17,68,8.0,0.0
3364,72.0,0,45,5.0,0.0
3365,72.0,0,45,1.0,0.0
3366,72.0,22,45,0.0,0.0
3367,31.0,0,67,10.0,0.0
3368,55.0,4,67,7.0,0.0
3369,58.0,0,67,6.0,0.0
3370,43.0,0,90,2.0,0.0
3371,43.0,19,67,8.0,0.0
3372,74.0,0,45,1.0,0.0
3373,74.0,45,45,5.0,0.0
3374,74.0,0,45,0.0,0.0
3375,76.0,22,45,0.0,0.0
3376,55.0,0,90,2.0,0.0
3377,67.0,0,67,7.0,0.0
3378,43.0,4,67,10.0,0.0
3379,70.0,0,67,6.0,0.0
3380,76.0,0,45,1.0,0.0
3381,76.0,0,45,5.0,0.0
3382,55.0,19,67,8.0,0.0
3383,77.0,0,45,1.0,0.0
3384,77.0,45,45,0.0,0.0
3385,77.0,0,45,5.0,0.0
3386,79.0,22,45,5.0,0.0
3387,79.0,0,45,1.0,0.0
3388,53.0,68,92,2.0,0.0
3389,65.0,6,67,7.0,0.0
3390,69.0,0,67,6.0,0.0
3391,79.0,0,45,0.0,0.0
3392,41.0,0,67,10.0,0.0
3393,53.0,7,68,8.0,0.0
3394,81.0,12,35,1.0,0.0
3395,81.0,0,35,5.0,0.0
3396,81.0,0,35,0.0,0.0
3397,52.0,56,185,2.0,0.0
3398,82.0,0,358,1.0,0.0
3399,52.0,0,68,8.0,0.0
3400,64.0,0,68,7.0,0.0
3401,67.0,0,68,6.0,0.0
3402,82.0,93,68,5.0,0.0
3403,82.0,0,358,0.0,0.0
3404,40.0,0,68,10.0,0.0
3405,70.0,24,68,5.0,0.0
3406,55.0,11,68,8.0,0.0
3407,55.0,56,173,2.0,0.0
3408,64.0,0,67,6.0,0.0
3409,55.0,0,67,7.0,0.0
3410,82.0,91,67,5.0,0.0
3411,43.0,0,67,10.0,0.0
3412,82.0,15,67,5.0,0.0
3413,45.0,8,177,8.0,0.0
3414,45.0,22,45,2.0,0.0
3415,73.0,0,67,1.0,0.0
3416,73.0,0,174,5.0,0.0
3417,73.0,20,67,0.0,0.0
3418,33.0,0,174,10.0,0.0
3419,57.0,0,45,7.0,0.0
3420,64.0,0,174,5.0,0.0
3421,57.0,0,174,5.0,0.0
3422,59.0,45,42,7.0,0.0
3423,47.0,0,42,2.0,0.0
3424,69.0,0,67,0.0,0.0
3425,69.0,12,67,1.0,0.0
3426,49.0,22,45,2.0,0.0
3427,61.0,0,45,7.0,0.0
3428,69.0,0,67,6.0,0.0
3429,62.0,45,42,7.0,0.0
3430,50.0,0,42,2.0,0.0
3431,69.0,22,68,1.0,0.0
3432,69.0,0,68,0.0,0.0
3433,52.0,0,45,2.0,0.0
3434,64.0,23,45,7.0,0.0
3435,69.0,0,68,6.0,0.0
3436,53.0,35,45,2.0,0.0
3437,65.0,0,45,7.0,0.0
3438,67.0,10,35,7.0,0.0
3439,69.0,0,68,1.0,0.0
3440,69.0,21,68,6.0,0.0
3441,69.0,0,68,0.0,0.0
3442,55.0,23,45,2.0,0.0
3443,69.0,0,44,7.0,0.0
3444,57.0,39,44,2.0,0.0
3445,50.0,6,45,8.0,0.0
3446,81.0,0,536,1.0,0.0
3447,38.0,22,45,10.0,0.0
3448,65.0,0,356,7.0,0.0
3449,62.0,0,446,3.0,0.0
3450,81.0,20,67,0.0,0.0
3451,81.0,5,536,6.0,0.0
3452,50.0,0,45,2.0,0.0
3453,69.0,0,356,6.0,0.0
3454,52.0,3,48,8.0,0.0
3455,40.0,0,45,10.0,0.0
3456,52.0,42,45,2.0,0.0
3457,53.0,3,45,8.0,0.0
3458,74.0,21,67,0.0,0.0
3459,53.0,0,45,2.0,0.0
3460,41.0,22,45,10.0,0.0
3461,74.0,6,88,1.0,0.0
3462,74.0,0,67,5.0,0.0
3463,55.0,39,52,8.0,0.0
3464,55.0,0,43,2.0,0.0
3465,43.0,0,43,10.0,0.0
3466,45.0,0,45,10.0,0.0
3467,74.0,21,68,5.0,0.0
3468,57.0,6,45,2.0,0.0
3469,74.0,0,68,0.0,0.0
3470,57.0,17,45,8.0,0.0
3471,59.0,11,44,2.0,0.0
3472,47.0,0,44,10.0,0.0
3473,59.0,34,49,8.0,0.0
3474,61.0,11,45,2.0,0.0
3475,74.0,0,67,5.0,0.0
3476,74.0,13,67,0.0,0.0
3477,49.0,0,45,10.0,0.0
3478,74.0,0,0,1.0,0.0
3479,61.0,11,45,8.0,0.0
3480,50.0,9,35,10.0,0.0
3481,62.0,2,44,2.0,0.0
3482,62.0,43,35,8.0,0.0
3483,62.0,0,450,7.0,0.0
3484,82.0,0,360,5.0,0.0
3485,70.0,0,360,5.0,0.0
3486,82.0,45,360,1.0,0.0
3487,43.0,7,45,2.0,0.0
3488,31.0,0,45,10.0,0.0
3489,82.0,0,360,0.0,0.0
3490,43.0,38,45,8.0,0.0
3491,33.0,0,45,10.0,0.0
3492,45.0,7,45,2.0,0.0
3493,45.0,38,45,8.0,0.0
3494,46.0,7,45,2.0,0.0
3495,34.0,0,45,10.0,0.0
3496,62.0,0,90,3.0,0.0
3497,46.0,38,45,8.0,0.0
3498,36.0,0,45,10.0,0.0
3499,48.0,0,45,2.0,0.0
3500,48.0,40,43,8.0,0.0
3501,38.0,0,45,10.0,0.0
3502,50.0,5,45,2.0,0.0
3503,79.0,0,180,6.0,0.0
3504,79.0,0,180,1.0,0.0
3505,50.0,40,45,8.0,0.0
3506,40.0,0,45,10.0,0.0
3507,52.0,0,45,2.0,0.0
3508,52.0,41,44,8.0,0.0
3509,62.0,4,0,3.0,0.0
3510,54.0,0,45,2.0,0.0
3511,42.0,4,45,10.0,0.0
3512,54.0,31,45,8.0,0.0
3513,43.0,0,35,10.0,0.0
3514,55.0,4,35,2.0,0.0
3515,55.0,6,35,8.0,0.0
3516,77.0,0,90,6.0,0.0
3517,81.0,22,45,5.0,0.0
3518,45.0,3,67,10.0,0.0
3519,81.0,45,90,0.0,0.0
3520,81.0,0,90,1.0,0.0
3521,57.0,0,175,2.0,0.0
3522,77.0,0,90,1.0,0.0
3523,57.0,20,68,8.0,0.0
3524,82.0,0,45,5.0,0.0
3525,57.0,18,67,7.0,0.0
3526,76.0,0,85,6.0,0.0
3527,79.0,0,85,1.0,0.0
3528,79.0,22,45,5.0,0.0
3529,76.0,0,85,1.0,0.0
3530,79.0,0,85,0.0,0.0
3531,81.0,45,40,5.0,0.0
3532,77.0,0,87,1.0,0.0
3533,45.0,175,185,2.0,0.0
3534,69.0,0,0,3.0,0.0
3535,69.0,3,68,7.0,0.0
3536,77.0,0,87,0.0,0.0
3537,33.0,0,68,10.0,0.0
3538,74.0,0,87,6.0,0.0
3539,77.0,23,45,5.0,0.0
3540,74.0,0,87,1.0,0.0
3541,45.0,16,68,8.0,0.0
3542,79.0,45,42,5.0,0.0
3543,73.0,0,72,6.0,0.0
3544,76.0,0,72,0.0,0.0
3545,73.0,0,72,1.0,0.0
3546,67.0,4,68,7.0,0.0
3547,76.0,23,45,5.0,0.0
3548,76.0,9,72,1.0,0.0
3549,77.0,17,36,5.0,0.0
3550,74.0,0,177,5.0,0.0
3551,74.0,3,177,1.0,0.0
3552,38.0,0,177,10.0,0.0
3553,65.0,0,177,7.0,0.0
3554,74.0,0,177,0.0,0.0
3555,74.0,0,177,6.0,0.0
3556,62.0,0,175,3.0,0.0
3557,50.0,180,178,8.0,0.0
3558,50.0,0,175,2.0,0.0
3559,56.0,0,277,6.0,0.0
3560,80.0,0,277,0.0,0.0
3561,68.0,88,277,5.0,0.0
3562,56.0,0,277,2.0,0.0
3563,68.0,0,277,1.0,0.0
3564,44.0,0,277,2.0,0.0
3565,51.0,92,93,7.0,0.0
3566,36.0,0,93,10.0,0.0
3567,48.0,2,90,8.0,0.0
3568,47.0,7,182,8.0,0.0
3569,35.0,0,187,10.0,0.0
3570,50.0,91,187,7.0,0.0
3571,55.0,82,186,6.0,0.0
3572,67.0,0,186,1.0,0.0
3573,79.0,0,186,0.0,0.0
3574,55.0,0,186,2.0,0.0
3575,67.0,0,186,5.0,0.0
3576,43.0,0,186,2.0,0.0
3577,53.0,0,180,8.0,0.0
3578,67.0,0,173,3.0,0.0
3579,55.0,0,173,3.0,0.0
3580,41.0,97,173,10.0,0.0
3581,55.0,0,173,7.0,0.0
3582,59.0,0,82,2.0,0.0
3583,71.0,0,82,1.0,0.0
3584,47.0,0,82,2.0,0.0
3585,83.0,0,82,0.0,0.0
3586,59.0,0,82,6.0,0.0
3587,71.0,0,82,5.0,0.0
3588,51.0,5,180,8.0,0.0
3589,60.0,0,89,2.0,0.0
3590,72.0,0,89,5.0,0.0
3591,48.0,0,89,2.0,0.0
3592,60.0,0,89,6.0,0.0
3593,55.0,0,177,7.0,0.0
3594,55.0,0,177,3.0,0.0
3595,67.0,0,177,3.0,0.0
3596,84.0,83,89,0.0,0.0
3597,72.0,0,89,1.0,0.0
3598,39.0,175,177,10.0,0.0
3599,75.0,0,88,5.0,0.0
3600,75.0,0,88,1.0,0.0
3601,51.0,0,88,2.0,0.0
3602,63.0,0,88,2.0,0.0
3603,63.0,0,88,6.0,0.0
3604,87.0,0,88,0.0,0.0
3605,80.0,0,267,0.0,0.0
3606,80.0,0,267,5.0,0.0
3607,68.0,88,267,6.0,0.0
3608,68.0,0,267,1.0,0.0
3609,56.0,0,267,2.0,0.0
3610,44.0,0,267,2.0,0.0
3611,60.0,4,90,8.0,0.0
3612,63.0,0,90,7.0,0.0
3613,48.0,88,90,10.0,0.0
3614,59.0,2,180,8.0,0.0
3615,62.0,89,178,7.0,0.0
3616,47.0,0,178,10.0,0.0
3617,67.0,89,179,6.0,0.0
3618,79.0,0,179,0.0,0.0
3619,55.0,0,179,2.0,0.0
3620,43.0,0,179,2.0,0.0
3621,67.0,0,179,1.0,0.0
3622,79.0,0,179,5.0,0.0
3623,65.0,0,180,8.0,0.0
3624,67.0,0,178,3.0,0.0
3625,53.0,0,178,10.0,0.0
3626,55.0,0,178,3.0,0.0
3627,67.0,0,178,7.0,0.0
3628,83.0,0,89,5.0,0.0
3629,47.0,0,89,2.0,0.0
3630,71.0,0,89,1.0,0.0
3631,83.0,0,89,0.0,0.0
3632,59.0,0,89,2.0,0.0
3633,71.0,90,89,6.0,0.0
3634,63.0,0,360,8.0,0.0
3635,55.0,0,359,3.0,0.0
3636,67.0,135,359,7.0,0.0
3637,84.0,0,89,5.0,0.0
3638,84.0,90,179,0.0,0.0
3639,67.0,0,359,3.0,0.0
3640,72.0,0,359,6.0,0.0
3641,60.0,0,89,2.0,0.0
3642,51.0,0,359,10.0,0.0
3643,72.0,45,45,5.0,0.0
3644,48.0,0,45,2.0,0.0
3645,72.0,45,0,1.0,0.0
3646,60.0,0,45,1.0,0.0
3647,50.0,0,45,2.0,0.0
3648,62.0,0,45,1.0,0.0
3649,74.0,0,45,5.0,0.0
3650,63.0,0,90,1.0,0.0
3651,51.0,90,90,2.0,0.0
3652,75.0,0,90,5.0,0.0
3653,60.0,0,90,1.0,0.0
3654,48.0,0,90,2.0,0.0
3655,72.0,0,90,5.0,0.0
3656,56.0,0,270,2.0,0.0
3657,68.0,0,270,1.0,0.0
3658,80.0,0,270,5.0,0.0
3659,48.0,0,45,2.0,0.0
3660,60.0,0,45,6.0,0.0
3661,72.0,45,45,0.0,0.0
3662,50.0,90,45,2.0,0.0
3663,62.0,0,45,6.0,0.0
3664,74.0,0,45,0.0,0.0
3665,51.0,0,90,2.0,0.0
3666,75.0,90,90,0.0,0.0
3667,63.0,0,90,6.0,0.0
3668,55.0,0,90,2.0,0.0
3669,48.0,0,90,2.0,0.0
3670,67.0,0,90,1.0,0.0
3671,60.0,90,90,6.0,0.0
3672,72.0,0,90,0.0,0.0
3673,79.0,0,90,5.0,0.0
3674,54.0,0,360,2.0,0.0
3675,57.0,45,90,2.0,0.0
3676,66.0,0,360,1.0,0.0
3677,81.0,0,360,0.0,0.0
3678,69.0,90,270,6.0,0.0
3679,78.0,0,270,5.0,0.0
3680,51.0,0,45,2.0,0.0
3681,75.0,45,45,1.0,0.0
3682,63.0,0,45,7.0,0.0
3683,74.0,0,45,1.0,0.0
3684,50.0,0,45,2.0,0.0
3685,62.0,90,45,7.0,0.0
3686,72.0,0,90,1.0,0.0
3687,48.0,0,90,2.0,0.0
3688,60.0,0,90,7.0,0.0
3689,75.0,0,90,1.0,0.0
3690,63.0,0,90,7.0,0.0
3691,78.0,0,90,5.0,0.0
3692,51.0,88,90,2.0,0.0
3693,69.0,0,90,6.0,0.0
3694,66.0,0,90,1.0,0.0
3695,72.0,0,88,6.0,0.0
3696,81.0,2,88,5.0,0.0
3697,42.0,45,90,2.0,0.0
3698,63.0,0,45,2.0,0.0
3699,63.0,0,45,8.0,0.0
3700,87.0,0,45,0.0,0.0
3701,75.0,0,45,1.0,0.0
3702,51.0,45,45,10.0,0.0
3703,51.0,0,45,2.0,0.0
3704,62.0,0,45,8.0,0.0
3705,74.0,0,45,1.0,0.0
3706,86.0,0,45,0.0,0.0
3707,62.0,0,45,2.0,0.0
3708,50.0,88,45,2.0,0.0
3709,50.0,0,45,10.0,0.0
3710,60.0,0,90,8.0,0.0
3711,72.0,0,90,1.0,0.0
3712,48.0,0,90,10.0,0.0
3713,84.0,2,88,5.0,0.0
3714,84.0,0,90,0.0,0.0
3715,75.0,0,88,6.0,0.0
3716,60.0,0,90,2.0,0.0
3717,48.0,90,90,2.0,0.0
3718,87.0,0,90,0.0,0.0
3719,54.0,0,0,7.0,0.0
3720,63.0,0,90,8.0,0.0
3721,75.0,0,90,1.0,0.0
3722,51.0,0,90,10.0,0.0
3723,51.0,180,90,2.0,0.0
3724,63.0,0,90,2.0,0.0
3725,78.0,0,180,0.0,0.0
3726,42.0,0,180,10.0,0.0
3727,57.0,0,180,7.0,0.0
3728,62.0,0,180,3.0,0.0
3729,54.0,0,180,2.0,0.0
3730,42.0,0,180,2.0,0.0
3731,50.0,215,180,3.0,0.0
3732,62.0,0,180,5.0,0.0
3733,66.0,0,180,1.0,0.0
3734,54.0,0,180,8.0,0.0
3735,60.0,0,180,6.0,0.0
3736,82.0,0,270,5.0,0.0
3737,55.0,90,360,3.0,0.0
3738,67.0,0,360,3.0,0.0
3739,70.0,0,35,7.0,0.0
3740,73.0,32,35,6.0,0.0
3741,67.0,0,35,7.0,0.0
3742,64.0,0,35,6.0,0.0
3743,55.0,0,67,8.0,0.0
3744,55.0,2,78,2.0,0.0
3745,82.0,0,360,1.0,0.0
3746,43.0,11,67,10.0,0.0
3747,76.0,0,360,1.0,0.0
3748,85.0,0,360,0.0,0.0
3749,67.0,0,35,7.0,0.0
3750,64.0,0,35,6.0,0.0
3751,73.0,45,35,6.0,0.0
3752,70.0,0,35,7.0,0.0
3753,64.0,32,35,6.0,0.0
3754,73.0,0,35,6.0,0.0
3755,55.0,0,67,8.0,0.0
3756,43.0,11,67,10.0,0.0
3757,67.0,0,35,7.0,0.0
3758,70.0,0,35,7.0,0.0
3759,55.0,2,78,2.0,0.0
3760,70.0,0,35,7.0,0.0
3761,73.0,0,35,6.0,0.0
3762,67.0,45,35,7.0,0.0
3763,64.0,0,35,6.0,0.0
3764,43.0,11,67,10.0,0.0
3765,73.0,22,45,6.0,0.0
3766,55.0,2,78,2.0,0.0
3767,55.0,0,67,8.0,0.0
3768,70.0,10,35,7.0,0.0
3769,67.0,0,35,7.0,0.0
3770,67.0,0,35,7.0,0.0
3771,70.0,10,35,7.0,0.0
3772,64.0,0,0,6.0,0.0
3773,73.0,0,45,6.0,0.0
3774,70.0,0,35,7.0,0.0
3775,67.0,0,35,7.0,0.0
3776,64.0,35,0,6.0,0.0
3777,73.0,32,35,6.0,0.0
3778,73.0,0,90,5.0,0.0
3779,55.0,2,78,2.0,0.0
3780,43.0,1,67,10.0,0.0
3781,55.0,10,67,8.0,0.0
3782,70.0,0,35,7.0,0.0
3783,67.0,0,35,7.0,0.0
3784,73.0,10,35,6.0,0.0
3785,64.0,0,35,6.0,0.0
3786,54.0,0,157,2.0,0.0
3787,66.0,0,157,7.0,0.0
3788,81.0,0,180,1.0,0.0
3789,74.0,157,360,1.0,0.0
3790,74.0,0,90,6.0,0.0
3791,62.0,0,90,6.0,0.0
3792,69.0,0,157,7.0,0.0
3793,62.0,0,180,3.0,0.0
3794,42.0,0,157,10.0,0.0
3795,84.0,0,180,0.0,0.0
3796,74.0,67,90,5.0,0.0
3797,69.0,0,180,3.0,0.0
3798,54.0,23,156,8.0,0.0
3799,84.0,157,90,5.0,0.0
3800,74.0,0,90,6.0,0.0
3801,67.0,23,157,7.0,0.0
3802,67.0,0,180,3.0,0.0
3803,55.0,0,157,2.0,0.0
3804,55.0,0,157,8.0,0.0
3805,82.0,0,180,0.0,0.0
3806,43.0,0,157,10.0,0.0
3807,79.0,0,180,1.0,0.0
3808,74.0,0,90,6.0,0.0
3809,82.0,0,90,5.0,0.0
3810,72.0,115,180,3.0,0.0
3811,36.0,0,157,10.0,0.0
3812,81.0,0,180,0.0,0.0
3813,48.0,23,157,2.0,0.0
3814,63.0,0,157,7.0,0.0
3815,48.0,0,157,8.0,0.0
3816,75.0,0,180,1.0,0.0
3817,72.0,0,180,1.0,0.0
3818,72.0,0,90,6.0,0.0
3819,81.0,0,90,5.0,0.0
3820,50.0,0,157,2.0,0.0
3821,38.0,0,157,10.0,0.0
3822,62.0,45,180,3.0,0.0
3823,78.0,13,144,0.0,0.0
3824,69.0,0,0,3.0,0.0
3825,69.0,0,115,1.0,0.0
3826,50.0,23,157,8.0,0.0
3827,62.0,0,157,7.0,0.0
3828,72.0,29,115,1.0,0.0
3829,78.0,0,90,5.0,0.0
3830,72.0,0,90,6.0,0.0
3831,51.0,10,179,8.0,0.0
3832,79.0,0,360,0.0,0.0
3833,51.0,0,45,2.0,0.0
3834,67.0,0,180,3.0,0.0
3835,55.0,0,180,3.0,0.0
3836,39.0,0,180,10.0,0.0
3837,70.0,42,360,1.0,0.0
3838,67.0,0,360,1.0,0.0
3839,70.0,0,360,6.0,0.0
3840,51.0,45,45,7.0,0.0
3841,53.0,45,45,2.0,0.0
3842,53.0,0,45,7.0,0.0
3843,55.0,0,45,7.0,0.0
3844,55.0,35,45,2.0,0.0
3845,56.0,45,45,7.0,0.0
3846,56.0,0,45,2.0,0.0
3847,58.0,0,45,2.0,0.0
3848,55.0,0,135,3.0,0.0
3849,58.0,45,45,7.0,0.0
3850,60.0,0,45,2.0,0.0
3851,60.0,0,45,7.0,0.0
3852,79.0,45,0,5.0,0.0
3853,62.0,45,45,7.0,0.0
3854,62.0,0,45,2.0,0.0
3855,63.0,0,45,2.0,0.0
3856,63.0,0,45,7.0,0.0
3857,67.0,0,0,3.0,0.0
3858,55.0,0,45,3.0,0.0
3859,45.0,3,45,8.0,0.0
3860,79.0,0,360,1.0,0.0
3861,85.0,0,360,1.0,0.0
3862,57.0,0,360,6.0,0.0
3863,33.0,45,45,10.0,0.0
3864,64.0,0,360,7.0,0.0
3865,67.0,0,0,6.0,0.0
3866,91.0,0,360,0.0,0.0
3867,45.0,0,45,2.0,0.0
3868,64.0,45,360,2.0,0.0
3869,47.0,43,50,8.0,0.0
3870,47.0,2,45,2.0,0.0
3871,35.0,0,45,10.0,0.0
3872,37.0,2,45,10.0,0.0
3873,49.0,0,45,2.0,0.0
3874,49.0,43,45,8.0,0.0
3875,38.0,0,45,10.0,0.0
3876,50.0,0,45,2.0,0.0
3877,50.0,33,55,8.0,0.0
3878,40.0,0,45,10.0,0.0
3879,55.0,0,0,3.0,0.0
3880,67.0,12,0,3.0,0.0
3881,52.0,12,45,2.0,0.0
3882,52.0,33,45,8.0,0.0
3883,41.0,0,45,10.0,0.0
3884,53.0,16,45,2.0,0.0
3885,53.0,29,49,8.0,0.0
3886,43.0,16,45,10.0,0.0
3887,73.0,0,0,5.0,0.0
3888,55.0,0,45,2.0,0.0
3889,55.0,29,45,8.0,0.0
3890,55.0,0,0,3.0,0.0
3891,45.0,0,45,10.0,0.0
3892,57.0,0,45,2.0,0.0
3893,67.0,0,45,3.0,0.0
3894,57.0,0,29,8.0,0.0
3895,54.0,22,45,7.0,0.0
3896,66.0,0,45,6.0,0.0
3897,81.0,45,360,1.0,0.0
3898,84.0,0,360,1.0,0.0
3899,90.0,0,360,0.0,0.0
3900,38.0,14,67,10.0,0.0
3901,74.0,0,180,5.0,0.0
3902,66.0,0,360,2.0,0.0
3903,50.0,0,180,2.0,0.0
3904,50.0,9,67,8.0,0.0
3905,67.0,45,45,6.0,0.0
3906,55.0,0,45,7.0,0.0
3907,50.0,11,67,10.0,0.0
3908,69.0,0,45,6.0,0.0
3909,57.0,22,45,7.0,0.0
3910,62.0,12,67,8.0,0.0
3911,70.0,0,45,6.0,0.0
3912,58.0,0,45,7.0,0.0
3913,50.0,8,67,10.0,0.0
3914,60.0,0,45,7.0,0.0
3915,84.0,0,180,5.0,0.0
3916,60.0,0,180,2.0,0.0
3917,69.0,45,0,3.0,0.0
3918,62.0,0,0,3.0,0.0
3919,69.0,0,180,5.0,0.0
3920,62.0,0,180,5.0,0.0
3921,72.0,22,45,6.0,0.0
3922,62.0,15,67,8.0,0.0
3923,62.0,0,45,7.0,0.0
3924,74.0,45,45,6.0,0.0
3925,64.0,0,45,7.0,0.0
3926,76.0,0,45,6.0,0.0
3927,50.0,8,67,10.0,0.0
3928,62.0,15,67,8.0,0.0
3929,66.0,0,45,7.0,0.0
3930,69.0,22,0,3.0,0.0
3931,78.0,0,45,6.0,0.0
3932,62.0,0,45,3.0,0.0
3933,67.0,22,45,7.0,0.0
3934,67.0,0,360,2.0,0.0
3935,39.0,10,67,10.0,0.0
3936,91.0,0,324,0.0,0.0
3937,58.0,45,360,2.0,0.0
3938,79.0,0,45,6.0,0.0
3939,79.0,0,324,1.0,0.0
3940,82.0,13,324,1.0,0.0
3941,51.0,14,68,8.0,0.0
3942,81.0,45,46,6.0,0.0
3943,69.0,0,46,7.0,0.0
3944,70.0,22,45,7.0,0.0
3945,51.0,9,67,10.0,0.0
3946,82.0,0,45,6.0,0.0
3947,63.0,13,68,8.0,0.0
3948,81.0,45,44,6.0,0.0
3949,69.0,0,44,7.0,0.0
3950,63.0,0,180,5.0,0.0
3951,70.0,0,180,5.0,0.0
3952,82.0,0,180,5.0,0.0
3953,51.0,10,67,10.0,0.0
3954,67.0,22,45,7.0,0.0
3955,67.0,0,0,3.0,0.0
3956,55.0,0,0,3.0,0.0
3957,79.0,0,45,6.0,0.0
3958,63.0,13,68,8.0,0.0
3959,77.0,45,45,6.0,0.0
3960,65.0,0,45,7.0,0.0
3961,51.0,8,67,10.0,0.0
3962,75.0,9,45,6.0,0.0
3963,63.0,0,45,7.0,0.0
3964,63.0,15,67,8.0,0.0
3965,62.0,0,45,7.0,0.0
3966,67.0,0,0,3.0,0.0
3967,74.0,0,45,6.0,0.0
3968,55.0,0,45,3.0,0.0
3969,87.0,0,360,0.0,0.0
3970,81.0,0,360,1.0,0.0
3971,36.0,7,67,10.0,0.0
3972,75.0,0,45,6.0,0.0
3973,67.0,0,180,3.0,0.0
3974,63.0,22,45,7.0,0.0
3975,57.0,0,360,2.0,0.0
3976,63.0,0,360,2.0,0.0
3977,48.0,16,67,8.0,0.0
3978,65.0,0,45,7.0,0.0
3979,77.0,45,45,6.0,0.0
3980,63.0,0,45,7.0,0.0
3981,48.0,4,67,10.0,0.0
3982,75.0,22,45,6.0,0.0
3983,60.0,19,67,8.0,0.0
3984,62.0,45,45,7.0,0.0
3985,74.0,0,45,6.0,0.0
3986,69.0,0,0,3.0,0.0
3987,81.0,0,180,5.0,0.0
3988,63.0,45,180,5.0,0.0
3989,72.0,0,180,5.0,0.0
3990,72.0,22,45,6.0,0.0
3991,67.0,0,135,3.0,0.0
3992,48.0,3,67,10.0,0.0
3993,60.0,0,45,7.0,0.0
3994,60.0,20,68,8.0,0.0
3995,70.0,0,45,6.0,0.0
3996,58.0,45,45,7.0,0.0
3997,57.0,0,45,7.0,0.0
3998,48.0,4,67,10.0,0.0
3999,69.0,0,45,6.0,0.0
4000,60.0,19,67,8.0,0.0
4001,55.0,0,45,7.0,0.0
4002,67.0,0,45,6.0,0.0
4003,67.0,0,45,3.0,0.0
4004,54.0,0,360,2.0,0.0
4005,66.0,0,45,6.0,0.0
4006,48.0,0,360,2.0,0.0
4007,69.0,0,0,3.0,0.0
4008,72.0,0,0,1.0,0.0
4009,54.0,22,45,7.0,0.0
4010,38.0,6,67,10.0,0.0
4011,69.0,172,360,1.0,0.0
4012,78.0,0,360,0.0,0.0
4013,50.0,17,68,8.0,0.0
4014,55.0,45,45,7.0,0.0
4015,67.0,0,45,6.0,0.0
4016,66.0,0,45,6.0,0.0
4017,50.0,7,67,10.0,0.0
4018,57.0,22,45,7.0,0.0
4019,62.0,8,67,8.0,0.0
4020,63.0,45,37,6.0,0.0
4021,55.0,0,37,7.0,0.0
4022,54.0,0,45,7.0,0.0
4023,50.0,15,68,10.0,0.0
4024,69.0,0,0,3.0,0.0
4025,62.0,0,0,3.0,0.0
4026,78.0,0,188,5.0,0.0
4027,62.0,23,45,6.0,0.0
4028,69.0,0,188,5.0,0.0
4029,62.0,2,67,8.0,0.0
4030,60.0,0,40,6.0,0.0
4031,57.0,45,40,7.0,0.0
4032,50.0,21,67,10.0,0.0
4033,58.0,0,45,6.0,0.0
4034,55.0,0,45,7.0,0.0
4035,62.0,15,67,8.0,0.0
4036,57.0,0,58,6.0,0.0
4037,54.0,0,58,7.0,0.0
4038,62.0,0,58,3.0,0.0
4039,69.0,22,0,3.0,0.0
4040,43.0,0,178,10.0,0.0
4041,67.0,0,172,3.0,0.0
4042,55.0,0,172,3.0,0.0
4043,46.0,0,172,2.0,0.0
4044,55.0,0,172,2.0,0.0
4045,79.0,0,172,0.0,0.0
4046,62.0,0,0,5.0,0.0
4047,70.0,0,172,1.0,0.0
4048,70.0,0,172,5.0,0.0
4049,79.0,0,172,5.0,0.0
4050,55.0,12,172,7.0,0.0
4051,55.0,0,172,6.0,0.0
4052,67.0,0,172,1.0,0.0
4053,55.0,171,177,8.0,0.0
4054,69.0,45,48,4.0,0.0
4055,70.0,50,45,4.0,0.0
4056,69.0,45,50,4.0,0.0
4057,72.0,47,45,4.0,0.0
4058,70.0,45,47,4.0,0.0
4059,74.0,51,45,4.0,0.0
4060,72.0,45,51,4.0,0.0
4061,75.0,35,45,4.0,0.0
4062,74.0,186,35,4.0,0.0
4063,62.0,177,179,4.0,0.0
4064,58.0,0,179,4.0,0.0
4065,77.0,45,446,4.0,0.0
4066,57.0,90,177,4.0,0.0
4067,60.0,0,177,4.0,0.0
4068,56.0,140,359,4.0,0.0
4069,59.0,0,359,4.0,0.0
4070,76.0,41,45,4.0,0.0
4071,77.0,45,41,4.0,0.0
4072,79.0,42,45,4.0,0.0
4073,77.0,45,42,4.0,0.0
4074,76.0,51,45,4.0,0.0
4075,74.0,0,51,4.0,0.0
4076,73.0,35,140,4.0,0.0
4077,55.0,365,175,4.0,0.0
4078,64.0,0,175,4.0,0.0
4079,81.0,71,273,4.0,0.0
4080,69.0,0,273,4.0,0.0
4081,53.0,90,183,4.0,0.0
4082,52.0,90,180,4.0,0.0
4083,68.0,19,71,4.0,0.0
4084,80.0,0,71,4.0,0.0
4085,62.0,0,0,4.0,0.0
4086,53.0,0,181,4.0,0.0
4087,70.0,91,90,4.0,0.0
4088,82.0,0,90,4.0,0.0
4089,69.0,90,91,4.0,0.0
4090,81.0,0,91,4.0,0.0
4091,79.0,0,90,4.0,0.0
4092,58.0,34,145,4.0,0.0
4093,67.0,55,90,4.0,0.0
4094,65.0,87,89,4.0,0.0
4095,77.0,0,89,4.0,0.0
4096,55.0,55,171,4.0,0.0
4097,76.0,0,87,4.0,0.0
4098,64.0,84,87,4.0,0.0
4099,67.0,134,139,4.0,0.0
4100,79.0,0,139,4.0,0.0
4101,57.0,175,189,4.0,0.0
4102,61.0,0,100,4.0,0.0
4103,73.0,0,100,4.0,0.0
4104,50.0,242,175,4.0,0.0
4105,74.0,0,175,4.0,0.0
4106,62.0,0,175,4.0,0.0
4107,68.0,62,242,4.0,0.0
4108,47.0,0,183,4.0,0.0
4109,67.0,62,62,4.0,0.0
4110,68.0,59,62,4.0,0.0
4111,53.0,30,149,4.0,0.0
4112,69.0,65,59,4.0,0.0
4113,70.0,25,65,4.0,0.0
4114,71.0,92,55,4.0,0.0
4115,74.0,89,87,4.0,0.0
4116,51.0,0,176,4.0,0.0
4117,72.0,242,89,4.0,0.0
4118,80.0,62,242,4.0,0.0
4119,59.0,59,184,4.0,0.0
4120,79.0,63,62,4.0,0.0
4121,80.0,0,63,4.0,0.0
4122,81.0,63,59,4.0,0.0
4123,65.0,24,148,4.0,0.0
4124,82.0,26,63,4.0,0.0
4125,83.0,97,50,4.0,0.0
4126,63.0,221,178,4.0,0.0
4127,86.0,88,90,4.0,0.0
4128,84.0,0,88,4.0,0.0
4129,72.0,45,45,4.0,0.0
4130,74.0,45,45,4.0,0.0
4131,70.0,44,45,4.0,0.0
4132,72.0,45,44,4.0,0.0
4133,60.0,0,180,4.0,0.0
4134,69.0,42,45,4.0,0.0
4135,51.0,177,180,4.0,0.0
4136,70.0,45,42,4.0,0.0
4137,67.0,48,45,4.0,0.0
4138,69.0,0,48,4.0,0.0
4139,66.0,228,177,4.0,0.0
4140,60.0,0,177,4.0,0.0
4141,51.0,0,177,4.0,0.0
4142,72.0,43,45,4.0,0.0
4143,87.0,0,88,4.0,0.0
4144,84.0,2,88,4.0,0.0
4145,74.0,45,45,4.0,0.0
4146,70.0,46,45,4.0,0.0
4147,72.0,45,46,4.0,0.0
4148,87.0,1,89,4.0,0.0
4149,69.0,44,45,4.0,0.0
4150,84.0,0,89,4.0,0.0
4151,70.0,45,45,4.0,0.0
4152,67.0,44,45,4.0,0.0
4153,69.0,181,44,4.0,0.0
4154,84.0,180,180,4.0,0.0
4155,86.0,0,180,4.0,0.0
4156,66.0,0,180,4.0,0.0
4157,81.0,45,45,4.0,0.0
4158,84.0,45,45,4.0,0.0
4159,55.0,0,359,4.0,0.0
4160,58.0,0,359,4.0,0.0
4161,82.0,45,45,4.0,0.0
4162,81.0,39,45,4.0,0.0
4163,79.0,45,39,4.0,0.0
4164,77.0,41,45,4.0,0.0
4165,75.0,45,41,4.0,0.0
4166,74.0,54,45,4.0,0.0
4167,73.0,87,54,4.0,0.0
4168,54.0,0,177,4.0,0.0
4169,57.0,0,177,4.0,0.0
4170,75.0,90,87,4.0,0.0
4171,74.0,91,90,4.0,0.0
4172,72.0,90,91,4.0,0.0
4173,55.0,0,181,4.0,0.0
4174,70.0,89,90,4.0,0.0
4175,48.0,90,176,4.0,0.0
4176,69.0,87,89,4.0,0.0
4177,72.0,96,177,4.0,0.0
4178,50.0,0,186,4.0,0.0
4179,66.0,132,96,4.0,0.0
4180,67.0,180,723,7.0,0.0
4181,82.0,0,363,5.0,0.0
4182,61.0,0,363,6.0,0.0
4183,39.0,135,363,10.0,0.0
4184,67.0,46,132,4.0,0.0
4185,39.0,0,360,4.0,0.0
4186,51.0,0,360,4.0,0.0
4187,51.0,0,360,8.0,0.0
4188,61.0,182,46,4.0,0.0
4189,70.0,43,317,4.0,0.0
4190,52.0,0,360,8.0,0.0
4191,70.0,37,323,6.0,0.0
4192,52.0,0,360,4.0,0.0
4193,40.0,0,360,4.0,0.0
4194,73.0,0,323,5.0,0.0
4195,40.0,0,360,10.0,0.0
4196,61.0,135,43,4.0,0.0
4197,70.0,10,135,4.0,0.0
4198,61.0,0,47,4.0,0.0
4199,74.0,180,182,5.0,0.0
4200,69.0,0,362,6.0,0.0
4201,42.0,0,360,4.0,0.0
4202,62.0,0,180,4.0,0.0
4203,42.0,180,360,10.0,0.0
4204,54.0,0,360,8.0,0.0
4205,62.0,135,720,7.0,0.0
4206,60.0,0,360,4.0,0.0
4207,72.0,144,360,5.0,0.0
4208,55.0,0,324,8.0,0.0
4209,67.0,36,324,6.0,0.0
4210,43.0,0,324,10.0,0.0
4211,43.0,0,360,4.0,0.0
4212,70.0,0,144,5.0,0.0
4213,60.0,0,360,6.0,0.0
4214,36.0,180,360,4.0,0.0
4215,58.0,0,0,4.0,0.0
4216,48.0,0,360,8.0,0.0
4217,36.0,0,360,10.0,0.0
4218,60.0,0,360,7.0,0.0
4219,70.0,135,180,5.0,0.0
4220,57.0,0,45,4.0,0.0
4221,60.0,45,135,4.0,0.0
4222,69.0,0,180,5.0,0.0
4223,52.0,0,45,4.0,0.0
4224,58.0,90,180,6.0,0.0
4225,38.0,36,324,10.0,0.0
4226,50.0,0,324,8.0,0.0
4227,62.0,0,324,7.0,0.0
4228,55.0,45,270,4.0,0.0
4229,67.0,0,180,5.0,0.0
4230,38.0,180,360,4.0,0.0
4231,66.0,0,144,5.0,0.0
4232,57.0,0,144,6.0,0.0
4233,58.0,9,45,4.0,0.0
4234,57.0,0,45,4.0,0.0
4235,43.0,0,180,8.0,0.0
4236,67.0,0,180,5.0,0.0
4237,31.0,0,180,10.0,0.0
4238,62.0,180,180,7.0,0.0
4239,55.0,0,180,6.0,0.0
4240,55.0,0,180,4.0,0.0
4241,31.0,0,180,4.0,0.0
4242,43.0,90,180,4.0,0.0
4243,67.0,90,90,1.0,0.0
4244,71.0,0,90,1.0,0.0
4245,66.0,90,90,1.0,0.0
4246,69.0,0,90,1.0,0.0
4247,67.0,0,90,1.0,0.0
4248,71.0,71,90,1.0,0.0
4249,69.0,107,71,1.0,0.0
4250,72.0,0,71,1.0,0.0
4251,67.0,0,720,3.0,0.0
4252,74.0,0,88,1.0,0.0
4253,62.0,98,720,2.0,0.0
4254,55.0,0,720,2.0,0.0
4255,43.0,0,720,10.0,0.0
4256,71.0,2,88,1.0,0.0
4257,55.0,0,720,8.0,0.0
4258,83.0,90,90,0.0,0.0
4259,59.0,0,720,3.0,0.0
4260,81.0,88,90,0.0,0.0
4261,74.0,2,88,1.0,0.0
4262,83.0,71,90,0.0,0.0
4263,71.0,0,88,1.0,0.0
4264,84.0,111,71,0.0,0.0
4265,67.0,96,94,1.0,0.0
4266,86.0,6,88,0.0,0.0
4267,71.0,0,94,1.0,0.0
4268,66.0,88,96,1.0,0.0
4269,69.0,0,96,1.0,0.0
4270,86.0,2,88,0.0,0.0
4271,67.0,76,90,1.0,0.0
4272,71.0,0,90,1.0,0.0
4273,64.0,0,76,1.0,0.0
4274,72.0,0,76,1.0,0.0
4275,57.0,0,720,8.0,0.0
4276,69.0,0,711,3.0,0.0
4277,62.0,0,711,3.0,0.0
4278,60.0,0,711,2.0,0.0
4279,85.0,88,90,0.0,0.0
4280,57.0,0,711,2.0,0.0
4281,66.0,0,711,1.0,0.0
4282,74.0,1,89,1.0,0.0
4283,45.0,0,711,10.0,0.0
4284,86.0,88,88,0.0,0.0
4285,88.0,85,90,0.0,0.0
4286,74.0,2,88,1.0,0.0
4287,86.0,89,85,0.0,0.0
4288,86.0,1,89,0.0,0.0
4289,73.0,88,90,1.0,0.0
4290,74.0,88,88,1.0,0.0
4291,86.0,2,88,0.0,0.0
4292,76.0,90,90,1.0,0.0
4293,59.0,0,360,2.0,0.0
4294,67.0,0,622,1.0,0.0
4295,47.0,0,360,10.0,0.0
4296,59.0,90,360,8.0,0.0
4297,86.0,0,450,0.0,0.0
4298,71.0,0,360,3.0,0.0
4299,74.0,90,0,1.0,0.0
4300,67.0,0,360,3.0,0.0
4301,76.0,90,90,1.0,0.0
4302,78.0,90,90,1.0,0.0
4303,79.0,0,90,1.0,0.0
4304,78.0,85,90,1.0,0.0
4305,48.0,7,317,10.0,0.0
4306,60.0,0,317,2.0,0.0
4307,60.0,36,324,8.0,0.0
4308,76.0,87,85,1.0,0.0
4309,84.0,0,85,0.0,0.0
4310,86.0,55,87,0.0,0.0
4311,74.0,0,87,1.0,0.0
4312,72.0,0,98,1.0,0.0
4313,69.0,0,98,1.0,0.0
4314,88.0,177,98,0.0,0.0
4315,62.0,0,362,2.0,0.0
4316,50.0,3,362,10.0,0.0
4317,67.0,0,182,3.0,0.0
4318,71.0,0,182,3.0,0.0
4319,83.0,0,177,0.0,0.0
4320,62.0,90,360,8.0,0.0
4321,67.0,0,177,1.0,0.0
4322,71.0,180,177,1.0,0.0
4323,69.0,0,180,1.0,0.0
4324,69.0,0,180,3.0,0.0
4325,62.0,0,180,3.0,0.0
4326,81.0,0,180,0.0,0.0
4327,66.0,0,180,1.0,0.0
4328,67.0,90,93,2.0,0.0
4329,66.0,90,90,2.0,0.0
4330,64.0,90,90,2.0,0.0
4331,62.0,67,90,2.0,0.0
4332,52.0,23,67,2.0,0.0
4333,55.0,0,180,3.0,0.0
4334,67.0,0,180,3.0,0.0
4335,52.0,0,180,8.0,0.0
4336,79.0,67,90,0.0,0.0
4337,40.0,67,180,10.0,0.0
4338,78.0,0,90,0.0,0.0
4339,55.0,23,67,2.0,0.0
4340,61.0,0,0,2.0,0.0
4341,76.0,67,90,0.0,0.0
4342,55.0,0,180,3.0,0.0
4343,52.0,23,67,2.0,0.0
4344,67.0,67,180,3.0,0.0
4345,55.0,23,67,2.0,0.0
4346,74.0,0,90,0.0,0.0
4347,52.0,23,67,2.0,0.0
4348,40.0,0,180,10.0,0.0
4349,52.0,0,180,8.0,0.0
4350,81.0,67,90,1.0,0.0
4351,55.0,23,67,2.0,0.0
4352,79.0,67,90,1.0,0.0
4353,78.0,67,90,1.0,0.0
4354,73.0,0,0,0.0,0.0
4355,52.0,23,67,2.0,0.0
4356,76.0,0,90,1.0,0.0
4357,55.0,23,67,2.0,0.0
4358,54.0,0,180,8.0,0.0
4359,54.0,23,67,2.0,0.0
4360,62.0,0,180,3.0,0.0
4361,42.0,67,180,10.0,0.0
4362,73.0,0,90,1.0,0.0
4363,74.0,67,0,1.0,0.0
4364,57.0,23,67,2.0,0.0
4365,69.0,0,0,3.0,0.0
4366,62.0,0,180,3.0,0.0
4367,54.0,23,67,2.0,0.0
4368,71.0,67,90,1.0,0.0
4369,74.0,19,161,1.0,0.0
4370,57.0,4,67,2.0,0.0
4371,69.0,0,71,1.0,0.0
4372,62.0,67,180,2.0,0.0
4373,47.0,23,67,2.0,0.0
4374,86.0,67,90,0.0,0.0
4375,47.0,0,180,10.0,0.0
4376,59.0,0,180,8.0,0.0
4377,85.0,0,90,0.0,0.0
4378,59.0,23,67,2.0,0.0
4379,83.0,67,90,0.0,0.0
4380,68.0,0,0,1.0,0.0
4381,76.0,0,0,1.0,0.0
4382,47.0,23,67,2.0,0.0
4383,62.0,90,180,2.0,0.0
4384,81.0,19,71,0.0,0.0
4385,59.0,4,67,2.0,0.0
4386,45.0,90,181,10.0,0.0
4387,57.0,1,180,8.0,0.0
4388,69.0,87,360,3.0,0.0
4389,80.0,0,90,0.0,0.0
4390,77.0,90,90,1.0,0.0
4391,62.0,0,360,3.0,0.0
4392,45.0,0,181,2.0,0.0
4393,62.0,0,447,2.0,0.0
4394,81.0,0,91,0.0,0.0
4395,78.0,0,91,1.0,0.0
4396,83.0,0,90,0.0,0.0
4397,79.0,89,90,1.0,0.0
4398,78.0,0,89,1.0,0.0
4399,57.0,0,0,2.0,0.0
4400,45.0,71,180,8.0,0.0
4401,81.0,0,0,0.0,0.0
4402,78.0,0,87,1.0,0.0
4403,33.0,0,167,10.0,0.0
4404,64.0,0,80,2.0,0.0
4405,76.0,13,80,1.0,0.0
4406,79.0,0,80,0.0,0.0
4407,74.0,0,84,1.0,0.0
4408,78.0,109,84,0.0,0.0
4409,69.0,0,193,3.0,0.0
4410,66.0,0,84,2.0,0.0
4411,69.0,0,0,1.0,0.0
4412,57.0,0,193,2.0,0.0
4413,67.0,0,109,2.0,0.0
4414,38.0,0,365,10.0,0.0
4415,69.0,0,357,1.0,0.0
4416,76.0,175,0,0.0,0.0
4417,73.0,0,0,1.0,0.0
4418,50.0,0,357,2.0,0.0
4419,62.0,0,357,3.0,0.0
4420,67.0,0,175,2.0,0.0
4421,69.0,0,357,3.0,0.0
4422,50.0,87,360,8.0,0.0
4423,74.0,37,145,0.0,0.0
4424,74.0,0,182,1.0,0.0
4425,66.0,3,182,2.0,0.0
4426,71.0,93,90,4.0,0.0
4427,69.0,90,93,4.0,0.0
4428,71.0,90,90,4.0,0.0
4429,72.0,90,90,4.0,0.0
4430,62.0,89,1801,7.0,0.0
4431,55.0,0,90,4.0,0.0
4432,67.0,0,720,6.0,0.0
4433,73.0,71,90,4.0,0.0
4434,43.0,90,720,10.0,0.0
4435,83.0,0,720,5.0,0.0
4436,55.0,0,720,8.0,0.0
4437,74.0,19,71,4.0,0.0
4438,62.0,90,90,4.0,0.0
4439,74.0,43,180,4.0,0.0
4440,59.0,90,90,4.0,0.0
4441,62.0,0,90,4.0,0.0
4442,71.0,47,43,4.0,0.0
4443,55.0,22,90,4.0,0.0
4444,72.0,23,22,4.0,0.0
4445,62.0,90,90,4.0,0.0
4446,71.0,45,23,4.0,0.0
4447,69.0,0,45,4.0,0.0
4448,71.0,0,90,4.0,0.0
4449,59.0,43,90,4.0,0.0
4450,72.0,47,43,4.0,0.0
4451,62.0,0,90,4.0,0.0
4452,72.0,0,720,6.0,0.0
4453,57.0,0,90,4.0,0.0
4454,76.0,90,90,4.0,0.0
4455,57.0,0,720,8.0,0.0
4456,45.0,0,720,10.0,0.0
4457,78.0,0,720,5.0,0.0
4458,74.0,90,90,4.0,0.0
4459,66.0,0,90,4.0,0.0
4460,60.0,90,90,4.0,0.0
4461,74.0,90,180,4.0,0.0
4462,66.0,0,90,4.0,0.0
4463,73.0,90,90,4.0,0.0
4464,57.0,0,90,4.0,0.0
4465,66.0,0,90,4.0,0.0
4466,74.0,90,90,4.0,0.0
4467,60.0,0,90,4.0,0.0
4468,76.0,90,90,4.0,0.0
4469,66.0,91,90,4.0,0.0
4470,74.0,0,361,6.0,0.0
4471,59.0,1,360,8.0,0.0
4472,67.0,0,361,4.0,0.0
4473,47.0,0,361,10.0,0.0
4474,79.0,0,361,5.0,0.0
4475,74.0,0,0,4.0,0.0
4476,59.0,0,361,4.0,0.0
4477,78.0,45,45,4.0,0.0
4478,76.0,45,45,4.0,0.0
4479,79.0,46,45,4.0,0.0
4480,78.0,45,46,4.0,0.0
4481,81.0,43,45,4.0,0.0
4482,79.0,0,44,4.0,0.0
4483,60.0,0,360,8.0,0.0
4484,48.0,0,359,10.0,0.0
4485,60.0,0,359,4.0,0.0
4486,64.0,174,359,7.0,0.0
4487,78.0,78,89,4.0,0.0
4488,69.0,0,78,6.0,0.0
4489,76.0,0,78,4.0,0.0
4490,72.0,85,78,4.0,0.0
4491,72.0,0,78,5.0,0.0
4492,71.0,0,85,4.0,0.0
4493,74.0,0,85,4.0,0.0
4494,71.0,71,85,6.0,0.0
4495,74.0,0,85,5.0,0.0
4496,76.0,0,71,5.0,0.0
4497,72.0,0,71,6.0,0.0
4498,72.0,0,71,4.0,0.0
4499,69.0,36,71,4.0,0.0
4500,67.0,148,183,6.0,0.0
4501,71.0,0,183,5.0,0.0
4502,62.0,42,360,8.0,0.0
4503,71.0,0,174,4.0,0.0
4504,50.0,0,357,10.0,0.0
4505,62.0,3,357,4.0,0.0
4506,67.0,0,174,4.0,0.0
4507,62.0,0,357,7.0,0.0
4508,69.0,0,148,4.0,0.0
4509,69.0,0,148,5.0,0.0
4510,66.0,0,148,6.0,0.0
4511,66.0,35,148,4.0,0.0
4512,67.0,45,45,4.0,0.0
4513,69.0,45,45,4.0,0.0
4514,66.0,42,45,4.0,0.0
4515,67.0,45,42,4.0,0.0
4516,64.0,45,45,4.0,0.0
4517,66.0,45,45,4.0,0.0
4518,62.0,51,45,4.0,0.0
4519,64.0,85,51,4.0,0.0
4520,40.0,0,722,10.0,0.0
4521,79.0,90,87,5.0,0.0
4522,57.0,0,903,7.0,0.0
4523,67.0,0,87,6.0,0.0
4524,61.0,0,175,4.0,0.0
4525,52.0,0,720,8.0,0.0
4526,52.0,0,85,4.0,0.0
4527,57.0,0,90,4.0,0.0
4528,66.0,92,90,6.0,0.0
4529,78.0,0,90,5.0,0.0
4530,76.0,0,92,5.0,0.0
4531,64.0,55,92,6.0,0.0
4532,55.0,0,92,4.0,0.0
4533,61.0,16,147,4.0,0.0
4534,74.0,0,71,5.0,0.0
4535,57.0,45,93,4.0,0.0
4536,62.0,22,71,6.0,0.0
4537,61.0,0,88,6.0,0.0
4538,73.0,3,88,5.0,0.0
4539,81.0,43,45,4.0,0.0
4540,83.0,45,46,4.0,0.0
4541,79.0,51,45,4.0,0.0
4542,81.0,45,51,4.0,0.0
4543,73.0,3,88,5.0,0.0
4544,61.0,0,88,6.0,0.0
4545,78.0,43,45,4.0,0.0
4546,79.0,45,46,4.0,0.0
4547,76.0,37,45,4.0,0.0
4548,78.0,94,37,4.0,0.0
4549,54.0,4,360,8.0,0.0
4550,81.0,55,89,5.0,0.0
4551,42.0,45,359,10.0,0.0
4552,54.0,0,89,4.0,0.0
4553,74.0,32,144,4.0,0.0
4554,69.0,0,89,6.0,0.0
4555,67.0,0,87,6.0,0.0
4556,79.0,91,87,5.0,0.0
4557,62.0,0,87,4.0,0.0
4558,57.0,0,91,4.0,0.0
4559,66.0,55,91,6.0,0.0
4560,78.0,0,91,5.0,0.0
4561,74.0,0,183,4.0,0.0
4562,62.0,17,146,7.0,0.0
4563,62.0,0,92,4.0,0.0
4564,64.0,0,92,6.0,0.0
4565,76.0,16,72,5.0,0.0
4566,59.0,7,324,8.0,0.0
4567,86.0,43,45,4.0,0.0
4568,47.0,29,327,10.0,0.0
4569,68.0,97,356,7.0,0.0
4570,74.0,0,88,5.0,0.0
4571,62.0,5,88,6.0,0.0
4572,85.0,45,48,4.0,0.0
4573,88.0,47,45,4.0,0.0
4574,86.0,45,47,4.0,0.0
4575,85.0,43,45,4.0,0.0
4576,62.0,0,89,6.0,0.0
4577,74.0,44,89,5.0,0.0
4578,83.0,1,43,4.0,0.0
4579,81.0,2,45,4.0,0.0
4580,80.0,0,38,4.0,0.0
4581,57.0,0,540,8.0,0.0
4582,45.0,0,532,10.0,0.0
4583,57.0,0,532,6.0,0.0
4584,69.0,0,532,7.0,0.0
4585,69.0,0,532,5.0,0.0
4586,83.0,88,89,4.0,0.0
4587,57.0,180,712,4.0,0.0
4588,66.0,22,353,4.0,0.0
4589,81.0,89,88,4.0,0.0
4590,79.0,71,89,4.0,0.0
4591,78.0,16,71,4.0,0.0
4592,76.0,23,22,4.0,0.0
4593,67.0,90,89,4.0,0.0
4594,78.0,44,23,4.0,0.0
4595,76.0,0,44,4.0,0.0
4596,74.0,0,90,4.0,0.0
4597,66.0,90,90,4.0,0.0
4598,73.0,0,180,5.0,0.0
4599,33.0,0,180,10.0,0.0
4600,67.0,17,144,6.0,0.0
4601,67.0,54,90,4.0,0.0
4602,76.0,0,90,4.0,0.0
4603,45.0,0,180,8.0,0.0
4604,69.0,0,90,4.0,0.0
4605,78.0,19,71,4.0,0.0
4606,76.0,0,180,4.0,0.0
4607,62.0,0,360,4.0,0.0
4608,67.0,144,180,6.0,0.0
4609,67.0,0,180,4.0,0.0
4610,69.0,0,0,7.0,0.0
4611,38.0,0,360,10.0,0.0
4612,73.0,0,180,5.0,0.0
4613,50.0,0,360,8.0,0.0
4614,74.0,36,144,4.0,0.0
4615,66.0,0,180,4.0,0.0
4616,74.0,90,180,5.0,0.0
4617,66.0,0,144,6.0,0.0
4618,71.0,90,90,1.0,0.0
4619,74.0,0,90,1.0,0.0
4620,72.0,90,90,1.0,0.0
4621,76.0,0,90,1.0,0.0
4622,77.0,71,90,1.0,0.0
4623,74.0,0,90,1.0,0.0
4624,71.0,0,71,1.0,0.0
4625,74.0,109,71,1.0,0.0
4626,69.0,0,90,1.0,0.0
4627,72.0,71,90,1.0,0.0
4628,64.0,0,180,2.0,0.0
4629,87.0,0,90,0.0,0.0
4630,88.0,19,71,0.0,0.0
4631,71.0,0,90,1.0,0.0
4632,68.0,180,0,1.0,0.0
4633,52.0,0,180,2.0,0.0
4634,88.0,0,180,0.0,0.0
4635,71.0,0,180,1.0,0.0
4636,68.0,0,90,1.0,0.0
4637,76.0,90,90,1.0,0.0
4638,66.0,90,90,1.0,0.0
4639,75.0,0,90,1.0,0.0
4640,68.0,71,90,1.0,0.0
4641,76.0,0,90,1.0,0.0
4642,71.0,109,71,1.0,0.0
4643,68.0,0,71,1.0,0.0
4644,57.0,0,180,2.0,0.0
4645,74.0,71,90,1.0,0.0
4646,80.0,0,90,0.0,0.0
4647,71.0,0,90,1.0,0.0
4648,81.0,19,71,0.0,0.0
4649,69.0,0,0,1.0,0.0
4650,72.0,180,0,1.0,0.0
4651,81.0,90,180,0.0,0.0
4652,45.0,0,180,2.0,0.0
4653,72.0,90,90,1.0,0.0
4654,57.0,0,90,2.0,0.0
4655,74.0,0,90,1.0,0.0
4656,59.0,90,90,2.0,0.0
4657,42.0,0,180,10.0,0.0
4658,54.0,0,180,2.0,0.0
4659,76.0,0,90,1.0,0.0
4660,60.0,71,90,2.0,0.0
4661,62.0,0,180,3.0,0.0
4662,69.0,0,180,3.0,0.0
4663,54.0,0,180,8.0,0.0
4664,72.0,19,71,1.0,0.0
4665,57.0,90,90,2.0,0.0
4666,71.0,90,90,1.0,0.0
4667,55.0,0,90,2.0,0.0
4668,57.0,90,90,2.0,0.0
4669,72.0,0,90,1.0,0.0
4670,67.0,90,180,3.0,0.0
4671,55.0,0,180,2.0,0.0
4672,71.0,0,180,3.0,0.0
4673,74.0,90,90,1.0,0.0
4674,59.0,0,90,2.0,0.0
4675,55.0,0,180,8.0,0.0
4676,43.0,0,180,10.0,0.0
4677,71.0,0,90,1.0,0.0
4678,72.0,0,90,1.0,0.0
4679,60.0,0,90,2.0,0.0
4680,81.0,90,90,0.0,0.0
4681,69.0,0,90,1.0,0.0
4682,62.0,0,90,2.0,0.0
4683,74.0,0,90,1.0,0.0
4684,71.0,0,90,1.0,0.0
4685,83.0,90,90,0.0,0.0
4686,76.0,54,90,1.0,0.0
4687,72.0,0,90,1.0,0.0
4688,64.0,0,90,2.0,0.0
4689,48.0,17,144,2.0,0.0
4690,69.0,0,180,3.0,0.0
4691,48.0,0,180,8.0,0.0
4692,72.0,0,180,3.0,0.0
4693,84.0,0,90,0.0,0.0
4694,36.0,175,180,10.0,0.0
4695,60.0,0,71,2.0,0.0
4696,69.0,0,71,1.0,0.0
4697,72.0,19,71,1.0,0.0
4698,81.0,0,71,0.0,0.0
4699,50.0,1,360,8.0,0.0
4700,67.0,0,175,1.0,0.0
4701,38.0,0,361,10.0,0.0
4702,67.0,0,175,3.0,0.0
4703,59.0,0,175,2.0,0.0
4704,50.0,0,361,2.0,0.0
4705,71.0,0,175,3.0,0.0
4706,71.0,0,175,1.0,0.0
4707,79.0,147,175,0.0,0.0
4708,69.0,38,147,3.0,0.0
4709,62.0,0,147,3.0,0.0
4710,57.0,0,186,2.0,0.0
4711,78.0,0,186,0.0,0.0
4712,66.0,96,186,1.0,0.0
4713,69.0,0,186,1.0,0.0
4714,79.0,0,96,1.0,0.0
4715,91.0,101,96,0.0,0.0
4716,78.0,94,101,1.0,0.0
4717,90.0,0,101,0.0,0.0
4718,88.0,68,94,0.0,0.0
4719,76.0,0,94,1.0,0.0
4720,74.0,4,68,1.0,0.0
4721,86.0,98,72,0.0,0.0
4722,67.0,0,88,1.0,0.0
4723,73.0,0,88,1.0,0.0
4724,85.0,175,88,0.0,0.0
4725,64.0,0,88,2.0,0.0
4726,73.0,0,89,1.0,0.0
4727,64.0,0,89,2.0,0.0
4728,67.0,0,89,1.0,0.0
4729,85.0,175,89,0.0,0.0
4730,79.0,89,88,1.0,0.0
4731,67.0,0,88,2.0,0.0
4732,65.0,0,89,2.0,0.0
4733,77.0,89,89,1.0,0.0
4734,63.0,71,89,2.0,0.0
4735,75.0,0,89,1.0,0.0
4736,74.0,0,71,1.0,0.0
4737,62.0,107,71,2.0,0.0
4738,67.0,0,88,1.0,0.0
4739,55.0,0,88,3.0,0.0
4740,61.0,0,88,2.0,0.0
4741,51.0,0,88,2.0,0.0
4742,67.0,0,88,3.0,0.0
4743,73.0,180,88,1.0,0.0
4744,67.0,182,88,1.0,0.0
4745,51.0,0,88,2.0,0.0
4746,61.0,0,88,2.0,0.0
4747,55.0,0,88,3.0,0.0
4748,67.0,0,88,3.0,0.0
4749,73.0,0,88,1.0,0.0
4750,74.0,0,90,1.0,0.0
4751,62.0,88,90,2.0,0.0
4752,86.0,0,90,0.0,0.0
4753,84.0,89,88,0.0,0.0
4754,72.0,0,88,1.0,0.0
4755,60.0,0,88,2.0,0.0
4756,59.0,0,89,2.0,0.0
4757,71.0,71,89,1.0,0.0
4758,83.0,0,89,0.0,0.0
4759,57.0,199,71,2.0,0.0
4760,69.0,0,71,1.0,0.0
4761,81.0,0,71,0.0,0.0
4762,59.0,3,179,3.0,0.0
4763,50.0,0,179,2.0,0.0
4764,55.0,0,179,2.0,0.0
4765,67.0,0,0,1.0,0.0
4766,67.0,0,0,3.0,0.0
4767,38.0,0,0,10.0,0.0
4768,50.0,0,181,2.0,0.0
4769,55.0,0,181,2.0,0.0
4770,79.0,0,0,0.0,0.0
4771,59.0,2,181,3.0,0.0
4772,50.0,178,0,8.0,0.0
4773,50.0,0,184,2.0,0.0
4774,57.0,0,23,2.0,0.0
4775,38.0,0,0,10.0,0.0
4776,69.0,22,23,1.0,0.0
4777,69.0,0,23,3.0,0.0
4778,81.0,0,23,0.0,0.0
4779,62.0,0,184,3.0,0.0
4780,50.0,21,0,8.0,0.0
4781,59.0,0,22,2.0,0.0
4782,71.0,0,22,1.0,0.0
4783,83.0,47,22,0.0,0.0
4784,71.0,0,22,3.0,0.0
4785,69.0,90,47,3.0,0.0
4786,57.0,0,47,2.0,0.0
4787,81.0,0,47,0.0,0.0
4788,69.0,0,47,1.0,0.0
4789,67.0,0,92,1.0,0.0
4790,55.0,0,92,2.0,0.0
4791,67.0,0,92,3.0,0.0
4792,79.0,93,92,0.0,0.0
4793,50.0,0,180,8.0,0.0
4794,81.0,0,93,0.0,0.0
4795,38.0,0,178,10.0,0.0
4796,69.0,85,93,1.0,0.0
4797,69.0,0,93,3.0,0.0
4798,57.0,0,93,2.0,0.0
4799,50.0,0,178,2.0,0.0
4800,71.0,0,85,3.0,0.0
4801,62.0,0,0,3.0,0.0
4802,71.0,0,85,1.0,0.0
4803,83.0,184,85,0.0,0.0
4804,59.0,0,85,2.0,0.0
4805,43.0,1,360,8.0,0.0
4806,43.0,143,179,2.0,0.0
4807,67.0,0,322,3.0,0.0
4808,59.0,0,322,3.0,0.0
4809,55.0,89,356,2.0,0.0
4810,31.0,0,356,10.0,0.0
4811,67.0,0,322,1.0,0.0
4812,79.0,33,322,0.0,0.0
4813,74.0,90,89,4.0,0.0
4814,76.0,90,90,4.0,0.0
4815,77.0,90,90,4.0,0.0
4816,74.0,87,90,4.0,0.0
4817,83.0,0,362,5.0,0.0
4818,59.0,0,362,6.0,0.0
4819,56.0,90,362,7.0,0.0
4820,40.0,0,362,10.0,0.0
4821,72.0,93,87,4.0,0.0
4822,52.0,0,87,4.0,0.0
4823,52.0,0,360,8.0,0.0
4824,62.0,0,93,4.0,0.0
4825,71.0,90,0,4.0,0.0
4826,56.0,54,90,4.0,0.0
4827,62.0,0,90,4.0,0.0
4828,71.0,0,326,5.0,0.0
4829,64.0,0,721,7.0,0.0
4830,56.0,91,90,4.0,0.0
4831,44.0,34,326,10.0,0.0
4832,76.0,0,90,4.0,0.0
4833,56.0,2,324,8.0,0.0
4834,71.0,0,326,6.0,0.0
4835,64.0,0,91,4.0,0.0
4836,75.0,90,91,4.0,0.0
4837,76.0,53,90,4.0,0.0
4838,59.0,0,90,4.0,0.0
4839,64.0,0,89,4.0,0.0
4840,71.0,90,89,4.0,0.0
4841,57.0,1,360,8.0,0.0
4842,74.0,0,89,4.0,0.0
4843,57.0,90,89,4.0,0.0
4844,69.0,0,719,6.0,0.0
4845,72.0,91,360,5.0,0.0
4846,45.0,0,360,10.0,0.0
4847,64.0,0,90,4.0,0.0
4848,72.0,90,0,4.0,0.0
4849,60.0,90,90,4.0,0.0
4850,64.0,0,91,4.0,0.0
4851,54.0,36,324,8.0,0.0
4852,72.0,45,91,4.0,0.0
4853,54.0,0,359,4.0,0.0
4854,42.0,0,323,10.0,0.0
4855,72.0,90,359,5.0,0.0
4856,76.0,44,45,4.0,0.0
4857,74.0,45,44,4.0,0.0
4858,62.0,0,179,4.0,0.0
4859,57.0,0,179,4.0,0.0
4860,78.0,44,45,4.0,0.0
4861,76.0,45,44,4.0,0.0
4862,74.0,9,45,4.0,0.0
4863,72.0,0,45,4.0,0.0
4864,55.0,0,360,4.0,0.0
4865,71.0,45,90,4.0,0.0
4866,62.0,0,0,7.0,0.0
4867,71.0,0,360,5.0,0.0
4868,67.0,0,360,6.0,0.0
4869,43.0,45,360,10.0,0.0
4870,55.0,0,360,8.0,0.0
4871,74.0,45,45,4.0,0.0
4872,72.0,45,45,4.0,0.0
4873,76.0,45,45,4.0,0.0
4874,59.0,0,180,4.0,0.0
4875,62.0,0,180,4.0,0.0
4876,74.0,45,45,4.0,0.0
4877,72.0,45,45,4.0,0.0
4878,71.0,0,45,4.0,0.0
4879,76.0,0,322,5.0,0.0
4880,60.0,175,360,7.0,0.0
4881,48.0,36,324,8.0,0.0
4882,48.0,0,360,4.0,0.0
4883,36.0,2,322,10.0,0.0
4884,71.0,45,45,4.0,0.0
4885,64.0,0,322,6.0,0.0
4886,69.0,45,45,4.0,0.0
4887,72.0,42,45,4.0,0.0
4888,71.0,45,42,4.0,0.0
4889,74.0,45,45,4.0,0.0
4890,60.0,0,183,4.0,0.0
4891,72.0,45,45,4.0,0.0
4892,71.0,10,45,4.0,0.0
4893,69.0,0,48,4.0,0.0
4894,38.0,0,363,10.0,0.0
4895,67.0,149,178,5.0,0.0
4896,62.0,0,363,6.0,0.0
4897,50.0,45,360,8.0,0.0
4898,59.0,0,175,4.0,0.0
4899,50.0,0,360,4.0,0.0
4900,67.0,0,175,4.0,0.0
4901,59.0,0,175,7.0,0.0
4902,57.0,36,149,7.0,0.0
4903,66.0,0,185,4.0,0.0
4904,57.0,0,185,4.0,0.0
4905,66.0,0,149,5.0,0.0
4906,67.0,45,45,4.0,0.0
4907,69.0,45,45,4.0,0.0
4908,66.0,45,45,4.0,0.0
4909,67.0,45,45,4.0,0.0
4910,64.0,40,45,4.0,0.0
4911,66.0,45,40,4.0,0.0
4912,62.0,50,45,4.0,0.0
4913,64.0,87,50,4.0,0.0
4914,67.0,0,89,6.0,0.0
4915,79.0,87,89,5.0,0.0
4916,40.0,0,722,10.0,0.0
4917,61.0,0,174,4.0,0.0
4918,52.0,0,720,8.0,0.0
4919,66.0,93,87,6.0,0.0
4920,78.0,0,87,5.0,0.0
4921,76.0,71,93,5.0,0.0
4922,55.0,0,0,4.0,0.0
4923,52.0,0,0,4.0,0.0
4924,61.0,45,186,4.0,0.0
4925,64.0,0,93,6.0,0.0
4926,62.0,0,71,6.0,0.0
4927,74.0,22,71,5.0,0.0
4928,79.0,49,45,4.0,0.0
4929,73.0,45,191,5.0,0.0
4930,80.0,45,49,4.0,0.0
4931,77.0,52,45,4.0,0.0
4932,79.0,0,52,4.0,0.0
4933,75.0,48,45,4.0,0.0
4934,61.0,0,0,6.0,0.0
4935,73.0,98,169,5.0,0.0
4936,77.0,45,48,4.0,0.0
4937,74.0,31,45,4.0,0.0
4938,75.0,0,31,4.0,0.0
4939,51.0,0,684,8.0,0.0
4940,39.0,36,673,10.0,0.0
4941,63.0,0,176,4.0,0.0
4942,73.0,0,176,4.0,0.0
4943,67.0,0,87,6.0,0.0
4944,55.0,89,87,7.0,0.0
4945,53.0,0,89,7.0,0.0
4946,65.0,0,89,6.0,0.0
4947,73.0,0,175,4.0,0.0
4948,63.0,178,175,4.0,0.0
4949,67.0,88,0,4.0,0.0
4950,63.0,87,88,6.0,0.0
4951,51.0,0,88,7.0,0.0
4952,62.0,0,87,6.0,0.0
4953,50.0,0,87,7.0,0.0
4954,61.0,0,178,6.0,0.0
4955,49.0,144,0,7.0,0.0
4956,61.0,405,180,6.0,0.0
4957,74.0,0,90,1.0,0.0
4958,62.0,45,90,2.0,0.0
4959,86.0,45,45,4.0,0.0
4960,86.0,0,90,0.0,0.0
4961,88.0,0,45,4.0,0.0
4962,84.0,45,45,4.0,0.0
4963,60.0,0,90,2.0,0.0
4964,84.0,0,90,0.0,0.0
4965,72.0,0,90,1.0,0.0
4966,86.0,45,45,4.0,0.0
4967,59.0,45,90,2.0,0.0
4968,83.0,0,90,0.0,0.0
4969,83.0,45,45,4.0,0.0
4970,71.0,0,90,1.0,0.0
4971,84.0,0,45,4.0,0.0
4972,81.0,26,45,4.0,0.0
4973,57.0,0,71,2.0,0.0
4974,69.0,19,71,1.0,0.0
4975,81.0,0,71,0.0,0.0
4976,83.0,90,45,4.0,0.0
4977,79.0,90,180,4.0,0.0
4978,79.0,0,180,0.0,0.0
4979,62.0,90,90,4.0,0.0
4980,67.0,0,180,3.0,0.0
4981,71.0,0,90,4.0,0.0
4982,55.0,0,0,2.0,0.0
4983,38.0,0,0,10.0,0.0
4984,50.0,0,0,8.0,0.0
4985,59.0,0,0,3.0,0.0
4986,67.0,0,180,3.0,0.0
4987,79.0,0,180,0.0,0.0
4988,67.0,0,0,1.0,0.0
4989,79.0,0,180,4.0,0.0
4990,67.0,90,90,4.0,0.0
4991,71.0,0,90,4.0,0.0
4992,57.0,0,22,2.0,0.0
4993,62.0,0,180,3.0,0.0
4994,69.0,0,22,3.0,0.0
4995,69.0,0,22,1.0,0.0
4996,81.0,0,22,4.0,0.0
4997,50.0,22,0,8.0,0.0
4998,62.0,90,90,4.0,0.0
4999,81.0,23,22,0.0,0.0
5000,71.0,45,23,1.0,0.0
5001,59.0,0,23,2.0,0.0
5002,71.0,0,23,3.0,0.0
5003,83.0,0,23,4.0,0.0
5004,83.0,0,23,0.0,0.0
5005,69.0,0,45,3.0,0.0
5006,81.0,0,45,4.0,0.0
5007,69.0,0,45,1.0,0.0
5008,57.0,0,45,2.0,0.0
5009,81.0,0,45,0.0,0.0
5010,67.0,0,90,1.0,0.0
5011,55.0,0,90,2.0,0.0
5012,79.0,0,90,0.0,0.0
5013,79.0,91,90,4.0,0.0
5014,67.0,0,90,3.0,0.0
5015,72.0,0,90,4.0,0.0
5016,81.0,72,91,4.0,0.0
5017,81.0,0,91,0.0,0.0
5018,69.0,0,91,1.0,0.0
5019,50.0,0,180,8.0,0.0
5020,69.0,0,91,3.0,0.0
5021,66.0,0,91,4.0,0.0
5022,57.0,0,91,2.0,0.0
5023,38.0,0,0,10.0,0.0
5024,83.0,17,72,0.0,0.0
5025,71.0,0,89,3.0,0.0
5026,72.0,0,89,4.0,0.0
5027,83.0,0,89,4.0,0.0
5028,62.0,0,0,3.0,0.0
5029,59.0,0,89,2.0,0.0
5030,71.0,180,89,1.0,0.0
5031,43.0,0,180,8.0,0.0
5032,67.0,88,358,1.0,0.0
5033,79.0,0,358,0.0,0.0
5034,31.0,0,178,10.0,0.0
5035,59.0,0,358,3.0,0.0
5036,67.0,0,358,3.0,0.0
5037,55.0,0,358,2.0,0.0
5038,79.0,0,358,4.0,0.0
5039,67.0,180,178,4.0,0.0
5040,71.0,0,178,4.0,0.0
5041,55.0,0,180,4.0,0.0
5042,74.0,180,88,5.0,0.0
5043,74.0,137,88,5.0,0.0
5044,43.0,0,720,10.0,0.0
5045,62.0,0,1440,7.0,0.0
5046,43.0,45,45,4.0,0.0
5047,86.0,0,45,4.0,0.0
5048,55.0,0,720,8.0,0.0
5049,74.0,44,181,5.0,0.0
5050,70.0,0,720,6.0,0.0
5051,55.0,45,45,4.0,0.0
5052,82.0,0,45,4.0,0.0
5053,79.0,45,45,4.0,0.0
5054,54.0,0,45,4.0,0.0
5055,74.0,0,45,4.0,0.0
5056,55.0,1,45,4.0,0.0
5057,57.0,0,45,4.0,0.0
5058,86.0,28,45,4.0,0.0
5059,70.0,17,72,5.0,0.0
5060,74.0,45,45,4.0,0.0
5061,55.0,0,45,4.0,0.0
5062,54.0,0,45,4.0,0.0
5063,86.0,45,45,4.0,0.0
5064,74.0,45,45,4.0,0.0
5065,55.0,0,45,4.0,0.0
5066,86.0,0,45,4.0,0.0
5067,43.0,45,45,4.0,0.0
5068,74.0,44,89,5.0,0.0
5069,82.0,1,45,4.0,0.0
5070,55.0,0,45,4.0,0.0
5071,54.0,0,45,4.0,0.0
5072,79.0,45,45,4.0,0.0
5073,74.0,45,45,4.0,0.0
5074,55.0,0,45,4.0,0.0
5075,74.0,17,89,5.0,0.0
5076,57.0,28,45,4.0,0.0
5077,86.0,0,45,4.0,0.0
5078,55.0,0,45,4.0,0.0
5079,74.0,45,45,4.0,0.0
5080,86.0,45,45,4.0,0.0
5081,54.0,0,45,4.0,0.0
5082,74.0,0,45,4.0,0.0
5083,55.0,45,45,4.0,0.0
5084,74.0,5,183,5.0,0.0
5085,54.0,45,360,8.0,0.0
5086,42.0,0,360,10.0,0.0
5087,69.0,5,670,6.0,0.0
5088,42.0,45,45,4.0,0.0
5089,86.0,0,45,4.0,0.0
5090,54.0,45,45,4.0,0.0
5091,81.0,0,45,4.0,0.0
5092,78.0,40,45,4.0,0.0
5093,52.0,0,45,4.0,0.0
5094,74.0,45,45,4.0,0.0
5095,54.0,0,45,4.0,0.0
5096,69.0,23,72,5.0,0.0
5097,86.0,22,45,4.0,0.0
5098,55.0,0,45,4.0,0.0
5099,74.0,0,45,4.0,0.0
5100,54.0,45,45,4.0,0.0
5101,52.0,0,45,4.0,0.0
5102,86.0,45,45,4.0,0.0
5103,54.0,0,45,4.0,0.0
5104,74.0,0,45,4.0,0.0
5105,41.0,0,360,10.0,0.0
5106,86.0,43,45,4.0,0.0
5107,41.0,0,45,4.0,0.0
5108,53.0,0,360,8.0,0.0
5109,74.0,2,88,5.0,0.0
5110,81.0,45,45,4.0,0.0
5111,53.0,0,45,4.0,0.0
5112,77.0,0,45,4.0,0.0
5113,52.0,45,45,4.0,0.0
5114,53.0,0,45,4.0,0.0
5115,74.0,45,45,4.0,0.0
5116,74.0,13,89,5.0,0.0
5117,86.0,32,45,4.0,0.0
5118,55.0,0,45,4.0,0.0
5119,53.0,0,45,4.0,0.0
5120,74.0,40,45,4.0,0.0
5121,52.0,0,45,4.0,0.0
5122,86.0,45,45,4.0,0.0
5123,74.0,45,45,4.0,0.0
5124,53.0,0,45,4.0,0.0
5125,67.0,45,723,6.0,0.0
5126,74.0,0,363,5.0,0.0
5127,40.0,45,45,4.0,0.0
5128,40.0,0,360,10.0,0.0
5129,52.0,0,360,8.0,0.0
5130,86.0,0,45,4.0,0.0
5131,58.0,45,360,7.0,0.0
5132,82.0,45,45,4.0,0.0
5133,52.0,0,45,4.0,0.0
5134,79.0,45,45,4.0,0.0
5135,50.0,0,45,4.0,0.0
5136,74.0,0,45,4.0,0.0
5137,52.0,45,45,4.0,0.0
5138,86.0,45,45,4.0,0.0
5139,53.0,0,45,4.0,0.0
5140,52.0,0,45,4.0,0.0
5141,74.0,45,45,4.0,0.0
5142,86.0,0,45,4.0,0.0
5143,50.0,45,45,4.0,0.0
5144,52.0,0,45,4.0,0.0
5145,74.0,0,45,4.0,0.0
5146,39.0,2,313,10.0,0.0
5147,73.0,12,258,5.0,0.0
5148,51.0,36,324,8.0,0.0
5149,85.0,45,45,4.0,0.0
5150,39.0,0,45,4.0,0.0
5151,55.0,0,313,7.0,0.0
5152,82.0,45,45,4.0,0.0
5153,51.0,0,45,4.0,0.0
5154,79.0,45,45,4.0,0.0
5155,50.0,0,45,4.0,0.0
5156,73.0,45,45,4.0,0.0
5157,51.0,0,45,4.0,0.0
5158,85.0,33,45,4.0,0.0
5159,53.0,0,45,4.0,0.0
5160,73.0,0,45,4.0,0.0
5161,51.0,43,45,4.0,0.0
5162,74.0,0,102,5.0,0.0
5163,85.0,0,45,4.0,0.0
5164,50.0,9,45,4.0,0.0
5165,51.0,0,45,4.0,0.0
5166,73.0,0,45,4.0,0.0
5167,50.0,0,1625,3.0,0.0
5168,38.0,0,180,10.0,0.0
5169,62.0,0,1625,3.0,0.0
5170,57.0,0,180,7.0,0.0
5171,74.0,35,140,5.0,0.0
5172,74.0,45,45,4.0,0.0
5173,38.0,0,180,4.0,0.0
5174,50.0,0,180,8.0,0.0
5175,66.0,5,175,6.0,0.0
5176,78.0,45,45,4.0,0.0
5177,81.0,5,45,4.0,0.0
5178,86.0,45,45,4.0,0.0
5179,74.0,45,45,4.0,0.0
5180,86.0,45,45,4.0,0.0
5181,74.0,45,45,4.0,0.0
5182,86.0,45,45,4.0,0.0
5183,62.0,0,182,6.0,0.0
5184,55.0,0,182,7.0,0.0
5185,74.0,45,182,5.0,0.0
5186,74.0,0,45,4.0,0.0
5187,43.0,45,45,4.0,0.0
5188,55.0,45,45,4.0,0.0
5189,86.0,0,45,4.0,0.0
5190,74.0,0,45,4.0,0.0
5191,54.0,45,45,4.0,0.0
5192,55.0,0,45,4.0,0.0
5193,86.0,0,45,4.0,0.0
5194,74.0,45,180,1.0,0.0
5195,67.0,0,144,6.0,0.0
5196,62.0,0,180,2.0,0.0
5197,62.0,36,144,7.0,0.0
5198,58.0,0,0,7.0,0.0
5199,46.0,0,180,10.0,0.0
5200,58.0,0,180,8.0,0.0
5201,74.0,0,45,4.0,0.0
5202,46.0,45,45,4.0,0.0
5203,79.0,0,144,5.0,0.0
5204,86.0,0,180,0.0,0.0
5205,86.0,0,45,4.0,0.0
5206,58.0,45,45,4.0,0.0
5207,74.0,0,45,4.0,0.0
5208,57.0,9,45,4.0,0.0
5209,58.0,0,45,4.0,0.0
5210,86.0,0,45,4.0,0.0
5211,74.0,0,45,4.0,0.0
5212,57.0,0,180,8.0,0.0
5213,45.0,45,45,4.0,0.0
5214,57.0,44,360,7.0,0.0
5215,60.0,0,360,7.0,0.0
5216,78.0,0,179,5.0,0.0
5217,66.0,0,179,6.0,0.0
5218,45.0,0,179,10.0,0.0
5219,63.0,45,179,2.0,0.0
5220,75.0,0,179,1.0,0.0
5221,87.0,0,179,0.0,0.0
5222,57.0,45,45,4.0,0.0
5223,86.0,0,45,4.0,0.0
5224,74.0,45,45,4.0,0.0
5225,56.0,0,45,4.0,0.0
5226,86.0,0,45,4.0,0.0
5227,57.0,0,45,4.0,0.0
5228,38.0,0,146,10.0,0.0
5229,50.0,2,144,8.0,0.0
5230,38.0,0,45,4.0,0.0
5231,62.0,34,146,2.0,0.0
5232,74.0,45,45,4.0,0.0
5233,86.0,0,146,0.0,0.0
5234,74.0,0,146,1.0,0.0
5235,50.0,0,45,4.0,0.0
5236,86.0,45,45,4.0,0.0
5237,74.0,9,45,4.0,0.0
5238,49.0,0,45,4.0,0.0
5239,86.0,1,45,4.0,0.0
5240,50.0,0,45,4.0,0.0
5241,74.0,45,45,4.0,0.0
5242,43.0,0,45,4.0,0.0
5243,55.0,0,359,7.0,0.0
5244,74.0,0,89,5.0,0.0
5245,58.0,45,179,7.0,0.0
5246,62.0,45,89,6.0,0.0
5247,86.0,0,45,4.0,0.0
5248,55.0,0,45,4.0,0.0
5249,67.0,0,90,6.0,0.0
5250,74.0,45,45,4.0,0.0
5251,54.0,0,45,4.0,0.0
5252,79.0,0,90,5.0,0.0
5253,86.0,0,45,4.0,0.0
5254,55.0,0,45,4.0,0.0
5255,82.0,0,90,5.0,0.0
5256,46.0,45,180,10.0,0.0
5257,86.0,0,180,0.0,0.0
5258,74.0,0,180,1.0,0.0
5259,62.0,0,180,2.0,0.0
5260,62.0,0,180,7.0,0.0
5261,58.0,0,180,8.0,0.0
5262,74.0,45,45,4.0,0.0
5263,70.0,45,90,6.0,0.0
5264,46.0,0,45,4.0,0.0
5265,86.0,0,45,4.0,0.0
5266,58.0,0,45,4.0,0.0
5267,74.0,45,45,4.0,0.0
5268,67.0,0,90,6.0,0.0
5269,57.0,0,45,4.0,0.0
5270,79.0,0,90,5.0,0.0
5271,86.0,0,45,4.0,0.0
5272,58.0,0,45,4.0,0.0
5273,87.0,0,180,0.0,0.0
5274,45.0,0,45,4.0,0.0
5275,74.0,45,45,4.0,0.0
5276,75.0,45,180,1.0,0.0
5277,45.0,0,180,10.0,0.0
5278,78.0,0,144,5.0,0.0
5279,57.0,0,360,7.0,0.0
5280,60.0,0,360,7.0,0.0
5281,66.0,36,144,6.0,0.0
5282,63.0,0,180,2.0,0.0
5283,57.0,0,180,8.0,0.0
5284,86.0,0,45,4.0,0.0
5285,57.0,45,45,4.0,0.0
5286,56.0,0,45,4.0,0.0
5287,74.0,9,45,4.0,0.0
5288,57.0,0,45,4.0,0.0
5289,86.0,0,45,4.0,0.0
5290,86.0,0,144,0.0,0.0
5291,62.0,0,144,2.0,0.0
5292,74.0,0,45,4.0,0.0
5293,38.0,0,144,10.0,0.0
5294,50.0,0,144,8.0,0.0
5295,74.0,36,144,1.0,0.0
5296,38.0,45,45,4.0,0.0
5297,86.0,0,45,4.0,0.0
5298,50.0,45,45,4.0,0.0
5299,74.0,9,45,4.0,0.0
5300,49.0,0,45,4.0,0.0
5301,86.0,0,45,4.0,0.0
5302,50.0,45,45,4.0,0.0
5303,55.0,0,180,8.0,0.0
5304,67.0,0,180,6.0,0.0
5305,43.0,0,180,10.0,0.0
5306,58.0,0,180,7.0,0.0
5307,55.0,0,180,7.0,0.0
5308,43.0,45,45,4.0,0.0
5309,74.0,0,45,4.0,0.0
5310,79.0,0,180,5.0,0.0
5311,55.0,45,45,4.0,0.0
5312,86.0,0,45,4.0,0.0
5313,74.0,0,45,4.0,0.0
5314,53.0,45,45,4.0,0.0
5315,86.0,45,45,4.0,0.0
5316,55.0,0,45,4.0,0.0
5317,53.0,45,180,7.0,0.0
5318,56.0,0,180,8.0,0.0
5319,44.0,0,180,10.0,0.0
5320,71.0,0,180,5.0,0.0
5321,59.0,0,180,6.0,0.0
5322,74.0,45,45,4.0,0.0
5323,44.0,0,45,4.0,0.0
5324,86.0,45,45,4.0,0.0
5325,56.0,0,45,4.0,0.0
5326,74.0,0,45,4.0,0.0
5327,55.0,45,45,4.0,0.0
5328,86.0,0,45,4.0,0.0
5329,56.0,0,45,4.0,0.0
5330,43.0,45,45,4.0,0.0
5331,55.0,0,180,8.0,0.0
5332,75.0,0,45,4.0,0.0
5333,60.0,0,179,6.0,0.0
5334,43.0,0,179,10.0,0.0
5335,55.0,0,179,7.0,0.0
5336,72.0,0,179,5.0,0.0
5337,55.0,0,45,4.0,0.0
5338,87.0,45,45,4.0,0.0
5339,75.0,45,45,4.0,0.0
5340,54.0,0,45,4.0,0.0
5341,55.0,0,45,4.0,0.0
5342,87.0,45,45,4.0,0.0
5343,42.0,0,147,10.0,0.0
5344,73.0,0,147,5.0,0.0
5345,54.0,3,144,8.0,0.0
5346,58.0,33,147,7.0,0.0
5347,76.0,0,45,4.0,0.0
5348,42.0,45,45,4.0,0.0
5349,61.0,0,147,6.0,0.0
5350,54.0,0,45,4.0,0.0
5351,88.0,45,45,4.0,0.0
5352,76.0,9,45,4.0,0.0
5353,53.0,0,45,4.0,0.0
5354,88.0,0,45,4.0,0.0
5355,54.0,45,45,4.0,0.0
5356,53.0,2,88,8.0,0.0
5357,77.0,0,45,4.0,0.0
5358,41.0,43,45,4.0,0.0
5359,74.0,0,277,5.0,0.0
5360,58.0,0,277,7.0,0.0
5361,62.0,36,277,6.0,0.0
5362,41.0,44,89,10.0,0.0
5363,53.0,0,45,4.0,0.0
5364,89.0,1,45,4.0,0.0
5365,77.0,0,45,4.0,0.0
5366,52.0,45,45,4.0,0.0
5367,89.0,45,45,4.0,0.0
5368,53.0,0,45,4.0,0.0
5369,77.0,0,45,4.0,0.0
5370,41.0,43,45,4.0,0.0
5371,53.0,2,88,8.0,0.0
5372,41.0,4,88,10.0,0.0
5373,53.0,0,45,4.0,0.0
5374,89.0,5,45,4.0,0.0
5375,77.0,0,45,4.0,0.0
5376,52.0,9,45,4.0,0.0
5377,60.0,0,45,7.0,0.0
5378,75.0,0,45,5.0,0.0
5379,63.0,36,45,6.0,0.0
5380,53.0,0,45,4.0,0.0
5381,89.0,0,45,4.0,0.0
5382,60.0,0,36,6.0,0.0
5383,57.0,0,36,7.0,0.0
5384,72.0,180,36,5.0,0.0
5385,46.0,0,180,8.0,0.0
5386,46.0,0,180,4.0,0.0
5387,82.0,8,180,4.0,0.0
5388,58.0,172,176,6.0,0.0
5389,70.0,0,176,5.0,0.0
5390,34.0,0,176,10.0,0.0
5391,58.0,0,176,7.0,0.0
5392,58.0,4,180,8.0,0.0
5393,46.0,176,176,10.0,0.0
5394,74.0,0,176,6.0,0.0
5395,77.0,180,0,5.0,0.0
5396,74.0,45,180,6.0,0.0
5397,70.0,0,360,7.0,0.0
5398,89.0,45,45,4.0,0.0
5399,46.0,0,360,10.0,0.0
5400,77.0,5,445,5.0,0.0
5401,74.0,0,360,6.0,0.0
5402,46.0,0,45,4.0,0.0
5403,58.0,0,360,8.0,0.0
5404,50.0,45,45,4.0,0.0
5405,86.0,0,45,4.0,0.0
5406,53.0,45,45,4.0,0.0
5407,82.0,0,45,4.0,0.0
5408,77.0,45,45,4.0,0.0
5409,58.0,0,45,4.0,0.0
5410,89.0,45,45,4.0,0.0
5411,46.0,0,45,4.0,0.0
5412,77.0,0,45,4.0,0.0
5413,58.0,45,45,4.0,0.0
5414,46.0,0,45,4.0,0.0
5415,89.0,45,45,4.0,0.0
5416,77.0,45,45,4.0,0.0
5417,58.0,0,45,4.0,0.0
5418,67.0,0,171,7.0,0.0
5419,55.0,0,180,8.0,0.0
5420,43.0,0,171,10.0,0.0
5421,70.0,13,257,6.0,0.0
5422,82.0,0,45,4.0,0.0
5423,43.0,40,45,4.0,0.0
5424,79.0,45,45,4.0,0.0
5425,46.0,0,45,4.0,0.0
5426,76.0,9,86,5.0,0.0
5427,76.0,0,45,4.0,0.0
5428,52.0,36,45,4.0,0.0
5429,55.0,0,45,4.0,0.0
5430,70.0,45,45,4.0,0.0
5431,64.0,3,141,7.0,0.0
5432,79.0,0,86,5.0,0.0
5433,40.0,0,141,10.0,0.0
5434,52.0,5,144,8.0,0.0
5435,82.0,32,45,4.0,0.0
5436,43.0,0,45,4.0,0.0
5437,70.0,42,45,4.0,0.0
5438,55.0,0,45,4.0,0.0
5439,76.0,0,72,5.0,0.0
5440,67.0,31,72,6.0,0.0
5441,82.0,9,45,4.0,0.0
5442,43.0,0,45,4.0,0.0
5443,55.0,45,45,4.0,0.0
5444,70.0,0,45,4.0,0.0
5445,65.0,5,178,6.0,0.0
5446,45.0,3,360,10.0,0.0
5447,69.0,0,360,7.0,0.0
5448,74.0,0,178,5.0,0.0
5449,45.0,45,180,4.0,0.0
5450,57.0,0,360,8.0,0.0
5451,69.0,45,45,4.0,0.0
5452,74.0,45,45,4.0,0.0
5453,77.0,40,45,4.0,0.0
5454,74.0,0,45,4.0,0.0
5455,73.0,35,147,5.0,0.0
5456,64.0,0,182,6.0,0.0
5457,69.0,45,45,4.0,0.0
5458,73.0,45,45,4.0,0.0
5459,76.0,7,45,4.0,0.0
5460,73.0,45,45,4.0,0.0
5461,62.0,0,363,7.0,0.0
5462,69.0,0,363,6.0,0.0
5463,77.0,0,363,6.0,0.0
5464,38.0,0,363,10.0,0.0
5465,81.0,0,545,5.0,0.0
5466,69.0,0,363,5.0,0.0
5467,38.0,0,45,4.0,0.0
5468,69.0,45,45,4.0,0.0
5469,50.0,0,360,8.0,0.0
5470,74.0,45,45,4.0,0.0
5471,50.0,0,45,4.0,0.0
5472,49.0,45,45,4.0,0.0
5473,77.0,0,45,4.0,0.0
5474,50.0,45,45,4.0,0.0
5475,81.0,0,45,4.0,0.0
5476,69.0,45,45,4.0,0.0
5477,41.0,0,45,4.0,0.0
5478,81.0,0,45,4.0,0.0
5479,53.0,45,45,4.0,0.0
5480,52.0,0,45,4.0,0.0
5481,69.0,45,45,4.0,0.0
5482,81.0,0,45,4.0,0.0
5483,53.0,45,45,4.0,0.0
5484,45.0,0,360,4.0,0.0
5485,57.0,0,360,4.0,0.0
5486,69.0,45,45,4.0,0.0
5487,77.0,43,177,6.0,0.0
5488,81.0,45,45,4.0,0.0
5489,69.0,45,45,4.0,0.0
5490,81.0,2,45,4.0,0.0
5491,69.0,45,45,4.0,0.0
5492,76.0,43,90,6.0,0.0
5493,79.0,0,90,5.0,0.0
5494,81.0,2,45,4.0,0.0
5495,69.0,29,45,4.0,0.0
5496,77.0,16,72,5.0,0.0
5497,74.0,0,72,6.0,0.0
5498,81.0,45,45,4.0,0.0
5499,69.0,45,45,4.0,0.0
5500,57.0,0,180,8.0,0.0
5501,69.0,0,89,6.0,0.0
5502,77.0,44,89,5.0,0.0
5503,45.0,44,179,10.0,0.0
5504,81.0,1,45,4.0,0.0
5505,69.0,28,45,4.0,0.0
5506,76.0,0,72,5.0,0.0
5507,67.0,17,72,6.0,0.0
5508,81.0,1,45,4.0,0.0
5509,69.0,0,45,4.0,0.0
5510,45.0,0,180,8.0,0.0
5511,69.0,0,0,7.0,0.0
5512,74.0,0,44,5.0,0.0
5513,65.0,45,44,6.0,0.0
5514,33.0,0,179,10.0,0.0
5515,81.0,43,45,4.0,0.0
5516,69.0,45,45,4.0,0.0
5517,73.0,0,43,5.0,0.0
5518,64.0,2,43,6.0,0.0
5519,81.0,45,45,4.0,0.0
5520,69.0,0,0,7.0,0.0
5521,38.0,0,360,10.0,0.0
5522,50.0,0,360,8.0,0.0
5523,74.0,0,360,5.0,0.0
5524,50.0,45,360,4.0,0.0
5525,69.0,45,45,4.0,0.0
5526,65.0,0,360,6.0,0.0
5527,81.0,45,45,4.0,0.0
5528,69.0,45,45,4.0,0.0
5529,81.0,45,45,4.0,0.0
5530,68.0,45,45,4.0,0.0
5531,80.0,45,45,4.0,0.0
5532,68.0,45,45,4.0,0.0
5533,80.0,0,45,4.0,0.0
5534,63.0,0,90,2.0,0.0
5535,55.0,0,180,3.0,0.0
5536,55.0,0,90,2.0,0.0
5537,67.0,45,45,4.0,0.0
5538,87.0,0,90,0.0,0.0
5539,67.0,45,90,1.0,0.0
5540,75.0,0,90,1.0,0.0
5541,79.0,0,45,4.0,0.0
5542,74.0,19,71,1.0,0.0
5543,67.0,26,45,4.0,0.0
5544,62.0,0,71,2.0,0.0
5545,53.0,0,71,2.0,0.0
5546,65.0,0,71,1.0,0.0
5547,86.0,0,71,0.0,0.0
5548,79.0,43,45,4.0,0.0
5549,67.0,0,0,3.0,0.0
5550,55.0,0,180,8.0,0.0
5551,60.0,0,43,2.0,0.0
5552,51.0,0,43,2.0,0.0
5553,55.0,22,180,7.0,0.0
5554,72.0,0,43,1.0,0.0
5555,63.0,2,43,1.0,0.0
5556,43.0,0,180,10.0,0.0
5557,55.0,0,180,5.0,0.0
5558,84.0,0,43,0.0,0.0
5559,55.0,0,180,4.0,0.0
5560,67.0,45,45,4.0,0.0
5561,55.0,0,180,6.0,0.0
5562,79.0,43,45,4.0,0.0
5563,50.0,0,43,2.0,0.0
5564,71.0,2,43,1.0,0.0
5565,83.0,0,43,0.0,0.0
5566,67.0,45,45,4.0,0.0
5567,59.0,0,43,2.0,0.0
5568,62.0,0,43,1.0,0.0
5569,79.0,0,45,4.0,0.0
5570,67.0,0,0,3.0,0.0
5571,60.0,0,360,4.0,0.0
5572,60.0,0,361,5.0,0.0
5573,60.0,0,22,2.0,0.0
5574,48.0,0,361,10.0,0.0
5575,55.0,0,0,3.0,0.0
5576,84.0,0,22,0.0,0.0
5577,51.0,0,22,2.0,0.0
5578,67.0,0,45,4.0,0.0
5579,60.0,0,361,7.0,0.0
5580,60.0,44,361,6.0,0.0
5581,72.0,23,22,1.0,0.0
5582,63.0,0,22,1.0,0.0
5583,60.0,0,360,8.0,0.0
5584,74.0,0,23,1.0,0.0
5585,63.0,0,23,1.0,0.0
5586,86.0,0,23,0.0,0.0
5587,62.0,45,23,2.0,0.0
5588,79.0,45,45,4.0,0.0
5589,84.0,0,45,0.0,0.0
5590,72.0,0,45,1.0,0.0
5591,63.0,0,45,1.0,0.0
5592,60.0,0,45,2.0,0.0
5593,51.0,0,0,2.0,0.0
5594,50.0,0,71,2.0,0.0
5595,59.0,19,71,2.0,0.0
5596,83.0,0,71,0.0,0.0
5597,71.0,0,71,1.0,0.0
5598,62.0,0,71,1.0,0.0
5599,67.0,26,45,4.0,0.0
5600,79.0,43,45,4.0,0.0
5601,60.0,0,43,2.0,0.0
5602,51.0,2,43,2.0,0.0
5603,84.0,0,43,0.0,0.0
5604,67.0,45,45,4.0,0.0
5605,63.0,0,43,1.0,0.0
5606,72.0,0,43,1.0,0.0
5607,79.0,45,45,4.0,0.0
5608,67.0,45,45,4.0,0.0
5609,86.0,0,44,0.0,0.0
5610,62.0,0,44,2.0,0.0
5611,53.0,0,44,2.0,0.0
5612,74.0,0,44,1.0,0.0
5613,65.0,0,44,1.0,0.0
5614,79.0,1,45,4.0,0.0
5615,67.0,45,45,4.0,0.0
5616,55.0,0,89,2.0,0.0
5617,63.0,0,89,2.0,0.0
5618,75.0,0,89,1.0,0.0
5619,67.0,45,89,1.0,0.0
5620,87.0,0,89,0.0,0.0
5621,79.0,0,45,4.0,0.0
5622,62.0,0,85,2.0,0.0
5623,67.0,40,45,4.0,0.0
5624,86.0,0,85,0.0,0.0
5625,53.0,5,85,2.0,0.0
5626,74.0,0,85,1.0,0.0
5627,65.0,0,85,1.0,0.0
5628,79.0,39,45,4.0,0.0
5629,63.0,0,44,1.0,0.0
5630,72.0,0,44,1.0,0.0
5631,67.0,0,185,6.0,0.0
5632,55.0,0,185,7.0,0.0
5633,43.0,0,185,10.0,0.0
5634,84.0,6,44,0.0,0.0
5635,67.0,0,185,5.0,0.0
5636,51.0,0,44,2.0,0.0
5637,60.0,0,44,2.0,0.0
5638,55.0,0,180,8.0,0.0
5639,67.0,45,45,4.0,0.0
5640,55.0,45,180,4.0,0.0
5641,79.0,36,45,4.0,0.0
5642,59.0,0,44,2.0,0.0
5643,50.0,0,44,2.0,0.0
5644,71.0,0,44,1.0,0.0
5645,62.0,9,44,1.0,0.0
5646,83.0,0,44,0.0,0.0
5647,67.0,45,45,4.0,0.0
5648,79.0,0,45,4.0,0.0
5649,63.0,0,182,1.0,0.0
5650,72.0,0,182,1.0,0.0
5651,60.0,0,182,2.0,0.0
5652,51.0,0,182,2.0,0.0
5653,84.0,0,182,0.0,0.0
5654,48.0,0,177,7.0,0.0
5655,67.0,45,45,4.0,0.0
5656,48.0,45,180,8.0,0.0
5657,36.0,0,177,10.0,0.0
5658,60.0,0,177,5.0,0.0
5659,60.0,0,177,6.0,0.0
5660,48.0,0,180,4.0,0.0
5661,79.0,45,45,4.0,0.0
5662,67.0,42,45,4.0,0.0
5663,79.0,0,45,4.0,0.0
5664,67.0,45,45,4.0,0.0
5665,79.0,45,45,4.0,0.0
5666,67.0,45,45,4.0,0.0
5667,79.0,45,45,4.0,0.0
5668,56.0,0,180,8.0,0.0
5669,56.0,0,180,4.0,0.0
5670,66.0,43,45,4.0,0.0
5671,72.0,2,88,5.0,0.0
5672,44.0,0,180,10.0,0.0
5673,66.0,0,88,6.0,0.0
5674,78.0,45,45,4.0,0.0
5675,66.0,45,45,4.0,0.0
5676,78.0,45,45,4.0,0.0
5677,63.0,0,0,7.0,0.0
5678,43.0,36,144,10.0,0.0
5679,72.0,2,88,5.0,0.0
5680,67.0,0,88,6.0,0.0
5681,55.0,0,144,8.0,0.0
5682,66.0,43,45,4.0,0.0
5683,55.0,1,143,4.0,0.0
5684,78.0,45,45,4.0,0.0
5685,67.0,8,45,4.0,0.0
5686,79.0,45,45,4.0,0.0
5687,42.0,0,180,10.0,0.0
5688,72.0,0,180,5.0,0.0
5689,62.0,0,180,7.0,0.0
5690,69.0,45,45,4.0,0.0
5691,54.0,0,180,8.0,0.0
5692,69.0,45,180,6.0,0.0
5693,54.0,0,180,4.0,0.0
5694,81.0,45,45,4.0,0.0
5695,69.0,45,45,4.0,0.0
5696,81.0,0,45,4.0,0.0
5697,69.0,26,45,4.0,0.0
5698,69.0,19,71,5.0,0.0
5699,81.0,45,45,4.0,0.0
5700,69.0,45,45,4.0,0.0
5701,81.0,45,45,4.0,0.0
5702,57.0,0,180,8.0,0.0
5703,69.0,43,45,4.0,0.0
5704,57.0,0,180,4.0,0.0
5705,60.0,0,180,4.0,0.0
5706,66.0,0,180,6.0,0.0
5707,78.0,0,180,5.0,0.0
5708,45.0,45,180,10.0,0.0
5709,63.0,0,88,2.0,0.0
5710,87.0,2,88,0.0,0.0
5711,57.0,0,180,7.0,0.0
5712,75.0,0,88,1.0,0.0
5713,81.0,45,45,4.0,0.0
5714,69.0,45,45,4.0,0.0
5715,81.0,0,45,4.0,0.0
5716,63.0,0,88,2.0,0.0
5717,58.0,0,144,7.0,0.0
5718,69.0,43,45,4.0,0.0
5719,55.0,1,143,4.0,0.0
5720,58.0,0,143,4.0,0.0
5721,67.0,0,144,6.0,0.0
5722,43.0,0,144,10.0,0.0
5723,79.0,0,144,5.0,0.0
5724,55.0,36,144,8.0,0.0
5725,87.0,2,88,0.0,0.0
5726,75.0,0,88,1.0,0.0
5727,81.0,45,45,4.0,0.0
5728,69.0,8,45,4.0,0.0
5729,81.0,45,45,4.0,0.0
5730,69.0,45,180,6.0,0.0
5731,57.0,0,180,4.0,0.0
5732,63.0,0,180,2.0,0.0
5733,75.0,0,180,1.0,0.0
5734,72.0,45,45,4.0,0.0
5735,54.0,0,180,8.0,0.0
5736,54.0,0,180,4.0,0.0
5737,81.0,0,180,5.0,0.0
5738,87.0,0,180,0.0,0.0
5739,42.0,0,180,10.0,0.0
5740,60.0,0,180,7.0,0.0
5741,84.0,45,45,4.0,0.0
5742,72.0,45,45,4.0,0.0
5743,84.0,0,45,4.0,0.0
5744,74.0,0,71,1.0,0.0
5745,86.0,0,71,0.0,0.0
5746,62.0,19,71,2.0,0.0
5747,72.0,26,45,4.0,0.0
5748,84.0,45,45,4.0,0.0
5749,72.0,45,45,4.0,0.0
5750,84.0,45,45,4.0,0.0
5751,52.0,45,180,7.0,0.0
5752,58.0,0,360,4.0,0.0
5753,82.0,0,180,5.0,0.0
5754,64.0,45,360,4.0,0.0
5755,61.0,0,180,6.0,0.0
5756,73.0,45,45,4.0,0.0
5757,61.0,0,360,4.0,0.0
5758,55.0,0,360,4.0,0.0
5759,43.0,0,180,8.0,0.0
5760,31.0,0,180,10.0,0.0
5761,85.0,45,45,4.0,0.0
5762,73.0,45,45,4.0,0.0
5763,85.0,0,45,4.0,0.0
5764,70.0,0,144,6.0,0.0
5765,55.0,0,144,8.0,0.0
5766,73.0,45,45,4.0,0.0
5767,64.0,36,144,7.0,0.0
5768,43.0,0,144,10.0,0.0
5769,73.0,0,144,5.0,0.0
5770,85.0,45,45,4.0,0.0
5771,73.0,9,45,4.0,0.0
5772,85.0,0,45,4.0,0.0
5773,74.0,0,180,5.0,0.0
5774,42.0,0,180,10.0,0.0
5775,54.0,0,180,8.0,0.0
5776,74.0,45,45,4.0,0.0
5777,62.0,45,180,4.0,0.0
5778,54.0,0,180,4.0,0.0
5779,69.0,0,180,6.0,0.0
5780,66.0,0,180,7.0,0.0
5781,86.0,45,45,4.0,0.0
5782,74.0,45,45,4.0,0.0
5783,86.0,0,45,4.0,0.0
5784,43.0,17,150,10.0,0.0
5785,62.0,45,270,6.0,0.0
5786,72.0,40,95,5.0,0.0
5787,67.0,0,150,7.0,0.0
5788,79.0,45,45,4.0,0.0
5789,55.0,45,180,4.0,0.0
5790,55.0,6,144,8.0,0.0
5791,82.0,5,45,4.0,0.0
5792,79.0,9,45,4.0,0.0
5793,70.0,13,72,5.0,0.0
5794,82.0,0,45,4.0,0.0
5795,48.0,0,180,8.0,0.0
5796,81.0,45,45,4.0,0.0
5797,48.0,0,180,4.0,0.0
5798,70.0,0,85,5.0,0.0
5799,63.0,0,175,7.0,0.0
5800,36.0,45,175,10.0,0.0
5801,84.0,0,45,4.0,0.0
5802,69.0,0,90,5.0,0.0
5803,81.0,45,45,4.0,0.0
5804,60.0,0,90,6.0,0.0
5805,84.0,0,45,4.0,0.0
5806,38.0,0,180,10.0,0.0
5807,50.0,0,180,4.0,0.0
5808,78.0,45,45,4.0,0.0
5809,50.0,0,180,8.0,0.0
5810,58.0,0,90,6.0,0.0
5811,67.0,45,90,5.0,0.0
5812,62.0,17,144,7.0,0.0
5813,81.0,0,45,4.0,0.0
5814,57.0,45,90,6.0,0.0
5815,66.0,19,71,5.0,0.0
5816,78.0,9,45,4.0,0.0
5817,81.0,0,45,4.0,0.0
5818,82.0,0,180,0.0,0.0
5819,70.0,0,45,4.0,0.0
5820,43.0,45,45,4.0,0.0
5821,43.0,0,180,10.0,0.0
5822,55.0,0,180,6.0,0.0
5823,70.0,0,180,1.0,0.0
5824,58.0,0,180,2.0,0.0
5825,67.0,0,720,3.0,0.0
5826,67.0,0,180,5.0,0.0
5827,62.0,0,180,7.0,0.0
5828,55.0,0,720,3.0,0.0
5829,55.0,0,180,8.0,0.0
5830,79.0,45,45,4.0,0.0
5831,55.0,0,45,4.0,0.0
5832,54.0,45,45,4.0,0.0
5833,82.0,0,45,4.0,0.0
5834,55.0,45,45,4.0,0.0
5835,79.0,0,45,4.0,0.0
5836,83.0,0,180,0.0,0.0
5837,53.0,0,180,8.0,0.0
5838,41.0,45,45,4.0,0.0
5839,71.0,0,45,4.0,0.0
5840,71.0,0,180,1.0,0.0
5841,59.0,45,180,2.0,0.0
5842,41.0,0,180,10.0,0.0
5843,53.0,45,45,4.0,0.0
5844,79.0,0,45,4.0,0.0
5845,83.0,45,45,4.0,0.0
5846,52.0,0,45,4.0,0.0
5847,79.0,0,45,4.0,0.0
5848,53.0,0,45,4.0,0.0
5849,72.0,0,180,1.0,0.0
5850,40.0,0,45,4.0,0.0
5851,55.0,0,360,7.0,0.0
5852,72.0,45,45,4.0,0.0
5853,52.0,0,180,8.0,0.0
5854,67.0,0,360,6.0,0.0
5855,79.0,0,180,5.0,0.0
5856,40.0,45,180,10.0,0.0
5857,60.0,0,180,2.0,0.0
5858,84.0,0,180,0.0,0.0
5859,79.0,45,45,4.0,0.0
5860,52.0,0,45,4.0,0.0
5861,84.0,45,45,4.0,0.0
5862,50.0,0,45,4.0,0.0
5863,52.0,0,45,4.0,0.0
5864,79.0,0,45,4.0,0.0
5865,73.0,45,45,4.0,0.0
5866,39.0,0,45,4.0,0.0
5867,61.0,0,151,2.0,0.0
5868,85.0,0,151,0.0,0.0
5869,51.0,0,180,8.0,0.0
5870,73.0,0,180,5.0,0.0
5871,73.0,29,151,1.0,0.0
5872,39.0,45,180,10.0,0.0
5873,79.0,0,45,4.0,0.0
5874,51.0,45,45,4.0,0.0
5875,50.0,0,45,4.0,0.0
5876,85.0,16,45,4.0,0.0
5877,79.0,0,45,4.0,0.0
5878,51.0,0,45,4.0,0.0
5879,74.0,45,45,4.0,0.0
5880,38.0,0,360,4.0,0.0
5881,50.0,0,360,4.0,0.0
5882,50.0,0,360,8.0,0.0
5883,50.0,0,176,3.0,0.0
5884,62.0,0,176,3.0,0.0
5885,86.0,41,540,0.0,0.0
5886,66.0,0,356,6.0,0.0
5887,74.0,0,540,5.0,0.0
5888,38.0,0,356,10.0,0.0
5889,62.0,45,356,2.0,0.0
5890,74.0,0,356,1.0,0.0
5891,57.0,0,356,7.0,0.0
5892,78.0,45,45,4.0,0.0
5893,81.0,45,45,4.0,0.0
5894,86.0,45,45,4.0,0.0
5895,74.0,45,45,4.0,0.0
5896,86.0,45,45,4.0,0.0
5897,74.0,45,45,4.0,0.0
5898,86.0,0,45,4.0,0.0
5899,51.0,0,360,4.0,0.0
5900,39.0,45,360,4.0,0.0
5901,70.0,45,45,4.0,0.0
5902,67.0,0,333,6.0,0.0
5903,55.0,0,333,7.0,0.0
5904,51.0,9,324,8.0,0.0
5905,39.0,27,333,10.0,0.0
5906,75.0,45,45,4.0,0.0
5907,79.0,45,45,4.0,0.0
5908,82.0,4,45,4.0,0.0
5909,70.0,30,45,4.0,0.0
5910,72.0,0,71,5.0,0.0
5911,84.0,15,71,0.0,0.0
5912,82.0,45,45,4.0,0.0
5913,70.0,9,45,4.0,0.0
5914,70.0,0,82,5.0,0.0
5915,82.0,0,82,0.0,0.0
5916,82.0,0,45,4.0,0.0
5917,48.0,2,180,8.0,0.0
5918,72.0,45,45,4.0,0.0
5919,63.0,0,357,6.0,0.0
5920,36.0,0,177,10.0,0.0
5921,60.0,0,357,7.0,0.0
5922,82.0,0,90,0.0,0.0
5923,70.0,40,90,5.0,0.0
5924,75.0,5,45,4.0,0.0
5925,81.0,45,45,4.0,0.0
5926,69.0,43,87,5.0,0.0
5927,81.0,0,87,0.0,0.0
5928,75.0,0,45,4.0,0.0
5929,48.0,2,180,4.0,0.0
5930,72.0,45,45,4.0,0.0
5931,48.0,0,180,8.0,0.0
5932,72.0,0,90,5.0,0.0
5933,36.0,43,180,10.0,0.0
5934,84.0,43,90,0.0,0.0
5935,75.0,2,45,4.0,0.0
5936,81.0,29,45,4.0,0.0
5937,81.0,16,72,0.0,0.0
5938,69.0,0,72,5.0,0.0
5939,75.0,0,45,4.0,0.0
5940,50.0,0,180,8.0,0.0
5941,70.0,45,45,4.0,0.0
5942,50.0,0,180,4.0,0.0
5943,79.0,0,178,0.0,0.0
5944,58.0,0,178,7.0,0.0
5945,62.0,0,178,6.0,0.0
5946,67.0,0,178,5.0,0.0
5947,74.0,45,45,4.0,0.0
5948,79.0,45,45,4.0,0.0
5949,74.0,45,45,4.0,0.0
5950,38.0,0,0,10.0,0.0
5951,78.0,0,140,0.0,0.0
5952,50.0,45,180,8.0,0.0
5953,60.0,0,140,6.0,0.0
5954,57.0,40,140,7.0,0.0
5955,66.0,0,140,5.0,0.0
5956,69.0,45,45,4.0,0.0
5957,50.0,0,180,4.0,0.0
5958,72.0,45,45,4.0,0.0
5959,78.0,5,45,4.0,0.0
5960,72.0,0,45,4.0,0.0
5961,55.0,0,2882,3.0,0.0
5962,67.0,0,2882,3.0,0.0
5963,58.0,0,179,6.0,0.0
5964,79.0,0,2882,0.0,0.0
5965,55.0,3,179,7.0,0.0
5966,70.0,0,179,1.0,0.0
5967,58.0,0,179,2.0,0.0
5968,67.0,0,179,5.0,0.0
5969,43.0,45,45,4.0,0.0
5970,67.0,0,45,4.0,0.0
5971,43.0,0,177,10.0,0.0
5972,55.0,45,180,8.0,0.0
5973,55.0,0,45,4.0,0.0
5974,70.0,45,45,4.0,0.0
5975,74.0,0,45,4.0,0.0
5976,54.0,42,45,4.0,0.0
5977,55.0,0,45,4.0,0.0
5978,79.0,0,45,4.0,0.0
5979,41.0,0,183,10.0,0.0
5980,71.0,0,183,1.0,0.0
5981,59.0,0,183,2.0,0.0
5982,67.0,0,45,4.0,0.0
5983,41.0,45,45,4.0,0.0
5984,53.0,0,180,8.0,0.0
5985,79.0,0,45,4.0,0.0
5986,53.0,45,45,4.0,0.0
5987,67.0,0,45,4.0,0.0
5988,52.0,45,45,4.0,0.0
5989,79.0,0,45,4.0,0.0
5990,53.0,45,45,4.0,0.0
5991,52.0,0,180,8.0,0.0
5992,40.0,0,184,10.0,0.0
5993,67.0,45,45,4.0,0.0
5994,40.0,0,45,4.0,0.0
5995,72.0,41,184,1.0,0.0
5996,60.0,0,184,2.0,0.0
5997,79.0,45,45,4.0,0.0
5998,52.0,0,45,4.0,0.0
5999,67.0,0,45,4.0,0.0
6000,50.0,45,45,4.0,0.0
6001,52.0,0,45,4.0,0.0
6002,79.0,4,45,4.0,0.0
6003,51.0,0,180,8.0,0.0
6004,67.0,45,45,4.0,0.0
6005,39.0,0,45,4.0,0.0
6006,61.0,31,145,2.0,0.0
6007,39.0,45,176,10.0,0.0
6008,73.0,0,145,1.0,0.0
6009,79.0,45,45,4.0,0.0
6010,51.0,0,45,4.0,0.0
6011,67.0,14,45,4.0,0.0
6012,50.0,0,45,4.0,0.0
6013,51.0,0,45,4.0,0.0
6014,79.0,0,45,4.0,0.0
6015,67.0,45,45,4.0,0.0
6016,35.0,0,180,4.0,0.0
6017,47.0,0,360,8.0,0.0
6018,47.0,0,180,4.0,0.0
6019,35.0,0,360,10.0,0.0
6020,62.0,0,177,2.0,0.0
6021,79.0,45,45,4.0,0.0
6022,67.0,45,45,4.0,0.0
6023,79.0,1,45,4.0,0.0
6024,67.0,45,45,4.0,0.0
6025,62.0,0,360,2.0,0.0
6026,65.0,44,360,2.0,0.0
6027,77.0,0,360,1.0,0.0
6028,74.0,44,0,1.0,0.0
6029,65.0,0,183,15.0,0.0
6030,62.0,0,183,15.0,0.0
6031,74.0,0,183,14.0,0.0
6032,77.0,41,183,14.0,0.0
6033,79.0,45,45,4.0,0.0
6034,67.0,45,45,4.0,0.0
6035,79.0,4,45,4.0,0.0
6036,48.0,2,324,8.0,0.0
6037,67.0,45,45,4.0,0.0
6038,36.0,1,180,4.0,0.0
6039,48.0,0,180,4.0,0.0
6040,36.0,0,322,10.0,0.0
6041,79.0,45,45,4.0,0.0
6042,67.0,45,45,4.0,0.0
6043,79.0,0,45,4.0,0.0
6044,67.0,45,45,4.0,0.0
6045,76.0,34,145,1.0,0.0
6046,72.0,0,145,1.0,0.0
6047,64.0,0,145,2.0,0.0
6048,60.0,0,145,2.0,0.0
6049,79.0,45,45,4.0,0.0
6050,67.0,9,45,4.0,0.0
6051,79.0,45,45,4.0,0.0
6052,48.0,45,180,4.0,0.0
6053,48.0,2,360,8.0,0.0
6054,67.0,45,45,4.0,0.0
6055,36.0,0,180,4.0,0.0
6056,36.0,0,360,10.0,0.0
6057,79.0,45,45,4.0,0.0
6058,67.0,45,45,4.0,0.0
6059,79.0,0,45,4.0,0.0
6060,60.0,0,362,2.0,0.0
6061,75.0,0,362,1.0,0.0
6062,60.0,0,182,15.0,0.0
6063,72.0,0,182,14.0,0.0
6064,75.0,43,182,14.0,0.0
6065,72.0,0,362,1.0,0.0
6066,63.0,0,182,15.0,0.0
6067,63.0,43,362,2.0,0.0
6068,67.0,45,45,4.0,0.0
6069,79.0,45,45,4.0,0.0
6070,67.0,45,45,4.0,0.0
6071,79.0,0,45,4.0,0.0
6072,43.0,0,180,4.0,0.0
6073,67.0,45,45,4.0,0.0
6074,43.0,3,324,8.0,0.0
6075,55.0,2,180,4.0,0.0
6076,31.0,0,325,10.0,0.0
6077,79.0,45,45,4.0,0.0
6078,67.0,45,45,4.0,0.0
6079,79.0,0,45,4.0,0.0
6080,67.0,45,45,4.0,0.0
6081,71.0,33,145,1.0,0.0
6082,59.0,0,145,2.0,0.0
6083,62.0,0,145,2.0,0.0
6084,74.0,0,145,1.0,0.0
6085,79.0,45,45,4.0,0.0
6086,67.0,9,45,4.0,0.0
6087,79.0,45,45,4.0,0.0
6088,43.0,4,360,8.0,0.0
6089,67.0,45,45,4.0,0.0
6090,43.0,45,180,4.0,0.0
6091,55.0,0,180,4.0,0.0
6092,31.0,0,360,10.0,0.0
6093,79.0,45,45,4.0,0.0
6094,67.0,45,45,4.0,0.0
6095,79.0,0,45,4.0,0.0
6096,74.0,0,364,1.0,0.0
6097,62.0,0,184,15.0,0.0
6098,70.0,41,364,1.0,0.0
6099,58.0,0,184,15.0,0.0
6100,70.0,0,184,14.0,0.0
6101,62.0,0,364,2.0,0.0
6102,58.0,0,364,2.0,0.0
6103,67.0,45,45,4.0,0.0
6104,74.0,41,184,14.0,0.0
6105,79.0,45,45,4.0,0.0
6106,67.0,45,45,4.0,0.0
6107,79.0,0,45,4.0,0.0
6108,45.0,5,324,8.0,0.0
6109,57.0,4,180,4.0,0.0
6110,45.0,0,180,4.0,0.0
6111,67.0,45,45,4.0,0.0
6112,33.0,0,325,10.0,0.0
6113,79.0,45,45,4.0,0.0
6114,67.0,45,45,4.0,0.0
6115,79.0,0,45,4.0,0.0
6116,67.0,45,45,4.0,0.0
6117,55.0,45,176,7.0,0.0
6118,61.0,0,176,6.0,0.0
6119,73.0,0,145,1.0,0.0
6120,61.0,0,145,2.0,0.0
6121,57.0,0,145,2.0,0.0
6122,67.0,0,176,5.0,0.0
6123,69.0,31,145,1.0,0.0
6124,79.0,45,45,4.0,0.0
6125,67.0,9,45,4.0,0.0
6126,79.0,0,45,4.0,0.0
6127,78.0,1,179,0.0,0.0
6128,50.0,0,180,8.0,0.0
6129,62.0,45,180,4.0,0.0
6130,50.0,0,180,4.0,0.0
6131,69.0,45,45,4.0,0.0
6132,72.0,21,157,1.0,0.0
6133,57.0,0,1079,7.0,0.0
6134,60.0,0,1079,6.0,0.0
6135,60.0,0,1079,2.0,0.0
6136,38.0,0,179,10.0,0.0
6137,66.0,0,179,5.0,0.0
6138,62.0,0,157,3.0,0.0
6139,50.0,0,157,3.0,0.0
6140,69.0,0,157,1.0,0.0
6141,57.0,0,1079,2.0,0.0
6142,72.0,45,45,4.0,0.0
6143,78.0,23,45,4.0,0.0
6144,72.0,0,45,4.0,0.0
6145,79.0,1,180,0.0,0.0
6146,39.0,0,180,10.0,0.0
6147,51.0,0,180,8.0,0.0
6148,67.0,0,180,5.0,0.0
6149,63.0,45,180,4.0,0.0
6150,51.0,0,180,4.0,0.0
6151,69.0,45,45,4.0,0.0
6152,69.0,0,157,1.0,0.0
6153,72.0,0,157,1.0,0.0
6154,55.0,22,157,3.0,0.0
6155,72.0,45,45,4.0,0.0
6156,79.0,22,45,4.0,0.0
6157,72.0,0,45,4.0,0.0
6158,78.0,1,180,0.0,0.0
6159,50.0,0,180,4.0,0.0
6160,69.0,45,45,4.0,0.0
6161,50.0,0,180,8.0,0.0
6162,50.0,0,157,3.0,0.0
6163,62.0,0,157,3.0,0.0
6164,38.0,0,180,10.0,0.0
6165,66.0,45,180,5.0,0.0
6166,69.0,22,157,1.0,0.0
6167,72.0,0,157,1.0,0.0
6168,62.0,0,180,4.0,0.0
6169,72.0,45,45,4.0,0.0
6170,78.0,22,45,4.0,0.0
6171,72.0,0,45,4.0,0.0
6172,79.0,1,180,0.0,0.0
6173,69.0,0,157,1.0,0.0
6174,39.0,0,180,10.0,0.0
6175,69.0,45,45,4.0,0.0
6176,51.0,0,180,8.0,0.0
6177,72.0,0,157,1.0,0.0
6178,67.0,0,180,5.0,0.0
6179,63.0,0,180,4.0,0.0
6180,51.0,324,180,4.0,0.0
6181,55.0,22,157,3.0,0.0
6182,72.0,45,45,4.0,0.0
6183,79.0,22,45,4.0,0.0
6184,78.0,36,324,0.0,0.0
6185,50.0,0,360,8.0,0.0
6186,72.0,0,360,1.0,0.0
6187,62.0,0,360,4.0,0.0
6188,50.0,0,360,4.0,0.0
6189,69.0,0,360,1.0,0.0
6190,78.0,0,360,4.0,0.0
6191,38.0,0,360,10.0,0.0
6192,69.0,0,360,4.0,0.0
6193,50.0,0,360,3.0,0.0
6194,66.0,0,360,5.0,0.0
6195,72.0,0,0,4.0,0.0
6196,62.0,144,360,3.0,0.0
6197,73.0,180,720,1.0,0.0
6198,73.0,576,144,14.0,0.0
6199,74.0,0,720,1.0,0.0
6200,74.0,0,180,14.0,0.0
6201,62.0,540,180,15.0,0.0
6202,62.0,144,720,2.0,0.0
6203,62.0,0,3960,3.0,0.0
6204,54.0,0,720,7.0,0.0
6205,60.0,360,720,6.0,0.0
6206,50.0,0,720,8.0,0.0
6207,50.0,0,3960,3.0,0.0
6208,38.0,0,720,10.0,0.0
6209,87.0,180,180,13.0,0.0
6210,75.0,0,720,1.0,0.0
6211,63.0,36,144,15.0,0.0
6212,63.0,0,720,2.0,0.0
6213,75.0,0,180,14.0,0.0
6214,87.0,70,720,0.0,0.0
6215,38.0,0,3240,11.0,0.0
6216,66.0,180,720,11.0,0.0
6217,72.0,0,720,6.0,0.0
6218,62.0,0,360,5.0,0.0
6219,62.0,0,70,2.0,0.0
6220,74.0,74,70,1.0,0.0
6221,86.0,124,144,0.0,0.0
6222,62.0,92,88,2.0,0.0
6223,86.0,0,88,0.0,0.0
6224,74.0,0,88,1.0,0.0
6225,74.0,0,720,5.0,0.0
6226,67.0,180,1080,11.0,0.0
6227,62.0,71,180,2.0,0.0
6228,71.0,180,360,6.0,0.0
6229,74.0,0,180,1.0,0.0
6230,86.0,0,180,0.0,0.0
6231,71.0,109,71,1.0,0.0
6232,59.0,0,71,2.0,0.0
6233,83.0,0,71,0.0,0.0
6234,62.0,0,180,2.0,0.0
6235,86.0,0,180,0.0,0.0
6236,70.0,36,324,6.0,0.0
6237,74.0,144,0,1.0,0.0
6238,86.0,0,180,0.0,0.0
6239,74.0,0,180,14.0,0.0
6240,69.0,0,720,6.0,0.0
6241,86.0,0,180,0.0,0.0
6242,62.0,71,180,15.0,0.0
6243,62.0,0,0,2.0,0.0
6244,73.0,0,360,5.0,0.0
6245,74.0,0,180,1.0,0.0
6246,86.0,0,180,13.0,0.0
6247,69.0,109,71,14.0,0.0
6248,69.0,0,71,1.0,0.0
6249,81.0,0,71,13.0,0.0
6250,81.0,0,71,0.0,0.0
6251,57.0,0,71,2.0,0.0
6252,57.0,0,71,15.0,0.0
6253,66.0,0,360,11.0,0.0
6254,62.0,0,180,2.0,0.0
6255,72.0,0,360,5.0,0.0
6256,62.0,0,0,15.0,0.0
6257,86.0,0,0,0.0,0.0
6258,74.0,0,0,1.0,0.0
6259,86.0,180,0,13.0,0.0
6260,74.0,0,0,14.0,0.0
6261,67.0,0,360,11.0,0.0
6262,62.0,0,360,6.0,0.0
6263,71.0,0,360,5.0,0.0
6264,86.0,0,360,0.0,0.0
6265,62.0,0,0,2.0,0.0
6266,74.0,0,0,1.0,0.0
6267,61.0,0,270,2.0,0.0
6268,70.0,0,324,5.0,0.0
6269,85.0,0,270,0.0,0.0
6270,64.0,17,324,11.0,0.0
6271,67.0,0,324,6.0,0.0
6272,73.0,54,270,1.0,0.0
6273,62.0,0,71,2.0,0.0
6274,86.0,0,71,0.0,0.0
6275,74.0,379,71,1.0,0.0
6276,62.0,178,360,2.0,0.0
6277,57.0,0,360,11.0,0.0
6278,74.0,0,360,1.0,0.0
6279,69.0,0,360,5.0,0.0
6280,86.0,0,360,0.0,0.0
6281,66.0,0,360,6.0,0.0
6282,87.0,0,0,4.0,0.0
6283,75.0,182,0,4.0,0.0
6284,75.0,72,178,4.0,0.0
6285,87.0,0,178,4.0,0.0
6286,57.0,0,360,4.0,0.0
6287,48.0,0,360,4.0,0.0
6288,50.0,0,360,4.0,0.0
6289,54.0,180,360,4.0,0.0
6290,81.0,0,72,4.0,0.0
6291,69.0,110,72,4.0,0.0
6292,72.0,180,180,4.0,0.0
6293,84.0,0,180,4.0,0.0
6294,84.0,0,180,4.0,0.0
6295,57.0,0,360,4.0,0.0
6296,72.0,180,0,4.0,0.0
6297,84.0,0,180,4.0,0.0
6298,48.0,0,360,4.0,0.0
6299,54.0,180,360,4.0,0.0
6300,50.0,0,360,4.0,0.0
6301,66.0,0,90,4.0,0.0
6302,78.0,90,90,4.0,0.0
6303,74.0,0,180,4.0,0.0
6304,86.0,180,0,4.0,0.0
6305,74.0,0,180,4.0,0.0
6306,62.0,0,360,4.0,0.0
6307,86.0,180,0,4.0,0.0
6308,58.0,185,360,4.0,0.0
6309,79.0,0,180,4.0,0.0
6310,67.0,23,185,4.0,0.0
6311,62.0,0,360,4.0,0.0
6312,82.0,0,185,4.0,0.0
6313,81.0,22,23,4.0,0.0
6314,66.0,0,175,4.0,0.0
6315,82.0,23,22,4.0,0.0
6316,81.0,22,23,4.0,0.0
6317,82.0,45,22,4.0,0.0
6318,79.0,40,45,4.0,0.0
6319,81.0,97,40,4.0,0.0
6320,67.0,0,1793,3.0,0.0
6321,55.0,7,1793,3.0,0.0
6322,55.0,0,720,8.0,0.0
6323,79.0,0,180,4.0,0.0
6324,55.0,0,180,4.0,0.0
6325,67.0,0,180,4.0,0.0
6326,55.0,90,2153,7.0,0.0
6327,55.0,90,90,6.0,0.0
6328,59.0,0,90,5.0,0.0
6329,43.0,90,713,10.0,0.0
6330,62.0,83,90,5.0,0.0
6331,59.0,0,90,6.0,0.0
6332,62.0,90,83,6.0,0.0
6333,67.0,0,83,5.0,0.0
6334,59.0,0,90,6.0,0.0
6335,62.0,90,90,5.0,0.0
6336,67.0,23,157,2.0,0.0
6337,59.0,67,90,5.0,0.0
6338,55.0,0,90,6.0,0.0
6339,79.0,0,157,1.0,0.0
6340,59.0,0,90,6.0,0.0
6341,62.0,90,90,5.0,0.0
6342,62.0,0,90,6.0,0.0
6343,79.0,0,157,1.0,0.0
6344,67.0,4,157,2.0,0.0
6345,67.0,67,90,5.0,0.0
6346,62.0,19,71,5.0,0.0
6347,59.0,0,90,6.0,0.0
6348,62.0,0,90,5.0,0.0
6349,67.0,0,180,2.0,0.0
6350,47.0,0,720,8.0,0.0
6351,79.0,0,180,1.0,0.0
6352,35.0,0,720,10.0,0.0
6353,55.0,90,90,6.0,0.0
6354,65.0,0,90,5.0,0.0
6355,62.0,71,90,6.0,0.0
6356,62.0,0,71,2.0,0.0
6357,74.0,19,71,1.0,0.0
6358,67.0,0,90,5.0,0.0
6359,65.0,90,90,6.0,0.0
6360,65.0,0,90,5.0,0.0
6361,62.0,90,90,6.0,0.0
6362,67.0,0,157,2.0,0.0
6363,79.0,23,157,1.0,0.0
6364,55.0,67,90,6.0,0.0
6365,62.0,0,90,5.0,0.0
6366,65.0,0,90,5.0,0.0
6367,62.0,90,90,6.0,0.0
6368,65.0,0,90,6.0,0.0
6369,79.0,4,157,1.0,0.0
6370,67.0,0,157,2.0,0.0
6371,67.0,67,90,5.0,0.0
6372,65.0,19,71,5.0,0.0
6373,62.0,90,90,6.0,0.0
6374,48.0,0,900,8.0,0.0
6375,36.0,0,900,10.0,0.0
6376,67.0,0,180,2.0,0.0
6377,60.0,0,90,5.0,0.0
6378,55.0,90,90,6.0,0.0
6379,79.0,71,180,1.0,0.0
6380,63.0,0,90,5.0,0.0
6381,60.0,0,90,6.0,0.0
6382,63.0,19,71,2.0,0.0
6383,63.0,83,90,6.0,0.0
6384,67.0,0,90,5.0,0.0
6385,75.0,0,71,1.0,0.0
6386,60.0,0,90,6.0,0.0
6387,63.0,88,90,5.0,0.0
6388,69.0,0,90,5.0,0.0
6389,63.0,90,90,6.0,0.0
6390,81.0,2,88,4.0,0.0
6391,67.0,88,90,5.0,0.0
6392,60.0,0,90,6.0,0.0
6393,63.0,0,90,6.0,0.0
6394,69.0,90,90,5.0,0.0
6395,81.0,2,88,4.0,0.0
6396,67.0,0,90,5.0,0.0
6397,60.0,0,90,6.0,0.0
6398,57.0,0,180,6.0,0.0
6399,66.0,54,90,5.0,0.0
6400,81.0,0,180,4.0,0.0
6401,60.0,0,360,4.0,0.0
6402,63.0,0,360,4.0,0.0
6403,66.0,0,360,4.0,0.0
6404,69.0,88,360,4.0,0.0
6405,51.0,36,144,7.0,0.0
6406,69.0,90,90,5.0,0.0
6407,72.0,0,90,5.0,0.0
6408,78.0,90,90,4.0,0.0
6409,69.0,0,90,5.0,0.0
6410,70.0,90,90,5.0,0.0
6411,61.0,0,180,2.0,0.0
6412,82.0,0,88,1.0,0.0
6413,67.0,2,88,1.0,0.0
6414,64.0,0,180,2.0,0.0
6415,67.0,88,90,5.0,0.0
6416,61.0,90,180,2.0,0.0
6417,82.0,2,88,1.0,0.0
6418,76.0,90,90,5.0,0.0
6419,67.0,0,88,1.0,0.0
6420,64.0,0,180,2.0,0.0
6421,70.0,0,90,5.0,0.0
6422,82.0,0,180,1.0,0.0
6423,64.0,71,180,2.0,0.0
6424,61.0,0,180,2.0,0.0
6425,79.0,90,90,5.0,0.0
6426,67.0,0,180,1.0,0.0
6427,78.0,0,90,5.0,0.0
6428,79.0,19,71,1.0,0.0
6429,79.0,90,90,5.0,0.0
6430,81.0,88,90,5.0,0.0
6431,67.0,0,88,1.0,0.0
6432,70.0,0,88,1.0,0.0
6433,85.0,0,88,0.0,0.0
6434,82.0,91,90,5.0,0.0
6435,63.0,2,88,2.0,0.0
6436,78.0,89,91,5.0,0.0
6437,85.0,1,89,0.0,0.0
6438,79.0,72,90,5.0,0.0
6439,67.0,0,89,1.0,0.0
6440,70.0,0,89,1.0,0.0
6441,63.0,0,89,2.0,0.0
6442,81.0,108,72,5.0,0.0
6443,85.0,90,179,0.0,0.0
6444,63.0,0,179,2.0,0.0
6445,70.0,0,179,1.0,0.0
6446,67.0,0,179,1.0,0.0
6447,82.0,89,90,5.0,0.0
6448,66.0,0,89,6.0,0.0
6449,78.0,0,89,5.0,0.0
6450,67.0,0,90,6.0,0.0
6451,79.0,90,90,5.0,0.0
6452,69.0,90,90,6.0,0.0
6453,81.0,0,90,5.0,0.0
6454,82.0,90,90,5.0,0.0
6455,86.0,0,180,4.0,0.0
6456,70.0,0,90,6.0,0.0
6457,78.0,90,90,5.0,0.0
6458,66.0,0,90,6.0,0.0
6459,86.0,0,180,4.0,0.0
6460,67.0,0,90,6.0,0.0
6461,79.0,90,90,5.0,0.0
6462,69.0,0,90,6.0,0.0
6463,81.0,90,90,5.0,0.0
6464,58.0,0,180,4.0,0.0
6465,55.0,0,180,4.0,0.0
6466,62.0,0,1440,3.0,0.0
6467,70.0,0,90,6.0,0.0
6468,86.0,0,180,4.0,0.0
6469,50.0,0,180,4.0,0.0
6470,50.0,0,1440,3.0,0.0
6471,82.0,90,90,5.0,0.0
6472,61.0,0,90,6.0,0.0
6473,73.0,71,90,5.0,0.0
6474,62.0,0,90,6.0,0.0
6475,79.0,19,71,4.0,0.0
6476,74.0,90,90,5.0,0.0
6477,73.0,0,90,5.0,0.0
6478,61.0,90,90,6.0,0.0
6479,58.0,0,172,4.0,0.0
6480,74.0,82,90,5.0,0.0
6481,55.0,0,172,4.0,0.0
6482,50.0,0,172,4.0,0.0
6483,82.0,72,172,4.0,0.0
6484,62.0,0,90,6.0,0.0
6485,69.0,0,82,5.0,0.0
6486,57.0,0,82,6.0,0.0
6487,58.0,103,85,6.0,0.0
6488,74.0,13,72,4.0,0.0
6489,70.0,0,85,5.0,0.0
6490,69.0,0,103,5.0,0.0
6491,57.0,84,103,6.0,0.0
6492,55.0,78,549,7.0,0.0
6493,55.0,78,369,4.0,0.0
6494,50.0,53,664,4.0,0.0
6495,38.0,0,729,10.0,0.0
6496,79.0,0,93,4.0,0.0
6497,58.0,0,369,4.0,0.0
6498,50.0,0,720,8.0,0.0
6499,58.0,24,504,6.0,0.0
6500,70.0,90,84,5.0,0.0
6501,67.0,0,90,5.0,0.0
6502,70.0,79,90,4.0,0.0
6503,74.0,0,366,4.0,0.0
6504,62.0,90,79,5.0,0.0
6505,62.0,17,79,5.0,0.0
6506,62.0,0,180,4.0,0.0
6507,62.0,66,78,5.0,0.0
6508,58.0,0,180,4.0,0.0
6509,62.0,12,78,5.0,0.0
6510,57.0,0,115,4.0,0.0
6511,66.0,0,180,4.0,0.0
6512,60.0,0,115,4.0,0.0
6513,62.0,37,78,5.0,0.0
6514,57.0,0,180,6.0,0.0
6515,54.0,78,180,7.0,0.0
6516,62.0,12,78,5.0,0.0
6517,58.0,90,78,6.0,0.0
6518,43.0,0,180,10.0,0.0
6519,55.0,0,78,7.0,0.0
6520,55.0,0,360,3.0,0.0
6521,62.0,0,78,5.0,0.0
6522,55.0,78,180,8.0,0.0
6523,58.0,0,360,4.0,0.0
6524,67.0,0,360,4.0,0.0
6525,55.0,0,360,4.0,0.0
6526,62.0,0,78,5.0,0.0
6527,58.0,12,78,6.0,0.0
6528,55.0,0,78,7.0,0.0
6529,50.0,78,180,8.0,0.0
6530,55.0,0,78,7.0,0.0
6531,58.0,90,78,6.0,0.0
6532,62.0,0,78,5.0,0.0
6533,38.0,0,180,10.0,0.0
6534,55.0,0,78,7.0,0.0
6535,58.0,12,78,6.0,0.0
6536,62.0,0,78,5.0,0.0
6537,58.0,0,78,6.0,0.0
6538,50.0,0,88,2.0,0.0
6539,62.0,0,78,5.0,0.0
6540,62.0,80,88,1.0,0.0
6541,43.0,0,180,10.0,0.0
6542,55.0,10,78,7.0,0.0
6543,55.0,78,180,8.0,0.0
6544,55.0,12,78,7.0,0.0
6545,58.0,0,78,6.0,0.0
6546,62.0,0,78,5.0,0.0
6547,58.0,10,78,6.0,0.0
6548,38.0,78,180,10.0,0.0
6549,50.0,0,180,8.0,0.0
6550,55.0,0,78,7.0,0.0
6551,62.0,0,88,1.0,0.0
6552,62.0,0,78,5.0,0.0
6553,50.0,80,88,2.0,0.0
6554,62.0,12,78,5.0,0.0
6555,58.0,0,78,6.0,0.0
6556,55.0,0,78,7.0,0.0
6557,63.0,71,180,1.0,0.0
6558,60.0,90,78,5.0,0.0
6559,54.0,0,78,7.0,0.0
6560,57.0,0,78,6.0,0.0
6561,42.0,0,180,10.0,0.0
6562,51.0,0,180,2.0,0.0
6563,54.0,0,180,8.0,0.0
6564,57.0,12,78,6.0,0.0
6565,60.0,0,78,5.0,0.0
6566,54.0,0,78,7.0,0.0
6567,57.0,0,78,6.0,0.0
6568,38.0,78,180,10.0,0.0
6569,62.0,7,71,1.0,0.0
6570,50.0,0,180,8.0,0.0
6571,60.0,90,78,5.0,0.0
6572,50.0,0,71,2.0,0.0
6573,54.0,0,78,7.0,0.0
6574,57.0,0,78,6.0,0.0
6575,54.0,0,78,7.0,0.0
6576,60.0,12,78,5.0,0.0
6577,57.0,0,78,6.0,0.0
6578,54.0,0,180,8.0,0.0
6579,60.0,0,78,5.0,0.0
6580,54.0,90,78,7.0,0.0
6581,66.0,0,180,4.0,0.0
6582,62.0,0,180,4.0,0.0
6583,86.0,0,180,4.0,0.0
6584,42.0,0,180,10.0,0.0
6585,60.0,0,78,5.0,0.0
6586,57.0,12,78,6.0,0.0
6587,54.0,0,78,7.0,0.0
6588,69.0,78,0,4.0,0.0
6589,57.0,90,78,6.0,0.0
6590,60.0,0,78,5.0,0.0
6591,50.0,0,180,8.0,0.0
6592,62.0,0,180,4.0,0.0
6593,62.0,0,0,3.0,0.0
6594,66.0,0,180,4.0,0.0
6595,38.0,0,180,10.0,0.0
6596,54.0,0,78,7.0,0.0
6597,86.0,0,180,4.0,0.0
6598,60.0,12,78,5.0,0.0
6599,57.0,0,78,6.0,0.0
6600,54.0,0,78,7.0,0.0
6601,55.0,0,180,8.0,0.0
6602,70.0,0,360,4.0,0.0
6603,67.0,0,360,4.0,0.0
6604,82.0,0,360,4.0,0.0
6605,55.0,12,78,7.0,0.0
6606,58.0,0,90,5.0,0.0
6607,55.0,0,180,3.0,0.0
6608,62.0,78,0,3.0,0.0
6609,43.0,43,180,10.0,0.0
6610,55.0,71,90,6.0,0.0
6611,58.0,0,71,6.0,0.0
6612,62.0,7,71,5.0,0.0
6613,55.0,12,78,7.0,0.0
6614,58.0,0,43,6.0,0.0
6615,55.0,55,78,7.0,0.0
6616,62.0,35,43,5.0,0.0
6617,38.0,0,180,10.0,0.0
6618,50.0,78,180,8.0,0.0
6619,62.0,35,43,5.0,0.0
6620,58.0,0,43,6.0,0.0
6621,55.0,12,78,7.0,0.0
6622,74.0,80,88,0.0,0.0
6623,62.0,0,88,1.0,0.0
6624,43.0,0,180,10.0,0.0
6625,58.0,0,78,6.0,0.0
6626,55.0,78,180,8.0,0.0
6627,62.0,10,78,5.0,0.0
6628,55.0,0,78,7.0,0.0
6629,58.0,0,78,6.0,0.0
6630,62.0,12,78,5.0,0.0
6631,55.0,0,78,7.0,0.0
6632,55.0,10,78,7.0,0.0
6633,62.0,80,88,1.0,0.0
6634,74.0,0,88,0.0,0.0
6635,38.0,78,180,10.0,0.0
6636,50.0,0,180,8.0,0.0
6637,62.0,0,78,5.0,0.0
6638,58.0,0,78,6.0,0.0
6639,55.0,0,78,7.0,0.0
6640,62.0,12,78,5.0,0.0
6641,58.0,0,78,6.0,0.0
6642,54.0,0,78,7.0,0.0
6643,54.0,0,180,8.0,0.0
6644,57.0,0,78,6.0,0.0
6645,63.0,71,180,1.0,0.0
6646,60.0,57,78,5.0,0.0
6647,75.0,33,135,0.0,0.0
6648,42.0,0,180,10.0,0.0
6649,54.0,0,78,7.0,0.0
6650,57.0,0,78,6.0,0.0
6651,60.0,12,78,5.0,0.0
6652,38.0,78,180,10.0,0.0
6653,57.0,12,78,6.0,0.0
6654,54.0,0,78,7.0,0.0
6655,50.0,0,180,8.0,0.0
6656,74.0,78,90,0.0,0.0
6657,60.0,0,78,5.0,0.0
6658,62.0,7,71,1.0,0.0
6659,60.0,0,78,5.0,0.0
6660,54.0,12,78,7.0,0.0
6661,57.0,0,78,6.0,0.0
6662,86.0,0,180,4.0,0.0
6663,54.0,0,180,8.0,0.0
6664,66.0,0,180,4.0,0.0
6665,69.0,78,180,4.0,0.0
6666,72.0,0,180,4.0,0.0
6667,54.0,90,78,7.0,0.0
6668,42.0,0,180,10.0,0.0
6669,60.0,0,78,5.0,0.0
6670,57.0,0,78,6.0,0.0
6671,54.0,0,78,7.0,0.0
6672,57.0,0,78,6.0,0.0
6673,60.0,12,78,5.0,0.0
6674,62.0,0,0,4.0,0.0
6675,62.0,0,0,3.0,0.0
6676,50.0,0,180,8.0,0.0
6677,72.0,0,180,4.0,0.0
6678,69.0,180,180,4.0,0.0
6679,66.0,0,180,4.0,0.0
6680,54.0,0,78,7.0,0.0
6681,60.0,0,78,5.0,0.0
6682,86.0,0,180,4.0,0.0
6683,38.0,0,180,10.0,0.0
6684,57.0,90,78,6.0,0.0
6685,57.0,12,78,6.0,0.0
6686,54.0,0,78,7.0,0.0
6687,60.0,0,78,5.0,0.0
6688,55.0,0,180,7.0,0.0
6689,62.0,0,0,3.0,0.0
6690,55.0,0,180,3.0,0.0
6691,58.0,0,180,5.0,0.0
6692,55.0,0,180,8.0,0.0
6693,43.0,0,180,10.0,0.0
6694,55.0,0,180,6.0,0.0
6695,70.0,0,180,4.0,0.0
6696,67.0,0,180,4.0,0.0
6697,79.0,0,180,4.0,0.0
6698,79.0,0,180,0.0,0.0
6699,70.0,0,180,1.0,0.0
6700,58.0,0,180,2.0,0.0
6701,67.0,0,180,1.0,0.0
6702,55.0,180,0,2.0,0.0
6703,50.0,0,180,2.0,0.0
6704,74.0,0,180,4.0,0.0
6705,82.0,0,180,4.0,0.0
6706,55.0,0,180,4.0,0.0
6707,31.0,156,180,10.0,0.0
6708,67.0,0,180,4.0,0.0
6709,43.0,0,180,8.0,0.0
6710,70.0,0,180,1.0,0.0
6711,55.0,0,180,6.0,0.0
6712,50.0,0,180,7.0,0.0
6713,74.0,0,180,1.0,0.0
6714,55.0,0,180,3.0,0.0
6715,82.0,0,180,0.0,0.0
6716,58.0,0,180,5.0,0.0
6717,50.0,180,180,2.0,0.0
6718,55.0,0,180,3.0,0.0
6719,62.0,0,0,3.0,0.0
6720,86.0,24,156,0.0,0.0
6721,79.0,0,156,1.0,0.0
6722,74.0,0,156,1.0,0.0
6723,46.0,0,180,2.0,0.0
6724,50.0,0,180,7.0,0.0
6725,55.0,0,180,6.0,0.0
6726,70.0,0,180,4.0,0.0
6727,43.0,0,180,2.0,0.0
6728,79.0,0,180,4.0,0.0
6729,58.0,0,180,5.0,0.0
6730,55.0,0,180,3.0,0.0
6731,62.0,1981,180,3.0,0.0
6732,46.0,0,180,2.0,0.0
6733,79.0,0,180,1.0,0.0
6734,43.0,0,180,8.0,0.0
6735,31.0,0,180,10.0,0.0
6736,91.0,0,180,0.0,0.0
6737,67.0,0,180,4.0,0.0
6738,55.0,0,180,4.0,0.0
6739,82.0,0,180,1.0,0.0
