,note,step,duration,channel,velocity
0,38.0,0,415,5.0,75.0
1,45.0,0,415,4.0,75.0
2,66.0,0,415,2.0,75.0
3,74.0,0,420,1.0,75.0
4,69.0,0,420,2.0,75.0
5,50.0,0,420,4.0,75.0
6,79.0,0,120,1.0,68.0
7,78.0,120,120,1.0,67.0
8,76.0,120,120,1.0,66.0
9,78.0,120,95,1.0,65.0
10,62.0,960,480,5.0,68.0
11,66.0,0,480,4.0,68.0
12,81.0,0,120,1.0,64.0
13,79.0,120,120,1.0,63.0
14,78.0,120,120,1.0,62.0
15,79.0,120,95,1.0,61.0
16,64.0,0,480,5.0,64.0
17,67.0,120,480,4.0,64.0
18,69.0,0,415,4.0,61.0
19,66.0,0,415,5.0,61.0
20,81.0,120,420,1.0,61.0
21,81.0,960,155,1.0,46.0
22,83.0,240,155,1.0,48.0
23,85.0,240,155,1.0,50.0
24,86.0,240,155,1.0,52.0
25,54.0,0,480,5.0,56.0
26,62.0,240,240,4.0,54.0
27,81.0,240,480,1.0,56.0
28,78.0,0,425,1.0,52.0
29,62.0,240,240,4.0,51.0
30,50.0,240,480,5.0,52.0
31,81.0,0,120,1.0,49.0
32,79.0,120,120,1.0,48.0
33,78.0,0,120,1.0,47.0
34,52.0,240,480,5.0,49.0
35,62.0,120,240,4.0,47.0
36,79.0,120,120,1.0,46.0
37,81.0,120,120,1.0,45.0
38,79.0,240,120,1.0,44.0
39,61.0,0,190,4.0,44.0
40,57.0,0,442,5.0,46.0
41,77.0,0,255,1.0,47.0
42,50.0,240,415,5.0,45.0
43,62.0,0,425,4.0,45.0
44,78.0,240,190,1.0,40.0
45,79.0,0,120,1.0,67.0
46,78.0,120,120,1.0,65.0
47,76.0,120,120,1.0,64.0
48,78.0,120,95,1.0,63.0
49,62.0,720,480,5.0,67.0
50,66.0,0,480,4.0,67.0
51,81.0,0,120,1.0,62.0
52,79.0,120,120,1.0,60.0
53,78.0,120,120,1.0,59.0
54,79.0,120,95,1.0,58.0
55,67.0,0,480,4.0,62.0
56,64.0,120,480,5.0,62.0
57,81.0,0,420,1.0,56.0
58,69.0,120,420,4.0,56.0
59,66.0,0,425,5.0,56.0
60,81.0,960,155,1.0,40.0
61,83.0,240,155,1.0,41.0
62,85.0,240,155,1.0,43.0
63,86.0,240,155,1.0,45.0
64,54.0,0,480,5.0,49.0
65,81.0,240,480,1.0,49.0
66,62.0,240,240,4.0,47.0
67,78.0,0,425,1.0,46.0
68,50.0,240,480,5.0,46.0
69,62.0,240,240,4.0,45.0
70,81.0,240,120,1.0,44.0
71,79.0,120,120,1.0,43.0
72,78.0,0,120,1.0,43.0
73,79.0,120,95,1.0,42.0
74,62.0,120,240,4.0,43.0
75,52.0,0,480,5.0,44.0
76,81.0,0,120,1.0,42.0
77,79.0,120,120,1.0,41.0
78,78.0,0,120,1.0,41.0
79,61.0,120,190,4.0,41.0
80,57.0,120,435,5.0,42.0
81,76.0,120,95,1.0,40.0
82,62.0,0,155,5.0,40.0
83,74.0,120,190,1.0,40.0
84,66.0,240,155,4.0,40.0
85,62.0,0,155,5.0,40.0
86,69.0,240,190,1.0,40.0
87,66.0,240,155,4.0,41.0
88,78.0,0,80,1.0,38.0
89,62.0,240,155,5.0,41.0
90,79.0,80,80,1.0,38.0
91,78.0,80,80,1.0,38.0
92,79.0,80,80,1.0,39.0
93,66.0,0,155,4.0,42.0
94,78.0,80,80,1.0,39.0
95,79.0,80,80,1.0,39.0
96,78.0,0,80,1.0,40.0
97,62.0,80,155,5.0,42.0
98,79.0,80,80,1.0,40.0
99,78.0,80,80,1.0,40.0
100,76.0,0,120,1.0,41.0
101,66.0,80,155,4.0,43.0
102,74.0,120,120,1.0,41.0
103,64.0,120,155,5.0,43.0
104,73.0,0,190,1.0,43.0
105,67.0,240,155,4.0,44.0
106,64.0,0,155,5.0,44.0
107,69.0,240,190,1.0,44.0
108,67.0,240,155,4.0,45.0
109,64.0,0,120,5.0,44.0
110,76.0,240,190,1.0,45.0
111,66.0,120,120,5.0,44.0
112,67.0,120,120,5.0,45.0
113,66.0,120,120,5.0,45.0
114,64.0,120,120,5.0,46.0
115,62.0,120,120,5.0,47.0
116,61.0,120,120,5.0,47.0
117,59.0,120,95,5.0,48.0
118,57.0,0,155,5.0,49.0
119,76.0,120,190,1.0,47.0
120,61.0,240,155,4.0,48.0
121,57.0,0,155,5.0,48.0
122,69.0,240,190,1.0,48.0
123,61.0,240,155,4.0,49.0
124,79.0,240,80,1.0,44.0
125,57.0,0,155,5.0,49.0
126,81.0,80,80,1.0,44.0
127,79.0,80,80,1.0,45.0
128,81.0,0,80,1.0,45.0
129,61.0,80,155,4.0,50.0
130,79.0,80,80,1.0,46.0
131,81.0,80,80,1.0,46.0
132,79.0,80,80,1.0,47.0
133,55.0,0,155,5.0,50.0
134,81.0,80,80,1.0,47.0
135,79.0,80,80,1.0,48.0
136,78.0,80,120,1.0,48.0
137,61.0,0,155,4.0,51.0
138,76.0,120,95,1.0,49.0
139,54.0,0,155,5.0,51.0
140,74.0,120,190,1.0,51.0
141,62.0,240,155,4.0,52.0
142,54.0,240,155,5.0,52.0
143,69.0,0,190,1.0,52.0
144,62.0,240,155,4.0,53.0
145,54.0,0,120,5.0,50.0
146,78.0,240,190,1.0,53.0
147,50.0,120,120,5.0,51.0
148,52.0,120,120,5.0,52.0
149,54.0,120,120,5.0,53.0
150,55.0,120,120,5.0,54.0
151,57.0,120,120,5.0,55.0
152,59.0,120,120,5.0,56.0
153,61.0,120,120,5.0,57.0
154,78.0,120,120,1.0,55.0
155,74.0,120,120,1.0,56.0
156,76.0,120,120,1.0,56.0
157,62.0,0,425,5.0,58.0
158,78.0,120,120,1.0,56.0
159,79.0,120,120,1.0,56.0
160,81.0,120,120,1.0,57.0
161,83.0,120,120,1.0,57.0
162,85.0,120,120,1.0,57.0
163,86.0,120,120,1.0,57.0
164,85.0,120,120,1.0,57.0
165,83.0,0,120,1.0,58.0
166,54.0,120,155,5.0,58.0
167,57.0,0,155,4.0,58.0
168,81.0,120,120,1.0,58.0
169,79.0,120,120,1.0,58.0
170,54.0,0,155,5.0,58.0
171,57.0,0,155,4.0,58.0
172,78.0,120,120,1.0,58.0
173,76.0,0,120,1.0,59.0
174,57.0,120,155,4.0,59.0
175,54.0,0,155,5.0,59.0
176,74.0,120,95,1.0,59.0
177,76.0,120,120,1.0,59.0
178,78.0,120,120,1.0,59.0
179,76.0,120,120,1.0,59.0
180,59.0,0,425,4.0,59.0
181,55.0,0,425,5.0,59.0
182,75.0,120,120,1.0,60.0
183,76.0,120,120,1.0,60.0
184,78.0,120,120,1.0,60.0
185,79.0,120,120,1.0,60.0
186,81.0,120,120,1.0,60.0
187,83.0,120,120,1.0,61.0
188,81.0,120,120,1.0,61.0
189,79.0,0,120,1.0,61.0
190,59.0,0,155,4.0,61.0
191,55.0,120,155,5.0,61.0
192,78.0,120,120,1.0,61.0
193,76.0,120,120,1.0,62.0
194,55.0,0,155,5.0,62.0
195,59.0,0,155,4.0,62.0
196,74.0,120,120,1.0,62.0
197,73.0,0,120,1.0,62.0
198,56.0,0,155,5.0,62.0
199,59.0,120,155,4.0,62.0
200,71.0,120,95,1.0,62.0
201,73.0,0,120,1.0,62.0
202,57.0,120,155,5.0,62.0
203,74.0,120,120,1.0,63.0
204,73.0,0,120,1.0,63.0
205,55.0,120,155,5.0,63.0
206,69.0,120,120,1.0,63.0
207,54.0,120,155,5.0,63.0
208,74.0,0,190,1.0,63.0
209,50.0,240,155,5.0,64.0
210,79.0,0,120,1.0,64.0
211,49.0,240,155,5.0,64.0
212,81.0,120,120,1.0,64.0
213,79.0,0,120,1.0,65.0
214,45.0,120,155,5.0,65.0
215,76.0,120,95,1.0,65.0
216,79.0,120,120,1.0,65.0
217,50.0,0,155,5.0,65.0
218,78.0,120,120,1.0,65.0
219,76.0,120,120,1.0,66.0
220,54.0,0,155,5.0,66.0
221,74.0,120,95,1.0,66.0
222,73.0,0,120,1.0,66.0
223,57.0,120,155,5.0,66.0
224,74.0,120,120,1.0,66.0
225,73.0,0,120,1.0,66.0
226,55.0,120,155,5.0,66.0
227,69.0,120,95,1.0,67.0
228,54.0,0,155,5.0,67.0
229,74.0,120,190,1.0,67.0
230,50.0,240,155,5.0,67.0
231,79.0,240,120,1.0,68.0
232,49.0,0,155,5.0,68.0
233,81.0,120,120,1.0,68.0
234,79.0,120,120,1.0,68.0
235,45.0,0,155,5.0,68.0
236,76.0,120,95,1.0,68.0
237,79.0,0,120,1.0,69.0
238,50.0,120,155,5.0,69.0
239,78.0,120,120,1.0,69.0
240,76.0,120,120,1.0,69.0
241,54.0,0,155,5.0,69.0
242,74.0,120,95,1.0,69.0
243,73.0,0,95,1.0,69.0
244,76.0,120,95,1.0,70.0
245,73.0,120,95,1.0,70.0
246,52.0,0,385,4.0,69.0
247,57.0,0,385,4.0,69.0
248,45.0,120,385,5.0,69.0
249,69.0,120,95,1.0,70.0
250,78.0,0,95,1.0,70.0
251,81.0,120,95,1.0,71.0
252,78.0,120,95,1.0,71.0
253,54.0,120,385,4.0,70.0
254,57.0,0,385,4.0,70.0
255,50.0,0,385,5.0,70.0
256,74.0,120,95,1.0,71.0
257,73.0,0,95,1.0,71.0
258,76.0,120,95,1.0,71.0
259,73.0,120,95,1.0,72.0
260,57.0,0,385,4.0,71.0
261,52.0,0,385,4.0,71.0
262,45.0,120,385,5.0,71.0
263,69.0,120,95,1.0,72.0
264,78.0,0,95,1.0,72.0
265,81.0,120,95,1.0,72.0
266,78.0,120,95,1.0,73.0
267,50.0,120,385,5.0,72.0
268,57.0,0,385,4.0,72.0
269,54.0,0,385,4.0,72.0
270,74.0,120,95,1.0,73.0
271,73.0,0,190,2.0,75.0
272,76.0,120,190,1.0,75.0
273,45.0,0,190,5.0,72.0
274,73.0,0,190,2.0,72.0
275,76.0,240,190,2.0,72.0
276,57.0,0,190,4.0,72.0
277,81.0,0,190,1.0,72.0
278,52.0,0,190,4.0,72.0
279,81.0,0,190,1.0,68.0
280,73.0,0,190,2.0,68.0
281,76.0,0,190,2.0,68.0
282,57.0,0,190,4.0,68.0
283,52.0,0,190,4.0,68.0
284,45.0,240,190,5.0,68.0
285,45.0,0,190,5.0,64.0
286,52.0,240,190,4.0,64.0
287,57.0,0,190,4.0,64.0
288,81.0,0,190,1.0,64.0
289,73.0,0,190,2.0,64.0
290,76.0,0,190,2.0,64.0
291,81.0,0,190,1.0,61.0
292,76.0,0,190,2.0,61.0
293,45.0,240,190,5.0,61.0
294,57.0,0,190,4.0,61.0
295,73.0,0,190,2.0,61.0
296,52.0,0,190,4.0,61.0
297,74.0,420,60,1.0,32.0
298,73.0,60,120,1.0,33.0
299,71.0,120,120,1.0,34.0
300,73.0,120,120,1.0,36.0
301,74.0,120,95,1.0,37.0
302,75.0,0,240,1.0,41.0
303,57.0,120,360,5.0,36.0
304,76.0,0,190,1.0,36.0
305,61.0,240,240,4.0,38.0
306,59.0,240,360,5.0,40.0
307,76.0,240,190,1.0,42.0
308,62.0,0,240,4.0,42.0
309,81.0,240,240,1.0,46.0
310,61.0,0,360,5.0,46.0
311,80.0,240,240,1.0,44.0
312,64.0,0,240,4.0,44.0
313,78.0,240,240,1.0,41.0
314,57.0,0,360,5.0,41.0
315,61.0,240,190,4.0,38.0
316,76.0,0,190,1.0,38.0
317,73.0,240,240,1.0,42.0
318,74.0,240,190,1.0,38.0
319,59.0,0,480,5.0,36.0
320,66.0,0,240,4.0,38.0
321,62.0,240,240,4.0,40.0
322,74.0,0,190,1.0,41.0
323,59.0,240,240,4.0,41.0
324,76.0,0,240,1.0,45.0
325,56.0,240,360,5.0,43.0
326,74.0,0,240,1.0,41.0
327,59.0,240,240,4.0,41.0
328,73.0,240,240,1.0,39.0
329,52.0,0,360,5.0,39.0
330,71.0,240,190,1.0,37.0
331,62.0,0,190,4.0,37.0
332,68.0,240,240,1.0,39.0
333,61.0,0,360,5.0,35.0
334,69.0,0,190,1.0,35.0
335,64.0,240,240,4.0,37.0
336,56.0,240,360,5.0,40.0
337,71.0,240,190,1.0,42.0
338,64.0,0,240,4.0,42.0
339,72.0,240,240,1.0,47.0
340,57.0,0,360,5.0,44.0
341,73.0,0,190,1.0,43.0
342,64.0,240,240,4.0,46.0
343,54.0,240,360,5.0,48.0
344,76.0,240,120,1.0,50.0
345,57.0,0,190,4.0,50.0
346,74.0,120,95,1.0,51.0
347,57.0,240,240,4.0,49.0
348,52.0,120,720,5.0,54.0
349,61.0,240,240,4.0,44.0
350,73.0,0,720,1.0,55.0
351,74.0,240,120,1.0,40.0
352,73.0,120,120,1.0,37.0
353,57.0,0,240,4.0,39.0
354,71.0,120,155,1.0,35.0
355,56.0,0,240,4.0,36.0
356,52.0,0,240,5.0,36.0
357,73.0,240,155,1.0,36.0
358,74.0,240,155,1.0,39.0
359,75.0,240,155,1.0,41.0
360,75.0,240,240,1.0,44.0
361,57.0,0,360,5.0,43.0
362,76.0,240,190,1.0,41.0
363,61.0,0,240,4.0,45.0
364,78.0,0,60,1.0,44.0
365,59.0,240,360,5.0,47.0
366,76.0,80,60,1.0,46.0
367,75.0,40,60,1.0,47.0
368,76.0,60,60,1.0,48.0
369,62.0,240,240,4.0,48.0
370,81.0,0,155,1.0,50.0
371,61.0,60,360,5.0,51.0
372,80.0,0,155,1.0,48.0
373,64.0,240,240,4.0,48.0
374,78.0,240,155,1.0,45.0
375,57.0,0,360,5.0,45.0
376,76.0,240,155,1.0,42.0
377,61.0,0,190,4.0,42.0
378,73.0,0,240,1.0,47.0
379,74.0,0,190,1.0,41.0
380,59.0,240,480,5.0,42.0
381,66.0,240,240,4.0,43.0
382,62.0,240,240,4.0,44.0
383,76.0,0,60,1.0,43.0
384,74.0,80,60,1.0,45.0
385,73.0,40,60,1.0,46.0
386,59.0,240,240,5.0,46.0
387,74.0,60,60,1.0,47.0
388,76.0,60,155,1.0,51.0
389,56.0,0,360,5.0,49.0
390,74.0,0,155,1.0,49.0
391,59.0,240,240,4.0,48.0
392,73.0,240,155,1.0,46.0
393,52.0,0,360,5.0,47.0
394,71.0,0,155,1.0,43.0
395,56.0,240,190,4.0,46.0
396,73.0,0,360,1.0,45.0
397,57.0,240,420,5.0,45.0
398,76.0,360,95,1.0,43.0
399,66.0,0,360,1.0,43.0
400,66.0,0,360,4.0,43.0
401,62.0,120,420,4.0,43.0
402,50.0,0,425,5.0,43.0
403,71.0,360,95,1.0,41.0
404,61.0,0,420,4.0,41.0
405,69.0,0,425,1.0,40.0
406,69.0,480,65,1.0,37.0
407,68.0,60,60,1.0,37.0
408,69.0,60,65,1.0,36.0
409,68.0,60,65,1.0,36.0
410,69.0,60,65,1.0,35.0
411,68.0,60,60,1.0,35.0
412,66.0,60,60,1.0,34.0
413,52.0,120,900,5.0,41.0
414,59.0,0,420,4.0,37.0
415,68.0,60,60,1.0,34.0
416,76.0,120,120,3.0,77.0
417,69.0,0,360,1.0,63.0
418,75.0,120,120,3.0,77.0
419,57.0,60,425,5.0,79.0
420,76.0,120,120,3.0,77.0
421,78.0,120,120,3.0,77.0
422,76.0,120,120,3.0,77.0
423,75.0,0,120,3.0,77.0
424,69.0,120,155,1.0,77.0
425,76.0,120,120,3.0,77.0
426,74.0,0,120,3.0,77.0
427,71.0,120,155,1.0,79.0
428,76.0,120,120,3.0,77.0
429,74.0,0,120,3.0,77.0
430,69.0,120,155,1.0,78.0
431,76.0,120,120,3.0,76.0
432,74.0,0,120,3.0,76.0
433,68.0,120,155,1.0,77.0
434,76.0,120,120,3.0,76.0
435,74.0,0,120,3.0,76.0
436,64.0,120,155,1.0,75.0
437,76.0,120,95,3.0,76.0
438,73.0,0,95,3.0,76.0
439,76.0,120,120,3.0,76.0
440,75.0,120,120,3.0,76.0
441,69.0,120,425,1.0,74.0
442,76.0,120,120,3.0,76.0
443,78.0,120,120,3.0,76.0
444,76.0,120,120,3.0,76.0
445,75.0,0,120,3.0,75.0
446,57.0,120,155,5.0,75.0
447,76.0,120,120,3.0,75.0
448,74.0,120,120,3.0,75.0
449,59.0,0,155,5.0,79.0
450,76.0,120,120,3.0,75.0
451,74.0,0,120,3.0,75.0
452,57.0,120,155,5.0,78.0
453,76.0,120,120,3.0,75.0
454,74.0,0,120,3.0,75.0
455,56.0,120,155,5.0,76.0
456,76.0,120,120,3.0,75.0
457,74.0,0,120,3.0,75.0
458,52.0,120,155,5.0,74.0
459,76.0,120,95,3.0,75.0
460,64.0,120,120,3.0,74.0
461,57.0,120,360,5.0,72.0
462,63.0,120,120,3.0,74.0
463,73.0,0,420,3.0,75.0
464,64.0,120,120,3.0,74.0
465,66.0,120,120,3.0,74.0
466,64.0,120,120,3.0,74.0
467,63.0,0,120,3.0,74.0
468,81.0,120,155,1.0,74.0
469,64.0,120,120,3.0,74.0
470,62.0,120,120,3.0,74.0
471,83.0,0,155,1.0,79.0
472,64.0,120,120,3.0,74.0
473,62.0,120,120,3.0,74.0
474,81.0,0,155,1.0,77.0
475,64.0,120,120,3.0,73.0
476,62.0,120,120,3.0,73.0
477,80.0,0,155,1.0,75.0
478,64.0,120,120,3.0,73.0
479,62.0,120,120,3.0,73.0
480,76.0,0,155,1.0,73.0
481,64.0,120,95,3.0,73.0
482,61.0,120,95,3.0,73.0
483,64.0,120,120,3.0,73.0
484,63.0,120,120,3.0,73.0
485,81.0,0,420,1.0,72.0
486,64.0,120,120,3.0,73.0
487,66.0,120,120,3.0,73.0
488,64.0,120,120,3.0,73.0
489,63.0,0,120,3.0,72.0
490,45.0,120,155,5.0,72.0
491,64.0,120,120,3.0,72.0
492,62.0,0,120,3.0,72.0
493,47.0,120,155,5.0,77.0
494,64.0,120,120,3.0,72.0
495,62.0,120,120,3.0,72.0
496,45.0,0,155,5.0,75.0
497,64.0,120,120,3.0,72.0
498,62.0,0,120,3.0,72.0
499,44.0,120,155,5.0,73.0
500,64.0,120,120,3.0,72.0
501,62.0,120,120,3.0,72.0
502,40.0,0,155,5.0,70.0
503,64.0,120,95,3.0,72.0
504,45.0,0,410,5.0,68.0
505,61.0,120,420,3.0,72.0
506,61.0,0,180,5.0,50.0
507,69.0,120,120,3.0,51.0
508,61.0,120,180,5.0,51.0
509,69.0,120,120,3.0,52.0
510,76.0,480,480,1.0,50.0
511,59.0,120,180,5.0,52.0
512,69.0,120,120,3.0,53.0
513,59.0,120,180,5.0,54.0
514,69.0,120,120,3.0,54.0
515,74.0,0,480,1.0,52.0
516,57.0,120,180,5.0,55.0
517,69.0,120,120,3.0,55.0
518,57.0,120,180,5.0,56.0
519,73.0,0,425,1.0,55.0
520,69.0,120,95,3.0,57.0
521,69.0,120,120,3.0,57.0
522,78.0,120,360,1.0,59.0
523,68.0,120,120,3.0,56.0
524,62.0,0,360,5.0,59.0
525,80.0,0,40,1.0,50.0
526,78.0,40,40,1.0,51.0
527,76.0,40,40,1.0,53.0
528,69.0,120,120,3.0,55.0
529,78.0,40,155,1.0,54.0
530,69.0,120,120,3.0,53.0
531,68.0,0,120,3.0,53.0
532,62.0,0,360,5.0,54.0
533,80.0,120,155,1.0,53.0
534,69.0,120,120,3.0,52.0
535,83.0,120,240,1.0,51.0
536,69.0,120,120,3.0,50.0
537,62.0,0,360,5.0,51.0
538,68.0,0,120,3.0,49.0
539,81.0,120,155,1.0,49.0
540,69.0,120,120,3.0,48.0
541,69.0,120,120,3.0,47.0
542,80.0,120,240,1.0,48.0
543,62.0,0,360,5.0,48.0
544,68.0,0,120,3.0,46.0
545,78.0,120,155,1.0,46.0
546,69.0,120,120,3.0,45.0
547,69.0,120,120,3.0,46.0
548,76.0,120,240,1.0,44.0
549,68.0,120,120,3.0,50.0
550,61.0,0,360,5.0,44.0
551,69.0,120,95,3.0,54.0
552,61.0,120,180,5.0,62.0
553,69.0,120,120,3.0,63.0
554,61.0,120,180,5.0,64.0
555,69.0,120,120,3.0,65.0
556,76.0,0,480,1.0,62.0
557,59.0,0,180,5.0,66.0
558,69.0,120,120,3.0,66.0
559,59.0,120,180,5.0,67.0
560,69.0,120,120,3.0,68.0
561,74.0,120,480,1.0,66.0
562,57.0,120,180,5.0,69.0
563,69.0,120,120,3.0,70.0
564,57.0,120,180,5.0,71.0
565,73.0,0,420,1.0,69.0
566,69.0,120,95,3.0,72.0
567,57.0,120,120,3.0,73.0
568,71.0,0,360,1.0,73.0
569,54.0,120,120,3.0,72.0
570,50.0,120,360,5.0,73.0
571,78.0,0,95,1.0,71.0
572,57.0,120,120,3.0,71.0
573,76.0,0,120,1.0,70.0
574,74.0,120,120,1.0,69.0
575,57.0,0,120,3.0,69.0
576,73.0,120,120,1.0,69.0
577,54.0,0,120,3.0,69.0
578,50.0,120,360,5.0,70.0
579,71.0,120,95,1.0,68.0
580,57.0,0,120,3.0,68.0
581,61.0,120,120,3.0,66.0
582,52.0,0,360,5.0,67.0
583,57.0,120,120,3.0,65.0
584,69.0,120,420,1.0,67.0
585,61.0,120,120,3.0,64.0
586,73.0,120,60,1.0,64.0
587,71.0,60,60,1.0,63.0
588,73.0,60,60,1.0,63.0
589,62.0,0,120,3.0,63.0
590,71.0,60,60,1.0,62.0
591,73.0,60,60,1.0,62.0
592,52.0,0,360,5.0,64.0
593,56.0,0,120,3.0,62.0
594,71.0,60,60,1.0,61.0
595,69.0,0,60,1.0,61.0
596,71.0,60,60,1.0,61.0
597,62.0,60,120,3.0,61.0
598,57.0,0,180,5.0,60.0
599,64.0,120,120,3.0,56.0
600,61.0,120,180,5.0,51.0
601,69.0,60,425,1.0,60.0
602,64.0,120,95,3.0,45.0
603,61.0,120,180,5.0,42.0
604,69.0,120,120,3.0,43.0
605,61.0,120,180,5.0,44.0
606,69.0,120,120,3.0,45.0
607,76.0,0,480,1.0,42.0
608,59.0,120,180,5.0,46.0
609,69.0,120,120,3.0,47.0
610,59.0,120,180,5.0,48.0
611,69.0,120,120,3.0,48.0
612,74.0,0,480,1.0,46.0
613,57.0,120,180,5.0,49.0
614,69.0,120,120,3.0,50.0
615,57.0,120,180,5.0,51.0
616,73.0,0,425,1.0,49.0
617,69.0,120,95,3.0,52.0
618,69.0,120,120,3.0,54.0
619,68.0,120,120,3.0,53.0
620,78.0,120,360,1.0,55.0
621,62.0,0,360,5.0,55.0
622,80.0,0,40,1.0,49.0
623,78.0,40,40,1.0,50.0
624,69.0,120,120,3.0,52.0
625,76.0,40,40,1.0,51.0
626,78.0,0,155,1.0,52.0
627,69.0,120,120,3.0,51.0
628,62.0,40,360,5.0,51.0
629,68.0,0,120,3.0,50.0
630,80.0,120,155,1.0,50.0
631,69.0,120,120,3.0,49.0
632,83.0,0,240,1.0,48.0
633,69.0,120,120,3.0,47.0
634,62.0,120,360,5.0,48.0
635,68.0,0,120,3.0,46.0
636,81.0,120,155,1.0,46.0
637,69.0,120,120,3.0,45.0
638,80.0,120,240,1.0,44.0
639,69.0,120,120,3.0,43.0
640,68.0,120,120,3.0,42.0
641,62.0,0,360,5.0,44.0
642,78.0,0,155,1.0,42.0
643,69.0,120,120,3.0,42.0
644,76.0,120,240,1.0,43.0
645,69.0,120,120,3.0,46.0
646,68.0,120,120,3.0,49.0
647,61.0,0,360,5.0,43.0
648,69.0,120,95,3.0,52.0
649,61.0,120,180,5.0,58.0
650,69.0,120,120,3.0,59.0
651,61.0,120,180,5.0,60.0
652,69.0,120,120,3.0,61.0
653,76.0,0,480,1.0,58.0
654,59.0,120,180,5.0,62.0
655,69.0,120,120,3.0,63.0
656,59.0,120,180,5.0,64.0
657,74.0,0,480,1.0,62.0
658,69.0,120,120,3.0,64.0
659,57.0,120,180,5.0,65.0
660,69.0,120,120,3.0,66.0
661,73.0,0,420,1.0,65.0
662,57.0,120,180,5.0,67.0
663,69.0,120,95,3.0,68.0
664,57.0,120,120,3.0,67.0
665,50.0,120,360,5.0,69.0
666,71.0,0,360,1.0,69.0
667,54.0,120,120,3.0,66.0
668,57.0,120,120,3.0,65.0
669,78.0,0,120,1.0,65.0
670,76.0,0,120,1.0,65.0
671,74.0,0,120,1.0,64.0
672,57.0,120,120,3.0,64.0
673,73.0,120,120,1.0,64.0
674,54.0,0,120,3.0,64.0
675,50.0,120,360,5.0,65.0
676,71.0,0,95,1.0,63.0
677,57.0,120,120,3.0,63.0
678,61.0,120,120,3.0,62.0
679,52.0,120,360,5.0,62.0
680,57.0,120,120,3.0,61.0
681,69.0,0,425,1.0,62.0
682,61.0,120,120,3.0,61.0
683,73.0,0,60,1.0,60.0
684,71.0,60,60,1.0,60.0
685,73.0,0,60,1.0,59.0
686,62.0,60,120,3.0,59.0
687,71.0,60,60,1.0,59.0
688,73.0,0,60,1.0,59.0
689,52.0,120,360,5.0,60.0
690,56.0,60,120,3.0,59.0
691,71.0,80,60,1.0,58.0
692,69.0,0,60,1.0,58.0
693,62.0,40,120,3.0,58.0
694,71.0,60,60,1.0,60.0
695,69.0,0,95,1.0,60.0
696,64.0,120,95,1.0,61.0
697,69.0,120,95,1.0,62.0
698,61.0,60,420,4.0,60.0
699,57.0,0,435,5.0,60.0
700,73.0,120,95,1.0,63.0
701,76.0,120,95,1.0,64.0
702,73.0,120,95,1.0,65.0
703,74.0,0,95,1.0,66.0
704,59.0,0,155,4.0,66.0
705,52.0,120,155,5.0,66.0
706,56.0,0,155,4.0,66.0
707,71.0,120,95,1.0,67.0
708,69.0,0,95,1.0,68.0
709,64.0,120,95,1.0,69.0
710,69.0,120,95,1.0,70.0
711,61.0,120,425,4.0,68.0
712,57.0,0,425,5.0,68.0
713,73.0,120,95,1.0,71.0
714,76.0,120,95,1.0,72.0
715,73.0,120,95,1.0,73.0
716,74.0,0,95,1.0,74.0
717,52.0,0,155,5.0,74.0
718,59.0,120,155,4.0,74.0
719,56.0,0,155,4.0,74.0
720,71.0,120,95,1.0,75.0
721,69.0,120,385,1.0,76.0
722,61.0,0,385,4.0,76.0
723,57.0,0,385,5.0,76.0
724,53.0,0,385,4.0,71.0
725,71.0,0,385,2.0,71.0
726,74.0,0,385,2.0,71.0
727,80.0,0,385,1.0,71.0
728,41.0,480,385,5.0,71.0
729,69.0,0,385,2.0,63.0
730,73.0,480,385,2.0,63.0
731,81.0,0,385,1.0,63.0
732,54.0,0,385,4.0,63.0
733,42.0,0,385,5.0,63.0
734,74.0,0,240,1.0,47.0
735,66.0,960,240,2.0,47.0
736,73.0,240,190,1.0,41.0
737,64.0,0,190,2.0,41.0
738,73.0,0,240,1.0,48.0
739,64.0,240,240,2.0,48.0
740,71.0,240,190,1.0,42.0
741,62.0,0,190,2.0,42.0
742,50.0,0,960,5.0,40.0
743,62.0,0,240,2.0,49.0
744,71.0,240,240,1.0,49.0
745,61.0,240,190,2.0,44.0
746,69.0,0,190,1.0,44.0
747,69.0,0,240,1.0,50.0
748,61.0,240,240,2.0,50.0
749,52.0,0,900,5.0,43.0
750,59.0,240,190,2.0,46.0
751,68.0,0,190,1.0,46.0
752,57.0,0,310,5.0,48.0
753,52.0,480,310,5.0,41.0
754,59.0,0,960,2.0,56.0
755,62.0,240,960,2.0,56.0
756,68.0,0,960,1.0,56.0
757,45.0,0,310,5.0,35.0
758,69.0,0,360,1.0,35.0
759,61.0,480,365,2.0,35.0
760,81.0,960,240,1.0,40.0
761,79.0,240,190,1.0,35.0
762,79.0,240,240,1.0,42.0
763,78.0,240,190,1.0,37.0
764,78.0,240,240,1.0,44.0
765,76.0,240,190,1.0,40.0
766,76.0,240,240,1.0,46.0
767,75.0,240,190,1.0,42.0
768,72.0,0,240,2.0,56.0
769,71.0,240,190,2.0,47.0
770,71.0,240,240,2.0,54.0
771,69.0,240,190,2.0,45.0
772,69.0,240,240,2.0,48.0
773,67.0,240,190,2.0,42.0
774,67.0,240,240,2.0,46.0
775,75.0,0,1860,1.0,56.0
776,59.0,0,1865,5.0,53.0
777,47.0,240,1865,5.0,53.0
778,66.0,240,190,2.0,39.0
779,75.0,240,240,1.0,44.0
780,76.0,240,190,1.0,38.0
781,71.0,240,420,4.0,39.0
782,67.0,0,425,5.0,39.0
783,79.0,240,190,1.0,41.0
784,77.0,240,240,1.0,49.0
785,78.0,240,190,1.0,44.0
786,63.0,240,420,5.0,45.0
787,71.0,0,425,4.0,45.0
788,81.0,240,190,1.0,47.0
789,47.0,240,240,5.0,56.0
790,45.0,240,190,5.0,49.0
791,45.0,240,240,5.0,55.0
792,43.0,240,190,5.0,46.0
793,75.0,0,960,2.0,54.0
794,78.0,0,960,1.0,54.0
795,43.0,0,240,5.0,50.0
796,76.0,240,420,2.0,45.0
797,79.0,0,425,1.0,45.0
798,42.0,240,190,5.0,43.0
799,42.0,240,240,5.0,48.0
800,40.0,240,190,5.0,40.0
801,79.0,240,240,1.0,46.0
802,78.0,240,190,1.0,41.0
803,78.0,240,240,1.0,48.0
804,76.0,240,190,1.0,44.0
805,76.0,240,240,1.0,53.0
806,74.0,240,190,1.0,48.0
807,74.0,240,240,1.0,54.0
808,73.0,240,190,1.0,51.0
809,70.0,0,240,2.0,68.0
810,69.0,240,190,2.0,58.0
811,69.0,240,240,2.0,62.0
812,67.0,240,190,2.0,55.0
813,67.0,240,240,2.0,58.0
814,66.0,240,190,2.0,52.0
815,66.0,240,240,2.0,56.0
816,73.0,240,1860,1.0,68.0
817,57.0,0,1860,5.0,70.0
818,45.0,0,1865,5.0,70.0
819,64.0,240,190,2.0,49.0
820,73.0,240,240,1.0,55.0
821,74.0,240,190,1.0,50.0
822,69.0,240,420,4.0,52.0
823,66.0,0,420,5.0,52.0
824,78.0,240,190,1.0,54.0
825,75.0,240,240,1.0,62.0
826,76.0,240,190,1.0,58.0
827,61.0,0,420,5.0,60.0
828,69.0,240,420,4.0,60.0
829,79.0,240,190,1.0,62.0
830,45.0,240,240,5.0,69.0
831,43.0,240,190,5.0,65.0
832,43.0,240,240,5.0,68.0
833,42.0,240,190,5.0,59.0
834,76.0,0,960,1.0,72.0
835,73.0,0,960,2.0,72.0
836,42.0,0,240,5.0,60.0
837,74.0,240,420,2.0,56.0
838,78.0,0,425,1.0,56.0
839,40.0,240,190,5.0,53.0
840,40.0,240,240,5.0,55.0
841,38.0,240,190,5.0,47.0
842,62.0,0,240,5.0,58.0
843,86.0,120,120,3.0,53.0
844,78.0,0,0,2.0,54.0
845,61.0,120,190,5.0,54.0
846,86.0,120,120,3.0,55.0
847,78.0,120,0,2.0,56.0
848,61.0,0,240,5.0,62.0
849,78.0,0,0,2.0,58.0
850,86.0,120,120,3.0,57.0
851,59.0,120,190,5.0,58.0
852,78.0,0,0,2.0,59.0
853,86.0,120,120,3.0,59.0
854,59.0,120,240,5.0,64.0
855,86.0,120,120,3.0,60.0
856,57.0,120,190,5.0,61.0
857,78.0,0,240,2.0,61.0
858,86.0,120,120,3.0,62.0
859,57.0,120,240,5.0,68.0
860,78.0,0,240,2.0,63.0
861,86.0,120,120,3.0,64.0
862,56.0,120,190,5.0,65.0
863,78.0,0,240,2.0,65.0
864,86.0,120,120,3.0,66.0
865,86.0,120,120,3.0,67.0
866,76.0,0,240,2.0,72.0
867,86.0,120,120,3.0,65.0
868,76.0,120,240,2.0,66.0
869,86.0,120,120,3.0,64.0
870,76.0,120,240,2.0,65.0
871,56.0,120,900,5.0,74.0
872,44.0,0,900,5.0,74.0
873,86.0,120,120,3.0,62.0
874,76.0,120,240,2.0,63.0
875,85.0,120,120,3.0,61.0
876,76.0,120,0,2.0,60.0
877,85.0,120,120,3.0,59.0
878,85.0,120,120,3.0,58.0
879,76.0,120,0,2.0,57.0
880,46.0,0,900,5.0,62.0
881,58.0,120,905,5.0,62.0
882,85.0,120,120,3.0,56.0
883,74.0,0,240,2.0,56.0
884,59.0,120,240,5.0,63.0
885,85.0,120,120,3.0,57.0
886,57.0,120,190,5.0,58.0
887,74.0,0,240,2.0,58.0
888,85.0,120,120,3.0,59.0
889,85.0,120,120,3.0,60.0
890,74.0,120,240,2.0,60.0
891,57.0,0,240,5.0,67.0
892,55.0,0,190,5.0,61.0
893,85.0,120,120,3.0,62.0
894,74.0,120,0,2.0,63.0
895,55.0,0,240,5.0,69.0
896,83.0,120,120,3.0,64.0
897,74.0,120,0,2.0,65.0
898,54.0,0,190,5.0,65.0
899,83.0,120,120,3.0,66.0
900,74.0,0,240,2.0,67.0
901,83.0,120,120,3.0,68.0
902,54.0,120,240,5.0,72.0
903,53.0,0,190,5.0,69.0
904,83.0,120,120,3.0,70.0
905,74.0,120,240,2.0,69.0
906,83.0,120,120,3.0,70.0
907,74.0,120,240,2.0,74.0
908,74.0,120,240,2.0,69.0
909,83.0,120,120,3.0,69.0
910,74.0,120,0,2.0,66.0
911,83.0,120,120,3.0,67.0
912,53.0,0,900,5.0,79.0
913,41.0,0,900,5.0,79.0
914,83.0,120,120,3.0,66.0
915,72.0,0,240,2.0,65.0
916,81.0,120,120,3.0,64.0
917,81.0,120,120,3.0,62.0
918,72.0,120,240,2.0,64.0
919,72.0,120,232,2.0,62.0
920,81.0,120,120,3.0,61.0
921,42.0,120,900,5.0,65.0
922,54.0,0,900,5.0,65.0
923,72.0,120,225,2.0,60.0
924,81.0,120,120,3.0,59.0
925,62.0,120,120,3.0,58.0
926,81.0,0,240,2.0,64.0
927,59.0,120,120,3.0,59.0
928,55.0,120,360,5.0,58.0
929,79.0,0,190,2.0,59.0
930,71.0,0,480,2.0,64.0
931,62.0,120,120,3.0,59.0
932,62.0,120,120,3.0,61.0
933,79.0,0,240,2.0,67.0
934,59.0,0,120,3.0,61.0
935,55.0,120,360,5.0,60.0
936,78.0,120,190,2.0,61.0
937,62.0,120,120,3.0,62.0
938,62.0,120,120,3.0,63.0
939,86.0,0,240,1.0,71.0
940,59.0,120,120,3.0,64.0
941,55.0,120,360,5.0,62.0
942,77.0,0,420,2.0,71.0
943,85.0,0,190,1.0,64.0
944,62.0,120,120,3.0,64.0
945,85.0,0,240,1.0,70.0
946,62.0,120,120,3.0,65.0
947,59.0,120,120,3.0,66.0
948,55.0,120,360,5.0,65.0
949,83.0,0,190,1.0,66.0
950,62.0,120,120,3.0,67.0
951,61.0,120,120,3.0,68.0
952,79.0,120,240,2.0,72.0
953,54.0,0,360,5.0,67.0
954,58.0,0,120,3.0,68.0
955,78.0,120,190,2.0,68.0
956,61.0,120,120,3.0,69.0
957,61.0,120,120,3.0,70.0
958,78.0,0,240,2.0,76.0
959,54.0,120,360,5.0,70.0
960,58.0,0,120,3.0,71.0
961,82.0,0,905,1.0,72.0
962,76.0,120,190,2.0,71.0
963,61.0,120,120,3.0,71.0
964,62.0,120,120,3.0,72.0
965,74.0,0,240,2.0,79.0
966,53.0,120,360,5.0,72.0
967,56.0,120,120,3.0,73.0
968,73.0,0,190,2.0,73.0
969,62.0,120,120,3.0,74.0
970,62.0,120,120,3.0,75.0
971,73.0,0,240,2.0,81.0
972,53.0,120,360,5.0,74.0
973,56.0,0,120,3.0,75.0
974,83.0,0,905,1.0,79.0
975,71.0,120,190,2.0,75.0
976,62.0,120,120,3.0,76.0
977,76.0,0,240,1.0,83.0
978,67.0,120,240,2.0,83.0
979,66.0,240,190,2.0,71.0
980,74.0,0,190,1.0,71.0
981,74.0,240,240,1.0,74.0
982,66.0,0,240,2.0,74.0
983,54.0,0,900,5.0,77.0
984,64.0,240,190,2.0,65.0
985,73.0,0,190,1.0,65.0
986,73.0,0,240,1.0,69.0
987,64.0,0,240,2.0,69.0
988,71.0,0,190,1.0,59.0
989,62.0,240,190,2.0,59.0
990,71.0,240,240,1.0,60.0
991,62.0,0,240,2.0,60.0
992,42.0,240,900,5.0,62.0
993,70.0,0,190,1.0,52.0
994,61.0,240,190,2.0,52.0
995,47.0,0,310,5.0,51.0
996,42.0,480,310,5.0,43.0
997,61.0,0,960,2.0,56.0
998,64.0,0,960,2.0,56.0
999,70.0,240,960,1.0,56.0
1000,35.0,0,310,5.0,35.0
1001,71.0,480,425,1.0,35.0
1002,62.0,0,425,2.0,35.0
1003,66.0,960,0,2.0,58.0
1004,62.0,0,960,2.0,70.0
1005,59.0,0,960,5.0,70.0
1006,47.0,0,960,5.0,70.0
1007,71.0,960,960,1.0,70.0
1008,72.0,0,420,1.0,58.0
1009,62.0,0,425,2.0,58.0
1010,45.0,0,425,5.0,57.0
1011,57.0,0,425,5.0,57.0
1012,74.0,960,720,1.0,53.0
1013,43.0,0,960,5.0,53.0
1014,71.0,0,960,2.0,53.0
1015,75.0,720,240,1.0,43.0
1016,55.0,0,960,5.0,53.0
1017,76.0,240,420,1.0,39.0
1018,42.0,0,425,5.0,39.0
1019,54.0,0,425,5.0,39.0
1020,72.0,0,425,2.0,39.0
1021,59.0,1440,180,5.0,70.0
1022,67.0,120,120,3.0,71.0
1023,59.0,120,180,5.0,72.0
1024,74.0,0,480,1.0,70.0
1025,67.0,120,120,3.0,73.0
1026,57.0,0,180,5.0,74.0
1027,67.0,120,120,3.0,75.0
1028,57.0,120,180,5.0,76.0
1029,72.0,120,480,1.0,74.0
1030,67.0,120,120,3.0,77.0
1031,55.0,120,180,5.0,78.0
1032,67.0,120,120,3.0,79.0
1033,55.0,120,180,5.0,79.0
1034,71.0,0,425,1.0,78.0
1035,67.0,120,95,3.0,80.0
1036,67.0,120,120,3.0,81.0
1037,60.0,120,360,5.0,83.0
1038,76.0,0,360,1.0,83.0
1039,66.0,120,120,3.0,80.0
1040,78.0,120,40,1.0,76.0
1041,76.0,40,40,1.0,76.0
1042,74.0,40,40,1.0,77.0
1043,67.0,0,120,3.0,79.0
1044,76.0,40,155,1.0,78.0
1045,67.0,120,120,3.0,77.0
1046,60.0,0,360,5.0,78.0
1047,66.0,120,120,3.0,76.0
1048,78.0,0,155,1.0,76.0
1049,67.0,120,120,3.0,76.0
1050,81.0,120,240,1.0,75.0
1051,67.0,120,120,3.0,74.0
1052,60.0,0,360,5.0,75.0
1053,66.0,0,120,3.0,73.0
1054,79.0,120,190,1.0,73.0
1055,67.0,120,120,3.0,72.0
1056,78.0,120,240,1.0,71.0
1057,67.0,120,120,3.0,71.0
1058,66.0,0,120,3.0,70.0
1059,60.0,0,360,5.0,71.0
1060,76.0,120,190,1.0,70.0
1061,67.0,120,95,3.0,69.0
1062,74.0,120,240,1.0,68.0
1063,67.0,120,120,3.0,65.0
1064,66.0,120,120,3.0,59.0
1065,59.0,0,360,5.0,68.0
1066,67.0,120,120,3.0,53.0
1067,59.0,0,180,5.0,48.0
1068,67.0,120,120,3.0,49.0
1069,59.0,120,180,5.0,50.0
1070,74.0,120,480,1.0,48.0
1071,67.0,120,120,3.0,51.0
1072,57.0,120,180,5.0,52.0
1073,67.0,120,120,3.0,53.0
1074,57.0,120,180,5.0,54.0
1075,72.0,0,480,1.0,52.0
1076,67.0,120,120,3.0,54.0
1077,55.0,120,180,5.0,55.0
1078,67.0,120,120,3.0,56.0
1079,55.0,120,180,5.0,57.0
1080,71.0,0,425,1.0,55.0
1081,67.0,120,95,3.0,58.0
1082,57.0,120,120,3.0,61.0
1083,52.0,120,120,3.0,60.0
1084,69.0,0,360,1.0,61.0
1085,48.0,120,360,5.0,61.0
1086,76.0,120,95,1.0,59.0
1087,57.0,0,120,3.0,59.0
1088,74.0,120,120,1.0,58.0
1089,57.0,120,120,3.0,57.0
1090,72.0,0,120,1.0,57.0
1091,71.0,120,120,1.0,56.0
1092,48.0,0,360,5.0,58.0
1093,52.0,0,120,3.0,56.0
1094,69.0,120,95,1.0,56.0
1095,57.0,0,120,3.0,56.0
1096,59.0,120,120,3.0,54.0
1097,50.0,0,360,5.0,55.0
1098,55.0,120,120,3.0,53.0
1099,67.0,120,480,1.0,55.0
1100,59.0,120,120,3.0,52.0
1101,71.0,120,60,1.0,51.0
1102,69.0,60,60,1.0,50.0
1103,71.0,0,60,1.0,50.0
1104,69.0,60,60,1.0,49.0
1105,60.0,60,120,3.0,50.0
1106,71.0,60,60,1.0,48.0
1107,69.0,60,60,1.0,47.0
1108,50.0,0,360,5.0,51.0
1109,54.0,0,120,3.0,50.0
1110,67.0,60,60,1.0,46.0
1111,69.0,60,60,1.0,46.0
1112,60.0,0,120,3.0,49.0
1113,55.0,60,180,5.0,48.0
1114,67.0,0,240,1.0,45.0
1115,62.0,120,120,3.0,51.0
1116,59.0,120,180,5.0,55.0
1117,62.0,120,95,3.0,59.0
1118,59.0,120,180,5.0,64.0
1119,67.0,120,120,3.0,65.0
1120,59.0,120,180,5.0,65.0
1121,74.0,0,480,1.0,64.0
1122,67.0,120,120,3.0,66.0
1123,57.0,0,180,5.0,67.0
1124,67.0,120,120,3.0,68.0
1125,57.0,120,180,5.0,68.0
1126,67.0,120,120,3.0,69.0
1127,72.0,120,480,1.0,67.0
1128,55.0,0,180,5.0,70.0
1129,67.0,120,120,3.0,71.0
1130,55.0,120,180,5.0,71.0
1131,71.0,120,425,1.0,70.0
1132,67.0,120,95,3.0,72.0
1133,67.0,120,120,3.0,73.0
1134,60.0,0,360,5.0,74.0
1135,76.0,120,360,1.0,74.0
1136,66.0,120,120,3.0,72.0
1137,78.0,120,40,1.0,68.0
1138,76.0,40,40,1.0,68.0
1139,67.0,0,120,3.0,71.0
1140,74.0,40,40,1.0,69.0
1141,76.0,40,155,1.0,70.0
1142,67.0,120,120,3.0,70.0
1143,66.0,0,120,3.0,69.0
1144,60.0,0,360,5.0,71.0
1145,78.0,120,155,1.0,69.0
1146,67.0,120,120,3.0,69.0
1147,81.0,120,240,1.0,68.0
1148,67.0,120,120,3.0,67.0
1149,66.0,0,120,3.0,66.0
1150,60.0,0,360,5.0,68.0
1151,79.0,120,190,1.0,66.0
1152,67.0,120,120,3.0,66.0
1153,78.0,0,240,1.0,65.0
1154,67.0,120,120,3.0,64.0
1155,60.0,120,360,5.0,65.0
1156,66.0,120,120,3.0,64.0
1157,76.0,0,190,1.0,64.0
1158,67.0,120,95,3.0,63.0
1159,74.0,0,240,1.0,62.0
1160,67.0,120,120,3.0,60.0
1161,59.0,120,360,5.0,62.0
1162,66.0,120,120,3.0,54.0
1163,67.0,120,120,3.0,49.0
1164,59.0,120,180,5.0,46.0
1165,67.0,120,120,3.0,47.0
1166,59.0,120,180,5.0,48.0
1167,67.0,120,120,3.0,49.0
1168,74.0,0,480,1.0,46.0
1169,57.0,120,180,5.0,50.0
1170,67.0,120,120,3.0,51.0
1171,57.0,120,180,5.0,52.0
1172,72.0,0,480,1.0,50.0
1173,67.0,120,120,3.0,52.0
1174,55.0,0,180,5.0,53.0
1175,67.0,120,120,3.0,54.0
1176,71.0,120,420,1.0,53.0
1177,55.0,120,180,5.0,55.0
1178,67.0,120,95,3.0,56.0
1179,57.0,120,120,3.0,58.0
1180,52.0,120,120,3.0,57.0
1181,48.0,120,360,5.0,59.0
1182,69.0,0,360,1.0,59.0
1183,76.0,0,95,1.0,56.0
1184,57.0,120,120,3.0,56.0
1185,74.0,0,120,1.0,55.0
1186,72.0,120,120,1.0,54.0
1187,57.0,0,120,3.0,54.0
1188,52.0,0,120,3.0,53.0
1189,71.0,120,120,1.0,53.0
1190,48.0,120,360,5.0,55.0
1191,69.0,0,95,1.0,52.0
1192,57.0,120,120,3.0,52.0
1193,59.0,120,120,3.0,50.0
1194,55.0,120,120,3.0,49.0
1195,50.0,0,360,5.0,51.0
1196,59.0,120,120,3.0,48.0
1197,67.0,120,480,1.0,51.0
1198,71.0,0,60,1.0,47.0
1199,69.0,60,60,1.0,47.0
1200,71.0,0,60,1.0,46.0
1201,60.0,60,120,3.0,46.0
1202,69.0,60,60,1.0,46.0
1203,71.0,0,60,1.0,45.0
1204,54.0,60,120,3.0,45.0
1205,50.0,120,360,5.0,47.0
1206,69.0,60,60,1.0,45.0
1207,67.0,0,60,1.0,44.0
1208,60.0,60,120,3.0,44.0
1209,69.0,60,60,1.0,44.0
1210,67.0,0,120,1.0,48.0
1211,69.0,120,120,1.0,48.0
1212,67.0,120,120,1.0,49.0
1213,59.0,60,420,4.0,48.0
1214,55.0,0,425,5.0,48.0
1215,66.0,120,120,1.0,49.0
1216,67.0,120,120,1.0,49.0
1217,71.0,120,120,1.0,50.0
1218,69.0,0,120,1.0,50.0
1219,62.0,120,155,4.0,50.0
1220,54.0,0,155,5.0,50.0
1221,72.0,120,120,1.0,51.0
1222,71.0,0,120,1.0,51.0
1223,69.0,120,120,1.0,52.0
1224,67.0,120,120,1.0,52.0
1225,55.0,120,420,5.0,51.0
1226,62.0,0,425,4.0,51.0
1227,66.0,120,120,1.0,52.0
1228,67.0,120,120,1.0,53.0
1229,71.0,120,120,1.0,53.0
1230,69.0,0,120,1.0,54.0
1231,62.0,120,155,4.0,54.0
1232,54.0,0,155,5.0,54.0
1233,72.0,120,120,1.0,54.0
1234,71.0,0,120,1.0,55.0
1235,69.0,120,120,1.0,55.0
1236,67.0,120,120,1.0,55.0
1237,62.0,120,420,4.0,55.0
1238,55.0,0,425,5.0,55.0
1239,66.0,120,120,1.0,56.0
1240,67.0,120,120,1.0,56.0
1241,71.0,120,120,1.0,57.0
1242,69.0,0,120,1.0,57.0
1243,54.0,0,155,5.0,57.0
1244,62.0,120,155,4.0,57.0
1245,72.0,120,120,1.0,57.0
1246,71.0,120,120,1.0,58.0
1247,55.0,0,155,5.0,58.0
1248,62.0,0,155,4.0,58.0
1249,74.0,120,120,1.0,58.0
1250,72.0,120,120,1.0,59.0
1251,62.0,0,155,4.0,59.0
1252,54.0,0,155,5.0,59.0
1253,69.0,120,120,1.0,59.0
1254,71.0,0,120,1.0,60.0
1255,55.0,0,155,5.0,60.0
1256,62.0,120,155,4.0,60.0
1257,74.0,120,120,1.0,60.0
1258,73.0,120,120,1.0,60.0
1259,55.0,0,155,4.0,60.0
1260,52.0,0,155,5.0,60.0
1261,76.0,120,95,1.0,61.0
1262,74.0,0,120,1.0,61.0
1263,76.0,120,120,1.0,62.0
1264,74.0,120,120,1.0,62.0
1265,57.0,120,420,4.0,61.0
1266,54.0,0,425,5.0,61.0
1267,73.0,120,120,1.0,63.0
1268,74.0,120,120,1.0,63.0
1269,78.0,120,120,1.0,63.0
1270,76.0,0,120,1.0,64.0
1271,49.0,120,155,5.0,64.0
1272,57.0,0,155,4.0,64.0
1273,79.0,120,120,1.0,64.0
1274,78.0,120,120,1.0,65.0
1275,76.0,120,120,1.0,65.0
1276,74.0,120,120,1.0,66.0
1277,57.0,0,420,4.0,65.0
1278,50.0,0,420,5.0,65.0
1279,73.0,120,120,1.0,66.0
1280,74.0,120,120,1.0,66.0
1281,78.0,120,120,1.0,67.0
1282,76.0,0,120,1.0,67.0
1283,57.0,0,155,4.0,67.0
1284,49.0,120,155,5.0,67.0
1285,79.0,120,120,1.0,68.0
1286,78.0,0,120,1.0,68.0
1287,76.0,120,120,1.0,69.0
1288,74.0,120,120,1.0,69.0
1289,57.0,120,425,4.0,68.0
1290,50.0,0,425,5.0,68.0
1291,73.0,120,120,1.0,69.0
1292,74.0,120,120,1.0,70.0
1293,76.0,120,120,1.0,70.0
1294,78.0,0,120,1.0,71.0
1295,51.0,120,155,5.0,71.0
1296,59.0,0,155,4.0,71.0
1297,81.0,120,120,1.0,71.0
1298,79.0,120,120,1.0,72.0
1299,78.0,120,120,1.0,72.0
1300,76.0,120,120,1.0,72.0
1301,57.0,0,425,4.0,72.0
1302,52.0,0,425,5.0,72.0
1303,75.0,120,120,1.0,73.0
1304,76.0,120,120,1.0,73.0
1305,78.0,120,120,1.0,74.0
1306,79.0,0,120,1.0,74.0
1307,51.0,0,155,5.0,74.0
1308,59.0,120,155,4.0,74.0
1309,81.0,120,120,1.0,75.0
1310,79.0,0,120,1.0,75.0
1311,78.0,120,120,1.0,75.0
1312,76.0,120,120,1.0,76.0
1313,52.0,120,425,5.0,75.0
1314,59.0,0,425,4.0,75.0
1315,75.0,120,120,1.0,76.0
1316,76.0,120,120,1.0,77.0
1317,78.0,120,120,1.0,77.0
1318,79.0,120,120,1.0,78.0
1319,52.0,0,155,5.0,78.0
1320,61.0,0,155,4.0,78.0
1321,83.0,120,120,1.0,78.0
1322,81.0,0,120,1.0,78.0
1323,79.0,120,120,1.0,79.0
1324,78.0,120,120,1.0,79.0
1325,62.0,120,420,4.0,78.0
1326,54.0,0,425,5.0,78.0
1327,76.0,120,120,1.0,80.0
1328,78.0,120,120,1.0,80.0
1329,79.0,120,120,1.0,81.0
1330,81.0,120,120,1.0,81.0
1331,61.0,0,155,4.0,81.0
1332,52.0,0,155,5.0,81.0
1333,83.0,120,120,1.0,81.0
1334,81.0,0,120,1.0,82.0
1335,79.0,120,120,1.0,82.0
1336,78.0,120,120,1.0,83.0
1337,62.0,0,425,4.0,82.0
1338,54.0,120,425,5.0,82.0
1339,76.0,120,120,1.0,83.0
1340,78.0,120,120,1.0,84.0
1341,79.0,120,120,1.0,84.0
1342,81.0,0,120,1.0,84.0
1343,66.0,120,155,5.0,84.0
1344,84.0,120,95,1.0,85.0
1345,83.0,0,120,1.0,85.0
1346,67.0,120,155,5.0,85.0
1347,86.0,120,120,1.0,83.0
1348,81.0,0,120,1.0,83.0
1349,66.0,120,155,5.0,83.0
1350,86.0,120,120,1.0,82.0
1351,83.0,120,120,1.0,82.0
1352,67.0,0,155,5.0,82.0
1353,86.0,120,120,1.0,82.0
1354,78.0,120,120,1.0,81.0
1355,63.0,0,155,5.0,81.0
1356,83.0,120,95,1.0,81.0
1357,79.0,0,120,1.0,80.0
1358,64.0,120,155,5.0,80.0
1359,83.0,120,120,1.0,80.0
1360,78.0,0,120,1.0,79.0
1361,63.0,120,155,5.0,79.0
1362,83.0,120,120,1.0,79.0
1363,79.0,0,120,1.0,79.0
1364,64.0,120,155,5.0,79.0
1365,83.0,120,120,1.0,78.0
1366,76.0,120,120,1.0,78.0
1367,61.0,0,155,5.0,78.0
1368,81.0,120,95,1.0,77.0
1369,78.0,0,120,1.0,77.0
1370,62.0,120,155,5.0,77.0
1371,81.0,120,120,1.0,76.0
1372,76.0,120,120,1.0,76.0
1373,61.0,0,155,5.0,76.0
1374,81.0,120,120,1.0,76.0
1375,78.0,120,120,1.0,75.0
1376,62.0,0,155,5.0,75.0
1377,81.0,120,120,1.0,75.0
1378,73.0,120,120,1.0,74.0
1379,58.0,0,155,5.0,74.0
1380,78.0,120,95,1.0,74.0
1381,74.0,0,120,1.0,73.0
1382,59.0,120,155,5.0,73.0
1383,78.0,120,120,1.0,73.0
1384,73.0,0,120,1.0,73.0
1385,58.0,120,155,5.0,73.0
1386,78.0,120,120,1.0,72.0
1387,74.0,120,120,1.0,72.0
1388,59.0,0,155,5.0,72.0
1389,78.0,120,120,1.0,71.0
1390,75.0,0,120,1.0,71.0
1391,57.0,120,155,5.0,71.0
1392,60.0,0,155,4.0,71.0
1393,78.0,120,95,1.0,70.0
1394,76.0,0,120,1.0,70.0
1395,75.0,120,120,1.0,70.0
1396,76.0,120,120,1.0,69.0
1397,59.0,0,420,4.0,70.0
1398,55.0,120,425,5.0,70.0
1399,78.0,120,120,1.0,69.0
1400,79.0,120,120,1.0,68.0
1401,78.0,120,120,1.0,68.0
1402,79.0,120,120,1.0,67.0
1403,81.0,120,120,1.0,67.0
1404,83.0,0,120,1.0,67.0
1405,55.0,120,190,5.0,67.0
1406,64.0,0,190,4.0,67.0
1407,85.0,120,120,1.0,66.0
1408,86.0,0,120,1.0,66.0
1409,55.0,120,190,5.0,66.0
1410,64.0,0,190,4.0,66.0
1411,85.0,120,120,1.0,65.0
1412,83.0,0,120,1.0,65.0
1413,64.0,0,190,4.0,65.0
1414,55.0,120,190,5.0,65.0
1415,81.0,120,120,1.0,64.0
1416,79.0,0,120,1.0,64.0
1417,64.0,0,190,4.0,64.0
1418,55.0,120,190,5.0,64.0
1419,78.0,120,95,1.0,64.0
1420,76.0,0,120,1.0,63.0
1421,55.0,0,190,5.0,63.0
1422,64.0,120,190,4.0,63.0
1423,78.0,120,120,1.0,63.0
1424,79.0,120,120,1.0,62.0
1425,55.0,0,190,5.0,62.0
1426,64.0,0,190,4.0,62.0
1427,78.0,120,120,1.0,62.0
1428,76.0,120,120,1.0,61.0
1429,64.0,0,190,4.0,61.0
1430,56.0,0,190,5.0,61.0
1431,74.0,120,120,1.0,61.0
1432,73.0,120,120,1.0,61.0
1433,56.0,0,190,5.0,61.0
1434,64.0,0,190,4.0,61.0
1435,71.0,120,95,1.0,60.0
1436,73.0,0,120,1.0,60.0
1437,57.0,120,155,5.0,60.0
1438,74.0,120,120,1.0,60.0
1439,73.0,120,120,1.0,60.0
1440,55.0,0,155,5.0,60.0
1441,69.0,120,120,1.0,61.0
1442,54.0,0,155,5.0,61.0
1443,74.0,120,190,1.0,61.0
1444,50.0,240,155,5.0,62.0
1445,79.0,240,120,1.0,63.0
1446,49.0,0,155,5.0,63.0
1447,81.0,120,120,1.0,63.0
1448,79.0,120,120,1.0,63.0
1449,45.0,0,155,5.0,63.0
1450,76.0,120,95,1.0,64.0
1451,79.0,120,120,1.0,64.0
1452,50.0,0,155,5.0,64.0
1453,78.0,120,120,1.0,65.0
1454,76.0,0,120,1.0,65.0
1455,54.0,120,155,5.0,65.0
1456,74.0,120,120,1.0,65.0
1457,73.0,0,120,1.0,66.0
1458,57.0,120,155,5.0,66.0
1459,74.0,120,120,1.0,66.0
1460,73.0,0,120,1.0,66.0
1461,55.0,120,155,5.0,66.0
1462,69.0,120,95,1.0,67.0
1463,54.0,120,155,5.0,67.0
1464,74.0,0,190,1.0,67.0
1465,50.0,240,155,5.0,68.0
1466,79.0,0,120,1.0,69.0
1467,49.0,240,155,5.0,69.0
1468,81.0,120,120,1.0,69.0
1469,79.0,120,120,1.0,69.0
1470,45.0,0,155,5.0,69.0
1471,76.0,120,95,1.0,70.0
1472,79.0,120,120,1.0,70.0
1473,50.0,0,155,5.0,70.0
1474,78.0,120,120,1.0,71.0
1475,76.0,0,120,1.0,71.0
1476,54.0,120,155,5.0,71.0
1477,74.0,120,95,1.0,71.0
1478,73.0,0,95,1.0,72.0
1479,76.0,120,95,1.0,72.0
1480,73.0,120,95,1.0,72.0
1481,52.0,0,385,4.0,72.0
1482,45.0,120,385,5.0,72.0
1483,57.0,0,385,4.0,72.0
1484,69.0,120,95,1.0,73.0
1485,78.0,0,95,1.0,73.0
1486,81.0,120,95,1.0,74.0
1487,78.0,120,95,1.0,74.0
1488,57.0,0,385,4.0,73.0
1489,50.0,120,385,5.0,73.0
1490,54.0,0,385,4.0,73.0
1491,74.0,120,95,1.0,74.0
1492,73.0,120,95,1.0,75.0
1493,76.0,120,95,1.0,75.0
1494,73.0,120,95,1.0,75.0
1495,52.0,0,385,4.0,75.0
1496,45.0,0,385,5.0,75.0
1497,57.0,0,385,4.0,75.0
1498,69.0,120,95,1.0,76.0
1499,78.0,0,95,1.0,76.0
1500,81.0,120,95,1.0,77.0
1501,78.0,120,95,1.0,77.0
1502,57.0,120,385,4.0,76.0
1503,54.0,0,385,4.0,76.0
1504,50.0,0,385,5.0,76.0
1505,74.0,120,95,1.0,77.0
1506,76.0,120,190,1.0,79.0
1507,73.0,0,190,2.0,79.0
1508,76.0,0,190,2.0,78.0
1509,73.0,0,190,2.0,78.0
1510,81.0,0,190,1.0,78.0
1511,52.0,0,190,4.0,78.0
1512,57.0,0,190,4.0,78.0
1513,45.0,240,190,5.0,78.0
1514,52.0,0,190,4.0,76.0
1515,73.0,0,190,2.0,76.0
1516,81.0,0,190,1.0,76.0
1517,76.0,0,190,2.0,76.0
1518,45.0,0,190,5.0,76.0
1519,57.0,240,190,4.0,76.0
1520,57.0,0,190,4.0,74.0
1521,45.0,0,190,5.0,74.0
1522,81.0,0,190,1.0,74.0
1523,76.0,240,190,2.0,74.0
1524,73.0,0,190,2.0,74.0
1525,52.0,0,190,4.0,74.0
1526,45.0,0,190,5.0,72.0
1527,81.0,0,190,1.0,72.0
1528,52.0,0,190,4.0,72.0
1529,57.0,0,190,4.0,72.0
1530,73.0,0,190,2.0,72.0
1531,76.0,240,190,2.0,72.0
1532,79.0,420,60,1.0,43.0
1533,78.0,60,120,1.0,44.0
1534,76.0,120,120,1.0,45.0
1535,78.0,120,120,1.0,47.0
1536,79.0,120,95,1.0,49.0
1537,80.0,120,240,1.0,51.0
1538,62.0,0,360,5.0,47.0
1539,81.0,240,190,1.0,48.0
1540,66.0,0,240,4.0,48.0
1541,64.0,240,360,5.0,49.0
1542,81.0,240,190,1.0,50.0
1543,67.0,0,240,4.0,50.0
1544,86.0,240,240,1.0,53.0
1545,66.0,0,360,5.0,53.0
1546,85.0,0,240,1.0,50.0
1547,69.0,240,240,4.0,50.0
1548,83.0,240,240,1.0,48.0
1549,62.0,0,360,5.0,48.0
1550,81.0,0,190,1.0,46.0
1551,66.0,240,240,4.0,46.0
1552,78.0,0,240,1.0,47.0
1553,79.0,0,190,1.0,42.0
1554,64.0,240,480,5.0,44.0
1555,71.0,240,240,4.0,45.0
1556,67.0,240,240,4.0,46.0
1557,79.0,240,190,1.0,47.0
1558,64.0,0,240,4.0,47.0
1559,81.0,240,240,1.0,49.0
1560,61.0,0,360,5.0,49.0
1561,64.0,240,240,4.0,47.0
1562,79.0,0,240,1.0,47.0
1563,78.0,240,240,1.0,46.0
1564,57.0,0,360,5.0,46.0
1565,76.0,0,190,1.0,44.0
1566,67.0,240,240,4.0,44.0
1567,73.0,240,240,1.0,48.0
1568,66.0,0,360,5.0,44.0
1569,74.0,240,190,1.0,42.0
1570,69.0,0,240,4.0,46.0
1571,61.0,240,360,5.0,47.0
1572,76.0,0,190,1.0,49.0
1573,69.0,240,240,4.0,49.0
1574,77.0,0,240,1.0,53.0
1575,62.0,240,360,5.0,50.0
1576,78.0,240,190,1.0,48.0
1577,69.0,0,240,4.0,52.0
1578,59.0,240,360,5.0,53.0
1579,81.0,240,120,1.0,55.0
1580,62.0,0,190,4.0,55.0
1581,79.0,120,95,1.0,56.0
1582,62.0,240,240,4.0,55.0
1583,57.0,120,480,5.0,57.0
1584,66.0,240,240,4.0,52.0
1585,78.0,0,720,1.0,60.0
1586,79.0,0,120,1.0,50.0
1587,78.0,120,120,1.0,49.0
1588,62.0,240,240,4.0,50.0
1589,76.0,0,155,1.0,46.0
1590,78.0,240,155,1.0,47.0
1591,61.0,0,420,4.0,46.0
1592,57.0,120,425,5.0,46.0
1593,79.0,240,155,1.0,48.0
1594,80.0,240,155,1.0,49.0
1595,80.0,0,240,1.0,53.0
1596,62.0,240,360,5.0,50.0
1597,81.0,240,240,1.0,49.0
1598,65.0,0,240,4.0,51.0
1599,82.0,0,60,1.0,48.0
1600,64.0,240,360,5.0,53.0
1601,81.0,60,60,1.0,50.0
1602,80.0,60,60,1.0,51.0
1603,67.0,240,240,4.0,54.0
1604,81.0,60,60,1.0,53.0
1605,86.0,60,155,1.0,57.0
1606,65.0,0,360,5.0,55.0
1607,84.0,0,155,1.0,53.0
1608,69.0,240,240,4.0,53.0
1609,82.0,240,155,1.0,51.0
1610,62.0,0,360,5.0,51.0
1611,81.0,240,155,1.0,49.0
1612,65.0,0,240,4.0,49.0
1613,78.0,0,240,1.0,50.0
1614,79.0,240,190,1.0,44.0
1615,64.0,240,480,5.0,47.0
1616,70.0,0,240,4.0,47.0
1617,67.0,240,240,4.0,49.0
1618,81.0,240,60,1.0,44.0
1619,79.0,60,60,1.0,46.0
1620,78.0,60,60,1.0,47.0
1621,64.0,0,240,4.0,51.0
1622,79.0,60,60,1.0,49.0
1623,81.0,60,155,1.0,53.0
1624,61.0,0,360,5.0,53.0
1625,79.0,0,155,1.0,53.0
1626,64.0,240,240,4.0,53.0
1627,77.0,0,155,1.0,52.0
1628,57.0,240,360,5.0,52.0
1629,76.0,0,155,1.0,51.0
1630,61.0,240,190,4.0,51.0
1631,79.0,0,240,1.0,52.0
1632,62.0,240,360,5.0,50.0
1633,77.0,0,190,1.0,45.0
1634,69.0,240,240,4.0,49.0
1635,60.0,240,360,5.0,48.0
1636,76.0,240,190,1.0,47.0
1637,69.0,0,240,4.0,47.0
1638,73.0,0,240,1.0,50.0
1639,74.0,240,190,1.0,46.0
1640,58.0,240,480,5.0,46.0
1641,65.0,0,240,4.0,45.0
1642,64.0,240,240,4.0,44.0
1643,80.0,240,190,1.0,43.0
1644,62.0,0,240,4.0,43.0
1645,62.0,240,240,4.0,41.0
1646,57.0,0,480,5.0,42.0
1647,65.0,240,240,4.0,40.0
1648,62.0,240,240,4.0,39.0
1649,80.0,240,960,1.0,47.0
1650,57.0,0,190,5.0,38.0
1651,61.0,240,190,4.0,38.0
1652,43.0,0,155,5.0,68.0
1653,55.0,240,155,5.0,68.0
1654,81.0,0,420,1.0,38.0
1655,42.0,240,155,5.0,72.0
1656,54.0,0,155,5.0,72.0
1657,40.0,0,155,5.0,75.0
1658,52.0,240,155,5.0,75.0
1659,81.0,120,120,3.0,79.0
1660,80.0,120,120,3.0,79.0
1661,78.0,240,360,1.0,79.0
1662,38.0,0,480,5.0,79.0
1663,50.0,0,480,5.0,79.0
1664,81.0,120,120,3.0,79.0
1665,83.0,120,120,3.0,79.0
1666,81.0,120,120,3.0,79.0
1667,80.0,0,120,3.0,79.0
1668,74.0,120,155,1.0,79.0
1669,81.0,120,120,3.0,79.0
1670,79.0,0,120,3.0,79.0
1671,76.0,120,155,1.0,85.0
1672,81.0,120,120,3.0,79.0
1673,79.0,120,120,3.0,79.0
1674,74.0,0,155,1.0,83.0
1675,81.0,120,120,3.0,79.0
1676,79.0,120,120,3.0,79.0
1677,73.0,0,155,1.0,80.0
1678,81.0,120,120,3.0,79.0
1679,79.0,120,120,3.0,78.0
1680,69.0,0,155,1.0,78.0
1681,81.0,120,120,3.0,78.0
1682,78.0,0,95,3.0,78.0
1683,81.0,120,120,3.0,78.0
1684,80.0,120,120,3.0,78.0
1685,74.0,120,425,1.0,75.0
1686,81.0,120,120,3.0,78.0
1687,83.0,120,120,3.0,78.0
1688,81.0,120,120,3.0,78.0
1689,80.0,0,120,3.0,78.0
1690,62.0,120,155,5.0,78.0
1691,81.0,120,120,3.0,78.0
1692,79.0,120,120,3.0,78.0
1693,64.0,0,155,5.0,83.0
1694,81.0,120,120,3.0,78.0
1695,79.0,0,120,3.0,78.0
1696,62.0,120,155,5.0,81.0
1697,81.0,120,120,3.0,78.0
1698,79.0,0,120,3.0,77.0
1699,61.0,120,155,5.0,78.0
1700,81.0,120,120,3.0,77.0
1701,79.0,120,120,3.0,77.0
1702,57.0,0,155,5.0,76.0
1703,81.0,120,120,3.0,77.0
1704,69.0,120,120,3.0,77.0
1705,68.0,120,120,3.0,77.0
1706,62.0,120,360,5.0,74.0
1707,78.0,0,420,3.0,77.0
1708,69.0,120,120,3.0,77.0
1709,71.0,120,120,3.0,77.0
1710,69.0,120,120,3.0,77.0
1711,68.0,0,120,3.0,77.0
1712,86.0,120,155,1.0,77.0
1713,69.0,120,120,3.0,77.0
1714,67.0,120,120,3.0,77.0
1715,88.0,0,155,1.0,83.0
1716,69.0,120,120,3.0,77.0
1717,67.0,120,120,3.0,76.0
1718,86.0,0,155,1.0,80.0
1719,69.0,120,120,3.0,76.0
1720,67.0,120,120,3.0,76.0
1721,85.0,0,155,1.0,78.0
1722,69.0,120,120,3.0,76.0
1723,67.0,120,120,3.0,76.0
1724,81.0,0,155,1.0,76.0
1725,69.0,120,120,3.0,76.0
1726,66.0,0,95,3.0,76.0
1727,69.0,120,120,3.0,76.0
1728,68.0,120,120,3.0,76.0
1729,86.0,120,420,1.0,73.0
1730,69.0,120,120,3.0,76.0
1731,71.0,120,120,3.0,76.0
1732,69.0,120,120,3.0,76.0
1733,68.0,0,120,3.0,76.0
1734,50.0,120,155,5.0,76.0
1735,69.0,120,120,3.0,76.0
1736,67.0,0,120,3.0,75.0
1737,52.0,120,155,5.0,79.0
1738,69.0,120,120,3.0,75.0
1739,67.0,0,120,3.0,75.0
1740,50.0,120,155,5.0,77.0
1741,69.0,120,120,3.0,75.0
1742,67.0,120,120,3.0,75.0
1743,49.0,0,155,5.0,75.0
1744,69.0,120,120,3.0,75.0
1745,67.0,0,120,3.0,75.0
1746,45.0,120,155,5.0,73.0
1747,69.0,120,120,3.0,75.0
1748,50.0,120,405,5.0,71.0
1749,66.0,0,410,3.0,75.0
1750,66.0,0,180,5.0,51.0
1751,74.0,120,120,3.0,51.0
1752,66.0,120,180,5.0,52.0
1753,81.0,480,480,1.0,51.0
1754,74.0,120,120,3.0,53.0
1755,64.0,0,180,5.0,53.0
1756,74.0,120,120,3.0,54.0
1757,64.0,120,180,5.0,55.0
1758,79.0,120,480,1.0,53.0
1759,74.0,120,120,3.0,55.0
1760,62.0,120,180,5.0,56.0
1761,74.0,120,120,3.0,57.0
1762,62.0,120,180,5.0,58.0
1763,78.0,0,425,1.0,56.0
1764,74.0,120,95,3.0,58.0
1765,74.0,120,120,3.0,58.0
1766,67.0,120,360,5.0,59.0
1767,83.0,0,360,1.0,59.0
1768,73.0,120,120,3.0,58.0
1769,85.0,120,40,1.0,54.0
1770,83.0,40,40,1.0,55.0
1771,81.0,40,40,1.0,56.0
1772,74.0,0,120,3.0,57.0
1773,83.0,40,155,1.0,57.0
1774,74.0,120,120,3.0,56.0
1775,67.0,0,360,5.0,56.0
1776,73.0,120,120,3.0,55.0
1777,85.0,0,155,1.0,55.0
1778,74.0,120,120,3.0,54.0
1779,74.0,120,120,3.0,53.0
1780,88.0,0,240,1.0,53.0
1781,67.0,120,360,5.0,53.0
1782,73.0,120,120,3.0,52.0
1783,86.0,0,190,1.0,52.0
1784,74.0,120,120,3.0,51.0
1785,85.0,0,240,1.0,51.0
1786,74.0,120,120,3.0,50.0
1787,73.0,0,120,3.0,49.0
1788,67.0,120,360,5.0,51.0
1789,83.0,120,190,1.0,49.0
1790,74.0,120,120,3.0,48.0
1791,74.0,120,120,3.0,52.0
1792,81.0,120,240,1.0,48.0
1793,73.0,120,120,3.0,56.0
1794,66.0,0,360,5.0,48.0
1795,74.0,120,120,3.0,60.0
1796,66.0,120,180,5.0,66.0
1797,74.0,120,120,3.0,66.0
1798,66.0,120,180,5.0,67.0
1799,74.0,120,95,3.0,68.0
1800,81.0,0,485,1.0,66.0
1801,64.0,120,180,5.0,69.0
1802,74.0,120,120,3.0,70.0
1803,64.0,120,180,5.0,70.0
1804,74.0,120,120,3.0,71.0
1805,79.0,0,480,1.0,69.0
1806,62.0,120,180,5.0,72.0
1807,74.0,120,120,3.0,73.0
1808,62.0,120,180,5.0,74.0
1809,78.0,0,435,1.0,72.0
1810,74.0,120,95,3.0,74.0
1811,64.0,120,120,3.0,76.0
1812,76.0,0,360,1.0,77.0
1813,59.0,120,120,3.0,76.0
1814,55.0,120,360,5.0,77.0
1815,83.0,0,95,1.0,75.0
1816,64.0,120,120,3.0,75.0
1817,81.0,0,120,1.0,74.0
1818,79.0,120,120,1.0,74.0
1819,64.0,0,120,3.0,74.0
1820,59.0,120,120,3.0,73.0
1821,78.0,0,120,1.0,73.0
1822,55.0,120,360,5.0,74.0
1823,76.0,0,95,1.0,72.0
1824,64.0,120,120,3.0,72.0
1825,66.0,120,120,3.0,71.0
1826,62.0,120,120,3.0,70.0
1827,57.0,120,360,5.0,71.0
1828,74.0,0,480,1.0,71.0
1829,66.0,120,120,3.0,69.0
1830,78.0,0,60,1.0,67.0
1831,76.0,60,60,1.0,66.0
1832,78.0,60,60,1.0,65.0
1833,76.0,60,60,1.0,65.0
1834,67.0,0,120,3.0,68.0
1835,78.0,60,60,1.0,64.0
1836,76.0,60,60,1.0,63.0
1837,57.0,120,360,5.0,69.0
1838,61.0,0,120,3.0,67.0
1839,74.0,0,60,1.0,62.0
1840,76.0,60,60,1.0,62.0
1841,67.0,60,120,3.0,67.0
1842,62.0,0,180,5.0,64.0
1843,74.0,60,240,1.0,61.0
1844,66.0,120,120,3.0,59.0
1845,62.0,120,180,5.0,54.0
1846,66.0,120,95,3.0,50.0
1847,54.0,120,180,5.0,44.0
1848,62.0,120,120,3.0,45.0
1849,54.0,120,180,5.0,45.0
1850,69.0,0,480,1.0,44.0
1851,62.0,120,120,3.0,46.0
1852,52.0,0,180,5.0,47.0
1853,62.0,120,120,3.0,48.0
1854,52.0,120,180,5.0,48.0
1855,67.0,120,480,1.0,47.0
1856,62.0,120,120,3.0,49.0
1857,50.0,120,180,5.0,50.0
1858,62.0,120,120,3.0,51.0
1859,50.0,120,180,5.0,52.0
1860,66.0,0,420,1.0,50.0
1861,62.0,120,95,3.0,52.0
1862,62.0,120,120,3.0,55.0
1863,55.0,120,360,5.0,55.0
1864,61.0,120,120,3.0,54.0
1865,71.0,0,360,1.0,55.0
1866,73.0,0,40,1.0,48.0
1867,71.0,40,40,1.0,49.0
1868,69.0,40,40,1.0,50.0
1869,62.0,120,120,3.0,53.0
1870,71.0,40,155,1.0,51.0
1871,62.0,120,120,3.0,52.0
1872,61.0,0,120,3.0,52.0
1873,55.0,0,360,5.0,53.0
1874,73.0,120,155,1.0,52.0
1875,62.0,120,120,3.0,51.0
1876,62.0,120,120,3.0,50.0
1877,76.0,0,240,1.0,51.0
1878,61.0,120,120,3.0,49.0
1879,55.0,120,360,5.0,51.0
1880,74.0,0,190,1.0,49.0
1881,62.0,120,120,3.0,49.0
1882,62.0,120,120,3.0,48.0
1883,73.0,120,240,1.0,48.0
1884,55.0,0,360,5.0,48.0
1885,61.0,0,120,3.0,47.0
1886,71.0,120,190,1.0,47.0
1887,62.0,120,120,3.0,46.0
1888,69.0,0,240,1.0,46.0
1889,62.0,120,120,3.0,48.0
1890,61.0,120,120,3.0,51.0
1891,54.0,120,360,5.0,46.0
1892,62.0,120,95,3.0,53.0
1893,42.0,0,180,5.0,62.0
1894,50.0,120,120,3.0,63.0
1895,42.0,120,180,5.0,63.0
1896,81.0,0,480,1.0,62.0
1897,69.0,120,480,2.0,62.0
1898,50.0,120,120,3.0,64.0
1899,40.0,0,180,5.0,65.0
1900,50.0,120,120,3.0,66.0
1901,40.0,120,180,5.0,66.0
1902,79.0,120,480,1.0,65.0
1903,50.0,120,120,3.0,67.0
1904,67.0,0,480,2.0,65.0
1905,38.0,0,180,5.0,68.0
1906,50.0,120,120,3.0,69.0
1907,38.0,120,180,5.0,69.0
1908,78.0,120,420,1.0,68.0
1909,66.0,0,435,2.0,68.0
1910,50.0,120,95,3.0,70.0
1911,52.0,120,120,3.0,72.0
1912,47.0,120,120,3.0,71.0
1913,64.0,0,360,2.0,73.0
1914,43.0,120,360,5.0,73.0
1915,76.0,0,360,1.0,73.0
1916,83.0,0,95,1.0,70.0
1917,52.0,120,120,3.0,70.0
1918,81.0,0,120,1.0,69.0
1919,79.0,120,120,1.0,68.0
1920,52.0,0,120,3.0,68.0
1921,43.0,120,360,5.0,69.0
1922,47.0,0,120,3.0,67.0
1923,78.0,120,120,1.0,67.0
1924,76.0,0,95,1.0,66.0
1925,52.0,120,120,3.0,66.0
1926,54.0,120,120,3.0,64.0
1927,45.0,120,360,5.0,65.0
1928,50.0,120,120,3.0,63.0
1929,74.0,0,420,1.0,65.0
1930,54.0,120,120,3.0,62.0
1931,78.0,120,60,1.0,64.0
1932,76.0,60,60,1.0,63.0
1933,78.0,60,60,1.0,62.0
1934,55.0,0,120,3.0,61.0
1935,76.0,60,60,1.0,62.0
1936,78.0,60,60,1.0,61.0
1937,49.0,0,120,3.0,60.0
1938,45.0,0,360,5.0,62.0
1939,76.0,60,60,1.0,60.0
1940,74.0,60,60,1.0,60.0
1941,55.0,0,95,3.0,59.0
1942,76.0,60,60,1.0,59.0
1943,50.0,0,410,4.0,58.0
1944,66.0,0,420,2.0,58.0
1945,45.0,0,420,4.0,58.0
1946,74.0,60,420,1.0,58.0
1947,69.0,0,425,2.0,58.0
1948,38.0,0,425,5.0,58.0
1949,79.0,960,120,1.0,77.0
1950,78.0,120,120,1.0,75.0
1951,76.0,120,120,1.0,74.0
1952,78.0,120,95,1.0,72.0
1953,66.0,0,480,4.0,77.0
1954,62.0,0,480,5.0,77.0
1955,81.0,0,120,1.0,71.0
1956,79.0,120,120,1.0,69.0
1957,78.0,120,120,1.0,67.0
1958,79.0,120,95,1.0,66.0
1959,67.0,120,480,4.0,71.0
1960,64.0,0,480,5.0,71.0
1961,69.0,0,420,4.0,64.0
1962,66.0,120,420,5.0,64.0
1963,81.0,0,425,1.0,64.0
1964,81.0,960,155,1.0,44.0
1965,83.0,240,155,1.0,47.0
1966,85.0,240,155,1.0,49.0
1967,86.0,240,155,1.0,52.0
1968,81.0,0,480,1.0,55.0
1969,62.0,240,240,4.0,54.0
1970,54.0,240,480,5.0,55.0
1971,78.0,0,435,1.0,52.0
1972,62.0,240,240,4.0,50.0
1973,50.0,240,480,5.0,52.0
1974,81.0,240,120,1.0,48.0
1975,79.0,120,120,1.0,47.0
1976,78.0,120,120,1.0,46.0
1977,52.0,0,480,5.0,48.0
1978,79.0,120,120,1.0,45.0
1979,62.0,0,240,4.0,46.0
1980,81.0,120,155,1.0,44.0
1981,79.0,240,155,1.0,42.0
1982,57.0,0,427,5.0,44.0
1983,61.0,0,190,4.0,42.0
1984,77.0,240,255,1.0,45.0
1985,62.0,0,420,4.0,45.0
1986,50.0,0,425,5.0,45.0
1987,78.0,240,185,1.0,38.0
1988,79.0,720,120,1.0,69.0
1989,62.0,0,155,5.0,69.0
1990,66.0,0,155,4.0,69.0
1991,78.0,120,120,1.0,68.0
1992,76.0,0,120,1.0,66.0
1993,62.0,120,155,5.0,66.0
1994,66.0,0,155,4.0,66.0
1995,78.0,120,95,1.0,65.0
1996,81.0,120,120,1.0,64.0
1997,67.0,0,155,4.0,64.0
1998,64.0,0,155,5.0,64.0
1999,79.0,120,120,1.0,63.0
2000,78.0,0,120,1.0,62.0
2001,67.0,120,155,4.0,62.0
2002,64.0,0,155,5.0,62.0
2003,79.0,120,95,1.0,61.0
2004,69.0,120,420,4.0,59.0
2005,81.0,0,425,1.0,59.0
2006,66.0,0,425,5.0,59.0
2007,81.0,960,155,1.0,38.0
2008,83.0,240,155,1.0,39.0
2009,85.0,240,155,1.0,42.0
2010,86.0,240,155,1.0,45.0
2011,81.0,240,480,1.0,49.0
2012,62.0,240,240,4.0,46.0
2013,54.0,0,480,5.0,49.0
2014,78.0,240,410,1.0,45.0
2015,50.0,0,480,5.0,45.0
2016,62.0,240,240,4.0,43.0
2017,81.0,240,120,1.0,41.0
2018,79.0,120,120,1.0,41.0
2019,78.0,120,120,1.0,40.0
2020,79.0,120,95,1.0,39.0
2021,52.0,0,480,5.0,41.0
2022,62.0,0,240,4.0,40.0
2023,81.0,0,120,1.0,38.0
2024,79.0,120,120,1.0,37.0
2025,78.0,120,120,1.0,37.0
2026,61.0,0,190,4.0,37.0
2027,57.0,120,442,5.0,38.0
2028,76.0,120,95,1.0,36.0
2029,74.0,0,120,1.0,76.0
2030,62.0,0,120,3.0,76.0
2031,76.0,120,120,1.0,76.0
2032,54.0,120,360,5.0,76.0
2033,57.0,120,120,3.0,77.0
2034,78.0,0,120,1.0,77.0
2035,62.0,120,120,3.0,78.0
2036,79.0,0,120,1.0,78.0
2037,81.0,120,120,1.0,78.0
2038,62.0,120,120,3.0,79.0
2039,83.0,0,120,1.0,79.0
2040,54.0,0,360,5.0,78.0
2041,57.0,0,120,3.0,79.0
2042,85.0,120,120,1.0,79.0
2043,86.0,120,95,1.0,80.0
2044,62.0,0,125,3.0,80.0
2045,62.0,120,120,3.0,81.0
2046,59.0,120,120,3.0,82.0
2047,55.0,0,360,5.0,80.0
2048,85.0,120,480,1.0,80.0
2049,62.0,120,120,3.0,82.0
2050,83.0,0,240,1.0,83.0
2051,62.0,120,120,3.0,83.0
2052,55.0,120,360,5.0,83.0
2053,59.0,120,120,3.0,84.0
2054,62.0,0,95,3.0,85.0
2055,79.0,120,95,1.0,85.0
2056,66.0,120,120,3.0,85.0
2057,62.0,120,120,3.0,84.0
2058,57.0,0,360,5.0,85.0
2059,66.0,120,120,3.0,84.0
2060,78.0,120,480,1.0,85.0
2061,81.0,120,240,1.0,83.0
2062,66.0,120,120,3.0,82.0
2063,62.0,120,120,3.0,82.0
2064,57.0,0,360,5.0,83.0
2065,74.0,0,95,1.0,81.0
2066,66.0,120,120,3.0,81.0
2067,67.0,120,120,3.0,80.0
2068,64.0,120,120,3.0,79.0
2069,57.0,0,360,5.0,81.0
2070,76.0,120,480,1.0,81.0
2071,67.0,120,120,3.0,79.0
2072,79.0,120,240,1.0,78.0
2073,67.0,120,120,3.0,78.0
2074,57.0,0,360,5.0,78.0
2075,64.0,120,120,3.0,77.0
2076,67.0,0,95,3.0,76.0
2077,73.0,120,95,1.0,76.0
2078,74.0,0,120,1.0,70.0
2079,76.0,0,120,1.0,71.0
2080,62.0,120,120,3.0,71.0
2081,78.0,120,120,1.0,71.0
2082,54.0,120,360,5.0,70.0
2083,57.0,0,120,3.0,71.0
2084,79.0,0,120,1.0,72.0
2085,62.0,120,120,3.0,72.0
2086,81.0,120,120,1.0,73.0
2087,83.0,0,120,1.0,73.0
2088,62.0,120,120,3.0,73.0
2089,85.0,0,120,1.0,74.0
2090,54.0,0,360,5.0,73.0
2091,57.0,120,120,3.0,74.0
2092,86.0,120,95,1.0,75.0
2093,62.0,0,120,3.0,75.0
2094,88.0,120,120,1.0,75.0
2095,62.0,0,120,3.0,76.0
2096,86.0,120,120,1.0,76.0
2097,85.0,0,120,1.0,77.0
2098,55.0,0,360,5.0,75.0
2099,59.0,120,120,3.0,77.0
2100,86.0,120,95,1.0,77.0
2101,62.0,0,120,3.0,77.0
2102,85.0,120,120,1.0,78.0
2103,83.0,0,120,1.0,79.0
2104,62.0,120,120,3.0,79.0
2105,81.0,120,120,1.0,80.0
2106,59.0,0,120,3.0,80.0
2107,55.0,0,360,5.0,78.0
2108,79.0,120,95,1.0,80.0
2109,62.0,0,95,3.0,80.0
2110,78.0,120,120,1.0,81.0
2111,66.0,120,120,3.0,81.0
2112,79.0,0,120,1.0,81.0
2113,80.0,0,120,1.0,80.0
2114,62.0,120,120,3.0,80.0
2115,57.0,0,360,5.0,81.0
2116,81.0,120,95,1.0,80.0
2117,66.0,0,120,3.0,80.0
2118,79.0,120,120,1.0,79.0
2119,66.0,120,120,3.0,78.0
2120,78.0,0,120,1.0,78.0
2121,62.0,0,120,3.0,77.0
2122,57.0,0,360,5.0,79.0
2123,76.0,120,120,1.0,77.0
2124,74.0,0,95,1.0,76.0
2125,66.0,120,120,3.0,76.0
2126,75.0,120,120,1.0,76.0
2127,67.0,120,120,3.0,75.0
2128,76.0,0,120,1.0,75.0
2129,64.0,120,120,3.0,74.0
2130,78.0,0,120,1.0,74.0
2131,57.0,0,360,5.0,76.0
2132,79.0,120,95,1.0,73.0
2133,67.0,0,120,3.0,73.0
2134,78.0,120,120,1.0,73.0
2135,67.0,120,120,3.0,72.0
2136,76.0,0,120,1.0,72.0
2137,74.0,120,120,1.0,71.0
2138,64.0,0,120,3.0,71.0
2139,57.0,0,360,5.0,73.0
2140,73.0,0,95,1.0,70.0
2141,67.0,120,120,3.0,70.0
2142,74.0,120,95,1.0,70.0
2143,69.0,120,95,1.0,72.0
2144,74.0,120,95,1.0,73.0
2145,62.0,0,425,5.0,70.0
2146,66.0,0,425,4.0,70.0
2147,78.0,120,95,1.0,74.0
2148,81.0,120,95,1.0,76.0
2149,78.0,120,95,1.0,77.0
2150,79.0,120,95,1.0,78.0
2151,61.0,0,155,4.0,78.0
2152,64.0,0,155,4.0,78.0
2153,57.0,0,155,5.0,78.0
2154,76.0,120,95,1.0,80.0
2155,74.0,0,95,1.0,81.0
2156,69.0,120,95,1.0,82.0
2157,74.0,120,95,1.0,84.0
2158,66.0,120,420,4.0,81.0
2159,62.0,0,425,5.0,81.0
2160,78.0,120,95,1.0,85.0
2161,81.0,120,95,1.0,87.0
2162,78.0,120,95,1.0,88.0
2163,79.0,0,95,1.0,89.0
2164,57.0,0,155,5.0,89.0
2165,61.0,0,155,4.0,89.0
2166,64.0,120,155,4.0,89.0
2167,76.0,120,95,1.0,91.0
2168,66.0,0,385,4.0,92.0
2169,62.0,0,385,5.0,92.0
2170,74.0,120,385,1.0,92.0
2171,58.0,0,385,5.0,86.0
2172,76.0,0,385,2.0,86.0
2173,85.0,480,385,1.0,86.0
2174,46.0,0,385,5.0,86.0
2175,79.0,0,385,2.0,86.0
2176,47.0,0,385,5.0,78.0
2177,74.0,480,385,2.0,78.0
2178,78.0,0,385,2.0,78.0
2179,86.0,0,385,1.0,78.0
2180,59.0,0,385,5.0,78.0
2181,79.0,960,240,1.0,50.0
2182,78.0,240,190,1.0,45.0
2183,78.0,240,240,1.0,53.0
2184,55.0,0,900,5.0,44.0
2185,43.0,0,900,5.0,44.0
2186,76.0,240,190,1.0,47.0
2187,76.0,0,240,1.0,54.0
2188,74.0,240,190,1.0,49.0
2189,74.0,240,240,1.0,56.0
2190,57.0,0,890,5.0,48.0
2191,45.0,240,905,5.0,48.0
2192,73.0,240,190,1.0,51.0
2193,50.0,240,310,5.0,55.0
2194,45.0,480,310,5.0,46.0
2195,73.0,0,960,1.0,62.0
2196,67.0,0,960,2.0,62.0
2197,64.0,0,965,2.0,62.0
2198,38.0,0,240,5.0,40.0
2199,66.0,0,240,2.0,40.0
2200,74.0,480,240,1.0,40.0
2201,71.0,960,425,1.0,43.0
2202,74.0,420,60,1.0,44.0
2203,72.0,60,360,1.0,44.0
2204,71.0,360,95,1.0,45.0
2205,55.0,0,960,5.0,43.0
2206,54.0,0,480,5.0,46.0
2207,69.0,120,480,1.0,46.0
2208,71.0,0,385,1.0,46.0
2209,62.0,0,1830,4.0,43.0
2210,55.0,480,395,5.0,46.0
2211,57.0,480,480,5.0,49.0
2212,72.0,0,480,1.0,49.0
2213,74.0,0,385,1.0,47.0
2214,54.0,480,480,5.0,47.0
2215,72.0,480,240,1.0,45.0
2216,71.0,240,240,1.0,44.0
2217,69.0,240,240,1.0,42.0
2218,55.0,0,900,5.0,45.0
2219,62.0,0,1865,4.0,49.0
2220,67.0,240,190,1.0,40.0
2221,64.0,0,310,4.0,66.0
2222,67.0,0,310,2.0,66.0
2223,52.0,0,310,5.0,66.0
2224,72.0,240,310,1.0,66.0
2225,71.0,0,310,1.0,62.0
2226,67.0,480,310,2.0,62.0
2227,50.0,0,310,5.0,62.0
2228,62.0,0,310,4.0,62.0
2229,60.0,0,310,4.0,58.0
2230,67.0,0,310,2.0,58.0
2231,48.0,480,310,5.0,58.0
2232,76.0,0,310,1.0,58.0
2233,74.0,720,190,1.0,45.0
2234,59.0,0,190,5.0,45.0
2235,72.0,240,240,1.0,44.0
2236,69.0,240,240,1.0,42.0
2237,54.0,0,480,5.0,44.0
2238,71.0,240,240,1.0,41.0
2239,62.0,0,900,4.0,44.0
2240,55.0,0,420,5.0,41.0
2241,67.0,240,190,1.0,40.0
2242,67.0,240,480,2.0,39.0
2243,71.0,0,480,1.0,39.0
2244,66.0,480,385,2.0,34.0
2245,69.0,0,385,1.0,34.0
2246,62.0,0,875,4.0,39.0
2247,50.0,0,885,5.0,39.0
2248,71.0,480,425,1.0,42.0
2249,74.0,420,60,1.0,44.0
2250,72.0,60,360,1.0,44.0
2251,71.0,360,95,1.0,45.0
2252,55.0,0,960,5.0,42.0
2253,54.0,120,480,5.0,45.0
2254,69.0,0,480,1.0,45.0
2255,71.0,0,385,1.0,42.0
2256,62.0,0,1860,4.0,42.0
2257,55.0,480,435,5.0,42.0
2258,72.0,0,480,1.0,49.0
2259,57.0,0,480,5.0,49.0
2260,76.0,480,240,1.0,45.0
2261,54.0,0,480,5.0,45.0
2262,74.0,240,240,1.0,44.0
2263,72.0,0,240,1.0,42.0
2264,71.0,240,240,1.0,41.0
2265,69.0,240,240,1.0,40.0
2266,55.0,240,900,5.0,42.0
2267,62.0,480,1865,4.0,49.0
2268,67.0,240,190,1.0,38.0
2269,72.0,0,310,1.0,71.0
2270,52.0,240,310,5.0,71.0
2271,67.0,0,310,2.0,71.0
2272,64.0,0,310,4.0,71.0
2273,67.0,480,310,2.0,68.0
2274,71.0,0,310,1.0,68.0
2275,50.0,0,310,5.0,68.0
2276,62.0,0,310,4.0,68.0
2277,76.0,0,240,1.0,64.0
2278,67.0,0,305,2.0,64.0
2279,60.0,0,310,4.0,64.0
2280,48.0,480,310,5.0,64.0
2281,78.0,240,240,1.0,56.0
2282,79.0,240,240,1.0,53.0
2283,72.0,0,190,1.0,50.0
2284,55.0,240,190,4.0,50.0
2285,52.0,0,190,5.0,50.0
2286,55.0,240,480,4.0,49.0
2287,71.0,0,480,1.0,49.0
2288,69.0,480,80,1.0,44.0
2289,71.0,80,80,1.0,43.0
2290,69.0,80,80,1.0,42.0
2291,67.0,80,120,1.0,42.0
2292,50.0,0,900,5.0,49.0
2293,54.0,0,425,4.0,44.0
2294,69.0,120,120,1.0,40.0
2295,59.0,240,240,3.0,38.0
2296,62.0,240,240,3.0,39.0
2297,67.0,0,900,1.0,38.0
2298,55.0,120,900,5.0,38.0
2299,59.0,240,190,3.0,40.0
2300,52.0,240,240,3.0,41.0
2301,57.0,240,240,3.0,42.0
2302,69.0,0,905,1.0,41.0
2303,52.0,240,190,3.0,43.0
2304,48.0,240,915,5.0,41.0
2305,67.0,240,240,1.0,43.0
2306,66.0,0,190,1.0,44.0
2307,60.0,240,240,3.0,44.0
2308,57.0,240,240,3.0,45.0
2309,66.0,0,240,1.0,45.0
2310,60.0,240,190,3.0,45.0
2311,62.0,0,190,1.0,45.0
2312,50.0,0,915,5.0,43.0
2313,59.0,240,240,3.0,47.0
2314,62.0,240,240,3.0,48.0
2315,71.0,240,905,1.0,46.0
2316,59.0,240,190,3.0,48.0
2317,55.0,0,920,5.0,46.0
2318,67.0,240,480,1.0,49.0
2319,55.0,240,240,3.0,50.0
2320,67.0,240,80,1.0,46.0
2321,69.0,80,80,1.0,47.0
2322,59.0,0,240,3.0,50.0
2323,67.0,80,80,1.0,48.0
2324,66.0,80,120,1.0,49.0
2325,55.0,0,190,3.0,51.0
2326,52.0,0,915,5.0,49.0
2327,67.0,120,95,1.0,51.0
2328,69.0,120,420,1.0,52.0
2329,52.0,240,240,3.0,53.0
2330,57.0,240,240,3.0,53.0
2331,69.0,0,420,1.0,53.0
2332,48.0,0,905,5.0,52.0
2333,52.0,240,190,3.0,54.0
2334,67.0,240,240,1.0,55.0
2335,66.0,0,190,1.0,55.0
2336,60.0,240,240,3.0,55.0
2337,66.0,240,240,1.0,56.0
2338,57.0,0,240,3.0,56.0
2339,50.0,0,900,5.0,55.0
2340,60.0,0,190,3.0,57.0
2341,62.0,240,190,1.0,57.0
2342,67.0,240,770,1.0,58.0
2343,55.0,0,770,5.0,58.0
2344,63.0,0,385,1.0,60.0
2345,57.0,0,385,4.0,60.0
2346,54.0,960,385,4.0,60.0
2347,47.0,0,385,5.0,60.0
2348,47.0,0,385,5.0,62.0
2349,54.0,0,385,4.0,62.0
2350,57.0,0,385,4.0,62.0
2351,63.0,480,385,1.0,62.0
2352,64.0,0,240,1.0,63.0
2353,66.0,240,240,1.0,64.0
2354,67.0,240,240,1.0,65.0
2355,55.0,0,770,4.0,63.0
2356,52.0,480,770,5.0,63.0
2357,64.0,240,190,1.0,65.0
2358,62.0,0,240,1.0,66.0
2359,52.0,0,385,4.0,66.0
2360,45.0,240,385,5.0,66.0
2361,55.0,0,385,4.0,66.0
2362,61.0,240,190,1.0,67.0
2363,61.0,240,240,1.0,67.0
2364,55.0,0,385,4.0,67.0
2365,52.0,0,385,4.0,67.0
2366,45.0,0,385,5.0,67.0
2367,57.0,240,190,1.0,68.0
2368,54.0,0,770,4.0,69.0
2369,50.0,240,770,5.0,69.0
2370,69.0,0,770,1.0,69.0
2371,74.0,0,385,1.0,72.0
2372,68.0,0,385,2.0,72.0
2373,47.0,960,385,5.0,72.0
2374,59.0,0,385,5.0,72.0
2375,62.0,0,385,2.0,72.0
2376,47.0,0,385,5.0,73.0
2377,59.0,480,385,5.0,73.0
2378,68.0,0,385,2.0,73.0
2379,74.0,0,385,1.0,73.0
2380,62.0,0,385,2.0,73.0
2381,74.0,480,770,1.0,75.0
2382,62.0,0,770,2.0,75.0
2383,68.0,0,770,2.0,75.0
2384,47.0,0,770,5.0,75.0
2385,59.0,0,770,5.0,75.0
2386,57.0,960,385,5.0,46.0
2387,81.0,0,385,1.0,46.0
2388,73.0,0,385,2.0,46.0
2389,64.0,0,385,5.0,46.0
2390,64.0,0,385,5.0,41.0
2391,57.0,480,385,5.0,41.0
2392,81.0,0,385,1.0,41.0
2393,73.0,0,385,2.0,41.0
2394,81.0,480,770,1.0,35.0
2395,57.0,0,770,5.0,35.0
2396,64.0,0,770,5.0,35.0
2397,73.0,0,770,2.0,35.0
2398,78.0,1440,60,1.0,50.0
2399,79.0,60,60,1.0,52.0
2400,78.0,60,60,1.0,53.0
2401,76.0,60,60,1.0,55.0
2402,78.0,60,120,1.0,56.0
2403,79.0,120,95,1.0,59.0
2404,62.0,0,240,5.0,62.0
2405,81.0,120,425,1.0,62.0
2406,66.0,240,240,3.0,61.0
2407,69.0,0,240,3.0,61.0
2408,66.0,240,240,3.0,61.0
2409,81.0,240,650,1.0,61.0
2410,62.0,240,240,5.0,60.0
2411,81.0,0,240,1.0,60.0
2412,66.0,240,240,3.0,60.0
2413,81.0,240,60,1.0,52.0
2414,83.0,60,60,1.0,53.0
2415,81.0,60,60,1.0,54.0
2416,79.0,60,60,1.0,55.0
2417,69.0,0,240,3.0,60.0
2418,81.0,0,120,1.0,55.0
2419,66.0,60,190,3.0,59.0
2420,83.0,120,95,1.0,57.0
2421,81.0,0,240,1.0,59.0
2422,62.0,120,240,5.0,59.0
2423,79.0,240,190,1.0,59.0
2424,64.0,0,240,3.0,59.0
2425,71.0,0,240,3.0,58.0
2426,64.0,240,240,3.0,58.0
2427,79.0,240,680,1.0,58.0
2428,62.0,240,240,5.0,58.0
2429,79.0,240,155,1.0,57.0
2430,64.0,0,240,3.0,57.0
2431,78.0,240,155,1.0,57.0
2432,71.0,0,240,3.0,57.0
2433,76.0,240,155,1.0,57.0
2434,64.0,0,190,3.0,57.0
2435,76.0,240,240,1.0,57.0
2436,61.0,0,240,5.0,57.0
2437,81.0,0,190,1.0,56.0
2438,64.0,240,240,3.0,56.0
2439,69.0,0,240,3.0,56.0
2440,64.0,240,240,3.0,56.0
2441,59.0,240,240,5.0,55.0
2442,81.0,240,735,1.0,56.0
2443,83.0,240,120,1.0,55.0
2444,81.0,120,95,1.0,55.0
2445,64.0,0,240,3.0,55.0
2446,81.0,0,120,1.0,55.0
2447,67.0,120,240,3.0,55.0
2448,79.0,120,120,1.0,55.0
2449,78.0,0,120,1.0,54.0
2450,62.0,120,190,3.0,54.0
2451,79.0,120,95,1.0,54.0
2452,58.0,0,240,5.0,54.0
2453,79.0,120,240,1.0,54.0
2454,78.0,0,190,1.0,54.0
2455,61.0,240,240,3.0,54.0
2456,64.0,0,240,3.0,53.0
2457,58.0,240,190,3.0,53.0
2458,78.0,240,675,1.0,53.0
2459,59.0,240,240,5.0,53.0
2460,78.0,240,60,1.0,49.0
2461,79.0,60,60,1.0,51.0
2462,81.0,60,95,1.0,53.0
2463,66.0,0,240,3.0,52.0
2464,79.0,0,155,1.0,52.0
2465,57.0,120,240,5.0,52.0
2466,78.0,0,155,1.0,52.0
2467,62.0,240,190,3.0,52.0
2468,56.0,0,240,5.0,52.0
2469,78.0,240,240,1.0,52.0
2470,76.0,0,155,1.0,51.0
2471,59.0,240,240,3.0,51.0
2472,76.0,0,155,1.0,51.0
2473,62.0,240,240,3.0,51.0
2474,76.0,240,155,1.0,51.0
2475,59.0,0,240,3.0,51.0
2476,56.0,0,240,5.0,50.0
2477,76.0,240,425,1.0,50.0
2478,59.0,240,240,3.0,50.0
2479,62.0,0,240,3.0,50.0
2480,76.0,240,410,1.0,50.0
2481,59.0,240,190,3.0,49.0
2482,80.0,240,60,1.0,45.0
2483,81.0,60,60,1.0,46.0
2484,83.0,60,60,1.0,48.0
2485,55.0,0,240,5.0,49.0
2486,61.0,60,240,3.0,49.0
2487,64.0,240,240,3.0,48.0
2488,55.0,240,190,3.0,48.0
2489,81.0,60,945,1.0,50.0
2490,54.0,240,240,5.0,48.0
2491,83.0,0,120,1.0,48.0
2492,81.0,120,95,1.0,47.0
2493,62.0,240,240,3.0,48.0
2494,79.0,120,240,1.0,47.0
2495,59.0,0,240,3.0,47.0
2496,57.0,240,190,3.0,47.0
2497,78.0,0,190,1.0,47.0
2498,78.0,0,240,1.0,47.0
2499,76.0,240,240,1.0,47.0
2500,75.0,240,240,1.0,46.0
2501,76.0,240,190,1.0,45.0
2502,78.0,240,240,1.0,45.0
2503,59.0,0,1380,4.0,47.0
2504,55.0,240,1380,5.0,47.0
2505,79.0,240,190,1.0,44.0
2506,71.0,0,240,1.0,44.0
2507,56.0,240,420,5.0,44.0
2508,64.0,0,420,4.0,44.0
2509,76.0,240,190,1.0,43.0
2510,74.0,240,240,1.0,42.0
2511,73.0,240,240,1.0,42.0
2512,71.0,240,240,1.0,41.0
2513,57.0,0,900,5.0,42.0
2514,64.0,0,900,4.0,42.0
2515,69.0,240,240,1.0,40.0
2516,71.0,240,240,1.0,38.0
2517,73.0,240,240,1.0,39.0
2518,74.0,240,240,1.0,39.0
2519,76.0,240,190,1.0,40.0
2520,74.0,0,240,5.0,41.0
2521,78.0,240,435,1.0,41.0
2522,81.0,180,60,1.0,43.0
2523,69.0,240,240,3.0,42.0
2524,74.0,0,240,5.0,43.0
2525,79.0,60,360,1.0,43.0
2526,69.0,240,190,3.0,44.0
2527,78.0,120,95,1.0,44.0
2528,73.0,0,240,5.0,45.0
2529,76.0,120,480,1.0,45.0
2530,69.0,240,240,3.0,45.0
2531,74.0,0,240,5.0,46.0
2532,78.0,240,385,1.0,46.0
2533,69.0,240,190,3.0,47.0
2534,76.0,240,240,5.0,48.0
2535,69.0,240,240,3.0,46.0
2536,79.0,0,480,1.0,48.0
2537,73.0,240,240,5.0,45.0
2538,81.0,0,385,1.0,45.0
2539,69.0,240,190,3.0,44.0
2540,74.0,240,240,5.0,43.0
2541,69.0,240,240,3.0,42.0
2542,79.0,0,480,1.0,43.0
2543,74.0,0,240,5.0,41.0
2544,78.0,240,385,1.0,41.0
2545,69.0,240,190,3.0,40.0
2546,81.0,0,120,3.0,46.0
2547,83.0,80,80,3.0,47.0
2548,81.0,80,120,3.0,47.0
2549,83.0,80,80,3.0,47.0
2550,66.0,0,420,5.0,46.0
2551,62.0,240,425,4.0,46.0
2552,81.0,80,120,3.0,48.0
2553,83.0,80,80,3.0,48.0
2554,69.0,20,60,5.0,48.0
2555,81.0,60,120,3.0,48.0
2556,83.0,80,80,3.0,49.0
2557,81.0,80,120,3.0,49.0
2558,83.0,80,80,3.0,49.0
2559,67.0,0,360,5.0,48.0
2560,64.0,0,360,4.0,48.0
2561,81.0,80,120,3.0,50.0
2562,62.0,0,95,4.0,50.0
2563,66.0,40,95,5.0,50.0
2564,83.0,40,80,3.0,50.0
2565,81.0,80,120,3.0,50.0
2566,83.0,80,80,3.0,51.0
2567,81.0,80,120,3.0,51.0
2568,83.0,80,80,3.0,51.0
2569,81.0,80,120,3.0,52.0
2570,83.0,80,80,3.0,52.0
2571,61.0,0,480,4.0,50.0
2572,64.0,0,480,5.0,50.0
2573,81.0,0,120,3.0,52.0
2574,83.0,80,80,3.0,53.0
2575,81.0,80,120,3.0,53.0
2576,83.0,80,80,3.0,54.0
2577,66.0,0,385,5.0,52.0
2578,62.0,80,385,4.0,52.0
2579,81.0,80,120,3.0,54.0
2580,83.0,80,80,3.0,54.0
2581,81.0,0,120,3.0,55.0
2582,83.0,80,80,3.0,55.0
2583,81.0,80,120,3.0,54.0
2584,83.0,80,80,3.0,54.0
2585,81.0,80,120,3.0,54.0
2586,83.0,80,80,3.0,53.0
2587,64.0,0,480,4.0,55.0
2588,67.0,80,480,5.0,55.0
2589,81.0,0,120,3.0,53.0
2590,83.0,80,80,3.0,52.0
2591,81.0,80,120,3.0,52.0
2592,83.0,80,80,3.0,52.0
2593,81.0,80,120,3.0,51.0
2594,69.0,0,480,5.0,53.0
2595,66.0,80,480,4.0,53.0
2596,83.0,80,80,3.0,51.0
2597,81.0,80,120,3.0,50.0
2598,83.0,80,80,3.0,50.0
2599,81.0,80,120,3.0,49.0
2600,83.0,80,95,3.0,49.0
2601,81.0,80,120,3.0,49.0
2602,64.0,0,480,4.0,50.0
2603,67.0,0,480,5.0,50.0
2604,83.0,80,95,3.0,48.0
2605,81.0,80,120,3.0,48.0
2606,83.0,80,85,3.0,47.0
2607,81.0,80,100,3.0,47.0
2608,80.0,80,135,3.0,46.0
2609,62.0,0,385,4.0,48.0
2610,66.0,0,385,5.0,48.0
2611,81.0,120,120,3.0,46.0
2612,74.0,120,480,2.0,72.0
2613,69.0,0,480,4.0,72.0
2614,86.0,0,480,1.0,72.0
2615,66.0,0,480,5.0,72.0
2616,70.0,480,480,4.0,67.0
2617,85.0,0,480,1.0,67.0
2618,67.0,0,480,4.0,67.0
2619,73.0,0,480,2.0,67.0
2620,64.0,0,480,5.0,67.0
2621,62.0,0,385,4.0,62.0
2622,66.0,480,385,5.0,62.0
2623,71.0,0,385,2.0,62.0
2624,83.0,0,385,1.0,62.0
2625,78.0,720,190,1.0,44.0
2626,66.0,0,480,4.0,47.0
2627,71.0,240,480,2.0,47.0
2628,83.0,0,480,1.0,47.0
2629,62.0,0,480,5.0,47.0
2630,60.0,0,480,5.0,43.0
2631,66.0,0,480,4.0,43.0
2632,81.0,0,480,1.0,43.0
2633,69.0,480,480,2.0,43.0
2634,62.0,480,0,4.0,37.0
2635,59.0,0,385,5.0,37.0
2636,79.0,0,385,1.0,37.0
2637,67.0,0,385,2.0,37.0
2638,74.0,720,190,1.0,63.0
2639,67.0,240,480,2.0,66.0
2640,79.0,0,480,1.0,66.0
2641,59.0,0,480,5.0,66.0
2642,62.0,0,480,4.0,66.0
2643,57.0,480,385,5.0,63.0
2644,66.0,0,385,2.0,63.0
2645,78.0,0,385,1.0,63.0
2646,63.0,0,385,4.0,63.0
2647,60.0,0,385,4.0,63.0
2648,76.0,0,240,1.0,60.0
2649,83.0,240,190,1.0,58.0
2650,81.0,240,120,1.0,57.0
2651,79.0,120,120,1.0,56.0
2652,78.0,120,120,1.0,55.0
2653,64.0,0,900,4.0,60.0
2654,59.0,480,905,4.0,60.0
2655,55.0,0,905,5.0,60.0
2656,76.0,120,95,1.0,54.0
2657,74.0,120,480,1.0,53.0
2658,66.0,0,480,4.0,53.0
2659,61.0,0,375,4.0,50.0
2660,57.0,0,860,5.0,53.0
2661,76.0,480,385,1.0,50.0
2662,61.0,0,480,4.0,46.0
2663,77.0,0,480,1.0,46.0
2664,50.0,480,855,5.0,46.0
2665,62.0,0,380,4.0,43.0
2666,78.0,480,385,1.0,43.0
2667,69.0,0,480,4.0,52.0
2668,66.0,480,480,5.0,52.0
2669,86.0,0,480,1.0,52.0
2670,85.0,480,80,1.0,48.0
2671,86.0,80,80,1.0,47.0
2672,85.0,80,80,1.0,46.0
2673,83.0,80,120,1.0,46.0
2674,70.0,0,480,4.0,48.0
2675,85.0,120,120,1.0,45.0
2676,64.0,0,480,5.0,48.0
2677,67.0,0,480,4.0,48.0
2678,66.0,0,385,4.0,43.0
2679,71.0,0,385,4.0,43.0
2680,83.0,120,385,1.0,43.0
2681,62.0,0,385,5.0,43.0
2682,78.0,720,190,1.0,60.0
2683,83.0,0,480,1.0,65.0
2684,66.0,0,0,4.0,61.0
2685,62.0,240,480,5.0,65.0
2686,81.0,0,80,1.0,61.0
2687,83.0,80,80,1.0,60.0
2688,81.0,80,80,1.0,59.0
2689,79.0,80,120,1.0,58.0
2690,81.0,120,120,1.0,57.0
2691,60.0,0,480,5.0,61.0
2692,62.0,0,0,4.0,55.0
2693,67.0,0,385,4.0,55.0
2694,59.0,0,385,5.0,55.0
2695,79.0,120,385,1.0,55.0
2696,74.0,720,190,1.0,46.0
2697,62.0,0,480,4.0,51.0
2698,79.0,240,480,1.0,51.0
2699,59.0,0,480,5.0,51.0
2700,78.0,0,80,1.0,49.0
2701,79.0,80,80,1.0,49.0
2702,78.0,80,80,1.0,48.0
2703,76.0,80,120,1.0,48.0
2704,78.0,120,120,1.0,48.0
2705,63.0,480,480,4.0,49.0
2706,57.0,0,480,5.0,49.0
2707,60.0,0,480,4.0,49.0
2708,76.0,120,240,1.0,47.0
2709,83.0,240,190,1.0,46.0
2710,81.0,240,120,1.0,45.0
2711,79.0,120,120,1.0,45.0
2712,78.0,120,120,1.0,44.0
2713,55.0,0,890,5.0,47.0
2714,59.0,0,900,4.0,47.0
2715,64.0,0,905,4.0,47.0
2716,76.0,120,95,1.0,44.0
2717,74.0,120,270,1.0,43.0
2718,57.0,0,385,5.0,43.0
2719,66.0,0,385,4.0,43.0
2720,62.0,0,385,4.0,43.0
2721,78.0,240,155,1.0,42.0
2722,81.0,240,705,1.0,41.0
2723,62.0,480,385,4.0,39.0
2724,66.0,0,385,4.0,39.0
2725,57.0,0,385,5.0,39.0
2726,80.0,240,240,1.0,38.0
2727,79.0,240,240,1.0,37.0
2728,78.0,240,190,1.0,36.0
2729,83.0,0,160,1.0,42.0
2730,79.0,160,160,1.0,44.0
2731,57.0,240,385,5.0,42.0
2732,64.0,0,385,4.0,42.0
2733,62.0,0,385,4.0,42.0
2734,76.0,160,130,1.0,45.0
2735,74.0,160,80,1.0,40.0
2736,76.0,80,80,1.0,41.0
2737,78.0,80,80,1.0,42.0
2738,76.0,80,80,1.0,43.0
2739,78.0,80,80,1.0,44.0
2740,76.0,80,80,1.0,45.0
2741,78.0,80,80,1.0,46.0
2742,76.0,80,80,1.0,47.0
2743,78.0,80,80,1.0,47.0
2744,76.0,80,80,1.0,48.0
2745,57.0,0,385,5.0,50.0
2746,61.0,0,385,4.0,50.0
2747,67.0,0,385,4.0,50.0
2748,78.0,80,80,1.0,49.0
2749,76.0,80,80,1.0,50.0
2750,78.0,80,120,1.0,51.0
2751,76.0,120,120,1.0,52.0
2752,74.0,120,120,1.0,54.0
2753,76.0,120,120,1.0,55.0
2754,74.0,120,240,1.0,58.0
2755,73.0,240,240,1.0,54.0
2756,74.0,240,240,1.0,52.0
2757,62.0,0,770,5.0,58.0
2758,66.0,0,770,4.0,58.0
2759,76.0,240,240,1.0,50.0
2760,74.0,240,240,1.0,47.0
2761,72.0,240,240,1.0,43.0
2762,71.0,240,240,1.0,39.0
2763,70.0,240,190,1.0,35.0
2764,71.0,0,425,1.0,40.0
2765,74.0,420,60,1.0,42.0
2766,55.0,240,485,5.0,40.0
2767,57.0,60,360,5.0,42.0
2768,72.0,0,360,1.0,42.0
2769,55.0,360,95,5.0,44.0
2770,71.0,0,95,1.0,44.0
2771,54.0,120,480,5.0,45.0
2772,69.0,0,480,1.0,45.0
2773,55.0,480,380,5.0,47.0
2774,71.0,0,385,1.0,47.0
2775,62.0,0,1835,4.0,40.0
2776,72.0,0,240,1.0,49.0
2777,74.0,240,60,1.0,47.0
2778,72.0,60,60,1.0,47.0
2779,71.0,60,60,1.0,47.0
2780,57.0,480,480,5.0,49.0
2781,72.0,60,60,1.0,46.0
2782,76.0,0,240,1.0,46.0
2783,60.0,60,240,5.0,46.0
2784,74.0,240,190,1.0,45.0
2785,59.0,0,240,5.0,45.0
2786,72.0,0,480,1.0,43.0
2787,57.0,240,480,5.0,43.0
2788,55.0,480,390,5.0,41.0
2789,71.0,0,395,1.0,41.0
2790,62.0,0,1845,4.0,49.0
2791,64.0,0,310,4.0,71.0
2792,52.0,0,310,5.0,71.0
2793,72.0,480,310,1.0,71.0
2794,67.0,0,310,2.0,71.0
2795,62.0,0,310,4.0,67.0
2796,71.0,480,310,1.0,67.0
2797,67.0,0,310,2.0,67.0
2798,50.0,0,310,5.0,67.0
2799,60.0,0,310,4.0,63.0
2800,48.0,0,310,5.0,63.0
2801,76.0,480,310,1.0,63.0
2802,67.0,0,310,2.0,63.0
2803,74.0,720,190,1.0,41.0
2804,59.0,0,190,5.0,41.0
2805,72.0,240,240,1.0,44.0
2806,54.0,0,480,5.0,44.0
2807,69.0,240,240,1.0,43.0
2808,71.0,240,240,1.0,42.0
2809,55.0,0,425,5.0,42.0
2810,67.0,240,190,1.0,40.0
2811,71.0,0,480,1.0,39.0
2812,55.0,0,480,4.0,39.0
2813,54.0,480,380,4.0,34.0
2814,50.0,240,860,5.0,39.0
2815,69.0,0,385,1.0,34.0
2816,71.0,0,240,1.0,45.0
2817,72.0,240,60,1.0,46.0
2818,71.0,60,60,1.0,46.0
2819,69.0,60,60,1.0,46.0
2820,55.0,480,480,5.0,45.0
2821,71.0,60,60,1.0,46.0
2822,72.0,0,360,1.0,47.0
2823,57.0,60,360,5.0,47.0
2824,55.0,360,95,5.0,48.0
2825,71.0,0,95,1.0,48.0
2826,69.0,120,480,1.0,49.0
2827,54.0,0,480,5.0,49.0
2828,62.0,0,1815,4.0,45.0
2829,56.0,0,385,5.0,51.0
2830,71.0,480,385,1.0,51.0
2831,72.0,0,240,1.0,53.0
2832,57.0,480,425,5.0,53.0
2833,73.0,240,240,1.0,50.0
2834,76.0,240,240,1.0,49.0
2835,54.0,0,425,5.0,49.0
2836,74.0,240,190,1.0,47.0
2837,72.0,240,360,1.0,45.0
2838,74.0,360,60,1.0,43.0
2839,72.0,60,60,1.0,42.0
2840,62.0,0,1845,4.0,53.0
2841,71.0,60,405,1.0,42.0
2842,55.0,0,890,5.0,45.0
2843,72.0,0,310,1.0,72.0
2844,64.0,480,310,4.0,72.0
2845,52.0,0,310,5.0,72.0
2846,67.0,0,310,2.0,72.0
2847,50.0,480,310,5.0,69.0
2848,71.0,0,310,1.0,69.0
2849,67.0,0,310,2.0,69.0
2850,62.0,0,310,4.0,69.0
2851,76.0,0,240,1.0,65.0
2852,67.0,0,305,2.0,65.0
2853,60.0,0,310,4.0,65.0
2854,48.0,480,310,5.0,65.0
2855,78.0,240,240,1.0,56.0
2856,79.0,240,240,1.0,53.0
2857,55.0,0,190,4.0,51.0
2858,72.0,0,190,1.0,51.0
2859,52.0,240,190,5.0,51.0
2860,71.0,0,435,1.0,48.0
2861,55.0,240,480,4.0,48.0
2862,69.0,480,95,1.0,42.0
2863,71.0,80,90,1.0,41.0
2864,69.0,80,95,1.0,41.0
2865,67.0,80,120,1.0,40.0
2866,54.0,0,420,4.0,42.0
2867,50.0,0,900,5.0,48.0
2868,69.0,120,120,1.0,38.0
2869,59.0,240,240,3.0,39.0
2870,62.0,240,240,3.0,40.0
2871,67.0,120,770,1.0,38.0
2872,59.0,240,190,3.0,41.0
2873,55.0,0,915,5.0,38.0
2874,71.0,0,240,1.0,43.0
2875,52.0,0,240,3.0,44.0
2876,57.0,240,240,3.0,45.0
2877,48.0,240,900,5.0,43.0
2878,52.0,240,190,3.0,46.0
2879,69.0,240,675,1.0,44.0
2880,67.0,0,240,1.0,47.0
2881,66.0,240,190,1.0,48.0
2882,60.0,0,240,3.0,48.0
2883,66.0,0,240,1.0,49.0
2884,57.0,240,240,3.0,49.0
2885,50.0,240,905,5.0,47.0
2886,60.0,0,190,3.0,51.0
2887,62.0,240,190,1.0,51.0
2888,59.0,240,240,3.0,53.0
2889,62.0,240,240,3.0,54.0
2890,55.0,240,900,5.0,52.0
2891,71.0,0,900,1.0,52.0
2892,59.0,240,190,3.0,55.0
2893,55.0,240,240,3.0,57.0
2894,67.0,0,720,1.0,56.0
2895,59.0,240,240,3.0,59.0
2896,69.0,0,60,1.0,54.0
2897,67.0,60,60,1.0,55.0
2898,52.0,240,905,5.0,56.0
2899,55.0,240,195,3.0,60.0
2900,66.0,60,80,1.0,57.0
2901,67.0,60,65,1.0,59.0
2902,71.0,0,245,1.0,60.0
2903,69.0,0,195,1.0,62.0
2904,52.0,240,240,3.0,62.0
2905,57.0,240,240,3.0,63.0
2906,69.0,0,425,1.0,63.0
2907,48.0,60,915,5.0,61.0
2908,52.0,240,195,3.0,64.0
2909,67.0,0,240,1.0,65.0
2910,66.0,240,190,1.0,67.0
2911,60.0,0,240,3.0,67.0
2912,66.0,240,240,1.0,68.0
2913,57.0,0,240,3.0,68.0
2914,62.0,240,190,1.0,69.0
2915,60.0,0,195,3.0,69.0
2916,50.0,240,915,5.0,65.0
2917,67.0,0,770,1.0,70.0
2918,55.0,240,770,5.0,70.0
2919,63.0,0,385,5.0,75.0
2920,79.0,0,385,1.0,75.0
2921,73.0,0,385,2.0,75.0
2922,67.0,0,385,2.0,75.0
2923,51.0,960,385,5.0,75.0
2924,73.0,0,385,2.0,77.0
2925,67.0,0,385,2.0,77.0
2926,51.0,0,385,5.0,77.0
2927,79.0,0,385,1.0,77.0
2928,63.0,480,385,5.0,77.0
2929,67.0,480,770,2.0,79.0
2930,63.0,0,770,5.0,79.0
2931,51.0,0,770,5.0,79.0
2932,79.0,0,770,1.0,79.0
2933,73.0,0,770,2.0,79.0
2934,62.0,960,385,5.0,51.0
2935,69.0,0,385,4.0,51.0
2936,86.0,0,385,1.0,51.0
2937,78.0,0,385,2.0,51.0
2938,69.0,480,385,4.0,43.0
2939,78.0,0,385,2.0,43.0
2940,62.0,0,385,5.0,43.0
2941,86.0,0,385,1.0,43.0
2942,86.0,480,770,1.0,35.0
2943,69.0,0,770,4.0,35.0
2944,62.0,0,770,5.0,35.0
2945,78.0,0,770,2.0,35.0
2946,71.0,1440,60,1.0,49.0
2947,72.0,60,60,1.0,51.0
2948,71.0,60,60,1.0,53.0
2949,69.0,60,60,1.0,55.0
2950,71.0,60,120,1.0,56.0
2951,72.0,120,95,1.0,60.0
2952,55.0,120,240,5.0,64.0
2953,74.0,0,425,1.0,64.0
2954,59.0,240,240,3.0,65.0
2955,62.0,240,240,3.0,65.0
2956,59.0,240,240,3.0,64.0
2957,74.0,0,665,1.0,65.0
2958,55.0,240,240,5.0,64.0
2959,74.0,240,240,1.0,63.0
2960,59.0,0,240,3.0,63.0
2961,74.0,0,60,1.0,63.0
2962,76.0,60,60,1.0,63.0
2963,74.0,60,60,1.0,63.0
2964,62.0,240,240,3.0,63.0
2965,72.0,60,60,1.0,63.0
2966,74.0,60,120,1.0,63.0
2967,59.0,0,190,3.0,63.0
2968,76.0,120,95,1.0,62.0
2969,55.0,0,240,5.0,62.0
2970,74.0,120,240,1.0,62.0
2971,72.0,0,190,1.0,62.0
2972,57.0,240,240,3.0,62.0
2973,64.0,0,240,3.0,61.0
2974,57.0,240,240,3.0,61.0
2975,72.0,240,660,1.0,61.0
2976,55.0,240,240,5.0,61.0
2977,72.0,240,155,1.0,60.0
2978,57.0,0,240,3.0,60.0
2979,71.0,0,155,1.0,60.0
2980,64.0,240,240,3.0,60.0
2981,69.0,240,155,1.0,59.0
2982,57.0,0,190,3.0,59.0
2983,69.0,0,240,1.0,59.0
2984,54.0,240,240,5.0,59.0
2985,74.0,0,190,1.0,59.0
2986,57.0,240,240,3.0,59.0
2987,62.0,240,240,3.0,58.0
2988,57.0,240,240,3.0,58.0
2989,52.0,240,240,5.0,57.0
2990,74.0,0,720,1.0,58.0
2991,76.0,0,120,1.0,57.0
2992,74.0,120,95,1.0,57.0
2993,55.0,240,240,3.0,57.0
2994,74.0,0,120,1.0,57.0
2995,72.0,120,120,1.0,56.0
2996,60.0,120,240,3.0,57.0
2997,71.0,120,120,1.0,56.0
2998,55.0,0,190,3.0,56.0
2999,72.0,120,95,1.0,56.0
3000,72.0,0,240,1.0,56.0
3001,51.0,120,240,5.0,56.0
3002,71.0,240,190,1.0,55.0
3003,54.0,0,240,3.0,55.0
3004,57.0,240,240,3.0,55.0
3005,51.0,240,190,3.0,54.0
3006,71.0,0,710,1.0,55.0
3007,52.0,240,240,5.0,54.0
3008,71.0,0,60,1.0,50.0
3009,72.0,60,60,1.0,52.0
3010,59.0,240,240,3.0,54.0
3011,74.0,60,135,1.0,54.0
3012,72.0,120,155,1.0,53.0
3013,50.0,0,240,5.0,53.0
3014,71.0,240,155,1.0,53.0
3015,55.0,0,190,3.0,53.0
3016,49.0,0,240,5.0,52.0
3017,71.0,240,240,1.0,52.0
3018,69.0,240,155,1.0,52.0
3019,52.0,0,240,3.0,52.0
3020,69.0,240,155,1.0,52.0
3021,55.0,0,240,3.0,52.0
3022,69.0,0,155,1.0,51.0
3023,52.0,240,240,3.0,51.0
3024,49.0,0,240,5.0,51.0
3025,69.0,240,385,1.0,51.0
3026,52.0,240,240,3.0,50.0
3027,55.0,240,240,3.0,50.0
3028,69.0,0,385,1.0,50.0
3029,52.0,240,190,3.0,50.0
3030,73.0,240,60,1.0,46.0
3031,74.0,60,60,1.0,48.0
3032,76.0,60,60,1.0,49.0
3033,48.0,0,240,5.0,49.0
3034,54.0,60,240,3.0,49.0
3035,57.0,240,240,3.0,48.0
3036,48.0,240,240,3.0,48.0
3037,74.0,60,1010,1.0,51.0
3038,47.0,240,240,5.0,48.0
3039,76.0,240,120,1.0,47.0
3040,74.0,120,120,1.0,47.0
3041,55.0,0,240,3.0,47.0
3042,72.0,120,155,1.0,47.0
3043,52.0,0,240,3.0,47.0
3044,71.0,240,155,1.0,46.0
3045,50.0,0,190,3.0,46.0
3046,71.0,240,240,1.0,46.0
3047,69.0,240,240,1.0,46.0
3048,68.0,240,240,1.0,45.0
3049,69.0,240,190,1.0,45.0
3050,71.0,240,240,1.0,44.0
3051,52.0,0,1385,3.0,46.0
3052,48.0,0,1385,5.0,46.0
3053,72.0,240,190,1.0,44.0
3054,64.0,240,240,1.0,43.0
3055,57.0,0,385,3.0,43.0
3056,49.0,0,385,5.0,43.0
3057,69.0,240,190,1.0,43.0
3058,67.0,0,240,1.0,43.0
3059,66.0,240,240,1.0,42.0
3060,64.0,240,240,1.0,42.0
3061,50.0,0,900,5.0,43.0
3062,57.0,240,905,3.0,43.0
3063,62.0,240,240,1.0,41.0
3064,64.0,240,240,1.0,40.0
3065,66.0,240,240,1.0,41.0
3066,67.0,240,240,1.0,42.0
3067,69.0,240,190,1.0,43.0
3068,67.0,240,240,5.0,44.0
3069,71.0,0,425,1.0,44.0
3070,62.0,240,240,3.0,45.0
3071,74.0,180,60,1.0,45.0
3072,67.0,60,240,5.0,46.0
3073,72.0,0,360,1.0,46.0
3074,71.0,120,95,1.0,47.0
3075,62.0,240,240,3.0,46.0
3076,66.0,0,240,5.0,47.0
3077,62.0,240,240,3.0,48.0
3078,69.0,120,480,1.0,47.0
3079,67.0,0,240,5.0,49.0
3080,62.0,240,190,3.0,50.0
3081,71.0,240,435,1.0,49.0
3082,69.0,240,240,5.0,51.0
3083,62.0,240,240,3.0,50.0
3084,72.0,0,480,1.0,51.0
3085,66.0,240,240,5.0,49.0
3086,74.0,0,385,1.0,49.0
3087,62.0,240,240,3.0,48.0
3088,67.0,240,240,5.0,46.0
3089,72.0,0,480,1.0,46.0
3090,62.0,240,240,3.0,45.0
3091,67.0,0,240,5.0,43.0
3092,71.0,240,385,1.0,43.0
3093,62.0,240,190,3.0,42.0
3094,86.0,240,120,3.0,50.0
3095,88.0,80,80,3.0,51.0
3096,86.0,80,120,3.0,51.0
3097,88.0,80,80,3.0,51.0
3098,55.0,0,425,4.0,50.0
3099,86.0,80,120,3.0,52.0
3100,59.0,0,440,5.0,50.0
3101,62.0,20,60,5.0,52.0
3102,88.0,80,80,3.0,52.0
3103,86.0,0,120,3.0,52.0
3104,88.0,80,80,3.0,53.0
3105,86.0,80,120,3.0,53.0
3106,88.0,80,80,3.0,53.0
3107,60.0,0,360,5.0,52.0
3108,57.0,60,360,4.0,52.0
3109,86.0,80,120,3.0,54.0
3110,59.0,40,95,5.0,54.0
3111,55.0,0,95,4.0,54.0
3112,88.0,40,80,3.0,54.0
3113,86.0,0,120,3.0,54.0
3114,88.0,80,80,3.0,55.0
3115,86.0,80,120,3.0,55.0
3116,88.0,80,80,3.0,56.0
3117,86.0,80,120,3.0,56.0
3118,54.0,0,480,4.0,54.0
3119,88.0,80,80,3.0,56.0
3120,57.0,80,480,5.0,54.0
3121,86.0,0,120,3.0,57.0
3122,88.0,80,80,3.0,57.0
3123,86.0,80,120,3.0,57.0
3124,88.0,80,80,3.0,58.0
3125,55.0,80,385,4.0,57.0
3126,59.0,0,385,5.0,57.0
3127,86.0,80,120,3.0,58.0
3128,88.0,80,80,3.0,58.0
3129,86.0,0,120,3.0,59.0
3130,88.0,80,80,3.0,59.0
3131,86.0,80,120,3.0,58.0
3132,88.0,80,80,3.0,58.0
3133,86.0,80,120,3.0,58.0
3134,60.0,80,480,5.0,59.0
3135,57.0,0,480,5.0,59.0
3136,88.0,80,80,3.0,57.0
3137,86.0,0,120,3.0,57.0
3138,88.0,80,80,3.0,56.0
3139,86.0,80,120,3.0,56.0
3140,88.0,80,80,3.0,55.0
3141,62.0,0,385,5.0,57.0
3142,59.0,80,385,4.0,57.0
3143,86.0,80,120,3.0,55.0
3144,88.0,80,80,3.0,55.0
3145,86.0,80,120,3.0,54.0
3146,88.0,80,80,3.0,54.0
3147,86.0,80,120,3.0,53.0
3148,88.0,80,80,3.0,53.0
3149,86.0,80,120,3.0,52.0
3150,60.0,0,480,5.0,54.0
3151,57.0,0,480,4.0,54.0
3152,88.0,80,80,3.0,52.0
3153,86.0,0,120,3.0,52.0
3154,88.0,80,80,3.0,51.0
3155,86.0,80,80,3.0,51.0
3156,85.0,80,120,3.0,50.0
3157,59.0,80,385,5.0,52.0
3158,55.0,0,385,4.0,52.0
3159,86.0,120,95,3.0,50.0
3160,59.0,120,480,5.0,76.0
3161,67.0,0,480,2.0,76.0
3162,79.0,0,480,1.0,76.0
3163,62.0,0,480,4.0,76.0
3164,78.0,0,480,1.0,72.0
3165,63.0,0,480,4.0,72.0
3166,57.0,0,480,5.0,72.0
3167,66.0,0,480,2.0,72.0
3168,60.0,480,480,4.0,72.0
3169,76.0,480,410,1.0,69.0
3170,55.0,0,420,4.0,69.0
3171,64.0,0,420,2.0,69.0
3172,59.0,0,420,5.0,69.0
3173,71.0,720,190,1.0,49.0
3174,55.0,0,480,5.0,53.0
3175,64.0,0,480,2.0,53.0
3176,76.0,240,480,1.0,53.0
3177,59.0,0,480,4.0,53.0
3178,59.0,0,480,4.0,48.0
3179,62.0,480,480,2.0,48.0
3180,74.0,0,480,1.0,48.0
3181,53.0,0,480,5.0,48.0
3182,55.0,480,0,4.0,43.0
3183,52.0,0,420,5.0,43.0
3184,60.0,0,425,2.0,43.0
3185,72.0,0,425,1.0,43.0
3186,67.0,720,190,1.0,62.0
3187,55.0,240,480,4.0,67.0
3188,72.0,0,480,1.0,67.0
3189,52.0,0,480,5.0,67.0
3190,60.0,0,480,2.0,67.0
3191,71.0,0,480,1.0,65.0
3192,59.0,480,480,2.0,65.0
3193,50.0,0,480,5.0,65.0
3194,56.0,0,480,4.0,65.0
3195,53.0,0,480,4.0,65.0
3196,69.0,0,240,1.0,62.0
3197,76.0,240,190,1.0,61.0
3198,74.0,240,120,1.0,60.0
3199,72.0,120,120,1.0,60.0
3200,71.0,120,120,1.0,59.0
3201,52.0,480,905,4.0,62.0
3202,48.0,0,905,5.0,62.0
3203,57.0,0,905,2.0,62.0
3204,69.0,120,95,1.0,58.0
3205,67.0,120,480,1.0,58.0
3206,59.0,0,480,4.0,58.0
3207,54.0,0,360,4.0,54.0
3208,50.0,0,845,5.0,58.0
3209,69.0,480,385,1.0,54.0
3210,70.0,480,480,1.0,53.0
3211,54.0,0,480,4.0,53.0
3212,43.0,0,830,5.0,53.0
3213,55.0,0,360,4.0,48.0
3214,71.0,480,385,1.0,48.0
3215,59.0,0,480,5.0,51.0
3216,62.0,0,480,4.0,51.0
3217,79.0,480,480,1.0,51.0
3218,78.0,0,95,1.0,49.0
3219,79.0,80,85,1.0,48.0
3220,78.0,80,80,1.0,47.0
3221,76.0,80,120,1.0,46.0
3222,78.0,120,95,1.0,45.0
3223,57.0,0,480,5.0,49.0
3224,60.0,0,480,4.0,49.0
3225,63.0,480,480,4.0,49.0
3226,55.0,0,360,5.0,44.0
3227,59.0,0,360,4.0,44.0
3228,64.0,0,365,4.0,44.0
3229,76.0,120,365,1.0,44.0
3230,83.0,720,190,1.0,62.0
3231,88.0,240,480,1.0,67.0
3232,71.0,0,480,4.0,67.0
3233,67.0,0,480,5.0,67.0
3234,86.0,480,80,1.0,63.0
3235,88.0,80,80,1.0,62.0
3236,86.0,80,80,1.0,61.0
3237,84.0,80,120,1.0,60.0
3238,86.0,120,95,1.0,58.0
3239,65.0,0,480,5.0,63.0
3240,67.0,0,480,4.0,63.0
3241,71.0,0,480,4.0,63.0
3242,64.0,0,365,5.0,56.0
3243,67.0,0,375,4.0,56.0
3244,84.0,0,375,1.0,56.0
3245,72.0,120,375,4.0,56.0
3246,79.0,720,190,1.0,48.0
3247,64.0,0,480,5.0,52.0
3248,84.0,0,480,1.0,52.0
3249,67.0,240,480,4.0,52.0
3250,83.0,0,80,1.0,50.0
3251,84.0,80,80,1.0,50.0
3252,83.0,80,80,1.0,50.0
3253,81.0,80,120,1.0,49.0
3254,83.0,120,95,1.0,49.0
3255,65.0,480,480,4.0,50.0
3256,62.0,0,480,5.0,50.0
3257,68.0,0,480,4.0,50.0
3258,81.0,0,240,1.0,49.0
3259,88.0,240,190,1.0,48.0
3260,86.0,240,120,1.0,47.0
3261,84.0,120,120,1.0,46.0
3262,83.0,120,120,1.0,46.0
3263,69.0,0,890,4.0,49.0
3264,64.0,120,900,4.0,49.0
3265,60.0,0,900,5.0,49.0
3266,81.0,120,95,1.0,45.0
3267,79.0,0,155,1.0,45.0
3268,62.0,120,385,5.0,45.0
3269,67.0,0,385,4.0,45.0
3270,71.0,0,385,4.0,45.0
3271,81.0,240,155,1.0,44.0
3272,82.0,240,155,1.0,43.0
3273,83.0,240,155,1.0,42.0
3274,84.0,0,155,1.0,41.0
3275,62.0,0,385,5.0,41.0
3276,71.0,0,385,4.0,41.0
3277,67.0,240,385,4.0,41.0
3278,85.0,240,155,1.0,40.0
3279,86.0,240,155,1.0,39.0
3280,87.0,240,360,1.0,38.0
3281,88.0,120,120,1.0,45.0
3282,87.0,120,120,1.0,48.0
3283,62.0,0,385,5.0,41.0
3284,67.0,0,385,4.0,41.0
3285,72.0,240,385,4.0,41.0
3286,88.0,120,95,1.0,52.0
3287,86.0,120,120,1.0,56.0
3288,84.0,120,120,1.0,59.0
3289,83.0,120,120,1.0,63.0
3290,81.0,120,95,1.0,67.0
3291,81.0,120,80,1.0,68.0
3292,83.0,80,80,1.0,66.0
3293,81.0,80,80,1.0,65.0
3294,83.0,80,80,1.0,63.0
3295,66.0,0,385,4.0,68.0
3296,72.0,0,385,4.0,68.0
3297,62.0,0,385,5.0,68.0
3298,81.0,80,80,1.0,62.0
3299,83.0,80,80,1.0,61.0
3300,81.0,80,80,1.0,59.0
3301,83.0,80,80,1.0,58.0
3302,81.0,80,80,1.0,57.0
3303,79.0,80,120,1.0,55.0
3304,81.0,120,120,1.0,53.0
3305,79.0,120,95,1.0,52.0
3306,79.0,120,120,1.0,51.0
3307,78.0,120,120,1.0,50.0
3308,71.0,0,385,4.0,52.0
3309,67.0,0,385,5.0,52.0
3310,79.0,120,120,1.0,49.0
3311,81.0,120,120,1.0,49.0
3312,79.0,120,120,1.0,48.0
3313,78.0,120,120,1.0,47.0
3314,76.0,120,120,1.0,47.0
3315,74.0,120,95,1.0,45.0
3316,76.0,120,120,1.0,44.0
3317,75.0,120,120,1.0,43.0
3318,76.0,120,120,1.0,42.0
3319,78.0,120,120,1.0,41.0
3320,76.0,120,120,1.0,40.0
3321,74.0,120,120,1.0,39.0
3322,72.0,120,95,1.0,38.0
3323,71.0,120,255,1.0,40.0
3324,72.0,240,60,1.0,41.0
3325,71.0,60,60,1.0,41.0
3326,69.0,60,60,1.0,42.0
3327,71.0,60,60,1.0,42.0
3328,55.0,0,480,5.0,40.0
3329,74.0,60,75,1.0,42.0
3330,57.0,0,360,5.0,42.0
3331,72.0,60,305,1.0,42.0
3332,62.0,0,890,4.0,40.0
3333,55.0,0,95,5.0,44.0
3334,71.0,300,315,1.0,44.0
3335,54.0,120,480,5.0,44.0
3336,69.0,240,495,1.0,46.0
3337,55.0,240,420,5.0,47.0
3338,62.0,0,905,4.0,44.0
3339,71.0,240,480,1.0,48.0
3340,57.0,240,480,5.0,50.0
3341,72.0,240,375,1.0,48.0
3342,76.0,120,125,1.0,47.0
3343,62.0,0,900,4.0,50.0
3344,54.0,240,425,5.0,47.0
3345,74.0,120,190,1.0,46.0
3346,72.0,240,480,1.0,45.0
3347,71.0,480,410,1.0,42.0
3348,55.0,0,900,5.0,45.0
3349,62.0,0,905,4.0,45.0
3350,67.0,480,310,2.0,71.0
3351,64.0,0,310,4.0,71.0
3352,72.0,0,310,1.0,71.0
3353,52.0,0,310,5.0,71.0
3354,71.0,0,310,1.0,67.0
3355,62.0,480,310,4.0,67.0
3356,50.0,0,310,5.0,67.0
3357,67.0,0,310,2.0,67.0
3358,48.0,0,310,5.0,63.0
3359,67.0,0,310,2.0,63.0
3360,60.0,480,310,4.0,63.0
3361,76.0,0,310,1.0,63.0
3362,59.0,720,190,5.0,42.0
3363,74.0,0,190,1.0,42.0
3364,74.0,0,120,1.0,48.0
3365,72.0,120,120,1.0,47.0
3366,71.0,120,120,1.0,46.0
3367,69.0,120,95,1.0,46.0
3368,54.0,240,480,5.0,48.0
3369,72.0,0,120,1.0,45.0
3370,71.0,120,120,1.0,44.0
3371,69.0,120,120,1.0,44.0
3372,55.0,120,420,5.0,45.0
3373,62.0,0,900,4.0,48.0
3374,67.0,120,95,1.0,43.0
3375,71.0,0,480,1.0,43.0
3376,62.0,0,840,4.0,43.0
3377,50.0,120,840,5.0,43.0
3378,69.0,480,365,1.0,38.0
3379,70.0,480,240,1.0,44.0
3380,71.0,240,200,1.0,45.0
3381,55.0,0,480,5.0,44.0
3382,74.0,180,60,1.0,46.0
3383,72.0,0,240,1.0,46.0
3384,57.0,60,240,5.0,46.0
3385,55.0,240,190,5.0,47.0
3386,71.0,0,190,1.0,47.0
3387,62.0,0,915,4.0,44.0
3388,68.0,0,240,1.0,47.0
3389,69.0,240,190,1.0,48.0
3390,62.0,0,435,4.0,47.0
3391,54.0,240,480,5.0,47.0
3392,72.0,240,120,1.0,50.0
3393,55.0,240,425,5.0,49.0
3394,62.0,0,425,4.0,49.0
3395,71.0,120,95,1.0,50.0
3396,74.0,240,120,1.0,50.0
3397,72.0,120,95,1.0,50.0
3398,57.0,0,480,5.0,51.0
3399,62.0,120,480,4.0,51.0
3400,76.0,240,120,1.0,48.0
3401,74.0,120,95,1.0,47.0
3402,60.0,0,480,4.0,49.0
3403,54.0,120,480,5.0,49.0
3404,72.0,120,360,1.0,46.0
3405,74.0,360,60,1.0,44.0
3406,72.0,60,60,1.0,44.0
3407,55.0,0,900,5.0,46.0
3408,71.0,60,425,1.0,44.0
3409,62.0,0,905,4.0,46.0
3410,64.0,0,310,4.0,68.0
3411,67.0,0,310,2.0,68.0
3412,72.0,0,310,1.0,68.0
3413,52.0,480,310,5.0,68.0
3414,62.0,480,310,4.0,64.0
3415,50.0,0,310,5.0,64.0
3416,67.0,0,310,2.0,64.0
3417,71.0,0,310,1.0,64.0
3418,76.0,480,65,1.0,61.0
3419,78.0,60,60,1.0,60.0
3420,76.0,60,65,1.0,60.0
3421,74.0,60,75,1.0,59.0
3422,60.0,0,310,4.0,61.0
3423,48.0,0,310,5.0,61.0
3424,76.0,60,120,1.0,59.0
3425,78.0,120,120,1.0,58.0
3426,79.0,120,155,1.0,57.0
3427,72.0,0,155,1.0,55.0
3428,64.0,240,190,5.0,55.0
3429,67.0,0,190,4.0,55.0
3430,67.0,240,480,4.0,53.0
3431,71.0,0,480,1.0,53.0
3432,69.0,0,80,1.0,50.0
3433,71.0,80,80,1.0,49.0
3434,69.0,80,80,1.0,49.0
3435,67.0,80,120,1.0,48.0
3436,66.0,480,425,4.0,50.0
3437,62.0,0,915,5.0,53.0
3438,69.0,120,95,1.0,46.0
3439,59.0,240,240,3.0,47.0
3440,62.0,240,240,3.0,47.0
3441,67.0,120,905,1.0,46.0
3442,59.0,240,190,3.0,48.0
3443,55.0,0,915,5.0,46.0
3444,71.0,0,240,1.0,49.0
3445,52.0,240,240,3.0,50.0
3446,57.0,240,240,3.0,50.0
3447,69.0,0,665,1.0,50.0
3448,48.0,240,905,5.0,49.0
3449,52.0,240,190,3.0,51.0
3450,67.0,0,240,1.0,52.0
3451,66.0,240,190,1.0,53.0
3452,60.0,0,190,3.0,53.0
3453,57.0,0,190,3.0,53.0
3454,66.0,240,240,1.0,53.0
3455,60.0,240,190,3.0,54.0
3456,62.0,0,190,1.0,54.0
3457,50.0,240,920,5.0,52.0
3458,59.0,240,240,3.0,56.0
3459,62.0,240,240,3.0,56.0
3460,59.0,240,190,3.0,57.0
3461,55.0,0,920,5.0,55.0
3462,74.0,240,920,1.0,55.0
3463,55.0,240,240,3.0,59.0
3464,59.0,240,240,3.0,59.0
3465,67.0,240,720,1.0,58.0
3466,69.0,240,60,1.0,55.0
3467,67.0,60,60,1.0,57.0
3468,66.0,60,60,1.0,58.0
3469,55.0,0,190,3.0,60.0
3470,52.0,0,915,5.0,58.0
3471,67.0,60,60,1.0,60.0
3472,71.0,0,245,1.0,61.0
3473,69.0,240,190,1.0,62.0
3474,52.0,0,240,3.0,62.0
3475,57.0,0,240,3.0,62.0
3476,69.0,240,425,1.0,62.0
3477,52.0,240,190,3.0,63.0
3478,48.0,60,915,5.0,61.0
3479,67.0,240,240,1.0,64.0
3480,66.0,240,190,1.0,65.0
3481,60.0,0,240,3.0,65.0
3482,66.0,240,240,1.0,65.0
3483,57.0,0,240,3.0,65.0
3484,62.0,240,190,1.0,66.0
3485,60.0,0,190,3.0,66.0
3486,50.0,0,930,5.0,64.0
3487,55.0,240,240,3.0,68.0
3488,59.0,240,240,3.0,68.0
3489,62.0,240,190,3.0,69.0
3490,67.0,240,915,1.0,67.0
3491,43.0,0,930,5.0,67.0
3492,52.0,240,240,3.0,71.0
3493,55.0,240,240,3.0,71.0
3494,59.0,240,190,3.0,72.0
3495,67.0,0,920,1.0,70.0
3496,40.0,0,920,5.0,70.0
3497,79.0,240,920,1.0,70.0
3498,83.0,240,240,1.0,73.0
3499,71.0,0,240,1.0,73.0
3500,48.0,240,240,3.0,74.0
3501,52.0,240,240,3.0,74.0
3502,81.0,0,675,1.0,74.0
3503,57.0,240,200,3.0,75.0
3504,36.0,0,920,5.0,73.0
3505,69.0,0,695,1.0,74.0
3506,67.0,0,240,1.0,76.0
3507,79.0,0,240,1.0,76.0
3508,78.0,0,190,1.0,77.0
3509,66.0,0,190,1.0,77.0
3510,50.0,240,240,3.0,77.0
3511,57.0,0,240,3.0,77.0
3512,66.0,240,240,1.0,77.0
3513,78.0,0,240,1.0,77.0
3514,74.0,0,190,1.0,78.0
3515,62.0,0,190,1.0,78.0
3516,60.0,240,195,3.0,78.0
3517,38.0,240,915,5.0,76.0
3518,47.0,240,240,3.0,79.0
3519,50.0,240,240,3.0,80.0
3520,35.0,0,920,5.0,79.0
3521,55.0,240,200,3.0,81.0
3522,74.0,0,930,1.0,79.0
3523,86.0,240,960,1.0,79.0
3524,79.0,0,385,1.0,82.0
3525,67.0,240,385,1.0,82.0
3526,52.0,240,240,3.0,82.0
3527,55.0,0,240,3.0,83.0
3528,67.0,0,385,1.0,83.0
3529,79.0,240,385,1.0,83.0
3530,40.0,0,920,5.0,82.0
3531,59.0,240,210,3.0,84.0
3532,83.0,240,240,1.0,85.0
3533,71.0,0,240,1.0,85.0
3534,69.0,0,155,1.0,85.0
3535,81.0,0,155,1.0,85.0
3536,48.0,240,240,3.0,85.0
3537,81.0,0,155,1.0,86.0
3538,69.0,0,155,1.0,86.0
3539,52.0,240,240,3.0,86.0
3540,69.0,0,155,1.0,87.0
3541,81.0,240,155,1.0,87.0
3542,36.0,0,915,5.0,85.0
3543,57.0,0,195,3.0,87.0
3544,67.0,0,240,1.0,88.0
3545,79.0,240,240,1.0,88.0
3546,78.0,0,190,1.0,88.0
3547,66.0,0,190,1.0,88.0
3548,50.0,240,240,3.0,88.0
3549,78.0,0,240,1.0,89.0
3550,57.0,240,240,3.0,89.0
3551,66.0,0,240,1.0,89.0
3552,74.0,240,190,1.0,90.0
3553,62.0,0,190,1.0,90.0
3554,38.0,0,915,5.0,88.0
3555,60.0,0,200,3.0,90.0
3556,59.0,0,190,3.0,85.0
3557,62.0,240,190,3.0,85.0
3558,62.0,0,190,3.0,82.0
3559,59.0,240,190,3.0,82.0
3560,55.0,240,905,5.0,91.0
3561,62.0,0,190,3.0,79.0
3562,59.0,240,190,3.0,79.0
3563,79.0,0,915,1.0,91.0
3564,67.0,0,915,1.0,91.0
3565,83.0,240,240,1.0,80.0
3566,62.0,0,190,3.0,73.0
3567,60.0,240,190,3.0,73.0
3568,81.0,0,190,1.0,77.0
3569,60.0,0,190,3.0,71.0
3570,62.0,240,190,3.0,71.0
3571,81.0,0,240,1.0,74.0
3572,62.0,0,190,3.0,68.0
3573,78.0,0,190,1.0,72.0
3574,60.0,240,190,3.0,68.0
3575,50.0,0,920,5.0,80.0
3576,79.0,0,240,1.0,69.0
3577,83.0,240,190,1.0,67.0
3578,62.0,0,190,3.0,62.0
3579,59.0,0,190,3.0,62.0
3580,59.0,0,190,3.0,59.0
3581,62.0,240,190,3.0,59.0
3582,59.0,0,190,3.0,57.0
3583,62.0,240,190,3.0,57.0
3584,55.0,240,915,5.0,69.0
3585,86.0,0,435,1.0,64.0
3586,83.0,240,240,1.0,59.0
3587,62.0,240,190,3.0,51.0
3588,60.0,0,190,3.0,51.0
3589,81.0,0,190,1.0,57.0
3590,62.0,0,190,3.0,48.0
3591,60.0,240,190,3.0,48.0
3592,81.0,0,240,1.0,54.0
3593,62.0,0,190,3.0,45.0
3594,78.0,240,190,1.0,51.0
3595,60.0,0,190,3.0,45.0
3596,50.0,0,920,5.0,59.0
3597,67.0,0,240,1.0,49.0
3598,79.0,0,240,1.0,49.0
3599,59.0,0,385,4.0,49.0
3600,62.0,240,385,4.0,49.0
3601,55.0,0,385,5.0,49.0
3602,71.0,0,155,1.0,46.0
3603,83.0,240,155,1.0,46.0
3604,74.0,0,155,1.0,44.0
3605,86.0,0,155,1.0,44.0
3606,50.0,0,385,5.0,44.0
3607,57.0,0,385,4.0,44.0
3608,60.0,240,385,4.0,44.0
3609,86.0,240,155,1.0,41.0
3610,74.0,0,155,1.0,41.0
3611,67.0,240,240,1.0,39.0
3612,79.0,0,240,1.0,39.0
3613,55.0,0,385,5.0,39.0
3614,59.0,0,385,4.0,39.0
3615,71.0,240,155,1.0,36.0
3616,83.0,0,155,1.0,36.0
3617,86.0,0,155,1.0,34.0
3618,74.0,240,155,1.0,34.0
3619,50.0,0,385,5.0,34.0
3620,60.0,0,385,4.0,34.0
3621,74.0,0,155,1.0,31.0
3622,86.0,240,155,1.0,31.0
3623,86.0,0,960,1.0,28.0
3624,74.0,240,960,1.0,28.0
3625,59.0,0,1340,4.0,28.0
3626,55.0,0,1340,5.0,28.0
3627,67.0,0,385,1.0,18.0
3628,79.0,960,385,1.0,18.0
3629,69.0,1680,120,1.0,53.0
3630,81.0,60,410,1.0,57.0
3631,78.0,420,190,1.0,55.0
3632,76.0,0,80,1.0,54.0
3633,74.0,40,205,1.0,54.0
3634,73.0,200,155,1.0,53.0
3635,74.0,240,155,1.0,52.0
3636,66.0,0,720,4.0,54.0
3637,62.0,240,720,5.0,54.0
3638,76.0,0,80,1.0,50.0
3639,74.0,40,205,1.0,50.0
3640,73.0,200,155,1.0,49.0
3641,74.0,240,155,1.0,48.0
3642,59.0,0,720,5.0,50.0
3643,68.0,240,720,4.0,50.0
3644,78.0,0,480,1.0,47.0
3645,74.0,240,480,2.0,47.0
3646,76.0,480,190,1.0,42.0
3647,73.0,0,190,2.0,42.0
3648,57.0,0,675,5.0,47.0
3649,69.0,0,680,4.0,47.0
3650,67.0,240,120,1.0,47.0
3651,79.0,60,435,1.0,51.0
3652,76.0,420,190,1.0,49.0
3653,74.0,0,75,1.0,47.0
3654,73.0,40,200,1.0,47.0
3655,71.0,200,155,1.0,46.0
3656,73.0,240,155,1.0,45.0
3657,57.0,240,720,5.0,47.0
3658,64.0,0,0,4.0,43.0
3659,69.0,0,240,1.0,43.0
3660,76.0,240,155,1.0,42.0
3661,81.0,240,155,1.0,40.0
3662,61.0,240,720,5.0,43.0
3663,79.0,240,480,1.0,39.0
3664,76.0,0,480,2.0,39.0
3665,69.0,0,665,4.0,39.0
3666,62.0,0,665,5.0,39.0
3667,78.0,0,190,1.0,34.0
3668,74.0,480,190,2.0,34.0
3669,74.0,240,60,1.0,68.0
3670,50.0,0,190,5.0,68.0
3671,62.0,180,190,4.0,69.0
3672,78.0,60,420,1.0,68.0
3673,79.0,240,190,1.0,70.0
3674,64.0,0,190,4.0,70.0
3675,83.0,240,120,1.0,70.0
3676,66.0,0,190,4.0,70.0
3677,81.0,120,120,1.0,71.0
3678,79.0,120,120,1.0,71.0
3679,78.0,120,120,1.0,72.0
3680,76.0,120,120,1.0,72.0
3681,74.0,120,95,1.0,73.0
3682,74.0,0,60,1.0,73.0
3683,50.0,120,190,5.0,73.0
3684,62.0,180,190,4.0,74.0
3685,78.0,60,420,1.0,73.0
3686,79.0,0,190,1.0,75.0
3687,64.0,240,190,4.0,75.0
3688,83.0,0,120,1.0,76.0
3689,66.0,240,190,4.0,76.0
3690,81.0,120,120,1.0,76.0
3691,79.0,120,120,1.0,77.0
3692,78.0,120,120,1.0,77.0
3693,76.0,120,120,1.0,77.0
3694,74.0,120,95,1.0,78.0
3695,76.0,0,60,1.0,78.0
3696,55.0,120,190,5.0,78.0
3697,67.0,180,190,4.0,79.0
3698,83.0,60,420,1.0,79.0
3699,85.0,240,190,1.0,80.0
3700,64.0,0,190,4.0,80.0
3701,86.0,0,120,1.0,81.0
3702,54.0,240,190,5.0,81.0
3703,66.0,0,190,4.0,81.0
3704,85.0,120,120,1.0,81.0
3705,83.0,120,120,1.0,82.0
3706,81.0,120,120,1.0,82.0
3707,79.0,120,120,1.0,83.0
3708,78.0,120,95,1.0,83.0
3709,83.0,0,120,1.0,83.0
3710,55.0,120,190,5.0,83.0
3711,67.0,0,190,4.0,83.0
3712,81.0,120,120,1.0,82.0
3713,79.0,120,120,1.0,81.0
3714,78.0,120,120,1.0,80.0
3715,76.0,120,120,1.0,79.0
3716,74.0,120,95,1.0,78.0
3717,73.0,0,385,2.0,77.0
3718,76.0,0,385,2.0,77.0
3719,69.0,120,385,4.0,77.0
3720,57.0,0,385,5.0,77.0
3721,81.0,0,385,1.0,77.0
3722,69.0,720,120,1.0,55.0
3723,81.0,60,410,1.0,59.0
3724,78.0,420,190,1.0,57.0
3725,76.0,240,80,1.0,56.0
3726,74.0,40,205,1.0,56.0
3727,73.0,200,155,1.0,55.0
3728,74.0,240,155,1.0,54.0
3729,62.0,0,720,5.0,56.0
3730,66.0,0,720,4.0,56.0
3731,76.0,0,80,1.0,52.0
3732,74.0,40,205,1.0,52.0
3733,73.0,200,155,1.0,51.0
3734,74.0,240,155,1.0,50.0
3735,68.0,0,720,4.0,52.0
3736,59.0,240,720,5.0,52.0
3737,74.0,0,480,2.0,49.0
3738,78.0,0,485,1.0,49.0
3739,69.0,240,665,4.0,49.0
3740,57.0,0,665,5.0,49.0
3741,76.0,0,190,1.0,42.0
3742,73.0,480,190,2.0,42.0
3743,67.0,240,120,1.0,51.0
3744,79.0,60,435,1.0,55.0
3745,76.0,420,190,1.0,53.0
3746,74.0,0,80,1.0,52.0
3747,73.0,40,200,1.0,52.0
3748,71.0,200,155,1.0,51.0
3749,73.0,240,155,1.0,50.0
3750,57.0,0,720,5.0,52.0
3751,64.0,0,0,4.0,48.0
3752,69.0,0,240,1.0,48.0
3753,76.0,240,155,1.0,47.0
3754,81.0,240,155,1.0,46.0
3755,61.0,240,720,5.0,48.0
3756,76.0,240,480,2.0,45.0
3757,79.0,0,480,1.0,45.0
3758,62.0,0,660,5.0,45.0
3759,69.0,0,660,4.0,45.0
3760,74.0,480,190,2.0,39.0
3761,78.0,0,190,1.0,39.0
3762,74.0,0,60,1.0,74.0
3763,50.0,240,190,5.0,74.0
3764,62.0,180,190,4.0,75.0
3765,78.0,60,420,1.0,74.0
3766,79.0,0,185,1.0,76.0
3767,64.0,240,190,4.0,76.0
3768,83.0,240,120,1.0,78.0
3769,66.0,0,190,4.0,78.0
3770,81.0,120,120,1.0,78.0
3771,79.0,120,120,1.0,79.0
3772,78.0,120,120,1.0,80.0
3773,76.0,120,120,1.0,80.0
3774,74.0,120,95,1.0,81.0
3775,79.0,120,60,1.0,82.0
3776,43.0,0,190,5.0,82.0
3777,55.0,180,190,4.0,83.0
3778,83.0,60,440,1.0,82.0
3779,57.0,240,190,4.0,84.0
3780,85.0,0,190,1.0,84.0
3781,88.0,0,120,1.0,85.0
3782,59.0,240,190,4.0,85.0
3783,86.0,120,120,1.0,86.0
3784,85.0,120,120,1.0,87.0
3785,83.0,120,120,1.0,87.0
3786,81.0,120,120,1.0,88.0
3787,79.0,120,95,1.0,89.0
3788,85.0,0,120,1.0,89.0
3789,55.0,0,190,5.0,89.0
3790,64.0,0,190,4.0,89.0
3791,59.0,120,190,4.0,89.0
3792,83.0,120,120,1.0,87.0
3793,81.0,120,120,1.0,86.0
3794,79.0,120,120,1.0,86.0
3795,78.0,120,120,1.0,85.0
3796,76.0,120,95,1.0,84.0
3797,83.0,0,120,1.0,84.0
3798,57.0,120,190,5.0,84.0
3799,66.0,0,190,4.0,84.0
3800,62.0,0,190,4.0,84.0
3801,81.0,120,120,1.0,83.0
3802,79.0,120,120,1.0,82.0
3803,78.0,120,120,1.0,82.0
3804,76.0,120,120,1.0,81.0
3805,74.0,120,95,1.0,81.0
3806,81.0,120,120,1.0,80.0
3807,57.0,0,190,5.0,80.0
3808,67.0,0,190,4.0,80.0
3809,64.0,0,190,4.0,80.0
3810,79.0,120,120,1.0,79.0
3811,78.0,120,120,1.0,79.0
3812,76.0,120,120,1.0,78.0
3813,74.0,120,120,1.0,77.0
3814,73.0,120,95,1.0,77.0
3815,74.0,120,185,1.0,76.0
3816,62.0,0,190,5.0,76.0
3817,66.0,0,190,4.0,76.0
3818,62.0,480,120,1.0,75.0
3819,38.0,0,120,5.0,75.0
3820,42.0,120,120,5.0,73.0
3821,66.0,0,120,1.0,73.0
3822,69.0,0,190,1.0,72.0
3823,45.0,120,190,5.0,72.0
3824,42.0,480,120,5.0,66.0
3825,66.0,0,120,1.0,66.0
3826,69.0,120,120,1.0,64.0
3827,45.0,0,120,5.0,64.0
3828,50.0,0,190,5.0,63.0
3829,74.0,120,190,1.0,63.0
3830,45.0,480,120,5.0,57.0
3831,69.0,0,120,1.0,57.0
3832,50.0,0,120,5.0,55.0
3833,74.0,120,120,1.0,55.0
3834,78.0,0,190,1.0,54.0
3835,54.0,120,190,5.0,54.0
3836,74.0,0,120,1.0,49.0
3837,50.0,480,120,5.0,51.0
3838,78.0,0,120,1.0,46.0
3839,54.0,120,120,5.0,47.0
3840,81.0,120,285,1.0,42.0
3841,57.0,0,285,5.0,44.0
3842,81.0,0,605,1.0,59.0
3843,83.0,600,95,1.0,57.0
3844,62.0,1440,725,4.0,59.0
3845,66.0,0,725,4.0,59.0
3846,74.0,0,480,1.0,57.0
3847,73.0,480,190,1.0,55.0
3848,64.0,0,720,4.0,57.0
3849,67.0,120,720,4.0,57.0
3850,74.0,0,155,1.0,55.0
3851,66.0,0,190,4.0,55.0
3852,62.0,240,190,4.0,55.0
3853,57.0,0,1640,5.0,59.0
3854,86.0,240,155,1.0,55.0
3855,85.0,240,155,1.0,53.0
3856,83.0,240,155,1.0,51.0
3857,81.0,240,155,1.0,48.0
3858,80.0,240,155,1.0,46.0
3859,81.0,0,320,1.0,51.0
3860,83.0,300,60,1.0,50.0
3861,81.0,60,65,1.0,50.0
3862,80.0,60,60,1.0,49.0
3863,81.0,60,120,1.0,49.0
3864,83.0,120,95,1.0,49.0
3865,66.0,0,720,4.0,51.0
3866,62.0,0,720,4.0,51.0
3867,74.0,120,485,1.0,49.0
3868,73.0,480,190,1.0,47.0
3869,67.0,0,720,4.0,49.0
3870,64.0,0,720,4.0,49.0
3871,74.0,0,155,1.0,47.0
3872,66.0,0,190,4.0,47.0
3873,62.0,240,190,4.0,47.0
3874,57.0,240,1635,5.0,51.0
3875,86.0,240,155,1.0,47.0
3876,85.0,240,155,1.0,45.0
3877,83.0,240,155,1.0,43.0
3878,81.0,240,155,1.0,41.0
3879,80.0,240,155,1.0,39.0
3880,81.0,0,320,1.0,43.0
3881,83.0,300,60,1.0,42.0
3882,81.0,60,65,1.0,41.0
3883,80.0,60,60,1.0,41.0
3884,81.0,60,120,1.0,41.0
3885,83.0,120,95,1.0,41.0
3886,66.0,0,720,4.0,43.0
3887,62.0,240,720,4.0,43.0
3888,74.0,0,485,1.0,40.0
3889,73.0,480,190,1.0,39.0
3890,67.0,120,720,4.0,40.0
3891,64.0,0,720,4.0,40.0
3892,57.0,0,1440,5.0,43.0
3893,74.0,240,385,1.0,38.0
3894,66.0,0,385,4.0,38.0
3895,62.0,0,385,5.0,38.0
3896,47.0,720,720,5.0,44.0
3897,59.0,0,720,2.0,44.0
3898,54.0,0,720,2.0,44.0
3899,62.0,0,720,1.0,44.0
3900,43.0,720,720,5.0,47.0
3901,59.0,0,720,2.0,47.0
3902,62.0,0,720,2.0,47.0
3903,64.0,0,720,1.0,47.0
3904,69.0,0,720,1.0,51.0
3905,61.0,0,720,2.0,51.0
3906,64.0,0,720,2.0,51.0
3907,45.0,720,720,5.0,51.0
3908,66.0,0,385,1.0,48.0
3909,62.0,720,385,2.0,48.0
3910,38.0,0,385,5.0,48.0
3911,57.0,0,385,2.0,48.0
3912,50.0,960,155,5.0,56.0
3913,38.0,0,155,5.0,56.0
3914,62.0,0,155,1.0,56.0
3915,50.0,240,155,5.0,57.0
3916,38.0,0,155,5.0,57.0
3917,62.0,0,155,1.0,57.0
3918,64.0,0,60,1.0,54.0
3919,62.0,60,60,1.0,56.0
3920,61.0,60,60,1.0,58.0
3921,50.0,0,310,5.0,58.0
3922,38.0,240,310,5.0,58.0
3923,62.0,60,215,1.0,59.0
3924,62.0,0,155,1.0,59.0
3925,38.0,300,155,5.0,59.0
3926,50.0,0,155,5.0,59.0
3927,64.0,0,60,1.0,58.0
3928,62.0,60,60,1.0,59.0
3929,61.0,60,60,1.0,60.0
3930,38.0,240,310,5.0,60.0
3931,50.0,0,310,5.0,60.0
3932,62.0,60,215,1.0,61.0
3933,50.0,0,155,5.0,62.0
3934,38.0,300,155,5.0,62.0
3935,62.0,0,155,1.0,62.0
3936,49.0,240,480,5.0,60.0
3937,37.0,0,480,5.0,60.0
3938,61.0,0,485,1.0,60.0
3939,76.0,720,120,1.0,51.0
3940,69.0,660,190,4.0,50.0
3941,61.0,0,190,5.0,50.0
3942,81.0,60,890,1.0,55.0
3943,85.0,240,155,1.0,51.0
3944,69.0,0,190,4.0,51.0
3945,61.0,0,190,5.0,51.0
3946,83.0,0,155,1.0,49.0
3947,61.0,240,190,5.0,49.0
3948,69.0,0,190,4.0,49.0
3949,81.0,240,155,1.0,47.0
3950,69.0,0,190,4.0,47.0
3951,61.0,0,190,5.0,47.0
3952,80.0,0,155,1.0,44.0
3953,61.0,240,190,5.0,44.0
3954,69.0,0,190,4.0,44.0
3955,78.0,0,155,1.0,42.0
3956,61.0,240,190,5.0,42.0
3957,69.0,0,190,4.0,42.0
3958,76.0,0,720,1.0,39.0
3959,59.0,240,900,5.0,39.0
3960,69.0,0,905,4.0,39.0
3961,74.0,720,190,1.0,32.0
3962,47.0,0,155,5.0,67.0
3963,59.0,0,155,1.0,67.0
3964,35.0,240,155,5.0,67.0
3965,47.0,240,155,5.0,68.0
3966,35.0,0,155,5.0,68.0
3967,59.0,0,155,1.0,68.0
3968,61.0,0,60,1.0,65.0
3969,59.0,60,60,1.0,66.0
3970,58.0,60,60,1.0,68.0
3971,35.0,0,310,5.0,69.0
3972,47.0,240,310,5.0,69.0
3973,59.0,60,215,1.0,69.0
3974,47.0,0,155,5.0,70.0
3975,59.0,300,155,1.0,70.0
3976,35.0,0,155,5.0,70.0
3977,59.0,0,60,1.0,67.0
3978,57.0,60,60,1.0,68.0
3979,56.0,60,60,1.0,70.0
3980,33.0,0,310,5.0,71.0
3981,45.0,240,310,5.0,71.0
3982,57.0,60,210,1.0,71.0
3983,45.0,0,155,5.0,73.0
3984,33.0,300,155,5.0,73.0
3985,57.0,0,155,1.0,73.0
3986,56.0,0,480,1.0,69.0
3987,44.0,0,480,5.0,69.0
3988,32.0,240,480,5.0,69.0
3989,76.0,720,60,1.0,83.0
3990,86.0,60,755,1.0,84.0
3991,85.0,120,95,1.0,82.0
3992,83.0,120,95,1.0,81.0
3993,56.0,660,360,4.0,82.0
3994,59.0,0,190,3.0,81.0
3995,81.0,120,95,1.0,81.0
3996,80.0,120,95,1.0,81.0
3997,64.0,0,190,3.0,81.0
3998,78.0,120,95,1.0,81.0
3999,76.0,0,95,1.0,81.0
4000,78.0,120,95,1.0,80.0
4001,76.0,120,95,1.0,80.0
4002,56.0,120,360,4.0,81.0
4003,59.0,0,190,3.0,80.0
4004,74.0,120,95,1.0,80.0
4005,73.0,0,95,1.0,80.0
4006,64.0,120,190,3.0,80.0
4007,71.0,120,95,1.0,79.0
4008,73.0,0,95,1.0,79.0
4009,76.0,120,95,1.0,79.0
4010,78.0,0,95,1.0,79.0
4011,57.0,120,360,4.0,79.0
4012,61.0,120,190,3.0,79.0
4013,80.0,120,95,1.0,79.0
4014,81.0,0,95,1.0,78.0
4015,64.0,120,190,3.0,78.0
4016,83.0,120,95,1.0,78.0
4017,85.0,0,95,1.0,78.0
4018,86.0,120,95,1.0,78.0
4019,88.0,120,95,1.0,78.0
4020,57.0,120,360,4.0,78.0
4021,61.0,0,190,3.0,78.0
4022,85.0,120,95,1.0,77.0
4023,83.0,0,95,1.0,77.0
4024,64.0,120,190,3.0,77.0
4025,81.0,120,95,1.0,77.0
4026,86.0,120,95,1.0,77.0
4027,85.0,120,95,1.0,76.0
4028,83.0,0,95,1.0,76.0
4029,56.0,0,360,4.0,77.0
4030,59.0,120,190,3.0,76.0
4031,81.0,120,95,1.0,76.0
4032,80.0,0,95,1.0,76.0
4033,64.0,120,190,3.0,76.0
4034,78.0,120,95,1.0,76.0
4035,76.0,120,95,1.0,75.0
4036,78.0,120,95,1.0,75.0
4037,76.0,120,95,1.0,75.0
4038,56.0,0,360,4.0,75.0
4039,59.0,0,190,3.0,75.0
4040,74.0,120,95,1.0,75.0
4041,73.0,0,95,1.0,74.0
4042,64.0,120,190,3.0,74.0
4043,71.0,120,95,1.0,74.0
4044,73.0,120,95,1.0,74.0
4045,76.0,120,95,1.0,74.0
4046,78.0,0,95,1.0,74.0
4047,57.0,0,360,4.0,74.0
4048,61.0,120,190,3.0,74.0
4049,80.0,120,95,1.0,73.0
4050,81.0,120,95,1.0,73.0
4051,64.0,0,190,3.0,73.0
4052,83.0,120,95,1.0,73.0
4053,85.0,120,95,1.0,73.0
4054,86.0,120,95,1.0,73.0
4055,88.0,0,95,1.0,72.0
4056,57.0,0,360,4.0,73.0
4057,61.0,120,190,3.0,72.0
4058,85.0,120,95,1.0,72.0
4059,83.0,120,95,1.0,72.0
4060,64.0,0,190,3.0,72.0
4061,81.0,120,95,1.0,72.0
4062,86.0,0,95,1.0,71.0
4063,85.0,120,95,1.0,71.0
4064,83.0,0,95,1.0,71.0
4065,56.0,120,360,4.0,71.0
4066,59.0,120,190,3.0,71.0
4067,81.0,120,95,1.0,71.0
4068,80.0,0,95,1.0,71.0
4069,64.0,120,190,3.0,71.0
4070,78.0,120,95,1.0,70.0
4071,76.0,120,95,1.0,70.0
4072,78.0,120,95,1.0,70.0
4073,76.0,120,95,1.0,70.0
4074,56.0,0,360,4.0,70.0
4075,59.0,0,190,3.0,70.0
4076,74.0,120,95,1.0,69.0
4077,73.0,120,95,1.0,69.0
4078,64.0,0,190,3.0,69.0
4079,71.0,120,95,1.0,69.0
4080,73.0,120,95,1.0,69.0
4081,76.0,120,95,1.0,69.0
4082,78.0,120,95,1.0,68.0
4083,80.0,120,95,1.0,68.0
4084,57.0,0,480,5.0,69.0
4085,81.0,120,95,1.0,68.0
4086,83.0,120,95,1.0,68.0
4087,85.0,0,95,1.0,68.0
4088,83.0,120,95,1.0,67.0
4089,81.0,120,95,1.0,67.0
4090,80.0,120,95,1.0,67.0
4091,57.0,120,480,4.0,68.0
4092,49.0,0,480,5.0,68.0
4093,78.0,120,95,1.0,67.0
4094,76.0,120,95,1.0,66.0
4095,78.0,0,95,1.0,66.0
4096,76.0,120,95,1.0,66.0
4097,74.0,120,95,1.0,66.0
4098,73.0,120,95,1.0,66.0
4099,57.0,120,480,4.0,66.0
4100,50.0,0,480,5.0,66.0
4101,71.0,120,95,1.0,65.0
4102,69.0,120,95,1.0,65.0
4103,62.0,120,95,5.0,65.0
4104,74.0,0,95,1.0,65.0
4105,61.0,0,95,5.0,65.0
4106,73.0,120,95,1.0,65.0
4107,59.0,0,95,5.0,64.0
4108,71.0,120,95,1.0,64.0
4109,69.0,120,95,1.0,64.0
4110,57.0,0,95,5.0,64.0
4111,68.0,120,95,1.0,64.0
4112,56.0,0,95,5.0,64.0
4113,54.0,120,95,5.0,64.0
4114,66.0,0,95,1.0,64.0
4115,64.0,120,155,1.0,65.0
4116,52.0,0,155,5.0,65.0
4117,76.0,0,155,1.0,62.0
4118,71.0,240,155,2.0,62.0
4119,52.0,0,155,5.0,62.0
4120,68.0,0,155,2.0,62.0
4121,76.0,0,155,1.0,58.0
4122,52.0,0,155,5.0,58.0
4123,68.0,240,155,2.0,58.0
4124,71.0,0,155,2.0,58.0
4125,52.0,0,255,5.0,55.0
4126,76.0,240,255,1.0,55.0
4127,68.0,0,255,2.0,55.0
4128,71.0,0,255,2.0,55.0
4129,64.0,720,660,4.0,42.0
4130,73.0,0,720,1.0,42.0
4131,71.0,0,240,1.0,45.0
4132,73.0,240,240,1.0,46.0
4133,62.0,720,660,4.0,43.0
4134,71.0,240,185,1.0,48.0
4135,57.0,0,720,5.0,44.0
4136,56.0,720,240,5.0,46.0
4137,57.0,240,240,5.0,48.0
4138,56.0,240,185,5.0,50.0
4139,69.0,240,1920,1.0,50.0
4140,61.0,0,2100,4.0,44.0
4141,73.0,480,190,1.0,47.0
4142,54.0,240,1140,5.0,54.0
4143,74.0,240,485,1.0,50.0
4144,69.0,0,665,2.0,50.0
4145,50.0,0,190,5.0,48.0
4146,78.0,480,190,1.0,56.0
4147,68.0,0,240,2.0,63.0
4148,52.0,240,240,5.0,49.0
4149,54.0,0,240,5.0,51.0
4150,76.0,0,480,1.0,63.0
4151,69.0,240,240,2.0,59.0
4152,71.0,0,240,2.0,56.0
4153,56.0,240,240,5.0,52.0
4154,74.0,0,240,1.0,56.0
4155,57.0,0,240,5.0,53.0
4156,59.0,240,240,5.0,54.0
4157,73.0,0,480,1.0,52.0
4158,69.0,240,485,2.0,52.0
4159,61.0,240,190,5.0,55.0
4160,62.0,0,720,5.0,57.0
4161,71.0,0,965,1.0,51.0
4162,73.0,240,240,1.0,53.0
4163,69.0,0,1380,4.0,57.0
4164,63.0,720,665,5.0,52.0
4165,66.0,240,1385,4.0,57.0
4166,71.0,240,190,1.0,54.0
4167,68.0,0,660,4.0,53.0
4168,64.0,0,665,5.0,53.0
4169,71.0,240,960,1.0,57.0
4170,73.0,240,240,1.0,58.0
4171,62.0,0,665,5.0,54.0
4172,68.0,0,665,4.0,54.0
4173,64.0,720,665,4.0,54.0
4174,74.0,240,240,1.0,61.0
4175,76.0,0,155,1.0,64.0
4176,69.0,0,190,4.0,56.0
4177,64.0,0,190,4.0,56.0
4178,61.0,240,190,5.0,56.0
4179,81.0,240,155,1.0,67.0
4180,80.0,240,155,1.0,65.0
4181,78.0,240,155,1.0,62.0
4182,76.0,240,155,1.0,60.0
4183,74.0,0,155,1.0,58.0
4184,57.0,0,190,4.0,56.0
4185,54.0,240,190,5.0,56.0
4186,73.0,240,480,1.0,55.0
4187,74.0,480,120,1.0,48.0
4188,57.0,0,720,4.0,55.0
4189,73.0,120,120,1.0,47.0
4190,71.0,0,300,1.0,45.0
4191,56.0,120,305,4.0,45.0
4192,52.0,0,1025,5.0,55.0
4193,64.0,720,675,4.0,52.0
4194,73.0,0,720,1.0,52.0
4195,71.0,720,240,1.0,56.0
4196,73.0,240,240,1.0,57.0
4197,62.0,0,660,4.0,53.0
4198,71.0,240,190,1.0,59.0
4199,61.0,720,0,4.0,58.0
4200,54.0,0,720,5.0,54.0
4201,52.0,0,240,5.0,58.0
4202,54.0,240,240,5.0,59.0
4203,69.0,240,1380,1.0,60.0
4204,52.0,240,190,5.0,60.0
4205,62.0,0,480,2.0,58.0
4206,69.0,0,480,1.0,58.0
4207,50.0,240,480,5.0,62.0
4208,66.0,0,0,2.0,62.0
4209,64.0,480,190,2.0,62.0
4210,70.0,0,190,1.0,62.0
4211,49.0,0,190,5.0,58.0
4212,62.0,0,470,2.0,63.0
4213,47.0,0,480,5.0,58.0
4214,66.0,0,480,2.0,63.0
4215,71.0,240,485,1.0,63.0
4216,45.0,480,190,5.0,59.0
4217,78.0,0,190,1.0,67.0
4218,73.0,0,190,2.0,67.0
4219,76.0,240,480,1.0,71.0
4220,71.0,0,480,2.0,71.0
4221,44.0,0,480,5.0,60.0
4222,68.0,0,190,2.0,67.0
4223,74.0,480,190,1.0,67.0
4224,40.0,0,190,5.0,60.0
4225,45.0,0,240,5.0,59.0
4226,47.0,240,240,5.0,61.0
4227,73.0,0,480,1.0,64.0
4228,69.0,240,485,2.0,64.0
4229,49.0,240,190,5.0,62.0
4230,71.0,0,240,1.0,64.0
4231,83.0,240,155,1.0,64.0
4232,83.0,240,155,1.0,65.0
4233,50.0,0,720,5.0,66.0
4234,83.0,240,155,1.0,65.0
4235,83.0,240,155,1.0,66.0
4236,83.0,240,155,1.0,66.0
4237,54.0,0,1380,4.0,66.0
4238,51.0,0,660,5.0,63.0
4239,57.0,240,1385,4.0,66.0
4240,83.0,240,240,1.0,67.0
4241,76.0,240,155,1.0,68.0
4242,88.0,240,155,1.0,68.0
4243,52.0,0,660,4.0,65.0
4244,56.0,0,665,4.0,65.0
4245,50.0,0,665,5.0,65.0
4246,88.0,0,240,1.0,69.0
4247,81.0,240,155,1.0,69.0
4248,81.0,240,155,1.0,70.0
4249,49.0,240,660,5.0,66.0
4250,55.0,0,660,4.0,66.0
4251,52.0,0,665,4.0,66.0
4252,81.0,0,155,1.0,70.0
4253,54.0,0,190,4.0,67.0
4254,50.0,240,190,5.0,67.0
4255,78.0,0,240,1.0,71.0
4256,74.0,240,240,2.0,71.0
4257,76.0,0,240,1.0,71.0
4258,73.0,240,240,2.0,71.0
4259,52.0,0,190,5.0,68.0
4260,71.0,0,240,2.0,72.0
4261,74.0,240,240,1.0,72.0
4262,73.0,0,240,1.0,73.0
4263,69.0,240,240,2.0,73.0
4264,71.0,240,190,1.0,73.0
4265,68.0,0,190,2.0,73.0
4266,64.0,120,95,3.0,74.0
4267,57.0,240,288,4.0,74.0
4268,61.0,120,95,3.0,75.0
4269,64.0,120,95,3.0,75.0
4270,61.0,120,95,3.0,76.0
4271,69.0,0,665,1.0,74.0
4272,64.0,120,95,3.0,77.0
4273,64.0,120,95,3.0,78.0
4274,57.0,120,288,4.0,77.0
4275,61.0,120,95,3.0,79.0
4276,64.0,120,95,3.0,79.0
4277,61.0,120,95,3.0,80.0
4278,85.0,0,665,1.0,77.0
4279,64.0,120,95,3.0,80.0
4280,86.0,0,120,1.0,83.0
4281,64.0,120,95,3.0,82.0
4282,85.0,0,120,1.0,82.0
4283,59.0,120,288,4.0,83.0
4284,62.0,0,95,3.0,80.0
4285,83.0,120,120,1.0,80.0
4286,64.0,120,95,3.0,79.0
4287,81.0,0,120,1.0,79.0
4288,62.0,0,95,3.0,78.0
4289,80.0,120,195,1.0,78.0
4290,64.0,120,95,3.0,77.0
4291,83.0,120,120,1.0,75.0
4292,64.0,0,95,3.0,74.0
4293,81.0,120,120,1.0,74.0
4294,56.0,0,288,4.0,75.0
4295,59.0,120,95,3.0,73.0
4296,80.0,0,120,1.0,73.0
4297,64.0,0,95,3.0,72.0
4298,78.0,120,120,1.0,72.0
4299,59.0,0,95,3.0,70.0
4300,76.0,120,120,1.0,70.0
4301,64.0,120,95,3.0,69.0
4302,74.0,0,95,1.0,69.0
4303,73.0,0,155,1.0,68.0
4304,64.0,120,95,3.0,67.0
4305,57.0,120,288,4.0,68.0
4306,61.0,0,95,3.0,65.0
4307,76.0,120,155,1.0,65.0
4308,64.0,120,95,3.0,64.0
4309,61.0,120,95,3.0,63.0
4310,81.0,0,155,1.0,63.0
4311,64.0,120,95,3.0,62.0
4312,85.0,120,155,1.0,60.0
4313,64.0,120,95,3.0,59.0
4314,57.0,0,288,4.0,60.0
4315,61.0,120,95,3.0,58.0
4316,88.0,0,155,1.0,58.0
4317,64.0,120,95,3.0,57.0
4318,61.0,120,95,3.0,55.0
4319,64.0,120,95,3.0,54.0
4320,86.0,120,120,1.0,75.0
4321,64.0,120,95,3.0,73.0
4322,85.0,0,120,1.0,73.0
4323,59.0,0,288,4.0,75.0
4324,62.0,120,95,3.0,72.0
4325,83.0,0,120,1.0,72.0
4326,64.0,0,95,3.0,71.0
4327,81.0,120,120,1.0,71.0
4328,62.0,120,95,3.0,70.0
4329,80.0,0,180,1.0,70.0
4330,64.0,120,95,3.0,69.0
4331,83.0,120,120,1.0,68.0
4332,64.0,120,95,3.0,67.0
4333,81.0,0,120,1.0,67.0
4334,56.0,0,288,4.0,68.0
4335,59.0,0,95,3.0,66.0
4336,80.0,120,120,1.0,66.0
4337,64.0,0,95,3.0,65.0
4338,78.0,120,120,1.0,65.0
4339,59.0,120,95,3.0,64.0
4340,76.0,0,120,1.0,64.0
4341,64.0,0,95,3.0,63.0
4342,74.0,120,95,1.0,63.0
4343,73.0,0,155,1.0,62.0
4344,64.0,120,95,3.0,61.0
4345,57.0,120,288,4.0,62.0
4346,61.0,0,95,3.0,60.0
4347,76.0,120,155,1.0,60.0
4348,64.0,120,95,3.0,58.0
4349,61.0,120,95,3.0,57.0
4350,81.0,0,155,1.0,57.0
4351,64.0,120,95,3.0,56.0
4352,85.0,120,155,1.0,55.0
4353,64.0,120,95,3.0,54.0
4354,57.0,0,288,4.0,55.0
4355,61.0,120,95,3.0,53.0
4356,88.0,0,155,1.0,53.0
4357,64.0,120,95,3.0,52.0
4358,61.0,120,95,3.0,51.0
4359,64.0,120,95,3.0,50.0
4360,62.0,120,190,5.0,51.0
4361,77.0,240,240,1.0,56.0
4362,78.0,240,190,1.0,49.0
4363,62.0,0,190,5.0,49.0
4364,69.0,240,190,4.0,49.0
4365,81.0,240,240,1.0,54.0
4366,78.0,240,190,1.0,47.0
4367,69.0,240,190,4.0,46.0
4368,61.0,0,190,5.0,46.0
4369,75.0,240,240,1.0,50.0
4370,76.0,240,190,1.0,44.0
4371,62.0,0,190,5.0,43.0
4372,69.0,240,190,4.0,43.0
4373,78.0,240,240,1.0,48.0
4374,74.0,240,190,1.0,41.0
4375,64.0,0,190,5.0,40.0
4376,69.0,240,190,4.0,40.0
4377,72.0,240,240,1.0,47.0
4378,73.0,240,190,1.0,39.0
4379,68.0,240,190,4.0,38.0
4380,64.0,0,190,5.0,38.0
4381,74.0,240,240,1.0,40.0
4382,71.0,240,190,1.0,36.0
4383,64.0,120,95,3.0,75.0
4384,57.0,240,240,4.0,74.0
4385,61.0,120,95,3.0,75.0
4386,64.0,120,95,3.0,76.0
4387,61.0,120,95,3.0,76.0
4388,69.0,0,665,1.0,74.0
4389,64.0,120,95,3.0,77.0
4390,64.0,120,95,3.0,78.0
4391,57.0,120,240,4.0,78.0
4392,61.0,120,95,3.0,79.0
4393,64.0,120,95,3.0,80.0
4394,61.0,120,95,3.0,80.0
4395,85.0,0,650,1.0,78.0
4396,64.0,120,95,3.0,81.0
4397,86.0,0,120,1.0,83.0
4398,64.0,0,95,3.0,82.0
4399,85.0,120,120,1.0,82.0
4400,59.0,120,240,4.0,83.0
4401,62.0,120,95,3.0,81.0
4402,83.0,0,120,1.0,81.0
4403,64.0,0,95,3.0,80.0
4404,81.0,120,120,1.0,80.0
4405,62.0,120,95,3.0,78.0
4406,80.0,0,180,1.0,78.0
4407,64.0,120,95,3.0,77.0
4408,83.0,0,120,1.0,75.0
4409,64.0,120,95,3.0,74.0
4410,56.0,120,240,4.0,75.0
4411,81.0,0,120,1.0,74.0
4412,59.0,120,95,3.0,73.0
4413,80.0,0,120,1.0,73.0
4414,64.0,120,95,3.0,71.0
4415,78.0,0,120,1.0,71.0
4416,59.0,120,95,3.0,70.0
4417,76.0,0,120,1.0,70.0
4418,74.0,120,95,1.0,69.0
4419,64.0,0,95,3.0,69.0
4420,73.0,120,155,1.0,67.0
4421,64.0,120,95,3.0,66.0
4422,57.0,0,240,4.0,67.0
4423,61.0,120,95,3.0,65.0
4424,76.0,0,155,1.0,65.0
4425,64.0,120,95,3.0,63.0
4426,61.0,120,95,3.0,62.0
4427,81.0,0,155,1.0,62.0
4428,64.0,120,95,3.0,61.0
4429,85.0,0,155,1.0,59.0
4430,64.0,120,95,3.0,58.0
4431,57.0,120,240,4.0,59.0
4432,61.0,120,95,3.0,57.0
4433,88.0,0,150,1.0,57.0
4434,64.0,120,95,3.0,55.0
4435,61.0,120,95,3.0,54.0
4436,64.0,120,95,3.0,53.0
4437,86.0,0,120,1.0,75.0
4438,64.0,120,95,3.0,74.0
4439,59.0,120,240,4.0,75.0
4440,85.0,0,120,1.0,74.0
4441,62.0,120,95,3.0,73.0
4442,83.0,0,120,1.0,73.0
4443,64.0,120,95,3.0,71.0
4444,81.0,0,120,1.0,71.0
4445,62.0,120,95,3.0,70.0
4446,80.0,0,185,1.0,70.0
4447,64.0,120,95,3.0,69.0
4448,83.0,120,120,1.0,68.0
4449,64.0,0,95,3.0,66.0
4450,81.0,120,120,1.0,66.0
4451,56.0,0,240,4.0,68.0
4452,59.0,120,95,3.0,65.0
4453,80.0,0,120,1.0,65.0
4454,64.0,120,95,3.0,64.0
4455,78.0,0,120,1.0,64.0
4456,59.0,0,95,3.0,63.0
4457,76.0,120,120,1.0,63.0
4458,64.0,0,95,3.0,61.0
4459,74.0,120,120,1.0,61.0
4460,73.0,0,155,1.0,60.0
4461,64.0,120,95,3.0,59.0
4462,57.0,120,240,4.0,60.0
4463,61.0,0,95,3.0,57.0
4464,76.0,120,155,1.0,57.0
4465,64.0,120,95,3.0,56.0
4466,61.0,120,95,3.0,55.0
4467,81.0,0,155,1.0,55.0
4468,64.0,120,95,3.0,54.0
4469,85.0,0,155,1.0,52.0
4470,64.0,120,95,3.0,51.0
4471,57.0,120,240,4.0,52.0
4472,61.0,120,95,3.0,50.0
4473,64.0,120,95,3.0,49.0
4474,88.0,0,235,1.0,50.0
4475,61.0,120,95,3.0,47.0
4476,64.0,120,95,3.0,46.0
4477,62.0,120,190,5.0,47.0
4478,77.0,240,240,1.0,52.0
4479,78.0,240,190,1.0,46.0
4480,69.0,240,190,4.0,45.0
4481,62.0,0,190,5.0,45.0
4482,81.0,240,240,1.0,51.0
4483,78.0,240,190,1.0,43.0
4484,69.0,240,190,4.0,42.0
4485,61.0,0,190,5.0,42.0
4486,75.0,240,240,1.0,47.0
4487,76.0,240,190,1.0,40.0
4488,62.0,240,190,5.0,39.0
4489,69.0,0,190,4.0,39.0
4490,78.0,240,240,1.0,44.0
4491,74.0,240,190,1.0,37.0
4492,69.0,240,190,4.0,37.0
4493,64.0,0,190,5.0,37.0
4494,72.0,240,240,1.0,42.0
4495,73.0,240,190,1.0,35.0
4496,64.0,0,190,5.0,34.0
4497,68.0,240,190,4.0,34.0
4498,74.0,240,240,1.0,39.0
4499,71.0,240,190,1.0,32.0
4500,50.0,240,190,5.0,61.0
4501,57.0,0,190,4.0,61.0
4502,77.0,0,155,1.0,68.0
4503,65.0,240,155,2.0,68.0
4504,66.0,0,155,2.0,59.0
4505,78.0,240,155,1.0,59.0
4506,57.0,240,190,4.0,59.0
4507,50.0,0,190,5.0,59.0
4508,81.0,0,155,1.0,66.0
4509,69.0,240,155,2.0,66.0
4510,78.0,240,155,1.0,57.0
4511,66.0,0,155,2.0,57.0
4512,57.0,240,190,4.0,56.0
4513,49.0,0,190,5.0,56.0
4514,63.0,0,155,2.0,60.0
4515,75.0,240,155,1.0,60.0
4516,64.0,240,155,2.0,54.0
4517,76.0,0,155,1.0,54.0
4518,57.0,0,190,4.0,53.0
4519,50.0,240,190,5.0,53.0
4520,66.0,240,155,2.0,58.0
4521,78.0,0,155,1.0,58.0
4522,74.0,240,155,1.0,52.0
4523,62.0,0,155,2.0,52.0
4524,52.0,0,190,5.0,51.0
4525,57.0,240,190,4.0,51.0
4526,72.0,240,155,1.0,56.0
4527,60.0,0,155,2.0,56.0
4528,61.0,0,155,2.0,49.0
4529,73.0,240,155,1.0,49.0
4530,56.0,240,190,4.0,48.0
4531,52.0,0,190,5.0,48.0
4532,74.0,0,155,1.0,53.0
4533,62.0,240,155,2.0,53.0
4534,71.0,0,155,1.0,46.0
4535,59.0,240,155,2.0,46.0
4536,61.0,0,190,2.0,75.0
4537,69.0,0,190,1.0,75.0
4538,57.0,120,95,3.0,75.0
4539,45.0,240,240,5.0,75.0
4540,56.0,120,95,3.0,75.0
4541,57.0,120,95,3.0,75.0
4542,56.0,120,95,3.0,75.0
4543,57.0,120,95,3.0,75.0
4544,54.0,120,95,3.0,74.0
4545,42.0,0,240,5.0,74.0
4546,53.0,120,95,3.0,74.0
4547,54.0,120,95,3.0,74.0
4548,53.0,120,95,3.0,74.0
4549,81.0,120,665,1.0,74.0
4550,73.0,0,665,2.0,74.0
4551,54.0,120,95,3.0,74.0
4552,50.0,120,95,3.0,73.0
4553,38.0,120,240,5.0,74.0
4554,49.0,120,95,3.0,73.0
4555,50.0,120,95,3.0,73.0
4556,74.0,0,480,2.0,74.0
4557,83.0,0,480,1.0,74.0
4558,49.0,0,95,3.0,73.0
4559,78.0,0,190,2.0,73.0
4560,86.0,120,190,1.0,73.0
4561,50.0,120,95,3.0,73.0
4562,69.0,120,60,1.0,73.0
4563,52.0,60,95,3.0,72.0
4564,40.0,0,240,5.0,73.0
4565,51.0,120,95,3.0,72.0
4566,52.0,120,95,3.0,72.0
4567,81.0,60,425,1.0,72.0
4568,80.0,0,40,1.0,67.0
4569,81.0,40,40,1.0,68.0
4570,51.0,120,95,3.0,72.0
4571,80.0,40,40,1.0,69.0
4572,78.0,0,65,1.0,70.0
4573,52.0,40,95,3.0,72.0
4574,80.0,60,60,1.0,71.0
4575,81.0,0,190,1.0,72.0
4576,57.0,120,95,3.0,71.0
4577,45.0,60,240,5.0,72.0
4578,56.0,120,95,3.0,71.0
4579,57.0,120,95,3.0,71.0
4580,56.0,120,95,3.0,71.0
4581,57.0,120,95,3.0,71.0
4582,81.0,0,190,1.0,71.0
4583,73.0,0,190,2.0,71.0
4584,54.0,120,95,3.0,70.0
4585,42.0,120,240,5.0,71.0
4586,53.0,0,95,3.0,70.0
4587,81.0,120,190,1.0,70.0
4588,73.0,0,190,2.0,70.0
4589,54.0,120,95,3.0,70.0
4590,53.0,0,95,3.0,70.0
4591,73.0,120,190,2.0,70.0
4592,81.0,0,190,1.0,70.0
4593,54.0,120,95,3.0,70.0
4594,50.0,120,95,3.0,70.0
4595,38.0,0,240,5.0,70.0
4596,74.0,0,240,2.0,70.0
4597,49.0,0,95,3.0,69.0
4598,50.0,120,95,3.0,69.0
4599,83.0,120,480,1.0,70.0
4600,78.0,120,240,2.0,69.0
4601,49.0,0,95,3.0,69.0
4602,86.0,120,190,1.0,69.0
4603,50.0,120,95,3.0,69.0
4604,69.0,120,60,1.0,69.0
4605,52.0,60,95,3.0,69.0
4606,40.0,0,240,5.0,69.0
4607,51.0,120,95,3.0,68.0
4608,52.0,120,95,3.0,68.0
4609,81.0,60,425,1.0,69.0
4610,80.0,120,40,1.0,64.0
4611,81.0,40,40,1.0,64.0
4612,51.0,0,95,3.0,68.0
4613,80.0,40,40,1.0,65.0
4614,78.0,0,60,1.0,66.0
4615,52.0,40,95,3.0,68.0
4616,80.0,60,60,1.0,66.0
4617,45.0,0,190,5.0,68.0
4618,81.0,60,190,1.0,67.0
4619,73.0,240,240,1.0,49.0
4620,74.0,240,240,1.0,48.0
4621,76.0,240,240,1.0,48.0
4622,78.0,240,240,1.0,47.0
4623,52.0,0,240,5.0,46.0
4624,62.0,0,240,4.0,46.0
4625,59.0,240,240,4.0,46.0
4626,80.0,0,240,1.0,46.0
4627,61.0,0,190,4.0,46.0
4628,81.0,0,190,1.0,46.0
4629,57.0,240,190,5.0,46.0
4630,73.0,240,240,1.0,45.0
4631,74.0,240,240,1.0,44.0
4632,76.0,240,240,1.0,43.0
4633,78.0,240,240,1.0,43.0
4634,52.0,0,240,5.0,42.0
4635,80.0,0,240,1.0,42.0
4636,59.0,0,240,4.0,42.0
4637,62.0,240,240,4.0,42.0
4638,61.0,0,190,4.0,45.0
4639,81.0,240,190,1.0,41.0
4640,57.0,0,190,5.0,45.0
4641,49.0,240,240,5.0,43.0
4642,50.0,240,240,5.0,42.0
4643,52.0,240,240,5.0,40.0
4644,54.0,240,240,5.0,38.0
4645,56.0,240,240,5.0,36.0
4646,71.0,0,240,2.0,37.0
4647,74.0,0,240,1.0,37.0
4648,64.0,0,425,2.0,37.0
4649,69.0,0,190,2.0,37.0
4650,57.0,240,190,5.0,34.0
4651,73.0,0,190,1.0,37.0
4652,49.0,240,240,5.0,39.0
4653,50.0,240,240,5.0,38.0
4654,52.0,240,240,5.0,37.0
4655,54.0,240,240,5.0,36.0
4656,74.0,240,240,1.0,33.0
4657,64.0,0,240,2.0,33.0
4658,71.0,0,240,2.0,33.0
4659,56.0,0,240,5.0,35.0
4660,57.0,240,190,5.0,34.0
4661,72.0,240,240,1.0,46.0
4662,73.0,240,190,1.0,40.0
4663,59.0,240,190,4.0,43.0
4664,57.0,0,190,5.0,43.0
4665,73.0,240,240,1.0,53.0
4666,74.0,240,190,1.0,49.0
4667,57.0,240,190,5.0,52.0
4668,61.0,0,190,4.0,52.0
4669,75.0,240,240,1.0,61.0
4670,76.0,240,190,1.0,58.0
4671,57.0,0,190,5.0,61.0
4672,62.0,240,190,4.0,61.0
4673,77.0,240,240,1.0,74.0
4674,78.0,240,190,1.0,66.0
4675,57.0,0,190,5.0,69.0
4676,64.0,240,190,4.0,69.0
4677,78.0,240,240,1.0,82.0
4678,79.0,240,190,1.0,75.0
4679,69.0,1680,120,1.0,52.0
4680,81.0,60,410,1.0,59.0
4681,78.0,420,190,1.0,56.0
4682,76.0,0,80,1.0,54.0
4683,74.0,40,205,1.0,54.0
4684,73.0,200,155,1.0,52.0
4685,74.0,240,155,1.0,50.0
4686,62.0,0,720,5.0,54.0
4687,66.0,240,720,4.0,54.0
4688,76.0,0,80,1.0,48.0
4689,74.0,40,205,1.0,48.0
4690,73.0,200,155,1.0,46.0
4691,74.0,240,155,1.0,44.0
4692,68.0,240,720,4.0,48.0
4693,59.0,0,720,5.0,48.0
4694,74.0,240,480,2.0,42.0
4695,78.0,0,485,1.0,42.0
4696,57.0,0,660,5.0,42.0
4697,69.0,0,660,4.0,42.0
4698,73.0,480,190,2.0,38.0
4699,76.0,0,190,1.0,38.0
4700,67.0,240,120,1.0,44.0
4701,79.0,60,435,1.0,51.0
4702,76.0,420,190,1.0,49.0
4703,74.0,0,80,1.0,47.0
4704,73.0,40,200,1.0,47.0
4705,71.0,200,155,1.0,45.0
4706,73.0,240,155,1.0,43.0
4707,64.0,0,720,4.0,47.0
4708,57.0,240,720,5.0,47.0
4709,69.0,0,240,1.0,41.0
4710,76.0,240,155,1.0,40.0
4711,81.0,240,155,1.0,38.0
4712,64.0,240,720,4.0,41.0
4713,61.0,0,720,5.0,41.0
4714,76.0,0,480,2.0,36.0
4715,79.0,240,480,1.0,36.0
4716,69.0,0,660,4.0,36.0
4717,62.0,0,665,5.0,36.0
4718,74.0,0,190,2.0,30.0
4719,78.0,480,190,1.0,30.0
4720,74.0,0,60,1.0,70.0
4721,50.0,240,190,5.0,70.0
4722,62.0,180,190,4.0,70.0
4723,78.0,60,420,1.0,70.0
4724,79.0,0,190,1.0,71.0
4725,64.0,240,190,4.0,71.0
4726,83.0,240,120,1.0,72.0
4727,66.0,0,190,4.0,72.0
4728,81.0,120,120,1.0,73.0
4729,79.0,120,120,1.0,73.0
4730,78.0,120,120,1.0,74.0
4731,76.0,120,120,1.0,74.0
4732,74.0,120,95,1.0,75.0
4733,74.0,120,60,1.0,75.0
4734,50.0,0,190,5.0,75.0
4735,62.0,180,190,4.0,76.0
4736,78.0,60,420,1.0,75.0
4737,64.0,240,190,4.0,77.0
4738,79.0,0,190,1.0,77.0
4739,83.0,240,120,1.0,78.0
4740,66.0,0,190,4.0,78.0
4741,81.0,120,120,1.0,78.0
4742,79.0,120,120,1.0,79.0
4743,78.0,120,120,1.0,79.0
4744,76.0,120,120,1.0,80.0
4745,74.0,120,95,1.0,80.0
4746,76.0,120,60,1.0,81.0
4747,55.0,0,190,5.0,81.0
4748,67.0,180,190,4.0,82.0
4749,83.0,60,420,1.0,81.0
4750,64.0,0,190,4.0,82.0
4751,85.0,240,190,1.0,82.0
4752,86.0,0,120,1.0,83.0
4753,54.0,0,190,5.0,83.0
4754,66.0,240,190,4.0,83.0
4755,85.0,120,120,1.0,84.0
4756,83.0,120,120,1.0,84.0
4757,81.0,120,120,1.0,85.0
4758,79.0,120,120,1.0,85.0
4759,78.0,120,95,1.0,86.0
4760,83.0,120,120,1.0,86.0
4761,67.0,0,190,4.0,86.0
4762,55.0,0,190,5.0,86.0
4763,81.0,120,120,1.0,84.0
4764,79.0,120,120,1.0,83.0
4765,78.0,120,120,1.0,82.0
4766,76.0,120,120,1.0,81.0
4767,74.0,120,95,1.0,80.0
4768,69.0,120,385,4.0,78.0
4769,73.0,0,385,2.0,78.0
4770,57.0,0,385,5.0,78.0
4771,81.0,0,385,1.0,78.0
4772,76.0,0,385,2.0,78.0
4773,69.0,720,120,1.0,51.0
4774,81.0,60,410,1.0,57.0
4775,78.0,420,190,1.0,54.0
4776,76.0,0,80,1.0,52.0
4777,74.0,40,205,1.0,52.0
4778,73.0,200,155,1.0,51.0
4779,74.0,240,155,1.0,49.0
4780,62.0,0,720,5.0,52.0
4781,66.0,240,720,4.0,52.0
4782,76.0,0,80,1.0,47.0
4783,74.0,40,205,1.0,47.0
4784,73.0,200,155,1.0,45.0
4785,74.0,240,155,1.0,43.0
4786,59.0,240,720,5.0,47.0
4787,68.0,0,720,4.0,47.0
4788,74.0,0,480,2.0,42.0
4789,78.0,240,480,1.0,42.0
4790,69.0,0,665,4.0,42.0
4791,57.0,0,665,5.0,42.0
4792,76.0,480,190,1.0,38.0
4793,73.0,0,190,2.0,38.0
4794,67.0,240,120,1.0,45.0
4795,79.0,60,435,1.0,52.0
4796,76.0,420,190,1.0,47.0
4797,74.0,0,80,1.0,46.0
4798,73.0,40,200,1.0,46.0
4799,71.0,200,155,1.0,44.0
4800,73.0,240,155,1.0,43.0
4801,57.0,240,720,5.0,46.0
4802,64.0,0,720,4.0,46.0
4803,69.0,240,240,1.0,41.0
4804,76.0,240,155,1.0,40.0
4805,81.0,240,155,1.0,38.0
4806,64.0,0,720,4.0,41.0
4807,61.0,0,720,5.0,41.0
4808,79.0,0,480,1.0,36.0
4809,76.0,240,480,2.0,36.0
4810,69.0,0,665,4.0,36.0
4811,62.0,0,665,5.0,36.0
4812,78.0,0,190,1.0,30.0
4813,74.0,480,190,2.0,30.0
4814,74.0,240,60,1.0,76.0
4815,50.0,0,190,5.0,76.0
4816,62.0,180,190,4.0,77.0
4817,78.0,60,420,1.0,76.0
4818,64.0,0,190,4.0,78.0
4819,79.0,240,190,1.0,78.0
4820,83.0,240,120,1.0,79.0
4821,66.0,0,190,4.0,79.0
4822,81.0,120,120,1.0,79.0
4823,79.0,120,120,1.0,80.0
4824,78.0,120,120,1.0,80.0
4825,76.0,120,120,1.0,81.0
4826,74.0,120,95,1.0,81.0
4827,79.0,120,60,1.0,81.0
4828,43.0,0,190,5.0,81.0
4829,55.0,180,190,4.0,82.0
4830,83.0,60,440,1.0,82.0
4831,85.0,240,190,1.0,83.0
4832,57.0,0,190,4.0,83.0
4833,88.0,0,120,1.0,84.0
4834,59.0,240,190,4.0,84.0
4835,86.0,120,120,1.0,85.0
4836,85.0,120,120,1.0,85.0
4837,83.0,120,120,1.0,86.0
4838,81.0,120,120,1.0,86.0
4839,79.0,120,95,1.0,87.0
4840,85.0,0,120,1.0,87.0
4841,64.0,0,190,4.0,87.0
4842,55.0,0,190,5.0,87.0
4843,59.0,120,190,4.0,87.0
4844,83.0,120,120,1.0,87.0
4845,81.0,120,120,1.0,86.0
4846,79.0,120,120,1.0,86.0
4847,78.0,120,120,1.0,85.0
4848,76.0,120,95,1.0,85.0
4849,83.0,120,120,1.0,84.0
4850,66.0,0,190,4.0,84.0
4851,57.0,0,190,5.0,84.0
4852,62.0,0,190,4.0,84.0
4853,81.0,120,120,1.0,84.0
4854,79.0,120,120,1.0,83.0
4855,78.0,120,120,1.0,83.0
4856,76.0,120,120,1.0,82.0
4857,74.0,120,95,1.0,82.0
4858,81.0,120,120,1.0,81.0
4859,57.0,0,190,5.0,81.0
4860,67.0,0,190,4.0,81.0
4861,64.0,0,190,4.0,81.0
4862,79.0,120,120,1.0,81.0
4863,78.0,120,120,1.0,80.0
4864,76.0,120,120,1.0,80.0
4865,74.0,120,120,1.0,79.0
4866,73.0,120,95,1.0,79.0
4867,62.0,0,240,5.0,78.0
4868,74.0,0,240,1.0,78.0
4869,66.0,120,240,4.0,78.0
4870,66.0,480,120,1.0,76.0
4871,42.0,0,120,5.0,76.0
4872,69.0,120,120,1.0,74.0
4873,45.0,0,120,5.0,74.0
4874,50.0,0,190,5.0,72.0
4875,74.0,120,190,1.0,72.0
4876,69.0,0,120,1.0,64.0
4877,45.0,480,120,5.0,64.0
4878,50.0,0,120,5.0,62.0
4879,74.0,120,120,1.0,62.0
4880,78.0,0,190,1.0,60.0
4881,54.0,120,190,5.0,60.0
4882,74.0,0,120,1.0,52.0
4883,50.0,480,120,5.0,52.0
4884,54.0,0,120,5.0,50.0
4885,78.0,120,120,1.0,50.0
4886,81.0,120,190,1.0,48.0
4887,57.0,0,190,5.0,48.0
4888,78.0,480,120,1.0,39.0
4889,54.0,0,120,5.0,40.0
4890,57.0,0,120,5.0,38.0
4891,81.0,120,120,1.0,36.0
4892,84.0,120,185,1.0,32.0
4893,60.0,0,190,5.0,32.0
4894,74.0,0,620,1.0,53.0
4895,76.0,600,95,1.0,52.0
4896,55.0,0,720,4.0,53.0
4897,59.0,1440,720,4.0,53.0
4898,67.0,120,480,1.0,51.0
4899,66.0,480,190,1.0,50.0
4900,57.0,0,720,4.0,51.0
4901,60.0,0,720,4.0,51.0
4902,67.0,240,155,1.0,50.0
4903,50.0,0,1625,5.0,53.0
4904,59.0,0,190,4.0,50.0
4905,55.0,0,190,4.0,50.0
4906,79.0,240,155,1.0,52.0
4907,78.0,240,155,1.0,50.0
4908,76.0,240,155,1.0,48.0
4909,74.0,240,155,1.0,45.0
4910,73.0,240,155,1.0,43.0
4911,74.0,240,300,1.0,47.0
4912,76.0,300,60,1.0,42.0
4913,74.0,60,60,1.0,43.0
4914,73.0,60,60,1.0,43.0
4915,74.0,60,120,1.0,44.0
4916,76.0,120,95,1.0,45.0
4917,55.0,0,720,4.0,47.0
4918,59.0,0,720,4.0,47.0
4919,67.0,0,485,1.0,46.0
4920,66.0,480,190,1.0,45.0
4921,60.0,120,720,4.0,46.0
4922,57.0,0,720,4.0,46.0
4923,67.0,0,155,1.0,44.0
4924,50.0,0,1625,5.0,47.0
4925,55.0,0,190,4.0,44.0
4926,59.0,240,190,4.0,44.0
4927,79.0,240,155,1.0,46.0
4928,78.0,240,155,1.0,44.0
4929,76.0,240,155,1.0,43.0
4930,74.0,240,155,1.0,41.0
4931,73.0,240,155,1.0,39.0
4932,74.0,0,300,1.0,41.0
4933,76.0,300,60,1.0,37.0
4934,74.0,60,60,1.0,37.0
4935,73.0,60,60,1.0,38.0
4936,74.0,60,120,1.0,38.0
4937,76.0,120,95,1.0,40.0
4938,55.0,240,720,4.0,41.0
4939,59.0,0,720,4.0,41.0
4940,67.0,0,485,1.0,41.0
4941,66.0,480,190,1.0,39.0
4942,60.0,120,720,4.0,40.0
4943,57.0,0,720,5.0,40.0
4944,50.0,0,1440,5.0,41.0
4945,59.0,0,385,4.0,38.0
4946,55.0,0,385,5.0,38.0
4947,67.0,240,385,1.0,38.0
4948,67.0,0,720,1.0,38.0
4949,64.0,720,0,2.0,42.0
4950,52.0,720,720,5.0,38.0
4951,59.0,0,720,4.0,38.0
4952,48.0,0,720,5.0,42.0
4953,69.0,0,720,1.0,42.0
4954,67.0,0,720,2.0,42.0
4955,74.0,0,720,1.0,46.0
4956,69.0,720,720,2.0,46.0
4957,66.0,0,720,2.0,46.0
4958,50.0,0,720,5.0,46.0
4959,67.0,720,385,2.0,43.0
4960,62.0,0,385,2.0,43.0
4961,43.0,0,385,5.0,43.0
4962,71.0,0,385,1.0,43.0
4963,55.0,0,720,2.0,62.0
4964,60.0,720,0,2.0,69.0
4965,36.0,0,720,5.0,62.0
4966,64.0,0,720,1.0,62.0
4967,48.0,720,720,5.0,62.0
4968,64.0,0,720,2.0,69.0
4969,45.0,0,720,5.0,69.0
4970,66.0,0,720,1.0,69.0
4971,33.0,0,720,5.0,69.0
4972,63.0,0,720,2.0,74.0
4973,66.0,0,720,2.0,74.0
4974,47.0,0,720,5.0,74.0
4975,35.0,720,720,5.0,74.0
4976,71.0,0,720,1.0,74.0
4977,59.0,0,385,2.0,70.0
4978,64.0,0,385,2.0,70.0
4979,67.0,0,385,1.0,70.0
4980,40.0,720,385,5.0,70.0
4981,59.0,720,0,2.0,53.0
4982,54.0,720,720,2.0,50.0
4983,47.0,0,720,5.0,50.0
4984,62.0,0,720,1.0,50.0
4985,43.0,0,720,5.0,53.0
4986,62.0,0,720,2.0,53.0
4987,64.0,0,720,1.0,53.0
4988,69.0,0,720,1.0,58.0
4989,64.0,0,720,2.0,58.0
4990,45.0,0,720,5.0,58.0
4991,61.0,720,720,2.0,58.0
4992,62.0,0,385,2.0,55.0
4993,38.0,0,385,5.0,55.0
4994,57.0,720,385,2.0,55.0
4995,66.0,0,385,1.0,55.0
4996,73.0,720,720,1.0,74.0
4997,64.0,0,720,2.0,74.0
4998,67.0,0,720,2.0,74.0
4999,58.0,0,720,5.0,74.0
5000,46.0,0,720,5.0,74.0
5001,66.0,0,720,2.0,79.0
5002,62.0,0,720,2.0,79.0
5003,59.0,0,720,5.0,79.0
5004,47.0,0,720,5.0,79.0
5005,74.0,720,720,1.0,79.0
5006,55.0,0,720,5.0,85.0
5007,71.0,0,720,2.0,85.0
5008,77.0,0,720,1.0,85.0
5009,43.0,720,720,5.0,85.0
5010,54.0,720,190,5.0,79.0
5011,42.0,0,190,5.0,79.0
5012,78.0,0,385,1.0,79.0
5013,70.0,0,385,2.0,79.0
5014,73.0,0,385,2.0,79.0
5015,55.0,240,190,5.0,86.0
5016,54.0,240,190,5.0,79.0
5017,52.0,240,190,5.0,71.0
5018,50.0,240,190,5.0,64.0
5019,49.0,240,190,5.0,56.0
5020,47.0,240,380,5.0,55.0
5021,78.0,240,155,1.0,53.0
5022,78.0,240,155,1.0,53.0
5023,79.0,240,80,1.0,52.0
5024,71.0,0,95,5.0,52.0
5025,81.0,80,80,1.0,52.0
5026,74.0,40,95,5.0,52.0
5027,79.0,40,80,1.0,52.0
5028,71.0,0,95,5.0,52.0
5029,78.0,80,155,1.0,52.0
5030,74.0,120,95,5.0,52.0
5031,71.0,120,95,5.0,52.0
5032,78.0,0,155,1.0,52.0
5033,74.0,120,95,5.0,52.0
5034,79.0,120,80,1.0,52.0
5035,70.0,0,95,5.0,52.0
5036,81.0,80,80,1.0,51.0
5037,73.0,40,95,4.0,51.0
5038,79.0,40,80,1.0,51.0
5039,70.0,0,95,5.0,51.0
5040,78.0,80,155,1.0,51.0
5041,73.0,120,95,4.0,51.0
5042,70.0,0,95,5.0,51.0
5043,78.0,120,155,1.0,51.0
5044,73.0,120,95,4.0,51.0
5045,69.0,120,95,5.0,51.0
5046,72.0,120,95,4.0,50.0
5047,69.0,120,95,5.0,50.0
5048,72.0,120,95,4.0,50.0
5049,78.0,0,495,1.0,51.0
5050,69.0,0,95,5.0,50.0
5051,79.0,120,120,1.0,50.0
5052,81.0,0,95,1.0,50.0
5053,72.0,120,95,4.0,50.0
5054,68.0,0,95,5.0,50.0
5055,71.0,120,95,4.0,50.0
5056,83.0,120,240,1.0,50.0
5057,68.0,120,95,5.0,49.0
5058,76.0,0,155,1.0,49.0
5059,71.0,120,95,4.0,49.0
5060,68.0,0,95,5.0,49.0
5061,76.0,120,155,1.0,49.0
5062,71.0,120,95,4.0,49.0
5063,78.0,120,80,1.0,49.0
5064,67.0,0,95,5.0,49.0
5065,79.0,80,80,1.0,49.0
5066,71.0,40,95,4.0,49.0
5067,78.0,40,80,1.0,49.0
5068,67.0,80,95,5.0,48.0
5069,76.0,0,155,1.0,48.0
5070,71.0,120,95,4.0,48.0
5071,67.0,0,95,5.0,48.0
5072,76.0,120,155,1.0,48.0
5073,71.0,120,95,4.0,48.0
5074,76.0,120,80,1.0,48.0
5075,66.0,0,95,5.0,48.0
5076,78.0,80,80,1.0,48.0
5077,71.0,40,95,4.0,48.0
5078,76.0,40,80,1.0,48.0
5079,66.0,0,95,5.0,48.0
5080,74.0,80,155,1.0,48.0
5081,71.0,120,95,4.0,47.0
5082,66.0,120,95,5.0,47.0
5083,74.0,0,155,1.0,47.0
5084,71.0,120,95,4.0,47.0
5085,66.0,120,95,5.0,47.0
5086,69.0,120,95,4.0,47.0
5087,66.0,120,95,5.0,47.0
5088,69.0,120,95,4.0,46.0
5089,74.0,0,480,1.0,47.0
5090,66.0,0,95,5.0,46.0
5091,76.0,120,120,1.0,46.0
5092,78.0,120,95,1.0,46.0
5093,69.0,0,95,4.0,46.0
5094,64.0,120,95,5.0,46.0
5095,67.0,120,95,4.0,46.0
5096,79.0,0,240,1.0,46.0
5097,64.0,120,95,5.0,46.0
5098,72.0,0,155,1.0,46.0
5099,67.0,120,95,4.0,46.0
5100,64.0,120,95,5.0,45.0
5101,72.0,0,155,1.0,45.0
5102,67.0,120,95,4.0,45.0
5103,72.0,120,60,1.0,45.0
5104,64.0,0,95,5.0,45.0
5105,74.0,60,60,1.0,45.0
5106,72.0,0,60,1.0,45.0
5107,67.0,60,95,4.0,45.0
5108,71.0,60,60,1.0,45.0
5109,64.0,0,95,5.0,45.0
5110,67.0,120,95,4.0,45.0
5111,72.0,60,245,1.0,45.0
5112,64.0,0,95,5.0,44.0
5113,79.0,120,190,1.0,44.0
5114,67.0,120,95,4.0,44.0
5115,62.0,120,95,5.0,44.0
5116,66.0,120,95,4.0,44.0
5117,78.0,0,240,1.0,44.0
5118,62.0,120,95,5.0,44.0
5119,71.0,0,155,1.0,44.0
5120,66.0,120,95,4.0,44.0
5121,62.0,120,95,5.0,44.0
5122,71.0,0,155,1.0,44.0
5123,66.0,120,95,4.0,43.0
5124,71.0,120,60,1.0,43.0
5125,62.0,0,95,5.0,43.0
5126,73.0,60,60,1.0,43.0
5127,71.0,60,60,1.0,43.0
5128,66.0,0,95,4.0,43.0
5129,70.0,60,60,1.0,43.0
5130,62.0,0,95,5.0,43.0
5131,66.0,120,95,4.0,43.0
5132,71.0,60,240,1.0,43.0
5133,62.0,120,95,5.0,43.0
5134,66.0,120,95,4.0,42.0
5135,58.0,120,95,5.0,42.0
5136,66.0,120,95,4.0,42.0
5137,78.0,0,480,1.0,43.0
5138,58.0,0,95,5.0,42.0
5139,76.0,120,155,1.0,42.0
5140,66.0,120,95,4.0,42.0
5141,58.0,120,95,5.0,42.0
5142,73.0,0,155,1.0,42.0
5143,66.0,120,95,4.0,42.0
5144,59.0,0,95,5.0,41.0
5145,66.0,120,95,4.0,41.0
5146,76.0,120,240,1.0,41.0
5147,59.0,120,95,5.0,41.0
5148,74.0,0,155,1.0,41.0
5149,66.0,120,95,4.0,41.0
5150,59.0,120,95,5.0,41.0
5151,71.0,0,155,1.0,41.0
5152,66.0,120,95,4.0,41.0
5153,70.0,0,120,1.0,40.0
5154,54.0,120,190,5.0,40.0
5155,71.0,120,120,1.0,40.0
5156,73.0,120,120,1.0,40.0
5157,74.0,120,120,1.0,40.0
5158,73.0,120,120,1.0,40.0
5159,74.0,120,120,1.0,40.0
5160,54.0,0,120,5.0,46.0
5161,73.0,120,190,1.0,46.0
5162,55.0,120,120,5.0,51.0
5163,54.0,120,120,5.0,56.0
5164,52.0,120,120,5.0,61.0
5165,50.0,120,120,5.0,67.0
5166,49.0,120,120,5.0,72.0
5167,74.0,120,95,2.0,77.0
5168,47.0,0,190,5.0,77.0
5169,83.0,120,95,3.0,77.0
5170,74.0,120,95,2.0,77.0
5171,66.0,0,155,5.0,77.0
5172,83.0,120,95,3.0,77.0
5173,74.0,120,95,2.0,77.0
5174,66.0,0,155,5.0,77.0
5175,83.0,120,95,3.0,77.0
5176,67.0,0,80,5.0,77.0
5177,74.0,120,95,2.0,77.0
5178,69.0,80,80,5.0,77.0
5179,83.0,40,95,3.0,77.0
5180,67.0,40,80,5.0,77.0
5181,74.0,80,95,2.0,77.0
5182,66.0,0,155,5.0,77.0
5183,83.0,120,95,3.0,77.0
5184,74.0,0,95,2.0,76.0
5185,66.0,120,155,5.0,76.0
5186,83.0,120,95,3.0,76.0
5187,67.0,0,80,5.0,76.0
5188,73.0,120,95,2.0,76.0
5189,69.0,80,80,5.0,76.0
5190,83.0,40,95,3.0,76.0
5191,67.0,40,80,5.0,76.0
5192,73.0,0,95,2.0,76.0
5193,66.0,80,155,5.0,76.0
5194,83.0,120,95,3.0,76.0
5195,73.0,0,95,2.0,76.0
5196,66.0,120,155,5.0,76.0
5197,83.0,120,95,3.0,76.0
5198,73.0,0,95,2.0,76.0
5199,81.0,120,95,3.0,76.0
5200,73.0,120,95,2.0,75.0
5201,81.0,120,95,3.0,75.0
5202,66.0,120,485,5.0,76.0
5203,73.0,0,95,2.0,75.0
5204,67.0,120,120,5.0,75.0
5205,69.0,120,95,5.0,75.0
5206,81.0,0,95,3.0,75.0
5207,75.0,0,95,2.0,75.0
5208,81.0,120,95,3.0,75.0
5209,71.0,120,240,5.0,75.0
5210,76.0,120,95,2.0,75.0
5211,64.0,0,155,5.0,75.0
5212,79.0,120,95,3.0,75.0
5213,76.0,0,95,2.0,75.0
5214,64.0,120,155,5.0,75.0
5215,79.0,120,95,3.0,75.0
5216,66.0,0,80,5.0,75.0
5217,71.0,120,95,2.0,75.0
5218,67.0,80,80,5.0,74.0
5219,79.0,40,95,3.0,74.0
5220,66.0,40,80,5.0,74.0
5221,71.0,80,95,2.0,74.0
5222,64.0,0,155,5.0,74.0
5223,79.0,120,95,3.0,74.0
5224,71.0,120,95,2.0,74.0
5225,64.0,0,155,5.0,74.0
5226,79.0,120,95,3.0,74.0
5227,64.0,120,80,5.0,74.0
5228,69.0,0,95,2.0,74.0
5229,66.0,80,80,5.0,74.0
5230,79.0,40,95,3.0,74.0
5231,64.0,40,80,5.0,74.0
5232,69.0,80,95,2.0,74.0
5233,62.0,0,155,5.0,74.0
5234,79.0,120,95,3.0,74.0
5235,69.0,0,95,2.0,74.0
5236,62.0,120,155,5.0,74.0
5237,79.0,120,95,3.0,73.0
5238,69.0,0,95,2.0,73.0
5239,78.0,120,95,3.0,73.0
5240,69.0,120,95,2.0,73.0
5241,78.0,120,95,3.0,73.0
5242,62.0,120,480,5.0,73.0
5243,69.0,120,95,2.0,73.0
5244,64.0,0,120,5.0,73.0
5245,78.0,120,95,3.0,73.0
5246,66.0,0,95,5.0,73.0
5247,71.0,0,95,2.0,73.0
5248,78.0,120,95,3.0,73.0
5249,67.0,120,240,5.0,73.0
5250,71.0,120,95,2.0,73.0
5251,55.0,0,155,5.0,73.0
5252,76.0,120,95,3.0,73.0
5253,71.0,120,95,2.0,72.0
5254,55.0,0,155,5.0,72.0
5255,75.0,120,95,3.0,72.0
5256,76.0,0,95,2.0,72.0
5257,83.0,120,95,3.0,72.0
5258,76.0,120,95,2.0,72.0
5259,81.0,120,95,3.0,72.0
5260,55.0,120,485,5.0,72.0
5261,76.0,0,95,2.0,72.0
5262,57.0,120,120,5.0,72.0
5263,59.0,0,95,5.0,72.0
5264,80.0,120,95,3.0,72.0
5265,76.0,120,95,2.0,72.0
5266,81.0,120,95,3.0,72.0
5267,61.0,0,240,5.0,72.0
5268,74.0,120,95,2.0,71.0
5269,54.0,0,155,5.0,71.0
5270,81.0,120,95,3.0,71.0
5271,73.0,120,95,2.0,71.0
5272,54.0,0,155,5.0,71.0
5273,81.0,120,95,3.0,71.0
5274,79.0,120,95,2.0,71.0
5275,82.0,120,95,3.0,71.0
5276,78.0,120,95,2.0,71.0
5277,83.0,120,95,3.0,71.0
5278,54.0,0,480,5.0,71.0
5279,76.0,120,95,2.0,71.0
5280,56.0,0,120,5.0,71.0
5281,85.0,0,95,3.0,71.0
5282,58.0,120,95,5.0,71.0
5283,74.0,0,95,2.0,70.0
5284,85.0,120,95,3.0,70.0
5285,59.0,120,240,5.0,70.0
5286,74.0,0,95,2.0,70.0
5287,54.0,120,155,5.0,70.0
5288,85.0,120,95,3.0,70.0
5289,74.0,0,95,2.0,70.0
5290,55.0,120,155,5.0,70.0
5291,83.0,120,95,3.0,70.0
5292,73.0,120,95,2.0,70.0
5293,83.0,120,95,3.0,70.0
5294,52.0,0,240,5.0,70.0
5295,73.0,120,95,2.0,70.0
5296,49.0,0,155,5.0,70.0
5297,83.0,120,95,3.0,70.0
5298,73.0,120,95,2.0,70.0
5299,66.0,0,155,5.0,70.0
5300,81.0,120,95,3.0,69.0
5301,71.0,120,95,2.0,69.0
5302,81.0,120,95,3.0,69.0
5303,63.0,0,240,5.0,69.0
5304,71.0,120,95,2.0,69.0
5305,59.0,0,155,5.0,69.0
5306,81.0,120,95,3.0,69.0
5307,71.0,120,95,2.0,69.0
5308,64.0,0,155,5.0,69.0
5309,79.0,120,95,3.0,69.0
5310,69.0,120,95,2.0,69.0
5311,79.0,120,95,3.0,69.0
5312,61.0,0,240,5.0,69.0
5313,69.0,0,95,2.0,69.0
5314,57.0,120,155,5.0,69.0
5315,79.0,120,95,3.0,68.0
5316,69.0,0,95,2.0,68.0
5317,50.0,120,155,5.0,68.0
5318,78.0,120,95,3.0,68.0
5319,67.0,120,95,2.0,68.0
5320,78.0,120,95,3.0,68.0
5321,47.0,0,240,5.0,68.0
5322,67.0,0,95,2.0,68.0
5323,43.0,120,155,5.0,68.0
5324,78.0,120,95,3.0,68.0
5325,67.0,0,95,2.0,68.0
5326,49.0,120,155,5.0,68.0
5327,76.0,120,95,3.0,68.0
5328,66.0,0,95,2.0,68.0
5329,76.0,120,95,3.0,68.0
5330,46.0,120,240,5.0,68.0
5331,66.0,120,95,2.0,67.0
5332,42.0,0,155,5.0,67.0
5333,76.0,120,95,3.0,67.0
5334,66.0,0,95,2.0,67.0
5335,59.0,120,155,5.0,67.0
5336,74.0,120,95,3.0,67.0
5337,64.0,0,95,2.0,67.0
5338,74.0,120,95,3.0,67.0
5339,56.0,120,240,5.0,67.0
5340,64.0,120,95,2.0,67.0
5341,52.0,0,155,5.0,67.0
5342,74.0,120,95,3.0,67.0
5343,64.0,0,95,2.0,67.0
5344,57.0,120,155,5.0,67.0
5345,72.0,120,95,3.0,67.0
5346,62.0,120,95,2.0,66.0
5347,72.0,120,95,3.0,66.0
5348,54.0,0,240,5.0,66.0
5349,62.0,120,95,2.0,66.0
5350,50.0,0,155,5.0,66.0
5351,72.0,120,95,3.0,66.0
5352,62.0,120,95,2.0,66.0
5353,55.0,0,155,5.0,66.0
5354,71.0,120,95,3.0,66.0
5355,64.0,0,95,2.0,66.0
5356,71.0,120,95,2.0,66.0
5357,69.0,120,95,2.0,66.0
5358,68.0,120,95,2.0,66.0
5359,69.0,120,95,2.0,65.0
5360,71.0,120,95,2.0,65.0
5361,72.0,120,95,2.0,65.0
5362,74.0,120,95,2.0,65.0
5363,76.0,120,95,2.0,65.0
5364,72.0,120,95,2.0,65.0
5365,71.0,120,95,2.0,65.0
5366,36.0,0,1385,5.0,66.0
5367,48.0,120,1395,5.0,66.0
5368,69.0,120,95,2.0,65.0
5369,50.0,240,155,5.0,65.0
5370,50.0,240,155,5.0,64.0
5371,59.0,120,720,2.0,65.0
5372,67.0,0,720,1.0,65.0
5373,50.0,240,120,5.0,64.0
5374,52.0,120,120,5.0,61.0
5375,50.0,120,120,5.0,58.0
5376,66.0,0,385,1.0,64.0
5377,57.0,0,385,2.0,64.0
5378,48.0,120,120,5.0,55.0
5379,47.0,120,120,5.0,51.0
5380,45.0,120,120,5.0,48.0
5381,43.0,120,190,5.0,45.0
5382,74.0,240,155,1.0,41.0
5383,74.0,240,155,1.0,42.0
5384,74.0,240,155,1.0,44.0
5385,74.0,240,155,1.0,45.0
5386,74.0,240,155,1.0,47.0
5387,57.0,0,155,5.0,39.0
5388,62.0,240,155,4.0,39.0
5389,60.0,0,155,4.0,39.0
5390,57.0,240,155,5.0,42.0
5391,60.0,0,155,4.0,42.0
5392,62.0,0,155,4.0,42.0
5393,74.0,240,720,1.0,50.0
5394,60.0,0,155,4.0,45.0
5395,57.0,240,155,5.0,45.0
5396,62.0,0,155,4.0,45.0
5397,66.0,0,190,1.0,45.0
5398,60.0,0,155,4.0,47.0
5399,57.0,0,155,5.0,47.0
5400,62.0,240,155,4.0,47.0
5401,57.0,240,155,5.0,50.0
5402,62.0,0,155,4.0,50.0
5403,60.0,0,155,4.0,50.0
5404,59.0,0,190,5.0,55.0
5405,62.0,240,190,4.0,55.0
5406,67.0,240,155,1.0,45.0
5407,71.0,240,155,1.0,48.0
5408,74.0,240,155,1.0,51.0
5409,79.0,240,155,1.0,53.0
5410,83.0,240,155,1.0,56.0
5411,57.0,0,155,4.0,47.0
5412,62.0,0,155,4.0,47.0
5413,54.0,240,155,5.0,47.0
5414,54.0,0,155,5.0,50.0
5415,62.0,240,155,4.0,50.0
5416,57.0,0,155,4.0,50.0
5417,86.0,240,720,1.0,61.0
5418,57.0,0,155,4.0,53.0
5419,62.0,0,155,4.0,53.0
5420,54.0,0,155,5.0,53.0
5421,84.0,240,190,1.0,53.0
5422,62.0,0,155,4.0,55.0
5423,54.0,240,155,5.0,55.0
5424,57.0,0,155,4.0,55.0
5425,54.0,0,190,5.0,58.0
5426,57.0,0,190,4.0,58.0
5427,62.0,240,190,4.0,58.0
5428,62.0,240,190,4.0,60.0
5429,55.0,0,190,5.0,60.0
5430,83.0,240,120,1.0,52.0
5431,84.0,120,120,1.0,52.0
5432,86.0,120,120,1.0,53.0
5433,83.0,120,120,1.0,54.0
5434,59.0,0,190,5.0,54.0
5435,79.0,120,190,1.0,54.0
5436,62.0,0,190,4.0,54.0
5437,79.0,240,120,1.0,55.0
5438,81.0,120,120,1.0,56.0
5439,83.0,120,120,1.0,56.0
5440,79.0,120,120,1.0,57.0
5441,67.0,0,190,4.0,58.0
5442,76.0,0,190,1.0,58.0
5443,60.0,120,190,5.0,58.0
5444,76.0,240,120,1.0,59.0
5445,78.0,120,120,1.0,59.0
5446,79.0,120,120,1.0,60.0
5447,76.0,120,120,1.0,60.0
5448,64.0,0,190,5.0,61.0
5449,73.0,0,190,1.0,61.0
5450,67.0,120,190,4.0,61.0
5451,73.0,240,120,1.0,62.0
5452,74.0,120,120,1.0,63.0
5453,76.0,120,120,1.0,63.0
5454,73.0,120,95,1.0,64.0
5455,62.0,120,240,5.0,64.0
5456,74.0,0,240,1.0,64.0
5457,76.0,0,240,1.0,66.0
5458,61.0,240,240,5.0,66.0
5459,60.0,240,240,5.0,67.0
5460,78.0,0,240,1.0,67.0
5461,59.0,0,155,5.0,68.0
5462,79.0,240,155,1.0,68.0
5463,60.0,0,155,5.0,69.0
5464,76.0,240,155,1.0,69.0
5465,72.0,240,155,1.0,70.0
5466,64.0,0,155,5.0,70.0
5467,62.0,240,155,5.0,60.0
5468,62.0,240,155,5.0,63.0
5469,67.0,240,720,2.0,71.0
5470,71.0,0,720,1.0,71.0
5471,62.0,0,120,5.0,66.0
5472,69.0,0,190,1.0,66.0
5473,66.0,240,190,2.0,66.0
5474,64.0,120,120,5.0,63.0
5475,62.0,120,120,5.0,61.0
5476,60.0,120,120,5.0,60.0
5477,59.0,120,120,5.0,58.0
5478,57.0,120,120,5.0,56.0
5479,74.0,240,155,1.0,54.0
5480,55.0,120,480,5.0,54.0
5481,74.0,240,155,1.0,56.0
5482,76.0,240,80,1.0,59.0
5483,78.0,80,80,1.0,60.0
5484,76.0,80,80,1.0,60.0
5485,74.0,80,155,1.0,61.0
5486,74.0,240,155,1.0,64.0
5487,60.0,0,155,4.0,58.0
5488,62.0,0,155,4.0,58.0
5489,57.0,240,155,5.0,58.0
5490,62.0,0,155,4.0,60.0
5491,57.0,240,155,5.0,60.0
5492,60.0,0,155,4.0,60.0
5493,74.0,240,720,1.0,68.0
5494,62.0,240,155,4.0,61.0
5495,60.0,0,155,4.0,61.0
5496,57.0,0,155,5.0,61.0
5497,66.0,0,190,1.0,61.0
5498,60.0,0,155,4.0,63.0
5499,62.0,240,155,4.0,63.0
5500,57.0,0,155,5.0,63.0
5501,60.0,240,155,4.0,65.0
5502,57.0,0,155,5.0,65.0
5503,62.0,0,155,4.0,65.0
5504,62.0,240,190,4.0,67.0
5505,59.0,0,190,5.0,67.0
5506,67.0,120,120,1.0,60.0
5507,71.0,120,120,1.0,61.0
5508,67.0,120,120,1.0,62.0
5509,74.0,120,120,1.0,63.0
5510,71.0,120,120,1.0,65.0
5511,79.0,120,120,1.0,66.0
5512,74.0,120,120,1.0,67.0
5513,83.0,120,120,1.0,68.0
5514,79.0,120,120,1.0,69.0
5515,86.0,120,95,1.0,71.0
5516,86.0,120,95,1.0,72.0
5517,54.0,0,155,5.0,61.0
5518,62.0,0,155,4.0,61.0
5519,57.0,240,155,4.0,61.0
5520,86.0,120,605,1.0,77.0
5521,54.0,240,155,5.0,64.0
5522,62.0,0,155,4.0,64.0
5523,57.0,0,155,4.0,64.0
5524,85.0,120,120,1.0,67.0
5525,54.0,0,155,5.0,66.0
5526,62.0,0,155,4.0,66.0
5527,57.0,120,155,4.0,66.0
5528,84.0,0,240,1.0,64.0
5529,57.0,0,155,4.0,69.0
5530,62.0,240,155,4.0,69.0
5531,54.0,0,155,5.0,69.0
5532,57.0,0,155,4.0,72.0
5533,62.0,0,155,4.0,72.0
5534,54.0,240,155,5.0,72.0
5535,55.0,240,190,5.0,75.0
5536,62.0,0,190,4.0,75.0
5537,83.0,240,120,1.0,66.0
5538,84.0,120,120,1.0,67.0
5539,86.0,120,120,1.0,67.0
5540,83.0,120,120,1.0,68.0
5541,62.0,120,190,4.0,68.0
5542,59.0,0,190,5.0,68.0
5543,79.0,0,190,1.0,68.0
5544,79.0,240,120,1.0,69.0
5545,81.0,120,120,1.0,70.0
5546,83.0,120,120,1.0,70.0
5547,79.0,120,120,1.0,71.0
5548,76.0,120,190,1.0,71.0
5549,55.0,0,190,4.0,71.0
5550,48.0,0,190,5.0,71.0
5551,76.0,240,120,1.0,72.0
5552,78.0,120,120,1.0,73.0
5553,79.0,120,120,1.0,73.0
5554,76.0,120,120,1.0,74.0
5555,55.0,0,190,4.0,74.0
5556,72.0,0,190,1.0,74.0
5557,52.0,120,190,5.0,74.0
5558,72.0,240,120,1.0,75.0
5559,74.0,120,120,1.0,76.0
5560,76.0,120,120,1.0,76.0
5561,72.0,120,95,1.0,77.0
5562,74.0,120,240,1.0,77.0
5563,73.0,240,240,1.0,78.0
5564,72.0,240,240,1.0,79.0
5565,71.0,240,240,1.0,80.0
5566,72.0,240,190,1.0,81.0
5567,69.0,240,40,1.0,68.0
5568,71.0,40,40,1.0,70.0
5569,69.0,40,40,1.0,71.0
5570,50.0,0,1380,5.0,77.0
5571,67.0,40,60,1.0,72.0
5572,62.0,0,1385,4.0,77.0
5573,69.0,60,60,1.0,74.0
5574,55.0,60,190,5.0,72.0
5575,67.0,0,190,1.0,76.0
5576,59.0,480,120,1.0,75.0
5577,47.0,0,120,5.0,75.0
5578,62.0,120,120,1.0,73.0
5579,50.0,0,120,5.0,73.0
5580,67.0,120,190,1.0,71.0
5581,55.0,0,190,5.0,71.0
5582,50.0,0,120,5.0,64.0
5583,62.0,480,120,1.0,64.0
5584,55.0,120,120,5.0,62.0
5585,67.0,0,120,1.0,62.0
5586,59.0,120,190,5.0,60.0
5587,71.0,0,190,1.0,60.0
5588,67.0,0,120,1.0,52.0
5589,55.0,480,120,5.0,52.0
5590,59.0,0,120,5.0,50.0
5591,71.0,120,120,1.0,50.0
5592,62.0,120,190,5.0,49.0
5593,74.0,0,190,1.0,49.0
5594,71.0,480,120,1.0,42.0
5595,59.0,0,120,5.0,41.0
5596,62.0,120,120,5.0,37.0
5597,74.0,0,120,1.0,38.0
5598,79.0,0,180,1.0,34.0
5599,67.0,120,190,5.0,32.0
5600,83.0,1440,605,1.0,53.0
5601,84.0,600,95,1.0,53.0
5602,76.0,0,480,1.0,53.0
5603,75.0,480,190,1.0,52.0
5604,59.0,120,720,5.0,53.0
5605,69.0,0,720,4.0,53.0
5606,66.0,0,720,4.0,53.0
5607,76.0,240,155,1.0,52.0
5608,64.0,0,190,5.0,52.0
5609,67.0,0,190,4.0,52.0
5610,88.0,240,155,1.0,55.0
5611,86.0,240,155,1.0,53.0
5612,84.0,240,155,1.0,51.0
5613,83.0,240,155,1.0,49.0
5614,82.0,240,155,1.0,47.0
5615,83.0,240,300,1.0,51.0
5616,84.0,300,60,1.0,46.0
5617,83.0,60,60,1.0,47.0
5618,82.0,60,60,1.0,47.0
5619,83.0,60,120,1.0,48.0
5620,84.0,120,95,1.0,49.0
5621,76.0,0,485,1.0,50.0
5622,75.0,480,190,1.0,50.0
5623,69.0,0,720,4.0,50.0
5624,59.0,120,720,5.0,50.0
5625,66.0,0,720,4.0,50.0
5626,76.0,0,155,1.0,50.0
5627,64.0,0,185,5.0,50.0
5628,67.0,240,190,4.0,50.0
5629,88.0,240,155,1.0,53.0
5630,86.0,240,155,1.0,51.0
5631,84.0,240,155,1.0,49.0
5632,83.0,240,155,1.0,47.0
5633,82.0,240,155,1.0,45.0
5634,81.0,240,300,1.0,48.0
5635,83.0,300,60,1.0,43.0
5636,81.0,60,60,1.0,44.0
5637,80.0,60,60,1.0,44.0
5638,81.0,60,120,1.0,45.0
5639,83.0,120,95,1.0,47.0
5640,74.0,0,485,1.0,48.0
5641,73.0,480,190,1.0,47.0
5642,57.0,120,720,5.0,48.0
5643,64.0,0,720,4.0,48.0
5644,67.0,0,720,4.0,48.0
5645,74.0,240,155,1.0,47.0
5646,62.0,0,190,5.0,47.0
5647,66.0,0,190,4.0,47.0
5648,86.0,240,155,1.0,51.0
5649,85.0,240,155,1.0,48.0
5650,83.0,240,155,1.0,46.0
5651,81.0,240,155,1.0,43.0
5652,80.0,240,155,1.0,41.0
5653,81.0,240,305,1.0,46.0
5654,83.0,300,60,1.0,40.0
5655,81.0,60,60,1.0,41.0
5656,80.0,60,60,1.0,41.0
5657,81.0,60,120,1.0,42.0
5658,83.0,120,95,1.0,43.0
5659,74.0,120,480,1.0,45.0
5660,73.0,480,190,1.0,45.0
5661,64.0,0,720,4.0,45.0
5662,67.0,0,720,4.0,45.0
5663,57.0,0,720,5.0,45.0
5664,74.0,0,155,1.0,45.0
5665,66.0,240,190,4.0,45.0
5666,62.0,0,190,5.0,45.0
5667,78.0,240,155,1.0,49.0
5668,76.0,240,155,1.0,46.0
5669,74.0,240,155,1.0,44.0
5670,73.0,240,155,1.0,41.0
5671,71.0,240,155,1.0,39.0
5672,76.0,240,305,1.0,43.0
5673,78.0,300,60,1.0,38.0
5674,76.0,60,60,1.0,39.0
5675,75.0,60,60,1.0,39.0
5676,76.0,60,120,1.0,40.0
5677,78.0,120,95,1.0,41.0
5678,69.0,120,485,1.0,43.0
5679,68.0,480,190,1.0,42.0
5680,59.0,0,720,4.0,43.0
5681,52.0,0,720,5.0,43.0
5682,62.0,0,720,4.0,43.0
5683,69.0,0,155,1.0,42.0
5684,57.0,0,190,5.0,42.0
5685,61.0,240,190,4.0,42.0
5686,81.0,240,155,1.0,47.0
5687,80.0,240,155,1.0,44.0
5688,78.0,240,155,1.0,42.0
5689,76.0,240,155,1.0,39.0
5690,75.0,240,155,1.0,36.0
5691,76.0,240,320,1.0,41.0
5692,78.0,300,60,1.0,35.0
5693,76.0,60,60,1.0,35.0
5694,75.0,60,60,1.0,36.0
5695,76.0,60,120,1.0,37.0
5696,78.0,120,95,1.0,39.0
5697,69.0,0,480,1.0,40.0
5698,59.0,0,660,4.0,40.0
5699,62.0,0,665,4.0,40.0
5700,52.0,120,665,5.0,40.0
5701,68.0,480,190,1.0,35.0
5702,69.0,0,95,1.0,41.0
5703,45.0,0,190,5.0,41.0
5704,57.0,240,190,4.0,41.0
5705,64.0,120,95,2.0,42.0
5706,61.0,120,95,2.0,43.0
5707,57.0,0,190,4.0,43.0
5708,45.0,0,190,5.0,43.0
5709,64.0,120,95,2.0,44.0
5710,69.0,0,95,1.0,45.0
5711,57.0,0,190,4.0,45.0
5712,45.0,120,190,5.0,45.0
5713,64.0,120,95,2.0,46.0
5714,69.0,120,95,1.0,48.0
5715,45.0,0,190,5.0,48.0
5716,57.0,0,190,4.0,48.0
5717,64.0,120,95,2.0,49.0
5718,61.0,0,95,2.0,50.0
5719,45.0,0,190,5.0,50.0
5720,57.0,120,190,4.0,50.0
5721,64.0,120,95,2.0,51.0
5722,69.0,120,95,1.0,52.0
5723,45.0,0,190,5.0,52.0
5724,57.0,0,190,4.0,52.0
5725,64.0,120,95,2.0,53.0
5726,71.0,0,95,1.0,55.0
5727,56.0,120,190,4.0,55.0
5728,45.0,0,190,5.0,55.0
5729,64.0,120,95,2.0,56.0
5730,62.0,0,95,2.0,57.0
5731,56.0,120,190,4.0,57.0
5732,45.0,0,190,5.0,57.0
5733,64.0,120,95,2.0,58.0
5734,71.0,120,95,1.0,59.0
5735,45.0,0,190,5.0,59.0
5736,56.0,0,190,4.0,59.0
5737,64.0,120,95,2.0,60.0
5738,71.0,0,95,1.0,62.0
5739,56.0,0,190,4.0,62.0
5740,45.0,120,190,5.0,62.0
5741,64.0,120,95,2.0,63.0
5742,62.0,120,95,2.0,64.0
5743,45.0,0,190,5.0,64.0
5744,56.0,0,190,4.0,64.0
5745,64.0,120,95,2.0,65.0
5746,71.0,0,95,1.0,66.0
5747,45.0,0,190,5.0,66.0
5748,56.0,120,190,4.0,66.0
5749,64.0,120,95,2.0,67.0
5750,73.0,0,95,1.0,69.0
5751,45.0,120,190,5.0,69.0
5752,55.0,0,190,4.0,69.0
5753,67.0,120,95,2.0,70.0
5754,64.0,0,95,2.0,71.0
5755,45.0,120,190,5.0,71.0
5756,55.0,0,190,4.0,71.0
5757,67.0,120,95,2.0,72.0
5758,73.0,0,95,1.0,73.0
5759,55.0,120,190,4.0,73.0
5760,45.0,0,190,5.0,73.0
5761,67.0,120,95,2.0,74.0
5762,74.0,120,95,1.0,76.0
5763,45.0,0,190,5.0,76.0
5764,54.0,0,190,4.0,76.0
5765,69.0,120,95,2.0,77.0
5766,66.0,120,95,2.0,78.0
5767,54.0,0,190,4.0,78.0
5768,45.0,0,190,5.0,78.0
5769,69.0,120,95,2.0,79.0
5770,74.0,0,95,1.0,80.0
5771,54.0,120,190,4.0,80.0
5772,45.0,0,190,5.0,80.0
5773,69.0,120,95,2.0,81.0
5774,76.0,0,95,1.0,83.0
5775,45.0,0,190,5.0,83.0
5776,52.0,120,190,4.0,83.0
5777,73.0,120,95,2.0,84.0
5778,69.0,120,95,2.0,85.0
5779,45.0,0,190,5.0,85.0
5780,52.0,0,190,4.0,85.0
5781,73.0,120,95,2.0,86.0
5782,76.0,0,95,1.0,87.0
5783,52.0,120,190,4.0,87.0
5784,45.0,0,190,5.0,87.0
5785,73.0,120,95,2.0,88.0
5786,78.0,0,95,1.0,90.0
5787,50.0,0,190,4.0,90.0
5788,45.0,120,190,5.0,90.0
5789,74.0,120,95,2.0,91.0
5790,69.0,120,95,2.0,92.0
5791,50.0,0,190,4.0,92.0
5792,45.0,0,190,5.0,92.0
5793,74.0,120,95,2.0,93.0
5794,78.0,120,95,1.0,94.0
5795,50.0,0,190,4.0,94.0
5796,45.0,0,190,5.0,94.0
5797,74.0,120,95,2.0,95.0
5798,76.0,40,1688,2.0,97.0
5799,76.0,1680,95,1.0,78.0
5800,85.0,120,360,1.0,80.0
5801,81.0,360,95,1.0,85.0
5802,45.0,120,3110,5.0,97.0
5803,57.0,0,3110,4.0,97.0
5804,73.0,40,3080,2.0,97.0
5805,79.0,40,3000,1.0,98.0
5806,88.0,120,725,1.0,87.0
5807,52.0,0,3125,4.0,97.0
5808,69.0,0,3125,2.0,97.0
5809,86.0,720,240,1.0,68.0
5810,85.0,240,240,1.0,66.0
5811,83.0,240,240,1.0,64.0
5812,81.0,240,240,1.0,61.0
5813,80.0,240,190,1.0,59.0
5814,81.0,240,120,1.0,57.0
5815,82.0,120,120,1.0,57.0
5816,83.0,120,120,1.0,58.0
5817,81.0,120,120,1.0,59.0
5818,79.0,120,120,1.0,60.0
5819,78.0,120,120,1.0,61.0
5820,81.0,120,120,1.0,62.0
5821,79.0,120,120,1.0,63.0
5822,83.0,120,120,1.0,63.0
5823,81.0,120,120,1.0,64.0
5824,79.0,120,120,1.0,65.0
5825,78.0,120,120,1.0,66.0
5826,76.0,120,120,1.0,67.0
5827,78.0,120,120,1.0,68.0
5828,79.0,120,120,1.0,68.0
5829,78.0,120,120,1.0,69.0
5830,81.0,120,120,1.0,70.0
5831,79.0,120,120,1.0,71.0
5832,78.0,120,120,1.0,72.0
5833,76.0,120,120,1.0,73.0
5834,74.0,120,120,1.0,74.0
5835,73.0,120,120,1.0,74.0
5836,71.0,120,120,1.0,75.0
5837,69.0,120,95,1.0,76.0
5838,67.0,120,60,1.0,75.0
5839,69.0,60,60,2.0,74.0
5840,67.0,60,60,2.0,72.0
5841,69.0,60,60,2.0,71.0
5842,67.0,60,60,2.0,69.0
5843,69.0,60,60,2.0,68.0
5844,67.0,60,60,2.0,67.0
5845,69.0,60,60,2.0,66.0
5846,67.0,60,60,2.0,65.0
5847,69.0,60,60,2.0,64.0
5848,67.0,60,60,2.0,63.0
5849,69.0,60,60,2.0,62.0
5850,67.0,60,60,2.0,61.0
5851,69.0,60,60,2.0,60.0
5852,67.0,60,60,2.0,59.0
5853,69.0,60,60,2.0,58.0
5854,67.0,60,60,2.0,57.0
5855,69.0,60,60,2.0,56.0
5856,67.0,60,60,2.0,55.0
5857,69.0,60,60,2.0,54.0
5858,67.0,60,60,2.0,53.0
5859,69.0,60,60,2.0,52.0
5860,67.0,60,60,2.0,51.0
5861,69.0,60,60,2.0,50.0
5862,67.0,60,120,2.0,48.0
5863,66.0,120,120,1.0,46.0
5864,67.0,120,120,1.0,45.0
5865,68.0,120,120,1.0,44.0
5866,69.0,120,120,1.0,43.0
5867,70.0,120,120,1.0,42.0
5868,71.0,120,120,1.0,41.0
5869,72.0,120,120,1.0,40.0
5870,73.0,120,120,1.0,39.0
5871,74.0,120,120,1.0,38.0
5872,75.0,120,120,1.0,36.0
5873,76.0,120,120,1.0,35.0
5874,77.0,120,120,1.0,34.0
5875,78.0,120,120,1.0,33.0
5876,79.0,120,120,1.0,32.0
5877,80.0,120,120,1.0,31.0
5878,81.0,120,120,1.0,30.0
5879,82.0,120,120,1.0,29.0
5880,83.0,120,240,1.0,28.0
5881,81.0,720,120,1.0,35.0
5882,79.0,120,365,1.0,36.0
5883,78.0,600,120,1.0,40.0
5884,76.0,120,360,1.0,41.0
5885,78.0,600,240,1.0,45.0
5886,79.0,240,60,1.0,47.0
5887,78.0,60,60,1.0,47.0
5888,76.0,60,60,1.0,47.0
5889,78.0,60,60,1.0,48.0
5890,81.0,60,360,1.0,48.0
5891,79.0,360,95,1.0,51.0
5892,79.0,120,240,1.0,52.0
5893,81.0,240,60,1.0,53.0
5894,79.0,60,60,1.0,54.0
5895,78.0,60,60,1.0,54.0
5896,79.0,60,60,1.0,55.0
5897,80.0,60,240,1.0,55.0
5898,83.0,240,240,1.0,57.0
5899,81.0,240,155,1.0,58.0
5900,69.0,240,120,1.0,60.0
5901,81.0,60,425,1.0,66.0
5902,78.0,420,190,1.0,51.0
5903,76.0,240,80,1.0,50.0
5904,74.0,40,205,1.0,50.0
5905,73.0,200,155,1.0,49.0
5906,74.0,240,155,1.0,48.0
5907,62.0,0,720,5.0,50.0
5908,66.0,0,720,4.0,50.0
5909,76.0,240,80,1.0,47.0
5910,74.0,40,205,1.0,47.0
5911,73.0,200,155,1.0,46.0
5912,74.0,240,155,1.0,45.0
5913,59.0,0,720,5.0,47.0
5914,68.0,0,720,4.0,47.0
5915,74.0,0,480,2.0,44.0
5916,78.0,240,485,1.0,44.0
5917,69.0,0,660,4.0,44.0
5918,57.0,0,665,5.0,44.0
5919,76.0,480,190,1.0,40.0
5920,73.0,0,190,2.0,40.0
5921,67.0,240,120,1.0,44.0
5922,79.0,60,435,1.0,47.0
5923,76.0,420,190,1.0,46.0
5924,74.0,240,80,1.0,45.0
5925,73.0,40,200,1.0,44.0
5926,71.0,200,155,1.0,43.0
5927,73.0,240,155,1.0,42.0
5928,57.0,0,720,5.0,45.0
5929,64.0,0,0,4.0,41.0
5930,69.0,0,240,1.0,41.0
5931,76.0,240,155,1.0,40.0
5932,81.0,240,155,1.0,39.0
5933,61.0,240,720,5.0,41.0
5934,76.0,0,480,2.0,38.0
5935,79.0,0,480,1.0,38.0
5936,62.0,0,660,5.0,38.0
5937,69.0,240,660,4.0,38.0
5938,74.0,480,190,2.0,36.0
5939,78.0,0,190,1.0,36.0
5940,74.0,240,60,1.0,68.0
5941,50.0,0,190,5.0,68.0
5942,62.0,180,190,4.0,69.0
5943,78.0,60,420,1.0,68.0
5944,79.0,240,190,1.0,70.0
5945,64.0,0,190,4.0,70.0
5946,83.0,240,120,1.0,71.0
5947,66.0,0,190,4.0,71.0
5948,81.0,120,120,1.0,71.0
5949,79.0,120,120,1.0,71.0
5950,78.0,120,120,1.0,72.0
5951,76.0,120,120,1.0,72.0
5952,74.0,120,95,1.0,73.0
5953,74.0,120,60,1.0,73.0
5954,50.0,0,190,5.0,73.0
5955,62.0,180,190,4.0,74.0
5956,78.0,60,420,1.0,73.0
5957,79.0,240,190,1.0,75.0
5958,64.0,0,190,4.0,75.0
5959,83.0,240,120,1.0,76.0
5960,66.0,0,190,4.0,76.0
5961,81.0,120,120,1.0,76.0
5962,79.0,120,120,1.0,77.0
5963,78.0,120,120,1.0,77.0
5964,76.0,120,120,1.0,77.0
5965,74.0,120,95,1.0,78.0
5966,76.0,120,60,1.0,78.0
5967,55.0,0,190,5.0,78.0
5968,67.0,180,190,4.0,79.0
5969,83.0,60,420,1.0,79.0
5970,64.0,240,190,4.0,80.0
5971,85.0,0,190,1.0,80.0
5972,86.0,240,120,1.0,81.0
5973,66.0,0,190,4.0,81.0
5974,54.0,0,190,5.0,81.0
5975,85.0,120,120,1.0,81.0
5976,83.0,120,120,1.0,82.0
5977,81.0,120,120,1.0,82.0
5978,79.0,120,120,1.0,83.0
5979,78.0,120,95,1.0,83.0
5980,83.0,120,120,1.0,84.0
5981,55.0,0,190,5.0,84.0
5982,67.0,0,190,4.0,84.0
5983,81.0,120,120,1.0,82.0
5984,79.0,120,120,1.0,81.0
5985,78.0,120,120,1.0,79.0
5986,76.0,120,120,1.0,78.0
5987,74.0,120,95,1.0,76.0
5988,81.0,0,385,1.0,75.0
5989,76.0,0,385,2.0,75.0
5990,57.0,0,385,5.0,75.0
5991,73.0,120,385,2.0,75.0
5992,69.0,0,385,4.0,75.0
5993,57.0,720,120,1.0,52.0
5994,69.0,40,430,1.0,57.0
5995,66.0,440,190,1.0,56.0
5996,64.0,0,80,1.0,55.0
5997,62.0,40,205,1.0,54.0
5998,61.0,200,155,1.0,53.0
5999,62.0,240,155,1.0,52.0
6000,50.0,0,720,5.0,55.0
6001,54.0,240,720,4.0,55.0
6002,64.0,240,80,1.0,51.0
6003,62.0,40,205,1.0,51.0
6004,61.0,200,155,1.0,50.0
6005,62.0,240,155,1.0,49.0
6006,47.0,0,720,5.0,51.0
6007,56.0,0,720,4.0,51.0
6008,62.0,0,480,2.0,48.0
6009,66.0,0,480,1.0,48.0
6010,57.0,0,665,4.0,48.0
6011,45.0,240,665,5.0,48.0
6012,64.0,0,190,1.0,43.0
6013,61.0,480,195,2.0,43.0
6014,55.0,240,120,1.0,46.0
6015,67.0,40,435,1.0,52.0
6016,64.0,440,190,1.0,49.0
6017,62.0,0,80,1.0,48.0
6018,61.0,40,200,1.0,48.0
6019,59.0,200,155,1.0,47.0
6020,61.0,240,155,1.0,45.0
6021,45.0,0,720,5.0,48.0
6022,52.0,0,0,4.0,44.0
6023,57.0,0,240,1.0,44.0
6024,64.0,240,155,1.0,43.0
6025,69.0,240,155,1.0,42.0
6026,49.0,240,720,5.0,44.0
6027,67.0,0,480,1.0,40.0
6028,64.0,0,480,2.0,40.0
6029,57.0,240,660,4.0,40.0
6030,50.0,0,660,5.0,40.0
6031,66.0,480,190,1.0,37.0
6032,62.0,0,190,2.0,37.0
6033,74.0,240,60,1.0,76.0
6034,50.0,0,190,5.0,76.0
6035,62.0,180,190,4.0,76.0
6036,78.0,60,420,1.0,76.0
6037,64.0,240,190,4.0,77.0
6038,79.0,0,190,1.0,77.0
6039,83.0,240,120,1.0,78.0
6040,66.0,0,190,4.0,78.0
6041,81.0,120,120,1.0,78.0
6042,79.0,120,120,1.0,79.0
6043,78.0,120,120,1.0,79.0
6044,76.0,120,120,1.0,80.0
6045,74.0,120,95,1.0,80.0
6046,79.0,0,60,1.0,81.0
6047,43.0,120,190,5.0,81.0
6048,55.0,180,190,4.0,81.0
6049,83.0,60,440,1.0,81.0
6050,57.0,0,190,4.0,82.0
6051,85.0,240,190,1.0,82.0
6052,88.0,0,120,1.0,83.0
6053,59.0,240,190,4.0,83.0
6054,86.0,120,120,1.0,83.0
6055,85.0,120,120,1.0,84.0
6056,83.0,120,120,1.0,84.0
6057,81.0,120,120,1.0,85.0
6058,79.0,120,95,1.0,85.0
6059,85.0,0,120,1.0,85.0
6060,59.0,120,190,4.0,85.0
6061,55.0,0,190,5.0,85.0
6062,64.0,0,190,4.0,85.0
6063,83.0,120,120,1.0,85.0
6064,81.0,120,120,1.0,84.0
6065,79.0,120,120,1.0,83.0
6066,78.0,120,120,1.0,83.0
6067,76.0,120,95,1.0,82.0
6068,83.0,0,120,1.0,82.0
6069,66.0,0,190,4.0,82.0
6070,62.0,0,190,4.0,82.0
6071,57.0,120,190,5.0,82.0
6072,81.0,120,120,1.0,81.0
6073,79.0,120,120,1.0,80.0
6074,78.0,120,120,1.0,80.0
6075,76.0,120,120,1.0,79.0
6076,74.0,120,95,1.0,78.0
6077,81.0,0,120,1.0,78.0
6078,57.0,120,190,5.0,78.0
6079,64.0,0,190,4.0,78.0
6080,67.0,0,190,4.0,78.0
6081,79.0,120,120,1.0,77.0
6082,78.0,120,120,1.0,76.0
6083,76.0,120,120,1.0,76.0
6084,74.0,120,120,1.0,75.0
6085,73.0,120,95,1.0,75.0
6086,62.0,120,385,5.0,74.0
6087,74.0,0,385,1.0,74.0
6088,66.0,0,385,4.0,74.0
6089,62.0,0,155,1.0,67.0
6090,50.0,0,155,5.0,67.0
6091,38.0,960,155,5.0,67.0
6092,62.0,0,155,1.0,68.0
6093,38.0,0,155,5.0,68.0
6094,50.0,240,155,5.0,68.0
6095,64.0,0,60,1.0,70.0
6096,62.0,60,60,1.0,70.0
6097,61.0,60,60,1.0,70.0
6098,50.0,240,310,5.0,70.0
6099,38.0,0,310,5.0,70.0
6100,62.0,60,215,1.0,71.0
6101,50.0,0,155,5.0,73.0
6102,62.0,300,155,1.0,73.0
6103,38.0,0,155,5.0,73.0
6104,64.0,0,60,1.0,74.0
6105,62.0,60,60,1.0,74.0
6106,61.0,60,60,1.0,75.0
6107,50.0,240,310,5.0,74.0
6108,38.0,0,310,5.0,74.0
6109,62.0,60,215,1.0,75.0
6110,62.0,300,155,1.0,77.0
6111,38.0,0,155,5.0,77.0
6112,50.0,0,155,5.0,77.0
6113,48.0,240,480,5.0,74.0
6114,36.0,0,480,5.0,74.0
6115,60.0,0,485,1.0,74.0
6116,69.0,720,40,1.0,72.0
6117,74.0,0,155,4.0,61.0
6118,72.0,660,155,5.0,61.0
6119,81.0,60,845,1.0,80.0
6120,84.0,0,155,1.0,59.0
6121,74.0,240,155,4.0,59.0
6122,72.0,0,155,5.0,59.0
6123,72.0,240,155,5.0,58.0
6124,74.0,0,155,4.0,58.0
6125,82.0,0,155,1.0,58.0
6126,72.0,240,155,5.0,56.0
6127,81.0,0,155,1.0,56.0
6128,74.0,0,155,4.0,56.0
6129,72.0,0,155,5.0,55.0
6130,74.0,240,155,4.0,55.0
6131,79.0,0,155,1.0,55.0
6132,78.0,0,155,1.0,54.0
6133,74.0,240,155,4.0,54.0
6134,72.0,0,155,5.0,54.0
6135,81.0,0,720,1.0,57.0
6136,71.0,240,900,5.0,57.0
6137,74.0,0,905,4.0,57.0
6138,79.0,720,190,1.0,47.0
6139,47.0,0,155,5.0,64.0
6140,35.0,240,155,5.0,64.0
6141,59.0,0,155,1.0,64.0
6142,59.0,240,140,1.0,65.0
6143,47.0,0,155,5.0,65.0
6144,35.0,0,155,5.0,65.0
6145,59.0,240,60,1.0,67.0
6146,57.0,60,60,1.0,67.0
6147,56.0,60,60,1.0,67.0
6148,45.0,0,310,5.0,67.0
6149,33.0,0,310,5.0,67.0
6150,57.0,60,270,1.0,68.0
6151,45.0,300,155,5.0,70.0
6152,33.0,0,155,5.0,70.0
6153,57.0,0,155,1.0,70.0
6154,57.0,0,60,1.0,71.0
6155,55.0,60,60,1.0,71.0
6156,54.0,60,60,1.0,72.0
6157,43.0,240,310,5.0,71.0
6158,31.0,0,310,5.0,71.0
6159,55.0,60,270,1.0,72.0
6160,31.0,0,155,5.0,74.0
6161,43.0,0,155,5.0,74.0
6162,55.0,300,155,1.0,74.0
6163,54.0,0,480,1.0,69.0
6164,30.0,240,485,5.0,69.0
6165,42.0,0,485,5.0,69.0
6166,74.0,720,60,1.0,86.0
6167,84.0,60,780,1.0,92.0
6168,54.0,660,190,4.0,81.0
6169,83.0,120,95,1.0,81.0
6170,81.0,0,95,1.0,81.0
6171,57.0,120,190,3.0,81.0
6172,79.0,120,95,1.0,81.0
6173,78.0,0,95,1.0,80.0
6174,62.0,120,190,3.0,80.0
6175,76.0,120,95,1.0,80.0
6176,74.0,120,95,1.0,80.0
6177,54.0,0,190,4.0,80.0
6178,76.0,120,95,1.0,80.0
6179,74.0,0,95,1.0,80.0
6180,57.0,120,190,3.0,80.0
6181,72.0,120,95,1.0,80.0
6182,71.0,120,95,1.0,80.0
6183,62.0,0,190,3.0,80.0
6184,69.0,120,95,1.0,79.0
6185,71.0,120,95,1.0,79.0
6186,55.0,0,190,4.0,79.0
6187,74.0,120,95,1.0,79.0
6188,76.0,120,95,1.0,79.0
6189,59.0,0,190,3.0,79.0
6190,78.0,120,95,1.0,79.0
6191,79.0,120,95,1.0,79.0
6192,62.0,0,190,3.0,79.0
6193,81.0,120,95,1.0,79.0
6194,83.0,120,95,1.0,78.0
6195,55.0,0,190,4.0,78.0
6196,84.0,120,95,1.0,78.0
6197,86.0,0,95,1.0,78.0
6198,59.0,120,190,3.0,78.0
6199,83.0,120,95,1.0,78.0
6200,81.0,120,95,1.0,78.0
6201,62.0,0,190,3.0,78.0
6202,79.0,120,95,1.0,78.0
6203,84.0,120,95,1.0,77.0
6204,54.0,0,190,4.0,77.0
6205,83.0,120,95,1.0,77.0
6206,81.0,120,95,1.0,77.0
6207,57.0,0,190,3.0,77.0
6208,79.0,120,95,1.0,77.0
6209,78.0,0,95,1.0,77.0
6210,62.0,120,190,3.0,77.0
6211,76.0,120,95,1.0,77.0
6212,74.0,120,95,1.0,77.0
6213,54.0,0,190,4.0,77.0
6214,76.0,120,95,1.0,76.0
6215,74.0,0,95,1.0,76.0
6216,57.0,120,190,3.0,76.0
6217,72.0,120,95,1.0,76.0
6218,71.0,0,95,1.0,76.0
6219,62.0,120,190,3.0,76.0
6220,69.0,120,95,1.0,76.0
6221,71.0,0,95,1.0,76.0
6222,55.0,120,190,4.0,76.0
6223,74.0,120,95,1.0,75.0
6224,76.0,120,95,1.0,75.0
6225,59.0,0,190,3.0,75.0
6226,78.0,120,95,1.0,75.0
6227,79.0,120,95,1.0,75.0
6228,62.0,0,190,3.0,75.0
6229,81.0,120,95,1.0,75.0
6230,83.0,120,95,1.0,75.0
6231,55.0,0,190,4.0,75.0
6232,84.0,120,95,1.0,75.0
6233,86.0,120,95,1.0,74.0
6234,59.0,0,190,3.0,74.0
6235,83.0,120,95,1.0,74.0
6236,81.0,120,95,1.0,74.0
6237,62.0,0,190,3.0,74.0
6238,79.0,120,95,1.0,74.0
6239,81.0,120,95,1.0,74.0
6240,51.0,0,190,4.0,74.0
6241,79.0,120,95,1.0,74.0
6242,78.0,120,95,1.0,73.0
6243,54.0,0,190,3.0,73.0
6244,76.0,120,95,1.0,73.0
6245,75.0,120,95,1.0,73.0
6246,59.0,0,190,3.0,73.0
6247,72.0,120,95,1.0,73.0
6248,71.0,0,95,1.0,73.0
6249,51.0,120,190,4.0,73.0
6250,72.0,120,95,1.0,73.0
6251,71.0,120,95,1.0,73.0
6252,54.0,0,190,3.0,73.0
6253,69.0,120,95,1.0,72.0
6254,67.0,0,95,1.0,72.0
6255,59.0,120,190,3.0,72.0
6256,66.0,120,95,1.0,72.0
6257,67.0,0,95,1.0,72.0
6258,52.0,120,190,4.0,72.0
6259,71.0,120,95,1.0,72.0
6260,73.0,120,95,1.0,72.0
6261,55.0,0,190,3.0,72.0
6262,75.0,120,95,1.0,72.0
6263,76.0,0,95,1.0,71.0
6264,59.0,120,190,3.0,71.0
6265,78.0,120,95,1.0,71.0
6266,79.0,120,95,1.0,71.0
6267,52.0,0,190,4.0,71.0
6268,81.0,120,95,1.0,71.0
6269,83.0,120,95,1.0,71.0
6270,55.0,0,190,3.0,71.0
6271,79.0,120,95,1.0,71.0
6272,78.0,0,95,1.0,70.0
6273,59.0,120,190,3.0,70.0
6274,76.0,120,95,1.0,70.0
6275,79.0,120,95,1.0,70.0
6276,49.0,0,190,4.0,70.0
6277,78.0,120,95,1.0,70.0
6278,76.0,120,95,1.0,70.0
6279,52.0,0,190,3.0,70.0
6280,74.0,120,95,1.0,70.0
6281,73.0,120,95,1.0,70.0
6282,57.0,0,190,3.0,70.0
6283,71.0,120,95,1.0,69.0
6284,69.0,0,95,1.0,69.0
6285,49.0,120,190,4.0,69.0
6286,71.0,120,95,1.0,69.0
6287,69.0,0,120,1.0,69.0
6288,67.0,120,95,1.0,69.0
6289,52.0,120,240,3.0,69.0
6290,66.0,120,95,1.0,69.0
6291,57.0,0,190,3.0,69.0
6292,64.0,120,95,1.0,68.0
6293,66.0,0,95,1.0,68.0
6294,50.0,120,190,4.0,68.0
6295,69.0,120,95,1.0,68.0
6296,71.0,120,95,1.0,68.0
6297,54.0,0,190,3.0,68.0
6298,73.0,120,95,1.0,68.0
6299,74.0,0,95,1.0,68.0
6300,57.0,120,190,3.0,68.0
6301,76.0,120,95,1.0,68.0
6302,78.0,120,95,1.0,67.0
6303,50.0,0,190,4.0,67.0
6304,79.0,120,95,1.0,67.0
6305,81.0,0,95,1.0,67.0
6306,54.0,120,190,3.0,67.0
6307,83.0,120,95,1.0,67.0
6308,85.0,120,95,1.0,67.0
6309,57.0,0,190,3.0,67.0
6310,86.0,120,95,1.0,67.0
6311,83.0,0,95,1.0,67.0
6312,81.0,120,95,1.0,66.0
6313,79.0,120,95,1.0,66.0
6314,78.0,120,95,1.0,66.0
6315,76.0,120,95,1.0,66.0
6316,74.0,120,95,1.0,66.0
6317,55.0,120,770,5.0,67.0
6318,79.0,0,95,1.0,66.0
6319,67.0,120,95,5.0,66.0
6320,78.0,120,95,1.0,65.0
6321,66.0,0,95,5.0,65.0
6322,76.0,120,95,1.0,65.0
6323,64.0,0,95,5.0,65.0
6324,62.0,120,95,5.0,65.0
6325,74.0,0,95,1.0,65.0
6326,61.0,120,95,5.0,65.0
6327,73.0,0,95,1.0,65.0
6328,59.0,120,95,5.0,65.0
6329,71.0,0,95,1.0,65.0
6330,57.0,0,155,5.0,64.0
6331,69.0,120,160,1.0,64.0
6332,57.0,0,155,5.0,62.0
6333,45.0,240,155,5.0,62.0
6334,73.0,0,155,2.0,62.0
6335,76.0,0,155,2.0,62.0
6336,81.0,0,155,1.0,62.0
6337,81.0,0,155,1.0,60.0
6338,45.0,0,155,5.0,60.0
6339,57.0,240,155,5.0,60.0
6340,76.0,0,155,2.0,60.0
6341,73.0,0,155,2.0,60.0
6342,73.0,240,235,2.0,58.0
6343,76.0,0,235,2.0,58.0
6344,81.0,0,235,1.0,58.0
6345,57.0,0,240,5.0,58.0
6346,45.0,0,245,5.0,58.0
6347,69.0,0,665,4.0,40.0
6348,78.0,720,720,1.0,40.0
6349,76.0,720,240,1.0,41.0
6350,78.0,240,240,1.0,42.0
6351,67.0,0,665,4.0,41.0
6352,76.0,240,190,1.0,43.0
6353,62.0,240,720,5.0,42.0
6354,61.0,720,240,5.0,44.0
6355,62.0,240,240,5.0,44.0
6356,61.0,240,190,5.0,44.0
6357,74.0,0,1910,1.0,44.0
6358,66.0,0,2100,4.0,42.0
6359,78.0,480,190,1.0,53.0
6360,79.0,240,480,1.0,54.0
6361,59.0,240,1215,5.0,45.0
6362,74.0,0,665,2.0,54.0
6363,83.0,0,190,1.0,56.0
6364,55.0,480,195,5.0,47.0
6365,73.0,0,240,2.0,59.0
6366,57.0,240,240,5.0,47.0
6367,81.0,0,480,1.0,59.0
6368,59.0,240,240,5.0,48.0
6369,74.0,0,240,2.0,55.0
6370,61.0,0,240,5.0,48.0
6371,79.0,240,240,1.0,51.0
6372,76.0,0,240,2.0,51.0
6373,62.0,0,240,5.0,48.0
6374,74.0,0,365,2.0,47.0
6375,78.0,240,375,1.0,47.0
6376,64.0,240,240,5.0,49.0
6377,66.0,240,190,5.0,49.0
6378,67.0,0,725,5.0,49.0
6379,76.0,240,960,1.0,49.0
6380,78.0,240,240,1.0,52.0
6381,76.0,240,180,1.0,53.0
6382,71.0,0,1385,4.0,49.0
6383,68.0,720,665,5.0,51.0
6384,73.0,0,660,4.0,52.0
6385,69.0,0,665,5.0,52.0
6386,76.0,240,960,1.0,54.0
6387,78.0,240,240,1.0,59.0
6388,69.0,0,660,4.0,53.0
6389,67.0,720,660,5.0,53.0
6390,73.0,0,665,4.0,53.0
6391,79.0,240,240,1.0,60.0
6392,81.0,0,155,1.0,61.0
6393,74.0,0,190,4.0,54.0
6394,66.0,240,190,5.0,54.0
6395,86.0,240,155,1.0,64.0
6396,85.0,240,155,1.0,61.0
6397,83.0,240,155,1.0,59.0
6398,81.0,240,155,1.0,56.0
6399,67.0,0,480,4.0,55.0
6400,79.0,240,155,1.0,54.0
6401,59.0,0,190,5.0,51.0
6402,62.0,0,190,4.0,51.0
6403,78.0,0,480,1.0,51.0
6404,79.0,480,120,1.0,46.0
6405,62.0,0,720,4.0,49.0
6406,78.0,120,120,1.0,44.0
6407,76.0,0,360,1.0,43.0
6408,57.0,240,1080,5.0,49.0
6409,61.0,120,360,4.0,44.0
6410,69.0,720,665,2.0,52.0
6411,78.0,0,720,1.0,52.0
6412,76.0,720,240,1.0,54.0
6413,78.0,240,240,1.0,55.0
6414,67.0,0,660,2.0,54.0
6415,76.0,240,190,1.0,56.0
6416,59.0,0,720,5.0,54.0
6417,66.0,240,720,2.0,57.0
6418,57.0,720,240,5.0,56.0
6419,59.0,240,240,5.0,56.0
6420,74.0,0,1380,1.0,57.0
6421,72.0,0,660,1.0,60.0
6422,66.0,0,660,2.0,60.0
6423,57.0,240,185,5.0,56.0
6424,74.0,0,480,1.0,63.0
6425,71.0,0,0,2.0,65.0
6426,67.0,0,480,2.0,63.0
6427,55.0,240,495,5.0,57.0
6428,54.0,0,190,5.0,58.0
6429,69.0,480,190,2.0,65.0
6430,75.0,0,190,1.0,65.0
6431,71.0,0,470,2.0,66.0
6432,52.0,240,480,5.0,58.0
6433,69.0,0,480,2.0,66.0
6434,76.0,0,480,1.0,66.0
6435,78.0,0,190,2.0,68.0
6436,50.0,0,190,5.0,59.0
6437,83.0,480,190,1.0,68.0
6438,81.0,240,480,1.0,71.0
6439,49.0,0,480,5.0,59.0
6440,76.0,0,480,2.0,71.0
6441,79.0,480,190,1.0,66.0
6442,45.0,0,190,5.0,60.0
6443,73.0,0,190,2.0,66.0
6444,50.0,0,240,5.0,61.0
6445,74.0,0,480,2.0,64.0
6446,78.0,240,480,1.0,64.0
6447,52.0,240,240,5.0,61.0
6448,54.0,240,190,5.0,62.0
6449,76.0,0,240,1.0,62.0
6450,88.0,240,155,1.0,63.0
6451,88.0,240,155,1.0,64.0
6452,55.0,0,720,5.0,62.0
6453,88.0,240,155,1.0,64.0
6454,88.0,240,155,1.0,65.0
6455,88.0,240,155,1.0,66.0
6456,62.0,240,1380,4.0,62.0
6457,56.0,0,665,5.0,63.0
6458,59.0,0,1385,4.0,62.0
6459,88.0,0,240,1.0,67.0
6460,81.0,240,155,1.0,67.0
6461,81.0,240,155,1.0,68.0
6462,61.0,0,660,4.0,65.0
6463,57.0,0,665,4.0,65.0
6464,55.0,240,665,5.0,65.0
6465,81.0,0,240,1.0,69.0
6466,86.0,240,155,1.0,70.0
6467,86.0,240,155,1.0,70.0
6468,54.0,0,660,5.0,66.0
6469,57.0,240,660,4.0,66.0
6470,60.0,0,665,4.0,66.0
6471,86.0,0,155,1.0,71.0
6472,55.0,240,190,5.0,67.0
6473,59.0,0,190,4.0,67.0
6474,79.0,0,240,2.0,72.0
6475,83.0,240,240,1.0,72.0
6476,81.0,0,240,1.0,73.0
6477,78.0,240,240,2.0,73.0
6478,57.0,0,190,5.0,68.0
6479,76.0,0,240,2.0,74.0
6480,79.0,240,240,1.0,74.0
6481,74.0,0,240,2.0,74.0
6482,78.0,240,240,1.0,74.0
6483,73.0,240,190,2.0,75.0
6484,76.0,0,190,1.0,75.0
6485,57.0,120,95,3.0,75.0
6486,50.0,240,240,4.0,74.0
6487,54.0,120,95,3.0,75.0
6488,57.0,120,95,3.0,76.0
6489,54.0,120,95,3.0,77.0
6490,74.0,0,665,1.0,77.0
6491,57.0,120,95,3.0,78.0
6492,57.0,120,95,3.0,79.0
6493,50.0,120,240,4.0,78.0
6494,54.0,120,95,3.0,80.0
6495,57.0,120,95,3.0,81.0
6496,54.0,120,95,3.0,81.0
6497,78.0,0,665,1.0,78.0
6498,57.0,120,95,3.0,82.0
6499,79.0,0,120,1.0,83.0
6500,57.0,120,95,3.0,82.0
6501,52.0,120,240,4.0,83.0
6502,78.0,0,120,1.0,82.0
6503,55.0,120,95,3.0,81.0
6504,76.0,0,120,1.0,81.0
6505,57.0,120,95,3.0,80.0
6506,74.0,0,120,1.0,80.0
6507,55.0,0,95,3.0,78.0
6508,73.0,120,185,1.0,78.0
6509,57.0,120,95,3.0,77.0
6510,76.0,0,120,1.0,76.0
6511,57.0,0,95,3.0,74.0
6512,74.0,120,120,1.0,74.0
6513,49.0,120,240,4.0,76.0
6514,52.0,120,95,3.0,73.0
6515,73.0,0,120,1.0,73.0
6516,57.0,120,95,3.0,72.0
6517,71.0,0,120,1.0,72.0
6518,52.0,120,95,3.0,71.0
6519,69.0,0,120,1.0,71.0
6520,57.0,0,95,3.0,69.0
6521,67.0,120,95,1.0,69.0
6522,66.0,120,120,1.0,68.0
6523,57.0,120,95,3.0,67.0
6524,50.0,0,240,4.0,68.0
6525,54.0,0,95,3.0,66.0
6526,69.0,120,120,1.0,66.0
6527,57.0,120,95,3.0,64.0
6528,54.0,0,95,3.0,63.0
6529,74.0,120,120,1.0,63.0
6530,57.0,120,95,3.0,62.0
6531,78.0,120,120,1.0,61.0
6532,57.0,120,95,3.0,59.0
6533,50.0,0,240,4.0,61.0
6534,54.0,0,95,3.0,58.0
6535,81.0,120,120,1.0,58.0
6536,57.0,120,95,3.0,57.0
6537,54.0,120,95,3.0,56.0
6538,57.0,120,95,3.0,54.0
6539,79.0,120,120,1.0,71.0
6540,57.0,0,95,3.0,70.0
6541,52.0,0,240,4.0,71.0
6542,78.0,120,120,1.0,70.0
6543,55.0,120,95,3.0,69.0
6544,76.0,0,120,1.0,69.0
6545,57.0,0,95,3.0,68.0
6546,74.0,120,120,1.0,68.0
6547,55.0,120,95,3.0,67.0
6548,73.0,0,185,1.0,67.0
6549,57.0,120,95,3.0,67.0
6550,76.0,0,120,1.0,66.0
6551,57.0,120,95,3.0,65.0
6552,74.0,0,120,1.0,65.0
6553,49.0,120,240,4.0,66.0
6554,52.0,0,95,3.0,64.0
6555,73.0,120,120,1.0,64.0
6556,57.0,120,95,3.0,63.0
6557,71.0,0,120,1.0,63.0
6558,52.0,0,95,3.0,62.0
6559,69.0,120,120,1.0,62.0
6560,67.0,0,95,1.0,61.0
6561,57.0,120,95,3.0,61.0
6562,66.0,120,120,1.0,60.0
6563,57.0,120,95,3.0,59.0
6564,50.0,0,240,4.0,60.0
6565,54.0,120,95,3.0,58.0
6566,69.0,0,120,1.0,58.0
6567,57.0,120,95,3.0,57.0
6568,54.0,120,95,3.0,57.0
6569,74.0,0,120,1.0,57.0
6570,57.0,120,95,3.0,56.0
6571,78.0,120,120,1.0,55.0
6572,57.0,120,95,3.0,54.0
6573,50.0,0,240,4.0,55.0
6574,54.0,0,95,3.0,53.0
6575,81.0,120,120,1.0,53.0
6576,57.0,120,95,3.0,52.0
6577,54.0,120,95,3.0,51.0
6578,57.0,120,95,3.0,50.0
6579,55.0,120,190,5.0,49.0
6580,82.0,240,240,1.0,54.0
6581,83.0,240,190,1.0,48.0
6582,74.0,240,190,4.0,47.0
6583,67.0,0,190,5.0,47.0
6584,86.0,240,240,1.0,53.0
6585,83.0,240,190,1.0,45.0
6586,74.0,240,190,4.0,44.0
6587,66.0,0,190,5.0,44.0
6588,80.0,240,240,1.0,48.0
6589,81.0,240,190,1.0,42.0
6590,74.0,240,190,4.0,41.0
6591,67.0,0,190,5.0,41.0
6592,83.0,240,240,1.0,46.0
6593,79.0,240,190,1.0,40.0
6594,69.0,240,190,5.0,39.0
6595,74.0,0,190,4.0,39.0
6596,77.0,240,240,1.0,45.0
6597,78.0,240,190,1.0,37.0
6598,69.0,0,190,5.0,36.0
6599,73.0,240,190,4.0,36.0
6600,79.0,240,240,1.0,43.0
6601,76.0,240,190,1.0,34.0
6602,57.0,120,95,3.0,68.0
6603,50.0,0,240,4.0,68.0
6604,54.0,120,95,3.0,69.0
6605,57.0,120,95,3.0,70.0
6606,54.0,120,95,3.0,70.0
6607,74.0,240,665,1.0,68.0
6608,57.0,120,95,3.0,71.0
6609,57.0,120,95,3.0,73.0
6610,50.0,0,240,4.0,72.0
6611,54.0,120,95,3.0,73.0
6612,57.0,120,95,3.0,74.0
6613,54.0,120,95,3.0,75.0
6614,78.0,120,665,1.0,72.0
6615,57.0,120,95,3.0,75.0
6616,79.0,0,120,1.0,76.0
6617,57.0,120,95,3.0,75.0
6618,78.0,0,120,1.0,75.0
6619,52.0,120,240,4.0,76.0
6620,55.0,0,95,3.0,74.0
6621,76.0,120,120,1.0,74.0
6622,57.0,120,95,3.0,72.0
6623,74.0,0,120,1.0,72.0
6624,55.0,120,95,3.0,71.0
6625,73.0,0,180,1.0,71.0
6626,57.0,120,95,3.0,70.0
6627,76.0,120,120,1.0,68.0
6628,57.0,0,95,3.0,67.0
6629,74.0,120,120,1.0,67.0
6630,49.0,0,240,4.0,68.0
6631,52.0,120,95,3.0,66.0
6632,73.0,0,120,1.0,66.0
6633,57.0,0,95,3.0,64.0
6634,71.0,120,120,1.0,64.0
6635,52.0,0,95,3.0,63.0
6636,69.0,120,120,1.0,63.0
6637,67.0,0,95,1.0,62.0
6638,57.0,120,95,3.0,62.0
6639,66.0,120,120,1.0,60.0
6640,57.0,120,95,3.0,59.0
6641,50.0,0,240,4.0,60.0
6642,54.0,0,95,3.0,58.0
6643,69.0,120,120,1.0,58.0
6644,57.0,120,95,3.0,56.0
6645,54.0,120,95,3.0,55.0
6646,74.0,0,120,1.0,55.0
6647,57.0,120,95,3.0,54.0
6648,78.0,120,120,1.0,53.0
6649,57.0,120,95,3.0,51.0
6650,50.0,0,240,4.0,53.0
6651,54.0,120,95,3.0,50.0
6652,81.0,0,120,1.0,50.0
6653,57.0,120,95,3.0,49.0
6654,54.0,120,95,3.0,47.0
6655,57.0,120,95,3.0,46.0
6656,79.0,0,120,1.0,67.0
6657,57.0,120,95,3.0,66.0
6658,52.0,120,240,4.0,67.0
6659,78.0,0,120,1.0,66.0
6660,55.0,120,95,3.0,65.0
6661,76.0,0,120,1.0,65.0
6662,57.0,0,95,3.0,64.0
6663,74.0,120,120,1.0,64.0
6664,55.0,120,95,3.0,64.0
6665,73.0,0,185,1.0,64.0
6666,57.0,120,95,3.0,63.0
6667,76.0,0,120,1.0,62.0
6668,57.0,120,95,3.0,61.0
6669,49.0,120,240,4.0,62.0
6670,74.0,0,120,1.0,61.0
6671,52.0,120,95,3.0,60.0
6672,73.0,0,120,1.0,60.0
6673,57.0,0,95,3.0,59.0
6674,71.0,120,120,1.0,59.0
6675,52.0,0,95,3.0,58.0
6676,69.0,120,120,1.0,58.0
6677,67.0,0,95,1.0,57.0
6678,57.0,120,95,3.0,57.0
6679,66.0,0,120,1.0,56.0
6680,57.0,120,95,3.0,55.0
6681,50.0,120,240,4.0,56.0
6682,54.0,0,95,3.0,54.0
6683,69.0,120,120,1.0,54.0
6684,57.0,120,95,3.0,53.0
6685,54.0,0,95,3.0,53.0
6686,74.0,120,120,1.0,53.0
6687,57.0,120,95,3.0,52.0
6688,78.0,120,120,1.0,51.0
6689,57.0,120,95,3.0,50.0
6690,50.0,0,240,4.0,51.0
6691,54.0,0,95,3.0,49.0
6692,81.0,120,120,1.0,49.0
6693,57.0,120,95,3.0,48.0
6694,54.0,120,95,3.0,47.0
6695,57.0,120,95,3.0,46.0
6696,55.0,120,190,5.0,45.0
6697,82.0,240,240,1.0,50.0
6698,83.0,240,190,1.0,44.0
6699,67.0,0,190,5.0,43.0
6700,74.0,240,190,4.0,43.0
6701,86.0,240,240,1.0,42.0
6702,83.0,240,190,1.0,48.0
6703,66.0,240,190,5.0,41.0
6704,74.0,0,190,4.0,41.0
6705,80.0,240,240,1.0,47.0
6706,81.0,240,190,1.0,39.0
6707,67.0,240,190,5.0,38.0
6708,74.0,0,190,4.0,38.0
6709,83.0,240,240,1.0,46.0
6710,79.0,240,190,1.0,37.0
6711,74.0,240,190,4.0,36.0
6712,69.0,0,190,5.0,36.0
6713,77.0,240,240,1.0,42.0
6714,78.0,240,190,1.0,34.0
6715,73.0,0,190,4.0,34.0
6716,69.0,240,190,5.0,34.0
6717,79.0,240,240,1.0,40.0
6718,76.0,240,190,1.0,32.0
6719,55.0,240,190,5.0,57.0
6720,62.0,0,190,4.0,57.0
6721,70.0,0,155,2.0,64.0
6722,82.0,240,155,1.0,64.0
6723,71.0,240,155,2.0,55.0
6724,83.0,0,155,1.0,55.0
6725,55.0,240,190,5.0,54.0
6726,62.0,0,190,4.0,54.0
6727,74.0,0,155,2.0,60.0
6728,86.0,240,155,1.0,60.0
6729,83.0,0,155,1.0,53.0
6730,71.0,240,155,2.0,53.0
6731,62.0,240,190,4.0,52.0
6732,54.0,0,190,5.0,52.0
6733,68.0,0,155,2.0,58.0
6734,80.0,240,155,1.0,58.0
6735,81.0,0,155,1.0,50.0
6736,69.0,240,155,2.0,50.0
6737,55.0,0,190,5.0,49.0
6738,62.0,240,190,4.0,49.0
6739,71.0,240,155,2.0,56.0
6740,83.0,0,155,1.0,56.0
6741,79.0,0,155,1.0,47.0
6742,67.0,240,155,2.0,47.0
6743,57.0,240,190,5.0,46.0
6744,62.0,0,190,4.0,46.0
6745,77.0,0,155,1.0,54.0
6746,65.0,240,155,2.0,54.0
6747,66.0,240,155,2.0,45.0
6748,78.0,0,155,1.0,45.0
6749,57.0,240,190,5.0,44.0
6750,61.0,0,190,4.0,44.0
6751,67.0,240,155,2.0,51.0
6752,79.0,0,155,1.0,51.0
6753,76.0,240,155,1.0,42.0
6754,64.0,0,155,2.0,42.0
6755,74.0,0,190,1.0,62.0
6756,66.0,240,190,2.0,62.0
6757,62.0,120,95,3.0,62.0
6758,50.0,0,240,5.0,62.0
6759,61.0,120,95,3.0,63.0
6760,62.0,120,95,3.0,64.0
6761,61.0,120,95,3.0,64.0
6762,62.0,120,95,3.0,65.0
6763,59.0,120,95,3.0,66.0
6764,47.0,0,240,5.0,66.0
6765,58.0,120,95,3.0,67.0
6766,59.0,120,95,3.0,67.0
6767,58.0,120,95,3.0,68.0
6768,74.0,120,660,1.0,66.0
6769,66.0,0,660,2.0,66.0
6770,59.0,120,95,3.0,69.0
6771,55.0,120,95,3.0,70.0
6772,43.0,120,240,5.0,71.0
6773,54.0,120,95,3.0,68.0
6774,55.0,120,95,3.0,67.0
6775,67.0,0,480,2.0,71.0
6776,76.0,0,480,1.0,71.0
6777,54.0,0,95,3.0,65.0
6778,79.0,0,190,1.0,65.0
6779,71.0,120,190,2.0,65.0
6780,55.0,120,95,3.0,64.0
6781,64.0,0,60,1.0,63.0
6782,57.0,60,95,3.0,61.0
6783,45.0,120,240,5.0,63.0
6784,56.0,120,95,3.0,60.0
6785,57.0,120,95,3.0,58.0
6786,74.0,60,420,1.0,62.0
6787,73.0,120,40,1.0,57.0
6788,74.0,40,40,1.0,56.0
6789,56.0,0,95,3.0,57.0
6790,73.0,40,40,1.0,56.0
6791,71.0,0,60,1.0,56.0
6792,57.0,40,95,3.0,56.0
6793,73.0,60,60,1.0,55.0
6794,74.0,60,190,1.0,54.0
6795,62.0,120,95,3.0,54.0
6796,50.0,0,240,5.0,54.0
6797,61.0,120,95,3.0,55.0
6798,62.0,120,95,3.0,55.0
6799,61.0,120,95,3.0,56.0
6800,62.0,120,95,3.0,57.0
6801,66.0,120,190,2.0,57.0
6802,74.0,0,190,1.0,57.0
6803,59.0,120,95,3.0,58.0
6804,47.0,0,240,5.0,57.0
6805,58.0,0,95,3.0,59.0
6806,66.0,0,190,2.0,59.0
6807,74.0,120,190,1.0,59.0
6808,59.0,120,95,3.0,59.0
6809,58.0,0,95,3.0,60.0
6810,66.0,0,190,2.0,60.0
6811,74.0,120,190,1.0,60.0
6812,59.0,120,95,3.0,61.0
6813,55.0,120,95,3.0,62.0
6814,43.0,120,240,5.0,63.0
6815,54.0,120,95,3.0,60.0
6816,55.0,120,95,3.0,59.0
6817,76.0,0,480,1.0,63.0
6818,67.0,0,480,2.0,63.0
6819,54.0,0,95,3.0,58.0
6820,79.0,120,190,1.0,58.0
6821,71.0,0,190,2.0,58.0
6822,55.0,120,95,3.0,57.0
6823,64.0,0,60,3.0,56.0
6824,57.0,60,95,3.0,54.0
6825,45.0,120,240,5.0,56.0
6826,56.0,120,95,3.0,53.0
6827,57.0,120,95,3.0,52.0
6828,74.0,60,420,1.0,55.0
6829,73.0,0,40,1.0,51.0
6830,74.0,40,40,1.0,50.0
6831,56.0,120,95,3.0,51.0
6832,73.0,40,40,1.0,50.0
6833,71.0,0,60,1.0,49.0
6834,57.0,40,95,3.0,49.0
6835,73.0,60,60,1.0,49.0
6836,74.0,0,190,1.0,48.0
6837,50.0,60,190,5.0,48.0
6838,66.0,240,240,1.0,41.0
6839,69.0,240,240,1.0,42.0
6840,71.0,240,240,1.0,44.0
6841,73.0,240,240,1.0,46.0
6842,74.0,240,240,1.0,47.0
6843,76.0,240,190,1.0,49.0
6844,57.0,0,190,5.0,49.0
6845,61.0,0,190,4.0,49.0
6846,69.0,240,240,1.0,50.0
6847,71.0,240,240,1.0,52.0
6848,73.0,240,240,1.0,53.0
6849,74.0,240,240,1.0,55.0
6850,76.0,240,240,1.0,57.0
6851,50.0,0,190,5.0,58.0
6852,78.0,240,190,1.0,58.0
6853,62.0,0,190,4.0,58.0
6854,66.0,240,240,2.0,59.0
6855,69.0,0,240,1.0,59.0
6856,69.0,0,240,2.0,61.0
6857,73.0,240,240,1.0,61.0
6858,71.0,240,240,2.0,63.0
6859,74.0,0,240,1.0,63.0
6860,76.0,0,240,1.0,65.0
6861,73.0,240,240,2.0,65.0
6862,78.0,240,240,1.0,67.0
6863,74.0,0,240,2.0,67.0
6864,79.0,0,190,1.0,69.0
6865,64.0,240,190,4.0,70.0
6866,76.0,0,190,2.0,69.0
6867,57.0,0,190,5.0,70.0
6868,69.0,0,240,2.0,71.0
6869,73.0,240,240,1.0,71.0
6870,74.0,0,240,1.0,73.0
6871,71.0,240,240,2.0,73.0
6872,76.0,240,240,1.0,75.0
6873,73.0,0,240,2.0,75.0
6874,74.0,0,240,2.0,77.0
6875,78.0,240,240,1.0,77.0
6876,79.0,0,240,1.0,79.0
6877,76.0,240,240,2.0,79.0
6878,81.0,0,285,1.0,77.0
6879,78.0,0,285,2.0,77.0
6880,62.0,240,290,5.0,77.0
6881,66.0,0,290,5.0,77.0
6882,69.0,720,105,1.0,49.0
6883,81.0,60,425,1.0,55.0
6884,78.0,420,190,1.0,53.0
6885,76.0,0,80,1.0,52.0
6886,74.0,40,205,1.0,52.0
6887,73.0,200,155,1.0,51.0
6888,74.0,240,155,1.0,50.0
6889,62.0,0,720,5.0,52.0
6890,66.0,240,720,4.0,52.0
6891,76.0,0,80,1.0,48.0
6892,74.0,40,205,1.0,48.0
6893,73.0,200,155,1.0,47.0
6894,74.0,240,155,1.0,46.0
6895,68.0,0,720,4.0,48.0
6896,59.0,240,720,5.0,48.0
6897,78.0,0,310,1.0,45.0
6898,74.0,0,480,2.0,45.0
6899,57.0,0,660,5.0,45.0
6900,69.0,240,665,4.0,45.0
6901,73.0,480,190,2.0,42.0
6902,76.0,0,190,1.0,42.0
6903,67.0,240,120,1.0,44.0
6904,79.0,60,435,1.0,49.0
6905,76.0,420,190,1.0,48.0
6906,74.0,0,80,1.0,47.0
6907,73.0,40,200,1.0,46.0
6908,71.0,200,155,1.0,46.0
6909,73.0,240,155,1.0,44.0
6910,57.0,0,720,5.0,47.0
6911,64.0,240,0,4.0,43.0
6912,69.0,0,240,1.0,43.0
6913,76.0,240,155,1.0,42.0
6914,81.0,240,155,1.0,41.0
6915,61.0,0,720,5.0,43.0
6916,76.0,240,480,2.0,40.0
6917,79.0,0,480,1.0,40.0
6918,62.0,0,660,5.0,40.0
6919,69.0,0,665,4.0,40.0
6920,78.0,0,190,1.0,37.0
6921,74.0,480,190,2.0,37.0
6922,74.0,240,60,1.0,74.0
6923,50.0,0,190,5.0,74.0
6924,62.0,180,190,4.0,74.0
6925,78.0,60,420,1.0,74.0
6926,79.0,0,190,1.0,75.0
6927,64.0,240,190,4.0,75.0
6928,83.0,0,120,1.0,76.0
6929,66.0,240,190,4.0,76.0
6930,81.0,120,120,1.0,76.0
6931,79.0,120,120,1.0,77.0
6932,78.0,120,120,1.0,77.0
6933,76.0,120,120,1.0,78.0
6934,74.0,120,95,1.0,78.0
6935,79.0,0,60,1.0,78.0
6936,43.0,120,190,5.0,78.0
6937,55.0,180,190,4.0,79.0
6938,83.0,60,440,1.0,79.0
6939,85.0,0,190,1.0,80.0
6940,57.0,240,190,4.0,80.0
6941,88.0,240,120,1.0,81.0
6942,59.0,0,190,4.0,81.0
6943,86.0,120,120,1.0,81.0
6944,85.0,120,120,1.0,82.0
6945,83.0,120,120,1.0,82.0
6946,81.0,120,120,1.0,82.0
6947,79.0,120,95,1.0,83.0
6948,85.0,0,120,1.0,85.0
6949,55.0,0,190,5.0,85.0
6950,59.0,0,190,4.0,85.0
6951,64.0,120,190,4.0,85.0
6952,83.0,120,120,1.0,85.0
6953,81.0,120,120,1.0,84.0
6954,79.0,120,120,1.0,83.0
6955,78.0,120,120,1.0,82.0
6956,76.0,120,95,1.0,82.0
6957,83.0,120,120,1.0,81.0
6958,62.0,0,190,4.0,81.0
6959,57.0,0,190,5.0,81.0
6960,66.0,0,190,4.0,81.0
6961,81.0,120,120,1.0,80.0
6962,79.0,120,120,1.0,80.0
6963,78.0,120,120,1.0,79.0
6964,76.0,120,120,1.0,78.0
6965,74.0,120,95,1.0,78.0
6966,81.0,0,120,1.0,77.0
6967,64.0,120,190,4.0,77.0
6968,67.0,0,190,4.0,77.0
6969,57.0,0,190,5.0,77.0
6970,79.0,120,120,1.0,76.0
6971,78.0,120,120,1.0,76.0
6972,76.0,120,120,1.0,75.0
6973,74.0,120,120,1.0,74.0
6974,73.0,120,95,1.0,73.0
6975,74.0,0,190,1.0,73.0
6976,66.0,0,190,4.0,73.0
6977,62.0,120,190,5.0,73.0
6978,38.0,0,120,5.0,75.0
6979,62.0,480,120,1.0,75.0
6980,66.0,0,120,1.0,73.0
6981,42.0,120,120,5.0,73.0
6982,69.0,120,190,1.0,72.0
6983,45.0,0,190,5.0,72.0
6984,66.0,0,120,1.0,65.0
6985,42.0,480,120,5.0,65.0
6986,45.0,0,120,5.0,63.0
6987,69.0,120,120,1.0,63.0
6988,50.0,120,190,5.0,62.0
6989,74.0,0,190,1.0,62.0
6990,45.0,480,120,5.0,55.0
6991,69.0,0,120,1.0,55.0
6992,50.0,0,120,5.0,53.0
6993,74.0,120,120,1.0,53.0
6994,78.0,0,190,1.0,51.0
6995,54.0,120,190,5.0,51.0
6996,50.0,480,120,5.0,45.0
6997,74.0,0,120,1.0,44.0
6998,78.0,120,120,1.0,40.0
6999,54.0,0,120,5.0,40.0
7000,57.0,0,245,5.0,37.0
7001,81.0,120,255,1.0,37.0
7002,81.0,1440,600,1.0,49.0
7003,83.0,600,95,1.0,48.0
7004,62.0,0,720,4.0,49.0
7005,66.0,0,720,4.0,49.0
7006,74.0,120,485,1.0,48.0
7007,73.0,480,190,1.0,47.0
7008,67.0,0,720,4.0,48.0
7009,64.0,0,720,4.0,48.0
7010,74.0,0,155,1.0,50.0
7011,62.0,240,180,4.0,50.0
7012,57.0,0,1625,5.0,49.0
7013,66.0,0,190,4.0,50.0
7014,86.0,240,155,1.0,49.0
7015,85.0,240,155,1.0,47.0
7016,83.0,240,155,1.0,45.0
7017,81.0,240,155,1.0,44.0
7018,80.0,240,155,1.0,42.0
7019,81.0,240,320,1.0,45.0
7020,83.0,300,60,1.0,44.0
7021,81.0,60,65,1.0,44.0
7022,80.0,60,60,1.0,44.0
7023,81.0,60,120,1.0,44.0
7024,83.0,120,95,1.0,44.0
7025,62.0,0,720,4.0,45.0
7026,66.0,0,720,4.0,45.0
7027,74.0,120,485,1.0,44.0
7028,73.0,480,190,1.0,43.0
7029,64.0,0,720,4.0,44.0
7030,67.0,0,720,4.0,44.0
7031,57.0,0,1620,5.0,45.0
7032,62.0,0,190,4.0,45.0
7033,74.0,0,190,1.0,45.0
7034,66.0,240,190,4.0,45.0
7035,86.0,240,155,1.0,43.0
7036,85.0,240,155,1.0,42.0
7037,83.0,240,155,1.0,40.0
7038,81.0,240,155,1.0,38.0
7039,80.0,240,155,1.0,36.0
7040,81.0,0,320,1.0,40.0
7041,83.0,300,60,1.0,40.0
7042,81.0,60,65,1.0,40.0
7043,80.0,60,60,1.0,40.0
7044,81.0,60,120,1.0,40.0
7045,83.0,120,95,1.0,39.0
7046,62.0,0,720,4.0,40.0
7047,66.0,0,720,4.0,40.0
7048,74.0,0,485,1.0,39.0
7049,73.0,480,240,1.0,39.0
7050,64.0,120,720,4.0,39.0
7051,67.0,0,720,4.0,39.0
7052,62.0,0,385,4.0,38.0
7053,66.0,240,385,4.0,38.0
7054,74.0,0,385,1.0,38.0
7055,57.0,240,1843,5.0,40.0
7056,54.0,0,720,2.0,37.0
7057,47.0,720,720,5.0,37.0
7058,59.0,720,0,2.0,39.0
7059,62.0,0,720,1.0,37.0
7060,64.0,0,720,1.0,39.0
7061,62.0,0,720,2.0,39.0
7062,43.0,0,720,5.0,39.0
7063,69.0,0,720,1.0,41.0
7064,45.0,720,720,5.0,41.0
7065,61.0,0,720,2.0,41.0
7066,64.0,0,720,2.0,41.0
7067,38.0,0,385,5.0,32.0
7068,62.0,0,385,2.0,32.0
7069,57.0,720,385,2.0,32.0
7070,66.0,0,385,1.0,32.0
7071,78.0,720,190,2.0,85.0
7072,59.0,0,190,5.0,82.0
7073,47.0,0,190,5.0,82.0
7074,83.0,0,192,2.0,85.0
7075,86.0,120,95,1.0,86.0
7076,59.0,0,190,5.0,84.0
7077,47.0,120,190,5.0,84.0
7078,78.0,0,190,2.0,87.0
7079,83.0,0,192,2.0,87.0
7080,86.0,120,95,1.0,87.0
7081,78.0,120,190,2.0,88.0
7082,47.0,0,190,5.0,86.0
7083,59.0,0,190,5.0,86.0
7084,83.0,0,192,2.0,88.0
7085,86.0,120,95,1.0,89.0
7086,76.0,0,190,2.0,90.0
7087,55.0,0,190,5.0,88.0
7088,43.0,0,190,5.0,88.0
7089,83.0,120,192,2.0,90.0
7090,86.0,120,95,1.0,91.0
7091,76.0,0,190,2.0,92.0
7092,43.0,0,190,5.0,89.0
7093,55.0,0,190,5.0,89.0
7094,83.0,120,192,2.0,92.0
7095,86.0,120,95,1.0,93.0
7096,76.0,120,190,2.0,94.0
7097,55.0,0,190,5.0,91.0
7098,43.0,0,190,5.0,91.0
7099,83.0,0,192,2.0,94.0
7100,86.0,120,95,1.0,94.0
7101,76.0,0,190,2.0,95.0
7102,57.0,120,190,5.0,93.0
7103,45.0,0,190,5.0,93.0
7104,81.0,0,192,2.0,95.0
7105,85.0,120,95,1.0,96.0
7106,76.0,0,190,2.0,97.0
7107,45.0,0,190,5.0,94.0
7108,57.0,0,190,5.0,94.0
7109,81.0,120,192,2.0,97.0
7110,85.0,120,95,1.0,98.0
7111,57.0,0,190,5.0,96.0
7112,76.0,0,190,2.0,99.0
7113,45.0,120,190,5.0,96.0
7114,81.0,0,192,2.0,99.0
7115,85.0,120,95,1.0,100.0
7116,50.0,0,360,5.0,99.0
7117,38.0,120,360,5.0,99.0
7118,86.0,0,360,1.0,101.0
7119,78.0,0,360,2.0,101.0
7120,81.0,0,360,2.0,101.0
7121,74.0,0,360,2.0,101.0
7122,38.0,0,360,5.0,95.0
7123,74.0,720,360,2.0,96.0
7124,45.0,0,360,4.0,95.0
7125,81.0,0,360,1.0,96.0
7126,78.0,0,360,2.0,96.0
7127,69.0,0,360,2.0,96.0
7128,50.0,0,360,5.0,95.0
7129,38.0,0,360,5.0,90.0
7130,69.0,0,360,2.0,89.0
7131,45.0,720,360,4.0,90.0
7132,78.0,0,360,1.0,89.0
7133,50.0,0,360,5.0,90.0
7134,74.0,0,360,2.0,89.0
