,note,step,duration,channel,velocity
0,60.0,240,240,4.0,0.0
1,72.0,240,960,1.0,0.0
2,67.0,240,240,3.0,0.0
3,64.0,240,240,3.0,0.0
4,67.0,0,240,3.0,0.0
5,76.0,240,480,1.0,0.0
6,60.0,240,240,4.0,0.0
7,67.0,0,240,3.0,0.0
8,64.0,240,240,3.0,0.0
9,79.0,240,480,1.0,0.0
10,67.0,0,240,3.0,0.0
11,62.0,240,240,4.0,0.0
12,71.0,0,720,1.0,0.0
13,67.0,240,240,3.0,0.0
14,65.0,120,240,3.0,0.0
15,72.0,120,120,1.0,0.0
16,67.0,240,240,3.0,0.0
17,74.0,0,120,1.0,0.0
18,60.0,240,240,4.0,0.0
19,72.0,0,480,1.0,0.0
20,67.0,240,240,3.0,0.0
21,64.0,192,240,3.0,0.0
22,67.0,288,192,3.0,0.0
23,81.0,0,960,1.0,0.0
24,60.0,240,240,4.0,0.0
25,69.0,240,240,3.0,0.0
26,65.0,240,240,3.0,0.0
27,69.0,240,240,3.0,0.0
28,79.0,0,480,1.0,0.0
29,60.0,240,240,4.0,0.0
30,67.0,240,240,3.0,0.0
31,84.0,0,480,1.0,0.0
32,64.0,240,240,3.0,0.0
33,67.0,240,240,3.0,0.0
34,79.0,90,480,1.0,0.0
35,59.0,240,240,4.0,0.0
36,67.0,0,240,3.0,0.0
37,62.0,60,240,3.0,0.0
38,77.0,112,90,1.0,0.0
39,79.0,38,106,1.0,0.0
40,77.0,97,108,1.0,0.0
41,67.0,0,240,3.0,0.0
42,76.0,83,109,1.0,0.0
43,77.0,240,96,1.0,0.0
44,76.0,0,480,1.0,0.0
45,60.0,240,240,4.0,0.0
46,67.0,240,240,3.0,0.0
47,64.0,192,240,3.0,0.0
48,67.0,238,192,3.0,0.0
49,65.0,70,385,5.0,0.0
50,69.0,145,190,1.0,0.0
51,71.0,50,95,1.0,0.0
52,72.0,120,95,1.0,0.0
53,74.0,120,95,1.0,0.0
54,76.0,120,95,1.0,0.0
55,77.0,120,95,1.0,0.0
56,79.0,120,95,1.0,0.0
57,81.0,120,95,1.0,0.0
58,79.0,120,95,1.0,0.0
59,77.0,120,95,1.0,0.0
60,76.0,120,95,1.0,0.0
61,60.0,70,385,4.0,0.0
62,74.0,120,95,1.0,0.0
63,53.0,0,385,5.0,0.0
64,72.0,120,95,1.0,0.0
65,71.0,50,95,1.0,0.0
66,69.0,215,95,1.0,0.0
67,60.0,70,385,4.0,0.0
68,67.0,145,190,1.0,0.0
69,52.0,0,385,5.0,0.0
70,69.0,50,95,1.0,0.0
71,71.0,120,95,1.0,0.0
72,72.0,120,95,1.0,0.0
73,74.0,120,95,1.0,0.0
74,76.0,120,95,1.0,0.0
75,77.0,120,95,1.0,0.0
76,79.0,120,95,1.0,0.0
77,77.0,120,95,1.0,0.0
78,76.0,120,95,1.0,0.0
79,74.0,120,95,1.0,0.0
80,52.0,70,385,5.0,0.0
81,72.0,120,95,1.0,0.0
82,60.0,0,385,4.0,0.0
83,71.0,120,95,1.0,0.0
84,69.0,50,95,1.0,0.0
85,67.0,215,95,1.0,0.0
86,60.0,70,385,4.0,0.0
87,50.0,0,385,5.0,0.0
88,65.0,145,190,1.0,0.0
89,67.0,50,95,1.0,0.0
90,69.0,120,95,1.0,0.0
91,71.0,120,95,1.0,0.0
92,72.0,120,95,1.0,0.0
93,74.0,120,95,1.0,0.0
94,76.0,120,95,1.0,0.0
95,77.0,120,95,1.0,0.0
96,76.0,120,95,1.0,0.0
97,74.0,120,95,1.0,0.0
98,72.0,120,95,1.0,0.0
99,71.0,120,95,1.0,0.0
100,59.0,70,385,4.0,0.0
101,50.0,0,385,5.0,0.0
102,69.0,120,95,1.0,0.0
103,67.0,50,95,1.0,0.0
104,65.0,215,95,1.0,0.0
105,64.0,145,190,1.0,0.0
106,60.0,0,385,4.0,0.0
107,48.0,70,385,5.0,0.0
108,65.0,50,95,1.0,0.0
109,67.0,120,95,1.0,0.0
110,69.0,120,95,1.0,0.0
111,71.0,120,95,1.0,0.0
112,72.0,120,95,1.0,0.0
113,74.0,120,95,1.0,0.0
114,76.0,120,95,1.0,0.0
115,74.0,120,95,1.0,0.0
116,72.0,120,95,1.0,0.0
117,71.0,120,95,1.0,0.0
118,48.0,70,385,5.0,0.0
119,69.0,120,95,1.0,0.0
120,52.0,0,385,4.0,0.0
121,67.0,120,95,1.0,0.0
122,65.0,50,95,1.0,0.0
123,64.0,215,95,1.0,0.0
124,62.0,145,190,1.0,0.0
125,57.0,88,1807,4.0,0.0
126,53.0,7,1800,5.0,0.0
127,64.0,120,95,1.0,0.0
128,65.0,120,95,1.0,0.0
129,67.0,120,95,1.0,0.0
130,69.0,120,95,1.0,0.0
131,71.0,120,95,1.0,0.0
132,73.0,120,95,1.0,0.0
133,74.0,120,95,1.0,0.0
134,69.0,120,95,1.0,0.0
135,71.0,120,95,1.0,0.0
136,73.0,120,95,1.0,0.0
137,74.0,120,95,1.0,0.0
138,76.0,120,95,1.0,0.0
139,77.0,25,95,1.0,0.0
140,79.0,120,95,1.0,0.0
141,53.0,120,575,5.0,0.0
142,81.0,120,95,1.0,0.0
143,83.0,120,95,1.0,0.0
144,84.0,120,95,1.0,0.0
145,83.0,120,95,1.0,0.0
146,81.0,0,95,1.0,0.0
147,79.0,120,95,1.0,0.0
148,77.0,95,95,1.0,0.0
149,55.0,25,190,5.0,0.0
150,76.0,120,95,1.0,0.0
151,77.0,120,95,1.0,0.0
152,57.0,120,575,5.0,0.0
153,79.0,120,95,1.0,0.0
154,81.0,120,95,1.0,0.0
155,79.0,120,95,1.0,0.0
156,77.0,0,95,1.0,0.0
157,76.0,120,95,1.0,0.0
158,54.0,25,190,5.0,0.0
159,74.0,95,95,1.0,0.0
160,72.0,205,95,1.0,0.0
161,71.0,25,190,1.0,0.0
162,43.0,10,180,5.0,0.0
163,47.0,120,95,3.0,0.0
164,79.0,25,190,1.0,0.0
165,50.0,95,95,3.0,0.0
166,55.0,205,95,3.0,0.0
167,43.0,10,180,5.0,0.0
168,76.0,25,190,1.0,0.0
169,48.0,120,95,3.0,0.0
170,52.0,95,95,3.0,0.0
171,72.0,25,190,1.0,0.0
172,55.0,205,95,3.0,0.0
173,43.0,10,180,5.0,0.0
174,74.0,25,190,1.0,0.0
175,47.0,120,95,3.0,0.0
176,79.0,25,190,1.0,0.0
177,50.0,95,95,3.0,0.0
178,55.0,205,95,3.0,0.0
179,76.0,25,190,1.0,0.0
180,43.0,10,180,5.0,0.0
181,48.0,120,95,3.0,0.0
182,52.0,95,95,3.0,0.0
183,72.0,25,190,1.0,0.0
184,55.0,335,95,3.0,0.0
185,43.0,50,310,5.0,0.0
186,74.0,430,360,1.0,0.0
187,79.0,0,310,1.0,0.0
188,55.0,0,310,5.0,0.0
189,74.0,537,310,2.0,0.0
190,71.0,0,310,2.0,0.0
191,43.0,0,367,5.0,0.0
192,67.0,688,367,1.0,0.0
193,61.0,120,95,5.0,0.0
194,62.0,120,95,3.0,0.0
195,61.0,120,95,5.0,0.0
196,62.0,120,95,3.0,0.0
197,61.0,120,95,5.0,0.0
198,62.0,120,95,3.0,0.0
199,61.0,120,95,5.0,0.0
200,62.0,120,95,3.0,0.0
201,60.0,120,95,5.0,0.0
202,62.0,120,95,3.0,0.0
203,60.0,120,95,5.0,0.0
204,62.0,120,95,3.0,0.0
205,60.0,120,95,5.0,0.0
206,62.0,120,95,3.0,0.0
207,60.0,120,95,5.0,0.0
208,62.0,120,95,3.0,0.0
209,86.0,95,240,1.0,0.0
210,59.0,120,95,5.0,0.0
211,62.0,25,95,3.0,0.0
212,83.0,25,190,1.0,0.0
213,59.0,95,95,5.0,0.0
214,62.0,120,95,3.0,0.0
215,59.0,120,95,5.0,0.0
216,79.0,95,720,1.0,0.0
217,62.0,120,95,3.0,0.0
218,59.0,120,95,5.0,0.0
219,62.0,120,95,3.0,0.0
220,59.0,120,95,5.0,0.0
221,62.0,25,95,3.0,0.0
222,59.0,25,95,5.0,0.0
223,81.0,95,120,1.0,0.0
224,83.0,95,120,1.0,0.0
225,62.0,25,95,3.0,0.0
226,81.0,60,155,1.0,0.0
227,59.0,60,95,5.0,0.0
228,62.0,120,95,3.0,0.0
229,59.0,60,95,5.0,0.0
230,79.0,60,155,1.0,0.0
231,62.0,85,95,3.0,0.0
232,79.0,35,60,1.0,0.0
233,60.0,25,95,5.0,0.0
234,81.0,60,60,1.0,0.0
235,79.0,35,60,1.0,0.0
236,62.0,25,95,3.0,0.0
237,81.0,95,60,1.0,0.0
238,79.0,95,120,1.0,0.0
239,59.0,25,95,5.0,0.0
240,62.0,1,95,3.0,0.0
241,78.0,119,96,1.0,0.0
242,78.0,95,480,1.0,0.0
243,57.0,120,95,5.0,0.0
244,62.0,120,95,3.0,0.0
245,59.0,120,95,5.0,0.0
246,62.0,25,95,3.0,0.0
247,60.0,120,95,5.0,0.0
248,62.0,120,95,3.0,0.0
249,59.0,120,95,5.0,0.0
250,62.0,120,95,3.0,0.0
251,60.0,120,95,5.0,0.0
252,62.0,120,95,3.0,0.0
253,57.0,120,95,5.0,0.0
254,62.0,120,95,3.0,0.0
255,59.0,120,95,5.0,0.0
256,86.0,95,240,1.0,0.0
257,62.0,25,95,3.0,0.0
258,83.0,25,190,1.0,0.0
259,59.0,95,95,5.0,0.0
260,62.0,120,95,3.0,0.0
261,59.0,120,95,5.0,0.0
262,79.0,95,720,1.0,0.0
263,62.0,120,95,3.0,0.0
264,59.0,120,95,5.0,0.0
265,62.0,120,95,3.0,0.0
266,59.0,120,95,5.0,0.0
267,62.0,25,95,3.0,0.0
268,59.0,25,95,5.0,0.0
269,81.0,95,120,1.0,0.0
270,62.0,25,95,3.0,0.0
271,83.0,95,120,1.0,0.0
272,59.0,60,95,5.0,0.0
273,81.0,60,155,1.0,0.0
274,62.0,120,95,3.0,0.0
275,59.0,60,95,5.0,0.0
276,79.0,60,155,1.0,0.0
277,62.0,85,95,3.0,0.0
278,79.0,35,60,1.0,0.0
279,60.0,25,95,5.0,0.0
280,81.0,60,60,1.0,0.0
281,79.0,35,60,1.0,0.0
282,62.0,25,95,3.0,0.0
283,81.0,95,60,1.0,0.0
284,59.0,25,95,5.0,0.0
285,79.0,95,120,1.0,0.0
286,78.0,119,96,1.0,0.0
287,62.0,1,95,3.0,0.0
288,78.0,95,480,1.0,0.0
289,57.0,120,95,5.0,0.0
290,62.0,120,95,3.0,0.0
291,59.0,120,95,5.0,0.0
292,62.0,25,95,3.0,0.0
293,60.0,120,95,5.0,0.0
294,62.0,120,95,3.0,0.0
295,59.0,120,95,5.0,0.0
296,62.0,120,95,3.0,0.0
297,60.0,120,95,5.0,0.0
298,62.0,120,95,3.0,0.0
299,57.0,120,95,5.0,0.0
300,62.0,240,95,3.0,0.0
301,86.0,88,367,1.0,0.0
302,59.0,120,95,5.0,0.0
303,62.0,32,95,5.0,0.0
304,67.0,240,95,5.0,0.0
305,71.0,95,360,5.0,0.0
306,86.0,120,95,1.0,0.0
307,83.0,25,95,1.0,0.0
308,79.0,240,95,1.0,0.0
309,76.0,88,367,1.0,0.0
310,60.0,120,95,5.0,0.0
311,64.0,32,95,5.0,0.0
312,67.0,240,95,5.0,0.0
313,72.0,88,367,5.0,0.0
314,76.0,120,95,1.0,0.0
315,79.0,32,95,1.0,0.0
316,76.0,240,95,1.0,0.0
317,84.0,88,367,1.0,0.0
318,57.0,120,95,5.0,0.0
319,60.0,32,95,5.0,0.0
320,66.0,240,95,5.0,0.0
321,69.0,88,367,5.0,0.0
322,84.0,120,95,1.0,0.0
323,81.0,32,95,1.0,0.0
324,78.0,240,95,1.0,0.0
325,74.0,95,360,1.0,0.0
326,59.0,120,95,5.0,0.0
327,62.0,25,95,5.0,0.0
328,66.0,240,95,5.0,0.0
329,71.0,88,367,5.0,0.0
330,74.0,120,95,1.0,0.0
331,78.0,32,95,1.0,0.0
332,74.0,240,95,1.0,0.0
333,83.0,95,360,1.0,0.0
334,55.0,120,95,5.0,0.0
335,59.0,25,95,5.0,0.0
336,64.0,240,95,5.0,0.0
337,67.0,95,360,5.0,0.0
338,83.0,120,95,1.0,0.0
339,79.0,25,95,1.0,0.0
340,76.0,240,95,1.0,0.0
341,72.0,88,367,1.0,0.0
342,57.0,120,95,5.0,0.0
343,60.0,32,95,5.0,0.0
344,64.0,240,95,5.0,0.0
345,69.0,88,367,5.0,0.0
346,72.0,120,95,1.0,0.0
347,76.0,32,95,1.0,0.0
348,72.0,240,95,1.0,0.0
349,81.0,88,367,1.0,0.0
350,54.0,120,95,5.0,0.0
351,57.0,32,95,5.0,0.0
352,62.0,240,95,5.0,0.0
353,66.0,88,367,5.0,0.0
354,81.0,120,95,1.0,0.0
355,78.0,32,95,1.0,0.0
356,74.0,240,95,1.0,0.0
357,71.0,88,367,1.0,0.0
358,55.0,120,95,5.0,0.0
359,59.0,32,95,5.0,0.0
360,62.0,240,95,5.0,0.0
361,67.0,88,367,5.0,0.0
362,79.0,120,95,1.0,0.0
363,74.0,32,95,1.0,0.0
364,71.0,215,95,1.0,0.0
365,64.0,0,190,3.0,0.0
366,60.0,240,190,4.0,0.0
367,69.0,120,960,1.0,0.0
368,60.0,0,190,4.0,0.0
369,64.0,240,190,3.0,0.0
370,64.0,0,190,3.0,0.0
371,60.0,240,190,4.0,0.0
372,64.0,0,190,3.0,0.0
373,60.0,50,190,4.0,0.0
374,71.0,70,120,1.0,0.0
375,60.0,0,190,4.0,0.0
376,64.0,240,190,3.0,0.0
377,72.0,120,420,1.0,0.0
378,64.0,0,190,3.0,0.0
379,60.0,50,190,4.0,0.0
380,64.0,240,190,3.0,0.0
381,75.0,70,120,1.0,0.0
382,60.0,0,190,4.0,0.0
383,76.0,120,420,1.0,0.0
384,60.0,50,190,4.0,0.0
385,64.0,0,190,3.0,0.0
386,80.0,70,120,1.0,0.0
387,64.0,240,190,3.0,0.0
388,60.0,0,190,4.0,0.0
389,81.0,55,665,1.0,0.0
390,60.0,0,190,4.0,0.0
391,64.0,240,190,3.0,0.0
392,64.0,0,190,3.0,0.0
393,60.0,55,190,4.0,0.0
394,60.0,50,190,4.0,0.0
395,64.0,0,190,3.0,0.0
396,83.0,60,60,1.0,0.0
397,81.0,60,60,1.0,0.0
398,80.0,10,60,1.0,0.0
399,81.0,190,60,1.0,0.0
400,64.0,0,190,3.0,0.0
401,84.0,190,240,1.0,0.0
402,60.0,50,190,4.0,0.0
403,64.0,240,190,3.0,0.0
404,60.0,0,190,4.0,0.0
405,81.0,0,190,1.0,0.0
406,60.0,0,190,4.0,0.0
407,64.0,50,190,3.0,0.0
408,84.0,190,240,1.0,0.0
409,64.0,0,190,3.0,0.0
410,60.0,145,190,4.0,0.0
411,81.0,0,190,1.0,0.0
412,62.0,120,95,5.0,0.0
413,83.0,95,240,1.0,0.0
414,71.0,25,95,3.0,0.0
415,67.0,95,95,3.0,0.0
416,79.0,25,190,1.0,0.0
417,71.0,120,95,3.0,0.0
418,86.0,95,960,1.0,0.0
419,62.0,120,95,5.0,0.0
420,71.0,120,95,3.0,0.0
421,67.0,120,95,3.0,0.0
422,71.0,120,95,3.0,0.0
423,62.0,120,95,5.0,0.0
424,71.0,120,95,3.0,0.0
425,67.0,120,95,3.0,0.0
426,71.0,25,95,3.0,0.0
427,62.0,25,95,5.0,0.0
428,84.0,95,120,1.0,0.0
429,71.0,25,95,3.0,0.0
430,83.0,95,120,1.0,0.0
431,67.0,25,95,3.0,0.0
432,81.0,95,120,1.0,0.0
433,79.0,104,96,1.0,0.0
434,71.0,1,95,3.0,0.0
435,62.0,65,95,5.0,0.0
436,81.0,15,80,1.0,0.0
437,83.0,55,80,2.0,0.0
438,72.0,25,95,3.0,0.0
439,81.0,80,80,2.0,0.0
440,83.0,15,80,2.0,0.0
441,66.0,65,95,3.0,0.0
442,81.0,55,80,2.0,0.0
443,72.0,25,95,3.0,0.0
444,83.0,80,80,2.0,0.0
445,62.0,65,95,5.0,0.0
446,81.0,15,80,2.0,0.0
447,83.0,55,80,2.0,0.0
448,72.0,25,95,3.0,0.0
449,81.0,80,80,2.0,0.0
450,83.0,15,80,2.0,0.0
451,66.0,65,95,3.0,0.0
452,81.0,55,80,2.0,0.0
453,72.0,25,95,3.0,0.0
454,83.0,80,80,2.0,0.0
455,81.0,15,80,2.0,0.0
456,62.0,65,95,5.0,0.0
457,83.0,55,80,2.0,0.0
458,72.0,25,95,3.0,0.0
459,81.0,80,80,2.0,0.0
460,83.0,15,80,2.0,0.0
461,66.0,65,95,3.0,0.0
462,81.0,55,80,2.0,0.0
463,72.0,25,95,3.0,0.0
464,83.0,80,80,2.0,0.0
465,62.0,65,95,5.0,0.0
466,81.0,15,80,2.0,0.0
467,83.0,55,80,2.0,0.0
468,72.0,25,95,3.0,0.0
469,81.0,95,80,2.0,0.0
470,79.0,95,120,2.0,0.0
471,66.0,25,95,3.0,0.0
472,81.0,409,96,2.0,0.0
473,72.0,1,95,3.0,0.0
474,79.0,0,385,1.0,0.0
475,67.0,190,385,5.0,0.0
476,71.0,0,385,4.0,0.0
477,79.0,120,95,1.0,0.0
478,74.0,120,95,1.0,0.0
479,79.0,120,95,1.0,0.0
480,83.0,120,95,1.0,0.0
481,86.0,120,95,1.0,0.0
482,83.0,120,95,1.0,0.0
483,79.0,120,95,1.0,0.0
484,83.0,120,95,1.0,0.0
485,62.0,70,385,5.0,0.0
486,69.0,0,385,4.0,0.0
487,72.0,0,385,4.0,0.0
488,84.0,120,95,1.0,0.0
489,81.0,120,95,1.0,0.0
490,78.0,50,95,1.0,0.0
491,81.0,410,95,1.0,0.0
492,67.0,190,385,5.0,0.0
493,79.0,0,385,1.0,0.0
494,71.0,0,385,4.0,0.0
495,67.0,120,95,1.0,0.0
496,62.0,120,95,1.0,0.0
497,67.0,120,95,1.0,0.0
498,71.0,120,95,1.0,0.0
499,74.0,120,95,1.0,0.0
500,71.0,120,95,1.0,0.0
501,67.0,120,95,1.0,0.0
502,71.0,120,95,1.0,0.0
503,72.0,120,95,1.0,0.0
504,57.0,0,385,4.0,0.0
505,50.0,70,385,5.0,0.0
506,60.0,0,385,4.0,0.0
507,69.0,120,95,1.0,0.0
508,66.0,50,95,1.0,0.0
509,69.0,335,95,1.0,0.0
510,55.0,0,310,5.0,0.0
511,59.0,0,310,4.0,0.0
512,67.0,480,310,1.0,0.0
513,83.0,477,310,1.0,0.0
514,43.0,0,310,5.0,0.0
515,55.0,0,310,5.0,0.0
516,74.0,0,310,2.0,0.0
517,71.0,3,307,2.0,0.0
518,79.0,57,310,1.0,0.0
519,55.0,0,367,5.0,0.0
520,43.0,978,367,5.0,0.0
521,55.0,0,385,5.0,0.0
522,43.0,0,385,5.0,0.0
523,67.0,190,385,1.0,0.0
524,79.0,120,95,1.0,0.0
525,74.0,120,95,1.0,0.0
526,79.0,120,95,1.0,0.0
527,82.0,120,95,1.0,0.0
528,86.0,120,95,1.0,0.0
529,82.0,120,95,1.0,0.0
530,79.0,120,95,1.0,0.0
531,82.0,120,95,1.0,0.0
532,84.0,120,95,1.0,0.0
533,62.0,0,385,5.0,0.0
534,69.0,0,385,4.0,0.0
535,72.0,70,385,4.0,0.0
536,81.0,120,95,1.0,0.0
537,78.0,50,95,1.0,0.0
538,81.0,410,95,1.0,0.0
539,67.0,0,385,5.0,0.0
540,79.0,0,385,1.0,0.0
541,70.0,190,385,4.0,0.0
542,67.0,120,95,1.0,0.0
543,62.0,120,95,1.0,0.0
544,67.0,120,95,1.0,0.0
545,70.0,120,95,1.0,0.0
546,74.0,120,95,1.0,0.0
547,70.0,120,95,1.0,0.0
548,67.0,120,95,1.0,0.0
549,70.0,120,95,1.0,0.0
550,60.0,0,385,4.0,0.0
551,57.0,70,385,5.0,0.0
552,72.0,120,95,1.0,0.0
553,69.0,120,95,1.0,0.0
554,66.0,50,95,1.0,0.0
555,69.0,240,95,1.0,0.0
556,67.0,95,360,1.0,0.0
557,43.0,120,95,5.0,0.0
558,45.0,25,95,5.0,0.0
559,46.0,120,95,5.0,0.0
560,48.0,120,95,5.0,0.0
561,50.0,120,95,5.0,0.0
562,52.0,120,95,5.0,0.0
563,54.0,240,95,5.0,0.0
564,55.0,95,360,5.0,0.0
565,79.0,120,95,1.0,0.0
566,82.0,25,95,1.0,0.0
567,81.0,120,95,1.0,0.0
568,79.0,120,95,1.0,0.0
569,77.0,120,95,1.0,0.0
570,76.0,120,95,1.0,0.0
571,74.0,240,95,1.0,0.0
572,73.0,88,367,1.0,0.0
573,45.0,120,95,5.0,0.0
574,47.0,32,95,5.0,0.0
575,49.0,120,95,5.0,0.0
576,50.0,120,95,5.0,0.0
577,52.0,120,95,5.0,0.0
578,54.0,120,95,5.0,0.0
579,56.0,240,95,5.0,0.0
580,57.0,95,360,5.0,0.0
581,85.0,120,95,1.0,0.0
582,88.0,25,95,1.0,0.0
583,86.0,120,95,1.0,0.0
584,85.0,120,95,1.0,0.0
585,82.0,120,95,1.0,0.0
586,81.0,120,95,1.0,0.0
587,79.0,392,95,1.0,0.0
588,38.0,190,385,5.0,0.0
589,77.0,18,367,1.0,0.0
590,50.0,0,385,5.0,0.0
591,74.0,120,95,1.0,0.0
592,69.0,120,95,1.0,0.0
593,74.0,120,95,1.0,0.0
594,77.0,120,95,1.0,0.0
595,81.0,120,95,1.0,0.0
596,77.0,120,95,1.0,0.0
597,74.0,120,95,1.0,0.0
598,77.0,120,95,1.0,0.0
599,67.0,0,385,4.0,0.0
600,64.0,70,385,4.0,0.0
601,79.0,120,95,1.0,0.0
602,57.0,0,385,5.0,0.0
603,76.0,120,95,1.0,0.0
604,73.0,50,95,1.0,0.0
605,76.0,392,95,1.0,0.0
606,74.0,18,367,1.0,0.0
607,62.0,0,385,5.0,0.0
608,65.0,190,385,4.0,0.0
609,62.0,120,95,1.0,0.0
610,57.0,120,95,1.0,0.0
611,62.0,120,95,1.0,0.0
612,65.0,120,95,1.0,0.0
613,69.0,120,95,1.0,0.0
614,65.0,120,95,1.0,0.0
615,62.0,120,95,1.0,0.0
616,65.0,120,95,1.0,0.0
617,67.0,120,95,1.0,0.0
618,52.0,0,385,4.0,0.0
619,45.0,0,385,5.0,0.0
620,55.0,70,385,4.0,0.0
621,64.0,120,95,1.0,0.0
622,61.0,50,95,1.0,0.0
623,64.0,240,95,1.0,0.0
624,53.0,0,385,4.0,0.0
625,50.0,70,385,5.0,0.0
626,62.0,120,95,1.0,0.0
627,64.0,50,95,1.0,0.0
628,65.0,120,95,1.0,0.0
629,67.0,120,95,1.0,0.0
630,69.0,120,95,1.0,0.0
631,71.0,120,95,1.0,0.0
632,73.0,240,95,1.0,0.0
633,74.0,95,360,1.0,0.0
634,62.0,120,95,5.0,0.0
635,65.0,25,95,5.0,0.0
636,64.0,120,95,5.0,0.0
637,62.0,120,95,5.0,0.0
638,60.0,120,95,5.0,0.0
639,59.0,120,95,5.0,0.0
640,57.0,240,95,5.0,0.0
641,56.0,88,367,5.0,0.0
642,71.0,120,95,1.0,0.0
643,72.0,32,95,1.0,0.0
644,74.0,120,95,1.0,0.0
645,76.0,120,95,1.0,0.0
646,78.0,120,95,1.0,0.0
647,80.0,120,95,1.0,0.0
648,81.0,240,95,1.0,0.0
649,83.0,88,367,1.0,0.0
650,56.0,120,95,5.0,0.0
651,59.0,32,95,5.0,0.0
652,57.0,120,95,5.0,0.0
653,56.0,120,95,5.0,0.0
654,53.0,120,95,5.0,0.0
655,52.0,120,95,5.0,0.0
656,50.0,240,95,5.0,0.0
657,48.0,95,360,5.0,0.0
658,81.0,120,95,1.0,0.0
659,88.0,25,95,1.0,0.0
660,86.0,120,95,1.0,0.0
661,84.0,120,95,1.0,0.0
662,83.0,120,95,1.0,0.0
663,81.0,120,95,1.0,0.0
664,79.0,240,95,1.0,0.0
665,77.0,88,367,1.0,0.0
666,62.0,120,95,5.0,0.0
667,69.0,32,95,5.0,0.0
668,67.0,120,95,5.0,0.0
669,65.0,120,95,5.0,0.0
670,64.0,120,95,5.0,0.0
671,62.0,120,95,5.0,0.0
672,60.0,240,95,5.0,0.0
673,59.0,95,360,5.0,0.0
674,79.0,120,95,1.0,0.0
675,86.0,25,95,1.0,0.0
676,84.0,120,95,1.0,0.0
677,83.0,120,95,1.0,0.0
678,81.0,120,95,1.0,0.0
679,79.0,120,95,1.0,0.0
680,77.0,240,95,1.0,0.0
681,76.0,95,360,1.0,0.0
682,60.0,120,95,5.0,0.0
683,67.0,25,95,5.0,0.0
684,65.0,120,95,5.0,0.0
685,64.0,120,95,5.0,0.0
686,62.0,120,95,5.0,0.0
687,60.0,120,95,5.0,0.0
688,59.0,240,95,5.0,0.0
689,57.0,95,360,5.0,0.0
690,77.0,120,95,1.0,0.0
691,84.0,25,95,1.0,0.0
692,83.0,120,95,1.0,0.0
693,81.0,120,95,1.0,0.0
694,79.0,120,95,1.0,0.0
695,77.0,120,95,1.0,0.0
696,76.0,240,95,1.0,0.0
697,74.0,88,367,1.0,0.0
698,59.0,120,95,5.0,0.0
699,65.0,32,95,5.0,0.0
700,64.0,120,95,5.0,0.0
701,62.0,120,95,5.0,0.0
702,60.0,120,95,5.0,0.0
703,59.0,120,95,5.0,0.0
704,57.0,240,95,5.0,0.0
705,56.0,95,360,5.0,0.0
706,76.0,120,95,1.0,0.0
707,83.0,25,95,1.0,0.0
708,81.0,120,95,1.0,0.0
709,80.0,120,95,1.0,0.0
710,77.0,120,95,1.0,0.0
711,76.0,120,95,1.0,0.0
712,74.0,240,95,1.0,0.0
713,72.0,88,367,1.0,0.0
714,57.0,120,95,5.0,0.0
715,60.0,32,95,5.0,0.0
716,59.0,120,95,5.0,0.0
717,57.0,120,95,5.0,0.0
718,55.0,120,95,5.0,0.0
719,53.0,120,95,5.0,0.0
720,52.0,240,95,5.0,0.0
721,50.0,55,760,5.0,0.0
722,70.0,120,95,1.0,0.0
723,74.0,120,95,1.0,0.0
724,72.0,120,95,1.0,0.0
725,70.0,120,95,1.0,0.0
726,69.0,65,95,1.0,0.0
727,67.0,120,95,1.0,0.0
728,65.0,120,95,1.0,0.0
729,64.0,120,95,1.0,0.0
730,55.0,0,760,4.0,0.0
731,48.0,0,760,5.0,0.0
732,58.0,55,760,4.0,0.0
733,65.0,120,95,1.0,0.0
734,67.0,120,95,1.0,0.0
735,69.0,120,95,1.0,0.0
736,70.0,120,95,1.0,0.0
737,72.0,65,95,1.0,0.0
738,74.0,120,95,1.0,0.0
739,76.0,265,95,1.0,0.0
740,65.0,240,240,4.0,0.0
741,77.0,240,960,1.0,0.0
742,72.0,240,240,3.0,0.0
743,69.0,240,240,3.0,0.0
744,72.0,0,240,3.0,0.0
745,81.0,0,480,1.0,0.0
746,65.0,240,240,4.0,0.0
747,72.0,240,240,3.0,0.0
748,69.0,240,240,3.0,0.0
749,84.0,240,480,1.0,0.0
750,72.0,0,240,3.0,0.0
751,76.0,120,720,1.0,0.0
752,67.0,240,240,4.0,0.0
753,72.0,240,240,3.0,0.0
754,70.0,0,240,3.0,0.0
755,72.0,240,240,3.0,0.0
756,77.0,120,120,1.0,0.0
757,79.0,0,120,1.0,0.0
758,65.0,240,240,4.0,0.0
759,77.0,240,480,1.0,0.0
760,72.0,0,240,3.0,0.0
761,69.0,192,240,3.0,0.0
762,72.0,288,192,3.0,0.0
763,65.0,240,240,4.0,0.0
764,86.0,240,960,1.0,0.0
765,74.0,240,240,3.0,0.0
766,70.0,240,240,3.0,0.0
767,74.0,0,240,3.0,0.0
768,65.0,240,240,4.0,0.0
769,84.0,0,480,1.0,0.0
770,72.0,240,240,3.0,0.0
771,89.0,0,480,1.0,0.0
772,69.0,240,240,3.0,0.0
773,72.0,240,240,3.0,0.0
774,84.0,0,480,1.0,0.0
775,64.0,240,240,4.0,0.0
776,72.0,96,240,3.0,0.0
777,67.0,48,240,3.0,0.0
778,82.0,96,96,1.0,0.0
779,84.0,48,96,1.0,0.0
780,82.0,96,96,1.0,0.0
781,72.0,240,240,3.0,0.0
782,81.0,96,96,1.0,0.0
783,82.0,0,96,1.0,0.0
784,81.0,0,480,1.0,0.0
785,65.0,240,240,4.0,0.0
786,72.0,240,240,3.0,0.0
787,69.0,192,240,3.0,0.0
788,72.0,238,192,3.0,0.0
789,70.0,70,385,5.0,0.0
790,74.0,145,190,1.0,0.0
791,76.0,50,95,1.0,0.0
792,77.0,120,95,1.0,0.0
793,79.0,120,95,1.0,0.0
794,81.0,120,95,1.0,0.0
795,82.0,120,95,1.0,0.0
796,84.0,120,95,1.0,0.0
797,86.0,120,95,1.0,0.0
798,84.0,120,95,1.0,0.0
799,82.0,120,95,1.0,0.0
800,81.0,120,95,1.0,0.0
801,58.0,0,385,5.0,0.0
802,79.0,120,95,1.0,0.0
803,65.0,70,385,4.0,0.0
804,77.0,120,95,1.0,0.0
805,76.0,50,95,1.0,0.0
806,74.0,215,95,1.0,0.0
807,72.0,145,190,1.0,0.0
808,57.0,0,385,5.0,0.0
809,65.0,70,385,4.0,0.0
810,74.0,50,95,1.0,0.0
811,76.0,120,95,1.0,0.0
812,77.0,120,95,1.0,0.0
813,79.0,120,95,1.0,0.0
814,81.0,120,95,1.0,0.0
815,82.0,120,95,1.0,0.0
816,84.0,120,95,1.0,0.0
817,82.0,120,95,1.0,0.0
818,81.0,120,95,1.0,0.0
819,79.0,120,95,1.0,0.0
820,77.0,120,95,1.0,0.0
821,65.0,0,385,4.0,0.0
822,57.0,70,385,5.0,0.0
823,76.0,120,95,1.0,0.0
824,74.0,50,95,1.0,0.0
825,72.0,215,95,1.0,0.0
826,65.0,0,385,4.0,0.0
827,55.0,70,385,5.0,0.0
828,70.0,145,190,1.0,0.0
829,72.0,50,95,1.0,0.0
830,74.0,120,95,1.0,0.0
831,76.0,120,95,1.0,0.0
832,77.0,120,95,1.0,0.0
833,79.0,120,95,1.0,0.0
834,81.0,120,95,1.0,0.0
835,82.0,120,95,1.0,0.0
836,81.0,120,95,1.0,0.0
837,79.0,120,95,1.0,0.0
838,77.0,120,95,1.0,0.0
839,64.0,70,385,4.0,0.0
840,55.0,0,385,5.0,0.0
841,76.0,120,95,1.0,0.0
842,74.0,120,95,1.0,0.0
843,72.0,50,95,1.0,0.0
844,70.0,215,95,1.0,0.0
845,65.0,70,385,4.0,0.0
846,53.0,0,385,5.0,0.0
847,69.0,145,190,1.0,0.0
848,70.0,50,95,1.0,0.0
849,72.0,120,95,1.0,0.0
850,74.0,120,95,1.0,0.0
851,76.0,120,95,1.0,0.0
852,77.0,120,95,1.0,0.0
853,79.0,120,95,1.0,0.0
854,81.0,120,95,1.0,0.0
855,79.0,120,95,1.0,0.0
856,77.0,120,95,1.0,0.0
857,76.0,120,95,1.0,0.0
858,74.0,120,95,1.0,0.0
859,72.0,120,95,1.0,0.0
860,70.0,120,95,1.0,0.0
861,69.0,215,95,1.0,0.0
862,81.0,70,385,1.0,0.0
863,53.0,145,190,5.0,0.0
864,55.0,50,95,5.0,0.0
865,57.0,120,95,5.0,0.0
866,58.0,120,95,5.0,0.0
867,60.0,120,95,5.0,0.0
868,62.0,120,95,5.0,0.0
869,64.0,120,95,5.0,0.0
870,65.0,120,95,5.0,0.0
871,64.0,120,95,5.0,0.0
872,62.0,120,95,5.0,0.0
873,60.0,120,95,5.0,0.0
874,72.0,0,385,2.0,0.0
875,81.0,70,385,1.0,0.0
876,58.0,120,95,5.0,0.0
877,57.0,120,95,5.0,0.0
878,55.0,50,95,5.0,0.0
879,53.0,215,95,5.0,0.0
880,52.0,145,190,5.0,0.0
881,79.0,0,385,1.0,0.0
882,72.0,70,385,2.0,0.0
883,53.0,50,95,5.0,0.0
884,55.0,120,95,5.0,0.0
885,57.0,120,95,5.0,0.0
886,59.0,120,95,5.0,0.0
887,60.0,120,95,5.0,0.0
888,62.0,120,95,5.0,0.0
889,64.0,120,95,5.0,0.0
890,62.0,120,95,5.0,0.0
891,60.0,120,95,5.0,0.0
892,59.0,120,95,5.0,0.0
893,72.0,70,385,2.0,0.0
894,57.0,120,95,5.0,0.0
895,79.0,0,385,1.0,0.0
896,55.0,120,95,5.0,0.0
897,53.0,50,95,5.0,0.0
898,52.0,215,95,5.0,0.0
899,77.0,70,385,1.0,0.0
900,72.0,0,385,2.0,0.0
901,50.0,145,190,5.0,0.0
902,52.0,50,95,5.0,0.0
903,53.0,120,95,5.0,0.0
904,55.0,120,95,5.0,0.0
905,57.0,120,95,5.0,0.0
906,59.0,120,95,5.0,0.0
907,60.0,120,95,5.0,0.0
908,62.0,120,95,5.0,0.0
909,60.0,120,95,5.0,0.0
910,59.0,120,95,5.0,0.0
911,57.0,120,95,5.0,0.0
912,71.0,70,385,2.0,0.0
913,55.0,120,95,5.0,0.0
914,77.0,0,385,1.0,0.0
915,53.0,120,95,5.0,0.0
916,52.0,50,95,5.0,0.0
917,50.0,215,95,5.0,0.0
918,72.0,0,385,2.0,0.0
919,48.0,145,190,5.0,0.0
920,76.0,70,385,1.0,0.0
921,50.0,50,95,5.0,0.0
922,52.0,120,95,5.0,0.0
923,53.0,120,95,5.0,0.0
924,55.0,120,95,5.0,0.0
925,57.0,120,95,5.0,0.0
926,59.0,120,95,5.0,0.0
927,60.0,120,95,5.0,0.0
928,59.0,120,95,5.0,0.0
929,57.0,120,95,5.0,0.0
930,55.0,120,95,5.0,0.0
931,76.0,0,385,1.0,0.0
932,53.0,120,95,5.0,0.0
933,72.0,70,385,2.0,0.0
934,52.0,120,95,5.0,0.0
935,50.0,50,95,5.0,0.0
936,48.0,120,95,5.0,0.0
937,53.0,15,1800,5.0,0.0
938,57.0,80,1815,4.0,0.0
939,74.0,120,95,1.0,0.0
940,62.0,120,95,1.0,0.0
941,64.0,120,95,1.0,0.0
942,65.0,120,95,1.0,0.0
943,67.0,120,95,1.0,0.0
944,69.0,120,95,1.0,0.0
945,71.0,120,95,1.0,0.0
946,73.0,120,95,1.0,0.0
947,74.0,120,95,1.0,0.0
948,69.0,120,95,1.0,0.0
949,71.0,120,95,1.0,0.0
950,73.0,120,95,1.0,0.0
951,74.0,120,95,1.0,0.0
952,76.0,120,95,1.0,0.0
953,77.0,25,95,1.0,0.0
954,79.0,120,95,1.0,0.0
955,81.0,120,95,1.0,0.0
956,53.0,120,575,5.0,0.0
957,83.0,120,95,1.0,0.0
958,84.0,120,95,1.0,0.0
959,83.0,120,95,1.0,0.0
960,81.0,0,95,1.0,0.0
961,79.0,120,95,1.0,0.0
962,55.0,25,190,5.0,0.0
963,77.0,95,95,1.0,0.0
964,76.0,120,95,1.0,0.0
965,57.0,0,575,5.0,0.0
966,77.0,120,95,1.0,0.0
967,79.0,120,95,1.0,0.0
968,81.0,120,95,1.0,0.0
969,79.0,120,95,1.0,0.0
970,77.0,120,95,1.0,0.0
971,76.0,120,95,1.0,0.0
972,54.0,25,190,5.0,0.0
973,74.0,95,95,1.0,0.0
974,72.0,205,95,1.0,0.0
975,71.0,25,190,1.0,0.0
976,43.0,10,180,5.0,0.0
977,47.0,120,95,3.0,0.0
978,50.0,95,95,3.0,0.0
979,79.0,25,190,1.0,0.0
980,55.0,205,95,3.0,0.0
981,43.0,10,180,5.0,0.0
982,76.0,25,190,1.0,0.0
983,48.0,120,95,3.0,0.0
984,52.0,95,95,3.0,0.0
985,72.0,25,190,1.0,0.0
986,55.0,205,95,3.0,0.0
987,74.0,25,190,1.0,0.0
988,43.0,10,180,5.0,0.0
989,47.0,120,95,3.0,0.0
990,79.0,25,190,1.0,0.0
991,50.0,95,95,3.0,0.0
992,55.0,205,95,3.0,0.0
993,76.0,25,190,1.0,0.0
994,43.0,10,180,5.0,0.0
995,48.0,120,95,3.0,0.0
996,72.0,25,190,1.0,0.0
997,52.0,95,95,3.0,0.0
998,55.0,335,95,3.0,0.0
999,74.0,480,310,1.0,0.0
1000,43.0,0,310,5.0,0.0
1001,55.0,530,310,5.0,0.0
1002,79.0,0,310,1.0,0.0
1003,74.0,0,310,2.0,0.0
1004,71.0,0,310,2.0,0.0
1005,43.0,0,360,5.0,0.0
1006,67.0,695,360,1.0,0.0
1007,66.0,120,95,5.0,0.0
1008,67.0,120,95,3.0,0.0
1009,66.0,120,95,5.0,0.0
1010,67.0,120,95,3.0,0.0
1011,66.0,120,95,5.0,0.0
1012,67.0,120,95,3.0,0.0
1013,66.0,120,95,5.0,0.0
1014,67.0,120,95,3.0,0.0
1015,65.0,120,95,5.0,0.0
1016,67.0,120,95,3.0,0.0
1017,65.0,120,95,5.0,0.0
1018,67.0,120,95,3.0,0.0
1019,65.0,120,95,5.0,0.0
1020,67.0,120,95,3.0,0.0
1021,65.0,120,95,5.0,0.0
1022,67.0,120,95,3.0,0.0
1023,64.0,120,95,5.0,0.0
1024,79.0,95,240,1.0,0.0
1025,67.0,25,95,3.0,0.0
1026,64.0,95,95,5.0,0.0
1027,76.0,25,190,1.0,0.0
1028,67.0,120,95,3.0,0.0
1029,72.0,95,720,1.0,0.0
1030,64.0,120,95,5.0,0.0
1031,67.0,120,95,3.0,0.0
1032,64.0,120,95,5.0,0.0
1033,67.0,120,95,3.0,0.0
1034,64.0,120,95,5.0,0.0
1035,67.0,25,95,3.0,0.0
1036,64.0,25,95,5.0,0.0
1037,74.0,95,120,1.0,0.0
1038,76.0,95,120,1.0,0.0
1039,67.0,25,95,3.0,0.0
1040,74.0,60,155,1.0,0.0
1041,64.0,60,95,5.0,0.0
1042,67.0,120,95,3.0,0.0
1043,72.0,60,155,1.0,0.0
1044,64.0,60,95,5.0,0.0
1045,67.0,85,95,3.0,0.0
1046,65.0,25,95,5.0,0.0
1047,72.0,35,60,1.0,0.0
1048,74.0,60,60,1.0,0.0
1049,67.0,25,95,3.0,0.0
1050,72.0,35,60,1.0,0.0
1051,74.0,95,60,1.0,0.0
1052,64.0,25,95,5.0,0.0
1053,72.0,95,120,1.0,0.0
1054,67.0,1,95,3.0,0.0
1055,71.0,119,96,1.0,0.0
1056,71.0,95,480,1.0,0.0
1057,62.0,120,95,5.0,0.0
1058,67.0,120,95,3.0,0.0
1059,64.0,120,95,5.0,0.0
1060,67.0,25,95,3.0,0.0
1061,65.0,120,95,5.0,0.0
1062,67.0,120,95,3.0,0.0
1063,64.0,120,95,5.0,0.0
1064,67.0,120,95,3.0,0.0
1065,65.0,120,95,5.0,0.0
1066,67.0,120,95,3.0,0.0
1067,62.0,120,95,5.0,0.0
1068,67.0,120,95,3.0,0.0
1069,79.0,95,240,1.0,0.0
1070,64.0,120,95,5.0,0.0
1071,67.0,25,95,3.0,0.0
1072,64.0,95,95,5.0,0.0
1073,76.0,25,190,1.0,0.0
1074,67.0,120,95,3.0,0.0
1075,72.0,95,720,1.0,0.0
1076,64.0,120,95,5.0,0.0
1077,67.0,120,95,3.0,0.0
1078,64.0,120,95,5.0,0.0
1079,67.0,120,95,3.0,0.0
1080,64.0,120,95,5.0,0.0
1081,67.0,25,95,3.0,0.0
1082,64.0,25,95,5.0,0.0
1083,74.0,95,120,1.0,0.0
1084,76.0,95,120,1.0,0.0
1085,67.0,25,95,3.0,0.0
1086,64.0,60,95,5.0,0.0
1087,74.0,60,155,1.0,0.0
1088,67.0,120,95,3.0,0.0
1089,72.0,60,155,1.0,0.0
1090,64.0,60,95,5.0,0.0
1091,67.0,85,95,3.0,0.0
1092,72.0,35,60,1.0,0.0
1093,65.0,25,95,5.0,0.0
1094,74.0,60,60,1.0,0.0
1095,67.0,25,95,3.0,0.0
1096,72.0,35,60,1.0,0.0
1097,74.0,95,60,1.0,0.0
1098,72.0,95,120,1.0,0.0
1099,64.0,25,95,5.0,0.0
1100,71.0,119,96,1.0,0.0
1101,67.0,1,95,3.0,0.0
1102,62.0,120,95,5.0,0.0
1103,71.0,95,480,1.0,0.0
1104,67.0,120,95,3.0,0.0
1105,64.0,120,95,5.0,0.0
1106,67.0,25,95,3.0,0.0
1107,65.0,120,95,5.0,0.0
1108,67.0,120,95,3.0,0.0
1109,64.0,120,95,5.0,0.0
1110,67.0,120,95,3.0,0.0
1111,65.0,120,95,5.0,0.0
1112,67.0,120,95,3.0,0.0
1113,62.0,120,95,5.0,0.0
1114,67.0,240,95,3.0,0.0
1115,79.0,70,385,1.0,0.0
1116,52.0,120,95,5.0,0.0
1117,55.0,50,95,5.0,0.0
1118,60.0,240,95,5.0,0.0
1119,64.0,70,385,5.0,0.0
1120,79.0,120,95,1.0,0.0
1121,76.0,50,95,1.0,0.0
1122,72.0,240,95,1.0,0.0
1123,69.0,70,385,1.0,0.0
1124,53.0,120,95,5.0,0.0
1125,57.0,50,95,5.0,0.0
1126,60.0,240,95,5.0,0.0
1127,65.0,70,385,5.0,0.0
1128,69.0,120,95,1.0,0.0
1129,72.0,50,95,1.0,0.0
1130,69.0,240,95,1.0,0.0
1131,77.0,70,385,1.0,0.0
1132,50.0,120,95,5.0,0.0
1133,53.0,50,95,5.0,0.0
1134,59.0,240,95,5.0,0.0
1135,62.0,70,385,5.0,0.0
1136,77.0,120,95,1.0,0.0
1137,74.0,50,95,1.0,0.0
1138,71.0,240,95,1.0,0.0
1139,67.0,70,385,1.0,0.0
1140,52.0,120,95,5.0,0.0
1141,55.0,50,95,5.0,0.0
1142,59.0,240,95,5.0,0.0
1143,64.0,70,385,5.0,0.0
1144,79.0,120,95,1.0,0.0
1145,83.0,50,95,1.0,0.0
1146,79.0,240,95,1.0,0.0
1147,88.0,70,385,1.0,0.0
1148,60.0,120,95,5.0,0.0
1149,64.0,50,95,5.0,0.0
1150,69.0,240,95,5.0,0.0
1151,72.0,70,385,5.0,0.0
1152,88.0,120,95,1.0,0.0
1153,84.0,50,95,1.0,0.0
1154,81.0,240,95,1.0,0.0
1155,77.0,70,385,1.0,0.0
1156,62.0,120,95,5.0,0.0
1157,65.0,50,95,5.0,0.0
1158,69.0,240,95,5.0,0.0
1159,74.0,70,385,5.0,0.0
1160,77.0,120,95,1.0,0.0
1161,81.0,50,95,1.0,0.0
1162,77.0,240,95,1.0,0.0
1163,86.0,70,385,1.0,0.0
1164,59.0,120,95,5.0,0.0
1165,62.0,50,95,5.0,0.0
1166,67.0,240,95,5.0,0.0
1167,71.0,70,385,5.0,0.0
1168,86.0,120,95,1.0,0.0
1169,83.0,50,95,1.0,0.0
1170,79.0,240,95,1.0,0.0
1171,76.0,70,385,1.0,0.0
1172,60.0,120,95,5.0,0.0
1173,64.0,50,95,5.0,0.0
1174,67.0,240,95,5.0,0.0
1175,72.0,70,385,5.0,0.0
1176,84.0,120,95,1.0,0.0
1177,79.0,50,95,1.0,0.0
1178,76.0,455,95,1.0,0.0
1179,74.0,120,960,1.0,0.0
1180,69.0,240,190,3.0,0.0
1181,65.0,0,190,4.0,0.0
1182,65.0,0,190,4.0,0.0
1183,69.0,240,190,3.0,0.0
1184,65.0,0,190,4.0,0.0
1185,69.0,50,190,3.0,0.0
1186,69.0,0,190,3.0,0.0
1187,65.0,240,190,4.0,0.0
1188,73.0,70,120,1.0,0.0
1189,74.0,130,410,1.0,0.0
1190,69.0,0,190,3.0,0.0
1191,65.0,40,190,4.0,0.0
1192,73.0,70,120,1.0,0.0
1193,65.0,240,190,4.0,0.0
1194,69.0,0,190,3.0,0.0
1195,74.0,440,410,1.0,0.0
1196,69.0,0,190,3.0,0.0
1197,65.0,40,190,4.0,0.0
1198,81.0,120,960,1.0,0.0
1199,60.0,0,190,3.0,0.0
1200,63.0,0,190,3.0,0.0
1201,54.0,240,190,4.0,0.0
1202,63.0,0,190,3.0,0.0
1203,60.0,0,190,3.0,0.0
1204,54.0,240,190,4.0,0.0
1205,63.0,0,190,3.0,0.0
1206,60.0,0,190,3.0,0.0
1207,54.0,50,190,4.0,0.0
1208,60.0,0,190,3.0,0.0
1209,80.0,70,120,1.0,0.0
1210,54.0,0,190,4.0,0.0
1211,63.0,240,190,3.0,0.0
1212,81.0,130,410,1.0,0.0
1213,54.0,0,190,4.0,0.0
1214,60.0,40,190,3.0,0.0
1215,63.0,0,190,3.0,0.0
1216,63.0,240,190,3.0,0.0
1217,80.0,70,120,1.0,0.0
1218,54.0,0,190,4.0,0.0
1219,60.0,0,190,3.0,0.0
1220,81.0,103,412,1.0,0.0
1221,54.0,0,190,4.0,0.0
1222,60.0,0,190,3.0,0.0
1223,63.0,42,190,3.0,0.0
1224,55.0,120,95,5.0,0.0
1225,79.0,95,240,1.0,0.0
1226,64.0,25,95,3.0,0.0
1227,81.0,95,120,1.0,0.0
1228,60.0,25,95,3.0,0.0
1229,64.0,25,95,3.0,0.0
1230,83.0,95,120,1.0,0.0
1231,84.0,95,120,1.0,0.0
1232,55.0,25,95,5.0,0.0
1233,64.0,25,95,3.0,0.0
1234,86.0,95,120,1.0,0.0
1235,60.0,25,95,3.0,0.0
1236,88.0,95,120,1.0,0.0
1237,64.0,25,95,3.0,0.0
1238,86.0,95,120,1.0,0.0
1239,84.0,95,120,1.0,0.0
1240,55.0,25,95,5.0,0.0
1241,83.0,95,120,1.0,0.0
1242,64.0,25,95,3.0,0.0
1243,60.0,25,95,3.0,0.0
1244,81.0,95,120,1.0,0.0
1245,64.0,25,95,3.0,0.0
1246,79.0,95,120,1.0,0.0
1247,77.0,95,120,1.0,0.0
1248,55.0,25,95,5.0,0.0
1249,64.0,25,95,3.0,0.0
1250,76.0,95,120,1.0,0.0
1251,60.0,25,95,3.0,0.0
1252,74.0,95,120,1.0,0.0
1253,72.0,104,96,1.0,0.0
1254,64.0,1,95,3.0,0.0
1255,55.0,65,95,5.0,0.0
1256,74.0,15,80,1.0,0.0
1257,76.0,55,80,2.0,0.0
1258,65.0,25,95,3.0,0.0
1259,74.0,80,80,2.0,0.0
1260,59.0,65,95,3.0,0.0
1261,76.0,15,80,2.0,0.0
1262,74.0,55,80,2.0,0.0
1263,65.0,25,95,3.0,0.0
1264,76.0,80,80,2.0,0.0
1265,55.0,65,95,5.0,0.0
1266,74.0,15,80,2.0,0.0
1267,76.0,55,80,2.0,0.0
1268,65.0,25,95,3.0,0.0
1269,74.0,80,80,2.0,0.0
1270,76.0,15,80,2.0,0.0
1271,59.0,65,95,3.0,0.0
1272,74.0,55,80,2.0,0.0
1273,65.0,25,95,3.0,0.0
1274,76.0,80,80,2.0,0.0
1275,74.0,15,80,2.0,0.0
1276,55.0,65,95,5.0,0.0
1277,76.0,55,80,2.0,0.0
1278,65.0,25,95,3.0,0.0
1279,74.0,80,80,2.0,0.0
1280,76.0,15,80,2.0,0.0
1281,59.0,65,95,3.0,0.0
1282,74.0,55,80,2.0,0.0
1283,65.0,25,95,3.0,0.0
1284,76.0,80,80,2.0,0.0
1285,74.0,15,80,2.0,0.0
1286,55.0,65,95,5.0,0.0
1287,76.0,55,80,2.0,0.0
1288,65.0,25,95,3.0,0.0
1289,74.0,95,80,2.0,0.0
1290,59.0,25,95,3.0,0.0
1291,72.0,95,120,2.0,0.0
1292,74.0,409,96,2.0,0.0
1293,65.0,1,95,3.0,0.0
1294,64.0,0,385,4.0,0.0
1295,60.0,190,385,5.0,0.0
1296,72.0,0,385,1.0,0.0
1297,72.0,120,95,1.0,0.0
1298,67.0,120,95,1.0,0.0
1299,72.0,120,95,1.0,0.0
1300,76.0,120,95,1.0,0.0
1301,79.0,120,95,1.0,0.0
1302,76.0,120,95,1.0,0.0
1303,72.0,120,95,1.0,0.0
1304,76.0,120,95,1.0,0.0
1305,77.0,120,95,1.0,0.0
1306,55.0,0,385,5.0,0.0
1307,65.0,70,385,4.0,0.0
1308,62.0,0,385,4.0,0.0
1309,74.0,120,95,1.0,0.0
1310,71.0,50,95,1.0,0.0
1311,74.0,410,95,1.0,0.0
1312,72.0,190,385,1.0,0.0
1313,64.0,0,385,4.0,0.0
1314,60.0,0,385,5.0,0.0
1315,60.0,120,95,1.0,0.0
1316,55.0,120,95,1.0,0.0
1317,60.0,120,95,1.0,0.0
1318,64.0,120,95,1.0,0.0
1319,67.0,120,95,1.0,0.0
1320,64.0,120,95,1.0,0.0
1321,60.0,120,95,1.0,0.0
1322,64.0,120,95,1.0,0.0
1323,50.0,0,385,4.0,0.0
1324,53.0,70,385,4.0,0.0
1325,43.0,0,385,5.0,0.0
1326,65.0,120,95,1.0,0.0
1327,62.0,120,95,1.0,0.0
1328,59.0,50,95,1.0,0.0
1329,62.0,313,95,1.0,0.0
1330,48.0,0,288,5.0,0.0
1331,60.0,502,288,1.0,0.0
1332,52.0,0,288,4.0,0.0
1333,79.0,0,310,2.0,0.0
1334,84.0,0,310,1.0,0.0
1335,60.0,0,310,5.0,0.0
1336,48.0,530,310,5.0,0.0
1337,76.0,0,310,2.0,0.0
1338,48.0,7,360,5.0,0.0
1339,36.0,2609,367,5.0,0.0
1340,72.0,0,367,1.0,0.0
1341,71.0,96,960,1.0,0.0
1342,55.0,120,96,4.0,0.0
1343,62.0,120,96,3.0,0.0
1344,59.0,120,96,3.0,0.0
1345,62.0,120,96,3.0,0.0
1346,55.0,120,96,4.0,0.0
1347,62.0,120,96,3.0,0.0
1348,59.0,120,96,3.0,0.0
1349,62.0,24,96,3.0,0.0
1350,57.0,24,96,4.0,0.0
1351,74.0,96,120,1.0,0.0
1352,72.0,96,120,1.0,0.0
1353,62.0,24,96,3.0,0.0
1354,60.0,24,96,3.0,0.0
1355,71.0,96,120,1.0,0.0
1356,62.0,24,96,3.0,0.0
1357,72.0,96,120,1.0,0.0
1358,74.0,96,360,1.0,0.0
1359,55.0,120,96,4.0,0.0
1360,62.0,120,96,3.0,0.0
1361,59.0,24,96,3.0,0.0
1362,62.0,24,96,3.0,0.0
1363,71.0,96,120,1.0,0.0
1364,67.0,96,480,1.0,0.0
1365,55.0,120,96,4.0,0.0
1366,62.0,120,96,3.0,0.0
1367,59.0,120,96,3.0,0.0
1368,62.0,24,96,3.0,0.0
1369,55.0,120,96,4.0,0.0
1370,62.0,120,96,3.0,0.0
1371,59.0,120,96,3.0,0.0
1372,62.0,120,96,3.0,0.0
1373,55.0,120,96,4.0,0.0
1374,79.0,96,720,1.0,0.0
1375,64.0,120,96,3.0,0.0
1376,60.0,120,96,3.0,0.0
1377,64.0,120,96,3.0,0.0
1378,55.0,120,96,4.0,0.0
1379,64.0,24,96,3.0,0.0
1380,81.0,96,120,1.0,0.0
1381,60.0,24,96,3.0,0.0
1382,79.0,96,120,1.0,0.0
1383,64.0,24,96,3.0,0.0
1384,78.0,96,120,1.0,0.0
1385,55.0,24,96,4.0,0.0
1386,76.0,96,120,1.0,0.0
1387,61.0,24,96,3.0,0.0
1388,74.0,96,120,1.0,0.0
1389,58.0,24,96,3.0,0.0
1390,61.0,24,96,3.0,0.0
1391,73.0,96,120,1.0,0.0
1392,55.0,120,96,4.0,0.0
1393,74.0,96,360,1.0,0.0
1394,62.0,120,96,3.0,0.0
1395,59.0,24,96,3.0,0.0
1396,71.0,96,120,1.0,0.0
1397,62.0,24,96,3.0,0.0
1398,67.0,96,480,1.0,0.0
1399,55.0,120,96,4.0,0.0
1400,62.0,120,96,3.0,0.0
1401,59.0,120,96,3.0,0.0
1402,62.0,24,96,3.0,0.0
1403,55.0,120,96,4.0,0.0
1404,62.0,120,96,3.0,0.0
1405,59.0,120,96,3.0,0.0
1406,62.0,120,96,3.0,0.0
1407,57.0,120,96,4.0,0.0
1408,72.0,96,360,1.0,0.0
1409,62.0,120,96,3.0,0.0
1410,60.0,24,96,3.0,0.0
1411,62.0,24,96,3.0,0.0
1412,69.0,96,120,1.0,0.0
1413,57.0,59,96,4.0,0.0
1414,66.0,61,155,1.0,0.0
1415,62.0,120,96,3.0,0.0
1416,69.0,61,155,1.0,0.0
1417,60.0,59,96,3.0,0.0
1418,62.0,120,96,3.0,0.0
1419,71.0,61,155,1.0,0.0
1420,57.0,59,96,4.0,0.0
1421,62.0,120,96,3.0,0.0
1422,72.0,61,155,1.0,0.0
1423,60.0,59,96,3.0,0.0
1424,62.0,120,96,3.0,0.0
1425,55.0,120,96,4.0,0.0
1426,74.0,96,360,1.0,0.0
1427,62.0,120,96,3.0,0.0
1428,59.0,24,96,3.0,0.0
1429,71.0,96,120,1.0,0.0
1430,62.0,24,96,3.0,0.0
1431,79.0,96,480,1.0,0.0
1432,52.0,120,96,4.0,0.0
1433,59.0,120,96,3.0,0.0
1434,55.0,120,96,3.0,0.0
1435,59.0,24,96,3.0,0.0
1436,47.0,120,96,4.0,0.0
1437,55.0,120,96,3.0,0.0
1438,50.0,120,96,3.0,0.0
1439,55.0,144,96,3.0,0.0
1440,52.0,120,480,3.0,0.0
1441,48.0,0,960,4.0,0.0
1442,81.0,120,120,1.0,0.0
1443,79.0,120,120,1.0,0.0
1444,78.0,120,120,1.0,0.0
1445,79.0,0,120,1.0,0.0
1446,55.0,0,960,3.0,0.0
1447,78.0,120,120,1.0,0.0
1448,76.0,120,120,1.0,0.0
1449,75.0,120,120,1.0,0.0
1450,76.0,120,120,1.0,0.0
1451,52.0,360,480,4.0,0.0
1452,74.0,120,120,1.0,0.0
1453,72.0,120,120,1.0,0.0
1454,71.0,120,120,1.0,0.0
1455,72.0,0,120,1.0,0.0
1456,50.0,240,960,4.0,0.0
1457,55.0,0,480,3.0,0.0
1458,71.0,60,360,1.0,0.0
1459,72.0,60,60,1.0,0.0
1460,71.0,190,60,1.0,0.0
1461,54.0,0,480,3.0,0.0
1462,69.0,290,190,1.0,0.0
1463,74.0,0,240,1.0,0.0
1464,73.0,240,240,1.0,0.0
1465,72.0,96,240,1.0,0.0
1466,55.0,120,96,4.0,0.0
1467,71.0,96,600,1.0,0.0
1468,62.0,120,96,3.0,0.0
1469,59.0,120,96,3.0,0.0
1470,62.0,120,96,3.0,0.0
1471,55.0,24,96,4.0,0.0
1472,67.0,96,120,1.0,0.0
1473,62.0,24,96,3.0,0.0
1474,59.0,24,96,3.0,0.0
1475,71.0,96,120,1.0,0.0
1476,62.0,24,96,3.0,0.0
1477,74.0,96,120,1.0,0.0
1478,72.0,96,120,1.0,0.0
1479,57.0,24,96,4.0,0.0
1480,69.0,96,120,1.0,0.0
1481,62.0,24,96,3.0,0.0
1482,60.0,24,96,3.0,0.0
1483,72.0,96,120,1.0,0.0
1484,76.0,96,120,1.0,0.0
1485,62.0,24,96,3.0,0.0
1486,74.0,96,360,1.0,0.0
1487,55.0,120,96,4.0,0.0
1488,62.0,120,96,3.0,0.0
1489,59.0,24,96,3.0,0.0
1490,62.0,24,96,3.0,0.0
1491,71.0,80,120,1.0,0.0
1492,67.0,16,80,1.0,0.0
1493,55.0,104,96,4.0,0.0
1494,62.0,104,96,3.0,0.0
1495,67.0,16,80,1.0,0.0
1496,59.0,104,96,3.0,0.0
1497,69.0,16,80,1.0,0.0
1498,62.0,104,96,3.0,0.0
1499,71.0,16,80,1.0,0.0
1500,72.0,16,80,1.0,0.0
1501,55.0,104,96,4.0,0.0
1502,62.0,104,96,3.0,0.0
1503,74.0,16,80,1.0,0.0
1504,76.0,16,80,1.0,0.0
1505,59.0,104,96,3.0,0.0
1506,78.0,16,80,1.0,0.0
1507,62.0,120,96,3.0,0.0
1508,79.0,96,120,1.0,0.0
1509,55.0,24,96,4.0,0.0
1510,78.0,96,120,1.0,0.0
1511,64.0,24,96,3.0,0.0
1512,79.0,96,120,1.0,0.0
1513,60.0,24,96,3.0,0.0
1514,64.0,24,96,3.0,0.0
1515,78.0,96,120,1.0,0.0
1516,81.0,96,120,1.0,0.0
1517,55.0,24,96,4.0,0.0
1518,64.0,24,96,3.0,0.0
1519,79.0,96,120,1.0,0.0
1520,78.0,96,120,1.0,0.0
1521,60.0,24,96,3.0,0.0
1522,79.0,96,120,1.0,0.0
1523,64.0,24,96,3.0,0.0
1524,78.0,96,120,1.0,0.0
1525,55.0,24,96,4.0,0.0
1526,76.0,96,120,1.0,0.0
1527,61.0,24,96,3.0,0.0
1528,74.0,96,120,1.0,0.0
1529,58.0,24,96,3.0,0.0
1530,73.0,96,120,1.0,0.0
1531,61.0,24,96,3.0,0.0
1532,55.0,24,96,4.0,0.0
1533,74.0,96,120,1.0,0.0
1534,62.0,24,96,3.0,0.0
1535,71.0,96,120,1.0,0.0
1536,59.0,24,96,3.0,0.0
1537,74.0,96,120,1.0,0.0
1538,62.0,24,96,3.0,0.0
1539,71.0,96,120,1.0,0.0
1540,55.0,120,96,4.0,0.0
1541,67.0,96,480,1.0,0.0
1542,62.0,120,96,3.0,0.0
1543,59.0,120,96,3.0,0.0
1544,62.0,24,96,3.0,0.0
1545,55.0,120,96,4.0,0.0
1546,62.0,120,96,3.0,0.0
1547,59.0,120,96,3.0,0.0
1548,62.0,120,96,3.0,0.0
1549,57.0,24,96,4.0,0.0
1550,72.0,96,120,1.0,0.0
1551,62.0,24,96,3.0,0.0
1552,69.0,96,120,1.0,0.0
1553,72.0,96,120,1.0,0.0
1554,60.0,24,96,3.0,0.0
1555,62.0,24,96,3.0,0.0
1556,69.0,80,120,1.0,0.0
1557,57.0,120,96,4.0,0.0
1558,66.0,16,80,1.0,0.0
1559,69.0,96,120,1.0,0.0
1560,62.0,24,96,3.0,0.0
1561,60.0,24,96,3.0,0.0
1562,68.0,96,120,1.0,0.0
1563,69.0,96,120,1.0,0.0
1564,62.0,24,96,3.0,0.0
1565,70.0,96,120,1.0,0.0
1566,57.0,24,96,4.0,0.0
1567,71.0,96,120,1.0,0.0
1568,62.0,24,96,3.0,0.0
1569,60.0,24,96,3.0,0.0
1570,72.0,96,120,1.0,0.0
1571,73.0,120,96,1.0,0.0
1572,62.0,0,96,3.0,0.0
1573,55.0,24,96,4.0,0.0
1574,74.0,96,120,1.0,0.0
1575,62.0,24,96,3.0,0.0
1576,71.0,96,120,1.0,0.0
1577,59.0,24,96,3.0,0.0
1578,74.0,96,120,1.0,0.0
1579,62.0,31,96,3.0,0.0
1580,71.0,89,127,1.0,0.0
1581,52.0,120,96,4.0,0.0
1582,79.0,96,480,1.0,0.0
1583,59.0,120,96,3.0,0.0
1584,55.0,120,96,3.0,0.0
1585,59.0,24,96,3.0,0.0
1586,47.0,120,96,4.0,0.0
1587,55.0,24,96,3.0,0.0
1588,83.0,96,120,1.0,0.0
1589,50.0,24,96,3.0,0.0
1590,78.0,96,120,1.0,0.0
1591,55.0,24,96,3.0,0.0
1592,79.0,96,120,1.0,0.0
1593,75.0,96,120,1.0,0.0
1594,48.0,24,96,4.0,0.0
1595,57.0,24,96,3.0,0.0
1596,76.0,96,120,1.0,0.0
1597,52.0,24,96,3.0,0.0
1598,72.0,96,120,1.0,0.0
1599,69.0,96,120,1.0,0.0
1600,57.0,24,96,3.0,0.0
1601,50.0,120,96,4.0,0.0
1602,67.0,6,330,1.0,0.0
1603,59.0,114,96,3.0,0.0
1604,55.0,120,96,3.0,0.0
1605,67.0,0,96,1.0,0.0
1606,59.0,120,96,3.0,0.0
1607,66.0,14,442,2.0,0.0
1608,71.0,96,120,1.0,0.0
1609,50.0,24,96,4.0,0.0
1610,60.0,24,96,3.0,0.0
1611,69.0,96,120,1.0,0.0
1612,67.0,82,120,1.0,0.0
1613,57.0,24,96,3.0,0.0
1614,69.0,0,96,1.0,0.0
1615,60.0,504,96,3.0,0.0
1616,60.0,480,480,3.0,0.0
1617,55.0,576,960,4.0,0.0
1618,69.0,0,480,1.0,0.0
1619,66.0,0,480,2.0,0.0
1620,67.0,0,480,1.0,0.0
1621,59.0,0,480,3.0,0.0
1622,74.0,96,600,1.0,0.0
1623,62.0,120,96,4.0,0.0
1624,69.0,120,96,3.0,0.0
1625,66.0,120,96,3.0,0.0
1626,69.0,120,96,3.0,0.0
1627,62.0,24,96,4.0,0.0
1628,73.0,96,120,1.0,0.0
1629,69.0,24,96,3.0,0.0
1630,76.0,96,120,1.0,0.0
1631,66.0,24,96,3.0,0.0
1632,74.0,96,120,1.0,0.0
1633,69.0,24,96,3.0,0.0
1634,79.0,96,120,1.0,0.0
1635,62.0,24,96,4.0,0.0
1636,78.0,96,120,1.0,0.0
1637,69.0,24,96,3.0,0.0
1638,76.0,96,120,1.0,0.0
1639,66.0,24,96,3.0,0.0
1640,69.0,24,96,3.0,0.0
1641,74.0,96,120,1.0,0.0
1642,64.0,120,96,4.0,0.0
1643,73.0,96,360,1.0,0.0
1644,69.0,120,96,3.0,0.0
1645,67.0,24,96,3.0,0.0
1646,74.0,96,120,1.0,0.0
1647,69.0,24,96,3.0,0.0
1648,76.0,96,480,1.0,0.0
1649,64.0,120,96,4.0,0.0
1650,69.0,120,96,3.0,0.0
1651,67.0,120,96,3.0,0.0
1652,69.0,24,96,3.0,0.0
1653,64.0,120,96,4.0,0.0
1654,69.0,120,96,3.0,0.0
1655,67.0,120,96,3.0,0.0
1656,69.0,120,96,3.0,0.0
1657,76.0,96,600,1.0,0.0
1658,61.0,120,96,4.0,0.0
1659,69.0,120,96,3.0,0.0
1660,67.0,120,96,3.0,0.0
1661,69.0,120,96,3.0,0.0
1662,61.0,24,96,4.0,0.0
1663,75.0,96,120,1.0,0.0
1664,69.0,24,96,3.0,0.0
1665,78.0,96,120,1.0,0.0
1666,67.0,24,96,3.0,0.0
1667,76.0,96,120,1.0,0.0
1668,69.0,24,96,3.0,0.0
1669,81.0,96,120,1.0,0.0
1670,61.0,24,96,4.0,0.0
1671,69.0,24,96,3.0,0.0
1672,79.0,96,120,1.0,0.0
1673,78.0,96,120,1.0,0.0
1674,67.0,24,96,3.0,0.0
1675,69.0,24,96,3.0,0.0
1676,76.0,96,120,1.0,0.0
1677,62.0,120,96,4.0,0.0
1678,74.0,96,360,1.0,0.0
1679,69.0,120,96,3.0,0.0
1680,66.0,24,96,3.0,0.0
1681,69.0,24,96,3.0,0.0
1682,76.0,96,120,1.0,0.0
1683,78.0,96,480,1.0,0.0
1684,61.0,120,96,4.0,0.0
1685,69.0,120,96,3.0,0.0
1686,62.0,120,96,3.0,0.0
1687,69.0,24,96,3.0,0.0
1688,59.0,120,96,4.0,0.0
1689,67.0,120,96,3.0,0.0
1690,62.0,120,96,3.0,0.0
1691,67.0,120,96,3.0,0.0
1692,57.0,120,96,4.0,0.0
1693,78.0,96,600,1.0,0.0
1694,66.0,120,96,3.0,0.0
1695,62.0,120,96,3.0,0.0
1696,66.0,120,96,3.0,0.0
1697,55.0,24,96,4.0,0.0
1698,64.0,24,96,3.0,0.0
1699,76.0,96,120,1.0,0.0
1700,79.0,96,120,1.0,0.0
1701,61.0,24,96,3.0,0.0
1702,64.0,24,96,3.0,0.0
1703,78.0,96,120,1.0,0.0
1704,54.0,24,96,4.0,0.0
1705,83.0,96,120,1.0,0.0
1706,81.0,96,120,1.0,0.0
1707,62.0,24,96,3.0,0.0
1708,57.0,24,96,3.0,0.0
1709,79.0,96,120,1.0,0.0
1710,62.0,120,96,3.0,0.0
1711,78.0,0,96,1.0,0.0
1712,76.0,96,600,1.0,0.0
1713,59.0,120,96,4.0,0.0
1714,67.0,120,96,3.0,0.0
1715,64.0,120,96,3.0,0.0
1716,67.0,120,96,3.0,0.0
1717,55.0,24,96,4.0,0.0
1718,75.0,96,120,1.0,0.0
1719,64.0,24,96,3.0,0.0
1720,78.0,96,120,1.0,0.0
1721,61.0,24,96,3.0,0.0
1722,76.0,96,120,1.0,0.0
1723,64.0,24,96,3.0,0.0
1724,54.0,24,96,4.0,0.0
1725,81.0,96,120,1.0,0.0
1726,62.0,24,96,3.0,0.0
1727,79.0,96,120,1.0,0.0
1728,78.0,96,120,1.0,0.0
1729,57.0,24,96,3.0,0.0
1730,62.0,120,96,3.0,0.0
1731,76.0,0,96,1.0,0.0
1732,76.0,96,120,1.0,0.0
1733,57.0,24,96,4.0,0.0
1734,74.0,0,96,1.0,0.0
1735,66.0,120,96,3.0,0.0
1736,62.0,120,96,3.0,0.0
1737,74.0,119,337,1.0,0.0
1738,66.0,120,96,3.0,0.0
1739,57.0,1,96,4.0,0.0
1740,69.0,96,120,1.0,0.0
1741,66.0,24,96,3.0,0.0
1742,74.0,96,120,1.0,0.0
1743,62.0,24,96,3.0,0.0
1744,66.0,0,96,3.0,0.0
1745,78.0,120,96,1.0,0.0
1746,73.0,6,450,2.0,0.0
1747,78.0,96,120,1.0,0.0
1748,57.0,24,96,4.0,0.0
1749,67.0,24,96,3.0,0.0
1750,76.0,96,120,1.0,0.0
1751,64.0,24,96,3.0,0.0
1752,74.0,90,120,1.0,0.0
1753,76.0,504,96,1.0,0.0
1754,67.0,0,96,3.0,0.0
1755,62.0,0,960,4.0,0.0
1756,67.0,0,480,3.0,0.0
1757,76.0,105,480,1.0,0.0
1758,73.0,0,480,2.0,0.0
1759,66.0,0,480,3.0,0.0
1760,74.0,135,105,1.0,0.0
1761,75.0,120,120,1.0,0.0
1762,76.0,120,120,1.0,0.0
1763,75.0,120,120,1.0,0.0
1764,78.0,120,120,1.0,0.0
1765,76.0,120,120,1.0,0.0
1766,74.0,120,120,1.0,0.0
1767,72.0,96,120,1.0,0.0
1768,71.0,96,600,1.0,0.0
1769,55.0,120,96,4.0,0.0
1770,62.0,120,96,3.0,0.0
1771,59.0,120,96,3.0,0.0
1772,62.0,120,96,3.0,0.0
1773,55.0,24,96,4.0,0.0
1774,67.0,96,120,1.0,0.0
1775,62.0,24,96,3.0,0.0
1776,71.0,96,120,1.0,0.0
1777,59.0,24,96,3.0,0.0
1778,62.0,24,96,3.0,0.0
1779,74.0,96,120,1.0,0.0
1780,72.0,96,120,1.0,0.0
1781,57.0,24,96,4.0,0.0
1782,69.0,96,120,1.0,0.0
1783,62.0,24,96,3.0,0.0
1784,72.0,96,120,1.0,0.0
1785,60.0,24,96,3.0,0.0
1786,76.0,96,120,1.0,0.0
1787,62.0,24,96,3.0,0.0
1788,55.0,120,96,4.0,0.0
1789,74.0,96,360,1.0,0.0
1790,62.0,120,96,3.0,0.0
1791,59.0,24,96,3.0,0.0
1792,62.0,24,96,3.0,0.0
1793,71.0,80,120,1.0,0.0
1794,67.0,16,80,1.0,0.0
1795,55.0,104,96,4.0,0.0
1796,62.0,104,96,3.0,0.0
1797,67.0,16,80,1.0,0.0
1798,59.0,104,96,3.0,0.0
1799,69.0,16,80,1.0,0.0
1800,71.0,16,80,1.0,0.0
1801,62.0,104,96,3.0,0.0
1802,72.0,16,80,1.0,0.0
1803,55.0,104,96,4.0,0.0
1804,74.0,16,80,1.0,0.0
1805,62.0,104,96,3.0,0.0
1806,59.0,104,96,3.0,0.0
1807,76.0,16,80,1.0,0.0
1808,62.0,120,96,3.0,0.0
1809,78.0,16,80,1.0,0.0
1810,79.0,96,120,1.0,0.0
1811,55.0,24,96,4.0,0.0
1812,78.0,96,120,1.0,0.0
1813,64.0,24,96,3.0,0.0
1814,79.0,96,120,1.0,0.0
1815,60.0,24,96,3.0,0.0
1816,78.0,96,120,1.0,0.0
1817,64.0,24,96,3.0,0.0
1818,81.0,96,120,1.0,0.0
1819,55.0,24,96,4.0,0.0
1820,64.0,24,96,3.0,0.0
1821,79.0,96,120,1.0,0.0
1822,60.0,24,96,3.0,0.0
1823,78.0,96,120,1.0,0.0
1824,64.0,24,96,3.0,0.0
1825,79.0,96,120,1.0,0.0
1826,55.0,24,96,4.0,0.0
1827,78.0,96,120,1.0,0.0
1828,76.0,96,120,1.0,0.0
1829,61.0,24,96,3.0,0.0
1830,58.0,24,96,3.0,0.0
1831,74.0,96,120,1.0,0.0
1832,73.0,96,120,1.0,0.0
1833,61.0,24,96,3.0,0.0
1834,74.0,96,120,1.0,0.0
1835,55.0,24,96,4.0,0.0
1836,71.0,96,120,1.0,0.0
1837,62.0,24,96,3.0,0.0
1838,74.0,96,120,1.0,0.0
1839,59.0,24,96,3.0,0.0
1840,62.0,24,96,3.0,0.0
1841,71.0,96,120,1.0,0.0
1842,67.0,96,480,1.0,0.0
1843,55.0,120,96,4.0,0.0
1844,62.0,120,96,3.0,0.0
1845,59.0,120,96,3.0,0.0
1846,62.0,24,96,3.0,0.0
1847,55.0,120,96,4.0,0.0
1848,62.0,120,96,3.0,0.0
1849,59.0,120,96,3.0,0.0
1850,62.0,120,96,3.0,0.0
1851,57.0,24,96,4.0,0.0
1852,72.0,96,120,1.0,0.0
1853,69.0,96,120,1.0,0.0
1854,62.0,24,96,3.0,0.0
1855,72.0,96,120,1.0,0.0
1856,60.0,24,96,3.0,0.0
1857,69.0,80,120,1.0,0.0
1858,62.0,24,96,3.0,0.0
1859,57.0,120,96,4.0,0.0
1860,66.0,16,80,1.0,0.0
1861,69.0,96,120,1.0,0.0
1862,62.0,24,96,3.0,0.0
1863,60.0,24,96,3.0,0.0
1864,68.0,96,120,1.0,0.0
1865,69.0,96,120,1.0,0.0
1866,62.0,24,96,3.0,0.0
1867,57.0,24,96,4.0,0.0
1868,70.0,96,120,1.0,0.0
1869,62.0,24,96,3.0,0.0
1870,71.0,96,120,1.0,0.0
1871,72.0,96,120,1.0,0.0
1872,60.0,24,96,3.0,0.0
1873,73.0,96,120,1.0,0.0
1874,62.0,24,96,3.0,0.0
1875,55.0,24,96,4.0,0.0
1876,74.0,96,120,1.0,0.0
1877,62.0,24,96,3.0,0.0
1878,71.0,96,120,1.0,0.0
1879,74.0,96,120,1.0,0.0
1880,59.0,24,96,3.0,0.0
1881,62.0,24,96,3.0,0.0
1882,71.0,96,120,1.0,0.0
1883,79.0,96,480,1.0,0.0
1884,52.0,120,96,4.0,0.0
1885,59.0,120,96,3.0,0.0
1886,55.0,120,96,3.0,0.0
1887,59.0,24,96,3.0,0.0
1888,47.0,120,96,4.0,0.0
1889,83.0,96,120,1.0,0.0
1890,55.0,24,96,3.0,0.0
1891,78.0,96,120,1.0,0.0
1892,50.0,24,96,3.0,0.0
1893,55.0,24,96,3.0,0.0
1894,79.0,96,120,1.0,0.0
1895,75.0,96,120,1.0,0.0
1896,48.0,24,96,4.0,0.0
1897,76.0,96,120,1.0,0.0
1898,57.0,24,96,3.0,0.0
1899,52.0,24,96,3.0,0.0
1900,72.0,96,120,1.0,0.0
1901,69.0,96,120,1.0,0.0
1902,57.0,24,96,3.0,0.0
1903,50.0,120,96,4.0,0.0
1904,67.0,119,337,1.0,0.0
1905,59.0,120,96,3.0,0.0
1906,55.0,1,96,3.0,0.0
1907,67.0,0,96,1.0,0.0
1908,59.0,120,96,3.0,0.0
1909,50.0,24,96,4.0,0.0
1910,66.0,503,457,2.0,0.0
1911,71.0,96,120,1.0,0.0
1912,69.0,96,120,1.0,0.0
1913,60.0,24,96,3.0,0.0
1914,67.0,96,120,1.0,0.0
1915,57.0,24,96,3.0,0.0
1916,60.0,1,96,3.0,0.0
1917,69.0,0,96,1.0,0.0
1918,66.0,0,480,2.0,0.0
1919,55.0,576,960,4.0,0.0
1920,60.0,0,480,3.0,0.0
1921,69.0,480,480,1.0,0.0
1922,59.0,0,480,3.0,0.0
1923,67.0,0,480,1.0,0.0
1924,70.0,96,600,1.0,0.0
1925,55.0,120,96,4.0,0.0
1926,62.0,120,96,3.0,0.0
1927,58.0,120,96,3.0,0.0
1928,62.0,120,96,3.0,0.0
1929,55.0,24,96,4.0,0.0
1930,69.0,96,120,1.0,0.0
1931,62.0,24,96,3.0,0.0
1932,72.0,96,120,1.0,0.0
1933,58.0,24,96,3.0,0.0
1934,62.0,24,96,3.0,0.0
1935,70.0,96,120,1.0,0.0
1936,57.0,24,96,4.0,0.0
1937,70.0,96,120,1.0,0.0
1938,62.0,24,96,3.0,0.0
1939,69.0,96,120,1.0,0.0
1940,67.0,96,120,1.0,0.0
1941,60.0,24,96,3.0,0.0
1942,62.0,24,96,3.0,0.0
1943,66.0,96,120,1.0,0.0
1944,55.0,120,96,4.0,0.0
1945,67.0,96,360,1.0,0.0
1946,62.0,120,96,3.0,0.0
1947,58.0,24,96,3.0,0.0
1948,70.0,96,120,1.0,0.0
1949,62.0,24,96,3.0,0.0
1950,74.0,96,480,1.0,0.0
1951,55.0,120,96,4.0,0.0
1952,62.0,120,96,3.0,0.0
1953,58.0,120,96,3.0,0.0
1954,62.0,24,96,3.0,0.0
1955,55.0,120,96,4.0,0.0
1956,62.0,120,96,3.0,0.0
1957,58.0,120,96,3.0,0.0
1958,62.0,120,96,3.0,0.0
1959,54.0,120,96,4.0,0.0
1960,74.0,96,600,1.0,0.0
1961,62.0,120,96,3.0,0.0
1962,57.0,120,96,3.0,0.0
1963,62.0,120,96,3.0,0.0
1964,54.0,24,96,4.0,0.0
1965,73.0,96,120,1.0,0.0
1966,62.0,24,96,3.0,0.0
1967,75.0,96,120,1.0,0.0
1968,57.0,24,96,3.0,0.0
1969,62.0,24,96,3.0,0.0
1970,74.0,96,0,1.0,0.0
1971,50.0,24,96,4.0,0.0
1972,72.0,96,120,1.0,0.0
1973,62.0,24,96,3.0,0.0
1974,54.0,24,96,3.0,0.0
1975,70.0,96,120,1.0,0.0
1976,62.0,24,96,3.0,0.0
1977,69.0,96,120,1.0,0.0
1978,55.0,120,96,4.0,0.0
1979,70.0,96,360,1.0,0.0
1980,62.0,120,96,3.0,0.0
1981,58.0,24,96,3.0,0.0
1982,74.0,96,120,1.0,0.0
1983,62.0,24,96,3.0,0.0
1984,55.0,120,96,4.0,0.0
1985,79.0,96,480,1.0,0.0
1986,62.0,120,96,3.0,0.0
1987,58.0,120,96,3.0,0.0
1988,62.0,24,96,3.0,0.0
1989,55.0,120,96,4.0,0.0
1990,63.0,120,96,3.0,0.0
1991,58.0,120,96,3.0,0.0
1992,63.0,120,96,3.0,0.0
1993,57.0,120,96,4.0,0.0
1994,77.0,96,600,1.0,0.0
1995,65.0,120,96,3.0,0.0
1996,60.0,120,96,3.0,0.0
1997,65.0,120,96,3.0,0.0
1998,57.0,24,96,4.0,0.0
1999,81.0,96,120,1.0,0.0
2000,65.0,24,96,3.0,0.0
2001,60.0,24,96,3.0,0.0
2002,84.0,96,120,1.0,0.0
2003,65.0,24,96,3.0,0.0
2004,82.0,96,120,1.0,0.0
2005,57.0,24,96,4.0,0.0
2006,81.0,96,120,1.0,0.0
2007,79.0,96,120,1.0,0.0
2008,65.0,24,96,3.0,0.0
2009,60.0,24,96,3.0,0.0
2010,77.0,96,120,1.0,0.0
2011,75.0,0,96,1.0,0.0
2012,65.0,120,96,3.0,0.0
2013,58.0,120,96,4.0,0.0
2014,74.0,96,600,1.0,0.0
2015,65.0,120,96,3.0,0.0
2016,62.0,120,96,3.0,0.0
2017,65.0,120,96,3.0,0.0
2018,55.0,24,96,4.0,0.0
2019,79.0,96,120,1.0,0.0
2020,62.0,24,96,3.0,0.0
2021,82.0,96,120,1.0,0.0
2022,58.0,24,96,3.0,0.0
2023,81.0,96,120,1.0,0.0
2024,62.0,24,96,3.0,0.0
2025,79.0,96,120,1.0,0.0
2026,50.0,24,96,4.0,0.0
2027,77.0,96,120,1.0,0.0
2028,58.0,24,96,3.0,0.0
2029,53.0,24,96,3.0,0.0
2030,75.0,96,120,1.0,0.0
2031,58.0,120,96,3.0,0.0
2032,74.0,0,96,1.0,0.0
2033,71.0,96,120,1.0,0.0
2034,51.0,24,96,4.0,0.0
2035,60.0,24,96,3.0,0.0
2036,72.0,96,120,1.0,0.0
2037,55.0,24,96,3.0,0.0
2038,75.0,96,120,1.0,0.0
2039,79.0,96,120,1.0,0.0
2040,60.0,24,96,3.0,0.0
2041,53.0,120,96,4.0,0.0
2042,70.0,14,322,1.0,0.0
2043,62.0,106,96,3.0,0.0
2044,58.0,120,96,3.0,0.0
2045,62.0,24,96,3.0,0.0
2046,70.0,96,120,1.0,0.0
2047,53.0,24,96,4.0,0.0
2048,74.0,96,120,1.0,0.0
2049,63.0,24,96,3.0,0.0
2050,72.0,96,120,1.0,0.0
2051,60.0,24,96,3.0,0.0
2052,70.0,96,120,1.0,0.0
2053,63.0,0,96,3.0,0.0
2054,72.0,504,96,1.0,0.0
2055,72.0,0,480,1.0,0.0
2056,69.0,120,480,2.0,0.0
2057,58.0,0,960,4.0,0.0
2058,63.0,0,480,3.0,0.0
2059,70.0,120,120,1.0,0.0
2060,62.0,0,480,3.0,0.0
2061,69.0,120,120,1.0,0.0
2062,72.0,120,120,1.0,0.0
2063,70.0,120,120,1.0,0.0
2064,74.0,120,120,1.0,0.0
2065,72.0,120,120,1.0,0.0
2066,75.0,96,120,1.0,0.0
2067,74.0,120,96,1.0,0.0
2068,56.0,120,96,4.0,0.0
2069,77.0,96,600,1.0,0.0
2070,65.0,120,96,3.0,0.0
2071,60.0,120,96,3.0,0.0
2072,65.0,120,96,3.0,0.0
2073,55.0,24,96,4.0,0.0
2074,80.0,96,120,1.0,0.0
2075,62.0,24,96,3.0,0.0
2076,79.0,96,120,1.0,0.0
2077,59.0,24,96,3.0,0.0
2078,62.0,24,96,3.0,0.0
2079,77.0,96,120,1.0,0.0
2080,53.0,24,96,4.0,0.0
2081,75.0,96,120,1.0,0.0
2082,62.0,24,96,3.0,0.0
2083,74.0,96,120,1.0,0.0
2084,55.0,24,96,3.0,0.0
2085,72.0,96,120,1.0,0.0
2086,71.0,96,120,1.0,0.0
2087,62.0,24,96,3.0,0.0
2088,51.0,120,96,4.0,0.0
2089,72.0,96,360,1.0,0.0
2090,60.0,120,96,3.0,0.0
2091,55.0,24,96,3.0,0.0
2092,60.0,24,96,3.0,0.0
2093,75.0,96,120,1.0,0.0
2094,79.0,96,480,1.0,0.0
2095,50.0,120,96,4.0,0.0
2096,59.0,120,96,3.0,0.0
2097,53.0,120,96,3.0,0.0
2098,59.0,24,96,3.0,0.0
2099,48.0,120,96,4.0,0.0
2100,60.0,120,96,3.0,0.0
2101,51.0,120,96,3.0,0.0
2102,60.0,120,96,3.0,0.0
2103,79.0,96,600,1.0,0.0
2104,49.0,120,96,4.0,0.0
2105,58.0,120,96,3.0,0.0
2106,52.0,120,96,3.0,0.0
2107,58.0,120,96,3.0,0.0
2108,50.0,24,96,4.0,0.0
2109,78.0,96,120,1.0,0.0
2110,58.0,24,96,3.0,0.0
2111,81.0,96,120,1.0,0.0
2112,55.0,24,96,3.0,0.0
2113,79.0,96,120,1.0,0.0
2114,58.0,24,96,3.0,0.0
2115,82.0,96,120,1.0,0.0
2116,51.0,24,96,4.0,0.0
2117,58.0,24,96,3.0,0.0
2118,73.0,96,120,1.0,0.0
2119,55.0,24,96,3.0,0.0
2120,82.0,96,120,1.0,0.0
2121,58.0,120,96,3.0,0.0
2122,73.0,0,96,1.0,0.0
2123,50.0,120,96,4.0,0.0
2124,73.0,96,480,1.0,0.0
2125,58.0,120,96,3.0,0.0
2126,55.0,120,96,3.0,0.0
2127,58.0,24,96,3.0,0.0
2128,50.0,120,96,4.0,0.0
2129,74.0,96,480,1.0,0.0
2130,57.0,120,96,3.0,0.0
2131,54.0,120,96,3.0,0.0
2132,57.0,24,96,3.0,0.0
2133,50.0,120,96,4.0,0.0
2134,57.0,120,96,3.0,0.0
2135,54.0,120,96,3.0,0.0
2136,57.0,120,96,3.0,0.0
2137,75.0,96,600,1.0,0.0
2138,48.0,120,96,4.0,0.0
2139,57.0,120,96,3.0,0.0
2140,54.0,120,96,3.0,0.0
2141,57.0,120,96,3.0,0.0
2142,48.0,24,96,4.0,0.0
2143,57.0,24,96,3.0,0.0
2144,72.0,96,120,1.0,0.0
2145,54.0,24,96,3.0,0.0
2146,81.0,96,120,1.0,0.0
2147,78.0,96,120,1.0,0.0
2148,57.0,24,96,3.0,0.0
2149,48.0,24,96,4.0,0.0
2150,84.0,96,120,1.0,0.0
2151,81.0,96,120,1.0,0.0
2152,57.0,24,96,3.0,0.0
2153,54.0,24,96,3.0,0.0
2154,87.0,96,120,1.0,0.0
2155,78.0,120,96,1.0,0.0
2156,57.0,0,96,3.0,0.0
2157,46.0,120,96,4.0,0.0
2158,86.0,96,600,1.0,0.0
2159,55.0,120,96,3.0,0.0
2160,50.0,120,96,3.0,0.0
2161,55.0,120,96,3.0,0.0
2162,46.0,24,96,4.0,0.0
2163,55.0,24,96,3.0,0.0
2164,81.0,96,120,1.0,0.0
2165,82.0,96,120,1.0,0.0
2166,50.0,24,96,3.0,0.0
2167,78.0,96,120,1.0,0.0
2168,55.0,24,96,3.0,0.0
2169,79.0,96,120,1.0,0.0
2170,46.0,24,96,4.0,0.0
2171,55.0,24,96,3.0,0.0
2172,73.0,96,120,1.0,0.0
2173,74.0,96,120,1.0,0.0
2174,50.0,24,96,3.0,0.0
2175,55.0,0,96,3.0,0.0
2176,70.0,120,96,1.0,0.0
2177,70.0,96,120,1.0,0.0
2178,48.0,24,96,4.0,0.0
2179,69.0,96,120,1.0,0.0
2180,57.0,24,96,3.0,0.0
2181,51.0,24,96,3.0,0.0
2182,72.0,96,120,1.0,0.0
2183,75.0,96,120,1.0,0.0
2184,57.0,24,96,3.0,0.0
2185,67.0,6,330,1.0,0.0
2186,50.0,120,96,4.0,0.0
2187,58.0,114,96,3.0,0.0
2188,55.0,120,96,3.0,0.0
2189,67.0,96,120,1.0,0.0
2190,58.0,24,96,3.0,0.0
2191,50.0,24,96,4.0,0.0
2192,70.0,96,120,1.0,0.0
2193,60.0,24,96,3.0,0.0
2194,69.0,96,120,1.0,0.0
2195,67.0,96,120,1.0,0.0
2196,57.0,24,96,3.0,0.0
2197,69.0,0,96,1.0,0.0
2198,60.0,504,96,3.0,0.0
2199,66.0,0,480,2.0,0.0
2200,60.0,120,480,3.0,0.0
2201,69.0,0,480,1.0,0.0
2202,55.0,0,960,4.0,0.0
2203,67.0,120,120,1.0,0.0
2204,58.0,0,480,3.0,0.0
2205,66.0,120,120,1.0,0.0
2206,67.0,120,120,1.0,0.0
2207,68.0,120,120,1.0,0.0
2208,69.0,120,120,1.0,0.0
2209,68.0,120,120,1.0,0.0
2210,69.0,120,120,1.0,0.0
2211,70.0,96,120,1.0,0.0
2212,71.0,96,960,1.0,0.0
2213,55.0,120,96,4.0,0.0
2214,62.0,120,96,3.0,0.0
2215,59.0,120,96,3.0,0.0
2216,62.0,120,96,3.0,0.0
2217,55.0,120,96,4.0,0.0
2218,62.0,120,96,3.0,0.0
2219,59.0,120,96,3.0,0.0
2220,62.0,24,96,3.0,0.0
2221,74.0,96,120,1.0,0.0
2222,57.0,24,96,4.0,0.0
2223,72.0,96,120,1.0,0.0
2224,62.0,24,96,3.0,0.0
2225,60.0,24,96,3.0,0.0
2226,71.0,96,120,1.0,0.0
2227,62.0,24,96,3.0,0.0
2228,72.0,96,120,1.0,0.0
2229,74.0,96,360,1.0,0.0
2230,55.0,120,96,4.0,0.0
2231,62.0,120,96,3.0,0.0
2232,59.0,24,96,3.0,0.0
2233,62.0,24,96,3.0,0.0
2234,71.0,96,120,1.0,0.0
2235,55.0,120,96,4.0,0.0
2236,67.0,96,480,1.0,0.0
2237,62.0,120,96,3.0,0.0
2238,59.0,120,96,3.0,0.0
2239,62.0,24,96,3.0,0.0
2240,55.0,120,96,4.0,0.0
2241,62.0,120,96,3.0,0.0
2242,59.0,120,96,3.0,0.0
2243,62.0,120,96,3.0,0.0
2244,79.0,96,720,1.0,0.0
2245,55.0,120,96,4.0,0.0
2246,64.0,120,96,3.0,0.0
2247,60.0,120,96,3.0,0.0
2248,64.0,120,96,3.0,0.0
2249,55.0,120,96,4.0,0.0
2250,64.0,24,96,3.0,0.0
2251,81.0,96,120,1.0,0.0
2252,60.0,24,96,3.0,0.0
2253,64.0,24,96,3.0,0.0
2254,79.0,96,120,1.0,0.0
2255,78.0,96,120,1.0,0.0
2256,55.0,24,96,4.0,0.0
2257,76.0,96,120,1.0,0.0
2258,61.0,24,96,3.0,0.0
2259,74.0,96,120,1.0,0.0
2260,58.0,24,96,3.0,0.0
2261,73.0,96,120,1.0,0.0
2262,61.0,24,96,3.0,0.0
2263,55.0,120,96,4.0,0.0
2264,74.0,96,360,1.0,0.0
2265,62.0,120,96,3.0,0.0
2266,59.0,24,96,3.0,0.0
2267,62.0,24,96,3.0,0.0
2268,71.0,96,120,1.0,0.0
2269,55.0,120,96,4.0,0.0
2270,67.0,96,480,1.0,0.0
2271,62.0,120,96,3.0,0.0
2272,59.0,120,96,3.0,0.0
2273,62.0,24,96,3.0,0.0
2274,55.0,120,96,4.0,0.0
2275,62.0,120,96,3.0,0.0
2276,59.0,120,96,3.0,0.0
2277,62.0,120,96,3.0,0.0
2278,57.0,120,96,4.0,0.0
2279,72.0,96,360,1.0,0.0
2280,62.0,120,96,3.0,0.0
2281,60.0,24,96,3.0,0.0
2282,69.0,96,120,1.0,0.0
2283,62.0,24,96,3.0,0.0
2284,66.0,61,155,1.0,0.0
2285,57.0,59,96,4.0,0.0
2286,62.0,120,96,3.0,0.0
2287,69.0,61,155,1.0,0.0
2288,60.0,59,96,3.0,0.0
2289,62.0,120,96,3.0,0.0
2290,71.0,61,155,1.0,0.0
2291,57.0,59,96,4.0,0.0
2292,62.0,120,96,3.0,0.0
2293,60.0,59,96,3.0,0.0
2294,72.0,61,155,1.0,0.0
2295,62.0,120,96,3.0,0.0
2296,55.0,120,96,4.0,0.0
2297,74.0,96,360,1.0,0.0
2298,62.0,120,96,3.0,0.0
2299,59.0,24,96,3.0,0.0
2300,71.0,96,120,1.0,0.0
2301,62.0,24,96,3.0,0.0
2302,79.0,96,480,1.0,0.0
2303,52.0,120,96,4.0,0.0
2304,59.0,120,96,3.0,0.0
2305,55.0,120,96,3.0,0.0
2306,59.0,24,96,3.0,0.0
2307,47.0,120,96,4.0,0.0
2308,55.0,120,96,3.0,0.0
2309,50.0,120,96,3.0,0.0
2310,55.0,144,96,3.0,0.0
2311,48.0,0,960,4.0,0.0
2312,52.0,120,480,3.0,0.0
2313,81.0,120,120,1.0,0.0
2314,79.0,120,120,1.0,0.0
2315,78.0,120,120,1.0,0.0
2316,79.0,0,120,1.0,0.0
2317,78.0,120,120,1.0,0.0
2318,76.0,120,120,1.0,0.0
2319,75.0,120,120,1.0,0.0
2320,76.0,120,120,1.0,0.0
2321,74.0,120,120,1.0,0.0
2322,52.0,360,480,4.0,0.0
2323,72.0,120,120,1.0,0.0
2324,71.0,120,120,1.0,0.0
2325,72.0,0,120,1.0,0.0
2326,55.0,0,0,3.0,0.0
2327,50.0,240,960,4.0,0.0
2328,71.0,60,360,1.0,0.0
2329,72.0,60,60,1.0,0.0
2330,71.0,190,60,1.0,0.0
2331,69.0,290,190,1.0,0.0
2332,54.0,0,480,3.0,0.0
2333,74.0,0,240,1.0,0.0
2334,73.0,240,240,1.0,0.0
2335,72.0,96,240,1.0,0.0
2336,55.0,120,96,4.0,0.0
2337,71.0,96,600,1.0,0.0
2338,62.0,120,96,3.0,0.0
2339,59.0,120,96,3.0,0.0
2340,62.0,120,96,3.0,0.0
2341,55.0,24,96,4.0,0.0
2342,67.0,96,120,1.0,0.0
2343,62.0,24,96,3.0,0.0
2344,59.0,24,96,3.0,0.0
2345,71.0,96,120,1.0,0.0
2346,62.0,24,96,3.0,0.0
2347,74.0,96,120,1.0,0.0
2348,57.0,24,96,4.0,0.0
2349,72.0,96,120,1.0,0.0
2350,62.0,24,96,3.0,0.0
2351,69.0,96,120,1.0,0.0
2352,60.0,24,96,3.0,0.0
2353,72.0,96,120,1.0,0.0
2354,76.0,96,120,1.0,0.0
2355,62.0,24,96,3.0,0.0
2356,74.0,96,360,1.0,0.0
2357,55.0,120,96,4.0,0.0
2358,62.0,120,96,3.0,0.0
2359,59.0,24,96,3.0,0.0
2360,62.0,24,96,3.0,0.0
2361,71.0,80,120,1.0,0.0
2362,67.0,16,80,1.0,0.0
2363,55.0,104,96,4.0,0.0
2364,67.0,16,80,1.0,0.0
2365,62.0,104,96,3.0,0.0
2366,59.0,104,96,3.0,0.0
2367,69.0,16,80,1.0,0.0
2368,62.0,104,96,3.0,0.0
2369,71.0,16,80,1.0,0.0
2370,55.0,104,96,4.0,0.0
2371,72.0,16,80,1.0,0.0
2372,74.0,16,80,1.0,0.0
2373,62.0,104,96,3.0,0.0
2374,59.0,104,96,3.0,0.0
2375,76.0,16,80,1.0,0.0
2376,62.0,120,96,3.0,0.0
2377,78.0,16,80,1.0,0.0
2378,55.0,24,96,4.0,0.0
2379,79.0,96,120,1.0,0.0
2380,78.0,96,120,1.0,0.0
2381,64.0,24,96,3.0,0.0
2382,60.0,24,96,3.0,0.0
2383,79.0,96,120,1.0,0.0
2384,78.0,96,120,1.0,0.0
2385,64.0,24,96,3.0,0.0
2386,55.0,24,96,4.0,0.0
2387,81.0,96,120,1.0,0.0
2388,79.0,96,120,1.0,0.0
2389,64.0,24,96,3.0,0.0
2390,60.0,24,96,3.0,0.0
2391,78.0,96,120,1.0,0.0
2392,79.0,96,120,1.0,0.0
2393,64.0,24,96,3.0,0.0
2394,78.0,96,120,1.0,0.0
2395,55.0,24,96,4.0,0.0
2396,61.0,24,96,3.0,0.0
2397,76.0,96,120,1.0,0.0
2398,74.0,96,120,1.0,0.0
2399,58.0,24,96,3.0,0.0
2400,61.0,24,96,3.0,0.0
2401,73.0,96,120,1.0,0.0
2402,74.0,96,120,1.0,0.0
2403,55.0,24,96,4.0,0.0
2404,62.0,24,96,3.0,0.0
2405,71.0,96,120,1.0,0.0
2406,74.0,96,120,1.0,0.0
2407,59.0,24,96,3.0,0.0
2408,62.0,24,96,3.0,0.0
2409,71.0,96,120,1.0,0.0
2410,67.0,96,480,1.0,0.0
2411,55.0,120,96,4.0,0.0
2412,62.0,120,96,3.0,0.0
2413,59.0,120,96,3.0,0.0
2414,62.0,24,96,3.0,0.0
2415,55.0,120,96,4.0,0.0
2416,62.0,120,96,3.0,0.0
2417,59.0,120,96,3.0,0.0
2418,62.0,120,96,3.0,0.0
2419,57.0,24,96,4.0,0.0
2420,72.0,96,120,1.0,0.0
2421,69.0,96,120,1.0,0.0
2422,62.0,24,96,3.0,0.0
2423,72.0,96,120,1.0,0.0
2424,60.0,24,96,3.0,0.0
2425,62.0,24,96,3.0,0.0
2426,69.0,80,120,1.0,0.0
2427,66.0,16,80,1.0,0.0
2428,57.0,120,96,4.0,0.0
2429,69.0,96,120,1.0,0.0
2430,62.0,24,96,3.0,0.0
2431,68.0,96,120,1.0,0.0
2432,60.0,24,96,3.0,0.0
2433,62.0,24,96,3.0,0.0
2434,69.0,96,120,1.0,0.0
2435,70.0,96,120,1.0,0.0
2436,57.0,24,96,4.0,0.0
2437,62.0,24,96,3.0,0.0
2438,71.0,96,120,1.0,0.0
2439,72.0,96,120,1.0,0.0
2440,60.0,24,96,3.0,0.0
2441,73.0,96,120,1.0,0.0
2442,62.0,24,96,3.0,0.0
2443,74.0,96,120,1.0,0.0
2444,55.0,24,96,4.0,0.0
2445,71.0,96,120,1.0,0.0
2446,62.0,24,96,3.0,0.0
2447,74.0,96,120,1.0,0.0
2448,59.0,24,96,3.0,0.0
2449,71.0,96,120,1.0,0.0
2450,62.0,24,96,3.0,0.0
2451,52.0,120,96,4.0,0.0
2452,79.0,96,480,1.0,0.0
2453,59.0,120,96,3.0,0.0
2454,55.0,120,96,3.0,0.0
2455,59.0,24,96,3.0,0.0
2456,47.0,120,96,4.0,0.0
2457,55.0,24,96,3.0,0.0
2458,83.0,96,120,1.0,0.0
2459,50.0,24,96,3.0,0.0
2460,78.0,96,120,1.0,0.0
2461,55.0,24,96,3.0,0.0
2462,79.0,96,120,1.0,0.0
2463,48.0,24,96,4.0,0.0
2464,75.0,96,120,1.0,0.0
2465,57.0,24,96,3.0,0.0
2466,76.0,96,120,1.0,0.0
2467,52.0,24,96,3.0,0.0
2468,72.0,96,120,1.0,0.0
2469,57.0,24,96,3.0,0.0
2470,69.0,96,120,1.0,0.0
2471,67.0,21,315,1.0,0.0
2472,50.0,120,96,4.0,0.0
2473,59.0,99,96,3.0,0.0
2474,55.0,120,96,3.0,0.0
2475,67.0,0,96,1.0,0.0
2476,59.0,120,96,3.0,0.0
2477,71.0,96,120,1.0,0.0
2478,66.0,6,450,2.0,0.0
2479,50.0,24,96,4.0,0.0
2480,60.0,24,96,3.0,0.0
2481,69.0,96,120,1.0,0.0
2482,57.0,24,96,3.0,0.0
2483,67.0,90,120,1.0,0.0
2484,60.0,0,96,3.0,0.0
2485,69.0,144,96,1.0,0.0
2486,55.0,0,480,4.0,0.0
2487,59.0,120,480,3.0,0.0
2488,67.0,120,120,1.0,0.0
2489,66.0,120,120,1.0,0.0
2490,69.0,120,120,1.0,0.0
2491,67.0,0,120,1.0,0.0
2492,71.0,120,120,1.0,0.0
2493,69.0,120,120,1.0,0.0
2494,72.0,120,120,1.0,0.0
2495,71.0,120,120,1.0,0.0
2496,74.0,120,120,1.0,0.0
2497,72.0,120,120,1.0,0.0
2498,76.0,120,120,1.0,0.0
2499,74.0,96,120,1.0,0.0
2500,57.0,120,96,4.0,0.0
2501,77.0,96,720,1.0,0.0
2502,65.0,120,96,3.0,0.0
2503,60.0,120,96,3.0,0.0
2504,65.0,120,96,3.0,0.0
2505,57.0,120,96,4.0,0.0
2506,65.0,24,96,3.0,0.0
2507,60.0,24,96,3.0,0.0
2508,79.0,96,120,1.0,0.0
2509,81.0,96,120,1.0,0.0
2510,65.0,24,96,3.0,0.0
2511,59.0,24,96,4.0,0.0
2512,79.0,96,120,1.0,0.0
2513,67.0,24,96,3.0,0.0
2514,77.0,96,120,1.0,0.0
2515,62.0,24,96,3.0,0.0
2516,76.0,96,120,1.0,0.0
2517,67.0,0,96,3.0,0.0
2518,74.0,120,96,1.0,0.0
2519,60.0,120,96,4.0,0.0
2520,75.0,96,480,1.0,0.0
2521,67.0,120,96,3.0,0.0
2522,64.0,120,96,3.0,0.0
2523,67.0,24,96,3.0,0.0
2524,60.0,120,96,4.0,0.0
2525,76.0,96,480,1.0,0.0
2526,67.0,120,96,3.0,0.0
2527,64.0,120,96,3.0,0.0
2528,67.0,24,96,3.0,0.0
2529,60.0,120,96,4.0,0.0
2530,67.0,24,96,3.0,0.0
2531,79.0,96,120,1.0,0.0
2532,64.0,24,96,3.0,0.0
2533,78.0,96,120,1.0,0.0
2534,76.0,96,120,1.0,0.0
2535,67.0,24,96,3.0,0.0
2536,74.0,96,120,1.0,0.0
2537,59.0,24,96,4.0,0.0
2538,62.0,24,96,3.0,0.0
2539,71.0,96,120,1.0,0.0
2540,69.0,96,120,1.0,0.0
2541,60.0,24,96,3.0,0.0
2542,76.0,96,120,1.0,0.0
2543,64.0,24,96,3.0,0.0
2544,50.0,120,96,4.0,0.0
2545,67.0,14,322,1.0,0.0
2546,59.0,106,96,3.0,0.0
2547,55.0,120,96,3.0,0.0
2548,59.0,120,96,3.0,0.0
2549,67.0,0,96,1.0,0.0
2550,71.0,96,120,1.0,0.0
2551,50.0,24,96,4.0,0.0
2552,66.0,14,442,2.0,0.0
2553,69.0,96,120,1.0,0.0
2554,60.0,24,96,3.0,0.0
2555,57.0,24,96,3.0,0.0
2556,67.0,82,120,1.0,0.0
2557,69.0,144,96,1.0,0.0
2558,60.0,0,96,3.0,0.0
2559,55.0,120,480,4.0,0.0
2560,67.0,120,120,1.0,0.0
2561,59.0,0,480,3.0,0.0
2562,66.0,120,120,1.0,0.0
2563,69.0,120,120,1.0,0.0
2564,67.0,0,120,1.0,0.0
2565,71.0,120,120,1.0,0.0
2566,69.0,120,120,1.0,0.0
2567,72.0,120,120,1.0,0.0
2568,71.0,120,120,1.0,0.0
2569,74.0,120,120,1.0,0.0
2570,72.0,120,120,1.0,0.0
2571,76.0,120,120,1.0,0.0
2572,74.0,96,120,1.0,0.0
2573,45.0,120,96,4.0,0.0
2574,77.0,96,720,1.0,0.0
2575,53.0,120,96,3.0,0.0
2576,48.0,120,96,3.0,0.0
2577,53.0,120,96,3.0,0.0
2578,47.0,120,96,4.0,0.0
2579,55.0,24,96,3.0,0.0
2580,79.0,96,120,1.0,0.0
2581,50.0,24,96,3.0,0.0
2582,55.0,24,96,3.0,0.0
2583,81.0,96,120,1.0,0.0
2584,79.0,96,120,1.0,0.0
2585,43.0,24,96,4.0,0.0
2586,77.0,96,120,1.0,0.0
2587,55.0,24,96,3.0,0.0
2588,47.0,24,96,3.0,0.0
2589,76.0,96,120,1.0,0.0
2590,74.0,0,96,1.0,0.0
2591,55.0,120,96,3.0,0.0
2592,76.0,119,457,1.0,0.0
2593,48.0,120,96,4.0,0.0
2594,55.0,120,96,3.0,0.0
2595,52.0,120,96,3.0,0.0
2596,55.0,1,96,3.0,0.0
2597,48.0,120,96,4.0,0.0
2598,78.0,6,450,1.0,0.0
2599,57.0,120,96,3.0,0.0
2600,51.0,114,96,3.0,0.0
2601,57.0,120,96,3.0,0.0
2602,49.0,120,96,4.0,0.0
2603,79.0,6,450,1.0,0.0
2604,58.0,120,96,3.0,0.0
2605,52.0,114,96,3.0,0.0
2606,58.0,120,96,3.0,0.0
2607,50.0,120,96,4.0,0.0
2608,67.0,60,720,1.0,0.0
2609,59.0,120,96,3.0,0.0
2610,55.0,120,96,3.0,0.0
2611,59.0,120,96,3.0,0.0
2612,50.0,120,96,4.0,0.0
2613,59.0,24,96,3.0,0.0
2614,55.0,24,96,3.0,0.0
2615,69.0,36,60,2.0,0.0
2616,67.0,60,60,2.0,0.0
2617,59.0,24,96,3.0,0.0
2618,66.0,36,60,2.0,0.0
2619,67.0,96,60,2.0,0.0
2620,66.0,143,457,2.0,0.0
2621,71.0,96,240,1.0,0.0
2622,50.0,120,96,4.0,0.0
2623,60.0,24,96,3.0,0.0
2624,69.0,0,217,1.0,0.0
2625,57.0,120,96,3.0,0.0
2626,60.0,1,96,3.0,0.0
2627,55.0,13,427,4.0,0.0
2628,67.0,120,120,1.0,0.0
2629,59.0,7,420,3.0,0.0
2630,62.0,80,120,1.0,0.0
2631,71.0,100,80,1.0,0.0
2632,71.0,160,80,1.0,0.0
2633,71.0,120,120,1.0,0.0
2634,67.0,80,120,1.0,0.0
2635,74.0,120,80,1.0,0.0
2636,74.0,160,80,1.0,0.0
2637,74.0,120,120,1.0,0.0
2638,71.0,120,120,1.0,0.0
2639,60.0,120,240,3.0,0.0
2640,50.0,0,240,4.0,0.0
2641,69.0,96,120,1.0,0.0
2642,71.0,24,96,1.0,0.0
2643,67.0,120,120,1.0,0.0
2644,55.0,7,420,4.0,0.0
2645,59.0,13,427,3.0,0.0
2646,62.0,80,120,1.0,0.0
2647,71.0,100,80,1.0,0.0
2648,71.0,160,80,1.0,0.0
2649,71.0,120,120,1.0,0.0
2650,67.0,80,120,1.0,0.0
2651,74.0,120,80,1.0,0.0
2652,74.0,160,80,1.0,0.0
2653,74.0,120,120,1.0,0.0
2654,71.0,120,120,1.0,0.0
2655,60.0,240,240,3.0,0.0
2656,50.0,0,240,4.0,0.0
2657,69.0,96,120,1.0,0.0
2658,71.0,24,96,1.0,0.0
2659,67.0,0,240,1.0,0.0
2660,55.0,480,240,4.0,0.0
2661,59.0,0,240,3.0,0.0
2662,67.0,2795,240,1.0,0.0
2663,43.0,0,240,4.0,0.0
2664,59.0,0,240,3.0,0.0
2665,79.0,0,155,1.0,0.0
2666,76.0,240,155,2.0,0.0
2667,76.0,229,155,2.0,0.0
2668,79.0,0,155,1.0,0.0
2669,57.0,11,144,5.0,0.0
2670,76.0,0,155,1.0,0.0
2671,72.0,229,155,2.0,0.0
2672,60.0,0,144,4.0,0.0
2673,60.0,240,144,4.0,0.0
2674,57.0,0,144,5.0,0.0
2675,77.0,0,155,1.0,0.0
2676,57.0,0,144,4.0,0.0
2677,53.0,11,144,5.0,0.0
2678,74.0,240,155,2.0,0.0
2679,77.0,0,155,1.0,0.0
2680,74.0,229,155,2.0,0.0
2681,74.0,229,155,1.0,0.0
2682,59.0,11,144,4.0,0.0
2683,71.0,0,155,2.0,0.0
2684,55.0,0,144,5.0,0.0
2685,55.0,0,144,5.0,0.0
2686,59.0,216,144,4.0,0.0
2687,72.0,24,120,1.0,0.0
2688,55.0,0,144,4.0,0.0
2689,52.0,96,144,5.0,0.0
2690,74.0,120,120,1.0,0.0
2691,76.0,120,120,1.0,0.0
2692,72.0,120,120,1.0,0.0
2693,69.0,120,120,1.0,0.0
2694,53.0,0,720,5.0,0.0
2695,71.0,120,120,1.0,0.0
2696,72.0,120,120,1.0,0.0
2697,73.0,120,120,1.0,0.0
2698,74.0,120,120,1.0,0.0
2699,76.0,120,120,1.0,0.0
2700,77.0,120,120,1.0,0.0
2701,50.0,120,240,5.0,0.0
2702,74.0,0,120,1.0,0.0
2703,72.0,120,120,1.0,0.0
2704,55.0,120,240,5.0,0.0
2705,71.0,0,120,1.0,0.0
2706,69.0,120,120,1.0,0.0
2707,67.0,155,120,1.0,0.0
2708,76.0,0,155,2.0,0.0
2709,79.0,240,155,1.0,0.0
2710,79.0,229,155,1.0,0.0
2711,76.0,0,155,2.0,0.0
2712,76.0,0,155,1.0,0.0
2713,72.0,229,155,2.0,0.0
2714,60.0,11,144,4.0,0.0
2715,57.0,0,144,5.0,0.0
2716,60.0,240,144,4.0,0.0
2717,57.0,0,144,5.0,0.0
2718,81.0,240,155,1.0,0.0
2719,50.0,11,144,5.0,0.0
2720,53.0,0,144,4.0,0.0
2721,77.0,0,155,2.0,0.0
2722,81.0,0,155,1.0,0.0
2723,77.0,229,155,2.0,0.0
2724,59.0,11,144,4.0,0.0
2725,71.0,0,155,2.0,0.0
2726,55.0,0,144,5.0,0.0
2727,74.0,229,155,1.0,0.0
2728,59.0,0,144,4.0,0.0
2729,55.0,216,144,5.0,0.0
2730,52.0,0,144,4.0,0.0
2731,48.0,96,144,5.0,0.0
2732,81.0,24,120,1.0,0.0
2733,79.0,120,120,1.0,0.0
2734,77.0,120,120,1.0,0.0
2735,76.0,120,120,1.0,0.0
2736,57.0,0,720,4.0,0.0
2737,53.0,0,720,5.0,0.0
2738,73.0,120,120,1.0,0.0
2739,74.0,120,120,1.0,0.0
2740,76.0,120,120,1.0,0.0
2741,77.0,120,120,1.0,0.0
2742,69.0,120,120,1.0,0.0
2743,72.0,120,120,1.0,0.0
2744,55.0,155,240,5.0,0.0
2745,65.0,0,240,4.0,0.0
2746,71.0,120,120,1.0,0.0
2747,74.0,0,120,1.0,0.0
2748,64.0,0,156,4.0,0.0
2749,60.0,240,156,5.0,0.0
2750,72.0,1,155,1.0,0.0
2751,48.0,239,156,5.0,0.0
2752,76.0,240,155,2.0,0.0
2753,79.0,0,155,1.0,0.0
2754,79.0,229,155,1.0,0.0
2755,76.0,0,155,2.0,0.0
2756,72.0,0,155,2.0,0.0
2757,60.0,0,144,4.0,0.0
2758,76.0,229,155,1.0,0.0
2759,57.0,11,144,5.0,0.0
2760,60.0,240,144,4.0,0.0
2761,57.0,0,144,5.0,0.0
2762,57.0,11,144,4.0,0.0
2763,53.0,0,144,5.0,0.0
2764,77.0,240,155,1.0,0.0
2765,74.0,0,155,2.0,0.0
2766,77.0,0,155,1.0,0.0
2767,74.0,229,155,2.0,0.0
2768,71.0,0,155,2.0,0.0
2769,74.0,229,155,1.0,0.0
2770,55.0,0,144,5.0,0.0
2771,59.0,11,144,4.0,0.0
2772,55.0,216,144,5.0,0.0
2773,59.0,0,144,4.0,0.0
2774,72.0,24,120,1.0,0.0
2775,52.0,96,144,5.0,0.0
2776,55.0,0,144,4.0,0.0
2777,74.0,120,120,1.0,0.0
2778,76.0,120,120,1.0,0.0
2779,72.0,120,120,1.0,0.0
2780,69.0,120,120,1.0,0.0
2781,53.0,120,720,5.0,0.0
2782,71.0,120,120,1.0,0.0
2783,72.0,120,120,1.0,0.0
2784,73.0,120,120,1.0,0.0
2785,74.0,120,120,1.0,0.0
2786,76.0,0,120,1.0,0.0
2787,50.0,120,240,5.0,0.0
2788,77.0,120,120,1.0,0.0
2789,74.0,0,120,1.0,0.0
2790,55.0,120,240,5.0,0.0
2791,72.0,120,120,1.0,0.0
2792,71.0,0,120,1.0,0.0
2793,69.0,120,120,1.0,0.0
2794,67.0,155,120,1.0,0.0
2795,76.0,240,155,2.0,0.0
2796,79.0,0,155,1.0,0.0
2797,76.0,229,155,2.0,0.0
2798,79.0,0,155,1.0,0.0
2799,57.0,11,144,5.0,0.0
2800,72.0,0,155,2.0,0.0
2801,60.0,0,144,4.0,0.0
2802,76.0,229,155,1.0,0.0
2803,57.0,240,144,5.0,0.0
2804,60.0,0,144,4.0,0.0
2805,81.0,240,155,1.0,0.0
2806,50.0,0,144,5.0,0.0
2807,77.0,0,155,2.0,0.0
2808,53.0,11,144,4.0,0.0
2809,81.0,0,155,1.0,0.0
2810,77.0,229,155,2.0,0.0
2811,71.0,229,155,2.0,0.0
2812,59.0,11,144,4.0,0.0
2813,55.0,0,144,5.0,0.0
2814,74.0,0,155,1.0,0.0
2815,59.0,216,144,4.0,0.0
2816,55.0,0,144,5.0,0.0
2817,48.0,96,144,5.0,0.0
2818,52.0,0,144,4.0,0.0
2819,81.0,24,120,1.0,0.0
2820,79.0,120,120,1.0,0.0
2821,77.0,120,120,1.0,0.0
2822,76.0,120,120,1.0,0.0
2823,73.0,120,120,1.0,0.0
2824,57.0,0,720,4.0,0.0
2825,53.0,0,720,5.0,0.0
2826,74.0,120,120,1.0,0.0
2827,76.0,120,120,1.0,0.0
2828,77.0,120,120,1.0,0.0
2829,69.0,120,120,1.0,0.0
2830,72.0,120,120,1.0,0.0
2831,65.0,155,240,4.0,0.0
2832,71.0,120,120,1.0,0.0
2833,55.0,0,240,5.0,0.0
2834,74.0,0,120,1.0,0.0
2835,72.0,1,155,1.0,0.0
2836,60.0,0,156,5.0,0.0
2837,64.0,240,156,4.0,0.0
2838,48.0,204,156,5.0,0.0
2839,76.0,120,120,1.0,0.0
2840,60.0,0,360,5.0,0.0
2841,78.0,80,120,1.0,0.0
2842,67.0,0,120,3.0,0.0
2843,79.0,40,80,1.0,0.0
2844,64.0,80,120,3.0,0.0
2845,79.0,40,80,1.0,0.0
2846,67.0,120,120,3.0,0.0
2847,81.0,120,120,1.0,0.0
2848,59.0,120,360,5.0,0.0
2849,67.0,120,120,3.0,0.0
2850,79.0,0,120,1.0,0.0
2851,78.0,0,120,1.0,0.0
2852,62.0,0,120,3.0,0.0
2853,76.0,80,120,1.0,0.0
2854,67.0,0,120,3.0,0.0
2855,54.0,0,360,5.0,0.0
2856,74.0,120,80,1.0,0.0
2857,62.0,80,120,3.0,0.0
2858,74.0,40,80,1.0,0.0
2859,74.0,40,80,1.0,0.0
2860,57.0,80,120,3.0,0.0
2861,74.0,40,80,1.0,0.0
2862,62.0,120,120,3.0,0.0
2863,55.0,120,360,5.0,0.0
2864,76.0,120,120,1.0,0.0
2865,74.0,0,120,1.0,0.0
2866,62.0,120,120,3.0,0.0
2867,72.0,0,120,1.0,0.0
2868,59.0,0,120,3.0,0.0
2869,62.0,120,120,3.0,0.0
2870,71.0,0,120,1.0,0.0
2871,88.0,95,120,1.0,0.0
2872,47.0,95,360,5.0,0.0
2873,55.0,25,95,3.0,0.0
2874,86.0,95,120,1.0,0.0
2875,50.0,25,95,3.0,0.0
2876,84.0,0,120,1.0,0.0
2877,83.0,120,120,1.0,0.0
2878,55.0,25,95,3.0,0.0
2879,80.0,95,120,1.0,0.0
2880,48.0,0,360,5.0,0.0
2881,57.0,25,95,3.0,0.0
2882,81.0,95,120,1.0,0.0
2883,52.0,25,95,3.0,0.0
2884,83.0,95,120,1.0,0.0
2885,57.0,25,95,3.0,0.0
2886,84.0,120,120,1.0,0.0
2887,49.0,95,360,5.0,0.0
2888,76.0,95,120,1.0,0.0
2889,57.0,25,95,3.0,0.0
2890,78.0,95,120,1.0,0.0
2891,79.0,0,120,1.0,0.0
2892,52.0,25,95,3.0,0.0
2893,81.0,120,120,1.0,0.0
2894,57.0,25,95,3.0,0.0
2895,79.0,70,120,1.0,0.0
2896,50.0,50,190,5.0,0.0
2897,78.0,120,120,1.0,0.0
2898,76.0,120,120,1.0,0.0
2899,74.0,155,120,1.0,0.0
2900,83.0,240,155,2.0,0.0
2901,86.0,0,155,1.0,0.0
2902,83.0,240,155,2.0,0.0
2903,86.0,0,155,1.0,0.0
2904,64.0,0,155,5.0,0.0
2905,83.0,0,155,1.0,0.0
2906,79.0,0,155,2.0,0.0
2907,67.0,240,155,4.0,0.0
2908,64.0,0,155,5.0,0.0
2909,67.0,240,155,4.0,0.0
2910,84.0,0,155,1.0,0.0
2911,60.0,240,155,5.0,0.0
2912,64.0,0,155,4.0,0.0
2913,81.0,0,155,2.0,0.0
2914,81.0,0,155,2.0,0.0
2915,84.0,240,155,1.0,0.0
2916,78.0,0,155,2.0,0.0
2917,81.0,0,155,1.0,0.0
2918,66.0,240,155,4.0,0.0
2919,62.0,0,155,5.0,0.0
2920,66.0,0,155,4.0,0.0
2921,62.0,205,155,5.0,0.0
2922,62.0,85,155,4.0,0.0
2923,59.0,0,155,5.0,0.0
2924,79.0,35,120,1.0,0.0
2925,81.0,120,120,1.0,0.0
2926,83.0,120,120,1.0,0.0
2927,79.0,120,120,1.0,0.0
2928,55.0,120,720,4.0,0.0
2929,48.0,120,480,5.0,0.0
2930,75.0,120,120,1.0,0.0
2931,76.0,120,120,1.0,0.0
2932,79.0,120,120,1.0,0.0
2933,76.0,0,120,1.0,0.0
2934,50.0,156,480,5.0,0.0
2935,74.0,120,120,1.0,0.0
2936,71.0,0,120,1.0,0.0
2937,72.0,120,120,1.0,0.0
2938,54.0,0,240,4.0,0.0
2939,69.0,0,120,1.0,0.0
2940,67.0,192,240,1.0,0.0
2941,55.0,84,156,5.0,0.0
2942,43.0,168,192,5.0,0.0
2943,67.0,120,120,1.0,0.0
2944,69.0,120,120,1.0,0.0
2945,71.0,120,120,1.0,0.0
2946,72.0,156,120,1.0,0.0
2947,74.0,240,192,1.0,0.0
2948,55.0,0,156,5.0,0.0
2949,59.0,36,156,4.0,0.0
2950,43.0,168,192,5.0,0.0
2951,71.0,120,120,1.0,0.0
2952,72.0,120,120,1.0,0.0
2953,74.0,120,120,1.0,0.0
2954,76.0,156,120,1.0,0.0
2955,77.0,240,192,1.0,0.0
2956,59.0,36,156,4.0,0.0
2957,55.0,0,156,5.0,0.0
2958,43.0,168,192,5.0,0.0
2959,74.0,120,120,1.0,0.0
2960,76.0,120,120,1.0,0.0
2961,77.0,120,120,1.0,0.0
2962,79.0,155,120,1.0,0.0
2963,81.0,240,155,1.0,0.0
2964,80.0,240,155,1.0,0.0
2965,79.0,240,155,1.0,0.0
2966,78.0,240,155,1.0,0.0
2967,77.0,480,155,1.0,0.0
2968,76.0,0,155,2.0,0.0
2969,79.0,240,155,1.0,0.0
2970,79.0,0,155,1.0,0.0
2971,76.0,240,155,2.0,0.0
2972,72.0,0,155,2.0,0.0
2973,76.0,0,155,1.0,0.0
2974,57.0,240,155,5.0,0.0
2975,60.0,0,155,4.0,0.0
2976,60.0,0,155,4.0,0.0
2977,57.0,240,155,5.0,0.0
2978,57.0,0,155,4.0,0.0
2979,77.0,0,155,1.0,0.0
2980,53.0,240,155,5.0,0.0
2981,74.0,0,155,2.0,0.0
2982,77.0,240,155,1.0,0.0
2983,74.0,0,155,2.0,0.0
2984,71.0,0,155,2.0,0.0
2985,59.0,0,155,4.0,0.0
2986,55.0,240,155,5.0,0.0
2987,74.0,0,155,1.0,0.0
2988,59.0,0,155,4.0,0.0
2989,55.0,205,155,5.0,0.0
2990,72.0,35,120,1.0,0.0
2991,52.0,0,155,5.0,0.0
2992,55.0,85,155,4.0,0.0
2993,74.0,120,120,1.0,0.0
2994,76.0,120,120,1.0,0.0
2995,72.0,120,120,1.0,0.0
2996,69.0,120,120,1.0,0.0
2997,53.0,0,720,5.0,0.0
2998,71.0,120,120,1.0,0.0
2999,72.0,120,120,1.0,0.0
3000,73.0,120,120,1.0,0.0
3001,74.0,120,120,1.0,0.0
3002,76.0,120,120,1.0,0.0
3003,50.0,0,240,5.0,0.0
3004,77.0,120,120,1.0,0.0
3005,74.0,120,120,1.0,0.0
3006,55.0,120,240,5.0,0.0
3007,72.0,120,120,1.0,0.0
3008,71.0,0,120,1.0,0.0
3009,69.0,120,120,1.0,0.0
3010,67.0,155,120,1.0,0.0
3011,76.0,240,155,2.0,0.0
3012,79.0,0,155,1.0,0.0
3013,79.0,0,155,1.0,0.0
3014,76.0,240,155,2.0,0.0
3015,72.0,0,155,2.0,0.0
3016,76.0,0,155,1.0,0.0
3017,57.0,240,155,5.0,0.0
3018,60.0,0,155,4.0,0.0
3019,57.0,240,155,5.0,0.0
3020,60.0,0,155,4.0,0.0
3021,77.0,0,155,2.0,0.0
3022,53.0,0,155,4.0,0.0
3023,50.0,240,155,5.0,0.0
3024,81.0,0,155,1.0,0.0
3025,81.0,240,155,1.0,0.0
3026,77.0,0,155,2.0,0.0
3027,71.0,0,155,2.0,0.0
3028,74.0,0,155,1.0,0.0
3029,59.0,0,155,4.0,0.0
3030,55.0,240,155,5.0,0.0
3031,59.0,205,155,4.0,0.0
3032,55.0,0,155,5.0,0.0
3033,52.0,85,155,4.0,0.0
3034,48.0,0,155,5.0,0.0
3035,81.0,35,120,1.0,0.0
3036,79.0,120,120,1.0,0.0
3037,77.0,120,120,1.0,0.0
3038,76.0,120,120,1.0,0.0
3039,53.0,120,720,5.0,0.0
3040,73.0,120,120,1.0,0.0
3041,57.0,0,720,4.0,0.0
3042,74.0,120,120,1.0,0.0
3043,76.0,120,120,1.0,0.0
3044,77.0,120,120,1.0,0.0
3045,69.0,120,120,1.0,0.0
3046,72.0,0,120,1.0,0.0
3047,71.0,36,120,1.0,0.0
3048,65.0,0,156,4.0,0.0
3049,55.0,84,156,5.0,0.0
3050,74.0,155,120,1.0,0.0
3051,64.0,240,155,4.0,0.0
3052,72.0,0,155,1.0,0.0
3053,60.0,0,155,5.0,0.0
3054,48.0,240,155,5.0,0.0
3055,60.0,0,155,5.0,0.0
3056,64.0,240,155,4.0,0.0
3057,60.0,205,155,5.0,0.0
3058,64.0,0,155,4.0,0.0
3059,57.0,85,155,5.0,0.0
3060,60.0,0,155,4.0,0.0
3061,76.0,35,120,1.0,0.0
3062,75.0,120,120,1.0,0.0
3063,77.0,120,120,1.0,0.0
3064,76.0,155,120,1.0,0.0
3065,62.0,0,155,4.0,0.0
3066,59.0,240,155,5.0,0.0
3067,59.0,0,155,5.0,0.0
3068,62.0,205,155,4.0,0.0
3069,56.0,0,155,5.0,0.0
3070,76.0,35,120,1.0,0.0
3071,59.0,85,155,4.0,0.0
3072,75.0,120,120,1.0,0.0
3073,77.0,120,120,1.0,0.0
3074,76.0,155,120,1.0,0.0
3075,84.0,0,155,1.0,0.0
3076,76.0,240,155,2.0,0.0
3077,84.0,0,155,1.0,0.0
3078,76.0,205,155,2.0,0.0
3079,64.0,35,120,5.0,0.0
3080,72.0,0,155,2.0,0.0
3081,81.0,85,155,1.0,0.0
3082,63.0,120,120,5.0,0.0
3083,65.0,120,120,5.0,0.0
3084,64.0,155,120,5.0,0.0
3085,83.0,240,155,1.0,0.0
3086,74.0,0,155,2.0,0.0
3087,74.0,0,155,2.0,0.0
3088,83.0,205,155,1.0,0.0
3089,71.0,85,155,2.0,0.0
3090,64.0,35,120,5.0,0.0
3091,80.0,0,155,1.0,0.0
3092,63.0,120,120,5.0,0.0
3093,65.0,120,120,5.0,0.0
3094,64.0,120,120,5.0,0.0
3095,60.0,0,480,5.0,0.0
3096,81.0,120,120,1.0,0.0
3097,64.0,120,480,2.0,0.0
3098,76.0,120,120,1.0,0.0
3099,72.0,120,120,1.0,0.0
3100,69.0,0,120,1.0,0.0
3101,65.0,0,480,2.0,0.0
3102,72.0,80,120,1.0,0.0
3103,62.0,120,480,5.0,0.0
3104,70.0,120,80,1.0,0.0
3105,70.0,120,80,1.0,0.0
3106,70.0,40,80,1.0,0.0
3107,67.0,0,480,2.0,0.0
3108,64.0,120,480,5.0,0.0
3109,74.0,80,120,1.0,0.0
3110,73.0,120,80,1.0,0.0
3111,73.0,120,80,1.0,0.0
3112,73.0,40,80,1.0,0.0
3113,76.0,95,120,1.0,0.0
3114,65.0,120,240,5.0,0.0
3115,74.0,25,95,1.0,0.0
3116,61.0,120,240,5.0,0.0
3117,77.0,95,120,1.0,0.0
3118,76.0,25,95,1.0,0.0
3119,62.0,120,240,5.0,0.0
3120,79.0,95,120,1.0,0.0
3121,77.0,25,95,1.0,0.0
3122,77.0,95,120,1.0,0.0
3123,64.0,0,240,5.0,0.0
3124,76.0,25,95,1.0,0.0
3125,65.0,0,240,5.0,0.0
3126,69.0,120,0,2.0,0.0
3127,76.0,95,120,1.0,0.0
3128,75.0,25,95,1.0,0.0
3129,84.0,0,480,1.0,0.0
3130,65.0,0,240,5.0,0.0
3131,69.0,240,240,2.0,0.0
3132,75.0,215,240,1.0,0.0
3133,52.0,0,720,5.0,0.0
3134,76.0,180,240,1.0,0.0
3135,64.0,25,95,3.0,0.0
3136,56.0,35,180,4.0,0.0
3137,64.0,145,95,3.0,0.0
3138,83.0,60,120,1.0,0.0
3139,59.0,35,180,4.0,0.0
3140,80.0,120,120,1.0,0.0
3141,64.0,25,95,3.0,0.0
3142,56.0,35,180,4.0,0.0
3143,76.0,60,120,1.0,0.0
3144,64.0,25,95,3.0,0.0
3145,74.0,120,120,1.0,0.0
3146,52.0,120,720,5.0,0.0
3147,72.0,95,120,1.0,0.0
3148,64.0,25,95,3.0,0.0
3149,76.0,120,120,1.0,0.0
3150,81.0,60,120,1.0,0.0
3151,57.0,35,180,4.0,0.0
3152,80.0,120,120,1.0,0.0
3153,64.0,25,95,3.0,0.0
3154,60.0,35,180,4.0,0.0
3155,81.0,60,120,1.0,0.0
3156,64.0,25,95,3.0,0.0
3157,76.0,0,120,1.0,0.0
3158,72.0,60,120,1.0,0.0
3159,57.0,35,180,4.0,0.0
3160,64.0,25,95,3.0,0.0
3161,69.0,120,120,1.0,0.0
3162,68.0,95,120,1.0,0.0
3163,52.0,120,720,5.0,0.0
3164,64.0,25,95,3.0,0.0
3165,71.0,120,120,1.0,0.0
3166,76.0,60,120,1.0,0.0
3167,56.0,35,180,4.0,0.0
3168,80.0,120,120,1.0,0.0
3169,64.0,25,95,3.0,0.0
3170,59.0,35,180,4.0,0.0
3171,83.0,60,120,1.0,0.0
3172,64.0,25,95,3.0,0.0
3173,80.0,0,120,1.0,0.0
3174,56.0,35,180,4.0,0.0
3175,76.0,60,120,1.0,0.0
3176,64.0,25,95,3.0,0.0
3177,74.0,120,120,1.0,0.0
3178,52.0,120,720,5.0,0.0
3179,72.0,95,120,1.0,0.0
3180,64.0,25,95,3.0,0.0
3181,76.0,120,120,1.0,0.0
3182,81.0,60,120,1.0,0.0
3183,57.0,35,180,4.0,0.0
3184,80.0,120,120,1.0,0.0
3185,64.0,25,95,3.0,0.0
3186,81.0,60,120,1.0,0.0
3187,60.0,35,180,4.0,0.0
3188,76.0,0,120,1.0,0.0
3189,64.0,25,95,3.0,0.0
3190,57.0,35,180,4.0,0.0
3191,72.0,60,120,1.0,0.0
3192,69.0,155,120,1.0,0.0
3193,64.0,25,95,3.0,0.0
3194,64.0,1,155,3.0,0.0
3195,52.0,479,156,5.0,0.0
3196,76.0,240,155,1.0,0.0
3197,72.0,0,155,2.0,0.0
3198,72.0,0,155,2.0,0.0
3199,76.0,205,155,1.0,0.0
3200,69.0,85,155,2.0,0.0
3201,72.0,0,155,1.0,0.0
3202,64.0,35,120,5.0,0.0
3203,63.0,120,120,5.0,0.0
3204,65.0,120,120,5.0,0.0
3205,64.0,155,120,5.0,0.0
3206,74.0,240,155,1.0,0.0
3207,71.0,0,155,2.0,0.0
3208,71.0,0,155,2.0,0.0
3209,74.0,205,155,1.0,0.0
3210,64.0,35,120,5.0,0.0
3211,68.0,0,155,2.0,0.0
3212,71.0,85,155,1.0,0.0
3213,63.0,120,120,5.0,0.0
3214,65.0,120,120,5.0,0.0
3215,64.0,155,120,5.0,0.0
3216,60.0,0,155,4.0,0.0
3217,52.0,240,155,5.0,0.0
3218,52.0,0,155,5.0,0.0
3219,60.0,205,155,4.0,0.0
3220,48.0,0,155,5.0,0.0
3221,64.0,35,120,1.0,0.0
3222,57.0,85,155,4.0,0.0
3223,63.0,120,120,1.0,0.0
3224,65.0,120,120,1.0,0.0
3225,64.0,155,120,1.0,0.0
3226,50.0,0,155,5.0,0.0
3227,59.0,240,155,4.0,0.0
3228,59.0,0,155,4.0,0.0
3229,50.0,205,155,5.0,0.0
3230,47.0,0,155,5.0,0.0
3231,56.0,85,155,4.0,0.0
3232,88.0,35,120,1.0,0.0
3233,87.0,120,120,1.0,0.0
3234,89.0,120,120,1.0,0.0
3235,88.0,120,120,1.0,0.0
3236,59.0,0,480,2.0,0.0
3237,86.0,120,120,1.0,0.0
3238,56.0,120,480,5.0,0.0
3239,85.0,120,120,1.0,0.0
3240,88.0,120,120,1.0,0.0
3241,86.0,0,0,1.0,0.0
3242,60.0,25,190,2.0,0.0
3243,57.0,0,190,5.0,0.0
3244,84.0,145,95,1.0,0.0
3245,84.0,70,120,1.0,0.0
3246,59.0,25,190,5.0,0.0
3247,62.0,0,190,2.0,0.0
3248,83.0,145,95,1.0,0.0
3249,60.0,25,190,5.0,0.0
3250,83.0,70,120,1.0,0.0
3251,64.0,120,480,2.0,0.0
3252,81.0,145,95,1.0,0.0
3253,61.0,25,190,5.0,0.0
3254,81.0,70,120,1.0,0.0
3255,79.0,25,95,1.0,0.0
3256,62.0,25,190,5.0,0.0
3257,69.0,120,960,2.0,0.0
3258,79.0,70,120,1.0,0.0
3259,77.0,145,95,1.0,0.0
3260,77.0,70,120,1.0,0.0
3261,64.0,25,190,5.0,0.0
3262,76.0,145,95,1.0,0.0
3263,76.0,70,120,1.0,0.0
3264,65.0,25,190,5.0,0.0
3265,74.0,145,95,1.0,0.0
3266,74.0,70,120,1.0,0.0
3267,64.0,25,190,5.0,0.0
3268,72.0,25,95,1.0,0.0
3269,65.0,95,385,2.0,0.0
3270,62.0,0,385,5.0,0.0
3271,70.0,120,120,1.0,0.0
3272,77.0,120,120,1.0,0.0
3273,74.0,25,120,1.0,0.0
3274,70.0,190,120,1.0,0.0
3275,69.0,50,190,1.0,0.0
3276,60.0,190,240,4.0,0.0
3277,52.0,190,480,5.0,0.0
3278,59.0,0,240,4.0,0.0
3279,68.0,50,190,1.0,0.0
3280,69.0,50,190,1.0,0.0
3281,57.0,120,360,5.0,0.0
3282,60.0,120,120,3.0,0.0
3283,64.0,0,120,3.0,0.0
3284,60.0,95,120,3.0,0.0
3285,52.0,95,360,5.0,0.0
3286,68.0,120,95,1.0,0.0
3287,59.0,95,120,3.0,0.0
3288,74.0,25,95,1.0,0.0
3289,71.0,25,95,1.0,0.0
3290,62.0,0,120,3.0,0.0
3291,68.0,25,95,1.0,0.0
3292,59.0,190,120,3.0,0.0
3293,57.0,0,360,5.0,0.0
3294,69.0,50,190,1.0,0.0
3295,60.0,120,120,3.0,0.0
3296,64.0,120,120,3.0,0.0
3297,60.0,95,120,3.0,0.0
3298,68.0,120,95,1.0,0.0
3299,52.0,0,360,5.0,0.0
3300,74.0,25,95,1.0,0.0
3301,59.0,95,120,3.0,0.0
3302,71.0,25,95,1.0,0.0
3303,62.0,95,120,3.0,0.0
3304,59.0,190,120,3.0,0.0
3305,68.0,25,95,1.0,0.0
3306,57.0,120,360,5.0,0.0
3307,69.0,50,190,1.0,0.0
3308,60.0,120,120,3.0,0.0
3309,64.0,0,120,3.0,0.0
3310,60.0,95,120,3.0,0.0
3311,68.0,120,95,1.0,0.0
3312,52.0,0,360,5.0,0.0
3313,74.0,25,95,1.0,0.0
3314,59.0,95,120,3.0,0.0
3315,62.0,95,120,3.0,0.0
3316,71.0,25,95,1.0,0.0
3317,59.0,95,120,3.0,0.0
3318,68.0,25,95,1.0,0.0
3319,57.0,0,360,5.0,0.0
3320,69.0,120,95,1.0,0.0
3321,60.0,95,120,3.0,0.0
3322,76.0,25,95,1.0,0.0
3323,72.0,25,95,1.0,0.0
3324,64.0,95,120,3.0,0.0
3325,69.0,25,95,1.0,0.0
3326,60.0,95,120,3.0,0.0
3327,55.0,0,360,5.0,0.0
3328,71.0,120,95,1.0,0.0
3329,62.0,95,120,3.0,0.0
3330,77.0,25,95,1.0,0.0
3331,65.0,120,120,3.0,0.0
3332,74.0,25,95,1.0,0.0
3333,71.0,635,120,1.0,0.0
3334,62.0,0,120,3.0,0.0
3335,79.0,0,155,1.0,0.0
3336,76.0,240,155,2.0,0.0
3337,76.0,0,155,2.0,0.0
3338,79.0,240,155,1.0,0.0
3339,76.0,0,155,1.0,0.0
3340,57.0,0,155,5.0,0.0
3341,60.0,240,155,4.0,0.0
3342,72.0,0,155,2.0,0.0
3343,57.0,0,155,5.0,0.0
3344,60.0,240,155,4.0,0.0
3345,53.0,0,155,5.0,0.0
3346,74.0,0,155,2.0,0.0
3347,57.0,240,155,4.0,0.0
3348,77.0,0,155,1.0,0.0
3349,77.0,240,155,1.0,0.0
3350,74.0,0,155,2.0,0.0
3351,55.0,0,155,5.0,0.0
3352,59.0,0,155,4.0,0.0
3353,71.0,0,155,2.0,0.0
3354,74.0,240,155,1.0,0.0
3355,59.0,0,155,4.0,0.0
3356,55.0,205,155,5.0,0.0
3357,52.0,0,155,5.0,0.0
3358,55.0,85,155,4.0,0.0
3359,72.0,35,120,1.0,0.0
3360,74.0,120,120,1.0,0.0
3361,76.0,120,120,1.0,0.0
3362,72.0,120,120,1.0,0.0
3363,53.0,120,720,5.0,0.0
3364,69.0,120,120,1.0,0.0
3365,71.0,120,120,1.0,0.0
3366,72.0,120,120,1.0,0.0
3367,73.0,120,120,1.0,0.0
3368,74.0,120,120,1.0,0.0
3369,76.0,0,120,1.0,0.0
3370,50.0,0,240,5.0,0.0
3371,77.0,120,120,1.0,0.0
3372,74.0,120,120,1.0,0.0
3373,55.0,0,240,5.0,0.0
3374,72.0,120,120,1.0,0.0
3375,71.0,120,120,1.0,0.0
3376,69.0,120,120,1.0,0.0
3377,67.0,155,120,1.0,0.0
3378,79.0,240,155,1.0,0.0
3379,76.0,0,155,2.0,0.0
3380,79.0,240,155,1.0,0.0
3381,76.0,0,155,2.0,0.0
3382,57.0,240,155,5.0,0.0
3383,76.0,0,155,1.0,0.0
3384,72.0,0,155,2.0,0.0
3385,60.0,0,155,4.0,0.0
3386,57.0,0,155,5.0,0.0
3387,60.0,240,155,4.0,0.0
3388,50.0,240,155,5.0,0.0
3389,77.0,0,155,2.0,0.0
3390,81.0,0,155,1.0,0.0
3391,53.0,0,155,4.0,0.0
3392,77.0,240,155,2.0,0.0
3393,81.0,0,155,1.0,0.0
3394,59.0,240,155,4.0,0.0
3395,55.0,0,155,5.0,0.0
3396,71.0,0,155,2.0,0.0
3397,74.0,0,155,1.0,0.0
3398,55.0,0,155,5.0,0.0
3399,59.0,205,155,4.0,0.0
3400,48.0,85,155,5.0,0.0
3401,81.0,35,120,1.0,0.0
3402,52.0,0,155,4.0,0.0
3403,79.0,120,120,1.0,0.0
3404,77.0,120,120,1.0,0.0
3405,76.0,120,120,1.0,0.0
3406,57.0,120,720,4.0,0.0
3407,53.0,0,720,5.0,0.0
3408,73.0,120,120,1.0,0.0
3409,74.0,120,120,1.0,0.0
3410,76.0,120,120,1.0,0.0
3411,77.0,120,120,1.0,0.0
3412,69.0,120,120,1.0,0.0
3413,72.0,0,120,1.0,0.0
3414,71.0,120,120,1.0,0.0
3415,65.0,0,240,4.0,0.0
3416,55.0,0,240,5.0,0.0
3417,74.0,155,120,1.0,0.0
3418,64.0,0,155,4.0,0.0
3419,60.0,0,155,5.0,0.0
3420,72.0,240,155,1.0,0.0
3421,48.0,205,155,5.0,0.0
3422,53.0,0,360,5.0,0.0
3423,71.0,120,120,1.0,0.0
3424,59.0,120,120,3.0,0.0
3425,77.0,0,120,1.0,0.0
3426,74.0,0,120,1.0,0.0
3427,55.0,120,120,3.0,0.0
3428,71.0,120,120,1.0,0.0
3429,59.0,0,120,3.0,0.0
3430,81.0,120,120,1.0,0.0
3431,52.0,0,360,5.0,0.0
3432,60.0,120,120,3.0,0.0
3433,79.0,0,120,1.0,0.0
3434,77.0,0,120,1.0,0.0
3435,55.0,120,120,3.0,0.0
3436,60.0,120,120,3.0,0.0
3437,76.0,0,120,1.0,0.0
3438,53.0,0,360,5.0,0.0
3439,74.0,120,120,1.0,0.0
3440,59.0,120,120,3.0,0.0
3441,77.0,0,120,1.0,0.0
3442,55.0,120,120,3.0,0.0
3443,74.0,0,120,1.0,0.0
3444,71.0,120,120,1.0,0.0
3445,59.0,0,120,3.0,0.0
3446,52.0,0,360,5.0,0.0
3447,81.0,120,120,1.0,0.0
3448,79.0,0,120,1.0,0.0
3449,60.0,120,120,3.0,0.0
3450,77.0,0,120,1.0,0.0
3451,55.0,120,120,3.0,0.0
3452,76.0,0,120,1.0,0.0
3453,60.0,120,120,3.0,0.0
3454,86.0,120,120,1.0,0.0
3455,53.0,120,360,5.0,0.0
3456,84.0,0,120,1.0,0.0
3457,62.0,120,120,3.0,0.0
3458,83.0,0,120,1.0,0.0
3459,57.0,0,120,3.0,0.0
3460,62.0,120,120,3.0,0.0
3461,81.0,0,0,1.0,0.0
3462,55.0,0,360,5.0,0.0
3463,79.0,40,80,1.0,0.0
3464,64.0,80,120,3.0,0.0
3465,60.0,80,120,3.0,0.0
3466,77.0,40,80,1.0,0.0
3467,76.0,40,80,1.0,0.0
3468,64.0,120,120,3.0,0.0
3469,76.0,80,120,1.0,0.0
3470,55.0,80,360,5.0,0.0
3471,65.0,80,120,3.0,0.0
3472,74.0,40,80,1.0,0.0
3473,62.0,0,120,3.0,0.0
3474,72.0,40,80,1.0,0.0
3475,65.0,240,120,3.0,0.0
3476,71.0,40,80,1.0,0.0
3477,74.0,0,240,1.0,0.0
3478,60.0,0,360,5.0,0.0
3479,67.0,120,120,3.0,0.0
3480,72.0,120,240,1.0,0.0
3481,64.0,120,120,3.0,0.0
3482,67.0,0,120,3.0,0.0
3483,53.0,0,360,5.0,0.0
3484,71.0,120,120,1.0,0.0
3485,59.0,120,120,3.0,0.0
3486,77.0,0,120,1.0,0.0
3487,74.0,0,120,1.0,0.0
3488,55.0,120,120,3.0,0.0
3489,71.0,0,120,1.0,0.0
3490,59.0,120,120,3.0,0.0
3491,52.0,0,360,5.0,0.0
3492,81.0,120,120,1.0,0.0
3493,60.0,0,120,3.0,0.0
3494,79.0,120,120,1.0,0.0
3495,77.0,120,120,1.0,0.0
3496,55.0,0,120,3.0,0.0
3497,60.0,0,120,3.0,0.0
3498,76.0,120,120,1.0,0.0
3499,74.0,120,120,1.0,0.0
3500,53.0,0,360,5.0,0.0
3501,59.0,0,120,3.0,0.0
3502,77.0,120,120,1.0,0.0
3503,74.0,120,120,1.0,0.0
3504,55.0,0,120,3.0,0.0
3505,59.0,120,120,3.0,0.0
3506,71.0,0,120,1.0,0.0
3507,81.0,120,120,1.0,0.0
3508,52.0,0,360,5.0,0.0
3509,79.0,120,120,1.0,0.0
3510,60.0,0,120,3.0,0.0
3511,77.0,0,120,1.0,0.0
3512,55.0,120,120,3.0,0.0
3513,76.0,0,120,1.0,0.0
3514,60.0,120,120,3.0,0.0
3515,53.0,120,360,5.0,0.0
3516,86.0,120,120,1.0,0.0
3517,84.0,120,120,1.0,0.0
3518,62.0,0,120,3.0,0.0
3519,57.0,0,120,3.0,0.0
3520,83.0,0,120,1.0,0.0
3521,62.0,120,120,3.0,0.0
3522,81.0,0,0,1.0,0.0
3523,55.0,80,360,5.0,0.0
3524,79.0,40,80,1.0,0.0
3525,64.0,80,120,3.0,0.0
3526,77.0,40,80,1.0,0.0
3527,60.0,0,120,3.0,0.0
3528,76.0,40,80,1.0,0.0
3529,64.0,120,120,3.0,0.0
3530,55.0,0,360,5.0,0.0
3531,76.0,80,120,1.0,0.0
3532,65.0,80,120,3.0,0.0
3533,74.0,40,80,1.0,0.0
3534,62.0,80,120,3.0,0.0
3535,72.0,40,80,1.0,0.0
3536,65.0,109,120,3.0,0.0
3537,71.0,40,80,1.0,0.0
3538,60.0,120,109,5.0,0.0
3539,72.0,0,109,1.0,0.0
3540,64.0,0,109,4.0,0.0
3541,76.0,120,109,2.0,0.0
3542,55.0,0,109,5.0,0.0
3543,67.0,120,109,1.0,0.0
3544,60.0,0,109,4.0,0.0
3545,72.0,120,109,2.0,0.0
3546,52.0,0,109,5.0,0.0
3547,64.0,120,109,1.0,0.0
3548,55.0,120,109,4.0,0.0
3549,67.0,0,109,2.0,0.0
3550,48.0,120,109,5.0,0.0
3551,60.0,0,109,1.0,0.0
3552,64.0,120,109,2.0,0.0
3553,52.0,0,109,4.0,0.0
3554,67.0,109,109,1.0,0.0
3555,55.0,11,218,5.0,0.0
3556,72.0,120,109,1.0,0.0
3557,76.0,120,109,1.0,0.0
3558,72.0,0,109,2.0,0.0
3559,79.0,0,109,1.0,0.0
3560,76.0,120,109,2.0,0.0
3561,79.0,109,109,1.0,0.0
3562,76.0,0,109,2.0,0.0
3563,43.0,11,218,5.0,0.0
3564,74.0,0,109,2.0,0.0
3565,77.0,120,109,1.0,0.0
3566,76.0,120,109,1.0,0.0
3567,72.0,0,109,2.0,0.0
3568,71.0,91,109,2.0,0.0
3569,74.0,0,109,1.0,0.0
3570,72.0,0,80,1.0,0.0
3571,60.0,120,80,5.0,0.0
3572,64.0,120,80,4.0,0.0
3573,76.0,0,80,2.0,0.0
3574,67.0,120,80,1.0,0.0
3575,55.0,0,80,5.0,0.0
3576,72.0,120,80,2.0,0.0
3577,60.0,0,80,4.0,0.0
3578,64.0,0,80,1.0,0.0
3579,52.0,120,80,5.0,0.0
3580,67.0,120,80,2.0,0.0
3581,55.0,0,80,4.0,0.0
3582,60.0,0,80,1.0,0.0
3583,48.0,120,80,5.0,0.0
3584,52.0,0,80,4.0,0.0
3585,64.0,120,80,2.0,0.0
3586,55.0,10,190,5.0,0.0
3587,67.0,110,80,1.0,0.0
3588,72.0,120,80,1.0,0.0
3589,72.0,0,80,2.0,0.0
3590,76.0,120,80,1.0,0.0
3591,76.0,160,80,2.0,0.0
3592,79.0,0,80,1.0,0.0
3593,79.0,0,120,1.0,0.0
3594,43.0,10,190,5.0,0.0
3595,76.0,70,120,2.0,0.0
3596,77.0,0,80,1.0,0.0
3597,74.0,120,80,2.0,0.0
3598,76.0,0,80,1.0,0.0
3599,72.0,120,80,2.0,0.0
3600,74.0,195,80,1.0,0.0
3601,71.0,0,80,2.0,0.0
3602,48.0,0,155,5.0,0.0
3603,36.0,0,155,5.0,0.0
3604,72.0,240,155,1.0,0.0
3605,52.0,240,155,5.0,0.0
3606,79.0,0,155,2.0,0.0
3607,76.0,0,155,2.0,0.0
3608,84.0,0,155,1.0,0.0
3609,40.0,0,155,5.0,0.0
3610,64.0,240,155,2.0,0.0
3611,55.0,0,155,5.0,0.0
3612,72.0,0,155,1.0,0.0
3613,43.0,0,155,5.0,0.0
3614,64.0,0,155,2.0,0.0
3615,72.0,0,155,1.0,0.0
3616,40.0,0,155,5.0,0.0
3617,52.0,565,155,5.0,0.0
3618,64.0,0,480,2.0,0.0
3619,36.0,0,480,5.0,0.0
3620,48.0,0,480,5.0,0.0
3621,72.0,0,480,1.0,0.0
