,note,step,duration,channel,velocity
0,61.0,0,144,6.0,71.0
1,69.0,0,312,5.0,71.0
2,57.0,0,384,8.0,71.0
3,64.0,240,144,6.0,71.0
4,45.0,0,384,10.0,71.0
5,61.0,0,144,6.0,71.0
6,57.0,0,384,8.0,71.0
7,64.0,240,144,6.0,71.0
8,45.0,0,384,10.0,71.0
9,69.0,240,480,5.0,71.0
10,61.0,240,144,6.0,71.0
11,64.0,240,144,6.0,71.0
12,57.0,0,384,8.0,71.0
13,45.0,0,384,10.0,71.0
14,73.0,0,480,5.0,71.0
15,61.0,240,144,6.0,71.0
16,57.0,0,384,8.0,71.0
17,64.0,240,144,6.0,71.0
18,45.0,0,384,10.0,71.0
19,76.0,0,432,5.0,71.0
20,76.0,0,120,5.0,71.0
21,62.0,0,144,6.0,71.0
22,57.0,0,384,8.0,71.0
23,45.0,240,384,10.0,71.0
24,64.0,120,144,6.0,71.0
25,74.0,120,288,5.0,71.0
26,73.0,0,120,5.0,71.0
27,62.0,240,144,6.0,71.0
28,64.0,120,144,6.0,71.0
29,57.0,0,384,8.0,71.0
30,45.0,0,384,10.0,71.0
31,71.0,120,288,5.0,71.0
32,69.0,0,120,5.0,71.0
33,62.0,240,144,6.0,71.0
34,64.0,120,144,6.0,71.0
35,45.0,0,384,10.0,71.0
36,57.0,0,384,8.0,71.0
37,68.0,120,288,5.0,71.0
38,66.0,240,120,5.0,71.0
39,62.0,0,144,6.0,71.0
40,57.0,0,384,8.0,71.0
41,45.0,0,384,10.0,71.0
42,64.0,120,144,6.0,71.0
43,64.0,120,288,5.0,71.0
44,62.0,0,144,6.0,71.0
45,71.0,0,312,5.0,71.0
46,45.0,240,384,10.0,71.0
47,64.0,240,144,6.0,71.0
48,57.0,0,384,8.0,71.0
49,62.0,0,144,6.0,71.0
50,64.0,240,144,6.0,71.0
51,45.0,0,384,10.0,71.0
52,57.0,0,384,8.0,71.0
53,71.0,240,480,5.0,71.0
54,62.0,240,144,6.0,71.0
55,64.0,240,144,6.0,71.0
56,57.0,0,384,8.0,71.0
57,45.0,0,384,10.0,71.0
58,74.0,0,480,5.0,71.0
59,62.0,0,144,6.0,71.0
60,57.0,0,384,8.0,71.0
61,59.0,0,3744,7.0,71.0
62,45.0,0,384,10.0,71.0
63,64.0,240,144,6.0,71.0
64,68.0,0,3744,7.0,71.0
65,78.0,240,456,5.0,71.0
66,61.0,240,144,6.0,71.0
67,57.0,0,384,8.0,71.0
68,45.0,0,384,10.0,71.0
69,64.0,240,144,6.0,71.0
70,61.0,0,144,6.0,71.0
71,76.0,0,720,5.0,71.0
72,57.0,240,384,8.0,71.0
73,64.0,240,144,6.0,71.0
74,45.0,0,384,10.0,71.0
75,73.0,0,228,5.0,71.0
76,61.0,0,144,6.0,71.0
77,61.0,0,1152,7.0,62.0
78,69.0,0,1152,7.0,62.0
79,64.0,240,144,6.0,71.0
80,76.0,240,384,5.0,62.0
81,45.0,0,384,10.0,71.0
82,57.0,0,384,8.0,71.0
83,61.0,240,144,6.0,71.0
84,45.0,0,384,10.0,71.0
85,57.0,0,384,8.0,71.0
86,64.0,240,144,6.0,71.0
87,57.0,240,384,6.0,71.0
88,69.0,0,384,5.0,71.0
89,81.0,0,960,5.0,71.0
90,69.0,480,960,6.0,71.0
91,61.0,0,960,8.0,71.0
92,49.0,480,960,10.0,71.0
93,80.0,0,960,5.0,71.0
94,68.0,480,960,6.0,71.0
95,64.0,0,960,7.0,71.0
96,50.0,0,960,10.0,71.0
97,62.0,480,960,8.0,71.0
98,62.0,0,960,7.0,71.0
99,78.0,480,960,5.0,71.0
100,66.0,0,960,6.0,71.0
101,57.0,0,960,8.0,71.0
102,45.0,480,960,10.0,71.0
103,76.0,0,960,5.0,71.0
104,64.0,0,960,6.0,71.0
105,61.0,480,960,7.0,71.0
106,44.0,480,960,10.0,71.0
107,56.0,0,960,8.0,71.0
108,74.0,480,960,5.0,71.0
109,62.0,0,960,6.0,71.0
110,59.0,0,960,7.0,71.0
111,57.0,0,960,8.0,71.0
112,45.0,480,960,10.0,71.0
113,73.0,480,720,5.0,71.0
114,61.0,0,720,6.0,71.0
115,57.0,0,720,7.0,71.0
116,56.0,0,240,7.0,71.0
117,71.0,240,240,5.0,71.0
118,59.0,0,240,6.0,71.0
119,58.0,240,240,6.0,71.0
120,54.0,0,240,7.0,71.0
121,70.0,0,240,5.0,71.0
122,52.0,480,768,8.0,71.0
123,40.0,0,768,10.0,71.0
124,59.0,0,192,6.0,71.0
125,71.0,240,192,5.0,71.0
126,56.0,0,240,7.0,71.0
127,69.0,0,240,5.0,71.0
128,59.0,0,384,6.0,62.0
129,56.0,240,384,7.0,62.0
130,68.0,240,240,5.0,71.0
131,66.0,240,240,5.0,71.0
132,64.0,240,240,5.0,71.0
133,61.0,240,144,6.0,71.0
134,69.0,0,312,5.0,71.0
135,64.0,240,144,6.0,71.0
136,45.0,0,384,10.0,71.0
137,57.0,0,384,8.0,71.0
138,61.0,0,144,6.0,71.0
139,64.0,240,144,6.0,71.0
140,45.0,0,384,10.0,71.0
141,57.0,0,384,8.0,71.0
142,69.0,240,480,5.0,71.0
143,61.0,0,144,6.0,71.0
144,45.0,240,384,10.0,71.0
145,64.0,240,144,6.0,71.0
146,57.0,0,384,8.0,71.0
147,73.0,0,480,5.0,71.0
148,61.0,240,144,6.0,71.0
149,64.0,240,144,6.0,71.0
150,45.0,0,384,10.0,71.0
151,57.0,0,384,8.0,71.0
152,76.0,0,456,5.0,71.0
153,76.0,0,120,5.0,71.0
154,62.0,0,144,6.0,71.0
155,64.0,120,144,6.0,71.0
156,57.0,0,384,8.0,71.0
157,45.0,240,384,10.0,71.0
158,74.0,120,288,5.0,71.0
159,73.0,0,120,5.0,71.0
160,62.0,240,144,6.0,71.0
161,45.0,0,384,10.0,71.0
162,57.0,0,384,8.0,71.0
163,64.0,120,144,6.0,71.0
164,71.0,120,288,5.0,71.0
165,69.0,0,120,5.0,71.0
166,62.0,240,144,6.0,71.0
167,45.0,0,384,10.0,71.0
168,57.0,0,384,8.0,71.0
169,64.0,120,144,6.0,71.0
170,68.0,120,288,5.0,71.0
171,66.0,0,120,5.0,71.0
172,62.0,0,144,6.0,71.0
173,57.0,240,384,8.0,71.0
174,64.0,120,144,6.0,71.0
175,45.0,0,384,10.0,71.0
176,64.0,120,288,5.0,71.0
177,62.0,0,144,6.0,71.0
178,71.0,0,312,5.0,71.0
179,64.0,240,144,6.0,71.0
180,57.0,0,384,8.0,71.0
181,45.0,240,384,10.0,71.0
182,62.0,0,144,6.0,71.0
183,57.0,0,384,8.0,71.0
184,45.0,240,384,10.0,71.0
185,64.0,240,144,6.0,71.0
186,71.0,0,480,5.0,71.0
187,62.0,240,144,6.0,71.0
188,64.0,240,144,6.0,71.0
189,45.0,0,384,10.0,71.0
190,57.0,0,384,8.0,71.0
191,74.0,0,480,5.0,71.0
192,62.0,0,144,6.0,71.0
193,59.0,0,3744,7.0,71.0
194,74.0,0,3744,0.0,71.0
195,64.0,240,144,6.0,71.0
196,64.0,0,3744,1.0,71.0
197,71.0,0,3744,1.0,71.0
198,45.0,0,384,10.0,71.0
199,57.0,240,384,8.0,71.0
200,68.0,0,3744,7.0,71.0
201,80.0,0,3744,0.0,71.0
202,78.0,0,456,5.0,71.0
203,61.0,0,144,6.0,71.0
204,57.0,0,384,8.0,71.0
205,45.0,0,384,10.0,71.0
206,64.0,240,144,6.0,71.0
207,61.0,0,144,6.0,71.0
208,76.0,0,720,5.0,71.0
209,64.0,240,144,6.0,71.0
210,57.0,0,384,8.0,71.0
211,45.0,240,384,10.0,71.0
212,73.0,0,228,5.0,71.0
213,61.0,0,144,6.0,71.0
214,57.0,0,1152,1.0,62.0
215,61.0,0,1152,7.0,62.0
216,69.0,0,1152,1.0,62.0
217,73.0,0,1152,0.0,62.0
218,81.0,240,1152,0.0,62.0
219,69.0,0,1152,7.0,62.0
220,64.0,240,144,6.0,71.0
221,45.0,0,384,10.0,71.0
222,76.0,0,384,5.0,62.0
223,57.0,240,384,8.0,71.0
224,61.0,240,144,6.0,71.0
225,45.0,0,384,10.0,71.0
226,57.0,0,384,8.0,71.0
227,64.0,240,144,6.0,71.0
228,69.0,0,240,6.0,71.0
229,81.0,240,240,5.0,71.0
230,80.0,0,240,5.0,71.0
231,68.0,240,240,6.0,71.0
232,83.0,240,240,5.0,71.0
233,71.0,0,240,6.0,71.0
234,81.0,240,240,5.0,71.0
235,69.0,0,240,6.0,71.0
236,73.0,0,240,6.0,71.0
237,85.0,240,240,5.0,71.0
238,71.0,0,240,6.0,71.0
239,83.0,240,240,5.0,71.0
240,81.0,240,240,5.0,71.0
241,69.0,0,240,6.0,71.0
242,80.0,0,192,5.0,71.0
243,68.0,240,192,6.0,71.0
244,66.0,240,240,6.0,71.0
245,78.0,0,240,5.0,71.0
246,62.0,0,240,7.0,71.0
247,77.0,0,240,5.0,71.0
248,65.0,240,240,6.0,71.0
249,61.0,0,240,7.0,71.0
250,64.0,0,240,7.0,71.0
251,80.0,0,240,5.0,71.0
252,68.0,240,240,6.0,71.0
253,66.0,240,240,6.0,71.0
254,62.0,0,240,7.0,71.0
255,78.0,0,240,5.0,71.0
256,81.0,0,240,5.0,71.0
257,69.0,0,240,6.0,71.0
258,66.0,240,240,7.0,71.0
259,68.0,240,240,6.0,71.0
260,64.0,0,240,7.0,71.0
261,80.0,0,240,5.0,71.0
262,66.0,0,240,6.0,71.0
263,62.0,240,240,7.0,71.0
264,78.0,0,240,5.0,71.0
265,64.0,240,228,6.0,71.0
266,61.0,0,228,7.0,71.0
267,76.0,0,228,5.0,71.0
268,62.0,0,240,6.0,71.0
269,42.0,0,240,10.0,71.0
270,74.0,0,240,5.0,71.0
271,54.0,0,240,8.0,71.0
272,61.0,0,240,6.0,71.0
273,41.0,240,240,10.0,71.0
274,53.0,0,240,8.0,71.0
275,73.0,0,240,5.0,71.0
276,56.0,0,240,8.0,71.0
277,64.0,0,240,6.0,71.0
278,76.0,240,240,5.0,71.0
279,44.0,0,240,10.0,71.0
280,74.0,0,240,5.0,71.0
281,42.0,0,240,10.0,71.0
282,62.0,0,240,6.0,71.0
283,54.0,240,240,8.0,71.0
284,57.0,0,240,8.0,71.0
285,66.0,0,240,6.0,71.0
286,45.0,240,240,10.0,71.0
287,78.0,0,240,5.0,71.0
288,76.0,0,240,5.0,71.0
289,44.0,0,240,10.0,71.0
290,56.0,240,240,8.0,71.0
291,64.0,0,240,6.0,71.0
292,42.0,240,240,10.0,71.0
293,74.0,0,240,5.0,71.0
294,62.0,0,240,6.0,71.0
295,54.0,0,240,8.0,71.0
296,57.0,240,1824,7.0,62.0
297,69.0,0,1824,7.0,62.0
298,40.0,240,228,10.0,71.0
299,73.0,0,228,5.0,71.0
300,52.0,0,228,8.0,71.0
301,61.0,0,228,6.0,71.0
302,73.0,0,240,5.0,71.0
303,62.0,240,312,7.0,62.0
304,42.0,0,312,10.0,71.0
305,50.0,0,312,8.0,71.0
306,71.0,240,156,5.0,71.0
307,74.0,0,156,5.0,71.0
308,66.0,0,720,6.0,71.0
309,47.0,240,312,8.0,71.0
310,35.0,0,312,10.0,71.0
311,59.0,0,312,7.0,62.0
312,71.0,0,156,5.0,71.0
313,62.0,240,192,6.0,71.0
314,64.0,240,120,6.0,71.0
315,73.0,0,120,5.0,71.0
316,71.0,120,120,5.0,71.0
317,62.0,0,120,6.0,71.0
318,64.0,0,312,7.0,62.0
319,52.0,0,312,8.0,71.0
320,40.0,0,312,10.0,71.0
321,61.0,0,192,6.0,71.0
322,69.0,120,192,5.0,71.0
323,62.0,240,120,6.0,71.0
324,71.0,0,120,5.0,71.0
325,61.0,120,120,6.0,71.0
326,69.0,0,120,5.0,71.0
327,52.0,0,312,7.0,62.0
328,40.0,0,312,10.0,71.0
329,52.0,0,312,8.0,71.0
330,68.0,120,192,5.0,71.0
331,59.0,0,192,6.0,71.0
332,61.0,0,96,6.0,105.0
333,45.0,0,156,10.0,105.0
334,57.0,0,156,8.0,105.0
335,64.0,120,96,6.0,105.0
336,61.0,120,96,6.0,105.0
337,69.0,0,384,0.0,90.0
338,64.0,0,384,5.0,105.0
339,57.0,0,384,1.0,90.0
340,57.0,0,384,5.0,105.0
341,52.0,0,156,8.0,105.0
342,40.0,0,156,10.0,105.0
343,64.0,120,96,6.0,105.0
344,61.0,0,96,6.0,105.0
345,57.0,0,156,8.0,105.0
346,45.0,0,156,10.0,105.0
347,64.0,120,96,6.0,105.0
348,57.0,0,234,1.0,90.0
349,69.0,120,234,0.0,90.0
350,57.0,0,768,7.0,105.0
351,61.0,120,96,6.0,105.0
352,52.0,0,156,8.0,105.0
353,40.0,0,156,10.0,105.0
354,57.0,0,78,1.0,90.0
355,69.0,0,78,0.0,90.0
356,69.0,240,936,5.0,91.0
357,64.0,120,96,6.0,105.0
358,61.0,0,96,6.0,105.0
359,57.0,0,156,8.0,105.0
360,45.0,0,156,10.0,105.0
361,64.0,120,96,6.0,105.0
362,61.0,0,96,6.0,105.0
363,71.0,120,144,5.0,105.0
364,69.0,120,384,0.0,90.0
365,57.0,0,384,1.0,90.0
366,52.0,0,156,8.0,105.0
367,40.0,0,156,10.0,105.0
368,64.0,120,96,6.0,105.0
369,61.0,0,96,6.0,105.0
370,73.0,120,144,5.0,105.0
371,57.0,0,156,8.0,105.0
372,45.0,0,156,10.0,105.0
373,64.0,120,96,6.0,105.0
374,61.0,0,96,6.0,105.0
375,74.0,0,144,5.0,105.0
376,52.0,120,156,8.0,105.0
377,40.0,0,156,10.0,105.0
378,64.0,120,96,6.0,105.0
379,61.0,0,96,6.0,105.0
380,57.0,120,156,8.0,105.0
381,45.0,0,156,10.0,105.0
382,64.0,120,96,6.0,105.0
383,61.0,0,96,6.0,105.0
384,73.0,0,384,0.0,90.0
385,76.0,0,384,0.0,90.0
386,61.0,0,384,1.0,90.0
387,69.0,0,384,1.0,90.0
388,59.0,120,144,7.0,105.0
389,52.0,0,156,8.0,105.0
390,40.0,0,156,10.0,105.0
391,64.0,120,96,6.0,105.0
392,61.0,0,96,6.0,105.0
393,61.0,0,144,7.0,105.0
394,45.0,0,156,10.0,105.0
395,57.0,0,156,8.0,105.0
396,64.0,120,96,6.0,105.0
397,73.0,120,234,0.0,90.0
398,76.0,0,234,0.0,90.0
399,69.0,0,234,1.0,90.0
400,61.0,0,234,1.0,90.0
401,61.0,0,96,6.0,105.0
402,62.0,0,144,7.0,105.0
403,52.0,0,156,8.0,105.0
404,40.0,120,156,10.0,105.0
405,76.0,0,912,5.0,105.0
406,73.0,0,78,0.0,90.0
407,61.0,0,78,1.0,90.0
408,76.0,0,78,0.0,90.0
409,69.0,0,78,1.0,90.0
410,64.0,120,96,6.0,105.0
411,61.0,0,96,6.0,105.0
412,45.0,0,156,10.0,105.0
413,57.0,0,156,8.0,105.0
414,64.0,120,96,6.0,105.0
415,61.0,0,96,6.0,105.0
416,73.0,0,384,0.0,90.0
417,76.0,0,384,0.0,90.0
418,61.0,0,384,1.0,90.0
419,69.0,120,384,1.0,90.0
420,78.0,0,144,5.0,105.0
421,40.0,0,156,10.0,105.0
422,52.0,120,156,8.0,105.0
423,64.0,120,96,6.0,105.0
424,61.0,0,96,6.0,105.0
425,80.0,120,144,5.0,105.0
426,45.0,0,156,10.0,105.0
427,57.0,0,156,8.0,105.0
428,64.0,120,96,6.0,105.0
429,61.0,120,96,6.0,105.0
430,81.0,0,144,5.0,105.0
431,40.0,0,156,10.0,105.0
432,52.0,0,156,8.0,105.0
433,64.0,0,912,7.0,105.0
434,64.0,120,96,6.0,105.0
435,62.0,0,96,6.0,105.0
436,56.0,0,156,8.0,105.0
437,44.0,0,156,10.0,105.0
438,64.0,120,96,6.0,105.0
439,62.0,0,96,6.0,105.0
440,74.0,120,384,0.0,90.0
441,71.0,0,384,1.0,90.0
442,64.0,0,384,1.0,90.0
443,66.0,0,144,7.0,105.0
444,76.0,0,384,0.0,90.0
445,40.0,120,156,10.0,105.0
446,52.0,0,156,8.0,105.0
447,64.0,120,96,6.0,105.0
448,62.0,0,96,6.0,105.0
449,68.0,0,144,7.0,105.0
450,44.0,0,156,10.0,105.0
451,56.0,0,156,8.0,105.0
452,64.0,120,96,6.0,105.0
453,71.0,0,234,1.0,90.0
454,74.0,0,234,0.0,90.0
455,64.0,0,234,1.0,90.0
456,76.0,120,234,0.0,90.0
457,62.0,0,96,6.0,105.0
458,69.0,120,144,7.0,105.0
459,40.0,0,156,10.0,105.0
460,52.0,0,156,8.0,105.0
461,83.0,0,912,5.0,105.0
462,71.0,0,78,1.0,90.0
463,64.0,0,78,1.0,90.0
464,74.0,0,78,0.0,90.0
465,76.0,120,78,0.0,90.0
466,64.0,0,96,6.0,105.0
467,62.0,0,96,6.0,105.0
468,56.0,0,156,8.0,105.0
469,44.0,0,156,10.0,105.0
470,64.0,120,96,6.0,62.0
471,62.0,0,96,6.0,62.0
472,76.0,0,384,0.0,90.0
473,74.0,0,384,0.0,90.0
474,71.0,0,384,1.0,90.0
475,64.0,0,384,1.0,90.0
476,40.0,120,156,10.0,105.0
477,52.0,0,156,8.0,62.0
478,64.0,120,96,6.0,62.0
479,85.0,0,240,5.0,71.0
480,62.0,0,96,6.0,62.0
481,56.0,120,156,8.0,62.0
482,44.0,0,156,10.0,62.0
483,64.0,120,96,6.0,62.0
484,86.0,0,240,5.0,71.0
485,62.0,0,96,6.0,62.0
486,52.0,120,156,8.0,62.0
487,40.0,0,156,10.0,62.0
488,71.0,120,912,7.0,105.0
489,64.0,120,96,6.0,62.0
490,83.0,0,240,5.0,71.0
491,62.0,0,96,6.0,62.0
492,59.0,0,156,8.0,62.0
493,47.0,0,156,10.0,62.0
494,64.0,120,96,6.0,62.0
495,81.0,120,240,5.0,71.0
496,62.0,0,96,6.0,62.0
497,80.0,0,144,5.0,71.0
498,40.0,0,156,10.0,62.0
499,52.0,120,156,8.0,62.0
500,64.0,120,96,6.0,62.0
501,62.0,0,96,6.0,62.0
502,78.0,0,144,5.0,71.0
503,47.0,0,156,10.0,62.0
504,59.0,120,156,8.0,62.0
505,64.0,120,96,6.0,62.0
506,62.0,0,96,6.0,62.0
507,76.0,0,144,5.0,71.0
508,52.0,120,156,8.0,62.0
509,40.0,0,156,10.0,62.0
510,64.0,120,96,6.0,62.0
511,56.0,0,480,7.0,62.0
512,62.0,0,96,6.0,62.0
513,56.0,0,156,8.0,62.0
514,44.0,120,156,10.0,62.0
515,64.0,120,96,6.0,62.0
516,76.0,0,240,5.0,71.0
517,62.0,0,96,6.0,62.0
518,74.0,0,144,5.0,71.0
519,40.0,120,156,10.0,62.0
520,52.0,0,156,8.0,62.0
521,64.0,120,96,6.0,62.0
522,59.0,0,480,7.0,62.0
523,62.0,0,96,6.0,62.0
524,73.0,0,144,5.0,71.0
525,44.0,120,156,10.0,62.0
526,56.0,0,156,8.0,62.0
527,64.0,120,96,6.0,62.0
528,62.0,120,96,6.0,62.0
529,71.0,0,144,5.0,71.0
530,40.0,0,156,10.0,62.0
531,52.0,0,156,8.0,62.0
532,64.0,120,96,6.0,62.0
533,56.0,0,480,7.0,62.0
534,61.0,0,96,6.0,105.0
535,45.0,0,156,10.0,105.0
536,57.0,0,156,8.0,105.0
537,64.0,120,96,6.0,105.0
538,61.0,0,96,6.0,105.0
539,57.0,0,384,1.0,90.0
540,64.0,0,384,5.0,105.0
541,69.0,120,384,0.0,90.0
542,57.0,0,384,5.0,105.0
543,52.0,120,156,8.0,105.0
544,40.0,0,156,10.0,105.0
545,64.0,120,96,6.0,105.0
546,61.0,0,96,6.0,105.0
547,57.0,120,156,8.0,105.0
548,45.0,0,156,10.0,105.0
549,64.0,120,96,6.0,105.0
550,57.0,0,234,1.0,90.0
551,69.0,0,234,0.0,90.0
552,57.0,0,768,7.0,105.0
553,61.0,120,96,6.0,105.0
554,52.0,0,156,8.0,105.0
555,40.0,0,156,10.0,105.0
556,57.0,120,78,1.0,90.0
557,69.0,0,78,0.0,90.0
558,69.0,0,936,5.0,91.0
559,64.0,0,96,6.0,105.0
560,61.0,120,96,6.0,105.0
561,45.0,0,156,10.0,105.0
562,57.0,0,156,8.0,105.0
563,64.0,120,96,6.0,105.0
564,61.0,0,96,6.0,105.0
565,57.0,0,384,1.0,90.0
566,71.0,120,144,5.0,105.0
567,69.0,0,384,0.0,90.0
568,52.0,0,156,8.0,105.0
569,40.0,0,156,10.0,105.0
570,64.0,120,96,6.0,105.0
571,61.0,0,96,6.0,105.0
572,73.0,120,144,5.0,105.0
573,57.0,0,156,8.0,105.0
574,45.0,0,156,10.0,105.0
575,64.0,120,96,6.0,105.0
576,61.0,0,96,6.0,105.0
577,74.0,0,144,5.0,105.0
578,52.0,0,156,8.0,105.0
579,40.0,120,156,10.0,105.0
580,64.0,120,96,6.0,105.0
581,61.0,0,96,6.0,105.0
582,57.0,120,156,8.0,105.0
583,45.0,0,156,10.0,105.0
584,64.0,120,96,6.0,105.0
585,61.0,120,96,6.0,105.0
586,69.0,0,384,1.0,90.0
587,59.0,0,144,7.0,105.0
588,76.0,0,384,0.0,90.0
589,61.0,0,384,1.0,90.0
590,73.0,0,384,0.0,90.0
591,52.0,0,156,8.0,105.0
592,40.0,0,156,10.0,105.0
593,64.0,120,96,6.0,105.0
594,61.0,0,96,6.0,105.0
595,61.0,0,144,7.0,105.0
596,57.0,0,156,8.0,105.0
597,45.0,0,156,10.0,105.0
598,64.0,120,96,6.0,105.0
599,61.0,120,234,1.0,90.0
600,69.0,0,234,1.0,90.0
601,73.0,0,234,0.0,90.0
602,76.0,0,234,0.0,90.0
603,61.0,0,96,6.0,105.0
604,62.0,0,144,7.0,105.0
605,52.0,120,156,8.0,105.0
606,40.0,0,156,10.0,105.0
607,76.0,0,912,5.0,105.0
608,76.0,0,78,0.0,90.0
609,61.0,120,78,1.0,90.0
610,69.0,0,78,1.0,90.0
611,73.0,0,78,0.0,90.0
612,64.0,0,96,6.0,105.0
613,61.0,0,96,6.0,105.0
614,57.0,120,156,8.0,105.0
615,45.0,0,156,10.0,105.0
616,64.0,120,96,6.0,105.0
617,61.0,0,96,6.0,105.0
618,73.0,0,384,0.0,90.0
619,78.0,0,144,5.0,105.0
620,76.0,0,384,0.0,90.0
621,61.0,0,384,1.0,90.0
622,69.0,0,384,1.0,90.0
623,52.0,120,156,8.0,105.0
624,40.0,0,156,10.0,105.0
625,64.0,120,96,6.0,105.0
626,61.0,120,96,6.0,105.0
627,80.0,0,144,5.0,105.0
628,45.0,0,156,10.0,105.0
629,57.0,0,156,8.0,105.0
630,64.0,120,96,6.0,105.0
631,61.0,0,96,6.0,105.0
632,81.0,120,144,5.0,105.0
633,52.0,0,156,8.0,105.0
634,40.0,0,156,10.0,105.0
635,64.0,0,912,7.0,105.0
636,64.0,120,96,6.0,105.0
637,62.0,0,96,6.0,105.0
638,56.0,0,156,8.0,105.0
639,44.0,120,156,10.0,105.0
640,64.0,120,96,6.0,105.0
641,62.0,0,96,6.0,105.0
642,76.0,0,384,0.0,90.0
643,71.0,0,384,1.0,90.0
644,74.0,0,384,0.0,90.0
645,64.0,0,384,1.0,90.0
646,66.0,0,144,7.0,105.0
647,52.0,120,156,8.0,105.0
648,40.0,0,156,10.0,105.0
649,64.0,120,96,6.0,105.0
650,62.0,0,96,6.0,105.0
651,68.0,0,144,7.0,105.0
652,44.0,120,156,10.0,105.0
653,56.0,0,156,8.0,105.0
654,64.0,120,96,6.0,105.0
655,76.0,0,234,0.0,90.0
656,64.0,0,234,1.0,90.0
657,74.0,0,234,0.0,90.0
658,71.0,0,234,1.0,90.0
659,62.0,0,96,6.0,105.0
660,69.0,0,144,7.0,105.0
661,40.0,0,156,10.0,105.0
662,52.0,120,156,8.0,105.0
663,83.0,0,912,5.0,105.0
664,71.0,0,78,1.0,90.0
665,76.0,0,78,0.0,90.0
666,74.0,0,78,0.0,90.0
667,64.0,0,78,1.0,90.0
668,64.0,120,96,6.0,105.0
669,62.0,0,96,6.0,105.0
670,56.0,120,156,8.0,105.0
671,44.0,0,156,10.0,105.0
672,64.0,120,96,6.0,62.0
673,62.0,0,96,6.0,62.0
674,76.0,0,384,0.0,90.0
675,74.0,0,384,0.0,90.0
676,71.0,0,384,1.0,90.0
677,64.0,0,384,1.0,90.0
678,52.0,120,156,8.0,62.0
679,40.0,0,156,10.0,62.0
680,64.0,120,96,6.0,62.0
681,85.0,0,240,5.0,71.0
682,62.0,0,96,6.0,62.0
683,44.0,0,156,10.0,62.0
684,56.0,0,156,8.0,62.0
685,64.0,120,96,6.0,62.0
686,86.0,120,240,5.0,71.0
687,62.0,120,96,6.0,62.0
688,40.0,0,156,10.0,62.0
689,52.0,0,156,8.0,62.0
690,71.0,0,912,7.0,71.0
691,64.0,120,96,6.0,62.0
692,83.0,0,240,5.0,71.0
693,62.0,120,96,6.0,62.0
694,59.0,0,156,8.0,62.0
695,47.0,0,156,10.0,62.0
696,64.0,120,96,6.0,62.0
697,81.0,0,240,5.0,71.0
698,62.0,0,96,6.0,62.0
699,80.0,0,144,5.0,71.0
700,40.0,120,156,10.0,62.0
701,52.0,0,156,8.0,62.0
702,64.0,120,96,6.0,62.0
703,62.0,0,96,6.0,62.0
704,78.0,120,144,5.0,71.0
705,47.0,0,156,10.0,62.0
706,59.0,0,156,8.0,62.0
707,64.0,120,96,6.0,62.0
708,62.0,120,96,6.0,62.0
709,76.0,0,144,5.0,71.0
710,52.0,0,156,8.0,62.0
711,40.0,0,156,10.0,62.0
712,64.0,120,96,6.0,62.0
713,56.0,0,480,7.0,62.0
714,62.0,0,96,6.0,62.0
715,44.0,120,156,10.0,62.0
716,56.0,0,156,8.0,62.0
717,64.0,120,96,6.0,62.0
718,76.0,0,240,5.0,71.0
719,62.0,0,96,6.0,62.0
720,74.0,0,144,5.0,71.0
721,52.0,120,156,8.0,62.0
722,40.0,0,156,10.0,62.0
723,64.0,120,96,6.0,62.0
724,59.0,0,480,7.0,62.0
725,62.0,0,96,6.0,62.0
726,73.0,0,144,5.0,71.0
727,44.0,0,156,10.0,62.0
728,56.0,120,156,8.0,62.0
729,64.0,120,96,6.0,62.0
730,62.0,120,96,6.0,62.0
731,71.0,0,144,5.0,71.0
732,52.0,0,156,8.0,62.0
733,40.0,0,156,10.0,62.0
734,64.0,120,96,6.0,62.0
735,56.0,0,480,7.0,62.0
736,69.0,0,156,5.0,105.0
737,61.0,120,192,6.0,105.0
738,45.0,0,312,10.0,105.0
739,57.0,0,312,8.0,105.0
740,57.0,0,312,7.0,105.0
741,69.0,0,384,5.0,105.0
742,85.0,240,384,5.0,105.0
743,76.0,0,384,6.0,105.0
744,73.0,0,480,7.0,105.0
745,57.0,0,480,8.0,125.0
746,45.0,240,480,10.0,125.0
747,81.0,0,384,5.0,105.0
748,73.0,240,384,6.0,105.0
749,69.0,0,384,5.0,105.0
750,56.0,0,312,8.0,105.0
751,71.0,0,312,7.0,105.0
752,44.0,240,312,10.0,105.0
753,76.0,0,384,6.0,105.0
754,69.0,240,384,5.0,105.0
755,85.0,0,384,5.0,105.0
756,56.0,0,480,8.0,125.0
757,59.0,0,480,7.0,105.0
758,44.0,240,480,10.0,125.0
759,73.0,240,432,6.0,105.0
760,81.0,0,432,5.0,105.0
761,69.0,0,432,5.0,105.0
762,42.0,0,312,10.0,105.0
763,57.0,240,312,7.0,105.0
764,54.0,0,312,8.0,105.0
765,69.0,0,384,5.0,105.0
766,85.0,0,384,5.0,105.0
767,81.0,240,384,6.0,105.0
768,42.0,0,480,10.0,125.0
769,69.0,0,480,7.0,105.0
770,54.0,240,480,8.0,125.0
771,81.0,0,384,5.0,105.0
772,73.0,0,384,6.0,105.0
773,69.0,240,384,5.0,105.0
774,68.0,0,312,7.0,105.0
775,52.0,0,312,8.0,105.0
776,40.0,240,312,10.0,105.0
777,81.0,0,384,6.0,105.0
778,69.0,240,384,5.0,105.0
779,85.0,0,384,5.0,105.0
780,73.0,0,3744,0.0,90.0
781,81.0,0,3744,0.0,90.0
782,57.0,0,3744,1.0,90.0
783,69.0,0,3744,1.0,90.0
784,56.0,240,408,7.0,105.0
785,40.0,0,480,10.0,125.0
786,73.0,240,240,6.0,105.0
787,52.0,0,480,8.0,125.0
788,81.0,0,396,5.0,105.0
789,69.0,0,396,5.0,105.0
790,71.0,0,156,6.0,71.0
791,81.0,0,156,5.0,71.0
792,78.0,240,156,6.0,71.0
793,78.0,0,240,6.0,71.0
794,81.0,240,240,5.0,71.0
795,80.0,240,156,5.0,71.0
796,76.0,0,156,6.0,71.0
797,54.0,0,960,7.0,71.0
798,50.0,0,960,8.0,71.0
799,38.0,240,960,10.0,71.0
800,76.0,0,240,6.0,71.0
801,80.0,240,240,5.0,71.0
802,74.0,240,156,6.0,71.0
803,78.0,0,156,5.0,71.0
804,78.0,0,240,5.0,71.0
805,74.0,240,240,6.0,71.0
806,73.0,0,156,6.0,71.0
807,76.0,240,156,5.0,71.0
808,56.0,0,912,7.0,71.0
809,40.0,0,912,10.0,71.0
810,52.0,0,912,8.0,71.0
811,73.0,0,240,6.0,71.0
812,76.0,0,240,5.0,71.0
813,57.0,0,312,7.0,71.0
814,71.0,240,156,6.0,71.0
815,74.0,0,156,5.0,71.0
816,42.0,240,480,10.0,71.0
817,54.0,0,480,8.0,71.0
818,74.0,0,156,5.0,71.0
819,71.0,0,156,6.0,71.0
820,74.0,240,156,5.0,71.0
821,71.0,0,156,6.0,71.0
822,44.0,240,480,10.0,71.0
823,56.0,0,480,8.0,71.0
824,71.0,0,240,6.0,71.0
825,74.0,240,240,5.0,71.0
826,73.0,240,156,5.0,71.0
827,69.0,0,156,6.0,71.0
828,45.0,0,480,10.0,71.0
829,57.0,0,480,8.0,71.0
830,64.0,0,960,7.0,71.0
831,73.0,0,156,5.0,71.0
832,69.0,240,156,6.0,71.0
833,69.0,0,156,6.0,71.0
834,73.0,240,156,5.0,71.0
835,50.0,0,480,8.0,71.0
836,66.0,0,480,7.0,71.0
837,38.0,0,480,10.0,71.0
838,52.0,240,384,8.0,62.0
839,40.0,0,384,10.0,62.0
840,68.0,0,384,6.0,62.0
841,71.0,0,384,5.0,71.0
842,59.0,0,384,7.0,62.0
843,81.0,0,120,5.0,105.0
844,81.0,480,120,6.0,105.0
845,80.0,0,78,6.0,105.0
846,80.0,120,78,5.0,105.0
847,78.0,0,78,6.0,105.0
848,78.0,120,78,5.0,105.0
849,76.0,0,78,5.0,105.0
850,76.0,120,78,6.0,105.0
851,81.0,0,384,5.0,105.0
852,81.0,120,384,6.0,105.0
853,74.0,0,120,6.0,105.0
854,74.0,480,120,5.0,105.0
855,73.0,0,78,5.0,105.0
856,73.0,120,78,6.0,105.0
857,71.0,120,78,6.0,105.0
858,71.0,0,78,5.0,105.0
859,69.0,0,78,5.0,105.0
860,69.0,120,78,6.0,105.0
861,76.0,120,384,5.0,105.0
862,76.0,0,384,6.0,105.0
863,69.0,480,120,6.0,105.0
864,57.0,0,120,8.0,105.0
865,69.0,0,120,5.0,105.0
866,81.0,0,120,0.0,90.0
867,45.0,0,120,10.0,105.0
868,69.0,0,120,7.0,90.0
869,68.0,0,78,6.0,105.0
870,68.0,0,78,5.0,105.0
871,68.0,0,78,7.0,90.0
872,56.0,120,96,8.0,105.0
873,80.0,0,96,0.0,90.0
874,44.0,0,96,10.0,105.0
875,64.0,0,288,1.0,90.0
876,66.0,0,78,6.0,105.0
877,66.0,0,78,7.0,90.0
878,66.0,120,78,5.0,105.0
879,42.0,0,96,10.0,105.0
880,78.0,0,96,0.0,90.0
881,54.0,0,96,8.0,105.0
882,64.0,120,78,7.0,90.0
883,64.0,0,78,6.0,105.0
884,64.0,0,78,5.0,105.0
885,40.0,0,96,10.0,105.0
886,76.0,0,96,0.0,90.0
887,64.0,0,96,1.0,90.0
888,52.0,0,96,8.0,105.0
889,57.0,0,384,8.0,105.0
890,45.0,0,384,10.0,105.0
891,64.0,120,384,1.0,90.0
892,69.0,0,384,6.0,105.0
893,81.0,0,384,0.0,90.0
894,69.0,0,384,7.0,90.0
895,69.0,0,384,5.0,105.0
896,50.0,0,120,8.0,105.0
897,38.0,0,120,10.0,105.0
898,74.0,0,120,0.0,90.0
899,62.0,480,120,7.0,90.0
900,62.0,0,120,6.0,105.0
901,62.0,0,120,5.0,105.0
902,61.0,0,78,5.0,105.0
903,61.0,0,78,6.0,105.0
904,61.0,0,78,7.0,90.0
905,49.0,0,96,8.0,105.0
906,37.0,120,96,10.0,105.0
907,73.0,0,96,0.0,90.0
908,59.0,120,78,6.0,105.0
909,59.0,0,78,7.0,90.0
910,59.0,0,78,5.0,105.0
911,35.0,0,96,10.0,105.0
912,71.0,0,96,0.0,90.0
913,47.0,0,96,8.0,105.0
914,64.0,0,384,1.0,90.0
915,57.0,0,78,5.0,105.0
916,57.0,0,78,7.0,90.0
917,57.0,120,78,6.0,105.0
918,45.0,0,96,8.0,105.0
919,69.0,0,96,0.0,90.0
920,33.0,0,96,10.0,105.0
921,52.0,120,684,8.0,105.0
922,40.0,0,684,10.0,105.0
923,64.0,0,684,6.0,105.0
924,64.0,0,684,5.0,105.0
925,64.0,0,684,7.0,90.0
926,64.0,0,768,1.0,90.0
927,76.0,0,768,0.0,90.0
928,44.0,0,96,10.0,105.0
929,68.0,0,96,7.0,90.0
930,68.0,0,96,6.0,105.0
931,68.0,720,96,5.0,105.0
932,56.0,0,96,8.0,105.0
933,59.0,0,96,8.0,105.0
934,47.0,120,96,10.0,105.0
935,71.0,0,96,7.0,90.0
936,71.0,0,96,5.0,105.0
937,71.0,0,96,6.0,105.0
938,76.0,0,312,7.0,90.0
939,64.0,0,312,8.0,105.0
940,76.0,0,312,5.0,105.0
941,52.0,0,312,10.0,105.0
942,76.0,0,312,6.0,105.0
943,64.0,0,384,1.0,90.0
944,80.0,120,384,0.0,90.0
945,52.0,0,312,10.0,105.0
946,71.0,0,312,6.0,90.0
947,80.0,0,312,6.0,90.0
948,64.0,0,312,6.0,90.0
949,71.0,0,312,5.0,90.0
950,64.0,0,312,5.0,90.0
951,80.0,0,312,5.0,90.0
952,76.0,0,312,7.0,90.0
953,64.0,0,312,8.0,105.0
954,64.0,0,384,1.0,90.0
955,83.0,480,384,0.0,90.0
956,64.0,480,384,1.0,90.0
957,76.0,0,384,0.0,90.0
958,64.0,0,384,7.0,90.0
959,71.0,0,384,5.0,90.0
960,76.0,0,384,5.0,90.0
961,64.0,0,384,5.0,90.0
962,40.0,0,384,10.0,105.0
963,64.0,0,384,6.0,90.0
964,71.0,0,384,6.0,90.0
965,76.0,0,384,6.0,90.0
966,52.0,0,384,8.0,105.0
967,76.0,0,480,5.0,71.0
968,64.0,1440,480,6.0,71.0
969,57.0,0,192,11.0,62.0
970,45.0,480,192,12.0,62.0
971,73.0,0,264,5.0,71.0
972,61.0,0,264,6.0,71.0
973,40.0,0,192,12.0,62.0
974,52.0,480,192,11.0,62.0
975,61.0,0,480,6.0,71.0
976,73.0,0,480,5.0,71.0
977,59.0,0,192,11.0,62.0
978,47.0,0,192,12.0,62.0
979,62.0,480,264,6.0,71.0
980,74.0,0,264,5.0,71.0
981,52.0,0,192,11.0,62.0
982,40.0,480,192,12.0,62.0
983,62.0,0,480,6.0,71.0
984,74.0,0,480,5.0,71.0
985,61.0,0,192,11.0,62.0
986,49.0,0,192,12.0,62.0
987,64.0,480,384,6.0,62.0
988,76.0,0,384,5.0,62.0
989,40.0,480,192,12.0,62.0
990,52.0,0,192,11.0,62.0
991,69.0,0,720,7.0,71.0
992,73.0,240,240,7.0,71.0
993,49.0,0,192,12.0,62.0
994,61.0,240,192,11.0,62.0
995,64.0,0,384,7.0,71.0
996,48.0,0,192,12.0,62.0
997,60.0,480,192,11.0,62.0
998,63.0,0,480,6.0,71.0
999,75.0,0,480,5.0,71.0
1000,61.0,0,192,11.0,62.0
1001,49.0,0,192,12.0,62.0
1002,76.0,0,384,5.0,62.0
1003,64.0,480,384,6.0,62.0
1004,40.0,480,192,12.0,62.0
1005,52.0,0,192,11.0,62.0
1006,69.0,0,720,7.0,71.0
1007,73.0,240,240,7.0,71.0
1008,61.0,0,192,11.0,62.0
1009,49.0,0,192,12.0,62.0
1010,64.0,240,384,7.0,71.0
1011,60.0,0,192,11.0,62.0
1012,48.0,0,192,12.0,62.0
1013,63.0,0,480,6.0,71.0
1014,75.0,480,480,5.0,71.0
1015,49.0,0,192,12.0,62.0
1016,61.0,0,192,11.0,62.0
1017,64.0,0,384,6.0,62.0
1018,76.0,480,384,5.0,62.0
1019,40.0,480,192,12.0,62.0
1020,52.0,0,192,11.0,62.0
1021,69.0,0,720,7.0,71.0
1022,73.0,240,240,7.0,71.0
1023,49.0,0,192,12.0,62.0
1024,61.0,0,192,11.0,62.0
1025,64.0,240,384,7.0,71.0
1026,66.0,0,120,6.0,71.0
1027,78.0,480,120,5.0,71.0
1028,57.0,0,192,11.0,62.0
1029,45.0,0,192,12.0,62.0
1030,64.0,120,120,6.0,71.0
1031,76.0,0,120,5.0,71.0
1032,62.0,120,120,6.0,71.0
1033,74.0,0,120,5.0,71.0
1034,61.0,120,120,6.0,71.0
1035,73.0,0,120,5.0,71.0
1036,44.0,0,192,12.0,62.0
1037,56.0,120,192,11.0,62.0
1038,71.0,0,264,5.0,71.0
1039,59.0,0,264,6.0,71.0
1040,40.0,0,192,12.0,62.0
1041,52.0,0,192,11.0,62.0
1042,59.0,0,480,6.0,71.0
1043,71.0,480,480,5.0,71.0
1044,57.0,480,192,11.0,62.0
1045,45.0,0,192,12.0,62.0
1046,61.0,0,264,6.0,71.0
1047,73.0,0,264,5.0,71.0
1048,52.0,0,192,11.0,62.0
1049,40.0,0,192,12.0,62.0
1050,73.0,0,480,5.0,71.0
1051,61.0,480,480,6.0,71.0
1052,59.0,0,192,11.0,62.0
1053,47.0,0,192,12.0,62.0
1054,74.0,480,384,5.0,62.0
1055,62.0,0,384,6.0,62.0
1056,52.0,480,192,11.0,62.0
1057,40.0,0,192,12.0,62.0
1058,68.0,0,720,7.0,71.0
1059,71.0,240,240,7.0,71.0
1060,59.0,240,192,11.0,62.0
1061,47.0,0,192,12.0,62.0
1062,62.0,0,384,7.0,71.0
1063,58.0,480,192,11.0,62.0
1064,46.0,0,192,12.0,62.0
1065,73.0,0,480,5.0,71.0
1066,61.0,0,480,6.0,71.0
1067,47.0,0,192,12.0,62.0
1068,59.0,0,192,11.0,62.0
1069,62.0,0,384,6.0,62.0
1070,74.0,0,384,5.0,62.0
1071,40.0,0,192,12.0,62.0
1072,52.0,480,192,11.0,62.0
1073,68.0,480,720,7.0,71.0
1074,71.0,240,240,7.0,71.0
1075,59.0,0,192,11.0,62.0
1076,47.0,0,192,12.0,62.0
1077,62.0,240,384,7.0,71.0
1078,46.0,480,192,12.0,62.0
1079,58.0,0,192,11.0,62.0
1080,85.0,0,480,5.0,71.0
1081,73.0,0,480,6.0,71.0
1082,47.0,0,192,12.0,62.0
1083,59.0,0,192,11.0,62.0
1084,86.0,480,384,5.0,62.0
1085,74.0,0,384,6.0,62.0
1086,40.0,480,192,12.0,62.0
1087,52.0,0,192,11.0,62.0
1088,68.0,0,720,7.0,71.0
1089,71.0,240,240,7.0,71.0
1090,40.0,0,192,12.0,62.0
1091,64.0,0,8832,1.0,62.0
1092,52.0,0,8832,1.0,62.0
1093,52.0,240,192,11.0,62.0
1094,62.0,0,384,7.0,62.0
1095,76.0,480,120,5.0,71.0
1096,74.0,120,120,5.0,71.0
1097,73.0,120,120,5.0,71.0
1098,62.0,0,480,6.0,62.0
1099,56.0,0,480,7.0,62.0
1100,71.0,120,120,5.0,71.0
1101,45.0,0,192,8.0,71.0
1102,69.0,0,192,5.0,62.0
1103,33.0,0,192,10.0,71.0
1104,61.0,0,384,6.0,62.0
1105,69.0,240,384,5.0,62.0
1106,45.0,240,192,10.0,71.0
1107,57.0,0,192,8.0,71.0
1108,57.0,0,940,7.0,71.0
1109,69.0,240,384,5.0,62.0
1110,33.0,240,192,10.0,71.0
1111,45.0,0,192,8.0,71.0
1112,78.0,0,120,6.0,80.0
1113,69.0,240,384,5.0,62.0
1114,57.0,240,192,8.0,71.0
1115,45.0,0,192,10.0,71.0
1116,76.0,120,120,6.0,80.0
1117,74.0,0,120,6.0,80.0
1118,69.0,120,192,5.0,62.0
1119,61.0,0,940,7.0,71.0
1120,73.0,120,120,6.0,80.0
1121,45.0,0,192,8.0,71.0
1122,71.0,0,192,6.0,71.0
1123,33.0,120,192,10.0,71.0
1124,71.0,240,384,6.0,71.0
1125,57.0,240,192,8.0,71.0
1126,45.0,0,192,10.0,71.0
1127,69.0,0,2860,0.0,62.0
1128,69.0,0,960,5.0,62.0
1129,71.0,240,384,6.0,71.0
1130,33.0,0,192,10.0,71.0
1131,45.0,0,192,8.0,71.0
1132,67.0,0,384,5.0,62.0
1133,79.0,0,120,5.0,71.0
1134,71.0,240,384,6.0,71.0
1135,45.0,240,192,10.0,71.0
1136,57.0,0,192,8.0,71.0
1137,78.0,120,120,5.0,71.0
1138,76.0,120,120,5.0,71.0
1139,71.0,0,192,6.0,71.0
1140,62.0,0,1882,7.0,71.0
1141,67.0,240,940,0.0,62.0
1142,74.0,120,120,5.0,71.0
1143,45.0,0,192,8.0,71.0
1144,33.0,0,192,10.0,71.0
1145,73.0,0,192,5.0,62.0
1146,73.0,240,384,5.0,62.0
1147,57.0,240,192,8.0,71.0
1148,45.0,0,192,10.0,71.0
1149,71.0,0,2860,0.0,62.0
1150,71.0,0,960,6.0,71.0
1151,73.0,240,384,5.0,62.0
1152,33.0,0,192,10.0,71.0
1153,45.0,0,192,8.0,71.0
1154,69.0,0,384,6.0,71.0
1155,81.0,0,120,6.0,80.0
1156,73.0,240,384,5.0,62.0
1157,45.0,0,192,10.0,71.0
1158,57.0,240,192,8.0,71.0
1159,79.0,120,120,6.0,80.0
1160,78.0,120,120,6.0,80.0
1161,73.0,0,192,5.0,62.0
1162,64.0,0,1882,7.0,71.0
1163,69.0,240,940,0.0,62.0
1164,76.0,120,120,6.0,80.0
1165,45.0,0,192,8.0,71.0
1166,33.0,0,192,10.0,71.0
1167,74.0,0,192,6.0,71.0
1168,74.0,240,384,6.0,71.0
1169,45.0,240,192,10.0,71.0
1170,57.0,0,192,8.0,71.0
1171,73.0,120,2860,0.0,62.0
1172,73.0,0,960,5.0,62.0
1173,74.0,240,384,6.0,71.0
1174,45.0,0,192,8.0,71.0
1175,33.0,240,192,10.0,71.0
1176,71.0,0,384,5.0,62.0
1177,83.0,0,120,5.0,71.0
1178,74.0,240,384,6.0,71.0
1179,45.0,0,192,10.0,71.0
1180,57.0,240,192,8.0,71.0
1181,81.0,120,120,5.0,71.0
1182,79.0,0,120,5.0,71.0
1183,74.0,120,192,6.0,71.0
1184,66.0,120,1882,7.0,71.0
1185,71.0,0,940,0.0,62.0
1186,78.0,120,120,5.0,71.0
1187,45.0,0,192,8.0,71.0
1188,33.0,0,192,10.0,71.0
1189,76.0,0,192,5.0,62.0
1190,76.0,240,384,5.0,62.0
1191,57.0,240,192,8.0,71.0
1192,45.0,0,192,10.0,71.0
1193,74.0,0,2860,0.0,62.0
1194,74.0,0,960,6.0,71.0
1195,76.0,240,384,5.0,71.0
1196,45.0,0,192,8.0,71.0
1197,33.0,0,192,10.0,71.0
1198,73.0,240,384,6.0,71.0
1199,69.0,0,9216,1.0,62.0
1200,57.0,120,9216,1.0,62.0
1201,85.0,0,120,6.0,80.0
1202,76.0,240,384,5.0,71.0
1203,45.0,0,192,10.0,71.0
1204,57.0,240,192,8.0,71.0
1205,83.0,120,120,6.0,80.0
1206,81.0,0,120,6.0,80.0
1207,76.0,120,192,5.0,71.0
1208,67.0,0,1882,7.0,71.0
1209,73.0,0,940,0.0,62.0
1210,79.0,120,120,6.0,80.0
1211,45.0,120,192,8.0,71.0
1212,33.0,0,192,10.0,70.0
1213,78.0,0,192,6.0,80.0
1214,78.0,240,384,6.0,80.0
1215,45.0,0,192,10.0,73.0
1216,57.0,240,192,8.0,73.0
1217,76.0,0,768,5.0,80.0
1218,76.0,120,2860,0.0,62.0
1219,78.0,240,384,6.0,80.0
1220,45.0,0,192,8.0,77.0
1221,33.0,0,192,10.0,76.0
1222,74.0,240,384,5.0,80.0
1223,86.0,0,120,5.0,90.0
1224,78.0,240,384,6.0,90.0
1225,57.0,240,192,8.0,81.0
1226,45.0,0,192,10.0,80.0
1227,85.0,120,120,5.0,90.0
1228,83.0,0,120,5.0,90.0
1229,78.0,120,192,6.0,90.0
1230,69.0,0,1882,7.0,80.0
1231,78.0,0,1900,0.0,71.0
1232,74.0,0,940,0.0,71.0
1233,81.0,120,120,5.0,90.0
1234,45.0,120,156,8.0,80.0
1235,33.0,0,156,10.0,80.0
1236,71.0,0,192,7.0,90.0
1237,80.0,0,192,5.0,91.0
1238,74.0,0,192,6.0,87.0
1239,33.0,0,156,10.0,83.0
1240,45.0,240,156,8.0,79.0
1241,71.0,0,384,7.0,92.0
1242,74.0,0,384,6.0,89.0
1243,80.0,0,384,5.0,94.0
1244,45.0,0,156,8.0,83.0
1245,33.0,240,156,10.0,86.0
1246,33.0,240,156,10.0,90.0
1247,45.0,0,156,8.0,88.0
1248,80.0,0,384,5.0,101.0
1249,74.0,0,384,6.0,93.0
1250,71.0,0,384,7.0,94.0
1251,45.0,0,156,8.0,92.0
1252,33.0,240,156,10.0,93.0
1253,33.0,0,156,10.0,97.0
1254,45.0,0,156,8.0,96.0
1255,71.0,240,384,7.0,96.0
1256,80.0,0,384,5.0,107.0
1257,74.0,0,384,6.0,98.0
1258,33.0,0,156,10.0,100.0
1259,45.0,240,156,8.0,101.0
1260,33.0,0,156,10.0,104.0
1261,45.0,0,156,8.0,105.0
1262,80.0,0,192,5.0,114.0
1263,71.0,240,192,7.0,105.0
1264,74.0,0,192,6.0,103.0
1265,80.0,0,1882,0.0,80.0
1266,86.0,0,1882,0.0,80.0
1267,45.0,0,156,8.0,105.0
1268,33.0,0,156,10.0,105.0
1269,81.0,0,156,5.0,105.0
1270,69.0,0,192,7.0,105.0
1271,73.0,240,312,6.0,105.0
1272,85.0,0,78,5.0,105.0
1273,69.0,0,4224,1.0,71.0
1274,85.0,0,384,0.0,90.0
1275,81.0,0,384,0.0,90.0
1276,57.0,0,4224,1.0,71.0
1277,33.0,0,156,10.0,105.0
1278,45.0,0,156,8.0,105.0
1279,81.0,120,78,5.0,105.0
1280,69.0,240,384,7.0,105.0
1281,37.0,0,156,10.0,105.0
1282,76.0,0,156,6.0,105.0
1283,49.0,120,156,8.0,105.0
1284,76.0,0,156,5.0,105.0
1285,69.0,0,288,1.0,90.0
1286,57.0,0,288,1.0,90.0
1287,76.0,0,384,0.0,90.0
1288,81.0,0,384,0.0,90.0
1289,76.0,0,156,6.0,105.0
1290,49.0,0,156,8.0,105.0
1291,76.0,240,156,5.0,105.0
1292,37.0,0,156,10.0,105.0
1293,69.0,0,96,1.0,90.0
1294,57.0,120,96,1.0,90.0
1295,69.0,0,384,7.0,105.0
1296,38.0,0,156,10.0,105.0
1297,50.0,0,156,8.0,105.0
1298,78.0,120,156,5.0,105.0
1299,78.0,0,156,6.0,105.0
1300,81.0,0,78,6.0,105.0
1301,81.0,0,78,5.0,105.0
1302,74.0,0,384,0.0,90.0
1303,78.0,0,384,0.0,90.0
1304,69.0,0,384,1.0,90.0
1305,57.0,0,384,1.0,90.0
1306,50.0,0,156,8.0,105.0
1307,38.0,0,156,10.0,105.0
1308,78.0,0,78,5.0,105.0
1309,78.0,120,78,6.0,105.0
1310,69.0,240,384,7.0,105.0
1311,74.0,0,156,6.0,105.0
1312,42.0,0,156,10.0,105.0
1313,74.0,0,156,5.0,105.0
1314,54.0,0,156,8.0,105.0
1315,74.0,0,384,0.0,90.0
1316,69.0,0,384,0.0,90.0
1317,69.0,0,384,1.0,90.0
1318,57.0,120,384,1.0,90.0
1319,54.0,240,156,8.0,105.0
1320,74.0,0,156,6.0,105.0
1321,42.0,0,156,10.0,105.0
1322,74.0,0,156,5.0,105.0
1323,52.0,0,156,8.0,105.0
1324,73.0,0,156,6.0,105.0
1325,73.0,0,156,5.0,105.0
1326,40.0,0,156,10.0,105.0
1327,69.0,0,432,7.0,105.0
1328,76.0,0,78,5.0,105.0
1329,76.0,0,78,6.0,105.0
1330,69.0,240,384,0.0,90.0
1331,73.0,0,384,0.0,90.0
1332,64.0,0,384,1.0,90.0
1333,52.0,0,156,10.0,105.0
1334,64.0,240,156,8.0,105.0
1335,73.0,0,78,5.0,105.0
1336,73.0,120,78,6.0,105.0
1337,61.0,0,384,7.0,105.0
1338,69.0,0,156,5.0,105.0
1339,61.0,120,156,8.0,105.0
1340,49.0,0,156,10.0,105.0
1341,69.0,0,156,6.0,105.0
1342,64.0,0,288,1.0,90.0
1343,69.0,0,288,0.0,90.0
1344,73.0,0,288,0.0,90.0
1345,73.0,0,156,5.0,105.0
1346,73.0,0,156,6.0,105.0
1347,57.0,0,156,8.0,105.0
1348,45.0,0,156,10.0,105.0
1349,69.0,120,96,0.0,90.0
1350,64.0,0,96,1.0,90.0
1351,73.0,0,96,0.0,90.0
1352,64.0,240,384,7.0,105.0
1353,52.0,0,312,8.0,105.0
1354,76.0,0,312,6.0,105.0
1355,76.0,0,312,5.0,105.0
1356,40.0,120,312,10.0,105.0
1357,64.0,0,384,1.0,90.0
1358,71.0,0,384,0.0,90.0
1359,68.0,0,384,0.0,90.0
1360,62.0,240,384,7.0,105.0
1361,68.0,0,288,0.0,90.0
1362,64.0,240,288,1.0,90.0
1363,71.0,0,288,0.0,90.0
1364,52.0,0,312,8.0,105.0
1365,59.0,0,312,6.0,105.0
1366,68.0,0,312,6.0,105.0
1367,59.0,0,312,5.0,105.0
1368,40.0,0,312,10.0,105.0
1369,68.0,0,312,5.0,105.0
1370,59.0,240,192,7.0,105.0
1371,64.0,0,96,1.0,90.0
1372,68.0,0,96,0.0,90.0
1373,71.0,120,96,0.0,90.0
1374,69.0,0,384,0.0,90.0
1375,69.0,0,384,6.0,90.0
1376,64.0,120,384,6.0,90.0
1377,57.0,0,384,6.0,90.0
1378,61.0,0,384,1.0,90.0
1379,64.0,0,384,5.0,90.0
1380,57.0,0,384,5.0,90.0
1381,33.0,0,384,10.0,105.0
1382,45.0,0,384,8.0,105.0
1383,64.0,0,384,1.0,90.0
1384,69.0,0,384,5.0,90.0
1385,61.0,0,384,7.0,80.0
1386,76.0,720,240,5.0,80.0
1387,75.0,240,240,5.0,80.0
1388,78.0,240,240,5.0,80.0
1389,76.0,240,240,5.0,80.0
1390,73.0,240,240,5.0,80.0
1391,64.0,240,144,6.0,71.0
1392,69.0,0,264,5.0,71.0
1393,64.0,240,144,6.0,71.0
1394,64.0,0,144,6.0,71.0
1395,64.0,240,144,6.0,71.0
1396,61.0,0,912,7.0,71.0
1397,45.0,0,480,10.0,71.0
1398,69.0,240,480,5.0,71.0
1399,57.0,0,480,8.0,71.0
1400,64.0,240,144,6.0,71.0
1401,71.0,0,264,5.0,71.0
1402,56.0,0,288,8.0,71.0
1403,44.0,0,288,10.0,71.0
1404,64.0,240,144,6.0,71.0
1405,64.0,0,144,6.0,71.0
1406,62.0,0,720,7.0,71.0
1407,52.0,0,288,8.0,71.0
1408,40.0,240,288,10.0,71.0
1409,64.0,240,144,6.0,71.0
1410,59.0,0,228,7.0,71.0
1411,71.0,0,480,5.0,71.0
1412,64.0,0,144,6.0,71.0
1413,73.0,240,264,5.0,71.0
1414,45.0,0,288,10.0,71.0
1415,57.0,0,288,8.0,71.0
1416,57.0,0,312,7.0,71.0
1417,69.0,240,144,6.0,71.0
1418,69.0,0,144,6.0,71.0
1419,69.0,240,144,6.0,71.0
1420,64.0,240,480,7.0,71.0
1421,43.0,0,480,10.0,71.0
1422,73.0,0,480,5.0,71.0
1423,55.0,0,480,8.0,71.0
1424,69.0,240,144,6.0,71.0
1425,74.0,0,264,5.0,71.0
1426,42.0,0,288,10.0,71.0
1427,54.0,0,288,8.0,71.0
1428,69.0,240,144,6.0,71.0
1429,62.0,0,480,7.0,71.0
1430,69.0,240,144,6.0,71.0
1431,38.0,0,288,10.0,71.0
1432,50.0,0,288,8.0,71.0
1433,74.0,0,384,5.0,71.0
1434,69.0,240,144,6.0,71.0
1435,66.0,0,480,7.0,71.0
1436,78.0,0,240,5.0,71.0
1437,37.0,0,312,10.0,71.0
1438,49.0,240,312,8.0,71.0
1439,76.0,240,240,5.0,71.0
1440,74.0,240,240,5.0,71.0
1441,45.0,0,312,8.0,71.0
1442,33.0,0,312,10.0,71.0
1443,73.0,240,236,5.0,71.0
1444,64.0,0,960,7.0,71.0
1445,69.0,0,1152,6.0,71.0
1446,73.0,0,240,5.0,71.0
1447,38.0,0,312,10.0,71.0
1448,50.0,240,312,8.0,71.0
1449,71.0,240,240,5.0,71.0
1450,63.0,0,192,6.0,71.0
1451,73.0,0,240,5.0,71.0
1452,54.0,240,312,8.0,71.0
1453,42.0,0,312,10.0,71.0
1454,66.0,240,192,6.0,71.0
1455,66.0,0,940,7.0,71.0
1456,69.0,0,240,5.0,71.0
1457,73.0,240,480,5.0,71.0
1458,69.0,0,480,6.0,71.0
1459,71.0,480,156,5.0,71.0
1460,68.0,0,156,6.0,71.0
1461,52.0,0,768,8.0,71.0
1462,64.0,0,768,7.0,71.0
1463,40.0,0,768,10.0,71.0
1464,76.0,240,240,5.0,71.0
1465,64.0,0,240,6.0,71.0
1466,63.0,0,240,6.0,71.0
1467,75.0,240,240,5.0,71.0
1468,66.0,0,240,6.0,71.0
1469,78.0,240,240,5.0,71.0
1470,76.0,0,240,5.0,71.0
1471,64.0,240,240,6.0,71.0
1472,73.0,240,240,5.0,71.0
1473,61.0,0,240,6.0,71.0
1474,61.0,0,144,7.0,71.0
1475,57.0,240,264,6.0,71.0
1476,69.0,0,264,5.0,71.0
1477,64.0,240,144,7.0,71.0
1478,61.0,0,144,7.0,71.0
1479,64.0,240,144,7.0,71.0
1480,45.0,240,480,10.0,71.0
1481,57.0,0,480,8.0,71.0
1482,69.0,0,480,5.0,71.0
1483,57.0,0,480,6.0,71.0
1484,62.0,0,144,7.0,71.0
1485,59.0,0,264,6.0,71.0
1486,71.0,0,264,5.0,71.0
1487,44.0,0,312,10.0,71.0
1488,56.0,240,312,8.0,71.0
1489,64.0,240,144,7.0,71.0
1490,62.0,0,144,7.0,71.0
1491,40.0,240,312,10.0,71.0
1492,52.0,0,312,8.0,71.0
1493,64.0,240,144,7.0,71.0
1494,59.0,0,480,6.0,71.0
1495,71.0,0,480,5.0,71.0
1496,61.0,0,144,7.0,71.0
1497,73.0,0,264,5.0,71.0
1498,61.0,0,264,6.0,71.0
1499,57.0,0,312,8.0,71.0
1500,45.0,240,312,10.0,71.0
1501,69.0,240,144,7.0,71.0
1502,61.0,0,144,7.0,71.0
1503,69.0,240,144,7.0,71.0
1504,61.0,0,480,6.0,71.0
1505,73.0,0,480,5.0,71.0
1506,43.0,0,480,10.0,71.0
1507,55.0,240,480,8.0,71.0
1508,66.0,0,144,7.0,71.0
1509,62.0,0,264,6.0,71.0
1510,74.0,0,264,5.0,71.0
1511,54.0,0,312,8.0,71.0
1512,42.0,240,312,10.0,71.0
1513,69.0,240,144,7.0,71.0
1514,66.0,0,144,7.0,71.0
1515,38.0,0,312,10.0,71.0
1516,50.0,240,312,8.0,71.0
1517,69.0,240,144,7.0,71.0
1518,62.0,0,480,6.0,71.0
1519,74.0,0,480,5.0,71.0
1520,78.0,0,240,5.0,71.0
1521,62.0,0,240,7.0,71.0
1522,66.0,0,240,6.0,71.0
1523,40.0,240,312,10.0,71.0
1524,52.0,0,312,8.0,71.0
1525,61.0,0,144,7.0,71.0
1526,64.0,240,144,6.0,71.0
1527,76.0,0,144,5.0,71.0
1528,62.0,0,144,6.0,71.0
1529,59.0,0,144,7.0,71.0
1530,74.0,0,144,5.0,71.0
1531,52.0,240,312,8.0,71.0
1532,40.0,0,312,10.0,71.0
1533,73.0,240,144,5.0,71.0
1534,61.0,0,144,6.0,71.0
1535,57.0,0,144,7.0,71.0
1536,64.0,0,240,6.0,71.0
1537,73.0,240,240,5.0,71.0
1538,61.0,0,240,7.0,71.0
1539,52.0,0,312,8.0,71.0
1540,40.0,0,312,10.0,71.0
1541,59.0,0,144,7.0,71.0
1542,62.0,0,144,6.0,71.0
1543,71.0,240,144,5.0,71.0
1544,57.0,0,144,7.0,71.0
1545,61.0,0,144,6.0,71.0
1546,69.0,240,144,5.0,71.0
1547,52.0,0,312,8.0,71.0
1548,40.0,0,312,10.0,71.0
1549,56.0,0,144,7.0,71.0
1550,68.0,0,144,5.0,71.0
1551,59.0,240,144,6.0,71.0
1552,69.0,0,96,5.0,117.0
1553,64.0,120,96,5.0,117.0
1554,66.0,120,96,5.0,117.0
1555,57.0,240,384,7.0,105.0
1556,33.0,0,384,10.0,105.0
1557,61.0,0,384,6.0,105.0
1558,45.0,0,384,8.0,105.0
1559,68.0,120,96,5.0,117.0
1560,69.0,120,96,5.0,117.0
1561,71.0,120,96,5.0,117.0
1562,73.0,120,96,5.0,117.0
1563,74.0,120,96,5.0,117.0
1564,76.0,120,96,5.0,117.0
1565,78.0,120,96,5.0,117.0
1566,80.0,120,96,5.0,117.0
1567,81.0,120,96,5.0,117.0
1568,80.0,0,96,5.0,117.0
1569,40.0,120,144,10.0,105.0
1570,71.0,0,144,6.0,105.0
1571,52.0,0,144,8.0,105.0
1572,62.0,0,144,7.0,105.0
1573,71.0,0,156,1.0,90.0
1574,64.0,0,156,1.0,90.0
1575,80.0,0,156,0.0,90.0
1576,74.0,0,156,0.0,90.0
1577,78.0,120,96,5.0,117.0
1578,76.0,0,96,5.0,117.0
1579,68.0,0,144,6.0,105.0
1580,40.0,0,144,10.0,105.0
1581,59.0,0,144,7.0,105.0
1582,52.0,120,144,8.0,105.0
1583,80.0,0,156,0.0,90.0
1584,64.0,0,156,1.0,90.0
1585,71.0,0,156,1.0,90.0
1586,74.0,0,156,0.0,90.0
1587,74.0,120,96,5.0,117.0
1588,57.0,0,144,7.0,105.0
1589,69.0,0,144,6.0,105.0
1590,54.0,0,144,8.0,105.0
1591,42.0,0,144,10.0,105.0
1592,73.0,0,144,5.0,105.0
1593,57.0,0,156,1.0,90.0
1594,69.0,0,156,1.0,90.0
1595,81.0,120,156,0.0,90.0
1596,73.0,0,156,0.0,90.0
1597,57.0,0,144,7.0,105.0
1598,69.0,0,144,6.0,105.0
1599,54.0,0,144,8.0,105.0
1600,42.0,240,144,10.0,105.0
1601,73.0,0,144,5.0,105.0
1602,81.0,0,156,0.0,90.0
1603,69.0,0,156,1.0,90.0
1604,57.0,0,156,1.0,90.0
1605,73.0,0,156,0.0,90.0
1606,50.0,0,144,8.0,105.0
1607,69.0,0,144,6.0,105.0
1608,62.0,0,144,7.0,105.0
1609,38.0,0,144,10.0,105.0
1610,78.0,0,144,5.0,105.0
1611,57.0,0,156,1.0,90.0
1612,69.0,0,156,1.0,90.0
1613,78.0,0,156,0.0,90.0
1614,74.0,240,156,0.0,90.0
1615,38.0,240,144,10.0,105.0
1616,62.0,0,144,7.0,105.0
1617,50.0,0,144,8.0,105.0
1618,69.0,0,144,6.0,105.0
1619,78.0,0,144,5.0,105.0
1620,78.0,0,156,0.0,90.0
1621,74.0,0,156,0.0,90.0
1622,69.0,0,156,1.0,90.0
1623,57.0,0,156,1.0,90.0
1624,61.0,240,144,7.0,105.0
1625,40.0,0,144,10.0,105.0
1626,76.0,0,144,5.0,105.0
1627,52.0,0,144,8.0,105.0
1628,69.0,0,144,6.0,105.0
1629,76.0,0,156,0.0,90.0
1630,73.0,0,156,0.0,90.0
1631,69.0,0,156,1.0,90.0
1632,57.0,0,156,1.0,90.0
1633,40.0,0,144,10.0,105.0
1634,61.0,0,144,7.0,105.0
1635,69.0,240,144,6.0,105.0
1636,52.0,0,144,8.0,105.0
1637,76.0,0,144,5.0,105.0
1638,73.0,0,156,0.0,90.0
1639,76.0,0,156,0.0,90.0
1640,69.0,0,156,1.0,90.0
1641,57.0,0,156,1.0,90.0
1642,40.0,0,144,10.0,105.0
1643,62.0,0,144,6.0,105.0
1644,68.0,0,144,5.0,105.0
1645,52.0,240,144,8.0,105.0
1646,59.0,0,144,7.0,105.0
1647,74.0,0,156,0.0,90.0
1648,80.0,0,156,0.0,90.0
1649,71.0,0,156,1.0,90.0
1650,64.0,0,156,1.0,90.0
1651,52.0,0,144,8.0,105.0
1652,62.0,0,144,6.0,105.0
1653,68.0,0,144,5.0,105.0
1654,59.0,240,144,7.0,105.0
1655,40.0,0,144,10.0,105.0
1656,64.0,0,156,1.0,90.0
1657,71.0,0,156,1.0,90.0
1658,80.0,0,156,0.0,90.0
1659,74.0,0,156,0.0,90.0
1660,69.0,240,96,5.0,117.0
1661,64.0,120,96,5.0,117.0
1662,66.0,120,96,5.0,117.0
1663,33.0,0,384,10.0,105.0
1664,57.0,0,384,7.0,105.0
1665,61.0,0,384,6.0,105.0
1666,69.0,0,384,1.0,90.0
1667,73.0,0,384,0.0,90.0
1668,81.0,0,384,0.0,90.0
1669,45.0,0,384,8.0,105.0
1670,64.0,0,384,1.0,90.0
1671,68.0,120,96,5.0,117.0
1672,69.0,120,96,5.0,117.0
1673,71.0,120,96,5.0,117.0
1674,73.0,120,96,5.0,117.0
1675,74.0,120,96,5.0,117.0
1676,76.0,120,96,5.0,117.0
1677,78.0,120,96,5.0,117.0
1678,80.0,120,96,5.0,117.0
1679,81.0,120,96,5.0,117.0
1680,80.0,0,96,5.0,117.0
1681,40.0,0,144,10.0,105.0
1682,71.0,0,144,6.0,105.0
1683,52.0,0,144,8.0,105.0
1684,62.0,120,144,7.0,105.0
1685,74.0,0,156,0.0,90.0
1686,80.0,0,156,0.0,90.0
1687,64.0,0,156,1.0,90.0
1688,71.0,0,156,1.0,90.0
1689,78.0,120,96,5.0,117.0
1690,76.0,0,96,5.0,117.0
1691,40.0,120,144,10.0,105.0
1692,52.0,0,144,8.0,105.0
1693,59.0,0,144,7.0,105.0
1694,68.0,0,144,6.0,105.0
1695,64.0,0,156,1.0,90.0
1696,71.0,0,156,1.0,90.0
1697,74.0,0,156,0.0,90.0
1698,80.0,0,156,0.0,90.0
1699,74.0,120,96,5.0,117.0
1700,54.0,0,144,8.0,105.0
1701,73.0,120,144,5.0,105.0
1702,42.0,0,144,10.0,105.0
1703,69.0,0,144,6.0,105.0
1704,57.0,0,144,7.0,105.0
1705,81.0,0,156,0.0,90.0
1706,73.0,0,156,0.0,90.0
1707,69.0,0,156,1.0,90.0
1708,57.0,0,156,1.0,90.0
1709,69.0,0,144,6.0,105.0
1710,73.0,240,144,5.0,105.0
1711,54.0,0,144,8.0,105.0
1712,57.0,0,144,7.0,105.0
1713,42.0,0,144,10.0,105.0
1714,73.0,0,156,0.0,90.0
1715,57.0,0,156,1.0,90.0
1716,69.0,0,156,1.0,90.0
1717,81.0,0,156,0.0,90.0
1718,62.0,0,144,7.0,105.0
1719,78.0,0,144,5.0,105.0
1720,38.0,240,144,10.0,105.0
1721,50.0,0,144,8.0,105.0
1722,69.0,0,144,6.0,105.0
1723,69.0,0,156,1.0,90.0
1724,78.0,0,156,0.0,90.0
1725,57.0,0,156,1.0,90.0
1726,74.0,0,156,0.0,90.0
1727,50.0,0,144,8.0,105.0
1728,62.0,0,144,7.0,105.0
1729,38.0,0,144,10.0,105.0
1730,78.0,240,144,5.0,105.0
1731,69.0,0,144,6.0,105.0
1732,78.0,0,156,0.0,90.0
1733,57.0,0,156,1.0,90.0
1734,69.0,0,156,1.0,90.0
1735,74.0,0,156,0.0,90.0
1736,61.0,0,144,7.0,105.0
1737,52.0,0,144,8.0,105.0
1738,40.0,0,144,10.0,105.0
1739,76.0,240,144,5.0,105.0
1740,69.0,0,144,6.0,105.0
1741,69.0,0,156,1.0,90.0
1742,57.0,0,156,1.0,90.0
1743,73.0,0,156,0.0,90.0
1744,76.0,0,156,0.0,90.0
1745,61.0,0,144,7.0,105.0
1746,76.0,0,144,5.0,105.0
1747,52.0,240,144,8.0,105.0
1748,40.0,0,144,10.0,105.0
1749,69.0,0,144,6.0,105.0
1750,73.0,0,156,0.0,90.0
1751,76.0,0,156,0.0,90.0
1752,69.0,0,156,1.0,90.0
1753,57.0,0,156,1.0,90.0
1754,40.0,0,144,10.0,105.0
1755,52.0,0,144,8.0,105.0
1756,59.0,0,144,7.0,105.0
1757,68.0,0,144,5.0,105.0
1758,62.0,0,144,6.0,105.0
1759,80.0,0,156,0.0,90.0
1760,64.0,240,156,1.0,90.0
1761,71.0,0,156,1.0,90.0
1762,74.0,0,156,0.0,90.0
1763,52.0,0,144,8.0,105.0
1764,62.0,0,144,6.0,105.0
1765,68.0,0,144,5.0,105.0
1766,40.0,0,144,10.0,105.0
1767,59.0,240,144,7.0,105.0
1768,80.0,0,156,0.0,90.0
1769,71.0,0,156,1.0,90.0
1770,64.0,0,156,1.0,90.0
1771,74.0,0,156,0.0,90.0
1772,57.0,0,384,7.0,90.0
1773,69.0,0,384,5.0,105.0
1774,45.0,240,384,8.0,105.0
1775,61.0,0,384,6.0,105.0
1776,69.0,0,384,1.0,90.0
1777,64.0,0,384,1.0,90.0
1778,73.0,0,384,0.0,90.0
1779,33.0,0,384,10.0,105.0
1780,81.0,0,384,0.0,90.0
1781,76.0,0,120,6.0,105.0
1782,76.0,480,120,5.0,105.0
1783,73.0,120,78,6.0,105.0
1784,73.0,0,78,5.0,105.0
1785,76.0,0,78,6.0,105.0
1786,76.0,120,78,5.0,105.0
1787,73.0,0,78,6.0,105.0
1788,73.0,120,78,5.0,105.0
1789,81.0,0,384,5.0,105.0
1790,81.0,120,384,6.0,105.0
1791,76.0,0,120,5.0,105.0
1792,76.0,0,120,0.0,90.0
1793,64.0,480,120,7.0,90.0
1794,64.0,0,120,8.0,105.0
1795,52.0,0,120,10.0,105.0
1796,76.0,0,120,6.0,105.0
1797,73.0,120,78,0.0,90.0
1798,49.0,0,78,10.0,105.0
1799,73.0,0,78,6.0,105.0
1800,61.0,0,78,7.0,90.0
1801,73.0,0,78,5.0,105.0
1802,61.0,0,78,8.0,105.0
1803,64.0,0,288,1.0,90.0
1804,76.0,120,78,5.0,105.0
1805,52.0,0,78,10.0,105.0
1806,76.0,0,78,6.0,105.0
1807,64.0,0,78,7.0,90.0
1808,76.0,0,78,0.0,90.0
1809,64.0,0,78,8.0,105.0
1810,61.0,0,78,8.0,105.0
1811,73.0,0,78,5.0,105.0
1812,61.0,0,78,7.0,90.0
1813,49.0,0,78,10.0,105.0
1814,73.0,120,78,6.0,105.0
1815,73.0,0,78,0.0,90.0
1816,61.0,0,96,1.0,90.0
1817,69.0,0,384,6.0,105.0
1818,69.0,0,384,0.0,90.0
1819,69.0,120,384,5.0,105.0
1820,57.0,0,384,1.0,90.0
1821,45.0,0,384,10.0,105.0
1822,57.0,0,384,8.0,105.0
1823,57.0,0,384,7.0,90.0
1824,57.0,0,288,6.0,105.0
1825,69.0,0,288,0.0,90.0
1826,33.0,0,288,10.0,105.0
1827,45.0,0,288,8.0,105.0
1828,57.0,0,288,7.0,90.0
1829,57.0,480,288,5.0,105.0
1830,57.0,0,288,1.0,90.0
1831,69.0,0,96,0.0,90.0
1832,57.0,0,96,6.0,105.0
1833,57.0,0,96,7.0,90.0
1834,57.0,360,96,1.0,90.0
1835,45.0,0,96,8.0,105.0
1836,33.0,0,96,10.0,105.0
1837,57.0,0,96,5.0,105.0
1838,69.0,120,384,0.0,90.0
1839,33.0,0,384,10.0,105.0
1840,45.0,0,384,8.0,105.0
1841,57.0,0,384,1.0,90.0
1842,57.0,0,384,7.0,90.0
1843,57.0,0,384,6.0,105.0
1844,57.0,0,384,5.0,105.0
1845,57.0,960,240,3.0,71.0
1846,69.0,0,312,2.0,90.0
1847,64.0,240,240,3.0,71.0
1848,61.0,0,240,3.0,71.0
1849,64.0,240,192,3.0,71.0
1850,69.0,240,480,2.0,90.0
1851,57.0,0,240,3.0,71.0
1852,64.0,240,240,3.0,71.0
1853,73.0,240,480,2.0,90.0
1854,61.0,240,240,3.0,71.0
1855,64.0,240,192,3.0,71.0
1856,76.0,0,480,2.0,90.0
1857,76.0,240,120,2.0,90.0
1858,57.0,0,240,3.0,71.0
1859,74.0,120,288,2.0,90.0
1860,62.0,120,240,3.0,71.0
1861,73.0,240,120,2.0,90.0
1862,59.0,0,240,3.0,71.0
1863,71.0,120,288,2.0,90.0
1864,62.0,120,192,3.0,71.0
1865,69.0,0,120,2.0,90.0
1866,57.0,240,240,3.0,71.0
1867,68.0,120,288,2.0,90.0
1868,62.0,120,240,3.0,71.0
1869,66.0,240,120,2.0,90.0
1870,59.0,0,240,3.0,71.0
1871,64.0,120,288,2.0,90.0
1872,62.0,120,192,3.0,71.0
1873,57.0,240,240,3.0,71.0
1874,71.0,0,384,2.0,90.0
1875,68.0,240,240,3.0,71.0
1876,62.0,240,240,3.0,71.0
1877,68.0,240,192,3.0,71.0
1878,71.0,0,480,2.0,90.0
1879,57.0,0,192,3.0,71.0
1880,68.0,240,192,3.0,71.0
1881,74.0,240,480,2.0,90.0
1882,62.0,0,192,3.0,71.0
1883,68.0,240,192,3.0,71.0
1884,78.0,240,480,2.0,90.0
1885,57.0,0,240,3.0,71.0
1886,69.0,240,240,3.0,71.0
1887,76.0,240,720,2.0,90.0
1888,61.0,240,240,3.0,71.0
1889,69.0,0,192,3.0,71.0
1890,73.0,240,240,2.0,90.0
1891,57.0,0,240,3.0,71.0
1892,76.0,240,384,2.0,80.0
1893,69.0,240,240,3.0,71.0
1894,61.0,240,240,3.0,71.0
1895,69.0,240,192,3.0,71.0
1896,69.0,240,312,2.0,90.0
1897,69.0,0,768,2.0,90.0
1898,81.0,480,768,2.0,90.0
1899,49.0,480,912,3.0,71.0
1900,37.0,0,912,3.0,71.0
1901,80.0,0,864,2.0,90.0
1902,68.0,480,864,2.0,90.0
1903,38.0,480,912,3.0,71.0
1904,50.0,0,912,3.0,71.0
1905,66.0,480,768,2.0,90.0
1906,78.0,0,768,2.0,90.0
1907,40.0,0,912,3.0,71.0
1908,52.0,480,912,3.0,71.0
1909,76.0,480,672,2.0,90.0
1910,64.0,0,672,2.0,90.0
1911,42.0,0,312,3.0,71.0
1912,54.0,480,312,3.0,71.0
1913,75.0,240,384,2.0,90.0
1914,63.0,0,384,2.0,90.0
1915,56.0,0,312,3.0,71.0
1916,44.0,240,312,3.0,71.0
1917,74.0,0,384,2.0,90.0
1918,62.0,240,384,2.0,90.0
1919,45.0,240,312,3.0,71.0
1920,57.0,0,312,3.0,71.0
1921,73.0,240,240,2.0,90.0
1922,74.0,240,240,2.0,90.0
1923,75.0,240,240,2.0,90.0
1924,78.0,240,240,2.0,90.0
1925,76.0,240,144,2.0,90.0
1926,74.0,240,144,2.0,90.0
1927,73.0,240,144,2.0,90.0
1928,57.0,0,960,3.0,71.0
1929,71.0,240,384,2.0,80.0
1930,52.0,0,1344,3.0,71.0
1931,56.0,0,384,3.0,71.0
1932,71.0,240,240,6.0,62.0
1933,74.0,0,240,5.0,62.0
1934,73.0,240,240,5.0,62.0
1935,69.0,0,240,6.0,62.0
1936,68.0,240,240,6.0,62.0
1937,71.0,0,240,5.0,62.0
1938,57.0,0,240,3.0,71.0
1939,69.0,0,384,2.0,90.0
1940,64.0,240,240,3.0,71.0
1941,71.0,0,60,2.0,90.0
1942,69.0,60,60,2.0,90.0
1943,71.0,60,60,2.0,90.0
1944,69.0,60,60,2.0,90.0
1945,61.0,240,240,3.0,71.0
1946,71.0,0,60,2.0,90.0
1947,69.0,60,60,2.0,90.0
1948,71.0,60,60,2.0,90.0
1949,64.0,60,192,3.0,71.0
1950,69.0,60,60,2.0,90.0
1951,57.0,60,240,3.0,71.0
1952,64.0,240,240,3.0,71.0
1953,73.0,0,480,2.0,90.0
1954,61.0,240,240,3.0,71.0
1955,76.0,0,384,2.0,90.0
1956,64.0,240,192,3.0,71.0
1957,69.0,0,1920,6.0,35.0
1958,69.0,0,1920,5.0,62.0
1959,61.0,0,1920,7.0,34.0
1960,76.0,0,120,2.0,90.0
1961,57.0,240,240,3.0,71.0
1962,74.0,120,288,2.0,90.0
1963,62.0,120,240,3.0,71.0
1964,73.0,0,120,2.0,90.0
1965,59.0,240,240,3.0,71.0
1966,71.0,120,288,2.0,90.0
1967,62.0,120,192,3.0,71.0
1968,69.0,0,120,2.0,90.0
1969,57.0,240,240,3.0,71.0
1970,68.0,120,288,2.0,90.0
1971,62.0,120,240,3.0,71.0
1972,66.0,0,120,2.0,90.0
1973,59.0,240,240,3.0,71.0
1974,64.0,120,288,2.0,90.0
1975,62.0,120,192,3.0,71.0
1976,64.0,240,3840,7.0,34.0
1977,59.0,0,1920,7.0,34.0
1978,59.0,0,1920,6.0,34.0
1979,68.0,0,0,6.0,34.0
1980,71.0,0,1920,5.0,62.0
1981,57.0,0,240,3.0,71.0
1982,71.0,0,384,2.0,90.0
1983,68.0,240,240,3.0,71.0
1984,73.0,240,60,2.0,90.0
1985,71.0,60,60,2.0,90.0
1986,73.0,60,60,2.0,90.0
1987,62.0,0,240,3.0,71.0
1988,71.0,60,60,2.0,90.0
1989,73.0,60,60,2.0,90.0
1990,71.0,60,60,2.0,90.0
1991,73.0,60,60,2.0,90.0
1992,68.0,0,192,3.0,71.0
1993,71.0,60,60,2.0,90.0
1994,57.0,0,240,3.0,71.0
1995,68.0,240,240,3.0,71.0
1996,74.0,60,480,2.0,90.0
1997,62.0,240,240,3.0,71.0
1998,68.0,240,192,3.0,71.0
1999,78.0,0,480,2.0,90.0
2000,74.0,240,1920,5.0,62.0
2001,71.0,0,1920,6.0,34.0
2002,62.0,0,1920,7.0,34.0
2003,59.0,0,1920,7.0,34.0
2004,64.0,0,0,5.0,62.0
2005,57.0,0,240,3.0,71.0
2006,69.0,240,240,3.0,71.0
2007,76.0,240,720,2.0,90.0
2008,61.0,240,240,3.0,71.0
2009,69.0,240,192,3.0,71.0
2010,73.0,0,240,2.0,90.0
2011,57.0,0,240,3.0,71.0
2012,76.0,240,384,2.0,90.0
2013,69.0,240,240,3.0,71.0
2014,61.0,240,240,3.0,71.0
2015,69.0,240,192,3.0,71.0
2016,61.0,0,1920,7.0,34.0
2017,45.0,0,7680,10.0,62.0
2018,57.0,0,7680,8.0,62.0
2019,73.0,0,1920,5.0,62.0
2020,69.0,0,1920,6.0,34.0
2021,69.0,240,192,2.0,127.0
2022,71.0,240,96,2.0,123.0
2023,73.0,120,96,2.0,122.0
2024,74.0,120,96,2.0,120.0
2025,76.0,120,96,2.0,119.0
2026,78.0,120,96,2.0,117.0
2027,80.0,120,96,2.0,115.0
2028,81.0,120,120,2.0,114.0
2029,83.0,120,120,2.0,112.0
2030,85.0,120,120,2.0,111.0
2031,83.0,120,120,2.0,109.0
2032,81.0,120,144,2.0,107.0
2033,80.0,240,144,2.0,105.0
2034,50.0,240,192,4.0,110.0
2035,80.0,0,240,2.0,105.0
2036,52.0,0,96,4.0,102.0
2037,69.0,0,384,3.0,90.0
2038,78.0,240,192,2.0,105.0
2039,54.0,120,96,4.0,99.0
2040,56.0,120,96,4.0,97.0
2041,57.0,120,96,4.0,94.0
2042,59.0,120,96,4.0,92.0
2043,61.0,120,96,4.0,89.0
2044,62.0,120,120,4.0,87.0
2045,61.0,120,120,4.0,85.0
2046,69.0,0,768,3.0,90.0
2047,62.0,120,120,4.0,82.0
2048,61.0,120,120,4.0,80.0
2049,62.0,120,144,4.0,77.0
2050,78.0,0,1104,2.0,105.0
2051,76.0,0,144,2.0,105.0
2052,61.0,240,144,4.0,72.0
2053,54.0,0,192,4.0,110.0
2054,76.0,240,240,2.0,105.0
2055,56.0,0,96,4.0,108.0
2056,69.0,0,384,3.0,90.0
2057,74.0,240,192,2.0,105.0
2058,57.0,120,96,4.0,105.0
2059,59.0,0,96,4.0,102.0
2060,61.0,120,96,4.0,100.0
2061,62.0,120,96,4.0,97.0
2062,64.0,120,96,4.0,94.0
2063,66.0,120,120,4.0,91.0
2064,64.0,120,120,4.0,89.0
2065,69.0,0,768,3.0,90.0
2066,66.0,120,120,4.0,86.0
2067,64.0,120,120,4.0,83.0
2068,74.0,120,1104,2.0,105.0
2069,66.0,120,144,4.0,81.0
2070,64.0,0,144,4.0,80.0
2071,73.0,240,144,2.0,105.0
2072,73.0,240,240,2.0,105.0
2073,71.0,240,144,2.0,105.0
2074,62.0,0,384,4.0,80.0
2075,74.0,240,144,2.0,105.0
2076,59.0,0,384,4.0,80.0
2077,71.0,240,144,2.0,105.0
2078,73.0,240,60,2.0,105.0
2079,71.0,60,60,2.0,105.0
2080,73.0,60,60,2.0,105.0
2081,71.0,60,60,2.0,105.0
2082,64.0,0,384,4.0,80.0
2083,69.0,60,192,2.0,105.0
2084,71.0,240,60,2.0,105.0
2085,69.0,60,60,2.0,105.0
2086,71.0,60,60,2.0,105.0
2087,69.0,60,60,2.0,105.0
2088,52.0,0,384,4.0,80.0
2089,68.0,60,192,2.0,105.0
2090,69.0,0,96,2.0,117.0
2091,64.0,120,96,2.0,117.0
2092,66.0,120,96,2.0,117.0
2093,57.0,240,384,4.0,105.0
2094,68.0,120,96,2.0,117.0
2095,69.0,120,96,2.0,117.0
2096,71.0,120,96,2.0,117.0
2097,73.0,120,96,2.0,117.0
2098,74.0,120,96,2.0,117.0
2099,76.0,120,96,2.0,117.0
2100,78.0,120,96,2.0,117.0
2101,80.0,120,96,2.0,117.0
2102,81.0,120,96,2.0,117.0
2103,80.0,0,96,2.0,117.0
2104,52.0,0,144,4.0,90.0
2105,59.0,120,144,4.0,90.0
2106,78.0,120,96,2.0,117.0
2107,76.0,120,96,2.0,117.0
2108,56.0,0,144,4.0,90.0
2109,52.0,0,144,4.0,90.0
2110,74.0,120,96,2.0,117.0
2111,57.0,0,144,4.0,90.0
2112,54.0,0,144,4.0,90.0
2113,73.0,120,144,2.0,105.0
2114,54.0,0,144,4.0,90.0
2115,57.0,0,144,4.0,90.0
2116,73.0,240,144,2.0,105.0
2117,78.0,240,144,2.0,105.0
2118,62.0,0,144,4.0,90.0
2119,50.0,0,144,4.0,90.0
2120,78.0,0,144,2.0,105.0
2121,62.0,240,144,4.0,90.0
2122,50.0,0,144,4.0,90.0
2123,76.0,0,144,2.0,105.0
2124,52.0,0,144,4.0,90.0
2125,61.0,240,144,4.0,90.0
2126,52.0,0,144,4.0,90.0
2127,61.0,240,144,4.0,90.0
2128,76.0,0,144,2.0,105.0
2129,68.0,240,144,2.0,105.0
2130,59.0,0,144,4.0,90.0
2131,52.0,0,144,4.0,90.0
2132,52.0,0,144,4.0,90.0
2133,59.0,0,144,4.0,90.0
2134,68.0,240,144,2.0,105.0
2135,69.0,0,96,5.0,117.0
2136,64.0,120,96,5.0,117.0
2137,66.0,120,96,5.0,117.0
2138,69.0,240,384,2.0,105.0
2139,57.0,0,384,4.0,90.0
2140,68.0,120,96,5.0,117.0
2141,69.0,120,96,5.0,117.0
2142,71.0,120,96,5.0,117.0
2143,73.0,120,96,5.0,117.0
2144,74.0,120,96,5.0,117.0
2145,76.0,120,96,5.0,117.0
2146,78.0,120,96,5.0,117.0
2147,80.0,120,96,5.0,117.0
2148,81.0,120,96,5.0,117.0
2149,80.0,0,96,5.0,117.0
2150,64.0,0,144,1.0,90.0
2151,74.0,0,144,0.0,90.0
2152,80.0,0,144,0.0,90.0
2153,71.0,120,144,1.0,90.0
2154,71.0,0,156,6.0,105.0
2155,52.0,0,156,8.0,105.0
2156,62.0,0,156,7.0,105.0
2157,40.0,0,156,10.0,105.0
2158,78.0,120,96,5.0,117.0
2159,76.0,0,96,5.0,117.0
2160,71.0,0,144,1.0,90.0
2161,74.0,120,144,0.0,90.0
2162,64.0,0,144,1.0,90.0
2163,80.0,0,144,0.0,90.0
2164,40.0,0,156,10.0,105.0
2165,59.0,0,156,7.0,105.0
2166,52.0,0,156,8.0,105.0
2167,68.0,0,156,6.0,105.0
2168,74.0,120,96,5.0,117.0
2169,81.0,0,144,0.0,90.0
2170,73.0,0,144,0.0,90.0
2171,57.0,0,144,1.0,90.0
2172,69.0,0,144,1.0,90.0
2173,54.0,0,156,8.0,105.0
2174,57.0,120,156,7.0,105.0
2175,42.0,0,156,10.0,105.0
2176,73.0,0,156,5.0,105.0
2177,69.0,0,156,6.0,105.0
2178,73.0,0,144,0.0,90.0
2179,69.0,0,144,1.0,90.0
2180,81.0,0,144,0.0,90.0
2181,57.0,0,144,1.0,90.0
2182,69.0,0,156,6.0,105.0
2183,73.0,0,156,5.0,105.0
2184,57.0,240,156,7.0,105.0
2185,42.0,0,156,10.0,105.0
2186,54.0,0,156,8.0,105.0
2187,74.0,0,144,0.0,90.0
2188,78.0,240,144,0.0,90.0
2189,69.0,0,144,1.0,90.0
2190,57.0,0,144,1.0,90.0
2191,50.0,0,156,8.0,105.0
2192,69.0,0,156,6.0,105.0
2193,78.0,0,156,5.0,105.0
2194,62.0,0,156,7.0,105.0
2195,38.0,0,156,10.0,105.0
2196,69.0,0,144,1.0,90.0
2197,78.0,0,144,0.0,90.0
2198,74.0,0,144,0.0,90.0
2199,57.0,0,144,1.0,90.0
2200,69.0,0,156,6.0,105.0
2201,62.0,0,156,7.0,105.0
2202,50.0,0,156,8.0,105.0
2203,38.0,0,156,10.0,105.0
2204,78.0,240,156,5.0,105.0
2205,76.0,240,144,0.0,90.0
2206,57.0,0,144,1.0,90.0
2207,69.0,0,144,1.0,90.0
2208,73.0,0,144,0.0,90.0
2209,52.0,0,156,8.0,105.0
2210,69.0,0,156,6.0,105.0
2211,40.0,0,156,10.0,105.0
2212,76.0,0,156,5.0,105.0
2213,61.0,0,156,7.0,105.0
2214,73.0,0,144,0.0,90.0
2215,57.0,0,144,1.0,90.0
2216,76.0,240,144,0.0,90.0
2217,69.0,0,144,1.0,90.0
2218,52.0,0,156,8.0,105.0
2219,76.0,0,156,5.0,105.0
2220,40.0,0,156,10.0,105.0
2221,61.0,0,156,7.0,105.0
2222,69.0,0,156,6.0,105.0
2223,64.0,0,144,1.0,90.0
2224,74.0,0,144,0.0,90.0
2225,80.0,0,144,0.0,90.0
2226,71.0,0,144,1.0,90.0
2227,62.0,0,156,6.0,105.0
2228,52.0,240,156,8.0,105.0
2229,68.0,0,156,5.0,105.0
2230,40.0,0,156,10.0,105.0
2231,59.0,0,156,7.0,105.0
2232,64.0,0,144,1.0,90.0
2233,71.0,0,144,1.0,90.0
2234,74.0,0,144,0.0,90.0
2235,80.0,0,144,0.0,90.0
2236,68.0,0,156,5.0,105.0
2237,52.0,0,156,8.0,105.0
2238,40.0,0,156,10.0,105.0
2239,62.0,0,156,6.0,105.0
2240,59.0,240,156,7.0,105.0
2241,69.0,0,384,5.0,105.0
2242,45.0,0,384,8.0,105.0
2243,73.0,0,384,0.0,90.0
2244,69.0,240,384,1.0,90.0
2245,64.0,0,384,1.0,90.0
2246,81.0,0,384,0.0,90.0
2247,57.0,0,384,7.0,105.0
2248,33.0,0,384,10.0,105.0
2249,61.0,0,384,6.0,105.0
2250,76.0,0,120,5.0,105.0
2251,76.0,480,120,6.0,105.0
2252,73.0,0,78,6.0,105.0
2253,73.0,120,78,5.0,105.0
2254,76.0,120,78,6.0,105.0
2255,76.0,0,78,5.0,105.0
2256,73.0,120,78,6.0,105.0
2257,73.0,0,78,5.0,105.0
2258,81.0,0,384,5.0,105.0
2259,81.0,120,384,6.0,105.0
2260,52.0,0,120,10.0,105.0
2261,64.0,0,120,7.0,90.0
2262,76.0,0,120,5.0,105.0
2263,64.0,0,120,8.0,105.0
2264,76.0,0,120,0.0,90.0
2265,76.0,480,120,6.0,105.0
2266,73.0,0,78,6.0,105.0
2267,73.0,120,78,5.0,105.0
2268,73.0,0,96,0.0,90.0
2269,49.0,0,96,10.0,105.0
2270,61.0,0,96,7.0,90.0
2271,61.0,0,96,8.0,105.0
2272,64.0,0,288,1.0,90.0
2273,76.0,0,78,5.0,105.0
2274,76.0,0,78,6.0,105.0
2275,76.0,0,96,0.0,90.0
2276,52.0,120,96,10.0,105.0
2277,64.0,0,96,7.0,90.0
2278,64.0,0,96,8.0,105.0
2279,73.0,0,78,5.0,105.0
2280,73.0,0,78,6.0,105.0
2281,61.0,0,96,8.0,105.0
2282,61.0,0,96,1.0,90.0
2283,73.0,0,96,0.0,90.0
2284,61.0,120,96,7.0,90.0
2285,49.0,0,96,10.0,105.0
2286,69.0,0,384,6.0,105.0
2287,45.0,0,384,10.0,105.0
2288,69.0,0,384,0.0,90.0
2289,57.0,0,384,8.0,105.0
2290,57.0,0,384,7.0,90.0
2291,69.0,0,384,5.0,105.0
2292,57.0,120,384,1.0,90.0
2293,45.0,0,288,8.0,105.0
2294,69.0,0,288,0.0,90.0
2295,57.0,480,288,1.0,90.0
2296,57.0,0,288,5.0,105.0
2297,57.0,0,288,6.0,105.0
2298,57.0,0,288,7.0,90.0
2299,33.0,0,288,10.0,105.0
2300,57.0,0,96,1.0,90.0
2301,45.0,0,96,8.0,105.0
2302,33.0,0,96,10.0,105.0
2303,57.0,0,96,5.0,105.0
2304,57.0,0,96,7.0,90.0
2305,57.0,0,96,6.0,105.0
2306,69.0,360,96,0.0,90.0
2307,57.0,0,384,1.0,90.0
2308,33.0,0,384,10.0,105.0
2309,57.0,120,384,5.0,105.0
2310,57.0,0,384,7.0,90.0
2311,57.0,0,384,6.0,105.0
2312,69.0,0,384,0.0,90.0
2313,45.0,0,384,8.0,105.0
2314,76.0,480,120,2.0,105.0
2315,73.0,120,120,2.0,105.0
2316,76.0,120,120,2.0,105.0
2317,73.0,120,120,2.0,105.0
2318,81.0,120,384,2.0,105.0
2319,76.0,480,120,2.0,105.0
2320,73.0,120,120,2.0,105.0
2321,76.0,120,120,2.0,105.0
2322,73.0,120,120,2.0,105.0
2323,69.0,120,384,2.0,105.0
2324,81.0,480,384,2.0,105.0
2325,69.0,0,384,3.0,90.0
2326,64.0,0,384,3.0,90.0
2327,61.0,0,384,3.0,90.0
2328,61.0,480,960,3.0,90.0
2329,82.0,0,960,2.0,125.0
2330,64.0,0,0,3.0,71.0
2331,70.0,0,960,3.0,90.0
2332,71.0,0,384,3.0,71.0
2333,62.0,0,384,3.0,71.0
2334,83.0,960,384,2.0,80.0
2335,71.0,480,120,2.0,105.0
2336,68.0,120,120,2.0,105.0
2337,71.0,120,120,2.0,105.0
2338,68.0,120,120,2.0,105.0
2339,74.0,120,384,2.0,105.0
2340,71.0,480,96,2.0,105.0
2341,68.0,120,96,2.0,105.0
2342,71.0,120,96,2.0,105.0
2343,68.0,120,96,2.0,105.0
2344,64.0,120,384,2.0,105.0
2345,71.0,0,384,3.0,90.0
2346,64.0,0,384,3.0,90.0
2347,62.0,0,384,3.0,90.0
2348,56.0,480,384,3.0,90.0
2349,83.0,0,384,2.0,105.0
2350,84.0,0,960,2.0,125.0
2351,56.0,0,960,3.0,90.0
2352,64.0,0,0,3.0,71.0
2353,62.0,0,960,3.0,90.0
2354,72.0,480,960,3.0,90.0
2355,85.0,0,384,2.0,80.0
2356,73.0,960,384,3.0,71.0
2357,57.0,0,384,3.0,71.0
2358,61.0,0,384,3.0,71.0
2359,76.0,480,96,2.0,90.0
2360,73.0,120,96,2.0,90.0
2361,76.0,120,96,2.0,90.0
2362,73.0,120,96,2.0,90.0
2363,57.0,0,240,3.0,71.0
2364,81.0,120,384,2.0,90.0
2365,61.0,240,240,3.0,71.0
2366,81.0,0,120,2.0,90.0
2367,66.0,240,240,3.0,71.0
2368,78.0,120,120,2.0,90.0
2369,81.0,0,120,2.0,90.0
2370,61.0,120,240,3.0,71.0
2371,78.0,120,120,2.0,90.0
2372,57.0,120,240,3.0,71.0
2373,85.0,0,384,2.0,90.0
2374,61.0,240,240,3.0,71.0
2375,83.0,240,120,2.0,90.0
2376,66.0,0,240,3.0,71.0
2377,81.0,120,120,2.0,90.0
2378,80.0,0,120,2.0,90.0
2379,78.0,120,120,2.0,90.0
2380,61.0,120,240,3.0,71.0
2381,59.0,0,240,3.0,71.0
2382,66.0,240,240,3.0,71.0
2383,69.0,240,240,3.0,71.0
2384,76.0,120,960,2.0,110.0
2385,66.0,240,240,3.0,71.0
2386,59.0,240,240,3.0,71.0
2387,75.0,0,384,2.0,90.0
2388,66.0,240,240,3.0,71.0
2389,69.0,240,240,3.0,71.0
2390,83.0,0,192,2.0,90.0
2391,69.0,0,1920,5.0,62.0
2392,66.0,240,240,3.0,71.0
2393,66.0,0,1920,6.0,62.0
2394,59.0,0,240,3.0,71.0
2395,88.0,0,480,2.0,90.0
2396,64.0,240,240,3.0,71.0
2397,68.0,0,240,3.0,71.0
2398,64.0,240,240,3.0,71.0
2399,87.0,240,480,2.0,90.0
2400,59.0,240,240,3.0,71.0
2401,85.0,0,480,2.0,90.0
2402,64.0,240,240,3.0,71.0
2403,68.0,0,240,3.0,71.0
2404,83.0,240,384,2.0,90.0
2405,68.0,240,1920,5.0,62.0
2406,64.0,240,240,3.0,71.0
2407,64.0,0,1920,6.0,62.0
2408,59.0,0,240,3.0,71.0
2409,63.0,240,240,3.0,71.0
2410,66.0,240,240,3.0,71.0
2411,83.0,0,720,2.0,90.0
2412,82.0,0,240,2.0,90.0
2413,63.0,240,240,3.0,71.0
2414,59.0,0,4800,8.0,62.0
2415,47.0,0,4800,10.0,62.0
2416,59.0,0,4800,7.0,34.0
2417,60.0,0,240,3.0,71.0
2418,81.0,240,384,2.0,90.0
2419,63.0,240,240,3.0,71.0
2420,66.0,240,240,3.0,71.0
2421,60.0,0,960,7.0,34.0
2422,63.0,0,1920,6.0,62.0
2423,60.0,0,960,8.0,62.0
2424,48.0,0,960,10.0,62.0
2425,66.0,240,1920,5.0,62.0
2426,63.0,240,240,3.0,71.0
2427,80.0,0,240,2.0,90.0
2428,61.0,240,240,3.0,71.0
2429,81.0,240,80,2.0,90.0
2430,49.0,0,384,10.0,62.0
2431,61.0,0,384,8.0,62.0
2432,61.0,0,384,7.0,62.0
2433,68.0,0,384,6.0,62.0
2434,64.0,0,384,5.0,62.0
2435,80.0,80,80,2.0,90.0
2436,78.0,80,80,2.0,90.0
2437,64.0,0,240,3.0,71.0
2438,68.0,0,240,3.0,71.0
2439,80.0,80,240,2.0,90.0
2440,64.0,240,240,3.0,71.0
2441,81.0,0,240,2.0,90.0
2442,83.0,0,144,2.0,90.0
2443,59.0,0,240,3.0,71.0
2444,64.0,0,384,7.0,62.0
2445,47.0,0,384,10.0,62.0
2446,71.0,240,384,5.0,62.0
2447,83.0,240,144,2.0,90.0
2448,68.0,0,384,6.0,62.0
2449,59.0,0,384,8.0,62.0
2450,64.0,0,240,3.0,71.0
2451,83.0,240,144,2.0,90.0
2452,68.0,0,240,3.0,71.0
2453,83.0,0,144,2.0,90.0
2454,64.0,240,240,3.0,71.0
2455,57.0,0,240,3.0,71.0
2456,85.0,0,240,2.0,90.0
2457,87.0,0,80,2.0,90.0
2458,69.0,240,384,6.0,62.0
2459,73.0,0,384,5.0,62.0
2460,45.0,0,384,10.0,62.0
2461,64.0,0,384,7.0,62.0
2462,57.0,0,384,8.0,62.0
2463,85.0,80,80,2.0,90.0
2464,84.0,80,80,2.0,90.0
2465,61.0,240,240,3.0,71.0
2466,85.0,80,240,2.0,90.0
2467,64.0,0,240,3.0,71.0
2468,87.0,0,192,2.0,90.0
2469,61.0,240,240,3.0,71.0
2470,56.0,240,240,3.0,71.0
2471,88.0,0,240,2.0,90.0
2472,68.0,0,384,7.0,62.0
2473,87.0,240,144,2.0,90.0
2474,76.0,0,384,5.0,62.0
2475,44.0,0,384,10.0,62.0
2476,56.0,0,384,8.0,62.0
2477,71.0,0,384,6.0,62.0
2478,59.0,0,240,3.0,71.0
2479,85.0,240,144,2.0,90.0
2480,64.0,0,240,3.0,71.0
2481,83.0,0,144,2.0,90.0
2482,59.0,240,240,3.0,71.0
2483,85.0,0,60,2.0,90.0
2484,83.0,60,60,2.0,90.0
2485,85.0,60,60,2.0,90.0
2486,83.0,60,60,2.0,90.0
2487,61.0,0,384,3.0,71.0
2488,64.0,240,384,3.0,71.0
2489,81.0,60,156,2.0,90.0
2490,83.0,240,60,2.0,90.0
2491,81.0,60,60,2.0,90.0
2492,83.0,60,60,2.0,90.0
2493,81.0,60,60,2.0,90.0
2494,63.0,0,384,3.0,71.0
2495,59.0,0,384,3.0,71.0
2496,80.0,60,156,2.0,90.0
2497,81.0,240,60,2.0,90.0
2498,80.0,60,60,2.0,90.0
2499,81.0,60,60,2.0,90.0
2500,80.0,60,60,2.0,90.0
2501,57.0,0,384,3.0,71.0
2502,61.0,0,384,3.0,71.0
2503,78.0,60,156,2.0,90.0
2504,80.0,240,60,2.0,90.0
2505,78.0,60,60,2.0,90.0
2506,80.0,60,60,2.0,90.0
2507,78.0,60,60,2.0,90.0
2508,61.0,0,384,3.0,71.0
2509,58.0,0,384,3.0,71.0
2510,76.0,60,156,2.0,90.0
2511,59.0,0,384,3.0,71.0
2512,75.0,240,480,2.0,100.0
2513,78.0,480,384,2.0,80.0
2514,47.0,0,156,10.0,87.0
2515,59.0,0,156,8.0,87.0
2516,71.0,0,156,7.0,80.0
2517,71.0,240,156,5.0,87.0
2518,71.0,0,156,6.0,80.0
2519,42.0,0,156,10.0,90.0
2520,54.0,240,156,8.0,90.0
2521,66.0,0,156,7.0,83.0
2522,66.0,0,156,5.0,91.0
2523,66.0,0,156,6.0,83.0
2524,71.0,0,156,7.0,80.0
2525,59.0,240,156,8.0,87.0
2526,71.0,0,156,6.0,80.0
2527,47.0,0,156,10.0,87.0
2528,71.0,0,156,5.0,87.0
2529,63.0,0,156,6.0,80.0
2530,63.0,240,156,5.0,87.0
2531,39.0,0,156,10.0,87.0
2532,51.0,0,156,8.0,87.0
2533,63.0,0,156,7.0,80.0
2534,66.0,0,156,6.0,80.0
2535,54.0,0,156,8.0,87.0
2536,66.0,0,156,5.0,87.0
2537,66.0,240,156,7.0,80.0
2538,42.0,0,156,10.0,87.0
2539,81.0,0,120,2.0,90.0
2540,66.0,240,192,3.0,80.0
2541,83.0,120,120,2.0,90.0
2542,81.0,0,120,2.0,90.0
2543,59.0,0,384,3.0,80.0
2544,59.0,0,384,5.0,71.0
2545,35.0,0,384,10.0,71.0
2546,59.0,0,384,7.0,71.0
2547,47.0,0,384,8.0,71.0
2548,59.0,0,384,6.0,71.0
2549,64.0,120,192,3.0,80.0
2550,80.0,120,120,2.0,90.0
2551,63.0,0,192,3.0,80.0
2552,78.0,120,240,2.0,90.0
2553,78.0,0,120,2.0,90.0
2554,69.0,0,192,3.0,80.0
2555,80.0,120,120,2.0,90.0
2556,78.0,120,120,2.0,90.0
2557,59.0,480,384,3.0,80.0
2558,68.0,0,192,3.0,80.0
2559,76.0,120,120,2.0,90.0
2560,66.0,0,192,3.0,80.0
2561,75.0,120,240,2.0,90.0
2562,75.0,0,96,2.0,90.0
2563,66.0,0,192,3.0,80.0
2564,71.0,120,96,2.0,90.0
2565,76.0,120,96,2.0,90.0
2566,68.0,0,192,3.0,80.0
2567,71.0,120,96,2.0,90.0
2568,78.0,120,96,2.0,90.0
2569,63.0,0,192,3.0,80.0
2570,71.0,120,96,2.0,90.0
2571,80.0,120,96,2.0,90.0
2572,64.0,0,192,3.0,80.0
2573,71.0,120,96,2.0,90.0
2574,81.0,120,96,2.0,90.0
2575,66.0,0,192,3.0,80.0
2576,71.0,120,96,2.0,90.0
2577,80.0,0,96,2.0,90.0
2578,64.0,120,192,3.0,80.0
2579,71.0,120,96,2.0,90.0
2580,59.0,480,1536,3.0,80.0
2581,78.0,0,192,2.0,90.0
2582,63.0,120,192,3.0,80.0
2583,64.0,120,78,2.0,80.0
2584,66.0,120,78,2.0,80.0
2585,40.0,0,384,3.0,80.0
2586,52.0,0,384,3.0,80.0
2587,68.0,120,78,2.0,80.0
2588,69.0,120,78,2.0,80.0
2589,71.0,120,78,2.0,80.0
2590,73.0,120,78,2.0,80.0
2591,75.0,120,78,2.0,80.0
2592,76.0,0,78,2.0,90.0
2593,71.0,120,78,2.0,90.0
2594,73.0,120,78,2.0,90.0
2595,52.0,0,384,3.0,80.0
2596,40.0,120,384,3.0,80.0
2597,75.0,120,78,2.0,90.0
2598,76.0,120,78,2.0,90.0
2599,78.0,120,78,2.0,90.0
2600,80.0,120,78,2.0,90.0
2601,81.0,120,78,2.0,90.0
2602,82.0,120,120,2.0,105.0
2603,83.0,120,120,2.0,105.0
2604,82.0,120,120,2.0,105.0
2605,40.0,0,384,3.0,80.0
2606,52.0,0,384,3.0,80.0
2607,83.0,120,120,2.0,105.0
2608,82.0,120,120,2.0,105.0
2609,83.0,120,120,2.0,105.0
2610,82.0,120,120,2.0,105.0
2611,68.0,480,2832,6.0,62.0
2612,71.0,0,2832,5.0,62.0
2613,64.0,0,2832,7.0,62.0
2614,83.0,120,120,2.0,105.0
2615,82.0,120,120,2.0,105.0
2616,83.0,120,120,2.0,105.0
2617,68.0,0,312,5.0,62.0
2618,59.0,0,312,7.0,62.0
2619,64.0,0,312,6.0,62.0
2620,85.0,120,120,2.0,105.0
2621,83.0,120,120,2.0,105.0
2622,81.0,0,120,2.0,90.0
2623,80.0,120,120,2.0,90.0
2624,56.0,0,312,7.0,62.0
2625,64.0,0,312,5.0,62.0
2626,59.0,120,312,6.0,62.0
2627,78.0,120,120,2.0,90.0
2628,76.0,120,120,2.0,90.0
2629,40.0,0,3840,10.0,62.0
2630,52.0,0,3840,8.0,62.0
2631,81.0,120,120,2.0,80.0
2632,66.0,0,192,3.0,71.0
2633,83.0,120,120,2.0,80.0
2634,81.0,120,120,2.0,80.0
2635,35.0,0,384,10.0,62.0
2636,59.0,0,384,3.0,71.0
2637,59.0,0,384,7.0,34.0
2638,59.0,0,384,5.0,62.0
2639,59.0,0,384,6.0,34.0
2640,47.0,0,384,8.0,62.0
2641,64.0,0,192,3.0,71.0
2642,80.0,120,120,2.0,80.0
2643,63.0,0,192,3.0,71.0
2644,78.0,120,240,2.0,80.0
2645,78.0,480,120,2.0,80.0
2646,69.0,0,192,3.0,71.0
2647,80.0,120,120,2.0,80.0
2648,78.0,0,120,2.0,80.0
2649,59.0,0,384,3.0,71.0
2650,68.0,120,192,3.0,71.0
2651,76.0,120,120,2.0,80.0
2652,66.0,0,192,3.0,71.0
2653,75.0,120,240,2.0,80.0
2654,75.0,480,96,2.0,80.0
2655,66.0,0,192,3.0,71.0
2656,71.0,120,96,2.0,80.0
2657,76.0,120,96,2.0,80.0
2658,68.0,0,192,3.0,71.0
2659,71.0,120,96,2.0,80.0
2660,78.0,120,96,2.0,80.0
2661,63.0,0,192,3.0,71.0
2662,71.0,120,96,2.0,80.0
2663,80.0,0,96,2.0,80.0
2664,64.0,120,192,3.0,71.0
2665,71.0,120,96,2.0,80.0
2666,81.0,0,96,2.0,80.0
2667,66.0,120,192,3.0,71.0
2668,71.0,120,96,2.0,80.0
2669,80.0,0,96,2.0,80.0
2670,64.0,120,192,3.0,71.0
2671,71.0,120,96,2.0,80.0
2672,59.0,0,1536,3.0,71.0
2673,63.0,120,192,3.0,71.0
2674,78.0,0,192,2.0,80.0
2675,64.0,120,78,2.0,80.0
2676,66.0,120,78,2.0,80.0
2677,52.0,0,384,3.0,80.0
2678,40.0,0,384,3.0,80.0
2679,68.0,120,78,2.0,80.0
2680,69.0,120,78,2.0,80.0
2681,71.0,120,78,2.0,80.0
2682,73.0,120,78,2.0,80.0
2683,75.0,120,78,2.0,80.0
2684,76.0,0,78,2.0,90.0
2685,71.0,120,78,2.0,90.0
2686,73.0,120,78,2.0,90.0
2687,40.0,120,384,3.0,80.0
2688,52.0,0,384,3.0,80.0
2689,75.0,120,78,2.0,90.0
2690,76.0,120,78,2.0,90.0
2691,78.0,120,78,2.0,90.0
2692,80.0,120,78,2.0,90.0
2693,81.0,120,78,2.0,90.0
2694,82.0,0,120,2.0,105.0
2695,83.0,120,120,2.0,105.0
2696,82.0,120,120,2.0,105.0
2697,52.0,0,384,3.0,80.0
2698,40.0,120,384,3.0,80.0
2699,83.0,120,120,2.0,105.0
2700,82.0,120,120,2.0,105.0
2701,83.0,120,120,2.0,105.0
2702,82.0,120,120,2.0,105.0
2703,68.0,480,2832,6.0,62.0
2704,71.0,0,2832,5.0,62.0
2705,64.0,0,2832,7.0,62.0
2706,83.0,120,120,2.0,105.0
2707,82.0,120,120,2.0,105.0
2708,83.0,120,120,2.0,105.0
2709,59.0,0,312,7.0,62.0
2710,64.0,0,312,6.0,62.0
2711,68.0,0,312,5.0,62.0
2712,85.0,120,120,2.0,105.0
2713,83.0,120,120,2.0,105.0
2714,81.0,0,120,2.0,105.0
2715,80.0,120,120,2.0,90.0
2716,56.0,0,312,7.0,62.0
2717,59.0,0,312,6.0,62.0
2718,64.0,120,312,5.0,62.0
2719,78.0,120,120,2.0,90.0
2720,52.0,0,3840,8.0,62.0
2721,40.0,0,3840,10.0,62.0
2722,76.0,120,120,2.0,90.0
2723,57.0,0,240,3.0,80.0
2724,45.0,120,384,10.0,62.0
2725,85.0,0,384,2.0,90.0
2726,57.0,0,384,8.0,62.0
2727,61.0,240,240,3.0,71.0
2728,64.0,0,240,3.0,71.0
2729,61.0,240,192,3.0,71.0
2730,69.0,0,576,2.0,90.0
2731,57.0,240,240,3.0,71.0
2732,71.0,240,96,2.0,90.0
2733,64.0,0,912,6.0,58.0
2734,73.0,0,912,5.0,58.0
2735,57.0,240,912,7.0,58.0
2736,73.0,120,96,2.0,90.0
2737,61.0,0,240,3.0,71.0
2738,74.0,120,96,2.0,90.0
2739,76.0,120,96,2.0,90.0
2740,64.0,0,240,3.0,71.0
2741,78.0,120,96,2.0,90.0
2742,61.0,0,192,3.0,71.0
2743,80.0,120,96,2.0,90.0
2744,57.0,0,456,7.0,58.0
2745,73.0,0,456,5.0,58.0
2746,64.0,0,456,6.0,58.0
2747,81.0,0,96,2.0,90.0
2748,76.0,120,96,2.0,90.0
2749,57.0,0,240,3.0,71.0
2750,73.0,120,96,2.0,90.0
2751,57.0,120,384,8.0,62.0
2752,45.0,0,384,10.0,62.0
2753,69.0,120,96,2.0,90.0
2754,61.0,0,240,3.0,71.0
2755,64.0,120,240,3.0,71.0
2756,85.0,0,384,2.0,90.0
2757,61.0,240,192,3.0,71.0
2758,57.0,240,240,3.0,71.0
2759,73.0,0,912,5.0,58.0
2760,64.0,0,912,6.0,58.0
2761,81.0,120,96,2.0,90.0
2762,61.0,240,240,3.0,71.0
2763,57.0,0,960,7.0,58.0
2764,83.0,0,60,2.0,90.0
2765,81.0,60,60,2.0,90.0
2766,83.0,60,60,2.0,90.0
2767,81.0,60,60,2.0,90.0
2768,64.0,120,240,3.0,71.0
2769,83.0,0,60,2.0,90.0
2770,81.0,60,60,2.0,90.0
2771,80.0,60,60,2.0,90.0
2772,61.0,60,192,3.0,71.0
2773,73.0,0,456,5.0,58.0
2774,61.0,0,456,7.0,58.0
2775,64.0,0,456,6.0,58.0
2776,81.0,60,60,2.0,90.0
2777,57.0,0,240,3.0,71.0
2778,57.0,60,384,8.0,62.0
2779,87.0,0,384,2.0,90.0
2780,45.0,0,384,10.0,62.0
2781,63.0,240,240,3.0,71.0
2782,66.0,0,240,3.0,71.0
2783,63.0,240,192,3.0,71.0
2784,71.0,0,576,2.0,90.0
2785,57.0,240,240,3.0,71.0
2786,73.0,0,96,2.0,90.0
2787,66.0,0,912,6.0,58.0
2788,75.0,240,912,5.0,58.0
2789,75.0,120,96,2.0,90.0
2790,63.0,240,240,3.0,71.0
2791,59.0,0,0,7.0,58.0
2792,76.0,0,96,2.0,90.0
2793,78.0,120,96,2.0,90.0
2794,66.0,120,240,3.0,71.0
2795,80.0,0,96,2.0,90.0
2796,63.0,120,192,3.0,71.0
2797,82.0,120,96,2.0,90.0
2798,75.0,0,456,5.0,58.0
2799,66.0,0,456,6.0,58.0
2800,83.0,0,96,2.0,90.0
2801,78.0,120,96,2.0,90.0
2802,57.0,120,240,3.0,71.0
2803,75.0,120,96,2.0,90.0
2804,57.0,0,384,8.0,62.0
2805,45.0,0,384,10.0,62.0
2806,71.0,120,96,2.0,90.0
2807,63.0,0,240,3.0,71.0
2808,66.0,0,240,3.0,71.0
2809,87.0,0,384,2.0,90.0
2810,63.0,240,192,3.0,71.0
2811,57.0,240,240,3.0,71.0
2812,66.0,0,912,6.0,58.0
2813,75.0,0,912,5.0,58.0
2814,83.0,120,96,2.0,90.0
2815,63.0,240,240,3.0,71.0
2816,59.0,120,960,7.0,58.0
2817,85.0,0,60,2.0,90.0
2818,83.0,60,60,2.0,90.0
2819,85.0,60,60,2.0,90.0
2820,83.0,60,60,2.0,90.0
2821,66.0,120,240,3.0,71.0
2822,85.0,60,60,2.0,90.0
2823,83.0,60,60,2.0,90.0
2824,82.0,60,60,2.0,90.0
2825,63.0,0,192,3.0,71.0
2826,75.0,0,456,5.0,58.0
2827,59.0,0,456,7.0,58.0
2828,66.0,0,456,6.0,58.0
2829,83.0,60,60,2.0,90.0
2830,56.0,0,384,3.0,71.0
2831,59.0,0,384,7.0,58.0
2832,44.0,0,384,10.0,62.0
2833,56.0,0,384,8.0,62.0
2834,64.0,0,384,6.0,58.0
2835,88.0,0,384,2.0,90.0
2836,64.0,0,384,3.0,71.0
2837,76.0,60,384,5.0,58.0
2838,86.0,480,384,2.0,90.0
2839,85.0,480,384,2.0,90.0
2840,84.0,480,384,2.0,90.0
2841,56.0,0,384,3.0,71.0
2842,64.0,0,384,3.0,71.0
2843,85.0,480,144,2.0,90.0
2844,57.0,0,156,3.0,71.0
2845,83.0,0,144,2.0,90.0
2846,59.0,240,156,3.0,71.0
2847,81.0,240,144,2.0,90.0
2848,61.0,0,156,3.0,71.0
2849,80.0,0,144,2.0,90.0
2850,62.0,240,156,3.0,71.0
2851,81.0,0,144,2.0,90.0
2852,61.0,240,156,3.0,71.0
2853,64.0,0,1152,3.0,71.0
2854,80.0,240,144,2.0,90.0
2855,59.0,0,156,3.0,71.0
2856,78.0,0,144,2.0,90.0
2857,57.0,240,156,3.0,71.0
2858,77.0,0,144,2.0,90.0
2859,56.0,240,156,3.0,71.0
2860,78.0,240,156,2.0,90.0
2861,57.0,0,384,3.0,71.0
2862,85.0,240,240,2.0,90.0
2863,83.0,240,240,2.0,90.0
2864,81.0,240,240,2.0,90.0
2865,80.0,240,240,2.0,90.0
2866,78.0,240,240,2.0,90.0
2867,80.0,240,240,2.0,90.0
2868,81.0,240,192,2.0,90.0
2869,83.0,0,240,2.0,90.0
2870,85.0,240,80,2.0,90.0
2871,83.0,80,80,2.0,90.0
2872,81.0,80,80,2.0,90.0
2873,83.0,80,240,2.0,90.0
2874,85.0,240,192,2.0,90.0
2875,68.0,0,960,3.0,71.0
2876,64.0,0,960,3.0,71.0
2877,76.0,0,480,2.0,90.0
2878,80.0,0,120,2.0,90.0
2879,47.0,0,480,10.0,62.0
2880,59.0,480,480,8.0,71.0
2881,78.0,120,360,2.0,90.0
2882,75.0,0,480,2.0,90.0
2883,59.0,240,1920,3.0,71.0
2884,69.0,240,960,3.0,71.0
2885,66.0,0,960,3.0,71.0
2886,64.0,360,192,8.0,71.0
2887,52.0,0,192,10.0,62.0
2888,64.0,0,384,3.0,62.0
2889,76.0,0,384,2.0,80.0
2890,68.0,0,384,3.0,62.0
2891,59.0,0,192,8.0,71.0
2892,47.0,480,192,10.0,62.0
2893,52.0,480,384,8.0,71.0
2894,40.0,0,384,10.0,62.0
2895,71.0,480,480,5.0,71.0
2896,59.0,0,480,6.0,71.0
2897,40.0,480,192,12.0,62.0
2898,52.0,0,192,11.0,62.0
2899,68.0,0,264,5.0,71.0
2900,56.0,0,264,6.0,71.0
2901,35.0,0,192,12.0,62.0
2902,47.0,0,192,11.0,62.0
2903,68.0,0,480,5.0,71.0
2904,56.0,480,480,6.0,71.0
2905,42.0,480,192,12.0,62.0
2906,54.0,0,192,11.0,62.0
2907,57.0,0,264,6.0,71.0
2908,69.0,0,264,5.0,71.0
2909,35.0,0,192,12.0,62.0
2910,47.0,0,192,11.0,62.0
2911,69.0,480,480,5.0,71.0
2912,57.0,0,480,6.0,71.0
2913,44.0,0,192,12.0,62.0
2914,56.0,0,192,11.0,62.0
2915,59.0,480,384,6.0,71.0
2916,71.0,0,384,5.0,71.0
2917,35.0,0,192,12.0,62.0
2918,47.0,480,192,11.0,62.0
2919,64.0,0,720,7.0,71.0
2920,68.0,240,240,7.0,71.0
2921,56.0,0,192,11.0,62.0
2922,44.0,0,192,12.0,62.0
2923,59.0,240,384,7.0,71.0
2924,43.0,0,192,12.0,62.0
2925,55.0,480,192,11.0,62.0
2926,70.0,0,480,5.0,71.0
2927,58.0,0,480,6.0,71.0
2928,56.0,0,192,11.0,62.0
2929,44.0,0,192,12.0,62.0
2930,59.0,0,384,6.0,62.0
2931,71.0,0,384,5.0,71.0
2932,47.0,0,192,11.0,62.0
2933,35.0,480,192,12.0,62.0
2934,64.0,480,720,7.0,71.0
2935,68.0,240,240,7.0,71.0
2936,56.0,0,192,11.0,62.0
2937,44.0,0,192,12.0,62.0
2938,59.0,240,384,7.0,71.0
2939,55.0,0,192,11.0,62.0
2940,43.0,0,192,12.0,62.0
2941,70.0,480,480,5.0,71.0
2942,58.0,0,480,6.0,71.0
2943,56.0,0,192,11.0,62.0
2944,44.0,480,192,12.0,62.0
2945,71.0,0,384,5.0,62.0
2946,59.0,0,384,6.0,62.0
2947,40.0,0,192,12.0,62.0
2948,52.0,480,192,11.0,62.0
2949,64.0,0,720,7.0,71.0
2950,68.0,240,240,7.0,71.0
2951,47.0,0,192,11.0,62.0
2952,35.0,240,192,12.0,62.0
2953,59.0,0,384,7.0,71.0
2954,85.0,480,120,2.0,90.0
2955,83.0,120,120,2.0,90.0
2956,81.0,120,120,2.0,90.0
2957,80.0,120,120,2.0,90.0
2958,63.0,120,96,3.0,80.0
2959,71.0,120,96,3.0,80.0
2960,78.0,0,264,2.0,90.0
2961,63.0,120,96,3.0,80.0
2962,71.0,120,96,3.0,80.0
2963,63.0,0,96,3.0,80.0
2964,71.0,120,96,3.0,80.0
2965,63.0,120,96,3.0,80.0
2966,71.0,120,96,3.0,80.0
2967,78.0,120,480,2.0,90.0
2968,64.0,0,96,3.0,80.0
2969,71.0,120,96,3.0,80.0
2970,80.0,120,264,2.0,90.0
2971,64.0,120,96,3.0,80.0
2972,71.0,120,96,3.0,80.0
2973,64.0,0,96,3.0,80.0
2974,71.0,120,96,3.0,80.0
2975,64.0,120,96,3.0,80.0
2976,71.0,120,96,3.0,80.0
2977,80.0,120,480,2.0,90.0
2978,66.0,0,96,3.0,80.0
2979,71.0,120,96,3.0,80.0
2980,81.0,120,264,2.0,90.0
2981,66.0,120,96,3.0,80.0
2982,71.0,120,96,3.0,80.0
2983,68.0,120,96,3.0,80.0
2984,71.0,120,96,3.0,80.0
2985,68.0,120,96,3.0,80.0
2986,71.0,120,96,3.0,80.0
2987,53.0,0,480,4.0,80.0
2988,69.0,0,96,3.0,80.0
2989,71.0,120,96,3.0,80.0
2990,54.0,120,264,4.0,80.0
2991,69.0,120,96,3.0,80.0
2992,71.0,120,96,3.0,80.0
2993,65.0,0,96,3.0,80.0
2994,71.0,120,96,3.0,80.0
2995,65.0,120,96,3.0,80.0
2996,71.0,120,96,3.0,80.0
2997,80.0,120,480,2.0,90.0
2998,66.0,0,96,3.0,80.0
2999,71.0,120,96,3.0,80.0
3000,81.0,120,264,2.0,90.0
3001,66.0,120,96,3.0,80.0
3002,71.0,120,96,3.0,80.0
3003,68.0,120,96,3.0,80.0
3004,71.0,120,96,3.0,80.0
3005,68.0,120,96,3.0,80.0
3006,71.0,120,96,3.0,80.0
3007,53.0,0,480,4.0,80.0
3008,69.0,120,96,3.0,80.0
3009,71.0,120,96,3.0,80.0
3010,54.0,0,264,4.0,80.0
3011,69.0,120,96,3.0,80.0
3012,71.0,120,96,3.0,80.0
3013,65.0,120,96,3.0,80.0
3014,71.0,120,96,3.0,80.0
3015,65.0,120,96,3.0,80.0
3016,71.0,120,96,3.0,80.0
3017,80.0,0,480,2.0,90.0
3018,66.0,0,96,3.0,80.0
3019,71.0,120,96,3.0,80.0
3020,81.0,120,264,2.0,90.0
3021,66.0,120,96,3.0,80.0
3022,71.0,120,96,3.0,80.0
3023,68.0,120,96,3.0,80.0
3024,71.0,120,96,3.0,80.0
3025,68.0,120,96,3.0,80.0
3026,71.0,120,96,3.0,80.0
3027,53.0,0,480,4.0,80.0
3028,69.0,0,192,3.0,80.0
3029,54.0,120,264,4.0,80.0
3030,71.0,0,7104,6.0,44.0
3031,83.0,0,7104,5.0,52.0
3032,83.0,480,120,2.0,90.0
3033,81.0,120,120,2.0,90.0
3034,80.0,120,120,2.0,90.0
3035,78.0,120,120,2.0,90.0
3036,52.0,0,240,3.0,71.0
3037,76.0,0,264,2.0,90.0
3038,56.0,240,240,3.0,71.0
3039,59.0,240,240,3.0,71.0
3040,64.0,240,192,3.0,71.0
3041,76.0,0,720,2.0,90.0
3042,52.0,240,240,3.0,71.0
3043,56.0,240,240,3.0,71.0
3044,74.0,0,240,2.0,90.0
3045,59.0,240,240,3.0,71.0
3046,73.0,0,240,2.0,90.0
3047,72.0,0,192,2.0,90.0
3048,64.0,240,192,3.0,71.0
3049,68.0,0,960,6.0,58.0
3050,74.0,0,960,5.0,58.0
3051,52.0,0,240,3.0,71.0
3052,72.0,240,240,2.0,90.0
3053,73.0,0,192,2.0,90.0
3054,57.0,240,240,3.0,71.0
3055,61.0,240,240,3.0,71.0
3056,64.0,240,192,3.0,71.0
3057,64.0,0,2880,7.0,58.0
3058,73.0,0,960,5.0,58.0
3059,73.0,0,576,2.0,90.0
3060,52.0,0,240,3.0,71.0
3061,54.0,0,240,3.0,71.0
3062,81.0,240,240,2.0,90.0
3063,78.0,240,240,2.0,90.0
3064,57.0,0,240,3.0,71.0
3065,63.0,0,192,3.0,71.0
3066,75.0,240,240,2.0,90.0
3067,75.0,240,960,5.0,58.0
3068,69.0,0,1920,6.0,58.0
3069,66.0,0,960,7.0,58.0
3070,52.0,0,240,3.0,71.0
3071,83.0,0,360,2.0,90.0
3072,80.0,120,120,2.0,90.0
3073,56.0,240,240,3.0,71.0
3074,76.0,120,156,2.0,90.0
3075,59.0,0,240,3.0,71.0
3076,76.0,240,156,2.0,90.0
3077,64.0,0,192,3.0,71.0
3078,76.0,240,960,5.0,58.0
3079,76.0,0,240,2.0,90.0
3080,52.0,240,240,3.0,71.0
3081,74.0,240,240,2.0,90.0
3082,56.0,0,240,3.0,71.0
3083,59.0,0,240,3.0,71.0
3084,73.0,240,240,2.0,90.0
3085,64.0,240,192,3.0,71.0
3086,72.0,0,192,2.0,90.0
3087,68.0,0,1920,6.0,58.0
3088,74.0,0,960,5.0,58.0
3089,72.0,0,240,2.0,90.0
3090,52.0,240,240,3.0,71.0
3091,73.0,0,192,2.0,90.0
3092,57.0,240,240,3.0,71.0
3093,61.0,240,240,3.0,71.0
3094,64.0,240,192,3.0,71.0
3095,64.0,0,2880,7.0,58.0
3096,73.0,0,960,5.0,58.0
3097,73.0,0,576,2.0,90.0
3098,52.0,240,240,3.0,71.0
3099,81.0,0,240,2.0,90.0
3100,54.0,240,240,3.0,71.0
3101,78.0,240,240,2.0,90.0
3102,57.0,0,240,3.0,71.0
3103,63.0,0,192,3.0,71.0
3104,75.0,240,240,2.0,90.0
3105,75.0,0,960,5.0,58.0
3106,69.0,0,1920,6.0,58.0
3107,66.0,0,960,7.0,58.0
3108,52.0,0,240,3.0,71.0
3109,83.0,0,360,2.0,90.0
3110,68.0,0,384,6.0,54.0
3111,52.0,0,8064,8.0,61.0
3112,76.0,240,384,5.0,54.0
3113,40.0,120,8064,10.0,62.0
3114,64.0,0,384,7.0,54.0
3115,56.0,240,240,3.0,71.0
3116,80.0,120,120,2.0,90.0
3117,76.0,120,156,2.0,90.0
3118,59.0,0,240,3.0,71.0
3119,76.0,240,156,2.0,90.0
3120,64.0,0,192,3.0,71.0
3121,76.0,0,240,2.0,90.0
3122,52.0,240,384,3.0,71.0
3123,74.0,240,240,2.0,90.0
3124,73.0,240,240,2.0,90.0
3125,72.0,240,192,2.0,90.0
3126,72.0,240,240,2.0,90.0
3127,73.0,240,192,2.0,90.0
3128,68.0,0,940,3.0,71.0
3129,65.0,0,940,3.0,71.0
3130,71.0,0,940,3.0,71.0
3131,85.0,240,576,2.0,90.0
3132,83.0,120,96,2.0,90.0
3133,81.0,120,96,2.0,90.0
3134,80.0,120,96,2.0,90.0
3135,78.0,120,96,2.0,90.0
3136,76.0,120,96,2.0,90.0
3137,75.0,120,96,2.0,90.0
3138,73.0,120,96,2.0,90.0
3139,69.0,480,940,3.0,71.0
3140,66.0,0,940,3.0,71.0
3141,75.0,0,60,2.0,90.0
3142,73.0,60,60,2.0,90.0
3143,75.0,60,60,2.0,90.0
3144,73.0,60,60,2.0,90.0
3145,71.0,60,192,2.0,90.0
3146,69.0,0,940,3.0,71.0
3147,66.0,0,940,3.0,71.0
3148,63.0,120,940,3.0,71.0
3149,83.0,240,576,2.0,110.0
3150,81.0,120,96,2.0,90.0
3151,80.0,120,96,2.0,90.0
3152,78.0,120,96,2.0,90.0
3153,76.0,120,96,2.0,90.0
3154,75.0,120,96,2.0,90.0
3155,73.0,120,96,2.0,90.0
3156,71.0,120,96,2.0,90.0
3157,68.0,0,940,3.0,71.0
3158,64.0,480,940,3.0,71.0
3159,73.0,120,60,2.0,90.0
3160,71.0,60,60,2.0,90.0
3161,73.0,60,60,2.0,90.0
3162,71.0,60,60,2.0,90.0
3163,69.0,60,192,2.0,90.0
3164,61.0,0,912,3.0,71.0
3165,64.0,0,912,3.0,71.0
3166,68.0,0,912,3.0,71.0
3167,81.0,240,576,2.0,110.0
3168,80.0,120,96,2.0,90.0
3169,78.0,120,96,2.0,90.0
3170,76.0,120,96,2.0,90.0
3171,75.0,120,96,2.0,90.0
3172,73.0,120,96,2.0,90.0
3173,71.0,120,96,2.0,90.0
3174,66.0,0,912,3.0,71.0
3175,63.0,480,912,3.0,71.0
3176,69.0,120,96,2.0,90.0
3177,68.0,120,128,2.0,80.0
3178,71.0,160,128,2.0,80.0
3179,64.0,0,384,3.0,71.0
3180,76.0,160,128,2.0,80.0
3181,80.0,160,128,2.0,80.0
3182,76.0,160,128,2.0,80.0
3183,83.0,160,128,2.0,80.0
3184,56.0,40,96,4.0,71.0
3185,68.0,0,128,2.0,80.0
3186,71.0,160,128,2.0,80.0
3187,52.0,120,384,4.0,71.0
3188,76.0,160,128,2.0,80.0
3189,80.0,160,128,2.0,80.0
3190,76.0,160,128,2.0,80.0
3191,83.0,160,128,2.0,80.0
3192,56.0,40,96,4.0,71.0
3193,68.0,0,128,2.0,80.0
3194,71.0,160,128,2.0,80.0
3195,52.0,120,384,4.0,71.0
3196,76.0,160,128,2.0,80.0
3197,80.0,160,128,2.0,80.0
3198,76.0,160,128,2.0,80.0
3199,83.0,160,128,2.0,80.0
3200,56.0,40,96,4.0,71.0
3201,83.0,120,128,2.0,80.0
3202,80.0,160,128,2.0,80.0
3203,52.0,0,384,4.0,71.0
3204,76.0,160,128,2.0,80.0
3205,80.0,160,128,2.0,80.0
3206,76.0,160,128,2.0,80.0
3207,71.0,160,128,2.0,80.0
3208,73.0,0,128,2.0,80.0
3209,76.0,160,128,2.0,80.0
3210,57.0,160,384,4.0,71.0
3211,81.0,160,128,2.0,80.0
3212,85.0,160,128,2.0,80.0
3213,81.0,160,128,2.0,80.0
3214,88.0,160,128,2.0,80.0
3215,61.0,40,96,4.0,71.0
3216,73.0,120,128,2.0,80.0
3217,76.0,160,128,2.0,80.0
3218,57.0,0,384,4.0,71.0
3219,81.0,160,128,2.0,80.0
3220,85.0,160,128,2.0,80.0
3221,81.0,160,128,2.0,80.0
3222,88.0,160,128,2.0,80.0
3223,61.0,40,96,4.0,71.0
3224,73.0,120,128,2.0,80.0
3225,76.0,160,128,2.0,80.0
3226,57.0,0,384,4.0,71.0
3227,81.0,160,128,2.0,80.0
3228,85.0,160,128,2.0,80.0
3229,81.0,160,128,2.0,80.0
3230,88.0,160,128,2.0,80.0
3231,61.0,40,96,4.0,71.0
3232,88.0,120,128,2.0,80.0
3233,85.0,160,128,2.0,80.0
3234,57.0,0,384,4.0,71.0
3235,81.0,160,128,2.0,80.0
3236,85.0,160,128,2.0,80.0
3237,81.0,160,128,2.0,80.0
3238,76.0,160,128,2.0,80.0
3239,59.0,0,128,3.0,71.0
3240,64.0,160,128,3.0,71.0
3241,71.0,160,384,2.0,80.0
3242,68.0,160,128,3.0,71.0
3243,59.0,0,128,3.0,71.0
3244,64.0,160,128,3.0,71.0
3245,68.0,160,128,3.0,71.0
3246,59.0,160,128,3.0,71.0
3247,64.0,160,128,3.0,71.0
3248,83.0,160,768,2.0,100.0
3249,68.0,160,128,3.0,71.0
3250,81.0,160,120,2.0,80.0
3251,59.0,0,128,3.0,71.0
3252,80.0,120,120,2.0,80.0
3253,64.0,40,128,3.0,71.0
3254,78.0,80,120,2.0,80.0
3255,68.0,80,128,3.0,71.0
3256,76.0,40,120,2.0,80.0
3257,80.0,0,60,2.0,80.0
3258,78.0,60,60,2.0,80.0
3259,59.0,120,128,3.0,71.0
3260,80.0,60,60,2.0,80.0
3261,78.0,20,60,2.0,80.0
3262,63.0,40,128,3.0,71.0
3263,80.0,60,60,2.0,80.0
3264,78.0,60,60,2.0,80.0
3265,80.0,40,60,2.0,80.0
3266,69.0,20,128,3.0,71.0
3267,78.0,60,60,2.0,80.0
3268,80.0,60,60,2.0,80.0
3269,78.0,60,60,2.0,80.0
3270,59.0,0,128,3.0,71.0
3271,80.0,60,60,2.0,80.0
3272,78.0,20,60,2.0,80.0
3273,63.0,40,128,3.0,71.0
3274,80.0,60,60,2.0,80.0
3275,78.0,60,60,2.0,80.0
3276,80.0,40,60,2.0,80.0
3277,69.0,20,128,3.0,71.0
3278,78.0,60,60,2.0,80.0
3279,80.0,60,60,2.0,80.0
3280,78.0,60,60,2.0,80.0
3281,59.0,0,128,3.0,71.0
3282,80.0,60,60,2.0,80.0
3283,78.0,20,60,2.0,80.0
3284,63.0,40,128,3.0,71.0
3285,80.0,60,60,2.0,80.0
3286,78.0,60,60,2.0,80.0
3287,80.0,40,60,2.0,80.0
3288,69.0,20,128,3.0,71.0
3289,78.0,60,60,2.0,80.0
3290,80.0,60,60,2.0,80.0
3291,78.0,60,60,2.0,80.0
3292,59.0,0,128,3.0,71.0
3293,80.0,60,60,2.0,80.0
3294,78.0,20,60,2.0,80.0
3295,63.0,40,128,3.0,71.0
3296,80.0,60,60,2.0,80.0
3297,78.0,60,60,2.0,80.0
3298,76.0,40,60,2.0,80.0
3299,69.0,20,128,3.0,71.0
3300,78.0,60,60,2.0,80.0
3301,76.0,0,96,2.0,80.0
3302,68.0,120,96,2.0,80.0
3303,76.0,120,96,2.0,80.0
3304,64.0,0,384,3.0,71.0
3305,80.0,120,96,2.0,80.0
3306,83.0,120,96,2.0,80.0
3307,80.0,120,96,2.0,80.0
3308,76.0,120,96,2.0,80.0
3309,56.0,0,96,4.0,71.0
3310,71.0,120,96,2.0,80.0
3311,76.0,0,96,2.0,80.0
3312,68.0,120,96,2.0,80.0
3313,76.0,120,96,2.0,80.0
3314,52.0,120,384,4.0,71.0
3315,80.0,120,96,2.0,80.0
3316,83.0,120,96,2.0,80.0
3317,80.0,120,96,2.0,80.0
3318,76.0,120,96,2.0,80.0
3319,71.0,120,96,2.0,80.0
3320,56.0,0,96,4.0,71.0
3321,76.0,120,96,2.0,80.0
3322,68.0,120,96,2.0,80.0
3323,76.0,120,96,2.0,80.0
3324,52.0,0,384,4.0,71.0
3325,80.0,120,96,2.0,80.0
3326,83.0,120,96,2.0,80.0
3327,80.0,120,96,2.0,80.0
3328,76.0,120,96,2.0,80.0
3329,64.0,0,96,3.0,71.0
3330,71.0,120,96,2.0,80.0
3331,83.0,0,96,2.0,80.0
3332,81.0,120,96,2.0,80.0
3333,80.0,120,96,2.0,80.0
3334,68.0,120,384,3.0,71.0
3335,78.0,120,96,2.0,80.0
3336,76.0,120,96,2.0,80.0
3337,75.0,120,96,2.0,80.0
3338,73.0,120,96,2.0,80.0
3339,71.0,120,96,2.0,80.0
3340,71.0,0,3840,6.0,58.0
3341,52.0,0,3840,8.0,58.0
3342,68.0,0,3840,7.0,58.0
3343,40.0,60,3840,10.0,58.0
3344,81.0,0,96,2.0,80.0
3345,76.0,120,96,2.0,80.0
3346,81.0,120,96,2.0,80.0
3347,57.0,120,384,4.0,71.0
3348,85.0,120,96,2.0,80.0
3349,88.0,120,96,2.0,80.0
3350,85.0,120,96,2.0,80.0
3351,81.0,120,96,2.0,80.0
3352,76.0,120,96,2.0,80.0
3353,61.0,0,96,4.0,71.0
3354,81.0,120,96,2.0,80.0
3355,76.0,120,96,2.0,80.0
3356,81.0,120,96,2.0,80.0
3357,57.0,0,384,4.0,71.0
3358,85.0,120,96,2.0,80.0
3359,88.0,120,96,2.0,80.0
3360,85.0,120,96,2.0,80.0
3361,81.0,120,96,2.0,80.0
3362,76.0,120,96,2.0,80.0
3363,61.0,0,96,4.0,71.0
3364,81.0,120,96,2.0,80.0
3365,76.0,120,96,2.0,80.0
3366,81.0,120,96,2.0,80.0
3367,57.0,0,384,4.0,71.0
3368,85.0,120,96,2.0,80.0
3369,88.0,120,96,2.0,80.0
3370,85.0,120,96,2.0,80.0
3371,81.0,120,96,2.0,80.0
3372,76.0,0,96,2.0,80.0
3373,69.0,120,96,3.0,71.0
3374,88.0,120,96,2.0,80.0
3375,87.0,120,96,2.0,80.0
3376,85.0,120,96,2.0,80.0
3377,73.0,0,384,3.0,71.0
3378,83.0,120,96,2.0,80.0
3379,81.0,120,96,2.0,80.0
3380,80.0,120,96,2.0,80.0
3381,78.0,120,96,2.0,80.0
3382,76.0,120,96,2.0,80.0
3383,73.0,0,3840,6.0,58.0
3384,57.0,0,3840,8.0,58.0
3385,45.0,0,3840,10.0,58.0
3386,69.0,0,3840,7.0,58.0
3387,76.0,0,7680,5.0,62.0
3388,47.0,0,96,3.0,90.0
3389,56.0,120,96,3.0,90.0
3390,52.0,120,96,3.0,90.0
3391,56.0,120,96,3.0,90.0
3392,47.0,120,96,3.0,90.0
3393,56.0,120,96,3.0,90.0
3394,47.0,0,768,8.0,90.0
3395,35.0,0,768,10.0,90.0
3396,59.0,0,768,5.0,90.0
3397,59.0,120,768,6.0,80.0
3398,59.0,0,768,7.0,80.0
3399,52.0,120,96,3.0,90.0
3400,56.0,120,96,3.0,90.0
3401,47.0,120,96,3.0,90.0
3402,59.0,0,1152,2.0,100.0
3403,56.0,120,96,3.0,90.0
3404,61.0,120,96,2.0,105.0
3405,52.0,0,96,3.0,90.0
3406,63.0,120,96,2.0,105.0
3407,56.0,0,96,3.0,90.0
3408,64.0,120,96,2.0,105.0
3409,47.0,0,96,3.0,90.0
3410,56.0,120,96,3.0,90.0
3411,66.0,0,96,2.0,105.0
3412,68.0,120,96,2.0,105.0
3413,52.0,0,96,3.0,90.0
3414,69.0,120,96,2.0,105.0
3415,56.0,0,96,3.0,90.0
3416,71.0,120,192,2.0,105.0
3417,73.0,240,96,2.0,105.0
3418,47.0,0,384,3.0,80.0
3419,75.0,120,96,2.0,105.0
3420,76.0,120,96,2.0,105.0
3421,78.0,120,96,2.0,105.0
3422,80.0,120,96,2.0,105.0
3423,81.0,120,96,2.0,105.0
3424,83.0,120,96,2.0,105.0
3425,82.0,120,96,2.0,90.0
3426,83.0,120,96,2.0,90.0
3427,82.0,120,96,2.0,90.0
3428,83.0,120,96,2.0,90.0
3429,82.0,120,96,2.0,90.0
3430,83.0,120,96,2.0,90.0
3431,82.0,120,96,2.0,90.0
3432,83.0,0,128,2.0,90.0
3433,80.0,160,128,2.0,90.0
3434,59.0,0,384,3.0,80.0
3435,64.0,0,384,3.0,80.0
3436,68.0,120,384,3.0,80.0
3437,59.0,0,384,7.0,62.0
3438,68.0,0,156,6.0,62.0
3439,76.0,80,156,5.0,62.0
3440,88.0,80,128,2.0,90.0
3441,83.0,160,128,2.0,90.0
3442,76.0,0,156,5.0,62.0
3443,68.0,0,156,6.0,62.0
3444,80.0,160,128,2.0,90.0
3445,76.0,80,156,5.0,62.0
3446,68.0,0,156,6.0,62.0
3447,76.0,80,128,2.0,90.0
3448,83.0,0,128,2.0,90.0
3449,80.0,160,128,2.0,90.0
3450,68.0,0,384,3.0,80.0
3451,64.0,160,384,3.0,80.0
3452,59.0,0,384,3.0,80.0
3453,59.0,0,384,7.0,62.0
3454,76.0,80,156,5.0,62.0
3455,68.0,0,156,6.0,62.0
3456,88.0,80,128,2.0,90.0
3457,83.0,0,128,2.0,90.0
3458,76.0,0,156,5.0,62.0
3459,68.0,160,156,6.0,62.0
3460,80.0,160,128,2.0,90.0
3461,76.0,80,156,5.0,62.0
3462,68.0,0,156,6.0,62.0
3463,76.0,80,128,2.0,90.0
3464,80.0,160,60,2.0,90.0
3465,59.0,0,96,3.0,80.0
3466,78.0,60,60,2.0,90.0
3467,80.0,60,60,2.0,90.0
3468,47.0,0,192,10.0,60.0
3469,59.0,0,192,7.0,62.0
3470,59.0,0,192,8.0,62.0
3471,69.0,0,96,3.0,80.0
3472,78.0,60,60,2.0,90.0
3473,80.0,0,60,2.0,90.0
3474,63.0,0,96,3.0,80.0
3475,78.0,60,60,2.0,90.0
3476,80.0,0,60,2.0,90.0
3477,59.0,0,192,7.0,68.0
3478,47.0,0,192,10.0,65.0
3479,59.0,0,192,8.0,68.0
3480,69.0,60,96,3.0,80.0
3481,78.0,60,60,2.0,90.0
3482,80.0,0,60,2.0,90.0
3483,59.0,0,96,3.0,80.0
3484,78.0,60,60,2.0,90.0
3485,75.0,0,384,5.0,62.0
3486,69.0,60,384,6.0,62.0
3487,80.0,0,60,2.0,90.0
3488,47.0,60,192,10.0,70.0
3489,59.0,0,192,7.0,73.0
3490,59.0,0,192,8.0,72.0
3491,69.0,60,96,3.0,80.0
3492,78.0,60,60,2.0,90.0
3493,80.0,0,60,2.0,90.0
3494,63.0,0,96,3.0,80.0
3495,78.0,60,60,2.0,90.0
3496,80.0,60,60,2.0,90.0
3497,75.0,0,192,5.0,62.0
3498,59.0,60,192,8.0,77.0
3499,47.0,0,192,10.0,75.0
3500,59.0,0,192,7.0,78.0
3501,69.0,0,192,6.0,72.0
3502,69.0,0,96,3.0,80.0
3503,78.0,60,60,2.0,90.0
3504,80.0,0,60,2.0,90.0
3505,59.0,0,96,3.0,80.0
3506,78.0,60,60,2.0,90.0
3507,80.0,0,60,2.0,90.0
3508,35.0,0,192,10.0,81.0
3509,59.0,0,192,7.0,83.0
3510,47.0,60,192,8.0,81.0
3511,69.0,60,96,3.0,80.0
3512,78.0,60,60,2.0,90.0
3513,80.0,60,60,2.0,90.0
3514,63.0,0,96,3.0,80.0
3515,78.0,60,60,2.0,90.0
3516,80.0,0,60,2.0,90.0
3517,35.0,0,192,10.0,86.0
3518,47.0,0,192,8.0,86.0
3519,59.0,0,192,7.0,88.0
3520,69.0,60,96,3.0,80.0
3521,78.0,60,60,2.0,90.0
3522,80.0,0,60,2.0,90.0
3523,59.0,60,96,3.0,80.0
3524,78.0,60,60,2.0,90.0
3525,57.0,0,384,6.0,84.0
3526,63.0,0,384,5.0,90.0
3527,80.0,60,60,2.0,90.0
3528,59.0,0,192,7.0,93.0
3529,47.0,0,192,8.0,90.0
3530,35.0,0,192,10.0,91.0
3531,69.0,0,96,3.0,80.0
3532,78.0,60,60,2.0,90.0
3533,80.0,60,60,2.0,90.0
3534,63.0,0,96,3.0,80.0
3535,78.0,60,60,2.0,90.0
3536,76.0,60,60,2.0,90.0
3537,47.0,0,192,8.0,95.0
3538,63.0,0,192,5.0,90.0
3539,35.0,0,192,10.0,96.0
3540,59.0,0,192,7.0,98.0
3541,57.0,0,192,6.0,96.0
3542,69.0,0,96,3.0,80.0
3543,78.0,60,60,2.0,90.0
3544,64.0,0,192,5.0,127.0
3545,66.0,240,96,5.0,117.0
3546,68.0,0,384,3.0,80.0
3547,56.0,0,384,6.0,105.0
3548,76.0,60,384,2.0,90.0
3549,64.0,0,384,3.0,80.0
3550,40.0,0,384,10.0,105.0
3551,52.0,0,384,8.0,105.0
3552,59.0,0,384,7.0,105.0
3553,68.0,120,96,5.0,117.0
3554,69.0,120,96,5.0,117.0
3555,71.0,120,96,5.0,117.0
3556,73.0,120,96,5.0,117.0
3557,75.0,120,96,5.0,117.0
3558,76.0,120,96,5.0,117.0
3559,78.0,120,96,5.0,117.0
3560,80.0,120,96,5.0,117.0
3561,81.0,120,96,5.0,117.0
3562,83.0,0,96,5.0,117.0
3563,59.0,120,144,8.0,105.0
3564,66.0,0,144,6.0,105.0
3565,78.0,0,144,0.0,90.0
3566,63.0,0,144,7.0,105.0
3567,47.0,0,144,10.0,105.0
3568,75.0,0,144,0.0,90.0
3569,71.0,0,144,1.0,90.0
3570,81.0,120,96,5.0,117.0
3571,80.0,0,96,5.0,117.0
3572,81.0,0,144,0.0,90.0
3573,69.0,0,144,7.0,105.0
3574,71.0,120,144,1.0,90.0
3575,75.0,0,144,6.0,105.0
3576,59.0,0,144,8.0,105.0
3577,78.0,0,144,0.0,90.0
3578,47.0,0,144,10.0,105.0
3579,78.0,120,96,5.0,117.0
3580,76.0,120,144,0.0,90.0
3581,80.0,0,144,0.0,90.0
3582,68.0,0,144,7.0,105.0
3583,64.0,0,144,1.0,90.0
3584,49.0,0,144,10.0,105.0
3585,76.0,0,144,6.0,105.0
3586,61.0,0,144,8.0,105.0
3587,76.0,0,144,5.0,105.0
3588,80.0,0,144,0.0,90.0
3589,49.0,240,144,10.0,105.0
3590,64.0,0,144,1.0,90.0
3591,61.0,0,144,8.0,105.0
3592,76.0,0,144,5.0,105.0
3593,68.0,0,144,7.0,105.0
3594,76.0,0,144,0.0,90.0
3595,76.0,0,144,6.0,105.0
3596,57.0,0,144,8.0,105.0
3597,81.0,240,144,0.0,90.0
3598,69.0,0,144,1.0,90.0
3599,76.0,0,144,6.0,105.0
3600,69.0,0,144,7.0,105.0
3601,85.0,0,144,0.0,90.0
3602,85.0,0,144,5.0,105.0
3603,73.0,0,144,1.0,90.0
3604,45.0,0,144,10.0,105.0
3605,85.0,240,144,5.0,105.0
3606,69.0,0,144,7.0,105.0
3607,73.0,0,144,1.0,90.0
3608,69.0,0,144,1.0,90.0
3609,57.0,0,144,8.0,105.0
3610,76.0,0,144,6.0,105.0
3611,81.0,0,144,0.0,90.0
3612,85.0,0,144,0.0,90.0
3613,45.0,0,144,10.0,105.0
3614,83.0,0,144,5.0,105.0
3615,68.0,0,144,7.0,105.0
3616,59.0,0,144,8.0,105.0
3617,71.0,0,144,1.0,90.0
3618,76.0,0,144,6.0,105.0
3619,80.0,240,144,0.0,90.0
3620,47.0,0,144,10.0,105.0
3621,83.0,0,144,0.0,90.0
3622,68.0,0,144,7.0,105.0
3623,83.0,0,144,0.0,90.0
3624,80.0,0,144,0.0,90.0
3625,47.0,0,144,10.0,105.0
3626,59.0,0,144,8.0,105.0
3627,83.0,0,144,5.0,105.0
3628,71.0,240,144,1.0,90.0
3629,76.0,0,144,6.0,105.0
3630,66.0,0,144,7.0,105.0
3631,71.0,0,144,1.0,90.0
3632,35.0,240,144,10.0,105.0
3633,47.0,0,144,8.0,105.0
3634,75.0,0,144,5.0,105.0
3635,69.0,0,144,6.0,105.0
3636,75.0,0,144,0.0,90.0
3637,78.0,0,144,0.0,90.0
3638,75.0,0,144,5.0,105.0
3639,66.0,240,144,7.0,105.0
3640,47.0,0,144,8.0,105.0
3641,75.0,0,144,0.0,90.0
3642,69.0,0,144,6.0,105.0
3643,35.0,0,144,10.0,105.0
3644,71.0,0,144,1.0,90.0
3645,78.0,0,144,0.0,90.0
3646,76.0,0,96,5.0,127.0
3647,64.0,120,96,5.0,117.0
3648,66.0,120,96,5.0,117.0
3649,40.0,0,384,10.0,105.0
3650,59.0,0,384,7.0,105.0
3651,52.0,0,384,8.0,105.0
3652,76.0,0,384,0.0,90.0
3653,71.0,0,384,1.0,90.0
3654,64.0,0,384,1.0,90.0
3655,68.0,240,384,6.0,105.0
3656,68.0,120,96,5.0,117.0
3657,69.0,120,96,5.0,117.0
3658,71.0,120,96,5.0,117.0
3659,73.0,120,96,5.0,117.0
3660,75.0,120,96,5.0,117.0
3661,76.0,120,96,5.0,117.0
3662,78.0,120,96,5.0,117.0
3663,80.0,120,96,5.0,117.0
3664,81.0,120,96,5.0,117.0
3665,83.0,0,96,5.0,117.0
3666,66.0,120,144,6.0,105.0
3667,71.0,0,144,1.0,90.0
3668,63.0,0,144,7.0,105.0
3669,78.0,0,144,0.0,90.0
3670,75.0,0,144,0.0,90.0
3671,47.0,0,144,10.0,105.0
3672,59.0,0,144,8.0,105.0
3673,81.0,120,96,5.0,117.0
3674,80.0,0,96,5.0,117.0
3675,59.0,0,144,8.0,105.0
3676,78.0,0,144,0.0,90.0
3677,81.0,0,144,0.0,90.0
3678,47.0,120,144,10.0,105.0
3679,69.0,0,144,7.0,105.0
3680,75.0,0,144,6.0,105.0
3681,71.0,0,144,1.0,90.0
3682,78.0,120,96,5.0,117.0
3683,76.0,0,144,5.0,105.0
3684,61.0,0,144,8.0,105.0
3685,64.0,0,144,1.0,90.0
3686,68.0,0,144,7.0,105.0
3687,76.0,0,144,0.0,90.0
3688,76.0,120,144,6.0,105.0
3689,49.0,0,144,10.0,105.0
3690,80.0,0,144,0.0,90.0
3691,49.0,0,144,10.0,105.0
3692,64.0,0,144,1.0,90.0
3693,76.0,0,144,0.0,90.0
3694,76.0,240,144,6.0,105.0
3695,76.0,0,144,5.0,105.0
3696,61.0,0,144,8.0,105.0
3697,68.0,0,144,7.0,105.0
3698,80.0,0,144,0.0,90.0
3699,85.0,0,144,5.0,105.0
3700,57.0,0,144,8.0,105.0
3701,85.0,0,144,0.0,90.0
3702,81.0,240,144,0.0,90.0
3703,76.0,0,144,6.0,105.0
3704,69.0,0,144,1.0,90.0
3705,45.0,0,144,10.0,105.0
3706,73.0,0,144,1.0,90.0
3707,69.0,0,144,7.0,105.0
3708,76.0,0,144,6.0,105.0
3709,85.0,0,144,5.0,105.0
3710,69.0,240,144,1.0,90.0
3711,69.0,0,144,7.0,105.0
3712,73.0,0,144,1.0,90.0
3713,45.0,0,144,10.0,105.0
3714,57.0,0,144,8.0,105.0
3715,85.0,0,144,0.0,90.0
3716,81.0,0,144,0.0,90.0
3717,80.0,0,144,0.0,90.0
3718,71.0,0,144,1.0,90.0
3719,83.0,0,144,5.0,105.0
3720,76.0,0,144,6.0,105.0
3721,68.0,0,144,7.0,105.0
3722,47.0,0,144,10.0,105.0
3723,83.0,0,144,0.0,90.0
3724,59.0,240,144,8.0,105.0
3725,47.0,0,144,10.0,105.0
3726,83.0,0,144,5.0,105.0
3727,80.0,0,144,0.0,90.0
3728,83.0,240,144,0.0,90.0
3729,68.0,0,144,7.0,105.0
3730,71.0,0,144,1.0,90.0
3731,76.0,0,144,6.0,105.0
3732,59.0,0,144,8.0,105.0
3733,71.0,0,144,1.0,90.0
3734,75.0,0,144,0.0,90.0
3735,35.0,0,144,10.0,105.0
3736,78.0,0,144,0.0,90.0
3737,69.0,240,144,6.0,105.0
3738,47.0,0,144,8.0,105.0
3739,66.0,0,144,7.0,105.0
3740,75.0,0,144,5.0,105.0
3741,66.0,0,144,7.0,105.0
3742,75.0,0,144,0.0,90.0
3743,78.0,0,144,0.0,90.0
3744,47.0,240,144,8.0,105.0
3745,69.0,0,144,6.0,105.0
3746,75.0,0,144,5.0,105.0
3747,71.0,0,144,1.0,90.0
3748,35.0,0,144,10.0,105.0
3749,68.0,0,384,6.0,105.0
3750,64.0,0,384,7.0,105.0
3751,76.0,0,384,0.0,90.0
3752,76.0,240,384,5.0,105.0
3753,52.0,0,384,8.0,105.0
3754,71.0,0,384,1.0,90.0
3755,64.0,0,384,1.0,90.0
3756,40.0,0,384,10.0,105.0
3757,83.0,0,120,5.0,90.0
3758,83.0,480,120,6.0,105.0
3759,80.0,0,72,6.0,90.0
3760,80.0,120,72,5.0,90.0
3761,83.0,120,72,5.0,90.0
3762,83.0,0,72,6.0,90.0
3763,80.0,120,72,5.0,90.0
3764,80.0,0,72,6.0,90.0
3765,76.0,0,384,6.0,90.0
3766,76.0,120,384,5.0,90.0
3767,80.0,480,120,5.0,90.0
3768,80.0,0,120,6.0,90.0
3769,76.0,120,72,6.0,90.0
3770,76.0,0,72,5.0,90.0
3771,80.0,0,72,6.0,90.0
3772,80.0,120,72,5.0,90.0
3773,76.0,0,72,5.0,90.0
3774,76.0,120,72,6.0,90.0
3775,71.0,120,384,5.0,90.0
3776,71.0,0,384,6.0,90.0
3777,52.0,0,120,10.0,105.0
3778,76.0,0,120,6.0,90.0
3779,76.0,0,120,5.0,90.0
3780,64.0,0,120,8.0,90.0
3781,76.0,0,120,7.0,80.0
3782,71.0,0,72,6.0,90.0
3783,47.0,0,72,10.0,105.0
3784,71.0,120,72,5.0,90.0
3785,59.0,0,72,8.0,90.0
3786,71.0,0,72,7.0,80.0
3787,71.0,0,234,1.0,90.0
3788,76.0,0,234,0.0,90.0
3789,68.0,0,234,0.0,90.0
3790,64.0,480,234,1.0,90.0
3791,76.0,0,72,7.0,80.0
3792,76.0,0,72,6.0,90.0
3793,52.0,120,72,10.0,105.0
3794,64.0,0,72,8.0,90.0
3795,76.0,0,72,5.0,90.0
3796,59.0,0,72,8.0,90.0
3797,47.0,0,72,10.0,105.0
3798,71.0,0,72,7.0,80.0
3799,71.0,0,72,6.0,90.0
3800,71.0,0,72,5.0,90.0
3801,76.0,0,78,0.0,90.0
3802,68.0,0,78,0.0,90.0
3803,71.0,120,78,1.0,90.0
3804,64.0,0,78,1.0,90.0
3805,76.0,0,312,0.0,90.0
3806,68.0,0,312,0.0,90.0
3807,71.0,0,312,1.0,90.0
3808,64.0,0,312,1.0,90.0
3809,44.0,0,384,10.0,105.0
3810,68.0,0,384,6.0,90.0
3811,68.0,0,384,5.0,90.0
3812,56.0,120,384,8.0,90.0
3813,68.0,0,384,7.0,80.0
3814,71.0,0,120,7.0,80.0
3815,59.0,480,120,8.0,90.0
3816,71.0,0,120,6.0,90.0
3817,71.0,0,120,5.0,90.0
3818,47.0,0,120,10.0,105.0
3819,44.0,0,72,10.0,105.0
3820,56.0,120,72,8.0,90.0
3821,68.0,0,72,6.0,90.0
3822,68.0,0,72,5.0,90.0
3823,68.0,0,72,7.0,80.0
3824,68.0,0,312,0.0,90.0
3825,76.0,0,312,0.0,90.0
3826,71.0,0,72,7.0,80.0
3827,71.0,120,72,6.0,90.0
3828,71.0,0,312,1.0,90.0
3829,64.0,0,312,1.0,90.0
3830,47.0,0,72,10.0,105.0
3831,71.0,0,72,5.0,90.0
3832,59.0,0,72,8.0,90.0
3833,68.0,0,72,6.0,90.0
3834,44.0,0,72,10.0,105.0
3835,68.0,0,72,5.0,90.0
3836,56.0,0,72,8.0,90.0
3837,68.0,120,72,7.0,80.0
3838,64.0,120,576,5.0,90.0
3839,64.0,0,576,6.0,90.0
3840,64.0,0,576,7.0,80.0
3841,52.0,0,576,8.0,90.0
3842,40.0,0,576,10.0,105.0
3843,64.0,0,768,1.0,90.0
3844,68.0,0,768,0.0,90.0
3845,76.0,0,768,0.0,90.0
3846,71.0,0,768,1.0,90.0
3847,68.0,720,96,7.0,80.0
3848,44.0,0,96,10.0,105.0
3849,68.0,0,96,5.0,90.0
3850,56.0,0,96,8.0,90.0
3851,68.0,0,96,6.0,90.0
3852,47.0,0,96,10.0,105.0
3853,71.0,0,96,5.0,90.0
3854,71.0,0,96,6.0,90.0
3855,71.0,0,96,7.0,80.0
3856,59.0,120,96,8.0,90.0
3857,64.0,0,288,1.0,90.0
3858,80.0,0,288,0.0,90.0
3859,76.0,0,288,0.0,90.0
3860,71.0,120,288,1.0,90.0
3861,76.0,0,312,6.0,90.0
3862,76.0,0,312,5.0,90.0
3863,64.0,0,360,8.0,90.0
3864,76.0,0,360,7.0,80.0
3865,52.0,0,360,10.0,105.0
3866,71.0,0,288,1.0,90.0
3867,83.0,0,288,0.0,90.0
3868,80.0,0,288,0.0,90.0
3869,64.0,0,288,1.0,90.0
3870,64.0,0,312,6.0,90.0
3871,71.0,480,312,5.0,90.0
3872,80.0,0,312,5.0,90.0
3873,64.0,0,312,5.0,90.0
3874,71.0,0,312,6.0,90.0
3875,80.0,0,312,6.0,90.0
3876,52.0,0,360,10.0,105.0
3877,64.0,0,360,8.0,90.0
3878,64.0,0,360,7.0,80.0
3879,52.0,0,384,7.0,80.0
3880,71.0,0,384,1.0,90.0
3881,40.0,480,384,10.0,105.0
3882,64.0,0,384,5.0,90.0
3883,76.0,0,384,0.0,90.0
3884,71.0,0,384,5.0,90.0
3885,76.0,0,384,6.0,90.0
3886,71.0,0,384,6.0,90.0
3887,64.0,0,384,6.0,90.0
3888,52.0,0,384,8.0,90.0
3889,76.0,0,384,5.0,90.0
3890,64.0,0,384,1.0,90.0
3891,71.0,840,120,2.0,90.0
3892,83.0,120,312,2.0,90.0
3893,83.0,480,312,2.0,90.0
3894,83.0,480,720,2.0,90.0
3895,81.0,240,60,2.0,90.0
3896,80.0,60,60,2.0,90.0
3897,68.0,0,384,3.0,71.0
3898,78.0,60,60,2.0,90.0
3899,76.0,60,60,2.0,90.0
3900,75.0,0,312,2.0,90.0
3901,69.0,0,384,3.0,71.0
3902,66.0,60,384,3.0,71.0
3903,71.0,480,864,3.0,71.0
3904,76.0,0,312,2.0,90.0
3905,64.0,480,384,3.0,71.0
3906,68.0,0,384,3.0,71.0
3907,71.0,0,384,3.0,71.0
3908,78.0,0,384,2.0,86.0
3909,71.0,0,384,3.0,66.0
3910,66.0,0,384,3.0,66.0
3911,63.0,480,384,3.0,66.0
3912,71.0,840,120,2.0,90.0
3913,83.0,120,312,2.0,90.0
3914,83.0,480,312,2.0,90.0
3915,83.0,480,720,2.0,90.0
3916,81.0,240,80,2.0,90.0
3917,69.0,0,384,3.0,71.0
3918,80.0,80,80,2.0,90.0
3919,78.0,80,80,2.0,90.0
3920,76.0,0,312,2.0,90.0
3921,68.0,80,384,3.0,71.0
3922,71.0,480,864,3.0,71.0
3923,78.0,480,312,2.0,90.0
3924,75.0,0,312,2.0,90.0
3925,66.0,0,384,3.0,71.0
3926,69.0,0,384,3.0,71.0
3927,71.0,0,384,3.0,71.0
3928,80.0,480,384,2.0,86.0
3929,76.0,0,384,2.0,86.0
3930,71.0,0,384,3.0,67.0
3931,68.0,0,384,3.0,67.0
3932,64.0,0,384,3.0,67.0
3933,71.0,840,120,2.0,90.0
3934,83.0,120,312,2.0,90.0
3935,83.0,480,312,2.0,90.0
3936,52.0,480,240,3.0,71.0
3937,56.0,240,240,3.0,71.0
3938,83.0,0,480,2.0,90.0
3939,81.0,0,120,2.0,90.0
3940,59.0,240,240,3.0,71.0
3941,80.0,120,120,2.0,90.0
3942,78.0,0,120,2.0,90.0
3943,64.0,120,192,3.0,71.0
3944,76.0,120,96,2.0,90.0
3945,52.0,120,240,3.0,71.0
3946,56.0,240,240,3.0,71.0
3947,88.0,0,480,2.0,90.0
3948,87.0,240,120,2.0,90.0
3949,85.0,120,120,2.0,90.0
3950,59.0,0,240,3.0,71.0
3951,83.0,0,120,2.0,90.0
3952,64.0,120,192,3.0,71.0
3953,81.0,120,96,2.0,90.0
3954,52.0,120,240,3.0,71.0
3955,83.0,0,480,2.0,90.0
3956,56.0,240,240,3.0,71.0
3957,81.0,240,120,2.0,90.0
3958,80.0,120,120,2.0,90.0
3959,59.0,0,240,3.0,71.0
3960,78.0,120,120,2.0,90.0
3961,64.0,0,192,3.0,71.0
3962,76.0,120,96,2.0,90.0
3963,52.0,0,240,3.0,71.0
3964,88.0,120,480,2.0,90.0
3965,56.0,240,240,3.0,71.0
3966,87.0,240,120,2.0,90.0
3967,85.0,120,120,2.0,90.0
3968,59.0,0,240,3.0,71.0
3969,83.0,120,120,2.0,90.0
3970,64.0,0,192,3.0,71.0
3971,81.0,120,96,2.0,90.0
3972,52.0,0,384,3.0,71.0
3973,83.0,120,480,2.0,90.0
3974,81.0,480,120,2.0,90.0
3975,80.0,120,120,2.0,90.0
3976,78.0,120,120,2.0,90.0
3977,76.0,120,96,2.0,90.0
3978,75.0,120,312,2.0,90.0
3979,76.0,480,312,2.0,90.0
3980,61.0,0,384,3.0,71.0
3981,70.0,0,384,3.0,71.0
3982,59.0,0,384,3.0,71.0
3983,80.0,480,480,2.0,90.0
3984,64.0,0,480,3.0,71.0
3985,78.0,480,192,2.0,87.0
3986,63.0,0,384,3.0,67.0
3987,59.0,360,120,2.0,90.0
3988,71.0,120,312,2.0,90.0
3989,71.0,480,312,2.0,90.0
3990,71.0,480,720,2.0,90.0
3991,69.0,240,60,2.0,90.0
3992,68.0,60,60,2.0,90.0
3993,66.0,60,60,2.0,90.0
3994,56.0,480,480,4.0,62.0
3995,59.0,0,480,7.0,62.0
3996,56.0,0,480,8.0,62.0
3997,64.0,60,60,2.0,90.0
3998,44.0,0,480,10.0,62.0
3999,71.0,0,480,6.0,62.0
4000,83.0,0,480,5.0,62.0
4001,42.0,60,240,10.0,62.0
4002,57.0,0,240,4.0,62.0
4003,54.0,0,240,4.0,62.0
4004,75.0,0,240,5.0,62.0
4005,63.0,0,240,6.0,62.0
4006,54.0,0,240,8.0,62.0
4007,57.0,0,240,7.0,62.0
4008,63.0,0,288,2.0,90.0
4009,59.0,0,768,3.0,71.0
4010,64.0,0,240,6.0,62.0
4011,56.0,0,240,4.0,62.0
4012,56.0,0,240,7.0,62.0
4013,52.0,0,240,8.0,62.0
4014,40.0,0,240,10.0,62.0
4015,52.0,0,240,4.0,62.0
4016,76.0,0,240,5.0,62.0
4017,64.0,0,288,2.0,90.0
4018,59.0,480,384,3.0,71.0
4019,78.0,0,384,5.0,62.0
4020,51.0,0,384,8.0,62.0
4021,54.0,0,384,4.0,62.0
4022,57.0,0,384,7.0,62.0
4023,66.0,0,384,6.0,62.0
4024,59.0,0,384,3.0,67.0
4025,39.0,0,384,10.0,62.0
4026,66.0,0,384,2.0,86.0
4027,51.0,480,384,4.0,62.0
4028,59.0,840,120,2.0,90.0
4029,71.0,120,144,2.0,90.0
4030,71.0,240,144,2.0,90.0
4031,71.0,240,144,2.0,90.0
4032,71.0,240,144,2.0,90.0
4033,71.0,240,720,2.0,90.0
4034,69.0,240,80,2.0,90.0
4035,68.0,80,80,2.0,90.0
4036,57.0,0,480,8.0,62.0
4037,83.0,0,480,5.0,62.0
4038,45.0,0,480,10.0,62.0
4039,66.0,80,80,2.0,90.0
4040,57.0,0,480,4.0,62.0
4041,71.0,0,480,6.0,62.0
4042,63.0,480,480,7.0,62.0
4043,56.0,0,240,4.0,62.0
4044,64.0,0,240,6.0,62.0
4045,44.0,0,240,10.0,62.0
4046,56.0,80,240,8.0,62.0
4047,64.0,0,240,7.0,62.0
4048,76.0,0,240,5.0,62.0
4049,59.0,0,768,3.0,71.0
4050,64.0,0,288,2.0,90.0
4051,66.0,0,240,6.0,62.0
4052,54.0,0,240,8.0,62.0
4053,57.0,0,240,7.0,62.0
4054,54.0,0,240,4.0,62.0
4055,57.0,0,240,4.0,62.0
4056,78.0,0,240,5.0,62.0
4057,42.0,0,240,10.0,62.0
4058,66.0,0,288,2.0,90.0
4059,63.0,0,384,3.0,71.0
4060,59.0,480,384,3.0,71.0
4061,59.0,0,384,3.0,67.0
4062,68.0,0,384,2.0,80.0
4063,64.0,0,384,3.0,67.0
4064,68.0,0,384,6.0,62.0
4065,80.0,0,384,5.0,62.0
4066,52.0,480,384,4.0,62.0
4067,52.0,0,384,8.0,62.0
4068,56.0,0,384,4.0,62.0
4069,40.0,0,384,10.0,62.0
4070,59.0,0,384,7.0,62.0
4071,59.0,840,120,2.0,80.0
4072,71.0,120,144,2.0,80.0
4073,71.0,240,144,2.0,80.0
4074,71.0,240,144,2.0,80.0
4075,71.0,240,144,2.0,80.0
4076,40.0,0,240,3.0,62.0
4077,44.0,240,240,3.0,62.0
4078,71.0,0,480,2.0,80.0
4079,69.0,240,120,2.0,80.0
4080,68.0,120,120,2.0,80.0
4081,47.0,0,240,3.0,62.0
4082,66.0,0,120,2.0,80.0
4083,52.0,120,192,3.0,62.0
4084,64.0,120,96,2.0,80.0
4085,83.0,0,960,0.0,62.0
4086,80.0,0,960,0.0,62.0
4087,40.0,120,240,3.0,62.0
4088,76.0,0,480,2.0,80.0
4089,45.0,240,240,3.0,62.0
4090,75.0,240,120,2.0,80.0
4091,73.0,120,120,2.0,80.0
4092,49.0,0,240,3.0,62.0
4093,71.0,120,120,2.0,80.0
4094,52.0,0,192,3.0,62.0
4095,69.0,120,96,2.0,80.0
4096,85.0,0,940,0.0,62.0
4097,81.0,0,940,0.0,62.0
4098,70.0,0,120,2.0,80.0
4099,71.0,120,120,2.0,80.0
4100,40.0,120,240,3.0,62.0
4101,73.0,120,120,2.0,80.0
4102,44.0,0,240,3.0,62.0
4103,71.0,120,120,2.0,80.0
4104,69.0,0,120,2.0,80.0
4105,47.0,120,240,3.0,62.0
4106,68.0,120,120,2.0,80.0
4107,66.0,0,120,2.0,80.0
4108,52.0,120,192,3.0,62.0
4109,64.0,120,96,2.0,80.0
4110,80.0,0,960,0.0,62.0
4111,83.0,0,960,0.0,62.0
4112,75.0,120,120,2.0,80.0
4113,40.0,0,240,3.0,62.0
4114,76.0,120,120,2.0,80.0
4115,78.0,0,120,2.0,80.0
4116,45.0,120,240,3.0,62.0
4117,76.0,120,120,2.0,80.0
4118,75.0,0,120,2.0,80.0
4119,49.0,120,240,3.0,62.0
4120,73.0,120,120,2.0,80.0
4121,71.0,0,120,2.0,80.0
4122,52.0,120,192,3.0,62.0
4123,64.0,0,3802,1.0,62.0
4124,52.0,240,3802,1.0,62.0
4125,69.0,120,96,2.0,80.0
4126,85.0,0,940,0.0,62.0
4127,81.0,0,940,0.0,62.0
4128,71.0,0,360,2.0,80.0
4129,40.0,120,384,3.0,62.0
4130,68.0,360,96,2.0,80.0
4131,83.0,0,480,0.0,62.0
4132,80.0,0,480,0.0,62.0
4133,66.0,0,360,2.0,80.0
4134,54.0,0,384,3.0,62.0
4135,45.0,0,384,3.0,62.0
4136,69.0,360,96,2.0,80.0
4137,81.0,120,480,0.0,62.0
4138,78.0,0,480,0.0,62.0
4139,64.0,0,480,2.0,80.0
4140,56.0,0,480,3.0,62.0
4141,76.0,0,480,0.0,62.0
4142,80.0,0,480,0.0,62.0
4143,68.0,0,120,2.0,80.0
4144,57.0,480,384,3.0,62.0
4145,47.0,120,864,3.0,62.0
4146,63.0,120,288,2.0,80.0
4147,66.0,0,288,2.0,80.0
4148,78.0,0,480,0.0,62.0
4149,75.0,0,480,0.0,62.0
4150,71.0,120,96,2.0,80.0
4151,76.0,120,96,2.0,80.0
4152,76.0,0,384,0.0,62.0
4153,80.0,120,96,2.0,80.0
4154,83.0,120,96,2.0,80.0
4155,80.0,120,96,2.0,80.0
4156,76.0,120,96,2.0,80.0
4157,71.0,120,96,2.0,80.0
4158,80.0,120,96,2.0,80.0
4159,76.0,120,96,2.0,80.0
4160,71.0,120,96,2.0,80.0
4161,68.0,120,96,2.0,80.0
4162,76.0,120,96,2.0,80.0
4163,71.0,120,96,2.0,80.0
4164,68.0,120,96,2.0,80.0
4165,64.0,120,96,2.0,80.0
4166,71.0,120,96,2.0,80.0
4167,68.0,120,96,2.0,80.0
4168,64.0,120,96,2.0,80.0
4169,59.0,120,96,2.0,80.0
4170,68.0,120,96,2.0,80.0
4171,64.0,120,96,2.0,80.0
4172,59.0,120,96,2.0,80.0
4173,56.0,120,96,2.0,80.0
4174,40.0,0,2860,3.0,71.0
4175,52.0,0,2860,3.0,71.0
4176,51.0,120,120,3.0,71.0
4177,52.0,0,3072,8.0,62.0
4178,40.0,360,3072,10.0,62.0
4179,64.0,0,3072,5.0,62.0
4180,56.0,0,3072,7.0,62.0
4181,59.0,0,3072,6.0,62.0
4182,52.0,120,120,3.0,71.0
4183,51.0,0,120,3.0,71.0
4184,52.0,120,120,3.0,71.0
4185,51.0,120,120,3.0,71.0
4186,59.0,0,384,6.0,82.0
4187,56.0,0,384,7.0,82.0
4188,64.0,120,384,5.0,82.0
4189,52.0,0,384,8.0,82.0
4190,40.0,0,384,10.0,82.0
4191,52.0,120,120,3.0,71.0
4192,51.0,0,120,3.0,71.0
4193,40.0,0,156,10.0,82.0
4194,59.0,0,156,6.0,82.0
4195,56.0,0,156,7.0,82.0
4196,64.0,120,156,5.0,82.0
4197,52.0,0,156,8.0,82.0
4198,52.0,120,120,3.0,71.0
4199,71.0,120,96,2.0,80.0
4200,76.0,120,96,2.0,80.0
4201,80.0,120,96,2.0,80.0
4202,83.0,120,96,2.0,80.0
4203,80.0,120,96,2.0,80.0
4204,76.0,120,96,2.0,80.0
4205,71.0,120,96,2.0,80.0
4206,80.0,120,96,2.0,80.0
4207,76.0,120,96,2.0,80.0
4208,71.0,120,96,2.0,80.0
4209,68.0,120,96,2.0,80.0
4210,76.0,120,96,2.0,80.0
4211,71.0,120,96,2.0,80.0
4212,68.0,120,96,2.0,80.0
4213,64.0,120,96,2.0,80.0
4214,71.0,120,96,2.0,80.0
4215,68.0,120,96,2.0,80.0
4216,64.0,120,96,2.0,80.0
4217,59.0,120,96,2.0,80.0
4218,68.0,120,96,2.0,80.0
4219,64.0,120,96,2.0,80.0
4220,59.0,120,96,2.0,80.0
4221,56.0,120,96,2.0,80.0
4222,50.0,0,2860,3.0,71.0
4223,38.0,0,2860,3.0,71.0
4224,49.0,120,120,3.0,71.0
4225,64.0,0,3072,5.0,62.0
4226,59.0,0,3072,6.0,62.0
4227,50.0,0,3072,8.0,62.0
4228,56.0,0,3072,7.0,62.0
4229,38.0,120,3072,10.0,62.0
4230,50.0,120,120,3.0,71.0
4231,49.0,0,120,3.0,71.0
4232,50.0,120,120,3.0,71.0
4233,49.0,120,120,3.0,71.0
4234,50.0,120,384,8.0,82.0
4235,56.0,0,384,7.0,82.0
4236,64.0,0,384,5.0,82.0
4237,38.0,0,384,10.0,82.0
4238,59.0,0,384,6.0,82.0
4239,50.0,120,120,3.0,71.0
4240,49.0,0,120,3.0,71.0
4241,59.0,0,156,6.0,82.0
4242,38.0,0,156,10.0,82.0
4243,50.0,0,156,8.0,82.0
4244,64.0,120,156,5.0,82.0
4245,56.0,0,156,7.0,82.0
4246,50.0,120,96,3.0,71.0
4247,49.0,0,240,3.0,71.0
4248,49.0,0,384,8.0,62.0
4249,65.0,0,384,5.0,71.0
4250,37.0,0,384,10.0,62.0
4251,53.0,240,240,3.0,71.0
4252,61.0,0,720,2.0,83.0
4253,56.0,240,240,3.0,71.0
4254,85.0,240,144,2.0,88.0
4255,53.0,0,192,3.0,71.0
4256,85.0,240,144,2.0,88.0
4257,49.0,0,240,3.0,71.0
4258,85.0,240,144,2.0,88.0
4259,53.0,0,240,3.0,71.0
4260,85.0,240,144,2.0,88.0
4261,56.0,0,240,3.0,71.0
4262,85.0,0,144,2.0,88.0
4263,53.0,240,192,3.0,71.0
4264,56.0,0,1920,7.0,62.0
4265,59.0,120,1920,6.0,62.0
4266,49.0,0,240,3.0,71.0
4267,49.0,0,384,8.0,62.0
4268,37.0,240,384,10.0,62.0
4269,54.0,240,240,3.0,71.0
4270,85.0,0,720,2.0,88.0
4271,57.0,240,240,3.0,71.0
4272,83.0,240,80,2.0,88.0
4273,81.0,80,80,2.0,88.0
4274,54.0,0,192,3.0,71.0
4275,80.0,80,80,2.0,88.0
4276,49.0,0,240,3.0,71.0
4277,78.0,80,312,2.0,88.0
4278,54.0,240,240,3.0,71.0
4279,57.0,0,240,3.0,71.0
4280,78.0,240,312,2.0,88.0
4281,54.0,240,192,3.0,71.0
4282,57.0,0,1920,6.0,62.0
4283,54.0,0,1920,7.0,62.0
4284,49.0,0,240,3.0,71.0
4285,37.0,0,384,10.0,62.0
4286,49.0,0,384,8.0,62.0
4287,56.0,240,240,3.0,71.0
4288,77.0,240,480,2.0,88.0
4289,59.0,240,240,3.0,71.0
4290,85.0,0,144,5.0,76.0
4291,80.0,0,384,2.0,83.0
4292,56.0,240,192,3.0,71.0
4293,85.0,0,144,5.0,76.0
4294,49.0,240,240,3.0,71.0
4295,85.0,0,144,5.0,76.0
4296,56.0,240,240,3.0,71.0
4297,85.0,0,144,5.0,76.0
4298,59.0,240,240,3.0,71.0
4299,85.0,240,144,5.0,76.0
4300,56.0,0,192,3.0,71.0
4301,59.0,0,1920,7.0,62.0
4302,65.0,0,1920,6.0,62.0
4303,49.0,0,240,3.0,71.0
4304,49.0,0,384,8.0,62.0
4305,37.0,0,384,10.0,62.0
4306,54.0,240,240,3.0,71.0
4307,85.0,240,720,5.0,76.0
4308,57.0,0,240,3.0,71.0
4309,83.0,240,80,5.0,76.0
4310,81.0,80,80,5.0,76.0
4311,54.0,0,192,3.0,71.0
4312,80.0,80,80,5.0,76.0
4313,73.0,240,480,2.0,80.0
4314,49.0,0,240,3.0,71.0
4315,78.0,80,312,5.0,76.0
4316,54.0,240,240,3.0,71.0
4317,78.0,0,480,2.0,80.0
4318,57.0,240,240,3.0,71.0
4319,78.0,0,312,5.0,76.0
4320,81.0,0,384,2.0,80.0
4321,54.0,240,192,3.0,71.0
4322,66.0,0,1920,6.0,62.0
4323,57.0,0,1920,7.0,62.0
4324,49.0,0,240,3.0,71.0
4325,80.0,0,360,2.0,80.0
4326,49.0,0,384,8.0,62.0
4327,37.0,0,384,10.0,62.0
4328,53.0,240,240,3.0,71.0
4329,77.0,120,120,2.0,80.0
4330,77.0,0,480,5.0,76.0
4331,73.0,0,144,2.0,80.0
4332,56.0,120,240,3.0,71.0
4333,85.0,0,144,2.0,88.0
4334,80.0,0,384,5.0,71.0
4335,53.0,240,192,3.0,71.0
4336,85.0,240,144,2.0,88.0
4337,49.0,0,240,3.0,71.0
4338,85.0,240,144,2.0,88.0
4339,53.0,0,240,3.0,71.0
4340,85.0,240,144,2.0,88.0
4341,56.0,0,240,3.0,71.0
4342,85.0,240,144,2.0,88.0
4343,53.0,0,192,3.0,71.0
4344,71.0,240,1920,6.0,62.0
4345,68.0,0,1920,7.0,62.0
4346,49.0,240,240,3.0,71.0
4347,49.0,0,384,8.0,62.0
4348,37.0,0,384,10.0,62.0
4349,54.0,240,240,3.0,71.0
4350,85.0,0,720,2.0,88.0
4351,57.0,240,240,3.0,71.0
4352,83.0,240,80,2.0,88.0
4353,81.0,80,80,2.0,88.0
4354,54.0,0,192,3.0,71.0
4355,80.0,80,80,2.0,88.0
4356,78.0,80,144,2.0,88.0
4357,49.0,0,240,3.0,71.0
4358,78.0,240,144,2.0,88.0
4359,54.0,0,240,3.0,71.0
4360,78.0,0,144,2.0,88.0
4361,57.0,240,240,3.0,71.0
4362,78.0,0,144,2.0,88.0
4363,54.0,240,192,3.0,71.0
4364,66.0,0,1920,7.0,62.0
4365,69.0,0,1920,6.0,62.0
4366,49.0,0,240,3.0,71.0
4367,37.0,0,384,10.0,62.0
4368,49.0,240,384,8.0,62.0
4369,56.0,240,240,3.0,71.0
4370,77.0,0,480,2.0,88.0
4371,59.0,0,240,3.0,71.0
4372,85.0,0,144,5.0,76.0
4373,80.0,240,384,2.0,83.0
4374,56.0,240,192,3.0,71.0
4375,85.0,240,144,5.0,76.0
4376,49.0,0,240,3.0,71.0
4377,85.0,240,144,5.0,76.0
4378,56.0,0,240,3.0,71.0
4379,85.0,0,144,5.0,76.0
4380,59.0,240,240,3.0,71.0
4381,85.0,240,144,5.0,76.0
4382,56.0,0,192,3.0,71.0
4383,68.0,0,1920,6.0,62.0
4384,65.0,0,1920,7.0,62.0
4385,49.0,0,240,3.0,71.0
4386,37.0,0,384,10.0,62.0
4387,49.0,0,384,8.0,62.0
4388,54.0,240,240,3.0,71.0
4389,57.0,240,240,3.0,71.0
4390,85.0,0,720,5.0,76.0
4391,83.0,240,80,5.0,76.0
4392,81.0,80,80,5.0,76.0
4393,54.0,0,192,3.0,71.0
4394,80.0,80,80,5.0,76.0
4395,73.0,0,480,2.0,80.0
4396,78.0,0,144,5.0,76.0
4397,49.0,0,240,3.0,71.0
4398,78.0,0,144,5.0,76.0
4399,54.0,240,240,3.0,71.0
4400,78.0,80,480,2.0,80.0
4401,78.0,0,144,5.0,76.0
4402,57.0,240,240,3.0,71.0
4403,78.0,0,144,5.0,76.0
4404,54.0,240,192,3.0,71.0
4405,66.0,240,1920,7.0,62.0
4406,81.0,0,480,2.0,80.0
4407,69.0,0,1920,6.0,62.0
4408,80.0,0,96,2.0,90.0
4409,85.0,120,96,2.0,90.0
4410,68.0,0,312,6.0,62.0
4411,77.0,0,312,5.0,67.0
4412,61.0,0,312,7.0,62.0
4413,80.0,120,96,2.0,90.0
4414,77.0,120,96,2.0,90.0
4415,73.0,120,96,2.0,90.0
4416,85.0,120,96,2.0,90.0
4417,73.0,120,96,2.0,90.0
4418,85.0,120,96,2.0,90.0
4419,73.0,120,96,2.0,90.0
4420,85.0,120,96,2.0,90.0
4421,73.0,120,96,2.0,90.0
4422,61.0,0,912,5.0,91.0
4423,61.0,0,912,7.0,82.0
4424,61.0,0,912,6.0,62.0
4425,85.0,120,96,2.0,90.0
4426,49.0,0,1440,10.0,71.0
4427,61.0,0,1440,8.0,71.0
4428,49.0,240,1440,4.0,71.0
4429,61.0,0,1440,3.0,71.0
4430,77.0,0,96,2.0,90.0
4431,85.0,120,96,2.0,90.0
4432,77.0,120,96,2.0,90.0
4433,85.0,120,96,2.0,90.0
4434,59.0,120,480,8.0,71.0
4435,59.0,0,480,3.0,71.0
4436,68.0,0,480,5.0,71.0
4437,65.0,0,480,6.0,62.0
4438,47.0,0,480,10.0,71.0
4439,47.0,0,480,4.0,71.0
4440,78.0,120,96,2.0,90.0
4441,85.0,120,96,2.0,90.0
4442,78.0,120,96,2.0,90.0
4443,85.0,120,96,2.0,90.0
4444,69.0,0,470,5.0,71.0
4445,57.0,0,480,3.0,71.0
4446,66.0,0,480,6.0,62.0
4447,45.0,0,480,4.0,71.0
4448,45.0,0,480,10.0,71.0
4449,57.0,0,480,8.0,71.0
4450,61.0,0,960,7.0,62.0
4451,80.0,0,96,2.0,90.0
4452,85.0,120,96,2.0,90.0
4453,80.0,120,96,2.0,90.0
4454,85.0,120,96,2.0,90.0
4455,71.0,0,470,5.0,71.0
4456,59.0,120,480,7.0,62.0
4457,56.0,0,480,8.0,71.0
4458,56.0,0,480,3.0,71.0
4459,68.0,0,480,6.0,62.0
4460,44.0,0,480,4.0,71.0
4461,44.0,0,480,10.0,71.0
4462,81.0,0,96,2.0,90.0
4463,85.0,120,96,2.0,90.0
4464,81.0,120,96,2.0,90.0
4465,85.0,120,96,2.0,90.0
4466,42.0,0,480,10.0,71.0
4467,54.0,0,480,3.0,71.0
4468,69.0,0,480,6.0,62.0
4469,42.0,0,480,4.0,71.0
4470,54.0,0,480,8.0,71.0
4471,57.0,0,480,7.0,62.0
4472,78.0,0,96,2.0,90.0
4473,85.0,120,96,2.0,90.0
4474,78.0,120,96,2.0,90.0
4475,85.0,120,96,2.0,90.0
4476,45.0,0,470,10.0,71.0
4477,57.0,0,470,8.0,71.0
4478,45.0,0,470,4.0,71.0
4479,66.0,0,470,6.0,62.0
4480,57.0,120,470,3.0,71.0
4481,61.0,0,470,7.0,62.0
4482,74.0,0,96,2.0,90.0
4483,78.0,120,96,2.0,90.0
4484,85.0,120,96,2.0,90.0
4485,74.0,0,384,6.0,62.0
4486,78.0,120,96,2.0,90.0
4487,85.0,0,96,2.0,90.0
4488,78.0,120,96,2.0,90.0
4489,85.0,120,96,2.0,90.0
4490,78.0,120,96,2.0,90.0
4491,73.0,120,1900,5.0,71.0
4492,66.0,120,940,7.0,62.0
4493,74.0,120,96,2.0,90.0
4494,78.0,120,96,2.0,90.0
4495,86.0,120,96,2.0,90.0
4496,78.0,120,96,2.0,90.0
4497,59.0,120,940,6.0,102.0
4498,59.0,0,1440,3.0,71.0
4499,59.0,0,1440,8.0,71.0
4500,47.0,0,1440,4.0,71.0
4501,47.0,0,1440,10.0,71.0
4502,74.0,0,96,2.0,90.0
4503,78.0,120,96,2.0,90.0
4504,85.0,120,96,2.0,90.0
4505,78.0,120,96,2.0,90.0
4506,54.0,0,940,7.0,62.0
4507,57.0,120,480,8.0,71.0
4508,45.0,0,480,10.0,71.0
4509,57.0,0,480,3.0,71.0
4510,45.0,0,480,4.0,71.0
4511,73.0,0,480,6.0,62.0
4512,74.0,0,96,2.0,90.0
4513,76.0,120,96,2.0,90.0
4514,83.0,120,96,2.0,90.0
4515,76.0,120,96,2.0,90.0
4516,44.0,0,480,4.0,71.0
4517,44.0,0,480,10.0,71.0
4518,56.0,0,480,7.0,62.0
4519,56.0,0,480,8.0,71.0
4520,56.0,0,480,3.0,71.0
4521,71.0,120,480,6.0,62.0
4522,74.0,0,96,2.0,90.0
4523,76.0,120,96,2.0,90.0
4524,81.0,120,96,2.0,90.0
4525,76.0,120,96,2.0,90.0
4526,57.0,0,480,7.0,62.0
4527,42.0,0,480,4.0,71.0
4528,54.0,0,480,8.0,71.0
4529,69.0,120,480,6.0,62.0
4530,42.0,0,480,10.0,71.0
4531,54.0,0,480,3.0,71.0
4532,74.0,0,96,2.0,90.0
4533,76.0,120,96,2.0,90.0
4534,80.0,120,96,2.0,90.0
4535,76.0,120,96,2.0,90.0
4536,52.0,120,480,8.0,71.0
4537,40.0,0,480,4.0,71.0
4538,40.0,0,480,10.0,71.0
4539,68.0,0,480,6.0,62.0
4540,52.0,0,480,3.0,71.0
4541,59.0,0,480,7.0,62.0
4542,74.0,0,96,2.0,90.0
4543,76.0,120,96,2.0,90.0
4544,83.0,120,96,2.0,90.0
4545,74.0,0,2842,5.0,71.0
4546,76.0,120,96,2.0,90.0
4547,44.0,0,470,10.0,71.0
4548,56.0,0,470,3.0,71.0
4549,56.0,0,470,8.0,71.0
4550,71.0,120,470,6.0,62.0
4551,64.0,0,470,7.0,62.0
4552,44.0,0,470,4.0,71.0
4553,73.0,0,96,2.0,90.0
4554,76.0,120,96,2.0,90.0
4555,73.0,120,312,5.0,71.0
4556,83.0,120,96,2.0,90.0
4557,76.0,120,96,2.0,90.0
4558,83.0,120,96,2.0,90.0
4559,76.0,120,96,2.0,90.0
4560,83.0,120,96,2.0,90.0
4561,76.0,120,96,2.0,90.0
4562,64.0,0,940,7.0,62.0
4563,71.0,0,940,6.0,62.0
4564,73.0,0,96,2.0,90.0
4565,76.0,120,96,2.0,90.0
4566,85.0,120,96,2.0,90.0
4567,76.0,120,96,2.0,90.0
4568,57.0,0,940,5.0,111.0
4569,45.0,0,1440,4.0,71.0
4570,57.0,0,1440,3.0,71.0
4571,45.0,0,1440,10.0,71.0
4572,57.0,0,1440,8.0,71.0
4573,73.0,0,96,2.0,90.0
4574,76.0,120,96,2.0,90.0
4575,83.0,120,96,2.0,90.0
4576,76.0,120,96,2.0,90.0
4577,52.0,120,940,7.0,62.0
4578,56.0,0,480,8.0,71.0
4579,44.0,0,480,10.0,71.0
4580,56.0,0,480,3.0,71.0
4581,44.0,120,480,4.0,71.0
4582,71.0,0,480,5.0,71.0
4583,73.0,120,96,2.0,90.0
4584,74.0,120,96,2.0,90.0
4585,81.0,120,96,2.0,90.0
4586,74.0,120,96,2.0,90.0
4587,54.0,0,480,3.0,71.0
4588,69.0,0,480,5.0,71.0
4589,54.0,0,480,8.0,71.0
4590,42.0,0,480,4.0,71.0
4591,42.0,0,480,10.0,71.0
4592,54.0,0,480,7.0,62.0
4593,73.0,0,96,2.0,90.0
4594,74.0,120,96,2.0,90.0
4595,80.0,120,96,2.0,90.0
4596,74.0,120,96,2.0,90.0
4597,56.0,0,480,7.0,62.0
4598,40.0,0,480,4.0,71.0
4599,40.0,120,480,10.0,71.0
4600,52.0,0,480,8.0,71.0
4601,52.0,0,480,3.0,71.0
4602,68.0,0,480,5.0,71.0
4603,73.0,120,96,2.0,90.0
4604,74.0,120,96,2.0,90.0
4605,78.0,120,96,2.0,90.0
4606,74.0,120,96,2.0,90.0
4607,50.0,0,480,8.0,71.0
4608,66.0,0,480,5.0,71.0
4609,38.0,0,480,4.0,71.0
4610,38.0,0,480,10.0,71.0
4611,57.0,0,480,7.0,62.0
4612,50.0,0,480,3.0,71.0
4613,73.0,0,96,2.0,90.0
4614,74.0,120,96,2.0,90.0
4615,81.0,120,96,2.0,90.0
4616,73.0,0,2842,6.0,62.0
4617,54.0,0,456,8.0,71.0
4618,54.0,0,456,3.0,71.0
4619,74.0,120,96,2.0,90.0
4620,42.0,0,456,10.0,71.0
4621,42.0,120,456,4.0,71.0
4622,62.0,0,470,7.0,62.0
4623,69.0,0,470,5.0,71.0
4624,71.0,0,96,2.0,90.0
4625,74.0,120,96,2.0,90.0
4626,71.0,120,312,6.0,62.0
4627,81.0,120,96,2.0,90.0
4628,74.0,120,96,2.0,90.0
4629,81.0,0,96,2.0,90.0
4630,74.0,120,96,2.0,90.0
4631,81.0,120,96,2.0,90.0
4632,74.0,120,96,2.0,90.0
4633,69.0,0,940,5.0,71.0
4634,62.0,0,940,7.0,62.0
4635,71.0,0,96,2.0,90.0
4636,74.0,120,96,2.0,90.0
4637,83.0,120,96,2.0,90.0
4638,74.0,120,96,2.0,90.0
4639,56.0,120,940,6.0,102.0
4640,56.0,0,1440,3.0,71.0
4641,56.0,0,1440,8.0,71.0
4642,44.0,0,1440,10.0,71.0
4643,44.0,0,1440,4.0,71.0
4644,71.0,0,96,2.0,90.0
4645,74.0,120,96,2.0,90.0
4646,81.0,120,96,2.0,90.0
4647,74.0,120,96,2.0,90.0
4648,50.0,0,940,7.0,62.0
4649,42.0,0,480,4.0,71.0
4650,42.0,0,480,10.0,71.0
4651,69.0,120,480,6.0,62.0
4652,54.0,0,480,3.0,71.0
4653,54.0,0,480,8.0,71.0
4654,71.0,0,96,2.0,90.0
4655,73.0,120,96,2.0,90.0
4656,80.0,120,96,2.0,90.0
4657,73.0,120,96,2.0,90.0
4658,53.0,0,480,3.0,71.0
4659,53.0,120,480,8.0,71.0
4660,52.0,0,480,7.0,62.0
4661,41.0,0,480,10.0,71.0
4662,68.0,0,480,6.0,62.0
4663,41.0,0,480,4.0,71.0
4664,71.0,0,96,2.0,90.0
4665,73.0,120,96,2.0,90.0
4666,78.0,120,96,2.0,90.0
4667,73.0,120,96,2.0,90.0
4668,39.0,0,480,4.0,71.0
4669,51.0,120,480,3.0,71.0
4670,54.0,0,480,7.0,62.0
4671,39.0,0,480,10.0,71.0
4672,51.0,0,480,8.0,71.0
4673,66.0,0,480,6.0,62.0
4674,71.0,0,96,2.0,90.0
4675,73.0,120,96,2.0,90.0
4676,77.0,120,96,2.0,90.0
4677,73.0,120,96,2.0,90.0
4678,49.0,0,480,3.0,71.0
4679,37.0,0,480,4.0,71.0
4680,49.0,120,480,8.0,71.0
4681,65.0,0,480,6.0,62.0
4682,37.0,0,480,10.0,71.0
4683,56.0,0,480,7.0,62.0
4684,71.0,120,96,2.0,90.0
4685,73.0,120,96,2.0,90.0
4686,80.0,120,96,2.0,90.0
4687,71.0,120,2842,5.0,71.0
4688,53.0,0,456,3.0,71.0
4689,41.0,0,456,10.0,71.0
4690,41.0,0,456,4.0,71.0
4691,53.0,0,456,8.0,71.0
4692,73.0,120,96,2.0,90.0
4693,68.0,0,470,6.0,62.0
4694,61.0,0,470,7.0,62.0
4695,69.0,120,96,2.0,69.0
4696,73.0,120,96,2.0,70.0
4697,78.0,120,96,2.0,70.0
4698,81.0,120,96,2.0,71.0
4699,78.0,120,96,2.0,72.0
4700,73.0,120,96,2.0,73.0
4701,69.0,120,96,2.0,73.0
4702,54.0,0,960,3.0,58.0
4703,42.0,120,960,4.0,56.0
4704,69.0,0,960,5.0,53.0
4705,66.0,0,960,6.0,53.0
4706,42.0,0,960,10.0,61.0
4707,54.0,0,960,8.0,62.0
4708,70.0,120,96,2.0,75.0
4709,73.0,120,96,2.0,75.0
4710,79.0,120,96,2.0,76.0
4711,82.0,120,96,2.0,77.0
4712,79.0,120,96,2.0,77.0
4713,73.0,120,96,2.0,78.0
4714,61.0,0,1882,7.0,59.0
4715,70.0,120,96,2.0,79.0
4716,40.0,0,960,4.0,56.0
4717,67.0,0,960,6.0,53.0
4718,52.0,120,960,3.0,59.0
4719,70.0,0,960,5.0,53.0
4720,40.0,0,960,10.0,64.0
4721,52.0,0,960,8.0,62.0
4722,71.0,120,96,2.0,80.0
4723,75.0,120,96,2.0,81.0
4724,78.0,120,96,2.0,82.0
4725,83.0,120,96,2.0,82.0
4726,78.0,120,96,2.0,83.0
4727,75.0,120,96,2.0,84.0
4728,71.0,120,96,2.0,84.0
4729,63.0,0,940,7.0,59.0
4730,39.0,0,960,4.0,58.0
4731,51.0,0,960,3.0,62.0
4732,71.0,0,960,5.0,56.0
4733,51.0,120,960,8.0,63.0
4734,39.0,0,960,10.0,65.0
4735,72.0,120,96,2.0,86.0
4736,78.0,120,96,2.0,86.0
4737,81.0,120,96,2.0,87.0
4738,84.0,120,96,2.0,88.0
4739,81.0,120,96,2.0,89.0
4740,78.0,120,96,2.0,89.0
4741,66.0,0,1882,6.0,55.0
4742,72.0,120,96,2.0,90.0
4743,72.0,0,940,5.0,61.0
4744,50.0,0,940,3.0,66.0
4745,69.0,0,940,7.0,61.0
4746,50.0,0,940,8.0,65.0
4747,38.0,0,940,10.0,66.0
4748,38.0,120,940,4.0,62.0
4749,73.0,120,96,2.0,91.0
4750,77.0,120,96,2.0,92.0
4751,80.0,120,96,2.0,93.0
4752,85.0,120,96,2.0,95.0
4753,80.0,120,96,2.0,96.0
4754,77.0,120,96,2.0,98.0
4755,73.0,120,96,2.0,99.0
4756,37.0,0,960,10.0,68.0
4757,49.0,0,960,8.0,67.0
4758,49.0,0,960,3.0,72.0
4759,37.0,120,960,4.0,66.0
4760,73.0,0,960,5.0,67.0
4761,74.0,120,96,2.0,102.0
4762,77.0,120,96,2.0,103.0
4763,80.0,120,96,2.0,105.0
4764,86.0,120,96,2.0,106.0
4765,80.0,120,96,2.0,108.0
4766,77.0,120,96,2.0,109.0
4767,65.0,0,1882,7.0,62.0
4768,68.0,0,1882,6.0,61.0
4769,74.0,120,96,2.0,110.0
4770,47.0,0,940,8.0,70.0
4771,35.0,0,940,10.0,71.0
4772,47.0,120,940,3.0,79.0
4773,35.0,0,940,4.0,72.0
4774,74.0,0,940,5.0,75.0
4775,78.0,120,96,2.0,102.0
4776,81.0,120,96,2.0,100.0
4777,85.0,120,96,2.0,98.0
4778,73.0,0,480,5.0,74.0
4779,33.0,0,480,4.0,77.0
4780,45.0,120,480,3.0,80.0
4781,66.0,0,480,7.0,64.0
4782,33.0,0,480,10.0,76.0
4783,69.0,0,480,6.0,72.0
4784,45.0,0,480,8.0,69.0
4785,74.0,120,96,2.0,94.0
4786,80.0,120,96,2.0,92.0
4787,83.0,120,96,2.0,90.0
4788,47.0,0,480,8.0,68.0
4789,35.0,0,480,4.0,76.0
4790,68.0,0,480,6.0,70.0
4791,62.0,0,480,7.0,64.0
4792,71.0,120,480,5.0,71.0
4793,35.0,0,480,10.0,76.0
4794,47.0,0,480,3.0,77.0
4795,73.0,120,96,2.0,86.0
4796,78.0,120,96,2.0,84.0
4797,81.0,120,96,2.0,82.0
4798,37.0,0,480,4.0,71.0
4799,69.0,0,480,5.0,66.0
4800,49.0,0,480,3.0,74.0
4801,66.0,0,480,6.0,67.0
4802,73.0,120,96,2.0,78.0
4803,77.0,120,96,2.0,76.0
4804,61.0,0,912,7.0,64.0
4805,49.0,120,912,8.0,65.0
4806,37.0,0,912,10.0,73.0
4807,80.0,120,96,2.0,74.0
4808,65.0,120,470,6.0,63.0
4809,49.0,0,470,3.0,69.0
4810,68.0,0,470,5.0,59.0
4811,37.0,0,470,4.0,63.0
4812,83.0,0,48,2.0,65.0
4813,81.0,60,48,2.0,65.0
4814,83.0,60,48,2.0,65.0
4815,81.0,60,48,2.0,66.0
4816,83.0,60,48,2.0,66.0
4817,81.0,60,48,2.0,67.0
4818,42.0,120,384,10.0,63.0
4819,54.0,0,384,8.0,57.0
4820,42.0,0,384,4.0,59.0
4821,54.0,0,384,3.0,59.0
4822,83.0,60,48,2.0,67.0
4823,61.0,0,192,7.0,57.0
4824,66.0,0,192,6.0,62.0
4825,69.0,0,192,5.0,59.0
4826,81.0,60,48,2.0,68.0
4827,83.0,60,48,2.0,68.0
4828,81.0,60,48,2.0,69.0
4829,83.0,60,48,2.0,69.0
4830,66.0,0,192,6.0,62.0
4831,61.0,0,192,7.0,57.0
4832,69.0,0,192,5.0,60.0
4833,81.0,60,48,2.0,70.0
4834,83.0,0,48,2.0,70.0
4835,81.0,60,48,2.0,71.0
4836,83.0,60,48,2.0,71.0
4837,69.0,0,192,5.0,60.0
4838,61.0,60,192,7.0,57.0
4839,66.0,0,192,6.0,63.0
4840,81.0,60,48,2.0,72.0
4841,83.0,60,48,2.0,72.0
4842,82.0,60,48,2.0,73.0
4843,83.0,60,48,2.0,73.0
4844,82.0,60,48,2.0,74.0
4845,83.0,60,48,2.0,74.0
4846,82.0,60,48,2.0,75.0
4847,40.0,0,384,4.0,66.0
4848,52.0,0,384,3.0,66.0
4849,52.0,0,384,8.0,58.0
4850,40.0,0,384,10.0,64.0
4851,83.0,60,48,2.0,75.0
4852,70.0,0,192,5.0,62.0
4853,67.0,0,192,6.0,64.0
4854,61.0,0,192,7.0,58.0
4855,82.0,60,48,2.0,76.0
4856,83.0,0,48,2.0,76.0
4857,82.0,60,48,2.0,77.0
4858,83.0,60,48,2.0,77.0
4859,61.0,0,192,7.0,59.0
4860,67.0,60,192,6.0,65.0
4861,70.0,0,192,5.0,64.0
4862,82.0,60,48,2.0,78.0
4863,83.0,60,48,2.0,78.0
4864,82.0,60,48,2.0,79.0
4865,83.0,60,48,2.0,79.0
4866,61.0,0,192,7.0,60.0
4867,67.0,0,192,6.0,66.0
4868,70.0,0,192,5.0,65.0
4869,82.0,60,48,2.0,80.0
4870,85.0,60,48,2.0,80.0
4871,83.0,60,48,2.0,81.0
4872,85.0,60,48,2.0,81.0
4873,83.0,60,48,2.0,82.0
4874,85.0,0,48,2.0,82.0
4875,83.0,60,48,2.0,83.0
4876,39.0,0,384,4.0,74.0
4877,39.0,0,384,10.0,67.0
4878,51.0,0,384,3.0,74.0
4879,51.0,0,384,8.0,62.0
4880,85.0,60,48,2.0,83.0
4881,63.0,0,192,7.0,63.0
4882,71.0,0,192,5.0,68.0
4883,66.0,60,192,6.0,69.0
4884,83.0,60,48,2.0,84.0
4885,85.0,60,48,2.0,84.0
4886,83.0,60,48,2.0,85.0
4887,85.0,60,48,2.0,85.0
4888,66.0,0,192,6.0,70.0
4889,63.0,0,192,7.0,65.0
4890,71.0,0,192,5.0,70.0
4891,83.0,60,48,2.0,86.0
4892,85.0,60,48,2.0,86.0
4893,83.0,60,48,2.0,87.0
4894,85.0,60,48,2.0,87.0
4895,66.0,0,192,6.0,72.0
4896,71.0,0,192,5.0,72.0
4897,63.0,0,192,7.0,67.0
4898,83.0,60,48,2.0,88.0
4899,85.0,60,48,2.0,88.0
4900,84.0,60,48,2.0,89.0
4901,85.0,60,48,2.0,89.0
4902,84.0,60,48,2.0,90.0
4903,85.0,0,48,2.0,90.0
4904,84.0,60,48,2.0,91.0
4905,38.0,0,384,4.0,82.0
4906,50.0,0,384,8.0,68.0
4907,38.0,0,384,10.0,73.0
4908,50.0,0,384,3.0,82.0
4909,85.0,60,48,2.0,91.0
4910,72.0,0,192,5.0,77.0
4911,69.0,60,192,6.0,75.0
4912,66.0,0,192,7.0,72.0
4913,84.0,60,48,2.0,92.0
4914,85.0,0,48,2.0,92.0
4915,84.0,60,48,2.0,93.0
4916,85.0,60,48,2.0,93.0
4917,69.0,0,192,6.0,77.0
4918,72.0,60,192,5.0,79.0
4919,66.0,0,192,7.0,74.0
4920,84.0,60,48,2.0,94.0
4921,85.0,60,48,2.0,94.0
4922,84.0,60,48,2.0,95.0
4923,85.0,60,48,2.0,95.0
4924,66.0,0,192,7.0,77.0
4925,72.0,0,192,5.0,82.0
4926,69.0,0,192,6.0,79.0
4927,84.0,60,48,2.0,96.0
4928,86.0,0,48,2.0,96.0
4929,85.0,60,48,2.0,97.0
4930,86.0,60,48,2.0,97.0
4931,85.0,60,48,2.0,97.0
4932,86.0,0,48,2.0,98.0
4933,85.0,60,48,2.0,98.0
4934,37.0,0,384,10.0,80.0
4935,49.0,0,384,8.0,77.0
4936,37.0,0,384,4.0,90.0
4937,49.0,60,384,3.0,90.0
4938,86.0,60,48,2.0,99.0
4939,73.0,60,192,5.0,88.0
4940,69.0,0,192,6.0,83.0
4941,66.0,0,192,7.0,83.0
4942,85.0,60,48,2.0,99.0
4943,86.0,0,48,2.0,100.0
4944,85.0,60,48,2.0,100.0
4945,86.0,60,48,2.0,101.0
4946,69.0,0,192,6.0,86.0
4947,73.0,0,192,5.0,91.0
4948,66.0,60,192,7.0,87.0
4949,85.0,60,48,2.0,101.0
4950,86.0,0,48,2.0,102.0
4951,85.0,60,48,2.0,102.0
4952,84.0,60,48,2.0,103.0
4953,66.0,0,192,7.0,90.0
4954,69.0,60,192,6.0,88.0
4955,73.0,0,192,5.0,94.0
4956,85.0,60,48,2.0,103.0
4957,68.0,0,2400,6.0,94.0
4958,64.0,0,2400,5.0,98.0
4959,74.0,0,2400,5.0,98.0
4960,59.0,0,2400,7.0,94.0
4961,35.0,0,2400,10.0,90.0
4962,47.0,0,2400,8.0,90.0
4963,86.0,0,2784,2.0,102.0
4964,47.0,60,2880,4.0,98.0
4965,52.0,0,2880,4.0,98.0
4966,59.0,0,2880,3.0,97.0
4967,56.0,0,2880,3.0,97.0
4968,85.0,2880,60,3.0,96.0
4969,83.0,60,60,3.0,96.0
4970,81.0,60,60,3.0,96.0
4971,80.0,60,60,3.0,96.0
4972,78.0,60,60,3.0,96.0
4973,76.0,60,60,3.0,96.0
4974,74.0,60,60,3.0,96.0
4975,73.0,60,60,3.0,96.0
4976,71.0,60,60,3.0,96.0
4977,69.0,60,60,3.0,95.0
4978,68.0,60,60,3.0,95.0
4979,66.0,60,60,3.0,95.0
4980,64.0,60,60,3.0,95.0
4981,62.0,60,60,3.0,95.0
4982,61.0,60,60,3.0,95.0
4983,59.0,60,60,3.0,95.0
4984,57.0,60,60,3.0,95.0
4985,56.0,60,60,3.0,95.0
4986,54.0,60,60,3.0,94.0
4987,52.0,60,60,3.0,94.0
4988,40.0,0,720,3.0,94.0
4989,44.0,0,720,3.0,94.0
4990,47.0,60,720,3.0,94.0
4991,50.0,0,720,3.0,94.0
4992,61.0,0,144,6.0,62.0
4993,57.0,2640,312,8.0,71.0
4994,45.0,0,312,10.0,71.0
4995,69.0,0,312,5.0,71.0
4996,64.0,240,144,6.0,62.0
4997,61.0,0,144,6.0,62.0
4998,45.0,0,312,10.0,71.0
4999,57.0,0,312,8.0,71.0
5000,64.0,240,144,6.0,62.0
5001,69.0,240,480,5.0,71.0
5002,61.0,0,144,6.0,62.0
5003,45.0,0,312,10.0,71.0
5004,57.0,240,312,8.0,71.0
5005,64.0,240,144,6.0,62.0
5006,73.0,0,480,5.0,71.0
5007,61.0,240,144,6.0,62.0
5008,45.0,0,312,10.0,71.0
5009,57.0,0,312,8.0,71.0
5010,64.0,240,144,6.0,62.0
5011,76.0,0,384,5.0,71.0
5012,76.0,0,120,5.0,71.0
5013,62.0,0,144,6.0,62.0
5014,57.0,0,312,8.0,71.0
5015,45.0,0,312,10.0,71.0
5016,64.0,120,144,6.0,62.0
5017,74.0,120,288,5.0,71.0
5018,73.0,0,120,5.0,71.0
5019,62.0,0,144,6.0,62.0
5020,45.0,240,312,10.0,71.0
5021,57.0,0,312,8.0,71.0
5022,64.0,120,144,6.0,62.0
5023,71.0,120,288,5.0,71.0
5024,69.0,0,120,5.0,71.0
5025,62.0,240,144,6.0,62.0
5026,57.0,0,312,8.0,71.0
5027,45.0,0,312,10.0,71.0
5028,64.0,120,144,6.0,62.0
5029,68.0,120,288,5.0,71.0
5030,66.0,0,120,5.0,71.0
5031,62.0,0,144,6.0,62.0
5032,45.0,0,312,10.0,71.0
5033,57.0,240,312,8.0,71.0
5034,64.0,120,144,6.0,62.0
5035,64.0,120,288,5.0,71.0
5036,62.0,240,144,6.0,62.0
5037,71.0,0,312,5.0,71.0
5038,57.0,0,312,8.0,71.0
5039,45.0,0,312,10.0,71.0
5040,64.0,240,144,6.0,62.0
5041,62.0,0,144,6.0,62.0
5042,45.0,0,312,10.0,71.0
5043,57.0,0,312,8.0,71.0
5044,64.0,240,144,6.0,62.0
5045,71.0,240,480,5.0,71.0
5046,62.0,0,144,6.0,62.0
5047,57.0,0,312,8.0,71.0
5048,45.0,0,312,10.0,71.0
5049,64.0,240,144,6.0,62.0
5050,74.0,240,480,5.0,71.0
5051,62.0,0,144,6.0,62.0
5052,57.0,240,312,8.0,71.0
5053,45.0,0,312,10.0,71.0
5054,64.0,240,144,6.0,62.0
5055,80.0,0,3802,0.0,62.0
5056,74.0,0,3802,0.0,62.0
5057,71.0,0,3802,1.0,62.0
5058,64.0,240,3802,1.0,62.0
5059,59.0,0,3802,7.0,71.0
5060,68.0,0,3802,7.0,71.0
5061,78.0,0,456,5.0,71.0
5062,61.0,0,144,6.0,62.0
5063,45.0,0,312,10.0,71.0
5064,57.0,0,312,8.0,71.0
5065,64.0,240,144,6.0,62.0
5066,61.0,0,144,6.0,62.0
5067,76.0,0,720,5.0,71.0
5068,57.0,240,312,8.0,71.0
5069,45.0,0,312,10.0,71.0
5070,64.0,240,144,6.0,62.0
5071,73.0,0,240,5.0,71.0
5072,61.0,0,144,6.0,62.0
5073,69.0,0,1152,7.0,62.0
5074,61.0,0,1152,7.0,62.0
5075,81.0,0,1152,0.0,62.0
5076,69.0,0,1152,1.0,62.0
5077,57.0,240,1152,1.0,62.0
5078,73.0,0,1152,0.0,62.0
5079,57.0,240,312,8.0,71.0
5080,45.0,0,312,10.0,71.0
5081,64.0,240,144,6.0,62.0
5082,76.0,0,384,5.0,71.0
5083,61.0,0,144,6.0,62.0
5084,45.0,0,312,10.0,71.0
5085,57.0,240,312,8.0,71.0
5086,64.0,240,144,6.0,62.0
5087,69.0,240,384,5.0,71.0
5088,57.0,0,384,6.0,62.0
5089,69.0,0,960,6.0,71.0
5090,81.0,480,960,5.0,71.0
5091,61.0,480,960,8.0,71.0
5092,49.0,0,960,10.0,71.0
5093,80.0,0,960,5.0,71.0
5094,64.0,480,960,7.0,71.0
5095,68.0,0,960,6.0,71.0
5096,62.0,480,960,8.0,71.0
5097,50.0,0,960,10.0,71.0
5098,66.0,0,960,6.0,71.0
5099,78.0,0,960,5.0,71.0
5100,62.0,480,960,7.0,71.0
5101,45.0,480,960,10.0,71.0
5102,57.0,0,960,8.0,71.0
5103,64.0,0,960,6.0,71.0
5104,76.0,480,960,5.0,71.0
5105,61.0,0,960,7.0,71.0
5106,56.0,480,960,8.0,71.0
5107,44.0,0,960,10.0,71.0
5108,62.0,0,960,6.0,71.0
5109,74.0,480,960,5.0,71.0
5110,59.0,0,960,7.0,71.0
5111,57.0,480,960,8.0,71.0
5112,45.0,0,960,10.0,71.0
5113,61.0,0,720,6.0,71.0
5114,57.0,0,720,7.0,71.0
5115,73.0,480,720,5.0,71.0
5116,56.0,0,240,7.0,71.0
5117,59.0,240,240,6.0,71.0
5118,71.0,0,240,5.0,71.0
5119,70.0,0,240,5.0,71.0
5120,54.0,0,240,7.0,71.0
5121,58.0,240,240,6.0,71.0
5122,52.0,480,768,8.0,71.0
5123,40.0,0,768,10.0,71.0
5124,56.0,0,192,7.0,71.0
5125,59.0,0,240,6.0,71.0
5126,71.0,240,240,5.0,71.0
5127,69.0,240,240,5.0,71.0
5128,59.0,0,384,6.0,71.0
5129,56.0,0,384,7.0,71.0
5130,68.0,240,240,5.0,71.0
5131,66.0,240,240,5.0,71.0
5132,64.0,240,192,5.0,71.0
5133,57.0,0,240,3.0,71.0
5134,69.0,0,384,2.0,90.0
5135,64.0,240,240,3.0,71.0
5136,71.0,240,60,2.0,90.0
5137,69.0,60,60,2.0,90.0
5138,71.0,60,60,2.0,90.0
5139,61.0,0,240,3.0,71.0
5140,69.0,60,60,2.0,90.0
5141,71.0,60,60,2.0,90.0
5142,69.0,60,60,2.0,90.0
5143,71.0,60,60,2.0,90.0
5144,69.0,60,60,2.0,90.0
5145,64.0,0,240,3.0,71.0
5146,57.0,0,240,3.0,71.0
5147,73.0,60,480,2.0,90.0
5148,64.0,240,240,3.0,71.0
5149,61.0,240,240,3.0,71.0
5150,76.0,0,384,2.0,90.0
5151,64.0,240,228,3.0,71.0
5152,69.0,240,1920,5.0,58.0
5153,69.0,0,1920,6.0,34.0
5154,61.0,0,1920,7.0,58.0
5155,76.0,0,120,2.0,90.0
5156,57.0,0,240,3.0,71.0
5157,74.0,120,288,2.0,90.0
5158,62.0,120,240,3.0,71.0
5159,73.0,240,120,2.0,90.0
5160,59.0,0,240,3.0,71.0
5161,71.0,120,288,2.0,90.0
5162,62.0,120,240,3.0,71.0
5163,69.0,0,120,2.0,90.0
5164,57.0,240,240,3.0,71.0
5165,68.0,120,288,2.0,90.0
5166,62.0,120,240,3.0,71.0
5167,66.0,240,120,2.0,90.0
5168,59.0,0,240,3.0,71.0
5169,64.0,120,288,2.0,90.0
5170,62.0,120,228,3.0,71.0
5171,59.0,0,1920,6.0,58.0
5172,64.0,0,3840,7.0,58.0
5173,71.0,240,1920,5.0,58.0
5174,57.0,0,240,3.0,71.0
5175,71.0,0,384,2.0,90.0
5176,68.0,240,240,3.0,71.0
5177,73.0,0,60,2.0,90.0
5178,71.0,60,60,2.0,90.0
5179,73.0,60,60,2.0,90.0
5180,62.0,240,240,3.0,71.0
5181,71.0,60,60,2.0,90.0
5182,73.0,60,60,2.0,90.0
5183,71.0,60,60,2.0,90.0
5184,73.0,60,60,2.0,90.0
5185,68.0,0,240,3.0,71.0
5186,71.0,60,60,2.0,90.0
5187,57.0,0,240,3.0,71.0
5188,68.0,240,240,3.0,71.0
5189,74.0,60,480,2.0,90.0
5190,62.0,240,240,3.0,71.0
5191,78.0,0,384,2.0,90.0
5192,68.0,240,228,3.0,71.0
5193,62.0,0,3840,7.0,58.0
5194,59.0,0,1920,7.0,58.0
5195,71.0,0,3840,6.0,34.0
5196,74.0,0,1920,5.0,58.0
5197,68.0,240,1920,6.0,59.0
5198,57.0,240,240,3.0,71.0
5199,69.0,240,240,3.0,71.0
5200,76.0,0,720,2.0,90.0
5201,61.0,240,240,3.0,71.0
5202,69.0,240,240,3.0,71.0
5203,73.0,0,240,2.0,90.0
5204,57.0,240,240,3.0,71.0
5205,76.0,0,384,2.0,90.0
5206,69.0,240,240,3.0,71.0
5207,61.0,240,240,3.0,71.0
5208,45.0,0,7642,10.0,62.0
5209,57.0,0,7642,8.0,62.0
5210,69.0,240,228,3.0,71.0
5211,61.0,0,1920,7.0,58.0
5212,73.0,0,1920,5.0,58.0
5213,64.0,0,3840,5.0,58.0
5214,69.0,0,1920,6.0,59.0
5215,69.0,240,192,2.0,127.0
5216,71.0,240,96,2.0,122.0
5217,73.0,120,96,2.0,120.0
5218,74.0,120,96,2.0,118.0
5219,76.0,120,96,2.0,116.0
5220,78.0,120,96,2.0,114.0
5221,80.0,120,96,2.0,112.0
5222,81.0,120,120,2.0,110.0
5223,83.0,120,120,2.0,108.0
5224,85.0,120,120,2.0,106.0
5225,83.0,120,120,2.0,104.0
5226,81.0,120,156,2.0,102.0
5227,80.0,240,156,2.0,98.0
5228,50.0,0,192,4.0,108.0
5229,80.0,0,240,2.0,105.0
5230,52.0,0,96,4.0,106.0
5231,69.0,240,384,3.0,90.0
5232,78.0,240,192,2.0,105.0
5233,54.0,120,96,4.0,103.0
5234,56.0,0,96,4.0,101.0
5235,57.0,120,96,4.0,98.0
5236,59.0,120,96,4.0,96.0
5237,61.0,120,96,4.0,93.0
5238,62.0,120,120,4.0,91.0
5239,61.0,120,120,4.0,88.0
5240,69.0,0,768,3.0,90.0
5241,62.0,120,120,4.0,86.0
5242,61.0,120,120,4.0,83.0
5243,78.0,120,1116,2.0,105.0
5244,62.0,120,192,4.0,81.0
5245,76.0,0,156,2.0,105.0
5246,61.0,240,192,4.0,80.0
5247,54.0,240,192,4.0,109.0
5248,76.0,0,240,2.0,105.0
5249,56.0,0,96,4.0,104.0
5250,69.0,0,384,3.0,90.0
5251,74.0,240,192,2.0,105.0
5252,57.0,120,96,4.0,102.0
5253,59.0,0,96,4.0,100.0
5254,61.0,120,96,4.0,97.0
5255,62.0,120,96,4.0,95.0
5256,64.0,120,96,4.0,93.0
5257,66.0,120,120,4.0,91.0
5258,64.0,120,120,4.0,88.0
5259,69.0,120,768,3.0,90.0
5260,66.0,120,120,4.0,86.0
5261,64.0,120,120,4.0,84.0
5262,74.0,0,1116,2.0,105.0
5263,66.0,120,192,4.0,82.0
5264,73.0,0,156,2.0,105.0
5265,64.0,240,192,4.0,80.0
5266,74.0,0,60,2.0,105.0
5267,73.0,60,60,2.0,105.0
5268,74.0,60,60,2.0,105.0
5269,73.0,60,60,2.0,105.0
5270,62.0,240,312,4.0,80.0
5271,71.0,60,156,2.0,105.0
5272,74.0,240,156,2.0,105.0
5273,59.0,0,312,4.0,80.0
5274,71.0,240,156,2.0,105.0
5275,73.0,0,60,2.0,105.0
5276,71.0,60,60,2.0,105.0
5277,73.0,60,60,2.0,105.0
5278,71.0,60,60,2.0,105.0
5279,64.0,240,312,4.0,80.0
5280,69.0,60,156,2.0,105.0
5281,71.0,0,60,2.0,105.0
5282,69.0,60,60,2.0,105.0
5283,71.0,60,60,2.0,105.0
5284,69.0,60,60,2.0,105.0
5285,52.0,240,312,4.0,80.0
5286,68.0,60,156,2.0,105.0
5287,69.0,240,96,2.0,125.0
5288,64.0,120,96,2.0,117.0
5289,66.0,120,96,2.0,117.0
5290,68.0,120,96,2.0,117.0
5291,69.0,120,96,2.0,117.0
5292,71.0,120,96,2.0,117.0
5293,73.0,120,96,2.0,117.0
5294,74.0,120,96,2.0,117.0
5295,76.0,120,96,2.0,117.0
5296,78.0,120,96,2.0,117.0
5297,80.0,120,96,2.0,117.0
5298,81.0,120,96,2.0,117.0
5299,80.0,120,96,2.0,117.0
5300,59.0,0,144,3.0,90.0
5301,52.0,0,144,3.0,90.0
5302,78.0,120,96,2.0,117.0
5303,76.0,120,96,2.0,117.0
5304,56.0,0,144,3.0,90.0
5305,52.0,0,144,3.0,90.0
5306,74.0,120,96,2.0,117.0
5307,54.0,0,144,3.0,90.0
5308,73.0,0,144,2.0,105.0
5309,57.0,120,144,3.0,90.0
5310,73.0,240,144,2.0,105.0
5311,57.0,0,144,3.0,90.0
5312,54.0,0,144,3.0,90.0
5313,62.0,240,144,3.0,90.0
5314,78.0,0,144,2.0,105.0
5315,50.0,0,144,3.0,90.0
5316,78.0,240,144,2.0,105.0
5317,50.0,0,144,3.0,90.0
5318,62.0,0,144,3.0,90.0
5319,52.0,0,144,3.0,90.0
5320,61.0,240,144,3.0,90.0
5321,76.0,0,144,2.0,105.0
5322,52.0,240,144,3.0,90.0
5323,61.0,0,144,3.0,90.0
5324,76.0,0,144,2.0,105.0
5325,68.0,240,144,2.0,105.0
5326,59.0,0,144,3.0,90.0
5327,52.0,0,144,3.0,90.0
5328,52.0,0,144,3.0,90.0
5329,59.0,0,144,3.0,90.0
5330,68.0,240,144,2.0,105.0
5331,69.0,240,96,5.0,82.0
5332,64.0,120,96,5.0,117.0
5333,66.0,120,96,5.0,117.0
5334,69.0,0,384,2.0,105.0
5335,57.0,0,384,3.0,105.0
5336,68.0,120,96,5.0,117.0
5337,69.0,120,96,5.0,117.0
5338,71.0,120,96,5.0,117.0
5339,73.0,120,96,5.0,117.0
5340,74.0,120,96,5.0,117.0
5341,76.0,120,96,5.0,117.0
5342,78.0,120,96,5.0,117.0
5343,80.0,120,96,5.0,117.0
5344,81.0,120,96,5.0,117.0
5345,80.0,0,96,5.0,117.0
5346,62.0,120,144,7.0,105.0
5347,71.0,0,144,6.0,105.0
5348,40.0,0,144,10.0,105.0
5349,74.0,0,144,0.0,90.0
5350,64.0,0,144,1.0,90.0
5351,80.0,0,144,0.0,90.0
5352,71.0,0,144,1.0,90.0
5353,52.0,0,144,8.0,105.0
5354,78.0,120,96,5.0,117.0
5355,76.0,0,96,5.0,117.0
5356,74.0,0,144,0.0,90.0
5357,68.0,0,144,6.0,105.0
5358,64.0,0,144,1.0,90.0
5359,71.0,0,144,1.0,90.0
5360,80.0,0,144,0.0,90.0
5361,59.0,0,144,7.0,105.0
5362,40.0,120,144,10.0,105.0
5363,52.0,0,144,8.0,105.0
5364,74.0,120,96,5.0,117.0
5365,57.0,0,144,1.0,90.0
5366,54.0,0,144,8.0,105.0
5367,69.0,120,144,6.0,105.0
5368,81.0,0,144,0.0,90.0
5369,57.0,0,144,7.0,105.0
5370,73.0,0,144,0.0,90.0
5371,73.0,0,144,5.0,105.0
5372,42.0,0,144,10.0,105.0
5373,69.0,0,144,1.0,90.0
5374,73.0,0,144,0.0,90.0
5375,69.0,0,144,6.0,105.0
5376,54.0,240,144,8.0,105.0
5377,73.0,0,144,5.0,105.0
5378,69.0,0,144,1.0,90.0
5379,81.0,0,144,0.0,90.0
5380,57.0,0,144,7.0,105.0
5381,42.0,0,144,10.0,105.0
5382,57.0,0,144,1.0,90.0
5383,69.0,0,144,1.0,90.0
5384,78.0,0,144,0.0,90.0
5385,62.0,0,144,7.0,105.0
5386,78.0,240,144,5.0,105.0
5387,57.0,0,144,1.0,90.0
5388,69.0,0,144,6.0,105.0
5389,38.0,0,144,10.0,105.0
5390,74.0,0,144,0.0,90.0
5391,50.0,0,144,8.0,105.0
5392,78.0,0,144,5.0,105.0
5393,78.0,0,144,0.0,90.0
5394,74.0,0,144,0.0,90.0
5395,50.0,0,144,8.0,105.0
5396,69.0,0,144,6.0,105.0
5397,38.0,0,144,10.0,105.0
5398,57.0,240,144,1.0,90.0
5399,69.0,0,144,1.0,90.0
5400,62.0,0,144,7.0,105.0
5401,61.0,0,144,7.0,105.0
5402,40.0,0,144,10.0,105.0
5403,76.0,0,144,5.0,105.0
5404,52.0,0,144,8.0,105.0
5405,73.0,0,144,0.0,90.0
5406,69.0,0,144,6.0,105.0
5407,69.0,0,144,1.0,90.0
5408,76.0,0,144,0.0,90.0
5409,57.0,240,144,1.0,90.0
5410,76.0,0,144,5.0,105.0
5411,76.0,0,144,0.0,90.0
5412,73.0,0,144,0.0,90.0
5413,52.0,0,144,8.0,105.0
5414,57.0,240,144,1.0,90.0
5415,69.0,0,144,6.0,105.0
5416,69.0,0,144,1.0,90.0
5417,40.0,0,144,10.0,105.0
5418,61.0,0,144,7.0,105.0
5419,74.0,0,144,0.0,90.0
5420,40.0,0,144,10.0,105.0
5421,59.0,0,144,7.0,105.0
5422,62.0,0,144,6.0,105.0
5423,71.0,240,144,1.0,90.0
5424,64.0,0,144,1.0,90.0
5425,52.0,0,144,8.0,105.0
5426,68.0,0,144,5.0,105.0
5427,80.0,0,144,0.0,90.0
5428,71.0,0,144,1.0,90.0
5429,64.0,240,144,1.0,90.0
5430,68.0,0,144,5.0,105.0
5431,62.0,0,144,6.0,105.0
5432,52.0,0,144,8.0,105.0
5433,80.0,0,144,0.0,90.0
5434,74.0,0,144,0.0,90.0
5435,40.0,0,144,10.0,105.0
5436,59.0,0,144,7.0,105.0
5437,57.0,0,384,7.0,105.0
5438,61.0,0,384,6.0,105.0
5439,33.0,0,384,10.0,105.0
5440,69.0,0,384,5.0,105.0
5441,45.0,0,384,8.0,105.0
5442,81.0,240,384,0.0,90.0
5443,73.0,0,384,0.0,90.0
5444,64.0,0,384,1.0,90.0
5445,69.0,0,384,1.0,90.0
5446,76.0,0,120,6.0,105.0
5447,76.0,480,120,5.0,105.0
5448,73.0,0,78,5.0,105.0
5449,73.0,120,78,6.0,105.0
5450,76.0,0,78,5.0,105.0
5451,76.0,120,78,6.0,105.0
5452,73.0,120,78,5.0,105.0
5453,73.0,0,78,6.0,105.0
5454,81.0,0,384,6.0,105.0
5455,81.0,120,384,5.0,105.0
5456,52.0,0,120,10.0,105.0
5457,64.0,0,120,7.0,105.0
5458,64.0,0,120,8.0,105.0
5459,76.0,0,120,5.0,105.0
5460,76.0,480,120,6.0,105.0
5461,76.0,0,120,0.0,90.0
5462,61.0,0,78,7.0,105.0
5463,49.0,120,78,10.0,105.0
5464,73.0,0,78,6.0,105.0
5465,73.0,0,78,0.0,90.0
5466,73.0,0,78,5.0,105.0
5467,61.0,0,78,8.0,105.0
5468,64.0,0,234,1.0,90.0
5469,64.0,0,78,7.0,105.0
5470,52.0,0,78,10.0,105.0
5471,64.0,0,78,8.0,105.0
5472,76.0,0,78,6.0,105.0
5473,76.0,0,78,5.0,105.0
5474,76.0,120,78,0.0,90.0
5475,61.0,0,78,8.0,105.0
5476,73.0,0,78,0.0,90.0
5477,61.0,120,78,1.0,90.0
5478,49.0,0,78,10.0,105.0
5479,61.0,0,78,7.0,105.0
5480,73.0,0,78,5.0,105.0
5481,73.0,0,78,6.0,105.0
5482,69.0,0,312,6.0,105.0
5483,69.0,0,312,0.0,90.0
5484,69.0,120,312,5.0,105.0
5485,57.0,0,312,1.0,90.0
5486,57.0,0,384,7.0,105.0
5487,57.0,0,384,8.0,105.0
5488,45.0,0,384,10.0,105.0
5489,57.0,0,234,5.0,105.0
5490,57.0,0,234,1.0,90.0
5491,33.0,0,234,10.0,105.0
5492,45.0,0,234,8.0,105.0
5493,57.0,0,234,7.0,105.0
5494,57.0,480,234,6.0,105.0
5495,69.0,0,234,0.0,90.0
5496,57.0,0,78,7.0,105.0
5497,57.0,0,78,6.0,105.0
5498,57.0,0,78,1.0,90.0
5499,69.0,0,78,0.0,90.0
5500,57.0,360,78,5.0,105.0
5501,45.0,0,78,8.0,105.0
5502,33.0,0,78,10.0,105.0
5503,45.0,0,384,8.0,105.0
5504,57.0,120,384,6.0,105.0
5505,57.0,0,384,5.0,105.0
5506,33.0,0,384,10.0,105.0
5507,69.0,0,384,0.0,90.0
5508,57.0,0,384,1.0,90.0
5509,57.0,0,384,7.0,105.0
5510,76.0,480,120,2.0,105.0
5511,73.0,120,120,2.0,105.0
5512,76.0,120,120,2.0,105.0
5513,73.0,120,120,2.0,105.0
5514,81.0,120,384,2.0,90.0
5515,76.0,480,120,2.0,90.0
5516,73.0,120,120,2.0,90.0
5517,76.0,120,120,2.0,90.0
5518,73.0,120,120,2.0,90.0
5519,69.0,120,384,2.0,90.0
5520,81.0,0,312,2.0,90.0
5521,69.0,480,312,2.0,90.0
5522,64.0,0,312,3.0,71.0
5523,61.0,0,312,3.0,71.0
5524,57.0,0,312,3.0,71.0
5525,70.0,0,960,2.0,93.0
5526,82.0,0,960,2.0,108.0
5527,62.0,0,1152,3.0,71.0
5528,64.0,0,1152,3.0,71.0
5529,56.0,480,1152,3.0,71.0
5530,83.0,960,384,2.0,85.0
5531,71.0,0,384,2.0,70.0
5532,71.0,480,120,2.0,90.0
5533,68.0,120,120,2.0,90.0
5534,71.0,120,120,2.0,90.0
5535,68.0,120,120,2.0,90.0
5536,74.0,120,384,2.0,90.0
5537,71.0,480,120,2.0,90.0
5538,68.0,120,120,2.0,90.0
5539,71.0,120,120,2.0,90.0
5540,68.0,120,120,2.0,90.0
5541,64.0,120,384,2.0,90.0
5542,52.0,480,312,3.0,71.0
5543,64.0,0,312,3.0,71.0
5544,62.0,0,312,3.0,71.0
5545,56.0,0,312,3.0,71.0
5546,71.0,0,312,2.0,90.0
5547,83.0,0,312,2.0,90.0
5548,72.0,0,960,2.0,90.0
5549,84.0,480,960,2.0,110.0
5550,64.0,0,1152,3.0,71.0
5551,61.0,0,1152,3.0,71.0
5552,57.0,0,1152,3.0,71.0
5553,55.0,0,1152,3.0,71.0
5554,85.0,0,312,2.0,90.0
5555,73.0,960,312,2.0,90.0
5556,85.0,0,312,2.0,90.0
5557,73.0,0,312,2.0,90.0
5558,64.0,0,384,3.0,71.0
5559,57.0,0,384,3.0,71.0
5560,61.0,0,384,3.0,71.0
5561,55.0,480,384,3.0,71.0
5562,85.0,0,960,2.0,110.0
5563,73.0,0,960,2.0,90.0
5564,62.0,0,1152,3.0,71.0
5565,57.0,0,1152,3.0,71.0
5566,66.0,0,1152,3.0,71.0
5567,54.0,480,1152,3.0,71.0
5568,74.0,0,312,2.0,90.0
5569,86.0,960,312,2.0,90.0
5570,86.0,0,312,2.0,90.0
5571,74.0,0,312,2.0,90.0
5572,57.0,480,384,3.0,71.0
5573,62.0,0,384,3.0,71.0
5574,54.0,0,384,3.0,71.0
5575,75.0,0,960,2.0,90.0
5576,87.0,0,960,2.0,110.0
5577,52.0,0,1152,3.0,62.0
5578,57.0,0,1152,3.0,62.0
5579,49.0,480,1152,3.0,62.0
5580,56.0,0,1152,3.0,62.0
5581,76.0,0,312,2.0,86.0
5582,88.0,960,312,2.0,86.0
5583,79.0,0,312,2.0,88.0
5584,61.0,0,384,3.0,62.0
5585,69.0,480,384,3.0,62.0
5586,78.0,0,120,2.0,80.0
5587,62.0,480,228,3.0,71.0
5588,62.0,0,240,8.0,62.0
5589,69.0,0,240,6.0,62.0
5590,78.0,0,240,5.0,62.0
5591,79.0,120,120,2.0,80.0
5592,50.0,0,240,10.0,62.0
5593,66.0,0,240,7.0,62.0
5594,78.0,0,120,2.0,80.0
5595,69.0,0,384,3.0,71.0
5596,61.0,120,228,3.0,71.0
5597,77.0,120,120,2.0,80.0
5598,62.0,0,228,3.0,71.0
5599,78.0,120,240,2.0,80.0
5600,78.0,0,120,2.0,80.0
5601,62.0,0,228,3.0,71.0
5602,50.0,0,240,10.0,62.0
5603,69.0,0,240,6.0,62.0
5604,78.0,0,240,5.0,62.0
5605,66.0,0,240,7.0,62.0
5606,62.0,0,240,8.0,62.0
5607,79.0,120,120,2.0,80.0
5608,78.0,0,120,2.0,80.0
5609,69.0,480,384,3.0,71.0
5610,61.0,120,228,3.0,71.0
5611,77.0,120,120,2.0,80.0
5612,62.0,0,228,3.0,71.0
5613,78.0,120,240,2.0,80.0
5614,78.0,0,96,2.0,90.0
5615,59.0,0,156,3.0,71.0
5616,74.0,120,96,2.0,90.0
5617,76.0,120,96,2.0,90.0
5618,62.0,0,156,3.0,71.0
5619,78.0,120,96,2.0,90.0
5620,80.0,120,96,2.0,90.0
5621,68.0,0,156,3.0,71.0
5622,81.0,120,96,2.0,90.0
5623,83.0,120,96,2.0,90.0
5624,62.0,0,156,3.0,71.0
5625,85.0,120,96,2.0,90.0
5626,86.0,0,96,2.0,105.0
5627,59.0,120,156,3.0,71.0
5628,88.0,120,96,2.0,105.0
5629,86.0,0,96,2.0,105.0
5630,62.0,120,156,3.0,71.0
5631,85.0,120,96,2.0,105.0
5632,83.0,0,96,2.0,90.0
5633,68.0,120,156,3.0,71.0
5634,81.0,120,96,2.0,90.0
5635,80.0,120,96,2.0,90.0
5636,62.0,0,156,3.0,71.0
5637,78.0,120,96,2.0,90.0
5638,62.0,480,1920,7.0,62.0
5639,78.0,0,1920,5.0,62.0
5640,47.0,0,1920,10.0,62.0
5641,59.0,0,1920,8.0,62.0
5642,76.0,0,120,2.0,80.0
5643,61.0,0,228,3.0,71.0
5644,49.0,120,240,10.0,62.0
5645,64.0,0,240,7.0,62.0
5646,76.0,0,240,5.0,62.0
5647,68.0,0,2160,6.0,62.0
5648,78.0,120,120,2.0,80.0
5649,61.0,0,240,8.0,62.0
5650,76.0,0,120,2.0,80.0
5651,68.0,0,384,3.0,71.0
5652,60.0,120,228,3.0,71.0
5653,75.0,120,120,2.0,80.0
5654,76.0,120,192,2.0,80.0
5655,61.0,0,228,3.0,71.0
5656,76.0,0,120,2.0,80.0
5657,61.0,0,228,3.0,71.0
5658,61.0,480,240,8.0,62.0
5659,49.0,0,240,10.0,62.0
5660,64.0,0,240,7.0,62.0
5661,76.0,0,240,5.0,62.0
5662,68.0,0,240,6.0,62.0
5663,78.0,120,120,2.0,80.0
5664,76.0,120,120,2.0,80.0
5665,68.0,0,384,3.0,71.0
5666,60.0,0,228,3.0,71.0
5667,75.0,120,120,2.0,80.0
5668,76.0,120,192,2.0,80.0
5669,61.0,0,228,3.0,71.0
5670,76.0,480,96,2.0,90.0
5671,57.0,0,192,3.0,71.0
5672,73.0,120,96,2.0,90.0
5673,74.0,0,96,2.0,90.0
5674,61.0,120,192,3.0,71.0
5675,76.0,120,96,2.0,90.0
5676,78.0,0,96,2.0,90.0
5677,66.0,120,192,3.0,71.0
5678,80.0,120,96,2.0,90.0
5679,81.0,0,96,2.0,90.0
5680,61.0,120,192,3.0,71.0
5681,83.0,120,96,2.0,105.0
5682,85.0,120,96,2.0,105.0
5683,57.0,0,192,3.0,71.0
5684,86.0,120,96,2.0,105.0
5685,85.0,120,96,2.0,105.0
5686,61.0,0,192,3.0,71.0
5687,83.0,120,96,2.0,90.0
5688,81.0,120,96,2.0,90.0
5689,66.0,0,192,3.0,71.0
5690,80.0,120,96,2.0,90.0
5691,78.0,0,96,2.0,90.0
5692,61.0,120,192,3.0,71.0
5693,76.0,120,96,2.0,90.0
5694,45.0,0,1920,10.0,62.0
5695,57.0,0,1920,8.0,62.0
5696,61.0,0,1920,7.0,62.0
5697,76.0,0,1920,5.0,62.0
5698,74.0,0,120,2.0,80.0
5699,59.0,0,228,3.0,71.0
5700,59.0,0,240,8.0,62.0
5701,66.0,0,2160,6.0,62.0
5702,74.0,120,240,5.0,62.0
5703,62.0,0,240,7.0,62.0
5704,76.0,120,120,2.0,80.0
5705,47.0,0,240,10.0,62.0
5706,74.0,0,120,2.0,80.0
5707,66.0,0,384,3.0,71.0
5708,58.0,120,228,3.0,71.0
5709,73.0,120,120,2.0,80.0
5710,74.0,120,192,2.0,80.0
5711,59.0,0,228,3.0,71.0
5712,74.0,0,120,2.0,80.0
5713,59.0,480,228,3.0,71.0
5714,76.0,120,120,2.0,80.0
5715,62.0,0,240,7.0,62.0
5716,59.0,0,240,8.0,62.0
5717,66.0,0,240,6.0,62.0
5718,74.0,0,240,5.0,62.0
5719,47.0,0,240,10.0,62.0
5720,74.0,120,120,2.0,80.0
5721,66.0,0,384,3.0,71.0
5722,58.0,0,228,3.0,71.0
5723,73.0,120,120,2.0,80.0
5724,74.0,120,192,2.0,80.0
5725,59.0,0,228,3.0,71.0
5726,74.0,0,96,2.0,90.0
5727,71.0,120,96,2.0,90.0
5728,56.0,480,240,3.0,71.0
5729,73.0,120,96,2.0,90.0
5730,74.0,120,96,2.0,90.0
5731,59.0,0,240,3.0,71.0
5732,76.0,0,96,2.0,90.0
5733,78.0,120,96,2.0,90.0
5734,64.0,120,240,3.0,71.0
5735,80.0,120,96,2.0,90.0
5736,59.0,0,192,3.0,71.0
5737,81.0,120,96,2.0,105.0
5738,83.0,120,96,2.0,105.0
5739,85.0,120,96,2.0,105.0
5740,56.0,0,240,3.0,71.0
5741,83.0,0,96,2.0,105.0
5742,81.0,120,96,2.0,105.0
5743,59.0,120,240,3.0,71.0
5744,80.0,0,96,2.0,105.0
5745,78.0,120,96,2.0,105.0
5746,64.0,120,240,3.0,71.0
5747,76.0,120,96,2.0,105.0
5748,59.0,0,192,3.0,71.0
5749,74.0,120,96,2.0,105.0
5750,44.0,0,1920,10.0,62.0
5751,74.0,0,1920,5.0,62.0
5752,56.0,0,1920,8.0,62.0
5753,59.0,0,1920,7.0,62.0
5754,73.0,0,96,2.0,105.0
5755,69.0,120,96,2.0,105.0
5756,45.0,0,240,10.0,62.0
5757,57.0,0,240,8.0,62.0
5758,61.0,120,240,7.0,62.0
5759,57.0,0,240,3.0,71.0
5760,64.0,0,2160,6.0,62.0
5761,73.0,0,240,5.0,62.0
5762,71.0,0,96,2.0,105.0
5763,73.0,120,96,2.0,105.0
5764,61.0,120,240,3.0,71.0
5765,74.0,0,96,2.0,105.0
5766,76.0,120,96,2.0,105.0
5767,64.0,120,240,3.0,71.0
5768,78.0,120,96,2.0,105.0
5769,61.0,0,192,3.0,71.0
5770,80.0,120,96,2.0,105.0
5771,81.0,0,96,2.0,105.0
5772,83.0,120,96,2.0,105.0
5773,69.0,120,240,6.0,62.0
5774,66.0,0,240,7.0,62.0
5775,42.0,0,240,10.0,62.0
5776,73.0,0,240,5.0,62.0
5777,54.0,0,240,3.0,71.0
5778,54.0,0,240,8.0,62.0
5779,81.0,120,96,2.0,105.0
5780,80.0,120,96,2.0,105.0
5781,57.0,0,240,3.0,71.0
5782,78.0,0,96,2.0,105.0
5783,76.0,120,96,2.0,105.0
5784,61.0,120,240,3.0,71.0
5785,74.0,0,96,2.0,105.0
5786,57.0,120,192,3.0,71.0
5787,73.0,120,96,2.0,105.0
5788,71.0,0,96,2.0,105.0
5789,73.0,120,96,2.0,105.0
5790,50.0,0,240,3.0,71.0
5791,71.0,0,96,2.0,105.0
5792,70.0,120,96,2.0,105.0
5793,54.0,120,240,3.0,71.0
5794,71.0,0,96,2.0,105.0
5795,73.0,120,96,2.0,105.0
5796,57.0,120,240,3.0,71.0
5797,74.0,120,96,2.0,105.0
5798,54.0,0,192,3.0,71.0
5799,76.0,120,96,2.0,105.0
5800,78.0,0,96,2.0,105.0
5801,76.0,120,96,2.0,105.0
5802,50.0,120,240,3.0,71.0
5803,74.0,120,96,2.0,105.0
5804,73.0,120,96,2.0,105.0
5805,54.0,0,240,3.0,71.0
5806,38.0,0,1440,10.0,62.0
5807,50.0,0,1440,8.0,62.0
5808,71.0,120,96,2.0,105.0
5809,69.0,120,96,2.0,105.0
5810,51.0,0,240,3.0,71.0
5811,68.0,0,96,2.0,105.0
5812,54.0,120,192,3.0,71.0
5813,69.0,120,96,2.0,105.0
5814,51.0,0,480,8.0,62.0
5815,39.0,0,480,10.0,62.0
5816,69.0,0,1920,6.0,62.0
5817,66.0,120,1920,7.0,62.0
5818,71.0,0,2232,5.0,62.0
5819,71.0,0,312,2.0,80.0
5820,68.0,0,312,2.0,80.0
5821,76.0,0,312,2.0,80.0
5822,52.0,120,312,3.0,71.0
5823,40.0,0,768,10.0,62.0
5824,52.0,0,768,8.0,62.0
5825,64.0,0,768,7.0,62.0
5826,68.0,0,768,6.0,62.0
5827,40.0,0,312,3.0,71.0
5828,76.0,0,312,5.0,62.0
5829,64.0,480,312,2.0,80.0
5830,64.0,960,480,6.0,71.0
5831,76.0,0,480,5.0,71.0
5832,57.0,0,192,11.0,62.0
5833,45.0,0,192,12.0,62.0
5834,61.0,0,264,6.0,71.0
5835,73.0,480,264,5.0,71.0
5836,52.0,0,192,11.0,62.0
5837,40.0,0,192,12.0,62.0
5838,61.0,480,480,6.0,71.0
5839,73.0,0,480,5.0,71.0
5840,59.0,0,192,11.0,62.0
5841,47.0,480,192,12.0,62.0
5842,62.0,0,264,6.0,71.0
5843,74.0,0,264,5.0,71.0
5844,40.0,0,192,12.0,62.0
5845,52.0,480,192,11.0,62.0
5846,74.0,0,480,5.0,71.0
5847,62.0,0,480,6.0,71.0
5848,49.0,0,192,12.0,62.0
5849,61.0,0,192,11.0,62.0
5850,64.0,480,384,6.0,62.0
5851,76.0,0,384,5.0,71.0
5852,52.0,0,192,11.0,62.0
5853,40.0,480,192,12.0,62.0
5854,69.0,0,720,7.0,71.0
5855,73.0,240,240,7.0,71.0
5856,49.0,0,192,12.0,62.0
5857,61.0,0,192,11.0,62.0
5858,64.0,240,384,7.0,71.0
5859,48.0,0,192,12.0,62.0
5860,60.0,480,192,11.0,62.0
5861,75.0,0,480,5.0,71.0
5862,63.0,0,480,6.0,71.0
5863,49.0,0,192,12.0,62.0
5864,61.0,0,192,11.0,62.0
5865,76.0,480,384,5.0,62.0
5866,64.0,0,384,6.0,71.0
5867,52.0,480,192,11.0,62.0
5868,40.0,0,192,12.0,62.0
5869,69.0,0,720,7.0,71.0
5870,73.0,240,240,7.0,71.0
5871,61.0,240,192,11.0,62.0
5872,49.0,0,192,12.0,62.0
5873,64.0,0,384,7.0,71.0
5874,48.0,0,192,12.0,62.0
5875,60.0,480,192,11.0,62.0
5876,63.0,0,480,6.0,71.0
5877,75.0,0,480,5.0,71.0
5878,61.0,0,192,11.0,62.0
5879,49.0,480,192,12.0,62.0
5880,76.0,0,384,5.0,62.0
5881,64.0,0,384,6.0,62.0
5882,45.0,480,192,12.0,62.0
5883,57.0,0,192,11.0,62.0
5884,69.0,0,720,7.0,71.0
5885,73.0,240,240,7.0,71.0
5886,52.0,240,192,11.0,62.0
5887,40.0,0,192,12.0,62.0
5888,64.0,0,384,7.0,71.0
5889,78.0,480,120,2.0,90.0
5890,76.0,120,120,2.0,90.0
5891,74.0,120,120,2.0,90.0
5892,73.0,120,120,2.0,90.0
5893,56.0,0,96,3.0,71.0
5894,64.0,120,96,3.0,71.0
5895,71.0,0,264,2.0,90.0
5896,56.0,120,96,3.0,71.0
5897,64.0,120,96,3.0,71.0
5898,56.0,120,96,3.0,71.0
5899,64.0,120,96,3.0,71.0
5900,56.0,120,96,3.0,71.0
5901,64.0,120,96,3.0,71.0
5902,71.0,0,480,2.0,90.0
5903,57.0,120,96,3.0,71.0
5904,64.0,120,96,3.0,71.0
5905,73.0,0,264,2.0,90.0
5906,57.0,120,96,3.0,71.0
5907,64.0,120,96,3.0,71.0
5908,57.0,0,96,3.0,71.0
5909,64.0,120,96,3.0,71.0
5910,57.0,120,96,3.0,71.0
5911,64.0,120,96,3.0,71.0
5912,73.0,120,480,2.0,90.0
5913,59.0,0,96,3.0,71.0
5914,64.0,120,96,3.0,71.0
5915,74.0,120,264,2.0,90.0
5916,59.0,120,96,3.0,71.0
5917,64.0,120,96,3.0,71.0
5918,61.0,120,96,3.0,71.0
5919,64.0,120,96,3.0,71.0
5920,61.0,120,96,3.0,71.0
5921,64.0,120,96,3.0,71.0
5922,46.0,0,480,4.0,80.0
5923,62.0,120,96,3.0,71.0
5924,64.0,120,96,3.0,71.0
5925,47.0,0,264,4.0,80.0
5926,62.0,120,96,3.0,71.0
5927,64.0,120,96,3.0,71.0
5928,58.0,0,96,3.0,71.0
5929,64.0,120,96,3.0,71.0
5930,58.0,120,96,3.0,71.0
5931,64.0,120,96,3.0,71.0
5932,73.0,120,480,2.0,90.0
5933,59.0,0,96,3.0,71.0
5934,64.0,120,96,3.0,71.0
5935,74.0,120,264,2.0,90.0
5936,59.0,120,96,3.0,71.0
5937,64.0,120,96,3.0,71.0
5938,61.0,120,96,3.0,71.0
5939,64.0,120,96,3.0,71.0
5940,61.0,120,96,3.0,71.0
5941,64.0,120,96,3.0,71.0
5942,46.0,0,480,4.0,80.0
5943,62.0,0,96,3.0,71.0
5944,64.0,120,96,3.0,71.0
5945,47.0,120,264,4.0,80.0
5946,62.0,120,96,3.0,71.0
5947,64.0,120,96,3.0,71.0
5948,58.0,120,96,3.0,71.0
5949,64.0,120,96,3.0,71.0
5950,58.0,120,96,3.0,71.0
5951,64.0,120,96,3.0,71.0
5952,85.0,0,480,2.0,90.0
5953,73.0,0,480,2.0,90.0
5954,59.0,120,96,3.0,71.0
5955,64.0,120,96,3.0,71.0
5956,74.0,0,264,2.0,90.0
5957,86.0,0,264,2.0,90.0
5958,59.0,120,96,3.0,71.0
5959,64.0,120,96,3.0,71.0
5960,61.0,120,96,3.0,71.0
5961,64.0,120,96,3.0,71.0
5962,61.0,120,96,3.0,71.0
5963,64.0,120,96,3.0,71.0
5964,46.0,0,480,4.0,80.0
5965,64.0,0,6912,6.0,62.0
5966,52.0,120,6912,7.0,62.0
5967,47.0,0,264,4.0,80.0
5968,62.0,120,384,3.0,71.0
5969,76.0,480,120,2.0,90.0
5970,74.0,120,120,2.0,90.0
5971,73.0,120,120,2.0,90.0
5972,71.0,120,120,2.0,90.0
5973,45.0,120,240,3.0,71.0
5974,69.0,0,264,2.0,90.0
5975,49.0,240,240,3.0,71.0
5976,52.0,0,240,3.0,71.0
5977,57.0,240,240,3.0,71.0
5978,45.0,0,240,3.0,71.0
5979,69.0,240,720,2.0,90.0
5980,49.0,0,240,3.0,71.0
5981,67.0,240,240,2.0,90.0
5982,52.0,240,240,3.0,71.0
5983,66.0,0,240,2.0,90.0
5984,65.0,0,240,2.0,90.0
5985,61.0,0,960,6.0,62.0
5986,67.0,240,960,5.0,62.0
5987,57.0,240,240,3.0,71.0
5988,45.0,0,240,3.0,71.0
5989,65.0,0,240,2.0,90.0
5990,66.0,0,240,2.0,90.0
5991,50.0,240,240,3.0,71.0
5992,54.0,0,240,3.0,71.0
5993,66.0,240,960,5.0,62.0
5994,57.0,240,240,3.0,71.0
5995,57.0,0,2880,7.0,62.0
5996,66.0,240,720,2.0,90.0
5997,45.0,240,240,3.0,71.0
5998,47.0,240,240,3.0,71.0
5999,74.0,0,240,2.0,90.0
6000,71.0,0,240,2.0,90.0
6001,50.0,240,240,3.0,71.0
6002,33.0,0,3840,10.0,62.0
6003,45.0,0,3840,8.0,62.0
6004,68.0,240,240,2.0,90.0
6005,62.0,0,1920,6.0,62.0
6006,68.0,0,960,5.0,62.0
6007,59.0,0,960,7.0,62.0
6008,56.0,0,240,3.0,71.0
6009,45.0,0,240,3.0,71.0
6010,76.0,0,360,2.0,90.0
6011,49.0,240,240,3.0,71.0
6012,73.0,120,120,2.0,90.0
6013,69.0,0,144,2.0,90.0
6014,52.0,120,240,3.0,71.0
6015,69.0,240,144,2.0,90.0
6016,61.0,0,960,6.0,62.0
6017,57.0,0,960,7.0,62.0
6018,57.0,0,240,3.0,71.0
6019,69.0,0,960,5.0,62.0
6020,69.0,240,144,2.0,90.0
6021,57.0,0,240,3.0,71.0
6022,81.0,240,240,2.0,90.0
6023,61.0,0,240,3.0,71.0
6024,64.0,0,240,3.0,71.0
6025,80.0,240,240,2.0,90.0
6026,79.0,0,960,5.0,62.0
6027,73.0,0,960,6.0,62.0
6028,79.0,0,240,2.0,90.0
6029,69.0,240,240,3.0,71.0
6030,57.0,0,240,3.0,71.0
6031,77.0,0,240,2.0,90.0
6032,62.0,240,240,3.0,71.0
6033,78.0,0,240,2.0,90.0
6034,66.0,240,240,3.0,71.0
6035,78.0,240,960,5.0,62.0
6036,69.0,240,240,3.0,71.0
6037,69.0,0,1920,7.0,62.0
6038,57.0,240,240,3.0,71.0
6039,78.0,0,720,2.0,90.0
6040,59.0,240,240,3.0,71.0
6041,86.0,0,240,2.0,90.0
6042,83.0,240,240,2.0,90.0
6043,62.0,0,240,3.0,71.0
6044,68.0,0,192,3.0,71.0
6045,80.0,240,240,2.0,90.0
6046,74.0,0,1920,6.0,62.0
6047,71.0,0,960,7.0,62.0
6048,80.0,0,960,5.0,62.0
6049,57.0,0,240,3.0,71.0
6050,88.0,0,360,2.0,110.0
6051,81.0,0,480,5.0,62.0
6052,85.0,120,120,2.0,90.0
6053,45.0,240,4320,10.0,62.0
6054,73.0,240,480,6.0,62.0
6055,69.0,0,480,7.0,62.0
6056,61.0,240,240,3.0,71.0
6057,57.0,0,4320,8.0,62.0
6058,81.0,120,144,2.0,90.0
6059,64.0,0,240,3.0,71.0
6060,81.0,0,144,2.0,90.0
6061,69.0,240,240,3.0,71.0
6062,81.0,0,240,2.0,90.0
6063,57.0,240,384,3.0,62.0
6064,79.0,240,240,2.0,90.0
6065,78.0,240,240,2.0,90.0
6066,79.0,240,240,2.0,90.0
6067,81.0,0,60,2.0,80.0
6068,79.0,60,60,2.0,80.0
6069,81.0,60,60,2.0,80.0
6070,79.0,60,60,2.0,80.0
6071,78.0,60,156,2.0,80.0
6072,64.0,240,940,3.0,62.0
6073,61.0,0,940,3.0,62.0
6074,58.0,0,940,3.0,62.0
6075,78.0,240,600,2.0,100.0
6076,78.0,120,120,2.0,90.0
6077,80.0,120,120,2.0,90.0
6078,82.0,120,120,2.0,90.0
6079,83.0,120,120,2.0,90.0
6080,85.0,120,120,2.0,90.0
6081,86.0,120,120,2.0,90.0
6082,59.0,480,940,3.0,62.0
6083,62.0,0,940,3.0,62.0
6084,78.0,120,120,2.0,90.0
6085,80.0,120,60,2.0,80.0
6086,78.0,60,60,2.0,80.0
6087,80.0,60,60,2.0,80.0
6088,78.0,60,60,2.0,80.0
6089,76.0,60,156,2.0,80.0
6090,59.0,0,940,3.0,62.0
6091,62.0,0,940,3.0,62.0
6092,56.0,0,940,3.0,62.0
6093,76.0,120,0,2.0,90.0
6094,78.0,120,120,2.0,90.0
6095,80.0,120,120,2.0,90.0
6096,81.0,120,120,2.0,90.0
6097,83.0,120,120,2.0,90.0
6098,85.0,120,120,2.0,90.0
6099,57.0,480,940,3.0,62.0
6100,61.0,0,940,3.0,62.0
6101,76.0,120,120,2.0,90.0
6102,78.0,120,60,2.0,80.0
6103,76.0,60,60,2.0,80.0
6104,78.0,60,60,2.0,80.0
6105,76.0,60,60,2.0,80.0
6106,74.0,60,156,2.0,80.0
6107,61.0,0,940,3.0,62.0
6108,57.0,0,940,3.0,62.0
6109,54.0,0,940,3.0,62.0
6110,74.0,240,600,2.0,100.0
6111,74.0,120,120,2.0,90.0
6112,76.0,120,120,2.0,90.0
6113,78.0,120,120,2.0,90.0
6114,80.0,120,120,2.0,90.0
6115,81.0,120,120,2.0,90.0
6116,83.0,120,120,2.0,90.0
6117,56.0,480,940,3.0,62.0
6118,59.0,0,940,3.0,62.0
6119,74.0,120,120,2.0,90.0
6120,73.0,0,156,2.0,90.0
6121,57.0,120,384,3.0,62.0
6122,81.0,240,240,2.0,90.0
6123,80.0,240,156,2.0,90.0
6124,79.0,240,240,2.0,90.0
6125,78.0,240,156,2.0,90.0
6126,77.0,240,240,2.0,90.0
6127,76.0,240,156,2.0,90.0
6128,75.0,240,240,2.0,90.0
6129,76.0,240,156,2.0,90.0
6130,77.0,240,240,2.0,90.0
6131,80.0,240,240,2.0,90.0
6132,78.0,240,240,2.0,90.0
6133,76.0,240,240,2.0,90.0
6134,74.0,240,240,2.0,90.0
6135,73.0,240,240,2.0,90.0
6136,71.0,240,240,2.0,90.0
6137,76.0,0,240,2.0,80.0
6138,78.0,240,80,2.0,80.0
6139,76.0,80,80,2.0,80.0
6140,75.0,80,80,2.0,80.0
6141,76.0,80,240,2.0,80.0
6142,61.0,240,768,3.0,62.0
6143,57.0,0,768,3.0,62.0
6144,78.0,240,192,2.0,80.0
6145,69.0,0,480,2.0,80.0
6146,52.0,0,1536,3.0,62.0
6147,73.0,480,120,2.0,80.0
6148,62.0,0,768,3.0,62.0
6149,59.0,240,768,3.0,62.0
6150,68.0,0,360,2.0,80.0
6151,71.0,120,360,2.0,80.0
6152,61.0,0,480,3.0,62.0
6153,57.0,0,480,3.0,62.0
6154,69.0,360,480,2.0,71.0
6155,76.0,720,240,5.0,80.0
6156,75.0,240,240,5.0,80.0
6157,78.0,240,240,5.0,80.0
6158,76.0,240,240,5.0,80.0
6159,73.0,240,240,5.0,80.0
6160,64.0,0,144,6.0,62.0
6161,69.0,240,240,5.0,71.0
6162,64.0,240,144,6.0,71.0
6163,64.0,0,144,6.0,71.0
6164,64.0,240,144,6.0,71.0
6165,61.0,0,912,7.0,71.0
6166,57.0,240,480,8.0,71.0
6167,45.0,0,480,10.0,71.0
6168,69.0,0,480,5.0,71.0
6169,64.0,240,144,6.0,71.0
6170,71.0,0,240,5.0,71.0
6171,56.0,0,312,8.0,71.0
6172,44.0,0,312,10.0,71.0
6173,64.0,240,144,6.0,71.0
6174,64.0,0,144,6.0,71.0
6175,62.0,0,720,7.0,71.0
6176,52.0,0,312,8.0,71.0
6177,40.0,240,312,10.0,71.0
6178,64.0,240,144,6.0,71.0
6179,59.0,0,228,7.0,71.0
6180,71.0,0,480,5.0,71.0
6181,64.0,240,144,6.0,71.0
6182,73.0,0,240,5.0,71.0
6183,57.0,0,312,8.0,71.0
6184,45.0,0,312,10.0,71.0
6185,57.0,0,312,7.0,71.0
6186,69.0,240,144,6.0,71.0
6187,69.0,0,144,6.0,71.0
6188,55.0,0,312,8.0,71.0
6189,43.0,240,312,10.0,71.0
6190,69.0,240,144,6.0,71.0
6191,64.0,0,480,7.0,71.0
6192,73.0,0,480,5.0,71.0
6193,69.0,0,144,6.0,71.0
6194,74.0,0,240,5.0,71.0
6195,54.0,0,312,8.0,71.0
6196,42.0,240,312,10.0,71.0
6197,69.0,240,144,6.0,71.0
6198,62.0,0,480,7.0,71.0
6199,69.0,0,144,6.0,71.0
6200,38.0,0,312,10.0,71.0
6201,50.0,240,312,8.0,71.0
6202,69.0,240,144,6.0,71.0
6203,66.0,0,456,7.0,71.0
6204,74.0,0,456,5.0,71.0
6205,78.0,0,240,5.0,71.0
6206,37.0,0,312,10.0,71.0
6207,49.0,240,312,8.0,71.0
6208,76.0,240,240,5.0,71.0
6209,74.0,0,240,5.0,71.0
6210,45.0,0,312,8.0,71.0
6211,33.0,240,312,10.0,71.0
6212,73.0,240,192,5.0,71.0
6213,64.0,0,912,7.0,71.0
6214,73.0,0,240,5.0,71.0
6215,50.0,240,312,8.0,71.0
6216,38.0,0,312,10.0,71.0
6217,69.0,0,1412,6.0,71.0
6218,71.0,240,240,5.0,71.0
6219,63.0,240,240,6.0,71.0
6220,73.0,0,240,5.0,71.0
6221,54.0,0,312,8.0,71.0
6222,42.0,0,312,10.0,71.0
6223,69.0,0,192,5.0,71.0
6224,66.0,0,912,7.0,71.0
6225,66.0,240,192,6.0,71.0
6226,73.0,0,480,5.0,71.0
6227,69.0,0,480,6.0,71.0
6228,71.0,480,192,5.0,71.0
6229,68.0,0,192,6.0,62.0
6230,40.0,0,768,10.0,62.0
6231,64.0,0,768,7.0,62.0
6232,52.0,240,768,8.0,62.0
6233,64.0,0,240,2.0,80.0
6234,76.0,240,240,2.0,80.0
6235,75.0,0,240,2.0,80.0
6236,63.0,240,240,2.0,80.0
6237,66.0,240,240,2.0,80.0
6238,78.0,0,240,2.0,80.0
6239,76.0,240,240,2.0,80.0
6240,64.0,0,240,2.0,80.0
6241,73.0,0,240,2.0,80.0
6242,61.0,240,240,2.0,80.0
6243,45.0,0,192,3.0,71.0
6244,69.0,0,264,2.0,80.0
6245,57.0,240,264,2.0,80.0
6246,52.0,240,192,3.0,71.0
6247,49.0,0,192,3.0,71.0
6248,52.0,240,192,3.0,71.0
6249,57.0,0,480,2.0,80.0
6250,69.0,240,480,2.0,80.0
6251,45.0,240,192,3.0,71.0
6252,71.0,0,264,2.0,80.0
6253,59.0,0,264,2.0,80.0
6254,52.0,240,192,3.0,71.0
6255,50.0,0,192,3.0,71.0
6256,52.0,240,192,3.0,71.0
6257,71.0,240,480,2.0,80.0
6258,59.0,0,480,2.0,80.0
6259,43.0,240,192,3.0,71.0
6260,73.0,0,264,2.0,80.0
6261,61.0,0,264,2.0,80.0
6262,52.0,240,192,3.0,71.0
6263,45.0,0,192,3.0,71.0
6264,52.0,240,192,3.0,71.0
6265,61.0,0,480,2.0,80.0
6266,73.0,240,480,2.0,80.0
6267,42.0,0,192,3.0,71.0
6268,74.0,240,264,2.0,80.0
6269,62.0,0,264,2.0,80.0
6270,50.0,240,192,3.0,71.0
6271,45.0,0,192,3.0,71.0
6272,50.0,240,192,3.0,71.0
6273,62.0,0,480,2.0,80.0
6274,74.0,240,480,2.0,80.0
6275,49.0,0,192,3.0,71.0
6276,64.0,240,264,2.0,80.0
6277,76.0,0,264,2.0,80.0
6278,57.0,240,192,3.0,71.0
6279,52.0,240,192,3.0,71.0
6280,57.0,240,192,3.0,71.0
6281,76.0,0,480,2.0,80.0
6282,64.0,0,480,2.0,80.0
6283,54.0,240,192,3.0,71.0
6284,78.0,0,264,2.0,80.0
6285,66.0,0,264,2.0,80.0
6286,50.0,0,384,3.0,71.0
6287,57.0,240,192,3.0,71.0
6288,52.0,0,192,3.0,71.0
6289,50.0,240,384,3.0,71.0
6290,57.0,240,192,3.0,71.0
6291,68.0,0,480,2.0,80.0
6292,80.0,0,480,2.0,80.0
6293,81.0,0,264,2.0,80.0
6294,69.0,240,264,2.0,80.0
6295,49.0,0,384,3.0,58.0
6296,52.0,0,384,3.0,58.0
6297,57.0,0,384,3.0,58.0
6298,76.0,0,384,2.0,80.0
6299,64.0,480,384,2.0,80.0
6300,66.0,480,384,2.0,80.0
6301,78.0,0,384,2.0,80.0
6302,80.0,0,384,2.0,80.0
6303,68.0,480,384,2.0,80.0
6304,53.0,0,480,3.0,62.0
6305,59.0,0,480,3.0,62.0
6306,50.0,0,480,3.0,62.0
6307,52.0,0,384,3.0,58.0
6308,81.0,0,384,2.0,80.0
6309,69.0,0,384,2.0,80.0
6310,57.0,480,384,3.0,58.0
6311,49.0,0,384,3.0,58.0
6312,64.0,480,240,2.0,80.0
6313,76.0,240,240,2.0,80.0
6314,66.0,240,240,2.0,80.0
6315,78.0,240,240,2.0,80.0
6316,68.0,0,240,2.0,80.0
6317,80.0,240,192,2.0,80.0
6318,59.0,240,480,3.0,62.0
6319,50.0,0,480,3.0,62.0
6320,53.0,0,480,3.0,62.0
6321,69.0,0,120,2.0,80.0
6322,81.0,120,120,2.0,80.0
6323,49.0,0,384,3.0,58.0
6324,57.0,240,384,3.0,58.0
6325,52.0,0,384,3.0,58.0
6326,68.0,0,120,2.0,80.0
6327,80.0,120,120,2.0,80.0
6328,62.0,0,240,3.0,62.0
6329,65.0,600,240,3.0,62.0
6330,69.0,120,120,2.0,80.0
6331,81.0,120,120,2.0,80.0
6332,64.0,0,480,3.0,62.0
6333,61.0,0,480,3.0,62.0
6334,68.0,0,120,2.0,80.0
6335,62.0,0,240,3.0,62.0
6336,80.0,120,120,2.0,80.0
6337,65.0,600,240,3.0,62.0
6338,69.0,0,120,2.0,80.0
6339,81.0,120,120,2.0,80.0
6340,64.0,0,480,3.0,62.0
6341,61.0,120,480,3.0,62.0
6342,68.0,0,120,2.0,80.0
6343,80.0,120,120,2.0,80.0
6344,62.0,0,240,3.0,62.0
6345,65.0,600,240,3.0,62.0
6346,69.0,120,120,2.0,80.0
6347,61.0,0,240,3.0,62.0
6348,64.0,0,240,3.0,62.0
6349,81.0,120,120,2.0,80.0
6350,68.0,0,120,2.0,80.0
6351,80.0,120,120,2.0,80.0
6352,65.0,120,240,3.0,62.0
6353,62.0,0,240,3.0,62.0
6354,69.0,120,120,2.0,80.0
6355,64.0,0,240,3.0,62.0
6356,61.0,0,240,3.0,62.0
6357,81.0,120,120,2.0,80.0
6358,68.0,0,120,2.0,80.0
6359,65.0,0,240,3.0,62.0
6360,62.0,120,240,3.0,62.0
6361,80.0,120,120,2.0,80.0
6362,81.0,120,156,2.0,80.0
6363,64.0,0,384,3.0,71.0
6364,61.0,0,384,3.0,71.0
6365,85.0,240,240,2.0,80.0
6366,83.0,0,240,2.0,80.0
6367,62.0,240,384,3.0,71.0
6368,68.0,0,480,7.0,71.0
6369,50.0,0,480,10.0,71.0
6370,80.0,240,240,2.0,80.0
6371,62.0,0,480,8.0,71.0
6372,71.0,0,480,6.0,71.0
6373,81.0,0,240,2.0,80.0
6374,64.0,0,768,3.0,71.0
6375,61.0,240,384,3.0,71.0
6376,73.0,0,480,6.0,71.0
6377,85.0,240,240,2.0,90.0
6378,61.0,0,480,8.0,71.0
6379,69.0,0,480,7.0,71.0
6380,49.0,0,480,10.0,71.0
6381,83.0,0,240,2.0,90.0
6382,62.0,240,384,3.0,71.0
6383,50.0,0,480,10.0,71.0
6384,71.0,0,480,6.0,71.0
6385,62.0,0,480,8.0,71.0
6386,68.0,0,480,7.0,71.0
6387,80.0,240,240,2.0,90.0
6388,81.0,0,96,2.0,90.0
6389,85.0,120,96,2.0,90.0
6390,83.0,120,96,2.0,90.0
6391,76.0,0,2304,5.0,67.0
6392,64.0,0,864,3.0,71.0
6393,61.0,240,384,3.0,80.0
6394,81.0,120,96,2.0,90.0
6395,61.0,0,480,8.0,71.0
6396,49.0,0,480,10.0,71.0
6397,69.0,0,480,7.0,71.0
6398,73.0,0,480,6.0,71.0
6399,80.0,0,96,2.0,90.0
6400,83.0,120,96,2.0,90.0
6401,81.0,120,96,2.0,90.0
6402,62.0,0,384,3.0,80.0
6403,80.0,120,96,2.0,105.0
6404,71.0,120,480,6.0,71.0
6405,62.0,0,480,8.0,71.0
6406,50.0,0,480,10.0,71.0
6407,68.0,0,480,7.0,71.0
6408,81.0,120,96,2.0,105.0
6409,85.0,120,96,2.0,105.0
6410,64.0,0,768,3.0,80.0
6411,76.0,0,768,5.0,71.0
6412,83.0,120,96,2.0,105.0
6413,61.0,0,384,3.0,80.0
6414,81.0,120,96,2.0,105.0
6415,49.0,0,480,10.0,71.0
6416,61.0,0,480,8.0,71.0
6417,73.0,0,480,6.0,71.0
6418,69.0,0,480,7.0,71.0
6419,80.0,0,96,2.0,105.0
6420,83.0,120,96,2.0,105.0
6421,81.0,120,96,2.0,105.0
6422,68.0,0,384,7.0,71.0
6423,62.0,0,384,8.0,71.0
6424,62.0,0,384,3.0,80.0
6425,50.0,120,384,10.0,71.0
6426,71.0,0,384,6.0,71.0
6427,80.0,120,96,2.0,105.0
6428,81.0,0,96,2.0,105.0
6429,69.0,120,156,7.0,71.0
6430,73.0,0,156,6.0,71.0
6431,49.0,0,156,10.0,71.0
6432,61.0,0,156,8.0,71.0
6433,76.0,0,672,5.0,71.0
6434,64.0,0,672,3.0,80.0
6435,61.0,0,192,3.0,80.0
6436,88.0,120,96,2.0,105.0
6437,85.0,0,96,2.0,105.0
6438,73.0,0,156,6.0,71.0
6439,61.0,120,156,8.0,71.0
6440,49.0,0,156,10.0,71.0
6441,69.0,0,156,7.0,71.0
6442,64.0,0,192,3.0,80.0
6443,61.0,0,192,3.0,80.0
6444,81.0,120,96,2.0,105.0
6445,80.0,0,96,2.0,105.0
6446,76.0,0,384,5.0,71.0
6447,71.0,0,156,6.0,71.0
6448,62.0,0,156,8.0,71.0
6449,50.0,0,156,10.0,71.0
6450,68.0,0,156,7.0,71.0
6451,62.0,120,192,3.0,80.0
6452,64.0,0,192,3.0,80.0
6453,88.0,120,96,2.0,105.0
6454,83.0,0,96,2.0,105.0
6455,68.0,120,156,7.0,71.0
6456,62.0,0,156,8.0,71.0
6457,71.0,0,156,6.0,71.0
6458,50.0,0,156,10.0,71.0
6459,62.0,0,192,3.0,80.0
6460,64.0,0,192,3.0,80.0
6461,80.0,120,96,2.0,105.0
6462,81.0,0,96,2.0,105.0
6463,76.0,0,384,5.0,71.0
6464,73.0,0,156,6.0,71.0
6465,69.0,0,156,7.0,71.0
6466,61.0,0,156,8.0,71.0
6467,49.0,0,156,10.0,71.0
6468,61.0,0,192,3.0,80.0
6469,64.0,120,192,3.0,80.0
6470,88.0,120,96,2.0,105.0
6471,85.0,0,96,2.0,105.0
6472,49.0,120,156,10.0,71.0
6473,73.0,0,156,6.0,71.0
6474,61.0,0,156,8.0,71.0
6475,69.0,0,156,7.0,71.0
6476,64.0,0,192,3.0,80.0
6477,61.0,0,192,3.0,80.0
6478,81.0,120,96,2.0,105.0
6479,80.0,0,96,2.0,105.0
6480,76.0,0,384,5.0,71.0
6481,50.0,0,156,10.0,71.0
6482,71.0,0,156,6.0,71.0
6483,62.0,0,156,8.0,71.0
6484,68.0,0,156,7.0,71.0
6485,62.0,120,192,3.0,80.0
6486,64.0,0,192,3.0,80.0
6487,88.0,120,96,2.0,105.0
6488,83.0,0,96,2.0,105.0
6489,62.0,0,156,8.0,71.0
6490,68.0,120,156,7.0,71.0
6491,71.0,0,156,6.0,71.0
6492,50.0,0,156,10.0,71.0
6493,64.0,0,192,3.0,80.0
6494,62.0,0,192,3.0,80.0
6495,76.0,0,192,5.0,71.0
6496,80.0,120,96,2.0,105.0
6497,81.0,0,96,2.0,105.0
6498,83.0,120,96,2.0,105.0
6499,85.0,120,96,2.0,105.0
6500,69.0,0,384,7.0,71.0
6501,61.0,0,384,3.0,80.0
6502,73.0,0,384,6.0,71.0
6503,64.0,0,384,3.0,80.0
6504,49.0,0,384,10.0,71.0
6505,61.0,0,384,8.0,71.0
6506,76.0,120,384,5.0,71.0
6507,86.0,120,96,2.0,105.0
6508,88.0,120,96,2.0,105.0
6509,86.0,120,96,2.0,105.0
6510,85.0,120,96,2.0,105.0
6511,83.0,120,96,2.0,105.0
6512,81.0,120,96,2.0,105.0
6513,80.0,120,96,2.0,105.0
6514,78.0,120,96,2.0,105.0
6515,76.0,120,96,2.0,105.0
6516,74.0,120,96,2.0,105.0
6517,73.0,120,96,2.0,105.0
6518,71.0,120,96,2.0,105.0
6519,69.0,120,96,2.0,105.0
6520,74.0,0,96,2.0,105.0
6521,76.0,120,96,2.0,105.0
6522,78.0,120,96,2.0,105.0
6523,57.0,0,384,3.0,80.0
6524,62.0,0,384,3.0,80.0
6525,54.0,0,384,3.0,80.0
6526,42.0,0,384,10.0,71.0
6527,81.0,120,384,5.0,71.0
6528,54.0,0,384,8.0,71.0
6529,69.0,0,384,7.0,71.0
6530,74.0,0,384,6.0,71.0
6531,80.0,120,96,2.0,105.0
6532,81.0,120,96,2.0,105.0
6533,80.0,120,96,2.0,105.0
6534,78.0,120,96,2.0,105.0
6535,76.0,120,96,2.0,105.0
6536,74.0,120,96,2.0,105.0
6537,73.0,120,96,2.0,105.0
6538,71.0,120,96,2.0,105.0
6539,69.0,120,96,2.0,105.0
6540,68.0,120,96,2.0,105.0
6541,66.0,120,96,2.0,105.0
6542,64.0,120,96,2.0,105.0
6543,63.0,120,96,2.0,105.0
6544,52.0,0,96,3.0,71.0
6545,64.0,0,120,2.0,90.0
6546,61.0,0,96,3.0,71.0
6547,57.0,0,96,3.0,71.0
6548,40.0,0,384,10.0,71.0
6549,52.0,120,384,8.0,71.0
6550,73.0,0,156,5.0,71.0
6551,64.0,0,156,7.0,71.0
6552,69.0,120,156,6.0,71.0
6553,61.0,120,96,3.0,71.0
6554,76.0,120,360,2.0,90.0
6555,52.0,120,96,3.0,71.0
6556,74.0,0,120,2.0,90.0
6557,73.0,0,156,5.0,71.0
6558,64.0,0,156,7.0,71.0
6559,69.0,0,156,6.0,71.0
6560,61.0,120,96,3.0,71.0
6561,73.0,0,120,2.0,90.0
6562,57.0,0,96,3.0,71.0
6563,71.0,120,120,2.0,90.0
6564,69.0,0,156,6.0,71.0
6565,64.0,0,156,7.0,71.0
6566,73.0,0,156,5.0,71.0
6567,61.0,0,96,3.0,71.0
6568,69.0,120,120,2.0,90.0
6569,73.0,0,60,2.0,90.0
6570,52.0,120,96,3.0,71.0
6571,71.0,60,60,2.0,90.0
6572,73.0,0,60,2.0,90.0
6573,62.0,60,96,3.0,71.0
6574,71.0,60,60,2.0,90.0
6575,73.0,0,60,2.0,90.0
6576,56.0,60,96,3.0,71.0
6577,71.0,60,60,2.0,90.0
6578,40.0,0,384,10.0,71.0
6579,52.0,0,384,8.0,71.0
6580,68.0,0,156,6.0,71.0
6581,71.0,0,156,5.0,71.0
6582,64.0,0,156,7.0,71.0
6583,73.0,0,60,2.0,90.0
6584,62.0,60,96,3.0,71.0
6585,71.0,60,60,2.0,90.0
6586,73.0,60,60,2.0,90.0
6587,52.0,0,96,3.0,71.0
6588,71.0,60,60,2.0,90.0
6589,68.0,0,156,6.0,71.0
6590,64.0,0,156,7.0,71.0
6591,71.0,0,156,5.0,71.0
6592,73.0,0,60,2.0,90.0
6593,62.0,60,96,3.0,71.0
6594,71.0,60,60,2.0,90.0
6595,56.0,0,96,3.0,71.0
6596,69.0,60,120,2.0,90.0
6597,68.0,0,156,6.0,71.0
6598,64.0,0,156,7.0,71.0
6599,71.0,0,156,5.0,71.0
6600,62.0,0,96,3.0,71.0
6601,71.0,120,120,2.0,90.0
6602,69.0,0,156,2.0,80.0
6603,45.0,0,192,10.0,61.0
6604,69.0,0,192,6.0,65.0
6605,57.0,0,192,8.0,64.0
6606,69.0,120,192,5.0,48.0
6607,57.0,0,192,3.0,71.0
6608,64.0,0,192,7.0,71.0
6609,73.0,240,240,2.0,79.0
6610,71.0,0,240,2.0,81.0
6611,62.0,0,384,3.0,71.0
6612,71.0,0,480,7.0,71.0
6613,62.0,0,480,8.0,61.0
6614,68.0,240,240,2.0,82.0
6615,50.0,0,480,10.0,61.0
6616,80.0,0,480,5.0,50.0
6617,69.0,0,240,2.0,84.0
6618,76.0,0,768,6.0,65.0
6619,64.0,240,768,3.0,71.0
6620,61.0,0,384,3.0,72.0
6621,73.0,240,480,7.0,71.0
6622,61.0,0,480,8.0,62.0
6623,73.0,240,240,2.0,86.0
6624,49.0,0,480,10.0,62.0
6625,81.0,0,480,5.0,53.0
6626,71.0,0,240,2.0,88.0
6627,62.0,0,384,3.0,73.0
6628,68.0,240,240,2.0,89.0
6629,50.0,0,480,10.0,62.0
6630,62.0,0,480,8.0,63.0
6631,71.0,240,480,7.0,71.0
6632,80.0,0,480,5.0,55.0
6633,69.0,240,96,2.0,91.0
6634,73.0,120,96,2.0,92.0
6635,71.0,120,96,2.0,93.0
6636,76.0,0,864,6.0,66.0
6637,61.0,0,384,3.0,74.0
6638,64.0,0,864,3.0,73.0
6639,69.0,120,96,2.0,94.0
6640,49.0,0,480,10.0,63.0
6641,73.0,0,480,7.0,71.0
6642,81.0,0,480,5.0,58.0
6643,61.0,0,480,8.0,64.0
6644,68.0,0,96,2.0,95.0
6645,71.0,120,96,2.0,96.0
6646,69.0,120,96,2.0,97.0
6647,62.0,0,384,3.0,75.0
6648,68.0,120,96,2.0,97.0
6649,71.0,0,480,7.0,71.0
6650,50.0,0,480,10.0,64.0
6651,80.0,0,480,5.0,60.0
6652,62.0,0,480,8.0,65.0
6653,69.0,0,96,2.0,98.0
6654,73.0,120,96,2.0,99.0
6655,64.0,120,768,3.0,75.0
6656,76.0,0,768,6.0,67.0
6657,71.0,120,96,2.0,100.0
6658,61.0,0,384,3.0,76.0
6659,69.0,120,96,2.0,101.0
6660,61.0,0,480,8.0,65.0
6661,73.0,120,480,7.0,71.0
6662,81.0,0,480,5.0,63.0
6663,49.0,0,480,10.0,64.0
6664,68.0,0,96,2.0,102.0
6665,71.0,120,96,2.0,103.0
6666,69.0,120,96,2.0,104.0
6667,62.0,120,384,3.0,77.0
6668,71.0,0,432,7.0,71.0
6669,50.0,0,432,10.0,65.0
6670,80.0,0,432,5.0,67.0
6671,62.0,0,432,8.0,66.0
6672,68.0,120,96,2.0,105.0
6673,69.0,0,96,2.0,105.0
6674,81.0,0,192,5.0,68.0
6675,76.0,0,672,6.0,68.0
6676,61.0,0,192,8.0,67.0
6677,61.0,0,192,3.0,80.0
6678,64.0,0,672,3.0,77.0
6679,49.0,0,192,10.0,66.0
6680,73.0,120,192,7.0,71.0
6681,76.0,120,96,2.0,105.0
6682,73.0,0,96,2.0,105.0
6683,81.0,0,192,5.0,68.0
6684,49.0,0,192,10.0,66.0
6685,73.0,0,192,7.0,71.0
6686,61.0,0,192,8.0,68.0
6687,64.0,0,192,3.0,80.0
6688,61.0,120,192,3.0,80.0
6689,69.0,120,96,2.0,105.0
6690,68.0,0,96,2.0,105.0
6691,76.0,0,384,6.0,69.0
6692,62.0,0,192,8.0,68.0
6693,80.0,0,192,5.0,68.0
6694,71.0,120,192,7.0,71.0
6695,50.0,0,192,10.0,66.0
6696,62.0,0,192,3.0,80.0
6697,64.0,0,192,3.0,80.0
6698,76.0,120,96,2.0,105.0
6699,71.0,0,96,2.0,105.0
6700,62.0,0,192,8.0,68.0
6701,71.0,0,192,7.0,71.0
6702,80.0,120,192,5.0,68.0
6703,64.0,0,192,3.0,80.0
6704,50.0,0,192,10.0,67.0
6705,62.0,0,192,3.0,80.0
6706,68.0,120,96,2.0,105.0
6707,69.0,0,96,2.0,105.0
6708,76.0,0,384,6.0,69.0
6709,73.0,0,192,7.0,71.0
6710,61.0,0,192,8.0,69.0
6711,64.0,0,192,3.0,80.0
6712,61.0,120,192,3.0,80.0
6713,49.0,0,192,10.0,67.0
6714,81.0,0,192,5.0,69.0
6715,76.0,120,96,2.0,105.0
6716,73.0,0,96,2.0,105.0
6717,81.0,0,192,5.0,69.0
6718,61.0,120,192,8.0,69.0
6719,73.0,0,192,7.0,71.0
6720,61.0,0,192,3.0,80.0
6721,64.0,0,192,3.0,80.0
6722,49.0,0,192,10.0,67.0
6723,69.0,120,96,2.0,105.0
6724,68.0,0,96,2.0,105.0
6725,76.0,0,384,6.0,70.0
6726,50.0,120,192,10.0,69.0
6727,80.0,0,192,5.0,69.0
6728,62.0,0,192,8.0,70.0
6729,64.0,0,192,3.0,80.0
6730,71.0,0,192,7.0,71.0
6731,62.0,0,192,3.0,80.0
6732,76.0,120,96,2.0,105.0
6733,71.0,0,96,2.0,105.0
6734,62.0,0,192,8.0,70.0
6735,64.0,0,192,3.0,80.0
6736,80.0,0,192,5.0,69.0
6737,62.0,0,192,3.0,80.0
6738,71.0,120,192,7.0,71.0
6739,50.0,0,192,10.0,71.0
6740,68.0,120,96,2.0,105.0
6741,69.0,0,96,2.0,105.0
6742,71.0,120,96,2.0,105.0
6743,73.0,120,96,2.0,105.0
6744,64.0,0,384,3.0,71.0
6745,61.0,0,384,3.0,71.0
6746,49.0,0,384,10.0,71.0
6747,81.0,0,384,5.0,71.0
6748,76.0,0,624,6.0,71.0
6749,73.0,0,384,7.0,71.0
6750,61.0,120,384,8.0,71.0
6751,74.0,120,96,2.0,105.0
6752,76.0,120,96,2.0,105.0
6753,74.0,120,96,2.0,105.0
6754,73.0,120,96,2.0,105.0
6755,71.0,120,96,2.0,105.0
6756,69.0,120,96,2.0,105.0
6757,68.0,120,96,2.0,105.0
6758,66.0,120,96,2.0,105.0
6759,64.0,120,96,2.0,105.0
6760,62.0,120,96,2.0,105.0
6761,61.0,120,96,2.0,105.0
6762,59.0,120,96,2.0,105.0
6763,57.0,120,96,2.0,105.0
6764,49.0,0,96,3.0,80.0
6765,57.0,120,96,3.0,80.0
6766,52.0,0,96,3.0,80.0
6767,57.0,120,96,3.0,80.0
6768,49.0,120,96,3.0,80.0
6769,67.0,120,360,5.0,91.0
6770,64.0,0,360,6.0,91.0
6771,57.0,0,360,7.0,91.0
6772,57.0,120,96,3.0,80.0
6773,49.0,0,768,8.0,91.0
6774,37.0,120,768,10.0,91.0
6775,52.0,0,96,3.0,80.0
6776,57.0,120,180,7.0,71.0
6777,67.0,0,180,5.0,71.0
6778,64.0,0,180,6.0,71.0
6779,79.0,0,912,2.0,125.0
6780,57.0,120,96,3.0,80.0
6781,74.0,0,60,2.0,105.0
6782,52.0,0,96,3.0,80.0
6783,73.0,60,60,2.0,105.0
6784,74.0,0,60,2.0,105.0
6785,57.0,60,96,3.0,80.0
6786,73.0,60,60,2.0,105.0
6787,74.0,0,60,2.0,105.0
6788,55.0,0,96,3.0,80.0
6789,73.0,60,60,2.0,105.0
6790,74.0,0,60,2.0,105.0
6791,57.0,60,96,3.0,80.0
6792,73.0,60,60,2.0,105.0
6793,74.0,0,60,2.0,105.0
6794,52.0,60,96,3.0,80.0
6795,67.0,0,360,5.0,91.0
6796,57.0,0,360,7.0,91.0
6797,73.0,60,60,2.0,105.0
6798,61.0,60,360,6.0,91.0
6799,74.0,0,60,2.0,105.0
6800,57.0,60,96,3.0,80.0
6801,73.0,60,60,2.0,105.0
6802,40.0,0,768,10.0,91.0
6803,52.0,120,768,8.0,91.0
6804,55.0,0,96,3.0,80.0
6805,71.0,60,120,2.0,105.0
6806,61.0,0,180,6.0,71.0
6807,57.0,0,180,7.0,71.0
6808,67.0,0,180,5.0,71.0
6809,57.0,120,96,3.0,80.0
6810,73.0,0,120,2.0,105.0
6811,74.0,0,96,2.0,105.0
6812,76.0,120,96,2.0,105.0
6813,78.0,120,96,2.0,105.0
6814,66.0,0,384,5.0,71.0
6815,62.0,0,384,6.0,71.0
6816,50.0,120,384,8.0,71.0
6817,57.0,0,384,3.0,80.0
6818,57.0,0,384,7.0,71.0
6819,50.0,0,384,3.0,80.0
6820,54.0,0,384,3.0,80.0
6821,38.0,0,384,10.0,71.0
6822,79.0,120,96,2.0,105.0
6823,81.0,120,96,2.0,105.0
6824,79.0,120,96,2.0,105.0
6825,78.0,120,96,2.0,105.0
6826,76.0,120,96,2.0,105.0
6827,74.0,120,96,2.0,105.0
6828,73.0,120,96,2.0,105.0
6829,71.0,120,96,2.0,105.0
6830,69.0,120,96,2.0,105.0
6831,67.0,120,96,2.0,105.0
6832,66.0,120,96,2.0,105.0
6833,64.0,120,96,2.0,105.0
6834,62.0,120,96,2.0,105.0
6835,53.0,0,96,3.0,80.0
6836,63.0,120,96,3.0,80.0
6837,57.0,0,96,3.0,80.0
6838,63.0,120,96,3.0,80.0
6839,53.0,120,96,3.0,80.0
6840,63.0,0,360,7.0,91.0
6841,69.0,120,360,6.0,91.0
6842,72.0,0,360,5.0,91.0
6843,63.0,120,96,3.0,80.0
6844,29.0,0,720,10.0,91.0
6845,41.0,0,720,8.0,91.0
6846,57.0,0,96,3.0,80.0
6847,69.0,0,180,6.0,71.0
6848,63.0,120,180,7.0,71.0
6849,72.0,0,180,5.0,71.0
6850,84.0,120,912,2.0,125.0
6851,63.0,120,96,3.0,80.0
6852,53.0,0,96,3.0,80.0
6853,60.0,120,96,3.0,80.0
6854,57.0,0,96,3.0,80.0
6855,60.0,120,96,3.0,80.0
6856,53.0,120,96,3.0,80.0
6857,72.0,0,360,6.0,91.0
6858,75.0,0,360,5.0,91.0
6859,69.0,120,360,7.0,91.0
6860,60.0,120,96,3.0,80.0
6861,53.0,120,720,8.0,91.0
6862,41.0,0,720,10.0,91.0
6863,57.0,0,96,3.0,80.0
6864,69.0,0,180,7.0,71.0
6865,72.0,0,180,6.0,71.0
6866,75.0,120,180,5.0,71.0
6867,63.0,0,912,2.0,125.0
6868,60.0,120,96,3.0,80.0
6869,52.0,0,96,3.0,80.0
6870,61.0,120,96,3.0,80.0
6871,76.0,0,240,5.0,91.0
6872,73.0,0,240,6.0,91.0
6873,52.0,0,312,8.0,71.0
6874,40.0,120,312,10.0,71.0
6875,69.0,0,312,7.0,71.0
6876,57.0,0,96,3.0,80.0
6877,73.0,120,156,5.0,71.0
6878,69.0,0,156,6.0,71.0
6879,61.0,120,96,3.0,80.0
6880,52.0,0,96,3.0,80.0
6881,76.0,0,144,5.0,71.0
6882,73.0,0,144,6.0,71.0
6883,61.0,120,96,3.0,80.0
6884,52.0,0,312,8.0,71.0
6885,69.0,120,312,7.0,71.0
6886,40.0,0,312,10.0,71.0
6887,57.0,120,96,3.0,80.0
6888,73.0,0,144,6.0,71.0
6889,76.0,0,144,5.0,71.0
6890,61.0,120,96,3.0,80.0
6891,64.0,0,1152,2.0,125.0
6892,40.0,0,312,10.0,71.0
6893,76.0,0,312,5.0,71.0
6894,52.0,0,312,8.0,71.0
6895,73.0,0,312,6.0,71.0
6896,69.0,0,312,7.0,71.0
6897,66.0,240,96,2.0,105.0
6898,52.0,120,384,3.0,80.0
6899,68.0,120,96,2.0,105.0
6900,69.0,120,96,2.0,105.0
6901,71.0,120,96,2.0,105.0
6902,73.0,120,96,2.0,105.0
6903,74.0,120,96,2.0,105.0
6904,76.0,0,96,2.0,105.0
6905,69.0,120,96,2.0,105.0
6906,71.0,120,96,2.0,105.0
6907,61.0,0,384,3.0,80.0
6908,57.0,120,384,3.0,80.0
6909,52.0,0,384,3.0,80.0
6910,73.0,120,96,2.0,105.0
6911,74.0,120,96,2.0,105.0
6912,76.0,120,96,2.0,105.0
6913,78.0,120,96,2.0,105.0
6914,80.0,120,96,2.0,105.0
6915,81.0,120,96,2.0,105.0
6916,76.0,120,96,2.0,105.0
6917,78.0,120,96,2.0,105.0
6918,52.0,0,384,3.0,80.0
6919,57.0,0,384,3.0,80.0
6920,61.0,0,384,3.0,80.0
6921,80.0,120,96,2.0,105.0
6922,81.0,120,96,2.0,105.0
6923,83.0,120,96,2.0,105.0
6924,85.0,120,96,2.0,105.0
6925,86.0,120,96,2.0,105.0
6926,88.0,120,192,2.0,105.0
6927,88.0,240,96,2.0,105.0
6928,52.0,0,384,3.0,80.0
6929,57.0,0,384,3.0,80.0
6930,61.0,0,384,3.0,80.0
6931,85.0,120,96,2.0,105.0
6932,81.0,120,192,2.0,105.0
6933,85.0,240,96,2.0,105.0
6934,81.0,120,96,2.0,105.0
6935,76.0,120,192,2.0,105.0
6936,85.0,240,96,2.0,105.0
6937,81.0,120,96,2.0,105.0
6938,76.0,120,192,2.0,105.0
6939,81.0,240,96,2.0,105.0
6940,76.0,120,96,2.0,105.0
6941,73.0,120,192,2.0,105.0
6942,81.0,240,96,2.0,105.0
6943,69.0,0,96,3.0,90.0
6944,64.0,0,96,3.0,90.0
6945,76.0,120,96,2.0,105.0
6946,61.0,120,192,3.0,90.0
6947,73.0,0,192,2.0,105.0
6948,76.0,240,96,2.0,105.0
6949,64.0,0,96,3.0,90.0
6950,73.0,120,96,2.0,105.0
6951,61.0,0,96,3.0,90.0
6952,57.0,120,192,3.0,90.0
6953,69.0,0,192,2.0,105.0
6954,64.0,0,96,3.0,90.0
6955,76.0,240,96,2.0,105.0
6956,61.0,0,96,3.0,90.0
6957,73.0,120,96,2.0,105.0
6958,69.0,120,192,2.0,105.0
6959,57.0,0,192,3.0,90.0
6960,73.0,240,96,2.0,105.0
6961,61.0,0,96,3.0,90.0
6962,57.0,0,96,3.0,90.0
6963,69.0,120,96,2.0,105.0
6964,52.0,0,96,3.0,80.0
6965,40.0,0,156,10.0,74.0
6966,52.0,120,156,8.0,61.0
6967,64.0,0,156,7.0,66.0
6968,61.0,120,96,3.0,80.0
6969,57.0,120,96,3.0,80.0
6970,64.0,0,384,2.0,105.0
6971,69.0,0,156,5.0,70.0
6972,64.0,0,156,7.0,68.0
6973,52.0,0,156,8.0,63.0
6974,40.0,0,156,10.0,76.0
6975,61.0,0,156,6.0,68.0
6976,61.0,120,96,3.0,80.0
6977,52.0,0,96,3.0,80.0
6978,40.0,0,156,10.0,78.0
6979,61.0,0,156,6.0,71.0
6980,64.0,0,156,7.0,71.0
6981,69.0,0,156,5.0,71.0
6982,52.0,0,156,8.0,66.0
6983,61.0,120,96,3.0,80.0
6984,57.0,120,96,3.0,80.0
6985,52.0,0,156,8.0,69.0
6986,69.0,0,156,5.0,73.0
6987,40.0,0,156,10.0,81.0
6988,61.0,0,156,6.0,74.0
6989,64.0,0,156,7.0,74.0
6990,61.0,120,96,3.0,80.0
6991,76.0,120,576,2.0,125.0
6992,52.0,0,96,3.0,80.0
6993,52.0,120,156,8.0,72.0
6994,40.0,0,156,10.0,83.0
6995,64.0,0,156,7.0,77.0
6996,61.0,120,96,3.0,80.0
6997,57.0,0,96,3.0,80.0
6998,78.0,0,96,2.0,105.0
6999,73.0,0,156,6.0,79.0
7000,40.0,0,156,10.0,85.0
7001,64.0,120,156,7.0,79.0
7002,52.0,0,156,8.0,75.0
7003,81.0,0,156,5.0,79.0
7004,61.0,120,96,3.0,80.0
7005,76.0,0,96,2.0,105.0
7006,74.0,0,96,2.0,105.0
7007,52.0,0,96,3.0,80.0
7008,40.0,0,156,10.0,88.0
7009,64.0,0,156,7.0,82.0
7010,52.0,120,156,8.0,78.0
7011,81.0,0,156,5.0,82.0
7012,73.0,0,156,6.0,82.0
7013,73.0,120,96,2.0,105.0
7014,61.0,0,96,3.0,80.0
7015,71.0,0,96,2.0,105.0
7016,57.0,0,96,3.0,80.0
7017,81.0,0,156,5.0,85.0
7018,40.0,120,156,10.0,90.0
7019,64.0,0,156,7.0,85.0
7020,52.0,0,156,8.0,81.0
7021,73.0,0,156,6.0,85.0
7022,61.0,120,96,3.0,80.0
7023,69.0,0,96,2.0,105.0
7024,73.0,0,60,2.0,103.0
7025,52.0,0,96,3.0,80.0
7026,71.0,60,60,2.0,103.0
7027,64.0,0,156,7.0,88.0
7028,40.0,120,156,10.0,92.0
7029,52.0,0,156,8.0,84.0
7030,73.0,0,60,2.0,103.0
7031,62.0,60,96,3.0,80.0
7032,71.0,60,60,2.0,103.0
7033,73.0,0,60,2.0,103.0
7034,56.0,60,96,3.0,80.0
7035,71.0,60,60,2.0,103.0
7036,52.0,0,156,8.0,87.0
7037,64.0,0,156,7.0,91.0
7038,80.0,0,156,5.0,90.0
7039,74.0,0,156,6.0,90.0
7040,40.0,0,156,10.0,95.0
7041,73.0,60,60,2.0,103.0
7042,62.0,0,96,3.0,81.0
7043,71.0,60,60,2.0,103.0
7044,73.0,0,60,2.0,104.0
7045,52.0,0,96,3.0,81.0
7046,71.0,60,60,2.0,104.0
7047,74.0,60,156,6.0,93.0
7048,40.0,0,156,10.0,97.0
7049,64.0,0,156,7.0,93.0
7050,52.0,0,156,8.0,90.0
7051,80.0,0,156,5.0,93.0
7052,73.0,60,60,2.0,104.0
7053,62.0,0,96,3.0,81.0
7054,71.0,60,60,2.0,104.0
7055,73.0,0,60,2.0,104.0
7056,56.0,0,96,3.0,82.0
7057,71.0,60,60,2.0,104.0
7058,64.0,0,156,7.0,96.0
7059,80.0,60,156,5.0,96.0
7060,52.0,0,156,8.0,93.0
7061,40.0,0,156,10.0,99.0
7062,74.0,0,156,6.0,96.0
7063,73.0,60,60,2.0,104.0
7064,62.0,0,96,3.0,82.0
7065,71.0,60,60,2.0,105.0
7066,73.0,0,60,2.0,105.0
7067,52.0,60,96,3.0,83.0
7068,71.0,60,60,2.0,105.0
7069,40.0,0,156,10.0,102.0
7070,64.0,0,156,7.0,99.0
7071,52.0,0,156,8.0,96.0
7072,73.0,60,60,2.0,105.0
7073,62.0,0,96,3.0,83.0
7074,71.0,60,60,2.0,105.0
7075,73.0,0,60,2.0,105.0
7076,56.0,0,96,3.0,83.0
7077,71.0,60,60,2.0,105.0
7078,68.0,0,156,5.0,101.0
7079,64.0,0,156,7.0,104.0
7080,40.0,0,156,10.0,104.0
7081,62.0,60,156,6.0,101.0
7082,52.0,0,156,8.0,99.0
7083,73.0,0,60,2.0,106.0
7084,62.0,60,96,3.0,84.0
7085,71.0,60,60,2.0,106.0
7086,73.0,0,60,2.0,106.0
7087,52.0,0,96,3.0,84.0
7088,71.0,60,60,2.0,106.0
7089,64.0,0,156,7.0,104.0
7090,62.0,0,156,6.0,102.0
7091,52.0,0,156,8.0,99.0
7092,40.0,0,156,10.0,104.0
7093,68.0,60,156,5.0,104.0
7094,73.0,0,60,2.0,106.0
7095,62.0,60,96,3.0,85.0
7096,71.0,60,60,2.0,106.0
7097,69.0,0,96,2.0,106.0
7098,56.0,0,96,3.0,85.0
7099,52.0,60,156,8.0,99.0
7100,40.0,0,156,10.0,104.0
7101,64.0,0,156,7.0,104.0
7102,62.0,0,156,6.0,102.0
7103,68.0,0,156,5.0,107.0
7104,71.0,0,96,2.0,105.0
7105,62.0,120,96,3.0,85.0
7106,69.0,0,156,5.0,107.0
7107,61.0,0,192,3.0,80.0
7108,57.0,0,192,3.0,80.0
7109,33.0,0,192,10.0,104.0
7110,45.0,0,192,8.0,103.0
7111,69.0,0,384,2.0,90.0
7112,61.0,0,384,6.0,104.0
7113,69.0,240,384,5.0,71.0
7114,45.0,0,192,10.0,71.0
7115,57.0,240,192,8.0,71.0
7116,64.0,0,940,7.0,73.0
7117,69.0,240,384,5.0,71.0
7118,33.0,0,192,10.0,71.0
7119,45.0,240,192,8.0,71.0
7120,78.0,0,96,6.0,80.0
7121,69.0,240,384,5.0,71.0
7122,57.0,0,192,8.0,71.0
7123,45.0,240,192,10.0,71.0
7124,76.0,120,96,6.0,80.0
7125,74.0,0,96,6.0,80.0
7126,69.0,120,192,5.0,71.0
7127,73.0,120,96,6.0,80.0
7128,61.0,0,940,7.0,71.0
7129,45.0,0,192,8.0,71.0
7130,33.0,0,192,10.0,71.0
7131,71.0,0,192,6.0,71.0
7132,71.0,240,384,6.0,71.0
7133,45.0,240,192,10.0,71.0
7134,57.0,0,192,8.0,71.0
7135,69.0,0,960,5.0,71.0
7136,69.0,120,2880,0.0,71.0
7137,71.0,240,384,6.0,71.0
7138,45.0,0,192,8.0,71.0
7139,33.0,240,192,10.0,71.0
7140,67.0,0,384,5.0,71.0
7141,79.0,240,120,5.0,80.0
7142,71.0,240,384,6.0,71.0
7143,45.0,0,192,10.0,71.0
7144,57.0,0,192,8.0,71.0
7145,78.0,120,120,5.0,80.0
7146,76.0,120,120,5.0,80.0
7147,71.0,0,192,6.0,71.0
7148,62.0,0,1882,7.0,71.0
7149,67.0,0,960,0.0,71.0
7150,74.0,120,120,5.0,80.0
7151,33.0,0,192,10.0,71.0
7152,73.0,0,192,5.0,71.0
7153,45.0,120,192,8.0,71.0
7154,73.0,240,384,5.0,71.0
7155,57.0,240,192,8.0,71.0
7156,45.0,0,192,10.0,71.0
7157,71.0,0,960,6.0,71.0
7158,71.0,120,2880,0.0,71.0
7159,73.0,240,384,5.0,71.0
7160,33.0,0,192,10.0,71.0
7161,45.0,0,192,8.0,71.0
7162,69.0,240,384,6.0,71.0
7163,81.0,240,120,6.0,80.0
7164,73.0,240,384,5.0,71.0
7165,57.0,0,192,8.0,71.0
7166,45.0,0,192,10.0,71.0
7167,79.0,120,120,6.0,80.0
7168,78.0,120,120,6.0,80.0
7169,64.0,0,1882,7.0,71.0
7170,69.0,0,960,0.0,71.0
7171,76.0,120,120,6.0,80.0
7172,33.0,0,192,10.0,69.0
7173,45.0,120,192,8.0,70.0
7174,74.0,0,192,6.0,71.0
7175,73.0,0,480,5.0,71.0
7176,71.0,0,192,5.0,69.0
7177,73.0,0,2400,0.0,71.0
7178,83.0,240,120,5.0,72.0
7179,74.0,240,384,6.0,71.0
7180,57.0,0,192,8.0,74.0
7181,45.0,0,192,10.0,73.0
7182,81.0,120,120,5.0,74.0
7183,79.0,0,120,5.0,76.0
7184,66.0,0,940,7.0,83.0
7185,71.0,0,480,0.0,71.0
7186,78.0,120,120,5.0,78.0
7187,45.0,0,192,8.0,79.0
7188,33.0,0,192,10.0,77.0
7189,76.0,0,192,5.0,80.0
7190,74.0,120,480,6.0,75.0
7191,73.0,0,192,6.0,81.0
7192,74.0,0,1440,0.0,71.0
7193,85.0,0,120,6.0,84.0
7194,76.0,240,384,5.0,84.0
7195,45.0,0,192,10.0,81.0
7196,57.0,240,192,8.0,83.0
7197,83.0,120,120,6.0,85.0
7198,81.0,120,120,6.0,87.0
7199,68.0,0,940,7.0,89.0
7200,73.0,0,480,0.0,80.0
7201,79.0,120,120,6.0,88.0
7202,45.0,0,192,8.0,88.0
7203,78.0,0,192,6.0,90.0
7204,33.0,0,192,10.0,85.0
7205,76.0,0,480,5.0,92.0
7206,33.0,0,192,10.0,87.0
7207,45.0,0,192,8.0,90.0
7208,74.0,0,192,5.0,99.0
7209,76.0,120,1440,0.0,71.0
7210,86.0,0,120,5.0,105.0
7211,78.0,240,384,6.0,93.0
7212,45.0,0,192,8.0,93.0
7213,33.0,240,192,10.0,89.0
7214,85.0,120,120,5.0,105.0
7215,83.0,0,120,5.0,105.0
7216,78.0,0,192,6.0,99.0
7217,45.0,120,192,8.0,95.0
7218,33.0,0,192,10.0,91.0
7219,69.0,120,940,7.0,95.0
7220,78.0,0,960,0.0,90.0
7221,74.0,0,480,0.0,90.0
7222,81.0,120,120,5.0,105.0
7223,71.0,0,192,7.0,101.0
7224,80.0,0,192,5.0,105.0
7225,74.0,0,192,6.0,102.0
7226,45.0,0,192,8.0,97.0
7227,33.0,0,192,10.0,93.0
7228,33.0,0,192,10.0,95.0
7229,45.0,240,192,8.0,100.0
7230,74.0,0,384,6.0,105.0
7231,80.0,0,384,5.0,105.0
7232,71.0,0,384,7.0,103.0
7233,33.0,240,192,10.0,97.0
7234,45.0,0,192,8.0,102.0
7235,80.0,0,192,5.0,105.0
7236,33.0,240,192,10.0,99.0
7237,74.0,0,192,6.0,105.0
7238,45.0,0,192,8.0,104.0
7239,71.0,0,192,7.0,105.0
7240,86.0,120,960,0.0,90.0
7241,80.0,0,960,0.0,90.0
7242,45.0,0,156,8.0,105.0
7243,33.0,0,156,10.0,102.0
7244,81.0,0,156,5.0,105.0
7245,73.0,240,156,6.0,110.0
7246,69.0,0,192,7.0,105.0
7247,57.0,0,9912,1.0,71.0
7248,69.0,0,9912,1.0,71.0
7249,85.0,0,78,6.0,90.0
7250,85.0,0,78,5.0,105.0
7251,85.0,0,384,0.0,90.0
7252,81.0,0,384,0.0,90.0
7253,45.0,240,156,8.0,105.0
7254,33.0,0,156,10.0,105.0
7255,81.0,0,78,6.0,90.0
7256,81.0,120,78,5.0,105.0
7257,69.0,0,384,7.0,105.0
7258,76.0,0,156,6.0,90.0
7259,49.0,0,156,8.0,105.0
7260,37.0,0,156,10.0,105.0
7261,76.0,0,156,5.0,105.0
7262,69.0,0,234,1.0,90.0
7263,57.0,120,234,1.0,90.0
7264,76.0,0,384,0.0,90.0
7265,81.0,0,384,0.0,90.0
7266,49.0,0,156,8.0,105.0
7267,76.0,0,156,5.0,105.0
7268,37.0,240,156,10.0,105.0
7269,76.0,0,156,6.0,90.0
7270,57.0,0,78,1.0,90.0
7271,69.0,120,78,1.0,90.0
7272,69.0,0,384,7.0,105.0
7273,38.0,0,156,10.0,105.0
7274,78.0,0,156,5.0,105.0
7275,50.0,120,156,8.0,105.0
7276,78.0,0,156,6.0,90.0
7277,69.0,0,312,1.0,90.0
7278,57.0,0,312,1.0,90.0
7279,81.0,0,78,6.0,90.0
7280,81.0,0,78,5.0,105.0
7281,74.0,0,384,0.0,90.0
7282,78.0,0,384,0.0,90.0
7283,69.0,0,156,7.0,105.0
7284,54.0,0,156,8.0,105.0
7285,42.0,240,156,10.0,105.0
7286,78.0,0,78,6.0,90.0
7287,78.0,120,78,5.0,105.0
7288,56.0,0,156,8.0,105.0
7289,74.0,0,156,5.0,105.0
7290,71.0,0,156,7.0,105.0
7291,74.0,0,156,6.0,90.0
7292,44.0,0,156,10.0,105.0
7293,71.0,0,312,1.0,90.0
7294,64.0,120,312,1.0,90.0
7295,71.0,0,384,0.0,90.0
7296,74.0,0,384,0.0,90.0
7297,74.0,0,156,5.0,105.0
7298,74.0,0,156,6.0,90.0
7299,40.0,240,156,10.0,105.0
7300,52.0,0,156,8.0,105.0
7301,68.0,0,156,7.0,105.0
7302,73.0,0,156,1.0,90.0
7303,45.0,0,156,10.0,105.0
7304,73.0,0,156,5.0,105.0
7305,57.0,0,156,8.0,105.0
7306,64.0,0,156,7.0,105.0
7307,69.0,0,156,1.0,90.0
7308,73.0,240,192,6.0,90.0
7309,73.0,0,192,0.0,90.0
7310,69.0,0,192,0.0,90.0
7311,64.0,0,78,8.0,105.0
7312,76.0,0,78,7.0,105.0
7313,52.0,0,78,10.0,105.0
7314,76.0,0,78,5.0,105.0
7315,61.0,0,78,8.0,105.0
7316,49.0,0,78,10.0,105.0
7317,73.0,0,78,5.0,105.0
7318,73.0,120,78,7.0,105.0
7319,69.0,0,312,1.0,90.0
7320,61.0,0,312,1.0,90.0
7321,81.0,0,384,6.0,105.0
7322,73.0,0,384,6.0,90.0
7323,73.0,240,384,0.0,90.0
7324,81.0,0,384,0.0,90.0
7325,69.0,0,156,7.0,105.0
7326,69.0,0,156,5.0,105.0
7327,45.0,120,156,10.0,105.0
7328,57.0,0,156,8.0,105.0
7329,73.0,0,78,7.0,105.0
7330,73.0,0,78,5.0,105.0
7331,49.0,0,78,10.0,105.0
7332,61.0,240,78,8.0,105.0
7333,69.0,0,78,5.0,105.0
7334,69.0,120,78,7.0,105.0
7335,45.0,0,78,10.0,105.0
7336,57.0,0,78,8.0,105.0
7337,61.0,0,312,1.0,90.0
7338,69.0,0,312,1.0,90.0
7339,73.0,0,384,0.0,90.0
7340,73.0,0,384,6.0,105.0
7341,81.0,0,384,0.0,90.0
7342,81.0,0,384,6.0,105.0
7343,66.0,120,156,7.0,105.0
7344,54.0,0,156,8.0,105.0
7345,66.0,0,156,5.0,105.0
7346,42.0,0,156,10.0,105.0
7347,69.0,0,78,6.0,105.0
7348,69.0,0,78,7.0,105.0
7349,45.0,240,78,10.0,105.0
7350,57.0,0,78,8.0,105.0
7351,69.0,0,156,1.0,90.0
7352,57.0,0,156,1.0,90.0
7353,54.0,0,78,8.0,105.0
7354,66.0,120,78,7.0,105.0
7355,66.0,0,78,6.0,105.0
7356,42.0,0,78,10.0,105.0
7357,85.0,0,384,0.0,90.0
7358,73.0,0,384,5.0,105.0
7359,81.0,0,384,0.0,90.0
7360,81.0,0,384,5.0,105.0
7361,63.0,120,156,7.0,105.0
7362,51.0,0,156,8.0,105.0
7363,39.0,0,156,10.0,105.0
7364,61.0,0,156,1.0,90.0
7365,73.0,0,156,1.0,90.0
7366,63.0,0,156,6.0,105.0
7367,66.0,0,78,7.0,105.0
7368,66.0,0,78,6.0,105.0
7369,42.0,0,78,10.0,105.0
7370,54.0,0,78,8.0,105.0
7371,57.0,0,156,1.0,90.0
7372,69.0,0,156,1.0,90.0
7373,85.0,240,192,0.0,90.0
7374,81.0,0,192,5.0,105.0
7375,73.0,0,192,5.0,105.0
7376,81.0,0,192,0.0,90.0
7377,51.0,0,78,8.0,105.0
7378,63.0,0,78,7.0,105.0
7379,39.0,0,78,10.0,105.0
7380,63.0,120,78,6.0,105.0
7381,64.0,0,1152,6.0,105.0
7382,52.0,0,1152,1.0,90.0
7383,64.0,120,1152,1.0,90.0
7384,52.0,0,1152,8.0,105.0
7385,73.0,0,1152,5.0,105.0
7386,52.0,0,1152,3.0,105.0
7387,40.0,0,1152,3.0,105.0
7388,40.0,0,1152,10.0,105.0
7389,81.0,0,1152,0.0,90.0
7390,85.0,0,1152,0.0,90.0
7391,64.0,0,1152,7.0,105.0
7392,81.0,0,1152,5.0,105.0
7393,64.0,0,1440,2.0,127.0
7394,68.0,1440,60,2.0,117.0
7395,66.0,60,60,2.0,117.0
7396,64.0,60,60,2.0,117.0
7397,66.0,60,60,2.0,117.0
7398,68.0,60,60,2.0,117.0
7399,69.0,60,60,2.0,117.0
7400,71.0,60,60,2.0,117.0
7401,73.0,60,60,2.0,117.0
7402,74.0,60,60,2.0,117.0
7403,76.0,60,60,2.0,117.0
7404,78.0,60,60,2.0,117.0
7405,80.0,60,60,2.0,117.0
7406,81.0,60,60,2.0,117.0
7407,83.0,60,60,2.0,117.0
7408,85.0,60,60,2.0,117.0
7409,86.0,60,60,2.0,117.0
7410,88.0,60,96,2.0,117.0
7411,85.0,120,96,2.0,117.0
7412,81.0,120,96,2.0,117.0
7413,76.0,120,96,2.0,117.0
7414,85.0,120,96,2.0,117.0
7415,81.0,120,96,2.0,117.0
7416,76.0,120,96,2.0,117.0
7417,73.0,120,96,2.0,117.0
7418,81.0,120,96,2.0,117.0
7419,76.0,120,96,2.0,117.0
7420,73.0,120,96,2.0,117.0
7421,69.0,120,96,2.0,117.0
7422,76.0,120,96,2.0,117.0
7423,73.0,120,96,2.0,117.0
7424,69.0,120,96,2.0,117.0
7425,64.0,120,96,2.0,117.0
7426,40.0,120,96,3.0,105.0
7427,44.0,120,96,3.0,105.0
7428,62.0,120,384,2.0,117.0
7429,47.0,120,96,3.0,105.0
7430,62.0,120,96,2.0,117.0
7431,68.0,120,96,2.0,117.0
7432,52.0,120,384,3.0,105.0
7433,71.0,120,96,2.0,117.0
7434,74.0,120,96,2.0,117.0
7435,71.0,120,96,2.0,117.0
7436,80.0,120,96,2.0,117.0
7437,76.0,120,96,2.0,117.0
7438,83.0,120,96,2.0,117.0
7439,80.0,120,96,2.0,117.0
7440,85.0,120,96,2.0,117.0
7441,81.0,120,96,2.0,117.0
7442,86.0,120,96,2.0,117.0
7443,83.0,120,96,2.0,117.0
7444,80.0,120,96,2.0,117.0
7445,74.0,120,96,2.0,117.0
7446,83.0,120,96,2.0,117.0
7447,80.0,120,96,2.0,117.0
7448,74.0,120,96,2.0,117.0
7449,71.0,120,96,2.0,117.0
7450,80.0,120,96,2.0,117.0
7451,74.0,120,96,2.0,117.0
7452,71.0,120,96,2.0,117.0
7453,68.0,120,96,2.0,117.0
7454,74.0,120,96,2.0,117.0
7455,71.0,120,96,2.0,117.0
7456,68.0,120,96,2.0,117.0
7457,62.0,120,96,2.0,117.0
7458,39.0,120,96,3.0,105.0
7459,42.0,120,96,3.0,105.0
7460,60.0,120,384,2.0,117.0
7461,45.0,120,96,3.0,105.0
7462,57.0,120,96,2.0,117.0
7463,60.0,120,96,2.0,117.0
7464,51.0,120,384,3.0,105.0
7465,66.0,120,96,2.0,117.0
7466,69.0,120,96,2.0,117.0
7467,66.0,120,96,2.0,117.0
7468,72.0,120,96,2.0,117.0
7469,69.0,120,96,2.0,117.0
7470,78.0,120,96,2.0,117.0
7471,72.0,120,96,2.0,117.0
7472,81.0,120,96,2.0,117.0
7473,78.0,120,96,2.0,117.0
7474,84.0,120,96,2.0,117.0
7475,81.0,120,96,2.0,117.0
7476,78.0,120,96,2.0,117.0
7477,72.0,120,96,2.0,117.0
7478,81.0,120,96,2.0,117.0
7479,78.0,120,96,2.0,117.0
7480,72.0,120,96,2.0,117.0
7481,69.0,120,96,2.0,117.0
7482,78.0,120,96,2.0,117.0
7483,72.0,120,96,2.0,117.0
7484,69.0,120,96,2.0,117.0
7485,66.0,120,96,2.0,117.0
7486,72.0,120,96,2.0,117.0
7487,69.0,120,96,2.0,117.0
7488,66.0,120,96,2.0,117.0
7489,60.0,120,96,2.0,117.0
7490,50.0,120,96,3.0,105.0
7491,52.0,120,96,3.0,105.0
7492,59.0,120,384,2.0,117.0
7493,56.0,120,96,3.0,105.0
7494,59.0,120,96,3.0,105.0
7495,62.0,120,96,2.0,117.0
7496,64.0,120,96,2.0,117.0
7497,68.0,120,96,2.0,117.0
7498,69.0,120,96,2.0,117.0
7499,49.0,120,96,3.0,105.0
7500,52.0,120,96,3.0,105.0
7501,56.0,120,96,3.0,105.0
7502,57.0,120,96,3.0,105.0
7503,61.0,120,96,2.0,117.0
7504,64.0,120,96,2.0,117.0
7505,69.0,120,96,2.0,117.0
7506,71.0,120,96,2.0,117.0
7507,47.0,120,96,3.0,105.0
7508,52.0,120,96,3.0,105.0
7509,56.0,120,96,3.0,105.0
7510,59.0,120,96,3.0,105.0
7511,64.0,120,96,2.0,117.0
7512,68.0,120,96,2.0,117.0
7513,71.0,120,96,2.0,117.0
7514,73.0,120,96,2.0,117.0
7515,45.0,120,96,3.0,105.0
7516,49.0,120,96,3.0,105.0
7517,52.0,120,96,3.0,105.0
7518,57.0,120,96,3.0,105.0
7519,64.0,120,96,2.0,117.0
7520,69.0,120,96,2.0,117.0
7521,73.0,120,96,2.0,117.0
7522,74.0,0,96,2.0,117.0
7523,64.0,120,96,2.0,117.0
7524,68.0,120,96,2.0,117.0
7525,71.0,120,96,2.0,117.0
7526,59.0,0,576,3.0,105.0
7527,56.0,120,576,3.0,105.0
7528,74.0,120,96,2.0,117.0
7529,71.0,120,96,2.0,117.0
7530,74.0,0,96,2.0,117.0
7531,57.0,0,192,3.0,105.0
7532,54.0,120,192,3.0,105.0
7533,71.0,120,96,2.0,117.0
7534,74.0,120,96,2.0,117.0
7535,68.0,120,96,2.0,117.0
7536,71.0,120,96,2.0,117.0
7537,52.0,0,384,3.0,105.0
7538,56.0,0,384,3.0,105.0
7539,74.0,120,96,2.0,117.0
7540,80.0,120,96,2.0,117.0
7541,74.0,120,96,2.0,117.0
7542,80.0,120,96,2.0,117.0
7543,74.0,120,96,2.0,117.0
7544,80.0,0,96,2.0,117.0
7545,71.0,120,96,2.0,117.0
7546,74.0,120,96,2.0,117.0
7547,56.0,120,384,3.0,105.0
7548,59.0,0,384,3.0,105.0
7549,52.0,0,384,3.0,105.0
7550,80.0,120,96,2.0,117.0
7551,83.0,120,96,2.0,117.0
7552,80.0,120,96,2.0,117.0
7553,83.0,120,96,2.0,117.0
7554,80.0,120,96,2.0,117.0
7555,83.0,0,96,2.0,117.0
7556,76.0,120,96,2.0,117.0
7557,80.0,120,96,2.0,117.0
7558,56.0,120,384,3.0,105.0
7559,59.0,0,384,3.0,105.0
7560,52.0,0,384,3.0,105.0
7561,62.0,0,384,3.0,105.0
7562,83.0,120,96,2.0,117.0
7563,86.0,120,96,2.0,117.0
7564,83.0,120,96,2.0,117.0
7565,86.0,120,96,2.0,117.0
7566,83.0,120,96,2.0,117.0
7567,86.0,0,160,2.0,117.0
7568,82.0,160,160,2.0,117.0
7569,83.0,160,160,2.0,117.0
7570,86.0,160,160,2.0,117.0
7571,82.0,160,160,2.0,117.0
7572,83.0,160,160,2.0,117.0
7573,86.0,160,160,2.0,117.0
7574,82.0,160,160,2.0,117.0
7575,83.0,160,160,2.0,117.0
7576,86.0,160,160,2.0,117.0
7577,82.0,160,160,2.0,117.0
7578,83.0,160,160,2.0,117.0
7579,86.0,160,88,2.0,117.0
7580,85.0,160,88,2.0,117.0
7581,68.0,0,2304,3.0,90.0
7582,64.0,120,2304,3.0,90.0
7583,83.0,160,88,2.0,117.0
7584,81.0,160,88,2.0,117.0
7585,80.0,160,88,2.0,117.0
7586,78.0,160,88,2.0,117.0
7587,76.0,160,160,2.0,105.0
7588,75.0,160,160,2.0,105.0
7589,74.0,160,160,2.0,105.0
7590,73.0,160,160,2.0,90.0
7591,74.0,160,160,2.0,90.0
7592,71.0,160,160,2.0,90.0
7593,57.0,0,240,3.0,71.0
7594,69.0,160,384,2.0,80.0
7595,64.0,240,240,3.0,71.0
7596,71.0,240,60,2.0,80.0
7597,69.0,60,60,2.0,80.0
7598,71.0,60,60,2.0,80.0
7599,69.0,60,60,2.0,80.0
7600,61.0,0,240,3.0,71.0
7601,71.0,60,60,2.0,80.0
7602,69.0,60,60,2.0,80.0
7603,68.0,60,60,2.0,80.0
7604,69.0,60,60,2.0,80.0
7605,64.0,0,240,3.0,71.0
7606,57.0,60,240,3.0,71.0
7607,73.0,0,480,2.0,80.0
7608,64.0,240,240,3.0,71.0
7609,61.0,240,240,3.0,71.0
7610,76.0,0,384,2.0,80.0
7611,64.0,240,192,3.0,71.0
7612,76.0,0,160,2.0,80.0
7613,57.0,240,240,3.0,71.0
7614,75.0,160,160,2.0,80.0
7615,74.0,80,160,2.0,80.0
7616,62.0,80,240,3.0,71.0
7617,73.0,160,160,2.0,80.0
7618,59.0,0,240,3.0,71.0
7619,74.0,160,160,2.0,80.0
7620,62.0,80,240,3.0,71.0
7621,71.0,80,160,2.0,80.0
7622,69.0,160,160,2.0,80.0
7623,57.0,0,240,3.0,71.0
7624,71.0,160,160,2.0,80.0
7625,68.0,80,160,2.0,80.0
7626,62.0,80,240,3.0,71.0
7627,66.0,160,160,2.0,80.0
7628,59.0,0,240,3.0,71.0
7629,68.0,160,160,2.0,80.0
7630,62.0,80,192,3.0,71.0
7631,64.0,80,160,2.0,80.0
7632,57.0,0,240,3.0,71.0
7633,71.0,160,384,2.0,80.0
7634,68.0,240,240,3.0,71.0
7635,73.0,0,60,2.0,80.0
7636,71.0,60,60,2.0,80.0
7637,73.0,60,60,2.0,80.0
7638,62.0,240,240,3.0,71.0
7639,71.0,60,60,2.0,80.0
7640,73.0,0,60,2.0,80.0
7641,71.0,60,60,2.0,80.0
7642,69.0,60,60,2.0,80.0
7643,68.0,60,240,3.0,71.0
7644,71.0,60,60,2.0,80.0
7645,57.0,60,240,3.0,71.0
7646,74.0,0,480,2.0,80.0
7647,68.0,240,240,3.0,71.0
7648,62.0,240,240,3.0,71.0
7649,78.0,0,384,2.0,80.0
7650,68.0,240,192,3.0,71.0
7651,57.0,240,240,3.0,71.0
7652,69.0,240,240,3.0,71.0
7653,76.0,0,600,2.0,80.0
7654,73.0,120,120,2.0,80.0
7655,61.0,240,240,3.0,71.0
7656,76.0,120,120,2.0,80.0
7657,69.0,0,240,3.0,71.0
7658,73.0,120,120,2.0,80.0
7659,57.0,0,240,3.0,62.0
7660,76.0,120,384,2.0,80.0
7661,69.0,240,240,3.0,62.0
7662,61.0,240,240,3.0,62.0
7663,69.0,240,192,3.0,62.0
7664,69.0,240,192,2.0,124.0
7665,71.0,240,96,2.0,121.0
7666,73.0,120,96,2.0,119.0
7667,74.0,120,96,2.0,118.0
7668,76.0,120,96,2.0,116.0
7669,78.0,120,96,2.0,115.0
7670,80.0,120,96,2.0,113.0
7671,81.0,120,120,2.0,112.0
7672,83.0,120,120,2.0,110.0
7673,85.0,120,120,2.0,109.0
7674,83.0,120,120,2.0,107.0
7675,81.0,120,132,2.0,106.0
7676,80.0,240,132,2.0,105.0
7677,50.0,240,192,3.0,100.0
7678,80.0,0,240,2.0,105.0
7679,52.0,0,96,3.0,96.0
7680,78.0,240,192,2.0,105.0
7681,54.0,120,96,3.0,95.0
7682,56.0,0,96,3.0,93.0
7683,57.0,120,96,3.0,92.0
7684,59.0,120,96,3.0,90.0
7685,61.0,120,96,3.0,89.0
7686,62.0,120,96,3.0,87.0
7687,61.0,120,96,3.0,86.0
7688,69.0,0,768,3.0,93.0
7689,62.0,120,96,3.0,84.0
7690,61.0,120,96,3.0,83.0
7691,78.0,120,1092,2.0,125.0
7692,62.0,120,132,3.0,81.0
7693,76.0,240,132,2.0,105.0
7694,61.0,0,132,3.0,78.0
7695,54.0,0,192,3.0,102.0
7696,76.0,240,240,2.0,105.0
7697,56.0,0,96,3.0,98.0
7698,74.0,240,192,2.0,105.0
7699,57.0,120,96,3.0,97.0
7700,59.0,0,96,3.0,95.0
7701,61.0,120,96,3.0,93.0
7702,62.0,120,96,3.0,92.0
7703,64.0,120,96,3.0,90.0
7704,66.0,120,96,3.0,88.0
7705,64.0,120,96,3.0,87.0
7706,69.0,120,768,3.0,95.0
7707,66.0,120,96,3.0,85.0
7708,64.0,120,96,3.0,83.0
7709,66.0,120,132,3.0,82.0
7710,74.0,0,1092,2.0,125.0
7711,64.0,0,132,3.0,80.0
7712,73.0,240,132,2.0,105.0
7713,71.0,120,96,2.0,98.0
7714,73.0,120,96,2.0,98.0
7715,62.0,240,384,3.0,79.0
7716,74.0,120,96,2.0,99.0
7717,76.0,120,96,2.0,99.0
7718,78.0,120,96,2.0,99.0
7719,80.0,120,96,2.0,100.0
7720,82.0,120,96,2.0,100.0
7721,83.0,120,96,2.0,101.0
7722,78.0,120,96,2.0,101.0
7723,74.0,120,96,2.0,102.0
7724,71.0,120,96,2.0,102.0
7725,50.0,120,96,3.0,85.0
7726,83.0,0,192,2.0,102.0
7727,54.0,120,96,3.0,86.0
7728,59.0,120,96,3.0,86.0
7729,62.0,120,96,3.0,87.0
7730,73.0,120,96,2.0,104.0
7731,74.0,120,96,2.0,105.0
7732,52.0,0,384,3.0,87.0
7733,57.0,0,384,3.0,87.0
7734,55.0,120,384,3.0,87.0
7735,76.0,120,96,2.0,105.0
7736,78.0,120,96,2.0,106.0
7737,79.0,120,96,2.0,106.0
7738,81.0,120,96,2.0,107.0
7739,83.0,120,96,2.0,107.0
7740,85.0,120,96,2.0,107.0
7741,79.0,120,96,2.0,108.0
7742,76.0,120,96,2.0,108.0
7743,73.0,120,96,2.0,109.0
7744,52.0,0,96,3.0,93.0
7745,85.0,120,192,2.0,109.0
7746,55.0,120,96,3.0,93.0
7747,61.0,120,96,3.0,94.0
7748,64.0,120,96,3.0,94.0
7749,74.0,120,96,2.0,111.0
7750,76.0,120,96,2.0,111.0
7751,54.0,120,384,3.0,95.0
7752,57.0,0,384,3.0,95.0
7753,78.0,120,96,2.0,112.0
7754,80.0,120,96,2.0,112.0
7755,81.0,120,96,2.0,113.0
7756,83.0,120,96,2.0,113.0
7757,85.0,120,96,2.0,114.0
7758,86.0,120,96,2.0,114.0
7759,81.0,120,96,2.0,114.0
7760,78.0,120,96,2.0,115.0
7761,74.0,120,96,2.0,115.0
7762,54.0,0,96,3.0,101.0
7763,86.0,120,192,2.0,117.0
7764,57.0,120,96,3.0,101.0
7765,62.0,120,96,3.0,101.0
7766,66.0,120,96,3.0,102.0
7767,80.0,120,120,2.0,117.0
7768,81.0,120,120,2.0,117.0
7769,80.0,120,120,2.0,117.0
7770,81.0,120,120,2.0,117.0
7771,83.0,120,120,2.0,117.0
7772,53.0,120,768,3.0,102.0
7773,84.0,120,120,2.0,117.0
7774,83.0,120,120,2.0,117.0
7775,84.0,0,120,2.0,117.0
7776,85.0,120,120,2.0,117.0
7777,86.0,120,120,2.0,117.0
7778,85.0,120,120,2.0,117.0
7779,86.0,120,120,2.0,117.0
7780,87.0,120,120,2.0,117.0
7781,65.0,120,768,3.0,105.0
7782,88.0,120,120,2.0,117.0
7783,87.0,120,120,2.0,117.0
7784,88.0,120,96,2.0,117.0
7785,85.0,120,96,2.0,117.0
7786,81.0,120,96,2.0,117.0
7787,76.0,120,96,2.0,117.0
7788,73.0,0,540,3.0,105.0
7789,88.0,120,96,2.0,117.0
7790,76.0,120,96,2.0,117.0
7791,64.0,0,768,3.0,105.0
7792,87.0,120,96,2.0,117.0
7793,72.0,0,180,3.0,105.0
7794,76.0,120,96,2.0,117.0
7795,88.0,0,96,2.0,117.0
7796,85.0,120,96,2.0,117.0
7797,81.0,120,96,2.0,117.0
7798,76.0,120,96,2.0,117.0
7799,73.0,120,540,3.0,105.0
7800,88.0,120,96,2.0,117.0
7801,76.0,120,96,2.0,117.0
7802,64.0,0,768,3.0,105.0
7803,87.0,0,96,2.0,117.0
7804,72.0,120,180,3.0,105.0
7805,76.0,120,96,2.0,117.0
7806,88.0,120,96,2.0,117.0
7807,85.0,120,96,2.0,117.0
7808,81.0,120,96,2.0,117.0
7809,76.0,120,96,2.0,117.0
7810,88.0,120,96,2.0,117.0
7811,76.0,120,96,2.0,117.0
7812,73.0,0,706,3.0,105.0
7813,87.0,120,96,2.0,117.0
7814,76.0,120,96,2.0,117.0
7815,72.0,0,236,3.0,105.0
7816,88.0,120,96,2.0,117.0
7817,76.0,120,96,2.0,117.0
7818,73.0,0,236,3.0,105.0
7819,87.0,0,96,2.0,117.0
7820,76.0,120,96,2.0,117.0
7821,72.0,120,236,3.0,105.0
7822,88.0,120,96,2.0,117.0
7823,76.0,120,96,2.0,117.0
7824,73.0,0,236,3.0,105.0
7825,85.0,120,96,2.0,117.0
7826,70.0,0,192,3.0,105.0
7827,76.0,120,96,2.0,117.0
7828,86.0,120,96,2.0,117.0
7829,76.0,120,96,2.0,117.0
7830,71.0,0,240,3.0,105.0
7831,85.0,0,96,2.0,117.0
7832,76.0,120,96,2.0,117.0
7833,70.0,120,240,3.0,105.0
7834,86.0,0,96,2.0,117.0
7835,76.0,120,96,2.0,117.0
7836,71.0,120,240,3.0,105.0
7837,85.0,0,96,2.0,117.0
7838,76.0,120,96,2.0,117.0
7839,70.0,120,240,3.0,105.0
7840,64.0,0,3264,3.0,105.0
7841,86.0,0,384,2.0,117.0
7842,71.0,120,384,3.0,105.0
7843,85.0,0,96,2.0,80.0
7844,76.0,120,96,2.0,80.0
7845,70.0,1680,240,3.0,62.0
7846,86.0,0,96,2.0,80.0
7847,76.0,120,96,2.0,80.0
7848,71.0,120,240,3.0,62.0
7849,85.0,0,96,2.0,80.0
7850,76.0,120,96,2.0,80.0
7851,70.0,120,240,3.0,62.0
7852,86.0,120,96,2.0,80.0
7853,76.0,120,96,2.0,80.0
7854,71.0,0,240,3.0,62.0
7855,64.0,0,960,3.0,62.0
7856,83.0,120,96,2.0,80.0
7857,76.0,120,96,2.0,80.0
7858,68.0,0,240,3.0,62.0
7859,84.0,0,96,2.0,80.0
7860,78.0,120,96,2.0,80.0
7861,69.0,0,240,3.0,62.0
7862,83.0,0,96,2.0,80.0
7863,78.0,120,96,2.0,80.0
7864,68.0,120,240,3.0,62.0
7865,84.0,120,96,2.0,80.0
7866,78.0,120,96,2.0,80.0
7867,69.0,0,240,3.0,62.0
7868,83.0,0,96,2.0,80.0
7869,78.0,120,96,2.0,80.0
7870,68.0,120,240,3.0,62.0
7871,84.0,0,384,2.0,80.0
7872,63.0,120,1344,3.0,62.0
7873,69.0,120,384,3.0,62.0
7874,81.0,2040,96,2.0,105.0
7875,84.0,120,96,2.0,105.0
7876,81.0,120,96,2.0,105.0
7877,78.0,120,96,2.0,105.0
7878,81.0,120,96,2.0,105.0
7879,75.0,120,96,2.0,105.0
7880,78.0,120,96,2.0,105.0
7881,72.0,120,96,2.0,105.0
7882,75.0,120,96,2.0,105.0
7883,69.0,120,96,2.0,105.0
7884,72.0,120,96,2.0,105.0
7885,66.0,120,96,2.0,105.0
7886,69.0,120,96,2.0,105.0
7887,63.0,120,96,2.0,105.0
7888,66.0,120,96,2.0,105.0
7889,60.0,120,96,2.0,105.0
7890,63.0,120,96,2.0,105.0
7891,57.0,120,96,2.0,105.0
7892,60.0,120,96,2.0,105.0
7893,54.0,120,96,4.0,103.0
7894,57.0,120,96,4.0,101.0
7895,51.0,120,96,4.0,100.0
7896,54.0,120,96,4.0,98.0
7897,48.0,120,96,4.0,97.0
7898,51.0,120,96,4.0,95.0
7899,45.0,120,96,4.0,93.0
7900,48.0,120,96,4.0,92.0
7901,42.0,120,96,4.0,90.0
7902,45.0,120,96,4.0,88.0
7903,39.0,120,96,4.0,87.0
7904,42.0,120,96,4.0,85.0
7905,49.0,240,96,3.0,80.0
7906,57.0,120,96,3.0,80.0
7907,47.0,120,96,3.0,81.0
7908,56.0,120,96,3.0,82.0
7909,50.0,120,96,3.0,82.0
7910,59.0,120,96,3.0,83.0
7911,49.0,120,96,3.0,83.0
7912,57.0,120,96,3.0,84.0
7913,52.0,120,96,3.0,85.0
7914,61.0,120,96,3.0,85.0
7915,40.0,120,1536,4.0,84.0
7916,54.0,120,96,3.0,86.0
7917,62.0,120,96,3.0,86.0
7918,56.0,120,96,3.0,87.0
7919,59.0,120,96,3.0,88.0
7920,57.0,120,96,3.0,88.0
7921,61.0,120,96,3.0,89.0
7922,61.0,120,96,3.0,89.0
7923,69.0,120,96,3.0,90.0
7924,59.0,120,96,3.0,91.0
7925,68.0,120,96,3.0,91.0
7926,62.0,120,96,3.0,92.0
7927,71.0,120,96,3.0,93.0
7928,61.0,120,96,3.0,93.0
7929,69.0,120,96,3.0,94.0
7930,64.0,120,96,3.0,94.0
7931,73.0,120,96,3.0,95.0
7932,66.0,120,96,3.0,96.0
7933,52.0,0,1536,4.0,93.0
7934,74.0,120,96,3.0,96.0
7935,68.0,120,96,3.0,97.0
7936,71.0,120,96,3.0,97.0
7937,69.0,120,96,2.0,82.0
7938,73.0,120,96,2.0,83.0
7939,73.0,120,96,2.0,84.0
7940,81.0,120,96,2.0,85.0
7941,71.0,120,96,2.0,86.0
7942,80.0,120,96,2.0,88.0
7943,74.0,120,96,2.0,89.0
7944,83.0,120,96,2.0,90.0
7945,73.0,120,96,2.0,91.0
7946,81.0,120,96,2.0,92.0
7947,76.0,120,96,2.0,94.0
7948,85.0,120,96,2.0,95.0
7949,64.0,0,1536,4.0,103.0
7950,78.0,120,96,2.0,96.0
7951,86.0,120,96,2.0,97.0
7952,80.0,120,96,2.0,98.0
7953,83.0,120,96,2.0,104.0
7954,85.0,120,96,2.0,105.0
7955,88.0,120,96,2.0,105.0
7956,80.0,120,96,2.0,105.0
7957,83.0,120,96,2.0,105.0
7958,81.0,120,96,2.0,105.0
7959,85.0,120,96,2.0,105.0
7960,77.0,120,96,2.0,105.0
7961,80.0,120,96,2.0,105.0
7962,78.0,120,96,2.0,105.0
7963,81.0,120,96,2.0,105.0
7964,73.0,120,96,2.0,105.0
7965,76.0,120,96,2.0,105.0
7966,74.0,120,96,2.0,105.0
7967,78.0,120,96,2.0,105.0
7968,76.0,120,96,2.0,105.0
7969,74.0,120,96,2.0,105.0
7970,61.0,0,96,3.0,90.0
7971,73.0,120,96,2.0,105.0
7972,76.0,0,96,2.0,105.0
7973,64.0,120,96,3.0,90.0
7974,68.0,120,96,2.0,105.0
7975,56.0,0,96,3.0,90.0
7976,71.0,0,96,2.0,105.0
7977,59.0,120,96,3.0,90.0
7978,57.0,0,96,3.0,90.0
7979,69.0,120,96,2.0,105.0
7980,73.0,120,96,2.0,105.0
7981,61.0,0,96,3.0,90.0
7982,65.0,120,96,2.0,105.0
7983,53.0,0,96,3.0,90.0
7984,68.0,120,96,2.0,105.0
7985,56.0,0,96,3.0,90.0
7986,54.0,120,96,3.0,90.0
7987,66.0,0,96,2.0,105.0
7988,69.0,0,96,2.0,105.0
7989,57.0,120,96,3.0,90.0
7990,49.0,120,96,3.0,90.0
7991,61.0,0,96,2.0,105.0
7992,64.0,0,96,2.0,105.0
7993,52.0,120,96,3.0,90.0
7994,50.0,120,96,3.0,90.0
7995,62.0,0,96,2.0,105.0
7996,54.0,120,96,3.0,90.0
7997,66.0,0,96,2.0,105.0
7998,64.0,120,96,2.0,105.0
7999,52.0,0,96,3.0,90.0
8000,62.0,0,96,2.0,105.0
8001,50.0,120,96,3.0,90.0
8002,61.0,0,144,2.0,105.0
8003,64.0,180,48,2.0,105.0
8004,69.0,60,64,2.0,105.0
8005,49.0,120,384,3.0,80.0
8006,73.0,80,80,2.0,105.0
8007,76.0,80,80,2.0,105.0
8008,81.0,80,192,2.0,105.0
8009,49.0,0,156,3.0,80.0
8010,37.0,240,156,3.0,80.0
8011,61.0,0,192,2.0,105.0
8012,62.0,0,144,2.0,105.0
8013,66.0,180,48,2.0,105.0
8014,69.0,60,64,2.0,105.0
8015,50.0,0,312,3.0,80.0
8016,38.0,240,312,3.0,80.0
8017,74.0,80,80,2.0,105.0
8018,78.0,80,80,2.0,105.0
8019,81.0,80,192,2.0,105.0
8020,39.0,240,156,3.0,80.0
8021,51.0,0,156,3.0,80.0
8022,63.0,0,192,2.0,105.0
8023,64.0,0,120,2.0,125.0
8024,69.0,120,96,2.0,105.0
8025,73.0,120,96,2.0,105.0
8026,69.0,120,96,2.0,105.0
8027,76.0,120,96,2.0,105.0
8028,73.0,120,96,2.0,105.0
8029,40.0,0,768,3.0,80.0
8030,52.0,240,768,3.0,80.0
8031,81.0,120,96,2.0,105.0
8032,76.0,120,96,2.0,105.0
8033,85.0,120,96,2.0,105.0
8034,81.0,120,96,2.0,105.0
8035,88.0,120,96,2.0,105.0
8036,85.0,120,96,2.0,105.0
8037,80.0,120,96,2.0,105.0
8038,81.0,120,96,2.0,105.0
8039,85.0,120,96,2.0,105.0
8040,81.0,120,96,2.0,105.0
8041,75.0,120,96,2.0,105.0
8042,76.0,120,96,2.0,105.0
8043,81.0,120,96,2.0,105.0
8044,76.0,120,96,2.0,105.0
8045,72.0,120,96,2.0,105.0
8046,73.0,120,96,2.0,105.0
8047,76.0,120,96,2.0,105.0
8048,73.0,120,96,2.0,105.0
8049,70.0,120,48,2.0,105.0
8050,71.0,60,48,2.0,105.0
8051,73.0,60,48,2.0,105.0
8052,71.0,60,48,2.0,105.0
8053,73.0,60,48,2.0,105.0
8054,71.0,60,48,2.0,105.0
8055,73.0,60,48,2.0,105.0
8056,71.0,60,48,2.0,105.0
8057,73.0,60,48,2.0,105.0
8058,71.0,60,48,2.0,105.0
8059,73.0,60,48,2.0,105.0
8060,71.0,60,48,2.0,105.0
8061,73.0,60,48,2.0,105.0
8062,71.0,60,48,2.0,105.0
8063,73.0,60,48,2.0,105.0
8064,51.0,0,192,4.0,101.0
8065,57.0,0,192,4.0,101.0
8066,71.0,60,48,2.0,105.0
8067,73.0,60,60,2.0,105.0
8068,71.0,60,60,2.0,105.0
8069,73.0,60,60,2.0,105.0
8070,56.0,0,192,4.0,104.0
8071,52.0,0,192,4.0,104.0
8072,71.0,60,60,2.0,105.0
8073,73.0,0,60,2.0,105.0
8074,71.0,60,60,2.0,105.0
8075,73.0,60,60,2.0,105.0
8076,57.0,60,192,4.0,101.0
8077,51.0,0,192,4.0,101.0
8078,71.0,60,60,2.0,105.0
8079,73.0,60,60,2.0,105.0
8080,71.0,60,60,2.0,105.0
8081,73.0,60,60,2.0,105.0
8082,56.0,0,192,4.0,101.0
8083,52.0,0,192,4.0,101.0
8084,71.0,60,60,2.0,105.0
8085,73.0,0,60,2.0,105.0
8086,71.0,60,60,2.0,105.0
8087,73.0,60,60,2.0,105.0
8088,51.0,0,192,4.0,101.0
8089,57.0,60,192,4.0,101.0
8090,71.0,60,60,2.0,105.0
8091,73.0,0,60,2.0,105.0
8092,71.0,60,60,2.0,105.0
8093,70.0,60,60,2.0,105.0
8094,71.0,60,60,2.0,105.0
8095,72.0,60,60,2.0,105.0
8096,73.0,60,60,2.0,105.0
8097,74.0,60,60,2.0,105.0
8098,75.0,60,60,2.0,105.0
8099,76.0,60,60,2.0,105.0
8100,77.0,60,60,2.0,105.0
8101,78.0,60,60,2.0,105.0
8102,79.0,60,60,2.0,105.0
8103,52.0,0,768,4.0,101.0
8104,56.0,60,768,4.0,101.0
8105,80.0,60,60,2.0,105.0
8106,81.0,60,60,2.0,105.0
8107,82.0,60,120,2.0,105.0
8108,85.0,120,60,2.0,105.0
8109,83.0,60,60,2.0,105.0
8110,85.0,60,60,2.0,105.0
8111,83.0,60,60,2.0,105.0
8112,85.0,60,60,2.0,105.0
8113,83.0,60,60,2.0,105.0
8114,85.0,60,60,2.0,105.0
8115,83.0,60,60,2.0,105.0
8116,85.0,60,60,2.0,105.0
8117,83.0,60,60,2.0,105.0
8118,85.0,60,60,2.0,105.0
8119,83.0,60,60,2.0,105.0
8120,85.0,60,60,2.0,105.0
8121,83.0,60,60,2.0,105.0
8122,85.0,60,60,2.0,105.0
8123,83.0,60,60,2.0,105.0
8124,85.0,0,60,2.0,105.0
8125,83.0,60,60,2.0,105.0
8126,85.0,60,60,2.0,105.0
8127,83.0,60,60,2.0,105.0
8128,85.0,60,60,2.0,105.0
8129,83.0,60,60,2.0,105.0
8130,85.0,60,60,2.0,105.0
8131,83.0,60,60,2.0,105.0
8132,85.0,60,60,2.0,107.0
8133,83.0,60,60,2.0,107.0
8134,85.0,60,60,2.0,107.0
8135,83.0,60,60,2.0,107.0
8136,81.0,60,120,2.0,108.0
8137,74.0,0,960,3.0,116.0
8138,68.0,60,960,3.0,116.0
8139,64.0,0,960,3.0,116.0
8140,83.0,120,120,2.0,108.0
8141,69.0,0,96,5.0,127.0
8142,64.0,120,96,5.0,117.0
8143,66.0,120,96,5.0,117.0
8144,57.0,0,384,7.0,105.0
8145,73.0,0,384,3.0,105.0
8146,69.0,0,384,3.0,105.0
8147,69.0,0,384,0.0,90.0
8148,45.0,0,384,8.0,105.0
8149,33.0,0,384,10.0,105.0
8150,61.0,120,384,6.0,105.0
8151,69.0,0,384,6.0,105.0
8152,57.0,0,384,1.0,90.0
8153,69.0,0,384,1.0,90.0
8154,81.0,0,384,2.0,105.0
8155,64.0,0,384,6.0,105.0
8156,68.0,120,96,5.0,117.0
8157,69.0,120,96,5.0,117.0
8158,71.0,120,96,5.0,117.0
8159,73.0,120,96,5.0,117.0
8160,74.0,120,96,5.0,117.0
8161,76.0,120,96,5.0,117.0
8162,78.0,120,96,5.0,117.0
8163,80.0,120,96,5.0,117.0
8164,81.0,120,96,5.0,117.0
8165,80.0,120,96,5.0,117.0
8166,62.0,0,144,7.0,105.0
8167,80.0,0,144,0.0,90.0
8168,71.0,0,144,6.0,105.0
8169,40.0,0,144,10.0,105.0
8170,74.0,0,144,0.0,90.0
8171,52.0,0,144,8.0,105.0
8172,64.0,0,144,1.0,90.0
8173,71.0,0,144,1.0,90.0
8174,78.0,120,96,5.0,117.0
8175,76.0,0,96,5.0,117.0
8176,80.0,0,144,0.0,90.0
8177,52.0,0,144,8.0,105.0
8178,59.0,0,144,7.0,105.0
8179,68.0,120,144,6.0,105.0
8180,64.0,0,144,1.0,90.0
8181,40.0,0,144,10.0,105.0
8182,74.0,0,144,0.0,90.0
8183,71.0,0,144,1.0,90.0
8184,74.0,120,96,5.0,117.0
8185,69.0,0,144,6.0,105.0
8186,73.0,0,144,5.0,117.0
8187,57.0,120,144,1.0,90.0
8188,42.0,0,144,10.0,105.0
8189,69.0,0,144,1.0,90.0
8190,81.0,0,144,0.0,90.0
8191,54.0,0,144,8.0,105.0
8192,57.0,0,144,7.0,105.0
8193,73.0,0,144,0.0,90.0
8194,54.0,0,144,8.0,105.0
8195,57.0,0,144,7.0,105.0
8196,57.0,240,144,1.0,90.0
8197,69.0,0,144,6.0,105.0
8198,81.0,0,144,0.0,90.0
8199,73.0,0,144,0.0,90.0
8200,73.0,0,144,5.0,117.0
8201,42.0,0,144,10.0,105.0
8202,69.0,0,144,1.0,90.0
8203,78.0,0,144,0.0,90.0
8204,74.0,0,144,0.0,90.0
8205,69.0,0,144,6.0,105.0
8206,38.0,0,144,10.0,105.0
8207,78.0,0,144,5.0,117.0
8208,69.0,240,144,1.0,90.0
8209,50.0,0,144,8.0,105.0
8210,62.0,0,144,7.0,105.0
8211,57.0,0,144,1.0,90.0
8212,69.0,0,144,6.0,105.0
8213,50.0,0,144,8.0,105.0
8214,38.0,0,144,10.0,105.0
8215,78.0,0,144,0.0,90.0
8216,78.0,0,144,5.0,117.0
8217,57.0,0,144,1.0,90.0
8218,69.0,0,144,1.0,90.0
8219,62.0,240,144,7.0,105.0
8220,74.0,0,144,0.0,90.0
8221,61.0,0,144,7.0,105.0
8222,76.0,240,144,0.0,90.0
8223,57.0,0,144,1.0,90.0
8224,69.0,0,144,1.0,90.0
8225,69.0,0,144,6.0,105.0
8226,73.0,0,144,0.0,90.0
8227,76.0,0,144,5.0,117.0
8228,40.0,0,144,10.0,105.0
8229,52.0,0,144,8.0,105.0
8230,40.0,0,144,10.0,105.0
8231,76.0,0,144,5.0,117.0
8232,61.0,240,144,7.0,105.0
8233,52.0,0,144,8.0,105.0
8234,73.0,0,144,0.0,90.0
8235,69.0,0,144,6.0,105.0
8236,57.0,0,144,1.0,90.0
8237,69.0,0,144,1.0,90.0
8238,76.0,0,144,0.0,90.0
8239,64.0,0,144,1.0,90.0
8240,62.0,0,144,6.0,105.0
8241,68.0,0,144,5.0,117.0
8242,40.0,0,144,10.0,105.0
8243,71.0,0,144,1.0,90.0
8244,74.0,0,144,0.0,90.0
8245,80.0,0,144,0.0,90.0
8246,52.0,0,144,8.0,105.0
8247,59.0,240,144,7.0,105.0
8248,64.0,0,144,1.0,90.0
8249,71.0,0,144,1.0,90.0
8250,62.0,240,144,6.0,105.0
8251,59.0,0,144,7.0,105.0
8252,40.0,0,144,10.0,105.0
8253,80.0,0,144,0.0,90.0
8254,68.0,0,144,5.0,117.0
8255,52.0,0,144,8.0,105.0
8256,74.0,0,144,0.0,90.0
8257,69.0,0,96,5.0,127.0
8258,64.0,120,96,5.0,117.0
8259,66.0,120,96,5.0,117.0
8260,64.0,0,384,1.0,90.0
8261,69.0,0,384,1.0,90.0
8262,45.0,0,384,8.0,105.0
8263,61.0,0,384,6.0,105.0
8264,81.0,0,384,0.0,90.0
8265,73.0,240,384,0.0,90.0
8266,33.0,0,384,10.0,105.0
8267,57.0,0,384,7.0,105.0
8268,68.0,120,96,5.0,117.0
8269,69.0,120,96,5.0,117.0
8270,71.0,120,96,5.0,117.0
8271,73.0,120,96,5.0,117.0
8272,74.0,120,96,5.0,117.0
8273,76.0,120,96,5.0,117.0
8274,78.0,120,96,5.0,117.0
8275,80.0,120,96,5.0,117.0
8276,81.0,120,96,5.0,117.0
8277,80.0,0,96,5.0,117.0
8278,71.0,0,144,6.0,105.0
8279,52.0,0,144,8.0,105.0
8280,40.0,0,144,10.0,105.0
8281,80.0,120,144,0.0,90.0
8282,74.0,0,144,0.0,90.0
8283,62.0,0,144,7.0,105.0
8284,64.0,0,144,1.0,90.0
8285,71.0,0,144,1.0,90.0
8286,78.0,120,96,5.0,117.0
8287,76.0,120,96,5.0,117.0
8288,52.0,0,144,8.0,105.0
8289,68.0,0,144,6.0,105.0
8290,59.0,0,144,7.0,105.0
8291,64.0,0,144,1.0,90.0
8292,74.0,0,144,0.0,90.0
8293,80.0,0,144,0.0,90.0
8294,71.0,0,144,1.0,90.0
8295,40.0,0,144,10.0,105.0
8296,74.0,120,96,5.0,117.0
8297,57.0,0,144,1.0,90.0
8298,54.0,0,144,8.0,105.0
8299,57.0,120,144,7.0,105.0
8300,69.0,0,144,6.0,105.0
8301,69.0,0,144,1.0,90.0
8302,42.0,0,144,10.0,105.0
8303,81.0,0,144,0.0,90.0
8304,73.0,0,144,0.0,90.0
8305,73.0,0,144,5.0,117.0
8306,69.0,0,144,1.0,90.0
8307,42.0,0,144,10.0,105.0
8308,69.0,0,144,6.0,105.0
8309,73.0,0,144,5.0,117.0
8310,57.0,0,144,1.0,90.0
8311,73.0,0,144,0.0,90.0
8312,81.0,0,144,0.0,90.0
8313,54.0,240,144,8.0,105.0
8314,57.0,0,144,7.0,105.0
8315,50.0,0,144,8.0,105.0
8316,69.0,0,144,6.0,105.0
8317,62.0,0,144,7.0,105.0
8318,69.0,0,144,1.0,90.0
8319,57.0,0,144,1.0,90.0
8320,38.0,240,144,10.0,105.0
8321,78.0,0,144,0.0,90.0
8322,74.0,0,144,0.0,90.0
8323,78.0,0,144,5.0,117.0
8324,78.0,0,144,0.0,90.0
8325,69.0,240,144,1.0,90.0
8326,62.0,0,144,7.0,105.0
8327,74.0,0,144,0.0,90.0
8328,38.0,0,144,10.0,105.0
8329,57.0,0,144,1.0,90.0
8330,78.0,0,144,5.0,117.0
8331,69.0,0,144,6.0,105.0
8332,50.0,0,144,8.0,105.0
8333,61.0,0,144,7.0,105.0
8334,52.0,0,144,8.0,105.0
8335,57.0,0,144,1.0,90.0
8336,76.0,0,144,0.0,90.0
8337,73.0,0,144,0.0,90.0
8338,40.0,240,144,10.0,105.0
8339,76.0,0,144,5.0,117.0
8340,69.0,0,144,6.0,105.0
8341,69.0,0,144,1.0,90.0
8342,73.0,0,144,0.0,90.0
8343,76.0,240,144,0.0,90.0
8344,40.0,0,144,10.0,105.0
8345,76.0,0,144,5.0,117.0
8346,61.0,0,144,7.0,105.0
8347,57.0,0,144,1.0,90.0
8348,69.0,0,144,1.0,90.0
8349,52.0,0,144,8.0,105.0
8350,69.0,0,144,6.0,105.0
8351,62.0,240,144,6.0,105.0
8352,74.0,0,144,0.0,90.0
8353,64.0,0,144,1.0,90.0
8354,71.0,0,144,1.0,90.0
8355,59.0,0,144,7.0,105.0
8356,68.0,0,144,5.0,117.0
8357,52.0,0,144,8.0,105.0
8358,80.0,0,144,0.0,90.0
8359,40.0,0,144,10.0,105.0
8360,52.0,0,144,8.0,105.0
8361,64.0,0,144,1.0,90.0
8362,40.0,0,144,10.0,105.0
8363,80.0,0,144,0.0,90.0
8364,74.0,0,144,0.0,90.0
8365,62.0,0,144,6.0,105.0
8366,59.0,0,144,7.0,105.0
8367,71.0,240,144,1.0,90.0
8368,68.0,0,144,5.0,117.0
8369,69.0,0,384,5.0,117.0
8370,33.0,0,384,10.0,105.0
8371,57.0,0,384,7.0,105.0
8372,73.0,0,384,0.0,90.0
8373,81.0,0,384,0.0,90.0
8374,69.0,0,384,1.0,90.0
8375,64.0,0,384,1.0,90.0
8376,45.0,240,384,8.0,105.0
8377,61.0,0,384,6.0,105.0
8378,76.0,0,120,6.0,105.0
8379,76.0,480,120,5.0,117.0
8380,73.0,120,78,5.0,105.0
8381,73.0,0,78,6.0,90.0
8382,76.0,0,78,5.0,105.0
8383,76.0,120,78,6.0,90.0
8384,73.0,0,78,6.0,90.0
8385,73.0,120,78,5.0,105.0
8386,69.0,120,384,6.0,90.0
8387,69.0,0,384,5.0,105.0
8388,73.0,0,120,6.0,90.0
8389,61.0,0,120,8.0,105.0
8390,49.0,480,120,10.0,105.0
8391,73.0,0,120,7.0,90.0
8392,73.0,0,120,5.0,105.0
8393,85.0,0,120,0.0,90.0
8394,69.0,0,78,5.0,105.0
8395,69.0,0,78,7.0,90.0
8396,57.0,120,78,8.0,105.0
8397,81.0,0,78,0.0,90.0
8398,69.0,0,78,6.0,90.0
8399,45.0,0,78,10.0,105.0
8400,73.0,0,288,1.0,90.0
8401,49.0,0,78,10.0,105.0
8402,73.0,120,78,5.0,105.0
8403,61.0,0,78,8.0,105.0
8404,73.0,0,78,6.0,90.0
8405,73.0,0,78,7.0,90.0
8406,85.0,0,78,0.0,90.0
8407,69.0,0,78,5.0,105.0
8408,81.0,0,78,0.0,90.0
8409,57.0,0,78,8.0,105.0
8410,69.0,0,78,6.0,90.0
8411,69.0,0,78,7.0,90.0
8412,45.0,0,78,10.0,105.0
8413,69.0,120,96,1.0,90.0
8414,64.0,0,384,7.0,90.0
8415,52.0,0,384,8.0,105.0
8416,64.0,120,384,1.0,90.0
8417,76.0,0,384,0.0,90.0
8418,64.0,0,384,6.0,90.0
8419,40.0,0,384,10.0,105.0
8420,64.0,0,384,5.0,105.0
8421,69.0,480,120,5.0,105.0
8422,57.0,0,120,8.0,105.0
8423,69.0,0,120,6.0,90.0
8424,69.0,0,120,7.0,90.0
8425,45.0,0,120,10.0,105.0
8426,81.0,0,120,0.0,90.0
8427,64.0,0,78,6.0,90.0
8428,52.0,0,78,8.0,105.0
8429,40.0,0,78,10.0,105.0
8430,64.0,0,78,7.0,90.0
8431,64.0,120,78,5.0,105.0
8432,76.0,0,78,0.0,90.0
8433,69.0,0,288,1.0,90.0
8434,69.0,0,78,7.0,90.0
8435,57.0,0,78,8.0,105.0
8436,45.0,0,78,10.0,105.0
8437,69.0,120,78,6.0,90.0
8438,69.0,0,78,5.0,105.0
8439,81.0,0,78,0.0,90.0
8440,64.0,0,78,7.0,90.0
8441,76.0,0,78,0.0,90.0
8442,64.0,0,78,6.0,90.0
8443,52.0,120,78,8.0,105.0
8444,40.0,0,78,10.0,105.0
8445,64.0,0,78,5.0,105.0
8446,64.0,0,96,1.0,90.0
8447,61.0,120,384,5.0,105.0
8448,61.0,0,384,1.0,90.0
8449,49.0,0,384,8.0,105.0
8450,61.0,0,384,6.0,90.0
8451,73.0,0,384,0.0,90.0
8452,37.0,0,384,10.0,105.0
8453,61.0,0,384,7.0,90.0
8454,64.0,0,120,6.0,90.0
8455,64.0,0,120,5.0,105.0
8456,76.0,0,120,0.0,90.0
8457,40.0,480,120,10.0,105.0
8458,64.0,0,120,7.0,90.0
8459,52.0,0,120,8.0,105.0
8460,49.0,0,78,8.0,105.0
8461,73.0,0,78,0.0,90.0
8462,61.0,0,78,7.0,90.0
8463,61.0,120,78,5.0,105.0
8464,37.0,0,78,10.0,105.0
8465,61.0,0,78,6.0,90.0
8466,64.0,0,288,1.0,90.0
8467,64.0,0,78,7.0,90.0
8468,40.0,0,78,10.0,105.0
8469,76.0,0,78,0.0,90.0
8470,52.0,0,78,8.0,105.0
8471,64.0,0,78,6.0,90.0
8472,64.0,120,78,5.0,105.0
8473,61.0,0,78,5.0,105.0
8474,37.0,0,78,10.0,105.0
8475,49.0,120,78,8.0,105.0
8476,61.0,0,78,7.0,90.0
8477,61.0,0,78,6.0,90.0
8478,73.0,0,78,0.0,90.0
8479,61.0,0,96,1.0,90.0
8480,57.0,0,684,7.0,90.0
8481,45.0,0,684,8.0,105.0
8482,57.0,0,684,1.0,90.0
8483,57.0,0,684,5.0,105.0
8484,33.0,0,684,10.0,105.0
8485,57.0,120,684,6.0,90.0
8486,69.0,0,684,0.0,90.0
8487,73.0,0,78,0.0,90.0
8488,61.0,0,78,1.0,90.0
8489,49.0,720,78,8.0,105.0
8490,61.0,0,78,5.0,105.0
8491,37.0,0,78,10.0,105.0
8492,61.0,0,78,7.0,90.0
8493,61.0,0,78,6.0,90.0
8494,76.0,0,78,0.0,90.0
8495,64.0,0,78,5.0,105.0
8496,64.0,0,78,6.0,90.0
8497,64.0,0,78,7.0,90.0
8498,52.0,0,78,8.0,105.0
8499,64.0,0,78,1.0,90.0
8500,40.0,120,78,10.0,105.0
8501,81.0,0,312,0.0,90.0
8502,69.0,0,312,7.0,90.0
8503,57.0,0,312,8.0,105.0
8504,45.0,0,312,10.0,105.0
8505,69.0,0,312,1.0,90.0
8506,69.0,120,312,6.0,90.0
8507,69.0,0,312,5.0,105.0
8508,85.0,0,312,0.0,90.0
8509,76.0,0,312,0.0,90.0
8510,76.0,0,312,5.0,105.0
8511,69.0,0,312,6.0,90.0
8512,76.0,0,312,6.0,90.0
8513,69.0,0,312,1.0,90.0
8514,45.0,0,312,10.0,105.0
8515,69.0,0,312,7.0,90.0
8516,57.0,0,312,1.0,90.0
8517,73.0,0,312,5.0,105.0
8518,57.0,480,312,8.0,105.0
8519,69.0,0,312,5.0,105.0
8520,73.0,0,312,6.0,90.0
8521,81.0,0,384,5.0,105.0
8522,73.0,0,384,5.0,105.0
8523,45.0,0,384,8.0,105.0
8524,57.0,0,384,7.0,90.0
8525,64.0,0,384,6.0,90.0
8526,73.0,0,384,6.0,90.0
8527,81.0,0,384,6.0,90.0
8528,64.0,0,384,5.0,105.0
8529,69.0,0,384,1.0,90.0
8530,73.0,0,384,0.0,90.0
8531,81.0,0,384,0.0,90.0
8532,33.0,480,384,10.0,105.0
8533,57.0,0,384,1.0,90.0
8534,33.0,1920,384,10.0,1.0
