,note,step,duration,channel,velocity
0,69.0,0,30,2.0,64.0
1,74.0,30,105,2.0,64.0
2,42.0,0,60,6.0,64.0
3,69.0,44,16,2.0,64.0
4,54.0,0,60,5.0,65.0
5,38.0,0,60,6.0,64.0
6,50.0,0,60,5.0,65.0
7,57.0,60,120,3.0,65.0
8,66.0,16,105,2.0,64.0
9,69.0,44,16,2.0,64.0
10,54.0,0,60,5.0,65.0
11,57.0,0,60,4.0,64.0
12,42.0,60,60,6.0,64.0
13,40.0,0,60,6.0,64.0
14,52.0,16,60,5.0,65.0
15,62.0,0,120,3.0,65.0
16,59.0,0,60,4.0,64.0
17,67.0,0,105,2.0,64.0
18,43.0,0,60,6.0,64.0
19,59.0,59,61,3.0,65.0
20,55.0,0,60,5.0,65.0
21,64.0,44,16,2.0,64.0
22,45.0,0,60,5.0,65.0
23,33.0,16,60,6.0,64.0
24,64.0,1,120,4.0,64.0
25,57.0,0,105,3.0,65.0
26,61.0,0,105,2.0,64.0
27,64.0,0,16,2.0,64.0
28,61.0,44,16,3.0,65.0
29,43.0,0,60,6.0,64.0
30,55.0,60,60,5.0,65.0
31,45.0,0,0,4.0,64.0
32,54.0,0,60,5.0,65.0
33,42.0,0,60,6.0,64.0
34,57.0,0,105,2.0,64.0
35,38.0,0,60,6.0,64.0
36,62.0,16,120,3.0,65.0
37,50.0,60,60,5.0,65.0
38,66.0,44,16,2.0,64.0
39,49.0,1,60,5.0,65.0
40,37.0,0,60,6.0,64.0
41,67.0,0,105,2.0,64.0
42,61.0,0,60,5.0,65.0
43,49.0,60,60,6.0,64.0
44,64.0,44,16,2.0,64.0
45,64.0,15,121,3.0,65.0
46,66.0,16,45,2.0,64.0
47,62.0,0,60,3.0,65.0
48,50.0,0,60,5.0,65.0
49,62.0,44,16,2.0,64.0
50,38.0,0,60,6.0,64.0
51,64.0,0,45,3.0,65.0
52,67.0,0,45,2.0,64.0
53,62.0,0,16,3.0,65.0
54,43.0,0,60,6.0,64.0
55,59.0,0,60,4.0,64.0
56,55.0,16,60,5.0,65.0
57,66.0,44,16,2.0,64.0
58,64.0,0,30,2.0,64.0
59,45.0,0,30,6.0,64.0
60,61.0,16,30,3.0,65.0
61,57.0,0,30,5.0,65.0
62,55.0,0,30,5.0,65.0
63,59.0,30,30,4.0,64.0
64,43.0,0,30,6.0,64.0
65,42.0,30,30,6.0,64.0
66,57.0,0,30,4.0,64.0
67,54.0,0,30,5.0,65.0
68,52.0,0,30,5.0,65.0
69,69.0,15,15,3.0,65.0
70,40.0,30,30,6.0,64.0
71,55.0,0,30,4.0,64.0
72,81.0,30,15,2.0,64.0
73,38.0,0,60,6.0,64.0
74,54.0,0,60,4.0,64.0
75,50.0,0,60,5.0,65.0
76,81.0,0,15,2.0,64.0
77,74.0,15,105,3.0,65.0
78,81.0,30,15,2.0,64.0
79,66.0,0,60,4.0,64.0
80,69.0,14,16,3.0,65.0
81,62.0,0,60,5.0,65.0
82,50.0,30,60,6.0,64.0
83,81.0,0,30,2.0,64.0
84,83.0,30,15,2.0,64.0
85,85.0,14,16,2.0,64.0
86,86.0,0,15,2.0,64.0
87,85.0,14,16,2.0,64.0
88,66.0,16,105,3.0,65.0
89,83.0,16,15,2.0,64.0
90,38.0,0,60,6.0,64.0
91,50.0,0,60,5.0,65.0
92,69.0,14,16,3.0,65.0
93,57.0,16,60,4.0,64.0
94,81.0,0,16,2.0,64.0
95,79.0,0,15,2.0,64.0
96,79.0,30,15,2.0,64.0
97,79.0,30,15,2.0,64.0
98,67.0,16,105,3.0,65.0
99,79.0,30,15,2.0,64.0
100,64.0,14,16,3.0,65.0
101,40.0,0,60,6.0,64.0
102,52.0,0,60,5.0,65.0
103,61.0,0,60,4.0,64.0
104,79.0,16,30,2.0,64.0
105,78.0,30,15,2.0,64.0
106,76.0,14,16,2.0,64.0
107,74.0,0,15,2.0,64.0
108,73.0,14,16,2.0,64.0
109,71.0,16,15,2.0,64.0
110,61.0,0,105,3.0,65.0
111,45.0,16,60,5.0,65.0
112,69.0,16,0,2.0,64.0
113,33.0,0,60,6.0,64.0
114,55.0,0,60,4.0,64.0
115,64.0,0,16,3.0,65.0
116,54.0,0,45,4.0,64.0
117,62.0,0,45,3.0,65.0
118,62.0,44,16,4.0,64.0
119,38.0,0,60,6.0,64.0
120,50.0,0,60,5.0,65.0
121,66.0,0,16,3.0,65.0
122,64.0,0,46,3.0,65.0
123,61.0,15,46,4.0,64.0
124,64.0,45,16,4.0,64.0
125,67.0,0,16,3.0,65.0
126,62.0,16,45,4.0,64.0
127,66.0,0,45,3.0,65.0
128,69.0,44,16,3.0,65.0
129,66.0,0,16,4.0,64.0
130,64.0,0,46,4.0,64.0
131,67.0,15,46,3.0,65.0
132,64.0,0,16,3.0,65.0
133,61.0,45,16,4.0,64.0
134,66.0,0,45,3.0,65.0
135,62.0,16,45,4.0,64.0
136,54.0,0,16,4.0,64.0
137,62.0,44,16,3.0,65.0
138,64.0,0,46,3.0,65.0
139,55.0,15,46,4.0,64.0
140,52.0,0,16,4.0,64.0
141,45.0,1,60,6.0,64.0
142,61.0,44,16,3.0,65.0
143,57.0,0,60,5.0,65.0
144,62.0,15,31,3.0,65.0
145,54.0,0,30,4.0,64.0
146,71.0,30,8,2.0,64.0
147,73.0,15,8,2.0,64.0
148,38.0,0,60,6.0,64.0
149,50.0,1,60,5.0,65.0
150,74.0,15,8,2.0,64.0
151,76.0,15,8,2.0,64.0
152,78.0,15,8,2.0,64.0
153,79.0,15,8,2.0,64.0
154,57.0,0,15,3.0,65.0
155,62.0,0,45,3.0,65.0
156,54.0,0,45,4.0,64.0
157,74.0,0,60,0.0,100.0
158,69.0,15,60,0.0,100.0
159,66.0,44,16,3.0,65.0
160,54.0,0,60,1.0,100.0
161,62.0,0,16,4.0,64.0
162,62.0,0,60,1.0,100.0
163,64.0,15,46,3.0,65.0
164,61.0,0,46,4.0,64.0
165,67.0,0,16,3.0,65.0
166,64.0,0,60,1.0,100.0
167,57.0,0,60,1.0,100.0
168,73.0,0,60,0.0,100.0
169,64.0,44,16,4.0,64.0
170,76.0,1,60,0.0,100.0
171,66.0,0,45,3.0,65.0
172,62.0,0,45,4.0,64.0
173,69.0,44,16,3.0,65.0
174,66.0,0,16,4.0,64.0
175,74.0,0,60,0.0,100.0
176,66.0,0,60,1.0,100.0
177,62.0,16,60,1.0,100.0
178,78.0,0,60,0.0,100.0
179,67.0,0,46,3.0,65.0
180,64.0,15,46,4.0,64.0
181,76.0,0,60,0.0,100.0
182,79.0,0,60,0.0,100.0
183,61.0,0,16,4.0,64.0
184,64.0,1,60,1.0,100.0
185,67.0,0,60,1.0,100.0
186,64.0,44,16,3.0,65.0
187,66.0,0,45,3.0,65.0
188,62.0,0,45,4.0,64.0
189,74.0,0,60,0.0,100.0
190,78.0,0,60,0.0,100.0
191,62.0,44,16,3.0,65.0
192,62.0,0,60,1.0,100.0
193,66.0,16,60,1.0,100.0
194,54.0,0,16,4.0,64.0
195,64.0,15,46,3.0,65.0
196,55.0,0,46,4.0,64.0
197,33.0,0,60,6.0,64.0
198,61.0,0,16,3.0,65.0
199,45.0,1,60,5.0,65.0
200,73.0,0,60,0.0,100.0
201,76.0,0,60,0.0,100.0
202,64.0,0,60,1.0,100.0
203,52.0,44,16,4.0,64.0
204,57.0,0,60,1.0,100.0
205,54.0,0,30,4.0,64.0
206,62.0,16,30,3.0,65.0
207,81.0,0,405,2.0,64.0
208,78.0,44,9,2.0,64.0
209,62.0,0,60,1.0,100.0
210,38.0,0,60,6.0,64.0
211,50.0,0,60,5.0,65.0
212,74.0,0,60,0.0,100.0
213,54.0,0,60,1.0,100.0
214,78.0,16,30,2.0,64.0
215,78.0,45,8,2.0,64.0
216,54.0,0,45,4.0,64.0
217,62.0,0,45,3.0,65.0
218,50.0,0,15,4.0,64.0
219,59.0,44,16,3.0,65.0
220,74.0,0,60,0.0,100.0
221,71.0,0,60,0.0,100.0
222,61.0,15,46,3.0,65.0
223,52.0,0,46,4.0,64.0
224,42.0,0,60,5.0,65.0
225,73.0,0,60,0.0,100.0
226,70.0,1,60,0.0,100.0
227,58.0,44,16,3.0,65.0
228,49.0,0,16,4.0,64.0
229,30.0,0,60,6.0,64.0
230,50.0,0,30,4.0,64.0
231,59.0,16,30,3.0,65.0
232,78.0,15,165,2.0,64.0
233,74.0,44,9,2.0,64.0
234,54.0,0,180,1.0,100.0
235,71.0,0,60,0.0,100.0
236,47.0,0,60,5.0,65.0
237,35.0,0,60,6.0,64.0
238,66.0,0,180,1.0,100.0
239,74.0,16,30,2.0,64.0
240,74.0,45,8,2.0,64.0
241,71.0,0,45,3.0,65.0
242,59.0,0,45,4.0,64.0
243,44.0,0,60,6.0,64.0
244,61.0,0,16,4.0,64.0
245,56.0,0,60,5.0,65.0
246,73.0,44,16,3.0,65.0
247,69.0,0,46,3.0,65.0
248,57.0,0,46,4.0,64.0
249,42.0,0,61,6.0,64.0
250,54.0,15,61,5.0,65.0
251,71.0,45,16,3.0,65.0
252,59.0,0,16,4.0,64.0
253,68.0,1,30,3.0,65.0
254,74.0,15,150,2.0,64.0
255,56.0,0,30,4.0,64.0
256,52.0,0,61,5.0,65.0
257,86.0,29,31,2.0,55.0
258,40.0,15,61,6.0,64.0
259,74.0,30,16,2.0,64.0
260,74.0,31,15,2.0,64.0
261,71.0,30,45,3.0,65.0
262,59.0,0,45,4.0,64.0
263,56.0,0,60,5.0,65.0
264,61.0,0,16,4.0,64.0
265,73.0,44,16,3.0,65.0
266,44.0,0,60,6.0,64.0
267,69.0,0,46,3.0,65.0
268,57.0,0,46,4.0,64.0
269,59.0,0,16,4.0,59.0
270,54.0,0,61,5.0,65.0
271,42.0,15,61,6.0,64.0
272,71.0,45,16,3.0,60.0
273,76.0,0,390,0.0,100.0
274,50.0,0,390,1.0,100.0
275,62.0,0,390,1.0,100.0
276,71.0,0,390,0.0,100.0
277,52.0,15,46,5.0,58.0
278,68.0,0,45,3.0,55.0
279,40.0,0,46,6.0,57.0
280,56.0,1,45,4.0,55.0
281,74.0,0,165,2.0,64.0
282,64.0,60,60,2.0,64.0
283,61.0,30,0,4.0,53.0
284,64.0,0,30,3.0,56.0
285,61.0,30,0,4.0,53.0
286,64.0,0,0,3.0,56.0
287,69.0,0,120,2.0,64.0
288,45.0,60,120,5.0,65.0
289,33.0,0,120,6.0,64.0
290,64.0,30,0,3.0,56.0
291,57.0,0,30,4.0,53.0
292,57.0,0,30,4.0,53.0
293,45.0,0,121,6.0,64.0
294,57.0,0,121,5.0,65.0
295,57.0,0,30,4.0,53.0
296,73.0,29,121,2.0,64.0
297,64.0,30,30,3.0,56.0
298,76.0,0,30,2.0,64.0
299,59.0,1,30,4.0,53.0
300,75.0,29,31,2.0,57.0
301,64.0,0,30,3.0,56.0
302,59.0,0,30,4.0,53.0
303,64.0,30,0,3.0,56.0
304,56.0,0,120,5.0,65.0
305,59.0,0,30,4.0,53.0
306,44.0,30,120,6.0,64.0
307,74.0,29,76,2.0,50.0
308,64.0,30,0,3.0,56.0
309,56.0,0,0,4.0,53.0
310,64.0,30,0,3.0,56.0
311,56.0,0,0,4.0,53.0
312,71.0,0,60,2.0,56.0
313,52.0,29,121,5.0,65.0
314,40.0,0,121,6.0,64.0
315,73.0,30,15,2.0,64.0
316,74.0,14,16,2.0,64.0
317,73.0,15,9,2.0,64.0
318,74.0,7,8,2.0,64.0
319,73.0,7,9,2.0,64.0
320,74.0,8,8,2.0,64.0
321,57.0,1,30,4.0,53.0
322,64.0,1,0,3.0,56.0
323,57.0,0,30,4.0,53.0
324,73.0,7,31,2.0,64.0
325,71.0,29,16,2.0,64.0
326,64.0,0,30,3.0,56.0
327,57.0,1,30,4.0,53.0
328,73.0,14,16,2.0,64.0
329,57.0,0,120,5.0,65.0
330,45.0,0,120,6.0,64.0
331,74.0,1,45,2.0,64.0
332,71.0,14,16,2.0,64.0
333,62.0,0,0,4.0,53.0
334,66.0,30,30,3.0,56.0
335,66.0,0,30,3.0,56.0
336,74.0,16,45,2.0,64.0
337,50.0,0,121,5.0,65.0
338,71.0,14,16,2.0,64.0
339,66.0,30,30,3.0,56.0
340,38.0,15,121,6.0,64.0
341,62.0,0,30,4.0,53.0
342,61.0,30,0,4.0,53.0
343,64.0,0,0,3.0,56.0
344,61.0,0,0,4.0,53.0
345,64.0,30,30,3.0,56.0
346,52.0,0,120,5.0,65.0
347,40.0,0,120,6.0,64.0
348,69.0,16,120,2.0,64.0
349,68.0,0,46,2.0,51.0
350,59.0,0,30,4.0,53.0
351,64.0,31,30,3.0,56.0
352,59.0,0,31,3.0,56.0
353,56.0,0,0,4.0,53.0
354,59.0,30,30,3.0,56.0
355,50.0,29,121,5.0,65.0
356,38.0,0,121,6.0,64.0
357,64.0,1,60,2.0,64.0
358,57.0,30,30,4.0,53.0
359,64.0,30,0,3.0,56.0
360,57.0,0,30,4.0,53.0
361,64.0,30,0,3.0,56.0
362,69.0,0,105,2.0,64.0
363,57.0,0,30,4.0,53.0
364,64.0,14,16,2.0,64.0
365,49.0,30,120,5.0,65.0
366,37.0,0,120,6.0,64.0
367,61.0,0,30,4.0,53.0
368,33.0,16,60,6.0,64.0
369,45.0,0,60,5.0,65.0
370,64.0,0,0,3.0,56.0
371,61.0,0,30,4.0,53.0
372,73.0,0,105,2.0,64.0
373,45.0,30,60,6.0,64.0
374,69.0,14,16,2.0,64.0
375,61.0,0,30,4.0,53.0
376,64.0,0,0,3.0,56.0
377,57.0,0,60,5.0,65.0
378,76.0,16,15,2.0,64.0
379,75.0,14,16,2.0,64.0
380,76.0,15,16,2.0,64.0
381,44.0,0,60,6.0,64.0
382,56.0,0,60,5.0,65.0
383,59.0,0,60,4.0,53.0
384,75.0,15,16,2.0,64.0
385,66.0,0,60,4.0,53.0
386,54.0,0,60,5.0,55.0
387,42.0,0,60,6.0,56.0
388,74.0,15,61,2.0,56.0
389,69.0,1,60,3.0,56.0
390,68.0,0,60,3.0,46.0
391,52.0,0,60,5.0,46.0
392,40.0,0,60,6.0,46.0
393,64.0,120,60,4.0,46.0
394,73.0,0,60,2.0,46.0
395,50.0,0,60,5.0,55.0
396,66.0,0,60,4.0,55.0
397,71.0,0,60,2.0,55.0
398,38.0,120,60,6.0,55.0
399,69.0,59,61,2.0,55.0
400,61.0,0,61,4.0,55.0
401,59.0,60,61,4.0,55.0
402,64.0,46,15,3.0,65.0
403,68.0,0,61,2.0,55.0
404,52.0,0,121,5.0,55.0
405,40.0,0,121,6.0,55.0
406,64.0,45,15,2.0,64.0
407,57.0,0,60,4.0,64.0
408,61.0,14,61,3.0,65.0
409,57.0,0,60,5.0,64.0
410,45.0,1,60,6.0,64.0
411,64.0,46,15,3.0,65.0
412,69.0,14,61,2.0,64.0
413,61.0,0,61,4.0,64.0
414,68.0,45,15,2.0,64.0
415,59.0,0,61,4.0,64.0
416,62.0,14,61,3.0,65.0
417,52.0,1,60,5.0,64.0
418,40.0,0,60,6.0,64.0
419,64.0,46,15,3.0,65.0
420,74.0,14,61,2.0,64.0
421,56.0,0,61,4.0,64.0
422,33.0,1,60,6.0,64.0
423,45.0,0,60,5.0,64.0
424,61.0,14,61,3.0,65.0
425,73.0,45,15,2.0,64.0
426,57.0,0,60,4.0,64.0
427,81.0,0,16,2.0,64.0
428,81.0,31,15,2.0,64.0
429,64.0,15,15,3.0,65.0
430,62.0,14,61,4.0,64.0
431,81.0,0,15,2.0,64.0
432,80.0,14,16,2.0,64.0
433,59.0,0,45,4.0,64.0
434,78.0,15,16,2.0,64.0
435,62.0,14,46,3.0,65.0
436,40.0,1,60,6.0,64.0
437,62.0,15,16,4.0,64.0
438,76.0,0,0,2.0,64.0
439,71.0,0,16,3.0,65.0
440,52.0,0,60,5.0,64.0
441,59.0,15,45,4.0,64.0
442,68.0,0,45,3.0,65.0
443,56.0,0,16,4.0,64.0
444,64.0,44,16,3.0,65.0
445,61.0,0,60,3.0,65.0
446,45.0,0,60,6.0,64.0
447,57.0,16,60,4.0,64.0
448,64.0,45,15,2.0,64.0
449,69.0,14,61,2.0,64.0
450,64.0,46,15,3.0,65.0
451,61.0,0,61,4.0,64.0
452,59.0,14,61,4.0,64.0
453,68.0,45,15,2.0,64.0
454,52.0,1,60,5.0,64.0
455,40.0,0,60,6.0,64.0
456,62.0,0,61,3.0,65.0
457,56.0,0,61,4.0,64.0
458,74.0,14,61,2.0,64.0
459,64.0,46,15,3.0,65.0
460,73.0,45,15,2.0,64.0
461,45.0,0,60,5.0,64.0
462,33.0,1,60,6.0,64.0
463,76.0,0,780,0.0,100.0
464,57.0,14,61,3.0,65.0
465,64.0,0,780,0.0,100.0
466,81.0,14,16,2.0,64.0
467,81.0,30,15,2.0,64.0
468,81.0,1,60,0.0,100.0
469,73.0,0,60,0.0,100.0
470,57.0,0,60,4.0,64.0
471,61.0,0,60,3.0,65.0
472,81.0,0,15,2.0,64.0
473,79.0,14,16,2.0,64.0
474,78.0,15,16,2.0,64.0
475,79.0,15,16,2.0,64.0
476,57.0,0,120,1.0,100.0
477,45.0,30,120,1.0,100.0
478,57.0,0,120,3.0,65.0
479,64.0,0,120,3.0,65.0
480,49.0,0,120,5.0,64.0
481,76.0,0,120,0.0,100.0
482,79.0,0,120,0.0,100.0
483,37.0,0,120,6.0,64.0
484,69.0,0,120,4.0,64.0
485,79.0,16,60,2.0,64.0
486,62.0,90,15,3.0,52.0
487,78.0,0,15,2.0,53.0
488,77.0,14,16,2.0,53.0
489,61.0,0,16,3.0,52.0
490,62.0,0,31,3.0,52.0
491,78.0,15,31,2.0,53.0
492,66.0,31,15,3.0,44.0
493,81.0,0,15,2.0,45.0
494,59.0,30,30,3.0,52.0
495,74.0,0,30,2.0,53.0
496,78.0,29,31,2.0,53.0
497,61.0,0,31,3.0,52.0
498,56.0,31,30,3.0,52.0
499,71.0,0,30,2.0,53.0
500,59.0,0,31,3.0,52.0
501,74.0,29,31,2.0,53.0
502,73.0,0,30,2.0,53.0
503,57.0,31,30,3.0,52.0
504,59.0,0,31,3.0,53.0
505,74.0,29,31,2.0,53.0
506,60.0,0,31,3.0,53.0
507,75.0,30,31,2.0,53.0
508,76.0,30,31,2.0,53.0
509,61.0,0,0,3.0,53.0
510,64.0,31,60,4.0,47.0
511,52.0,0,60,6.0,64.0
512,69.0,0,60,2.0,53.0
513,62.0,0,45,3.0,53.0
514,71.0,0,45,2.0,53.0
515,52.0,0,60,4.0,47.0
516,40.0,60,60,6.0,64.0
517,59.0,44,16,3.0,53.0
518,68.0,0,16,2.0,53.0
519,61.0,0,15,3.0,53.0
520,57.0,0,15,4.0,47.0
521,61.0,30,15,4.0,47.0
522,64.0,0,15,3.0,51.0
523,69.0,0,60,2.0,53.0
524,45.0,16,60,6.0,64.0
525,64.0,0,15,3.0,51.0
526,61.0,0,15,4.0,47.0
527,75.0,30,15,2.0,64.0
528,76.0,14,16,2.0,64.0
529,64.0,0,15,3.0,51.0
530,78.0,16,15,2.0,64.0
531,61.0,0,15,4.0,47.0
532,76.0,14,16,2.0,64.0
533,61.0,0,15,4.0,47.0
534,64.0,0,15,3.0,51.0
535,81.0,16,30,2.0,64.0
536,61.0,0,15,4.0,47.0
537,64.0,30,15,3.0,51.0
538,61.0,30,15,4.0,47.0
539,64.0,0,15,3.0,51.0
540,81.0,0,15,2.0,64.0
541,80.0,14,16,2.0,64.0
542,61.0,0,15,4.0,47.0
543,78.0,15,16,2.0,64.0
544,64.0,1,15,3.0,51.0
545,76.0,14,16,2.0,64.0
546,66.0,0,15,3.0,51.0
547,62.0,0,15,4.0,47.0
548,74.0,0,30,2.0,64.0
549,62.0,30,15,4.0,47.0
550,66.0,0,15,3.0,51.0
551,33.0,0,60,6.0,64.0
552,45.0,16,60,5.0,64.0
553,73.0,30,15,2.0,64.0
554,62.0,0,15,4.0,47.0
555,66.0,0,15,3.0,51.0
556,74.0,14,16,2.0,64.0
557,62.0,0,15,4.0,47.0
558,66.0,1,15,3.0,51.0
559,76.0,15,16,2.0,64.0
560,74.0,14,16,2.0,64.0
561,71.0,0,15,2.0,64.0
562,62.0,0,15,4.0,47.0
563,68.0,16,15,3.0,51.0
564,73.0,30,15,2.0,64.0
565,61.0,0,15,4.0,47.0
566,69.0,0,15,3.0,51.0
567,74.0,0,15,2.0,64.0
568,59.0,30,15,4.0,48.0
569,68.0,0,15,3.0,51.0
570,71.0,30,15,3.0,51.0
571,76.0,0,15,2.0,64.0
572,56.0,0,15,4.0,48.0
573,64.0,0,30,3.0,51.0
574,74.0,0,30,2.0,64.0
575,57.0,0,30,4.0,48.0
576,45.0,30,60,6.0,64.0
577,69.0,0,31,3.0,51.0
578,73.0,29,31,2.0,64.0
579,64.0,0,31,4.0,48.0
580,61.0,31,15,4.0,48.0
581,69.0,0,15,3.0,51.0
582,75.0,0,15,2.0,64.0
583,76.0,14,16,2.0,64.0
584,61.0,0,15,4.0,48.0
585,78.0,16,15,2.0,64.0
586,69.0,0,15,3.0,51.0
587,76.0,14,16,2.0,64.0
588,64.0,0,15,3.0,51.0
589,61.0,16,15,4.0,48.0
590,81.0,0,30,2.0,64.0
591,64.0,30,15,3.0,51.0
592,61.0,0,15,4.0,48.0
593,64.0,30,15,3.0,51.0
594,81.0,0,15,2.0,64.0
595,61.0,0,15,4.0,48.0
596,80.0,14,16,2.0,64.0
597,64.0,1,15,3.0,51.0
598,78.0,15,16,2.0,64.0
599,61.0,0,15,4.0,48.0
600,76.0,14,16,2.0,64.0
601,62.0,16,15,4.0,48.0
602,66.0,0,15,3.0,51.0
603,74.0,0,30,2.0,64.0
604,62.0,30,15,4.0,48.0
605,66.0,0,15,3.0,51.0
606,33.0,0,60,6.0,64.0
607,45.0,0,60,5.0,64.0
608,73.0,0,15,2.0,64.0
609,66.0,30,15,3.0,51.0
610,62.0,0,15,4.0,48.0
611,74.0,14,16,2.0,64.0
612,66.0,0,15,3.0,51.0
613,76.0,15,16,2.0,64.0
614,62.0,1,15,4.0,48.0
615,78.0,14,16,2.0,64.0
616,59.0,0,15,4.0,48.0
617,76.0,0,15,2.0,64.0
618,68.0,16,15,3.0,51.0
619,59.0,30,15,4.0,48.0
620,68.0,0,15,3.0,51.0
621,74.0,0,15,2.0,64.0
622,59.0,0,15,4.0,48.0
623,73.0,30,15,2.0,64.0
624,68.0,0,15,3.0,51.0
625,68.0,30,15,3.0,51.0
626,71.0,0,15,2.0,64.0
627,59.0,0,15,4.0,49.0
628,61.0,0,15,4.0,49.0
629,61.0,0,15,3.0,51.0
630,52.0,30,15,4.0,49.0
631,69.0,0,60,2.0,64.0
632,33.0,0,60,6.0,64.0
633,45.0,0,60,5.0,64.0
634,63.0,0,15,2.0,64.0
635,61.0,0,15,3.0,51.0
636,52.0,0,15,4.0,49.0
637,75.0,30,15,0.0,100.0
638,64.0,14,16,2.0,64.0
639,76.0,1,15,0.0,100.0
640,66.0,14,16,2.0,64.0
641,52.0,1,15,4.0,49.0
642,78.0,0,15,0.0,100.0
643,61.0,0,15,3.0,51.0
644,57.0,0,60,5.0,64.0
645,45.0,0,60,6.0,64.0
646,64.0,14,16,2.0,64.0
647,76.0,0,0,0.0,100.0
648,61.0,15,15,3.0,51.0
649,52.0,0,15,4.0,49.0
650,81.0,0,30,0.0,100.0
651,69.0,0,30,2.0,64.0
652,61.0,0,15,3.0,51.0
653,52.0,30,15,4.0,49.0
654,45.0,0,60,5.0,64.0
655,33.0,0,60,6.0,64.0
656,61.0,0,15,3.0,51.0
657,52.0,0,15,4.0,49.0
658,81.0,0,15,0.0,100.0
659,69.0,0,15,2.0,64.0
660,68.0,14,16,2.0,64.0
661,80.0,1,15,0.0,100.0
662,66.0,14,16,2.0,64.0
663,78.0,0,15,0.0,100.0
664,61.0,0,15,3.0,51.0
665,52.0,1,15,4.0,49.0
666,45.0,30,60,6.0,64.0
667,76.0,1,15,0.0,100.0
668,57.0,0,60,5.0,64.0
669,64.0,14,16,2.0,64.0
670,54.0,0,15,4.0,49.0
671,57.0,0,15,3.0,51.0
672,62.0,0,30,2.0,64.0
673,74.0,0,30,0.0,100.0
674,54.0,30,15,4.0,49.0
675,57.0,0,15,3.0,51.0
676,33.0,15,60,6.0,64.0
677,45.0,0,60,5.0,64.0
678,73.0,0,15,0.0,100.0
679,61.0,30,15,2.0,64.0
680,54.0,0,15,4.0,49.0
681,57.0,0,15,3.0,51.0
682,74.0,1,15,0.0,100.0
683,62.0,14,16,2.0,64.0
684,54.0,0,15,4.0,49.0
685,64.0,14,16,2.0,64.0
686,76.0,1,15,0.0,100.0
687,57.0,0,15,3.0,51.0
688,57.0,0,60,5.0,64.0
689,45.0,0,60,6.0,64.0
690,78.0,0,120,0.0,100.0
691,74.0,1,15,0.0,100.0
692,62.0,14,16,2.0,64.0
693,71.0,0,15,0.0,100.0
694,59.0,0,15,2.0,64.0
695,56.0,0,15,4.0,49.0
696,68.0,0,15,0.0,100.0
697,61.0,0,15,2.0,64.0
698,57.0,0,15,4.0,49.0
699,73.0,0,15,0.0,100.0
700,69.0,30,15,0.0,100.0
701,57.0,0,15,3.0,51.0
702,45.0,15,60,5.0,64.0
703,33.0,0,60,6.0,64.0
704,59.0,0,15,3.0,51.0
705,56.0,0,15,4.0,49.0
706,62.0,0,15,2.0,64.0
707,71.0,0,15,0.0,100.0
708,74.0,0,15,0.0,100.0
709,52.0,0,15,4.0,49.0
710,76.0,0,15,0.0,100.0
711,73.0,0,15,0.0,100.0
712,64.0,0,15,2.0,64.0
713,61.0,30,15,3.0,51.0
714,57.0,30,60,5.0,64.0
715,45.0,0,60,6.0,64.0
716,56.0,0,30,4.0,49.0
717,71.0,0,30,0.0,100.0
718,62.0,0,30,2.0,64.0
719,74.0,0,30,0.0,100.0
720,59.0,0,30,3.0,51.0
721,73.0,0,30,0.0,100.0
722,57.0,0,31,4.0,50.0
723,45.0,30,60,5.0,64.0
724,61.0,29,31,2.0,64.0
725,33.0,0,60,6.0,64.0
726,57.0,0,31,3.0,51.0
727,69.0,1,30,0.0,100.0
728,61.0,0,15,3.0,51.0
729,63.0,0,15,2.0,64.0
730,52.0,0,15,4.0,50.0
731,75.0,0,15,0.0,100.0
732,76.0,1,15,0.0,100.0
733,64.0,14,16,2.0,64.0
734,61.0,0,15,3.0,51.0
735,66.0,0,15,2.0,64.0
736,78.0,15,15,0.0,100.0
737,52.0,0,15,4.0,50.0
738,76.0,1,15,0.0,100.0
739,45.0,0,60,6.0,64.0
740,57.0,30,60,5.0,64.0
741,64.0,14,16,2.0,64.0
742,61.0,0,15,3.0,51.0
743,52.0,0,15,4.0,50.0
744,81.0,15,30,0.0,100.0
745,69.0,0,30,2.0,64.0
746,61.0,0,15,3.0,51.0
747,52.0,30,15,4.0,50.0
748,33.0,0,60,6.0,64.0
749,45.0,0,60,5.0,64.0
750,61.0,0,15,3.0,51.0
751,69.0,0,15,2.0,64.0
752,81.0,0,15,0.0,100.0
753,52.0,0,15,4.0,50.0
754,68.0,14,16,2.0,64.0
755,80.0,1,15,0.0,100.0
756,66.0,14,16,2.0,64.0
757,52.0,1,15,4.0,50.0
758,78.0,0,15,0.0,100.0
759,61.0,0,15,3.0,51.0
760,76.0,1,15,0.0,100.0
761,45.0,0,60,6.0,64.0
762,64.0,14,16,2.0,64.0
763,57.0,0,720,1.0,100.0
764,45.0,30,720,1.0,100.0
765,57.0,30,60,5.0,64.0
766,62.0,0,30,2.0,64.0
767,57.0,0,30,3.0,51.0
768,74.0,0,30,0.0,100.0
769,69.0,15,30,0.0,100.0
770,62.0,60,30,2.0,64.0
771,54.0,0,90,4.0,50.0
772,42.0,0,90,6.0,64.0
773,59.0,0,30,3.0,51.0
774,74.0,0,30,0.0,100.0
775,71.0,0,30,0.0,100.0
776,64.0,0,16,2.0,64.0
777,61.0,0,16,3.0,51.0
778,73.0,0,15,0.0,100.0
779,76.0,0,15,0.0,100.0
780,78.0,1,15,0.0,100.0
781,57.0,0,120,1.0,100.0
782,38.0,0,31,6.0,64.0
783,74.0,0,15,0.0,100.0
784,62.0,14,16,3.0,51.0
785,66.0,0,16,2.0,64.0
786,50.0,1,30,5.0,64.0
787,57.0,29,31,4.0,50.0
788,73.0,0,15,0.0,100.0
789,76.0,0,15,0.0,100.0
790,61.0,0,15,3.0,51.0
791,64.0,0,15,2.0,64.0
792,59.0,30,15,3.0,51.0
793,62.0,0,15,2.0,64.0
794,71.0,0,15,0.0,100.0
795,74.0,0,15,0.0,100.0
796,52.0,0,0,4.0,50.0
797,40.0,15,60,6.0,64.0
798,61.0,0,15,2.0,64.0
799,69.0,0,15,0.0,100.0
800,73.0,0,15,0.0,100.0
801,57.0,30,15,3.0,51.0
802,56.0,0,15,3.0,51.0
803,68.0,0,15,0.0,100.0
804,59.0,0,15,2.0,64.0
805,71.0,1,15,0.0,100.0
806,40.0,0,60,6.0,64.0
807,64.0,0,120,1.0,100.0
808,50.0,29,31,4.0,50.0
809,57.0,0,10,2.0,64.0
810,59.0,20,10,2.0,64.0
811,61.0,20,10,2.0,64.0
812,49.0,0,60,4.0,50.0
813,57.0,0,60,3.0,51.0
814,57.0,0,60,1.0,100.0
815,69.0,0,60,0.0,100.0
816,33.0,30,60,6.0,64.0
817,45.0,0,60,5.0,64.0
818,62.0,20,10,2.0,64.0
819,64.0,20,10,2.0,64.0
820,66.0,20,10,2.0,64.0
821,64.0,20,10,2.0,64.0
822,66.0,20,10,2.0,64.0
823,64.0,20,10,2.0,64.0
824,59.0,0,10,3.0,65.0
825,62.0,0,10,2.0,64.0
826,74.0,0,10,0.0,100.0
827,71.0,0,10,0.0,100.0
828,57.0,20,10,3.0,65.0
829,61.0,0,10,2.0,64.0
830,73.0,0,10,0.0,100.0
831,69.0,0,10,0.0,100.0
832,52.0,20,45,4.0,64.0
833,68.0,20,10,0.0,100.0
834,59.0,0,10,2.0,64.0
835,71.0,0,10,0.0,100.0
836,56.0,0,10,3.0,65.0
837,50.0,4,16,4.0,64.0
838,40.0,0,60,6.0,64.0
839,64.0,0,60,1.0,100.0
840,57.0,0,10,2.0,64.0
841,59.0,20,10,2.0,64.0
842,61.0,20,10,2.0,64.0
843,57.0,0,60,3.0,65.0
844,45.0,16,60,5.0,64.0
845,57.0,0,60,1.0,100.0
846,33.0,0,60,6.0,64.0
847,69.0,0,60,0.0,100.0
848,49.0,0,60,4.0,64.0
849,62.0,20,10,2.0,64.0
850,64.0,20,10,2.0,64.0
851,66.0,20,10,2.0,64.0
852,64.0,20,10,2.0,64.0
853,66.0,20,10,2.0,64.0
854,64.0,20,10,2.0,64.0
855,62.0,0,10,2.0,64.0
856,71.0,0,10,0.0,100.0
857,74.0,0,10,0.0,100.0
858,59.0,20,10,3.0,65.0
859,57.0,0,10,3.0,65.0
860,61.0,0,10,2.0,64.0
861,69.0,0,10,0.0,100.0
862,73.0,20,10,0.0,100.0
863,52.0,0,45,4.0,64.0
864,71.0,0,10,0.0,100.0
865,68.0,0,10,0.0,100.0
866,59.0,0,10,2.0,64.0
867,56.0,20,10,3.0,65.0
868,50.0,4,16,4.0,64.0
869,64.0,0,60,1.0,100.0
870,40.0,0,60,6.0,64.0
871,57.0,16,10,2.0,64.0
872,59.0,20,10,2.0,64.0
873,61.0,20,10,2.0,64.0
874,69.0,0,60,0.0,100.0
875,57.0,0,60,1.0,100.0
876,33.0,0,60,6.0,64.0
877,45.0,0,60,5.0,64.0
878,49.0,0,60,4.0,64.0
879,57.0,0,60,3.0,65.0
880,62.0,20,10,2.0,64.0
881,64.0,20,10,2.0,64.0
882,66.0,20,10,2.0,64.0
883,67.0,20,10,2.0,64.0
884,64.0,20,10,2.0,64.0
885,62.0,20,10,2.0,64.0
886,61.0,20,10,2.0,64.0
887,59.0,20,10,2.0,64.0
888,57.0,20,10,2.0,64.0
889,62.0,20,10,2.0,64.0
890,66.0,20,10,2.0,64.0
891,69.0,20,10,2.0,64.0
892,74.0,20,10,2.0,64.0
893,76.0,20,10,2.0,64.0
894,78.0,20,10,2.0,64.0
895,79.0,20,10,2.0,64.0
896,76.0,20,10,2.0,64.0
897,74.0,20,10,2.0,64.0
898,73.0,20,10,2.0,64.0
899,71.0,20,10,2.0,64.0
900,69.0,20,10,2.0,64.0
901,74.0,20,105,2.0,64.0
902,69.0,44,16,2.0,64.0
903,42.0,0,60,6.0,64.0
904,54.0,60,60,5.0,64.0
905,38.0,0,60,6.0,64.0
906,57.0,0,120,3.0,65.0
907,50.0,16,60,5.0,64.0
908,66.0,0,105,2.0,64.0
909,42.0,0,60,6.0,64.0
910,54.0,60,60,5.0,64.0
911,57.0,0,60,4.0,63.0
912,69.0,44,16,2.0,64.0
913,52.0,0,60,5.0,64.0
914,62.0,0,120,3.0,65.0
915,59.0,0,60,4.0,63.0
916,40.0,16,60,6.0,64.0
917,67.0,0,105,2.0,64.0
918,43.0,0,60,6.0,64.0
919,64.0,44,16,2.0,64.0
920,55.0,1,60,5.0,64.0
921,59.0,59,61,3.0,65.0
922,45.0,0,60,5.0,64.0
923,33.0,16,60,6.0,64.0
924,64.0,0,120,4.0,63.0
925,57.0,0,105,3.0,65.0
926,61.0,0,105,2.0,64.0
927,55.0,60,60,5.0,64.0
928,43.0,0,60,6.0,64.0
929,45.0,0,60,4.0,63.0
930,61.0,0,16,3.0,65.0
931,64.0,44,16,2.0,64.0
932,42.0,0,60,6.0,64.0
933,54.0,16,60,5.0,64.0
934,57.0,0,105,2.0,64.0
935,38.0,60,60,6.0,64.0
936,66.0,44,16,2.0,64.0
937,62.0,0,120,3.0,65.0
938,50.0,0,60,5.0,64.0
939,37.0,1,60,6.0,64.0
940,49.0,0,60,5.0,64.0
941,67.0,0,105,2.0,64.0
942,64.0,44,16,2.0,64.0
943,61.0,60,60,5.0,64.0
944,49.0,0,60,6.0,64.0
945,64.0,15,121,3.0,65.0
946,66.0,16,45,2.0,64.0
947,62.0,0,60,3.0,65.0
948,50.0,0,60,5.0,64.0
949,62.0,44,16,2.0,64.0
950,38.0,0,60,6.0,64.0
951,45.0,0,300,4.0,63.0
952,64.0,0,45,3.0,65.0
953,67.0,0,45,2.0,64.0
954,43.0,0,60,6.0,64.0
955,66.0,0,16,2.0,64.0
956,62.0,44,16,3.0,65.0
957,59.0,0,60,4.0,63.0
958,55.0,16,60,5.0,64.0
959,61.0,0,30,3.0,65.0
960,64.0,0,30,2.0,64.0
961,45.0,16,30,6.0,64.0
962,57.0,0,30,5.0,64.0
963,43.0,0,30,6.0,64.0
964,55.0,0,30,5.0,64.0
965,59.0,30,30,4.0,63.0
966,42.0,0,30,6.0,64.0
967,57.0,30,30,4.0,63.0
968,54.0,0,30,5.0,64.0
969,69.0,15,15,3.0,65.0
970,52.0,0,30,5.0,64.0
971,55.0,0,30,4.0,63.0
972,40.0,30,30,6.0,64.0
973,81.0,30,15,2.0,64.0
974,50.0,0,60,5.0,64.0
975,54.0,0,60,4.0,63.0
976,38.0,0,60,6.0,64.0
977,81.0,0,15,2.0,64.0
978,74.0,15,105,3.0,65.0
979,81.0,30,15,2.0,64.0
980,69.0,14,16,3.0,65.0
981,50.0,0,60,6.0,64.0
982,66.0,30,60,4.0,63.0
983,62.0,0,60,5.0,64.0
984,81.0,0,30,2.0,64.0
985,83.0,30,15,2.0,64.0
986,85.0,14,16,2.0,64.0
987,86.0,0,15,2.0,64.0
988,85.0,14,16,2.0,64.0
989,83.0,16,15,2.0,64.0
990,66.0,16,105,3.0,65.0
991,69.0,0,16,3.0,65.0
992,38.0,0,60,6.0,64.0
993,57.0,16,60,4.0,63.0
994,50.0,0,60,5.0,64.0
995,81.0,14,16,2.0,64.0
996,79.0,0,15,2.0,64.0
997,79.0,30,15,2.0,64.0
998,79.0,0,15,2.0,64.0
999,79.0,30,15,2.0,64.0
1000,67.0,16,105,3.0,65.0
1001,64.0,14,16,3.0,65.0
1002,61.0,0,60,4.0,63.0
1003,40.0,30,60,6.0,64.0
1004,52.0,0,60,5.0,64.0
1005,79.0,16,30,2.0,64.0
1006,78.0,30,15,2.0,64.0
1007,76.0,14,16,2.0,64.0
1008,74.0,0,15,2.0,64.0
1009,73.0,14,16,2.0,64.0
1010,61.0,0,105,3.0,65.0
1011,71.0,16,15,2.0,64.0
1012,33.0,0,60,6.0,64.0
1013,55.0,0,60,4.0,63.0
1014,69.0,0,16,2.0,64.0
1015,45.0,16,60,5.0,64.0
1016,64.0,14,16,3.0,65.0
1017,54.0,0,45,4.0,63.0
1018,62.0,0,45,3.0,65.0
1019,66.0,0,16,3.0,65.0
1020,50.0,0,60,5.0,64.0
1021,38.0,16,60,6.0,64.0
1022,62.0,44,16,4.0,63.0
1023,64.0,0,46,3.0,65.0
1024,61.0,15,46,4.0,63.0
1025,64.0,0,16,4.0,63.0
1026,67.0,45,16,3.0,65.0
1027,62.0,1,45,4.0,63.0
1028,66.0,15,46,3.0,65.0
1029,69.0,44,16,3.0,65.0
1030,66.0,0,16,4.0,63.0
1031,64.0,15,46,4.0,63.0
1032,67.0,1,45,3.0,65.0
1033,61.0,44,16,4.0,63.0
1034,64.0,0,16,3.0,65.0
1035,66.0,0,45,3.0,65.0
1036,62.0,16,45,4.0,63.0
1037,54.0,44,16,4.0,63.0
1038,62.0,0,16,3.0,65.0
1039,64.0,15,46,3.0,65.0
1040,55.0,0,46,4.0,63.0
1041,57.0,1,60,5.0,64.0
1042,52.0,0,16,4.0,63.0
1043,45.0,0,60,6.0,64.0
1044,61.0,44,16,3.0,65.0
1045,69.0,0,390,2.0,64.0
1046,62.0,0,30,3.0,65.0
1047,54.0,16,30,4.0,63.0
1048,71.0,30,8,2.0,64.0
1049,73.0,15,8,2.0,64.0
1050,38.0,0,60,6.0,64.0
1051,50.0,0,60,5.0,64.0
1052,74.0,15,8,2.0,64.0
1053,76.0,15,8,2.0,64.0
1054,78.0,15,8,2.0,64.0
1055,79.0,15,8,2.0,64.0
1056,57.0,0,15,3.0,65.0
1057,54.0,0,45,4.0,63.0
1058,62.0,15,45,3.0,65.0
1059,62.0,0,60,1.0,100.0
1060,62.0,44,16,4.0,63.0
1061,69.0,0,60,0.0,100.0
1062,74.0,0,60,0.0,100.0
1063,66.0,0,16,3.0,65.0
1064,54.0,0,60,1.0,100.0
1065,61.0,0,46,4.0,63.0
1066,64.0,15,46,3.0,65.0
1067,64.0,0,60,1.0,100.0
1068,73.0,0,60,0.0,100.0
1069,57.0,0,60,1.0,100.0
1070,64.0,44,16,4.0,63.0
1071,67.0,0,16,3.0,65.0
1072,76.0,1,60,0.0,100.0
1073,66.0,0,45,3.0,65.0
1074,62.0,0,45,4.0,63.0
1075,78.0,16,60,0.0,100.0
1076,69.0,44,16,3.0,65.0
1077,62.0,0,60,1.0,100.0
1078,66.0,0,60,1.0,100.0
1079,66.0,0,16,4.0,63.0
1080,74.0,0,60,0.0,100.0
1081,64.0,15,46,4.0,63.0
1082,67.0,0,46,3.0,65.0
1083,79.0,0,60,0.0,100.0
1084,76.0,0,60,0.0,100.0
1085,64.0,0,16,3.0,65.0
1086,67.0,0,60,1.0,100.0
1087,64.0,1,60,1.0,100.0
1088,61.0,44,16,4.0,63.0
1089,62.0,0,45,4.0,63.0
1090,66.0,0,45,3.0,65.0
1091,78.0,0,60,0.0,100.0
1092,74.0,16,60,0.0,100.0
1093,62.0,0,60,1.0,100.0
1094,66.0,0,60,1.0,100.0
1095,62.0,0,16,3.0,65.0
1096,54.0,44,16,4.0,63.0
1097,64.0,15,46,3.0,65.0
1098,55.0,0,46,4.0,63.0
1099,61.0,0,16,3.0,65.0
1100,45.0,0,60,5.0,64.0
1101,33.0,0,60,6.0,64.0
1102,73.0,0,60,0.0,100.0
1103,52.0,44,16,4.0,63.0
1104,57.0,0,60,1.0,100.0
1105,64.0,0,60,1.0,100.0
1106,76.0,1,60,0.0,100.0
1107,54.0,0,30,4.0,63.0
1108,62.0,16,30,3.0,65.0
1109,81.0,0,405,2.0,64.0
1110,78.0,44,9,2.0,64.0
1111,54.0,0,60,1.0,100.0
1112,74.0,0,60,0.0,100.0
1113,38.0,0,60,6.0,64.0
1114,50.0,0,60,5.0,64.0
1115,62.0,0,60,1.0,100.0
1116,78.0,16,30,2.0,64.0
1117,78.0,45,8,2.0,64.0
1118,62.0,0,45,3.0,65.0
1119,54.0,0,45,4.0,63.0
1120,59.0,0,16,3.0,65.0
1121,74.0,0,60,0.0,100.0
1122,71.0,0,60,0.0,100.0
1123,50.0,44,16,4.0,63.0
1124,52.0,15,46,4.0,63.0
1125,61.0,0,46,3.0,65.0
1126,70.0,1,60,0.0,100.0
1127,30.0,0,60,6.0,64.0
1128,58.0,44,16,3.0,65.0
1129,49.0,0,16,4.0,63.0
1130,73.0,0,60,0.0,100.0
1131,42.0,0,60,5.0,64.0
1132,50.0,0,30,4.0,63.0
1133,59.0,0,30,3.0,65.0
1134,78.0,0,165,2.0,64.0
1135,74.0,44,9,2.0,64.0
1136,47.0,0,60,5.0,64.0
1137,54.0,0,180,1.0,100.0
1138,66.0,15,180,1.0,100.0
1139,71.0,0,60,0.0,100.0
1140,35.0,16,60,6.0,64.0
1141,74.0,16,30,2.0,64.0
1142,74.0,45,8,2.0,64.0
1143,59.0,0,45,4.0,63.0
1144,71.0,0,45,3.0,65.0
1145,44.0,0,60,6.0,64.0
1146,61.0,44,16,4.0,63.0
1147,56.0,0,60,5.0,64.0
1148,73.0,0,16,3.0,65.0
1149,69.0,0,46,3.0,65.0
1150,57.0,15,46,4.0,63.0
1151,54.0,0,61,5.0,64.0
1152,42.0,0,61,6.0,64.0
1153,71.0,45,16,3.0,65.0
1154,59.0,0,16,4.0,63.0
1155,68.0,1,30,3.0,65.0
1156,56.0,0,30,4.0,63.0
1157,74.0,0,150,2.0,64.0
1158,52.0,15,61,5.0,64.0
1159,40.0,0,61,6.0,64.0
1160,86.0,29,31,2.0,52.0
1161,74.0,30,16,2.0,64.0
1162,74.0,31,15,2.0,60.0
1163,71.0,0,45,3.0,65.0
1164,59.0,0,45,4.0,65.0
1165,73.0,44,16,3.0,61.0
1166,56.0,30,60,5.0,64.0
1167,61.0,0,16,4.0,62.0
1168,44.0,0,60,6.0,64.0
1169,57.0,0,46,4.0,61.0
1170,69.0,0,46,3.0,60.0
1171,54.0,0,61,5.0,64.0
1172,71.0,0,16,3.0,55.0
1173,59.0,45,16,4.0,57.0
1174,42.0,15,61,6.0,64.0
1175,56.0,1,30,4.0,56.0
1176,68.0,0,30,3.0,53.0
1177,74.0,0,165,2.0,53.0
1178,62.0,0,420,1.0,100.0
1179,50.0,0,420,1.0,100.0
1180,71.0,15,420,0.0,100.0
1181,76.0,0,420,0.0,100.0
1182,52.0,0,61,5.0,64.0
1183,40.0,15,61,6.0,64.0
1184,64.0,60,60,2.0,64.0
1185,64.0,30,0,3.0,53.0
1186,61.0,30,30,4.0,54.0
1187,61.0,0,0,4.0,54.0
1188,69.0,60,120,2.0,64.0
1189,33.0,0,120,6.0,64.0
1190,45.0,0,120,5.0,64.0
1191,64.0,30,30,3.0,53.0
1192,57.0,0,30,4.0,54.0
1193,64.0,0,0,3.0,53.0
1194,57.0,30,0,4.0,54.0
1195,64.0,0,0,3.0,53.0
1196,73.0,0,121,2.0,64.0
1197,45.0,0,121,6.0,64.0
1198,57.0,29,121,5.0,64.0
1199,76.0,0,30,2.0,64.0
1200,75.0,29,31,2.0,60.0
1201,64.0,0,30,3.0,53.0
1202,59.0,1,0,4.0,54.0
1203,64.0,0,30,3.0,53.0
1204,59.0,30,0,4.0,54.0
1205,56.0,30,120,5.0,64.0
1206,64.0,0,30,3.0,53.0
1207,44.0,0,120,6.0,64.0
1208,74.0,29,76,2.0,55.0
1209,64.0,0,0,3.0,53.0
1210,56.0,31,30,4.0,54.0
1211,64.0,0,0,3.0,53.0
1212,56.0,30,0,4.0,55.0
1213,40.0,29,121,6.0,64.0
1214,71.0,30,60,2.0,60.0
1215,52.0,0,121,5.0,64.0
1216,73.0,0,15,2.0,64.0
1217,74.0,14,16,2.0,64.0
1218,73.0,15,9,2.0,64.0
1219,74.0,7,8,2.0,64.0
1220,73.0,7,9,2.0,64.0
1221,74.0,8,8,2.0,64.0
1222,64.0,0,30,3.0,52.0
1223,57.0,0,0,4.0,55.0
1224,64.0,30,0,3.0,52.0
1225,73.0,7,31,2.0,64.0
1226,71.0,0,15,2.0,64.0
1227,57.0,0,120,5.0,64.0
1228,73.0,15,15,2.0,64.0
1229,57.0,0,30,4.0,55.0
1230,45.0,30,120,6.0,64.0
1231,74.0,1,45,2.0,64.0
1232,62.0,0,30,4.0,55.0
1233,66.0,30,30,3.0,52.0
1234,71.0,14,16,2.0,64.0
1235,66.0,16,30,3.0,52.0
1236,62.0,0,30,4.0,55.0
1237,74.0,0,45,2.0,64.0
1238,50.0,0,121,5.0,64.0
1239,71.0,14,16,2.0,64.0
1240,62.0,30,30,4.0,55.0
1241,38.0,14,121,6.0,64.0
1242,66.0,0,30,3.0,52.0
1243,61.0,30,0,4.0,55.0
1244,64.0,30,30,3.0,52.0
1245,64.0,0,30,3.0,52.0
1246,61.0,0,0,4.0,55.0
1247,64.0,30,30,3.0,52.0
1248,69.0,0,120,2.0,64.0
1249,52.0,16,120,5.0,64.0
1250,40.0,0,120,6.0,64.0
1251,68.0,29,46,2.0,64.0
1252,64.0,0,30,3.0,52.0
1253,59.0,30,30,4.0,56.0
1254,56.0,0,31,4.0,56.0
1255,59.0,30,0,3.0,52.0
1256,38.0,1,120,6.0,64.0
1257,56.0,0,30,4.0,56.0
1258,64.0,1,60,2.0,64.0
1259,50.0,0,121,5.0,64.0
1260,57.0,30,0,4.0,56.0
1261,64.0,0,0,3.0,51.0
1262,64.0,30,0,3.0,51.0
1263,69.0,0,105,2.0,64.0
1264,49.0,30,120,5.0,64.0
1265,57.0,0,30,4.0,56.0
1266,37.0,0,120,6.0,64.0
1267,64.0,14,16,2.0,64.0
1268,45.0,16,60,5.0,64.0
1269,64.0,30,30,3.0,51.0
1270,61.0,0,30,4.0,56.0
1271,33.0,0,60,6.0,64.0
1272,61.0,30,0,4.0,56.0
1273,64.0,0,0,3.0,51.0
1274,73.0,0,105,2.0,64.0
1275,57.0,30,60,5.0,64.0
1276,45.0,0,60,6.0,64.0
1277,69.0,14,16,2.0,66.0
1278,64.0,16,0,3.0,51.0
1279,76.0,0,15,2.0,63.0
1280,75.0,14,16,2.0,62.0
1281,76.0,15,16,2.0,60.0
1282,75.0,15,16,2.0,58.0
1283,44.0,0,60,6.0,58.0
1284,59.0,0,60,4.0,52.0
1285,56.0,0,60,5.0,60.0
1286,69.0,1,60,3.0,45.0
1287,42.0,0,60,6.0,53.0
1288,54.0,0,60,5.0,55.0
1289,66.0,0,60,4.0,49.0
1290,74.0,15,61,2.0,56.0
1291,68.0,0,60,3.0,44.0
1292,40.0,0,60,6.0,53.0
1293,52.0,0,60,5.0,53.0
1294,73.0,120,60,2.0,50.0
1295,64.0,0,60,4.0,50.0
1296,38.0,120,60,6.0,49.0
1297,71.0,0,60,2.0,53.0
1298,50.0,0,60,5.0,51.0
1299,66.0,0,60,4.0,50.0
1300,61.0,59,61,4.0,50.0
1301,69.0,0,61,2.0,53.0
1302,68.0,0,61,2.0,53.0
1303,40.0,0,121,6.0,49.0
1304,59.0,60,61,4.0,50.0
1305,52.0,0,121,5.0,51.0
1306,64.0,46,15,3.0,64.0
1307,64.0,45,15,2.0,64.0
1308,57.0,0,60,4.0,63.0
1309,45.0,0,60,6.0,64.0
1310,61.0,14,61,3.0,64.0
1311,57.0,1,60,5.0,64.0
1312,69.0,0,61,2.0,64.0
1313,61.0,14,61,4.0,63.0
1314,64.0,46,15,3.0,64.0
1315,52.0,1,60,5.0,64.0
1316,59.0,14,61,4.0,63.0
1317,68.0,45,15,2.0,64.0
1318,40.0,0,60,6.0,64.0
1319,62.0,0,61,3.0,64.0
1320,74.0,14,61,2.0,64.0
1321,56.0,0,61,4.0,63.0
1322,64.0,46,15,3.0,64.0
1323,73.0,45,15,2.0,64.0
1324,57.0,0,60,4.0,63.0
1325,45.0,0,60,5.0,64.0
1326,33.0,1,60,6.0,64.0
1327,61.0,14,61,3.0,64.0
1328,81.0,14,16,2.0,64.0
1329,81.0,31,15,2.0,64.0
1330,62.0,0,61,4.0,63.0
1331,64.0,15,15,3.0,64.0
1332,81.0,0,15,2.0,64.0
1333,80.0,14,16,2.0,64.0
1334,62.0,14,46,3.0,64.0
1335,78.0,15,16,2.0,64.0
1336,59.0,0,45,4.0,63.0
1337,40.0,0,60,6.0,64.0
1338,71.0,0,16,3.0,64.0
1339,76.0,1,0,2.0,64.0
1340,52.0,1,60,5.0,64.0
1341,62.0,15,16,4.0,63.0
1342,59.0,14,46,4.0,63.0
1343,68.0,0,45,3.0,64.0
1344,56.0,0,16,4.0,63.0
1345,64.0,44,16,3.0,64.0
1346,57.0,0,60,4.0,63.0
1347,64.0,45,15,2.0,64.0
1348,45.0,0,60,6.0,64.0
1349,61.0,16,60,3.0,64.0
1350,69.0,0,61,2.0,64.0
1351,64.0,46,15,3.0,64.0
1352,61.0,14,61,4.0,63.0
1353,68.0,45,15,2.0,64.0
1354,40.0,1,60,6.0,64.0
1355,59.0,0,61,4.0,63.0
1356,52.0,0,60,5.0,64.0
1357,62.0,14,61,3.0,64.0
1358,56.0,0,61,4.0,63.0
1359,74.0,14,61,2.0,64.0
1360,64.0,46,15,3.0,64.0
1361,57.0,14,61,3.0,64.0
1362,73.0,45,15,2.0,64.0
1363,76.0,0,780,0.0,100.0
1364,64.0,0,780,0.0,100.0
1365,33.0,0,60,6.0,64.0
1366,45.0,1,60,5.0,64.0
1367,81.0,14,16,2.0,64.0
1368,81.0,30,15,2.0,64.0
1369,81.0,0,60,0.0,100.0
1370,57.0,0,60,4.0,63.0
1371,61.0,1,60,3.0,64.0
1372,73.0,0,60,0.0,100.0
1373,81.0,0,15,2.0,64.0
1374,79.0,14,16,2.0,64.0
1375,78.0,15,16,2.0,64.0
1376,79.0,15,16,2.0,64.0
1377,79.0,0,120,0.0,100.0
1378,79.0,16,60,2.0,64.0
1379,57.0,0,120,3.0,64.0
1380,69.0,0,120,4.0,63.0
1381,49.0,0,120,5.0,64.0
1382,45.0,0,120,1.0,100.0
1383,57.0,0,120,1.0,100.0
1384,76.0,30,120,0.0,100.0
1385,37.0,0,120,6.0,64.0
1386,64.0,0,120,3.0,64.0
1387,62.0,0,15,3.0,49.0
1388,78.0,90,15,2.0,49.0
1389,61.0,14,16,3.0,49.0
1390,77.0,0,16,2.0,49.0
1391,62.0,15,31,3.0,49.0
1392,78.0,0,31,2.0,49.0
1393,66.0,31,15,3.0,49.0
1394,81.0,0,15,2.0,49.0
1395,59.0,0,30,3.0,49.0
1396,74.0,30,30,2.0,49.0
1397,61.0,29,31,3.0,49.0
1398,78.0,0,31,2.0,49.0
1399,71.0,0,30,2.0,49.0
1400,56.0,31,30,3.0,49.0
1401,74.0,29,31,2.0,49.0
1402,59.0,0,31,3.0,49.0
1403,57.0,0,30,3.0,49.0
1404,73.0,31,30,2.0,49.0
1405,74.0,0,31,2.0,49.0
1406,59.0,29,31,3.0,49.0
1407,60.0,0,31,3.0,49.0
1408,75.0,30,31,2.0,49.0
1409,61.0,0,0,3.0,49.0
1410,76.0,30,31,2.0,49.0
1411,64.0,31,60,4.0,49.0
1412,69.0,0,60,2.0,49.0
1413,52.0,0,60,6.0,64.0
1414,71.0,0,45,2.0,46.0
1415,62.0,0,45,3.0,49.0
1416,40.0,0,60,6.0,64.0
1417,59.0,44,16,3.0,49.0
1418,68.0,0,16,2.0,46.0
1419,52.0,60,60,4.0,49.0
1420,61.0,0,15,3.0,49.0
1421,57.0,0,15,4.0,46.0
1422,61.0,0,15,4.0,46.0
1423,64.0,30,15,3.0,48.0
1424,45.0,16,60,6.0,64.0
1425,69.0,0,60,2.0,46.0
1426,61.0,30,15,4.0,46.0
1427,64.0,0,15,3.0,48.0
1428,75.0,0,15,2.0,64.0
1429,76.0,14,16,2.0,64.0
1430,61.0,0,15,4.0,46.0
1431,78.0,16,15,2.0,64.0
1432,64.0,0,15,3.0,48.0
1433,76.0,14,16,2.0,64.0
1434,64.0,0,15,3.0,48.0
1435,61.0,0,15,4.0,46.0
1436,81.0,16,30,2.0,64.0
1437,61.0,0,15,4.0,46.0
1438,64.0,30,15,3.0,48.0
1439,61.0,30,15,4.0,46.0
1440,81.0,0,15,2.0,64.0
1441,64.0,0,15,3.0,48.0
1442,80.0,14,16,2.0,64.0
1443,78.0,15,16,2.0,64.0
1444,61.0,0,15,4.0,46.0
1445,64.0,1,15,3.0,48.0
1446,76.0,14,16,2.0,64.0
1447,62.0,0,15,4.0,46.0
1448,66.0,16,15,3.0,48.0
1449,74.0,0,30,2.0,64.0
1450,62.0,30,15,4.0,46.0
1451,66.0,0,15,3.0,48.0
1452,33.0,0,60,6.0,64.0
1453,45.0,0,60,5.0,64.0
1454,66.0,0,15,3.0,48.0
1455,73.0,30,15,2.0,64.0
1456,62.0,0,15,4.0,46.0
1457,74.0,14,16,2.0,64.0
1458,66.0,0,15,3.0,48.0
1459,76.0,15,16,2.0,64.0
1460,62.0,1,15,4.0,46.0
1461,74.0,14,16,2.0,65.0
1462,62.0,16,15,4.0,46.0
1463,68.0,0,15,3.0,48.0
1464,71.0,0,15,2.0,65.0
1465,69.0,0,15,3.0,48.0
1466,73.0,30,15,2.0,65.0
1467,61.0,0,15,4.0,46.0
1468,74.0,0,15,2.0,65.0
1469,59.0,30,15,4.0,46.0
1470,68.0,0,15,3.0,48.0
1471,76.0,30,15,2.0,65.0
1472,56.0,0,15,4.0,46.0
1473,71.0,0,15,3.0,48.0
1474,74.0,0,30,2.0,65.0
1475,64.0,30,30,3.0,48.0
1476,57.0,0,30,4.0,46.0
1477,73.0,0,31,2.0,65.0
1478,45.0,0,60,6.0,64.0
1479,69.0,0,0,3.0,48.0
1480,64.0,29,31,4.0,46.0
1481,61.0,31,15,4.0,46.0
1482,75.0,0,15,2.0,65.0
1483,76.0,14,16,2.0,65.0
1484,61.0,0,15,4.0,46.0
1485,78.0,0,15,2.0,65.0
1486,69.0,16,15,3.0,48.0
1487,76.0,14,16,2.0,65.0
1488,64.0,0,15,3.0,48.0
1489,61.0,0,15,4.0,46.0
1490,81.0,16,30,2.0,65.0
1491,64.0,0,15,3.0,48.0
1492,61.0,30,15,4.0,46.0
1493,81.0,0,15,2.0,65.0
1494,61.0,30,15,4.0,46.0
1495,64.0,0,15,3.0,48.0
1496,80.0,14,16,2.0,65.0
1497,78.0,15,16,2.0,65.0
1498,64.0,1,15,3.0,48.0
1499,61.0,0,15,4.0,46.0
1500,76.0,14,16,2.0,65.0
1501,66.0,16,15,3.0,48.0
1502,62.0,0,15,4.0,46.0
1503,74.0,0,30,2.0,65.0
1504,66.0,30,15,3.0,48.0
1505,62.0,0,15,4.0,46.0
1506,33.0,0,60,6.0,64.0
1507,45.0,0,60,5.0,64.0
1508,62.0,30,15,4.0,46.0
1509,66.0,0,15,3.0,48.0
1510,73.0,0,15,2.0,65.0
1511,74.0,14,16,2.0,65.0
1512,66.0,1,15,3.0,48.0
1513,62.0,0,15,4.0,46.0
1514,76.0,15,16,2.0,65.0
1515,78.0,14,16,2.0,65.0
1516,76.0,0,15,2.0,65.0
1517,59.0,16,15,4.0,46.0
1518,68.0,0,15,3.0,48.0
1519,68.0,30,15,3.0,48.0
1520,74.0,0,15,2.0,65.0
1521,59.0,0,15,4.0,46.0
1522,59.0,0,15,4.0,46.0
1523,68.0,30,15,3.0,48.0
1524,73.0,0,15,2.0,65.0
1525,59.0,0,15,4.0,46.0
1526,71.0,30,15,2.0,65.0
1527,68.0,0,15,3.0,48.0
1528,61.0,0,15,4.0,46.0
1529,61.0,0,15,3.0,48.0
1530,52.0,30,15,4.0,46.0
1531,69.0,0,60,2.0,65.0
1532,33.0,0,60,6.0,64.0
1533,45.0,0,60,5.0,64.0
1534,52.0,0,15,4.0,46.0
1535,61.0,0,15,3.0,48.0
1536,75.0,0,15,0.0,100.0
1537,63.0,30,15,2.0,48.0
1538,76.0,1,15,0.0,100.0
1539,64.0,14,16,2.0,48.0
1540,52.0,15,15,4.0,46.0
1541,61.0,0,15,3.0,48.0
1542,78.0,0,15,0.0,100.0
1543,66.0,0,15,2.0,48.0
1544,57.0,0,60,5.0,64.0
1545,76.0,1,15,0.0,100.0
1546,64.0,14,16,2.0,48.0
1547,45.0,0,60,6.0,64.0
1548,61.0,0,15,3.0,48.0
1549,52.0,0,15,4.0,46.0
1550,81.0,0,30,0.0,100.0
1551,69.0,0,30,2.0,48.0
1552,52.0,0,15,4.0,46.0
1553,61.0,30,15,3.0,48.0
1554,45.0,0,60,5.0,64.0
1555,33.0,0,60,6.0,64.0
1556,81.0,0,15,0.0,100.0
1557,52.0,0,15,4.0,46.0
1558,61.0,0,15,3.0,48.0
1559,69.0,30,15,2.0,48.0
1560,68.0,14,16,2.0,48.0
1561,80.0,1,15,0.0,100.0
1562,61.0,0,15,3.0,48.0
1563,78.0,1,15,0.0,100.0
1564,52.0,0,15,4.0,46.0
1565,66.0,14,16,2.0,48.0
1566,76.0,1,15,0.0,100.0
1567,57.0,0,60,5.0,64.0
1568,45.0,0,60,6.0,64.0
1569,64.0,14,16,2.0,48.0
1570,57.0,0,15,3.0,48.0
1571,54.0,0,15,4.0,46.0
1572,62.0,0,30,2.0,48.0
1573,74.0,0,30,0.0,100.0
1574,54.0,30,15,4.0,46.0
1575,57.0,0,15,3.0,48.0
1576,45.0,0,60,5.0,64.0
1577,33.0,0,60,6.0,64.0
1578,61.0,0,15,2.0,48.0
1579,54.0,0,15,4.0,46.0
1580,57.0,0,15,3.0,48.0
1581,73.0,30,15,0.0,100.0
1582,74.0,1,15,0.0,100.0
1583,62.0,14,16,2.0,48.0
1584,57.0,1,15,3.0,48.0
1585,76.0,0,15,0.0,100.0
1586,64.0,14,16,2.0,48.0
1587,54.0,0,15,4.0,46.0
1588,62.0,14,16,2.0,48.0
1589,78.0,15,120,0.0,100.0
1590,74.0,1,15,0.0,100.0
1591,45.0,0,60,6.0,64.0
1592,57.0,0,60,5.0,64.0
1593,68.0,0,15,0.0,100.0
1594,71.0,0,15,0.0,100.0
1595,59.0,0,15,2.0,48.0
1596,56.0,0,15,4.0,46.0
1597,61.0,0,15,2.0,48.0
1598,69.0,30,15,0.0,100.0
1599,57.0,0,15,4.0,46.0
1600,57.0,0,15,3.0,48.0
1601,73.0,0,15,0.0,100.0
1602,45.0,0,60,5.0,64.0
1603,33.0,15,60,6.0,64.0
1604,59.0,0,15,3.0,48.0
1605,74.0,0,15,0.0,100.0
1606,62.0,0,15,2.0,48.0
1607,56.0,0,15,4.0,46.0
1608,71.0,30,15,0.0,100.0
1609,64.0,0,15,2.0,48.0
1610,76.0,0,15,0.0,100.0
1611,73.0,0,15,0.0,100.0
1612,52.0,30,15,4.0,46.0
1613,61.0,0,15,3.0,48.0
1614,57.0,0,60,5.0,64.0
1615,45.0,0,60,6.0,64.0
1616,59.0,0,30,3.0,48.0
1617,71.0,0,30,0.0,100.0
1618,74.0,0,30,0.0,100.0
1619,62.0,0,30,2.0,48.0
1620,56.0,0,30,4.0,46.0
1621,69.0,0,30,0.0,100.0
1622,73.0,1,30,0.0,100.0
1623,61.0,0,31,2.0,48.0
1624,45.0,30,60,5.0,64.0
1625,33.0,0,60,6.0,64.0
1626,57.0,0,31,3.0,48.0
1627,57.0,29,31,4.0,46.0
1628,63.0,0,15,2.0,48.0
1629,52.0,0,15,4.0,46.0
1630,61.0,0,15,3.0,48.0
1631,75.0,30,15,0.0,100.0
1632,76.0,1,15,0.0,100.0
1633,64.0,14,16,2.0,48.0
1634,52.0,0,15,4.0,46.0
1635,78.0,0,15,0.0,100.0
1636,66.0,15,15,2.0,48.0
1637,61.0,0,15,3.0,48.0
1638,57.0,0,60,5.0,64.0
1639,76.0,0,0,0.0,100.0
1640,45.0,0,60,6.0,64.0
1641,64.0,14,16,2.0,48.0
1642,61.0,15,15,3.0,48.0
1643,52.0,0,15,4.0,46.0
1644,69.0,0,30,2.0,48.0
1645,81.0,0,30,0.0,100.0
1646,61.0,30,15,3.0,48.0
1647,52.0,0,15,4.0,46.0
1648,45.0,0,60,5.0,64.0
1649,33.0,0,60,6.0,64.0
1650,52.0,30,15,4.0,46.0
1651,69.0,0,15,2.0,48.0
1652,61.0,0,15,3.0,48.0
1653,81.0,0,15,0.0,100.0
1654,80.0,1,15,0.0,100.0
1655,68.0,14,16,2.0,48.0
1656,66.0,14,16,2.0,48.0
1657,78.0,1,15,0.0,100.0
1658,61.0,0,15,3.0,48.0
1659,52.0,0,15,4.0,46.0
1660,45.0,0,60,6.0,64.0
1661,57.0,0,720,1.0,100.0
1662,76.0,1,15,0.0,100.0
1663,45.0,30,720,1.0,100.0
1664,64.0,14,16,2.0,48.0
1665,57.0,0,60,5.0,64.0
1666,57.0,0,30,3.0,48.0
1667,62.0,0,30,2.0,48.0
1668,74.0,0,30,0.0,100.0
1669,69.0,0,30,0.0,100.0
1670,71.0,0,30,0.0,100.0
1671,59.0,60,30,3.0,49.0
1672,74.0,0,30,0.0,100.0
1673,62.0,0,30,2.0,48.0
1674,54.0,15,90,4.0,46.0
1675,42.0,0,90,6.0,64.0
1676,64.0,0,16,2.0,48.0
1677,61.0,29,16,3.0,49.0
1678,73.0,0,15,0.0,100.0
1679,76.0,0,15,0.0,100.0
1680,50.0,1,30,5.0,64.0
1681,57.0,0,120,1.0,100.0
1682,62.0,14,16,3.0,49.0
1683,74.0,1,15,0.0,100.0
1684,78.0,0,15,0.0,100.0
1685,57.0,0,31,4.0,47.0
1686,38.0,0,31,6.0,64.0
1687,66.0,0,16,2.0,48.0
1688,73.0,0,15,0.0,100.0
1689,64.0,0,15,2.0,48.0
1690,61.0,15,15,3.0,49.0
1691,76.0,0,15,0.0,100.0
1692,62.0,0,15,2.0,48.0
1693,71.0,30,15,0.0,100.0
1694,74.0,0,15,0.0,100.0
1695,59.0,0,15,3.0,49.0
1696,40.0,0,60,6.0,64.0
1697,52.0,30,0,4.0,47.0
1698,69.0,0,15,0.0,100.0
1699,61.0,0,15,2.0,48.0
1700,73.0,0,15,0.0,100.0
1701,57.0,0,15,3.0,49.0
1702,68.0,1,15,0.0,100.0
1703,56.0,0,15,3.0,49.0
1704,59.0,0,15,2.0,48.0
1705,71.0,0,15,0.0,100.0
1706,50.0,29,31,4.0,47.0
1707,40.0,0,60,6.0,64.0
1708,64.0,0,120,1.0,100.0
1709,57.0,30,10,2.0,48.0
1710,59.0,20,10,2.0,48.0
1711,61.0,20,10,2.0,49.0
1712,49.0,0,60,4.0,47.0
1713,33.0,0,60,6.0,64.0
1714,57.0,0,60,1.0,100.0
1715,69.0,0,60,0.0,100.0
1716,57.0,0,60,3.0,49.0
1717,45.0,0,60,5.0,64.0
1718,62.0,20,10,2.0,49.0
1719,64.0,20,10,2.0,49.0
1720,66.0,20,10,2.0,49.0
1721,64.0,20,10,2.0,49.0
1722,66.0,20,10,2.0,49.0
1723,64.0,20,10,2.0,49.0
1724,59.0,0,10,3.0,50.0
1725,74.0,0,10,0.0,100.0
1726,71.0,0,10,0.0,100.0
1727,62.0,0,10,2.0,49.0
1728,61.0,0,10,2.0,49.0
1729,73.0,0,10,0.0,100.0
1730,69.0,0,10,0.0,100.0
1731,57.0,20,10,3.0,50.0
1732,52.0,0,45,4.0,48.0
1733,68.0,0,10,0.0,100.0
1734,71.0,20,10,0.0,100.0
1735,59.0,0,10,2.0,49.0
1736,56.0,0,10,3.0,50.0
1737,64.0,0,60,1.0,100.0
1738,40.0,20,60,6.0,64.0
1739,50.0,4,16,4.0,48.0
1740,57.0,0,10,2.0,49.0
1741,59.0,20,10,2.0,49.0
1742,61.0,20,10,2.0,49.0
1743,57.0,16,60,1.0,100.0
1744,69.0,0,60,0.0,100.0
1745,33.0,0,60,6.0,64.0
1746,45.0,0,60,5.0,64.0
1747,57.0,0,60,3.0,50.0
1748,49.0,0,60,4.0,48.0
1749,62.0,20,10,2.0,49.0
1750,64.0,20,10,2.0,49.0
1751,66.0,20,10,2.0,49.0
1752,64.0,20,10,2.0,49.0
1753,66.0,20,10,2.0,49.0
1754,64.0,20,10,2.0,49.0
1755,59.0,0,10,3.0,51.0
1756,62.0,0,10,2.0,49.0
1757,71.0,20,10,0.0,100.0
1758,74.0,0,10,0.0,100.0
1759,69.0,20,10,0.0,100.0
1760,73.0,0,10,0.0,100.0
1761,57.0,0,10,3.0,51.0
1762,61.0,0,10,2.0,49.0
1763,52.0,0,45,4.0,48.0
1764,68.0,0,10,0.0,100.0
1765,71.0,0,10,0.0,100.0
1766,59.0,0,10,2.0,49.0
1767,56.0,20,10,3.0,51.0
1768,64.0,0,60,1.0,100.0
1769,40.0,0,60,6.0,64.0
1770,50.0,4,16,4.0,48.0
1771,57.0,0,10,2.0,49.0
1772,59.0,20,10,2.0,49.0
1773,61.0,20,10,2.0,49.0
1774,69.0,0,60,0.0,100.0
1775,49.0,0,60,4.0,48.0
1776,57.0,0,60,1.0,100.0
1777,33.0,0,60,6.0,64.0
1778,57.0,0,60,3.0,51.0
1779,45.0,16,60,5.0,64.0
1780,62.0,20,10,2.0,49.0
1781,64.0,20,10,2.0,49.0
1782,66.0,20,10,2.0,49.0
1783,67.0,20,10,2.0,49.0
1784,64.0,20,10,2.0,50.0
1785,62.0,20,10,2.0,51.0
1786,61.0,20,10,2.0,52.0
1787,59.0,20,10,2.0,53.0
1788,57.0,20,10,2.0,54.0
1789,62.0,20,10,2.0,55.0
1790,66.0,20,10,2.0,56.0
1791,69.0,20,10,2.0,57.0
1792,74.0,20,10,2.0,58.0
1793,76.0,20,10,2.0,59.0
1794,78.0,20,10,2.0,60.0
1795,79.0,20,10,2.0,61.0
1796,76.0,20,10,2.0,62.0
1797,74.0,20,10,2.0,62.0
1798,73.0,20,10,2.0,63.0
1799,71.0,20,10,2.0,64.0
1800,69.0,20,10,2.0,64.0
1801,66.0,0,10,3.0,64.0
1802,69.0,20,10,3.0,64.0
1803,67.0,20,10,3.0,64.0
1804,72.0,20,60,2.0,63.0
1805,60.0,0,8,2.0,71.0
1806,66.0,0,10,3.0,64.0
1807,62.0,7,8,2.0,71.0
1808,45.0,20,30,6.0,63.0
1809,64.0,6,10,3.0,64.0
1810,57.0,0,30,5.0,64.0
1811,62.0,20,10,3.0,64.0
1812,59.0,4,9,2.0,71.0
1813,60.0,8,3,2.0,71.0
1814,60.0,0,8,2.0,71.0
1815,69.0,0,10,3.0,64.0
1816,62.0,7,8,2.0,71.0
1817,42.0,8,30,6.0,63.0
1818,54.0,0,30,5.0,64.0
1819,66.0,6,10,3.0,64.0
1820,62.0,20,10,3.0,64.0
1821,59.0,4,9,2.0,71.0
1822,60.0,8,3,2.0,71.0
1823,60.0,0,8,2.0,71.0
1824,69.0,8,10,3.0,64.0
1825,62.0,0,10,4.0,64.0
1826,62.0,7,8,2.0,71.0
1827,38.0,0,30,6.0,63.0
1828,50.0,0,30,5.0,64.0
1829,66.0,6,10,3.0,64.0
1830,57.0,0,10,4.0,64.0
1831,54.0,20,10,4.0,64.0
1832,62.0,0,10,3.0,64.0
1833,59.0,4,9,2.0,71.0
1834,60.0,8,3,2.0,71.0
1835,67.0,0,10,3.0,64.0
1836,62.0,20,10,3.0,64.0
1837,60.0,20,10,3.0,64.0
1838,59.0,7,61,2.0,71.0
1839,55.0,1,60,4.0,64.0
1840,59.0,0,10,3.0,64.0
1841,57.0,20,10,3.0,64.0
1842,43.0,0,30,6.0,63.0
1843,55.0,20,30,5.0,64.0
1844,55.0,20,10,3.0,64.0
1845,62.0,0,10,3.0,64.0
1846,59.0,0,30,5.0,64.0
1847,47.0,20,30,6.0,63.0
1848,59.0,20,10,3.0,64.0
1849,55.0,20,10,3.0,64.0
1850,74.0,0,120,2.0,71.0
1851,62.0,0,10,3.0,64.0
1852,59.0,0,10,4.0,64.0
1853,43.0,1,30,6.0,63.0
1854,55.0,0,30,5.0,64.0
1855,59.0,20,10,3.0,64.0
1856,55.0,0,10,4.0,64.0
1857,55.0,20,10,3.0,64.0
1858,50.0,0,10,4.0,64.0
1859,71.0,19,61,2.0,71.0
1860,62.0,20,10,3.0,64.0
1861,69.0,20,10,3.0,64.0
1862,67.0,20,10,3.0,64.0
1863,72.0,0,60,2.0,71.0
1864,54.0,0,60,4.0,64.0
1865,60.0,20,8,2.0,71.0
1866,66.0,0,10,3.0,64.0
1867,62.0,7,8,2.0,71.0
1868,45.0,0,30,6.0,63.0
1869,64.0,6,10,3.0,64.0
1870,57.0,0,30,5.0,64.0
1871,62.0,20,10,3.0,64.0
1872,59.0,4,9,2.0,71.0
1873,60.0,8,3,2.0,71.0
1874,60.0,0,0,2.0,71.0
1875,69.0,0,10,3.0,64.0
1876,62.0,7,8,2.0,71.0
1877,54.0,0,30,5.0,64.0
1878,66.0,6,10,3.0,64.0
1879,42.0,8,30,6.0,63.0
1880,62.0,20,10,3.0,64.0
1881,59.0,4,9,2.0,71.0
1882,60.0,8,3,2.0,71.0
1883,60.0,0,8,2.0,71.0
1884,62.0,0,10,4.0,64.0
1885,69.0,8,10,3.0,64.0
1886,62.0,7,8,2.0,71.0
1887,66.0,0,10,3.0,64.0
1888,57.0,6,10,4.0,64.0
1889,38.0,0,30,6.0,63.0
1890,50.0,0,30,5.0,64.0
1891,62.0,0,10,3.0,64.0
1892,54.0,20,10,4.0,64.0
1893,59.0,4,9,2.0,71.0
1894,60.0,8,3,2.0,71.0
1895,67.0,0,10,3.0,64.0
1896,62.0,20,10,3.0,64.0
1897,60.0,20,10,3.0,64.0
1898,55.0,8,60,4.0,64.0
1899,59.0,0,60,2.0,71.0
1900,59.0,20,10,3.0,64.0
1901,55.0,0,30,5.0,64.0
1902,57.0,20,10,3.0,64.0
1903,43.0,0,30,6.0,63.0
1904,55.0,20,10,3.0,64.0
1905,62.0,20,10,3.0,64.0
1906,59.0,0,30,5.0,64.0
1907,59.0,20,10,3.0,64.0
1908,47.0,0,30,6.0,63.0
1909,55.0,20,10,3.0,64.0
1910,74.0,0,120,2.0,71.0
1911,62.0,1,10,3.0,64.0
1912,59.0,0,10,4.0,64.0
1913,55.0,0,10,4.0,64.0
1914,55.0,0,30,5.0,64.0
1915,59.0,20,10,3.0,64.0
1916,43.0,0,30,6.0,63.0
1917,55.0,20,10,3.0,64.0
1918,50.0,0,10,4.0,64.0
1919,71.0,19,61,2.0,71.0
1920,50.0,0,960,1.0,100.0
1921,62.0,0,960,1.0,100.0
1922,59.0,0,10,3.0,64.0
1923,66.0,20,10,3.0,64.0
1924,64.0,20,10,3.0,64.0
1925,69.0,0,60,2.0,71.0
1926,51.0,20,60,4.0,64.0
1927,57.0,0,8,2.0,71.0
1928,63.0,20,10,3.0,64.0
1929,59.0,7,8,2.0,71.0
1930,42.0,0,30,6.0,63.0
1931,54.0,0,30,5.0,64.0
1932,61.0,6,10,3.0,64.0
1933,59.0,20,10,3.0,64.0
1934,55.0,4,9,2.0,71.0
1935,57.0,8,3,2.0,71.0
1936,57.0,0,8,2.0,71.0
1937,66.0,0,10,3.0,64.0
1938,59.0,7,8,2.0,71.0
1939,63.0,6,10,3.0,64.0
1940,39.0,8,30,6.0,63.0
1941,51.0,0,30,5.0,64.0
1942,59.0,20,10,3.0,64.0
1943,55.0,4,9,2.0,72.0
1944,57.0,8,3,2.0,72.0
1945,57.0,8,8,2.0,72.0
1946,59.0,0,10,4.0,64.0
1947,66.0,0,10,3.0,64.0
1948,59.0,7,8,2.0,72.0
1949,63.0,6,10,3.0,64.0
1950,35.0,0,30,6.0,63.0
1951,47.0,0,30,5.0,64.0
1952,54.0,0,10,4.0,64.0
1953,59.0,0,10,3.0,64.0
1954,51.0,20,10,4.0,64.0
1955,55.0,4,9,2.0,72.0
1956,57.0,8,3,2.0,72.0
1957,64.0,0,10,3.0,64.0
1958,71.0,20,10,3.0,64.0
1959,69.0,20,10,3.0,64.0
1960,55.0,7,61,2.0,72.0
1961,52.0,1,60,4.0,64.0
1962,67.0,20,10,3.0,64.0
1963,52.0,0,30,5.0,64.0
1964,66.0,20,10,3.0,64.0
1965,40.0,0,30,6.0,63.0
1966,64.0,20,10,3.0,64.0
1967,64.0,20,10,3.0,64.0
1968,55.0,0,30,5.0,64.0
1969,59.0,20,10,3.0,64.0
1970,43.0,0,30,6.0,63.0
1971,55.0,20,10,3.0,64.0
1972,71.0,0,120,2.0,72.0
1973,59.0,0,10,4.0,64.0
1974,64.0,0,10,3.0,64.0
1975,55.0,20,10,4.0,64.0
1976,52.0,1,30,5.0,64.0
1977,40.0,0,30,6.0,63.0
1978,59.0,0,10,3.0,64.0
1979,55.0,0,10,3.0,64.0
1980,52.0,20,10,4.0,64.0
1981,67.0,19,61,2.0,72.0
1982,59.0,0,10,3.0,64.0
1983,66.0,20,10,3.0,64.0
1984,64.0,20,10,3.0,64.0
1985,51.0,0,60,4.0,64.0
1986,69.0,20,60,2.0,72.0
1987,57.0,0,8,2.0,72.0
1988,63.0,20,10,3.0,64.0
1989,59.0,7,8,2.0,72.0
1990,54.0,0,30,5.0,64.0
1991,42.0,0,30,6.0,63.0
1992,61.0,6,10,3.0,64.0
1993,59.0,20,10,3.0,64.0
1994,55.0,4,9,2.0,72.0
1995,57.0,8,3,2.0,72.0
1996,57.0,0,8,2.0,72.0
1997,66.0,0,10,3.0,64.0
1998,59.0,7,8,2.0,72.0
1999,51.0,8,30,5.0,64.0
2000,39.0,0,30,6.0,63.0
2001,63.0,6,10,3.0,64.0
2002,59.0,20,10,3.0,64.0
2003,55.0,4,9,2.0,72.0
2004,57.0,8,3,2.0,72.0
2005,57.0,0,0,2.0,72.0
2006,59.0,8,10,4.0,64.0
2007,66.0,0,10,3.0,64.0
2008,59.0,7,8,2.0,72.0
2009,54.0,0,10,4.0,64.0
2010,47.0,0,30,5.0,64.0
2011,35.0,0,30,6.0,63.0
2012,63.0,6,10,3.0,64.0
2013,59.0,0,10,3.0,64.0
2014,51.0,20,10,4.0,64.0
2015,55.0,4,9,2.0,72.0
2016,57.0,8,3,2.0,72.0
2017,55.0,8,20,2.0,72.0
2018,71.0,19,11,2.0,65.0
2019,71.0,21,10,2.0,65.0
2020,59.0,0,60,3.0,64.0
2021,40.0,0,60,6.0,63.0
2022,71.0,0,780,0.0,100.0
2023,52.0,0,60,4.0,64.0
2024,83.0,0,780,0.0,100.0
2025,71.0,20,10,2.0,65.0
2026,71.0,20,10,2.0,65.0
2027,71.0,20,10,2.0,65.0
2028,55.0,0,20,3.0,64.0
2029,71.0,0,20,2.0,65.0
2030,67.0,0,11,3.0,64.0
2031,70.0,19,11,2.0,65.0
2032,67.0,0,10,3.0,64.0
2033,70.0,21,10,2.0,65.0
2034,37.0,0,60,6.0,63.0
2035,64.0,20,60,4.0,64.0
2036,49.0,0,60,5.0,64.0
2037,67.0,20,10,3.0,64.0
2038,70.0,0,10,2.0,64.0
2039,70.0,20,10,2.0,64.0
2040,67.0,0,10,3.0,64.0
2041,67.0,20,10,3.0,64.0
2042,70.0,0,10,2.0,64.0
2043,67.0,0,20,3.0,64.0
2044,70.0,20,20,2.0,64.0
2045,69.0,0,11,2.0,64.0
2046,66.0,19,11,3.0,64.0
2047,69.0,0,10,2.0,64.0
2048,66.0,21,10,3.0,64.0
2049,50.0,0,60,5.0,64.0
2050,38.0,0,60,6.0,63.0
2051,62.0,0,60,4.0,64.0
2052,69.0,0,10,2.0,64.0
2053,66.0,20,10,3.0,64.0
2054,69.0,20,10,2.0,64.0
2055,66.0,0,10,3.0,64.0
2056,69.0,20,10,2.0,64.0
2057,66.0,0,10,3.0,64.0
2058,66.0,0,20,3.0,64.0
2059,69.0,20,20,2.0,64.0
2060,65.0,1,10,3.0,64.0
2061,68.0,19,11,2.0,64.0
2062,68.0,0,10,2.0,64.0
2063,65.0,20,10,3.0,64.0
2064,35.0,0,60,6.0,63.0
2065,62.0,0,60,4.0,64.0
2066,47.0,0,60,5.0,64.0
2067,68.0,0,10,2.0,64.0
2068,65.0,20,10,3.0,64.0
2069,68.0,0,10,2.0,64.0
2070,65.0,20,10,3.0,64.0
2071,65.0,0,10,3.0,64.0
2072,68.0,20,10,2.0,64.0
2073,65.0,20,20,3.0,64.0
2074,68.0,0,20,2.0,64.0
2075,64.0,0,11,3.0,64.0
2076,67.0,19,11,2.0,64.0
2077,64.0,21,10,3.0,64.0
2078,67.0,0,10,2.0,64.0
2079,49.0,0,60,5.0,64.0
2080,37.0,0,60,6.0,63.0
2081,57.0,0,60,4.0,64.0
2082,67.0,0,10,2.0,64.0
2083,64.0,20,10,3.0,64.0
2084,64.0,20,10,3.0,64.0
2085,67.0,0,10,2.0,64.0
2086,64.0,0,10,3.0,64.0
2087,67.0,20,10,2.0,64.0
2088,67.0,0,20,2.0,64.0
2089,64.0,0,20,3.0,64.0
2090,62.0,0,11,3.0,64.0
2091,66.0,19,11,2.0,64.0
2092,66.0,21,10,2.0,64.0
2093,62.0,0,10,3.0,64.0
2094,50.0,20,60,5.0,64.0
2095,57.0,0,60,4.0,64.0
2096,38.0,0,60,6.0,63.0
2097,62.0,20,10,3.0,64.0
2098,66.0,0,20,2.0,64.0
2099,62.0,1,10,3.0,64.0
2100,65.0,19,11,2.0,64.0
2101,62.0,20,10,3.0,64.0
2102,65.0,0,10,2.0,64.0
2103,64.0,0,10,2.0,64.0
2104,69.0,20,10,2.0,64.0
2105,69.0,20,10,2.0,64.0
2106,61.0,20,60,3.0,64.0
2107,33.0,0,60,6.0,63.0
2108,45.0,0,60,5.0,64.0
2109,69.0,20,10,2.0,64.0
2110,69.0,20,10,2.0,64.0
2111,69.0,20,10,2.0,64.0
2112,57.0,0,60,4.0,64.0
2113,45.0,0,60,6.0,63.0
2114,69.0,0,10,2.0,64.0
2115,71.0,20,10,2.0,64.0
2116,57.0,0,10,3.0,64.0
2117,57.0,20,10,3.0,64.0
2118,73.0,0,10,2.0,64.0
2119,54.0,20,60,4.0,64.0
2120,42.0,0,60,6.0,63.0
2121,57.0,0,10,3.0,64.0
2122,74.0,0,10,2.0,64.0
2123,57.0,0,10,3.0,64.0
2124,73.0,20,10,2.0,64.0
2125,71.0,0,10,2.0,64.0
2126,57.0,20,10,3.0,64.0
2127,50.0,20,60,4.0,64.0
2128,38.0,0,60,6.0,63.0
2129,57.0,0,10,3.0,64.0
2130,73.0,0,10,2.0,64.0
2131,69.0,0,10,2.0,64.0
2132,59.0,20,10,3.0,64.0
2133,69.0,20,10,2.0,64.0
2134,61.0,0,10,3.0,64.0
2135,33.0,0,60,6.0,63.0
2136,45.0,20,60,5.0,64.0
2137,62.0,0,10,3.0,64.0
2138,69.0,0,10,2.0,64.0
2139,61.0,20,10,3.0,64.0
2140,69.0,0,10,2.0,64.0
2141,69.0,0,10,2.0,64.0
2142,59.0,20,10,3.0,64.0
2143,57.0,20,60,4.0,64.0
2144,45.0,0,60,6.0,63.0
2145,69.0,0,10,2.0,64.0
2146,61.0,20,10,3.0,64.0
2147,71.0,0,10,2.0,64.0
2148,57.0,20,10,3.0,64.0
2149,73.0,20,10,2.0,64.0
2150,57.0,0,10,3.0,64.0
2151,42.0,0,60,6.0,63.0
2152,54.0,0,60,4.0,64.0
2153,57.0,20,10,3.0,64.0
2154,74.0,0,10,2.0,64.0
2155,57.0,0,10,3.0,64.0
2156,73.0,20,10,2.0,64.0
2157,57.0,20,10,3.0,64.0
2158,71.0,0,10,2.0,64.0
2159,38.0,0,60,6.0,63.0
2160,50.0,0,60,4.0,64.0
2161,76.0,0,30,0.0,100.0
2162,64.0,0,30,1.0,100.0
2163,57.0,20,30,1.0,100.0
2164,73.0,0,30,0.0,100.0
2165,45.0,0,60,5.0,64.0
2166,57.0,0,60,3.0,64.0
2167,33.0,0,60,6.0,63.0
2168,73.0,0,60,2.0,64.0
2169,76.0,0,45,0.0,100.0
2170,64.0,0,45,1.0,100.0
2171,67.0,60,45,1.0,100.0
2172,79.0,0,45,0.0,100.0
2173,62.0,15,0,1.0,100.0
2174,66.0,0,15,1.0,100.0
2175,78.0,0,15,0.0,100.0
2176,74.0,45,15,0.0,100.0
2177,78.0,0,30,0.0,100.0
2178,74.0,0,30,0.0,100.0
2179,66.0,0,30,1.0,100.0
2180,83.0,0,45,0.0,100.0
2181,79.0,0,45,0.0,100.0
2182,71.0,60,45,1.0,100.0
2183,67.0,0,45,1.0,100.0
2184,78.0,0,0,0.0,100.0
2185,66.0,0,15,1.0,100.0
2186,81.0,15,0,0.0,100.0
2187,69.0,0,0,1.0,100.0
2188,66.0,0,90,1.0,100.0
2189,76.0,0,30,0.0,100.0
2190,79.0,0,30,0.0,100.0
2191,67.0,90,30,1.0,100.0
2192,64.0,0,30,1.0,100.0
2193,74.0,0,60,0.0,100.0
2194,62.0,0,60,1.0,100.0
2195,66.0,0,60,1.0,100.0
2196,78.0,30,60,0.0,100.0
2197,73.0,0,6,0.0,100.0
2198,76.0,60,6,0.0,100.0
2199,78.0,6,6,0.0,100.0
2200,74.0,0,6,0.0,100.0
2201,76.0,0,6,0.0,100.0
2202,73.0,6,6,0.0,100.0
2203,78.0,0,6,0.0,100.0
2204,74.0,6,6,0.0,100.0
2205,57.0,0,60,1.0,100.0
2206,64.0,0,60,1.0,100.0
2207,76.0,0,36,0.0,100.0
2208,73.0,6,36,0.0,100.0
2209,54.0,0,60,1.0,100.0
2210,62.0,0,60,1.0,100.0
2211,74.0,0,60,0.0,100.0
2212,74.0,36,105,2.0,64.0
2213,42.0,60,60,6.0,63.0
2214,69.0,44,16,2.0,64.0
2215,54.0,0,60,5.0,64.0
2216,50.0,0,60,5.0,64.0
2217,38.0,0,60,6.0,63.0
2218,57.0,0,120,3.0,64.0
2219,66.0,16,105,2.0,64.0
2220,54.0,60,60,5.0,64.0
2221,69.0,44,16,2.0,64.0
2222,57.0,0,60,4.0,64.0
2223,42.0,0,60,6.0,63.0
2224,59.0,0,60,4.0,64.0
2225,40.0,0,60,6.0,63.0
2226,62.0,0,120,3.0,64.0
2227,52.0,16,60,5.0,64.0
2228,67.0,0,105,2.0,64.0
2229,55.0,0,60,5.0,64.0
2230,64.0,44,16,2.0,64.0
2231,43.0,1,60,6.0,63.0
2232,59.0,59,61,3.0,64.0
2233,45.0,16,60,5.0,64.0
2234,33.0,0,60,6.0,63.0
2235,64.0,0,120,4.0,64.0
2236,57.0,0,105,3.0,64.0
2237,61.0,0,105,2.0,64.0
2238,43.0,60,60,6.0,63.0
2239,55.0,0,60,5.0,64.0
2240,64.0,0,16,2.0,64.0
2241,45.0,16,0,4.0,64.0
2242,61.0,44,16,3.0,64.0
2243,54.0,0,60,5.0,64.0
2244,42.0,0,60,6.0,63.0
2245,57.0,0,105,2.0,64.0
2246,38.0,0,60,6.0,63.0
2247,62.0,0,120,3.0,64.0
2248,50.0,60,60,5.0,63.0
2249,66.0,44,16,2.0,64.0
2250,37.0,1,60,6.0,63.0
2251,49.0,0,60,5.0,63.0
2252,67.0,0,105,2.0,64.0
2253,61.0,0,60,5.0,63.0
2254,64.0,15,121,3.0,64.0
2255,49.0,60,60,6.0,63.0
2256,64.0,44,16,2.0,64.0
2257,66.0,16,45,2.0,64.0
2258,62.0,44,16,2.0,64.0
2259,38.0,0,60,6.0,63.0
2260,50.0,0,60,5.0,63.0
2261,62.0,0,60,3.0,64.0
2262,67.0,0,45,2.0,64.0
2263,64.0,0,45,3.0,64.0
2264,43.0,16,60,6.0,63.0
2265,66.0,44,16,2.0,64.0
2266,59.0,0,60,4.0,64.0
2267,55.0,0,60,5.0,63.0
2268,62.0,0,16,3.0,64.0
2269,61.0,0,30,3.0,64.0
2270,64.0,0,30,2.0,64.0
2271,45.0,16,30,6.0,63.0
2272,57.0,0,30,5.0,63.0
2273,55.0,0,30,5.0,63.0
2274,59.0,30,30,4.0,64.0
2275,43.0,0,30,6.0,63.0
2276,42.0,30,30,6.0,63.0
2277,57.0,0,30,4.0,64.0
2278,54.0,0,30,5.0,63.0
2279,52.0,0,30,5.0,63.0
2280,69.0,15,15,3.0,64.0
2281,55.0,0,30,4.0,64.0
2282,40.0,30,30,6.0,63.0
2283,81.0,30,15,2.0,64.0
2284,54.0,0,60,4.0,64.0
2285,38.0,0,60,6.0,63.0
2286,50.0,15,60,5.0,63.0
2287,81.0,30,15,2.0,64.0
2288,74.0,0,105,3.0,64.0
2289,81.0,30,15,2.0,64.0
2290,66.0,0,60,4.0,64.0
2291,50.0,0,60,6.0,63.0
2292,62.0,0,60,5.0,63.0
2293,69.0,14,16,3.0,64.0
2294,81.0,16,30,2.0,64.0
2295,83.0,30,15,2.0,64.0
2296,85.0,14,16,2.0,64.0
2297,86.0,0,15,2.0,64.0
2298,85.0,14,16,2.0,64.0
2299,66.0,0,105,3.0,64.0
2300,83.0,16,15,2.0,64.0
2301,50.0,0,60,5.0,63.0
2302,38.0,16,60,6.0,63.0
2303,69.0,14,16,3.0,64.0
2304,57.0,0,60,4.0,64.0
2305,81.0,0,16,2.0,64.0
2306,79.0,0,15,2.0,64.0
2307,79.0,30,15,2.0,64.0
2308,79.0,0,15,2.0,64.0
2309,79.0,30,15,2.0,64.0
2310,67.0,16,105,3.0,64.0
2311,64.0,14,16,3.0,64.0
2312,52.0,0,60,5.0,63.0
2313,40.0,0,60,6.0,63.0
2314,61.0,30,60,4.0,64.0
2315,79.0,0,30,2.0,64.0
2316,78.0,30,15,2.0,64.0
2317,76.0,14,16,2.0,64.0
2318,74.0,16,15,2.0,64.0
2319,73.0,14,16,2.0,64.0
2320,71.0,16,15,2.0,64.0
2321,61.0,16,105,3.0,64.0
2322,33.0,0,60,6.0,63.0
2323,55.0,0,60,4.0,64.0
2324,69.0,0,0,2.0,64.0
2325,64.0,0,16,3.0,64.0
2326,45.0,0,60,5.0,63.0
2327,74.0,30,15,2.0,64.0
2328,74.0,30,15,2.0,64.0
2329,62.0,16,105,3.0,64.0
2330,74.0,30,15,2.0,64.0
2331,50.0,0,60,5.0,63.0
2332,60.0,0,60,4.0,64.0
2333,66.0,14,16,3.0,64.0
2334,38.0,0,60,6.0,63.0
2335,74.0,16,30,2.0,64.0
2336,76.0,30,15,2.0,64.0
2337,78.0,14,16,2.0,64.0
2338,79.0,0,15,2.0,64.0
2339,78.0,14,16,2.0,64.0
2340,76.0,16,15,2.0,64.0
2341,67.0,0,105,3.0,64.0
2342,55.0,16,60,5.0,63.0
2343,74.0,0,16,2.0,64.0
2344,43.0,0,60,6.0,63.0
2345,59.0,0,60,4.0,64.0
2346,71.0,14,16,3.0,64.0
2347,72.0,0,15,2.0,64.0
2348,72.0,30,15,2.0,64.0
2349,72.0,0,15,2.0,64.0
2350,64.0,16,105,3.0,64.0
2351,72.0,30,15,2.0,64.0
2352,57.0,30,60,5.0,63.0
2353,60.0,0,60,4.0,64.0
2354,45.0,0,60,6.0,63.0
2355,67.0,14,16,3.0,64.0
2356,72.0,0,30,2.0,64.0
2357,71.0,30,15,2.0,64.0
2358,69.0,14,16,2.0,64.0
2359,67.0,0,15,2.0,64.0
2360,66.0,14,16,2.0,64.0
2361,64.0,16,15,2.0,64.0
2362,66.0,16,105,3.0,64.0
2363,69.0,14,16,3.0,64.0
2364,50.0,0,60,5.0,63.0
2365,62.0,0,16,2.0,64.0
2366,60.0,0,60,4.0,64.0
2367,38.0,16,60,6.0,63.0
2368,67.0,16,45,3.0,64.0
2369,59.0,0,45,4.0,64.0
2370,43.0,0,60,6.0,63.0
2371,55.0,44,16,4.0,64.0
2372,55.0,0,60,5.0,63.0
2373,71.0,0,16,3.0,64.0
2374,69.0,0,46,3.0,64.0
2375,54.0,15,46,4.0,64.0
2376,72.0,0,16,3.0,64.0
2377,57.0,45,16,4.0,64.0
2378,71.0,16,45,3.0,64.0
2379,55.0,0,45,4.0,64.0
2380,74.0,44,16,3.0,64.0
2381,59.0,0,16,4.0,64.0
2382,72.0,0,46,3.0,64.0
2383,57.0,15,46,4.0,64.0
2384,69.0,45,16,3.0,64.0
2385,54.0,0,16,4.0,64.0
2386,71.0,16,45,3.0,64.0
2387,62.0,0,45,4.0,64.0
2388,67.0,0,16,3.0,64.0
2389,59.0,44,16,4.0,64.0
2390,60.0,15,46,4.0,64.0
2391,69.0,0,46,3.0,64.0
2392,57.0,0,16,4.0,64.0
2393,62.0,0,360,2.0,64.0
2394,50.0,0,60,5.0,63.0
2395,66.0,44,16,3.0,64.0
2396,38.0,1,60,6.0,63.0
2397,59.0,16,30,4.0,64.0
2398,67.0,0,30,3.0,64.0
2399,43.0,0,60,5.0,63.0
2400,31.0,0,60,6.0,63.0
2401,86.0,15,0,2.0,45.0
2402,59.0,45,15,3.0,64.0
2403,64.0,14,46,3.0,64.0
2404,55.0,0,45,4.0,64.0
2405,67.0,44,16,3.0,64.0
2406,52.0,0,16,4.0,64.0
2407,66.0,1,45,3.0,64.0
2408,51.0,15,46,4.0,64.0
2409,54.0,44,16,4.0,64.0
2410,69.0,0,16,3.0,64.0
2411,67.0,0,45,3.0,64.0
2412,52.0,16,45,4.0,64.0
2413,55.0,44,16,4.0,64.0
2414,71.0,0,16,3.0,64.0
2415,54.0,0,46,4.0,64.0
2416,69.0,15,46,3.0,64.0
2417,66.0,0,16,3.0,64.0
2418,57.0,45,16,4.0,64.0
2419,67.0,16,45,3.0,64.0
2420,59.0,0,45,4.0,64.0
2421,55.0,0,16,4.0,64.0
2422,64.0,44,16,3.0,64.0
2423,57.0,0,46,4.0,64.0
2424,66.0,15,46,3.0,64.0
2425,63.0,44,16,3.0,64.0
2426,71.0,1,360,2.0,45.0
2427,54.0,0,16,4.0,64.0
2428,47.0,0,60,5.0,63.0
2429,35.0,1,60,6.0,63.0
2430,55.0,0,30,4.0,64.0
2431,64.0,16,30,3.0,64.0
2432,28.0,0,60,6.0,63.0
2433,83.0,15,0,2.0,45.0
2434,40.0,0,60,5.0,63.0
2435,57.0,45,15,3.0,64.0
2436,54.0,0,45,4.0,64.0
2437,62.0,15,45,3.0,64.0
2438,62.0,44,16,4.0,64.0
2439,66.0,0,16,3.0,64.0
2440,61.0,0,46,4.0,64.0
2441,64.0,15,46,3.0,64.0
2442,64.0,45,16,4.0,64.0
2443,67.0,0,16,3.0,64.0
2444,62.0,0,45,4.0,64.0
2445,66.0,16,45,3.0,64.0
2446,69.0,0,16,3.0,64.0
2447,66.0,44,16,4.0,64.0
2448,67.0,0,46,3.0,64.0
2449,64.0,15,46,4.0,64.0
2450,61.0,0,16,4.0,64.0
2451,64.0,45,16,3.0,64.0
2452,62.0,16,45,4.0,64.0
2453,66.0,0,45,3.0,64.0
2454,54.0,0,16,4.0,64.0
2455,62.0,44,16,3.0,64.0
2456,55.0,15,46,4.0,64.0
2457,64.0,0,46,3.0,64.0
2458,45.0,1,60,6.0,63.0
2459,52.0,44,16,4.0,64.0
2460,57.0,0,60,5.0,63.0
2461,61.0,0,16,3.0,64.0
2462,69.0,0,390,2.0,45.0
2463,71.0,30,8,2.0,48.0
2464,73.0,15,8,2.0,50.0
2465,62.0,0,60,3.0,64.0
2466,54.0,0,60,4.0,64.0
2467,38.0,16,60,6.0,63.0
2468,50.0,0,60,5.0,63.0
2469,74.0,15,8,2.0,52.0
2470,76.0,15,8,2.0,54.0
2471,78.0,15,8,2.0,57.0
2472,79.0,0,8,2.0,59.0
2473,57.0,15,15,3.0,64.0
2474,62.0,0,45,3.0,64.0
2475,54.0,0,45,4.0,64.0
2476,66.0,44,16,3.0,64.0
2477,62.0,0,16,4.0,64.0
2478,69.0,0,60,0.0,100.0
2479,74.0,0,60,0.0,100.0
2480,54.0,15,60,1.0,100.0
2481,62.0,0,60,1.0,100.0
2482,61.0,15,46,4.0,64.0
2483,64.0,0,46,3.0,64.0
2484,64.0,0,16,4.0,64.0
2485,76.0,0,60,0.0,100.0
2486,73.0,0,60,0.0,100.0
2487,57.0,0,60,1.0,100.0
2488,64.0,1,60,1.0,100.0
2489,67.0,44,16,3.0,64.0
2490,62.0,16,45,4.0,64.0
2491,66.0,0,45,3.0,64.0
2492,78.0,0,60,0.0,100.0
2493,66.0,44,16,4.0,64.0
2494,62.0,0,60,1.0,100.0
2495,66.0,0,60,1.0,100.0
2496,74.0,0,60,0.0,100.0
2497,69.0,0,16,3.0,64.0
2498,67.0,0,46,3.0,64.0
2499,64.0,15,46,4.0,64.0
2500,61.0,44,16,4.0,64.0
2501,76.0,1,60,0.0,100.0
2502,79.0,0,60,0.0,100.0
2503,64.0,0,16,3.0,64.0
2504,67.0,0,60,1.0,100.0
2505,64.0,0,60,1.0,100.0
2506,62.0,0,45,4.0,64.0
2507,66.0,0,45,3.0,64.0
2508,66.0,0,60,1.0,100.0
2509,62.0,0,16,3.0,64.0
2510,57.0,44,16,4.0,64.0
2511,62.0,0,60,1.0,100.0
2512,78.0,0,60,0.0,100.0
2513,74.0,16,60,0.0,100.0
2514,55.0,0,46,4.0,64.0
2515,64.0,15,46,3.0,64.0
2516,73.0,0,60,0.0,100.0
2517,52.0,44,16,4.0,64.0
2518,45.0,0,60,5.0,63.0
2519,61.0,0,16,3.0,64.0
2520,33.0,1,60,6.0,63.0
2521,57.0,0,60,1.0,100.0
2522,64.0,0,60,1.0,100.0
2523,76.0,0,60,0.0,100.0
2524,81.0,0,405,2.0,61.0
2525,78.0,44,9,2.0,66.0
2526,54.0,0,60,1.0,100.0
2527,62.0,0,60,1.0,100.0
2528,50.0,0,60,5.0,63.0
2529,54.0,16,60,4.0,64.0
2530,38.0,0,60,6.0,63.0
2531,62.0,0,60,3.0,64.0
2532,74.0,0,60,0.0,100.0
2533,78.0,16,30,2.0,66.0
2534,78.0,45,8,2.0,66.0
2535,54.0,14,46,4.0,64.0
2536,62.0,0,45,3.0,51.0
2537,50.0,1,15,4.0,64.0
2538,59.0,44,16,3.0,51.0
2539,71.0,0,60,0.0,100.0
2540,74.0,0,60,0.0,100.0
2541,52.0,14,46,4.0,64.0
2542,61.0,0,46,3.0,51.0
2543,70.0,0,60,0.0,100.0
2544,73.0,1,60,0.0,100.0
2545,49.0,44,16,4.0,64.0
2546,42.0,0,60,5.0,63.0
2547,30.0,0,60,6.0,63.0
2548,58.0,0,16,3.0,51.0
2549,59.0,0,30,3.0,51.0
2550,50.0,16,30,4.0,64.0
2551,78.0,1,165,2.0,66.0
2552,74.0,44,9,2.0,66.0
2553,71.0,0,60,0.0,100.0
2554,66.0,0,180,1.0,100.0
2555,54.0,0,180,1.0,100.0
2556,47.0,0,60,5.0,63.0
2557,35.0,0,60,6.0,63.0
2558,74.0,16,30,2.0,66.0
2559,74.0,45,8,2.0,66.0
2560,62.0,15,45,4.0,64.0
2561,71.0,0,45,3.0,52.0
2562,67.0,44,16,3.0,52.0
2563,83.0,0,60,0.0,100.0
2564,74.0,0,60,0.0,100.0
2565,59.0,0,16,4.0,64.0
2566,60.0,0,46,4.0,64.0
2567,69.0,15,46,3.0,52.0
2568,66.0,0,16,3.0,52.0
2569,50.0,1,60,5.0,63.0
2570,38.0,0,60,6.0,63.0
2571,57.0,44,16,4.0,64.0
2572,81.0,0,60,0.0,100.0
2573,72.0,0,60,0.0,100.0
2574,67.0,16,30,3.0,52.0
2575,59.0,0,30,4.0,64.0
2576,74.0,0,165,2.0,66.0
2577,55.0,0,60,5.0,63.0
2578,43.0,0,60,6.0,63.0
2579,62.0,0,180,1.0,100.0
2580,50.0,0,180,1.0,100.0
2581,67.0,45,15,2.0,59.0
2582,71.0,0,60,0.0,100.0
2583,79.0,0,60,0.0,100.0
2584,67.0,15,45,2.0,58.0
2585,67.0,0,0,2.0,56.0
2586,52.0,15,45,4.0,64.0
2587,64.0,0,45,3.0,53.0
2588,66.0,0,16,3.0,53.0
2589,37.0,0,60,6.0,63.0
2590,49.0,0,60,5.0,63.0
2591,54.0,44,16,4.0,64.0
2592,62.0,15,46,3.0,52.0
2593,50.0,0,46,4.0,64.0
2594,52.0,45,16,4.0,64.0
2595,35.0,0,61,6.0,63.0
2596,47.0,0,61,5.0,63.0
2597,64.0,0,16,3.0,52.0
2598,49.0,1,30,4.0,64.0
2599,61.0,0,30,3.0,52.0
2600,33.0,0,61,6.0,63.0
2601,45.0,15,61,5.0,63.0
2602,79.0,29,31,2.0,51.0
2603,67.0,30,16,2.0,50.0
2604,67.0,31,16,2.0,48.0
2605,64.0,0,45,3.0,50.0
2606,52.0,0,45,4.0,64.0
2607,37.0,0,60,6.0,63.0
2608,66.0,44,16,3.0,49.0
2609,54.0,0,16,4.0,64.0
2610,49.0,0,60,5.0,63.0
2611,50.0,0,46,4.0,64.0
2612,62.0,0,46,3.0,49.0
2613,64.0,0,16,3.0,48.0
2614,47.0,15,61,5.0,63.0
2615,52.0,45,16,4.0,64.0
2616,35.0,0,61,6.0,63.0
2617,67.0,30,150,2.0,47.0
2618,61.0,0,30,3.0,48.0
2619,49.0,1,30,4.0,64.0
2620,67.0,0,420,0.0,100.0
2621,45.0,0,61,5.0,63.0
2622,64.0,0,420,0.0,100.0
2623,33.0,15,61,6.0,63.0
2624,57.0,0,420,1.0,100.0
2625,69.0,0,420,1.0,100.0
2626,57.0,60,60,2.0,66.0
2627,54.0,30,30,4.0,51.0
2628,57.0,30,0,3.0,53.0
2629,54.0,0,30,4.0,51.0
2630,57.0,0,30,3.0,53.0
2631,62.0,60,120,2.0,66.0
2632,38.0,0,120,6.0,63.0
2633,50.0,0,0,5.0,64.0
2634,54.0,30,30,4.0,51.0
2635,62.0,30,30,3.0,53.0
2636,57.0,0,0,4.0,51.0
2637,57.0,0,0,4.0,51.0
2638,62.0,30,0,3.0,53.0
2639,66.0,29,121,2.0,66.0
2640,38.0,1,120,6.0,63.0
2641,69.0,0,30,2.0,66.0
2642,64.0,1,0,3.0,53.0
2643,68.0,29,31,2.0,66.0
2644,57.0,1,30,4.0,51.0
2645,57.0,0,30,4.0,51.0
2646,57.0,0,30,4.0,51.0
2647,49.0,30,120,5.0,64.0
2648,37.0,0,120,6.0,63.0
2649,64.0,30,30,3.0,53.0
2650,67.0,29,76,2.0,66.0
2651,61.0,0,30,3.0,53.0
2652,57.0,31,30,4.0,51.0
2653,61.0,0,30,3.0,53.0
2654,57.0,0,0,4.0,52.0
2655,64.0,30,60,2.0,66.0
2656,61.0,30,30,3.0,53.0
2657,45.0,29,121,5.0,64.0
2658,33.0,0,121,6.0,63.0
2659,66.0,30,15,2.0,66.0
2660,67.0,14,16,2.0,66.0
2661,66.0,15,9,2.0,66.0
2662,67.0,7,8,2.0,66.0
2663,66.0,7,9,2.0,66.0
2664,57.0,1,0,4.0,52.0
2665,67.0,8,8,2.0,66.0
2666,62.0,1,30,3.0,53.0
2667,57.0,30,0,4.0,52.0
2668,66.0,7,31,2.0,66.0
2669,62.0,0,30,3.0,53.0
2670,64.0,0,15,2.0,66.0
2671,62.0,0,30,3.0,53.0
2672,38.0,0,120,6.0,63.0
2673,66.0,15,15,2.0,66.0
2674,50.0,0,120,5.0,64.0
2675,67.0,1,45,2.0,66.0
2676,55.0,30,30,4.0,52.0
2677,64.0,14,16,2.0,66.0
2678,59.0,0,30,3.0,53.0
2679,55.0,30,0,4.0,52.0
2680,59.0,0,30,3.0,53.0
2681,67.0,16,45,2.0,66.0
2682,59.0,0,30,3.0,53.0
2683,31.0,14,121,6.0,63.0
2684,64.0,14,16,2.0,66.0
2685,43.0,0,121,5.0,64.0
2686,54.0,30,30,4.0,52.0
2687,57.0,0,0,3.0,53.0
2688,54.0,30,0,4.0,53.0
2689,45.0,16,120,5.0,64.0
2690,33.0,0,120,6.0,63.0
2691,62.0,0,120,2.0,66.0
2692,57.0,0,30,3.0,53.0
2693,61.0,0,46,2.0,66.0
2694,52.0,1,0,4.0,53.0
2695,57.0,0,30,3.0,53.0
2696,61.0,29,31,3.0,53.0
2697,52.0,30,0,4.0,53.0
2698,57.0,0,60,1.0,100.0
2699,43.0,0,121,5.0,64.0
2700,69.0,0,60,2.0,66.0
2701,61.0,0,30,3.0,53.0
2702,31.0,29,121,6.0,63.0
2703,50.0,0,30,1.0,100.0
2704,54.0,0,30,1.0,100.0
2705,57.0,0,30,4.0,53.0
2706,62.0,30,30,3.0,53.0
2707,57.0,30,30,1.0,100.0
2708,57.0,0,30,4.0,53.0
2709,62.0,0,0,3.0,53.0
2710,62.0,0,105,1.0,100.0
2711,74.0,30,105,2.0,66.0
2712,42.0,0,120,5.0,64.0
2713,54.0,0,30,1.0,100.0
2714,57.0,1,15,1.0,100.0
2715,57.0,30,30,4.0,53.0
2716,30.0,0,120,6.0,63.0
2717,69.0,14,16,2.0,66.0
2718,50.0,1,30,1.0,100.0
2719,38.0,0,61,6.0,63.0
2720,57.0,0,30,1.0,100.0
2721,74.0,1,0,3.0,53.0
2722,50.0,14,61,5.0,64.0
2723,69.0,0,0,4.0,53.0
2724,54.0,0,30,1.0,101.0
2725,78.0,0,105,2.0,66.0
2726,66.0,0,105,1.0,100.0
2727,69.0,1,0,4.0,54.0
2728,50.0,0,30,1.0,100.0
2729,74.0,14,16,2.0,66.0
2730,62.0,1,15,1.0,99.0
2731,74.0,30,30,3.0,53.0
2732,50.0,0,61,6.0,63.0
2733,62.0,29,61,5.0,64.0
2734,81.0,14,16,2.0,66.0
2735,80.0,14,16,2.0,66.0
2736,81.0,15,16,2.0,66.0
2737,69.0,0,60,1.0,98.0
2738,49.0,0,60,6.0,63.0
2739,49.0,0,60,1.0,98.0
2740,80.0,16,15,2.0,66.0
2741,76.0,0,60,3.0,53.0
2742,61.0,0,60,5.0,64.0
2743,47.0,0,60,6.0,63.0
2744,71.0,1,60,4.0,49.0
2745,50.0,0,60,1.0,88.0
2746,59.0,0,60,5.0,64.0
2747,67.0,0,60,1.0,88.0
2748,79.0,14,61,2.0,66.0
2749,74.0,0,60,3.0,53.0
2750,45.0,0,60,6.0,46.0
2751,57.0,0,60,5.0,46.0
2752,69.0,0,60,4.0,45.0
2753,73.0,0,60,3.0,45.0
2754,57.0,0,60,1.0,70.0
2755,66.0,120,60,1.0,70.0
2756,78.0,0,60,2.0,46.0
2757,55.0,0,60,5.0,46.0
2758,43.0,0,60,6.0,46.0
2759,64.0,0,60,1.0,71.0
2760,76.0,0,60,2.0,46.0
2761,71.0,120,60,4.0,43.0
2762,67.0,0,60,1.0,71.0
2763,62.0,0,60,1.0,71.0
2764,74.0,0,61,2.0,46.0
2765,45.0,0,61,6.0,46.0
2766,66.0,59,61,4.0,43.0
2767,57.0,0,61,5.0,46.0
2768,66.0,1,60,1.0,71.0
2769,64.0,59,61,4.0,43.0
2770,73.0,0,61,2.0,46.0
2771,64.0,1,60,1.0,71.0
2772,57.0,0,60,1.0,71.0
2773,45.0,0,60,5.0,46.0
2774,33.0,0,60,6.0,46.0
2775,69.0,45,15,3.0,64.0
2776,69.0,45,15,2.0,66.0
2777,50.0,0,60,5.0,64.0
2778,62.0,0,60,4.0,64.0
2779,66.0,14,61,3.0,64.0
2780,38.0,0,60,6.0,63.0
2781,74.0,0,61,2.0,66.0
2782,69.0,46,15,3.0,64.0
2783,66.0,14,61,4.0,64.0
2784,64.0,0,61,4.0,64.0
2785,67.0,14,61,3.0,64.0
2786,73.0,45,15,2.0,66.0
2787,45.0,0,60,6.0,63.0
2788,57.0,1,60,5.0,64.0
2789,79.0,14,61,2.0,66.0
2790,61.0,0,61,4.0,64.0
2791,69.0,46,15,3.0,64.0
2792,66.0,14,61,3.0,64.0
2793,62.0,1,60,4.0,64.0
2794,50.0,0,60,6.0,63.0
2795,62.0,0,60,5.0,64.0
2796,78.0,45,15,2.0,66.0
2797,86.0,1,15,2.0,66.0
2798,86.0,30,15,2.0,66.0
2799,66.0,14,61,4.0,64.0
2800,69.0,15,15,3.0,64.0
2801,86.0,0,15,2.0,66.0
2802,85.0,14,16,2.0,66.0
2803,64.0,1,45,4.0,64.0
2804,67.0,14,46,3.0,64.0
2805,83.0,15,16,2.0,66.0
2806,67.0,0,16,4.0,64.0
2807,57.0,0,60,5.0,64.0
2808,81.0,14,1,2.0,66.0
2809,76.0,15,16,3.0,64.0
2810,45.0,0,60,6.0,63.0
2811,73.0,0,45,3.0,64.0
2812,64.0,1,45,4.0,64.0
2813,61.0,44,16,4.0,64.0
2814,69.0,0,16,3.0,64.0
2815,38.0,0,60,6.0,63.0
2816,50.0,0,60,5.0,64.0
2817,69.0,45,15,2.0,66.0
2818,62.0,0,60,4.0,64.0
2819,66.0,0,60,3.0,64.0
2820,69.0,46,15,3.0,64.0
2821,66.0,0,61,4.0,64.0
2822,62.0,0,120,1.0,100.0
2823,74.0,14,61,2.0,66.0
2824,54.0,16,120,1.0,100.0
2825,45.0,0,60,6.0,63.0
2826,73.0,45,15,2.0,66.0
2827,64.0,14,61,4.0,64.0
2828,57.0,0,60,5.0,64.0
2829,67.0,0,61,3.0,64.0
2830,69.0,46,15,3.0,64.0
2831,79.0,14,61,2.0,66.0
2832,64.0,1,120,1.0,100.0
2833,57.0,0,120,1.0,100.0
2834,61.0,0,61,4.0,64.0
2835,66.0,15,0,1.0,100.0
2836,62.0,14,61,3.0,64.0
2837,69.0,1,780,0.0,100.0
2838,81.0,0,780,0.0,100.0
2839,50.0,0,60,6.0,63.0
2840,78.0,45,15,2.0,66.0
2841,62.0,0,60,1.0,100.0
2842,62.0,1,60,5.0,64.0
2843,86.0,0,15,2.0,66.0
2844,86.0,30,15,2.0,66.0
2845,66.0,0,60,3.0,64.0
2846,86.0,0,60,0.0,100.0
2847,78.0,0,60,0.0,100.0
2848,62.0,0,60,4.0,64.0
2849,69.0,0,60,1.0,100.0
2850,86.0,0,15,2.0,66.0
2851,84.0,15,15,2.0,66.0
2852,83.0,15,15,2.0,66.0
2853,84.0,14,1,2.0,66.0
2854,50.0,0,120,1.0,100.0
2855,84.0,0,120,0.0,100.0
2856,74.0,0,120,4.0,64.0
2857,81.0,0,120,0.0,100.0
2858,62.0,0,120,1.0,100.0
2859,42.0,30,120,6.0,63.0
2860,54.0,0,120,5.0,64.0
2861,69.0,0,120,3.0,64.0
2862,62.0,0,120,3.0,64.0
2863,67.0,91,15,3.0,47.0
2864,83.0,0,15,2.0,49.0
2865,82.0,14,16,2.0,49.0
2866,66.0,0,16,3.0,47.0
2867,83.0,15,31,2.0,49.0
2868,67.0,0,31,3.0,47.0
2869,71.0,31,15,3.0,47.0
2870,86.0,0,15,2.0,49.0
2871,79.0,0,30,2.0,49.0
2872,64.0,30,30,3.0,47.0
2873,83.0,0,31,2.0,49.0
2874,67.0,29,31,3.0,47.0
2875,76.0,31,30,2.0,49.0
2876,61.0,0,30,3.0,47.0
2877,64.0,29,31,3.0,47.0
2878,79.0,0,31,2.0,49.0
2879,78.0,0,30,2.0,49.0
2880,62.0,31,30,3.0,47.0
2881,79.0,0,31,2.0,49.0
2882,64.0,29,31,3.0,47.0
2883,65.0,30,31,3.0,47.0
2884,80.0,0,31,2.0,49.0
2885,66.0,0,31,3.0,47.0
2886,81.0,30,31,2.0,49.0
2887,74.0,0,60,2.0,49.0
2888,57.0,0,60,5.0,64.0
2889,66.0,0,60,3.0,47.0
2890,69.0,0,60,4.0,50.0
2891,45.0,31,60,6.0,63.0
2892,67.0,0,45,3.0,47.0
2893,76.0,60,45,2.0,48.0
2894,73.0,44,16,2.0,48.0
2895,64.0,0,16,3.0,47.0
2896,57.0,0,60,4.0,50.0
2897,33.0,0,60,6.0,63.0
2898,45.0,0,60,5.0,64.0
2899,62.0,0,15,3.0,47.0
2900,62.0,0,15,4.0,50.0
2901,69.0,30,15,3.0,47.0
2902,66.0,0,15,4.0,50.0
2903,74.0,0,60,2.0,48.0
2904,50.0,16,60,5.0,64.0
2905,38.0,0,60,6.0,63.0
2906,66.0,0,15,4.0,50.0
2907,69.0,0,15,3.0,47.0
2908,80.0,30,15,2.0,66.0
2909,81.0,14,16,2.0,66.0
2910,69.0,0,15,3.0,47.0
2911,83.0,0,15,2.0,66.0
2912,66.0,16,15,4.0,50.0
2913,81.0,14,16,2.0,66.0
2914,66.0,16,15,4.0,50.0
2915,69.0,0,15,3.0,47.0
2916,86.0,0,30,2.0,66.0
2917,69.0,30,15,3.0,47.0
2918,66.0,0,15,4.0,50.0
2919,86.0,0,15,2.0,66.0
2920,69.0,30,15,3.0,47.0
2921,66.0,0,15,4.0,50.0
2922,85.0,14,16,2.0,66.0
2923,69.0,1,15,3.0,47.0
2924,83.0,15,16,2.0,66.0
2925,66.0,0,15,4.0,50.0
2926,81.0,14,16,2.0,66.0
2927,71.0,0,15,3.0,47.0
2928,67.0,0,15,4.0,50.0
2929,79.0,0,30,2.0,66.0
2930,71.0,0,15,3.0,47.0
2931,67.0,30,15,4.0,50.0
2932,62.0,0,60,5.0,64.0
2933,50.0,16,60,6.0,63.0
2934,67.0,0,15,4.0,50.0
2935,71.0,30,15,3.0,47.0
2936,78.0,0,15,2.0,66.0
2937,79.0,14,16,2.0,66.0
2938,81.0,15,16,2.0,66.0
2939,67.0,1,15,4.0,50.0
2940,71.0,0,15,3.0,47.0
2941,79.0,14,16,2.0,66.0
2942,76.0,16,15,2.0,66.0
2943,67.0,0,15,4.0,50.0
2944,73.0,0,15,3.0,47.0
2945,66.0,0,15,4.0,50.0
2946,78.0,30,15,2.0,66.0
2947,74.0,0,15,3.0,47.0
2948,73.0,0,15,3.0,47.0
2949,64.0,0,15,4.0,50.0
2950,79.0,30,15,2.0,66.0
2951,81.0,0,15,2.0,66.0
2952,76.0,30,15,3.0,47.0
2953,61.0,0,15,4.0,50.0
2954,62.0,0,30,4.0,50.0
2955,69.0,0,30,3.0,47.0
2956,79.0,0,30,2.0,66.0
2957,78.0,29,31,2.0,66.0
2958,50.0,0,60,5.0,64.0
2959,38.0,30,60,6.0,63.0
2960,69.0,0,31,4.0,50.0
2961,74.0,0,0,3.0,47.0
2962,80.0,31,15,2.0,66.0
2963,66.0,0,15,4.0,50.0
2964,81.0,14,16,2.0,66.0
2965,83.0,0,15,2.0,66.0
2966,66.0,0,15,4.0,50.0
2967,74.0,16,15,3.0,47.0
2968,81.0,14,16,2.0,66.0
2969,69.0,16,15,3.0,47.0
2970,66.0,0,15,4.0,50.0
2971,86.0,0,30,2.0,66.0
2972,66.0,30,15,4.0,50.0
2973,69.0,0,15,3.0,47.0
2974,86.0,0,15,2.0,66.0
2975,69.0,30,15,3.0,47.0
2976,66.0,0,15,4.0,50.0
2977,85.0,14,16,2.0,66.0
2978,69.0,1,15,3.0,47.0
2979,83.0,15,16,2.0,66.0
2980,66.0,0,15,4.0,50.0
2981,81.0,14,16,2.0,66.0
2982,71.0,0,15,3.0,47.0
2983,67.0,16,15,4.0,50.0
2984,79.0,0,30,2.0,66.0
2985,71.0,0,15,3.0,47.0
2986,67.0,30,15,4.0,50.0
2987,50.0,0,60,6.0,63.0
2988,62.0,0,60,5.0,64.0
2989,78.0,0,15,2.0,66.0
2990,67.0,30,15,4.0,50.0
2991,71.0,0,15,3.0,47.0
2992,79.0,14,16,2.0,66.0
2993,81.0,15,16,2.0,66.0
2994,67.0,0,15,4.0,50.0
2995,71.0,1,15,3.0,47.0
2996,83.0,14,16,2.0,66.0
2997,73.0,16,15,3.0,47.0
2998,64.0,0,15,4.0,50.0
2999,81.0,0,15,2.0,66.0
3000,79.0,30,15,2.0,66.0
3001,73.0,0,15,3.0,47.0
3002,64.0,0,15,4.0,50.0
3003,64.0,0,15,4.0,50.0
3004,73.0,30,15,3.0,47.0
3005,78.0,0,15,2.0,66.0
3006,64.0,30,15,4.0,50.0
3007,76.0,0,15,2.0,66.0
3008,73.0,0,15,3.0,47.0
3009,66.0,30,15,4.0,50.0
3010,66.0,30,15,3.0,47.0
3011,74.0,0,45,2.0,66.0
3012,57.0,0,15,4.0,50.0
3013,50.0,0,60,5.0,64.0
3014,38.0,0,60,6.0,63.0
3015,57.0,0,15,4.0,50.0
3016,80.0,0,15,0.0,100.0
3017,66.0,30,15,3.0,47.0
3018,68.0,0,15,2.0,48.0
3019,69.0,14,16,2.0,48.0
3020,81.0,1,15,0.0,100.0
3021,83.0,15,15,0.0,100.0
3022,71.0,0,15,2.0,48.0
3023,57.0,0,15,4.0,50.0
3024,66.0,0,15,3.0,47.0
3025,69.0,14,16,2.0,48.0
3026,62.0,0,60,5.0,64.0
3027,50.0,0,60,6.0,63.0
3028,81.0,0,0,0.0,100.0
3029,66.0,15,15,3.0,47.0
3030,57.0,0,15,4.0,50.0
3031,74.0,0,30,2.0,48.0
3032,86.0,0,30,0.0,100.0
3033,66.0,30,15,3.0,47.0
3034,57.0,0,15,4.0,50.0
3035,38.0,0,60,6.0,63.0
3036,50.0,0,60,5.0,64.0
3037,86.0,30,15,0.0,100.0
3038,57.0,0,15,4.0,50.0
3039,74.0,0,15,2.0,48.0
3040,66.0,0,15,3.0,47.0
3041,73.0,14,16,2.0,48.0
3042,85.0,1,15,0.0,100.0
3043,57.0,0,15,4.0,50.0
3044,83.0,0,15,0.0,100.0
3045,66.0,1,15,3.0,47.0
3046,71.0,14,16,2.0,48.0
3047,50.0,0,60,6.0,63.0
3048,69.0,14,16,2.0,49.0
3049,62.0,0,60,5.0,64.0
3050,81.0,1,15,0.0,100.0
3051,62.0,0,15,3.0,47.0
3052,59.0,0,15,4.0,50.0
3053,67.0,0,30,2.0,49.0
3054,79.0,0,30,0.0,100.0
3055,59.0,30,15,4.0,64.0
3056,62.0,0,15,3.0,64.0
3057,50.0,0,60,5.0,64.0
3058,38.0,15,60,6.0,63.0
3059,62.0,30,15,3.0,64.0
3060,78.0,0,15,0.0,100.0
3061,59.0,0,15,4.0,64.0
3062,66.0,0,15,2.0,49.0
3063,67.0,14,16,2.0,49.0
3064,79.0,1,15,0.0,100.0
3065,81.0,1,15,0.0,100.0
3066,59.0,0,15,4.0,64.0
3067,62.0,0,15,3.0,64.0
3068,69.0,14,16,2.0,49.0
3069,67.0,14,16,2.0,49.0
3070,62.0,0,60,5.0,64.0
3071,79.0,1,15,0.0,100.0
3072,83.0,0,120,0.0,100.0
3073,50.0,0,60,6.0,63.0
3074,64.0,0,15,2.0,49.0
3075,73.0,15,15,0.0,100.0
3076,76.0,0,15,0.0,100.0
3077,61.0,0,15,4.0,64.0
3078,62.0,0,15,4.0,64.0
3079,78.0,30,15,0.0,100.0
3080,74.0,0,15,0.0,100.0
3081,66.0,0,15,2.0,50.0
3082,62.0,0,15,3.0,64.0
3083,38.0,0,60,6.0,63.0
3084,50.0,0,60,5.0,64.0
3085,79.0,0,15,0.0,100.0
3086,67.0,0,15,2.0,50.0
3087,76.0,30,15,0.0,100.0
3088,61.0,0,15,4.0,64.0
3089,64.0,0,15,3.0,64.0
3090,81.0,0,15,0.0,100.0
3091,78.0,0,15,0.0,100.0
3092,66.0,0,15,3.0,64.0
3093,69.0,30,15,2.0,50.0
3094,57.0,0,15,4.0,64.0
3095,62.0,0,60,5.0,64.0
3096,50.0,0,60,6.0,63.0
3097,67.0,0,30,2.0,50.0
3098,79.0,0,30,0.0,100.0
3099,64.0,0,30,3.0,64.0
3100,76.0,30,30,0.0,100.0
3101,61.0,0,30,4.0,64.0
3102,50.0,0,60,5.0,64.0
3103,62.0,1,30,3.0,64.0
3104,66.0,29,31,2.0,50.0
3105,78.0,0,30,0.0,100.0
3106,74.0,0,30,0.0,100.0
3107,38.0,0,60,6.0,63.0
3108,66.0,30,15,3.0,64.0
3109,62.0,0,15,4.0,64.0
3110,68.0,0,15,2.0,51.0
3111,80.0,0,15,0.0,100.0
3112,81.0,1,15,0.0,100.0
3113,69.0,14,16,2.0,51.0
3114,62.0,0,15,4.0,64.0
3115,71.0,0,15,2.0,51.0
3116,83.0,0,15,0.0,100.0
3117,66.0,15,15,3.0,64.0
3118,50.0,0,60,6.0,63.0
3119,81.0,1,15,0.0,100.0
3120,69.0,14,16,2.0,51.0
3121,62.0,0,60,5.0,64.0
3122,57.0,0,15,4.0,64.0
3123,66.0,0,15,3.0,64.0
3124,74.0,0,30,2.0,51.0
3125,86.0,0,30,0.0,100.0
3126,66.0,0,15,3.0,64.0
3127,57.0,30,15,4.0,64.0
3128,38.0,15,60,6.0,63.0
3129,50.0,0,60,5.0,64.0
3130,66.0,0,15,3.0,64.0
3131,74.0,0,15,2.0,51.0
3132,86.0,0,15,0.0,100.0
3133,57.0,30,15,4.0,64.0
3134,85.0,1,15,0.0,100.0
3135,73.0,14,16,2.0,48.0
3136,57.0,0,15,4.0,64.0
3137,66.0,0,15,3.0,64.0
3138,71.0,14,16,2.0,48.0
3139,83.0,1,15,0.0,100.0
3140,62.0,0,60,5.0,64.0
3141,81.0,1,15,0.0,100.0
3142,69.0,14,16,2.0,48.0
3143,50.0,0,60,6.0,63.0
3144,79.0,15,30,0.0,100.0
3145,74.0,0,30,0.0,100.0
3146,67.0,0,30,2.0,48.0
3147,62.0,0,30,3.0,64.0
3148,59.0,0,90,4.0,64.0
3149,64.0,60,30,3.0,64.0
3150,47.0,0,90,6.0,63.0
3151,67.0,0,30,2.0,48.0
3152,79.0,0,30,0.0,100.0
3153,76.0,0,30,0.0,100.0
3154,81.0,0,15,0.0,100.0
3155,78.0,0,15,0.0,100.0
3156,66.0,0,16,3.0,64.0
3157,69.0,0,16,2.0,48.0
3158,62.0,29,31,4.0,64.0
3159,67.0,0,16,3.0,64.0
3160,71.0,14,16,2.0,48.0
3161,50.0,0,840,1.0,100.0
3162,83.0,1,15,0.0,100.0
3163,55.0,1,30,5.0,64.0
3164,62.0,0,840,1.0,100.0
3165,79.0,0,15,0.0,100.0
3166,43.0,0,31,6.0,63.0
3167,69.0,0,15,2.0,48.0
3168,81.0,0,15,0.0,100.0
3169,66.0,0,15,3.0,64.0
3170,78.0,0,15,0.0,100.0
3171,79.0,0,15,0.0,100.0
3172,67.0,0,15,2.0,48.0
3173,76.0,30,15,0.0,100.0
3174,64.0,0,15,3.0,64.0
3175,45.0,0,60,6.0,63.0
3176,57.0,0,0,4.0,64.0
3177,74.0,0,15,0.0,100.0
3178,78.0,30,15,0.0,100.0
3179,62.0,0,15,3.0,64.0
3180,66.0,0,15,2.0,48.0
3181,76.0,1,15,0.0,100.0
3182,61.0,0,15,3.0,64.0
3183,64.0,0,15,2.0,48.0
3184,73.0,0,15,0.0,100.0
3185,55.0,29,31,4.0,64.0
3186,45.0,0,120,1.0,100.0
3187,57.0,0,120,1.0,100.0
3188,33.0,0,60,6.0,63.0
3189,45.0,0,60,5.0,64.0
3190,62.0,30,10,2.0,48.0
3191,64.0,20,10,2.0,48.0
3192,66.0,20,10,2.0,48.0
3193,62.0,0,60,3.0,64.0
3194,50.0,0,60,1.0,100.0
3195,38.0,0,60,6.0,63.0
3196,50.0,0,60,5.0,64.0
3197,74.0,0,60,0.0,100.0
3198,54.0,0,60,4.0,64.0
3199,67.0,20,10,2.0,48.0
3200,69.0,20,10,2.0,48.0
3201,71.0,20,10,2.0,48.0
3202,69.0,20,10,2.0,48.0
3203,71.0,20,10,2.0,48.0
3204,69.0,20,10,2.0,48.0
3205,64.0,0,10,3.0,64.0
3206,79.0,0,10,0.0,100.0
3207,76.0,0,10,0.0,100.0
3208,67.0,0,10,2.0,48.0
3209,78.0,0,10,0.0,100.0
3210,74.0,0,10,0.0,100.0
3211,66.0,0,10,2.0,48.0
3212,62.0,20,10,3.0,64.0
3213,57.0,0,45,4.0,64.0
3214,76.0,0,10,0.0,100.0
3215,64.0,0,10,2.0,48.0
3216,61.0,0,10,3.0,64.0
3217,73.0,20,10,0.0,100.0
3218,45.0,0,60,5.0,64.0
3219,55.0,4,16,4.0,64.0
3220,33.0,20,60,6.0,63.0
3221,57.0,0,60,1.0,100.0
3222,62.0,0,10,2.0,48.0
3223,64.0,20,10,2.0,48.0
3224,66.0,20,10,2.0,48.0
3225,38.0,0,60,6.0,63.0
3226,50.0,16,60,5.0,64.0
3227,62.0,0,60,1.0,100.0
3228,74.0,0,60,0.0,100.0
3229,62.0,0,60,3.0,64.0
3230,54.0,0,60,4.0,64.0
3231,67.0,20,10,2.0,48.0
3232,69.0,20,10,2.0,48.0
3233,71.0,20,10,2.0,49.0
3234,69.0,20,10,2.0,49.0
3235,71.0,20,10,2.0,49.0
3236,69.0,20,10,2.0,49.0
3237,67.0,0,10,2.0,49.0
3238,76.0,0,10,0.0,100.0
3239,79.0,0,10,0.0,100.0
3240,64.0,0,10,3.0,64.0
3241,66.0,0,10,2.0,49.0
3242,62.0,0,10,3.0,64.0
3243,78.0,0,10,0.0,100.0
3244,74.0,20,10,0.0,100.0
3245,57.0,0,45,4.0,64.0
3246,73.0,20,10,0.0,100.0
3247,76.0,0,10,0.0,100.0
3248,61.0,0,10,3.0,64.0
3249,64.0,0,10,2.0,49.0
3250,55.0,4,16,4.0,64.0
3251,33.0,0,60,6.0,63.0
3252,57.0,0,60,1.0,100.0
3253,45.0,20,60,5.0,64.0
3254,62.0,0,10,2.0,49.0
3255,69.0,20,10,2.0,49.0
3256,67.0,20,10,2.0,49.0
3257,38.0,0,60,6.0,63.0
3258,50.0,0,60,5.0,64.0
3259,74.0,0,60,0.0,100.0
3260,54.0,16,60,4.0,64.0
3261,50.0,0,60,1.0,100.0
3262,62.0,0,60,3.0,64.0
3263,66.0,20,10,2.0,49.0
3264,64.0,20,10,2.0,49.0
3265,62.0,20,10,2.0,49.0
3266,61.0,20,10,2.0,49.0
3267,64.0,20,10,2.0,51.0
3268,62.0,20,10,2.0,53.0
3269,61.0,20,10,2.0,55.0
3270,59.0,20,10,2.0,57.0
3271,57.0,20,10,2.0,59.0
3272,62.0,20,10,2.0,60.0
3273,81.0,20,10,2.0,60.0
3274,79.0,20,10,2.0,60.0
3275,78.0,20,10,2.0,60.0
3276,76.0,20,10,2.0,61.0
3277,74.0,20,10,2.0,61.0
3278,73.0,20,10,2.0,61.0
3279,76.0,20,10,2.0,60.0
3280,74.0,20,10,2.0,58.0
3281,73.0,20,10,2.0,56.0
3282,71.0,20,10,2.0,53.0
3283,57.0,0,10,3.0,49.0
3284,69.0,20,10,2.0,51.0
3285,68.0,0,60,2.0,47.0
3286,56.0,20,60,3.0,49.0
3287,57.0,0,61,3.0,49.0
3288,69.0,59,61,2.0,47.0
3289,70.0,0,61,2.0,47.0
3290,58.0,60,61,3.0,49.0
3291,59.0,60,61,3.0,49.0
3292,71.0,0,61,2.0,48.0
3293,55.0,61,60,3.0,49.0
3294,67.0,0,60,2.0,48.0
3295,59.0,60,120,5.0,64.0
3296,79.0,0,120,2.0,66.0
3297,67.0,0,120,3.0,62.0
3298,47.0,0,120,6.0,63.0
3299,62.0,0,120,4.0,64.0
3300,57.0,0,50,5.0,64.0
3301,63.0,0,50,3.0,64.0
3302,78.0,0,50,2.0,63.0
3303,45.0,0,50,6.0,63.0
3304,60.0,119,50,4.0,64.0
3305,76.0,0,10,2.0,66.0
3306,79.0,20,10,2.0,66.0
3307,81.0,20,10,2.0,66.0
3308,43.0,0,60,6.0,63.0
3309,59.0,0,60,4.0,64.0
3310,64.0,0,60,3.0,49.0
3311,55.0,61,60,5.0,64.0
3312,83.0,20,10,2.0,66.0
3313,79.0,20,10,2.0,66.0
3314,74.0,20,10,2.0,66.0
3315,73.0,0,10,2.0,66.0
3316,76.0,20,10,2.0,66.0
3317,74.0,20,10,2.0,66.0
3318,45.0,20,60,6.0,63.0
3319,57.0,0,60,5.0,64.0
3320,64.0,0,60,4.0,64.0
3321,73.0,20,10,2.0,64.0
3322,71.0,20,10,2.0,64.0
3323,57.0,0,10,3.0,64.0
3324,69.0,20,10,2.0,64.0
3325,56.0,0,60,3.0,64.0
3326,68.0,20,60,2.0,64.0
3327,69.0,59,61,2.0,64.0
3328,57.0,0,61,3.0,64.0
3329,58.0,60,61,3.0,64.0
3330,70.0,0,61,2.0,64.0
3331,71.0,0,61,2.0,64.0
3332,59.0,60,61,3.0,64.0
3333,67.0,61,60,2.0,64.0
3334,55.0,0,60,3.0,64.0
3335,79.0,0,120,2.0,64.0
3336,47.0,60,120,6.0,63.0
3337,59.0,0,120,5.0,64.0
3338,67.0,0,120,3.0,64.0
3339,62.0,0,120,4.0,65.0
3340,63.0,0,50,3.0,65.0
3341,57.0,0,50,5.0,64.0
3342,60.0,119,50,4.0,64.0
3343,78.0,0,50,2.0,63.0
3344,45.0,0,50,6.0,64.0
3345,76.0,0,10,2.0,64.0
3346,79.0,20,10,2.0,64.0
3347,81.0,20,10,2.0,64.0
3348,64.0,0,60,3.0,64.0
3349,59.0,0,60,4.0,65.0
3350,83.0,0,10,2.0,64.0
3351,79.0,20,10,2.0,64.0
3352,76.0,20,10,2.0,64.0
3353,71.0,20,60,3.0,59.0
3354,43.0,0,120,6.0,63.0
3355,55.0,61,120,5.0,64.0
3356,67.0,0,60,4.0,65.0
3357,74.0,1,60,2.0,63.0
3358,66.0,0,61,4.0,65.0
3359,69.0,0,61,3.0,54.0
3360,64.0,0,61,4.0,65.0
3361,73.0,59,61,2.0,56.0
3362,45.0,0,121,6.0,63.0
3363,57.0,19,121,5.0,64.0
3364,81.0,46,15,0.0,100.0
3365,67.0,0,61,3.0,49.0
3366,74.0,0,60,2.0,49.0
3367,50.0,15,60,5.0,64.0
3368,66.0,0,60,3.0,43.0
3369,62.0,0,60,4.0,65.0
3370,38.0,0,60,6.0,63.0
3371,62.0,0,0,1.0,100.0
3372,66.0,45,0,1.0,100.0
3373,86.0,0,105,0.0,100.0
3374,81.0,0,15,0.0,100.0
3375,62.0,15,0,1.0,100.0
3376,69.0,60,60,0.0,75.0
3377,66.0,0,0,1.0,100.0
3378,78.0,0,105,0.0,100.0
3379,62.0,60,60,1.0,100.0
3380,74.0,0,120,0.0,77.0
3381,81.0,45,15,0.0,100.0
3382,67.0,15,60,1.0,100.0
3383,64.0,0,60,1.0,100.0
3384,73.0,0,60,0.0,75.0
3385,57.0,0,45,1.0,100.0
3386,79.0,0,105,0.0,100.0
3387,64.0,45,0,1.0,100.0
3388,64.0,0,0,1.0,100.0
3389,76.0,0,15,0.0,100.0
3390,69.0,60,60,0.0,75.0
3391,57.0,0,0,1.0,100.0
3392,57.0,60,0,1.0,100.0
3393,73.0,0,105,0.0,75.0
3394,64.0,0,60,1.0,100.0
3395,81.0,45,15,2.0,64.0
3396,69.0,0,15,0.0,78.0
3397,79.0,15,120,0.0,100.0
3398,78.0,0,30,0.0,100.0
3399,69.0,30,15,3.0,64.0
3400,62.0,15,60,1.0,100.0
3401,74.0,0,30,0.0,100.0
3402,57.0,15,15,4.0,65.0
3403,50.0,0,60,1.0,100.0
3404,69.0,0,15,3.0,64.0
3405,86.0,0,105,2.0,64.0
3406,69.0,30,15,3.0,64.0
3407,81.0,14,16,2.0,64.0
3408,42.0,0,60,6.0,63.0
3409,54.0,0,60,5.0,64.0
3410,69.0,16,30,3.0,64.0
3411,71.0,30,15,3.0,64.0
3412,62.0,0,105,4.0,65.0
3413,38.0,0,60,6.0,63.0
3414,73.0,14,16,3.0,64.0
3415,69.0,0,0,0.0,100.0
3416,57.0,1,15,4.0,65.0
3417,50.0,0,60,5.0,64.0
3418,74.0,0,15,3.0,64.0
3419,73.0,14,16,3.0,64.0
3420,78.0,0,105,2.0,64.0
3421,71.0,16,15,3.0,64.0
3422,42.0,15,60,6.0,63.0
3423,54.0,0,60,5.0,64.0
3424,69.0,14,16,3.0,64.0
3425,81.0,0,16,2.0,64.0
3426,62.0,0,60,4.0,65.0
3427,67.0,16,15,3.0,64.0
3428,67.0,30,15,3.0,64.0
3429,57.0,15,15,4.0,65.0
3430,52.0,0,60,5.0,64.0
3431,40.0,0,60,6.0,63.0
3432,67.0,15,15,3.0,64.0
3433,67.0,30,15,3.0,64.0
3434,79.0,0,105,2.0,64.0
3435,55.0,0,60,5.0,64.0
3436,43.0,0,60,6.0,63.0
3437,76.0,14,16,2.0,64.0
3438,67.0,16,30,3.0,64.0
3439,62.0,0,105,4.0,65.0
3440,66.0,30,15,3.0,64.0
3441,64.0,14,16,3.0,64.0
3442,45.0,0,60,6.0,63.0
3443,57.0,1,15,4.0,65.0
3444,57.0,0,60,5.0,64.0
3445,62.0,15,15,3.0,64.0
3446,61.0,14,16,3.0,64.0
3447,73.0,0,105,2.0,64.0
3448,59.0,16,15,3.0,64.0
3449,55.0,0,60,5.0,64.0
3450,64.0,0,60,4.0,65.0
3451,43.0,0,60,6.0,63.0
3452,76.0,14,16,2.0,64.0
3453,57.0,0,16,3.0,64.0
3454,54.0,16,30,5.0,64.0
3455,45.0,0,450,1.0,100.0
3456,57.0,0,450,1.0,100.0
3457,62.0,0,30,4.0,65.0
3458,74.0,0,30,2.0,64.0
3459,81.0,0,510,0.0,100.0
3460,69.0,0,30,3.0,64.0
3461,42.0,0,30,6.0,63.0
3462,54.0,0,8,5.0,64.0
3463,42.0,0,8,6.0,63.0
3464,66.0,0,8,2.0,64.0
3465,66.0,60,8,0.0,100.0
3466,67.0,0,8,2.0,64.0
3467,67.0,1,7,0.0,100.0
3468,55.0,0,8,5.0,64.0
3469,43.0,7,8,6.0,63.0
3470,54.0,6,31,5.0,64.0
3471,66.0,0,31,2.0,64.0
3472,42.0,0,31,6.0,63.0
3473,66.0,1,30,0.0,100.0
3474,40.0,0,9,6.0,63.0
3475,64.0,0,9,2.0,64.0
3476,64.0,0,9,0.0,100.0
3477,52.0,29,9,5.0,64.0
3478,62.0,0,8,2.0,64.0
3479,62.0,8,8,0.0,100.0
3480,38.0,0,8,6.0,63.0
3481,50.0,0,8,5.0,64.0
3482,40.0,8,30,6.0,63.0
3483,64.0,0,30,2.0,64.0
3484,64.0,0,30,0.0,100.0
3485,52.0,0,30,5.0,64.0
3486,61.0,60,30,5.0,64.0
3487,73.0,0,30,2.0,64.0
3488,73.0,0,30,0.0,100.0
3489,49.0,0,30,6.0,63.0
3490,74.0,0,30,0.0,100.0
3491,62.0,0,30,1.0,100.0
3492,62.0,60,30,5.0,64.0
3493,50.0,0,30,6.0,63.0
3494,74.0,0,30,2.0,64.0
3495,50.0,0,30,1.0,100.0
3496,50.0,60,30,5.0,64.0
3497,38.0,0,30,6.0,63.0
3498,62.0,0,30,0.0,100.0
3499,62.0,0,30,2.0,64.0
