,note,step,duration,channel,velocity
0,51.0,0,144,12.0,105.0
1,39.0,0,144,14.0,105.0
2,39.0,0,144,13.0,105.0
3,51.0,0,156,3.0,92.0
4,63.0,0,156,3.0,92.0
5,67.0,0,156,1.0,92.0
6,70.0,0,156,1.0,92.0
7,63.0,0,156,2.0,92.0
8,75.0,0,156,0.0,92.0
9,75.0,0,156,4.0,92.0
10,63.0,0,156,4.0,92.0
11,55.0,0,156,2.0,92.0
12,51.0,0,192,5.0,105.0
13,55.0,0,192,11.0,105.0
14,63.0,0,192,11.0,80.0
15,63.0,0,192,10.0,105.0
16,55.0,0,192,10.0,105.0
17,34.0,0,144,14.0,105.0
18,46.0,240,144,13.0,105.0
19,58.0,0,144,12.0,105.0
20,87.0,0,156,0.0,92.0
21,63.0,0,156,3.0,92.0
22,51.0,0,156,3.0,92.0
23,63.0,0,156,4.0,92.0
24,79.0,0,156,1.0,92.0
25,75.0,0,156,4.0,92.0
26,70.0,0,156,1.0,92.0
27,58.0,0,156,2.0,92.0
28,55.0,0,156,2.0,92.0
29,75.0,0,624,10.0,105.0
30,63.0,0,144,12.0,105.0
31,51.0,0,144,13.0,105.0
32,75.0,0,624,11.0,105.0
33,39.0,0,144,14.0,105.0
34,70.0,240,156,1.0,92.0
35,75.0,0,156,4.0,92.0
36,79.0,0,156,1.0,92.0
37,63.0,0,156,4.0,92.0
38,63.0,0,156,3.0,92.0
39,51.0,0,156,3.0,92.0
40,87.0,0,156,0.0,92.0
41,55.0,0,156,2.0,92.0
42,58.0,0,156,2.0,92.0
43,58.0,0,78,11.0,105.0
44,58.0,0,78,10.0,105.0
45,43.0,0,144,14.0,105.0
46,55.0,0,144,12.0,105.0
47,55.0,0,144,13.0,105.0
48,63.0,0,156,3.0,92.0
49,75.0,0,156,4.0,92.0
50,87.0,240,156,0.0,92.0
51,63.0,0,156,4.0,92.0
52,55.0,0,156,2.0,92.0
53,58.0,0,156,2.0,92.0
54,82.0,0,156,1.0,92.0
55,70.0,0,156,1.0,92.0
56,51.0,0,156,3.0,92.0
57,51.0,0,192,5.0,105.0
58,63.0,0,78,10.0,105.0
59,63.0,120,78,11.0,105.0
60,60.0,0,78,10.0,105.0
61,60.0,0,78,11.0,105.0
62,56.0,0,144,12.0,105.0
63,44.0,0,144,14.0,105.0
64,56.0,0,144,13.0,105.0
65,51.0,0,156,3.0,92.0
66,75.0,120,156,4.0,92.0
67,63.0,0,156,4.0,92.0
68,56.0,0,156,2.0,92.0
69,60.0,0,156,2.0,92.0
70,72.0,0,156,1.0,92.0
71,63.0,0,156,3.0,92.0
72,84.0,0,156,1.0,92.0
73,87.0,0,156,0.0,92.0
74,63.0,0,78,11.0,105.0
75,63.0,120,78,10.0,105.0
76,58.0,0,78,10.0,105.0
77,58.0,0,78,11.0,105.0
78,55.0,0,144,12.0,105.0
79,55.0,0,144,13.0,105.0
80,43.0,0,144,14.0,105.0
81,87.0,0,156,0.0,92.0
82,55.0,0,156,2.0,92.0
83,58.0,120,156,2.0,92.0
84,70.0,0,156,1.0,92.0
85,51.0,0,156,3.0,92.0
86,63.0,0,156,3.0,92.0
87,82.0,0,156,1.0,92.0
88,75.0,0,156,4.0,92.0
89,63.0,0,156,4.0,92.0
90,63.0,120,78,10.0,105.0
91,63.0,0,78,11.0,105.0
92,60.0,0,78,11.0,105.0
93,60.0,120,78,10.0,105.0
94,56.0,0,144,12.0,105.0
95,56.0,0,144,13.0,105.0
96,44.0,0,144,14.0,105.0
97,63.0,0,156,4.0,92.0
98,87.0,0,156,0.0,92.0
99,63.0,0,156,3.0,92.0
100,84.0,0,156,1.0,92.0
101,51.0,0,156,3.0,92.0
102,56.0,0,156,2.0,92.0
103,60.0,0,156,2.0,92.0
104,72.0,0,156,1.0,92.0
105,75.0,0,156,4.0,92.0
106,51.0,0,192,5.0,105.0
107,63.0,0,78,11.0,105.0
108,63.0,120,78,10.0,105.0
109,68.0,0,78,11.0,105.0
110,68.0,0,78,10.0,105.0
111,63.0,0,144,12.0,105.0
112,51.0,0,144,13.0,105.0
113,39.0,0,144,14.0,105.0
114,60.0,0,156,2.0,92.0
115,63.0,0,156,3.0,92.0
116,51.0,0,156,3.0,92.0
117,80.0,0,156,1.0,92.0
118,72.0,0,156,1.0,92.0
119,63.0,0,156,4.0,92.0
120,75.0,0,156,4.0,92.0
121,84.0,0,156,0.0,92.0
122,56.0,120,156,2.0,92.0
123,51.0,0,192,5.0,105.0
124,72.0,120,78,11.0,105.0
125,72.0,0,78,10.0,105.0
126,75.0,0,78,11.0,105.0
127,75.0,0,78,10.0,105.0
128,36.0,0,144,14.0,105.0
129,60.0,0,144,12.0,105.0
130,48.0,0,144,13.0,105.0
131,56.0,120,156,2.0,92.0
132,80.0,0,156,1.0,92.0
133,51.0,0,156,3.0,92.0
134,60.0,0,156,2.0,92.0
135,84.0,0,156,0.0,92.0
136,75.0,0,156,4.0,92.0
137,63.0,0,156,4.0,92.0
138,72.0,0,156,1.0,92.0
139,63.0,0,156,3.0,92.0
140,51.0,0,192,5.0,105.0
141,80.0,0,78,10.0,105.0
142,80.0,120,78,11.0,105.0
143,32.0,0,144,14.0,105.0
144,56.0,120,144,12.0,105.0
145,44.0,0,144,13.0,105.0
146,51.0,0,156,3.0,92.0
147,63.0,0,156,3.0,92.0
148,72.0,0,156,1.0,92.0
149,80.0,0,156,1.0,92.0
150,60.0,0,156,2.0,92.0
151,84.0,0,156,0.0,92.0
152,63.0,0,156,4.0,92.0
153,75.0,0,156,4.0,92.0
154,56.0,0,156,2.0,92.0
155,51.0,0,192,5.0,105.0
156,84.0,0,192,10.0,105.0
157,84.0,0,192,11.0,105.0
158,84.0,240,156,0.0,92.0
159,72.0,0,156,1.0,92.0
160,56.0,0,156,2.0,92.0
161,75.0,0,156,4.0,92.0
162,51.0,0,156,3.0,92.0
163,63.0,0,156,3.0,92.0
164,60.0,0,156,2.0,92.0
165,80.0,0,156,1.0,92.0
166,63.0,0,156,4.0,92.0
167,63.0,0,156,4.0,92.0
168,75.0,240,156,4.0,92.0
169,80.0,0,156,1.0,92.0
170,51.0,0,156,3.0,92.0
171,63.0,0,156,3.0,92.0
172,72.0,0,156,1.0,92.0
173,84.0,0,156,0.0,92.0
174,56.0,0,156,2.0,92.0
175,60.0,0,156,2.0,92.0
176,58.0,0,144,12.0,105.0
177,46.0,0,144,13.0,105.0
178,34.0,0,144,14.0,105.0
179,62.0,0,156,2.0,92.0
180,46.0,0,156,3.0,92.0
181,58.0,0,156,3.0,92.0
182,82.0,240,156,0.0,92.0
183,77.0,0,156,1.0,92.0
184,70.0,0,156,4.0,92.0
185,74.0,0,156,1.0,92.0
186,58.0,0,156,2.0,92.0
187,58.0,0,156,4.0,92.0
188,62.0,0,192,10.0,105.0
189,70.0,0,192,10.0,105.0
190,62.0,0,192,11.0,105.0
191,46.0,0,192,5.0,105.0
192,70.0,0,192,11.0,105.0
193,50.0,240,144,13.0,105.0
194,65.0,0,144,12.0,105.0
195,38.0,0,144,14.0,105.0
196,46.0,0,156,3.0,92.0
197,58.0,0,156,4.0,92.0
198,70.0,0,156,4.0,92.0
199,77.0,0,156,1.0,92.0
200,65.0,0,156,2.0,92.0
201,74.0,0,156,1.0,92.0
202,82.0,0,156,0.0,92.0
203,62.0,0,156,2.0,92.0
204,58.0,0,156,3.0,92.0
205,82.0,0,624,11.0,105.0
206,46.0,0,144,14.0,105.0
207,58.0,0,144,13.0,105.0
208,70.0,0,144,12.0,105.0
209,82.0,0,624,10.0,105.0
210,74.0,240,156,1.0,92.0
211,62.0,0,156,2.0,92.0
212,65.0,0,156,2.0,92.0
213,82.0,0,156,0.0,92.0
214,58.0,0,156,3.0,92.0
215,77.0,0,156,1.0,92.0
216,70.0,0,156,4.0,92.0
217,58.0,0,156,4.0,92.0
218,46.0,0,156,3.0,92.0
219,56.0,0,78,11.0,105.0
220,56.0,0,78,10.0,105.0
221,50.0,0,144,14.0,105.0
222,50.0,0,144,12.0,105.0
223,62.0,0,144,13.0,105.0
224,77.0,0,156,1.0,92.0
225,80.0,240,156,1.0,92.0
226,65.0,0,156,2.0,92.0
227,58.0,0,156,4.0,92.0
228,46.0,0,156,3.0,92.0
229,82.0,0,156,0.0,92.0
230,58.0,0,156,3.0,92.0
231,70.0,0,156,4.0,92.0
232,62.0,0,156,2.0,92.0
233,46.0,0,192,5.0,105.0
234,58.0,0,78,11.0,105.0
235,58.0,120,78,10.0,105.0
236,55.0,0,78,11.0,105.0
237,55.0,0,78,10.0,105.0
238,51.0,0,144,14.0,105.0
239,63.0,0,144,13.0,105.0
240,51.0,0,144,12.0,105.0
241,82.0,0,156,0.0,92.0
242,70.0,0,156,4.0,92.0
243,58.0,0,156,3.0,92.0
244,79.0,0,156,1.0,92.0
245,67.0,0,156,2.0,92.0
246,63.0,0,156,2.0,92.0
247,75.0,120,156,1.0,92.0
248,58.0,0,156,4.0,92.0
249,46.0,0,156,3.0,92.0
250,58.0,120,78,10.0,105.0
251,58.0,0,78,11.0,105.0
252,56.0,0,78,11.0,105.0
253,56.0,0,78,10.0,105.0
254,50.0,0,144,14.0,105.0
255,50.0,0,144,12.0,105.0
256,62.0,0,144,13.0,105.0
257,70.0,0,156,4.0,92.0
258,77.0,0,156,1.0,92.0
259,82.0,0,156,0.0,92.0
260,80.0,0,156,1.0,92.0
261,62.0,0,156,2.0,92.0
262,65.0,120,156,2.0,92.0
263,58.0,0,156,3.0,92.0
264,58.0,0,156,4.0,92.0
265,46.0,0,156,3.0,92.0
266,58.0,0,78,10.0,105.0
267,58.0,120,78,11.0,105.0
268,55.0,0,96,11.0,105.0
269,55.0,0,96,10.0,105.0
270,51.0,0,144,14.0,105.0
271,63.0,0,144,13.0,105.0
272,51.0,0,144,12.0,105.0
273,67.0,0,156,2.0,92.0
274,79.0,0,156,1.0,92.0
275,75.0,0,156,1.0,92.0
276,46.0,0,156,3.0,92.0
277,63.0,0,156,2.0,92.0
278,58.0,0,156,3.0,92.0
279,70.0,0,156,4.0,92.0
280,82.0,0,156,0.0,92.0
281,58.0,0,156,4.0,92.0
282,51.0,120,192,5.0,105.0
283,58.0,0,96,11.0,105.0
284,58.0,120,96,10.0,105.0
285,63.0,0,96,11.0,105.0
286,63.0,0,96,10.0,105.0
287,58.0,0,144,13.0,105.0
288,46.0,0,144,14.0,105.0
289,58.0,0,144,12.0,105.0
290,70.0,0,156,1.0,92.0
291,75.0,0,156,1.0,92.0
292,51.0,0,156,3.0,92.0
293,55.0,0,156,3.0,92.0
294,63.0,0,156,4.0,92.0
295,55.0,120,156,2.0,92.0
296,67.0,0,156,4.0,92.0
297,79.0,0,156,0.0,92.0
298,58.0,0,156,2.0,92.0
299,51.0,0,192,5.0,105.0
300,67.0,0,96,11.0,105.0
301,67.0,120,96,10.0,105.0
302,70.0,0,96,10.0,105.0
303,70.0,0,96,11.0,105.0
304,55.0,0,144,12.0,105.0
305,55.0,0,144,13.0,105.0
306,43.0,0,144,14.0,105.0
307,79.0,0,156,0.0,92.0
308,55.0,0,156,2.0,92.0
309,58.0,0,156,2.0,92.0
310,75.0,0,156,1.0,92.0
311,51.0,0,156,3.0,92.0
312,55.0,0,156,3.0,92.0
313,70.0,0,156,1.0,92.0
314,67.0,120,156,4.0,92.0
315,63.0,0,156,4.0,92.0
316,51.0,0,192,5.0,105.0
317,75.0,0,96,11.0,105.0
318,75.0,120,96,10.0,105.0
319,51.0,120,144,12.0,105.0
320,39.0,0,144,14.0,105.0
321,51.0,0,144,13.0,105.0
322,55.0,0,156,3.0,92.0
323,51.0,0,156,3.0,92.0
324,75.0,0,156,1.0,92.0
325,58.0,0,156,2.0,92.0
326,79.0,0,156,0.0,92.0
327,70.0,0,156,1.0,92.0
328,63.0,0,156,4.0,92.0
329,67.0,0,156,4.0,92.0
330,55.0,0,156,2.0,92.0
331,51.0,0,192,5.0,105.0
332,79.0,0,192,10.0,105.0
333,79.0,0,192,11.0,105.0
334,63.0,0,156,4.0,92.0
335,79.0,0,156,0.0,92.0
336,75.0,0,156,1.0,92.0
337,58.0,0,156,2.0,92.0
338,70.0,0,156,1.0,92.0
339,55.0,0,156,2.0,92.0
340,55.0,240,156,3.0,92.0
341,51.0,0,156,3.0,92.0
342,67.0,0,156,4.0,92.0
343,58.0,0,156,2.0,92.0
344,55.0,0,156,2.0,92.0
345,70.0,0,156,1.0,92.0
346,67.0,0,156,4.0,92.0
347,63.0,0,156,4.0,92.0
348,75.0,240,156,1.0,92.0
349,79.0,0,156,0.0,92.0
350,55.0,0,156,3.0,92.0
351,51.0,0,156,3.0,92.0
352,79.0,0,192,10.0,70.0
353,62.0,0,120,11.0,78.0
354,65.0,120,120,11.0,58.0
355,77.0,240,240,10.0,90.0
356,62.0,0,240,12.0,78.0
357,70.0,120,120,11.0,58.0
358,74.0,0,240,10.0,70.0
359,65.0,120,120,11.0,58.0
360,56.0,0,480,13.0,78.0
361,44.0,0,480,14.0,78.0
362,65.0,0,240,12.0,58.0
363,70.0,120,120,11.0,58.0
364,63.0,0,192,12.0,58.0
365,55.0,0,192,13.0,58.0
366,75.0,0,192,10.0,70.0
367,43.0,0,192,14.0,58.0
368,67.0,120,96,11.0,58.0
369,62.0,0,120,11.0,78.0
370,65.0,120,120,11.0,58.0
371,62.0,0,240,12.0,78.0
372,77.0,0,240,10.0,90.0
373,70.0,0,120,11.0,58.0
374,65.0,120,120,11.0,58.0
375,74.0,0,240,10.0,70.0
376,44.0,120,480,14.0,78.0
377,65.0,120,240,12.0,58.0
378,56.0,0,480,13.0,78.0
379,70.0,120,120,11.0,58.0
380,55.0,0,192,13.0,58.0
381,63.0,0,192,12.0,58.0
382,75.0,0,192,10.0,70.0
383,43.0,0,192,14.0,58.0
384,67.0,120,96,11.0,58.0
385,82.0,0,60,10.0,70.0
386,60.0,0,120,11.0,58.0
387,53.0,0,144,13.0,58.0
388,41.0,120,144,14.0,58.0
389,80.0,60,108,10.0,70.0
390,65.0,60,120,11.0,58.0
391,68.0,0,120,11.0,58.0
392,80.0,0,144,10.0,70.0
393,41.0,120,144,14.0,58.0
394,53.0,0,144,13.0,58.0
395,60.0,0,480,12.0,58.0
396,65.0,120,120,11.0,58.0
397,68.0,0,120,11.0,58.0
398,51.0,0,144,13.0,58.0
399,80.0,0,144,10.0,70.0
400,39.0,120,144,14.0,58.0
401,59.0,0,192,12.0,58.0
402,65.0,120,96,11.0,58.0
403,58.0,120,120,11.0,58.0
404,65.0,120,120,11.0,58.0
405,68.0,120,120,11.0,58.0
406,65.0,120,120,11.0,58.0
407,50.0,0,480,13.0,58.0
408,80.0,0,480,10.0,70.0
409,38.0,0,480,14.0,58.0
410,67.0,120,120,11.0,58.0
411,39.0,0,144,14.0,58.0
412,51.0,0,144,13.0,58.0
413,79.0,0,192,10.0,70.0
414,63.0,120,96,11.0,58.0
415,50.0,0,144,13.0,58.0
416,38.0,120,144,14.0,58.0
417,77.0,0,156,10.0,70.0
418,58.0,0,912,12.0,58.0
419,70.0,0,192,11.0,58.0
420,77.0,240,156,10.0,70.0
421,74.0,0,480,1.0,58.0
422,77.0,0,480,1.0,58.0
423,75.0,240,120,11.0,58.0
424,79.0,0,120,10.0,70.0
425,67.0,0,144,12.0,58.0
426,39.0,0,144,14.0,58.0
427,51.0,0,144,13.0,58.0
428,72.0,0,96,11.0,58.0
429,75.0,120,96,10.0,70.0
430,72.0,0,240,1.0,58.0
431,75.0,0,240,1.0,58.0
432,65.0,120,144,12.0,58.0
433,41.0,0,144,14.0,58.0
434,53.0,0,144,13.0,58.0
435,74.0,0,156,10.0,70.0
436,70.0,0,192,11.0,58.0
437,74.0,240,156,10.0,70.0
438,70.0,0,192,11.0,58.0
439,86.0,0,480,0.0,70.0
440,74.0,0,480,1.0,58.0
441,70.0,0,480,1.0,58.0
442,65.0,0,480,2.0,58.0
443,62.0,0,480,2.0,58.0
444,72.0,0,120,11.0,58.0
445,87.0,240,120,0.0,70.0
446,75.0,0,120,10.0,70.0
447,39.0,0,144,14.0,58.0
448,41.0,0,144,13.0,58.0
449,69.0,0,144,12.0,58.0
450,72.0,0,192,1.0,58.0
451,69.0,0,192,1.0,58.0
452,63.0,0,192,2.0,58.0
453,60.0,0,192,2.0,58.0
454,84.0,0,96,0.0,70.0
455,63.0,120,96,11.0,58.0
456,72.0,0,96,10.0,70.0
457,70.0,120,120,10.0,70.0
458,70.0,0,120,12.0,58.0
459,62.0,0,120,11.0,58.0
460,82.0,0,132,0.0,70.0
461,70.0,0,132,1.0,58.0
462,62.0,0,132,2.0,58.0
463,58.0,0,132,2.0,58.0
464,34.0,0,144,14.0,58.0
465,46.0,0,144,13.0,58.0
466,58.0,0,144,12.0,58.0
467,46.0,0,144,13.0,58.0
468,34.0,0,144,14.0,58.0
469,70.0,0,240,10.0,70.0
470,62.0,0,240,2.0,58.0
471,58.0,0,240,2.0,58.0
472,62.0,0,240,11.0,58.0
473,74.0,0,240,1.0,58.0
474,70.0,0,240,1.0,58.0
475,82.0,240,240,0.0,70.0
476,46.0,0,144,13.0,58.0
477,34.0,0,144,14.0,58.0
478,58.0,240,144,12.0,58.0
479,74.0,0,192,1.0,58.0
480,77.0,0,192,1.0,58.0
481,62.0,0,192,2.0,58.0
482,86.0,0,192,0.0,70.0
483,65.0,0,192,2.0,58.0
484,74.0,0,192,10.0,70.0
485,65.0,0,192,11.0,58.0
486,82.0,0,132,0.0,70.0
487,62.0,0,132,2.0,58.0
488,58.0,0,132,2.0,58.0
489,74.0,0,132,1.0,58.0
490,70.0,0,132,1.0,58.0
491,34.0,0,192,14.0,58.0
492,46.0,0,192,13.0,58.0
493,70.0,0,192,10.0,70.0
494,62.0,240,192,11.0,58.0
495,58.0,0,192,12.0,58.0
496,51.0,0,144,12.0,105.0
497,39.0,0,144,14.0,105.0
498,39.0,0,144,13.0,105.0
499,75.0,0,156,0.0,92.0
500,70.0,720,156,1.0,92.0
501,67.0,0,156,1.0,92.0
502,75.0,0,156,4.0,92.0
503,51.0,0,156,3.0,92.0
504,63.0,0,156,3.0,92.0
505,63.0,0,156,2.0,92.0
506,55.0,0,156,2.0,92.0
507,63.0,0,156,4.0,92.0
508,63.0,0,192,10.0,105.0
509,51.0,0,192,5.0,105.0
510,55.0,0,192,11.0,105.0
511,63.0,0,192,11.0,58.0
512,55.0,0,192,10.0,105.0
513,58.0,0,144,12.0,105.0
514,34.0,0,144,14.0,105.0
515,46.0,0,144,13.0,105.0
516,79.0,0,156,1.0,92.0
517,55.0,0,156,2.0,92.0
518,51.0,0,156,3.0,92.0
519,75.0,240,156,4.0,92.0
520,63.0,0,156,4.0,92.0
521,58.0,0,156,2.0,92.0
522,87.0,0,156,0.0,92.0
523,70.0,0,156,1.0,92.0
524,63.0,0,156,3.0,92.0
525,39.0,240,144,14.0,105.0
526,51.0,0,144,13.0,105.0
527,63.0,0,144,12.0,105.0
528,75.0,0,624,10.0,105.0
529,75.0,0,624,11.0,105.0
530,79.0,0,156,1.0,92.0
531,58.0,0,156,2.0,92.0
532,75.0,0,156,4.0,92.0
533,87.0,0,156,0.0,92.0
534,70.0,0,156,1.0,92.0
535,55.0,0,156,2.0,92.0
536,63.0,0,156,3.0,92.0
537,51.0,0,156,3.0,92.0
538,63.0,0,156,4.0,92.0
539,58.0,0,78,10.0,105.0
540,58.0,0,78,11.0,105.0
541,55.0,0,144,13.0,105.0
542,43.0,0,144,14.0,105.0
543,55.0,0,144,12.0,105.0
544,87.0,0,156,0.0,92.0
545,63.0,0,156,3.0,92.0
546,51.0,0,156,3.0,92.0
547,70.0,0,156,1.0,92.0
548,58.0,0,156,2.0,92.0
549,55.0,0,156,2.0,92.0
550,82.0,0,156,1.0,92.0
551,63.0,240,156,4.0,92.0
552,75.0,0,156,4.0,92.0
553,51.0,0,192,5.0,105.0
554,63.0,120,78,11.0,105.0
555,63.0,0,78,10.0,105.0
556,60.0,0,78,10.0,105.0
557,60.0,0,78,11.0,105.0
558,56.0,0,144,13.0,105.0
559,56.0,0,144,12.0,105.0
560,44.0,0,144,14.0,105.0
561,56.0,0,156,2.0,92.0
562,60.0,0,156,2.0,92.0
563,87.0,0,156,0.0,92.0
564,63.0,120,156,3.0,92.0
565,51.0,0,156,3.0,92.0
566,63.0,0,156,4.0,92.0
567,75.0,0,156,4.0,92.0
568,72.0,0,156,1.0,92.0
569,84.0,0,156,1.0,92.0
570,63.0,0,78,10.0,105.0
571,63.0,120,78,11.0,105.0
572,58.0,120,78,10.0,105.0
573,58.0,0,78,11.0,105.0
574,55.0,0,144,12.0,105.0
575,43.0,0,144,14.0,105.0
576,55.0,0,144,13.0,105.0
577,63.0,0,156,3.0,92.0
578,51.0,0,156,3.0,92.0
579,63.0,0,156,4.0,92.0
580,75.0,0,156,4.0,92.0
581,87.0,0,156,0.0,92.0
582,55.0,0,156,2.0,92.0
583,58.0,0,156,2.0,92.0
584,70.0,0,156,1.0,92.0
585,82.0,0,156,1.0,92.0
586,63.0,0,78,11.0,105.0
587,63.0,120,78,10.0,105.0
588,60.0,0,78,11.0,105.0
589,60.0,0,78,10.0,105.0
590,44.0,0,144,14.0,105.0
591,56.0,0,144,12.0,105.0
592,56.0,0,144,13.0,105.0
593,60.0,120,156,2.0,92.0
594,84.0,0,156,1.0,92.0
595,75.0,0,156,4.0,92.0
596,63.0,0,156,4.0,92.0
597,51.0,0,156,3.0,92.0
598,56.0,0,156,2.0,92.0
599,87.0,0,156,0.0,92.0
600,72.0,0,156,1.0,92.0
601,63.0,0,156,3.0,92.0
602,51.0,0,192,5.0,105.0
603,63.0,120,78,11.0,105.0
604,63.0,0,78,10.0,105.0
605,68.0,0,78,11.0,105.0
606,68.0,0,78,10.0,105.0
607,51.0,0,144,13.0,105.0
608,39.0,0,144,14.0,105.0
609,63.0,0,144,12.0,105.0
610,84.0,0,156,0.0,92.0
611,80.0,0,156,1.0,92.0
612,51.0,0,156,3.0,92.0
613,63.0,120,156,3.0,92.0
614,75.0,0,156,4.0,92.0
615,60.0,0,156,2.0,92.0
616,56.0,0,156,2.0,92.0
617,72.0,0,156,1.0,92.0
618,63.0,0,156,4.0,92.0
619,51.0,0,192,5.0,105.0
620,72.0,120,78,10.0,105.0
621,72.0,0,78,11.0,105.0
622,75.0,0,78,11.0,105.0
623,75.0,0,78,10.0,105.0
624,60.0,0,144,12.0,105.0
625,48.0,0,144,13.0,105.0
626,36.0,0,144,14.0,105.0
627,56.0,0,156,2.0,92.0
628,51.0,0,156,3.0,92.0
629,63.0,0,156,3.0,92.0
630,84.0,0,156,0.0,92.0
631,72.0,0,156,1.0,92.0
632,80.0,0,156,1.0,92.0
633,75.0,0,156,4.0,92.0
634,63.0,0,156,4.0,92.0
635,60.0,0,156,2.0,92.0
636,51.0,120,192,5.0,105.0
637,80.0,120,78,10.0,105.0
638,80.0,0,78,11.0,105.0
639,56.0,0,144,12.0,105.0
640,32.0,120,144,14.0,105.0
641,44.0,0,144,13.0,105.0
642,75.0,0,156,4.0,92.0
643,63.0,0,156,4.0,92.0
644,63.0,0,156,3.0,92.0
645,84.0,0,156,0.0,92.0
646,60.0,0,156,2.0,92.0
647,56.0,0,156,2.0,92.0
648,72.0,0,156,1.0,92.0
649,80.0,0,156,1.0,92.0
650,51.0,0,156,3.0,92.0
651,84.0,0,192,11.0,105.0
652,84.0,0,192,10.0,105.0
653,51.0,0,192,5.0,105.0
654,51.0,0,156,3.0,92.0
655,80.0,240,156,1.0,92.0
656,63.0,0,156,3.0,92.0
657,84.0,0,156,0.0,92.0
658,75.0,0,156,4.0,92.0
659,56.0,0,156,2.0,92.0
660,60.0,0,156,2.0,92.0
661,72.0,0,156,1.0,92.0
662,63.0,0,156,4.0,92.0
663,80.0,240,156,1.0,92.0
664,63.0,0,156,4.0,92.0
665,72.0,0,156,1.0,92.0
666,51.0,0,156,3.0,92.0
667,60.0,0,156,2.0,92.0
668,84.0,0,156,0.0,92.0
669,75.0,0,156,4.0,92.0
670,56.0,0,156,2.0,92.0
671,63.0,0,156,3.0,92.0
672,58.0,0,144,12.0,105.0
673,46.0,0,144,13.0,105.0
674,34.0,0,144,14.0,105.0
675,77.0,0,156,1.0,92.0
676,58.0,0,156,2.0,92.0
677,58.0,0,156,4.0,92.0
678,70.0,0,156,4.0,92.0
679,82.0,0,156,0.0,92.0
680,62.0,0,156,2.0,92.0
681,58.0,0,156,3.0,92.0
682,46.0,240,156,3.0,92.0
683,74.0,0,156,1.0,92.0
684,70.0,0,192,10.0,105.0
685,62.0,0,192,10.0,105.0
686,70.0,0,192,11.0,105.0
687,46.0,0,192,5.0,105.0
688,62.0,0,192,11.0,105.0
689,38.0,0,144,14.0,105.0
690,50.0,240,144,13.0,105.0
691,65.0,0,144,12.0,105.0
692,82.0,0,156,0.0,92.0
693,70.0,0,156,4.0,92.0
694,65.0,0,156,2.0,92.0
695,74.0,0,156,1.0,92.0
696,62.0,0,156,2.0,92.0
697,58.0,0,156,4.0,92.0
698,58.0,0,156,3.0,92.0
699,77.0,0,156,1.0,92.0
700,46.0,0,156,3.0,92.0
701,82.0,0,624,11.0,105.0
702,70.0,0,144,12.0,105.0
703,82.0,0,624,10.0,105.0
704,58.0,0,144,13.0,105.0
705,46.0,0,144,14.0,105.0
706,82.0,240,156,0.0,92.0
707,58.0,0,156,3.0,92.0
708,46.0,0,156,3.0,92.0
709,74.0,0,156,1.0,92.0
710,70.0,0,156,4.0,92.0
711,58.0,0,156,4.0,92.0
712,62.0,0,156,2.0,92.0
713,77.0,0,156,1.0,92.0
714,65.0,0,156,2.0,92.0
715,56.0,0,78,10.0,105.0
716,56.0,0,78,11.0,105.0
717,62.0,0,144,13.0,105.0
718,50.0,0,144,14.0,105.0
719,50.0,0,144,12.0,105.0
720,82.0,0,156,0.0,92.0
721,77.0,0,156,1.0,92.0
722,80.0,0,156,1.0,92.0
723,46.0,0,156,3.0,92.0
724,58.0,0,156,3.0,92.0
725,58.0,0,156,4.0,92.0
726,62.0,0,156,2.0,92.0
727,65.0,0,156,2.0,92.0
728,70.0,240,156,4.0,92.0
729,46.0,0,192,5.0,105.0
730,58.0,0,78,10.0,105.0
731,58.0,120,78,11.0,105.0
732,55.0,0,78,11.0,105.0
733,55.0,0,78,10.0,105.0
734,51.0,0,144,14.0,105.0
735,63.0,0,144,13.0,105.0
736,51.0,0,144,12.0,105.0
737,58.0,0,156,3.0,92.0
738,58.0,0,156,4.0,92.0
739,70.0,0,156,4.0,92.0
740,79.0,0,156,1.0,92.0
741,63.0,120,156,2.0,92.0
742,82.0,0,156,0.0,92.0
743,75.0,0,156,1.0,92.0
744,67.0,0,156,2.0,92.0
745,46.0,0,156,3.0,92.0
746,58.0,120,78,11.0,105.0
747,58.0,0,78,10.0,105.0
748,56.0,0,78,11.0,105.0
749,56.0,0,78,10.0,105.0
750,62.0,0,144,13.0,105.0
751,50.0,0,144,12.0,105.0
752,50.0,0,144,14.0,105.0
753,46.0,0,156,3.0,92.0
754,70.0,0,156,4.0,92.0
755,65.0,120,156,2.0,92.0
756,62.0,0,156,2.0,92.0
757,58.0,0,156,4.0,92.0
758,58.0,0,156,3.0,92.0
759,80.0,0,156,1.0,92.0
760,82.0,0,156,0.0,92.0
761,77.0,0,156,1.0,92.0
762,58.0,0,78,10.0,105.0
763,58.0,120,78,11.0,105.0
764,55.0,0,96,10.0,105.0
765,55.0,0,96,11.0,105.0
766,51.0,0,144,14.0,105.0
767,63.0,0,144,13.0,105.0
768,51.0,0,144,12.0,105.0
769,46.0,0,156,3.0,92.0
770,63.0,0,156,2.0,92.0
771,58.0,0,156,4.0,92.0
772,70.0,0,156,4.0,92.0
773,75.0,0,156,1.0,92.0
774,79.0,0,156,1.0,92.0
775,67.0,0,156,2.0,92.0
776,58.0,0,156,3.0,92.0
777,82.0,0,156,0.0,92.0
778,51.0,120,192,5.0,105.0
779,58.0,120,96,11.0,105.0
780,58.0,0,96,10.0,105.0
781,63.0,0,96,10.0,105.0
782,63.0,0,96,11.0,105.0
783,58.0,0,144,12.0,105.0
784,58.0,120,144,13.0,105.0
785,46.0,0,144,14.0,105.0
786,75.0,0,156,1.0,92.0
787,70.0,0,156,1.0,92.0
788,63.0,0,156,4.0,92.0
789,67.0,0,156,4.0,92.0
790,58.0,0,156,2.0,92.0
791,51.0,0,156,3.0,92.0
792,79.0,0,156,0.0,92.0
793,55.0,0,156,3.0,92.0
794,55.0,0,156,2.0,92.0
795,51.0,0,192,5.0,105.0
796,67.0,0,96,11.0,105.0
797,67.0,120,96,10.0,105.0
798,70.0,0,96,10.0,105.0
799,70.0,0,96,11.0,105.0
800,55.0,0,144,12.0,105.0
801,43.0,0,144,14.0,105.0
802,55.0,0,144,13.0,105.0
803,79.0,0,156,0.0,92.0
804,51.0,0,156,3.0,92.0
805,55.0,0,156,3.0,92.0
806,63.0,120,156,4.0,92.0
807,67.0,0,156,4.0,92.0
808,70.0,0,156,1.0,92.0
809,58.0,0,156,2.0,92.0
810,55.0,0,156,2.0,92.0
811,75.0,0,156,1.0,92.0
812,51.0,0,192,5.0,105.0
813,75.0,120,96,10.0,105.0
814,75.0,0,96,11.0,105.0
815,39.0,0,144,14.0,105.0
816,51.0,0,144,13.0,105.0
817,51.0,0,144,12.0,105.0
818,51.0,0,156,3.0,92.0
819,63.0,0,156,4.0,92.0
820,67.0,0,156,4.0,92.0
821,55.0,0,156,2.0,92.0
822,79.0,0,156,0.0,92.0
823,58.0,0,156,2.0,92.0
824,70.0,0,156,1.0,92.0
825,75.0,0,156,1.0,92.0
826,55.0,0,156,3.0,92.0
827,51.0,0,192,5.0,105.0
828,79.0,0,192,10.0,105.0
829,79.0,120,192,11.0,105.0
830,67.0,0,156,4.0,92.0
831,55.0,0,156,2.0,92.0
832,51.0,0,156,3.0,92.0
833,55.0,0,156,3.0,92.0
834,75.0,0,156,1.0,92.0
835,58.0,0,156,2.0,92.0
836,63.0,0,156,4.0,92.0
837,70.0,0,156,1.0,92.0
838,79.0,240,156,0.0,92.0
839,75.0,0,156,1.0,92.0
840,63.0,0,156,4.0,92.0
841,55.0,0,156,2.0,92.0
842,55.0,0,156,3.0,92.0
843,79.0,0,156,0.0,92.0
844,51.0,0,156,3.0,92.0
845,70.0,240,156,1.0,92.0
846,58.0,0,156,2.0,92.0
847,67.0,0,156,4.0,92.0
848,79.0,0,192,10.0,70.0
849,62.0,0,120,11.0,78.0
850,77.0,0,240,10.0,90.0
851,62.0,240,240,12.0,78.0
852,65.0,120,120,11.0,58.0
853,70.0,0,120,11.0,58.0
854,65.0,120,120,11.0,58.0
855,56.0,0,480,13.0,78.0
856,44.0,0,480,14.0,78.0
857,65.0,0,240,12.0,58.0
858,74.0,120,240,10.0,70.0
859,70.0,0,120,11.0,58.0
860,55.0,0,192,13.0,58.0
861,43.0,120,192,14.0,58.0
862,75.0,0,192,10.0,70.0
863,63.0,0,192,12.0,58.0
864,67.0,120,96,11.0,58.0
865,62.0,0,120,11.0,78.0
866,65.0,120,120,11.0,58.0
867,62.0,120,240,12.0,78.0
868,77.0,0,240,10.0,90.0
869,70.0,0,120,11.0,58.0
870,65.0,120,120,11.0,58.0
871,74.0,0,240,10.0,70.0
872,56.0,0,480,13.0,78.0
873,65.0,120,240,12.0,58.0
874,44.0,0,480,14.0,78.0
875,70.0,120,120,11.0,58.0
876,75.0,0,192,10.0,70.0
877,43.0,0,192,14.0,58.0
878,55.0,0,192,13.0,58.0
879,63.0,0,192,12.0,58.0
880,67.0,120,96,11.0,58.0
881,82.0,0,60,10.0,70.0
882,60.0,120,120,11.0,58.0
883,53.0,0,144,13.0,58.0
884,41.0,0,144,14.0,58.0
885,80.0,60,108,10.0,70.0
886,65.0,60,120,11.0,58.0
887,68.0,0,120,11.0,58.0
888,53.0,0,144,13.0,58.0
889,80.0,0,144,10.0,70.0
890,41.0,120,144,14.0,58.0
891,65.0,120,120,11.0,58.0
892,60.0,0,480,12.0,58.0
893,68.0,0,120,11.0,58.0
894,80.0,0,144,10.0,70.0
895,39.0,0,144,14.0,58.0
896,51.0,120,144,13.0,58.0
897,59.0,0,192,12.0,58.0
898,65.0,120,96,11.0,58.0
899,58.0,120,120,11.0,58.0
900,65.0,120,120,11.0,58.0
901,68.0,120,120,11.0,58.0
902,65.0,120,120,11.0,58.0
903,38.0,0,480,14.0,58.0
904,50.0,0,480,13.0,58.0
905,80.0,0,480,10.0,70.0
906,67.0,0,120,11.0,58.0
907,39.0,0,144,14.0,58.0
908,51.0,120,144,13.0,58.0
909,79.0,0,192,10.0,70.0
910,63.0,120,96,11.0,58.0
911,38.0,120,144,14.0,58.0
912,50.0,0,144,13.0,58.0
913,77.0,0,156,10.0,70.0
914,70.0,0,192,11.0,58.0
915,58.0,0,912,12.0,58.0
916,77.0,240,156,10.0,70.0
917,77.0,0,480,1.0,58.0
918,74.0,0,480,1.0,58.0
919,79.0,0,120,10.0,70.0
920,75.0,240,120,11.0,58.0
921,39.0,0,144,14.0,58.0
922,51.0,0,144,13.0,58.0
923,67.0,0,144,12.0,58.0
924,72.0,0,96,11.0,58.0
925,75.0,120,96,10.0,70.0
926,75.0,0,240,1.0,58.0
927,72.0,0,240,1.0,58.0
928,65.0,0,144,12.0,58.0
929,53.0,0,144,13.0,58.0
930,41.0,120,144,14.0,58.0
931,74.0,0,156,10.0,70.0
932,70.0,0,192,11.0,58.0
933,74.0,0,156,10.0,70.0
934,70.0,240,192,11.0,58.0
935,62.0,0,480,2.0,58.0
936,86.0,0,480,0.0,70.0
937,70.0,0,480,1.0,58.0
938,74.0,0,480,1.0,58.0
939,65.0,0,480,2.0,58.0
940,87.0,0,120,0.0,70.0
941,75.0,240,120,10.0,70.0
942,72.0,0,120,11.0,58.0
943,41.0,0,144,13.0,58.0
944,69.0,0,144,12.0,58.0
945,39.0,0,144,14.0,58.0
946,72.0,0,192,1.0,58.0
947,69.0,0,192,1.0,58.0
948,63.0,0,192,2.0,58.0
949,60.0,0,192,2.0,58.0
950,84.0,0,96,0.0,70.0
951,72.0,0,96,10.0,70.0
952,63.0,120,96,11.0,58.0
953,62.0,0,120,11.0,58.0
954,70.0,0,120,12.0,58.0
955,70.0,0,120,10.0,70.0
956,82.0,0,132,0.0,70.0
957,62.0,0,132,2.0,58.0
958,58.0,0,132,2.0,58.0
959,70.0,120,132,1.0,58.0
960,34.0,0,144,14.0,58.0
961,46.0,0,144,13.0,58.0
962,58.0,0,144,12.0,58.0
963,34.0,240,144,14.0,58.0
964,46.0,0,144,13.0,58.0
965,74.0,0,0,1.0,58.0
966,70.0,0,240,1.0,58.0
967,62.0,0,240,11.0,58.0
968,62.0,0,0,2.0,58.0
969,58.0,0,240,2.0,58.0
970,70.0,0,240,10.0,70.0
971,82.0,0,240,0.0,70.0
972,58.0,0,144,12.0,58.0
973,46.0,240,144,13.0,58.0
974,34.0,0,144,14.0,58.0
975,77.0,0,192,1.0,58.0
976,74.0,0,192,10.0,70.0
977,65.0,0,192,2.0,58.0
978,65.0,0,192,11.0,58.0
979,86.0,0,192,0.0,70.0
980,74.0,0,132,1.0,58.0
981,70.0,0,132,1.0,58.0
982,82.0,0,132,0.0,70.0
983,58.0,240,132,2.0,58.0
984,62.0,0,132,2.0,58.0
985,58.0,0,192,12.0,58.0
986,70.0,0,192,10.0,70.0
987,46.0,0,192,13.0,58.0
988,34.0,0,192,14.0,58.0
989,62.0,0,192,11.0,58.0
990,58.0,0,144,12.0,105.0
991,34.0,0,144,14.0,105.0
992,46.0,0,144,13.0,105.0
993,58.0,0,192,3.0,92.0
994,82.0,0,192,1.0,92.0
995,70.0,0,192,1.0,92.0
996,70.0,0,192,4.0,92.0
997,46.0,0,192,3.0,92.0
998,46.0,0,192,5.0,105.0
999,82.0,720,192,0.0,92.0
1000,70.0,0,192,10.0,105.0
1001,62.0,0,192,10.0,105.0
1002,58.0,0,192,4.0,92.0
1003,70.0,0,192,11.0,105.0
1004,62.0,0,192,11.0,105.0
1005,62.0,0,144,12.0,105.0
1006,58.0,0,144,13.0,105.0
1007,46.0,240,144,14.0,105.0
1008,82.0,0,432,11.0,105.0
1009,82.0,0,192,1.0,92.0
1010,82.0,0,192,0.0,92.0
1011,70.0,0,192,1.0,92.0
1012,46.0,0,192,3.0,92.0
1013,58.0,0,192,3.0,92.0
1014,82.0,0,432,10.0,105.0
1015,58.0,0,192,4.0,92.0
1016,70.0,0,192,4.0,92.0
1017,74.0,0,78,10.0,105.0
1018,74.0,0,78,11.0,105.0
1019,65.0,240,144,12.0,105.0
1020,44.0,0,144,14.0,105.0
1021,56.0,0,144,13.0,105.0
1022,82.0,0,192,1.0,92.0
1023,70.0,0,192,4.0,92.0
1024,58.0,0,192,4.0,92.0
1025,58.0,0,192,3.0,92.0
1026,70.0,0,192,1.0,92.0
1027,82.0,0,192,0.0,92.0
1028,46.0,0,192,3.0,92.0
1029,70.0,0,78,11.0,105.0
1030,70.0,120,78,10.0,105.0
1031,75.0,0,78,10.0,105.0
1032,75.0,0,78,11.0,105.0
1033,67.0,0,144,12.0,105.0
1034,43.0,0,144,14.0,105.0
1035,55.0,0,144,13.0,105.0
1036,58.0,0,192,3.0,92.0
1037,70.0,0,192,4.0,92.0
1038,58.0,0,192,4.0,92.0
1039,46.0,0,192,3.0,92.0
1040,82.0,0,192,0.0,92.0
1041,58.0,0,912,2.0,92.0
1042,82.0,120,192,1.0,92.0
1043,70.0,0,192,1.0,92.0
1044,70.0,0,78,10.0,105.0
1045,70.0,120,78,11.0,105.0
1046,77.0,0,78,11.0,105.0
1047,77.0,0,78,10.0,105.0
1048,53.0,0,144,13.0,105.0
1049,41.0,0,144,14.0,105.0
1050,68.0,0,144,12.0,105.0
1051,46.0,0,192,3.0,92.0
1052,58.0,0,192,3.0,92.0
1053,82.0,0,192,1.0,92.0
1054,82.0,0,192,0.0,92.0
1055,70.0,0,192,4.0,92.0
1056,70.0,0,192,1.0,92.0
1057,58.0,120,192,4.0,92.0
1058,70.0,120,78,10.0,105.0
1059,70.0,0,78,11.0,105.0
1060,50.0,0,240,2.0,92.0
1061,79.0,0,78,11.0,105.0
1062,79.0,0,78,10.0,105.0
1063,51.0,120,144,13.0,105.0
1064,39.0,0,144,14.0,105.0
1065,67.0,0,144,12.0,105.0
1066,82.0,0,192,0.0,92.0
1067,82.0,0,192,1.0,92.0
1068,58.0,0,192,4.0,92.0
1069,70.0,0,192,4.0,92.0
1070,51.0,0,192,2.0,92.0
1071,70.0,0,192,1.0,92.0
1072,58.0,0,192,3.0,92.0
1073,46.0,0,192,3.0,92.0
1074,70.0,120,78,10.0,105.0
1075,70.0,0,78,11.0,105.0
1076,50.0,0,144,13.0,105.0
1077,38.0,0,144,14.0,105.0
1078,65.0,0,144,12.0,105.0
1079,82.0,0,192,0.0,92.0
1080,58.0,0,192,3.0,92.0
1081,46.0,0,192,3.0,92.0
1082,58.0,0,192,4.0,92.0
1083,70.0,0,192,1.0,92.0
1084,46.0,0,192,5.0,105.0
1085,70.0,120,192,4.0,92.0
1086,82.0,0,192,1.0,92.0
1087,53.0,0,240,2.0,92.0
1088,46.0,0,144,13.0,105.0
1089,34.0,240,144,14.0,105.0
1090,80.0,0,384,11.0,105.0
1091,80.0,0,384,10.0,105.0
1092,62.0,0,144,12.0,105.0
1093,58.0,0,192,3.0,92.0
1094,70.0,0,192,4.0,92.0
1095,82.0,0,192,1.0,92.0
1096,70.0,0,192,1.0,92.0
1097,82.0,0,192,0.0,92.0
1098,58.0,0,192,4.0,92.0
1099,46.0,0,192,3.0,92.0
1100,62.0,0,78,11.0,105.0
1101,62.0,0,78,10.0,105.0
1102,44.0,0,144,13.0,105.0
1103,32.0,0,144,14.0,105.0
1104,53.0,0,144,12.0,105.0
1105,82.0,0,192,0.0,92.0
1106,58.0,0,192,3.0,92.0
1107,70.0,0,192,4.0,92.0
1108,46.0,0,192,3.0,92.0
1109,58.0,0,192,4.0,92.0
1110,70.0,240,192,1.0,92.0
1111,82.0,0,192,1.0,92.0
1112,70.0,0,78,11.0,105.0
1113,70.0,120,78,10.0,105.0
1114,63.0,0,78,11.0,105.0
1115,63.0,0,78,10.0,105.0
1116,43.0,0,144,13.0,105.0
1117,31.0,0,144,14.0,105.0
1118,55.0,0,144,12.0,105.0
1119,70.0,0,192,1.0,92.0
1120,82.0,0,192,1.0,92.0
1121,58.0,120,192,3.0,92.0
1122,82.0,0,192,0.0,92.0
1123,46.0,0,192,3.0,92.0
1124,70.0,0,192,4.0,92.0
1125,58.0,0,192,4.0,92.0
1126,58.0,0,672,2.0,92.0
1127,70.0,0,78,10.0,105.0
1128,70.0,120,78,11.0,105.0
1129,65.0,0,78,11.0,105.0
1130,65.0,0,78,10.0,105.0
1131,56.0,0,144,12.0,105.0
1132,29.0,0,144,14.0,105.0
1133,41.0,0,144,13.0,105.0
1134,82.0,0,192,0.0,92.0
1135,58.0,0,192,4.0,92.0
1136,70.0,0,192,4.0,92.0
1137,82.0,120,192,1.0,92.0
1138,70.0,0,192,1.0,92.0
1139,58.0,0,192,3.0,92.0
1140,46.0,0,192,3.0,92.0
1141,70.0,0,78,11.0,105.0
1142,70.0,120,78,10.0,105.0
1143,62.0,0,240,2.0,92.0
1144,67.0,0,78,11.0,105.0
1145,67.0,0,78,10.0,105.0
1146,39.0,120,144,13.0,105.0
1147,58.0,0,144,12.0,105.0
1148,39.0,0,144,14.0,105.0
1149,58.0,0,192,3.0,92.0
1150,70.0,0,192,1.0,92.0
1151,58.0,0,192,4.0,92.0
1152,82.0,0,192,1.0,92.0
1153,70.0,0,192,4.0,92.0
1154,46.0,0,192,3.0,92.0
1155,82.0,0,192,0.0,92.0
1156,70.0,0,78,10.0,105.0
1157,70.0,120,78,11.0,105.0
1158,63.0,0,240,2.0,92.0
1159,60.0,0,120,10.0,105.0
1160,60.0,0,120,11.0,105.0
1161,53.0,0,192,12.0,105.0
1162,84.0,0,192,0.0,92.0
1163,65.0,0,192,2.0,92.0
1164,60.0,0,192,2.0,92.0
1165,72.0,0,192,1.0,92.0
1166,44.0,120,192,13.0,105.0
1167,32.0,0,192,14.0,105.0
1168,80.0,0,192,1.0,92.0
1169,64.0,0,78,11.0,105.0
1170,64.0,120,78,10.0,105.0
1171,65.0,0,78,10.0,105.0
1172,65.0,120,78,11.0,105.0
1173,67.0,0,78,11.0,105.0
1174,67.0,120,78,10.0,105.0
1175,68.0,0,78,10.0,105.0
1176,68.0,120,78,11.0,105.0
1177,71.0,120,78,11.0,105.0
1178,71.0,0,78,10.0,105.0
1179,72.0,120,120,10.0,105.0
1180,72.0,0,120,11.0,105.0
1181,56.0,0,192,13.0,105.0
1182,65.0,0,192,2.0,92.0
1183,44.0,0,192,14.0,105.0
1184,80.0,0,192,0.0,92.0
1185,60.0,0,192,2.0,92.0
1186,65.0,0,192,12.0,105.0
1187,77.0,0,192,1.0,92.0
1188,72.0,0,192,1.0,92.0
1189,76.0,120,78,11.0,105.0
1190,76.0,0,78,10.0,105.0
1191,77.0,120,78,11.0,105.0
1192,77.0,0,78,10.0,105.0
1193,79.0,120,78,10.0,105.0
1194,79.0,0,78,11.0,105.0
1195,80.0,0,78,10.0,105.0
1196,80.0,120,78,11.0,105.0
1197,77.0,120,78,10.0,105.0
1198,77.0,0,78,11.0,105.0
1199,75.0,0,120,11.0,105.0
1200,75.0,0,120,10.0,105.0
1201,46.0,0,192,3.0,92.0
1202,46.0,0,192,5.0,105.0
1203,56.0,0,192,2.0,92.0
1204,62.0,0,192,2.0,92.0
1205,46.0,0,192,14.0,105.0
1206,68.0,0,192,1.0,92.0
1207,58.0,0,192,4.0,92.0
1208,65.0,0,192,3.0,92.0
1209,74.0,120,192,1.0,92.0
1210,77.0,0,192,0.0,92.0
1211,68.0,0,192,12.0,105.0
1212,58.0,0,192,12.0,105.0
1213,70.0,0,192,4.0,92.0
1214,58.0,0,192,13.0,105.0
1215,74.0,0,96,11.0,105.0
1216,74.0,120,96,10.0,105.0
1217,79.0,0,120,10.0,105.0
1218,79.0,120,120,11.0,105.0
1219,77.0,0,96,11.0,105.0
1220,77.0,120,96,10.0,105.0
1221,75.0,120,120,11.0,105.0
1222,75.0,0,120,10.0,105.0
1223,74.0,0,96,11.0,105.0
1224,74.0,120,96,10.0,105.0
1225,72.0,0,120,10.0,105.0
1226,72.0,120,120,11.0,105.0
1227,70.0,0,120,11.0,105.0
1228,70.0,120,120,10.0,105.0
1229,69.0,120,120,11.0,105.0
1230,69.0,0,120,10.0,105.0
1231,70.0,0,120,10.0,105.0
1232,70.0,120,120,11.0,105.0
1233,68.0,0,120,10.0,105.0
1234,68.0,120,120,11.0,105.0
1235,65.0,120,96,10.0,105.0
1236,65.0,0,96,11.0,105.0
1237,67.0,0,156,1.0,92.0
1238,51.0,0,156,3.0,92.0
1239,55.0,0,156,2.0,92.0
1240,51.0,0,156,2.0,92.0
1241,70.0,0,156,1.0,92.0
1242,39.0,0,156,14.0,105.0
1243,63.0,0,156,3.0,92.0
1244,75.0,0,156,0.0,92.0
1245,51.0,0,156,12.0,105.0
1246,39.0,0,156,13.0,105.0
1247,75.0,0,156,4.0,92.0
1248,63.0,0,156,4.0,92.0
1249,55.0,0,192,10.0,105.0
1250,55.0,0,192,11.0,105.0
1251,63.0,0,192,11.0,105.0
1252,51.0,0,192,5.0,105.0
1253,63.0,120,192,10.0,105.0
1254,87.0,0,156,0.0,92.0
1255,82.0,0,156,1.0,92.0
1256,79.0,0,156,1.0,92.0
1257,34.0,0,156,14.0,105.0
1258,46.0,240,156,13.0,105.0
1259,58.0,0,156,2.0,92.0
1260,58.0,0,156,12.0,105.0
1261,51.0,0,156,3.0,92.0
1262,63.0,0,156,3.0,92.0
1263,55.0,0,156,2.0,92.0
1264,63.0,0,156,4.0,92.0
1265,75.0,0,156,4.0,92.0
1266,75.0,0,624,10.0,105.0
1267,75.0,0,624,11.0,105.0
1268,58.0,0,156,2.0,92.0
1269,55.0,0,156,2.0,92.0
1270,63.0,0,156,4.0,92.0
1271,75.0,0,156,4.0,92.0
1272,82.0,0,156,1.0,92.0
1273,87.0,0,156,0.0,92.0
1274,39.0,0,156,14.0,105.0
1275,51.0,0,156,3.0,92.0
1276,63.0,0,156,3.0,92.0
1277,79.0,0,156,1.0,92.0
1278,51.0,240,156,13.0,105.0
1279,63.0,0,156,12.0,105.0
1280,58.0,0,78,11.0,105.0
1281,58.0,0,78,10.0,105.0
1282,75.0,0,156,4.0,92.0
1283,63.0,0,156,4.0,92.0
1284,43.0,0,156,14.0,105.0
1285,55.0,0,156,2.0,92.0
1286,55.0,0,156,12.0,105.0
1287,63.0,0,156,3.0,92.0
1288,82.0,240,156,1.0,92.0
1289,51.0,0,156,3.0,92.0
1290,58.0,0,156,2.0,92.0
1291,70.0,0,156,1.0,92.0
1292,55.0,0,156,13.0,105.0
1293,87.0,0,156,0.0,92.0
1294,51.0,0,192,5.0,105.0
1295,63.0,120,78,11.0,105.0
1296,63.0,0,78,10.0,105.0
1297,60.0,120,78,11.0,105.0
1298,60.0,0,78,10.0,105.0
1299,56.0,0,156,13.0,105.0
1300,60.0,0,156,2.0,92.0
1301,75.0,0,156,4.0,92.0
1302,63.0,0,156,3.0,92.0
1303,87.0,0,156,0.0,92.0
1304,51.0,0,156,3.0,92.0
1305,56.0,0,156,12.0,105.0
1306,56.0,0,156,2.0,92.0
1307,63.0,0,156,4.0,92.0
1308,84.0,0,156,1.0,92.0
1309,44.0,0,156,14.0,105.0
1310,72.0,0,156,1.0,92.0
1311,51.0,0,192,5.0,105.0
1312,63.0,0,78,11.0,105.0
1313,63.0,120,78,10.0,105.0
1314,58.0,0,78,10.0,105.0
1315,58.0,0,78,11.0,105.0
1316,55.0,0,156,13.0,105.0
1317,58.0,0,156,2.0,92.0
1318,55.0,0,156,12.0,105.0
1319,87.0,0,156,0.0,92.0
1320,43.0,0,156,14.0,105.0
1321,51.0,0,156,3.0,92.0
1322,63.0,0,156,3.0,92.0
1323,63.0,0,156,4.0,92.0
1324,82.0,120,156,1.0,92.0
1325,70.0,0,156,1.0,92.0
1326,55.0,0,156,2.0,92.0
1327,75.0,0,156,4.0,92.0
1328,51.0,0,192,5.0,105.0
1329,63.0,0,78,10.0,105.0
1330,63.0,120,78,11.0,105.0
1331,60.0,0,78,10.0,105.0
1332,60.0,0,78,11.0,105.0
1333,44.0,0,156,14.0,105.0
1334,51.0,0,156,3.0,92.0
1335,72.0,120,156,1.0,92.0
1336,84.0,0,156,1.0,92.0
1337,63.0,0,156,4.0,92.0
1338,56.0,0,156,13.0,105.0
1339,56.0,0,156,12.0,105.0
1340,75.0,0,156,4.0,92.0
1341,63.0,0,156,3.0,92.0
1342,87.0,0,156,0.0,92.0
1343,56.0,0,156,2.0,92.0
1344,60.0,0,156,2.0,92.0
1345,51.0,0,192,5.0,105.0
1346,63.0,120,78,10.0,105.0
1347,63.0,0,78,11.0,105.0
1348,68.0,0,78,11.0,105.0
1349,68.0,120,78,10.0,105.0
1350,72.0,0,156,1.0,92.0
1351,51.0,0,156,3.0,92.0
1352,63.0,0,156,3.0,92.0
1353,60.0,0,156,2.0,92.0
1354,56.0,0,156,2.0,92.0
1355,63.0,0,156,4.0,92.0
1356,75.0,0,156,4.0,92.0
1357,84.0,0,156,0.0,92.0
1358,80.0,0,156,1.0,92.0
1359,51.0,0,156,13.0,105.0
1360,39.0,0,156,14.0,105.0
1361,63.0,0,156,12.0,105.0
1362,51.0,0,192,5.0,105.0
1363,72.0,120,78,11.0,105.0
1364,72.0,0,78,10.0,105.0
1365,75.0,120,78,10.0,105.0
1366,75.0,0,78,11.0,105.0
1367,48.0,0,156,13.0,105.0
1368,36.0,0,156,14.0,105.0
1369,56.0,0,156,2.0,92.0
1370,80.0,0,156,1.0,92.0
1371,72.0,0,156,1.0,92.0
1372,51.0,0,156,3.0,92.0
1373,84.0,0,156,0.0,92.0
1374,60.0,0,156,12.0,105.0
1375,75.0,0,156,4.0,92.0
1376,63.0,0,156,4.0,92.0
1377,60.0,0,156,2.0,92.0
1378,63.0,0,156,3.0,92.0
1379,51.0,0,192,5.0,105.0
1380,80.0,0,78,11.0,105.0
1381,80.0,120,78,10.0,105.0
1382,72.0,0,156,1.0,92.0
1383,63.0,0,156,4.0,92.0
1384,44.0,0,156,13.0,105.0
1385,51.0,0,156,3.0,92.0
1386,80.0,0,156,1.0,92.0
1387,60.0,0,156,2.0,92.0
1388,84.0,120,156,0.0,92.0
1389,56.0,0,156,2.0,92.0
1390,63.0,0,156,3.0,92.0
1391,32.0,0,156,14.0,105.0
1392,56.0,0,156,12.0,105.0
1393,75.0,0,156,4.0,92.0
1394,51.0,0,192,5.0,105.0
1395,84.0,0,192,11.0,105.0
1396,84.0,0,192,10.0,105.0
1397,80.0,0,156,1.0,92.0
1398,72.0,240,156,1.0,92.0
1399,51.0,0,156,3.0,92.0
1400,63.0,0,156,3.0,92.0
1401,56.0,0,156,2.0,92.0
1402,60.0,0,156,2.0,92.0
1403,84.0,0,156,0.0,92.0
1404,75.0,0,156,4.0,92.0
1405,63.0,0,156,4.0,92.0
1406,63.0,0,156,4.0,92.0
1407,75.0,0,156,4.0,92.0
1408,63.0,240,156,3.0,92.0
1409,72.0,0,156,1.0,92.0
1410,80.0,0,156,1.0,92.0
1411,56.0,0,156,2.0,92.0
1412,60.0,0,156,2.0,92.0
1413,51.0,0,156,3.0,92.0
1414,84.0,0,156,0.0,92.0
1415,82.0,0,156,0.0,92.0
1416,70.0,0,156,4.0,92.0
1417,58.0,0,156,4.0,92.0
1418,34.0,0,156,14.0,105.0
1419,74.0,0,156,1.0,92.0
1420,46.0,0,156,13.0,105.0
1421,77.0,0,156,1.0,92.0
1422,58.0,0,156,3.0,92.0
1423,46.0,0,156,3.0,92.0
1424,58.0,0,156,2.0,92.0
1425,62.0,0,156,2.0,92.0
1426,58.0,0,156,12.0,105.0
1427,62.0,0,192,10.0,105.0
1428,70.0,0,192,11.0,105.0
1429,62.0,0,192,11.0,105.0
1430,46.0,240,192,5.0,105.0
1431,70.0,0,192,10.0,105.0
1432,58.0,0,156,3.0,92.0
1433,53.0,0,156,13.0,105.0
1434,58.0,0,156,4.0,92.0
1435,65.0,240,156,2.0,92.0
1436,62.0,0,156,2.0,92.0
1437,41.0,0,156,14.0,105.0
1438,82.0,0,156,0.0,92.0
1439,65.0,0,156,12.0,105.0
1440,46.0,0,156,3.0,92.0
1441,70.0,0,156,4.0,92.0
1442,74.0,0,156,1.0,92.0
1443,77.0,0,156,1.0,92.0
1444,82.0,0,624,10.0,105.0
1445,82.0,0,624,11.0,105.0
1446,70.0,0,156,12.0,105.0
1447,82.0,0,156,0.0,92.0
1448,62.0,0,156,2.0,92.0
1449,70.0,240,156,4.0,92.0
1450,77.0,0,156,1.0,92.0
1451,46.0,0,156,3.0,92.0
1452,58.0,0,156,3.0,92.0
1453,58.0,0,156,13.0,105.0
1454,58.0,0,156,4.0,92.0
1455,46.0,0,156,14.0,105.0
1456,65.0,0,156,2.0,92.0
1457,74.0,0,156,1.0,92.0
1458,56.0,0,78,10.0,105.0
1459,56.0,0,78,11.0,105.0
1460,77.0,0,156,1.0,92.0
1461,58.0,0,156,4.0,92.0
1462,46.0,240,156,3.0,92.0
1463,58.0,0,156,3.0,92.0
1464,80.0,0,156,1.0,92.0
1465,70.0,0,156,4.0,92.0
1466,62.0,0,156,2.0,92.0
1467,82.0,0,156,0.0,92.0
1468,50.0,0,156,12.0,105.0
1469,65.0,0,156,2.0,92.0
1470,62.0,0,156,13.0,105.0
1471,50.0,0,156,14.0,105.0
1472,46.0,0,192,5.0,105.0
1473,58.0,0,78,10.0,105.0
1474,58.0,120,78,11.0,105.0
1475,55.0,0,78,11.0,105.0
1476,55.0,0,78,10.0,105.0
1477,51.0,0,156,14.0,105.0
1478,51.0,0,156,12.0,105.0
1479,79.0,0,156,1.0,92.0
1480,58.0,0,156,4.0,92.0
1481,70.0,120,156,4.0,92.0
1482,75.0,0,156,1.0,92.0
1483,58.0,0,156,3.0,92.0
1484,67.0,0,156,2.0,92.0
1485,46.0,0,156,3.0,92.0
1486,63.0,0,156,13.0,105.0
1487,63.0,0,156,2.0,92.0
1488,82.0,0,156,0.0,92.0
1489,46.0,0,192,5.0,105.0
1490,58.0,120,78,11.0,105.0
1491,58.0,0,78,10.0,105.0
1492,56.0,0,78,11.0,105.0
1493,56.0,0,78,10.0,105.0
1494,62.0,0,156,13.0,105.0
1495,65.0,0,156,2.0,92.0
1496,62.0,0,156,2.0,92.0
1497,50.0,0,156,14.0,105.0
1498,82.0,0,156,0.0,92.0
1499,58.0,0,156,4.0,92.0
1500,46.0,0,156,3.0,92.0
1501,70.0,0,156,4.0,92.0
1502,50.0,120,156,12.0,105.0
1503,58.0,0,156,3.0,92.0
1504,77.0,0,156,1.0,92.0
1505,80.0,0,156,1.0,92.0
1506,46.0,0,192,5.0,105.0
1507,58.0,120,78,10.0,105.0
1508,58.0,0,78,11.0,105.0
1509,55.0,0,78,10.0,105.0
1510,55.0,0,78,11.0,105.0
1511,67.0,0,156,2.0,92.0
1512,58.0,120,156,3.0,92.0
1513,70.0,0,156,4.0,92.0
1514,58.0,0,156,4.0,92.0
1515,51.0,0,156,14.0,105.0
1516,46.0,0,156,3.0,92.0
1517,82.0,0,156,0.0,92.0
1518,79.0,0,156,1.0,92.0
1519,75.0,0,156,1.0,92.0
1520,51.0,0,156,12.0,105.0
1521,63.0,0,156,13.0,105.0
1522,63.0,0,156,2.0,92.0
1523,51.0,0,192,5.0,105.0
1524,63.0,0,78,11.0,105.0
1525,63.0,120,78,10.0,105.0
1526,67.0,0,78,11.0,105.0
1527,67.0,0,78,10.0,105.0
1528,79.0,0,156,0.0,92.0
1529,70.0,0,156,1.0,92.0
1530,75.0,0,156,1.0,92.0
1531,58.0,0,156,13.0,105.0
1532,55.0,0,156,3.0,92.0
1533,63.0,0,156,4.0,92.0
1534,67.0,0,156,4.0,92.0
1535,46.0,0,156,14.0,105.0
1536,55.0,0,156,2.0,92.0
1537,51.0,0,156,3.0,92.0
1538,58.0,0,156,12.0,105.0
1539,58.0,0,156,2.0,92.0
1540,51.0,120,192,5.0,105.0
1541,70.0,0,78,10.0,105.0
1542,70.0,120,78,11.0,105.0
1543,75.0,120,78,10.0,105.0
1544,75.0,0,78,11.0,105.0
1545,55.0,0,156,2.0,92.0
1546,55.0,0,156,13.0,105.0
1547,58.0,0,156,2.0,92.0
1548,55.0,0,156,3.0,92.0
1549,51.0,0,156,3.0,92.0
1550,75.0,0,156,1.0,92.0
1551,63.0,0,156,4.0,92.0
1552,43.0,0,156,14.0,105.0
1553,55.0,0,156,12.0,105.0
1554,70.0,0,156,1.0,92.0
1555,67.0,0,156,4.0,92.0
1556,79.0,0,156,0.0,92.0
1557,51.0,0,192,5.0,105.0
1558,79.0,120,78,10.0,105.0
1559,79.0,0,78,11.0,105.0
1560,51.0,0,156,3.0,92.0
1561,55.0,0,156,3.0,92.0
1562,55.0,0,156,2.0,92.0
1563,67.0,0,156,4.0,92.0
1564,70.0,0,156,1.0,92.0
1565,75.0,0,156,1.0,92.0
1566,63.0,0,156,4.0,92.0
1567,51.0,0,156,12.0,105.0
1568,58.0,0,156,2.0,92.0
1569,51.0,0,156,13.0,105.0
1570,39.0,0,156,14.0,105.0
1571,79.0,0,156,0.0,92.0
1572,82.0,120,192,10.0,105.0
1573,51.0,0,192,5.0,105.0
1574,82.0,0,192,11.0,105.0
1575,70.0,0,156,1.0,92.0
1576,79.0,0,156,0.0,92.0
1577,51.0,0,156,3.0,92.0
1578,55.0,0,156,3.0,92.0
1579,75.0,240,156,1.0,92.0
1580,63.0,0,156,4.0,92.0
1581,58.0,0,156,2.0,92.0
1582,55.0,0,156,2.0,92.0
1583,67.0,0,156,4.0,92.0
1584,58.0,0,156,2.0,92.0
1585,70.0,0,156,1.0,92.0
1586,51.0,0,156,3.0,92.0
1587,67.0,0,156,4.0,92.0
1588,63.0,0,156,4.0,92.0
1589,75.0,0,156,1.0,92.0
1590,55.0,0,156,3.0,92.0
1591,79.0,240,156,0.0,92.0
1592,55.0,0,156,2.0,92.0
1593,79.0,0,192,10.0,70.0
1594,62.0,240,120,11.0,78.0
1595,62.0,0,240,12.0,78.0
1596,65.0,120,120,11.0,58.0
1597,77.0,0,240,10.0,90.0
1598,70.0,0,120,11.0,58.0
1599,74.0,0,240,10.0,70.0
1600,44.0,0,480,14.0,78.0
1601,65.0,120,240,12.0,58.0
1602,56.0,0,480,13.0,78.0
1603,65.0,120,120,11.0,58.0
1604,70.0,0,120,11.0,58.0
1605,75.0,0,192,10.0,70.0
1606,55.0,0,192,13.0,58.0
1607,43.0,120,192,14.0,58.0
1608,63.0,0,192,12.0,58.0
1609,67.0,120,108,11.0,58.0
1610,62.0,120,120,11.0,78.0
1611,65.0,120,120,11.0,58.0
1612,62.0,0,240,12.0,78.0
1613,77.0,0,240,10.0,90.0
1614,70.0,0,120,11.0,58.0
1615,65.0,120,120,11.0,58.0
1616,65.0,120,240,12.0,58.0
1617,74.0,0,240,10.0,70.0
1618,56.0,0,480,13.0,78.0
1619,44.0,0,480,14.0,78.0
1620,70.0,120,120,11.0,58.0
1621,55.0,0,192,13.0,58.0
1622,43.0,0,192,14.0,58.0
1623,63.0,0,192,12.0,58.0
1624,75.0,0,192,10.0,70.0
1625,67.0,120,108,11.0,58.0
1626,82.0,0,60,10.0,70.0
1627,60.0,0,120,11.0,58.0
1628,53.0,0,144,13.0,58.0
1629,41.0,120,144,14.0,58.0
1630,80.0,60,108,10.0,70.0
1631,65.0,60,120,11.0,58.0
1632,68.0,120,120,11.0,58.0
1633,53.0,0,144,13.0,58.0
1634,41.0,0,144,14.0,58.0
1635,80.0,0,144,10.0,70.0
1636,65.0,120,120,11.0,58.0
1637,60.0,0,480,12.0,58.0
1638,68.0,0,120,11.0,58.0
1639,80.0,0,144,10.0,70.0
1640,51.0,0,144,13.0,58.0
1641,39.0,120,144,14.0,58.0
1642,65.0,120,108,11.0,58.0
1643,59.0,0,240,12.0,58.0
1644,58.0,0,120,11.0,58.0
1645,65.0,120,120,11.0,58.0
1646,68.0,120,120,11.0,58.0
1647,50.0,120,384,13.0,58.0
1648,38.0,0,384,14.0,58.0
1649,80.0,0,480,10.0,70.0
1650,65.0,120,120,11.0,58.0
1651,67.0,0,120,11.0,58.0
1652,79.0,0,192,10.0,70.0
1653,51.0,0,192,13.0,58.0
1654,39.0,120,192,14.0,58.0
1655,63.0,120,108,11.0,58.0
1656,79.0,0,60,10.0,70.0
1657,60.0,0,120,11.0,58.0
1658,77.0,60,108,10.0,70.0
1659,44.0,120,192,14.0,58.0
1660,58.0,0,912,12.0,58.0
1661,56.0,0,192,13.0,58.0
1662,65.0,60,120,11.0,58.0
1663,68.0,120,120,11.0,58.0
1664,77.0,0,144,10.0,70.0
1665,65.0,120,120,11.0,58.0
1666,68.0,120,120,11.0,58.0
1667,77.0,0,144,10.0,70.0
1668,65.0,120,108,11.0,58.0
1669,77.0,0,720,0.0,58.0
1670,60.0,0,720,2.0,58.0
1671,68.0,0,720,1.0,58.0
1672,75.0,0,60,10.0,70.0
1673,58.0,0,120,11.0,58.0
1674,74.0,60,108,10.0,70.0
1675,58.0,0,192,13.0,58.0
1676,58.0,0,192,12.0,30.0
1677,46.0,0,192,14.0,58.0
1678,65.0,60,120,11.0,58.0
1679,68.0,120,120,11.0,58.0
1680,74.0,0,144,10.0,70.0
1681,65.0,120,120,11.0,58.0
1682,74.0,120,576,0.0,58.0
1683,65.0,0,576,1.0,58.0
1684,56.0,0,576,2.0,58.0
1685,68.0,120,120,11.0,58.0
1686,74.0,0,144,10.0,70.0
1687,65.0,120,108,11.0,58.0
1688,63.0,0,120,11.0,105.0
1689,75.0,120,120,10.0,116.0
1690,43.0,0,156,14.0,105.0
1691,55.0,0,156,13.0,105.0
1692,70.0,0,192,1.0,105.0
1693,75.0,0,192,1.0,105.0
1694,46.0,0,192,5.0,105.0
1695,82.0,0,96,10.0,116.0
1696,70.0,120,96,11.0,105.0
1697,58.0,0,240,12.0,105.0
1698,63.0,0,240,2.0,105.0
1699,82.0,0,120,10.0,116.0
1700,70.0,0,120,11.0,105.0
1701,53.0,0,156,13.0,105.0
1702,41.0,0,156,14.0,105.0
1703,68.0,0,192,1.0,105.0
1704,74.0,120,192,1.0,105.0
1705,68.0,0,96,11.0,105.0
1706,80.0,120,96,10.0,116.0
1707,62.0,0,240,2.0,105.0
1708,62.0,0,240,12.0,105.0
1709,58.0,0,576,4.0,105.0
1710,82.0,0,576,0.0,105.0
1711,70.0,0,576,4.0,92.0
1712,46.0,0,576,3.0,105.0
1713,58.0,0,576,3.0,105.0
1714,68.0,0,120,11.0,105.0
1715,80.0,0,120,10.0,116.0
1716,39.0,0,156,14.0,105.0
1717,51.0,0,156,13.0,105.0
1718,63.0,0,192,2.0,105.0
1719,75.0,0,192,1.0,105.0
1720,68.0,0,192,1.0,105.0
1721,63.0,120,192,12.0,105.0
1722,79.0,120,96,10.0,116.0
1723,67.0,0,96,11.0,105.0
1724,70.0,0,96,1.0,105.0
1725,79.0,0,120,1.0,105.0
1726,82.0,120,120,0.0,105.0
1727,67.0,0,120,11.0,105.0
1728,70.0,0,120,12.0,105.0
1729,79.0,0,120,10.0,116.0
1730,56.0,0,144,2.0,105.0
1731,56.0,0,156,13.0,105.0
1732,44.0,0,156,14.0,105.0
1733,77.0,0,96,10.0,116.0
1734,80.0,120,96,0.0,105.0
1735,68.0,0,96,12.0,105.0
1736,68.0,0,96,1.0,105.0
1737,77.0,0,96,1.0,105.0
1738,65.0,0,96,11.0,105.0
1739,68.0,0,96,1.0,105.0
1740,68.0,0,120,12.0,105.0
1741,77.0,0,120,10.0,116.0
1742,80.0,0,120,0.0,105.0
1743,65.0,0,120,11.0,105.0
1744,77.0,120,120,1.0,105.0
1745,58.0,0,144,3.0,105.0
1746,58.0,0,144,2.0,105.0
1747,70.0,0,144,4.0,105.0
1748,58.0,0,144,4.0,105.0
1749,46.0,0,144,3.0,105.0
1750,58.0,0,156,13.0,105.0
1751,46.0,0,156,14.0,105.0
1752,46.0,0,192,5.0,105.0
1753,67.0,120,96,1.0,105.0
1754,75.0,0,96,1.0,105.0
1755,75.0,0,96,10.0,116.0
1756,67.0,0,96,12.0,105.0
1757,63.0,0,96,11.0,105.0
1758,79.0,0,96,0.0,105.0
1759,67.0,120,96,1.0,105.0
1760,75.0,0,120,1.0,105.0
1761,63.0,0,120,11.0,105.0
1762,79.0,0,120,0.0,105.0
1763,67.0,0,120,12.0,105.0
1764,75.0,0,120,10.0,116.0
1765,56.0,0,144,2.0,105.0
1766,46.0,0,144,3.0,105.0
1767,58.0,0,144,4.0,105.0
1768,70.0,0,144,4.0,105.0
1769,58.0,0,144,3.0,105.0
1770,44.0,0,156,14.0,105.0
1771,56.0,0,156,13.0,105.0
1772,46.0,0,192,5.0,105.0
1773,77.0,0,96,0.0,105.0
1774,74.0,120,96,1.0,105.0
1775,74.0,0,96,10.0,116.0
1776,65.0,0,96,1.0,105.0
1777,62.0,0,96,11.0,105.0
1778,65.0,0,96,12.0,105.0
1779,75.0,0,120,10.0,116.0
1780,63.0,0,120,11.0,105.0
1781,55.0,0,156,13.0,105.0
1782,43.0,0,156,14.0,105.0
1783,46.0,0,192,5.0,105.0
1784,70.0,120,96,11.0,105.0
1785,82.0,0,96,10.0,116.0
1786,63.0,120,240,2.0,105.0
1787,82.0,0,240,0.0,105.0
1788,63.0,0,240,12.0,105.0
1789,70.0,0,240,1.0,105.0
1790,82.0,0,120,10.0,116.0
1791,70.0,0,120,11.0,105.0
1792,53.0,0,156,13.0,105.0
1793,41.0,0,156,14.0,105.0
1794,46.0,120,192,5.0,105.0
1795,68.0,120,96,11.0,105.0
1796,80.0,0,96,10.0,116.0
1797,62.0,0,240,2.0,105.0
1798,86.0,0,240,0.0,105.0
1799,62.0,0,240,12.0,105.0
1800,80.0,0,240,1.0,105.0
1801,70.0,0,576,4.0,105.0
1802,58.0,0,576,3.0,105.0
1803,58.0,0,576,4.0,105.0
1804,46.0,0,576,3.0,105.0
1805,68.0,0,120,11.0,105.0
1806,80.0,0,120,10.0,116.0
1807,39.0,0,156,14.0,105.0
1808,51.0,0,156,13.0,105.0
1809,46.0,0,192,5.0,105.0
1810,63.0,120,192,2.0,105.0
1811,63.0,0,192,12.0,105.0
1812,82.0,0,672,1.0,105.0
1813,79.0,0,192,1.0,105.0
1814,87.0,0,192,0.0,105.0
1815,67.0,0,96,11.0,105.0
1816,79.0,120,96,10.0,116.0
1817,82.0,0,96,1.0,105.0
1818,70.0,0,120,12.0,105.0
1819,79.0,0,120,10.0,116.0
1820,67.0,0,120,11.0,105.0
1821,79.0,0,120,1.0,105.0
1822,91.0,0,120,0.0,105.0
1823,56.0,120,144,2.0,105.0
1824,56.0,0,156,13.0,105.0
1825,44.0,0,156,14.0,105.0
1826,89.0,0,96,0.0,105.0
1827,77.0,0,96,10.0,116.0
1828,77.0,120,96,1.0,105.0
1829,68.0,0,96,12.0,105.0
1830,65.0,0,96,11.0,105.0
1831,80.0,0,96,1.0,105.0
1832,80.0,0,96,1.0,105.0
1833,89.0,0,120,0.0,105.0
1834,77.0,0,120,1.0,105.0
1835,68.0,0,120,12.0,105.0
1836,65.0,0,120,11.0,105.0
1837,77.0,0,120,10.0,116.0
1838,58.0,0,144,4.0,105.0
1839,70.0,120,144,4.0,105.0
1840,58.0,0,144,3.0,105.0
1841,46.0,0,144,3.0,105.0
1842,58.0,0,144,2.0,105.0
1843,58.0,0,156,13.0,105.0
1844,46.0,0,156,14.0,105.0
1845,46.0,0,192,5.0,105.0
1846,75.0,0,96,1.0,105.0
1847,75.0,120,96,10.0,116.0
1848,87.0,0,96,0.0,105.0
1849,63.0,0,96,11.0,105.0
1850,79.0,0,96,1.0,105.0
1851,67.0,0,96,12.0,105.0
1852,79.0,0,96,1.0,105.0
1853,75.0,0,120,1.0,105.0
1854,87.0,0,120,0.0,105.0
1855,63.0,0,120,11.0,105.0
1856,67.0,0,120,12.0,105.0
1857,75.0,0,120,10.0,116.0
1858,46.0,0,144,3.0,105.0
1859,70.0,0,144,4.0,105.0
1860,58.0,0,144,4.0,105.0
1861,46.0,0,144,2.0,105.0
1862,58.0,0,144,3.0,105.0
1863,34.0,120,156,14.0,105.0
1864,46.0,0,156,13.0,105.0
1865,46.0,0,192,5.0,105.0
1866,74.0,0,96,10.0,116.0
1867,86.0,0,96,0.0,105.0
1868,74.0,120,96,1.0,105.0
1869,65.0,0,96,12.0,105.0
1870,77.0,0,96,1.0,105.0
1871,62.0,0,96,11.0,105.0
1872,67.0,0,120,11.0,105.0
1873,75.0,0,120,1.0,125.0
1874,67.0,0,120,4.0,125.0
1875,87.0,0,120,0.0,125.0
1876,55.0,0,120,3.0,125.0
1877,75.0,0,120,10.0,127.0
1878,51.0,0,144,2.0,105.0
1879,39.0,0,156,14.0,105.0
1880,63.0,0,156,12.0,105.0
1881,51.0,120,156,13.0,105.0
1882,51.0,0,192,5.0,105.0
1883,63.0,0,192,4.0,105.0
1884,51.0,0,192,3.0,105.0
1885,39.0,0,144,2.0,105.0
1886,39.0,0,156,14.0,105.0
1887,51.0,0,156,12.0,105.0
1888,39.0,0,156,13.0,105.0
1889,51.0,0,192,5.0,105.0
1890,63.0,0,192,4.0,105.0
1891,51.0,240,192,3.0,105.0
1892,67.0,0,192,1.0,105.0
1893,67.0,0,240,4.0,105.0
1894,67.0,0,240,11.0,105.0
1895,75.0,0,240,10.0,116.0
1896,55.0,0,0,3.0,105.0
1897,87.0,0,240,0.0,105.0
1898,75.0,0,240,1.0,105.0
1899,39.0,0,144,2.0,105.0
1900,51.0,0,156,12.0,105.0
1901,39.0,240,156,13.0,105.0
1902,39.0,0,156,14.0,105.0
1903,79.0,0,192,1.0,105.0
1904,58.0,0,192,3.0,105.0
1905,91.0,0,192,0.0,105.0
1906,79.0,0,192,10.0,116.0
1907,70.0,0,192,1.0,105.0
1908,51.0,0,192,5.0,105.0
1909,70.0,0,192,4.0,105.0
1910,67.0,0,192,4.0,105.0
1911,70.0,0,192,11.0,105.0
1912,51.0,0,192,12.0,105.0
1913,75.0,0,192,1.0,105.0
1914,87.0,0,192,0.0,105.0
1915,67.0,0,192,4.0,105.0
1916,63.0,0,192,4.0,105.0
1917,39.0,0,192,13.0,105.0
1918,51.0,0,192,5.0,105.0
1919,39.0,0,192,14.0,105.0
1920,67.0,240,192,11.0,105.0
1921,67.0,0,192,1.0,105.0
1922,39.0,0,192,2.0,105.0
1923,75.0,0,192,10.0,116.0
1924,55.0,0,192,3.0,105.0
1925,51.0,0,192,3.0,105.0
1926,46.0,0,144,13.0,105.0
1927,34.0,0,144,14.0,105.0
1928,58.0,0,144,12.0,105.0
1929,70.0,0,192,1.0,92.0
1930,58.0,0,192,3.0,92.0
1931,62.0,0,192,10.0,105.0
1932,46.0,0,192,5.0,105.0
1933,82.0,0,192,1.0,92.0
1934,82.0,0,192,0.0,92.0
1935,70.0,0,192,11.0,105.0
1936,70.0,0,192,4.0,92.0
1937,58.0,0,192,4.0,105.0
1938,62.0,0,192,11.0,105.0
1939,70.0,0,192,10.0,105.0
1940,46.0,0,192,3.0,92.0
1941,58.0,0,144,13.0,105.0
1942,62.0,240,144,12.0,105.0
1943,46.0,0,144,14.0,105.0
1944,82.0,0,432,10.0,105.0
1945,58.0,0,192,3.0,92.0
1946,46.0,0,192,3.0,92.0
1947,70.0,0,192,1.0,92.0
1948,82.0,0,192,1.0,92.0
1949,58.0,0,192,4.0,92.0
1950,70.0,0,192,4.0,92.0
1951,82.0,0,432,11.0,105.0
1952,82.0,0,192,0.0,92.0
1953,74.0,0,78,10.0,105.0
1954,74.0,0,78,11.0,105.0
1955,56.0,240,144,13.0,105.0
1956,44.0,0,144,14.0,105.0
1957,65.0,0,144,12.0,105.0
1958,82.0,0,192,0.0,92.0
1959,46.0,0,192,3.0,92.0
1960,70.0,0,192,4.0,92.0
1961,58.0,0,192,4.0,92.0
1962,82.0,0,192,1.0,92.0
1963,70.0,0,192,1.0,92.0
1964,58.0,0,192,3.0,92.0
1965,70.0,120,78,10.0,105.0
1966,70.0,0,78,11.0,105.0
1967,75.0,0,78,11.0,105.0
1968,75.0,0,78,10.0,105.0
1969,43.0,0,144,14.0,105.0
1970,55.0,120,144,13.0,105.0
1971,67.0,0,144,12.0,105.0
1972,70.0,0,192,1.0,92.0
1973,82.0,0,192,1.0,92.0
1974,58.0,0,192,3.0,92.0
1975,58.0,720,912,2.0,92.0
1976,82.0,0,192,0.0,92.0
1977,46.0,0,192,3.0,92.0
1978,70.0,0,192,4.0,92.0
1979,58.0,0,192,4.0,92.0
1980,70.0,0,78,10.0,105.0
1981,70.0,120,78,11.0,105.0
1982,77.0,0,78,11.0,105.0
1983,77.0,0,78,10.0,105.0
1984,68.0,0,144,12.0,105.0
1985,53.0,0,144,13.0,105.0
1986,41.0,0,144,14.0,105.0
1987,70.0,0,192,4.0,92.0
1988,58.0,0,192,4.0,92.0
1989,82.0,0,192,1.0,92.0
1990,70.0,0,192,1.0,92.0
1991,58.0,0,192,3.0,92.0
1992,82.0,0,192,0.0,92.0
1993,46.0,0,192,3.0,92.0
1994,70.0,0,78,11.0,105.0
1995,70.0,120,78,10.0,105.0
1996,50.0,120,240,2.0,92.0
1997,79.0,0,78,11.0,105.0
1998,79.0,0,78,10.0,105.0
1999,67.0,0,144,12.0,105.0
2000,51.0,0,144,13.0,105.0
2001,39.0,120,144,14.0,105.0
2002,70.0,0,192,1.0,92.0
2003,58.0,0,192,3.0,92.0
2004,51.0,0,192,2.0,92.0
2005,46.0,0,192,3.0,92.0
2006,82.0,0,192,0.0,92.0
2007,82.0,0,192,1.0,92.0
2008,70.0,0,192,4.0,92.0
2009,58.0,0,192,4.0,92.0
2010,70.0,0,78,11.0,105.0
2011,70.0,120,78,10.0,105.0
2012,38.0,0,144,14.0,105.0
2013,50.0,0,144,13.0,105.0
2014,65.0,0,144,12.0,105.0
2015,46.0,0,192,3.0,92.0
2016,58.0,0,192,3.0,92.0
2017,46.0,0,192,5.0,105.0
2018,58.0,120,192,4.0,92.0
2019,70.0,0,192,4.0,92.0
2020,70.0,0,192,1.0,92.0
2021,82.0,0,192,0.0,92.0
2022,82.0,0,192,1.0,92.0
2023,53.0,0,240,2.0,92.0
2024,62.0,0,144,12.0,105.0
2025,80.0,0,384,10.0,105.0
2026,80.0,0,384,11.0,105.0
2027,46.0,0,144,13.0,105.0
2028,34.0,0,144,14.0,105.0
2029,82.0,0,192,0.0,92.0
2030,70.0,0,192,1.0,92.0
2031,58.0,0,192,3.0,92.0
2032,46.0,0,192,3.0,92.0
2033,82.0,0,192,1.0,92.0
2034,58.0,0,192,4.0,92.0
2035,70.0,240,192,4.0,92.0
2036,62.0,0,78,10.0,105.0
2037,62.0,0,78,11.0,105.0
2038,44.0,0,144,13.0,105.0
2039,32.0,240,144,14.0,105.0
2040,53.0,0,144,12.0,105.0
2041,58.0,0,192,3.0,92.0
2042,46.0,0,192,3.0,92.0
2043,82.0,0,192,0.0,92.0
2044,82.0,0,192,1.0,92.0
2045,70.0,0,192,1.0,92.0
2046,70.0,0,192,4.0,92.0
2047,58.0,0,192,4.0,92.0
2048,70.0,0,78,11.0,105.0
2049,70.0,120,78,10.0,105.0
2050,63.0,0,78,10.0,105.0
2051,63.0,0,78,11.0,105.0
2052,31.0,0,144,14.0,105.0
2053,55.0,120,144,12.0,105.0
2054,43.0,0,144,13.0,105.0
2055,58.0,0,192,4.0,92.0
2056,58.0,0,672,2.0,92.0
2057,70.0,0,192,1.0,92.0
2058,82.0,0,192,1.0,92.0
2059,58.0,0,192,3.0,92.0
2060,70.0,0,192,4.0,92.0
2061,46.0,0,192,3.0,92.0
2062,82.0,0,192,0.0,92.0
2063,70.0,120,78,11.0,105.0
2064,70.0,0,78,10.0,105.0
2065,65.0,120,78,10.0,105.0
2066,65.0,0,78,11.0,105.0
2067,56.0,0,144,12.0,105.0
2068,41.0,0,144,13.0,105.0
2069,29.0,0,144,14.0,105.0
2070,70.0,0,192,4.0,92.0
2071,82.0,0,192,0.0,92.0
2072,82.0,0,192,1.0,92.0
2073,46.0,0,192,3.0,92.0
2074,58.0,0,192,3.0,92.0
2075,58.0,0,192,4.0,92.0
2076,70.0,0,192,1.0,92.0
2077,70.0,0,78,11.0,105.0
2078,70.0,120,78,10.0,105.0
2079,62.0,0,240,2.0,92.0
2080,67.0,0,78,11.0,105.0
2081,67.0,0,78,10.0,105.0
2082,39.0,0,144,13.0,105.0
2083,39.0,0,144,14.0,105.0
2084,58.0,120,144,12.0,105.0
2085,70.0,0,192,1.0,92.0
2086,58.0,0,192,4.0,92.0
2087,58.0,0,192,3.0,92.0
2088,70.0,0,192,4.0,92.0
2089,82.0,0,192,1.0,92.0
2090,46.0,0,192,3.0,92.0
2091,82.0,0,192,0.0,92.0
2092,70.0,0,78,11.0,105.0
2093,70.0,120,78,10.0,105.0
2094,63.0,0,240,2.0,92.0
2095,60.0,0,120,11.0,105.0
2096,60.0,0,120,10.0,105.0
2097,60.0,0,192,2.0,92.0
2098,72.0,0,192,1.0,92.0
2099,44.0,120,192,13.0,105.0
2100,32.0,0,192,14.0,105.0
2101,84.0,0,192,0.0,92.0
2102,65.0,0,192,2.0,92.0
2103,80.0,0,192,1.0,92.0
2104,53.0,0,192,12.0,105.0
2105,64.0,0,78,10.0,105.0
2106,64.0,120,78,11.0,105.0
2107,65.0,0,78,10.0,105.0
2108,65.0,120,78,11.0,105.0
2109,67.0,0,78,10.0,105.0
2110,67.0,120,78,11.0,105.0
2111,68.0,120,78,11.0,105.0
2112,68.0,0,78,10.0,105.0
2113,71.0,0,78,11.0,105.0
2114,71.0,120,78,10.0,105.0
2115,72.0,0,120,10.0,105.0
2116,72.0,0,120,11.0,105.0
2117,65.0,0,192,12.0,105.0
2118,44.0,0,192,14.0,105.0
2119,72.0,0,192,1.0,92.0
2120,77.0,0,192,1.0,92.0
2121,56.0,0,192,13.0,105.0
2122,80.0,0,192,0.0,92.0
2123,60.0,120,192,2.0,92.0
2124,65.0,0,192,2.0,92.0
2125,76.0,0,78,11.0,105.0
2126,76.0,120,78,10.0,105.0
2127,77.0,0,78,10.0,105.0
2128,77.0,120,78,11.0,105.0
2129,79.0,0,78,10.0,105.0
2130,79.0,120,78,11.0,105.0
2131,80.0,0,78,10.0,105.0
2132,80.0,120,78,11.0,105.0
2133,77.0,120,78,11.0,105.0
2134,77.0,0,78,10.0,105.0
2135,75.0,120,120,10.0,105.0
2136,75.0,0,120,11.0,105.0
2137,46.0,0,192,5.0,105.0
2138,58.0,0,192,13.0,105.0
2139,62.0,0,192,2.0,92.0
2140,68.0,0,192,12.0,105.0
2141,46.0,0,192,14.0,105.0
2142,58.0,0,192,4.0,92.0
2143,58.0,0,192,12.0,105.0
2144,70.0,0,192,4.0,92.0
2145,46.0,0,192,3.0,92.0
2146,65.0,0,192,3.0,92.0
2147,68.0,0,192,1.0,92.0
2148,74.0,0,192,1.0,92.0
2149,56.0,0,192,2.0,92.0
2150,77.0,0,192,0.0,92.0
2151,74.0,0,96,10.0,105.0
2152,74.0,120,96,11.0,105.0
2153,79.0,0,120,11.0,105.0
2154,79.0,120,120,10.0,105.0
2155,77.0,0,96,10.0,105.0
2156,77.0,120,96,11.0,105.0
2157,75.0,120,120,10.0,105.0
2158,75.0,0,120,11.0,105.0
2159,74.0,120,96,10.0,105.0
2160,74.0,0,96,11.0,105.0
2161,72.0,120,120,11.0,105.0
2162,72.0,0,120,10.0,105.0
2163,70.0,120,120,10.0,105.0
2164,70.0,0,120,11.0,105.0
2165,69.0,0,120,10.0,105.0
2166,69.0,120,120,11.0,105.0
2167,70.0,0,120,10.0,105.0
2168,70.0,120,120,11.0,105.0
2169,68.0,0,120,11.0,105.0
2170,68.0,120,120,10.0,105.0
2171,65.0,120,96,11.0,105.0
2172,65.0,0,96,10.0,105.0
2173,39.0,0,156,14.0,105.0
2174,51.0,0,156,12.0,105.0
2175,39.0,0,156,13.0,105.0
2176,51.0,0,156,2.0,92.0
2177,63.0,0,156,4.0,92.0
2178,75.0,0,156,4.0,92.0
2179,51.0,0,156,3.0,92.0
2180,55.0,0,156,2.0,92.0
2181,63.0,0,156,3.0,92.0
2182,67.0,0,156,1.0,92.0
2183,70.0,120,156,1.0,92.0
2184,75.0,0,156,0.0,92.0
2185,55.0,0,192,11.0,105.0
2186,63.0,0,192,11.0,105.0
2187,55.0,0,192,10.0,105.0
2188,51.0,0,192,5.0,105.0
2189,63.0,0,192,10.0,105.0
2190,63.0,0,156,3.0,92.0
2191,79.0,0,156,1.0,92.0
2192,51.0,0,156,3.0,92.0
2193,55.0,0,156,2.0,92.0
2194,58.0,0,156,2.0,92.0
2195,75.0,0,156,4.0,92.0
2196,82.0,0,156,1.0,92.0
2197,58.0,0,156,12.0,105.0
2198,34.0,0,156,14.0,105.0
2199,63.0,240,156,4.0,92.0
2200,87.0,0,156,0.0,92.0
2201,46.0,0,156,13.0,105.0
2202,75.0,0,624,10.0,105.0
2203,75.0,0,624,11.0,105.0
2204,63.0,240,156,4.0,92.0
2205,55.0,0,156,2.0,92.0
2206,58.0,0,156,2.0,92.0
2207,63.0,0,156,3.0,92.0
2208,82.0,0,156,1.0,92.0
2209,63.0,0,156,12.0,105.0
2210,39.0,0,156,14.0,105.0
2211,51.0,0,156,13.0,105.0
2212,75.0,0,156,4.0,92.0
2213,87.0,0,156,0.0,92.0
2214,79.0,0,156,1.0,92.0
2215,51.0,0,156,3.0,92.0
2216,58.0,0,78,10.0,105.0
2217,58.0,0,78,11.0,105.0
2218,55.0,0,156,12.0,105.0
2219,55.0,0,156,2.0,92.0
2220,58.0,0,156,2.0,92.0
2221,87.0,0,156,0.0,92.0
2222,55.0,0,156,13.0,105.0
2223,63.0,0,156,4.0,92.0
2224,75.0,0,156,4.0,92.0
2225,63.0,0,156,3.0,92.0
2226,70.0,0,156,1.0,92.0
2227,82.0,240,156,1.0,92.0
2228,51.0,0,156,3.0,92.0
2229,43.0,0,156,14.0,105.0
2230,51.0,0,192,5.0,105.0
2231,63.0,120,78,10.0,105.0
2232,63.0,0,78,11.0,105.0
2233,60.0,0,78,11.0,105.0
2234,60.0,0,78,10.0,105.0
2235,60.0,0,156,2.0,92.0
2236,51.0,0,156,3.0,92.0
2237,72.0,0,156,1.0,92.0
2238,84.0,0,156,1.0,92.0
2239,63.0,0,156,3.0,92.0
2240,75.0,0,156,4.0,92.0
2241,56.0,0,156,13.0,105.0
2242,44.0,0,156,14.0,105.0
2243,56.0,0,156,2.0,92.0
2244,56.0,0,156,12.0,105.0
2245,87.0,120,156,0.0,92.0
2246,63.0,0,156,4.0,92.0
2247,51.0,0,192,5.0,105.0
2248,63.0,0,78,11.0,105.0
2249,63.0,120,78,10.0,105.0
2250,58.0,0,78,11.0,105.0
2251,58.0,0,78,10.0,105.0
2252,63.0,0,156,3.0,92.0
2253,87.0,0,156,0.0,92.0
2254,51.0,120,156,3.0,92.0
2255,55.0,0,156,13.0,105.0
2256,58.0,0,156,2.0,92.0
2257,55.0,0,156,2.0,92.0
2258,63.0,0,156,4.0,92.0
2259,75.0,0,156,4.0,92.0
2260,70.0,0,156,1.0,92.0
2261,82.0,0,156,1.0,92.0
2262,43.0,0,156,14.0,105.0
2263,55.0,0,156,12.0,105.0
2264,51.0,0,192,5.0,105.0
2265,63.0,0,78,10.0,105.0
2266,63.0,120,78,11.0,105.0
2267,60.0,0,78,11.0,105.0
2268,60.0,0,78,10.0,105.0
2269,72.0,0,156,1.0,92.0
2270,84.0,0,156,1.0,92.0
2271,87.0,0,156,0.0,92.0
2272,75.0,0,156,4.0,92.0
2273,63.0,0,156,4.0,92.0
2274,60.0,0,156,2.0,92.0
2275,63.0,0,156,3.0,92.0
2276,51.0,0,156,3.0,92.0
2277,56.0,0,156,13.0,105.0
2278,56.0,0,156,2.0,92.0
2279,44.0,120,156,14.0,105.0
2280,56.0,0,156,12.0,105.0
2281,51.0,0,192,5.0,105.0
2282,63.0,0,78,10.0,105.0
2283,63.0,120,78,11.0,105.0
2284,68.0,0,78,10.0,105.0
2285,68.0,0,78,11.0,105.0
2286,63.0,120,156,12.0,105.0
2287,51.0,0,156,3.0,92.0
2288,63.0,0,156,3.0,92.0
2289,75.0,0,156,4.0,92.0
2290,84.0,0,156,0.0,92.0
2291,80.0,0,156,1.0,92.0
2292,72.0,0,156,1.0,92.0
2293,56.0,0,156,2.0,92.0
2294,63.0,0,156,4.0,92.0
2295,39.0,0,156,14.0,105.0
2296,60.0,0,156,2.0,92.0
2297,51.0,0,156,13.0,105.0
2298,51.0,0,192,5.0,105.0
2299,72.0,120,78,10.0,105.0
2300,72.0,0,78,11.0,105.0
2301,75.0,0,78,11.0,105.0
2302,75.0,0,78,10.0,105.0
2303,51.0,0,156,3.0,92.0
2304,75.0,0,156,4.0,92.0
2305,60.0,120,156,12.0,105.0
2306,84.0,0,156,0.0,92.0
2307,56.0,0,156,2.0,92.0
2308,60.0,0,156,2.0,92.0
2309,63.0,0,156,3.0,92.0
2310,48.0,0,156,13.0,105.0
2311,36.0,0,156,14.0,105.0
2312,72.0,0,156,1.0,92.0
2313,63.0,0,156,4.0,92.0
2314,80.0,0,156,1.0,92.0
2315,51.0,0,192,5.0,105.0
2316,80.0,120,78,10.0,105.0
2317,80.0,0,78,11.0,105.0
2318,80.0,0,156,1.0,92.0
2319,84.0,0,156,0.0,92.0
2320,56.0,0,156,12.0,105.0
2321,56.0,0,156,2.0,92.0
2322,44.0,0,156,13.0,105.0
2323,51.0,0,156,3.0,92.0
2324,63.0,0,156,3.0,92.0
2325,63.0,0,156,4.0,92.0
2326,32.0,0,156,14.0,105.0
2327,60.0,0,156,2.0,92.0
2328,72.0,0,156,1.0,92.0
2329,75.0,0,156,4.0,92.0
2330,84.0,0,192,10.0,105.0
2331,51.0,0,192,5.0,105.0
2332,84.0,120,192,11.0,105.0
2333,72.0,0,156,1.0,92.0
2334,51.0,0,156,3.0,92.0
2335,63.0,0,156,3.0,92.0
2336,80.0,0,156,1.0,92.0
2337,60.0,0,156,2.0,92.0
2338,56.0,0,156,2.0,92.0
2339,84.0,0,156,0.0,92.0
2340,75.0,0,156,4.0,92.0
2341,63.0,240,156,4.0,92.0
2342,72.0,0,156,1.0,92.0
2343,80.0,0,156,1.0,92.0
2344,75.0,0,156,4.0,92.0
2345,84.0,0,156,0.0,92.0
2346,63.0,0,156,3.0,92.0
2347,51.0,240,156,3.0,92.0
2348,63.0,0,156,4.0,92.0
2349,56.0,0,156,2.0,92.0
2350,60.0,0,156,2.0,92.0
2351,70.0,0,156,4.0,92.0
2352,77.0,240,156,1.0,92.0
2353,74.0,0,156,1.0,92.0
2354,46.0,0,156,13.0,105.0
2355,58.0,0,156,12.0,105.0
2356,58.0,0,156,2.0,92.0
2357,62.0,0,156,2.0,92.0
2358,58.0,0,156,3.0,92.0
2359,46.0,0,156,3.0,92.0
2360,34.0,0,156,14.0,105.0
2361,58.0,0,156,4.0,92.0
2362,82.0,0,156,0.0,92.0
2363,62.0,0,192,10.0,105.0
2364,70.0,0,192,11.0,105.0
2365,70.0,0,192,10.0,105.0
2366,62.0,0,192,11.0,105.0
2367,46.0,0,192,5.0,105.0
2368,41.0,0,156,14.0,105.0
2369,58.0,0,156,3.0,92.0
2370,82.0,0,156,0.0,92.0
2371,65.0,0,156,2.0,92.0
2372,62.0,0,156,2.0,92.0
2373,65.0,0,156,12.0,105.0
2374,46.0,0,156,3.0,92.0
2375,58.0,0,156,4.0,92.0
2376,53.0,0,156,13.0,105.0
2377,70.0,0,156,4.0,92.0
2378,74.0,0,156,1.0,92.0
2379,77.0,240,156,1.0,92.0
2380,82.0,0,624,11.0,105.0
2381,82.0,0,624,10.0,105.0
2382,74.0,0,156,1.0,92.0
2383,58.0,0,156,3.0,92.0
2384,82.0,0,156,0.0,92.0
2385,77.0,0,156,1.0,92.0
2386,46.0,0,156,14.0,105.0
2387,70.0,0,156,4.0,92.0
2388,70.0,0,156,12.0,105.0
2389,58.0,0,156,13.0,105.0
2390,62.0,0,156,2.0,92.0
2391,65.0,0,156,2.0,92.0
2392,46.0,0,156,3.0,92.0
2393,58.0,240,156,4.0,92.0
2394,56.0,0,78,11.0,105.0
2395,56.0,0,78,10.0,105.0
2396,50.0,0,156,12.0,105.0
2397,58.0,0,156,3.0,92.0
2398,50.0,0,156,14.0,105.0
2399,62.0,0,156,13.0,105.0
2400,46.0,0,156,3.0,92.0
2401,65.0,0,156,2.0,92.0
2402,62.0,0,156,2.0,92.0
2403,80.0,0,156,1.0,92.0
2404,77.0,240,156,1.0,92.0
2405,82.0,0,156,0.0,92.0
2406,70.0,0,156,4.0,92.0
2407,58.0,0,156,4.0,92.0
2408,46.0,0,192,5.0,105.0
2409,58.0,0,78,11.0,105.0
2410,58.0,120,78,10.0,105.0
2411,55.0,0,78,10.0,105.0
2412,55.0,0,78,11.0,105.0
2413,51.0,0,156,14.0,105.0
2414,63.0,0,156,2.0,92.0
2415,46.0,0,156,3.0,92.0
2416,58.0,0,156,3.0,92.0
2417,51.0,0,156,12.0,105.0
2418,79.0,0,156,1.0,92.0
2419,63.0,0,156,13.0,105.0
2420,58.0,0,156,4.0,92.0
2421,70.0,0,156,4.0,92.0
2422,67.0,120,156,2.0,92.0
2423,75.0,0,156,1.0,92.0
2424,82.0,0,156,0.0,92.0
2425,46.0,0,192,5.0,105.0
2426,58.0,0,78,10.0,105.0
2427,58.0,120,78,11.0,105.0
2428,56.0,0,78,10.0,105.0
2429,56.0,0,78,11.0,105.0
2430,50.0,0,156,14.0,105.0
2431,62.0,0,156,13.0,105.0
2432,77.0,0,156,1.0,92.0
2433,80.0,0,156,1.0,92.0
2434,70.0,0,156,4.0,92.0
2435,46.0,0,156,3.0,92.0
2436,58.0,0,156,3.0,92.0
2437,58.0,0,156,4.0,92.0
2438,50.0,0,156,12.0,105.0
2439,65.0,120,156,2.0,92.0
2440,62.0,0,156,2.0,92.0
2441,82.0,0,156,0.0,92.0
2442,46.0,0,192,5.0,105.0
2443,58.0,120,78,10.0,105.0
2444,58.0,0,78,11.0,105.0
2445,55.0,0,78,11.0,105.0
2446,55.0,120,78,10.0,105.0
2447,82.0,0,156,0.0,92.0
2448,63.0,0,156,13.0,105.0
2449,75.0,0,156,1.0,92.0
2450,67.0,0,156,2.0,92.0
2451,70.0,0,156,4.0,92.0
2452,51.0,0,156,14.0,105.0
2453,79.0,0,156,1.0,92.0
2454,58.0,0,156,4.0,92.0
2455,58.0,0,156,3.0,92.0
2456,46.0,0,156,3.0,92.0
2457,51.0,0,156,12.0,105.0
2458,63.0,0,156,2.0,92.0
2459,51.0,0,192,5.0,105.0
2460,63.0,0,78,10.0,105.0
2461,63.0,120,78,11.0,105.0
2462,67.0,0,78,11.0,105.0
2463,67.0,120,78,10.0,105.0
2464,75.0,0,156,1.0,92.0
2465,58.0,0,156,13.0,105.0
2466,51.0,0,156,3.0,92.0
2467,55.0,0,156,3.0,92.0
2468,58.0,0,156,12.0,105.0
2469,70.0,0,156,1.0,92.0
2470,58.0,0,156,2.0,92.0
2471,67.0,0,156,4.0,92.0
2472,63.0,0,156,4.0,92.0
2473,79.0,0,156,0.0,92.0
2474,46.0,0,156,14.0,105.0
2475,55.0,0,156,2.0,92.0
2476,51.0,0,192,5.0,105.0
2477,70.0,0,78,10.0,105.0
2478,70.0,120,78,11.0,105.0
2479,75.0,0,78,11.0,105.0
2480,75.0,0,78,10.0,105.0
2481,51.0,0,156,3.0,92.0
2482,55.0,120,156,13.0,105.0
2483,70.0,0,156,1.0,92.0
2484,55.0,0,156,3.0,92.0
2485,75.0,0,156,1.0,92.0
2486,43.0,0,156,14.0,105.0
2487,67.0,0,156,4.0,92.0
2488,58.0,0,156,2.0,92.0
2489,55.0,0,156,2.0,92.0
2490,63.0,0,156,4.0,92.0
2491,55.0,0,156,12.0,105.0
2492,79.0,0,156,0.0,92.0
2493,51.0,0,192,5.0,105.0
2494,79.0,0,78,11.0,105.0
2495,79.0,120,78,10.0,105.0
2496,58.0,0,156,2.0,92.0
2497,67.0,0,156,4.0,92.0
2498,39.0,0,156,14.0,105.0
2499,55.0,0,156,2.0,92.0
2500,75.0,0,156,1.0,92.0
2501,55.0,120,156,3.0,92.0
2502,70.0,0,156,1.0,92.0
2503,79.0,0,156,0.0,92.0
2504,51.0,0,156,12.0,105.0
2505,51.0,0,156,13.0,105.0
2506,51.0,0,156,3.0,92.0
2507,63.0,0,156,4.0,92.0
2508,82.0,0,192,11.0,105.0
2509,51.0,0,192,5.0,105.0
2510,82.0,0,192,10.0,105.0
2511,58.0,0,156,2.0,92.0
2512,55.0,0,156,3.0,92.0
2513,79.0,240,156,0.0,92.0
2514,51.0,0,156,3.0,92.0
2515,55.0,0,156,2.0,92.0
2516,75.0,0,156,1.0,92.0
2517,70.0,0,156,1.0,92.0
2518,63.0,0,156,4.0,92.0
2519,67.0,0,156,4.0,92.0
2520,55.0,0,156,3.0,92.0
2521,51.0,0,156,3.0,92.0
2522,63.0,0,156,4.0,92.0
2523,67.0,240,156,4.0,92.0
2524,70.0,0,156,1.0,92.0
2525,58.0,0,156,2.0,92.0
2526,55.0,0,156,2.0,92.0
2527,79.0,0,156,0.0,92.0
2528,75.0,0,156,1.0,92.0
2529,79.0,0,192,10.0,70.0
2530,62.0,0,120,11.0,78.0
2531,62.0,0,240,12.0,78.0
2532,65.0,120,120,11.0,58.0
2533,77.0,0,240,10.0,90.0
2534,70.0,120,120,11.0,58.0
2535,74.0,0,240,10.0,70.0
2536,44.0,240,480,14.0,78.0
2537,65.0,120,120,11.0,58.0
2538,56.0,0,480,13.0,78.0
2539,65.0,0,240,12.0,58.0
2540,70.0,0,120,11.0,58.0
2541,75.0,120,192,10.0,70.0
2542,63.0,0,192,12.0,58.0
2543,55.0,0,192,13.0,58.0
2544,43.0,0,192,14.0,58.0
2545,67.0,120,108,11.0,58.0
2546,62.0,120,120,11.0,78.0
2547,62.0,0,240,12.0,78.0
2548,65.0,120,120,11.0,58.0
2549,77.0,0,240,10.0,90.0
2550,70.0,0,120,11.0,58.0
2551,44.0,0,480,14.0,78.0
2552,56.0,0,480,13.0,78.0
2553,74.0,120,240,10.0,70.0
2554,65.0,120,120,11.0,58.0
2555,65.0,0,240,12.0,58.0
2556,70.0,0,120,11.0,58.0
2557,63.0,0,192,12.0,58.0
2558,75.0,120,192,10.0,70.0
2559,55.0,0,192,13.0,58.0
2560,43.0,0,192,14.0,58.0
2561,67.0,120,108,11.0,58.0
2562,82.0,120,60,10.0,70.0
2563,60.0,0,120,11.0,58.0
2564,53.0,0,144,13.0,58.0
2565,41.0,0,144,14.0,58.0
2566,80.0,60,108,10.0,70.0
2567,65.0,60,120,11.0,58.0
2568,68.0,0,120,11.0,58.0
2569,41.0,120,144,14.0,58.0
2570,80.0,0,144,10.0,70.0
2571,53.0,0,144,13.0,58.0
2572,65.0,120,120,11.0,58.0
2573,60.0,0,480,12.0,58.0
2574,68.0,0,120,11.0,58.0
2575,51.0,0,144,13.0,58.0
2576,80.0,0,144,10.0,70.0
2577,39.0,120,144,14.0,58.0
2578,65.0,120,108,11.0,58.0
2579,59.0,0,240,12.0,58.0
2580,58.0,0,120,11.0,58.0
2581,65.0,120,120,11.0,58.0
2582,68.0,120,120,11.0,58.0
2583,38.0,0,384,14.0,58.0
2584,50.0,0,384,13.0,58.0
2585,80.0,0,480,10.0,70.0
2586,65.0,120,120,11.0,58.0
2587,67.0,0,120,11.0,58.0
2588,79.0,0,192,10.0,70.0
2589,39.0,0,192,14.0,58.0
2590,51.0,120,192,13.0,58.0
2591,63.0,120,108,11.0,58.0
2592,79.0,0,60,10.0,70.0
2593,60.0,120,120,11.0,58.0
2594,77.0,60,108,10.0,70.0
2595,44.0,0,192,14.0,58.0
2596,56.0,0,192,13.0,58.0
2597,58.0,120,912,12.0,58.0
2598,65.0,60,120,11.0,58.0
2599,68.0,120,120,11.0,58.0
2600,77.0,0,144,10.0,70.0
2601,65.0,120,120,11.0,58.0
2602,68.0,120,120,11.0,58.0
2603,77.0,0,144,10.0,70.0
2604,65.0,120,108,11.0,58.0
2605,77.0,0,720,0.0,58.0
2606,68.0,0,720,1.0,58.0
2607,60.0,0,720,2.0,58.0
2608,75.0,0,60,10.0,70.0
2609,58.0,0,120,11.0,58.0
2610,74.0,60,108,10.0,70.0
2611,58.0,0,192,13.0,58.0
2612,58.0,0,192,12.0,30.0
2613,46.0,0,192,14.0,58.0
2614,65.0,60,120,11.0,58.0
2615,68.0,0,120,11.0,58.0
2616,74.0,120,144,10.0,70.0
2617,65.0,120,120,11.0,58.0
2618,74.0,120,576,0.0,58.0
2619,56.0,0,576,2.0,58.0
2620,65.0,0,576,1.0,58.0
2621,68.0,0,120,11.0,58.0
2622,74.0,120,144,10.0,70.0
2623,65.0,120,108,11.0,58.0
2624,63.0,0,120,11.0,105.0
2625,75.0,0,120,10.0,116.0
2626,43.0,0,156,14.0,105.0
2627,55.0,0,156,13.0,105.0
2628,46.0,0,192,5.0,105.0
2629,70.0,0,192,1.0,105.0
2630,75.0,0,192,1.0,105.0
2631,70.0,120,96,11.0,105.0
2632,82.0,0,96,10.0,116.0
2633,63.0,0,240,2.0,105.0
2634,58.0,0,240,12.0,105.0
2635,82.0,120,120,10.0,116.0
2636,70.0,0,120,11.0,105.0
2637,53.0,0,156,13.0,105.0
2638,41.0,0,156,14.0,105.0
2639,74.0,0,192,1.0,105.0
2640,68.0,0,192,1.0,105.0
2641,68.0,120,96,11.0,105.0
2642,80.0,0,96,10.0,116.0
2643,62.0,0,240,12.0,105.0
2644,62.0,0,240,2.0,105.0
2645,46.0,120,576,3.0,105.0
2646,58.0,0,576,3.0,105.0
2647,58.0,0,576,4.0,105.0
2648,70.0,0,576,4.0,92.0
2649,82.0,0,576,0.0,105.0
2650,68.0,0,120,11.0,105.0
2651,80.0,120,120,10.0,116.0
2652,39.0,0,156,14.0,105.0
2653,51.0,0,156,13.0,105.0
2654,63.0,0,192,2.0,105.0
2655,63.0,0,192,12.0,105.0
2656,75.0,0,192,1.0,105.0
2657,68.0,0,192,1.0,105.0
2658,67.0,120,96,11.0,105.0
2659,79.0,0,96,10.0,116.0
2660,70.0,0,96,1.0,105.0
2661,79.0,0,120,10.0,116.0
2662,79.0,0,120,1.0,105.0
2663,67.0,0,120,11.0,105.0
2664,82.0,0,120,0.0,105.0
2665,70.0,0,120,12.0,105.0
2666,56.0,0,144,2.0,105.0
2667,44.0,120,156,14.0,105.0
2668,56.0,0,156,13.0,105.0
2669,80.0,0,96,0.0,105.0
2670,68.0,120,96,12.0,105.0
2671,68.0,0,96,1.0,105.0
2672,77.0,0,96,1.0,105.0
2673,65.0,0,96,11.0,105.0
2674,77.0,0,96,10.0,116.0
2675,68.0,0,96,1.0,105.0
2676,77.0,0,120,1.0,105.0
2677,68.0,0,120,12.0,105.0
2678,77.0,120,120,10.0,116.0
2679,80.0,0,120,0.0,105.0
2680,65.0,0,120,11.0,105.0
2681,46.0,0,144,3.0,105.0
2682,58.0,0,144,2.0,105.0
2683,58.0,0,144,3.0,105.0
2684,70.0,0,144,4.0,105.0
2685,58.0,0,144,4.0,105.0
2686,46.0,0,156,14.0,105.0
2687,58.0,0,156,13.0,105.0
2688,46.0,0,192,5.0,105.0
2689,79.0,0,96,0.0,105.0
2690,75.0,0,96,10.0,116.0
2691,75.0,0,96,1.0,105.0
2692,67.0,0,96,1.0,105.0
2693,67.0,120,96,12.0,105.0
2694,63.0,0,96,11.0,105.0
2695,67.0,0,96,1.0,105.0
2696,63.0,0,120,11.0,105.0
2697,75.0,0,120,1.0,105.0
2698,67.0,0,120,12.0,105.0
2699,79.0,0,120,0.0,105.0
2700,75.0,0,120,10.0,116.0
2701,70.0,0,144,4.0,105.0
2702,46.0,0,144,3.0,105.0
2703,58.0,120,144,3.0,105.0
2704,58.0,0,144,4.0,105.0
2705,56.0,0,144,2.0,105.0
2706,44.0,0,156,14.0,105.0
2707,56.0,0,156,13.0,105.0
2708,46.0,0,192,5.0,105.0
2709,62.0,0,96,11.0,105.0
2710,74.0,120,96,10.0,116.0
2711,65.0,0,96,12.0,105.0
2712,77.0,0,96,0.0,105.0
2713,74.0,0,96,1.0,105.0
2714,65.0,0,96,1.0,105.0
2715,75.0,120,120,10.0,116.0
2716,63.0,0,120,11.0,105.0
2717,55.0,0,156,13.0,105.0
2718,43.0,0,156,14.0,105.0
2719,46.0,0,192,5.0,105.0
2720,70.0,0,96,11.0,105.0
2721,82.0,120,96,10.0,116.0
2722,63.0,0,240,2.0,105.0
2723,82.0,0,240,0.0,105.0
2724,70.0,0,240,1.0,105.0
2725,63.0,0,240,12.0,105.0
2726,70.0,0,120,11.0,105.0
2727,82.0,0,120,10.0,116.0
2728,41.0,0,156,14.0,105.0
2729,53.0,120,156,13.0,105.0
2730,46.0,0,192,5.0,105.0
2731,68.0,0,96,11.0,105.0
2732,80.0,120,96,10.0,116.0
2733,62.0,0,240,12.0,105.0
2734,62.0,0,240,2.0,105.0
2735,80.0,0,240,1.0,105.0
2736,86.0,0,240,0.0,105.0
2737,70.0,0,576,4.0,105.0
2738,46.0,0,576,3.0,105.0
2739,58.0,0,576,3.0,105.0
2740,58.0,0,576,4.0,105.0
2741,80.0,0,120,10.0,116.0
2742,68.0,0,120,11.0,105.0
2743,51.0,0,156,13.0,105.0
2744,39.0,0,156,14.0,105.0
2745,63.0,0,192,2.0,105.0
2746,87.0,0,192,0.0,105.0
2747,79.0,0,192,1.0,105.0
2748,46.0,0,192,5.0,105.0
2749,82.0,0,672,1.0,105.0
2750,63.0,120,192,12.0,105.0
2751,79.0,0,96,10.0,116.0
2752,67.0,120,96,11.0,105.0
2753,82.0,0,96,1.0,105.0
2754,79.0,0,120,10.0,116.0
2755,67.0,120,120,11.0,105.0
2756,70.0,0,120,12.0,105.0
2757,79.0,0,120,1.0,105.0
2758,91.0,0,120,0.0,105.0
2759,56.0,0,144,2.0,105.0
2760,44.0,0,156,14.0,105.0
2761,56.0,0,156,13.0,105.0
2762,68.0,120,96,12.0,105.0
2763,77.0,0,96,10.0,116.0
2764,89.0,0,96,0.0,105.0
2765,80.0,0,96,1.0,105.0
2766,77.0,0,96,1.0,105.0
2767,65.0,0,96,11.0,105.0
2768,80.0,0,96,1.0,105.0
2769,68.0,0,120,12.0,105.0
2770,77.0,0,120,10.0,116.0
2771,89.0,0,120,0.0,105.0
2772,65.0,120,120,11.0,105.0
2773,77.0,0,120,1.0,105.0
2774,58.0,0,144,4.0,105.0
2775,70.0,0,144,4.0,105.0
2776,58.0,0,144,2.0,105.0
2777,58.0,0,144,3.0,105.0
2778,46.0,0,144,3.0,105.0
2779,58.0,0,156,13.0,105.0
2780,46.0,0,156,14.0,105.0
2781,46.0,0,192,5.0,105.0
2782,75.0,0,96,1.0,105.0
2783,79.0,0,96,1.0,105.0
2784,67.0,0,96,12.0,105.0
2785,87.0,0,96,0.0,105.0
2786,63.0,0,96,11.0,105.0
2787,75.0,120,96,10.0,116.0
2788,79.0,0,96,1.0,105.0
2789,87.0,120,120,0.0,105.0
2790,75.0,0,120,1.0,105.0
2791,63.0,0,120,11.0,105.0
2792,75.0,0,120,10.0,116.0
2793,67.0,0,120,12.0,105.0
2794,46.0,0,144,3.0,105.0
2795,58.0,0,144,4.0,105.0
2796,58.0,0,144,3.0,105.0
2797,70.0,0,144,4.0,105.0
2798,46.0,0,144,2.0,105.0
2799,34.0,0,156,14.0,105.0
2800,46.0,0,156,13.0,105.0
2801,46.0,0,192,5.0,105.0
2802,74.0,120,96,1.0,105.0
2803,74.0,0,96,10.0,116.0
2804,77.0,0,96,1.0,105.0
2805,86.0,0,96,0.0,105.0
2806,65.0,0,96,12.0,105.0
2807,62.0,0,96,11.0,105.0
2808,67.0,0,120,11.0,105.0
2809,55.0,0,120,3.0,125.0
2810,67.0,0,120,4.0,125.0
2811,75.0,0,120,1.0,125.0
2812,87.0,0,120,0.0,125.0
2813,75.0,0,120,10.0,127.0
2814,51.0,0,144,2.0,105.0
2815,63.0,120,156,12.0,105.0
2816,51.0,0,156,13.0,105.0
2817,39.0,0,156,14.0,105.0
2818,51.0,0,192,3.0,105.0
2819,51.0,0,192,5.0,105.0
2820,63.0,0,192,4.0,105.0
2821,39.0,0,144,2.0,105.0
2822,51.0,0,156,12.0,105.0
2823,39.0,0,156,14.0,105.0
2824,39.0,240,156,13.0,105.0
2825,51.0,0,192,5.0,105.0
2826,67.0,0,192,1.0,105.0
2827,63.0,0,192,4.0,105.0
2828,51.0,0,192,3.0,105.0
2829,75.0,0,240,10.0,116.0
2830,87.0,0,240,0.0,105.0
2831,67.0,0,240,11.0,105.0
2832,75.0,0,240,1.0,105.0
2833,67.0,0,0,4.0,105.0
2834,55.0,0,0,3.0,105.0
2835,39.0,0,144,2.0,105.0
2836,51.0,0,156,12.0,105.0
2837,39.0,0,156,13.0,105.0
2838,39.0,0,156,14.0,105.0
2839,70.0,0,192,1.0,105.0
2840,51.0,0,192,5.0,105.0
2841,70.0,0,192,4.0,105.0
2842,70.0,0,192,11.0,105.0
2843,79.0,0,192,1.0,105.0
2844,79.0,240,192,10.0,116.0
2845,58.0,0,192,3.0,105.0
2846,91.0,0,192,0.0,105.0
2847,67.0,0,192,1.0,105.0
2848,75.0,0,192,1.0,105.0
2849,51.0,0,192,5.0,105.0
2850,67.0,0,192,11.0,105.0
2851,51.0,0,192,3.0,105.0
2852,51.0,0,192,12.0,105.0
2853,55.0,0,192,3.0,105.0
2854,39.0,240,192,14.0,105.0
2855,87.0,0,192,0.0,105.0
2856,75.0,0,192,10.0,116.0
2857,67.0,0,192,4.0,105.0
2858,39.0,0,192,13.0,105.0
2859,39.0,0,192,2.0,105.0
2860,63.0,0,192,4.0,105.0
2861,51.0,0,96,1.0,70.0
2862,63.0,0,192,3.0,58.0
2863,75.0,0,192,0.0,70.0
2864,39.0,720,192,14.0,70.0
2865,55.0,0,192,3.0,58.0
2866,51.0,0,192,13.0,70.0
2867,63.0,0,192,2.0,58.0
2868,58.0,0,192,2.0,58.0
2869,55.0,120,96,1.0,70.0
2870,58.0,120,96,1.0,70.0
2871,58.0,0,192,12.0,58.0
2872,63.0,0,192,10.0,58.0
2873,55.0,0,192,11.0,58.0
2874,55.0,120,96,1.0,70.0
2875,75.0,0,480,1.0,80.0
2876,58.0,0,96,1.0,70.0
2877,58.0,0,192,12.0,58.0
2878,63.0,0,192,10.0,58.0
2879,55.0,120,192,11.0,58.0
2880,55.0,120,96,1.0,70.0
2881,70.0,0,240,1.0,80.0
2882,51.0,0,96,1.0,70.0
2883,51.0,0,192,13.0,70.0
2884,39.0,0,192,14.0,70.0
2885,55.0,120,96,1.0,70.0
2886,79.0,120,240,1.0,80.0
2887,58.0,0,96,1.0,70.0
2888,55.0,0,192,11.0,58.0
2889,63.0,0,192,10.0,58.0
2890,58.0,120,192,12.0,58.0
2891,55.0,120,96,1.0,70.0
2892,77.0,0,240,1.0,80.0
2893,58.0,0,96,1.0,70.0
2894,55.0,0,192,11.0,58.0
2895,58.0,120,192,12.0,58.0
2896,63.0,0,192,10.0,58.0
2897,75.0,0,192,1.0,80.0
2898,55.0,120,96,1.0,70.0
2899,53.0,0,96,1.0,70.0
2900,74.0,0,120,1.0,80.0
2901,34.0,120,192,14.0,70.0
2902,46.0,0,192,13.0,70.0
2903,56.0,120,96,1.0,70.0
2904,77.0,0,120,1.0,80.0
2905,58.0,0,96,1.0,70.0
2906,80.0,0,120,1.0,80.0
2907,56.0,0,192,11.0,58.0
2908,58.0,0,192,12.0,58.0
2909,62.0,120,192,10.0,58.0
2910,56.0,120,96,1.0,70.0
2911,79.0,0,120,1.0,80.0
2912,58.0,0,96,1.0,70.0
2913,77.0,120,120,1.0,80.0
2914,62.0,0,192,10.0,58.0
2915,58.0,0,192,12.0,58.0
2916,56.0,0,192,11.0,58.0
2917,56.0,0,96,1.0,70.0
2918,75.0,120,120,1.0,80.0
2919,53.0,0,96,1.0,70.0
2920,74.0,0,120,0.0,70.0
2921,74.0,0,192,1.0,70.0
2922,58.0,0,192,12.0,58.0
2923,56.0,120,192,11.0,58.0
2924,46.0,0,192,13.0,70.0
2925,34.0,0,192,14.0,70.0
2926,62.0,0,192,10.0,58.0
2927,56.0,120,96,1.0,70.0
2928,77.0,0,120,0.0,70.0
2929,58.0,0,96,1.0,70.0
2930,80.0,0,120,0.0,70.0
2931,68.0,120,192,3.0,58.0
2932,58.0,0,192,2.0,58.0
2933,62.0,0,192,2.0,58.0
2934,65.0,0,192,3.0,58.0
2935,56.0,0,96,1.0,70.0
2936,79.0,120,120,0.0,70.0
2937,58.0,0,96,1.0,70.0
2938,77.0,0,120,0.0,70.0
2939,62.0,0,192,2.0,58.0
2940,58.0,0,192,2.0,58.0
2941,68.0,120,192,3.0,58.0
2942,65.0,0,192,3.0,58.0
2943,56.0,120,96,1.0,70.0
2944,75.0,0,120,0.0,70.0
2945,50.0,0,96,1.0,70.0
2946,46.0,0,192,13.0,70.0
2947,74.0,0,192,0.0,70.0
2948,62.0,0,192,2.0,58.0
2949,58.0,0,192,2.0,58.0
2950,34.0,0,192,14.0,70.0
2951,65.0,120,192,3.0,58.0
2952,68.0,0,192,3.0,58.0
2953,56.0,120,96,1.0,70.0
2954,58.0,120,96,1.0,70.0
2955,62.0,0,192,11.0,58.0
2956,58.0,0,192,12.0,58.0
2957,68.0,0,192,10.0,58.0
2958,56.0,120,96,1.0,70.0
2959,77.0,0,480,1.0,80.0
2960,58.0,0,96,1.0,70.0
2961,68.0,120,192,10.0,58.0
2962,58.0,0,192,12.0,58.0
2963,62.0,0,192,11.0,58.0
2964,56.0,120,96,1.0,70.0
2965,70.0,0,240,1.0,80.0
2966,50.0,0,96,1.0,70.0
2967,34.0,0,192,14.0,70.0
2968,46.0,120,192,13.0,70.0
2969,56.0,120,96,1.0,70.0
2970,80.0,0,240,1.0,80.0
2971,58.0,0,96,1.0,70.0
2972,62.0,0,192,11.0,58.0
2973,58.0,0,192,12.0,58.0
2974,68.0,0,192,10.0,58.0
2975,56.0,120,96,1.0,70.0
2976,79.0,120,240,1.0,80.0
2977,58.0,120,96,1.0,70.0
2978,58.0,0,192,12.0,58.0
2979,77.0,0,192,1.0,80.0
2980,62.0,0,192,11.0,58.0
2981,68.0,0,192,10.0,58.0
2982,56.0,120,96,1.0,70.0
2983,55.0,0,96,1.0,70.0
2984,75.0,0,120,1.0,80.0
2985,39.0,0,144,14.0,70.0
2986,51.0,0,144,13.0,70.0
2987,58.0,0,96,1.0,70.0
2988,79.0,120,120,1.0,80.0
2989,51.0,120,96,1.0,70.0
2990,82.0,0,120,1.0,80.0
2991,31.0,0,144,14.0,70.0
2992,43.0,0,144,13.0,70.0
2993,58.0,120,96,1.0,70.0
2994,67.0,0,480,10.0,58.0
2995,58.0,120,480,12.0,58.0
2996,63.0,0,480,11.0,58.0
2997,79.0,0,120,1.0,80.0
2998,50.0,0,96,1.0,70.0
2999,80.0,0,120,1.0,80.0
3000,34.0,0,144,14.0,70.0
3001,46.0,0,144,13.0,70.0
3002,65.0,120,192,10.0,58.0
3003,62.0,0,192,11.0,58.0
3004,56.0,0,192,12.0,58.0
3005,58.0,0,96,1.0,70.0
3006,77.0,120,120,1.0,80.0
3007,75.0,0,120,0.0,70.0
3008,39.0,0,144,14.0,70.0
3009,39.0,0,144,13.0,70.0
3010,63.0,0,192,10.0,58.0
3011,51.0,0,192,1.0,70.0
3012,75.0,0,192,1.0,58.0
3013,63.0,0,192,11.0,58.0
3014,55.0,120,192,12.0,58.0
3015,79.0,120,120,0.0,70.0
3016,82.0,120,120,0.0,70.0
3017,43.0,0,144,13.0,70.0
3018,31.0,0,144,14.0,70.0
3019,63.0,0,480,3.0,58.0
3020,58.0,0,480,2.0,58.0
3021,55.0,0,480,2.0,58.0
3022,79.0,120,120,0.0,70.0
3023,67.0,0,480,3.0,58.0
3024,80.0,120,120,0.0,70.0
3025,46.0,0,144,13.0,70.0
3026,34.0,0,144,14.0,70.0
3027,65.0,0,192,3.0,58.0
3028,58.0,0,192,3.0,58.0
3029,56.0,0,192,2.0,58.0
3030,62.0,0,192,2.0,58.0
3031,77.0,120,120,0.0,70.0
3032,51.0,120,96,1.0,70.0
3033,55.0,0,192,3.0,58.0
3034,63.0,0,192,3.0,58.0
3035,75.0,0,192,0.0,70.0
3036,39.0,0,192,14.0,70.0
3037,51.0,0,192,13.0,70.0
3038,63.0,0,192,2.0,58.0
3039,58.0,0,192,2.0,58.0
3040,55.0,120,96,1.0,70.0
3041,58.0,0,96,1.0,70.0
3042,58.0,120,192,12.0,58.0
3043,55.0,0,192,11.0,58.0
3044,63.0,0,192,10.0,58.0
3045,55.0,120,96,1.0,70.0
3046,75.0,0,480,1.0,80.0
3047,58.0,0,96,1.0,70.0
3048,55.0,0,192,11.0,58.0
3049,63.0,120,192,10.0,58.0
3050,58.0,0,192,12.0,58.0
3051,55.0,120,96,1.0,70.0
3052,70.0,0,240,1.0,80.0
3053,51.0,0,96,1.0,70.0
3054,51.0,0,192,13.0,70.0
3055,39.0,120,192,14.0,70.0
3056,55.0,120,96,1.0,70.0
3057,79.0,0,240,1.0,80.0
3058,58.0,120,96,1.0,70.0
3059,58.0,0,192,12.0,58.0
3060,55.0,0,192,11.0,58.0
3061,63.0,0,192,10.0,58.0
3062,55.0,120,96,1.0,70.0
3063,77.0,0,240,1.0,80.0
3064,58.0,0,96,1.0,70.0
3065,55.0,0,192,11.0,58.0
3066,58.0,120,192,12.0,58.0
3067,75.0,0,192,1.0,80.0
3068,63.0,0,192,10.0,58.0
3069,55.0,120,96,1.0,70.0
3070,53.0,120,96,1.0,70.0
3071,74.0,0,120,1.0,80.0
3072,46.0,0,192,13.0,70.0
3073,34.0,0,192,14.0,70.0
3074,56.0,0,96,1.0,70.0
3075,77.0,120,120,1.0,80.0
3076,58.0,0,96,1.0,70.0
3077,80.0,120,120,1.0,80.0
3078,56.0,0,192,11.0,58.0
3079,62.0,0,192,10.0,58.0
3080,58.0,0,192,12.0,58.0
3081,56.0,0,96,1.0,70.0
3082,79.0,120,120,1.0,80.0
3083,58.0,120,96,1.0,70.0
3084,77.0,0,120,1.0,80.0
3085,56.0,0,192,11.0,58.0
3086,62.0,0,192,10.0,58.0
3087,58.0,0,192,12.0,58.0
3088,56.0,0,96,1.0,70.0
3089,75.0,120,120,1.0,80.0
3090,53.0,0,96,1.0,70.0
3091,74.0,0,120,0.0,70.0
3092,62.0,0,192,10.0,58.0
3093,58.0,0,192,12.0,58.0
3094,34.0,0,192,14.0,70.0
3095,46.0,0,192,13.0,70.0
3096,74.0,120,192,1.0,70.0
3097,56.0,0,192,11.0,58.0
3098,56.0,0,96,1.0,70.0
3099,77.0,120,120,0.0,70.0
3100,58.0,0,96,1.0,70.0
3101,80.0,0,120,0.0,70.0
3102,68.0,120,192,3.0,58.0
3103,62.0,0,192,2.0,58.0
3104,58.0,0,192,2.0,58.0
3105,65.0,0,192,3.0,58.0
3106,56.0,0,96,1.0,70.0
3107,79.0,120,120,0.0,70.0
3108,58.0,0,96,1.0,70.0
3109,77.0,0,120,0.0,70.0
3110,62.0,0,192,2.0,58.0
3111,65.0,0,192,3.0,58.0
3112,68.0,0,192,3.0,58.0
3113,58.0,120,192,2.0,58.0
3114,56.0,0,96,1.0,70.0
3115,75.0,120,120,0.0,70.0
3116,50.0,0,96,1.0,70.0
3117,65.0,0,192,3.0,58.0
3118,68.0,0,192,3.0,58.0
3119,58.0,0,192,2.0,58.0
3120,46.0,0,192,13.0,70.0
3121,34.0,0,192,14.0,70.0
3122,62.0,0,192,2.0,58.0
3123,74.0,0,192,0.0,70.0
3124,56.0,120,96,1.0,70.0
3125,58.0,120,96,1.0,70.0
3126,68.0,0,192,10.0,58.0
3127,62.0,0,192,11.0,58.0
3128,58.0,0,192,12.0,58.0
3129,56.0,120,96,1.0,70.0
3130,77.0,120,480,1.0,80.0
3131,58.0,120,96,1.0,70.0
3132,68.0,0,192,10.0,58.0
3133,58.0,0,192,12.0,58.0
3134,62.0,0,192,11.0,58.0
3135,56.0,120,96,1.0,70.0
3136,70.0,0,240,1.0,80.0
3137,50.0,0,96,1.0,70.0
3138,46.0,0,192,13.0,70.0
3139,34.0,120,192,14.0,70.0
3140,56.0,120,96,1.0,70.0
3141,80.0,0,240,1.0,80.0
3142,58.0,120,96,1.0,70.0
3143,58.0,0,192,12.0,58.0
3144,62.0,0,192,11.0,58.0
3145,68.0,0,192,10.0,58.0
3146,56.0,120,96,1.0,70.0
3147,79.0,0,240,1.0,80.0
3148,58.0,0,96,1.0,70.0
3149,68.0,120,192,10.0,58.0
3150,62.0,0,192,11.0,58.0
3151,77.0,0,192,1.0,80.0
3152,58.0,0,192,12.0,58.0
3153,56.0,120,96,1.0,70.0
3154,55.0,0,96,1.0,70.0
3155,75.0,0,120,1.0,80.0
3156,51.0,0,144,13.0,70.0
3157,39.0,0,144,14.0,70.0
3158,58.0,120,96,1.0,70.0
3159,79.0,0,120,1.0,80.0
3160,51.0,120,96,1.0,70.0
3161,82.0,0,120,1.0,80.0
3162,31.0,0,144,14.0,70.0
3163,43.0,0,144,13.0,70.0
3164,58.0,0,96,1.0,70.0
3165,58.0,0,480,12.0,58.0
3166,67.0,120,480,10.0,58.0
3167,79.0,120,120,1.0,80.0
3168,63.0,0,480,11.0,58.0
3169,50.0,0,96,1.0,70.0
3170,80.0,120,120,1.0,80.0
3171,46.0,0,144,13.0,70.0
3172,34.0,0,144,14.0,70.0
3173,56.0,0,192,12.0,58.0
3174,62.0,0,192,11.0,58.0
3175,65.0,0,192,10.0,58.0
3176,58.0,120,96,1.0,70.0
3177,77.0,0,120,1.0,80.0
3178,75.0,0,120,0.0,70.0
3179,39.0,0,144,14.0,70.0
3180,39.0,0,144,13.0,70.0
3181,51.0,0,192,1.0,70.0
3182,63.0,0,192,11.0,58.0
3183,63.0,0,192,10.0,58.0
3184,55.0,0,192,12.0,58.0
3185,75.0,0,192,1.0,58.0
3186,79.0,120,120,0.0,70.0
3187,82.0,120,120,0.0,70.0
3188,43.0,0,144,13.0,70.0
3189,31.0,0,144,14.0,70.0
3190,79.0,120,120,0.0,70.0
3191,58.0,0,480,2.0,58.0
3192,63.0,0,480,3.0,58.0
3193,67.0,0,480,3.0,58.0
3194,55.0,120,480,2.0,58.0
3195,80.0,0,120,0.0,70.0
3196,34.0,0,144,14.0,70.0
3197,46.0,120,144,13.0,70.0
3198,65.0,0,192,3.0,58.0
3199,56.0,0,192,2.0,58.0
3200,62.0,0,192,2.0,58.0
3201,58.0,0,192,3.0,58.0
3202,77.0,120,120,0.0,70.0
3203,58.0,0,72,11.0,58.0
3204,63.0,120,72,11.0,58.0
3205,55.0,0,192,3.0,58.0
3206,75.0,0,192,0.0,70.0
3207,58.0,0,192,2.0,58.0
3208,63.0,0,192,2.0,58.0
3209,63.0,0,192,3.0,58.0
3210,67.0,120,72,11.0,58.0
3211,63.0,120,72,11.0,58.0
3212,79.0,0,456,10.0,80.0
3213,58.0,120,72,11.0,58.0
3214,63.0,120,72,11.0,58.0
3215,79.0,0,228,10.0,80.0
3216,51.0,120,720,13.0,58.0
3217,63.0,0,720,12.0,58.0
3218,39.0,0,720,14.0,58.0
3219,59.0,0,72,11.0,58.0
3220,62.0,120,72,11.0,58.0
3221,79.0,120,240,10.0,80.0
3222,65.0,0,72,11.0,58.0
3223,62.0,120,72,11.0,58.0
3224,80.0,120,240,10.0,80.0
3225,59.0,120,72,11.0,58.0
3226,38.0,0,648,14.0,58.0
3227,50.0,0,648,13.0,58.0
3228,62.0,0,648,12.0,58.0
3229,62.0,120,72,11.0,58.0
3230,63.0,0,72,11.0,58.0
3231,67.0,120,72,11.0,58.0
3232,79.0,0,468,10.0,80.0
3233,72.0,0,72,11.0,58.0
3234,67.0,120,72,11.0,58.0
3235,84.0,120,216,10.0,80.0
3236,48.0,0,480,13.0,58.0
3237,36.0,0,480,14.0,58.0
3238,60.0,120,480,12.0,58.0
3239,63.0,0,72,11.0,58.0
3240,60.0,120,72,11.0,58.0
3241,34.0,0,240,14.0,58.0
3242,46.0,0,240,13.0,58.0
3243,58.0,0,240,12.0,58.0
3244,63.0,120,72,11.0,58.0
3245,72.0,120,72,11.0,58.0
3246,78.0,120,480,10.0,80.0
3247,75.0,0,72,11.0,58.0
3248,72.0,120,72,11.0,58.0
3249,77.0,120,216,10.0,80.0
3250,69.0,120,72,11.0,58.0
3251,63.0,120,72,11.0,58.0
3252,57.0,0,720,12.0,58.0
3253,45.0,0,720,13.0,58.0
3254,33.0,0,720,14.0,58.0
3255,62.0,0,72,11.0,58.0
3256,77.0,0,360,10.0,80.0
3257,46.0,120,192,13.0,58.0
3258,65.0,0,72,11.0,58.0
3259,34.0,0,192,14.0,58.0
3260,58.0,0,192,12.0,58.0
3261,79.0,120,120,10.0,80.0
3262,70.0,120,72,11.0,58.0
3263,81.0,0,120,10.0,80.0
3264,65.0,0,72,11.0,58.0
3265,82.0,120,120,10.0,80.0
3266,62.0,120,72,11.0,58.0
3267,81.0,0,120,10.0,80.0
3268,65.0,0,72,11.0,58.0
3269,82.0,120,96,10.0,80.0
3270,62.0,0,72,11.0,58.0
3271,65.0,120,72,11.0,58.0
3272,70.0,120,72,11.0,58.0
3273,65.0,120,72,11.0,58.0
3274,70.0,0,480,10.0,80.0
3275,69.0,0,72,11.0,58.0
3276,74.0,120,120,10.0,80.0
3277,63.0,0,72,11.0,58.0
3278,29.0,120,720,14.0,58.0
3279,53.0,0,720,12.0,58.0
3280,41.0,0,720,13.0,58.0
3281,72.0,120,120,10.0,80.0
3282,62.0,0,72,11.0,58.0
3283,58.0,120,72,11.0,58.0
3284,46.0,0,192,13.0,58.0
3285,58.0,0,192,12.0,58.0
3286,34.0,0,192,14.0,58.0
3287,65.0,120,120,11.0,58.0
3288,62.0,120,120,11.0,58.0
3289,65.0,0,240,3.0,70.0
3290,58.0,0,240,3.0,70.0
3291,67.0,120,120,11.0,58.0
3292,63.0,0,240,3.0,70.0
3293,67.0,0,240,3.0,70.0
3294,63.0,120,120,11.0,58.0
3295,68.0,120,120,11.0,58.0
3296,65.0,0,240,3.0,70.0
3297,68.0,0,240,3.0,70.0
3298,65.0,120,120,11.0,58.0
3299,67.0,0,120,11.0,58.0
3300,67.0,120,240,3.0,70.0
3301,63.0,0,240,3.0,70.0
3302,63.0,120,120,11.0,58.0
3303,65.0,0,120,11.0,58.0
3304,65.0,120,240,3.0,70.0
3305,58.0,0,240,3.0,70.0
3306,62.0,120,120,11.0,58.0
3307,51.0,0,96,1.0,70.0
3308,63.0,0,192,11.0,58.0
3309,63.0,0,192,2.0,58.0
3310,58.0,0,192,2.0,58.0
3311,39.0,0,192,14.0,58.0
3312,70.0,120,1632,10.0,70.0
3313,51.0,0,192,13.0,70.0
3314,75.0,0,192,0.0,70.0
3315,63.0,120,192,3.0,58.0
3316,55.0,0,192,3.0,58.0
3317,55.0,120,96,1.0,70.0
3318,58.0,0,96,1.0,70.0
3319,67.0,120,192,10.0,58.0
3320,58.0,0,192,10.0,58.0
3321,63.0,0,192,11.0,58.0
3322,51.0,0,192,12.0,58.0
3323,55.0,120,96,1.0,70.0
3324,75.0,0,480,1.0,80.0
3325,58.0,120,96,1.0,70.0
3326,58.0,0,192,10.0,58.0
3327,63.0,0,192,11.0,58.0
3328,67.0,0,192,10.0,58.0
3329,51.0,0,192,12.0,58.0
3330,55.0,120,96,1.0,70.0
3331,70.0,0,240,1.0,80.0
3332,51.0,0,96,1.0,70.0
3333,51.0,120,192,14.0,70.0
3334,63.0,0,192,13.0,70.0
3335,55.0,120,96,1.0,70.0
3336,79.0,0,240,1.0,80.0
3337,58.0,120,96,1.0,70.0
3338,63.0,0,192,11.0,58.0
3339,51.0,0,192,12.0,58.0
3340,67.0,0,192,10.0,58.0
3341,58.0,0,192,10.0,58.0
3342,55.0,120,96,1.0,70.0
3343,77.0,0,240,1.0,80.0
3344,58.0,0,96,1.0,70.0
3345,63.0,0,192,11.0,58.0
3346,67.0,0,192,10.0,58.0
3347,75.0,0,192,1.0,80.0
3348,58.0,120,192,10.0,58.0
3349,51.0,0,192,12.0,58.0
3350,55.0,120,96,1.0,70.0
3351,53.0,0,96,1.0,70.0
3352,74.0,0,120,1.0,80.0
3353,46.0,0,192,13.0,70.0
3354,34.0,120,192,14.0,70.0
3355,56.0,120,96,1.0,70.0
3356,77.0,0,120,1.0,80.0
3357,58.0,120,96,1.0,70.0
3358,80.0,0,120,1.0,80.0
3359,58.0,0,192,10.0,58.0
3360,65.0,0,192,11.0,58.0
3361,68.0,0,192,10.0,58.0
3362,50.0,0,192,12.0,58.0
3363,56.0,0,96,1.0,70.0
3364,79.0,120,120,1.0,80.0
3365,58.0,0,96,1.0,70.0
3366,77.0,0,120,1.0,80.0
3367,58.0,0,192,10.0,58.0
3368,68.0,0,192,10.0,58.0
3369,65.0,0,192,11.0,58.0
3370,50.0,120,192,12.0,58.0
3371,56.0,120,96,1.0,70.0
3372,75.0,0,120,1.0,80.0
3373,53.0,0,96,1.0,70.0
3374,74.0,0,120,0.0,70.0
3375,46.0,0,192,14.0,70.0
3376,50.0,0,192,12.0,58.0
3377,74.0,120,192,1.0,70.0
3378,65.0,0,192,11.0,58.0
3379,68.0,0,192,10.0,58.0
3380,58.0,0,192,10.0,58.0
3381,58.0,0,192,13.0,70.0
3382,56.0,120,96,1.0,70.0
3383,77.0,0,120,0.0,70.0
3384,58.0,120,96,1.0,70.0
3385,80.0,0,120,0.0,70.0
3386,65.0,0,192,3.0,58.0
3387,68.0,0,192,3.0,58.0
3388,62.0,0,192,2.0,58.0
3389,58.0,0,192,2.0,58.0
3390,56.0,120,96,1.0,70.0
3391,79.0,0,120,0.0,70.0
3392,58.0,0,96,1.0,70.0
3393,77.0,120,120,0.0,70.0
3394,58.0,0,192,2.0,58.0
3395,68.0,0,192,3.0,58.0
3396,65.0,0,192,3.0,58.0
3397,62.0,0,192,2.0,58.0
3398,56.0,0,96,1.0,70.0
3399,75.0,120,120,0.0,70.0
3400,50.0,0,96,1.0,70.0
3401,58.0,0,192,2.0,58.0
3402,62.0,0,192,2.0,58.0
3403,46.0,0,192,13.0,70.0
3404,68.0,0,192,3.0,58.0
3405,74.0,0,192,0.0,70.0
3406,65.0,0,192,3.0,58.0
3407,34.0,120,192,14.0,70.0
3408,56.0,120,96,1.0,70.0
3409,58.0,120,96,1.0,70.0
3410,50.0,0,192,12.0,58.0
3411,65.0,0,192,11.0,58.0
3412,58.0,0,192,10.0,58.0
3413,68.0,0,192,10.0,58.0
3414,56.0,120,96,1.0,70.0
3415,77.0,0,480,1.0,80.0
3416,58.0,0,96,1.0,70.0
3417,50.0,120,192,12.0,58.0
3418,68.0,0,192,10.0,58.0
3419,58.0,0,192,10.0,58.0
3420,65.0,0,192,11.0,58.0
3421,56.0,120,96,1.0,70.0
3422,70.0,0,240,1.0,80.0
3423,50.0,0,96,1.0,70.0
3424,46.0,0,192,14.0,70.0
3425,58.0,120,192,13.0,70.0
3426,56.0,120,96,1.0,70.0
3427,80.0,0,240,1.0,80.0
3428,58.0,120,96,1.0,70.0
3429,68.0,0,192,10.0,58.0
3430,50.0,0,192,12.0,58.0
3431,65.0,0,192,11.0,58.0
3432,58.0,0,192,10.0,58.0
3433,56.0,120,96,1.0,70.0
3434,79.0,0,240,1.0,80.0
3435,58.0,0,96,1.0,70.0
3436,65.0,0,192,11.0,58.0
3437,58.0,0,192,10.0,58.0
3438,68.0,0,192,10.0,58.0
3439,50.0,120,192,12.0,58.0
3440,77.0,0,192,1.0,80.0
3441,56.0,120,96,1.0,70.0
3442,55.0,0,96,1.0,70.0
3443,75.0,120,120,1.0,80.0
3444,51.0,0,144,14.0,70.0
3445,63.0,0,144,13.0,70.0
3446,58.0,120,96,1.0,70.0
3447,79.0,0,120,1.0,80.0
3448,51.0,0,96,1.0,70.0
3449,82.0,0,120,1.0,80.0
3450,43.0,120,144,14.0,70.0
3451,55.0,0,144,13.0,70.0
3452,58.0,120,96,1.0,70.0
3453,67.0,0,480,10.0,58.0
3454,79.0,0,120,1.0,80.0
3455,51.0,0,480,12.0,58.0
3456,63.0,0,480,11.0,58.0
3457,50.0,0,96,1.0,70.0
3458,80.0,120,120,1.0,80.0
3459,58.0,0,144,13.0,70.0
3460,46.0,0,144,14.0,70.0
3461,56.0,0,192,12.0,58.0
3462,65.0,0,192,10.0,58.0
3463,62.0,0,192,11.0,58.0
3464,58.0,120,96,1.0,70.0
3465,77.0,0,120,1.0,80.0
3466,75.0,0,120,0.0,70.0
3467,39.0,0,144,14.0,70.0
3468,51.0,0,144,13.0,70.0
3469,55.0,0,192,12.0,58.0
3470,51.0,0,192,1.0,70.0
3471,63.0,0,192,11.0,58.0
3472,75.0,0,192,1.0,58.0
3473,63.0,0,192,10.0,58.0
3474,79.0,120,120,0.0,70.0
3475,82.0,0,120,0.0,70.0
3476,31.0,120,144,14.0,70.0
3477,43.0,0,144,13.0,70.0
3478,58.0,0,480,2.0,58.0
3479,63.0,120,480,3.0,58.0
3480,67.0,0,480,3.0,58.0
3481,55.0,0,480,2.0,58.0
3482,79.0,120,120,0.0,70.0
3483,80.0,0,120,0.0,70.0
3484,34.0,0,144,14.0,70.0
3485,46.0,120,144,13.0,70.0
3486,58.0,0,192,3.0,58.0
3487,56.0,0,192,2.0,58.0
3488,62.0,0,192,2.0,58.0
3489,65.0,0,192,3.0,58.0
3490,77.0,120,120,0.0,70.0
3491,58.0,0,72,11.0,58.0
3492,58.0,0,192,2.0,58.0
3493,75.0,120,192,0.0,70.0
3494,63.0,0,192,2.0,58.0
3495,63.0,120,72,11.0,58.0
3496,63.0,0,192,3.0,58.0
3497,55.0,0,192,3.0,58.0
3498,67.0,120,72,11.0,58.0
3499,63.0,120,72,11.0,58.0
3500,79.0,0,456,10.0,80.0
3501,58.0,0,72,11.0,58.0
3502,63.0,120,72,11.0,58.0
3503,79.0,120,228,10.0,80.0
3504,63.0,0,720,12.0,58.0
3505,39.0,0,720,14.0,58.0
3506,51.0,0,720,13.0,58.0
3507,59.0,0,72,11.0,58.0
3508,62.0,120,72,11.0,58.0
3509,79.0,0,240,10.0,80.0
3510,65.0,0,72,11.0,58.0
3511,62.0,120,72,11.0,58.0
3512,80.0,120,240,10.0,80.0
3513,59.0,0,72,11.0,58.0
3514,50.0,0,648,13.0,58.0
3515,38.0,0,648,14.0,58.0
3516,62.0,120,648,12.0,58.0
3517,62.0,120,72,11.0,58.0
3518,63.0,0,72,11.0,58.0
3519,67.0,120,72,11.0,58.0
3520,79.0,120,468,10.0,80.0
3521,72.0,120,72,11.0,58.0
3522,67.0,120,72,11.0,58.0
3523,84.0,0,216,10.0,80.0
3524,36.0,120,480,14.0,58.0
3525,60.0,0,480,12.0,58.0
3526,48.0,0,480,13.0,58.0
3527,63.0,0,72,11.0,58.0
3528,60.0,120,72,11.0,58.0
3529,46.0,0,240,13.0,58.0
3530,34.0,0,240,14.0,58.0
3531,58.0,120,240,12.0,58.0
3532,63.0,0,72,11.0,58.0
3533,72.0,120,72,11.0,58.0
3534,78.0,0,480,10.0,80.0
3535,75.0,120,72,11.0,58.0
3536,72.0,120,72,11.0,58.0
3537,77.0,0,216,10.0,80.0
3538,69.0,0,72,11.0,58.0
3539,63.0,120,72,11.0,58.0
3540,57.0,120,720,12.0,58.0
3541,33.0,0,720,14.0,58.0
3542,45.0,0,720,13.0,58.0
3543,62.0,0,72,11.0,58.0
3544,77.0,120,360,10.0,80.0
3545,46.0,0,192,13.0,58.0
3546,65.0,0,72,11.0,58.0
3547,34.0,120,192,14.0,58.0
3548,58.0,0,192,12.0,58.0
3549,79.0,120,120,10.0,80.0
3550,70.0,0,72,11.0,58.0
3551,81.0,120,120,10.0,80.0
3552,65.0,120,72,11.0,58.0
3553,82.0,0,120,10.0,80.0
3554,62.0,0,72,11.0,58.0
3555,81.0,120,120,10.0,80.0
3556,65.0,0,72,11.0,58.0
3557,82.0,120,96,10.0,80.0
3558,62.0,0,72,11.0,58.0
3559,65.0,120,72,11.0,58.0
3560,70.0,120,72,11.0,58.0
3561,65.0,120,72,11.0,58.0
3562,70.0,120,480,10.0,80.0
3563,69.0,0,72,11.0,58.0
3564,74.0,120,120,10.0,80.0
3565,63.0,0,72,11.0,58.0
3566,53.0,0,720,12.0,58.0
3567,41.0,0,720,13.0,58.0
3568,72.0,120,120,10.0,80.0
3569,29.0,0,720,14.0,58.0
3570,62.0,0,72,11.0,58.0
3571,46.0,0,192,13.0,58.0
3572,58.0,0,192,12.0,58.0
3573,34.0,0,192,14.0,58.0
3574,58.0,120,72,11.0,58.0
3575,65.0,120,120,11.0,58.0
3576,65.0,0,240,3.0,70.0
3577,58.0,0,240,3.0,70.0
3578,62.0,120,120,11.0,58.0
3579,67.0,0,120,11.0,58.0
3580,67.0,0,240,3.0,70.0
3581,63.0,120,240,3.0,70.0
3582,63.0,120,120,11.0,58.0
3583,68.0,0,120,11.0,58.0
3584,65.0,120,120,11.0,58.0
3585,68.0,0,240,3.0,70.0
3586,65.0,120,240,3.0,70.0
3587,67.0,120,120,11.0,58.0
3588,67.0,0,240,3.0,70.0
3589,63.0,0,240,3.0,70.0
3590,63.0,120,120,11.0,58.0
3591,65.0,0,120,11.0,58.0
3592,65.0,0,240,3.0,70.0
3593,62.0,120,120,11.0,58.0
3594,58.0,120,240,3.0,70.0
3595,51.0,120,96,1.0,70.0
3596,70.0,120,1632,10.0,70.0
3597,55.0,0,192,3.0,58.0
3598,58.0,0,192,2.0,58.0
3599,63.0,0,192,3.0,58.0
3600,63.0,0,192,2.0,58.0
3601,51.0,0,192,13.0,70.0
3602,75.0,0,192,0.0,70.0
3603,63.0,0,192,11.0,58.0
3604,39.0,0,192,14.0,58.0
3605,55.0,120,96,1.0,70.0
3606,58.0,120,96,1.0,70.0
3607,67.0,0,192,10.0,58.0
3608,51.0,0,192,12.0,58.0
3609,63.0,0,192,11.0,58.0
3610,58.0,0,192,10.0,58.0
3611,55.0,120,96,1.0,70.0
3612,75.0,0,480,1.0,80.0
3613,58.0,0,96,1.0,70.0
3614,58.0,0,192,10.0,58.0
3615,67.0,0,192,10.0,58.0
3616,51.0,0,192,12.0,58.0
3617,63.0,120,192,11.0,58.0
3618,55.0,120,96,1.0,70.0
3619,70.0,0,240,1.0,80.0
3620,51.0,0,96,1.0,70.0
3621,51.0,0,192,14.0,70.0
3622,63.0,0,192,13.0,70.0
3623,55.0,120,96,1.0,70.0
3624,79.0,120,240,1.0,80.0
3625,58.0,120,96,1.0,70.0
3626,58.0,0,192,10.0,58.0
3627,67.0,0,192,10.0,58.0
3628,63.0,0,192,11.0,58.0
3629,51.0,0,192,12.0,58.0
3630,55.0,120,96,1.0,70.0
3631,77.0,0,240,1.0,80.0
3632,58.0,0,96,1.0,70.0
3633,63.0,0,192,11.0,58.0
3634,58.0,0,192,10.0,58.0
3635,67.0,0,192,10.0,58.0
3636,51.0,0,192,12.0,58.0
3637,75.0,120,192,1.0,80.0
3638,55.0,120,96,1.0,70.0
3639,53.0,120,96,1.0,70.0
3640,74.0,0,120,1.0,80.0
3641,46.0,0,192,13.0,70.0
3642,34.0,0,192,14.0,70.0
3643,56.0,120,96,1.0,70.0
3644,77.0,0,120,1.0,80.0
3645,58.0,0,96,1.0,70.0
3646,80.0,120,120,1.0,80.0
3647,65.0,0,192,11.0,58.0
3648,68.0,0,192,10.0,58.0
3649,58.0,0,192,10.0,58.0
3650,50.0,0,192,12.0,58.0
3651,56.0,0,96,1.0,70.0
3652,79.0,120,120,1.0,80.0
3653,58.0,0,96,1.0,70.0
3654,77.0,0,120,1.0,80.0
3655,58.0,120,192,10.0,58.0
3656,50.0,0,192,12.0,58.0
3657,68.0,0,192,10.0,58.0
3658,65.0,0,192,11.0,58.0
3659,56.0,120,96,1.0,70.0
3660,75.0,0,120,1.0,80.0
3661,53.0,0,96,1.0,70.0
3662,74.0,120,120,0.0,70.0
3663,74.0,0,192,1.0,70.0
3664,58.0,0,192,10.0,58.0
3665,50.0,0,192,12.0,58.0
3666,68.0,0,192,10.0,58.0
3667,58.0,0,192,13.0,70.0
3668,46.0,0,192,14.0,70.0
3669,65.0,0,192,11.0,58.0
3670,56.0,120,96,1.0,70.0
3671,77.0,0,120,0.0,70.0
3672,58.0,0,96,1.0,70.0
3673,80.0,0,120,0.0,70.0
3674,62.0,120,192,2.0,58.0
3675,58.0,0,192,2.0,58.0
3676,68.0,0,192,3.0,58.0
3677,65.0,0,192,3.0,58.0
3678,56.0,120,96,1.0,70.0
3679,79.0,0,120,0.0,70.0
3680,58.0,0,96,1.0,70.0
3681,77.0,0,120,0.0,70.0
3682,68.0,0,192,3.0,58.0
3683,65.0,0,192,3.0,58.0
3684,62.0,0,192,2.0,58.0
3685,58.0,120,192,2.0,58.0
3686,56.0,0,96,1.0,70.0
3687,75.0,120,120,0.0,70.0
3688,50.0,0,96,1.0,70.0
3689,74.0,0,192,0.0,70.0
3690,68.0,120,192,3.0,58.0
3691,65.0,0,192,3.0,58.0
3692,62.0,0,192,2.0,58.0
3693,58.0,0,192,2.0,58.0
3694,46.0,0,192,13.0,70.0
3695,34.0,0,192,14.0,70.0
3696,56.0,120,96,1.0,70.0
3697,58.0,120,96,1.0,70.0
3698,50.0,0,192,12.0,58.0
3699,65.0,0,192,11.0,58.0
3700,58.0,0,192,10.0,58.0
3701,68.0,0,192,10.0,58.0
3702,56.0,120,96,1.0,70.0
3703,77.0,0,480,1.0,80.0
3704,58.0,0,96,1.0,70.0
3705,58.0,0,192,10.0,58.0
3706,50.0,0,192,12.0,58.0
3707,68.0,0,192,10.0,58.0
3708,65.0,120,192,11.0,58.0
3709,56.0,120,96,1.0,70.0
3710,70.0,0,240,1.0,80.0
3711,50.0,0,96,1.0,70.0
3712,58.0,0,192,13.0,70.0
3713,46.0,0,192,14.0,70.0
3714,56.0,120,96,1.0,70.0
3715,80.0,120,240,1.0,80.0
3716,58.0,0,96,1.0,70.0
3717,68.0,120,192,10.0,58.0
3718,58.0,0,192,10.0,58.0
3719,50.0,0,192,12.0,58.0
3720,65.0,0,192,11.0,58.0
3721,56.0,120,96,1.0,70.0
3722,79.0,0,240,1.0,80.0
3723,58.0,120,96,1.0,70.0
3724,50.0,0,192,12.0,58.0
3725,68.0,0,192,10.0,58.0
3726,65.0,0,192,11.0,58.0
3727,77.0,0,192,1.0,80.0
3728,58.0,0,192,10.0,58.0
3729,56.0,120,96,1.0,70.0
3730,55.0,0,96,1.0,70.0
3731,75.0,0,120,1.0,80.0
3732,63.0,0,144,13.0,70.0
3733,51.0,0,144,14.0,70.0
3734,58.0,120,96,1.0,70.0
3735,79.0,0,120,1.0,80.0
3736,51.0,120,96,1.0,70.0
3737,82.0,0,120,1.0,80.0
3738,43.0,0,144,14.0,70.0
3739,55.0,0,144,13.0,70.0
3740,58.0,120,96,1.0,70.0
3741,51.0,0,480,12.0,58.0
3742,79.0,0,120,1.0,80.0
3743,67.0,0,480,10.0,58.0
3744,63.0,120,480,11.0,58.0
3745,50.0,0,96,1.0,70.0
3746,80.0,0,120,1.0,80.0
3747,58.0,0,144,13.0,70.0
3748,46.0,120,144,14.0,70.0
3749,56.0,0,192,12.0,58.0
3750,65.0,0,192,10.0,58.0
3751,62.0,0,192,11.0,58.0
3752,58.0,120,96,1.0,70.0
3753,77.0,0,120,1.0,80.0
3754,75.0,120,120,0.0,70.0
3755,51.0,0,144,13.0,70.0
3756,39.0,0,144,14.0,70.0
3757,75.0,0,192,1.0,58.0
3758,63.0,0,192,11.0,58.0
3759,63.0,0,192,10.0,58.0
3760,51.0,0,192,1.0,70.0
3761,55.0,0,192,12.0,58.0
3762,79.0,120,120,0.0,70.0
3763,82.0,120,120,0.0,70.0
3764,31.0,0,144,14.0,70.0
3765,43.0,0,144,13.0,70.0
3766,58.0,0,480,2.0,58.0
3767,79.0,120,120,0.0,70.0
3768,55.0,0,480,2.0,58.0
3769,67.0,0,480,3.0,58.0
3770,63.0,0,480,3.0,58.0
3771,80.0,120,120,0.0,70.0
3772,46.0,0,144,13.0,70.0
3773,34.0,0,144,14.0,70.0
3774,65.0,0,192,3.0,58.0
3775,56.0,0,192,2.0,58.0
3776,62.0,0,192,2.0,58.0
3777,58.0,0,192,3.0,58.0
3778,77.0,120,120,0.0,70.0
3779,51.0,0,144,12.0,105.0
3780,39.0,0,144,13.0,105.0
3781,39.0,0,144,14.0,70.0
3782,63.0,0,156,3.0,92.0
3783,51.0,0,156,3.0,92.0
3784,70.0,0,156,1.0,92.0
3785,67.0,0,156,1.0,92.0
3786,75.0,0,156,0.0,92.0
3787,63.0,0,156,4.0,92.0
3788,75.0,120,156,4.0,92.0
3789,63.0,0,156,2.0,92.0
3790,55.0,0,156,2.0,92.0
3791,51.0,0,192,5.0,105.0
3792,55.0,0,192,11.0,105.0
3793,63.0,0,192,11.0,58.0
3794,63.0,0,192,10.0,105.0
3795,55.0,0,192,10.0,105.0
3796,34.0,0,144,14.0,105.0
3797,46.0,0,144,13.0,105.0
3798,58.0,0,144,12.0,105.0
3799,58.0,0,156,2.0,92.0
3800,51.0,0,156,3.0,92.0
3801,63.0,0,156,3.0,92.0
3802,70.0,0,156,1.0,92.0
3803,55.0,240,156,2.0,92.0
3804,63.0,0,156,4.0,92.0
3805,75.0,0,156,4.0,92.0
3806,79.0,0,156,1.0,92.0
3807,87.0,0,156,0.0,92.0
3808,75.0,0,624,10.0,105.0
3809,75.0,0,624,11.0,105.0
3810,63.0,0,144,12.0,105.0
3811,39.0,0,144,14.0,105.0
3812,51.0,0,144,13.0,105.0
3813,79.0,0,156,1.0,92.0
3814,70.0,0,156,1.0,92.0
3815,63.0,0,156,4.0,92.0
3816,87.0,240,156,0.0,92.0
3817,75.0,0,156,4.0,92.0
3818,51.0,0,156,3.0,92.0
3819,55.0,0,156,2.0,92.0
3820,58.0,0,156,2.0,92.0
3821,63.0,0,156,3.0,92.0
3822,58.0,0,78,11.0,105.0
3823,58.0,240,78,10.0,105.0
3824,43.0,0,144,14.0,105.0
3825,55.0,0,144,13.0,105.0
3826,55.0,0,144,12.0,105.0
3827,58.0,0,156,2.0,92.0
3828,55.0,0,156,2.0,92.0
3829,75.0,0,156,4.0,92.0
3830,63.0,0,156,4.0,92.0
3831,87.0,0,156,0.0,92.0
3832,82.0,0,156,1.0,92.0
3833,70.0,0,156,1.0,92.0
3834,63.0,0,156,3.0,92.0
3835,51.0,0,156,3.0,92.0
3836,51.0,0,192,5.0,105.0
3837,63.0,120,78,10.0,105.0
3838,63.0,0,78,11.0,105.0
3839,60.0,0,78,11.0,105.0
3840,60.0,0,78,10.0,105.0
3841,56.0,0,144,13.0,105.0
3842,44.0,0,144,14.0,105.0
3843,56.0,0,144,12.0,105.0
3844,72.0,0,156,1.0,92.0
3845,84.0,0,156,1.0,92.0
3846,56.0,0,156,2.0,92.0
3847,60.0,0,156,2.0,92.0
3848,87.0,0,156,0.0,92.0
3849,63.0,0,156,3.0,92.0
3850,51.0,0,156,3.0,92.0
3851,75.0,120,156,4.0,92.0
3852,63.0,0,156,4.0,92.0
3853,63.0,0,78,10.0,105.0
3854,63.0,120,78,11.0,105.0
3855,58.0,0,78,11.0,105.0
3856,58.0,0,78,10.0,105.0
3857,55.0,0,144,13.0,105.0
3858,43.0,0,144,14.0,105.0
3859,55.0,0,144,12.0,105.0
3860,82.0,0,156,1.0,92.0
3861,70.0,0,156,1.0,92.0
3862,63.0,0,156,3.0,92.0
3863,55.0,0,156,2.0,92.0
3864,87.0,0,156,0.0,92.0
3865,51.0,120,156,3.0,92.0
3866,63.0,0,156,4.0,92.0
3867,58.0,0,156,2.0,92.0
3868,75.0,0,156,4.0,92.0
3869,63.0,120,78,10.0,105.0
3870,63.0,0,78,11.0,105.0
3871,60.0,0,78,10.0,105.0
3872,60.0,0,78,11.0,105.0
3873,44.0,0,144,14.0,105.0
3874,56.0,0,144,12.0,105.0
3875,56.0,0,144,13.0,105.0
3876,75.0,0,156,4.0,92.0
3877,51.0,0,156,3.0,92.0
3878,63.0,0,156,3.0,92.0
3879,63.0,0,156,4.0,92.0
3880,87.0,0,156,0.0,92.0
3881,56.0,0,156,2.0,92.0
3882,60.0,0,156,2.0,92.0
3883,84.0,0,156,1.0,92.0
3884,72.0,120,156,1.0,92.0
3885,51.0,0,192,5.0,105.0
3886,63.0,120,78,10.0,105.0
3887,63.0,0,78,11.0,105.0
3888,68.0,0,78,10.0,105.0
3889,68.0,0,78,11.0,105.0
3890,51.0,0,144,13.0,105.0
3891,63.0,0,144,12.0,105.0
3892,39.0,0,144,14.0,105.0
3893,63.0,0,156,4.0,92.0
3894,63.0,0,156,3.0,92.0
3895,51.0,0,156,3.0,92.0
3896,80.0,0,156,1.0,92.0
3897,84.0,0,156,0.0,92.0
3898,60.0,120,156,2.0,92.0
3899,56.0,0,156,2.0,92.0
3900,75.0,0,156,4.0,92.0
3901,72.0,0,156,1.0,92.0
3902,51.0,0,192,5.0,105.0
3903,72.0,120,78,10.0,105.0
3904,72.0,0,78,11.0,105.0
3905,75.0,0,78,11.0,105.0
3906,75.0,0,78,10.0,105.0
3907,48.0,0,144,13.0,105.0
3908,60.0,0,144,12.0,105.0
3909,36.0,0,144,14.0,105.0
3910,51.0,0,156,3.0,92.0
3911,72.0,0,156,1.0,92.0
3912,80.0,0,156,1.0,92.0
3913,63.0,0,156,3.0,92.0
3914,60.0,120,156,2.0,92.0
3915,63.0,0,156,4.0,92.0
3916,84.0,0,156,0.0,92.0
3917,56.0,0,156,2.0,92.0
3918,75.0,0,156,4.0,92.0
3919,51.0,0,192,5.0,105.0
3920,80.0,0,78,11.0,105.0
3921,80.0,120,78,10.0,105.0
3922,32.0,0,144,14.0,105.0
3923,44.0,0,144,13.0,105.0
3924,56.0,0,144,12.0,105.0
3925,51.0,0,156,3.0,92.0
3926,72.0,0,156,1.0,92.0
3927,80.0,120,156,1.0,92.0
3928,75.0,0,156,4.0,92.0
3929,60.0,0,156,2.0,92.0
3930,56.0,0,156,2.0,92.0
3931,84.0,0,156,0.0,92.0
3932,63.0,0,156,3.0,92.0
3933,63.0,0,156,4.0,92.0
3934,84.0,0,192,11.0,105.0
3935,84.0,0,192,10.0,105.0
3936,51.0,0,192,5.0,105.0
3937,56.0,0,156,2.0,92.0
3938,60.0,0,156,2.0,92.0
3939,72.0,0,156,1.0,92.0
3940,63.0,0,156,4.0,92.0
3941,75.0,0,156,4.0,92.0
3942,63.0,0,156,3.0,92.0
3943,51.0,0,156,3.0,92.0
3944,80.0,240,156,1.0,92.0
3945,84.0,0,156,0.0,92.0
3946,51.0,0,156,3.0,92.0
3947,60.0,0,156,2.0,92.0
3948,56.0,0,156,2.0,92.0
3949,63.0,0,156,4.0,92.0
3950,72.0,0,156,1.0,92.0
3951,80.0,0,156,1.0,92.0
3952,63.0,0,156,3.0,92.0
3953,75.0,0,156,4.0,92.0
3954,84.0,240,156,0.0,92.0
3955,34.0,240,144,14.0,105.0
3956,46.0,0,144,13.0,105.0
3957,58.0,0,144,12.0,105.0
3958,82.0,0,156,0.0,92.0
3959,62.0,0,156,2.0,92.0
3960,74.0,0,156,1.0,92.0
3961,77.0,0,156,1.0,92.0
3962,58.0,0,156,2.0,92.0
3963,46.0,0,156,3.0,92.0
3964,58.0,0,156,3.0,92.0
3965,70.0,0,156,4.0,92.0
3966,58.0,0,156,4.0,92.0
3967,70.0,0,192,10.0,105.0
3968,62.0,0,192,10.0,105.0
3969,46.0,0,192,5.0,105.0
3970,62.0,0,192,11.0,105.0
3971,70.0,0,192,11.0,105.0
3972,65.0,0,144,12.0,105.0
3973,50.0,0,144,13.0,105.0
3974,38.0,0,144,14.0,105.0
3975,62.0,240,156,2.0,92.0
3976,82.0,0,156,0.0,92.0
3977,58.0,0,156,4.0,92.0
3978,70.0,0,156,4.0,92.0
3979,65.0,0,156,2.0,92.0
3980,74.0,0,156,1.0,92.0
3981,77.0,0,156,1.0,92.0
3982,46.0,0,156,3.0,92.0
3983,58.0,0,156,3.0,92.0
3984,70.0,0,144,12.0,105.0
3985,46.0,0,144,14.0,105.0
3986,82.0,0,624,11.0,105.0
3987,82.0,0,624,10.0,105.0
3988,58.0,0,144,13.0,105.0
3989,62.0,0,156,2.0,92.0
3990,82.0,240,156,0.0,92.0
3991,74.0,0,156,1.0,92.0
3992,77.0,0,156,1.0,92.0
3993,65.0,0,156,2.0,92.0
3994,46.0,0,156,3.0,92.0
3995,58.0,0,156,3.0,92.0
3996,70.0,0,156,4.0,92.0
3997,58.0,0,156,4.0,92.0
3998,56.0,0,78,11.0,105.0
3999,56.0,240,78,10.0,105.0
4000,50.0,0,144,14.0,105.0
4001,50.0,0,144,12.0,105.0
4002,62.0,0,144,13.0,105.0
4003,58.0,0,156,3.0,92.0
4004,46.0,0,156,3.0,92.0
4005,70.0,0,156,4.0,92.0
4006,58.0,0,156,4.0,92.0
4007,65.0,0,156,2.0,92.0
4008,77.0,0,156,1.0,92.0
4009,80.0,0,156,1.0,92.0
4010,62.0,0,156,2.0,92.0
4011,82.0,0,156,0.0,92.0
4012,46.0,0,192,5.0,105.0
4013,58.0,0,78,10.0,105.0
4014,58.0,120,78,11.0,105.0
4015,55.0,0,78,10.0,105.0
4016,55.0,0,78,11.0,105.0
4017,63.0,0,144,13.0,105.0
4018,51.0,0,144,14.0,105.0
4019,51.0,0,144,12.0,105.0
4020,75.0,0,156,1.0,92.0
4021,46.0,0,156,3.0,92.0
4022,58.0,0,156,4.0,92.0
4023,79.0,0,156,1.0,92.0
4024,70.0,0,156,4.0,92.0
4025,58.0,0,156,3.0,92.0
4026,82.0,0,156,0.0,92.0
4027,63.0,0,156,2.0,92.0
4028,67.0,120,156,2.0,92.0
4029,58.0,0,78,11.0,105.0
4030,58.0,120,78,10.0,105.0
4031,56.0,120,78,10.0,105.0
4032,56.0,0,78,11.0,105.0
4033,62.0,0,144,13.0,105.0
4034,50.0,0,144,14.0,105.0
4035,50.0,0,144,12.0,105.0
4036,82.0,0,156,0.0,92.0
4037,70.0,0,156,4.0,92.0
4038,58.0,0,156,4.0,92.0
4039,77.0,0,156,1.0,92.0
4040,62.0,0,156,2.0,92.0
4041,80.0,0,156,1.0,92.0
4042,46.0,0,156,3.0,92.0
4043,58.0,0,156,3.0,92.0
4044,65.0,0,156,2.0,92.0
4045,58.0,120,78,10.0,105.0
4046,58.0,0,78,11.0,105.0
4047,55.0,0,96,11.0,105.0
4048,55.0,0,96,10.0,105.0
4049,51.0,0,144,12.0,105.0
4050,51.0,0,144,14.0,105.0
4051,63.0,0,144,13.0,105.0
4052,82.0,0,156,0.0,92.0
4053,58.0,0,156,3.0,92.0
4054,70.0,0,156,4.0,92.0
4055,58.0,0,156,4.0,92.0
4056,46.0,0,156,3.0,92.0
4057,79.0,0,156,1.0,92.0
4058,63.0,0,156,2.0,92.0
4059,67.0,120,156,2.0,92.0
4060,75.0,0,156,1.0,92.0
4061,51.0,0,192,5.0,105.0
4062,58.0,120,96,11.0,105.0
4063,58.0,0,96,10.0,105.0
4064,63.0,0,96,11.0,105.0
4065,63.0,0,96,10.0,105.0
4066,58.0,0,144,12.0,105.0
4067,46.0,0,144,14.0,105.0
4068,58.0,0,144,13.0,105.0
4069,79.0,0,156,0.0,92.0
4070,63.0,0,156,4.0,92.0
4071,67.0,0,156,4.0,92.0
4072,58.0,0,156,2.0,92.0
4073,55.0,0,156,2.0,92.0
4074,75.0,0,156,1.0,92.0
4075,70.0,0,156,1.0,92.0
4076,55.0,0,156,3.0,92.0
4077,51.0,120,156,3.0,92.0
4078,51.0,0,192,5.0,105.0
4079,67.0,0,96,10.0,105.0
4080,67.0,120,96,11.0,105.0
4081,70.0,0,96,10.0,105.0
4082,70.0,0,96,11.0,105.0
4083,55.0,0,144,12.0,105.0
4084,43.0,0,144,14.0,105.0
4085,55.0,0,144,13.0,105.0
4086,79.0,0,156,0.0,92.0
4087,63.0,0,156,4.0,92.0
4088,67.0,0,156,4.0,92.0
4089,75.0,0,156,1.0,92.0
4090,70.0,0,156,1.0,92.0
4091,51.0,0,156,3.0,92.0
4092,58.0,120,156,2.0,92.0
4093,55.0,0,156,2.0,92.0
4094,55.0,0,156,3.0,92.0
4095,51.0,0,192,5.0,105.0
4096,75.0,0,96,10.0,105.0
4097,75.0,120,96,11.0,105.0
4098,51.0,0,144,13.0,105.0
4099,51.0,0,144,12.0,105.0
4100,39.0,0,144,14.0,105.0
4101,55.0,0,156,2.0,92.0
4102,70.0,0,156,1.0,92.0
4103,75.0,0,156,1.0,92.0
4104,58.0,0,156,2.0,92.0
4105,79.0,0,156,0.0,92.0
4106,51.0,0,156,3.0,92.0
4107,55.0,0,156,3.0,92.0
4108,67.0,0,156,4.0,92.0
4109,63.0,0,156,4.0,92.0
4110,79.0,0,192,10.0,105.0
4111,51.0,120,192,5.0,105.0
4112,79.0,0,192,11.0,105.0
4113,55.0,0,156,2.0,92.0
4114,58.0,0,156,2.0,92.0
4115,67.0,0,156,4.0,92.0
4116,70.0,0,156,1.0,92.0
4117,75.0,0,156,1.0,92.0
4118,79.0,0,156,0.0,92.0
4119,51.0,0,156,3.0,92.0
4120,55.0,240,156,3.0,92.0
4121,63.0,0,156,4.0,92.0
4122,58.0,0,156,2.0,92.0
4123,55.0,0,156,2.0,92.0
4124,79.0,240,156,0.0,92.0
4125,67.0,0,156,4.0,92.0
4126,75.0,0,156,1.0,92.0
4127,51.0,0,156,3.0,92.0
4128,55.0,0,156,3.0,92.0
4129,63.0,0,156,4.0,92.0
4130,70.0,0,156,1.0,92.0
4131,79.0,0,192,10.0,70.0
4132,62.0,0,120,11.0,78.0
4133,77.0,0,240,10.0,90.0
4134,62.0,240,240,12.0,78.0
4135,65.0,120,120,11.0,58.0
4136,70.0,0,120,11.0,58.0
4137,74.0,120,240,10.0,70.0
4138,44.0,0,480,14.0,78.0
4139,56.0,0,480,13.0,78.0
4140,65.0,0,240,12.0,58.0
4141,65.0,120,120,11.0,58.0
4142,70.0,0,120,11.0,58.0
4143,43.0,0,192,14.0,58.0
4144,63.0,0,192,12.0,58.0
4145,75.0,120,192,10.0,70.0
4146,55.0,0,192,13.0,58.0
4147,67.0,120,96,11.0,58.0
4148,62.0,0,120,11.0,78.0
4149,77.0,0,240,10.0,90.0
4150,65.0,120,120,11.0,58.0
4151,62.0,0,240,12.0,78.0
4152,70.0,120,120,11.0,58.0
4153,65.0,0,240,12.0,58.0
4154,56.0,120,480,13.0,78.0
4155,44.0,0,480,14.0,78.0
4156,65.0,120,120,11.0,58.0
4157,74.0,0,240,10.0,70.0
4158,70.0,0,120,11.0,58.0
4159,43.0,120,192,14.0,58.0
4160,63.0,0,192,12.0,58.0
4161,75.0,0,192,10.0,70.0
4162,55.0,0,192,13.0,58.0
4163,67.0,120,96,11.0,58.0
4164,82.0,0,60,10.0,70.0
4165,60.0,120,120,11.0,58.0
4166,53.0,0,144,13.0,58.0
4167,41.0,0,144,14.0,58.0
4168,80.0,60,108,10.0,70.0
4169,65.0,60,120,11.0,58.0
4170,68.0,0,120,11.0,58.0
4171,80.0,120,144,10.0,70.0
4172,53.0,0,144,13.0,58.0
4173,41.0,0,144,14.0,58.0
4174,65.0,120,120,11.0,58.0
4175,60.0,0,480,12.0,58.0
4176,68.0,120,120,11.0,58.0
4177,80.0,0,144,10.0,70.0
4178,39.0,0,144,14.0,58.0
4179,51.0,0,144,13.0,58.0
4180,59.0,0,192,12.0,58.0
4181,65.0,120,96,11.0,58.0
4182,58.0,0,120,11.0,58.0
4183,65.0,120,120,11.0,58.0
4184,68.0,120,120,11.0,58.0
4185,65.0,120,120,11.0,58.0
4186,38.0,120,480,14.0,58.0
4187,80.0,0,480,10.0,70.0
4188,50.0,0,480,13.0,58.0
4189,67.0,120,120,11.0,58.0
4190,39.0,0,144,14.0,58.0
4191,51.0,0,144,13.0,58.0
4192,79.0,0,192,10.0,70.0
4193,63.0,120,96,11.0,58.0
4194,38.0,0,144,14.0,58.0
4195,50.0,120,144,13.0,58.0
4196,77.0,0,156,10.0,70.0
4197,58.0,0,912,12.0,58.0
4198,70.0,0,192,11.0,58.0
4199,77.0,240,156,10.0,70.0
4200,74.0,0,480,1.0,58.0
4201,77.0,0,480,1.0,58.0
4202,75.0,0,120,11.0,58.0
4203,79.0,0,120,10.0,70.0
4204,39.0,0,144,14.0,58.0
4205,51.0,0,144,13.0,58.0
4206,67.0,0,144,12.0,58.0
4207,72.0,0,96,11.0,58.0
4208,75.0,120,96,10.0,70.0
4209,75.0,240,240,1.0,58.0
4210,72.0,0,240,1.0,58.0
4211,53.0,0,144,13.0,58.0
4212,65.0,0,144,12.0,58.0
4213,41.0,0,144,14.0,58.0
4214,74.0,0,156,10.0,70.0
4215,70.0,0,192,11.0,58.0
4216,74.0,240,156,10.0,70.0
4217,70.0,0,192,11.0,58.0
4218,65.0,0,480,2.0,58.0
4219,86.0,0,480,0.0,70.0
4220,62.0,120,480,2.0,58.0
4221,74.0,0,480,1.0,58.0
4222,70.0,0,480,1.0,58.0
4223,75.0,0,120,10.0,70.0
4224,87.0,0,120,0.0,70.0
4225,72.0,0,120,11.0,58.0
4226,69.0,0,144,12.0,58.0
4227,41.0,0,144,13.0,58.0
4228,39.0,0,144,14.0,58.0
4229,63.0,240,192,2.0,58.0
4230,60.0,0,192,2.0,58.0
4231,72.0,0,192,1.0,58.0
4232,69.0,0,192,1.0,58.0
4233,84.0,0,96,0.0,70.0
4234,63.0,0,96,11.0,58.0
4235,72.0,120,96,10.0,70.0
4236,62.0,120,120,11.0,58.0
4237,70.0,0,120,10.0,70.0
4238,70.0,0,120,12.0,58.0
4239,58.0,0,132,2.0,58.0
4240,62.0,0,132,2.0,58.0
4241,82.0,0,132,0.0,70.0
4242,70.0,0,132,1.0,58.0
4243,34.0,0,144,14.0,58.0
4244,46.0,0,144,13.0,58.0
4245,34.0,0,144,14.0,58.0
4246,58.0,0,144,12.0,58.0
4247,46.0,0,144,13.0,58.0
4248,70.0,0,240,10.0,70.0
4249,62.0,0,240,11.0,58.0
4250,62.0,0,240,2.0,58.0
4251,70.0,240,240,1.0,58.0
4252,58.0,0,240,2.0,58.0
4253,82.0,0,240,0.0,70.0
4254,74.0,0,0,1.0,58.0
4255,58.0,0,144,12.0,58.0
4256,34.0,0,144,14.0,58.0
4257,46.0,0,144,13.0,58.0
4258,65.0,0,192,2.0,58.0
4259,74.0,240,192,10.0,70.0
4260,65.0,0,192,11.0,58.0
4261,86.0,0,192,0.0,70.0
4262,62.0,0,192,2.0,58.0
4263,77.0,0,192,1.0,58.0
4264,70.0,0,132,1.0,58.0
4265,58.0,0,132,2.0,58.0
4266,82.0,0,132,0.0,70.0
4267,62.0,0,132,2.0,58.0
4268,74.0,0,132,1.0,58.0
4269,46.0,0,192,13.0,58.0
4270,58.0,240,192,12.0,58.0
4271,70.0,0,192,10.0,70.0
4272,34.0,0,192,14.0,58.0
4273,62.0,0,192,11.0,58.0
4274,34.0,0,144,14.0,105.0
4275,46.0,0,144,13.0,105.0
4276,58.0,0,144,12.0,105.0
4277,70.0,0,192,4.0,92.0
4278,58.0,0,192,4.0,92.0
4279,46.0,0,192,3.0,92.0
4280,58.0,0,192,3.0,92.0
4281,62.0,0,192,11.0,105.0
4282,70.0,0,192,11.0,105.0
4283,82.0,0,192,0.0,92.0
4284,62.0,0,192,10.0,105.0
4285,70.0,0,192,10.0,105.0
4286,70.0,0,192,1.0,92.0
4287,82.0,0,192,1.0,92.0
4288,46.0,0,192,5.0,105.0
4289,46.0,0,144,14.0,105.0
4290,58.0,0,144,13.0,105.0
4291,62.0,240,144,12.0,105.0
4292,58.0,0,192,4.0,92.0
4293,82.0,0,192,0.0,92.0
4294,70.0,0,192,1.0,92.0
4295,82.0,0,192,1.0,92.0
4296,82.0,0,432,10.0,105.0
4297,46.0,0,192,3.0,92.0
4298,58.0,0,192,3.0,92.0
4299,70.0,0,192,4.0,92.0
4300,82.0,0,432,11.0,105.0
4301,74.0,0,78,11.0,105.0
4302,74.0,0,78,10.0,105.0
4303,56.0,0,144,13.0,105.0
4304,65.0,0,144,12.0,105.0
4305,44.0,0,144,14.0,105.0
4306,46.0,0,192,3.0,92.0
4307,58.0,0,192,3.0,92.0
4308,58.0,0,192,4.0,92.0
4309,70.0,0,192,4.0,92.0
4310,82.0,240,192,0.0,92.0
4311,70.0,0,192,1.0,92.0
4312,82.0,0,192,1.0,92.0
4313,70.0,0,78,10.0,105.0
4314,70.0,120,78,11.0,105.0
4315,75.0,120,78,11.0,105.0
4316,75.0,0,78,10.0,105.0
4317,43.0,0,144,14.0,105.0
4318,67.0,0,144,12.0,105.0
4319,55.0,0,144,13.0,105.0
4320,70.0,0,192,1.0,92.0
4321,82.0,0,192,0.0,92.0
4322,58.0,0,192,4.0,92.0
4323,58.0,0,192,3.0,92.0
4324,58.0,720,912,2.0,92.0
4325,82.0,0,192,1.0,92.0
4326,70.0,0,192,4.0,92.0
4327,46.0,0,192,3.0,92.0
4328,70.0,0,78,10.0,105.0
4329,70.0,120,78,11.0,105.0
4330,77.0,0,78,11.0,105.0
4331,77.0,0,78,10.0,105.0
4332,68.0,0,144,12.0,105.0
4333,53.0,0,144,13.0,105.0
4334,41.0,0,144,14.0,105.0
4335,82.0,0,192,1.0,92.0
4336,70.0,0,192,1.0,92.0
4337,82.0,120,192,0.0,92.0
4338,58.0,0,192,3.0,92.0
4339,46.0,0,192,3.0,92.0
4340,58.0,0,192,4.0,92.0
4341,70.0,0,192,4.0,92.0
4342,70.0,120,78,11.0,105.0
4343,70.0,0,78,10.0,105.0
4344,50.0,0,240,2.0,92.0
4345,79.0,0,78,10.0,105.0
4346,79.0,120,78,11.0,105.0
4347,67.0,0,144,12.0,105.0
4348,39.0,0,144,14.0,105.0
4349,51.0,0,144,13.0,105.0
4350,70.0,0,192,1.0,92.0
4351,51.0,0,192,2.0,92.0
4352,58.0,0,192,3.0,92.0
4353,46.0,0,192,3.0,92.0
4354,82.0,0,192,0.0,92.0
4355,58.0,0,192,4.0,92.0
4356,70.0,0,192,4.0,92.0
4357,82.0,0,192,1.0,92.0
4358,70.0,0,78,11.0,105.0
4359,70.0,120,78,10.0,105.0
4360,65.0,0,144,12.0,105.0
4361,38.0,0,144,14.0,105.0
4362,50.0,0,144,13.0,105.0
4363,82.0,0,192,1.0,92.0
4364,70.0,0,192,1.0,92.0
4365,46.0,0,192,3.0,92.0
4366,58.0,0,192,3.0,92.0
4367,46.0,0,192,5.0,105.0
4368,82.0,0,192,0.0,92.0
4369,58.0,0,192,4.0,92.0
4370,70.0,120,192,4.0,92.0
4371,53.0,0,240,2.0,92.0
4372,80.0,0,384,11.0,105.0
4373,34.0,0,144,14.0,105.0
4374,80.0,0,384,10.0,105.0
4375,62.0,0,144,12.0,105.0
4376,46.0,0,144,13.0,105.0
4377,58.0,0,192,3.0,92.0
4378,70.0,0,192,1.0,92.0
4379,82.0,240,192,1.0,92.0
4380,46.0,0,192,3.0,92.0
4381,70.0,0,192,4.0,92.0
4382,58.0,0,192,4.0,92.0
4383,82.0,0,192,0.0,92.0
4384,62.0,240,78,11.0,105.0
4385,62.0,0,78,10.0,105.0
4386,44.0,0,144,13.0,105.0
4387,32.0,0,144,14.0,105.0
4388,53.0,0,144,12.0,105.0
4389,70.0,0,192,4.0,92.0
4390,70.0,0,192,1.0,92.0
4391,82.0,0,192,0.0,92.0
4392,46.0,0,192,3.0,92.0
4393,58.0,0,192,3.0,92.0
4394,58.0,0,192,4.0,92.0
4395,82.0,0,192,1.0,92.0
4396,70.0,0,78,11.0,105.0
4397,70.0,120,78,10.0,105.0
4398,63.0,120,78,11.0,105.0
4399,63.0,0,78,10.0,105.0
4400,43.0,0,144,13.0,105.0
4401,31.0,0,144,14.0,105.0
4402,55.0,0,144,12.0,105.0
4403,58.0,0,192,3.0,92.0
4404,46.0,0,192,3.0,92.0
4405,70.0,0,192,1.0,92.0
4406,82.0,0,192,1.0,92.0
4407,82.0,0,192,0.0,92.0
4408,70.0,0,192,4.0,92.0
4409,58.0,0,192,4.0,92.0
4410,58.0,0,672,2.0,92.0
4411,70.0,0,78,11.0,105.0
4412,70.0,120,78,10.0,105.0
4413,65.0,0,78,10.0,105.0
4414,65.0,0,78,11.0,105.0
4415,29.0,0,144,14.0,105.0
4416,41.0,0,144,13.0,105.0
4417,56.0,0,144,12.0,105.0
4418,58.0,0,192,3.0,92.0
4419,70.0,120,192,1.0,92.0
4420,82.0,0,192,1.0,92.0
4421,70.0,0,192,4.0,92.0
4422,82.0,0,192,0.0,92.0
4423,58.0,0,192,4.0,92.0
4424,46.0,0,192,3.0,92.0
4425,70.0,0,78,10.0,105.0
4426,70.0,120,78,11.0,105.0
4427,62.0,0,240,2.0,92.0
4428,67.0,0,78,10.0,105.0
4429,67.0,0,78,11.0,105.0
4430,39.0,0,144,14.0,105.0
4431,58.0,0,144,12.0,105.0
4432,39.0,0,144,13.0,105.0
4433,82.0,0,192,1.0,92.0
4434,46.0,0,192,3.0,92.0
4435,58.0,0,192,4.0,92.0
4436,58.0,0,192,3.0,92.0
4437,70.0,0,192,4.0,92.0
4438,82.0,120,192,0.0,92.0
4439,70.0,0,192,1.0,92.0
4440,70.0,0,78,11.0,105.0
4441,70.0,120,78,10.0,105.0
4442,63.0,0,240,2.0,92.0
4443,60.0,0,120,11.0,105.0
4444,60.0,0,120,10.0,105.0
4445,32.0,0,192,14.0,105.0
4446,72.0,0,192,1.0,92.0
4447,44.0,120,192,13.0,105.0
4448,65.0,0,192,2.0,92.0
4449,53.0,0,192,12.0,105.0
4450,84.0,0,192,0.0,92.0
4451,60.0,0,192,2.0,92.0
4452,80.0,0,192,1.0,92.0
4453,64.0,0,78,10.0,105.0
4454,64.0,120,78,11.0,105.0
4455,65.0,120,78,10.0,105.0
4456,65.0,0,78,11.0,105.0
4457,67.0,0,78,11.0,105.0
4458,67.0,120,78,10.0,105.0
4459,68.0,120,78,10.0,105.0
4460,68.0,0,78,11.0,105.0
4461,71.0,120,78,10.0,105.0
4462,71.0,0,78,11.0,105.0
4463,72.0,0,120,10.0,105.0
4464,72.0,0,120,11.0,105.0
4465,65.0,0,192,12.0,105.0
4466,72.0,0,192,1.0,92.0
4467,44.0,0,192,14.0,105.0
4468,56.0,0,192,13.0,105.0
4469,60.0,120,192,2.0,92.0
4470,65.0,0,192,2.0,92.0
4471,80.0,0,192,0.0,92.0
4472,77.0,0,192,1.0,92.0
4473,76.0,0,78,11.0,105.0
4474,76.0,120,78,10.0,105.0
4475,77.0,120,78,10.0,105.0
4476,77.0,0,78,11.0,105.0
4477,79.0,0,78,10.0,105.0
4478,79.0,120,78,11.0,105.0
4479,80.0,0,78,11.0,105.0
4480,80.0,120,78,10.0,105.0
4481,77.0,0,78,10.0,105.0
4482,77.0,120,78,11.0,105.0
4483,75.0,0,120,10.0,105.0
4484,75.0,0,120,11.0,105.0
4485,46.0,0,192,5.0,105.0
4486,58.0,0,192,13.0,105.0
4487,68.0,120,192,1.0,92.0
4488,58.0,0,192,12.0,105.0
4489,70.0,0,192,4.0,92.0
4490,62.0,0,192,2.0,92.0
4491,77.0,0,192,0.0,92.0
4492,46.0,0,192,14.0,105.0
4493,65.0,0,192,3.0,92.0
4494,46.0,0,192,3.0,92.0
4495,74.0,0,192,1.0,92.0
4496,58.0,0,192,4.0,92.0
4497,68.0,0,192,12.0,105.0
4498,56.0,0,192,2.0,92.0
4499,74.0,0,96,11.0,105.0
4500,74.0,120,96,10.0,105.0
4501,79.0,0,120,11.0,105.0
4502,79.0,120,120,10.0,105.0
4503,77.0,0,96,10.0,105.0
4504,77.0,120,96,11.0,105.0
4505,75.0,120,120,10.0,105.0
4506,75.0,0,120,11.0,105.0
4507,74.0,120,96,10.0,105.0
4508,74.0,0,96,11.0,105.0
4509,72.0,0,120,11.0,105.0
4510,72.0,120,120,10.0,105.0
4511,70.0,120,120,11.0,105.0
4512,70.0,0,120,10.0,105.0
4513,69.0,0,120,10.0,105.0
4514,69.0,120,120,11.0,105.0
4515,70.0,120,120,11.0,105.0
4516,70.0,0,120,10.0,105.0
4517,68.0,120,120,10.0,105.0
4518,68.0,0,120,11.0,105.0
4519,65.0,0,96,11.0,105.0
4520,65.0,120,96,10.0,105.0
4521,55.0,0,156,2.0,92.0
4522,51.0,0,156,2.0,92.0
4523,39.0,0,156,13.0,105.0
4524,51.0,120,156,12.0,105.0
4525,39.0,0,156,14.0,105.0
4526,70.0,0,156,1.0,92.0
4527,67.0,0,156,1.0,92.0
4528,63.0,0,156,3.0,92.0
4529,51.0,0,156,3.0,92.0
4530,75.0,0,156,4.0,92.0
4531,63.0,0,156,4.0,92.0
4532,75.0,0,156,0.0,92.0
4533,55.0,0,192,10.0,105.0
4534,55.0,0,192,11.0,105.0
4535,63.0,0,192,11.0,105.0
4536,63.0,0,192,10.0,105.0
4537,51.0,0,192,5.0,105.0
4538,63.0,0,156,4.0,92.0
4539,63.0,0,156,3.0,92.0
4540,87.0,0,156,0.0,92.0
4541,55.0,0,156,2.0,92.0
4542,79.0,0,156,1.0,92.0
4543,34.0,0,156,14.0,105.0
4544,75.0,0,156,4.0,92.0
4545,46.0,0,156,13.0,105.0
4546,82.0,240,156,1.0,92.0
4547,58.0,0,156,12.0,105.0
4548,58.0,0,156,2.0,92.0
4549,51.0,0,156,3.0,92.0
4550,75.0,0,624,11.0,105.0
4551,75.0,0,624,10.0,105.0
4552,82.0,0,156,1.0,92.0
4553,79.0,0,156,1.0,92.0
4554,39.0,0,156,14.0,105.0
4555,51.0,0,156,3.0,92.0
4556,51.0,0,156,13.0,105.0
4557,63.0,0,156,3.0,92.0
4558,55.0,240,156,2.0,92.0
4559,87.0,0,156,0.0,92.0
4560,75.0,0,156,4.0,92.0
4561,63.0,0,156,4.0,92.0
4562,58.0,0,156,2.0,92.0
4563,63.0,0,156,12.0,105.0
4564,58.0,0,78,10.0,105.0
4565,58.0,0,78,11.0,105.0
4566,51.0,0,156,3.0,92.0
4567,43.0,0,156,14.0,105.0
4568,55.0,0,156,2.0,92.0
4569,55.0,0,156,13.0,105.0
4570,58.0,0,156,2.0,92.0
4571,63.0,0,156,3.0,92.0
4572,55.0,0,156,12.0,105.0
4573,63.0,0,156,4.0,92.0
4574,75.0,0,156,4.0,92.0
4575,70.0,0,156,1.0,92.0
4576,87.0,0,156,0.0,92.0
4577,82.0,0,156,1.0,92.0
4578,51.0,240,192,5.0,105.0
4579,63.0,120,78,11.0,105.0
4580,63.0,0,78,10.0,105.0
4581,60.0,0,78,10.0,105.0
4582,60.0,0,78,11.0,105.0
4583,63.0,0,156,4.0,92.0
4584,75.0,0,156,4.0,92.0
4585,56.0,0,156,13.0,105.0
4586,56.0,0,156,2.0,92.0
4587,84.0,0,156,1.0,92.0
4588,56.0,0,156,12.0,105.0
4589,87.0,0,156,0.0,92.0
4590,44.0,0,156,14.0,105.0
4591,60.0,120,156,2.0,92.0
4592,72.0,0,156,1.0,92.0
4593,51.0,0,156,3.0,92.0
4594,63.0,0,156,3.0,92.0
4595,51.0,0,192,5.0,105.0
4596,63.0,120,78,10.0,105.0
4597,63.0,0,78,11.0,105.0
4598,58.0,0,78,10.0,105.0
4599,58.0,0,78,11.0,105.0
4600,87.0,0,156,0.0,92.0
4601,55.0,0,156,13.0,105.0
4602,43.0,0,156,14.0,105.0
4603,75.0,0,156,4.0,92.0
4604,63.0,0,156,4.0,92.0
4605,82.0,0,156,1.0,92.0
4606,55.0,120,156,2.0,92.0
4607,58.0,0,156,2.0,92.0
4608,63.0,0,156,3.0,92.0
4609,55.0,0,156,12.0,105.0
4610,51.0,0,156,3.0,92.0
4611,70.0,0,156,1.0,92.0
4612,51.0,0,192,5.0,105.0
4613,63.0,0,78,11.0,105.0
4614,63.0,120,78,10.0,105.0
4615,60.0,0,78,10.0,105.0
4616,60.0,0,78,11.0,105.0
4617,72.0,0,156,1.0,92.0
4618,60.0,0,156,2.0,92.0
4619,84.0,0,156,1.0,92.0
4620,56.0,120,156,12.0,105.0
4621,51.0,0,156,3.0,92.0
4622,56.0,0,156,2.0,92.0
4623,87.0,0,156,0.0,92.0
4624,63.0,0,156,3.0,92.0
4625,63.0,0,156,4.0,92.0
4626,75.0,0,156,4.0,92.0
4627,44.0,0,156,14.0,105.0
4628,56.0,0,156,13.0,105.0
4629,51.0,0,192,5.0,105.0
4630,63.0,120,78,11.0,105.0
4631,63.0,0,78,10.0,105.0
4632,68.0,0,78,10.0,105.0
4633,68.0,0,78,11.0,105.0
4634,51.0,0,156,3.0,92.0
4635,63.0,0,156,12.0,105.0
4636,72.0,0,156,1.0,92.0
4637,80.0,0,156,1.0,92.0
4638,39.0,0,156,14.0,105.0
4639,75.0,0,156,4.0,92.0
4640,84.0,120,156,0.0,92.0
4641,56.0,0,156,2.0,92.0
4642,60.0,0,156,2.0,92.0
4643,63.0,0,156,4.0,92.0
4644,63.0,0,156,3.0,92.0
4645,51.0,0,156,13.0,105.0
4646,51.0,0,192,5.0,105.0
4647,72.0,120,78,10.0,105.0
4648,72.0,0,78,11.0,105.0
4649,75.0,0,78,10.0,105.0
4650,75.0,0,78,11.0,105.0
4651,75.0,0,156,4.0,92.0
4652,63.0,120,156,4.0,92.0
4653,60.0,0,156,2.0,92.0
4654,56.0,0,156,2.0,92.0
4655,72.0,0,156,1.0,92.0
4656,36.0,0,156,14.0,105.0
4657,80.0,0,156,1.0,92.0
4658,48.0,0,156,13.0,105.0
4659,84.0,0,156,0.0,92.0
4660,60.0,0,156,12.0,105.0
4661,63.0,0,156,3.0,92.0
4662,51.0,0,156,3.0,92.0
4663,51.0,0,192,5.0,105.0
4664,80.0,120,78,10.0,105.0
4665,80.0,0,78,11.0,105.0
4666,75.0,0,156,4.0,92.0
4667,44.0,0,156,13.0,105.0
4668,56.0,0,156,2.0,92.0
4669,60.0,0,156,2.0,92.0
4670,63.0,0,156,4.0,92.0
4671,32.0,0,156,14.0,105.0
4672,84.0,0,156,0.0,92.0
4673,56.0,0,156,12.0,105.0
4674,63.0,120,156,3.0,92.0
4675,51.0,0,156,3.0,92.0
4676,80.0,0,156,1.0,92.0
4677,72.0,0,156,1.0,92.0
4678,84.0,0,192,11.0,105.0
4679,51.0,0,192,5.0,105.0
4680,84.0,0,192,10.0,105.0
4681,84.0,0,156,0.0,92.0
4682,75.0,0,156,4.0,92.0
4683,63.0,0,156,4.0,92.0
4684,60.0,0,156,2.0,92.0
4685,51.0,240,156,3.0,92.0
4686,63.0,0,156,3.0,92.0
4687,56.0,0,156,2.0,92.0
4688,80.0,0,156,1.0,92.0
4689,72.0,0,156,1.0,92.0
4690,72.0,0,156,1.0,92.0
4691,80.0,0,156,1.0,92.0
4692,84.0,0,156,0.0,92.0
4693,60.0,240,156,2.0,92.0
4694,63.0,0,156,3.0,92.0
4695,75.0,0,156,4.0,92.0
4696,63.0,0,156,4.0,92.0
4697,51.0,0,156,3.0,92.0
4698,56.0,0,156,2.0,92.0
4699,58.0,0,156,12.0,105.0
4700,58.0,0,156,2.0,92.0
4701,70.0,0,156,4.0,92.0
4702,58.0,0,156,4.0,92.0
4703,62.0,0,156,2.0,92.0
4704,46.0,0,156,3.0,92.0
4705,77.0,0,156,1.0,92.0
4706,82.0,240,156,0.0,92.0
4707,74.0,0,156,1.0,92.0
4708,58.0,0,156,3.0,92.0
4709,46.0,0,156,13.0,105.0
4710,34.0,0,156,14.0,105.0
4711,70.0,0,192,11.0,105.0
4712,62.0,0,192,10.0,105.0
4713,70.0,0,192,10.0,105.0
4714,46.0,0,192,5.0,105.0
4715,62.0,0,192,11.0,105.0
4716,58.0,0,156,4.0,92.0
4717,41.0,0,156,14.0,105.0
4718,74.0,0,156,1.0,92.0
4719,70.0,0,156,4.0,92.0
4720,77.0,240,156,1.0,92.0
4721,65.0,0,156,2.0,92.0
4722,46.0,0,156,3.0,92.0
4723,58.0,0,156,3.0,92.0
4724,65.0,0,156,12.0,105.0
4725,82.0,0,156,0.0,92.0
4726,53.0,0,156,13.0,105.0
4727,62.0,0,156,2.0,92.0
4728,82.0,0,624,10.0,105.0
4729,82.0,0,624,11.0,105.0
4730,70.0,0,156,12.0,105.0
4731,77.0,0,156,1.0,92.0
4732,65.0,240,156,2.0,92.0
4733,58.0,0,156,4.0,92.0
4734,74.0,0,156,1.0,92.0
4735,46.0,0,156,14.0,105.0
4736,70.0,0,156,4.0,92.0
4737,58.0,0,156,3.0,92.0
4738,82.0,0,156,0.0,92.0
4739,46.0,0,156,3.0,92.0
4740,62.0,0,156,2.0,92.0
4741,58.0,0,156,13.0,105.0
4742,56.0,0,78,11.0,105.0
4743,56.0,0,78,10.0,105.0
4744,62.0,0,156,13.0,105.0
4745,82.0,0,156,0.0,92.0
4746,50.0,0,156,14.0,105.0
4747,50.0,0,156,12.0,105.0
4748,58.0,0,156,4.0,92.0
4749,70.0,0,156,4.0,92.0
4750,77.0,0,156,1.0,92.0
4751,46.0,0,156,3.0,92.0
4752,80.0,0,156,1.0,92.0
4753,62.0,0,156,2.0,92.0
4754,58.0,0,156,3.0,92.0
4755,65.0,0,156,2.0,92.0
4756,46.0,240,192,5.0,105.0
4757,58.0,120,78,11.0,105.0
4758,58.0,0,78,10.0,105.0
4759,55.0,0,78,11.0,105.0
4760,55.0,0,78,10.0,105.0
4761,79.0,0,156,1.0,92.0
4762,75.0,0,156,1.0,92.0
4763,70.0,0,156,4.0,92.0
4764,58.0,0,156,4.0,92.0
4765,51.0,0,156,12.0,105.0
4766,58.0,0,156,3.0,92.0
4767,46.0,0,156,3.0,92.0
4768,51.0,0,156,14.0,105.0
4769,63.0,0,156,13.0,105.0
4770,63.0,120,156,2.0,92.0
4771,82.0,0,156,0.0,92.0
4772,67.0,0,156,2.0,92.0
4773,46.0,0,192,5.0,105.0
4774,58.0,120,78,11.0,105.0
4775,58.0,0,78,10.0,105.0
4776,56.0,0,78,10.0,105.0
4777,56.0,0,78,11.0,105.0
4778,70.0,0,156,4.0,92.0
4779,62.0,0,156,2.0,92.0
4780,65.0,0,156,2.0,92.0
4781,58.0,0,156,4.0,92.0
4782,82.0,0,156,0.0,92.0
4783,46.0,0,156,3.0,92.0
4784,58.0,120,156,3.0,92.0
4785,50.0,0,156,12.0,105.0
4786,80.0,0,156,1.0,92.0
4787,62.0,0,156,13.0,105.0
4788,50.0,0,156,14.0,105.0
4789,77.0,0,156,1.0,92.0
4790,46.0,0,192,5.0,105.0
4791,58.0,0,78,11.0,105.0
4792,58.0,120,78,10.0,105.0
4793,55.0,0,78,10.0,105.0
4794,55.0,0,78,11.0,105.0
4795,70.0,0,156,4.0,92.0
4796,63.0,0,156,13.0,105.0
4797,46.0,0,156,3.0,92.0
4798,58.0,0,156,3.0,92.0
4799,82.0,0,156,0.0,92.0
4800,75.0,0,156,1.0,92.0
4801,51.0,0,156,14.0,105.0
4802,58.0,120,156,4.0,92.0
4803,63.0,0,156,2.0,92.0
4804,51.0,0,156,12.0,105.0
4805,67.0,0,156,2.0,92.0
4806,79.0,0,156,1.0,92.0
4807,51.0,0,192,5.0,105.0
4808,63.0,120,78,10.0,105.0
4809,63.0,0,78,11.0,105.0
4810,67.0,0,78,10.0,105.0
4811,67.0,0,78,11.0,105.0
4812,79.0,0,156,0.0,92.0
4813,58.0,0,156,12.0,105.0
4814,58.0,0,156,2.0,92.0
4815,55.0,0,156,2.0,92.0
4816,51.0,0,156,3.0,92.0
4817,55.0,0,156,3.0,92.0
4818,75.0,0,156,1.0,92.0
4819,58.0,0,156,13.0,105.0
4820,70.0,0,156,1.0,92.0
4821,63.0,0,156,4.0,92.0
4822,46.0,0,156,14.0,105.0
4823,67.0,0,156,4.0,92.0
4824,51.0,120,192,5.0,105.0
4825,70.0,0,78,11.0,105.0
4826,70.0,120,78,10.0,105.0
4827,75.0,0,78,11.0,105.0
4828,75.0,0,78,10.0,105.0
4829,55.0,0,156,2.0,92.0
4830,58.0,0,156,2.0,92.0
4831,79.0,0,156,0.0,92.0
4832,51.0,0,156,3.0,92.0
4833,43.0,0,156,14.0,105.0
4834,67.0,0,156,4.0,92.0
4835,55.0,0,156,12.0,105.0
4836,63.0,0,156,4.0,92.0
4837,55.0,0,156,13.0,105.0
4838,55.0,0,156,3.0,92.0
4839,75.0,0,156,1.0,92.0
4840,70.0,0,156,1.0,92.0
4841,51.0,120,192,5.0,105.0
4842,79.0,0,78,10.0,105.0
4843,79.0,120,78,11.0,105.0
4844,58.0,120,156,2.0,92.0
4845,55.0,0,156,2.0,92.0
4846,51.0,0,156,3.0,92.0
4847,63.0,0,156,4.0,92.0
4848,39.0,0,156,14.0,105.0
4849,67.0,0,156,4.0,92.0
4850,55.0,0,156,3.0,92.0
4851,51.0,0,156,13.0,105.0
4852,70.0,0,156,1.0,92.0
4853,75.0,0,156,1.0,92.0
4854,79.0,0,156,0.0,92.0
4855,51.0,0,156,12.0,105.0
4856,82.0,0,192,10.0,105.0
4857,51.0,0,192,5.0,105.0
4858,82.0,0,192,11.0,105.0
4859,63.0,0,156,4.0,92.0
4860,55.0,0,156,3.0,92.0
4861,79.0,0,156,0.0,92.0
4862,70.0,240,156,1.0,92.0
4863,75.0,0,156,1.0,92.0
4864,55.0,0,156,2.0,92.0
4865,67.0,0,156,4.0,92.0
4866,51.0,0,156,3.0,92.0
4867,58.0,0,156,2.0,92.0
4868,63.0,0,156,4.0,92.0
4869,79.0,0,156,0.0,92.0
4870,67.0,0,156,4.0,92.0
4871,75.0,0,156,1.0,92.0
4872,70.0,0,156,1.0,92.0
4873,55.0,0,156,3.0,92.0
4874,58.0,0,156,2.0,92.0
4875,51.0,240,156,3.0,92.0
4876,55.0,0,156,2.0,92.0
4877,79.0,0,192,10.0,70.0
4878,62.0,0,120,11.0,78.0
4879,62.0,240,240,12.0,78.0
4880,77.0,0,240,10.0,90.0
4881,65.0,120,120,11.0,58.0
4882,70.0,0,120,11.0,58.0
4883,44.0,0,480,14.0,78.0
4884,74.0,0,240,10.0,70.0
4885,65.0,120,120,11.0,58.0
4886,65.0,120,240,12.0,58.0
4887,56.0,0,480,13.0,78.0
4888,70.0,0,120,11.0,58.0
4889,43.0,0,192,14.0,58.0
4890,55.0,0,192,13.0,58.0
4891,63.0,0,192,12.0,58.0
4892,75.0,120,192,10.0,70.0
4893,67.0,120,108,11.0,58.0
4894,62.0,120,120,11.0,78.0
4895,62.0,0,240,12.0,78.0
4896,65.0,120,120,11.0,58.0
4897,77.0,0,240,10.0,90.0
4898,70.0,0,120,11.0,58.0
4899,65.0,120,120,11.0,58.0
4900,74.0,120,240,10.0,70.0
4901,65.0,0,240,12.0,58.0
4902,56.0,0,480,13.0,78.0
4903,44.0,0,480,14.0,78.0
4904,70.0,0,120,11.0,58.0
4905,63.0,0,192,12.0,58.0
4906,75.0,0,192,10.0,70.0
4907,43.0,0,192,14.0,58.0
4908,55.0,120,192,13.0,58.0
4909,67.0,120,108,11.0,58.0
4910,82.0,0,60,10.0,70.0
4911,60.0,0,120,11.0,58.0
4912,41.0,0,144,14.0,58.0
4913,53.0,0,144,13.0,58.0
4914,80.0,60,108,10.0,70.0
4915,65.0,60,120,11.0,58.0
4916,68.0,0,120,11.0,58.0
4917,80.0,120,144,10.0,70.0
4918,41.0,0,144,14.0,58.0
4919,53.0,0,144,13.0,58.0
4920,60.0,120,480,12.0,58.0
4921,65.0,120,120,11.0,58.0
4922,68.0,0,120,11.0,58.0
4923,39.0,0,144,14.0,58.0
4924,80.0,0,144,10.0,70.0
4925,51.0,120,144,13.0,58.0
4926,65.0,120,108,11.0,58.0
4927,59.0,0,240,12.0,58.0
4928,58.0,0,120,11.0,58.0
4929,65.0,120,120,11.0,58.0
4930,68.0,120,120,11.0,58.0
4931,38.0,120,384,14.0,58.0
4932,50.0,0,384,13.0,58.0
4933,65.0,120,120,11.0,58.0
4934,80.0,0,480,10.0,70.0
4935,67.0,0,120,11.0,58.0
4936,79.0,120,192,10.0,70.0
4937,39.0,0,192,14.0,58.0
4938,51.0,0,192,13.0,58.0
4939,63.0,120,108,11.0,58.0
4940,79.0,0,60,10.0,70.0
4941,60.0,120,120,11.0,58.0
4942,77.0,60,108,10.0,70.0
4943,58.0,0,912,12.0,58.0
4944,56.0,0,192,13.0,58.0
4945,44.0,0,192,14.0,58.0
4946,65.0,60,120,11.0,58.0
4947,68.0,0,120,11.0,58.0
4948,77.0,120,144,10.0,70.0
4949,65.0,120,120,11.0,58.0
4950,68.0,120,120,11.0,58.0
4951,77.0,0,144,10.0,70.0
4952,65.0,120,108,11.0,58.0
4953,68.0,0,720,1.0,58.0
4954,60.0,0,720,2.0,58.0
4955,77.0,0,720,0.0,58.0
4956,75.0,0,60,10.0,70.0
4957,58.0,0,120,11.0,58.0
4958,74.0,60,108,10.0,70.0
4959,58.0,0,192,13.0,58.0
4960,58.0,0,192,12.0,30.0
4961,46.0,0,192,14.0,58.0
4962,65.0,60,120,11.0,58.0
4963,68.0,0,120,11.0,58.0
4964,74.0,120,144,10.0,70.0
4965,65.0,120,120,11.0,58.0
4966,74.0,0,576,0.0,58.0
4967,56.0,0,576,2.0,58.0
4968,65.0,120,576,1.0,58.0
4969,68.0,120,120,11.0,58.0
4970,74.0,0,144,10.0,70.0
4971,65.0,120,108,11.0,58.0
4972,75.0,0,120,10.0,116.0
4973,63.0,0,120,11.0,105.0
4974,43.0,0,156,14.0,105.0
4975,55.0,0,156,13.0,105.0
4976,70.0,0,192,1.0,105.0
4977,46.0,0,192,5.0,105.0
4978,75.0,0,192,1.0,105.0
4979,82.0,0,96,10.0,116.0
4980,70.0,120,96,11.0,105.0
4981,63.0,120,240,2.0,58.0
4982,58.0,0,240,12.0,105.0
4983,82.0,120,120,10.0,116.0
4984,70.0,0,120,11.0,105.0
4985,41.0,0,156,14.0,105.0
4986,53.0,0,156,13.0,105.0
4987,74.0,0,192,1.0,105.0
4988,68.0,0,192,1.0,105.0
4989,68.0,0,96,11.0,105.0
4990,80.0,120,96,10.0,116.0
4991,62.0,0,240,12.0,105.0
4992,62.0,0,240,2.0,105.0
4993,46.0,0,576,3.0,92.0
4994,58.0,0,576,3.0,105.0
4995,70.0,0,576,4.0,105.0
4996,58.0,0,576,4.0,105.0
4997,82.0,0,576,0.0,105.0
4998,80.0,0,120,10.0,116.0
4999,68.0,120,120,11.0,105.0
5000,39.0,0,156,14.0,105.0
5001,51.0,0,156,13.0,105.0
5002,75.0,0,192,1.0,105.0
5003,63.0,0,192,2.0,105.0
5004,68.0,0,192,1.0,105.0
5005,63.0,0,192,12.0,105.0
5006,79.0,0,96,10.0,116.0
5007,67.0,120,96,11.0,105.0
5008,70.0,0,96,1.0,105.0
5009,79.0,0,120,10.0,116.0
5010,79.0,0,120,1.0,105.0
5011,70.0,0,120,12.0,105.0
5012,82.0,0,120,0.0,105.0
5013,67.0,0,120,11.0,105.0
5014,56.0,120,144,2.0,105.0
5015,44.0,0,156,14.0,105.0
5016,56.0,0,156,13.0,105.0
5017,80.0,120,96,0.0,105.0
5018,68.0,0,96,12.0,105.0
5019,77.0,0,96,10.0,116.0
5020,65.0,0,96,11.0,105.0
5021,68.0,0,96,1.0,105.0
5022,77.0,0,96,1.0,105.0
5023,68.0,0,96,1.0,105.0
5024,77.0,0,120,1.0,105.0
5025,65.0,0,120,11.0,105.0
5026,68.0,0,120,12.0,105.0
5027,80.0,120,120,0.0,105.0
5028,77.0,0,120,10.0,116.0
5029,58.0,0,144,3.0,105.0
5030,58.0,0,144,4.0,105.0
5031,70.0,0,144,4.0,105.0
5032,46.0,0,144,3.0,105.0
5033,58.0,0,144,2.0,105.0
5034,46.0,0,156,14.0,105.0
5035,58.0,0,156,13.0,105.0
5036,46.0,0,192,5.0,105.0
5037,75.0,0,96,1.0,105.0
5038,63.0,0,96,11.0,105.0
5039,79.0,0,96,0.0,105.0
5040,67.0,120,96,12.0,105.0
5041,67.0,0,96,1.0,105.0
5042,75.0,0,96,10.0,116.0
5043,67.0,0,96,1.0,105.0
5044,75.0,0,120,1.0,105.0
5045,67.0,0,120,12.0,105.0
5046,79.0,0,120,0.0,105.0
5047,75.0,0,120,10.0,116.0
5048,63.0,120,120,11.0,105.0
5049,56.0,0,144,2.0,105.0
5050,70.0,0,144,4.0,105.0
5051,58.0,0,144,4.0,105.0
5052,58.0,0,144,3.0,105.0
5053,46.0,0,144,3.0,105.0
5054,56.0,0,156,13.0,105.0
5055,44.0,0,156,14.0,105.0
5056,46.0,0,192,5.0,105.0
5057,65.0,0,96,12.0,105.0
5058,77.0,0,96,0.0,105.0
5059,74.0,0,96,1.0,105.0
5060,65.0,120,96,1.0,105.0
5061,62.0,0,96,11.0,105.0
5062,74.0,0,96,10.0,116.0
5063,75.0,0,120,10.0,116.0
5064,63.0,0,120,11.0,105.0
5065,55.0,120,156,13.0,105.0
5066,43.0,0,156,14.0,105.0
5067,46.0,0,192,5.0,105.0
5068,82.0,120,96,10.0,116.0
5069,70.0,0,96,11.0,105.0
5070,82.0,0,240,0.0,105.0
5071,63.0,0,240,12.0,105.0
5072,63.0,0,240,2.0,105.0
5073,70.0,0,240,1.0,105.0
5074,70.0,0,120,11.0,105.0
5075,82.0,0,120,10.0,116.0
5076,41.0,0,156,14.0,105.0
5077,53.0,120,156,13.0,105.0
5078,46.0,0,192,5.0,105.0
5079,80.0,0,96,10.0,116.0
5080,68.0,120,96,11.0,105.0
5081,86.0,0,240,0.0,105.0
5082,62.0,0,240,2.0,105.0
5083,62.0,0,240,12.0,105.0
5084,80.0,0,240,1.0,105.0
5085,46.0,0,576,3.0,105.0
5086,58.0,0,576,3.0,105.0
5087,58.0,0,576,4.0,105.0
5088,70.0,0,576,4.0,105.0
5089,68.0,0,120,11.0,105.0
5090,80.0,0,120,10.0,116.0
5091,39.0,0,156,14.0,105.0
5092,51.0,0,156,13.0,105.0
5093,87.0,120,192,0.0,105.0
5094,82.0,0,672,1.0,105.0
5095,79.0,0,192,1.0,105.0
5096,63.0,0,192,12.0,105.0
5097,63.0,0,192,2.0,105.0
5098,46.0,0,192,5.0,105.0
5099,67.0,120,96,11.0,105.0
5100,79.0,0,96,10.0,116.0
5101,82.0,0,96,1.0,105.0
5102,70.0,0,120,12.0,105.0
5103,91.0,0,120,0.0,105.0
5104,79.0,0,120,1.0,105.0
5105,79.0,0,120,10.0,116.0
5106,67.0,120,120,11.0,105.0
5107,56.0,0,144,2.0,105.0
5108,56.0,0,156,13.0,105.0
5109,44.0,0,156,14.0,105.0
5110,77.0,0,96,1.0,105.0
5111,80.0,0,96,1.0,105.0
5112,77.0,0,96,10.0,116.0
5113,89.0,0,96,0.0,105.0
5114,68.0,120,96,12.0,105.0
5115,65.0,0,96,11.0,105.0
5116,80.0,0,96,1.0,105.0
5117,65.0,0,120,11.0,105.0
5118,77.0,0,120,1.0,105.0
5119,89.0,0,120,0.0,105.0
5120,68.0,0,120,12.0,105.0
5121,77.0,120,120,10.0,116.0
5122,58.0,0,144,3.0,105.0
5123,70.0,0,144,4.0,105.0
5124,58.0,0,144,2.0,105.0
5125,46.0,0,144,3.0,105.0
5126,58.0,0,144,4.0,105.0
5127,46.0,0,156,14.0,105.0
5128,58.0,0,156,13.0,105.0
5129,46.0,0,192,5.0,105.0
5130,75.0,0,96,10.0,116.0
5131,79.0,0,96,1.0,105.0
5132,75.0,120,96,1.0,105.0
5133,63.0,0,96,11.0,105.0
5134,67.0,0,96,12.0,105.0
5135,87.0,0,96,0.0,105.0
5136,79.0,0,96,1.0,105.0
5137,67.0,0,120,12.0,105.0
5138,75.0,0,120,1.0,105.0
5139,75.0,120,120,10.0,116.0
5140,87.0,0,120,0.0,105.0
5141,63.0,0,120,11.0,105.0
5142,70.0,0,144,4.0,105.0
5143,46.0,0,144,3.0,105.0
5144,46.0,0,144,2.0,105.0
5145,58.0,0,144,3.0,105.0
5146,58.0,0,144,4.0,105.0
5147,46.0,0,156,13.0,105.0
5148,34.0,0,156,14.0,105.0
5149,46.0,0,192,5.0,105.0
5150,77.0,0,96,1.0,105.0
5151,74.0,0,96,1.0,105.0
5152,62.0,120,96,11.0,105.0
5153,74.0,0,96,10.0,116.0
5154,86.0,0,96,0.0,105.0
5155,65.0,0,96,12.0,105.0
5156,75.0,120,120,1.0,125.0
5157,67.0,0,120,11.0,105.0
5158,87.0,0,120,0.0,125.0
5159,67.0,0,120,4.0,125.0
5160,75.0,0,120,10.0,127.0
5161,55.0,0,120,3.0,125.0
5162,51.0,0,144,2.0,105.0
5163,63.0,0,156,12.0,105.0
5164,39.0,0,156,14.0,105.0
5165,51.0,0,156,13.0,105.0
5166,51.0,0,192,3.0,105.0
5167,63.0,0,192,4.0,105.0
5168,51.0,0,192,5.0,105.0
5169,39.0,0,144,2.0,105.0
5170,39.0,0,156,13.0,105.0
5171,51.0,0,156,12.0,105.0
5172,39.0,0,156,14.0,105.0
5173,51.0,0,192,5.0,105.0
5174,51.0,0,192,3.0,105.0
5175,67.0,0,192,1.0,105.0
5176,63.0,0,192,4.0,105.0
5177,75.0,0,240,1.0,105.0
5178,67.0,0,240,11.0,105.0
5179,75.0,0,240,10.0,116.0
5180,87.0,0,240,0.0,105.0
5181,55.0,240,240,3.0,105.0
5182,67.0,0,0,4.0,105.0
5183,39.0,0,144,2.0,105.0
5184,39.0,240,156,14.0,105.0
5185,51.0,0,156,12.0,105.0
5186,39.0,0,156,13.0,105.0
5187,79.0,0,192,1.0,105.0
5188,70.0,0,192,1.0,105.0
5189,58.0,0,192,3.0,105.0
5190,55.0,0,192,3.0,105.0
5191,70.0,0,192,11.0,105.0
5192,79.0,0,192,10.0,116.0
5193,51.0,0,192,5.0,105.0
5194,70.0,0,192,4.0,105.0
5195,91.0,0,192,0.0,105.0
5196,67.0,0,192,1.0,105.0
5197,75.0,0,192,1.0,105.0
5198,67.0,240,192,4.0,105.0
5199,63.0,0,192,4.0,105.0
5200,75.0,0,192,10.0,116.0
5201,39.0,0,192,13.0,105.0
5202,87.0,0,192,0.0,105.0
5203,39.0,0,192,14.0,105.0
5204,51.0,0,192,5.0,105.0
5205,55.0,0,192,3.0,105.0
5206,51.0,0,192,3.0,105.0
5207,39.0,0,192,2.0,105.0
5208,51.0,0,192,12.0,105.0
5209,67.0,0,192,11.0,105.0
5210,20.0,720,576,14.0,1.0
