tick,type,tempo,time,meta,track,numerator,denominator,clocks_per_click,notated_32nd_notes_per_beat,control,value,channel,program,key,note,velocity
0,set_tempo,576769,0,1,0,,,,,,,,,,,
0,control_change,,0,0,1,,,,,32,0,0,,,,
0,control_change,,0,0,1,,,,,1,0,0,,,,
0,control_change,,0,0,1,,,,,10,64,0,,,,
0,control_change,,0,0,1,,,,,91,0,0,,,,
0,control_change,,0,0,1,,,,,93,0,0,,,,
0,program_change,,0,0,1,,,,,,,0,0,,,
0,key_signature,,0,1,1,,,,,,,,,Gb,,
0,key_signature,,0,1,1,,,,,,,,,Gb,,
0,track_name,,0,1,1,,,,,,,,,,,
0,note_on,,0,0,1,,,,,,,0,,,75,100
0,note_on,,0,0,1,,,,,,,0,,,63,100
0,note_on,,0,0,1,,,,,,,0,,,39,100
0,note_on,,0,0,1,,,,,,,0,,,46,100
0,note_on,,0,0,1,,,,,,,0,,,54,100
0,control_change,,0,0,2,,,,,0,0,1,,,,
0,track_name,,0,1,2,,,,,,,,,,,
0,key_signature,,0,1,2,,,,,,,,,Gb,,
0,control_change,,0,0,2,,,,,93,0,1,,,,
0,control_change,,0,0,2,,,,,91,0,1,,,,
0,control_change,,0,0,2,,,,,10,64,1,,,,
0,control_change,,0,0,2,,,,,1,0,1,,,,
0,program_change,,0,0,2,,,,,,,1,53,,,
0,control_change,,0,0,2,,,,,32,0,1,,,,
0,control_change,,0,0,1,,,,,0,0,0,,,,
0,control_change,,0,0,1,,,,,7,82,0,,,,
0,control_change,,0,0,2,,,,,7,98,1,,,,
0,time_signature,,0,1,0,3,4,24,8,,,,,,,
0,track_name,,0,1,0,,,,,,,,,,,
0,copyright,,0,1,0,,,,,,,,,,,
228,note_on,,0,0,1,,,,,,,0,,,75,0
228,note_on,,228,0,1,,,,,,,0,,,63,0
240,note_on,,12,0,1,,,,,,,0,,,74,100
456,note_on,,216,0,1,,,,,,,0,,,54,0
456,note_on,,0,0,1,,,,,,,0,,,46,0
456,note_on,,0,0,1,,,,,,,0,,,39,0
468,note_on,,12,0,1,,,,,,,0,,,74,0
480,note_on,,12,0,1,,,,,,,0,,,75,100
480,note_on,,0,0,1,,,,,,,0,,,63,100
480,note_on,,0,0,1,,,,,,,0,,,39,100
480,note_on,,0,0,1,,,,,,,0,,,46,100
480,note_on,,0,0,1,,,,,,,0,,,54,100
936,note_on,,456,0,1,,,,,,,0,,,54,0
936,note_on,,0,0,1,,,,,,,0,,,46,0
936,note_on,,0,0,1,,,,,,,0,,,39,0
936,note_on,,0,0,1,,,,,,,0,,,63,0
936,note_on,,0,0,1,,,,,,,0,,,75,0
960,note_on,,0,0,1,,,,,,,0,,,54,100
960,note_on,,0,0,1,,,,,,,0,,,71,100
960,note_on,,24,0,1,,,,,,,0,,,63,100
960,note_on,,0,0,1,,,,,,,0,,,46,100
960,note_on,,0,0,1,,,,,,,0,,,39,100
1416,note_on,,456,0,1,,,,,,,0,,,54,0
1416,note_on,,0,0,1,,,,,,,0,,,46,0
1416,note_on,,0,0,1,,,,,,,0,,,39,0
1416,note_on,,0,0,1,,,,,,,0,,,71,0
1416,note_on,,0,0,1,,,,,,,0,,,63,0
1440,note_on,,24,0,1,,,,,,,0,,,39,100
1440,note_on,,0,0,1,,,,,,,0,,,46,100
1440,note_on,,0,0,1,,,,,,,0,,,54,100
1440,note_on,,0,0,1,,,,,,,0,,,63,100
1440,note_on,,0,0,1,,,,,,,0,,,73,100
1497,note_on,,57,0,1,,,,,,,0,,,73,0
1500,note_on,,3,0,1,,,,,,,0,,,71,100
1896,note_on,,0,0,1,,,,,,,0,,,46,0
1896,note_on,,0,0,1,,,,,,,0,,,39,0
1896,note_on,,396,0,1,,,,,,,0,,,54,0
1920,note_on,,24,0,1,,,,,,,0,,,39,100
1920,note_on,,0,0,1,,,,,,,0,,,54,100
1920,note_on,,0,0,1,,,,,,,0,,,46,100
2376,note_on,,0,0,1,,,,,,,0,,,39,0
2376,note_on,,0,0,1,,,,,,,0,,,63,0
2376,note_on,,456,0,1,,,,,,,0,,,54,0
2376,note_on,,0,0,1,,,,,,,0,,,46,0
2379,note_on,,3,0,1,,,,,,,0,,,71,0
2400,note_on,,0,0,1,,,,,,,0,,,70,100
2400,note_on,,0,0,1,,,,,,,0,,,63,100
2400,note_on,,21,0,1,,,,,,,0,,,39,100
2400,note_on,,0,0,1,,,,,,,0,,,46,100
2400,note_on,,0,0,1,,,,,,,0,,,54,100
2856,note_on,,456,0,1,,,,,,,0,,,70,0
2856,note_on,,0,0,1,,,,,,,0,,,46,0
2856,note_on,,0,0,1,,,,,,,0,,,63,0
2856,note_on,,0,0,1,,,,,,,0,,,39,0
2856,note_on,,0,0,1,,,,,,,0,,,54,0
2880,note_on,,0,0,1,,,,,,,0,,,46,100
2880,note_on,,0,0,1,,,,,,,0,,,54,100
2880,note_on,,0,0,1,,,,,,,0,,,63,100
2880,note_on,,0,0,1,,,,,,,0,,,71,100
2880,note_on,,24,0,1,,,,,,,0,,,39,100
2937,note_on,,57,0,1,,,,,,,0,,,71,0
2940,note_on,,3,0,1,,,,,,,0,,,70,100
3111,note_on,,171,0,1,,,,,,,0,,,70,0
3120,note_on,,9,0,1,,,,,,,0,,,69,100
3336,note_on,,216,0,1,,,,,,,0,,,54,0
3336,note_on,,0,0,1,,,,,,,0,,,39,0
3336,note_on,,0,0,1,,,,,,,0,,,46,0
3348,note_on,,12,0,1,,,,,,,0,,,69,0
3360,note_on,,12,0,1,,,,,,,0,,,39,100
3360,note_on,,0,0,1,,,,,,,0,,,46,100
3360,note_on,,0,0,1,,,,,,,0,,,70,100
3360,note_on,,0,0,1,,,,,,,0,,,63,100
3360,note_on,,0,0,1,,,,,,,0,,,54,100
3816,note_on,,0,0,1,,,,,,,0,,,39,0
3816,note_on,,0,0,1,,,,,,,0,,,46,0
3816,note_on,,0,0,1,,,,,,,0,,,63,0
3816,note_on,,0,0,1,,,,,,,0,,,63,0
3816,note_on,,456,0,1,,,,,,,0,,,70,0
3816,note_on,,0,0,1,,,,,,,0,,,54,0
3840,note_on,,24,0,1,,,,,,,0,,,39,100
3840,note_on,,0,0,1,,,,,,,0,,,46,100
3840,note_on,,0,0,1,,,,,,,0,,,54,100
3840,note_on,,0,0,1,,,,,,,0,,,63,100
3840,note_on,,0,0,1,,,,,,,0,,,66,100
4296,note_on,,456,0,1,,,,,,,0,,,66,0
4296,note_on,,0,0,1,,,,,,,0,,,63,0
4296,note_on,,0,0,1,,,,,,,0,,,46,0
4296,note_on,,0,0,1,,,,,,,0,,,39,0
4296,note_on,,0,0,1,,,,,,,0,,,54,0
4320,note_on,,24,0,1,,,,,,,0,,,39,100
4320,note_on,,0,0,1,,,,,,,0,,,46,100
4320,note_on,,0,0,1,,,,,,,0,,,54,100
4320,note_on,,0,0,1,,,,,,,0,,,65,100
4776,note_on,,0,0,1,,,,,,,0,,,39,0
4776,note_on,,0,0,1,,,,,,,0,,,46,0
4776,note_on,,456,0,1,,,,,,,0,,,65,0
4776,note_on,,0,0,1,,,,,,,0,,,54,0
4800,note_on,,24,0,1,,,,,,,0,,,39,100
4800,note_on,,0,0,1,,,,,,,0,,,46,100
4800,note_on,,0,0,1,,,,,,,0,,,54,100
4800,note_on,,0,0,1,,,,,,,0,,,63,100
5256,note_on,,0,0,1,,,,,,,0,,,54,0
5256,note_on,,0,0,1,,,,,,,0,,,39,0
5256,note_on,,0,0,1,,,,,,,0,,,46,0
5256,note_on,,456,0,1,,,,,,,0,,,63,0
5760,note_on,,5760,0,2,,,,,,,1,,,75,100
6102,note_on,,342,0,2,,,,,,,1,,,75,0
6120,note_on,,18,0,2,,,,,,,1,,,74,100
6234,note_on,,114,0,2,,,,,,,1,,,74,0
6240,note_on,,6,0,2,,,,,,,1,,,75,100
6696,note_on,,456,0,2,,,,,,,1,,,75,0
6720,note_on,,24,0,2,,,,,,,1,,,71,100
7176,note_on,,456,0,2,,,,,,,1,,,71,0
7200,note_on,,24,0,2,,,,,,,1,,,71,100
8136,note_on,,936,0,2,,,,,,,1,,,71,0
8160,note_on,,24,0,2,,,,,,,1,,,70,100
8616,note_on,,456,0,2,,,,,,,1,,,70,0
8640,note_on,,24,0,2,,,,,,,1,,,70,100
8868,note_on,,228,0,2,,,,,,,1,,,70,0
8880,note_on,,12,0,2,,,,,,,1,,,69,100
9108,note_on,,228,0,2,,,,,,,1,,,69,0
9120,note_on,,12,0,2,,,,,,,1,,,70,100
9828,note_on,,708,0,2,,,,,,,1,,,70,0
9840,note_on,,12,0,2,,,,,,,1,,,66,100
10068,note_on,,228,0,2,,,,,,,1,,,66,0
10080,note_on,,12,0,2,,,,,,,1,,,65,100
10104,control_change,,24,0,2,,,,,7,97,1,,,,
10128,control_change,,24,0,2,,,,,7,96,1,,,,
10152,control_change,,24,0,2,,,,,7,95,1,,,,
10176,control_change,,24,0,2,,,,,7,94,1,,,,
10200,control_change,,24,0,2,,,,,7,93,1,,,,
10224,control_change,,24,0,2,,,,,7,92,1,,,,
10248,control_change,,24,0,2,,,,,7,91,1,,,,
10272,control_change,,24,0,2,,,,,7,90,1,,,,
10296,control_change,,24,0,2,,,,,7,89,1,,,,
10344,control_change,,48,0,2,,,,,7,88,1,,,,
10368,control_change,,24,0,2,,,,,7,87,1,,,,
10392,control_change,,24,0,2,,,,,7,86,1,,,,
10416,control_change,,24,0,2,,,,,7,85,1,,,,
10440,control_change,,24,0,2,,,,,7,84,1,,,,
10464,control_change,,24,0,2,,,,,7,83,1,,,,
10488,control_change,,24,0,2,,,,,7,82,1,,,,
10512,control_change,,24,0,2,,,,,7,81,1,,,,
10536,note_on,,0,0,2,,,,,,,1,,,65,0
10536,control_change,,24,0,2,,,,,7,80,1,,,,
10560,control_change,,24,0,2,,,,,7,79,1,,,,
10560,note_on,,0,0,2,,,,,,,1,,,63,100
10584,control_change,,24,0,2,,,,,7,78,1,,,,
10608,control_change,,24,0,2,,,,,7,77,1,,,,
10632,control_change,,24,0,2,,,,,7,76,1,,,,
10656,control_change,,24,0,2,,,,,7,75,1,,,,
10680,control_change,,24,0,2,,,,,7,74,1,,,,
10704,control_change,,24,0,2,,,,,7,73,1,,,,
10728,control_change,,24,0,2,,,,,7,72,1,,,,
10752,control_change,,24,0,2,,,,,7,71,1,,,,
10776,control_change,,24,0,2,,,,,7,70,1,,,,
10824,control_change,,48,0,2,,,,,7,69,1,,,,
10848,control_change,,24,0,2,,,,,7,68,1,,,,
10872,control_change,,24,0,2,,,,,7,67,1,,,,
10896,control_change,,24,0,2,,,,,7,66,1,,,,
10920,control_change,,24,0,2,,,,,7,65,1,,,,
10944,control_change,,24,0,2,,,,,7,64,1,,,,
10968,control_change,,24,0,2,,,,,7,63,1,,,,
10992,control_change,,24,0,2,,,,,7,62,1,,,,
11016,control_change,,24,0,2,,,,,7,61,1,,,,
11016,note_on,,0,0,2,,,,,,,1,,,63,0
11040,set_tempo,2999809,11040,1,0,,,,,,,,,,,
11040,control_change,,24,0,2,,,,,7,60,1,,,,
11520,set_tempo,576769,480,1,0,,,,,,,,,,,
11520,note_on,,6264,0,1,,,,,,,0,,,75,100
11520,note_on,,0,0,1,,,,,,,0,,,63,100
11520,note_on,,0,0,1,,,,,,,0,,,39,100
11520,note_on,,0,0,1,,,,,,,0,,,46,100
11520,note_on,,0,0,1,,,,,,,0,,,54,100
11748,note_on,,228,0,1,,,,,,,0,,,63,0
11748,note_on,,0,0,1,,,,,,,0,,,75,0
11760,note_on,,12,0,1,,,,,,,0,,,74,100
11976,note_on,,0,0,1,,,,,,,0,,,39,0
11976,note_on,,216,0,1,,,,,,,0,,,54,0
11976,note_on,,0,0,1,,,,,,,0,,,46,0
11988,note_on,,12,0,1,,,,,,,0,,,74,0
12000,note_on,,0,0,1,,,,,,,0,,,54,100
12000,note_on,,12,0,1,,,,,,,0,,,75,100
12000,note_on,,0,0,1,,,,,,,0,,,63,100
12000,note_on,,0,0,1,,,,,,,0,,,39,100
12000,note_on,,0,0,1,,,,,,,0,,,46,100
12456,note_on,,0,0,1,,,,,,,0,,,75,0
12456,note_on,,0,0,1,,,,,,,0,,,63,0
12456,note_on,,0,0,1,,,,,,,0,,,39,0
12456,note_on,,456,0,1,,,,,,,0,,,54,0
12456,note_on,,0,0,1,,,,,,,0,,,46,0
12480,note_on,,0,0,1,,,,,,,0,,,39,100
12480,note_on,,0,0,1,,,,,,,0,,,71,100
12480,note_on,,0,0,1,,,,,,,0,,,46,100
12480,note_on,,0,0,1,,,,,,,0,,,54,100
12480,note_on,,24,0,1,,,,,,,0,,,63,100
12936,note_on,,456,0,1,,,,,,,0,,,54,0
12936,note_on,,0,0,1,,,,,,,0,,,46,0
12936,note_on,,0,0,1,,,,,,,0,,,39,0
12936,note_on,,0,0,1,,,,,,,0,,,71,0
12936,note_on,,0,0,1,,,,,,,0,,,63,0
12960,note_on,,0,0,1,,,,,,,0,,,73,100
12960,note_on,,0,0,1,,,,,,,0,,,63,100
12960,note_on,,24,0,1,,,,,,,0,,,39,100
12960,note_on,,0,0,1,,,,,,,0,,,46,100
12960,note_on,,0,0,1,,,,,,,0,,,54,100
13017,note_on,,57,0,1,,,,,,,0,,,73,0
13020,note_on,,3,0,1,,,,,,,0,,,71,100
13416,note_on,,0,0,1,,,,,,,0,,,39,0
13416,note_on,,0,0,1,,,,,,,0,,,46,0
13416,note_on,,396,0,1,,,,,,,0,,,54,0
13440,note_on,,24,0,1,,,,,,,0,,,39,100
13440,note_on,,0,0,1,,,,,,,0,,,46,100
13440,note_on,,0,0,1,,,,,,,0,,,54,100
13896,note_on,,456,0,1,,,,,,,0,,,54,0
13896,note_on,,0,0,1,,,,,,,0,,,46,0
13896,note_on,,0,0,1,,,,,,,0,,,39,0
13896,note_on,,0,0,1,,,,,,,0,,,63,0
13899,note_on,,3,0,1,,,,,,,0,,,71,0
13920,note_on,,21,0,1,,,,,,,0,,,39,100
13920,note_on,,0,0,1,,,,,,,0,,,46,100
13920,note_on,,0,0,1,,,,,,,0,,,54,100
13920,note_on,,0,0,1,,,,,,,0,,,63,100
13920,note_on,,0,0,1,,,,,,,0,,,70,100
14376,note_on,,0,0,1,,,,,,,0,,,39,0
14376,note_on,,0,0,1,,,,,,,0,,,46,0
14376,note_on,,456,0,1,,,,,,,0,,,70,0
14376,note_on,,0,0,1,,,,,,,0,,,63,0
14376,note_on,,0,0,1,,,,,,,0,,,54,0
14400,note_on,,24,0,1,,,,,,,0,,,39,100
14400,note_on,,0,0,1,,,,,,,0,,,46,100
14400,note_on,,0,0,1,,,,,,,0,,,54,100
14400,note_on,,0,0,1,,,,,,,0,,,63,100
14400,note_on,,0,0,1,,,,,,,0,,,71,100
14457,note_on,,57,0,1,,,,,,,0,,,71,0
14460,note_on,,3,0,1,,,,,,,0,,,70,100
14631,note_on,,171,0,1,,,,,,,0,,,70,0
14640,note_on,,9,0,1,,,,,,,0,,,69,100
14856,note_on,,216,0,1,,,,,,,0,,,54,0
14856,note_on,,0,0,1,,,,,,,0,,,46,0
14856,note_on,,0,0,1,,,,,,,0,,,39,0
14868,note_on,,12,0,1,,,,,,,0,,,69,0
14880,note_on,,0,0,1,,,,,,,0,,,63,100
14880,note_on,,0,0,1,,,,,,,0,,,70,100
14880,note_on,,0,0,1,,,,,,,0,,,46,100
14880,note_on,,0,0,1,,,,,,,0,,,54,100
14880,note_on,,12,0,1,,,,,,,0,,,39,100
15336,note_on,,456,0,1,,,,,,,0,,,70,0
15336,note_on,,0,0,1,,,,,,,0,,,63,0
15336,note_on,,0,0,1,,,,,,,0,,,63,0
15336,note_on,,0,0,1,,,,,,,0,,,54,0
15336,note_on,,0,0,1,,,,,,,0,,,46,0
15336,note_on,,0,0,1,,,,,,,0,,,39,0
15360,note_on,,0,0,1,,,,,,,0,,,66,100
15360,note_on,,24,0,1,,,,,,,0,,,39,100
15360,note_on,,0,0,1,,,,,,,0,,,46,100
15360,note_on,,0,0,1,,,,,,,0,,,63,100
15360,note_on,,0,0,1,,,,,,,0,,,54,100
15816,note_on,,456,0,1,,,,,,,0,,,66,0
15816,note_on,,0,0,1,,,,,,,0,,,63,0
15816,note_on,,0,0,1,,,,,,,0,,,54,0
15816,note_on,,0,0,1,,,,,,,0,,,46,0
15816,note_on,,0,0,1,,,,,,,0,,,39,0
15840,note_on,,0,0,1,,,,,,,0,,,70,100
15840,note_on,,0,0,1,,,,,,,0,,,63,100
15840,note_on,,0,0,1,,,,,,,0,,,54,100
15840,note_on,,0,0,1,,,,,,,0,,,46,100
15840,note_on,,24,0,1,,,,,,,0,,,39,100
16296,note_on,,456,0,1,,,,,,,0,,,70,0
16296,note_on,,0,0,1,,,,,,,0,,,63,0
16296,note_on,,0,0,1,,,,,,,0,,,54,0
16296,note_on,,0,0,1,,,,,,,0,,,46,0
16296,note_on,,0,0,1,,,,,,,0,,,39,0
17280,note_on,,0,0,2,,,,,,,1,,,75,100
17280,control_change,,6240,0,2,,,,,7,98,1,,,,
17622,note_on,,342,0,2,,,,,,,1,,,75,0
17640,note_on,,18,0,2,,,,,,,1,,,74,100
17754,note_on,,114,0,2,,,,,,,1,,,74,0
17760,note_on,,6,0,2,,,,,,,1,,,75,100
18468,note_on,,708,0,2,,,,,,,1,,,75,0
18480,note_on,,12,0,2,,,,,,,1,,,71,100
18708,note_on,,228,0,2,,,,,,,1,,,71,0
18720,note_on,,12,0,2,,,,,,,1,,,71,100
19656,note_on,,936,0,2,,,,,,,1,,,71,0
19680,note_on,,24,0,2,,,,,,,1,,,70,100
20136,note_on,,456,0,2,,,,,,,1,,,70,0
20160,note_on,,24,0,2,,,,,,,1,,,70,100
20388,note_on,,228,0,2,,,,,,,1,,,70,0
20400,note_on,,12,0,2,,,,,,,1,,,69,100
20628,note_on,,228,0,2,,,,,,,1,,,69,0
20640,note_on,,12,0,2,,,,,,,1,,,70,100
21096,note_on,,456,0,2,,,,,,,1,,,70,0
21120,note_on,,24,0,2,,,,,,,1,,,66,100
21576,note_on,,456,0,2,,,,,,,1,,,66,0
21600,note_on,,24,0,2,,,,,,,1,,,70,100
22308,note_on,,708,0,2,,,,,,,1,,,70,0
22320,note_on,,12,0,2,,,,,,,1,,,70,100
22368,control_change,,48,0,2,,,,,7,99,1,,,,
22416,control_change,,48,0,2,,,,,7,100,1,,,,
22464,control_change,,48,0,2,,,,,7,101,1,,,,
22512,control_change,,48,0,2,,,,,7,102,1,,,,
22548,note_on,,36,0,2,,,,,,,1,,,70,0
22560,control_change,,12,0,2,,,,,7,103,1,,,,
22560,note_on,,0,0,2,,,,,,,1,,,70,100
22608,control_change,,48,0,2,,,,,7,104,1,,,,
22656,control_change,,48,0,2,,,,,7,105,1,,,,
22704,control_change,,48,0,2,,,,,7,106,1,,,,
22752,control_change,,48,0,2,,,,,7,107,1,,,,
22800,control_change,,48,0,2,,,,,7,108,1,,,,
22848,control_change,,48,0,2,,,,,7,109,1,,,,
22896,control_change,,48,0,2,,,,,7,110,1,,,,
23016,note_on,,120,0,2,,,,,,,1,,,70,0
23040,note_on,,24,0,2,,,,,,,1,,,70,100
23040,time_signature,,11520,1,0,2,4,24,8,,,,,,,
23040,note_on,,0,0,1,,,,,,,0,,,65,100
23040,note_on,,0,0,1,,,,,,,0,,,59,100
23040,note_on,,6744,0,1,,,,,,,0,,,37,100
23088,control_change,,48,0,2,,,,,7,109,1,,,,
23112,control_change,,72,0,1,,,,,7,81,0,,,,
23136,control_change,,48,0,2,,,,,7,108,1,,,,
23184,control_change,,48,0,2,,,,,7,107,1,,,,
23232,control_change,,48,0,2,,,,,7,106,1,,,,
23256,control_change,,144,0,1,,,,,7,80,0,,,,
23268,note_on,,36,0,2,,,,,,,1,,,70,0
23268,note_on,,12,0,1,,,,,,,0,,,65,0
23268,note_on,,0,0,1,,,,,,,0,,,59,0
23280,note_on,,12,0,1,,,,,,,0,,,61,100
23280,control_change,,12,0,2,,,,,7,105,1,,,,
23280,note_on,,0,0,2,,,,,,,1,,,68,100
23328,control_change,,48,0,2,,,,,7,104,1,,,,
23376,control_change,,48,0,2,,,,,7,103,1,,,,
23400,control_change,,120,0,1,,,,,7,79,0,,,,
23424,control_change,,48,0,2,,,,,7,102,1,,,,
23472,control_change,,48,0,2,,,,,7,101,1,,,,
23496,note_on,,96,0,1,,,,,,,0,,,37,0
23508,note_on,,12,0,1,,,,,,,0,,,61,0
23508,note_on,,36,0,2,,,,,,,1,,,68,0
23520,note_on,,12,0,1,,,,,,,0,,,42,100
23520,note_on,,0,0,1,,,,,,,0,,,66,100
23520,note_on,,0,0,1,,,,,,,0,,,58,100
23520,control_change,,12,0,2,,,,,7,100,1,,,,
23520,note_on,,0,0,2,,,,,,,1,,,66,100
23544,control_change,,24,0,1,,,,,7,78,0,,,,
23568,control_change,,48,0,2,,,,,7,99,1,,,,
23616,control_change,,48,0,2,,,,,7,98,1,,,,
23688,control_change,,144,0,1,,,,,7,77,0,,,,
23748,note_on,,0,0,1,,,,,,,0,,,58,0
23748,note_on,,132,0,2,,,,,,,1,,,66,0
23748,note_on,,60,0,1,,,,,,,0,,,66,0
23760,note_on,,12,0,1,,,,,,,0,,,61,100
23832,control_change,,72,0,1,,,,,7,76,0,,,,
23880,note_on,,132,0,2,,,,,,,1,,,70,100
23976,note_on,,144,0,1,,,,,,,0,,,42,0
23988,note_on,,12,0,1,,,,,,,0,,,61,0
23994,note_on,,114,0,2,,,,,,,1,,,70,0
24000,note_on,,6,0,2,,,,,,,1,,,70,100
24000,note_on,,12,0,1,,,,,,,0,,,49,100
24000,note_on,,0,0,1,,,,,,,0,,,65,100
24000,note_on,,0,0,1,,,,,,,0,,,59,100
24228,note_on,,228,0,1,,,,,,,0,,,65,0
24228,note_on,,228,0,2,,,,,,,1,,,70,0
24228,note_on,,0,0,1,,,,,,,0,,,59,0
24240,note_on,,12,0,1,,,,,,,0,,,61,100
24240,note_on,,12,0,2,,,,,,,1,,,68,100
24456,note_on,,216,0,1,,,,,,,0,,,49,0
24468,note_on,,12,0,1,,,,,,,0,,,61,0
24468,note_on,,228,0,2,,,,,,,1,,,68,0
24480,note_on,,12,0,1,,,,,,,0,,,54,100
24480,note_on,,12,0,2,,,,,,,1,,,66,100
24480,note_on,,0,0,1,,,,,,,0,,,66,100
24480,note_on,,0,0,1,,,,,,,0,,,58,100
24708,note_on,,0,0,1,,,,,,,0,,,58,0
24708,note_on,,228,0,1,,,,,,,0,,,66,0
24708,note_on,,228,0,2,,,,,,,1,,,66,0
24720,note_on,,12,0,1,,,,,,,0,,,61,100
24936,note_on,,216,0,1,,,,,,,0,,,54,0
24948,note_on,,12,0,1,,,,,,,0,,,61,0
24960,note_on,,0,0,1,,,,,,,0,,,56,100
24960,note_on,,0,0,1,,,,,,,0,,,66,100
24960,note_on,,0,0,1,,,,,,,0,,,62,100
24960,note_on,,12,0,1,,,,,,,0,,,46,100
24960,note_on,,252,0,2,,,,,,,1,,,66,100
25188,note_on,,0,0,1,,,,,,,0,,,66,0
25188,note_on,,228,0,1,,,,,,,0,,,56,0
25188,note_on,,0,0,1,,,,,,,0,,,62,0
25200,note_on,,12,0,1,,,,,,,0,,,58,100
25302,note_on,,342,0,2,,,,,,,1,,,66,0
25320,note_on,,18,0,2,,,,,,,1,,,66,100
25428,note_on,,228,0,1,,,,,,,0,,,58,0
25434,note_on,,114,0,2,,,,,,,1,,,66,0
25440,note_on,,6,0,2,,,,,,,1,,,66,100
25440,note_on,,0,0,1,,,,,,,0,,,62,100
25440,note_on,,12,0,1,,,,,,,0,,,56,100
25464,control_change,,24,0,2,,,,,7,99,1,,,,
25512,control_change,,48,0,2,,,,,7,100,1,,,,
25536,control_change,,24,0,2,,,,,7,101,1,,,,
25584,control_change,,48,0,2,,,,,7,102,1,,,,
25608,control_change,,24,0,2,,,,,7,103,1,,,,
25656,control_change,,48,0,2,,,,,7,104,1,,,,
25668,note_on,,228,0,1,,,,,,,0,,,62,0
25668,note_on,,0,0,1,,,,,,,0,,,56,0
25680,note_on,,12,0,1,,,,,,,0,,,58,100
25680,control_change,,24,0,2,,,,,7,105,1,,,,
25728,control_change,,48,0,2,,,,,7,106,1,,,,
25752,control_change,,24,0,2,,,,,7,107,1,,,,
25782,note_on,,30,0,2,,,,,,,1,,,66,0
25800,control_change,,18,0,2,,,,,7,108,1,,,,
25800,note_on,,0,0,2,,,,,,,1,,,65,100
25896,note_on,,216,0,1,,,,,,,0,,,46,0
25908,note_on,,12,0,1,,,,,,,0,,,58,0
25914,note_on,,114,0,2,,,,,,,1,,,65,0
25920,note_on,,6,0,2,,,,,,,1,,,65,100
25920,note_on,,0,0,1,,,,,,,0,,,53,100
25920,note_on,,0,0,1,,,,,,,0,,,62,100
25920,note_on,,12,0,1,,,,,,,0,,,47,100
25968,control_change,,48,0,2,,,,,7,107,1,,,,
26064,control_change,,96,0,2,,,,,7,106,1,,,,
26136,control_change,,72,0,2,,,,,7,105,1,,,,
26148,note_on,,228,0,1,,,,,,,0,,,53,0
26148,note_on,,0,0,1,,,,,,,0,,,62,0
26160,note_on,,12,0,1,,,,,,,0,,,59,100
26232,control_change,,96,0,2,,,,,7,104,1,,,,
26304,control_change,,72,0,2,,,,,7,103,1,,,,
26376,note_on,,72,0,2,,,,,,,1,,,65,0
26388,note_on,,228,0,1,,,,,,,0,,,59,0
26400,note_on,,12,0,1,,,,,,,0,,,54,100
26400,note_on,,0,0,1,,,,,,,0,,,63,100
26400,control_change,,24,0,2,,,,,7,102,1,,,,
26400,note_on,,0,0,2,,,,,,,1,,,63,100
26472,control_change,,72,0,2,,,,,7,101,1,,,,
26568,control_change,,96,0,2,,,,,7,100,1,,,,
26628,note_on,,228,0,1,,,,,,,0,,,63,0
26628,note_on,,0,0,1,,,,,,,0,,,54,0
26640,control_change,,72,0,2,,,,,7,99,1,,,,
26640,note_on,,12,0,1,,,,,,,0,,,56,100
26736,control_change,,96,0,2,,,,,7,98,1,,,,
26856,note_on,,216,0,1,,,,,,,0,,,47,0
26856,note_on,,120,0,2,,,,,,,1,,,63,0
26868,note_on,,12,0,1,,,,,,,0,,,56,0
26880,note_on,,24,0,2,,,,,,,1,,,61,100
26880,note_on,,0,0,1,,,,,,,0,,,53,100
26880,note_on,,0,0,1,,,,,,,0,,,59,100
26880,note_on,,12,0,1,,,,,,,0,,,49,100
26928,control_change,,48,0,2,,,,,7,99,1,,,,
26976,control_change,,48,0,2,,,,,7,100,1,,,,
27024,control_change,,48,0,2,,,,,7,101,1,,,,
27072,control_change,,48,0,2,,,,,7,102,1,,,,
27108,note_on,,36,0,2,,,,,,,1,,,61,0
27108,note_on,,0,0,1,,,,,,,0,,,59,0
27108,note_on,,228,0,1,,,,,,,0,,,53,0
27120,note_on,,0,0,2,,,,,,,1,,,65,100
27120,note_on,,12,0,1,,,,,,,0,,,56,100
27120,control_change,,12,0,2,,,,,7,103,1,,,,
27168,control_change,,48,0,2,,,,,7,104,1,,,,
27216,control_change,,48,0,2,,,,,7,105,1,,,,
27264,control_change,,48,0,2,,,,,7,106,1,,,,
27312,control_change,,48,0,2,,,,,7,107,1,,,,
27336,note_on,,216,0,1,,,,,,,0,,,49,0
27348,note_on,,36,0,2,,,,,,,1,,,65,0
27348,note_on,,12,0,1,,,,,,,0,,,56,0
27360,note_on,,0,0,1,,,,,,,0,,,59,100
27360,note_on,,0,0,1,,,,,,,0,,,53,100
27360,note_on,,0,0,2,,,,,,,1,,,68,100
27360,note_on,,12,0,1,,,,,,,0,,,37,100
27360,control_change,,12,0,2,,,,,7,108,1,,,,
27408,control_change,,48,0,2,,,,,7,109,1,,,,
27456,control_change,,48,0,2,,,,,7,110,1,,,,
27504,control_change,,48,0,2,,,,,7,111,1,,,,
27552,control_change,,48,0,2,,,,,7,112,1,,,,
27588,note_on,,36,0,2,,,,,,,1,,,68,0
27588,note_on,,228,0,1,,,,,,,0,,,59,0
27588,note_on,,0,0,1,,,,,,,0,,,53,0
27600,note_on,,0,0,2,,,,,,,1,,,71,100
27600,control_change,,12,0,2,,,,,7,113,1,,,,
27600,note_on,,12,0,1,,,,,,,0,,,49,100
27648,control_change,,48,0,2,,,,,7,114,1,,,,
27696,control_change,,48,0,2,,,,,7,115,1,,,,
27816,note_on,,216,0,1,,,,,,,0,,,37,0
27828,note_on,,12,0,1,,,,,,,0,,,49,0
27828,note_on,,132,0,2,,,,,,,1,,,71,0
27840,note_on,,12,0,2,,,,,,,1,,,71,100
27840,note_on,,12,0,1,,,,,,,0,,,42,100
27888,control_change,,48,0,2,,,,,7,114,1,,,,
27936,control_change,,48,0,2,,,,,7,113,1,,,,
27984,control_change,,48,0,2,,,,,7,112,1,,,,
28032,control_change,,48,0,2,,,,,7,111,1,,,,
28068,note_on,,36,0,2,,,,,,,1,,,71,0
28080,control_change,,12,0,2,,,,,7,110,1,,,,
28080,note_on,,0,0,2,,,,,,,1,,,70,100
28080,note_on,,240,0,1,,,,,,,0,,,58,100
28080,note_on,,0,0,1,,,,,,,0,,,66,100
28128,control_change,,48,0,2,,,,,7,109,1,,,,
28176,control_change,,48,0,2,,,,,7,108,1,,,,
28224,control_change,,48,0,2,,,,,7,107,1,,,,
28272,control_change,,48,0,2,,,,,7,106,1,,,,
28296,note_on,,216,0,1,,,,,,,0,,,42,0
28308,note_on,,12,0,1,,,,,,,0,,,58,0
28308,note_on,,36,0,2,,,,,,,1,,,70,0
28320,note_on,,12,0,1,,,,,,,0,,,59,100
28320,note_on,,0,0,1,,,,,,,0,,,44,100
28320,control_change,,12,0,2,,,,,7,105,1,,,,
28320,note_on,,0,0,2,,,,,,,1,,,70,100
28368,control_change,,48,0,2,,,,,7,104,1,,,,
28416,control_change,,48,0,2,,,,,7,103,1,,,,
28464,control_change,,48,0,2,,,,,7,102,1,,,,
28512,control_change,,48,0,2,,,,,7,101,1,,,,
28536,note_on,,216,0,1,,,,,,,0,,,66,0
28548,note_on,,36,0,2,,,,,,,1,,,70,0
28560,note_on,,0,0,2,,,,,,,1,,,68,100
28560,control_change,,12,0,2,,,,,7,100,1,,,,
28560,note_on,,24,0,1,,,,,,,0,,,65,100
28608,control_change,,48,0,2,,,,,7,99,1,,,,
28656,control_change,,48,0,2,,,,,7,98,1,,,,
28776,note_on,,0,0,1,,,,,,,0,,,59,0
28776,note_on,,216,0,1,,,,,,,0,,,44,0
28788,note_on,,132,0,2,,,,,,,1,,,68,0
28800,note_on,,0,0,1,,,,,,,0,,,54,100
28800,note_on,,24,0,1,,,,,,,0,,,46,100
28800,note_on,,12,0,2,,,,,,,1,,,68,100
28872,control_change,,72,0,2,,,,,7,97,1,,,,
28992,control_change,,120,0,2,,,,,7,96,1,,,,
29016,note_on,,216,0,1,,,,,,,0,,,65,0
29028,note_on,,36,0,2,,,,,,,1,,,68,0
29040,note_on,,12,0,2,,,,,,,1,,,66,100
29040,note_on,,24,0,1,,,,,,,0,,,63,100
29088,control_change,,48,0,2,,,,,7,95,1,,,,
29208,control_change,,120,0,2,,,,,7,94,1,,,,
29256,note_on,,216,0,1,,,,,,,0,,,54,0
29268,note_on,,60,0,2,,,,,,,1,,,66,0
29280,note_on,,12,0,2,,,,,,,1,,,66,100
29280,note_on,,24,0,1,,,,,,,0,,,34,100
29280,note_on,,0,0,1,,,,,,,0,,,56,100
29328,control_change,,48,0,2,,,,,7,93,1,,,,
29424,control_change,,96,0,2,,,,,7,92,1,,,,
29496,note_on,,216,0,1,,,,,,,0,,,63,0
29508,note_on,,84,0,2,,,,,,,1,,,66,0
29520,note_on,,24,0,1,,,,,,,0,,,62,100
29520,note_on,,12,0,2,,,,,,,1,,,65,100
29544,control_change,,24,0,2,,,,,7,91,1,,,,
29664,control_change,,120,0,2,,,,,7,90,1,,,,
29736,note_on,,0,0,1,,,,,,,0,,,34,0
29736,note_on,,216,0,1,,,,,,,0,,,56,0
29748,note_on,,12,0,1,,,,,,,0,,,62,0
29748,note_on,,84,0,2,,,,,,,1,,,65,0
29760,control_change,,12,0,2,,,,,7,89,1,,,,
29760,note_on,,0,0,2,,,,,,,1,,,65,100
29760,note_on,,0,0,1,,,,,,,0,,,62,100
29760,note_on,,12,0,1,,,,,,,0,,,39,100
29760,note_on,,0,0,1,,,,,,,0,,,56,100
29832,control_change,,72,0,1,,,,,7,75,0,,,,
29880,control_change,,120,0,2,,,,,7,88,1,,,,
29952,control_change,,120,0,1,,,,,7,74,0,,,,
29988,note_on,,0,0,1,,,,,,,0,,,62,0
29988,note_on,,36,0,1,,,,,,,0,,,56,0
30000,control_change,,120,0,2,,,,,7,87,1,,,,
30000,note_on,,12,0,1,,,,,,,0,,,58,100
30072,control_change,,72,0,1,,,,,7,73,0,,,,
30096,control_change,,96,0,2,,,,,7,86,1,,,,
30192,control_change,,120,0,1,,,,,7,72,0,,,,
30216,note_on,,0,0,2,,,,,,,1,,,65,0
30216,control_change,,120,0,2,,,,,7,85,1,,,,
30228,note_on,,36,0,1,,,,,,,0,,,58,0
30240,note_on,,12,0,1,,,,,,,0,,,63,100
30240,note_on,,24,0,2,,,,,,,1,,,63,100
30240,note_on,,0,0,1,,,,,,,0,,,54,100
30312,control_change,,72,0,1,,,,,7,71,0,,,,
30336,control_change,,96,0,2,,,,,7,84,1,,,,
30432,control_change,,120,0,1,,,,,7,70,0,,,,
30432,control_change,,96,0,2,,,,,7,83,1,,,,
30468,note_on,,0,0,1,,,,,,,0,,,39,0
30468,note_on,,36,0,1,,,,,,,0,,,54,0
30468,note_on,,0,0,1,,,,,,,0,,,63,0
30468,note_on,,36,0,2,,,,,,,1,,,63,0
30468,note_on,,0,0,1,,,,,,,0,,,46,0
30720,note_on,,252,0,2,,,,,,,1,,,63,100
30720,note_on,,0,0,1,,,,,,,0,,,59,100
30720,note_on,,0,0,1,,,,,,,0,,,63,100
30720,note_on,,0,0,1,,,,,,,0,,,44,100
30720,note_on,,252,0,1,,,,,,,0,,,56,100
31062,note_on,,342,0,2,,,,,,,1,,,63,0
31080,note_on,,18,0,2,,,,,,,1,,,65,100
31176,note_on,,456,0,1,,,,,,,0,,,44,0
31176,note_on,,0,0,1,,,,,,,0,,,63,0
31176,note_on,,0,0,1,,,,,,,0,,,59,0
31176,note_on,,0,0,1,,,,,,,0,,,56,0
31194,note_on,,114,0,2,,,,,,,1,,,65,0
31200,note_on,,6,0,2,,,,,,,1,,,66,100
31200,note_on,,0,0,1,,,,,,,0,,,44,100
31200,note_on,,0,0,1,,,,,,,0,,,63,100
31200,note_on,,0,0,1,,,,,,,0,,,59,100
31200,note_on,,24,0,1,,,,,,,0,,,56,100
31428,note_on,,0,0,1,,,,,,,0,,,59,0
31428,note_on,,0,0,1,,,,,,,0,,,56,0
31428,note_on,,228,0,1,,,,,,,0,,,44,0
31428,note_on,,228,0,2,,,,,,,1,,,66,0
31428,note_on,,0,0,1,,,,,,,0,,,63,0
31440,note_on,,12,0,2,,,,,,,1,,,68,100
31440,note_on,,0,0,1,,,,,,,0,,,63,100
31440,note_on,,0,0,1,,,,,,,0,,,59,100
31440,note_on,,12,0,1,,,,,,,0,,,56,100
31440,note_on,,0,0,1,,,,,,,0,,,44,100
31668,note_on,,228,0,2,,,,,,,1,,,68,0
31668,note_on,,0,0,1,,,,,,,0,,,56,0
31668,note_on,,0,0,1,,,,,,,0,,,59,0
31668,note_on,,0,0,1,,,,,,,0,,,63,0
31668,note_on,,228,0,1,,,,,,,0,,,44,0
31680,note_on,,0,0,1,,,,,,,0,,,51,100
31680,note_on,,0,0,1,,,,,,,0,,,58,100
31680,note_on,,0,0,1,,,,,,,0,,,54,100
31680,note_on,,12,0,1,,,,,,,0,,,39,100
31680,note_on,,0,0,1,,,,,,,0,,,63,100
31680,note_on,,12,0,2,,,,,,,1,,,66,100
32136,note_on,,0,0,1,,,,,,,0,,,39,0
32136,note_on,,456,0,2,,,,,,,1,,,66,0
32136,note_on,,456,0,1,,,,,,,0,,,54,0
32136,note_on,,0,0,1,,,,,,,0,,,58,0
32136,note_on,,0,0,1,,,,,,,0,,,63,0
32136,note_on,,0,0,1,,,,,,,0,,,51,0
32160,note_on,,24,0,2,,,,,,,1,,,63,100
32160,note_on,,0,0,1,,,,,,,0,,,54,100
32160,note_on,,0,0,1,,,,,,,0,,,58,100
32160,note_on,,0,0,1,,,,,,,0,,,63,100
32160,note_on,,0,0,1,,,,,,,0,,,51,100
32160,note_on,,24,0,1,,,,,,,0,,,39,100
32616,note_on,,0,0,1,,,,,,,0,,,39,0
32616,note_on,,0,0,1,,,,,,,0,,,51,0
32616,note_on,,0,0,1,,,,,,,0,,,63,0
32616,note_on,,456,0,1,,,,,,,0,,,54,0
32616,note_on,,456,0,2,,,,,,,1,,,63,0
32616,note_on,,0,0,1,,,,,,,0,,,58,0
32640,note_on,,24,0,2,,,,,,,1,,,63,100
32640,note_on,,24,0,1,,,,,,,0,,,56,100
32640,note_on,,0,0,1,,,,,,,0,,,59,100
32640,note_on,,0,0,1,,,,,,,0,,,63,100
32640,note_on,,0,0,1,,,,,,,0,,,44,100
32982,note_on,,342,0,2,,,,,,,1,,,63,0
33000,note_on,,18,0,2,,,,,,,1,,,65,100
33096,note_on,,456,0,1,,,,,,,0,,,44,0
33096,note_on,,0,0,1,,,,,,,0,,,63,0
33096,note_on,,0,0,1,,,,,,,0,,,59,0
33096,note_on,,0,0,1,,,,,,,0,,,56,0
33114,note_on,,114,0,2,,,,,,,1,,,65,0
33120,note_on,,6,0,2,,,,,,,1,,,66,100
33120,note_on,,0,0,1,,,,,,,0,,,59,100
33120,note_on,,0,0,1,,,,,,,0,,,63,100
33120,note_on,,0,0,1,,,,,,,0,,,44,100
33120,note_on,,24,0,1,,,,,,,0,,,56,100
33348,note_on,,228,0,2,,,,,,,1,,,66,0
33348,note_on,,228,0,1,,,,,,,0,,,44,0
33348,note_on,,0,0,1,,,,,,,0,,,56,0
33348,note_on,,0,0,1,,,,,,,0,,,59,0
33348,note_on,,0,0,1,,,,,,,0,,,63,0
33360,note_on,,0,0,1,,,,,,,0,,,59,100
33360,note_on,,12,0,2,,,,,,,1,,,68,100
33360,note_on,,0,0,1,,,,,,,0,,,63,100
33360,note_on,,0,0,1,,,,,,,0,,,56,100
33360,note_on,,12,0,1,,,,,,,0,,,44,100
33588,note_on,,0,0,1,,,,,,,0,,,56,0
33588,note_on,,0,0,1,,,,,,,0,,,59,0
33588,note_on,,228,0,2,,,,,,,1,,,68,0
33588,note_on,,0,0,1,,,,,,,0,,,44,0
33588,note_on,,228,0,1,,,,,,,0,,,63,0
33600,note_on,,12,0,2,,,,,,,1,,,66,100
33600,note_on,,0,0,1,,,,,,,0,,,54,100
33600,note_on,,0,0,1,,,,,,,0,,,58,100
33600,note_on,,0,0,1,,,,,,,0,,,63,100
33600,note_on,,0,0,1,,,,,,,0,,,51,100
33600,note_on,,12,0,1,,,,,,,0,,,39,100
34056,note_on,,0,0,1,,,,,,,0,,,39,0
34056,note_on,,0,0,1,,,,,,,0,,,58,0
34056,note_on,,456,0,1,,,,,,,0,,,54,0
34056,note_on,,456,0,2,,,,,,,1,,,66,0
34056,note_on,,0,0,1,,,,,,,0,,,51,0
34056,note_on,,0,0,1,,,,,,,0,,,63,0
34080,note_on,,24,0,2,,,,,,,1,,,63,100
34080,note_on,,0,0,1,,,,,,,0,,,51,100
34080,note_on,,0,0,1,,,,,,,0,,,39,100
34080,note_on,,0,0,1,,,,,,,0,,,54,100
34080,note_on,,0,0,1,,,,,,,0,,,58,100
34080,note_on,,24,0,1,,,,,,,0,,,63,100
34536,note_on,,0,0,1,,,,,,,0,,,39,0
34536,note_on,,456,0,1,,,,,,,0,,,51,0
34536,note_on,,0,0,1,,,,,,,0,,,54,0
34536,note_on,,0,0,1,,,,,,,0,,,58,0
34536,note_on,,0,0,1,,,,,,,0,,,63,0
34536,note_on,,456,0,2,,,,,,,1,,,63,0
34560,note_on,,24,0,1,,,,,,,0,,,46,100
34560,note_on,,0,0,1,,,,,,,0,,,62,100
34560,note_on,,0,0,1,,,,,,,0,,,56,100
34560,note_on,,0,0,1,,,,,,,0,,,34,100
34560,note_on,,24,0,2,,,,,,,1,,,62,100
34788,note_on,,0,0,1,,,,,,,0,,,56,0
34788,note_on,,228,0,1,,,,,,,0,,,62,0
34788,note_on,,228,0,2,,,,,,,1,,,62,0
34800,note_on,,12,0,1,,,,,,,0,,,58,100
34800,note_on,,12,0,2,,,,,,,1,,,63,100
35016,note_on,,216,0,1,,,,,,,0,,,34,0
35016,note_on,,0,0,1,,,,,,,0,,,46,0
35028,note_on,,12,0,1,,,,,,,0,,,58,0
35028,note_on,,228,0,2,,,,,,,1,,,63,0
35040,note_on,,0,0,1,,,,,,,0,,,62,100
35040,note_on,,12,0,1,,,,,,,0,,,56,100
35040,note_on,,12,0,2,,,,,,,1,,,65,100
35268,note_on,,0,0,1,,,,,,,0,,,56,0
35268,note_on,,228,0,1,,,,,,,0,,,62,0
35268,note_on,,228,0,2,,,,,,,1,,,65,0
35280,note_on,,12,0,1,,,,,,,0,,,58,100
35280,note_on,,12,0,2,,,,,,,1,,,66,100
35508,note_on,,228,0,2,,,,,,,1,,,66,0
35508,note_on,,228,0,1,,,,,,,0,,,58,0
35520,note_on,,0,0,1,,,,,,,0,,,46,100
35520,note_on,,0,0,1,,,,,,,0,,,54,100
35520,note_on,,12,0,2,,,,,,,1,,,63,100
35520,note_on,,12,0,1,,,,,,,0,,,39,100
35520,note_on,,0,0,1,,,,,,,0,,,63,100
35748,note_on,,228,0,1,,,,,,,0,,,63,0
35748,note_on,,0,0,1,,,,,,,0,,,54,0
35748,note_on,,228,0,2,,,,,,,1,,,63,0
35760,note_on,,0,0,2,,,,,,,1,,,70,100
35760,control_change,,12,0,2,,,,,7,96,1,,,,
35760,note_on,,12,0,1,,,,,,,0,,,58,100
35784,control_change,,24,0,2,,,,,7,95,1,,,,
35832,control_change,,48,0,2,,,,,7,94,1,,,,
35856,control_change,,24,0,2,,,,,7,93,1,,,,
35904,control_change,,48,0,2,,,,,7,92,1,,,,
35928,control_change,,24,0,2,,,,,7,91,1,,,,
35976,control_change,,48,0,2,,,,,7,90,1,,,,
35976,note_on,,0,0,1,,,,,,,0,,,39,0
35976,note_on,,216,0,1,,,,,,,0,,,46,0
35988,note_on,,12,0,1,,,,,,,0,,,58,0
36000,control_change,,24,0,2,,,,,7,89,1,,,,
36000,note_on,,12,0,1,,,,,,,0,,,46,100
36000,note_on,,0,0,1,,,,,,,0,,,39,100
36000,note_on,,0,0,1,,,,,,,0,,,54,100
36000,note_on,,0,0,1,,,,,,,0,,,63,100
36048,control_change,,48,0,2,,,,,7,88,1,,,,
36096,control_change,,48,0,2,,,,,7,87,1,,,,
36120,control_change,,24,0,2,,,,,7,86,1,,,,
36168,control_change,,48,0,2,,,,,7,85,1,,,,
36192,control_change,,24,0,2,,,,,7,84,1,,,,
36216,note_on,,24,0,2,,,,,,,1,,,70,0
36228,note_on,,0,0,1,,,,,,,0,,,54,0
36228,note_on,,228,0,1,,,,,,,0,,,63,0
36240,control_change,,24,0,2,,,,,7,83,1,,,,
36240,note_on,,0,0,2,,,,,,,1,,,63,100
36240,note_on,,12,0,1,,,,,,,0,,,58,100
36456,note_on,,0,0,1,,,,,,,0,,,46,0
36456,note_on,,216,0,1,,,,,,,0,,,39,0
36468,note_on,,228,0,2,,,,,,,1,,,63,0
36468,note_on,,12,0,1,,,,,,,0,,,58,0
36480,note_on,,0,0,1,,,,,,,0,,,62,100
36480,note_on,,12,0,1,,,,,,,0,,,56,100
36480,note_on,,0,0,1,,,,,,,0,,,34,100
36480,note_on,,12,0,2,,,,,,,1,,,62,100
36480,note_on,,0,0,1,,,,,,,0,,,46,100
36708,note_on,,228,0,2,,,,,,,1,,,62,0
36708,note_on,,228,0,1,,,,,,,0,,,62,0
36708,note_on,,0,0,1,,,,,,,0,,,56,0
36720,note_on,,12,0,1,,,,,,,0,,,58,100
36720,note_on,,12,0,2,,,,,,,1,,,63,100
36936,note_on,,216,0,1,,,,,,,0,,,34,0
36936,note_on,,0,0,1,,,,,,,0,,,46,0
36948,note_on,,228,0,2,,,,,,,1,,,63,0
36948,note_on,,12,0,1,,,,,,,0,,,58,0
36960,note_on,,12,0,1,,,,,,,0,,,56,100
36960,note_on,,12,0,2,,,,,,,1,,,65,100
36960,note_on,,0,0,1,,,,,,,0,,,62,100
37188,note_on,,228,0,2,,,,,,,1,,,65,0
37188,note_on,,228,0,1,,,,,,,0,,,62,0
37188,note_on,,0,0,1,,,,,,,0,,,56,0
37200,note_on,,12,0,2,,,,,,,1,,,66,100
37200,note_on,,12,0,1,,,,,,,0,,,58,100
37428,note_on,,228,0,2,,,,,,,1,,,66,0
37428,note_on,,228,0,1,,,,,,,0,,,58,0
37440,note_on,,0,0,1,,,,,,,0,,,46,100
37440,note_on,,12,0,1,,,,,,,0,,,56,100
37440,note_on,,0,0,1,,,,,,,0,,,65,100
37440,note_on,,0,0,1,,,,,,,0,,,34,100
37440,note_on,,12,0,2,,,,,,,1,,,65,100
37668,note_on,,228,0,1,,,,,,,0,,,65,0
37668,note_on,,0,0,1,,,,,,,0,,,56,0
37680,note_on,,12,0,1,,,,,,,0,,,58,100
37896,note_on,,456,0,2,,,,,,,1,,,65,0
37896,note_on,,0,0,1,,,,,,,0,,,34,0
37896,note_on,,216,0,1,,,,,,,0,,,46,0
37908,note_on,,12,0,1,,,,,,,0,,,58,0
37920,note_on,,0,0,1,,,,,,,0,,,39,100
37920,note_on,,0,0,1,,,,,,,0,,,46,100
37920,note_on,,12,0,1,,,,,,,0,,,54,100
37920,note_on,,0,0,1,,,,,,,0,,,63,100
37920,note_on,,24,0,2,,,,,,,1,,,63,100
38148,note_on,,228,0,2,,,,,,,1,,,63,0
38148,note_on,,228,0,1,,,,,,,0,,,63,0
38148,note_on,,0,0,1,,,,,,,0,,,54,0
38160,note_on,,12,0,1,,,,,,,0,,,58,100
38376,note_on,,216,0,1,,,,,,,0,,,39,0
38376,note_on,,0,0,1,,,,,,,0,,,46,0
38388,note_on,,12,0,1,,,,,,,0,,,58,0
38400,note_on,,252,0,2,,,,,,,1,,,63,100
38400,note_on,,12,0,1,,,,,,,0,,,44,100
38400,note_on,,0,0,1,,,,,,,0,,,56,100
38400,note_on,,0,0,1,,,,,,,0,,,59,100
38400,note_on,,0,0,1,,,,,,,0,,,63,100
38742,note_on,,342,0,2,,,,,,,1,,,63,0
38760,note_on,,18,0,2,,,,,,,1,,,65,100
38856,note_on,,456,0,1,,,,,,,0,,,63,0
38856,note_on,,0,0,1,,,,,,,0,,,44,0
38856,note_on,,0,0,1,,,,,,,0,,,59,0
38856,note_on,,0,0,1,,,,,,,0,,,56,0
38874,note_on,,114,0,2,,,,,,,1,,,65,0
38880,note_on,,24,0,1,,,,,,,0,,,44,100
38880,note_on,,0,0,1,,,,,,,0,,,56,100
38880,note_on,,0,0,1,,,,,,,0,,,59,100
38880,note_on,,0,0,1,,,,,,,0,,,63,100
38880,note_on,,6,0,2,,,,,,,1,,,66,100
39108,note_on,,228,0,1,,,,,,,0,,,63,0
39108,note_on,,0,0,1,,,,,,,0,,,59,0
39108,note_on,,0,0,1,,,,,,,0,,,56,0
39108,note_on,,0,0,1,,,,,,,0,,,44,0
39108,note_on,,228,0,2,,,,,,,1,,,66,0
39120,note_on,,12,0,2,,,,,,,1,,,68,100
39120,note_on,,0,0,1,,,,,,,0,,,59,100
39120,note_on,,0,0,1,,,,,,,0,,,56,100
39120,note_on,,12,0,1,,,,,,,0,,,44,100
39120,note_on,,0,0,1,,,,,,,0,,,63,100
39348,note_on,,228,0,1,,,,,,,0,,,63,0
39348,note_on,,0,0,1,,,,,,,0,,,59,0
39348,note_on,,0,0,1,,,,,,,0,,,56,0
39348,note_on,,0,0,1,,,,,,,0,,,44,0
39348,note_on,,228,0,2,,,,,,,1,,,68,0
39360,note_on,,12,0,2,,,,,,,1,,,66,100
39360,note_on,,0,0,1,,,,,,,0,,,39,100
39360,note_on,,0,0,1,,,,,,,0,,,51,100
39360,note_on,,0,0,1,,,,,,,0,,,54,100
39360,note_on,,0,0,1,,,,,,,0,,,58,100
39360,note_on,,12,0,1,,,,,,,0,,,63,100
39816,note_on,,0,0,1,,,,,,,0,,,39,0
39816,note_on,,456,0,2,,,,,,,1,,,66,0
39816,note_on,,456,0,1,,,,,,,0,,,51,0
39816,note_on,,0,0,1,,,,,,,0,,,63,0
39816,note_on,,0,0,1,,,,,,,0,,,58,0
39816,note_on,,0,0,1,,,,,,,0,,,54,0
39840,note_on,,0,0,1,,,,,,,0,,,39,100
39840,note_on,,0,0,1,,,,,,,0,,,58,100
39840,note_on,,24,0,1,,,,,,,0,,,63,100
39840,note_on,,24,0,2,,,,,,,1,,,63,100
39840,note_on,,0,0,1,,,,,,,0,,,54,100
39840,note_on,,0,0,1,,,,,,,0,,,51,100
40296,note_on,,456,0,2,,,,,,,1,,,63,0
40296,note_on,,0,0,1,,,,,,,0,,,63,0
40296,note_on,,0,0,1,,,,,,,0,,,58,0
40296,note_on,,456,0,1,,,,,,,0,,,51,0
40296,note_on,,0,0,1,,,,,,,0,,,39,0
40296,note_on,,0,0,1,,,,,,,0,,,54,0
40320,note_on,,24,0,2,,,,,,,1,,,63,100
40320,note_on,,0,0,1,,,,,,,0,,,59,100
40320,note_on,,0,0,1,,,,,,,0,,,63,100
40320,note_on,,24,0,1,,,,,,,0,,,44,100
40320,note_on,,0,0,1,,,,,,,0,,,56,100
40662,note_on,,342,0,2,,,,,,,1,,,63,0
40680,note_on,,18,0,2,,,,,,,1,,,65,100
40776,note_on,,456,0,1,,,,,,,0,,,63,0
40776,note_on,,0,0,1,,,,,,,0,,,56,0
40776,note_on,,0,0,1,,,,,,,0,,,59,0
40776,note_on,,0,0,1,,,,,,,0,,,44,0
40794,note_on,,114,0,2,,,,,,,1,,,65,0
40800,note_on,,6,0,2,,,,,,,1,,,66,100
40800,note_on,,0,0,1,,,,,,,0,,,59,100
40800,note_on,,0,0,1,,,,,,,0,,,63,100
40800,note_on,,0,0,1,,,,,,,0,,,56,100
40800,note_on,,24,0,1,,,,,,,0,,,44,100
41028,note_on,,0,0,1,,,,,,,0,,,44,0
41028,note_on,,0,0,1,,,,,,,0,,,56,0
41028,note_on,,0,0,1,,,,,,,0,,,59,0
41028,note_on,,228,0,1,,,,,,,0,,,63,0
41028,note_on,,228,0,2,,,,,,,1,,,66,0
41040,note_on,,12,0,2,,,,,,,1,,,68,100
41040,note_on,,0,0,1,,,,,,,0,,,59,100
41040,note_on,,0,0,1,,,,,,,0,,,56,100
41040,note_on,,12,0,1,,,,,,,0,,,44,100
41040,note_on,,0,0,1,,,,,,,0,,,63,100
41268,note_on,,228,0,2,,,,,,,1,,,68,0
41268,note_on,,0,0,1,,,,,,,0,,,56,0
41268,note_on,,228,0,1,,,,,,,0,,,63,0
41268,note_on,,0,0,1,,,,,,,0,,,59,0
41268,note_on,,0,0,1,,,,,,,0,,,44,0
41280,note_on,,0,0,1,,,,,,,0,,,54,100
41280,note_on,,12,0,2,,,,,,,1,,,66,100
41280,note_on,,12,0,1,,,,,,,0,,,63,100
41280,note_on,,0,0,1,,,,,,,0,,,58,100
41280,note_on,,0,0,1,,,,,,,0,,,39,100
41280,note_on,,0,0,1,,,,,,,0,,,51,100
41736,note_on,,0,0,1,,,,,,,0,,,63,0
41736,note_on,,456,0,2,,,,,,,1,,,66,0
41736,note_on,,0,0,1,,,,,,,0,,,58,0
41736,note_on,,456,0,1,,,,,,,0,,,51,0
41736,note_on,,0,0,1,,,,,,,0,,,39,0
41736,note_on,,0,0,1,,,,,,,0,,,54,0
41760,note_on,,0,0,1,,,,,,,0,,,35,100
41760,note_on,,24,0,2,,,,,,,1,,,63,100
41760,note_on,,24,0,1,,,,,,,0,,,63,100
41760,note_on,,0,0,1,,,,,,,0,,,54,100
41760,note_on,,0,0,1,,,,,,,0,,,57,100
41760,note_on,,0,0,1,,,,,,,0,,,47,100
42216,note_on,,0,0,1,,,,,,,0,,,57,0
42216,note_on,,0,0,1,,,,,,,0,,,63,0
42216,note_on,,0,0,1,,,,,,,0,,,54,0
42216,note_on,,0,0,1,,,,,,,0,,,35,0
42216,note_on,,456,0,1,,,,,,,0,,,47,0
42216,note_on,,456,0,2,,,,,,,1,,,63,0
42240,note_on,,0,0,1,,,,,,,0,,,56,100
42240,note_on,,24,0,1,,,,,,,0,,,46,100
42240,note_on,,0,0,1,,,,,,,0,,,34,100
42240,note_on,,24,0,2,,,,,,,1,,,62,100
42240,note_on,,0,0,1,,,,,,,0,,,62,100
42468,note_on,,228,0,2,,,,,,,1,,,62,0
42468,note_on,,228,0,1,,,,,,,0,,,62,0
42468,note_on,,0,0,1,,,,,,,0,,,56,0
42480,note_on,,12,0,2,,,,,,,1,,,63,100
42480,note_on,,12,0,1,,,,,,,0,,,58,100
42696,note_on,,0,0,1,,,,,,,0,,,46,0
42696,note_on,,216,0,1,,,,,,,0,,,34,0
42708,note_on,,228,0,2,,,,,,,1,,,63,0
42708,note_on,,12,0,1,,,,,,,0,,,58,0
42720,note_on,,12,0,2,,,,,,,1,,,65,100
42720,note_on,,0,0,1,,,,,,,0,,,62,100
42720,note_on,,12,0,1,,,,,,,0,,,56,100
42948,note_on,,228,0,1,,,,,,,0,,,62,0
42948,note_on,,228,0,2,,,,,,,1,,,65,0
42948,note_on,,0,0,1,,,,,,,0,,,56,0
42960,note_on,,12,0,1,,,,,,,0,,,58,100
42960,note_on,,12,0,2,,,,,,,1,,,66,100
43188,note_on,,228,0,2,,,,,,,1,,,66,0
43188,note_on,,228,0,1,,,,,,,0,,,58,0
43200,note_on,,12,0,2,,,,,,,1,,,63,100
43200,note_on,,0,0,1,,,,,,,0,,,46,100
43200,note_on,,0,0,1,,,,,,,0,,,54,100
43200,note_on,,0,0,1,,,,,,,0,,,63,100
43200,note_on,,12,0,1,,,,,,,0,,,39,100
43428,note_on,,228,0,2,,,,,,,1,,,63,0
43428,note_on,,228,0,1,,,,,,,0,,,63,0
43428,note_on,,0,0,1,,,,,,,0,,,54,0
43440,control_change,,12,0,2,,,,,7,95,1,,,,
43440,note_on,,0,0,2,,,,,,,1,,,70,100
43440,note_on,,12,0,1,,,,,,,0,,,58,100
43464,control_change,,24,0,2,,,,,7,94,1,,,,
43512,control_change,,48,0,2,,,,,7,93,1,,,,
43560,control_change,,48,0,2,,,,,7,92,1,,,,
43584,control_change,,24,0,2,,,,,7,91,1,,,,
43632,control_change,,48,0,2,,,,,7,90,1,,,,
43656,note_on,,216,0,1,,,,,,,0,,,46,0
43656,note_on,,0,0,1,,,,,,,0,,,39,0
43668,note_on,,12,0,1,,,,,,,0,,,58,0
43680,control_change,,48,0,2,,,,,7,89,1,,,,
43680,note_on,,12,0,1,,,,,,,0,,,46,100
43680,note_on,,0,0,1,,,,,,,0,,,39,100
43680,note_on,,0,0,1,,,,,,,0,,,63,100
43680,note_on,,0,0,1,,,,,,,0,,,54,100
43704,control_change,,24,0,2,,,,,7,88,1,,,,
43752,control_change,,48,0,2,,,,,7,87,1,,,,
43800,control_change,,48,0,2,,,,,7,86,1,,,,
43824,control_change,,24,0,2,,,,,7,85,1,,,,
43872,control_change,,48,0,2,,,,,7,84,1,,,,
43896,note_on,,24,0,2,,,,,,,1,,,70,0
43908,note_on,,228,0,1,,,,,,,0,,,63,0
43908,note_on,,0,0,1,,,,,,,0,,,54,0
43920,control_change,,24,0,2,,,,,7,83,1,,,,
43920,note_on,,0,0,2,,,,,,,1,,,63,100
43920,note_on,,12,0,1,,,,,,,0,,,58,100
44136,note_on,,216,0,1,,,,,,,0,,,39,0
44136,note_on,,0,0,1,,,,,,,0,,,46,0
44148,note_on,,228,0,2,,,,,,,1,,,63,0
44148,note_on,,12,0,1,,,,,,,0,,,58,0
44160,note_on,,12,0,1,,,,,,,0,,,56,100
44160,note_on,,0,0,1,,,,,,,0,,,62,100
44160,note_on,,0,0,1,,,,,,,0,,,34,100
44160,note_on,,12,0,2,,,,,,,1,,,62,100
44160,note_on,,0,0,1,,,,,,,0,,,46,100
44388,note_on,,228,0,1,,,,,,,0,,,62,0
44388,note_on,,0,0,1,,,,,,,0,,,56,0
44388,note_on,,228,0,2,,,,,,,1,,,62,0
44400,note_on,,12,0,1,,,,,,,0,,,58,100
44400,note_on,,12,0,2,,,,,,,1,,,63,100
44424,set_tempo,578305,21384,1,0,,,,,,,,,,,
44448,set_tempo,580097,24,1,0,,,,,,,,,,,
44472,set_tempo,581633,24,1,0,,,,,,,,,,,
44496,set_tempo,583425,24,1,0,,,,,,,,,,,
44520,set_tempo,584961,24,1,0,,,,,,,,,,,
44544,set_tempo,586753,24,1,0,,,,,,,,,,,
44568,set_tempo,588289,24,1,0,,,,,,,,,,,
44592,set_tempo,590081,24,1,0,,,,,,,,,,,
44616,set_tempo,591617,24,1,0,,,,,,,,,,,
44616,note_on,,216,0,1,,,,,,,0,,,34,0
44616,note_on,,0,0,1,,,,,,,0,,,46,0
44628,note_on,,12,0,1,,,,,,,0,,,58,0
44628,note_on,,228,0,2,,,,,,,1,,,63,0
44640,note_on,,12,0,2,,,,,,,1,,,65,100
44640,note_on,,12,0,1,,,,,,,0,,,56,100
44640,note_on,,0,0,1,,,,,,,0,,,62,100
44640,set_tempo,593409,24,1,0,,,,,,,,,,,
44664,set_tempo,595201,24,1,0,,,,,,,,,,,
44688,set_tempo,596737,24,1,0,,,,,,,,,,,
44712,set_tempo,598529,24,1,0,,,,,,,,,,,
44736,set_tempo,600321,24,1,0,,,,,,,,,,,
44760,set_tempo,602113,24,1,0,,,,,,,,,,,
44784,set_tempo,603905,24,1,0,,,,,,,,,,,
44808,set_tempo,605697,24,1,0,,,,,,,,,,,
44832,set_tempo,607489,24,1,0,,,,,,,,,,,
44856,set_tempo,609281,24,1,0,,,,,,,,,,,
44868,note_on,,228,0,1,,,,,,,0,,,62,0
44868,note_on,,0,0,1,,,,,,,0,,,56,0
44868,note_on,,228,0,2,,,,,,,1,,,65,0
44880,note_on,,12,0,1,,,,,,,0,,,58,100
44880,set_tempo,611073,24,1,0,,,,,,,,,,,
44880,note_on,,12,0,2,,,,,,,1,,,66,100
44904,set_tempo,612865,24,1,0,,,,,,,,,,,
44928,set_tempo,614657,24,1,0,,,,,,,,,,,
44952,set_tempo,616449,24,1,0,,,,,,,,,,,
44976,set_tempo,618241,24,1,0,,,,,,,,,,,
45000,set_tempo,620289,24,1,0,,,,,,,,,,,
45024,set_tempo,622081,24,1,0,,,,,,,,,,,
45048,set_tempo,623873,24,1,0,,,,,,,,,,,
45072,set_tempo,625921,24,1,0,,,,,,,,,,,
45096,set_tempo,627713,24,1,0,,,,,,,,,,,
45108,note_on,,228,0,2,,,,,,,1,,,66,0
45108,note_on,,228,0,1,,,,,,,0,,,58,0
45120,note_on,,12,0,2,,,,,,,1,,,65,100
45120,note_on,,0,0,1,,,,,,,0,,,46,100
45120,note_on,,0,0,1,,,,,,,0,,,34,100
45120,note_on,,0,0,1,,,,,,,0,,,65,100
45120,note_on,,12,0,1,,,,,,,0,,,56,100
45120,set_tempo,629761,24,1,0,,,,,,,,,,,
45144,set_tempo,631553,24,1,0,,,,,,,,,,,
45168,set_tempo,633601,24,1,0,,,,,,,,,,,
45192,control_change,,72,0,1,,,,,7,69,0,,,,
45192,set_tempo,635393,24,1,0,,,,,,,,,,,
45216,set_tempo,637441,24,1,0,,,,,,,,,,,
45240,set_tempo,639489,24,1,0,,,,,,,,,,,
45264,set_tempo,641281,24,1,0,,,,,,,,,,,
45288,set_tempo,643329,24,1,0,,,,,,,,,,,
45312,set_tempo,645377,24,1,0,,,,,,,,,,,
45336,set_tempo,647425,24,1,0,,,,,,,,,,,
45336,control_change,,144,0,1,,,,,7,68,0,,,,
45348,note_on,,0,0,1,,,,,,,0,,,56,0
45348,note_on,,12,0,1,,,,,,,0,,,65,0
45360,note_on,,12,0,1,,,,,,,0,,,58,100
45360,set_tempo,649473,24,1,0,,,,,,,,,,,
45384,set_tempo,651521,24,1,0,,,,,,,,,,,
45408,set_tempo,653569,24,1,0,,,,,,,,,,,
45432,set_tempo,655617,24,1,0,,,,,,,,,,,
45456,set_tempo,657665,24,1,0,,,,,,,,,,,
45480,control_change,,120,0,1,,,,,7,67,0,,,,
45480,set_tempo,659969,24,1,0,,,,,,,,,,,
45504,set_tempo,662017,24,1,0,,,,,,,,,,,
45528,set_tempo,664065,24,1,0,,,,,,,,,,,
45552,set_tempo,666369,24,1,0,,,,,,,,,,,
45576,note_on,,96,0,1,,,,,,,0,,,46,0
45576,note_on,,0,0,1,,,,,,,0,,,34,0
45576,note_on,,456,0,2,,,,,,,1,,,65,0
45576,set_tempo,668417,24,1,0,,,,,,,,,,,
45588,note_on,,12,0,1,,,,,,,0,,,58,0
45600,note_on,,12,0,1,,,,,,,0,,,54,100
45600,note_on,,0,0,1,,,,,,,0,,,63,100
45600,note_on,,0,0,1,,,,,,,0,,,46,100
45600,note_on,,0,0,1,,,,,,,0,,,39,100
45600,note_on,,24,0,2,,,,,,,1,,,63,100
45600,set_tempo,670721,24,1,0,,,,,,,,,,,
45624,set_tempo,672769,24,1,0,,,,,,,,,,,
45624,control_change,,24,0,1,,,,,7,66,0,,,,
45648,set_tempo,675073,24,1,0,,,,,,,,,,,
45672,set_tempo,677121,24,1,0,,,,,,,,,,,
45696,set_tempo,679425,24,1,0,,,,,,,,,,,
45720,set_tempo,681729,24,1,0,,,,,,,,,,,
45768,control_change,,144,0,1,,,,,7,65,0,,,,
45828,note_on,,228,0,2,,,,,,,1,,,63,0
45828,note_on,,60,0,1,,,,,,,0,,,63,0
45828,note_on,,0,0,1,,,,,,,0,,,54,0
45840,note_on,,12,0,1,,,,,,,0,,,58,100
45840,set_tempo,1999873,120,1,0,,,,,,,,,,,
45954,note_on,,114,0,1,,,,,,,0,,,58,0
46056,note_on,,102,0,1,,,,,,,0,,,39,0
46056,note_on,,0,0,1,,,,,,,0,,,46,0
46080,key_signature,,252,1,2,,,,,,,,,Eb,,
46080,time_signature,,0,1,0,4,4,24,8,,,,,,,
46080,set_tempo,749825,240,1,0,,,,,,,,,,,
46080,note_on,,0,0,1,,,,,,,0,,,39,100
46080,note_on,,0,0,1,,,,,,,0,,,51,100
46080,note_on,,0,0,1,,,,,,,0,,,63,100
46080,note_on,,0,0,1,,,,,,,0,,,67,100
46080,note_on,,0,0,1,,,,,,,0,,,58,100
46080,note_on,,0,0,1,,,,,,,0,,,55,100
46080,key_signature,,0,1,1,,,,,,,,,Eb,,
46080,key_signature,,0,1,1,,,,,,,,,Eb,,
46080,control_change,,24,0,1,,,,,7,95,0,,,,
46536,note_on,,0,0,1,,,,,,,0,,,51,0
46536,note_on,,0,0,1,,,,,,,0,,,63,0
46536,note_on,,0,0,1,,,,,,,0,,,67,0
46536,note_on,,0,0,1,,,,,,,0,,,58,0
46536,note_on,,0,0,1,,,,,,,0,,,55,0
46536,note_on,,456,0,1,,,,,,,0,,,39,0
46560,note_on,,0,0,1,,,,,,,0,,,39,100
46560,note_on,,0,0,1,,,,,,,0,,,51,100
46560,note_on,,0,0,1,,,,,,,0,,,67,100
46560,note_on,,0,0,1,,,,,,,0,,,58,100
46560,note_on,,24,0,1,,,,,,,0,,,55,100
46560,note_on,,0,0,1,,,,,,,0,,,63,100
47016,note_on,,0,0,1,,,,,,,0,,,55,0
47016,note_on,,0,0,1,,,,,,,0,,,51,0
47016,note_on,,0,0,1,,,,,,,0,,,67,0
47016,note_on,,0,0,1,,,,,,,0,,,63,0
47016,note_on,,0,0,1,,,,,,,0,,,58,0
47016,note_on,,456,0,1,,,,,,,0,,,39,0
47040,note_on,,24,0,1,,,,,,,0,,,55,100
47040,note_on,,0,0,1,,,,,,,0,,,39,100
47040,note_on,,0,0,1,,,,,,,0,,,63,100
47040,note_on,,0,0,1,,,,,,,0,,,51,100
47040,note_on,,0,0,1,,,,,,,0,,,67,100
47040,note_on,,0,0,1,,,,,,,0,,,58,100
47496,note_on,,456,0,1,,,,,,,0,,,39,0
47496,note_on,,0,0,1,,,,,,,0,,,51,0
47496,note_on,,0,0,1,,,,,,,0,,,63,0
47496,note_on,,0,0,1,,,,,,,0,,,67,0
47496,note_on,,0,0,1,,,,,,,0,,,58,0
47496,note_on,,0,0,1,,,,,,,0,,,55,0
47520,note_on,,0,0,1,,,,,,,0,,,39,100
47520,note_on,,0,0,1,,,,,,,0,,,51,100
47520,note_on,,0,0,1,,,,,,,0,,,63,100
47520,note_on,,24,0,1,,,,,,,0,,,55,100
47520,note_on,,0,0,1,,,,,,,0,,,58,100
47520,note_on,,0,0,1,,,,,,,0,,,67,100
47976,note_on,,0,0,1,,,,,,,0,,,55,0
47976,note_on,,0,0,1,,,,,,,0,,,58,0
47976,note_on,,0,0,1,,,,,,,0,,,67,0
47976,note_on,,0,0,1,,,,,,,0,,,51,0
47976,note_on,,456,0,1,,,,,,,0,,,39,0
47976,note_on,,0,0,1,,,,,,,0,,,63,0
48000,note_on,,0,0,1,,,,,,,0,,,39,100
48000,note_on,,24,0,1,,,,,,,0,,,55,100
48000,note_on,,0,0,1,,,,,,,0,,,58,100
48000,note_on,,0,0,1,,,,,,,0,,,67,100
48000,note_on,,0,0,1,,,,,,,0,,,63,100
48000,note_on,,0,0,1,,,,,,,0,,,51,100
48048,control_change,,48,0,1,,,,,7,94,0,,,,
48120,control_change,,72,0,1,,,,,7,93,0,,,,
48168,control_change,,48,0,1,,,,,7,92,0,,,,
48240,control_change,,72,0,1,,,,,7,91,0,,,,
48312,control_change,,72,0,1,,,,,7,90,0,,,,
48384,control_change,,72,0,1,,,,,7,89,0,,,,
48456,control_change,,0,0,1,,,,,7,88,0,,,,
48456,note_on,,0,0,1,,,,,,,0,,,55,0
48456,note_on,,0,0,1,,,,,,,0,,,67,0
48456,note_on,,0,0,1,,,,,,,0,,,58,0
48456,note_on,,0,0,1,,,,,,,0,,,51,0
48456,note_on,,0,0,1,,,,,,,0,,,63,0
48456,note_on,,72,0,1,,,,,,,0,,,39,0
48480,note_on,,0,0,1,,,,,,,0,,,39,100
48480,note_on,,24,0,1,,,,,,,0,,,55,100
48480,note_on,,0,0,1,,,,,,,0,,,58,100
48480,note_on,,0,0,1,,,,,,,0,,,67,100
48480,note_on,,0,0,1,,,,,,,0,,,63,100
48480,note_on,,0,0,1,,,,,,,0,,,51,100
48504,control_change,,24,0,1,,,,,7,87,0,,,,
48576,control_change,,72,0,1,,,,,7,86,0,,,,
48648,control_change,,72,0,1,,,,,7,85,0,,,,
48720,control_change,,72,0,1,,,,,7,84,0,,,,
48768,control_change,,48,0,1,,,,,7,83,0,,,,
48840,control_change,,72,0,1,,,,,7,82,0,,,,
48912,control_change,,72,0,1,,,,,7,81,0,,,,
48936,note_on,,0,0,1,,,,,,,0,,,67,0
48936,note_on,,24,0,1,,,,,,,0,,,39,0
48936,note_on,,0,0,1,,,,,,,0,,,51,0
48936,note_on,,0,0,1,,,,,,,0,,,63,0
48936,note_on,,0,0,1,,,,,,,0,,,55,0
48936,note_on,,0,0,1,,,,,,,0,,,58,0
48960,note_on,,0,0,1,,,,,,,0,,,39,100
48960,note_on,,0,0,1,,,,,,,0,,,51,100
48960,note_on,,0,0,1,,,,,,,0,,,63,100
48960,note_on,,24,0,1,,,,,,,0,,,55,100
48960,note_on,,0,0,1,,,,,,,0,,,58,100
48960,note_on,,0,0,1,,,,,,,0,,,67,100
48984,control_change,,24,0,1,,,,,7,80,0,,,,
49056,control_change,,72,0,1,,,,,7,79,0,,,,
49104,control_change,,48,0,1,,,,,7,78,0,,,,
49176,control_change,,72,0,1,,,,,7,77,0,,,,
49248,control_change,,72,0,1,,,,,7,76,0,,,,
49320,control_change,,72,0,1,,,,,7,75,0,,,,
49368,control_change,,48,0,1,,,,,7,74,0,,,,
49416,note_on,,0,0,1,,,,,,,0,,,58,0
49416,note_on,,0,0,1,,,,,,,0,,,51,0
49416,note_on,,48,0,1,,,,,,,0,,,39,0
49416,note_on,,0,0,1,,,,,,,0,,,63,0
49416,note_on,,0,0,1,,,,,,,0,,,55,0
49416,note_on,,0,0,1,,,,,,,0,,,67,0
49440,control_change,,24,0,1,,,,,7,73,0,,,,
49440,note_on,,0,0,1,,,,,,,0,,,55,100
49440,note_on,,0,0,1,,,,,,,0,,,58,100
49440,note_on,,0,0,1,,,,,,,0,,,67,100
49440,note_on,,0,0,1,,,,,,,0,,,63,100
49440,note_on,,0,0,1,,,,,,,0,,,51,100
49440,note_on,,0,0,1,,,,,,,0,,,39,100
49512,control_change,,72,0,1,,,,,7,72,0,,,,
49584,control_change,,72,0,1,,,,,7,71,0,,,,
49656,control_change,,72,0,1,,,,,7,70,0,,,,
49704,control_change,,48,0,1,,,,,7,69,0,,,,
49776,control_change,,72,0,1,,,,,7,68,0,,,,
49896,note_on,,0,0,1,,,,,,,0,,,51,0
49896,note_on,,0,0,1,,,,,,,0,,,63,0
49896,note_on,,0,0,1,,,,,,,0,,,67,0
49896,note_on,,0,0,1,,,,,,,0,,,58,0
49896,note_on,,0,0,1,,,,,,,0,,,55,0
49896,note_on,,120,0,1,,,,,,,0,,,39,0
49920,control_change,,3840,0,2,,,,,7,112,1,,,,
49920,note_on,,0,0,1,,,,,,,0,,,39,100
49920,note_on,,0,0,1,,,,,,,0,,,51,100
49920,note_on,,0,0,1,,,,,,,0,,,63,100
49920,note_on,,0,0,1,,,,,,,0,,,58,100
49920,note_on,,24,0,1,,,,,,,0,,,55,100
49920,note_on,,0,0,1,,,,,,,0,,,67,100
50376,note_on,,0,0,1,,,,,,,0,,,55,0
50376,note_on,,0,0,1,,,,,,,0,,,58,0
50376,note_on,,0,0,1,,,,,,,0,,,67,0
50376,note_on,,0,0,1,,,,,,,0,,,63,0
50376,note_on,,0,0,1,,,,,,,0,,,51,0
50376,note_on,,456,0,1,,,,,,,0,,,39,0
50400,note_on,,24,0,1,,,,,,,0,,,55,100
50400,note_on,,0,0,1,,,,,,,0,,,58,100
50400,note_on,,0,0,1,,,,,,,0,,,67,100
50400,note_on,,0,0,1,,,,,,,0,,,63,100
50400,note_on,,0,0,1,,,,,,,0,,,51,100
50400,note_on,,0,0,1,,,,,,,0,,,39,100
50400,note_on,,480,0,2,,,,,,,1,,,67,100
50640,control_change,,240,0,2,,,,,7,113,1,,,,
50742,note_on,,102,0,2,,,,,,,1,,,67,0
50760,note_on,,18,0,2,,,,,,,1,,,67,100
50832,control_change,,72,0,2,,,,,7,114,1,,,,
50856,note_on,,0,0,1,,,,,,,0,,,67,0
50856,note_on,,0,0,1,,,,,,,0,,,58,0
50856,note_on,,0,0,1,,,,,,,0,,,55,0
50856,note_on,,0,0,1,,,,,,,0,,,63,0
50856,note_on,,0,0,1,,,,,,,0,,,51,0
50856,note_on,,456,0,1,,,,,,,0,,,39,0
50874,note_on,,42,0,2,,,,,,,1,,,67,0
50880,note_on,,0,0,1,,,,,,,0,,,51,100
50880,note_on,,24,0,1,,,,,,,0,,,55,100
50880,note_on,,0,0,1,,,,,,,0,,,58,100
50880,note_on,,0,0,1,,,,,,,0,,,67,100
50880,note_on,,0,0,1,,,,,,,0,,,63,100
50880,note_on,,6,0,2,,,,,,,1,,,66,100
50880,note_on,,0,0,1,,,,,,,0,,,39,100
51024,control_change,,144,0,2,,,,,7,115,1,,,,
51108,note_on,,84,0,2,,,,,,,1,,,66,0
51120,note_on,,12,0,2,,,,,,,1,,,67,100
51240,control_change,,120,0,2,,,,,7,116,1,,,,
51336,note_on,,0,0,1,,,,,,,0,,,51,0
51336,note_on,,0,0,1,,,,,,,0,,,63,0
51336,note_on,,456,0,1,,,,,,,0,,,39,0
51336,note_on,,0,0,1,,,,,,,0,,,58,0
51336,note_on,,0,0,1,,,,,,,0,,,55,0
51336,note_on,,0,0,1,,,,,,,0,,,67,0
51348,note_on,,108,0,2,,,,,,,1,,,67,0
51360,note_on,,24,0,1,,,,,,,0,,,55,100
51360,note_on,,0,0,1,,,,,,,0,,,51,100
51360,note_on,,0,0,1,,,,,,,0,,,39,100
51360,note_on,,12,0,2,,,,,,,1,,,72,100
51360,note_on,,0,0,1,,,,,,,0,,,63,100
51360,note_on,,0,0,1,,,,,,,0,,,58,100
51360,note_on,,0,0,1,,,,,,,0,,,67,100
51432,control_change,,72,0,2,,,,,7,117,1,,,,
51624,control_change,,192,0,2,,,,,7,118,1,,,,
51702,note_on,,78,0,2,,,,,,,1,,,72,0
51720,note_on,,18,0,2,,,,,,,1,,,70,100
51816,note_on,,0,0,1,,,,,,,0,,,58,0
51816,note_on,,0,0,1,,,,,,,0,,,67,0
51816,note_on,,0,0,1,,,,,,,0,,,51,0
51816,note_on,,456,0,1,,,,,,,0,,,39,0
51816,note_on,,0,0,1,,,,,,,0,,,55,0
51816,note_on,,0,0,1,,,,,,,0,,,63,0
51834,note_on,,114,0,2,,,,,,,1,,,70,0
51840,note_on,,24,0,1,,,,,,,0,,,58,100
51840,note_on,,0,0,1,,,,,,,0,,,65,100
51840,note_on,,0,0,1,,,,,,,0,,,50,100
51840,note_on,,0,0,1,,,,,,,0,,,38,100
51840,note_on,,0,0,2,,,,,,,1,,,70,100
51840,control_change,,6,0,2,,,,,7,119,1,,,,
51840,note_on,,0,0,1,,,,,,,0,,,68,100
51984,control_change,,144,0,2,,,,,7,118,1,,,,
52248,control_change,,264,0,2,,,,,7,117,1,,,,
52296,note_on,,0,0,1,,,,,,,0,,,68,0
52296,note_on,,456,0,1,,,,,,,0,,,38,0
52296,note_on,,0,0,1,,,,,,,0,,,50,0
52296,note_on,,0,0,1,,,,,,,0,,,65,0
52296,note_on,,0,0,1,,,,,,,0,,,58,0
52320,note_on,,0,0,1,,,,,,,0,,,38,100
52320,note_on,,0,0,1,,,,,,,0,,,50,100
52320,note_on,,0,0,1,,,,,,,0,,,65,100
52320,note_on,,0,0,1,,,,,,,0,,,68,100
52320,note_on,,24,0,1,,,,,,,0,,,58,100
52488,control_change,,240,0,2,,,,,7,116,1,,,,
52752,control_change,,264,0,2,,,,,7,115,1,,,,
52776,note_on,,0,0,1,,,,,,,0,,,50,0
52776,note_on,,456,0,1,,,,,,,0,,,38,0
52776,note_on,,0,0,1,,,,,,,0,,,58,0
52776,note_on,,24,0,2,,,,,,,1,,,70,0
52776,note_on,,0,0,1,,,,,,,0,,,65,0
52776,note_on,,0,0,1,,,,,,,0,,,68,0
52800,note_on,,24,0,1,,,,,,,0,,,58,100
52800,note_on,,0,0,1,,,,,,,0,,,68,100
52800,note_on,,0,0,1,,,,,,,0,,,65,100
52800,note_on,,0,0,1,,,,,,,0,,,38,100
52800,note_on,,0,0,1,,,,,,,0,,,50,100
52800,note_on,,24,0,2,,,,,,,1,,,65,100
53016,control_change,,216,0,2,,,,,7,114,1,,,,
53256,control_change,,240,0,2,,,,,7,113,1,,,,
53256,note_on,,456,0,1,,,,,,,0,,,38,0
53256,note_on,,0,0,1,,,,,,,0,,,50,0
53256,note_on,,0,0,1,,,,,,,0,,,65,0
53256,note_on,,0,0,1,,,,,,,0,,,68,0
53256,note_on,,0,0,1,,,,,,,0,,,58,0
53280,note_on,,0,0,1,,,,,,,0,,,38,100
53280,note_on,,0,0,1,,,,,,,0,,,50,100
53280,note_on,,24,0,1,,,,,,,0,,,58,100
53280,note_on,,0,0,1,,,,,,,0,,,68,100
53280,note_on,,0,0,1,,,,,,,0,,,65,100
53520,control_change,,264,0,2,,,,,7,112,1,,,,
53736,note_on,,216,0,2,,,,,,,1,,,65,0
53736,note_on,,456,0,1,,,,,,,0,,,38,0
53736,note_on,,0,0,1,,,,,,,0,,,50,0
53736,note_on,,0,0,1,,,,,,,0,,,65,0
53736,note_on,,0,0,1,,,,,,,0,,,68,0
53736,note_on,,0,0,1,,,,,,,0,,,58,0
53760,note_on,,24,0,1,,,,,,,0,,,58,100
53760,note_on,,0,0,1,,,,,,,0,,,67,100
53760,note_on,,0,0,1,,,,,,,0,,,63,100
53760,note_on,,0,0,1,,,,,,,0,,,51,100
53760,note_on,,0,0,1,,,,,,,0,,,39,100
54216,note_on,,456,0,1,,,,,,,0,,,39,0
54216,note_on,,0,0,1,,,,,,,0,,,51,0
54216,note_on,,0,0,1,,,,,,,0,,,63,0
54216,note_on,,0,0,1,,,,,,,0,,,58,0
54216,note_on,,0,0,1,,,,,,,0,,,67,0
54240,note_on,,0,0,1,,,,,,,0,,,31,100
54240,note_on,,504,0,2,,,,,,,1,,,67,100
54240,note_on,,24,0,1,,,,,,,0,,,58,100
54240,note_on,,0,0,1,,,,,,,0,,,67,100
54240,note_on,,0,0,1,,,,,,,0,,,63,100
54240,note_on,,0,0,1,,,,,,,0,,,43,100
54408,control_change,,168,0,1,,,,,7,69,0,,,,
54582,note_on,,342,0,2,,,,,,,1,,,67,0
54600,note_on,,18,0,2,,,,,,,1,,,67,100
54696,note_on,,288,0,1,,,,,,,0,,,31,0
54696,note_on,,0,0,1,,,,,,,0,,,63,0
54696,note_on,,0,0,1,,,,,,,0,,,58,0
54696,note_on,,0,0,1,,,,,,,0,,,43,0
54696,note_on,,0,0,1,,,,,,,0,,,67,0
54714,note_on,,114,0,2,,,,,,,1,,,67,0
54720,note_on,,0,0,1,,,,,,,0,,,67,100
54720,note_on,,0,0,1,,,,,,,0,,,63,100
54720,note_on,,0,0,1,,,,,,,0,,,44,100
54720,note_on,,0,0,1,,,,,,,0,,,32,100
54720,note_on,,6,0,2,,,,,,,1,,,68,100
54720,note_on,,24,0,1,,,,,,,0,,,60,100
54744,control_change,,24,0,1,,,,,7,70,0,,,,
54948,note_on,,228,0,2,,,,,,,1,,,68,0
54960,note_on,,12,0,2,,,,,,,1,,,67,100
55056,control_change,,312,0,1,,,,,7,71,0,,,,
55176,note_on,,0,0,1,,,,,,,0,,,44,0
55176,note_on,,0,0,1,,,,,,,0,,,63,0
55176,note_on,,0,0,1,,,,,,,0,,,67,0
55176,note_on,,0,0,1,,,,,,,0,,,60,0
55176,note_on,,120,0,1,,,,,,,0,,,32,0
55188,note_on,,228,0,2,,,,,,,1,,,67,0
55200,note_on,,12,0,2,,,,,,,1,,,65,100
55200,note_on,,0,0,1,,,,,,,0,,,67,100
55200,note_on,,24,0,1,,,,,,,0,,,60,100
55200,note_on,,0,0,1,,,,,,,0,,,33,100
55200,note_on,,0,0,1,,,,,,,0,,,63,100
55200,note_on,,0,0,1,,,,,,,0,,,45,100
55392,control_change,,192,0,1,,,,,7,72,0,,,,
55542,note_on,,342,0,2,,,,,,,1,,,65,0
55560,note_on,,18,0,2,,,,,,,1,,,63,100
55656,note_on,,0,0,1,,,,,,,0,,,63,0
55656,note_on,,264,0,1,,,,,,,0,,,33,0
55656,note_on,,0,0,1,,,,,,,0,,,60,0
55656,note_on,,0,0,1,,,,,,,0,,,67,0
55656,note_on,,0,0,1,,,,,,,0,,,45,0
55674,note_on,,114,0,2,,,,,,,1,,,63,0
55680,note_on,,6,0,2,,,,,,,1,,,67,100
55680,note_on,,0,0,1,,,,,,,0,,,34,100
55680,note_on,,24,0,1,,,,,,,0,,,46,100
55680,note_on,,0,0,1,,,,,,,0,,,58,100
55680,note_on,,0,0,1,,,,,,,0,,,67,100
55680,note_on,,0,0,1,,,,,,,0,,,63,100
55728,control_change,,48,0,1,,,,,7,73,0,,,,
56040,control_change,,312,0,1,,,,,7,74,0,,,,
56136,note_on,,0,0,1,,,,,,,0,,,67,0
56136,note_on,,96,0,1,,,,,,,0,,,63,0
56136,note_on,,0,0,1,,,,,,,0,,,34,0
56136,note_on,,0,0,1,,,,,,,0,,,58,0
56136,note_on,,0,0,1,,,,,,,0,,,46,0
56160,note_on,,0,0,1,,,,,,,0,,,67,100
56160,note_on,,0,0,1,,,,,,,0,,,63,100
56160,note_on,,0,0,1,,,,,,,0,,,60,100
56160,note_on,,0,0,1,,,,,,,0,,,33,100
56160,note_on,,24,0,1,,,,,,,0,,,45,100
56376,control_change,,216,0,1,,,,,7,75,0,,,,
56616,note_on,,0,0,1,,,,,,,0,,,45,0
56616,note_on,,0,0,1,,,,,,,0,,,33,0
56616,note_on,,0,0,1,,,,,,,0,,,60,0
56616,note_on,,0,0,1,,,,,,,0,,,67,0
56616,note_on,,240,0,1,,,,,,,0,,,63,0
56616,note_on,,936,0,2,,,,,,,1,,,67,0
56640,note_on,,24,0,1,,,,,,,0,,,46,100
56640,note_on,,0,0,1,,,,,,,0,,,34,100
56640,note_on,,0,0,1,,,,,,,0,,,65,100
56640,note_on,,0,0,1,,,,,,,0,,,62,100
56640,note_on,,24,0,2,,,,,,,1,,,65,100
57096,note_on,,0,0,1,,,,,,,0,,,46,0
57096,note_on,,0,0,1,,,,,,,0,,,34,0
57096,note_on,,0,0,1,,,,,,,0,,,65,0
57096,note_on,,456,0,1,,,,,,,0,,,62,0
57120,note_on,,0,0,1,,,,,,,0,,,62,100
57120,note_on,,0,0,1,,,,,,,0,,,65,100
57120,note_on,,0,0,1,,,,,,,0,,,56,100
57120,note_on,,0,0,1,,,,,,,0,,,34,100
57120,note_on,,24,0,1,,,,,,,0,,,46,100
57576,note_on,,0,0,1,,,,,,,0,,,46,0
57576,note_on,,0,0,1,,,,,,,0,,,34,0
57576,note_on,,0,0,1,,,,,,,0,,,56,0
57576,note_on,,0,0,1,,,,,,,0,,,65,0
57576,note_on,,456,0,1,,,,,,,0,,,62,0
57576,note_on,,936,0,2,,,,,,,1,,,65,0
57600,note_on,,0,0,1,,,,,,,0,,,58,100
57600,note_on,,0,0,1,,,,,,,0,,,61,100
57600,note_on,,0,0,1,,,,,,,0,,,67,100
57600,note_on,,0,0,1,,,,,,,0,,,39,100
57600,note_on,,24,0,1,,,,,,,0,,,51,100
58056,note_on,,0,0,1,,,,,,,0,,,67,0
58056,note_on,,456,0,1,,,,,,,0,,,61,0
58056,note_on,,0,0,1,,,,,,,0,,,51,0
58056,note_on,,0,0,1,,,,,,,0,,,58,0
58056,note_on,,0,0,1,,,,,,,0,,,39,0
58080,note_on,,24,0,1,,,,,,,0,,,67,100
58080,note_on,,504,0,2,,,,,,,1,,,67,100
58080,note_on,,0,0,1,,,,,,,0,,,61,100
58080,note_on,,0,0,1,,,,,,,0,,,58,100
58080,note_on,,0,0,1,,,,,,,0,,,51,100
58422,note_on,,342,0,2,,,,,,,1,,,67,0
58440,note_on,,18,0,2,,,,,,,1,,,67,100
58536,note_on,,0,0,1,,,,,,,0,,,67,0
58536,note_on,,456,0,1,,,,,,,0,,,51,0
58536,note_on,,0,0,1,,,,,,,0,,,58,0
58536,note_on,,0,0,1,,,,,,,0,,,61,0
58554,note_on,,114,0,2,,,,,,,1,,,67,0
58560,note_on,,0,0,1,,,,,,,0,,,58,100
58560,note_on,,6,0,2,,,,,,,1,,,68,100
58560,note_on,,0,0,1,,,,,,,0,,,51,100
58560,note_on,,0,0,1,,,,,,,0,,,61,100
58560,note_on,,24,0,1,,,,,,,0,,,67,100
58902,note_on,,342,0,2,,,,,,,1,,,68,0
58920,note_on,,18,0,2,,,,,,,1,,,67,100
59016,note_on,,0,0,1,,,,,,,0,,,67,0
59016,note_on,,0,0,1,,,,,,,0,,,61,0
59016,note_on,,0,0,1,,,,,,,0,,,58,0
59016,note_on,,456,0,1,,,,,,,0,,,51,0
59034,note_on,,114,0,2,,,,,,,1,,,67,0
59040,note_on,,0,0,1,,,,,,,0,,,58,100
59040,note_on,,6,0,2,,,,,,,1,,,65,100
59040,note_on,,24,0,1,,,,,,,0,,,67,100
59040,note_on,,0,0,1,,,,,,,0,,,61,100
59040,note_on,,0,0,1,,,,,,,0,,,51,100
59382,note_on,,342,0,2,,,,,,,1,,,65,0
59400,note_on,,18,0,2,,,,,,,1,,,63,100
59496,note_on,,456,0,1,,,,,,,0,,,51,0
59496,note_on,,0,0,1,,,,,,,0,,,58,0
59496,note_on,,0,0,1,,,,,,,0,,,61,0
59496,note_on,,0,0,1,,,,,,,0,,,67,0
59514,note_on,,114,0,2,,,,,,,1,,,63,0
59520,note_on,,0,0,1,,,,,,,0,,,68,100
59520,note_on,,6,0,2,,,,,,,1,,,75,100
59520,note_on,,0,0,1,,,,,,,0,,,44,100
59520,note_on,,0,0,1,,,,,,,0,,,56,100
59520,note_on,,24,0,1,,,,,,,0,,,60,100
59520,note_on,,0,0,1,,,,,,,0,,,72,100
59520,note_on,,0,0,1,,,,,,,0,,,63,100
59976,note_on,,456,0,1,,,,,,,0,,,68,0
59976,note_on,,0,0,1,,,,,,,0,,,44,0
59976,note_on,,0,0,1,,,,,,,0,,,56,0
59976,note_on,,0,0,1,,,,,,,0,,,63,0
59976,note_on,,0,0,1,,,,,,,0,,,72,0
59976,note_on,,0,0,1,,,,,,,0,,,60,0
60000,note_on,,0,0,1,,,,,,,0,,,56,100
60000,note_on,,0,0,1,,,,,,,0,,,44,100
60000,note_on,,0,0,1,,,,,,,0,,,68,100
60000,note_on,,0,0,1,,,,,,,0,,,72,100
60000,note_on,,24,0,1,,,,,,,0,,,60,100
60000,note_on,,0,0,1,,,,,,,0,,,63,100
60342,note_on,,342,0,1,,,,,,,0,,,44,0
60342,note_on,,0,0,1,,,,,,,0,,,56,0
60342,note_on,,0,0,1,,,,,,,0,,,68,0
60342,note_on,,0,0,1,,,,,,,0,,,63,0
60342,note_on,,0,0,1,,,,,,,0,,,72,0
60342,note_on,,0,0,1,,,,,,,0,,,60,0
60360,note_on,,0,0,1,,,,,,,0,,,56,100
60360,note_on,,0,0,1,,,,,,,0,,,44,100
60360,note_on,,0,0,1,,,,,,,0,,,68,100
60360,note_on,,0,0,1,,,,,,,0,,,63,100
60360,note_on,,0,0,1,,,,,,,0,,,72,100
60360,note_on,,18,0,1,,,,,,,0,,,60,100
60474,note_on,,114,0,1,,,,,,,0,,,44,0
60474,note_on,,0,0,1,,,,,,,0,,,56,0
60474,note_on,,0,0,1,,,,,,,0,,,68,0
60474,note_on,,0,0,1,,,,,,,0,,,63,0
60474,note_on,,0,0,1,,,,,,,0,,,72,0
60474,note_on,,0,0,1,,,,,,,0,,,60,0
60480,note_on,,0,0,1,,,,,,,0,,,63,100
60480,note_on,,0,0,1,,,,,,,0,,,68,100
60480,note_on,,6,0,1,,,,,,,0,,,60,100
60480,note_on,,0,0,1,,,,,,,0,,,72,100
60480,note_on,,0,0,1,,,,,,,0,,,56,100
60480,note_on,,0,0,1,,,,,,,0,,,44,100
60708,note_on,,1188,0,2,,,,,,,1,,,75,0
60720,note_on,,12,0,2,,,,,,,1,,,77,100
60834,note_on,,114,0,2,,,,,,,1,,,77,0
60840,note_on,,6,0,2,,,,,,,1,,,75,100
60936,note_on,,0,0,1,,,,,,,0,,,63,0
60936,note_on,,456,0,1,,,,,,,0,,,44,0
60936,note_on,,0,0,1,,,,,,,0,,,56,0
60936,note_on,,0,0,1,,,,,,,0,,,60,0
60936,note_on,,0,0,1,,,,,,,0,,,72,0
60936,note_on,,0,0,1,,,,,,,0,,,68,0
60954,note_on,,114,0,2,,,,,,,1,,,75,0
60960,note_on,,6,0,2,,,,,,,1,,,74,100
60960,note_on,,0,0,1,,,,,,,0,,,66,100
60960,note_on,,24,0,1,,,,,,,0,,,45,100
60960,note_on,,0,0,1,,,,,,,0,,,33,100
60960,note_on,,0,0,1,,,,,,,0,,,60,100
60960,note_on,,0,0,1,,,,,,,0,,,63,100
61302,note_on,,342,0,2,,,,,,,1,,,74,0
61320,note_on,,18,0,2,,,,,,,1,,,72,100
61416,note_on,,456,0,1,,,,,,,0,,,66,0
61416,note_on,,0,0,1,,,,,,,0,,,63,0
61416,note_on,,0,0,1,,,,,,,0,,,60,0
61416,note_on,,0,0,1,,,,,,,0,,,45,0
61416,note_on,,0,0,1,,,,,,,0,,,33,0
61434,note_on,,114,0,2,,,,,,,1,,,72,0
61440,note_on,,6,0,2,,,,,,,1,,,72,100
61440,note_on,,0,0,1,,,,,,,0,,,67,100
61440,note_on,,0,0,1,,,,,,,0,,,63,100
61440,note_on,,0,0,1,,,,,,,0,,,58,100
61440,note_on,,0,0,1,,,,,,,0,,,34,100
61440,note_on,,24,0,1,,,,,,,0,,,46,100
61782,note_on,,342,0,2,,,,,,,1,,,72,0
61800,note_on,,18,0,2,,,,,,,1,,,70,100
61896,note_on,,0,0,1,,,,,,,0,,,46,0
61896,note_on,,0,0,1,,,,,,,0,,,34,0
61896,note_on,,0,0,1,,,,,,,0,,,58,0
61896,note_on,,456,0,1,,,,,,,0,,,67,0
61896,note_on,,0,0,1,,,,,,,0,,,63,0
61914,note_on,,114,0,2,,,,,,,1,,,70,0
61920,note_on,,0,0,1,,,,,,,0,,,61,100
61920,note_on,,0,0,1,,,,,,,0,,,67,100
61920,note_on,,0,0,1,,,,,,,0,,,58,100
61920,note_on,,0,0,1,,,,,,,0,,,52,100
61920,note_on,,24,0,1,,,,,,,0,,,46,100
61920,note_on,,6,0,2,,,,,,,1,,,72,100
62262,note_on,,342,0,2,,,,,,,1,,,72,0
62280,note_on,,18,0,2,,,,,,,1,,,70,100
62376,note_on,,0,0,1,,,,,,,0,,,58,0
62376,note_on,,0,0,1,,,,,,,0,,,52,0
62376,note_on,,0,0,1,,,,,,,0,,,46,0
62376,note_on,,0,0,1,,,,,,,0,,,61,0
62376,note_on,,456,0,1,,,,,,,0,,,67,0
62394,note_on,,114,0,2,,,,,,,1,,,70,0
62400,note_on,,0,0,1,,,,,,,0,,,53,100
62400,note_on,,24,0,1,,,,,,,0,,,46,100
62400,note_on,,0,0,1,,,,,,,0,,,58,100
62400,note_on,,0,0,1,,,,,,,0,,,62,100
62400,note_on,,0,0,1,,,,,,,0,,,68,100
62400,note_on,,6,0,2,,,,,,,1,,,72,100
62742,note_on,,342,0,2,,,,,,,1,,,72,0
62760,note_on,,18,0,2,,,,,,,1,,,70,100
62856,note_on,,0,0,1,,,,,,,0,,,53,0
62856,note_on,,0,0,1,,,,,,,0,,,62,0
62856,note_on,,0,0,1,,,,,,,0,,,46,0
62856,note_on,,456,0,1,,,,,,,0,,,68,0
62856,note_on,,0,0,1,,,,,,,0,,,58,0
62874,note_on,,114,0,2,,,,,,,1,,,70,0
62880,note_on,,0,0,1,,,,,,,0,,,58,100
62880,note_on,,0,0,1,,,,,,,0,,,34,100
62880,note_on,,24,0,1,,,,,,,0,,,46,100
62880,note_on,,6,0,2,,,,,,,1,,,68,100
62880,note_on,,0,0,1,,,,,,,0,,,68,100
62880,note_on,,0,0,1,,,,,,,0,,,62,100
63222,note_on,,342,0,2,,,,,,,1,,,68,0
63240,note_on,,18,0,2,,,,,,,1,,,62,100
63336,note_on,,0,0,1,,,,,,,0,,,58,0
63336,note_on,,0,0,1,,,,,,,0,,,46,0
63336,note_on,,456,0,1,,,,,,,0,,,68,0
63336,note_on,,0,0,1,,,,,,,0,,,34,0
63336,note_on,,0,0,1,,,,,,,0,,,62,0
63354,note_on,,114,0,2,,,,,,,1,,,62,0
63360,note_on,,0,0,1,,,,,,,0,,,56,100
63360,note_on,,0,0,1,,,,,,,0,,,34,100
63360,note_on,,0,0,1,,,,,,,0,,,62,100
63360,note_on,,24,0,1,,,,,,,0,,,46,100
63360,note_on,,6,0,2,,,,,,,1,,,65,100
63432,control_change,,72,0,2,,,,,7,111,1,,,,
63528,control_change,,96,0,2,,,,,7,110,1,,,,
63624,control_change,,96,0,2,,,,,7,109,1,,,,
63720,control_change,,96,0,2,,,,,7,108,1,,,,
63816,note_on,,456,0,1,,,,,,,0,,,62,0
63816,note_on,,0,0,1,,,,,,,0,,,56,0
63816,note_on,,0,0,1,,,,,,,0,,,34,0
63816,note_on,,0,0,1,,,,,,,0,,,46,0
63840,note_on,,0,0,1,,,,,,,0,,,62,100
63840,note_on,,0,0,1,,,,,,,0,,,56,100
63840,note_on,,0,0,1,,,,,,,0,,,53,100
63840,note_on,,24,0,1,,,,,,,0,,,46,100
63840,control_change,,120,0,2,,,,,7,107,1,,,,
63936,control_change,,96,0,2,,,,,7,106,1,,,,
64032,control_change,,96,0,2,,,,,7,105,1,,,,
64068,note_on,,0,0,1,,,,,,,0,,,56,0
64068,note_on,,228,0,1,,,,,,,0,,,62,0
64080,note_on,,0,0,1,,,,,,,0,,,62,100
64080,note_on,,12,0,1,,,,,,,0,,,56,100
64152,control_change,,120,0,2,,,,,7,104,1,,,,
64194,note_on,,0,0,1,,,,,,,0,,,56,0
64194,note_on,,114,0,1,,,,,,,0,,,62,0
64200,note_on,,6,0,1,,,,,,,0,,,62,100
64200,note_on,,0,0,1,,,,,,,0,,,56,100
64248,control_change,,96,0,2,,,,,7,103,1,,,,
64296,note_on,,48,0,2,,,,,,,1,,,65,0
64296,note_on,,0,0,1,,,,,,,0,,,46,0
64296,note_on,,96,0,1,,,,,,,0,,,53,0
64314,note_on,,0,0,1,,,,,,,0,,,62,0
64314,note_on,,18,0,1,,,,,,,0,,,56,0
64320,note_on,,0,0,1,,,,,,,0,,,63,100
64320,note_on,,0,0,1,,,,,,,0,,,51,100
64320,note_on,,6,0,1,,,,,,,0,,,39,100
64320,note_on,,0,0,1,,,,,,,0,,,55,100
64320,note_on,,24,0,2,,,,,,,1,,,63,100
64344,control_change,,24,0,2,,,,,7,102,1,,,,
64440,control_change,,96,0,2,,,,,7,101,1,,,,
64560,control_change,,120,0,2,,,,,7,100,1,,,,
64656,control_change,,96,0,2,,,,,7,99,1,,,,
64752,control_change,,96,0,2,,,,,7,98,1,,,,
64776,note_on,,456,0,1,,,,,,,0,,,55,0
64776,note_on,,24,0,2,,,,,,,1,,,63,0
64776,note_on,,0,0,1,,,,,,,0,,,39,0
64776,note_on,,0,0,1,,,,,,,0,,,63,0
64776,note_on,,0,0,1,,,,,,,0,,,51,0
64800,note_on,,0,0,1,,,,,,,0,,,51,100
64800,note_on,,0,0,1,,,,,,,0,,,63,100
64800,note_on,,0,0,1,,,,,,,0,,,39,100
64800,note_on,,24,0,1,,,,,,,0,,,51,100
65256,note_on,,456,0,1,,,,,,,0,,,51,0
65256,note_on,,0,0,1,,,,,,,0,,,63,0
65256,note_on,,0,0,1,,,,,,,0,,,39,0
65256,note_on,,0,0,1,,,,,,,0,,,51,0
65280,note_on,,0,0,1,,,,,,,0,,,63,100
65280,note_on,,0,0,1,,,,,,,0,,,51,100
65280,note_on,,0,0,1,,,,,,,0,,,49,100
65280,note_on,,0,0,1,,,,,,,0,,,37,100
65280,key_signature,,0,1,1,,,,,,,,,Gb,,
65280,note_on,,0,0,2,,,,,,,1,,,63,100
65280,key_signature,,504,1,2,,,,,,,,,Gb,,
65280,set_tempo,857089,19200,1,0,,,,,,,,,,,
65280,key_signature,,24,1,1,,,,,,,,,Gb,,
65736,note_on,,0,0,1,,,,,,,0,,,51,0
65736,note_on,,456,0,2,,,,,,,1,,,63,0
65736,note_on,,456,0,1,,,,,,,0,,,37,0
65736,note_on,,0,0,1,,,,,,,0,,,63,0
65736,note_on,,0,0,1,,,,,,,0,,,49,0
65760,note_on,,24,0,2,,,,,,,1,,,63,100
65760,note_on,,0,0,1,,,,,,,0,,,35,100
65760,note_on,,0,0,1,,,,,,,0,,,47,100
65760,note_on,,0,0,1,,,,,,,0,,,51,100
65760,note_on,,24,0,1,,,,,,,0,,,63,100
65988,note_on,,0,0,1,,,,,,,0,,,47,0
65988,note_on,,228,0,1,,,,,,,0,,,35,0
66000,note_on,,0,0,1,,,,,,,0,,,46,100
66000,note_on,,12,0,1,,,,,,,0,,,34,100
66216,note_on,,456,0,2,,,,,,,1,,,63,0
66216,note_on,,0,0,1,,,,,,,0,,,63,0
66216,note_on,,216,0,1,,,,,,,0,,,51,0
66228,note_on,,0,0,1,,,,,,,0,,,34,0
66228,note_on,,12,0,1,,,,,,,0,,,46,0
66240,note_on,,0,0,1,,,,,,,0,,,35,100
66240,note_on,,12,0,1,,,,,,,0,,,63,100
66240,note_on,,0,0,1,,,,,,,0,,,51,100
66240,note_on,,24,0,2,,,,,,,1,,,63,100
66240,note_on,,0,0,1,,,,,,,0,,,47,100
66696,note_on,,456,0,1,,,,,,,0,,,35,0
66696,note_on,,0,0,1,,,,,,,0,,,47,0
66696,note_on,,0,0,1,,,,,,,0,,,51,0
66696,note_on,,456,0,2,,,,,,,1,,,63,0
66696,note_on,,0,0,1,,,,,,,0,,,63,0
66720,note_on,,24,0,1,,,,,,,0,,,63,100
66720,note_on,,0,0,1,,,,,,,0,,,51,100
66720,note_on,,0,0,1,,,,,,,0,,,46,100
66720,note_on,,0,0,1,,,,,,,0,,,34,100
66720,note_on,,24,0,2,,,,,,,1,,,63,100
66948,note_on,,228,0,1,,,,,,,0,,,34,0
66948,note_on,,0,0,1,,,,,,,0,,,46,0
66960,note_on,,12,0,1,,,,,,,0,,,32,100
66960,note_on,,0,0,1,,,,,,,0,,,44,100
67176,note_on,,0,0,1,,,,,,,0,,,63,0
67176,note_on,,456,0,2,,,,,,,1,,,63,0
67176,note_on,,216,0,1,,,,,,,0,,,51,0
67188,note_on,,12,0,1,,,,,,,0,,,44,0
67188,note_on,,0,0,1,,,,,,,0,,,32,0
67200,note_on,,0,0,1,,,,,,,0,,,51,100
67200,note_on,,0,0,1,,,,,,,0,,,63,100
67200,note_on,,0,0,1,,,,,,,0,,,31,100
67200,note_on,,12,0,1,,,,,,,0,,,43,100
67200,note_on,,24,0,2,,,,,,,1,,,63,100
67656,note_on,,0,0,1,,,,,,,0,,,63,0
67656,note_on,,456,0,1,,,,,,,0,,,51,0
67680,note_on,,24,0,1,,,,,,,0,,,63,100
67680,note_on,,0,0,1,,,,,,,0,,,51,100
67908,note_on,,228,0,1,,,,,,,0,,,31,0
67908,note_on,,0,0,1,,,,,,,0,,,43,0
67920,note_on,,12,0,1,,,,,,,0,,,46,100
67920,note_on,,0,0,1,,,,,,,0,,,34,100
68136,note_on,,936,0,2,,,,,,,1,,,63,0
68136,note_on,,216,0,1,,,,,,,0,,,51,0
68136,note_on,,0,0,1,,,,,,,0,,,63,0
68148,note_on,,12,0,1,,,,,,,0,,,34,0
68148,note_on,,0,0,1,,,,,,,0,,,46,0
68160,note_on,,0,0,1,,,,,,,0,,,63,100
68160,note_on,,24,0,2,,,,,,,1,,,63,100
68160,note_on,,0,0,1,,,,,,,0,,,27,100
68160,note_on,,12,0,1,,,,,,,0,,,39,100
68160,note_on,,0,0,1,,,,,,,0,,,51,100
68616,note_on,,456,0,2,,,,,,,1,,,63,0
68616,note_on,,0,0,1,,,,,,,0,,,63,0
68616,note_on,,0,0,1,,,,,,,0,,,27,0
68616,note_on,,456,0,1,,,,,,,0,,,51,0
68616,note_on,,0,0,1,,,,,,,0,,,39,0
68640,note_on,,24,0,1,,,,,,,0,,,63,100
68640,note_on,,0,0,1,,,,,,,0,,,51,100
69096,note_on,,456,0,1,,,,,,,0,,,51,0
69096,note_on,,0,0,1,,,,,,,0,,,63,0
69120,note_on,,504,0,2,,,,,,,1,,,63,100
69120,note_on,,0,0,1,,,,,,,0,,,49,100
69120,note_on,,0,0,1,,,,,,,0,,,37,100
69120,note_on,,0,0,1,,,,,,,0,,,51,100
69120,note_on,,24,0,1,,,,,,,0,,,63,100
69576,note_on,,456,0,1,,,,,,,0,,,37,0
69576,note_on,,0,0,1,,,,,,,0,,,49,0
69576,note_on,,0,0,1,,,,,,,0,,,51,0
69576,note_on,,0,0,1,,,,,,,0,,,63,0
69576,note_on,,456,0,2,,,,,,,1,,,63,0
69600,note_on,,0,0,1,,,,,,,0,,,51,100
69600,note_on,,24,0,2,,,,,,,1,,,63,100
69600,note_on,,0,0,1,,,,,,,0,,,47,100
69600,note_on,,0,0,1,,,,,,,0,,,35,100
69600,note_on,,24,0,1,,,,,,,0,,,63,100
69828,note_on,,228,0,1,,,,,,,0,,,35,0
69828,note_on,,0,0,1,,,,,,,0,,,47,0
69840,note_on,,12,0,1,,,,,,,0,,,34,100
69840,note_on,,0,0,1,,,,,,,0,,,46,100
70056,note_on,,456,0,2,,,,,,,1,,,63,0
70056,note_on,,216,0,1,,,,,,,0,,,51,0
70056,note_on,,0,0,1,,,,,,,0,,,63,0
70068,note_on,,12,0,1,,,,,,,0,,,46,0
70068,note_on,,0,0,1,,,,,,,0,,,34,0
70080,note_on,,12,0,1,,,,,,,0,,,63,100
70080,note_on,,0,0,1,,,,,,,0,,,51,100
70080,note_on,,0,0,1,,,,,,,0,,,47,100
70080,note_on,,0,0,1,,,,,,,0,,,35,100
70080,note_on,,24,0,2,,,,,,,1,,,63,100
70536,note_on,,0,0,1,,,,,,,0,,,63,0
70536,note_on,,456,0,2,,,,,,,1,,,63,0
70536,note_on,,0,0,1,,,,,,,0,,,47,0
70536,note_on,,456,0,1,,,,,,,0,,,35,0
70536,note_on,,0,0,1,,,,,,,0,,,51,0
70560,note_on,,24,0,2,,,,,,,1,,,63,100
70560,note_on,,0,0,1,,,,,,,0,,,34,100
70560,note_on,,0,0,1,,,,,,,0,,,51,100
70560,note_on,,24,0,1,,,,,,,0,,,63,100
70560,note_on,,0,0,1,,,,,,,0,,,46,100
70788,note_on,,228,0,1,,,,,,,0,,,34,0
70788,note_on,,0,0,1,,,,,,,0,,,46,0
70800,note_on,,12,0,1,,,,,,,0,,,32,100
70800,note_on,,0,0,1,,,,,,,0,,,44,100
71016,note_on,,216,0,1,,,,,,,0,,,51,0
71016,note_on,,0,0,1,,,,,,,0,,,63,0
71016,note_on,,456,0,2,,,,,,,1,,,63,0
71028,note_on,,12,0,1,,,,,,,0,,,44,0
71028,note_on,,0,0,1,,,,,,,0,,,32,0
71040,note_on,,0,0,1,,,,,,,0,,,34,100
71040,note_on,,24,0,2,,,,,,,1,,,63,100
71040,note_on,,12,0,1,,,,,,,0,,,63,100
71040,note_on,,0,0,1,,,,,,,0,,,46,100
71040,note_on,,0,0,1,,,,,,,0,,,51,100
71496,note_on,,456,0,1,,,,,,,0,,,51,0
71496,note_on,,0,0,1,,,,,,,0,,,63,0
71520,note_on,,0,0,1,,,,,,,0,,,51,100
71520,note_on,,24,0,1,,,,,,,0,,,63,100
71976,note_on,,0,0,1,,,,,,,0,,,34,0
71976,note_on,,456,0,1,,,,,,,0,,,51,0
71976,note_on,,936,0,2,,,,,,,1,,,63,0
71976,note_on,,0,0,1,,,,,,,0,,,46,0
71976,note_on,,0,0,1,,,,,,,0,,,63,0
72000,note_on,,24,0,2,,,,,,,1,,,63,100
72000,note_on,,24,0,1,,,,,,,0,,,63,100
72000,note_on,,0,0,1,,,,,,,0,,,27,100
72000,note_on,,0,0,1,,,,,,,0,,,39,100
72000,note_on,,0,0,1,,,,,,,0,,,51,100
72456,note_on,,456,0,2,,,,,,,1,,,63,0
72456,note_on,,0,0,1,,,,,,,0,,,63,0
72456,note_on,,456,0,1,,,,,,,0,,,51,0
72480,note_on,,24,0,1,,,,,,,0,,,63,100
72480,note_on,,0,0,1,,,,,,,0,,,51,100
72936,note_on,,456,0,1,,,,,,,0,,,51,0
72936,note_on,,0,0,1,,,,,,,0,,,63,0
72936,note_on,,0,0,1,,,,,,,0,,,39,0
72936,note_on,,0,0,1,,,,,,,0,,,27,0
72960,note_on,,504,0,2,,,,,,,1,,,63,100
72960,note_on,,0,0,1,,,,,,,0,,,37,100
72960,note_on,,0,0,1,,,,,,,0,,,49,100
72960,note_on,,0,0,1,,,,,,,0,,,51,100
72960,note_on,,24,0,1,,,,,,,0,,,63,100
73416,note_on,,0,0,1,,,,,,,0,,,51,0
73416,note_on,,456,0,2,,,,,,,1,,,63,0
73416,note_on,,0,0,1,,,,,,,0,,,49,0
73416,note_on,,456,0,1,,,,,,,0,,,37,0
73416,note_on,,0,0,1,,,,,,,0,,,63,0
73440,note_on,,24,0,2,,,,,,,1,,,63,100
73440,note_on,,0,0,1,,,,,,,0,,,47,100
73440,note_on,,0,0,1,,,,,,,0,,,51,100
73440,note_on,,0,0,1,,,,,,,0,,,35,100
73440,note_on,,24,0,1,,,,,,,0,,,63,100
73668,note_on,,0,0,1,,,,,,,0,,,47,0
73668,note_on,,228,0,1,,,,,,,0,,,35,0
73680,note_on,,0,0,1,,,,,,,0,,,46,100
73680,note_on,,12,0,1,,,,,,,0,,,34,100
73896,note_on,,456,0,2,,,,,,,1,,,63,0
73896,note_on,,0,0,1,,,,,,,0,,,63,0
73896,note_on,,216,0,1,,,,,,,0,,,51,0
73908,note_on,,12,0,1,,,,,,,0,,,46,0
73908,note_on,,0,0,1,,,,,,,0,,,34,0
73920,note_on,,0,0,1,,,,,,,0,,,35,100
73920,note_on,,0,0,1,,,,,,,0,,,47,100
73920,note_on,,0,0,1,,,,,,,0,,,51,100
73920,note_on,,24,0,2,,,,,,,1,,,63,100
73920,note_on,,12,0,1,,,,,,,0,,,63,100
74376,note_on,,0,0,1,,,,,,,0,,,63,0
74376,note_on,,0,0,1,,,,,,,0,,,51,0
74376,note_on,,0,0,1,,,,,,,0,,,47,0
74376,note_on,,456,0,1,,,,,,,0,,,35,0
74376,note_on,,456,0,2,,,,,,,1,,,63,0
74400,note_on,,0,0,1,,,,,,,0,,,46,100
74400,note_on,,24,0,2,,,,,,,1,,,63,100
74400,note_on,,0,0,1,,,,,,,0,,,51,100
74400,note_on,,24,0,1,,,,,,,0,,,63,100
74400,note_on,,0,0,1,,,,,,,0,,,34,100
74628,note_on,,228,0,1,,,,,,,0,,,34,0
74628,note_on,,0,0,1,,,,,,,0,,,46,0
74640,note_on,,12,0,1,,,,,,,0,,,32,100
74640,note_on,,0,0,1,,,,,,,0,,,44,100
74856,note_on,,216,0,1,,,,,,,0,,,51,0
74856,note_on,,0,0,1,,,,,,,0,,,63,0
74856,note_on,,456,0,2,,,,,,,1,,,63,0
74868,note_on,,12,0,1,,,,,,,0,,,44,0
74868,note_on,,0,0,1,,,,,,,0,,,32,0
74880,note_on,,0,0,1,,,,,,,0,,,47,100
74880,note_on,,24,0,2,,,,,,,1,,,63,100
74880,note_on,,12,0,1,,,,,,,0,,,63,100
74880,note_on,,0,0,1,,,,,,,0,,,35,100
74880,note_on,,0,0,1,,,,,,,0,,,51,100
75336,note_on,,0,0,1,,,,,,,0,,,51,0
75336,note_on,,456,0,1,,,,,,,0,,,35,0
75336,note_on,,0,0,1,,,,,,,0,,,47,0
75336,note_on,,0,0,1,,,,,,,0,,,63,0
75360,note_on,,0,0,1,,,,,,,0,,,34,100
75360,note_on,,0,0,1,,,,,,,0,,,46,100
75360,note_on,,0,0,1,,,,,,,0,,,51,100
75360,note_on,,24,0,1,,,,,,,0,,,63,100
75588,note_on,,0,0,1,,,,,,,0,,,46,0
75588,note_on,,228,0,1,,,,,,,0,,,34,0
75600,note_on,,0,0,1,,,,,,,0,,,44,100
75600,note_on,,12,0,1,,,,,,,0,,,32,100
75816,note_on,,936,0,2,,,,,,,1,,,63,0
75816,note_on,,0,0,1,,,,,,,0,,,63,0
75816,note_on,,216,0,1,,,,,,,0,,,51,0
75828,note_on,,0,0,1,,,,,,,0,,,32,0
75828,note_on,,12,0,1,,,,,,,0,,,44,0
75840,note_on,,24,0,2,,,,,,,1,,,63,100
75840,note_on,,0,0,1,,,,,,,0,,,46,100
75840,note_on,,0,0,1,,,,,,,0,,,34,100
75840,note_on,,0,0,1,,,,,,,0,,,51,100
75840,note_on,,12,0,1,,,,,,,0,,,63,100
76296,note_on,,456,0,1,,,,,,,0,,,34,0
76296,note_on,,456,0,2,,,,,,,1,,,63,0
76296,note_on,,0,0,1,,,,,,,0,,,46,0
76296,note_on,,0,0,1,,,,,,,0,,,51,0
76296,note_on,,0,0,1,,,,,,,0,,,63,0
76320,note_on,,0,0,1,,,,,,,0,,,44,100
76320,note_on,,0,0,1,,,,,,,0,,,32,100
76320,note_on,,24,0,1,,,,,,,0,,,63,100
76320,note_on,,0,0,1,,,,,,,0,,,51,100
76548,note_on,,228,0,1,,,,,,,0,,,32,0
76548,note_on,,0,0,1,,,,,,,0,,,44,0
76560,note_on,,0,0,1,,,,,,,0,,,42,100
76560,note_on,,12,0,1,,,,,,,0,,,30,100
76776,note_on,,0,0,1,,,,,,,0,,,63,0
76776,note_on,,216,0,1,,,,,,,0,,,51,0
76788,note_on,,12,0,1,,,,,,,0,,,42,0
76788,note_on,,0,0,1,,,,,,,0,,,30,0
76800,note_on,,0,0,1,,,,,,,0,,,51,100
76800,note_on,,12,0,1,,,,,,,0,,,63,100
76800,note_on,,504,0,2,,,,,,,1,,,63,100
76800,note_on,,0,0,1,,,,,,,0,,,34,100
76800,note_on,,0,0,1,,,,,,,0,,,46,100
77256,note_on,,456,0,2,,,,,,,1,,,63,0
77256,note_on,,456,0,1,,,,,,,0,,,34,0
77256,note_on,,0,0,1,,,,,,,0,,,63,0
77256,note_on,,0,0,1,,,,,,,0,,,51,0
77256,note_on,,0,0,1,,,,,,,0,,,46,0
77280,note_on,,0,0,1,,,,,,,0,,,32,100
77280,note_on,,0,0,1,,,,,,,0,,,44,100
77280,note_on,,0,0,1,,,,,,,0,,,51,100
77280,note_on,,24,0,1,,,,,,,0,,,63,100
77280,note_on,,24,0,2,,,,,,,1,,,63,100
77508,note_on,,228,0,1,,,,,,,0,,,32,0
77508,note_on,,0,0,1,,,,,,,0,,,44,0
77520,note_on,,12,0,1,,,,,,,0,,,30,100
77520,note_on,,0,0,1,,,,,,,0,,,42,100
77736,note_on,,456,0,2,,,,,,,1,,,63,0
77736,note_on,,216,0,1,,,,,,,0,,,51,0
77736,note_on,,0,0,1,,,,,,,0,,,63,0
77748,note_on,,0,0,1,,,,,,,0,,,30,0
77748,note_on,,12,0,1,,,,,,,0,,,42,0
77760,note_on,,0,0,1,,,,,,,0,,,32,100
77760,note_on,,0,0,1,,,,,,,0,,,44,100
77760,note_on,,0,0,1,,,,,,,0,,,51,100
77760,note_on,,12,0,1,,,,,,,0,,,63,100
77760,note_on,,24,0,2,,,,,,,1,,,63,100
78216,note_on,,456,0,2,,,,,,,1,,,63,0
78216,note_on,,456,0,1,,,,,,,0,,,32,0
78216,note_on,,0,0,1,,,,,,,0,,,44,0
78216,note_on,,0,0,1,,,,,,,0,,,51,0
78216,note_on,,0,0,1,,,,,,,0,,,63,0
78240,note_on,,0,0,1,,,,,,,0,,,51,100
78240,note_on,,24,0,2,,,,,,,1,,,63,100
78240,note_on,,24,0,1,,,,,,,0,,,63,100
78240,note_on,,0,0,1,,,,,,,0,,,30,100
78240,note_on,,0,0,1,,,,,,,0,,,42,100
78468,note_on,,228,0,1,,,,,,,0,,,30,0
78468,note_on,,0,0,1,,,,,,,0,,,42,0
78480,note_on,,12,0,1,,,,,,,0,,,29,100
78480,note_on,,0,0,1,,,,,,,0,,,41,100
78696,note_on,,456,0,2,,,,,,,1,,,63,0
78696,note_on,,216,0,1,,,,,,,0,,,51,0
78696,note_on,,0,0,1,,,,,,,0,,,63,0
78708,note_on,,12,0,1,,,,,,,0,,,41,0
78708,note_on,,0,0,1,,,,,,,0,,,29,0
78720,note_on,,0,0,1,,,,,,,0,,,42,100
78720,note_on,,24,0,2,,,,,,,1,,,63,100
78720,note_on,,12,0,1,,,,,,,0,,,63,100
78720,note_on,,0,0,1,,,,,,,0,,,51,100
78720,note_on,,0,0,1,,,,,,,0,,,30,100
79176,note_on,,456,0,1,,,,,,,0,,,51,0
79176,note_on,,0,0,1,,,,,,,0,,,63,0
79200,note_on,,24,0,1,,,,,,,0,,,63,100
79200,note_on,,0,0,1,,,,,,,0,,,51,100
79656,note_on,,0,0,1,,,,,,,0,,,51,0
79656,note_on,,0,0,1,,,,,,,0,,,42,0
79656,note_on,,456,0,1,,,,,,,0,,,30,0
79656,note_on,,0,0,1,,,,,,,0,,,63,0
79656,note_on,,936,0,2,,,,,,,1,,,63,0
79680,note_on,,0,0,1,,,,,,,0,,,31,100
79680,note_on,,0,0,1,,,,,,,0,,,43,100
79680,note_on,,24,0,2,,,,,,,1,,,63,100
79680,note_on,,24,0,1,,,,,,,0,,,63,100
79680,note_on,,0,0,1,,,,,,,0,,,51,100
80136,note_on,,456,0,1,,,,,,,0,,,51,0
80136,note_on,,0,0,1,,,,,,,0,,,63,0
80160,note_on,,24,0,1,,,,,,,0,,,63,100
80160,note_on,,0,0,1,,,,,,,0,,,51,100
80616,note_on,,936,0,2,,,,,,,1,,,63,0
80616,note_on,,0,0,1,,,,,,,0,,,43,0
80616,note_on,,456,0,1,,,,,,,0,,,51,0
80616,note_on,,0,0,1,,,,,,,0,,,63,0
80616,note_on,,0,0,1,,,,,,,0,,,31,0
80640,note_on,,0,0,1,,,,,,,0,,,37,100
80640,note_on,,0,0,1,,,,,,,0,,,51,100
80640,note_on,,0,0,1,,,,,,,0,,,49,100
80640,note_on,,24,0,2,,,,,,,1,,,63,100
80640,note_on,,24,0,1,,,,,,,0,,,63,100
81096,note_on,,456,0,1,,,,,,,0,,,37,0
81096,note_on,,0,0,1,,,,,,,0,,,49,0
81096,note_on,,0,0,1,,,,,,,0,,,51,0
81096,note_on,,0,0,1,,,,,,,0,,,63,0
81096,note_on,,456,0,2,,,,,,,1,,,63,0
81120,note_on,,24,0,1,,,,,,,0,,,63,100
81120,note_on,,0,0,1,,,,,,,0,,,51,100
81120,note_on,,0,0,1,,,,,,,0,,,47,100
81120,note_on,,0,0,1,,,,,,,0,,,35,100
81120,note_on,,24,0,2,,,,,,,1,,,63,100
81348,note_on,,228,0,1,,,,,,,0,,,35,0
81348,note_on,,0,0,1,,,,,,,0,,,47,0
81360,note_on,,12,0,1,,,,,,,0,,,34,100
81360,note_on,,0,0,1,,,,,,,0,,,46,100
81576,note_on,,0,0,1,,,,,,,0,,,63,0
81576,note_on,,216,0,1,,,,,,,0,,,51,0
81576,note_on,,456,0,2,,,,,,,1,,,63,0
81588,note_on,,0,0,1,,,,,,,0,,,34,0
81588,note_on,,12,0,1,,,,,,,0,,,46,0
81600,note_on,,12,0,1,,,,,,,0,,,63,100
81600,note_on,,0,0,1,,,,,,,0,,,51,100
81600,note_on,,0,0,1,,,,,,,0,,,47,100
81600,note_on,,0,0,1,,,,,,,0,,,35,100
81600,note_on,,24,0,2,,,,,,,1,,,63,100
82056,note_on,,456,0,2,,,,,,,1,,,63,0
82056,note_on,,0,0,1,,,,,,,0,,,47,0
82056,note_on,,456,0,1,,,,,,,0,,,35,0
82056,note_on,,0,0,1,,,,,,,0,,,51,0
82056,note_on,,0,0,1,,,,,,,0,,,63,0
82080,note_on,,24,0,2,,,,,,,1,,,63,100
82080,note_on,,0,0,1,,,,,,,0,,,46,100
82080,note_on,,24,0,1,,,,,,,0,,,63,100
82080,note_on,,0,0,1,,,,,,,0,,,51,100
82080,note_on,,0,0,1,,,,,,,0,,,34,100
82308,note_on,,228,0,1,,,,,,,0,,,34,0
82308,note_on,,0,0,1,,,,,,,0,,,46,0
82320,note_on,,0,0,1,,,,,,,0,,,44,100
82320,note_on,,12,0,1,,,,,,,0,,,32,100
82536,note_on,,0,0,1,,,,,,,0,,,63,0
82536,note_on,,216,0,1,,,,,,,0,,,51,0
82536,note_on,,456,0,2,,,,,,,1,,,63,0
82548,note_on,,12,0,1,,,,,,,0,,,44,0
82548,note_on,,0,0,1,,,,,,,0,,,32,0
82560,note_on,,0,0,1,,,,,,,0,,,31,100
82560,note_on,,24,0,2,,,,,,,1,,,63,100
82560,note_on,,12,0,1,,,,,,,0,,,63,100
82560,note_on,,0,0,1,,,,,,,0,,,43,100
82560,note_on,,0,0,1,,,,,,,0,,,51,100
83016,note_on,,0,0,1,,,,,,,0,,,63,0
83016,note_on,,456,0,1,,,,,,,0,,,51,0
83040,note_on,,0,0,1,,,,,,,0,,,51,100
83040,note_on,,24,0,1,,,,,,,0,,,63,100
83268,note_on,,0,0,1,,,,,,,0,,,43,0
83268,note_on,,228,0,1,,,,,,,0,,,31,0
83280,note_on,,0,0,1,,,,,,,0,,,34,100
83280,note_on,,12,0,1,,,,,,,0,,,46,100
83496,note_on,,216,0,1,,,,,,,0,,,51,0
83496,note_on,,936,0,2,,,,,,,1,,,63,0
83496,note_on,,0,0,1,,,,,,,0,,,63,0
83508,note_on,,12,0,1,,,,,,,0,,,34,0
83508,note_on,,0,0,1,,,,,,,0,,,46,0
83520,note_on,,24,0,2,,,,,,,1,,,63,100
83520,note_on,,0,0,1,,,,,,,0,,,27,100
83520,note_on,,12,0,1,,,,,,,0,,,63,100
83520,note_on,,0,0,1,,,,,,,0,,,51,100
83520,note_on,,0,0,1,,,,,,,0,,,39,100
83976,note_on,,0,0,1,,,,,,,0,,,51,0
83976,note_on,,456,0,2,,,,,,,1,,,63,0
83976,note_on,,0,0,1,,,,,,,0,,,39,0
83976,note_on,,0,0,1,,,,,,,0,,,63,0
83976,note_on,,456,0,1,,,,,,,0,,,27,0
84000,note_on,,24,0,1,,,,,,,0,,,63,100
84000,note_on,,0,0,1,,,,,,,0,,,51,100
84456,note_on,,0,0,1,,,,,,,0,,,63,0
84456,note_on,,456,0,1,,,,,,,0,,,51,0
84480,note_on,,0,0,1,,,,,,,0,,,51,100
84480,note_on,,504,0,2,,,,,,,1,,,63,100
84480,note_on,,0,0,1,,,,,,,0,,,37,100
84480,note_on,,0,0,1,,,,,,,0,,,49,100
84480,note_on,,24,0,1,,,,,,,0,,,63,100
84936,note_on,,0,0,1,,,,,,,0,,,63,0
84936,note_on,,0,0,1,,,,,,,0,,,51,0
84936,note_on,,0,0,1,,,,,,,0,,,49,0
84936,note_on,,456,0,1,,,,,,,0,,,37,0
84936,note_on,,456,0,2,,,,,,,1,,,63,0
84960,note_on,,0,0,1,,,,,,,0,,,47,100
84960,note_on,,24,0,2,,,,,,,1,,,63,100
84960,note_on,,24,0,1,,,,,,,0,,,63,100
84960,note_on,,0,0,1,,,,,,,0,,,51,100
84960,note_on,,0,0,1,,,,,,,0,,,35,100
85188,note_on,,0,0,1,,,,,,,0,,,47,0
85188,note_on,,228,0,1,,,,,,,0,,,35,0
85200,note_on,,0,0,1,,,,,,,0,,,46,100
85200,note_on,,12,0,1,,,,,,,0,,,34,100
85416,note_on,,216,0,1,,,,,,,0,,,51,0
85416,note_on,,456,0,2,,,,,,,1,,,63,0
85416,note_on,,0,0,1,,,,,,,0,,,63,0
85428,note_on,,0,0,1,,,,,,,0,,,34,0
85428,note_on,,12,0,1,,,,,,,0,,,46,0
85440,note_on,,12,0,1,,,,,,,0,,,63,100
85440,note_on,,0,0,1,,,,,,,0,,,51,100
85440,note_on,,0,0,1,,,,,,,0,,,47,100
85440,note_on,,0,0,1,,,,,,,0,,,35,100
85440,note_on,,24,0,2,,,,,,,1,,,63,100
85896,note_on,,456,0,2,,,,,,,1,,,63,0
85896,note_on,,456,0,1,,,,,,,0,,,35,0
85896,note_on,,0,0,1,,,,,,,0,,,47,0
85896,note_on,,0,0,1,,,,,,,0,,,51,0
85896,note_on,,0,0,1,,,,,,,0,,,63,0
85920,note_on,,24,0,2,,,,,,,1,,,63,100
85920,note_on,,24,0,1,,,,,,,0,,,63,100
85920,note_on,,0,0,1,,,,,,,0,,,51,100
85920,note_on,,0,0,1,,,,,,,0,,,46,100
85920,note_on,,0,0,1,,,,,,,0,,,34,100
86148,note_on,,0,0,1,,,,,,,0,,,46,0
86148,note_on,,228,0,1,,,,,,,0,,,34,0
86160,note_on,,12,0,1,,,,,,,0,,,32,100
86160,note_on,,0,0,1,,,,,,,0,,,44,100
86376,note_on,,0,0,1,,,,,,,0,,,63,0
86376,note_on,,216,0,1,,,,,,,0,,,51,0
86376,note_on,,456,0,2,,,,,,,1,,,63,0
86388,note_on,,0,0,1,,,,,,,0,,,32,0
86388,note_on,,12,0,1,,,,,,,0,,,44,0
86400,note_on,,0,0,1,,,,,,,0,,,34,100
86400,note_on,,0,0,1,,,,,,,0,,,46,100
86400,note_on,,0,0,1,,,,,,,0,,,51,100
86400,note_on,,12,0,1,,,,,,,0,,,63,100
86400,note_on,,24,0,2,,,,,,,1,,,63,100
86856,note_on,,0,0,1,,,,,,,0,,,63,0
86856,note_on,,456,0,1,,,,,,,0,,,51,0
86880,note_on,,0,0,1,,,,,,,0,,,51,100
86880,note_on,,24,0,1,,,,,,,0,,,63,100
87336,note_on,,936,0,2,,,,,,,1,,,63,0
87336,note_on,,0,0,1,,,,,,,0,,,46,0
87336,note_on,,456,0,1,,,,,,,0,,,51,0
87336,note_on,,0,0,1,,,,,,,0,,,34,0
87336,note_on,,0,0,1,,,,,,,0,,,63,0
87360,note_on,,24,0,1,,,,,,,0,,,63,100
87360,note_on,,0,0,1,,,,,,,0,,,51,100
87360,note_on,,0,0,1,,,,,,,0,,,39,100
87360,note_on,,0,0,1,,,,,,,0,,,27,100
87360,note_on,,24,0,2,,,,,,,1,,,63,100
87816,note_on,,456,0,1,,,,,,,0,,,51,0
87816,note_on,,0,0,1,,,,,,,0,,,63,0
87816,note_on,,456,0,2,,,,,,,1,,,63,0
87840,note_on,,24,0,1,,,,,,,0,,,63,100
87840,note_on,,0,0,1,,,,,,,0,,,51,100
88296,note_on,,0,0,1,,,,,,,0,,,39,0
88296,note_on,,0,0,1,,,,,,,0,,,63,0
88296,note_on,,0,0,1,,,,,,,0,,,27,0
88296,note_on,,456,0,1,,,,,,,0,,,51,0
88320,note_on,,504,0,2,,,,,,,1,,,63,100
88320,note_on,,0,0,1,,,,,,,0,,,49,100
88320,note_on,,24,0,1,,,,,,,0,,,63,100
88320,note_on,,0,0,1,,,,,,,0,,,51,100
88320,note_on,,0,0,1,,,,,,,0,,,37,100
88776,note_on,,0,0,1,,,,,,,0,,,63,0
88776,note_on,,0,0,1,,,,,,,0,,,49,0
88776,note_on,,456,0,1,,,,,,,0,,,37,0
88776,note_on,,456,0,2,,,,,,,1,,,63,0
88776,note_on,,0,0,1,,,,,,,0,,,51,0
88800,note_on,,24,0,1,,,,,,,0,,,63,100
88800,note_on,,0,0,1,,,,,,,0,,,51,100
88800,note_on,,0,0,1,,,,,,,0,,,47,100
88800,note_on,,0,0,1,,,,,,,0,,,35,100
88800,note_on,,24,0,2,,,,,,,1,,,63,100
89028,note_on,,228,0,1,,,,,,,0,,,35,0
89028,note_on,,0,0,1,,,,,,,0,,,47,0
89040,note_on,,12,0,1,,,,,,,0,,,34,100
89040,note_on,,0,0,1,,,,,,,0,,,46,100
89256,note_on,,216,0,1,,,,,,,0,,,51,0
89256,note_on,,0,0,1,,,,,,,0,,,63,0
89256,note_on,,456,0,2,,,,,,,1,,,63,0
89268,note_on,,12,0,1,,,,,,,0,,,46,0
89268,note_on,,0,0,1,,,,,,,0,,,34,0
89280,note_on,,0,0,1,,,,,,,0,,,35,100
89280,note_on,,0,0,1,,,,,,,0,,,51,100
89280,note_on,,12,0,1,,,,,,,0,,,63,100
89280,note_on,,24,0,2,,,,,,,1,,,63,100
89280,note_on,,0,0,1,,,,,,,0,,,47,100
89736,note_on,,456,0,2,,,,,,,1,,,63,0
89736,note_on,,0,0,1,,,,,,,0,,,63,0
89736,note_on,,0,0,1,,,,,,,0,,,51,0
89736,note_on,,456,0,1,,,,,,,0,,,35,0
89736,note_on,,0,0,1,,,,,,,0,,,47,0
89760,note_on,,0,0,1,,,,,,,0,,,34,100
89760,note_on,,0,0,1,,,,,,,0,,,46,100
89760,note_on,,0,0,1,,,,,,,0,,,51,100
89760,note_on,,24,0,1,,,,,,,0,,,63,100
89760,note_on,,24,0,2,,,,,,,1,,,63,100
89988,note_on,,0,0,1,,,,,,,0,,,46,0
89988,note_on,,228,0,1,,,,,,,0,,,34,0
90000,note_on,,0,0,1,,,,,,,0,,,44,100
90000,note_on,,12,0,1,,,,,,,0,,,32,100
90216,note_on,,0,0,1,,,,,,,0,,,63,0
90216,note_on,,216,0,1,,,,,,,0,,,51,0
90216,note_on,,456,0,2,,,,,,,1,,,63,0
90228,note_on,,0,0,1,,,,,,,0,,,32,0
90228,note_on,,12,0,1,,,,,,,0,,,44,0
90240,note_on,,0,0,1,,,,,,,0,,,47,100
90240,note_on,,24,0,2,,,,,,,1,,,63,100
90240,note_on,,0,0,1,,,,,,,0,,,35,100
90240,note_on,,0,0,1,,,,,,,0,,,51,100
90240,note_on,,12,0,1,,,,,,,0,,,63,100
90696,note_on,,456,0,1,,,,,,,0,,,35,0
90696,note_on,,0,0,1,,,,,,,0,,,51,0
90696,note_on,,0,0,1,,,,,,,0,,,63,0
90696,note_on,,0,0,1,,,,,,,0,,,47,0
90720,note_on,,24,0,1,,,,,,,0,,,63,100
90720,note_on,,0,0,1,,,,,,,0,,,51,100
90720,note_on,,0,0,1,,,,,,,0,,,46,100
90720,note_on,,0,0,1,,,,,,,0,,,34,100
90948,note_on,,228,0,1,,,,,,,0,,,34,0
90948,note_on,,0,0,1,,,,,,,0,,,46,0
90960,note_on,,12,0,1,,,,,,,0,,,32,100
90960,note_on,,0,0,1,,,,,,,0,,,44,100
91176,note_on,,936,0,2,,,,,,,1,,,63,0
91176,note_on,,0,0,1,,,,,,,0,,,63,0
91176,note_on,,216,0,1,,,,,,,0,,,51,0
91188,note_on,,12,0,1,,,,,,,0,,,44,0
91188,note_on,,0,0,1,,,,,,,0,,,32,0
91200,note_on,,0,0,1,,,,,,,0,,,51,100
91200,note_on,,12,0,1,,,,,,,0,,,63,100
91200,note_on,,0,0,1,,,,,,,0,,,34,100
91200,note_on,,0,0,1,,,,,,,0,,,46,100
91200,note_on,,24,0,2,,,,,,,1,,,63,100
91656,note_on,,0,0,1,,,,,,,0,,,51,0
91656,note_on,,456,0,1,,,,,,,0,,,34,0
91656,note_on,,456,0,2,,,,,,,1,,,63,0
91656,note_on,,0,0,1,,,,,,,0,,,46,0
91656,note_on,,0,0,1,,,,,,,0,,,63,0
91680,note_on,,0,0,1,,,,,,,0,,,51,100
91680,note_on,,0,0,1,,,,,,,0,,,44,100
91680,note_on,,0,0,1,,,,,,,0,,,32,100
91680,note_on,,24,0,1,,,,,,,0,,,63,100
91908,note_on,,228,0,1,,,,,,,0,,,32,0
91908,note_on,,0,0,1,,,,,,,0,,,44,0
91920,note_on,,0,0,1,,,,,,,0,,,42,100
91920,note_on,,12,0,1,,,,,,,0,,,30,100
92136,note_on,,0,0,1,,,,,,,0,,,63,0
92136,note_on,,216,0,1,,,,,,,0,,,51,0
92148,note_on,,0,0,1,,,,,,,0,,,30,0
92148,note_on,,12,0,1,,,,,,,0,,,42,0
92160,note_on,,0,0,1,,,,,,,0,,,34,100
92160,note_on,,0,0,1,,,,,,,0,,,46,100
92160,note_on,,0,0,1,,,,,,,0,,,51,100
92160,note_on,,12,0,1,,,,,,,0,,,63,100
92160,note_on,,504,0,2,,,,,,,1,,,63,100
92616,note_on,,456,0,2,,,,,,,1,,,63,0
92616,note_on,,0,0,1,,,,,,,0,,,63,0
92616,note_on,,0,0,1,,,,,,,0,,,51,0
92616,note_on,,0,0,1,,,,,,,0,,,46,0
92616,note_on,,456,0,1,,,,,,,0,,,34,0
92640,note_on,,0,0,1,,,,,,,0,,,44,100
92640,note_on,,0,0,1,,,,,,,0,,,32,100
92640,note_on,,0,0,1,,,,,,,0,,,51,100
92640,note_on,,24,0,1,,,,,,,0,,,63,100
92640,note_on,,24,0,2,,,,,,,1,,,63,100
92868,note_on,,228,0,1,,,,,,,0,,,32,0
92868,note_on,,0,0,1,,,,,,,0,,,44,0
92880,note_on,,12,0,1,,,,,,,0,,,30,100
92880,note_on,,0,0,1,,,,,,,0,,,42,100
93096,note_on,,456,0,2,,,,,,,1,,,63,0
93096,note_on,,216,0,1,,,,,,,0,,,51,0
93096,note_on,,0,0,1,,,,,,,0,,,63,0
93108,note_on,,0,0,1,,,,,,,0,,,30,0
93108,note_on,,12,0,1,,,,,,,0,,,42,0
93120,note_on,,24,0,2,,,,,,,1,,,63,100
93120,note_on,,0,0,1,,,,,,,0,,,32,100
93120,note_on,,12,0,1,,,,,,,0,,,63,100
93120,note_on,,0,0,1,,,,,,,0,,,51,100
93120,note_on,,0,0,1,,,,,,,0,,,44,100
93576,note_on,,0,0,1,,,,,,,0,,,51,0
93576,note_on,,0,0,1,,,,,,,0,,,44,0
93576,note_on,,456,0,1,,,,,,,0,,,32,0
93576,note_on,,0,0,1,,,,,,,0,,,63,0
93576,note_on,,456,0,2,,,,,,,1,,,63,0
93600,note_on,,24,0,2,,,,,,,1,,,63,100
93600,note_on,,24,0,1,,,,,,,0,,,63,100
93600,note_on,,0,0,1,,,,,,,0,,,51,100
93600,note_on,,0,0,1,,,,,,,0,,,42,100
93600,note_on,,0,0,1,,,,,,,0,,,30,100
93828,note_on,,228,0,1,,,,,,,0,,,30,0
93828,note_on,,0,0,1,,,,,,,0,,,42,0
93840,note_on,,12,0,1,,,,,,,0,,,29,100
93840,note_on,,0,0,1,,,,,,,0,,,41,100
94056,note_on,,456,0,2,,,,,,,1,,,63,0
94056,note_on,,216,0,1,,,,,,,0,,,51,0
94056,note_on,,0,0,1,,,,,,,0,,,63,0
94068,note_on,,12,0,1,,,,,,,0,,,41,0
94068,note_on,,0,0,1,,,,,,,0,,,29,0
94080,note_on,,24,0,2,,,,,,,1,,,63,100
94080,note_on,,0,0,1,,,,,,,0,,,42,100
94080,note_on,,0,0,1,,,,,,,0,,,51,100
94080,note_on,,0,0,1,,,,,,,0,,,30,100
94080,note_on,,12,0,1,,,,,,,0,,,63,100
94536,note_on,,456,0,1,,,,,,,0,,,51,0
94536,note_on,,0,0,1,,,,,,,0,,,63,0
94560,note_on,,24,0,1,,,,,,,0,,,63,100
94560,note_on,,0,0,1,,,,,,,0,,,51,100
95016,note_on,,0,0,1,,,,,,,0,,,42,0
95016,note_on,,936,0,2,,,,,,,1,,,63,0
95016,note_on,,0,0,1,,,,,,,0,,,63,0
95016,note_on,,0,0,1,,,,,,,0,,,30,0
95016,note_on,,456,0,1,,,,,,,0,,,51,0
95040,note_on,,0,0,1,,,,,,,0,,,43,100
95040,note_on,,0,0,1,,,,,,,0,,,31,100
95040,note_on,,0,0,1,,,,,,,0,,,51,100
95040,note_on,,24,0,2,,,,,,,1,,,63,100
95040,note_on,,24,0,1,,,,,,,0,,,63,100
95496,note_on,,456,0,1,,,,,,,0,,,51,0
95496,note_on,,0,0,1,,,,,,,0,,,63,0
95520,note_on,,24,0,1,,,,,,,0,,,63,100
95520,note_on,,0,0,1,,,,,,,0,,,51,100
95976,note_on,,936,0,2,,,,,,,1,,,63,0
95976,note_on,,456,0,1,,,,,,,0,,,51,0
95976,note_on,,0,0,1,,,,,,,0,,,63,0
95976,note_on,,0,0,1,,,,,,,0,,,31,0
95976,note_on,,0,0,1,,,,,,,0,,,43,0
96000,note_on,,0,0,1,,,,,,,0,,,59,127
96000,note_on,,0,0,1,,,,,,,0,,,63,127
96000,note_on,,24,0,1,,,,,,,0,,,44,127
96000,note_on,,0,0,1,,,,,,,0,,,51,127
96000,note_on,,24,0,2,,,,,,,1,,,63,100
96228,note_on,,228,0,1,,,,,,,0,,,51,0
96228,note_on,,0,0,1,,,,,,,0,,,63,0
96228,note_on,,228,0,2,,,,,,,1,,,63,0
96240,note_on,,12,0,1,,,,,,,0,,,64,100
96240,note_on,,0,0,1,,,,,,,0,,,52,100
96240,note_on,,12,0,2,,,,,,,1,,,64,100
96468,note_on,,228,0,2,,,,,,,1,,,64,0
96468,note_on,,0,0,1,,,,,,,0,,,64,0
96468,note_on,,228,0,1,,,,,,,0,,,52,0
96480,note_on,,12,0,1,,,,,,,0,,,63,100
96480,note_on,,0,0,1,,,,,,,0,,,51,100
96480,note_on,,12,0,2,,,,,,,1,,,63,100
96708,note_on,,228,0,2,,,,,,,1,,,63,0
96708,note_on,,0,0,1,,,,,,,0,,,63,0
96708,note_on,,228,0,1,,,,,,,0,,,51,0
96720,note_on,,12,0,2,,,,,,,1,,,62,100
96720,note_on,,12,0,1,,,,,,,0,,,62,100
96720,note_on,,0,0,1,,,,,,,0,,,50,100
96948,note_on,,228,0,2,,,,,,,1,,,62,0
96948,note_on,,228,0,1,,,,,,,0,,,50,0
96948,note_on,,0,0,1,,,,,,,0,,,62,0
96960,note_on,,12,0,1,,,,,,,0,,,63,100
96960,note_on,,12,0,2,,,,,,,1,,,63,100
96960,note_on,,0,0,1,,,,,,,0,,,51,100
97188,note_on,,228,0,2,,,,,,,1,,,63,0
97188,note_on,,0,0,1,,,,,,,0,,,63,0
97188,note_on,,228,0,1,,,,,,,0,,,51,0
97200,note_on,,12,0,1,,,,,,,0,,,52,100
97200,note_on,,0,0,1,,,,,,,0,,,64,100
97200,note_on,,12,0,2,,,,,,,1,,,64,100
97428,note_on,,228,0,1,,,,,,,0,,,64,0
97428,note_on,,0,0,1,,,,,,,0,,,52,0
97428,note_on,,228,0,2,,,,,,,1,,,64,0
97440,note_on,,12,0,1,,,,,,,0,,,63,100
97440,note_on,,0,0,1,,,,,,,0,,,51,100
97440,note_on,,12,0,2,,,,,,,1,,,63,100
97668,note_on,,228,0,1,,,,,,,0,,,51,0
97668,note_on,,0,0,1,,,,,,,0,,,63,0
97668,note_on,,228,0,2,,,,,,,1,,,63,0
97680,note_on,,12,0,2,,,,,,,1,,,62,100
97680,note_on,,0,0,1,,,,,,,0,,,50,100
97680,note_on,,12,0,1,,,,,,,0,,,62,100
97896,note_on,,0,0,1,,,,,,,0,,,44,0
97896,note_on,,216,0,1,,,,,,,0,,,59,0
97908,note_on,,12,0,1,,,,,,,0,,,50,0
97908,note_on,,228,0,2,,,,,,,1,,,62,0
97908,note_on,,0,0,1,,,,,,,0,,,62,0
97920,note_on,,12,0,1,,,,,,,0,,,58,127
97920,note_on,,0,0,1,,,,,,,0,,,63,127
97920,note_on,,0,0,1,,,,,,,0,,,43,127
97920,note_on,,0,0,1,,,,,,,0,,,51,127
97920,note_on,,12,0,2,,,,,,,1,,,63,100
98148,note_on,,0,0,1,,,,,,,0,,,63,0
98148,note_on,,228,0,2,,,,,,,1,,,63,0
98148,note_on,,228,0,1,,,,,,,0,,,51,0
98160,note_on,,0,0,1,,,,,,,0,,,52,100
98160,note_on,,12,0,2,,,,,,,1,,,64,100
98160,note_on,,12,0,1,,,,,,,0,,,64,100
98388,note_on,,228,0,2,,,,,,,1,,,64,0
98388,note_on,,0,0,1,,,,,,,0,,,64,0
98388,note_on,,228,0,1,,,,,,,0,,,52,0
98400,note_on,,12,0,2,,,,,,,1,,,63,100
98400,note_on,,12,0,1,,,,,,,0,,,63,100
98400,note_on,,0,0,1,,,,,,,0,,,51,100
98628,note_on,,0,0,1,,,,,,,0,,,63,0
98628,note_on,,228,0,2,,,,,,,1,,,63,0
98628,note_on,,228,0,1,,,,,,,0,,,51,0
98640,note_on,,12,0,2,,,,,,,1,,,62,100
98640,note_on,,12,0,1,,,,,,,0,,,62,100
98640,note_on,,0,0,1,,,,,,,0,,,50,100
98868,note_on,,228,0,2,,,,,,,1,,,62,0
98868,note_on,,228,0,1,,,,,,,0,,,50,0
98868,note_on,,0,0,1,,,,,,,0,,,62,0
98880,note_on,,12,0,1,,,,,,,0,,,63,100
98880,note_on,,12,0,2,,,,,,,1,,,63,100
98880,note_on,,0,0,1,,,,,,,0,,,51,100
99108,note_on,,0,0,1,,,,,,,0,,,63,0
99108,note_on,,228,0,1,,,,,,,0,,,51,0
99108,note_on,,228,0,2,,,,,,,1,,,63,0
99120,note_on,,12,0,1,,,,,,,0,,,52,100
99120,note_on,,12,0,2,,,,,,,1,,,64,100
99120,note_on,,0,0,1,,,,,,,0,,,64,100
99348,note_on,,228,0,1,,,,,,,0,,,64,0
99348,note_on,,0,0,1,,,,,,,0,,,52,0
99348,note_on,,228,0,2,,,,,,,1,,,64,0
99360,note_on,,12,0,1,,,,,,,0,,,63,100
99360,note_on,,0,0,1,,,,,,,0,,,51,100
99360,note_on,,12,0,2,,,,,,,1,,,63,100
99588,note_on,,0,0,1,,,,,,,0,,,63,0
99588,note_on,,228,0,2,,,,,,,1,,,63,0
99588,note_on,,228,0,1,,,,,,,0,,,51,0
99600,note_on,,0,0,1,,,,,,,0,,,50,100
99600,note_on,,12,0,1,,,,,,,0,,,62,100
99600,note_on,,12,0,2,,,,,,,1,,,62,100
99816,note_on,,216,0,1,,,,,,,0,,,43,0
99816,note_on,,0,0,1,,,,,,,0,,,58,0
99828,note_on,,0,0,1,,,,,,,0,,,62,0
99828,note_on,,12,0,1,,,,,,,0,,,50,0
99828,note_on,,228,0,2,,,,,,,1,,,62,0
99840,note_on,,12,0,1,,,,,,,0,,,59,127
99840,note_on,,12,0,2,,,,,,,1,,,63,100
99840,note_on,,0,0,1,,,,,,,0,,,63,127
99840,note_on,,0,0,1,,,,,,,0,,,51,127
99840,note_on,,0,0,1,,,,,,,0,,,44,127
99936,control_change,,96,0,2,,,,,7,99,1,,,,
100068,note_on,,132,0,2,,,,,,,1,,,63,0
100068,note_on,,0,0,1,,,,,,,0,,,63,0
100068,note_on,,228,0,1,,,,,,,0,,,51,0
100080,note_on,,12,0,1,,,,,,,0,,,64,100
100080,note_on,,12,0,2,,,,,,,1,,,64,100
100080,note_on,,0,0,1,,,,,,,0,,,52,100
100128,control_change,,48,0,2,,,,,7,100,1,,,,
100296,control_change,,168,0,2,,,,,7,101,1,,,,
100308,note_on,,0,0,1,,,,,,,0,,,64,0
100308,note_on,,12,0,2,,,,,,,1,,,64,0
100308,note_on,,228,0,1,,,,,,,0,,,52,0
100320,note_on,,0,0,1,,,,,,,0,,,51,100
100320,note_on,,12,0,1,,,,,,,0,,,63,100
100320,note_on,,12,0,2,,,,,,,1,,,63,100
100488,control_change,,168,0,2,,,,,7,102,1,,,,
100548,note_on,,60,0,2,,,,,,,1,,,63,0
100548,note_on,,228,0,1,,,,,,,0,,,51,0
100548,note_on,,0,0,1,,,,,,,0,,,63,0
100560,note_on,,0,0,1,,,,,,,0,,,50,100
100560,note_on,,12,0,1,,,,,,,0,,,62,100
100560,note_on,,12,0,2,,,,,,,1,,,62,100
100656,control_change,,96,0,2,,,,,7,103,1,,,,
100788,note_on,,0,0,1,,,,,,,0,,,62,0
100788,note_on,,228,0,1,,,,,,,0,,,50,0
100788,note_on,,132,0,2,,,,,,,1,,,62,0
100800,note_on,,0,0,1,,,,,,,0,,,51,100
100800,note_on,,12,0,1,,,,,,,0,,,63,100
100800,note_on,,12,0,2,,,,,,,1,,,63,100
100848,control_change,,48,0,2,,,,,7,104,1,,,,
101016,control_change,,168,0,2,,,,,7,105,1,,,,
101028,note_on,,12,0,2,,,,,,,1,,,63,0
101028,note_on,,0,0,1,,,,,,,0,,,63,0
101028,note_on,,228,0,1,,,,,,,0,,,51,0
101040,note_on,,12,0,2,,,,,,,1,,,64,100
101040,note_on,,0,0,1,,,,,,,0,,,64,100
101040,note_on,,12,0,1,,,,,,,0,,,52,100
101208,control_change,,168,0,2,,,,,7,106,1,,,,
101268,note_on,,0,0,1,,,,,,,0,,,52,0
101268,note_on,,228,0,1,,,,,,,0,,,64,0
101268,note_on,,60,0,2,,,,,,,1,,,64,0
101280,note_on,,0,0,1,,,,,,,0,,,51,100
101280,note_on,,12,0,1,,,,,,,0,,,63,100
101280,note_on,,12,0,2,,,,,,,1,,,63,100
101376,control_change,,96,0,2,,,,,7,107,1,,,,
101508,note_on,,132,0,2,,,,,,,1,,,63,0
101508,note_on,,0,0,1,,,,,,,0,,,63,0
101508,note_on,,228,0,1,,,,,,,0,,,51,0
101520,note_on,,0,0,1,,,,,,,0,,,52,100
101520,note_on,,12,0,2,,,,,,,1,,,64,100
101520,note_on,,12,0,1,,,,,,,0,,,64,100
101568,control_change,,48,0,2,,,,,7,108,1,,,,
101736,note_on,,216,0,1,,,,,,,0,,,44,0
101736,note_on,,0,0,1,,,,,,,0,,,59,0
101748,note_on,,0,0,1,,,,,,,0,,,64,0
101748,note_on,,180,0,2,,,,,,,1,,,64,0
101748,note_on,,12,0,1,,,,,,,0,,,52,0
101760,note_on,,0,0,1,,,,,,,0,,,54,127
101760,note_on,,0,0,1,,,,,,,0,,,66,127
101760,note_on,,12,0,1,,,,,,,0,,,58,127
101760,note_on,,0,0,1,,,,,,,0,,,42,127
101760,note_on,,12,0,2,,,,,,,1,,,66,100
101856,control_change,,96,0,2,,,,,7,107,1,,,,
101988,note_on,,132,0,2,,,,,,,1,,,66,0
101988,note_on,,228,0,1,,,,,,,0,,,54,0
101988,note_on,,0,0,1,,,,,,,0,,,66,0
102000,note_on,,12,0,2,,,,,,,1,,,61,100
102000,note_on,,12,0,1,,,,,,,0,,,61,100
102000,note_on,,0,0,1,,,,,,,0,,,49,100
102048,control_change,,48,0,2,,,,,7,106,1,,,,
102216,control_change,,168,0,2,,,,,7,105,1,,,,
102228,note_on,,0,0,1,,,,,,,0,,,61,0
102228,note_on,,12,0,2,,,,,,,1,,,61,0
102228,note_on,,228,0,1,,,,,,,0,,,49,0
102240,note_on,,12,0,2,,,,,,,1,,,63,100
102240,note_on,,0,0,1,,,,,,,0,,,51,100
102240,note_on,,12,0,1,,,,,,,0,,,63,100
102408,control_change,,168,0,2,,,,,7,104,1,,,,
102468,note_on,,60,0,2,,,,,,,1,,,63,0
102468,note_on,,0,0,1,,,,,,,0,,,63,0
102468,note_on,,228,0,1,,,,,,,0,,,51,0
102480,note_on,,12,0,1,,,,,,,0,,,64,100
102480,note_on,,0,0,1,,,,,,,0,,,52,100
102480,note_on,,12,0,2,,,,,,,1,,,64,100
102576,control_change,,96,0,2,,,,,7,103,1,,,,
102708,note_on,,132,0,2,,,,,,,1,,,64,0
102708,note_on,,0,0,1,,,,,,,0,,,42,0
102708,note_on,,0,0,1,,,,,,,0,,,64,0
102708,note_on,,0,0,1,,,,,,,0,,,58,0
102708,note_on,,228,0,1,,,,,,,0,,,52,0
102720,note_on,,12,0,2,,,,,,,1,,,63,100
102720,note_on,,0,0,1,,,,,,,0,,,47,127
102720,note_on,,0,0,1,,,,,,,0,,,59,127
102720,note_on,,0,0,1,,,,,,,0,,,51,127
102720,note_on,,12,0,1,,,,,,,0,,,63,127
102768,control_change,,48,0,2,,,,,7,102,1,,,,
102936,control_change,,168,0,2,,,,,7,101,1,,,,
102948,note_on,,0,0,1,,,,,,,0,,,63,0
102948,note_on,,12,0,2,,,,,,,1,,,63,0
102948,note_on,,228,0,1,,,,,,,0,,,51,0
102960,note_on,,0,0,1,,,,,,,0,,,64,100
102960,note_on,,12,0,2,,,,,,,1,,,64,100
102960,note_on,,12,0,1,,,,,,,0,,,52,100
103128,control_change,,168,0,2,,,,,7,100,1,,,,
103188,note_on,,228,0,1,,,,,,,0,,,64,0
103188,note_on,,60,0,2,,,,,,,1,,,64,0
103188,note_on,,0,0,1,,,,,,,0,,,52,0
103200,note_on,,12,0,2,,,,,,,1,,,63,100
103200,note_on,,0,0,1,,,,,,,0,,,51,100
103200,note_on,,12,0,1,,,,,,,0,,,63,100
103296,control_change,,96,0,2,,,,,7,99,1,,,,
103428,note_on,,132,0,2,,,,,,,1,,,63,0
103428,note_on,,228,0,1,,,,,,,0,,,51,0
103428,note_on,,0,0,1,,,,,,,0,,,63,0
103440,note_on,,12,0,1,,,,,,,0,,,62,100
103440,note_on,,12,0,2,,,,,,,1,,,62,100
103440,note_on,,0,0,1,,,,,,,0,,,50,100
103488,control_change,,48,0,2,,,,,7,98,1,,,,
103668,note_on,,180,0,2,,,,,,,1,,,62,0
103668,note_on,,0,0,1,,,,,,,0,,,50,0
103668,note_on,,0,0,1,,,,,,,0,,,62,0
103668,note_on,,0,0,1,,,,,,,0,,,59,0
103668,note_on,,228,0,1,,,,,,,0,,,47,0
103680,note_on,,0,0,1,,,,,,,0,,,51,127
103680,note_on,,0,0,1,,,,,,,0,,,44,127
103680,note_on,,12,0,2,,,,,,,1,,,63,100
103680,note_on,,12,0,1,,,,,,,0,,,59,127
103680,note_on,,0,0,1,,,,,,,0,,,63,127
103908,note_on,,228,0,1,,,,,,,0,,,51,0
103908,note_on,,0,0,1,,,,,,,0,,,63,0
103908,note_on,,228,0,2,,,,,,,1,,,63,0
103920,note_on,,12,0,1,,,,,,,0,,,64,100
103920,note_on,,0,0,1,,,,,,,0,,,52,100
103920,note_on,,12,0,2,,,,,,,1,,,64,100
104148,note_on,,228,0,1,,,,,,,0,,,52,0
104148,note_on,,0,0,1,,,,,,,0,,,64,0
104148,note_on,,228,0,2,,,,,,,1,,,64,0
104160,note_on,,12,0,2,,,,,,,1,,,63,100
104160,note_on,,0,0,1,,,,,,,0,,,51,100
104160,note_on,,12,0,1,,,,,,,0,,,63,100
104388,note_on,,228,0,1,,,,,,,0,,,51,0
104388,note_on,,228,0,2,,,,,,,1,,,63,0
104388,note_on,,0,0,1,,,,,,,0,,,63,0
104400,note_on,,12,0,2,,,,,,,1,,,62,100
104400,note_on,,12,0,1,,,,,,,0,,,62,100
104400,note_on,,0,0,1,,,,,,,0,,,50,100
104628,note_on,,228,0,1,,,,,,,0,,,50,0
104628,note_on,,228,0,2,,,,,,,1,,,62,0
104628,note_on,,0,0,1,,,,,,,0,,,62,0
104640,note_on,,12,0,2,,,,,,,1,,,63,100
104640,note_on,,12,0,1,,,,,,,0,,,63,100
104640,note_on,,0,0,1,,,,,,,0,,,51,100
104868,note_on,,228,0,2,,,,,,,1,,,63,0
104868,note_on,,228,0,1,,,,,,,0,,,51,0
104868,note_on,,0,0,1,,,,,,,0,,,63,0
104880,note_on,,12,0,1,,,,,,,0,,,52,100
104880,note_on,,0,0,1,,,,,,,0,,,64,100
104880,note_on,,12,0,2,,,,,,,1,,,64,100
105108,note_on,,0,0,1,,,,,,,0,,,52,0
105108,note_on,,228,0,2,,,,,,,1,,,64,0
105108,note_on,,228,0,1,,,,,,,0,,,64,0
105120,note_on,,12,0,1,,,,,,,0,,,63,100
105120,note_on,,0,0,1,,,,,,,0,,,51,100
105120,note_on,,12,0,2,,,,,,,1,,,63,100
105348,note_on,,0,0,1,,,,,,,0,,,63,0
105348,note_on,,228,0,1,,,,,,,0,,,51,0
105348,note_on,,228,0,2,,,,,,,1,,,63,0
105360,note_on,,12,0,1,,,,,,,0,,,62,100
105360,note_on,,0,0,1,,,,,,,0,,,50,100
105360,note_on,,12,0,2,,,,,,,1,,,62,100
105576,note_on,,216,0,1,,,,,,,0,,,44,0
105576,note_on,,0,0,1,,,,,,,0,,,59,0
105588,note_on,,0,0,1,,,,,,,0,,,62,0
105588,note_on,,12,0,1,,,,,,,0,,,50,0
105588,note_on,,228,0,2,,,,,,,1,,,62,0
105600,note_on,,12,0,2,,,,,,,1,,,63,100
105600,note_on,,0,0,1,,,,,,,0,,,63,127
105600,note_on,,0,0,1,,,,,,,0,,,43,127
105600,note_on,,12,0,1,,,,,,,0,,,58,127
105600,note_on,,0,0,1,,,,,,,0,,,51,127
105828,note_on,,228,0,1,,,,,,,0,,,51,0
105828,note_on,,0,0,1,,,,,,,0,,,63,0
105828,note_on,,228,0,2,,,,,,,1,,,63,0
105840,note_on,,0,0,1,,,,,,,0,,,52,100
105840,note_on,,12,0,1,,,,,,,0,,,64,100
105840,note_on,,12,0,2,,,,,,,1,,,64,100
106068,note_on,,228,0,2,,,,,,,1,,,64,0
106068,note_on,,0,0,1,,,,,,,0,,,64,0
106068,note_on,,228,0,1,,,,,,,0,,,52,0
106080,note_on,,12,0,1,,,,,,,0,,,63,100
106080,note_on,,0,0,1,,,,,,,0,,,51,100
106080,note_on,,12,0,2,,,,,,,1,,,63,100
106308,note_on,,228,0,1,,,,,,,0,,,51,0
106308,note_on,,228,0,2,,,,,,,1,,,63,0
106308,note_on,,0,0,1,,,,,,,0,,,63,0
106320,note_on,,12,0,1,,,,,,,0,,,62,100
106320,note_on,,0,0,1,,,,,,,0,,,50,100
106320,note_on,,12,0,2,,,,,,,1,,,62,100
106548,note_on,,228,0,2,,,,,,,1,,,62,0
106548,note_on,,0,0,1,,,,,,,0,,,62,0
106548,note_on,,228,0,1,,,,,,,0,,,50,0
106560,note_on,,12,0,1,,,,,,,0,,,63,100
106560,note_on,,12,0,2,,,,,,,1,,,63,100
106560,note_on,,0,0,1,,,,,,,0,,,51,100
106788,note_on,,228,0,1,,,,,,,0,,,51,0
106788,note_on,,0,0,1,,,,,,,0,,,63,0
106788,note_on,,228,0,2,,,,,,,1,,,63,0
106800,note_on,,0,0,1,,,,,,,0,,,64,100
106800,note_on,,12,0,1,,,,,,,0,,,52,100
106800,note_on,,12,0,2,,,,,,,1,,,64,100
107028,note_on,,228,0,2,,,,,,,1,,,64,0
107028,note_on,,228,0,1,,,,,,,0,,,64,0
107028,note_on,,0,0,1,,,,,,,0,,,52,0
107040,note_on,,12,0,1,,,,,,,0,,,63,100
107040,note_on,,12,0,2,,,,,,,1,,,63,100
107040,note_on,,0,0,1,,,,,,,0,,,51,100
107268,note_on,,228,0,2,,,,,,,1,,,63,0
107268,note_on,,228,0,1,,,,,,,0,,,51,0
107268,note_on,,0,0,1,,,,,,,0,,,63,0
107280,note_on,,12,0,2,,,,,,,1,,,62,100
107280,note_on,,12,0,1,,,,,,,0,,,62,100
107280,note_on,,0,0,1,,,,,,,0,,,50,100
107496,note_on,,0,0,1,,,,,,,0,,,58,0
107496,note_on,,216,0,1,,,,,,,0,,,43,0
107508,note_on,,0,0,1,,,,,,,0,,,62,0
107508,note_on,,12,0,1,,,,,,,0,,,50,0
107508,note_on,,228,0,2,,,,,,,1,,,62,0
107520,note_on,,12,0,2,,,,,,,1,,,63,100
107520,note_on,,12,0,1,,,,,,,0,,,59,127
107520,note_on,,0,0,1,,,,,,,0,,,63,127
107520,note_on,,0,0,1,,,,,,,0,,,51,127
107520,note_on,,0,0,1,,,,,,,0,,,44,127
107748,note_on,,228,0,1,,,,,,,0,,,51,0
107748,note_on,,0,0,1,,,,,,,0,,,63,0
107748,note_on,,228,0,2,,,,,,,1,,,63,0
107760,note_on,,12,0,1,,,,,,,0,,,64,100
107760,note_on,,12,0,2,,,,,,,1,,,64,100
107760,note_on,,0,0,1,,,,,,,0,,,52,100
107988,note_on,,228,0,2,,,,,,,1,,,64,0
107988,note_on,,228,0,1,,,,,,,0,,,52,0
107988,note_on,,0,0,1,,,,,,,0,,,64,0
108000,note_on,,12,0,1,,,,,,,0,,,63,100
108000,note_on,,0,0,1,,,,,,,0,,,51,100
108000,note_on,,12,0,2,,,,,,,1,,,63,100
108228,note_on,,228,0,1,,,,,,,0,,,51,0
108228,note_on,,0,0,1,,,,,,,0,,,63,0
108228,note_on,,228,0,2,,,,,,,1,,,63,0
108240,note_on,,12,0,1,,,,,,,0,,,62,100
108240,note_on,,0,0,1,,,,,,,0,,,50,100
108240,note_on,,12,0,2,,,,,,,1,,,62,100
108468,note_on,,0,0,1,,,,,,,0,,,62,0
108468,note_on,,228,0,1,,,,,,,0,,,50,0
108468,note_on,,228,0,2,,,,,,,1,,,62,0
108480,note_on,,12,0,2,,,,,,,1,,,63,100
108480,note_on,,0,0,1,,,,,,,0,,,51,100
108480,note_on,,12,0,1,,,,,,,0,,,63,100
108708,note_on,,228,0,2,,,,,,,1,,,63,0
108708,note_on,,228,0,1,,,,,,,0,,,51,0
108708,note_on,,0,0,1,,,,,,,0,,,63,0
108720,note_on,,12,0,1,,,,,,,0,,,52,100
108720,note_on,,0,0,1,,,,,,,0,,,64,100
108720,note_on,,12,0,2,,,,,,,1,,,64,100
108948,note_on,,228,0,2,,,,,,,1,,,64,0
108948,note_on,,228,0,1,,,,,,,0,,,64,0
108948,note_on,,0,0,1,,,,,,,0,,,52,0
108960,note_on,,12,0,1,,,,,,,0,,,63,100
108960,note_on,,12,0,2,,,,,,,1,,,63,100
108960,note_on,,0,0,1,,,,,,,0,,,51,100
109188,note_on,,228,0,1,,,,,,,0,,,51,0
109188,note_on,,228,0,2,,,,,,,1,,,63,0
109188,note_on,,0,0,1,,,,,,,0,,,63,0
109200,note_on,,12,0,2,,,,,,,1,,,64,100
109200,note_on,,0,0,1,,,,,,,0,,,52,100
109200,note_on,,12,0,1,,,,,,,0,,,64,100
109416,note_on,,0,0,1,,,,,,,0,,,59,0
109416,note_on,,216,0,1,,,,,,,0,,,44,0
109428,note_on,,228,0,2,,,,,,,1,,,64,0
109428,note_on,,0,0,1,,,,,,,0,,,64,0
109428,note_on,,12,0,1,,,,,,,0,,,52,0
109440,note_on,,0,0,1,,,,,,,0,,,42,127
109440,note_on,,0,0,1,,,,,,,0,,,66,127
109440,note_on,,12,0,1,,,,,,,0,,,58,127
109440,note_on,,12,0,2,,,,,,,1,,,66,100
109440,note_on,,0,0,1,,,,,,,0,,,54,127
109464,set_tempo,860673,44184,1,0,,,,,,,,,,,
109488,set_tempo,864513,24,1,0,,,,,,,,,,,
109512,control_change,,72,0,2,,,,,7,99,1,,,,
109512,set_tempo,868353,24,1,0,,,,,,,,,,,
109536,set_tempo,872193,24,1,0,,,,,,,,,,,
109560,set_tempo,876289,24,1,0,,,,,,,,,,,
109584,set_tempo,880129,24,1,0,,,,,,,,,,,
109608,set_tempo,884225,24,1,0,,,,,,,,,,,
109632,control_change,,120,0,2,,,,,7,100,1,,,,
109632,set_tempo,888065,24,1,0,,,,,,,,,,,
109656,set_tempo,892161,24,1,0,,,,,,,,,,,
109668,note_on,,36,0,2,,,,,,,1,,,66,0
109668,note_on,,228,0,1,,,,,,,0,,,54,0
109668,note_on,,0,0,1,,,,,,,0,,,66,0
109680,note_on,,12,0,1,,,,,,,0,,,61,100
109680,note_on,,0,0,1,,,,,,,0,,,49,100
109680,note_on,,12,0,2,,,,,,,1,,,61,100
109680,set_tempo,896257,24,1,0,,,,,,,,,,,
109704,set_tempo,900353,24,1,0,,,,,,,,,,,
109728,set_tempo,904705,24,1,0,,,,,,,,,,,
109752,control_change,,72,0,2,,,,,7,101,1,,,,
109752,set_tempo,908801,24,1,0,,,,,,,,,,,
109776,set_tempo,913153,24,1,0,,,,,,,,,,,
109800,set_tempo,917249,24,1,0,,,,,,,,,,,
109824,set_tempo,921601,24,1,0,,,,,,,,,,,
109848,set_tempo,925953,24,1,0,,,,,,,,,,,
109872,set_tempo,930305,24,1,0,,,,,,,,,,,
109872,control_change,,120,0,2,,,,,7,102,1,,,,
109896,set_tempo,934913,24,1,0,,,,,,,,,,,
109908,note_on,,0,0,1,,,,,,,0,,,61,0
109908,note_on,,228,0,1,,,,,,,0,,,49,0
109908,note_on,,36,0,2,,,,,,,1,,,61,0
109920,note_on,,12,0,2,,,,,,,1,,,63,100
109920,set_tempo,939265,24,1,0,,,,,,,,,,,
109920,note_on,,12,0,1,,,,,,,0,,,63,100
109920,note_on,,0,0,1,,,,,,,0,,,51,100
109944,set_tempo,943873,24,1,0,,,,,,,,,,,
109968,set_tempo,948481,24,1,0,,,,,,,,,,,
109992,control_change,,72,0,2,,,,,7,103,1,,,,
109992,set_tempo,953089,24,1,0,,,,,,,,,,,
110016,set_tempo,957697,24,1,0,,,,,,,,,,,
110040,set_tempo,962561,24,1,0,,,,,,,,,,,
110064,set_tempo,967169,24,1,0,,,,,,,,,,,
110088,set_tempo,972033,24,1,0,,,,,,,,,,,
110112,control_change,,120,0,2,,,,,7,104,1,,,,
110112,set_tempo,976897,24,1,0,,,,,,,,,,,
110136,set_tempo,981761,24,1,0,,,,,,,,,,,
110148,note_on,,36,0,2,,,,,,,1,,,63,0
110148,note_on,,0,0,1,,,,,,,0,,,63,0
110148,note_on,,228,0,1,,,,,,,0,,,51,0
110160,note_on,,12,0,1,,,,,,,0,,,64,100
110160,note_on,,0,0,1,,,,,,,0,,,52,100
110160,set_tempo,986625,24,1,0,,,,,,,,,,,
110160,note_on,,12,0,2,,,,,,,1,,,64,100
110184,set_tempo,991745,24,1,0,,,,,,,,,,,
110208,set_tempo,996865,24,1,0,,,,,,,,,,,
110232,control_change,,72,0,2,,,,,7,105,1,,,,
110232,set_tempo,1001985,24,1,0,,,,,,,,,,,
110256,set_tempo,1007105,24,1,0,,,,,,,,,,,
110280,set_tempo,1012225,24,1,0,,,,,,,,,,,
110304,set_tempo,1017601,24,1,0,,,,,,,,,,,
110328,set_tempo,1022721,24,1,0,,,,,,,,,,,
110352,set_tempo,1028097,24,1,0,,,,,,,,,,,
110376,set_tempo,1033729,24,1,0,,,,,,,,,,,
110388,note_on,,228,0,1,,,,,,,0,,,52,0
110388,note_on,,0,0,1,,,,,,,0,,,42,0
110388,note_on,,156,0,2,,,,,,,1,,,64,0
110388,note_on,,0,0,1,,,,,,,0,,,58,0
110388,note_on,,0,0,1,,,,,,,0,,,64,0
110400,note_on,,0,0,1,,,,,,,0,,,59,127
110400,note_on,,12,0,1,,,,,,,0,,,63,127
110400,set_tempo,1039105,24,1,0,,,,,,,,,,,
110400,note_on,,12,0,2,,,,,,,1,,,63,100
110400,note_on,,0,0,1,,,,,,,0,,,51,127
110400,note_on,,0,0,1,,,,,,,0,,,47,127
110424,set_tempo,1044737,24,1,0,,,,,,,,,,,
110448,set_tempo,1050369,24,1,0,,,,,,,,,,,
110448,control_change,,48,0,2,,,,,7,104,1,,,,
110448,control_change,,48,0,1,,,,,7,74,0,,,,
110472,set_tempo,1056001,24,1,0,,,,,,,,,,,
110496,control_change,,48,0,2,,,,,7,103,1,,,,
110496,control_change,,48,0,1,,,,,7,73,0,,,,
110496,set_tempo,1061633,24,1,0,,,,,,,,,,,
110520,set_tempo,1067521,24,1,0,,,,,,,,,,,
110544,control_change,,48,0,1,,,,,7,72,0,,,,
110544,set_tempo,1073409,24,1,0,,,,,,,,,,,
110544,control_change,,48,0,2,,,,,7,102,1,,,,
110568,set_tempo,1079297,24,1,0,,,,,,,,,,,
110592,set_tempo,1085185,24,1,0,,,,,,,,,,,
110616,control_change,,72,0,2,,,,,7,101,1,,,,
110616,control_change,,72,0,1,,,,,7,71,0,,,,
110616,set_tempo,1091329,24,1,0,,,,,,,,,,,
110628,note_on,,12,0,1,,,,,,,0,,,51,0
110628,note_on,,0,0,1,,,,,,,0,,,63,0
110628,note_on,,12,0,2,,,,,,,1,,,63,0
110640,set_tempo,1097473,24,1,0,,,,,,,,,,,
110640,note_on,,12,0,2,,,,,,,1,,,64,100
110640,note_on,,12,0,1,,,,,,,0,,,52,100
110640,note_on,,0,0,1,,,,,,,0,,,64,100
110664,control_change,,24,0,2,,,,,7,100,1,,,,
110664,set_tempo,1103617,24,1,0,,,,,,,,,,,
110664,control_change,,24,0,1,,,,,7,70,0,,,,
110688,set_tempo,1110017,24,1,0,,,,,,,,,,,
110712,control_change,,48,0,2,,,,,7,99,1,,,,
110712,set_tempo,1116161,24,1,0,,,,,,,,,,,
110712,control_change,,48,0,1,,,,,7,69,0,,,,
110736,set_tempo,1122561,24,1,0,,,,,,,,,,,
110760,set_tempo,1129217,24,1,0,,,,,,,,,,,
110784,control_change,,72,0,2,,,,,7,98,1,,,,
110784,set_tempo,1135617,24,1,0,,,,,,,,,,,
110784,control_change,,72,0,1,,,,,7,68,0,,,,
110808,set_tempo,1142273,24,1,0,,,,,,,,,,,
110832,control_change,,48,0,1,,,,,7,67,0,,,,
110832,set_tempo,1148929,24,1,0,,,,,,,,,,,
110832,control_change,,48,0,2,,,,,7,97,1,,,,
110856,set_tempo,1155841,24,1,0,,,,,,,,,,,
110868,note_on,,36,0,2,,,,,,,1,,,64,0
110868,note_on,,36,0,1,,,,,,,0,,,64,0
110868,note_on,,0,0,1,,,,,,,0,,,52,0
110880,set_tempo,1162753,24,1,0,,,,,,,,,,,
110880,note_on,,0,0,1,,,,,,,0,,,51,100
110880,note_on,,0,0,2,,,,,,,1,,,63,100
110880,control_change,,12,0,2,,,,,7,96,1,,,,
110880,control_change,,12,0,1,,,,,7,66,0,,,,
110880,note_on,,0,0,1,,,,,,,0,,,63,100
110904,set_tempo,1169665,24,1,0,,,,,,,,,,,
110928,set_tempo,1176577,24,1,0,,,,,,,,,,,
110952,set_tempo,1183745,24,1,0,,,,,,,,,,,
110952,control_change,,72,0,1,,,,,7,65,0,,,,
110952,control_change,,72,0,2,,,,,7,95,1,,,,
110976,set_tempo,1190913,24,1,0,,,,,,,,,,,
111000,set_tempo,1198337,24,1,0,,,,,,,,,,,
111000,control_change,,48,0,1,,,,,7,64,0,,,,
111000,control_change,,48,0,2,,,,,7,94,1,,,,
111024,set_tempo,1205761,24,1,0,,,,,,,,,,,
111048,control_change,,48,0,2,,,,,7,93,1,,,,
111048,set_tempo,1213185,24,1,0,,,,,,,,,,,
111048,control_change,,48,0,1,,,,,7,63,0,,,,
111072,set_tempo,1220865,24,1,0,,,,,,,,,,,
111096,set_tempo,1228289,24,1,0,,,,,,,,,,,
111108,note_on,,60,0,1,,,,,,,0,,,51,0
111108,note_on,,0,0,1,,,,,,,0,,,63,0
111108,note_on,,60,0,2,,,,,,,1,,,63,0
111120,control_change,,12,0,1,,,,,7,62,0,,,,
111120,note_on,,0,0,1,,,,,,,0,,,52,100
111120,control_change,,12,0,2,,,,,7,92,1,,,,
111120,note_on,,0,0,2,,,,,,,1,,,64,100
111120,note_on,,0,0,1,,,,,,,0,,,64,100
111120,set_tempo,1236225,24,1,0,,,,,,,,,,,
111144,set_tempo,1243905,24,1,0,,,,,,,,,,,
111168,control_change,,48,0,1,,,,,7,61,0,,,,
111168,set_tempo,1252097,24,1,0,,,,,,,,,,,
111168,control_change,,48,0,2,,,,,7,91,1,,,,
111192,set_tempo,1260033,24,1,0,,,,,,,,,,,
111216,control_change,,48,0,1,,,,,7,60,0,,,,
111216,set_tempo,1268225,24,1,0,,,,,,,,,,,
111216,control_change,,48,0,2,,,,,7,90,1,,,,
111240,set_tempo,1276417,24,1,0,,,,,,,,,,,
111348,note_on,,0,0,1,,,,,,,0,,,59,0
111348,note_on,,0,0,1,,,,,,,0,,,47,0
111348,note_on,,132,0,1,,,,,,,0,,,52,0
111348,note_on,,132,0,2,,,,,,,1,,,64,0
111348,note_on,,0,0,1,,,,,,,0,,,64,0
111360,set_tempo,428545,120,1,0,,,,,,,,,,,
113280,note_on,,0,0,2,,,,,,,1,,,66,100
113280,note_on,,0,0,1,,,,,,,0,,,36,127
113280,note_on,,0,0,1,,,,,,,0,,,57,100
113280,note_on,,0,0,1,,,,,,,0,,,63,100
113280,note_on,,0,0,1,,,,,,,0,,,66,100
113280,control_change,,1932,0,2,,,,,7,105,1,,,,
113280,note_on,,0,0,1,,,,,,,0,,,48,127
113280,set_tempo,576769,1920,1,0,,,,,,,,,,,
113280,control_change,,1932,0,1,,,,,7,85,0,,,,
113508,note_on,,228,0,1,,,,,,,0,,,66,0
113508,note_on,,0,0,1,,,,,,,0,,,63,0
113508,note_on,,0,0,1,,,,,,,0,,,57,0
113508,note_on,,228,0,2,,,,,,,1,,,66,0
113520,note_on,,12,0,1,,,,,,,0,,,57,100
113520,note_on,,0,0,1,,,,,,,0,,,63,100
113520,note_on,,0,0,1,,,,,,,0,,,66,100
113520,note_on,,12,0,2,,,,,,,1,,,66,100
113748,note_on,,0,0,1,,,,,,,0,,,63,0
113748,note_on,,228,0,1,,,,,,,0,,,66,0
113748,note_on,,228,0,2,,,,,,,1,,,66,0
113748,note_on,,0,0,1,,,,,,,0,,,57,0
113760,note_on,,0,0,1,,,,,,,0,,,63,100
113760,note_on,,0,0,1,,,,,,,0,,,66,100
113760,note_on,,12,0,1,,,,,,,0,,,57,100
113760,note_on,,12,0,2,,,,,,,1,,,66,100
113988,note_on,,0,0,1,,,,,,,0,,,57,0
113988,note_on,,0,0,1,,,,,,,0,,,63,0
113988,note_on,,228,0,2,,,,,,,1,,,66,0
113988,note_on,,228,0,1,,,,,,,0,,,66,0
114000,note_on,,0,0,1,,,,,,,0,,,66,100
114000,note_on,,0,0,1,,,,,,,0,,,63,100
114000,note_on,,12,0,2,,,,,,,1,,,66,100
114000,note_on,,12,0,1,,,,,,,0,,,57,100
114228,note_on,,0,0,1,,,,,,,0,,,57,0
114228,note_on,,0,0,1,,,,,,,0,,,63,0
114228,note_on,,228,0,2,,,,,,,1,,,66,0
114228,note_on,,228,0,1,,,,,,,0,,,66,0
114240,note_on,,12,0,1,,,,,,,0,,,58,100
114240,note_on,,0,0,1,,,,,,,0,,,64,100
114240,note_on,,0,0,1,,,,,,,0,,,67,100
114240,note_on,,12,0,2,,,,,,,1,,,67,100
114420,note_on,,0,0,1,,,,,,,0,,,48,0
114420,note_on,,180,0,1,,,,,,,0,,,36,0
114480,note_on,,60,0,1,,,,,,,0,,,47,127
114480,note_on,,0,0,1,,,,,,,0,,,35,127
114708,note_on,,228,0,1,,,,,,,0,,,35,0
114708,note_on,,0,0,1,,,,,,,0,,,47,0
114720,note_on,,0,0,1,,,,,,,0,,,36,127
114720,note_on,,12,0,1,,,,,,,0,,,48,127
114924,note_on,,0,0,1,,,,,,,0,,,58,0
114924,note_on,,0,0,1,,,,,,,0,,,64,0
114924,note_on,,204,0,1,,,,,,,0,,,67,0
114948,note_on,,708,0,2,,,,,,,1,,,67,0
114960,note_on,,12,0,2,,,,,,,1,,,64,100
114960,note_on,,0,0,1,,,,,,,0,,,64,100
114960,note_on,,36,0,1,,,,,,,0,,,58,100
115176,note_on,,216,0,1,,,,,,,0,,,36,0
115176,note_on,,0,0,1,,,,,,,0,,,48,0
115188,note_on,,12,0,1,,,,,,,0,,,64,0
115188,note_on,,228,0,2,,,,,,,1,,,64,0
115188,note_on,,0,0,1,,,,,,,0,,,58,0
115200,note_on,,0,0,1,,,,,,,0,,,37,127
115200,note_on,,12,0,1,,,,,,,0,,,49,127
115440,note_on,,252,0,2,,,,,,,1,,,67,100
115440,note_on,,0,0,1,,,,,,,0,,,67,100
115440,note_on,,0,0,1,,,,,,,0,,,64,100
115440,note_on,,240,0,1,,,,,,,0,,,58,100
115668,note_on,,228,0,2,,,,,,,1,,,67,0
115668,note_on,,0,0,1,,,,,,,0,,,58,0
115668,note_on,,228,0,1,,,,,,,0,,,67,0
115668,note_on,,0,0,1,,,,,,,0,,,64,0
115680,note_on,,12,0,2,,,,,,,1,,,67,100
115680,note_on,,12,0,1,,,,,,,0,,,64,100
115680,note_on,,0,0,1,,,,,,,0,,,58,100
115680,note_on,,0,0,1,,,,,,,0,,,67,100
115908,note_on,,0,0,1,,,,,,,0,,,64,0
115908,note_on,,0,0,1,,,,,,,0,,,58,0
115908,note_on,,228,0,2,,,,,,,1,,,67,0
115908,note_on,,228,0,1,,,,,,,0,,,67,0
115920,note_on,,12,0,2,,,,,,,1,,,67,100
115920,note_on,,0,0,1,,,,,,,0,,,67,100
115920,note_on,,0,0,1,,,,,,,0,,,64,100
115920,note_on,,12,0,1,,,,,,,0,,,58,100
116148,note_on,,0,0,1,,,,,,,0,,,58,0
116148,note_on,,228,0,2,,,,,,,1,,,67,0
116148,note_on,,228,0,1,,,,,,,0,,,67,0
116148,note_on,,0,0,1,,,,,,,0,,,64,0
116160,note_on,,0,0,1,,,,,,,0,,,68,100
116160,note_on,,0,0,1,,,,,,,0,,,65,100
116160,note_on,,12,0,2,,,,,,,1,,,68,100
116160,note_on,,12,0,1,,,,,,,0,,,59,100
116340,note_on,,0,0,1,,,,,,,0,,,49,0
116340,note_on,,180,0,1,,,,,,,0,,,37,0
116400,note_on,,0,0,1,,,,,,,0,,,36,127
116400,note_on,,60,0,1,,,,,,,0,,,48,127
116616,note_on,,216,0,1,,,,,,,0,,,68,0
116616,note_on,,0,0,1,,,,,,,0,,,59,0
116616,note_on,,456,0,2,,,,,,,1,,,68,0
116616,note_on,,0,0,1,,,,,,,0,,,65,0
116628,note_on,,12,0,1,,,,,,,0,,,36,0
116628,note_on,,0,0,1,,,,,,,0,,,48,0
116640,note_on,,24,0,2,,,,,,,1,,,65,100
116640,note_on,,0,0,1,,,,,,,0,,,37,127
116640,note_on,,12,0,1,,,,,,,0,,,49,127
116664,control_change,,24,0,2,,,,,7,106,1,,,,
116712,control_change,,48,0,2,,,,,7,107,1,,,,
116760,control_change,,48,0,2,,,,,7,108,1,,,,
116808,control_change,,48,0,2,,,,,7,109,1,,,,
116856,control_change,,48,0,2,,,,,7,110,1,,,,
116868,note_on,,12,0,2,,,,,,,1,,,65,0
116880,note_on,,12,0,2,,,,,,,1,,,70,100
116904,control_change,,24,0,2,,,,,7,111,1,,,,
116952,control_change,,48,0,2,,,,,7,112,1,,,,
117000,control_change,,48,0,2,,,,,7,113,1,,,,
117096,note_on,,0,0,1,,,,,,,0,,,49,0
117096,note_on,,456,0,1,,,,,,,0,,,37,0
117108,note_on,,108,0,2,,,,,,,1,,,70,0
117120,note_on,,0,0,1,,,,,,,0,,,37,100
117120,note_on,,0,0,1,,,,,,,0,,,59,100
117120,time_signature,,3840,1,0,2,4,24,8,,,,,,,
117120,note_on,,0,0,1,,,,,,,0,,,65,100
117120,note_on,,12,0,2,,,,,,,1,,,70,100
117120,control_change,,24,0,1,,,,,7,83,0,,,,
117144,control_change,,24,0,2,,,,,7,112,1,,,,
117192,control_change,,48,0,2,,,,,7,111,1,,,,
117216,control_change,,24,0,2,,,,,7,110,1,,,,
117264,control_change,,48,0,2,,,,,7,109,1,,,,
117288,control_change,,24,0,2,,,,,7,108,1,,,,
117336,control_change,,48,0,2,,,,,7,107,1,,,,
117348,note_on,,12,0,2,,,,,,,1,,,70,0
117348,note_on,,228,0,1,,,,,,,0,,,65,0
117348,note_on,,0,0,1,,,,,,,0,,,59,0
117360,control_change,,12,0,2,,,,,7,106,1,,,,
117360,note_on,,12,0,1,,,,,,,0,,,61,100
117360,note_on,,0,0,2,,,,,,,1,,,68,100
117408,control_change,,48,0,2,,,,,7,105,1,,,,
117456,control_change,,48,0,2,,,,,7,104,1,,,,
117480,control_change,,24,0,2,,,,,7,103,1,,,,
117528,control_change,,48,0,2,,,,,7,102,1,,,,
117552,control_change,,24,0,2,,,,,7,101,1,,,,
117576,note_on,,216,0,1,,,,,,,0,,,37,0
117588,note_on,,12,0,1,,,,,,,0,,,61,0
117588,note_on,,36,0,2,,,,,,,1,,,68,0
117600,note_on,,0,0,1,,,,,,,0,,,66,100
117600,note_on,,0,0,1,,,,,,,0,,,58,100
117600,note_on,,12,0,1,,,,,,,0,,,42,100
117600,note_on,,12,0,2,,,,,,,1,,,66,100
117600,control_change,,0,0,2,,,,,7,100,1,,,,
117828,note_on,,228,0,1,,,,,,,0,,,66,0
117828,note_on,,0,0,1,,,,,,,0,,,58,0
117828,note_on,,228,0,2,,,,,,,1,,,66,0
117840,note_on,,12,0,1,,,,,,,0,,,61,100
117840,note_on,,12,0,2,,,,,,,1,,,70,100
118056,note_on,,216,0,1,,,,,,,0,,,42,0
118068,note_on,,228,0,2,,,,,,,1,,,70,0
118068,note_on,,12,0,1,,,,,,,0,,,61,0
118080,note_on,,12,0,2,,,,,,,1,,,70,100
118080,note_on,,0,0,1,,,,,,,0,,,65,100
118080,note_on,,12,0,1,,,,,,,0,,,49,100
118080,note_on,,0,0,1,,,,,,,0,,,59,100
118308,note_on,,0,0,1,,,,,,,0,,,59,0
118308,note_on,,228,0,2,,,,,,,1,,,70,0
118308,note_on,,228,0,1,,,,,,,0,,,65,0
118320,note_on,,12,0,2,,,,,,,1,,,68,100
118320,note_on,,12,0,1,,,,,,,0,,,61,100
118536,note_on,,216,0,1,,,,,,,0,,,49,0
118548,note_on,,228,0,2,,,,,,,1,,,68,0
118548,note_on,,12,0,1,,,,,,,0,,,61,0
118560,note_on,,0,0,1,,,,,,,0,,,66,100
118560,note_on,,0,0,1,,,,,,,0,,,58,100
118560,note_on,,12,0,2,,,,,,,1,,,66,100
118560,note_on,,12,0,1,,,,,,,0,,,54,100
118788,note_on,,228,0,1,,,,,,,0,,,66,0
118788,note_on,,0,0,1,,,,,,,0,,,58,0
118788,note_on,,228,0,2,,,,,,,1,,,66,0
118800,note_on,,12,0,1,,,,,,,0,,,61,100
119016,note_on,,216,0,1,,,,,,,0,,,54,0
119028,note_on,,12,0,1,,,,,,,0,,,61,0
119040,note_on,,12,0,1,,,,,,,0,,,46,100
119040,note_on,,0,0,1,,,,,,,0,,,66,100
119040,note_on,,252,0,2,,,,,,,1,,,66,100
119040,note_on,,0,0,1,,,,,,,0,,,56,100
119040,note_on,,0,0,1,,,,,,,0,,,62,100
119268,note_on,,228,0,2,,,,,,,1,,,66,0
119268,note_on,,228,0,1,,,,,,,0,,,56,0
119268,note_on,,0,0,1,,,,,,,0,,,66,0
119268,note_on,,0,0,1,,,,,,,0,,,62,0
119280,note_on,,12,0,2,,,,,,,1,,,66,100
119280,note_on,,12,0,1,,,,,,,0,,,58,100
119508,note_on,,228,0,2,,,,,,,1,,,66,0
119508,note_on,,228,0,1,,,,,,,0,,,58,0
119520,note_on,,12,0,2,,,,,,,1,,,66,100
119520,note_on,,12,0,1,,,,,,,0,,,56,100
119520,note_on,,0,0,1,,,,,,,0,,,62,100
119748,note_on,,228,0,1,,,,,,,0,,,62,0
119748,note_on,,0,0,1,,,,,,,0,,,56,0
119748,note_on,,228,0,2,,,,,,,1,,,66,0
119760,note_on,,12,0,1,,,,,,,0,,,58,100
119760,note_on,,12,0,2,,,,,,,1,,,65,100
119976,note_on,,216,0,1,,,,,,,0,,,46,0
119988,note_on,,228,0,2,,,,,,,1,,,65,0
119988,note_on,,12,0,1,,,,,,,0,,,58,0
120000,note_on,,12,0,2,,,,,,,1,,,65,100
120000,note_on,,12,0,1,,,,,,,0,,,47,100
120000,note_on,,0,0,1,,,,,,,0,,,62,100
120000,note_on,,0,0,1,,,,,,,0,,,53,100
120228,note_on,,228,0,1,,,,,,,0,,,53,0
120228,note_on,,0,0,1,,,,,,,0,,,62,0
120240,note_on,,12,0,1,,,,,,,0,,,59,100
120456,note_on,,456,0,2,,,,,,,1,,,65,0
120468,note_on,,228,0,1,,,,,,,0,,,59,0
120480,note_on,,0,0,1,,,,,,,0,,,63,100
120480,note_on,,12,0,1,,,,,,,0,,,54,100
120480,note_on,,24,0,2,,,,,,,1,,,63,100
120708,note_on,,0,0,1,,,,,,,0,,,54,0
120708,note_on,,228,0,1,,,,,,,0,,,63,0
120720,note_on,,12,0,1,,,,,,,0,,,56,100
120936,note_on,,456,0,2,,,,,,,1,,,63,0
120936,note_on,,216,0,1,,,,,,,0,,,47,0
120948,note_on,,12,0,1,,,,,,,0,,,56,0
120960,note_on,,0,0,1,,,,,,,0,,,59,100
120960,note_on,,0,0,1,,,,,,,0,,,53,100
120960,note_on,,12,0,1,,,,,,,0,,,49,100
120960,note_on,,24,0,2,,,,,,,1,,,61,100
121008,control_change,,48,0,2,,,,,7,101,1,,,,
121104,control_change,,96,0,2,,,,,7,102,1,,,,
121176,control_change,,72,0,2,,,,,7,103,1,,,,
121188,note_on,,12,0,2,,,,,,,1,,,61,0
121188,note_on,,0,0,1,,,,,,,0,,,59,0
121188,note_on,,228,0,1,,,,,,,0,,,53,0
121200,note_on,,12,0,2,,,,,,,1,,,65,100
121200,note_on,,12,0,1,,,,,,,0,,,56,100
121272,control_change,,72,0,2,,,,,7,104,1,,,,
121344,control_change,,72,0,2,,,,,7,105,1,,,,
121416,note_on,,216,0,1,,,,,,,0,,,49,0
121428,note_on,,12,0,1,,,,,,,0,,,56,0
121428,note_on,,84,0,2,,,,,,,1,,,65,0
121440,note_on,,0,0,1,,,,,,,0,,,59,100
121440,note_on,,12,0,1,,,,,,,0,,,37,100
121440,control_change,,12,0,2,,,,,7,106,1,,,,
121440,note_on,,0,0,2,,,,,,,1,,,68,100
121440,note_on,,0,0,1,,,,,,,0,,,53,100
121512,control_change,,72,0,2,,,,,7,107,1,,,,
121608,control_change,,96,0,2,,,,,7,108,1,,,,
121668,note_on,,228,0,1,,,,,,,0,,,59,0
121668,note_on,,0,0,1,,,,,,,0,,,53,0
121668,note_on,,60,0,2,,,,,,,1,,,68,0
121680,control_change,,12,0,2,,,,,7,109,1,,,,
121680,note_on,,0,0,2,,,,,,,1,,,71,100
121680,note_on,,12,0,1,,,,,,,0,,,49,100
121776,control_change,,96,0,2,,,,,7,110,1,,,,
121896,note_on,,216,0,1,,,,,,,0,,,37,0
121908,note_on,,132,0,2,,,,,,,1,,,71,0
121908,note_on,,12,0,1,,,,,,,0,,,49,0
121920,note_on,,12,0,2,,,,,,,1,,,71,100
121920,note_on,,12,0,1,,,,,,,0,,,42,100
121968,control_change,,48,0,2,,,,,7,109,1,,,,
122064,control_change,,96,0,2,,,,,7,108,1,,,,
122136,control_change,,72,0,2,,,,,7,107,1,,,,
122160,note_on,,240,0,1,,,,,,,0,,,49,100
122232,control_change,,96,0,2,,,,,7,106,1,,,,
122304,control_change,,72,0,2,,,,,7,105,1,,,,
122376,note_on,,72,0,2,,,,,,,1,,,71,0
122388,note_on,,228,0,1,,,,,,,0,,,49,0
122400,note_on,,0,0,1,,,,,,,0,,,58,100
122400,note_on,,12,0,1,,,,,,,0,,,54,100
122400,note_on,,24,0,2,,,,,,,1,,,70,100
122400,control_change,,0,0,2,,,,,7,104,1,,,,
122472,control_change,,72,0,2,,,,,7,103,1,,,,
122568,control_change,,96,0,2,,,,,7,102,1,,,,
122628,note_on,,0,0,1,,,,,,,0,,,54,0
122628,note_on,,228,0,1,,,,,,,0,,,58,0
122640,note_on,,12,0,1,,,,,,,0,,,49,100
122640,control_change,,72,0,2,,,,,7,101,1,,,,
122736,control_change,,96,0,2,,,,,7,100,1,,,,
122856,note_on,,216,0,1,,,,,,,0,,,42,0
122856,note_on,,120,0,2,,,,,,,1,,,70,0
122868,note_on,,12,0,1,,,,,,,0,,,49,0
122880,note_on,,24,0,2,,,,,,,1,,,61,100
122880,note_on,,0,0,1,,,,,,,0,,,59,100
122880,note_on,,0,0,1,,,,,,,0,,,53,100
122880,note_on,,12,0,1,,,,,,,0,,,37,100
122928,control_change,,48,0,2,,,,,7,101,1,,,,
123024,control_change,,96,0,2,,,,,7,102,1,,,,
123096,control_change,,72,0,2,,,,,7,103,1,,,,
123108,note_on,,0,0,1,,,,,,,0,,,59,0
123108,note_on,,228,0,1,,,,,,,0,,,53,0
123108,note_on,,12,0,2,,,,,,,1,,,61,0
123120,note_on,,12,0,1,,,,,,,0,,,56,100
123120,note_on,,12,0,2,,,,,,,1,,,65,100
123192,control_change,,72,0,2,,,,,7,104,1,,,,
123264,control_change,,72,0,2,,,,,7,105,1,,,,
123348,note_on,,228,0,1,,,,,,,0,,,56,0
123348,note_on,,84,0,2,,,,,,,1,,,65,0
123360,note_on,,0,0,1,,,,,,,0,,,59,100
123360,note_on,,0,0,2,,,,,,,1,,,68,100
123360,control_change,,12,0,2,,,,,7,106,1,,,,
123360,note_on,,12,0,1,,,,,,,0,,,53,100
123432,control_change,,72,0,2,,,,,7,107,1,,,,
123528,control_change,,96,0,2,,,,,7,108,1,,,,
123588,note_on,,228,0,1,,,,,,,0,,,59,0
123588,note_on,,60,0,2,,,,,,,1,,,68,0
123588,note_on,,0,0,1,,,,,,,0,,,53,0
123600,note_on,,12,0,1,,,,,,,0,,,49,100
123600,control_change,,12,0,2,,,,,7,109,1,,,,
123600,note_on,,0,0,2,,,,,,,1,,,71,100
123696,control_change,,96,0,2,,,,,7,110,1,,,,
123816,note_on,,216,0,1,,,,,,,0,,,37,0
123828,note_on,,12,0,1,,,,,,,0,,,49,0
123828,note_on,,132,0,2,,,,,,,1,,,71,0
123840,note_on,,12,0,2,,,,,,,1,,,71,100
123840,note_on,,12,0,1,,,,,,,0,,,42,100
123888,control_change,,48,0,2,,,,,7,109,1,,,,
123984,control_change,,96,0,2,,,,,7,108,1,,,,
124056,control_change,,72,0,2,,,,,7,107,1,,,,
124080,note_on,,240,0,1,,,,,,,0,,,49,100
124152,control_change,,96,0,2,,,,,7,106,1,,,,
124224,control_change,,72,0,2,,,,,7,105,1,,,,
124296,note_on,,72,0,2,,,,,,,1,,,71,0
124308,note_on,,228,0,1,,,,,,,0,,,49,0
124320,note_on,,12,0,1,,,,,,,0,,,54,100
124320,note_on,,0,0,1,,,,,,,0,,,58,100
124320,note_on,,0,0,2,,,,,,,1,,,70,100
124320,control_change,,24,0,2,,,,,7,104,1,,,,
124392,control_change,,72,0,2,,,,,7,103,1,,,,
124488,control_change,,96,0,2,,,,,7,102,1,,,,
124548,note_on,,0,0,1,,,,,,,0,,,54,0
124548,note_on,,228,0,1,,,,,,,0,,,58,0
124560,note_on,,12,0,1,,,,,,,0,,,49,100
124560,control_change,,72,0,2,,,,,7,101,1,,,,
124656,control_change,,96,0,2,,,,,7,100,1,,,,
124776,note_on,,216,0,1,,,,,,,0,,,42,0
124776,note_on,,120,0,2,,,,,,,1,,,70,0
124788,note_on,,12,0,1,,,,,,,0,,,49,0
124800,note_on,,12,0,1,,,,,,,0,,,46,100
124800,note_on,,24,0,2,,,,,,,1,,,58,100
124848,control_change,,48,0,2,,,,,7,101,1,,,,
124944,control_change,,96,0,2,,,,,7,102,1,,,,
125016,control_change,,72,0,2,,,,,7,103,1,,,,
125028,note_on,,12,0,2,,,,,,,1,,,58,0
125040,note_on,,240,0,1,,,,,,,0,,,56,100
125040,note_on,,12,0,2,,,,,,,1,,,62,100
125112,control_change,,72,0,2,,,,,7,104,1,,,,
125184,control_change,,72,0,2,,,,,7,105,1,,,,
125268,note_on,,228,0,1,,,,,,,0,,,56,0
125268,note_on,,84,0,2,,,,,,,1,,,62,0
125280,control_change,,12,0,2,,,,,7,106,1,,,,
125280,note_on,,0,0,1,,,,,,,0,,,62,100
125280,note_on,,12,0,1,,,,,,,0,,,58,100
125280,note_on,,0,0,2,,,,,,,1,,,65,100
125352,control_change,,72,0,2,,,,,7,107,1,,,,
125448,control_change,,96,0,2,,,,,7,108,1,,,,
125508,note_on,,60,0,2,,,,,,,1,,,65,0
125508,note_on,,0,0,1,,,,,,,0,,,58,0
125508,note_on,,228,0,1,,,,,,,0,,,62,0
125520,note_on,,0,0,2,,,,,,,1,,,68,100
125520,control_change,,12,0,2,,,,,7,109,1,,,,
125520,note_on,,12,0,1,,,,,,,0,,,56,100
125616,control_change,,96,0,2,,,,,7,110,1,,,,
125736,note_on,,216,0,1,,,,,,,0,,,46,0
125748,note_on,,12,0,1,,,,,,,0,,,56,0
125748,note_on,,132,0,2,,,,,,,1,,,68,0
125760,note_on,,12,0,2,,,,,,,1,,,68,100
125760,note_on,,12,0,1,,,,,,,0,,,51,100
125808,control_change,,48,0,2,,,,,7,109,1,,,,
125904,control_change,,96,0,2,,,,,7,108,1,,,,
125976,control_change,,72,0,2,,,,,7,107,1,,,,
126000,note_on,,240,0,1,,,,,,,0,,,55,100
126072,control_change,,96,0,2,,,,,7,106,1,,,,
126144,control_change,,72,0,2,,,,,7,105,1,,,,
126216,note_on,,72,0,2,,,,,,,1,,,68,0
126228,note_on,,228,0,1,,,,,,,0,,,55,0
126240,control_change,,24,0,2,,,,,7,104,1,,,,
126240,note_on,,12,0,1,,,,,,,0,,,58,100
126240,note_on,,0,0,1,,,,,,,0,,,63,100
126240,note_on,,0,0,2,,,,,,,1,,,67,100
126312,control_change,,72,0,2,,,,,7,103,1,,,,
126408,control_change,,96,0,2,,,,,7,102,1,,,,
126468,note_on,,0,0,1,,,,,,,0,,,58,0
126468,note_on,,228,0,1,,,,,,,0,,,63,0
126480,control_change,,72,0,2,,,,,7,101,1,,,,
126480,note_on,,12,0,1,,,,,,,0,,,55,100
126576,control_change,,96,0,2,,,,,7,100,1,,,,
126696,note_on,,120,0,2,,,,,,,1,,,67,0
126696,note_on,,216,0,1,,,,,,,0,,,51,0
126708,note_on,,12,0,1,,,,,,,0,,,55,0
126720,note_on,,24,0,2,,,,,,,1,,,63,100
126720,note_on,,12,0,1,,,,,,,0,,,44,100
126948,note_on,,228,0,2,,,,,,,1,,,63,0
126960,note_on,,12,0,2,,,,,,,1,,,75,100
126960,note_on,,240,0,1,,,,,,,0,,,60,100
127176,note_on,,216,0,1,,,,,,,0,,,44,0
127188,note_on,,12,0,1,,,,,,,0,,,60,0
127188,note_on,,228,0,2,,,,,,,1,,,75,0
127200,note_on,,12,0,1,,,,,,,0,,,48,100
127200,note_on,,0,0,1,,,,,,,0,,,63,100
127200,note_on,,0,0,1,,,,,,,0,,,68,100
127200,note_on,,12,0,2,,,,,,,1,,,74,100
127428,note_on,,228,0,1,,,,,,,0,,,68,0
127428,note_on,,0,0,1,,,,,,,0,,,63,0
127428,note_on,,228,0,2,,,,,,,1,,,74,0
127440,note_on,,12,0,1,,,,,,,0,,,56,100
127440,note_on,,12,0,2,,,,,,,1,,,72,100
127656,note_on,,216,0,1,,,,,,,0,,,48,0
127668,note_on,,228,0,2,,,,,,,1,,,72,0
127668,note_on,,12,0,1,,,,,,,0,,,56,0
127680,note_on,,12,0,2,,,,,,,1,,,70,100
127680,note_on,,12,0,1,,,,,,,0,,,51,100
127680,note_on,,0,0,1,,,,,,,0,,,63,100
127680,note_on,,0,0,1,,,,,,,0,,,67,100
127908,note_on,,0,0,1,,,,,,,0,,,63,0
127908,note_on,,228,0,1,,,,,,,0,,,67,0
127920,note_on,,12,0,1,,,,,,,0,,,58,100
128136,note_on,,456,0,2,,,,,,,1,,,70,0
128136,note_on,,216,0,1,,,,,,,0,,,51,0
128148,note_on,,12,0,1,,,,,,,0,,,58,0
128160,note_on,,0,0,1,,,,,,,0,,,64,100
128160,note_on,,24,0,2,,,,,,,1,,,72,100
128160,note_on,,12,0,1,,,,,,,0,,,48,100
128160,note_on,,0,0,1,,,,,,,0,,,58,100
128388,note_on,,228,0,2,,,,,,,1,,,72,0
128388,note_on,,0,0,1,,,,,,,0,,,58,0
128388,note_on,,228,0,1,,,,,,,0,,,64,0
128400,note_on,,12,0,2,,,,,,,1,,,70,100
128400,note_on,,12,0,1,,,,,,,0,,,60,100
128616,note_on,,216,0,1,,,,,,,0,,,48,0
128628,note_on,,12,0,1,,,,,,,0,,,60,0
128628,note_on,,228,0,2,,,,,,,1,,,70,0
128640,note_on,,12,0,1,,,,,,,0,,,41,100
128640,note_on,,0,0,1,,,,,,,0,,,56,100
128640,note_on,,12,0,2,,,,,,,1,,,68,100
128640,note_on,,0,0,1,,,,,,,0,,,65,100
128868,note_on,,0,0,1,,,,,,,0,,,56,0
128868,note_on,,228,0,1,,,,,,,0,,,65,0
128868,note_on,,228,0,2,,,,,,,1,,,68,0
128880,note_on,,12,0,2,,,,,,,1,,,68,100
128880,note_on,,12,0,1,,,,,,,0,,,60,100
129096,note_on,,216,0,1,,,,,,,0,,,41,0
129108,note_on,,228,0,2,,,,,,,1,,,68,0
129108,note_on,,12,0,1,,,,,,,0,,,60,0
129120,note_on,,0,0,1,,,,,,,0,,,59,100
129120,note_on,,12,0,2,,,,,,,1,,,67,100
129120,note_on,,12,0,1,,,,,,,0,,,43,100
129120,note_on,,0,0,1,,,,,,,0,,,63,100
129348,note_on,,228,0,2,,,,,,,1,,,67,0
129348,note_on,,228,0,1,,,,,,,0,,,63,0
129348,note_on,,0,0,1,,,,,,,0,,,59,0
129360,note_on,,12,0,2,,,,,,,1,,,65,100
129360,note_on,,12,0,1,,,,,,,0,,,55,100
129576,note_on,,216,0,1,,,,,,,0,,,43,0
129588,note_on,,12,0,1,,,,,,,0,,,55,0
129588,note_on,,228,0,2,,,,,,,1,,,65,0
129600,note_on,,0,0,1,,,,,,,0,,,64,100
129600,note_on,,0,0,1,,,,,,,0,,,58,100
129600,note_on,,12,0,1,,,,,,,0,,,48,100
129600,note_on,,12,0,2,,,,,,,1,,,67,100
129828,note_on,,228,0,2,,,,,,,1,,,67,0
129828,note_on,,0,0,1,,,,,,,0,,,58,0
129828,note_on,,228,0,1,,,,,,,0,,,64,0
129840,note_on,,12,0,2,,,,,,,1,,,68,100
129840,note_on,,12,0,1,,,,,,,0,,,60,100
129897,note_on,,57,0,2,,,,,,,1,,,68,0
129900,note_on,,3,0,2,,,,,,,1,,,67,100
129957,note_on,,57,0,2,,,,,,,1,,,67,0
129960,note_on,,3,0,2,,,,,,,1,,,65,100
130017,note_on,,57,0,2,,,,,,,1,,,65,0
130020,note_on,,3,0,2,,,,,,,1,,,67,100
130056,note_on,,216,0,1,,,,,,,0,,,48,0
130068,note_on,,12,0,1,,,,,,,0,,,60,0
130077,note_on,,57,0,2,,,,,,,1,,,67,0
130080,note_on,,3,0,2,,,,,,,1,,,70,100
130080,note_on,,0,0,1,,,,,,,0,,,65,100
130080,note_on,,12,0,1,,,,,,,0,,,41,100
130080,note_on,,0,0,1,,,,,,,0,,,56,100
130308,note_on,,228,0,2,,,,,,,1,,,70,0
130308,note_on,,228,0,1,,,,,,,0,,,65,0
130308,note_on,,0,0,1,,,,,,,0,,,56,0
130320,note_on,,12,0,1,,,,,,,0,,,60,100
130320,note_on,,12,0,2,,,,,,,1,,,68,100
130536,note_on,,216,0,1,,,,,,,0,,,41,0
130548,note_on,,228,0,2,,,,,,,1,,,68,0
130548,note_on,,12,0,1,,,,,,,0,,,60,0
130560,note_on,,12,0,1,,,,,,,0,,,46,100
130560,note_on,,0,0,1,,,,,,,0,,,63,100
130560,note_on,,0,0,1,,,,,,,0,,,55,100
130560,note_on,,12,0,2,,,,,,,1,,,67,100
130788,note_on,,228,0,1,,,,,,,0,,,63,0
130788,note_on,,0,0,1,,,,,,,0,,,55,0
130788,note_on,,228,0,2,,,,,,,1,,,67,0
130800,note_on,,12,0,2,,,,,,,1,,,67,100
130800,note_on,,12,0,1,,,,,,,0,,,58,100
131016,note_on,,216,0,1,,,,,,,0,,,46,0
131028,note_on,,228,0,2,,,,,,,1,,,67,0
131028,note_on,,12,0,1,,,,,,,0,,,58,0
131040,note_on,,0,0,1,,,,,,,0,,,34,100
131040,note_on,,12,0,2,,,,,,,1,,,67,100
131040,note_on,,12,0,1,,,,,,,0,,,46,100
131040,note_on,,0,0,1,,,,,,,0,,,62,100
131040,note_on,,0,0,1,,,,,,,0,,,56,100
131268,note_on,,228,0,2,,,,,,,1,,,67,0
131268,note_on,,0,0,1,,,,,,,0,,,56,0
131268,note_on,,228,0,1,,,,,,,0,,,62,0
131280,note_on,,12,0,1,,,,,,,0,,,58,100
131280,note_on,,12,0,2,,,,,,,1,,,65,100
131496,note_on,,216,0,1,,,,,,,0,,,34,0
131496,note_on,,0,0,1,,,,,,,0,,,46,0
131508,note_on,,12,0,1,,,,,,,0,,,58,0
131508,note_on,,228,0,2,,,,,,,1,,,65,0
131520,note_on,,12,0,1,,,,,,,0,,,39,100
131520,note_on,,0,0,1,,,,,,,0,,,56,100
131520,note_on,,0,0,1,,,,,,,0,,,62,100
131520,note_on,,0,0,1,,,,,,,0,,,46,100
131520,note_on,,12,0,2,,,,,,,1,,,65,100
131568,control_change,,48,0,2,,,,,7,99,1,,,,
131664,control_change,,96,0,2,,,,,7,98,1,,,,
131736,control_change,,72,0,2,,,,,7,97,1,,,,
131748,note_on,,228,0,1,,,,,,,0,,,62,0
131748,note_on,,0,0,1,,,,,,,0,,,56,0
131760,note_on,,12,0,1,,,,,,,0,,,58,100
131832,control_change,,96,0,2,,,,,7,96,1,,,,
131904,control_change,,72,0,2,,,,,7,95,1,,,,
131976,note_on,,72,0,2,,,,,,,1,,,65,0
131988,note_on,,228,0,1,,,,,,,0,,,58,0
132000,note_on,,0,0,2,,,,,,,1,,,63,100
132000,control_change,,24,0,2,,,,,7,94,1,,,,
132000,note_on,,0,0,1,,,,,,,0,,,63,100
132000,note_on,,12,0,1,,,,,,,0,,,55,100
132072,control_change,,72,0,2,,,,,7,93,1,,,,
132168,control_change,,96,0,2,,,,,7,92,1,,,,
132228,note_on,,228,0,1,,,,,,,0,,,63,0
132228,note_on,,0,0,1,,,,,,,0,,,55,0
132240,control_change,,72,0,2,,,,,7,91,1,,,,
132240,note_on,,12,0,1,,,,,,,0,,,58,100
132336,control_change,,96,0,2,,,,,7,90,1,,,,
132456,note_on,,120,0,2,,,,,,,1,,,63,0
132456,note_on,,216,0,1,,,,,,,0,,,46,0
132456,note_on,,0,0,1,,,,,,,0,,,39,0
132468,note_on,,12,0,1,,,,,,,0,,,58,0
132480,note_on,,0,0,1,,,,,,,0,,,59,100
132480,note_on,,0,0,1,,,,,,,0,,,44,100
132480,note_on,,0,0,1,,,,,,,0,,,63,100
132480,note_on,,12,0,1,,,,,,,0,,,56,100
132480,note_on,,24,0,2,,,,,,,1,,,63,100
132822,note_on,,342,0,2,,,,,,,1,,,63,0
132840,note_on,,18,0,2,,,,,,,1,,,65,100
132936,note_on,,0,0,1,,,,,,,0,,,63,0
132936,note_on,,0,0,1,,,,,,,0,,,59,0
132936,note_on,,0,0,1,,,,,,,0,,,56,0
132936,note_on,,456,0,1,,,,,,,0,,,44,0
132954,note_on,,114,0,2,,,,,,,1,,,65,0
132960,note_on,,6,0,2,,,,,,,1,,,66,100
132960,note_on,,24,0,1,,,,,,,0,,,56,100
132960,note_on,,0,0,1,,,,,,,0,,,59,100
132960,note_on,,0,0,1,,,,,,,0,,,44,100
132960,note_on,,0,0,1,,,,,,,0,,,63,100
133188,note_on,,228,0,1,,,,,,,0,,,44,0
133188,note_on,,0,0,1,,,,,,,0,,,56,0
133188,note_on,,228,0,2,,,,,,,1,,,66,0
133188,note_on,,0,0,1,,,,,,,0,,,59,0
133188,note_on,,0,0,1,,,,,,,0,,,63,0
133200,note_on,,12,0,1,,,,,,,0,,,44,100
133200,note_on,,0,0,1,,,,,,,0,,,56,100
133200,note_on,,0,0,1,,,,,,,0,,,63,100
133200,note_on,,0,0,1,,,,,,,0,,,59,100
133200,note_on,,12,0,2,,,,,,,1,,,68,100
133428,note_on,,228,0,2,,,,,,,1,,,68,0
133428,note_on,,228,0,1,,,,,,,0,,,63,0
133428,note_on,,0,0,1,,,,,,,0,,,59,0
133428,note_on,,0,0,1,,,,,,,0,,,56,0
133428,note_on,,0,0,1,,,,,,,0,,,44,0
133440,note_on,,12,0,1,,,,,,,0,,,39,100
133440,note_on,,12,0,2,,,,,,,1,,,66,100
133440,note_on,,0,0,1,,,,,,,0,,,51,100
133440,note_on,,0,0,1,,,,,,,0,,,63,100
133440,note_on,,0,0,1,,,,,,,0,,,58,100
133440,note_on,,0,0,1,,,,,,,0,,,54,100
133896,note_on,,456,0,1,,,,,,,0,,,54,0
133896,note_on,,0,0,1,,,,,,,0,,,58,0
133896,note_on,,0,0,1,,,,,,,0,,,39,0
133896,note_on,,0,0,1,,,,,,,0,,,63,0
133896,note_on,,0,0,1,,,,,,,0,,,51,0
133896,note_on,,456,0,2,,,,,,,1,,,66,0
133920,note_on,,0,0,1,,,,,,,0,,,58,100
133920,note_on,,0,0,1,,,,,,,0,,,39,100
133920,note_on,,0,0,1,,,,,,,0,,,54,100
133920,note_on,,24,0,1,,,,,,,0,,,63,100
133920,note_on,,24,0,2,,,,,,,1,,,63,100
133920,note_on,,0,0,1,,,,,,,0,,,51,100
134376,note_on,,0,0,1,,,,,,,0,,,39,0
134376,note_on,,456,0,2,,,,,,,1,,,63,0
134376,note_on,,456,0,1,,,,,,,0,,,51,0
134376,note_on,,0,0,1,,,,,,,0,,,58,0
134376,note_on,,0,0,1,,,,,,,0,,,63,0
134376,note_on,,0,0,1,,,,,,,0,,,54,0
134400,note_on,,24,0,2,,,,,,,1,,,63,100
134400,note_on,,24,0,1,,,,,,,0,,,44,100
134400,note_on,,0,0,1,,,,,,,0,,,56,100
134400,note_on,,0,0,1,,,,,,,0,,,59,100
134400,note_on,,0,0,1,,,,,,,0,,,63,100
134742,note_on,,342,0,2,,,,,,,1,,,63,0
134760,note_on,,18,0,2,,,,,,,1,,,65,100
134856,note_on,,0,0,1,,,,,,,0,,,59,0
134856,note_on,,0,0,1,,,,,,,0,,,56,0
134856,note_on,,0,0,1,,,,,,,0,,,44,0
134856,note_on,,456,0,1,,,,,,,0,,,63,0
134874,note_on,,114,0,2,,,,,,,1,,,65,0
134880,note_on,,6,0,2,,,,,,,1,,,66,100
134880,note_on,,24,0,1,,,,,,,0,,,44,100
134880,note_on,,0,0,1,,,,,,,0,,,56,100
134880,note_on,,0,0,1,,,,,,,0,,,63,100
134880,note_on,,0,0,1,,,,,,,0,,,59,100
135108,note_on,,0,0,1,,,,,,,0,,,56,0
135108,note_on,,228,0,2,,,,,,,1,,,66,0
135108,note_on,,0,0,1,,,,,,,0,,,44,0
135108,note_on,,228,0,1,,,,,,,0,,,63,0
135108,note_on,,0,0,1,,,,,,,0,,,59,0
135120,note_on,,12,0,1,,,,,,,0,,,44,100
135120,note_on,,0,0,1,,,,,,,0,,,56,100
135120,note_on,,0,0,1,,,,,,,0,,,63,100
135120,note_on,,0,0,1,,,,,,,0,,,59,100
135120,note_on,,12,0,2,,,,,,,1,,,68,100
135348,note_on,,228,0,2,,,,,,,1,,,68,0
135348,note_on,,228,0,1,,,,,,,0,,,63,0
135348,note_on,,0,0,1,,,,,,,0,,,59,0
135348,note_on,,0,0,1,,,,,,,0,,,56,0
135348,note_on,,0,0,1,,,,,,,0,,,44,0
135360,note_on,,0,0,1,,,,,,,0,,,51,100
135360,note_on,,0,0,1,,,,,,,0,,,39,100
135360,note_on,,0,0,1,,,,,,,0,,,54,100
135360,note_on,,12,0,1,,,,,,,0,,,63,100
135360,note_on,,12,0,2,,,,,,,1,,,66,100
135360,note_on,,0,0,1,,,,,,,0,,,58,100
135816,note_on,,0,0,1,,,,,,,0,,,58,0
135816,note_on,,456,0,2,,,,,,,1,,,66,0
135816,note_on,,456,0,1,,,,,,,0,,,51,0
135816,note_on,,0,0,1,,,,,,,0,,,54,0
135816,note_on,,0,0,1,,,,,,,0,,,63,0
135816,note_on,,0,0,1,,,,,,,0,,,39,0
135840,note_on,,24,0,2,,,,,,,1,,,63,100
135840,note_on,,0,0,1,,,,,,,0,,,51,100
135840,note_on,,0,0,1,,,,,,,0,,,39,100
135840,note_on,,0,0,1,,,,,,,0,,,54,100
135840,note_on,,0,0,1,,,,,,,0,,,58,100
135840,note_on,,24,0,1,,,,,,,0,,,63,100
136296,note_on,,456,0,1,,,,,,,0,,,51,0
136296,note_on,,456,0,2,,,,,,,1,,,63,0
136296,note_on,,0,0,1,,,,,,,0,,,39,0
136296,note_on,,0,0,1,,,,,,,0,,,58,0
136296,note_on,,0,0,1,,,,,,,0,,,63,0
136296,note_on,,0,0,1,,,,,,,0,,,54,0
136320,note_on,,0,0,1,,,,,,,0,,,34,100
136320,note_on,,24,0,1,,,,,,,0,,,46,100
136320,note_on,,0,0,1,,,,,,,0,,,62,100
136320,note_on,,0,0,1,,,,,,,0,,,56,100
136320,note_on,,24,0,2,,,,,,,1,,,62,100
136548,note_on,,228,0,2,,,,,,,1,,,62,0
136548,note_on,,0,0,1,,,,,,,0,,,56,0
136548,note_on,,228,0,1,,,,,,,0,,,62,0
136560,note_on,,12,0,2,,,,,,,1,,,63,100
136560,note_on,,12,0,1,,,,,,,0,,,58,100
136776,note_on,,216,0,1,,,,,,,0,,,34,0
136776,note_on,,0,0,1,,,,,,,0,,,46,0
136788,note_on,,228,0,2,,,,,,,1,,,63,0
136788,note_on,,12,0,1,,,,,,,0,,,58,0
136800,note_on,,12,0,1,,,,,,,0,,,56,100
136800,note_on,,0,0,1,,,,,,,0,,,62,100
136800,note_on,,12,0,2,,,,,,,1,,,65,100
137028,note_on,,0,0,1,,,,,,,0,,,56,0
137028,note_on,,228,0,2,,,,,,,1,,,65,0
137028,note_on,,228,0,1,,,,,,,0,,,62,0
137040,note_on,,12,0,2,,,,,,,1,,,66,100
137040,note_on,,12,0,1,,,,,,,0,,,58,100
137268,note_on,,228,0,1,,,,,,,0,,,58,0
137268,note_on,,228,0,2,,,,,,,1,,,66,0
137280,note_on,,12,0,1,,,,,,,0,,,39,100
137280,note_on,,0,0,1,,,,,,,0,,,46,100
137280,note_on,,0,0,1,,,,,,,0,,,54,100
137280,note_on,,0,0,1,,,,,,,0,,,63,100
137280,note_on,,12,0,2,,,,,,,1,,,63,100
137508,note_on,,228,0,1,,,,,,,0,,,63,0
137508,note_on,,0,0,1,,,,,,,0,,,54,0
137508,note_on,,228,0,2,,,,,,,1,,,63,0
137520,control_change,,12,0,2,,,,,7,110,1,,,,
137520,note_on,,12,0,1,,,,,,,0,,,58,100
137520,note_on,,0,0,2,,,,,,,1,,,70,100
137544,control_change,,24,0,2,,,,,7,109,1,,,,
137568,control_change,,24,0,2,,,,,7,108,1,,,,
137592,control_change,,24,0,2,,,,,7,107,1,,,,
137616,control_change,,24,0,2,,,,,7,106,1,,,,
137640,control_change,,24,0,2,,,,,7,105,1,,,,
137664,control_change,,24,0,2,,,,,7,104,1,,,,
137688,control_change,,24,0,2,,,,,7,103,1,,,,
137712,control_change,,24,0,2,,,,,7,102,1,,,,
137736,control_change,,24,0,2,,,,,7,101,1,,,,
137736,note_on,,0,0,1,,,,,,,0,,,39,0
137736,note_on,,216,0,1,,,,,,,0,,,46,0
137748,note_on,,12,0,1,,,,,,,0,,,58,0
137760,control_change,,24,0,2,,,,,7,100,1,,,,
137760,note_on,,0,0,1,,,,,,,0,,,39,100
137760,note_on,,0,0,1,,,,,,,0,,,63,100
137760,note_on,,12,0,1,,,,,,,0,,,46,100
137760,note_on,,0,0,1,,,,,,,0,,,54,100
137784,control_change,,24,0,2,,,,,7,99,1,,,,
137808,control_change,,24,0,2,,,,,7,98,1,,,,
137832,control_change,,24,0,2,,,,,7,97,1,,,,
137856,control_change,,24,0,2,,,,,7,96,1,,,,
137880,control_change,,24,0,2,,,,,7,95,1,,,,
137904,control_change,,24,0,2,,,,,7,94,1,,,,
137928,control_change,,24,0,2,,,,,7,93,1,,,,
137952,control_change,,24,0,2,,,,,7,92,1,,,,
137976,control_change,,24,0,2,,,,,7,91,1,,,,
137976,note_on,,0,0,2,,,,,,,1,,,70,0
137988,note_on,,228,0,1,,,,,,,0,,,63,0
137988,note_on,,0,0,1,,,,,,,0,,,54,0
138000,note_on,,12,0,1,,,,,,,0,,,58,100
138000,note_on,,0,0,2,,,,,,,1,,,63,100
138000,control_change,,24,0,2,,,,,7,90,1,,,,
138216,note_on,,0,0,1,,,,,,,0,,,46,0
138216,note_on,,216,0,1,,,,,,,0,,,39,0
138228,note_on,,12,0,1,,,,,,,0,,,58,0
138228,note_on,,228,0,2,,,,,,,1,,,63,0
138240,note_on,,12,0,2,,,,,,,1,,,62,100
138240,note_on,,0,0,1,,,,,,,0,,,62,100
138240,note_on,,12,0,1,,,,,,,0,,,56,100
138240,note_on,,0,0,1,,,,,,,0,,,34,100
138240,note_on,,0,0,1,,,,,,,0,,,46,100
138468,note_on,,228,0,1,,,,,,,0,,,62,0
138468,note_on,,0,0,1,,,,,,,0,,,56,0
138468,note_on,,228,0,2,,,,,,,1,,,62,0
138480,note_on,,12,0,2,,,,,,,1,,,63,100
138480,note_on,,12,0,1,,,,,,,0,,,58,100
138696,note_on,,0,0,1,,,,,,,0,,,46,0
138696,note_on,,216,0,1,,,,,,,0,,,34,0
138708,note_on,,12,0,1,,,,,,,0,,,58,0
138708,note_on,,228,0,2,,,,,,,1,,,63,0
138720,note_on,,12,0,1,,,,,,,0,,,56,100
138720,note_on,,12,0,2,,,,,,,1,,,65,100
138720,note_on,,0,0,1,,,,,,,0,,,62,100
138948,note_on,,228,0,1,,,,,,,0,,,62,0
138948,note_on,,0,0,1,,,,,,,0,,,56,0
138948,note_on,,228,0,2,,,,,,,1,,,65,0
138960,note_on,,12,0,2,,,,,,,1,,,66,100
138960,note_on,,12,0,1,,,,,,,0,,,58,100
139188,note_on,,228,0,2,,,,,,,1,,,66,0
139188,note_on,,228,0,1,,,,,,,0,,,58,0
139200,note_on,,12,0,2,,,,,,,1,,,65,100
139200,note_on,,12,0,1,,,,,,,0,,,56,100
139200,note_on,,0,0,1,,,,,,,0,,,65,100
139200,note_on,,0,0,1,,,,,,,0,,,34,100
139200,note_on,,0,0,1,,,,,,,0,,,46,100
139428,note_on,,228,0,1,,,,,,,0,,,65,0
139428,note_on,,0,0,1,,,,,,,0,,,56,0
139440,note_on,,12,0,1,,,,,,,0,,,58,100
139656,note_on,,456,0,2,,,,,,,1,,,65,0
139656,note_on,,216,0,1,,,,,,,0,,,46,0
139656,note_on,,0,0,1,,,,,,,0,,,34,0
139668,note_on,,12,0,1,,,,,,,0,,,58,0
139680,note_on,,12,0,1,,,,,,,0,,,54,100
139680,note_on,,0,0,1,,,,,,,0,,,46,100
139680,note_on,,0,0,1,,,,,,,0,,,39,100
139680,note_on,,24,0,2,,,,,,,1,,,63,100
139680,note_on,,0,0,1,,,,,,,0,,,63,100
139908,note_on,,228,0,1,,,,,,,0,,,63,0
139908,note_on,,0,0,1,,,,,,,0,,,54,0
139908,note_on,,228,0,2,,,,,,,1,,,63,0
139920,note_on,,12,0,1,,,,,,,0,,,58,100
140136,note_on,,216,0,1,,,,,,,0,,,39,0
140136,note_on,,0,0,1,,,,,,,0,,,46,0
140148,note_on,,12,0,1,,,,,,,0,,,58,0
140160,note_on,,0,0,1,,,,,,,0,,,56,100
140160,note_on,,12,0,1,,,,,,,0,,,44,100
140160,note_on,,252,0,2,,,,,,,1,,,63,100
140160,note_on,,0,0,1,,,,,,,0,,,59,100
140160,note_on,,0,0,1,,,,,,,0,,,63,100
140502,note_on,,342,0,2,,,,,,,1,,,63,0
140520,note_on,,18,0,2,,,,,,,1,,,65,100
140616,note_on,,456,0,1,,,,,,,0,,,63,0
140616,note_on,,0,0,1,,,,,,,0,,,44,0
140616,note_on,,0,0,1,,,,,,,0,,,59,0
140616,note_on,,0,0,1,,,,,,,0,,,56,0
140634,note_on,,114,0,2,,,,,,,1,,,65,0
140640,note_on,,6,0,2,,,,,,,1,,,66,100
140640,note_on,,0,0,1,,,,,,,0,,,63,100
140640,note_on,,0,0,1,,,,,,,0,,,59,100
140640,note_on,,0,0,1,,,,,,,0,,,56,100
140640,note_on,,24,0,1,,,,,,,0,,,44,100
140868,note_on,,228,0,2,,,,,,,1,,,66,0
140868,note_on,,0,0,1,,,,,,,0,,,44,0
140868,note_on,,0,0,1,,,,,,,0,,,56,0
140868,note_on,,0,0,1,,,,,,,0,,,59,0
140868,note_on,,228,0,1,,,,,,,0,,,63,0
140880,note_on,,12,0,2,,,,,,,1,,,68,100
140880,note_on,,12,0,1,,,,,,,0,,,44,100
140880,note_on,,0,0,1,,,,,,,0,,,56,100
140880,note_on,,0,0,1,,,,,,,0,,,63,100
140880,note_on,,0,0,1,,,,,,,0,,,59,100
141108,note_on,,228,0,1,,,,,,,0,,,63,0
141108,note_on,,228,0,2,,,,,,,1,,,68,0
141108,note_on,,0,0,1,,,,,,,0,,,59,0
141108,note_on,,0,0,1,,,,,,,0,,,56,0
141108,note_on,,0,0,1,,,,,,,0,,,44,0
141120,note_on,,0,0,1,,,,,,,0,,,58,100
141120,note_on,,0,0,1,,,,,,,0,,,51,100
141120,note_on,,12,0,2,,,,,,,1,,,66,100
141120,note_on,,0,0,1,,,,,,,0,,,54,100
141120,note_on,,0,0,1,,,,,,,0,,,39,100
141120,note_on,,12,0,1,,,,,,,0,,,63,100
141576,note_on,,0,0,1,,,,,,,0,,,54,0
141576,note_on,,0,0,1,,,,,,,0,,,63,0
141576,note_on,,456,0,2,,,,,,,1,,,66,0
141576,note_on,,0,0,1,,,,,,,0,,,39,0
141576,note_on,,456,0,1,,,,,,,0,,,51,0
141576,note_on,,0,0,1,,,,,,,0,,,58,0
141600,note_on,,0,0,1,,,,,,,0,,,39,100
141600,note_on,,0,0,1,,,,,,,0,,,58,100
141600,note_on,,0,0,1,,,,,,,0,,,54,100
141600,note_on,,0,0,1,,,,,,,0,,,51,100
141600,note_on,,24,0,1,,,,,,,0,,,63,100
141600,note_on,,24,0,2,,,,,,,1,,,63,100
142056,note_on,,0,0,1,,,,,,,0,,,54,0
142056,note_on,,0,0,1,,,,,,,0,,,39,0
142056,note_on,,456,0,1,,,,,,,0,,,51,0
142056,note_on,,0,0,1,,,,,,,0,,,63,0
142056,note_on,,456,0,2,,,,,,,1,,,63,0
142056,note_on,,0,0,1,,,,,,,0,,,58,0
142080,note_on,,24,0,2,,,,,,,1,,,63,100
142080,note_on,,0,0,1,,,,,,,0,,,59,100
142080,note_on,,0,0,1,,,,,,,0,,,56,100
142080,note_on,,24,0,1,,,,,,,0,,,44,100
142080,note_on,,0,0,1,,,,,,,0,,,63,100
142422,note_on,,342,0,2,,,,,,,1,,,63,0
142440,note_on,,18,0,2,,,,,,,1,,,65,100
142536,note_on,,456,0,1,,,,,,,0,,,63,0
142536,note_on,,0,0,1,,,,,,,0,,,59,0
142536,note_on,,0,0,1,,,,,,,0,,,56,0
142536,note_on,,0,0,1,,,,,,,0,,,44,0
142554,note_on,,114,0,2,,,,,,,1,,,65,0
142560,note_on,,24,0,1,,,,,,,0,,,44,100
142560,note_on,,0,0,1,,,,,,,0,,,56,100
142560,note_on,,0,0,1,,,,,,,0,,,59,100
142560,note_on,,0,0,1,,,,,,,0,,,63,100
142560,note_on,,6,0,2,,,,,,,1,,,66,100
142788,note_on,,0,0,1,,,,,,,0,,,56,0
142788,note_on,,0,0,1,,,,,,,0,,,59,0
142788,note_on,,228,0,2,,,,,,,1,,,66,0
142788,note_on,,228,0,1,,,,,,,0,,,63,0
142788,note_on,,0,0,1,,,,,,,0,,,44,0
142800,note_on,,0,0,1,,,,,,,0,,,56,100
142800,note_on,,0,0,1,,,,,,,0,,,59,100
142800,note_on,,0,0,1,,,,,,,0,,,63,100
142800,note_on,,12,0,1,,,,,,,0,,,44,100
142800,note_on,,12,0,2,,,,,,,1,,,68,100
143028,note_on,,228,0,1,,,,,,,0,,,63,0
143028,note_on,,0,0,1,,,,,,,0,,,59,0
143028,note_on,,0,0,1,,,,,,,0,,,56,0
143028,note_on,,0,0,1,,,,,,,0,,,44,0
143028,note_on,,228,0,2,,,,,,,1,,,68,0
143040,note_on,,12,0,2,,,,,,,1,,,66,100
143040,note_on,,0,0,1,,,,,,,0,,,58,100
143040,note_on,,0,0,1,,,,,,,0,,,51,100
143040,note_on,,0,0,1,,,,,,,0,,,39,100
143040,note_on,,0,0,1,,,,,,,0,,,54,100
143040,note_on,,12,0,1,,,,,,,0,,,63,100
143496,note_on,,456,0,2,,,,,,,1,,,66,0
143496,note_on,,0,0,1,,,,,,,0,,,54,0
143496,note_on,,0,0,1,,,,,,,0,,,58,0
143496,note_on,,0,0,1,,,,,,,0,,,39,0
143496,note_on,,456,0,1,,,,,,,0,,,51,0
143496,note_on,,0,0,1,,,,,,,0,,,63,0
143520,note_on,,24,0,1,,,,,,,0,,,63,100
143520,note_on,,24,0,2,,,,,,,1,,,63,100
143520,note_on,,0,0,1,,,,,,,0,,,54,100
143520,note_on,,0,0,1,,,,,,,0,,,57,100
143520,note_on,,0,0,1,,,,,,,0,,,35,100
143520,note_on,,0,0,1,,,,,,,0,,,47,100
143976,note_on,,456,0,2,,,,,,,1,,,63,0
143976,note_on,,0,0,1,,,,,,,0,,,57,0
143976,note_on,,0,0,1,,,,,,,0,,,54,0
143976,note_on,,0,0,1,,,,,,,0,,,63,0
143976,note_on,,0,0,1,,,,,,,0,,,35,0
143976,note_on,,456,0,1,,,,,,,0,,,47,0
144000,note_on,,0,0,1,,,,,,,0,,,46,100
144000,note_on,,0,0,1,,,,,,,0,,,62,100
144000,note_on,,24,0,1,,,,,,,0,,,56,100
144000,note_on,,0,0,1,,,,,,,0,,,34,100
144000,note_on,,24,0,2,,,,,,,1,,,62,100
144228,note_on,,228,0,2,,,,,,,1,,,62,0
144228,note_on,,0,0,1,,,,,,,0,,,56,0
144228,note_on,,228,0,1,,,,,,,0,,,62,0
144240,note_on,,12,0,1,,,,,,,0,,,58,100
144240,note_on,,12,0,2,,,,,,,1,,,63,100
144456,note_on,,0,0,1,,,,,,,0,,,46,0
144456,note_on,,216,0,1,,,,,,,0,,,34,0
144468,note_on,,12,0,1,,,,,,,0,,,58,0
144468,note_on,,228,0,2,,,,,,,1,,,63,0
144480,note_on,,12,0,1,,,,,,,0,,,56,100
144480,note_on,,12,0,2,,,,,,,1,,,65,100
144480,note_on,,0,0,1,,,,,,,0,,,62,100
144708,note_on,,0,0,1,,,,,,,0,,,56,0
144708,note_on,,228,0,1,,,,,,,0,,,62,0
144708,note_on,,228,0,2,,,,,,,1,,,65,0
144720,note_on,,12,0,2,,,,,,,1,,,66,100
144720,note_on,,12,0,1,,,,,,,0,,,58,100
144948,note_on,,228,0,2,,,,,,,1,,,66,0
144948,note_on,,228,0,1,,,,,,,0,,,58,0
144960,note_on,,12,0,2,,,,,,,1,,,63,100
144960,note_on,,12,0,1,,,,,,,0,,,54,100
144960,note_on,,0,0,1,,,,,,,0,,,39,100
144960,note_on,,0,0,1,,,,,,,0,,,63,100
144960,note_on,,0,0,1,,,,,,,0,,,46,100
145188,note_on,,228,0,2,,,,,,,1,,,63,0
145188,note_on,,228,0,1,,,,,,,0,,,63,0
145188,note_on,,0,0,1,,,,,,,0,,,54,0
145200,note_on,,0,0,2,,,,,,,1,,,70,100
145200,control_change,,12,0,2,,,,,7,110,1,,,,
145200,note_on,,12,0,1,,,,,,,0,,,58,100
145224,control_change,,24,0,2,,,,,7,109,1,,,,
145248,control_change,,24,0,2,,,,,7,108,1,,,,
145272,control_change,,24,0,2,,,,,7,107,1,,,,
145296,control_change,,24,0,2,,,,,7,106,1,,,,
145320,control_change,,24,0,2,,,,,7,105,1,,,,
145344,control_change,,24,0,2,,,,,7,104,1,,,,
145368,control_change,,24,0,2,,,,,7,103,1,,,,
145392,control_change,,24,0,2,,,,,7,102,1,,,,
145416,note_on,,216,0,1,,,,,,,0,,,46,0
145416,note_on,,0,0,1,,,,,,,0,,,39,0
145416,control_change,,24,0,2,,,,,7,101,1,,,,
145428,note_on,,12,0,1,,,,,,,0,,,58,0
145440,control_change,,24,0,2,,,,,7,100,1,,,,
145440,note_on,,0,0,1,,,,,,,0,,,39,100
145440,note_on,,12,0,1,,,,,,,0,,,54,100
145440,note_on,,0,0,1,,,,,,,0,,,46,100
145440,note_on,,0,0,1,,,,,,,0,,,63,100
145464,control_change,,24,0,2,,,,,7,99,1,,,,
145488,control_change,,24,0,2,,,,,7,98,1,,,,
145512,control_change,,24,0,2,,,,,7,97,1,,,,
145536,control_change,,24,0,2,,,,,7,96,1,,,,
145560,control_change,,24,0,2,,,,,7,95,1,,,,
145584,control_change,,24,0,2,,,,,7,94,1,,,,
145608,control_change,,24,0,2,,,,,7,93,1,,,,
145632,control_change,,24,0,2,,,,,7,92,1,,,,
145656,control_change,,24,0,2,,,,,7,91,1,,,,
145656,note_on,,0,0,2,,,,,,,1,,,70,0
145668,note_on,,0,0,1,,,,,,,0,,,54,0
145668,note_on,,228,0,1,,,,,,,0,,,63,0
145680,control_change,,24,0,2,,,,,7,90,1,,,,
145680,note_on,,0,0,2,,,,,,,1,,,63,100
145680,note_on,,12,0,1,,,,,,,0,,,58,100
145896,note_on,,0,0,1,,,,,,,0,,,46,0
145896,note_on,,216,0,1,,,,,,,0,,,39,0
145908,note_on,,228,0,2,,,,,,,1,,,63,0
145908,note_on,,12,0,1,,,,,,,0,,,58,0
145920,note_on,,0,0,1,,,,,,,0,,,34,100
145920,note_on,,12,0,2,,,,,,,1,,,62,100
145920,note_on,,0,0,1,,,,,,,0,,,46,100
145920,note_on,,12,0,1,,,,,,,0,,,56,100
145920,note_on,,0,0,1,,,,,,,0,,,62,100
146148,note_on,,228,0,2,,,,,,,1,,,62,0
146148,note_on,,0,0,1,,,,,,,0,,,56,0
146148,note_on,,228,0,1,,,,,,,0,,,62,0
146160,note_on,,12,0,1,,,,,,,0,,,58,100
146160,note_on,,12,0,2,,,,,,,1,,,63,100
146376,note_on,,0,0,1,,,,,,,0,,,46,0
146376,note_on,,216,0,1,,,,,,,0,,,34,0
146388,note_on,,12,0,1,,,,,,,0,,,58,0
146388,note_on,,228,0,2,,,,,,,1,,,63,0
146400,note_on,,12,0,2,,,,,,,1,,,65,100
146400,note_on,,12,0,1,,,,,,,0,,,56,100
146400,note_on,,0,0,1,,,,,,,0,,,62,100
146628,note_on,,228,0,2,,,,,,,1,,,65,0
146628,note_on,,228,0,1,,,,,,,0,,,62,0
146628,note_on,,0,0,1,,,,,,,0,,,56,0
146640,note_on,,12,0,1,,,,,,,0,,,58,100
146640,note_on,,12,0,2,,,,,,,1,,,66,100
146868,note_on,,228,0,1,,,,,,,0,,,58,0
146868,note_on,,228,0,2,,,,,,,1,,,66,0
146880,note_on,,12,0,1,,,,,,,0,,,56,100
146880,note_on,,0,0,1,,,,,,,0,,,65,100
146880,note_on,,0,0,1,,,,,,,0,,,34,100
146880,note_on,,12,0,2,,,,,,,1,,,65,100
146880,note_on,,0,0,1,,,,,,,0,,,46,100
147108,note_on,,0,0,1,,,,,,,0,,,56,0
147108,note_on,,228,0,1,,,,,,,0,,,65,0
147120,note_on,,12,0,1,,,,,,,0,,,58,100
147336,note_on,,0,0,1,,,,,,,0,,,34,0
147336,note_on,,216,0,1,,,,,,,0,,,46,0
147336,note_on,,456,0,2,,,,,,,1,,,65,0
147348,note_on,,12,0,1,,,,,,,0,,,58,0
147360,note_on,,0,0,1,,,,,,,0,,,39,100
147360,note_on,,0,0,1,,,,,,,0,,,46,100
147360,note_on,,24,0,2,,,,,,,1,,,63,100
147360,note_on,,12,0,1,,,,,,,0,,,54,100
147360,note_on,,0,0,1,,,,,,,0,,,63,100
147588,note_on,,0,0,1,,,,,,,0,,,54,0
147588,note_on,,228,0,1,,,,,,,0,,,63,0
147600,note_on,,12,0,1,,,,,,,0,,,58,100
147816,note_on,,456,0,2,,,,,,,1,,,63,0
147816,note_on,,0,0,1,,,,,,,0,,,39,0
147816,note_on,,216,0,1,,,,,,,0,,,46,0
147828,note_on,,12,0,1,,,,,,,0,,,58,0
147840,note_on,,12,0,1,,,,,,,0,,,75,100
147840,note_on,,0,0,1,,,,,,,0,,,63,100
147840,note_on,,0,0,1,,,,,,,0,,,39,100
147840,note_on,,0,0,1,,,,,,,0,,,46,100
147840,note_on,,0,0,1,,,,,,,0,,,54,100
148068,note_on,,228,0,1,,,,,,,0,,,63,0
148068,note_on,,0,0,1,,,,,,,0,,,75,0
148080,note_on,,12,0,1,,,,,,,0,,,74,100
148296,note_on,,0,0,1,,,,,,,0,,,46,0
148296,note_on,,0,0,1,,,,,,,0,,,39,0
148296,note_on,,216,0,1,,,,,,,0,,,54,0
148308,note_on,,12,0,1,,,,,,,0,,,74,0
148320,note_on,,12,0,1,,,,,,,0,,,75,100
148320,note_on,,0,0,1,,,,,,,0,,,63,100
148320,note_on,,0,0,1,,,,,,,0,,,39,100
148320,note_on,,0,0,1,,,,,,,0,,,46,100
148320,note_on,,0,0,1,,,,,,,0,,,54,100
148776,note_on,,456,0,1,,,,,,,0,,,54,0
148776,note_on,,0,0,1,,,,,,,0,,,39,0
148776,note_on,,0,0,1,,,,,,,0,,,63,0
148776,note_on,,0,0,1,,,,,,,0,,,75,0
148776,note_on,,0,0,1,,,,,,,0,,,46,0
148800,note_on,,24,0,1,,,,,,,0,,,63,100
148800,note_on,,0,0,1,,,,,,,0,,,71,100
148800,note_on,,0,0,1,,,,,,,0,,,39,100
148800,note_on,,0,0,1,,,,,,,0,,,46,100
148800,note_on,,0,0,1,,,,,,,0,,,54,100
149256,note_on,,0,0,1,,,,,,,0,,,63,0
149256,note_on,,0,0,1,,,,,,,0,,,46,0
149256,note_on,,0,0,1,,,,,,,0,,,39,0
149256,note_on,,0,0,1,,,,,,,0,,,71,0
149256,note_on,,456,0,1,,,,,,,0,,,54,0
149280,note_on,,24,0,1,,,,,,,0,,,39,100
149280,note_on,,0,0,1,,,,,,,0,,,46,100
149280,note_on,,0,0,1,,,,,,,0,,,54,100
149280,note_on,,0,0,1,,,,,,,0,,,63,100
149280,note_on,,0,0,1,,,,,,,0,,,73,100
149304,set_tempo,577537,32184,1,0,,,,,,,,,,,
149328,set_tempo,578561,24,1,0,,,,,,,,,,,
149337,note_on,,57,0,1,,,,,,,0,,,73,0
149340,note_on,,3,0,1,,,,,,,0,,,71,100
149352,set_tempo,579329,24,1,0,,,,,,,,,,,
149376,set_tempo,580097,24,1,0,,,,,,,,,,,
149400,set_tempo,580865,24,1,0,,,,,,,,,,,
149424,set_tempo,581889,24,1,0,,,,,,,,,,,
149424,control_change,,84,0,1,,,,,7,82,0,,,,
149448,set_tempo,582657,24,1,0,,,,,,,,,,,
149472,set_tempo,583425,24,1,0,,,,,,,,,,,
149496,set_tempo,584193,24,1,0,,,,,,,,,,,
149520,set_tempo,585217,24,1,0,,,,,,,,,,,
149544,set_tempo,585985,24,1,0,,,,,,,,,,,
149568,set_tempo,586753,24,1,0,,,,,,,,,,,
149592,set_tempo,587777,24,1,0,,,,,,,,,,,
149616,set_tempo,588545,24,1,0,,,,,,,,,,,
149640,set_tempo,589313,24,1,0,,,,,,,,,,,
149664,set_tempo,590337,24,1,0,,,,,,,,,,,
149688,set_tempo,591105,24,1,0,,,,,,,,,,,
149712,control_change,,288,0,1,,,,,7,81,0,,,,
149712,set_tempo,592129,24,1,0,,,,,,,,,,,
149736,note_on,,24,0,1,,,,,,,0,,,54,0
149736,note_on,,0,0,1,,,,,,,0,,,46,0
149736,note_on,,0,0,1,,,,,,,0,,,39,0
149736,set_tempo,592897,24,1,0,,,,,,,,,,,
149760,set_tempo,593665,24,1,0,,,,,,,,,,,
149760,note_on,,24,0,1,,,,,,,0,,,39,100
149760,note_on,,0,0,1,,,,,,,0,,,54,100
149760,note_on,,0,0,1,,,,,,,0,,,46,100
149784,set_tempo,594689,24,1,0,,,,,,,,,,,
149808,set_tempo,595457,24,1,0,,,,,,,,,,,
149832,set_tempo,596481,24,1,0,,,,,,,,,,,
149856,set_tempo,597249,24,1,0,,,,,,,,,,,
149880,set_tempo,598273,24,1,0,,,,,,,,,,,
149904,set_tempo,599041,24,1,0,,,,,,,,,,,
149928,set_tempo,599809,24,1,0,,,,,,,,,,,
149952,set_tempo,600833,24,1,0,,,,,,,,,,,
149976,set_tempo,601601,24,1,0,,,,,,,,,,,
150000,set_tempo,602625,24,1,0,,,,,,,,,,,
150000,control_change,,240,0,1,,,,,7,80,0,,,,
150024,set_tempo,603649,24,1,0,,,,,,,,,,,
150048,set_tempo,604417,24,1,0,,,,,,,,,,,
150072,set_tempo,605441,24,1,0,,,,,,,,,,,
150096,set_tempo,606209,24,1,0,,,,,,,,,,,
150120,set_tempo,607233,24,1,0,,,,,,,,,,,
150144,set_tempo,608001,24,1,0,,,,,,,,,,,
150168,set_tempo,609025,24,1,0,,,,,,,,,,,
150192,set_tempo,609793,24,1,0,,,,,,,,,,,
150216,note_on,,0,0,1,,,,,,,0,,,63,0
150216,note_on,,0,0,1,,,,,,,0,,,39,0
150216,note_on,,0,0,1,,,,,,,0,,,46,0
150216,note_on,,216,0,1,,,,,,,0,,,54,0
150216,set_tempo,610817,24,1,0,,,,,,,,,,,
150219,note_on,,3,0,1,,,,,,,0,,,71,0
150240,note_on,,0,0,1,,,,,,,0,,,54,100
150240,note_on,,0,0,1,,,,,,,0,,,46,100
150240,note_on,,21,0,1,,,,,,,0,,,39,100
150240,set_tempo,611841,24,1,0,,,,,,,,,,,
150240,note_on,,0,0,1,,,,,,,0,,,63,100
150240,note_on,,0,0,1,,,,,,,0,,,70,100
150264,set_tempo,612609,24,1,0,,,,,,,,,,,
150288,set_tempo,613633,24,1,0,,,,,,,,,,,
150288,control_change,,48,0,1,,,,,7,79,0,,,,
150312,set_tempo,614657,24,1,0,,,,,,,,,,,
150336,set_tempo,615425,24,1,0,,,,,,,,,,,
150360,set_tempo,616449,24,1,0,,,,,,,,,,,
150384,set_tempo,617473,24,1,0,,,,,,,,,,,
150408,set_tempo,618241,24,1,0,,,,,,,,,,,
150432,set_tempo,619265,24,1,0,,,,,,,,,,,
150456,set_tempo,620289,24,1,0,,,,,,,,,,,
150480,set_tempo,621057,24,1,0,,,,,,,,,,,
150504,set_tempo,622081,24,1,0,,,,,,,,,,,
150528,set_tempo,623105,24,1,0,,,,,,,,,,,
150552,set_tempo,624129,24,1,0,,,,,,,,,,,
150576,set_tempo,624897,24,1,0,,,,,,,,,,,
150576,control_change,,288,0,1,,,,,7,78,0,,,,
150600,set_tempo,625921,24,1,0,,,,,,,,,,,
150624,set_tempo,626945,24,1,0,,,,,,,,,,,
150648,set_tempo,627969,24,1,0,,,,,,,,,,,
150672,set_tempo,628993,24,1,0,,,,,,,,,,,
150696,note_on,,0,0,1,,,,,,,0,,,46,0
150696,note_on,,0,0,1,,,,,,,0,,,39,0
150696,note_on,,0,0,1,,,,,,,0,,,54,0
150696,note_on,,120,0,1,,,,,,,0,,,70,0
150696,set_tempo,629761,24,1,0,,,,,,,,,,,
150696,note_on,,0,0,1,,,,,,,0,,,63,0
150720,set_tempo,630785,24,1,0,,,,,,,,,,,
150720,note_on,,24,0,1,,,,,,,0,,,39,100
150720,note_on,,0,0,1,,,,,,,0,,,46,100
150720,note_on,,0,0,1,,,,,,,0,,,54,100
150720,note_on,,0,0,1,,,,,,,0,,,63,100
150720,note_on,,0,0,1,,,,,,,0,,,71,100
150744,set_tempo,631809,24,1,0,,,,,,,,,,,
150768,set_tempo,632833,24,1,0,,,,,,,,,,,
150777,note_on,,57,0,1,,,,,,,0,,,71,0
150780,note_on,,3,0,1,,,,,,,0,,,70,100
150792,set_tempo,633857,24,1,0,,,,,,,,,,,
150816,set_tempo,634881,24,1,0,,,,,,,,,,,
150840,set_tempo,635905,24,1,0,,,,,,,,,,,
150864,set_tempo,636929,24,1,0,,,,,,,,,,,
150864,control_change,,84,0,1,,,,,7,77,0,,,,
150888,set_tempo,637953,24,1,0,,,,,,,,,,,
150912,set_tempo,638977,24,1,0,,,,,,,,,,,
150936,set_tempo,639745,24,1,0,,,,,,,,,,,
150951,note_on,,87,0,1,,,,,,,0,,,70,0
150960,note_on,,9,0,1,,,,,,,0,,,69,100
150960,set_tempo,640769,24,1,0,,,,,,,,,,,
150984,set_tempo,641793,24,1,0,,,,,,,,,,,
151008,set_tempo,642817,24,1,0,,,,,,,,,,,
151032,set_tempo,643841,24,1,0,,,,,,,,,,,
151056,set_tempo,644865,24,1,0,,,,,,,,,,,
151080,set_tempo,645889,24,1,0,,,,,,,,,,,
151104,set_tempo,647169,24,1,0,,,,,,,,,,,
151128,set_tempo,648193,24,1,0,,,,,,,,,,,
151152,set_tempo,649217,24,1,0,,,,,,,,,,,
151152,control_change,,192,0,1,,,,,7,76,0,,,,
151176,note_on,,0,0,1,,,,,,,0,,,39,0
151176,note_on,,0,0,1,,,,,,,0,,,46,0
151176,note_on,,24,0,1,,,,,,,0,,,54,0
151176,set_tempo,650241,24,1,0,,,,,,,,,,,
151188,note_on,,12,0,1,,,,,,,0,,,69,0
151200,note_on,,0,0,1,,,,,,,0,,,54,100
151200,note_on,,0,0,1,,,,,,,0,,,46,100
151200,note_on,,12,0,1,,,,,,,0,,,39,100
151200,set_tempo,651265,24,1,0,,,,,,,,,,,
151200,note_on,,0,0,1,,,,,,,0,,,63,100
151200,note_on,,0,0,1,,,,,,,0,,,70,100
151224,set_tempo,652289,24,1,0,,,,,,,,,,,
151247,set_tempo,653313,23,1,0,,,,,,,,,,,
151271,set_tempo,654337,24,1,0,,,,,,,,,,,
151295,set_tempo,655361,24,1,0,,,,,,,,,,,
151319,set_tempo,656385,24,1,0,,,,,,,,,,,
151343,set_tempo,657665,24,1,0,,,,,,,,,,,
151367,set_tempo,658689,24,1,0,,,,,,,,,,,
151391,set_tempo,659713,24,1,0,,,,,,,,,,,
151415,set_tempo,660737,24,1,0,,,,,,,,,,,
151439,set_tempo,662017,24,1,0,,,,,,,,,,,
151439,control_change,,239,0,1,,,,,7,75,0,,,,
151463,set_tempo,663041,24,1,0,,,,,,,,,,,
151487,set_tempo,664065,24,1,0,,,,,,,,,,,
151511,set_tempo,665089,24,1,0,,,,,,,,,,,
151535,set_tempo,666369,24,1,0,,,,,,,,,,,
151559,set_tempo,667393,24,1,0,,,,,,,,,,,
151583,set_tempo,668417,24,1,0,,,,,,,,,,,
151607,set_tempo,669697,24,1,0,,,,,,,,,,,
151631,set_tempo,670721,24,1,0,,,,,,,,,,,
151655,set_tempo,671745,24,1,0,,,,,,,,,,,
151656,note_on,,0,0,1,,,,,,,0,,,46,0
151656,note_on,,0,0,1,,,,,,,0,,,54,0
151656,note_on,,0,0,1,,,,,,,0,,,63,0
151656,note_on,,0,0,1,,,,,,,0,,,70,0
151656,note_on,,217,0,1,,,,,,,0,,,63,0
151656,note_on,,0,0,1,,,,,,,0,,,39,0
151679,set_tempo,673025,24,1,0,,,,,,,,,,,
151680,note_on,,24,0,1,,,,,,,0,,,39,100
151680,note_on,,0,0,1,,,,,,,0,,,46,100
151680,note_on,,0,0,1,,,,,,,0,,,54,100
151680,note_on,,0,0,1,,,,,,,0,,,63,100
151680,note_on,,0,0,1,,,,,,,0,,,66,100
151703,set_tempo,674049,24,1,0,,,,,,,,,,,
151727,control_change,,47,0,1,,,,,7,74,0,,,,
151727,set_tempo,675073,24,1,0,,,,,,,,,,,
151751,set_tempo,676353,24,1,0,,,,,,,,,,,
151775,set_tempo,677377,24,1,0,,,,,,,,,,,
151799,set_tempo,678657,24,1,0,,,,,,,,,,,
151823,set_tempo,679681,24,1,0,,,,,,,,,,,
151847,set_tempo,680961,24,1,0,,,,,,,,,,,
151871,set_tempo,681985,24,1,0,,,,,,,,,,,
151895,set_tempo,683265,24,1,0,,,,,,,,,,,
151919,set_tempo,684289,24,1,0,,,,,,,,,,,
151943,set_tempo,685569,24,1,0,,,,,,,,,,,
151967,set_tempo,686593,24,1,0,,,,,,,,,,,
151991,set_tempo,687873,24,1,0,,,,,,,,,,,
152015,control_change,,288,0,1,,,,,7,73,0,,,,
152015,set_tempo,688897,24,1,0,,,,,,,,,,,
152039,set_tempo,690177,24,1,0,,,,,,,,,,,
152063,set_tempo,691457,24,1,0,,,,,,,,,,,
152087,set_tempo,692481,24,1,0,,,,,,,,,,,
152111,set_tempo,693761,24,1,0,,,,,,,,,,,
152135,set_tempo,695041,24,1,0,,,,,,,,,,,
152136,note_on,,0,0,1,,,,,,,0,,,54,0
152136,note_on,,0,0,1,,,,,,,0,,,63,0
152136,note_on,,121,0,1,,,,,,,0,,,66,0
152136,note_on,,0,0,1,,,,,,,0,,,39,0
152136,note_on,,0,0,1,,,,,,,0,,,46,0
152159,set_tempo,696065,24,1,0,,,,,,,,,,,
152160,note_on,,0,0,1,,,,,,,0,,,65,100
152160,note_on,,0,0,1,,,,,,,0,,,54,100
152160,note_on,,0,0,1,,,,,,,0,,,46,100
152160,note_on,,24,0,1,,,,,,,0,,,39,100
152183,set_tempo,697345,24,1,0,,,,,,,,,,,
152207,set_tempo,698625,24,1,0,,,,,,,,,,,
152231,set_tempo,699649,24,1,0,,,,,,,,,,,
152255,set_tempo,700929,24,1,0,,,,,,,,,,,
152279,set_tempo,702209,24,1,0,,,,,,,,,,,
152303,set_tempo,703489,24,1,0,,,,,,,,,,,
152303,control_change,,143,0,1,,,,,7,72,0,,,,
152327,set_tempo,704513,24,1,0,,,,,,,,,,,
152351,set_tempo,705793,24,1,0,,,,,,,,,,,
152375,set_tempo,707073,24,1,0,,,,,,,,,,,
152399,set_tempo,708353,24,1,0,,,,,,,,,,,
152423,set_tempo,709633,24,1,0,,,,,,,,,,,
152447,set_tempo,710913,24,1,0,,,,,,,,,,,
152471,set_tempo,712193,24,1,0,,,,,,,,,,,
152495,set_tempo,713217,24,1,0,,,,,,,,,,,
152519,set_tempo,714497,24,1,0,,,,,,,,,,,
152543,set_tempo,715777,24,1,0,,,,,,,,,,,
152567,set_tempo,717057,24,1,0,,,,,,,,,,,
152591,control_change,,288,0,1,,,,,7,71,0,,,,
152591,set_tempo,718337,24,1,0,,,,,,,,,,,
152615,set_tempo,719617,24,1,0,,,,,,,,,,,
152616,note_on,,25,0,1,,,,,,,0,,,65,0
152616,note_on,,0,0,1,,,,,,,0,,,54,0
152616,note_on,,0,0,1,,,,,,,0,,,46,0
152616,note_on,,0,0,1,,,,,,,0,,,39,0
152639,set_tempo,720897,24,1,0,,,,,,,,,,,
152640,note_on,,0,0,1,,,,,,,0,,,63,100
152640,note_on,,24,0,1,,,,,,,0,,,39,100
152640,note_on,,0,0,1,,,,,,,0,,,54,100
152640,note_on,,0,0,1,,,,,,,0,,,46,100
152663,set_tempo,722177,24,1,0,,,,,,,,,,,
152687,set_tempo,723457,24,1,0,,,,,,,,,,,
152711,set_tempo,724993,24,1,0,,,,,,,,,,,
152735,set_tempo,726273,24,1,0,,,,,,,,,,,
152759,set_tempo,727553,24,1,0,,,,,,,,,,,
152783,set_tempo,728833,24,1,0,,,,,,,,,,,
152807,set_tempo,730113,24,1,0,,,,,,,,,,,
152831,set_tempo,731393,24,1,0,,,,,,,,,,,
152855,set_tempo,732673,24,1,0,,,,,,,,,,,
152879,control_change,,239,0,1,,,,,7,70,0,,,,
152879,set_tempo,734209,24,1,0,,,,,,,,,,,
152903,set_tempo,735489,24,1,0,,,,,,,,,,,
152927,set_tempo,736769,24,1,0,,,,,,,,,,,
152951,set_tempo,738049,24,1,0,,,,,,,,,,,
152975,set_tempo,739585,24,1,0,,,,,,,,,,,
152999,set_tempo,740865,24,1,0,,,,,,,,,,,
153023,set_tempo,742145,24,1,0,,,,,,,,,,,
153047,set_tempo,743425,24,1,0,,,,,,,,,,,
153071,set_tempo,744961,24,1,0,,,,,,,,,,,
153095,set_tempo,746241,24,1,0,,,,,,,,,,,
153096,note_on,,0,0,1,,,,,,,0,,,54,0
153096,note_on,,217,0,1,,,,,,,0,,,63,0
153096,note_on,,0,0,1,,,,,,,0,,,46,0
153096,note_on,,0,0,1,,,,,,,0,,,39,0
153119,set_tempo,747777,24,1,0,,,,,,,,,,,
153143,set_tempo,749057,24,1,0,,,,,,,,,,,
153167,set_tempo,750337,24,1,0,,,,,,,,,,,
153191,set_tempo,751873,24,1,0,,,,,,,,,,,
153215,set_tempo,753153,24,1,0,,,,,,,,,,,
153239,set_tempo,754689,24,1,0,,,,,,,,,,,
153263,set_tempo,755969,24,1,0,,,,,,,,,,,
153287,set_tempo,757505,24,1,0,,,,,,,,,,,
153311,set_tempo,759041,24,1,0,,,,,,,,,,,
153335,set_tempo,760321,24,1,0,,,,,,,,,,,
153359,set_tempo,761857,24,1,0,,,,,,,,,,,
153383,set_tempo,763137,24,1,0,,,,,,,,,,,
153407,set_tempo,764673,24,1,0,,,,,,,,,,,
153431,set_tempo,766209,24,1,0,,,,,,,,,,,
153455,set_tempo,767489,24,1,0,,,,,,,,,,,
153479,set_tempo,769025,24,1,0,,,,,,,,,,,
153480,set_tempo,769025,1,1,0,,,,,,,,,,,
153600,end_of_track,,120,1,0,,,,,,,,,,,
153600,end_of_track,,504,1,1,,,,,,,,,,,
153600,end_of_track,,5784,1,2,,,,,,,,,,,
