tick,type,tempo,time,meta,track,numerator,denominator,clocks_per_click,notated_32nd_notes_per_beat,control,value,channel,program,note,velocity
0,set_tempo,952321,0,1,0,,,,,,,,,,
0,control_change,,0,0,2,,,,,32,0,1,,,
0,program_change,,0,0,2,,,,,,,1,53,,
0,control_change,,0,0,2,,,,,1,0,1,,,
0,control_change,,0,0,2,,,,,10,64,1,,,
0,control_change,,0,0,2,,,,,91,0,1,,,
0,control_change,,0,0,2,,,,,93,0,1,,,
0,track_name,,0,1,2,,,,,,,,,,
0,control_change,,0,0,2,,,,,0,0,1,,,
0,note_on,,0,0,1,,,,,,,0,,45,100
0,note_on,,0,0,1,,,,,,,0,,57,100
0,note_on,,0,0,1,,,,,,,0,,60,100
0,note_on,,0,0,1,,,,,,,0,,64,100
0,note_on,,0,0,1,,,,,,,0,,69,100
0,control_change,,0,0,2,,,,,7,90,1,,,
0,program_change,,0,0,1,,,,,,,0,0,,
0,track_name,,0,1,0,,,,,,,,,,
0,control_change,,0,0,1,,,,,1,0,0,,,
0,control_change,,0,0,1,,,,,7,92,0,,,
0,control_change,,0,0,1,,,,,0,0,0,,,
0,control_change,,0,0,1,,,,,32,0,0,,,
0,track_name,,0,1,1,,,,,,,,,,
0,copyright,,0,1,0,,,,,,,,,,
0,time_signature,,0,1,0,2,4,24,8,,,,,,
0,control_change,,0,0,1,,,,,10,64,0,,,
0,control_change,,0,0,1,,,,,93,0,0,,,
0,control_change,,0,0,1,,,,,91,0,0,,,
456,note_on,,0,0,1,,,,,,,0,,60,0
456,note_on,,0,0,1,,,,,,,0,,57,0
456,note_on,,456,0,1,,,,,,,0,,45,0
456,note_on,,0,0,1,,,,,,,0,,64,0
456,note_on,,0,0,1,,,,,,,0,,69,0
480,note_on,,24,0,1,,,,,,,0,,50,100
480,note_on,,0,0,1,,,,,,,0,,69,100
480,note_on,,0,0,1,,,,,,,0,,65,100
480,note_on,,0,0,1,,,,,,,0,,62,100
480,note_on,,0,0,1,,,,,,,0,,57,100
822,note_on,,342,0,1,,,,,,,0,,69,0
840,note_on,,18,0,1,,,,,,,0,,71,100
936,note_on,,0,0,1,,,,,,,0,,62,0
936,note_on,,96,0,1,,,,,,,0,,65,0
936,note_on,,0,0,1,,,,,,,0,,57,0
936,note_on,,0,0,1,,,,,,,0,,50,0
954,note_on,,18,0,1,,,,,,,0,,71,0
960,note_on,,0,0,1,,,,,,,0,,45,100
960,note_on,,6,0,1,,,,,,,0,,69,100
960,note_on,,0,0,1,,,,,,,0,,64,100
960,note_on,,0,0,1,,,,,,,0,,57,100
960,note_on,,0,0,1,,,,,,,0,,60,100
1416,note_on,,0,0,1,,,,,,,0,,57,0
1416,note_on,,0,0,1,,,,,,,0,,60,0
1416,note_on,,0,0,1,,,,,,,0,,64,0
1416,note_on,,0,0,1,,,,,,,0,,69,0
1416,note_on,,456,0,1,,,,,,,0,,45,0
1440,note_on,,0,0,1,,,,,,,0,,69,100
1440,note_on,,0,0,1,,,,,,,0,,65,100
1440,note_on,,0,0,1,,,,,,,0,,62,100
1440,note_on,,0,0,1,,,,,,,0,,57,100
1440,note_on,,24,0,1,,,,,,,0,,50,100
1782,note_on,,342,0,1,,,,,,,0,,69,0
1800,note_on,,18,0,1,,,,,,,0,,71,100
1896,note_on,,96,0,1,,,,,,,0,,65,0
1896,note_on,,0,0,1,,,,,,,0,,62,0
1896,note_on,,0,0,1,,,,,,,0,,57,0
1896,note_on,,0,0,1,,,,,,,0,,50,0
1914,note_on,,18,0,1,,,,,,,0,,71,0
1920,note_on,,6,0,1,,,,,,,0,,69,100
1920,note_on,,0,0,1,,,,,,,0,,64,100
1920,note_on,,0,0,1,,,,,,,0,,60,100
1920,note_on,,0,0,1,,,,,,,0,,57,100
1920,note_on,,0,0,1,,,,,,,0,,45,100
2376,note_on,,0,0,1,,,,,,,0,,69,0
2376,note_on,,0,0,1,,,,,,,0,,64,0
2376,note_on,,0,0,1,,,,,,,0,,60,0
2376,note_on,,0,0,1,,,,,,,0,,57,0
2376,note_on,,456,0,1,,,,,,,0,,45,0
2400,note_on,,0,0,1,,,,,,,0,,64,100
2400,note_on,,24,0,1,,,,,,,0,,47,100
2400,note_on,,0,0,1,,,,,,,0,,59,100
2400,note_on,,0,0,1,,,,,,,0,,68,100
2742,note_on,,342,0,1,,,,,,,0,,68,0
2760,note_on,,18,0,1,,,,,,,0,,69,100
2856,note_on,,0,0,1,,,,,,,0,,47,0
2856,note_on,,0,0,1,,,,,,,0,,59,0
2856,note_on,,96,0,1,,,,,,,0,,64,0
2874,note_on,,18,0,1,,,,,,,0,,69,0
2880,note_on,,0,0,1,,,,,,,0,,47,100
2880,note_on,,0,0,1,,,,,,,0,,59,100
2880,note_on,,0,0,1,,,,,,,0,,63,100
2880,note_on,,6,0,1,,,,,,,0,,66,100
2880,note_on,,0,0,1,,,,,,,0,,57,100
2930,control_change,,50,0,1,,,,,7,91,0,,,
3006,control_change,,76,0,1,,,,,7,90,0,,,
3056,control_change,,50,0,1,,,,,7,89,0,,,
3132,control_change,,76,0,1,,,,,7,88,0,,,
3207,control_change,,75,0,1,,,,,7,87,0,,,
3258,control_change,,51,0,1,,,,,7,86,0,,,
3333,control_change,,75,0,1,,,,,7,85,0,,,
3336,note_on,,0,0,1,,,,,,,0,,59,0
3336,note_on,,0,0,1,,,,,,,0,,63,0
3336,note_on,,0,0,1,,,,,,,0,,66,0
3336,note_on,,0,0,1,,,,,,,0,,47,0
3336,note_on,,3,0,1,,,,,,,0,,57,0
3360,note_on,,0,0,1,,,,,,,0,,56,100
3360,note_on,,0,0,1,,,,,,,0,,40,100
3360,note_on,,0,0,1,,,,,,,0,,59,100
3360,note_on,,24,0,1,,,,,,,0,,64,100
3816,note_on,,0,0,1,,,,,,,0,,56,0
3816,note_on,,456,0,1,,,,,,,0,,40,0
3816,note_on,,0,0,1,,,,,,,0,,64,0
3816,note_on,,0,0,1,,,,,,,0,,59,0
3840,note_on,,3840,0,2,,,,,,,1,,64,100
3840,note_on,,0,0,1,,,,,,,0,,64,100
3840,note_on,,0,0,1,,,,,,,0,,56,100
3840,note_on,,0,0,1,,,,,,,0,,62,100
3840,note_on,,0,0,1,,,,,,,0,,52,100
3840,note_on,,24,0,1,,,,,,,0,,40,100
3890,control_change,,50,0,2,,,,,7,91,1,,,
3991,control_change,,101,0,2,,,,,7,92,1,,,
4067,control_change,,76,0,2,,,,,7,93,1,,,
4142,control_change,,75,0,2,,,,,7,94,1,,,
4243,control_change,,101,0,2,,,,,7,95,1,,,
4296,note_on,,53,0,2,,,,,,,1,,64,0
4319,control_change,,23,0,2,,,,,7,96,1,,,
4320,note_on,,1,0,2,,,,,,,1,,71,100
4394,control_change,,74,0,2,,,,,7,97,1,,,
4495,control_change,,101,0,2,,,,,7,98,1,,,
4571,control_change,,76,0,2,,,,,7,99,1,,,
4646,control_change,,75,0,2,,,,,7,100,1,,,
4662,note_on,,16,0,2,,,,,,,1,,71,0
4680,note_on,,18,0,2,,,,,,,1,,72,100
4776,note_on,,936,0,1,,,,,,,0,,56,0
4776,note_on,,0,0,1,,,,,,,0,,64,0
4776,note_on,,0,0,1,,,,,,,0,,52,0
4776,note_on,,0,0,1,,,,,,,0,,40,0
4776,note_on,,0,0,1,,,,,,,0,,62,0
4794,note_on,,114,0,2,,,,,,,1,,72,0
4800,note_on,,24,0,1,,,,,,,0,,45,100
4800,note_on,,0,0,1,,,,,,,0,,64,100
4800,note_on,,0,0,1,,,,,,,0,,60,100
4800,note_on,,0,0,1,,,,,,,0,,57,100
4800,note_on,,6,0,2,,,,,,,1,,69,100
4800,note_on,,0,0,1,,,,,,,0,,52,100
5199,note_on,,399,0,2,,,,,,,1,,69,0
5220,note_on,,21,0,2,,,,,,,1,,71,100
5277,note_on,,57,0,2,,,,,,,1,,71,0
5280,note_on,,3,0,2,,,,,,,1,,69,100
5508,note_on,,228,0,2,,,,,,,1,,69,0
5520,note_on,,12,0,2,,,,,,,1,,67,100
5736,note_on,,936,0,1,,,,,,,0,,57,0
5736,note_on,,0,0,1,,,,,,,0,,60,0
5736,note_on,,0,0,1,,,,,,,0,,52,0
5736,note_on,,0,0,1,,,,,,,0,,64,0
5736,note_on,,0,0,1,,,,,,,0,,45,0
5748,note_on,,228,0,2,,,,,,,1,,67,0
5760,note_on,,24,0,1,,,,,,,0,,62,100
5760,note_on,,0,0,1,,,,,,,0,,59,100
5760,note_on,,0,0,1,,,,,,,0,,57,100
5760,note_on,,12,0,2,,,,,,,1,,65,100
5760,note_on,,0,0,1,,,,,,,0,,45,100
6216,note_on,,456,0,1,,,,,,,0,,45,0
6216,note_on,,456,0,2,,,,,,,1,,65,0
6240,note_on,,24,0,2,,,,,,,1,,67,100
6240,note_on,,24,0,1,,,,,,,0,,38,100
6468,note_on,,228,0,2,,,,,,,1,,67,0
6480,note_on,,12,0,2,,,,,,,1,,65,100
6696,note_on,,456,0,1,,,,,,,0,,38,0
6696,note_on,,0,0,1,,,,,,,0,,57,0
6696,note_on,,0,0,1,,,,,,,0,,59,0
6696,note_on,,0,0,1,,,,,,,0,,62,0
6708,note_on,,228,0,2,,,,,,,1,,65,0
6720,note_on,,12,0,2,,,,,,,1,,64,100
6720,note_on,,0,0,1,,,,,,,0,,52,100
6720,note_on,,24,0,1,,,,,,,0,,64,100
6720,note_on,,0,0,1,,,,,,,0,,60,100
6720,note_on,,0,0,1,,,,,,,0,,57,100
6720,note_on,,0,0,1,,,,,,,0,,45,100
6795,control_change,,75,0,2,,,,,7,101,1,,,
6947,control_change,,152,0,2,,,,,7,102,1,,,
7072,control_change,,125,0,2,,,,,7,103,1,,,
7224,control_change,,152,0,2,,,,,7,104,1,,,
7375,control_change,,151,0,2,,,,,7,105,1,,,
7428,note_on,,53,0,2,,,,,,,1,,64,0
7440,note_on,,12,0,2,,,,,,,1,,76,100
7501,control_change,,61,0,2,,,,,7,106,1,,,
7656,note_on,,936,0,1,,,,,,,0,,52,0
7656,note_on,,0,0,1,,,,,,,0,,45,0
7656,note_on,,0,0,1,,,,,,,0,,57,0
7656,note_on,,0,0,1,,,,,,,0,,64,0
7656,note_on,,0,0,1,,,,,,,0,,60,0
7668,note_on,,167,0,2,,,,,,,1,,76,0
7680,note_on,,0,0,1,,,,,,,0,,52,100
7680,note_on,,0,0,1,,,,,,,0,,40,100
7680,note_on,,0,0,1,,,,,,,0,,59,100
7680,note_on,,0,0,1,,,,,,,0,,68,100
7680,note_on,,24,0,1,,,,,,,0,,62,100
7680,note_on,,12,0,2,,,,,,,1,,74,100
7908,note_on,,228,0,2,,,,,,,1,,74,0
7920,note_on,,12,0,2,,,,,,,1,,72,100
8148,note_on,,228,0,2,,,,,,,1,,72,0
8160,note_on,,12,0,2,,,,,,,1,,71,100
8388,note_on,,228,0,2,,,,,,,1,,71,0
8400,note_on,,12,0,2,,,,,,,1,,72,100
8616,note_on,,0,0,1,,,,,,,0,,68,0
8616,note_on,,0,0,1,,,,,,,0,,62,0
8616,note_on,,936,0,1,,,,,,,0,,52,0
8616,note_on,,0,0,1,,,,,,,0,,40,0
8616,note_on,,0,0,1,,,,,,,0,,59,0
8628,note_on,,228,0,2,,,,,,,1,,72,0
8640,note_on,,0,0,1,,,,,,,0,,41,100
8640,note_on,,0,0,1,,,,,,,0,,53,100
8640,note_on,,0,0,1,,,,,,,0,,69,100
8640,note_on,,0,0,1,,,,,,,0,,60,100
8640,note_on,,24,0,1,,,,,,,0,,57,100
8640,note_on,,12,0,2,,,,,,,1,,69,100
9096,note_on,,0,0,1,,,,,,,0,,69,0
9096,note_on,,0,0,1,,,,,,,0,,60,0
9096,note_on,,0,0,1,,,,,,,0,,57,0
9096,note_on,,456,0,2,,,,,,,1,,69,0
9096,note_on,,456,0,1,,,,,,,0,,41,0
9096,note_on,,0,0,1,,,,,,,0,,53,0
9120,note_on,,24,0,2,,,,,,,1,,71,100
9120,note_on,,0,0,1,,,,,,,0,,38,100
9120,note_on,,24,0,1,,,,,,,0,,57,100
9120,note_on,,0,0,1,,,,,,,0,,59,100
9120,note_on,,0,0,1,,,,,,,0,,65,100
9120,note_on,,0,0,1,,,,,,,0,,69,100
9120,note_on,,0,0,1,,,,,,,0,,50,100
9576,note_on,,456,0,2,,,,,,,1,,71,0
9576,note_on,,0,0,1,,,,,,,0,,57,0
9576,note_on,,0,0,1,,,,,,,0,,59,0
9576,note_on,,0,0,1,,,,,,,0,,65,0
9576,note_on,,0,0,1,,,,,,,0,,69,0
9576,note_on,,0,0,1,,,,,,,0,,50,0
9576,note_on,,456,0,1,,,,,,,0,,38,0
9600,note_on,,24,0,2,,,,,,,1,,64,100
9600,note_on,,0,0,1,,,,,,,0,,59,100
9600,note_on,,0,0,1,,,,,,,0,,52,100
9600,note_on,,0,0,1,,,,,,,0,,40,100
9600,note_on,,0,0,1,,,,,,,0,,68,100
9600,note_on,,0,0,1,,,,,,,0,,62,100
9600,note_on,,24,0,1,,,,,,,0,,64,100
9752,note_on,,152,0,2,,,,,,,1,,64,0
9759,note_on,,7,0,2,,,,,,,1,,65,100
9911,note_on,,152,0,2,,,,,,,1,,65,0
9919,note_on,,8,0,2,,,,,,,1,,64,100
10070,note_on,,151,0,2,,,,,,,1,,64,0
10080,note_on,,10,0,2,,,,,,,1,,68,100
10536,note_on,,0,0,1,,,,,,,0,,64,0
10536,note_on,,0,0,1,,,,,,,0,,68,0
10536,note_on,,0,0,1,,,,,,,0,,59,0
10536,note_on,,0,0,1,,,,,,,0,,40,0
10536,note_on,,0,0,1,,,,,,,0,,52,0
10536,note_on,,936,0,1,,,,,,,0,,62,0
10536,note_on,,456,0,2,,,,,,,1,,68,0
10560,note_on,,24,0,2,,,,,,,1,,69,100
10560,note_on,,0,0,1,,,,,,,0,,45,100
10560,note_on,,24,0,1,,,,,,,0,,64,100
10560,note_on,,0,0,1,,,,,,,0,,60,100
10560,note_on,,0,0,1,,,,,,,0,,69,100
10560,note_on,,0,0,1,,,,,,,0,,57,100
10610,control_change,,50,0,2,,,,,7,105,1,,,
10660,control_change,,50,0,2,,,,,7,104,1,,,
10736,control_change,,76,0,2,,,,,7,103,1,,,
10812,control_change,,76,0,2,,,,,7,102,1,,,
10862,control_change,,50,0,2,,,,,7,101,1,,,
10938,control_change,,76,0,2,,,,,7,100,1,,,
10988,control_change,,50,0,2,,,,,7,99,1,,,
11016,note_on,,0,0,1,,,,,,,0,,69,0
11016,note_on,,0,0,1,,,,,,,0,,57,0
11016,note_on,,0,0,1,,,,,,,0,,60,0
11016,note_on,,456,0,1,,,,,,,0,,45,0
11016,note_on,,0,0,1,,,,,,,0,,64,0
11016,note_on,,28,0,2,,,,,,,1,,69,0
11040,note_on,,0,0,1,,,,,,,0,,52,100
11040,note_on,,24,0,1,,,,,,,0,,57,100
11040,note_on,,0,0,1,,,,,,,0,,64,100
11040,note_on,,0,0,1,,,,,,,0,,60,100
11040,note_on,,24,0,2,,,,,,,1,,72,100
11064,control_change,,24,0,2,,,,,7,98,1,,,
11139,control_change,,75,0,2,,,,,7,97,1,,,
11190,control_change,,51,0,2,,,,,7,96,1,,,
11265,control_change,,75,0,2,,,,,7,95,1,,,
11268,note_on,,3,0,2,,,,,,,1,,72,0
11496,note_on,,0,0,1,,,,,,,0,,60,0
11496,note_on,,0,0,1,,,,,,,0,,57,0
11496,note_on,,456,0,1,,,,,,,0,,52,0
11496,note_on,,0,0,1,,,,,,,0,,64,0
11520,note_on,,24,0,1,,,,,,,0,,48,100
11520,note_on,,0,0,1,,,,,,,0,,55,100
11520,note_on,,0,0,1,,,,,,,0,,60,100
11520,note_on,,0,0,1,,,,,,,0,,64,100
11520,note_on,,0,0,2,,,,,,,1,,72,100
11520,control_change,,252,0,2,,,,,7,100,1,,,
11570,control_change,,50,0,2,,,,,7,101,1,,,
11646,control_change,,76,0,2,,,,,7,102,1,,,
11721,control_change,,75,0,2,,,,,7,103,1,,,
11797,control_change,,76,0,2,,,,,7,104,1,,,
11872,control_change,,75,0,2,,,,,7,105,1,,,
11948,control_change,,76,0,2,,,,,7,106,1,,,
11976,note_on,,28,0,2,,,,,,,1,,72,0
12000,note_on,,24,0,2,,,,,,,1,,74,100
12024,control_change,,24,0,2,,,,,7,107,1,,,
12099,control_change,,75,0,2,,,,,7,108,1,,,
12175,control_change,,76,0,2,,,,,7,109,1,,,
12228,note_on,,53,0,2,,,,,,,1,,74,0
12240,note_on,,12,0,2,,,,,,,1,,76,100
12251,control_change,,11,0,2,,,,,7,110,1,,,
12326,control_change,,75,0,2,,,,,7,111,1,,,
12468,note_on,,142,0,2,,,,,,,1,,76,0
12480,note_on,,12,0,2,,,,,,,1,,67,100
12936,note_on,,456,0,2,,,,,,,1,,67,0
12960,note_on,,24,0,2,,,,,,,1,,69,100
13416,note_on,,0,0,1,,,,,,,0,,60,0
13416,note_on,,0,0,1,,,,,,,0,,55,0
13416,note_on,,0,0,1,,,,,,,0,,48,0
13416,note_on,,1896,0,1,,,,,,,0,,64,0
13416,note_on,,456,0,2,,,,,,,1,,69,0
13440,note_on,,24,0,1,,,,,,,0,,62,100
13440,note_on,,0,0,1,,,,,,,0,,55,100
13440,note_on,,0,0,1,,,,,,,0,,59,100
13440,note_on,,0,0,1,,,,,,,0,,43,100
13440,note_on,,24,0,2,,,,,,,1,,71,100
13896,note_on,,456,0,2,,,,,,,1,,71,0
13920,note_on,,24,0,2,,,,,,,1,,72,100
13970,control_change,,50,0,2,,,,,7,110,1,,,
14020,control_change,,50,0,2,,,,,7,109,1,,,
14071,control_change,,51,0,2,,,,,7,108,1,,,
14121,control_change,,50,0,2,,,,,7,107,1,,,
14148,note_on,,27,0,2,,,,,,,1,,72,0
14160,note_on,,12,0,2,,,,,,,1,,71,100
14172,control_change,,12,0,2,,,,,7,106,1,,,
14222,control_change,,50,0,2,,,,,7,105,1,,,
14272,control_change,,50,0,2,,,,,7,104,1,,,
14323,control_change,,51,0,2,,,,,7,103,1,,,
14373,control_change,,50,0,2,,,,,7,102,1,,,
14376,note_on,,0,0,1,,,,,,,0,,55,0
14376,note_on,,0,0,1,,,,,,,0,,62,0
14376,note_on,,0,0,1,,,,,,,0,,59,0
14376,note_on,,936,0,1,,,,,,,0,,43,0
14388,note_on,,15,0,2,,,,,,,1,,71,0
14400,note_on,,0,0,1,,,,,,,0,,38,100
14400,note_on,,0,0,1,,,,,,,0,,57,100
14400,note_on,,0,0,1,,,,,,,0,,65,100
14400,note_on,,24,0,1,,,,,,,0,,62,100
14400,note_on,,12,0,2,,,,,,,1,,69,100
14856,note_on,,456,0,2,,,,,,,1,,69,0
14880,note_on,,24,0,2,,,,,,,1,,71,100
15108,note_on,,228,0,2,,,,,,,1,,71,0
15336,note_on,,0,0,1,,,,,,,0,,62,0
15336,note_on,,0,0,1,,,,,,,0,,57,0
15336,note_on,,0,0,1,,,,,,,0,,65,0
15336,note_on,,936,0,1,,,,,,,0,,38,0
15360,note_on,,24,0,1,,,,,,,0,,64,100
15360,note_on,,252,0,2,,,,,,,1,,68,100
15360,note_on,,0,0,1,,,,,,,0,,52,100
15360,note_on,,0,0,1,,,,,,,0,,40,100
15360,note_on,,0,0,1,,,,,,,0,,62,100
15360,note_on,,0,0,1,,,,,,,0,,56,100
15360,note_on,,0,0,1,,,,,,,0,,59,100
15816,note_on,,456,0,2,,,,,,,1,,68,0
15840,note_on,,24,0,2,,,,,,,1,,64,100
16068,note_on,,228,0,2,,,,,,,1,,64,0
16080,note_on,,12,0,2,,,,,,,1,,64,100
16296,note_on,,0,0,1,,,,,,,0,,56,0
16296,note_on,,0,0,1,,,,,,,0,,59,0
16296,note_on,,0,0,1,,,,,,,0,,40,0
16296,note_on,,936,0,1,,,,,,,0,,52,0
16296,note_on,,0,0,1,,,,,,,0,,62,0
16296,note_on,,0,0,1,,,,,,,0,,64,0
16308,note_on,,228,0,2,,,,,,,1,,64,0
16320,note_on,,0,0,1,,,,,,,0,,64,100
16320,note_on,,12,0,2,,,,,,,1,,69,100
16320,note_on,,0,0,1,,,,,,,0,,45,100
16320,note_on,,0,0,1,,,,,,,0,,60,100
16320,note_on,,24,0,1,,,,,,,0,,57,100
16776,note_on,,456,0,1,,,,,,,0,,45,0
16776,note_on,,0,0,1,,,,,,,0,,57,0
16776,note_on,,0,0,1,,,,,,,0,,64,0
16776,note_on,,0,0,1,,,,,,,0,,60,0
16776,note_on,,456,0,2,,,,,,,1,,69,0
16800,note_on,,24,0,2,,,,,,,1,,74,100
16800,note_on,,0,0,1,,,,,,,0,,38,100
16800,note_on,,0,0,1,,,,,,,0,,65,100
16800,note_on,,0,0,1,,,,,,,0,,62,100
16800,note_on,,24,0,1,,,,,,,0,,57,100
17142,note_on,,342,0,2,,,,,,,1,,74,0
17160,note_on,,18,0,2,,,,,,,1,,69,100
17256,note_on,,0,0,1,,,,,,,0,,57,0
17256,note_on,,0,0,1,,,,,,,0,,62,0
17256,note_on,,0,0,1,,,,,,,0,,65,0
17256,note_on,,456,0,1,,,,,,,0,,38,0
17274,note_on,,114,0,2,,,,,,,1,,69,0
17280,note_on,,6,0,2,,,,,,,1,,72,100
17280,note_on,,0,0,1,,,,,,,0,,60,100
17280,note_on,,0,0,1,,,,,,,0,,64,100
17280,note_on,,0,0,1,,,,,,,0,,40,100
17280,note_on,,24,0,1,,,,,,,0,,57,100
17736,note_on,,0,0,1,,,,,,,0,,57,0
17736,note_on,,456,0,2,,,,,,,1,,72,0
17736,note_on,,0,0,1,,,,,,,0,,64,0
17736,note_on,,456,0,1,,,,,,,0,,40,0
17736,note_on,,0,0,1,,,,,,,0,,60,0
17760,note_on,,24,0,1,,,,,,,0,,56,100
17760,note_on,,0,0,1,,,,,,,0,,62,100
17760,note_on,,0,0,1,,,,,,,0,,64,100
17760,note_on,,0,0,1,,,,,,,0,,52,100
17760,note_on,,24,0,2,,,,,,,1,,71,100
18102,note_on,,342,0,2,,,,,,,1,,71,0
18120,note_on,,18,0,2,,,,,,,1,,72,100
18216,note_on,,0,0,1,,,,,,,0,,62,0
18216,note_on,,0,0,1,,,,,,,0,,56,0
18216,note_on,,0,0,1,,,,,,,0,,64,0
18216,note_on,,456,0,1,,,,,,,0,,52,0
18234,note_on,,114,0,2,,,,,,,1,,72,0
18240,note_on,,0,0,1,,,,,,,0,,64,100
18240,note_on,,0,0,1,,,,,,,0,,45,100
18240,note_on,,6,0,2,,,,,,,1,,69,100
18240,note_on,,0,0,1,,,,,,,0,,60,100
18240,note_on,,24,0,1,,,,,,,0,,57,100
18696,note_on,,0,0,1,,,,,,,0,,64,0
18696,note_on,,0,0,1,,,,,,,0,,57,0
18696,note_on,,0,0,1,,,,,,,0,,60,0
18696,note_on,,456,0,1,,,,,,,0,,45,0
18696,note_on,,456,0,2,,,,,,,1,,69,0
18720,note_on,,0,0,1,,,,,,,0,,48,100
18720,note_on,,24,0,2,,,,,,,1,,67,100
18720,note_on,,0,0,1,,,,,,,0,,60,100
18720,note_on,,24,0,1,,,,,,,0,,55,100
18720,note_on,,0,0,1,,,,,,,0,,64,100
19176,note_on,,456,0,1,,,,,,,0,,48,0
19176,note_on,,456,0,2,,,,,,,1,,67,0
19176,note_on,,0,0,1,,,,,,,0,,55,0
19176,note_on,,0,0,1,,,,,,,0,,60,0
19176,note_on,,0,0,1,,,,,,,0,,64,0
19200,note_on,,24,0,2,,,,,,,1,,72,100
19200,note_on,,24,0,1,,,,,,,0,,48,100
19200,note_on,,0,0,1,,,,,,,0,,55,100
19200,note_on,,0,0,1,,,,,,,0,,60,100
19200,note_on,,0,0,1,,,,,,,0,,64,100
19250,control_change,,50,0,2,,,,,7,103,1,,,
19351,control_change,,101,0,2,,,,,7,104,1,,,
19452,control_change,,101,0,2,,,,,7,105,1,,,
19527,control_change,,75,0,2,,,,,7,106,1,,,
19628,control_change,,101,0,2,,,,,7,107,1,,,
19656,note_on,,28,0,2,,,,,,,1,,72,0
19680,note_on,,24,0,2,,,,,,,1,,74,100
19729,control_change,,49,0,2,,,,,7,108,1,,,
19830,control_change,,101,0,2,,,,,7,109,1,,,
19906,control_change,,76,0,2,,,,,7,110,1,,,
19908,note_on,,2,0,2,,,,,,,1,,74,0
19920,note_on,,12,0,2,,,,,,,1,,76,100
20006,control_change,,86,0,2,,,,,7,111,1,,,
20148,note_on,,142,0,2,,,,,,,1,,76,0
20160,note_on,,12,0,2,,,,,,,1,,67,100
20616,note_on,,456,0,2,,,,,,,1,,67,0
20640,note_on,,24,0,2,,,,,,,1,,69,100
21096,note_on,,0,0,1,,,,,,,0,,55,0
21096,note_on,,1896,0,1,,,,,,,0,,64,0
21096,note_on,,0,0,1,,,,,,,0,,48,0
21096,note_on,,456,0,2,,,,,,,1,,69,0
21096,note_on,,0,0,1,,,,,,,0,,60,0
21120,note_on,,24,0,1,,,,,,,0,,43,100
21120,note_on,,0,0,1,,,,,,,0,,62,100
21120,note_on,,0,0,1,,,,,,,0,,55,100
21120,note_on,,0,0,1,,,,,,,0,,59,100
21120,note_on,,24,0,2,,,,,,,1,,71,100
21576,note_on,,456,0,2,,,,,,,1,,71,0
21600,note_on,,24,0,2,,,,,,,1,,72,100
21625,control_change,,25,0,2,,,,,7,110,1,,,
21675,control_change,,50,0,2,,,,,7,109,1,,,
21701,control_change,,26,0,2,,,,,7,108,1,,,
21751,control_change,,50,0,2,,,,,7,107,1,,,
21802,control_change,,51,0,2,,,,,7,106,1,,,
21827,control_change,,25,0,2,,,,,7,105,1,,,
21828,note_on,,1,0,2,,,,,,,1,,72,0
21840,note_on,,12,0,2,,,,,,,1,,71,100
21877,control_change,,37,0,2,,,,,7,104,1,,,
21902,control_change,,25,0,2,,,,,7,103,1,,,
21953,control_change,,51,0,2,,,,,7,102,1,,,
22056,note_on,,0,0,1,,,,,,,0,,55,0
22056,note_on,,0,0,1,,,,,,,0,,43,0
22056,note_on,,936,0,1,,,,,,,0,,59,0
22056,note_on,,0,0,1,,,,,,,0,,62,0
22068,note_on,,115,0,2,,,,,,,1,,71,0
22080,note_on,,24,0,1,,,,,,,0,,38,100
22080,note_on,,0,0,1,,,,,,,0,,62,100
22080,note_on,,0,0,1,,,,,,,0,,65,100
22080,note_on,,12,0,2,,,,,,,1,,69,100
22080,note_on,,0,0,1,,,,,,,0,,57,100
22536,note_on,,456,0,2,,,,,,,1,,69,0
22560,note_on,,24,0,2,,,,,,,1,,71,100
22788,note_on,,228,0,2,,,,,,,1,,71,0
23016,note_on,,0,0,1,,,,,,,0,,65,0
23016,note_on,,936,0,1,,,,,,,0,,57,0
23016,note_on,,0,0,1,,,,,,,0,,62,0
23016,note_on,,0,0,1,,,,,,,0,,38,0
23040,note_on,,0,0,1,,,,,,,0,,59,100
23040,note_on,,24,0,1,,,,,,,0,,64,100
23040,note_on,,0,0,1,,,,,,,0,,56,100
23040,note_on,,0,0,1,,,,,,,0,,62,100
23040,note_on,,0,0,1,,,,,,,0,,40,100
23040,note_on,,0,0,1,,,,,,,0,,52,100
23040,note_on,,252,0,2,,,,,,,1,,68,100
23496,note_on,,456,0,2,,,,,,,1,,68,0
23520,note_on,,24,0,2,,,,,,,1,,64,100
23748,note_on,,228,0,2,,,,,,,1,,64,0
23760,note_on,,12,0,2,,,,,,,1,,64,100
23976,note_on,,0,0,1,,,,,,,0,,56,0
23976,note_on,,0,0,1,,,,,,,0,,59,0
23976,note_on,,0,0,1,,,,,,,0,,62,0
23976,note_on,,0,0,1,,,,,,,0,,40,0
23976,note_on,,936,0,1,,,,,,,0,,52,0
23976,note_on,,0,0,1,,,,,,,0,,64,0
23988,note_on,,228,0,2,,,,,,,1,,64,0
24000,note_on,,24,0,1,,,,,,,0,,57,100
24000,note_on,,0,0,1,,,,,,,0,,60,100
24000,note_on,,0,0,1,,,,,,,0,,64,100
24000,note_on,,0,0,1,,,,,,,0,,45,100
24000,note_on,,12,0,2,,,,,,,1,,69,100
24456,note_on,,456,0,2,,,,,,,1,,69,0
24456,note_on,,456,0,1,,,,,,,0,,45,0
24456,note_on,,0,0,1,,,,,,,0,,64,0
24456,note_on,,0,0,1,,,,,,,0,,60,0
24456,note_on,,0,0,1,,,,,,,0,,57,0
24480,note_on,,24,0,2,,,,,,,1,,74,100
24480,note_on,,24,0,1,,,,,,,0,,38,100
24480,note_on,,0,0,1,,,,,,,0,,57,100
24480,note_on,,0,0,1,,,,,,,0,,62,100
24480,note_on,,0,0,1,,,,,,,0,,65,100
24480,note_on,,0,0,1,,,,,,,0,,50,100
24708,note_on,,228,0,2,,,,,,,1,,74,0
24720,note_on,,12,0,2,,,,,,,1,,69,100
24936,note_on,,0,0,1,,,,,,,0,,38,0
24936,note_on,,0,0,1,,,,,,,0,,57,0
24936,note_on,,0,0,1,,,,,,,0,,62,0
24936,note_on,,456,0,1,,,,,,,0,,50,0
24936,note_on,,0,0,1,,,,,,,0,,65,0
24948,note_on,,228,0,2,,,,,,,1,,69,0
24960,note_on,,24,0,1,,,,,,,0,,57,100
24960,note_on,,0,0,1,,,,,,,0,,60,100
24960,note_on,,0,0,1,,,,,,,0,,64,100
24960,note_on,,0,0,1,,,,,,,0,,40,100
24960,note_on,,0,0,1,,,,,,,0,,52,100
24960,note_on,,12,0,2,,,,,,,1,,72,100
25010,control_change,,50,0,2,,,,,7,103,1,,,
25061,control_change,,51,0,2,,,,,7,104,1,,,
25136,control_change,,75,0,2,,,,,7,105,1,,,
25187,control_change,,51,0,2,,,,,7,106,1,,,
25262,control_change,,75,0,2,,,,,7,107,1,,,
25338,control_change,,76,0,2,,,,,7,108,1,,,
25388,control_change,,50,0,2,,,,,7,109,1,,,
25416,note_on,,28,0,2,,,,,,,1,,72,0
25440,note_on,,24,0,2,,,,,,,1,,71,100
25464,control_change,,24,0,2,,,,,7,110,1,,,
25514,control_change,,50,0,2,,,,,7,111,1,,,
25590,control_change,,76,0,2,,,,,7,112,1,,,
25640,control_change,,50,0,2,,,,,7,113,1,,,
25668,note_on,,28,0,2,,,,,,,1,,71,0
25680,note_on,,12,0,2,,,,,,,1,,69,100
25716,control_change,,36,0,2,,,,,7,114,1,,,
25791,control_change,,75,0,2,,,,,7,115,1,,,
25908,note_on,,117,0,2,,,,,,,1,,69,0
25920,note_on,,12,0,2,,,,,,,1,,76,100
26784,note_on,,0,0,1,,,,,,,0,,57,0
26784,note_on,,0,0,1,,,,,,,0,,60,0
26784,note_on,,0,0,1,,,,,,,0,,64,0
26784,note_on,,0,0,1,,,,,,,0,,40,0
26784,note_on,,1824,0,1,,,,,,,0,,52,0
26880,note_on,,0,0,1,,,,,,,0,,59,100
26880,note_on,,0,0,1,,,,,,,0,,40,100
26880,note_on,,0,0,1,,,,,,,0,,52,100
26880,note_on,,96,0,1,,,,,,,0,,64,100
26880,note_on,,0,0,1,,,,,,,0,,57,100
27108,note_on,,1188,0,2,,,,,,,1,,76,0
27120,control_change,,12,0,2,,,,,7,110,1,,,
27120,note_on,,0,0,2,,,,,,,1,,77,100
27145,control_change,,25,0,2,,,,,7,109,1,,,
27195,control_change,,50,0,2,,,,,7,108,1,,,
27246,control_change,,51,0,2,,,,,7,107,1,,,
27296,control_change,,50,0,2,,,,,7,106,1,,,
27347,control_change,,51,0,2,,,,,7,105,1,,,
27348,note_on,,1,0,2,,,,,,,1,,77,0
27360,note_on,,12,0,2,,,,,,,1,,76,100
27397,control_change,,37,0,2,,,,,7,104,1,,,
27447,control_change,,50,0,2,,,,,7,103,1,,,
27498,control_change,,51,0,2,,,,,7,102,1,,,
27548,control_change,,50,0,2,,,,,7,101,1,,,
27588,note_on,,40,0,2,,,,,,,1,,76,0
27599,control_change,,11,0,2,,,,,7,100,1,,,
27600,note_on,,1,0,2,,,,,,,1,,75,100
27649,control_change,,49,0,2,,,,,7,99,1,,,
27699,control_change,,50,0,2,,,,,7,98,1,,,
27816,note_on,,0,0,1,,,,,,,0,,64,0
27816,note_on,,0,0,1,,,,,,,0,,57,0
27816,note_on,,936,0,1,,,,,,,0,,59,0
27828,note_on,,129,0,2,,,,,,,1,,75,0
27840,note_on,,24,0,1,,,,,,,0,,56,100
27840,note_on,,0,0,1,,,,,,,0,,59,100
27840,note_on,,0,0,1,,,,,,,0,,64,100
27840,note_on,,0,0,1,,,,,,,0,,62,100
27840,note_on,,12,0,2,,,,,,,1,,76,100
27865,control_change,,25,0,2,,,,,7,99,1,,,
27915,control_change,,50,0,2,,,,,7,100,1,,,
27966,control_change,,51,0,2,,,,,7,101,1,,,
28016,control_change,,50,0,2,,,,,7,102,1,,,
28067,control_change,,51,0,2,,,,,7,103,1,,,
28068,note_on,,1,0,2,,,,,,,1,,76,0
28080,note_on,,12,0,2,,,,,,,1,,71,100
28092,control_change,,12,0,2,,,,,7,104,1,,,
28142,control_change,,50,0,2,,,,,7,105,1,,,
28193,control_change,,51,0,2,,,,,7,106,1,,,
28296,note_on,,0,0,1,,,,,,,0,,64,0
28296,note_on,,456,0,1,,,,,,,0,,62,0
28296,note_on,,0,0,1,,,,,,,0,,56,0
28296,note_on,,0,0,1,,,,,,,0,,59,0
28308,note_on,,115,0,2,,,,,,,1,,71,0
28320,note_on,,12,0,2,,,,,,,1,,74,100
28320,note_on,,0,0,1,,,,,,,0,,62,100
28320,note_on,,0,0,1,,,,,,,0,,64,100
28320,note_on,,24,0,1,,,,,,,0,,68,100
28345,control_change,,25,0,1,,,,,7,86,0,,,
28345,control_change,,25,0,2,,,,,7,105,1,,,
28395,control_change,,50,0,2,,,,,7,104,1,,,
28395,control_change,,50,0,1,,,,,7,87,0,,,
28446,control_change,,51,0,1,,,,,7,88,0,,,
28446,control_change,,51,0,2,,,,,7,103,1,,,
28496,control_change,,50,0,2,,,,,7,102,1,,,
28496,control_change,,50,0,1,,,,,7,89,0,,,
28547,control_change,,51,0,2,,,,,7,101,1,,,
28547,control_change,,51,0,1,,,,,7,90,0,,,
28548,note_on,,1,0,2,,,,,,,1,,74,0
28560,note_on,,12,0,2,,,,,,,1,,72,100
28572,control_change,,12,0,2,,,,,7,100,1,,,
28572,control_change,,25,0,1,,,,,7,91,0,,,
28622,control_change,,50,0,2,,,,,7,99,1,,,
28622,control_change,,50,0,1,,,,,7,92,0,,,
28673,control_change,,51,0,2,,,,,7,98,1,,,
28673,control_change,,51,0,1,,,,,7,93,0,,,
28752,note_on,,79,0,1,,,,,,,0,,52,0
28752,note_on,,0,0,1,,,,,,,0,,40,0
28776,note_on,,0,0,1,,,,,,,0,,64,0
28776,note_on,,0,0,1,,,,,,,0,,68,0
28776,note_on,,24,0,1,,,,,,,0,,62,0
28788,note_on,,115,0,2,,,,,,,1,,72,0
28800,note_on,,0,0,1,,,,,,,0,,64,100
28800,note_on,,0,0,1,,,,,,,0,,60,100
28800,note_on,,0,0,1,,,,,,,0,,57,100
28800,note_on,,0,0,1,,,,,,,0,,45,100
28800,note_on,,12,0,2,,,,,,,1,,69,100
28800,note_on,,24,0,1,,,,,,,0,,69,100
29256,note_on,,0,0,1,,,,,,,0,,64,0
29256,note_on,,0,0,1,,,,,,,0,,60,0
29256,note_on,,0,0,1,,,,,,,0,,57,0
29256,note_on,,456,0,1,,,,,,,0,,45,0
29256,note_on,,456,0,2,,,,,,,1,,69,0
29256,note_on,,0,0,1,,,,,,,0,,69,0
29280,note_on,,0,0,1,,,,,,,0,,62,100
29280,note_on,,0,0,1,,,,,,,0,,57,100
29280,note_on,,24,0,1,,,,,,,0,,50,100
29280,note_on,,0,0,1,,,,,,,0,,69,100
29280,note_on,,0,0,1,,,,,,,0,,65,100
29622,note_on,,342,0,1,,,,,,,0,,69,0
29640,note_on,,18,0,1,,,,,,,0,,71,100
29736,note_on,,0,0,1,,,,,,,0,,62,0
29736,note_on,,0,0,1,,,,,,,0,,57,0
29736,note_on,,0,0,1,,,,,,,0,,50,0
29736,note_on,,96,0,1,,,,,,,0,,65,0
29754,note_on,,18,0,1,,,,,,,0,,71,0
29760,note_on,,6,0,1,,,,,,,0,,69,100
29760,note_on,,0,0,1,,,,,,,0,,64,100
29760,note_on,,0,0,1,,,,,,,0,,60,100
29760,note_on,,0,0,1,,,,,,,0,,57,100
29760,note_on,,0,0,1,,,,,,,0,,45,100
30216,note_on,,0,0,1,,,,,,,0,,69,0
30216,note_on,,0,0,1,,,,,,,0,,64,0
30216,note_on,,456,0,1,,,,,,,0,,45,0
30216,note_on,,0,0,1,,,,,,,0,,57,0
30216,note_on,,0,0,1,,,,,,,0,,60,0
30240,note_on,,0,0,1,,,,,,,0,,65,100
30240,note_on,,0,0,1,,,,,,,0,,69,100
30240,note_on,,0,0,1,,,,,,,0,,57,100
30240,note_on,,0,0,1,,,,,,,0,,50,100
30240,note_on,,24,0,1,,,,,,,0,,62,100
30582,note_on,,342,0,1,,,,,,,0,,69,0
30600,note_on,,18,0,1,,,,,,,0,,71,100
30696,note_on,,0,0,1,,,,,,,0,,65,0
30696,note_on,,96,0,1,,,,,,,0,,57,0
30696,note_on,,0,0,1,,,,,,,0,,50,0
30696,note_on,,0,0,1,,,,,,,0,,62,0
30714,note_on,,18,0,1,,,,,,,0,,71,0
30720,note_on,,6,0,1,,,,,,,0,,69,100
30720,note_on,,0,0,1,,,,,,,0,,64,100
30720,note_on,,0,0,1,,,,,,,0,,60,100
30720,note_on,,0,0,1,,,,,,,0,,57,100
30720,note_on,,0,0,1,,,,,,,0,,45,100
31176,note_on,,456,0,1,,,,,,,0,,45,0
31176,note_on,,0,0,1,,,,,,,0,,57,0
31176,note_on,,0,0,1,,,,,,,0,,64,0
31176,note_on,,0,0,1,,,,,,,0,,60,0
31176,note_on,,0,0,1,,,,,,,0,,69,0
31200,note_on,,0,0,1,,,,,,,0,,64,100
31200,note_on,,0,0,1,,,,,,,0,,68,100
31200,note_on,,0,0,1,,,,,,,0,,47,100
31200,note_on,,24,0,1,,,,,,,0,,59,100
31542,note_on,,342,0,1,,,,,,,0,,68,0
31560,note_on,,18,0,1,,,,,,,0,,69,100
31656,note_on,,96,0,1,,,,,,,0,,47,0
31656,note_on,,0,0,1,,,,,,,0,,64,0
31656,note_on,,0,0,1,,,,,,,0,,59,0
31674,note_on,,18,0,1,,,,,,,0,,69,0
31680,note_on,,0,0,1,,,,,,,0,,57,100
31680,note_on,,6,0,1,,,,,,,0,,66,100
31680,note_on,,0,0,1,,,,,,,0,,63,100
31680,note_on,,0,0,1,,,,,,,0,,59,100
31680,note_on,,0,0,1,,,,,,,0,,47,100
31730,control_change,,50,0,1,,,,,7,92,0,,,
31780,control_change,,50,0,1,,,,,7,91,0,,,
31831,control_change,,51,0,1,,,,,7,90,0,,,
31907,control_change,,76,0,1,,,,,7,89,0,,,
31957,control_change,,50,0,1,,,,,7,88,0,,,
32032,control_change,,75,0,1,,,,,7,87,0,,,
32083,control_change,,51,0,1,,,,,7,86,0,,,
32133,control_change,,50,0,1,,,,,7,85,0,,,
32136,note_on,,0,0,1,,,,,,,0,,63,0
32136,note_on,,0,0,1,,,,,,,0,,66,0
32136,note_on,,0,0,1,,,,,,,0,,59,0
32136,note_on,,0,0,1,,,,,,,0,,47,0
32136,note_on,,3,0,1,,,,,,,0,,57,0
32160,note_on,,0,0,1,,,,,,,0,,40,100
32160,note_on,,0,0,1,,,,,,,0,,56,100
32160,note_on,,0,0,1,,,,,,,0,,59,100
32160,note_on,,24,0,1,,,,,,,0,,64,100
32616,note_on,,456,0,1,,,,,,,0,,40,0
32616,note_on,,0,0,1,,,,,,,0,,59,0
32616,note_on,,0,0,1,,,,,,,0,,64,0
32616,note_on,,0,0,1,,,,,,,0,,56,0
32640,control_change,,3384,0,2,,,,,7,90,1,,,
32640,note_on,,24,0,1,,,,,,,0,,40,100
32640,note_on,,0,0,1,,,,,,,0,,52,100
32640,note_on,,0,0,1,,,,,,,0,,64,100
32640,note_on,,0,0,1,,,,,,,0,,62,100
32640,note_on,,0,0,1,,,,,,,0,,56,100
32640,note_on,,0,0,2,,,,,,,1,,64,100
32690,control_change,,50,0,2,,,,,7,91,1,,,
32791,control_change,,101,0,2,,,,,7,92,1,,,
32867,control_change,,76,0,2,,,,,7,93,1,,,
32942,control_change,,75,0,2,,,,,7,94,1,,,
33043,control_change,,101,0,2,,,,,7,95,1,,,
33096,note_on,,53,0,2,,,,,,,1,,64,0
33119,control_change,,23,0,2,,,,,7,96,1,,,
33120,note_on,,1,0,2,,,,,,,1,,71,100
33194,control_change,,74,0,2,,,,,7,97,1,,,
33295,control_change,,101,0,2,,,,,7,98,1,,,
33371,control_change,,76,0,2,,,,,7,99,1,,,
33446,control_change,,75,0,2,,,,,7,100,1,,,
33462,note_on,,16,0,2,,,,,,,1,,71,0
33480,note_on,,18,0,2,,,,,,,1,,72,100
33576,note_on,,936,0,1,,,,,,,0,,56,0
33576,note_on,,0,0,1,,,,,,,0,,62,0
33576,note_on,,0,0,1,,,,,,,0,,64,0
33576,note_on,,0,0,1,,,,,,,0,,52,0
33576,note_on,,0,0,1,,,,,,,0,,40,0
33594,note_on,,114,0,2,,,,,,,1,,72,0
33600,note_on,,24,0,1,,,,,,,0,,45,100
33600,note_on,,0,0,1,,,,,,,0,,52,100
33600,note_on,,0,0,1,,,,,,,0,,64,100
33600,note_on,,0,0,1,,,,,,,0,,60,100
33600,note_on,,0,0,1,,,,,,,0,,57,100
33600,note_on,,6,0,2,,,,,,,1,,69,100
33999,note_on,,399,0,2,,,,,,,1,,69,0
34020,note_on,,21,0,2,,,,,,,1,,71,100
34077,note_on,,57,0,2,,,,,,,1,,71,0
34080,note_on,,3,0,2,,,,,,,1,,69,100
34308,note_on,,228,0,2,,,,,,,1,,69,0
34320,note_on,,12,0,2,,,,,,,1,,67,100
34536,note_on,,0,0,1,,,,,,,0,,52,0
34536,note_on,,0,0,1,,,,,,,0,,45,0
34536,note_on,,936,0,1,,,,,,,0,,57,0
34536,note_on,,0,0,1,,,,,,,0,,64,0
34536,note_on,,0,0,1,,,,,,,0,,60,0
34548,note_on,,228,0,2,,,,,,,1,,67,0
34560,note_on,,12,0,2,,,,,,,1,,65,100
34560,note_on,,0,0,1,,,,,,,0,,45,100
34560,note_on,,0,0,1,,,,,,,0,,57,100
34560,note_on,,0,0,1,,,,,,,0,,59,100
34560,note_on,,24,0,1,,,,,,,0,,62,100
35016,note_on,,456,0,2,,,,,,,1,,65,0
35016,note_on,,456,0,1,,,,,,,0,,45,0
35040,note_on,,24,0,1,,,,,,,0,,38,100
35040,note_on,,24,0,2,,,,,,,1,,67,100
35268,note_on,,228,0,2,,,,,,,1,,67,0
35280,note_on,,12,0,2,,,,,,,1,,65,100
35496,note_on,,0,0,1,,,,,,,0,,59,0
35496,note_on,,0,0,1,,,,,,,0,,62,0
35496,note_on,,0,0,1,,,,,,,0,,57,0
35496,note_on,,456,0,1,,,,,,,0,,38,0
35508,note_on,,228,0,2,,,,,,,1,,65,0
35520,note_on,,0,0,1,,,,,,,0,,60,100
35520,note_on,,0,0,1,,,,,,,0,,57,100
35520,note_on,,24,0,1,,,,,,,0,,64,100
35520,note_on,,0,0,1,,,,,,,0,,45,100
35520,note_on,,12,0,2,,,,,,,1,,64,100
35520,note_on,,0,0,1,,,,,,,0,,52,100
35595,control_change,,75,0,2,,,,,7,101,1,,,
35747,control_change,,152,0,2,,,,,7,102,1,,,
35873,control_change,,126,0,2,,,,,7,103,1,,,
36024,control_change,,151,0,2,,,,,7,104,1,,,
36175,control_change,,151,0,2,,,,,7,105,1,,,
36228,note_on,,53,0,2,,,,,,,1,,64,0
36240,note_on,,12,0,2,,,,,,,1,,76,100
36301,control_change,,61,0,2,,,,,7,106,1,,,
36456,note_on,,0,0,1,,,,,,,0,,45,0
36456,note_on,,0,0,1,,,,,,,0,,57,0
36456,note_on,,0,0,1,,,,,,,0,,60,0
36456,note_on,,936,0,1,,,,,,,0,,52,0
36456,note_on,,0,0,1,,,,,,,0,,64,0
36468,note_on,,167,0,2,,,,,,,1,,76,0
36480,note_on,,12,0,2,,,,,,,1,,74,100
36480,note_on,,0,0,1,,,,,,,0,,52,100
36480,note_on,,0,0,1,,,,,,,0,,40,100
36480,note_on,,0,0,1,,,,,,,0,,59,100
36480,note_on,,0,0,1,,,,,,,0,,68,100
36480,note_on,,24,0,1,,,,,,,0,,62,100
36708,note_on,,228,0,2,,,,,,,1,,74,0
36720,note_on,,12,0,2,,,,,,,1,,72,100
36948,note_on,,228,0,2,,,,,,,1,,72,0
36960,note_on,,12,0,2,,,,,,,1,,71,100
37188,note_on,,228,0,2,,,,,,,1,,71,0
37200,note_on,,12,0,2,,,,,,,1,,72,100
37416,note_on,,0,0,1,,,,,,,0,,62,0
37416,note_on,,0,0,1,,,,,,,0,,40,0
37416,note_on,,0,0,1,,,,,,,0,,59,0
37416,note_on,,0,0,1,,,,,,,0,,68,0
37416,note_on,,936,0,1,,,,,,,0,,52,0
37428,note_on,,228,0,2,,,,,,,1,,72,0
37440,note_on,,24,0,1,,,,,,,0,,57,100
37440,note_on,,0,0,1,,,,,,,0,,60,100
37440,note_on,,0,0,1,,,,,,,0,,69,100
37440,note_on,,0,0,1,,,,,,,0,,53,100
37440,note_on,,0,0,1,,,,,,,0,,41,100
37440,note_on,,12,0,2,,,,,,,1,,69,100
37896,note_on,,0,0,1,,,,,,,0,,69,0
37896,note_on,,456,0,2,,,,,,,1,,69,0
37896,note_on,,0,0,1,,,,,,,0,,53,0
37896,note_on,,0,0,1,,,,,,,0,,60,0
37896,note_on,,0,0,1,,,,,,,0,,57,0
37896,note_on,,456,0,1,,,,,,,0,,41,0
37920,note_on,,24,0,1,,,,,,,0,,57,100
37920,note_on,,0,0,1,,,,,,,0,,59,100
37920,note_on,,0,0,1,,,,,,,0,,65,100
37920,note_on,,0,0,1,,,,,,,0,,69,100
37920,note_on,,0,0,1,,,,,,,0,,50,100
37920,note_on,,0,0,1,,,,,,,0,,38,100
37920,note_on,,24,0,2,,,,,,,1,,71,100
38376,note_on,,0,0,1,,,,,,,0,,65,0
38376,note_on,,0,0,1,,,,,,,0,,50,0
38376,note_on,,0,0,1,,,,,,,0,,69,0
38376,note_on,,456,0,2,,,,,,,1,,71,0
38376,note_on,,0,0,1,,,,,,,0,,59,0
38376,note_on,,0,0,1,,,,,,,0,,57,0
38376,note_on,,456,0,1,,,,,,,0,,38,0
38400,note_on,,24,0,1,,,,,,,0,,64,100
38400,note_on,,0,0,1,,,,,,,0,,68,100
38400,note_on,,0,0,1,,,,,,,0,,59,100
38400,note_on,,0,0,1,,,,,,,0,,40,100
38400,note_on,,0,0,1,,,,,,,0,,52,100
38400,note_on,,0,0,1,,,,,,,0,,62,100
38400,note_on,,24,0,2,,,,,,,1,,64,100
38552,note_on,,152,0,2,,,,,,,1,,64,0
38559,note_on,,7,0,2,,,,,,,1,,65,100
38711,note_on,,152,0,2,,,,,,,1,,65,0
38719,note_on,,8,0,2,,,,,,,1,,64,100
38870,note_on,,151,0,2,,,,,,,1,,64,0
38880,note_on,,10,0,2,,,,,,,1,,68,100
39336,note_on,,0,0,1,,,,,,,0,,68,0
39336,note_on,,0,0,1,,,,,,,0,,40,0
39336,note_on,,0,0,1,,,,,,,0,,52,0
39336,note_on,,936,0,1,,,,,,,0,,62,0
39336,note_on,,0,0,1,,,,,,,0,,64,0
39336,note_on,,456,0,2,,,,,,,1,,68,0
39336,note_on,,0,0,1,,,,,,,0,,59,0
39360,note_on,,24,0,2,,,,,,,1,,69,100
39360,note_on,,24,0,1,,,,,,,0,,64,100
39360,note_on,,0,0,1,,,,,,,0,,45,100
39360,note_on,,0,0,1,,,,,,,0,,57,100
39360,note_on,,0,0,1,,,,,,,0,,69,100
39360,note_on,,0,0,1,,,,,,,0,,60,100
39410,control_change,,50,0,2,,,,,7,105,1,,,
39460,control_change,,50,0,2,,,,,7,104,1,,,
39536,control_change,,76,0,2,,,,,7,103,1,,,
39612,control_change,,76,0,2,,,,,7,102,1,,,
39662,control_change,,50,0,2,,,,,7,101,1,,,
39738,control_change,,76,0,2,,,,,7,100,1,,,
39788,control_change,,50,0,2,,,,,7,99,1,,,
39816,note_on,,0,0,1,,,,,,,0,,57,0
39816,note_on,,0,0,1,,,,,,,0,,69,0
39816,note_on,,0,0,1,,,,,,,0,,60,0
39816,note_on,,0,0,1,,,,,,,0,,64,0
39816,note_on,,456,0,1,,,,,,,0,,45,0
39816,note_on,,28,0,2,,,,,,,1,,69,0
39840,note_on,,24,0,1,,,,,,,0,,57,100
39840,note_on,,0,0,1,,,,,,,0,,60,100
39840,note_on,,24,0,2,,,,,,,1,,72,100
39840,note_on,,0,0,1,,,,,,,0,,64,100
39840,note_on,,0,0,1,,,,,,,0,,52,100
39864,control_change,,24,0,2,,,,,7,98,1,,,
39939,control_change,,75,0,2,,,,,7,97,1,,,
39990,control_change,,51,0,2,,,,,7,96,1,,,
40065,control_change,,75,0,2,,,,,7,95,1,,,
40068,note_on,,3,0,2,,,,,,,1,,72,0
40296,note_on,,0,0,1,,,,,,,0,,64,0
40296,note_on,,0,0,1,,,,,,,0,,57,0
40296,note_on,,456,0,1,,,,,,,0,,52,0
40296,note_on,,0,0,1,,,,,,,0,,60,0
40320,note_on,,24,0,1,,,,,,,0,,48,100
40320,note_on,,0,0,2,,,,,,,1,,72,100
40320,control_change,,252,0,2,,,,,7,100,1,,,
40320,note_on,,0,0,1,,,,,,,0,,55,100
40320,note_on,,0,0,1,,,,,,,0,,60,100
40320,note_on,,0,0,1,,,,,,,0,,64,100
40370,control_change,,50,0,2,,,,,7,101,1,,,
40446,control_change,,76,0,2,,,,,7,102,1,,,
40521,control_change,,75,0,2,,,,,7,103,1,,,
40597,control_change,,76,0,2,,,,,7,104,1,,,
40673,control_change,,76,0,2,,,,,7,105,1,,,
40748,control_change,,75,0,2,,,,,7,106,1,,,
40776,note_on,,28,0,2,,,,,,,1,,72,0
40800,note_on,,24,0,2,,,,,,,1,,74,100
40824,control_change,,24,0,2,,,,,7,107,1,,,
40899,control_change,,75,0,2,,,,,7,108,1,,,
40975,control_change,,76,0,2,,,,,7,109,1,,,
41028,note_on,,53,0,2,,,,,,,1,,74,0
41040,note_on,,12,0,2,,,,,,,1,,76,100
41051,control_change,,11,0,2,,,,,7,110,1,,,
41126,control_change,,75,0,2,,,,,7,111,1,,,
41268,note_on,,142,0,2,,,,,,,1,,76,0
41280,note_on,,12,0,2,,,,,,,1,,67,100
41736,note_on,,456,0,2,,,,,,,1,,67,0
41760,note_on,,24,0,2,,,,,,,1,,69,100
42216,note_on,,0,0,1,,,,,,,0,,55,0
42216,note_on,,0,0,1,,,,,,,0,,60,0
42216,note_on,,456,0,2,,,,,,,1,,69,0
42216,note_on,,1896,0,1,,,,,,,0,,64,0
42216,note_on,,0,0,1,,,,,,,0,,48,0
42240,note_on,,0,0,1,,,,,,,0,,59,100
42240,note_on,,24,0,2,,,,,,,1,,71,100
42240,note_on,,24,0,1,,,,,,,0,,62,100
42240,note_on,,0,0,1,,,,,,,0,,55,100
42240,note_on,,0,0,1,,,,,,,0,,43,100
42696,note_on,,456,0,2,,,,,,,1,,71,0
42720,note_on,,24,0,2,,,,,,,1,,72,100
42770,control_change,,50,0,2,,,,,7,110,1,,,
42820,control_change,,50,0,2,,,,,7,109,1,,,
42871,control_change,,51,0,2,,,,,7,108,1,,,
42921,control_change,,50,0,2,,,,,7,107,1,,,
42948,note_on,,27,0,2,,,,,,,1,,72,0
42960,note_on,,12,0,2,,,,,,,1,,71,100
42972,control_change,,12,0,2,,,,,7,106,1,,,
43022,control_change,,50,0,2,,,,,7,105,1,,,
43073,control_change,,51,0,2,,,,,7,104,1,,,
43123,control_change,,50,0,2,,,,,7,103,1,,,
43173,control_change,,50,0,2,,,,,7,102,1,,,
43176,note_on,,936,0,1,,,,,,,0,,43,0
43176,note_on,,0,0,1,,,,,,,0,,55,0
43176,note_on,,0,0,1,,,,,,,0,,62,0
43176,note_on,,0,0,1,,,,,,,0,,59,0
43188,note_on,,15,0,2,,,,,,,1,,71,0
43200,note_on,,0,0,1,,,,,,,0,,38,100
43200,note_on,,0,0,1,,,,,,,0,,65,100
43200,note_on,,24,0,1,,,,,,,0,,62,100
43200,note_on,,12,0,2,,,,,,,1,,69,100
43200,note_on,,0,0,1,,,,,,,0,,57,100
43656,note_on,,456,0,2,,,,,,,1,,69,0
43680,note_on,,24,0,2,,,,,,,1,,71,100
43908,note_on,,228,0,2,,,,,,,1,,71,0
44136,note_on,,0,0,1,,,,,,,0,,57,0
44136,note_on,,936,0,1,,,,,,,0,,38,0
44136,note_on,,0,0,1,,,,,,,0,,62,0
44136,note_on,,0,0,1,,,,,,,0,,65,0
44160,note_on,,252,0,2,,,,,,,1,,68,100
44160,note_on,,0,0,1,,,,,,,0,,40,100
44160,note_on,,0,0,1,,,,,,,0,,52,100
44160,note_on,,24,0,1,,,,,,,0,,64,100
44160,note_on,,0,0,1,,,,,,,0,,56,100
44160,note_on,,0,0,1,,,,,,,0,,59,100
44160,note_on,,0,0,1,,,,,,,0,,62,100
44616,note_on,,456,0,2,,,,,,,1,,68,0
44640,note_on,,24,0,2,,,,,,,1,,64,100
44868,note_on,,228,0,2,,,,,,,1,,64,0
44880,note_on,,12,0,2,,,,,,,1,,64,100
45096,note_on,,0,0,1,,,,,,,0,,40,0
45096,note_on,,0,0,1,,,,,,,0,,62,0
45096,note_on,,0,0,1,,,,,,,0,,59,0
45096,note_on,,0,0,1,,,,,,,0,,56,0
45096,note_on,,936,0,1,,,,,,,0,,52,0
45096,note_on,,0,0,1,,,,,,,0,,64,0
45108,note_on,,228,0,2,,,,,,,1,,64,0
45120,note_on,,0,0,1,,,,,,,0,,45,100
45120,note_on,,12,0,2,,,,,,,1,,69,100
45120,note_on,,24,0,1,,,,,,,0,,57,100
45120,note_on,,0,0,1,,,,,,,0,,60,100
45120,note_on,,0,0,1,,,,,,,0,,64,100
45576,note_on,,456,0,2,,,,,,,1,,69,0
45576,note_on,,456,0,1,,,,,,,0,,45,0
45576,note_on,,0,0,1,,,,,,,0,,64,0
45576,note_on,,0,0,1,,,,,,,0,,60,0
45576,note_on,,0,0,1,,,,,,,0,,57,0
45600,note_on,,24,0,1,,,,,,,0,,57,100
45600,note_on,,0,0,1,,,,,,,0,,62,100
45600,note_on,,0,0,1,,,,,,,0,,65,100
45600,note_on,,0,0,1,,,,,,,0,,38,100
45600,note_on,,24,0,2,,,,,,,1,,74,100
45942,note_on,,342,0,2,,,,,,,1,,74,0
45960,note_on,,18,0,2,,,,,,,1,,69,100
46056,note_on,,456,0,1,,,,,,,0,,38,0
46056,note_on,,0,0,1,,,,,,,0,,62,0
46056,note_on,,0,0,1,,,,,,,0,,57,0
46056,note_on,,0,0,1,,,,,,,0,,65,0
46074,note_on,,114,0,2,,,,,,,1,,69,0
46080,note_on,,0,0,1,,,,,,,0,,60,100
46080,note_on,,24,0,1,,,,,,,0,,57,100
46080,note_on,,0,0,1,,,,,,,0,,64,100
46080,note_on,,6,0,2,,,,,,,1,,72,100
46080,note_on,,0,0,1,,,,,,,0,,40,100
46536,note_on,,456,0,2,,,,,,,1,,72,0
46536,note_on,,456,0,1,,,,,,,0,,40,0
46536,note_on,,0,0,1,,,,,,,0,,64,0
46536,note_on,,0,0,1,,,,,,,0,,60,0
46536,note_on,,0,0,1,,,,,,,0,,57,0
46560,note_on,,24,0,1,,,,,,,0,,56,100
46560,note_on,,0,0,1,,,,,,,0,,62,100
46560,note_on,,0,0,1,,,,,,,0,,64,100
46560,note_on,,0,0,1,,,,,,,0,,52,100
46560,note_on,,24,0,2,,,,,,,1,,71,100
46902,note_on,,342,0,2,,,,,,,1,,71,0
46920,note_on,,18,0,2,,,,,,,1,,72,100
47016,note_on,,0,0,1,,,,,,,0,,64,0
47016,note_on,,0,0,1,,,,,,,0,,62,0
47016,note_on,,0,0,1,,,,,,,0,,56,0
47016,note_on,,456,0,1,,,,,,,0,,52,0
47034,note_on,,114,0,2,,,,,,,1,,72,0
47040,note_on,,0,0,1,,,,,,,0,,64,100
47040,note_on,,0,0,1,,,,,,,0,,60,100
47040,note_on,,24,0,1,,,,,,,0,,57,100
47040,note_on,,6,0,2,,,,,,,1,,69,100
47040,note_on,,0,0,1,,,,,,,0,,45,100
47496,note_on,,456,0,2,,,,,,,1,,69,0
47496,note_on,,456,0,1,,,,,,,0,,45,0
47496,note_on,,0,0,1,,,,,,,0,,64,0
47496,note_on,,0,0,1,,,,,,,0,,57,0
47496,note_on,,0,0,1,,,,,,,0,,60,0
47520,note_on,,0,0,1,,,,,,,0,,48,100
47520,note_on,,24,0,1,,,,,,,0,,55,100
47520,note_on,,24,0,2,,,,,,,1,,67,100
47520,note_on,,0,0,1,,,,,,,0,,64,100
47520,note_on,,0,0,1,,,,,,,0,,60,100
47976,note_on,,0,0,1,,,,,,,0,,64,0
47976,note_on,,0,0,1,,,,,,,0,,60,0
47976,note_on,,0,0,1,,,,,,,0,,55,0
47976,note_on,,456,0,2,,,,,,,1,,67,0
47976,note_on,,456,0,1,,,,,,,0,,48,0
48000,note_on,,24,0,1,,,,,,,0,,48,100
48000,note_on,,0,0,1,,,,,,,0,,55,100
48000,note_on,,0,0,1,,,,,,,0,,60,100
48000,note_on,,0,0,1,,,,,,,0,,64,100
48000,note_on,,24,0,2,,,,,,,1,,72,100
48050,control_change,,50,0,2,,,,,7,103,1,,,
48151,control_change,,101,0,2,,,,,7,104,1,,,
48252,control_change,,101,0,2,,,,,7,105,1,,,
48327,control_change,,75,0,2,,,,,7,106,1,,,
48428,control_change,,101,0,2,,,,,7,107,1,,,
48456,note_on,,28,0,2,,,,,,,1,,72,0
48480,note_on,,24,0,2,,,,,,,1,,74,100
48529,control_change,,49,0,2,,,,,7,108,1,,,
48630,control_change,,101,0,2,,,,,7,109,1,,,
48706,control_change,,76,0,2,,,,,7,110,1,,,
48708,note_on,,2,0,2,,,,,,,1,,74,0
48720,note_on,,12,0,2,,,,,,,1,,76,100
48806,control_change,,86,0,2,,,,,7,111,1,,,
48948,note_on,,142,0,2,,,,,,,1,,76,0
48960,note_on,,12,0,2,,,,,,,1,,67,100
49416,note_on,,456,0,2,,,,,,,1,,67,0
49440,note_on,,24,0,2,,,,,,,1,,69,100
49896,note_on,,1896,0,1,,,,,,,0,,64,0
49896,note_on,,0,0,1,,,,,,,0,,60,0
49896,note_on,,0,0,1,,,,,,,0,,48,0
49896,note_on,,0,0,1,,,,,,,0,,55,0
49896,note_on,,456,0,2,,,,,,,1,,69,0
49920,note_on,,24,0,1,,,,,,,0,,43,100
49920,note_on,,0,0,1,,,,,,,0,,62,100
49920,note_on,,0,0,1,,,,,,,0,,55,100
49920,note_on,,0,0,1,,,,,,,0,,59,100
49920,note_on,,24,0,2,,,,,,,1,,71,100
50376,note_on,,456,0,2,,,,,,,1,,71,0
50400,note_on,,24,0,2,,,,,,,1,,72,100
50425,control_change,,25,0,2,,,,,7,110,1,,,
50475,control_change,,50,0,2,,,,,7,109,1,,,
50501,control_change,,26,0,2,,,,,7,108,1,,,
50551,control_change,,50,0,2,,,,,7,107,1,,,
50602,control_change,,51,0,2,,,,,7,106,1,,,
50627,control_change,,25,0,2,,,,,7,105,1,,,
50628,note_on,,1,0,2,,,,,,,1,,72,0
50640,note_on,,12,0,2,,,,,,,1,,71,100
50677,control_change,,37,0,2,,,,,7,104,1,,,
50702,control_change,,25,0,2,,,,,7,103,1,,,
50753,control_change,,51,0,2,,,,,7,102,1,,,
50856,note_on,,0,0,1,,,,,,,0,,43,0
50856,note_on,,0,0,1,,,,,,,0,,62,0
50856,note_on,,0,0,1,,,,,,,0,,55,0
50856,note_on,,936,0,1,,,,,,,0,,59,0
50868,note_on,,115,0,2,,,,,,,1,,71,0
50880,note_on,,0,0,1,,,,,,,0,,57,100
50880,note_on,,0,0,1,,,,,,,0,,65,100
50880,note_on,,0,0,1,,,,,,,0,,62,100
50880,note_on,,24,0,1,,,,,,,0,,38,100
50880,note_on,,12,0,2,,,,,,,1,,69,100
51336,note_on,,456,0,2,,,,,,,1,,69,0
51360,note_on,,24,0,2,,,,,,,1,,71,100
51588,note_on,,228,0,2,,,,,,,1,,71,0
51816,note_on,,0,0,1,,,,,,,0,,65,0
51816,note_on,,936,0,1,,,,,,,0,,57,0
51816,note_on,,0,0,1,,,,,,,0,,62,0
51816,note_on,,0,0,1,,,,,,,0,,38,0
51840,note_on,,0,0,1,,,,,,,0,,59,100
51840,note_on,,0,0,1,,,,,,,0,,52,100
51840,note_on,,0,0,1,,,,,,,0,,40,100
51840,note_on,,0,0,1,,,,,,,0,,62,100
51840,note_on,,0,0,1,,,,,,,0,,56,100
51840,note_on,,24,0,1,,,,,,,0,,64,100
51840,note_on,,252,0,2,,,,,,,1,,68,100
52296,note_on,,456,0,2,,,,,,,1,,68,0
52320,note_on,,24,0,2,,,,,,,1,,64,100
52548,note_on,,228,0,2,,,,,,,1,,64,0
52560,note_on,,12,0,2,,,,,,,1,,64,100
52776,note_on,,0,0,1,,,,,,,0,,59,0
52776,note_on,,0,0,1,,,,,,,0,,62,0
52776,note_on,,0,0,1,,,,,,,0,,56,0
52776,note_on,,936,0,1,,,,,,,0,,52,0
52776,note_on,,0,0,1,,,,,,,0,,40,0
52776,note_on,,0,0,1,,,,,,,0,,64,0
52788,note_on,,228,0,2,,,,,,,1,,64,0
52800,note_on,,0,0,1,,,,,,,0,,45,100
52800,note_on,,0,0,1,,,,,,,0,,64,100
52800,note_on,,0,0,1,,,,,,,0,,60,100
52800,note_on,,24,0,1,,,,,,,0,,57,100
52800,note_on,,12,0,2,,,,,,,1,,69,100
53256,note_on,,0,0,1,,,,,,,0,,57,0
53256,note_on,,0,0,1,,,,,,,0,,60,0
53256,note_on,,0,0,1,,,,,,,0,,64,0
53256,note_on,,456,0,1,,,,,,,0,,45,0
53256,note_on,,456,0,2,,,,,,,1,,69,0
53280,note_on,,24,0,2,,,,,,,1,,74,100
53280,note_on,,0,0,1,,,,,,,0,,57,100
53280,note_on,,0,0,1,,,,,,,0,,65,100
53280,note_on,,0,0,1,,,,,,,0,,62,100
53280,note_on,,0,0,1,,,,,,,0,,50,100
53280,note_on,,24,0,1,,,,,,,0,,38,100
53508,note_on,,228,0,2,,,,,,,1,,74,0
53520,note_on,,12,0,2,,,,,,,1,,69,100
53736,note_on,,0,0,1,,,,,,,0,,57,0
53736,note_on,,456,0,1,,,,,,,0,,50,0
53736,note_on,,0,0,1,,,,,,,0,,65,0
53736,note_on,,0,0,1,,,,,,,0,,62,0
53736,note_on,,0,0,1,,,,,,,0,,38,0
53748,note_on,,228,0,2,,,,,,,1,,69,0
53760,note_on,,0,0,1,,,,,,,0,,40,100
53760,note_on,,24,0,1,,,,,,,0,,57,100
53760,note_on,,12,0,2,,,,,,,1,,72,100
53760,note_on,,0,0,1,,,,,,,0,,60,100
53760,note_on,,0,0,1,,,,,,,0,,64,100
53760,note_on,,0,0,1,,,,,,,0,,52,100
53810,control_change,,50,0,2,,,,,7,103,1,,,
53861,control_change,,51,0,2,,,,,7,104,1,,,
53936,control_change,,75,0,2,,,,,7,105,1,,,
53987,control_change,,51,0,2,,,,,7,106,1,,,
54062,control_change,,75,0,2,,,,,7,107,1,,,
54138,control_change,,76,0,2,,,,,7,108,1,,,
54188,control_change,,50,0,2,,,,,7,109,1,,,
54216,note_on,,28,0,2,,,,,,,1,,72,0
54240,note_on,,24,0,2,,,,,,,1,,71,100
54264,control_change,,24,0,2,,,,,7,110,1,,,
54314,control_change,,50,0,2,,,,,7,111,1,,,
54390,control_change,,76,0,2,,,,,7,112,1,,,
54440,control_change,,50,0,2,,,,,7,113,1,,,
54468,note_on,,28,0,2,,,,,,,1,,71,0
54480,note_on,,12,0,2,,,,,,,1,,69,100
54516,control_change,,36,0,2,,,,,7,114,1,,,
54591,control_change,,75,0,2,,,,,7,115,1,,,
54708,note_on,,117,0,2,,,,,,,1,,69,0
54720,note_on,,12,0,2,,,,,,,1,,76,100
55584,note_on,,0,0,1,,,,,,,0,,40,0
55584,note_on,,0,0,1,,,,,,,0,,64,0
55584,note_on,,0,0,1,,,,,,,0,,60,0
55584,note_on,,0,0,1,,,,,,,0,,57,0
55584,note_on,,1824,0,1,,,,,,,0,,52,0
55680,note_on,,0,0,1,,,,,,,0,,52,100
55680,note_on,,96,0,1,,,,,,,0,,64,100
55680,note_on,,0,0,1,,,,,,,0,,57,100
55680,note_on,,0,0,1,,,,,,,0,,59,100
55680,note_on,,0,0,1,,,,,,,0,,40,100
55908,note_on,,1188,0,2,,,,,,,1,,76,0
55920,note_on,,0,0,2,,,,,,,1,,77,100
55920,control_change,,12,0,2,,,,,7,110,1,,,
55945,control_change,,25,0,2,,,,,7,109,1,,,
55995,control_change,,50,0,2,,,,,7,108,1,,,
56046,control_change,,51,0,2,,,,,7,107,1,,,
56096,control_change,,50,0,2,,,,,7,106,1,,,
56147,control_change,,51,0,2,,,,,7,105,1,,,
56148,note_on,,1,0,2,,,,,,,1,,77,0
56160,note_on,,12,0,2,,,,,,,1,,76,100
56197,control_change,,37,0,2,,,,,7,104,1,,,
56247,control_change,,50,0,2,,,,,7,103,1,,,
56298,control_change,,51,0,2,,,,,7,102,1,,,
56348,control_change,,50,0,2,,,,,7,101,1,,,
56388,note_on,,40,0,2,,,,,,,1,,76,0
56399,control_change,,11,0,2,,,,,7,100,1,,,
56400,note_on,,1,0,2,,,,,,,1,,75,100
56449,control_change,,49,0,2,,,,,7,99,1,,,
56499,control_change,,50,0,2,,,,,7,98,1,,,
56616,note_on,,936,0,1,,,,,,,0,,59,0
56616,note_on,,0,0,1,,,,,,,0,,57,0
56616,note_on,,0,0,1,,,,,,,0,,64,0
56628,note_on,,129,0,2,,,,,,,1,,75,0
56640,note_on,,0,0,1,,,,,,,0,,64,100
56640,note_on,,0,0,1,,,,,,,0,,62,100
56640,note_on,,12,0,2,,,,,,,1,,76,100
56640,note_on,,24,0,1,,,,,,,0,,56,100
56640,note_on,,0,0,1,,,,,,,0,,59,100
56665,control_change,,25,0,2,,,,,7,99,1,,,
56715,control_change,,50,0,2,,,,,7,100,1,,,
56766,control_change,,51,0,2,,,,,7,101,1,,,
56816,control_change,,50,0,2,,,,,7,102,1,,,
56867,control_change,,51,0,2,,,,,7,103,1,,,
56868,note_on,,1,0,2,,,,,,,1,,76,0
56880,note_on,,12,0,2,,,,,,,1,,71,100
56892,control_change,,12,0,2,,,,,7,104,1,,,
56942,control_change,,50,0,2,,,,,7,105,1,,,
56993,control_change,,51,0,2,,,,,7,106,1,,,
57096,note_on,,0,0,1,,,,,,,0,,56,0
57096,note_on,,456,0,1,,,,,,,0,,62,0
57096,note_on,,0,0,1,,,,,,,0,,64,0
57096,note_on,,0,0,1,,,,,,,0,,59,0
57108,note_on,,115,0,2,,,,,,,1,,71,0
57120,note_on,,12,0,2,,,,,,,1,,74,100
57120,note_on,,24,0,1,,,,,,,0,,68,100
57120,note_on,,0,0,1,,,,,,,0,,64,100
57120,note_on,,0,0,1,,,,,,,0,,62,100
57145,control_change,,25,0,2,,,,,7,105,1,,,
57145,control_change,,25,0,1,,,,,7,86,0,,,
57195,control_change,,50,0,2,,,,,7,104,1,,,
57195,control_change,,50,0,1,,,,,7,87,0,,,
57246,control_change,,51,0,2,,,,,7,103,1,,,
57246,control_change,,51,0,1,,,,,7,88,0,,,
57296,control_change,,50,0,2,,,,,7,102,1,,,
57296,control_change,,50,0,1,,,,,7,89,0,,,
57347,control_change,,51,0,1,,,,,7,90,0,,,
57347,control_change,,51,0,2,,,,,7,101,1,,,
57348,note_on,,1,0,2,,,,,,,1,,74,0
57360,note_on,,12,0,2,,,,,,,1,,72,100
57372,control_change,,12,0,2,,,,,7,100,1,,,
57372,control_change,,25,0,1,,,,,7,91,0,,,
57422,control_change,,50,0,1,,,,,7,92,0,,,
57422,control_change,,50,0,2,,,,,7,99,1,,,
57473,control_change,,51,0,2,,,,,7,98,1,,,
57473,control_change,,51,0,1,,,,,7,93,0,,,
57552,note_on,,0,0,1,,,,,,,0,,40,0
57552,note_on,,79,0,1,,,,,,,0,,52,0
57576,note_on,,0,0,1,,,,,,,0,,68,0
57576,note_on,,0,0,1,,,,,,,0,,64,0
57576,note_on,,24,0,1,,,,,,,0,,62,0
57588,note_on,,115,0,2,,,,,,,1,,72,0
57600,note_on,,0,0,1,,,,,,,0,,60,100
57600,note_on,,24,0,1,,,,,,,0,,69,100
57600,note_on,,0,0,1,,,,,,,0,,57,100
57600,note_on,,12,0,2,,,,,,,1,,69,100
57600,note_on,,0,0,1,,,,,,,0,,45,100
57600,note_on,,0,0,1,,,,,,,0,,64,100
58056,note_on,,0,0,1,,,,,,,0,,60,0
58056,note_on,,0,0,1,,,,,,,0,,69,0
58056,note_on,,0,0,1,,,,,,,0,,64,0
58056,note_on,,0,0,1,,,,,,,0,,57,0
58056,note_on,,456,0,1,,,,,,,0,,45,0
58056,note_on,,456,0,2,,,,,,,1,,69,0
58080,note_on,,24,0,1,,,,,,,0,,50,100
58080,note_on,,0,0,1,,,,,,,0,,57,100
58080,note_on,,0,0,1,,,,,,,0,,62,100
58080,note_on,,0,0,1,,,,,,,0,,65,100
58080,note_on,,0,0,1,,,,,,,0,,69,100
58422,note_on,,342,0,1,,,,,,,0,,69,0
58440,note_on,,18,0,1,,,,,,,0,,71,100
58536,note_on,,0,0,1,,,,,,,0,,50,0
58536,note_on,,0,0,1,,,,,,,0,,57,0
58536,note_on,,0,0,1,,,,,,,0,,62,0
58536,note_on,,96,0,1,,,,,,,0,,65,0
58554,note_on,,18,0,1,,,,,,,0,,71,0
58560,note_on,,0,0,1,,,,,,,0,,57,100
58560,note_on,,6,0,1,,,,,,,0,,69,100
58560,note_on,,0,0,1,,,,,,,0,,64,100
58560,note_on,,0,0,1,,,,,,,0,,60,100
58560,note_on,,0,0,1,,,,,,,0,,45,100
59016,note_on,,456,0,1,,,,,,,0,,45,0
59016,note_on,,0,0,1,,,,,,,0,,57,0
59016,note_on,,0,0,1,,,,,,,0,,69,0
59016,note_on,,0,0,1,,,,,,,0,,60,0
59016,note_on,,0,0,1,,,,,,,0,,64,0
59040,note_on,,24,0,1,,,,,,,0,,62,100
59040,note_on,,0,0,1,,,,,,,0,,50,100
59040,note_on,,0,0,1,,,,,,,0,,57,100
59040,note_on,,0,0,1,,,,,,,0,,65,100
59040,note_on,,0,0,1,,,,,,,0,,69,100
59382,note_on,,342,0,1,,,,,,,0,,69,0
59400,note_on,,18,0,1,,,,,,,0,,71,100
59496,note_on,,96,0,1,,,,,,,0,,57,0
59496,note_on,,0,0,1,,,,,,,0,,50,0
59496,note_on,,0,0,1,,,,,,,0,,65,0
59496,note_on,,0,0,1,,,,,,,0,,62,0
59514,note_on,,18,0,1,,,,,,,0,,71,0
59520,note_on,,0,0,1,,,,,,,0,,57,100
59520,note_on,,0,0,1,,,,,,,0,,45,100
59520,note_on,,0,0,1,,,,,,,0,,64,100
59520,note_on,,0,0,1,,,,,,,0,,60,100
59520,note_on,,6,0,1,,,,,,,0,,69,100
59976,note_on,,456,0,1,,,,,,,0,,45,0
59976,note_on,,0,0,1,,,,,,,0,,57,0
59976,note_on,,0,0,1,,,,,,,0,,60,0
59976,note_on,,0,0,1,,,,,,,0,,64,0
59976,note_on,,0,0,1,,,,,,,0,,69,0
60000,note_on,,0,0,1,,,,,,,0,,64,100
60000,note_on,,0,0,1,,,,,,,0,,47,100
60000,note_on,,24,0,1,,,,,,,0,,59,100
60000,note_on,,0,0,1,,,,,,,0,,68,100
60342,note_on,,342,0,1,,,,,,,0,,68,0
60360,note_on,,18,0,1,,,,,,,0,,69,100
60456,note_on,,0,0,1,,,,,,,0,,64,0
60456,note_on,,0,0,1,,,,,,,0,,59,0
60456,note_on,,96,0,1,,,,,,,0,,47,0
60474,note_on,,18,0,1,,,,,,,0,,69,0
60480,note_on,,6,0,1,,,,,,,0,,66,100
60480,note_on,,0,0,1,,,,,,,0,,63,100
60480,note_on,,0,0,1,,,,,,,0,,59,100
60480,note_on,,0,0,1,,,,,,,0,,47,100
60480,note_on,,0,0,1,,,,,,,0,,57,100
60530,control_change,,50,0,1,,,,,7,92,0,,,
60580,control_change,,50,0,1,,,,,7,91,0,,,
60631,control_change,,51,0,1,,,,,7,90,0,,,
60707,control_change,,76,0,1,,,,,7,89,0,,,
60757,control_change,,50,0,1,,,,,7,88,0,,,
60832,control_change,,75,0,1,,,,,7,87,0,,,
60883,control_change,,51,0,1,,,,,7,86,0,,,
60933,control_change,,50,0,1,,,,,7,85,0,,,
60936,note_on,,3,0,1,,,,,,,0,,57,0
60936,note_on,,0,0,1,,,,,,,0,,47,0
60936,note_on,,0,0,1,,,,,,,0,,59,0
60936,note_on,,0,0,1,,,,,,,0,,63,0
60936,note_on,,0,0,1,,,,,,,0,,66,0
60960,note_on,,0,0,1,,,,,,,0,,59,100
60960,note_on,,24,0,1,,,,,,,0,,64,100
60960,note_on,,0,0,1,,,,,,,0,,40,100
60960,note_on,,0,0,1,,,,,,,0,,56,100
61416,note_on,,456,0,1,,,,,,,0,,40,0
61416,note_on,,0,0,1,,,,,,,0,,56,0
61416,note_on,,0,0,1,,,,,,,0,,64,0
61416,note_on,,0,0,1,,,,,,,0,,59,0
61440,note_on,,0,0,1,,,,,,,0,,62,100
61440,note_on,,0,0,1,,,,,,,0,,64,100
61440,note_on,,0,0,1,,,,,,,0,,52,100
61440,note_on,,0,0,2,,,,,,,1,,64,100
61440,control_change,,3384,0,2,,,,,7,90,1,,,
61440,note_on,,0,0,1,,,,,,,0,,56,100
61440,note_on,,24,0,1,,,,,,,0,,40,100
61490,control_change,,50,0,2,,,,,7,91,1,,,
61591,control_change,,101,0,2,,,,,7,92,1,,,
61667,control_change,,76,0,2,,,,,7,93,1,,,
61742,control_change,,75,0,2,,,,,7,94,1,,,
61843,control_change,,101,0,2,,,,,7,95,1,,,
61896,note_on,,53,0,2,,,,,,,1,,64,0
61919,control_change,,23,0,2,,,,,7,96,1,,,
61920,note_on,,1,0,2,,,,,,,1,,71,100
61994,control_change,,74,0,2,,,,,7,97,1,,,
62095,control_change,,101,0,2,,,,,7,98,1,,,
62171,control_change,,76,0,2,,,,,7,99,1,,,
62246,control_change,,75,0,2,,,,,7,100,1,,,
62262,note_on,,16,0,2,,,,,,,1,,71,0
62280,note_on,,18,0,2,,,,,,,1,,72,100
62376,note_on,,0,0,1,,,,,,,0,,62,0
62376,note_on,,0,0,1,,,,,,,0,,40,0
62376,note_on,,0,0,1,,,,,,,0,,52,0
62376,note_on,,0,0,1,,,,,,,0,,64,0
62376,note_on,,936,0,1,,,,,,,0,,56,0
62394,note_on,,114,0,2,,,,,,,1,,72,0
62400,note_on,,6,0,2,,,,,,,1,,69,100
62400,note_on,,24,0,1,,,,,,,0,,45,100
62400,note_on,,0,0,1,,,,,,,0,,57,100
62400,note_on,,0,0,1,,,,,,,0,,60,100
62400,note_on,,0,0,1,,,,,,,0,,64,100
62400,note_on,,0,0,1,,,,,,,0,,52,100
62799,note_on,,399,0,2,,,,,,,1,,69,0
62820,note_on,,21,0,2,,,,,,,1,,71,100
62877,note_on,,57,0,2,,,,,,,1,,71,0
62880,note_on,,3,0,2,,,,,,,1,,69,100
63108,note_on,,228,0,2,,,,,,,1,,69,0
63120,note_on,,12,0,2,,,,,,,1,,67,100
63336,note_on,,0,0,1,,,,,,,0,,60,0
63336,note_on,,936,0,1,,,,,,,0,,57,0
63336,note_on,,0,0,1,,,,,,,0,,45,0
63336,note_on,,0,0,1,,,,,,,0,,52,0
63336,note_on,,0,0,1,,,,,,,0,,64,0
63348,note_on,,228,0,2,,,,,,,1,,67,0
63360,note_on,,0,0,1,,,,,,,0,,45,100
63360,note_on,,0,0,1,,,,,,,0,,59,100
63360,note_on,,24,0,1,,,,,,,0,,62,100
63360,note_on,,12,0,2,,,,,,,1,,65,100
63360,note_on,,0,0,1,,,,,,,0,,57,100
63816,note_on,,456,0,2,,,,,,,1,,65,0
63816,note_on,,456,0,1,,,,,,,0,,45,0
63840,note_on,,24,0,1,,,,,,,0,,38,100
63840,note_on,,24,0,2,,,,,,,1,,67,100
64068,note_on,,228,0,2,,,,,,,1,,67,0
64080,note_on,,12,0,2,,,,,,,1,,65,100
64296,note_on,,0,0,1,,,,,,,0,,59,0
64296,note_on,,456,0,1,,,,,,,0,,38,0
64296,note_on,,0,0,1,,,,,,,0,,62,0
64296,note_on,,0,0,1,,,,,,,0,,57,0
64308,note_on,,228,0,2,,,,,,,1,,65,0
64320,note_on,,24,0,1,,,,,,,0,,64,100
64320,note_on,,12,0,2,,,,,,,1,,64,100
64320,note_on,,0,0,1,,,,,,,0,,52,100
64320,note_on,,0,0,1,,,,,,,0,,45,100
64320,note_on,,0,0,1,,,,,,,0,,57,100
64320,note_on,,0,0,1,,,,,,,0,,60,100
64395,control_change,,75,0,2,,,,,7,101,1,,,
64547,control_change,,152,0,2,,,,,7,102,1,,,
64672,control_change,,125,0,2,,,,,7,103,1,,,
64824,control_change,,152,0,2,,,,,7,104,1,,,
64975,control_change,,151,0,2,,,,,7,105,1,,,
65028,note_on,,53,0,2,,,,,,,1,,64,0
65040,note_on,,12,0,2,,,,,,,1,,76,100
65101,control_change,,61,0,2,,,,,7,106,1,,,
65256,note_on,,936,0,1,,,,,,,0,,52,0
65256,note_on,,0,0,1,,,,,,,0,,45,0
65256,note_on,,0,0,1,,,,,,,0,,57,0
65256,note_on,,0,0,1,,,,,,,0,,60,0
65256,note_on,,0,0,1,,,,,,,0,,64,0
65268,note_on,,167,0,2,,,,,,,1,,76,0
65280,note_on,,24,0,1,,,,,,,0,,62,100
65280,note_on,,0,0,1,,,,,,,0,,40,100
65280,note_on,,0,0,1,,,,,,,0,,68,100
65280,note_on,,0,0,1,,,,,,,0,,59,100
65280,note_on,,0,0,1,,,,,,,0,,52,100
65280,note_on,,12,0,2,,,,,,,1,,74,100
65508,note_on,,228,0,2,,,,,,,1,,74,0
65520,note_on,,12,0,2,,,,,,,1,,72,100
65748,note_on,,228,0,2,,,,,,,1,,72,0
65760,note_on,,12,0,2,,,,,,,1,,71,100
65988,note_on,,228,0,2,,,,,,,1,,71,0
66000,note_on,,12,0,2,,,,,,,1,,72,100
66216,note_on,,936,0,1,,,,,,,0,,52,0
66216,note_on,,0,0,1,,,,,,,0,,40,0
66216,note_on,,0,0,1,,,,,,,0,,59,0
66216,note_on,,0,0,1,,,,,,,0,,68,0
66216,note_on,,0,0,1,,,,,,,0,,62,0
66228,note_on,,228,0,2,,,,,,,1,,72,0
66240,note_on,,12,0,2,,,,,,,1,,69,100
66240,note_on,,24,0,1,,,,,,,0,,57,100
66240,note_on,,0,0,1,,,,,,,0,,60,100
66240,note_on,,0,0,1,,,,,,,0,,69,100
66240,note_on,,0,0,1,,,,,,,0,,41,100
66240,note_on,,0,0,1,,,,,,,0,,53,100
66696,note_on,,456,0,2,,,,,,,1,,69,0
66696,note_on,,456,0,1,,,,,,,0,,41,0
66696,note_on,,0,0,1,,,,,,,0,,69,0
66696,note_on,,0,0,1,,,,,,,0,,60,0
66696,note_on,,0,0,1,,,,,,,0,,57,0
66696,note_on,,0,0,1,,,,,,,0,,53,0
66720,note_on,,0,0,1,,,,,,,0,,59,100
66720,note_on,,0,0,1,,,,,,,0,,65,100
66720,note_on,,0,0,1,,,,,,,0,,69,100
66720,note_on,,0,0,1,,,,,,,0,,50,100
66720,note_on,,0,0,1,,,,,,,0,,38,100
66720,note_on,,24,0,2,,,,,,,1,,71,100
66720,note_on,,24,0,1,,,,,,,0,,57,100
67176,note_on,,456,0,2,,,,,,,1,,71,0
67176,note_on,,456,0,1,,,,,,,0,,38,0
67176,note_on,,0,0,1,,,,,,,0,,50,0
67176,note_on,,0,0,1,,,,,,,0,,69,0
67176,note_on,,0,0,1,,,,,,,0,,65,0
67176,note_on,,0,0,1,,,,,,,0,,59,0
67176,note_on,,0,0,1,,,,,,,0,,57,0
67200,note_on,,24,0,1,,,,,,,0,,64,100
67200,note_on,,24,0,2,,,,,,,1,,64,100
67200,note_on,,0,0,1,,,,,,,0,,68,100
67200,note_on,,0,0,1,,,,,,,0,,40,100
67200,note_on,,0,0,1,,,,,,,0,,52,100
67200,note_on,,0,0,1,,,,,,,0,,62,100
67200,note_on,,0,0,1,,,,,,,0,,59,100
67352,note_on,,152,0,2,,,,,,,1,,64,0
67359,note_on,,7,0,2,,,,,,,1,,65,100
67511,note_on,,152,0,2,,,,,,,1,,65,0
67519,note_on,,8,0,2,,,,,,,1,,64,100
67670,note_on,,151,0,2,,,,,,,1,,64,0
67680,note_on,,10,0,2,,,,,,,1,,68,100
68136,note_on,,0,0,1,,,,,,,0,,64,0
68136,note_on,,0,0,1,,,,,,,0,,68,0
68136,note_on,,0,0,1,,,,,,,0,,59,0
68136,note_on,,0,0,1,,,,,,,0,,40,0
68136,note_on,,0,0,1,,,,,,,0,,52,0
68136,note_on,,936,0,1,,,,,,,0,,62,0
68136,note_on,,456,0,2,,,,,,,1,,68,0
68160,note_on,,24,0,2,,,,,,,1,,69,100
68160,note_on,,0,0,1,,,,,,,0,,69,100
68160,note_on,,0,0,1,,,,,,,0,,60,100
68160,note_on,,0,0,1,,,,,,,0,,45,100
68160,note_on,,0,0,1,,,,,,,0,,57,100
68160,note_on,,24,0,1,,,,,,,0,,64,100
68210,control_change,,50,0,2,,,,,7,105,1,,,
68260,control_change,,50,0,2,,,,,7,104,1,,,
68336,control_change,,76,0,2,,,,,7,103,1,,,
68412,control_change,,76,0,2,,,,,7,102,1,,,
68462,control_change,,50,0,2,,,,,7,101,1,,,
68538,control_change,,76,0,2,,,,,7,100,1,,,
68588,control_change,,50,0,2,,,,,7,99,1,,,
68616,note_on,,28,0,2,,,,,,,1,,69,0
68616,note_on,,0,0,1,,,,,,,0,,64,0
68616,note_on,,0,0,1,,,,,,,0,,60,0
68616,note_on,,0,0,1,,,,,,,0,,69,0
68616,note_on,,0,0,1,,,,,,,0,,57,0
68616,note_on,,456,0,1,,,,,,,0,,45,0
68640,note_on,,0,0,1,,,,,,,0,,64,100
68640,note_on,,24,0,1,,,,,,,0,,57,100
68640,note_on,,0,0,1,,,,,,,0,,52,100
68640,note_on,,0,0,1,,,,,,,0,,60,100
68640,note_on,,24,0,2,,,,,,,1,,72,100
68664,control_change,,24,0,2,,,,,7,98,1,,,
68739,control_change,,75,0,2,,,,,7,97,1,,,
68790,control_change,,51,0,2,,,,,7,96,1,,,
68865,control_change,,75,0,2,,,,,7,95,1,,,
68868,note_on,,3,0,2,,,,,,,1,,72,0
69096,note_on,,456,0,1,,,,,,,0,,52,0
69096,note_on,,0,0,1,,,,,,,0,,64,0
69096,note_on,,0,0,1,,,,,,,0,,60,0
69096,note_on,,0,0,1,,,,,,,0,,57,0
69120,note_on,,0,0,2,,,,,,,1,,72,100
69120,note_on,,0,0,1,,,,,,,0,,60,100
69120,note_on,,0,0,1,,,,,,,0,,64,100
69120,control_change,,252,0,2,,,,,7,100,1,,,
69120,note_on,,24,0,1,,,,,,,0,,48,100
69120,note_on,,0,0,1,,,,,,,0,,55,100
69170,control_change,,50,0,2,,,,,7,101,1,,,
69246,control_change,,76,0,2,,,,,7,102,1,,,
69321,control_change,,75,0,2,,,,,7,103,1,,,
69397,control_change,,76,0,2,,,,,7,104,1,,,
69472,control_change,,75,0,2,,,,,7,105,1,,,
69548,control_change,,76,0,2,,,,,7,106,1,,,
69576,note_on,,28,0,2,,,,,,,1,,72,0
69600,note_on,,24,0,2,,,,,,,1,,74,100
69624,control_change,,24,0,2,,,,,7,107,1,,,
69699,control_change,,75,0,2,,,,,7,108,1,,,
69775,control_change,,76,0,2,,,,,7,109,1,,,
69828,note_on,,53,0,2,,,,,,,1,,74,0
69840,note_on,,12,0,2,,,,,,,1,,76,100
69851,control_change,,11,0,2,,,,,7,110,1,,,
69926,control_change,,75,0,2,,,,,7,111,1,,,
70068,note_on,,142,0,2,,,,,,,1,,76,0
70080,note_on,,12,0,2,,,,,,,1,,67,100
70536,note_on,,456,0,2,,,,,,,1,,67,0
70560,note_on,,24,0,2,,,,,,,1,,69,100
71016,note_on,,1896,0,1,,,,,,,0,,64,0
71016,note_on,,0,0,1,,,,,,,0,,48,0
71016,note_on,,456,0,2,,,,,,,1,,69,0
71016,note_on,,0,0,1,,,,,,,0,,55,0
71016,note_on,,0,0,1,,,,,,,0,,60,0
71040,note_on,,0,0,1,,,,,,,0,,55,100
71040,note_on,,24,0,1,,,,,,,0,,62,100
71040,note_on,,0,0,1,,,,,,,0,,43,100
71040,note_on,,24,0,2,,,,,,,1,,71,100
71040,note_on,,0,0,1,,,,,,,0,,59,100
71496,note_on,,456,0,2,,,,,,,1,,71,0
71520,note_on,,24,0,2,,,,,,,1,,72,100
71570,control_change,,50,0,2,,,,,7,110,1,,,
71620,control_change,,50,0,2,,,,,7,109,1,,,
71671,control_change,,51,0,2,,,,,7,108,1,,,
71721,control_change,,50,0,2,,,,,7,107,1,,,
71748,note_on,,27,0,2,,,,,,,1,,72,0
71760,note_on,,12,0,2,,,,,,,1,,71,100
71772,control_change,,12,0,2,,,,,7,106,1,,,
71822,control_change,,50,0,2,,,,,7,105,1,,,
71872,control_change,,50,0,2,,,,,7,104,1,,,
71923,control_change,,51,0,2,,,,,7,103,1,,,
71973,control_change,,50,0,2,,,,,7,102,1,,,
71976,note_on,,0,0,1,,,,,,,0,,59,0
71976,note_on,,0,0,1,,,,,,,0,,62,0
71976,note_on,,936,0,1,,,,,,,0,,43,0
71976,note_on,,0,0,1,,,,,,,0,,55,0
71988,note_on,,15,0,2,,,,,,,1,,71,0
72000,note_on,,24,0,1,,,,,,,0,,62,100
72000,note_on,,0,0,1,,,,,,,0,,65,100
72000,note_on,,0,0,1,,,,,,,0,,38,100
72000,note_on,,0,0,1,,,,,,,0,,57,100
72000,note_on,,12,0,2,,,,,,,1,,69,100
72456,note_on,,456,0,2,,,,,,,1,,69,0
72480,note_on,,24,0,2,,,,,,,1,,71,100
72708,note_on,,228,0,2,,,,,,,1,,71,0
72936,note_on,,0,0,1,,,,,,,0,,62,0
72936,note_on,,0,0,1,,,,,,,0,,65,0
72936,note_on,,0,0,1,,,,,,,0,,57,0
72936,note_on,,936,0,1,,,,,,,0,,38,0
72960,note_on,,0,0,1,,,,,,,0,,52,100
72960,note_on,,0,0,1,,,,,,,0,,40,100
72960,note_on,,0,0,1,,,,,,,0,,62,100
72960,note_on,,0,0,1,,,,,,,0,,59,100
72960,note_on,,24,0,1,,,,,,,0,,64,100
72960,note_on,,0,0,1,,,,,,,0,,56,100
72960,note_on,,252,0,2,,,,,,,1,,68,100
73416,note_on,,456,0,2,,,,,,,1,,68,0
73440,note_on,,24,0,2,,,,,,,1,,64,100
73668,note_on,,228,0,2,,,,,,,1,,64,0
73680,note_on,,12,0,2,,,,,,,1,,64,100
73896,note_on,,0,0,1,,,,,,,0,,62,0
73896,note_on,,0,0,1,,,,,,,0,,64,0
73896,note_on,,0,0,1,,,,,,,0,,56,0
73896,note_on,,0,0,1,,,,,,,0,,59,0
73896,note_on,,0,0,1,,,,,,,0,,40,0
73896,note_on,,936,0,1,,,,,,,0,,52,0
73908,note_on,,228,0,2,,,,,,,1,,64,0
73920,note_on,,12,0,2,,,,,,,1,,69,100
73920,note_on,,24,0,1,,,,,,,0,,57,100
73920,note_on,,0,0,1,,,,,,,0,,60,100
73920,note_on,,0,0,1,,,,,,,0,,64,100
73920,note_on,,0,0,1,,,,,,,0,,45,100
74376,note_on,,456,0,1,,,,,,,0,,45,0
74376,note_on,,0,0,1,,,,,,,0,,57,0
74376,note_on,,0,0,1,,,,,,,0,,60,0
74376,note_on,,456,0,2,,,,,,,1,,69,0
74376,note_on,,0,0,1,,,,,,,0,,64,0
74400,note_on,,24,0,1,,,,,,,0,,57,100
74400,note_on,,0,0,1,,,,,,,0,,65,100
74400,note_on,,0,0,1,,,,,,,0,,62,100
74400,note_on,,24,0,2,,,,,,,1,,74,100
74400,note_on,,0,0,1,,,,,,,0,,38,100
74742,note_on,,342,0,2,,,,,,,1,,74,0
74760,note_on,,18,0,2,,,,,,,1,,69,100
74856,note_on,,456,0,1,,,,,,,0,,38,0
74856,note_on,,0,0,1,,,,,,,0,,65,0
74856,note_on,,0,0,1,,,,,,,0,,62,0
74856,note_on,,0,0,1,,,,,,,0,,57,0
74874,note_on,,114,0,2,,,,,,,1,,69,0
74880,note_on,,24,0,1,,,,,,,0,,57,100
74880,note_on,,0,0,1,,,,,,,0,,40,100
74880,note_on,,0,0,1,,,,,,,0,,64,100
74880,note_on,,0,0,1,,,,,,,0,,60,100
74880,note_on,,6,0,2,,,,,,,1,,72,100
75336,note_on,,0,0,1,,,,,,,0,,60,0
75336,note_on,,0,0,1,,,,,,,0,,57,0
75336,note_on,,456,0,1,,,,,,,0,,40,0
75336,note_on,,0,0,1,,,,,,,0,,64,0
75336,note_on,,456,0,2,,,,,,,1,,72,0
75360,note_on,,24,0,1,,,,,,,0,,56,100
75360,note_on,,0,0,1,,,,,,,0,,62,100
75360,note_on,,0,0,1,,,,,,,0,,64,100
75360,note_on,,0,0,1,,,,,,,0,,52,100
75360,note_on,,24,0,2,,,,,,,1,,71,100
75702,note_on,,342,0,2,,,,,,,1,,71,0
75720,note_on,,18,0,2,,,,,,,1,,72,100
75816,note_on,,456,0,1,,,,,,,0,,52,0
75816,note_on,,0,0,1,,,,,,,0,,64,0
75816,note_on,,0,0,1,,,,,,,0,,56,0
75816,note_on,,0,0,1,,,,,,,0,,62,0
75834,note_on,,114,0,2,,,,,,,1,,72,0
75840,note_on,,6,0,2,,,,,,,1,,69,100
75840,note_on,,0,0,1,,,,,,,0,,64,100
75840,note_on,,0,0,1,,,,,,,0,,60,100
75840,note_on,,24,0,1,,,,,,,0,,57,100
75840,note_on,,0,0,1,,,,,,,0,,45,100
76296,note_on,,456,0,2,,,,,,,1,,69,0
76296,note_on,,0,0,1,,,,,,,0,,64,0
76296,note_on,,0,0,1,,,,,,,0,,60,0
76296,note_on,,0,0,1,,,,,,,0,,57,0
76296,note_on,,456,0,1,,,,,,,0,,45,0
76320,note_on,,24,0,2,,,,,,,1,,67,100
76320,note_on,,24,0,1,,,,,,,0,,55,100
76320,note_on,,0,0,1,,,,,,,0,,60,100
76320,note_on,,0,0,1,,,,,,,0,,64,100
76320,note_on,,0,0,1,,,,,,,0,,48,100
76776,note_on,,456,0,2,,,,,,,1,,67,0
76776,note_on,,0,0,1,,,,,,,0,,64,0
76776,note_on,,0,0,1,,,,,,,0,,55,0
76776,note_on,,456,0,1,,,,,,,0,,48,0
76776,note_on,,0,0,1,,,,,,,0,,60,0
76800,note_on,,24,0,2,,,,,,,1,,72,100
76800,note_on,,0,0,1,,,,,,,0,,64,100
76800,note_on,,0,0,1,,,,,,,0,,60,100
76800,note_on,,0,0,1,,,,,,,0,,55,100
76800,note_on,,24,0,1,,,,,,,0,,48,100
76850,control_change,,50,0,2,,,,,7,103,1,,,
76951,control_change,,101,0,2,,,,,7,104,1,,,
77052,control_change,,101,0,2,,,,,7,105,1,,,
77127,control_change,,75,0,2,,,,,7,106,1,,,
77228,control_change,,101,0,2,,,,,7,107,1,,,
77256,note_on,,28,0,2,,,,,,,1,,72,0
77280,note_on,,24,0,2,,,,,,,1,,74,100
77329,control_change,,49,0,2,,,,,7,108,1,,,
77430,control_change,,101,0,2,,,,,7,109,1,,,
77506,control_change,,76,0,2,,,,,7,110,1,,,
77508,note_on,,2,0,2,,,,,,,1,,74,0
77520,note_on,,12,0,2,,,,,,,1,,76,100
77606,control_change,,86,0,2,,,,,7,111,1,,,
77748,note_on,,142,0,2,,,,,,,1,,76,0
77760,note_on,,12,0,2,,,,,,,1,,67,100
78216,note_on,,456,0,2,,,,,,,1,,67,0
78240,note_on,,24,0,2,,,,,,,1,,69,100
78696,note_on,,1896,0,1,,,,,,,0,,64,0
78696,note_on,,0,0,1,,,,,,,0,,60,0
78696,note_on,,0,0,1,,,,,,,0,,55,0
78696,note_on,,0,0,1,,,,,,,0,,48,0
78696,note_on,,456,0,2,,,,,,,1,,69,0
78720,note_on,,24,0,1,,,,,,,0,,43,100
78720,note_on,,0,0,1,,,,,,,0,,62,100
78720,note_on,,0,0,1,,,,,,,0,,59,100
78720,note_on,,24,0,2,,,,,,,1,,71,100
78720,note_on,,0,0,1,,,,,,,0,,55,100
79176,note_on,,456,0,2,,,,,,,1,,71,0
79200,note_on,,24,0,2,,,,,,,1,,72,100
79225,control_change,,25,0,2,,,,,7,110,1,,,
79275,control_change,,50,0,2,,,,,7,109,1,,,
79301,control_change,,26,0,2,,,,,7,108,1,,,
79351,control_change,,50,0,2,,,,,7,107,1,,,
79402,control_change,,51,0,2,,,,,7,106,1,,,
79427,control_change,,25,0,2,,,,,7,105,1,,,
79428,note_on,,1,0,2,,,,,,,1,,72,0
79440,note_on,,12,0,2,,,,,,,1,,71,100
79477,control_change,,37,0,2,,,,,7,104,1,,,
79502,control_change,,25,0,2,,,,,7,103,1,,,
79553,control_change,,51,0,2,,,,,7,102,1,,,
79656,note_on,,0,0,1,,,,,,,0,,43,0
79656,note_on,,0,0,1,,,,,,,0,,62,0
79656,note_on,,0,0,1,,,,,,,0,,55,0
79656,note_on,,936,0,1,,,,,,,0,,59,0
79668,note_on,,115,0,2,,,,,,,1,,71,0
79680,note_on,,0,0,1,,,,,,,0,,57,100
79680,note_on,,0,0,1,,,,,,,0,,65,100
79680,note_on,,12,0,2,,,,,,,1,,69,100
79680,note_on,,24,0,1,,,,,,,0,,38,100
79680,note_on,,0,0,1,,,,,,,0,,62,100
80136,note_on,,456,0,2,,,,,,,1,,69,0
80160,note_on,,24,0,2,,,,,,,1,,71,100
80388,note_on,,228,0,2,,,,,,,1,,71,0
80616,note_on,,0,0,1,,,,,,,0,,38,0
80616,note_on,,0,0,1,,,,,,,0,,62,0
80616,note_on,,0,0,1,,,,,,,0,,65,0
80616,note_on,,936,0,1,,,,,,,0,,57,0
80640,note_on,,0,0,1,,,,,,,0,,59,100
80640,note_on,,0,0,1,,,,,,,0,,62,100
80640,note_on,,252,0,2,,,,,,,1,,68,100
80640,note_on,,0,0,1,,,,,,,0,,52,100
80640,note_on,,0,0,1,,,,,,,0,,40,100
80640,note_on,,24,0,1,,,,,,,0,,64,100
80640,note_on,,0,0,1,,,,,,,0,,56,100
81096,note_on,,456,0,2,,,,,,,1,,68,0
81120,note_on,,24,0,2,,,,,,,1,,64,100
81348,note_on,,228,0,2,,,,,,,1,,64,0
81360,note_on,,12,0,2,,,,,,,1,,64,100
81576,note_on,,0,0,1,,,,,,,0,,59,0
81576,note_on,,0,0,1,,,,,,,0,,64,0
81576,note_on,,0,0,1,,,,,,,0,,56,0
81576,note_on,,936,0,1,,,,,,,0,,52,0
81576,note_on,,0,0,1,,,,,,,0,,62,0
81576,note_on,,0,0,1,,,,,,,0,,40,0
81588,note_on,,228,0,2,,,,,,,1,,64,0
81600,note_on,,0,0,1,,,,,,,0,,45,100
81600,note_on,,24,0,1,,,,,,,0,,57,100
81600,note_on,,0,0,1,,,,,,,0,,60,100
81600,note_on,,0,0,1,,,,,,,0,,64,100
81600,note_on,,12,0,2,,,,,,,1,,69,100
82056,note_on,,0,0,1,,,,,,,0,,57,0
82056,note_on,,0,0,1,,,,,,,0,,60,0
82056,note_on,,0,0,1,,,,,,,0,,64,0
82056,note_on,,456,0,1,,,,,,,0,,45,0
82056,note_on,,456,0,2,,,,,,,1,,69,0
82080,note_on,,24,0,2,,,,,,,1,,74,100
82080,note_on,,24,0,1,,,,,,,0,,38,100
82080,note_on,,0,0,1,,,,,,,0,,57,100
82080,note_on,,0,0,1,,,,,,,0,,62,100
82080,note_on,,0,0,1,,,,,,,0,,50,100
82080,note_on,,0,0,1,,,,,,,0,,65,100
82308,note_on,,228,0,2,,,,,,,1,,74,0
82320,note_on,,12,0,2,,,,,,,1,,69,100
82536,note_on,,0,0,1,,,,,,,0,,65,0
82536,note_on,,0,0,1,,,,,,,0,,57,0
82536,note_on,,456,0,1,,,,,,,0,,50,0
82536,note_on,,0,0,1,,,,,,,0,,62,0
82536,note_on,,0,0,1,,,,,,,0,,38,0
82548,note_on,,228,0,2,,,,,,,1,,69,0
82560,note_on,,0,0,1,,,,,,,0,,60,100
82560,note_on,,0,0,1,,,,,,,0,,64,100
82560,note_on,,0,0,1,,,,,,,0,,40,100
82560,note_on,,0,0,1,,,,,,,0,,52,100
82560,note_on,,12,0,2,,,,,,,1,,72,100
82560,note_on,,24,0,1,,,,,,,0,,57,100
82610,control_change,,50,0,2,,,,,7,103,1,,,
82661,control_change,,51,0,2,,,,,7,104,1,,,
82736,control_change,,75,0,2,,,,,7,105,1,,,
82787,control_change,,51,0,2,,,,,7,106,1,,,
82862,control_change,,75,0,2,,,,,7,107,1,,,
82938,control_change,,76,0,2,,,,,7,108,1,,,
82988,control_change,,50,0,2,,,,,7,109,1,,,
83016,note_on,,28,0,2,,,,,,,1,,72,0
83040,note_on,,24,0,2,,,,,,,1,,71,100
83064,control_change,,24,0,2,,,,,7,110,1,,,
83114,control_change,,50,0,2,,,,,7,111,1,,,
83190,control_change,,76,0,2,,,,,7,112,1,,,
83240,control_change,,50,0,2,,,,,7,113,1,,,
83268,note_on,,28,0,2,,,,,,,1,,71,0
83280,note_on,,12,0,2,,,,,,,1,,69,100
83316,control_change,,36,0,2,,,,,7,114,1,,,
83391,control_change,,75,0,2,,,,,7,115,1,,,
83508,note_on,,117,0,2,,,,,,,1,,69,0
83520,note_on,,12,0,2,,,,,,,1,,76,100
84384,note_on,,1824,0,1,,,,,,,0,,52,0
84384,note_on,,0,0,1,,,,,,,0,,64,0
84384,note_on,,0,0,1,,,,,,,0,,60,0
84384,note_on,,0,0,1,,,,,,,0,,57,0
84384,note_on,,0,0,1,,,,,,,0,,40,0
84480,note_on,,0,0,1,,,,,,,0,,59,100
84480,note_on,,0,0,1,,,,,,,0,,40,100
84480,note_on,,96,0,1,,,,,,,0,,64,100
84480,note_on,,0,0,1,,,,,,,0,,52,100
84480,note_on,,0,0,1,,,,,,,0,,57,100
84708,note_on,,1188,0,2,,,,,,,1,,76,0
84720,control_change,,12,0,2,,,,,7,110,1,,,
84720,note_on,,0,0,2,,,,,,,1,,77,100
84745,control_change,,25,0,2,,,,,7,109,1,,,
84795,control_change,,50,0,2,,,,,7,108,1,,,
84846,control_change,,51,0,2,,,,,7,107,1,,,
84896,control_change,,50,0,2,,,,,7,106,1,,,
84947,control_change,,51,0,2,,,,,7,105,1,,,
84948,note_on,,1,0,2,,,,,,,1,,77,0
84960,note_on,,12,0,2,,,,,,,1,,76,100
84997,control_change,,37,0,2,,,,,7,104,1,,,
85047,control_change,,50,0,2,,,,,7,103,1,,,
85098,control_change,,51,0,2,,,,,7,102,1,,,
85148,control_change,,50,0,2,,,,,7,101,1,,,
85188,note_on,,40,0,2,,,,,,,1,,76,0
85199,control_change,,11,0,2,,,,,7,100,1,,,
85200,note_on,,1,0,2,,,,,,,1,,75,100
85249,control_change,,49,0,2,,,,,7,99,1,,,
85299,control_change,,50,0,2,,,,,7,98,1,,,
85416,note_on,,0,0,1,,,,,,,0,,64,0
85416,note_on,,0,0,1,,,,,,,0,,57,0
85416,note_on,,936,0,1,,,,,,,0,,59,0
85428,note_on,,129,0,2,,,,,,,1,,75,0
85440,note_on,,0,0,1,,,,,,,0,,64,100
85440,note_on,,12,0,2,,,,,,,1,,76,100
85440,note_on,,0,0,1,,,,,,,0,,59,100
85440,note_on,,0,0,1,,,,,,,0,,62,100
85440,note_on,,24,0,1,,,,,,,0,,56,100
85465,control_change,,25,0,2,,,,,7,99,1,,,
85515,control_change,,50,0,2,,,,,7,100,1,,,
85566,control_change,,51,0,2,,,,,7,101,1,,,
85616,control_change,,50,0,2,,,,,7,102,1,,,
85667,control_change,,51,0,2,,,,,7,103,1,,,
85668,note_on,,1,0,2,,,,,,,1,,76,0
85680,note_on,,12,0,2,,,,,,,1,,71,100
85692,control_change,,12,0,2,,,,,7,104,1,,,
85742,control_change,,50,0,2,,,,,7,105,1,,,
85793,control_change,,51,0,2,,,,,7,106,1,,,
85896,note_on,,456,0,1,,,,,,,0,,62,0
85896,note_on,,0,0,1,,,,,,,0,,64,0
85896,note_on,,0,0,1,,,,,,,0,,56,0
85896,note_on,,0,0,1,,,,,,,0,,59,0
85908,note_on,,115,0,2,,,,,,,1,,71,0
85920,note_on,,12,0,2,,,,,,,1,,74,100
85920,note_on,,0,0,1,,,,,,,0,,64,100
85920,note_on,,0,0,1,,,,,,,0,,62,100
85920,note_on,,24,0,1,,,,,,,0,,68,100
85945,control_change,,25,0,1,,,,,7,86,0,,,
85945,control_change,,25,0,2,,,,,7,105,1,,,
85995,control_change,,50,0,2,,,,,7,104,1,,,
85995,control_change,,50,0,1,,,,,7,87,0,,,
86046,control_change,,51,0,1,,,,,7,88,0,,,
86046,control_change,,51,0,2,,,,,7,103,1,,,
86096,control_change,,50,0,1,,,,,7,89,0,,,
86096,control_change,,50,0,2,,,,,7,102,1,,,
86147,control_change,,51,0,2,,,,,7,101,1,,,
86147,control_change,,51,0,1,,,,,7,90,0,,,
86148,note_on,,1,0,2,,,,,,,1,,74,0
86160,note_on,,12,0,2,,,,,,,1,,72,100
86172,control_change,,25,0,1,,,,,7,91,0,,,
86172,control_change,,12,0,2,,,,,7,100,1,,,
86222,control_change,,50,0,2,,,,,7,99,1,,,
86222,control_change,,50,0,1,,,,,7,92,0,,,
86273,control_change,,51,0,2,,,,,7,98,1,,,
86273,control_change,,51,0,1,,,,,7,93,0,,,
86352,note_on,,79,0,1,,,,,,,0,,52,0
86352,note_on,,0,0,1,,,,,,,0,,40,0
86376,note_on,,24,0,1,,,,,,,0,,62,0
86376,note_on,,0,0,1,,,,,,,0,,64,0
86376,note_on,,0,0,1,,,,,,,0,,68,0
86388,note_on,,115,0,2,,,,,,,1,,72,0
86400,note_on,,0,0,1,,,,,,,0,,57,100
86400,note_on,,0,0,1,,,,,,,0,,45,100
86400,note_on,,0,0,1,,,,,,,0,,60,100
86400,note_on,,0,0,1,,,,,,,0,,64,100
86400,note_on,,12,0,2,,,,,,,1,,69,100
86400,note_on,,24,0,1,,,,,,,0,,69,100
86856,note_on,,0,0,1,,,,,,,0,,69,0
86856,note_on,,456,0,2,,,,,,,1,,69,0
86856,note_on,,456,0,1,,,,,,,0,,45,0
86856,note_on,,0,0,1,,,,,,,0,,57,0
86856,note_on,,0,0,1,,,,,,,0,,60,0
86856,note_on,,0,0,1,,,,,,,0,,64,0
86880,note_on,,24,0,1,,,,,,,0,,50,100
86880,note_on,,0,0,1,,,,,,,0,,57,100
86880,note_on,,0,0,1,,,,,,,0,,62,100
86880,note_on,,0,0,1,,,,,,,0,,65,100
86880,note_on,,0,0,1,,,,,,,0,,69,100
87222,note_on,,342,0,1,,,,,,,0,,69,0
87240,note_on,,18,0,1,,,,,,,0,,71,100
87336,note_on,,0,0,1,,,,,,,0,,50,0
87336,note_on,,0,0,1,,,,,,,0,,57,0
87336,note_on,,0,0,1,,,,,,,0,,62,0
87336,note_on,,96,0,1,,,,,,,0,,65,0
87354,note_on,,18,0,1,,,,,,,0,,71,0
87360,note_on,,6,0,1,,,,,,,0,,69,100
87360,note_on,,0,0,1,,,,,,,0,,64,100
87360,note_on,,0,0,1,,,,,,,0,,60,100
87360,note_on,,0,0,1,,,,,,,0,,57,100
87360,note_on,,0,0,1,,,,,,,0,,45,100
87816,note_on,,456,0,1,,,,,,,0,,45,0
87816,note_on,,0,0,1,,,,,,,0,,57,0
87816,note_on,,0,0,1,,,,,,,0,,60,0
87816,note_on,,0,0,1,,,,,,,0,,64,0
87816,note_on,,0,0,1,,,,,,,0,,69,0
87840,note_on,,0,0,1,,,,,,,0,,50,100
87840,note_on,,24,0,1,,,,,,,0,,62,100
87840,note_on,,0,0,1,,,,,,,0,,69,100
87840,note_on,,0,0,1,,,,,,,0,,57,100
87840,note_on,,0,0,1,,,,,,,0,,65,100
88182,note_on,,342,0,1,,,,,,,0,,69,0
88200,note_on,,18,0,1,,,,,,,0,,71,100
88296,note_on,,0,0,1,,,,,,,0,,50,0
88296,note_on,,0,0,1,,,,,,,0,,65,0
88296,note_on,,0,0,1,,,,,,,0,,62,0
88296,note_on,,96,0,1,,,,,,,0,,57,0
88314,note_on,,18,0,1,,,,,,,0,,71,0
88320,note_on,,6,0,1,,,,,,,0,,69,100
88320,note_on,,0,0,1,,,,,,,0,,64,100
88320,note_on,,0,0,1,,,,,,,0,,57,100
88320,note_on,,0,0,1,,,,,,,0,,45,100
88320,note_on,,0,0,1,,,,,,,0,,60,100
88776,note_on,,0,0,1,,,,,,,0,,64,0
88776,note_on,,0,0,1,,,,,,,0,,69,0
88776,note_on,,0,0,1,,,,,,,0,,60,0
88776,note_on,,0,0,1,,,,,,,0,,57,0
88776,note_on,,456,0,1,,,,,,,0,,45,0
88800,note_on,,0,0,1,,,,,,,0,,64,100
88800,note_on,,24,0,1,,,,,,,0,,59,100
88800,note_on,,0,0,1,,,,,,,0,,68,100
88800,note_on,,0,0,1,,,,,,,0,,47,100
89142,note_on,,342,0,1,,,,,,,0,,68,0
89160,note_on,,18,0,1,,,,,,,0,,69,100
89256,note_on,,96,0,1,,,,,,,0,,47,0
89256,note_on,,0,0,1,,,,,,,0,,64,0
89256,note_on,,0,0,1,,,,,,,0,,59,0
89274,note_on,,18,0,1,,,,,,,0,,69,0
89280,note_on,,0,0,1,,,,,,,0,,57,100
89280,note_on,,0,0,1,,,,,,,0,,47,100
89280,note_on,,0,0,1,,,,,,,0,,59,100
89280,note_on,,6,0,1,,,,,,,0,,66,100
89280,note_on,,0,0,1,,,,,,,0,,63,100
89330,control_change,,50,0,1,,,,,7,92,0,,,
89380,control_change,,50,0,1,,,,,7,91,0,,,
89431,control_change,,51,0,1,,,,,7,90,0,,,
89507,control_change,,76,0,1,,,,,7,89,0,,,
89557,control_change,,50,0,1,,,,,7,88,0,,,
89632,control_change,,75,0,1,,,,,7,87,0,,,
89683,control_change,,51,0,1,,,,,7,86,0,,,
89733,control_change,,50,0,1,,,,,7,85,0,,,
89736,note_on,,0,0,1,,,,,,,0,,66,0
89736,note_on,,0,0,1,,,,,,,0,,63,0
89736,note_on,,3,0,1,,,,,,,0,,57,0
89736,note_on,,0,0,1,,,,,,,0,,47,0
89736,note_on,,0,0,1,,,,,,,0,,59,0
89760,note_on,,24,0,1,,,,,,,0,,64,100
89760,note_on,,0,0,1,,,,,,,0,,59,100
89760,note_on,,0,0,1,,,,,,,0,,56,100
89760,note_on,,0,0,1,,,,,,,0,,40,100
90216,note_on,,456,0,1,,,,,,,0,,40,0
90216,note_on,,0,0,1,,,,,,,0,,56,0
90216,note_on,,0,0,1,,,,,,,0,,59,0
90216,note_on,,0,0,1,,,,,,,0,,64,0
90240,note_on,,0,0,1,,,,,,,0,,56,100
90240,note_on,,0,0,1,,,,,,,0,,62,100
90240,note_on,,0,0,1,,,,,,,0,,64,100
90240,control_change,,3384,0,2,,,,,7,90,1,,,
90240,note_on,,24,0,1,,,,,,,0,,40,100
90240,note_on,,0,0,2,,,,,,,1,,64,100
90240,note_on,,0,0,1,,,,,,,0,,52,100
90290,control_change,,50,0,2,,,,,7,91,1,,,
90391,control_change,,101,0,2,,,,,7,92,1,,,
90467,control_change,,76,0,2,,,,,7,93,1,,,
90542,control_change,,75,0,2,,,,,7,94,1,,,
90643,control_change,,101,0,2,,,,,7,95,1,,,
90696,note_on,,53,0,2,,,,,,,1,,64,0
90719,control_change,,23,0,2,,,,,7,96,1,,,
90720,note_on,,1,0,2,,,,,,,1,,71,100
90794,control_change,,74,0,2,,,,,7,97,1,,,
90895,control_change,,101,0,2,,,,,7,98,1,,,
90971,control_change,,76,0,2,,,,,7,99,1,,,
91046,control_change,,75,0,2,,,,,7,100,1,,,
91062,note_on,,16,0,2,,,,,,,1,,71,0
91080,note_on,,18,0,2,,,,,,,1,,72,100
91176,note_on,,0,0,1,,,,,,,0,,40,0
91176,note_on,,0,0,1,,,,,,,0,,52,0
91176,note_on,,0,0,1,,,,,,,0,,62,0
91176,note_on,,936,0,1,,,,,,,0,,56,0
91176,note_on,,0,0,1,,,,,,,0,,64,0
91194,note_on,,114,0,2,,,,,,,1,,72,0
91200,note_on,,6,0,2,,,,,,,1,,69,100
91200,note_on,,0,0,1,,,,,,,0,,60,100
91200,note_on,,24,0,1,,,,,,,0,,45,100
91200,note_on,,0,0,1,,,,,,,0,,52,100
91200,note_on,,0,0,1,,,,,,,0,,64,100
91200,note_on,,0,0,1,,,,,,,0,,57,100
91599,note_on,,399,0,2,,,,,,,1,,69,0
91620,note_on,,21,0,2,,,,,,,1,,71,100
91677,note_on,,57,0,2,,,,,,,1,,71,0
91680,note_on,,3,0,2,,,,,,,1,,69,100
91908,note_on,,228,0,2,,,,,,,1,,69,0
91920,note_on,,12,0,2,,,,,,,1,,67,100
92136,note_on,,0,0,1,,,,,,,0,,52,0
92136,note_on,,936,0,1,,,,,,,0,,57,0
92136,note_on,,0,0,1,,,,,,,0,,60,0
92136,note_on,,0,0,1,,,,,,,0,,64,0
92136,note_on,,0,0,1,,,,,,,0,,45,0
92148,note_on,,228,0,2,,,,,,,1,,67,0
92160,note_on,,12,0,2,,,,,,,1,,65,100
92160,note_on,,24,0,1,,,,,,,0,,62,100
92160,note_on,,0,0,1,,,,,,,0,,59,100
92160,note_on,,0,0,1,,,,,,,0,,57,100
92160,note_on,,0,0,1,,,,,,,0,,45,100
92616,note_on,,456,0,2,,,,,,,1,,65,0
92616,note_on,,456,0,1,,,,,,,0,,45,0
92640,note_on,,24,0,2,,,,,,,1,,67,100
92640,note_on,,24,0,1,,,,,,,0,,38,100
92868,note_on,,228,0,2,,,,,,,1,,67,0
92880,note_on,,12,0,2,,,,,,,1,,65,100
93096,note_on,,456,0,1,,,,,,,0,,38,0
93096,note_on,,0,0,1,,,,,,,0,,59,0
93096,note_on,,0,0,1,,,,,,,0,,57,0
93096,note_on,,0,0,1,,,,,,,0,,62,0
93108,note_on,,228,0,2,,,,,,,1,,65,0
93120,note_on,,0,0,1,,,,,,,0,,60,100
93120,note_on,,12,0,2,,,,,,,1,,64,100
93120,note_on,,24,0,1,,,,,,,0,,64,100
93120,note_on,,0,0,1,,,,,,,0,,45,100
93120,note_on,,0,0,1,,,,,,,0,,52,100
93120,note_on,,0,0,1,,,,,,,0,,57,100
93195,control_change,,75,0,2,,,,,7,101,1,,,
93347,control_change,,152,0,2,,,,,7,102,1,,,
93473,control_change,,126,0,2,,,,,7,103,1,,,
93624,control_change,,151,0,2,,,,,7,104,1,,,
93775,control_change,,151,0,2,,,,,7,105,1,,,
93828,note_on,,53,0,2,,,,,,,1,,64,0
93840,note_on,,12,0,2,,,,,,,1,,76,100
93901,control_change,,61,0,2,,,,,7,106,1,,,
94056,note_on,,0,0,1,,,,,,,0,,45,0
94056,note_on,,0,0,1,,,,,,,0,,57,0
94056,note_on,,0,0,1,,,,,,,0,,60,0
94056,note_on,,0,0,1,,,,,,,0,,64,0
94056,note_on,,936,0,1,,,,,,,0,,52,0
94068,note_on,,167,0,2,,,,,,,1,,76,0
94080,note_on,,12,0,2,,,,,,,1,,74,100
94080,note_on,,0,0,1,,,,,,,0,,52,100
94080,note_on,,0,0,1,,,,,,,0,,40,100
94080,note_on,,0,0,1,,,,,,,0,,59,100
94080,note_on,,0,0,1,,,,,,,0,,68,100
94080,note_on,,24,0,1,,,,,,,0,,62,100
94308,note_on,,228,0,2,,,,,,,1,,74,0
94320,note_on,,12,0,2,,,,,,,1,,72,100
94548,note_on,,228,0,2,,,,,,,1,,72,0
94560,note_on,,12,0,2,,,,,,,1,,71,100
94788,note_on,,228,0,2,,,,,,,1,,71,0
94800,note_on,,12,0,2,,,,,,,1,,72,100
95016,note_on,,936,0,1,,,,,,,0,,52,0
95016,note_on,,0,0,1,,,,,,,0,,40,0
95016,note_on,,0,0,1,,,,,,,0,,68,0
95016,note_on,,0,0,1,,,,,,,0,,62,0
95016,note_on,,0,0,1,,,,,,,0,,59,0
95028,note_on,,228,0,2,,,,,,,1,,72,0
95040,note_on,,24,0,1,,,,,,,0,,57,100
95040,note_on,,0,0,1,,,,,,,0,,60,100
95040,note_on,,0,0,1,,,,,,,0,,69,100
95040,note_on,,0,0,1,,,,,,,0,,53,100
95040,note_on,,0,0,1,,,,,,,0,,41,100
95040,note_on,,12,0,2,,,,,,,1,,69,100
95496,note_on,,0,0,1,,,,,,,0,,57,0
95496,note_on,,456,0,2,,,,,,,1,,69,0
95496,note_on,,0,0,1,,,,,,,0,,53,0
95496,note_on,,0,0,1,,,,,,,0,,69,0
95496,note_on,,0,0,1,,,,,,,0,,60,0
95496,note_on,,456,0,1,,,,,,,0,,41,0
95520,note_on,,24,0,2,,,,,,,1,,71,100
95520,note_on,,0,0,1,,,,,,,0,,65,100
95520,note_on,,0,0,1,,,,,,,0,,59,100
95520,note_on,,24,0,1,,,,,,,0,,57,100
95520,note_on,,0,0,1,,,,,,,0,,69,100
95520,note_on,,0,0,1,,,,,,,0,,50,100
95520,note_on,,0,0,1,,,,,,,0,,38,100
95976,note_on,,456,0,1,,,,,,,0,,38,0
95976,note_on,,0,0,1,,,,,,,0,,50,0
95976,note_on,,456,0,2,,,,,,,1,,71,0
95976,note_on,,0,0,1,,,,,,,0,,69,0
95976,note_on,,0,0,1,,,,,,,0,,59,0
95976,note_on,,0,0,1,,,,,,,0,,57,0
95976,note_on,,0,0,1,,,,,,,0,,65,0
96000,note_on,,0,0,1,,,,,,,0,,68,100
96000,note_on,,0,0,1,,,,,,,0,,59,100
96000,note_on,,0,0,1,,,,,,,0,,40,100
96000,note_on,,0,0,1,,,,,,,0,,52,100
96000,note_on,,24,0,2,,,,,,,1,,64,100
96000,note_on,,24,0,1,,,,,,,0,,64,100
96000,note_on,,0,0,1,,,,,,,0,,62,100
96152,note_on,,152,0,2,,,,,,,1,,64,0
96159,note_on,,7,0,2,,,,,,,1,,65,100
96311,note_on,,152,0,2,,,,,,,1,,65,0
96319,note_on,,8,0,2,,,,,,,1,,64,100
96470,note_on,,151,0,2,,,,,,,1,,64,0
96480,note_on,,10,0,2,,,,,,,1,,68,100
96936,note_on,,0,0,1,,,,,,,0,,64,0
96936,note_on,,0,0,1,,,,,,,0,,68,0
96936,note_on,,936,0,1,,,,,,,0,,62,0
96936,note_on,,0,0,1,,,,,,,0,,59,0
96936,note_on,,0,0,1,,,,,,,0,,40,0
96936,note_on,,456,0,2,,,,,,,1,,68,0
96936,note_on,,0,0,1,,,,,,,0,,52,0
96960,note_on,,24,0,1,,,,,,,0,,64,100
96960,note_on,,24,0,2,,,,,,,1,,69,100
96960,note_on,,0,0,1,,,,,,,0,,69,100
96960,note_on,,0,0,1,,,,,,,0,,57,100
96960,note_on,,0,0,1,,,,,,,0,,60,100
96960,note_on,,0,0,1,,,,,,,0,,45,100
97010,control_change,,50,0,2,,,,,7,105,1,,,
97060,control_change,,50,0,2,,,,,7,104,1,,,
97136,control_change,,76,0,2,,,,,7,103,1,,,
97212,control_change,,76,0,2,,,,,7,102,1,,,
97262,control_change,,50,0,2,,,,,7,101,1,,,
97338,control_change,,76,0,2,,,,,7,100,1,,,
97388,control_change,,50,0,2,,,,,7,99,1,,,
97416,note_on,,0,0,1,,,,,,,0,,57,0
97416,note_on,,456,0,1,,,,,,,0,,45,0
97416,note_on,,0,0,1,,,,,,,0,,60,0
97416,note_on,,28,0,2,,,,,,,1,,69,0
97416,note_on,,0,0,1,,,,,,,0,,69,0
97416,note_on,,0,0,1,,,,,,,0,,64,0
97440,note_on,,24,0,1,,,,,,,0,,57,100
97440,note_on,,0,0,1,,,,,,,0,,60,100
97440,note_on,,0,0,1,,,,,,,0,,52,100
97440,note_on,,0,0,1,,,,,,,0,,64,100
97440,note_on,,24,0,2,,,,,,,1,,72,100
97464,control_change,,24,0,2,,,,,7,98,1,,,
97539,control_change,,75,0,2,,,,,7,97,1,,,
97590,control_change,,51,0,2,,,,,7,96,1,,,
97665,control_change,,75,0,2,,,,,7,95,1,,,
97668,note_on,,3,0,2,,,,,,,1,,72,0
97896,note_on,,0,0,1,,,,,,,0,,57,0
97896,note_on,,456,0,1,,,,,,,0,,52,0
97896,note_on,,0,0,1,,,,,,,0,,64,0
97896,note_on,,0,0,1,,,,,,,0,,60,0
97920,note_on,,24,0,1,,,,,,,0,,48,100
97920,note_on,,0,0,1,,,,,,,0,,64,100
97920,note_on,,0,0,1,,,,,,,0,,55,100
97920,note_on,,0,0,1,,,,,,,0,,60,100
97920,control_change,,252,0,2,,,,,7,100,1,,,
97920,note_on,,0,0,2,,,,,,,1,,72,100
97970,control_change,,50,0,2,,,,,7,101,1,,,
98046,control_change,,76,0,2,,,,,7,102,1,,,
98121,control_change,,75,0,2,,,,,7,103,1,,,
98197,control_change,,76,0,2,,,,,7,104,1,,,
98273,control_change,,76,0,2,,,,,7,105,1,,,
98348,control_change,,75,0,2,,,,,7,106,1,,,
98376,note_on,,28,0,2,,,,,,,1,,72,0
98400,note_on,,24,0,2,,,,,,,1,,74,100
98424,control_change,,24,0,2,,,,,7,107,1,,,
98499,control_change,,75,0,2,,,,,7,108,1,,,
98575,control_change,,76,0,2,,,,,7,109,1,,,
98628,note_on,,53,0,2,,,,,,,1,,74,0
98640,note_on,,12,0,2,,,,,,,1,,76,100
98651,control_change,,11,0,2,,,,,7,110,1,,,
98726,control_change,,75,0,2,,,,,7,111,1,,,
98868,note_on,,142,0,2,,,,,,,1,,76,0
98880,note_on,,12,0,2,,,,,,,1,,67,100
99336,note_on,,456,0,2,,,,,,,1,,67,0
99360,note_on,,24,0,2,,,,,,,1,,69,100
99816,note_on,,456,0,2,,,,,,,1,,69,0
99816,note_on,,0,0,1,,,,,,,0,,48,0
99816,note_on,,0,0,1,,,,,,,0,,55,0
99816,note_on,,1896,0,1,,,,,,,0,,64,0
99816,note_on,,0,0,1,,,,,,,0,,60,0
99840,note_on,,24,0,2,,,,,,,1,,71,100
99840,note_on,,0,0,1,,,,,,,0,,43,100
99840,note_on,,0,0,1,,,,,,,0,,59,100
99840,note_on,,0,0,1,,,,,,,0,,55,100
99840,note_on,,24,0,1,,,,,,,0,,62,100
100296,note_on,,456,0,2,,,,,,,1,,71,0
100320,note_on,,24,0,2,,,,,,,1,,72,100
100370,control_change,,50,0,2,,,,,7,110,1,,,
100420,control_change,,50,0,2,,,,,7,109,1,,,
100471,control_change,,51,0,2,,,,,7,108,1,,,
100521,control_change,,50,0,2,,,,,7,107,1,,,
100548,note_on,,27,0,2,,,,,,,1,,72,0
100560,note_on,,12,0,2,,,,,,,1,,71,100
100572,control_change,,12,0,2,,,,,7,106,1,,,
100622,control_change,,50,0,2,,,,,7,105,1,,,
100673,control_change,,51,0,2,,,,,7,104,1,,,
100723,control_change,,50,0,2,,,,,7,103,1,,,
100773,control_change,,50,0,2,,,,,7,102,1,,,
100776,note_on,,0,0,1,,,,,,,0,,59,0
100776,note_on,,0,0,1,,,,,,,0,,62,0
100776,note_on,,0,0,1,,,,,,,0,,55,0
100776,note_on,,936,0,1,,,,,,,0,,43,0
100788,note_on,,15,0,2,,,,,,,1,,71,0
100800,note_on,,12,0,2,,,,,,,1,,69,100
100800,note_on,,0,0,1,,,,,,,0,,38,100
100800,note_on,,0,0,1,,,,,,,0,,57,100
100800,note_on,,0,0,1,,,,,,,0,,65,100
100800,note_on,,24,0,1,,,,,,,0,,62,100
101256,note_on,,456,0,2,,,,,,,1,,69,0
101280,note_on,,24,0,2,,,,,,,1,,71,100
101508,note_on,,228,0,2,,,,,,,1,,71,0
101736,note_on,,0,0,1,,,,,,,0,,62,0
101736,note_on,,0,0,1,,,,,,,0,,65,0
101736,note_on,,0,0,1,,,,,,,0,,57,0
101736,note_on,,936,0,1,,,,,,,0,,38,0
101760,note_on,,0,0,1,,,,,,,0,,40,100
101760,note_on,,0,0,1,,,,,,,0,,52,100
101760,note_on,,0,0,1,,,,,,,0,,62,100
101760,note_on,,0,0,1,,,,,,,0,,56,100
101760,note_on,,24,0,1,,,,,,,0,,64,100
101760,note_on,,252,0,2,,,,,,,1,,68,100
101760,note_on,,0,0,1,,,,,,,0,,59,100
102216,note_on,,456,0,2,,,,,,,1,,68,0
102240,note_on,,24,0,2,,,,,,,1,,64,100
102468,note_on,,228,0,2,,,,,,,1,,64,0
102480,note_on,,12,0,2,,,,,,,1,,64,100
102696,note_on,,0,0,1,,,,,,,0,,64,0
102696,note_on,,0,0,1,,,,,,,0,,40,0
102696,note_on,,936,0,1,,,,,,,0,,52,0
102696,note_on,,0,0,1,,,,,,,0,,56,0
102696,note_on,,0,0,1,,,,,,,0,,62,0
102696,note_on,,0,0,1,,,,,,,0,,59,0
102708,note_on,,228,0,2,,,,,,,1,,64,0
102720,note_on,,24,0,1,,,,,,,0,,57,100
102720,note_on,,0,0,1,,,,,,,0,,60,100
102720,note_on,,0,0,1,,,,,,,0,,64,100
102720,note_on,,0,0,1,,,,,,,0,,45,100
102720,note_on,,12,0,2,,,,,,,1,,69,100
103176,note_on,,456,0,2,,,,,,,1,,69,0
103176,note_on,,0,0,1,,,,,,,0,,57,0
103176,note_on,,0,0,1,,,,,,,0,,64,0
103176,note_on,,456,0,1,,,,,,,0,,45,0
103176,note_on,,0,0,1,,,,,,,0,,60,0
103200,note_on,,24,0,2,,,,,,,1,,74,100
103200,note_on,,24,0,1,,,,,,,0,,57,100
103200,note_on,,0,0,1,,,,,,,0,,62,100
103200,note_on,,0,0,1,,,,,,,0,,65,100
103200,note_on,,0,0,1,,,,,,,0,,38,100
103542,note_on,,342,0,2,,,,,,,1,,74,0
103560,note_on,,18,0,2,,,,,,,1,,69,100
103656,note_on,,0,0,1,,,,,,,0,,57,0
103656,note_on,,456,0,1,,,,,,,0,,38,0
103656,note_on,,0,0,1,,,,,,,0,,65,0
103656,note_on,,0,0,1,,,,,,,0,,62,0
103674,note_on,,114,0,2,,,,,,,1,,69,0
103680,note_on,,0,0,1,,,,,,,0,,40,100
103680,note_on,,0,0,1,,,,,,,0,,64,100
103680,note_on,,0,0,1,,,,,,,0,,60,100
103680,note_on,,24,0,1,,,,,,,0,,57,100
103680,note_on,,6,0,2,,,,,,,1,,72,100
104136,note_on,,456,0,1,,,,,,,0,,40,0
104136,note_on,,0,0,1,,,,,,,0,,57,0
104136,note_on,,0,0,1,,,,,,,0,,60,0
104136,note_on,,0,0,1,,,,,,,0,,64,0
104136,note_on,,456,0,2,,,,,,,1,,72,0
104160,note_on,,0,0,1,,,,,,,0,,62,100
104160,note_on,,24,0,1,,,,,,,0,,56,100
104160,note_on,,24,0,2,,,,,,,1,,71,100
104160,note_on,,0,0,1,,,,,,,0,,64,100
104160,note_on,,0,0,1,,,,,,,0,,52,100
104502,note_on,,342,0,2,,,,,,,1,,71,0
104520,note_on,,18,0,2,,,,,,,1,,72,100
104616,note_on,,456,0,1,,,,,,,0,,52,0
104616,note_on,,0,0,1,,,,,,,0,,62,0
104616,note_on,,0,0,1,,,,,,,0,,64,0
104616,note_on,,0,0,1,,,,,,,0,,56,0
104634,note_on,,114,0,2,,,,,,,1,,72,0
104640,note_on,,6,0,2,,,,,,,1,,69,100
104640,note_on,,24,0,1,,,,,,,0,,57,100
104640,note_on,,0,0,1,,,,,,,0,,60,100
104640,note_on,,0,0,1,,,,,,,0,,64,100
104640,note_on,,0,0,1,,,,,,,0,,45,100
105096,note_on,,0,0,1,,,,,,,0,,60,0
105096,note_on,,0,0,1,,,,,,,0,,64,0
105096,note_on,,0,0,1,,,,,,,0,,57,0
105096,note_on,,456,0,1,,,,,,,0,,45,0
105096,note_on,,456,0,2,,,,,,,1,,69,0
105120,note_on,,24,0,1,,,,,,,0,,55,100
105120,note_on,,0,0,1,,,,,,,0,,60,100
105120,note_on,,0,0,1,,,,,,,0,,64,100
105120,note_on,,0,0,1,,,,,,,0,,48,100
105120,note_on,,24,0,2,,,,,,,1,,67,100
105576,note_on,,456,0,2,,,,,,,1,,67,0
105576,note_on,,0,0,1,,,,,,,0,,64,0
105576,note_on,,456,0,1,,,,,,,0,,48,0
105576,note_on,,0,0,1,,,,,,,0,,60,0
105576,note_on,,0,0,1,,,,,,,0,,55,0
105600,note_on,,0,0,1,,,,,,,0,,60,100
105600,note_on,,0,0,1,,,,,,,0,,55,100
105600,note_on,,24,0,1,,,,,,,0,,48,100
105600,note_on,,24,0,2,,,,,,,1,,72,100
105600,note_on,,0,0,1,,,,,,,0,,64,100
105650,control_change,,50,0,2,,,,,7,103,1,,,
105751,control_change,,101,0,2,,,,,7,104,1,,,
105852,control_change,,101,0,2,,,,,7,105,1,,,
105927,control_change,,75,0,2,,,,,7,106,1,,,
106028,control_change,,101,0,2,,,,,7,107,1,,,
106056,note_on,,28,0,2,,,,,,,1,,72,0
106080,note_on,,24,0,2,,,,,,,1,,74,100
106129,control_change,,49,0,2,,,,,7,108,1,,,
106230,control_change,,101,0,2,,,,,7,109,1,,,
106306,control_change,,76,0,2,,,,,7,110,1,,,
106308,note_on,,2,0,2,,,,,,,1,,74,0
106320,note_on,,12,0,2,,,,,,,1,,76,100
106406,control_change,,86,0,2,,,,,7,111,1,,,
106548,note_on,,142,0,2,,,,,,,1,,76,0
106560,note_on,,12,0,2,,,,,,,1,,67,100
107016,note_on,,456,0,2,,,,,,,1,,67,0
107040,note_on,,24,0,2,,,,,,,1,,69,100
107496,note_on,,0,0,1,,,,,,,0,,60,0
107496,note_on,,0,0,1,,,,,,,0,,48,0
107496,note_on,,1896,0,1,,,,,,,0,,64,0
107496,note_on,,0,0,1,,,,,,,0,,55,0
107496,note_on,,456,0,2,,,,,,,1,,69,0
107520,note_on,,24,0,1,,,,,,,0,,43,100
107520,note_on,,0,0,1,,,,,,,0,,59,100
107520,note_on,,0,0,1,,,,,,,0,,55,100
107520,note_on,,0,0,1,,,,,,,0,,62,100
107520,note_on,,24,0,2,,,,,,,1,,71,100
107976,note_on,,456,0,2,,,,,,,1,,71,0
108000,note_on,,24,0,2,,,,,,,1,,72,100
108025,control_change,,25,0,2,,,,,7,110,1,,,
108075,control_change,,50,0,2,,,,,7,109,1,,,
108101,control_change,,26,0,2,,,,,7,108,1,,,
108151,control_change,,50,0,2,,,,,7,107,1,,,
108202,control_change,,51,0,2,,,,,7,106,1,,,
108227,control_change,,25,0,2,,,,,7,105,1,,,
108228,note_on,,1,0,2,,,,,,,1,,72,0
108240,note_on,,12,0,2,,,,,,,1,,71,100
108277,control_change,,37,0,2,,,,,7,104,1,,,
108302,control_change,,25,0,2,,,,,7,103,1,,,
108353,control_change,,51,0,2,,,,,7,102,1,,,
108456,note_on,,0,0,1,,,,,,,0,,43,0
108456,note_on,,0,0,1,,,,,,,0,,62,0
108456,note_on,,936,0,1,,,,,,,0,,59,0
108456,note_on,,0,0,1,,,,,,,0,,55,0
108468,note_on,,115,0,2,,,,,,,1,,71,0
108480,note_on,,0,0,1,,,,,,,0,,62,100
108480,note_on,,12,0,2,,,,,,,1,,69,100
108480,note_on,,24,0,1,,,,,,,0,,38,100
108480,note_on,,0,0,1,,,,,,,0,,65,100
108480,note_on,,0,0,1,,,,,,,0,,57,100
108936,note_on,,456,0,2,,,,,,,1,,69,0
108960,note_on,,24,0,2,,,,,,,1,,71,100
109188,note_on,,228,0,2,,,,,,,1,,71,0
109416,note_on,,0,0,1,,,,,,,0,,65,0
109416,note_on,,936,0,1,,,,,,,0,,57,0
109416,note_on,,0,0,1,,,,,,,0,,62,0
109416,note_on,,0,0,1,,,,,,,0,,38,0
109440,note_on,,24,0,1,,,,,,,0,,64,100
109440,note_on,,0,0,1,,,,,,,0,,59,100
109440,note_on,,0,0,1,,,,,,,0,,62,100
109440,note_on,,0,0,1,,,,,,,0,,40,100
109440,note_on,,0,0,1,,,,,,,0,,52,100
109440,note_on,,0,0,1,,,,,,,0,,56,100
109440,note_on,,252,0,2,,,,,,,1,,68,100
109896,note_on,,456,0,2,,,,,,,1,,68,0
109920,note_on,,24,0,2,,,,,,,1,,64,100
110148,note_on,,228,0,2,,,,,,,1,,64,0
110160,note_on,,12,0,2,,,,,,,1,,64,100
110376,note_on,,936,0,1,,,,,,,0,,52,0
110376,note_on,,0,0,1,,,,,,,0,,40,0
110376,note_on,,0,0,1,,,,,,,0,,62,0
110376,note_on,,0,0,1,,,,,,,0,,59,0
110376,note_on,,0,0,1,,,,,,,0,,56,0
110376,note_on,,0,0,1,,,,,,,0,,64,0
110388,note_on,,228,0,2,,,,,,,1,,64,0
110400,note_on,,0,0,1,,,,,,,0,,60,100
110400,note_on,,0,0,1,,,,,,,0,,45,100
110400,note_on,,0,0,1,,,,,,,0,,64,100
110400,note_on,,24,0,1,,,,,,,0,,57,100
110400,note_on,,12,0,2,,,,,,,1,,69,100
110856,note_on,,0,0,1,,,,,,,0,,60,0
110856,note_on,,456,0,1,,,,,,,0,,45,0
110856,note_on,,456,0,2,,,,,,,1,,69,0
110856,note_on,,0,0,1,,,,,,,0,,64,0
110856,note_on,,0,0,1,,,,,,,0,,57,0
110880,note_on,,0,0,1,,,,,,,0,,62,100
110880,note_on,,0,0,1,,,,,,,0,,57,100
110880,note_on,,24,0,1,,,,,,,0,,38,100
110880,note_on,,0,0,1,,,,,,,0,,65,100
110880,note_on,,0,0,1,,,,,,,0,,50,100
110880,note_on,,24,0,2,,,,,,,1,,74,100
111108,note_on,,228,0,2,,,,,,,1,,74,0
111120,note_on,,12,0,2,,,,,,,1,,69,100
111336,note_on,,0,0,1,,,,,,,0,,57,0
111336,note_on,,456,0,1,,,,,,,0,,50,0
111336,note_on,,0,0,1,,,,,,,0,,65,0
111336,note_on,,0,0,1,,,,,,,0,,38,0
111336,note_on,,0,0,1,,,,,,,0,,62,0
111348,note_on,,228,0,2,,,,,,,1,,69,0
111360,note_on,,0,0,1,,,,,,,0,,60,100
111360,note_on,,0,0,1,,,,,,,0,,64,100
111360,note_on,,0,0,1,,,,,,,0,,52,100
111360,note_on,,12,0,2,,,,,,,1,,72,100
111360,note_on,,24,0,1,,,,,,,0,,57,100
111360,note_on,,0,0,1,,,,,,,0,,40,100
111410,control_change,,50,0,2,,,,,7,103,1,,,
111461,control_change,,51,0,2,,,,,7,104,1,,,
111536,control_change,,75,0,2,,,,,7,105,1,,,
111587,control_change,,51,0,2,,,,,7,106,1,,,
111662,control_change,,75,0,2,,,,,7,107,1,,,
111738,control_change,,76,0,2,,,,,7,108,1,,,
111788,control_change,,50,0,2,,,,,7,109,1,,,
111816,note_on,,28,0,2,,,,,,,1,,72,0
111840,note_on,,24,0,2,,,,,,,1,,71,100
111864,control_change,,24,0,2,,,,,7,110,1,,,
111914,control_change,,50,0,2,,,,,7,111,1,,,
111990,control_change,,76,0,2,,,,,7,112,1,,,
112040,control_change,,50,0,2,,,,,7,113,1,,,
112068,note_on,,28,0,2,,,,,,,1,,71,0
112080,note_on,,12,0,2,,,,,,,1,,69,100
112116,control_change,,36,0,2,,,,,7,114,1,,,
112191,control_change,,75,0,2,,,,,7,115,1,,,
112308,note_on,,117,0,2,,,,,,,1,,69,0
112320,note_on,,12,0,2,,,,,,,1,,76,100
113184,note_on,,1824,0,1,,,,,,,0,,52,0
113184,note_on,,0,0,1,,,,,,,0,,57,0
113184,note_on,,0,0,1,,,,,,,0,,60,0
113184,note_on,,0,0,1,,,,,,,0,,64,0
113184,note_on,,0,0,1,,,,,,,0,,40,0
113280,note_on,,0,0,1,,,,,,,0,,40,100
113280,note_on,,0,0,1,,,,,,,0,,59,100
113280,note_on,,0,0,1,,,,,,,0,,57,100
113280,note_on,,96,0,1,,,,,,,0,,64,100
113280,note_on,,0,0,1,,,,,,,0,,52,100
113508,note_on,,1188,0,2,,,,,,,1,,76,0
113520,control_change,,12,0,2,,,,,7,110,1,,,
113520,note_on,,0,0,2,,,,,,,1,,77,100
113545,control_change,,25,0,2,,,,,7,109,1,,,
113595,control_change,,50,0,2,,,,,7,108,1,,,
113646,control_change,,51,0,2,,,,,7,107,1,,,
113696,control_change,,50,0,2,,,,,7,106,1,,,
113747,control_change,,51,0,2,,,,,7,105,1,,,
113748,note_on,,1,0,2,,,,,,,1,,77,0
113760,note_on,,12,0,2,,,,,,,1,,76,100
113797,control_change,,37,0,2,,,,,7,104,1,,,
113847,control_change,,50,0,2,,,,,7,103,1,,,
113898,control_change,,51,0,2,,,,,7,102,1,,,
113948,control_change,,50,0,2,,,,,7,101,1,,,
113988,note_on,,40,0,2,,,,,,,1,,76,0
113999,control_change,,11,0,2,,,,,7,100,1,,,
114000,note_on,,1,0,2,,,,,,,1,,75,100
114049,control_change,,49,0,2,,,,,7,99,1,,,
114099,control_change,,50,0,2,,,,,7,98,1,,,
114216,note_on,,0,0,1,,,,,,,0,,57,0
114216,note_on,,936,0,1,,,,,,,0,,59,0
114216,note_on,,0,0,1,,,,,,,0,,64,0
114228,note_on,,129,0,2,,,,,,,1,,75,0
114240,note_on,,0,0,1,,,,,,,0,,59,100
114240,note_on,,24,0,1,,,,,,,0,,56,100
114240,note_on,,0,0,1,,,,,,,0,,62,100
114240,note_on,,0,0,1,,,,,,,0,,64,100
114240,note_on,,12,0,2,,,,,,,1,,76,100
114265,control_change,,25,0,2,,,,,7,99,1,,,
114315,control_change,,50,0,2,,,,,7,100,1,,,
114366,control_change,,51,0,2,,,,,7,101,1,,,
114416,control_change,,50,0,2,,,,,7,102,1,,,
114467,control_change,,51,0,2,,,,,7,103,1,,,
114468,note_on,,1,0,2,,,,,,,1,,76,0
114480,note_on,,12,0,2,,,,,,,1,,71,100
114492,control_change,,12,0,2,,,,,7,104,1,,,
114542,control_change,,50,0,2,,,,,7,105,1,,,
114593,control_change,,51,0,2,,,,,7,106,1,,,
114696,note_on,,0,0,1,,,,,,,0,,56,0
114696,note_on,,0,0,1,,,,,,,0,,59,0
114696,note_on,,0,0,1,,,,,,,0,,64,0
114696,note_on,,456,0,1,,,,,,,0,,62,0
114708,note_on,,115,0,2,,,,,,,1,,71,0
114720,note_on,,0,0,1,,,,,,,0,,62,100
114720,note_on,,0,0,1,,,,,,,0,,64,100
114720,note_on,,24,0,1,,,,,,,0,,68,100
114720,note_on,,12,0,2,,,,,,,1,,74,100
114745,control_change,,25,0,2,,,,,7,105,1,,,
114745,control_change,,25,0,1,,,,,7,86,0,,,
114795,control_change,,50,0,2,,,,,7,104,1,,,
114795,control_change,,50,0,1,,,,,7,87,0,,,
114846,control_change,,51,0,1,,,,,7,88,0,,,
114846,control_change,,51,0,2,,,,,7,103,1,,,
114896,control_change,,50,0,2,,,,,7,102,1,,,
114896,control_change,,50,0,1,,,,,7,89,0,,,
114947,control_change,,51,0,2,,,,,7,101,1,,,
114947,control_change,,51,0,1,,,,,7,90,0,,,
114948,note_on,,1,0,2,,,,,,,1,,74,0
114960,note_on,,12,0,2,,,,,,,1,,72,100
114972,control_change,,12,0,2,,,,,7,100,1,,,
114972,control_change,,25,0,1,,,,,7,91,0,,,
115022,control_change,,50,0,1,,,,,7,92,0,,,
115022,control_change,,50,0,2,,,,,7,99,1,,,
115073,control_change,,51,0,2,,,,,7,98,1,,,
115073,control_change,,51,0,1,,,,,7,93,0,,,
115152,note_on,,79,0,1,,,,,,,0,,52,0
115152,note_on,,0,0,1,,,,,,,0,,40,0
115176,note_on,,24,0,1,,,,,,,0,,62,0
115176,note_on,,0,0,1,,,,,,,0,,64,0
115176,note_on,,0,0,1,,,,,,,0,,68,0
115188,note_on,,115,0,2,,,,,,,1,,72,0
115200,note_on,,0,0,1,,,,,,,0,,60,100
115200,note_on,,0,0,1,,,,,,,0,,57,100
115200,note_on,,0,0,1,,,,,,,0,,64,100
115200,note_on,,24,0,1,,,,,,,0,,69,100
115200,note_on,,0,0,1,,,,,,,0,,45,100
115200,note_on,,12,0,2,,,,,,,1,,69,100
115656,note_on,,456,0,1,,,,,,,0,,45,0
115656,note_on,,0,0,1,,,,,,,0,,57,0
115656,note_on,,456,0,2,,,,,,,1,,69,0
115656,note_on,,0,0,1,,,,,,,0,,60,0
115656,note_on,,0,0,1,,,,,,,0,,64,0
115656,note_on,,0,0,1,,,,,,,0,,69,0
115680,note_on,,24,0,1,,,,,,,0,,50,100
115680,note_on,,0,0,1,,,,,,,0,,57,100
115680,note_on,,0,0,1,,,,,,,0,,62,100
115680,note_on,,0,0,1,,,,,,,0,,65,100
115680,note_on,,0,0,1,,,,,,,0,,69,100
116022,note_on,,342,0,1,,,,,,,0,,69,0
116040,note_on,,18,0,1,,,,,,,0,,71,100
116136,note_on,,96,0,1,,,,,,,0,,65,0
116136,note_on,,0,0,1,,,,,,,0,,62,0
116136,note_on,,0,0,1,,,,,,,0,,57,0
116136,note_on,,0,0,1,,,,,,,0,,50,0
116154,note_on,,18,0,1,,,,,,,0,,71,0
116160,note_on,,0,0,1,,,,,,,0,,45,100
116160,note_on,,0,0,1,,,,,,,0,,57,100
116160,note_on,,0,0,1,,,,,,,0,,60,100
116160,note_on,,0,0,1,,,,,,,0,,64,100
116160,note_on,,6,0,1,,,,,,,0,,69,100
116616,note_on,,456,0,1,,,,,,,0,,45,0
116616,note_on,,0,0,1,,,,,,,0,,57,0
116616,note_on,,0,0,1,,,,,,,0,,60,0
116616,note_on,,0,0,1,,,,,,,0,,64,0
116616,note_on,,0,0,1,,,,,,,0,,69,0
116640,note_on,,0,0,1,,,,,,,0,,69,100
116640,note_on,,0,0,1,,,,,,,0,,57,100
116640,note_on,,24,0,1,,,,,,,0,,62,100
116640,note_on,,0,0,1,,,,,,,0,,65,100
116640,note_on,,0,0,1,,,,,,,0,,50,100
116982,note_on,,342,0,1,,,,,,,0,,69,0
117000,note_on,,18,0,1,,,,,,,0,,71,100
117096,note_on,,96,0,1,,,,,,,0,,57,0
117096,note_on,,0,0,1,,,,,,,0,,50,0
117096,note_on,,0,0,1,,,,,,,0,,65,0
117096,note_on,,0,0,1,,,,,,,0,,62,0
117114,note_on,,18,0,1,,,,,,,0,,71,0
117120,note_on,,6,0,1,,,,,,,0,,69,100
117120,note_on,,0,0,1,,,,,,,0,,64,100
117120,note_on,,0,0,1,,,,,,,0,,60,100
117120,note_on,,0,0,1,,,,,,,0,,57,100
117120,note_on,,0,0,1,,,,,,,0,,45,100
117576,note_on,,0,0,1,,,,,,,0,,64,0
117576,note_on,,0,0,1,,,,,,,0,,60,0
117576,note_on,,0,0,1,,,,,,,0,,69,0
117576,note_on,,456,0,1,,,,,,,0,,45,0
117576,note_on,,0,0,1,,,,,,,0,,57,0
117600,note_on,,0,0,1,,,,,,,0,,47,100
117600,note_on,,0,0,1,,,,,,,0,,68,100
117600,note_on,,24,0,1,,,,,,,0,,59,100
117600,note_on,,0,0,1,,,,,,,0,,64,100
117942,note_on,,342,0,1,,,,,,,0,,68,0
117960,note_on,,18,0,1,,,,,,,0,,69,100
118056,note_on,,96,0,1,,,,,,,0,,47,0
118056,note_on,,0,0,1,,,,,,,0,,64,0
118056,note_on,,0,0,1,,,,,,,0,,59,0
118074,note_on,,18,0,1,,,,,,,0,,69,0
118080,note_on,,6,0,1,,,,,,,0,,66,100
118080,note_on,,0,0,1,,,,,,,0,,63,100
118080,note_on,,0,0,1,,,,,,,0,,59,100
118080,note_on,,0,0,1,,,,,,,0,,47,100
118080,note_on,,0,0,1,,,,,,,0,,57,100
118130,control_change,,50,0,1,,,,,7,92,0,,,
118180,control_change,,50,0,1,,,,,7,91,0,,,
118231,control_change,,51,0,1,,,,,7,90,0,,,
118307,control_change,,76,0,1,,,,,7,89,0,,,
118357,control_change,,50,0,1,,,,,7,88,0,,,
118432,control_change,,75,0,1,,,,,7,87,0,,,
118483,control_change,,51,0,1,,,,,7,86,0,,,
118533,control_change,,50,0,1,,,,,7,85,0,,,
118536,note_on,,0,0,1,,,,,,,0,,63,0
118536,note_on,,0,0,1,,,,,,,0,,66,0
118536,note_on,,3,0,1,,,,,,,0,,57,0
118536,note_on,,0,0,1,,,,,,,0,,47,0
118536,note_on,,0,0,1,,,,,,,0,,59,0
118560,note_on,,24,0,1,,,,,,,0,,64,100
118560,note_on,,0,0,1,,,,,,,0,,59,100
118560,note_on,,0,0,1,,,,,,,0,,56,100
118560,note_on,,0,0,1,,,,,,,0,,40,100
119016,note_on,,456,0,1,,,,,,,0,,40,0
119016,note_on,,0,0,1,,,,,,,0,,56,0
119016,note_on,,0,0,1,,,,,,,0,,59,0
119016,note_on,,0,0,1,,,,,,,0,,64,0
119040,note_on,,0,0,1,,,,,,,0,,68,100
119040,control_change,,24,0,1,,,,,7,95,0,,,
119040,note_on,,0,0,1,,,,,,,0,,52,100
119040,note_on,,0,0,1,,,,,,,0,,40,100
119040,note_on,,0,0,1,,,,,,,0,,62,100
119040,note_on,,0,0,1,,,,,,,0,,71,100
119090,control_change,,50,0,1,,,,,7,94,0,,,
119191,control_change,,101,0,1,,,,,7,93,0,,,
119292,control_change,,101,0,1,,,,,7,92,0,,,
119392,control_change,,100,0,1,,,,,7,91,0,,,
119493,control_change,,101,0,1,,,,,7,90,0,,,
119569,control_change,,76,0,1,,,,,7,89,0,,,
119670,control_change,,101,0,1,,,,,7,88,0,,,
119771,control_change,,101,0,1,,,,,7,87,0,,,
119871,control_change,,100,0,1,,,,,7,86,0,,,
119972,control_change,,101,0,1,,,,,7,85,0,,,
119976,note_on,,4,0,1,,,,,,,0,,71,0
119976,note_on,,0,0,1,,,,,,,0,,68,0
119976,note_on,,0,0,1,,,,,,,0,,62,0
120000,note_on,,24,0,1,,,,,,,0,,64,100
120000,note_on,,0,0,1,,,,,,,0,,68,100
120000,note_on,,0,0,1,,,,,,,0,,72,100
120073,control_change,,73,0,1,,,,,7,84,0,,,
120148,control_change,,75,0,1,,,,,7,83,0,,,
120249,control_change,,101,0,1,,,,,7,82,0,,,
120350,control_change,,101,0,1,,,,,7,81,0,,,
120451,control_change,,101,0,1,,,,,7,80,0,,,
120456,note_on,,5,0,1,,,,,,,0,,72,0
120456,note_on,,0,0,1,,,,,,,0,,68,0
120456,note_on,,0,0,1,,,,,,,0,,64,0
120480,note_on,,24,0,1,,,,,,,0,,68,100
120480,note_on,,0,0,1,,,,,,,0,,64,100
120480,note_on,,0,0,1,,,,,,,0,,59,100
120552,control_change,,72,0,1,,,,,7,79,0,,,
120627,control_change,,75,0,1,,,,,7,78,0,,,
120728,control_change,,101,0,1,,,,,7,77,0,,,
120829,control_change,,101,0,1,,,,,7,76,0,,,
120930,control_change,,101,0,1,,,,,7,75,0,,,
120936,note_on,,0,0,1,,,,,,,0,,68,0
120936,note_on,,0,0,1,,,,,,,0,,64,0
120936,note_on,,0,0,1,,,,,,,0,,59,0
120936,note_on,,6,0,1,,,,,,,0,,40,0
120936,note_on,,0,0,1,,,,,,,0,,52,0
120960,note_on,,0,0,1,,,,,,,0,,60,100
120960,note_on,,24,0,1,,,,,,,0,,68,100
120960,note_on,,0,0,1,,,,,,,0,,52,100
120960,note_on,,0,0,1,,,,,,,0,,45,100
120960,note_on,,0,0,1,,,,,,,0,,64,100
121017,note_on,,57,0,1,,,,,,,0,,68,0
121020,note_on,,3,0,1,,,,,,,0,,69,100
121031,control_change,,11,0,1,,,,,7,74,0,,,
121106,control_change,,75,0,1,,,,,7,73,0,,,
121207,control_change,,101,0,1,,,,,7,72,0,,,
121308,control_change,,101,0,1,,,,,7,71,0,,,
121408,control_change,,100,0,1,,,,,7,70,0,,,
121896,note_on,,0,0,1,,,,,,,0,,45,0
121896,note_on,,0,0,1,,,,,,,0,,52,0
121896,note_on,,0,0,1,,,,,,,0,,64,0
121896,note_on,,488,0,1,,,,,,,0,,60,0
121899,note_on,,3,0,1,,,,,,,0,,69,0
121920,end_of_track,,21,1,1,,,,,,,,,,
121920,end_of_track,,121920,1,0,,,,,,,,,,
121920,end_of_track,,6264,1,2,,,,,,,,,,
