tick,type,tempo,time,meta,track,numerator,denominator,clocks_per_click,notated_32nd_notes_per_beat,key,control,value,channel,program,note,velocity
0,set_tempo,952321,0,1,0,,,,,,,,,,,
0,control_change,,0,0,1,,,,,,0,0,0,,,
0,control_change,,0,0,1,,,,,,32,0,0,,,
0,control_change,,0,0,1,,,,,,1,0,0,,,
0,control_change,,0,0,1,,,,,,10,64,0,,,
0,control_change,,0,0,1,,,,,,91,0,0,,,
0,control_change,,0,0,1,,,,,,93,0,0,,,
0,program_change,,0,0,1,,,,,,,,0,0,,
0,track_name,,0,1,1,,,,,,,,,,,
0,note_on,,0,0,1,,,,,,,,0,,69,100
0,note_on,,0,0,1,,,,,,,,0,,81,100
0,control_change,,0,0,2,,,,,,91,0,1,,,
0,key_signature,,0,1,2,,,,,F,,,,,,
0,track_name,,0,1,2,,,,,,,,,,,
0,control_change,,0,0,2,,,,,,7,95,1,,,
0,control_change,,0,0,2,,,,,,0,0,1,,,
0,control_change,,0,0,2,,,,,,32,0,1,,,
0,program_change,,0,0,2,,,,,,,,1,53,,
0,control_change,,0,0,2,,,,,,1,0,1,,,
0,control_change,,0,0,2,,,,,,10,64,1,,,
0,control_change,,0,0,1,,,,,,7,102,0,,,
0,key_signature,,0,1,1,,,,,F,,,,,,
0,control_change,,0,0,2,,,,,,93,0,1,,,
0,time_signature,,0,1,0,2,4,24,8,,,,,,,
0,track_name,,0,1,0,,,,,,,,,,,
0,copyright,,0,1,0,,,,,,,,,,,
228,note_on,,0,0,1,,,,,,,,0,,69,0
228,note_on,,228,0,1,,,,,,,,0,,81,0
240,note_on,,12,0,1,,,,,,,,0,,74,100
240,note_on,,0,0,1,,,,,,,,0,,62,100
240,note_on,,0,0,1,,,,,,,,0,,65,100
468,note_on,,228,0,1,,,,,,,,0,,65,0
468,note_on,,0,0,1,,,,,,,,0,,62,0
468,note_on,,0,0,1,,,,,,,,0,,74,0
480,note_on,,0,0,1,,,,,,,,0,,57,100
480,note_on,,12,0,1,,,,,,,,0,,76,100
480,note_on,,0,0,1,,,,,,,,0,,64,100
708,note_on,,0,0,1,,,,,,,,0,,64,0
708,note_on,,0,0,1,,,,,,,,0,,76,0
708,note_on,,228,0,1,,,,,,,,0,,57,0
720,note_on,,12,0,1,,,,,,,,0,,69,100
930,note_on,,210,0,1,,,,,,,,0,,69,100
948,note_on,,18,0,1,,,,,,,,0,,69,0
960,note_on,,12,0,1,,,,,,,,0,,55,100
960,note_on,,0,0,1,,,,,,,,0,,67,100
1074,note_on,,114,0,1,,,,,,,,0,,67,0
1074,note_on,,0,0,1,,,,,,,,0,,55,0
1080,note_on,,6,0,1,,,,,,,,0,,53,100
1080,note_on,,0,0,1,,,,,,,,0,,65,100
1194,note_on,,0,0,1,,,,,,,,0,,53,0
1194,note_on,,114,0,1,,,,,,,,0,,65,0
1200,note_on,,0,0,1,,,,,,,,0,,64,100
1200,note_on,,0,0,1,,,,,,,,0,,52,100
1200,note_on,,6,0,1,,,,,,,,0,,69,0
1314,note_on,,114,0,1,,,,,,,,0,,64,0
1314,note_on,,0,0,1,,,,,,,,0,,52,0
1320,note_on,,6,0,1,,,,,,,,0,,50,100
1320,note_on,,0,0,1,,,,,,,,0,,62,100
1434,note_on,,114,0,1,,,,,,,,0,,62,0
1434,note_on,,0,0,1,,,,,,,,0,,50,0
1440,note_on,,6,0,1,,,,,,,,0,,52,100
1440,note_on,,0,0,1,,,,,,,,0,,64,100
1668,note_on,,228,0,1,,,,,,,,0,,64,0
1668,note_on,,0,0,1,,,,,,,,0,,52,0
1680,note_on,,12,0,1,,,,,,,,0,,45,100
1680,note_on,,0,0,1,,,,,,,,0,,57,100
1728,control_change,,48,0,1,,,,,,7,103,0,,,
1824,control_change,,96,0,1,,,,,,7,104,0,,,
1908,note_on,,84,0,1,,,,,,,,0,,45,0
1920,control_change,,12,0,1,,,,,,7,105,0,,,
1920,note_on,,0,0,1,,,,,,,,0,,61,100
1920,note_on,,0,0,1,,,,,,,,0,,69,100
1920,note_on,,0,0,1,,,,,,,,0,,45,100
1920,note_on,,0,0,1,,,,,,,,0,,52,100
2000,control_change,,80,0,1,,,,,,7,106,0,,,
2096,control_change,,96,0,1,,,,,,7,107,0,,,
2176,control_change,,80,0,1,,,,,,7,108,0,,,
2272,control_change,,96,0,1,,,,,,7,109,0,,,
2364,note_on,,92,0,1,,,,,,,,0,,57,0
2368,control_change,,4,0,1,,,,,,7,110,0,,,
2376,note_on,,8,0,1,,,,,,,,0,,52,0
2376,note_on,,0,0,1,,,,,,,,0,,45,0
2376,note_on,,0,0,1,,,,,,,,0,,69,0
2376,note_on,,0,0,1,,,,,,,,0,,61,0
2400,note_on,,24,0,1,,,,,,,,0,,50,100
2400,note_on,,0,0,1,,,,,,,,0,,69,100
2400,note_on,,0,0,1,,,,,,,,0,,62,100
2552,control_change,,152,0,1,,,,,,7,109,0,,,
2584,control_change,,32,0,1,,,,,,7,108,0,,,
2628,note_on,,44,0,1,,,,,,,,0,,62,0
2632,control_change,,4,0,1,,,,,,7,107,0,,,
2640,note_on,,8,0,1,,,,,,,,0,,58,100
2680,control_change,,40,0,1,,,,,,7,106,0,,,
2712,control_change,,32,0,1,,,,,,7,105,0,,,
2760,control_change,,48,0,1,,,,,,7,104,0,,,
2808,control_change,,48,0,1,,,,,,7,103,0,,,
2820,note_on,,12,0,1,,,,,,,,0,,60,100
2840,control_change,,20,0,1,,,,,,7,102,0,,,
2848,note_on,,8,0,1,,,,,,,,0,,60,0
2850,note_on,,2,0,1,,,,,,,,0,,58,100
2856,note_on,,0,0,1,,,,,,,,0,,50,0
2856,note_on,,6,0,1,,,,,,,,0,,69,0
2868,note_on,,12,0,1,,,,,,,,0,,58,0
2880,note_on,,0,0,1,,,,,,,,0,,69,100
2880,note_on,,0,0,1,,,,,,,,0,,52,100
2880,note_on,,0,0,1,,,,,,,,0,,45,100
2880,note_on,,12,0,1,,,,,,,,0,,57,100
2888,control_change,,8,0,1,,,,,,7,101,0,,,
2920,control_change,,32,0,1,,,,,,7,100,0,,,
2968,control_change,,48,0,1,,,,,,7,99,0,,,
3016,control_change,,48,0,1,,,,,,7,98,0,,,
3048,control_change,,32,0,1,,,,,,7,97,0,,,
3096,control_change,,48,0,1,,,,,,7,96,0,,,
3120,note_on,,24,0,1,,,,,,,,0,,58,0
3144,control_change,,24,0,1,,,,,,7,95,0,,,
3176,control_change,,32,0,1,,,,,,7,94,0,,,
3224,control_change,,48,0,1,,,,,,7,93,0,,,
3256,control_change,,32,0,1,,,,,,7,92,0,,,
3304,control_change,,48,0,1,,,,,,7,91,0,,,
3352,control_change,,48,0,1,,,,,,7,90,0,,,
3816,note_on,,464,0,1,,,,,,,,0,,45,0
3816,note_on,,0,0,1,,,,,,,,0,,52,0
3816,note_on,,0,0,1,,,,,,,,0,,69,0
3816,note_on,,0,0,1,,,,,,,,0,,57,0
3840,note_on,,0,0,1,,,,,,,,0,,65,100
3840,note_on,,24,0,1,,,,,,,,0,,69,100
3840,note_on,,0,0,1,,,,,,,,0,,57,100
3840,note_on,,3840,0,2,,,,,,,,1,,69,100
3840,note_on,,0,0,1,,,,,,,,0,,50,100
4068,note_on,,228,0,1,,,,,,,,0,,57,0
4068,note_on,,0,0,1,,,,,,,,0,,50,0
4068,note_on,,0,0,1,,,,,,,,0,,65,0
4068,note_on,,228,0,2,,,,,,,,1,,69,0
4068,note_on,,0,0,1,,,,,,,,0,,69,0
4080,note_on,,0,0,1,,,,,,,,0,,58,100
4080,note_on,,0,0,1,,,,,,,,0,,49,100
4080,note_on,,12,0,1,,,,,,,,0,,67,100
4080,note_on,,12,0,2,,,,,,,,1,,67,100
4080,note_on,,0,0,1,,,,,,,,0,,64,100
4308,note_on,,228,0,2,,,,,,,,1,,67,0
4308,note_on,,228,0,1,,,,,,,,0,,58,0
4308,note_on,,0,0,1,,,,,,,,0,,49,0
4308,note_on,,0,0,1,,,,,,,,0,,64,0
4308,note_on,,0,0,1,,,,,,,,0,,67,0
4320,note_on,,12,0,1,,,,,,,,0,,65,100
4320,note_on,,0,0,1,,,,,,,,0,,62,100
4320,note_on,,0,0,1,,,,,,,,0,,57,100
4320,note_on,,0,0,1,,,,,,,,0,,50,100
4320,note_on,,12,0,2,,,,,,,,1,,65,100
4548,note_on,,228,0,1,,,,,,,,0,,57,0
4548,note_on,,0,0,1,,,,,,,,0,,62,0
4548,note_on,,228,0,2,,,,,,,,1,,65,0
4548,note_on,,0,0,1,,,,,,,,0,,65,0
4548,note_on,,0,0,1,,,,,,,,0,,50,0
4560,note_on,,12,0,2,,,,,,,,1,,64,100
4560,note_on,,12,0,1,,,,,,,,0,,64,100
4560,note_on,,0,0,1,,,,,,,,0,,61,100
4560,note_on,,0,0,1,,,,,,,,0,,45,100
4560,note_on,,0,0,1,,,,,,,,0,,55,100
4788,note_on,,228,0,1,,,,,,,,0,,55,0
4788,note_on,,0,0,1,,,,,,,,0,,64,0
4788,note_on,,0,0,1,,,,,,,,0,,61,0
4788,note_on,,228,0,2,,,,,,,,1,,64,0
4788,note_on,,0,0,1,,,,,,,,0,,45,0
4800,note_on,,0,0,1,,,,,,,,0,,46,100
4800,note_on,,0,0,1,,,,,,,,0,,53,100
4800,note_on,,12,0,2,,,,,,,,1,,62,100
4800,note_on,,12,0,1,,,,,,,,0,,62,100
5028,note_on,,228,0,1,,,,,,,,0,,53,0
5028,note_on,,0,0,1,,,,,,,,0,,62,0
5028,note_on,,0,0,1,,,,,,,,0,,46,0
5028,note_on,,228,0,2,,,,,,,,1,,62,0
5040,note_on,,0,0,1,,,,,,,,0,,45,100
5040,note_on,,0,0,1,,,,,,,,0,,61,100
5040,note_on,,12,0,1,,,,,,,,0,,64,100
5040,note_on,,12,0,2,,,,,,,,1,,64,100
5154,note_on,,114,0,1,,,,,,,,0,,45,0
5160,note_on,,6,0,1,,,,,,,,0,,43,100
5268,note_on,,0,0,1,,,,,,,,0,,64,0
5268,note_on,,228,0,2,,,,,,,,1,,64,0
5268,note_on,,108,0,1,,,,,,,,0,,61,0
5274,note_on,,6,0,1,,,,,,,,0,,43,0
5280,note_on,,6,0,1,,,,,,,,0,,65,100
5280,note_on,,0,0,1,,,,,,,,0,,62,100
5280,note_on,,0,0,1,,,,,,,,0,,41,100
5280,note_on,,12,0,2,,,,,,,,1,,65,100
5394,note_on,,114,0,1,,,,,,,,0,,41,0
5400,note_on,,6,0,1,,,,,,,,0,,40,100
5508,note_on,,0,0,1,,,,,,,,0,,65,0
5508,note_on,,228,0,2,,,,,,,,1,,65,0
5508,note_on,,108,0,1,,,,,,,,0,,62,0
5514,note_on,,6,0,1,,,,,,,,0,,40,0
5520,note_on,,6,0,1,,,,,,,,0,,65,100
5520,note_on,,0,0,1,,,,,,,,0,,38,100
5520,note_on,,12,0,2,,,,,,,,1,,65,100
5520,note_on,,0,0,1,,,,,,,,0,,57,100
5520,note_on,,0,0,1,,,,,,,,0,,62,100
5748,note_on,,228,0,1,,,,,,,,0,,57,0
5748,note_on,,0,0,1,,,,,,,,0,,38,0
5748,note_on,,0,0,1,,,,,,,,0,,65,0
5748,note_on,,0,0,1,,,,,,,,0,,62,0
5748,note_on,,228,0,2,,,,,,,,1,,65,0
5760,note_on,,0,0,1,,,,,,,,0,,67,100
5760,note_on,,0,0,1,,,,,,,,0,,48,100
5760,note_on,,12,0,1,,,,,,,,0,,64,100
5760,note_on,,0,0,1,,,,,,,,0,,60,100
5760,note_on,,0,0,1,,,,,,,,0,,55,100
5760,note_on,,0,0,1,,,,,,,,0,,36,100
5760,note_on,,12,0,2,,,,,,,,1,,67,100
5988,note_on,,228,0,2,,,,,,,,1,,67,0
5988,note_on,,0,0,1,,,,,,,,0,,60,0
5988,note_on,,228,0,1,,,,,,,,0,,55,0
6000,note_on,,12,0,2,,,,,,,,1,,67,100
6000,note_on,,0,0,1,,,,,,,,0,,62,100
6000,note_on,,12,0,1,,,,,,,,0,,58,100
6216,note_on,,0,0,1,,,,,,,,0,,67,0
6216,note_on,,0,0,1,,,,,,,,0,,48,0
6216,note_on,,216,0,1,,,,,,,,0,,36,0
6216,note_on,,0,0,1,,,,,,,,0,,64,0
6228,note_on,,12,0,1,,,,,,,,0,,62,0
6228,note_on,,0,0,1,,,,,,,,0,,58,0
6228,note_on,,228,0,2,,,,,,,,1,,67,0
6240,note_on,,0,0,1,,,,,,,,0,,57,100
6240,note_on,,12,0,2,,,,,,,,1,,69,100
6240,note_on,,0,0,1,,,,,,,,0,,41,100
6240,note_on,,12,0,1,,,,,,,,0,,65,100
6240,note_on,,0,0,1,,,,,,,,0,,60,100
6468,note_on,,228,0,2,,,,,,,,1,,69,0
6480,note_on,,12,0,2,,,,,,,,1,,69,100
6696,note_on,,0,0,1,,,,,,,,0,,65,0
6696,note_on,,0,0,1,,,,,,,,0,,57,0
6696,note_on,,0,0,1,,,,,,,,0,,60,0
6696,note_on,,456,0,1,,,,,,,,0,,41,0
6708,note_on,,228,0,2,,,,,,,,1,,69,0
6720,note_on,,24,0,1,,,,,,,,0,,65,100
6720,note_on,,0,0,1,,,,,,,,0,,58,100
6720,note_on,,12,0,2,,,,,,,,1,,69,100
6720,note_on,,0,0,1,,,,,,,,0,,43,100
6834,note_on,,114,0,2,,,,,,,,1,,69,0
6840,note_on,,6,0,2,,,,,,,,1,,67,100
6948,note_on,,228,0,1,,,,,,,,0,,65,0
6954,note_on,,114,0,2,,,,,,,,1,,67,0
6960,note_on,,12,0,1,,,,,,,,0,,64,100
6960,note_on,,6,0,2,,,,,,,,1,,65,100
7074,note_on,,114,0,2,,,,,,,,1,,65,0
7080,note_on,,6,0,2,,,,,,,,1,,64,100
7176,note_on,,0,0,1,,,,,,,,0,,43,0
7176,note_on,,216,0,1,,,,,,,,0,,58,0
7188,note_on,,12,0,1,,,,,,,,0,,64,0
7194,note_on,,114,0,2,,,,,,,,1,,64,0
7200,note_on,,12,0,1,,,,,,,,0,,62,100
7200,note_on,,0,0,1,,,,,,,,0,,45,100
7200,note_on,,0,0,1,,,,,,,,0,,57,100
7200,note_on,,6,0,2,,,,,,,,1,,62,100
7428,note_on,,228,0,1,,,,,,,,0,,62,0
7428,note_on,,228,0,2,,,,,,,,1,,62,0
7440,note_on,,12,0,1,,,,,,,,0,,61,100
7440,note_on,,12,0,2,,,,,,,,1,,61,100
7656,note_on,,0,0,1,,,,,,,,0,,45,0
7656,note_on,,216,0,1,,,,,,,,0,,57,0
7668,note_on,,228,0,2,,,,,,,,1,,61,0
7668,note_on,,12,0,1,,,,,,,,0,,61,0
7680,note_on,,12,0,2,,,,,,,,1,,69,100
7680,note_on,,0,0,1,,,,,,,,0,,48,100
7680,note_on,,0,0,1,,,,,,,,0,,57,100
7680,note_on,,0,0,1,,,,,,,,0,,53,100
7680,note_on,,0,0,1,,,,,,,,0,,41,100
7680,note_on,,12,0,1,,,,,,,,0,,60,100
7776,control_change,,96,0,2,,,,,,7,96,1,,,
7908,note_on,,132,0,2,,,,,,,,1,,69,0
7920,note_on,,12,0,2,,,,,,,,1,,67,100
7968,control_change,,48,0,2,,,,,,7,97,1,,,
8136,note_on,,0,0,1,,,,,,,,0,,57,0
8136,note_on,,456,0,1,,,,,,,,0,,41,0
8136,note_on,,0,0,1,,,,,,,,0,,48,0
8136,note_on,,0,0,1,,,,,,,,0,,53,0
8136,note_on,,0,0,1,,,,,,,,0,,60,0
8148,note_on,,180,0,2,,,,,,,,1,,67,0
8160,control_change,,12,0,2,,,,,,7,98,1,,,
8160,note_on,,0,0,2,,,,,,,,1,,65,100
8160,note_on,,24,0,1,,,,,,,,0,,41,100
8160,note_on,,0,0,1,,,,,,,,0,,53,100
8160,note_on,,0,0,1,,,,,,,,0,,57,100
8160,note_on,,0,0,1,,,,,,,,0,,60,100
8160,note_on,,0,0,1,,,,,,,,0,,48,100
8336,control_change,,176,0,2,,,,,,7,99,1,,,
8388,note_on,,228,0,1,,,,,,,,0,,53,0
8388,note_on,,52,0,2,,,,,,,,1,,65,0
8388,note_on,,0,0,1,,,,,,,,0,,41,0
8388,note_on,,0,0,1,,,,,,,,0,,48,0
8388,note_on,,0,0,1,,,,,,,,0,,60,0
8388,note_on,,0,0,1,,,,,,,,0,,57,0
8400,note_on,,0,0,1,,,,,,,,0,,57,100
8400,note_on,,0,0,1,,,,,,,,0,,60,100
8400,note_on,,12,0,2,,,,,,,,1,,64,100
8400,note_on,,0,0,1,,,,,,,,0,,41,100
8400,note_on,,12,0,1,,,,,,,,0,,48,100
8528,control_change,,128,0,2,,,,,,7,100,1,,,
8628,note_on,,0,0,1,,,,,,,,0,,48,0
8628,note_on,,0,0,1,,,,,,,,0,,57,0
8628,note_on,,100,0,2,,,,,,,,1,,64,0
8628,note_on,,0,0,1,,,,,,,,0,,41,0
8628,note_on,,228,0,1,,,,,,,,0,,60,0
8640,note_on,,12,0,1,,,,,,,,0,,58,100
8640,note_on,,0,0,1,,,,,,,,0,,60,100
8640,note_on,,12,0,2,,,,,,,,1,,62,100
8640,note_on,,0,0,1,,,,,,,,0,,41,100
8640,note_on,,0,0,1,,,,,,,,0,,48,100
8704,control_change,,64,0,2,,,,,,7,101,1,,,
8868,note_on,,164,0,2,,,,,,,,1,,62,0
8868,note_on,,0,0,1,,,,,,,,0,,48,0
8868,note_on,,0,0,1,,,,,,,,0,,58,0
8868,note_on,,0,0,1,,,,,,,,0,,60,0
8868,note_on,,228,0,1,,,,,,,,0,,41,0
8880,note_on,,12,0,2,,,,,,,,1,,64,100
8880,note_on,,12,0,1,,,,,,,,0,,60,100
8880,note_on,,0,0,1,,,,,,,,0,,58,100
8880,note_on,,0,0,1,,,,,,,,0,,55,100
8880,note_on,,0,0,1,,,,,,,,0,,41,100
8896,control_change,,16,0,2,,,,,,7,102,1,,,
9088,control_change,,192,0,2,,,,,,7,103,1,,,
9108,note_on,,20,0,2,,,,,,,,1,,64,0
9108,note_on,,228,0,1,,,,,,,,0,,41,0
9108,note_on,,0,0,1,,,,,,,,0,,55,0
9108,note_on,,0,0,1,,,,,,,,0,,58,0
9108,note_on,,0,0,1,,,,,,,,0,,60,0
9120,note_on,,12,0,2,,,,,,,,1,,65,100
9120,note_on,,0,0,1,,,,,,,,0,,41,100
9120,note_on,,0,0,1,,,,,,,,0,,57,100
9120,note_on,,12,0,1,,,,,,,,0,,60,100
9120,note_on,,0,0,1,,,,,,,,0,,53,100
9264,control_change,,144,0,2,,,,,,7,104,1,,,
9348,note_on,,84,0,2,,,,,,,,1,,65,0
9348,note_on,,0,0,1,,,,,,,,0,,60,0
9348,note_on,,0,0,1,,,,,,,,0,,57,0
9348,note_on,,0,0,1,,,,,,,,0,,53,0
9348,note_on,,228,0,1,,,,,,,,0,,41,0
9360,note_on,,12,0,2,,,,,,,,1,,67,100
9456,control_change,,96,0,2,,,,,,7,105,1,,,
9588,note_on,,132,0,2,,,,,,,,1,,67,0
9600,note_on,,12,0,2,,,,,,,,1,,64,100
9600,note_on,,0,0,1,,,,,,,,0,,52,100
9600,note_on,,252,0,1,,,,,,,,0,,61,100
9600,note_on,,0,0,1,,,,,,,,0,,45,100
9600,note_on,,0,0,1,,,,,,,,0,,57,100
9648,control_change,,48,0,2,,,,,,7,106,1,,,
9824,control_change,,176,0,2,,,,,,7,107,1,,,
9828,note_on,,4,0,2,,,,,,,,1,,64,0
9840,note_on,,12,0,2,,,,,,,,1,,65,100
9954,note_on,,114,0,2,,,,,,,,1,,65,0
9960,note_on,,6,0,2,,,,,,,,1,,64,100
10016,control_change,,56,0,2,,,,,,7,108,1,,,
10056,note_on,,456,0,1,,,,,,,,0,,45,0
10056,note_on,,0,0,1,,,,,,,,0,,52,0
10056,note_on,,0,0,1,,,,,,,,0,,57,0
10056,note_on,,0,0,1,,,,,,,,0,,61,0
10074,note_on,,58,0,2,,,,,,,,1,,64,0
10080,note_on,,6,0,2,,,,,,,,1,,62,100
10080,note_on,,0,0,1,,,,,,,,0,,45,100
10080,note_on,,0,0,1,,,,,,,,0,,53,100
10080,note_on,,0,0,1,,,,,,,,0,,57,100
10080,note_on,,24,0,1,,,,,,,,0,,62,100
10192,control_change,,112,0,2,,,,,,7,109,1,,,
10308,note_on,,116,0,2,,,,,,,,1,,62,0
10320,note_on,,12,0,2,,,,,,,,1,,65,100
10384,control_change,,64,0,2,,,,,,7,110,1,,,
10434,note_on,,50,0,2,,,,,,,,1,,65,0
10440,note_on,,6,0,2,,,,,,,,1,,67,100
10536,note_on,,0,0,1,,,,,,,,0,,53,0
10536,note_on,,0,0,1,,,,,,,,0,,62,0
10536,note_on,,456,0,1,,,,,,,,0,,45,0
10536,note_on,,0,0,1,,,,,,,,0,,57,0
10554,note_on,,114,0,2,,,,,,,,1,,67,0
10560,note_on,,0,0,1,,,,,,,,0,,61,100
10560,note_on,,0,0,1,,,,,,,,0,,52,100
10560,note_on,,24,0,1,,,,,,,,0,,45,100
10560,note_on,,6,0,2,,,,,,,,1,,69,100
10560,note_on,,0,0,1,,,,,,,,0,,57,100
10576,control_change,,16,0,2,,,,,,7,111,1,,,
10752,control_change,,176,0,2,,,,,,7,112,1,,,
10788,note_on,,36,0,2,,,,,,,,1,,69,0
10788,note_on,,228,0,1,,,,,,,,0,,52,0
10788,note_on,,0,0,1,,,,,,,,0,,45,0
10788,note_on,,0,0,1,,,,,,,,0,,57,0
10800,note_on,,12,0,1,,,,,,,,0,,43,100
10800,note_on,,0,0,1,,,,,,,,0,,52,100
10800,note_on,,0,0,1,,,,,,,,0,,58,100
10800,note_on,,12,0,2,,,,,,,,1,,64,100
10944,control_change,,144,0,2,,,,,,7,113,1,,,
11016,note_on,,216,0,1,,,,,,,,0,,61,0
11028,note_on,,12,0,1,,,,,,,,0,,58,0
11028,note_on,,0,0,1,,,,,,,,0,,52,0
11028,note_on,,0,0,1,,,,,,,,0,,43,0
11028,note_on,,84,0,2,,,,,,,,1,,64,0
11040,note_on,,0,0,1,,,,,,,,0,,41,100
11040,note_on,,12,0,2,,,,,,,,1,,69,100
11040,note_on,,0,0,1,,,,,,,,0,,57,100
11040,note_on,,0,0,1,,,,,,,,0,,53,100
11040,note_on,,12,0,1,,,,,,,,0,,62,100
11136,control_change,,96,0,2,,,,,,7,114,1,,,
11268,note_on,,132,0,2,,,,,,,,1,,69,0
11280,note_on,,12,0,2,,,,,,,,1,,65,100
11312,control_change,,32,0,2,,,,,,7,115,1,,,
11496,note_on,,0,0,1,,,,,,,,0,,62,0
11496,note_on,,0,0,1,,,,,,,,0,,57,0
11496,note_on,,0,0,1,,,,,,,,0,,53,0
11496,note_on,,456,0,1,,,,,,,,0,,41,0
11508,note_on,,196,0,2,,,,,,,,1,,65,0
11520,note_on,,12,0,2,,,,,,,,1,,67,100
11568,control_change,,48,0,2,,,,,,7,114,1,,,
11632,control_change,,64,0,2,,,,,,7,113,1,,,
11696,control_change,,64,0,2,,,,,,7,112,1,,,
11748,note_on,,52,0,2,,,,,,,,1,,67,0
11760,control_change,,12,0,2,,,,,,7,111,1,,,
11760,note_on,,0,0,1,,,,,,,,0,,55,100
11760,note_on,,264,0,1,,,,,,,,0,,40,100
11760,note_on,,0,0,1,,,,,,,,0,,61,100
11760,note_on,,0,0,2,,,,,,,,1,,65,100
11760,note_on,,0,0,1,,,,,,,,0,,58,100
11824,control_change,,64,0,2,,,,,,7,110,1,,,
11874,note_on,,50,0,2,,,,,,,,1,,65,0
11880,note_on,,6,0,2,,,,,,,,1,,64,100
11888,control_change,,8,0,2,,,,,,7,109,1,,,
11952,control_change,,64,0,2,,,,,,7,108,1,,,
11988,note_on,,0,0,1,,,,,,,,0,,40,0
11988,note_on,,0,0,1,,,,,,,,0,,55,0
11988,note_on,,0,0,1,,,,,,,,0,,58,0
11988,note_on,,228,0,1,,,,,,,,0,,61,0
11994,note_on,,42,0,2,,,,,,,,1,,64,0
12000,note_on,,6,0,2,,,,,,,,1,,62,100
12000,note_on,,0,0,1,,,,,,,,0,,62,100
12000,note_on,,0,0,1,,,,,,,,0,,57,100
12000,note_on,,12,0,1,,,,,,,,0,,41,100
12016,control_change,,16,0,2,,,,,,7,107,1,,,
12096,control_change,,80,0,2,,,,,,7,106,1,,,
12160,control_change,,64,0,2,,,,,,7,105,1,,,
12224,control_change,,64,0,2,,,,,,7,104,1,,,
12228,note_on,,228,0,1,,,,,,,,0,,57,0
12228,note_on,,0,0,1,,,,,,,,0,,41,0
12228,note_on,,4,0,2,,,,,,,,1,,62,0
12240,note_on,,0,0,1,,,,,,,,0,,58,100
12240,note_on,,12,0,1,,,,,,,,0,,43,100
12240,note_on,,12,0,2,,,,,,,,1,,70,100
12288,control_change,,48,0,2,,,,,,7,103,1,,,
12352,control_change,,64,0,2,,,,,,7,102,1,,,
12416,control_change,,64,0,2,,,,,,7,101,1,,,
12456,note_on,,216,0,1,,,,,,,,0,,62,0
12468,note_on,,0,0,1,,,,,,,,0,,43,0
12468,note_on,,12,0,1,,,,,,,,0,,58,0
12468,note_on,,52,0,2,,,,,,,,1,,70,0
12480,note_on,,12,0,1,,,,,,,,0,,45,100
12480,note_on,,0,0,2,,,,,,,,1,,69,100
12480,note_on,,0,0,1,,,,,,,,0,,62,100
12480,note_on,,0,0,1,,,,,,,,0,,52,100
12480,note_on,,0,0,1,,,,,,,,0,,57,100
12480,control_change,,12,0,2,,,,,,7,100,1,,,
12544,control_change,,64,0,2,,,,,,7,99,1,,,
12594,note_on,,50,0,2,,,,,,,,1,,69,0
12600,note_on,,6,0,2,,,,,,,,1,,67,100
12624,control_change,,24,0,2,,,,,,7,98,1,,,
12688,control_change,,64,0,2,,,,,,7,97,1,,,
12708,note_on,,228,0,1,,,,,,,,0,,62,0
12714,note_on,,26,0,2,,,,,,,,1,,67,0
12720,note_on,,6,0,2,,,,,,,,1,,65,100
12720,note_on,,12,0,1,,,,,,,,0,,61,100
12752,control_change,,32,0,2,,,,,,7,96,1,,,
12816,control_change,,64,0,2,,,,,,7,95,1,,,
12834,note_on,,18,0,2,,,,,,,,1,,65,0
12840,note_on,,6,0,2,,,,,,,,1,,64,100
12936,note_on,,0,0,1,,,,,,,,0,,45,0
12936,note_on,,0,0,1,,,,,,,,0,,57,0
12936,note_on,,216,0,1,,,,,,,,0,,52,0
12948,note_on,,12,0,1,,,,,,,,0,,61,0
12954,note_on,,114,0,2,,,,,,,,1,,64,0
12960,note_on,,12,0,1,,,,,,,,0,,38,100
12960,note_on,,0,0,2,,,,,,,,1,,64,100
12960,control_change,,6,0,2,,,,,,7,105,1,,,
12960,note_on,,0,0,1,,,,,,,,0,,53,100
12960,note_on,,0,0,1,,,,,,,,0,,57,100
12960,note_on,,0,0,1,,,,,,,,0,,62,100
12992,control_change,,32,0,2,,,,,,7,104,1,,,
13024,control_change,,32,0,2,,,,,,7,103,1,,,
13056,control_change,,32,0,2,,,,,,7,102,1,,,
13088,control_change,,32,0,2,,,,,,7,101,1,,,
13136,control_change,,48,0,2,,,,,,7,100,1,,,
13168,control_change,,32,0,2,,,,,,7,99,1,,,
13188,note_on,,20,0,2,,,,,,,,1,,64,0
13200,note_on,,0,0,2,,,,,,,,1,,62,100
13200,control_change,,12,0,2,,,,,,7,98,1,,,
13232,control_change,,32,0,2,,,,,,7,97,1,,,
13280,control_change,,48,0,2,,,,,,7,96,1,,,
13312,control_change,,32,0,2,,,,,,7,95,1,,,
13416,note_on,,0,0,1,,,,,,,,0,,57,0
13416,note_on,,456,0,1,,,,,,,,0,,53,0
13416,note_on,,0,0,1,,,,,,,,0,,62,0
13416,note_on,,0,0,1,,,,,,,,0,,38,0
13428,note_on,,116,0,2,,,,,,,,1,,62,0
13440,note_on,,0,0,1,,,,,,,,0,,69,100
13440,key_signature,,12,1,2,,,,,F,,,,,,
13440,control_change,,24,0,1,,,,,,7,102,0,,,
13440,key_signature,,0,1,1,,,,,F,,,,,,
13440,note_on,,0,0,1,,,,,,,,0,,81,100
13668,note_on,,228,0,1,,,,,,,,0,,81,0
13668,note_on,,0,0,1,,,,,,,,0,,69,0
13680,note_on,,0,0,1,,,,,,,,0,,65,100
13680,note_on,,0,0,1,,,,,,,,0,,62,100
13680,note_on,,12,0,1,,,,,,,,0,,74,100
13908,note_on,,0,0,1,,,,,,,,0,,74,0
13908,note_on,,0,0,1,,,,,,,,0,,62,0
13908,note_on,,228,0,1,,,,,,,,0,,65,0
13920,note_on,,0,0,1,,,,,,,,0,,57,100
13920,note_on,,12,0,1,,,,,,,,0,,76,100
13920,note_on,,0,0,1,,,,,,,,0,,64,100
14148,note_on,,228,0,1,,,,,,,,0,,57,0
14148,note_on,,0,0,1,,,,,,,,0,,64,0
14148,note_on,,0,0,1,,,,,,,,0,,76,0
14160,note_on,,12,0,1,,,,,,,,0,,69,100
14370,note_on,,210,0,1,,,,,,,,0,,69,100
14388,note_on,,18,0,1,,,,,,,,0,,69,0
14400,note_on,,12,0,1,,,,,,,,0,,55,100
14400,note_on,,0,0,1,,,,,,,,0,,67,100
14514,note_on,,114,0,1,,,,,,,,0,,67,0
14514,note_on,,0,0,1,,,,,,,,0,,55,0
14520,note_on,,6,0,1,,,,,,,,0,,53,100
14520,note_on,,0,0,1,,,,,,,,0,,65,100
14634,note_on,,114,0,1,,,,,,,,0,,65,0
14634,note_on,,0,0,1,,,,,,,,0,,53,0
14640,note_on,,0,0,1,,,,,,,,0,,52,100
14640,note_on,,0,0,1,,,,,,,,0,,64,100
14640,note_on,,6,0,1,,,,,,,,0,,69,0
14754,note_on,,0,0,1,,,,,,,,0,,52,0
14754,note_on,,114,0,1,,,,,,,,0,,64,0
14760,note_on,,6,0,1,,,,,,,,0,,50,100
14760,note_on,,0,0,1,,,,,,,,0,,62,100
14874,note_on,,114,0,1,,,,,,,,0,,62,0
14874,note_on,,0,0,1,,,,,,,,0,,50,0
14880,note_on,,6,0,1,,,,,,,,0,,52,100
14880,note_on,,0,0,1,,,,,,,,0,,64,100
15108,note_on,,228,0,1,,,,,,,,0,,64,0
15108,note_on,,0,0,1,,,,,,,,0,,52,0
15120,note_on,,0,0,1,,,,,,,,0,,57,100
15120,note_on,,12,0,1,,,,,,,,0,,45,100
15168,control_change,,48,0,1,,,,,,7,103,0,,,
15264,control_change,,96,0,1,,,,,,7,104,0,,,
15348,note_on,,84,0,1,,,,,,,,0,,45,0
15360,control_change,,12,0,1,,,,,,7,105,0,,,
15360,note_on,,0,0,1,,,,,,,,0,,69,100
15360,note_on,,0,0,1,,,,,,,,0,,52,100
15360,note_on,,0,0,1,,,,,,,,0,,61,100
15360,note_on,,0,0,1,,,,,,,,0,,45,100
15440,control_change,,80,0,1,,,,,,7,106,0,,,
15536,control_change,,96,0,1,,,,,,7,107,0,,,
15616,control_change,,80,0,1,,,,,,7,108,0,,,
15712,control_change,,96,0,1,,,,,,7,109,0,,,
15804,note_on,,92,0,1,,,,,,,,0,,57,0
15808,control_change,,4,0,1,,,,,,7,110,0,,,
15816,note_on,,0,0,1,,,,,,,,0,,61,0
15816,note_on,,0,0,1,,,,,,,,0,,69,0
15816,note_on,,0,0,1,,,,,,,,0,,45,0
15816,note_on,,8,0,1,,,,,,,,0,,52,0
15840,note_on,,24,0,1,,,,,,,,0,,50,100
15840,note_on,,0,0,1,,,,,,,,0,,69,100
15840,note_on,,0,0,1,,,,,,,,0,,62,100
15992,control_change,,152,0,1,,,,,,7,109,0,,,
16024,control_change,,32,0,1,,,,,,7,108,0,,,
16068,note_on,,44,0,1,,,,,,,,0,,62,0
16072,control_change,,4,0,1,,,,,,7,107,0,,,
16080,note_on,,8,0,1,,,,,,,,0,,58,100
16120,control_change,,40,0,1,,,,,,7,106,0,,,
16152,control_change,,32,0,1,,,,,,7,105,0,,,
16200,control_change,,48,0,1,,,,,,7,104,0,,,
16248,control_change,,48,0,1,,,,,,7,103,0,,,
16260,note_on,,12,0,1,,,,,,,,0,,60,100
16280,control_change,,20,0,1,,,,,,7,102,0,,,
16288,note_on,,8,0,1,,,,,,,,0,,60,0
16290,note_on,,2,0,1,,,,,,,,0,,58,100
16296,note_on,,6,0,1,,,,,,,,0,,69,0
16296,note_on,,0,0,1,,,,,,,,0,,50,0
16308,note_on,,12,0,1,,,,,,,,0,,58,0
16320,note_on,,0,0,1,,,,,,,,0,,45,100
16320,note_on,,12,0,1,,,,,,,,0,,57,100
16320,note_on,,0,0,1,,,,,,,,0,,69,100
16320,note_on,,0,0,1,,,,,,,,0,,52,100
16328,control_change,,8,0,1,,,,,,7,101,0,,,
16360,control_change,,32,0,1,,,,,,7,100,0,,,
16408,control_change,,48,0,1,,,,,,7,99,0,,,
16456,control_change,,48,0,1,,,,,,7,98,0,,,
16488,control_change,,32,0,1,,,,,,7,97,0,,,
16536,control_change,,48,0,1,,,,,,7,96,0,,,
16560,note_on,,24,0,1,,,,,,,,0,,58,0
16584,control_change,,24,0,1,,,,,,7,95,0,,,
16616,control_change,,32,0,1,,,,,,7,94,0,,,
16664,control_change,,48,0,1,,,,,,7,93,0,,,
16696,control_change,,32,0,1,,,,,,7,92,0,,,
16744,control_change,,48,0,1,,,,,,7,91,0,,,
16792,control_change,,48,0,1,,,,,,7,90,0,,,
17256,note_on,,0,0,1,,,,,,,,0,,52,0
17256,note_on,,0,0,1,,,,,,,,0,,69,0
17256,note_on,,0,0,1,,,,,,,,0,,57,0
17256,note_on,,464,0,1,,,,,,,,0,,45,0
17280,note_on,,24,0,1,,,,,,,,0,,69,100
17280,note_on,,0,0,1,,,,,,,,0,,65,100
17280,note_on,,0,0,1,,,,,,,,0,,50,100
17280,note_on,,0,0,1,,,,,,,,0,,57,100
17280,note_on,,3840,0,2,,,,,,,,1,,69,100
17508,note_on,,228,0,1,,,,,,,,0,,57,0
17508,note_on,,0,0,1,,,,,,,,0,,50,0
17508,note_on,,0,0,1,,,,,,,,0,,65,0
17508,note_on,,0,0,1,,,,,,,,0,,69,0
17508,note_on,,228,0,2,,,,,,,,1,,69,0
17520,note_on,,0,0,1,,,,,,,,0,,49,100
17520,note_on,,12,0,2,,,,,,,,1,,67,100
17520,note_on,,0,0,1,,,,,,,,0,,58,100
17520,note_on,,0,0,1,,,,,,,,0,,64,100
17520,note_on,,12,0,1,,,,,,,,0,,67,100
17748,note_on,,228,0,2,,,,,,,,1,,67,0
17748,note_on,,228,0,1,,,,,,,,0,,58,0
17748,note_on,,0,0,1,,,,,,,,0,,49,0
17748,note_on,,0,0,1,,,,,,,,0,,64,0
17748,note_on,,0,0,1,,,,,,,,0,,67,0
17760,note_on,,0,0,1,,,,,,,,0,,57,100
17760,note_on,,0,0,1,,,,,,,,0,,50,100
17760,note_on,,12,0,2,,,,,,,,1,,65,100
17760,note_on,,12,0,1,,,,,,,,0,,65,100
17760,note_on,,0,0,1,,,,,,,,0,,62,100
17988,note_on,,0,0,1,,,,,,,,0,,65,0
17988,note_on,,0,0,1,,,,,,,,0,,62,0
17988,note_on,,228,0,1,,,,,,,,0,,57,0
17988,note_on,,0,0,1,,,,,,,,0,,50,0
17988,note_on,,228,0,2,,,,,,,,1,,65,0
18000,note_on,,12,0,2,,,,,,,,1,,64,100
18000,note_on,,12,0,1,,,,,,,,0,,64,100
18000,note_on,,0,0,1,,,,,,,,0,,61,100
18000,note_on,,0,0,1,,,,,,,,0,,45,100
18000,note_on,,0,0,1,,,,,,,,0,,55,100
18228,note_on,,0,0,1,,,,,,,,0,,64,0
18228,note_on,,0,0,1,,,,,,,,0,,61,0
18228,note_on,,228,0,1,,,,,,,,0,,55,0
18228,note_on,,0,0,1,,,,,,,,0,,45,0
18228,note_on,,228,0,2,,,,,,,,1,,64,0
18240,note_on,,12,0,2,,,,,,,,1,,62,100
18240,note_on,,12,0,1,,,,,,,,0,,62,100
18240,note_on,,0,0,1,,,,,,,,0,,46,100
18240,note_on,,0,0,1,,,,,,,,0,,53,100
18468,note_on,,228,0,2,,,,,,,,1,,62,0
18468,note_on,,228,0,1,,,,,,,,0,,53,0
18468,note_on,,0,0,1,,,,,,,,0,,46,0
18468,note_on,,0,0,1,,,,,,,,0,,62,0
18480,note_on,,12,0,1,,,,,,,,0,,64,100
18480,note_on,,12,0,2,,,,,,,,1,,64,100
18480,note_on,,0,0,1,,,,,,,,0,,45,100
18480,note_on,,0,0,1,,,,,,,,0,,61,100
18594,note_on,,114,0,1,,,,,,,,0,,45,0
18600,note_on,,6,0,1,,,,,,,,0,,43,100
18708,note_on,,228,0,2,,,,,,,,1,,64,0
18708,note_on,,108,0,1,,,,,,,,0,,61,0
18708,note_on,,0,0,1,,,,,,,,0,,64,0
18714,note_on,,6,0,1,,,,,,,,0,,43,0
18720,note_on,,6,0,1,,,,,,,,0,,65,100
18720,note_on,,0,0,1,,,,,,,,0,,62,100
18720,note_on,,0,0,1,,,,,,,,0,,41,100
18720,note_on,,12,0,2,,,,,,,,1,,65,100
18834,note_on,,114,0,1,,,,,,,,0,,41,0
18840,note_on,,6,0,1,,,,,,,,0,,40,100
18948,note_on,,0,0,1,,,,,,,,0,,65,0
18948,note_on,,228,0,2,,,,,,,,1,,65,0
18948,note_on,,108,0,1,,,,,,,,0,,62,0
18954,note_on,,6,0,1,,,,,,,,0,,40,0
18960,note_on,,6,0,1,,,,,,,,0,,65,100
18960,note_on,,0,0,1,,,,,,,,0,,62,100
18960,note_on,,0,0,1,,,,,,,,0,,38,100
18960,note_on,,0,0,1,,,,,,,,0,,57,100
18960,note_on,,12,0,2,,,,,,,,1,,65,100
19188,note_on,,0,0,1,,,,,,,,0,,62,0
19188,note_on,,228,0,2,,,,,,,,1,,65,0
19188,note_on,,0,0,1,,,,,,,,0,,38,0
19188,note_on,,228,0,1,,,,,,,,0,,57,0
19188,note_on,,0,0,1,,,,,,,,0,,65,0
19200,note_on,,0,0,1,,,,,,,,0,,60,100
19200,note_on,,0,0,1,,,,,,,,0,,55,100
19200,note_on,,0,0,1,,,,,,,,0,,48,100
19200,note_on,,12,0,1,,,,,,,,0,,64,100
19200,note_on,,12,0,2,,,,,,,,1,,67,100
19200,note_on,,0,0,1,,,,,,,,0,,67,100
19200,note_on,,0,0,1,,,,,,,,0,,36,100
19428,note_on,,228,0,2,,,,,,,,1,,67,0
19428,note_on,,228,0,1,,,,,,,,0,,55,0
19428,note_on,,0,0,1,,,,,,,,0,,60,0
19440,note_on,,12,0,1,,,,,,,,0,,58,100
19440,note_on,,0,0,1,,,,,,,,0,,62,100
19440,note_on,,12,0,2,,,,,,,,1,,67,100
19656,note_on,,0,0,1,,,,,,,,0,,64,0
19656,note_on,,0,0,1,,,,,,,,0,,67,0
19656,note_on,,216,0,1,,,,,,,,0,,36,0
19656,note_on,,0,0,1,,,,,,,,0,,48,0
19668,note_on,,0,0,1,,,,,,,,0,,58,0
19668,note_on,,12,0,1,,,,,,,,0,,62,0
19668,note_on,,228,0,2,,,,,,,,1,,67,0
19680,note_on,,12,0,2,,,,,,,,1,,69,100
19680,note_on,,0,0,1,,,,,,,,0,,41,100
19680,note_on,,0,0,1,,,,,,,,0,,60,100
19680,note_on,,12,0,1,,,,,,,,0,,65,100
19680,note_on,,0,0,1,,,,,,,,0,,57,100
19908,note_on,,228,0,2,,,,,,,,1,,69,0
19920,note_on,,12,0,2,,,,,,,,1,,69,100
20136,note_on,,456,0,1,,,,,,,,0,,41,0
20136,note_on,,0,0,1,,,,,,,,0,,65,0
20136,note_on,,0,0,1,,,,,,,,0,,57,0
20136,note_on,,0,0,1,,,,,,,,0,,60,0
20148,note_on,,228,0,2,,,,,,,,1,,69,0
20160,note_on,,12,0,2,,,,,,,,1,,69,100
20160,note_on,,24,0,1,,,,,,,,0,,65,100
20160,note_on,,0,0,1,,,,,,,,0,,58,100
20160,note_on,,0,0,1,,,,,,,,0,,43,100
20274,note_on,,114,0,2,,,,,,,,1,,69,0
20280,note_on,,6,0,2,,,,,,,,1,,67,100
20388,note_on,,228,0,1,,,,,,,,0,,65,0
20394,note_on,,114,0,2,,,,,,,,1,,67,0
20400,note_on,,12,0,1,,,,,,,,0,,64,100
20400,note_on,,6,0,2,,,,,,,,1,,65,100
20514,note_on,,114,0,2,,,,,,,,1,,65,0
20520,note_on,,6,0,2,,,,,,,,1,,64,100
20616,note_on,,216,0,1,,,,,,,,0,,58,0
20616,note_on,,0,0,1,,,,,,,,0,,43,0
20628,note_on,,12,0,1,,,,,,,,0,,64,0
20634,note_on,,114,0,2,,,,,,,,1,,64,0
20640,note_on,,6,0,2,,,,,,,,1,,62,100
20640,note_on,,0,0,1,,,,,,,,0,,57,100
20640,note_on,,12,0,1,,,,,,,,0,,62,100
20640,note_on,,0,0,1,,,,,,,,0,,45,100
20868,note_on,,228,0,2,,,,,,,,1,,62,0
20868,note_on,,228,0,1,,,,,,,,0,,62,0
20880,note_on,,12,0,2,,,,,,,,1,,61,100
20880,note_on,,12,0,1,,,,,,,,0,,61,100
21096,note_on,,216,0,1,,,,,,,,0,,57,0
21096,note_on,,0,0,1,,,,,,,,0,,45,0
21108,note_on,,228,0,2,,,,,,,,1,,61,0
21108,note_on,,12,0,1,,,,,,,,0,,61,0
21120,note_on,,0,0,1,,,,,,,,0,,41,100
21120,note_on,,0,0,1,,,,,,,,0,,48,100
21120,note_on,,12,0,2,,,,,,,,1,,69,100
21120,note_on,,0,0,1,,,,,,,,0,,57,100
21120,note_on,,12,0,1,,,,,,,,0,,60,100
21120,note_on,,0,0,1,,,,,,,,0,,53,100
21216,control_change,,96,0,2,,,,,,7,96,1,,,
21348,note_on,,132,0,2,,,,,,,,1,,69,0
21360,note_on,,12,0,2,,,,,,,,1,,67,100
21408,control_change,,48,0,2,,,,,,7,97,1,,,
21576,note_on,,456,0,1,,,,,,,,0,,41,0
21576,note_on,,0,0,1,,,,,,,,0,,48,0
21576,note_on,,0,0,1,,,,,,,,0,,53,0
21576,note_on,,0,0,1,,,,,,,,0,,57,0
21576,note_on,,0,0,1,,,,,,,,0,,60,0
21588,note_on,,180,0,2,,,,,,,,1,,67,0
21600,note_on,,0,0,2,,,,,,,,1,,65,100
21600,control_change,,12,0,2,,,,,,7,98,1,,,
21600,note_on,,0,0,1,,,,,,,,0,,60,100
21600,note_on,,0,0,1,,,,,,,,0,,53,100
21600,note_on,,0,0,1,,,,,,,,0,,57,100
21600,note_on,,0,0,1,,,,,,,,0,,48,100
21600,note_on,,24,0,1,,,,,,,,0,,41,100
21776,control_change,,176,0,2,,,,,,7,99,1,,,
21828,note_on,,0,0,1,,,,,,,,0,,41,0
21828,note_on,,0,0,1,,,,,,,,0,,60,0
21828,note_on,,228,0,1,,,,,,,,0,,53,0
21828,note_on,,52,0,2,,,,,,,,1,,65,0
21828,note_on,,0,0,1,,,,,,,,0,,48,0
21828,note_on,,0,0,1,,,,,,,,0,,57,0
21840,note_on,,12,0,2,,,,,,,,1,,64,100
21840,note_on,,12,0,1,,,,,,,,0,,48,100
21840,note_on,,0,0,1,,,,,,,,0,,41,100
21840,note_on,,0,0,1,,,,,,,,0,,57,100
21840,note_on,,0,0,1,,,,,,,,0,,60,100
21968,control_change,,128,0,2,,,,,,7,100,1,,,
22068,note_on,,228,0,1,,,,,,,,0,,60,0
22068,note_on,,0,0,1,,,,,,,,0,,57,0
22068,note_on,,0,0,1,,,,,,,,0,,41,0
22068,note_on,,0,0,1,,,,,,,,0,,48,0
22068,note_on,,100,0,2,,,,,,,,1,,64,0
22080,note_on,,0,0,1,,,,,,,,0,,41,100
22080,note_on,,12,0,1,,,,,,,,0,,58,100
22080,note_on,,0,0,1,,,,,,,,0,,48,100
22080,note_on,,12,0,2,,,,,,,,1,,62,100
22080,note_on,,0,0,1,,,,,,,,0,,60,100
22144,control_change,,64,0,2,,,,,,7,101,1,,,
22308,note_on,,228,0,1,,,,,,,,0,,41,0
22308,note_on,,0,0,1,,,,,,,,0,,48,0
22308,note_on,,0,0,1,,,,,,,,0,,60,0
22308,note_on,,0,0,1,,,,,,,,0,,58,0
22308,note_on,,164,0,2,,,,,,,,1,,62,0
22320,note_on,,0,0,1,,,,,,,,0,,41,100
22320,note_on,,12,0,1,,,,,,,,0,,60,100
22320,note_on,,0,0,1,,,,,,,,0,,58,100
22320,note_on,,0,0,1,,,,,,,,0,,55,100
22320,note_on,,12,0,2,,,,,,,,1,,64,100
22336,control_change,,16,0,2,,,,,,7,102,1,,,
22528,control_change,,192,0,2,,,,,,7,103,1,,,
22548,note_on,,228,0,1,,,,,,,,0,,41,0
22548,note_on,,0,0,1,,,,,,,,0,,58,0
22548,note_on,,20,0,2,,,,,,,,1,,64,0
22548,note_on,,0,0,1,,,,,,,,0,,60,0
22548,note_on,,0,0,1,,,,,,,,0,,55,0
22560,note_on,,0,0,1,,,,,,,,0,,41,100
22560,note_on,,0,0,1,,,,,,,,0,,53,100
22560,note_on,,0,0,1,,,,,,,,0,,57,100
22560,note_on,,12,0,2,,,,,,,,1,,65,100
22560,note_on,,12,0,1,,,,,,,,0,,60,100
22704,control_change,,144,0,2,,,,,,7,104,1,,,
22788,note_on,,84,0,2,,,,,,,,1,,65,0
22788,note_on,,228,0,1,,,,,,,,0,,41,0
22788,note_on,,0,0,1,,,,,,,,0,,53,0
22788,note_on,,0,0,1,,,,,,,,0,,57,0
22788,note_on,,0,0,1,,,,,,,,0,,60,0
22800,note_on,,12,0,2,,,,,,,,1,,67,100
22896,control_change,,96,0,2,,,,,,7,105,1,,,
23028,note_on,,132,0,2,,,,,,,,1,,67,0
23040,note_on,,252,0,1,,,,,,,,0,,61,100
23040,note_on,,0,0,1,,,,,,,,0,,57,100
23040,note_on,,0,0,1,,,,,,,,0,,52,100
23040,note_on,,0,0,1,,,,,,,,0,,45,100
23040,note_on,,12,0,2,,,,,,,,1,,64,100
23088,control_change,,48,0,2,,,,,,7,106,1,,,
23264,control_change,,176,0,2,,,,,,7,107,1,,,
23268,note_on,,4,0,2,,,,,,,,1,,64,0
23280,note_on,,12,0,2,,,,,,,,1,,65,100
23394,note_on,,114,0,2,,,,,,,,1,,65,0
23400,note_on,,6,0,2,,,,,,,,1,,64,100
23456,control_change,,56,0,2,,,,,,7,108,1,,,
23496,note_on,,456,0,1,,,,,,,,0,,45,0
23496,note_on,,0,0,1,,,,,,,,0,,52,0
23496,note_on,,0,0,1,,,,,,,,0,,57,0
23496,note_on,,0,0,1,,,,,,,,0,,61,0
23514,note_on,,58,0,2,,,,,,,,1,,64,0
23520,note_on,,6,0,2,,,,,,,,1,,62,100
23520,note_on,,0,0,1,,,,,,,,0,,45,100
23520,note_on,,0,0,1,,,,,,,,0,,53,100
23520,note_on,,0,0,1,,,,,,,,0,,57,100
23520,note_on,,24,0,1,,,,,,,,0,,62,100
23632,control_change,,112,0,2,,,,,,7,109,1,,,
23748,note_on,,116,0,2,,,,,,,,1,,62,0
23760,note_on,,12,0,2,,,,,,,,1,,65,100
23824,control_change,,64,0,2,,,,,,7,110,1,,,
23874,note_on,,50,0,2,,,,,,,,1,,65,0
23880,note_on,,6,0,2,,,,,,,,1,,67,100
23976,note_on,,456,0,1,,,,,,,,0,,45,0
23976,note_on,,0,0,1,,,,,,,,0,,53,0
23976,note_on,,0,0,1,,,,,,,,0,,57,0
23976,note_on,,0,0,1,,,,,,,,0,,62,0
23994,note_on,,114,0,2,,,,,,,,1,,67,0
24000,note_on,,0,0,1,,,,,,,,0,,52,100
24000,note_on,,6,0,2,,,,,,,,1,,69,100
24000,note_on,,24,0,1,,,,,,,,0,,45,100
24000,note_on,,0,0,1,,,,,,,,0,,57,100
24000,note_on,,0,0,1,,,,,,,,0,,61,100
24016,control_change,,16,0,2,,,,,,7,111,1,,,
24192,control_change,,176,0,2,,,,,,7,112,1,,,
24228,note_on,,36,0,2,,,,,,,,1,,69,0
24228,note_on,,228,0,1,,,,,,,,0,,52,0
24228,note_on,,0,0,1,,,,,,,,0,,57,0
24228,note_on,,0,0,1,,,,,,,,0,,45,0
24240,note_on,,12,0,2,,,,,,,,1,,64,100
24240,note_on,,12,0,1,,,,,,,,0,,43,100
24240,note_on,,0,0,1,,,,,,,,0,,52,100
24240,note_on,,0,0,1,,,,,,,,0,,58,100
24384,control_change,,144,0,2,,,,,,7,113,1,,,
24456,note_on,,216,0,1,,,,,,,,0,,61,0
24468,note_on,,12,0,1,,,,,,,,0,,58,0
24468,note_on,,0,0,1,,,,,,,,0,,52,0
24468,note_on,,84,0,2,,,,,,,,1,,64,0
24468,note_on,,0,0,1,,,,,,,,0,,43,0
24480,note_on,,0,0,1,,,,,,,,0,,57,100
24480,note_on,,12,0,1,,,,,,,,0,,62,100
24480,note_on,,0,0,1,,,,,,,,0,,41,100
24480,note_on,,12,0,2,,,,,,,,1,,69,100
24480,note_on,,0,0,1,,,,,,,,0,,53,100
24576,control_change,,96,0,2,,,,,,7,114,1,,,
24708,note_on,,132,0,2,,,,,,,,1,,69,0
24720,note_on,,12,0,2,,,,,,,,1,,65,100
24752,control_change,,32,0,2,,,,,,7,115,1,,,
24936,note_on,,0,0,1,,,,,,,,0,,57,0
24936,note_on,,0,0,1,,,,,,,,0,,62,0
24936,note_on,,0,0,1,,,,,,,,0,,53,0
24936,note_on,,456,0,1,,,,,,,,0,,41,0
24948,note_on,,196,0,2,,,,,,,,1,,65,0
24960,note_on,,12,0,2,,,,,,,,1,,67,100
25008,control_change,,48,0,2,,,,,,7,114,1,,,
25072,control_change,,64,0,2,,,,,,7,113,1,,,
25136,control_change,,64,0,2,,,,,,7,112,1,,,
25188,note_on,,52,0,2,,,,,,,,1,,67,0
25200,note_on,,264,0,1,,,,,,,,0,,40,100
25200,note_on,,0,0,1,,,,,,,,0,,55,100
25200,note_on,,0,0,1,,,,,,,,0,,58,100
25200,note_on,,0,0,1,,,,,,,,0,,61,100
25200,note_on,,0,0,2,,,,,,,,1,,65,100
25200,control_change,,12,0,2,,,,,,7,111,1,,,
25264,control_change,,64,0,2,,,,,,7,110,1,,,
25314,note_on,,50,0,2,,,,,,,,1,,65,0
25320,note_on,,6,0,2,,,,,,,,1,,64,100
25328,control_change,,8,0,2,,,,,,7,109,1,,,
25392,control_change,,64,0,2,,,,,,7,108,1,,,
25428,note_on,,0,0,1,,,,,,,,0,,55,0
25428,note_on,,0,0,1,,,,,,,,0,,58,0
25428,note_on,,228,0,1,,,,,,,,0,,61,0
25428,note_on,,0,0,1,,,,,,,,0,,40,0
25434,note_on,,42,0,2,,,,,,,,1,,64,0
25440,note_on,,0,0,1,,,,,,,,0,,62,100
25440,note_on,,6,0,2,,,,,,,,1,,62,100
25440,note_on,,12,0,1,,,,,,,,0,,41,100
25440,note_on,,0,0,1,,,,,,,,0,,57,100
25456,control_change,,16,0,2,,,,,,7,107,1,,,
25536,control_change,,80,0,2,,,,,,7,106,1,,,
25600,control_change,,64,0,2,,,,,,7,105,1,,,
25664,control_change,,64,0,2,,,,,,7,104,1,,,
25668,note_on,,0,0,1,,,,,,,,0,,41,0
25668,note_on,,228,0,1,,,,,,,,0,,57,0
25668,note_on,,4,0,2,,,,,,,,1,,62,0
25680,note_on,,12,0,1,,,,,,,,0,,43,100
25680,note_on,,0,0,1,,,,,,,,0,,58,100
25680,note_on,,12,0,2,,,,,,,,1,,70,100
25728,control_change,,48,0,2,,,,,,7,103,1,,,
25792,control_change,,64,0,2,,,,,,7,102,1,,,
25856,control_change,,64,0,2,,,,,,7,101,1,,,
25896,note_on,,216,0,1,,,,,,,,0,,62,0
25908,note_on,,52,0,2,,,,,,,,1,,70,0
25908,note_on,,0,0,1,,,,,,,,0,,43,0
25908,note_on,,12,0,1,,,,,,,,0,,58,0
25920,control_change,,12,0,2,,,,,,7,100,1,,,
25920,note_on,,0,0,2,,,,,,,,1,,69,100
25920,note_on,,0,0,1,,,,,,,,0,,62,100
25920,note_on,,0,0,1,,,,,,,,0,,52,100
25920,note_on,,0,0,1,,,,,,,,0,,57,100
25920,note_on,,12,0,1,,,,,,,,0,,45,100
25984,control_change,,64,0,2,,,,,,7,99,1,,,
26034,note_on,,50,0,2,,,,,,,,1,,69,0
26040,note_on,,6,0,2,,,,,,,,1,,67,100
26064,control_change,,24,0,2,,,,,,7,98,1,,,
26128,control_change,,64,0,2,,,,,,7,97,1,,,
26148,note_on,,228,0,1,,,,,,,,0,,62,0
26154,note_on,,26,0,2,,,,,,,,1,,67,0
26160,note_on,,6,0,2,,,,,,,,1,,65,100
26160,note_on,,12,0,1,,,,,,,,0,,61,100
26192,control_change,,32,0,2,,,,,,7,96,1,,,
26256,control_change,,64,0,2,,,,,,7,95,1,,,
26274,note_on,,18,0,2,,,,,,,,1,,65,0
26280,note_on,,6,0,2,,,,,,,,1,,64,100
26376,note_on,,0,0,1,,,,,,,,0,,57,0
26376,note_on,,0,0,1,,,,,,,,0,,45,0
26376,note_on,,216,0,1,,,,,,,,0,,52,0
26388,note_on,,12,0,1,,,,,,,,0,,61,0
26394,note_on,,114,0,2,,,,,,,,1,,64,0
26400,note_on,,0,0,1,,,,,,,,0,,57,100
26400,note_on,,0,0,1,,,,,,,,0,,53,100
26400,note_on,,12,0,1,,,,,,,,0,,38,100
26400,note_on,,0,0,1,,,,,,,,0,,62,100
26400,control_change,,6,0,2,,,,,,7,105,1,,,
26400,note_on,,0,0,2,,,,,,,,1,,64,100
26432,control_change,,32,0,2,,,,,,7,104,1,,,
26464,control_change,,32,0,2,,,,,,7,103,1,,,
26496,control_change,,32,0,2,,,,,,7,102,1,,,
26528,control_change,,32,0,2,,,,,,7,101,1,,,
26576,control_change,,48,0,2,,,,,,7,100,1,,,
26608,control_change,,32,0,2,,,,,,7,99,1,,,
26628,note_on,,20,0,2,,,,,,,,1,,64,0
26640,note_on,,0,0,2,,,,,,,,1,,62,100
26640,control_change,,12,0,2,,,,,,7,98,1,,,
26672,control_change,,32,0,2,,,,,,7,97,1,,,
26720,control_change,,48,0,2,,,,,,7,96,1,,,
26752,control_change,,32,0,2,,,,,,7,95,1,,,
26856,note_on,,0,0,1,,,,,,,,0,,38,0
26856,note_on,,0,0,1,,,,,,,,0,,62,0
26856,note_on,,0,0,1,,,,,,,,0,,57,0
26856,note_on,,456,0,1,,,,,,,,0,,53,0
26868,note_on,,116,0,2,,,,,,,,1,,62,0
26880,key_signature,,0,1,1,,,,,F,,,,,,
26880,key_signature,,12,1,2,,,,,F,,,,,,
26880,note_on,,0,0,1,,,,,,,,0,,81,100
26880,note_on,,0,0,1,,,,,,,,0,,69,100
26880,control_change,,24,0,1,,,,,,7,102,0,,,
27108,note_on,,0,0,1,,,,,,,,0,,69,0
27108,note_on,,228,0,1,,,,,,,,0,,81,0
27120,note_on,,0,0,1,,,,,,,,0,,65,100
27120,note_on,,0,0,1,,,,,,,,0,,62,100
27120,note_on,,12,0,1,,,,,,,,0,,74,100
27348,note_on,,228,0,1,,,,,,,,0,,65,0
27348,note_on,,0,0,1,,,,,,,,0,,62,0
27348,note_on,,0,0,1,,,,,,,,0,,74,0
27360,note_on,,0,0,1,,,,,,,,0,,57,100
27360,note_on,,0,0,1,,,,,,,,0,,64,100
27360,note_on,,12,0,1,,,,,,,,0,,76,100
27588,note_on,,0,0,1,,,,,,,,0,,76,0
27588,note_on,,0,0,1,,,,,,,,0,,64,0
27588,note_on,,228,0,1,,,,,,,,0,,57,0
27600,note_on,,12,0,1,,,,,,,,0,,69,100
27810,note_on,,210,0,1,,,,,,,,0,,69,100
27828,note_on,,18,0,1,,,,,,,,0,,69,0
27840,note_on,,0,0,1,,,,,,,,0,,67,100
27840,note_on,,12,0,1,,,,,,,,0,,55,100
27954,note_on,,0,0,1,,,,,,,,0,,55,0
27954,note_on,,114,0,1,,,,,,,,0,,67,0
27960,note_on,,6,0,1,,,,,,,,0,,53,100
27960,note_on,,0,0,1,,,,,,,,0,,65,100
28074,note_on,,114,0,1,,,,,,,,0,,65,0
28074,note_on,,0,0,1,,,,,,,,0,,53,0
28080,note_on,,6,0,1,,,,,,,,0,,69,0
28080,note_on,,0,0,1,,,,,,,,0,,52,100
28080,note_on,,0,0,1,,,,,,,,0,,64,100
28194,note_on,,0,0,1,,,,,,,,0,,52,0
28194,note_on,,114,0,1,,,,,,,,0,,64,0
28200,note_on,,6,0,1,,,,,,,,0,,50,100
28200,note_on,,0,0,1,,,,,,,,0,,62,100
28314,note_on,,114,0,1,,,,,,,,0,,62,0
28314,note_on,,0,0,1,,,,,,,,0,,50,0
28320,note_on,,6,0,1,,,,,,,,0,,52,100
28320,note_on,,0,0,1,,,,,,,,0,,64,100
28548,note_on,,228,0,1,,,,,,,,0,,64,0
28548,note_on,,0,0,1,,,,,,,,0,,52,0
28560,note_on,,0,0,1,,,,,,,,0,,57,100
28560,note_on,,12,0,1,,,,,,,,0,,45,100
28608,control_change,,48,0,1,,,,,,7,103,0,,,
28704,control_change,,96,0,1,,,,,,7,104,0,,,
28788,note_on,,84,0,1,,,,,,,,0,,45,0
28800,control_change,,12,0,1,,,,,,7,105,0,,,
28800,note_on,,0,0,1,,,,,,,,0,,61,100
28800,note_on,,0,0,1,,,,,,,,0,,69,100
28800,note_on,,0,0,1,,,,,,,,0,,45,100
28800,note_on,,0,0,1,,,,,,,,0,,52,100
28880,control_change,,80,0,1,,,,,,7,106,0,,,
28976,control_change,,96,0,1,,,,,,7,107,0,,,
29056,control_change,,80,0,1,,,,,,7,108,0,,,
29152,control_change,,96,0,1,,,,,,7,109,0,,,
29244,note_on,,92,0,1,,,,,,,,0,,57,0
29248,control_change,,4,0,1,,,,,,7,110,0,,,
29256,note_on,,8,0,1,,,,,,,,0,,52,0
29256,note_on,,0,0,1,,,,,,,,0,,45,0
29256,note_on,,0,0,1,,,,,,,,0,,69,0
29256,note_on,,0,0,1,,,,,,,,0,,61,0
29280,note_on,,0,0,1,,,,,,,,0,,62,100
29280,note_on,,24,0,1,,,,,,,,0,,50,100
29280,note_on,,0,0,1,,,,,,,,0,,69,100
29432,control_change,,152,0,1,,,,,,7,109,0,,,
29464,control_change,,32,0,1,,,,,,7,108,0,,,
29508,note_on,,44,0,1,,,,,,,,0,,62,0
29512,control_change,,4,0,1,,,,,,7,107,0,,,
29520,note_on,,8,0,1,,,,,,,,0,,58,100
29560,control_change,,40,0,1,,,,,,7,106,0,,,
29592,control_change,,32,0,1,,,,,,7,105,0,,,
29640,control_change,,48,0,1,,,,,,7,104,0,,,
29688,control_change,,48,0,1,,,,,,7,103,0,,,
29700,note_on,,12,0,1,,,,,,,,0,,60,100
29720,control_change,,20,0,1,,,,,,7,102,0,,,
29728,note_on,,8,0,1,,,,,,,,0,,60,0
29730,note_on,,2,0,1,,,,,,,,0,,58,100
29736,note_on,,6,0,1,,,,,,,,0,,69,0
29736,note_on,,0,0,1,,,,,,,,0,,50,0
29748,note_on,,12,0,1,,,,,,,,0,,58,0
29760,note_on,,0,0,1,,,,,,,,0,,69,100
29760,note_on,,0,0,1,,,,,,,,0,,52,100
29760,note_on,,12,0,1,,,,,,,,0,,57,100
29760,note_on,,0,0,1,,,,,,,,0,,45,100
29768,control_change,,8,0,1,,,,,,7,101,0,,,
29800,control_change,,32,0,1,,,,,,7,100,0,,,
29848,control_change,,48,0,1,,,,,,7,99,0,,,
29896,control_change,,48,0,1,,,,,,7,98,0,,,
29928,control_change,,32,0,1,,,,,,7,97,0,,,
29976,control_change,,48,0,1,,,,,,7,96,0,,,
30000,note_on,,24,0,1,,,,,,,,0,,58,0
30024,control_change,,24,0,1,,,,,,7,95,0,,,
30056,control_change,,32,0,1,,,,,,7,94,0,,,
30104,control_change,,48,0,1,,,,,,7,93,0,,,
30136,control_change,,32,0,1,,,,,,7,92,0,,,
30184,control_change,,48,0,1,,,,,,7,91,0,,,
30232,control_change,,48,0,1,,,,,,7,90,0,,,
30696,note_on,,0,0,1,,,,,,,,0,,69,0
30696,note_on,,0,0,1,,,,,,,,0,,52,0
30696,note_on,,464,0,1,,,,,,,,0,,45,0
30696,note_on,,0,0,1,,,,,,,,0,,57,0
30720,note_on,,3840,0,2,,,,,,,,1,,69,100
30720,note_on,,0,0,1,,,,,,,,0,,65,100
30720,note_on,,0,0,1,,,,,,,,0,,50,100
30720,note_on,,0,0,1,,,,,,,,0,,57,100
30720,note_on,,24,0,1,,,,,,,,0,,69,100
30948,note_on,,0,0,1,,,,,,,,0,,69,0
30948,note_on,,228,0,2,,,,,,,,1,,69,0
30948,note_on,,0,0,1,,,,,,,,0,,50,0
30948,note_on,,228,0,1,,,,,,,,0,,57,0
30948,note_on,,0,0,1,,,,,,,,0,,65,0
30960,note_on,,12,0,1,,,,,,,,0,,67,100
30960,note_on,,0,0,1,,,,,,,,0,,64,100
30960,note_on,,12,0,2,,,,,,,,1,,67,100
30960,note_on,,0,0,1,,,,,,,,0,,58,100
30960,note_on,,0,0,1,,,,,,,,0,,49,100
31188,note_on,,228,0,1,,,,,,,,0,,58,0
31188,note_on,,0,0,1,,,,,,,,0,,49,0
31188,note_on,,0,0,1,,,,,,,,0,,64,0
31188,note_on,,0,0,1,,,,,,,,0,,67,0
31188,note_on,,228,0,2,,,,,,,,1,,67,0
31200,note_on,,12,0,2,,,,,,,,1,,65,100
31200,note_on,,0,0,1,,,,,,,,0,,50,100
31200,note_on,,0,0,1,,,,,,,,0,,57,100
31200,note_on,,0,0,1,,,,,,,,0,,62,100
31200,note_on,,12,0,1,,,,,,,,0,,65,100
31428,note_on,,0,0,1,,,,,,,,0,,62,0
31428,note_on,,0,0,1,,,,,,,,0,,65,0
31428,note_on,,228,0,1,,,,,,,,0,,57,0
31428,note_on,,228,0,2,,,,,,,,1,,65,0
31428,note_on,,0,0,1,,,,,,,,0,,50,0
31440,note_on,,12,0,1,,,,,,,,0,,64,100
31440,note_on,,0,0,1,,,,,,,,0,,61,100
31440,note_on,,0,0,1,,,,,,,,0,,45,100
31440,note_on,,0,0,1,,,,,,,,0,,55,100
31440,note_on,,12,0,2,,,,,,,,1,,64,100
31668,note_on,,228,0,2,,,,,,,,1,,64,0
31668,note_on,,0,0,1,,,,,,,,0,,64,0
31668,note_on,,228,0,1,,,,,,,,0,,55,0
31668,note_on,,0,0,1,,,,,,,,0,,45,0
31668,note_on,,0,0,1,,,,,,,,0,,61,0
31680,note_on,,12,0,1,,,,,,,,0,,62,100
31680,note_on,,0,0,1,,,,,,,,0,,46,100
31680,note_on,,0,0,1,,,,,,,,0,,53,100
31680,note_on,,12,0,2,,,,,,,,1,,62,100
31908,note_on,,0,0,1,,,,,,,,0,,62,0
31908,note_on,,228,0,1,,,,,,,,0,,53,0
31908,note_on,,228,0,2,,,,,,,,1,,62,0
31908,note_on,,0,0,1,,,,,,,,0,,46,0
31920,note_on,,12,0,2,,,,,,,,1,,64,100
31920,note_on,,12,0,1,,,,,,,,0,,64,100
31920,note_on,,0,0,1,,,,,,,,0,,45,100
31920,note_on,,0,0,1,,,,,,,,0,,61,100
32034,note_on,,114,0,1,,,,,,,,0,,45,0
32040,note_on,,6,0,1,,,,,,,,0,,43,100
32148,note_on,,0,0,1,,,,,,,,0,,64,0
32148,note_on,,108,0,1,,,,,,,,0,,61,0
32148,note_on,,228,0,2,,,,,,,,1,,64,0
32154,note_on,,6,0,1,,,,,,,,0,,43,0
32160,note_on,,0,0,1,,,,,,,,0,,62,100
32160,note_on,,6,0,1,,,,,,,,0,,65,100
32160,note_on,,12,0,2,,,,,,,,1,,65,100
32160,note_on,,0,0,1,,,,,,,,0,,41,100
32274,note_on,,114,0,1,,,,,,,,0,,41,0
32280,note_on,,6,0,1,,,,,,,,0,,40,100
32388,note_on,,228,0,2,,,,,,,,1,,65,0
32388,note_on,,108,0,1,,,,,,,,0,,62,0
32388,note_on,,0,0,1,,,,,,,,0,,65,0
32394,note_on,,6,0,1,,,,,,,,0,,40,0
32400,note_on,,0,0,1,,,,,,,,0,,62,100
32400,note_on,,12,0,2,,,,,,,,1,,65,100
32400,note_on,,6,0,1,,,,,,,,0,,65,100
32400,note_on,,0,0,1,,,,,,,,0,,38,100
32400,note_on,,0,0,1,,,,,,,,0,,57,100
32628,note_on,,228,0,2,,,,,,,,1,,65,0
32628,note_on,,228,0,1,,,,,,,,0,,57,0
32628,note_on,,0,0,1,,,,,,,,0,,62,0
32628,note_on,,0,0,1,,,,,,,,0,,65,0
32628,note_on,,0,0,1,,,,,,,,0,,38,0
32640,note_on,,12,0,2,,,,,,,,1,,67,100
32640,note_on,,12,0,1,,,,,,,,0,,64,100
32640,note_on,,0,0,1,,,,,,,,0,,67,100
32640,note_on,,0,0,1,,,,,,,,0,,48,100
32640,note_on,,0,0,1,,,,,,,,0,,36,100
32640,note_on,,0,0,1,,,,,,,,0,,60,100
32640,note_on,,0,0,1,,,,,,,,0,,55,100
32868,note_on,,0,0,1,,,,,,,,0,,60,0
32868,note_on,,228,0,2,,,,,,,,1,,67,0
32868,note_on,,228,0,1,,,,,,,,0,,55,0
32880,note_on,,12,0,2,,,,,,,,1,,67,100
32880,note_on,,0,0,1,,,,,,,,0,,62,100
32880,note_on,,12,0,1,,,,,,,,0,,58,100
33096,note_on,,0,0,1,,,,,,,,0,,67,0
33096,note_on,,0,0,1,,,,,,,,0,,48,0
33096,note_on,,216,0,1,,,,,,,,0,,36,0
33096,note_on,,0,0,1,,,,,,,,0,,64,0
33108,note_on,,12,0,1,,,,,,,,0,,62,0
33108,note_on,,228,0,2,,,,,,,,1,,67,0
33108,note_on,,0,0,1,,,,,,,,0,,58,0
33120,note_on,,12,0,1,,,,,,,,0,,65,100
33120,note_on,,0,0,1,,,,,,,,0,,60,100
33120,note_on,,0,0,1,,,,,,,,0,,57,100
33120,note_on,,0,0,1,,,,,,,,0,,41,100
33120,note_on,,12,0,2,,,,,,,,1,,69,100
33348,note_on,,228,0,2,,,,,,,,1,,69,0
33360,note_on,,12,0,2,,,,,,,,1,,69,100
33576,note_on,,0,0,1,,,,,,,,0,,65,0
33576,note_on,,0,0,1,,,,,,,,0,,60,0
33576,note_on,,0,0,1,,,,,,,,0,,57,0
33576,note_on,,456,0,1,,,,,,,,0,,41,0
33588,note_on,,228,0,2,,,,,,,,1,,69,0
33600,note_on,,0,0,1,,,,,,,,0,,43,100
33600,note_on,,0,0,1,,,,,,,,0,,58,100
33600,note_on,,24,0,1,,,,,,,,0,,65,100
33600,note_on,,12,0,2,,,,,,,,1,,69,100
33714,note_on,,114,0,2,,,,,,,,1,,69,0
33720,note_on,,6,0,2,,,,,,,,1,,67,100
33828,note_on,,228,0,1,,,,,,,,0,,65,0
33834,note_on,,114,0,2,,,,,,,,1,,67,0
33840,note_on,,12,0,1,,,,,,,,0,,64,100
33840,note_on,,6,0,2,,,,,,,,1,,65,100
33954,note_on,,114,0,2,,,,,,,,1,,65,0
33960,note_on,,6,0,2,,,,,,,,1,,64,100
34056,note_on,,0,0,1,,,,,,,,0,,43,0
34056,note_on,,216,0,1,,,,,,,,0,,58,0
34068,note_on,,12,0,1,,,,,,,,0,,64,0
34074,note_on,,114,0,2,,,,,,,,1,,64,0
34080,note_on,,12,0,1,,,,,,,,0,,62,100
34080,note_on,,6,0,2,,,,,,,,1,,62,100
34080,note_on,,0,0,1,,,,,,,,0,,45,100
34080,note_on,,0,0,1,,,,,,,,0,,57,100
34308,note_on,,228,0,1,,,,,,,,0,,62,0
34308,note_on,,228,0,2,,,,,,,,1,,62,0
34320,note_on,,12,0,1,,,,,,,,0,,61,100
34320,note_on,,12,0,2,,,,,,,,1,,61,100
34536,note_on,,0,0,1,,,,,,,,0,,45,0
34536,note_on,,216,0,1,,,,,,,,0,,57,0
34548,note_on,,12,0,1,,,,,,,,0,,61,0
34548,note_on,,228,0,2,,,,,,,,1,,61,0
34560,note_on,,0,0,1,,,,,,,,0,,41,100
34560,note_on,,0,0,1,,,,,,,,0,,53,100
34560,note_on,,0,0,1,,,,,,,,0,,48,100
34560,note_on,,12,0,1,,,,,,,,0,,60,100
34560,note_on,,12,0,2,,,,,,,,1,,69,100
34560,note_on,,0,0,1,,,,,,,,0,,57,100
34656,control_change,,96,0,2,,,,,,7,96,1,,,
34788,note_on,,132,0,2,,,,,,,,1,,69,0
34800,note_on,,12,0,2,,,,,,,,1,,67,100
34848,control_change,,48,0,2,,,,,,7,97,1,,,
35016,note_on,,456,0,1,,,,,,,,0,,41,0
35016,note_on,,0,0,1,,,,,,,,0,,53,0
35016,note_on,,0,0,1,,,,,,,,0,,57,0
35016,note_on,,0,0,1,,,,,,,,0,,48,0
35016,note_on,,0,0,1,,,,,,,,0,,60,0
35028,note_on,,180,0,2,,,,,,,,1,,67,0
35040,note_on,,24,0,1,,,,,,,,0,,41,100
35040,note_on,,0,0,1,,,,,,,,0,,48,100
35040,note_on,,0,0,1,,,,,,,,0,,57,100
35040,control_change,,12,0,2,,,,,,7,98,1,,,
35040,note_on,,0,0,2,,,,,,,,1,,65,100
35040,note_on,,0,0,1,,,,,,,,0,,60,100
35040,note_on,,0,0,1,,,,,,,,0,,53,100
35216,control_change,,176,0,2,,,,,,7,99,1,,,
35268,note_on,,0,0,1,,,,,,,,0,,57,0
35268,note_on,,0,0,1,,,,,,,,0,,60,0
35268,note_on,,0,0,1,,,,,,,,0,,41,0
35268,note_on,,228,0,1,,,,,,,,0,,53,0
35268,note_on,,0,0,1,,,,,,,,0,,48,0
35268,note_on,,52,0,2,,,,,,,,1,,65,0
35280,note_on,,12,0,1,,,,,,,,0,,48,100
35280,note_on,,0,0,1,,,,,,,,0,,41,100
35280,note_on,,0,0,1,,,,,,,,0,,57,100
35280,note_on,,0,0,1,,,,,,,,0,,60,100
35280,note_on,,12,0,2,,,,,,,,1,,64,100
35408,control_change,,128,0,2,,,,,,7,100,1,,,
35508,note_on,,100,0,2,,,,,,,,1,,64,0
35508,note_on,,228,0,1,,,,,,,,0,,60,0
35508,note_on,,0,0,1,,,,,,,,0,,57,0
35508,note_on,,0,0,1,,,,,,,,0,,41,0
35508,note_on,,0,0,1,,,,,,,,0,,48,0
35520,note_on,,0,0,1,,,,,,,,0,,60,100
35520,note_on,,0,0,1,,,,,,,,0,,41,100
35520,note_on,,12,0,2,,,,,,,,1,,62,100
35520,note_on,,0,0,1,,,,,,,,0,,48,100
35520,note_on,,12,0,1,,,,,,,,0,,58,100
35584,control_change,,64,0,2,,,,,,7,101,1,,,
35748,note_on,,228,0,1,,,,,,,,0,,41,0
35748,note_on,,0,0,1,,,,,,,,0,,48,0
35748,note_on,,0,0,1,,,,,,,,0,,60,0
35748,note_on,,0,0,1,,,,,,,,0,,58,0
35748,note_on,,164,0,2,,,,,,,,1,,62,0
35760,note_on,,12,0,1,,,,,,,,0,,60,100
35760,note_on,,0,0,1,,,,,,,,0,,41,100
35760,note_on,,0,0,1,,,,,,,,0,,55,100
35760,note_on,,0,0,1,,,,,,,,0,,58,100
35760,note_on,,12,0,2,,,,,,,,1,,64,100
35776,control_change,,16,0,2,,,,,,7,102,1,,,
35968,control_change,,192,0,2,,,,,,7,103,1,,,
35988,note_on,,0,0,1,,,,,,,,0,,60,0
35988,note_on,,0,0,1,,,,,,,,0,,58,0
35988,note_on,,0,0,1,,,,,,,,0,,55,0
35988,note_on,,20,0,2,,,,,,,,1,,64,0
35988,note_on,,228,0,1,,,,,,,,0,,41,0
36000,note_on,,12,0,2,,,,,,,,1,,65,100
36000,note_on,,0,0,1,,,,,,,,0,,41,100
36000,note_on,,0,0,1,,,,,,,,0,,53,100
36000,note_on,,0,0,1,,,,,,,,0,,57,100
36000,note_on,,12,0,1,,,,,,,,0,,60,100
36144,control_change,,144,0,2,,,,,,7,104,1,,,
36228,note_on,,84,0,2,,,,,,,,1,,65,0
36228,note_on,,0,0,1,,,,,,,,0,,60,0
36228,note_on,,0,0,1,,,,,,,,0,,57,0
36228,note_on,,0,0,1,,,,,,,,0,,53,0
36228,note_on,,228,0,1,,,,,,,,0,,41,0
36240,note_on,,12,0,2,,,,,,,,1,,67,100
36336,control_change,,96,0,2,,,,,,7,105,1,,,
36468,note_on,,132,0,2,,,,,,,,1,,67,0
36480,note_on,,252,0,1,,,,,,,,0,,61,100
36480,note_on,,0,0,1,,,,,,,,0,,52,100
36480,note_on,,0,0,1,,,,,,,,0,,45,100
36480,note_on,,0,0,1,,,,,,,,0,,57,100
36480,note_on,,12,0,2,,,,,,,,1,,64,100
36528,control_change,,48,0,2,,,,,,7,106,1,,,
36704,control_change,,176,0,2,,,,,,7,107,1,,,
36708,note_on,,4,0,2,,,,,,,,1,,64,0
36720,note_on,,12,0,2,,,,,,,,1,,65,100
36834,note_on,,114,0,2,,,,,,,,1,,65,0
36840,note_on,,6,0,2,,,,,,,,1,,64,100
36896,control_change,,56,0,2,,,,,,7,108,1,,,
36936,note_on,,456,0,1,,,,,,,,0,,45,0
36936,note_on,,0,0,1,,,,,,,,0,,52,0
36936,note_on,,0,0,1,,,,,,,,0,,57,0
36936,note_on,,0,0,1,,,,,,,,0,,61,0
36954,note_on,,58,0,2,,,,,,,,1,,64,0
36960,note_on,,24,0,1,,,,,,,,0,,62,100
36960,note_on,,0,0,1,,,,,,,,0,,57,100
36960,note_on,,0,0,1,,,,,,,,0,,45,100
36960,note_on,,0,0,1,,,,,,,,0,,53,100
36960,note_on,,6,0,2,,,,,,,,1,,62,100
37072,control_change,,112,0,2,,,,,,7,109,1,,,
37188,note_on,,116,0,2,,,,,,,,1,,62,0
37200,note_on,,12,0,2,,,,,,,,1,,65,100
37264,control_change,,64,0,2,,,,,,7,110,1,,,
37314,note_on,,50,0,2,,,,,,,,1,,65,0
37320,note_on,,6,0,2,,,,,,,,1,,67,100
37416,note_on,,0,0,1,,,,,,,,0,,57,0
37416,note_on,,0,0,1,,,,,,,,0,,62,0
37416,note_on,,0,0,1,,,,,,,,0,,53,0
37416,note_on,,456,0,1,,,,,,,,0,,45,0
37434,note_on,,114,0,2,,,,,,,,1,,67,0
37440,note_on,,0,0,1,,,,,,,,0,,61,100
37440,note_on,,0,0,1,,,,,,,,0,,57,100
37440,note_on,,24,0,1,,,,,,,,0,,45,100
37440,note_on,,0,0,1,,,,,,,,0,,52,100
37440,note_on,,6,0,2,,,,,,,,1,,69,100
37456,control_change,,16,0,2,,,,,,7,111,1,,,
37632,control_change,,176,0,2,,,,,,7,112,1,,,
37668,note_on,,0,0,1,,,,,,,,0,,57,0
37668,note_on,,228,0,1,,,,,,,,0,,52,0
37668,note_on,,0,0,1,,,,,,,,0,,45,0
37668,note_on,,36,0,2,,,,,,,,1,,69,0
37680,note_on,,0,0,1,,,,,,,,0,,58,100
37680,note_on,,12,0,2,,,,,,,,1,,64,100
37680,note_on,,12,0,1,,,,,,,,0,,43,100
37680,note_on,,0,0,1,,,,,,,,0,,52,100
37824,control_change,,144,0,2,,,,,,7,113,1,,,
37896,note_on,,216,0,1,,,,,,,,0,,61,0
37908,note_on,,0,0,1,,,,,,,,0,,43,0
37908,note_on,,0,0,1,,,,,,,,0,,52,0
37908,note_on,,12,0,1,,,,,,,,0,,58,0
37908,note_on,,84,0,2,,,,,,,,1,,64,0
37920,note_on,,12,0,2,,,,,,,,1,,69,100
37920,note_on,,12,0,1,,,,,,,,0,,62,100
37920,note_on,,0,0,1,,,,,,,,0,,57,100
37920,note_on,,0,0,1,,,,,,,,0,,53,100
37920,note_on,,0,0,1,,,,,,,,0,,41,100
38016,control_change,,96,0,2,,,,,,7,114,1,,,
38148,note_on,,132,0,2,,,,,,,,1,,69,0
38160,note_on,,12,0,2,,,,,,,,1,,65,100
38192,control_change,,32,0,2,,,,,,7,115,1,,,
38376,note_on,,0,0,1,,,,,,,,0,,62,0
38376,note_on,,456,0,1,,,,,,,,0,,41,0
38376,note_on,,0,0,1,,,,,,,,0,,53,0
38376,note_on,,0,0,1,,,,,,,,0,,57,0
38388,note_on,,196,0,2,,,,,,,,1,,65,0
38400,note_on,,12,0,2,,,,,,,,1,,67,100
38448,control_change,,48,0,2,,,,,,7,114,1,,,
38512,control_change,,64,0,2,,,,,,7,113,1,,,
38576,control_change,,64,0,2,,,,,,7,112,1,,,
38628,note_on,,52,0,2,,,,,,,,1,,67,0
38640,note_on,,264,0,1,,,,,,,,0,,40,100
38640,control_change,,12,0,2,,,,,,7,111,1,,,
38640,note_on,,0,0,2,,,,,,,,1,,65,100
38640,note_on,,0,0,1,,,,,,,,0,,55,100
38640,note_on,,0,0,1,,,,,,,,0,,58,100
38640,note_on,,0,0,1,,,,,,,,0,,61,100
38704,control_change,,64,0,2,,,,,,7,110,1,,,
38754,note_on,,50,0,2,,,,,,,,1,,65,0
38760,note_on,,6,0,2,,,,,,,,1,,64,100
38768,control_change,,8,0,2,,,,,,7,109,1,,,
38832,control_change,,64,0,2,,,,,,7,108,1,,,
38868,note_on,,0,0,1,,,,,,,,0,,40,0
38868,note_on,,0,0,1,,,,,,,,0,,55,0
38868,note_on,,0,0,1,,,,,,,,0,,58,0
38868,note_on,,228,0,1,,,,,,,,0,,61,0
38874,note_on,,42,0,2,,,,,,,,1,,64,0
38880,note_on,,0,0,1,,,,,,,,0,,57,100
38880,note_on,,12,0,1,,,,,,,,0,,41,100
38880,note_on,,6,0,2,,,,,,,,1,,62,100
38880,note_on,,0,0,1,,,,,,,,0,,62,100
38896,control_change,,16,0,2,,,,,,7,107,1,,,
38976,control_change,,80,0,2,,,,,,7,106,1,,,
39040,control_change,,64,0,2,,,,,,7,105,1,,,
39104,control_change,,64,0,2,,,,,,7,104,1,,,
39108,note_on,,4,0,2,,,,,,,,1,,62,0
39108,note_on,,0,0,1,,,,,,,,0,,41,0
39108,note_on,,228,0,1,,,,,,,,0,,57,0
39120,note_on,,12,0,2,,,,,,,,1,,70,100
39120,note_on,,0,0,1,,,,,,,,0,,58,100
39120,note_on,,12,0,1,,,,,,,,0,,43,100
39168,control_change,,48,0,2,,,,,,7,103,1,,,
39232,control_change,,64,0,2,,,,,,7,102,1,,,
39296,control_change,,64,0,2,,,,,,7,101,1,,,
39336,note_on,,216,0,1,,,,,,,,0,,62,0
39348,note_on,,12,0,1,,,,,,,,0,,58,0
39348,note_on,,0,0,1,,,,,,,,0,,43,0
39348,note_on,,52,0,2,,,,,,,,1,,70,0
39360,note_on,,0,0,2,,,,,,,,1,,69,100
39360,control_change,,12,0,2,,,,,,7,100,1,,,
39360,note_on,,0,0,1,,,,,,,,0,,52,100
39360,note_on,,0,0,1,,,,,,,,0,,57,100
39360,note_on,,12,0,1,,,,,,,,0,,45,100
39360,note_on,,0,0,1,,,,,,,,0,,62,100
39424,control_change,,64,0,2,,,,,,7,99,1,,,
39474,note_on,,50,0,2,,,,,,,,1,,69,0
39480,note_on,,6,0,2,,,,,,,,1,,67,100
39504,control_change,,24,0,2,,,,,,7,98,1,,,
39568,control_change,,64,0,2,,,,,,7,97,1,,,
39588,note_on,,228,0,1,,,,,,,,0,,62,0
39594,note_on,,26,0,2,,,,,,,,1,,67,0
39600,note_on,,6,0,2,,,,,,,,1,,65,100
39600,note_on,,12,0,1,,,,,,,,0,,61,100
39632,control_change,,32,0,2,,,,,,7,96,1,,,
39696,control_change,,64,0,2,,,,,,7,95,1,,,
39714,note_on,,18,0,2,,,,,,,,1,,65,0
39720,note_on,,6,0,2,,,,,,,,1,,64,100
39816,note_on,,216,0,1,,,,,,,,0,,52,0
39816,note_on,,0,0,1,,,,,,,,0,,57,0
39816,note_on,,0,0,1,,,,,,,,0,,45,0
39828,note_on,,12,0,1,,,,,,,,0,,61,0
39834,note_on,,114,0,2,,,,,,,,1,,64,0
39840,note_on,,0,0,1,,,,,,,,0,,53,100
39840,control_change,,6,0,2,,,,,,7,105,1,,,
39840,note_on,,0,0,2,,,,,,,,1,,64,100
39840,note_on,,12,0,1,,,,,,,,0,,38,100
39840,note_on,,0,0,1,,,,,,,,0,,62,100
39840,note_on,,0,0,1,,,,,,,,0,,57,100
39872,control_change,,32,0,2,,,,,,7,104,1,,,
39904,control_change,,32,0,2,,,,,,7,103,1,,,
39936,control_change,,32,0,2,,,,,,7,102,1,,,
39968,control_change,,32,0,2,,,,,,7,101,1,,,
40016,control_change,,48,0,2,,,,,,7,100,1,,,
40048,control_change,,32,0,2,,,,,,7,99,1,,,
40068,note_on,,20,0,2,,,,,,,,1,,64,0
40080,control_change,,12,0,2,,,,,,7,98,1,,,
40080,note_on,,0,0,2,,,,,,,,1,,62,100
40112,control_change,,32,0,2,,,,,,7,97,1,,,
40160,control_change,,48,0,2,,,,,,7,96,1,,,
40192,control_change,,32,0,2,,,,,,7,95,1,,,
40296,note_on,,0,0,1,,,,,,,,0,,57,0
40296,note_on,,0,0,1,,,,,,,,0,,62,0
40296,note_on,,0,0,1,,,,,,,,0,,38,0
40296,note_on,,456,0,1,,,,,,,,0,,53,0
40308,note_on,,116,0,2,,,,,,,,1,,62,0
40320,program_change,,0,0,2,,,,,,,,1,53,,
40320,key_signature,,0,1,2,,,,,F,,,,,,
40320,control_change,,12,0,2,,,,,,7,95,1,,,
40320,control_change,,0,0,2,,,,,,32,0,1,,,
40320,key_signature,,24,1,1,,,,,F,,,,,,
40320,control_change,,0,0,1,,,,,,7,102,0,,,
40320,control_change,,0,0,1,,,,,,0,0,0,,,
40320,set_tempo,952321,40320,1,0,,,,,,,,,,,
40320,control_change,,0,0,1,,,,,,1,0,0,,,
40320,control_change,,0,0,1,,,,,,10,64,0,,,
40320,control_change,,0,0,1,,,,,,91,0,0,,,
40320,control_change,,0,0,1,,,,,,93,0,0,,,
40320,control_change,,0,0,2,,,,,,0,0,1,,,
40320,note_on,,0,0,1,,,,,,,,0,,69,100
40320,program_change,,0,0,1,,,,,,,,0,0,,
40320,control_change,,0,0,2,,,,,,1,0,1,,,
40320,control_change,,0,0,2,,,,,,10,64,1,,,
40320,control_change,,0,0,2,,,,,,91,0,1,,,
40320,control_change,,0,0,2,,,,,,93,0,1,,,
40320,control_change,,0,0,1,,,,,,32,0,0,,,
40320,note_on,,0,0,1,,,,,,,,0,,81,100
40548,note_on,,0,0,1,,,,,,,,0,,69,0
40548,note_on,,228,0,1,,,,,,,,0,,81,0
40560,note_on,,0,0,1,,,,,,,,0,,62,100
40560,note_on,,12,0,1,,,,,,,,0,,74,100
40560,note_on,,0,0,1,,,,,,,,0,,65,100
40788,note_on,,228,0,1,,,,,,,,0,,65,0
40788,note_on,,0,0,1,,,,,,,,0,,62,0
40788,note_on,,0,0,1,,,,,,,,0,,74,0
40800,note_on,,12,0,1,,,,,,,,0,,76,100
40800,note_on,,0,0,1,,,,,,,,0,,64,100
40800,note_on,,0,0,1,,,,,,,,0,,57,100
41028,note_on,,0,0,1,,,,,,,,0,,64,0
41028,note_on,,0,0,1,,,,,,,,0,,76,0
41028,note_on,,228,0,1,,,,,,,,0,,57,0
41040,note_on,,12,0,1,,,,,,,,0,,69,100
41250,note_on,,210,0,1,,,,,,,,0,,69,100
41268,note_on,,18,0,1,,,,,,,,0,,69,0
41280,note_on,,12,0,1,,,,,,,,0,,55,100
41280,note_on,,0,0,1,,,,,,,,0,,67,100
41394,note_on,,114,0,1,,,,,,,,0,,67,0
41394,note_on,,0,0,1,,,,,,,,0,,55,0
41400,note_on,,6,0,1,,,,,,,,0,,53,100
41400,note_on,,0,0,1,,,,,,,,0,,65,100
41514,note_on,,114,0,1,,,,,,,,0,,65,0
41514,note_on,,0,0,1,,,,,,,,0,,53,0
41520,note_on,,6,0,1,,,,,,,,0,,69,0
41520,note_on,,0,0,1,,,,,,,,0,,52,100
41520,note_on,,0,0,1,,,,,,,,0,,64,100
41634,note_on,,114,0,1,,,,,,,,0,,64,0
41634,note_on,,0,0,1,,,,,,,,0,,52,0
41640,note_on,,6,0,1,,,,,,,,0,,50,100
41640,note_on,,0,0,1,,,,,,,,0,,62,100
41754,note_on,,114,0,1,,,,,,,,0,,62,0
41754,note_on,,0,0,1,,,,,,,,0,,50,0
41760,note_on,,0,0,1,,,,,,,,0,,64,100
41760,note_on,,6,0,1,,,,,,,,0,,52,100
41988,note_on,,0,0,1,,,,,,,,0,,52,0
41988,note_on,,228,0,1,,,,,,,,0,,64,0
42000,note_on,,12,0,1,,,,,,,,0,,45,100
42000,note_on,,0,0,1,,,,,,,,0,,57,100
42048,control_change,,48,0,1,,,,,,7,103,0,,,
42144,control_change,,96,0,1,,,,,,7,104,0,,,
42228,note_on,,84,0,1,,,,,,,,0,,45,0
42240,control_change,,12,0,1,,,,,,7,105,0,,,
42240,note_on,,0,0,1,,,,,,,,0,,61,100
42240,note_on,,0,0,1,,,,,,,,0,,69,100
42240,note_on,,0,0,1,,,,,,,,0,,45,100
42240,note_on,,0,0,1,,,,,,,,0,,52,100
42320,control_change,,80,0,1,,,,,,7,106,0,,,
42416,control_change,,96,0,1,,,,,,7,107,0,,,
42496,control_change,,80,0,1,,,,,,7,108,0,,,
42592,control_change,,96,0,1,,,,,,7,109,0,,,
42684,note_on,,92,0,1,,,,,,,,0,,57,0
42688,control_change,,4,0,1,,,,,,7,110,0,,,
42696,note_on,,8,0,1,,,,,,,,0,,52,0
42696,note_on,,0,0,1,,,,,,,,0,,45,0
42696,note_on,,0,0,1,,,,,,,,0,,69,0
42696,note_on,,0,0,1,,,,,,,,0,,61,0
42720,note_on,,24,0,1,,,,,,,,0,,50,100
42720,note_on,,0,0,1,,,,,,,,0,,69,100
42720,note_on,,0,0,1,,,,,,,,0,,62,100
42872,control_change,,152,0,1,,,,,,7,109,0,,,
42904,control_change,,32,0,1,,,,,,7,108,0,,,
42948,note_on,,44,0,1,,,,,,,,0,,62,0
42952,control_change,,4,0,1,,,,,,7,107,0,,,
42960,note_on,,8,0,1,,,,,,,,0,,58,100
43000,control_change,,40,0,1,,,,,,7,106,0,,,
43032,control_change,,32,0,1,,,,,,7,105,0,,,
43080,control_change,,48,0,1,,,,,,7,104,0,,,
43128,control_change,,48,0,1,,,,,,7,103,0,,,
43140,note_on,,12,0,1,,,,,,,,0,,60,100
43160,control_change,,20,0,1,,,,,,7,102,0,,,
43168,note_on,,8,0,1,,,,,,,,0,,60,0
43170,note_on,,2,0,1,,,,,,,,0,,58,100
43176,note_on,,6,0,1,,,,,,,,0,,69,0
43176,note_on,,0,0,1,,,,,,,,0,,50,0
43188,note_on,,12,0,1,,,,,,,,0,,58,0
43200,note_on,,0,0,1,,,,,,,,0,,52,100
43200,note_on,,0,0,1,,,,,,,,0,,45,100
43200,note_on,,12,0,1,,,,,,,,0,,57,100
43200,note_on,,0,0,1,,,,,,,,0,,69,100
43208,control_change,,8,0,1,,,,,,7,101,0,,,
43240,control_change,,32,0,1,,,,,,7,100,0,,,
43288,control_change,,48,0,1,,,,,,7,99,0,,,
43336,control_change,,48,0,1,,,,,,7,98,0,,,
43368,control_change,,32,0,1,,,,,,7,97,0,,,
43416,control_change,,48,0,1,,,,,,7,96,0,,,
43440,note_on,,24,0,1,,,,,,,,0,,58,0
43464,control_change,,24,0,1,,,,,,7,95,0,,,
43496,control_change,,32,0,1,,,,,,7,94,0,,,
43544,control_change,,48,0,1,,,,,,7,93,0,,,
43576,control_change,,32,0,1,,,,,,7,92,0,,,
43624,control_change,,48,0,1,,,,,,7,91,0,,,
43672,control_change,,48,0,1,,,,,,7,90,0,,,
44136,note_on,,0,0,1,,,,,,,,0,,57,0
44136,note_on,,0,0,1,,,,,,,,0,,69,0
44136,note_on,,0,0,1,,,,,,,,0,,52,0
44136,note_on,,464,0,1,,,,,,,,0,,45,0
44160,note_on,,3840,0,2,,,,,,,,1,,69,100
44160,note_on,,24,0,1,,,,,,,,0,,69,100
44160,note_on,,0,0,1,,,,,,,,0,,65,100
44160,note_on,,0,0,1,,,,,,,,0,,50,100
44160,note_on,,0,0,1,,,,,,,,0,,57,100
44388,note_on,,228,0,1,,,,,,,,0,,57,0
44388,note_on,,0,0,1,,,,,,,,0,,50,0
44388,note_on,,0,0,1,,,,,,,,0,,65,0
44388,note_on,,228,0,2,,,,,,,,1,,69,0
44388,note_on,,0,0,1,,,,,,,,0,,69,0
44400,note_on,,12,0,1,,,,,,,,0,,67,100
44400,note_on,,0,0,1,,,,,,,,0,,64,100
44400,note_on,,0,0,1,,,,,,,,0,,49,100
44400,note_on,,0,0,1,,,,,,,,0,,58,100
44400,note_on,,12,0,2,,,,,,,,1,,67,100
44628,note_on,,228,0,2,,,,,,,,1,,67,0
44628,note_on,,0,0,1,,,,,,,,0,,67,0
44628,note_on,,0,0,1,,,,,,,,0,,64,0
44628,note_on,,0,0,1,,,,,,,,0,,49,0
44628,note_on,,228,0,1,,,,,,,,0,,58,0
44640,note_on,,0,0,1,,,,,,,,0,,57,100
44640,note_on,,0,0,1,,,,,,,,0,,62,100
44640,note_on,,12,0,1,,,,,,,,0,,65,100
44640,note_on,,0,0,1,,,,,,,,0,,50,100
44640,note_on,,12,0,2,,,,,,,,1,,65,100
44868,note_on,,0,0,1,,,,,,,,0,,65,0
44868,note_on,,0,0,1,,,,,,,,0,,62,0
44868,note_on,,228,0,1,,,,,,,,0,,57,0
44868,note_on,,228,0,2,,,,,,,,1,,65,0
44868,note_on,,0,0,1,,,,,,,,0,,50,0
44880,note_on,,12,0,1,,,,,,,,0,,64,100
44880,note_on,,0,0,1,,,,,,,,0,,61,100
44880,note_on,,0,0,1,,,,,,,,0,,45,100
44880,note_on,,0,0,1,,,,,,,,0,,55,100
44880,note_on,,12,0,2,,,,,,,,1,,64,100
45108,note_on,,0,0,1,,,,,,,,0,,64,0
45108,note_on,,228,0,2,,,,,,,,1,,64,0
45108,note_on,,228,0,1,,,,,,,,0,,55,0
45108,note_on,,0,0,1,,,,,,,,0,,61,0
45108,note_on,,0,0,1,,,,,,,,0,,45,0
45120,note_on,,12,0,1,,,,,,,,0,,62,100
45120,note_on,,0,0,1,,,,,,,,0,,53,100
45120,note_on,,0,0,1,,,,,,,,0,,46,100
45120,note_on,,12,0,2,,,,,,,,1,,62,100
45348,note_on,,228,0,1,,,,,,,,0,,53,0
45348,note_on,,0,0,1,,,,,,,,0,,46,0
45348,note_on,,0,0,1,,,,,,,,0,,62,0
45348,note_on,,228,0,2,,,,,,,,1,,62,0
45360,note_on,,0,0,1,,,,,,,,0,,45,100
45360,note_on,,12,0,2,,,,,,,,1,,64,100
45360,note_on,,12,0,1,,,,,,,,0,,64,100
45360,note_on,,0,0,1,,,,,,,,0,,61,100
45474,note_on,,114,0,1,,,,,,,,0,,45,0
45480,note_on,,6,0,1,,,,,,,,0,,43,100
45588,note_on,,228,0,2,,,,,,,,1,,64,0
45588,note_on,,0,0,1,,,,,,,,0,,64,0
45588,note_on,,108,0,1,,,,,,,,0,,61,0
45594,note_on,,6,0,1,,,,,,,,0,,43,0
45600,note_on,,0,0,1,,,,,,,,0,,41,100
45600,note_on,,12,0,2,,,,,,,,1,,65,100
45600,note_on,,6,0,1,,,,,,,,0,,65,100
45600,note_on,,0,0,1,,,,,,,,0,,62,100
45714,note_on,,114,0,1,,,,,,,,0,,41,0
45720,note_on,,6,0,1,,,,,,,,0,,40,100
45828,note_on,,108,0,1,,,,,,,,0,,62,0
45828,note_on,,0,0,1,,,,,,,,0,,65,0
45828,note_on,,228,0,2,,,,,,,,1,,65,0
45834,note_on,,6,0,1,,,,,,,,0,,40,0
45840,note_on,,6,0,1,,,,,,,,0,,65,100
45840,note_on,,0,0,1,,,,,,,,0,,62,100
45840,note_on,,0,0,1,,,,,,,,0,,38,100
45840,note_on,,0,0,1,,,,,,,,0,,57,100
45840,note_on,,12,0,2,,,,,,,,1,,65,100
46068,note_on,,228,0,2,,,,,,,,1,,65,0
46068,note_on,,0,0,1,,,,,,,,0,,62,0
46068,note_on,,0,0,1,,,,,,,,0,,65,0
46068,note_on,,0,0,1,,,,,,,,0,,38,0
46068,note_on,,228,0,1,,,,,,,,0,,57,0
46080,note_on,,0,0,1,,,,,,,,0,,48,100
46080,note_on,,0,0,1,,,,,,,,0,,36,100
46080,note_on,,0,0,1,,,,,,,,0,,60,100
46080,note_on,,0,0,1,,,,,,,,0,,55,100
46080,note_on,,12,0,1,,,,,,,,0,,64,100
46080,note_on,,12,0,2,,,,,,,,1,,67,100
46080,note_on,,0,0,1,,,,,,,,0,,67,100
46308,note_on,,228,0,1,,,,,,,,0,,55,0
46308,note_on,,0,0,1,,,,,,,,0,,60,0
46308,note_on,,228,0,2,,,,,,,,1,,67,0
46320,note_on,,12,0,2,,,,,,,,1,,67,100
46320,note_on,,0,0,1,,,,,,,,0,,62,100
46320,note_on,,12,0,1,,,,,,,,0,,58,100
46536,note_on,,216,0,1,,,,,,,,0,,36,0
46536,note_on,,0,0,1,,,,,,,,0,,48,0
46536,note_on,,0,0,1,,,,,,,,0,,67,0
46536,note_on,,0,0,1,,,,,,,,0,,64,0
46548,note_on,,12,0,1,,,,,,,,0,,62,0
46548,note_on,,0,0,1,,,,,,,,0,,58,0
46548,note_on,,228,0,2,,,,,,,,1,,67,0
46560,note_on,,0,0,1,,,,,,,,0,,60,100
46560,note_on,,12,0,1,,,,,,,,0,,65,100
46560,note_on,,12,0,2,,,,,,,,1,,69,100
46560,note_on,,0,0,1,,,,,,,,0,,41,100
46560,note_on,,0,0,1,,,,,,,,0,,57,100
46788,note_on,,228,0,2,,,,,,,,1,,69,0
46800,note_on,,12,0,2,,,,,,,,1,,69,100
47016,note_on,,0,0,1,,,,,,,,0,,65,0
47016,note_on,,0,0,1,,,,,,,,0,,60,0
47016,note_on,,0,0,1,,,,,,,,0,,57,0
47016,note_on,,456,0,1,,,,,,,,0,,41,0
47028,note_on,,228,0,2,,,,,,,,1,,69,0
47040,note_on,,12,0,2,,,,,,,,1,,69,100
47040,note_on,,0,0,1,,,,,,,,0,,58,100
47040,note_on,,24,0,1,,,,,,,,0,,65,100
47040,note_on,,0,0,1,,,,,,,,0,,43,100
47154,note_on,,114,0,2,,,,,,,,1,,69,0
47160,note_on,,6,0,2,,,,,,,,1,,67,100
47268,note_on,,228,0,1,,,,,,,,0,,65,0
47274,note_on,,114,0,2,,,,,,,,1,,67,0
47280,note_on,,12,0,1,,,,,,,,0,,64,100
47280,note_on,,6,0,2,,,,,,,,1,,65,100
47394,note_on,,114,0,2,,,,,,,,1,,65,0
47400,note_on,,6,0,2,,,,,,,,1,,64,100
47496,note_on,,0,0,1,,,,,,,,0,,43,0
47496,note_on,,216,0,1,,,,,,,,0,,58,0
47508,note_on,,12,0,1,,,,,,,,0,,64,0
47514,note_on,,114,0,2,,,,,,,,1,,64,0
47520,note_on,,12,0,1,,,,,,,,0,,62,100
47520,note_on,,6,0,2,,,,,,,,1,,62,100
47520,note_on,,0,0,1,,,,,,,,0,,45,100
47520,note_on,,0,0,1,,,,,,,,0,,57,100
47748,note_on,,228,0,1,,,,,,,,0,,62,0
47748,note_on,,228,0,2,,,,,,,,1,,62,0
47760,note_on,,12,0,1,,,,,,,,0,,61,100
47760,note_on,,12,0,2,,,,,,,,1,,61,100
47976,note_on,,0,0,1,,,,,,,,0,,45,0
47976,note_on,,216,0,1,,,,,,,,0,,57,0
47988,note_on,,12,0,1,,,,,,,,0,,61,0
47988,note_on,,228,0,2,,,,,,,,1,,61,0
48000,note_on,,0,0,1,,,,,,,,0,,48,100
48000,note_on,,0,0,1,,,,,,,,0,,53,100
48000,note_on,,0,0,1,,,,,,,,0,,57,100
48000,note_on,,12,0,1,,,,,,,,0,,60,100
48000,note_on,,12,0,2,,,,,,,,1,,69,100
48000,note_on,,0,0,1,,,,,,,,0,,41,100
48096,control_change,,96,0,2,,,,,,7,96,1,,,
48228,note_on,,132,0,2,,,,,,,,1,,69,0
48240,note_on,,12,0,2,,,,,,,,1,,67,100
48288,control_change,,48,0,2,,,,,,7,97,1,,,
48456,note_on,,0,0,1,,,,,,,,0,,48,0
48456,note_on,,0,0,1,,,,,,,,0,,53,0
48456,note_on,,0,0,1,,,,,,,,0,,60,0
48456,note_on,,0,0,1,,,,,,,,0,,57,0
48456,note_on,,456,0,1,,,,,,,,0,,41,0
48468,note_on,,180,0,2,,,,,,,,1,,67,0
48480,note_on,,24,0,1,,,,,,,,0,,41,100
48480,note_on,,0,0,1,,,,,,,,0,,48,100
48480,note_on,,0,0,1,,,,,,,,0,,53,100
48480,control_change,,12,0,2,,,,,,7,98,1,,,
48480,note_on,,0,0,2,,,,,,,,1,,65,100
48480,note_on,,0,0,1,,,,,,,,0,,60,100
48480,note_on,,0,0,1,,,,,,,,0,,57,100
48656,control_change,,176,0,2,,,,,,7,99,1,,,
48708,note_on,,228,0,1,,,,,,,,0,,53,0
48708,note_on,,0,0,1,,,,,,,,0,,48,0
48708,note_on,,0,0,1,,,,,,,,0,,41,0
48708,note_on,,52,0,2,,,,,,,,1,,65,0
48708,note_on,,0,0,1,,,,,,,,0,,60,0
48708,note_on,,0,0,1,,,,,,,,0,,57,0
48720,note_on,,12,0,1,,,,,,,,0,,48,100
48720,note_on,,0,0,1,,,,,,,,0,,41,100
48720,note_on,,0,0,1,,,,,,,,0,,60,100
48720,note_on,,12,0,2,,,,,,,,1,,64,100
48720,note_on,,0,0,1,,,,,,,,0,,57,100
48848,control_change,,128,0,2,,,,,,7,100,1,,,
48948,note_on,,100,0,2,,,,,,,,1,,64,0
48948,note_on,,228,0,1,,,,,,,,0,,60,0
48948,note_on,,0,0,1,,,,,,,,0,,57,0
48948,note_on,,0,0,1,,,,,,,,0,,41,0
48948,note_on,,0,0,1,,,,,,,,0,,48,0
48960,note_on,,12,0,2,,,,,,,,1,,62,100
48960,note_on,,12,0,1,,,,,,,,0,,58,100
48960,note_on,,0,0,1,,,,,,,,0,,60,100
48960,note_on,,0,0,1,,,,,,,,0,,48,100
48960,note_on,,0,0,1,,,,,,,,0,,41,100
49024,control_change,,64,0,2,,,,,,7,101,1,,,
49188,note_on,,0,0,1,,,,,,,,0,,58,0
49188,note_on,,0,0,1,,,,,,,,0,,48,0
49188,note_on,,228,0,1,,,,,,,,0,,41,0
49188,note_on,,0,0,1,,,,,,,,0,,60,0
49188,note_on,,164,0,2,,,,,,,,1,,62,0
49200,note_on,,0,0,1,,,,,,,,0,,41,100
49200,note_on,,0,0,1,,,,,,,,0,,55,100
49200,note_on,,0,0,1,,,,,,,,0,,58,100
49200,note_on,,12,0,2,,,,,,,,1,,64,100
49200,note_on,,12,0,1,,,,,,,,0,,60,100
49216,control_change,,16,0,2,,,,,,7,102,1,,,
49408,control_change,,192,0,2,,,,,,7,103,1,,,
49428,note_on,,228,0,1,,,,,,,,0,,41,0
49428,note_on,,20,0,2,,,,,,,,1,,64,0
49428,note_on,,0,0,1,,,,,,,,0,,60,0
49428,note_on,,0,0,1,,,,,,,,0,,58,0
49428,note_on,,0,0,1,,,,,,,,0,,55,0
49440,note_on,,12,0,1,,,,,,,,0,,60,100
49440,note_on,,0,0,1,,,,,,,,0,,57,100
49440,note_on,,0,0,1,,,,,,,,0,,41,100
49440,note_on,,0,0,1,,,,,,,,0,,53,100
49440,note_on,,12,0,2,,,,,,,,1,,65,100
49584,control_change,,144,0,2,,,,,,7,104,1,,,
49668,note_on,,84,0,2,,,,,,,,1,,65,0
49668,note_on,,0,0,1,,,,,,,,0,,53,0
49668,note_on,,0,0,1,,,,,,,,0,,57,0
49668,note_on,,228,0,1,,,,,,,,0,,41,0
49668,note_on,,0,0,1,,,,,,,,0,,60,0
49680,note_on,,12,0,2,,,,,,,,1,,67,100
49776,control_change,,96,0,2,,,,,,7,105,1,,,
49908,note_on,,132,0,2,,,,,,,,1,,67,0
49920,note_on,,0,0,1,,,,,,,,0,,45,100
49920,note_on,,0,0,1,,,,,,,,0,,52,100
49920,note_on,,0,0,1,,,,,,,,0,,57,100
49920,note_on,,252,0,1,,,,,,,,0,,61,100
49920,note_on,,12,0,2,,,,,,,,1,,64,100
49968,control_change,,48,0,2,,,,,,7,106,1,,,
50144,control_change,,176,0,2,,,,,,7,107,1,,,
50148,note_on,,4,0,2,,,,,,,,1,,64,0
50160,note_on,,12,0,2,,,,,,,,1,,65,100
50274,note_on,,114,0,2,,,,,,,,1,,65,0
50280,note_on,,6,0,2,,,,,,,,1,,64,100
50336,control_change,,56,0,2,,,,,,7,108,1,,,
50376,note_on,,456,0,1,,,,,,,,0,,45,0
50376,note_on,,0,0,1,,,,,,,,0,,57,0
50376,note_on,,0,0,1,,,,,,,,0,,52,0
50376,note_on,,0,0,1,,,,,,,,0,,61,0
50394,note_on,,58,0,2,,,,,,,,1,,64,0
50400,note_on,,24,0,1,,,,,,,,0,,62,100
50400,note_on,,6,0,2,,,,,,,,1,,62,100
50400,note_on,,0,0,1,,,,,,,,0,,45,100
50400,note_on,,0,0,1,,,,,,,,0,,53,100
50400,note_on,,0,0,1,,,,,,,,0,,57,100
50512,control_change,,112,0,2,,,,,,7,109,1,,,
50628,note_on,,116,0,2,,,,,,,,1,,62,0
50640,note_on,,12,0,2,,,,,,,,1,,65,100
50704,control_change,,64,0,2,,,,,,7,110,1,,,
50754,note_on,,50,0,2,,,,,,,,1,,65,0
50760,note_on,,6,0,2,,,,,,,,1,,67,100
50856,note_on,,0,0,1,,,,,,,,0,,57,0
50856,note_on,,0,0,1,,,,,,,,0,,62,0
50856,note_on,,456,0,1,,,,,,,,0,,45,0
50856,note_on,,0,0,1,,,,,,,,0,,53,0
50874,note_on,,114,0,2,,,,,,,,1,,67,0
50880,note_on,,6,0,2,,,,,,,,1,,69,100
50880,note_on,,0,0,1,,,,,,,,0,,57,100
50880,note_on,,0,0,1,,,,,,,,0,,52,100
50880,note_on,,0,0,1,,,,,,,,0,,61,100
50880,note_on,,24,0,1,,,,,,,,0,,45,100
50896,control_change,,16,0,2,,,,,,7,111,1,,,
51072,control_change,,176,0,2,,,,,,7,112,1,,,
51108,note_on,,0,0,1,,,,,,,,0,,57,0
51108,note_on,,228,0,1,,,,,,,,0,,52,0
51108,note_on,,36,0,2,,,,,,,,1,,69,0
51108,note_on,,0,0,1,,,,,,,,0,,45,0
51120,note_on,,12,0,2,,,,,,,,1,,64,100
51120,note_on,,0,0,1,,,,,,,,0,,52,100
51120,note_on,,0,0,1,,,,,,,,0,,58,100
51120,note_on,,12,0,1,,,,,,,,0,,43,100
51264,control_change,,144,0,2,,,,,,7,113,1,,,
51336,note_on,,216,0,1,,,,,,,,0,,61,0
51348,note_on,,12,0,1,,,,,,,,0,,58,0
51348,note_on,,0,0,1,,,,,,,,0,,52,0
51348,note_on,,0,0,1,,,,,,,,0,,43,0
51348,note_on,,84,0,2,,,,,,,,1,,64,0
51360,note_on,,0,0,1,,,,,,,,0,,57,100
51360,note_on,,12,0,2,,,,,,,,1,,69,100
51360,note_on,,0,0,1,,,,,,,,0,,41,100
51360,note_on,,12,0,1,,,,,,,,0,,62,100
51360,note_on,,0,0,1,,,,,,,,0,,53,100
51456,control_change,,96,0,2,,,,,,7,114,1,,,
51588,note_on,,132,0,2,,,,,,,,1,,69,0
51600,note_on,,12,0,2,,,,,,,,1,,65,100
51632,control_change,,32,0,2,,,,,,7,115,1,,,
51816,note_on,,456,0,1,,,,,,,,0,,41,0
51816,note_on,,0,0,1,,,,,,,,0,,57,0
51816,note_on,,0,0,1,,,,,,,,0,,62,0
51816,note_on,,0,0,1,,,,,,,,0,,53,0
51828,note_on,,196,0,2,,,,,,,,1,,65,0
51840,note_on,,12,0,2,,,,,,,,1,,67,100
51888,control_change,,48,0,2,,,,,,7,114,1,,,
51952,control_change,,64,0,2,,,,,,7,113,1,,,
52016,control_change,,64,0,2,,,,,,7,112,1,,,
52068,note_on,,52,0,2,,,,,,,,1,,67,0
52080,control_change,,12,0,2,,,,,,7,111,1,,,
52080,note_on,,0,0,1,,,,,,,,0,,58,100
52080,note_on,,0,0,1,,,,,,,,0,,61,100
52080,note_on,,0,0,1,,,,,,,,0,,55,100
52080,note_on,,264,0,1,,,,,,,,0,,40,100
52080,note_on,,0,0,2,,,,,,,,1,,65,100
52144,control_change,,64,0,2,,,,,,7,110,1,,,
52194,note_on,,50,0,2,,,,,,,,1,,65,0
52200,note_on,,6,0,2,,,,,,,,1,,64,100
52208,control_change,,8,0,2,,,,,,7,109,1,,,
52272,control_change,,64,0,2,,,,,,7,108,1,,,
52308,note_on,,0,0,1,,,,,,,,0,,55,0
52308,note_on,,228,0,1,,,,,,,,0,,61,0
52308,note_on,,0,0,1,,,,,,,,0,,40,0
52308,note_on,,0,0,1,,,,,,,,0,,58,0
52314,note_on,,42,0,2,,,,,,,,1,,64,0
52320,note_on,,12,0,1,,,,,,,,0,,41,100
52320,note_on,,0,0,1,,,,,,,,0,,57,100
52320,note_on,,0,0,1,,,,,,,,0,,62,100
52320,note_on,,6,0,2,,,,,,,,1,,62,100
52336,control_change,,16,0,2,,,,,,7,107,1,,,
52416,control_change,,80,0,2,,,,,,7,106,1,,,
52480,control_change,,64,0,2,,,,,,7,105,1,,,
52544,control_change,,64,0,2,,,,,,7,104,1,,,
52548,note_on,,0,0,1,,,,,,,,0,,41,0
52548,note_on,,228,0,1,,,,,,,,0,,57,0
52548,note_on,,4,0,2,,,,,,,,1,,62,0
52560,note_on,,12,0,1,,,,,,,,0,,43,100
52560,note_on,,0,0,1,,,,,,,,0,,58,100
52560,note_on,,12,0,2,,,,,,,,1,,70,100
52608,control_change,,48,0,2,,,,,,7,103,1,,,
52672,control_change,,64,0,2,,,,,,7,102,1,,,
52736,control_change,,64,0,2,,,,,,7,101,1,,,
52776,note_on,,216,0,1,,,,,,,,0,,62,0
52788,note_on,,0,0,1,,,,,,,,0,,43,0
52788,note_on,,12,0,1,,,,,,,,0,,58,0
52788,note_on,,52,0,2,,,,,,,,1,,70,0
52800,note_on,,0,0,1,,,,,,,,0,,52,100
52800,note_on,,0,0,2,,,,,,,,1,,69,100
52800,control_change,,12,0,2,,,,,,7,100,1,,,
52800,note_on,,0,0,1,,,,,,,,0,,57,100
52800,note_on,,12,0,1,,,,,,,,0,,45,100
52800,note_on,,0,0,1,,,,,,,,0,,62,100
52864,control_change,,64,0,2,,,,,,7,99,1,,,
52914,note_on,,50,0,2,,,,,,,,1,,69,0
52920,note_on,,6,0,2,,,,,,,,1,,67,100
52944,control_change,,24,0,2,,,,,,7,98,1,,,
53008,control_change,,64,0,2,,,,,,7,97,1,,,
53028,note_on,,228,0,1,,,,,,,,0,,62,0
53034,note_on,,26,0,2,,,,,,,,1,,67,0
53040,note_on,,6,0,2,,,,,,,,1,,65,100
53040,note_on,,12,0,1,,,,,,,,0,,61,100
53072,control_change,,32,0,2,,,,,,7,96,1,,,
53136,control_change,,64,0,2,,,,,,7,95,1,,,
53154,note_on,,18,0,2,,,,,,,,1,,65,0
53160,note_on,,6,0,2,,,,,,,,1,,64,100
53256,note_on,,0,0,1,,,,,,,,0,,45,0
53256,note_on,,0,0,1,,,,,,,,0,,57,0
53256,note_on,,216,0,1,,,,,,,,0,,52,0
53268,note_on,,12,0,1,,,,,,,,0,,61,0
53274,note_on,,114,0,2,,,,,,,,1,,64,0
53280,note_on,,12,0,1,,,,,,,,0,,38,100
53280,note_on,,0,0,1,,,,,,,,0,,62,100
53280,note_on,,0,0,1,,,,,,,,0,,57,100
53280,note_on,,0,0,2,,,,,,,,1,,64,100
53280,control_change,,6,0,2,,,,,,7,105,1,,,
53280,note_on,,0,0,1,,,,,,,,0,,53,100
53312,control_change,,32,0,2,,,,,,7,104,1,,,
53344,control_change,,32,0,2,,,,,,7,103,1,,,
53376,control_change,,32,0,2,,,,,,7,102,1,,,
53408,control_change,,32,0,2,,,,,,7,101,1,,,
53456,control_change,,48,0,2,,,,,,7,100,1,,,
53488,control_change,,32,0,2,,,,,,7,99,1,,,
53508,note_on,,20,0,2,,,,,,,,1,,64,0
53520,note_on,,0,0,2,,,,,,,,1,,62,100
53520,control_change,,12,0,2,,,,,,7,98,1,,,
53552,control_change,,32,0,2,,,,,,7,97,1,,,
53600,control_change,,48,0,2,,,,,,7,96,1,,,
53632,control_change,,32,0,2,,,,,,7,95,1,,,
53736,note_on,,0,0,1,,,,,,,,0,,57,0
53736,note_on,,0,0,1,,,,,,,,0,,62,0
53736,note_on,,0,0,1,,,,,,,,0,,38,0
53736,note_on,,456,0,1,,,,,,,,0,,53,0
53748,note_on,,116,0,2,,,,,,,,1,,62,0
53760,control_change,,24,0,1,,,,,,7,102,0,,,
53760,key_signature,,0,1,1,,,,,F,,,,,,
53760,note_on,,0,0,1,,,,,,,,0,,69,100
53760,note_on,,0,0,1,,,,,,,,0,,81,100
53760,key_signature,,12,1,2,,,,,F,,,,,,
53988,note_on,,228,0,1,,,,,,,,0,,81,0
53988,note_on,,0,0,1,,,,,,,,0,,69,0
54000,note_on,,0,0,1,,,,,,,,0,,65,100
54000,note_on,,0,0,1,,,,,,,,0,,62,100
54000,note_on,,12,0,1,,,,,,,,0,,74,100
54228,note_on,,0,0,1,,,,,,,,0,,74,0
54228,note_on,,0,0,1,,,,,,,,0,,62,0
54228,note_on,,228,0,1,,,,,,,,0,,65,0
54240,note_on,,12,0,1,,,,,,,,0,,76,100
54240,note_on,,0,0,1,,,,,,,,0,,57,100
54240,note_on,,0,0,1,,,,,,,,0,,64,100
54468,note_on,,0,0,1,,,,,,,,0,,64,0
54468,note_on,,228,0,1,,,,,,,,0,,57,0
54468,note_on,,0,0,1,,,,,,,,0,,76,0
54480,note_on,,12,0,1,,,,,,,,0,,69,100
54690,note_on,,210,0,1,,,,,,,,0,,69,100
54708,note_on,,18,0,1,,,,,,,,0,,69,0
54720,note_on,,12,0,1,,,,,,,,0,,55,100
54720,note_on,,0,0,1,,,,,,,,0,,67,100
54834,note_on,,114,0,1,,,,,,,,0,,67,0
54834,note_on,,0,0,1,,,,,,,,0,,55,0
54840,note_on,,0,0,1,,,,,,,,0,,65,100
54840,note_on,,6,0,1,,,,,,,,0,,53,100
54954,note_on,,114,0,1,,,,,,,,0,,65,0
54954,note_on,,0,0,1,,,,,,,,0,,53,0
54960,note_on,,6,0,1,,,,,,,,0,,69,0
54960,note_on,,0,0,1,,,,,,,,0,,52,100
54960,note_on,,0,0,1,,,,,,,,0,,64,100
55074,note_on,,114,0,1,,,,,,,,0,,64,0
55074,note_on,,0,0,1,,,,,,,,0,,52,0
55080,note_on,,0,0,1,,,,,,,,0,,62,100
55080,note_on,,6,0,1,,,,,,,,0,,50,100
55194,note_on,,0,0,1,,,,,,,,0,,50,0
55194,note_on,,114,0,1,,,,,,,,0,,62,0
55200,note_on,,6,0,1,,,,,,,,0,,52,100
55200,note_on,,0,0,1,,,,,,,,0,,64,100
55428,note_on,,228,0,1,,,,,,,,0,,64,0
55428,note_on,,0,0,1,,,,,,,,0,,52,0
55440,note_on,,12,0,1,,,,,,,,0,,45,100
55440,note_on,,0,0,1,,,,,,,,0,,57,100
55488,control_change,,48,0,1,,,,,,7,103,0,,,
55584,control_change,,96,0,1,,,,,,7,104,0,,,
55668,note_on,,84,0,1,,,,,,,,0,,45,0
55680,note_on,,0,0,1,,,,,,,,0,,52,100
55680,note_on,,0,0,1,,,,,,,,0,,45,100
55680,note_on,,0,0,1,,,,,,,,0,,69,100
55680,note_on,,0,0,1,,,,,,,,0,,61,100
55680,control_change,,12,0,1,,,,,,7,105,0,,,
55760,control_change,,80,0,1,,,,,,7,106,0,,,
55856,control_change,,96,0,1,,,,,,7,107,0,,,
55936,control_change,,80,0,1,,,,,,7,108,0,,,
56032,control_change,,96,0,1,,,,,,7,109,0,,,
56124,note_on,,92,0,1,,,,,,,,0,,57,0
56128,control_change,,4,0,1,,,,,,7,110,0,,,
56136,note_on,,8,0,1,,,,,,,,0,,52,0
56136,note_on,,0,0,1,,,,,,,,0,,61,0
56136,note_on,,0,0,1,,,,,,,,0,,69,0
56136,note_on,,0,0,1,,,,,,,,0,,45,0
56160,note_on,,0,0,1,,,,,,,,0,,62,100
56160,note_on,,24,0,1,,,,,,,,0,,50,100
56160,note_on,,0,0,1,,,,,,,,0,,69,100
56312,control_change,,152,0,1,,,,,,7,109,0,,,
56344,control_change,,32,0,1,,,,,,7,108,0,,,
56388,note_on,,44,0,1,,,,,,,,0,,62,0
56392,control_change,,4,0,1,,,,,,7,107,0,,,
56400,note_on,,8,0,1,,,,,,,,0,,58,100
56440,control_change,,40,0,1,,,,,,7,106,0,,,
56472,control_change,,32,0,1,,,,,,7,105,0,,,
56520,control_change,,48,0,1,,,,,,7,104,0,,,
56568,control_change,,48,0,1,,,,,,7,103,0,,,
56580,note_on,,12,0,1,,,,,,,,0,,60,100
56600,control_change,,20,0,1,,,,,,7,102,0,,,
56608,note_on,,8,0,1,,,,,,,,0,,60,0
56610,note_on,,2,0,1,,,,,,,,0,,58,100
56616,note_on,,6,0,1,,,,,,,,0,,69,0
56616,note_on,,0,0,1,,,,,,,,0,,50,0
56628,note_on,,12,0,1,,,,,,,,0,,58,0
56640,note_on,,0,0,1,,,,,,,,0,,45,100
56640,note_on,,0,0,1,,,,,,,,0,,52,100
56640,note_on,,12,0,1,,,,,,,,0,,57,100
56640,note_on,,0,0,1,,,,,,,,0,,69,100
56648,control_change,,8,0,1,,,,,,7,101,0,,,
56680,control_change,,32,0,1,,,,,,7,100,0,,,
56728,control_change,,48,0,1,,,,,,7,99,0,,,
56776,control_change,,48,0,1,,,,,,7,98,0,,,
56808,control_change,,32,0,1,,,,,,7,97,0,,,
56856,control_change,,48,0,1,,,,,,7,96,0,,,
56880,note_on,,24,0,1,,,,,,,,0,,58,0
56904,control_change,,24,0,1,,,,,,7,95,0,,,
56936,control_change,,32,0,1,,,,,,7,94,0,,,
56984,control_change,,48,0,1,,,,,,7,93,0,,,
57016,control_change,,32,0,1,,,,,,7,92,0,,,
57064,control_change,,48,0,1,,,,,,7,91,0,,,
57112,control_change,,48,0,1,,,,,,7,90,0,,,
57576,note_on,,464,0,1,,,,,,,,0,,45,0
57576,note_on,,0,0,1,,,,,,,,0,,52,0
57576,note_on,,0,0,1,,,,,,,,0,,69,0
57576,note_on,,0,0,1,,,,,,,,0,,57,0
57600,note_on,,24,0,1,,,,,,,,0,,69,100
57600,note_on,,0,0,1,,,,,,,,0,,65,100
57600,note_on,,0,0,1,,,,,,,,0,,57,100
57600,note_on,,3840,0,2,,,,,,,,1,,69,100
57600,note_on,,0,0,1,,,,,,,,0,,50,100
57828,note_on,,0,0,1,,,,,,,,0,,69,0
57828,note_on,,0,0,1,,,,,,,,0,,65,0
57828,note_on,,228,0,2,,,,,,,,1,,69,0
57828,note_on,,228,0,1,,,,,,,,0,,57,0
57828,note_on,,0,0,1,,,,,,,,0,,50,0
57840,note_on,,12,0,1,,,,,,,,0,,67,100
57840,note_on,,0,0,1,,,,,,,,0,,64,100
57840,note_on,,0,0,1,,,,,,,,0,,49,100
57840,note_on,,0,0,1,,,,,,,,0,,58,100
57840,note_on,,12,0,2,,,,,,,,1,,67,100
58068,note_on,,228,0,2,,,,,,,,1,,67,0
58068,note_on,,0,0,1,,,,,,,,0,,67,0
58068,note_on,,228,0,1,,,,,,,,0,,58,0
58068,note_on,,0,0,1,,,,,,,,0,,64,0
58068,note_on,,0,0,1,,,,,,,,0,,49,0
58080,note_on,,12,0,1,,,,,,,,0,,65,100
58080,note_on,,0,0,1,,,,,,,,0,,62,100
58080,note_on,,0,0,1,,,,,,,,0,,50,100
58080,note_on,,0,0,1,,,,,,,,0,,57,100
58080,note_on,,12,0,2,,,,,,,,1,,65,100
58308,note_on,,228,0,2,,,,,,,,1,,65,0
58308,note_on,,228,0,1,,,,,,,,0,,57,0
58308,note_on,,0,0,1,,,,,,,,0,,65,0
58308,note_on,,0,0,1,,,,,,,,0,,62,0
58308,note_on,,0,0,1,,,,,,,,0,,50,0
58320,note_on,,0,0,1,,,,,,,,0,,55,100
58320,note_on,,12,0,1,,,,,,,,0,,64,100
58320,note_on,,0,0,1,,,,,,,,0,,45,100
58320,note_on,,12,0,2,,,,,,,,1,,64,100
58320,note_on,,0,0,1,,,,,,,,0,,61,100
58548,note_on,,0,0,1,,,,,,,,0,,64,0
58548,note_on,,0,0,1,,,,,,,,0,,45,0
58548,note_on,,228,0,1,,,,,,,,0,,55,0
58548,note_on,,228,0,2,,,,,,,,1,,64,0
58548,note_on,,0,0,1,,,,,,,,0,,61,0
58560,note_on,,12,0,2,,,,,,,,1,,62,100
58560,note_on,,0,0,1,,,,,,,,0,,53,100
58560,note_on,,0,0,1,,,,,,,,0,,46,100
58560,note_on,,12,0,1,,,,,,,,0,,62,100
58788,note_on,,228,0,2,,,,,,,,1,,62,0
58788,note_on,,0,0,1,,,,,,,,0,,62,0
58788,note_on,,0,0,1,,,,,,,,0,,46,0
58788,note_on,,228,0,1,,,,,,,,0,,53,0
58800,note_on,,0,0,1,,,,,,,,0,,45,100
58800,note_on,,0,0,1,,,,,,,,0,,61,100
58800,note_on,,12,0,2,,,,,,,,1,,64,100
58800,note_on,,12,0,1,,,,,,,,0,,64,100
58914,note_on,,114,0,1,,,,,,,,0,,45,0
58920,note_on,,6,0,1,,,,,,,,0,,43,100
59028,note_on,,108,0,1,,,,,,,,0,,61,0
59028,note_on,,0,0,1,,,,,,,,0,,64,0
59028,note_on,,228,0,2,,,,,,,,1,,64,0
59034,note_on,,6,0,1,,,,,,,,0,,43,0
59040,note_on,,6,0,1,,,,,,,,0,,65,100
59040,note_on,,0,0,1,,,,,,,,0,,62,100
59040,note_on,,0,0,1,,,,,,,,0,,41,100
59040,note_on,,12,0,2,,,,,,,,1,,65,100
59154,note_on,,114,0,1,,,,,,,,0,,41,0
59160,note_on,,6,0,1,,,,,,,,0,,40,100
59268,note_on,,108,0,1,,,,,,,,0,,62,0
59268,note_on,,228,0,2,,,,,,,,1,,65,0
59268,note_on,,0,0,1,,,,,,,,0,,65,0
59274,note_on,,6,0,1,,,,,,,,0,,40,0
59280,note_on,,0,0,1,,,,,,,,0,,57,100
59280,note_on,,0,0,1,,,,,,,,0,,38,100
59280,note_on,,0,0,1,,,,,,,,0,,62,100
59280,note_on,,12,0,2,,,,,,,,1,,65,100
59280,note_on,,6,0,1,,,,,,,,0,,65,100
59508,note_on,,228,0,1,,,,,,,,0,,57,0
59508,note_on,,0,0,1,,,,,,,,0,,38,0
59508,note_on,,228,0,2,,,,,,,,1,,65,0
59508,note_on,,0,0,1,,,,,,,,0,,62,0
59508,note_on,,0,0,1,,,,,,,,0,,65,0
59520,note_on,,0,0,1,,,,,,,,0,,67,100
59520,note_on,,0,0,1,,,,,,,,0,,48,100
59520,note_on,,0,0,1,,,,,,,,0,,36,100
59520,note_on,,12,0,1,,,,,,,,0,,64,100
59520,note_on,,0,0,1,,,,,,,,0,,55,100
59520,note_on,,12,0,2,,,,,,,,1,,67,100
59520,note_on,,0,0,1,,,,,,,,0,,60,100
59748,note_on,,228,0,2,,,,,,,,1,,67,0
59748,note_on,,0,0,1,,,,,,,,0,,60,0
59748,note_on,,228,0,1,,,,,,,,0,,55,0
59760,note_on,,12,0,2,,,,,,,,1,,67,100
59760,note_on,,0,0,1,,,,,,,,0,,62,100
59760,note_on,,12,0,1,,,,,,,,0,,58,100
59976,note_on,,0,0,1,,,,,,,,0,,64,0
59976,note_on,,0,0,1,,,,,,,,0,,67,0
59976,note_on,,0,0,1,,,,,,,,0,,48,0
59976,note_on,,216,0,1,,,,,,,,0,,36,0
59988,note_on,,0,0,1,,,,,,,,0,,58,0
59988,note_on,,12,0,1,,,,,,,,0,,62,0
59988,note_on,,228,0,2,,,,,,,,1,,67,0
60000,note_on,,0,0,1,,,,,,,,0,,41,100
60000,note_on,,0,0,1,,,,,,,,0,,60,100
60000,note_on,,0,0,1,,,,,,,,0,,57,100
60000,note_on,,12,0,2,,,,,,,,1,,69,100
60000,note_on,,12,0,1,,,,,,,,0,,65,100
60228,note_on,,228,0,2,,,,,,,,1,,69,0
60240,note_on,,12,0,2,,,,,,,,1,,69,100
60456,note_on,,0,0,1,,,,,,,,0,,65,0
60456,note_on,,0,0,1,,,,,,,,0,,57,0
60456,note_on,,456,0,1,,,,,,,,0,,41,0
60456,note_on,,0,0,1,,,,,,,,0,,60,0
60468,note_on,,228,0,2,,,,,,,,1,,69,0
60480,note_on,,24,0,1,,,,,,,,0,,65,100
60480,note_on,,0,0,1,,,,,,,,0,,58,100
60480,note_on,,12,0,2,,,,,,,,1,,69,100
60480,note_on,,0,0,1,,,,,,,,0,,43,100
60594,note_on,,114,0,2,,,,,,,,1,,69,0
60600,note_on,,6,0,2,,,,,,,,1,,67,100
60708,note_on,,228,0,1,,,,,,,,0,,65,0
60714,note_on,,114,0,2,,,,,,,,1,,67,0
60720,note_on,,12,0,1,,,,,,,,0,,64,100
60720,note_on,,6,0,2,,,,,,,,1,,65,100
60834,note_on,,114,0,2,,,,,,,,1,,65,0
60840,note_on,,6,0,2,,,,,,,,1,,64,100
60936,note_on,,216,0,1,,,,,,,,0,,58,0
60936,note_on,,0,0,1,,,,,,,,0,,43,0
60948,note_on,,12,0,1,,,,,,,,0,,64,0
60954,note_on,,114,0,2,,,,,,,,1,,64,0
60960,note_on,,12,0,1,,,,,,,,0,,62,100
60960,note_on,,0,0,1,,,,,,,,0,,45,100
60960,note_on,,0,0,1,,,,,,,,0,,57,100
60960,note_on,,6,0,2,,,,,,,,1,,62,100
61188,note_on,,228,0,2,,,,,,,,1,,62,0
61188,note_on,,228,0,1,,,,,,,,0,,62,0
61200,note_on,,12,0,1,,,,,,,,0,,61,100
61200,note_on,,12,0,2,,,,,,,,1,,61,100
61416,note_on,,216,0,1,,,,,,,,0,,57,0
61416,note_on,,0,0,1,,,,,,,,0,,45,0
61428,note_on,,12,0,1,,,,,,,,0,,61,0
61428,note_on,,228,0,2,,,,,,,,1,,61,0
61440,note_on,,12,0,2,,,,,,,,1,,69,100
61440,note_on,,0,0,1,,,,,,,,0,,41,100
61440,note_on,,0,0,1,,,,,,,,0,,48,100
61440,note_on,,0,0,1,,,,,,,,0,,53,100
61440,note_on,,12,0,1,,,,,,,,0,,60,100
61440,note_on,,0,0,1,,,,,,,,0,,57,100
61536,control_change,,96,0,2,,,,,,7,96,1,,,
61668,note_on,,132,0,2,,,,,,,,1,,69,0
61680,note_on,,12,0,2,,,,,,,,1,,67,100
61728,control_change,,48,0,2,,,,,,7,97,1,,,
61896,note_on,,0,0,1,,,,,,,,0,,57,0
61896,note_on,,0,0,1,,,,,,,,0,,60,0
61896,note_on,,0,0,1,,,,,,,,0,,53,0
61896,note_on,,0,0,1,,,,,,,,0,,48,0
61896,note_on,,456,0,1,,,,,,,,0,,41,0
61908,note_on,,180,0,2,,,,,,,,1,,67,0
61920,note_on,,0,0,1,,,,,,,,0,,53,100
61920,note_on,,0,0,1,,,,,,,,0,,57,100
61920,note_on,,0,0,1,,,,,,,,0,,60,100
61920,note_on,,0,0,1,,,,,,,,0,,48,100
61920,note_on,,24,0,1,,,,,,,,0,,41,100
61920,note_on,,0,0,2,,,,,,,,1,,65,100
61920,control_change,,12,0,2,,,,,,7,98,1,,,
62096,control_change,,176,0,2,,,,,,7,99,1,,,
62148,note_on,,0,0,1,,,,,,,,0,,57,0
62148,note_on,,0,0,1,,,,,,,,0,,60,0
62148,note_on,,52,0,2,,,,,,,,1,,65,0
62148,note_on,,228,0,1,,,,,,,,0,,53,0
62148,note_on,,0,0,1,,,,,,,,0,,41,0
62148,note_on,,0,0,1,,,,,,,,0,,48,0
62160,note_on,,12,0,1,,,,,,,,0,,48,100
62160,note_on,,0,0,1,,,,,,,,0,,41,100
62160,note_on,,0,0,1,,,,,,,,0,,57,100
62160,note_on,,0,0,1,,,,,,,,0,,60,100
62160,note_on,,12,0,2,,,,,,,,1,,64,100
62288,control_change,,128,0,2,,,,,,7,100,1,,,
62388,note_on,,100,0,2,,,,,,,,1,,64,0
62388,note_on,,228,0,1,,,,,,,,0,,60,0
62388,note_on,,0,0,1,,,,,,,,0,,57,0
62388,note_on,,0,0,1,,,,,,,,0,,48,0
62388,note_on,,0,0,1,,,,,,,,0,,41,0
62400,note_on,,0,0,1,,,,,,,,0,,60,100
62400,note_on,,0,0,1,,,,,,,,0,,48,100
62400,note_on,,0,0,1,,,,,,,,0,,41,100
62400,note_on,,12,0,2,,,,,,,,1,,62,100
62400,note_on,,12,0,1,,,,,,,,0,,58,100
62464,control_change,,64,0,2,,,,,,7,101,1,,,
62628,note_on,,228,0,1,,,,,,,,0,,41,0
62628,note_on,,0,0,1,,,,,,,,0,,48,0
62628,note_on,,0,0,1,,,,,,,,0,,60,0
62628,note_on,,0,0,1,,,,,,,,0,,58,0
62628,note_on,,164,0,2,,,,,,,,1,,62,0
62640,note_on,,12,0,2,,,,,,,,1,,64,100
62640,note_on,,0,0,1,,,,,,,,0,,55,100
62640,note_on,,0,0,1,,,,,,,,0,,41,100
62640,note_on,,0,0,1,,,,,,,,0,,58,100
62640,note_on,,12,0,1,,,,,,,,0,,60,100
62656,control_change,,16,0,2,,,,,,7,102,1,,,
62848,control_change,,192,0,2,,,,,,7,103,1,,,
62868,note_on,,0,0,1,,,,,,,,0,,60,0
62868,note_on,,0,0,1,,,,,,,,0,,55,0
62868,note_on,,228,0,1,,,,,,,,0,,41,0
62868,note_on,,20,0,2,,,,,,,,1,,64,0
62868,note_on,,0,0,1,,,,,,,,0,,58,0
62880,note_on,,12,0,2,,,,,,,,1,,65,100
62880,note_on,,12,0,1,,,,,,,,0,,60,100
62880,note_on,,0,0,1,,,,,,,,0,,41,100
62880,note_on,,0,0,1,,,,,,,,0,,53,100
62880,note_on,,0,0,1,,,,,,,,0,,57,100
63024,control_change,,144,0,2,,,,,,7,104,1,,,
63108,note_on,,0,0,1,,,,,,,,0,,57,0
63108,note_on,,0,0,1,,,,,,,,0,,53,0
63108,note_on,,228,0,1,,,,,,,,0,,41,0
63108,note_on,,84,0,2,,,,,,,,1,,65,0
63108,note_on,,0,0,1,,,,,,,,0,,60,0
63120,note_on,,12,0,2,,,,,,,,1,,67,100
63216,control_change,,96,0,2,,,,,,7,105,1,,,
63348,note_on,,132,0,2,,,,,,,,1,,67,0
63360,note_on,,0,0,1,,,,,,,,0,,57,100
63360,note_on,,252,0,1,,,,,,,,0,,61,100
63360,note_on,,0,0,1,,,,,,,,0,,52,100
63360,note_on,,0,0,1,,,,,,,,0,,45,100
63360,note_on,,12,0,2,,,,,,,,1,,64,100
63408,control_change,,48,0,2,,,,,,7,106,1,,,
63584,control_change,,176,0,2,,,,,,7,107,1,,,
63588,note_on,,4,0,2,,,,,,,,1,,64,0
63600,note_on,,12,0,2,,,,,,,,1,,65,100
63714,note_on,,114,0,2,,,,,,,,1,,65,0
63720,note_on,,6,0,2,,,,,,,,1,,64,100
63776,control_change,,56,0,2,,,,,,7,108,1,,,
63816,note_on,,0,0,1,,,,,,,,0,,61,0
63816,note_on,,0,0,1,,,,,,,,0,,57,0
63816,note_on,,0,0,1,,,,,,,,0,,52,0
63816,note_on,,456,0,1,,,,,,,,0,,45,0
63834,note_on,,58,0,2,,,,,,,,1,,64,0
63840,note_on,,6,0,2,,,,,,,,1,,62,100
63840,note_on,,0,0,1,,,,,,,,0,,57,100
63840,note_on,,24,0,1,,,,,,,,0,,62,100
63840,note_on,,0,0,1,,,,,,,,0,,53,100
63840,note_on,,0,0,1,,,,,,,,0,,45,100
63952,control_change,,112,0,2,,,,,,7,109,1,,,
64068,note_on,,116,0,2,,,,,,,,1,,62,0
64080,note_on,,12,0,2,,,,,,,,1,,65,100
64144,control_change,,64,0,2,,,,,,7,110,1,,,
64194,note_on,,50,0,2,,,,,,,,1,,65,0
64200,note_on,,6,0,2,,,,,,,,1,,67,100
64296,note_on,,456,0,1,,,,,,,,0,,45,0
64296,note_on,,0,0,1,,,,,,,,0,,53,0
64296,note_on,,0,0,1,,,,,,,,0,,57,0
64296,note_on,,0,0,1,,,,,,,,0,,62,0
64314,note_on,,114,0,2,,,,,,,,1,,67,0
64320,note_on,,6,0,2,,,,,,,,1,,69,100
64320,note_on,,0,0,1,,,,,,,,0,,52,100
64320,note_on,,0,0,1,,,,,,,,0,,61,100
64320,note_on,,0,0,1,,,,,,,,0,,57,100
64320,note_on,,24,0,1,,,,,,,,0,,45,100
64336,control_change,,16,0,2,,,,,,7,111,1,,,
64512,control_change,,176,0,2,,,,,,7,112,1,,,
64548,note_on,,36,0,2,,,,,,,,1,,69,0
64548,note_on,,0,0,1,,,,,,,,0,,57,0
64548,note_on,,0,0,1,,,,,,,,0,,45,0
64548,note_on,,228,0,1,,,,,,,,0,,52,0
64560,note_on,,12,0,1,,,,,,,,0,,43,100
64560,note_on,,0,0,1,,,,,,,,0,,52,100
64560,note_on,,0,0,1,,,,,,,,0,,58,100
64560,note_on,,12,0,2,,,,,,,,1,,64,100
64704,control_change,,144,0,2,,,,,,7,113,1,,,
64776,note_on,,216,0,1,,,,,,,,0,,61,0
64788,note_on,,0,0,1,,,,,,,,0,,43,0
64788,note_on,,84,0,2,,,,,,,,1,,64,0
64788,note_on,,12,0,1,,,,,,,,0,,58,0
64788,note_on,,0,0,1,,,,,,,,0,,52,0
64800,note_on,,0,0,1,,,,,,,,0,,53,100
64800,note_on,,12,0,1,,,,,,,,0,,62,100
64800,note_on,,0,0,1,,,,,,,,0,,57,100
64800,note_on,,0,0,1,,,,,,,,0,,41,100
64800,note_on,,12,0,2,,,,,,,,1,,69,100
64896,control_change,,96,0,2,,,,,,7,114,1,,,
65028,note_on,,132,0,2,,,,,,,,1,,69,0
65040,note_on,,12,0,2,,,,,,,,1,,65,100
65072,control_change,,32,0,2,,,,,,7,115,1,,,
65256,note_on,,0,0,1,,,,,,,,0,,57,0
65256,note_on,,456,0,1,,,,,,,,0,,41,0
65256,note_on,,0,0,1,,,,,,,,0,,62,0
65256,note_on,,0,0,1,,,,,,,,0,,53,0
65268,note_on,,196,0,2,,,,,,,,1,,65,0
65280,note_on,,12,0,2,,,,,,,,1,,67,100
65328,control_change,,48,0,2,,,,,,7,114,1,,,
65392,control_change,,64,0,2,,,,,,7,113,1,,,
65456,control_change,,64,0,2,,,,,,7,112,1,,,
65508,note_on,,52,0,2,,,,,,,,1,,67,0
65520,control_change,,12,0,2,,,,,,7,111,1,,,
65520,note_on,,0,0,2,,,,,,,,1,,65,100
65520,note_on,,264,0,1,,,,,,,,0,,40,100
65520,note_on,,0,0,1,,,,,,,,0,,55,100
65520,note_on,,0,0,1,,,,,,,,0,,58,100
65520,note_on,,0,0,1,,,,,,,,0,,61,100
65584,control_change,,64,0,2,,,,,,7,110,1,,,
65634,note_on,,50,0,2,,,,,,,,1,,65,0
65640,note_on,,6,0,2,,,,,,,,1,,64,100
65648,control_change,,8,0,2,,,,,,7,109,1,,,
65712,control_change,,64,0,2,,,,,,7,108,1,,,
65748,note_on,,228,0,1,,,,,,,,0,,61,0
65748,note_on,,0,0,1,,,,,,,,0,,58,0
65748,note_on,,0,0,1,,,,,,,,0,,40,0
65748,note_on,,0,0,1,,,,,,,,0,,55,0
65754,note_on,,42,0,2,,,,,,,,1,,64,0
65760,note_on,,0,0,1,,,,,,,,0,,57,100
65760,note_on,,12,0,1,,,,,,,,0,,41,100
65760,note_on,,6,0,2,,,,,,,,1,,62,100
65760,note_on,,0,0,1,,,,,,,,0,,62,100
65776,control_change,,16,0,2,,,,,,7,107,1,,,
65856,control_change,,80,0,2,,,,,,7,106,1,,,
65920,control_change,,64,0,2,,,,,,7,105,1,,,
65984,control_change,,64,0,2,,,,,,7,104,1,,,
65988,note_on,,4,0,2,,,,,,,,1,,62,0
65988,note_on,,0,0,1,,,,,,,,0,,41,0
65988,note_on,,228,0,1,,,,,,,,0,,57,0
66000,note_on,,0,0,1,,,,,,,,0,,58,100
66000,note_on,,12,0,1,,,,,,,,0,,43,100
66000,note_on,,12,0,2,,,,,,,,1,,70,100
66048,control_change,,48,0,2,,,,,,7,103,1,,,
66112,control_change,,64,0,2,,,,,,7,102,1,,,
66176,control_change,,64,0,2,,,,,,7,101,1,,,
66216,note_on,,216,0,1,,,,,,,,0,,62,0
66228,note_on,,52,0,2,,,,,,,,1,,70,0
66228,note_on,,0,0,1,,,,,,,,0,,43,0
66228,note_on,,12,0,1,,,,,,,,0,,58,0
66240,note_on,,12,0,1,,,,,,,,0,,45,100
66240,note_on,,0,0,1,,,,,,,,0,,57,100
66240,note_on,,0,0,1,,,,,,,,0,,52,100
66240,note_on,,0,0,1,,,,,,,,0,,62,100
66240,control_change,,12,0,2,,,,,,7,100,1,,,
66240,note_on,,0,0,2,,,,,,,,1,,69,100
66304,control_change,,64,0,2,,,,,,7,99,1,,,
66354,note_on,,50,0,2,,,,,,,,1,,69,0
66360,note_on,,6,0,2,,,,,,,,1,,67,100
66384,control_change,,24,0,2,,,,,,7,98,1,,,
66448,control_change,,64,0,2,,,,,,7,97,1,,,
66468,note_on,,228,0,1,,,,,,,,0,,62,0
66474,note_on,,26,0,2,,,,,,,,1,,67,0
66480,note_on,,6,0,2,,,,,,,,1,,65,100
66480,note_on,,12,0,1,,,,,,,,0,,61,100
66512,control_change,,32,0,2,,,,,,7,96,1,,,
66576,control_change,,64,0,2,,,,,,7,95,1,,,
66594,note_on,,18,0,2,,,,,,,,1,,65,0
66600,note_on,,6,0,2,,,,,,,,1,,64,100
66696,note_on,,216,0,1,,,,,,,,0,,52,0
66696,note_on,,0,0,1,,,,,,,,0,,57,0
66696,note_on,,0,0,1,,,,,,,,0,,45,0
66708,note_on,,12,0,1,,,,,,,,0,,61,0
66714,note_on,,114,0,2,,,,,,,,1,,64,0
66720,note_on,,0,0,2,,,,,,,,1,,64,100
66720,control_change,,6,0,2,,,,,,7,105,1,,,
66720,note_on,,0,0,1,,,,,,,,0,,53,100
66720,note_on,,12,0,1,,,,,,,,0,,38,100
66720,note_on,,0,0,1,,,,,,,,0,,57,100
66720,note_on,,0,0,1,,,,,,,,0,,62,100
66752,control_change,,32,0,2,,,,,,7,104,1,,,
66784,control_change,,32,0,2,,,,,,7,103,1,,,
66816,control_change,,32,0,2,,,,,,7,102,1,,,
66848,control_change,,32,0,2,,,,,,7,101,1,,,
66896,control_change,,48,0,2,,,,,,7,100,1,,,
66928,control_change,,32,0,2,,,,,,7,99,1,,,
66948,note_on,,20,0,2,,,,,,,,1,,64,0
66960,control_change,,12,0,2,,,,,,7,98,1,,,
66960,note_on,,0,0,2,,,,,,,,1,,62,100
66992,control_change,,32,0,2,,,,,,7,97,1,,,
67040,control_change,,48,0,2,,,,,,7,96,1,,,
67072,control_change,,32,0,2,,,,,,7,95,1,,,
67176,note_on,,0,0,1,,,,,,,,0,,38,0
67176,note_on,,0,0,1,,,,,,,,0,,57,0
67176,note_on,,0,0,1,,,,,,,,0,,62,0
67176,note_on,,456,0,1,,,,,,,,0,,53,0
67188,note_on,,116,0,2,,,,,,,,1,,62,0
67200,key_signature,,12,1,2,,,,,F,,,,,,
67200,control_change,,24,0,1,,,,,,7,102,0,,,
67200,note_on,,0,0,1,,,,,,,,0,,81,100
67200,note_on,,0,0,1,,,,,,,,0,,69,100
67200,key_signature,,0,1,1,,,,,F,,,,,,
67428,note_on,,228,0,1,,,,,,,,0,,81,0
67428,note_on,,0,0,1,,,,,,,,0,,69,0
67440,note_on,,0,0,1,,,,,,,,0,,65,100
67440,note_on,,0,0,1,,,,,,,,0,,62,100
67440,note_on,,12,0,1,,,,,,,,0,,74,100
67668,note_on,,0,0,1,,,,,,,,0,,74,0
67668,note_on,,0,0,1,,,,,,,,0,,62,0
67668,note_on,,228,0,1,,,,,,,,0,,65,0
67680,note_on,,0,0,1,,,,,,,,0,,64,100
67680,note_on,,0,0,1,,,,,,,,0,,57,100
67680,note_on,,12,0,1,,,,,,,,0,,76,100
67908,note_on,,0,0,1,,,,,,,,0,,64,0
67908,note_on,,228,0,1,,,,,,,,0,,57,0
67908,note_on,,0,0,1,,,,,,,,0,,76,0
67920,note_on,,12,0,1,,,,,,,,0,,69,100
68130,note_on,,210,0,1,,,,,,,,0,,69,100
68148,note_on,,18,0,1,,,,,,,,0,,69,0
68160,note_on,,12,0,1,,,,,,,,0,,55,100
68160,note_on,,0,0,1,,,,,,,,0,,67,100
68274,note_on,,0,0,1,,,,,,,,0,,55,0
68274,note_on,,114,0,1,,,,,,,,0,,67,0
68280,note_on,,6,0,1,,,,,,,,0,,53,100
68280,note_on,,0,0,1,,,,,,,,0,,65,100
68394,note_on,,114,0,1,,,,,,,,0,,65,0
68394,note_on,,0,0,1,,,,,,,,0,,53,0
68400,note_on,,0,0,1,,,,,,,,0,,52,100
68400,note_on,,0,0,1,,,,,,,,0,,64,100
68400,note_on,,6,0,1,,,,,,,,0,,69,0
68514,note_on,,114,0,1,,,,,,,,0,,64,0
68514,note_on,,0,0,1,,,,,,,,0,,52,0
68520,note_on,,6,0,1,,,,,,,,0,,50,100
68520,note_on,,0,0,1,,,,,,,,0,,62,100
68634,note_on,,114,0,1,,,,,,,,0,,62,0
68634,note_on,,0,0,1,,,,,,,,0,,50,0
68640,note_on,,6,0,1,,,,,,,,0,,52,100
68640,note_on,,0,0,1,,,,,,,,0,,64,100
68868,note_on,,0,0,1,,,,,,,,0,,52,0
68868,note_on,,228,0,1,,,,,,,,0,,64,0
68880,note_on,,12,0,1,,,,,,,,0,,45,100
68880,note_on,,0,0,1,,,,,,,,0,,57,100
68928,control_change,,48,0,1,,,,,,7,103,0,,,
69024,control_change,,96,0,1,,,,,,7,104,0,,,
69108,note_on,,84,0,1,,,,,,,,0,,45,0
69120,note_on,,0,0,1,,,,,,,,0,,61,100
69120,note_on,,0,0,1,,,,,,,,0,,69,100
69120,note_on,,0,0,1,,,,,,,,0,,45,100
69120,control_change,,12,0,1,,,,,,7,105,0,,,
69120,note_on,,0,0,1,,,,,,,,0,,52,100
69200,control_change,,80,0,1,,,,,,7,106,0,,,
69296,control_change,,96,0,1,,,,,,7,107,0,,,
69376,control_change,,80,0,1,,,,,,7,108,0,,,
69472,control_change,,96,0,1,,,,,,7,109,0,,,
69564,note_on,,92,0,1,,,,,,,,0,,57,0
69568,control_change,,4,0,1,,,,,,7,110,0,,,
69576,note_on,,8,0,1,,,,,,,,0,,52,0
69576,note_on,,0,0,1,,,,,,,,0,,61,0
69576,note_on,,0,0,1,,,,,,,,0,,69,0
69576,note_on,,0,0,1,,,,,,,,0,,45,0
69600,note_on,,0,0,1,,,,,,,,0,,62,100
69600,note_on,,0,0,1,,,,,,,,0,,69,100
69600,note_on,,24,0,1,,,,,,,,0,,50,100
69752,control_change,,152,0,1,,,,,,7,109,0,,,
69784,control_change,,32,0,1,,,,,,7,108,0,,,
69828,note_on,,44,0,1,,,,,,,,0,,62,0
69832,control_change,,4,0,1,,,,,,7,107,0,,,
69840,note_on,,8,0,1,,,,,,,,0,,58,100
69880,control_change,,40,0,1,,,,,,7,106,0,,,
69912,control_change,,32,0,1,,,,,,7,105,0,,,
69960,control_change,,48,0,1,,,,,,7,104,0,,,
70008,control_change,,48,0,1,,,,,,7,103,0,,,
70020,note_on,,12,0,1,,,,,,,,0,,60,100
70040,control_change,,20,0,1,,,,,,7,102,0,,,
70048,note_on,,8,0,1,,,,,,,,0,,60,0
70050,note_on,,2,0,1,,,,,,,,0,,58,100
70056,note_on,,6,0,1,,,,,,,,0,,69,0
70056,note_on,,0,0,1,,,,,,,,0,,50,0
70068,note_on,,12,0,1,,,,,,,,0,,58,0
70080,note_on,,12,0,1,,,,,,,,0,,57,100
70080,note_on,,0,0,1,,,,,,,,0,,69,100
70080,note_on,,0,0,1,,,,,,,,0,,52,100
70080,note_on,,0,0,1,,,,,,,,0,,45,100
70088,control_change,,8,0,1,,,,,,7,101,0,,,
70120,control_change,,32,0,1,,,,,,7,100,0,,,
70168,control_change,,48,0,1,,,,,,7,99,0,,,
70216,control_change,,48,0,1,,,,,,7,98,0,,,
70248,control_change,,32,0,1,,,,,,7,97,0,,,
70296,control_change,,48,0,1,,,,,,7,96,0,,,
70320,note_on,,24,0,1,,,,,,,,0,,58,0
70344,control_change,,24,0,1,,,,,,7,95,0,,,
70376,control_change,,32,0,1,,,,,,7,94,0,,,
70424,control_change,,48,0,1,,,,,,7,93,0,,,
70456,control_change,,32,0,1,,,,,,7,92,0,,,
70504,control_change,,48,0,1,,,,,,7,91,0,,,
70552,control_change,,48,0,1,,,,,,7,90,0,,,
71016,note_on,,464,0,1,,,,,,,,0,,45,0
71016,note_on,,0,0,1,,,,,,,,0,,52,0
71016,note_on,,0,0,1,,,,,,,,0,,69,0
71016,note_on,,0,0,1,,,,,,,,0,,57,0
71040,note_on,,3840,0,2,,,,,,,,1,,69,100
71040,note_on,,0,0,1,,,,,,,,0,,57,100
71040,note_on,,0,0,1,,,,,,,,0,,50,100
71040,note_on,,0,0,1,,,,,,,,0,,65,100
71040,note_on,,24,0,1,,,,,,,,0,,69,100
71268,note_on,,228,0,1,,,,,,,,0,,57,0
71268,note_on,,228,0,2,,,,,,,,1,,69,0
71268,note_on,,0,0,1,,,,,,,,0,,50,0
71268,note_on,,0,0,1,,,,,,,,0,,65,0
71268,note_on,,0,0,1,,,,,,,,0,,69,0
71280,note_on,,12,0,2,,,,,,,,1,,67,100
71280,note_on,,12,0,1,,,,,,,,0,,67,100
71280,note_on,,0,0,1,,,,,,,,0,,64,100
71280,note_on,,0,0,1,,,,,,,,0,,49,100
71280,note_on,,0,0,1,,,,,,,,0,,58,100
71508,note_on,,0,0,1,,,,,,,,0,,64,0
71508,note_on,,228,0,2,,,,,,,,1,,67,0
71508,note_on,,228,0,1,,,,,,,,0,,58,0
71508,note_on,,0,0,1,,,,,,,,0,,49,0
71508,note_on,,0,0,1,,,,,,,,0,,67,0
71520,note_on,,12,0,1,,,,,,,,0,,65,100
71520,note_on,,0,0,1,,,,,,,,0,,62,100
71520,note_on,,0,0,1,,,,,,,,0,,57,100
71520,note_on,,0,0,1,,,,,,,,0,,50,100
71520,note_on,,12,0,2,,,,,,,,1,,65,100
71748,note_on,,228,0,2,,,,,,,,1,,65,0
71748,note_on,,0,0,1,,,,,,,,0,,62,0
71748,note_on,,0,0,1,,,,,,,,0,,65,0
71748,note_on,,0,0,1,,,,,,,,0,,50,0
71748,note_on,,228,0,1,,,,,,,,0,,57,0
71760,note_on,,12,0,2,,,,,,,,1,,64,100
71760,note_on,,12,0,1,,,,,,,,0,,64,100
71760,note_on,,0,0,1,,,,,,,,0,,61,100
71760,note_on,,0,0,1,,,,,,,,0,,45,100
71760,note_on,,0,0,1,,,,,,,,0,,55,100
71988,note_on,,228,0,1,,,,,,,,0,,55,0
71988,note_on,,228,0,2,,,,,,,,1,,64,0
71988,note_on,,0,0,1,,,,,,,,0,,45,0
71988,note_on,,0,0,1,,,,,,,,0,,61,0
71988,note_on,,0,0,1,,,,,,,,0,,64,0
72000,note_on,,0,0,1,,,,,,,,0,,46,100
72000,note_on,,12,0,1,,,,,,,,0,,62,100
72000,note_on,,0,0,1,,,,,,,,0,,53,100
72000,note_on,,12,0,2,,,,,,,,1,,62,100
72228,note_on,,228,0,1,,,,,,,,0,,53,0
72228,note_on,,0,0,1,,,,,,,,0,,62,0
72228,note_on,,228,0,2,,,,,,,,1,,62,0
72228,note_on,,0,0,1,,,,,,,,0,,46,0
72240,note_on,,0,0,1,,,,,,,,0,,61,100
72240,note_on,,12,0,1,,,,,,,,0,,64,100
72240,note_on,,0,0,1,,,,,,,,0,,45,100
72240,note_on,,12,0,2,,,,,,,,1,,64,100
72354,note_on,,114,0,1,,,,,,,,0,,45,0
72360,note_on,,6,0,1,,,,,,,,0,,43,100
72468,note_on,,108,0,1,,,,,,,,0,,61,0
72468,note_on,,0,0,1,,,,,,,,0,,64,0
72468,note_on,,228,0,2,,,,,,,,1,,64,0
72474,note_on,,6,0,1,,,,,,,,0,,43,0
72480,note_on,,6,0,1,,,,,,,,0,,65,100
72480,note_on,,0,0,1,,,,,,,,0,,62,100
72480,note_on,,0,0,1,,,,,,,,0,,41,100
72480,note_on,,12,0,2,,,,,,,,1,,65,100
72594,note_on,,114,0,1,,,,,,,,0,,41,0
72600,note_on,,6,0,1,,,,,,,,0,,40,100
72708,note_on,,228,0,2,,,,,,,,1,,65,0
72708,note_on,,108,0,1,,,,,,,,0,,62,0
72708,note_on,,0,0,1,,,,,,,,0,,65,0
72714,note_on,,6,0,1,,,,,,,,0,,40,0
72720,note_on,,0,0,1,,,,,,,,0,,57,100
72720,note_on,,12,0,2,,,,,,,,1,,65,100
72720,note_on,,6,0,1,,,,,,,,0,,65,100
72720,note_on,,0,0,1,,,,,,,,0,,62,100
72720,note_on,,0,0,1,,,,,,,,0,,38,100
72948,note_on,,228,0,2,,,,,,,,1,,65,0
72948,note_on,,0,0,1,,,,,,,,0,,62,0
72948,note_on,,228,0,1,,,,,,,,0,,57,0
72948,note_on,,0,0,1,,,,,,,,0,,38,0
72948,note_on,,0,0,1,,,,,,,,0,,65,0
72960,note_on,,12,0,1,,,,,,,,0,,64,100
72960,note_on,,0,0,1,,,,,,,,0,,67,100
72960,note_on,,0,0,1,,,,,,,,0,,48,100
72960,note_on,,0,0,1,,,,,,,,0,,36,100
72960,note_on,,0,0,1,,,,,,,,0,,60,100
72960,note_on,,0,0,1,,,,,,,,0,,55,100
72960,note_on,,12,0,2,,,,,,,,1,,67,100
73188,note_on,,0,0,1,,,,,,,,0,,60,0
73188,note_on,,228,0,2,,,,,,,,1,,67,0
73188,note_on,,228,0,1,,,,,,,,0,,55,0
73200,note_on,,12,0,1,,,,,,,,0,,58,100
73200,note_on,,0,0,1,,,,,,,,0,,62,100
73200,note_on,,12,0,2,,,,,,,,1,,67,100
73416,note_on,,216,0,1,,,,,,,,0,,36,0
73416,note_on,,0,0,1,,,,,,,,0,,67,0
73416,note_on,,0,0,1,,,,,,,,0,,64,0
73416,note_on,,0,0,1,,,,,,,,0,,48,0
73428,note_on,,12,0,1,,,,,,,,0,,62,0
73428,note_on,,0,0,1,,,,,,,,0,,58,0
73428,note_on,,228,0,2,,,,,,,,1,,67,0
73440,note_on,,12,0,2,,,,,,,,1,,69,100
73440,note_on,,12,0,1,,,,,,,,0,,65,100
73440,note_on,,0,0,1,,,,,,,,0,,60,100
73440,note_on,,0,0,1,,,,,,,,0,,41,100
73440,note_on,,0,0,1,,,,,,,,0,,57,100
73668,note_on,,228,0,2,,,,,,,,1,,69,0
73680,note_on,,12,0,2,,,,,,,,1,,69,100
73896,note_on,,0,0,1,,,,,,,,0,,57,0
73896,note_on,,0,0,1,,,,,,,,0,,65,0
73896,note_on,,456,0,1,,,,,,,,0,,41,0
73896,note_on,,0,0,1,,,,,,,,0,,60,0
73908,note_on,,228,0,2,,,,,,,,1,,69,0
73920,note_on,,24,0,1,,,,,,,,0,,65,100
73920,note_on,,0,0,1,,,,,,,,0,,43,100
73920,note_on,,0,0,1,,,,,,,,0,,58,100
73920,note_on,,12,0,2,,,,,,,,1,,69,100
74034,note_on,,114,0,2,,,,,,,,1,,69,0
74040,note_on,,6,0,2,,,,,,,,1,,67,100
74148,note_on,,228,0,1,,,,,,,,0,,65,0
74154,note_on,,114,0,2,,,,,,,,1,,67,0
74160,note_on,,12,0,1,,,,,,,,0,,64,100
74160,note_on,,6,0,2,,,,,,,,1,,65,100
74274,note_on,,114,0,2,,,,,,,,1,,65,0
74280,note_on,,6,0,2,,,,,,,,1,,64,100
74376,note_on,,0,0,1,,,,,,,,0,,43,0
74376,note_on,,216,0,1,,,,,,,,0,,58,0
74388,note_on,,12,0,1,,,,,,,,0,,64,0
74394,note_on,,114,0,2,,,,,,,,1,,64,0
74400,note_on,,0,0,1,,,,,,,,0,,45,100
74400,note_on,,12,0,1,,,,,,,,0,,62,100
74400,note_on,,6,0,2,,,,,,,,1,,62,100
74400,note_on,,0,0,1,,,,,,,,0,,57,100
74628,note_on,,228,0,2,,,,,,,,1,,62,0
74628,note_on,,228,0,1,,,,,,,,0,,62,0
74640,note_on,,12,0,2,,,,,,,,1,,61,100
74640,note_on,,12,0,1,,,,,,,,0,,61,100
74856,note_on,,0,0,1,,,,,,,,0,,45,0
74856,note_on,,216,0,1,,,,,,,,0,,57,0
74868,note_on,,12,0,1,,,,,,,,0,,61,0
74868,note_on,,228,0,2,,,,,,,,1,,61,0
74880,note_on,,12,0,2,,,,,,,,1,,69,100
74880,note_on,,12,0,1,,,,,,,,0,,60,100
74880,note_on,,0,0,1,,,,,,,,0,,57,100
74880,note_on,,0,0,1,,,,,,,,0,,53,100
74880,note_on,,0,0,1,,,,,,,,0,,48,100
74880,note_on,,0,0,1,,,,,,,,0,,41,100
74976,control_change,,96,0,2,,,,,,7,96,1,,,
75108,note_on,,132,0,2,,,,,,,,1,,69,0
75120,note_on,,12,0,2,,,,,,,,1,,67,100
75168,control_change,,48,0,2,,,,,,7,97,1,,,
75336,note_on,,456,0,1,,,,,,,,0,,41,0
75336,note_on,,0,0,1,,,,,,,,0,,53,0
75336,note_on,,0,0,1,,,,,,,,0,,48,0
75336,note_on,,0,0,1,,,,,,,,0,,57,0
75336,note_on,,0,0,1,,,,,,,,0,,60,0
75348,note_on,,180,0,2,,,,,,,,1,,67,0
75360,control_change,,12,0,2,,,,,,7,98,1,,,
75360,note_on,,0,0,1,,,,,,,,0,,53,100
75360,note_on,,0,0,2,,,,,,,,1,,65,100
75360,note_on,,0,0,1,,,,,,,,0,,57,100
75360,note_on,,0,0,1,,,,,,,,0,,60,100
75360,note_on,,0,0,1,,,,,,,,0,,48,100
75360,note_on,,24,0,1,,,,,,,,0,,41,100
75536,control_change,,176,0,2,,,,,,7,99,1,,,
75588,note_on,,52,0,2,,,,,,,,1,,65,0
75588,note_on,,228,0,1,,,,,,,,0,,53,0
75588,note_on,,0,0,1,,,,,,,,0,,57,0
75588,note_on,,0,0,1,,,,,,,,0,,60,0
75588,note_on,,0,0,1,,,,,,,,0,,48,0
75588,note_on,,0,0,1,,,,,,,,0,,41,0
75600,note_on,,0,0,1,,,,,,,,0,,57,100
75600,note_on,,12,0,2,,,,,,,,1,,64,100
75600,note_on,,12,0,1,,,,,,,,0,,48,100
75600,note_on,,0,0,1,,,,,,,,0,,41,100
75600,note_on,,0,0,1,,,,,,,,0,,60,100
75728,control_change,,128,0,2,,,,,,7,100,1,,,
75828,note_on,,228,0,1,,,,,,,,0,,60,0
75828,note_on,,0,0,1,,,,,,,,0,,57,0
75828,note_on,,0,0,1,,,,,,,,0,,41,0
75828,note_on,,0,0,1,,,,,,,,0,,48,0
75828,note_on,,100,0,2,,,,,,,,1,,64,0
75840,note_on,,12,0,2,,,,,,,,1,,62,100
75840,note_on,,12,0,1,,,,,,,,0,,58,100
75840,note_on,,0,0,1,,,,,,,,0,,60,100
75840,note_on,,0,0,1,,,,,,,,0,,48,100
75840,note_on,,0,0,1,,,,,,,,0,,41,100
75904,control_change,,64,0,2,,,,,,7,101,1,,,
76068,note_on,,228,0,1,,,,,,,,0,,41,0
76068,note_on,,164,0,2,,,,,,,,1,,62,0
76068,note_on,,0,0,1,,,,,,,,0,,58,0
76068,note_on,,0,0,1,,,,,,,,0,,60,0
76068,note_on,,0,0,1,,,,,,,,0,,48,0
76080,note_on,,12,0,2,,,,,,,,1,,64,100
76080,note_on,,0,0,1,,,,,,,,0,,41,100
76080,note_on,,0,0,1,,,,,,,,0,,55,100
76080,note_on,,0,0,1,,,,,,,,0,,58,100
76080,note_on,,12,0,1,,,,,,,,0,,60,100
76096,control_change,,16,0,2,,,,,,7,102,1,,,
76288,control_change,,192,0,2,,,,,,7,103,1,,,
76308,note_on,,228,0,1,,,,,,,,0,,41,0
76308,note_on,,0,0,1,,,,,,,,0,,55,0
76308,note_on,,0,0,1,,,,,,,,0,,58,0
76308,note_on,,0,0,1,,,,,,,,0,,60,0
76308,note_on,,20,0,2,,,,,,,,1,,64,0
76320,note_on,,12,0,2,,,,,,,,1,,65,100
76320,note_on,,12,0,1,,,,,,,,0,,60,100
76320,note_on,,0,0,1,,,,,,,,0,,57,100
76320,note_on,,0,0,1,,,,,,,,0,,53,100
76320,note_on,,0,0,1,,,,,,,,0,,41,100
76464,control_change,,144,0,2,,,,,,7,104,1,,,
76548,note_on,,0,0,1,,,,,,,,0,,60,0
76548,note_on,,0,0,1,,,,,,,,0,,57,0
76548,note_on,,0,0,1,,,,,,,,0,,53,0
76548,note_on,,228,0,1,,,,,,,,0,,41,0
76548,note_on,,84,0,2,,,,,,,,1,,65,0
76560,note_on,,12,0,2,,,,,,,,1,,67,100
76656,control_change,,96,0,2,,,,,,7,105,1,,,
76788,note_on,,132,0,2,,,,,,,,1,,67,0
76800,note_on,,252,0,1,,,,,,,,0,,61,100
76800,note_on,,0,0,1,,,,,,,,0,,57,100
76800,note_on,,0,0,1,,,,,,,,0,,52,100
76800,note_on,,0,0,1,,,,,,,,0,,45,100
76800,note_on,,12,0,2,,,,,,,,1,,64,100
76848,control_change,,48,0,2,,,,,,7,106,1,,,
77024,control_change,,176,0,2,,,,,,7,107,1,,,
77028,note_on,,4,0,2,,,,,,,,1,,64,0
77040,note_on,,12,0,2,,,,,,,,1,,65,100
77154,note_on,,114,0,2,,,,,,,,1,,65,0
77160,note_on,,6,0,2,,,,,,,,1,,64,100
77216,control_change,,56,0,2,,,,,,7,108,1,,,
77256,note_on,,0,0,1,,,,,,,,0,,61,0
77256,note_on,,0,0,1,,,,,,,,0,,57,0
77256,note_on,,0,0,1,,,,,,,,0,,52,0
77256,note_on,,456,0,1,,,,,,,,0,,45,0
77274,note_on,,58,0,2,,,,,,,,1,,64,0
77280,note_on,,0,0,1,,,,,,,,0,,53,100
77280,note_on,,0,0,1,,,,,,,,0,,57,100
77280,note_on,,0,0,1,,,,,,,,0,,45,100
77280,note_on,,6,0,2,,,,,,,,1,,62,100
77280,note_on,,24,0,1,,,,,,,,0,,62,100
77392,control_change,,112,0,2,,,,,,7,109,1,,,
77508,note_on,,116,0,2,,,,,,,,1,,62,0
77520,note_on,,12,0,2,,,,,,,,1,,65,100
77584,control_change,,64,0,2,,,,,,7,110,1,,,
77634,note_on,,50,0,2,,,,,,,,1,,65,0
77640,note_on,,6,0,2,,,,,,,,1,,67,100
77736,note_on,,0,0,1,,,,,,,,0,,62,0
77736,note_on,,456,0,1,,,,,,,,0,,45,0
77736,note_on,,0,0,1,,,,,,,,0,,53,0
77736,note_on,,0,0,1,,,,,,,,0,,57,0
77754,note_on,,114,0,2,,,,,,,,1,,67,0
77760,note_on,,24,0,1,,,,,,,,0,,45,100
77760,note_on,,0,0,1,,,,,,,,0,,61,100
77760,note_on,,0,0,1,,,,,,,,0,,52,100
77760,note_on,,6,0,2,,,,,,,,1,,69,100
77760,note_on,,0,0,1,,,,,,,,0,,57,100
77776,control_change,,16,0,2,,,,,,7,111,1,,,
77952,control_change,,176,0,2,,,,,,7,112,1,,,
77988,note_on,,0,0,1,,,,,,,,0,,45,0
77988,note_on,,0,0,1,,,,,,,,0,,57,0
77988,note_on,,228,0,1,,,,,,,,0,,52,0
77988,note_on,,36,0,2,,,,,,,,1,,69,0
78000,note_on,,0,0,1,,,,,,,,0,,52,100
78000,note_on,,0,0,1,,,,,,,,0,,58,100
78000,note_on,,12,0,1,,,,,,,,0,,43,100
78000,note_on,,12,0,2,,,,,,,,1,,64,100
78144,control_change,,144,0,2,,,,,,7,113,1,,,
78216,note_on,,216,0,1,,,,,,,,0,,61,0
78228,note_on,,12,0,1,,,,,,,,0,,58,0
78228,note_on,,84,0,2,,,,,,,,1,,64,0
78228,note_on,,0,0,1,,,,,,,,0,,52,0
78228,note_on,,0,0,1,,,,,,,,0,,43,0
78240,note_on,,12,0,1,,,,,,,,0,,62,100
78240,note_on,,0,0,1,,,,,,,,0,,57,100
78240,note_on,,0,0,1,,,,,,,,0,,53,100
78240,note_on,,0,0,1,,,,,,,,0,,41,100
78240,note_on,,12,0,2,,,,,,,,1,,69,100
78336,control_change,,96,0,2,,,,,,7,114,1,,,
78468,note_on,,132,0,2,,,,,,,,1,,69,0
78480,note_on,,12,0,2,,,,,,,,1,,65,100
78512,control_change,,32,0,2,,,,,,7,115,1,,,
78696,note_on,,0,0,1,,,,,,,,0,,53,0
78696,note_on,,456,0,1,,,,,,,,0,,41,0
78696,note_on,,0,0,1,,,,,,,,0,,57,0
78696,note_on,,0,0,1,,,,,,,,0,,62,0
78708,note_on,,196,0,2,,,,,,,,1,,65,0
78720,note_on,,12,0,2,,,,,,,,1,,67,100
78768,control_change,,48,0,2,,,,,,7,114,1,,,
78832,control_change,,64,0,2,,,,,,7,113,1,,,
78896,control_change,,64,0,2,,,,,,7,112,1,,,
78948,note_on,,52,0,2,,,,,,,,1,,67,0
78960,note_on,,0,0,1,,,,,,,,0,,58,100
78960,note_on,,0,0,2,,,,,,,,1,,65,100
78960,note_on,,264,0,1,,,,,,,,0,,40,100
78960,note_on,,0,0,1,,,,,,,,0,,61,100
78960,control_change,,12,0,2,,,,,,7,111,1,,,
78960,note_on,,0,0,1,,,,,,,,0,,55,100
79024,control_change,,64,0,2,,,,,,7,110,1,,,
79074,note_on,,50,0,2,,,,,,,,1,,65,0
79080,note_on,,6,0,2,,,,,,,,1,,64,100
79088,control_change,,8,0,2,,,,,,7,109,1,,,
79152,control_change,,64,0,2,,,,,,7,108,1,,,
79188,note_on,,0,0,1,,,,,,,,0,,58,0
79188,note_on,,0,0,1,,,,,,,,0,,40,0
79188,note_on,,0,0,1,,,,,,,,0,,55,0
79188,note_on,,228,0,1,,,,,,,,0,,61,0
79194,note_on,,42,0,2,,,,,,,,1,,64,0
79200,note_on,,12,0,1,,,,,,,,0,,41,100
79200,note_on,,0,0,1,,,,,,,,0,,62,100
79200,control_change,,0,0,2,,,,,,7,108,1,,,
79200,note_on,,6,0,2,,,,,,,,1,,62,100
79200,note_on,,0,0,1,,,,,,,,0,,57,100
79216,control_change,,0,0,2,,,,,,7,107,1,,,
79216,control_change,,16,0,2,,,,,,7,107,1,,,
79296,control_change,,0,0,2,,,,,,7,106,1,,,
79296,control_change,,80,0,2,,,,,,7,106,1,,,
79360,control_change,,0,0,2,,,,,,7,105,1,,,
79360,control_change,,64,0,2,,,,,,7,105,1,,,
79424,control_change,,0,0,2,,,,,,7,104,1,,,
79424,control_change,,64,0,2,,,,,,7,104,1,,,
79428,note_on,,0,0,1,,,,,,,,0,,41,0
79428,note_on,,4,0,2,,,,,,,,1,,62,0
79428,note_on,,228,0,1,,,,,,,,0,,57,0
79440,note_on,,12,0,1,,,,,,,,0,,43,100
79440,note_on,,0,0,1,,,,,,,,0,,58,100
79440,note_on,,12,0,2,,,,,,,,1,,70,100
79488,control_change,,48,0,2,,,,,,7,103,1,,,
79488,control_change,,0,0,2,,,,,,7,103,1,,,
79552,control_change,,64,0,2,,,,,,7,102,1,,,
79552,control_change,,0,0,2,,,,,,7,102,1,,,
79616,control_change,,64,0,2,,,,,,7,101,1,,,
79616,control_change,,0,0,2,,,,,,7,101,1,,,
79656,note_on,,216,0,1,,,,,,,,0,,62,0
79668,note_on,,52,0,2,,,,,,,,1,,70,0
79668,note_on,,0,0,1,,,,,,,,0,,43,0
79668,note_on,,12,0,1,,,,,,,,0,,58,0
79680,note_on,,12,0,1,,,,,,,,0,,45,100
79680,note_on,,0,0,1,,,,,,,,0,,57,100
79680,note_on,,0,0,1,,,,,,,,0,,62,100
79680,note_on,,0,0,1,,,,,,,,0,,52,100
79680,control_change,,0,0,2,,,,,,7,100,1,,,
79680,note_on,,0,0,2,,,,,,,,1,,69,100
79680,control_change,,12,0,2,,,,,,7,100,1,,,
79744,control_change,,64,0,2,,,,,,7,99,1,,,
79744,control_change,,0,0,2,,,,,,7,99,1,,,
79794,note_on,,50,0,2,,,,,,,,1,,69,0
79800,note_on,,6,0,2,,,,,,,,1,,67,100
79824,control_change,,0,0,2,,,,,,7,98,1,,,
79824,control_change,,24,0,2,,,,,,7,98,1,,,
79888,control_change,,0,0,2,,,,,,7,97,1,,,
79888,control_change,,64,0,2,,,,,,7,97,1,,,
79908,note_on,,228,0,1,,,,,,,,0,,62,0
79914,note_on,,26,0,2,,,,,,,,1,,67,0
79920,note_on,,12,0,1,,,,,,,,0,,61,100
79920,note_on,,6,0,2,,,,,,,,1,,65,100
79952,control_change,,32,0,2,,,,,,7,96,1,,,
79952,control_change,,0,0,2,,,,,,7,96,1,,,
80016,control_change,,64,0,2,,,,,,7,95,1,,,
80016,control_change,,0,0,2,,,,,,7,95,1,,,
80034,note_on,,18,0,2,,,,,,,,1,,65,0
80040,note_on,,6,0,2,,,,,,,,1,,64,100
80136,note_on,,0,0,1,,,,,,,,0,,45,0
80136,note_on,,0,0,1,,,,,,,,0,,57,0
80136,note_on,,216,0,1,,,,,,,,0,,52,0
80148,note_on,,12,0,1,,,,,,,,0,,61,0
80154,note_on,,114,0,2,,,,,,,,1,,64,0
80160,control_change,,6,0,2,,,,,,7,105,1,,,
80160,note_on,,0,0,2,,,,,,,,1,,64,100
80160,control_change,,0,0,2,,,,,,7,105,1,,,
80160,note_on,,12,0,1,,,,,,,,0,,38,100
80160,note_on,,0,0,1,,,,,,,,0,,57,100
80160,note_on,,0,0,1,,,,,,,,0,,53,100
80160,note_on,,0,0,1,,,,,,,,0,,62,100
80192,control_change,,32,0,2,,,,,,7,104,1,,,
80192,control_change,,0,0,2,,,,,,7,104,1,,,
80224,control_change,,32,0,2,,,,,,7,103,1,,,
80224,control_change,,0,0,2,,,,,,7,103,1,,,
80256,control_change,,32,0,2,,,,,,7,102,1,,,
80256,control_change,,0,0,2,,,,,,7,102,1,,,
80288,control_change,,32,0,2,,,,,,7,101,1,,,
80288,control_change,,0,0,2,,,,,,7,101,1,,,
80336,control_change,,48,0,2,,,,,,7,100,1,,,
80336,control_change,,0,0,2,,,,,,7,100,1,,,
80368,control_change,,32,0,2,,,,,,7,99,1,,,
80368,control_change,,0,0,2,,,,,,7,99,1,,,
80388,note_on,,20,0,2,,,,,,,,1,,64,0
80400,note_on,,0,0,2,,,,,,,,1,,62,100
80400,control_change,,12,0,2,,,,,,7,98,1,,,
80400,control_change,,0,0,2,,,,,,7,98,1,,,
80432,control_change,,0,0,2,,,,,,7,97,1,,,
80432,control_change,,32,0,2,,,,,,7,97,1,,,
80480,control_change,,0,0,2,,,,,,7,96,1,,,
80480,control_change,,48,0,2,,,,,,7,96,1,,,
80512,control_change,,32,0,2,,,,,,7,95,1,,,
80512,control_change,,0,0,2,,,,,,7,95,1,,,
80616,note_on,,0,0,1,,,,,,,,0,,38,0
80616,note_on,,456,0,1,,,,,,,,0,,53,0
80616,note_on,,0,0,1,,,,,,,,0,,57,0
80616,note_on,,0,0,1,,,,,,,,0,,62,0
80628,note_on,,116,0,2,,,,,,,,1,,62,0
80640,control_change,,24,0,1,,,,,,7,102,0,,,
80640,note_on,,0,0,1,,,,,,,,0,,69,100
80640,key_signature,,0,1,1,,,,,F,,,,,,
80640,note_on,,0,0,1,,,,,,,,0,,81,100
80640,key_signature,,12,1,2,,,,,F,,,,,,
80868,note_on,,228,0,1,,,,,,,,0,,81,0
80868,note_on,,0,0,1,,,,,,,,0,,69,0
80880,note_on,,0,0,1,,,,,,,,0,,62,100
80880,note_on,,12,0,1,,,,,,,,0,,74,100
80880,note_on,,0,0,1,,,,,,,,0,,65,100
81108,note_on,,0,0,1,,,,,,,,0,,62,0
81108,note_on,,228,0,1,,,,,,,,0,,65,0
81108,note_on,,0,0,1,,,,,,,,0,,74,0
81120,note_on,,0,0,1,,,,,,,,0,,57,100
81120,note_on,,12,0,1,,,,,,,,0,,76,100
81120,note_on,,0,0,1,,,,,,,,0,,64,100
81348,note_on,,0,0,1,,,,,,,,0,,76,0
81348,note_on,,0,0,1,,,,,,,,0,,64,0
81348,note_on,,228,0,1,,,,,,,,0,,57,0
81360,note_on,,12,0,1,,,,,,,,0,,69,100
81570,note_on,,210,0,1,,,,,,,,0,,69,100
81588,note_on,,18,0,1,,,,,,,,0,,69,0
81600,note_on,,0,0,1,,,,,,,,0,,67,100
81600,note_on,,12,0,1,,,,,,,,0,,55,100
81714,note_on,,0,0,1,,,,,,,,0,,55,0
81714,note_on,,114,0,1,,,,,,,,0,,67,0
81720,note_on,,6,0,1,,,,,,,,0,,53,100
81720,note_on,,0,0,1,,,,,,,,0,,65,100
81834,note_on,,0,0,1,,,,,,,,0,,53,0
81834,note_on,,114,0,1,,,,,,,,0,,65,0
81840,note_on,,0,0,1,,,,,,,,0,,52,100
81840,note_on,,6,0,1,,,,,,,,0,,69,0
81840,note_on,,0,0,1,,,,,,,,0,,64,100
81954,note_on,,0,0,1,,,,,,,,0,,52,0
81954,note_on,,114,0,1,,,,,,,,0,,64,0
81960,note_on,,0,0,1,,,,,,,,0,,62,100
81960,note_on,,6,0,1,,,,,,,,0,,50,100
82074,note_on,,0,0,1,,,,,,,,0,,50,0
82074,note_on,,114,0,1,,,,,,,,0,,62,0
82080,note_on,,6,0,1,,,,,,,,0,,52,100
82080,note_on,,0,0,1,,,,,,,,0,,64,100
82308,note_on,,228,0,1,,,,,,,,0,,64,0
82308,note_on,,0,0,1,,,,,,,,0,,52,0
82320,note_on,,12,0,1,,,,,,,,0,,45,100
82320,note_on,,0,0,1,,,,,,,,0,,57,100
82368,control_change,,48,0,1,,,,,,7,103,0,,,
82464,control_change,,96,0,1,,,,,,7,104,0,,,
82548,note_on,,84,0,1,,,,,,,,0,,45,0
82560,note_on,,0,0,1,,,,,,,,0,,52,100
82560,note_on,,0,0,1,,,,,,,,0,,45,100
82560,note_on,,0,0,1,,,,,,,,0,,69,100
82560,control_change,,12,0,1,,,,,,7,105,0,,,
82560,note_on,,0,0,1,,,,,,,,0,,61,100
82640,control_change,,80,0,1,,,,,,7,106,0,,,
82736,control_change,,96,0,1,,,,,,7,107,0,,,
82816,control_change,,80,0,1,,,,,,7,108,0,,,
82912,control_change,,96,0,1,,,,,,7,109,0,,,
83004,note_on,,92,0,1,,,,,,,,0,,57,0
83008,control_change,,4,0,1,,,,,,7,110,0,,,
83016,note_on,,0,0,1,,,,,,,,0,,45,0
83016,note_on,,8,0,1,,,,,,,,0,,52,0
83016,note_on,,0,0,1,,,,,,,,0,,69,0
83016,note_on,,0,0,1,,,,,,,,0,,61,0
83040,note_on,,0,0,1,,,,,,,,0,,62,100
83040,note_on,,24,0,1,,,,,,,,0,,50,100
83040,note_on,,0,0,1,,,,,,,,0,,69,100
83192,control_change,,152,0,1,,,,,,7,109,0,,,
83224,control_change,,32,0,1,,,,,,7,108,0,,,
83268,note_on,,44,0,1,,,,,,,,0,,62,0
83272,control_change,,4,0,1,,,,,,7,107,0,,,
83280,note_on,,8,0,1,,,,,,,,0,,58,100
83320,control_change,,40,0,1,,,,,,7,106,0,,,
83352,control_change,,32,0,1,,,,,,7,105,0,,,
83400,control_change,,48,0,1,,,,,,7,104,0,,,
83448,control_change,,48,0,1,,,,,,7,103,0,,,
83460,note_on,,12,0,1,,,,,,,,0,,60,100
83480,control_change,,20,0,1,,,,,,7,102,0,,,
83488,note_on,,8,0,1,,,,,,,,0,,60,0
83490,note_on,,2,0,1,,,,,,,,0,,58,100
83496,note_on,,6,0,1,,,,,,,,0,,69,0
83496,note_on,,0,0,1,,,,,,,,0,,50,0
83508,note_on,,12,0,1,,,,,,,,0,,58,0
83520,note_on,,12,0,1,,,,,,,,0,,57,100
83520,note_on,,0,0,1,,,,,,,,0,,69,100
83520,note_on,,0,0,1,,,,,,,,0,,52,100
83520,note_on,,0,0,1,,,,,,,,0,,45,100
83528,control_change,,8,0,1,,,,,,7,101,0,,,
83560,control_change,,32,0,1,,,,,,7,100,0,,,
83608,control_change,,48,0,1,,,,,,7,99,0,,,
83656,control_change,,48,0,1,,,,,,7,98,0,,,
83688,control_change,,32,0,1,,,,,,7,97,0,,,
83736,control_change,,48,0,1,,,,,,7,96,0,,,
83760,note_on,,24,0,1,,,,,,,,0,,58,0
83784,control_change,,24,0,1,,,,,,7,95,0,,,
83816,control_change,,32,0,1,,,,,,7,94,0,,,
83864,control_change,,48,0,1,,,,,,7,93,0,,,
83896,control_change,,32,0,1,,,,,,7,92,0,,,
83944,control_change,,48,0,1,,,,,,7,91,0,,,
83992,control_change,,48,0,1,,,,,,7,90,0,,,
84456,note_on,,464,0,1,,,,,,,,0,,45,0
84456,note_on,,0,0,1,,,,,,,,0,,52,0
84456,note_on,,0,0,1,,,,,,,,0,,69,0
84456,note_on,,0,0,1,,,,,,,,0,,57,0
84480,note_on,,0,0,1,,,,,,,,0,,65,100
84480,note_on,,24,0,1,,,,,,,,0,,69,100
84480,note_on,,0,0,1,,,,,,,,0,,57,100
84480,note_on,,3840,0,2,,,,,,,,1,,69,100
84480,note_on,,0,0,1,,,,,,,,0,,50,100
84708,note_on,,228,0,1,,,,,,,,0,,57,0
84708,note_on,,0,0,1,,,,,,,,0,,50,0
84708,note_on,,0,0,1,,,,,,,,0,,65,0
84708,note_on,,0,0,1,,,,,,,,0,,69,0
84708,note_on,,228,0,2,,,,,,,,1,,69,0
84720,note_on,,0,0,1,,,,,,,,0,,58,100
84720,note_on,,12,0,2,,,,,,,,1,,67,100
84720,note_on,,0,0,1,,,,,,,,0,,64,100
84720,note_on,,0,0,1,,,,,,,,0,,49,100
84720,note_on,,12,0,1,,,,,,,,0,,67,100
84948,note_on,,228,0,1,,,,,,,,0,,58,0
84948,note_on,,0,0,1,,,,,,,,0,,67,0
84948,note_on,,0,0,1,,,,,,,,0,,64,0
84948,note_on,,0,0,1,,,,,,,,0,,49,0
84948,note_on,,228,0,2,,,,,,,,1,,67,0
84960,note_on,,12,0,2,,,,,,,,1,,65,100
84960,note_on,,0,0,1,,,,,,,,0,,50,100
84960,note_on,,0,0,1,,,,,,,,0,,62,100
84960,note_on,,12,0,1,,,,,,,,0,,65,100
84960,note_on,,0,0,1,,,,,,,,0,,57,100
85188,note_on,,228,0,2,,,,,,,,1,,65,0
85188,note_on,,0,0,1,,,,,,,,0,,65,0
85188,note_on,,0,0,1,,,,,,,,0,,62,0
85188,note_on,,0,0,1,,,,,,,,0,,50,0
85188,note_on,,228,0,1,,,,,,,,0,,57,0
85200,note_on,,12,0,2,,,,,,,,1,,64,100
85200,note_on,,0,0,1,,,,,,,,0,,45,100
85200,note_on,,0,0,1,,,,,,,,0,,55,100
85200,note_on,,0,0,1,,,,,,,,0,,61,100
85200,note_on,,12,0,1,,,,,,,,0,,64,100
85428,note_on,,228,0,2,,,,,,,,1,,64,0
85428,note_on,,0,0,1,,,,,,,,0,,64,0
85428,note_on,,0,0,1,,,,,,,,0,,61,0
85428,note_on,,0,0,1,,,,,,,,0,,45,0
85428,note_on,,228,0,1,,,,,,,,0,,55,0
85440,note_on,,0,0,1,,,,,,,,0,,46,100
85440,note_on,,12,0,1,,,,,,,,0,,62,100
85440,note_on,,12,0,2,,,,,,,,1,,62,100
85440,note_on,,0,0,1,,,,,,,,0,,53,100
85668,note_on,,228,0,1,,,,,,,,0,,53,0
85668,note_on,,0,0,1,,,,,,,,0,,46,0
85668,note_on,,0,0,1,,,,,,,,0,,62,0
85668,note_on,,228,0,2,,,,,,,,1,,62,0
85680,note_on,,12,0,2,,,,,,,,1,,64,100
85680,note_on,,12,0,1,,,,,,,,0,,64,100
85680,note_on,,0,0,1,,,,,,,,0,,45,100
85680,note_on,,0,0,1,,,,,,,,0,,61,100
85794,note_on,,114,0,1,,,,,,,,0,,45,0
85800,note_on,,6,0,1,,,,,,,,0,,43,100
85908,note_on,,108,0,1,,,,,,,,0,,61,0
85908,note_on,,0,0,1,,,,,,,,0,,64,0
85908,note_on,,228,0,2,,,,,,,,1,,64,0
85914,note_on,,6,0,1,,,,,,,,0,,43,0
85920,note_on,,12,0,2,,,,,,,,1,,65,100
85920,note_on,,6,0,1,,,,,,,,0,,65,100
85920,note_on,,0,0,1,,,,,,,,0,,41,100
85920,note_on,,0,0,1,,,,,,,,0,,62,100
86034,note_on,,114,0,1,,,,,,,,0,,41,0
86040,note_on,,6,0,1,,,,,,,,0,,40,100
86148,note_on,,228,0,2,,,,,,,,1,,65,0
86148,note_on,,108,0,1,,,,,,,,0,,62,0
86148,note_on,,0,0,1,,,,,,,,0,,65,0
86154,note_on,,6,0,1,,,,,,,,0,,40,0
86160,note_on,,0,0,1,,,,,,,,0,,38,100
86160,note_on,,12,0,2,,,,,,,,1,,65,100
86160,note_on,,6,0,1,,,,,,,,0,,65,100
86160,note_on,,0,0,1,,,,,,,,0,,62,100
86160,note_on,,0,0,1,,,,,,,,0,,57,100
86388,note_on,,0,0,1,,,,,,,,0,,38,0
86388,note_on,,228,0,1,,,,,,,,0,,57,0
86388,note_on,,228,0,2,,,,,,,,1,,65,0
86388,note_on,,0,0,1,,,,,,,,0,,62,0
86388,note_on,,0,0,1,,,,,,,,0,,65,0
86400,note_on,,12,0,1,,,,,,,,0,,64,100
86400,note_on,,0,0,1,,,,,,,,0,,67,100
86400,note_on,,0,0,1,,,,,,,,0,,48,100
86400,note_on,,0,0,1,,,,,,,,0,,36,100
86400,note_on,,0,0,1,,,,,,,,0,,55,100
86400,note_on,,0,0,1,,,,,,,,0,,60,100
86400,note_on,,12,0,2,,,,,,,,1,,67,100
86628,note_on,,228,0,2,,,,,,,,1,,67,0
86628,note_on,,228,0,1,,,,,,,,0,,55,0
86628,note_on,,0,0,1,,,,,,,,0,,60,0
86640,note_on,,12,0,2,,,,,,,,1,,67,100
86640,note_on,,12,0,1,,,,,,,,0,,58,100
86640,note_on,,0,0,1,,,,,,,,0,,62,100
86856,note_on,,0,0,1,,,,,,,,0,,64,0
86856,note_on,,216,0,1,,,,,,,,0,,36,0
86856,note_on,,0,0,1,,,,,,,,0,,48,0
86856,note_on,,0,0,1,,,,,,,,0,,67,0
86868,note_on,,228,0,2,,,,,,,,1,,67,0
86868,note_on,,12,0,1,,,,,,,,0,,62,0
86868,note_on,,0,0,1,,,,,,,,0,,58,0
86880,note_on,,0,0,1,,,,,,,,0,,41,100
86880,note_on,,0,0,1,,,,,,,,0,,57,100
86880,note_on,,0,0,1,,,,,,,,0,,60,100
86880,note_on,,12,0,1,,,,,,,,0,,65,100
86880,note_on,,12,0,2,,,,,,,,1,,69,100
87108,note_on,,228,0,2,,,,,,,,1,,69,0
87120,note_on,,12,0,2,,,,,,,,1,,69,100
87336,note_on,,0,0,1,,,,,,,,0,,65,0
87336,note_on,,0,0,1,,,,,,,,0,,60,0
87336,note_on,,0,0,1,,,,,,,,0,,57,0
87336,note_on,,456,0,1,,,,,,,,0,,41,0
87348,note_on,,228,0,2,,,,,,,,1,,69,0
87360,note_on,,12,0,2,,,,,,,,1,,69,100
87360,note_on,,0,0,1,,,,,,,,0,,43,100
87360,note_on,,24,0,1,,,,,,,,0,,65,100
87360,note_on,,0,0,1,,,,,,,,0,,58,100
87474,note_on,,114,0,2,,,,,,,,1,,69,0
87480,note_on,,6,0,2,,,,,,,,1,,67,100
87588,note_on,,228,0,1,,,,,,,,0,,65,0
87594,note_on,,114,0,2,,,,,,,,1,,67,0
87600,note_on,,6,0,2,,,,,,,,1,,65,100
87600,note_on,,12,0,1,,,,,,,,0,,64,100
87714,note_on,,114,0,2,,,,,,,,1,,65,0
87720,note_on,,6,0,2,,,,,,,,1,,64,100
87816,note_on,,0,0,1,,,,,,,,0,,43,0
87816,note_on,,216,0,1,,,,,,,,0,,58,0
87828,note_on,,12,0,1,,,,,,,,0,,64,0
87834,note_on,,114,0,2,,,,,,,,1,,64,0
87840,note_on,,0,0,1,,,,,,,,0,,45,100
87840,note_on,,12,0,1,,,,,,,,0,,62,100
87840,note_on,,6,0,2,,,,,,,,1,,62,100
87840,note_on,,0,0,1,,,,,,,,0,,57,100
88068,note_on,,228,0,1,,,,,,,,0,,62,0
88068,note_on,,228,0,2,,,,,,,,1,,62,0
88080,note_on,,12,0,1,,,,,,,,0,,61,100
88080,note_on,,12,0,2,,,,,,,,1,,61,100
88296,note_on,,216,0,1,,,,,,,,0,,57,0
88296,note_on,,0,0,1,,,,,,,,0,,45,0
88308,note_on,,228,0,2,,,,,,,,1,,61,0
88308,note_on,,12,0,1,,,,,,,,0,,61,0
88320,note_on,,12,0,2,,,,,,,,1,,69,100
88320,note_on,,12,0,1,,,,,,,,0,,60,100
88320,note_on,,0,0,1,,,,,,,,0,,57,100
88320,note_on,,0,0,1,,,,,,,,0,,53,100
88320,note_on,,0,0,1,,,,,,,,0,,48,100
88320,note_on,,0,0,1,,,,,,,,0,,41,100
88416,control_change,,96,0,2,,,,,,7,96,1,,,
88548,note_on,,132,0,2,,,,,,,,1,,69,0
88560,note_on,,12,0,2,,,,,,,,1,,67,100
88608,control_change,,48,0,2,,,,,,7,97,1,,,
88776,note_on,,456,0,1,,,,,,,,0,,41,0
88776,note_on,,0,0,1,,,,,,,,0,,53,0
88776,note_on,,0,0,1,,,,,,,,0,,48,0
88776,note_on,,0,0,1,,,,,,,,0,,60,0
88776,note_on,,0,0,1,,,,,,,,0,,57,0
88788,note_on,,180,0,2,,,,,,,,1,,67,0
88800,control_change,,12,0,2,,,,,,7,98,1,,,
88800,note_on,,0,0,2,,,,,,,,1,,65,100
88800,note_on,,0,0,1,,,,,,,,0,,60,100
88800,note_on,,0,0,1,,,,,,,,0,,53,100
88800,note_on,,0,0,1,,,,,,,,0,,57,100
88800,note_on,,0,0,1,,,,,,,,0,,48,100
88800,note_on,,24,0,1,,,,,,,,0,,41,100
88976,control_change,,176,0,2,,,,,,7,99,1,,,
89028,note_on,,0,0,1,,,,,,,,0,,57,0
89028,note_on,,0,0,1,,,,,,,,0,,60,0
89028,note_on,,0,0,1,,,,,,,,0,,48,0
89028,note_on,,52,0,2,,,,,,,,1,,65,0
89028,note_on,,228,0,1,,,,,,,,0,,53,0
89028,note_on,,0,0,1,,,,,,,,0,,41,0
89040,note_on,,12,0,1,,,,,,,,0,,48,100
89040,note_on,,0,0,1,,,,,,,,0,,41,100
89040,note_on,,0,0,1,,,,,,,,0,,57,100
89040,note_on,,0,0,1,,,,,,,,0,,60,100
89040,note_on,,12,0,2,,,,,,,,1,,64,100
89168,control_change,,128,0,2,,,,,,7,100,1,,,
89268,note_on,,100,0,2,,,,,,,,1,,64,0
89268,note_on,,0,0,1,,,,,,,,0,,48,0
89268,note_on,,0,0,1,,,,,,,,0,,41,0
89268,note_on,,0,0,1,,,,,,,,0,,57,0
89268,note_on,,228,0,1,,,,,,,,0,,60,0
89280,note_on,,12,0,2,,,,,,,,1,,62,100
89280,note_on,,0,0,1,,,,,,,,0,,41,100
89280,note_on,,0,0,1,,,,,,,,0,,48,100
89280,note_on,,0,0,1,,,,,,,,0,,60,100
89280,note_on,,12,0,1,,,,,,,,0,,58,100
89344,control_change,,64,0,2,,,,,,7,101,1,,,
89508,note_on,,0,0,1,,,,,,,,0,,58,0
89508,note_on,,0,0,1,,,,,,,,0,,60,0
89508,note_on,,0,0,1,,,,,,,,0,,48,0
89508,note_on,,228,0,1,,,,,,,,0,,41,0
89508,note_on,,164,0,2,,,,,,,,1,,62,0
89520,note_on,,0,0,1,,,,,,,,0,,55,100
89520,note_on,,0,0,1,,,,,,,,0,,41,100
89520,note_on,,0,0,1,,,,,,,,0,,58,100
89520,note_on,,12,0,1,,,,,,,,0,,60,100
89520,note_on,,12,0,2,,,,,,,,1,,64,100
89536,control_change,,16,0,2,,,,,,7,102,1,,,
89728,control_change,,192,0,2,,,,,,7,103,1,,,
89748,note_on,,228,0,1,,,,,,,,0,,41,0
89748,note_on,,0,0,1,,,,,,,,0,,58,0
89748,note_on,,0,0,1,,,,,,,,0,,60,0
89748,note_on,,0,0,1,,,,,,,,0,,55,0
89748,note_on,,20,0,2,,,,,,,,1,,64,0
89760,note_on,,12,0,1,,,,,,,,0,,60,100
89760,note_on,,0,0,1,,,,,,,,0,,57,100
89760,note_on,,0,0,1,,,,,,,,0,,41,100
89760,note_on,,12,0,2,,,,,,,,1,,65,100
89760,note_on,,0,0,1,,,,,,,,0,,53,100
89904,control_change,,144,0,2,,,,,,7,104,1,,,
89988,note_on,,0,0,1,,,,,,,,0,,60,0
89988,note_on,,84,0,2,,,,,,,,1,,65,0
89988,note_on,,228,0,1,,,,,,,,0,,41,0
89988,note_on,,0,0,1,,,,,,,,0,,53,0
89988,note_on,,0,0,1,,,,,,,,0,,57,0
90000,note_on,,12,0,2,,,,,,,,1,,67,100
90096,control_change,,96,0,2,,,,,,7,105,1,,,
90228,note_on,,132,0,2,,,,,,,,1,,67,0
90240,note_on,,0,0,1,,,,,,,,0,,45,100
90240,note_on,,0,0,1,,,,,,,,0,,52,100
90240,note_on,,252,0,1,,,,,,,,0,,61,100
90240,note_on,,12,0,2,,,,,,,,1,,64,100
90240,note_on,,0,0,1,,,,,,,,0,,57,100
90288,control_change,,48,0,2,,,,,,7,106,1,,,
90464,control_change,,176,0,2,,,,,,7,107,1,,,
90468,note_on,,4,0,2,,,,,,,,1,,64,0
90480,note_on,,12,0,2,,,,,,,,1,,65,100
90594,note_on,,114,0,2,,,,,,,,1,,65,0
90600,note_on,,6,0,2,,,,,,,,1,,64,100
90656,control_change,,56,0,2,,,,,,7,108,1,,,
90696,note_on,,0,0,1,,,,,,,,0,,61,0
90696,note_on,,456,0,1,,,,,,,,0,,45,0
90696,note_on,,0,0,1,,,,,,,,0,,52,0
90696,note_on,,0,0,1,,,,,,,,0,,57,0
90714,note_on,,58,0,2,,,,,,,,1,,64,0
90720,note_on,,24,0,1,,,,,,,,0,,62,100
90720,note_on,,0,0,1,,,,,,,,0,,57,100
90720,note_on,,0,0,1,,,,,,,,0,,53,100
90720,note_on,,0,0,1,,,,,,,,0,,45,100
90720,note_on,,6,0,2,,,,,,,,1,,62,100
90832,control_change,,112,0,2,,,,,,7,109,1,,,
90948,note_on,,116,0,2,,,,,,,,1,,62,0
90960,note_on,,12,0,2,,,,,,,,1,,65,100
91024,control_change,,64,0,2,,,,,,7,110,1,,,
91074,note_on,,50,0,2,,,,,,,,1,,65,0
91080,note_on,,6,0,2,,,,,,,,1,,67,100
91176,note_on,,456,0,1,,,,,,,,0,,45,0
91176,note_on,,0,0,1,,,,,,,,0,,53,0
91176,note_on,,0,0,1,,,,,,,,0,,57,0
91176,note_on,,0,0,1,,,,,,,,0,,62,0
91194,note_on,,114,0,2,,,,,,,,1,,67,0
91200,note_on,,24,0,1,,,,,,,,0,,45,100
91200,note_on,,0,0,1,,,,,,,,0,,52,100
91200,note_on,,0,0,1,,,,,,,,0,,61,100
91200,note_on,,0,0,1,,,,,,,,0,,57,100
91200,note_on,,6,0,2,,,,,,,,1,,69,100
91216,control_change,,16,0,2,,,,,,7,111,1,,,
91392,control_change,,176,0,2,,,,,,7,112,1,,,
91428,note_on,,228,0,1,,,,,,,,0,,52,0
91428,note_on,,0,0,1,,,,,,,,0,,57,0
91428,note_on,,0,0,1,,,,,,,,0,,45,0
91428,note_on,,36,0,2,,,,,,,,1,,69,0
91440,note_on,,12,0,2,,,,,,,,1,,64,100
91440,note_on,,0,0,1,,,,,,,,0,,52,100
91440,note_on,,12,0,1,,,,,,,,0,,43,100
91440,note_on,,0,0,1,,,,,,,,0,,58,100
91584,control_change,,144,0,2,,,,,,7,113,1,,,
91656,note_on,,216,0,1,,,,,,,,0,,61,0
91668,note_on,,12,0,1,,,,,,,,0,,58,0
91668,note_on,,0,0,1,,,,,,,,0,,52,0
91668,note_on,,0,0,1,,,,,,,,0,,43,0
91668,note_on,,84,0,2,,,,,,,,1,,64,0
91680,note_on,,12,0,2,,,,,,,,1,,69,100
91680,note_on,,0,0,1,,,,,,,,0,,41,100
91680,note_on,,12,0,1,,,,,,,,0,,62,100
91680,note_on,,0,0,1,,,,,,,,0,,57,100
91680,note_on,,0,0,1,,,,,,,,0,,53,100
91776,control_change,,96,0,2,,,,,,7,114,1,,,
91908,note_on,,132,0,2,,,,,,,,1,,69,0
91920,note_on,,12,0,2,,,,,,,,1,,65,100
91952,control_change,,32,0,2,,,,,,7,115,1,,,
92136,note_on,,456,0,1,,,,,,,,0,,41,0
92136,note_on,,0,0,1,,,,,,,,0,,62,0
92136,note_on,,0,0,1,,,,,,,,0,,57,0
92136,note_on,,0,0,1,,,,,,,,0,,53,0
92148,note_on,,196,0,2,,,,,,,,1,,65,0
92160,note_on,,12,0,2,,,,,,,,1,,67,100
92208,control_change,,48,0,2,,,,,,7,114,1,,,
92272,control_change,,64,0,2,,,,,,7,113,1,,,
92336,control_change,,64,0,2,,,,,,7,112,1,,,
92388,note_on,,52,0,2,,,,,,,,1,,67,0
92400,control_change,,12,0,2,,,,,,7,111,1,,,
92400,note_on,,0,0,2,,,,,,,,1,,65,100
92400,note_on,,0,0,1,,,,,,,,0,,58,100
92400,note_on,,264,0,1,,,,,,,,0,,40,100
92400,note_on,,0,0,1,,,,,,,,0,,61,100
92400,note_on,,0,0,1,,,,,,,,0,,55,100
92464,control_change,,64,0,2,,,,,,7,110,1,,,
92514,note_on,,50,0,2,,,,,,,,1,,65,0
92520,note_on,,6,0,2,,,,,,,,1,,64,100
92528,control_change,,8,0,2,,,,,,7,109,1,,,
92592,control_change,,64,0,2,,,,,,7,108,1,,,
92628,note_on,,0,0,1,,,,,,,,0,,55,0
92628,note_on,,0,0,1,,,,,,,,0,,40,0
92628,note_on,,0,0,1,,,,,,,,0,,58,0
92628,note_on,,228,0,1,,,,,,,,0,,61,0
92634,note_on,,42,0,2,,,,,,,,1,,64,0
92640,note_on,,6,0,2,,,,,,,,1,,62,100
92640,note_on,,12,0,1,,,,,,,,0,,41,100
92640,note_on,,0,0,1,,,,,,,,0,,57,100
92640,note_on,,0,0,1,,,,,,,,0,,62,100
92656,control_change,,16,0,2,,,,,,7,107,1,,,
92736,control_change,,80,0,2,,,,,,7,106,1,,,
92800,control_change,,64,0,2,,,,,,7,105,1,,,
92864,control_change,,64,0,2,,,,,,7,104,1,,,
92868,note_on,,0,0,1,,,,,,,,0,,41,0
92868,note_on,,4,0,2,,,,,,,,1,,62,0
92868,note_on,,228,0,1,,,,,,,,0,,57,0
92880,note_on,,12,0,2,,,,,,,,1,,70,100
92880,note_on,,12,0,1,,,,,,,,0,,43,100
92880,note_on,,0,0,1,,,,,,,,0,,58,100
92928,control_change,,48,0,2,,,,,,7,103,1,,,
92992,control_change,,64,0,2,,,,,,7,102,1,,,
93056,control_change,,64,0,2,,,,,,7,101,1,,,
93096,note_on,,216,0,1,,,,,,,,0,,62,0
93108,note_on,,12,0,1,,,,,,,,0,,58,0
93108,note_on,,0,0,1,,,,,,,,0,,43,0
93108,note_on,,52,0,2,,,,,,,,1,,70,0
93120,note_on,,0,0,2,,,,,,,,1,,69,100
93120,control_change,,12,0,2,,,,,,7,100,1,,,
93120,note_on,,0,0,1,,,,,,,,0,,62,100
93120,note_on,,0,0,1,,,,,,,,0,,52,100
93120,note_on,,0,0,1,,,,,,,,0,,57,100
93120,note_on,,12,0,1,,,,,,,,0,,45,100
93184,control_change,,64,0,2,,,,,,7,99,1,,,
93234,note_on,,50,0,2,,,,,,,,1,,69,0
93240,note_on,,6,0,2,,,,,,,,1,,67,100
93264,control_change,,24,0,2,,,,,,7,98,1,,,
93328,control_change,,64,0,2,,,,,,7,97,1,,,
93348,note_on,,228,0,1,,,,,,,,0,,62,0
93354,note_on,,26,0,2,,,,,,,,1,,67,0
93360,note_on,,6,0,2,,,,,,,,1,,65,100
93360,note_on,,12,0,1,,,,,,,,0,,61,100
93392,control_change,,32,0,2,,,,,,7,96,1,,,
93456,control_change,,64,0,2,,,,,,7,95,1,,,
93474,note_on,,18,0,2,,,,,,,,1,,65,0
93480,note_on,,6,0,2,,,,,,,,1,,64,100
93576,note_on,,0,0,1,,,,,,,,0,,45,0
93576,note_on,,0,0,1,,,,,,,,0,,57,0
93576,note_on,,216,0,1,,,,,,,,0,,52,0
93588,note_on,,12,0,1,,,,,,,,0,,61,0
93594,note_on,,114,0,2,,,,,,,,1,,64,0
93600,control_change,,6,0,2,,,,,,7,105,1,,,
93600,note_on,,0,0,1,,,,,,,,0,,57,100
93600,note_on,,12,0,1,,,,,,,,0,,38,100
93600,note_on,,0,0,1,,,,,,,,0,,62,100
93600,note_on,,0,0,2,,,,,,,,1,,64,100
93600,note_on,,0,0,1,,,,,,,,0,,53,100
93632,control_change,,32,0,2,,,,,,7,104,1,,,
93664,control_change,,32,0,2,,,,,,7,103,1,,,
93696,control_change,,32,0,2,,,,,,7,102,1,,,
93728,control_change,,32,0,2,,,,,,7,101,1,,,
93776,control_change,,48,0,2,,,,,,7,100,1,,,
93808,control_change,,32,0,2,,,,,,7,99,1,,,
93828,note_on,,20,0,2,,,,,,,,1,,64,0
93840,note_on,,0,0,2,,,,,,,,1,,62,100
93840,control_change,,12,0,2,,,,,,7,98,1,,,
93872,control_change,,32,0,2,,,,,,7,97,1,,,
93920,control_change,,48,0,2,,,,,,7,96,1,,,
93952,control_change,,32,0,2,,,,,,7,95,1,,,
94056,note_on,,456,0,1,,,,,,,,0,,53,0
94056,note_on,,0,0,1,,,,,,,,0,,57,0
94056,note_on,,0,0,1,,,,,,,,0,,62,0
94056,note_on,,0,0,1,,,,,,,,0,,38,0
94068,note_on,,116,0,2,,,,,,,,1,,62,0
94080,control_change,,24,0,1,,,,,,7,102,0,,,
94080,note_on,,0,0,1,,,,,,,,0,,69,100
94080,note_on,,0,0,1,,,,,,,,0,,81,100
94308,note_on,,228,0,1,,,,,,,,0,,81,0
94308,note_on,,0,0,1,,,,,,,,0,,69,0
94320,note_on,,12,0,1,,,,,,,,0,,74,100
94320,note_on,,0,0,1,,,,,,,,0,,62,100
94320,note_on,,0,0,1,,,,,,,,0,,65,100
94368,control_change,,48,0,1,,,,,,7,101,0,,,
94464,control_change,,96,0,1,,,,,,7,100,0,,,
94544,control_change,,80,0,1,,,,,,7,99,0,,,
94548,note_on,,0,0,1,,,,,,,,0,,74,0
94548,note_on,,4,0,1,,,,,,,,0,,65,0
94548,note_on,,0,0,1,,,,,,,,0,,62,0
94560,note_on,,12,0,1,,,,,,,,0,,76,100
94560,note_on,,0,0,1,,,,,,,,0,,64,100
94560,note_on,,0,0,1,,,,,,,,0,,57,100
94624,control_change,,64,0,1,,,,,,7,98,0,,,
94720,control_change,,96,0,1,,,,,,7,97,0,,,
94788,note_on,,68,0,1,,,,,,,,0,,57,0
94788,note_on,,0,0,1,,,,,,,,0,,76,0
94788,note_on,,0,0,1,,,,,,,,0,,64,0
94800,control_change,,12,0,1,,,,,,7,96,0,,,
94800,note_on,,0,0,1,,,,,,,,0,,69,100
94880,control_change,,80,0,1,,,,,,7,95,0,,,
95010,note_on,,130,0,1,,,,,,,,0,,69,100
95028,note_on,,18,0,1,,,,,,,,0,,69,0
95040,note_on,,0,0,1,,,,,,,,0,,67,100
95040,note_on,,12,0,1,,,,,,,,0,,55,100
95154,note_on,,0,0,1,,,,,,,,0,,55,0
95154,note_on,,114,0,1,,,,,,,,0,,67,0
95160,note_on,,6,0,1,,,,,,,,0,,53,100
95160,note_on,,0,0,1,,,,,,,,0,,65,100
95274,note_on,,114,0,1,,,,,,,,0,,65,0
95274,note_on,,0,0,1,,,,,,,,0,,53,0
95280,note_on,,6,0,1,,,,,,,,0,,69,0
95280,note_on,,0,0,1,,,,,,,,0,,52,100
95280,note_on,,0,0,1,,,,,,,,0,,64,100
95394,note_on,,114,0,1,,,,,,,,0,,64,0
95394,note_on,,0,0,1,,,,,,,,0,,52,0
95400,note_on,,0,0,1,,,,,,,,0,,62,100
95400,note_on,,6,0,1,,,,,,,,0,,50,100
95514,note_on,,114,0,1,,,,,,,,0,,62,0
95514,note_on,,0,0,1,,,,,,,,0,,50,0
95520,note_on,,6,0,1,,,,,,,,0,,52,100
95520,note_on,,0,0,1,,,,,,,,0,,64,100
95748,note_on,,0,0,1,,,,,,,,0,,52,0
95748,note_on,,228,0,1,,,,,,,,0,,64,0
95760,note_on,,0,0,1,,,,,,,,0,,57,100
95760,note_on,,12,0,1,,,,,,,,0,,45,100
95988,note_on,,0,0,1,,,,,,,,0,,45,0
95988,note_on,,228,0,1,,,,,,,,0,,57,0
96000,note_on,,0,0,1,,,,,,,,0,,69,100
96000,note_on,,0,0,1,,,,,,,,0,,45,100
96000,note_on,,0,0,1,,,,,,,,0,,52,100
96000,note_on,,12,0,1,,,,,,,,0,,61,100
96016,control_change,,16,0,1,,,,,,7,96,0,,,
96024,set_tempo,957953,55704,1,0,,,,,,,,,,,
96048,control_change,,32,0,1,,,,,,7,97,0,,,
96048,set_tempo,963585,24,1,0,,,,,,,,,,,
96072,set_tempo,969473,24,1,0,,,,,,,,,,,
96080,control_change,,32,0,1,,,,,,7,98,0,,,
96096,set_tempo,975361,24,1,0,,,,,,,,,,,
96112,control_change,,32,0,1,,,,,,7,99,0,,,
96120,set_tempo,981249,24,1,0,,,,,,,,,,,
96144,set_tempo,987137,24,1,0,,,,,,,,,,,
96144,control_change,,32,0,1,,,,,,7,100,0,,,
96168,set_tempo,993281,24,1,0,,,,,,,,,,,
96176,control_change,,32,0,1,,,,,,7,101,0,,,
96192,set_tempo,999425,24,1,0,,,,,,,,,,,
96208,control_change,,32,0,1,,,,,,7,102,0,,,
96216,set_tempo,1005569,24,1,0,,,,,,,,,,,
96240,control_change,,32,0,1,,,,,,7,103,0,,,
96240,set_tempo,1011969,24,1,0,,,,,,,,,,,
96256,control_change,,16,0,1,,,,,,7,104,0,,,
96264,set_tempo,1018369,24,1,0,,,,,,,,,,,
96288,set_tempo,1024769,24,1,0,,,,,,,,,,,
96288,control_change,,32,0,1,,,,,,7,105,0,,,
96312,set_tempo,1031425,24,1,0,,,,,,,,,,,
96320,control_change,,32,0,1,,,,,,7,106,0,,,
96336,set_tempo,1037825,24,1,0,,,,,,,,,,,
96352,control_change,,32,0,1,,,,,,7,107,0,,,
96360,set_tempo,1044737,24,1,0,,,,,,,,,,,
96384,set_tempo,1051393,24,1,0,,,,,,,,,,,
96408,set_tempo,1058305,24,1,0,,,,,,,,,,,
96432,set_tempo,1065217,24,1,0,,,,,,,,,,,
96456,note_on,,104,0,1,,,,,,,,0,,52,0
96456,note_on,,0,0,1,,,,,,,,0,,61,0
96456,set_tempo,1072385,24,1,0,,,,,,,,,,,
96480,note_on,,0,0,1,,,,,,,,0,,53,100
96480,note_on,,24,0,1,,,,,,,,0,,62,100
96480,set_tempo,1079553,24,1,0,,,,,,,,,,,
96504,set_tempo,1086721,24,1,0,,,,,,,,,,,
96528,set_tempo,1094145,24,1,0,,,,,,,,,,,
96552,set_tempo,1101569,24,1,0,,,,,,,,,,,
96576,set_tempo,1109249,24,1,0,,,,,,,,,,,
96600,set_tempo,1116929,24,1,0,,,,,,,,,,,
96616,control_change,,136,0,1,,,,,,7,105,0,,,
96624,set_tempo,1124609,24,1,0,,,,,,,,,,,
96632,control_change,,16,0,1,,,,,,7,102,0,,,
96648,set_tempo,1132545,24,1,0,,,,,,,,,,,
96648,control_change,,16,0,1,,,,,,7,100,0,,,
96664,control_change,,16,0,1,,,,,,7,97,0,,,
96672,set_tempo,1140481,24,1,0,,,,,,,,,,,
96680,control_change,,16,0,1,,,,,,7,95,0,,,
96696,set_tempo,1148673,24,1,0,,,,,,,,,,,
96696,control_change,,16,0,1,,,,,,7,92,0,,,
96712,control_change,,16,0,1,,,,,,7,90,0,,,
96720,set_tempo,1156865,24,1,0,,,,,,,,,,,
96728,control_change,,16,0,1,,,,,,7,87,0,,,
96744,control_change,,16,0,1,,,,,,7,85,0,,,
96744,set_tempo,1165313,24,1,0,,,,,,,,,,,
96760,control_change,,16,0,1,,,,,,7,82,0,,,
96768,set_tempo,1173761,24,1,0,,,,,,,,,,,
96776,control_change,,16,0,1,,,,,,7,80,0,,,
96792,control_change,,16,0,1,,,,,,7,77,0,,,
96792,set_tempo,1182209,24,1,0,,,,,,,,,,,
96808,control_change,,16,0,1,,,,,,7,75,0,,,
96816,set_tempo,1190913,24,1,0,,,,,,,,,,,
96824,control_change,,16,0,1,,,,,,7,72,0,,,
96840,control_change,,16,0,1,,,,,,7,70,0,,,
96840,set_tempo,1199873,24,1,0,,,,,,,,,,,
96936,note_on,,96,0,1,,,,,,,,0,,53,0
96936,note_on,,0,0,1,,,,,,,,0,,62,0
96936,note_on,,0,0,1,,,,,,,,0,,69,0
96936,note_on,,0,0,1,,,,,,,,0,,45,0
96960,set_tempo,1499905,120,1,0,,,,,,,,,,,
96960,note_on,,24,0,1,,,,,,,,0,,65,100
96960,note_on,,0,0,1,,,,,,,,0,,74,100
96960,note_on,,0,0,1,,,,,,,,0,,45,100
96960,note_on,,0,0,1,,,,,,,,0,,38,100
97896,note_on,,0,0,1,,,,,,,,0,,65,0
97896,note_on,,936,0,1,,,,,,,,0,,38,0
97896,note_on,,0,0,1,,,,,,,,0,,45,0
97896,note_on,,0,0,1,,,,,,,,0,,74,0
97920,end_of_track,,24,1,1,,,,,,,,,,,
97920,end_of_track,,960,1,0,,,,,,,,,,,
97920,end_of_track,,3852,1,2,,,,,,,,,,,
