tick,type,data,time,meta,track,numerator,denominator,clocks_per_click,notated_32nd_notes_per_beat,key,tempo,port,program,channel,control,value,note,velocity
0,sequencer_specific,"(0, 0, 65)",0,1,0,,,,,,,,,,,,,
0,midi_port,,0,1,3,,,,,,,0,,,,,,
0,end_of_track,,0,1,2,,,,,,,,,,,,,
0,track_name,,0,1,2,,,,,,,,,,,,,
0,midi_port,,0,1,2,,,,,,,0,,,,,,
0,track_name,,0,1,3,,,,,,,,,,,,,
0,control_change,,0,0,1,,,,,,,,,0,10,64,,
0,control_change,,0,0,1,,,,,,,,,0,7,127,,
0,program_change,,0,0,1,,,,,,,,1,0,,,,
0,track_name,,0,1,1,,,,,,,,,,,,,
0,midi_port,,0,1,1,,,,,,,0,,,,,,
0,end_of_track,,0,1,3,,,,,,,,,,,,,
0,time_signature,,0,1,0,4,4,24,8,,,,,,,,,
0,key_signature,,0,1,0,,,,,C,,,,,,,,
0,set_tempo,,0,1,0,,,,,,476190,,,,,,,
357,control_change,,357,0,1,,,,,,,,,0,121,0,,
357,control_change,,0,0,1,,,,,,,,,0,0,0,,
357,control_change,,0,0,1,,,,,,,,,0,7,127,,
357,program_change,,0,0,1,,,,,,,,1,0,,,,
357,note_on,,0,0,1,,,,,,,,,0,,,56,115
358,note_on,,1,0,1,,,,,,,,,0,,,44,120
358,note_on,,0,0,1,,,,,,,,,0,,,68,113
358,note_on,,0,0,1,,,,,,,,,0,,,80,117
385,note_on,,27,0,1,,,,,,,,,0,,,78,103
394,note_on,,9,0,1,,,,,,,,,0,,,80,0
413,note_on,,19,0,1,,,,,,,,,0,,,56,0
415,note_on,,2,0,1,,,,,,,,,0,,,76,107
418,note_on,,3,0,1,,,,,,,,,0,,,68,0
419,note_on,,1,0,1,,,,,,,,,0,,,44,0
423,note_on,,4,0,1,,,,,,,,,0,,,78,0
445,note_on,,22,0,1,,,,,,,,,0,,,75,106
445,note_on,,0,0,1,,,,,,,,,0,,,76,0
472,note_on,,27,0,1,,,,,,,,,0,,,73,116
473,note_on,,1,0,1,,,,,,,,,0,,,49,112
473,note_on,,0,0,1,,,,,,,,,0,,,85,116
475,note_on,,2,0,1,,,,,,,,,0,,,37,119
475,note_on,,0,0,1,,,,,,,,,0,,,75,0
500,note_on,,25,0,1,,,,,,,,,0,,,37,0
505,note_on,,5,0,1,,,,,,,,,0,,,75,99
509,note_on,,0,0,1,,,,,,,,,0,,,85,0
509,note_on,,4,0,1,,,,,,,,,0,,,73,0
510,note_on,,1,0,1,,,,,,,,,0,,,49,0
530,note_on,,20,0,1,,,,,,,,,0,,,75,0
531,note_on,,1,0,1,,,,,,,,,0,,,72,106
563,note_on,,32,0,1,,,,,,,,,0,,,73,103
568,note_on,,5,0,1,,,,,,,,,0,,,72,0
590,note_on,,22,0,1,,,,,,,,,0,,,75,103
591,note_on,,1,0,1,,,,,,,,,0,,,69,106
591,note_on,,0,0,1,,,,,,,,,0,,,66,112
595,note_on,,4,0,1,,,,,,,,,0,,,73,0
620,note_on,,25,0,1,,,,,,,,,0,,,76,105
620,note_on,,0,0,1,,,,,,,,,0,,,75,0
621,note_on,,1,0,1,,,,,,,,,0,,,69,0
645,note_on,,24,0,1,,,,,,,,,0,,,76,0
650,note_on,,5,0,1,,,,,,,,,0,,,73,103
678,note_on,,28,0,1,,,,,,,,,0,,,75,98
682,note_on,,4,0,1,,,,,,,,,0,,,73,0
706,note_on,,24,0,1,,,,,,,,,0,,,68,94
707,note_on,,1,0,1,,,,,,,,,0,,,76,108
707,note_on,,0,0,1,,,,,,,,,0,,,64,97
708,note_on,,1,0,1,,,,,,,,,0,,,75,0
736,note_on,,28,0,1,,,,,,,,,0,,,68,0
737,note_on,,1,0,1,,,,,,,,,0,,,64,0
737,note_on,,0,0,1,,,,,,,,,0,,,76,0
738,note_on,,1,0,1,,,,,,,,,0,,,78,89
760,note_on,,22,0,1,,,,,,,,,0,,,78,0
765,note_on,,5,0,1,,,,,,,,,0,,,75,108
792,note_on,,27,0,1,,,,,,,,,0,,,76,99
793,note_on,,1,0,1,,,,,,,,,0,,,75,0
822,note_on,,29,0,1,,,,,,,,,0,,,78,103
823,note_on,,1,0,1,,,,,,,,,0,,,63,94
825,note_on,,2,0,1,,,,,,,,,0,,,76,0
838,note_on,,13,0,1,,,,,,,,,0,,,66,0
852,note_on,,14,0,1,,,,,,,,,0,,,80,93
853,note_on,,1,0,1,,,,,,,,,0,,,63,0
857,note_on,,4,0,1,,,,,,,,,0,,,78,0
878,note_on,,21,0,1,,,,,,,,,0,,,80,0
881,note_on,,3,0,1,,,,,,,,,0,,,76,95
913,note_on,,32,0,1,,,,,,,,,0,,,78,99
917,note_on,,4,0,1,,,,,,,,,0,,,76,0
942,note_on,,25,0,1,,,,,,,,,0,,,80,116
942,note_on,,0,0,1,,,,,,,,,0,,,64,109
942,note_on,,0,0,1,,,,,,,,,0,,,61,103
946,note_on,,4,0,1,,,,,,,,,0,,,78,0
975,note_on,,29,0,1,,,,,,,,,0,,,81,106
978,note_on,,3,0,1,,,,,,,,,0,,,80,0
1001,note_on,,23,0,1,,,,,,,,,0,,,81,0
1003,note_on,,2,0,1,,,,,,,,,0,,,80,118
1019,note_on,,16,0,1,,,,,,,,,0,,,64,0
1019,note_on,,0,0,1,,,,,,,,,0,,,61,0
1032,note_on,,13,0,1,,,,,,,,,0,,,80,0
1033,note_on,,1,0,1,,,,,,,,,0,,,85,113
1063,note_on,,0,0,1,,,,,,,,,0,,,66,101
1063,note_on,,30,0,1,,,,,,,,,0,,,57,101
1065,note_on,,2,0,1,,,,,,,,,0,,,78,122
1065,note_on,,0,0,1,,,,,,,,,0,,,61,99
1065,note_on,,0,0,1,,,,,,,,,0,,,85,0
1093,note_on,,28,0,1,,,,,,,,,0,,,80,104
1098,note_on,,5,0,1,,,,,,,,,0,,,78,0
1117,note_on,,19,0,1,,,,,,,,,0,,,80,0
1122,note_on,,5,0,1,,,,,,,,,0,,,78,104
1123,note_on,,1,0,1,,,,,,,,,0,,,57,0
1123,note_on,,0,0,1,,,,,,,,,0,,,66,0
1125,note_on,,2,0,1,,,,,,,,,0,,,61,0
1149,note_on,,24,0,1,,,,,,,,,0,,,78,0
1150,note_on,,1,0,1,,,,,,,,,0,,,85,109
1180,note_on,,0,0,1,,,,,,,,,0,,,64,98
1180,note_on,,0,0,1,,,,,,,,,0,,,76,114
1180,note_on,,30,0,1,,,,,,,,,0,,,56,100
1181,note_on,,1,0,1,,,,,,,,,0,,,61,100
1188,note_on,,7,0,1,,,,,,,,,0,,,85,0
1211,note_on,,23,0,1,,,,,,,,,0,,,78,108
1217,note_on,,6,0,1,,,,,,,,,0,,,76,0
1240,note_on,,23,0,1,,,,,,,,,0,,,64,0
1240,note_on,,0,0,1,,,,,,,,,0,,,56,0
1241,note_on,,1,0,1,,,,,,,,,0,,,76,110
1241,note_on,,0,0,1,,,,,,,,,0,,,61,0
1242,note_on,,1,0,1,,,,,,,,,0,,,78,0
1269,note_on,,27,0,1,,,,,,,,,0,,,76,0
1271,note_on,,2,0,1,,,,,,,,,0,,,85,108
1302,note_on,,31,0,1,,,,,,,,,0,,,63,111
1302,note_on,,0,0,1,,,,,,,,,0,,,75,121
1303,note_on,,1,0,1,,,,,,,,,0,,,54,102
1303,note_on,,0,0,1,,,,,,,,,0,,,61,103
1309,note_on,,6,0,1,,,,,,,,,0,,,85,0
1332,note_on,,23,0,1,,,,,,,,,0,,,76,102
1332,note_on,,0,0,1,,,,,,,,,0,,,75,0
1357,note_on,,25,0,1,,,,,,,,,0,,,76,0
1360,note_on,,3,0,1,,,,,,,,,0,,,75,115
1362,note_on,,2,0,1,,,,,,,,,0,,,63,0
1363,note_on,,1,0,1,,,,,,,,,0,,,54,0
1363,note_on,,0,0,1,,,,,,,,,0,,,61,0
1388,note_on,,25,0,1,,,,,,,,,0,,,85,109
1390,note_on,,2,0,1,,,,,,,,,0,,,75,0
1405,note_on,,15,0,1,,,,,,,,,0,,,49,98
1418,note_on,,13,0,1,,,,,,,,,0,,,56,100
1423,note_on,,5,0,1,,,,,,,,,0,,,85,0
1425,note_on,,2,0,1,,,,,,,,,0,,,73,115
1426,note_on,,1,0,1,,,,,,,,,0,,,64,118
1435,note_on,,9,0,1,,,,,,,,,0,,,49,0
1460,note_on,,25,0,1,,,,,,,,,0,,,80,100
1469,note_on,,0,0,1,,,,,,,,,0,,,64,0
1469,note_on,,9,0,1,,,,,,,,,0,,,56,0
1485,note_on,,16,0,1,,,,,,,,,0,,,73,0
1486,note_on,,1,0,1,,,,,,,,,0,,,88,109
1513,note_on,,27,0,1,,,,,,,,,0,,,80,0
1515,note_on,,2,0,1,,,,,,,,,0,,,81,102
1516,note_on,,1,0,1,,,,,,,,,0,,,88,0
1518,note_on,,2,0,1,,,,,,,,,0,,,44,107
1535,note_on,,17,0,1,,,,,,,,,0,,,54,93
1543,note_on,,8,0,1,,,,,,,,,0,,,60,123
1545,note_on,,0,0,1,,,,,,,,,0,,,81,0
1545,note_on,,2,0,1,,,,,,,,,0,,,72,117
1575,note_on,,30,0,1,,,,,,,,,0,,,78,102
1578,note_on,,3,0,1,,,,,,,,,0,,,44,0
1595,note_on,,17,0,1,,,,,,,,,0,,,54,0
1603,note_on,,8,0,1,,,,,,,,,0,,,87,118
1603,note_on,,0,0,1,,,,,,,,,0,,,60,0
1605,note_on,,2,0,1,,,,,,,,,0,,,72,0
1633,note_on,,28,0,1,,,,,,,,,0,,,87,0
1634,note_on,,1,0,1,,,,,,,,,0,,,78,0
1635,note_on,,1,0,1,,,,,,,,,0,,,80,97
1660,note_on,,25,0,1,,,,,,,,,0,,,61,116
1660,note_on,,0,0,1,,,,,,,,,0,,,49,115
1662,note_on,,2,0,1,,,,,,,,,0,,,52,109
1662,note_on,,0,0,1,,,,,,,,,0,,,68,116
1665,note_on,,3,0,1,,,,,,,,,0,,,80,0
1693,note_on,,28,0,1,,,,,,,,,0,,,76,101
1720,note_on,,27,0,1,,,,,,,,,0,,,61,0
1720,note_on,,0,0,1,,,,,,,,,0,,,49,0
1721,note_on,,1,0,1,,,,,,,,,0,,,85,113
1722,note_on,,1,0,1,,,,,,,,,0,,,52,0
1722,note_on,,0,0,1,,,,,,,,,0,,,68,0
1749,note_on,,27,0,1,,,,,,,,,0,,,85,0
1752,note_on,,3,0,1,,,,,,,,,0,,,78,93
1753,note_on,,1,0,1,,,,,,,,,0,,,76,0
1780,note_on,,27,0,1,,,,,,,,,0,,,56,113
1781,note_on,,1,0,1,,,,,,,,,0,,,68,117
1781,note_on,,0,0,1,,,,,,,,,0,,,44,126
1782,note_on,,1,0,1,,,,,,,,,0,,,78,0
1812,note_on,,30,0,1,,,,,,,,,0,,,75,99
1838,note_on,,26,0,1,,,,,,,,,0,,,84,103
1840,note_on,,2,0,1,,,,,,,,,0,,,56,0
1841,note_on,,0,0,1,,,,,,,,,0,,,68,0
1841,note_on,,1,0,1,,,,,,,,,0,,,44,0
1842,note_on,,1,0,1,,,,,,,,,0,,,75,0
1867,note_on,,25,0,1,,,,,,,,,0,,,76,97
1868,note_on,,1,0,1,,,,,,,,,0,,,84,0
1897,note_on,,29,0,1,,,,,,,,,0,,,61,96
1897,note_on,,0,0,1,,,,,,,,,0,,,76,0
1900,note_on,,3,0,1,,,,,,,,,0,,,85,118
1901,note_on,,1,0,1,,,,,,,,,0,,,73,112
1902,note_on,,1,0,1,,,,,,,,,0,,,49,114
1903,note_on,,1,0,1,,,,,,,,,0,,,37,125
1917,note_on,,14,0,1,,,,,,,,,0,,,37,0
1949,note_on,,32,0,1,,,,,,,,,0,,,61,0
1949,note_on,,0,0,1,,,,,,,,,0,,,49,0
1957,note_on,,8,0,1,,,,,,,,,0,,,73,0
1964,note_on,,7,0,1,,,,,,,,,0,,,85,0
1965,note_on,,1,0,1,,,,,,,,,0,,,69,115
1966,note_on,,1,0,1,,,,,,,,,0,,,57,113
1967,note_on,,1,0,1,,,,,,,,,0,,,45,120
1992,note_on,,25,0,1,,,,,,,,,0,,,81,99
1996,note_on,,4,0,1,,,,,,,,,0,,,57,0
1996,note_on,,0,0,1,,,,,,,,,0,,,69,0
1997,note_on,,1,0,1,,,,,,,,,0,,,45,0
2022,note_on,,25,0,1,,,,,,,,,0,,,81,0
2027,note_on,,5,0,1,,,,,,,,,0,,,68,124
2027,note_on,,0,0,1,,,,,,,,,0,,,56,114
2028,note_on,,1,0,1,,,,,,,,,0,,,44,124
2058,note_on,,30,0,1,,,,,,,,,0,,,80,112
2062,note_on,,4,0,1,,,,,,,,,0,,,44,0
2068,note_on,,6,0,1,,,,,,,,,0,,,56,0
2069,note_on,,1,0,1,,,,,,,,,0,,,68,0
2088,note_on,,19,0,1,,,,,,,,,0,,,67,112
2088,note_on,,0,0,1,,,,,,,,,0,,,80,0
2090,note_on,,0,0,1,,,,,,,,,0,,,55,99
2090,note_on,,2,0,1,,,,,,,,,0,,,43,106
2115,note_on,,25,0,1,,,,,,,,,0,,,79,94
2117,note_on,,2,0,1,,,,,,,,,0,,,67,0
2120,note_on,,0,0,1,,,,,,,,,0,,,55,0
2120,note_on,,3,0,1,,,,,,,,,0,,,43,0
2145,note_on,,25,0,1,,,,,,,,,0,,,79,0
2150,note_on,,5,0,1,,,,,,,,,0,,,56,112
2152,note_on,,2,0,1,,,,,,,,,0,,,68,117
2152,note_on,,0,0,1,,,,,,,,,0,,,44,120
2181,note_on,,29,0,1,,,,,,,,,0,,,80,113
2182,note_on,,1,0,1,,,,,,,,,0,,,44,0
2210,note_on,,28,0,1,,,,,,,,,0,,,56,0
2211,note_on,,1,0,1,,,,,,,,,0,,,80,0
2212,note_on,,1,0,1,,,,,,,,,0,,,68,0
2217,note_on,,5,0,1,,,,,,,,,0,,,37,125
2218,note_on,,1,0,1,,,,,,,,,0,,,49,117
2220,note_on,,2,0,1,,,,,,,,,0,,,61,121
2235,note_on,,15,0,1,,,,,,,,,0,,,37,0
2243,note_on,,8,0,1,,,,,,,,,0,,,73,104
2244,note_on,,1,0,1,,,,,,,,,0,,,49,0
2250,note_on,,6,0,1,,,,,,,,,0,,,61,0
2273,note_on,,23,0,1,,,,,,,,,0,,,73,0
2282,note_on,,9,0,1,,,,,,,,,0,,,75,118
2282,note_on,,0,0,1,,,,,,,,,0,,,63,111
2283,note_on,,1,0,1,,,,,,,,,0,,,67,107
2283,note_on,,0,0,1,,,,,,,,,0,,,61,116
2283,note_on,,0,0,1,,,,,,,,,0,,,70,100
2283,note_on,,0,0,1,,,,,,,,,0,,,51,119
2313,note_on,,30,0,1,,,,,,,,,0,,,49,97
2319,note_on,,6,0,1,,,,,,,,,0,,,51,0
2338,note_on,,19,0,1,,,,,,,,,0,,,49,0
2342,note_on,,4,0,1,,,,,,,,,0,,,47,104
2344,note_on,,2,0,1,,,,,,,,,0,,,75,0
2346,note_on,,2,0,1,,,,,,,,,0,,,67,0
2347,note_on,,1,0,1,,,,,,,,,0,,,70,0
2350,note_on,,3,0,1,,,,,,,,,0,,,63,0
2358,note_on,,8,0,1,,,,,,,,,0,,,61,0
2368,note_on,,10,0,1,,,,,,,,,0,,,46,104
2368,note_on,,0,0,1,,,,,,,,,0,,,47,0
2400,note_on,,32,0,1,,,,,,,,,0,,,46,0
2402,note_on,,2,0,1,,,,,,,,,0,,,59,107
2402,note_on,,0,0,1,,,,,,,,,0,,,44,98
2403,note_on,,1,0,1,,,,,,,,,0,,,71,98
2403,note_on,,0,0,1,,,,,,,,,0,,,68,97
2403,note_on,,0,0,1,,,,,,,,,0,,,63,95
2424,note_on,,21,0,1,,,,,,,,,0,,,59,0
2425,note_on,,1,0,1,,,,,,,,,0,,,44,0
2428,note_on,,3,0,1,,,,,,,,,0,,,68,0
2429,note_on,,1,0,1,,,,,,,,,0,,,71,0
2430,note_on,,1,0,1,,,,,,,,,0,,,46,93
2438,note_on,,8,0,1,,,,,,,,,0,,,63,0
2453,note_on,,15,0,1,,,,,,,,,0,,,46,0
2460,note_on,,7,0,1,,,,,,,,,0,,,43,91
2485,note_on,,25,0,1,,,,,,,,,0,,,43,0
2488,note_on,,3,0,1,,,,,,,,,0,,,44,98
2516,note_on,,28,0,1,,,,,,,,,0,,,46,95
2516,note_on,,0,0,1,,,,,,,,,0,,,44,0
2517,note_on,,1,0,1,,,,,,,,,0,,,61,97
2517,note_on,,0,0,1,,,,,,,,,0,,,63,91
2518,note_on,,1,0,1,,,,,,,,,0,,,67,98
2542,note_on,,24,0,1,,,,,,,,,0,,,46,0
2545,note_on,,3,0,1,,,,,,,,,0,,,47,95
2577,note_on,,0,0,1,,,,,,,,,0,,,47,0
2577,note_on,,32,0,1,,,,,,,,,0,,,44,91
2577,note_on,,0,0,1,,,,,,,,,0,,,61,0
2577,note_on,,0,0,1,,,,,,,,,0,,,63,0
2578,note_on,,1,0,1,,,,,,,,,0,,,67,0
2604,note_on,,26,0,1,,,,,,,,,0,,,44,0
2606,note_on,,2,0,1,,,,,,,,,0,,,46,98
2634,note_on,,28,0,1,,,,,,,,,0,,,46,0
2636,note_on,,2,0,1,,,,,,,,,0,,,68,98
2637,note_on,,0,0,1,,,,,,,,,0,,,47,94
2637,note_on,,1,0,1,,,,,,,,,0,,,59,96
2638,note_on,,1,0,1,,,,,,,,,0,,,63,97
2662,note_on,,24,0,1,,,,,,,,,0,,,47,0
2665,note_on,,3,0,1,,,,,,,,,0,,,49,97
2695,note_on,,30,0,1,,,,,,,,,0,,,46,100
2696,note_on,,0,0,1,,,,,,,,,0,,,68,0
2696,note_on,,1,0,1,,,,,,,,,0,,,49,0
2697,note_on,,1,0,1,,,,,,,,,0,,,59,0
2698,note_on,,1,0,1,,,,,,,,,0,,,63,0
2719,note_on,,21,0,1,,,,,,,,,0,,,46,0
2723,note_on,,4,0,1,,,,,,,,,0,,,47,95
2753,note_on,,30,0,1,,,,,,,,,0,,,47,0
2755,note_on,,2,0,1,,,,,,,,,0,,,68,89
2755,note_on,,0,0,1,,,,,,,,,0,,,61,88
2755,note_on,,0,0,1,,,,,,,,,0,,,64,92
2756,note_on,,1,0,1,,,,,,,,,0,,,49,89
2782,note_on,,26,0,1,,,,,,,,,0,,,49,0
2785,note_on,,3,0,1,,,,,,,,,0,,,51,92
2815,note_on,,0,0,1,,,,,,,,,0,,,64,0
2815,note_on,,0,0,1,,,,,,,,,0,,,68,0
2815,note_on,,0,0,1,,,,,,,,,0,,,61,0
2815,note_on,,30,0,1,,,,,,,,,0,,,51,0
2816,note_on,,1,0,1,,,,,,,,,0,,,47,94
2837,note_on,,21,0,1,,,,,,,,,0,,,47,0
2842,note_on,,5,0,1,,,,,,,,,0,,,49,92
2874,note_on,,32,0,1,,,,,,,,,0,,,49,0
2875,note_on,,1,0,1,,,,,,,,,0,,,68,93
2875,note_on,,0,0,1,,,,,,,,,0,,,63,99
2875,note_on,,0,0,1,,,,,,,,,0,,,51,97
2875,note_on,,0,0,1,,,,,,,,,0,,,59,92
2905,note_on,,30,0,1,,,,,,,,,0,,,52,94
2905,note_on,,0,0,1,,,,,,,,,0,,,51,0
2923,note_on,,18,0,1,,,,,,,,,0,,,52,0
2933,note_on,,10,0,1,,,,,,,,,0,,,51,92
2939,note_on,,6,0,1,,,,,,,,,0,,,59,0
2940,note_on,,1,0,1,,,,,,,,,0,,,68,0
2940,note_on,,0,0,1,,,,,,,,,0,,,63,0
2958,note_on,,18,0,1,,,,,,,,,0,,,51,0
2962,note_on,,4,0,1,,,,,,,,,0,,,56,94
2987,note_on,,25,0,1,,,,,,,,,0,,,56,0
2991,note_on,,4,0,1,,,,,,,,,0,,,68,89
2991,note_on,,0,0,1,,,,,,,,,0,,,61,84
2992,note_on,,1,0,1,,,,,,,,,0,,,64,95
2995,note_on,,3,0,1,,,,,,,,,0,,,49,86
3018,note_on,,23,0,1,,,,,,,,,0,,,49,0
3023,note_on,,5,0,1,,,,,,,,,0,,,51,94
3049,note_on,,26,0,1,,,,,,,,,0,,,51,0
3051,note_on,,2,0,1,,,,,,,,,0,,,61,0
3051,note_on,,0,0,1,,,,,,,,,0,,,68,0
3052,note_on,,1,0,1,,,,,,,,,0,,,49,92
3052,note_on,,0,0,1,,,,,,,,,0,,,64,0
3077,note_on,,25,0,1,,,,,,,,,0,,,49,0
3080,note_on,,3,0,1,,,,,,,,,0,,,56,91
3101,note_on,,21,0,1,,,,,,,,,0,,,56,0
3110,note_on,,9,0,1,,,,,,,,,0,,,68,94
3111,note_on,,1,0,1,,,,,,,,,0,,,63,99
3112,note_on,,1,0,1,,,,,,,,,0,,,47,97
3137,note_on,,25,0,1,,,,,,,,,0,,,47,0
3140,note_on,,3,0,1,,,,,,,,,0,,,49,100
3165,note_on,,25,0,1,,,,,,,,,0,,,49,0
3168,note_on,,3,0,1,,,,,,,,,0,,,47,95
3170,note_on,,2,0,1,,,,,,,,,0,,,68,0
3171,note_on,,1,0,1,,,,,,,,,0,,,63,0
3187,note_on,,16,0,1,,,,,,,,,0,,,47,0
3193,note_on,,6,0,1,,,,,,,,,0,,,56,91
3215,note_on,,22,0,1,,,,,,,,,0,,,56,0
3225,note_on,,10,0,1,,,,,,,,,0,,,70,88
3225,note_on,,0,0,1,,,,,,,,,0,,,46,97
3227,note_on,,0,0,1,,,,,,,,,0,,,63,65
3227,note_on,,2,0,1,,,,,,,,,0,,,61,72
3247,note_on,,20,0,1,,,,,,,,,0,,,46,0
3253,note_on,,6,0,1,,,,,,,,,0,,,47,91
3282,note_on,,29,0,1,,,,,,,,,0,,,46,95
3283,note_on,,1,0,1,,,,,,,,,0,,,47,0
3285,note_on,,2,0,1,,,,,,,,,0,,,70,0
3287,note_on,,2,0,1,,,,,,,,,0,,,63,0
3287,note_on,,0,0,1,,,,,,,,,0,,,61,0
3307,note_on,,20,0,1,,,,,,,,,0,,,46,0
3310,note_on,,3,0,1,,,,,,,,,0,,,55,95
3332,note_on,,22,0,1,,,,,,,,,0,,,55,0
3340,note_on,,8,0,1,,,,,,,,,0,,,71,93
3340,note_on,,0,0,1,,,,,,,,,0,,,44,108
3342,note_on,,2,0,1,,,,,,,,,0,,,68,92
3342,note_on,,0,0,1,,,,,,,,,0,,,63,91
3342,note_on,,0,0,1,,,,,,,,,0,,,59,91
3372,note_on,,30,0,1,,,,,,,,,0,,,52,104
3372,note_on,,0,0,1,,,,,,,,,0,,,44,0
3382,note_on,,10,0,1,,,,,,,,,0,,,59,0
3397,note_on,,15,0,1,,,,,,,,,0,,,52,0
3400,note_on,,3,0,1,,,,,,,,,0,,,71,0
3402,note_on,,2,0,1,,,,,,,,,0,,,59,105
3402,note_on,,0,0,1,,,,,,,,,0,,,68,0
3402,note_on,,0,0,1,,,,,,,,,0,,,63,0
3431,note_on,,29,0,1,,,,,,,,,0,,,51,104
3461,note_on,,30,0,1,,,,,,,,,0,,,51,0
3462,note_on,,1,0,1,,,,,,,,,0,,,87,123
3462,note_on,,0,0,1,,,,,,,,,0,,,59,0
3463,note_on,,1,0,1,,,,,,,,,0,,,82,119
3463,note_on,,0,0,1,,,,,,,,,0,,,75,118
3465,note_on,,2,0,1,,,,,,,,,0,,,43,104
3492,note_on,,27,0,1,,,,,,,,,0,,,43,0
3496,note_on,,4,0,1,,,,,,,,,0,,,52,90
3526,note_on,,0,0,1,,,,,,,,,0,,,52,0
3526,note_on,,30,0,1,,,,,,,,,0,,,58,99
3553,note_on,,27,0,1,,,,,,,,,0,,,51,99
3568,note_on,,15,0,1,,,,,,,,,0,,,75,0
3582,note_on,,14,0,1,,,,,,,,,0,,,87,0
3583,note_on,,1,0,1,,,,,,,,,0,,,44,109
3583,note_on,,0,0,1,,,,,,,,,0,,,51,0
3585,note_on,,2,0,1,,,,,,,,,0,,,75,93
3586,note_on,,1,0,1,,,,,,,,,0,,,83,105
3586,note_on,,0,0,1,,,,,,,,,0,,,58,0
3588,note_on,,2,0,1,,,,,,,,,0,,,82,0
3613,note_on,,25,0,1,,,,,,,,,0,,,44,0
3615,note_on,,2,0,1,,,,,,,,,0,,,52,100
3643,note_on,,28,0,1,,,,,,,,,0,,,59,99
3645,note_on,,0,0,1,,,,,,,,,0,,,75,0
3645,note_on,,2,0,1,,,,,,,,,0,,,52,0
3646,note_on,,1,0,1,,,,,,,,,0,,,83,0
3670,note_on,,24,0,1,,,,,,,,,0,,,51,106
3700,note_on,,30,0,1,,,,,,,,,0,,,51,0
3701,note_on,,1,0,1,,,,,,,,,0,,,63,124
3702,note_on,,1,0,1,,,,,,,,,0,,,75,124
3702,note_on,,0,0,1,,,,,,,,,0,,,70,117
3702,note_on,,0,0,1,,,,,,,,,0,,,43,98
3703,note_on,,1,0,1,,,,,,,,,0,,,59,0
3725,note_on,,22,0,1,,,,,,,,,0,,,43,0
3735,note_on,,10,0,1,,,,,,,,,0,,,52,92
3762,note_on,,27,0,1,,,,,,,,,0,,,58,99
3765,note_on,,3,0,1,,,,,,,,,0,,,52,0
3775,note_on,,10,0,1,,,,,,,,,0,,,63,0
3788,note_on,,13,0,1,,,,,,,,,0,,,51,92
3792,note_on,,4,0,1,,,,,,,,,0,,,75,0
3819,note_on,,27,0,1,,,,,,,,,0,,,51,0
3822,note_on,,3,0,1,,,,,,,,,0,,,58,0
3825,note_on,,3,0,1,,,,,,,,,0,,,71,102
3825,note_on,,0,0,1,,,,,,,,,0,,,44,93
3827,note_on,,2,0,1,,,,,,,,,0,,,63,91
3827,note_on,,0,0,1,,,,,,,,,0,,,56,89
3829,note_on,,2,0,1,,,,,,,,,0,,,70,0
3885,note_on,,0,0,1,,,,,,,,,0,,,44,0
3885,note_on,,56,0,1,,,,,,,,,0,,,71,0
3887,note_on,,0,0,1,,,,,,,,,0,,,56,0
3887,note_on,,2,0,1,,,,,,,,,0,,,63,0
3893,note_on,,6,0,1,,,,,,,,,0,,,64,106
3895,note_on,,2,0,1,,,,,,,,,0,,,61,79
3925,note_on,,30,0,1,,,,,,,,,0,,,67,89
3936,note_on,,11,0,1,,,,,,,,,0,,,64,0
3943,note_on,,7,0,1,,,,,,,,,0,,,61,0
3955,note_on,,12,0,1,,,,,,,,,0,,,63,91
3955,note_on,,0,0,1,,,,,,,,,0,,,59,79
3955,note_on,,0,0,1,,,,,,,,,0,,,67,0
3985,note_on,,30,0,1,,,,,,,,,0,,,68,88
3985,note_on,,0,0,1,,,,,,,,,0,,,59,0
3986,note_on,,1,0,1,,,,,,,,,0,,,63,0
4015,note_on,,29,0,1,,,,,,,,,0,,,67,105
4015,note_on,,0,0,1,,,,,,,,,0,,,68,0
4017,note_on,,2,0,1,,,,,,,,,0,,,64,96
4045,note_on,,28,0,1,,,,,,,,,0,,,70,89
4052,note_on,,7,0,1,,,,,,,,,0,,,67,0
4075,note_on,,23,0,1,,,,,,,,,0,,,66,91
4075,note_on,,0,0,1,,,,,,,,,0,,,63,89
4077,note_on,,2,0,1,,,,,,,,,0,,,64,0
4083,note_on,,6,0,1,,,,,,,,,0,,,70,0
4101,note_on,,18,0,1,,,,,,,,,0,,,71,91
4105,note_on,,4,0,1,,,,,,,,,0,,,66,0
4105,note_on,,0,0,1,,,,,,,,,0,,,63,0
4131,note_on,,26,0,1,,,,,,,,,0,,,71,0
4135,note_on,,4,0,1,,,,,,,,,0,,,69,109
4135,note_on,,0,0,1,,,,,,,,,0,,,66,99
4163,note_on,,28,0,1,,,,,,,,,0,,,72,102
4192,note_on,,29,0,1,,,,,,,,,0,,,68,109
4193,note_on,,1,0,1,,,,,,,,,0,,,64,93
4197,note_on,,4,0,1,,,,,,,,,0,,,69,0
4198,note_on,,1,0,1,,,,,,,,,0,,,66,0
4199,note_on,,1,0,1,,,,,,,,,0,,,72,0
4220,note_on,,21,0,1,,,,,,,,,0,,,73,101
4223,note_on,,0,0,1,,,,,,,,,0,,,64,0
4223,note_on,,3,0,1,,,,,,,,,0,,,68,0
4250,note_on,,27,0,1,,,,,,,,,0,,,73,0
4251,note_on,,1,0,1,,,,,,,,,0,,,66,99
4252,note_on,,1,0,1,,,,,,,,,0,,,56,97
4252,note_on,,0,0,1,,,,,,,,,0,,,72,114
4253,note_on,,1,0,1,,,,,,,,,0,,,63,98
4281,note_on,,28,0,1,,,,,,,,,0,,,66,0
4282,note_on,,1,0,1,,,,,,,,,0,,,75,115
4290,note_on,,8,0,1,,,,,,,,,0,,,72,0
4312,note_on,,22,0,1,,,,,,,,,0,,,61,109
4313,note_on,,1,0,1,,,,,,,,,0,,,64,112
4313,note_on,,0,0,1,,,,,,,,,0,,,73,116
4314,note_on,,1,0,1,,,,,,,,,0,,,63,0
4319,note_on,,5,0,1,,,,,,,,,0,,,56,0
4320,note_on,,1,0,1,,,,,,,,,0,,,75,0
4342,note_on,,22,0,1,,,,,,,,,0,,,75,98
4349,note_on,,7,0,1,,,,,,,,,0,,,73,0
4371,note_on,,22,0,1,,,,,,,,,0,,,72,106
4372,note_on,,1,0,1,,,,,,,,,0,,,75,0
4379,note_on,,7,0,1,,,,,,,,,0,,,64,0
4379,note_on,,0,0,1,,,,,,,,,0,,,61,0
4402,note_on,,23,0,1,,,,,,,,,0,,,73,92
4405,note_on,,3,0,1,,,,,,,,,0,,,72,0
4432,note_on,,27,0,1,,,,,,,,,0,,,75,84
4432,note_on,,0,0,1,,,,,,,,,0,,,73,0
4435,note_on,,0,0,1,,,,,,,,,0,,,66,75
4435,note_on,,3,0,1,,,,,,,,,0,,,69,72
4460,note_on,,25,0,1,,,,,,,,,0,,,75,0
4463,note_on,,3,0,1,,,,,,,,,0,,,76,93
4487,note_on,,24,0,1,,,,,,,,,0,,,76,0
4492,note_on,,5,0,1,,,,,,,,,0,,,73,86
4495,note_on,,3,0,1,,,,,,,,,0,,,66,0
4495,note_on,,0,0,1,,,,,,,,,0,,,69,0
4520,note_on,,25,0,1,,,,,,,,,0,,,75,85
4522,note_on,,2,0,1,,,,,,,,,0,,,73,0
4550,note_on,,0,0,1,,,,,,,,,0,,,75,0
4550,note_on,,28,0,1,,,,,,,,,0,,,68,67
4551,note_on,,1,0,1,,,,,,,,,0,,,76,95
4553,note_on,,2,0,1,,,,,,,,,0,,,64,80
4579,note_on,,26,0,1,,,,,,,,,0,,,76,0
4583,note_on,,4,0,1,,,,,,,,,0,,,78,79
4609,note_on,,26,0,1,,,,,,,,,0,,,78,0
4610,note_on,,1,0,1,,,,,,,,,0,,,68,0
4612,note_on,,2,0,1,,,,,,,,,0,,,75,88
4613,note_on,,1,0,1,,,,,,,,,0,,,64,0
4642,note_on,,29,0,1,,,,,,,,,0,,,75,0
4643,note_on,,1,0,1,,,,,,,,,0,,,76,90
4675,note_on,,0,0,1,,,,,,,,,0,,,76,0
4675,note_on,,32,0,1,,,,,,,,,0,,,78,89
4677,note_on,,2,0,1,,,,,,,,,0,,,66,72
4678,note_on,,1,0,1,,,,,,,,,0,,,63,70
4707,note_on,,29,0,1,,,,,,,,,0,,,80,79
4711,note_on,,4,0,1,,,,,,,,,0,,,78,0
4728,note_on,,17,0,1,,,,,,,,,0,,,80,0
4735,note_on,,7,0,1,,,,,,,,,0,,,76,80
4737,note_on,,2,0,1,,,,,,,,,0,,,66,0
4738,note_on,,1,0,1,,,,,,,,,0,,,63,0
4766,note_on,,28,0,1,,,,,,,,,0,,,78,84
4768,note_on,,2,0,1,,,,,,,,,0,,,76,0
4798,note_on,,30,0,1,,,,,,,,,0,,,80,95
4800,note_on,,2,0,1,,,,,,,,,0,,,64,74
4800,note_on,,0,0,1,,,,,,,,,0,,,61,72
4803,note_on,,3,0,1,,,,,,,,,0,,,78,0
4829,note_on,,26,0,1,,,,,,,,,0,,,80,0
4830,note_on,,1,0,1,,,,,,,,,0,,,81,95
4855,note_on,,25,0,1,,,,,,,,,0,,,81,0
4858,note_on,,3,0,1,,,,,,,,,0,,,80,102
4860,note_on,,2,0,1,,,,,,,,,0,,,64,0
4860,note_on,,0,0,1,,,,,,,,,0,,,61,0
4891,note_on,,31,0,1,,,,,,,,,0,,,85,98
4891,note_on,,0,0,1,,,,,,,,,0,,,80,0
4923,note_on,,32,0,1,,,,,,,,,0,,,57,82
4923,note_on,,0,0,1,,,,,,,,,0,,,78,90
4923,note_on,,0,0,1,,,,,,,,,0,,,61,75
4923,note_on,,0,0,1,,,,,,,,,0,,,66,71
4948,note_on,,25,0,1,,,,,,,,,0,,,80,95
4949,note_on,,1,0,1,,,,,,,,,0,,,78,0
4951,note_on,,2,0,1,,,,,,,,,0,,,85,0
4977,note_on,,26,0,1,,,,,,,,,0,,,80,0
4978,note_on,,1,0,1,,,,,,,,,0,,,78,98
4983,note_on,,0,0,1,,,,,,,,,0,,,61,0
4983,note_on,,5,0,1,,,,,,,,,0,,,57,0
4983,note_on,,0,0,1,,,,,,,,,0,,,66,0
5008,note_on,,25,0,1,,,,,,,,,0,,,85,109
5009,note_on,,1,0,1,,,,,,,,,0,,,78,0
5035,note_on,,26,0,1,,,,,,,,,0,,,76,103
5036,note_on,,1,0,1,,,,,,,,,0,,,64,82
5037,note_on,,1,0,1,,,,,,,,,0,,,56,79
5037,note_on,,0,0,1,,,,,,,,,0,,,61,74
5065,note_on,,28,0,1,,,,,,,,,0,,,78,102
5068,note_on,,3,0,1,,,,,,,,,0,,,85,0
5071,note_on,,3,0,1,,,,,,,,,0,,,76,0
5094,note_on,,23,0,1,,,,,,,,,0,,,78,0
5095,note_on,,1,0,1,,,,,,,,,0,,,76,101
5096,note_on,,1,0,1,,,,,,,,,0,,,64,0
5097,note_on,,0,0,1,,,,,,,,,0,,,61,0
5097,note_on,,1,0,1,,,,,,,,,0,,,56,0
5125,note_on,,28,0,1,,,,,,,,,0,,,85,104
5127,note_on,,2,0,1,,,,,,,,,0,,,76,0
5153,note_on,,26,0,1,,,,,,,,,0,,,75,104
5155,note_on,,2,0,1,,,,,,,,,0,,,63,79
5156,note_on,,1,0,1,,,,,,,,,0,,,61,73
5157,note_on,,1,0,1,,,,,,,,,0,,,54,73
5181,note_on,,24,0,1,,,,,,,,,0,,,75,0
5183,note_on,,2,0,1,,,,,,,,,0,,,76,95
5197,note_on,,14,0,1,,,,,,,,,0,,,85,0
5213,note_on,,16,0,1,,,,,,,,,0,,,76,0
5215,note_on,,0,0,1,,,,,,,,,0,,,63,0
5215,note_on,,2,0,1,,,,,,,,,0,,,75,112
5216,note_on,,1,0,1,,,,,,,,,0,,,61,0
5217,note_on,,1,0,1,,,,,,,,,0,,,54,0
5243,note_on,,26,0,1,,,,,,,,,0,,,85,111
5248,note_on,,5,0,1,,,,,,,,,0,,,75,0
5253,note_on,,5,0,1,,,,,,,,,0,,,49,79
5273,note_on,,20,0,1,,,,,,,,,0,,,56,103
5280,note_on,,7,0,1,,,,,,,,,0,,,73,110
5286,note_on,,6,0,1,,,,,,,,,0,,,64,111
5288,control_change,,2,0,1,,,,,,,,,0,64,127,,
5307,note_on,,19,0,1,,,,,,,,,0,,,80,104
5309,note_on,,2,0,1,,,,,,,,,0,,,85,0
5337,note_on,,28,0,1,,,,,,,,,0,,,88,106
5339,note_on,,2,0,1,,,,,,,,,0,,,49,0
5339,note_on,,0,0,1,,,,,,,,,0,,,56,0
5340,control_change,,1,0,1,,,,,,,,,0,64,0,,
5340,note_on,,0,0,1,,,,,,,,,0,,,73,0
5346,note_on,,6,0,1,,,,,,,,,0,,,64,0
5363,note_on,,17,0,1,,,,,,,,,0,,,81,111
5367,note_on,,4,0,1,,,,,,,,,0,,,80,0
5377,note_on,,10,0,1,,,,,,,,,0,,,44,100
5387,note_on,,10,0,1,,,,,,,,,0,,,54,95
5393,control_change,,6,0,1,,,,,,,,,0,64,127,,
5395,note_on,,2,0,1,,,,,,,,,0,,,60,122
5396,note_on,,1,0,1,,,,,,,,,0,,,72,109
5397,note_on,,1,0,1,,,,,,,,,0,,,88,0
5400,note_on,,3,0,1,,,,,,,,,0,,,81,0
5425,note_on,,25,0,1,,,,,,,,,0,,,78,102
5430,control_change,,5,0,1,,,,,,,,,0,64,0,,
5437,note_on,,7,0,1,,,,,,,,,0,,,44,0
5447,note_on,,10,0,1,,,,,,,,,0,,,54,0
5455,note_on,,8,0,1,,,,,,,,,0,,,87,117
5455,note_on,,0,0,1,,,,,,,,,0,,,60,0
5456,note_on,,1,0,1,,,,,,,,,0,,,72,0
5482,note_on,,26,0,1,,,,,,,,,0,,,80,100
5486,note_on,,4,0,1,,,,,,,,,0,,,78,0
5488,note_on,,2,0,1,,,,,,,,,0,,,45,98
5502,note_on,,14,0,1,,,,,,,,,0,,,52,98
5506,control_change,,4,0,1,,,,,,,,,0,64,127,,
5512,note_on,,6,0,1,,,,,,,,,0,,,69,108
5513,note_on,,1,0,1,,,,,,,,,0,,,61,127
5515,note_on,,2,0,1,,,,,,,,,0,,,87,0
5542,note_on,,27,0,1,,,,,,,,,0,,,80,0
5543,note_on,,1,0,1,,,,,,,,,0,,,75,99
5548,note_on,,5,0,1,,,,,,,,,0,,,45,0
5562,note_on,,14,0,1,,,,,,,,,0,,,52,0
5572,note_on,,10,0,1,,,,,,,,,0,,,85,110
5572,note_on,,0,0,1,,,,,,,,,0,,,69,0
5573,note_on,,1,0,1,,,,,,,,,0,,,61,0
5578,control_change,,5,0,1,,,,,,,,,0,64,0,,
5597,note_on,,19,0,1,,,,,,,,,0,,,76,97
5603,note_on,,6,0,1,,,,,,,,,0,,,75,0
5628,note_on,,25,0,1,,,,,,,,,0,,,65,117
5628,note_on,,0,0,1,,,,,,,,,0,,,62,114
5630,note_on,,2,0,1,,,,,,,,,0,,,68,122
5630,note_on,,0,0,1,,,,,,,,,0,,,59,114
5630,note_on,,0,0,1,,,,,,,,,0,,,53,122
5632,note_on,,2,0,1,,,,,,,,,0,,,85,0
5636,control_change,,4,0,1,,,,,,,,,0,64,127,,
5657,note_on,,21,0,1,,,,,,,,,0,,,73,101
5657,note_on,,0,0,1,,,,,,,,,0,,,76,0
5686,note_on,,29,0,1,,,,,,,,,0,,,83,107
5690,note_on,,4,0,1,,,,,,,,,0,,,68,0
5693,note_on,,3,0,1,,,,,,,,,0,,,53,0
5694,note_on,,1,0,1,,,,,,,,,0,,,65,0
5695,note_on,,1,0,1,,,,,,,,,0,,,62,0
5696,note_on,,0,0,1,,,,,,,,,0,,,59,0
5696,control_change,,1,0,1,,,,,,,,,0,64,0,,
5717,note_on,,21,0,1,,,,,,,,,0,,,74,98
5717,note_on,,0,0,1,,,,,,,,,0,,,73,0
5745,note_on,,0,0,1,,,,,,,,,0,,,66,120
5745,note_on,,28,0,1,,,,,,,,,0,,,69,118
5746,note_on,,1,0,1,,,,,,,,,0,,,61,112
5746,note_on,,0,0,1,,,,,,,,,0,,,83,0
5747,note_on,,0,0,1,,,,,,,,,0,,,57,106
5747,note_on,,1,0,1,,,,,,,,,0,,,54,113
5748,control_change,,1,0,1,,,,,,,,,0,64,127,,
5775,note_on,,27,0,1,,,,,,,,,0,,,73,111
5777,note_on,,2,0,1,,,,,,,,,0,,,74,0
5803,note_on,,26,0,1,,,,,,,,,0,,,50,113
5803,note_on,,0,0,1,,,,,,,,,0,,,81,106
5805,note_on,,2,0,1,,,,,,,,,0,,,66,0
5806,note_on,,1,0,1,,,,,,,,,0,,,61,0
5807,note_on,,1,0,1,,,,,,,,,0,,,54,0
5807,note_on,,0,0,1,,,,,,,,,0,,,57,0
5810,control_change,,3,0,1,,,,,,,,,0,64,0,,
5812,note_on,,2,0,1,,,,,,,,,0,,,73,0
5830,note_on,,0,0,1,,,,,,,,,0,,,81,0
5830,note_on,,18,0,1,,,,,,,,,0,,,78,101
5833,note_on,,3,0,1,,,,,,,,,0,,,50,0
5835,note_on,,2,0,1,,,,,,,,,0,,,69,0
5855,note_on,,20,0,1,,,,,,,,,0,,,78,0
5862,note_on,,7,0,1,,,,,,,,,0,,,61,117
5863,note_on,,1,0,1,,,,,,,,,0,,,81,125
5863,note_on,,0,0,1,,,,,,,,,0,,,49,127
5866,control_change,,3,0,1,,,,,,,,,0,64,127,,
5888,note_on,,22,0,1,,,,,,,,,0,,,85,109
5892,note_on,,4,0,1,,,,,,,,,0,,,61,0
5893,note_on,,1,0,1,,,,,,,,,0,,,49,0
5918,note_on,,25,0,1,,,,,,,,,0,,,85,0
5920,note_on,,2,0,1,,,,,,,,,0,,,57,114
5921,note_on,,0,0,1,,,,,,,,,0,,,93,120
5921,control_change,,1,0,1,,,,,,,,,0,64,0,,
5922,note_on,,1,0,1,,,,,,,,,0,,,45,120
5947,note_on,,25,0,1,,,,,,,,,0,,,90,104
5949,note_on,,2,0,1,,,,,,,,,0,,,81,0
5950,note_on,,1,0,1,,,,,,,,,0,,,57,0
5951,note_on,,1,0,1,,,,,,,,,0,,,93,0
5952,note_on,,1,0,1,,,,,,,,,0,,,45,0
5976,note_on,,24,0,1,,,,,,,,,0,,,54,117
5977,note_on,,1,0,1,,,,,,,,,0,,,42,124
5978,note_on,,1,0,1,,,,,,,,,0,,,85,116
5982,note_on,,4,0,1,,,,,,,,,0,,,90,0
6005,note_on,,23,0,1,,,,,,,,,0,,,81,92
6006,note_on,,1,0,1,,,,,,,,,0,,,54,0
6007,note_on,,1,0,1,,,,,,,,,0,,,42,0
6008,note_on,,1,0,1,,,,,,,,,0,,,85,0
6033,note_on,,0,0,1,,,,,,,,,0,,,37,120
6033,note_on,,25,0,1,,,,,,,,,0,,,49,115
6035,note_on,,2,0,1,,,,,,,,,0,,,78,101
6035,note_on,,0,0,1,,,,,,,,,0,,,81,0
6063,note_on,,28,0,1,,,,,,,,,0,,,73,97
6063,note_on,,0,0,1,,,,,,,,,0,,,49,0
6063,note_on,,0,0,1,,,,,,,,,0,,,37,0
6070,note_on,,7,0,1,,,,,,,,,0,,,78,0
6092,note_on,,22,0,1,,,,,,,,,0,,,73,0
6093,note_on,,1,0,1,,,,,,,,,0,,,50,125
6095,note_on,,2,0,1,,,,,,,,,0,,,38,119
6095,note_on,,0,0,1,,,,,,,,,0,,,69,106
6103,control_change,,8,0,1,,,,,,,,,0,64,127,,
6125,note_on,,22,0,1,,,,,,,,,0,,,69,0
6127,note_on,,2,0,1,,,,,,,,,0,,,66,103
6138,note_on,,11,0,1,,,,,,,,,0,,,50,0
6157,note_on,,19,0,1,,,,,,,,,0,,,62,108
6160,control_change,,3,0,1,,,,,,,,,0,64,0,,
6183,note_on,,23,0,1,,,,,,,,,0,,,57,109
6187,note_on,,4,0,1,,,,,,,,,0,,,62,0
6198,note_on,,11,0,1,,,,,,,,,0,,,66,0
6213,note_on,,15,0,1,,,,,,,,,0,,,57,0
6218,note_on,,5,0,1,,,,,,,,,0,,,41,101
6220,note_on,,0,0,1,,,,,,,,,0,,,68,102
6220,note_on,,2,0,1,,,,,,,,,0,,,59,101
6220,note_on,,0,0,1,,,,,,,,,0,,,38,0
6220,note_on,,0,0,1,,,,,,,,,0,,,62,95
6250,note_on,,30,0,1,,,,,,,,,0,,,42,98
6278,note_on,,28,0,1,,,,,,,,,0,,,41,0
6280,note_on,,2,0,1,,,,,,,,,0,,,42,0
6281,note_on,,1,0,1,,,,,,,,,0,,,40,91
6308,note_on,,27,0,1,,,,,,,,,0,,,41,97
6308,note_on,,0,0,1,,,,,,,,,0,,,40,0
6340,note_on,,32,0,1,,,,,,,,,0,,,41,0
6342,note_on,,2,0,1,,,,,,,,,0,,,42,97
6345,note_on,,3,0,1,,,,,,,,,0,,,66,111
6370,note_on,,25,0,1,,,,,,,,,0,,,42,0
6370,note_on,,0,0,1,,,,,,,,,0,,,68,0
6372,note_on,,2,0,1,,,,,,,,,0,,,44,94
6406,note_on,,34,0,1,,,,,,,,,0,,,41,99
6410,note_on,,4,0,1,,,,,,,,,0,,,44,0
6437,note_on,,27,0,1,,,,,,,,,0,,,42,99
6437,note_on,,0,0,1,,,,,,,,,0,,,41,0
6468,note_on,,0,0,1,,,,,,,,,0,,,66,0
6468,note_on,,31,0,1,,,,,,,,,0,,,65,106
6469,note_on,,1,0,1,,,,,,,,,0,,,42,0
6470,note_on,,1,0,1,,,,,,,,,0,,,44,94
6495,note_on,,25,0,1,,,,,,,,,0,,,44,0
6497,note_on,,2,0,1,,,,,,,,,0,,,45,96
6528,note_on,,31,0,1,,,,,,,,,0,,,45,0
6530,note_on,,2,0,1,,,,,,,,,0,,,42,89
6550,note_on,,20,0,1,,,,,,,,,0,,,62,0
6558,note_on,,8,0,1,,,,,,,,,0,,,44,93
6560,note_on,,2,0,1,,,,,,,,,0,,,42,0
6580,note_on,,20,0,1,,,,,,,,,0,,,59,0
6587,note_on,,7,0,1,,,,,,,,,0,,,44,0
6589,note_on,,2,0,1,,,,,,,,,0,,,65,0
6590,note_on,,1,0,1,,,,,,,,,0,,,66,99
6592,note_on,,2,0,1,,,,,,,,,0,,,45,90
6593,note_on,,1,0,1,,,,,,,,,0,,,62,87
6593,note_on,,0,0,1,,,,,,,,,0,,,57,82
6622,note_on,,29,0,1,,,,,,,,,0,,,45,0
6625,note_on,,3,0,1,,,,,,,,,0,,,47,84
6655,note_on,,30,0,1,,,,,,,,,0,,,45,90
6655,note_on,,0,0,1,,,,,,,,,0,,,47,0
6673,note_on,,18,0,1,,,,,,,,,0,,,57,0
6679,note_on,,6,0,1,,,,,,,,,0,,,62,0
6682,note_on,,3,0,1,,,,,,,,,0,,,45,0
6683,note_on,,1,0,1,,,,,,,,,0,,,47,95
6685,note_on,,2,0,1,,,,,,,,,0,,,66,0
6715,note_on,,30,0,1,,,,,,,,,0,,,47,0
6717,note_on,,2,0,1,,,,,,,,,0,,,41,97
6718,note_on,,0,0,1,,,,,,,,,0,,,59,106
6718,note_on,,1,0,1,,,,,,,,,0,,,62,105
6718,note_on,,0,0,1,,,,,,,,,0,,,68,109
6748,note_on,,30,0,1,,,,,,,,,0,,,42,100
6748,note_on,,0,0,1,,,,,,,,,0,,,41,0
6776,note_on,,28,0,1,,,,,,,,,0,,,42,0
6777,note_on,,1,0,1,,,,,,,,,0,,,40,90
6807,note_on,,30,0,1,,,,,,,,,0,,,41,95
6807,note_on,,0,0,1,,,,,,,,,0,,,40,0
6837,note_on,,30,0,1,,,,,,,,,0,,,41,0
6840,note_on,,3,0,1,,,,,,,,,0,,,42,91
6841,note_on,,1,0,1,,,,,,,,,0,,,66,101
6850,note_on,,9,0,1,,,,,,,,,0,,,68,0
6865,note_on,,15,0,1,,,,,,,,,0,,,42,0
6867,note_on,,2,0,1,,,,,,,,,0,,,44,90
6897,note_on,,30,0,1,,,,,,,,,0,,,44,0
6900,note_on,,3,0,1,,,,,,,,,0,,,41,91
6927,note_on,,27,0,1,,,,,,,,,0,,,41,0
6930,note_on,,3,0,1,,,,,,,,,0,,,42,94
6950,note_on,,20,0,1,,,,,,,,,0,,,66,0
6952,note_on,,2,0,1,,,,,,,,,0,,,65,91
6956,note_on,,4,0,1,,,,,,,,,0,,,44,94
6957,note_on,,1,0,1,,,,,,,,,0,,,42,0
6982,note_on,,25,0,1,,,,,,,,,0,,,44,0
6985,note_on,,3,0,1,,,,,,,,,0,,,45,94
7015,note_on,,0,0,1,,,,,,,,,0,,,45,0
7015,note_on,,30,0,1,,,,,,,,,0,,,42,89
7019,note_on,,4,0,1,,,,,,,,,0,,,62,0
7043,note_on,,24,0,1,,,,,,,,,0,,,44,91
7044,note_on,,1,0,1,,,,,,,,,0,,,42,0
7073,note_on,,29,0,1,,,,,,,,,0,,,44,0
7074,note_on,,1,0,1,,,,,,,,,0,,,65,0
7075,note_on,,1,0,1,,,,,,,,,0,,,66,91
7075,note_on,,0,0,1,,,,,,,,,0,,,61,89
7076,note_on,,1,0,1,,,,,,,,,0,,,45,90
7079,note_on,,3,0,1,,,,,,,,,0,,,59,0
7107,note_on,,28,0,1,,,,,,,,,0,,,45,0
7111,note_on,,4,0,1,,,,,,,,,0,,,47,78
7137,note_on,,26,0,1,,,,,,,,,0,,,47,0
7140,note_on,,3,0,1,,,,,,,,,0,,,45,96
7167,note_on,,27,0,1,,,,,,,,,0,,,45,0
7168,note_on,,1,0,1,,,,,,,,,0,,,47,86
7195,note_on,,27,0,1,,,,,,,,,0,,,61,0
7195,note_on,,0,0,1,,,,,,,,,0,,,66,0
7199,note_on,,4,0,1,,,,,,,,,0,,,47,0
7200,note_on,,1,0,1,,,,,,,,,0,,,48,99
7201,note_on,,1,0,1,,,,,,,,,0,,,75,110
7201,note_on,,0,0,1,,,,,,,,,0,,,66,109
7202,note_on,,1,0,1,,,,,,,,,0,,,69,103
7230,note_on,,28,0,1,,,,,,,,,0,,,49,99
7231,note_on,,1,0,1,,,,,,,,,0,,,48,0
7260,note_on,,29,0,1,,,,,,,,,0,,,46,99
7260,note_on,,0,0,1,,,,,,,,,0,,,49,0
7290,note_on,,30,0,1,,,,,,,,,0,,,48,101
7290,note_on,,0,0,1,,,,,,,,,0,,,46,0
7322,note_on,,32,0,1,,,,,,,,,0,,,73,103
7322,note_on,,0,0,1,,,,,,,,,0,,,48,0
7323,note_on,,1,0,1,,,,,,,,,0,,,49,99
7332,note_on,,9,0,1,,,,,,,,,0,,,75,0
7348,note_on,,16,0,1,,,,,,,,,0,,,49,0
7350,note_on,,2,0,1,,,,,,,,,0,,,51,94
7373,note_on,,23,0,1,,,,,,,,,0,,,51,0
7378,note_on,,5,0,1,,,,,,,,,0,,,48,93
7404,note_on,,26,0,1,,,,,,,,,0,,,48,0
7406,note_on,,2,0,1,,,,,,,,,0,,,49,104
7435,note_on,,29,0,1,,,,,,,,,0,,,51,101
7435,note_on,,0,0,1,,,,,,,,,0,,,72,103
7439,note_on,,4,0,1,,,,,,,,,0,,,49,0
7440,note_on,,1,0,1,,,,,,,,,0,,,73,0
7459,note_on,,19,0,1,,,,,,,,,0,,,51,0
7462,note_on,,3,0,1,,,,,,,,,0,,,52,97
7493,note_on,,31,0,1,,,,,,,,,0,,,49,94
7494,note_on,,1,0,1,,,,,,,,,0,,,52,0
7499,note_on,,5,0,1,,,,,,,,,0,,,69,0
7519,note_on,,20,0,1,,,,,,,,,0,,,66,0
7522,note_on,,3,0,1,,,,,,,,,0,,,51,97
7524,note_on,,2,0,1,,,,,,,,,0,,,49,0
7552,note_on,,28,0,1,,,,,,,,,0,,,51,0
7555,note_on,,3,0,1,,,,,,,,,0,,,52,100
7555,note_on,,0,0,1,,,,,,,,,0,,,73,95
7555,note_on,,0,0,1,,,,,,,,,0,,,64,86
7555,note_on,,0,0,1,,,,,,,,,0,,,68,88
7556,note_on,,1,0,1,,,,,,,,,0,,,72,0
7580,note_on,,24,0,1,,,,,,,,,0,,,52,0
7582,note_on,,2,0,1,,,,,,,,,0,,,54,85
7612,note_on,,30,0,1,,,,,,,,,0,,,51,94
7617,note_on,,5,0,1,,,,,,,,,0,,,54,0
7637,note_on,,20,0,1,,,,,,,,,0,,,64,0
7640,note_on,,3,0,1,,,,,,,,,0,,,68,0
7642,note_on,,0,0,1,,,,,,,,,0,,,51,0
7642,note_on,,2,0,1,,,,,,,,,0,,,52,101
7672,note_on,,30,0,1,,,,,,,,,0,,,52,0
7673,note_on,,0,0,1,,,,,,,,,0,,,54,100
7673,note_on,,0,0,1,,,,,,,,,0,,,69,101
7673,note_on,,1,0,1,,,,,,,,,0,,,63,95
7703,note_on,,30,0,1,,,,,,,,,0,,,54,0
7705,note_on,,2,0,1,,,,,,,,,0,,,56,97
7733,note_on,,28,0,1,,,,,,,,,0,,,56,0
7735,note_on,,2,0,1,,,,,,,,,0,,,52,100
7744,note_on,,9,0,1,,,,,,,,,0,,,69,0
7762,note_on,,0,0,1,,,,,,,,,0,,,52,0
7762,note_on,,18,0,1,,,,,,,,,0,,,54,101
7793,note_on,,31,0,1,,,,,,,,,0,,,72,100
7793,note_on,,0,0,1,,,,,,,,,0,,,68,90
7795,note_on,,2,0,1,,,,,,,,,0,,,56,100
7797,note_on,,2,0,1,,,,,,,,,0,,,54,0
7802,note_on,,5,0,1,,,,,,,,,0,,,73,0
7825,note_on,,23,0,1,,,,,,,,,0,,,57,103
7825,note_on,,0,0,1,,,,,,,,,0,,,56,0
7852,note_on,,27,0,1,,,,,,,,,0,,,56,106
7855,note_on,,3,0,1,,,,,,,,,0,,,57,0
7863,note_on,,8,0,1,,,,,,,,,0,,,68,0
7882,note_on,,19,0,1,,,,,,,,,0,,,54,92
7884,note_on,,2,0,1,,,,,,,,,0,,,56,0
7884,note_on,,0,0,1,,,,,,,,,0,,,63,0
7908,note_on,,24,0,1,,,,,,,,,0,,,54,0
7910,note_on,,2,0,1,,,,,,,,,0,,,73,104
7910,note_on,,0,0,1,,,,,,,,,0,,,68,86
7910,note_on,,0,0,1,,,,,,,,,0,,,72,0
7911,note_on,,1,0,1,,,,,,,,,0,,,52,99
7912,note_on,,1,0,1,,,,,,,,,0,,,64,96
7940,note_on,,28,0,1,,,,,,,,,0,,,51,113
7945,note_on,,5,0,1,,,,,,,,,0,,,52,0
7968,note_on,,23,0,1,,,,,,,,,0,,,49,103
7973,note_on,,5,0,1,,,,,,,,,0,,,51,0
7994,note_on,,21,0,1,,,,,,,,,0,,,64,0
7994,note_on,,0,0,1,,,,,,,,,0,,,49,0
7997,note_on,,3,0,1,,,,,,,,,0,,,47,109
8000,note_on,,3,0,1,,,,,,,,,0,,,68,0
8007,note_on,,7,0,1,,,,,,,,,0,,,73,0
8025,note_on,,18,0,1,,,,,,,,,0,,,64,96
8026,note_on,,0,0,1,,,,,,,,,0,,,68,96
8026,note_on,,0,0,1,,,,,,,,,0,,,85,124
8026,note_on,,1,0,1,,,,,,,,,0,,,73,117
8027,note_on,,1,0,1,,,,,,,,,0,,,45,106
8032,note_on,,5,0,1,,,,,,,,,0,,,47,0
8055,note_on,,23,0,1,,,,,,,,,0,,,44,111
8057,note_on,,2,0,1,,,,,,,,,0,,,45,0
8083,note_on,,26,0,1,,,,,,,,,0,,,42,94
8090,note_on,,7,0,1,,,,,,,,,0,,,44,0
8093,note_on,,3,0,1,,,,,,,,,0,,,85,0
8104,note_on,,11,0,1,,,,,,,,,0,,,42,0
8108,note_on,,4,0,1,,,,,,,,,0,,,40,94
8138,note_on,,30,0,1,,,,,,,,,0,,,68,0
8143,note_on,,5,0,1,,,,,,,,,0,,,39,104
8144,note_on,,1,0,1,,,,,,,,,0,,,40,0
8145,note_on,,1,0,1,,,,,,,,,0,,,67,106
8145,note_on,,0,0,1,,,,,,,,,0,,,64,0
8146,note_on,,1,0,1,,,,,,,,,0,,,73,0
8175,note_on,,29,0,1,,,,,,,,,0,,,68,108
8177,note_on,,2,0,1,,,,,,,,,0,,,67,0
8178,note_on,,1,0,1,,,,,,,,,0,,,39,0
8202,note_on,,24,0,1,,,,,,,,,0,,,68,0
8205,note_on,,3,0,1,,,,,,,,,0,,,65,102
8236,note_on,,31,0,1,,,,,,,,,0,,,67,100
8242,note_on,,6,0,1,,,,,,,,,0,,,65,0
8265,note_on,,23,0,1,,,,,,,,,0,,,63,79
8267,note_on,,2,0,1,,,,,,,,,0,,,68,94
8267,note_on,,0,0,1,,,,,,,,,0,,,67,0
8268,note_on,,1,0,1,,,,,,,,,0,,,59,81
8298,note_on,,30,0,1,,,,,,,,,0,,,70,85
8299,note_on,,1,0,1,,,,,,,,,0,,,68,0
8305,note_on,,6,0,1,,,,,,,,,0,,,63,0
8310,note_on,,5,0,1,,,,,,,,,0,,,59,0
8319,note_on,,9,0,1,,,,,,,,,0,,,70,0
8325,note_on,,6,0,1,,,,,,,,,0,,,67,91
8353,note_on,,28,0,1,,,,,,,,,0,,,68,95
8356,note_on,,3,0,1,,,,,,,,,0,,,67,0
8383,note_on,,27,0,1,,,,,,,,,0,,,61,79
8384,note_on,,1,0,1,,,,,,,,,0,,,68,0
8385,note_on,,1,0,1,,,,,,,,,0,,,70,89
8386,note_on,,1,0,1,,,,,,,,,0,,,58,80
8415,note_on,,29,0,1,,,,,,,,,0,,,71,95
8415,note_on,,0,0,1,,,,,,,,,0,,,70,0
8418,note_on,,3,0,1,,,,,,,,,0,,,61,0
8429,note_on,,11,0,1,,,,,,,,,0,,,58,0
8440,note_on,,11,0,1,,,,,,,,,0,,,71,0
8443,note_on,,3,0,1,,,,,,,,,0,,,68,97
8472,note_on,,29,0,1,,,,,,,,,0,,,70,89
8476,note_on,,4,0,1,,,,,,,,,0,,,68,0
8501,note_on,,25,0,1,,,,,,,,,0,,,56,79
8502,note_on,,0,0,1,,,,,,,,,0,,,70,0
8502,note_on,,1,0,1,,,,,,,,,0,,,59,75
8502,note_on,,0,0,1,,,,,,,,,0,,,71,94
8532,note_on,,30,0,1,,,,,,,,,0,,,71,0
8533,note_on,,1,0,1,,,,,,,,,0,,,73,76
8535,note_on,,2,0,1,,,,,,,,,0,,,59,0
8546,note_on,,11,0,1,,,,,,,,,0,,,56,0
8562,note_on,,16,0,1,,,,,,,,,0,,,73,0
8563,note_on,,1,0,1,,,,,,,,,0,,,70,89
8590,note_on,,27,0,1,,,,,,,,,0,,,71,96
8594,note_on,,4,0,1,,,,,,,,,0,,,70,0
8622,note_on,,28,0,1,,,,,,,,,0,,,58,63
8622,note_on,,0,0,1,,,,,,,,,0,,,51,77
8623,note_on,,0,0,1,,,,,,,,,0,,,73,92
8623,note_on,,1,0,1,,,,,,,,,0,,,55,87
8625,note_on,,2,0,1,,,,,,,,,0,,,71,0
8653,note_on,,28,0,1,,,,,,,,,0,,,75,94
8654,note_on,,1,0,1,,,,,,,,,0,,,73,0
8657,note_on,,3,0,1,,,,,,,,,0,,,51,0
8673,note_on,,16,0,1,,,,,,,,,0,,,55,0
8674,note_on,,1,0,1,,,,,,,,,0,,,75,0
8674,note_on,,0,0,1,,,,,,,,,0,,,58,0
8681,note_on,,7,0,1,,,,,,,,,0,,,73,106
8710,note_on,,29,0,1,,,,,,,,,0,,,82,101
8712,note_on,,2,0,1,,,,,,,,,0,,,73,0
8735,note_on,,23,0,1,,,,,,,,,0,,,82,0
8737,note_on,,2,0,1,,,,,,,,,0,,,56,77
8738,note_on,,1,0,1,,,,,,,,,0,,,59,82
8740,note_on,,2,0,1,,,,,,,,,0,,,71,101
8740,note_on,,0,0,1,,,,,,,,,0,,,51,70
8766,note_on,,26,0,1,,,,,,,,,0,,,51,0
8768,note_on,,2,0,1,,,,,,,,,0,,,59,0
8770,note_on,,2,0,1,,,,,,,,,0,,,73,102
8772,note_on,,2,0,1,,,,,,,,,0,,,71,0
8774,note_on,,2,0,1,,,,,,,,,0,,,56,0
8797,note_on,,23,0,1,,,,,,,,,0,,,71,100
8798,note_on,,1,0,1,,,,,,,,,0,,,73,0
8826,note_on,,28,0,1,,,,,,,,,0,,,80,104
8827,note_on,,1,0,1,,,,,,,,,0,,,71,0
8857,note_on,,30,0,1,,,,,,,,,0,,,70,94
8857,note_on,,0,0,1,,,,,,,,,0,,,80,0
8858,note_on,,1,0,1,,,,,,,,,0,,,61,72
8860,note_on,,2,0,1,,,,,,,,,0,,,51,76
8860,note_on,,0,0,1,,,,,,,,,0,,,58,74
8885,note_on,,25,0,1,,,,,,,,,0,,,71,96
8887,note_on,,2,0,1,,,,,,,,,0,,,70,0
8890,note_on,,3,0,1,,,,,,,,,0,,,51,0
8892,note_on,,2,0,1,,,,,,,,,0,,,61,0
8898,note_on,,6,0,1,,,,,,,,,0,,,58,0
8918,note_on,,20,0,1,,,,,,,,,0,,,70,100
8919,note_on,,1,0,1,,,,,,,,,0,,,71,0
8945,note_on,,26,0,1,,,,,,,,,0,,,79,96
8949,note_on,,4,0,1,,,,,,,,,0,,,70,0
8971,note_on,,22,0,1,,,,,,,,,0,,,79,0
8975,note_on,,4,0,1,,,,,,,,,0,,,64,113
8976,note_on,,1,0,1,,,,,,,,,0,,,52,111
8977,note_on,,1,0,1,,,,,,,,,0,,,68,113
9008,note_on,,31,0,1,,,,,,,,,0,,,70,106
9012,note_on,,4,0,1,,,,,,,,,0,,,68,0
9040,note_on,,28,0,1,,,,,,,,,0,,,68,95
9044,note_on,,4,0,1,,,,,,,,,0,,,70,0
9051,note_on,,7,0,1,,,,,,,,,0,,,64,0
9062,note_on,,11,0,1,,,,,,,,,0,,,52,0
9065,note_on,,3,0,1,,,,,,,,,0,,,80,104
9077,note_on,,12,0,1,,,,,,,,,0,,,68,0
9095,note_on,,18,0,1,,,,,,,,,0,,,80,0
9102,note_on,,7,0,1,,,,,,,,,0,,,43,98
9103,note_on,,1,0,1,,,,,,,,,0,,,73,94
9105,note_on,,2,0,1,,,,,,,,,0,,,70,89
9107,note_on,,2,0,1,,,,,,,,,0,,,64,57
9130,note_on,,23,0,1,,,,,,,,,0,,,43,0
9132,note_on,,2,0,1,,,,,,,,,0,,,44,100
9157,note_on,,25,0,1,,,,,,,,,0,,,44,0
9162,note_on,,5,0,1,,,,,,,,,0,,,42,89
9170,note_on,,8,0,1,,,,,,,,,0,,,73,0
9170,note_on,,0,0,1,,,,,,,,,0,,,70,0
9172,note_on,,2,0,1,,,,,,,,,0,,,64,0
9190,note_on,,18,0,1,,,,,,,,,0,,,42,0
9192,note_on,,2,0,1,,,,,,,,,0,,,43,93
9222,note_on,,30,0,1,,,,,,,,,0,,,63,93
9223,note_on,,1,0,1,,,,,,,,,0,,,68,88
9224,note_on,,1,0,1,,,,,,,,,0,,,43,0
9225,note_on,,1,0,1,,,,,,,,,0,,,71,84
9225,note_on,,0,0,1,,,,,,,,,0,,,44,95
9251,note_on,,26,0,1,,,,,,,,,0,,,44,0
9255,note_on,,4,0,1,,,,,,,,,0,,,46,89
9281,note_on,,26,0,1,,,,,,,,,0,,,68,0
9285,note_on,,0,0,1,,,,,,,,,0,,,71,0
9285,note_on,,4,0,1,,,,,,,,,0,,,46,0
9287,note_on,,0,0,1,,,,,,,,,0,,,63,0
9287,note_on,,2,0,1,,,,,,,,,0,,,43,84
9310,note_on,,23,0,1,,,,,,,,,0,,,43,0
9315,note_on,,5,0,1,,,,,,,,,0,,,44,94
9343,note_on,,28,0,1,,,,,,,,,0,,,70,82
9343,note_on,,0,0,1,,,,,,,,,0,,,44,0
9345,note_on,,2,0,1,,,,,,,,,0,,,46,89
9345,note_on,,0,0,1,,,,,,,,,0,,,61,80
9345,note_on,,0,0,1,,,,,,,,,0,,,67,83
9371,note_on,,26,0,1,,,,,,,,,0,,,46,0
9375,note_on,,4,0,1,,,,,,,,,0,,,47,90
9403,note_on,,28,0,1,,,,,,,,,0,,,70,0
9405,note_on,,0,0,1,,,,,,,,,0,,,47,0
9405,note_on,,0,0,1,,,,,,,,,0,,,61,0
9405,note_on,,2,0,1,,,,,,,,,0,,,44,91
9405,note_on,,0,0,1,,,,,,,,,0,,,67,0
9432,note_on,,27,0,1,,,,,,,,,0,,,44,0
9433,note_on,,1,0,1,,,,,,,,,0,,,46,97
9461,note_on,,28,0,1,,,,,,,,,0,,,46,0
9463,note_on,,2,0,1,,,,,,,,,0,,,68,84
9463,note_on,,0,0,1,,,,,,,,,0,,,63,88
9465,note_on,,2,0,1,,,,,,,,,0,,,47,89
9465,note_on,,0,0,1,,,,,,,,,0,,,59,75
9488,note_on,,23,0,1,,,,,,,,,0,,,47,0
9492,note_on,,4,0,1,,,,,,,,,0,,,49,85
9514,note_on,,22,0,1,,,,,,,,,0,,,63,0
9522,note_on,,8,0,1,,,,,,,,,0,,,49,0
9523,note_on,,1,0,1,,,,,,,,,0,,,46,91
9523,note_on,,0,0,1,,,,,,,,,0,,,68,0
9525,note_on,,2,0,1,,,,,,,,,0,,,59,0
9549,note_on,,24,0,1,,,,,,,,,0,,,46,0
9551,note_on,,2,0,1,,,,,,,,,0,,,47,98
9582,note_on,,31,0,1,,,,,,,,,0,,,47,0
9583,note_on,,1,0,1,,,,,,,,,0,,,67,88
9585,note_on,,0,0,1,,,,,,,,,0,,,49,86
9585,note_on,,2,0,1,,,,,,,,,0,,,64,88
9585,note_on,,0,0,1,,,,,,,,,0,,,58,86
9615,note_on,,30,0,1,,,,,,,,,0,,,51,94
9615,note_on,,0,0,1,,,,,,,,,0,,,49,0
9642,note_on,,27,0,1,,,,,,,,,0,,,51,0
9648,note_on,,6,0,1,,,,,,,,,0,,,49,82
9660,note_on,,12,0,1,,,,,,,,,0,,,58,0
9673,note_on,,13,0,1,,,,,,,,,0,,,67,0
9675,note_on,,2,0,1,,,,,,,,,0,,,64,0
9677,note_on,,2,0,1,,,,,,,,,0,,,58,98
9707,note_on,,30,0,1,,,,,,,,,0,,,58,0
9708,note_on,,1,0,1,,,,,,,,,0,,,49,0
9710,note_on,,2,0,1,,,,,,,,,0,,,68,85
9710,note_on,,0,0,1,,,,,,,,,0,,,47,93
9711,note_on,,1,0,1,,,,,,,,,0,,,63,81
9712,note_on,,1,0,1,,,,,,,,,0,,,59,69
9738,note_on,,26,0,1,,,,,,,,,0,,,47,0
9740,note_on,,2,0,1,,,,,,,,,0,,,49,89
9768,note_on,,28,0,1,,,,,,,,,0,,,49,0
9772,note_on,,4,0,1,,,,,,,,,0,,,47,92
9800,note_on,,28,0,1,,,,,,,,,0,,,56,93
9800,note_on,,0,0,1,,,,,,,,,0,,,68,0
9801,note_on,,1,0,1,,,,,,,,,0,,,63,0
9802,note_on,,1,0,1,,,,,,,,,0,,,59,0
9817,note_on,,15,0,1,,,,,,,,,0,,,47,0
9830,note_on,,13,0,1,,,,,,,,,0,,,46,94
9830,note_on,,0,0,1,,,,,,,,,0,,,70,86
9832,note_on,,2,0,1,,,,,,,,,0,,,61,77
9833,note_on,,1,0,1,,,,,,,,,0,,,63,77
9852,note_on,,19,0,1,,,,,,,,,0,,,46,0
9858,note_on,,6,0,1,,,,,,,,,0,,,47,90
9860,note_on,,2,0,1,,,,,,,,,0,,,56,0
9893,note_on,,0,0,1,,,,,,,,,0,,,47,0
9893,note_on,,33,0,1,,,,,,,,,0,,,46,102
9920,note_on,,27,0,1,,,,,,,,,0,,,70,0
9922,note_on,,0,0,1,,,,,,,,,0,,,61,0
9922,note_on,,2,0,1,,,,,,,,,0,,,55,96
9923,note_on,,1,0,1,,,,,,,,,0,,,63,0
9938,note_on,,15,0,1,,,,,,,,,0,,,46,0
9953,note_on,,15,0,1,,,,,,,,,0,,,63,96
9953,note_on,,0,0,1,,,,,,,,,0,,,75,113
9953,note_on,,0,0,1,,,,,,,,,0,,,87,119
9955,note_on,,2,0,1,,,,,,,,,0,,,45,112
9982,note_on,,27,0,1,,,,,,,,,0,,,55,0
9983,note_on,,1,0,1,,,,,,,,,0,,,46,113
9983,note_on,,0,0,1,,,,,,,,,0,,,45,0
10008,note_on,,25,0,1,,,,,,,,,0,,,46,0
10011,note_on,,3,0,1,,,,,,,,,0,,,45,108
10019,note_on,,8,0,1,,,,,,,,,0,,,87,0
10043,note_on,,24,0,1,,,,,,,,,0,,,54,91
10056,note_on,,13,0,1,,,,,,,,,0,,,45,0
10080,note_on,,24,0,1,,,,,,,,,0,,,53,76
10085,note_on,,5,0,1,,,,,,,,,0,,,69,88
10086,note_on,,1,0,1,,,,,,,,,0,,,41,81
10087,note_on,,1,0,1,,,,,,,,,0,,,54,0
10102,note_on,,15,0,1,,,,,,,,,0,,,63,0
10109,note_on,,7,0,1,,,,,,,,,0,,,75,0
10114,note_on,,5,0,1,,,,,,,,,0,,,69,0
10115,note_on,,1,0,1,,,,,,,,,0,,,70,95
10137,note_on,,22,0,1,,,,,,,,,0,,,70,0
10140,note_on,,3,0,1,,,,,,,,,0,,,53,0
10143,note_on,,3,0,1,,,,,,,,,0,,,68,90
10146,note_on,,3,0,1,,,,,,,,,0,,,41,0
10167,note_on,,21,0,1,,,,,,,,,0,,,68,0
10170,note_on,,3,0,1,,,,,,,,,0,,,69,91
10197,note_on,,27,0,1,,,,,,,,,0,,,69,0
10198,note_on,,1,0,1,,,,,,,,,0,,,70,89
10198,note_on,,0,0,1,,,,,,,,,0,,,61,75
10201,note_on,,3,0,1,,,,,,,,,0,,,65,62
10226,note_on,,25,0,1,,,,,,,,,0,,,70,0
10228,note_on,,2,0,1,,,,,,,,,0,,,72,88
10250,note_on,,22,0,1,,,,,,,,,0,,,72,0
10256,note_on,,6,0,1,,,,,,,,,0,,,69,88
10258,note_on,,2,0,1,,,,,,,,,0,,,61,0
10261,note_on,,3,0,1,,,,,,,,,0,,,65,0
10282,note_on,,21,0,1,,,,,,,,,0,,,69,0
10284,note_on,,2,0,1,,,,,,,,,0,,,70,91
10312,note_on,,0,0,1,,,,,,,,,0,,,70,0
10312,note_on,,28,0,1,,,,,,,,,0,,,72,90
10315,note_on,,0,0,1,,,,,,,,,0,,,60,77
10315,note_on,,3,0,1,,,,,,,,,0,,,63,75
10342,note_on,,0,0,1,,,,,,,,,0,,,72,0
10342,note_on,,27,0,1,,,,,,,,,0,,,73,85
10364,note_on,,22,0,1,,,,,,,,,0,,,73,0
10370,note_on,,6,0,1,,,,,,,,,0,,,70,82
10375,note_on,,0,0,1,,,,,,,,,0,,,63,0
10375,note_on,,5,0,1,,,,,,,,,0,,,60,0
10398,note_on,,23,0,1,,,,,,,,,0,,,72,88
10399,note_on,,1,0,1,,,,,,,,,0,,,70,0
10427,note_on,,28,0,1,,,,,,,,,0,,,58,79
10428,note_on,,1,0,1,,,,,,,,,0,,,61,74
10430,note_on,,2,0,1,,,,,,,,,0,,,73,98
10433,note_on,,3,0,1,,,,,,,,,0,,,72,0
10458,note_on,,25,0,1,,,,,,,,,0,,,75,94
10460,note_on,,2,0,1,,,,,,,,,0,,,73,0
10481,note_on,,21,0,1,,,,,,,,,0,,,75,0
10487,note_on,,6,0,1,,,,,,,,,0,,,58,0
10488,note_on,,0,0,1,,,,,,,,,0,,,61,0
10488,note_on,,1,0,1,,,,,,,,,0,,,72,86
10518,note_on,,30,0,1,,,,,,,,,0,,,73,84
10519,note_on,,1,0,1,,,,,,,,,0,,,72,0
10548,note_on,,29,0,1,,,,,,,,,0,,,60,70
10550,note_on,,2,0,1,,,,,,,,,0,,,57,72
10550,note_on,,0,0,1,,,,,,,,,0,,,75,94
10552,note_on,,2,0,1,,,,,,,,,0,,,73,0
10553,note_on,,1,0,1,,,,,,,,,0,,,53,69
10575,note_on,,22,0,1,,,,,,,,,0,,,75,0
10578,note_on,,3,0,1,,,,,,,,,0,,,77,100
10598,note_on,,20,0,1,,,,,,,,,0,,,77,0
10608,note_on,,10,0,1,,,,,,,,,0,,,75,91
10608,note_on,,0,0,1,,,,,,,,,0,,,60,0
10610,note_on,,2,0,1,,,,,,,,,0,,,57,0
10613,note_on,,3,0,1,,,,,,,,,0,,,53,0
10632,note_on,,19,0,1,,,,,,,,,0,,,75,0
10639,note_on,,7,0,1,,,,,,,,,0,,,84,95
10667,note_on,,28,0,1,,,,,,,,,0,,,61,72
10668,note_on,,0,0,1,,,,,,,,,0,,,53,74
10668,note_on,,1,0,1,,,,,,,,,0,,,58,75
10669,note_on,,1,0,1,,,,,,,,,0,,,84,0
10670,note_on,,1,0,1,,,,,,,,,0,,,73,91
10698,note_on,,28,0,1,,,,,,,,,0,,,75,90
10698,note_on,,0,0,1,,,,,,,,,0,,,73,0
10727,note_on,,29,0,1,,,,,,,,,0,,,61,0
10727,note_on,,0,0,1,,,,,,,,,0,,,75,0
10728,note_on,,1,0,1,,,,,,,,,0,,,73,91
10728,note_on,,0,0,1,,,,,,,,,0,,,58,0
10728,note_on,,0,0,1,,,,,,,,,0,,,53,0
10755,note_on,,27,0,1,,,,,,,,,0,,,82,94
10757,note_on,,2,0,1,,,,,,,,,0,,,73,0
10785,note_on,,28,0,1,,,,,,,,,0,,,82,0
10788,note_on,,0,0,1,,,,,,,,,0,,,72,97
10788,note_on,,3,0,1,,,,,,,,,0,,,63,81
10788,note_on,,0,0,1,,,,,,,,,0,,,60,85
10790,note_on,,2,0,1,,,,,,,,,0,,,53,78
10817,note_on,,27,0,1,,,,,,,,,0,,,73,104
10819,note_on,,2,0,1,,,,,,,,,0,,,72,0
10844,note_on,,25,0,1,,,,,,,,,0,,,73,0
10845,note_on,,1,0,1,,,,,,,,,0,,,72,100
10848,note_on,,3,0,1,,,,,,,,,0,,,63,0
10848,note_on,,0,0,1,,,,,,,,,0,,,60,0
10850,note_on,,2,0,1,,,,,,,,,0,,,53,0
10875,note_on,,25,0,1,,,,,,,,,0,,,81,98
10875,note_on,,0,0,1,,,,,,,,,0,,,72,0
10905,note_on,,30,0,1,,,,,,,,,0,,,81,0
10907,note_on,,2,0,1,,,,,,,,,0,,,66,94
10908,note_on,,0,0,1,,,,,,,,,0,,,70,100
10908,note_on,,1,0,1,,,,,,,,,0,,,54,92
10938,note_on,,30,0,1,,,,,,,,,0,,,72,106
10939,note_on,,1,0,1,,,,,,,,,0,,,70,0
10965,note_on,,26,0,1,,,,,,,,,0,,,70,95
10967,note_on,,2,0,1,,,,,,,,,0,,,66,0
10968,note_on,,1,0,1,,,,,,,,,0,,,54,0
10969,note_on,,1,0,1,,,,,,,,,0,,,72,0
10994,note_on,,25,0,1,,,,,,,,,0,,,82,102
10995,note_on,,1,0,1,,,,,,,,,0,,,70,0
11024,note_on,,29,0,1,,,,,,,,,0,,,82,0
11029,note_on,,5,0,1,,,,,,,,,0,,,45,90
11030,note_on,,1,0,1,,,,,,,,,0,,,75,83
11030,note_on,,0,0,1,,,,,,,,,0,,,66,71
11055,note_on,,25,0,1,,,,,,,,,0,,,45,0
11059,note_on,,4,0,1,,,,,,,,,0,,,46,92
11084,note_on,,25,0,1,,,,,,,,,0,,,46,0
11088,note_on,,4,0,1,,,,,,,,,0,,,44,97
11089,note_on,,1,0,1,,,,,,,,,0,,,66,0
11089,note_on,,0,0,1,,,,,,,,,0,,,75,0
11114,note_on,,25,0,1,,,,,,,,,0,,,44,0
11118,note_on,,4,0,1,,,,,,,,,0,,,45,107
11143,note_on,,25,0,1,,,,,,,,,0,,,45,0
11147,note_on,,0,0,1,,,,,,,,,0,,,70,89
11147,note_on,,0,0,1,,,,,,,,,0,,,46,94
11147,note_on,,4,0,1,,,,,,,,,0,,,73,89
11148,note_on,,1,0,1,,,,,,,,,0,,,65,85
11172,note_on,,24,0,1,,,,,,,,,0,,,46,0
11175,note_on,,3,0,1,,,,,,,,,0,,,48,94
11199,note_on,,24,0,1,,,,,,,,,0,,,48,0
11205,note_on,,6,0,1,,,,,,,,,0,,,45,95
11231,note_on,,26,0,1,,,,,,,,,0,,,45,0
11236,note_on,,0,0,1,,,,,,,,,0,,,73,0
11236,note_on,,5,0,1,,,,,,,,,0,,,46,91
11236,note_on,,0,0,1,,,,,,,,,0,,,70,0
11237,note_on,,1,0,1,,,,,,,,,0,,,65,0
11262,note_on,,25,0,1,,,,,,,,,0,,,46,0
11265,note_on,,0,0,1,,,,,,,,,0,,,69,84
11265,note_on,,0,0,1,,,,,,,,,0,,,72,79
11265,note_on,,3,0,1,,,,,,,,,0,,,48,89
11265,note_on,,0,0,1,,,,,,,,,0,,,63,79
11290,note_on,,25,0,1,,,,,,,,,0,,,48,0
11295,note_on,,5,0,1,,,,,,,,,0,,,49,91
11320,note_on,,25,0,1,,,,,,,,,0,,,49,0
11322,note_on,,2,0,1,,,,,,,,,0,,,46,94
11349,note_on,,27,0,1,,,,,,,,,0,,,46,0
11353,note_on,,4,0,1,,,,,,,,,0,,,48,93
11354,note_on,,1,0,1,,,,,,,,,0,,,63,0
11354,note_on,,0,0,1,,,,,,,,,0,,,72,0
11354,note_on,,0,0,1,,,,,,,,,0,,,69,0
11381,note_on,,0,0,1,,,,,,,,,0,,,70,86
11381,note_on,,27,0,1,,,,,,,,,0,,,49,90
11381,note_on,,0,0,1,,,,,,,,,0,,,61,79
11381,note_on,,0,0,1,,,,,,,,,0,,,65,83
11383,note_on,,2,0,1,,,,,,,,,0,,,48,0
11410,note_on,,27,0,1,,,,,,,,,0,,,49,0
11412,note_on,,2,0,1,,,,,,,,,0,,,51,93
11438,note_on,,26,0,1,,,,,,,,,0,,,51,0
11440,note_on,,2,0,1,,,,,,,,,0,,,48,95
11467,note_on,,27,0,1,,,,,,,,,0,,,48,0
11470,note_on,,3,0,1,,,,,,,,,0,,,65,0
11470,note_on,,0,0,1,,,,,,,,,0,,,61,0
11471,note_on,,1,0,1,,,,,,,,,0,,,49,97
11500,note_on,,29,0,1,,,,,,,,,0,,,70,0
11502,note_on,,2,0,1,,,,,,,,,0,,,49,0
11504,note_on,,0,0,1,,,,,,,,,0,,,65,81
11504,note_on,,2,0,1,,,,,,,,,0,,,50,95
11504,note_on,,0,0,1,,,,,,,,,0,,,59,76
11504,note_on,,0,0,1,,,,,,,,,0,,,68,88
11528,note_on,,24,0,1,,,,,,,,,0,,,50,0
11535,note_on,,7,0,1,,,,,,,,,0,,,51,94
11564,note_on,,29,0,1,,,,,,,,,0,,,51,0
11568,note_on,,4,0,1,,,,,,,,,0,,,49,92
11593,note_on,,25,0,1,,,,,,,,,0,,,68,0
11593,note_on,,0,0,1,,,,,,,,,0,,,65,0
11593,note_on,,0,0,1,,,,,,,,,0,,,59,0
11598,note_on,,5,0,1,,,,,,,,,0,,,49,0
11599,note_on,,1,0,1,,,,,,,,,0,,,50,100
11629,note_on,,30,0,1,,,,,,,,,0,,,50,0
11630,note_on,,0,0,1,,,,,,,,,0,,,66,91
11630,note_on,,0,0,1,,,,,,,,,0,,,63,88
11630,note_on,,0,0,1,,,,,,,,,0,,,58,75
11630,note_on,,1,0,1,,,,,,,,,0,,,51,99
11658,note_on,,28,0,1,,,,,,,,,0,,,51,0
11662,note_on,,4,0,1,,,,,,,,,0,,,53,97
11688,note_on,,26,0,1,,,,,,,,,0,,,53,0
11692,note_on,,4,0,1,,,,,,,,,0,,,50,94
11718,note_on,,26,0,1,,,,,,,,,0,,,50,0
11719,note_on,,1,0,1,,,,,,,,,0,,,58,0
11719,note_on,,0,0,1,,,,,,,,,0,,,63,0
11719,note_on,,0,0,1,,,,,,,,,0,,,66,0
11722,note_on,,3,0,1,,,,,,,,,0,,,51,100
11752,note_on,,0,0,1,,,,,,,,,0,,,61,86
11752,note_on,,0,0,1,,,,,,,,,0,,,51,0
11752,note_on,,0,0,1,,,,,,,,,0,,,65,94
11752,note_on,,30,0,1,,,,,,,,,0,,,58,85
11753,note_on,,1,0,1,,,,,,,,,0,,,53,95
11777,note_on,,24,0,1,,,,,,,,,0,,,53,0
11781,note_on,,4,0,1,,,,,,,,,0,,,54,92
11805,note_on,,24,0,1,,,,,,,,,0,,,54,0
11811,note_on,,6,0,1,,,,,,,,,0,,,52,101
11839,note_on,,28,0,1,,,,,,,,,0,,,52,0
11840,note_on,,1,0,1,,,,,,,,,0,,,53,103
11841,note_on,,1,0,1,,,,,,,,,0,,,61,0
11841,note_on,,0,0,1,,,,,,,,,0,,,58,0
11841,note_on,,0,0,1,,,,,,,,,0,,,65,0
11871,note_on,,30,0,1,,,,,,,,,0,,,53,0
11872,note_on,,1,0,1,,,,,,,,,0,,,54,104
11872,note_on,,0,0,1,,,,,,,,,0,,,60,83
11872,note_on,,0,0,1,,,,,,,,,0,,,64,98
11872,note_on,,0,0,1,,,,,,,,,0,,,58,84
11898,note_on,,26,0,1,,,,,,,,,0,,,54,0
11901,note_on,,3,0,1,,,,,,,,,0,,,56,97
11929,note_on,,28,0,1,,,,,,,,,0,,,56,0
11930,note_on,,1,0,1,,,,,,,,,0,,,53,97
11931,note_on,,1,0,1,,,,,,,,,0,,,64,0
11931,note_on,,0,0,1,,,,,,,,,0,,,58,0
11931,note_on,,0,0,1,,,,,,,,,0,,,60,0
11957,note_on,,26,0,1,,,,,,,,,0,,,54,98
11957,note_on,,0,0,1,,,,,,,,,0,,,53,0
11979,note_on,,22,0,1,,,,,,,,,0,,,54,0
11985,note_on,,0,0,1,,,,,,,,,0,,,65,95
11985,note_on,,6,0,1,,,,,,,,,0,,,53,88
11985,note_on,,0,0,1,,,,,,,,,0,,,57,81
11985,note_on,,0,0,1,,,,,,,,,0,,,60,77
12021,note_on,,36,0,1,,,,,,,,,0,,,66,98
12022,note_on,,0,0,1,,,,,,,,,0,,,57,0
12022,note_on,,0,0,1,,,,,,,,,0,,,53,0
12022,note_on,,0,0,1,,,,,,,,,0,,,60,0
12022,note_on,,1,0,1,,,,,,,,,0,,,65,0
12051,note_on,,29,0,1,,,,,,,,,0,,,66,0
12053,note_on,,2,0,1,,,,,,,,,0,,,64,99
12085,note_on,,32,0,1,,,,,,,,,0,,,65,99
12087,note_on,,2,0,1,,,,,,,,,0,,,64,0
12115,note_on,,28,0,1,,,,,,,,,0,,,61,73
12115,note_on,,0,0,1,,,,,,,,,0,,,52,77
12116,note_on,,1,0,1,,,,,,,,,0,,,66,107
12117,note_on,,1,0,1,,,,,,,,,0,,,58,74
12117,note_on,,0,0,1,,,,,,,,,0,,,65,0
12145,note_on,,0,0,1,,,,,,,,,0,,,52,0
12145,note_on,,28,0,1,,,,,,,,,0,,,61,0
12146,note_on,,1,0,1,,,,,,,,,0,,,66,0
12147,note_on,,0,0,1,,,,,,,,,0,,,58,0
12147,note_on,,1,0,1,,,,,,,,,0,,,68,93
12175,note_on,,28,0,1,,,,,,,,,0,,,65,100
12177,note_on,,2,0,1,,,,,,,,,0,,,68,0
12205,note_on,,28,0,1,,,,,,,,,0,,,66,109
12212,note_on,,7,0,1,,,,,,,,,0,,,65,0
12235,note_on,,23,0,1,,,,,,,,,0,,,61,68
12236,note_on,,1,0,1,,,,,,,,,0,,,51,82
12238,note_on,,2,0,1,,,,,,,,,0,,,58,74
12238,note_on,,0,0,1,,,,,,,,,0,,,67,108
12239,note_on,,1,0,1,,,,,,,,,0,,,66,0
12265,note_on,,26,0,1,,,,,,,,,0,,,61,0
12269,note_on,,4,0,1,,,,,,,,,0,,,68,109
12271,note_on,,2,0,1,,,,,,,,,0,,,58,0
12271,note_on,,0,0,1,,,,,,,,,0,,,51,0
12272,note_on,,1,0,1,,,,,,,,,0,,,67,0
12299,note_on,,27,0,1,,,,,,,,,0,,,66,111
12299,note_on,,0,0,1,,,,,,,,,0,,,68,0
12324,note_on,,25,0,1,,,,,,,,,0,,,66,0
12328,note_on,,4,0,1,,,,,,,,,0,,,67,107
12358,note_on,,30,0,1,,,,,,,,,0,,,67,0
12360,note_on,,2,0,1,,,,,,,,,0,,,80,117
12360,note_on,,0,0,1,,,,,,,,,0,,,68,113
12360,note_on,,0,0,1,,,,,,,,,0,,,56,99
12360,note_on,,0,0,1,,,,,,,,,0,,,44,100
12368,control_change,,8,0,1,,,,,,,,,0,64,127,,
12392,note_on,,24,0,1,,,,,,,,,0,,,68,0
12393,note_on,,1,0,1,,,,,,,,,0,,,70,94
12402,control_change,,9,0,1,,,,,,,,,0,64,0,,
12423,note_on,,21,0,1,,,,,,,,,0,,,67,99
12423,note_on,,0,0,1,,,,,,,,,0,,,70,0
12450,note_on,,0,0,1,,,,,,,,,0,,,56,0
12450,note_on,,0,0,1,,,,,,,,,0,,,44,0
12450,note_on,,27,0,1,,,,,,,,,0,,,80,0
12453,note_on,,0,0,1,,,,,,,,,0,,,67,0
12453,note_on,,3,0,1,,,,,,,,,0,,,68,99
12480,note_on,,0,0,1,,,,,,,,,0,,,60,84
12480,note_on,,27,0,1,,,,,,,,,0,,,56,83
12483,note_on,,3,0,1,,,,,,,,,0,,,63,88
12502,note_on,,19,0,1,,,,,,,,,0,,,56,0
12503,note_on,,1,0,1,,,,,,,,,0,,,60,0
12504,note_on,,1,0,1,,,,,,,,,0,,,63,0
12513,note_on,,9,0,1,,,,,,,,,0,,,70,99
12514,note_on,,1,0,1,,,,,,,,,0,,,68,0
12537,note_on,,23,0,1,,,,,,,,,0,,,70,0
12540,note_on,,3,0,1,,,,,,,,,0,,,67,100
12570,note_on,,30,0,1,,,,,,,,,0,,,68,98
12574,note_on,,4,0,1,,,,,,,,,0,,,67,0
12600,note_on,,0,0,1,,,,,,,,,0,,,68,0
12600,note_on,,26,0,1,,,,,,,,,0,,,69,102
12600,note_on,,0,0,1,,,,,,,,,0,,,61,76
12602,note_on,,0,0,1,,,,,,,,,0,,,64,79
12602,note_on,,2,0,1,,,,,,,,,0,,,55,80
12627,note_on,,25,0,1,,,,,,,,,0,,,70,100
12630,note_on,,3,0,1,,,,,,,,,0,,,69,0
12654,note_on,,24,0,1,,,,,,,,,0,,,70,0
12657,note_on,,3,0,1,,,,,,,,,0,,,68,102
12660,note_on,,3,0,1,,,,,,,,,0,,,61,0
12662,note_on,,2,0,1,,,,,,,,,0,,,64,0
12662,note_on,,0,0,1,,,,,,,,,0,,,55,0
12686,note_on,,24,0,1,,,,,,,,,0,,,69,101
12687,note_on,,1,0,1,,,,,,,,,0,,,68,0
12716,note_on,,29,0,1,,,,,,,,,0,,,70,109
12716,note_on,,0,0,1,,,,,,,,,0,,,54,79
12717,note_on,,1,0,1,,,,,,,,,0,,,61,79
12717,note_on,,0,0,1,,,,,,,,,0,,,64,80
12720,note_on,,3,0,1,,,,,,,,,0,,,69,0
12746,note_on,,26,0,1,,,,,,,,,0,,,70,0
12747,note_on,,1,0,1,,,,,,,,,0,,,71,106
12770,note_on,,23,0,1,,,,,,,,,0,,,71,0
12775,note_on,,5,0,1,,,,,,,,,0,,,69,99
12776,note_on,,1,0,1,,,,,,,,,0,,,54,0
12777,note_on,,0,0,1,,,,,,,,,0,,,61,0
12777,note_on,,1,0,1,,,,,,,,,0,,,64,0
12805,note_on,,28,0,1,,,,,,,,,0,,,70,111
12807,note_on,,2,0,1,,,,,,,,,0,,,69,0
12835,note_on,,28,0,1,,,,,,,,,0,,,83,116
12835,note_on,,0,0,1,,,,,,,,,0,,,59,101
12835,note_on,,0,0,1,,,,,,,,,0,,,70,0
12835,note_on,,0,0,1,,,,,,,,,0,,,71,109
12836,note_on,,1,0,1,,,,,,,,,0,,,47,101
12840,control_change,,4,0,1,,,,,,,,,0,64,127,,
12867,note_on,,27,0,1,,,,,,,,,0,,,72,108
12871,note_on,,4,0,1,,,,,,,,,0,,,71,0
12875,control_change,,4,0,1,,,,,,,,,0,64,0,,
12895,note_on,,20,0,1,,,,,,,,,0,,,70,111
12897,note_on,,2,0,1,,,,,,,,,0,,,72,0
12921,note_on,,24,0,1,,,,,,,,,0,,,71,109
12927,note_on,,6,0,1,,,,,,,,,0,,,70,0
12940,note_on,,13,0,1,,,,,,,,,0,,,59,0
12947,note_on,,7,0,1,,,,,,,,,0,,,83,0
12955,note_on,,0,0,1,,,,,,,,,0,,,63,84
12955,note_on,,0,0,1,,,,,,,,,0,,,59,84
12955,note_on,,8,0,1,,,,,,,,,0,,,66,77
12956,note_on,,1,0,1,,,,,,,,,0,,,47,0
12985,note_on,,29,0,1,,,,,,,,,0,,,72,88
12989,note_on,,4,0,1,,,,,,,,,0,,,71,0
13013,note_on,,24,0,1,,,,,,,,,0,,,70,94
13015,note_on,,2,0,1,,,,,,,,,0,,,59,0
13015,note_on,,0,0,1,,,,,,,,,0,,,72,0
13019,note_on,,4,0,1,,,,,,,,,0,,,63,0
13020,note_on,,1,0,1,,,,,,,,,0,,,66,0
13040,note_on,,20,0,1,,,,,,,,,0,,,70,0
13043,note_on,,3,0,1,,,,,,,,,0,,,71,92
13071,note_on,,28,0,1,,,,,,,,,0,,,71,0
13075,note_on,,4,0,1,,,,,,,,,0,,,59,79
13076,note_on,,1,0,1,,,,,,,,,0,,,72,94
13077,note_on,,0,0,1,,,,,,,,,0,,,67,64
13077,note_on,,1,0,1,,,,,,,,,0,,,64,81
13107,note_on,,30,0,1,,,,,,,,,0,,,73,91
13109,note_on,,2,0,1,,,,,,,,,0,,,72,0
13132,note_on,,23,0,1,,,,,,,,,0,,,71,94
13132,note_on,,0,0,1,,,,,,,,,0,,,73,0
13135,note_on,,3,0,1,,,,,,,,,0,,,59,0
13137,note_on,,2,0,1,,,,,,,,,0,,,67,0
13137,note_on,,0,0,1,,,,,,,,,0,,,64,0
13162,note_on,,25,0,1,,,,,,,,,0,,,72,94
13165,note_on,,3,0,1,,,,,,,,,0,,,71,0
13191,note_on,,26,0,1,,,,,,,,,0,,,73,100
13192,note_on,,1,0,1,,,,,,,,,0,,,65,77
13192,note_on,,0,0,1,,,,,,,,,0,,,59,81
13192,note_on,,0,0,1,,,,,,,,,0,,,68,63
13192,note_on,,0,0,1,,,,,,,,,0,,,72,0
13220,note_on,,28,0,1,,,,,,,,,0,,,73,0
13221,note_on,,1,0,1,,,,,,,,,0,,,74,99
13248,note_on,,27,0,1,,,,,,,,,0,,,72,94
13251,note_on,,3,0,1,,,,,,,,,0,,,74,0
13252,note_on,,1,0,1,,,,,,,,,0,,,59,0
13252,note_on,,0,0,1,,,,,,,,,0,,,68,0
13252,note_on,,0,0,1,,,,,,,,,0,,,65,0
13278,note_on,,26,0,1,,,,,,,,,0,,,73,99
13282,note_on,,4,0,1,,,,,,,,,0,,,72,0
13306,note_on,,24,0,1,,,,,,,,,0,,,66,77
13307,note_on,,1,0,1,,,,,,,,,0,,,69,79
13308,note_on,,1,0,1,,,,,,,,,0,,,74,99
13308,note_on,,0,0,1,,,,,,,,,0,,,73,0
13310,note_on,,2,0,1,,,,,,,,,0,,,59,75
13335,note_on,,25,0,1,,,,,,,,,0,,,75,94
13336,note_on,,1,0,1,,,,,,,,,0,,,74,0
13365,note_on,,29,0,1,,,,,,,,,0,,,75,0
13366,note_on,,0,0,1,,,,,,,,,0,,,66,0
13366,note_on,,1,0,1,,,,,,,,,0,,,73,100
13367,note_on,,1,0,1,,,,,,,,,0,,,69,0
13370,note_on,,3,0,1,,,,,,,,,0,,,59,0
13397,note_on,,0,0,1,,,,,,,,,0,,,73,0
13397,note_on,,27,0,1,,,,,,,,,0,,,74,109
13430,note_on,,0,0,1,,,,,,,,,0,,,70,80
13430,note_on,,0,0,1,,,,,,,,,0,,,75,109
13430,note_on,,0,0,1,,,,,,,,,0,,,59,87
13430,note_on,,33,0,1,,,,,,,,,0,,,67,86
13432,note_on,,2,0,1,,,,,,,,,0,,,74,0
13462,note_on,,30,0,1,,,,,,,,,0,,,76,103
13464,note_on,,2,0,1,,,,,,,,,0,,,75,0
13484,note_on,,20,0,1,,,,,,,,,0,,,76,0
13490,note_on,,6,0,1,,,,,,,,,0,,,67,0
13491,note_on,,1,0,1,,,,,,,,,0,,,74,100
13500,note_on,,9,0,1,,,,,,,,,0,,,59,0
13501,note_on,,1,0,1,,,,,,,,,0,,,70,0
13522,note_on,,21,0,1,,,,,,,,,0,,,75,111
13523,note_on,,1,0,1,,,,,,,,,0,,,74,0
13552,note_on,,0,0,1,,,,,,,,,0,,,76,119
13552,note_on,,29,0,1,,,,,,,,,0,,,71,84
13552,note_on,,0,0,1,,,,,,,,,0,,,68,83
13553,note_on,,1,0,1,,,,,,,,,0,,,59,85
13562,note_on,,9,0,1,,,,,,,,,0,,,75,0
13582,note_on,,20,0,1,,,,,,,,,0,,,77,109
13582,note_on,,0,0,1,,,,,,,,,0,,,76,0
13610,note_on,,28,0,1,,,,,,,,,0,,,77,0
13611,note_on,,1,0,1,,,,,,,,,0,,,75,108
13612,note_on,,1,0,1,,,,,,,,,0,,,71,0
13612,note_on,,0,0,1,,,,,,,,,0,,,68,0
13613,note_on,,1,0,1,,,,,,,,,0,,,59,0
13640,note_on,,27,0,1,,,,,,,,,0,,,76,113
13646,note_on,,6,0,1,,,,,,,,,0,,,75,0
13670,note_on,,24,0,1,,,,,,,,,0,,,59,92
13670,note_on,,0,0,1,,,,,,,,,0,,,76,0
13670,note_on,,0,0,1,,,,,,,,,0,,,72,97
13670,note_on,,0,0,1,,,,,,,,,0,,,69,89
13671,note_on,,1,0,1,,,,,,,,,0,,,77,110
13698,note_on,,27,0,1,,,,,,,,,0,,,78,106
13700,note_on,,2,0,1,,,,,,,,,0,,,77,0
13728,note_on,,28,0,1,,,,,,,,,0,,,76,110
13730,note_on,,2,0,1,,,,,,,,,0,,,59,0
13730,note_on,,0,0,1,,,,,,,,,0,,,69,0
13736,note_on,,6,0,1,,,,,,,,,0,,,78,0
13756,note_on,,20,0,1,,,,,,,,,0,,,77,117
13760,note_on,,4,0,1,,,,,,,,,0,,,76,0
13760,note_on,,0,0,1,,,,,,,,,0,,,72,0
13786,note_on,,26,0,1,,,,,,,,,0,,,70,92
13786,note_on,,0,0,1,,,,,,,,,0,,,77,0
13787,note_on,,1,0,1,,,,,,,,,0,,,59,96
13787,note_on,,0,0,1,,,,,,,,,0,,,78,107
13788,note_on,,1,0,1,,,,,,,,,0,,,73,101
13795,control_change,,7,0,1,,,,,,,,,0,64,127,,
13817,note_on,,22,0,1,,,,,,,,,0,,,79,104
13818,note_on,,0,0,1,,,,,,,,,0,,,78,0
13818,control_change,,1,0,1,,,,,,,,,0,64,0,,
13845,note_on,,27,0,1,,,,,,,,,0,,,78,113
13846,note_on,,1,0,1,,,,,,,,,0,,,70,0
13847,note_on,,1,0,1,,,,,,,,,0,,,59,0
13850,note_on,,3,0,1,,,,,,,,,0,,,79,0
13879,note_on,,29,0,1,,,,,,,,,0,,,76,105
13883,note_on,,4,0,1,,,,,,,,,0,,,78,0
13908,note_on,,25,0,1,,,,,,,,,0,,,71,86
13908,note_on,,0,0,1,,,,,,,,,0,,,59,90
13909,note_on,,1,0,1,,,,,,,,,0,,,76,0
13910,note_on,,1,0,1,,,,,,,,,0,,,75,109
13915,note_on,,5,0,1,,,,,,,,,0,,,73,0
13938,note_on,,0,0,1,,,,,,,,,0,,,75,0
13938,note_on,,23,0,1,,,,,,,,,0,,,76,106
13970,note_on,,32,0,1,,,,,,,,,0,,,74,107
13975,note_on,,5,0,1,,,,,,,,,0,,,76,0
13998,note_on,,23,0,1,,,,,,,,,0,,,59,0
14001,note_on,,3,0,1,,,,,,,,,0,,,75,116
14003,note_on,,2,0,1,,,,,,,,,0,,,74,0
14009,note_on,,6,0,1,,,,,,,,,0,,,71,0
14031,note_on,,22,0,1,,,,,,,,,0,,,75,0
14032,note_on,,1,0,1,,,,,,,,,0,,,76,111
14033,note_on,,0,0,1,,,,,,,,,0,,,67,95
14033,note_on,,1,0,1,,,,,,,,,0,,,71,98
14061,note_on,,28,0,1,,,,,,,,,0,,,78,108
14062,note_on,,1,0,1,,,,,,,,,0,,,66,102
14064,note_on,,2,0,1,,,,,,,,,0,,,67,0
14069,note_on,,5,0,1,,,,,,,,,0,,,76,0
14087,note_on,,18,0,1,,,,,,,,,0,,,66,0
14090,note_on,,3,0,1,,,,,,,,,0,,,67,93
14090,note_on,,0,0,1,,,,,,,,,0,,,75,109
14096,note_on,,6,0,1,,,,,,,,,0,,,78,0
14113,note_on,,17,0,1,,,,,,,,,0,,,67,0
14118,note_on,,5,0,1,,,,,,,,,0,,,71,0
14120,note_on,,2,0,1,,,,,,,,,0,,,76,107
14120,note_on,,0,0,1,,,,,,,,,0,,,59,95
14150,note_on,,0,0,1,,,,,,,,,0,,,75,0
14150,note_on,,30,0,1,,,,,,,,,0,,,81,109
14151,note_on,,1,0,1,,,,,,,,,0,,,60,98
14156,note_on,,5,0,1,,,,,,,,,0,,,59,0
14165,note_on,,9,0,1,,,,,,,,,0,,,76,0
14180,note_on,,15,0,1,,,,,,,,,0,,,83,107
14181,note_on,,1,0,1,,,,,,,,,0,,,81,0
14208,note_on,,27,0,1,,,,,,,,,0,,,80,106
14211,note_on,,3,0,1,,,,,,,,,0,,,83,0
14235,note_on,,24,0,1,,,,,,,,,0,,,60,0
14237,note_on,,2,0,1,,,,,,,,,0,,,81,109
14237,note_on,,0,0,1,,,,,,,,,0,,,80,0
14267,note_on,,30,0,1,,,,,,,,,0,,,81,0
14270,note_on,,3,0,1,,,,,,,,,0,,,74,111
14270,note_on,,0,0,1,,,,,,,,,0,,,69,102
14272,note_on,,2,0,1,,,,,,,,,0,,,66,103
14298,note_on,,26,0,1,,,,,,,,,0,,,76,105
14299,note_on,,1,0,1,,,,,,,,,0,,,65,95
14302,note_on,,3,0,1,,,,,,,,,0,,,66,0
14303,note_on,,1,0,1,,,,,,,,,0,,,74,0
14319,note_on,,16,0,1,,,,,,,,,0,,,65,0
14326,note_on,,7,0,1,,,,,,,,,0,,,66,100
14327,note_on,,1,0,1,,,,,,,,,0,,,73,108
14329,note_on,,2,0,1,,,,,,,,,0,,,76,0
14352,note_on,,23,0,1,,,,,,,,,0,,,66,0
14355,note_on,,3,0,1,,,,,,,,,0,,,74,106
14355,note_on,,0,0,1,,,,,,,,,0,,,57,103
14355,note_on,,0,0,1,,,,,,,,,0,,,69,0
14358,note_on,,3,0,1,,,,,,,,,0,,,73,0
14377,note_on,,19,0,1,,,,,,,,,0,,,74,0
14388,note_on,,11,0,1,,,,,,,,,0,,,79,111
14388,note_on,,0,0,1,,,,,,,,,0,,,74,112
14388,note_on,,0,0,1,,,,,,,,,0,,,59,101
14390,note_on,,2,0,1,,,,,,,,,0,,,57,0
14421,note_on,,31,0,1,,,,,,,,,0,,,81,104
14448,note_on,,27,0,1,,,,,,,,,0,,,79,0
14452,note_on,,4,0,1,,,,,,,,,0,,,81,0
14453,note_on,,1,0,1,,,,,,,,,0,,,78,102
14478,note_on,,25,0,1,,,,,,,,,0,,,74,0
14478,note_on,,0,0,1,,,,,,,,,0,,,59,0
14482,note_on,,4,0,1,,,,,,,,,0,,,78,0
14483,note_on,,1,0,1,,,,,,,,,0,,,79,99
14512,note_on,,29,0,1,,,,,,,,,0,,,72,108
14512,note_on,,0,0,1,,,,,,,,,0,,,67,96
14513,note_on,,1,0,1,,,,,,,,,0,,,64,103
14513,note_on,,0,0,1,,,,,,,,,0,,,79,0
14538,note_on,,25,0,1,,,,,,,,,0,,,74,101
14538,note_on,,0,0,1,,,,,,,,,0,,,63,109
14538,note_on,,0,0,1,,,,,,,,,0,,,72,0
14544,note_on,,6,0,1,,,,,,,,,0,,,64,0
14559,note_on,,15,0,1,,,,,,,,,0,,,63,0
14568,note_on,,9,0,1,,,,,,,,,0,,,71,102
14568,note_on,,0,0,1,,,,,,,,,0,,,64,104
14572,note_on,,4,0,1,,,,,,,,,0,,,74,0
14579,note_on,,7,0,1,,,,,,,,,0,,,67,0
14593,note_on,,14,0,1,,,,,,,,,0,,,71,0
14593,note_on,,0,0,1,,,,,,,,,0,,,64,0
14596,note_on,,0,0,1,,,,,,,,,0,,,72,99
14596,note_on,,3,0,1,,,,,,,,,0,,,55,97
14626,note_on,,30,0,1,,,,,,,,,0,,,57,102
14626,note_on,,0,0,1,,,,,,,,,0,,,73,108
14626,note_on,,0,0,1,,,,,,,,,0,,,78,110
14626,note_on,,0,0,1,,,,,,,,,0,,,72,0
14631,note_on,,5,0,1,,,,,,,,,0,,,55,0
14656,note_on,,25,0,1,,,,,,,,,0,,,79,101
14657,note_on,,1,0,1,,,,,,,,,0,,,78,0
14676,note_on,,19,0,1,,,,,,,,,0,,,57,0
14686,note_on,,10,0,1,,,,,,,,,0,,,77,98
14705,note_on,,19,0,1,,,,,,,,,0,,,79,0
14711,note_on,,6,0,1,,,,,,,,,0,,,77,0
14715,note_on,,4,0,1,,,,,,,,,0,,,78,109
14716,note_on,,1,0,1,,,,,,,,,0,,,73,0
14745,note_on,,29,0,1,,,,,,,,,0,,,78,0
14747,note_on,,2,0,1,,,,,,,,,0,,,66,100
14748,note_on,,1,0,1,,,,,,,,,0,,,63,99
14748,note_on,,0,0,1,,,,,,,,,0,,,71,106
14773,note_on,,25,0,1,,,,,,,,,0,,,63,0
14775,note_on,,2,0,1,,,,,,,,,0,,,62,98
14775,note_on,,0,0,1,,,,,,,,,0,,,72,105
14776,note_on,,1,0,1,,,,,,,,,0,,,71,0
14791,note_on,,15,0,1,,,,,,,,,0,,,62,0
14802,note_on,,11,0,1,,,,,,,,,0,,,70,101
14802,note_on,,0,0,1,,,,,,,,,0,,,63,97
14804,note_on,,2,0,1,,,,,,,,,0,,,72,0
14830,note_on,,0,0,1,,,,,,,,,0,,,70,0
14830,note_on,,26,0,1,,,,,,,,,0,,,54,93
14831,note_on,,1,0,1,,,,,,,,,0,,,71,104
14834,note_on,,3,0,1,,,,,,,,,0,,,66,0
14836,note_on,,2,0,1,,,,,,,,,0,,,63,0
14846,note_on,,10,0,1,,,,,,,,,0,,,71,0
14861,note_on,,15,0,1,,,,,,,,,0,,,76,112
14862,note_on,,1,0,1,,,,,,,,,0,,,71,109
14863,note_on,,1,0,1,,,,,,,,,0,,,55,95
14867,note_on,,4,0,1,,,,,,,,,0,,,54,0
14892,note_on,,25,0,1,,,,,,,,,0,,,57,90
14892,note_on,,0,0,1,,,,,,,,,0,,,72,103
14892,note_on,,0,0,1,,,,,,,,,0,,,71,0
14920,note_on,,28,0,1,,,,,,,,,0,,,54,90
14921,note_on,,1,0,1,,,,,,,,,0,,,57,0
14921,note_on,,0,0,1,,,,,,,,,0,,,72,0
14922,note_on,,1,0,1,,,,,,,,,0,,,69,97
14930,note_on,,8,0,1,,,,,,,,,0,,,55,0
14947,note_on,,17,0,1,,,,,,,,,0,,,54,0
14950,note_on,,3,0,1,,,,,,,,,0,,,55,87
14951,note_on,,1,0,1,,,,,,,,,0,,,71,99
14955,note_on,,4,0,1,,,,,,,,,0,,,69,0
14980,note_on,,25,0,1,,,,,,,,,0,,,74,109
14980,note_on,,0,0,1,,,,,,,,,0,,,69,113
14980,note_on,,0,0,1,,,,,,,,,0,,,55,0
14981,note_on,,1,0,1,,,,,,,,,0,,,54,94
14981,note_on,,0,0,1,,,,,,,,,0,,,71,0
14981,note_on,,0,0,1,,,,,,,,,0,,,76,0
15005,note_on,,24,0,1,,,,,,,,,0,,,54,0
15007,note_on,,2,0,1,,,,,,,,,0,,,55,86
15007,note_on,,0,0,1,,,,,,,,,0,,,69,0
15008,note_on,,1,0,1,,,,,,,,,0,,,71,93
15031,note_on,,23,0,1,,,,,,,,,0,,,71,0
15032,note_on,,1,0,1,,,,,,,,,0,,,55,0
15037,note_on,,0,0,1,,,,,,,,,0,,,67,92
15037,note_on,,5,0,1,,,,,,,,,0,,,52,87
15064,note_on,,27,0,1,,,,,,,,,0,,,52,0
15066,note_on,,2,0,1,,,,,,,,,0,,,69,98
15067,note_on,,1,0,1,,,,,,,,,0,,,54,89
15068,note_on,,1,0,1,,,,,,,,,0,,,67,0
15072,note_on,,4,0,1,,,,,,,,,0,,,74,0
15084,note_on,,12,0,1,,,,,,,,,0,,,69,0
15097,note_on,,13,0,1,,,,,,,,,0,,,72,106
15097,note_on,,0,0,1,,,,,,,,,0,,,54,0
15098,note_on,,1,0,1,,,,,,,,,0,,,52,93
15098,note_on,,0,0,1,,,,,,,,,0,,,67,109
15124,note_on,,26,0,1,,,,,,,,,0,,,52,0
15125,note_on,,1,0,1,,,,,,,,,0,,,67,0
15127,note_on,,2,0,1,,,,,,,,,0,,,54,91
15128,note_on,,1,0,1,,,,,,,,,0,,,69,96
15149,note_on,,21,0,1,,,,,,,,,0,,,54,0
15150,note_on,,1,0,1,,,,,,,,,0,,,69,0
15156,note_on,,6,0,1,,,,,,,,,0,,,50,98
15157,note_on,,1,0,1,,,,,,,,,0,,,66,101
15177,note_on,,20,0,1,,,,,,,,,0,,,72,0
15181,note_on,,4,0,1,,,,,,,,,0,,,50,0
15185,note_on,,4,0,1,,,,,,,,,0,,,52,93
15185,note_on,,0,0,1,,,,,,,,,0,,,67,102
15187,note_on,,2,0,1,,,,,,,,,0,,,66,0
15215,note_on,,28,0,1,,,,,,,,,0,,,71,106
15215,note_on,,0,0,1,,,,,,,,,0,,,66,113
15215,note_on,,0,0,1,,,,,,,,,0,,,67,0
15215,note_on,,0,0,1,,,,,,,,,0,,,52,0
15216,note_on,,1,0,1,,,,,,,,,0,,,50,100
15242,note_on,,26,0,1,,,,,,,,,0,,,50,0
15242,note_on,,0,0,1,,,,,,,,,0,,,66,0
15245,note_on,,3,0,1,,,,,,,,,0,,,67,98
15246,note_on,,1,0,1,,,,,,,,,0,,,52,93
15263,note_on,,17,0,1,,,,,,,,,0,,,67,0
15275,note_on,,12,0,1,,,,,,,,,0,,,48,85
15276,note_on,,1,0,1,,,,,,,,,0,,,64,100
15276,note_on,,0,0,1,,,,,,,,,0,,,52,0
15302,note_on,,26,0,1,,,,,,,,,0,,,48,0
15306,note_on,,4,0,1,,,,,,,,,0,,,50,91
15307,note_on,,1,0,1,,,,,,,,,0,,,66,99
15308,note_on,,1,0,1,,,,,,,,,0,,,71,0
15312,note_on,,4,0,1,,,,,,,,,0,,,64,0
15327,note_on,,15,0,1,,,,,,,,,0,,,66,0
15335,note_on,,0,0,1,,,,,,,,,0,,,64,117
15335,note_on,,0,0,1,,,,,,,,,0,,,69,116
15335,note_on,,8,0,1,,,,,,,,,0,,,48,110
15336,note_on,,1,0,1,,,,,,,,,0,,,50,0
15365,note_on,,29,0,1,,,,,,,,,0,,,48,0
15367,note_on,,2,0,1,,,,,,,,,0,,,66,109
15368,note_on,,1,0,1,,,,,,,,,0,,,50,95
15389,note_on,,21,0,1,,,,,,,,,0,,,50,0
15395,note_on,,6,0,1,,,,,,,,,0,,,64,0
15397,note_on,,2,0,1,,,,,,,,,0,,,66,0
15401,note_on,,4,0,1,,,,,,,,,0,,,62,99
15401,note_on,,0,0,1,,,,,,,,,0,,,47,90
15427,note_on,,26,0,1,,,,,,,,,0,,,47,0
15432,note_on,,5,0,1,,,,,,,,,0,,,64,100
15433,note_on,,1,0,1,,,,,,,,,0,,,48,96
15436,note_on,,3,0,1,,,,,,,,,0,,,62,0
15450,note_on,,14,0,1,,,,,,,,,0,,,48,0
15452,note_on,,2,0,1,,,,,,,,,0,,,64,0
15455,note_on,,3,0,1,,,,,,,,,0,,,69,0
15460,note_on,,5,0,1,,,,,,,,,0,,,47,94
15463,note_on,,0,0,1,,,,,,,,,0,,,62,109
15463,note_on,,3,0,1,,,,,,,,,0,,,67,110
15490,note_on,,27,0,1,,,,,,,,,0,,,64,101
15490,note_on,,0,0,1,,,,,,,,,0,,,48,86
15490,note_on,,0,0,1,,,,,,,,,0,,,47,0
15494,note_on,,4,0,1,,,,,,,,,0,,,62,0
15520,note_on,,26,0,1,,,,,,,,,0,,,48,0
15520,note_on,,0,0,1,,,,,,,,,0,,,64,0
15521,note_on,,1,0,1,,,,,,,,,0,,,45,96
15523,note_on,,2,0,1,,,,,,,,,0,,,60,98
15551,note_on,,28,0,1,,,,,,,,,0,,,45,0
15552,note_on,,1,0,1,,,,,,,,,0,,,62,94
15552,note_on,,0,0,1,,,,,,,,,0,,,47,91
15554,note_on,,0,0,1,,,,,,,,,0,,,67,0
15554,note_on,,2,0,1,,,,,,,,,0,,,60,0
15580,note_on,,26,0,1,,,,,,,,,0,,,60,103
15582,note_on,,2,0,1,,,,,,,,,0,,,62,0
15582,note_on,,0,0,1,,,,,,,,,0,,,47,0
15583,note_on,,0,0,1,,,,,,,,,0,,,45,107
15583,note_on,,1,0,1,,,,,,,,,0,,,66,114
15610,note_on,,27,0,1,,,,,,,,,0,,,45,0
15611,note_on,,1,0,1,,,,,,,,,0,,,60,0
15615,note_on,,4,0,1,,,,,,,,,0,,,62,100
15616,note_on,,1,0,1,,,,,,,,,0,,,47,83
15646,note_on,,30,0,1,,,,,,,,,0,,,47,0
15647,note_on,,1,0,1,,,,,,,,,0,,,43,87
15648,note_on,,1,0,1,,,,,,,,,0,,,59,92
15670,note_on,,22,0,1,,,,,,,,,0,,,43,0
15671,note_on,,1,0,1,,,,,,,,,0,,,62,0
15674,note_on,,3,0,1,,,,,,,,,0,,,66,0
15677,note_on,,3,0,1,,,,,,,,,0,,,59,0
15678,note_on,,1,0,1,,,,,,,,,0,,,60,96
15678,note_on,,0,0,1,,,,,,,,,0,,,45,91
15700,note_on,,22,0,1,,,,,,,,,0,,,60,0
15708,note_on,,0,0,1,,,,,,,,,0,,,45,0
15708,note_on,,0,0,1,,,,,,,,,0,,,43,95
15708,note_on,,0,0,1,,,,,,,,,0,,,59,114
15708,note_on,,8,0,1,,,,,,,,,0,,,64,119
15733,note_on,,25,0,1,,,,,,,,,0,,,43,0
15739,note_on,,6,0,1,,,,,,,,,0,,,59,0
15740,note_on,,1,0,1,,,,,,,,,0,,,45,98
15741,note_on,,1,0,1,,,,,,,,,0,,,60,105
15770,note_on,,29,0,1,,,,,,,,,0,,,57,103
15770,note_on,,0,0,1,,,,,,,,,0,,,45,0
15771,note_on,,1,0,1,,,,,,,,,0,,,42,84
15780,note_on,,9,0,1,,,,,,,,,0,,,60,0
15795,note_on,,15,0,1,,,,,,,,,0,,,64,0
15796,note_on,,1,0,1,,,,,,,,,0,,,57,0
15796,note_on,,0,0,1,,,,,,,,,0,,,42,0
15804,note_on,,8,0,1,,,,,,,,,0,,,43,87
15804,note_on,,0,0,1,,,,,,,,,0,,,59,96
15826,note_on,,22,0,1,,,,,,,,,0,,,59,0
15834,note_on,,8,0,1,,,,,,,,,0,,,43,0
15840,note_on,,0,0,1,,,,,,,,,0,,,68,112
15840,note_on,,0,0,1,,,,,,,,,0,,,59,113
15840,note_on,,0,0,1,,,,,,,,,0,,,56,115
15840,note_on,,6,0,1,,,,,,,,,0,,,41,114
15841,note_on,,1,0,1,,,,,,,,,0,,,62,106
15930,note_on,,89,0,1,,,,,,,,,0,,,59,0
15930,note_on,,0,0,1,,,,,,,,,0,,,56,0
15930,note_on,,0,0,1,,,,,,,,,0,,,41,0
15930,note_on,,0,0,1,,,,,,,,,0,,,68,0
15931,note_on,,1,0,1,,,,,,,,,0,,,62,0
15960,note_on,,29,0,1,,,,,,,,,0,,,68,111
15960,note_on,,0,0,1,,,,,,,,,0,,,71,111
15961,note_on,,1,0,1,,,,,,,,,0,,,59,112
15962,note_on,,1,0,1,,,,,,,,,0,,,49,104
15985,note_on,,23,0,1,,,,,,,,,0,,,49,0
15987,note_on,,2,0,1,,,,,,,,,0,,,50,103
16007,note_on,,20,0,1,,,,,,,,,0,,,50,0
16017,note_on,,10,0,1,,,,,,,,,0,,,48,103
16045,note_on,,28,0,1,,,,,,,,,0,,,49,95
16045,note_on,,0,0,1,,,,,,,,,0,,,48,0
16060,note_on,,15,0,1,,,,,,,,,0,,,49,0
16075,note_on,,15,0,1,,,,,,,,,0,,,49,107
16102,note_on,,27,0,1,,,,,,,,,0,,,50,105
16102,note_on,,0,0,1,,,,,,,,,0,,,49,0
16127,note_on,,25,0,1,,,,,,,,,0,,,50,0
16132,note_on,,5,0,1,,,,,,,,,0,,,48,105
16140,note_on,,8,0,1,,,,,,,,,0,,,71,0
16140,note_on,,0,0,1,,,,,,,,,0,,,68,0
16141,note_on,,1,0,1,,,,,,,,,0,,,59,0
16159,note_on,,18,0,1,,,,,,,,,0,,,48,0
16160,note_on,,1,0,1,,,,,,,,,0,,,49,106
16182,note_on,,22,0,1,,,,,,,,,0,,,49,0
16191,note_on,,9,0,1,,,,,,,,,0,,,68,116
16192,note_on,,1,0,1,,,,,,,,,0,,,80,123
16192,note_on,,0,0,1,,,,,,,,,0,,,71,114
16193,note_on,,1,0,1,,,,,,,,,0,,,49,112
16217,note_on,,0,0,1,,,,,,,,,0,,,49,0
16217,note_on,,24,0,1,,,,,,,,,0,,,50,100
16242,note_on,,25,0,1,,,,,,,,,0,,,50,0
16248,note_on,,6,0,1,,,,,,,,,0,,,48,99
16278,note_on,,0,0,1,,,,,,,,,0,,,48,0
16278,note_on,,30,0,1,,,,,,,,,0,,,49,88
16300,note_on,,22,0,1,,,,,,,,,0,,,49,0
16312,note_on,,12,0,1,,,,,,,,,0,,,49,115
16338,note_on,,26,0,1,,,,,,,,,0,,,50,99
16339,note_on,,1,0,1,,,,,,,,,0,,,49,0
16364,note_on,,25,0,1,,,,,,,,,0,,,50,0
16370,note_on,,6,0,1,,,,,,,,,0,,,48,102
16379,note_on,,9,0,1,,,,,,,,,0,,,68,0
16379,note_on,,0,0,1,,,,,,,,,0,,,71,0
16379,note_on,,0,0,1,,,,,,,,,0,,,80,0
16399,note_on,,20,0,1,,,,,,,,,0,,,48,0
16400,note_on,,1,0,1,,,,,,,,,0,,,49,107
16422,note_on,,22,0,1,,,,,,,,,0,,,49,0
16432,note_on,,0,0,1,,,,,,,,,0,,,83,118
16432,note_on,,10,0,1,,,,,,,,,0,,,80,119
16432,note_on,,0,0,1,,,,,,,,,0,,,71,120
16433,note_on,,1,0,1,,,,,,,,,0,,,49,116
16455,note_on,,22,0,1,,,,,,,,,0,,,49,0
16460,note_on,,5,0,1,,,,,,,,,0,,,50,98
16480,note_on,,20,0,1,,,,,,,,,0,,,50,0
16487,note_on,,7,0,1,,,,,,,,,0,,,48,106
16492,note_on,,5,0,1,,,,,,,,,0,,,83,0
16492,note_on,,0,0,1,,,,,,,,,0,,,80,0
16492,note_on,,0,0,1,,,,,,,,,0,,,71,0
16509,note_on,,17,0,1,,,,,,,,,0,,,48,0
16515,note_on,,6,0,1,,,,,,,,,0,,,49,111
16530,note_on,,15,0,1,,,,,,,,,0,,,49,0
16545,note_on,,15,0,1,,,,,,,,,0,,,92,127
16545,note_on,,0,0,1,,,,,,,,,0,,,83,116
16545,note_on,,0,0,1,,,,,,,,,0,,,80,119
16547,note_on,,2,0,1,,,,,,,,,0,,,49,116
16572,note_on,,25,0,1,,,,,,,,,0,,,49,0
16573,note_on,,1,0,1,,,,,,,,,0,,,50,106
16593,note_on,,20,0,1,,,,,,,,,0,,,50,0
16601,note_on,,8,0,1,,,,,,,,,0,,,48,107
16626,note_on,,25,0,1,,,,,,,,,0,,,49,101
16627,note_on,,1,0,1,,,,,,,,,0,,,48,0
16635,note_on,,8,0,1,,,,,,,,,0,,,49,0
16655,note_on,,20,0,1,,,,,,,,,0,,,49,115
16675,note_on,,20,0,1,,,,,,,,,0,,,92,0
16682,note_on,,7,0,1,,,,,,,,,0,,,80,0
16682,note_on,,0,0,1,,,,,,,,,0,,,83,0
16685,note_on,,3,0,1,,,,,,,,,0,,,50,106
16685,note_on,,0,0,1,,,,,,,,,0,,,49,0
16705,note_on,,20,0,1,,,,,,,,,0,,,50,0
16712,note_on,,7,0,1,,,,,,,,,0,,,48,106
16712,note_on,,0,0,1,,,,,,,,,0,,,83,102
16713,note_on,,1,0,1,,,,,,,,,0,,,90,118
16713,note_on,,0,0,1,,,,,,,,,0,,,78,109
16737,note_on,,24,0,1,,,,,,,,,0,,,48,0
16741,note_on,,4,0,1,,,,,,,,,0,,,49,106
16742,note_on,,1,0,1,,,,,,,,,0,,,83,0
16743,note_on,,1,0,1,,,,,,,,,0,,,78,0
16743,note_on,,0,0,1,,,,,,,,,0,,,90,0
16772,note_on,,29,0,1,,,,,,,,,0,,,89,126
16773,note_on,,1,0,1,,,,,,,,,0,,,83,114
16773,note_on,,0,0,1,,,,,,,,,0,,,77,120
16775,note_on,,2,0,1,,,,,,,,,0,,,50,114
16776,note_on,,1,0,1,,,,,,,,,0,,,49,0
16820,note_on,,44,0,1,,,,,,,,,0,,,50,0
16874,note_on,,54,0,1,,,,,,,,,0,,,89,0
16874,note_on,,0,0,1,,,,,,,,,0,,,77,0
16874,note_on,,0,0,1,,,,,,,,,0,,,83,0
16907,note_on,,0,0,1,,,,,,,,,0,,,80,108
16907,note_on,,33,0,1,,,,,,,,,0,,,83,123
16935,note_on,,28,0,1,,,,,,,,,0,,,80,0
16937,note_on,,2,0,1,,,,,,,,,0,,,74,95
16938,note_on,,1,0,1,,,,,,,,,0,,,85,116
16943,note_on,,5,0,1,,,,,,,,,0,,,83,0
16962,note_on,,19,0,1,,,,,,,,,0,,,71,94
16965,note_on,,3,0,1,,,,,,,,,0,,,83,106
16965,note_on,,0,0,1,,,,,,,,,0,,,74,0
16966,note_on,,1,0,1,,,,,,,,,0,,,85,0
16987,note_on,,21,0,1,,,,,,,,,0,,,71,0
16990,note_on,,3,0,1,,,,,,,,,0,,,92,106
16990,note_on,,0,0,1,,,,,,,,,0,,,83,0
16991,note_on,,1,0,1,,,,,,,,,0,,,65,98
17020,note_on,,29,0,1,,,,,,,,,0,,,77,112
17020,note_on,,0,0,1,,,,,,,,,0,,,92,0
17021,note_on,,1,0,1,,,,,,,,,0,,,65,0
17022,note_on,,1,0,1,,,,,,,,,0,,,80,124
17050,note_on,,28,0,1,,,,,,,,,0,,,82,109
17050,note_on,,0,0,1,,,,,,,,,0,,,71,91
17053,note_on,,3,0,1,,,,,,,,,0,,,80,0
17055,note_on,,2,0,1,,,,,,,,,0,,,77,0
17076,note_on,,21,0,1,,,,,,,,,0,,,82,0
17078,note_on,,2,0,1,,,,,,,,,0,,,68,94
17078,note_on,,0,0,1,,,,,,,,,0,,,80,95
17080,note_on,,2,0,1,,,,,,,,,0,,,71,0
17106,note_on,,26,0,1,,,,,,,,,0,,,62,94
17106,note_on,,0,0,1,,,,,,,,,0,,,89,99
17108,note_on,,2,0,1,,,,,,,,,0,,,80,0
17108,note_on,,0,0,1,,,,,,,,,0,,,68,0
17135,note_on,,27,0,1,,,,,,,,,0,,,77,122
17135,note_on,,0,0,1,,,,,,,,,0,,,74,109
17136,note_on,,1,0,1,,,,,,,,,0,,,62,0
17136,note_on,,0,0,1,,,,,,,,,0,,,89,0
17161,note_on,,25,0,1,,,,,,,,,0,,,78,116
17162,note_on,,1,0,1,,,,,,,,,0,,,68,95
17166,note_on,,4,0,1,,,,,,,,,0,,,77,0
17175,note_on,,9,0,1,,,,,,,,,0,,,74,0
17190,note_on,,15,0,1,,,,,,,,,0,,,77,113
17191,note_on,,1,0,1,,,,,,,,,0,,,65,90
17191,note_on,,0,0,1,,,,,,,,,0,,,78,0
17197,note_on,,6,0,1,,,,,,,,,0,,,68,0
17216,note_on,,19,0,1,,,,,,,,,0,,,86,93
17217,note_on,,1,0,1,,,,,,,,,0,,,59,88
17220,note_on,,3,0,1,,,,,,,,,0,,,77,0
17221,note_on,,1,0,1,,,,,,,,,0,,,65,0
17246,note_on,,25,0,1,,,,,,,,,0,,,74,115
17246,note_on,,0,0,1,,,,,,,,,0,,,86,0
17247,note_on,,1,0,1,,,,,,,,,0,,,71,106
17247,note_on,,0,0,1,,,,,,,,,0,,,59,0
17273,note_on,,26,0,1,,,,,,,,,0,,,65,99
17273,note_on,,0,0,1,,,,,,,,,0,,,76,112
17277,note_on,,4,0,1,,,,,,,,,0,,,74,0
17300,note_on,,23,0,1,,,,,,,,,0,,,62,80
17300,note_on,,0,0,1,,,,,,,,,0,,,74,99
17302,note_on,,2,0,1,,,,,,,,,0,,,76,0
17309,note_on,,7,0,1,,,,,,,,,0,,,71,0
17309,note_on,,0,0,1,,,,,,,,,0,,,65,0
17327,note_on,,18,0,1,,,,,,,,,0,,,62,0
17330,note_on,,3,0,1,,,,,,,,,0,,,56,99
17330,note_on,,0,0,1,,,,,,,,,0,,,83,93
17330,note_on,,0,0,1,,,,,,,,,0,,,74,0
17360,note_on,,30,0,1,,,,,,,,,0,,,56,0
17365,note_on,,5,0,1,,,,,,,,,0,,,71,116
17365,note_on,,0,0,1,,,,,,,,,0,,,68,113
17390,note_on,,25,0,1,,,,,,,,,0,,,83,0
17395,note_on,,5,0,1,,,,,,,,,0,,,73,110
17395,note_on,,0,0,1,,,,,,,,,0,,,62,96
17401,note_on,,6,0,1,,,,,,,,,0,,,71,0
17408,note_on,,7,0,1,,,,,,,,,0,,,68,0
17424,note_on,,16,0,1,,,,,,,,,0,,,59,90
17425,note_on,,0,0,1,,,,,,,,,0,,,73,0
17425,note_on,,1,0,1,,,,,,,,,0,,,71,104
17430,note_on,,5,0,1,,,,,,,,,0,,,62,0
17447,note_on,,17,0,1,,,,,,,,,0,,,59,0
17452,note_on,,5,0,1,,,,,,,,,0,,,71,0
17455,note_on,,3,0,1,,,,,,,,,0,,,80,103
17456,note_on,,1,0,1,,,,,,,,,0,,,53,94
17486,note_on,,30,0,1,,,,,,,,,0,,,53,0
17487,note_on,,1,0,1,,,,,,,,,0,,,68,121
17488,note_on,,1,0,1,,,,,,,,,0,,,65,109
17515,note_on,,27,0,1,,,,,,,,,0,,,80,0
17518,note_on,,3,0,1,,,,,,,,,0,,,70,104
17518,note_on,,0,0,1,,,,,,,,,0,,,59,93
17524,note_on,,6,0,1,,,,,,,,,0,,,68,0
17526,note_on,,2,0,1,,,,,,,,,0,,,65,0
17545,note_on,,19,0,1,,,,,,,,,0,,,56,85
17546,note_on,,1,0,1,,,,,,,,,0,,,68,99
17548,note_on,,2,0,1,,,,,,,,,0,,,70,0
17548,note_on,,0,0,1,,,,,,,,,0,,,59,0
17575,note_on,,27,0,1,,,,,,,,,0,,,56,0
17575,note_on,,0,0,1,,,,,,,,,0,,,68,0
17576,note_on,,0,0,1,,,,,,,,,0,,,77,98
17576,note_on,,1,0,1,,,,,,,,,0,,,50,90
17606,note_on,,30,0,1,,,,,,,,,0,,,50,0
17607,note_on,,1,0,1,,,,,,,,,0,,,65,119
17607,note_on,,0,0,1,,,,,,,,,0,,,62,109
17635,note_on,,28,0,1,,,,,,,,,0,,,56,101
17635,note_on,,0,0,1,,,,,,,,,0,,,66,120
17636,note_on,,1,0,1,,,,,,,,,0,,,77,0
17638,note_on,,2,0,1,,,,,,,,,0,,,65,0
17646,note_on,,8,0,1,,,,,,,,,0,,,62,0
17665,note_on,,19,0,1,,,,,,,,,0,,,65,118
17666,note_on,,1,0,1,,,,,,,,,0,,,53,92
17668,note_on,,2,0,1,,,,,,,,,0,,,66,0
17673,note_on,,5,0,1,,,,,,,,,0,,,56,0
17695,note_on,,22,0,1,,,,,,,,,0,,,65,0
17696,note_on,,1,0,1,,,,,,,,,0,,,53,0
17697,note_on,,0,0,1,,,,,,,,,0,,,47,98
17697,note_on,,1,0,1,,,,,,,,,0,,,74,121
17726,note_on,,29,0,1,,,,,,,,,0,,,74,0
17727,note_on,,1,0,1,,,,,,,,,0,,,47,0
17731,note_on,,0,0,1,,,,,,,,,0,,,70,106
17731,note_on,,4,0,1,,,,,,,,,0,,,73,109
17733,note_on,,2,0,1,,,,,,,,,0,,,61,113
17733,note_on,,0,0,1,,,,,,,,,0,,,43,106
17821,note_on,,88,0,1,,,,,,,,,0,,,70,0
17821,note_on,,0,0,1,,,,,,,,,0,,,73,0
17823,note_on,,2,0,1,,,,,,,,,0,,,61,0
17823,note_on,,0,0,1,,,,,,,,,0,,,43,0
17865,note_on,,42,0,1,,,,,,,,,0,,,61,124
17866,note_on,,1,0,1,,,,,,,,,0,,,73,119
17867,note_on,,1,0,1,,,,,,,,,0,,,70,112
17867,note_on,,0,0,1,,,,,,,,,0,,,51,109
17894,note_on,,27,0,1,,,,,,,,,0,,,51,0
17897,note_on,,3,0,1,,,,,,,,,0,,,52,100
17924,note_on,,27,0,1,,,,,,,,,0,,,52,0
17927,note_on,,3,0,1,,,,,,,,,0,,,50,99
17957,note_on,,30,0,1,,,,,,,,,0,,,51,103
17957,note_on,,0,0,1,,,,,,,,,0,,,50,0
17972,note_on,,15,0,1,,,,,,,,,0,,,51,0
17988,note_on,,16,0,1,,,,,,,,,0,,,51,113
18016,note_on,,28,0,1,,,,,,,,,0,,,51,0
18018,note_on,,2,0,1,,,,,,,,,0,,,52,103
18046,note_on,,28,0,1,,,,,,,,,0,,,52,0
18048,note_on,,2,0,1,,,,,,,,,0,,,50,105
18050,note_on,,2,0,1,,,,,,,,,0,,,61,0
18057,note_on,,7,0,1,,,,,,,,,0,,,70,0
18068,note_on,,11,0,1,,,,,,,,,0,,,73,0
18074,note_on,,6,0,1,,,,,,,,,0,,,50,0
18077,note_on,,3,0,1,,,,,,,,,0,,,51,109
18092,note_on,,15,0,1,,,,,,,,,0,,,51,0
18110,note_on,,18,0,1,,,,,,,,,0,,,82,124
18111,note_on,,1,0,1,,,,,,,,,0,,,70,116
18111,note_on,,0,0,1,,,,,,,,,0,,,73,117
18112,note_on,,1,0,1,,,,,,,,,0,,,51,113
18139,note_on,,27,0,1,,,,,,,,,0,,,51,0
18142,note_on,,3,0,1,,,,,,,,,0,,,52,104
18165,note_on,,23,0,1,,,,,,,,,0,,,52,0
18172,note_on,,7,0,1,,,,,,,,,0,,,50,101
18198,note_on,,26,0,1,,,,,,,,,0,,,50,0
18200,note_on,,2,0,1,,,,,,,,,0,,,51,103
18208,note_on,,8,0,1,,,,,,,,,0,,,51,0
18230,note_on,,22,0,1,,,,,,,,,0,,,51,113
18260,note_on,,30,0,1,,,,,,,,,0,,,51,0
18261,note_on,,1,0,1,,,,,,,,,0,,,52,109
18289,note_on,,28,0,1,,,,,,,,,0,,,52,0
18290,note_on,,1,0,1,,,,,,,,,0,,,50,103
18299,note_on,,0,0,1,,,,,,,,,0,,,70,0
18299,note_on,,9,0,1,,,,,,,,,0,,,73,0
18299,note_on,,0,0,1,,,,,,,,,0,,,82,0
18319,note_on,,20,0,1,,,,,,,,,0,,,50,0
18323,note_on,,4,0,1,,,,,,,,,0,,,51,103
18335,note_on,,12,0,1,,,,,,,,,0,,,51,0
18355,note_on,,20,0,1,,,,,,,,,0,,,73,122
18355,note_on,,0,0,1,,,,,,,,,0,,,85,124
18355,note_on,,0,0,1,,,,,,,,,0,,,82,118
18357,note_on,,2,0,1,,,,,,,,,0,,,51,116
18380,note_on,,23,0,1,,,,,,,,,0,,,51,0
18385,note_on,,5,0,1,,,,,,,,,0,,,52,104
18405,note_on,,20,0,1,,,,,,,,,0,,,52,0
18415,note_on,,0,0,1,,,,,,,,,0,,,85,0
18415,note_on,,10,0,1,,,,,,,,,0,,,50,100
18415,note_on,,0,0,1,,,,,,,,,0,,,82,0
18415,note_on,,0,0,1,,,,,,,,,0,,,73,0
18435,note_on,,20,0,1,,,,,,,,,0,,,50,0
18445,note_on,,10,0,1,,,,,,,,,0,,,51,102
18453,note_on,,8,0,1,,,,,,,,,0,,,51,0
18472,note_on,,0,0,1,,,,,,,,,0,,,82,121
18472,note_on,,19,0,1,,,,,,,,,0,,,94,127
18473,note_on,,0,0,1,,,,,,,,,0,,,51,115
18473,note_on,,1,0,1,,,,,,,,,0,,,85,122
18498,note_on,,25,0,1,,,,,,,,,0,,,51,0
18502,note_on,,4,0,1,,,,,,,,,0,,,52,106
18530,note_on,,28,0,1,,,,,,,,,0,,,50,103
18530,note_on,,0,0,1,,,,,,,,,0,,,52,0
18557,note_on,,27,0,1,,,,,,,,,0,,,50,0
18558,note_on,,1,0,1,,,,,,,,,0,,,51,114
18567,note_on,,9,0,1,,,,,,,,,0,,,51,0
18590,note_on,,23,0,1,,,,,,,,,0,,,51,117
18614,note_on,,24,0,1,,,,,,,,,0,,,94,0
18615,note_on,,1,0,1,,,,,,,,,0,,,85,0
18619,note_on,,4,0,1,,,,,,,,,0,,,51,0
18620,note_on,,0,0,1,,,,,,,,,0,,,82,0
18620,note_on,,1,0,1,,,,,,,,,0,,,52,108
18641,note_on,,21,0,1,,,,,,,,,0,,,52,0
18650,note_on,,9,0,1,,,,,,,,,0,,,50,105
18650,note_on,,0,0,1,,,,,,,,,0,,,92,122
18650,note_on,,0,0,1,,,,,,,,,0,,,80,116
18651,note_on,,1,0,1,,,,,,,,,0,,,85,107
18676,note_on,,25,0,1,,,,,,,,,0,,,50,0
18683,note_on,,7,0,1,,,,,,,,,0,,,51,110
18695,note_on,,12,0,1,,,,,,,,,0,,,80,0
18696,note_on,,1,0,1,,,,,,,,,0,,,85,0
18702,note_on,,6,0,1,,,,,,,,,0,,,92,0
18715,note_on,,13,0,1,,,,,,,,,0,,,91,120
18715,note_on,,0,0,1,,,,,,,,,0,,,85,117
18716,note_on,,1,0,1,,,,,,,,,0,,,79,112
18718,note_on,,2,0,1,,,,,,,,,0,,,52,115
18724,note_on,,6,0,1,,,,,,,,,0,,,51,0
18772,note_on,,48,0,1,,,,,,,,,0,,,52,0
18817,note_on,,45,0,1,,,,,,,,,0,,,79,0
18817,note_on,,0,0,1,,,,,,,,,0,,,85,0
18825,note_on,,8,0,1,,,,,,,,,0,,,91,0
18845,note_on,,0,0,1,,,,,,,,,0,,,85,127
18845,note_on,,20,0,1,,,,,,,,,0,,,79,104
18872,note_on,,27,0,1,,,,,,,,,0,,,87,113
18873,note_on,,1,0,1,,,,,,,,,0,,,73,91
18880,note_on,,7,0,1,,,,,,,,,0,,,85,0
18888,note_on,,8,0,1,,,,,,,,,0,,,79,0
18901,note_on,,13,0,1,,,,,,,,,0,,,70,79
18903,note_on,,2,0,1,,,,,,,,,0,,,85,116
18904,note_on,,1,0,1,,,,,,,,,0,,,73,0
18905,note_on,,1,0,1,,,,,,,,,0,,,87,0
18927,note_on,,22,0,1,,,,,,,,,0,,,70,0
18929,note_on,,2,0,1,,,,,,,,,0,,,94,109
18930,note_on,,1,0,1,,,,,,,,,0,,,64,87
18930,note_on,,0,0,1,,,,,,,,,0,,,85,0
18955,note_on,,25,0,1,,,,,,,,,0,,,82,116
18956,note_on,,1,0,1,,,,,,,,,0,,,76,105
18959,note_on,,3,0,1,,,,,,,,,0,,,94,0
18960,note_on,,1,0,1,,,,,,,,,0,,,64,0
18985,note_on,,25,0,1,,,,,,,,,0,,,70,95
18985,note_on,,0,0,1,,,,,,,,,0,,,84,109
18987,note_on,,2,0,1,,,,,,,,,0,,,82,0
18997,note_on,,10,0,1,,,,,,,,,0,,,76,0
19012,note_on,,15,0,1,,,,,,,,,0,,,82,100
19012,note_on,,0,0,1,,,,,,,,,0,,,67,85
19012,note_on,,0,0,1,,,,,,,,,0,,,84,0
19016,note_on,,4,0,1,,,,,,,,,0,,,70,0
19040,note_on,,24,0,1,,,,,,,,,0,,,61,85
19040,note_on,,0,0,1,,,,,,,,,0,,,91,99
19042,note_on,,2,0,1,,,,,,,,,0,,,82,0
19042,note_on,,0,0,1,,,,,,,,,0,,,67,0
19070,note_on,,0,0,1,,,,,,,,,0,,,91,0
19070,note_on,,0,0,1,,,,,,,,,0,,,61,0
19070,note_on,,28,0,1,,,,,,,,,0,,,73,108
19070,note_on,,0,0,1,,,,,,,,,0,,,79,113
19098,note_on,,0,0,1,,,,,,,,,0,,,67,92
19098,note_on,,28,0,1,,,,,,,,,0,,,80,113
19104,note_on,,6,0,1,,,,,,,,,0,,,79,0
19112,note_on,,8,0,1,,,,,,,,,0,,,73,0
19125,note_on,,13,0,1,,,,,,,,,0,,,64,81
19127,note_on,,2,0,1,,,,,,,,,0,,,79,92
19131,note_on,,4,0,1,,,,,,,,,0,,,67,0
19136,note_on,,5,0,1,,,,,,,,,0,,,80,0
19151,note_on,,15,0,1,,,,,,,,,0,,,64,0
19155,note_on,,4,0,1,,,,,,,,,0,,,58,89
19155,note_on,,0,0,1,,,,,,,,,0,,,88,92
19157,note_on,,2,0,1,,,,,,,,,0,,,79,0
19173,note_on,,16,0,1,,,,,,,,,0,,,58,0
19183,note_on,,10,0,1,,,,,,,,,0,,,70,90
19183,note_on,,0,0,1,,,,,,,,,0,,,76,109
19185,note_on,,2,0,1,,,,,,,,,0,,,88,0
19212,note_on,,27,0,1,,,,,,,,,0,,,78,102
19213,note_on,,1,0,1,,,,,,,,,0,,,64,96
19220,note_on,,7,0,1,,,,,,,,,0,,,76,0
19240,note_on,,20,0,1,,,,,,,,,0,,,76,95
19240,note_on,,0,0,1,,,,,,,,,0,,,61,61
19241,note_on,,1,0,1,,,,,,,,,0,,,78,0
19243,note_on,,2,0,1,,,,,,,,,0,,,64,0
19243,note_on,,0,0,1,,,,,,,,,0,,,70,0
19270,note_on,,27,0,1,,,,,,,,,0,,,76,0
19272,note_on,,2,0,1,,,,,,,,,0,,,55,87
19272,note_on,,0,0,1,,,,,,,,,0,,,85,100
19280,note_on,,8,0,1,,,,,,,,,0,,,61,0
19300,note_on,,20,0,1,,,,,,,,,0,,,67,101
19300,note_on,,0,0,1,,,,,,,,,0,,,73,106
19302,note_on,,2,0,1,,,,,,,,,0,,,85,0
19302,note_on,,0,0,1,,,,,,,,,0,,,55,0
19330,note_on,,0,0,1,,,,,,,,,0,,,61,95
19330,note_on,,28,0,1,,,,,,,,,0,,,75,102
19332,note_on,,2,0,1,,,,,,,,,0,,,73,0
19337,note_on,,5,0,1,,,,,,,,,0,,,67,0
19357,note_on,,20,0,1,,,,,,,,,0,,,58,89
19358,note_on,,1,0,1,,,,,,,,,0,,,73,99
19358,note_on,,0,0,1,,,,,,,,,0,,,75,0
19361,note_on,,3,0,1,,,,,,,,,0,,,61,0
19382,note_on,,21,0,1,,,,,,,,,0,,,58,0
19385,note_on,,3,0,1,,,,,,,,,0,,,52,92
19386,note_on,,1,0,1,,,,,,,,,0,,,82,98
19389,note_on,,3,0,1,,,,,,,,,0,,,73,0
19415,note_on,,26,0,1,,,,,,,,,0,,,70,115
19415,note_on,,0,0,1,,,,,,,,,0,,,64,110
19415,note_on,,0,0,1,,,,,,,,,0,,,52,0
19416,note_on,,1,0,1,,,,,,,,,0,,,82,0
19445,note_on,,29,0,1,,,,,,,,,0,,,72,96
19445,note_on,,0,0,1,,,,,,,,,0,,,58,101
19445,note_on,,0,0,1,,,,,,,,,0,,,70,0
19449,note_on,,4,0,1,,,,,,,,,0,,,64,0
19470,note_on,,21,0,1,,,,,,,,,0,,,70,88
19471,note_on,,1,0,1,,,,,,,,,0,,,55,90
19472,note_on,,1,0,1,,,,,,,,,0,,,72,0
19475,note_on,,3,0,1,,,,,,,,,0,,,58,0
19500,note_on,,25,0,1,,,,,,,,,0,,,79,94
19500,note_on,,0,0,1,,,,,,,,,0,,,49,83
19501,note_on,,1,0,1,,,,,,,,,0,,,55,0
19503,note_on,,2,0,1,,,,,,,,,0,,,70,0
19530,note_on,,27,0,1,,,,,,,,,0,,,79,0
19530,note_on,,0,0,1,,,,,,,,,0,,,49,0
19532,note_on,,2,0,1,,,,,,,,,0,,,61,113
19533,note_on,,1,0,1,,,,,,,,,0,,,67,114
19560,note_on,,27,0,1,,,,,,,,,0,,,68,111
19561,note_on,,1,0,1,,,,,,,,,0,,,55,94
19564,note_on,,3,0,1,,,,,,,,,0,,,67,0
19569,note_on,,5,0,1,,,,,,,,,0,,,61,0
19588,note_on,,0,0,1,,,,,,,,,0,,,52,89
19588,note_on,,19,0,1,,,,,,,,,0,,,67,101
19590,note_on,,2,0,1,,,,,,,,,0,,,68,0
19597,note_on,,7,0,1,,,,,,,,,0,,,55,0
19616,note_on,,19,0,1,,,,,,,,,0,,,76,94
19617,note_on,,0,0,1,,,,,,,,,0,,,52,0
19617,note_on,,1,0,1,,,,,,,,,0,,,46,81
19618,note_on,,1,0,1,,,,,,,,,0,,,67,0
19646,note_on,,28,0,1,,,,,,,,,0,,,76,0
19647,note_on,,1,0,1,,,,,,,,,0,,,46,0
19652,note_on,,5,0,1,,,,,,,,,0,,,63,108
19653,note_on,,1,0,1,,,,,,,,,0,,,47,103
19682,note_on,,29,0,1,,,,,,,,,0,,,75,110
19683,note_on,,1,0,1,,,,,,,,,0,,,51,101
19697,note_on,,14,0,1,,,,,,,,,0,,,47,0
19709,note_on,,12,0,1,,,,,,,,,0,,,63,0
19709,note_on,,0,0,1,,,,,,,,,0,,,51,0
19710,note_on,,0,0,1,,,,,,,,,0,,,75,0
19710,note_on,,1,0,1,,,,,,,,,0,,,76,109
19713,note_on,,3,0,1,,,,,,,,,0,,,55,93
19740,note_on,,0,0,1,,,,,,,,,0,,,76,0
19740,note_on,,27,0,1,,,,,,,,,0,,,75,103
19743,note_on,,3,0,1,,,,,,,,,0,,,56,98
19744,note_on,,1,0,1,,,,,,,,,0,,,55,0
19772,note_on,,28,0,1,,,,,,,,,0,,,58,110
19772,note_on,,0,0,1,,,,,,,,,0,,,73,109
19773,note_on,,1,0,1,,,,,,,,,0,,,56,0
19781,note_on,,8,0,1,,,,,,,,,0,,,75,0
19800,note_on,,19,0,1,,,,,,,,,0,,,73,0
19803,note_on,,3,0,1,,,,,,,,,0,,,58,0
19805,note_on,,2,0,1,,,,,,,,,0,,,71,93
19805,note_on,,0,0,1,,,,,,,,,0,,,59,101
19833,note_on,,28,0,1,,,,,,,,,0,,,71,0
19835,note_on,,2,0,1,,,,,,,,,0,,,61,83
19835,note_on,,0,0,1,,,,,,,,,0,,,59,0
19835,note_on,,0,0,1,,,,,,,,,0,,,70,98
19860,note_on,,25,0,1,,,,,,,,,0,,,61,0
19863,note_on,,3,0,1,,,,,,,,,0,,,63,93
19863,note_on,,0,0,1,,,,,,,,,0,,,68,98
19865,note_on,,2,0,1,,,,,,,,,0,,,70,0
19887,note_on,,22,0,1,,,,,,,,,0,,,63,0
19891,note_on,,4,0,1,,,,,,,,,0,,,68,0
19895,note_on,,0,0,1,,,,,,,,,0,,,64,101
19895,note_on,,4,0,1,,,,,,,,,0,,,67,119
19925,note_on,,30,0,1,,,,,,,,,0,,,58,99
19926,note_on,,1,0,1,,,,,,,,,0,,,68,110
19931,note_on,,5,0,1,,,,,,,,,0,,,67,0
19945,note_on,,14,0,1,,,,,,,,,0,,,64,0
19954,note_on,,9,0,1,,,,,,,,,0,,,55,79
19955,note_on,,0,0,1,,,,,,,,,0,,,68,0
19955,note_on,,1,0,1,,,,,,,,,0,,,67,103
19959,note_on,,4,0,1,,,,,,,,,0,,,58,0
19981,note_on,,22,0,1,,,,,,,,,0,,,49,56
19984,note_on,,0,0,1,,,,,,,,,0,,,55,0
19984,note_on,,3,0,1,,,,,,,,,0,,,76,95
19984,note_on,,0,0,1,,,,,,,,,0,,,67,0
20011,note_on,,27,0,1,,,,,,,,,0,,,49,0
20014,note_on,,3,0,1,,,,,,,,,0,,,76,0
20017,note_on,,3,0,1,,,,,,,,,0,,,61,112
20017,note_on,,0,0,1,,,,,,,,,0,,,64,117
20045,note_on,,28,0,1,,,,,,,,,0,,,55,97
20045,note_on,,0,0,1,,,,,,,,,0,,,66,108
20050,note_on,,5,0,1,,,,,,,,,0,,,64,0
20054,note_on,,4,0,1,,,,,,,,,0,,,61,0
20073,note_on,,19,0,1,,,,,,,,,0,,,52,86
20073,note_on,,0,0,1,,,,,,,,,0,,,64,90
20077,note_on,,4,0,1,,,,,,,,,0,,,66,0
20089,note_on,,12,0,1,,,,,,,,,0,,,55,0
20103,note_on,,14,0,1,,,,,,,,,0,,,52,0
20104,note_on,,1,0,1,,,,,,,,,0,,,64,0
20107,note_on,,3,0,1,,,,,,,,,0,,,46,90
20107,note_on,,0,0,1,,,,,,,,,0,,,73,92
20137,note_on,,0,0,1,,,,,,,,,0,,,46,0
20137,note_on,,30,0,1,,,,,,,,,0,,,73,0
20140,note_on,,3,0,1,,,,,,,,,0,,,63,119
20140,note_on,,0,0,1,,,,,,,,,0,,,47,105
20173,note_on,,0,0,1,,,,,,,,,0,,,51,100
20173,note_on,,33,0,1,,,,,,,,,0,,,75,106
20200,note_on,,0,0,1,,,,,,,,,0,,,63,0
20200,note_on,,27,0,1,,,,,,,,,0,,,47,0
20202,note_on,,2,0,1,,,,,,,,,0,,,51,0
20204,note_on,,2,0,1,,,,,,,,,0,,,75,0
20205,note_on,,1,0,1,,,,,,,,,0,,,76,106
20205,note_on,,0,0,1,,,,,,,,,0,,,55,98
20235,note_on,,30,0,1,,,,,,,,,0,,,75,108
20235,note_on,,0,0,1,,,,,,,,,0,,,56,102
20236,note_on,,1,0,1,,,,,,,,,0,,,55,0
20238,note_on,,2,0,1,,,,,,,,,0,,,76,0
20267,note_on,,29,0,1,,,,,,,,,0,,,56,0
20268,note_on,,1,0,1,,,,,,,,,0,,,58,111
20268,note_on,,0,0,1,,,,,,,,,0,,,73,109
20273,note_on,,5,0,1,,,,,,,,,0,,,75,0
20295,note_on,,22,0,1,,,,,,,,,0,,,71,94
20295,note_on,,0,0,1,,,,,,,,,0,,,59,99
20296,note_on,,1,0,1,,,,,,,,,0,,,58,0
20297,note_on,,1,0,1,,,,,,,,,0,,,73,0
20320,note_on,,23,0,1,,,,,,,,,0,,,59,0
20325,note_on,,5,0,1,,,,,,,,,0,,,70,104
20325,note_on,,0,0,1,,,,,,,,,0,,,61,94
20326,note_on,,1,0,1,,,,,,,,,0,,,71,0
20355,note_on,,0,0,1,,,,,,,,,0,,,70,0
20355,note_on,,29,0,1,,,,,,,,,0,,,68,104
20355,note_on,,0,0,1,,,,,,,,,0,,,63,95
20357,note_on,,2,0,1,,,,,,,,,0,,,61,0
20380,note_on,,23,0,1,,,,,,,,,0,,,68,0
20385,note_on,,5,0,1,,,,,,,,,0,,,63,0
20387,note_on,,2,0,1,,,,,,,,,0,,,69,118
20387,note_on,,0,0,1,,,,,,,,,0,,,66,113
20418,note_on,,31,0,1,,,,,,,,,0,,,60,95
20418,note_on,,0,0,1,,,,,,,,,0,,,70,117
20424,note_on,,6,0,1,,,,,,,,,0,,,69,0
20447,note_on,,23,0,1,,,,,,,,,0,,,57,88
20448,note_on,,1,0,1,,,,,,,,,0,,,69,110
20449,note_on,,1,0,1,,,,,,,,,0,,,70,0
20453,note_on,,4,0,1,,,,,,,,,0,,,60,0
20474,note_on,,0,0,1,,,,,,,,,0,,,57,0
20474,note_on,,21,0,1,,,,,,,,,0,,,66,0
20478,note_on,,0,0,1,,,,,,,,,0,,,69,0
20478,note_on,,0,0,1,,,,,,,,,0,,,78,102
20478,note_on,,4,0,1,,,,,,,,,0,,,51,82
20508,note_on,,30,0,1,,,,,,,,,0,,,78,0
20508,note_on,,0,0,1,,,,,,,,,0,,,51,0
20510,note_on,,2,0,1,,,,,,,,,0,,,66,121
20510,note_on,,0,0,1,,,,,,,,,0,,,63,113
20540,note_on,,30,0,1,,,,,,,,,0,,,68,102
20540,note_on,,0,0,1,,,,,,,,,0,,,57,100
20541,note_on,,1,0,1,,,,,,,,,0,,,66,0
20567,note_on,,26,0,1,,,,,,,,,0,,,63,0
20571,note_on,,0,0,1,,,,,,,,,0,,,68,0
20571,note_on,,4,0,1,,,,,,,,,0,,,54,83
20571,note_on,,0,0,1,,,,,,,,,0,,,66,103
20588,note_on,,17,0,1,,,,,,,,,0,,,57,0
20599,note_on,,11,0,1,,,,,,,,,0,,,48,91
20599,note_on,,0,0,1,,,,,,,,,0,,,75,93
20605,note_on,,6,0,1,,,,,,,,,0,,,66,0
20609,note_on,,4,0,1,,,,,,,,,0,,,54,0
20629,note_on,,20,0,1,,,,,,,,,0,,,48,0
20629,note_on,,0,0,1,,,,,,,,,0,,,75,0
20632,note_on,,3,0,1,,,,,,,,,0,,,65,114
20632,note_on,,0,0,1,,,,,,,,,0,,,49,108
20661,note_on,,29,0,1,,,,,,,,,0,,,49,0
20661,note_on,,0,0,1,,,,,,,,,0,,,65,0
20665,note_on,,4,0,1,,,,,,,,,0,,,77,108
20668,note_on,,3,0,1,,,,,,,,,0,,,53,106
20694,note_on,,26,0,1,,,,,,,,,0,,,53,0
20695,note_on,,0,0,1,,,,,,,,,0,,,57,103
20695,note_on,,1,0,1,,,,,,,,,0,,,78,110
20697,note_on,,2,0,1,,,,,,,,,0,,,77,0
20720,note_on,,23,0,1,,,,,,,,,0,,,77,113
20722,note_on,,2,0,1,,,,,,,,,0,,,58,108
20722,note_on,,0,0,1,,,,,,,,,0,,,57,0
20730,note_on,,8,0,1,,,,,,,,,0,,,78,0
20749,note_on,,19,0,1,,,,,,,,,0,,,58,0
20752,note_on,,3,0,1,,,,,,,,,0,,,75,114
20752,note_on,,0,0,1,,,,,,,,,0,,,60,90
20761,note_on,,9,0,1,,,,,,,,,0,,,77,0
20780,note_on,,19,0,1,,,,,,,,,0,,,73,104
20781,note_on,,1,0,1,,,,,,,,,0,,,61,103
20781,note_on,,0,0,1,,,,,,,,,0,,,60,0
20792,note_on,,11,0,1,,,,,,,,,0,,,75,0
20807,note_on,,15,0,1,,,,,,,,,0,,,73,0
20809,note_on,,2,0,1,,,,,,,,,0,,,63,101
20810,note_on,,1,0,1,,,,,,,,,0,,,72,104
20815,note_on,,5,0,1,,,,,,,,,0,,,61,0
20835,note_on,,20,0,1,,,,,,,,,0,,,70,99
20835,note_on,,0,0,1,,,,,,,,,0,,,65,100
20837,note_on,,2,0,1,,,,,,,,,0,,,72,0
20841,note_on,,4,0,1,,,,,,,,,0,,,63,0
20857,note_on,,16,0,1,,,,,,,,,0,,,70,0
20865,note_on,,8,0,1,,,,,,,,,0,,,65,0
20867,note_on,,2,0,1,,,,,,,,,0,,,71,113
20867,note_on,,0,0,1,,,,,,,,,0,,,68,107
20898,note_on,,31,0,1,,,,,,,,,0,,,62,97
20898,note_on,,0,0,1,,,,,,,,,0,,,73,111
20904,note_on,,6,0,1,,,,,,,,,0,,,71,0
20905,note_on,,1,0,1,,,,,,,,,0,,,68,0
20925,note_on,,20,0,1,,,,,,,,,0,,,59,95
20928,note_on,,3,0,1,,,,,,,,,0,,,71,103
20932,note_on,,0,0,1,,,,,,,,,0,,,73,0
20932,note_on,,4,0,1,,,,,,,,,0,,,62,0
20947,note_on,,15,0,1,,,,,,,,,0,,,59,0
20952,note_on,,5,0,1,,,,,,,,,0,,,80,103
20953,note_on,,1,0,1,,,,,,,,,0,,,53,102
20954,note_on,,1,0,1,,,,,,,,,0,,,71,0
20983,note_on,,29,0,1,,,,,,,,,0,,,53,0
20985,note_on,,2,0,1,,,,,,,,,0,,,68,123
20986,note_on,,1,0,1,,,,,,,,,0,,,65,106
21012,note_on,,26,0,1,,,,,,,,,0,,,80,0
21015,note_on,,3,0,1,,,,,,,,,0,,,59,95
21016,note_on,,1,0,1,,,,,,,,,0,,,70,103
21017,note_on,,1,0,1,,,,,,,,,0,,,68,0
21025,note_on,,8,0,1,,,,,,,,,0,,,65,0
21040,note_on,,15,0,1,,,,,,,,,0,,,56,94
21040,note_on,,0,0,1,,,,,,,,,0,,,68,94
21041,note_on,,1,0,1,,,,,,,,,0,,,59,0
21044,note_on,,3,0,1,,,,,,,,,0,,,70,0
21067,note_on,,23,0,1,,,,,,,,,0,,,68,0
21070,note_on,,3,0,1,,,,,,,,,0,,,56,0
21072,note_on,,2,0,1,,,,,,,,,0,,,50,98
21072,note_on,,0,0,1,,,,,,,,,0,,,77,102
21102,note_on,,30,0,1,,,,,,,,,0,,,72,120
21102,note_on,,0,0,1,,,,,,,,,0,,,50,0
21103,note_on,,1,0,1,,,,,,,,,0,,,69,109
21130,note_on,,27,0,1,,,,,,,,,0,,,73,114
21131,note_on,,1,0,1,,,,,,,,,0,,,63,108
21132,note_on,,1,0,1,,,,,,,,,0,,,77,0
21135,note_on,,3,0,1,,,,,,,,,0,,,72,0
21141,note_on,,6,0,1,,,,,,,,,0,,,69,0
21160,note_on,,19,0,1,,,,,,,,,0,,,60,77
21162,note_on,,2,0,1,,,,,,,,,0,,,72,106
21163,note_on,,1,0,1,,,,,,,,,0,,,63,0
21166,note_on,,3,0,1,,,,,,,,,0,,,73,0
21188,note_on,,22,0,1,,,,,,,,,0,,,60,0
21190,note_on,,2,0,1,,,,,,,,,0,,,81,100
21190,note_on,,0,0,1,,,,,,,,,0,,,54,104
21192,note_on,,2,0,1,,,,,,,,,0,,,72,0
21218,note_on,,0,0,1,,,,,,,,,0,,,66,118
21218,note_on,,26,0,1,,,,,,,,,0,,,69,116
21220,note_on,,2,0,1,,,,,,,,,0,,,54,0
21245,note_on,,0,0,1,,,,,,,,,0,,,60,99
21245,note_on,,25,0,1,,,,,,,,,0,,,70,117
21246,note_on,,1,0,1,,,,,,,,,0,,,69,0
21250,note_on,,4,0,1,,,,,,,,,0,,,81,0
21260,note_on,,10,0,1,,,,,,,,,0,,,66,0
21273,note_on,,13,0,1,,,,,,,,,0,,,69,105
21275,note_on,,2,0,1,,,,,,,,,0,,,57,82
21278,note_on,,3,0,1,,,,,,,,,0,,,70,0
21280,note_on,,2,0,1,,,,,,,,,0,,,60,0
21300,note_on,,20,0,1,,,,,,,,,0,,,78,103
21302,note_on,,2,0,1,,,,,,,,,0,,,51,94
21302,note_on,,0,0,1,,,,,,,,,0,,,69,0
21303,note_on,,1,0,1,,,,,,,,,0,,,57,0
21332,note_on,,29,0,1,,,,,,,,,0,,,51,0
21336,note_on,,4,0,1,,,,,,,,,0,,,73,126
21337,note_on,,1,0,1,,,,,,,,,0,,,70,102
21360,note_on,,23,0,1,,,,,,,,,0,,,78,0
21366,note_on,,6,0,1,,,,,,,,,0,,,75,112
21367,note_on,,1,0,1,,,,,,,,,0,,,64,102
21371,note_on,,4,0,1,,,,,,,,,0,,,73,0
21377,note_on,,6,0,1,,,,,,,,,0,,,70,0
21395,note_on,,18,0,1,,,,,,,,,0,,,73,103
21395,note_on,,0,0,1,,,,,,,,,0,,,61,91
21398,note_on,,3,0,1,,,,,,,,,0,,,64,0
21402,note_on,,4,0,1,,,,,,,,,0,,,75,0
21422,note_on,,20,0,1,,,,,,,,,0,,,55,103
21422,note_on,,0,0,1,,,,,,,,,0,,,82,94
21422,note_on,,0,0,1,,,,,,,,,0,,,73,0
21425,note_on,,3,0,1,,,,,,,,,0,,,61,0
21451,note_on,,26,0,1,,,,,,,,,0,,,70,123
21452,note_on,,1,0,1,,,,,,,,,0,,,67,113
21452,note_on,,0,0,1,,,,,,,,,0,,,55,0
21481,note_on,,29,0,1,,,,,,,,,0,,,72,101
21482,note_on,,1,0,1,,,,,,,,,0,,,61,95
21482,note_on,,0,0,1,,,,,,,,,0,,,82,0
21486,note_on,,4,0,1,,,,,,,,,0,,,70,0
21510,note_on,,24,0,1,,,,,,,,,0,,,70,102
21510,note_on,,0,0,1,,,,,,,,,0,,,58,98
21515,note_on,,5,0,1,,,,,,,,,0,,,67,0
21518,note_on,,3,0,1,,,,,,,,,0,,,72,0
21522,note_on,,4,0,1,,,,,,,,,0,,,61,0
21540,note_on,,18,0,1,,,,,,,,,0,,,70,0
21540,note_on,,0,0,1,,,,,,,,,0,,,58,0
21542,note_on,,2,0,1,,,,,,,,,0,,,52,86
21542,note_on,,0,0,1,,,,,,,,,0,,,79,100
21572,note_on,,30,0,1,,,,,,,,,0,,,52,0
21581,note_on,,0,0,1,,,,,,,,,0,,,66,92
21581,note_on,,0,0,1,,,,,,,,,0,,,69,96
21581,note_on,,0,0,1,,,,,,,,,0,,,56,113
21581,note_on,,0,0,1,,,,,,,,,0,,,63,100
21581,note_on,,9,0,1,,,,,,,,,0,,,72,125
21597,control_change,,16,0,1,,,,,,,,,0,64,127,,
21602,note_on,,5,0,1,,,,,,,,,0,,,79,0
21617,note_on,,15,0,1,,,,,,,,,0,,,75,113
21637,note_on,,20,0,1,,,,,,,,,0,,,69,0
21641,note_on,,4,0,1,,,,,,,,,0,,,72,0
21645,note_on,,4,0,1,,,,,,,,,0,,,78,110
21658,note_on,,13,0,1,,,,,,,,,0,,,75,0
21670,note_on,,12,0,1,,,,,,,,,0,,,81,99
21675,note_on,,5,0,1,,,,,,,,,0,,,78,0
21700,note_on,,25,0,1,,,,,,,,,0,,,84,124
21700,note_on,,0,0,1,,,,,,,,,0,,,68,111
21700,note_on,,0,0,1,,,,,,,,,0,,,81,0
21713,control_change,,13,0,1,,,,,,,,,0,64,0,,
21731,control_change,,18,0,1,,,,,,,,,0,64,127,,
21733,note_on,,2,0,1,,,,,,,,,0,,,87,121
21763,note_on,,30,0,1,,,,,,,,,0,,,90,111
21768,note_on,,5,0,1,,,,,,,,,0,,,84,0
21782,note_on,,14,0,1,,,,,,,,,0,,,87,0
21788,note_on,,6,0,1,,,,,,,,,0,,,93,110
21798,note_on,,10,0,1,,,,,,,,,0,,,90,0
21818,note_on,,20,0,1,,,,,,,,,0,,,96,109
21819,note_on,,1,0,1,,,,,,,,,0,,,93,0
21825,control_change,,6,0,1,,,,,,,,,0,64,0,,
21841,control_change,,16,0,1,,,,,,,,,0,64,127,,
21848,note_on,,7,0,1,,,,,,,,,0,,,87,118
21878,note_on,,30,0,1,,,,,,,,,0,,,96,0
21881,note_on,,3,0,1,,,,,,,,,0,,,88,115
21884,note_on,,3,0,1,,,,,,,,,0,,,87,0
21886,control_change,,2,0,1,,,,,,,,,0,64,0,,
21898,control_change,,12,0,1,,,,,,,,,0,64,127,,
21908,note_on,,0,0,1,,,,,,,,,0,,,88,0
21908,note_on,,10,0,1,,,,,,,,,0,,,92,110
21925,control_change,,17,0,1,,,,,,,,,0,64,0,,
21938,note_on,,13,0,1,,,,,,,,,0,,,90,102
21938,control_change,,0,0,1,,,,,,,,,0,64,127,,
21941,note_on,,0,0,1,,,,,,,,,0,,,56,0
21941,note_on,,0,0,1,,,,,,,,,0,,,63,0
21941,note_on,,3,0,1,,,,,,,,,0,,,66,0
21944,note_on,,3,0,1,,,,,,,,,0,,,68,0
21945,note_on,,1,0,1,,,,,,,,,0,,,92,0
21960,control_change,,15,0,1,,,,,,,,,0,64,0,,
21967,note_on,,7,0,1,,,,,,,,,0,,,84,104
21968,note_on,,1,0,1,,,,,,,,,0,,,72,101
21975,note_on,,7,0,1,,,,,,,,,0,,,90,0
21998,note_on,,23,0,1,,,,,,,,,0,,,72,0
22001,note_on,,3,0,1,,,,,,,,,0,,,85,119
22005,note_on,,4,0,1,,,,,,,,,0,,,84,0
22030,note_on,,25,0,1,,,,,,,,,0,,,88,106
22030,note_on,,0,0,1,,,,,,,,,0,,,76,100
22032,note_on,,2,0,1,,,,,,,,,0,,,85,0
22063,note_on,,31,0,1,,,,,,,,,0,,,76,0
22065,note_on,,2,0,1,,,,,,,,,0,,,87,124
22066,note_on,,1,0,1,,,,,,,,,0,,,75,110
22068,note_on,,2,0,1,,,,,,,,,0,,,88,0
22095,note_on,,27,0,1,,,,,,,,,0,,,87,0
22096,note_on,,1,0,1,,,,,,,,,0,,,75,0
22097,note_on,,1,0,1,,,,,,,,,0,,,66,90
22098,note_on,,1,0,1,,,,,,,,,0,,,78,104
22127,note_on,,29,0,1,,,,,,,,,0,,,80,99
22127,note_on,,0,0,1,,,,,,,,,0,,,68,88
22132,note_on,,5,0,1,,,,,,,,,0,,,66,0
22134,note_on,,2,0,1,,,,,,,,,0,,,78,0
22154,note_on,,20,0,1,,,,,,,,,0,,,68,0
22157,note_on,,3,0,1,,,,,,,,,0,,,71,86
22157,note_on,,0,0,1,,,,,,,,,0,,,83,103
22157,note_on,,0,0,1,,,,,,,,,0,,,80,0
22188,note_on,,31,0,1,,,,,,,,,0,,,81,109
22188,note_on,,0,0,1,,,,,,,,,0,,,69,103
22194,note_on,,6,0,1,,,,,,,,,0,,,71,0
22196,note_on,,2,0,1,,,,,,,,,0,,,83,0
22210,note_on,,14,0,1,,,,,,,,,0,,,69,0
22218,note_on,,8,0,1,,,,,,,,,0,,,81,0
22220,note_on,,2,0,1,,,,,,,,,0,,,72,98
22221,note_on,,1,0,1,,,,,,,,,0,,,60,91
22250,note_on,,29,0,1,,,,,,,,,0,,,73,95
22250,note_on,,0,0,1,,,,,,,,,0,,,72,0
22251,note_on,,1,0,1,,,,,,,,,0,,,61,103
22251,note_on,,0,0,1,,,,,,,,,0,,,60,0
22277,note_on,,26,0,1,,,,,,,,,0,,,73,0
22280,note_on,,3,0,1,,,,,,,,,0,,,64,99
22280,note_on,,0,0,1,,,,,,,,,0,,,76,103
22280,note_on,,0,0,1,,,,,,,,,0,,,61,0
22309,note_on,,29,0,1,,,,,,,,,0,,,64,0
22310,note_on,,1,0,1,,,,,,,,,0,,,63,113
22311,note_on,,1,0,1,,,,,,,,,0,,,75,117
22316,note_on,,5,0,1,,,,,,,,,0,,,76,0
22341,note_on,,25,0,1,,,,,,,,,0,,,75,0
22341,note_on,,0,0,1,,,,,,,,,0,,,63,0
22345,note_on,,0,0,1,,,,,,,,,0,,,54,98
22345,note_on,,4,0,1,,,,,,,,,0,,,66,109
22375,note_on,,30,0,1,,,,,,,,,0,,,68,94
22375,note_on,,0,0,1,,,,,,,,,0,,,56,94
22376,note_on,,1,0,1,,,,,,,,,0,,,66,0
22378,note_on,,2,0,1,,,,,,,,,0,,,54,0
22398,note_on,,20,0,1,,,,,,,,,0,,,56,0
22402,note_on,,4,0,1,,,,,,,,,0,,,59,92
22403,note_on,,1,0,1,,,,,,,,,0,,,71,98
22403,note_on,,0,0,1,,,,,,,,,0,,,68,0
22432,note_on,,29,0,1,,,,,,,,,0,,,57,114
22432,note_on,,0,0,1,,,,,,,,,0,,,69,114
22437,note_on,,5,0,1,,,,,,,,,0,,,59,0
22438,note_on,,1,0,1,,,,,,,,,0,,,71,0
22460,note_on,,22,0,1,,,,,,,,,0,,,57,0
22462,note_on,,2,0,1,,,,,,,,,0,,,54,98
22463,note_on,,1,0,1,,,,,,,,,0,,,66,115
22467,note_on,,4,0,1,,,,,,,,,0,,,69,0
22492,note_on,,25,0,1,,,,,,,,,0,,,50,106
22492,note_on,,0,0,1,,,,,,,,,0,,,54,0
22493,note_on,,0,0,1,,,,,,,,,0,,,66,0
22493,note_on,,1,0,1,,,,,,,,,0,,,62,103
22519,note_on,,26,0,1,,,,,,,,,0,,,62,0
22522,note_on,,0,0,1,,,,,,,,,0,,,50,0
22522,note_on,,0,0,1,,,,,,,,,0,,,61,110
22522,note_on,,3,0,1,,,,,,,,,0,,,49,99
22558,set_tempo,,22558,1,0,,,,,,491803,,,,,,,
22559,note_on,,37,0,1,,,,,,,,,0,,,61,0
22559,note_on,,0,0,1,,,,,,,,,0,,,49,0
22560,note_on,,0,0,1,,,,,,,,,0,,,36,126
22560,note_on,,1,0,1,,,,,,,,,0,,,68,111
22560,note_on,,0,0,1,,,,,,,,,0,,,66,111
22560,note_on,,0,0,1,,,,,,,,,0,,,63,111
22560,note_on,,0,0,1,,,,,,,,,0,,,56,122
22560,note_on,,0,0,1,,,,,,,,,0,,,48,124
22590,control_change,,30,0,1,,,,,,,,,0,64,127,,
22620,note_on,,30,0,1,,,,,,,,,0,,,36,0
22620,note_on,,0,0,1,,,,,,,,,0,,,56,0
22620,note_on,,0,0,1,,,,,,,,,0,,,63,0
22620,note_on,,0,0,1,,,,,,,,,0,,,48,0
22627,note_on,,7,0,1,,,,,,,,,0,,,68,0
22627,note_on,,0,0,1,,,,,,,,,0,,,66,0
22635,control_change,,8,0,1,,,,,,,,,0,64,0,,
22637,note_on,,2,0,1,,,,,,,,,0,,,63,113
22659,note_on,,22,0,1,,,,,,,,,0,,,63,0
22663,note_on,,4,0,1,,,,,,,,,0,,,64,88
22680,set_tempo,,122,1,0,,,,,,535714,,,,,,,
22688,note_on,,25,0,1,,,,,,,,,0,,,64,0
22691,note_on,,3,0,1,,,,,,,,,0,,,65,107
22714,note_on,,23,0,1,,,,,,,,,0,,,65,0
22716,note_on,,2,0,1,,,,,,,,,0,,,66,98
22738,note_on,,22,0,1,,,,,,,,,0,,,66,0
22745,note_on,,7,0,1,,,,,,,,,0,,,65,102
22770,note_on,,25,0,1,,,,,,,,,0,,,65,0
22771,note_on,,1,0,1,,,,,,,,,0,,,66,100
22795,note_on,,24,0,1,,,,,,,,,0,,,67,103
22796,note_on,,1,0,1,,,,,,,,,0,,,66,0
22822,note_on,,26,0,1,,,,,,,,,0,,,68,90
22824,note_on,,2,0,1,,,,,,,,,0,,,67,0
22850,note_on,,26,0,1,,,,,,,,,0,,,66,89
22852,note_on,,2,0,1,,,,,,,,,0,,,68,0
22879,note_on,,27,0,1,,,,,,,,,0,,,67,86
22880,note_on,,1,0,1,,,,,,,,,0,,,66,0
22908,note_on,,28,0,1,,,,,,,,,0,,,68,102
22910,note_on,,2,0,1,,,,,,,,,0,,,67,0
22920,set_tempo,,240,1,0,,,,,,517241,,,,,,,
22938,note_on,,28,0,1,,,,,,,,,0,,,68,0
22940,note_on,,2,0,1,,,,,,,,,0,,,69,94
22965,note_on,,25,0,1,,,,,,,,,0,,,63,99
22970,note_on,,5,0,1,,,,,,,,,0,,,69,0
22989,note_on,,19,0,1,,,,,,,,,0,,,63,0
22991,note_on,,2,0,1,,,,,,,,,0,,,64,102
23001,note_on,,10,0,1,,,,,,,,,0,,,44,92
23012,note_on,,11,0,1,,,,,,,,,0,,,51,95
23015,note_on,,3,0,1,,,,,,,,,0,,,64,0
23016,note_on,,1,0,1,,,,,,,,,0,,,44,0
23020,control_change,,4,0,1,,,,,,,,,0,64,127,,
23021,note_on,,1,0,1,,,,,,,,,0,,,54,102
23022,note_on,,1,0,1,,,,,,,,,0,,,65,117
23025,note_on,,3,0,1,,,,,,,,,0,,,60,118
23027,note_on,,2,0,1,,,,,,,,,0,,,51,0
23029,note_on,,2,0,1,,,,,,,,,0,,,54,0
23032,note_on,,3,0,1,,,,,,,,,0,,,60,0
23040,set_tempo,,120,1,0,,,,,,500000,,,,,,,
23050,note_on,,18,0,1,,,,,,,,,0,,,66,109
23054,note_on,,4,0,1,,,,,,,,,0,,,65,0
23055,control_change,,1,0,1,,,,,,,,,0,64,0,,
23080,note_on,,25,0,1,,,,,,,,,0,,,66,0
23082,note_on,,2,0,1,,,,,,,,,0,,,64,103
23111,note_on,,29,0,1,,,,,,,,,0,,,65,100
23112,note_on,,1,0,1,,,,,,,,,0,,,64,0
23137,note_on,,25,0,1,,,,,,,,,0,,,65,0
23140,note_on,,3,0,1,,,,,,,,,0,,,66,104
23173,note_on,,33,0,1,,,,,,,,,0,,,66,0
23175,note_on,,2,0,1,,,,,,,,,0,,,67,94
23198,note_on,,23,0,1,,,,,,,,,0,,,67,0
23203,note_on,,5,0,1,,,,,,,,,0,,,65,95
23233,note_on,,30,0,1,,,,,,,,,0,,,66,98
23234,note_on,,1,0,1,,,,,,,,,0,,,65,0
23263,note_on,,29,0,1,,,,,,,,,0,,,67,102
23263,note_on,,0,0,1,,,,,,,,,0,,,66,0
23298,note_on,,35,0,1,,,,,,,,,0,,,68,84
23298,note_on,,0,0,1,,,,,,,,,0,,,67,0
23323,note_on,,25,0,1,,,,,,,,,0,,,68,0
23325,note_on,,2,0,1,,,,,,,,,0,,,66,95
23351,note_on,,26,0,1,,,,,,,,,0,,,66,0
23355,note_on,,4,0,1,,,,,,,,,0,,,67,91
23385,note_on,,30,0,1,,,,,,,,,0,,,68,106
23388,note_on,,3,0,1,,,,,,,,,0,,,67,0
23420,note_on,,32,0,1,,,,,,,,,0,,,69,97
23421,note_on,,1,0,1,,,,,,,,,0,,,68,0
23445,note_on,,24,0,1,,,,,,,,,0,,,69,0
23446,note_on,,1,0,1,,,,,,,,,0,,,63,104
23471,note_on,,25,0,1,,,,,,,,,0,,,64,112
23471,note_on,,0,0,1,,,,,,,,,0,,,63,0
23475,note_on,,4,0,1,,,,,,,,,0,,,44,103
23488,note_on,,13,0,1,,,,,,,,,0,,,51,99
23500,note_on,,12,0,1,,,,,,,,,0,,,54,93
23502,control_change,,2,0,1,,,,,,,,,0,64,127,,
23502,note_on,,0,0,1,,,,,,,,,0,,,64,0
23505,note_on,,3,0,1,,,,,,,,,0,,,44,0
23506,note_on,,1,0,1,,,,,,,,,0,,,60,120
23506,note_on,,0,0,1,,,,,,,,,0,,,65,127
23518,note_on,,12,0,1,,,,,,,,,0,,,51,0
23531,control_change,,13,0,1,,,,,,,,,0,64,0,,
23534,note_on,,3,0,1,,,,,,,,,0,,,65,0
23535,note_on,,1,0,1,,,,,,,,,0,,,54,0
23536,note_on,,1,0,1,,,,,,,,,0,,,66,118
23536,note_on,,0,0,1,,,,,,,,,0,,,60,0
23570,note_on,,34,0,1,,,,,,,,,0,,,64,106
23572,note_on,,2,0,1,,,,,,,,,0,,,66,0
23602,note_on,,30,0,1,,,,,,,,,0,,,65,109
23607,note_on,,5,0,1,,,,,,,,,0,,,64,0
23632,note_on,,25,0,1,,,,,,,,,0,,,66,122
23637,note_on,,5,0,1,,,,,,,,,0,,,65,0
23668,note_on,,31,0,1,,,,,,,,,0,,,66,0
23670,note_on,,2,0,1,,,,,,,,,0,,,67,103
23693,note_on,,23,0,1,,,,,,,,,0,,,67,0
23698,note_on,,5,0,1,,,,,,,,,0,,,65,106
23727,note_on,,29,0,1,,,,,,,,,0,,,66,114
23732,note_on,,5,0,1,,,,,,,,,0,,,65,0
23760,note_on,,28,0,1,,,,,,,,,0,,,67,114
23760,note_on,,0,0,1,,,,,,,,,0,,,66,0
23790,note_on,,30,0,1,,,,,,,,,0,,,68,107
23797,note_on,,7,0,1,,,,,,,,,0,,,67,0
23818,note_on,,21,0,1,,,,,,,,,0,,,66,116
23820,note_on,,2,0,1,,,,,,,,,0,,,68,0
23850,note_on,,30,0,1,,,,,,,,,0,,,67,103
23854,note_on,,4,0,1,,,,,,,,,0,,,66,0
23881,note_on,,27,0,1,,,,,,,,,0,,,68,120
23890,note_on,,9,0,1,,,,,,,,,0,,,67,0
23915,note_on,,25,0,1,,,,,,,,,0,,,69,106
23919,note_on,,4,0,1,,,,,,,,,0,,,68,0
23935,note_on,,16,0,1,,,,,,,,,0,,,69,0
23940,note_on,,5,0,1,,,,,,,,,0,,,67,106
23970,note_on,,30,0,1,,,,,,,,,0,,,68,113
23980,note_on,,10,0,1,,,,,,,,,0,,,67,0
24001,note_on,,21,0,1,,,,,,,,,0,,,69,124
24005,note_on,,4,0,1,,,,,,,,,0,,,68,0
24032,note_on,,27,0,1,,,,,,,,,0,,,70,108
24035,note_on,,3,0,1,,,,,,,,,0,,,69,0
24058,note_on,,23,0,1,,,,,,,,,0,,,68,113
24059,note_on,,1,0,1,,,,,,,,,0,,,70,0
24090,note_on,,31,0,1,,,,,,,,,0,,,69,118
24093,note_on,,3,0,1,,,,,,,,,0,,,68,0
24117,note_on,,24,0,1,,,,,,,,,0,,,70,126
24120,set_tempo,,1080,1,0,,,,,,483870,,,,,,,
24123,note_on,,6,0,1,,,,,,,,,0,,,69,0
24148,note_on,,25,0,1,,,,,,,,,0,,,71,108
24152,note_on,,4,0,1,,,,,,,,,0,,,70,0
24171,note_on,,19,0,1,,,,,,,,,0,,,71,0
24176,note_on,,5,0,1,,,,,,,,,0,,,69,109
24205,note_on,,29,0,1,,,,,,,,,0,,,70,111
24212,note_on,,7,0,1,,,,,,,,,0,,,69,0
24232,note_on,,20,0,1,,,,,,,,,0,,,71,119
24238,note_on,,6,0,1,,,,,,,,,0,,,70,0
24263,note_on,,25,0,1,,,,,,,,,0,,,72,100
24263,note_on,,0,0,1,,,,,,,,,0,,,71,0
24290,note_on,,27,0,1,,,,,,,,,0,,,70,106
24290,note_on,,0,0,1,,,,,,,,,0,,,72,0
24321,note_on,,31,0,1,,,,,,,,,0,,,71,108
24321,note_on,,0,0,1,,,,,,,,,0,,,70,0
24347,note_on,,26,0,1,,,,,,,,,0,,,72,123
24348,note_on,,1,0,1,,,,,,,,,0,,,44,113
24352,note_on,,4,0,1,,,,,,,,,0,,,71,0
24377,note_on,,25,0,1,,,,,,,,,0,,,42,108
24377,note_on,,0,0,1,,,,,,,,,0,,,73,121
24379,note_on,,2,0,1,,,,,,,,,0,,,72,0
24381,note_on,,2,0,1,,,,,,,,,0,,,44,0
24405,note_on,,24,0,1,,,,,,,,,0,,,42,0
24408,note_on,,0,0,1,,,,,,,,,0,,,71,114
24408,note_on,,3,0,1,,,,,,,,,0,,,40,106
24413,note_on,,5,0,1,,,,,,,,,0,,,73,0
24438,note_on,,25,0,1,,,,,,,,,0,,,72,119
24438,note_on,,0,0,1,,,,,,,,,0,,,39,113
24442,note_on,,4,0,1,,,,,,,,,0,,,71,0
24446,note_on,,4,0,1,,,,,,,,,0,,,40,0
24470,note_on,,24,0,1,,,,,,,,,0,,,37,113
24471,note_on,,1,0,1,,,,,,,,,0,,,73,125
24472,note_on,,1,0,1,,,,,,,,,0,,,39,0
24474,note_on,,2,0,1,,,,,,,,,0,,,72,0
24476,set_tempo,,356,1,0,,,,,,480000,,,,,,,
24500,note_on,,26,0,1,,,,,,,,,0,,,37,0
24502,note_on,,2,0,1,,,,,,,,,0,,,75,107
24507,note_on,,5,0,1,,,,,,,,,0,,,73,0
24527,note_on,,20,0,1,,,,,,,,,0,,,75,0
24530,note_on,,3,0,1,,,,,,,,,0,,,72,109
24560,note_on,,30,0,1,,,,,,,,,0,,,73,113
24568,note_on,,8,0,1,,,,,,,,,0,,,72,0
24590,note_on,,0,0,1,,,,,,,,,0,,,66,120
24590,note_on,,22,0,1,,,,,,,,,0,,,75,113
24590,note_on,,0,0,1,,,,,,,,,0,,,69,114
24596,note_on,,6,0,1,,,,,,,,,0,,,73,0
24620,note_on,,24,0,1,,,,,,,,,0,,,69,0
24621,note_on,,1,0,1,,,,,,,,,0,,,76,112
24622,note_on,,1,0,1,,,,,,,,,0,,,66,0
24625,note_on,,3,0,1,,,,,,,,,0,,,75,0
24649,note_on,,24,0,1,,,,,,,,,0,,,76,0
24651,note_on,,2,0,1,,,,,,,,,0,,,73,115
24680,note_on,,29,0,1,,,,,,,,,0,,,75,109
24687,note_on,,7,0,1,,,,,,,,,0,,,73,0
24710,note_on,,23,0,1,,,,,,,,,0,,,76,120
24710,note_on,,0,0,1,,,,,,,,,0,,,64,103
24711,note_on,,1,0,1,,,,,,,,,0,,,68,98
24713,note_on,,2,0,1,,,,,,,,,0,,,75,0
24740,note_on,,27,0,1,,,,,,,,,0,,,64,0
24741,note_on,,1,0,1,,,,,,,,,0,,,78,97
24741,note_on,,0,0,1,,,,,,,,,0,,,68,0
24742,note_on,,1,0,1,,,,,,,,,0,,,76,0
24766,note_on,,24,0,1,,,,,,,,,0,,,78,0
24768,note_on,,2,0,1,,,,,,,,,0,,,75,113
24800,note_on,,32,0,1,,,,,,,,,0,,,76,113
24804,note_on,,4,0,1,,,,,,,,,0,,,75,0
24830,note_on,,26,0,1,,,,,,,,,0,,,66,102
24830,note_on,,0,0,1,,,,,,,,,0,,,63,99
24830,note_on,,0,0,1,,,,,,,,,0,,,78,111
24835,note_on,,5,0,1,,,,,,,,,0,,,76,0
24855,note_on,,20,0,1,,,,,,,,,0,,,66,0
24856,note_on,,1,0,1,,,,,,,,,0,,,63,0
24860,note_on,,4,0,1,,,,,,,,,0,,,80,102
24868,note_on,,8,0,1,,,,,,,,,0,,,78,0
24883,note_on,,15,0,1,,,,,,,,,0,,,80,0
24886,note_on,,3,0,1,,,,,,,,,0,,,76,101
24913,note_on,,27,0,1,,,,,,,,,0,,,78,103
24919,note_on,,6,0,1,,,,,,,,,0,,,76,0
24947,note_on,,0,0,1,,,,,,,,,0,,,64,108
24947,note_on,,28,0,1,,,,,,,,,0,,,61,104
24948,note_on,,1,0,1,,,,,,,,,0,,,80,116
24955,note_on,,7,0,1,,,,,,,,,0,,,78,0
24975,note_on,,20,0,1,,,,,,,,,0,,,81,112
24979,note_on,,4,0,1,,,,,,,,,0,,,80,0
24989,note_on,,10,0,1,,,,,,,,,0,,,61,0
24989,note_on,,0,0,1,,,,,,,,,0,,,64,0
25001,note_on,,12,0,1,,,,,,,,,0,,,81,0
25006,note_on,,5,0,1,,,,,,,,,0,,,80,116
25037,note_on,,31,0,1,,,,,,,,,0,,,85,113
25039,note_on,,2,0,1,,,,,,,,,0,,,80,0
25065,note_on,,0,0,1,,,,,,,,,0,,,78,125
25065,note_on,,26,0,1,,,,,,,,,0,,,66,110
25065,note_on,,0,0,1,,,,,,,,,0,,,57,108
25066,note_on,,1,0,1,,,,,,,,,0,,,61,102
25077,note_on,,11,0,1,,,,,,,,,0,,,85,0
25090,note_on,,13,0,1,,,,,,,,,0,,,61,0
25095,note_on,,5,0,1,,,,,,,,,0,,,66,0
25095,note_on,,0,0,1,,,,,,,,,0,,,57,0
25097,note_on,,2,0,1,,,,,,,,,0,,,80,100
25101,note_on,,4,0,1,,,,,,,,,0,,,78,0
25119,note_on,,18,0,1,,,,,,,,,0,,,80,0
25123,note_on,,4,0,1,,,,,,,,,0,,,78,106
25152,note_on,,29,0,1,,,,,,,,,0,,,78,0
25153,note_on,,1,0,1,,,,,,,,,0,,,85,104
25183,note_on,,0,0,1,,,,,,,,,0,,,56,99
25183,note_on,,0,0,1,,,,,,,,,0,,,76,115
25183,note_on,,30,0,1,,,,,,,,,0,,,64,100
25183,note_on,,0,0,1,,,,,,,,,0,,,61,100
25191,note_on,,8,0,1,,,,,,,,,0,,,85,0
25208,note_on,,17,0,1,,,,,,,,,0,,,61,0
25212,note_on,,4,0,1,,,,,,,,,0,,,78,98
25213,note_on,,1,0,1,,,,,,,,,0,,,64,0
25213,note_on,,0,0,1,,,,,,,,,0,,,56,0
25215,note_on,,2,0,1,,,,,,,,,0,,,76,0
25240,note_on,,25,0,1,,,,,,,,,0,,,78,0
25241,note_on,,1,0,1,,,,,,,,,0,,,76,101
25269,note_on,,28,0,1,,,,,,,,,0,,,76,0
25270,note_on,,1,0,1,,,,,,,,,0,,,85,104
25301,note_on,,31,0,1,,,,,,,,,0,,,75,114
25301,note_on,,0,0,1,,,,,,,,,0,,,63,103
25302,note_on,,0,0,1,,,,,,,,,0,,,54,99
25302,note_on,,1,0,1,,,,,,,,,0,,,61,101
25313,note_on,,11,0,1,,,,,,,,,0,,,85,0
25328,note_on,,15,0,1,,,,,,,,,0,,,76,103
25328,note_on,,0,0,1,,,,,,,,,0,,,75,0
25331,note_on,,3,0,1,,,,,,,,,0,,,63,0
25332,note_on,,0,0,1,,,,,,,,,0,,,54,0
25332,note_on,,1,0,1,,,,,,,,,0,,,61,0
25356,note_on,,24,0,1,,,,,,,,,0,,,76,0
25358,note_on,,2,0,1,,,,,,,,,0,,,75,117
25388,note_on,,30,0,1,,,,,,,,,0,,,85,108
25389,note_on,,1,0,1,,,,,,,,,0,,,75,0
25417,control_change,,28,0,1,,,,,,,,,0,64,127,,
25420,note_on,,3,0,1,,,,,,,,,0,,,85,0
25426,note_on,,0,0,1,,,,,,,,,0,,,56,103
25426,note_on,,0,0,1,,,,,,,,,0,,,64,120
25426,note_on,,6,0,1,,,,,,,,,0,,,73,119
25426,note_on,,0,0,1,,,,,,,,,0,,,49,95
25448,control_change,,22,0,1,,,,,,,,,0,64,0,,
25458,note_on,,10,0,1,,,,,,,,,0,,,80,102
25469,note_on,,11,0,1,,,,,,,,,0,,,64,0
25478,note_on,,9,0,1,,,,,,,,,0,,,56,0
25486,note_on,,8,0,1,,,,,,,,,0,,,73,0
25486,note_on,,0,0,1,,,,,,,,,0,,,49,0
25487,note_on,,1,0,1,,,,,,,,,0,,,88,109
25514,note_on,,27,0,1,,,,,,,,,0,,,80,0
25515,note_on,,1,0,1,,,,,,,,,0,,,81,102
25517,note_on,,2,0,1,,,,,,,,,0,,,88,0
25540,note_on,,23,0,1,,,,,,,,,0,,,81,0
25543,note_on,,0,0,1,,,,,,,,,0,,,44,102
25543,note_on,,3,0,1,,,,,,,,,0,,,72,109
25543,note_on,,0,0,1,,,,,,,,,0,,,54,98
25543,note_on,,0,0,1,,,,,,,,,0,,,60,120
25545,control_change,,2,0,1,,,,,,,,,0,64,127,,
25563,control_change,,18,0,1,,,,,,,,,0,64,0,,
25572,note_on,,9,0,1,,,,,,,,,0,,,78,102
25573,note_on,,1,0,1,,,,,,,,,0,,,44,0
25573,note_on,,0,0,1,,,,,,,,,0,,,54,0
25573,note_on,,0,0,1,,,,,,,,,0,,,60,0
25576,note_on,,3,0,1,,,,,,,,,0,,,72,0
25601,note_on,,25,0,1,,,,,,,,,0,,,87,104
25627,note_on,,26,0,1,,,,,,,,,0,,,78,0
25628,note_on,,1,0,1,,,,,,,,,0,,,80,91
25631,note_on,,3,0,1,,,,,,,,,0,,,87,0
25657,note_on,,0,0,1,,,,,,,,,0,,,61,118
25657,note_on,,0,0,1,,,,,,,,,0,,,68,116
25657,note_on,,26,0,1,,,,,,,,,0,,,52,111
25657,note_on,,0,0,1,,,,,,,,,0,,,49,112
25660,control_change,,3,0,1,,,,,,,,,0,64,127,,
25661,note_on,,1,0,1,,,,,,,,,0,,,80,0
25687,note_on,,0,0,1,,,,,,,,,0,,,49,0
25687,note_on,,0,0,1,,,,,,,,,0,,,68,0
25687,note_on,,26,0,1,,,,,,,,,0,,,76,104
25687,note_on,,0,0,1,,,,,,,,,0,,,61,0
25687,note_on,,0,0,1,,,,,,,,,0,,,52,0
25691,control_change,,4,0,1,,,,,,,,,0,64,0,,
25716,note_on,,25,0,1,,,,,,,,,0,,,85,107
25732,note_on,,16,0,1,,,,,,,,,0,,,76,0
25746,note_on,,14,0,1,,,,,,,,,0,,,85,0
25748,note_on,,2,0,1,,,,,,,,,0,,,78,95
25777,note_on,,29,0,1,,,,,,,,,0,,,68,107
25777,note_on,,0,0,1,,,,,,,,,0,,,44,124
25777,note_on,,0,0,1,,,,,,,,,0,,,56,114
25781,control_change,,4,0,1,,,,,,,,,0,64,127,,
25783,note_on,,2,0,1,,,,,,,,,0,,,78,0
25807,note_on,,24,0,1,,,,,,,,,0,,,56,0
25807,note_on,,0,0,1,,,,,,,,,0,,,44,0
25811,note_on,,4,0,1,,,,,,,,,0,,,75,97
25815,note_on,,0,0,1,,,,,,,,,0,,,68,0
25815,control_change,,4,0,1,,,,,,,,,0,64,0,,
25841,note_on,,26,0,1,,,,,,,,,0,,,75,0
25842,note_on,,1,0,1,,,,,,,,,0,,,84,103
25871,note_on,,29,0,1,,,,,,,,,0,,,76,101
25872,note_on,,1,0,1,,,,,,,,,0,,,84,0
25900,note_on,,0,0,1,,,,,,,,,0,,,37,121
25900,note_on,,0,0,1,,,,,,,,,0,,,49,116
25900,note_on,,28,0,1,,,,,,,,,0,,,85,121
25901,note_on,,0,0,1,,,,,,,,,0,,,76,0
25901,note_on,,1,0,1,,,,,,,,,0,,,73,120
25903,control_change,,2,0,1,,,,,,,,,0,64,127,,
25960,note_on,,57,0,1,,,,,,,,,0,,,37,0
25960,note_on,,0,0,1,,,,,,,,,0,,,49,0
25960,note_on,,0,0,1,,,,,,,,,0,,,85,0
25962,control_change,,2,0,1,,,,,,,,,0,64,0,,
25965,note_on,,3,0,1,,,,,,,,,0,,,69,122
25965,note_on,,0,0,1,,,,,,,,,0,,,57,120
25965,note_on,,0,0,1,,,,,,,,,0,,,45,119
25995,note_on,,0,0,1,,,,,,,,,0,,,57,0
25995,note_on,,30,0,1,,,,,,,,,0,,,45,0
25995,note_on,,0,0,1,,,,,,,,,0,,,69,0
25997,note_on,,2,0,1,,,,,,,,,0,,,81,99
26021,note_on,,24,0,1,,,,,,,,,0,,,73,0
26025,note_on,,4,0,1,,,,,,,,,0,,,68,127
26027,note_on,,0,0,1,,,,,,,,,0,,,81,0
26027,note_on,,2,0,1,,,,,,,,,0,,,56,121
26028,note_on,,1,0,1,,,,,,,,,0,,,44,127
26056,note_on,,28,0,1,,,,,,,,,0,,,80,116
26057,note_on,,1,0,1,,,,,,,,,0,,,44,0
26062,note_on,,5,0,1,,,,,,,,,0,,,56,0
26072,note_on,,10,0,1,,,,,,,,,0,,,68,0
26086,note_on,,14,0,1,,,,,,,,,0,,,80,0
26087,note_on,,1,0,1,,,,,,,,,0,,,67,118
26088,note_on,,1,0,1,,,,,,,,,0,,,43,110
26088,note_on,,0,0,1,,,,,,,,,0,,,55,109
26118,note_on,,0,0,1,,,,,,,,,0,,,55,0
26118,note_on,,30,0,1,,,,,,,,,0,,,79,96
26118,note_on,,0,0,1,,,,,,,,,0,,,43,0
26120,note_on,,2,0,1,,,,,,,,,0,,,67,0
26148,note_on,,28,0,1,,,,,,,,,0,,,79,0
26152,note_on,,4,0,1,,,,,,,,,0,,,68,119
26152,note_on,,0,0,1,,,,,,,,,0,,,56,119
26152,note_on,,0,0,1,,,,,,,,,0,,,44,124
26165,control_change,,13,0,1,,,,,,,,,0,64,127,,
26181,note_on,,16,0,1,,,,,,,,,0,,,80,117
26182,note_on,,1,0,1,,,,,,,,,0,,,44,0
26182,note_on,,0,0,1,,,,,,,,,0,,,56,0
26189,note_on,,7,0,1,,,,,,,,,0,,,68,0
26211,note_on,,22,0,1,,,,,,,,,0,,,80,0
26213,note_on,,2,0,1,,,,,,,,,0,,,49,119
26213,note_on,,0,0,1,,,,,,,,,0,,,37,112
26215,note_on,,2,0,1,,,,,,,,,0,,,61,121
26220,control_change,,5,0,1,,,,,,,,,0,64,0,,
26243,note_on,,23,0,1,,,,,,,,,0,,,73,104
26243,note_on,,0,0,1,,,,,,,,,0,,,49,0
26243,note_on,,0,0,1,,,,,,,,,0,,,37,0
26244,note_on,,1,0,1,,,,,,,,,0,,,61,0
26273,note_on,,29,0,1,,,,,,,,,0,,,73,0
26277,note_on,,4,0,1,,,,,,,,,0,,,75,119
26278,note_on,,1,0,1,,,,,,,,,0,,,61,113
26278,note_on,,0,0,1,,,,,,,,,0,,,51,119
26278,note_on,,0,0,1,,,,,,,,,0,,,63,116
26280,note_on,,2,0,1,,,,,,,,,0,,,67,106
26280,note_on,,0,0,1,,,,,,,,,0,,,70,101
26285,control_change,,5,0,1,,,,,,,,,0,64,127,,
26308,note_on,,23,0,1,,,,,,,,,0,,,49,101
26312,control_change,,4,0,1,,,,,,,,,0,64,0,,
26312,note_on,,0,0,1,,,,,,,,,0,,,51,0
26333,note_on,,21,0,1,,,,,,,,,0,,,49,0
26335,note_on,,2,0,1,,,,,,,,,0,,,67,0
26337,note_on,,2,0,1,,,,,,,,,0,,,47,106
26337,note_on,,0,0,1,,,,,,,,,0,,,75,0
26337,note_on,,0,0,1,,,,,,,,,0,,,70,0
26339,note_on,,2,0,1,,,,,,,,,0,,,63,0
26346,note_on,,7,0,1,,,,,,,,,0,,,61,0
26367,note_on,,21,0,1,,,,,,,,,0,,,46,109
26367,note_on,,0,0,1,,,,,,,,,0,,,47,0
26397,note_on,,0,0,1,,,,,,,,,0,,,71,106
26397,note_on,,0,0,1,,,,,,,,,0,,,68,108
26397,note_on,,30,0,1,,,,,,,,,0,,,44,101
26397,note_on,,0,0,1,,,,,,,,,0,,,59,110
26398,note_on,,1,0,1,,,,,,,,,0,,,63,109
26398,note_on,,0,0,1,,,,,,,,,0,,,46,0
26414,note_on,,16,0,1,,,,,,,,,0,,,59,0
26419,note_on,,5,0,1,,,,,,,,,0,,,71,0
26423,note_on,,4,0,1,,,,,,,,,0,,,68,0
26425,note_on,,2,0,1,,,,,,,,,0,,,44,0
26427,note_on,,2,0,1,,,,,,,,,0,,,46,106
26428,note_on,,1,0,1,,,,,,,,,0,,,63,0
26450,note_on,,22,0,1,,,,,,,,,0,,,46,0
26458,note_on,,8,0,1,,,,,,,,,0,,,43,101
26485,note_on,,27,0,1,,,,,,,,,0,,,44,106
26486,note_on,,1,0,1,,,,,,,,,0,,,43,0
26515,note_on,,29,0,1,,,,,,,,,0,,,61,110
26515,note_on,,0,0,1,,,,,,,,,0,,,44,0
26516,note_on,,1,0,1,,,,,,,,,0,,,63,104
26517,note_on,,1,0,1,,,,,,,,,0,,,67,108
26517,note_on,,0,0,1,,,,,,,,,0,,,46,104
26542,note_on,,25,0,1,,,,,,,,,0,,,46,0
26546,note_on,,4,0,1,,,,,,,,,0,,,47,98
26574,note_on,,28,0,1,,,,,,,,,0,,,47,0
26575,note_on,,1,0,1,,,,,,,,,0,,,44,102
26575,note_on,,0,0,1,,,,,,,,,0,,,61,0
26576,note_on,,1,0,1,,,,,,,,,0,,,63,0
26577,note_on,,1,0,1,,,,,,,,,0,,,67,0
26603,note_on,,26,0,1,,,,,,,,,0,,,46,91
26605,note_on,,2,0,1,,,,,,,,,0,,,44,0
26628,note_on,,23,0,1,,,,,,,,,0,,,46,0
26632,note_on,,0,0,1,,,,,,,,,0,,,68,103
26632,note_on,,4,0,1,,,,,,,,,0,,,47,98
26633,note_on,,0,0,1,,,,,,,,,0,,,63,106
26633,note_on,,1,0,1,,,,,,,,,0,,,59,105
26657,note_on,,24,0,1,,,,,,,,,0,,,47,0
26662,note_on,,5,0,1,,,,,,,,,0,,,49,94
26690,note_on,,28,0,1,,,,,,,,,0,,,46,103
26692,note_on,,2,0,1,,,,,,,,,0,,,49,0
26692,note_on,,0,0,1,,,,,,,,,0,,,68,0
26693,note_on,,1,0,1,,,,,,,,,0,,,63,0
26693,note_on,,0,0,1,,,,,,,,,0,,,59,0
26713,note_on,,20,0,1,,,,,,,,,0,,,46,0
26720,note_on,,7,0,1,,,,,,,,,0,,,47,90
26746,note_on,,26,0,1,,,,,,,,,0,,,47,0
26747,note_on,,1,0,1,,,,,,,,,0,,,68,107
26748,note_on,,0,0,1,,,,,,,,,0,,,64,108
26748,note_on,,1,0,1,,,,,,,,,0,,,61,107
26750,note_on,,2,0,1,,,,,,,,,0,,,49,98
26777,note_on,,27,0,1,,,,,,,,,0,,,51,98
26778,note_on,,1,0,1,,,,,,,,,0,,,49,0
26807,note_on,,29,0,1,,,,,,,,,0,,,68,0
26808,note_on,,1,0,1,,,,,,,,,0,,,61,0
26808,note_on,,0,0,1,,,,,,,,,0,,,64,0
26810,note_on,,0,0,1,,,,,,,,,0,,,51,0
26810,note_on,,2,0,1,,,,,,,,,0,,,47,98
26833,note_on,,23,0,1,,,,,,,,,0,,,47,0
26835,note_on,,2,0,1,,,,,,,,,0,,,49,99
26865,note_on,,30,0,1,,,,,,,,,0,,,51,109
26866,note_on,,1,0,1,,,,,,,,,0,,,68,113
26867,note_on,,1,0,1,,,,,,,,,0,,,59,111
26867,note_on,,0,0,1,,,,,,,,,0,,,63,111
26872,note_on,,5,0,1,,,,,,,,,0,,,49,0
26895,note_on,,0,0,1,,,,,,,,,0,,,51,0
26895,note_on,,23,0,1,,,,,,,,,0,,,52,104
26917,note_on,,22,0,1,,,,,,,,,0,,,52,0
26925,note_on,,8,0,1,,,,,,,,,0,,,51,102
26927,note_on,,2,0,1,,,,,,,,,0,,,59,0
26939,note_on,,12,0,1,,,,,,,,,0,,,63,0
26939,note_on,,0,0,1,,,,,,,,,0,,,68,0
26950,note_on,,11,0,1,,,,,,,,,0,,,51,0
26953,note_on,,3,0,1,,,,,,,,,0,,,56,94
26979,note_on,,26,0,1,,,,,,,,,0,,,56,0
26981,note_on,,2,0,1,,,,,,,,,0,,,68,110
26981,note_on,,0,0,1,,,,,,,,,0,,,64,111
26981,note_on,,0,0,1,,,,,,,,,0,,,61,110
26981,note_on,,0,0,1,,,,,,,,,0,,,49,109
27007,note_on,,26,0,1,,,,,,,,,0,,,49,0
27011,note_on,,4,0,1,,,,,,,,,0,,,51,93
27037,note_on,,26,0,1,,,,,,,,,0,,,51,0
27041,note_on,,0,0,1,,,,,,,,,0,,,68,0
27041,note_on,,4,0,1,,,,,,,,,0,,,61,0
27041,note_on,,0,0,1,,,,,,,,,0,,,64,0
27043,note_on,,2,0,1,,,,,,,,,0,,,49,89
27070,note_on,,27,0,1,,,,,,,,,0,,,49,0
27071,note_on,,1,0,1,,,,,,,,,0,,,56,95
27091,note_on,,20,0,1,,,,,,,,,0,,,56,0
27100,note_on,,9,0,1,,,,,,,,,0,,,63,117
27100,note_on,,0,0,1,,,,,,,,,0,,,68,112
27101,note_on,,1,0,1,,,,,,,,,0,,,47,113
27130,note_on,,29,0,1,,,,,,,,,0,,,49,100
27130,note_on,,0,0,1,,,,,,,,,0,,,47,0
27160,note_on,,30,0,1,,,,,,,,,0,,,63,0
27160,note_on,,0,0,1,,,,,,,,,0,,,49,0
27160,note_on,,0,0,1,,,,,,,,,0,,,68,0
27162,note_on,,2,0,1,,,,,,,,,0,,,47,89
27184,note_on,,22,0,1,,,,,,,,,0,,,47,0
27192,note_on,,8,0,1,,,,,,,,,0,,,56,90
27213,note_on,,21,0,1,,,,,,,,,0,,,56,0
27220,note_on,,0,0,1,,,,,,,,,0,,,61,103
27220,note_on,,7,0,1,,,,,,,,,0,,,63,102
27220,note_on,,0,0,1,,,,,,,,,0,,,70,108
27221,note_on,,1,0,1,,,,,,,,,0,,,46,104
27246,note_on,,25,0,1,,,,,,,,,0,,,47,98
27246,note_on,,0,0,1,,,,,,,,,0,,,46,0
27276,note_on,,30,0,1,,,,,,,,,0,,,46,92
27280,note_on,,0,0,1,,,,,,,,,0,,,63,0
27280,note_on,,0,0,1,,,,,,,,,0,,,61,0
27280,note_on,,4,0,1,,,,,,,,,0,,,70,0
27282,note_on,,2,0,1,,,,,,,,,0,,,47,0
27300,note_on,,18,0,1,,,,,,,,,0,,,46,0
27303,note_on,,3,0,1,,,,,,,,,0,,,55,97
27332,note_on,,29,0,1,,,,,,,,,0,,,55,0
27335,note_on,,0,0,1,,,,,,,,,0,,,44,117
27335,note_on,,0,0,1,,,,,,,,,0,,,59,104
27335,note_on,,3,0,1,,,,,,,,,0,,,63,103
27335,note_on,,0,0,1,,,,,,,,,0,,,68,100
27337,note_on,,2,0,1,,,,,,,,,0,,,71,107
27368,note_on,,31,0,1,,,,,,,,,0,,,52,106
27370,note_on,,2,0,1,,,,,,,,,0,,,44,0
27375,note_on,,5,0,1,,,,,,,,,0,,,59,0
27390,note_on,,15,0,1,,,,,,,,,0,,,68,0
27393,note_on,,3,0,1,,,,,,,,,0,,,52,0
27395,note_on,,2,0,1,,,,,,,,,0,,,59,96
27395,note_on,,0,0,1,,,,,,,,,0,,,63,0
27397,note_on,,2,0,1,,,,,,,,,0,,,71,0
27425,note_on,,28,0,1,,,,,,,,,0,,,51,101
27428,note_on,,3,0,1,,,,,,,,,0,,,59,0
27448,note_on,,20,0,1,,,,,,,,,0,,,51,0
27453,note_on,,0,0,1,,,,,,,,,0,,,82,119
27453,note_on,,0,0,1,,,,,,,,,0,,,75,122
27453,note_on,,5,0,1,,,,,,,,,0,,,87,124
27455,note_on,,2,0,1,,,,,,,,,0,,,43,111
27482,note_on,,27,0,1,,,,,,,,,0,,,43,0
27485,note_on,,3,0,1,,,,,,,,,0,,,52,103
27515,note_on,,30,0,1,,,,,,,,,0,,,58,88
27515,note_on,,0,0,1,,,,,,,,,0,,,52,0
27542,note_on,,27,0,1,,,,,,,,,0,,,51,108
27543,note_on,,1,0,1,,,,,,,,,0,,,87,0
27543,note_on,,0,0,1,,,,,,,,,0,,,75,0
27543,note_on,,0,0,1,,,,,,,,,0,,,82,0
27552,note_on,,9,0,1,,,,,,,,,0,,,58,0
27567,note_on,,15,0,1,,,,,,,,,0,,,51,0
27570,note_on,,3,0,1,,,,,,,,,0,,,83,114
27570,note_on,,0,0,1,,,,,,,,,0,,,75,103
27572,note_on,,0,0,1,,,,,,,,,0,,,80,89
27572,note_on,,2,0,1,,,,,,,,,0,,,44,123
27602,note_on,,30,0,1,,,,,,,,,0,,,52,108
27602,note_on,,0,0,1,,,,,,,,,0,,,44,0
27627,note_on,,25,0,1,,,,,,,,,0,,,52,0
27630,note_on,,3,0,1,,,,,,,,,0,,,59,96
27660,note_on,,0,0,1,,,,,,,,,0,,,83,0
27660,note_on,,30,0,1,,,,,,,,,0,,,51,103
27660,note_on,,0,0,1,,,,,,,,,0,,,75,0
27661,note_on,,1,0,1,,,,,,,,,0,,,59,0
27662,note_on,,1,0,1,,,,,,,,,0,,,80,0
27685,note_on,,23,0,1,,,,,,,,,0,,,51,0
27690,note_on,,5,0,1,,,,,,,,,0,,,75,122
27690,note_on,,0,0,1,,,,,,,,,0,,,63,126
27691,note_on,,1,0,1,,,,,,,,,0,,,70,118
27692,note_on,,1,0,1,,,,,,,,,0,,,43,109
27712,note_on,,20,0,1,,,,,,,,,0,,,43,0
27718,note_on,,6,0,1,,,,,,,,,0,,,52,104
27747,note_on,,29,0,1,,,,,,,,,0,,,52,0
27750,note_on,,3,0,1,,,,,,,,,0,,,58,77
27778,note_on,,28,0,1,,,,,,,,,0,,,51,82
27780,note_on,,2,0,1,,,,,,,,,0,,,58,0
27795,note_on,,0,0,1,,,,,,,,,0,,,75,0
27795,note_on,,15,0,1,,,,,,,,,0,,,63,0
27803,note_on,,8,0,1,,,,,,,,,0,,,70,0
27808,note_on,,5,0,1,,,,,,,,,0,,,51,0
27813,note_on,,5,0,1,,,,,,,,,0,,,71,106
27815,note_on,,2,0,1,,,,,,,,,0,,,63,101
27815,note_on,,0,0,1,,,,,,,,,0,,,56,103
27815,note_on,,0,0,1,,,,,,,,,0,,,44,109
27869,note_on,,54,0,1,,,,,,,,,0,,,71,0
27870,note_on,,1,0,1,,,,,,,,,0,,,63,0
27874,note_on,,4,0,1,,,,,,,,,0,,,44,0
27874,note_on,,0,0,1,,,,,,,,,0,,,56,0
27877,note_on,,3,0,1,,,,,,,,,0,,,64,94
27880,note_on,,3,0,1,,,,,,,,,0,,,61,88
27910,note_on,,30,0,1,,,,,,,,,0,,,67,95
27915,note_on,,5,0,1,,,,,,,,,0,,,64,0
27933,note_on,,18,0,1,,,,,,,,,0,,,61,0
27940,note_on,,7,0,1,,,,,,,,,0,,,63,116
27940,note_on,,0,0,1,,,,,,,,,0,,,59,99
27946,note_on,,6,0,1,,,,,,,,,0,,,67,0
27970,note_on,,24,0,1,,,,,,,,,0,,,68,91
27970,note_on,,0,0,1,,,,,,,,,0,,,59,0
27975,note_on,,5,0,1,,,,,,,,,0,,,63,0
27993,note_on,,18,0,1,,,,,,,,,0,,,68,0
28000,note_on,,7,0,1,,,,,,,,,0,,,64,98
28000,note_on,,0,0,1,,,,,,,,,0,,,67,101
28027,note_on,,27,0,1,,,,,,,,,0,,,70,91
28040,note_on,,13,0,1,,,,,,,,,0,,,67,0
28042,note_on,,2,0,1,,,,,,,,,0,,,64,0
28052,note_on,,10,0,1,,,,,,,,,0,,,63,93
28055,note_on,,3,0,1,,,,,,,,,0,,,66,99
28067,note_on,,12,0,1,,,,,,,,,0,,,70,0
28082,note_on,,15,0,1,,,,,,,,,0,,,63,0
28086,note_on,,4,0,1,,,,,,,,,0,,,71,90
28090,note_on,,4,0,1,,,,,,,,,0,,,66,0
28108,note_on,,18,0,1,,,,,,,,,0,,,71,0
28117,note_on,,9,0,1,,,,,,,,,0,,,69,104
28117,note_on,,0,0,1,,,,,,,,,0,,,66,90
28146,note_on,,29,0,1,,,,,,,,,0,,,72,94
28157,note_on,,11,0,1,,,,,,,,,0,,,69,0
28173,note_on,,16,0,1,,,,,,,,,0,,,64,97
28173,note_on,,0,0,1,,,,,,,,,0,,,68,99
28174,note_on,,1,0,1,,,,,,,,,0,,,66,0
28177,note_on,,3,0,1,,,,,,,,,0,,,72,0
28203,note_on,,26,0,1,,,,,,,,,0,,,73,92
28203,note_on,,0,0,1,,,,,,,,,0,,,64,0
28206,note_on,,3,0,1,,,,,,,,,0,,,68,0
28225,note_on,,19,0,1,,,,,,,,,0,,,73,0
28232,note_on,,0,0,1,,,,,,,,,0,,,72,102
28232,note_on,,7,0,1,,,,,,,,,0,,,66,85
28235,note_on,,3,0,1,,,,,,,,,0,,,56,75
28235,note_on,,0,0,1,,,,,,,,,0,,,63,74
28262,note_on,,27,0,1,,,,,,,,,0,,,75,99
28262,note_on,,0,0,1,,,,,,,,,0,,,66,0
28267,note_on,,5,0,1,,,,,,,,,0,,,72,0
28286,note_on,,19,0,1,,,,,,,,,0,,,63,0
28292,note_on,,6,0,1,,,,,,,,,0,,,61,88
28292,note_on,,0,0,1,,,,,,,,,0,,,73,106
28293,note_on,,1,0,1,,,,,,,,,0,,,64,90
28295,note_on,,2,0,1,,,,,,,,,0,,,56,0
28300,note_on,,5,0,1,,,,,,,,,0,,,75,0
28325,note_on,,25,0,1,,,,,,,,,0,,,75,103
28342,note_on,,17,0,1,,,,,,,,,0,,,73,0
28349,note_on,,0,0,1,,,,,,,,,0,,,61,0
28349,note_on,,7,0,1,,,,,,,,,0,,,64,0
28355,note_on,,6,0,1,,,,,,,,,0,,,72,101
28360,note_on,,5,0,1,,,,,,,,,0,,,75,0
28388,note_on,,28,0,1,,,,,,,,,0,,,73,100
28399,note_on,,11,0,1,,,,,,,,,0,,,72,0
28420,note_on,,21,0,1,,,,,,,,,0,,,69,85
28420,note_on,,0,0,1,,,,,,,,,0,,,75,102
28420,note_on,,0,0,1,,,,,,,,,0,,,66,83
28425,note_on,,5,0,1,,,,,,,,,0,,,73,0
28450,note_on,,25,0,1,,,,,,,,,0,,,69,0
28451,note_on,,1,0,1,,,,,,,,,0,,,66,0
28452,note_on,,1,0,1,,,,,,,,,0,,,76,107
28456,note_on,,4,0,1,,,,,,,,,0,,,75,0
28475,note_on,,19,0,1,,,,,,,,,0,,,76,0
28477,note_on,,2,0,1,,,,,,,,,0,,,73,101
28508,note_on,,31,0,1,,,,,,,,,0,,,75,95
28517,note_on,,9,0,1,,,,,,,,,0,,,73,0
28540,note_on,,0,0,1,,,,,,,,,0,,,76,110
28540,note_on,,0,0,1,,,,,,,,,0,,,68,74
28540,note_on,,23,0,1,,,,,,,,,0,,,64,83
28541,note_on,,1,0,1,,,,,,,,,0,,,75,0
28570,note_on,,0,0,1,,,,,,,,,0,,,64,0
28570,note_on,,0,0,1,,,,,,,,,0,,,68,0
28570,note_on,,29,0,1,,,,,,,,,0,,,78,91
28573,note_on,,3,0,1,,,,,,,,,0,,,76,0
28595,note_on,,22,0,1,,,,,,,,,0,,,78,0
28597,note_on,,2,0,1,,,,,,,,,0,,,75,94
28628,note_on,,31,0,1,,,,,,,,,0,,,76,103
28634,note_on,,6,0,1,,,,,,,,,0,,,75,0
28661,note_on,,27,0,1,,,,,,,,,0,,,66,84
28662,note_on,,1,0,1,,,,,,,,,0,,,63,81
28662,note_on,,0,0,1,,,,,,,,,0,,,78,101
28665,note_on,,3,0,1,,,,,,,,,0,,,76,0
28687,note_on,,22,0,1,,,,,,,,,0,,,63,0
28691,note_on,,4,0,1,,,,,,,,,0,,,66,0
28692,note_on,,1,0,1,,,,,,,,,0,,,80,98
28695,note_on,,3,0,1,,,,,,,,,0,,,78,0
28715,note_on,,20,0,1,,,,,,,,,0,,,80,0
28718,note_on,,3,0,1,,,,,,,,,0,,,76,99
28748,note_on,,30,0,1,,,,,,,,,0,,,78,106
28756,note_on,,8,0,1,,,,,,,,,0,,,76,0
28780,note_on,,24,0,1,,,,,,,,,0,,,61,90
28780,note_on,,0,0,1,,,,,,,,,0,,,64,92
28781,note_on,,1,0,1,,,,,,,,,0,,,80,113
28788,note_on,,7,0,1,,,,,,,,,0,,,78,0
28796,note_on,,8,0,1,,,,,,,,,0,,,64,0
28799,note_on,,3,0,1,,,,,,,,,0,,,61,0
28810,note_on,,11,0,1,,,,,,,,,0,,,81,106
28814,note_on,,4,0,1,,,,,,,,,0,,,80,0
28836,note_on,,22,0,1,,,,,,,,,0,,,81,0
28840,note_on,,4,0,1,,,,,,,,,0,,,80,120
28871,note_on,,31,0,1,,,,,,,,,0,,,85,114
28873,note_on,,2,0,1,,,,,,,,,0,,,80,0
28900,note_on,,0,0,1,,,,,,,,,0,,,57,91
28900,note_on,,0,0,1,,,,,,,,,0,,,66,90
28900,note_on,,27,0,1,,,,,,,,,0,,,78,117
28900,note_on,,0,0,1,,,,,,,,,0,,,61,88
28923,note_on,,23,0,1,,,,,,,,,0,,,85,0
28928,note_on,,5,0,1,,,,,,,,,0,,,61,0
28930,note_on,,2,0,1,,,,,,,,,0,,,57,0
28930,note_on,,0,0,1,,,,,,,,,0,,,66,0
28931,note_on,,1,0,1,,,,,,,,,0,,,80,106
28935,note_on,,4,0,1,,,,,,,,,0,,,78,0
28960,note_on,,25,0,1,,,,,,,,,0,,,78,109
28967,note_on,,7,0,1,,,,,,,,,0,,,80,0
28990,note_on,,0,0,1,,,,,,,,,0,,,78,0
28990,note_on,,23,0,1,,,,,,,,,0,,,85,108
29022,note_on,,32,0,1,,,,,,,,,0,,,76,114
29022,note_on,,0,0,1,,,,,,,,,0,,,56,95
29022,note_on,,0,0,1,,,,,,,,,0,,,64,98
29023,note_on,,1,0,1,,,,,,,,,0,,,61,91
29042,note_on,,19,0,1,,,,,,,,,0,,,85,0
29050,note_on,,8,0,1,,,,,,,,,0,,,78,103
29057,note_on,,7,0,1,,,,,,,,,0,,,76,0
29081,note_on,,0,0,1,,,,,,,,,0,,,56,0
29081,note_on,,0,0,1,,,,,,,,,0,,,78,0
29081,note_on,,24,0,1,,,,,,,,,0,,,76,111
29081,note_on,,0,0,1,,,,,,,,,0,,,64,0
29082,note_on,,1,0,1,,,,,,,,,0,,,61,0
29110,note_on,,28,0,1,,,,,,,,,0,,,76,0
29112,note_on,,2,0,1,,,,,,,,,0,,,85,109
29142,note_on,,30,0,1,,,,,,,,,0,,,75,117
29143,note_on,,0,0,1,,,,,,,,,0,,,54,92
29143,note_on,,1,0,1,,,,,,,,,0,,,63,97
29143,note_on,,0,0,1,,,,,,,,,0,,,61,90
29169,note_on,,26,0,1,,,,,,,,,0,,,75,0
29172,note_on,,3,0,1,,,,,,,,,0,,,76,95
29183,note_on,,11,0,1,,,,,,,,,0,,,85,0
29198,note_on,,15,0,1,,,,,,,,,0,,,76,0
29201,note_on,,3,0,1,,,,,,,,,0,,,75,116
29202,note_on,,1,0,1,,,,,,,,,0,,,54,0
29202,note_on,,0,0,1,,,,,,,,,0,,,61,0
29202,note_on,,0,0,1,,,,,,,,,0,,,63,0
29233,note_on,,31,0,1,,,,,,,,,0,,,85,112
29237,note_on,,4,0,1,,,,,,,,,0,,,75,0
29260,control_change,,23,0,1,,,,,,,,,0,64,127,,
29265,note_on,,5,0,1,,,,,,,,,0,,,49,91
29265,note_on,,0,0,1,,,,,,,,,0,,,56,104
29267,note_on,,2,0,1,,,,,,,,,0,,,64,122
29268,note_on,,1,0,1,,,,,,,,,0,,,73,119
29293,control_change,,25,0,1,,,,,,,,,0,64,0,,
29298,note_on,,5,0,1,,,,,,,,,0,,,80,102
29310,note_on,,12,0,1,,,,,,,,,0,,,56,0
29310,note_on,,0,0,1,,,,,,,,,0,,,49,0
29317,note_on,,7,0,1,,,,,,,,,0,,,64,0
29317,note_on,,0,0,1,,,,,,,,,0,,,73,0
29320,note_on,,3,0,1,,,,,,,,,0,,,85,0
29327,note_on,,7,0,1,,,,,,,,,0,,,88,108
29328,note_on,,1,0,1,,,,,,,,,0,,,80,0
29356,note_on,,28,0,1,,,,,,,,,0,,,81,101
29357,note_on,,1,0,1,,,,,,,,,0,,,88,0
29386,control_change,,29,0,1,,,,,,,,,0,64,127,,
29386,note_on,,0,0,1,,,,,,,,,0,,,81,0
29387,note_on,,1,0,1,,,,,,,,,0,,,54,103
29387,note_on,,0,0,1,,,,,,,,,0,,,45,118
29388,note_on,,1,0,1,,,,,,,,,0,,,63,116
29390,note_on,,2,0,1,,,,,,,,,0,,,72,106
29420,note_on,,30,0,1,,,,,,,,,0,,,78,100
29433,control_change,,13,0,1,,,,,,,,,0,64,0,,
29447,note_on,,14,0,1,,,,,,,,,0,,,45,0
29447,note_on,,0,0,1,,,,,,,,,0,,,54,0
29448,note_on,,1,0,1,,,,,,,,,0,,,87,109
29448,note_on,,0,0,1,,,,,,,,,0,,,63,0
29450,note_on,,2,0,1,,,,,,,,,0,,,72,0
29475,note_on,,25,0,1,,,,,,,,,0,,,80,100
29480,note_on,,5,0,1,,,,,,,,,0,,,78,0
29505,note_on,,0,0,1,,,,,,,,,0,,,80,0
29505,note_on,,25,0,1,,,,,,,,,0,,,45,113
29505,note_on,,0,0,1,,,,,,,,,0,,,52,105
29507,control_change,,2,0,1,,,,,,,,,0,64,127,,
29508,note_on,,0,0,1,,,,,,,,,0,,,61,127
29508,note_on,,1,0,1,,,,,,,,,0,,,69,113
29508,note_on,,0,0,1,,,,,,,,,0,,,87,0
29540,note_on,,32,0,1,,,,,,,,,0,,,75,103
29550,control_change,,10,0,1,,,,,,,,,0,64,0,,
29568,note_on,,18,0,1,,,,,,,,,0,,,85,111
29568,note_on,,0,0,1,,,,,,,,,0,,,69,0
29568,note_on,,0,0,1,,,,,,,,,0,,,61,0
29572,note_on,,4,0,1,,,,,,,,,0,,,52,0
29580,note_on,,8,0,1,,,,,,,,,0,,,45,0
29587,note_on,,7,0,1,,,,,,,,,0,,,75,0
29595,note_on,,8,0,1,,,,,,,,,0,,,76,99
29625,note_on,,30,0,1,,,,,,,,,0,,,76,0
29626,note_on,,1,0,1,,,,,,,,,0,,,62,108
29627,note_on,,0,0,1,,,,,,,,,0,,,68,117
29627,note_on,,1,0,1,,,,,,,,,0,,,65,111
29627,note_on,,0,0,1,,,,,,,,,0,,,53,114
29628,note_on,,1,0,1,,,,,,,,,0,,,59,104
29628,note_on,,0,0,1,,,,,,,,,0,,,85,0
29633,control_change,,5,0,1,,,,,,,,,0,64,127,,
29655,note_on,,22,0,1,,,,,,,,,0,,,73,103
29668,note_on,,13,0,1,,,,,,,,,0,,,53,0
29685,note_on,,17,0,1,,,,,,,,,0,,,73,0
29686,note_on,,1,0,1,,,,,,,,,0,,,62,0
29687,note_on,,1,0,1,,,,,,,,,0,,,83,104
29687,note_on,,0,0,1,,,,,,,,,0,,,68,0
29687,note_on,,0,0,1,,,,,,,,,0,,,65,0
29688,note_on,,1,0,1,,,,,,,,,0,,,59,0
29690,control_change,,2,0,1,,,,,,,,,0,64,0,,
29717,note_on,,27,0,1,,,,,,,,,0,,,74,106
29744,note_on,,27,0,1,,,,,,,,,0,,,74,0
29747,note_on,,3,0,1,,,,,,,,,0,,,83,0
29748,note_on,,1,0,1,,,,,,,,,0,,,69,119
29750,note_on,,0,0,1,,,,,,,,,0,,,54,125
29750,note_on,,2,0,1,,,,,,,,,0,,,66,121
29751,note_on,,1,0,1,,,,,,,,,0,,,61,113
29777,note_on,,26,0,1,,,,,,,,,0,,,73,107
29789,note_on,,12,0,1,,,,,,,,,0,,,61,0
29790,note_on,,1,0,1,,,,,,,,,0,,,54,0
29790,note_on,,0,0,1,,,,,,,,,0,,,66,0
29805,note_on,,15,0,1,,,,,,,,,0,,,81,115
29805,note_on,,0,0,1,,,,,,,,,0,,,50,113
29805,note_on,,0,0,1,,,,,,,,,0,,,62,80
29808,note_on,,3,0,1,,,,,,,,,0,,,69,0
29822,note_on,,14,0,1,,,,,,,,,0,,,73,0
29832,note_on,,10,0,1,,,,,,,,,0,,,78,106
29834,note_on,,2,0,1,,,,,,,,,0,,,81,0
29835,note_on,,1,0,1,,,,,,,,,0,,,62,0
29835,note_on,,0,0,1,,,,,,,,,0,,,50,0
29853,note_on,,18,0,1,,,,,,,,,0,,,78,0
29860,note_on,,7,0,1,,,,,,,,,0,,,81,118
29861,note_on,,1,0,1,,,,,,,,,0,,,61,107
29862,note_on,,1,0,1,,,,,,,,,0,,,49,119
29890,note_on,,28,0,1,,,,,,,,,0,,,85,107
29891,note_on,,1,0,1,,,,,,,,,0,,,61,0
29892,note_on,,1,0,1,,,,,,,,,0,,,49,0
29915,note_on,,23,0,1,,,,,,,,,0,,,45,116
29915,note_on,,0,0,1,,,,,,,,,0,,,57,108
29917,note_on,,2,0,1,,,,,,,,,0,,,93,125
29920,note_on,,3,0,1,,,,,,,,,0,,,85,0
29930,note_on,,10,0,1,,,,,,,,,0,,,81,0
29942,note_on,,12,0,1,,,,,,,,,0,,,90,108
29945,note_on,,3,0,1,,,,,,,,,0,,,57,0
29945,note_on,,0,0,1,,,,,,,,,0,,,45,0
29970,note_on,,25,0,1,,,,,,,,,0,,,54,111
29971,note_on,,1,0,1,,,,,,,,,0,,,42,116
29973,note_on,,2,0,1,,,,,,,,,0,,,85,112
29977,note_on,,4,0,1,,,,,,,,,0,,,93,0
29977,note_on,,0,0,1,,,,,,,,,0,,,90,0
29997,note_on,,20,0,1,,,,,,,,,0,,,81,89
30000,note_on,,3,0,1,,,,,,,,,0,,,54,0
30001,note_on,,1,0,1,,,,,,,,,0,,,42,0
30003,note_on,,2,0,1,,,,,,,,,0,,,85,0
30025,note_on,,22,0,1,,,,,,,,,0,,,37,108
30025,note_on,,0,0,1,,,,,,,,,0,,,49,106
30026,note_on,,1,0,1,,,,,,,,,0,,,78,100
30027,note_on,,1,0,1,,,,,,,,,0,,,81,0
30055,note_on,,28,0,1,,,,,,,,,0,,,37,0
30055,note_on,,0,0,1,,,,,,,,,0,,,49,0
30057,note_on,,2,0,1,,,,,,,,,0,,,73,97
30065,note_on,,8,0,1,,,,,,,,,0,,,78,0
30085,note_on,,20,0,1,,,,,,,,,0,,,73,0
30088,note_on,,3,0,1,,,,,,,,,0,,,50,126
30088,note_on,,0,0,1,,,,,,,,,0,,,38,122
30088,note_on,,0,0,1,,,,,,,,,0,,,69,109
30118,note_on,,30,0,1,,,,,,,,,0,,,69,0
30125,note_on,,7,0,1,,,,,,,,,0,,,66,97
30156,note_on,,31,0,1,,,,,,,,,0,,,50,0
30158,note_on,,2,0,1,,,,,,,,,0,,,62,96
30183,note_on,,25,0,1,,,,,,,,,0,,,57,104
30188,note_on,,5,0,1,,,,,,,,,0,,,62,0
30194,note_on,,6,0,1,,,,,,,,,0,,,57,0
30205,note_on,,11,0,1,,,,,,,,,0,,,66,0
30216,note_on,,11,0,1,,,,,,,,,0,,,38,0
30218,note_on,,2,0,1,,,,,,,,,0,,,41,100
30220,note_on,,2,0,1,,,,,,,,,0,,,62,99
30220,note_on,,0,0,1,,,,,,,,,0,,,68,111
30221,note_on,,1,0,1,,,,,,,,,0,,,59,103
30243,note_on,,22,0,1,,,,,,,,,0,,,41,0
30247,note_on,,4,0,1,,,,,,,,,0,,,42,94
30272,note_on,,25,0,1,,,,,,,,,0,,,42,0
30277,note_on,,5,0,1,,,,,,,,,0,,,40,95
30307,note_on,,30,0,1,,,,,,,,,0,,,41,94
30309,note_on,,2,0,1,,,,,,,,,0,,,40,0
30341,note_on,,32,0,1,,,,,,,,,0,,,42,103
30342,note_on,,1,0,1,,,,,,,,,0,,,66,108
30342,note_on,,0,0,1,,,,,,,,,0,,,41,0
30351,note_on,,9,0,1,,,,,,,,,0,,,68,0
30369,note_on,,18,0,1,,,,,,,,,0,,,42,0
30370,note_on,,1,0,1,,,,,,,,,0,,,44,97
30401,note_on,,31,0,1,,,,,,,,,0,,,41,98
30401,note_on,,0,0,1,,,,,,,,,0,,,44,0
30427,note_on,,26,0,1,,,,,,,,,0,,,41,0
30430,note_on,,3,0,1,,,,,,,,,0,,,42,95
30458,note_on,,28,0,1,,,,,,,,,0,,,42,0
30460,note_on,,2,0,1,,,,,,,,,0,,,65,106
30460,note_on,,0,0,1,,,,,,,,,0,,,44,102
30462,note_on,,2,0,1,,,,,,,,,0,,,66,0
30487,note_on,,25,0,1,,,,,,,,,0,,,44,0
30490,note_on,,3,0,1,,,,,,,,,0,,,45,96
30520,note_on,,30,0,1,,,,,,,,,0,,,42,91
30520,note_on,,0,0,1,,,,,,,,,0,,,45,0
30549,note_on,,29,0,1,,,,,,,,,0,,,59,0
30550,note_on,,1,0,1,,,,,,,,,0,,,44,98
30550,note_on,,0,0,1,,,,,,,,,0,,,42,0
30554,note_on,,4,0,1,,,,,,,,,0,,,62,0
30576,note_on,,22,0,1,,,,,,,,,0,,,44,0
30578,note_on,,2,0,1,,,,,,,,,0,,,65,0
30580,note_on,,2,0,1,,,,,,,,,0,,,66,102
30581,note_on,,1,0,1,,,,,,,,,0,,,45,101
30582,note_on,,0,0,1,,,,,,,,,0,,,57,87
30582,note_on,,1,0,1,,,,,,,,,0,,,62,92
30610,note_on,,28,0,1,,,,,,,,,0,,,45,0
30611,note_on,,1,0,1,,,,,,,,,0,,,47,87
30643,note_on,,32,0,1,,,,,,,,,0,,,45,104
30644,note_on,,1,0,1,,,,,,,,,0,,,47,0
30668,note_on,,24,0,1,,,,,,,,,0,,,45,0
30672,note_on,,4,0,1,,,,,,,,,0,,,47,93
30685,note_on,,13,0,1,,,,,,,,,0,,,66,0
30687,note_on,,2,0,1,,,,,,,,,0,,,57,0
30687,note_on,,0,0,1,,,,,,,,,0,,,62,0
30700,note_on,,13,0,1,,,,,,,,,0,,,47,0
30705,note_on,,5,0,1,,,,,,,,,0,,,41,102
30706,note_on,,1,0,1,,,,,,,,,0,,,59,108
30706,note_on,,0,0,1,,,,,,,,,0,,,68,115
30707,note_on,,1,0,1,,,,,,,,,0,,,62,107
30734,note_on,,27,0,1,,,,,,,,,0,,,41,0
30738,note_on,,4,0,1,,,,,,,,,0,,,42,99
30766,note_on,,28,0,1,,,,,,,,,0,,,42,0
30768,note_on,,2,0,1,,,,,,,,,0,,,40,93
30794,note_on,,26,0,1,,,,,,,,,0,,,40,0
30797,note_on,,3,0,1,,,,,,,,,0,,,41,97
30827,note_on,,30,0,1,,,,,,,,,0,,,41,0
30830,note_on,,3,0,1,,,,,,,,,0,,,66,111
30831,note_on,,1,0,1,,,,,,,,,0,,,42,97
30856,note_on,,25,0,1,,,,,,,,,0,,,68,0
30860,note_on,,4,0,1,,,,,,,,,0,,,42,0
30861,note_on,,1,0,1,,,,,,,,,0,,,44,91
30887,note_on,,26,0,1,,,,,,,,,0,,,44,0
30890,note_on,,3,0,1,,,,,,,,,0,,,41,94
30913,note_on,,23,0,1,,,,,,,,,0,,,41,0
30920,note_on,,7,0,1,,,,,,,,,0,,,42,88
30947,note_on,,27,0,1,,,,,,,,,0,,,66,0
30948,note_on,,1,0,1,,,,,,,,,0,,,44,91
30948,note_on,,0,0,1,,,,,,,,,0,,,65,101
30948,note_on,,0,0,1,,,,,,,,,0,,,42,0
30973,note_on,,25,0,1,,,,,,,,,0,,,44,0
30975,note_on,,2,0,1,,,,,,,,,0,,,45,94
31005,note_on,,30,0,1,,,,,,,,,0,,,45,0
31007,note_on,,2,0,1,,,,,,,,,0,,,42,86
31037,note_on,,30,0,1,,,,,,,,,0,,,62,0
31040,note_on,,3,0,1,,,,,,,,,0,,,44,80
31049,note_on,,9,0,1,,,,,,,,,0,,,42,0
31064,note_on,,15,0,1,,,,,,,,,0,,,44,0
31067,note_on,,3,0,1,,,,,,,,,0,,,45,99
31067,note_on,,0,0,1,,,,,,,,,0,,,66,101
31068,note_on,,1,0,1,,,,,,,,,0,,,61,92
31068,note_on,,0,0,1,,,,,,,,,0,,,65,0
31094,note_on,,26,0,1,,,,,,,,,0,,,45,0
31097,note_on,,3,0,1,,,,,,,,,0,,,47,92
31125,note_on,,28,0,1,,,,,,,,,0,,,47,0
31127,note_on,,2,0,1,,,,,,,,,0,,,45,99
31154,note_on,,27,0,1,,,,,,,,,0,,,45,0
31157,note_on,,3,0,1,,,,,,,,,0,,,47,93
31162,note_on,,5,0,1,,,,,,,,,0,,,59,0
31164,note_on,,2,0,1,,,,,,,,,0,,,66,0
31165,note_on,,1,0,1,,,,,,,,,0,,,61,0
31184,note_on,,19,0,1,,,,,,,,,0,,,47,0
31188,note_on,,4,0,1,,,,,,,,,0,,,75,115
31190,note_on,,0,0,1,,,,,,,,,0,,,66,113
31190,note_on,,0,0,1,,,,,,,,,0,,,69,111
31190,note_on,,2,0,1,,,,,,,,,0,,,48,99
31222,note_on,,32,0,1,,,,,,,,,0,,,49,100
31247,note_on,,25,0,1,,,,,,,,,0,,,49,0
31250,note_on,,3,0,1,,,,,,,,,0,,,47,96
31250,note_on,,0,0,1,,,,,,,,,0,,,48,0
31280,note_on,,30,0,1,,,,,,,,,0,,,48,99
31280,note_on,,0,0,1,,,,,,,,,0,,,47,0
31310,note_on,,30,0,1,,,,,,,,,0,,,49,102
31311,note_on,,1,0,1,,,,,,,,,0,,,73,104
31311,note_on,,0,0,1,,,,,,,,,0,,,48,0
31336,note_on,,25,0,1,,,,,,,,,0,,,49,0
31338,note_on,,2,0,1,,,,,,,,,0,,,75,0
31340,note_on,,2,0,1,,,,,,,,,0,,,51,99
31367,note_on,,27,0,1,,,,,,,,,0,,,51,0
31368,note_on,,1,0,1,,,,,,,,,0,,,48,96
31395,note_on,,27,0,1,,,,,,,,,0,,,48,0
31397,note_on,,2,0,1,,,,,,,,,0,,,49,91
31425,note_on,,28,0,1,,,,,,,,,0,,,51,97
31426,note_on,,1,0,1,,,,,,,,,0,,,72,99
31427,note_on,,1,0,1,,,,,,,,,0,,,49,0
31427,note_on,,0,0,1,,,,,,,,,0,,,73,0
31450,note_on,,23,0,1,,,,,,,,,0,,,51,0
31457,note_on,,7,0,1,,,,,,,,,0,,,52,95
31484,note_on,,27,0,1,,,,,,,,,0,,,52,0
31485,note_on,,1,0,1,,,,,,,,,0,,,49,94
31490,note_on,,5,0,1,,,,,,,,,0,,,69,0
31512,note_on,,22,0,1,,,,,,,,,0,,,51,92
31513,note_on,,1,0,1,,,,,,,,,0,,,49,0
31520,note_on,,7,0,1,,,,,,,,,0,,,66,0
31538,note_on,,18,0,1,,,,,,,,,0,,,51,0
31539,note_on,,1,0,1,,,,,,,,,0,,,72,0
31545,note_on,,6,0,1,,,,,,,,,0,,,64,91
31545,note_on,,0,0,1,,,,,,,,,0,,,69,89
31546,note_on,,1,0,1,,,,,,,,,0,,,52,93
31546,note_on,,0,0,1,,,,,,,,,0,,,73,95
31572,note_on,,26,0,1,,,,,,,,,0,,,52,0
31575,note_on,,3,0,1,,,,,,,,,0,,,54,88
31603,note_on,,28,0,1,,,,,,,,,0,,,54,0
31604,note_on,,1,0,1,,,,,,,,,0,,,52,93
31629,note_on,,25,0,1,,,,,,,,,0,,,52,0
31634,note_on,,5,0,1,,,,,,,,,0,,,54,92
31635,note_on,,1,0,1,,,,,,,,,0,,,64,0
31635,note_on,,0,0,1,,,,,,,,,0,,,69,0
31643,note_on,,8,0,1,,,,,,,,,0,,,73,0
31661,note_on,,18,0,1,,,,,,,,,0,,,54,0
31665,note_on,,4,0,1,,,,,,,,,0,,,66,112
31665,note_on,,0,0,1,,,,,,,,,0,,,69,109
31665,note_on,,0,0,1,,,,,,,,,0,,,48,101
31666,note_on,,1,0,1,,,,,,,,,0,,,75,112
31690,note_on,,24,0,1,,,,,,,,,0,,,48,0
31696,note_on,,6,0,1,,,,,,,,,0,,,49,99
31723,note_on,,27,0,1,,,,,,,,,0,,,49,0
31725,note_on,,2,0,1,,,,,,,,,0,,,47,94
31755,note_on,,30,0,1,,,,,,,,,0,,,47,0
31758,note_on,,3,0,1,,,,,,,,,0,,,48,98
31787,note_on,,29,0,1,,,,,,,,,0,,,73,103
31788,note_on,,1,0,1,,,,,,,,,0,,,49,102
31791,note_on,,3,0,1,,,,,,,,,0,,,48,0
31816,note_on,,25,0,1,,,,,,,,,0,,,75,0
31816,note_on,,0,0,1,,,,,,,,,0,,,49,0
31821,note_on,,5,0,1,,,,,,,,,0,,,51,97
31850,note_on,,29,0,1,,,,,,,,,0,,,48,95
31851,note_on,,1,0,1,,,,,,,,,0,,,51,0
31875,note_on,,24,0,1,,,,,,,,,0,,,48,0
31878,note_on,,3,0,1,,,,,,,,,0,,,49,88
31906,note_on,,28,0,1,,,,,,,,,0,,,49,0
31907,note_on,,1,0,1,,,,,,,,,0,,,73,0
31908,note_on,,1,0,1,,,,,,,,,0,,,72,98
31908,note_on,,0,0,1,,,,,,,,,0,,,51,95
31934,note_on,,26,0,1,,,,,,,,,0,,,51,0
31937,note_on,,3,0,1,,,,,,,,,0,,,52,95
31967,note_on,,0,0,1,,,,,,,,,0,,,52,0
31967,note_on,,30,0,1,,,,,,,,,0,,,49,90
31995,note_on,,28,0,1,,,,,,,,,0,,,51,92
31995,note_on,,0,0,1,,,,,,,,,0,,,66,0
31995,note_on,,0,0,1,,,,,,,,,0,,,69,0
31997,note_on,,2,0,1,,,,,,,,,0,,,49,0
31998,note_on,,1,0,1,,,,,,,,,0,,,72,0
32024,note_on,,26,0,1,,,,,,,,,0,,,51,0
32025,note_on,,1,0,1,,,,,,,,,0,,,73,100
32027,note_on,,2,0,1,,,,,,,,,0,,,71,99
32028,note_on,,0,0,1,,,,,,,,,0,,,61,100
32028,note_on,,0,0,1,,,,,,,,,0,,,68,94
32028,note_on,,1,0,1,,,,,,,,,0,,,53,100
32058,note_on,,30,0,1,,,,,,,,,0,,,53,0
32062,note_on,,4,0,1,,,,,,,,,0,,,54,94
32090,note_on,,28,0,1,,,,,,,,,0,,,54,0
32092,note_on,,2,0,1,,,,,,,,,0,,,52,99
32119,note_on,,27,0,1,,,,,,,,,0,,,52,0
32120,note_on,,1,0,1,,,,,,,,,0,,,53,109
32130,note_on,,10,0,1,,,,,,,,,0,,,73,0
32132,note_on,,2,0,1,,,,,,,,,0,,,71,0
32133,note_on,,0,0,1,,,,,,,,,0,,,61,0
32133,note_on,,1,0,1,,,,,,,,,0,,,68,0
32152,note_on,,0,0,1,,,,,,,,,0,,,66,101
32152,note_on,,19,0,1,,,,,,,,,0,,,61,101
32152,note_on,,0,0,1,,,,,,,,,0,,,53,0
32153,note_on,,1,0,1,,,,,,,,,0,,,54,102
32153,note_on,,0,0,1,,,,,,,,,0,,,69,96
32154,note_on,,1,0,1,,,,,,,,,0,,,73,100
32179,note_on,,25,0,1,,,,,,,,,0,,,54,0
32181,note_on,,2,0,1,,,,,,,,,0,,,56,94
32207,note_on,,26,0,1,,,,,,,,,0,,,56,0
32212,note_on,,5,0,1,,,,,,,,,0,,,53,97
32234,note_on,,22,0,1,,,,,,,,,0,,,61,0
32236,note_on,,2,0,1,,,,,,,,,0,,,73,0
32237,note_on,,1,0,1,,,,,,,,,0,,,53,0
32240,note_on,,3,0,1,,,,,,,,,0,,,54,97
32240,note_on,,0,0,1,,,,,,,,,0,,,69,0
32242,note_on,,2,0,1,,,,,,,,,0,,,66,0
32270,note_on,,28,0,1,,,,,,,,,0,,,73,100
32270,note_on,,0,0,1,,,,,,,,,0,,,71,99
32271,note_on,,1,0,1,,,,,,,,,0,,,65,101
32271,note_on,,0,0,1,,,,,,,,,0,,,56,100
32273,note_on,,2,0,1,,,,,,,,,0,,,54,0
32300,note_on,,27,0,1,,,,,,,,,0,,,56,0
32302,note_on,,2,0,1,,,,,,,,,0,,,57,94
32327,note_on,,25,0,1,,,,,,,,,0,,,57,0
32328,note_on,,1,0,1,,,,,,,,,0,,,54,94
32357,note_on,,29,0,1,,,,,,,,,0,,,54,0
32358,note_on,,1,0,1,,,,,,,,,0,,,56,97
32367,note_on,,0,0,1,,,,,,,,,0,,,71,0
32367,note_on,,9,0,1,,,,,,,,,0,,,73,0
32368,note_on,,1,0,1,,,,,,,,,0,,,65,0
32385,note_on,,17,0,1,,,,,,,,,0,,,73,106
32386,note_on,,1,0,1,,,,,,,,,0,,,66,107
32387,note_on,,1,0,1,,,,,,,,,0,,,57,106
32387,note_on,,0,0,1,,,,,,,,,0,,,69,106
32387,note_on,,0,0,1,,,,,,,,,0,,,56,0
32413,note_on,,26,0,1,,,,,,,,,0,,,57,0
32418,note_on,,5,0,1,,,,,,,,,0,,,59,91
32445,note_on,,0,0,1,,,,,,,,,0,,,59,0
32445,note_on,,27,0,1,,,,,,,,,0,,,56,94
32468,note_on,,23,0,1,,,,,,,,,0,,,66,0
32469,note_on,,1,0,1,,,,,,,,,0,,,69,0
32473,note_on,,4,0,1,,,,,,,,,0,,,57,108
32475,note_on,,2,0,1,,,,,,,,,0,,,73,0
32480,note_on,,5,0,1,,,,,,,,,0,,,56,0
32502,note_on,,0,0,1,,,,,,,,,0,,,66,113
32502,note_on,,0,0,1,,,,,,,,,0,,,69,109
32502,note_on,,22,0,1,,,,,,,,,0,,,75,114
32503,note_on,,1,0,1,,,,,,,,,0,,,60,104
32503,note_on,,0,0,1,,,,,,,,,0,,,57,0
32534,note_on,,31,0,1,,,,,,,,,0,,,60,0
32537,note_on,,3,0,1,,,,,,,,,0,,,61,103
32559,note_on,,22,0,1,,,,,,,,,0,,,61,0
32565,note_on,,6,0,1,,,,,,,,,0,,,59,93
32592,note_on,,0,0,1,,,,,,,,,0,,,69,0
32592,note_on,,27,0,1,,,,,,,,,0,,,60,103
32595,note_on,,3,0,1,,,,,,,,,0,,,59,0
32599,note_on,,0,0,1,,,,,,,,,0,,,66,0
32599,note_on,,4,0,1,,,,,,,,,0,,,75,0
32620,note_on,,21,0,1,,,,,,,,,0,,,64,109
32622,note_on,,2,0,1,,,,,,,,,0,,,61,113
32622,note_on,,0,0,1,,,,,,,,,0,,,68,110
32622,note_on,,0,0,1,,,,,,,,,0,,,76,113
32622,note_on,,0,0,1,,,,,,,,,0,,,60,0
32647,note_on,,25,0,1,,,,,,,,,0,,,61,0
32650,note_on,,3,0,1,,,,,,,,,0,,,63,104
32677,note_on,,27,0,1,,,,,,,,,0,,,63,0
32680,note_on,,3,0,1,,,,,,,,,0,,,60,104
32707,note_on,,27,0,1,,,,,,,,,0,,,64,0
32710,note_on,,3,0,1,,,,,,,,,0,,,61,108
32710,note_on,,0,0,1,,,,,,,,,0,,,60,0
32718,note_on,,8,0,1,,,,,,,,,0,,,68,0
32718,note_on,,0,0,1,,,,,,,,,0,,,76,0
32740,note_on,,22,0,1,,,,,,,,,0,,,68,115
32740,note_on,,0,0,1,,,,,,,,,0,,,72,111
32740,note_on,,0,0,1,,,,,,,,,0,,,78,118
32741,note_on,,1,0,1,,,,,,,,,0,,,63,109
32745,note_on,,4,0,1,,,,,,,,,0,,,61,0
32772,note_on,,27,0,1,,,,,,,,,0,,,63,0
32773,note_on,,1,0,1,,,,,,,,,0,,,64,108
32790,control_change,,17,0,1,,,,,,,,,0,64,127,,
32802,note_on,,12,0,1,,,,,,,,,0,,,61,107
32804,note_on,,2,0,1,,,,,,,,,0,,,64,0
32812,control_change,,8,0,1,,,,,,,,,0,64,0,,
32830,note_on,,0,0,1,,,,,,,,,0,,,72,0
32830,note_on,,18,0,1,,,,,,,,,0,,,63,102
32830,note_on,,0,0,1,,,,,,,,,0,,,68,0
32837,note_on,,7,0,1,,,,,,,,,0,,,78,0
32839,note_on,,2,0,1,,,,,,,,,0,,,61,0
32859,note_on,,20,0,1,,,,,,,,,0,,,63,0
32860,note_on,,0,0,1,,,,,,,,,0,,,64,114
32860,note_on,,0,0,1,,,,,,,,,0,,,80,125
32860,note_on,,1,0,1,,,,,,,,,0,,,73,114
32862,note_on,,2,0,1,,,,,,,,,0,,,68,121
32881,control_change,,19,0,1,,,,,,,,,0,64,127,,
32889,note_on,,8,0,1,,,,,,,,,0,,,64,0
32893,note_on,,4,0,1,,,,,,,,,0,,,66,108
32916,note_on,,23,0,1,,,,,,,,,0,,,66,0
32920,note_on,,4,0,1,,,,,,,,,0,,,63,104
32923,control_change,,3,0,1,,,,,,,,,0,64,0,,
32950,note_on,,0,0,1,,,,,,,,,0,,,63,0
32950,note_on,,27,0,1,,,,,,,,,0,,,64,110
32957,note_on,,7,0,1,,,,,,,,,0,,,73,0
32957,note_on,,0,0,1,,,,,,,,,0,,,80,0
32959,note_on,,2,0,1,,,,,,,,,0,,,68,0
32977,note_on,,18,0,1,,,,,,,,,0,,,75,116
32977,note_on,,0,0,1,,,,,,,,,0,,,81,116
32977,note_on,,0,0,1,,,,,,,,,0,,,73,116
32978,note_on,,1,0,1,,,,,,,,,0,,,66,103
32978,note_on,,0,0,1,,,,,,,,,0,,,64,0
32987,control_change,,9,0,1,,,,,,,,,0,64,127,,
33008,note_on,,21,0,1,,,,,,,,,0,,,66,0
33010,note_on,,2,0,1,,,,,,,,,0,,,68,98
33022,control_change,,12,0,1,,,,,,,,,0,64,0,,
33036,note_on,,14,0,1,,,,,,,,,0,,,68,0
33037,note_on,,1,0,1,,,,,,,,,0,,,64,106
33065,note_on,,0,0,1,,,,,,,,,0,,,64,0
33065,note_on,,28,0,1,,,,,,,,,0,,,66,104
33065,note_on,,0,0,1,,,,,,,,,0,,,75,0
33067,note_on,,2,0,1,,,,,,,,,0,,,73,0
33082,note_on,,15,0,1,,,,,,,,,0,,,81,0
33099,note_on,,0,0,1,,,,,,,,,0,,,68,113
33099,note_on,,0,0,1,,,,,,,,,0,,,76,115
33099,note_on,,17,0,1,,,,,,,,,0,,,80,118
33099,note_on,,0,0,1,,,,,,,,,0,,,73,115
33100,note_on,,1,0,1,,,,,,,,,0,,,66,0
33111,control_change,,11,0,1,,,,,,,,,0,64,127,,
33133,note_on,,22,0,1,,,,,,,,,0,,,69,106
33136,note_on,,3,0,1,,,,,,,,,0,,,68,0
33163,note_on,,27,0,1,,,,,,,,,0,,,68,115
33167,note_on,,4,0,1,,,,,,,,,0,,,69,0
33172,control_change,,5,0,1,,,,,,,,,0,64,0,,
33191,note_on,,19,0,1,,,,,,,,,0,,,66,104
33195,note_on,,4,0,1,,,,,,,,,0,,,68,0
33219,note_on,,24,0,1,,,,,,,,,0,,,66,0
33222,note_on,,3,0,1,,,,,,,,,0,,,64,115
33253,note_on,,31,0,1,,,,,,,,,0,,,63,111
33259,note_on,,6,0,1,,,,,,,,,0,,,64,0
33281,note_on,,22,0,1,,,,,,,,,0,,,61,109
33284,note_on,,3,0,1,,,,,,,,,0,,,63,0
33295,note_on,,11,0,1,,,,,,,,,0,,,73,0
33298,note_on,,3,0,1,,,,,,,,,0,,,76,0
33299,note_on,,1,0,1,,,,,,,,,0,,,80,0
33310,note_on,,11,0,1,,,,,,,,,0,,,59,109
33311,note_on,,1,0,1,,,,,,,,,0,,,61,0
33340,note_on,,29,0,1,,,,,,,,,0,,,57,120
33341,note_on,,0,0,1,,,,,,,,,0,,,76,116
33341,note_on,,1,0,1,,,,,,,,,0,,,80,110
33341,note_on,,0,0,1,,,,,,,,,0,,,85,127
33341,note_on,,0,0,1,,,,,,,,,0,,,73,121
33345,note_on,,4,0,1,,,,,,,,,0,,,59,0
33356,control_change,,11,0,1,,,,,,,,,0,64,127,,
33373,note_on,,17,0,1,,,,,,,,,0,,,56,116
33378,note_on,,5,0,1,,,,,,,,,0,,,57,0
33399,note_on,,21,0,1,,,,,,,,,0,,,56,0
33400,note_on,,1,0,1,,,,,,,,,0,,,54,108
33423,note_on,,0,0,1,,,,,,,,,0,,,85,0
33423,note_on,,23,0,1,,,,,,,,,0,,,76,0
33423,note_on,,0,0,1,,,,,,,,,0,,,73,0
33423,note_on,,0,0,1,,,,,,,,,0,,,80,0
33428,note_on,,5,0,1,,,,,,,,,0,,,52,107
33430,note_on,,2,0,1,,,,,,,,,0,,,54,0
33455,control_change,,25,0,1,,,,,,,,,0,64,0,,
33459,note_on,,4,0,1,,,,,,,,,0,,,88,120
33459,note_on,,0,0,1,,,,,,,,,0,,,85,119
33459,note_on,,0,0,1,,,,,,,,,0,,,80,124
33459,note_on,,0,0,1,,,,,,,,,0,,,76,122
33459,note_on,,0,0,1,,,,,,,,,0,,,51,126
33459,note_on,,0,0,1,,,,,,,,,0,,,52,0
33487,note_on,,28,0,1,,,,,,,,,0,,,49,103
33488,control_change,,1,0,1,,,,,,,,,0,64,127,,
33497,note_on,,9,0,1,,,,,,,,,0,,,51,0
33513,note_on,,16,0,1,,,,,,,,,0,,,47,110
33517,note_on,,4,0,1,,,,,,,,,0,,,49,0
33543,note_on,,0,0,1,,,,,,,,,0,,,47,0
33543,note_on,,26,0,1,,,,,,,,,0,,,45,114
33546,control_change,,3,0,1,,,,,,,,,0,64,0,,
33549,note_on,,3,0,1,,,,,,,,,0,,,76,0
33549,note_on,,0,0,1,,,,,,,,,0,,,80,0
33549,note_on,,0,0,1,,,,,,,,,0,,,88,0
33549,note_on,,0,0,1,,,,,,,,,0,,,85,0
33574,note_on,,25,0,1,,,,,,,,,0,,,85,119
33575,note_on,,0,0,1,,,,,,,,,0,,,80,125
33575,note_on,,1,0,1,,,,,,,,,0,,,88,114
33575,note_on,,0,0,1,,,,,,,,,0,,,44,125
33575,note_on,,0,0,1,,,,,,,,,0,,,92,127
33583,control_change,,8,0,1,,,,,,,,,0,64,127,,
33583,note_on,,0,0,1,,,,,,,,,0,,,45,0
33606,note_on,,23,0,1,,,,,,,,,0,,,42,103
33610,note_on,,4,0,1,,,,,,,,,0,,,44,0
33631,control_change,,21,0,1,,,,,,,,,0,64,0,,
33633,note_on,,2,0,1,,,,,,,,,0,,,40,112
33635,note_on,,2,0,1,,,,,,,,,0,,,42,0
33660,note_on,,25,0,1,,,,,,,,,0,,,85,0
33660,note_on,,0,0,1,,,,,,,,,0,,,92,0
33660,note_on,,0,0,1,,,,,,,,,0,,,88,0
33661,note_on,,1,0,1,,,,,,,,,0,,,80,0
33663,note_on,,2,0,1,,,,,,,,,0,,,39,113
33663,note_on,,0,0,1,,,,,,,,,0,,,40,0
33693,note_on,,30,0,1,,,,,,,,,0,,,39,0
33695,note_on,,0,0,1,,,,,,,,,0,,,37,111
33695,note_on,,0,0,1,,,,,,,,,0,,,92,127
33695,note_on,,2,0,1,,,,,,,,,0,,,97,127
33696,note_on,,0,0,1,,,,,,,,,0,,,88,124
33696,note_on,,1,0,1,,,,,,,,,0,,,85,122
33707,control_change,,11,0,1,,,,,,,,,0,64,127,,
33723,note_on,,16,0,1,,,,,,,,,0,,,37,0
33725,note_on,,2,0,1,,,,,,,,,0,,,35,113
33747,control_change,,22,0,1,,,,,,,,,0,64,0,,
33756,note_on,,9,0,1,,,,,,,,,0,,,33,115
33758,note_on,,2,0,1,,,,,,,,,0,,,35,0
33765,control_change,,7,0,1,,,,,,,,,0,64,127,,
33782,note_on,,17,0,1,,,,,,,,,0,,,33,0
33785,note_on,,0,0,1,,,,,,,,,0,,,97,0
33785,note_on,,3,0,1,,,,,,,,,0,,,32,109
33785,note_on,,0,0,1,,,,,,,,,0,,,92,0
33786,note_on,,1,0,1,,,,,,,,,0,,,85,0
33786,note_on,,0,0,1,,,,,,,,,0,,,88,0
33815,note_on,,29,0,1,,,,,,,,,0,,,32,0
33822,note_on,,0,0,1,,,,,,,,,0,,,81,118
33822,note_on,,0,0,1,,,,,,,,,0,,,93,127
33822,note_on,,0,0,1,,,,,,,,,0,,,85,124
33822,note_on,,7,0,1,,,,,,,,,0,,,87,124
33822,note_on,,0,0,1,,,,,,,,,0,,,30,127
33822,note_on,,0,0,1,,,,,,,,,0,,,42,127
33826,control_change,,4,0,1,,,,,,,,,0,64,0,,
33838,control_change,,12,0,1,,,,,,,,,0,64,127,,
33863,control_change,,25,0,1,,,,,,,,,0,64,0,,
33894,note_on,,31,0,1,,,,,,,,,0,,,30,0
33899,note_on,,5,0,1,,,,,,,,,0,,,42,0
33912,note_on,,0,0,1,,,,,,,,,0,,,93,0
33912,note_on,,0,0,1,,,,,,,,,0,,,81,0
33912,note_on,,13,0,1,,,,,,,,,0,,,85,0
33912,note_on,,0,0,1,,,,,,,,,0,,,87,0
33965,note_on,,53,0,1,,,,,,,,,0,,,66,114
33965,note_on,,0,0,1,,,,,,,,,0,,,68,108
33965,note_on,,0,0,1,,,,,,,,,0,,,60,109
33965,note_on,,0,0,1,,,,,,,,,0,,,72,109
33966,note_on,,1,0,1,,,,,,,,,0,,,32,127
33966,note_on,,0,0,1,,,,,,,,,0,,,44,127
33985,control_change,,19,0,1,,,,,,,,,0,64,127,,
34027,control_change,,42,0,1,,,,,,,,,0,64,0,,
34035,note_on,,8,0,1,,,,,,,,,0,,,32,0
34036,note_on,,1,0,1,,,,,,,,,0,,,44,0
34055,note_on,,0,0,1,,,,,,,,,0,,,72,0
34055,note_on,,19,0,1,,,,,,,,,0,,,60,0
34055,note_on,,0,0,1,,,,,,,,,0,,,68,0
34055,note_on,,0,0,1,,,,,,,,,0,,,66,0
34092,note_on,,37,0,1,,,,,,,,,0,,,73,123
34092,note_on,,0,0,1,,,,,,,,,0,,,61,127
34093,note_on,,1,0,1,,,,,,,,,0,,,64,123
34093,note_on,,0,0,1,,,,,,,,,0,,,68,116
34095,note_on,,2,0,1,,,,,,,,,0,,,25,127
34095,note_on,,0,0,1,,,,,,,,,0,,,37,127
34102,control_change,,7,0,1,,,,,,,,,0,64,127,,
34155,note_on,,53,0,1,,,,,,,,,0,,,61,0
34159,note_on,,4,0,1,,,,,,,,,0,,,64,0
34163,note_on,,4,0,1,,,,,,,,,0,,,68,0
34167,note_on,,4,0,1,,,,,,,,,0,,,25,0
34169,note_on,,2,0,1,,,,,,,,,0,,,73,0
34170,control_change,,1,0,1,,,,,,,,,0,64,0,,
34173,note_on,,3,0,1,,,,,,,,,0,,,37,0
34227,note_on,,54,0,1,,,,,,,,,0,,,80,127
34230,note_on,,3,0,1,,,,,,,,,0,,,56,127
34230,note_on,,0,0,1,,,,,,,,,0,,,44,127
34233,control_change,,3,0,1,,,,,,,,,0,64,127,,
34257,note_on,,24,0,1,,,,,,,,,0,,,80,0
34260,note_on,,3,0,1,,,,,,,,,0,,,81,106
34285,note_on,,25,0,1,,,,,,,,,0,,,80,124
34285,note_on,,0,0,1,,,,,,,,,0,,,37,119
34285,note_on,,0,0,1,,,,,,,,,0,,,81,0
34288,control_change,,3,0,1,,,,,,,,,0,64,0,,
34290,note_on,,2,0,1,,,,,,,,,0,,,56,0
34290,note_on,,0,0,1,,,,,,,,,0,,,44,0
34313,note_on,,23,0,1,,,,,,,,,0,,,88,104
34322,note_on,,9,0,1,,,,,,,,,0,,,80,0
34341,note_on,,19,0,1,,,,,,,,,0,,,58,126
34342,note_on,,1,0,1,,,,,,,,,0,,,79,126
34342,note_on,,0,0,1,,,,,,,,,0,,,46,127
34345,control_change,,3,0,1,,,,,,,,,0,64,127,,
34345,note_on,,0,0,1,,,,,,,,,0,,,37,0
34347,note_on,,2,0,1,,,,,,,,,0,,,88,0
34367,note_on,,20,0,1,,,,,,,,,0,,,80,116
34372,note_on,,5,0,1,,,,,,,,,0,,,79,0
34395,note_on,,23,0,1,,,,,,,,,0,,,37,119
34397,note_on,,2,0,1,,,,,,,,,0,,,80,0
34398,note_on,,1,0,1,,,,,,,,,0,,,79,113
34400,control_change,,2,0,1,,,,,,,,,0,64,0,,
34401,note_on,,1,0,1,,,,,,,,,0,,,58,0
34402,note_on,,1,0,1,,,,,,,,,0,,,46,0
34421,note_on,,19,0,1,,,,,,,,,0,,,88,96
34423,note_on,,2,0,1,,,,,,,,,0,,,79,0
34435,note_on,,12,0,1,,,,,,,,,0,,,80,60
34450,note_on,,0,0,1,,,,,,,,,0,,,45,126
34450,note_on,,15,0,1,,,,,,,,,0,,,57,118
34451,note_on,,1,0,1,,,,,,,,,0,,,78,127
34451,note_on,,0,0,1,,,,,,,,,0,,,88,0
34455,note_on,,4,0,1,,,,,,,,,0,,,37,0
34458,control_change,,3,0,1,,,,,,,,,0,64,127,,
34465,note_on,,7,0,1,,,,,,,,,0,,,80,0
34477,note_on,,12,0,1,,,,,,,,,0,,,80,101
34479,note_on,,2,0,1,,,,,,,,,0,,,78,0
34505,note_on,,26,0,1,,,,,,,,,0,,,78,113
34505,note_on,,0,0,1,,,,,,,,,0,,,37,120
34508,control_change,,3,0,1,,,,,,,,,0,64,0,,
34510,note_on,,2,0,1,,,,,,,,,0,,,57,0
34510,note_on,,0,0,1,,,,,,,,,0,,,45,0
34512,note_on,,2,0,1,,,,,,,,,0,,,80,0
34532,note_on,,20,0,1,,,,,,,,,0,,,87,97
34545,note_on,,13,0,1,,,,,,,,,0,,,78,0
34560,note_on,,0,0,1,,,,,,,,,0,,,77,127
34560,note_on,,15,0,1,,,,,,,,,0,,,56,119
34560,note_on,,0,0,1,,,,,,,,,0,,,44,124
34565,note_on,,0,0,1,,,,,,,,,0,,,37,0
34565,control_change,,5,0,1,,,,,,,,,0,64,127,,
34587,note_on,,22,0,1,,,,,,,,,0,,,78,113
34589,note_on,,2,0,1,,,,,,,,,0,,,87,0
34590,note_on,,1,0,1,,,,,,,,,0,,,77,0
34613,note_on,,23,0,1,,,,,,,,,0,,,77,116
34614,note_on,,1,0,1,,,,,,,,,0,,,37,117
34615,note_on,,1,0,1,,,,,,,,,0,,,78,0
34620,note_on,,5,0,1,,,,,,,,,0,,,44,0
34620,note_on,,0,0,1,,,,,,,,,0,,,56,0
34622,control_change,,2,0,1,,,,,,,,,0,64,0,,
34636,note_on,,14,0,1,,,,,,,,,0,,,77,0
34638,note_on,,2,0,1,,,,,,,,,0,,,86,92
34668,note_on,,30,0,1,,,,,,,,,0,,,86,0
34670,note_on,,2,0,1,,,,,,,,,0,,,76,124
34670,note_on,,0,0,1,,,,,,,,,0,,,44,127
34670,note_on,,0,0,1,,,,,,,,,0,,,55,107
34674,note_on,,4,0,1,,,,,,,,,0,,,37,0
34675,control_change,,1,0,1,,,,,,,,,0,64,127,,
34697,note_on,,22,0,1,,,,,,,,,0,,,78,106
34702,note_on,,5,0,1,,,,,,,,,0,,,76,0
34722,control_change,,20,0,1,,,,,,,,,0,64,0,,
34725,note_on,,3,0,1,,,,,,,,,0,,,37,113
34725,note_on,,0,0,1,,,,,,,,,0,,,78,0
34727,note_on,,2,0,1,,,,,,,,,0,,,76,112
34730,note_on,,0,0,1,,,,,,,,,0,,,55,0
34730,note_on,,3,0,1,,,,,,,,,0,,,44,0
34749,note_on,,19,0,1,,,,,,,,,0,,,76,0
34752,note_on,,3,0,1,,,,,,,,,0,,,85,109
34780,note_on,,0,0,1,,,,,,,,,0,,,54,121
34780,note_on,,0,0,1,,,,,,,,,0,,,44,118
34780,note_on,,28,0,1,,,,,,,,,0,,,75,127
34782,note_on,,2,0,1,,,,,,,,,0,,,85,0
34785,control_change,,3,0,1,,,,,,,,,0,64,127,,
34785,note_on,,0,0,1,,,,,,,,,0,,,37,0
34805,note_on,,20,0,1,,,,,,,,,0,,,76,106
34807,note_on,,2,0,1,,,,,,,,,0,,,75,0
34831,note_on,,24,0,1,,,,,,,,,0,,,37,111
34832,note_on,,1,0,1,,,,,,,,,0,,,76,0
34833,note_on,,1,0,1,,,,,,,,,0,,,75,120
34835,control_change,,2,0,1,,,,,,,,,0,64,0,,
34840,note_on,,5,0,1,,,,,,,,,0,,,44,0
34840,note_on,,0,0,1,,,,,,,,,0,,,54,0
34860,note_on,,20,0,1,,,,,,,,,0,,,85,106
34861,note_on,,1,0,1,,,,,,,,,0,,,75,0
34890,note_on,,0,0,1,,,,,,,,,0,,,51,121
34890,note_on,,29,0,1,,,,,,,,,0,,,75,127
34890,note_on,,0,0,1,,,,,,,,,0,,,44,121
34890,note_on,,0,0,1,,,,,,,,,0,,,85,0
34891,note_on,,1,0,1,,,,,,,,,0,,,37,0
34893,control_change,,2,0,1,,,,,,,,,0,64,127,,
34917,note_on,,24,0,1,,,,,,,,,0,,,76,102
34918,note_on,,1,0,1,,,,,,,,,0,,,75,0
34938,note_on,,20,0,1,,,,,,,,,0,,,76,0
34943,note_on,,0,0,1,,,,,,,,,0,,,37,110
34943,note_on,,5,0,1,,,,,,,,,0,,,75,104
34947,control_change,,4,0,1,,,,,,,,,0,64,0,,
34950,note_on,,3,0,1,,,,,,,,,0,,,44,0
34950,note_on,,0,0,1,,,,,,,,,0,,,51,0
34969,note_on,,0,0,1,,,,,,,,,0,,,75,0
34969,note_on,,19,0,1,,,,,,,,,0,,,84,117
34997,note_on,,28,0,1,,,,,,,,,0,,,44,121
34998,note_on,,1,0,1,,,,,,,,,0,,,52,114
34998,note_on,,0,0,1,,,,,,,,,0,,,73,127
34999,note_on,,1,0,1,,,,,,,,,0,,,84,0
35003,note_on,,4,0,1,,,,,,,,,0,,,37,0
35005,control_change,,2,0,1,,,,,,,,,0,64,127,,
35028,note_on,,23,0,1,,,,,,,,,0,,,75,98
35033,note_on,,5,0,1,,,,,,,,,0,,,73,0
35055,note_on,,22,0,1,,,,,,,,,0,,,37,118
35056,note_on,,1,0,1,,,,,,,,,0,,,73,94
35059,note_on,,3,0,1,,,,,,,,,0,,,75,0
35067,control_change,,8,0,1,,,,,,,,,0,64,0,,
35069,note_on,,0,0,1,,,,,,,,,0,,,44,0
35069,note_on,,2,0,1,,,,,,,,,0,,,52,0
35085,note_on,,16,0,1,,,,,,,,,0,,,85,109
35115,note_on,,30,0,1,,,,,,,,,0,,,37,0
35116,note_on,,1,0,1,,,,,,,,,0,,,73,0
35117,note_on,,1,0,1,,,,,,,,,0,,,56,127
35117,note_on,,0,0,1,,,,,,,,,0,,,44,127
35118,note_on,,1,0,1,,,,,,,,,0,,,80,127
35122,control_change,,4,0,1,,,,,,,,,0,64,127,,
35145,note_on,,23,0,1,,,,,,,,,0,,,85,0
35148,note_on,,3,0,1,,,,,,,,,0,,,81,111
35151,note_on,,3,0,1,,,,,,,,,0,,,80,0
35175,note_on,,0,0,1,,,,,,,,,0,,,80,126
35175,note_on,,24,0,1,,,,,,,,,0,,,37,122
35177,note_on,,0,0,1,,,,,,,,,0,,,81,0
35177,note_on,,2,0,1,,,,,,,,,0,,,56,0
35177,note_on,,0,0,1,,,,,,,,,0,,,44,0
35190,control_change,,13,0,1,,,,,,,,,0,64,0,,
35205,note_on,,15,0,1,,,,,,,,,0,,,88,95
35207,note_on,,2,0,1,,,,,,,,,0,,,80,0
35235,note_on,,0,0,1,,,,,,,,,0,,,37,0
35235,note_on,,28,0,1,,,,,,,,,0,,,58,124
35235,note_on,,0,0,1,,,,,,,,,0,,,79,127
35236,note_on,,1,0,1,,,,,,,,,0,,,46,127
35240,control_change,,4,0,1,,,,,,,,,0,64,127,,
35265,note_on,,25,0,1,,,,,,,,,0,,,80,104
35265,note_on,,0,0,1,,,,,,,,,0,,,88,0
35265,note_on,,0,0,1,,,,,,,,,0,,,79,0
35290,note_on,,25,0,1,,,,,,,,,0,,,37,122
35290,note_on,,0,0,1,,,,,,,,,0,,,80,0
35291,note_on,,1,0,1,,,,,,,,,0,,,79,104
35295,note_on,,4,0,1,,,,,,,,,0,,,58,0
35296,note_on,,1,0,1,,,,,,,,,0,,,46,0
35298,control_change,,2,0,1,,,,,,,,,0,64,0,,
35315,note_on,,17,0,1,,,,,,,,,0,,,88,107
35316,note_on,,1,0,1,,,,,,,,,0,,,79,0
35348,note_on,,0,0,1,,,,,,,,,0,,,57,116
35348,note_on,,0,0,1,,,,,,,,,0,,,78,127
35348,note_on,,32,0,1,,,,,,,,,0,,,45,123
35350,note_on,,2,0,1,,,,,,,,,0,,,37,0
35355,control_change,,5,0,1,,,,,,,,,0,64,127,,
35375,note_on,,20,0,1,,,,,,,,,0,,,88,0
35379,note_on,,4,0,1,,,,,,,,,0,,,78,0
35380,note_on,,1,0,1,,,,,,,,,0,,,80,93
35404,note_on,,24,0,1,,,,,,,,,0,,,37,119
35406,note_on,,2,0,1,,,,,,,,,0,,,78,109
35408,note_on,,2,0,1,,,,,,,,,0,,,45,0
35408,note_on,,0,0,1,,,,,,,,,0,,,57,0
35410,note_on,,2,0,1,,,,,,,,,0,,,80,0
35413,control_change,,3,0,1,,,,,,,,,0,64,0,,
35433,note_on,,20,0,1,,,,,,,,,0,,,87,103
35439,note_on,,6,0,1,,,,,,,,,0,,,78,0
35463,note_on,,0,0,1,,,,,,,,,0,,,77,127
35463,note_on,,24,0,1,,,,,,,,,0,,,44,127
35463,note_on,,0,0,1,,,,,,,,,0,,,56,120
35464,note_on,,1,0,1,,,,,,,,,0,,,37,0
35468,control_change,,4,0,1,,,,,,,,,0,64,127,,
35491,note_on,,23,0,1,,,,,,,,,0,,,78,109
35493,note_on,,2,0,1,,,,,,,,,0,,,87,0
35494,note_on,,1,0,1,,,,,,,,,0,,,77,0
35516,note_on,,22,0,1,,,,,,,,,0,,,37,124
35518,note_on,,2,0,1,,,,,,,,,0,,,77,117
35522,note_on,,4,0,1,,,,,,,,,0,,,78,0
35528,control_change,,6,0,1,,,,,,,,,0,64,0,,
35542,note_on,,14,0,1,,,,,,,,,0,,,86,88
35542,note_on,,0,0,1,,,,,,,,,0,,,77,0
35549,note_on,,7,0,1,,,,,,,,,0,,,56,0
35549,note_on,,0,0,1,,,,,,,,,0,,,44,0
35576,note_on,,27,0,1,,,,,,,,,0,,,44,127
35577,note_on,,1,0,1,,,,,,,,,0,,,55,118
35577,note_on,,0,0,1,,,,,,,,,0,,,76,122
35579,note_on,,2,0,1,,,,,,,,,0,,,37,0
35583,control_change,,4,0,1,,,,,,,,,0,64,127,,
35602,note_on,,19,0,1,,,,,,,,,0,,,86,0
35605,note_on,,3,0,1,,,,,,,,,0,,,78,100
35608,note_on,,3,0,1,,,,,,,,,0,,,76,0
35632,note_on,,24,0,1,,,,,,,,,0,,,37,124
35632,note_on,,0,0,1,,,,,,,,,0,,,78,0
35633,note_on,,1,0,1,,,,,,,,,0,,,76,110
35636,note_on,,3,0,1,,,,,,,,,0,,,44,0
35637,note_on,,1,0,1,,,,,,,,,0,,,55,0
35640,control_change,,3,0,1,,,,,,,,,0,64,0,,
35657,note_on,,17,0,1,,,,,,,,,0,,,85,102
35657,note_on,,0,0,1,,,,,,,,,0,,,76,0
35687,note_on,,30,0,1,,,,,,,,,0,,,44,127
35688,note_on,,1,0,1,,,,,,,,,0,,,75,127
35688,note_on,,0,0,1,,,,,,,,,0,,,54,124
35692,note_on,,4,0,1,,,,,,,,,0,,,37,0
35693,control_change,,1,0,1,,,,,,,,,0,64,127,,
35717,note_on,,24,0,1,,,,,,,,,0,,,85,0
35718,note_on,,1,0,1,,,,,,,,,0,,,75,0
35719,note_on,,1,0,1,,,,,,,,,0,,,76,106
35745,note_on,,26,0,1,,,,,,,,,0,,,75,119
35745,note_on,,0,0,1,,,,,,,,,0,,,37,85
35745,note_on,,0,0,1,,,,,,,,,0,,,76,0
35747,note_on,,2,0,1,,,,,,,,,0,,,44,0
35748,control_change,,1,0,1,,,,,,,,,0,64,0,,
35748,note_on,,0,0,1,,,,,,,,,0,,,54,0
35768,note_on,,20,0,1,,,,,,,,,0,,,75,0
35772,note_on,,4,0,1,,,,,,,,,0,,,85,101
35800,note_on,,0,0,1,,,,,,,,,0,,,75,127
35800,note_on,,0,0,1,,,,,,,,,0,,,44,125
35800,note_on,,28,0,1,,,,,,,,,0,,,51,124
35805,note_on,,5,0,1,,,,,,,,,0,,,37,0
35807,control_change,,2,0,1,,,,,,,,,0,64,127,,
35828,note_on,,21,0,1,,,,,,,,,0,,,76,106
35830,note_on,,2,0,1,,,,,,,,,0,,,75,0
35832,note_on,,2,0,1,,,,,,,,,0,,,85,0
35853,note_on,,21,0,1,,,,,,,,,0,,,75,120
35853,note_on,,0,0,1,,,,,,,,,0,,,37,120
35854,note_on,,1,0,1,,,,,,,,,0,,,76,0
35860,note_on,,0,0,1,,,,,,,,,0,,,51,0
35860,note_on,,6,0,1,,,,,,,,,0,,,44,0
35865,control_change,,5,0,1,,,,,,,,,0,64,0,,
35879,note_on,,14,0,1,,,,,,,,,0,,,75,0
35880,note_on,,1,0,1,,,,,,,,,0,,,84,111
35883,note_on,,3,0,1,,,,,,,,,0,,,37,0
35908,control_change,,25,0,1,,,,,,,,,0,64,127,,
35917,note_on,,0,0,1,,,,,,,,,0,,,37,98
35917,note_on,,0,0,1,,,,,,,,,0,,,52,123
35917,note_on,,9,0,1,,,,,,,,,0,,,73,127
35917,note_on,,0,0,1,,,,,,,,,0,,,44,116
35940,note_on,,23,0,1,,,,,,,,,0,,,84,0
35946,note_on,,6,0,1,,,,,,,,,0,,,75,108
35949,note_on,,3,0,1,,,,,,,,,0,,,73,0
35970,note_on,,21,0,1,,,,,,,,,0,,,75,0
35974,note_on,,4,0,1,,,,,,,,,0,,,73,111
35976,note_on,,2,0,1,,,,,,,,,0,,,37,0
35977,note_on,,0,0,1,,,,,,,,,0,,,52,0
35977,note_on,,1,0,1,,,,,,,,,0,,,44,0
35980,control_change,,3,0,1,,,,,,,,,0,64,0,,
35999,note_on,,19,0,1,,,,,,,,,0,,,73,0
36000,note_on,,1,0,1,,,,,,,,,0,,,85,126
36032,note_on,,32,0,1,,,,,,,,,0,,,80,127
36033,note_on,,1,0,1,,,,,,,,,0,,,68,124
36037,control_change,,4,0,1,,,,,,,,,0,64,127,,
36055,note_on,,18,0,1,,,,,,,,,0,,,68,0
36057,note_on,,2,0,1,,,,,,,,,0,,,80,0
36060,note_on,,3,0,1,,,,,,,,,0,,,81,106
36060,note_on,,0,0,1,,,,,,,,,0,,,67,93
36060,note_on,,0,0,1,,,,,,,,,0,,,85,0
36079,note_on,,19,0,1,,,,,,,,,0,,,67,0
36083,note_on,,4,0,1,,,,,,,,,0,,,81,0
36085,note_on,,2,0,1,,,,,,,,,0,,,80,108
36085,note_on,,0,0,1,,,,,,,,,0,,,68,94
36100,control_change,,15,0,1,,,,,,,,,0,64,0,,
36105,note_on,,5,0,1,,,,,,,,,0,,,80,0
36106,note_on,,1,0,1,,,,,,,,,0,,,68,0
36110,note_on,,4,0,1,,,,,,,,,0,,,56,95
36111,note_on,,1,0,1,,,,,,,,,0,,,88,99
36140,note_on,,29,0,1,,,,,,,,,0,,,67,124
36141,note_on,,1,0,1,,,,,,,,,0,,,79,127
36146,control_change,,5,0,1,,,,,,,,,0,64,127,,
36165,note_on,,19,0,1,,,,,,,,,0,,,66,107
36166,note_on,,1,0,1,,,,,,,,,0,,,80,111
36167,note_on,,1,0,1,,,,,,,,,0,,,67,0
36169,note_on,,2,0,1,,,,,,,,,0,,,79,0
36170,note_on,,1,0,1,,,,,,,,,0,,,56,0
36171,note_on,,1,0,1,,,,,,,,,0,,,88,0
36189,note_on,,18,0,1,,,,,,,,,0,,,66,0
36189,note_on,,0,0,1,,,,,,,,,0,,,80,0
36191,note_on,,2,0,1,,,,,,,,,0,,,67,106
36192,note_on,,1,0,1,,,,,,,,,0,,,79,95
36205,control_change,,13,0,1,,,,,,,,,0,64,0,,
36209,note_on,,4,0,1,,,,,,,,,0,,,67,0
36216,note_on,,7,0,1,,,,,,,,,0,,,56,102
36216,note_on,,0,0,1,,,,,,,,,0,,,88,87
36217,note_on,,1,0,1,,,,,,,,,0,,,79,0
36245,note_on,,28,0,1,,,,,,,,,0,,,66,126
36246,note_on,,1,0,1,,,,,,,,,0,,,78,127
36250,control_change,,4,0,1,,,,,,,,,0,64,127,,
36269,note_on,,19,0,1,,,,,,,,,0,,,66,0
36271,note_on,,0,0,1,,,,,,,,,0,,,80,104
36271,note_on,,2,0,1,,,,,,,,,0,,,65,103
36276,note_on,,5,0,1,,,,,,,,,0,,,56,0
36276,note_on,,0,0,1,,,,,,,,,0,,,88,0
36279,note_on,,3,0,1,,,,,,,,,0,,,78,0
36297,note_on,,18,0,1,,,,,,,,,0,,,78,106
36297,note_on,,0,0,1,,,,,,,,,0,,,65,0
36298,note_on,,1,0,1,,,,,,,,,0,,,66,104
36298,note_on,,0,0,1,,,,,,,,,0,,,80,0
36308,control_change,,10,0,1,,,,,,,,,0,64,0,,
36324,note_on,,16,0,1,,,,,,,,,0,,,66,0
36324,note_on,,0,0,1,,,,,,,,,0,,,78,0
36326,note_on,,0,0,1,,,,,,,,,0,,,56,99
36326,note_on,,2,0,1,,,,,,,,,0,,,87,101
36355,note_on,,29,0,1,,,,,,,,,0,,,65,118
36355,note_on,,0,0,1,,,,,,,,,0,,,77,127
36361,control_change,,6,0,1,,,,,,,,,0,64,127,,
36381,note_on,,20,0,1,,,,,,,,,0,,,64,103
36382,note_on,,0,0,1,,,,,,,,,0,,,65,0
36382,note_on,,1,0,1,,,,,,,,,0,,,78,111
36386,note_on,,4,0,1,,,,,,,,,0,,,87,0
36386,note_on,,0,0,1,,,,,,,,,0,,,56,0
36387,note_on,,1,0,1,,,,,,,,,0,,,77,0
36409,note_on,,22,0,1,,,,,,,,,0,,,64,0
36410,note_on,,0,0,1,,,,,,,,,0,,,78,0
36410,note_on,,1,0,1,,,,,,,,,0,,,77,109
36411,note_on,,1,0,1,,,,,,,,,0,,,65,106
36417,control_change,,6,0,1,,,,,,,,,0,64,0,,
36429,note_on,,12,0,1,,,,,,,,,0,,,65,0
36431,note_on,,2,0,1,,,,,,,,,0,,,77,0
36435,note_on,,4,0,1,,,,,,,,,0,,,56,94
36436,note_on,,1,0,1,,,,,,,,,0,,,86,85
36465,note_on,,29,0,1,,,,,,,,,0,,,76,124
36465,note_on,,0,0,1,,,,,,,,,0,,,64,127
36470,control_change,,5,0,1,,,,,,,,,0,64,127,,
36488,note_on,,18,0,1,,,,,,,,,0,,,63,116
36490,note_on,,2,0,1,,,,,,,,,0,,,78,100
36495,note_on,,5,0,1,,,,,,,,,0,,,64,0
36502,note_on,,7,0,1,,,,,,,,,0,,,76,0
36514,note_on,,12,0,1,,,,,,,,,0,,,86,0
36516,note_on,,2,0,1,,,,,,,,,0,,,78,0
36517,note_on,,0,0,1,,,,,,,,,0,,,63,0
36517,note_on,,1,0,1,,,,,,,,,0,,,64,110
36518,note_on,,1,0,1,,,,,,,,,0,,,76,100
36525,control_change,,7,0,1,,,,,,,,,0,64,0,,
36525,note_on,,0,0,1,,,,,,,,,0,,,56,0
36545,note_on,,20,0,1,,,,,,,,,0,,,85,108
36546,note_on,,1,0,1,,,,,,,,,0,,,56,101
36547,note_on,,1,0,1,,,,,,,,,0,,,64,0
36548,note_on,,1,0,1,,,,,,,,,0,,,76,0
36570,note_on,,22,0,1,,,,,,,,,0,,,63,122
36571,note_on,,1,0,1,,,,,,,,,0,,,75,125
36572,control_change,,1,0,1,,,,,,,,,0,64,127,,
36591,note_on,,19,0,1,,,,,,,,,0,,,63,0
36596,note_on,,5,0,1,,,,,,,,,0,,,62,104
36596,note_on,,0,0,1,,,,,,,,,0,,,75,0
36597,note_on,,1,0,1,,,,,,,,,0,,,76,102
36605,note_on,,8,0,1,,,,,,,,,0,,,85,0
36606,note_on,,1,0,1,,,,,,,,,0,,,56,0
36620,note_on,,0,0,1,,,,,,,,,0,,,75,92
36620,note_on,,14,0,1,,,,,,,,,0,,,63,106
36623,note_on,,3,0,1,,,,,,,,,0,,,62,0
36627,note_on,,4,0,1,,,,,,,,,0,,,76,0
36630,control_change,,3,0,1,,,,,,,,,0,64,0,,
36648,note_on,,18,0,1,,,,,,,,,0,,,75,0
36649,note_on,,1,0,1,,,,,,,,,0,,,56,99
36649,note_on,,0,0,1,,,,,,,,,0,,,84,101
36649,note_on,,0,0,1,,,,,,,,,0,,,63,0
36675,note_on,,0,0,1,,,,,,,,,0,,,74,120
36675,note_on,,26,0,1,,,,,,,,,0,,,62,110
36683,control_change,,8,0,1,,,,,,,,,0,64,127,,
36701,note_on,,0,0,1,,,,,,,,,0,,,61,111
36701,note_on,,18,0,1,,,,,,,,,0,,,75,112
36702,note_on,,1,0,1,,,,,,,,,0,,,62,0
36705,note_on,,3,0,1,,,,,,,,,0,,,74,0
36709,note_on,,4,0,1,,,,,,,,,0,,,56,0
36709,note_on,,0,0,1,,,,,,,,,0,,,84,0
36727,note_on,,18,0,1,,,,,,,,,0,,,74,104
36727,note_on,,0,0,1,,,,,,,,,0,,,75,0
36728,note_on,,1,0,1,,,,,,,,,0,,,62,101
36732,note_on,,4,0,1,,,,,,,,,0,,,61,0
36740,control_change,,8,0,1,,,,,,,,,0,64,0,,
36754,note_on,,14,0,1,,,,,,,,,0,,,74,0
36756,note_on,,0,0,1,,,,,,,,,0,,,83,96
36756,note_on,,2,0,1,,,,,,,,,0,,,56,83
36760,note_on,,4,0,1,,,,,,,,,0,,,62,0
36783,note_on,,23,0,1,,,,,,,,,0,,,73,125
36783,note_on,,0,0,1,,,,,,,,,0,,,61,119
36788,control_change,,5,0,1,,,,,,,,,0,64,127,,
36801,note_on,,13,0,1,,,,,,,,,0,,,61,0
36805,note_on,,4,0,1,,,,,,,,,0,,,60,98
36808,note_on,,3,0,1,,,,,,,,,0,,,74,110
36809,note_on,,1,0,1,,,,,,,,,0,,,73,0
36816,note_on,,7,0,1,,,,,,,,,0,,,56,0
36816,note_on,,0,0,1,,,,,,,,,0,,,83,0
36824,note_on,,8,0,1,,,,,,,,,0,,,60,0
36830,note_on,,6,0,1,,,,,,,,,0,,,61,102
36833,note_on,,3,0,1,,,,,,,,,0,,,73,114
36836,note_on,,3,0,1,,,,,,,,,0,,,74,0
36859,note_on,,23,0,1,,,,,,,,,0,,,73,0
36860,note_on,,1,0,1,,,,,,,,,0,,,82,98
36860,note_on,,0,0,1,,,,,,,,,0,,,44,117
36860,note_on,,0,0,1,,,,,,,,,0,,,61,0
36870,control_change,,10,0,1,,,,,,,,,0,64,0,,
36890,note_on,,20,0,1,,,,,,,,,0,,,60,98
36890,note_on,,0,0,1,,,,,,,,,0,,,72,123
36895,control_change,,5,0,1,,,,,,,,,0,64,127,,
36908,note_on,,13,0,1,,,,,,,,,0,,,60,0
36912,note_on,,4,0,1,,,,,,,,,0,,,59,91
36915,note_on,,3,0,1,,,,,,,,,0,,,73,112
36920,note_on,,5,0,1,,,,,,,,,0,,,82,0
36920,note_on,,0,0,1,,,,,,,,,0,,,44,0
36921,note_on,,1,0,1,,,,,,,,,0,,,72,0
36935,note_on,,14,0,1,,,,,,,,,0,,,59,0
36940,note_on,,5,0,1,,,,,,,,,0,,,60,98
36942,note_on,,2,0,1,,,,,,,,,0,,,72,112
36945,note_on,,3,0,1,,,,,,,,,0,,,73,0
36953,note_on,,8,0,1,,,,,,,,,0,,,60,0
36957,control_change,,4,0,1,,,,,,,,,0,64,0,,
36965,note_on,,8,0,1,,,,,,,,,0,,,81,102
36965,note_on,,0,0,1,,,,,,,,,0,,,44,113
36967,note_on,,2,0,1,,,,,,,,,0,,,72,0
36995,note_on,,28,0,1,,,,,,,,,0,,,71,117
36995,note_on,,0,0,1,,,,,,,,,0,,,81,0
36996,note_on,,1,0,1,,,,,,,,,0,,,59,119
37003,control_change,,7,0,1,,,,,,,,,0,64,127,,
37017,note_on,,14,0,1,,,,,,,,,0,,,59,0
37020,note_on,,3,0,1,,,,,,,,,0,,,58,104
37022,note_on,,2,0,1,,,,,,,,,0,,,72,105
37025,note_on,,3,0,1,,,,,,,,,0,,,44,0
37026,note_on,,1,0,1,,,,,,,,,0,,,71,0
37042,note_on,,16,0,1,,,,,,,,,0,,,58,0
37045,note_on,,3,0,1,,,,,,,,,0,,,59,110
37048,note_on,,3,0,1,,,,,,,,,0,,,71,109
37049,note_on,,1,0,1,,,,,,,,,0,,,72,0
37070,note_on,,21,0,1,,,,,,,,,0,,,80,109
37071,note_on,,1,0,1,,,,,,,,,0,,,71,0
37072,note_on,,1,0,1,,,,,,,,,0,,,44,92
37075,note_on,,3,0,1,,,,,,,,,0,,,59,0
37083,control_change,,8,0,1,,,,,,,,,0,64,0,,
37100,note_on,,0,0,1,,,,,,,,,0,,,80,0
37100,note_on,,17,0,1,,,,,,,,,0,,,58,121
37101,note_on,,1,0,1,,,,,,,,,0,,,70,125
37108,control_change,,7,0,1,,,,,,,,,0,64,127,,
37120,note_on,,12,0,1,,,,,,,,,0,,,58,0
37125,note_on,,0,0,1,,,,,,,,,0,,,57,101
37125,note_on,,5,0,1,,,,,,,,,0,,,71,106
37128,note_on,,3,0,1,,,,,,,,,0,,,70,0
37132,note_on,,4,0,1,,,,,,,,,0,,,44,0
37140,note_on,,8,0,1,,,,,,,,,0,,,57,0
37149,note_on,,9,0,1,,,,,,,,,0,,,58,95
37150,note_on,,1,0,1,,,,,,,,,0,,,70,106
37152,note_on,,2,0,1,,,,,,,,,0,,,71,0
37166,note_on,,14,0,1,,,,,,,,,0,,,58,0
37175,note_on,,9,0,1,,,,,,,,,0,,,79,99
37176,note_on,,1,0,1,,,,,,,,,0,,,44,119
37176,note_on,,0,0,1,,,,,,,,,0,,,70,0
37190,control_change,,14,0,1,,,,,,,,,0,64,0,,
37202,note_on,,12,0,1,,,,,,,,,0,,,57,114
37203,note_on,,1,0,1,,,,,,,,,0,,,69,118
37205,note_on,,2,0,1,,,,,,,,,0,,,79,0
37229,note_on,,24,0,1,,,,,,,,,0,,,57,0
37230,note_on,,1,0,1,,,,,,,,,0,,,70,118
37230,note_on,,0,0,1,,,,,,,,,0,,,56,113
37231,note_on,,1,0,1,,,,,,,,,0,,,69,0
37236,note_on,,5,0,1,,,,,,,,,0,,,44,0
37255,note_on,,0,0,1,,,,,,,,,0,,,70,0
37255,note_on,,0,0,1,,,,,,,,,0,,,56,0
37255,note_on,,0,0,1,,,,,,,,,0,,,69,116
37255,note_on,,19,0,1,,,,,,,,,0,,,57,116
37258,control_change,,3,0,1,,,,,,,,,0,64,127,,
37267,note_on,,9,0,1,,,,,,,,,0,,,57,0
37276,note_on,,9,0,1,,,,,,,,,0,,,69,0
37277,control_change,,1,0,1,,,,,,,,,0,64,0,,
37280,note_on,,3,0,1,,,,,,,,,0,,,78,101
37280,note_on,,0,0,1,,,,,,,,,0,,,44,116
37308,note_on,,28,0,1,,,,,,,,,0,,,68,127
37308,note_on,,0,0,1,,,,,,,,,0,,,56,124
37310,note_on,,2,0,1,,,,,,,,,0,,,78,0
37313,control_change,,3,0,1,,,,,,,,,0,64,127,,
37328,note_on,,15,0,1,,,,,,,,,0,,,56,0
37330,note_on,,2,0,1,,,,,,,,,0,,,55,105
37332,note_on,,2,0,1,,,,,,,,,0,,,69,108
37332,note_on,,0,0,1,,,,,,,,,0,,,68,0
37340,note_on,,8,0,1,,,,,,,,,0,,,44,0
37346,note_on,,6,0,1,,,,,,,,,0,,,55,0
37348,note_on,,2,0,1,,,,,,,,,0,,,69,0
37355,note_on,,7,0,1,,,,,,,,,0,,,68,98
37356,note_on,,1,0,1,,,,,,,,,0,,,56,88
37380,control_change,,24,0,1,,,,,,,,,0,64,0,,
37380,note_on,,0,0,1,,,,,,,,,0,,,44,116
37381,note_on,,1,0,1,,,,,,,,,0,,,77,114
37383,note_on,,2,0,1,,,,,,,,,0,,,56,0
37388,note_on,,5,0,1,,,,,,,,,0,,,68,0
37410,note_on,,22,0,1,,,,,,,,,0,,,67,119
37410,note_on,,0,0,1,,,,,,,,,0,,,55,117
37411,note_on,,1,0,1,,,,,,,,,0,,,77,0
37421,control_change,,10,0,1,,,,,,,,,0,64,127,,
37431,control_change,,10,0,1,,,,,,,,,0,64,0,,
37435,note_on,,4,0,1,,,,,,,,,0,,,68,120
37435,note_on,,0,0,1,,,,,,,,,0,,,55,0
37436,note_on,,1,0,1,,,,,,,,,0,,,54,111
37440,note_on,,4,0,1,,,,,,,,,0,,,44,0
37440,note_on,,0,0,1,,,,,,,,,0,,,67,0
37442,end_of_track,,0,1,0,,,,,,,,,,,,,
37442,set_tempo,,12966,1,0,,,,,,500000,,,,,,,
37460,note_on,,20,0,1,,,,,,,,,0,,,67,110
37461,note_on,,1,0,1,,,,,,,,,0,,,55,114
37462,note_on,,1,0,1,,,,,,,,,0,,,54,0
37465,note_on,,3,0,1,,,,,,,,,0,,,68,0
37481,note_on,,16,0,1,,,,,,,,,0,,,55,0
37483,note_on,,2,0,1,,,,,,,,,0,,,67,0
37485,note_on,,2,0,1,,,,,,,,,0,,,44,114
37485,note_on,,0,0,1,,,,,,,,,0,,,76,91
37513,note_on,,0,0,1,,,,,,,,,0,,,54,126
37513,note_on,,28,0,1,,,,,,,,,0,,,66,127
37515,note_on,,0,0,1,,,,,,,,,0,,,44,0
37515,note_on,,2,0,1,,,,,,,,,0,,,76,0
37520,control_change,,5,0,1,,,,,,,,,0,64,127,,
37535,note_on,,15,0,1,,,,,,,,,0,,,53,118
37536,note_on,,1,0,1,,,,,,,,,0,,,54,0
37538,note_on,,2,0,1,,,,,,,,,0,,,68,106
37543,note_on,,5,0,1,,,,,,,,,0,,,66,0
37563,note_on,,20,0,1,,,,,,,,,0,,,54,121
37563,note_on,,0,0,1,,,,,,,,,0,,,66,122
37565,note_on,,2,0,1,,,,,,,,,0,,,53,0
37567,note_on,,2,0,1,,,,,,,,,0,,,68,0
37571,control_change,,4,0,1,,,,,,,,,0,64,0,,
37585,note_on,,14,0,1,,,,,,,,,0,,,44,102
37586,note_on,,1,0,1,,,,,,,,,0,,,54,0
37588,note_on,,2,0,1,,,,,,,,,0,,,75,107
37593,note_on,,5,0,1,,,,,,,,,0,,,66,0
37615,note_on,,22,0,1,,,,,,,,,0,,,44,0
37617,note_on,,2,0,1,,,,,,,,,0,,,37,112
37618,note_on,,1,0,1,,,,,,,,,0,,,75,0
37620,note_on,,2,0,1,,,,,,,,,0,,,64,118
37622,note_on,,2,0,1,,,,,,,,,0,,,73,101
37628,control_change,,6,0,1,,,,,,,,,0,64,127,,
37628,note_on,,0,0,1,,,,,,,,,0,,,44,100
37638,note_on,,10,0,1,,,,,,,,,0,,,52,103
37647,note_on,,9,0,1,,,,,,,,,0,,,37,0
37650,note_on,,3,0,1,,,,,,,,,0,,,64,0
37652,note_on,,2,0,1,,,,,,,,,0,,,73,0
37658,note_on,,6,0,1,,,,,,,,,0,,,44,0
37668,note_on,,10,0,1,,,,,,,,,0,,,52,0
37675,note_on,,7,0,1,,,,,,,,,0,,,56,121
37700,note_on,,25,0,1,,,,,,,,,0,,,64,115
37703,note_on,,3,0,1,,,,,,,,,0,,,56,0
37722,control_change,,19,0,1,,,,,,,,,0,64,0,,
37723,note_on,,1,0,1,,,,,,,,,0,,,61,116
37730,note_on,,7,0,1,,,,,,,,,0,,,64,0
37735,control_change,,5,0,1,,,,,,,,,0,64,127,,
37738,note_on,,3,0,1,,,,,,,,,0,,,61,0
37750,note_on,,12,0,1,,,,,,,,,0,,,61,106
37770,note_on,,20,0,1,,,,,,,,,0,,,68,108
37780,note_on,,10,0,1,,,,,,,,,0,,,61,0
37796,note_on,,16,0,1,,,,,,,,,0,,,76,110
37800,note_on,,4,0,1,,,,,,,,,0,,,68,0
37820,note_on,,20,0,1,,,,,,,,,0,,,73,111
37823,control_change,,3,0,1,,,,,,,,,0,64,0,,
37828,note_on,,5,0,1,,,,,,,,,0,,,73,0
37833,control_change,,5,0,1,,,,,,,,,0,64,127,,
37843,note_on,,10,0,1,,,,,,,,,0,,,73,116
37848,note_on,,5,0,1,,,,,,,,,0,,,76,0
37867,note_on,,19,0,1,,,,,,,,,0,,,80,109
37873,note_on,,6,0,1,,,,,,,,,0,,,73,0
37893,note_on,,20,0,1,,,,,,,,,0,,,88,104
37904,note_on,,11,0,1,,,,,,,,,0,,,80,0
37916,note_on,,12,0,1,,,,,,,,,0,,,85,116
37919,note_on,,3,0,1,,,,,,,,,0,,,85,0
37921,control_change,,2,0,1,,,,,,,,,0,64,0,,
37931,control_change,,10,0,1,,,,,,,,,0,64,127,,
37941,note_on,,10,0,1,,,,,,,,,0,,,85,119
37959,note_on,,18,0,1,,,,,,,,,0,,,85,0
37965,note_on,,6,0,1,,,,,,,,,0,,,92,116
37983,note_on,,18,0,1,,,,,,,,,0,,,88,0
37987,note_on,,4,0,1,,,,,,,,,0,,,97,111
37991,note_on,,4,0,1,,,,,,,,,0,,,92,0
38008,note_on,,17,0,1,,,,,,,,,0,,,49,93
38011,control_change,,3,0,1,,,,,,,,,0,64,0,,
38012,note_on,,1,0,1,,,,,,,,,0,,,56,112
38017,note_on,,5,0,1,,,,,,,,,0,,,100,120
38017,note_on,,0,0,1,,,,,,,,,0,,,64,127
38023,control_change,,6,0,1,,,,,,,,,0,64,127,,
38024,note_on,,1,0,1,,,,,,,,,0,,,97,0
38043,note_on,,19,0,1,,,,,,,,,0,,,92,108
38068,note_on,,25,0,1,,,,,,,,,0,,,49,0
38070,note_on,,2,0,1,,,,,,,,,0,,,85,102
38072,note_on,,2,0,1,,,,,,,,,0,,,56,0
38077,note_on,,5,0,1,,,,,,,,,0,,,64,0
38077,note_on,,0,0,1,,,,,,,,,0,,,100,0
38077,note_on,,0,0,1,,,,,,,,,0,,,85,0
38092,note_on,,15,0,1,,,,,,,,,0,,,85,102
38103,note_on,,11,0,1,,,,,,,,,0,,,92,0
38105,control_change,,2,0,1,,,,,,,,,0,64,0,,
38116,note_on,,11,0,1,,,,,,,,,0,,,88,106
38122,note_on,,6,0,1,,,,,,,,,0,,,85,0
38125,control_change,,3,0,1,,,,,,,,,0,64,127,,
38141,note_on,,16,0,1,,,,,,,,,0,,,80,95
38165,note_on,,24,0,1,,,,,,,,,0,,,73,108
38172,note_on,,7,0,1,,,,,,,,,0,,,73,0
38176,note_on,,4,0,1,,,,,,,,,0,,,88,0
38185,note_on,,9,0,1,,,,,,,,,0,,,73,103
38201,note_on,,16,0,1,,,,,,,,,0,,,80,0
38210,note_on,,9,0,1,,,,,,,,,0,,,76,109
38215,note_on,,5,0,1,,,,,,,,,0,,,73,0
38235,note_on,,20,0,1,,,,,,,,,0,,,68,101
38260,note_on,,25,0,1,,,,,,,,,0,,,61,111
38266,note_on,,6,0,1,,,,,,,,,0,,,61,0
38270,note_on,,4,0,1,,,,,,,,,0,,,76,0
38285,note_on,,15,0,1,,,,,,,,,0,,,61,107
38295,note_on,,10,0,1,,,,,,,,,0,,,68,0
38307,note_on,,12,0,1,,,,,,,,,0,,,64,113
38315,note_on,,8,0,1,,,,,,,,,0,,,61,0
38334,note_on,,19,0,1,,,,,,,,,0,,,56,111
38360,note_on,,26,0,1,,,,,,,,,0,,,49,120
38367,note_on,,7,0,1,,,,,,,,,0,,,49,0
38367,note_on,,0,0,1,,,,,,,,,0,,,64,0
38385,note_on,,18,0,1,,,,,,,,,0,,,49,122
38393,note_on,,8,0,1,,,,,,,,,0,,,49,0
38394,note_on,,1,0,1,,,,,,,,,0,,,56,0
38420,note_on,,0,0,1,,,,,,,,,0,,,37,126
38420,note_on,,26,0,1,,,,,,,,,0,,,49,127
38425,control_change,,5,0,1,,,,,,,,,0,64,0,,
38440,control_change,,15,0,1,,,,,,,,,0,64,127,,
38488,note_on,,48,0,1,,,,,,,,,0,,,37,0
38495,control_change,,7,0,1,,,,,,,,,0,64,0,,
38495,note_on,,0,0,1,,,,,,,,,0,,,49,0
38550,note_on,,0,0,1,,,,,,,,,0,,,73,127
38550,note_on,,0,0,1,,,,,,,,,0,,,56,127
38550,note_on,,55,0,1,,,,,,,,,0,,,80,127
38550,note_on,,0,0,1,,,,,,,,,0,,,76,127
38550,note_on,,0,0,1,,,,,,,,,0,,,64,127
38550,note_on,,0,0,1,,,,,,,,,0,,,49,127
38552,note_on,,2,0,1,,,,,,,,,0,,,85,127
38555,control_change,,3,0,1,,,,,,,,,0,64,127,,
38647,control_change,,92,0,1,,,,,,,,,0,64,0,,
38670,note_on,,0,0,1,,,,,,,,,0,,,49,0
38670,note_on,,0,0,1,,,,,,,,,0,,,73,0
38670,note_on,,23,0,1,,,,,,,,,0,,,56,0
38670,note_on,,0,0,1,,,,,,,,,0,,,80,0
38670,note_on,,0,0,1,,,,,,,,,0,,,64,0
38670,note_on,,0,0,1,,,,,,,,,0,,,76,0
38672,note_on,,2,0,1,,,,,,,,,0,,,85,0
38700,note_on,,28,0,1,,,,,,,,,0,,,61,127
38700,note_on,,0,0,1,,,,,,,,,0,,,37,127
38700,note_on,,0,0,1,,,,,,,,,0,,,49,127
38706,note_on,,6,0,1,,,,,,,,,0,,,49,0
38707,note_on,,1,0,1,,,,,,,,,0,,,37,0
38707,note_on,,0,0,1,,,,,,,,,0,,,61,0
38722,note_on,,15,0,1,,,,,,,,,0,,,49,127
38722,note_on,,0,0,1,,,,,,,,,0,,,61,127
38722,note_on,,0,0,1,,,,,,,,,0,,,37,127
38723,note_on,,1,0,1,,,,,,,,,0,,,25,127
38727,control_change,,4,0,1,,,,,,,,,0,64,127,,
38872,note_on,,145,0,1,,,,,,,,,0,,,61,0
38872,note_on,,0,0,1,,,,,,,,,0,,,37,0
38873,note_on,,1,0,1,,,,,,,,,0,,,25,0
38879,note_on,,6,0,1,,,,,,,,,0,,,49,0
38879,end_of_track,,0,1,1,,,,,,,,,,,,,
