tick,type,port,time,meta,track,data,numerator,denominator,clocks_per_click,notated_32nd_notes_per_beat,key,tempo,control,value,channel,program,note,velocity
0,midi_port,0,0,1,0,,,,,,,,,,,,,
0,midi_port,0,0,1,5,,,,,,,,,,,,,
0,end_of_track,,0,1,4,,,,,,,,,,,,,
0,track_name,,0,1,4,,,,,,,,,,,,,
0,midi_port,0,0,1,4,,,,,,,,,,,,,
0,end_of_track,,0,1,3,,,,,,,,,,,,,
0,track_name,,0,1,3,,,,,,,,,,,,,
0,midi_port,0,0,1,3,,,,,,,,,,,,,
0,end_of_track,,0,1,2,,,,,,,,,,,,,
0,track_name,,0,1,2,,,,,,,,,,,,,
0,midi_port,0,0,1,2,,,,,,,,,,,,,
0,track_name,,0,1,5,,,,,,,,,,,,,
0,track_name,,0,1,1,,,,,,,,,,,,,
0,midi_port,0,0,1,1,,,,,,,,,,,,,
0,end_of_track,,0,1,5,,,,,,,,,,,,,
0,midi_port,0,0,1,0,,,,,,,,,,,,,
0,sysex,,0,0,0,"(65, 16, 66, 18, 64, 0, 127, 0, 65)",,,,,,,,,,,,
0,sysex,,0,0,0,"(65, 16, 66, 18, 64, 1, 48, 3, 12)",,,,,,,,,,,,
0,time_signature,,0,1,0,,3,4,24,8,,,,,,,,
0,key_signature,,0,1,0,,,,,,Eb,,,,,,,
0,set_tempo,,0,1,0,,,,,,,300000,,,,,,
0,marker,,0,1,0,,,,,,,,,,,,,
0,midi_port,0,0,1,0,,,,,,,,,,,,,
119,control_change,,119,0,1,,,,,,,,93,20,0,,,
119,control_change,,0,0,1,,,,,,,,0,0,0,,,
119,control_change,,0,0,1,,,,,,,,91,64,0,,,
122,control_change,,3,0,1,,,,,,,,0,0,0,,,
122,program_change,,0,0,1,,,,,,,,,,0,0,,
123,control_change,,1,0,1,,,,,,,,7,127,0,,,
300,control_change,,177,0,1,,,,,,,,64,127,0,,,
1018,set_tempo,,1018,1,0,,,,,,,1052632,,,,,,
1021,note_on,,721,0,1,,,,,,,,,,0,,82,56
1034,note_on,,13,0,1,,,,,,,,,,0,,82,0
1058,note_on,,24,0,1,,,,,,,,,,0,,70,36
1067,note_on,,9,0,1,,,,,,,,,,0,,79,41
1069,note_on,,2,0,1,,,,,,,,,,0,,70,0
1077,note_on,,8,0,1,,,,,,,,,,0,,79,0
1078,note_on,,1,0,1,,,,,,,,,,0,,39,53
1080,note_on,,2,0,1,,,,,,,,,,0,,87,56
1082,set_tempo,,64,1,0,,,,,,,1224490,,,,,,
1084,note_on,,4,0,1,,,,,,,,,,0,,39,0
1085,note_on,,1,0,1,,,,,,,,,,0,,87,0
1121,note_on,,36,0,1,,,,,,,,,,0,,51,43
1123,set_tempo,,41,1,0,,,,,,,952381,,,,,,
1128,note_on,,7,0,1,,,,,,,,,,0,,70,40
1129,note_on,,1,0,1,,,,,,,,,,0,,58,46
1131,note_on,,2,0,1,,,,,,,,,,0,,51,0
1136,note_on,,5,0,1,,,,,,,,,,0,,79,46
1140,note_on,,4,0,1,,,,,,,,,,0,,67,47
1142,note_on,,2,0,1,,,,,,,,,,0,,82,50
1145,note_on,,3,0,1,,,,,,,,,,0,,58,0
1148,note_on,,3,0,1,,,,,,,,,,0,,70,0
1150,note_on,,2,0,1,,,,,,,,,,0,,67,0
1156,note_on,,6,0,1,,,,,,,,,,0,,79,0
1164,note_on,,8,0,1,,,,,,,,,,0,,82,0
1166,set_tempo,,43,1,0,,,,,,,909091,,,,,,
1181,note_on,,17,0,1,,,,,,,,,,0,,51,42
1183,note_on,,2,0,1,,,,,,,,,,0,,70,47
1188,note_on,,0,0,1,,,,,,,,,,0,,58,43
1188,note_on,,5,0,1,,,,,,,,,,0,,51,0
1189,note_on,,1,0,1,,,,,,,,,,0,,79,50
1197,note_on,,8,0,1,,,,,,,,,,0,,67,45
1201,note_on,,4,0,1,,,,,,,,,,0,,81,59
1202,note_on,,1,0,1,,,,,,,,,,0,,58,0
1205,note_on,,3,0,1,,,,,,,,,,0,,67,0
1210,note_on,,5,0,1,,,,,,,,,,0,,79,0
1212,note_on,,2,0,1,,,,,,,,,,0,,70,0
1220,note_on,,8,0,1,,,,,,,,,,0,,81,0
1241,note_on,,21,0,1,,,,,,,,,,0,,51,45
1242,note_on,,1,0,1,,,,,,,,,,0,,70,41
1250,note_on,,8,0,1,,,,,,,,,,0,,51,0
1250,note_on,,0,0,1,,,,,,,,,,0,,58,45
1253,note_on,,3,0,1,,,,,,,,,,0,,79,45
1255,note_on,,2,0,1,,,,,,,,,,0,,82,55
1258,note_on,,3,0,1,,,,,,,,,,0,,67,46
1263,set_tempo,,97,1,0,,,,,,,857143,,,,,,
1264,note_on,,0,0,1,,,,,,,,,,0,,70,0
1264,note_on,,6,0,1,,,,,,,,,,0,,58,0
1265,note_on,,1,0,1,,,,,,,,,,0,,79,0
1271,note_on,,6,0,1,,,,,,,,,,0,,67,0
1276,note_on,,5,0,1,,,,,,,,,,0,,82,0
1295,note_on,,19,0,1,,,,,,,,,,0,,51,47
1297,note_on,,2,0,1,,,,,,,,,,0,,70,40
1305,note_on,,8,0,1,,,,,,,,,,0,,58,48
1307,note_on,,2,0,1,,,,,,,,,,0,,51,0
1309,note_on,,2,0,1,,,,,,,,,,0,,79,46
1315,note_on,,6,0,1,,,,,,,,,,0,,67,50
1319,note_on,,4,0,1,,,,,,,,,,0,,70,0
1320,note_on,,1,0,1,,,,,,,,,,0,,84,59
1325,note_on,,0,0,1,,,,,,,,,,0,,67,0
1325,note_on,,5,0,1,,,,,,,,,,0,,58,0
1328,note_on,,3,0,1,,,,,,,,,,0,,79,0
1336,note_on,,8,0,1,,,,,,,,,,0,,84,0
1355,note_on,,19,0,1,,,,,,,,,,0,,51,48
1360,note_on,,5,0,1,,,,,,,,,,0,,70,40
1365,note_on,,5,0,1,,,,,,,,,,0,,58,51
1367,note_on,,2,0,1,,,,,,,,,,0,,51,0
1370,note_on,,3,0,1,,,,,,,,,,0,,79,47
1376,note_on,,6,0,1,,,,,,,,,,0,,67,53
1378,note_on,,2,0,1,,,,,,,,,,0,,82,57
1385,note_on,,7,0,1,,,,,,,,,,0,,79,0
1385,note_on,,0,0,1,,,,,,,,,,0,,70,0
1386,note_on,,1,0,1,,,,,,,,,,0,,58,0
1390,note_on,,4,0,1,,,,,,,,,,0,,67,0
1396,note_on,,6,0,1,,,,,,,,,,0,,82,0
1412,note_on,,16,0,1,,,,,,,,,,0,,70,45
1412,control_change,,0,0,1,,,,,,,,64,0,0,,,
1418,note_on,,6,0,1,,,,,,,,,,0,,50,42
1423,note_on,,5,0,1,,,,,,,,,,0,,80,48
1425,note_on,,2,0,1,,,,,,,,,,0,,70,0
1426,control_change,,1,0,1,,,,,,,,64,127,0,,,
1427,note_on,,1,0,1,,,,,,,,,,0,,50,0
1428,note_on,,1,0,1,,,,,,,,,,0,,58,42
1436,note_on,,8,0,1,,,,,,,,,,0,,80,0
1440,note_on,,4,0,1,,,,,,,,,,0,,89,61
1440,note_on,,0,0,1,,,,,,,,,,0,,68,47
1445,note_on,,5,0,1,,,,,,,,,,0,,68,0
1446,note_on,,1,0,1,,,,,,,,,,0,,58,0
1449,note_on,,3,0,1,,,,,,,,,,0,,89,0
1478,note_on,,29,0,1,,,,,,,,,,0,,50,41
1482,note_on,,4,0,1,,,,,,,,,,0,,70,35
1485,note_on,,3,0,1,,,,,,,,,,0,,50,0
1485,note_on,,0,0,1,,,,,,,,,,0,,58,42
1490,note_on,,5,0,1,,,,,,,,,,0,,80,43
1498,note_on,,8,0,1,,,,,,,,,,0,,82,58
1498,note_on,,0,0,1,,,,,,,,,,0,,68,43
1504,note_on,,6,0,1,,,,,,,,,,0,,58,0
1505,note_on,,1,0,1,,,,,,,,,,0,,68,0
1506,note_on,,1,0,1,,,,,,,,,,0,,70,0
1519,note_on,,13,0,1,,,,,,,,,,0,,80,0
1524,note_on,,5,0,1,,,,,,,,,,0,,82,0
1537,note_on,,13,0,1,,,,,,,,,,0,,50,47
1538,note_on,,1,0,1,,,,,,,,,,0,,70,43
1542,note_on,,4,0,1,,,,,,,,,,0,,50,0
1544,note_on,,2,0,1,,,,,,,,,,0,,58,50
1546,note_on,,2,0,1,,,,,,,,,,0,,80,48
1557,note_on,,11,0,1,,,,,,,,,,0,,81,58
1557,note_on,,0,0,1,,,,,,,,,,0,,68,51
1564,note_on,,7,0,1,,,,,,,,,,0,,70,0
1565,note_on,,1,0,1,,,,,,,,,,0,,68,0
1566,note_on,,1,0,1,,,,,,,,,,0,,58,0
1572,note_on,,6,0,1,,,,,,,,,,0,,80,0
1580,note_on,,8,0,1,,,,,,,,,,0,,81,0
1597,note_on,,17,0,1,,,,,,,,,,0,,70,43
1598,note_on,,1,0,1,,,,,,,,,,0,,50,46
1606,note_on,,8,0,1,,,,,,,,,,0,,80,47
1607,note_on,,1,0,1,,,,,,,,,,0,,58,48
1609,note_on,,2,0,1,,,,,,,,,,0,,50,0
1618,note_on,,9,0,1,,,,,,,,,,0,,82,59
1619,note_on,,1,0,1,,,,,,,,,,0,,68,50
1625,note_on,,6,0,1,,,,,,,,,,0,,68,0
1626,note_on,,1,0,1,,,,,,,,,,0,,70,0
1629,note_on,,3,0,1,,,,,,,,,,0,,58,0
1630,note_on,,1,0,1,,,,,,,,,,0,,80,0
1640,note_on,,10,0,1,,,,,,,,,,0,,82,0
1654,note_on,,14,0,1,,,,,,,,,,0,,70,41
1659,note_on,,5,0,1,,,,,,,,,,0,,50,47
1665,note_on,,6,0,1,,,,,,,,,,0,,58,50
1666,note_on,,1,0,1,,,,,,,,,,0,,50,0
1668,note_on,,2,0,1,,,,,,,,,,0,,80,47
1675,note_on,,7,0,1,,,,,,,,,,0,,70,0
1678,note_on,,3,0,1,,,,,,,,,,0,,84,57
1682,note_on,,4,0,1,,,,,,,,,,0,,68,55
1690,note_on,,8,0,1,,,,,,,,,,0,,68,0
1691,note_on,,1,0,1,,,,,,,,,,0,,80,0
1698,note_on,,7,0,1,,,,,,,,,,0,,84,0
1700,note_on,,2,0,1,,,,,,,,,,0,,58,0
1714,note_on,,14,0,1,,,,,,,,,,0,,70,42
1718,note_on,,4,0,1,,,,,,,,,,0,,50,55
1727,note_on,,9,0,1,,,,,,,,,,0,,58,55
1728,note_on,,1,0,1,,,,,,,,,,0,,80,50
1731,note_on,,3,0,1,,,,,,,,,,0,,50,0
1732,set_tempo,,469,1,0,,,,,,,895522,,,,,,
1738,note_on,,7,0,1,,,,,,,,,,0,,82,57
1741,note_on,,3,0,1,,,,,,,,,,0,,68,59
1742,note_on,,1,0,1,,,,,,,,,,0,,70,0
1748,note_on,,6,0,1,,,,,,,,,,0,,68,0
1751,note_on,,3,0,1,,,,,,,,,,0,,80,0
1752,note_on,,1,0,1,,,,,,,,,,0,,58,0
1754,set_tempo,,22,1,0,,,,,,,909091,,,,,,
1755,note_on,,3,0,1,,,,,,,,,,0,,82,0
1766,note_on,,11,0,1,,,,,,,,,,0,,70,40
1775,control_change,,9,0,1,,,,,,,,64,0,0,,,
1776,set_tempo,,22,1,0,,,,,,,923077,,,,,,
1777,note_on,,2,0,1,,,,,,,,,,0,,79,47
1777,note_on,,0,0,1,,,,,,,,,,0,,51,46
1780,note_on,,3,0,1,,,,,,,,,,0,,70,0
1785,note_on,,5,0,1,,,,,,,,,,0,,82,48
1787,note_on,,2,0,1,,,,,,,,,,0,,58,47
1788,control_change,,0,0,1,,,,,,,,64,127,0,,,
1788,note_on,,1,0,1,,,,,,,,,,0,,79,0
1791,note_on,,3,0,1,,,,,,,,,,0,,51,0
1793,note_on,,2,0,1,,,,,,,,,,0,,82,0
1799,note_on,,6,0,1,,,,,,,,,,0,,67,48
1800,note_on,,1,0,1,,,,,,,,,,0,,91,59
1808,note_on,,8,0,1,,,,,,,,,,0,,91,0
1809,note_on,,1,0,1,,,,,,,,,,0,,67,0
1813,note_on,,4,0,1,,,,,,,,,,0,,58,0
1837,note_on,,0,0,1,,,,,,,,,,0,,53,41
1837,control_change,,24,0,1,,,,,,,,64,0,0,,,
1841,note_on,,4,0,1,,,,,,,,,,0,,70,45
1847,control_change,,6,0,1,,,,,,,,64,127,0,,,
1847,note_on,,0,0,1,,,,,,,,,,0,,58,45
1849,note_on,,2,0,1,,,,,,,,,,0,,53,0
1850,note_on,,1,0,1,,,,,,,,,,0,,74,50
1854,note_on,,4,0,1,,,,,,,,,,0,,82,50
1855,note_on,,1,0,1,,,,,,,,,,0,,62,45
1861,note_on,,0,0,1,,,,,,,,,,0,,68,47
1861,note_on,,6,0,1,,,,,,,,,,0,,70,0
1863,note_on,,2,0,1,,,,,,,,,,0,,74,0
1863,note_on,,0,0,1,,,,,,,,,,0,,86,61
1864,note_on,,1,0,1,,,,,,,,,,0,,62,0
1869,note_on,,5,0,1,,,,,,,,,,0,,58,0
1872,note_on,,3,0,1,,,,,,,,,,0,,82,0
1875,note_on,,3,0,1,,,,,,,,,,0,,86,0
1877,note_on,,2,0,1,,,,,,,,,,0,,68,0
1893,control_change,,16,0,1,,,,,,,,64,0,0,,,
1895,note_on,,2,0,1,,,,,,,,,,0,,70,43
1901,note_on,,6,0,1,,,,,,,,,,0,,55,45
1904,control_change,,3,0,1,,,,,,,,64,127,0,,,
1907,note_on,,3,0,1,,,,,,,,,,0,,75,47
1907,note_on,,0,0,1,,,,,,,,,,0,,58,46
1914,note_on,,7,0,1,,,,,,,,,,0,,82,56
1915,note_on,,1,0,1,,,,,,,,,,0,,63,47
1916,note_on,,1,0,1,,,,,,,,,,0,,70,0
1920,note_on,,0,0,1,,,,,,,,,,0,,67,47
1920,note_on,,4,0,1,,,,,,,,,,0,,75,0
1921,note_on,,1,0,1,,,,,,,,,,0,,55,0
1921,note_on,,0,0,1,,,,,,,,,,0,,87,66
1926,note_on,,5,0,1,,,,,,,,,,0,,82,0
1928,note_on,,2,0,1,,,,,,,,,,0,,58,0
1929,note_on,,1,0,1,,,,,,,,,,0,,63,0
1931,note_on,,2,0,1,,,,,,,,,,0,,67,0
1933,note_on,,2,0,1,,,,,,,,,,0,,87,0
1960,note_on,,27,0,1,,,,,,,,,,0,,71,51
1960,set_tempo,,184,1,0,,,,,,,882353,,,,,,
1961,note_on,,1,0,1,,,,,,,,,,0,,43,53
1966,set_tempo,,6,1,0,,,,,,,869565,,,,,,
1969,note_on,,8,0,1,,,,,,,,,,0,,51,55
1970,note_on,,1,0,1,,,,,,,,,,0,,71,0
1970,note_on,,0,0,1,,,,,,,,,,0,,75,55
1971,note_on,,1,0,1,,,,,,,,,,0,,43,0
1978,note_on,,7,0,1,,,,,,,,,,0,,59,57
1981,note_on,,3,0,1,,,,,,,,,,0,,75,0
1983,note_on,,2,0,1,,,,,,,,,,0,,86,64
1984,note_on,,1,0,1,,,,,,,,,,0,,51,0
1988,note_on,,0,0,1,,,,,,,,,,0,,59,0
1988,note_on,,4,0,1,,,,,,,,,,0,,86,0
2019,control_change,,31,0,1,,,,,,,,64,0,0,,,
2022,note_on,,3,0,1,,,,,,,,,,0,,44,57
2025,note_on,,3,0,1,,,,,,,,,,0,,72,56
2029,note_on,,4,0,1,,,,,,,,,,0,,51,58
2030,note_on,,1,0,1,,,,,,,,,,0,,44,0
2030,control_change,,0,0,1,,,,,,,,64,127,0,,,
2032,note_on,,2,0,1,,,,,,,,,,0,,75,58
2037,note_on,,5,0,1,,,,,,,,,,0,,60,61
2040,note_on,,3,0,1,,,,,,,,,,0,,51,0
2043,note_on,,3,0,1,,,,,,,,,,0,,60,0
2045,note_on,,2,0,1,,,,,,,,,,0,,84,71
2054,note_on,,9,0,1,,,,,,,,,,0,,72,0
2057,note_on,,3,0,1,,,,,,,,,,0,,75,0
2064,note_on,,7,0,1,,,,,,,,,,0,,84,0
2075,note_on,,11,0,1,,,,,,,,,,0,,45,57
2080,control_change,,5,0,1,,,,,,,,64,0,0,,,
2082,note_on,,2,0,1,,,,,,,,,,0,,53,59
2083,note_on,,1,0,1,,,,,,,,,,0,,72,57
2086,note_on,,3,0,1,,,,,,,,,,0,,45,0
2089,control_change,,3,0,1,,,,,,,,64,127,0,,,
2091,note_on,,2,0,1,,,,,,,,,,0,,77,61
2097,note_on,,6,0,1,,,,,,,,,,0,,53,0
2098,note_on,,1,0,1,,,,,,,,,,0,,63,63
2100,note_on,,2,0,1,,,,,,,,,,0,,72,0
2104,note_on,,4,0,1,,,,,,,,,,0,,63,0
2104,note_on,,0,0,1,,,,,,,,,,0,,89,72
2108,note_on,,4,0,1,,,,,,,,,,0,,77,0
2116,note_on,,8,0,1,,,,,,,,,,0,,89,0
2137,note_on,,21,0,1,,,,,,,,,,0,,46,59
2144,note_on,,7,0,1,,,,,,,,,,0,,51,61
2145,note_on,,1,0,1,,,,,,,,,,0,,70,53
2145,control_change,,0,0,1,,,,,,,,64,0,0,,,
2151,note_on,,6,0,1,,,,,,,,,,0,,46,0
2152,control_change,,1,0,1,,,,,,,,64,127,0,,,
2153,note_on,,1,0,1,,,,,,,,,,0,,55,63
2156,note_on,,3,0,1,,,,,,,,,,0,,70,0
2156,note_on,,0,0,1,,,,,,,,,,0,,79,61
2159,note_on,,3,0,1,,,,,,,,,,0,,51,0
2159,note_on,,0,0,1,,,,,,,,,,0,,63,64
2165,note_on,,6,0,1,,,,,,,,,,0,,79,0
2167,note_on,,2,0,1,,,,,,,,,,0,,87,77
2171,note_on,,4,0,1,,,,,,,,,,0,,55,0
2172,note_on,,1,0,1,,,,,,,,,,0,,63,0
2176,note_on,,4,0,1,,,,,,,,,,0,,87,0
2198,note_on,,22,0,1,,,,,,,,,,0,,46,58
2204,control_change,,6,0,1,,,,,,,,64,0,0,,,
2206,note_on,,2,0,1,,,,,,,,,,0,,54,58
2209,note_on,,3,0,1,,,,,,,,,,0,,72,48
2213,control_change,,4,0,1,,,,,,,,64,127,0,,,
2214,note_on,,0,0,1,,,,,,,,,,0,,78,48
2214,note_on,,1,0,1,,,,,,,,,,0,,46,0
2215,note_on,,1,0,1,,,,,,,,,,0,,72,0
2215,note_on,,0,0,1,,,,,,,,,,0,,57,59
2221,note_on,,6,0,1,,,,,,,,,,0,,54,0
2221,note_on,,0,0,1,,,,,,,,,,0,,81,52
2223,note_on,,2,0,1,,,,,,,,,,0,,63,61
2227,note_on,,4,0,1,,,,,,,,,,0,,78,0
2228,note_on,,1,0,1,,,,,,,,,,0,,87,71
2230,note_on,,2,0,1,,,,,,,,,,0,,81,0
2231,note_on,,1,0,1,,,,,,,,,,0,,57,0
2234,note_on,,3,0,1,,,,,,,,,,0,,63,0
2240,note_on,,6,0,1,,,,,,,,,,0,,87,0
2257,note_on,,17,0,1,,,,,,,,,,0,,46,61
2266,note_on,,9,0,1,,,,,,,,,,0,,53,61
2267,control_change,,1,0,1,,,,,,,,64,0,0,,,
2268,note_on,,1,0,1,,,,,,,,,,0,,70,46
2269,note_on,,1,0,1,,,,,,,,,,0,,46,0
2274,note_on,,5,0,1,,,,,,,,,,0,,77,50
2275,control_change,,1,0,1,,,,,,,,64,127,0,,,
2275,note_on,,0,0,1,,,,,,,,,,0,,58,61
2281,note_on,,6,0,1,,,,,,,,,,0,,70,0
2282,note_on,,0,0,1,,,,,,,,,,0,,82,57
2282,note_on,,1,0,1,,,,,,,,,,0,,53,0
2284,note_on,,2,0,1,,,,,,,,,,0,,62,61
2287,note_on,,3,0,1,,,,,,,,,,0,,77,0
2287,note_on,,0,0,1,,,,,,,,,,0,,86,67
2287,note_on,,0,0,1,,,,,,,,,,0,,58,0
2292,note_on,,0,0,1,,,,,,,,,,0,,62,0
2292,note_on,,5,0,1,,,,,,,,,,0,,82,0
2294,note_on,,2,0,1,,,,,,,,,,0,,86,0
2323,note_on,,29,0,1,,,,,,,,,,0,,48,58
2327,control_change,,0,0,1,,,,,,,,64,0,0,,,
2327,note_on,,4,0,1,,,,,,,,,,0,,70,43
2330,note_on,,3,0,1,,,,,,,,,,0,,55,59
2336,note_on,,0,0,1,,,,,,,,,,0,,58,59
2336,control_change,,0,0,1,,,,,,,,64,127,0,,,
2336,note_on,,6,0,1,,,,,,,,,,0,,76,52
2338,set_tempo,,372,1,0,,,,,,,882353,,,,,,
2339,note_on,,3,0,1,,,,,,,,,,0,,48,0
2340,note_on,,1,0,1,,,,,,,,,,0,,79,53
2343,note_on,,3,0,1,,,,,,,,,,0,,64,59
2346,note_on,,3,0,1,,,,,,,,,,0,,85,63
2349,note_on,,3,0,1,,,,,,,,,,0,,70,0
2350,note_on,,1,0,1,,,,,,,,,,0,,55,0
2352,note_on,,2,0,1,,,,,,,,,,0,,76,0
2353,note_on,,1,0,1,,,,,,,,,,0,,58,0
2354,note_on,,1,0,1,,,,,,,,,,0,,64,0
2355,note_on,,1,0,1,,,,,,,,,,0,,79,0
2361,note_on,,6,0,1,,,,,,,,,,0,,85,0
2372,set_tempo,,34,1,0,,,,,,,895522,,,,,,
2383,note_on,,22,0,1,,,,,,,,,,0,,48,58
2385,control_change,,2,0,1,,,,,,,,64,0,0,,,
2386,note_on,,1,0,1,,,,,,,,,,0,,68,45
2392,note_on,,6,0,1,,,,,,,,,,0,,56,58
2393,note_on,,1,0,1,,,,,,,,,,0,,48,0
2393,control_change,,0,0,1,,,,,,,,64,127,0,,,
2393,note_on,,0,0,1,,,,,,,,,,0,,77,52
2394,note_on,,1,0,1,,,,,,,,,,0,,68,0
2397,note_on,,3,0,1,,,,,,,,,,0,,80,55
2405,note_on,,8,0,1,,,,,,,,,,0,,65,58
2406,note_on,,1,0,1,,,,,,,,,,0,,56,0
2406,set_tempo,,34,1,0,,,,,,,909091,,,,,,
2407,note_on,,1,0,1,,,,,,,,,,0,,84,63
2409,note_on,,2,0,1,,,,,,,,,,0,,77,0
2410,note_on,,1,0,1,,,,,,,,,,0,,65,0
2414,note_on,,4,0,1,,,,,,,,,,0,,80,0
2417,note_on,,3,0,1,,,,,,,,,,0,,84,0
2437,note_on,,20,0,1,,,,,,,,,,0,,48,50
2440,set_tempo,,34,1,0,,,,,,,923077,,,,,,
2440,control_change,,3,0,1,,,,,,,,64,0,0,,,
2444,note_on,,4,0,1,,,,,,,,,,0,,55,48
2446,note_on,,2,0,1,,,,,,,,,,0,,72,48
2450,control_change,,4,0,1,,,,,,,,64,127,0,,,
2451,note_on,,1,0,1,,,,,,,,,,0,,79,59
2452,note_on,,1,0,1,,,,,,,,,,0,,48,0
2454,note_on,,2,0,1,,,,,,,,,,0,,60,48
2456,note_on,,2,0,1,,,,,,,,,,0,,82,53
2464,note_on,,8,0,1,,,,,,,,,,0,,67,47
2465,note_on,,1,0,1,,,,,,,,,,0,,55,0
2466,note_on,,1,0,1,,,,,,,,,,0,,88,62
2468,note_on,,2,0,1,,,,,,,,,,0,,60,0
2468,note_on,,0,0,1,,,,,,,,,,0,,79,0
2471,note_on,,3,0,1,,,,,,,,,,0,,72,0
2473,note_on,,2,0,1,,,,,,,,,,0,,67,0
2474,set_tempo,,34,1,0,,,,,,,937500,,,,,,
2477,note_on,,4,0,1,,,,,,,,,,0,,82,0
2483,note_on,,6,0,1,,,,,,,,,,0,,88,0
2501,control_change,,18,0,1,,,,,,,,64,0,0,,,
2503,note_on,,2,0,1,,,,,,,,,,0,,72,43
2508,note_on,,5,0,1,,,,,,,,,,0,,80,45
2508,set_tempo,,34,1,0,,,,,,,952381,,,,,,
2511,control_change,,3,0,1,,,,,,,,64,127,0,,,
2513,note_on,,2,0,1,,,,,,,,,,0,,72,0
2520,set_tempo,,12,1,0,,,,,,,1250000,,,,,,
2520,note_on,,7,0,1,,,,,,,,,,0,,41,57
2523,note_on,,3,0,1,,,,,,,,,,0,,89,57
2524,note_on,,1,0,1,,,,,,,,,,0,,80,0
2528,note_on,,4,0,1,,,,,,,,,,0,,41,0
2533,note_on,,5,0,1,,,,,,,,,,0,,89,0
2552,set_tempo,,32,1,0,,,,,,,937500,,,,,,
2563,note_on,,30,0,1,,,,,,,,,,0,,53,51
2565,note_on,,2,0,1,,,,,,,,,,0,,72,43
2570,note_on,,5,0,1,,,,,,,,,,0,,80,47
2574,note_on,,4,0,1,,,,,,,,,,0,,60,52
2575,note_on,,1,0,1,,,,,,,,,,0,,53,0
2580,set_tempo,,28,1,0,,,,,,,865801,,,,,,
2580,note_on,,5,0,1,,,,,,,,,,0,,84,57
2583,note_on,,3,0,1,,,,,,,,,,0,,68,53
2592,note_on,,9,0,1,,,,,,,,,,0,,60,0
2595,note_on,,3,0,1,,,,,,,,,,0,,68,0
2598,note_on,,3,0,1,,,,,,,,,,0,,72,0
2601,note_on,,3,0,1,,,,,,,,,,0,,80,0
2612,note_on,,11,0,1,,,,,,,,,,0,,84,0
2617,note_on,,5,0,1,,,,,,,,,,0,,53,46
2624,note_on,,7,0,1,,,,,,,,,,0,,71,39
2626,note_on,,2,0,1,,,,,,,,,,0,,60,47
2629,note_on,,3,0,1,,,,,,,,,,0,,53,0
2629,note_on,,0,0,1,,,,,,,,,,0,,80,40
2636,note_on,,7,0,1,,,,,,,,,,0,,68,50
2640,set_tempo,,60,1,0,,,,,,,855920,,,,,,
2641,note_on,,5,0,1,,,,,,,,,,0,,83,56
2642,note_on,,1,0,1,,,,,,,,,,0,,71,0
2650,note_on,,8,0,1,,,,,,,,,,0,,68,0
2652,note_on,,2,0,1,,,,,,,,,,0,,60,0
2653,note_on,,1,0,1,,,,,,,,,,0,,80,0
2660,note_on,,7,0,1,,,,,,,,,,0,,83,0
2676,note_on,,16,0,1,,,,,,,,,,0,,53,46
2682,note_on,,6,0,1,,,,,,,,,,0,,72,40
2688,note_on,,6,0,1,,,,,,,,,,0,,60,47
2690,note_on,,2,0,1,,,,,,,,,,0,,80,45
2692,note_on,,2,0,1,,,,,,,,,,0,,53,0
2699,note_on,,7,0,1,,,,,,,,,,0,,84,55
2699,note_on,,0,0,1,,,,,,,,,,0,,68,47
2703,note_on,,4,0,1,,,,,,,,,,0,,72,0
2703,set_tempo,,63,1,0,,,,,,,837989,,,,,,
2707,note_on,,4,0,1,,,,,,,,,,0,,80,0
2710,note_on,,3,0,1,,,,,,,,,,0,,68,0
2711,note_on,,1,0,1,,,,,,,,,,0,,60,0
2732,note_on,,21,0,1,,,,,,,,,,0,,84,0
2733,note_on,,1,0,1,,,,,,,,,,0,,53,46
2742,note_on,,9,0,1,,,,,,,,,,0,,73,41
2743,note_on,,1,0,1,,,,,,,,,,0,,60,47
2746,note_on,,3,0,1,,,,,,,,,,0,,80,43
2747,note_on,,1,0,1,,,,,,,,,,0,,53,0
2755,note_on,,8,0,1,,,,,,,,,,0,,68,48
2758,note_on,,3,0,1,,,,,,,,,,0,,85,55
2759,note_on,,1,0,1,,,,,,,,,,0,,73,0
2766,note_on,,7,0,1,,,,,,,,,,0,,80,0
2767,note_on,,1,0,1,,,,,,,,,,0,,60,0
2769,note_on,,2,0,1,,,,,,,,,,0,,68,0
2790,note_on,,21,0,1,,,,,,,,,,0,,85,0
2794,note_on,,4,0,1,,,,,,,,,,0,,53,48
2800,note_on,,6,0,1,,,,,,,,,,0,,72,41
2802,note_on,,2,0,1,,,,,,,,,,0,,60,50
2807,note_on,,5,0,1,,,,,,,,,,0,,53,0
2807,note_on,,0,0,1,,,,,,,,,,0,,80,46
2813,note_on,,6,0,1,,,,,,,,,,0,,68,51
2818,note_on,,5,0,1,,,,,,,,,,0,,84,52
2822,note_on,,4,0,1,,,,,,,,,,0,,72,0
2827,note_on,,5,0,1,,,,,,,,,,0,,80,0
2829,note_on,,2,0,1,,,,,,,,,,0,,60,0
2829,note_on,,0,0,1,,,,,,,,,,0,,68,0
2844,note_on,,15,0,1,,,,,,,,,,0,,84,0
2852,note_on,,8,0,1,,,,,,,,,,0,,72,37
2856,note_on,,4,0,1,,,,,,,,,,0,,52,43
2859,control_change,,3,0,1,,,,,,,,64,0,0,,,
2860,note_on,,1,0,1,,,,,,,,,,0,,79,42
2864,note_on,,4,0,1,,,,,,,,,,0,,58,45
2866,control_change,,2,0,1,,,,,,,,64,127,0,,,
2867,note_on,,1,0,1,,,,,,,,,,0,,72,0
2867,note_on,,0,0,1,,,,,,,,,,0,,82,48
2871,note_on,,4,0,1,,,,,,,,,,0,,52,0
2871,note_on,,0,0,1,,,,,,,,,,0,,79,0
2873,note_on,,2,0,1,,,,,,,,,,0,,60,45
2875,note_on,,2,0,1,,,,,,,,,,0,,82,0
2877,note_on,,2,0,1,,,,,,,,,,0,,67,46
2880,set_tempo,,177,1,0,,,,,,,852273,,,,,,
2882,note_on,,5,0,1,,,,,,,,,,0,,91,58
2885,note_on,,3,0,1,,,,,,,,,,0,,60,0
2888,note_on,,3,0,1,,,,,,,,,,0,,67,0
2889,note_on,,1,0,1,,,,,,,,,,0,,58,0
2891,note_on,,2,0,1,,,,,,,,,,0,,91,0
2916,note_on,,25,0,1,,,,,,,,,,0,,52,42
2921,note_on,,5,0,1,,,,,,,,,,0,,72,45
2924,note_on,,3,0,1,,,,,,,,,,0,,58,43
2928,note_on,,4,0,1,,,,,,,,,,0,,79,53
2930,note_on,,2,0,1,,,,,,,,,,0,,60,45
2931,note_on,,1,0,1,,,,,,,,,,0,,52,0
2931,note_on,,0,0,1,,,,,,,,,,0,,82,53
2937,note_on,,6,0,1,,,,,,,,,,0,,67,45
2942,note_on,,5,0,1,,,,,,,,,,0,,84,63
2943,set_tempo,,63,1,0,,,,,,,855920,,,,,,
2945,note_on,,3,0,1,,,,,,,,,,0,,58,0
2946,note_on,,1,0,1,,,,,,,,,,0,,60,0
2948,note_on,,2,0,1,,,,,,,,,,0,,67,0
2951,note_on,,3,0,1,,,,,,,,,,0,,72,0
2952,note_on,,1,0,1,,,,,,,,,,0,,79,0
2962,note_on,,10,0,1,,,,,,,,,,0,,82,0
2974,note_on,,12,0,1,,,,,,,,,,0,,84,0
2974,note_on,,0,0,1,,,,,,,,,,0,,52,48
2983,note_on,,9,0,1,,,,,,,,,,0,,71,45
2983,note_on,,0,0,1,,,,,,,,,,0,,58,48
2987,note_on,,4,0,1,,,,,,,,,,0,,79,47
2988,note_on,,1,0,1,,,,,,,,,,0,,60,50
2990,note_on,,2,0,1,,,,,,,,,,0,,52,0
2994,note_on,,4,0,1,,,,,,,,,,0,,82,52
2997,note_on,,3,0,1,,,,,,,,,,0,,67,50
3001,note_on,,4,0,1,,,,,,,,,,0,,83,67
3005,note_on,,4,0,1,,,,,,,,,,0,,58,0
3006,note_on,,1,0,1,,,,,,,,,,0,,60,0
3006,note_on,,0,0,1,,,,,,,,,,0,,79,0
3008,note_on,,2,0,1,,,,,,,,,,0,,71,0
3009,note_on,,1,0,1,,,,,,,,,,0,,67,0
3016,note_on,,7,0,1,,,,,,,,,,0,,82,0
3034,note_on,,18,0,1,,,,,,,,,,0,,83,0
3039,note_on,,5,0,1,,,,,,,,,,0,,52,50
3041,note_on,,2,0,1,,,,,,,,,,0,,72,48
3045,note_on,,4,0,1,,,,,,,,,,0,,58,51
3046,note_on,,1,0,1,,,,,,,,,,0,,79,55
3051,note_on,,5,0,1,,,,,,,,,,0,,82,50
3053,note_on,,2,0,1,,,,,,,,,,0,,60,51
3055,note_on,,2,0,1,,,,,,,,,,0,,52,0
3060,note_on,,5,0,1,,,,,,,,,,0,,67,52
3061,note_on,,1,0,1,,,,,,,,,,0,,84,69
3069,note_on,,8,0,1,,,,,,,,,,0,,58,0
3072,note_on,,0,0,1,,,,,,,,,,0,,60,0
3072,note_on,,0,0,1,,,,,,,,,,0,,67,0
3072,note_on,,3,0,1,,,,,,,,,,0,,72,0
3073,note_on,,1,0,1,,,,,,,,,,0,,79,0
3082,note_on,,9,0,1,,,,,,,,,,0,,82,0
3093,note_on,,11,0,1,,,,,,,,,,0,,84,0
3098,note_on,,5,0,1,,,,,,,,,,0,,52,52
3105,note_on,,7,0,1,,,,,,,,,,0,,73,50
3107,note_on,,2,0,1,,,,,,,,,,0,,58,52
3108,note_on,,1,0,1,,,,,,,,,,0,,79,52
3110,note_on,,2,0,1,,,,,,,,,,0,,60,53
3112,note_on,,2,0,1,,,,,,,,,,0,,82,50
3113,note_on,,1,0,1,,,,,,,,,,0,,52,0
3119,note_on,,6,0,1,,,,,,,,,,0,,67,53
3122,note_on,,3,0,1,,,,,,,,,,0,,85,71
3123,note_on,,1,0,1,,,,,,,,,,0,,79,0
3126,note_on,,3,0,1,,,,,,,,,,0,,73,0
3131,note_on,,5,0,1,,,,,,,,,,0,,60,0
3131,note_on,,0,0,1,,,,,,,,,,0,,67,0
3133,note_on,,2,0,1,,,,,,,,,,0,,82,0
3134,note_on,,1,0,1,,,,,,,,,,0,,58,0
3153,note_on,,19,0,1,,,,,,,,,,0,,85,0
3157,note_on,,4,0,1,,,,,,,,,,0,,52,56
3161,note_on,,4,0,1,,,,,,,,,,0,,72,51
3165,note_on,,4,0,1,,,,,,,,,,0,,58,56
3167,note_on,,2,0,1,,,,,,,,,,0,,79,57
3171,note_on,,4,0,1,,,,,,,,,,0,,82,59
3171,note_on,,0,0,1,,,,,,,,,,0,,60,56
3174,note_on,,3,0,1,,,,,,,,,,0,,52,0
3178,note_on,,4,0,1,,,,,,,,,,0,,67,57
3185,note_on,,7,0,1,,,,,,,,,,0,,58,0
3185,note_on,,0,0,1,,,,,,,,,,0,,84,73
3187,note_on,,2,0,1,,,,,,,,,,0,,60,0
3188,note_on,,1,0,1,,,,,,,,,,0,,79,0
3189,note_on,,1,0,1,,,,,,,,,,0,,67,0
3190,note_on,,1,0,1,,,,,,,,,,0,,72,0
3196,note_on,,6,0,1,,,,,,,,,,0,,82,0
3202,note_on,,6,0,1,,,,,,,,,,0,,84,0
3216,control_change,,0,0,1,,,,,,,,64,0,0,,,
3216,note_on,,14,0,1,,,,,,,,,,0,,72,46
3219,note_on,,3,0,1,,,,,,,,,,0,,53,61
3225,note_on,,6,0,1,,,,,,,,,,0,,80,52
3226,note_on,,1,0,1,,,,,,,,,,0,,56,61
3227,control_change,,1,0,1,,,,,,,,64,127,0,,,
3229,note_on,,2,0,1,,,,,,,,,,0,,72,0
3233,note_on,,4,0,1,,,,,,,,,,0,,60,62
3234,note_on,,1,0,1,,,,,,,,,,0,,84,59
3236,note_on,,2,0,1,,,,,,,,,,0,,53,0
3240,note_on,,4,0,1,,,,,,,,,,0,,84,0
3241,note_on,,1,0,1,,,,,,,,,,0,,68,63
3242,note_on,,1,0,1,,,,,,,,,,0,,80,0
3244,note_on,,2,0,1,,,,,,,,,,0,,56,0
3248,note_on,,4,0,1,,,,,,,,,,0,,60,0
3249,note_on,,1,0,1,,,,,,,,,,0,,92,77
3256,note_on,,7,0,1,,,,,,,,,,0,,92,0
3256,note_on,,0,0,1,,,,,,,,,,0,,68,0
3280,control_change,,24,0,1,,,,,,,,64,0,0,,,
3281,note_on,,1,0,1,,,,,,,,,,0,,75,52
3282,note_on,,1,0,1,,,,,,,,,,0,,55,62
3287,control_change,,5,0,1,,,,,,,,64,127,0,,,
3287,note_on,,0,0,1,,,,,,,,,,0,,58,62
3289,note_on,,2,0,1,,,,,,,,,,0,,82,62
3293,note_on,,4,0,1,,,,,,,,,,0,,55,0
3297,note_on,,4,0,1,,,,,,,,,,0,,75,0
3297,note_on,,0,0,1,,,,,,,,,,0,,63,63
3300,note_on,,3,0,1,,,,,,,,,,0,,87,67
3303,note_on,,3,0,1,,,,,,,,,,0,,70,66
3305,note_on,,2,0,1,,,,,,,,,,0,,58,0
3307,note_on,,2,0,1,,,,,,,,,,0,,82,0
3307,note_on,,0,0,1,,,,,,,,,,0,,91,75
3310,note_on,,3,0,1,,,,,,,,,,0,,63,0
3318,note_on,,0,0,1,,,,,,,,,,0,,87,0
3318,note_on,,8,0,1,,,,,,,,,,0,,70,0
3323,note_on,,5,0,1,,,,,,,,,,0,,91,0
3336,control_change,,13,0,1,,,,,,,,64,0,0,,,
3343,note_on,,7,0,1,,,,,,,,,,0,,56,66
3344,note_on,,1,0,1,,,,,,,,,,0,,77,58
3345,control_change,,1,0,1,,,,,,,,64,127,0,,,
3350,note_on,,5,0,1,,,,,,,,,,0,,63,67
3352,note_on,,2,0,1,,,,,,,,,,0,,56,0
3353,note_on,,1,0,1,,,,,,,,,,0,,84,61
3354,note_on,,1,0,1,,,,,,,,,,0,,87,63
3356,set_tempo,,413,1,0,,,,,,,847458,,,,,,
3360,note_on,,6,0,1,,,,,,,,,,0,,63,0
3362,note_on,,2,0,1,,,,,,,,,,0,,89,75
3362,note_on,,0,0,1,,,,,,,,,,0,,72,68
3369,note_on,,7,0,1,,,,,,,,,,0,,72,0
3370,note_on,,1,0,1,,,,,,,,,,0,,77,0
3371,note_on,,1,0,1,,,,,,,,,,0,,84,0
3376,note_on,,5,0,1,,,,,,,,,,0,,87,0
3385,note_on,,9,0,1,,,,,,,,,,0,,89,0
3398,note_on,,13,0,1,,,,,,,,,,0,,56,66
3407,note_on,,9,0,1,,,,,,,,,,0,,75,61
3412,note_on,,5,0,1,,,,,,,,,,0,,65,68
3413,note_on,,1,0,1,,,,,,,,,,0,,83,64
3415,note_on,,2,0,1,,,,,,,,,,0,,56,0
3416,note_on,,1,0,1,,,,,,,,,,0,,87,67
3419,note_on,,3,0,1,,,,,,,,,,0,,71,68
3422,note_on,,3,0,1,,,,,,,,,,0,,75,0
3426,note_on,,4,0,1,,,,,,,,,,0,,89,78
3432,note_on,,6,0,1,,,,,,,,,,0,,83,0
3432,note_on,,0,0,1,,,,,,,,,,0,,65,0
3437,note_on,,5,0,1,,,,,,,,,,0,,71,0
3439,note_on,,2,0,1,,,,,,,,,,0,,87,0
3442,note_on,,3,0,1,,,,,,,,,,0,,89,0
3459,control_change,,17,0,1,,,,,,,,64,0,0,,,
3462,note_on,,3,0,1,,,,,,,,,,0,,58,64
3463,note_on,,1,0,1,,,,,,,,,,0,,74,53
3470,note_on,,7,0,1,,,,,,,,,,0,,82,68
3470,control_change,,0,0,1,,,,,,,,64,127,0,,,
3472,note_on,,2,0,1,,,,,,,,,,0,,65,66
3476,set_tempo,,120,1,0,,,,,,,814111,,,,,,
3478,note_on,,6,0,1,,,,,,,,,,0,,74,0
3479,note_on,,1,0,1,,,,,,,,,,0,,70,67
3482,note_on,,3,0,1,,,,,,,,,,0,,89,77
3487,note_on,,5,0,1,,,,,,,,,,0,,82,0
3488,note_on,,1,0,1,,,,,,,,,,0,,65,0
3489,note_on,,1,0,1,,,,,,,,,,0,,58,0
3495,note_on,,6,0,1,,,,,,,,,,0,,70,0
3496,note_on,,1,0,1,,,,,,,,,,0,,89,0
3519,note_on,,23,0,1,,,,,,,,,,0,,74,55
3523,note_on,,4,0,1,,,,,,,,,,0,,58,58
3528,note_on,,5,0,1,,,,,,,,,,0,,80,64
3530,note_on,,2,0,1,,,,,,,,,,0,,74,0
3534,note_on,,4,0,1,,,,,,,,,,0,,65,59
3538,note_on,,4,0,1,,,,,,,,,,0,,80,0
3541,note_on,,3,0,1,,,,,,,,,,0,,91,80
3543,note_on,,2,0,1,,,,,,,,,,0,,68,62
3549,note_on,,0,0,1,,,,,,,,,,0,,58,0
3549,note_on,,6,0,1,,,,,,,,,,0,,91,0
3550,note_on,,1,0,1,,,,,,,,,,0,,65,0
3557,note_on,,7,0,1,,,,,,,,,,0,,68,0
3584,note_on,,27,0,1,,,,,,,,,,0,,75,53
3585,control_change,,1,0,1,,,,,,,,64,0,0,,,
3591,note_on,,6,0,1,,,,,,,,,,0,,79,64
3594,control_change,,3,0,1,,,,,,,,64,127,0,,,
3594,note_on,,0,0,1,,,,,,,,,,0,,63,56
3600,note_on,,6,0,1,,,,,,,,,,0,,87,82
3600,note_on,,0,0,1,,,,,,,,,,0,,67,62
3603,set_tempo,,127,1,0,,,,,,,834492,,,,,,
3608,note_on,,8,0,1,,,,,,,,,,0,,63,0
3611,note_on,,3,0,1,,,,,,,,,,0,,79,0
3612,note_on,,1,0,1,,,,,,,,,,0,,75,0
3616,note_on,,4,0,1,,,,,,,,,,0,,67,0
3618,note_on,,2,0,1,,,,,,,,,,0,,87,0
3641,note_on,,23,0,1,,,,,,,,,,0,,57,58
3643,control_change,,2,0,1,,,,,,,,64,0,0,,,
3648,note_on,,5,0,1,,,,,,,,,,0,,75,56
3649,note_on,,1,0,1,,,,,,,,,,0,,66,59
3651,note_on,,2,0,1,,,,,,,,,,0,,57,0
3651,control_change,,0,0,1,,,,,,,,64,127,0,,,
3654,note_on,,3,0,1,,,,,,,,,,0,,78,59
3659,note_on,,5,0,1,,,,,,,,,,0,,72,61
3662,note_on,,3,0,1,,,,,,,,,,0,,87,74
3670,note_on,,8,0,1,,,,,,,,,,0,,66,0
3672,note_on,,2,0,1,,,,,,,,,,0,,72,0
3673,note_on,,1,0,1,,,,,,,,,,0,,75,0
3674,note_on,,1,0,1,,,,,,,,,,0,,78,0
3682,note_on,,8,0,1,,,,,,,,,,0,,87,0
3702,note_on,,20,0,1,,,,,,,,,,0,,74,53
3704,note_on,,0,0,1,,,,,,,,,,0,,58,58
3704,control_change,,2,0,1,,,,,,,,64,0,0,,,
3711,note_on,,7,0,1,,,,,,,,,,0,,77,58
3713,control_change,,2,0,1,,,,,,,,64,127,0,,,
3713,note_on,,0,0,1,,,,,,,,,,0,,65,59
3717,note_on,,4,0,1,,,,,,,,,,0,,70,61
3720,set_tempo,,117,1,0,,,,,,,865801,,,,,,
3721,note_on,,4,0,1,,,,,,,,,,0,,86,72
3723,note_on,,2,0,1,,,,,,,,,,0,,58,0
3725,note_on,,2,0,1,,,,,,,,,,0,,65,0
3728,note_on,,3,0,1,,,,,,,,,,0,,74,0
3730,note_on,,2,0,1,,,,,,,,,,0,,70,0
3732,note_on,,2,0,1,,,,,,,,,,0,,77,0
3737,note_on,,5,0,1,,,,,,,,,,0,,86,0
3760,control_change,,23,0,1,,,,,,,,64,0,0,,,
3760,note_on,,0,0,1,,,,,,,,,,0,,52,56
3766,note_on,,6,0,1,,,,,,,,,,0,,70,51
3769,control_change,,3,0,1,,,,,,,,64,127,0,,,
3770,note_on,,1,0,1,,,,,,,,,,0,,61,57
3773,note_on,,3,0,1,,,,,,,,,,0,,52,0
3775,note_on,,2,0,1,,,,,,,,,,0,,79,57
3781,note_on,,6,0,1,,,,,,,,,,0,,85,71
3782,note_on,,1,0,1,,,,,,,,,,0,,67,57
3789,note_on,,7,0,1,,,,,,,,,,0,,79,0
3791,note_on,,2,0,1,,,,,,,,,,0,,70,0
3793,note_on,,2,0,1,,,,,,,,,,0,,61,0
3798,note_on,,5,0,1,,,,,,,,,,0,,67,0
3802,note_on,,4,0,1,,,,,,,,,,0,,85,0
3815,control_change,,13,0,1,,,,,,,,64,0,0,,,
3824,note_on,,9,0,1,,,,,,,,,,0,,68,46
3824,note_on,,0,0,1,,,,,,,,,,0,,53,61
3826,control_change,,2,0,1,,,,,,,,64,127,0,,,
3832,note_on,,6,0,1,,,,,,,,,,0,,68,0
3832,note_on,,0,0,1,,,,,,,,,,0,,60,61
3833,note_on,,1,0,1,,,,,,,,,,0,,80,48
3838,note_on,,5,0,1,,,,,,,,,,0,,80,0
3840,note_on,,0,0,1,,,,,,,,,,0,,65,62
3840,note_on,,2,0,1,,,,,,,,,,0,,84,68
3840,set_tempo,,120,1,0,,,,,,,900901,,,,,,
3848,note_on,,8,0,1,,,,,,,,,,0,,60,0
3848,note_on,,0,0,1,,,,,,,,,,0,,53,0
3852,note_on,,4,0,1,,,,,,,,,,0,,84,0
3852,note_on,,0,0,1,,,,,,,,,,0,,65,0
3876,note_on,,24,0,1,,,,,,,,,,0,,46,57
3884,note_on,,8,0,1,,,,,,,,,,0,,68,47
3885,note_on,,1,0,1,,,,,,,,,,0,,53,57
3890,note_on,,5,0,1,,,,,,,,,,0,,46,0
3890,note_on,,0,0,1,,,,,,,,,,0,,77,50
3892,note_on,,2,0,1,,,,,,,,,,0,,68,0
3892,note_on,,0,0,1,,,,,,,,,,0,,56,57
3900,note_on,,8,0,1,,,,,,,,,,0,,62,58
3901,note_on,,1,0,1,,,,,,,,,,0,,77,0
3902,note_on,,1,0,1,,,,,,,,,,0,,53,0
3902,note_on,,0,0,1,,,,,,,,,,0,,86,68
3908,note_on,,6,0,1,,,,,,,,,,0,,56,0
3909,note_on,,1,0,1,,,,,,,,,,0,,86,0
3912,note_on,,3,0,1,,,,,,,,,,0,,62,0
3940,control_change,,28,0,1,,,,,,,,64,0,0,,,
3944,note_on,,4,0,1,,,,,,,,,,0,,67,42
3945,control_change,,1,0,1,,,,,,,,64,127,0,,,
3950,note_on,,5,0,1,,,,,,,,,,0,,75,47
3951,note_on,,1,0,1,,,,,,,,,,0,,67,0
3958,note_on,,7,0,1,,,,,,,,,,0,,39,57
3960,set_tempo,,120,1,0,,,,,,,1052632,,,,,,
3961,note_on,,3,0,1,,,,,,,,,,0,,75,0
3963,note_on,,2,0,1,,,,,,,,,,0,,87,66
3969,note_on,,6,0,1,,,,,,,,,,0,,87,0
3972,note_on,,3,0,1,,,,,,,,,,0,,39,0
4006,note_on,,34,0,1,,,,,,,,,,0,,70,39
4007,note_on,,1,0,1,,,,,,,,,,0,,51,48
4010,note_on,,3,0,1,,,,,,,,,,0,,75,41
4011,note_on,,1,0,1,,,,,,,,,,0,,58,48
4014,note_on,,3,0,1,,,,,,,,,,0,,51,0
4016,set_tempo,,56,1,0,,,,,,,843882,,,,,,
4021,note_on,,7,0,1,,,,,,,,,,0,,82,62
4023,note_on,,2,0,1,,,,,,,,,,0,,67,51
4024,note_on,,1,0,1,,,,,,,,,,0,,70,0
4028,note_on,,4,0,1,,,,,,,,,,0,,75,0
4033,note_on,,5,0,1,,,,,,,,,,0,,67,0
4034,note_on,,1,0,1,,,,,,,,,,0,,58,0
4047,note_on,,13,0,1,,,,,,,,,,0,,82,0
4063,note_on,,16,0,1,,,,,,,,,,0,,51,51
4068,note_on,,5,0,1,,,,,,,,,,0,,70,43
4070,note_on,,2,0,1,,,,,,,,,,0,,51,0
4070,note_on,,0,0,1,,,,,,,,,,0,,58,52
4073,note_on,,3,0,1,,,,,,,,,,0,,75,46
4082,note_on,,9,0,1,,,,,,,,,,0,,81,58
4082,note_on,,0,0,1,,,,,,,,,,0,,67,53
4083,note_on,,1,0,1,,,,,,,,,,0,,58,0
4084,note_on,,1,0,1,,,,,,,,,,0,,70,0
4086,note_on,,2,0,1,,,,,,,,,,0,,75,0
4093,note_on,,7,0,1,,,,,,,,,,0,,67,0
4112,note_on,,19,0,1,,,,,,,,,,0,,81,0
4126,note_on,,14,0,1,,,,,,,,,,0,,51,50
4127,note_on,,1,0,1,,,,,,,,,,0,,70,42
4132,note_on,,5,0,1,,,,,,,,,,0,,58,51
4134,note_on,,2,0,1,,,,,,,,,,0,,51,0
4134,note_on,,0,0,1,,,,,,,,,,0,,75,46
4141,note_on,,7,0,1,,,,,,,,,,0,,82,57
4143,note_on,,2,0,1,,,,,,,,,,0,,70,0
4143,note_on,,0,0,1,,,,,,,,,,0,,67,52
4145,note_on,,2,0,1,,,,,,,,,,0,,75,0
4151,note_on,,6,0,1,,,,,,,,,,0,,58,0
4153,note_on,,2,0,1,,,,,,,,,,0,,67,0
4169,note_on,,16,0,1,,,,,,,,,,0,,82,0
4184,note_on,,15,0,1,,,,,,,,,,0,,70,39
4188,note_on,,4,0,1,,,,,,,,,,0,,51,50
4192,note_on,,4,0,1,,,,,,,,,,0,,51,0
4192,note_on,,0,0,1,,,,,,,,,,0,,75,45
4192,note_on,,0,0,1,,,,,,,,,,0,,58,50
4200,note_on,,8,0,1,,,,,,,,,,0,,70,0
4203,note_on,,0,0,1,,,,,,,,,,0,,67,51
4203,note_on,,3,0,1,,,,,,,,,,0,,84,57
4208,note_on,,5,0,1,,,,,,,,,,0,,75,0
4212,note_on,,4,0,1,,,,,,,,,,0,,67,0
4213,note_on,,1,0,1,,,,,,,,,,0,,58,0
4219,note_on,,6,0,1,,,,,,,,,,0,,84,0
4244,note_on,,25,0,1,,,,,,,,,,0,,70,41
4244,note_on,,0,0,1,,,,,,,,,,0,,51,50
4252,note_on,,8,0,1,,,,,,,,,,0,,58,50
4253,note_on,,1,0,1,,,,,,,,,,0,,75,46
4254,note_on,,1,0,1,,,,,,,,,,0,,51,0
4262,note_on,,8,0,1,,,,,,,,,,0,,82,57
4263,note_on,,1,0,1,,,,,,,,,,0,,67,51
4264,note_on,,1,0,1,,,,,,,,,,0,,70,0
4264,note_on,,0,0,1,,,,,,,,,,0,,58,0
4267,note_on,,3,0,1,,,,,,,,,,0,,75,0
4271,note_on,,4,0,1,,,,,,,,,,0,,67,0
4285,note_on,,14,0,1,,,,,,,,,,0,,82,0
4295,control_change,,10,0,1,,,,,,,,64,0,0,,,
4300,control_change,,5,0,1,,,,,,,,64,127,0,,,
4302,note_on,,2,0,1,,,,,,,,,,0,,50,48
4304,note_on,,2,0,1,,,,,,,,,,0,,70,46
4308,note_on,,4,0,1,,,,,,,,,,0,,58,48
4310,note_on,,2,0,1,,,,,,,,,,0,,80,50
4311,note_on,,1,0,1,,,,,,,,,,0,,50,0
4312,note_on,,1,0,1,,,,,,,,,,0,,70,0
4317,note_on,,5,0,1,,,,,,,,,,0,,80,0
4319,note_on,,2,0,1,,,,,,,,,,0,,58,0
4323,note_on,,4,0,1,,,,,,,,,,0,,89,61
4323,note_on,,0,0,1,,,,,,,,,,0,,68,51
4327,note_on,,4,0,1,,,,,,,,,,0,,68,0
4328,note_on,,1,0,1,,,,,,,,,,0,,89,0
4358,note_on,,30,0,1,,,,,,,,,,0,,50,55
4362,note_on,,4,0,1,,,,,,,,,,0,,70,45
4365,note_on,,3,0,1,,,,,,,,,,0,,50,0
4365,note_on,,0,0,1,,,,,,,,,,0,,58,56
4370,note_on,,5,0,1,,,,,,,,,,0,,80,51
4378,note_on,,0,0,1,,,,,,,,,,0,,68,56
4378,note_on,,8,0,1,,,,,,,,,,0,,82,57
4384,note_on,,6,0,1,,,,,,,,,,0,,58,0
4385,note_on,,1,0,1,,,,,,,,,,0,,68,0
4386,note_on,,1,0,1,,,,,,,,,,0,,70,0
4399,note_on,,13,0,1,,,,,,,,,,0,,80,0
4404,note_on,,5,0,1,,,,,,,,,,0,,82,0
4417,note_on,,13,0,1,,,,,,,,,,0,,50,50
4418,note_on,,1,0,1,,,,,,,,,,0,,70,47
4422,note_on,,4,0,1,,,,,,,,,,0,,50,0
4424,note_on,,2,0,1,,,,,,,,,,0,,58,51
4426,note_on,,2,0,1,,,,,,,,,,0,,80,52
4437,note_on,,11,0,1,,,,,,,,,,0,,81,57
4437,note_on,,0,0,1,,,,,,,,,,0,,68,51
4444,note_on,,7,0,1,,,,,,,,,,0,,70,0
4445,note_on,,1,0,1,,,,,,,,,,0,,68,0
4446,note_on,,1,0,1,,,,,,,,,,0,,58,0
4452,note_on,,6,0,1,,,,,,,,,,0,,80,0
4460,note_on,,8,0,1,,,,,,,,,,0,,81,0
4477,note_on,,17,0,1,,,,,,,,,,0,,70,47
4478,note_on,,1,0,1,,,,,,,,,,0,,50,51
4486,note_on,,8,0,1,,,,,,,,,,0,,80,50
4487,note_on,,1,0,1,,,,,,,,,,0,,58,52
4489,note_on,,2,0,1,,,,,,,,,,0,,50,0
4498,note_on,,9,0,1,,,,,,,,,,0,,82,53
4499,note_on,,1,0,1,,,,,,,,,,0,,68,53
4505,note_on,,6,0,1,,,,,,,,,,0,,68,0
4506,note_on,,1,0,1,,,,,,,,,,0,,70,0
4509,note_on,,3,0,1,,,,,,,,,,0,,58,0
4510,note_on,,1,0,1,,,,,,,,,,0,,80,0
4520,note_on,,10,0,1,,,,,,,,,,0,,82,0
4534,note_on,,14,0,1,,,,,,,,,,0,,70,40
4539,note_on,,5,0,1,,,,,,,,,,0,,50,53
4545,note_on,,6,0,1,,,,,,,,,,0,,58,53
4546,note_on,,1,0,1,,,,,,,,,,0,,50,0
4548,note_on,,2,0,1,,,,,,,,,,0,,80,45
4555,note_on,,7,0,1,,,,,,,,,,0,,70,0
4558,note_on,,3,0,1,,,,,,,,,,0,,84,57
4562,note_on,,4,0,1,,,,,,,,,,0,,68,57
4570,note_on,,8,0,1,,,,,,,,,,0,,68,0
4571,note_on,,1,0,1,,,,,,,,,,0,,80,0
4578,note_on,,7,0,1,,,,,,,,,,0,,84,0
4580,note_on,,2,0,1,,,,,,,,,,0,,58,0
4594,note_on,,14,0,1,,,,,,,,,,0,,70,42
4598,note_on,,4,0,1,,,,,,,,,,0,,50,51
4607,note_on,,9,0,1,,,,,,,,,,0,,58,52
4608,note_on,,1,0,1,,,,,,,,,,0,,80,52
4611,note_on,,3,0,1,,,,,,,,,,0,,50,0
4618,note_on,,7,0,1,,,,,,,,,,0,,82,56
4621,note_on,,3,0,1,,,,,,,,,,0,,68,53
4622,note_on,,1,0,1,,,,,,,,,,0,,70,0
4628,note_on,,6,0,1,,,,,,,,,,0,,68,0
4631,note_on,,3,0,1,,,,,,,,,,0,,80,0
4632,note_on,,1,0,1,,,,,,,,,,0,,58,0
4635,note_on,,3,0,1,,,,,,,,,,0,,82,0
4646,note_on,,11,0,1,,,,,,,,,,0,,70,42
4657,note_on,,11,0,1,,,,,,,,,,0,,79,47
4657,note_on,,0,0,1,,,,,,,,,,0,,51,55
4660,note_on,,3,0,1,,,,,,,,,,0,,70,0
4665,note_on,,5,0,1,,,,,,,,,,0,,82,52
4665,control_change,,0,0,1,,,,,,,,64,0,0,,,
4667,note_on,,2,0,1,,,,,,,,,,0,,58,59
4668,note_on,,1,0,1,,,,,,,,,,0,,79,0
4671,note_on,,3,0,1,,,,,,,,,,0,,51,0
4673,note_on,,2,0,1,,,,,,,,,,0,,82,0
4676,control_change,,3,0,1,,,,,,,,64,127,0,,,
4679,note_on,,3,0,1,,,,,,,,,,0,,67,61
4680,note_on,,1,0,1,,,,,,,,,,0,,91,63
4688,note_on,,8,0,1,,,,,,,,,,0,,91,0
4689,note_on,,1,0,1,,,,,,,,,,0,,67,0
4693,note_on,,4,0,1,,,,,,,,,,0,,58,0
4717,note_on,,24,0,1,,,,,,,,,,0,,53,53
4721,note_on,,4,0,1,,,,,,,,,,0,,70,48
4725,control_change,,4,0,1,,,,,,,,64,0,0,,,
4727,note_on,,2,0,1,,,,,,,,,,0,,58,57
4729,note_on,,2,0,1,,,,,,,,,,0,,53,0
4730,note_on,,1,0,1,,,,,,,,,,0,,74,55
4732,control_change,,2,0,1,,,,,,,,64,127,0,,,
4734,note_on,,2,0,1,,,,,,,,,,0,,82,57
4735,note_on,,1,0,1,,,,,,,,,,0,,62,58
4741,note_on,,6,0,1,,,,,,,,,,0,,70,0
4741,note_on,,0,0,1,,,,,,,,,,0,,68,59
4743,note_on,,2,0,1,,,,,,,,,,0,,74,0
4743,note_on,,0,0,1,,,,,,,,,,0,,86,63
4744,note_on,,1,0,1,,,,,,,,,,0,,62,0
4749,note_on,,5,0,1,,,,,,,,,,0,,58,0
4752,note_on,,3,0,1,,,,,,,,,,0,,82,0
4755,note_on,,3,0,1,,,,,,,,,,0,,86,0
4757,note_on,,2,0,1,,,,,,,,,,0,,68,0
4775,note_on,,18,0,1,,,,,,,,,,0,,70,47
4777,control_change,,2,0,1,,,,,,,,64,0,0,,,
4781,note_on,,4,0,1,,,,,,,,,,0,,55,57
4786,control_change,,5,0,1,,,,,,,,64,127,0,,,
4787,note_on,,1,0,1,,,,,,,,,,0,,75,56
4787,note_on,,0,0,1,,,,,,,,,,0,,58,57
4794,note_on,,7,0,1,,,,,,,,,,0,,82,62
4795,note_on,,1,0,1,,,,,,,,,,0,,63,59
4796,note_on,,1,0,1,,,,,,,,,,0,,70,0
4800,note_on,,4,0,1,,,,,,,,,,0,,75,0
4800,note_on,,0,0,1,,,,,,,,,,0,,67,61
4801,note_on,,1,0,1,,,,,,,,,,0,,55,0
4801,note_on,,0,0,1,,,,,,,,,,0,,87,67
4806,note_on,,5,0,1,,,,,,,,,,0,,82,0
4808,note_on,,2,0,1,,,,,,,,,,0,,58,0
4809,note_on,,1,0,1,,,,,,,,,,0,,63,0
4811,note_on,,2,0,1,,,,,,,,,,0,,67,0
4813,note_on,,2,0,1,,,,,,,,,,0,,87,0
4840,note_on,,27,0,1,,,,,,,,,,0,,71,48
4841,note_on,,1,0,1,,,,,,,,,,0,,43,57
4849,note_on,,8,0,1,,,,,,,,,,0,,51,61
4850,note_on,,1,0,1,,,,,,,,,,0,,71,0
4850,note_on,,0,0,1,,,,,,,,,,0,,75,55
4851,note_on,,1,0,1,,,,,,,,,,0,,43,0
4858,note_on,,7,0,1,,,,,,,,,,0,,59,63
4861,note_on,,3,0,1,,,,,,,,,,0,,75,0
4863,note_on,,2,0,1,,,,,,,,,,0,,86,69
4864,note_on,,1,0,1,,,,,,,,,,0,,51,0
4868,note_on,,4,0,1,,,,,,,,,,0,,86,0
4868,note_on,,0,0,1,,,,,,,,,,0,,59,0
4898,control_change,,30,0,1,,,,,,,,64,0,0,,,
4902,note_on,,4,0,1,,,,,,,,,,0,,44,58
4905,note_on,,3,0,1,,,,,,,,,,0,,72,56
4908,control_change,,3,0,1,,,,,,,,64,127,0,,,
4909,note_on,,1,0,1,,,,,,,,,,0,,51,61
4910,note_on,,1,0,1,,,,,,,,,,0,,44,0
4912,note_on,,2,0,1,,,,,,,,,,0,,75,61
4917,note_on,,5,0,1,,,,,,,,,,0,,60,63
4920,note_on,,3,0,1,,,,,,,,,,0,,51,0
4923,note_on,,3,0,1,,,,,,,,,,0,,60,0
4925,note_on,,2,0,1,,,,,,,,,,0,,84,69
4934,note_on,,9,0,1,,,,,,,,,,0,,72,0
4937,note_on,,3,0,1,,,,,,,,,,0,,75,0
4944,note_on,,7,0,1,,,,,,,,,,0,,84,0
4955,note_on,,11,0,1,,,,,,,,,,0,,45,66
4961,control_change,,6,0,1,,,,,,,,64,0,0,,,
4962,note_on,,1,0,1,,,,,,,,,,0,,53,67
4963,note_on,,1,0,1,,,,,,,,,,0,,72,59
4966,note_on,,3,0,1,,,,,,,,,,0,,45,0
4969,control_change,,3,0,1,,,,,,,,64,127,0,,,
4971,note_on,,2,0,1,,,,,,,,,,0,,77,63
4977,note_on,,6,0,1,,,,,,,,,,0,,53,0
4978,note_on,,1,0,1,,,,,,,,,,0,,63,72
4980,note_on,,2,0,1,,,,,,,,,,0,,72,0
4984,note_on,,4,0,1,,,,,,,,,,0,,63,0
4984,note_on,,0,0,1,,,,,,,,,,0,,89,77
4988,note_on,,4,0,1,,,,,,,,,,0,,77,0
4996,note_on,,8,0,1,,,,,,,,,,0,,89,0
5017,note_on,,21,0,1,,,,,,,,,,0,,46,69
5020,control_change,,3,0,1,,,,,,,,64,0,0,,,
5024,note_on,,4,0,1,,,,,,,,,,0,,51,73
5025,note_on,,1,0,1,,,,,,,,,,0,,70,63
5028,control_change,,3,0,1,,,,,,,,64,127,0,,,
5031,note_on,,3,0,1,,,,,,,,,,0,,46,0
5033,note_on,,2,0,1,,,,,,,,,,0,,55,74
5036,note_on,,3,0,1,,,,,,,,,,0,,70,0
5036,note_on,,0,0,1,,,,,,,,,,0,,79,72
5039,note_on,,3,0,1,,,,,,,,,,0,,51,0
5039,note_on,,0,0,1,,,,,,,,,,0,,63,74
5045,note_on,,6,0,1,,,,,,,,,,0,,79,0
5047,note_on,,2,0,1,,,,,,,,,,0,,87,84
5051,note_on,,4,0,1,,,,,,,,,,0,,55,0
5052,note_on,,1,0,1,,,,,,,,,,0,,63,0
5056,note_on,,4,0,1,,,,,,,,,,0,,87,0
5078,note_on,,22,0,1,,,,,,,,,,0,,46,73
5081,control_change,,3,0,1,,,,,,,,64,0,0,,,
5086,note_on,,5,0,1,,,,,,,,,,0,,54,74
5089,note_on,,3,0,1,,,,,,,,,,0,,72,64
5090,control_change,,1,0,1,,,,,,,,64,127,0,,,
5094,note_on,,0,0,1,,,,,,,,,,0,,78,68
5094,note_on,,4,0,1,,,,,,,,,,0,,46,0
5095,note_on,,0,0,1,,,,,,,,,,0,,57,74
5095,note_on,,1,0,1,,,,,,,,,,0,,72,0
5101,note_on,,0,0,1,,,,,,,,,,0,,81,72
5101,note_on,,6,0,1,,,,,,,,,,0,,54,0
5103,note_on,,2,0,1,,,,,,,,,,0,,63,74
5107,note_on,,4,0,1,,,,,,,,,,0,,78,0
5108,note_on,,1,0,1,,,,,,,,,,0,,87,84
5110,note_on,,2,0,1,,,,,,,,,,0,,81,0
5111,note_on,,1,0,1,,,,,,,,,,0,,57,0
5114,note_on,,3,0,1,,,,,,,,,,0,,63,0
5120,note_on,,6,0,1,,,,,,,,,,0,,87,0
5137,note_on,,17,0,1,,,,,,,,,,0,,46,69
5144,control_change,,7,0,1,,,,,,,,64,0,0,,,
5146,note_on,,2,0,1,,,,,,,,,,0,,53,71
5148,note_on,,2,0,1,,,,,,,,,,0,,70,57
5149,note_on,,1,0,1,,,,,,,,,,0,,46,0
5152,control_change,,3,0,1,,,,,,,,64,127,0,,,
5154,note_on,,2,0,1,,,,,,,,,,0,,77,59
5155,note_on,,1,0,1,,,,,,,,,,0,,58,71
5161,note_on,,6,0,1,,,,,,,,,,0,,70,0
5162,note_on,,1,0,1,,,,,,,,,,0,,53,0
5162,note_on,,0,0,1,,,,,,,,,,0,,82,66
5164,note_on,,2,0,1,,,,,,,,,,0,,62,71
5167,note_on,,3,0,1,,,,,,,,,,0,,77,0
5167,note_on,,0,0,1,,,,,,,,,,0,,58,0
5167,note_on,,0,0,1,,,,,,,,,,0,,86,79
5172,note_on,,5,0,1,,,,,,,,,,0,,82,0
5172,note_on,,0,0,1,,,,,,,,,,0,,62,0
5174,note_on,,2,0,1,,,,,,,,,,0,,86,0
5203,note_on,,29,0,1,,,,,,,,,,0,,48,69
5206,control_change,,3,0,1,,,,,,,,64,0,0,,,
5207,note_on,,1,0,1,,,,,,,,,,0,,70,51
5210,note_on,,3,0,1,,,,,,,,,,0,,55,69
5213,control_change,,3,0,1,,,,,,,,64,127,0,,,
5216,note_on,,3,0,1,,,,,,,,,,0,,76,64
5216,note_on,,0,0,1,,,,,,,,,,0,,58,69
5219,note_on,,3,0,1,,,,,,,,,,0,,48,0
5220,note_on,,1,0,1,,,,,,,,,,0,,79,67
5223,note_on,,3,0,1,,,,,,,,,,0,,64,69
5226,note_on,,3,0,1,,,,,,,,,,0,,85,77
5229,note_on,,3,0,1,,,,,,,,,,0,,70,0
5230,note_on,,1,0,1,,,,,,,,,,0,,55,0
5232,note_on,,2,0,1,,,,,,,,,,0,,76,0
5233,note_on,,1,0,1,,,,,,,,,,0,,58,0
5234,note_on,,1,0,1,,,,,,,,,,0,,64,0
5235,note_on,,1,0,1,,,,,,,,,,0,,79,0
5241,note_on,,6,0,1,,,,,,,,,,0,,85,0
5246,set_tempo,,1230,1,0,,,,,,,833333,,,,,,
5263,note_on,,22,0,1,,,,,,,,,,0,,48,66
5265,control_change,,2,0,1,,,,,,,,64,0,0,,,
5266,note_on,,1,0,1,,,,,,,,,,0,,68,40
5266,set_tempo,,20,1,0,,,,,,,845070,,,,,,
5272,control_change,,6,0,1,,,,,,,,64,127,0,,,
5272,note_on,,0,0,1,,,,,,,,,,0,,56,66
5273,note_on,,1,0,1,,,,,,,,,,0,,48,0
5273,note_on,,0,0,1,,,,,,,,,,0,,77,58
5274,note_on,,1,0,1,,,,,,,,,,0,,68,0
5277,note_on,,3,0,1,,,,,,,,,,0,,80,61
5285,note_on,,8,0,1,,,,,,,,,,0,,65,66
5286,note_on,,1,0,1,,,,,,,,,,0,,56,0
5286,set_tempo,,20,1,0,,,,,,,857143,,,,,,
5287,note_on,,1,0,1,,,,,,,,,,0,,84,73
5289,note_on,,2,0,1,,,,,,,,,,0,,77,0
5290,note_on,,1,0,1,,,,,,,,,,0,,65,0
5294,note_on,,4,0,1,,,,,,,,,,0,,80,0
5297,note_on,,3,0,1,,,,,,,,,,0,,84,0
5306,set_tempo,,20,1,0,,,,,,,869565,,,,,,
5317,note_on,,20,0,1,,,,,,,,,,0,,48,61
5322,control_change,,5,0,1,,,,,,,,64,0,0,,,
5324,note_on,,2,0,1,,,,,,,,,,0,,55,61
5324,set_tempo,,18,1,0,,,,,,,882353,,,,,,
5326,note_on,,2,0,1,,,,,,,,,,0,,72,48
5329,control_change,,3,0,1,,,,,,,,64,127,0,,,
5331,note_on,,2,0,1,,,,,,,,,,0,,79,59
5332,note_on,,1,0,1,,,,,,,,,,0,,48,0
5334,note_on,,2,0,1,,,,,,,,,,0,,60,62
5336,note_on,,2,0,1,,,,,,,,,,0,,82,53
5344,note_on,,8,0,1,,,,,,,,,,0,,67,62
5344,set_tempo,,20,1,0,,,,,,,895522,,,,,,
5345,note_on,,1,0,1,,,,,,,,,,0,,55,0
5346,note_on,,1,0,1,,,,,,,,,,0,,88,66
5348,note_on,,0,0,1,,,,,,,,,,0,,79,0
5348,note_on,,2,0,1,,,,,,,,,,0,,60,0
5351,note_on,,3,0,1,,,,,,,,,,0,,72,0
5353,note_on,,2,0,1,,,,,,,,,,0,,67,0
5357,note_on,,4,0,1,,,,,,,,,,0,,82,0
5363,note_on,,6,0,1,,,,,,,,,,0,,88,0
5364,set_tempo,,20,1,0,,,,,,,909091,,,,,,
5382,set_tempo,,18,1,0,,,,,,,923077,,,,,,
5383,control_change,,0,0,1,,,,,,,,64,0,0,,,
5383,note_on,,20,0,1,,,,,,,,,,0,,72,43
5388,note_on,,5,0,1,,,,,,,,,,0,,80,48
5390,control_change,,2,0,1,,,,,,,,64,127,0,,,
5393,note_on,,3,0,1,,,,,,,,,,0,,72,0
5397,note_on,,4,0,1,,,,,,,,,,0,,41,56
5400,set_tempo,,18,1,0,,,,,,,1090909,,,,,,
5403,note_on,,6,0,1,,,,,,,,,,0,,89,64
5404,note_on,,1,0,1,,,,,,,,,,0,,80,0
5405,note_on,,1,0,1,,,,,,,,,,0,,41,0
5413,note_on,,8,0,1,,,,,,,,,,0,,89,0
5432,set_tempo,,32,1,0,,,,,,,952381,,,,,,
5443,note_on,,30,0,1,,,,,,,,,,0,,53,43
5445,note_on,,2,0,1,,,,,,,,,,0,,72,48
5450,note_on,,5,0,1,,,,,,,,,,0,,80,51
5454,note_on,,4,0,1,,,,,,,,,,0,,60,48
5455,note_on,,1,0,1,,,,,,,,,,0,,53,0
5460,set_tempo,,28,1,0,,,,,,,937500,,,,,,
5460,note_on,,5,0,1,,,,,,,,,,0,,84,63
5463,note_on,,3,0,1,,,,,,,,,,0,,68,51
5472,note_on,,9,0,1,,,,,,,,,,0,,60,0
5475,note_on,,3,0,1,,,,,,,,,,0,,68,0
5478,note_on,,3,0,1,,,,,,,,,,0,,72,0
5481,note_on,,3,0,1,,,,,,,,,,0,,80,0
5488,set_tempo,,28,1,0,,,,,,,923077,,,,,,
5492,note_on,,11,0,1,,,,,,,,,,0,,84,0
5497,note_on,,5,0,1,,,,,,,,,,0,,53,48
5504,note_on,,7,0,1,,,,,,,,,,0,,71,41
5506,note_on,,2,0,1,,,,,,,,,,0,,60,50
5509,note_on,,3,0,1,,,,,,,,,,0,,53,0
5509,note_on,,0,0,1,,,,,,,,,,0,,80,45
5514,set_tempo,,26,1,0,,,,,,,909091,,,,,,
5516,note_on,,7,0,1,,,,,,,,,,0,,68,51
5521,note_on,,5,0,1,,,,,,,,,,0,,83,57
5522,note_on,,1,0,1,,,,,,,,,,0,,71,0
5530,note_on,,8,0,1,,,,,,,,,,0,,68,0
5532,note_on,,2,0,1,,,,,,,,,,0,,60,0
5533,note_on,,1,0,1,,,,,,,,,,0,,80,0
5542,set_tempo,,28,1,0,,,,,,,895522,,,,,,
5555,note_on,,22,0,1,,,,,,,,,,0,,83,0
5556,note_on,,1,0,1,,,,,,,,,,0,,53,48
5562,note_on,,6,0,1,,,,,,,,,,0,,72,46
5568,note_on,,6,0,1,,,,,,,,,,0,,60,50
5568,set_tempo,,26,1,0,,,,,,,882353,,,,,,
5570,note_on,,2,0,1,,,,,,,,,,0,,80,52
5572,note_on,,2,0,1,,,,,,,,,,0,,53,0
5579,note_on,,7,0,1,,,,,,,,,,0,,84,57
5579,note_on,,0,0,1,,,,,,,,,,0,,68,50
5583,note_on,,4,0,1,,,,,,,,,,0,,72,0
5587,note_on,,4,0,1,,,,,,,,,,0,,80,0
5590,note_on,,3,0,1,,,,,,,,,,0,,68,0
5591,note_on,,1,0,1,,,,,,,,,,0,,60,0
5596,set_tempo,,28,1,0,,,,,,,869565,,,,,,
5612,note_on,,21,0,1,,,,,,,,,,0,,84,0
5613,note_on,,1,0,1,,,,,,,,,,0,,53,50
5622,note_on,,9,0,1,,,,,,,,,,0,,73,43
5622,set_tempo,,26,1,0,,,,,,,857143,,,,,,
5623,note_on,,1,0,1,,,,,,,,,,0,,60,51
5626,note_on,,3,0,1,,,,,,,,,,0,,80,47
5627,note_on,,1,0,1,,,,,,,,,,0,,53,0
5635,note_on,,8,0,1,,,,,,,,,,0,,68,51
5638,note_on,,3,0,1,,,,,,,,,,0,,85,59
5639,note_on,,1,0,1,,,,,,,,,,0,,73,0
5646,note_on,,7,0,1,,,,,,,,,,0,,80,0
5647,note_on,,1,0,1,,,,,,,,,,0,,60,0
5649,note_on,,2,0,1,,,,,,,,,,0,,68,0
5670,note_on,,21,0,1,,,,,,,,,,0,,85,0
5674,note_on,,4,0,1,,,,,,,,,,0,,53,50
5680,note_on,,6,0,1,,,,,,,,,,0,,72,47
5682,note_on,,2,0,1,,,,,,,,,,0,,60,51
5687,note_on,,0,0,1,,,,,,,,,,0,,80,50
5687,note_on,,5,0,1,,,,,,,,,,0,,53,0
5693,note_on,,6,0,1,,,,,,,,,,0,,68,52
5698,note_on,,5,0,1,,,,,,,,,,0,,84,56
5702,note_on,,4,0,1,,,,,,,,,,0,,72,0
5707,note_on,,5,0,1,,,,,,,,,,0,,80,0
5709,note_on,,2,0,1,,,,,,,,,,0,,60,0
5709,note_on,,0,0,1,,,,,,,,,,0,,68,0
5727,note_on,,18,0,1,,,,,,,,,,0,,84,0
5732,note_on,,5,0,1,,,,,,,,,,0,,72,45
5733,control_change,,1,0,1,,,,,,,,64,0,0,,,
5736,note_on,,3,0,1,,,,,,,,,,0,,52,48
5740,control_change,,0,0,1,,,,,,,,64,127,0,,,
5740,note_on,,4,0,1,,,,,,,,,,0,,79,45
5744,note_on,,4,0,1,,,,,,,,,,0,,58,51
5747,note_on,,3,0,1,,,,,,,,,,0,,72,0
5747,note_on,,0,0,1,,,,,,,,,,0,,82,52
5751,note_on,,4,0,1,,,,,,,,,,0,,52,0
5751,note_on,,0,0,1,,,,,,,,,,0,,79,0
5753,note_on,,2,0,1,,,,,,,,,,0,,60,52
5755,note_on,,2,0,1,,,,,,,,,,0,,82,0
5757,note_on,,2,0,1,,,,,,,,,,0,,67,52
5762,note_on,,5,0,1,,,,,,,,,,0,,91,61
5765,note_on,,3,0,1,,,,,,,,,,0,,60,0
5768,note_on,,3,0,1,,,,,,,,,,0,,67,0
5769,note_on,,1,0,1,,,,,,,,,,0,,58,0
5771,note_on,,2,0,1,,,,,,,,,,0,,91,0
5796,note_on,,25,0,1,,,,,,,,,,0,,52,53
5801,note_on,,5,0,1,,,,,,,,,,0,,72,51
5804,note_on,,3,0,1,,,,,,,,,,0,,58,55
5808,note_on,,4,0,1,,,,,,,,,,0,,79,57
5810,note_on,,2,0,1,,,,,,,,,,0,,60,56
5811,note_on,,1,0,1,,,,,,,,,,0,,52,0
5811,note_on,,0,0,1,,,,,,,,,,0,,82,57
5817,note_on,,6,0,1,,,,,,,,,,0,,67,57
5822,note_on,,5,0,1,,,,,,,,,,0,,84,62
5825,note_on,,3,0,1,,,,,,,,,,0,,58,0
5826,note_on,,1,0,1,,,,,,,,,,0,,60,0
5828,note_on,,2,0,1,,,,,,,,,,0,,67,0
5831,note_on,,3,0,1,,,,,,,,,,0,,72,0
5832,note_on,,1,0,1,,,,,,,,,,0,,79,0
5842,note_on,,10,0,1,,,,,,,,,,0,,82,0
5854,note_on,,12,0,1,,,,,,,,,,0,,84,0
5854,note_on,,0,0,1,,,,,,,,,,0,,52,53
5863,note_on,,9,0,1,,,,,,,,,,0,,71,42
5863,note_on,,0,0,1,,,,,,,,,,0,,58,56
5867,note_on,,4,0,1,,,,,,,,,,0,,79,57
5868,note_on,,1,0,1,,,,,,,,,,0,,60,56
5870,note_on,,2,0,1,,,,,,,,,,0,,52,0
5874,note_on,,4,0,1,,,,,,,,,,0,,82,58
5877,note_on,,3,0,1,,,,,,,,,,0,,67,57
5881,note_on,,4,0,1,,,,,,,,,,0,,83,67
5885,note_on,,4,0,1,,,,,,,,,,0,,58,0
5886,note_on,,1,0,1,,,,,,,,,,0,,60,0
5886,note_on,,0,0,1,,,,,,,,,,0,,79,0
5888,note_on,,2,0,1,,,,,,,,,,0,,71,0
5889,note_on,,1,0,1,,,,,,,,,,0,,67,0
5896,note_on,,7,0,1,,,,,,,,,,0,,82,0
5911,note_on,,15,0,1,,,,,,,,,,0,,83,0
5919,note_on,,8,0,1,,,,,,,,,,0,,52,56
5921,note_on,,2,0,1,,,,,,,,,,0,,72,53
5925,note_on,,4,0,1,,,,,,,,,,0,,58,56
5926,note_on,,1,0,1,,,,,,,,,,0,,79,56
5931,note_on,,5,0,1,,,,,,,,,,0,,82,59
5933,note_on,,2,0,1,,,,,,,,,,0,,60,58
5935,note_on,,2,0,1,,,,,,,,,,0,,52,0
5940,note_on,,5,0,1,,,,,,,,,,0,,67,58
5941,note_on,,1,0,1,,,,,,,,,,0,,84,73
5949,note_on,,8,0,1,,,,,,,,,,0,,58,0
5952,note_on,,3,0,1,,,,,,,,,,0,,72,0
5952,note_on,,0,0,1,,,,,,,,,,0,,60,0
5952,note_on,,0,0,1,,,,,,,,,,0,,67,0
5953,note_on,,1,0,1,,,,,,,,,,0,,79,0
5962,note_on,,9,0,1,,,,,,,,,,0,,82,0
5972,note_on,,10,0,1,,,,,,,,,,0,,84,0
5978,note_on,,6,0,1,,,,,,,,,,0,,52,61
5985,note_on,,7,0,1,,,,,,,,,,0,,73,47
5987,note_on,,2,0,1,,,,,,,,,,0,,58,61
5988,note_on,,1,0,1,,,,,,,,,,0,,79,59
5990,note_on,,2,0,1,,,,,,,,,,0,,60,62
5992,note_on,,2,0,1,,,,,,,,,,0,,82,61
5993,note_on,,1,0,1,,,,,,,,,,0,,52,0
5999,note_on,,6,0,1,,,,,,,,,,0,,67,63
6002,note_on,,3,0,1,,,,,,,,,,0,,85,73
6003,note_on,,1,0,1,,,,,,,,,,0,,79,0
6006,note_on,,3,0,1,,,,,,,,,,0,,73,0
6011,note_on,,5,0,1,,,,,,,,,,0,,60,0
6011,note_on,,0,0,1,,,,,,,,,,0,,67,0
6013,note_on,,2,0,1,,,,,,,,,,0,,82,0
6014,note_on,,1,0,1,,,,,,,,,,0,,58,0
6031,note_on,,17,0,1,,,,,,,,,,0,,85,0
6037,note_on,,6,0,1,,,,,,,,,,0,,52,64
6041,note_on,,4,0,1,,,,,,,,,,0,,72,56
6045,note_on,,4,0,1,,,,,,,,,,0,,58,64
6047,note_on,,2,0,1,,,,,,,,,,0,,79,59
6051,note_on,,4,0,1,,,,,,,,,,0,,82,62
6051,note_on,,0,0,1,,,,,,,,,,0,,60,66
6054,note_on,,3,0,1,,,,,,,,,,0,,52,0
6058,note_on,,4,0,1,,,,,,,,,,0,,67,67
6065,note_on,,7,0,1,,,,,,,,,,0,,58,0
6065,note_on,,0,0,1,,,,,,,,,,0,,84,73
6067,note_on,,2,0,1,,,,,,,,,,0,,60,0
6068,note_on,,1,0,1,,,,,,,,,,0,,79,0
6069,note_on,,1,0,1,,,,,,,,,,0,,67,0
6070,note_on,,1,0,1,,,,,,,,,,0,,72,0
6076,note_on,,6,0,1,,,,,,,,,,0,,82,0
6082,note_on,,6,0,1,,,,,,,,,,0,,84,0
6096,note_on,,14,0,1,,,,,,,,,,0,,72,57
6103,note_on,,7,0,1,,,,,,,,,,0,,53,74
6105,note_on,,2,0,1,,,,,,,,,,0,,80,64
6108,control_change,,3,0,1,,,,,,,,64,0,0,,,
6109,note_on,,1,0,1,,,,,,,,,,0,,72,0
6113,note_on,,4,0,1,,,,,,,,,,0,,60,75
6114,note_on,,1,0,1,,,,,,,,,,0,,84,71
6115,control_change,,1,0,1,,,,,,,,64,127,0,,,
6120,note_on,,5,0,1,,,,,,,,,,0,,84,0
6120,note_on,,0,0,1,,,,,,,,,,0,,53,0
6121,note_on,,1,0,1,,,,,,,,,,0,,68,78
6122,note_on,,1,0,1,,,,,,,,,,0,,80,0
6128,note_on,,6,0,1,,,,,,,,,,0,,60,0
6129,note_on,,1,0,1,,,,,,,,,,0,,92,85
6136,note_on,,7,0,1,,,,,,,,,,0,,92,0
6136,note_on,,0,0,1,,,,,,,,,,0,,68,0
6161,note_on,,25,0,1,,,,,,,,,,0,,75,68
6162,note_on,,1,0,1,,,,,,,,,,0,,55,66
6167,note_on,,5,0,1,,,,,,,,,,0,,58,66
6169,note_on,,2,0,1,,,,,,,,,,0,,82,72
6170,control_change,,1,0,1,,,,,,,,64,0,0,,,
6173,note_on,,3,0,1,,,,,,,,,,0,,55,0
6175,control_change,,2,0,1,,,,,,,,64,127,0,,,
6177,note_on,,2,0,1,,,,,,,,,,0,,75,0
6177,note_on,,0,0,1,,,,,,,,,,0,,63,66
6180,note_on,,3,0,1,,,,,,,,,,0,,87,80
6183,note_on,,3,0,1,,,,,,,,,,0,,70,66
6185,note_on,,2,0,1,,,,,,,,,,0,,58,0
6187,note_on,,0,0,1,,,,,,,,,,0,,91,84
6187,note_on,,2,0,1,,,,,,,,,,0,,82,0
6190,note_on,,3,0,1,,,,,,,,,,0,,63,0
6198,note_on,,8,0,1,,,,,,,,,,0,,70,0
6198,note_on,,0,0,1,,,,,,,,,,0,,87,0
6203,note_on,,5,0,1,,,,,,,,,,0,,91,0
6223,note_on,,20,0,1,,,,,,,,,,0,,56,69
6224,note_on,,1,0,1,,,,,,,,,,0,,77,58
6228,control_change,,4,0,1,,,,,,,,64,0,0,,,
6229,note_on,,1,0,1,,,,,,,,,,0,,84,64
6230,note_on,,1,0,1,,,,,,,,,,0,,63,71
6232,note_on,,2,0,1,,,,,,,,,,0,,56,0
6235,control_change,,3,0,1,,,,,,,,64,127,0,,,
6236,note_on,,1,0,1,,,,,,,,,,0,,87,68
6240,note_on,,4,0,1,,,,,,,,,,0,,63,0
6242,note_on,,2,0,1,,,,,,,,,,0,,89,83
6242,note_on,,0,0,1,,,,,,,,,,0,,72,74
6247,note_on,,5,0,1,,,,,,,,,,0,,84,0
6249,note_on,,2,0,1,,,,,,,,,,0,,72,0
6250,note_on,,1,0,1,,,,,,,,,,0,,77,0
6258,note_on,,8,0,1,,,,,,,,,,0,,87,0
6265,note_on,,7,0,1,,,,,,,,,,0,,89,0
6278,note_on,,13,0,1,,,,,,,,,,0,,56,64
6287,note_on,,9,0,1,,,,,,,,,,0,,75,52
6292,note_on,,5,0,1,,,,,,,,,,0,,65,67
6293,note_on,,1,0,1,,,,,,,,,,0,,83,69
6295,note_on,,2,0,1,,,,,,,,,,0,,56,0
6296,note_on,,1,0,1,,,,,,,,,,0,,87,73
6299,note_on,,3,0,1,,,,,,,,,,0,,71,67
6302,note_on,,3,0,1,,,,,,,,,,0,,75,0
6306,note_on,,4,0,1,,,,,,,,,,0,,89,83
6312,note_on,,6,0,1,,,,,,,,,,0,,83,0
6312,note_on,,0,0,1,,,,,,,,,,0,,65,0
6317,note_on,,5,0,1,,,,,,,,,,0,,71,0
6319,note_on,,2,0,1,,,,,,,,,,0,,87,0
6322,note_on,,3,0,1,,,,,,,,,,0,,89,0
6342,note_on,,20,0,1,,,,,,,,,,0,,58,67
6343,note_on,,1,0,1,,,,,,,,,,0,,74,53
6350,note_on,,7,0,1,,,,,,,,,,0,,82,68
6352,note_on,,0,0,1,,,,,,,,,,0,,65,68
6352,control_change,,2,0,1,,,,,,,,64,0,0,,,
6358,note_on,,6,0,1,,,,,,,,,,0,,74,0
6359,note_on,,1,0,1,,,,,,,,,,0,,70,69
6360,control_change,,1,0,1,,,,,,,,64,127,0,,,
6362,note_on,,2,0,1,,,,,,,,,,0,,89,83
6367,note_on,,5,0,1,,,,,,,,,,0,,82,0
6368,note_on,,1,0,1,,,,,,,,,,0,,65,0
6369,note_on,,1,0,1,,,,,,,,,,0,,58,0
6375,note_on,,6,0,1,,,,,,,,,,0,,70,0
6376,note_on,,1,0,1,,,,,,,,,,0,,89,0
6390,set_tempo,,768,1,0,,,,,,,846262,,,,,,
6399,note_on,,23,0,1,,,,,,,,,,0,,74,62
6403,note_on,,4,0,1,,,,,,,,,,0,,58,66
6408,note_on,,5,0,1,,,,,,,,,,0,,80,72
6410,note_on,,2,0,1,,,,,,,,,,0,,74,0
6414,note_on,,4,0,1,,,,,,,,,,0,,65,67
6418,note_on,,4,0,1,,,,,,,,,,0,,80,0
6421,note_on,,3,0,1,,,,,,,,,,0,,91,83
6423,note_on,,2,0,1,,,,,,,,,,0,,68,68
6429,note_on,,6,0,1,,,,,,,,,,0,,91,0
6429,note_on,,0,0,1,,,,,,,,,,0,,58,0
6430,note_on,,1,0,1,,,,,,,,,,0,,65,0
6437,note_on,,7,0,1,,,,,,,,,,0,,68,0
6464,note_on,,27,0,1,,,,,,,,,,0,,75,64
6465,control_change,,1,0,1,,,,,,,,64,0,0,,,
6471,note_on,,6,0,1,,,,,,,,,,0,,79,77
6473,set_tempo,,83,1,0,,,,,,,857143,,,,,,
6474,note_on,,3,0,1,,,,,,,,,,0,,63,73
6475,control_change,,1,0,1,,,,,,,,64,127,0,,,
6480,note_on,,5,0,1,,,,,,,,,,0,,87,90
6480,note_on,,0,0,1,,,,,,,,,,0,,67,64
6488,note_on,,8,0,1,,,,,,,,,,0,,63,0
6491,note_on,,3,0,1,,,,,,,,,,0,,79,0
6492,note_on,,1,0,1,,,,,,,,,,0,,75,0
6496,note_on,,4,0,1,,,,,,,,,,0,,67,0
6498,note_on,,2,0,1,,,,,,,,,,0,,87,0
6523,control_change,,25,0,1,,,,,,,,64,0,0,,,
6524,note_on,,1,0,1,,,,,,,,,,0,,51,51
6525,note_on,,1,0,1,,,,,,,,,,0,,75,42
6529,control_change,,4,0,1,,,,,,,,64,127,0,,,
6531,note_on,,2,0,1,,,,,,,,,,0,,58,51
6533,note_on,,2,0,1,,,,,,,,,,0,,78,51
6534,note_on,,1,0,1,,,,,,,,,,0,,51,0
6536,set_tempo,,63,1,0,,,,,,,872093,,,,,,
6541,note_on,,0,0,1,,,,,,,,,,0,,66,59
6541,note_on,,7,0,1,,,,,,,,,,0,,87,61
6546,note_on,,5,0,1,,,,,,,,,,0,,75,0
6549,note_on,,3,0,1,,,,,,,,,,0,,78,0
6552,note_on,,0,0,1,,,,,,,,,,0,,58,0
6552,note_on,,3,0,1,,,,,,,,,,0,,66,0
6558,note_on,,6,0,1,,,,,,,,,,0,,87,0
6579,note_on,,21,0,1,,,,,,,,,,0,,51,48
6585,note_on,,6,0,1,,,,,,,,,,0,,71,46
6587,control_change,,2,0,1,,,,,,,,64,0,0,,,
6588,set_tempo,,52,1,0,,,,,,,909091,,,,,,
6589,note_on,,2,0,1,,,,,,,,,,0,,59,50
6591,note_on,,2,0,1,,,,,,,,,,0,,78,48
6595,note_on,,4,0,1,,,,,,,,,,0,,71,0
6596,note_on,,1,0,1,,,,,,,,,,0,,51,0
6597,control_change,,1,0,1,,,,,,,,64,127,0,,,
6598,note_on,,1,0,1,,,,,,,,,,0,,66,53
6602,note_on,,4,0,1,,,,,,,,,,0,,66,0
6604,note_on,,2,0,1,,,,,,,,,,0,,59,0
6605,note_on,,1,0,1,,,,,,,,,,0,,87,63
6606,set_tempo,,18,1,0,,,,,,,923077,,,,,,
6606,note_on,,1,0,1,,,,,,,,,,0,,78,0
6624,set_tempo,,18,1,0,,,,,,,937500,,,,,,
6624,note_on,,18,0,1,,,,,,,,,,0,,87,0
6640,set_tempo,,16,1,0,,,,,,,952381,,,,,,
6641,note_on,,17,0,1,,,,,,,,,,0,,52,47
6643,note_on,,2,0,1,,,,,,,,,,0,,68,46
6651,note_on,,8,0,1,,,,,,,,,,0,,76,51
6651,note_on,,0,0,1,,,,,,,,,,0,,61,51
6652,control_change,,1,0,1,,,,,,,,64,0,0,,,
6654,note_on,,2,0,1,,,,,,,,,,0,,68,0
6658,set_tempo,,18,1,0,,,,,,,967742,,,,,,
6659,note_on,,5,0,1,,,,,,,,,,0,,64,52
6660,note_on,,1,0,1,,,,,,,,,,0,,52,0
6661,control_change,,1,0,1,,,,,,,,64,127,0,,,
6662,note_on,,1,0,1,,,,,,,,,,0,,85,64
6666,note_on,,4,0,1,,,,,,,,,,0,,61,0
6667,note_on,,1,0,1,,,,,,,,,,0,,76,0
6668,set_tempo,,10,1,0,,,,,,,952381,,,,,,
6673,note_on,,6,0,1,,,,,,,,,,0,,64,0
6678,set_tempo,,10,1,0,,,,,,,937500,,,,,,
6680,note_on,,7,0,1,,,,,,,,,,0,,85,0
6686,set_tempo,,8,1,0,,,,,,,923077,,,,,,
6696,set_tempo,,10,1,0,,,,,,,909091,,,,,,
6704,set_tempo,,8,1,0,,,,,,,895522,,,,,,
6706,note_on,,26,0,1,,,,,,,,,,0,,54,52
6707,control_change,,0,0,1,,,,,,,,64,0,0,,,
6707,note_on,,1,0,1,,,,,,,,,,0,,66,50
6708,set_tempo,,4,1,0,,,,,,,1016949,,,,,,
6710,set_tempo,,2,1,0,,,,,,,882353,,,,,,
6712,note_on,,5,0,1,,,,,,,,,,0,,59,56
6716,note_on,,4,0,1,,,,,,,,,,0,,75,55
6716,control_change,,0,0,1,,,,,,,,64,127,0,,,
6716,note_on,,0,0,1,,,,,,,,,,0,,63,56
6723,note_on,,7,0,1,,,,,,,,,,0,,66,0
6723,note_on,,0,0,1,,,,,,,,,,0,,78,58
6724,set_tempo,,14,1,0,,,,,,,895522,,,,,,
6724,note_on,,1,0,1,,,,,,,,,,0,,54,0
6725,note_on,,1,0,1,,,,,,,,,,0,,59,0
6729,note_on,,4,0,1,,,,,,,,,,0,,75,0
6736,note_on,,7,0,1,,,,,,,,,,0,,63,0
6738,set_tempo,,14,1,0,,,,,,,909091,,,,,,
6739,note_on,,3,0,1,,,,,,,,,,0,,78,0
6752,set_tempo,,14,1,0,,,,,,,923077,,,,,,
6763,note_on,,24,0,1,,,,,,,,,,0,,66,45
6766,set_tempo,,14,1,0,,,,,,,937500,,,,,,
6767,note_on,,4,0,1,,,,,,,,,,0,,54,52
6769,note_on,,2,0,1,,,,,,,,,,0,,73,47
6769,control_change,,0,0,1,,,,,,,,64,0,0,,,
6773,note_on,,4,0,1,,,,,,,,,,0,,66,0
6775,note_on,,2,0,1,,,,,,,,,,0,,61,56
6778,set_tempo,,12,1,0,,,,,,,952381,,,,,,
6779,control_change,,4,0,1,,,,,,,,64,127,0,,,
6780,note_on,,1,0,1,,,,,,,,,,0,,82,61
6781,note_on,,1,0,1,,,,,,,,,,0,,73,0
6782,note_on,,1,0,1,,,,,,,,,,0,,64,57
6789,note_on,,7,0,1,,,,,,,,,,0,,54,0
6789,note_on,,0,0,1,,,,,,,,,,0,,61,0
6792,set_tempo,,14,1,0,,,,,,,967742,,,,,,
6793,note_on,,4,0,1,,,,,,,,,,0,,64,0
6797,note_on,,4,0,1,,,,,,,,,,0,,82,0
6806,set_tempo,,14,1,0,,,,,,,983607,,,,,,
6820,set_tempo,,14,1,0,,,,,,,1000000,,,,,,
6821,note_on,,24,0,1,,,,,,,,,,0,,66,43
6824,note_on,,3,0,1,,,,,,,,,,0,,47,51
6831,control_change,,7,0,1,,,,,,,,64,0,0,,,
6832,note_on,,0,0,1,,,,,,,,,,0,,75,50
6832,note_on,,1,0,1,,,,,,,,,,0,,66,0
6833,note_on,,1,0,1,,,,,,,,,,0,,54,53
6834,set_tempo,,14,1,0,,,,,,,1016949,,,,,,
6834,note_on,,1,0,1,,,,,,,,,,0,,47,0
6840,control_change,,6,0,1,,,,,,,,64,127,0,,,
6843,note_on,,3,0,1,,,,,,,,,,0,,83,58
6845,note_on,,2,0,1,,,,,,,,,,0,,75,0
6846,set_tempo,,12,1,0,,,,,,,1250000,,,,,,
6847,note_on,,2,0,1,,,,,,,,,,0,,63,58
6853,note_on,,6,0,1,,,,,,,,,,0,,54,0
6854,note_on,,1,0,1,,,,,,,,,,0,,63,0
6859,note_on,,5,0,1,,,,,,,,,,0,,83,0
6868,set_tempo,,22,1,0,,,,,,,952381,,,,,,
6885,note_on,,26,0,1,,,,,,,,,,0,,66,41
6886,note_on,,1,0,1,,,,,,,,,,0,,47,53
6891,note_on,,5,0,1,,,,,,,,,,0,,75,46
6894,note_on,,3,0,1,,,,,,,,,,0,,54,53
6896,note_on,,0,0,1,,,,,,,,,,0,,78,59
6896,note_on,,2,0,1,,,,,,,,,,0,,47,0
6906,set_tempo,,38,1,0,,,,,,,895522,,,,,,
6907,note_on,,11,0,1,,,,,,,,,,0,,63,55
6910,note_on,,3,0,1,,,,,,,,,,0,,54,0
6913,note_on,,3,0,1,,,,,,,,,,0,,63,0
6920,note_on,,7,0,1,,,,,,,,,,0,,75,0
6922,note_on,,2,0,1,,,,,,,,,,0,,78,0
6924,note_on,,2,0,1,,,,,,,,,,0,,66,0
6942,note_on,,18,0,1,,,,,,,,,,0,,47,53
6944,note_on,,2,0,1,,,,,,,,,,0,,65,43
6950,note_on,,6,0,1,,,,,,,,,,0,,75,46
6951,note_on,,1,0,1,,,,,,,,,,0,,47,0
6952,note_on,,1,0,1,,,,,,,,,,0,,54,56
6959,note_on,,7,0,1,,,,,,,,,,0,,77,63
6963,set_tempo,,57,1,0,,,,,,,886263,,,,,,
6963,note_on,,4,0,1,,,,,,,,,,0,,63,57
6970,note_on,,7,0,1,,,,,,,,,,0,,63,0
6971,note_on,,1,0,1,,,,,,,,,,0,,54,0
6972,note_on,,1,0,1,,,,,,,,,,0,,65,0
6979,note_on,,7,0,1,,,,,,,,,,0,,77,0
6982,note_on,,3,0,1,,,,,,,,,,0,,75,0
6998,note_on,,16,0,1,,,,,,,,,,0,,47,52
7005,note_on,,7,0,1,,,,,,,,,,0,,66,46
7008,note_on,,0,0,1,,,,,,,,,,0,,54,56
7008,note_on,,3,0,1,,,,,,,,,,0,,47,0
7010,note_on,,2,0,1,,,,,,,,,,0,,75,50
7021,note_on,,11,0,1,,,,,,,,,,0,,63,57
7022,note_on,,1,0,1,,,,,,,,,,0,,78,62
7029,note_on,,7,0,1,,,,,,,,,,0,,63,0
7030,note_on,,1,0,1,,,,,,,,,,0,,54,0
7033,set_tempo,,70,1,0,,,,,,,870827,,,,,,
7040,note_on,,10,0,1,,,,,,,,,,0,,75,0
7043,note_on,,3,0,1,,,,,,,,,,0,,78,0
7046,note_on,,3,0,1,,,,,,,,,,0,,66,0
7055,note_on,,9,0,1,,,,,,,,,,0,,45,56
7064,control_change,,9,0,1,,,,,,,,64,0,0,,,
7066,note_on,,2,0,1,,,,,,,,,,0,,66,46
7067,note_on,,1,0,1,,,,,,,,,,0,,45,0
7067,note_on,,0,0,1,,,,,,,,,,0,,54,58
7071,control_change,,4,0,1,,,,,,,,64,127,0,,,
7076,note_on,,5,0,1,,,,,,,,,,0,,75,51
7080,note_on,,4,0,1,,,,,,,,,,0,,63,61
7083,note_on,,3,0,1,,,,,,,,,,0,,80,59
7089,note_on,,6,0,1,,,,,,,,,,0,,54,0
7090,note_on,,1,0,1,,,,,,,,,,0,,63,0
7093,note_on,,3,0,1,,,,,,,,,,0,,66,0
7095,note_on,,2,0,1,,,,,,,,,,0,,75,0
7111,note_on,,16,0,1,,,,,,,,,,0,,80,0
7120,note_on,,9,0,1,,,,,,,,,,0,,45,55
7128,note_on,,8,0,1,,,,,,,,,,0,,66,45
7130,set_tempo,,97,1,0,,,,,,,853485,,,,,,
7131,note_on,,3,0,1,,,,,,,,,,0,,45,0
7132,note_on,,1,0,1,,,,,,,,,,0,,54,55
7135,note_on,,3,0,1,,,,,,,,,,0,,73,50
7141,note_on,,6,0,1,,,,,,,,,,0,,61,56
7144,note_on,,3,0,1,,,,,,,,,,0,,81,61
7146,note_on,,2,0,1,,,,,,,,,,0,,54,0
7147,note_on,,1,0,1,,,,,,,,,,0,,61,0
7153,note_on,,6,0,1,,,,,,,,,,0,,66,0
7156,note_on,,3,0,1,,,,,,,,,,0,,73,0
7167,note_on,,11,0,1,,,,,,,,,,0,,81,0
7181,note_on,,14,0,1,,,,,,,,,,0,,44,56
7184,note_on,,3,0,1,,,,,,,,,,0,,66,45
7190,control_change,,6,0,1,,,,,,,,64,0,0,,,
7191,note_on,,1,0,1,,,,,,,,,,0,,54,56
7193,note_on,,2,0,1,,,,,,,,,,0,,44,0
7195,note_on,,2,0,1,,,,,,,,,,0,,72,48
7198,control_change,,3,0,1,,,,,,,,64,127,0,,,
7202,note_on,,4,0,1,,,,,,,,,,0,,60,56
7206,note_on,,4,0,1,,,,,,,,,,0,,81,63
7213,note_on,,7,0,1,,,,,,,,,,0,,60,0
7213,note_on,,0,0,1,,,,,,,,,,0,,54,0
7216,note_on,,3,0,1,,,,,,,,,,0,,66,0
7217,note_on,,1,0,1,,,,,,,,,,0,,72,0
7222,note_on,,5,0,1,,,,,,,,,,0,,81,0
7243,note_on,,21,0,1,,,,,,,,,,0,,44,47
7246,note_on,,3,0,1,,,,,,,,,,0,,66,37
7252,note_on,,6,0,1,,,,,,,,,,0,,54,50
7253,note_on,,1,0,1,,,,,,,,,,0,,44,0
7253,note_on,,0,0,1,,,,,,,,,,0,,72,46
7260,note_on,,7,0,1,,,,,,,,,,0,,80,61
7266,note_on,,6,0,1,,,,,,,,,,0,,60,62
7273,note_on,,7,0,1,,,,,,,,,,0,,66,0
7275,note_on,,2,0,1,,,,,,,,,,0,,72,0
7277,note_on,,2,0,1,,,,,,,,,,0,,54,0
7278,note_on,,1,0,1,,,,,,,,,,0,,60,0
7284,note_on,,6,0,1,,,,,,,,,,0,,80,0
7298,note_on,,14,0,1,,,,,,,,,,0,,66,46
7302,note_on,,4,0,1,,,,,,,,,,0,,44,53
7306,note_on,,4,0,1,,,,,,,,,,0,,72,48
7308,note_on,,2,0,1,,,,,,,,,,0,,54,55
7310,note_on,,2,0,1,,,,,,,,,,0,,44,0
7314,note_on,,4,0,1,,,,,,,,,,0,,79,59
7318,note_on,,4,0,1,,,,,,,,,,0,,60,62
7326,set_tempo,,196,1,0,,,,,,,843882,,,,,,
7329,note_on,,0,0,1,,,,,,,,,,0,,72,0
7329,note_on,,0,0,1,,,,,,,,,,0,,66,0
7329,note_on,,11,0,1,,,,,,,,,,0,,60,0
7330,note_on,,1,0,1,,,,,,,,,,0,,54,0
7333,note_on,,3,0,1,,,,,,,,,,0,,79,0
7357,note_on,,24,0,1,,,,,,,,,,0,,44,53
7358,note_on,,1,0,1,,,,,,,,,,0,,66,50
7362,note_on,,4,0,1,,,,,,,,,,0,,54,55
7364,note_on,,2,0,1,,,,,,,,,,0,,44,0
7367,note_on,,3,0,1,,,,,,,,,,0,,72,55
7371,note_on,,4,0,1,,,,,,,,,,0,,60,64
7376,note_on,,5,0,1,,,,,,,,,,0,,80,59
7378,note_on,,2,0,1,,,,,,,,,,0,,54,0
7380,note_on,,2,0,1,,,,,,,,,,0,,60,0
7385,note_on,,5,0,1,,,,,,,,,,0,,72,0
7386,note_on,,1,0,1,,,,,,,,,,0,,66,0
7395,note_on,,9,0,1,,,,,,,,,,0,,80,0
7415,note_on,,20,0,1,,,,,,,,,,0,,68,56
7415,note_on,,0,0,1,,,,,,,,,,0,,48,56
7418,control_change,,3,0,1,,,,,,,,64,0,0,,,
7423,note_on,,5,0,1,,,,,,,,,,0,,56,56
7425,note_on,,2,0,1,,,,,,,,,,0,,48,0
7426,note_on,,1,0,1,,,,,,,,,,0,,78,61
7428,control_change,,2,0,1,,,,,,,,64,127,0,,,
7430,note_on,,2,0,1,,,,,,,,,,0,,68,0
7436,note_on,,6,0,1,,,,,,,,,,0,,66,65
7438,note_on,,2,0,1,,,,,,,,,,0,,78,0
7439,note_on,,1,0,1,,,,,,,,,,0,,85,71
7444,note_on,,5,0,1,,,,,,,,,,0,,66,0
7447,note_on,,0,0,1,,,,,,,,,,0,,56,0
7447,note_on,,3,0,1,,,,,,,,,,0,,85,0
7474,note_on,,27,0,1,,,,,,,,,,0,,48,59
7479,note_on,,5,0,1,,,,,,,,,,0,,68,59
7481,note_on,,2,0,1,,,,,,,,,,0,,56,61
7482,note_on,,1,0,1,,,,,,,,,,0,,48,0
7486,note_on,,4,0,1,,,,,,,,,,0,,78,64
7488,note_on,,2,0,1,,,,,,,,,,0,,68,0
7494,note_on,,6,0,1,,,,,,,,,,0,,78,0
7497,note_on,,3,0,1,,,,,,,,,,0,,66,64
7501,note_on,,4,0,1,,,,,,,,,,0,,87,73
7505,note_on,,4,0,1,,,,,,,,,,0,,66,0
7507,note_on,,2,0,1,,,,,,,,,,0,,87,0
7508,note_on,,1,0,1,,,,,,,,,,0,,56,0
7536,control_change,,28,0,1,,,,,,,,64,0,0,,,
7538,note_on,,2,0,1,,,,,,,,,,0,,68,61
7539,note_on,,1,0,1,,,,,,,,,,0,,49,57
7540,set_tempo,,214,1,0,,,,,,,831025,,,,,,
7544,note_on,,5,0,1,,,,,,,,,,0,,56,59
7546,control_change,,2,0,1,,,,,,,,64,127,0,,,
7548,note_on,,2,0,1,,,,,,,,,,0,,49,0
7549,note_on,,1,0,1,,,,,,,,,,0,,68,0
7551,note_on,,2,0,1,,,,,,,,,,0,,76,64
7554,note_on,,3,0,1,,,,,,,,,,0,,76,0
7555,note_on,,1,0,1,,,,,,,,,,0,,64,64
7560,note_on,,5,0,1,,,,,,,,,,0,,88,74
7563,note_on,,3,0,1,,,,,,,,,,0,,56,0
7566,note_on,,3,0,1,,,,,,,,,,0,,88,0
7566,note_on,,0,0,1,,,,,,,,,,0,,64,0
7598,note_on,,32,0,1,,,,,,,,,,0,,49,50
7605,note_on,,7,0,1,,,,,,,,,,0,,68,42
7609,note_on,,4,0,1,,,,,,,,,,0,,56,52
7612,note_on,,3,0,1,,,,,,,,,,0,,49,0
7614,note_on,,2,0,1,,,,,,,,,,0,,76,51
7619,note_on,,5,0,1,,,,,,,,,,0,,64,58
7622,note_on,,3,0,1,,,,,,,,,,0,,80,62
7632,note_on,,0,0,1,,,,,,,,,,0,,56,0
7632,note_on,,10,0,1,,,,,,,,,,0,,64,0
7635,note_on,,3,0,1,,,,,,,,,,0,,68,0
7637,note_on,,2,0,1,,,,,,,,,,0,,76,0
7641,note_on,,4,0,1,,,,,,,,,,0,,80,0
7657,note_on,,16,0,1,,,,,,,,,,0,,49,51
7660,note_on,,3,0,1,,,,,,,,,,0,,67,45
7667,note_on,,7,0,1,,,,,,,,,,0,,56,53
7671,note_on,,4,0,1,,,,,,,,,,0,,49,0
7671,note_on,,0,0,1,,,,,,,,,,0,,76,50
7678,note_on,,7,0,1,,,,,,,,,,0,,64,57
7682,note_on,,4,0,1,,,,,,,,,,0,,79,62
7686,note_on,,4,0,1,,,,,,,,,,0,,56,0
7687,note_on,,1,0,1,,,,,,,,,,0,,67,0
7690,note_on,,3,0,1,,,,,,,,,,0,,64,0
7691,note_on,,1,0,1,,,,,,,,,,0,,76,0
7697,note_on,,6,0,1,,,,,,,,,,0,,79,0
7717,note_on,,20,0,1,,,,,,,,,,0,,49,56
7724,note_on,,7,0,1,,,,,,,,,,0,,68,42
7728,note_on,,4,0,1,,,,,,,,,,0,,56,57
7730,note_on,,2,0,1,,,,,,,,,,0,,76,50
7732,note_on,,2,0,1,,,,,,,,,,0,,49,0
7738,note_on,,6,0,1,,,,,,,,,,0,,64,57
7743,note_on,,5,0,1,,,,,,,,,,0,,80,59
7744,note_on,,1,0,1,,,,,,,,,,0,,56,0
7747,note_on,,3,0,1,,,,,,,,,,0,,64,0
7751,note_on,,4,0,1,,,,,,,,,,0,,68,0
7753,note_on,,2,0,1,,,,,,,,,,0,,76,0
7753,set_tempo,,213,1,0,,,,,,,823045,,,,,,
7760,note_on,,7,0,1,,,,,,,,,,0,,80,0
7777,note_on,,17,0,1,,,,,,,,,,0,,47,52
7779,note_on,,2,0,1,,,,,,,,,,0,,68,45
7781,control_change,,2,0,1,,,,,,,,64,0,0,,,
7788,note_on,,7,0,1,,,,,,,,,,0,,47,0
7788,control_change,,0,0,1,,,,,,,,64,127,0,,,
7789,note_on,,1,0,1,,,,,,,,,,0,,56,53
7792,note_on,,3,0,1,,,,,,,,,,0,,76,51
7800,note_on,,8,0,1,,,,,,,,,,0,,64,54
7801,note_on,,1,0,1,,,,,,,,,,0,,82,59
7809,note_on,,0,0,1,,,,,,,,,,0,,56,0
7809,note_on,,8,0,1,,,,,,,,,,0,,76,0
7810,note_on,,1,0,1,,,,,,,,,,0,,68,0
7811,note_on,,1,0,1,,,,,,,,,,0,,64,0
7821,note_on,,10,0,1,,,,,,,,,,0,,82,0
7837,note_on,,16,0,1,,,,,,,,,,0,,47,48
7840,note_on,,3,0,1,,,,,,,,,,0,,68,47
7849,note_on,,9,0,1,,,,,,,,,,0,,56,50
7850,note_on,,1,0,1,,,,,,,,,,0,,47,0
7850,note_on,,0,0,1,,,,,,,,,,0,,75,51
7860,note_on,,10,0,1,,,,,,,,,,0,,83,61
7860,note_on,,0,0,1,,,,,,,,,,0,,63,58
7866,note_on,,6,0,1,,,,,,,,,,0,,56,0
7867,note_on,,1,0,1,,,,,,,,,,0,,68,0
7867,note_on,,0,0,1,,,,,,,,,,0,,75,0
7868,note_on,,1,0,1,,,,,,,,,,0,,63,0
7879,note_on,,11,0,1,,,,,,,,,,0,,83,0
7896,note_on,,17,0,1,,,,,,,,,,0,,46,53
7899,note_on,,3,0,1,,,,,,,,,,0,,68,45
7906,control_change,,7,0,1,,,,,,,,64,0,0,,,
7909,note_on,,0,0,1,,,,,,,,,,0,,56,55
7909,note_on,,3,0,1,,,,,,,,,,0,,46,0
7911,note_on,,2,0,1,,,,,,,,,,0,,74,51
7915,control_change,,4,0,1,,,,,,,,64,127,0,,,
7919,note_on,,4,0,1,,,,,,,,,,0,,62,59
7920,note_on,,1,0,1,,,,,,,,,,0,,83,61
7927,note_on,,7,0,1,,,,,,,,,,0,,56,0
7928,note_on,,1,0,1,,,,,,,,,,0,,68,0
7931,note_on,,3,0,1,,,,,,,,,,0,,62,0
7931,note_on,,0,0,1,,,,,,,,,,0,,74,0
7942,note_on,,11,0,1,,,,,,,,,,0,,83,0
7956,note_on,,14,0,1,,,,,,,,,,0,,46,55
7967,note_on,,11,0,1,,,,,,,,,,0,,68,51
7968,note_on,,1,0,1,,,,,,,,,,0,,46,0
7968,note_on,,0,0,1,,,,,,,,,,0,,56,56
7975,note_on,,7,0,1,,,,,,,,,,0,,74,56
7978,note_on,,3,0,1,,,,,,,,,,0,,62,51
7984,note_on,,6,0,1,,,,,,,,,,0,,82,63
7987,note_on,,3,0,1,,,,,,,,,,0,,56,0
7989,note_on,,2,0,1,,,,,,,,,,0,,62,0
7995,note_on,,6,0,1,,,,,,,,,,0,,74,0
7999,note_on,,4,0,1,,,,,,,,,,0,,68,0
8007,note_on,,8,0,1,,,,,,,,,,0,,82,0
8015,note_on,,8,0,1,,,,,,,,,,0,,46,47
8025,note_on,,10,0,1,,,,,,,,,,0,,68,48
8028,note_on,,3,0,1,,,,,,,,,,0,,56,50
8029,note_on,,1,0,1,,,,,,,,,,0,,46,0
8033,note_on,,4,0,1,,,,,,,,,,0,,74,53
8038,note_on,,5,0,1,,,,,,,,,,0,,62,54
8041,note_on,,3,0,1,,,,,,,,,,0,,81,62
8048,note_on,,7,0,1,,,,,,,,,,0,,56,0
8051,note_on,,3,0,1,,,,,,,,,,0,,62,0
8053,note_on,,2,0,1,,,,,,,,,,0,,68,0
8056,note_on,,3,0,1,,,,,,,,,,0,,74,0
8064,note_on,,8,0,1,,,,,,,,,,0,,81,0
8076,note_on,,12,0,1,,,,,,,,,,0,,46,53
8085,note_on,,9,0,1,,,,,,,,,,0,,68,52
8087,note_on,,2,0,1,,,,,,,,,,0,,56,55
8089,note_on,,2,0,1,,,,,,,,,,0,,46,0
8094,note_on,,5,0,1,,,,,,,,,,0,,74,59
8098,note_on,,4,0,1,,,,,,,,,,0,,62,57
8103,note_on,,5,0,1,,,,,,,,,,0,,82,64
8104,note_on,,1,0,1,,,,,,,,,,0,,56,0
8107,note_on,,3,0,1,,,,,,,,,,0,,62,0
8111,note_on,,4,0,1,,,,,,,,,,0,,74,0
8112,note_on,,1,0,1,,,,,,,,,,0,,68,0
8125,note_on,,13,0,1,,,,,,,,,,0,,82,0
8135,note_on,,10,0,1,,,,,,,,,,0,,50,52
8141,note_on,,6,0,1,,,,,,,,,,0,,70,52
8143,note_on,,2,0,1,,,,,,,,,,0,,58,53
8144,control_change,,1,0,1,,,,,,,,64,0,0,,,
8145,note_on,,1,0,1,,,,,,,,,,0,,50,0
8154,note_on,,9,0,1,,,,,,,,,,0,,70,0
8154,note_on,,0,0,1,,,,,,,,,,0,,80,57
8154,control_change,,0,0,1,,,,,,,,64,127,0,,,
8157,note_on,,3,0,1,,,,,,,,,,0,,68,64
8162,note_on,,5,0,1,,,,,,,,,,0,,80,0
8163,note_on,,1,0,1,,,,,,,,,,0,,58,0
8163,note_on,,0,0,1,,,,,,,,,,0,,87,63
8164,note_on,,1,0,1,,,,,,,,,,0,,68,0
8170,note_on,,6,0,1,,,,,,,,,,0,,87,0
8195,note_on,,25,0,1,,,,,,,,,,0,,50,50
8202,note_on,,7,0,1,,,,,,,,,,0,,58,51
8203,note_on,,1,0,1,,,,,,,,,,0,,50,0
8207,note_on,,4,0,1,,,,,,,,,,0,,70,50
8211,note_on,,4,0,1,,,,,,,,,,0,,80,52
8213,note_on,,2,0,1,,,,,,,,,,0,,70,0
8214,note_on,,1,0,1,,,,,,,,,,0,,68,67
8220,note_on,,6,0,1,,,,,,,,,,0,,80,0
8224,note_on,,4,0,1,,,,,,,,,,0,,68,0
8227,note_on,,3,0,1,,,,,,,,,,0,,58,0
8227,note_on,,0,0,1,,,,,,,,,,0,,89,67
8237,note_on,,10,0,1,,,,,,,,,,0,,89,0
8262,note_on,,25,0,1,,,,,,,,,,0,,51,52
8263,control_change,,1,0,1,,,,,,,,64,0,0,,,
8267,note_on,,4,0,1,,,,,,,,,,0,,70,59
8273,control_change,,6,0,1,,,,,,,,64,127,0,,,
8273,note_on,,0,0,1,,,,,,,,,,0,,58,55
8274,note_on,,1,0,1,,,,,,,,,,0,,51,0
8275,note_on,,1,0,1,,,,,,,,,,0,,78,61
8276,note_on,,1,0,1,,,,,,,,,,0,,70,0
8280,note_on,,4,0,1,,,,,,,,,,0,,78,0
8282,note_on,,2,0,1,,,,,,,,,,0,,66,59
8288,note_on,,6,0,1,,,,,,,,,,0,,90,74
8290,note_on,,2,0,1,,,,,,,,,,0,,58,0
8291,note_on,,1,0,1,,,,,,,,,,0,,66,0
8293,note_on,,2,0,1,,,,,,,,,,0,,90,0
8324,note_on,,31,0,1,,,,,,,,,,0,,51,55
8329,note_on,,5,0,1,,,,,,,,,,0,,70,39
8335,note_on,,6,0,1,,,,,,,,,,0,,58,56
8336,note_on,,1,0,1,,,,,,,,,,0,,78,48
8337,note_on,,1,0,1,,,,,,,,,,0,,51,0
8342,note_on,,5,0,1,,,,,,,,,,0,,66,57
8343,note_on,,1,0,1,,,,,,,,,,0,,82,53
8351,note_on,,8,0,1,,,,,,,,,,0,,58,0
8354,note_on,,3,0,1,,,,,,,,,,0,,66,0
8357,note_on,,3,0,1,,,,,,,,,,0,,70,0
8361,note_on,,4,0,1,,,,,,,,,,0,,78,0
8361,note_on,,0,0,1,,,,,,,,,,0,,82,0
8381,note_on,,20,0,1,,,,,,,,,,0,,51,53
8389,note_on,,8,0,1,,,,,,,,,,0,,69,41
8389,note_on,,0,0,1,,,,,,,,,,0,,58,55
8394,note_on,,5,0,1,,,,,,,,,,0,,51,0
8395,note_on,,1,0,1,,,,,,,,,,0,,78,50
8400,note_on,,5,0,1,,,,,,,,,,0,,66,53
8402,note_on,,2,0,1,,,,,,,,,,0,,81,57
8410,note_on,,0,0,1,,,,,,,,,,0,,58,0
8410,note_on,,0,0,1,,,,,,,,,,0,,69,0
8410,note_on,,8,0,1,,,,,,,,,,0,,66,0
8418,note_on,,8,0,1,,,,,,,,,,0,,78,0
8420,note_on,,2,0,1,,,,,,,,,,0,,81,0
8438,note_on,,18,0,1,,,,,,,,,,0,,51,55
8448,note_on,,10,0,1,,,,,,,,,,0,,58,55
8451,note_on,,3,0,1,,,,,,,,,,0,,70,42
8452,note_on,,1,0,1,,,,,,,,,,0,,51,0
8455,note_on,,3,0,1,,,,,,,,,,0,,78,45
8457,note_on,,2,0,1,,,,,,,,,,0,,66,64
8462,note_on,,5,0,1,,,,,,,,,,0,,58,0
8464,note_on,,2,0,1,,,,,,,,,,0,,82,56
8466,note_on,,2,0,1,,,,,,,,,,0,,66,0
8474,note_on,,8,0,1,,,,,,,,,,0,,70,0
8479,note_on,,5,0,1,,,,,,,,,,0,,78,0
8481,note_on,,2,0,1,,,,,,,,,,0,,82,0
8499,note_on,,18,0,1,,,,,,,,,,0,,49,53
8501,control_change,,2,0,1,,,,,,,,64,0,0,,,
8508,note_on,,7,0,1,,,,,,,,,,0,,58,55
8509,note_on,,1,0,1,,,,,,,,,,0,,49,0
8510,note_on,,1,0,1,,,,,,,,,,0,,71,41
8510,control_change,,0,0,1,,,,,,,,64,127,0,,,
8517,note_on,,7,0,1,,,,,,,,,,0,,77,47
8519,note_on,,2,0,1,,,,,,,,,,0,,65,59
8525,note_on,,6,0,1,,,,,,,,,,0,,83,62
8531,note_on,,6,0,1,,,,,,,,,,0,,65,0
8532,note_on,,1,0,1,,,,,,,,,,0,,58,0
8533,note_on,,1,0,1,,,,,,,,,,0,,71,0
8537,note_on,,4,0,1,,,,,,,,,,0,,77,0
8542,note_on,,5,0,1,,,,,,,,,,0,,83,0
8557,note_on,,15,0,1,,,,,,,,,,0,,49,57
8567,note_on,,10,0,1,,,,,,,,,,0,,70,41
8568,note_on,,1,0,1,,,,,,,,,,0,,49,0
8569,note_on,,1,0,1,,,,,,,,,,0,,58,59
8575,note_on,,6,0,1,,,,,,,,,,0,,77,41
8578,note_on,,3,0,1,,,,,,,,,,0,,65,56
8580,note_on,,2,0,1,,,,,,,,,,0,,70,0
8585,note_on,,5,0,1,,,,,,,,,,0,,85,57
8587,note_on,,2,0,1,,,,,,,,,,0,,77,0
8588,note_on,,1,0,1,,,,,,,,,,0,,65,0
8594,note_on,,6,0,1,,,,,,,,,,0,,58,0
8599,note_on,,5,0,1,,,,,,,,,,0,,85,0
8620,control_change,,21,0,1,,,,,,,,64,0,0,,,
8624,note_on,,4,0,1,,,,,,,,,,0,,66,45
8625,note_on,,1,0,1,,,,,,,,,,0,,47,57
8630,note_on,,5,0,1,,,,,,,,,,0,,75,50
8631,note_on,,1,0,1,,,,,,,,,,0,,66,0
8632,control_change,,1,0,1,,,,,,,,64,127,0,,,
8634,note_on,,2,0,1,,,,,,,,,,0,,54,61
8635,note_on,,1,0,1,,,,,,,,,,0,,47,0
8638,note_on,,3,0,1,,,,,,,,,,0,,75,0
8646,note_on,,8,0,1,,,,,,,,,,0,,87,58
8647,note_on,,1,0,1,,,,,,,,,,0,,63,58
8652,note_on,,5,0,1,,,,,,,,,,0,,87,0
8653,note_on,,1,0,1,,,,,,,,,,0,,54,0
8655,note_on,,2,0,1,,,,,,,,,,0,,63,0
8686,note_on,,31,0,1,,,,,,,,,,0,,47,63
8689,note_on,,3,0,1,,,,,,,,,,0,,66,50
8694,note_on,,5,0,1,,,,,,,,,,0,,47,0
8694,note_on,,0,0,1,,,,,,,,,,0,,54,66
8697,note_on,,3,0,1,,,,,,,,,,0,,75,52
8704,note_on,,7,0,1,,,,,,,,,,0,,78,59
8706,note_on,,2,0,1,,,,,,,,,,0,,63,59
8713,note_on,,7,0,1,,,,,,,,,,0,,54,0
8714,note_on,,1,0,1,,,,,,,,,,0,,66,0
8715,note_on,,1,0,1,,,,,,,,,,0,,75,0
8716,note_on,,1,0,1,,,,,,,,,,0,,63,0
8723,note_on,,7,0,1,,,,,,,,,,0,,78,0
8742,note_on,,19,0,1,,,,,,,,,,0,,47,63
8747,note_on,,5,0,1,,,,,,,,,,0,,65,48
8751,note_on,,4,0,1,,,,,,,,,,0,,54,66
8752,note_on,,1,0,1,,,,,,,,,,0,,47,0
8757,note_on,,5,0,1,,,,,,,,,,0,,75,53
8763,set_tempo,,1010,1,0,,,,,,,829876,,,,,,
8764,note_on,,7,0,1,,,,,,,,,,0,,77,64
8764,note_on,,0,0,1,,,,,,,,,,0,,63,61
8772,note_on,,8,0,1,,,,,,,,,,0,,54,0
8773,note_on,,1,0,1,,,,,,,,,,0,,63,0
8774,note_on,,1,0,1,,,,,,,,,,0,,65,0
8779,note_on,,5,0,1,,,,,,,,,,0,,77,0
8780,note_on,,1,0,1,,,,,,,,,,0,,75,0
8802,note_on,,22,0,1,,,,,,,,,,0,,47,62
8808,note_on,,6,0,1,,,,,,,,,,0,,66,55
8811,note_on,,3,0,1,,,,,,,,,,0,,47,0
8811,note_on,,0,0,1,,,,,,,,,,0,,54,63
8814,note_on,,3,0,1,,,,,,,,,,0,,75,59
8823,note_on,,9,0,1,,,,,,,,,,0,,63,59
8825,note_on,,2,0,1,,,,,,,,,,0,,78,69
8830,note_on,,5,0,1,,,,,,,,,,0,,54,0
8831,note_on,,1,0,1,,,,,,,,,,0,,63,0
8835,note_on,,4,0,1,,,,,,,,,,0,,66,0
8837,note_on,,2,0,1,,,,,,,,,,0,,75,0
8843,note_on,,6,0,1,,,,,,,,,,0,,78,0
8863,note_on,,20,0,1,,,,,,,,,,0,,46,64
8863,set_tempo,,100,1,0,,,,,,,842697,,,,,,
8865,note_on,,2,0,1,,,,,,,,,,0,,66,55
8866,control_change,,1,0,1,,,,,,,,64,0,0,,,
8872,note_on,,6,0,1,,,,,,,,,,0,,75,59
8872,note_on,,0,0,1,,,,,,,,,,0,,54,61
8873,note_on,,1,0,1,,,,,,,,,,0,,46,0
8875,control_change,,2,0,1,,,,,,,,64,127,0,,,
8882,note_on,,0,0,1,,,,,,,,,,0,,63,72
8882,note_on,,7,0,1,,,,,,,,,,0,,80,68
8892,note_on,,0,0,1,,,,,,,,,,0,,66,0
8892,note_on,,10,0,1,,,,,,,,,,0,,63,0
8893,note_on,,1,0,1,,,,,,,,,,0,,75,0
8896,note_on,,3,0,1,,,,,,,,,,0,,54,0
8899,note_on,,3,0,1,,,,,,,,,,0,,80,0
8920,note_on,,21,0,1,,,,,,,,,,0,,66,55
8923,note_on,,3,0,1,,,,,,,,,,0,,46,68
8929,note_on,,6,0,1,,,,,,,,,,0,,73,58
8930,note_on,,1,0,1,,,,,,,,,,0,,46,0
8933,note_on,,3,0,1,,,,,,,,,,0,,54,67
8934,note_on,,1,0,1,,,,,,,,,,0,,66,0
8939,note_on,,5,0,1,,,,,,,,,,0,,61,67
8941,note_on,,2,0,1,,,,,,,,,,0,,82,71
8946,note_on,,5,0,1,,,,,,,,,,0,,73,0
8947,note_on,,1,0,1,,,,,,,,,,0,,54,0
8949,note_on,,2,0,1,,,,,,,,,,0,,61,0
8954,note_on,,5,0,1,,,,,,,,,,0,,82,0
8956,set_tempo,,93,1,0,,,,,,,819672,,,,,,
8979,note_on,,25,0,1,,,,,,,,,,0,,63,61
8985,note_on,,6,0,1,,,,,,,,,,0,,71,63
8986,note_on,,0,0,1,,,,,,,,,,0,,44,77
8986,note_on,,1,0,1,,,,,,,,,,0,,63,0
8989,control_change,,3,0,1,,,,,,,,64,0,0,,,
8992,note_on,,3,0,1,,,,,,,,,,0,,71,0
8994,note_on,,2,0,1,,,,,,,,,,0,,51,79
8998,note_on,,4,0,1,,,,,,,,,,0,,44,0
8998,control_change,,0,0,1,,,,,,,,64,127,0,,,
9000,note_on,,2,0,1,,,,,,,,,,0,,83,74
9003,note_on,,3,0,1,,,,,,,,,,0,,59,70
9009,note_on,,6,0,1,,,,,,,,,,0,,83,0
9015,note_on,,6,0,1,,,,,,,,,,0,,51,0
9017,note_on,,2,0,1,,,,,,,,,,0,,59,0
9039,note_on,,22,0,1,,,,,,,,,,0,,63,50
9041,note_on,,2,0,1,,,,,,,,,,0,,44,62
9049,note_on,,8,0,1,,,,,,,,,,0,,71,58
9050,set_tempo,,94,1,0,,,,,,,804290,,,,,,
9054,note_on,,5,0,1,,,,,,,,,,0,,51,72
9057,note_on,,3,0,1,,,,,,,,,,0,,75,74
9059,note_on,,2,0,1,,,,,,,,,,0,,44,0
9062,note_on,,3,0,1,,,,,,,,,,0,,59,61
9068,note_on,,6,0,1,,,,,,,,,,0,,63,0
9069,note_on,,1,0,1,,,,,,,,,,0,,71,0
9073,note_on,,4,0,1,,,,,,,,,,0,,51,0
9075,note_on,,2,0,1,,,,,,,,,,0,,59,0
9078,note_on,,3,0,1,,,,,,,,,,0,,75,0
9097,control_change,,19,0,1,,,,,,,,64,0,0,,,
9101,note_on,,4,0,1,,,,,,,,,,0,,62,51
9103,note_on,,2,0,1,,,,,,,,,,0,,44,63
9108,control_change,,5,0,1,,,,,,,,64,127,0,,,
9109,note_on,,1,0,1,,,,,,,,,,0,,71,59
9113,note_on,,4,0,1,,,,,,,,,,0,,50,77
9118,note_on,,5,0,1,,,,,,,,,,0,,74,71
9119,note_on,,1,0,1,,,,,,,,,,0,,44,0
9121,note_on,,2,0,1,,,,,,,,,,0,,59,64
9126,note_on,,5,0,1,,,,,,,,,,0,,62,0
9130,note_on,,4,0,1,,,,,,,,,,0,,50,0
9132,note_on,,2,0,1,,,,,,,,,,0,,71,0
9134,note_on,,2,0,1,,,,,,,,,,0,,74,0
9137,note_on,,3,0,1,,,,,,,,,,0,,59,0
9160,note_on,,23,0,1,,,,,,,,,,0,,63,53
9162,note_on,,2,0,1,,,,,,,,,,0,,44,63
9163,set_tempo,,113,1,0,,,,,,,790514,,,,,,
9169,note_on,,7,0,1,,,,,,,,,,0,,71,59
9172,note_on,,3,0,1,,,,,,,,,,0,,51,77
9177,note_on,,5,0,1,,,,,,,,,,0,,44,0
9180,note_on,,0,0,1,,,,,,,,,,0,,59,67
9180,note_on,,3,0,1,,,,,,,,,,0,,75,75
9191,note_on,,11,0,1,,,,,,,,,,0,,51,0
9192,note_on,,1,0,1,,,,,,,,,,0,,63,0
9192,note_on,,0,0,1,,,,,,,,,,0,,59,0
9193,note_on,,1,0,1,,,,,,,,,,0,,71,0
9201,note_on,,8,0,1,,,,,,,,,,0,,75,0
9212,note_on,,11,0,1,,,,,,,,,,0,,44,62
9219,control_change,,7,0,1,,,,,,,,64,0,0,,,
9220,note_on,,1,0,1,,,,,,,,,,0,,64,55
9227,note_on,,7,0,1,,,,,,,,,,0,,52,78
9228,control_change,,1,0,1,,,,,,,,64,127,0,,,
9231,note_on,,3,0,1,,,,,,,,,,0,,44,0
9232,note_on,,1,0,1,,,,,,,,,,0,,71,61
9237,note_on,,5,0,1,,,,,,,,,,0,,59,64
9242,note_on,,5,0,1,,,,,,,,,,0,,76,72
9244,note_on,,2,0,1,,,,,,,,,,0,,52,0
9249,note_on,,5,0,1,,,,,,,,,,0,,64,0
9251,note_on,,2,0,1,,,,,,,,,,0,,59,0
9253,note_on,,2,0,1,,,,,,,,,,0,,71,0
9257,note_on,,4,0,1,,,,,,,,,,0,,76,0
9277,note_on,,20,0,1,,,,,,,,,,0,,44,61
9285,note_on,,8,0,1,,,,,,,,,,0,,63,55
9289,note_on,,4,0,1,,,,,,,,,,0,,51,78
9293,note_on,,4,0,1,,,,,,,,,,0,,44,0
9294,note_on,,1,0,1,,,,,,,,,,0,,71,61
9298,note_on,,4,0,1,,,,,,,,,,0,,59,62
9300,note_on,,2,0,1,,,,,,,,,,0,,75,73
9310,note_on,,10,0,1,,,,,,,,,,0,,71,0
9310,note_on,,0,0,1,,,,,,,,,,0,,63,0
9311,note_on,,1,0,1,,,,,,,,,,0,,51,0
9313,note_on,,2,0,1,,,,,,,,,,0,,59,0
9319,note_on,,6,0,1,,,,,,,,,,0,,75,0
9338,note_on,,19,0,1,,,,,,,,,,0,,64,55
9338,control_change,,0,0,1,,,,,,,,64,0,0,,,
9341,note_on,,3,0,1,,,,,,,,,,0,,44,67
9347,control_change,,6,0,1,,,,,,,,64,127,0,,,
9350,note_on,,3,0,1,,,,,,,,,,0,,71,59
9353,note_on,,3,0,1,,,,,,,,,,0,,52,78
9359,note_on,,6,0,1,,,,,,,,,,0,,44,0
9361,note_on,,2,0,1,,,,,,,,,,0,,59,69
9363,note_on,,2,0,1,,,,,,,,,,0,,76,73
9368,note_on,,5,0,1,,,,,,,,,,0,,52,0
9370,note_on,,2,0,1,,,,,,,,,,0,,64,0
9372,note_on,,2,0,1,,,,,,,,,,0,,71,0
9376,note_on,,4,0,1,,,,,,,,,,0,,59,0
9379,note_on,,3,0,1,,,,,,,,,,0,,76,0
9396,note_on,,17,0,1,,,,,,,,,,0,,44,73
9406,note_on,,10,0,1,,,,,,,,,,0,,65,62
9408,note_on,,2,0,1,,,,,,,,,,0,,53,82
9411,note_on,,3,0,1,,,,,,,,,,0,,71,64
9412,note_on,,1,0,1,,,,,,,,,,0,,44,0
9415,note_on,,3,0,1,,,,,,,,,,0,,59,74
9422,note_on,,7,0,1,,,,,,,,,,0,,77,75
9426,note_on,,4,0,1,,,,,,,,,,0,,53,0
9430,note_on,,4,0,1,,,,,,,,,,0,,59,0
9430,note_on,,0,0,1,,,,,,,,,,0,,65,0
9433,note_on,,3,0,1,,,,,,,,,,0,,71,0
9439,note_on,,6,0,1,,,,,,,,,,0,,77,0
9455,note_on,,16,0,1,,,,,,,,,,0,,44,72
9460,control_change,,5,0,1,,,,,,,,64,0,0,,,
9461,note_on,,1,0,1,,,,,,,,,,0,,64,58
9467,note_on,,6,0,1,,,,,,,,,,0,,71,62
9470,note_on,,0,0,1,,,,,,,,,,0,,52,89
9470,control_change,,3,0,1,,,,,,,,64,127,0,,,
9474,note_on,,4,0,1,,,,,,,,,,0,,44,0
9476,note_on,,2,0,1,,,,,,,,,,0,,59,69
9478,note_on,,2,0,1,,,,,,,,,,0,,76,77
9487,note_on,,9,0,1,,,,,,,,,,0,,52,0
9490,note_on,,0,0,1,,,,,,,,,,0,,71,0
9490,note_on,,3,0,1,,,,,,,,,,0,,64,0
9491,note_on,,1,0,1,,,,,,,,,,0,,59,0
9495,note_on,,4,0,1,,,,,,,,,,0,,76,0
9517,note_on,,22,0,1,,,,,,,,,,0,,44,78
9522,note_on,,5,0,1,,,,,,,,,,0,,65,64
9528,note_on,,6,0,1,,,,,,,,,,0,,53,89
9529,note_on,,1,0,1,,,,,,,,,,0,,71,67
9532,note_on,,3,0,1,,,,,,,,,,0,,44,0
9535,note_on,,3,0,1,,,,,,,,,,0,,59,71
9541,note_on,,6,0,1,,,,,,,,,,0,,77,80
9543,note_on,,2,0,1,,,,,,,,,,0,,53,0
9551,note_on,,0,0,1,,,,,,,,,,0,,65,0
9551,note_on,,8,0,1,,,,,,,,,,0,,59,0
9552,note_on,,1,0,1,,,,,,,,,,0,,71,0
9557,note_on,,5,0,1,,,,,,,,,,0,,77,0
9575,control_change,,18,0,1,,,,,,,,64,0,0,,,
9576,set_tempo,,413,1,0,,,,,,,801068,,,,,,
9579,note_on,,4,0,1,,,,,,,,,,0,,44,74
9584,note_on,,5,0,1,,,,,,,,,,0,,66,75
9585,control_change,,1,0,1,,,,,,,,64,127,0,,,
9590,note_on,,5,0,1,,,,,,,,,,0,,54,88
9591,note_on,,1,0,1,,,,,,,,,,0,,71,79
9593,note_on,,2,0,1,,,,,,,,,,0,,44,0
9595,note_on,,2,0,1,,,,,,,,,,0,,59,75
9600,note_on,,5,0,1,,,,,,,,,,0,,78,89
9607,note_on,,7,0,1,,,,,,,,,,0,,54,0
9609,note_on,,2,0,1,,,,,,,,,,0,,71,0
9612,note_on,,3,0,1,,,,,,,,,,0,,66,0
9613,note_on,,1,0,1,,,,,,,,,,0,,59,0
9617,note_on,,4,0,1,,,,,,,,,,0,,78,0
9618,set_tempo,,42,1,0,,,,,,,857143,,,,,,
9640,note_on,,23,0,1,,,,,,,,,,0,,44,68
9643,note_on,,3,0,1,,,,,,,,,,0,,63,72
9647,note_on,,4,0,1,,,,,,,,,,0,,51,85
9651,note_on,,0,0,1,,,,,,,,,,0,,71,74
9651,note_on,,4,0,1,,,,,,,,,,0,,44,0
9655,note_on,,4,0,1,,,,,,,,,,0,,59,69
9659,note_on,,4,0,1,,,,,,,,,,0,,75,84
9660,set_tempo,,42,1,0,,,,,,,887574,,,,,,
9663,note_on,,4,0,1,,,,,,,,,,0,,51,0
9667,note_on,,4,0,1,,,,,,,,,,0,,71,0
9669,note_on,,2,0,1,,,,,,,,,,0,,59,0
9670,note_on,,1,0,1,,,,,,,,,,0,,63,0
9676,note_on,,6,0,1,,,,,,,,,,0,,75,0
9694,control_change,,18,0,1,,,,,,,,64,0,0,,,
9696,set_tempo,,36,1,0,,,,,,,1016949,,,,,,
9704,note_on,,10,0,1,,,,,,,,,,0,,62,53
9705,control_change,,1,0,1,,,,,,,,64,127,0,,,
9712,note_on,,7,0,1,,,,,,,,,,0,,70,58
9716,note_on,,4,0,1,,,,,,,,,,0,,46,85
9717,note_on,,1,0,1,,,,,,,,,,0,,34,89
9720,note_on,,3,0,1,,,,,,,,,,0,,74,71
9723,set_tempo,,27,1,0,,,,,,,1282051,,,,,,
9726,note_on,,6,0,1,,,,,,,,,,0,,62,0
9730,note_on,,4,0,1,,,,,,,,,,0,,70,0
9735,note_on,,5,0,1,,,,,,,,,,0,,74,0
9741,note_on,,6,0,1,,,,,,,,,,0,,34,0
9743,note_on,,2,0,1,,,,,,,,,,0,,46,0
9762,set_tempo,,39,1,0,,,,,,,882353,,,,,,
9763,note_on,,20,0,1,,,,,,,,,,0,,46,51
9767,note_on,,4,0,1,,,,,,,,,,0,,68,47
9773,note_on,,0,0,1,,,,,,,,,,0,,53,51
9773,note_on,,6,0,1,,,,,,,,,,0,,77,59
9779,note_on,,6,0,1,,,,,,,,,,0,,46,0
9783,note_on,,4,0,1,,,,,,,,,,0,,82,51
9785,note_on,,2,0,1,,,,,,,,,,0,,62,52
9798,note_on,,13,0,1,,,,,,,,,,0,,62,0
9799,note_on,,0,0,1,,,,,,,,,,0,,77,0
9799,note_on,,1,0,1,,,,,,,,,,0,,53,0
9799,note_on,,0,0,1,,,,,,,,,,0,,68,0
9816,set_tempo,,54,1,0,,,,,,,852273,,,,,,
9816,note_on,,17,0,1,,,,,,,,,,0,,82,0
9820,note_on,,4,0,1,,,,,,,,,,0,,46,51
9823,note_on,,3,0,1,,,,,,,,,,0,,68,46
9830,note_on,,7,0,1,,,,,,,,,,0,,53,51
9831,note_on,,1,0,1,,,,,,,,,,0,,46,0
9831,note_on,,0,0,1,,,,,,,,,,0,,76,57
9838,note_on,,7,0,1,,,,,,,,,,0,,82,48
9841,note_on,,3,0,1,,,,,,,,,,0,,62,51
9845,note_on,,4,0,1,,,,,,,,,,0,,68,0
9846,note_on,,1,0,1,,,,,,,,,,0,,76,0
9848,note_on,,2,0,1,,,,,,,,,,0,,53,0
9852,note_on,,4,0,1,,,,,,,,,,0,,62,0
9871,note_on,,19,0,1,,,,,,,,,,0,,82,0
9879,note_on,,8,0,1,,,,,,,,,,0,,46,48
9880,note_on,,1,0,1,,,,,,,,,,0,,68,45
9888,note_on,,8,0,1,,,,,,,,,,0,,53,50
9889,note_on,,1,0,1,,,,,,,,,,0,,46,0
9892,note_on,,3,0,1,,,,,,,,,,0,,77,57
9893,set_tempo,,77,1,0,,,,,,,826446,,,,,,
9898,note_on,,6,0,1,,,,,,,,,,0,,62,51
9900,note_on,,2,0,1,,,,,,,,,,0,,82,51
9909,note_on,,9,0,1,,,,,,,,,,0,,62,0
9909,note_on,,0,0,1,,,,,,,,,,0,,68,0
9913,note_on,,0,0,1,,,,,,,,,,0,,77,0
9913,note_on,,4,0,1,,,,,,,,,,0,,53,0
9931,note_on,,18,0,1,,,,,,,,,,0,,82,0
9931,control_change,,0,0,1,,,,,,,,64,0,0,,,
9935,note_on,,4,0,1,,,,,,,,,,0,,46,45
9939,control_change,,4,0,1,,,,,,,,64,127,0,,,
9940,note_on,,1,0,1,,,,,,,,,,0,,68,39
9946,note_on,,6,0,1,,,,,,,,,,0,,53,46
9948,note_on,,2,0,1,,,,,,,,,,0,,46,0
9951,note_on,,3,0,1,,,,,,,,,,0,,79,56
9957,note_on,,6,0,1,,,,,,,,,,0,,63,47
9962,note_on,,5,0,1,,,,,,,,,,0,,82,50
9967,note_on,,5,0,1,,,,,,,,,,0,,63,0
9968,note_on,,1,0,1,,,,,,,,,,0,,53,0
9970,note_on,,2,0,1,,,,,,,,,,0,,68,0
9970,note_on,,0,0,1,,,,,,,,,,0,,79,0
9976,set_tempo,,83,1,0,,,,,,,803213,,,,,,
9984,note_on,,14,0,1,,,,,,,,,,0,,82,0
9997,control_change,,13,0,1,,,,,,,,64,0,0,,,
9998,note_on,,1,0,1,,,,,,,,,,0,,46,46
10003,control_change,,0,0,1,,,,,,,,64,127,0,,,
10003,note_on,,5,0,1,,,,,,,,,,0,,68,45
10005,note_on,,2,0,1,,,,,,,,,,0,,53,47
10009,note_on,,4,0,1,,,,,,,,,,0,,46,0
10011,note_on,,2,0,1,,,,,,,,,,0,,74,58
10014,note_on,,3,0,1,,,,,,,,,,0,,53,0
10020,note_on,,6,0,1,,,,,,,,,,0,,82,50
10021,note_on,,1,0,1,,,,,,,,,,0,,65,48
10026,note_on,,5,0,1,,,,,,,,,,0,,65,0
10032,note_on,,0,0,1,,,,,,,,,,0,,74,0
10032,note_on,,6,0,1,,,,,,,,,,0,,68,0
10045,note_on,,13,0,1,,,,,,,,,,0,,82,0
10055,control_change,,10,0,1,,,,,,,,64,0,0,,,
10058,note_on,,3,0,1,,,,,,,,,,0,,46,48
10061,note_on,,3,0,1,,,,,,,,,,0,,67,46
10064,control_change,,3,0,1,,,,,,,,64,127,0,,,
10069,note_on,,5,0,1,,,,,,,,,,0,,75,58
10072,note_on,,0,0,1,,,,,,,,,,0,,55,50
10072,note_on,,3,0,1,,,,,,,,,,0,,46,0
10073,note_on,,1,0,1,,,,,,,,,,0,,67,0
10079,note_on,,6,0,1,,,,,,,,,,0,,82,48
10084,note_on,,5,0,1,,,,,,,,,,0,,63,52
10086,note_on,,2,0,1,,,,,,,,,,0,,75,0
10089,note_on,,3,0,1,,,,,,,,,,0,,82,0
10090,note_on,,1,0,1,,,,,,,,,,0,,55,0
10094,note_on,,4,0,1,,,,,,,,,,0,,63,0
10112,control_change,,18,0,1,,,,,,,,64,0,0,,,
10115,control_change,,3,0,1,,,,,,,,67,127,0,,,
10122,control_change,,7,0,1,,,,,,,,64,127,0,,,
10122,note_on,,0,0,1,,,,,,,,,,0,,46,43
10124,note_on,,2,0,1,,,,,,,,,,0,,69,35
10131,note_on,,7,0,1,,,,,,,,,,0,,75,40
10132,note_on,,0,0,1,,,,,,,,,,0,,54,43
10132,note_on,,1,0,1,,,,,,,,,,0,,46,0
10140,note_on,,8,0,1,,,,,,,,,,0,,69,0
10145,note_on,,5,0,1,,,,,,,,,,0,,84,53
10145,note_on,,0,0,1,,,,,,,,,,0,,63,45
10149,note_on,,4,0,1,,,,,,,,,,0,,75,0
10153,note_on,,4,0,1,,,,,,,,,,0,,54,0
10155,note_on,,2,0,1,,,,,,,,,,0,,63,0
10159,note_on,,4,0,1,,,,,,,,,,0,,84,0
10178,note_on,,19,0,1,,,,,,,,,,0,,46,39
10182,note_on,,4,0,1,,,,,,,,,,0,,69,40
10187,note_on,,5,0,1,,,,,,,,,,0,,46,0
10187,note_on,,0,0,1,,,,,,,,,,0,,75,41
10191,note_on,,4,0,1,,,,,,,,,,0,,54,39
10199,note_on,,8,0,1,,,,,,,,,,0,,83,52
10203,note_on,,4,0,1,,,,,,,,,,0,,63,40
10210,note_on,,7,0,1,,,,,,,,,,0,,75,0
10213,note_on,,3,0,1,,,,,,,,,,0,,69,0
10214,note_on,,1,0,1,,,,,,,,,,0,,54,0
10215,note_on,,1,0,1,,,,,,,,,,0,,63,0
10217,note_on,,2,0,1,,,,,,,,,,0,,83,0
10239,note_on,,22,0,1,,,,,,,,,,0,,46,39
10242,note_on,,3,0,1,,,,,,,,,,0,,69,35
10249,note_on,,7,0,1,,,,,,,,,,0,,75,37
10250,note_on,,0,0,1,,,,,,,,,,0,,54,40
10250,note_on,,1,0,1,,,,,,,,,,0,,46,0
10254,note_on,,4,0,1,,,,,,,,,,0,,69,0
10262,note_on,,8,0,1,,,,,,,,,,0,,63,42
10263,note_on,,1,0,1,,,,,,,,,,0,,84,53
10269,note_on,,6,0,1,,,,,,,,,,0,,54,0
10269,note_on,,0,0,1,,,,,,,,,,0,,75,0
10272,note_on,,3,0,1,,,,,,,,,,0,,63,0
10273,set_tempo,,297,1,0,,,,,,,816327,,,,,,
10280,note_on,,8,0,1,,,,,,,,,,0,,84,0
10301,note_on,,21,0,1,,,,,,,,,,0,,46,40
10303,note_on,,2,0,1,,,,,,,,,,0,,69,36
10305,control_change,,2,0,1,,,,,,,,64,0,0,,,
10308,note_on,,3,0,1,,,,,,,,,,0,,75,37
10309,note_on,,1,0,1,,,,,,,,,,0,,53,42
10310,note_on,,1,0,1,,,,,,,,,,0,,46,0
10312,control_change,,2,0,1,,,,,,,,64,127,0,,,
10313,note_on,,1,0,1,,,,,,,,,,0,,69,0
10319,note_on,,6,0,1,,,,,,,,,,0,,63,43
10324,note_on,,5,0,1,,,,,,,,,,0,,86,52
10325,note_on,,1,0,1,,,,,,,,,,0,,75,0
10325,note_on,,0,0,1,,,,,,,,,,0,,53,0
10328,note_on,,3,0,1,,,,,,,,,,0,,63,0
10333,set_tempo,,60,1,0,,,,,,,853485,,,,,,
10336,note_on,,8,0,1,,,,,,,,,,0,,86,0
10359,note_on,,23,0,1,,,,,,,,,,0,,46,39
10364,note_on,,5,0,1,,,,,,,,,,0,,69,39
10368,note_on,,4,0,1,,,,,,,,,,0,,53,40
10370,note_on,,2,0,1,,,,,,,,,,0,,75,40
10371,note_on,,1,0,1,,,,,,,,,,0,,46,0
10377,note_on,,6,0,1,,,,,,,,,,0,,69,0
10380,note_on,,3,0,1,,,,,,,,,,0,,63,41
10382,note_on,,2,0,1,,,,,,,,,,0,,84,52
10385,note_on,,3,0,1,,,,,,,,,,0,,53,0
10387,note_on,,2,0,1,,,,,,,,,,0,,75,0
10387,note_on,,0,0,1,,,,,,,,,,0,,63,0
10396,set_tempo,,63,1,0,,,,,,,896861,,,,,,
10398,note_on,,11,0,1,,,,,,,,,,0,,84,0
10417,note_on,,19,0,1,,,,,,,,,,0,,74,41
10418,control_change,,1,0,1,,,,,,,,64,0,0,,,
10429,note_on,,11,0,1,,,,,,,,,,0,,81,46
10429,control_change,,0,0,1,,,,,,,,64,127,0,,,
10431,note_on,,2,0,1,,,,,,,,,,0,,74,0
10437,note_on,,6,0,1,,,,,,,,,,0,,34,51
10438,note_on,,1,0,1,,,,,,,,,,0,,81,0
10442,note_on,,4,0,1,,,,,,,,,,0,,89,53
10450,note_on,,8,0,1,,,,,,,,,,0,,89,0
10458,note_on,,8,0,1,,,,,,,,,,0,,34,0
10466,set_tempo,,70,1,0,,,,,,,868307,,,,,,
10467,control_change,,9,0,1,,,,,,,,67,0,0,,,
10484,note_on,,17,0,1,,,,,,,,,,0,,68,46
10486,note_on,,2,0,1,,,,,,,,,,0,,46,46
10494,note_on,,8,0,1,,,,,,,,,,0,,77,63
10496,note_on,,2,0,1,,,,,,,,,,0,,53,48
10500,note_on,,4,0,1,,,,,,,,,,0,,82,48
10501,note_on,,1,0,1,,,,,,,,,,0,,46,0
10507,note_on,,6,0,1,,,,,,,,,,0,,77,0
10507,note_on,,0,0,1,,,,,,,,,,0,,62,50
10511,note_on,,4,0,1,,,,,,,,,,0,,68,0
10517,note_on,,6,0,1,,,,,,,,,,0,,82,0
10521,note_on,,4,0,1,,,,,,,,,,0,,62,0
10524,note_on,,3,0,1,,,,,,,,,,0,,53,0
10526,set_tempo,,60,1,0,,,,,,,842697,,,,,,
10540,note_on,,16,0,1,,,,,,,,,,0,,68,42
10544,note_on,,4,0,1,,,,,,,,,,0,,46,47
10548,note_on,,4,0,1,,,,,,,,,,0,,76,63
10555,note_on,,7,0,1,,,,,,,,,,0,,53,48
10556,note_on,,1,0,1,,,,,,,,,,0,,46,0
10560,note_on,,4,0,1,,,,,,,,,,0,,82,47
10564,note_on,,4,0,1,,,,,,,,,,0,,61,50
10568,note_on,,4,0,1,,,,,,,,,,0,,68,0
10568,note_on,,0,0,1,,,,,,,,,,0,,76,0
10575,note_on,,7,0,1,,,,,,,,,,0,,61,0
10579,note_on,,0,0,1,,,,,,,,,,0,,53,0
10579,note_on,,4,0,1,,,,,,,,,,0,,82,0
10597,note_on,,18,0,1,,,,,,,,,,0,,46,46
10600,note_on,,3,0,1,,,,,,,,,,0,,68,43
10608,note_on,,8,0,1,,,,,,,,,,0,,77,61
10609,note_on,,1,0,1,,,,,,,,,,0,,53,47
10610,note_on,,1,0,1,,,,,,,,,,0,,46,0
10616,set_tempo,,90,1,0,,,,,,,820793,,,,,,
10620,note_on,,10,0,1,,,,,,,,,,0,,82,45
10620,note_on,,0,0,1,,,,,,,,,,0,,62,47
10630,note_on,,10,0,1,,,,,,,,,,0,,68,0
10631,note_on,,0,0,1,,,,,,,,,,0,,77,0
10631,note_on,,1,0,1,,,,,,,,,,0,,62,0
10636,note_on,,5,0,1,,,,,,,,,,0,,53,0
10643,note_on,,7,0,1,,,,,,,,,,0,,82,0
10654,note_on,,11,0,1,,,,,,,,,,0,,46,46
10663,set_tempo,,47,1,0,,,,,,,937500,,,,,,
10664,control_change,,10,0,1,,,,,,,,64,0,0,,,
10665,note_on,,1,0,1,,,,,,,,,,0,,46,0
10665,note_on,,0,0,1,,,,,,,,,,0,,53,46
10666,note_on,,1,0,1,,,,,,,,,,0,,68,48
10674,control_change,,8,0,1,,,,,,,,64,127,0,,,
10675,note_on,,1,0,1,,,,,,,,,,0,,79,64
10678,note_on,,3,0,1,,,,,,,,,,0,,63,46
10682,note_on,,4,0,1,,,,,,,,,,0,,82,46
10690,note_on,,8,0,1,,,,,,,,,,0,,63,0
10690,note_on,,0,0,1,,,,,,,,,,0,,68,0
10691,note_on,,1,0,1,,,,,,,,,,0,,79,0
10694,note_on,,3,0,1,,,,,,,,,,0,,53,0
10700,note_on,,6,0,1,,,,,,,,,,0,,82,0
10708,note_on,,8,0,1,,,,,,,,,,0,,68,40
10715,note_on,,7,0,1,,,,,,,,,,0,,46,39
10717,note_on,,2,0,1,,,,,,,,,,0,,80,69
10724,note_on,,0,0,1,,,,,,,,,,0,,53,40
10724,note_on,,7,0,1,,,,,,,,,,0,,82,45
10726,note_on,,2,0,1,,,,,,,,,,0,,46,0
10731,note_on,,5,0,1,,,,,,,,,,0,,80,0
10733,set_tempo,,70,1,0,,,,,,,949367,,,,,,
10733,note_on,,2,0,1,,,,,,,,,,0,,53,0
10737,note_on,,4,0,1,,,,,,,,,,0,,68,0
10740,note_on,,3,0,1,,,,,,,,,,0,,65,40
10745,note_on,,5,0,1,,,,,,,,,,0,,82,0
10749,note_on,,4,0,1,,,,,,,,,,0,,68,47
10752,note_on,,3,0,1,,,,,,,,,,0,,65,0
10757,note_on,,5,0,1,,,,,,,,,,0,,74,66
10764,note_on,,7,0,1,,,,,,,,,,0,,82,45
10773,note_on,,9,0,1,,,,,,,,,,0,,68,0
10776,note_on,,3,0,1,,,,,,,,,,0,,74,0
10778,note_on,,0,0,1,,,,,,,,,,0,,46,46
10778,note_on,,2,0,1,,,,,,,,,,0,,82,0
10779,control_change,,1,0,1,,,,,,,,64,0,0,,,
10788,note_on,,9,0,1,,,,,,,,,,0,,67,41
10789,control_change,,1,0,1,,,,,,,,64,127,0,,,
10792,note_on,,0,0,1,,,,,,,,,,0,,55,48
10792,note_on,,3,0,1,,,,,,,,,,0,,46,0
10793,set_tempo,,60,1,0,,,,,,,895522,,,,,,
10794,note_on,,2,0,1,,,,,,,,,,0,,75,68
10801,note_on,,7,0,1,,,,,,,,,,0,,67,0
10803,note_on,,2,0,1,,,,,,,,,,0,,82,43
10803,note_on,,0,0,1,,,,,,,,,,0,,63,48
10809,note_on,,6,0,1,,,,,,,,,,0,,75,0
10811,note_on,,2,0,1,,,,,,,,,,0,,82,0
10813,note_on,,2,0,1,,,,,,,,,,0,,55,0
10816,note_on,,3,0,1,,,,,,,,,,0,,63,0
10825,control_change,,9,0,1,,,,,,,,67,127,0,,,
10841,note_on,,16,0,1,,,,,,,,,,0,,46,43
10842,note_on,,1,0,1,,,,,,,,,,0,,69,34
10850,control_change,,0,0,1,,,,,,,,64,0,0,,,
10850,note_on,,8,0,1,,,,,,,,,,0,,75,41
10851,note_on,,1,0,1,,,,,,,,,,0,,46,0
10851,note_on,,0,0,1,,,,,,,,,,0,,54,39
10856,control_change,,5,0,1,,,,,,,,64,127,0,,,
10859,note_on,,3,0,1,,,,,,,,,,0,,69,0
10860,note_on,,1,0,1,,,,,,,,,,0,,63,40
10864,note_on,,4,0,1,,,,,,,,,,0,,84,55
10870,note_on,,6,0,1,,,,,,,,,,0,,63,0
10872,note_on,,2,0,1,,,,,,,,,,0,,75,0
10872,note_on,,0,0,1,,,,,,,,,,0,,54,0
10879,note_on,,7,0,1,,,,,,,,,,0,,84,0
10880,set_tempo,,87,1,0,,,,,,,869565,,,,,,
10896,note_on,,17,0,1,,,,,,,,,,0,,46,41
10905,note_on,,9,0,1,,,,,,,,,,0,,69,42
10906,note_on,,1,0,1,,,,,,,,,,0,,46,0
10909,note_on,,3,0,1,,,,,,,,,,0,,75,45
10911,note_on,,2,0,1,,,,,,,,,,0,,54,41
10917,note_on,,6,0,1,,,,,,,,,,0,,63,41
10921,note_on,,4,0,1,,,,,,,,,,0,,83,52
10925,note_on,,4,0,1,,,,,,,,,,0,,54,0
10927,note_on,,2,0,1,,,,,,,,,,0,,63,0
10931,note_on,,4,0,1,,,,,,,,,,0,,69,0
10934,note_on,,3,0,1,,,,,,,,,,0,,75,0
10936,set_tempo,,56,1,0,,,,,,,847458,,,,,,
10941,note_on,,7,0,1,,,,,,,,,,0,,83,0
10955,note_on,,14,0,1,,,,,,,,,,0,,46,42
10961,note_on,,6,0,1,,,,,,,,,,0,,69,36
10964,note_on,,3,0,1,,,,,,,,,,0,,46,0
10964,note_on,,0,0,1,,,,,,,,,,0,,54,41
10967,note_on,,3,0,1,,,,,,,,,,0,,75,41
10976,note_on,,9,0,1,,,,,,,,,,0,,63,43
10979,note_on,,3,0,1,,,,,,,,,,0,,69,0
10983,note_on,,4,0,1,,,,,,,,,,0,,84,52
10985,note_on,,2,0,1,,,,,,,,,,0,,54,0
10987,note_on,,2,0,1,,,,,,,,,,0,,63,0
10989,note_on,,2,0,1,,,,,,,,,,0,,75,0
10993,set_tempo,,57,1,0,,,,,,,882353,,,,,,
10997,note_on,,8,0,1,,,,,,,,,,0,,84,0
11015,note_on,,18,0,1,,,,,,,,,,0,,46,43
11017,note_on,,2,0,1,,,,,,,,,,0,,69,37
11022,note_on,,5,0,1,,,,,,,,,,0,,75,40
11025,note_on,,3,0,1,,,,,,,,,,0,,53,45
11027,note_on,,2,0,1,,,,,,,,,,0,,46,0
11027,control_change,,0,0,1,,,,,,,,64,0,0,,,
11029,note_on,,2,0,1,,,,,,,,,,0,,69,0
11035,control_change,,6,0,1,,,,,,,,64,127,0,,,
11036,note_on,,1,0,1,,,,,,,,,,0,,63,41
11042,note_on,,0,0,1,,,,,,,,,,0,,86,52
11042,note_on,,6,0,1,,,,,,,,,,0,,75,0
11048,note_on,,6,0,1,,,,,,,,,,0,,63,0
11051,note_on,,3,0,1,,,,,,,,,,0,,86,0
11051,note_on,,0,0,1,,,,,,,,,,0,,53,0
11053,set_tempo,,60,1,0,,,,,,,923077,,,,,,
11075,note_on,,24,0,1,,,,,,,,,,0,,46,43
11079,note_on,,4,0,1,,,,,,,,,,0,,69,42
11085,note_on,,6,0,1,,,,,,,,,,0,,75,45
11087,note_on,,2,0,1,,,,,,,,,,0,,53,46
11088,note_on,,1,0,1,,,,,,,,,,0,,46,0
11092,note_on,,4,0,1,,,,,,,,,,0,,69,0
11099,note_on,,7,0,1,,,,,,,,,,0,,84,53
11099,note_on,,0,0,1,,,,,,,,,,0,,63,48
11106,set_tempo,,53,1,0,,,,,,,983607,,,,,,
11106,note_on,,7,0,1,,,,,,,,,,0,,75,0
11108,note_on,,2,0,1,,,,,,,,,,0,,53,0
11108,note_on,,0,0,1,,,,,,,,,,0,,63,0
11118,note_on,,10,0,1,,,,,,,,,,0,,84,0
11137,control_change,,0,0,1,,,,,,,,64,0,0,,,
11137,note_on,,19,0,1,,,,,,,,,,0,,74,39
11145,control_change,,8,0,1,,,,,,,,64,127,0,,,
11151,note_on,,6,0,1,,,,,,,,,,0,,80,47
11158,note_on,,7,0,1,,,,,,,,,,0,,74,0
11160,note_on,,2,0,1,,,,,,,,,,0,,34,55
11161,note_on,,1,0,1,,,,,,,,,,0,,89,53
11163,set_tempo,,57,1,0,,,,,,,960000,,,,,,
11164,note_on,,3,0,1,,,,,,,,,,0,,80,0
11172,note_on,,8,0,1,,,,,,,,,,0,,89,0
11180,control_change,,0,0,1,,,,,,,,67,0,0,,,
11180,note_on,,8,0,1,,,,,,,,,,0,,34,0
11201,note_on,,21,0,1,,,,,,,,,,0,,46,48
11203,set_tempo,,40,1,0,,,,,,,845070,,,,,,
11206,note_on,,5,0,1,,,,,,,,,,0,,68,42
11212,note_on,,6,0,1,,,,,,,,,,0,,77,55
11212,note_on,,0,0,1,,,,,,,,,,0,,53,51
11213,note_on,,1,0,1,,,,,,,,,,0,,46,0
11221,note_on,,8,0,1,,,,,,,,,,0,,82,46
11223,note_on,,2,0,1,,,,,,,,,,0,,62,51
11229,note_on,,6,0,1,,,,,,,,,,0,,77,0
11232,note_on,,3,0,1,,,,,,,,,,0,,68,0
11234,note_on,,2,0,1,,,,,,,,,,0,,62,0
11239,note_on,,5,0,1,,,,,,,,,,0,,53,0
11242,note_on,,3,0,1,,,,,,,,,,0,,82,0
11264,note_on,,22,0,1,,,,,,,,,,0,,68,43
11266,note_on,,2,0,1,,,,,,,,,,0,,46,52
11269,note_on,,3,0,1,,,,,,,,,,0,,76,52
11276,note_on,,7,0,1,,,,,,,,,,0,,53,53
11277,note_on,,1,0,1,,,,,,,,,,0,,46,0
11280,note_on,,3,0,1,,,,,,,,,,0,,82,45
11284,note_on,,0,0,1,,,,,,,,,,0,,61,55
11284,note_on,,4,0,1,,,,,,,,,,0,,68,0
11287,note_on,,3,0,1,,,,,,,,,,0,,76,0
11295,note_on,,8,0,1,,,,,,,,,,0,,53,0
11295,note_on,,0,0,1,,,,,,,,,,0,,61,0
11302,note_on,,7,0,1,,,,,,,,,,0,,82,0
11321,note_on,,19,0,1,,,,,,,,,,0,,46,50
11323,note_on,,2,0,1,,,,,,,,,,0,,68,41
11331,note_on,,8,0,1,,,,,,,,,,0,,77,52
11331,note_on,,0,0,1,,,,,,,,,,0,,53,51
11334,note_on,,3,0,1,,,,,,,,,,0,,46,0
11342,note_on,,8,0,1,,,,,,,,,,0,,62,51
11343,note_on,,1,0,1,,,,,,,,,,0,,82,46
11347,note_on,,4,0,1,,,,,,,,,,0,,53,0
11348,note_on,,1,0,1,,,,,,,,,,0,,68,0
11350,note_on,,2,0,1,,,,,,,,,,0,,77,0
11350,set_tempo,,147,1,0,,,,,,,823045,,,,,,
11353,note_on,,3,0,1,,,,,,,,,,0,,62,0
11363,note_on,,10,0,1,,,,,,,,,,0,,82,0
11376,note_on,,13,0,1,,,,,,,,,,0,,46,47
11381,note_on,,5,0,1,,,,,,,,,,0,,68,45
11386,note_on,,5,0,1,,,,,,,,,,0,,53,48
11387,note_on,,1,0,1,,,,,,,,,,0,,46,0
11387,control_change,,0,0,1,,,,,,,,64,0,0,,,
11391,note_on,,4,0,1,,,,,,,,,,0,,79,53
11396,control_change,,5,0,1,,,,,,,,64,127,0,,,
11397,note_on,,1,0,1,,,,,,,,,,0,,63,50
11404,note_on,,7,0,1,,,,,,,,,,0,,53,0
11404,note_on,,0,0,1,,,,,,,,,,0,,82,47
11409,note_on,,5,0,1,,,,,,,,,,0,,63,0
11410,note_on,,1,0,1,,,,,,,,,,0,,68,0
11411,note_on,,1,0,1,,,,,,,,,,0,,79,0
11424,note_on,,13,0,1,,,,,,,,,,0,,82,0
11438,note_on,,14,0,1,,,,,,,,,,0,,46,50
11442,note_on,,4,0,1,,,,,,,,,,0,,68,41
11446,note_on,,4,0,1,,,,,,,,,,0,,53,50
11448,note_on,,2,0,1,,,,,,,,,,0,,46,0
11451,note_on,,3,0,1,,,,,,,,,,0,,77,56
11457,note_on,,6,0,1,,,,,,,,,,0,,62,50
11460,note_on,,3,0,1,,,,,,,,,,0,,82,46
11465,note_on,,5,0,1,,,,,,,,,,0,,53,0
11466,note_on,,1,0,1,,,,,,,,,,0,,77,0
11468,note_on,,2,0,1,,,,,,,,,,0,,62,0
11475,note_on,,7,0,1,,,,,,,,,,0,,68,0
11484,note_on,,9,0,1,,,,,,,,,,0,,82,0
11490,control_change,,6,0,1,,,,,,,,64,0,0,,,
11500,note_on,,10,0,1,,,,,,,,,,0,,46,48
11501,note_on,,1,0,1,,,,,,,,,,0,,69,43
11501,control_change,,0,0,1,,,,,,,,64,127,0,,,
11510,note_on,,9,0,1,,,,,,,,,,0,,54,48
11511,note_on,,1,0,1,,,,,,,,,,0,,78,57
11513,note_on,,2,0,1,,,,,,,,,,0,,46,0
11520,set_tempo,,170,1,0,,,,,,,816327,,,,,,
11520,note_on,,7,0,1,,,,,,,,,,0,,63,50
11522,note_on,,2,0,1,,,,,,,,,,0,,83,47
11527,note_on,,5,0,1,,,,,,,,,,0,,69,0
11529,note_on,,2,0,1,,,,,,,,,,0,,78,0
11530,note_on,,1,0,1,,,,,,,,,,0,,63,0
11531,note_on,,1,0,1,,,,,,,,,,0,,54,0
11541,note_on,,10,0,1,,,,,,,,,,0,,83,0
11557,note_on,,16,0,1,,,,,,,,,,0,,46,55
11561,note_on,,4,0,1,,,,,,,,,,0,,69,47
11569,note_on,,8,0,1,,,,,,,,,,0,,46,0
11570,note_on,,1,0,1,,,,,,,,,,0,,78,57
11570,note_on,,0,0,1,,,,,,,,,,0,,54,56
11579,note_on,,9,0,1,,,,,,,,,,0,,63,55
11583,note_on,,4,0,1,,,,,,,,,,0,,83,48
11590,note_on,,0,0,1,,,,,,,,,,0,,69,0
11590,note_on,,7,0,1,,,,,,,,,,0,,63,0
11590,note_on,,0,0,1,,,,,,,,,,0,,54,0
11593,note_on,,3,0,1,,,,,,,,,,0,,78,0
11599,note_on,,6,0,1,,,,,,,,,,0,,83,0
11614,note_on,,15,0,1,,,,,,,,,,0,,46,56
11616,control_change,,2,0,1,,,,,,,,64,0,0,,,
11621,note_on,,5,0,1,,,,,,,,,,0,,69,51
11623,control_change,,2,0,1,,,,,,,,64,127,0,,,
11624,note_on,,1,0,1,,,,,,,,,,0,,46,0
11625,note_on,,1,0,1,,,,,,,,,,0,,54,57
11628,note_on,,3,0,1,,,,,,,,,,0,,77,63
11634,note_on,,6,0,1,,,,,,,,,,0,,62,57
11642,note_on,,8,0,1,,,,,,,,,,0,,83,53
11645,note_on,,0,0,1,,,,,,,,,,0,,54,0
11645,note_on,,3,0,1,,,,,,,,,,0,,62,0
11646,note_on,,1,0,1,,,,,,,,,,0,,69,0
11648,note_on,,2,0,1,,,,,,,,,,0,,77,0
11660,note_on,,12,0,1,,,,,,,,,,0,,83,0
11672,note_on,,12,0,1,,,,,,,,,,0,,46,55
11680,note_on,,8,0,1,,,,,,,,,,0,,46,0
11683,note_on,,3,0,1,,,,,,,,,,0,,69,50
11685,note_on,,2,0,1,,,,,,,,,,0,,54,55
11690,note_on,,5,0,1,,,,,,,,,,0,,78,61
11696,set_tempo,,176,1,0,,,,,,,808625,,,,,,
11697,note_on,,7,0,1,,,,,,,,,,0,,63,56
11700,set_tempo,,4,1,0,,,,,,,809717,,,,,,
11704,note_on,,7,0,1,,,,,,,,,,0,,54,0
11705,note_on,,1,0,1,,,,,,,,,,0,,63,0
11707,note_on,,2,0,1,,,,,,,,,,0,,83,52
11710,note_on,,3,0,1,,,,,,,,,,0,,69,0
11713,note_on,,3,0,1,,,,,,,,,,0,,78,0
11718,note_on,,5,0,1,,,,,,,,,,0,,83,0
11732,note_on,,14,0,1,,,,,,,,,,0,,46,57
11738,control_change,,6,0,1,,,,,,,,64,0,0,,,
11740,note_on,,2,0,1,,,,,,,,,,0,,46,0
11740,note_on,,0,0,1,,,,,,,,,,0,,54,57
11741,note_on,,1,0,1,,,,,,,,,,0,,69,53
11745,control_change,,4,0,1,,,,,,,,64,127,0,,,
11748,note_on,,3,0,1,,,,,,,,,,0,,54,0
11750,note_on,,2,0,1,,,,,,,,,,0,,80,67
11755,note_on,,5,0,1,,,,,,,,,,0,,65,61
11760,note_on,,5,0,1,,,,,,,,,,0,,83,55
11764,note_on,,4,0,1,,,,,,,,,,0,,65,0
11765,note_on,,1,0,1,,,,,,,,,,0,,69,0
11768,note_on,,3,0,1,,,,,,,,,,0,,80,0
11778,note_on,,10,0,1,,,,,,,,,,0,,83,0
11797,note_on,,19,0,1,,,,,,,,,,0,,46,59
11800,note_on,,3,0,1,,,,,,,,,,0,,69,55
11806,note_on,,6,0,1,,,,,,,,,,0,,46,0
11806,note_on,,0,0,1,,,,,,,,,,0,,54,62
11811,note_on,,5,0,1,,,,,,,,,,0,,78,66
11817,note_on,,6,0,1,,,,,,,,,,0,,63,63
11818,note_on,,1,0,1,,,,,,,,,,0,,54,0
11823,note_on,,5,0,1,,,,,,,,,,0,,63,0
11823,note_on,,0,0,1,,,,,,,,,,0,,83,58
11826,note_on,,3,0,1,,,,,,,,,,0,,69,0
11829,note_on,,3,0,1,,,,,,,,,,0,,78,0
11841,note_on,,12,0,1,,,,,,,,,,0,,83,0
11860,note_on,,0,0,1,,,,,,,,,,0,,46,62
11860,note_on,,19,0,1,,,,,,,,,,0,,70,58
11863,control_change,,3,0,1,,,,,,,,64,0,0,,,
11868,note_on,,5,0,1,,,,,,,,,,0,,79,69
11870,control_change,,2,0,1,,,,,,,,64,127,0,,,
11871,note_on,,1,0,1,,,,,,,,,,0,,46,0
11873,note_on,,2,0,1,,,,,,,,,,0,,55,63
11880,set_tempo,,180,1,0,,,,,,,801068,,,,,,
11881,note_on,,8,0,1,,,,,,,,,,0,,84,62
11884,note_on,,3,0,1,,,,,,,,,,0,,64,64
11886,note_on,,2,0,1,,,,,,,,,,0,,70,0
11888,note_on,,2,0,1,,,,,,,,,,0,,55,0
11890,note_on,,2,0,1,,,,,,,,,,0,,79,0
11897,note_on,,7,0,1,,,,,,,,,,0,,84,0
11898,note_on,,1,0,1,,,,,,,,,,0,,64,0
11922,note_on,,24,0,1,,,,,,,,,,0,,46,61
11923,note_on,,1,0,1,,,,,,,,,,0,,70,63
11930,note_on,,7,0,1,,,,,,,,,,0,,46,0
11931,note_on,,1,0,1,,,,,,,,,,0,,79,72
11936,note_on,,5,0,1,,,,,,,,,,0,,55,62
11943,note_on,,7,0,1,,,,,,,,,,0,,70,0
11943,note_on,,0,0,1,,,,,,,,,,0,,64,63
11944,note_on,,1,0,1,,,,,,,,,,0,,84,61
11949,note_on,,5,0,1,,,,,,,,,,0,,55,0
11953,note_on,,4,0,1,,,,,,,,,,0,,79,0
11954,note_on,,1,0,1,,,,,,,,,,0,,64,0
11961,note_on,,7,0,1,,,,,,,,,,0,,84,0
11974,note_on,,13,0,1,,,,,,,,,,0,,70,53
11981,note_on,,7,0,1,,,,,,,,,,0,,46,61
11982,control_change,,1,0,1,,,,,,,,64,0,0,,,
11986,note_on,,4,0,1,,,,,,,,,,0,,78,72
11989,note_on,,3,0,1,,,,,,,,,,0,,46,0
11990,control_change,,1,0,1,,,,,,,,64,127,0,,,
11992,note_on,,2,0,1,,,,,,,,,,0,,55,61
12001,note_on,,0,0,1,,,,,,,,,,0,,63,63
12001,note_on,,9,0,1,,,,,,,,,,0,,84,62
12004,note_on,,3,0,1,,,,,,,,,,0,,70,0
12007,note_on,,3,0,1,,,,,,,,,,0,,78,0
12012,note_on,,0,0,1,,,,,,,,,,0,,55,0
12012,note_on,,5,0,1,,,,,,,,,,0,,63,0
12017,note_on,,5,0,1,,,,,,,,,,0,,84,0
12037,note_on,,20,0,1,,,,,,,,,,0,,70,52
12037,note_on,,0,0,1,,,,,,,,,,0,,46,61
12046,note_on,,9,0,1,,,,,,,,,,0,,46,0
12046,note_on,,0,0,1,,,,,,,,,,0,,79,73
12050,note_on,,4,0,1,,,,,,,,,,0,,55,62
12058,note_on,,8,0,1,,,,,,,,,,0,,64,62
12060,note_on,,2,0,1,,,,,,,,,,0,,84,59
12062,note_on,,2,0,1,,,,,,,,,,0,,70,0
12069,note_on,,7,0,1,,,,,,,,,,0,,64,0
12070,note_on,,1,0,1,,,,,,,,,,0,,55,0
12072,note_on,,2,0,1,,,,,,,,,,0,,79,0
12078,note_on,,6,0,1,,,,,,,,,,0,,84,0
12092,note_on,,14,0,1,,,,,,,,,,0,,46,59
12093,control_change,,1,0,1,,,,,,,,64,0,0,,,
12097,note_on,,4,0,1,,,,,,,,,,0,,70,56
12101,note_on,,4,0,1,,,,,,,,,,0,,46,0
12101,control_change,,0,0,1,,,,,,,,64,127,0,,,
12104,note_on,,3,0,1,,,,,,,,,,0,,55,61
12108,note_on,,4,0,1,,,,,,,,,,0,,81,78
12112,note_on,,4,0,1,,,,,,,,,,0,,55,0
12118,note_on,,6,0,1,,,,,,,,,,0,,65,62
12121,note_on,,3,0,1,,,,,,,,,,0,,84,61
12123,note_on,,2,0,1,,,,,,,,,,0,,70,0
12124,note_on,,1,0,1,,,,,,,,,,0,,65,0
12129,note_on,,5,0,1,,,,,,,,,,0,,81,0
12136,note_on,,7,0,1,,,,,,,,,,0,,84,0
12152,note_on,,16,0,1,,,,,,,,,,0,,46,59
12153,note_on,,1,0,1,,,,,,,,,,0,,70,61
12162,note_on,,9,0,1,,,,,,,,,,0,,79,77
12164,note_on,,2,0,1,,,,,,,,,,0,,46,0
12166,note_on,,2,0,1,,,,,,,,,,0,,55,59
12176,note_on,,10,0,1,,,,,,,,,,0,,84,62
12177,note_on,,1,0,1,,,,,,,,,,0,,55,0
12178,note_on,,1,0,1,,,,,,,,,,0,,70,0
12178,note_on,,0,0,1,,,,,,,,,,0,,64,62
12185,note_on,,7,0,1,,,,,,,,,,0,,79,0
12188,note_on,,3,0,1,,,,,,,,,,0,,64,0
12189,note_on,,1,0,1,,,,,,,,,,0,,84,0
12199,control_change,,10,0,1,,,,,,,,64,0,0,,,
12205,control_change,,6,0,1,,,,,,,,64,127,0,,,
12210,note_on,,5,0,1,,,,,,,,,,0,,46,63
12217,note_on,,7,0,1,,,,,,,,,,0,,72,37
12222,note_on,,5,0,1,,,,,,,,,,0,,77,55
12222,note_on,,0,0,1,,,,,,,,,,0,,53,63
12225,note_on,,3,0,1,,,,,,,,,,0,,46,0
12228,note_on,,3,0,1,,,,,,,,,,0,,81,67
12230,note_on,,2,0,1,,,,,,,,,,0,,57,64
12233,set_tempo,,353,1,0,,,,,,,808625,,,,,,
12240,note_on,,10,0,1,,,,,,,,,,0,,63,66
12242,note_on,,2,0,1,,,,,,,,,,0,,84,74
12244,note_on,,2,0,1,,,,,,,,,,0,,77,0
12246,note_on,,2,0,1,,,,,,,,,,0,,72,0
12247,note_on,,1,0,1,,,,,,,,,,0,,57,0
12251,note_on,,0,0,1,,,,,,,,,,0,,63,0
12251,note_on,,4,0,1,,,,,,,,,,0,,81,0
12254,note_on,,3,0,1,,,,,,,,,,0,,53,0
12257,note_on,,3,0,1,,,,,,,,,,0,,84,0
12266,control_change,,9,0,1,,,,,,,,64,0,0,,,
12275,control_change,,9,0,1,,,,,,,,64,127,0,,,
12278,note_on,,3,0,1,,,,,,,,,,0,,46,63
12281,note_on,,3,0,1,,,,,,,,,,0,,74,40
12288,note_on,,7,0,1,,,,,,,,,,0,,53,66
12292,note_on,,4,0,1,,,,,,,,,,0,,82,78
12293,note_on,,1,0,1,,,,,,,,,,0,,46,0
12294,note_on,,1,0,1,,,,,,,,,,0,,56,66
12297,note_on,,3,0,1,,,,,,,,,,0,,74,0
12302,note_on,,5,0,1,,,,,,,,,,0,,89,67
12302,note_on,,0,0,1,,,,,,,,,,0,,62,68
12309,note_on,,7,0,1,,,,,,,,,,0,,82,0
12310,set_tempo,,77,1,0,,,,,,,836820,,,,,,
12312,note_on,,3,0,1,,,,,,,,,,0,,56,0
12314,note_on,,2,0,1,,,,,,,,,,0,,62,0
12316,note_on,,2,0,1,,,,,,,,,,0,,53,0
12316,note_on,,0,0,1,,,,,,,,,,0,,89,0
12336,note_on,,20,0,1,,,,,,,,,,0,,46,69
12341,note_on,,5,0,1,,,,,,,,,,0,,73,42
12346,note_on,,5,0,1,,,,,,,,,,0,,82,74
12346,note_on,,0,0,1,,,,,,,,,,0,,53,69
12348,note_on,,2,0,1,,,,,,,,,,0,,46,0
12350,note_on,,2,0,1,,,,,,,,,,0,,56,73
12351,note_on,,1,0,1,,,,,,,,,,0,,73,0
12357,note_on,,6,0,1,,,,,,,,,,0,,88,80
12358,note_on,,1,0,1,,,,,,,,,,0,,62,73
12361,note_on,,3,0,1,,,,,,,,,,0,,82,0
12368,note_on,,7,0,1,,,,,,,,,,0,,56,0
12371,note_on,,3,0,1,,,,,,,,,,0,,62,0
12372,note_on,,1,0,1,,,,,,,,,,0,,53,0
12376,note_on,,4,0,1,,,,,,,,,,0,,88,0
12393,note_on,,17,0,1,,,,,,,,,,0,,46,69
12399,note_on,,6,0,1,,,,,,,,,,0,,74,50
12406,note_on,,7,0,1,,,,,,,,,,0,,46,0
12406,note_on,,0,0,1,,,,,,,,,,0,,53,71
12408,note_on,,2,0,1,,,,,,,,,,0,,82,78
12408,note_on,,0,0,1,,,,,,,,,,0,,56,71
12410,note_on,,2,0,1,,,,,,,,,,0,,74,0
12413,set_tempo,,103,1,0,,,,,,,860832,,,,,,
12414,note_on,,4,0,1,,,,,,,,,,0,,62,72
12420,note_on,,6,0,1,,,,,,,,,,0,,89,88
12421,note_on,,1,0,1,,,,,,,,,,0,,82,0
12424,note_on,,3,0,1,,,,,,,,,,0,,56,0
12425,note_on,,1,0,1,,,,,,,,,,0,,62,0
12427,note_on,,2,0,1,,,,,,,,,,0,,89,0
12428,note_on,,1,0,1,,,,,,,,,,0,,53,0
12450,note_on,,22,0,1,,,,,,,,,,0,,46,71
12459,note_on,,9,0,1,,,,,,,,,,0,,74,45
12460,set_tempo,,47,1,0,,,,,,,909091,,,,,,
12463,note_on,,4,0,1,,,,,,,,,,0,,53,71
12464,note_on,,1,0,1,,,,,,,,,,0,,46,0
12465,note_on,,1,0,1,,,,,,,,,,0,,84,84
12467,note_on,,2,0,1,,,,,,,,,,0,,56,73
12468,note_on,,1,0,1,,,,,,,,,,0,,74,0
12473,note_on,,5,0,1,,,,,,,,,,0,,84,0
12473,note_on,,0,0,1,,,,,,,,,,0,,62,73
12481,note_on,,8,0,1,,,,,,,,,,0,,92,87
12483,note_on,,2,0,1,,,,,,,,,,0,,56,0
12485,note_on,,2,0,1,,,,,,,,,,0,,62,0
12486,note_on,,1,0,1,,,,,,,,,,0,,53,0
12488,note_on,,2,0,1,,,,,,,,,,0,,92,0
12511,note_on,,23,0,1,,,,,,,,,,0,,46,69
12514,set_tempo,,54,1,0,,,,,,,1052632,,,,,,
12521,note_on,,10,0,1,,,,,,,,,,0,,74,57
12523,note_on,,2,0,1,,,,,,,,,,0,,46,0
12523,note_on,,0,0,1,,,,,,,,,,0,,53,72
12527,note_on,,4,0,1,,,,,,,,,,0,,56,72
12532,note_on,,0,0,1,,,,,,,,,,0,,82,73
12532,note_on,,5,0,1,,,,,,,,,,0,,74,0
12533,note_on,,1,0,1,,,,,,,,,,0,,62,72
12539,note_on,,6,0,1,,,,,,,,,,0,,82,0
12543,note_on,,4,0,1,,,,,,,,,,0,,62,0
12543,note_on,,0,0,1,,,,,,,,,,0,,56,0
12543,note_on,,0,0,1,,,,,,,,,,0,,91,85
12545,note_on,,2,0,1,,,,,,,,,,0,,53,0
12550,note_on,,5,0,1,,,,,,,,,,0,,91,0
12566,set_tempo,,52,1,0,,,,,,,1121495,,,,,,
12581,note_on,,31,0,1,,,,,,,,,,0,,70,50
12582,control_change,,1,0,1,,,,,,,,64,0,0,,,
12587,note_on,,5,0,1,,,,,,,,,,0,,79,72
12590,note_on,,3,0,1,,,,,,,,,,0,,70,0
12591,control_change,,1,0,1,,,,,,,,64,127,0,,,
12595,note_on,,4,0,1,,,,,,,,,,0,,39,93
12596,set_tempo,,30,1,0,,,,,,,1282051,,,,,,
12601,note_on,,6,0,1,,,,,,,,,,0,,87,90
12602,note_on,,1,0,1,,,,,,,,,,0,,79,0
12603,note_on,,1,0,1,,,,,,,,,,0,,39,0
12612,note_on,,9,0,1,,,,,,,,,,0,,87,0
12630,set_tempo,,34,1,0,,,,,,,1090909,,,,,,
12635,note_on,,23,0,1,,,,,,,,,,0,,70,50
12639,note_on,,4,0,1,,,,,,,,,,0,,51,71
12645,note_on,,6,0,1,,,,,,,,,,0,,79,57
12647,note_on,,2,0,1,,,,,,,,,,0,,58,72
12652,note_on,,5,0,1,,,,,,,,,,0,,51,0
12656,note_on,,4,0,1,,,,,,,,,,0,,82,89
12660,note_on,,4,0,1,,,,,,,,,,0,,67,74
12663,set_tempo,,33,1,0,,,,,,,902256,,,,,,
12665,note_on,,5,0,1,,,,,,,,,,0,,70,0
12667,note_on,,2,0,1,,,,,,,,,,0,,79,0
12669,note_on,,2,0,1,,,,,,,,,,0,,67,0
12670,note_on,,1,0,1,,,,,,,,,,0,,58,0
12674,note_on,,4,0,1,,,,,,,,,,0,,82,0
12694,note_on,,20,0,1,,,,,,,,,,0,,70,56
12700,note_on,,0,0,1,,,,,,,,,,0,,51,68
12700,note_on,,6,0,1,,,,,,,,,,0,,79,57
12707,note_on,,7,0,1,,,,,,,,,,0,,58,68
12713,note_on,,6,0,1,,,,,,,,,,0,,51,0
12713,note_on,,0,0,1,,,,,,,,,,0,,81,89
12720,note_on,,7,0,1,,,,,,,,,,0,,67,72
12724,note_on,,4,0,1,,,,,,,,,,0,,79,0
12725,note_on,,1,0,1,,,,,,,,,,0,,70,0
12729,note_on,,4,0,1,,,,,,,,,,0,,58,0
12731,note_on,,2,0,1,,,,,,,,,,0,,81,0
12731,note_on,,0,0,1,,,,,,,,,,0,,67,0
12740,set_tempo,,77,1,0,,,,,,,853485,,,,,,
12755,note_on,,0,0,1,,,,,,,,,,0,,51,68
12755,note_on,,24,0,1,,,,,,,,,,0,,70,51
12763,note_on,,8,0,1,,,,,,,,,,0,,79,57
12765,note_on,,2,0,1,,,,,,,,,,0,,58,69
12770,note_on,,5,0,1,,,,,,,,,,0,,51,0
12775,note_on,,5,0,1,,,,,,,,,,0,,82,88
12778,note_on,,3,0,1,,,,,,,,,,0,,67,72
12782,note_on,,4,0,1,,,,,,,,,,0,,70,0
12783,note_on,,1,0,1,,,,,,,,,,0,,79,0
12788,note_on,,5,0,1,,,,,,,,,,0,,67,0
12791,note_on,,3,0,1,,,,,,,,,,0,,82,0
12793,note_on,,2,0,1,,,,,,,,,,0,,58,0
12804,note_on,,11,0,1,,,,,,,,,,0,,70,47
12806,set_tempo,,66,1,0,,,,,,,833333,,,,,,
12814,note_on,,10,0,1,,,,,,,,,,0,,79,53
12814,note_on,,0,0,1,,,,,,,,,,0,,51,63
12820,note_on,,6,0,1,,,,,,,,,,0,,70,0
12824,note_on,,4,0,1,,,,,,,,,,0,,86,77
12824,note_on,,0,0,1,,,,,,,,,,0,,58,66
12827,note_on,,3,0,1,,,,,,,,,,0,,51,0
12836,note_on,,9,0,1,,,,,,,,,,0,,67,67
12840,note_on,,4,0,1,,,,,,,,,,0,,84,90
12842,note_on,,2,0,1,,,,,,,,,,0,,79,0
12843,note_on,,1,0,1,,,,,,,,,,0,,86,0
12845,note_on,,2,0,1,,,,,,,,,,0,,67,0
12849,note_on,,4,0,1,,,,,,,,,,0,,58,0
12854,note_on,,5,0,1,,,,,,,,,,0,,84,0
12874,note_on,,20,0,1,,,,,,,,,,0,,70,50
12877,note_on,,3,0,1,,,,,,,,,,0,,51,64
12885,note_on,,8,0,1,,,,,,,,,,0,,79,58
12885,note_on,,0,0,1,,,,,,,,,,0,,58,66
12889,note_on,,4,0,1,,,,,,,,,,0,,51,0
12897,note_on,,8,0,1,,,,,,,,,,0,,82,89
12897,note_on,,0,0,1,,,,,,,,,,0,,67,67
12903,note_on,,6,0,1,,,,,,,,,,0,,70,0
12905,note_on,,2,0,1,,,,,,,,,,0,,79,0
12906,note_on,,1,0,1,,,,,,,,,,0,,67,0
12908,note_on,,2,0,1,,,,,,,,,,0,,58,0
12914,note_on,,6,0,1,,,,,,,,,,0,,82,0
12933,control_change,,19,0,1,,,,,,,,64,0,0,,,
12933,note_on,,0,0,1,,,,,,,,,,0,,50,69
12936,note_on,,3,0,1,,,,,,,,,,0,,70,57
12943,control_change,,7,0,1,,,,,,,,64,127,0,,,
12944,note_on,,1,0,1,,,,,,,,,,0,,58,69
12945,note_on,,1,0,1,,,,,,,,,,0,,50,0
12946,note_on,,1,0,1,,,,,,,,,,0,,80,61
12947,note_on,,1,0,1,,,,,,,,,,0,,70,0
12954,note_on,,7,0,1,,,,,,,,,,0,,68,69
12958,note_on,,4,0,1,,,,,,,,,,0,,80,0
12961,note_on,,3,0,1,,,,,,,,,,0,,58,0
12962,note_on,,1,0,1,,,,,,,,,,0,,89,90
12964,note_on,,2,0,1,,,,,,,,,,0,,68,0
12974,note_on,,10,0,1,,,,,,,,,,0,,89,0
12997,note_on,,23,0,1,,,,,,,,,,0,,50,68
13004,note_on,,7,0,1,,,,,,,,,,0,,70,47
13008,note_on,,4,0,1,,,,,,,,,,0,,58,71
13012,note_on,,4,0,1,,,,,,,,,,0,,50,0
13013,note_on,,1,0,1,,,,,,,,,,0,,80,59
13021,note_on,,8,0,1,,,,,,,,,,0,,68,82
13023,note_on,,2,0,1,,,,,,,,,,0,,82,88
13030,note_on,,0,0,1,,,,,,,,,,0,,70,0
13030,note_on,,7,0,1,,,,,,,,,,0,,68,0
13030,note_on,,0,0,1,,,,,,,,,,0,,58,0
13037,note_on,,7,0,1,,,,,,,,,,0,,80,0
13044,note_on,,7,0,1,,,,,,,,,,0,,82,0
13056,note_on,,12,0,1,,,,,,,,,,0,,50,66
13059,note_on,,3,0,1,,,,,,,,,,0,,70,52
13066,note_on,,7,0,1,,,,,,,,,,0,,80,56
13069,note_on,,3,0,1,,,,,,,,,,0,,58,67
13070,note_on,,1,0,1,,,,,,,,,,0,,50,0
13078,note_on,,8,0,1,,,,,,,,,,0,,81,90
13079,note_on,,1,0,1,,,,,,,,,,0,,68,68
13087,note_on,,8,0,1,,,,,,,,,,0,,70,0
13088,note_on,,1,0,1,,,,,,,,,,0,,58,0
13089,note_on,,1,0,1,,,,,,,,,,0,,68,0
13092,note_on,,3,0,1,,,,,,,,,,0,,80,0
13097,note_on,,5,0,1,,,,,,,,,,0,,81,0
13113,note_on,,16,0,1,,,,,,,,,,0,,70,52
13117,note_on,,4,0,1,,,,,,,,,,0,,50,71
13122,note_on,,5,0,1,,,,,,,,,,0,,80,58
13127,note_on,,5,0,1,,,,,,,,,,0,,58,72
13130,note_on,,3,0,1,,,,,,,,,,0,,50,0
13133,note_on,,3,0,1,,,,,,,,,,0,,82,91
13136,note_on,,3,0,1,,,,,,,,,,0,,68,72
13139,note_on,,3,0,1,,,,,,,,,,0,,70,0
13145,note_on,,6,0,1,,,,,,,,,,0,,58,0
13146,note_on,,1,0,1,,,,,,,,,,0,,80,0
13147,note_on,,1,0,1,,,,,,,,,,0,,68,0
13149,note_on,,2,0,1,,,,,,,,,,0,,82,0
13163,note_on,,14,0,1,,,,,,,,,,0,,70,58
13173,note_on,,10,0,1,,,,,,,,,,0,,80,56
13173,note_on,,0,0,1,,,,,,,,,,0,,50,71
13178,note_on,,5,0,1,,,,,,,,,,0,,70,0
13185,note_on,,7,0,1,,,,,,,,,,0,,58,74
13186,note_on,,1,0,1,,,,,,,,,,0,,86,74
13187,note_on,,1,0,1,,,,,,,,,,0,,50,0
13195,note_on,,8,0,1,,,,,,,,,,0,,68,75
13200,note_on,,5,0,1,,,,,,,,,,0,,80,0
13202,note_on,,0,0,1,,,,,,,,,,0,,84,89
13202,note_on,,2,0,1,,,,,,,,,,0,,58,0
13204,note_on,,2,0,1,,,,,,,,,,0,,68,0
13206,note_on,,2,0,1,,,,,,,,,,0,,86,0
13214,note_on,,8,0,1,,,,,,,,,,0,,84,0
13231,note_on,,17,0,1,,,,,,,,,,0,,70,56
13234,note_on,,3,0,1,,,,,,,,,,0,,50,71
13243,note_on,,9,0,1,,,,,,,,,,0,,80,64
13246,note_on,,3,0,1,,,,,,,,,,0,,58,74
13248,note_on,,2,0,1,,,,,,,,,,0,,50,0
13253,note_on,,5,0,1,,,,,,,,,,0,,68,74
13255,note_on,,0,0,1,,,,,,,,,,0,,82,90
13255,note_on,,2,0,1,,,,,,,,,,0,,70,0
13259,note_on,,4,0,1,,,,,,,,,,0,,58,0
13263,note_on,,4,0,1,,,,,,,,,,0,,68,0
13264,note_on,,1,0,1,,,,,,,,,,0,,80,0
13269,note_on,,5,0,1,,,,,,,,,,0,,82,0
13281,note_on,,12,0,1,,,,,,,,,,0,,70,68
13288,note_on,,7,0,1,,,,,,,,,,0,,51,74
13294,note_on,,6,0,1,,,,,,,,,,0,,79,59
13297,note_on,,3,0,1,,,,,,,,,,0,,70,0
13301,note_on,,0,0,1,,,,,,,,,,0,,58,78
13301,note_on,,4,0,1,,,,,,,,,,0,,82,63
13304,control_change,,3,0,1,,,,,,,,64,0,0,,,
13305,note_on,,1,0,1,,,,,,,,,,0,,79,0
13305,note_on,,0,0,1,,,,,,,,,,0,,51,0
13311,note_on,,6,0,1,,,,,,,,,,0,,82,0
13312,note_on,,1,0,1,,,,,,,,,,0,,67,79
13313,control_change,,1,0,1,,,,,,,,64,127,0,,,
13319,note_on,,6,0,1,,,,,,,,,,0,,91,99
13322,note_on,,3,0,1,,,,,,,,,,0,,67,0
13323,note_on,,1,0,1,,,,,,,,,,0,,58,0
13326,note_on,,3,0,1,,,,,,,,,,0,,91,0
13350,note_on,,24,0,1,,,,,,,,,,0,,53,62
13357,note_on,,7,0,1,,,,,,,,,,0,,70,46
13362,control_change,,5,0,1,,,,,,,,64,0,0,,,
13363,note_on,,1,0,1,,,,,,,,,,0,,58,69
13367,note_on,,4,0,1,,,,,,,,,,0,,53,0
13368,note_on,,1,0,1,,,,,,,,,,0,,70,0
13368,note_on,,0,0,1,,,,,,,,,,0,,74,40
13368,note_on,,0,0,1,,,,,,,,,,0,,62,69
13368,control_change,,0,0,1,,,,,,,,64,127,0,,,
13375,note_on,,7,0,1,,,,,,,,,,0,,82,62
13376,note_on,,1,0,1,,,,,,,,,,0,,68,79
13383,note_on,,7,0,1,,,,,,,,,,0,,74,0
13383,note_on,,0,0,1,,,,,,,,,,0,,86,91
13385,note_on,,2,0,1,,,,,,,,,,0,,62,0
13388,note_on,,3,0,1,,,,,,,,,,0,,82,0
13395,note_on,,7,0,1,,,,,,,,,,0,,58,0
13397,note_on,,2,0,1,,,,,,,,,,0,,86,0
13399,note_on,,2,0,1,,,,,,,,,,0,,68,0
13413,note_on,,14,0,1,,,,,,,,,,0,,70,68
13417,note_on,,4,0,1,,,,,,,,,,0,,55,64
13418,control_change,,1,0,1,,,,,,,,64,0,0,,,
13421,note_on,,3,0,1,,,,,,,,,,0,,58,64
13424,note_on,,3,0,1,,,,,,,,,,0,,70,0
13426,note_on,,2,0,1,,,,,,,,,,0,,75,32
13428,control_change,,2,0,1,,,,,,,,64,127,0,,,
13428,note_on,,0,0,1,,,,,,,,,,0,,63,69
13433,note_on,,5,0,1,,,,,,,,,,0,,82,68
13436,note_on,,3,0,1,,,,,,,,,,0,,67,74
13441,note_on,,5,0,1,,,,,,,,,,0,,87,94
13446,note_on,,5,0,1,,,,,,,,,,0,,82,0
13446,note_on,,0,0,1,,,,,,,,,,0,,75,0
13447,note_on,,1,0,1,,,,,,,,,,0,,55,0
13448,note_on,,1,0,1,,,,,,,,,,0,,63,0
13448,note_on,,0,0,1,,,,,,,,,,0,,58,0
13450,note_on,,2,0,1,,,,,,,,,,0,,67,0
13455,note_on,,5,0,1,,,,,,,,,,0,,87,0
13474,note_on,,19,0,1,,,,,,,,,,0,,71,69
13475,note_on,,1,0,1,,,,,,,,,,0,,43,69
13485,note_on,,10,0,1,,,,,,,,,,0,,51,72
13486,note_on,,1,0,1,,,,,,,,,,0,,43,0
13486,note_on,,0,0,1,,,,,,,,,,0,,71,0
13487,note_on,,1,0,1,,,,,,,,,,0,,75,53
13496,note_on,,9,0,1,,,,,,,,,,0,,59,74
13501,note_on,,5,0,1,,,,,,,,,,0,,86,89
13502,note_on,,1,0,1,,,,,,,,,,0,,75,0
13507,note_on,,5,0,1,,,,,,,,,,0,,59,0
13508,note_on,,1,0,1,,,,,,,,,,0,,51,0
13512,note_on,,4,0,1,,,,,,,,,,0,,86,0
13534,note_on,,22,0,1,,,,,,,,,,0,,44,67
13540,note_on,,6,0,1,,,,,,,,,,0,,72,37
13540,control_change,,0,0,1,,,,,,,,64,0,0,,,
13542,note_on,,2,0,1,,,,,,,,,,0,,51,69
13544,note_on,,2,0,1,,,,,,,,,,0,,44,0
13549,note_on,,5,0,1,,,,,,,,,,0,,75,74
13552,note_on,,0,0,1,,,,,,,,,,0,,60,71
13552,control_change,,3,0,1,,,,,,,,64,127,0,,,
13557,note_on,,5,0,1,,,,,,,,,,0,,51,0
13558,note_on,,1,0,1,,,,,,,,,,0,,72,0
13560,note_on,,2,0,1,,,,,,,,,,0,,60,0
13560,note_on,,0,0,1,,,,,,,,,,0,,84,90
13563,note_on,,3,0,1,,,,,,,,,,0,,75,0
13570,note_on,,7,0,1,,,,,,,,,,0,,84,0
13592,note_on,,22,0,1,,,,,,,,,,0,,45,67
13597,control_change,,0,0,1,,,,,,,,64,0,0,,,
13597,note_on,,5,0,1,,,,,,,,,,0,,72,48
13602,note_on,,5,0,1,,,,,,,,,,0,,53,69
13603,note_on,,1,0,1,,,,,,,,,,0,,45,0
13603,note_on,,0,0,1,,,,,,,,,,0,,77,68
13607,note_on,,4,0,1,,,,,,,,,,0,,72,0
13612,control_change,,5,0,1,,,,,,,,64,127,0,,,
13613,note_on,,1,0,1,,,,,,,,,,0,,77,0
13616,note_on,,3,0,1,,,,,,,,,,0,,63,73
13619,note_on,,3,0,1,,,,,,,,,,0,,53,0
13620,note_on,,1,0,1,,,,,,,,,,0,,89,91
13626,note_on,,6,0,1,,,,,,,,,,0,,63,0
13629,note_on,,3,0,1,,,,,,,,,,0,,89,0
13653,note_on,,24,0,1,,,,,,,,,,0,,46,66
13656,note_on,,3,0,1,,,,,,,,,,0,,70,50
13657,control_change,,1,0,1,,,,,,,,64,0,0,,,
13666,note_on,,9,0,1,,,,,,,,,,0,,79,57
13667,note_on,,1,0,1,,,,,,,,,,0,,70,0
13669,note_on,,2,0,1,,,,,,,,,,0,,46,0
13669,note_on,,0,0,1,,,,,,,,,,0,,55,69
13670,control_change,,1,0,1,,,,,,,,64,127,0,,,
13678,note_on,,8,0,1,,,,,,,,,,0,,79,0
13681,note_on,,3,0,1,,,,,,,,,,0,,87,89
13681,note_on,,0,0,1,,,,,,,,,,0,,63,69
13686,note_on,,5,0,1,,,,,,,,,,0,,55,0
13691,note_on,,5,0,1,,,,,,,,,,0,,87,0
13693,note_on,,2,0,1,,,,,,,,,,0,,63,0
13719,note_on,,26,0,1,,,,,,,,,,0,,70,56
13719,note_on,,0,0,1,,,,,,,,,,0,,46,72
13725,note_on,,6,0,1,,,,,,,,,,0,,78,71
13727,control_change,,2,0,1,,,,,,,,64,0,0,,,
13728,note_on,,1,0,1,,,,,,,,,,0,,70,0
13731,note_on,,3,0,1,,,,,,,,,,0,,54,72
13733,note_on,,2,0,1,,,,,,,,,,0,,81,68
13734,note_on,,1,0,1,,,,,,,,,,0,,46,0
13735,note_on,,1,0,1,,,,,,,,,,0,,78,0
13737,control_change,,2,0,1,,,,,,,,64,127,0,,,
13741,note_on,,4,0,1,,,,,,,,,,0,,57,72
13743,note_on,,2,0,1,,,,,,,,,,0,,87,88
13744,note_on,,1,0,1,,,,,,,,,,0,,81,0
13750,note_on,,6,0,1,,,,,,,,,,0,,63,72
13754,note_on,,4,0,1,,,,,,,,,,0,,87,0
13755,note_on,,1,0,1,,,,,,,,,,0,,57,0
13758,note_on,,3,0,1,,,,,,,,,,0,,54,0
13760,note_on,,2,0,1,,,,,,,,,,0,,63,0
13779,note_on,,19,0,1,,,,,,,,,,0,,70,58
13779,note_on,,0,0,1,,,,,,,,,,0,,46,61
13786,note_on,,7,0,1,,,,,,,,,,0,,77,66
13789,note_on,,3,0,1,,,,,,,,,,0,,53,61
13791,control_change,,2,0,1,,,,,,,,64,0,0,,,
13792,note_on,,1,0,1,,,,,,,,,,0,,46,0
13792,note_on,,0,0,1,,,,,,,,,,0,,70,0
13792,note_on,,0,0,1,,,,,,,,,,0,,82,69
13796,note_on,,4,0,1,,,,,,,,,,0,,77,0
13798,control_change,,2,0,1,,,,,,,,64,127,0,,,
13798,note_on,,0,0,1,,,,,,,,,,0,,58,61
13799,note_on,,1,0,1,,,,,,,,,,0,,86,80
13806,note_on,,7,0,1,,,,,,,,,,0,,82,0
13806,note_on,,0,0,1,,,,,,,,,,0,,53,0
13807,note_on,,1,0,1,,,,,,,,,,0,,62,63
13808,note_on,,1,0,1,,,,,,,,,,0,,86,0
13812,note_on,,4,0,1,,,,,,,,,,0,,58,0
13820,note_on,,8,0,1,,,,,,,,,,0,,62,0
13840,note_on,,20,0,1,,,,,,,,,,0,,70,59
13840,note_on,,0,0,1,,,,,,,,,,0,,48,56
13847,control_change,,7,0,1,,,,,,,,64,0,0,,,
13851,note_on,,4,0,1,,,,,,,,,,0,,76,66
13851,note_on,,0,0,1,,,,,,,,,,0,,55,57
13853,note_on,,2,0,1,,,,,,,,,,0,,48,0
13855,note_on,,2,0,1,,,,,,,,,,0,,79,66
13855,note_on,,0,0,1,,,,,,,,,,0,,58,57
13857,control_change,,2,0,1,,,,,,,,64,127,0,,,
13861,note_on,,4,0,1,,,,,,,,,,0,,70,0
13862,note_on,,1,0,1,,,,,,,,,,0,,85,72
13863,note_on,,1,0,1,,,,,,,,,,0,,64,58
13866,note_on,,3,0,1,,,,,,,,,,0,,76,0
13869,note_on,,3,0,1,,,,,,,,,,0,,79,0
13874,note_on,,5,0,1,,,,,,,,,,0,,58,0
13874,note_on,,0,0,1,,,,,,,,,,0,,64,0
13875,note_on,,1,0,1,,,,,,,,,,0,,85,0
13876,note_on,,1,0,1,,,,,,,,,,0,,55,0
13896,note_on,,20,0,1,,,,,,,,,,0,,48,69
13902,note_on,,6,0,1,,,,,,,,,,0,,68,59
13905,control_change,,3,0,1,,,,,,,,64,0,0,,,
13907,note_on,,0,0,1,,,,,,,,,,0,,56,71
13907,note_on,,2,0,1,,,,,,,,,,0,,48,0
13909,note_on,,2,0,1,,,,,,,,,,0,,77,63
13914,control_change,,5,0,1,,,,,,,,64,127,0,,,
13916,note_on,,2,0,1,,,,,,,,,,0,,68,0
13916,note_on,,0,0,1,,,,,,,,,,0,,80,71
13918,note_on,,2,0,1,,,,,,,,,,0,,65,72
13920,note_on,,2,0,1,,,,,,,,,,0,,56,0
13923,note_on,,3,0,1,,,,,,,,,,0,,84,83
13925,note_on,,0,0,1,,,,,,,,,,0,,65,0
13925,note_on,,2,0,1,,,,,,,,,,0,,77,0
13929,note_on,,4,0,1,,,,,,,,,,0,,80,0
13935,note_on,,6,0,1,,,,,,,,,,0,,84,0
13952,note_on,,17,0,1,,,,,,,,,,0,,48,69
13959,note_on,,7,0,1,,,,,,,,,,0,,55,75
13960,note_on,,1,0,1,,,,,,,,,,0,,48,0
13961,note_on,,1,0,1,,,,,,,,,,0,,72,51
13961,control_change,,0,0,1,,,,,,,,64,0,0,,,
13968,note_on,,7,0,1,,,,,,,,,,0,,60,75
13969,control_change,,1,0,1,,,,,,,,64,127,0,,,
13970,note_on,,1,0,1,,,,,,,,,,0,,79,64
13971,note_on,,1,0,1,,,,,,,,,,0,,55,0
13976,note_on,,5,0,1,,,,,,,,,,0,,82,68
13978,note_on,,2,0,1,,,,,,,,,,0,,72,0
13981,note_on,,3,0,1,,,,,,,,,,0,,67,80
13982,note_on,,1,0,1,,,,,,,,,,0,,60,0
13984,note_on,,2,0,1,,,,,,,,,,0,,79,0
13988,note_on,,4,0,1,,,,,,,,,,0,,67,0
13988,note_on,,0,0,1,,,,,,,,,,0,,88,89
13995,note_on,,7,0,1,,,,,,,,,,0,,82,0
13998,note_on,,3,0,1,,,,,,,,,,0,,88,0
14015,control_change,,17,0,1,,,,,,,,64,0,0,,,
14024,note_on,,9,0,1,,,,,,,,,,0,,72,66
14029,control_change,,5,0,1,,,,,,,,64,127,0,,,
14030,note_on,,1,0,1,,,,,,,,,,0,,80,69
14035,note_on,,5,0,1,,,,,,,,,,0,,72,0
14038,note_on,,3,0,1,,,,,,,,,,0,,41,89
14043,note_on,,5,0,1,,,,,,,,,,0,,89,93
14044,note_on,,1,0,1,,,,,,,,,,0,,80,0
14055,note_on,,11,0,1,,,,,,,,,,0,,89,0
14059,note_on,,4,0,1,,,,,,,,,,0,,41,0
14085,note_on,,0,0,1,,,,,,,,,,0,,53,63
14085,note_on,,26,0,1,,,,,,,,,,0,,72,42
14095,note_on,,10,0,1,,,,,,,,,,0,,80,62
14096,note_on,,1,0,1,,,,,,,,,,0,,60,61
14098,note_on,,2,0,1,,,,,,,,,,0,,53,0
14107,note_on,,9,0,1,,,,,,,,,,0,,84,88
14107,note_on,,0,0,1,,,,,,,,,,0,,68,68
14116,note_on,,9,0,1,,,,,,,,,,0,,72,0
14116,note_on,,0,0,1,,,,,,,,,,0,,60,0
14119,note_on,,3,0,1,,,,,,,,,,0,,68,0
14119,note_on,,0,0,1,,,,,,,,,,0,,80,0
14121,note_on,,2,0,1,,,,,,,,,,0,,84,0
14145,note_on,,24,0,1,,,,,,,,,,0,,53,75
14146,note_on,,1,0,1,,,,,,,,,,0,,71,48
14152,note_on,,6,0,1,,,,,,,,,,0,,80,62
14157,note_on,,5,0,1,,,,,,,,,,0,,60,79
14158,note_on,,1,0,1,,,,,,,,,,0,,53,0
14163,note_on,,5,0,1,,,,,,,,,,0,,83,90
14165,note_on,,2,0,1,,,,,,,,,,0,,68,82
14170,note_on,,5,0,1,,,,,,,,,,0,,71,0
14174,note_on,,4,0,1,,,,,,,,,,0,,80,0
14176,note_on,,2,0,1,,,,,,,,,,0,,60,0
14177,note_on,,1,0,1,,,,,,,,,,0,,68,0
14179,note_on,,2,0,1,,,,,,,,,,0,,83,0
14200,note_on,,21,0,1,,,,,,,,,,0,,53,55
14202,note_on,,2,0,1,,,,,,,,,,0,,72,48
14210,note_on,,8,0,1,,,,,,,,,,0,,80,64
14213,note_on,,3,0,1,,,,,,,,,,0,,60,71
14216,note_on,,3,0,1,,,,,,,,,,0,,53,0
14221,note_on,,5,0,1,,,,,,,,,,0,,84,91
14221,note_on,,0,0,1,,,,,,,,,,0,,68,62
14225,note_on,,4,0,1,,,,,,,,,,0,,72,0
14230,note_on,,5,0,1,,,,,,,,,,0,,80,0
14232,note_on,,2,0,1,,,,,,,,,,0,,60,0
14233,note_on,,1,0,1,,,,,,,,,,0,,68,0
14234,note_on,,1,0,1,,,,,,,,,,0,,84,0
14253,note_on,,19,0,1,,,,,,,,,,0,,73,51
14258,note_on,,5,0,1,,,,,,,,,,0,,53,68
14260,note_on,,2,0,1,,,,,,,,,,0,,80,66
14269,note_on,,9,0,1,,,,,,,,,,0,,87,82
14271,note_on,,2,0,1,,,,,,,,,,0,,60,71
14272,note_on,,1,0,1,,,,,,,,,,0,,73,0
14273,note_on,,1,0,1,,,,,,,,,,0,,53,0
14278,note_on,,5,0,1,,,,,,,,,,0,,80,0
14279,note_on,,1,0,1,,,,,,,,,,0,,68,72
14283,note_on,,4,0,1,,,,,,,,,,0,,85,91
14287,note_on,,4,0,1,,,,,,,,,,0,,87,0
14289,note_on,,2,0,1,,,,,,,,,,0,,60,0
14290,note_on,,1,0,1,,,,,,,,,,0,,85,0
14292,note_on,,2,0,1,,,,,,,,,,0,,68,0
14316,note_on,,24,0,1,,,,,,,,,,0,,53,56
14327,note_on,,11,0,1,,,,,,,,,,0,,72,51
14329,note_on,,2,0,1,,,,,,,,,,0,,60,67
14333,note_on,,0,0,1,,,,,,,,,,0,,80,69
14333,note_on,,4,0,1,,,,,,,,,,0,,53,0
14339,note_on,,6,0,1,,,,,,,,,,0,,68,69
14344,note_on,,5,0,1,,,,,,,,,,0,,84,90
14348,note_on,,4,0,1,,,,,,,,,,0,,72,0
14349,note_on,,1,0,1,,,,,,,,,,0,,60,0
14351,note_on,,2,0,1,,,,,,,,,,0,,68,0
14351,note_on,,0,0,1,,,,,,,,,,0,,80,0
14356,note_on,,5,0,1,,,,,,,,,,0,,84,0
14375,note_on,,19,0,1,,,,,,,,,,0,,72,40
14380,note_on,,5,0,1,,,,,,,,,,0,,52,55
14382,note_on,,2,0,1,,,,,,,,,,0,,79,63
14383,control_change,,1,0,1,,,,,,,,64,0,0,,,
14387,note_on,,4,0,1,,,,,,,,,,0,,58,72
14388,note_on,,1,0,1,,,,,,,,,,0,,82,66
14389,note_on,,1,0,1,,,,,,,,,,0,,72,0
14392,note_on,,3,0,1,,,,,,,,,,0,,52,0
14392,control_change,,0,0,1,,,,,,,,64,127,0,,,
14392,note_on,,0,0,1,,,,,,,,,,0,,60,53
14393,note_on,,1,0,1,,,,,,,,,,0,,79,0
14398,note_on,,5,0,1,,,,,,,,,,0,,82,0
14400,note_on,,2,0,1,,,,,,,,,,0,,67,73
14403,note_on,,3,0,1,,,,,,,,,,0,,91,93
14408,note_on,,5,0,1,,,,,,,,,,0,,60,0
14409,note_on,,1,0,1,,,,,,,,,,0,,58,0
14411,note_on,,2,0,1,,,,,,,,,,0,,67,0
14415,note_on,,4,0,1,,,,,,,,,,0,,91,0
14426,set_tempo,,1620,1,0,,,,,,,849858,,,,,,
14437,note_on,,22,0,1,,,,,,,,,,0,,52,66
14441,note_on,,4,0,1,,,,,,,,,,0,,72,52
14447,note_on,,6,0,1,,,,,,,,,,0,,79,55
14447,note_on,,0,0,1,,,,,,,,,,0,,58,71
14450,note_on,,3,0,1,,,,,,,,,,0,,60,61
14451,note_on,,1,0,1,,,,,,,,,,0,,52,0
14452,note_on,,1,0,1,,,,,,,,,,0,,82,58
14459,note_on,,7,0,1,,,,,,,,,,0,,67,66
14461,note_on,,2,0,1,,,,,,,,,,0,,84,89
14468,note_on,,7,0,1,,,,,,,,,,0,,58,0
14469,note_on,,1,0,1,,,,,,,,,,0,,60,0
14471,note_on,,2,0,1,,,,,,,,,,0,,79,0
14471,note_on,,0,0,1,,,,,,,,,,0,,67,0
14473,note_on,,2,0,1,,,,,,,,,,0,,82,0
14475,note_on,,2,0,1,,,,,,,,,,0,,72,0
14481,note_on,,6,0,1,,,,,,,,,,0,,84,0
14495,note_on,,14,0,1,,,,,,,,,,0,,52,46
14498,note_on,,3,0,1,,,,,,,,,,0,,71,46
14503,note_on,,5,0,1,,,,,,,,,,0,,79,51
14504,note_on,,1,0,1,,,,,,,,,,0,,58,69
14508,note_on,,4,0,1,,,,,,,,,,0,,52,0
14508,note_on,,0,0,1,,,,,,,,,,0,,60,53
14509,note_on,,1,0,1,,,,,,,,,,0,,82,58
14517,note_on,,8,0,1,,,,,,,,,,0,,83,87
14518,note_on,,1,0,1,,,,,,,,,,0,,67,79
14523,note_on,,5,0,1,,,,,,,,,,0,,58,0
14525,note_on,,2,0,1,,,,,,,,,,0,,71,0
14527,note_on,,2,0,1,,,,,,,,,,0,,79,0
14528,note_on,,1,0,1,,,,,,,,,,0,,82,0
14528,note_on,,0,0,1,,,,,,,,,,0,,60,0
14530,note_on,,2,0,1,,,,,,,,,,0,,67,0
14536,note_on,,6,0,1,,,,,,,,,,0,,83,0
14555,note_on,,19,0,1,,,,,,,,,,0,,72,46
14555,note_on,,0,0,1,,,,,,,,,,0,,52,69
14562,note_on,,7,0,1,,,,,,,,,,0,,79,59
14563,note_on,,1,0,1,,,,,,,,,,0,,58,63
14566,note_on,,3,0,1,,,,,,,,,,0,,52,0
14566,note_on,,0,0,1,,,,,,,,,,0,,60,64
14567,note_on,,1,0,1,,,,,,,,,,0,,82,61
14575,note_on,,8,0,1,,,,,,,,,,0,,67,83
14577,note_on,,2,0,1,,,,,,,,,,0,,84,88
14583,note_on,,6,0,1,,,,,,,,,,0,,72,0
14586,note_on,,3,0,1,,,,,,,,,,0,,79,0
14587,note_on,,1,0,1,,,,,,,,,,0,,60,0
14587,note_on,,0,0,1,,,,,,,,,,0,,58,0
14587,note_on,,0,0,1,,,,,,,,,,0,,67,0
14588,note_on,,1,0,1,,,,,,,,,,0,,82,0
14594,note_on,,6,0,1,,,,,,,,,,0,,84,0
14603,set_tempo,,177,1,0,,,,,,,868307,,,,,,
14609,note_on,,15,0,1,,,,,,,,,,0,,73,46
14611,note_on,,2,0,1,,,,,,,,,,0,,52,63
14619,note_on,,8,0,1,,,,,,,,,,0,,79,55
14620,note_on,,0,0,1,,,,,,,,,,0,,58,71
14620,note_on,,1,0,1,,,,,,,,,,0,,82,56
14621,note_on,,1,0,1,,,,,,,,,,0,,79,0
14622,note_on,,1,0,1,,,,,,,,,,0,,52,0
14622,note_on,,0,0,1,,,,,,,,,,0,,60,74
14628,note_on,,6,0,1,,,,,,,,,,0,,73,0
14628,note_on,,0,0,1,,,,,,,,,,0,,87,82
14631,note_on,,3,0,1,,,,,,,,,,0,,67,72
14640,note_on,,9,0,1,,,,,,,,,,0,,85,91
14642,note_on,,2,0,1,,,,,,,,,,0,,60,0
14643,note_on,,1,0,1,,,,,,,,,,0,,67,0
14644,note_on,,0,0,1,,,,,,,,,,0,,58,0
14644,note_on,,1,0,1,,,,,,,,,,0,,82,0
14646,note_on,,2,0,1,,,,,,,,,,0,,87,0
14656,note_on,,10,0,1,,,,,,,,,,0,,85,0
14668,note_on,,12,0,1,,,,,,,,,,0,,52,59
14678,note_on,,10,0,1,,,,,,,,,,0,,58,62
14679,note_on,,1,0,1,,,,,,,,,,0,,60,75
14680,note_on,,1,0,1,,,,,,,,,,0,,52,0
14681,note_on,,1,0,1,,,,,,,,,,0,,72,51
14687,note_on,,6,0,1,,,,,,,,,,0,,79,53
14689,note_on,,2,0,1,,,,,,,,,,0,,67,58
14693,note_on,,4,0,1,,,,,,,,,,0,,82,56
14697,note_on,,0,0,1,,,,,,,,,,0,,58,0
14697,note_on,,4,0,1,,,,,,,,,,0,,60,0
14702,note_on,,5,0,1,,,,,,,,,,0,,67,0
14703,note_on,,1,0,1,,,,,,,,,,0,,84,90
14709,note_on,,6,0,1,,,,,,,,,,0,,79,0
14709,note_on,,0,0,1,,,,,,,,,,0,,72,0
14715,note_on,,6,0,1,,,,,,,,,,0,,82,0
14717,note_on,,2,0,1,,,,,,,,,,0,,84,0
14734,note_on,,17,0,1,,,,,,,,,,0,,53,62
14737,note_on,,3,0,1,,,,,,,,,,0,,72,59
14741,note_on,,4,0,1,,,,,,,,,,0,,80,63
14743,note_on,,0,0,1,,,,,,,,,,0,,56,71
14743,control_change,,2,0,1,,,,,,,,64,0,0,,,
14749,note_on,,6,0,1,,,,,,,,,,0,,72,0
14749,note_on,,0,0,1,,,,,,,,,,0,,84,72
14749,note_on,,0,0,1,,,,,,,,,,0,,60,66
14750,note_on,,1,0,1,,,,,,,,,,0,,53,0
14754,note_on,,4,0,1,,,,,,,,,,0,,80,0
14755,control_change,,1,0,1,,,,,,,,64,127,0,,,
14756,note_on,,0,0,1,,,,,,,,,,0,,68,82
14756,note_on,,1,0,1,,,,,,,,,,0,,84,0
14760,set_tempo,,157,1,0,,,,,,,910470,,,,,,
14762,note_on,,6,0,1,,,,,,,,,,0,,92,96
14763,note_on,,1,0,1,,,,,,,,,,0,,60,0
14764,note_on,,1,0,1,,,,,,,,,,0,,56,0
14768,note_on,,4,0,1,,,,,,,,,,0,,68,0
14773,note_on,,5,0,1,,,,,,,,,,0,,92,0
14799,note_on,,26,0,1,,,,,,,,,,0,,75,45
14799,note_on,,0,0,1,,,,,,,,,,0,,55,50
14805,control_change,,6,0,1,,,,,,,,64,0,0,,,
14806,note_on,,1,0,1,,,,,,,,,,0,,82,55
14807,note_on,,1,0,1,,,,,,,,,,0,,58,72
14812,note_on,,5,0,1,,,,,,,,,,0,,55,0
14813,note_on,,1,0,1,,,,,,,,,,0,,87,58
14813,control_change,,0,0,1,,,,,,,,64,127,0,,,
14814,note_on,,1,0,1,,,,,,,,,,0,,75,0
14814,note_on,,0,0,1,,,,,,,,,,0,,63,69
14820,note_on,,6,0,1,,,,,,,,,,0,,82,0
14823,note_on,,3,0,1,,,,,,,,,,0,,91,85
14823,note_on,,0,0,1,,,,,,,,,,0,,70,64
14826,note_on,,3,0,1,,,,,,,,,,0,,58,0
14828,note_on,,2,0,1,,,,,,,,,,0,,63,0
14829,note_on,,1,0,1,,,,,,,,,,0,,87,0
14835,note_on,,6,0,1,,,,,,,,,,0,,70,0
14838,note_on,,3,0,1,,,,,,,,,,0,,91,0
14859,note_on,,21,0,1,,,,,,,,,,0,,56,64
14862,control_change,,3,0,1,,,,,,,,64,0,0,,,
14864,note_on,,2,0,1,,,,,,,,,,0,,77,43
14869,note_on,,5,0,1,,,,,,,,,,0,,63,67
14871,control_change,,2,0,1,,,,,,,,64,127,0,,,
14872,note_on,,1,0,1,,,,,,,,,,0,,56,0
14872,note_on,,0,0,1,,,,,,,,,,0,,84,47
14877,note_on,,5,0,1,,,,,,,,,,0,,87,51
14879,note_on,,2,0,1,,,,,,,,,,0,,72,55
14883,note_on,,4,0,1,,,,,,,,,,0,,89,80
14883,set_tempo,,123,1,0,,,,,,,829876,,,,,,
14887,note_on,,0,0,1,,,,,,,,,,0,,77,0
14887,note_on,,4,0,1,,,,,,,,,,0,,63,0
14889,note_on,,2,0,1,,,,,,,,,,0,,84,0
14890,note_on,,1,0,1,,,,,,,,,,0,,72,0
14895,note_on,,5,0,1,,,,,,,,,,0,,87,0
14904,note_on,,9,0,1,,,,,,,,,,0,,89,0
14917,note_on,,13,0,1,,,,,,,,,,0,,56,56
14923,note_on,,6,0,1,,,,,,,,,,0,,77,47
14928,note_on,,0,0,1,,,,,,,,,,0,,63,58
14928,note_on,,5,0,1,,,,,,,,,,0,,83,50
14931,note_on,,3,0,1,,,,,,,,,,0,,56,0
14935,note_on,,4,0,1,,,,,,,,,,0,,87,53
14936,note_on,,1,0,1,,,,,,,,,,0,,71,63
14941,note_on,,5,0,1,,,,,,,,,,0,,89,72
14944,note_on,,3,0,1,,,,,,,,,,0,,63,0
14947,note_on,,3,0,1,,,,,,,,,,0,,83,0
14948,note_on,,1,0,1,,,,,,,,,,0,,71,0
14951,note_on,,3,0,1,,,,,,,,,,0,,77,0
14955,note_on,,4,0,1,,,,,,,,,,0,,87,0
14956,note_on,,1,0,1,,,,,,,,,,0,,89,0
14976,control_change,,20,0,1,,,,,,,,64,0,0,,,
14978,note_on,,2,0,1,,,,,,,,,,0,,58,57
14980,note_on,,2,0,1,,,,,,,,,,0,,74,45
14986,control_change,,6,0,1,,,,,,,,64,127,0,,,
14988,note_on,,2,0,1,,,,,,,,,,0,,82,53
14991,note_on,,3,0,1,,,,,,,,,,0,,74,0
14991,note_on,,0,0,1,,,,,,,,,,0,,65,61
14997,note_on,,6,0,1,,,,,,,,,,0,,70,61
15000,note_on,,3,0,1,,,,,,,,,,0,,89,69
15002,note_on,,2,0,1,,,,,,,,,,0,,82,0
15003,note_on,,1,0,1,,,,,,,,,,0,,58,0
15006,note_on,,3,0,1,,,,,,,,,,0,,65,0
15010,note_on,,4,0,1,,,,,,,,,,0,,89,0
15013,note_on,,3,0,1,,,,,,,,,,0,,70,0
15013,set_tempo,,130,1,0,,,,,,,807537,,,,,,
15032,note_on,,19,0,1,,,,,,,,,,0,,58,59
15042,note_on,,10,0,1,,,,,,,,,,0,,77,41
15043,note_on,,1,0,1,,,,,,,,,,0,,65,59
15048,note_on,,0,0,1,,,,,,,,,,0,,68,62
15048,note_on,,5,0,1,,,,,,,,,,0,,58,0
15050,note_on,,2,0,1,,,,,,,,,,0,,86,48
15057,note_on,,7,0,1,,,,,,,,,,0,,65,0
15058,note_on,,0,0,1,,,,,,,,,,0,,74,64
15058,note_on,,1,0,1,,,,,,,,,,0,,91,62
15063,note_on,,0,0,1,,,,,,,,,,0,,68,0
15063,note_on,,5,0,1,,,,,,,,,,0,,77,0
15067,note_on,,4,0,1,,,,,,,,,,0,,86,0
15068,note_on,,1,0,1,,,,,,,,,,0,,74,0
15071,note_on,,3,0,1,,,,,,,,,,0,,91,0
15089,note_on,,18,0,1,,,,,,,,,,0,,58,45
15092,control_change,,3,0,1,,,,,,,,64,0,0,,,
15096,note_on,,4,0,1,,,,,,,,,,0,,76,43
15101,note_on,,5,0,1,,,,,,,,,,0,,64,50
15104,note_on,,3,0,1,,,,,,,,,,0,,86,51
15105,note_on,,1,0,1,,,,,,,,,,0,,58,0
15106,control_change,,1,0,1,,,,,,,,64,127,0,,,
15109,note_on,,3,0,1,,,,,,,,,,0,,76,0
15112,note_on,,3,0,1,,,,,,,,,,0,,67,53
15115,note_on,,3,0,1,,,,,,,,,,0,,74,53
15116,note_on,,1,0,1,,,,,,,,,,0,,91,57
15123,note_on,,7,0,1,,,,,,,,,,0,,67,0
15124,note_on,,1,0,1,,,,,,,,,,0,,86,0
15125,note_on,,1,0,1,,,,,,,,,,0,,64,0
15129,note_on,,4,0,1,,,,,,,,,,0,,91,0
15130,note_on,,1,0,1,,,,,,,,,,0,,74,0
15136,set_tempo,,123,1,0,,,,,,,793651,,,,,,
15150,note_on,,20,0,1,,,,,,,,,,0,,58,47
15152,control_change,,2,0,1,,,,,,,,64,0,0,,,
15160,note_on,,8,0,1,,,,,,,,,,0,,76,35
15163,control_change,,3,0,1,,,,,,,,64,127,0,,,
15164,note_on,,1,0,1,,,,,,,,,,0,,85,39
15164,note_on,,0,0,1,,,,,,,,,,0,,64,50
15165,note_on,,1,0,1,,,,,,,,,,0,,58,0
15167,note_on,,2,0,1,,,,,,,,,,0,,76,0
15171,note_on,,4,0,1,,,,,,,,,,0,,67,53
15175,note_on,,4,0,1,,,,,,,,,,0,,73,53
15176,note_on,,1,0,1,,,,,,,,,,0,,91,56
15180,note_on,,4,0,1,,,,,,,,,,0,,85,0
15182,note_on,,2,0,1,,,,,,,,,,0,,67,0
15183,note_on,,1,0,1,,,,,,,,,,0,,64,0
15189,note_on,,6,0,1,,,,,,,,,,0,,73,0
15190,note_on,,1,0,1,,,,,,,,,,0,,91,0
15209,note_on,,19,0,1,,,,,,,,,,0,,57,42
15211,control_change,,2,0,1,,,,,,,,64,0,0,,,
15221,note_on,,10,0,1,,,,,,,,,,0,,76,35
15222,control_change,,1,0,1,,,,,,,,64,127,0,,,
15223,note_on,,0,0,1,,,,,,,,,,0,,64,51
15223,note_on,,1,0,1,,,,,,,,,,0,,57,0
15224,note_on,,0,0,1,,,,,,,,,,0,,67,51
15224,note_on,,1,0,1,,,,,,,,,,0,,85,39
15230,note_on,,6,0,1,,,,,,,,,,0,,76,0
15234,note_on,,4,0,1,,,,,,,,,,0,,73,51
15235,note_on,,1,0,1,,,,,,,,,,0,,91,56
15238,note_on,,3,0,1,,,,,,,,,,0,,64,0
15239,note_on,,0,0,1,,,,,,,,,,0,,85,0
15239,note_on,,1,0,1,,,,,,,,,,0,,67,0
15243,note_on,,4,0,1,,,,,,,,,,0,,73,0
15246,set_tempo,,110,1,0,,,,,,,747198,,,,,,
15249,note_on,,6,0,1,,,,,,,,,,0,,91,0
15271,note_on,,22,0,1,,,,,,,,,,0,,57,46
15281,note_on,,0,0,1,,,,,,,,,,0,,63,46
15281,note_on,,10,0,1,,,,,,,,,,0,,57,0
15282,note_on,,1,0,1,,,,,,,,,,0,,75,35
15285,control_change,,3,0,1,,,,,,,,64,0,0,,,
15289,note_on,,4,0,1,,,,,,,,,,0,,85,39
15289,note_on,,0,0,1,,,,,,,,,,0,,66,50
15293,note_on,,4,0,1,,,,,,,,,,0,,73,50
15294,control_change,,1,0,1,,,,,,,,64,127,0,,,
15298,note_on,,4,0,1,,,,,,,,,,0,,66,0
15299,note_on,,1,0,1,,,,,,,,,,0,,90,59
15300,note_on,,1,0,1,,,,,,,,,,0,,63,0
15304,note_on,,4,0,1,,,,,,,,,,0,,73,0
15304,note_on,,0,0,1,,,,,,,,,,0,,75,0
15308,note_on,,4,0,1,,,,,,,,,,0,,85,0
15317,note_on,,9,0,1,,,,,,,,,,0,,90,0
15333,note_on,,16,0,1,,,,,,,,,,0,,57,42
15341,note_on,,8,0,1,,,,,,,,,,0,,75,39
15345,note_on,,0,0,1,,,,,,,,,,0,,63,46
15345,note_on,,4,0,1,,,,,,,,,,0,,57,0
15347,note_on,,2,0,1,,,,,,,,,,0,,85,43
15351,note_on,,4,0,1,,,,,,,,,,0,,66,51
15354,note_on,,3,0,1,,,,,,,,,,0,,73,51
15358,note_on,,4,0,1,,,,,,,,,,0,,66,0
15360,note_on,,2,0,1,,,,,,,,,,0,,90,58
15361,note_on,,1,0,1,,,,,,,,,,0,,63,0
15365,note_on,,4,0,1,,,,,,,,,,0,,73,0
15367,note_on,,2,0,1,,,,,,,,,,0,,75,0
15369,note_on,,2,0,1,,,,,,,,,,0,,85,0
15378,note_on,,9,0,1,,,,,,,,,,0,,90,0
15398,note_on,,20,0,1,,,,,,,,,,0,,56,47
15404,note_on,,6,0,1,,,,,,,,,,0,,75,30
15407,control_change,,3,0,1,,,,,,,,64,0,0,,,
15409,note_on,,0,0,1,,,,,,,,,,0,,63,50
15409,note_on,,2,0,1,,,,,,,,,,0,,56,0
15414,note_on,,5,0,1,,,,,,,,,,0,,66,53
15415,note_on,,1,0,1,,,,,,,,,,0,,84,39
15415,control_change,,0,0,1,,,,,,,,64,127,0,,,
15418,note_on,,3,0,1,,,,,,,,,,0,,72,53
15420,note_on,,2,0,1,,,,,,,,,,0,,75,0
15423,note_on,,3,0,1,,,,,,,,,,0,,90,61
15425,note_on,,0,0,1,,,,,,,,,,0,,66,0
15425,note_on,,2,0,1,,,,,,,,,,0,,63,0
15430,note_on,,5,0,1,,,,,,,,,,0,,84,0
15430,note_on,,0,0,1,,,,,,,,,,0,,72,0
15441,note_on,,11,0,1,,,,,,,,,,0,,90,0
15457,note_on,,16,0,1,,,,,,,,,,0,,56,47
15463,note_on,,6,0,1,,,,,,,,,,0,,75,35
15468,note_on,,5,0,1,,,,,,,,,,0,,63,52
15470,note_on,,2,0,1,,,,,,,,,,0,,56,0
15472,note_on,,2,0,1,,,,,,,,,,0,,84,43
15473,note_on,,1,0,1,,,,,,,,,,0,,66,53
15479,note_on,,6,0,1,,,,,,,,,,0,,72,53
15480,note_on,,1,0,1,,,,,,,,,,0,,90,64
15481,note_on,,1,0,1,,,,,,,,,,0,,75,0
15484,note_on,,3,0,1,,,,,,,,,,0,,63,0
15486,note_on,,2,0,1,,,,,,,,,,0,,66,0
15486,note_on,,0,0,1,,,,,,,,,,0,,84,0
15490,note_on,,4,0,1,,,,,,,,,,0,,72,0
15493,note_on,,3,0,1,,,,,,,,,,0,,90,0
15516,note_on,,23,0,1,,,,,,,,,,0,,56,48
15522,control_change,,6,0,1,,,,,,,,64,0,0,,,
15524,note_on,,2,0,1,,,,,,,,,,0,,74,35
15525,control_change,,1,0,1,,,,,,,,64,127,0,,,
15529,note_on,,4,0,1,,,,,,,,,,0,,62,52
15532,note_on,,3,0,1,,,,,,,,,,0,,56,0
15532,note_on,,0,0,1,,,,,,,,,,0,,84,41
15532,note_on,,0,0,1,,,,,,,,,,0,,65,55
15541,note_on,,9,0,1,,,,,,,,,,0,,89,62
15541,note_on,,0,0,1,,,,,,,,,,0,,72,57
15542,note_on,,1,0,1,,,,,,,,,,0,,62,0
15543,note_on,,1,0,1,,,,,,,,,,0,,74,0
15548,note_on,,5,0,1,,,,,,,,,,0,,65,0
15550,note_on,,2,0,1,,,,,,,,,,0,,84,0
15551,note_on,,1,0,1,,,,,,,,,,0,,72,0
15558,note_on,,7,0,1,,,,,,,,,,0,,89,0
15577,note_on,,19,0,1,,,,,,,,,,0,,56,45
15582,note_on,,5,0,1,,,,,,,,,,0,,74,34
15588,note_on,,6,0,1,,,,,,,,,,0,,62,47
15590,note_on,,2,0,1,,,,,,,,,,0,,56,0
15593,note_on,,3,0,1,,,,,,,,,,0,,84,40
15597,note_on,,4,0,1,,,,,,,,,,0,,65,50
15598,note_on,,1,0,1,,,,,,,,,,0,,62,0
15600,note_on,,2,0,1,,,,,,,,,,0,,72,52
15601,note_on,,1,0,1,,,,,,,,,,0,,89,63
15602,note_on,,1,0,1,,,,,,,,,,0,,74,0
15610,note_on,,8,0,1,,,,,,,,,,0,,65,0
15611,note_on,,1,0,1,,,,,,,,,,0,,72,0
15611,note_on,,0,0,1,,,,,,,,,,0,,84,0
15614,note_on,,3,0,1,,,,,,,,,,0,,89,0
15640,note_on,,26,0,1,,,,,,,,,,0,,55,46
15643,note_on,,3,0,1,,,,,,,,,,0,,74,36
15645,control_change,,2,0,1,,,,,,,,64,0,0,,,
15651,note_on,,6,0,1,,,,,,,,,,0,,62,48
15652,note_on,,1,0,1,,,,,,,,,,0,,55,0
15652,control_change,,0,0,1,,,,,,,,64,127,0,,,
15653,note_on,,1,0,1,,,,,,,,,,0,,83,42
15654,note_on,,1,0,1,,,,,,,,,,0,,65,52
15657,note_on,,3,0,1,,,,,,,,,,0,,74,0
15661,note_on,,4,0,1,,,,,,,,,,0,,89,61
15661,note_on,,0,0,1,,,,,,,,,,0,,71,52
15669,note_on,,8,0,1,,,,,,,,,,0,,65,0
15670,note_on,,1,0,1,,,,,,,,,,0,,62,0
15670,note_on,,0,0,1,,,,,,,,,,0,,83,0
15671,note_on,,1,0,1,,,,,,,,,,0,,71,0
15678,note_on,,7,0,1,,,,,,,,,,0,,89,0
15698,note_on,,20,0,1,,,,,,,,,,0,,55,42
15706,note_on,,8,0,1,,,,,,,,,,0,,74,39
15708,note_on,,2,0,1,,,,,,,,,,0,,62,48
15710,note_on,,2,0,1,,,,,,,,,,0,,55,0
15717,note_on,,7,0,1,,,,,,,,,,0,,83,46
15717,note_on,,0,0,1,,,,,,,,,,0,,65,48
15719,note_on,,2,0,1,,,,,,,,,,0,,74,0
15719,note_on,,0,0,1,,,,,,,,,,0,,71,52
15723,note_on,,4,0,1,,,,,,,,,,0,,89,58
15725,note_on,,2,0,1,,,,,,,,,,0,,62,0
15727,note_on,,2,0,1,,,,,,,,,,0,,65,0
15731,note_on,,4,0,1,,,,,,,,,,0,,71,0
15731,note_on,,0,0,1,,,,,,,,,,0,,83,0
15736,note_on,,5,0,1,,,,,,,,,,0,,89,0
15763,note_on,,27,0,1,,,,,,,,,,0,,55,52
15765,control_change,,2,0,1,,,,,,,,64,0,0,,,
15768,note_on,,3,0,1,,,,,,,,,,0,,73,42
15770,control_change,,2,0,1,,,,,,,,64,127,0,,,
15772,note_on,,2,0,1,,,,,,,,,,0,,61,56
15776,note_on,,4,0,1,,,,,,,,,,0,,55,0
15776,note_on,,0,0,1,,,,,,,,,,0,,64,56
15777,note_on,,1,0,1,,,,,,,,,,0,,83,45
15785,note_on,,8,0,1,,,,,,,,,,0,,71,56
15787,note_on,,2,0,1,,,,,,,,,,0,,88,66
15789,note_on,,2,0,1,,,,,,,,,,0,,73,0
15794,note_on,,5,0,1,,,,,,,,,,0,,64,0
15796,note_on,,2,0,1,,,,,,,,,,0,,61,0
15796,note_on,,0,0,1,,,,,,,,,,0,,71,0
15797,note_on,,1,0,1,,,,,,,,,,0,,83,0
15803,note_on,,6,0,1,,,,,,,,,,0,,88,0
15821,note_on,,18,0,1,,,,,,,,,,0,,55,48
15826,note_on,,5,0,1,,,,,,,,,,0,,73,42
15829,note_on,,3,0,1,,,,,,,,,,0,,61,51
15832,note_on,,3,0,1,,,,,,,,,,0,,55,0
15834,note_on,,2,0,1,,,,,,,,,,0,,64,53
15837,note_on,,3,0,1,,,,,,,,,,0,,83,46
15841,note_on,,4,0,1,,,,,,,,,,0,,71,55
15845,note_on,,4,0,1,,,,,,,,,,0,,88,68
15847,note_on,,0,0,1,,,,,,,,,,0,,61,0
15847,note_on,,2,0,1,,,,,,,,,,0,,64,0
15851,note_on,,4,0,1,,,,,,,,,,0,,71,0
15852,note_on,,1,0,1,,,,,,,,,,0,,73,0
15853,note_on,,1,0,1,,,,,,,,,,0,,83,0
15860,note_on,,7,0,1,,,,,,,,,,0,,88,0
15883,note_on,,23,0,1,,,,,,,,,,0,,54,56
15885,control_change,,2,0,1,,,,,,,,64,0,0,,,
15888,note_on,,3,0,1,,,,,,,,,,0,,73,41
15890,control_change,,2,0,1,,,,,,,,64,127,0,,,
15891,note_on,,1,0,1,,,,,,,,,,0,,61,56
15894,note_on,,3,0,1,,,,,,,,,,0,,54,0
15895,note_on,,1,0,1,,,,,,,,,,0,,64,61
15896,note_on,,1,0,1,,,,,,,,,,0,,82,45
15905,note_on,,9,0,1,,,,,,,,,,0,,70,66
15906,note_on,,1,0,1,,,,,,,,,,0,,88,67
15907,note_on,,1,0,1,,,,,,,,,,0,,73,0
15913,note_on,,0,0,1,,,,,,,,,,0,,64,0
15913,note_on,,6,0,1,,,,,,,,,,0,,82,0
15914,note_on,,1,0,1,,,,,,,,,,0,,61,0
15915,note_on,,1,0,1,,,,,,,,,,0,,70,0
15924,note_on,,9,0,1,,,,,,,,,,0,,88,0
15942,note_on,,18,0,1,,,,,,,,,,0,,54,57
15947,note_on,,5,0,1,,,,,,,,,,0,,73,36
15950,note_on,,3,0,1,,,,,,,,,,0,,61,59
15953,note_on,,3,0,1,,,,,,,,,,0,,54,0
15954,note_on,,1,0,1,,,,,,,,,,0,,82,43
15955,note_on,,1,0,1,,,,,,,,,,0,,64,59
15962,note_on,,7,0,1,,,,,,,,,,0,,70,63
15964,note_on,,2,0,1,,,,,,,,,,0,,88,69
15966,note_on,,2,0,1,,,,,,,,,,0,,73,0
15970,note_on,,4,0,1,,,,,,,,,,0,,64,0
15971,note_on,,1,0,1,,,,,,,,,,0,,82,0
15972,note_on,,1,0,1,,,,,,,,,,0,,61,0
15973,note_on,,1,0,1,,,,,,,,,,0,,70,0
15976,note_on,,3,0,1,,,,,,,,,,0,,88,0
16000,note_on,,24,0,1,,,,,,,,,,0,,54,52
16002,control_change,,2,0,1,,,,,,,,64,0,0,,,
16006,note_on,,4,0,1,,,,,,,,,,0,,72,39
16007,control_change,,1,0,1,,,,,,,,64,127,0,,,
16010,note_on,,3,0,1,,,,,,,,,,0,,60,57
16013,note_on,,3,0,1,,,,,,,,,,0,,82,42
16014,note_on,,1,0,1,,,,,,,,,,0,,54,0
16016,note_on,,2,0,1,,,,,,,,,,0,,63,57
16017,note_on,,1,0,1,,,,,,,,,,0,,72,0
16022,note_on,,5,0,1,,,,,,,,,,0,,70,59
16025,note_on,,3,0,1,,,,,,,,,,0,,87,67
16027,note_on,,2,0,1,,,,,,,,,,0,,82,0
16028,note_on,,1,0,1,,,,,,,,,,0,,63,0
16031,note_on,,3,0,1,,,,,,,,,,0,,70,0
16033,note_on,,2,0,1,,,,,,,,,,0,,60,0
16038,note_on,,5,0,1,,,,,,,,,,0,,87,0
16057,note_on,,19,0,1,,,,,,,,,,0,,54,59
16065,note_on,,8,0,1,,,,,,,,,,0,,60,63
16068,note_on,,3,0,1,,,,,,,,,,0,,72,40
16070,note_on,,2,0,1,,,,,,,,,,0,,54,0
16071,note_on,,1,0,1,,,,,,,,,,0,,63,64
16075,note_on,,4,0,1,,,,,,,,,,0,,82,42
16078,note_on,,3,0,1,,,,,,,,,,0,,72,0
16079,note_on,,1,0,1,,,,,,,,,,0,,70,72
16085,note_on,,6,0,1,,,,,,,,,,0,,87,72
16087,note_on,,2,0,1,,,,,,,,,,0,,60,0
16088,note_on,,0,0,1,,,,,,,,,,0,,63,0
16088,note_on,,1,0,1,,,,,,,,,,0,,82,0
16090,note_on,,2,0,1,,,,,,,,,,0,,70,0
16098,note_on,,8,0,1,,,,,,,,,,0,,87,0
16120,note_on,,22,0,1,,,,,,,,,,0,,53,58
16120,control_change,,0,0,1,,,,,,,,64,0,0,,,
16127,control_change,,7,0,1,,,,,,,,64,127,0,,,
16128,note_on,,1,0,1,,,,,,,,,,0,,72,42
16130,note_on,,2,0,1,,,,,,,,,,0,,60,62
16133,note_on,,0,0,1,,,,,,,,,,0,,63,66
16133,note_on,,3,0,1,,,,,,,,,,0,,81,46
16134,note_on,,1,0,1,,,,,,,,,,0,,53,0
16138,note_on,,4,0,1,,,,,,,,,,0,,72,0
16142,note_on,,4,0,1,,,,,,,,,,0,,69,66
16144,note_on,,2,0,1,,,,,,,,,,0,,87,72
16146,note_on,,2,0,1,,,,,,,,,,0,,81,0
16153,note_on,,7,0,1,,,,,,,,,,0,,63,0
16153,note_on,,0,0,1,,,,,,,,,,0,,60,0
16154,note_on,,1,0,1,,,,,,,,,,0,,69,0
16160,note_on,,6,0,1,,,,,,,,,,0,,87,0
16177,note_on,,17,0,1,,,,,,,,,,0,,53,67
16186,note_on,,9,0,1,,,,,,,,,,0,,72,41
16188,note_on,,2,0,1,,,,,,,,,,0,,60,72
16191,note_on,,3,0,1,,,,,,,,,,0,,53,0
16192,note_on,,1,0,1,,,,,,,,,,0,,63,72
16193,note_on,,1,0,1,,,,,,,,,,0,,81,47
16198,note_on,,5,0,1,,,,,,,,,,0,,72,0
16199,note_on,,1,0,1,,,,,,,,,,0,,69,75
16202,note_on,,3,0,1,,,,,,,,,,0,,87,73
16203,note_on,,1,0,1,,,,,,,,,,0,,81,0
16203,set_tempo,,957,1,0,,,,,,,774194,,,,,,
16209,note_on,,6,0,1,,,,,,,,,,0,,63,0
16210,note_on,,1,0,1,,,,,,,,,,0,,69,0
16211,note_on,,1,0,1,,,,,,,,,,0,,87,0
16216,note_on,,5,0,1,,,,,,,,,,0,,60,0
16241,note_on,,25,0,1,,,,,,,,,,0,,69,45
16244,note_on,,3,0,1,,,,,,,,,,0,,53,66
16249,note_on,,5,0,1,,,,,,,,,,0,,75,53
16251,note_on,,2,0,1,,,,,,,,,,0,,69,0
16253,note_on,,2,0,1,,,,,,,,,,0,,60,67
16261,note_on,,8,0,1,,,,,,,,,,0,,84,77
16263,note_on,,2,0,1,,,,,,,,,,0,,65,72
16264,note_on,,1,0,1,,,,,,,,,,0,,75,0
16264,note_on,,0,0,1,,,,,,,,,,0,,53,0
16268,note_on,,4,0,1,,,,,,,,,,0,,60,0
16272,note_on,,4,0,1,,,,,,,,,,0,,84,0
16273,set_tempo,,70,1,0,,,,,,,805369,,,,,,
16275,note_on,,3,0,1,,,,,,,,,,0,,65,0
16300,control_change,,25,0,1,,,,,,,,64,0,0,,,
16301,note_on,,1,0,1,,,,,,,,,,0,,68,43
16301,note_on,,0,0,1,,,,,,,,,,0,,46,62
16309,note_on,,8,0,1,,,,,,,,,,0,,74,52
16310,control_change,,1,0,1,,,,,,,,64,127,0,,,
16311,note_on,,1,0,1,,,,,,,,,,0,,68,0
16312,note_on,,0,0,1,,,,,,,,,,0,,53,66
16312,note_on,,1,0,1,,,,,,,,,,0,,46,0
16315,note_on,,3,0,1,,,,,,,,,,0,,56,69
16322,note_on,,7,0,1,,,,,,,,,,0,,84,83
16325,note_on,,3,0,1,,,,,,,,,,0,,62,73
16326,note_on,,1,0,1,,,,,,,,,,0,,74,0
16332,note_on,,6,0,1,,,,,,,,,,0,,84,0
16336,note_on,,4,0,1,,,,,,,,,,0,,62,0
16336,note_on,,0,0,1,,,,,,,,,,0,,56,0
16339,note_on,,3,0,1,,,,,,,,,,0,,53,0
16360,set_tempo,,87,1,0,,,,,,,845070,,,,,,
16360,note_on,,0,0,1,,,,,,,,,,0,,46,69
16360,note_on,,21,0,1,,,,,,,,,,0,,68,50
16369,note_on,,9,0,1,,,,,,,,,,0,,53,72
16371,note_on,,2,0,1,,,,,,,,,,0,,46,0
16372,note_on,,1,0,1,,,,,,,,,,0,,74,58
16374,note_on,,2,0,1,,,,,,,,,,0,,56,72
16379,note_on,,5,0,1,,,,,,,,,,0,,68,0
16381,note_on,,2,0,1,,,,,,,,,,0,,82,85
16383,note_on,,2,0,1,,,,,,,,,,0,,62,75
16385,note_on,,2,0,1,,,,,,,,,,0,,74,0
16393,note_on,,8,0,1,,,,,,,,,,0,,82,0
16394,note_on,,0,0,1,,,,,,,,,,0,,62,0
16394,note_on,,1,0,1,,,,,,,,,,0,,56,0
16396,note_on,,2,0,1,,,,,,,,,,0,,53,0
16415,note_on,,19,0,1,,,,,,,,,,0,,46,74
16423,set_tempo,,63,1,0,,,,,,,923077,,,,,,
16423,note_on,,8,0,1,,,,,,,,,,0,,68,55
16425,note_on,,2,0,1,,,,,,,,,,0,,53,77
16426,note_on,,1,0,1,,,,,,,,,,0,,46,0
16429,note_on,,3,0,1,,,,,,,,,,0,,56,79
16431,note_on,,2,0,1,,,,,,,,,,0,,74,57
16439,note_on,,8,0,1,,,,,,,,,,0,,80,87
16439,note_on,,0,0,1,,,,,,,,,,0,,62,82
16443,note_on,,4,0,1,,,,,,,,,,0,,68,0
16445,note_on,,2,0,1,,,,,,,,,,0,,74,0
16449,note_on,,4,0,1,,,,,,,,,,0,,56,0
16450,note_on,,1,0,1,,,,,,,,,,0,,62,0
16452,note_on,,2,0,1,,,,,,,,,,0,,53,0
16457,note_on,,5,0,1,,,,,,,,,,0,,80,0
16476,note_on,,19,0,1,,,,,,,,,,0,,46,75
16479,note_on,,3,0,1,,,,,,,,,,0,,68,52
16487,note_on,,8,0,1,,,,,,,,,,0,,53,78
16488,note_on,,1,0,1,,,,,,,,,,0,,46,0
16489,note_on,,1,0,1,,,,,,,,,,0,,74,58
16491,note_on,,2,0,1,,,,,,,,,,0,,56,78
16499,note_on,,8,0,1,,,,,,,,,,0,,68,0
16500,set_tempo,,77,1,0,,,,,,,975610,,,,,,
16501,note_on,,2,0,1,,,,,,,,,,0,,62,82
16502,note_on,,1,0,1,,,,,,,,,,0,,77,85
16506,note_on,,4,0,1,,,,,,,,,,0,,74,0
16510,note_on,,4,0,1,,,,,,,,,,0,,56,0
16512,note_on,,2,0,1,,,,,,,,,,0,,62,0
16512,note_on,,0,0,1,,,,,,,,,,0,,77,0
16514,note_on,,2,0,1,,,,,,,,,,0,,53,0
16535,control_change,,21,0,1,,,,,,,,64,0,0,,,
16540,control_change,,5,0,1,,,,,,,,64,127,0,,,
16541,note_on,,1,0,1,,,,,,,,,,0,,39,80
16551,note_on,,10,0,1,,,,,,,,,,0,,39,0
16552,note_on,,1,0,1,,,,,,,,,,0,,67,66
16560,set_tempo,,60,1,0,,,,,,,1132075,,,,,,
16561,note_on,,9,0,1,,,,,,,,,,0,,75,94
16569,note_on,,8,0,1,,,,,,,,,,0,,67,0
16575,note_on,,6,0,1,,,,,,,,,,0,,75,0
16598,note_on,,23,0,1,,,,,,,,,,0,,51,56
16606,note_on,,8,0,1,,,,,,,,,,0,,58,68
16609,note_on,,3,0,1,,,,,,,,,,0,,73,46
16610,note_on,,1,0,1,,,,,,,,,,0,,51,0
16613,set_tempo,,53,1,0,,,,,,,845070,,,,,,
16617,note_on,,7,0,1,,,,,,,,,,0,,82,64
16619,note_on,,2,0,1,,,,,,,,,,0,,67,51
16625,note_on,,6,0,1,,,,,,,,,,0,,87,47
16633,note_on,,8,0,1,,,,,,,,,,0,,82,0
16634,note_on,,1,0,1,,,,,,,,,,0,,67,0
16636,note_on,,2,0,1,,,,,,,,,,0,,73,0
16644,note_on,,8,0,1,,,,,,,,,,0,,87,0
16656,note_on,,12,0,1,,,,,,,,,,0,,51,56
16667,note_on,,11,0,1,,,,,,,,,,0,,51,0
16668,note_on,,1,0,1,,,,,,,,,,0,,61,59
16669,note_on,,1,0,1,,,,,,,,,,0,,73,45
16676,note_on,,0,0,1,,,,,,,,,,0,,67,54
16676,note_on,,7,0,1,,,,,,,,,,0,,81,63
16680,set_tempo,,67,1,0,,,,,,,810811,,,,,,
16685,note_on,,9,0,1,,,,,,,,,,0,,87,43
16690,note_on,,5,0,1,,,,,,,,,,0,,67,0
16691,note_on,,1,0,1,,,,,,,,,,0,,61,0
16692,note_on,,1,0,1,,,,,,,,,,0,,73,0
16693,note_on,,1,0,1,,,,,,,,,,0,,81,0
16707,note_on,,14,0,1,,,,,,,,,,0,,87,0
16713,note_on,,6,0,1,,,,,,,,,,0,,51,50
16727,note_on,,14,0,1,,,,,,,,,,0,,51,0
16727,note_on,,0,0,1,,,,,,,,,,0,,61,56
16729,note_on,,2,0,1,,,,,,,,,,0,,73,42
16734,note_on,,5,0,1,,,,,,,,,,0,,67,59
16739,note_on,,5,0,1,,,,,,,,,,0,,82,65
16745,note_on,,6,0,1,,,,,,,,,,0,,61,0
16746,set_tempo,,66,1,0,,,,,,,800000,,,,,,
16747,note_on,,2,0,1,,,,,,,,,,0,,67,0
16749,note_on,,2,0,1,,,,,,,,,,0,,87,45
16757,note_on,,8,0,1,,,,,,,,,,0,,73,0
16759,note_on,,2,0,1,,,,,,,,,,0,,82,0
16766,note_on,,7,0,1,,,,,,,,,,0,,87,0
16770,note_on,,4,0,1,,,,,,,,,,0,,51,51
16784,note_on,,14,0,1,,,,,,,,,,0,,73,42
16785,note_on,,1,0,1,,,,,,,,,,0,,51,0
16787,note_on,,2,0,1,,,,,,,,,,0,,61,57
16793,note_on,,6,0,1,,,,,,,,,,0,,67,51
16795,note_on,,2,0,1,,,,,,,,,,0,,84,65
16798,note_on,,3,0,1,,,,,,,,,,0,,61,0
16804,note_on,,6,0,1,,,,,,,,,,0,,87,45
16808,note_on,,4,0,1,,,,,,,,,,0,,67,0
16813,note_on,,5,0,1,,,,,,,,,,0,,84,0
16813,note_on,,0,0,1,,,,,,,,,,0,,73,0
16824,note_on,,11,0,1,,,,,,,,,,0,,87,0
16831,note_on,,7,0,1,,,,,,,,,,0,,51,52
16840,set_tempo,,94,1,0,,,,,,,816327,,,,,,
16843,note_on,,12,0,1,,,,,,,,,,0,,73,40
16846,note_on,,3,0,1,,,,,,,,,,0,,51,0
16848,note_on,,2,0,1,,,,,,,,,,0,,61,61
16854,note_on,,6,0,1,,,,,,,,,,0,,67,53
16855,note_on,,1,0,1,,,,,,,,,,0,,79,65
16863,note_on,,8,0,1,,,,,,,,,,0,,61,0
16863,note_on,,0,0,1,,,,,,,,,,0,,87,39
16864,note_on,,1,0,1,,,,,,,,,,0,,67,0
16868,note_on,,4,0,1,,,,,,,,,,0,,58,0
16869,note_on,,1,0,1,,,,,,,,,,0,,79,0
16872,note_on,,3,0,1,,,,,,,,,,0,,73,0
16880,note_on,,8,0,1,,,,,,,,,,0,,87,0
16893,note_on,,0,0,1,,,,,,,,,,0,,51,53
16893,control_change,,13,0,1,,,,,,,,64,0,0,,,
16905,note_on,,12,0,1,,,,,,,,,,0,,72,41
16905,control_change,,0,0,1,,,,,,,,64,127,0,,,
16905,note_on,,0,0,1,,,,,,,,,,0,,60,53
16906,note_on,,1,0,1,,,,,,,,,,0,,51,0
16908,note_on,,2,0,1,,,,,,,,,,0,,80,63
16912,note_on,,4,0,1,,,,,,,,,,0,,72,0
16919,note_on,,7,0,1,,,,,,,,,,0,,87,42
16919,note_on,,0,0,1,,,,,,,,,,0,,68,57
16920,set_tempo,,80,1,0,,,,,,,851064,,,,,,
16921,note_on,,2,0,1,,,,,,,,,,0,,80,0
16930,note_on,,9,0,1,,,,,,,,,,0,,87,0
16931,note_on,,0,0,1,,,,,,,,,,0,,68,0
16931,note_on,,1,0,1,,,,,,,,,,0,,60,0
16953,note_on,,22,0,1,,,,,,,,,,0,,51,45
16955,control_change,,2,0,1,,,,,,,,67,126,0,,,
16957,control_change,,2,0,1,,,,,,,,64,0,0,,,
16957,control_change,,0,0,1,,,,,,,,67,127,0,,,
16960,note_on,,3,0,1,,,,,,,,,,0,,74,32
16965,control_change,,5,0,1,,,,,,,,64,127,0,,,
16966,note_on,,1,0,1,,,,,,,,,,0,,51,0
16968,note_on,,2,0,1,,,,,,,,,,0,,80,39
16968,note_on,,0,0,1,,,,,,,,,,0,,59,48
16972,note_on,,4,0,1,,,,,,,,,,0,,74,0
16976,note_on,,4,0,1,,,,,,,,,,0,,68,50
16982,note_on,,6,0,1,,,,,,,,,,0,,89,57
16985,note_on,,3,0,1,,,,,,,,,,0,,80,0
16987,note_on,,2,0,1,,,,,,,,,,0,,68,0
16988,note_on,,1,0,1,,,,,,,,,,0,,59,0
16995,note_on,,7,0,1,,,,,,,,,,0,,89,0
17014,note_on,,19,0,1,,,,,,,,,,0,,51,45
17024,note_on,,10,0,1,,,,,,,,,,0,,74,34
17025,note_on,,1,0,1,,,,,,,,,,0,,51,0
17026,note_on,,1,0,1,,,,,,,,,,0,,59,47
17031,note_on,,5,0,1,,,,,,,,,,0,,80,39
17036,note_on,,5,0,1,,,,,,,,,,0,,68,48
17038,note_on,,2,0,1,,,,,,,,,,0,,74,0
17040,set_tempo,,120,1,0,,,,,,,875912,,,,,,
17043,note_on,,5,0,1,,,,,,,,,,0,,88,57
17046,note_on,,3,0,1,,,,,,,,,,0,,68,0
17047,note_on,,1,0,1,,,,,,,,,,0,,59,0
17049,note_on,,2,0,1,,,,,,,,,,0,,80,0
17060,note_on,,11,0,1,,,,,,,,,,0,,88,0
17073,note_on,,13,0,1,,,,,,,,,,0,,51,43
17083,note_on,,10,0,1,,,,,,,,,,0,,74,36
17084,note_on,,1,0,1,,,,,,,,,,0,,51,0
17084,note_on,,0,0,1,,,,,,,,,,0,,59,47
17090,note_on,,6,0,1,,,,,,,,,,0,,80,40
17095,note_on,,5,0,1,,,,,,,,,,0,,74,0
17098,note_on,,3,0,1,,,,,,,,,,0,,68,48
17102,note_on,,4,0,1,,,,,,,,,,0,,89,57
17104,note_on,,2,0,1,,,,,,,,,,0,,80,0
17109,note_on,,0,0,1,,,,,,,,,,0,,68,0
17109,note_on,,5,0,1,,,,,,,,,,0,,59,0
17115,note_on,,6,0,1,,,,,,,,,,0,,89,0
17120,set_tempo,,80,1,0,,,,,,,895522,,,,,,
17133,control_change,,18,0,1,,,,,,,,64,0,0,,,
17138,note_on,,5,0,1,,,,,,,,,,0,,74,36
17141,note_on,,3,0,1,,,,,,,,,,0,,51,43
17144,control_change,,3,0,1,,,,,,,,64,127,0,,,
17149,note_on,,0,0,1,,,,,,,,,,0,,58,43
17149,note_on,,5,0,1,,,,,,,,,,0,,80,43
17151,note_on,,2,0,1,,,,,,,,,,0,,74,0
17152,note_on,,1,0,1,,,,,,,,,,0,,51,0
17159,note_on,,7,0,1,,,,,,,,,,0,,80,0
17161,note_on,,2,0,1,,,,,,,,,,0,,68,48
17164,note_on,,3,0,1,,,,,,,,,,0,,91,56
17166,note_on,,2,0,1,,,,,,,,,,0,,58,0
17172,note_on,,6,0,1,,,,,,,,,,0,,68,0
17175,note_on,,3,0,1,,,,,,,,,,0,,91,0
17197,note_on,,22,0,1,,,,,,,,,,0,,51,46
17203,note_on,,6,0,1,,,,,,,,,,0,,74,30
17203,set_tempo,,83,1,0,,,,,,,930233,,,,,,
17208,note_on,,5,0,1,,,,,,,,,,0,,58,48
17210,note_on,,2,0,1,,,,,,,,,,0,,51,0
17214,note_on,,4,0,1,,,,,,,,,,0,,80,37
17217,note_on,,3,0,1,,,,,,,,,,0,,74,0
17220,note_on,,3,0,1,,,,,,,,,,0,,68,47
17225,note_on,,5,0,1,,,,,,,,,,0,,89,55
17227,note_on,,2,0,1,,,,,,,,,,0,,58,0
17228,note_on,,1,0,1,,,,,,,,,,0,,80,0
17231,note_on,,3,0,1,,,,,,,,,,0,,68,0
17240,set_tempo,,37,1,0,,,,,,,960000,,,,,,
17242,note_on,,11,0,1,,,,,,,,,,0,,89,0
17255,control_change,,13,0,1,,,,,,,,64,0,0,,,
17263,note_on,,8,0,1,,,,,,,,,,0,,79,36
17266,control_change,,3,0,1,,,,,,,,64,127,0,,,
17268,note_on,,2,0,1,,,,,,,,,,0,,87,39
17274,note_on,,6,0,1,,,,,,,,,,0,,79,0
17282,note_on,,8,0,1,,,,,,,,,,0,,87,0
17283,note_on,,1,0,1,,,,,,,,,,0,,94,51
17283,note_on,,0,0,1,,,,,,,,,,0,,39,63
17286,set_tempo,,46,1,0,,,,,,,916031,,,,,,
17289,note_on,,6,0,1,,,,,,,,,,0,,94,0
17297,note_on,,8,0,1,,,,,,,,,,0,,39,0
17315,control_change,,18,0,1,,,,,,,,67,0,0,,,
17324,note_on,,9,0,1,,,,,,,,,,0,,51,57
17325,note_on,,1,0,1,,,,,,,,,,0,,73,47
17333,note_on,,0,0,1,,,,,,,,,,0,,58,62
17333,note_on,,8,0,1,,,,,,,,,,0,,82,64
17333,set_tempo,,47,1,0,,,,,,,875912,,,,,,
17337,note_on,,4,0,1,,,,,,,,,,0,,51,0
17341,note_on,,4,0,1,,,,,,,,,,0,,87,50
17346,note_on,,5,0,1,,,,,,,,,,0,,67,47
17351,note_on,,0,0,1,,,,,,,,,,0,,82,0
17351,note_on,,5,0,1,,,,,,,,,,0,,73,0
17356,note_on,,5,0,1,,,,,,,,,,0,,87,0
17360,note_on,,4,0,1,,,,,,,,,,0,,67,0
17383,note_on,,23,0,1,,,,,,,,,,0,,51,53
17385,note_on,,2,0,1,,,,,,,,,,0,,73,48
17390,set_tempo,,57,1,0,,,,,,,845070,,,,,,
17391,note_on,,6,0,1,,,,,,,,,,0,,81,66
17396,note_on,,5,0,1,,,,,,,,,,0,,51,0
17398,note_on,,2,0,1,,,,,,,,,,0,,61,57
17401,note_on,,3,0,1,,,,,,,,,,0,,87,50
17405,note_on,,4,0,1,,,,,,,,,,0,,67,48
17407,note_on,,2,0,1,,,,,,,,,,0,,73,0
17409,note_on,,2,0,1,,,,,,,,,,0,,61,0
17410,note_on,,1,0,1,,,,,,,,,,0,,81,0
17417,note_on,,7,0,1,,,,,,,,,,0,,67,0
17422,note_on,,5,0,1,,,,,,,,,,0,,87,0
17437,note_on,,15,0,1,,,,,,,,,,0,,51,52
17446,note_on,,9,0,1,,,,,,,,,,0,,73,47
17448,note_on,,2,0,1,,,,,,,,,,0,,51,0
17452,note_on,,4,0,1,,,,,,,,,,0,,82,67
17453,note_on,,1,0,1,,,,,,,,,,0,,61,56
17458,note_on,,5,0,1,,,,,,,,,,0,,67,46
17460,note_on,,2,0,1,,,,,,,,,,0,,87,43
17463,note_on,,3,0,1,,,,,,,,,,0,,61,0
17466,note_on,,3,0,1,,,,,,,,,,0,,73,0
17469,note_on,,3,0,1,,,,,,,,,,0,,82,0
17471,note_on,,2,0,1,,,,,,,,,,0,,67,0
17481,note_on,,10,0,1,,,,,,,,,,0,,87,0
17495,note_on,,14,0,1,,,,,,,,,,0,,51,56
17506,note_on,,11,0,1,,,,,,,,,,0,,51,0
17506,note_on,,0,0,1,,,,,,,,,,0,,73,46
17511,note_on,,5,0,1,,,,,,,,,,0,,61,61
17513,note_on,,2,0,1,,,,,,,,,,0,,84,64
17516,note_on,,3,0,1,,,,,,,,,,0,,67,49
17522,note_on,,6,0,1,,,,,,,,,,0,,87,47
17524,note_on,,2,0,1,,,,,,,,,,0,,61,0
17527,note_on,,3,0,1,,,,,,,,,,0,,67,0
17530,note_on,,3,0,1,,,,,,,,,,0,,73,0
17531,note_on,,1,0,1,,,,,,,,,,0,,84,0
17542,note_on,,11,0,1,,,,,,,,,,0,,87,0
17551,note_on,,9,0,1,,,,,,,,,,0,,51,57
17565,note_on,,14,0,1,,,,,,,,,,0,,51,0
17567,note_on,,2,0,1,,,,,,,,,,0,,73,41
17567,note_on,,0,0,1,,,,,,,,,,0,,61,59
17571,note_on,,4,0,1,,,,,,,,,,0,,67,47
17574,note_on,,3,0,1,,,,,,,,,,0,,79,66
17578,note_on,,4,0,1,,,,,,,,,,0,,61,0
17581,note_on,,3,0,1,,,,,,,,,,0,,87,46
17583,note_on,,2,0,1,,,,,,,,,,0,,67,0
17583,note_on,,0,0,1,,,,,,,,,,0,,58,0
17586,note_on,,3,0,1,,,,,,,,,,0,,79,0
17595,note_on,,9,0,1,,,,,,,,,,0,,73,0
17600,note_on,,5,0,1,,,,,,,,,,0,,87,0
17613,note_on,,13,0,1,,,,,,,,,,0,,51,55
17620,control_change,,7,0,1,,,,,,,,64,0,0,,,
17622,note_on,,2,0,1,,,,,,,,,,0,,72,43
17627,note_on,,0,0,1,,,,,,,,,,0,,60,58
17627,note_on,,5,0,1,,,,,,,,,,0,,51,0
17629,control_change,,2,0,1,,,,,,,,64,127,0,,,
17630,note_on,,1,0,1,,,,,,,,,,0,,80,65
17632,note_on,,2,0,1,,,,,,,,,,0,,72,0
17637,note_on,,5,0,1,,,,,,,,,,0,,68,59
17641,note_on,,4,0,1,,,,,,,,,,0,,87,46
17643,note_on,,2,0,1,,,,,,,,,,0,,80,0
17647,note_on,,4,0,1,,,,,,,,,,0,,68,0
17648,note_on,,1,0,1,,,,,,,,,,0,,60,0
17650,note_on,,2,0,1,,,,,,,,,,0,,87,0
17670,control_change,,20,0,1,,,,,,,,67,127,0,,,
17671,control_change,,1,0,1,,,,,,,,64,0,0,,,
17676,note_on,,5,0,1,,,,,,,,,,0,,51,50
17681,control_change,,5,0,1,,,,,,,,64,127,0,,,
17687,note_on,,0,0,1,,,,,,,,,,0,,74,34
17687,note_on,,6,0,1,,,,,,,,,,0,,51,0
17689,note_on,,2,0,1,,,,,,,,,,0,,59,50
17693,note_on,,4,0,1,,,,,,,,,,0,,80,39
17696,note_on,,3,0,1,,,,,,,,,,0,,74,0
17697,note_on,,1,0,1,,,,,,,,,,0,,68,51
17703,note_on,,6,0,1,,,,,,,,,,0,,89,57
17707,note_on,,4,0,1,,,,,,,,,,0,,80,0
17708,note_on,,1,0,1,,,,,,,,,,0,,68,0
17709,note_on,,1,0,1,,,,,,,,,,0,,59,0
17715,note_on,,6,0,1,,,,,,,,,,0,,89,0
17733,set_tempo,,343,1,0,,,,,,,875912,,,,,,
17734,note_on,,19,0,1,,,,,,,,,,0,,51,45
17745,note_on,,0,0,1,,,,,,,,,,0,,59,46
17745,note_on,,11,0,1,,,,,,,,,,0,,51,0
17749,note_on,,4,0,1,,,,,,,,,,0,,74,34
17754,note_on,,5,0,1,,,,,,,,,,0,,80,40
17754,note_on,,0,0,1,,,,,,,,,,0,,68,47
17762,note_on,,8,0,1,,,,,,,,,,0,,74,0
17762,note_on,,0,0,1,,,,,,,,,,0,,88,58
17765,note_on,,3,0,1,,,,,,,,,,0,,59,0
17767,note_on,,2,0,1,,,,,,,,,,0,,68,0
17768,note_on,,1,0,1,,,,,,,,,,0,,80,0
17777,note_on,,9,0,1,,,,,,,,,,0,,88,0
17793,note_on,,16,0,1,,,,,,,,,,0,,51,46
17803,note_on,,10,0,1,,,,,,,,,,0,,51,0
17804,note_on,,1,0,1,,,,,,,,,,0,,74,35
17805,note_on,,1,0,1,,,,,,,,,,0,,59,47
17813,note_on,,8,0,1,,,,,,,,,,0,,80,42
17813,note_on,,0,0,1,,,,,,,,,,0,,68,48
17816,set_tempo,,83,1,0,,,,,,,895522,,,,,,
17817,note_on,,4,0,1,,,,,,,,,,0,,74,0
17823,note_on,,0,0,1,,,,,,,,,,0,,68,0
17823,note_on,,6,0,1,,,,,,,,,,0,,59,0
17825,note_on,,2,0,1,,,,,,,,,,0,,89,57
17828,note_on,,3,0,1,,,,,,,,,,0,,80,0
17837,note_on,,9,0,1,,,,,,,,,,0,,89,0
17855,note_on,,18,0,1,,,,,,,,,,0,,51,43
17861,note_on,,6,0,1,,,,,,,,,,0,,74,34
17863,control_change,,2,0,1,,,,,,,,64,0,0,,,
17866,note_on,,3,0,1,,,,,,,,,,0,,58,47
17869,note_on,,3,0,1,,,,,,,,,,0,,51,0
17871,note_on,,2,0,1,,,,,,,,,,0,,74,0
17871,note_on,,0,0,1,,,,,,,,,,0,,80,41
17872,control_change,,1,0,1,,,,,,,,64,127,0,,,
17878,note_on,,6,0,1,,,,,,,,,,0,,80,0
17881,note_on,,3,0,1,,,,,,,,,,0,,68,48
17883,set_tempo,,67,1,0,,,,,,,916031,,,,,,
17884,note_on,,3,0,1,,,,,,,,,,0,,91,59
17888,note_on,,0,0,1,,,,,,,,,,0,,58,0
17888,note_on,,4,0,1,,,,,,,,,,0,,68,0
17895,note_on,,7,0,1,,,,,,,,,,0,,91,0
17921,note_on,,26,0,1,,,,,,,,,,0,,51,42
17928,note_on,,7,0,1,,,,,,,,,,0,,74,37
17931,note_on,,3,0,1,,,,,,,,,,0,,58,45
17933,note_on,,2,0,1,,,,,,,,,,0,,51,0
17933,note_on,,0,0,1,,,,,,,,,,0,,80,40
17936,note_on,,3,0,1,,,,,,,,,,0,,74,0
17942,note_on,,6,0,1,,,,,,,,,,0,,89,57
17943,note_on,,1,0,1,,,,,,,,,,0,,80,0
17943,note_on,,0,0,1,,,,,,,,,,0,,68,46
17946,set_tempo,,63,1,0,,,,,,,952381,,,,,,
17951,note_on,,8,0,1,,,,,,,,,,0,,89,0
17953,note_on,,2,0,1,,,,,,,,,,0,,68,0
17954,note_on,,1,0,1,,,,,,,,,,0,,58,0
17980,set_tempo,,34,1,0,,,,,,,1034483,,,,,,
17980,note_on,,26,0,1,,,,,,,,,,0,,51,45
17981,control_change,,1,0,1,,,,,,,,64,0,0,,,
17986,note_on,,5,0,1,,,,,,,,,,0,,79,45
17989,note_on,,0,0,1,,,,,,,,,,0,,58,45
17989,control_change,,3,0,1,,,,,,,,64,127,0,,,
17992,note_on,,3,0,1,,,,,,,,,,0,,51,0
17993,note_on,,1,0,1,,,,,,,,,,0,,87,47
17994,note_on,,1,0,1,,,,,,,,,,0,,79,0
18001,note_on,,7,0,1,,,,,,,,,,0,,67,46
18004,note_on,,3,0,1,,,,,,,,,,0,,87,0
18006,note_on,,2,0,1,,,,,,,,,,0,,58,0
18007,note_on,,1,0,1,,,,,,,,,,0,,94,58
18011,note_on,,0,0,1,,,,,,,,,,0,,67,0
18011,note_on,,4,0,1,,,,,,,,,,0,,94,0
18016,set_tempo,,36,1,0,,,,,,,816327,,,,,,
18025,control_change,,14,0,1,,,,,,,,67,0,0,,,
18043,note_on,,0,0,1,,,,,,,,,,0,,56,69
18043,control_change,,18,0,1,,,,,,,,64,0,0,,,
18045,note_on,,2,0,1,,,,,,,,,,0,,80,56
18049,control_change,,4,0,1,,,,,,,,64,127,0,,,
18053,note_on,,4,0,1,,,,,,,,,,0,,87,82
18055,note_on,,2,0,1,,,,,,,,,,0,,63,74
18057,note_on,,2,0,1,,,,,,,,,,0,,80,0
18057,note_on,,0,0,1,,,,,,,,,,0,,56,0
18062,note_on,,5,0,1,,,,,,,,,,0,,95,91
18064,note_on,,2,0,1,,,,,,,,,,0,,71,74
18068,note_on,,4,0,1,,,,,,,,,,0,,87,0
18073,note_on,,5,0,1,,,,,,,,,,0,,63,0
18076,note_on,,3,0,1,,,,,,,,,,0,,95,0
18077,note_on,,1,0,1,,,,,,,,,,0,,71,0
18099,control_change,,22,0,1,,,,,,,,64,0,0,,,
18104,note_on,,0,0,1,,,,,,,,,,0,,55,68
18104,note_on,,5,0,1,,,,,,,,,,0,,79,68
18106,control_change,,2,0,1,,,,,,,,64,127,0,,,
18110,note_on,,4,0,1,,,,,,,,,,0,,86,69
18114,note_on,,4,0,1,,,,,,,,,,0,,79,0
18114,note_on,,0,0,1,,,,,,,,,,0,,62,71
18115,note_on,,1,0,1,,,,,,,,,,0,,55,0
18117,note_on,,2,0,1,,,,,,,,,,0,,65,74
18122,note_on,,5,0,1,,,,,,,,,,0,,95,95
18124,note_on,,2,0,1,,,,,,,,,,0,,86,0
18124,note_on,,0,0,1,,,,,,,,,,0,,71,84
18130,note_on,,6,0,1,,,,,,,,,,0,,62,0
18131,note_on,,1,0,1,,,,,,,,,,0,,65,0
18134,note_on,,3,0,1,,,,,,,,,,0,,95,0
18138,note_on,,4,0,1,,,,,,,,,,0,,71,0
18154,control_change,,16,0,1,,,,,,,,64,0,0,,,
18159,note_on,,5,0,1,,,,,,,,,,0,,79,57
18162,control_change,,3,0,1,,,,,,,,64,127,0,,,
18165,note_on,,3,0,1,,,,,,,,,,0,,60,73
18166,note_on,,1,0,1,,,,,,,,,,0,,88,64
18169,note_on,,3,0,1,,,,,,,,,,0,,79,0
18171,note_on,,2,0,1,,,,,,,,,,0,,64,80
18177,note_on,,6,0,1,,,,,,,,,,0,,88,0
18179,note_on,,2,0,1,,,,,,,,,,0,,70,83
18181,note_on,,2,0,1,,,,,,,,,,0,,96,90
18183,set_tempo,,167,1,0,,,,,,,750000,,,,,,
18189,note_on,,0,0,1,,,,,,,,,,0,,60,0
18189,note_on,,8,0,1,,,,,,,,,,0,,64,0
18191,note_on,,2,0,1,,,,,,,,,,0,,70,0
18193,note_on,,2,0,1,,,,,,,,,,0,,96,0
18216,control_change,,23,0,1,,,,,,,,64,0,0,,,
18219,note_on,,3,0,1,,,,,,,,,,0,,53,69
18222,control_change,,3,0,1,,,,,,,,64,127,0,,,
18224,note_on,,2,0,1,,,,,,,,,,0,,81,58
18229,note_on,,5,0,1,,,,,,,,,,0,,60,73
18230,note_on,,1,0,1,,,,,,,,,,0,,87,77
18233,note_on,,0,0,1,,,,,,,,,,0,,53,0
18233,note_on,,3,0,1,,,,,,,,,,0,,81,0
18235,note_on,,2,0,1,,,,,,,,,,0,,63,73
18239,note_on,,4,0,1,,,,,,,,,,0,,87,0
18241,note_on,,2,0,1,,,,,,,,,,0,,96,99
18243,note_on,,2,0,1,,,,,,,,,,0,,69,83
18246,note_on,,3,0,1,,,,,,,,,,0,,60,0
18247,note_on,,1,0,1,,,,,,,,,,0,,63,0
18250,note_on,,3,0,1,,,,,,,,,,0,,69,0
18255,note_on,,5,0,1,,,,,,,,,,0,,96,0
18272,control_change,,17,0,1,,,,,,,,64,0,0,,,
18278,note_on,,6,0,1,,,,,,,,,,0,,58,75
18283,set_tempo,,100,1,0,,,,,,,745342,,,,,,
18283,control_change,,5,0,1,,,,,,,,64,127,0,,,
18286,set_tempo,,3,1,0,,,,,,,750000,,,,,,
18287,note_on,,4,0,1,,,,,,,,,,0,,82,51
18288,note_on,,1,0,1,,,,,,,,,,0,,65,75
18292,note_on,,0,0,1,,,,,,,,,,0,,68,75
18292,note_on,,4,0,1,,,,,,,,,,0,,58,0
18293,note_on,,1,0,1,,,,,,,,,,0,,86,84
18300,note_on,,7,0,1,,,,,,,,,,0,,74,80
18301,note_on,,0,0,1,,,,,,,,,,0,,94,94
18301,note_on,,1,0,1,,,,,,,,,,0,,82,0
18304,note_on,,0,0,1,,,,,,,,,,0,,65,0
18304,note_on,,3,0,1,,,,,,,,,,0,,86,0
18308,note_on,,4,0,1,,,,,,,,,,0,,68,0
18312,note_on,,4,0,1,,,,,,,,,,0,,94,0
18315,note_on,,3,0,1,,,,,,,,,,0,,74,0
18334,control_change,,19,0,1,,,,,,,,64,0,0,,,
18341,control_change,,7,0,1,,,,,,,,64,127,0,,,
18343,note_on,,2,0,1,,,,,,,,,,0,,63,69
18345,note_on,,2,0,1,,,,,,,,,,0,,79,66
18348,note_on,,3,0,1,,,,,,,,,,0,,67,77
18351,note_on,,3,0,1,,,,,,,,,,0,,87,75
18356,note_on,,5,0,1,,,,,,,,,,0,,75,80
18358,note_on,,2,0,1,,,,,,,,,,0,,91,93
18359,note_on,,1,0,1,,,,,,,,,,0,,79,0
18362,note_on,,3,0,1,,,,,,,,,,0,,87,0
18363,note_on,,1,0,1,,,,,,,,,,0,,67,0
18363,set_tempo,,77,1,0,,,,,,,800000,,,,,,
18364,note_on,,1,0,1,,,,,,,,,,0,,63,0
18367,note_on,,3,0,1,,,,,,,,,,0,,75,0
18371,note_on,,4,0,1,,,,,,,,,,0,,91,0
18395,note_on,,24,0,1,,,,,,,,,,0,,56,48
18396,control_change,,1,0,1,,,,,,,,64,0,0,,,
18405,control_change,,9,0,1,,,,,,,,64,127,0,,,
18406,note_on,,1,0,1,,,,,,,,,,0,,63,51
18407,note_on,,1,0,1,,,,,,,,,,0,,80,43
18408,note_on,,1,0,1,,,,,,,,,,0,,56,0
18413,note_on,,5,0,1,,,,,,,,,,0,,87,50
18415,note_on,,2,0,1,,,,,,,,,,0,,71,53
18419,note_on,,4,0,1,,,,,,,,,,0,,80,0
18422,note_on,,3,0,1,,,,,,,,,,0,,95,57
18426,note_on,,4,0,1,,,,,,,,,,0,,87,0
18427,note_on,,1,0,1,,,,,,,,,,0,,71,0
18428,note_on,,1,0,1,,,,,,,,,,0,,63,0
18434,note_on,,6,0,1,,,,,,,,,,0,,95,0
18458,note_on,,0,0,1,,,,,,,,,,0,,55,47
18458,control_change,,24,0,1,,,,,,,,64,0,0,,,
18462,note_on,,4,0,1,,,,,,,,,,0,,79,41
18464,control_change,,2,0,1,,,,,,,,64,127,0,,,
18466,note_on,,2,0,1,,,,,,,,,,0,,62,50
18468,note_on,,2,0,1,,,,,,,,,,0,,55,0
18469,note_on,,1,0,1,,,,,,,,,,0,,86,46
18473,set_tempo,,110,1,0,,,,,,,745342,,,,,,
18473,note_on,,4,0,1,,,,,,,,,,0,,79,0
18474,note_on,,1,0,1,,,,,,,,,,0,,65,52
18479,note_on,,5,0,1,,,,,,,,,,0,,71,55
18480,note_on,,1,0,1,,,,,,,,,,0,,95,61
18481,note_on,,1,0,1,,,,,,,,,,0,,86,0
18484,note_on,,3,0,1,,,,,,,,,,0,,62,0
18486,note_on,,2,0,1,,,,,,,,,,0,,65,0
18492,note_on,,6,0,1,,,,,,,,,,0,,71,0
18495,note_on,,3,0,1,,,,,,,,,,0,,95,0
18512,control_change,,17,0,1,,,,,,,,64,0,0,,,
18521,control_change,,9,0,1,,,,,,,,64,127,0,,,
18522,note_on,,1,0,1,,,,,,,,,,0,,60,48
18525,note_on,,3,0,1,,,,,,,,,,0,,79,41
18529,note_on,,4,0,1,,,,,,,,,,0,,64,51
18530,note_on,,1,0,1,,,,,,,,,,0,,88,47
18532,note_on,,2,0,1,,,,,,,,,,0,,79,0
18534,note_on,,2,0,1,,,,,,,,,,0,,70,53
18539,note_on,,5,0,1,,,,,,,,,,0,,88,0
18542,note_on,,3,0,1,,,,,,,,,,0,,64,0
18543,note_on,,1,0,1,,,,,,,,,,0,,70,0
18544,note_on,,1,0,1,,,,,,,,,,0,,60,0
18545,note_on,,1,0,1,,,,,,,,,,0,,96,59
18546,note_on,,1,0,1,,,,,,,,,,0,,96,0
18546,set_tempo,,73,1,0,,,,,,,769231,,,,,,
18575,control_change,,29,0,1,,,,,,,,64,0,0,,,
18578,note_on,,3,0,1,,,,,,,,,,0,,53,47
18585,note_on,,7,0,1,,,,,,,,,,0,,60,48
18586,control_change,,0,0,1,,,,,,,,64,127,0,,,
18586,note_on,,1,0,1,,,,,,,,,,0,,81,45
18588,note_on,,2,0,1,,,,,,,,,,0,,53,0
18590,note_on,,2,0,1,,,,,,,,,,0,,63,51
18592,note_on,,2,0,1,,,,,,,,,,0,,87,48
18594,note_on,,2,0,1,,,,,,,,,,0,,81,0
18597,note_on,,3,0,1,,,,,,,,,,0,,69,51
18601,note_on,,4,0,1,,,,,,,,,,0,,60,0
18601,note_on,,0,0,1,,,,,,,,,,0,,87,0
18603,note_on,,2,0,1,,,,,,,,,,0,,63,0
18604,note_on,,1,0,1,,,,,,,,,,0,,96,57
18606,note_on,,2,0,1,,,,,,,,,,0,,69,0
18610,note_on,,4,0,1,,,,,,,,,,0,,96,0
18634,control_change,,24,0,1,,,,,,,,64,0,0,,,
18636,set_tempo,,90,1,0,,,,,,,800000,,,,,,
18639,note_on,,5,0,1,,,,,,,,,,0,,58,40
18643,control_change,,4,0,1,,,,,,,,64,127,0,,,
18649,note_on,,6,0,1,,,,,,,,,,0,,82,40
18649,note_on,,0,0,1,,,,,,,,,,0,,65,45
18653,note_on,,4,0,1,,,,,,,,,,0,,58,0
18655,note_on,,2,0,1,,,,,,,,,,0,,68,45
18659,note_on,,4,0,1,,,,,,,,,,0,,86,46
18662,note_on,,3,0,1,,,,,,,,,,0,,94,57
18663,note_on,,1,0,1,,,,,,,,,,0,,74,45
18667,note_on,,4,0,1,,,,,,,,,,0,,65,0
18670,note_on,,0,0,1,,,,,,,,,,0,,82,0
18670,note_on,,3,0,1,,,,,,,,,,0,,86,0
18674,note_on,,4,0,1,,,,,,,,,,0,,68,0
18675,note_on,,1,0,1,,,,,,,,,,0,,94,0
18678,note_on,,3,0,1,,,,,,,,,,0,,74,0
18692,control_change,,14,0,1,,,,,,,,64,0,0,,,
18703,control_change,,11,0,1,,,,,,,,64,127,0,,,
18707,note_on,,4,0,1,,,,,,,,,,0,,63,45
18718,note_on,,11,0,1,,,,,,,,,,0,,70,48
18720,set_tempo,,84,1,0,,,,,,,875912,,,,,,
18723,note_on,,0,0,1,,,,,,,,,,0,,91,57
18723,note_on,,5,0,1,,,,,,,,,,0,,87,51
18724,note_on,,0,0,1,,,,,,,,,,0,,75,51
18724,note_on,,1,0,1,,,,,,,,,,0,,79,51
18730,note_on,,6,0,1,,,,,,,,,,0,,63,0
18732,note_on,,2,0,1,,,,,,,,,,0,,70,0
18736,note_on,,4,0,1,,,,,,,,,,0,,75,0
18773,note_on,,37,0,1,,,,,,,,,,0,,58,52
18778,note_on,,5,0,1,,,,,,,,,,0,,67,61
18785,note_on,,7,0,1,,,,,,,,,,0,,75,50
18789,note_on,,4,0,1,,,,,,,,,,0,,58,0
18792,note_on,,3,0,1,,,,,,,,,,0,,67,0
18798,note_on,,6,0,1,,,,,,,,,,0,,75,0
18829,note_on,,31,0,1,,,,,,,,,,0,,57,52
18832,control_change,,3,0,1,,,,,,,,64,0,0,,,
18838,note_on,,6,0,1,,,,,,,,,,0,,66,63
18841,control_change,,3,0,1,,,,,,,,64,127,0,,,
18844,note_on,,3,0,1,,,,,,,,,,0,,57,0
18847,note_on,,3,0,1,,,,,,,,,,0,,75,55
18851,note_on,,4,0,1,,,,,,,,,,0,,66,0
18857,note_on,,6,0,1,,,,,,,,,,0,,75,0
18885,control_change,,28,0,1,,,,,,,,64,0,0,,,
18893,note_on,,8,0,1,,,,,,,,,,0,,58,55
18895,control_change,,2,0,1,,,,,,,,64,127,0,,,
18900,note_on,,5,0,1,,,,,,,,,,0,,67,64
18907,note_on,,7,0,1,,,,,,,,,,0,,58,0
18907,note_on,,0,0,1,,,,,,,,,,0,,75,57
18912,note_on,,5,0,1,,,,,,,,,,0,,91,0
18913,note_on,,1,0,1,,,,,,,,,,0,,67,0
18913,note_on,,0,0,1,,,,,,,,,,0,,87,0
18916,note_on,,3,0,1,,,,,,,,,,0,,79,0
18917,note_on,,1,0,1,,,,,,,,,,0,,75,0
18941,control_change,,24,0,1,,,,,,,,64,0,0,,,
18948,note_on,,7,0,1,,,,,,,,,,0,,59,52
18949,control_change,,1,0,1,,,,,,,,64,127,0,,,
18958,note_on,,9,0,1,,,,,,,,,,0,,68,64
18963,set_tempo,,243,1,0,,,,,,,930233,,,,,,
18963,note_on,,5,0,1,,,,,,,,,,0,,75,51
18964,note_on,,1,0,1,,,,,,,,,,0,,59,0
18964,note_on,,0,0,1,,,,,,,,,,0,,91,64
18965,note_on,,1,0,1,,,,,,,,,,0,,80,41
18967,note_on,,2,0,1,,,,,,,,,,0,,68,0
18975,note_on,,8,0,1,,,,,,,,,,0,,75,0
18999,control_change,,24,0,1,,,,,,,,64,0,0,,,
19009,note_on,,10,0,1,,,,,,,,,,0,,58,53
19010,control_change,,1,0,1,,,,,,,,64,127,0,,,
19018,note_on,,8,0,1,,,,,,,,,,0,,68,62
19020,set_tempo,,57,1,0,,,,,,,888889,,,,,,
19024,note_on,,6,0,1,,,,,,,,,,0,,58,0
19024,note_on,,0,0,1,,,,,,,,,,0,,74,51
19029,note_on,,5,0,1,,,,,,,,,,0,,68,0
19034,note_on,,5,0,1,,,,,,,,,,0,,74,0
19052,note_on,,18,0,1,,,,,,,,,,0,,89,57
19059,control_change,,7,0,1,,,,,,,,64,0,0,,,
19060,note_on,,1,0,1,,,,,,,,,,0,,80,0
19065,note_on,,5,0,1,,,,,,,,,,0,,91,0
19070,note_on,,0,0,1,,,,,,,,,,0,,63,55
19070,control_change,,5,0,1,,,,,,,,64,127,0,,,
19078,note_on,,8,0,1,,,,,,,,,,0,,67,63
19080,note_on,,2,0,1,,,,,,,,,,0,,87,58
19083,set_tempo,,63,1,0,,,,,,,863309,,,,,,
19083,note_on,,3,0,1,,,,,,,,,,0,,79,43
19085,note_on,,2,0,1,,,,,,,,,,0,,75,56
19087,note_on,,2,0,1,,,,,,,,,,0,,89,0
19094,note_on,,7,0,1,,,,,,,,,,0,,63,0
19095,note_on,,1,0,1,,,,,,,,,,0,,67,0
19098,note_on,,3,0,1,,,,,,,,,,0,,75,0
19133,note_on,,35,0,1,,,,,,,,,,0,,46,55
19138,note_on,,5,0,1,,,,,,,,,,0,,55,61
19143,set_tempo,,60,1,0,,,,,,,882353,,,,,,
19147,note_on,,9,0,1,,,,,,,,,,0,,63,56
19149,note_on,,2,0,1,,,,,,,,,,0,,46,0
19153,note_on,,4,0,1,,,,,,,,,,0,,55,0
19157,note_on,,4,0,1,,,,,,,,,,0,,63,0
19172,note_on,,15,0,1,,,,,,,,,,0,,79,0
19179,note_on,,7,0,1,,,,,,,,,,0,,87,0
19189,control_change,,10,0,1,,,,,,,,64,0,0,,,
19192,note_on,,3,0,1,,,,,,,,,,0,,45,47
19197,note_on,,5,0,1,,,,,,,,,,0,,54,59
19199,control_change,,2,0,1,,,,,,,,64,127,0,,,
19200,set_tempo,,57,1,0,,,,,,,902256,,,,,,
19205,note_on,,6,0,1,,,,,,,,,,0,,63,50
19207,note_on,,2,0,1,,,,,,,,,,0,,45,0
19210,note_on,,3,0,1,,,,,,,,,,0,,54,0
19215,note_on,,5,0,1,,,,,,,,,,0,,63,0
19247,control_change,,32,0,1,,,,,,,,64,0,0,,,
19252,note_on,,5,0,1,,,,,,,,,,0,,46,47
19255,control_change,,3,0,1,,,,,,,,64,127,0,,,
19259,note_on,,4,0,1,,,,,,,,,,0,,55,53
19263,set_tempo,,63,1,0,,,,,,,930233,,,,,,
19265,note_on,,6,0,1,,,,,,,,,,0,,63,48
19266,note_on,,1,0,1,,,,,,,,,,0,,46,0
19273,note_on,,7,0,1,,,,,,,,,,0,,55,0
19277,note_on,,4,0,1,,,,,,,,,,0,,63,0
19302,control_change,,25,0,1,,,,,,,,64,0,0,,,
19307,note_on,,5,0,1,,,,,,,,,,0,,47,47
19313,control_change,,6,0,1,,,,,,,,64,127,0,,,
19317,note_on,,4,0,1,,,,,,,,,,0,,56,55
19322,note_on,,5,0,1,,,,,,,,,,0,,47,0
19322,note_on,,0,0,1,,,,,,,,,,0,,63,48
19323,set_tempo,,60,1,0,,,,,,,967742,,,,,,
19324,note_on,,2,0,1,,,,,,,,,,0,,79,61
19325,note_on,,1,0,1,,,,,,,,,,0,,68,40
19326,note_on,,1,0,1,,,,,,,,,,0,,56,0
19334,note_on,,8,0,1,,,,,,,,,,0,,63,0
19359,control_change,,25,0,1,,,,,,,,64,0,0,,,
19371,note_on,,0,0,1,,,,,,,,,,0,,46,46
19371,control_change,,12,0,1,,,,,,,,64,127,0,,,
19377,note_on,,6,0,1,,,,,,,,,,0,,56,56
19384,note_on,,7,0,1,,,,,,,,,,0,,62,48
19385,note_on,,1,0,1,,,,,,,,,,0,,46,0
19386,set_tempo,,63,1,0,,,,,,,1081081,,,,,,
19389,note_on,,4,0,1,,,,,,,,,,0,,56,0
19394,note_on,,5,0,1,,,,,,,,,,0,,62,0
19399,note_on,,5,0,1,,,,,,,,,,0,,77,59
19405,note_on,,6,0,1,,,,,,,,,,0,,79,0
19417,control_change,,12,0,1,,,,,,,,64,0,0,,,
19418,note_on,,1,0,1,,,,,,,,,,0,,75,61
19421,note_on,,3,0,1,,,,,,,,,,0,,77,0
19425,note_on,,4,0,1,,,,,,,,,,0,,68,0
19428,note_on,,3,0,1,,,,,,,,,,0,,75,0
19434,control_change,,6,0,1,,,,,,,,64,127,0,,,
19442,note_on,,0,0,1,,,,,,,,,,0,,75,82
19442,note_on,,8,0,1,,,,,,,,,,0,,67,50
19443,set_tempo,,57,1,0,,,,,,,1034483,,,,,,
19443,note_on,,1,0,1,,,,,,,,,,0,,39,82
19455,note_on,,12,0,1,,,,,,,,,,0,,39,0
19473,set_tempo,,30,1,0,,,,,,,805369,,,,,,
19478,note_on,,23,0,1,,,,,,,,,,0,,67,0
19481,note_on,,3,0,1,,,,,,,,,,0,,43,58
19484,note_on,,3,0,1,,,,,,,,,,0,,75,0
19491,note_on,,7,0,1,,,,,,,,,,0,,51,62
19493,note_on,,2,0,1,,,,,,,,,,0,,43,0
19501,note_on,,0,0,1,,,,,,,,,,0,,58,64
19501,note_on,,8,0,1,,,,,,,,,,0,,63,59
19505,note_on,,4,0,1,,,,,,,,,,0,,70,64
19508,note_on,,0,0,1,,,,,,,,,,0,,51,0
19508,note_on,,3,0,1,,,,,,,,,,0,,63,0
19515,note_on,,0,0,1,,,,,,,,,,0,,79,74
19515,note_on,,7,0,1,,,,,,,,,,0,,58,0
19515,note_on,,0,0,1,,,,,,,,,,0,,70,0
19527,note_on,,12,0,1,,,,,,,,,,0,,79,0
19541,note_on,,14,0,1,,,,,,,,,,0,,46,62
19550,note_on,,9,0,1,,,,,,,,,,0,,55,66
19551,note_on,,1,0,1,,,,,,,,,,0,,67,56
19552,note_on,,1,0,1,,,,,,,,,,0,,46,0
19561,note_on,,0,0,1,,,,,,,,,,0,,75,63
19561,note_on,,9,0,1,,,,,,,,,,0,,67,0
19563,note_on,,2,0,1,,,,,,,,,,0,,63,69
19564,note_on,,1,0,1,,,,,,,,,,0,,55,0
19570,note_on,,6,0,1,,,,,,,,,,0,,75,0
19571,note_on,,1,0,1,,,,,,,,,,0,,82,83
19576,note_on,,5,0,1,,,,,,,,,,0,,63,0
19584,note_on,,8,0,1,,,,,,,,,,0,,82,0
19601,note_on,,17,0,1,,,,,,,,,,0,,51,69
19610,note_on,,9,0,1,,,,,,,,,,0,,70,59
19611,note_on,,1,0,1,,,,,,,,,,0,,58,73
19614,note_on,,3,0,1,,,,,,,,,,0,,51,0
19616,note_on,,2,0,1,,,,,,,,,,0,,79,63
19617,note_on,,1,0,1,,,,,,,,,,0,,70,0
19621,note_on,,4,0,1,,,,,,,,,,0,,67,75
19624,note_on,,3,0,1,,,,,,,,,,0,,58,0
19626,note_on,,2,0,1,,,,,,,,,,0,,79,0
19629,note_on,,3,0,1,,,,,,,,,,0,,87,82
19636,note_on,,7,0,1,,,,,,,,,,0,,67,0
19642,note_on,,6,0,1,,,,,,,,,,0,,87,0
19660,note_on,,18,0,1,,,,,,,,,,0,,55,68
19669,note_on,,9,0,1,,,,,,,,,,0,,63,68
19670,note_on,,1,0,1,,,,,,,,,,0,,75,62
19671,note_on,,1,0,1,,,,,,,,,,0,,55,0
19675,note_on,,4,0,1,,,,,,,,,,0,,82,66
19678,note_on,,3,0,1,,,,,,,,,,0,,75,0
19682,note_on,,4,0,1,,,,,,,,,,0,,70,74
19683,note_on,,1,0,1,,,,,,,,,,0,,82,0
19683,note_on,,0,0,1,,,,,,,,,,0,,63,0
19685,note_on,,2,0,1,,,,,,,,,,0,,91,84
19695,note_on,,10,0,1,,,,,,,,,,0,,70,0
19698,note_on,,3,0,1,,,,,,,,,,0,,91,0
19721,note_on,,23,0,1,,,,,,,,,,0,,58,80
19726,note_on,,5,0,1,,,,,,,,,,0,,79,67
19731,note_on,,5,0,1,,,,,,,,,,0,,58,0
19731,note_on,,0,0,1,,,,,,,,,,0,,67,80
19733,note_on,,2,0,1,,,,,,,,,,0,,79,0
19734,note_on,,1,0,1,,,,,,,,,,0,,87,72
19738,note_on,,4,0,1,,,,,,,,,,0,,67,0
19740,note_on,,2,0,1,,,,,,,,,,0,,75,83
19744,note_on,,4,0,1,,,,,,,,,,0,,87,0
19745,note_on,,1,0,1,,,,,,,,,,0,,94,89
19753,note_on,,8,0,1,,,,,,,,,,0,,75,0
19758,note_on,,5,0,1,,,,,,,,,,0,,94,0
19783,note_on,,25,0,1,,,,,,,,,,0,,63,80
19789,note_on,,6,0,1,,,,,,,,,,0,,82,74
19792,note_on,,3,0,1,,,,,,,,,,0,,70,85
19793,note_on,,1,0,1,,,,,,,,,,0,,91,78
19795,note_on,,2,0,1,,,,,,,,,,0,,63,0
19796,note_on,,1,0,1,,,,,,,,,,0,,82,0
19801,note_on,,5,0,1,,,,,,,,,,0,,79,87
19806,note_on,,5,0,1,,,,,,,,,,0,,99,96
19862,note_on,,56,0,1,,,,,,,,,,0,,70,0
19866,note_on,,4,0,1,,,,,,,,,,0,,91,0
19869,note_on,,3,0,1,,,,,,,,,,0,,79,0
19873,note_on,,4,0,1,,,,,,,,,,0,,99,0
19913,set_tempo,,440,1,0,,,,,,,875912,,,,,,
19932,control_change,,59,0,1,,,,,,,,64,0,0,,,
19965,note_on,,33,0,1,,,,,,,,,,0,,58,72
19968,control_change,,3,0,1,,,,,,,,64,127,0,,,
19976,note_on,,8,0,1,,,,,,,,,,0,,62,51
19980,note_on,,4,0,1,,,,,,,,,,0,,65,59
19980,note_on,,0,0,1,,,,,,,,,,0,,68,64
19981,note_on,,1,0,1,,,,,,,,,,0,,70,78
19987,note_on,,6,0,1,,,,,,,,,,0,,62,0
19991,note_on,,4,0,1,,,,,,,,,,0,,68,0
19992,note_on,,1,0,1,,,,,,,,,,0,,58,0
19993,note_on,,1,0,1,,,,,,,,,,0,,65,0
19996,note_on,,3,0,1,,,,,,,,,,0,,70,0
19998,set_tempo,,85,1,0,,,,,,,1090909,,,,,,
20044,note_on,,48,0,1,,,,,,,,,,0,,82,91
20045,set_tempo,,47,1,0,,,,,,,1008403,,,,,,
20045,note_on,,1,0,1,,,,,,,,,,0,,46,87
20110,note_on,,65,0,1,,,,,,,,,,0,,82,0
20111,note_on,,1,0,1,,,,,,,,,,0,,46,0
20160,set_tempo,,115,1,0,,,,,,,1237113,,,,,,
20240,set_tempo,,80,1,0,,,,,,,750000,,,,,,
20259,control_change,,148,0,1,,,,,,,,64,0,0,,,
20267,control_change,,8,0,1,,,,,,,,64,127,0,,,
20271,note_on,,0,0,1,,,,,,,,,,0,,51,77
20271,note_on,,4,0,1,,,,,,,,,,0,,67,69
20282,note_on,,11,0,1,,,,,,,,,,0,,67,0
20284,note_on,,2,0,1,,,,,,,,,,0,,51,0
20285,note_on,,1,0,1,,,,,,,,,,0,,58,68
20298,note_on,,0,0,1,,,,,,,,,,0,,75,77
20298,note_on,,13,0,1,,,,,,,,,,0,,67,52
20305,note_on,,7,0,1,,,,,,,,,,0,,58,0
20306,note_on,,1,0,1,,,,,,,,,,0,,75,0
20307,note_on,,1,0,1,,,,,,,,,,0,,67,0
20383,note_on,,76,0,1,,,,,,,,,,0,,87,94
20384,note_on,,1,0,1,,,,,,,,,,0,,39,90
20643,end_of_track,,0,1,0,,,,,,,,,,,,,
20643,set_tempo,,403,1,0,,,,,,,714286,,,,,,
20828,note_on,,444,0,1,,,,,,,,,,0,,87,0
20836,note_on,,8,0,1,,,,,,,,,,0,,39,0
20987,control_change,,151,0,1,,,,,,,,64,0,0,,,
20987,end_of_track,,0,1,1,,,,,,,,,,,,,
