tick,type,time,meta,track,frame_rate,hours,minutes,seconds,frames,sub_frames,port,data,numerator,denominator,clocks_per_click,notated_32nd_notes_per_beat,key,tempo,control,value,channel,program,note,velocity
0,track_name,0,1,0,,,,,,,,,,,,,,,,,,,,
0,midi_port,0,1,5,,,,,,,0,,,,,,,,,,,,,
0,end_of_track,0,1,4,,,,,,,,,,,,,,,,,,,,
0,track_name,0,1,4,,,,,,,,,,,,,,,,,,,,
0,midi_port,0,1,4,,,,,,,0,,,,,,,,,,,,,
0,end_of_track,0,1,3,,,,,,,,,,,,,,,,,,,,
0,track_name,0,1,3,,,,,,,,,,,,,,,,,,,,
0,midi_port,0,1,3,,,,,,,0,,,,,,,,,,,,,
0,end_of_track,0,1,2,,,,,,,,,,,,,,,,,,,,
0,track_name,0,1,2,,,,,,,,,,,,,,,,,,,,
0,midi_port,0,1,2,,,,,,,0,,,,,,,,,,,,,
0,track_name,0,1,5,,,,,,,,,,,,,,,,,,,,
0,track_name,0,1,1,,,,,,,,,,,,,,,,,,,,
0,midi_port,0,1,1,,,,,,,0,,,,,,,,,,,,,
0,end_of_track,0,1,5,,,,,,,,,,,,,,,,,,,,
0,midi_port,0,1,0,,,,,,,0,,,,,,,,,,,,,
0,set_tempo,0,1,0,,,,,,,,,,,,,,441176,,,,,,
0,key_signature,0,1,0,,,,,,,,,,,,,C,,,,,,,
0,time_signature,0,1,0,,,,,,,,,6,8,12,8,,,,,,,,
0,sysex,0,0,0,,,,,,,,"(65, 16, 66, 18, 64, 1, 48, 3, 12)",,,,,,,,,,,,
0,sysex,0,0,0,,,,,,,,"(65, 16, 66, 18, 64, 0, 127, 0, 65)",,,,,,,,,,,,
0,smpte_offset,0,1,0,25,32,0,3,0,0,,,,,,,,,,,,,,
0,midi_port,0,1,0,,,,,,,0,,,,,,,,,,,,,
0,midi_port,0,1,0,,,,,,,0,,,,,,,,,,,,,
60,control_change,60,0,1,,,,,,,,,,,,,,,0,0,0,,,
62,program_change,2,0,1,,,,,,,,,,,,,,,,,0,0,,
63,control_change,1,0,1,,,,,,,,,,,,,,,7,127,0,,,
120,control_change,0,0,1,,,,,,,,,,,,,,,0,0,0,,,
120,control_change,0,0,1,,,,,,,,,,,,,,,93,20,0,,,
120,control_change,57,0,1,,,,,,,,,,,,,,,91,80,0,,,
658,note_on,538,0,1,,,,,,,,,,,,,,,,,0,,67,63
697,note_on,39,0,1,,,,,,,,,,,,,,,,,0,,67,0
720,note_on,0,0,1,,,,,,,,,,,,,,,,,0,,64,48
720,note_on,23,0,1,,,,,,,,,,,,,,,,,0,,67,57
721,note_on,1,0,1,,,,,,,,,,,,,,,,,0,,48,68
721,note_on,0,0,1,,,,,,,,,,,,,,,,,0,,36,56
729,control_change,8,0,1,,,,,,,,,,,,,,,64,127,0,,,
747,note_on,0,0,1,,,,,,,,,,,,,,,,,0,,67,0
747,note_on,18,0,1,,,,,,,,,,,,,,,,,0,,64,0
748,note_on,1,0,1,,,,,,,,,,,,,,,,,0,,48,0
748,note_on,0,0,1,,,,,,,,,,,,,,,,,0,,36,0
750,note_on,2,0,1,,,,,,,,,,,,,,,,,0,,64,51
750,note_on,0,0,1,,,,,,,,,,,,,,,,,0,,72,51
777,note_on,27,0,1,,,,,,,,,,,,,,,,,0,,72,0
777,note_on,0,0,1,,,,,,,,,,,,,,,,,0,,64,0
779,control_change,2,0,1,,,,,,,,,,,,,,,64,0,0,,,
780,note_on,0,0,1,,,,,,,,,,,,,,,,,0,,65,45
780,note_on,1,0,1,,,,,,,,,,,,,,,,,0,,68,56
807,note_on,27,0,1,,,,,,,,,,,,,,,,,0,,65,0
807,note_on,0,0,1,,,,,,,,,,,,,,,,,0,,68,0
810,note_on,3,0,1,,,,,,,,,,,,,,,,,0,,65,49
810,note_on,0,0,1,,,,,,,,,,,,,,,,,0,,74,62
837,note_on,0,0,1,,,,,,,,,,,,,,,,,0,,65,0
837,note_on,27,0,1,,,,,,,,,,,,,,,,,0,,74,0
840,note_on,0,0,1,,,,,,,,,,,,,,,,,0,,62,21
840,note_on,3,0,1,,,,,,,,,,,,,,,,,0,,65,50
841,note_on,1,0,1,,,,,,,,,,,,,,,,,0,,56,73
867,note_on,0,0,1,,,,,,,,,,,,,,,,,0,,65,0
867,note_on,26,0,1,,,,,,,,,,,,,,,,,0,,62,0
870,note_on,3,0,1,,,,,,,,,,,,,,,,,0,,71,45
870,note_on,0,0,1,,,,,,,,,,,,,,,,,0,,62,42
897,note_on,27,0,1,,,,,,,,,,,,,,,,,0,,62,0
897,note_on,0,0,1,,,,,,,,,,,,,,,,,0,,71,0
899,note_on,2,0,1,,,,,,,,,,,,,,,,,0,,56,0
900,note_on,1,0,1,,,,,,,,,,,,,,,,,0,,62,44
900,note_on,0,0,1,,,,,,,,,,,,,,,,,0,,59,39
901,note_on,1,0,1,,,,,,,,,,,,,,,,,0,,55,72
927,note_on,26,0,1,,,,,,,,,,,,,,,,,0,,59,0
927,note_on,0,0,1,,,,,,,,,,,,,,,,,0,,62,0
930,note_on,3,0,1,,,,,,,,,,,,,,,,,0,,59,41
930,note_on,0,0,1,,,,,,,,,,,,,,,,,0,,67,51
957,note_on,27,0,1,,,,,,,,,,,,,,,,,0,,67,0
957,note_on,0,0,1,,,,,,,,,,,,,,,,,0,,59,0
959,note_on,2,0,1,,,,,,,,,,,,,,,,,0,,54,68
960,note_on,0,0,1,,,,,,,,,,,,,,,,,0,,60,54
960,note_on,1,0,1,,,,,,,,,,,,,,,,,0,,63,53
965,note_on,5,0,1,,,,,,,,,,,,,,,,,0,,55,0
987,note_on,22,0,1,,,,,,,,,,,,,,,,,0,,60,0
987,note_on,0,0,1,,,,,,,,,,,,,,,,,0,,63,0
990,note_on,3,0,1,,,,,,,,,,,,,,,,,0,,60,46
990,note_on,0,0,1,,,,,,,,,,,,,,,,,0,,69,48
1017,note_on,27,0,1,,,,,,,,,,,,,,,,,0,,69,0
1017,note_on,0,0,1,,,,,,,,,,,,,,,,,0,,60,0
1019,note_on,2,0,1,,,,,,,,,,,,,,,,,0,,54,0
1019,note_on,0,0,1,,,,,,,,,,,,,,,,,0,,53,73
1020,note_on,0,0,1,,,,,,,,,,,,,,,,,0,,62,46
1020,note_on,1,0,1,,,,,,,,,,,,,,,,,0,,68,50
1039,note_on,19,0,1,,,,,,,,,,,,,,,,,0,,53,0
1047,note_on,8,0,1,,,,,,,,,,,,,,,,,0,,62,0
1047,note_on,0,0,1,,,,,,,,,,,,,,,,,0,,68,0
1050,note_on,3,0,1,,,,,,,,,,,,,,,,,0,,71,56
1050,note_on,0,0,1,,,,,,,,,,,,,,,,,0,,62,48
1074,control_change,24,0,1,,,,,,,,,,,,,,,64,127,0,,,
1077,note_on,3,0,1,,,,,,,,,,,,,,,,,0,,62,0
1077,note_on,0,0,1,,,,,,,,,,,,,,,,,0,,71,0
1079,note_on,2,0,1,,,,,,,,,,,,,,,,,0,,36,68
1080,note_on,1,0,1,,,,,,,,,,,,,,,,,0,,67,45
1080,note_on,0,0,1,,,,,,,,,,,,,,,,,0,,64,36
1096,note_on,16,0,1,,,,,,,,,,,,,,,,,0,,36,0
1107,note_on,11,0,1,,,,,,,,,,,,,,,,,0,,64,0
1107,note_on,0,0,1,,,,,,,,,,,,,,,,,0,,67,0
1110,note_on,0,0,1,,,,,,,,,,,,,,,,,0,,72,43
1110,note_on,3,0,1,,,,,,,,,,,,,,,,,0,,64,39
1137,note_on,27,0,1,,,,,,,,,,,,,,,,,0,,72,0
1137,note_on,0,0,1,,,,,,,,,,,,,,,,,0,,64,0
1139,note_on,2,0,1,,,,,,,,,,,,,,,,,0,,48,79
1140,note_on,1,0,1,,,,,,,,,,,,,,,,,0,,68,53
1140,note_on,0,0,1,,,,,,,,,,,,,,,,,0,,65,51
1140,control_change,0,0,1,,,,,,,,,,,,,,,64,0,0,,,
1167,note_on,27,0,1,,,,,,,,,,,,,,,,,0,,65,0
1167,note_on,0,0,1,,,,,,,,,,,,,,,,,0,,68,0
1170,note_on,3,0,1,,,,,,,,,,,,,,,,,0,,65,47
1170,note_on,0,0,1,,,,,,,,,,,,,,,,,0,,74,62
1197,note_on,0,0,1,,,,,,,,,,,,,,,,,0,,65,0
1197,note_on,27,0,1,,,,,,,,,,,,,,,,,0,,74,0
1200,note_on,3,0,1,,,,,,,,,,,,,,,,,0,,65,46
1201,note_on,1,0,1,,,,,,,,,,,,,,,,,0,,56,68
1227,note_on,26,0,1,,,,,,,,,,,,,,,,,0,,65,0
1230,note_on,3,0,1,,,,,,,,,,,,,,,,,0,,71,55
1230,note_on,0,0,1,,,,,,,,,,,,,,,,,0,,62,42
1257,note_on,0,0,1,,,,,,,,,,,,,,,,,0,,71,0
1257,note_on,27,0,1,,,,,,,,,,,,,,,,,0,,62,0
1260,note_on,3,0,1,,,,,,,,,,,,,,,,,0,,62,50
1260,note_on,0,0,1,,,,,,,,,,,,,,,,,0,,59,34
1260,note_on,0,0,1,,,,,,,,,,,,,,,,,0,,55,64
1265,note_on,5,0,1,,,,,,,,,,,,,,,,,0,,56,0
1287,note_on,22,0,1,,,,,,,,,,,,,,,,,0,,59,0
1287,note_on,0,0,1,,,,,,,,,,,,,,,,,0,,62,0
1290,note_on,3,0,1,,,,,,,,,,,,,,,,,0,,67,48
1290,note_on,0,0,1,,,,,,,,,,,,,,,,,0,,59,33
1317,note_on,27,0,1,,,,,,,,,,,,,,,,,0,,59,0
1317,note_on,0,0,1,,,,,,,,,,,,,,,,,0,,67,0
1320,note_on,0,0,1,,,,,,,,,,,,,,,,,0,,54,68
1320,note_on,3,0,1,,,,,,,,,,,,,,,,,0,,63,51
1320,note_on,0,0,1,,,,,,,,,,,,,,,,,0,,60,49
1324,note_on,4,0,1,,,,,,,,,,,,,,,,,0,,55,0
1347,note_on,23,0,1,,,,,,,,,,,,,,,,,0,,60,0
1347,note_on,0,0,1,,,,,,,,,,,,,,,,,0,,63,0
1350,note_on,3,0,1,,,,,,,,,,,,,,,,,0,,60,46
1350,note_on,0,0,1,,,,,,,,,,,,,,,,,0,,69,45
1377,note_on,27,0,1,,,,,,,,,,,,,,,,,0,,69,0
1377,note_on,0,0,1,,,,,,,,,,,,,,,,,0,,60,0
1378,note_on,1,0,1,,,,,,,,,,,,,,,,,0,,54,0
1380,note_on,2,0,1,,,,,,,,,,,,,,,,,0,,68,56
1380,note_on,0,0,1,,,,,,,,,,,,,,,,,0,,62,46
1381,note_on,1,0,1,,,,,,,,,,,,,,,,,0,,53,70
1407,note_on,0,0,1,,,,,,,,,,,,,,,,,0,,68,0
1407,note_on,26,0,1,,,,,,,,,,,,,,,,,0,,62,0
1410,note_on,0,0,1,,,,,,,,,,,,,,,,,0,,71,43
1410,note_on,3,0,1,,,,,,,,,,,,,,,,,0,,62,38
1437,note_on,27,0,1,,,,,,,,,,,,,,,,,0,,71,0
1437,note_on,0,0,1,,,,,,,,,,,,,,,,,0,,62,0
1439,note_on,2,0,1,,,,,,,,,,,,,,,,,0,,52,68
1440,note_on,1,0,1,,,,,,,,,,,,,,,,,0,,48,0
1440,note_on,0,0,1,,,,,,,,,,,,,,,,,0,,67,55
1440,note_on,0,0,1,,,,,,,,,,,,,,,,,0,,64,48
1444,note_on,4,0,1,,,,,,,,,,,,,,,,,0,,53,0
1467,note_on,23,0,1,,,,,,,,,,,,,,,,,0,,64,0
1467,note_on,0,0,1,,,,,,,,,,,,,,,,,0,,67,0
1470,note_on,0,0,1,,,,,,,,,,,,,,,,,0,,72,45
1470,note_on,3,0,1,,,,,,,,,,,,,,,,,0,,64,42
1497,note_on,27,0,1,,,,,,,,,,,,,,,,,0,,72,0
1497,note_on,0,0,1,,,,,,,,,,,,,,,,,0,,64,0
1499,note_on,2,0,1,,,,,,,,,,,,,,,,,0,,50,68
1500,note_on,1,0,1,,,,,,,,,,,,,,,,,0,,71,53
1500,note_on,0,0,1,,,,,,,,,,,,,,,,,0,,65,42
1506,note_on,6,0,1,,,,,,,,,,,,,,,,,0,,52,0
1527,note_on,21,0,1,,,,,,,,,,,,,,,,,0,,65,0
1527,note_on,0,0,1,,,,,,,,,,,,,,,,,0,,71,0
1530,note_on,3,0,1,,,,,,,,,,,,,,,,,0,,65,51
1530,note_on,0,0,1,,,,,,,,,,,,,,,,,0,,74,48
1557,note_on,27,0,1,,,,,,,,,,,,,,,,,0,,74,0
1557,note_on,0,0,1,,,,,,,,,,,,,,,,,0,,65,0
1559,note_on,2,0,1,,,,,,,,,,,,,,,,,0,,49,74
1560,note_on,0,0,1,,,,,,,,,,,,,,,,,0,,67,45
1560,note_on,1,0,1,,,,,,,,,,,,,,,,,0,,70,57
1563,control_change,0,0,1,,,,,,,,,,,,,,,64,127,0,,,
1563,note_on,3,0,1,,,,,,,,,,,,,,,,,0,,50,0
1587,note_on,24,0,1,,,,,,,,,,,,,,,,,0,,67,0
1587,note_on,0,0,1,,,,,,,,,,,,,,,,,0,,70,0
1590,note_on,3,0,1,,,,,,,,,,,,,,,,,0,,67,47
1590,note_on,0,0,1,,,,,,,,,,,,,,,,,0,,76,34
1617,note_on,27,0,1,,,,,,,,,,,,,,,,,0,,76,0
1617,note_on,0,0,1,,,,,,,,,,,,,,,,,0,,67,0
1619,note_on,2,0,1,,,,,,,,,,,,,,,,,0,,61,78
1620,note_on,1,0,1,,,,,,,,,,,,,,,,,0,,70,50
1620,note_on,0,0,1,,,,,,,,,,,,,,,,,0,,76,47
1647,note_on,27,0,1,,,,,,,,,,,,,,,,,0,,76,0
1647,note_on,0,0,1,,,,,,,,,,,,,,,,,0,,70,0
1650,note_on,0,0,1,,,,,,,,,,,,,,,,,0,,70,47
1650,note_on,3,0,1,,,,,,,,,,,,,,,,,0,,79,50
1663,note_on,13,0,1,,,,,,,,,,,,,,,,,0,,61,0
1663,note_on,0,0,1,,,,,,,,,,,,,,,,,0,,49,0
1677,note_on,14,0,1,,,,,,,,,,,,,,,,,0,,79,0
1677,note_on,0,0,1,,,,,,,,,,,,,,,,,0,,70,0
1679,note_on,2,0,1,,,,,,,,,,,,,,,,,0,,62,74
1679,note_on,0,0,1,,,,,,,,,,,,,,,,,0,,50,70
1680,note_on,1,0,1,,,,,,,,,,,,,,,,,0,,74,58
1680,note_on,0,0,1,,,,,,,,,,,,,,,,,0,,69,48
1694,control_change,14,0,1,,,,,,,,,,,,,,,64,0,0,,,
1707,note_on,13,0,1,,,,,,,,,,,,,,,,,0,,69,0
1707,note_on,0,0,1,,,,,,,,,,,,,,,,,0,,74,0
1710,note_on,3,0,1,,,,,,,,,,,,,,,,,0,,69,45
1710,note_on,0,0,1,,,,,,,,,,,,,,,,,0,,77,45
1716,note_on,6,0,1,,,,,,,,,,,,,,,,,0,,50,0
1717,note_on,1,0,1,,,,,,,,,,,,,,,,,0,,62,0
1737,note_on,0,0,1,,,,,,,,,,,,,,,,,0,,77,0
1737,note_on,20,0,1,,,,,,,,,,,,,,,,,0,,69,0
1738,control_change,1,0,1,,,,,,,,,,,,,,,64,127,0,,,
1739,note_on,1,0,1,,,,,,,,,,,,,,,,,0,,52,66
1739,note_on,0,0,1,,,,,,,,,,,,,,,,,0,,60,75
1740,note_on,1,0,1,,,,,,,,,,,,,,,,,0,,67,48
1740,note_on,0,0,1,,,,,,,,,,,,,,,,,0,,69,56
1767,note_on,27,0,1,,,,,,,,,,,,,,,,,0,,69,0
1767,note_on,0,0,1,,,,,,,,,,,,,,,,,0,,67,0
1770,note_on,3,0,1,,,,,,,,,,,,,,,,,0,,67,42
1770,note_on,0,0,1,,,,,,,,,,,,,,,,,0,,76,50
1780,note_on,10,0,1,,,,,,,,,,,,,,,,,0,,60,0
1784,note_on,4,0,1,,,,,,,,,,,,,,,,,0,,52,0
1797,note_on,13,0,1,,,,,,,,,,,,,,,,,0,,67,0
1797,note_on,0,0,1,,,,,,,,,,,,,,,,,0,,76,0
1799,note_on,2,0,1,,,,,,,,,,,,,,,,,0,,61,76
1799,note_on,0,0,1,,,,,,,,,,,,,,,,,0,,52,69
1800,note_on,1,0,1,,,,,,,,,,,,,,,,,0,,69,54
1800,note_on,0,0,1,,,,,,,,,,,,,,,,,0,,67,44
1827,note_on,0,0,1,,,,,,,,,,,,,,,,,0,,69,0
1827,note_on,27,0,1,,,,,,,,,,,,,,,,,0,,67,0
1829,note_on,2,0,1,,,,,,,,,,,,,,,,,0,,61,0
1830,note_on,1,0,1,,,,,,,,,,,,,,,,,0,,52,0
1830,note_on,0,0,1,,,,,,,,,,,,,,,,,0,,67,46
1830,note_on,0,0,1,,,,,,,,,,,,,,,,,0,,76,46
1857,note_on,27,0,1,,,,,,,,,,,,,,,,,0,,76,0
1857,note_on,0,0,1,,,,,,,,,,,,,,,,,0,,67,0
1860,note_on,3,0,1,,,,,,,,,,,,,,,,,0,,69,58
1860,note_on,0,0,1,,,,,,,,,,,,,,,,,0,,65,51
1861,note_on,0,0,1,,,,,,,,,,,,,,,,,0,,53,74
1861,note_on,1,0,1,,,,,,,,,,,,,,,,,0,,62,76
1866,control_change,5,0,1,,,,,,,,,,,,,,,64,0,0,,,
1887,note_on,21,0,1,,,,,,,,,,,,,,,,,0,,65,0
1887,note_on,0,0,1,,,,,,,,,,,,,,,,,0,,69,0
1890,note_on,3,0,1,,,,,,,,,,,,,,,,,0,,65,46
1890,note_on,0,0,1,,,,,,,,,,,,,,,,,0,,74,45
1917,note_on,27,0,1,,,,,,,,,,,,,,,,,0,,74,0
1917,note_on,0,0,1,,,,,,,,,,,,,,,,,0,,65,0
1917,note_on,0,0,1,,,,,,,,,,,,,,,,,0,,62,0
1919,note_on,2,0,1,,,,,,,,,,,,,,,,,0,,54,78
1920,note_on,1,0,1,,,,,,,,,,,,,,,,,0,,63,46
1920,note_on,0,0,1,,,,,,,,,,,,,,,,,0,,69,52
1925,note_on,5,0,1,,,,,,,,,,,,,,,,,0,,53,0
1947,note_on,22,0,1,,,,,,,,,,,,,,,,,0,,69,0
1947,note_on,0,0,1,,,,,,,,,,,,,,,,,0,,63,0
1950,note_on,3,0,1,,,,,,,,,,,,,,,,,0,,72,56
1950,note_on,0,0,1,,,,,,,,,,,,,,,,,0,,63,45
1977,note_on,0,0,1,,,,,,,,,,,,,,,,,0,,72,0
1977,note_on,27,0,1,,,,,,,,,,,,,,,,,0,,63,0
1979,note_on,2,0,1,,,,,,,,,,,,,,,,,0,,54,0
1979,note_on,0,0,1,,,,,,,,,,,,,,,,,0,,55,79
1980,note_on,0,0,1,,,,,,,,,,,,,,,,,0,,67,55
1980,note_on,1,0,1,,,,,,,,,,,,,,,,,0,,64,42
1985,control_change,5,0,1,,,,,,,,,,,,,,,64,127,0,,,
2007,note_on,22,0,1,,,,,,,,,,,,,,,,,0,,67,0
2007,note_on,0,0,1,,,,,,,,,,,,,,,,,0,,64,0
2010,note_on,3,0,1,,,,,,,,,,,,,,,,,0,,64,51
2010,note_on,0,0,1,,,,,,,,,,,,,,,,,0,,72,45
2037,note_on,27,0,1,,,,,,,,,,,,,,,,,0,,72,0
2037,note_on,0,0,1,,,,,,,,,,,,,,,,,0,,64,0
2039,note_on,2,0,1,,,,,,,,,,,,,,,,,0,,43,76
2040,note_on,1,0,1,,,,,,,,,,,,,,,,,0,,63,47
2040,note_on,0,0,1,,,,,,,,,,,,,,,,,0,,66,60
2047,note_on,7,0,1,,,,,,,,,,,,,,,,,0,,55,0
2067,note_on,20,0,1,,,,,,,,,,,,,,,,,0,,66,0
2067,control_change,0,0,1,,,,,,,,,,,,,,,64,0,0,,,
2067,note_on,0,0,1,,,,,,,,,,,,,,,,,0,,63,0
2070,note_on,3,0,1,,,,,,,,,,,,,,,,,0,,72,52
2070,note_on,0,0,1,,,,,,,,,,,,,,,,,0,,63,50
2097,note_on,0,0,1,,,,,,,,,,,,,,,,,0,,72,0
2097,note_on,0,0,1,,,,,,,,,,,,,,,,,0,,43,0
2097,note_on,27,0,1,,,,,,,,,,,,,,,,,0,,63,0
2100,note_on,3,0,1,,,,,,,,,,,,,,,,,0,,62,51
2100,note_on,0,0,1,,,,,,,,,,,,,,,,,0,,65,58
2101,note_on,1,0,1,,,,,,,,,,,,,,,,,0,,55,73
2127,note_on,26,0,1,,,,,,,,,,,,,,,,,0,,65,0
2127,note_on,0,0,1,,,,,,,,,,,,,,,,,0,,62,0
2130,note_on,3,0,1,,,,,,,,,,,,,,,,,0,,62,48
2130,note_on,0,0,1,,,,,,,,,,,,,,,,,0,,71,57
2157,note_on,27,0,1,,,,,,,,,,,,,,,,,0,,71,0
2157,note_on,0,0,1,,,,,,,,,,,,,,,,,0,,62,0
2159,note_on,2,0,1,,,,,,,,,,,,,,,,,0,,48,78
2160,note_on,1,0,1,,,,,,,,,,,,,,,,,0,,64,43
2160,note_on,0,0,1,,,,,,,,,,,,,,,,,0,,67,45
2164,note_on,4,0,1,,,,,,,,,,,,,,,,,0,,55,0
2187,note_on,23,0,1,,,,,,,,,,,,,,,,,0,,67,0
2187,note_on,0,0,1,,,,,,,,,,,,,,,,,0,,64,0
2190,note_on,3,0,1,,,,,,,,,,,,,,,,,0,,64,48
2190,note_on,0,0,1,,,,,,,,,,,,,,,,,0,,72,50
2217,note_on,27,0,1,,,,,,,,,,,,,,,,,0,,72,0
2217,note_on,0,0,1,,,,,,,,,,,,,,,,,0,,64,0
2219,note_on,2,0,1,,,,,,,,,,,,,,,,,0,,56,77
2220,note_on,0,0,1,,,,,,,,,,,,,,,,,0,,65,39
2220,note_on,1,0,1,,,,,,,,,,,,,,,,,0,,68,47
2247,note_on,0,0,1,,,,,,,,,,,,,,,,,0,,68,0
2247,note_on,27,0,1,,,,,,,,,,,,,,,,,0,,65,0
2250,note_on,3,0,1,,,,,,,,,,,,,,,,,0,,65,45
2250,note_on,0,0,1,,,,,,,,,,,,,,,,,0,,74,61
2277,note_on,27,0,1,,,,,,,,,,,,,,,,,0,,74,0
2277,note_on,0,0,1,,,,,,,,,,,,,,,,,0,,65,0
2280,note_on,3,0,1,,,,,,,,,,,,,,,,,0,,65,48
2280,note_on,0,0,1,,,,,,,,,,,,,,,,,0,,62,37
2307,note_on,27,0,1,,,,,,,,,,,,,,,,,0,,62,0
2307,note_on,0,0,1,,,,,,,,,,,,,,,,,0,,65,0
2310,note_on,3,0,1,,,,,,,,,,,,,,,,,0,,62,48
2310,note_on,0,0,1,,,,,,,,,,,,,,,,,0,,71,51
2337,note_on,27,0,1,,,,,,,,,,,,,,,,,0,,71,0
2337,note_on,0,0,1,,,,,,,,,,,,,,,,,0,,62,0
2340,note_on,3,0,1,,,,,,,,,,,,,,,,,0,,62,50
2340,note_on,0,0,1,,,,,,,,,,,,,,,,,0,,59,39
2341,note_on,1,0,1,,,,,,,,,,,,,,,,,0,,55,69
2344,note_on,3,0,1,,,,,,,,,,,,,,,,,0,,56,0
2367,note_on,23,0,1,,,,,,,,,,,,,,,,,0,,59,0
2367,note_on,0,0,1,,,,,,,,,,,,,,,,,0,,62,0
2370,note_on,3,0,1,,,,,,,,,,,,,,,,,0,,59,44
2370,note_on,0,0,1,,,,,,,,,,,,,,,,,0,,67,50
2397,note_on,27,0,1,,,,,,,,,,,,,,,,,0,,67,0
2397,note_on,0,0,1,,,,,,,,,,,,,,,,,0,,59,0
2400,note_on,0,0,1,,,,,,,,,,,,,,,,,0,,63,53
2400,note_on,3,0,1,,,,,,,,,,,,,,,,,0,,60,48
2401,note_on,1,0,1,,,,,,,,,,,,,,,,,0,,54,72
2408,note_on,7,0,1,,,,,,,,,,,,,,,,,0,,55,0
2427,note_on,19,0,1,,,,,,,,,,,,,,,,,0,,63,0
2427,note_on,0,0,1,,,,,,,,,,,,,,,,,0,,60,0
2430,note_on,3,0,1,,,,,,,,,,,,,,,,,0,,69,54
2430,note_on,0,0,1,,,,,,,,,,,,,,,,,0,,60,45
2457,note_on,0,0,1,,,,,,,,,,,,,,,,,0,,69,0
2457,note_on,27,0,1,,,,,,,,,,,,,,,,,0,,60,0
2460,note_on,3,0,1,,,,,,,,,,,,,,,,,0,,62,48
2460,note_on,0,0,1,,,,,,,,,,,,,,,,,0,,68,57
2461,note_on,1,0,1,,,,,,,,,,,,,,,,,0,,53,75
2465,note_on,4,0,1,,,,,,,,,,,,,,,,,0,,54,0
2473,note_on,8,0,1,,,,,,,,,,,,,,,,,0,,48,0
2485,note_on,12,0,1,,,,,,,,,,,,,,,,,0,,53,0
2487,note_on,2,0,1,,,,,,,,,,,,,,,,,0,,62,0
2487,note_on,0,0,1,,,,,,,,,,,,,,,,,0,,68,0
2490,note_on,3,0,1,,,,,,,,,,,,,,,,,0,,62,45
2490,note_on,0,0,1,,,,,,,,,,,,,,,,,0,,71,48
2513,control_change,23,0,1,,,,,,,,,,,,,,,64,127,0,,,
2517,note_on,4,0,1,,,,,,,,,,,,,,,,,0,,71,0
2517,note_on,0,0,1,,,,,,,,,,,,,,,,,0,,62,0
2520,note_on,0,0,1,,,,,,,,,,,,,,,,,0,,67,39
2520,note_on,3,0,1,,,,,,,,,,,,,,,,,0,,64,39
2521,note_on,1,0,1,,,,,,,,,,,,,,,,,0,,36,79
2538,note_on,17,0,1,,,,,,,,,,,,,,,,,0,,36,0
2547,note_on,9,0,1,,,,,,,,,,,,,,,,,0,,67,0
2547,note_on,0,0,1,,,,,,,,,,,,,,,,,0,,64,0
2550,note_on,3,0,1,,,,,,,,,,,,,,,,,0,,64,45
2550,note_on,0,0,1,,,,,,,,,,,,,,,,,0,,72,46
2577,note_on,27,0,1,,,,,,,,,,,,,,,,,0,,72,0
2577,note_on,0,0,1,,,,,,,,,,,,,,,,,0,,64,0
2580,note_on,3,0,1,,,,,,,,,,,,,,,,,0,,68,54
2580,note_on,0,0,1,,,,,,,,,,,,,,,,,0,,65,54
2581,note_on,1,0,1,,,,,,,,,,,,,,,,,0,,48,83
2585,control_change,4,0,1,,,,,,,,,,,,,,,64,0,0,,,
2607,note_on,0,0,1,,,,,,,,,,,,,,,,,0,,68,0
2607,note_on,22,0,1,,,,,,,,,,,,,,,,,0,,65,0
2610,note_on,3,0,1,,,,,,,,,,,,,,,,,0,,65,47
2610,note_on,0,0,1,,,,,,,,,,,,,,,,,0,,74,62
2637,note_on,0,0,1,,,,,,,,,,,,,,,,,0,,65,0
2637,note_on,27,0,1,,,,,,,,,,,,,,,,,0,,74,0
2640,note_on,3,0,1,,,,,,,,,,,,,,,,,0,,62,48
2640,note_on,0,0,1,,,,,,,,,,,,,,,,,0,,65,53
2641,note_on,1,0,1,,,,,,,,,,,,,,,,,0,,56,66
2667,note_on,26,0,1,,,,,,,,,,,,,,,,,0,,65,0
2667,note_on,0,0,1,,,,,,,,,,,,,,,,,0,,62,0
2670,note_on,3,0,1,,,,,,,,,,,,,,,,,0,,71,56
2670,note_on,0,0,1,,,,,,,,,,,,,,,,,0,,62,48
2696,note_on,26,0,1,,,,,,,,,,,,,,,,,0,,56,0
2697,note_on,1,0,1,,,,,,,,,,,,,,,,,0,,62,0
2697,note_on,0,0,1,,,,,,,,,,,,,,,,,0,,71,0
2700,note_on,0,0,1,,,,,,,,,,,,,,,,,0,,55,68
2700,note_on,3,0,1,,,,,,,,,,,,,,,,,0,,59,44
2700,note_on,0,0,1,,,,,,,,,,,,,,,,,0,,62,42
2727,note_on,0,0,1,,,,,,,,,,,,,,,,,0,,59,0
2727,note_on,27,0,1,,,,,,,,,,,,,,,,,0,,62,0
2730,note_on,3,0,1,,,,,,,,,,,,,,,,,0,,67,49
2730,note_on,0,0,1,,,,,,,,,,,,,,,,,0,,59,40
2757,note_on,27,0,1,,,,,,,,,,,,,,,,,0,,59,0
2757,note_on,0,0,1,,,,,,,,,,,,,,,,,0,,67,0
2760,note_on,3,0,1,,,,,,,,,,,,,,,,,0,,60,48
2760,note_on,0,0,1,,,,,,,,,,,,,,,,,0,,63,51
2761,note_on,1,0,1,,,,,,,,,,,,,,,,,0,,54,68
2764,note_on,3,0,1,,,,,,,,,,,,,,,,,0,,55,0
2787,note_on,23,0,1,,,,,,,,,,,,,,,,,0,,63,0
2787,note_on,0,0,1,,,,,,,,,,,,,,,,,0,,60,0
2790,note_on,0,0,1,,,,,,,,,,,,,,,,,0,,60,43
2790,note_on,3,0,1,,,,,,,,,,,,,,,,,0,,69,54
2817,note_on,27,0,1,,,,,,,,,,,,,,,,,0,,60,0
2817,note_on,0,0,1,,,,,,,,,,,,,,,,,0,,69,0
2820,note_on,3,0,1,,,,,,,,,,,,,,,,,0,,68,57
2820,note_on,0,0,1,,,,,,,,,,,,,,,,,0,,62,49
2820,note_on,0,0,1,,,,,,,,,,,,,,,,,0,,53,68
2825,note_on,5,0,1,,,,,,,,,,,,,,,,,0,,54,0
2835,note_on,10,0,1,,,,,,,,,,,,,,,,,0,,48,0
2847,note_on,12,0,1,,,,,,,,,,,,,,,,,0,,62,0
2847,note_on,0,0,1,,,,,,,,,,,,,,,,,0,,68,0
2850,note_on,0,0,1,,,,,,,,,,,,,,,,,0,,62,45
2850,note_on,3,0,1,,,,,,,,,,,,,,,,,0,,71,50
2877,note_on,27,0,1,,,,,,,,,,,,,,,,,0,,62,0
2877,note_on,0,0,1,,,,,,,,,,,,,,,,,0,,71,0
2879,note_on,2,0,1,,,,,,,,,,,,,,,,,0,,52,72
2880,note_on,1,0,1,,,,,,,,,,,,,,,,,0,,64,41
2880,note_on,0,0,1,,,,,,,,,,,,,,,,,0,,67,47
2893,note_on,13,0,1,,,,,,,,,,,,,,,,,0,,53,0
2907,note_on,14,0,1,,,,,,,,,,,,,,,,,0,,67,0
2907,note_on,0,0,1,,,,,,,,,,,,,,,,,0,,64,0
2910,note_on,3,0,1,,,,,,,,,,,,,,,,,0,,64,51
2910,note_on,0,0,1,,,,,,,,,,,,,,,,,0,,72,55
2937,note_on,27,0,1,,,,,,,,,,,,,,,,,0,,72,0
2937,note_on,0,0,1,,,,,,,,,,,,,,,,,0,,64,0
2940,note_on,3,0,1,,,,,,,,,,,,,,,,,0,,70,56
2940,note_on,0,0,1,,,,,,,,,,,,,,,,,0,,67,46
2941,note_on,1,0,1,,,,,,,,,,,,,,,,,0,,48,77
2947,note_on,6,0,1,,,,,,,,,,,,,,,,,0,,52,0
2967,note_on,0,0,1,,,,,,,,,,,,,,,,,0,,67,0
2967,note_on,20,0,1,,,,,,,,,,,,,,,,,0,,70,0
2970,note_on,3,0,1,,,,,,,,,,,,,,,,,0,,67,51
2970,note_on,0,0,1,,,,,,,,,,,,,,,,,0,,76,56
2997,note_on,27,0,1,,,,,,,,,,,,,,,,,0,,76,0
2997,note_on,0,0,1,,,,,,,,,,,,,,,,,0,,67,0
2999,note_on,2,0,1,,,,,,,,,,,,,,,,,0,,47,75
3000,note_on,1,0,1,,,,,,,,,,,,,,,,,0,,67,42
3000,note_on,0,0,1,,,,,,,,,,,,,,,,,0,,71,59
3002,note_on,2,0,1,,,,,,,,,,,,,,,,,0,,48,0
3027,note_on,0,0,1,,,,,,,,,,,,,,,,,0,,67,0
3027,note_on,25,0,1,,,,,,,,,,,,,,,,,0,,71,0
3030,note_on,3,0,1,,,,,,,,,,,,,,,,,0,,67,45
3030,note_on,0,0,1,,,,,,,,,,,,,,,,,0,,76,56
3057,note_on,27,0,1,,,,,,,,,,,,,,,,,0,,76,0
3057,note_on,0,0,1,,,,,,,,,,,,,,,,,0,,67,0
3060,note_on,3,0,1,,,,,,,,,,,,,,,,,0,,73,51
3060,note_on,0,0,1,,,,,,,,,,,,,,,,,0,,67,45
3061,note_on,1,0,1,,,,,,,,,,,,,,,,,0,,46,78
3062,note_on,1,0,1,,,,,,,,,,,,,,,,,0,,47,0
3087,note_on,25,0,1,,,,,,,,,,,,,,,,,0,,73,0
3087,note_on,0,0,1,,,,,,,,,,,,,,,,,0,,67,0
3090,note_on,3,0,1,,,,,,,,,,,,,,,,,0,,67,44
3090,note_on,0,0,1,,,,,,,,,,,,,,,,,0,,76,57
3117,note_on,0,0,1,,,,,,,,,,,,,,,,,0,,67,0
3117,note_on,27,0,1,,,,,,,,,,,,,,,,,0,,76,0
3119,note_on,2,0,1,,,,,,,,,,,,,,,,,0,,47,78
3120,note_on,1,0,1,,,,,,,,,,,,,,,,,0,,71,46
3120,note_on,0,0,1,,,,,,,,,,,,,,,,,0,,76,49
3121,note_on,1,0,1,,,,,,,,,,,,,,,,,0,,46,0
3147,note_on,0,0,1,,,,,,,,,,,,,,,,,0,,71,0
3147,note_on,26,0,1,,,,,,,,,,,,,,,,,0,,76,0
3150,note_on,3,0,1,,,,,,,,,,,,,,,,,0,,71,51
3150,note_on,0,0,1,,,,,,,,,,,,,,,,,0,,79,56
3175,note_on,25,0,1,,,,,,,,,,,,,,,,,0,,47,0
3177,note_on,2,0,1,,,,,,,,,,,,,,,,,0,,79,0
3177,note_on,0,0,1,,,,,,,,,,,,,,,,,0,,71,0
3179,note_on,2,0,1,,,,,,,,,,,,,,,,,0,,59,79
3180,note_on,1,0,1,,,,,,,,,,,,,,,,,0,,71,56
3180,note_on,0,0,1,,,,,,,,,,,,,,,,,0,,69,45
3207,note_on,27,0,1,,,,,,,,,,,,,,,,,0,,69,0
3207,note_on,0,0,1,,,,,,,,,,,,,,,,,0,,71,0
3210,note_on,3,0,1,,,,,,,,,,,,,,,,,0,,69,47
3210,note_on,0,0,1,,,,,,,,,,,,,,,,,0,,78,46
3233,note_on,23,0,1,,,,,,,,,,,,,,,,,0,,59,0
3237,note_on,4,0,1,,,,,,,,,,,,,,,,,0,,78,0
3237,note_on,0,0,1,,,,,,,,,,,,,,,,,0,,69,0
3239,note_on,2,0,1,,,,,,,,,,,,,,,,,0,,52,85
3240,note_on,1,0,1,,,,,,,,,,,,,,,,,0,,67,45
3240,note_on,0,0,1,,,,,,,,,,,,,,,,,0,,71,52
3242,control_change,2,0,1,,,,,,,,,,,,,,,64,127,0,,,
3267,note_on,0,0,1,,,,,,,,,,,,,,,,,0,,67,0
3267,note_on,25,0,1,,,,,,,,,,,,,,,,,0,,71,0
3270,note_on,0,0,1,,,,,,,,,,,,,,,,,0,,76,52
3270,note_on,3,0,1,,,,,,,,,,,,,,,,,0,,67,47
3277,note_on,7,0,1,,,,,,,,,,,,,,,,,0,,52,0
3297,note_on,20,0,1,,,,,,,,,,,,,,,,,0,,76,0
3297,note_on,0,0,1,,,,,,,,,,,,,,,,,0,,67,0
3300,note_on,3,0,1,,,,,,,,,,,,,,,,,0,,76,56
3300,note_on,0,0,1,,,,,,,,,,,,,,,,,0,,71,45
3327,note_on,0,0,1,,,,,,,,,,,,,,,,,0,,76,0
3327,note_on,27,0,1,,,,,,,,,,,,,,,,,0,,71,0
3330,note_on,0,0,1,,,,,,,,,,,,,,,,,0,,79,52
3330,note_on,3,0,1,,,,,,,,,,,,,,,,,0,,71,47
3357,note_on,27,0,1,,,,,,,,,,,,,,,,,0,,79,0
3357,note_on,0,0,1,,,,,,,,,,,,,,,,,0,,71,0
3360,note_on,3,0,1,,,,,,,,,,,,,,,,,0,,79,54
3360,note_on,0,0,1,,,,,,,,,,,,,,,,,0,,76,45
3387,note_on,27,0,1,,,,,,,,,,,,,,,,,0,,76,0
3387,note_on,0,0,1,,,,,,,,,,,,,,,,,0,,79,0
3390,note_on,0,0,1,,,,,,,,,,,,,,,,,0,,83,56
3390,note_on,3,0,1,,,,,,,,,,,,,,,,,0,,76,47
3417,note_on,27,0,1,,,,,,,,,,,,,,,,,0,,83,0
3417,note_on,0,0,1,,,,,,,,,,,,,,,,,0,,76,0
3420,note_on,3,0,1,,,,,,,,,,,,,,,,,0,,79,45
3420,note_on,0,0,1,,,,,,,,,,,,,,,,,0,,83,51
3420,control_change,0,0,1,,,,,,,,,,,,,,,64,0,0,,,
3421,note_on,1,0,1,,,,,,,,,,,,,,,,,0,,64,71
3447,note_on,26,0,1,,,,,,,,,,,,,,,,,0,,83,0
3447,note_on,0,0,1,,,,,,,,,,,,,,,,,0,,79,0
3450,note_on,3,0,1,,,,,,,,,,,,,,,,,0,,79,47
3450,note_on,0,0,1,,,,,,,,,,,,,,,,,0,,88,55
3477,note_on,27,0,1,,,,,,,,,,,,,,,,,0,,88,0
3477,note_on,0,0,1,,,,,,,,,,,,,,,,,0,,79,0
3479,note_on,2,0,1,,,,,,,,,,,,,,,,,0,,65,72
3480,note_on,0,0,1,,,,,,,,,,,,,,,,,0,,81,58
3480,note_on,1,0,1,,,,,,,,,,,,,,,,,0,,77,40
3484,note_on,4,0,1,,,,,,,,,,,,,,,,,0,,64,0
3507,note_on,23,0,1,,,,,,,,,,,,,,,,,0,,81,0
3507,note_on,0,0,1,,,,,,,,,,,,,,,,,0,,77,0
3510,note_on,3,0,1,,,,,,,,,,,,,,,,,0,,86,58
3510,note_on,0,0,1,,,,,,,,,,,,,,,,,0,,77,46
3537,note_on,27,0,1,,,,,,,,,,,,,,,,,0,,77,0
3537,note_on,0,0,1,,,,,,,,,,,,,,,,,0,,86,0
3539,note_on,2,0,1,,,,,,,,,,,,,,,,,0,,67,69
3540,note_on,1,0,1,,,,,,,,,,,,,,,,,0,,79,54
3540,note_on,0,0,1,,,,,,,,,,,,,,,,,0,,77,45
3542,note_on,2,0,1,,,,,,,,,,,,,,,,,0,,65,0
3567,note_on,25,0,1,,,,,,,,,,,,,,,,,0,,77,0
3567,note_on,0,0,1,,,,,,,,,,,,,,,,,0,,79,0
3570,note_on,3,0,1,,,,,,,,,,,,,,,,,0,,77,37
3570,note_on,0,0,1,,,,,,,,,,,,,,,,,0,,83,51
3597,note_on,0,0,1,,,,,,,,,,,,,,,,,0,,77,0
3597,note_on,27,0,1,,,,,,,,,,,,,,,,,0,,83,0
3599,note_on,2,0,1,,,,,,,,,,,,,,,,,0,,60,65
3600,note_on,0,0,1,,,,,,,,,,,,,,,,,0,,79,57
3600,note_on,1,0,1,,,,,,,,,,,,,,,,,0,,76,43
3609,note_on,9,0,1,,,,,,,,,,,,,,,,,0,,67,0
3627,note_on,18,0,1,,,,,,,,,,,,,,,,,0,,79,0
3627,note_on,0,0,1,,,,,,,,,,,,,,,,,0,,76,0
3630,note_on,3,0,1,,,,,,,,,,,,,,,,,0,,76,50
3630,note_on,0,0,1,,,,,,,,,,,,,,,,,0,,84,55
3657,note_on,27,0,1,,,,,,,,,,,,,,,,,0,,84,0
3657,note_on,0,0,1,,,,,,,,,,,,,,,,,0,,76,0
3659,note_on,2,0,1,,,,,,,,,,,,,,,,,0,,68,73
3660,note_on,1,0,1,,,,,,,,,,,,,,,,,0,,80,51
3660,note_on,0,0,1,,,,,,,,,,,,,,,,,0,,77,45
3663,note_on,3,0,1,,,,,,,,,,,,,,,,,0,,60,0
3687,note_on,24,0,1,,,,,,,,,,,,,,,,,0,,77,0
3687,note_on,0,0,1,,,,,,,,,,,,,,,,,0,,80,0
3690,note_on,3,0,1,,,,,,,,,,,,,,,,,0,,86,61
3690,note_on,0,0,1,,,,,,,,,,,,,,,,,0,,77,47
3717,note_on,27,0,1,,,,,,,,,,,,,,,,,0,,77,0
3717,note_on,0,0,1,,,,,,,,,,,,,,,,,0,,86,0
3720,note_on,3,0,1,,,,,,,,,,,,,,,,,0,,77,52
3720,note_on,0,0,1,,,,,,,,,,,,,,,,,0,,74,45
3747,note_on,27,0,1,,,,,,,,,,,,,,,,,0,,74,0
3747,note_on,0,0,1,,,,,,,,,,,,,,,,,0,,77,0
3750,note_on,3,0,1,,,,,,,,,,,,,,,,,0,,74,49
3750,note_on,0,0,1,,,,,,,,,,,,,,,,,0,,83,54
3777,note_on,0,0,1,,,,,,,,,,,,,,,,,0,,74,0
3777,note_on,27,0,1,,,,,,,,,,,,,,,,,0,,83,0
3780,note_on,3,0,1,,,,,,,,,,,,,,,,,0,,71,42
3780,note_on,0,0,1,,,,,,,,,,,,,,,,,0,,74,54
3781,note_on,1,0,1,,,,,,,,,,,,,,,,,0,,67,69
3791,note_on,10,0,1,,,,,,,,,,,,,,,,,0,,68,0
3807,note_on,16,0,1,,,,,,,,,,,,,,,,,0,,71,0
3807,note_on,0,0,1,,,,,,,,,,,,,,,,,0,,74,0
3810,note_on,3,0,1,,,,,,,,,,,,,,,,,0,,79,52
3810,note_on,0,0,1,,,,,,,,,,,,,,,,,0,,71,47
3837,note_on,27,0,1,,,,,,,,,,,,,,,,,0,,71,0
3837,note_on,0,0,1,,,,,,,,,,,,,,,,,0,,79,0
3840,note_on,0,0,1,,,,,,,,,,,,,,,,,0,,72,40
3840,note_on,3,0,1,,,,,,,,,,,,,,,,,0,,75,51
3841,note_on,1,0,1,,,,,,,,,,,,,,,,,0,,66,69
3848,note_on,7,0,1,,,,,,,,,,,,,,,,,0,,67,0
3867,note_on,19,0,1,,,,,,,,,,,,,,,,,0,,75,0
3867,note_on,0,0,1,,,,,,,,,,,,,,,,,0,,72,0
3870,note_on,3,0,1,,,,,,,,,,,,,,,,,0,,72,43
3870,note_on,0,0,1,,,,,,,,,,,,,,,,,0,,81,46
3897,note_on,0,0,1,,,,,,,,,,,,,,,,,0,,72,0
3897,note_on,27,0,1,,,,,,,,,,,,,,,,,0,,81,0
3899,note_on,2,0,1,,,,,,,,,,,,,,,,,0,,65,68
3900,note_on,0,0,1,,,,,,,,,,,,,,,,,0,,80,50
3900,note_on,1,0,1,,,,,,,,,,,,,,,,,0,,74,48
3903,note_on,3,0,1,,,,,,,,,,,,,,,,,0,,66,0
3924,note_on,21,0,1,,,,,,,,,,,,,,,,,0,,65,0
3927,note_on,3,0,1,,,,,,,,,,,,,,,,,0,,74,0
3927,note_on,0,0,1,,,,,,,,,,,,,,,,,0,,80,0
3930,note_on,0,0,1,,,,,,,,,,,,,,,,,0,,83,51
3930,note_on,3,0,1,,,,,,,,,,,,,,,,,0,,74,49
3953,control_change,23,0,1,,,,,,,,,,,,,,,64,127,0,,,
3957,note_on,4,0,1,,,,,,,,,,,,,,,,,0,,83,0
3957,note_on,0,0,1,,,,,,,,,,,,,,,,,0,,74,0
3959,note_on,2,0,1,,,,,,,,,,,,,,,,,0,,48,73
3960,note_on,1,0,1,,,,,,,,,,,,,,,,,0,,76,45
3960,note_on,0,0,1,,,,,,,,,,,,,,,,,0,,79,52
3976,note_on,16,0,1,,,,,,,,,,,,,,,,,0,,48,0
3987,note_on,11,0,1,,,,,,,,,,,,,,,,,0,,79,0
3987,note_on,0,0,1,,,,,,,,,,,,,,,,,0,,76,0
3990,note_on,0,0,1,,,,,,,,,,,,,,,,,0,,84,48
3990,note_on,3,0,1,,,,,,,,,,,,,,,,,0,,76,42
4017,note_on,27,0,1,,,,,,,,,,,,,,,,,0,,84,0
4017,note_on,0,0,1,,,,,,,,,,,,,,,,,0,,76,0
4020,note_on,3,0,1,,,,,,,,,,,,,,,,,0,,80,51
4020,note_on,0,0,1,,,,,,,,,,,,,,,,,0,,77,40
4020,note_on,0,0,1,,,,,,,,,,,,,,,,,0,,60,77
4032,control_change,12,0,1,,,,,,,,,,,,,,,64,0,0,,,
4047,note_on,15,0,1,,,,,,,,,,,,,,,,,0,,77,0
4047,note_on,0,0,1,,,,,,,,,,,,,,,,,0,,80,0
4050,note_on,0,0,1,,,,,,,,,,,,,,,,,0,,77,48
4050,note_on,3,0,1,,,,,,,,,,,,,,,,,0,,86,60
4077,note_on,0,0,1,,,,,,,,,,,,,,,,,0,,86,0
4077,note_on,27,0,1,,,,,,,,,,,,,,,,,0,,77,0
4080,note_on,3,0,1,,,,,,,,,,,,,,,,,0,,74,39
4080,note_on,0,0,1,,,,,,,,,,,,,,,,,0,,77,44
4081,note_on,1,0,1,,,,,,,,,,,,,,,,,0,,68,68
4107,note_on,26,0,1,,,,,,,,,,,,,,,,,0,,77,0
4107,note_on,0,0,1,,,,,,,,,,,,,,,,,0,,74,0
4110,note_on,3,0,1,,,,,,,,,,,,,,,,,0,,74,43
4110,note_on,0,0,1,,,,,,,,,,,,,,,,,0,,83,39
4137,note_on,27,0,1,,,,,,,,,,,,,,,,,0,,83,0
4137,note_on,0,0,1,,,,,,,,,,,,,,,,,0,,74,0
4139,note_on,2,0,1,,,,,,,,,,,,,,,,,0,,68,0
4140,note_on,1,0,1,,,,,,,,,,,,,,,,,0,,74,56
4140,note_on,0,0,1,,,,,,,,,,,,,,,,,0,,71,44
4141,note_on,1,0,1,,,,,,,,,,,,,,,,,0,,67,72
4167,note_on,0,0,1,,,,,,,,,,,,,,,,,0,,74,0
4167,note_on,26,0,1,,,,,,,,,,,,,,,,,0,,71,0
4170,note_on,0,0,1,,,,,,,,,,,,,,,,,0,,79,51
4170,note_on,3,0,1,,,,,,,,,,,,,,,,,0,,71,46
4197,note_on,27,0,1,,,,,,,,,,,,,,,,,0,,79,0
4197,note_on,0,0,1,,,,,,,,,,,,,,,,,0,,71,0
4200,note_on,3,0,1,,,,,,,,,,,,,,,,,0,,72,46
4200,note_on,0,0,1,,,,,,,,,,,,,,,,,0,,75,52
4200,note_on,0,0,1,,,,,,,,,,,,,,,,,0,,66,69
4203,note_on,3,0,1,,,,,,,,,,,,,,,,,0,,67,0
4227,note_on,24,0,1,,,,,,,,,,,,,,,,,0,,75,0
4227,note_on,0,0,1,,,,,,,,,,,,,,,,,0,,72,0
4230,note_on,0,0,1,,,,,,,,,,,,,,,,,0,,81,60
4230,note_on,3,0,1,,,,,,,,,,,,,,,,,0,,72,48
4256,note_on,26,0,1,,,,,,,,,,,,,,,,,0,,66,0
4257,note_on,1,0,1,,,,,,,,,,,,,,,,,0,,81,0
4257,note_on,0,0,1,,,,,,,,,,,,,,,,,0,,72,0
4259,note_on,2,0,1,,,,,,,,,,,,,,,,,0,,65,72
4260,note_on,1,0,1,,,,,,,,,,,,,,,,,0,,80,50
4260,note_on,0,0,1,,,,,,,,,,,,,,,,,0,,74,44
4287,note_on,27,0,1,,,,,,,,,,,,,,,,,0,,74,0
4287,note_on,0,0,1,,,,,,,,,,,,,,,,,0,,80,0
4289,note_on,2,0,1,,,,,,,,,,,,,,,,,0,,60,0
4290,note_on,1,0,1,,,,,,,,,,,,,,,,,0,,83,47
4290,note_on,0,0,1,,,,,,,,,,,,,,,,,0,,74,43
4317,note_on,27,0,1,,,,,,,,,,,,,,,,,0,,74,0
4317,note_on,0,0,1,,,,,,,,,,,,,,,,,0,,83,0
4319,note_on,2,0,1,,,,,,,,,,,,,,,,,0,,64,74
4320,note_on,1,0,1,,,,,,,,,,,,,,,,,0,,76,43
4320,note_on,0,0,1,,,,,,,,,,,,,,,,,0,,79,55
4325,note_on,5,0,1,,,,,,,,,,,,,,,,,0,,65,0
4347,note_on,0,0,1,,,,,,,,,,,,,,,,,0,,76,0
4347,note_on,22,0,1,,,,,,,,,,,,,,,,,0,,79,0
4350,note_on,3,0,1,,,,,,,,,,,,,,,,,0,,84,45
4350,note_on,0,0,1,,,,,,,,,,,,,,,,,0,,76,45
4377,note_on,27,0,1,,,,,,,,,,,,,,,,,0,,76,0
4377,note_on,0,0,1,,,,,,,,,,,,,,,,,0,,84,0
4379,note_on,2,0,1,,,,,,,,,,,,,,,,,0,,62,73
4380,note_on,1,0,1,,,,,,,,,,,,,,,,,0,,83,60
4380,note_on,0,0,1,,,,,,,,,,,,,,,,,0,,77,50
4389,note_on,9,0,1,,,,,,,,,,,,,,,,,0,,64,0
4407,note_on,0,0,1,,,,,,,,,,,,,,,,,0,,83,0
4407,note_on,18,0,1,,,,,,,,,,,,,,,,,0,,77,0
4410,note_on,3,0,1,,,,,,,,,,,,,,,,,0,,86,54
4410,note_on,0,0,1,,,,,,,,,,,,,,,,,0,,77,48
4437,note_on,27,0,1,,,,,,,,,,,,,,,,,0,,77,0
4437,note_on,0,0,1,,,,,,,,,,,,,,,,,0,,86,0
4439,note_on,2,0,1,,,,,,,,,,,,,,,,,0,,61,75
4440,note_on,1,0,1,,,,,,,,,,,,,,,,,0,,82,55
4440,note_on,0,0,1,,,,,,,,,,,,,,,,,0,,79,42
4443,note_on,3,0,1,,,,,,,,,,,,,,,,,0,,62,0
4447,control_change,4,0,1,,,,,,,,,,,,,,,64,127,0,,,
4467,note_on,20,0,1,,,,,,,,,,,,,,,,,0,,79,0
4467,note_on,0,0,1,,,,,,,,,,,,,,,,,0,,82,0
4470,note_on,0,0,1,,,,,,,,,,,,,,,,,0,,88,48
4470,note_on,3,0,1,,,,,,,,,,,,,,,,,0,,79,48
4497,note_on,27,0,1,,,,,,,,,,,,,,,,,0,,88,0
4497,note_on,0,0,1,,,,,,,,,,,,,,,,,0,,79,0
4499,note_on,2,0,1,,,,,,,,,,,,,,,,,0,,70,57
4499,note_on,0,0,1,,,,,,,,,,,,,,,,,0,,73,74
4499,note_on,0,0,1,,,,,,,,,,,,,,,,,0,,67,57
4500,note_on,1,0,1,,,,,,,,,,,,,,,,,0,,88,49
4500,note_on,0,0,1,,,,,,,,,,,,,,,,,0,,82,44
4527,note_on,0,0,1,,,,,,,,,,,,,,,,,0,,61,0
4527,note_on,27,0,1,,,,,,,,,,,,,,,,,0,,82,0
4527,note_on,0,0,1,,,,,,,,,,,,,,,,,0,,88,0
4530,note_on,3,0,1,,,,,,,,,,,,,,,,,0,,82,50
4530,note_on,0,0,1,,,,,,,,,,,,,,,,,0,,91,32
4548,note_on,18,0,1,,,,,,,,,,,,,,,,,0,,67,0
4550,control_change,0,0,1,,,,,,,,,,,,,,,64,0,0,,,
4550,note_on,2,0,1,,,,,,,,,,,,,,,,,0,,70,0
4555,note_on,5,0,1,,,,,,,,,,,,,,,,,0,,73,0
4557,note_on,2,0,1,,,,,,,,,,,,,,,,,0,,82,0
4557,note_on,0,0,1,,,,,,,,,,,,,,,,,0,,91,0
4559,note_on,2,0,1,,,,,,,,,,,,,,,,,0,,74,72
4559,note_on,0,0,1,,,,,,,,,,,,,,,,,0,,62,55
4559,note_on,0,0,1,,,,,,,,,,,,,,,,,0,,69,55
4560,note_on,1,0,1,,,,,,,,,,,,,,,,,0,,81,48
4560,note_on,0,0,1,,,,,,,,,,,,,,,,,0,,86,51
4560,note_on,0,0,1,,,,,,,,,,,,,,,,,0,,65,55
4587,note_on,27,0,1,,,,,,,,,,,,,,,,,0,,86,0
4587,note_on,0,0,1,,,,,,,,,,,,,,,,,0,,81,0
4590,note_on,0,0,1,,,,,,,,,,,,,,,,,0,,81,45
4590,note_on,3,0,1,,,,,,,,,,,,,,,,,0,,89,45
4608,note_on,18,0,1,,,,,,,,,,,,,,,,,0,,62,0
4608,note_on,0,0,1,,,,,,,,,,,,,,,,,0,,65,0
4609,note_on,1,0,1,,,,,,,,,,,,,,,,,0,,69,0
4611,note_on,2,0,1,,,,,,,,,,,,,,,,,0,,74,0
4617,note_on,6,0,1,,,,,,,,,,,,,,,,,0,,81,0
4617,note_on,0,0,1,,,,,,,,,,,,,,,,,0,,89,0
4619,control_change,2,0,1,,,,,,,,,,,,,,,64,127,0,,,
4620,note_on,0,0,1,,,,,,,,,,,,,,,,,0,,73,70
4620,note_on,0,0,1,,,,,,,,,,,,,,,,,0,,79,47
4620,note_on,1,0,1,,,,,,,,,,,,,,,,,0,,81,54
4621,note_on,1,0,1,,,,,,,,,,,,,,,,,0,,69,55
4621,note_on,0,0,1,,,,,,,,,,,,,,,,,0,,64,55
4621,note_on,0,0,1,,,,,,,,,,,,,,,,,0,,67,55
4647,note_on,26,0,1,,,,,,,,,,,,,,,,,0,,79,0
4647,note_on,0,0,1,,,,,,,,,,,,,,,,,0,,81,0
4650,note_on,3,0,1,,,,,,,,,,,,,,,,,0,,79,48
4650,note_on,0,0,1,,,,,,,,,,,,,,,,,0,,88,51
4663,note_on,13,0,1,,,,,,,,,,,,,,,,,0,,64,0
4664,note_on,1,0,1,,,,,,,,,,,,,,,,,0,,69,0
4664,note_on,0,0,1,,,,,,,,,,,,,,,,,0,,67,0
4668,note_on,4,0,1,,,,,,,,,,,,,,,,,0,,73,0
4677,note_on,0,0,1,,,,,,,,,,,,,,,,,0,,88,0
4677,note_on,9,0,1,,,,,,,,,,,,,,,,,0,,79,0
4680,note_on,0,0,1,,,,,,,,,,,,,,,,,0,,81,51
4680,note_on,3,0,1,,,,,,,,,,,,,,,,,0,,79,45
4681,note_on,1,0,1,,,,,,,,,,,,,,,,,0,,73,74
4681,note_on,0,0,1,,,,,,,,,,,,,,,,,0,,67,57
4681,note_on,0,0,1,,,,,,,,,,,,,,,,,0,,64,57
4681,note_on,0,0,1,,,,,,,,,,,,,,,,,0,,69,57
4705,note_on,24,0,1,,,,,,,,,,,,,,,,,0,,64,0
4707,note_on,2,0,1,,,,,,,,,,,,,,,,,0,,81,0
4707,note_on,0,0,1,,,,,,,,,,,,,,,,,0,,79,0
4710,note_on,3,0,1,,,,,,,,,,,,,,,,,0,,79,49
4710,note_on,0,0,1,,,,,,,,,,,,,,,,,0,,88,51
4717,note_on,7,0,1,,,,,,,,,,,,,,,,,0,,67,0
4717,note_on,0,0,1,,,,,,,,,,,,,,,,,0,,69,0
4720,note_on,3,0,1,,,,,,,,,,,,,,,,,0,,73,0
4737,note_on,17,0,1,,,,,,,,,,,,,,,,,0,,88,0
4737,note_on,0,0,1,,,,,,,,,,,,,,,,,0,,79,0
4738,control_change,1,0,1,,,,,,,,,,,,,,,64,0,0,,,
4740,note_on,2,0,1,,,,,,,,,,,,,,,,,0,,81,51
4740,note_on,0,0,1,,,,,,,,,,,,,,,,,0,,77,36
4741,note_on,1,0,1,,,,,,,,,,,,,,,,,0,,69,63
4741,note_on,0,0,1,,,,,,,,,,,,,,,,,0,,74,72
4741,note_on,0,0,1,,,,,,,,,,,,,,,,,0,,65,63
4767,note_on,26,0,1,,,,,,,,,,,,,,,,,0,,77,0
4767,note_on,0,0,1,,,,,,,,,,,,,,,,,0,,81,0
4770,note_on,3,0,1,,,,,,,,,,,,,,,,,0,,77,47
4770,note_on,0,0,1,,,,,,,,,,,,,,,,,0,,86,42
4775,note_on,5,0,1,,,,,,,,,,,,,,,,,0,,74,0
4776,note_on,1,0,1,,,,,,,,,,,,,,,,,0,,65,0
4779,note_on,3,0,1,,,,,,,,,,,,,,,,,0,,69,0
4797,note_on,18,0,1,,,,,,,,,,,,,,,,,0,,77,0
4797,note_on,0,0,1,,,,,,,,,,,,,,,,,0,,86,0
4800,note_on,3,0,1,,,,,,,,,,,,,,,,,0,,81,56
4800,note_on,0,0,1,,,,,,,,,,,,,,,,,0,,75,50
4801,note_on,1,0,1,,,,,,,,,,,,,,,,,0,,69,59
4801,note_on,0,0,1,,,,,,,,,,,,,,,,,0,,66,71
4827,note_on,26,0,1,,,,,,,,,,,,,,,,,0,,75,0
4827,note_on,0,0,1,,,,,,,,,,,,,,,,,0,,81,0
4830,note_on,3,0,1,,,,,,,,,,,,,,,,,0,,75,45
4830,note_on,0,0,1,,,,,,,,,,,,,,,,,0,,84,55
4857,note_on,27,0,1,,,,,,,,,,,,,,,,,0,,84,0
4857,note_on,0,0,1,,,,,,,,,,,,,,,,,0,,75,0
4860,note_on,0,0,1,,,,,,,,,,,,,,,,,0,,79,45
4860,note_on,3,0,1,,,,,,,,,,,,,,,,,0,,76,40
4861,note_on,1,0,1,,,,,,,,,,,,,,,,,0,,67,70
4866,note_on,5,0,1,,,,,,,,,,,,,,,,,0,,69,0
4868,control_change,0,0,1,,,,,,,,,,,,,,,64,127,0,,,
4868,note_on,2,0,1,,,,,,,,,,,,,,,,,0,,66,0
4887,note_on,0,0,1,,,,,,,,,,,,,,,,,0,,76,0
4887,note_on,19,0,1,,,,,,,,,,,,,,,,,0,,79,0
4890,note_on,3,0,1,,,,,,,,,,,,,,,,,0,,76,45
4890,note_on,0,0,1,,,,,,,,,,,,,,,,,0,,84,47
4917,note_on,27,0,1,,,,,,,,,,,,,,,,,0,,84,0
4917,note_on,0,0,1,,,,,,,,,,,,,,,,,0,,76,0
4920,note_on,3,0,1,,,,,,,,,,,,,,,,,0,,78,50
4920,note_on,0,0,1,,,,,,,,,,,,,,,,,0,,75,39
4921,note_on,1,0,1,,,,,,,,,,,,,,,,,0,,55,65
4922,control_change,1,0,1,,,,,,,,,,,,,,,64,0,0,,,
4930,note_on,8,0,1,,,,,,,,,,,,,,,,,0,,67,0
4947,note_on,0,0,1,,,,,,,,,,,,,,,,,0,,75,0
4947,note_on,17,0,1,,,,,,,,,,,,,,,,,0,,78,0
4950,note_on,3,0,1,,,,,,,,,,,,,,,,,0,,75,50
4950,note_on,0,0,1,,,,,,,,,,,,,,,,,0,,84,51
4977,note_on,27,0,1,,,,,,,,,,,,,,,,,0,,84,0
4977,note_on,0,0,1,,,,,,,,,,,,,,,,,0,,75,0
4978,note_on,1,0,1,,,,,,,,,,,,,,,,,0,,55,0
4979,note_on,1,0,1,,,,,,,,,,,,,,,,,0,,67,68
4980,note_on,1,0,1,,,,,,,,,,,,,,,,,0,,74,45
4980,note_on,0,0,1,,,,,,,,,,,,,,,,,0,,77,51
4994,note_on,14,0,1,,,,,,,,,,,,,,,,,0,,67,0
5007,note_on,13,0,1,,,,,,,,,,,,,,,,,0,,77,0
5007,note_on,0,0,1,,,,,,,,,,,,,,,,,0,,74,0
5010,note_on,3,0,1,,,,,,,,,,,,,,,,,0,,83,54
5010,note_on,0,0,1,,,,,,,,,,,,,,,,,0,,74,44
5028,note_on,18,0,1,,,,,,,,,,,,,,,,,0,,48,65
5035,control_change,7,0,1,,,,,,,,,,,,,,,64,127,0,,,
5037,note_on,0,0,1,,,,,,,,,,,,,,,,,0,,83,0
5037,note_on,2,0,1,,,,,,,,,,,,,,,,,0,,74,0
5040,note_on,3,0,1,,,,,,,,,,,,,,,,,0,,76,44
5040,note_on,0,0,1,,,,,,,,,,,,,,,,,0,,79,56
5040,note_on,0,0,1,,,,,,,,,,,,,,,,,0,,60,69
5045,note_on,5,0,1,,,,,,,,,,,,,,,,,0,,48,0
5067,note_on,22,0,1,,,,,,,,,,,,,,,,,0,,76,0
5067,note_on,0,0,1,,,,,,,,,,,,,,,,,0,,79,0
5070,note_on,3,0,1,,,,,,,,,,,,,,,,,0,,76,44
5070,note_on,0,0,1,,,,,,,,,,,,,,,,,0,,84,54
5097,note_on,27,0,1,,,,,,,,,,,,,,,,,0,,84,0
5097,note_on,0,0,1,,,,,,,,,,,,,,,,,0,,76,0
5100,note_on,0,0,1,,,,,,,,,,,,,,,,,0,,68,70
5100,note_on,3,0,1,,,,,,,,,,,,,,,,,0,,80,48
5100,note_on,0,0,1,,,,,,,,,,,,,,,,,0,,77,32
5103,control_change,3,0,1,,,,,,,,,,,,,,,64,0,0,,,
5127,note_on,24,0,1,,,,,,,,,,,,,,,,,0,,77,0
5127,note_on,0,0,1,,,,,,,,,,,,,,,,,0,,80,0
5130,note_on,3,0,1,,,,,,,,,,,,,,,,,0,,86,60
5130,note_on,0,0,1,,,,,,,,,,,,,,,,,0,,77,46
5157,note_on,27,0,1,,,,,,,,,,,,,,,,,0,,77,0
5157,note_on,0,0,1,,,,,,,,,,,,,,,,,0,,86,0
5160,note_on,3,0,1,,,,,,,,,,,,,,,,,0,,77,51
5160,note_on,0,0,1,,,,,,,,,,,,,,,,,0,,74,46
5187,note_on,27,0,1,,,,,,,,,,,,,,,,,0,,74,0
5187,note_on,0,0,1,,,,,,,,,,,,,,,,,0,,77,0
5190,note_on,3,0,1,,,,,,,,,,,,,,,,,0,,74,47
5190,note_on,0,0,1,,,,,,,,,,,,,,,,,0,,83,51
5217,note_on,0,0,1,,,,,,,,,,,,,,,,,0,,74,0
5217,note_on,27,0,1,,,,,,,,,,,,,,,,,0,,83,0
5218,note_on,1,0,1,,,,,,,,,,,,,,,,,0,,68,0
5219,note_on,1,0,1,,,,,,,,,,,,,,,,,0,,67,56
5220,note_on,1,0,1,,,,,,,,,,,,,,,,,0,,74,55
5220,note_on,0,0,1,,,,,,,,,,,,,,,,,0,,71,36
5247,note_on,27,0,1,,,,,,,,,,,,,,,,,0,,71,0
5247,note_on,0,0,1,,,,,,,,,,,,,,,,,0,,74,0
5250,note_on,3,0,1,,,,,,,,,,,,,,,,,0,,79,54
5250,note_on,0,0,1,,,,,,,,,,,,,,,,,0,,71,45
5277,note_on,27,0,1,,,,,,,,,,,,,,,,,0,,71,0
5277,note_on,0,0,1,,,,,,,,,,,,,,,,,0,,79,0
5279,note_on,2,0,1,,,,,,,,,,,,,,,,,0,,66,58
5280,note_on,1,0,1,,,,,,,,,,,,,,,,,0,,72,47
5280,note_on,0,0,1,,,,,,,,,,,,,,,,,0,,75,56
5285,note_on,5,0,1,,,,,,,,,,,,,,,,,0,,67,0
5307,note_on,22,0,1,,,,,,,,,,,,,,,,,0,,72,0
5307,note_on,0,0,1,,,,,,,,,,,,,,,,,0,,75,0
5310,note_on,0,0,1,,,,,,,,,,,,,,,,,0,,81,56
5310,note_on,3,0,1,,,,,,,,,,,,,,,,,0,,72,45
5334,note_on,24,0,1,,,,,,,,,,,,,,,,,0,,66,0
5337,note_on,3,0,1,,,,,,,,,,,,,,,,,0,,81,0
5337,note_on,0,0,1,,,,,,,,,,,,,,,,,0,,72,0
5339,note_on,2,0,1,,,,,,,,,,,,,,,,,0,,65,56
5340,note_on,1,0,1,,,,,,,,,,,,,,,,,0,,80,56
5340,note_on,0,0,1,,,,,,,,,,,,,,,,,0,,74,47
5367,note_on,27,0,1,,,,,,,,,,,,,,,,,0,,74,0
5367,note_on,0,0,1,,,,,,,,,,,,,,,,,0,,80,0
5370,note_on,3,0,1,,,,,,,,,,,,,,,,,0,,60,0
5370,note_on,0,0,1,,,,,,,,,,,,,,,,,0,,74,43
5370,note_on,0,0,1,,,,,,,,,,,,,,,,,0,,83,46
5372,note_on,2,0,1,,,,,,,,,,,,,,,,,0,,65,0
5397,note_on,25,0,1,,,,,,,,,,,,,,,,,0,,83,0
5397,note_on,0,0,1,,,,,,,,,,,,,,,,,0,,74,0
5399,control_change,2,0,1,,,,,,,,,,,,,,,64,127,0,,,
5400,note_on,1,0,1,,,,,,,,,,,,,,,,,0,,79,45
5400,note_on,0,0,1,,,,,,,,,,,,,,,,,0,,76,39
5401,note_on,1,0,1,,,,,,,,,,,,,,,,,0,,48,62
5427,note_on,26,0,1,,,,,,,,,,,,,,,,,0,,76,0
5427,note_on,0,0,1,,,,,,,,,,,,,,,,,0,,79,0
5429,note_on,2,0,1,,,,,,,,,,,,,,,,,0,,48,0
5430,note_on,1,0,1,,,,,,,,,,,,,,,,,0,,76,47
5430,note_on,0,0,1,,,,,,,,,,,,,,,,,0,,84,50
5457,note_on,27,0,1,,,,,,,,,,,,,,,,,0,,84,0
5457,note_on,0,0,1,,,,,,,,,,,,,,,,,0,,76,0
5460,note_on,3,0,1,,,,,,,,,,,,,,,,,0,,80,54
5460,note_on,0,0,1,,,,,,,,,,,,,,,,,0,,77,35
5460,note_on,0,0,1,,,,,,,,,,,,,,,,,0,,60,62
5465,control_change,5,0,1,,,,,,,,,,,,,,,64,0,0,,,
5487,note_on,22,0,1,,,,,,,,,,,,,,,,,0,,77,0
5487,note_on,0,0,1,,,,,,,,,,,,,,,,,0,,80,0
5490,note_on,3,0,1,,,,,,,,,,,,,,,,,0,,86,62
5490,note_on,0,0,1,,,,,,,,,,,,,,,,,0,,77,49
5517,note_on,27,0,1,,,,,,,,,,,,,,,,,0,,77,0
5517,note_on,0,0,1,,,,,,,,,,,,,,,,,0,,86,0
5520,note_on,3,0,1,,,,,,,,,,,,,,,,,0,,77,50
5520,note_on,0,0,1,,,,,,,,,,,,,,,,,0,,74,41
5521,note_on,1,0,1,,,,,,,,,,,,,,,,,0,,68,68
5547,note_on,26,0,1,,,,,,,,,,,,,,,,,0,,74,0
5547,note_on,0,0,1,,,,,,,,,,,,,,,,,0,,77,0
5550,note_on,3,0,1,,,,,,,,,,,,,,,,,0,,74,39
5550,note_on,0,0,1,,,,,,,,,,,,,,,,,0,,83,48
5577,note_on,0,0,1,,,,,,,,,,,,,,,,,0,,74,0
5577,note_on,27,0,1,,,,,,,,,,,,,,,,,0,,83,0
5579,note_on,2,0,1,,,,,,,,,,,,,,,,,0,,67,65
5580,note_on,1,0,1,,,,,,,,,,,,,,,,,0,,71,34
5580,note_on,0,0,1,,,,,,,,,,,,,,,,,0,,74,43
5581,note_on,1,0,1,,,,,,,,,,,,,,,,,0,,68,0
5607,note_on,0,0,1,,,,,,,,,,,,,,,,,0,,74,0
5607,note_on,26,0,1,,,,,,,,,,,,,,,,,0,,71,0
5610,note_on,0,0,1,,,,,,,,,,,,,,,,,0,,79,41
5610,note_on,3,0,1,,,,,,,,,,,,,,,,,0,,71,39
5637,note_on,27,0,1,,,,,,,,,,,,,,,,,0,,79,0
5637,note_on,0,0,1,,,,,,,,,,,,,,,,,0,,71,0
5640,note_on,3,0,1,,,,,,,,,,,,,,,,,0,,75,48
5640,note_on,0,0,1,,,,,,,,,,,,,,,,,0,,72,41
5640,note_on,0,0,1,,,,,,,,,,,,,,,,,0,,66,63
5646,note_on,6,0,1,,,,,,,,,,,,,,,,,0,,67,0
5667,note_on,21,0,1,,,,,,,,,,,,,,,,,0,,72,0
5667,note_on,0,0,1,,,,,,,,,,,,,,,,,0,,75,0
5670,note_on,3,0,1,,,,,,,,,,,,,,,,,0,,81,48
5670,note_on,0,0,1,,,,,,,,,,,,,,,,,0,,72,37
5692,note_on,22,0,1,,,,,,,,,,,,,,,,,0,,66,0
5697,note_on,5,0,1,,,,,,,,,,,,,,,,,0,,72,0
5697,note_on,0,0,1,,,,,,,,,,,,,,,,,0,,81,0
5699,note_on,2,0,1,,,,,,,,,,,,,,,,,0,,65,65
5700,note_on,1,0,1,,,,,,,,,,,,,,,,,0,,74,46
5700,note_on,0,0,1,,,,,,,,,,,,,,,,,0,,80,56
5727,note_on,27,0,1,,,,,,,,,,,,,,,,,0,,80,0
5727,note_on,0,0,1,,,,,,,,,,,,,,,,,0,,74,0
5727,note_on,0,0,1,,,,,,,,,,,,,,,,,0,,60,0
5730,note_on,0,0,1,,,,,,,,,,,,,,,,,0,,74,36
5730,note_on,3,0,1,,,,,,,,,,,,,,,,,0,,83,50
5757,note_on,27,0,1,,,,,,,,,,,,,,,,,0,,74,0
5757,note_on,0,0,1,,,,,,,,,,,,,,,,,0,,83,0
5759,note_on,2,0,1,,,,,,,,,,,,,,,,,0,,64,62
5760,note_on,1,0,1,,,,,,,,,,,,,,,,,0,,76,43
5760,note_on,0,0,1,,,,,,,,,,,,,,,,,0,,79,50
5766,note_on,6,0,1,,,,,,,,,,,,,,,,,0,,65,0
5767,control_change,1,0,1,,,,,,,,,,,,,,,64,127,0,,,
5787,note_on,20,0,1,,,,,,,,,,,,,,,,,0,,79,0
5787,note_on,0,0,1,,,,,,,,,,,,,,,,,0,,76,0
5790,note_on,3,0,1,,,,,,,,,,,,,,,,,0,,76,40
5790,note_on,0,0,1,,,,,,,,,,,,,,,,,0,,84,44
5817,note_on,27,0,1,,,,,,,,,,,,,,,,,0,,84,0
5817,note_on,0,0,1,,,,,,,,,,,,,,,,,0,,76,0
5819,note_on,2,0,1,,,,,,,,,,,,,,,,,0,,60,66
5820,note_on,1,0,1,,,,,,,,,,,,,,,,,0,,82,56
5820,note_on,0,0,1,,,,,,,,,,,,,,,,,0,,79,39
5832,note_on,12,0,1,,,,,,,,,,,,,,,,,0,,64,0
5834,control_change,2,0,1,,,,,,,,,,,,,,,64,0,0,,,
5847,note_on,13,0,1,,,,,,,,,,,,,,,,,0,,79,0
5847,note_on,0,0,1,,,,,,,,,,,,,,,,,0,,82,0
5850,note_on,3,0,1,,,,,,,,,,,,,,,,,0,,79,49
5850,note_on,0,0,1,,,,,,,,,,,,,,,,,0,,88,50
5877,note_on,0,0,1,,,,,,,,,,,,,,,,,0,,79,0
5877,note_on,27,0,1,,,,,,,,,,,,,,,,,0,,88,0
5879,note_on,2,0,1,,,,,,,,,,,,,,,,,0,,59,67
5880,note_on,0,0,1,,,,,,,,,,,,,,,,,0,,79,43
5880,note_on,1,0,1,,,,,,,,,,,,,,,,,0,,60,0
5880,note_on,0,0,1,,,,,,,,,,,,,,,,,0,,83,51
5907,note_on,0,0,1,,,,,,,,,,,,,,,,,0,,79,0
5907,note_on,27,0,1,,,,,,,,,,,,,,,,,0,,83,0
5910,note_on,3,0,1,,,,,,,,,,,,,,,,,0,,79,45
5910,note_on,0,0,1,,,,,,,,,,,,,,,,,0,,88,51
5937,note_on,27,0,1,,,,,,,,,,,,,,,,,0,,88,0
5937,note_on,0,0,1,,,,,,,,,,,,,,,,,0,,79,0
5939,note_on,2,0,1,,,,,,,,,,,,,,,,,0,,58,70
5940,note_on,1,0,1,,,,,,,,,,,,,,,,,0,,85,53
5940,note_on,0,0,1,,,,,,,,,,,,,,,,,0,,79,48
5943,note_on,3,0,1,,,,,,,,,,,,,,,,,0,,59,0
5950,control_change,7,0,1,,,,,,,,,,,,,,,64,127,0,,,
5967,note_on,17,0,1,,,,,,,,,,,,,,,,,0,,79,0
5967,note_on,0,0,1,,,,,,,,,,,,,,,,,0,,85,0
5970,note_on,3,0,1,,,,,,,,,,,,,,,,,0,,88,47
5970,note_on,0,0,1,,,,,,,,,,,,,,,,,0,,79,36
5997,note_on,0,0,1,,,,,,,,,,,,,,,,,0,,58,0
5997,note_on,27,0,1,,,,,,,,,,,,,,,,,0,,79,0
5997,note_on,0,0,1,,,,,,,,,,,,,,,,,0,,88,0
5999,note_on,2,0,1,,,,,,,,,,,,,,,,,0,,59,70
6000,note_on,0,0,1,,,,,,,,,,,,,,,,,0,,83,47
6000,note_on,1,0,1,,,,,,,,,,,,,,,,,0,,88,60
6018,control_change,18,0,1,,,,,,,,,,,,,,,64,0,0,,,
6027,note_on,9,0,1,,,,,,,,,,,,,,,,,0,,83,0
6027,note_on,0,0,1,,,,,,,,,,,,,,,,,0,,88,0
6030,note_on,3,0,1,,,,,,,,,,,,,,,,,0,,83,47
6030,note_on,0,0,1,,,,,,,,,,,,,,,,,0,,91,51
6057,note_on,27,0,1,,,,,,,,,,,,,,,,,0,,91,0
6057,note_on,0,0,1,,,,,,,,,,,,,,,,,0,,83,0
6060,note_on,3,0,1,,,,,,,,,,,,,,,,,0,,81,45
6060,note_on,0,0,1,,,,,,,,,,,,,,,,,0,,83,57
6061,note_on,1,0,1,,,,,,,,,,,,,,,,,0,,47,69
6074,note_on,13,0,1,,,,,,,,,,,,,,,,,0,,59,0
6087,note_on,0,0,1,,,,,,,,,,,,,,,,,0,,83,0
6087,note_on,13,0,1,,,,,,,,,,,,,,,,,0,,81,0
6090,note_on,0,0,1,,,,,,,,,,,,,,,,,0,,90,56
6090,note_on,3,0,1,,,,,,,,,,,,,,,,,0,,81,51
6117,note_on,27,0,1,,,,,,,,,,,,,,,,,0,,90,0
6117,note_on,0,0,1,,,,,,,,,,,,,,,,,0,,81,0
6117,note_on,0,0,1,,,,,,,,,,,,,,,,,0,,47,0
6117,control_change,0,0,1,,,,,,,,,,,,,,,64,127,0,,,
6119,note_on,2,0,1,,,,,,,,,,,,,,,,,0,,40,67
6120,note_on,1,0,1,,,,,,,,,,,,,,,,,0,,79,42
6120,note_on,0,0,1,,,,,,,,,,,,,,,,,0,,83,54
6139,note_on,19,0,1,,,,,,,,,,,,,,,,,0,,40,0
6147,note_on,8,0,1,,,,,,,,,,,,,,,,,0,,83,0
6147,note_on,0,0,1,,,,,,,,,,,,,,,,,0,,79,0
6150,note_on,0,0,1,,,,,,,,,,,,,,,,,0,,88,52
6150,note_on,3,0,1,,,,,,,,,,,,,,,,,0,,79,49
6177,note_on,0,0,1,,,,,,,,,,,,,,,,,0,,79,0
6177,note_on,27,0,1,,,,,,,,,,,,,,,,,0,,88,0
6179,note_on,2,0,1,,,,,,,,,,,,,,,,,0,,55,65
6180,note_on,0,0,1,,,,,,,,,,,,,,,,,0,,83,58
6180,note_on,1,0,1,,,,,,,,,,,,,,,,,0,,79,50
6207,note_on,27,0,1,,,,,,,,,,,,,,,,,0,,83,0
6207,note_on,0,0,1,,,,,,,,,,,,,,,,,0,,79,0
6210,note_on,3,0,1,,,,,,,,,,,,,,,,,0,,79,54
6210,note_on,0,0,1,,,,,,,,,,,,,,,,,0,,88,50
6237,note_on,27,0,1,,,,,,,,,,,,,,,,,0,,88,0
6237,note_on,0,0,1,,,,,,,,,,,,,,,,,0,,79,0
6239,note_on,2,0,1,,,,,,,,,,,,,,,,,0,,52,62
6240,note_on,1,0,1,,,,,,,,,,,,,,,,,0,,79,47
6240,note_on,0,0,1,,,,,,,,,,,,,,,,,0,,83,55
6242,note_on,2,0,1,,,,,,,,,,,,,,,,,0,,55,0
6267,note_on,0,0,1,,,,,,,,,,,,,,,,,0,,79,0
6267,note_on,25,0,1,,,,,,,,,,,,,,,,,0,,83,0
6270,note_on,3,0,1,,,,,,,,,,,,,,,,,0,,88,51
6270,note_on,0,0,1,,,,,,,,,,,,,,,,,0,,79,46
6286,note_on,16,0,1,,,,,,,,,,,,,,,,,0,,52,0
6297,note_on,11,0,1,,,,,,,,,,,,,,,,,0,,79,0
6297,note_on,0,0,1,,,,,,,,,,,,,,,,,0,,88,0
6300,note_on,3,0,1,,,,,,,,,,,,,,,,,0,,79,45
6300,note_on,0,0,1,,,,,,,,,,,,,,,,,0,,83,58
6301,note_on,1,0,1,,,,,,,,,,,,,,,,,0,,67,62
6327,note_on,26,0,1,,,,,,,,,,,,,,,,,0,,83,0
6327,note_on,0,0,1,,,,,,,,,,,,,,,,,0,,79,0
6330,note_on,3,0,1,,,,,,,,,,,,,,,,,0,,79,45
6330,note_on,0,0,1,,,,,,,,,,,,,,,,,0,,88,38
6357,note_on,0,0,1,,,,,,,,,,,,,,,,,0,,79,0
6357,note_on,27,0,1,,,,,,,,,,,,,,,,,0,,88,0
6360,note_on,3,0,1,,,,,,,,,,,,,,,,,0,,79,43
6360,note_on,0,0,1,,,,,,,,,,,,,,,,,0,,83,55
6387,note_on,27,0,1,,,,,,,,,,,,,,,,,0,,83,0
6387,note_on,0,0,1,,,,,,,,,,,,,,,,,0,,79,0
6390,note_on,3,0,1,,,,,,,,,,,,,,,,,0,,79,45
6390,note_on,0,0,1,,,,,,,,,,,,,,,,,0,,88,37
6417,note_on,0,0,1,,,,,,,,,,,,,,,,,0,,79,0
6417,note_on,0,0,1,,,,,,,,,,,,,,,,,0,,67,0
6417,note_on,27,0,1,,,,,,,,,,,,,,,,,0,,88,0
6419,note_on,2,0,1,,,,,,,,,,,,,,,,,0,,62,56
6420,note_on,1,0,1,,,,,,,,,,,,,,,,,0,,82,53
6420,note_on,0,0,1,,,,,,,,,,,,,,,,,0,,79,44
6447,note_on,27,0,1,,,,,,,,,,,,,,,,,0,,79,0
6447,note_on,0,0,1,,,,,,,,,,,,,,,,,0,,82,0
6450,note_on,0,0,1,,,,,,,,,,,,,,,,,0,,88,42
6450,note_on,3,0,1,,,,,,,,,,,,,,,,,0,,79,45
6459,note_on,9,0,1,,,,,,,,,,,,,,,,,0,,62,0
6463,control_change,4,0,1,,,,,,,,,,,,,,,64,0,0,,,
6476,control_change,13,0,1,,,,,,,,,,,,,,,64,127,0,,,
6477,note_on,1,0,1,,,,,,,,,,,,,,,,,0,,88,0
6477,note_on,0,0,1,,,,,,,,,,,,,,,,,0,,79,0
6480,note_on,3,0,1,,,,,,,,,,,,,,,,,0,,79,47
6480,note_on,0,0,1,,,,,,,,,,,,,,,,,0,,81,51
6481,note_on,1,0,1,,,,,,,,,,,,,,,,,0,,45,68
6493,note_on,12,0,1,,,,,,,,,,,,,,,,,0,,45,0
6507,note_on,0,0,1,,,,,,,,,,,,,,,,,0,,79,0
6507,note_on,14,0,1,,,,,,,,,,,,,,,,,0,,81,0
6510,note_on,3,0,1,,,,,,,,,,,,,,,,,0,,79,42
6510,note_on,0,0,1,,,,,,,,,,,,,,,,,0,,88,47
6537,note_on,0,0,1,,,,,,,,,,,,,,,,,0,,79,0
6537,note_on,27,0,1,,,,,,,,,,,,,,,,,0,,88,0
6540,note_on,3,0,1,,,,,,,,,,,,,,,,,0,,79,45
6540,note_on,0,0,1,,,,,,,,,,,,,,,,,0,,81,50
6541,note_on,1,0,1,,,,,,,,,,,,,,,,,0,,61,69
6567,note_on,26,0,1,,,,,,,,,,,,,,,,,0,,81,0
6567,note_on,0,0,1,,,,,,,,,,,,,,,,,0,,79,0
6568,note_on,1,0,1,,,,,,,,,,,,,,,,,0,,61,0
6569,note_on,1,0,1,,,,,,,,,,,,,,,,,0,,52,68
6570,note_on,1,0,1,,,,,,,,,,,,,,,,,0,,79,51
6570,note_on,0,0,1,,,,,,,,,,,,,,,,,0,,88,50
6597,note_on,27,0,1,,,,,,,,,,,,,,,,,0,,88,0
6597,note_on,0,0,1,,,,,,,,,,,,,,,,,0,,79,0
6599,note_on,2,0,1,,,,,,,,,,,,,,,,,0,,45,68
6600,note_on,1,0,1,,,,,,,,,,,,,,,,,0,,79,43
6600,note_on,0,0,1,,,,,,,,,,,,,,,,,0,,81,46
6601,note_on,1,0,1,,,,,,,,,,,,,,,,,0,,52,0
6620,control_change,19,0,1,,,,,,,,,,,,,,,64,0,0,,,
6627,note_on,7,0,1,,,,,,,,,,,,,,,,,0,,81,0
6627,note_on,0,0,1,,,,,,,,,,,,,,,,,0,,79,0
6630,note_on,3,0,1,,,,,,,,,,,,,,,,,0,,79,45
6630,note_on,0,0,1,,,,,,,,,,,,,,,,,0,,88,45
6632,note_on,2,0,1,,,,,,,,,,,,,,,,,0,,45,0
6652,control_change,20,0,1,,,,,,,,,,,,,,,64,127,0,,,
6657,note_on,0,0,1,,,,,,,,,,,,,,,,,0,,79,0
6657,note_on,5,0,1,,,,,,,,,,,,,,,,,0,,88,0
6660,note_on,3,0,1,,,,,,,,,,,,,,,,,0,,79,41
6660,note_on,0,0,1,,,,,,,,,,,,,,,,,0,,81,50
6661,note_on,1,0,1,,,,,,,,,,,,,,,,,0,,33,74
6668,note_on,7,0,1,,,,,,,,,,,,,,,,,0,,33,0
6687,note_on,0,0,1,,,,,,,,,,,,,,,,,0,,79,0
6687,note_on,19,0,1,,,,,,,,,,,,,,,,,0,,81,0
6690,note_on,0,0,1,,,,,,,,,,,,,,,,,0,,88,48
6690,note_on,3,0,1,,,,,,,,,,,,,,,,,0,,79,45
6717,note_on,0,0,1,,,,,,,,,,,,,,,,,0,,79,0
6717,note_on,27,0,1,,,,,,,,,,,,,,,,,0,,88,0
6719,note_on,2,0,1,,,,,,,,,,,,,,,,,0,,61,68
6720,note_on,0,0,1,,,,,,,,,,,,,,,,,0,,79,45
6720,note_on,1,0,1,,,,,,,,,,,,,,,,,0,,81,54
6747,note_on,0,0,1,,,,,,,,,,,,,,,,,0,,81,0
6747,note_on,27,0,1,,,,,,,,,,,,,,,,,0,,79,0
6747,note_on,0,0,1,,,,,,,,,,,,,,,,,0,,61,0
6749,note_on,2,0,1,,,,,,,,,,,,,,,,,0,,52,71
6750,note_on,1,0,1,,,,,,,,,,,,,,,,,0,,79,44
6750,note_on,0,0,1,,,,,,,,,,,,,,,,,0,,89,45
6777,note_on,27,0,1,,,,,,,,,,,,,,,,,0,,89,0
6777,note_on,0,0,1,,,,,,,,,,,,,,,,,0,,79,0
6779,note_on,2,0,1,,,,,,,,,,,,,,,,,0,,45,72
6780,note_on,0,0,1,,,,,,,,,,,,,,,,,0,,79,40
6780,note_on,1,0,1,,,,,,,,,,,,,,,,,0,,81,58
6782,note_on,2,0,1,,,,,,,,,,,,,,,,,0,,52,0
6805,note_on,23,0,1,,,,,,,,,,,,,,,,,0,,45,0
6807,note_on,2,0,1,,,,,,,,,,,,,,,,,0,,81,0
6807,note_on,0,0,1,,,,,,,,,,,,,,,,,0,,79,0
6807,control_change,0,0,1,,,,,,,,,,,,,,,64,0,0,,,
6810,note_on,3,0,1,,,,,,,,,,,,,,,,,0,,79,45
6810,note_on,0,0,1,,,,,,,,,,,,,,,,,0,,88,51
6836,control_change,26,0,1,,,,,,,,,,,,,,,64,127,0,,,
6837,note_on,1,0,1,,,,,,,,,,,,,,,,,0,,88,0
6837,note_on,0,0,1,,,,,,,,,,,,,,,,,0,,79,0
6840,note_on,3,0,1,,,,,,,,,,,,,,,,,0,,79,41
6840,note_on,0,0,1,,,,,,,,,,,,,,,,,0,,81,46
6840,note_on,0,0,1,,,,,,,,,,,,,,,,,0,,38,72
6848,note_on,8,0,1,,,,,,,,,,,,,,,,,0,,38,0
6867,note_on,0,0,1,,,,,,,,,,,,,,,,,0,,79,0
6867,note_on,19,0,1,,,,,,,,,,,,,,,,,0,,81,0
6870,note_on,0,0,1,,,,,,,,,,,,,,,,,0,,88,50
6870,note_on,3,0,1,,,,,,,,,,,,,,,,,0,,79,45
6897,note_on,27,0,1,,,,,,,,,,,,,,,,,0,,88,0
6897,note_on,0,0,1,,,,,,,,,,,,,,,,,0,,79,0
6900,note_on,3,0,1,,,,,,,,,,,,,,,,,0,,81,51
6900,note_on,0,0,1,,,,,,,,,,,,,,,,,0,,76,44
6901,note_on,1,0,1,,,,,,,,,,,,,,,,,0,,69,68
6927,note_on,26,0,1,,,,,,,,,,,,,,,,,0,,76,0
6927,note_on,0,0,1,,,,,,,,,,,,,,,,,0,,81,0
6929,note_on,2,0,1,,,,,,,,,,,,,,,,,0,,57,68
6930,note_on,0,0,1,,,,,,,,,,,,,,,,,0,,76,42
6930,note_on,0,0,1,,,,,,,,,,,,,,,,,0,,85,54
6930,note_on,1,0,1,,,,,,,,,,,,,,,,,0,,69,0
6957,note_on,27,0,1,,,,,,,,,,,,,,,,,0,,76,0
6957,note_on,0,0,1,,,,,,,,,,,,,,,,,0,,85,0
6959,note_on,2,0,1,,,,,,,,,,,,,,,,,0,,50,69
6960,note_on,1,0,1,,,,,,,,,,,,,,,,,0,,57,0
6960,note_on,0,0,1,,,,,,,,,,,,,,,,,0,,81,55
6960,note_on,0,0,1,,,,,,,,,,,,,,,,,0,,77,42
6980,note_on,20,0,1,,,,,,,,,,,,,,,,,0,,50,0
6987,note_on,7,0,1,,,,,,,,,,,,,,,,,0,,77,0
6987,note_on,0,0,1,,,,,,,,,,,,,,,,,0,,81,0
6988,control_change,1,0,1,,,,,,,,,,,,,,,64,0,0,,,
6990,note_on,0,0,1,,,,,,,,,,,,,,,,,0,,86,45
6990,note_on,2,0,1,,,,,,,,,,,,,,,,,0,,77,44
7017,note_on,27,0,1,,,,,,,,,,,,,,,,,0,,86,0
7017,note_on,0,0,1,,,,,,,,,,,,,,,,,0,,77,0
7019,note_on,2,0,1,,,,,,,,,,,,,,,,,0,,65,71
7020,note_on,1,0,1,,,,,,,,,,,,,,,,,0,,81,46
7020,note_on,0,0,1,,,,,,,,,,,,,,,,,0,,77,36
7022,control_change,2,0,1,,,,,,,,,,,,,,,64,127,0,,,
7047,note_on,25,0,1,,,,,,,,,,,,,,,,,0,,77,0
7047,note_on,0,0,1,,,,,,,,,,,,,,,,,0,,81,0
7050,note_on,3,0,1,,,,,,,,,,,,,,,,,0,,77,46
7050,note_on,0,0,1,,,,,,,,,,,,,,,,,0,,86,46
7077,note_on,0,0,1,,,,,,,,,,,,,,,,,0,,77,0
7077,note_on,27,0,1,,,,,,,,,,,,,,,,,0,,86,0
7080,note_on,0,0,1,,,,,,,,,,,,,,,,,0,,81,51
7080,note_on,3,0,1,,,,,,,,,,,,,,,,,0,,77,44
7107,note_on,27,0,1,,,,,,,,,,,,,,,,,0,,81,0
7107,note_on,0,0,1,,,,,,,,,,,,,,,,,0,,77,0
7110,note_on,3,0,1,,,,,,,,,,,,,,,,,0,,77,45
7110,note_on,0,0,1,,,,,,,,,,,,,,,,,0,,86,41
7137,note_on,0,0,1,,,,,,,,,,,,,,,,,0,,77,0
7137,note_on,27,0,1,,,,,,,,,,,,,,,,,0,,86,0
7139,note_on,2,0,1,,,,,,,,,,,,,,,,,0,,60,68
7140,note_on,1,0,1,,,,,,,,,,,,,,,,,0,,80,56
7140,note_on,0,0,1,,,,,,,,,,,,,,,,,0,,77,46
7150,note_on,10,0,1,,,,,,,,,,,,,,,,,0,,65,0
7163,note_on,13,0,1,,,,,,,,,,,,,,,,,0,,60,0
7167,note_on,4,0,1,,,,,,,,,,,,,,,,,0,,80,0
7167,note_on,0,0,1,,,,,,,,,,,,,,,,,0,,77,0
7170,note_on,3,0,1,,,,,,,,,,,,,,,,,0,,86,50
7170,note_on,0,0,1,,,,,,,,,,,,,,,,,0,,77,42
7179,control_change,9,0,1,,,,,,,,,,,,,,,64,0,0,,,
7197,note_on,18,0,1,,,,,,,,,,,,,,,,,0,,77,0
7197,note_on,0,0,1,,,,,,,,,,,,,,,,,0,,86,0
7200,note_on,0,0,1,,,,,,,,,,,,,,,,,0,,77,45
7200,note_on,0,0,1,,,,,,,,,,,,,,,,,0,,43,68
7200,note_on,3,0,1,,,,,,,,,,,,,,,,,0,,79,54
7208,control_change,8,0,1,,,,,,,,,,,,,,,64,127,0,,,
7211,note_on,3,0,1,,,,,,,,,,,,,,,,,0,,43,0
7227,note_on,16,0,1,,,,,,,,,,,,,,,,,0,,77,0
7227,note_on,0,0,1,,,,,,,,,,,,,,,,,0,,79,0
7230,note_on,3,0,1,,,,,,,,,,,,,,,,,0,,77,44
7230,note_on,0,0,1,,,,,,,,,,,,,,,,,0,,86,49
7257,note_on,27,0,1,,,,,,,,,,,,,,,,,0,,86,0
7257,note_on,0,0,1,,,,,,,,,,,,,,,,,0,,77,0
7259,note_on,2,0,1,,,,,,,,,,,,,,,,,0,,59,68
7260,note_on,1,0,1,,,,,,,,,,,,,,,,,0,,79,51
7260,note_on,0,0,1,,,,,,,,,,,,,,,,,0,,77,45
7287,note_on,27,0,1,,,,,,,,,,,,,,,,,0,,77,0
7287,note_on,0,0,1,,,,,,,,,,,,,,,,,0,,79,0
7289,note_on,2,0,1,,,,,,,,,,,,,,,,,0,,50,67
7290,note_on,1,0,1,,,,,,,,,,,,,,,,,0,,77,43
7290,note_on,0,0,1,,,,,,,,,,,,,,,,,0,,86,48
7293,note_on,3,0,1,,,,,,,,,,,,,,,,,0,,59,0
7317,note_on,24,0,1,,,,,,,,,,,,,,,,,0,,86,0
7317,note_on,0,0,1,,,,,,,,,,,,,,,,,0,,77,0
7319,note_on,2,0,1,,,,,,,,,,,,,,,,,0,,43,70
7320,note_on,1,0,1,,,,,,,,,,,,,,,,,0,,79,51
7320,note_on,0,0,1,,,,,,,,,,,,,,,,,0,,77,43
7322,note_on,2,0,1,,,,,,,,,,,,,,,,,0,,50,0
7331,note_on,9,0,1,,,,,,,,,,,,,,,,,0,,43,0
7347,control_change,0,0,1,,,,,,,,,,,,,,,64,0,0,,,
7347,note_on,16,0,1,,,,,,,,,,,,,,,,,0,,79,0
7347,note_on,0,0,1,,,,,,,,,,,,,,,,,0,,77,0
7350,note_on,3,0,1,,,,,,,,,,,,,,,,,0,,77,41
7350,note_on,0,0,1,,,,,,,,,,,,,,,,,0,,86,47
7370,control_change,20,0,1,,,,,,,,,,,,,,,64,127,0,,,
7377,note_on,7,0,1,,,,,,,,,,,,,,,,,0,,86,0
7377,note_on,0,0,1,,,,,,,,,,,,,,,,,0,,77,0
7379,note_on,2,0,1,,,,,,,,,,,,,,,,,0,,31,70
7380,note_on,1,0,1,,,,,,,,,,,,,,,,,0,,79,50
7380,note_on,0,0,1,,,,,,,,,,,,,,,,,0,,77,41
7388,note_on,8,0,1,,,,,,,,,,,,,,,,,0,,31,0
7407,note_on,19,0,1,,,,,,,,,,,,,,,,,0,,77,0
7407,note_on,0,0,1,,,,,,,,,,,,,,,,,0,,79,0
7410,note_on,0,0,1,,,,,,,,,,,,,,,,,0,,86,45
7410,note_on,3,0,1,,,,,,,,,,,,,,,,,0,,77,40
7437,note_on,27,0,1,,,,,,,,,,,,,,,,,0,,86,0
7437,note_on,0,0,1,,,,,,,,,,,,,,,,,0,,77,0
7440,note_on,3,0,1,,,,,,,,,,,,,,,,,0,,79,51
7440,note_on,0,0,1,,,,,,,,,,,,,,,,,0,,77,42
7441,note_on,1,0,1,,,,,,,,,,,,,,,,,0,,59,69
7467,note_on,26,0,1,,,,,,,,,,,,,,,,,0,,77,0
7467,note_on,0,0,1,,,,,,,,,,,,,,,,,0,,79,0
7470,note_on,3,0,1,,,,,,,,,,,,,,,,,0,,88,57
7470,note_on,0,0,1,,,,,,,,,,,,,,,,,0,,77,48
7471,note_on,1,0,1,,,,,,,,,,,,,,,,,0,,59,0
7471,note_on,0,0,1,,,,,,,,,,,,,,,,,0,,50,71
7497,note_on,26,0,1,,,,,,,,,,,,,,,,,0,,77,0
7497,note_on,0,0,1,,,,,,,,,,,,,,,,,0,,88,0
7500,note_on,0,0,1,,,,,,,,,,,,,,,,,0,,43,71
7500,note_on,0,0,1,,,,,,,,,,,,,,,,,0,,77,37
7500,note_on,3,0,1,,,,,,,,,,,,,,,,,0,,79,42
7505,note_on,5,0,1,,,,,,,,,,,,,,,,,0,,50,0
7516,note_on,11,0,1,,,,,,,,,,,,,,,,,0,,43,0
7527,note_on,11,0,1,,,,,,,,,,,,,,,,,0,,77,0
7527,note_on,0,0,1,,,,,,,,,,,,,,,,,0,,79,0
7528,control_change,1,0,1,,,,,,,,,,,,,,,64,0,0,,,
7530,note_on,2,0,1,,,,,,,,,,,,,,,,,0,,77,47
7530,note_on,0,0,1,,,,,,,,,,,,,,,,,0,,86,47
7553,control_change,23,0,1,,,,,,,,,,,,,,,64,127,0,,,
7557,note_on,4,0,1,,,,,,,,,,,,,,,,,0,,86,0
7557,note_on,0,0,1,,,,,,,,,,,,,,,,,0,,77,0
7559,note_on,2,0,1,,,,,,,,,,,,,,,,,0,,36,69
7560,note_on,0,0,1,,,,,,,,,,,,,,,,,0,,77,42
7560,note_on,1,0,1,,,,,,,,,,,,,,,,,0,,79,48
7572,note_on,12,0,1,,,,,,,,,,,,,,,,,0,,36,0
7587,note_on,15,0,1,,,,,,,,,,,,,,,,,0,,77,0
7587,note_on,0,0,1,,,,,,,,,,,,,,,,,0,,79,0
7590,note_on,0,0,1,,,,,,,,,,,,,,,,,0,,86,45
7590,note_on,3,0,1,,,,,,,,,,,,,,,,,0,,77,43
7617,note_on,27,0,1,,,,,,,,,,,,,,,,,0,,86,0
7617,note_on,0,0,1,,,,,,,,,,,,,,,,,0,,77,0
7619,note_on,2,0,1,,,,,,,,,,,,,,,,,0,,67,69
7620,note_on,1,0,1,,,,,,,,,,,,,,,,,0,,79,52
7620,note_on,0,0,1,,,,,,,,,,,,,,,,,0,,74,45
7647,note_on,27,0,1,,,,,,,,,,,,,,,,,0,,74,0
7647,note_on,0,0,1,,,,,,,,,,,,,,,,,0,,79,0
7647,note_on,0,0,1,,,,,,,,,,,,,,,,,0,,67,0
7649,note_on,2,0,1,,,,,,,,,,,,,,,,,0,,55,73
7650,note_on,1,0,1,,,,,,,,,,,,,,,,,0,,83,55
7650,note_on,0,0,1,,,,,,,,,,,,,,,,,0,,74,45
7677,note_on,0,0,1,,,,,,,,,,,,,,,,,0,,83,0
7677,note_on,27,0,1,,,,,,,,,,,,,,,,,0,,74,0
7679,note_on,0,0,1,,,,,,,,,,,,,,,,,0,,48,70
7679,note_on,2,0,1,,,,,,,,,,,,,,,,,0,,55,0
7680,note_on,1,0,1,,,,,,,,,,,,,,,,,0,,79,51
7680,note_on,0,0,1,,,,,,,,,,,,,,,,,0,,76,44
7695,note_on,15,0,1,,,,,,,,,,,,,,,,,0,,48,0
7703,control_change,8,0,1,,,,,,,,,,,,,,,64,0,0,,,
7707,note_on,4,0,1,,,,,,,,,,,,,,,,,0,,76,0
7707,note_on,0,0,1,,,,,,,,,,,,,,,,,0,,79,0
7710,note_on,3,0,1,,,,,,,,,,,,,,,,,0,,76,43
7710,note_on,0,0,1,,,,,,,,,,,,,,,,,0,,84,48
7737,note_on,27,0,1,,,,,,,,,,,,,,,,,0,,84,0
7737,note_on,0,0,1,,,,,,,,,,,,,,,,,0,,76,0
7738,control_change,1,0,1,,,,,,,,,,,,,,,64,127,0,,,
7739,note_on,1,0,1,,,,,,,,,,,,,,,,,0,,64,73
7740,note_on,1,0,1,,,,,,,,,,,,,,,,,0,,76,42
7740,note_on,0,0,1,,,,,,,,,,,,,,,,,0,,79,51
7767,note_on,27,0,1,,,,,,,,,,,,,,,,,0,,79,0
7767,note_on,0,0,1,,,,,,,,,,,,,,,,,0,,76,0
7770,note_on,3,0,1,,,,,,,,,,,,,,,,,0,,76,42
7770,note_on,0,0,1,,,,,,,,,,,,,,,,,0,,84,42
7797,note_on,27,0,1,,,,,,,,,,,,,,,,,0,,84,0
7797,note_on,0,0,1,,,,,,,,,,,,,,,,,0,,76,0
7800,note_on,0,0,1,,,,,,,,,,,,,,,,,0,,79,53
7800,note_on,3,0,1,,,,,,,,,,,,,,,,,0,,76,39
7827,note_on,27,0,1,,,,,,,,,,,,,,,,,0,,79,0
7827,note_on,0,0,1,,,,,,,,,,,,,,,,,0,,76,0
7830,note_on,3,0,1,,,,,,,,,,,,,,,,,0,,76,41
7830,note_on,0,0,1,,,,,,,,,,,,,,,,,0,,84,48
7857,note_on,27,0,1,,,,,,,,,,,,,,,,,0,,84,0
7857,note_on,0,0,1,,,,,,,,,,,,,,,,,0,,76,0
7859,note_on,2,0,1,,,,,,,,,,,,,,,,,0,,57,68
7860,note_on,1,0,1,,,,,,,,,,,,,,,,,0,,79,49
7860,note_on,0,0,1,,,,,,,,,,,,,,,,,0,,74,23
7865,note_on,5,0,1,,,,,,,,,,,,,,,,,0,,64,0
7885,control_change,20,0,1,,,,,,,,,,,,,,,64,0,0,,,
7886,note_on,1,0,1,,,,,,,,,,,,,,,,,0,,57,0
7887,note_on,0,0,1,,,,,,,,,,,,,,,,,0,,74,0
7887,note_on,1,0,1,,,,,,,,,,,,,,,,,0,,79,0
7890,note_on,3,0,1,,,,,,,,,,,,,,,,,0,,83,46
7890,note_on,0,0,1,,,,,,,,,,,,,,,,,0,,74,41
7917,note_on,27,0,1,,,,,,,,,,,,,,,,,0,,74,0
7917,note_on,0,0,1,,,,,,,,,,,,,,,,,0,,83,0
7919,note_on,2,0,1,,,,,,,,,,,,,,,,,0,,38,68
7920,note_on,1,0,1,,,,,,,,,,,,,,,,,0,,72,51
7920,note_on,0,0,1,,,,,,,,,,,,,,,,,0,,74,51
7922,control_change,2,0,1,,,,,,,,,,,,,,,64,127,0,,,
7938,note_on,16,0,1,,,,,,,,,,,,,,,,,0,,38,0
7947,note_on,0,0,1,,,,,,,,,,,,,,,,,0,,72,0
7947,note_on,9,0,1,,,,,,,,,,,,,,,,,0,,74,0
7950,note_on,3,0,1,,,,,,,,,,,,,,,,,0,,72,46
7950,note_on,0,0,1,,,,,,,,,,,,,,,,,0,,81,50
7977,note_on,27,0,1,,,,,,,,,,,,,,,,,0,,81,0
7977,note_on,0,0,1,,,,,,,,,,,,,,,,,0,,72,0
7979,note_on,2,0,1,,,,,,,,,,,,,,,,,0,,66,73
7980,note_on,1,0,1,,,,,,,,,,,,,,,,,0,,72,45
7980,note_on,0,0,1,,,,,,,,,,,,,,,,,0,,74,48
8007,note_on,27,0,1,,,,,,,,,,,,,,,,,0,,74,0
8007,note_on,0,0,1,,,,,,,,,,,,,,,,,0,,72,0
8007,note_on,0,0,1,,,,,,,,,,,,,,,,,0,,66,0
8009,note_on,2,0,1,,,,,,,,,,,,,,,,,0,,57,69
8010,note_on,0,0,1,,,,,,,,,,,,,,,,,0,,72,43
8010,note_on,1,0,1,,,,,,,,,,,,,,,,,0,,81,49
8037,note_on,0,0,1,,,,,,,,,,,,,,,,,0,,81,0
8037,note_on,27,0,1,,,,,,,,,,,,,,,,,0,,72,0
8038,note_on,1,0,1,,,,,,,,,,,,,,,,,0,,57,0
8040,note_on,0,0,1,,,,,,,,,,,,,,,,,0,,74,50
8040,note_on,0,0,1,,,,,,,,,,,,,,,,,0,,50,70
8040,note_on,2,0,1,,,,,,,,,,,,,,,,,0,,72,47
8051,note_on,11,0,1,,,,,,,,,,,,,,,,,0,,50,0
8061,control_change,10,0,1,,,,,,,,,,,,,,,64,0,0,,,
8067,note_on,0,0,1,,,,,,,,,,,,,,,,,0,,72,0
8067,note_on,6,0,1,,,,,,,,,,,,,,,,,0,,74,0
8070,note_on,3,0,1,,,,,,,,,,,,,,,,,0,,72,46
8070,note_on,0,0,1,,,,,,,,,,,,,,,,,0,,81,51
8094,control_change,24,0,1,,,,,,,,,,,,,,,64,127,0,,,
8097,note_on,3,0,1,,,,,,,,,,,,,,,,,0,,81,0
8097,note_on,0,0,1,,,,,,,,,,,,,,,,,0,,72,0
8099,note_on,2,0,1,,,,,,,,,,,,,,,,,0,,38,71
8100,note_on,1,0,1,,,,,,,,,,,,,,,,,0,,72,44
8100,note_on,0,0,1,,,,,,,,,,,,,,,,,0,,74,46
8107,note_on,7,0,1,,,,,,,,,,,,,,,,,0,,38,0
8127,note_on,20,0,1,,,,,,,,,,,,,,,,,0,,74,0
8127,note_on,0,0,1,,,,,,,,,,,,,,,,,0,,72,0
8130,note_on,0,0,1,,,,,,,,,,,,,,,,,0,,81,45
8130,note_on,3,0,1,,,,,,,,,,,,,,,,,0,,72,45
8157,note_on,27,0,1,,,,,,,,,,,,,,,,,0,,81,0
8157,note_on,0,0,1,,,,,,,,,,,,,,,,,0,,72,0
8160,note_on,3,0,1,,,,,,,,,,,,,,,,,0,,74,51
8160,note_on,0,0,1,,,,,,,,,,,,,,,,,0,,72,41
8161,note_on,1,0,1,,,,,,,,,,,,,,,,,0,,66,72
8185,note_on,24,0,1,,,,,,,,,,,,,,,,,0,,66,0
8187,note_on,0,0,1,,,,,,,,,,,,,,,,,0,,74,0
8187,note_on,2,0,1,,,,,,,,,,,,,,,,,0,,72,0
8189,note_on,2,0,1,,,,,,,,,,,,,,,,,0,,57,73
8190,note_on,1,0,1,,,,,,,,,,,,,,,,,0,,72,50
8190,note_on,0,0,1,,,,,,,,,,,,,,,,,0,,83,55
8217,note_on,0,0,1,,,,,,,,,,,,,,,,,0,,72,0
8217,note_on,27,0,1,,,,,,,,,,,,,,,,,0,,83,0
8218,note_on,1,0,1,,,,,,,,,,,,,,,,,0,,57,0
8219,note_on,1,0,1,,,,,,,,,,,,,,,,,0,,50,71
8220,note_on,1,0,1,,,,,,,,,,,,,,,,,0,,72,48
8220,note_on,0,0,1,,,,,,,,,,,,,,,,,0,,74,50
8231,note_on,11,0,1,,,,,,,,,,,,,,,,,0,,50,0
8233,control_change,2,0,1,,,,,,,,,,,,,,,64,0,0,,,
8247,note_on,14,0,1,,,,,,,,,,,,,,,,,0,,74,0
8247,note_on,0,0,1,,,,,,,,,,,,,,,,,0,,72,0
8250,note_on,3,0,1,,,,,,,,,,,,,,,,,0,,72,50
8250,note_on,0,0,1,,,,,,,,,,,,,,,,,0,,81,48
8276,control_change,26,0,1,,,,,,,,,,,,,,,64,127,0,,,
8277,note_on,0,0,1,,,,,,,,,,,,,,,,,0,,72,0
8277,note_on,1,0,1,,,,,,,,,,,,,,,,,0,,81,0
8279,note_on,2,0,1,,,,,,,,,,,,,,,,,0,,43,76
8280,note_on,1,0,1,,,,,,,,,,,,,,,,,0,,71,50
8280,note_on,0,0,1,,,,,,,,,,,,,,,,,0,,74,54
8307,note_on,27,0,1,,,,,,,,,,,,,,,,,0,,74,0
8307,note_on,0,0,1,,,,,,,,,,,,,,,,,0,,71,0
8310,note_on,3,0,1,,,,,,,,,,,,,,,,,0,,71,52
8310,note_on,0,0,1,,,,,,,,,,,,,,,,,0,,75,56
8337,note_on,0,0,1,,,,,,,,,,,,,,,,,0,,71,0
8337,note_on,27,0,1,,,,,,,,,,,,,,,,,0,,75,0
8340,note_on,3,0,1,,,,,,,,,,,,,,,,,0,,71,51
8340,note_on,0,0,1,,,,,,,,,,,,,,,,,0,,74,58
8367,note_on,27,0,1,,,,,,,,,,,,,,,,,0,,74,0
8367,note_on,0,0,1,,,,,,,,,,,,,,,,,0,,71,0
8369,note_on,2,0,1,,,,,,,,,,,,,,,,,0,,50,73
8370,note_on,1,0,1,,,,,,,,,,,,,,,,,0,,71,45
8370,note_on,0,0,1,,,,,,,,,,,,,,,,,0,,76,57
8378,note_on,8,0,1,,,,,,,,,,,,,,,,,0,,43,0
8396,control_change,18,0,1,,,,,,,,,,,,,,,64,0,0,,,
8397,note_on,1,0,1,,,,,,,,,,,,,,,,,0,,76,0
8397,note_on,0,0,1,,,,,,,,,,,,,,,,,0,,71,0
8399,note_on,2,0,1,,,,,,,,,,,,,,,,,0,,50,0
8399,note_on,0,0,1,,,,,,,,,,,,,,,,,0,,55,72
8400,note_on,0,0,1,,,,,,,,,,,,,,,,,0,,71,43
8400,note_on,1,0,1,,,,,,,,,,,,,,,,,0,,74,55
8427,note_on,27,0,1,,,,,,,,,,,,,,,,,0,,71,0
8427,note_on,0,0,1,,,,,,,,,,,,,,,,,0,,74,0
8429,note_on,2,0,1,,,,,,,,,,,,,,,,,0,,57,73
8430,note_on,1,0,1,,,,,,,,,,,,,,,,,0,,71,42
8430,note_on,0,0,1,,,,,,,,,,,,,,,,,0,,77,48
8433,note_on,3,0,1,,,,,,,,,,,,,,,,,0,,55,0
8457,note_on,24,0,1,,,,,,,,,,,,,,,,,0,,77,0
8457,note_on,0,0,1,,,,,,,,,,,,,,,,,0,,71,0
8457,control_change,0,0,1,,,,,,,,,,,,,,,64,127,0,,,
8459,note_on,2,0,1,,,,,,,,,,,,,,,,,0,,59,75
8460,note_on,0,0,1,,,,,,,,,,,,,,,,,0,,71,51
8460,note_on,1,0,1,,,,,,,,,,,,,,,,,0,,57,0
8460,note_on,0,0,1,,,,,,,,,,,,,,,,,0,,74,56
8487,note_on,27,0,1,,,,,,,,,,,,,,,,,0,,71,0
8487,note_on,0,0,1,,,,,,,,,,,,,,,,,0,,74,0
8490,note_on,3,0,1,,,,,,,,,,,,,,,,,0,,71,49
8490,note_on,0,0,1,,,,,,,,,,,,,,,,,0,,78,54
8517,note_on,27,0,1,,,,,,,,,,,,,,,,,0,,78,0
8517,note_on,0,0,1,,,,,,,,,,,,,,,,,0,,71,0
8520,note_on,0,0,1,,,,,,,,,,,,,,,,,0,,74,51
8520,note_on,3,0,1,,,,,,,,,,,,,,,,,0,,71,48
8547,note_on,27,0,1,,,,,,,,,,,,,,,,,0,,74,0
8547,note_on,0,0,1,,,,,,,,,,,,,,,,,0,,71,0
8550,note_on,3,0,1,,,,,,,,,,,,,,,,,0,,71,46
8550,note_on,0,0,1,,,,,,,,,,,,,,,,,0,,79,54
8551,note_on,1,0,1,,,,,,,,,,,,,,,,,0,,57,73
8554,note_on,3,0,1,,,,,,,,,,,,,,,,,0,,59,0
8577,note_on,0,0,1,,,,,,,,,,,,,,,,,0,,57,0
8577,note_on,23,0,1,,,,,,,,,,,,,,,,,0,,71,0
8577,note_on,0,0,1,,,,,,,,,,,,,,,,,0,,79,0
8580,note_on,3,0,1,,,,,,,,,,,,,,,,,0,,74,53
8580,note_on,0,0,1,,,,,,,,,,,,,,,,,0,,71,29
8580,note_on,0,0,1,,,,,,,,,,,,,,,,,0,,55,74
8584,control_change,4,0,1,,,,,,,,,,,,,,,64,0,0,,,
8607,note_on,23,0,1,,,,,,,,,,,,,,,,,0,,71,0
8607,note_on,0,0,1,,,,,,,,,,,,,,,,,0,,74,0
8610,note_on,3,0,1,,,,,,,,,,,,,,,,,0,,71,48
8610,note_on,0,0,1,,,,,,,,,,,,,,,,,0,,80,47
8610,note_on,0,0,1,,,,,,,,,,,,,,,,,0,,50,74
8615,note_on,5,0,1,,,,,,,,,,,,,,,,,0,,55,0
8626,note_on,11,0,1,,,,,,,,,,,,,,,,,0,,50,0
8637,note_on,11,0,1,,,,,,,,,,,,,,,,,0,,80,0
8637,note_on,0,0,1,,,,,,,,,,,,,,,,,0,,71,0
8640,note_on,0,0,1,,,,,,,,,,,,,,,,,0,,74,40
8640,note_on,0,0,1,,,,,,,,,,,,,,,,,0,,38,77
8640,note_on,3,0,1,,,,,,,,,,,,,,,,,0,,72,41
8643,control_change,3,0,1,,,,,,,,,,,,,,,64,127,0,,,
8652,note_on,9,0,1,,,,,,,,,,,,,,,,,0,,38,0
8667,note_on,0,0,1,,,,,,,,,,,,,,,,,0,,72,0
8667,note_on,15,0,1,,,,,,,,,,,,,,,,,0,,74,0
8670,note_on,3,0,1,,,,,,,,,,,,,,,,,0,,72,43
8670,note_on,0,0,1,,,,,,,,,,,,,,,,,0,,81,48
8697,note_on,27,0,1,,,,,,,,,,,,,,,,,0,,81,0
8697,note_on,0,0,1,,,,,,,,,,,,,,,,,0,,72,0
8699,note_on,2,0,1,,,,,,,,,,,,,,,,,0,,66,73
8700,note_on,1,0,1,,,,,,,,,,,,,,,,,0,,72,44
8700,note_on,0,0,1,,,,,,,,,,,,,,,,,0,,74,44
8727,note_on,0,0,1,,,,,,,,,,,,,,,,,0,,72,0
8727,note_on,27,0,1,,,,,,,,,,,,,,,,,0,,74,0
8728,note_on,1,0,1,,,,,,,,,,,,,,,,,0,,66,0
8729,note_on,1,0,1,,,,,,,,,,,,,,,,,0,,57,74
8730,note_on,1,0,1,,,,,,,,,,,,,,,,,0,,72,45
8730,note_on,0,0,1,,,,,,,,,,,,,,,,,0,,81,45
8757,note_on,27,0,1,,,,,,,,,,,,,,,,,0,,81,0
8757,note_on,0,0,1,,,,,,,,,,,,,,,,,0,,72,0
8760,note_on,3,0,1,,,,,,,,,,,,,,,,,0,,57,0
8760,note_on,0,0,1,,,,,,,,,,,,,,,,,0,,72,45
8760,note_on,0,0,1,,,,,,,,,,,,,,,,,0,,50,75
8760,note_on,0,0,1,,,,,,,,,,,,,,,,,0,,74,47
8774,note_on,14,0,1,,,,,,,,,,,,,,,,,0,,50,0
8783,control_change,9,0,1,,,,,,,,,,,,,,,64,0,0,,,
8787,note_on,0,0,1,,,,,,,,,,,,,,,,,0,,74,0
8787,note_on,4,0,1,,,,,,,,,,,,,,,,,0,,72,0
8790,note_on,0,0,1,,,,,,,,,,,,,,,,,0,,81,48
8790,note_on,3,0,1,,,,,,,,,,,,,,,,,0,,72,46
8813,control_change,23,0,1,,,,,,,,,,,,,,,64,127,0,,,
8817,note_on,0,0,1,,,,,,,,,,,,,,,,,0,,72,0
8817,note_on,4,0,1,,,,,,,,,,,,,,,,,0,,81,0
8820,note_on,3,0,1,,,,,,,,,,,,,,,,,0,,74,48
8820,note_on,0,0,1,,,,,,,,,,,,,,,,,0,,72,45
8820,note_on,0,0,1,,,,,,,,,,,,,,,,,0,,38,77
8829,note_on,9,0,1,,,,,,,,,,,,,,,,,0,,38,0
8847,note_on,18,0,1,,,,,,,,,,,,,,,,,0,,72,0
8847,note_on,0,0,1,,,,,,,,,,,,,,,,,0,,74,0
8850,note_on,3,0,1,,,,,,,,,,,,,,,,,0,,72,42
8850,note_on,0,0,1,,,,,,,,,,,,,,,,,0,,81,46
8877,note_on,27,0,1,,,,,,,,,,,,,,,,,0,,81,0
8877,note_on,0,0,1,,,,,,,,,,,,,,,,,0,,72,0
8880,note_on,3,0,1,,,,,,,,,,,,,,,,,0,,74,47
8880,note_on,0,0,1,,,,,,,,,,,,,,,,,0,,72,45
8881,note_on,1,0,1,,,,,,,,,,,,,,,,,0,,66,69
8901,note_on,20,0,1,,,,,,,,,,,,,,,,,0,,66,0
8907,note_on,6,0,1,,,,,,,,,,,,,,,,,0,,72,0
8907,note_on,0,0,1,,,,,,,,,,,,,,,,,0,,74,0
8909,note_on,2,0,1,,,,,,,,,,,,,,,,,0,,57,71
8910,note_on,1,0,1,,,,,,,,,,,,,,,,,0,,83,49
8910,note_on,0,0,1,,,,,,,,,,,,,,,,,0,,72,37
8937,note_on,0,0,1,,,,,,,,,,,,,,,,,0,,83,0
8937,note_on,27,0,1,,,,,,,,,,,,,,,,,0,,72,0
8939,note_on,2,0,1,,,,,,,,,,,,,,,,,0,,50,68
8940,note_on,1,0,1,,,,,,,,,,,,,,,,,0,,57,0
8940,note_on,0,0,1,,,,,,,,,,,,,,,,,0,,74,49
8940,note_on,0,0,1,,,,,,,,,,,,,,,,,0,,72,43
8951,note_on,11,0,1,,,,,,,,,,,,,,,,,0,,50,0
8967,note_on,16,0,1,,,,,,,,,,,,,,,,,0,,72,0
8967,note_on,0,0,1,,,,,,,,,,,,,,,,,0,,74,0
8970,note_on,3,0,1,,,,,,,,,,,,,,,,,0,,72,47
8970,note_on,0,0,1,,,,,,,,,,,,,,,,,0,,81,49
8973,control_change,3,0,1,,,,,,,,,,,,,,,64,0,0,,,
8997,note_on,24,0,1,,,,,,,,,,,,,,,,,0,,81,0
8997,note_on,0,0,1,,,,,,,,,,,,,,,,,0,,72,0
8999,note_on,0,0,1,,,,,,,,,,,,,,,,,0,,67,80
8999,note_on,2,0,1,,,,,,,,,,,,,,,,,0,,55,65
8999,note_on,0,0,1,,,,,,,,,,,,,,,,,0,,59,60
9000,note_on,1,0,1,,,,,,,,,,,,,,,,,0,,71,36
9000,note_on,0,0,1,,,,,,,,,,,,,,,,,0,,74,46
9025,note_on,25,0,1,,,,,,,,,,,,,,,,,0,,55,0
9027,note_on,2,0,1,,,,,,,,,,,,,,,,,0,,71,0
9027,note_on,0,0,1,,,,,,,,,,,,,,,,,0,,74,0
9030,note_on,3,0,1,,,,,,,,,,,,,,,,,0,,59,0
9030,note_on,0,0,1,,,,,,,,,,,,,,,,,0,,71,49
9030,note_on,0,0,1,,,,,,,,,,,,,,,,,0,,79,49
9032,note_on,2,0,1,,,,,,,,,,,,,,,,,0,,67,0
9041,note_on,9,0,1,,,,,,,,,,,,,,,,,0,,53,76
9049,note_on,8,0,1,,,,,,,,,,,,,,,,,0,,60,67
9053,control_change,0,0,1,,,,,,,,,,,,,,,64,127,0,,,
9053,note_on,4,0,1,,,,,,,,,,,,,,,,,0,,63,69
9057,note_on,4,0,1,,,,,,,,,,,,,,,,,0,,79,0
9057,note_on,0,0,1,,,,,,,,,,,,,,,,,0,,71,0
9059,note_on,2,0,1,,,,,,,,,,,,,,,,,0,,53,0
9060,note_on,1,0,1,,,,,,,,,,,,,,,,,0,,75,51
9060,note_on,0,0,1,,,,,,,,,,,,,,,,,0,,72,45
9065,note_on,5,0,1,,,,,,,,,,,,,,,,,0,,68,85
9087,note_on,22,0,1,,,,,,,,,,,,,,,,,0,,72,0
9087,note_on,0,0,1,,,,,,,,,,,,,,,,,0,,75,0
9090,note_on,3,0,1,,,,,,,,,,,,,,,,,0,,80,66
9090,note_on,0,0,1,,,,,,,,,,,,,,,,,0,,72,69
9094,note_on,4,0,1,,,,,,,,,,,,,,,,,0,,60,0
9097,note_on,0,0,1,,,,,,,,,,,,,,,,,0,,63,0
9097,note_on,3,0,1,,,,,,,,,,,,,,,,,0,,68,0
9117,note_on,20,0,1,,,,,,,,,,,,,,,,,0,,80,0
9117,note_on,0,0,1,,,,,,,,,,,,,,,,,0,,72,0
9120,note_on,3,0,1,,,,,,,,,,,,,,,,,0,,72,40
9120,note_on,0,0,1,,,,,,,,,,,,,,,,,0,,68,37
9147,note_on,27,0,1,,,,,,,,,,,,,,,,,0,,68,0
9147,note_on,0,0,1,,,,,,,,,,,,,,,,,0,,72,0
9150,note_on,3,0,1,,,,,,,,,,,,,,,,,0,,68,39
9150,note_on,0,0,1,,,,,,,,,,,,,,,,,0,,77,48
9177,note_on,0,0,1,,,,,,,,,,,,,,,,,0,,68,0
9177,note_on,27,0,1,,,,,,,,,,,,,,,,,0,,77,0
9180,note_on,3,0,1,,,,,,,,,,,,,,,,,0,,68,47
9180,note_on,0,0,1,,,,,,,,,,,,,,,,,0,,65,38
9207,note_on,27,0,1,,,,,,,,,,,,,,,,,0,,65,0
9207,note_on,0,0,1,,,,,,,,,,,,,,,,,0,,68,0
9210,note_on,0,0,1,,,,,,,,,,,,,,,,,0,,74,39
9210,note_on,3,0,1,,,,,,,,,,,,,,,,,0,,65,35
9224,control_change,14,0,1,,,,,,,,,,,,,,,64,0,0,,,
9237,note_on,0,0,1,,,,,,,,,,,,,,,,,0,,65,0
9237,note_on,13,0,1,,,,,,,,,,,,,,,,,0,,74,0
9239,note_on,2,0,1,,,,,,,,,,,,,,,,,0,,41,72
9240,note_on,0,0,1,,,,,,,,,,,,,,,,,0,,65,36
9240,note_on,1,0,1,,,,,,,,,,,,,,,,,0,,68,46
9240,note_on,0,0,1,,,,,,,,,,,,,,,,,0,,53,85
9267,note_on,27,0,1,,,,,,,,,,,,,,,,,0,,65,0
9267,note_on,0,0,1,,,,,,,,,,,,,,,,,0,,68,0
9270,note_on,3,0,1,,,,,,,,,,,,,,,,,0,,65,41
9270,note_on,0,0,1,,,,,,,,,,,,,,,,,0,,74,43
9285,note_on,15,0,1,,,,,,,,,,,,,,,,,0,,53,0
9297,note_on,0,0,1,,,,,,,,,,,,,,,,,0,,65,0
9297,note_on,12,0,1,,,,,,,,,,,,,,,,,0,,74,0
9300,note_on,3,0,1,,,,,,,,,,,,,,,,,0,,69,58
9300,note_on,0,0,1,,,,,,,,,,,,,,,,,0,,63,37
9301,note_on,1,0,1,,,,,,,,,,,,,,,,,0,,42,65
9301,note_on,0,0,1,,,,,,,,,,,,,,,,,0,,54,84
9320,note_on,19,0,1,,,,,,,,,,,,,,,,,0,,41,0
9327,note_on,7,0,1,,,,,,,,,,,,,,,,,0,,69,0
9327,note_on,0,0,1,,,,,,,,,,,,,,,,,0,,63,0
9330,note_on,3,0,1,,,,,,,,,,,,,,,,,0,,63,45
9330,note_on,0,0,1,,,,,,,,,,,,,,,,,0,,72,54
9353,note_on,23,0,1,,,,,,,,,,,,,,,,,0,,54,0
9354,note_on,1,0,1,,,,,,,,,,,,,,,,,0,,42,0
9357,note_on,0,0,1,,,,,,,,,,,,,,,,,0,,72,0
9357,note_on,3,0,1,,,,,,,,,,,,,,,,,0,,63,0
9359,note_on,0,0,1,,,,,,,,,,,,,,,,,0,,55,83
9359,note_on,2,0,1,,,,,,,,,,,,,,,,,0,,43,62
9360,note_on,1,0,1,,,,,,,,,,,,,,,,,0,,62,37
9360,note_on,0,0,1,,,,,,,,,,,,,,,,,0,,67,55
9385,note_on,25,0,1,,,,,,,,,,,,,,,,,0,,43,0
9387,note_on,2,0,1,,,,,,,,,,,,,,,,,0,,67,0
9387,note_on,0,0,1,,,,,,,,,,,,,,,,,0,,62,0
9390,note_on,0,0,1,,,,,,,,,,,,,,,,,0,,71,48
9390,note_on,3,0,1,,,,,,,,,,,,,,,,,0,,55,0
9390,note_on,0,0,1,,,,,,,,,,,,,,,,,0,,62,36
9392,control_change,2,0,1,,,,,,,,,,,,,,,64,127,0,,,
9395,note_on,3,0,1,,,,,,,,,,,,,,,,,0,,41,67
9406,note_on,11,0,1,,,,,,,,,,,,,,,,,0,,48,67
9410,note_on,4,0,1,,,,,,,,,,,,,,,,,0,,51,70
9412,note_on,2,0,1,,,,,,,,,,,,,,,,,0,,41,0
9417,note_on,5,0,1,,,,,,,,,,,,,,,,,0,,71,0
9417,note_on,0,0,1,,,,,,,,,,,,,,,,,0,,62,0
9420,note_on,0,0,1,,,,,,,,,,,,,,,,,0,,60,40
9420,note_on,3,0,1,,,,,,,,,,,,,,,,,0,,63,50
9422,note_on,2,0,1,,,,,,,,,,,,,,,,,0,,56,82
9435,note_on,0,0,1,,,,,,,,,,,,,,,,,0,,51,0
9435,note_on,13,0,1,,,,,,,,,,,,,,,,,0,,56,0
9438,note_on,3,0,1,,,,,,,,,,,,,,,,,0,,48,0
9447,note_on,9,0,1,,,,,,,,,,,,,,,,,0,,63,0
9447,note_on,0,0,1,,,,,,,,,,,,,,,,,0,,60,0
9450,note_on,0,0,1,,,,,,,,,,,,,,,,,0,,68,49
9450,note_on,3,0,1,,,,,,,,,,,,,,,,,0,,60,39
9477,note_on,0,0,1,,,,,,,,,,,,,,,,,0,,60,0
9477,note_on,27,0,1,,,,,,,,,,,,,,,,,0,,68,0
9480,note_on,3,0,1,,,,,,,,,,,,,,,,,0,,60,42
9480,note_on,0,0,1,,,,,,,,,,,,,,,,,0,,56,40
9507,note_on,27,0,1,,,,,,,,,,,,,,,,,0,,56,0
9507,note_on,0,0,1,,,,,,,,,,,,,,,,,0,,60,0
9510,note_on,3,0,1,,,,,,,,,,,,,,,,,0,,65,48
9510,note_on,0,0,1,,,,,,,,,,,,,,,,,0,,56,45
9537,note_on,27,0,1,,,,,,,,,,,,,,,,,0,,56,0
9537,note_on,0,0,1,,,,,,,,,,,,,,,,,0,,65,0
9540,note_on,3,0,1,,,,,,,,,,,,,,,,,0,,53,38
9540,note_on,0,0,1,,,,,,,,,,,,,,,,,0,,56,45
9567,note_on,27,0,1,,,,,,,,,,,,,,,,,0,,56,0
9567,note_on,0,0,1,,,,,,,,,,,,,,,,,0,,53,0
9570,note_on,0,0,1,,,,,,,,,,,,,,,,,0,,53,44
9570,note_on,3,0,1,,,,,,,,,,,,,,,,,0,,62,51
9590,control_change,20,0,1,,,,,,,,,,,,,,,64,0,0,,,
9597,note_on,7,0,1,,,,,,,,,,,,,,,,,0,,53,0
9597,note_on,0,0,1,,,,,,,,,,,,,,,,,0,,62,0
9599,note_on,2,0,1,,,,,,,,,,,,,,,,,0,,41,85
9599,note_on,0,0,1,,,,,,,,,,,,,,,,,0,,29,78
9600,note_on,1,0,1,,,,,,,,,,,,,,,,,0,,56,59
9600,note_on,0,0,1,,,,,,,,,,,,,,,,,0,,53,59
9627,note_on,27,0,1,,,,,,,,,,,,,,,,,0,,53,0
9627,note_on,0,0,1,,,,,,,,,,,,,,,,,0,,56,0
9630,note_on,0,0,1,,,,,,,,,,,,,,,,,0,,62,57
9630,note_on,3,0,1,,,,,,,,,,,,,,,,,0,,53,57
9648,note_on,18,0,1,,,,,,,,,,,,,,,,,0,,41,0
9657,note_on,0,0,1,,,,,,,,,,,,,,,,,0,,53,0
9657,note_on,9,0,1,,,,,,,,,,,,,,,,,0,,62,0
9660,note_on,3,0,1,,,,,,,,,,,,,,,,,0,,57,58
9660,note_on,0,0,1,,,,,,,,,,,,,,,,,0,,51,58
9661,note_on,1,0,1,,,,,,,,,,,,,,,,,0,,30,69
9661,note_on,0,0,1,,,,,,,,,,,,,,,,,0,,42,85
9687,note_on,26,0,1,,,,,,,,,,,,,,,,,0,,51,0
9687,note_on,0,0,1,,,,,,,,,,,,,,,,,0,,57,0
9690,note_on,3,0,1,,,,,,,,,,,,,,,,,0,,29,0
9690,note_on,0,0,1,,,,,,,,,,,,,,,,,0,,51,62
9690,note_on,0,0,1,,,,,,,,,,,,,,,,,0,,60,62
9716,note_on,26,0,1,,,,,,,,,,,,,,,,,0,,30,0
9717,note_on,1,0,1,,,,,,,,,,,,,,,,,0,,60,0
9717,note_on,0,0,1,,,,,,,,,,,,,,,,,0,,51,0
9718,control_change,1,0,1,,,,,,,,,,,,,,,64,127,0,,,
9720,note_on,0,0,1,,,,,,,,,,,,,,,,,0,,50,67
9720,note_on,2,0,1,,,,,,,,,,,,,,,,,0,,55,67
9721,note_on,1,0,1,,,,,,,,,,,,,,,,,0,,31,90
9721,note_on,0,0,1,,,,,,,,,,,,,,,,,0,,43,92
9722,note_on,1,0,1,,,,,,,,,,,,,,,,,0,,42,0
9747,note_on,25,0,1,,,,,,,,,,,,,,,,,0,,55,0
9747,note_on,0,0,1,,,,,,,,,,,,,,,,,0,,50,0
9750,note_on,3,0,1,,,,,,,,,,,,,,,,,0,,59,72
9750,note_on,0,0,1,,,,,,,,,,,,,,,,,0,,50,72
9777,note_on,27,0,1,,,,,,,,,,,,,,,,,0,,50,0
9777,note_on,0,0,1,,,,,,,,,,,,,,,,,0,,59,0
9780,note_on,3,0,1,,,,,,,,,,,,,,,,,0,,57,66
9780,note_on,0,0,1,,,,,,,,,,,,,,,,,0,,53,66
9807,note_on,0,0,1,,,,,,,,,,,,,,,,,0,,57,0
9807,note_on,27,0,1,,,,,,,,,,,,,,,,,0,,53,0
9810,note_on,3,0,1,,,,,,,,,,,,,,,,,0,,62,68
9810,note_on,0,0,1,,,,,,,,,,,,,,,,,0,,53,68
9814,control_change,4,0,1,,,,,,,,,,,,,,,64,0,0,,,
9837,note_on,23,0,1,,,,,,,,,,,,,,,,,0,,53,0
9837,note_on,0,0,1,,,,,,,,,,,,,,,,,0,,62,0
9840,note_on,0,0,1,,,,,,,,,,,,,,,,,0,,52,62
9840,note_on,3,0,1,,,,,,,,,,,,,,,,,0,,55,62
9867,note_on,0,0,1,,,,,,,,,,,,,,,,,0,,55,0
9867,note_on,27,0,1,,,,,,,,,,,,,,,,,0,,52,0
9870,note_on,3,0,1,,,,,,,,,,,,,,,,,0,,52,62
9870,note_on,0,0,1,,,,,,,,,,,,,,,,,0,,60,62
9897,note_on,27,0,1,,,,,,,,,,,,,,,,,0,,60,0
9897,note_on,0,0,1,,,,,,,,,,,,,,,,,0,,52,0
9900,note_on,3,0,1,,,,,,,,,,,,,,,,,0,,59,65
9900,note_on,0,0,1,,,,,,,,,,,,,,,,,0,,55,65
9902,control_change,2,0,1,,,,,,,,,,,,,,,64,127,0,,,
9927,note_on,25,0,1,,,,,,,,,,,,,,,,,0,,55,0
9927,note_on,0,0,1,,,,,,,,,,,,,,,,,0,,59,0
9930,note_on,0,0,1,,,,,,,,,,,,,,,,,0,,55,62
9930,note_on,3,0,1,,,,,,,,,,,,,,,,,0,,64,62
9957,note_on,0,0,1,,,,,,,,,,,,,,,,,0,,64,0
9957,note_on,27,0,1,,,,,,,,,,,,,,,,,0,,55,0
9960,note_on,3,0,1,,,,,,,,,,,,,,,,,0,,57,62
9960,note_on,0,0,1,,,,,,,,,,,,,,,,,0,,53,62
9987,note_on,27,0,1,,,,,,,,,,,,,,,,,0,,53,0
9987,note_on,0,0,1,,,,,,,,,,,,,,,,,0,,57,0
9990,note_on,0,0,1,,,,,,,,,,,,,,,,,0,,62,65
9990,note_on,3,0,1,,,,,,,,,,,,,,,,,0,,53,65
9998,control_change,8,0,1,,,,,,,,,,,,,,,64,0,0,,,
10017,note_on,19,0,1,,,,,,,,,,,,,,,,,0,,62,0
10017,note_on,0,0,1,,,,,,,,,,,,,,,,,0,,53,0
10020,note_on,0,0,1,,,,,,,,,,,,,,,,,0,,57,68
10020,note_on,3,0,1,,,,,,,,,,,,,,,,,0,,60,68
10047,note_on,0,0,1,,,,,,,,,,,,,,,,,0,,60,0
10047,note_on,27,0,1,,,,,,,,,,,,,,,,,0,,57,0
10050,note_on,0,0,1,,,,,,,,,,,,,,,,,0,,65,64
10050,note_on,3,0,1,,,,,,,,,,,,,,,,,0,,57,64
10077,note_on,0,0,1,,,,,,,,,,,,,,,,,0,,57,0
10077,note_on,27,0,1,,,,,,,,,,,,,,,,,0,,65,0
10080,note_on,0,0,1,,,,,,,,,,,,,,,,,0,,55,62
10080,note_on,3,0,1,,,,,,,,,,,,,,,,,0,,59,62
10085,control_change,5,0,1,,,,,,,,,,,,,,,64,127,0,,,
10107,note_on,0,0,1,,,,,,,,,,,,,,,,,0,,59,0
10107,note_on,22,0,1,,,,,,,,,,,,,,,,,0,,55,0
10110,note_on,3,0,1,,,,,,,,,,,,,,,,,0,,55,62
10110,note_on,0,0,1,,,,,,,,,,,,,,,,,0,,64,62
10137,note_on,0,0,1,,,,,,,,,,,,,,,,,0,,55,0
10137,note_on,27,0,1,,,,,,,,,,,,,,,,,0,,64,0
10140,note_on,3,0,1,,,,,,,,,,,,,,,,,0,,62,63
10140,note_on,0,0,1,,,,,,,,,,,,,,,,,0,,59,63
10167,note_on,0,0,1,,,,,,,,,,,,,,,,,0,,62,0
10167,note_on,27,0,1,,,,,,,,,,,,,,,,,0,,59,0
10170,note_on,0,0,1,,,,,,,,,,,,,,,,,0,,67,62
10170,note_on,3,0,1,,,,,,,,,,,,,,,,,0,,59,62
10172,control_change,2,0,1,,,,,,,,,,,,,,,64,0,0,,,
10197,note_on,25,0,1,,,,,,,,,,,,,,,,,0,,67,0
10197,note_on,0,0,1,,,,,,,,,,,,,,,,,0,,59,0
10200,note_on,3,0,1,,,,,,,,,,,,,,,,,0,,60,60
10200,note_on,0,0,1,,,,,,,,,,,,,,,,,0,,57,60
10227,note_on,0,0,1,,,,,,,,,,,,,,,,,0,,60,0
10227,note_on,27,0,1,,,,,,,,,,,,,,,,,0,,57,0
10230,note_on,3,0,1,,,,,,,,,,,,,,,,,0,,65,62
10230,note_on,0,0,1,,,,,,,,,,,,,,,,,0,,57,62
10257,note_on,27,0,1,,,,,,,,,,,,,,,,,0,,57,0
10257,note_on,0,0,1,,,,,,,,,,,,,,,,,0,,65,0
10260,note_on,3,0,1,,,,,,,,,,,,,,,,,0,,64,59
10260,note_on,0,0,1,,,,,,,,,,,,,,,,,0,,60,59
10260,control_change,0,0,1,,,,,,,,,,,,,,,64,127,0,,,
10287,note_on,27,0,1,,,,,,,,,,,,,,,,,0,,60,0
10287,note_on,0,0,1,,,,,,,,,,,,,,,,,0,,64,0
10290,note_on,3,0,1,,,,,,,,,,,,,,,,,0,,60,58
10290,note_on,0,0,1,,,,,,,,,,,,,,,,,0,,69,58
10317,note_on,27,0,1,,,,,,,,,,,,,,,,,0,,69,0
10317,note_on,0,0,1,,,,,,,,,,,,,,,,,0,,60,0
10320,note_on,0,0,1,,,,,,,,,,,,,,,,,0,,59,59
10320,note_on,3,0,1,,,,,,,,,,,,,,,,,0,,62,59
10347,note_on,27,0,1,,,,,,,,,,,,,,,,,0,,59,0
10347,note_on,0,0,1,,,,,,,,,,,,,,,,,0,,62,0
10350,note_on,3,0,1,,,,,,,,,,,,,,,,,0,,67,61
10350,note_on,0,0,1,,,,,,,,,,,,,,,,,0,,59,61
10358,control_change,8,0,1,,,,,,,,,,,,,,,64,0,0,,,
10377,note_on,19,0,1,,,,,,,,,,,,,,,,,0,,59,0
10377,note_on,0,0,1,,,,,,,,,,,,,,,,,0,,67,0
10380,note_on,3,0,1,,,,,,,,,,,,,,,,,0,,65,60
10380,note_on,0,0,1,,,,,,,,,,,,,,,,,0,,62,60
10407,note_on,27,0,1,,,,,,,,,,,,,,,,,0,,62,0
10407,note_on,0,0,1,,,,,,,,,,,,,,,,,0,,65,0
10410,note_on,3,0,1,,,,,,,,,,,,,,,,,0,,71,58
10410,note_on,0,0,1,,,,,,,,,,,,,,,,,0,,62,58
10433,control_change,23,0,1,,,,,,,,,,,,,,,64,127,0,,,
10437,note_on,4,0,1,,,,,,,,,,,,,,,,,0,,62,0
10437,note_on,0,0,1,,,,,,,,,,,,,,,,,0,,71,0
10440,note_on,3,0,1,,,,,,,,,,,,,,,,,0,,64,58
10440,note_on,0,0,1,,,,,,,,,,,,,,,,,0,,60,58
10440,set_tempo,10440,1,0,,,,,,,,,,,,,,431655,,,,,,
10467,note_on,27,0,1,,,,,,,,,,,,,,,,,0,,60,0
10467,note_on,0,0,1,,,,,,,,,,,,,,,,,0,,64,0
10470,note_on,3,0,1,,,,,,,,,,,,,,,,,0,,60,49
10470,note_on,0,0,1,,,,,,,,,,,,,,,,,0,,69,59
10470,set_tempo,30,1,0,,,,,,,,,,,,,,433213,,,,,,
10497,note_on,27,0,1,,,,,,,,,,,,,,,,,0,,69,0
10497,note_on,0,0,1,,,,,,,,,,,,,,,,,0,,60,0
10500,note_on,3,0,1,,,,,,,,,,,,,,,,,0,,65,58
10500,note_on,0,0,1,,,,,,,,,,,,,,,,,0,,62,41
10500,set_tempo,30,1,0,,,,,,,,,,,,,,434783,,,,,,
10508,control_change,8,0,1,,,,,,,,,,,,,,,64,0,0,,,
10527,note_on,0,0,1,,,,,,,,,,,,,,,,,0,,65,0
10527,note_on,19,0,1,,,,,,,,,,,,,,,,,0,,62,0
10530,note_on,0,0,1,,,,,,,,,,,,,,,,,0,,62,43
10530,note_on,3,0,1,,,,,,,,,,,,,,,,,0,,71,60
10530,set_tempo,30,1,0,,,,,,,,,,,,,,436364,,,,,,
10557,note_on,27,0,1,,,,,,,,,,,,,,,,,0,,62,0
10557,note_on,0,0,1,,,,,,,,,,,,,,,,,0,,71,0
10560,set_tempo,30,1,0,,,,,,,,,,,,,,437956,,,,,,
10560,note_on,3,0,1,,,,,,,,,,,,,,,,,0,,67,52
10560,note_on,0,0,1,,,,,,,,,,,,,,,,,0,,64,43
10587,note_on,27,0,1,,,,,,,,,,,,,,,,,0,,64,0
10587,note_on,0,0,1,,,,,,,,,,,,,,,,,0,,67,0
10590,note_on,3,0,1,,,,,,,,,,,,,,,,,0,,72,54
10590,note_on,0,0,1,,,,,,,,,,,,,,,,,0,,64,45
10590,set_tempo,30,1,0,,,,,,,,,,,,,,439560,,,,,,
10615,set_tempo,25,1,0,,,,,,,,,,,,,,441176,,,,,,
10617,note_on,27,0,1,,,,,,,,,,,,,,,,,0,,64,0
10617,note_on,0,0,1,,,,,,,,,,,,,,,,,0,,72,0
10620,note_on,0,0,1,,,,,,,,,,,,,,,,,0,,65,46
10620,note_on,3,0,1,,,,,,,,,,,,,,,,,0,,69,55
10645,set_tempo,30,1,0,,,,,,,,,,,,,,442804,,,,,,
10647,note_on,27,0,1,,,,,,,,,,,,,,,,,0,,65,0
10647,note_on,0,0,1,,,,,,,,,,,,,,,,,0,,69,0
10650,note_on,3,0,1,,,,,,,,,,,,,,,,,0,,74,54
10650,note_on,0,0,1,,,,,,,,,,,,,,,,,0,,65,45
10675,set_tempo,30,1,0,,,,,,,,,,,,,,444444,,,,,,
10677,note_on,27,0,1,,,,,,,,,,,,,,,,,0,,65,0
10677,note_on,0,0,1,,,,,,,,,,,,,,,,,0,,74,0
10680,note_on,0,0,1,,,,,,,,,,,,,,,,,0,,67,43
10680,note_on,3,0,1,,,,,,,,,,,,,,,,,0,,71,56
10705,set_tempo,30,1,0,,,,,,,,,,,,,,446097,,,,,,
10707,note_on,27,0,1,,,,,,,,,,,,,,,,,0,,67,0
10707,note_on,0,0,1,,,,,,,,,,,,,,,,,0,,71,0
10710,note_on,3,0,1,,,,,,,,,,,,,,,,,0,,67,39
10710,note_on,0,0,1,,,,,,,,,,,,,,,,,0,,76,46
10735,set_tempo,30,1,0,,,,,,,,,,,,,,447761,,,,,,
10737,note_on,27,0,1,,,,,,,,,,,,,,,,,0,,76,0
10737,note_on,0,0,1,,,,,,,,,,,,,,,,,0,,67,0
10740,note_on,3,0,1,,,,,,,,,,,,,,,,,0,,72,58
10740,note_on,0,0,1,,,,,,,,,,,,,,,,,0,,69,38
10765,set_tempo,30,1,0,,,,,,,,,,,,,,449438,,,,,,
10767,note_on,0,0,1,,,,,,,,,,,,,,,,,0,,72,0
10767,note_on,27,0,1,,,,,,,,,,,,,,,,,0,,69,0
10770,note_on,3,0,1,,,,,,,,,,,,,,,,,0,,69,52
10770,note_on,0,0,1,,,,,,,,,,,,,,,,,0,,77,60
10785,note_on,0,0,1,,,,,,,,,,,,,,,,,0,,43,0
10785,note_on,15,0,1,,,,,,,,,,,,,,,,,0,,31,0
10790,set_tempo,25,1,0,,,,,,,,,,,,,,451128,,,,,,
10797,note_on,12,0,1,,,,,,,,,,,,,,,,,0,,69,0
10797,note_on,0,0,1,,,,,,,,,,,,,,,,,0,,77,0
10800,set_tempo,10,1,0,,,,,,,,,,,,,,454545,,,,,,
10800,note_on,3,0,1,,,,,,,,,,,,,,,,,0,,74,49
10800,note_on,0,0,1,,,,,,,,,,,,,,,,,0,,71,50
10827,note_on,27,0,1,,,,,,,,,,,,,,,,,0,,71,0
10827,note_on,0,0,1,,,,,,,,,,,,,,,,,0,,74,0
10830,note_on,0,0,1,,,,,,,,,,,,,,,,,0,,79,48
10830,note_on,3,0,1,,,,,,,,,,,,,,,,,0,,71,51
10857,note_on,0,0,1,,,,,,,,,,,,,,,,,0,,71,0
10857,note_on,27,0,1,,,,,,,,,,,,,,,,,0,,79,0
10860,note_on,0,0,1,,,,,,,,,,,,,,,,,0,,72,52
10860,note_on,3,0,1,,,,,,,,,,,,,,,,,0,,74,55
10861,note_on,1,0,1,,,,,,,,,,,,,,,,,0,,66,74
10864,control_change,3,0,1,,,,,,,,,,,,,,,64,127,0,,,
10887,note_on,0,0,1,,,,,,,,,,,,,,,,,0,,74,0
10887,note_on,23,0,1,,,,,,,,,,,,,,,,,0,,72,0
10890,note_on,3,0,1,,,,,,,,,,,,,,,,,0,,72,49
10890,note_on,0,0,1,,,,,,,,,,,,,,,,,0,,81,51
10917,note_on,27,0,1,,,,,,,,,,,,,,,,,0,,81,0
10917,note_on,0,0,1,,,,,,,,,,,,,,,,,0,,72,0
10920,note_on,0,0,1,,,,,,,,,,,,,,,,,0,,72,50
10920,note_on,3,0,1,,,,,,,,,,,,,,,,,0,,74,52
10947,note_on,27,0,1,,,,,,,,,,,,,,,,,0,,72,0
10947,note_on,0,0,1,,,,,,,,,,,,,,,,,0,,74,0
10950,note_on,3,0,1,,,,,,,,,,,,,,,,,0,,72,43
10950,note_on,0,0,1,,,,,,,,,,,,,,,,,0,,81,48
10977,note_on,27,0,1,,,,,,,,,,,,,,,,,0,,81,0
10977,note_on,0,0,1,,,,,,,,,,,,,,,,,0,,72,0
10980,note_on,3,0,1,,,,,,,,,,,,,,,,,0,,74,51
10980,note_on,0,0,1,,,,,,,,,,,,,,,,,0,,72,51
11007,note_on,27,0,1,,,,,,,,,,,,,,,,,0,,72,0
11007,note_on,0,0,1,,,,,,,,,,,,,,,,,0,,74,0
11010,note_on,3,0,1,,,,,,,,,,,,,,,,,0,,72,49
11010,note_on,0,0,1,,,,,,,,,,,,,,,,,0,,81,45
11036,control_change,26,0,1,,,,,,,,,,,,,,,64,0,0,,,
11037,note_on,0,0,1,,,,,,,,,,,,,,,,,0,,72,0
11037,note_on,1,0,1,,,,,,,,,,,,,,,,,0,,81,0
11040,note_on,3,0,1,,,,,,,,,,,,,,,,,0,,74,54
11040,note_on,0,0,1,,,,,,,,,,,,,,,,,0,,72,51
11041,note_on,1,0,1,,,,,,,,,,,,,,,,,0,,64,71
11045,note_on,4,0,1,,,,,,,,,,,,,,,,,0,,66,0
11067,note_on,0,0,1,,,,,,,,,,,,,,,,,0,,72,0
11067,note_on,22,0,1,,,,,,,,,,,,,,,,,0,,74,0
11070,note_on,3,0,1,,,,,,,,,,,,,,,,,0,,72,58
11070,note_on,0,0,1,,,,,,,,,,,,,,,,,0,,83,56
11097,note_on,27,0,1,,,,,,,,,,,,,,,,,0,,83,0
11097,note_on,0,0,1,,,,,,,,,,,,,,,,,0,,72,0
11100,note_on,3,0,1,,,,,,,,,,,,,,,,,0,,72,51
11100,note_on,0,0,1,,,,,,,,,,,,,,,,,0,,74,51
11101,note_on,1,0,1,,,,,,,,,,,,,,,,,0,,66,74
11114,note_on,13,0,1,,,,,,,,,,,,,,,,,0,,64,0
11127,note_on,0,0,1,,,,,,,,,,,,,,,,,0,,74,0
11127,note_on,13,0,1,,,,,,,,,,,,,,,,,0,,72,0
11130,note_on,0,0,1,,,,,,,,,,,,,,,,,0,,81,52
11130,note_on,3,0,1,,,,,,,,,,,,,,,,,0,,72,48
11157,note_on,27,0,1,,,,,,,,,,,,,,,,,0,,81,0
11157,note_on,0,0,1,,,,,,,,,,,,,,,,,0,,72,0
11160,note_on,3,0,1,,,,,,,,,,,,,,,,,0,,71,46
11160,note_on,0,0,1,,,,,,,,,,,,,,,,,0,,74,45
11161,note_on,1,0,1,,,,,,,,,,,,,,,,,0,,67,73
11165,note_on,4,0,1,,,,,,,,,,,,,,,,,0,,66,0
11169,control_change,4,0,1,,,,,,,,,,,,,,,64,127,0,,,
11187,note_on,18,0,1,,,,,,,,,,,,,,,,,0,,71,0
11187,note_on,0,0,1,,,,,,,,,,,,,,,,,0,,74,0
11190,note_on,3,0,1,,,,,,,,,,,,,,,,,0,,71,50
11190,note_on,0,0,1,,,,,,,,,,,,,,,,,0,,79,41
11217,note_on,27,0,1,,,,,,,,,,,,,,,,,0,,79,0
11217,note_on,0,0,1,,,,,,,,,,,,,,,,,0,,71,0
11220,note_on,3,0,1,,,,,,,,,,,,,,,,,0,,74,55
11220,note_on,0,0,1,,,,,,,,,,,,,,,,,0,,71,51
11247,note_on,27,0,1,,,,,,,,,,,,,,,,,0,,71,0
11247,note_on,0,0,1,,,,,,,,,,,,,,,,,0,,74,0
11250,note_on,3,0,1,,,,,,,,,,,,,,,,,0,,71,46
11250,note_on,0,0,1,,,,,,,,,,,,,,,,,0,,79,43
11277,note_on,0,0,1,,,,,,,,,,,,,,,,,0,,71,0
11277,note_on,27,0,1,,,,,,,,,,,,,,,,,0,,79,0
11280,note_on,3,0,1,,,,,,,,,,,,,,,,,0,,74,51
11280,note_on,0,0,1,,,,,,,,,,,,,,,,,0,,71,43
11307,note_on,27,0,1,,,,,,,,,,,,,,,,,0,,71,0
11307,note_on,0,0,1,,,,,,,,,,,,,,,,,0,,74,0
11310,note_on,3,0,1,,,,,,,,,,,,,,,,,0,,71,46
11310,note_on,0,0,1,,,,,,,,,,,,,,,,,0,,79,42
11337,note_on,27,0,1,,,,,,,,,,,,,,,,,0,,79,0
11337,note_on,0,0,1,,,,,,,,,,,,,,,,,0,,71,0
11340,note_on,3,0,1,,,,,,,,,,,,,,,,,0,,74,56
11340,note_on,0,0,1,,,,,,,,,,,,,,,,,0,,70,50
11367,note_on,27,0,1,,,,,,,,,,,,,,,,,0,,70,0
11367,note_on,0,0,1,,,,,,,,,,,,,,,,,0,,74,0
11370,note_on,0,0,1,,,,,,,,,,,,,,,,,0,,79,46
11370,note_on,3,0,1,,,,,,,,,,,,,,,,,0,,70,48
11384,control_change,14,0,1,,,,,,,,,,,,,,,64,0,0,,,
11397,note_on,13,0,1,,,,,,,,,,,,,,,,,0,,79,0
11397,note_on,0,0,1,,,,,,,,,,,,,,,,,0,,70,0
11399,note_on,2,0,1,,,,,,,,,,,,,,,,,0,,62,72
11400,note_on,1,0,1,,,,,,,,,,,,,,,,,0,,70,56
11400,note_on,0,0,1,,,,,,,,,,,,,,,,,0,,74,60
11401,note_on,1,0,1,,,,,,,,,,,,,,,,,0,,67,0
11427,note_on,26,0,1,,,,,,,,,,,,,,,,,0,,74,0
11427,note_on,0,0,1,,,,,,,,,,,,,,,,,0,,70,0
11430,note_on,0,0,1,,,,,,,,,,,,,,,,,0,,79,48
11430,note_on,3,0,1,,,,,,,,,,,,,,,,,0,,70,47
11457,note_on,0,0,1,,,,,,,,,,,,,,,,,0,,70,0
11457,note_on,27,0,1,,,,,,,,,,,,,,,,,0,,79,0
11459,note_on,2,0,1,,,,,,,,,,,,,,,,,0,,64,71
11460,note_on,1,0,1,,,,,,,,,,,,,,,,,0,,72,60
11460,note_on,0,0,1,,,,,,,,,,,,,,,,,0,,70,46
11467,note_on,7,0,1,,,,,,,,,,,,,,,,,0,,62,0
11487,note_on,20,0,1,,,,,,,,,,,,,,,,,0,,70,0
11487,note_on,0,0,1,,,,,,,,,,,,,,,,,0,,72,0
11490,note_on,3,0,1,,,,,,,,,,,,,,,,,0,,70,58
11490,note_on,0,0,1,,,,,,,,,,,,,,,,,0,,79,56
11517,note_on,0,0,1,,,,,,,,,,,,,,,,,0,,70,0
11517,note_on,27,0,1,,,,,,,,,,,,,,,,,0,,79,0
11520,note_on,3,0,1,,,,,,,,,,,,,,,,,0,,69,43
11520,note_on,0,0,1,,,,,,,,,,,,,,,,,0,,72,48
11521,note_on,1,0,1,,,,,,,,,,,,,,,,,0,,65,73
11526,note_on,5,0,1,,,,,,,,,,,,,,,,,0,,64,0
11541,control_change,15,0,1,,,,,,,,,,,,,,,64,127,0,,,
11547,note_on,0,0,1,,,,,,,,,,,,,,,,,0,,72,0
11547,note_on,6,0,1,,,,,,,,,,,,,,,,,0,,69,0
11550,note_on,0,0,1,,,,,,,,,,,,,,,,,0,,77,49
11550,note_on,3,0,1,,,,,,,,,,,,,,,,,0,,69,52
11577,note_on,27,0,1,,,,,,,,,,,,,,,,,0,,77,0
11577,note_on,0,0,1,,,,,,,,,,,,,,,,,0,,69,0
11580,note_on,3,0,1,,,,,,,,,,,,,,,,,0,,72,44
11580,note_on,0,0,1,,,,,,,,,,,,,,,,,0,,69,39
11607,note_on,27,0,1,,,,,,,,,,,,,,,,,0,,69,0
11607,note_on,0,0,1,,,,,,,,,,,,,,,,,0,,72,0
11610,note_on,3,0,1,,,,,,,,,,,,,,,,,0,,69,48
11610,note_on,0,0,1,,,,,,,,,,,,,,,,,0,,77,48
11637,note_on,27,0,1,,,,,,,,,,,,,,,,,0,,77,0
11637,note_on,0,0,1,,,,,,,,,,,,,,,,,0,,69,0
11640,note_on,3,0,1,,,,,,,,,,,,,,,,,0,,69,50
11640,note_on,0,0,1,,,,,,,,,,,,,,,,,0,,72,52
11667,note_on,27,0,1,,,,,,,,,,,,,,,,,0,,72,0
11667,note_on,0,0,1,,,,,,,,,,,,,,,,,0,,69,0
11670,note_on,3,0,1,,,,,,,,,,,,,,,,,0,,69,45
11670,note_on,0,0,1,,,,,,,,,,,,,,,,,0,,77,39
11697,note_on,27,0,1,,,,,,,,,,,,,,,,,0,,77,0
11697,note_on,0,0,1,,,,,,,,,,,,,,,,,0,,69,0
11700,note_on,3,0,1,,,,,,,,,,,,,,,,,0,,72,55
11700,note_on,0,0,1,,,,,,,,,,,,,,,,,0,,69,53
11727,note_on,27,0,1,,,,,,,,,,,,,,,,,0,,69,0
11727,note_on,0,0,1,,,,,,,,,,,,,,,,,0,,72,0
11730,note_on,0,0,1,,,,,,,,,,,,,,,,,0,,77,45
11730,note_on,3,0,1,,,,,,,,,,,,,,,,,0,,69,44
11750,control_change,20,0,1,,,,,,,,,,,,,,,64,0,0,,,
11757,note_on,7,0,1,,,,,,,,,,,,,,,,,0,,77,0
11757,note_on,0,0,1,,,,,,,,,,,,,,,,,0,,69,0
11759,note_on,2,0,1,,,,,,,,,,,,,,,,,0,,60,68
11760,note_on,1,0,1,,,,,,,,,,,,,,,,,0,,72,51
11760,note_on,0,0,1,,,,,,,,,,,,,,,,,0,,69,47
11769,note_on,9,0,1,,,,,,,,,,,,,,,,,0,,65,0
11787,note_on,0,0,1,,,,,,,,,,,,,,,,,0,,72,0
11787,note_on,18,0,1,,,,,,,,,,,,,,,,,0,,69,0
11790,note_on,3,0,1,,,,,,,,,,,,,,,,,0,,69,46
11790,note_on,0,0,1,,,,,,,,,,,,,,,,,0,,77,42
11817,note_on,27,0,1,,,,,,,,,,,,,,,,,0,,77,0
11817,note_on,0,0,1,,,,,,,,,,,,,,,,,0,,69,0
11820,note_on,0,0,1,,,,,,,,,,,,,,,,,0,,69,49
11820,note_on,3,0,1,,,,,,,,,,,,,,,,,0,,71,51
11821,note_on,1,0,1,,,,,,,,,,,,,,,,,0,,62,70
11833,note_on,12,0,1,,,,,,,,,,,,,,,,,0,,60,0
11847,note_on,14,0,1,,,,,,,,,,,,,,,,,0,,71,0
11847,note_on,0,0,1,,,,,,,,,,,,,,,,,0,,69,0
11850,note_on,3,0,1,,,,,,,,,,,,,,,,,0,,69,45
11850,note_on,0,0,1,,,,,,,,,,,,,,,,,0,,77,43
11877,note_on,27,0,1,,,,,,,,,,,,,,,,,0,,77,0
11877,note_on,0,0,1,,,,,,,,,,,,,,,,,0,,69,0
11880,note_on,0,0,1,,,,,,,,,,,,,,,,,0,,71,51
11880,note_on,3,0,1,,,,,,,,,,,,,,,,,0,,68,47
11881,note_on,1,0,1,,,,,,,,,,,,,,,,,0,,64,71
11885,note_on,4,0,1,,,,,,,,,,,,,,,,,0,,62,0
11890,control_change,5,0,1,,,,,,,,,,,,,,,64,127,0,,,
11907,note_on,17,0,1,,,,,,,,,,,,,,,,,0,,68,0
11907,note_on,0,0,1,,,,,,,,,,,,,,,,,0,,71,0
11910,note_on,3,0,1,,,,,,,,,,,,,,,,,0,,68,54
11910,note_on,0,0,1,,,,,,,,,,,,,,,,,0,,76,50
11937,note_on,27,0,1,,,,,,,,,,,,,,,,,0,,76,0
11937,note_on,0,0,1,,,,,,,,,,,,,,,,,0,,68,0
11940,note_on,3,0,1,,,,,,,,,,,,,,,,,0,,67,43
11940,note_on,0,0,1,,,,,,,,,,,,,,,,,0,,71,50
11941,note_on,1,0,1,,,,,,,,,,,,,,,,,0,,59,72
11945,note_on,4,0,1,,,,,,,,,,,,,,,,,0,,64,0
11953,control_change,8,0,1,,,,,,,,,,,,,,,64,0,0,,,
11967,note_on,14,0,1,,,,,,,,,,,,,,,,,0,,67,0
11967,note_on,0,0,1,,,,,,,,,,,,,,,,,0,,71,0
11970,note_on,0,0,1,,,,,,,,,,,,,,,,,0,,76,47
11970,note_on,3,0,1,,,,,,,,,,,,,,,,,0,,67,42
11997,note_on,27,0,1,,,,,,,,,,,,,,,,,0,,76,0
11997,note_on,0,0,1,,,,,,,,,,,,,,,,,0,,67,0
12000,note_on,3,0,1,,,,,,,,,,,,,,,,,0,,67,40
12000,note_on,0,0,1,,,,,,,,,,,,,,,,,0,,69,23
12001,note_on,1,0,1,,,,,,,,,,,,,,,,,0,,61,73
12010,note_on,9,0,1,,,,,,,,,,,,,,,,,0,,59,0
12027,note_on,17,0,1,,,,,,,,,,,,,,,,,0,,67,0
12027,note_on,0,0,1,,,,,,,,,,,,,,,,,0,,69,0
12030,note_on,3,0,1,,,,,,,,,,,,,,,,,0,,67,46
12030,note_on,0,0,1,,,,,,,,,,,,,,,,,0,,76,46
12057,note_on,0,0,1,,,,,,,,,,,,,,,,,0,,67,0
12057,note_on,27,0,1,,,,,,,,,,,,,,,,,0,,76,0
12060,note_on,3,0,1,,,,,,,,,,,,,,,,,0,,69,45
12060,note_on,0,0,1,,,,,,,,,,,,,,,,,0,,66,41
12061,note_on,1,0,1,,,,,,,,,,,,,,,,,0,,62,71
12067,note_on,6,0,1,,,,,,,,,,,,,,,,,0,,61,0
12068,control_change,1,0,1,,,,,,,,,,,,,,,64,127,0,,,
12087,note_on,19,0,1,,,,,,,,,,,,,,,,,0,,69,0
12087,note_on,0,0,1,,,,,,,,,,,,,,,,,0,,66,0
12090,note_on,3,0,1,,,,,,,,,,,,,,,,,0,,74,52
12090,note_on,0,0,1,,,,,,,,,,,,,,,,,0,,66,56
12117,note_on,27,0,1,,,,,,,,,,,,,,,,,0,,66,0
12117,note_on,0,0,1,,,,,,,,,,,,,,,,,0,,74,0
12119,note_on,2,0,1,,,,,,,,,,,,,,,,,0,,57,71
12120,note_on,0,0,1,,,,,,,,,,,,,,,,,0,,69,52
12120,note_on,1,0,1,,,,,,,,,,,,,,,,,0,,65,43
12122,note_on,2,0,1,,,,,,,,,,,,,,,,,0,,62,0
12122,control_change,0,0,1,,,,,,,,,,,,,,,64,0,0,,,
12147,note_on,25,0,1,,,,,,,,,,,,,,,,,0,,69,0
12147,note_on,0,0,1,,,,,,,,,,,,,,,,,0,,65,0
12150,note_on,3,0,1,,,,,,,,,,,,,,,,,0,,65,45
12150,note_on,0,0,1,,,,,,,,,,,,,,,,,0,,74,45
12177,note_on,27,0,1,,,,,,,,,,,,,,,,,0,,74,0
12177,note_on,0,0,1,,,,,,,,,,,,,,,,,0,,65,0
12180,note_on,0,0,1,,,,,,,,,,,,,,,,,0,,59,71
12180,note_on,0,0,1,,,,,,,,,,,,,,,,,0,,65,40
12180,note_on,3,0,1,,,,,,,,,,,,,,,,,0,,67,51
12193,note_on,13,0,1,,,,,,,,,,,,,,,,,0,,57,0
12207,note_on,14,0,1,,,,,,,,,,,,,,,,,0,,67,0
12207,note_on,0,0,1,,,,,,,,,,,,,,,,,0,,65,0
12210,note_on,3,0,1,,,,,,,,,,,,,,,,,0,,65,45
12210,note_on,0,0,1,,,,,,,,,,,,,,,,,0,,74,46
12237,note_on,27,0,1,,,,,,,,,,,,,,,,,0,,74,0
12237,note_on,0,0,1,,,,,,,,,,,,,,,,,0,,65,0
12240,note_on,0,0,1,,,,,,,,,,,,,,,,,0,,67,47
12240,note_on,3,0,1,,,,,,,,,,,,,,,,,0,,64,38
12240,set_tempo,1440,1,0,,,,,,,,,,,,,,452830,,,,,,
12241,note_on,1,0,1,,,,,,,,,,,,,,,,,0,,59,0
12241,note_on,0,0,1,,,,,,,,,,,,,,,,,0,,60,73
12267,note_on,26,0,1,,,,,,,,,,,,,,,,,0,,67,0
12267,note_on,0,0,1,,,,,,,,,,,,,,,,,0,,64,0
12270,set_tempo,30,1,0,,,,,,,,,,,,,,451128,,,,,,
12270,note_on,3,0,1,,,,,,,,,,,,,,,,,0,,64,40
12270,note_on,0,0,1,,,,,,,,,,,,,,,,,0,,72,46
12297,note_on,27,0,1,,,,,,,,,,,,,,,,,0,,72,0
12297,note_on,0,0,1,,,,,,,,,,,,,,,,,0,,64,0
12300,note_on,0,0,1,,,,,,,,,,,,,,,,,0,,63,42
12300,note_on,3,0,1,,,,,,,,,,,,,,,,,0,,68,53
12300,set_tempo,30,1,0,,,,,,,,,,,,,,449438,,,,,,
12301,note_on,1,0,1,,,,,,,,,,,,,,,,,0,,56,73
12308,note_on,7,0,1,,,,,,,,,,,,,,,,,0,,60,0
12327,note_on,19,0,1,,,,,,,,,,,,,,,,,0,,68,0
12327,note_on,0,0,1,,,,,,,,,,,,,,,,,0,,63,0
12330,note_on,3,0,1,,,,,,,,,,,,,,,,,0,,72,46
12330,note_on,0,0,1,,,,,,,,,,,,,,,,,0,,63,48
12330,set_tempo,30,1,0,,,,,,,,,,,,,,447761,,,,,,
12355,set_tempo,25,1,0,,,,,,,,,,,,,,446097,,,,,,
12357,note_on,27,0,1,,,,,,,,,,,,,,,,,0,,63,0
12357,note_on,0,0,1,,,,,,,,,,,,,,,,,0,,72,0
12360,note_on,3,0,1,,,,,,,,,,,,,,,,,0,,69,57
12360,note_on,0,0,1,,,,,,,,,,,,,,,,,0,,63,42
12360,note_on,0,0,1,,,,,,,,,,,,,,,,,0,,54,73
12366,note_on,6,0,1,,,,,,,,,,,,,,,,,0,,56,0
12385,set_tempo,30,1,0,,,,,,,,,,,,,,444444,,,,,,
12387,note_on,0,0,1,,,,,,,,,,,,,,,,,0,,63,0
12387,note_on,21,0,1,,,,,,,,,,,,,,,,,0,,69,0
12390,note_on,3,0,1,,,,,,,,,,,,,,,,,0,,63,51
12390,note_on,0,0,1,,,,,,,,,,,,,,,,,0,,72,47
12415,set_tempo,30,1,0,,,,,,,,,,,,,,442804,,,,,,
12417,note_on,0,0,1,,,,,,,,,,,,,,,,,0,,63,0
12417,note_on,27,0,1,,,,,,,,,,,,,,,,,0,,72,0
12420,note_on,0,0,1,,,,,,,,,,,,,,,,,0,,67,51
12420,note_on,3,0,1,,,,,,,,,,,,,,,,,0,,64,48
12421,note_on,1,0,1,,,,,,,,,,,,,,,,,0,,55,70
12424,control_change,0,0,1,,,,,,,,,,,,,,,64,127,0,,,
12424,note_on,3,0,1,,,,,,,,,,,,,,,,,0,,54,0
12445,set_tempo,30,1,0,,,,,,,,,,,,,,441176,,,,,,
12447,note_on,23,0,1,,,,,,,,,,,,,,,,,0,,64,0
12447,note_on,0,0,1,,,,,,,,,,,,,,,,,0,,67,0
12450,note_on,3,0,1,,,,,,,,,,,,,,,,,0,,64,49
12450,note_on,0,0,1,,,,,,,,,,,,,,,,,0,,72,41
12470,set_tempo,25,1,0,,,,,,,,,,,,,,439560,,,,,,
12477,note_on,0,0,1,,,,,,,,,,,,,,,,,0,,64,0
12477,note_on,27,0,1,,,,,,,,,,,,,,,,,0,,72,0
12480,note_on,3,0,1,,,,,,,,,,,,,,,,,0,,66,51
12480,note_on,0,0,1,,,,,,,,,,,,,,,,,0,,43,73
12480,note_on,0,0,1,,,,,,,,,,,,,,,,,0,,63,46
12483,note_on,3,0,1,,,,,,,,,,,,,,,,,0,,55,0
12484,control_change,1,0,1,,,,,,,,,,,,,,,64,0,0,,,
12500,set_tempo,30,1,0,,,,,,,,,,,,,,437956,,,,,,
12507,note_on,23,0,1,,,,,,,,,,,,,,,,,0,,66,0
12507,note_on,0,0,1,,,,,,,,,,,,,,,,,0,,63,0
12510,note_on,0,0,1,,,,,,,,,,,,,,,,,0,,72,43
12510,note_on,3,0,1,,,,,,,,,,,,,,,,,0,,63,49
12530,set_tempo,30,1,0,,,,,,,,,,,,,,436364,,,,,,
12537,note_on,27,0,1,,,,,,,,,,,,,,,,,0,,72,0
12537,note_on,0,0,1,,,,,,,,,,,,,,,,,0,,63,0
12540,note_on,3,0,1,,,,,,,,,,,,,,,,,0,,62,43
12540,note_on,0,0,1,,,,,,,,,,,,,,,,,0,,65,46
12541,note_on,1,0,1,,,,,,,,,,,,,,,,,0,,55,73
12550,note_on,9,0,1,,,,,,,,,,,,,,,,,0,,43,0
12557,note_on,7,0,1,,,,,,,,,,,,,,,,,0,,55,0
12560,set_tempo,30,1,0,,,,,,,,,,,,,,434783,,,,,,
12567,note_on,10,0,1,,,,,,,,,,,,,,,,,0,,65,0
12567,note_on,0,0,1,,,,,,,,,,,,,,,,,0,,62,0
12570,note_on,0,0,1,,,,,,,,,,,,,,,,,0,,71,43
12570,note_on,3,0,1,,,,,,,,,,,,,,,,,0,,62,45
12585,set_tempo,25,1,0,,,,,,,,,,,,,,433213,,,,,,
12595,note_on,25,0,1,,,,,,,,,,,,,,,,,0,,36,71
12596,set_tempo,11,1,0,,,,,,,,,,,,,,441176,,,,,,
12597,note_on,2,0,1,,,,,,,,,,,,,,,,,0,,71,0
12597,note_on,0,0,1,,,,,,,,,,,,,,,,,0,,62,0
12599,control_change,2,0,1,,,,,,,,,,,,,,,64,127,0,,,
12600,note_on,0,0,1,,,,,,,,,,,,,,,,,0,,48,73
12600,note_on,0,0,1,,,,,,,,,,,,,,,,,0,,67,33
12600,note_on,1,0,1,,,,,,,,,,,,,,,,,0,,64,41
12611,note_on,11,0,1,,,,,,,,,,,,,,,,,0,,36,0
12627,note_on,0,0,1,,,,,,,,,,,,,,,,,0,,67,0
12627,note_on,16,0,1,,,,,,,,,,,,,,,,,0,,64,0
12630,note_on,3,0,1,,,,,,,,,,,,,,,,,0,,64,41
12630,note_on,0,0,1,,,,,,,,,,,,,,,,,0,,72,42
12655,control_change,25,0,1,,,,,,,,,,,,,,,64,0,0,,,
12657,note_on,2,0,1,,,,,,,,,,,,,,,,,0,,72,0
12657,note_on,0,0,1,,,,,,,,,,,,,,,,,0,,64,0
12660,note_on,0,0,1,,,,,,,,,,,,,,,,,0,,68,62
12660,note_on,3,0,1,,,,,,,,,,,,,,,,,0,,65,46
12662,note_on,2,0,1,,,,,,,,,,,,,,,,,0,,56,69
12668,control_change,6,0,1,,,,,,,,,,,,,,,64,127,0,,,
12687,note_on,19,0,1,,,,,,,,,,,,,,,,,0,,68,0
12687,note_on,0,0,1,,,,,,,,,,,,,,,,,0,,65,0
12690,note_on,3,0,1,,,,,,,,,,,,,,,,,0,,65,48
12690,note_on,0,0,1,,,,,,,,,,,,,,,,,0,,74,48
12717,note_on,27,0,1,,,,,,,,,,,,,,,,,0,,74,0
12717,note_on,0,0,1,,,,,,,,,,,,,,,,,0,,65,0
12720,note_on,3,0,1,,,,,,,,,,,,,,,,,0,,62,36
12720,note_on,0,0,1,,,,,,,,,,,,,,,,,0,,65,49
12747,note_on,27,0,1,,,,,,,,,,,,,,,,,0,,65,0
12747,note_on,0,0,1,,,,,,,,,,,,,,,,,0,,62,0
12750,note_on,0,0,1,,,,,,,,,,,,,,,,,0,,71,39
12750,note_on,3,0,1,,,,,,,,,,,,,,,,,0,,62,42
12771,control_change,21,0,1,,,,,,,,,,,,,,,64,0,0,,,
12777,note_on,6,0,1,,,,,,,,,,,,,,,,,0,,71,0
12777,note_on,0,0,1,,,,,,,,,,,,,,,,,0,,62,0
12780,note_on,3,0,1,,,,,,,,,,,,,,,,,0,,59,39
12780,note_on,0,0,1,,,,,,,,,,,,,,,,,0,,62,37
12781,note_on,1,0,1,,,,,,,,,,,,,,,,,0,,55,74
12785,note_on,4,0,1,,,,,,,,,,,,,,,,,0,,56,0
12807,note_on,0,0,1,,,,,,,,,,,,,,,,,0,,59,0
12807,note_on,22,0,1,,,,,,,,,,,,,,,,,0,,62,0
12810,note_on,0,0,1,,,,,,,,,,,,,,,,,0,,67,45
12810,note_on,3,0,1,,,,,,,,,,,,,,,,,0,,59,42
12837,note_on,27,0,1,,,,,,,,,,,,,,,,,0,,67,0
12837,note_on,0,0,1,,,,,,,,,,,,,,,,,0,,59,0
12840,note_on,3,0,1,,,,,,,,,,,,,,,,,0,,60,40
12840,note_on,0,0,1,,,,,,,,,,,,,,,,,0,,63,53
12841,note_on,1,0,1,,,,,,,,,,,,,,,,,0,,54,70
12849,note_on,8,0,1,,,,,,,,,,,,,,,,,0,,55,0
12867,note_on,0,0,1,,,,,,,,,,,,,,,,,0,,60,0
12867,note_on,18,0,1,,,,,,,,,,,,,,,,,0,,63,0
12870,note_on,3,0,1,,,,,,,,,,,,,,,,,0,,60,48
12870,note_on,0,0,1,,,,,,,,,,,,,,,,,0,,69,55
12897,note_on,27,0,1,,,,,,,,,,,,,,,,,0,,69,0
12897,note_on,0,0,1,,,,,,,,,,,,,,,,,0,,60,0
12899,note_on,2,0,1,,,,,,,,,,,,,,,,,0,,53,69
12900,note_on,1,0,1,,,,,,,,,,,,,,,,,0,,48,0
12900,note_on,0,0,1,,,,,,,,,,,,,,,,,0,,62,50
12900,note_on,0,0,1,,,,,,,,,,,,,,,,,0,,68,54
12904,note_on,4,0,1,,,,,,,,,,,,,,,,,0,,54,0
12927,note_on,23,0,1,,,,,,,,,,,,,,,,,0,,68,0
12927,note_on,0,0,1,,,,,,,,,,,,,,,,,0,,62,0
12930,note_on,3,0,1,,,,,,,,,,,,,,,,,0,,62,42
12930,note_on,0,0,1,,,,,,,,,,,,,,,,,0,,71,52
12943,note_on,13,0,1,,,,,,,,,,,,,,,,,0,,53,0
12957,note_on,0,0,1,,,,,,,,,,,,,,,,,0,,62,0
12957,note_on,14,0,1,,,,,,,,,,,,,,,,,0,,71,0
12960,note_on,0,0,1,,,,,,,,,,,,,,,,,0,,67,45
12960,note_on,3,0,1,,,,,,,,,,,,,,,,,0,,64,42
12961,note_on,1,0,1,,,,,,,,,,,,,,,,,0,,36,79
12963,control_change,2,0,1,,,,,,,,,,,,,,,64,127,0,,,
12987,note_on,0,0,1,,,,,,,,,,,,,,,,,0,,64,0
12987,note_on,24,0,1,,,,,,,,,,,,,,,,,0,,67,0
12990,note_on,3,0,1,,,,,,,,,,,,,,,,,0,,64,44
12990,note_on,0,0,1,,,,,,,,,,,,,,,,,0,,72,54
12991,note_on,1,0,1,,,,,,,,,,,,,,,,,0,,36,0
13014,control_change,23,0,1,,,,,,,,,,,,,,,64,0,0,,,
13017,note_on,3,0,1,,,,,,,,,,,,,,,,,0,,72,0
13017,note_on,0,0,1,,,,,,,,,,,,,,,,,0,,64,0
13020,note_on,3,0,1,,,,,,,,,,,,,,,,,0,,68,51
13020,note_on,0,0,1,,,,,,,,,,,,,,,,,0,,65,32
13021,note_on,1,0,1,,,,,,,,,,,,,,,,,0,,48,80
13026,control_change,5,0,1,,,,,,,,,,,,,,,64,127,0,,,
13047,note_on,0,0,1,,,,,,,,,,,,,,,,,0,,68,0
13047,note_on,21,0,1,,,,,,,,,,,,,,,,,0,,65,0
13050,note_on,0,0,1,,,,,,,,,,,,,,,,,0,,74,61
13050,note_on,3,0,1,,,,,,,,,,,,,,,,,0,,65,47
13077,note_on,0,0,1,,,,,,,,,,,,,,,,,0,,65,0
13077,note_on,27,0,1,,,,,,,,,,,,,,,,,0,,74,0
13080,note_on,0,0,1,,,,,,,,,,,,,,,,,0,,65,45
13080,note_on,3,0,1,,,,,,,,,,,,,,,,,0,,62,37
13082,note_on,2,0,1,,,,,,,,,,,,,,,,,0,,56,71
13107,note_on,0,0,1,,,,,,,,,,,,,,,,,0,,62,0
13107,note_on,25,0,1,,,,,,,,,,,,,,,,,0,,65,0
13110,note_on,0,0,1,,,,,,,,,,,,,,,,,0,,71,48
13110,note_on,3,0,1,,,,,,,,,,,,,,,,,0,,62,47
13128,control_change,18,0,1,,,,,,,,,,,,,,,64,0,0,,,
13137,note_on,9,0,1,,,,,,,,,,,,,,,,,0,,71,0
13137,note_on,0,0,1,,,,,,,,,,,,,,,,,0,,62,0
13140,note_on,3,0,1,,,,,,,,,,,,,,,,,0,,59,43
13140,note_on,0,0,1,,,,,,,,,,,,,,,,,0,,62,48
13141,note_on,0,0,1,,,,,,,,,,,,,,,,,0,,55,71
13141,note_on,1,0,1,,,,,,,,,,,,,,,,,0,,56,0
13167,note_on,0,0,1,,,,,,,,,,,,,,,,,0,,59,0
13167,note_on,26,0,1,,,,,,,,,,,,,,,,,0,,62,0
13170,note_on,0,0,1,,,,,,,,,,,,,,,,,0,,67,45
13170,note_on,3,0,1,,,,,,,,,,,,,,,,,0,,59,45
13197,note_on,27,0,1,,,,,,,,,,,,,,,,,0,,67,0
13197,note_on,0,0,1,,,,,,,,,,,,,,,,,0,,59,0
13200,note_on,0,0,1,,,,,,,,,,,,,,,,,0,,63,51
13200,note_on,3,0,1,,,,,,,,,,,,,,,,,0,,60,45
13201,note_on,1,0,1,,,,,,,,,,,,,,,,,0,,54,71
13205,note_on,4,0,1,,,,,,,,,,,,,,,,,0,,55,0
13227,note_on,0,0,1,,,,,,,,,,,,,,,,,0,,60,0
13227,note_on,22,0,1,,,,,,,,,,,,,,,,,0,,63,0
13230,note_on,3,0,1,,,,,,,,,,,,,,,,,0,,60,51
13230,note_on,0,0,1,,,,,,,,,,,,,,,,,0,,69,47
13255,note_on,25,0,1,,,,,,,,,,,,,,,,,0,,54,0
13257,note_on,2,0,1,,,,,,,,,,,,,,,,,0,,69,0
13257,note_on,0,0,1,,,,,,,,,,,,,,,,,0,,60,0
13259,note_on,2,0,1,,,,,,,,,,,,,,,,,0,,53,72
13260,note_on,1,0,1,,,,,,,,,,,,,,,,,0,,62,47
13260,note_on,0,0,1,,,,,,,,,,,,,,,,,0,,68,51
13287,note_on,27,0,1,,,,,,,,,,,,,,,,,0,,68,0
13287,note_on,0,0,1,,,,,,,,,,,,,,,,,0,,62,0
13290,note_on,3,0,1,,,,,,,,,,,,,,,,,0,,62,39
13290,note_on,0,0,1,,,,,,,,,,,,,,,,,0,,71,41
13317,note_on,27,0,1,,,,,,,,,,,,,,,,,0,,71,0
13317,note_on,0,0,1,,,,,,,,,,,,,,,,,0,,62,0
13319,note_on,2,0,1,,,,,,,,,,,,,,,,,0,,52,73
13320,note_on,0,0,1,,,,,,,,,,,,,,,,,0,,67,47
13320,note_on,1,0,1,,,,,,,,,,,,,,,,,0,,64,46
13325,note_on,5,0,1,,,,,,,,,,,,,,,,,0,,48,0
13329,note_on,4,0,1,,,,,,,,,,,,,,,,,0,,53,0
13347,note_on,18,0,1,,,,,,,,,,,,,,,,,0,,64,0
13347,note_on,0,0,1,,,,,,,,,,,,,,,,,0,,67,0
13350,note_on,3,0,1,,,,,,,,,,,,,,,,,0,,64,45
13350,note_on,0,0,1,,,,,,,,,,,,,,,,,0,,72,51
13377,note_on,27,0,1,,,,,,,,,,,,,,,,,0,,72,0
13377,note_on,0,0,1,,,,,,,,,,,,,,,,,0,,64,0
13379,note_on,2,0,1,,,,,,,,,,,,,,,,,0,,50,70
13380,note_on,1,0,1,,,,,,,,,,,,,,,,,0,,65,42
13380,note_on,0,0,1,,,,,,,,,,,,,,,,,0,,71,49
13385,note_on,5,0,1,,,,,,,,,,,,,,,,,0,,52,0
13407,note_on,22,0,1,,,,,,,,,,,,,,,,,0,,71,0
13407,note_on,0,0,1,,,,,,,,,,,,,,,,,0,,65,0
13410,note_on,3,0,1,,,,,,,,,,,,,,,,,0,,65,45
13410,note_on,0,0,1,,,,,,,,,,,,,,,,,0,,74,43
13437,note_on,0,0,1,,,,,,,,,,,,,,,,,0,,65,0
13437,note_on,27,0,1,,,,,,,,,,,,,,,,,0,,74,0
13439,note_on,2,0,1,,,,,,,,,,,,,,,,,0,,49,72
13440,note_on,1,0,1,,,,,,,,,,,,,,,,,0,,70,56
13440,note_on,0,0,1,,,,,,,,,,,,,,,,,0,,67,47
13446,note_on,6,0,1,,,,,,,,,,,,,,,,,0,,50,0
13454,control_change,8,0,1,,,,,,,,,,,,,,,64,127,0,,,
13467,note_on,13,0,1,,,,,,,,,,,,,,,,,0,,67,0
13467,note_on,0,0,1,,,,,,,,,,,,,,,,,0,,70,0
13470,note_on,3,0,1,,,,,,,,,,,,,,,,,0,,76,55
13470,note_on,0,0,1,,,,,,,,,,,,,,,,,0,,67,48
13497,note_on,27,0,1,,,,,,,,,,,,,,,,,0,,67,0
13497,note_on,0,0,1,,,,,,,,,,,,,,,,,0,,76,0
13500,note_on,3,0,1,,,,,,,,,,,,,,,,,0,,76,45
13500,note_on,0,0,1,,,,,,,,,,,,,,,,,0,,70,41
13501,note_on,1,0,1,,,,,,,,,,,,,,,,,0,,61,77
13527,note_on,0,0,1,,,,,,,,,,,,,,,,,0,,76,0
13527,note_on,26,0,1,,,,,,,,,,,,,,,,,0,,70,0
13530,note_on,3,0,1,,,,,,,,,,,,,,,,,0,,79,49
13530,note_on,0,0,1,,,,,,,,,,,,,,,,,0,,70,45
13550,note_on,20,0,1,,,,,,,,,,,,,,,,,0,,61,0
13553,note_on,3,0,1,,,,,,,,,,,,,,,,,0,,49,0
13557,note_on,4,0,1,,,,,,,,,,,,,,,,,0,,79,0
13557,note_on,0,0,1,,,,,,,,,,,,,,,,,0,,70,0
13560,note_on,3,0,1,,,,,,,,,,,,,,,,,0,,69,47
13560,note_on,0,0,1,,,,,,,,,,,,,,,,,0,,74,51
13561,note_on,1,0,1,,,,,,,,,,,,,,,,,0,,62,76
13561,note_on,0,0,1,,,,,,,,,,,,,,,,,0,,50,68
13577,control_change,16,0,1,,,,,,,,,,,,,,,64,0,0,,,
13587,note_on,10,0,1,,,,,,,,,,,,,,,,,0,,74,0
13587,note_on,0,0,1,,,,,,,,,,,,,,,,,0,,69,0
13590,note_on,0,0,1,,,,,,,,,,,,,,,,,0,,77,51
13590,note_on,3,0,1,,,,,,,,,,,,,,,,,0,,69,45
13598,note_on,8,0,1,,,,,,,,,,,,,,,,,0,,50,0
13601,note_on,3,0,1,,,,,,,,,,,,,,,,,0,,62,0
13617,note_on,16,0,1,,,,,,,,,,,,,,,,,0,,69,0
13617,note_on,0,0,1,,,,,,,,,,,,,,,,,0,,77,0
13620,note_on,3,0,1,,,,,,,,,,,,,,,,,0,,67,42
13620,note_on,0,0,1,,,,,,,,,,,,,,,,,0,,69,51
13620,note_on,0,0,1,,,,,,,,,,,,,,,,,0,,61,78
13621,note_on,1,0,1,,,,,,,,,,,,,,,,,0,,52,66
13625,control_change,4,0,1,,,,,,,,,,,,,,,64,127,0,,,
13647,note_on,22,0,1,,,,,,,,,,,,,,,,,0,,69,0
13647,note_on,0,0,1,,,,,,,,,,,,,,,,,0,,67,0
13650,note_on,3,0,1,,,,,,,,,,,,,,,,,0,,67,46
13650,note_on,0,0,1,,,,,,,,,,,,,,,,,0,,76,52
13664,note_on,0,0,1,,,,,,,,,,,,,,,,,0,,52,0
13664,note_on,14,0,1,,,,,,,,,,,,,,,,,0,,61,0
13677,note_on,13,0,1,,,,,,,,,,,,,,,,,0,,67,0
13677,note_on,0,0,1,,,,,,,,,,,,,,,,,0,,76,0
13680,note_on,3,0,1,,,,,,,,,,,,,,,,,0,,67,43
13680,note_on,0,0,1,,,,,,,,,,,,,,,,,0,,69,46
13681,note_on,1,0,1,,,,,,,,,,,,,,,,,0,,52,65
13681,note_on,0,0,1,,,,,,,,,,,,,,,,,0,,61,79
13707,note_on,26,0,1,,,,,,,,,,,,,,,,,0,,69,0
13707,note_on,0,0,1,,,,,,,,,,,,,,,,,0,,67,0
13710,note_on,3,0,1,,,,,,,,,,,,,,,,,0,,76,50
13710,note_on,0,0,1,,,,,,,,,,,,,,,,,0,,67,42
13726,note_on,16,0,1,,,,,,,,,,,,,,,,,0,,52,0
13726,note_on,0,0,1,,,,,,,,,,,,,,,,,0,,61,0
13737,note_on,11,0,1,,,,,,,,,,,,,,,,,0,,76,0
13737,note_on,0,0,1,,,,,,,,,,,,,,,,,0,,67,0
13740,note_on,3,0,1,,,,,,,,,,,,,,,,,0,,65,39
13740,note_on,0,0,1,,,,,,,,,,,,,,,,,0,,69,54
13741,note_on,0,0,1,,,,,,,,,,,,,,,,,0,,53,65
13741,note_on,1,0,1,,,,,,,,,,,,,,,,,0,,62,76
13742,control_change,1,0,1,,,,,,,,,,,,,,,64,0,0,,,
13767,note_on,0,0,1,,,,,,,,,,,,,,,,,0,,65,0
13767,note_on,25,0,1,,,,,,,,,,,,,,,,,0,,69,0
13770,note_on,0,0,1,,,,,,,,,,,,,,,,,0,,74,49
13770,note_on,3,0,1,,,,,,,,,,,,,,,,,0,,65,47
13788,note_on,18,0,1,,,,,,,,,,,,,,,,,0,,62,0
13793,note_on,5,0,1,,,,,,,,,,,,,,,,,0,,53,0
13797,note_on,0,0,1,,,,,,,,,,,,,,,,,0,,74,0
13797,note_on,4,0,1,,,,,,,,,,,,,,,,,0,,65,0
13800,note_on,0,0,1,,,,,,,,,,,,,,,,,0,,69,55
13800,note_on,3,0,1,,,,,,,,,,,,,,,,,0,,63,47
13801,note_on,1,0,1,,,,,,,,,,,,,,,,,0,,54,77
13827,note_on,26,0,1,,,,,,,,,,,,,,,,,0,,69,0
13827,note_on,0,0,1,,,,,,,,,,,,,,,,,0,,63,0
13830,note_on,3,0,1,,,,,,,,,,,,,,,,,0,,63,45
13830,note_on,0,0,1,,,,,,,,,,,,,,,,,0,,72,46
13846,note_on,16,0,1,,,,,,,,,,,,,,,,,0,,54,0
13857,note_on,11,0,1,,,,,,,,,,,,,,,,,0,,72,0
13857,note_on,0,0,1,,,,,,,,,,,,,,,,,0,,63,0
13860,note_on,3,0,1,,,,,,,,,,,,,,,,,0,,64,39
13860,note_on,0,0,1,,,,,,,,,,,,,,,,,0,,67,46
13860,note_on,0,0,1,,,,,,,,,,,,,,,,,0,,55,78
13866,control_change,6,0,1,,,,,,,,,,,,,,,64,127,0,,,
13887,note_on,21,0,1,,,,,,,,,,,,,,,,,0,,67,0
13887,note_on,0,0,1,,,,,,,,,,,,,,,,,0,,64,0
13890,note_on,3,0,1,,,,,,,,,,,,,,,,,0,,64,46
13890,note_on,0,0,1,,,,,,,,,,,,,,,,,0,,72,52
13907,note_on,17,0,1,,,,,,,,,,,,,,,,,0,,55,0
13917,note_on,0,0,1,,,,,,,,,,,,,,,,,0,,64,0
13917,note_on,10,0,1,,,,,,,,,,,,,,,,,0,,72,0
13919,note_on,2,0,1,,,,,,,,,,,,,,,,,0,,43,79
13920,note_on,0,0,1,,,,,,,,,,,,,,,,,0,,63,45
13920,note_on,1,0,1,,,,,,,,,,,,,,,,,0,,66,53
13923,control_change,3,0,1,,,,,,,,,,,,,,,64,0,0,,,
13947,note_on,24,0,1,,,,,,,,,,,,,,,,,0,,63,0
13947,note_on,0,0,1,,,,,,,,,,,,,,,,,0,,66,0
13950,note_on,3,0,1,,,,,,,,,,,,,,,,,0,,72,49
13950,note_on,0,0,1,,,,,,,,,,,,,,,,,0,,63,47
13969,note_on,19,0,1,,,,,,,,,,,,,,,,,0,,43,0
13977,note_on,8,0,1,,,,,,,,,,,,,,,,,0,,63,0
13977,note_on,0,0,1,,,,,,,,,,,,,,,,,0,,72,0
13979,note_on,2,0,1,,,,,,,,,,,,,,,,,0,,55,75
13980,note_on,1,0,1,,,,,,,,,,,,,,,,,0,,62,47
13980,note_on,0,0,1,,,,,,,,,,,,,,,,,0,,65,55
14005,note_on,25,0,1,,,,,,,,,,,,,,,,,0,,55,0
14007,note_on,0,0,1,,,,,,,,,,,,,,,,,0,,62,0
14007,note_on,2,0,1,,,,,,,,,,,,,,,,,0,,65,0
14010,note_on,3,0,1,,,,,,,,,,,,,,,,,0,,62,49
14010,note_on,0,0,1,,,,,,,,,,,,,,,,,0,,71,51
14037,note_on,27,0,1,,,,,,,,,,,,,,,,,0,,71,0
14037,note_on,0,0,1,,,,,,,,,,,,,,,,,0,,62,0
14039,control_change,2,0,1,,,,,,,,,,,,,,,64,127,0,,,
14040,note_on,1,0,1,,,,,,,,,,,,,,,,,0,,64,41
14040,note_on,0,0,1,,,,,,,,,,,,,,,,,0,,67,45
14041,note_on,1,0,1,,,,,,,,,,,,,,,,,0,,36,79
14058,note_on,17,0,1,,,,,,,,,,,,,,,,,0,,36,0
14067,note_on,9,0,1,,,,,,,,,,,,,,,,,0,,67,0
14067,note_on,0,0,1,,,,,,,,,,,,,,,,,0,,64,0
14070,note_on,3,0,1,,,,,,,,,,,,,,,,,0,,64,41
14070,note_on,0,0,1,,,,,,,,,,,,,,,,,0,,72,52
14088,control_change,18,0,1,,,,,,,,,,,,,,,64,0,0,,,
14097,note_on,9,0,1,,,,,,,,,,,,,,,,,0,,72,0
14097,note_on,0,0,1,,,,,,,,,,,,,,,,,0,,64,0
14099,note_on,2,0,1,,,,,,,,,,,,,,,,,0,,48,79
14100,note_on,0,0,1,,,,,,,,,,,,,,,,,0,,65,43
14100,note_on,1,0,1,,,,,,,,,,,,,,,,,0,,68,53
14104,control_change,4,0,1,,,,,,,,,,,,,,,64,127,0,,,
14127,note_on,23,0,1,,,,,,,,,,,,,,,,,0,,65,0
14127,note_on,0,0,1,,,,,,,,,,,,,,,,,0,,68,0
14130,note_on,3,0,1,,,,,,,,,,,,,,,,,0,,65,50
14130,note_on,0,0,1,,,,,,,,,,,,,,,,,0,,74,62
14157,note_on,0,0,1,,,,,,,,,,,,,,,,,0,,65,0
14157,note_on,27,0,1,,,,,,,,,,,,,,,,,0,,74,0
14160,note_on,0,0,1,,,,,,,,,,,,,,,,,0,,65,51
14160,note_on,3,0,1,,,,,,,,,,,,,,,,,0,,62,38
14161,note_on,1,0,1,,,,,,,,,,,,,,,,,0,,56,70
14187,note_on,0,0,1,,,,,,,,,,,,,,,,,0,,62,0
14187,note_on,26,0,1,,,,,,,,,,,,,,,,,0,,65,0
14190,note_on,3,0,1,,,,,,,,,,,,,,,,,0,,62,43
14190,note_on,0,0,1,,,,,,,,,,,,,,,,,0,,71,47
14217,note_on,27,0,1,,,,,,,,,,,,,,,,,0,,71,0
14217,note_on,0,0,1,,,,,,,,,,,,,,,,,0,,62,0
14220,note_on,3,0,1,,,,,,,,,,,,,,,,,0,,59,36
14220,note_on,0,0,1,,,,,,,,,,,,,,,,,0,,62,41
14221,note_on,1,0,1,,,,,,,,,,,,,,,,,0,,55,73
14224,note_on,3,0,1,,,,,,,,,,,,,,,,,0,,56,0
14226,control_change,2,0,1,,,,,,,,,,,,,,,64,0,0,,,
14247,note_on,0,0,1,,,,,,,,,,,,,,,,,0,,59,0
14247,note_on,21,0,1,,,,,,,,,,,,,,,,,0,,62,0
14250,note_on,3,0,1,,,,,,,,,,,,,,,,,0,,59,40
14250,note_on,0,0,1,,,,,,,,,,,,,,,,,0,,67,47
14277,note_on,27,0,1,,,,,,,,,,,,,,,,,0,,67,0
14277,note_on,0,0,1,,,,,,,,,,,,,,,,,0,,59,0
14279,note_on,2,0,1,,,,,,,,,,,,,,,,,0,,54,75
14280,note_on,1,0,1,,,,,,,,,,,,,,,,,0,,63,56
14280,note_on,0,0,1,,,,,,,,,,,,,,,,,0,,60,40
14283,note_on,3,0,1,,,,,,,,,,,,,,,,,0,,55,0
14307,note_on,24,0,1,,,,,,,,,,,,,,,,,0,,63,0
14307,note_on,0,0,1,,,,,,,,,,,,,,,,,0,,60,0
14310,note_on,0,0,1,,,,,,,,,,,,,,,,,0,,69,55
14310,note_on,3,0,1,,,,,,,,,,,,,,,,,0,,60,45
14337,note_on,0,0,1,,,,,,,,,,,,,,,,,0,,60,0
14337,note_on,27,0,1,,,,,,,,,,,,,,,,,0,,69,0
14339,note_on,2,0,1,,,,,,,,,,,,,,,,,0,,53,75
14340,note_on,0,0,1,,,,,,,,,,,,,,,,,0,,68,45
14340,note_on,1,0,1,,,,,,,,,,,,,,,,,0,,62,40
14343,note_on,3,0,1,,,,,,,,,,,,,,,,,0,,54,0
14363,note_on,20,0,1,,,,,,,,,,,,,,,,,0,,48,0
14367,note_on,4,0,1,,,,,,,,,,,,,,,,,0,,62,0
14367,note_on,0,0,1,,,,,,,,,,,,,,,,,0,,68,0
14370,note_on,0,0,1,,,,,,,,,,,,,,,,,0,,62,40
14370,note_on,3,0,1,,,,,,,,,,,,,,,,,0,,71,46
14374,note_on,4,0,1,,,,,,,,,,,,,,,,,0,,53,0
14394,control_change,20,0,1,,,,,,,,,,,,,,,64,127,0,,,
14397,note_on,3,0,1,,,,,,,,,,,,,,,,,0,,62,0
14397,note_on,0,0,1,,,,,,,,,,,,,,,,,0,,71,0
14400,note_on,3,0,1,,,,,,,,,,,,,,,,,0,,67,51
14400,note_on,0,0,1,,,,,,,,,,,,,,,,,0,,64,36
14401,note_on,1,0,1,,,,,,,,,,,,,,,,,0,,36,79
14416,note_on,15,0,1,,,,,,,,,,,,,,,,,0,,36,0
14427,note_on,0,0,1,,,,,,,,,,,,,,,,,0,,67,0
14427,note_on,11,0,1,,,,,,,,,,,,,,,,,0,,64,0
14430,note_on,0,0,1,,,,,,,,,,,,,,,,,0,,64,41
14430,note_on,3,0,1,,,,,,,,,,,,,,,,,0,,72,53
14450,control_change,20,0,1,,,,,,,,,,,,,,,64,0,0,,,
14457,note_on,7,0,1,,,,,,,,,,,,,,,,,0,,64,0
14457,note_on,0,0,1,,,,,,,,,,,,,,,,,0,,72,0
14459,note_on,2,0,1,,,,,,,,,,,,,,,,,0,,48,83
14460,note_on,0,0,1,,,,,,,,,,,,,,,,,0,,65,39
14460,note_on,1,0,1,,,,,,,,,,,,,,,,,0,,68,53
14465,control_change,5,0,1,,,,,,,,,,,,,,,64,127,0,,,
14487,note_on,22,0,1,,,,,,,,,,,,,,,,,0,,65,0
14487,note_on,0,0,1,,,,,,,,,,,,,,,,,0,,68,0
14490,note_on,3,0,1,,,,,,,,,,,,,,,,,0,,65,45
14490,note_on,0,0,1,,,,,,,,,,,,,,,,,0,,74,58
14517,note_on,0,0,1,,,,,,,,,,,,,,,,,0,,65,0
14517,note_on,27,0,1,,,,,,,,,,,,,,,,,0,,74,0
14520,note_on,3,0,1,,,,,,,,,,,,,,,,,0,,62,47
14520,note_on,0,0,1,,,,,,,,,,,,,,,,,0,,56,75
14520,note_on,0,0,1,,,,,,,,,,,,,,,,,0,,65,42
14547,note_on,0,0,1,,,,,,,,,,,,,,,,,0,,62,0
14547,note_on,27,0,1,,,,,,,,,,,,,,,,,0,,65,0
14550,note_on,3,0,1,,,,,,,,,,,,,,,,,0,,62,42
14550,note_on,0,0,1,,,,,,,,,,,,,,,,,0,,71,43
14577,note_on,0,0,1,,,,,,,,,,,,,,,,,0,,62,0
14577,note_on,27,0,1,,,,,,,,,,,,,,,,,0,,71,0
14580,note_on,3,0,1,,,,,,,,,,,,,,,,,0,,59,39
14580,note_on,0,0,1,,,,,,,,,,,,,,,,,0,,62,42
14581,note_on,1,0,1,,,,,,,,,,,,,,,,,0,,55,73
14581,control_change,0,0,1,,,,,,,,,,,,,,,64,0,0,,,
14582,note_on,1,0,1,,,,,,,,,,,,,,,,,0,,56,0
14607,note_on,25,0,1,,,,,,,,,,,,,,,,,0,,62,0
14607,note_on,0,0,1,,,,,,,,,,,,,,,,,0,,59,0
14610,note_on,3,0,1,,,,,,,,,,,,,,,,,0,,59,40
14610,note_on,0,0,1,,,,,,,,,,,,,,,,,0,,67,48
14637,note_on,0,0,1,,,,,,,,,,,,,,,,,0,,59,0
14637,note_on,27,0,1,,,,,,,,,,,,,,,,,0,,67,0
14639,note_on,2,0,1,,,,,,,,,,,,,,,,,0,,54,74
14640,note_on,1,0,1,,,,,,,,,,,,,,,,,0,,60,46
14640,note_on,0,0,1,,,,,,,,,,,,,,,,,0,,63,46
14643,note_on,3,0,1,,,,,,,,,,,,,,,,,0,,55,0
14667,note_on,24,0,1,,,,,,,,,,,,,,,,,0,,60,0
14667,note_on,0,0,1,,,,,,,,,,,,,,,,,0,,63,0
14670,note_on,3,0,1,,,,,,,,,,,,,,,,,0,,60,45
14670,note_on,0,0,1,,,,,,,,,,,,,,,,,0,,69,51
14695,note_on,25,0,1,,,,,,,,,,,,,,,,,0,,54,0
14697,note_on,2,0,1,,,,,,,,,,,,,,,,,0,,69,0
14697,note_on,0,0,1,,,,,,,,,,,,,,,,,0,,60,0
14699,note_on,2,0,1,,,,,,,,,,,,,,,,,0,,53,75
14700,note_on,1,0,1,,,,,,,,,,,,,,,,,0,,62,48
14700,note_on,0,0,1,,,,,,,,,,,,,,,,,0,,68,57
14727,note_on,0,0,1,,,,,,,,,,,,,,,,,0,,62,0
14727,note_on,27,0,1,,,,,,,,,,,,,,,,,0,,68,0
14730,note_on,0,0,1,,,,,,,,,,,,,,,,,0,,71,40
14730,note_on,3,0,1,,,,,,,,,,,,,,,,,0,,62,45
14753,note_on,23,0,1,,,,,,,,,,,,,,,,,0,,53,0
14753,note_on,0,0,1,,,,,,,,,,,,,,,,,0,,48,0
14757,note_on,4,0,1,,,,,,,,,,,,,,,,,0,,62,0
14757,note_on,0,0,1,,,,,,,,,,,,,,,,,0,,71,0
14759,note_on,2,0,1,,,,,,,,,,,,,,,,,0,,52,73
14760,note_on,1,0,1,,,,,,,,,,,,,,,,,0,,64,35
14760,note_on,0,0,1,,,,,,,,,,,,,,,,,0,,67,17
14787,note_on,27,0,1,,,,,,,,,,,,,,,,,0,,67,0
14787,note_on,0,0,1,,,,,,,,,,,,,,,,,0,,64,0
14790,note_on,3,0,1,,,,,,,,,,,,,,,,,0,,64,36
14790,note_on,0,0,1,,,,,,,,,,,,,,,,,0,,72,44
14799,note_on,9,0,1,,,,,,,,,,,,,,,,,0,,52,0
14817,note_on,0,0,1,,,,,,,,,,,,,,,,,0,,64,0
14817,note_on,18,0,1,,,,,,,,,,,,,,,,,0,,72,0
14819,control_change,0,0,1,,,,,,,,,,,,,,,64,127,0,,,
14819,note_on,2,0,1,,,,,,,,,,,,,,,,,0,,49,63
14820,note_on,1,0,1,,,,,,,,,,,,,,,,,0,,67,42
14820,note_on,0,0,1,,,,,,,,,,,,,,,,,0,,69,45
14820,note_on,0,0,1,,,,,,,,,,,,,,,,,0,,57,55
14821,note_on,1,0,1,,,,,,,,,,,,,,,,,0,,61,63
14847,note_on,26,0,1,,,,,,,,,,,,,,,,,0,,69,0
14847,note_on,0,0,1,,,,,,,,,,,,,,,,,0,,67,0
14850,note_on,3,0,1,,,,,,,,,,,,,,,,,0,,67,45
14850,note_on,0,0,1,,,,,,,,,,,,,,,,,0,,76,61
14871,note_on,21,0,1,,,,,,,,,,,,,,,,,0,,61,0
14871,note_on,0,0,1,,,,,,,,,,,,,,,,,0,,57,0
14873,note_on,2,0,1,,,,,,,,,,,,,,,,,0,,49,0
14877,note_on,4,0,1,,,,,,,,,,,,,,,,,0,,76,0
14877,note_on,0,0,1,,,,,,,,,,,,,,,,,0,,67,0
14880,note_on,0,0,1,,,,,,,,,,,,,,,,,0,,65,40
14880,note_on,0,0,1,,,,,,,,,,,,,,,,,0,,57,58
14880,note_on,3,0,1,,,,,,,,,,,,,,,,,0,,69,50
14881,note_on,0,0,1,,,,,,,,,,,,,,,,,0,,62,67
14881,control_change,0,0,1,,,,,,,,,,,,,,,64,0,0,,,
14881,note_on,1,0,1,,,,,,,,,,,,,,,,,0,,50,67
14907,note_on,26,0,1,,,,,,,,,,,,,,,,,0,,50,0
14907,note_on,0,0,1,,,,,,,,,,,,,,,,,0,,65,0
14907,note_on,0,0,1,,,,,,,,,,,,,,,,,0,,69,0
14908,note_on,1,0,1,,,,,,,,,,,,,,,,,0,,57,0
14908,note_on,0,0,1,,,,,,,,,,,,,,,,,0,,62,0
14910,note_on,2,0,1,,,,,,,,,,,,,,,,,0,,65,42
14910,note_on,0,0,1,,,,,,,,,,,,,,,,,0,,74,61
14936,control_change,26,0,1,,,,,,,,,,,,,,,64,127,0,,,
14937,note_on,1,0,1,,,,,,,,,,,,,,,,,0,,74,0
14937,note_on,0,0,1,,,,,,,,,,,,,,,,,0,,65,0
14940,note_on,0,0,1,,,,,,,,,,,,,,,,,0,,70,50
14940,note_on,3,0,1,,,,,,,,,,,,,,,,,0,,72,55
14941,note_on,1,0,1,,,,,,,,,,,,,,,,,0,,52,68
14941,note_on,0,0,1,,,,,,,,,,,,,,,,,0,,64,68
14941,note_on,0,0,1,,,,,,,,,,,,,,,,,0,,60,59
14967,note_on,26,0,1,,,,,,,,,,,,,,,,,0,,70,0
14967,note_on,0,0,1,,,,,,,,,,,,,,,,,0,,72,0
14970,note_on,3,0,1,,,,,,,,,,,,,,,,,0,,79,62
14970,note_on,0,0,1,,,,,,,,,,,,,,,,,0,,70,45
14986,note_on,16,0,1,,,,,,,,,,,,,,,,,0,,52,0
14988,note_on,2,0,1,,,,,,,,,,,,,,,,,0,,64,0
14990,note_on,2,0,1,,,,,,,,,,,,,,,,,0,,60,0
14997,note_on,7,0,1,,,,,,,,,,,,,,,,,0,,79,0
14997,note_on,0,0,1,,,,,,,,,,,,,,,,,0,,70,0
14999,control_change,2,0,1,,,,,,,,,,,,,,,64,0,0,,,
15000,note_on,0,0,1,,,,,,,,,,,,,,,,,0,,60,61
15000,note_on,1,0,1,,,,,,,,,,,,,,,,,0,,72,48
15000,note_on,0,0,1,,,,,,,,,,,,,,,,,0,,69,44
15001,note_on,1,0,1,,,,,,,,,,,,,,,,,0,,65,69
15001,note_on,0,0,1,,,,,,,,,,,,,,,,,0,,53,69
15027,note_on,26,0,1,,,,,,,,,,,,,,,,,0,,69,0
15027,note_on,0,0,1,,,,,,,,,,,,,,,,,0,,72,0
15028,note_on,1,0,1,,,,,,,,,,,,,,,,,0,,53,0
15029,note_on,1,0,1,,,,,,,,,,,,,,,,,0,,65,0
15030,note_on,1,0,1,,,,,,,,,,,,,,,,,0,,60,0
15030,note_on,0,0,1,,,,,,,,,,,,,,,,,0,,69,52
15030,note_on,0,0,1,,,,,,,,,,,,,,,,,0,,77,62
15054,control_change,24,0,1,,,,,,,,,,,,,,,64,127,0,,,
15057,note_on,3,0,1,,,,,,,,,,,,,,,,,0,,77,0
15057,note_on,0,0,1,,,,,,,,,,,,,,,,,0,,69,0
15060,note_on,3,0,1,,,,,,,,,,,,,,,,,0,,72,44
15060,note_on,0,0,1,,,,,,,,,,,,,,,,,0,,74,49
15061,note_on,0,0,1,,,,,,,,,,,,,,,,,0,,62,64
15061,note_on,1,0,1,,,,,,,,,,,,,,,,,0,,54,73
15061,note_on,0,0,1,,,,,,,,,,,,,,,,,0,,66,73
15087,note_on,26,0,1,,,,,,,,,,,,,,,,,0,,74,0
15087,note_on,0,0,1,,,,,,,,,,,,,,,,,0,,72,0
15090,note_on,3,0,1,,,,,,,,,,,,,,,,,0,,72,56
15090,note_on,0,0,1,,,,,,,,,,,,,,,,,0,,81,62
15112,note_on,22,0,1,,,,,,,,,,,,,,,,,0,,62,0
15113,note_on,1,0,1,,,,,,,,,,,,,,,,,0,,66,0
15113,note_on,0,0,1,,,,,,,,,,,,,,,,,0,,54,0
15115,control_change,2,0,1,,,,,,,,,,,,,,,64,0,0,,,
15117,note_on,2,0,1,,,,,,,,,,,,,,,,,0,,72,0
15117,note_on,0,0,1,,,,,,,,,,,,,,,,,0,,81,0
15120,note_on,3,0,1,,,,,,,,,,,,,,,,,0,,74,50
15120,note_on,0,0,1,,,,,,,,,,,,,,,,,0,,71,45
15121,note_on,1,0,1,,,,,,,,,,,,,,,,,0,,62,63
15121,note_on,0,0,1,,,,,,,,,,,,,,,,,0,,55,72
15121,note_on,0,0,1,,,,,,,,,,,,,,,,,0,,67,72
15146,note_on,25,0,1,,,,,,,,,,,,,,,,,0,,55,0
15147,note_on,1,0,1,,,,,,,,,,,,,,,,,0,,74,0
15147,note_on,0,0,1,,,,,,,,,,,,,,,,,0,,71,0
15148,note_on,1,0,1,,,,,,,,,,,,,,,,,0,,62,0
15150,note_on,2,0,1,,,,,,,,,,,,,,,,,0,,67,0
15150,note_on,0,0,1,,,,,,,,,,,,,,,,,0,,79,63
15150,note_on,0,0,1,,,,,,,,,,,,,,,,,0,,71,58
15172,control_change,22,0,1,,,,,,,,,,,,,,,64,127,0,,,
15177,note_on,5,0,1,,,,,,,,,,,,,,,,,0,,71,0
15177,note_on,0,0,1,,,,,,,,,,,,,,,,,0,,79,0
15180,note_on,3,0,1,,,,,,,,,,,,,,,,,0,,74,45
15180,note_on,0,0,1,,,,,,,,,,,,,,,,,0,,76,54
15181,note_on,1,0,1,,,,,,,,,,,,,,,,,0,,56,72
15181,note_on,0,0,1,,,,,,,,,,,,,,,,,0,,68,72
15181,note_on,0,0,1,,,,,,,,,,,,,,,,,0,,64,63
15207,note_on,0,0,1,,,,,,,,,,,,,,,,,0,,74,0
15207,note_on,26,0,1,,,,,,,,,,,,,,,,,0,,76,0
15210,note_on,0,0,1,,,,,,,,,,,,,,,,,0,,83,62
15210,note_on,3,0,1,,,,,,,,,,,,,,,,,0,,74,56
15228,note_on,18,0,1,,,,,,,,,,,,,,,,,0,,64,0
15229,note_on,1,0,1,,,,,,,,,,,,,,,,,0,,68,0
15229,note_on,0,0,1,,,,,,,,,,,,,,,,,0,,56,0
15234,control_change,5,0,1,,,,,,,,,,,,,,,64,0,0,,,
15237,note_on,3,0,1,,,,,,,,,,,,,,,,,0,,74,0
15237,note_on,0,0,1,,,,,,,,,,,,,,,,,0,,83,0
15240,note_on,3,0,1,,,,,,,,,,,,,,,,,0,,72,48
15240,note_on,0,0,1,,,,,,,,,,,,,,,,,0,,76,55
15240,note_on,0,0,1,,,,,,,,,,,,,,,,,0,,64,68
15241,note_on,1,0,1,,,,,,,,,,,,,,,,,0,,57,76
15241,note_on,0,0,1,,,,,,,,,,,,,,,,,0,,69,76
15267,note_on,26,0,1,,,,,,,,,,,,,,,,,0,,76,0
15267,note_on,0,0,1,,,,,,,,,,,,,,,,,0,,72,0
15268,note_on,1,0,1,,,,,,,,,,,,,,,,,0,,57,0
15268,note_on,0,0,1,,,,,,,,,,,,,,,,,0,,69,0
15269,note_on,1,0,1,,,,,,,,,,,,,,,,,0,,64,0
15270,note_on,1,0,1,,,,,,,,,,,,,,,,,0,,72,56
15270,note_on,0,0,1,,,,,,,,,,,,,,,,,0,,81,59
15297,note_on,27,0,1,,,,,,,,,,,,,,,,,0,,81,0
15297,note_on,0,0,1,,,,,,,,,,,,,,,,,0,,72,0
15299,control_change,2,0,1,,,,,,,,,,,,,,,64,127,0,,,
15300,note_on,1,0,1,,,,,,,,,,,,,,,,,0,,77,43
15300,note_on,0,0,1,,,,,,,,,,,,,,,,,0,,79,46
15300,note_on,0,0,1,,,,,,,,,,,,,,,,,0,,59,79
15301,note_on,1,0,1,,,,,,,,,,,,,,,,,0,,71,79
15301,note_on,0,0,1,,,,,,,,,,,,,,,,,0,,67,70
15327,note_on,26,0,1,,,,,,,,,,,,,,,,,0,,79,0
15327,note_on,0,0,1,,,,,,,,,,,,,,,,,0,,77,0
15330,note_on,3,0,1,,,,,,,,,,,,,,,,,0,,86,63
15330,note_on,0,0,1,,,,,,,,,,,,,,,,,0,,77,50
15342,control_change,12,0,1,,,,,,,,,,,,,,,64,0,0,,,
15345,note_on,3,0,1,,,,,,,,,,,,,,,,,0,,59,0
15347,note_on,2,0,1,,,,,,,,,,,,,,,,,0,,71,0
15349,note_on,2,0,1,,,,,,,,,,,,,,,,,0,,67,0
15357,note_on,8,0,1,,,,,,,,,,,,,,,,,0,,86,0
15357,note_on,0,0,1,,,,,,,,,,,,,,,,,0,,77,0
15357,control_change,0,0,1,,,,,,,,,,,,,,,64,127,0,,,
15360,note_on,3,0,1,,,,,,,,,,,,,,,,,0,,76,43
15360,note_on,0,0,1,,,,,,,,,,,,,,,,,0,,79,45
15361,note_on,1,0,1,,,,,,,,,,,,,,,,,0,,67,73
15361,note_on,0,0,1,,,,,,,,,,,,,,,,,0,,72,83
15361,note_on,0,0,1,,,,,,,,,,,,,,,,,0,,60,83
15386,note_on,25,0,1,,,,,,,,,,,,,,,,,0,,60,0
15387,note_on,0,0,1,,,,,,,,,,,,,,,,,0,,79,0
15387,note_on,1,0,1,,,,,,,,,,,,,,,,,0,,76,0
15390,note_on,3,0,1,,,,,,,,,,,,,,,,,0,,67,0
15390,note_on,0,0,1,,,,,,,,,,,,,,,,,0,,76,45
15390,note_on,0,0,1,,,,,,,,,,,,,,,,,0,,84,62
15391,note_on,1,0,1,,,,,,,,,,,,,,,,,0,,72,0
15416,control_change,25,0,1,,,,,,,,,,,,,,,64,0,0,,,
15417,note_on,1,0,1,,,,,,,,,,,,,,,,,0,,84,0
15417,note_on,0,0,1,,,,,,,,,,,,,,,,,0,,76,0
15420,note_on,3,0,1,,,,,,,,,,,,,,,,,0,,81,58
15420,note_on,0,0,1,,,,,,,,,,,,,,,,,0,,79,50
15420,note_on,0,0,1,,,,,,,,,,,,,,,,,0,,61,78
15420,note_on,0,0,1,,,,,,,,,,,,,,,,,0,,69,78
15421,note_on,1,0,1,,,,,,,,,,,,,,,,,0,,73,86
15447,note_on,0,0,1,,,,,,,,,,,,,,,,,0,,81,0
15447,note_on,26,0,1,,,,,,,,,,,,,,,,,0,,79,0
15448,note_on,1,0,1,,,,,,,,,,,,,,,,,0,,73,0
15450,note_on,2,0,1,,,,,,,,,,,,,,,,,0,,61,0
15450,note_on,0,0,1,,,,,,,,,,,,,,,,,0,,88,61
15450,note_on,0,0,1,,,,,,,,,,,,,,,,,0,,79,48
15451,note_on,1,0,1,,,,,,,,,,,,,,,,,0,,69,0
15477,note_on,26,0,1,,,,,,,,,,,,,,,,,0,,79,0
15477,note_on,0,0,1,,,,,,,,,,,,,,,,,0,,88,0
15480,note_on,3,0,1,,,,,,,,,,,,,,,,,0,,81,50
15480,note_on,0,0,1,,,,,,,,,,,,,,,,,0,,79,45
15480,note_on,0,0,1,,,,,,,,,,,,,,,,,0,,73,86
15481,note_on,0,0,1,,,,,,,,,,,,,,,,,0,,62,86
15481,note_on,1,0,1,,,,,,,,,,,,,,,,,0,,69,78
15483,control_change,2,0,1,,,,,,,,,,,,,,,64,127,0,,,
15507,note_on,0,0,1,,,,,,,,,,,,,,,,,0,,81,0
15507,note_on,24,0,1,,,,,,,,,,,,,,,,,0,,79,0
15510,note_on,3,0,1,,,,,,,,,,,,,,,,,0,,88,62
15510,note_on,0,0,1,,,,,,,,,,,,,,,,,0,,79,45
15537,note_on,27,0,1,,,,,,,,,,,,,,,,,0,,79,0
15537,note_on,0,0,1,,,,,,,,,,,,,,,,,0,,88,0
15540,note_on,3,0,1,,,,,,,,,,,,,,,,,0,,79,51
15540,note_on,0,0,1,,,,,,,,,,,,,,,,,0,,81,56
15567,note_on,27,0,1,,,,,,,,,,,,,,,,,0,,81,0
15567,note_on,0,0,1,,,,,,,,,,,,,,,,,0,,79,0
15570,note_on,3,0,1,,,,,,,,,,,,,,,,,0,,79,46
15570,note_on,0,0,1,,,,,,,,,,,,,,,,,0,,88,42
15597,note_on,27,0,1,,,,,,,,,,,,,,,,,0,,88,0
15597,note_on,0,0,1,,,,,,,,,,,,,,,,,0,,79,0
15600,note_on,3,0,1,,,,,,,,,,,,,,,,,0,,81,54
15600,note_on,0,0,1,,,,,,,,,,,,,,,,,0,,79,39
15627,note_on,27,0,1,,,,,,,,,,,,,,,,,0,,79,0
15627,note_on,0,0,1,,,,,,,,,,,,,,,,,0,,81,0
15630,note_on,3,0,1,,,,,,,,,,,,,,,,,0,,79,45
15630,note_on,0,0,1,,,,,,,,,,,,,,,,,0,,88,45
15641,control_change,11,0,1,,,,,,,,,,,,,,,64,0,0,,,
15657,note_on,16,0,1,,,,,,,,,,,,,,,,,0,,88,0
15657,note_on,0,0,1,,,,,,,,,,,,,,,,,0,,79,0
15658,control_change,1,0,1,,,,,,,,,,,,,,,64,127,0,,,
15660,note_on,2,0,1,,,,,,,,,,,,,,,,,0,,81,55
15660,note_on,0,0,1,,,,,,,,,,,,,,,,,0,,79,43
15661,note_on,1,0,1,,,,,,,,,,,,,,,,,0,,74,87
15668,note_on,7,0,1,,,,,,,,,,,,,,,,,0,,73,0
15687,note_on,19,0,1,,,,,,,,,,,,,,,,,0,,79,0
15687,note_on,0,0,1,,,,,,,,,,,,,,,,,0,,81,0
15690,note_on,3,0,1,,,,,,,,,,,,,,,,,0,,79,40
15690,note_on,0,0,1,,,,,,,,,,,,,,,,,0,,88,43
15717,note_on,0,0,1,,,,,,,,,,,,,,,,,0,,79,0
15717,note_on,27,0,1,,,,,,,,,,,,,,,,,0,,88,0
15720,note_on,3,0,1,,,,,,,,,,,,,,,,,0,,81,55
15720,note_on,0,0,1,,,,,,,,,,,,,,,,,0,,77,42
15747,note_on,0,0,1,,,,,,,,,,,,,,,,,0,,81,0
15747,note_on,27,0,1,,,,,,,,,,,,,,,,,0,,77,0
15750,note_on,3,0,1,,,,,,,,,,,,,,,,,0,,86,62
15750,note_on,0,0,1,,,,,,,,,,,,,,,,,0,,77,51
15777,note_on,27,0,1,,,,,,,,,,,,,,,,,0,,77,0
15777,note_on,0,0,1,,,,,,,,,,,,,,,,,0,,86,0
15780,note_on,3,0,1,,,,,,,,,,,,,,,,,0,,81,52
15780,note_on,0,0,1,,,,,,,,,,,,,,,,,0,,77,42
15800,note_on,20,0,1,,,,,,,,,,,,,,,,,0,,69,0
15804,note_on,4,0,1,,,,,,,,,,,,,,,,,0,,62,0
15807,note_on,3,0,1,,,,,,,,,,,,,,,,,0,,77,0
15807,note_on,0,0,1,,,,,,,,,,,,,,,,,0,,81,0
15810,note_on,3,0,1,,,,,,,,,,,,,,,,,0,,74,0
15810,note_on,0,0,1,,,,,,,,,,,,,,,,,0,,77,39
15810,note_on,0,0,1,,,,,,,,,,,,,,,,,0,,84,63
15826,control_change,16,0,1,,,,,,,,,,,,,,,64,0,0,,,
15837,note_on,11,0,1,,,,,,,,,,,,,,,,,0,,84,0
15837,note_on,0,0,1,,,,,,,,,,,,,,,,,0,,77,0
15840,note_on,3,0,1,,,,,,,,,,,,,,,,,0,,81,51
15840,note_on,0,0,1,,,,,,,,,,,,,,,,,0,,77,37
15841,note_on,1,0,1,,,,,,,,,,,,,,,,,0,,43,65
15848,control_change,7,0,1,,,,,,,,,,,,,,,64,127,0,,,
15867,note_on,19,0,1,,,,,,,,,,,,,,,,,0,,77,0
15867,note_on,0,0,1,,,,,,,,,,,,,,,,,0,,81,0
15870,note_on,3,0,1,,,,,,,,,,,,,,,,,0,,77,39
15870,note_on,0,0,1,,,,,,,,,,,,,,,,,0,,83,62
15888,note_on,18,0,1,,,,,,,,,,,,,,,,,0,,43,0
15897,note_on,0,0,1,,,,,,,,,,,,,,,,,0,,77,0
15897,note_on,9,0,1,,,,,,,,,,,,,,,,,0,,83,0
15899,note_on,2,0,1,,,,,,,,,,,,,,,,,0,,55,67
15900,note_on,1,0,1,,,,,,,,,,,,,,,,,0,,77,45
15900,note_on,0,0,1,,,,,,,,,,,,,,,,,0,,81,56
15927,note_on,27,0,1,,,,,,,,,,,,,,,,,0,,81,0
15927,note_on,0,0,1,,,,,,,,,,,,,,,,,0,,77,0
15930,note_on,3,0,1,,,,,,,,,,,,,,,,,0,,77,37
15930,note_on,0,0,1,,,,,,,,,,,,,,,,,0,,83,50
15932,note_on,2,0,1,,,,,,,,,,,,,,,,,0,,55,0
15957,note_on,25,0,1,,,,,,,,,,,,,,,,,0,,83,0
15957,note_on,0,0,1,,,,,,,,,,,,,,,,,0,,77,0
15959,note_on,2,0,1,,,,,,,,,,,,,,,,,0,,65,68
15959,note_on,0,0,1,,,,,,,,,,,,,,,,,0,,62,59
15960,note_on,1,0,1,,,,,,,,,,,,,,,,,0,,77,44
15960,note_on,0,0,1,,,,,,,,,,,,,,,,,0,,81,57
15987,note_on,27,0,1,,,,,,,,,,,,,,,,,0,,81,0
15987,note_on,0,0,1,,,,,,,,,,,,,,,,,0,,77,0
15990,note_on,3,0,1,,,,,,,,,,,,,,,,,0,,77,39
15990,note_on,0,0,1,,,,,,,,,,,,,,,,,0,,83,49
16017,note_on,0,0,1,,,,,,,,,,,,,,,,,0,,77,0
16017,note_on,27,0,1,,,,,,,,,,,,,,,,,0,,83,0
16019,note_on,2,0,1,,,,,,,,,,,,,,,,,0,,71,65
16020,note_on,1,0,1,,,,,,,,,,,,,,,,,0,,81,48
16020,note_on,0,0,1,,,,,,,,,,,,,,,,,0,,77,34
16022,note_on,2,0,1,,,,,,,,,,,,,,,,,0,,62,0
16025,note_on,3,0,1,,,,,,,,,,,,,,,,,0,,65,0
16047,note_on,22,0,1,,,,,,,,,,,,,,,,,0,,81,0
16047,note_on,0,0,1,,,,,,,,,,,,,,,,,0,,77,0
16050,note_on,3,0,1,,,,,,,,,,,,,,,,,0,,77,39
16050,note_on,0,0,1,,,,,,,,,,,,,,,,,0,,83,46
16058,note_on,8,0,1,,,,,,,,,,,,,,,,,0,,71,0
16077,note_on,19,0,1,,,,,,,,,,,,,,,,,0,,83,0
16077,note_on,0,0,1,,,,,,,,,,,,,,,,,0,,77,0
16080,note_on,3,0,1,,,,,,,,,,,,,,,,,0,,76,45
16080,note_on,0,0,1,,,,,,,,,,,,,,,,,0,,79,50
16084,control_change,4,0,1,,,,,,,,,,,,,,,64,0,0,,,
16107,note_on,23,0,1,,,,,,,,,,,,,,,,,0,,79,0
16107,note_on,0,0,1,,,,,,,,,,,,,,,,,0,,76,0
16110,note_on,3,0,1,,,,,,,,,,,,,,,,,0,,76,50
16110,note_on,0,0,1,,,,,,,,,,,,,,,,,0,,83,50
16137,note_on,27,0,1,,,,,,,,,,,,,,,,,0,,83,0
16137,note_on,0,0,1,,,,,,,,,,,,,,,,,0,,76,0
16140,note_on,3,0,1,,,,,,,,,,,,,,,,,0,,74,40
16140,note_on,0,0,1,,,,,,,,,,,,,,,,,0,,77,41
16167,note_on,27,0,1,,,,,,,,,,,,,,,,,0,,77,0
16167,note_on,0,0,1,,,,,,,,,,,,,,,,,0,,74,0
16170,note_on,3,0,1,,,,,,,,,,,,,,,,,0,,74,51
16170,note_on,0,0,1,,,,,,,,,,,,,,,,,0,,83,51
16195,set_tempo,3599,1,0,,,,,,,,,,,,,,433213,,,,,,
16197,note_on,27,0,1,,,,,,,,,,,,,,,,,0,,83,0
16197,note_on,0,0,1,,,,,,,,,,,,,,,,,0,,74,0
16199,note_on,2,0,1,,,,,,,,,,,,,,,,,0,,60,66
16200,note_on,1,0,1,,,,,,,,,,,,,,,,,0,,76,48
16200,note_on,0,0,1,,,,,,,,,,,,,,,,,0,,79,48
16205,control_change,5,0,1,,,,,,,,,,,,,,,64,127,0,,,
16227,note_on,22,0,1,,,,,,,,,,,,,,,,,0,,79,0
16227,note_on,0,0,1,,,,,,,,,,,,,,,,,0,,76,0
16230,note_on,3,0,1,,,,,,,,,,,,,,,,,0,,76,49
16230,note_on,0,0,1,,,,,,,,,,,,,,,,,0,,84,39
16240,set_tempo,45,1,0,,,,,,,,,,,,,,434783,,,,,,
16257,note_on,0,0,1,,,,,,,,,,,,,,,,,0,,76,0
16257,note_on,27,0,1,,,,,,,,,,,,,,,,,0,,84,0
16260,note_on,3,0,1,,,,,,,,,,,,,,,,,0,,77,48
16260,note_on,0,0,1,,,,,,,,,,,,,,,,,0,,81,58
16261,note_on,1,0,1,,,,,,,,,,,,,,,,,0,,72,59
16261,note_on,0,0,1,,,,,,,,,,,,,,,,,0,,69,60
16285,set_tempo,45,1,0,,,,,,,,,,,,,,436364,,,,,,
16287,note_on,0,0,1,,,,,,,,,,,,,,,,,0,,77,0
16287,note_on,26,0,1,,,,,,,,,,,,,,,,,0,,81,0
16290,note_on,3,0,1,,,,,,,,,,,,,,,,,0,,77,47
16290,note_on,0,0,1,,,,,,,,,,,,,,,,,0,,86,29
16310,note_on,20,0,1,,,,,,,,,,,,,,,,,0,,72,0
16311,control_change,1,0,1,,,,,,,,,,,,,,,64,0,0,,,
16312,note_on,1,0,1,,,,,,,,,,,,,,,,,0,,69,0
16317,note_on,5,0,1,,,,,,,,,,,,,,,,,0,,86,0
16317,note_on,0,0,1,,,,,,,,,,,,,,,,,0,,77,0
16320,note_on,0,0,1,,,,,,,,,,,,,,,,,0,,83,58
16320,note_on,3,0,1,,,,,,,,,,,,,,,,,0,,79,48
16321,note_on,1,0,1,,,,,,,,,,,,,,,,,0,,71,58
16321,note_on,0,0,1,,,,,,,,,,,,,,,,,0,,67,59
16330,set_tempo,45,1,0,,,,,,,,,,,,,,437956,,,,,,
16347,note_on,26,0,1,,,,,,,,,,,,,,,,,0,,83,0
16347,note_on,0,0,1,,,,,,,,,,,,,,,,,0,,79,0
16350,note_on,3,0,1,,,,,,,,,,,,,,,,,0,,79,46
16350,note_on,0,0,1,,,,,,,,,,,,,,,,,0,,88,45
16370,note_on,20,0,1,,,,,,,,,,,,,,,,,0,,67,0
16370,set_tempo,40,1,0,,,,,,,,,,,,,,439560,,,,,,
16371,note_on,1,0,1,,,,,,,,,,,,,,,,,0,,71,0
16377,note_on,0,0,1,,,,,,,,,,,,,,,,,0,,79,0
16377,note_on,6,0,1,,,,,,,,,,,,,,,,,0,,88,0
16380,note_on,0,0,1,,,,,,,,,,,,,,,,,0,,84,56
16380,note_on,3,0,1,,,,,,,,,,,,,,,,,0,,81,49
16381,note_on,0,0,1,,,,,,,,,,,,,,,,,0,,65,61
16381,note_on,1,0,1,,,,,,,,,,,,,,,,,0,,69,61
16390,control_change,9,0,1,,,,,,,,,,,,,,,64,127,0,,,
16407,note_on,17,0,1,,,,,,,,,,,,,,,,,0,,84,0
16407,note_on,0,0,1,,,,,,,,,,,,,,,,,0,,81,0
16410,note_on,0,0,1,,,,,,,,,,,,,,,,,0,,89,45
16410,note_on,3,0,1,,,,,,,,,,,,,,,,,0,,81,50
16415,set_tempo,45,1,0,,,,,,,,,,,,,,441176,,,,,,
16429,note_on,19,0,1,,,,,,,,,,,,,,,,,0,,69,0
16437,note_on,8,0,1,,,,,,,,,,,,,,,,,0,,81,0
16437,note_on,0,0,1,,,,,,,,,,,,,,,,,0,,89,0
16439,note_on,2,0,1,,,,,,,,,,,,,,,,,0,,67,59
16440,note_on,1,0,1,,,,,,,,,,,,,,,,,0,,79,44
16440,note_on,0,0,1,,,,,,,,,,,,,,,,,0,,83,47
16441,note_on,1,0,1,,,,,,,,,,,,,,,,,0,,71,59
16445,note_on,4,0,1,,,,,,,,,,,,,,,,,0,,65,0
16455,control_change,10,0,1,,,,,,,,,,,,,,,64,0,0,,,
16460,set_tempo,45,1,0,,,,,,,,,,,,,,442804,,,,,,
16467,note_on,0,0,1,,,,,,,,,,,,,,,,,0,,79,0
16467,note_on,12,0,1,,,,,,,,,,,,,,,,,0,,83,0
16470,note_on,0,0,1,,,,,,,,,,,,,,,,,0,,88,44
16470,note_on,3,0,1,,,,,,,,,,,,,,,,,0,,79,46
16480,note_on,10,0,1,,,,,,,,,,,,,,,,,0,,71,0
16488,note_on,8,0,1,,,,,,,,,,,,,,,,,0,,67,0
16497,note_on,9,0,1,,,,,,,,,,,,,,,,,0,,79,0
16497,note_on,0,0,1,,,,,,,,,,,,,,,,,0,,88,0
16499,note_on,2,0,1,,,,,,,,,,,,,,,,,0,,69,58
16499,note_on,0,0,1,,,,,,,,,,,,,,,,,0,,72,58
16500,note_on,1,0,1,,,,,,,,,,,,,,,,,0,,77,38
16500,note_on,0,0,1,,,,,,,,,,,,,,,,,0,,81,45
16505,set_tempo,45,1,0,,,,,,,,,,,,,,444444,,,,,,
16527,note_on,0,0,1,,,,,,,,,,,,,,,,,0,,77,0
16527,note_on,27,0,1,,,,,,,,,,,,,,,,,0,,81,0
16530,note_on,3,0,1,,,,,,,,,,,,,,,,,0,,77,46
16530,note_on,0,0,1,,,,,,,,,,,,,,,,,0,,86,48
16539,note_on,0,0,1,,,,,,,,,,,,,,,,,0,,69,0
16539,note_on,9,0,1,,,,,,,,,,,,,,,,,0,,72,0
16545,set_tempo,40,1,0,,,,,,,,,,,,,,446097,,,,,,
16557,note_on,18,0,1,,,,,,,,,,,,,,,,,0,,86,0
16557,note_on,0,0,1,,,,,,,,,,,,,,,,,0,,77,0
16558,control_change,1,0,1,,,,,,,,,,,,,,,64,127,0,,,
16559,set_tempo,14,1,0,,,,,,,,,,,,,,454545,,,,,,
16560,note_on,0,0,1,,,,,,,,,,,,,,,,,0,,77,41
16560,note_on,2,0,1,,,,,,,,,,,,,,,,,0,,79,45
16561,note_on,0,0,1,,,,,,,,,,,,,,,,,0,,74,59
16561,note_on,1,0,1,,,,,,,,,,,,,,,,,0,,71,60
16587,note_on,26,0,1,,,,,,,,,,,,,,,,,0,,77,0
16587,note_on,0,0,1,,,,,,,,,,,,,,,,,0,,79,0
16590,note_on,0,0,1,,,,,,,,,,,,,,,,,0,,86,45
16590,note_on,3,0,1,,,,,,,,,,,,,,,,,0,,77,51
16607,note_on,17,0,1,,,,,,,,,,,,,,,,,0,,60,0
16609,note_on,2,0,1,,,,,,,,,,,,,,,,,0,,74,0
16617,note_on,0,0,1,,,,,,,,,,,,,,,,,0,,77,0
16617,note_on,8,0,1,,,,,,,,,,,,,,,,,0,,86,0
16620,note_on,3,0,1,,,,,,,,,,,,,,,,,0,,79,54
16620,note_on,0,0,1,,,,,,,,,,,,,,,,,0,,77,50
16621,note_on,1,0,1,,,,,,,,,,,,,,,,,0,,60,60
16626,note_on,5,0,1,,,,,,,,,,,,,,,,,0,,71,0
16647,note_on,0,0,1,,,,,,,,,,,,,,,,,0,,77,0
16647,note_on,21,0,1,,,,,,,,,,,,,,,,,0,,79,0
16650,note_on,3,0,1,,,,,,,,,,,,,,,,,0,,77,51
16650,note_on,0,0,1,,,,,,,,,,,,,,,,,0,,86,45
16677,note_on,27,0,1,,,,,,,,,,,,,,,,,0,,86,0
16677,note_on,0,0,1,,,,,,,,,,,,,,,,,0,,77,0
16680,note_on,3,0,1,,,,,,,,,,,,,,,,,0,,81,54
16680,note_on,0,0,1,,,,,,,,,,,,,,,,,0,,77,50
16681,note_on,1,0,1,,,,,,,,,,,,,,,,,0,,69,58
16681,note_on,0,0,1,,,,,,,,,,,,,,,,,0,,72,58
16681,control_change,0,0,1,,,,,,,,,,,,,,,64,0,0,,,
16707,note_on,0,0,1,,,,,,,,,,,,,,,,,0,,81,0
16707,note_on,26,0,1,,,,,,,,,,,,,,,,,0,,77,0
16710,note_on,0,0,1,,,,,,,,,,,,,,,,,0,,86,44
16710,note_on,3,0,1,,,,,,,,,,,,,,,,,0,,77,46
16720,note_on,10,0,1,,,,,,,,,,,,,,,,,0,,72,0
16722,note_on,2,0,1,,,,,,,,,,,,,,,,,0,,69,0
16734,control_change,12,0,1,,,,,,,,,,,,,,,64,127,0,,,
16737,note_on,3,0,1,,,,,,,,,,,,,,,,,0,,86,0
16737,note_on,0,0,1,,,,,,,,,,,,,,,,,0,,77,0
16740,note_on,0,0,1,,,,,,,,,,,,,,,,,0,,77,50
16740,note_on,3,0,1,,,,,,,,,,,,,,,,,0,,79,55
16742,note_on,2,0,1,,,,,,,,,,,,,,,,,0,,71,57
16742,note_on,0,0,1,,,,,,,,,,,,,,,,,0,,74,57
16767,note_on,25,0,1,,,,,,,,,,,,,,,,,0,,77,0
16767,note_on,0,0,1,,,,,,,,,,,,,,,,,0,,79,0
16770,note_on,3,0,1,,,,,,,,,,,,,,,,,0,,77,48
16770,note_on,0,0,1,,,,,,,,,,,,,,,,,0,,86,45
16786,note_on,16,0,1,,,,,,,,,,,,,,,,,0,,60,0
16787,note_on,1,0,1,,,,,,,,,,,,,,,,,0,,74,0
16797,note_on,0,0,1,,,,,,,,,,,,,,,,,0,,77,0
16797,note_on,10,0,1,,,,,,,,,,,,,,,,,0,,86,0
16799,note_on,2,0,1,,,,,,,,,,,,,,,,,0,,71,0
16800,note_on,1,0,1,,,,,,,,,,,,,,,,,0,,79,50
16800,note_on,0,0,1,,,,,,,,,,,,,,,,,0,,77,42
16801,note_on,1,0,1,,,,,,,,,,,,,,,,,0,,60,60
16827,note_on,0,0,1,,,,,,,,,,,,,,,,,0,,79,0
16827,note_on,26,0,1,,,,,,,,,,,,,,,,,0,,77,0
16830,note_on,3,0,1,,,,,,,,,,,,,,,,,0,,77,46
16830,note_on,0,0,1,,,,,,,,,,,,,,,,,0,,88,51
16857,note_on,27,0,1,,,,,,,,,,,,,,,,,0,,88,0
16857,note_on,0,0,1,,,,,,,,,,,,,,,,,0,,77,0
16860,note_on,3,0,1,,,,,,,,,,,,,,,,,0,,79,40
16860,note_on,0,0,1,,,,,,,,,,,,,,,,,0,,77,33
16861,note_on,1,0,1,,,,,,,,,,,,,,,,,0,,71,57
16861,note_on,0,0,1,,,,,,,,,,,,,,,,,0,,67,57
16887,note_on,26,0,1,,,,,,,,,,,,,,,,,0,,77,0
16887,note_on,0,0,1,,,,,,,,,,,,,,,,,0,,79,0
16890,note_on,0,0,1,,,,,,,,,,,,,,,,,0,,77,39
16890,note_on,3,0,1,,,,,,,,,,,,,,,,,0,,86,45
16902,note_on,12,0,1,,,,,,,,,,,,,,,,,0,,60,0
16903,control_change,1,0,1,,,,,,,,,,,,,,,64,0,0,,,
16910,note_on,7,0,1,,,,,,,,,,,,,,,,,0,,71,0
16917,note_on,7,0,1,,,,,,,,,,,,,,,,,0,,86,0
16917,note_on,0,0,1,,,,,,,,,,,,,,,,,0,,77,0
16920,note_on,3,0,1,,,,,,,,,,,,,,,,,0,,76,41
16920,note_on,0,0,1,,,,,,,,,,,,,,,,,0,,79,42
16921,note_on,1,0,1,,,,,,,,,,,,,,,,,0,,60,60
16924,control_change,0,0,1,,,,,,,,,,,,,,,64,127,0,,,
16924,note_on,3,0,1,,,,,,,,,,,,,,,,,0,,67,0
16947,note_on,0,0,1,,,,,,,,,,,,,,,,,0,,79,0
16947,note_on,23,0,1,,,,,,,,,,,,,,,,,0,,76,0
16950,note_on,0,0,1,,,,,,,,,,,,,,,,,0,,84,33
16950,note_on,3,0,1,,,,,,,,,,,,,,,,,0,,76,39
16977,note_on,0,0,1,,,,,,,,,,,,,,,,,0,,76,0
16977,note_on,27,0,1,,,,,,,,,,,,,,,,,0,,84,0
16980,note_on,0,0,1,,,,,,,,,,,,,,,,,0,,81,49
16980,note_on,3,0,1,,,,,,,,,,,,,,,,,0,,77,44
16981,note_on,0,0,1,,,,,,,,,,,,,,,,,0,,69,62
16981,note_on,1,0,1,,,,,,,,,,,,,,,,,0,,72,62
16994,control_change,13,0,1,,,,,,,,,,,,,,,64,0,0,,,
17007,note_on,0,0,1,,,,,,,,,,,,,,,,,0,,77,0
17007,note_on,13,0,1,,,,,,,,,,,,,,,,,0,,81,0
17010,note_on,3,0,1,,,,,,,,,,,,,,,,,0,,77,39
17010,note_on,0,0,1,,,,,,,,,,,,,,,,,0,,86,39
17025,note_on,15,0,1,,,,,,,,,,,,,,,,,0,,72,0
17030,note_on,5,0,1,,,,,,,,,,,,,,,,,0,,69,0
17037,note_on,0,0,1,,,,,,,,,,,,,,,,,0,,77,0
17037,note_on,7,0,1,,,,,,,,,,,,,,,,,0,,86,0
17039,note_on,2,0,1,,,,,,,,,,,,,,,,,0,,67,61
17040,note_on,0,0,1,,,,,,,,,,,,,,,,,0,,83,42
17040,note_on,1,0,1,,,,,,,,,,,,,,,,,0,,79,45
17040,note_on,0,0,1,,,,,,,,,,,,,,,,,0,,71,61
17067,note_on,27,0,1,,,,,,,,,,,,,,,,,0,,83,0
17067,note_on,0,0,1,,,,,,,,,,,,,,,,,0,,79,0
17070,note_on,3,0,1,,,,,,,,,,,,,,,,,0,,79,45
17070,note_on,0,0,1,,,,,,,,,,,,,,,,,0,,88,46
17090,note_on,20,0,1,,,,,,,,,,,,,,,,,0,,71,0
17092,note_on,2,0,1,,,,,,,,,,,,,,,,,0,,67,0
17097,note_on,0,0,1,,,,,,,,,,,,,,,,,0,,79,0
17097,note_on,5,0,1,,,,,,,,,,,,,,,,,0,,88,0
17100,note_on,3,0,1,,,,,,,,,,,,,,,,,0,,84,35
17100,note_on,0,0,1,,,,,,,,,,,,,,,,,0,,81,36
17101,note_on,0,0,1,,,,,,,,,,,,,,,,,0,,65,61
17101,note_on,1,0,1,,,,,,,,,,,,,,,,,0,,69,61
17103,control_change,2,0,1,,,,,,,,,,,,,,,64,127,0,,,
17127,note_on,24,0,1,,,,,,,,,,,,,,,,,0,,81,0
17127,note_on,0,0,1,,,,,,,,,,,,,,,,,0,,84,0
17130,note_on,0,0,1,,,,,,,,,,,,,,,,,0,,89,40
17130,note_on,3,0,1,,,,,,,,,,,,,,,,,0,,81,45
17142,note_on,12,0,1,,,,,,,,,,,,,,,,,0,,69,0
17157,note_on,15,0,1,,,,,,,,,,,,,,,,,0,,81,0
17157,note_on,0,0,1,,,,,,,,,,,,,,,,,0,,89,0
17159,note_on,2,0,1,,,,,,,,,,,,,,,,,0,,67,62
17159,control_change,0,0,1,,,,,,,,,,,,,,,64,0,0,,,
17160,note_on,0,0,1,,,,,,,,,,,,,,,,,0,,83,45
17160,note_on,1,0,1,,,,,,,,,,,,,,,,,0,,79,39
17161,note_on,1,0,1,,,,,,,,,,,,,,,,,0,,71,62
17164,note_on,3,0,1,,,,,,,,,,,,,,,,,0,,65,0
17187,note_on,23,0,1,,,,,,,,,,,,,,,,,0,,83,0
17187,note_on,0,0,1,,,,,,,,,,,,,,,,,0,,79,0
17190,note_on,3,0,1,,,,,,,,,,,,,,,,,0,,79,45
17190,note_on,0,0,1,,,,,,,,,,,,,,,,,0,,88,37
17202,note_on,12,0,1,,,,,,,,,,,,,,,,,0,,71,0
17207,note_on,5,0,1,,,,,,,,,,,,,,,,,0,,67,0
17217,note_on,10,0,1,,,,,,,,,,,,,,,,,0,,79,0
17217,note_on,0,0,1,,,,,,,,,,,,,,,,,0,,88,0
17220,note_on,3,0,1,,,,,,,,,,,,,,,,,0,,77,39
17220,note_on,0,0,1,,,,,,,,,,,,,,,,,0,,81,46
17221,note_on,1,0,1,,,,,,,,,,,,,,,,,0,,69,57
17221,note_on,0,0,1,,,,,,,,,,,,,,,,,0,,72,57
17247,note_on,0,0,1,,,,,,,,,,,,,,,,,0,,77,0
17247,note_on,26,0,1,,,,,,,,,,,,,,,,,0,,81,0
17250,note_on,3,0,1,,,,,,,,,,,,,,,,,0,,77,43
17250,note_on,0,0,1,,,,,,,,,,,,,,,,,0,,86,37
17260,note_on,10,0,1,,,,,,,,,,,,,,,,,0,,72,0
17260,note_on,0,0,1,,,,,,,,,,,,,,,,,0,,69,0
17277,note_on,17,0,1,,,,,,,,,,,,,,,,,0,,86,0
17277,note_on,0,0,1,,,,,,,,,,,,,,,,,0,,77,0
17279,control_change,2,0,1,,,,,,,,,,,,,,,64,127,0,,,
17280,note_on,1,0,1,,,,,,,,,,,,,,,,,0,,77,43
17280,note_on,0,0,1,,,,,,,,,,,,,,,,,0,,79,44
17281,note_on,1,0,1,,,,,,,,,,,,,,,,,0,,71,57
17281,note_on,0,0,1,,,,,,,,,,,,,,,,,0,,74,57
17307,note_on,26,0,1,,,,,,,,,,,,,,,,,0,,79,0
17307,note_on,0,0,1,,,,,,,,,,,,,,,,,0,,77,0
17310,note_on,3,0,1,,,,,,,,,,,,,,,,,0,,77,43
17310,note_on,0,0,1,,,,,,,,,,,,,,,,,0,,86,45
17321,note_on,11,0,1,,,,,,,,,,,,,,,,,0,,60,0
17329,note_on,8,0,1,,,,,,,,,,,,,,,,,0,,74,0
17337,note_on,8,0,1,,,,,,,,,,,,,,,,,0,,86,0
17337,note_on,0,0,1,,,,,,,,,,,,,,,,,0,,77,0
17340,note_on,3,0,1,,,,,,,,,,,,,,,,,0,,79,48
17340,note_on,0,0,1,,,,,,,,,,,,,,,,,0,,77,42
17341,note_on,1,0,1,,,,,,,,,,,,,,,,,0,,60,59
17346,note_on,5,0,1,,,,,,,,,,,,,,,,,0,,71,0
17367,note_on,21,0,1,,,,,,,,,,,,,,,,,0,,79,0
17367,note_on,0,0,1,,,,,,,,,,,,,,,,,0,,77,0
17370,note_on,3,0,1,,,,,,,,,,,,,,,,,0,,77,42
17370,note_on,0,0,1,,,,,,,,,,,,,,,,,0,,86,42
17397,note_on,0,0,1,,,,,,,,,,,,,,,,,0,,77,0
17397,note_on,27,0,1,,,,,,,,,,,,,,,,,0,,86,0
17400,note_on,0,0,1,,,,,,,,,,,,,,,,,0,,81,46
17400,note_on,3,0,1,,,,,,,,,,,,,,,,,0,,77,42
17401,note_on,0,0,1,,,,,,,,,,,,,,,,,0,,72,56
17401,note_on,1,0,1,,,,,,,,,,,,,,,,,0,,69,56
17404,control_change,3,0,1,,,,,,,,,,,,,,,64,0,0,,,
17427,note_on,0,0,1,,,,,,,,,,,,,,,,,0,,77,0
17427,note_on,23,0,1,,,,,,,,,,,,,,,,,0,,81,0
17430,note_on,0,0,1,,,,,,,,,,,,,,,,,0,,77,45
17430,note_on,3,0,1,,,,,,,,,,,,,,,,,0,,86,43
17440,note_on,10,0,1,,,,,,,,,,,,,,,,,0,,69,0
17443,note_on,3,0,1,,,,,,,,,,,,,,,,,0,,72,0
17456,control_change,13,0,1,,,,,,,,,,,,,,,64,127,0,,,
17457,note_on,0,0,1,,,,,,,,,,,,,,,,,0,,86,0
17457,note_on,1,0,1,,,,,,,,,,,,,,,,,0,,77,0
17460,note_on,3,0,1,,,,,,,,,,,,,,,,,0,,77,45
17460,note_on,0,0,1,,,,,,,,,,,,,,,,,0,,79,48
17461,note_on,1,0,1,,,,,,,,,,,,,,,,,0,,71,56
17462,note_on,1,0,1,,,,,,,,,,,,,,,,,0,,74,56
17487,note_on,25,0,1,,,,,,,,,,,,,,,,,0,,79,0
17487,note_on,0,0,1,,,,,,,,,,,,,,,,,0,,77,0
17490,note_on,3,0,1,,,,,,,,,,,,,,,,,0,,86,42
17490,note_on,0,0,1,,,,,,,,,,,,,,,,,0,,77,37
17507,note_on,17,0,1,,,,,,,,,,,,,,,,,0,,74,0
17508,note_on,1,0,1,,,,,,,,,,,,,,,,,0,,60,0
17515,note_on,7,0,1,,,,,,,,,,,,,,,,,0,,71,0
17517,note_on,2,0,1,,,,,,,,,,,,,,,,,0,,77,0
17517,note_on,0,0,1,,,,,,,,,,,,,,,,,0,,86,0
17520,note_on,0,0,1,,,,,,,,,,,,,,,,,0,,77,39
17520,note_on,3,0,1,,,,,,,,,,,,,,,,,0,,79,44
17522,note_on,2,0,1,,,,,,,,,,,,,,,,,0,,60,56
17547,note_on,25,0,1,,,,,,,,,,,,,,,,,0,,77,0
17547,note_on,0,0,1,,,,,,,,,,,,,,,,,0,,79,0
17550,note_on,3,0,1,,,,,,,,,,,,,,,,,0,,77,47
17550,note_on,0,0,1,,,,,,,,,,,,,,,,,0,,88,49
17577,note_on,0,0,1,,,,,,,,,,,,,,,,,0,,77,0
17577,note_on,27,0,1,,,,,,,,,,,,,,,,,0,,88,0
17580,note_on,0,0,1,,,,,,,,,,,,,,,,,0,,77,34
17580,note_on,3,0,1,,,,,,,,,,,,,,,,,0,,79,43
17582,note_on,2,0,1,,,,,,,,,,,,,,,,,0,,67,56
17583,note_on,1,0,1,,,,,,,,,,,,,,,,,0,,71,56
17607,note_on,0,0,1,,,,,,,,,,,,,,,,,0,,79,0
17607,note_on,24,0,1,,,,,,,,,,,,,,,,,0,,77,0
17610,note_on,0,0,1,,,,,,,,,,,,,,,,,0,,86,46
17610,note_on,3,0,1,,,,,,,,,,,,,,,,,0,,77,45
17616,note_on,6,0,1,,,,,,,,,,,,,,,,,0,,71,0
17618,note_on,2,0,1,,,,,,,,,,,,,,,,,0,,60,0
17620,note_on,2,0,1,,,,,,,,,,,,,,,,,0,,67,0
17637,note_on,17,0,1,,,,,,,,,,,,,,,,,0,,86,0
17637,note_on,0,0,1,,,,,,,,,,,,,,,,,0,,77,0
17640,note_on,0,0,1,,,,,,,,,,,,,,,,,0,,79,45
17640,note_on,0,0,1,,,,,,,,,,,,,,,,,0,,60,64
17640,note_on,3,0,1,,,,,,,,,,,,,,,,,0,,76,48
17641,note_on,1,0,1,,,,,,,,,,,,,,,,,0,,72,58
17643,control_change,2,0,1,,,,,,,,,,,,,,,64,0,0,,,
17667,note_on,0,0,1,,,,,,,,,,,,,,,,,0,,76,0
17667,note_on,24,0,1,,,,,,,,,,,,,,,,,0,,79,0
17670,note_on,3,0,1,,,,,,,,,,,,,,,,,0,,76,47
17670,note_on,0,0,1,,,,,,,,,,,,,,,,,0,,84,48
17675,note_on,5,0,1,,,,,,,,,,,,,,,,,0,,72,0
17677,note_on,2,0,1,,,,,,,,,,,,,,,,,0,,60,0
17697,note_on,20,0,1,,,,,,,,,,,,,,,,,0,,76,0
17697,note_on,0,0,1,,,,,,,,,,,,,,,,,0,,84,0
17699,note_on,2,0,1,,,,,,,,,,,,,,,,,0,,54,68
17699,note_on,0,0,1,,,,,,,,,,,,,,,,,0,,66,73
17700,note_on,1,0,1,,,,,,,,,,,,,,,,,0,,75,48
17700,note_on,0,0,1,,,,,,,,,,,,,,,,,0,,80,47
17712,control_change,12,0,1,,,,,,,,,,,,,,,64,127,0,,,
17727,note_on,15,0,1,,,,,,,,,,,,,,,,,0,,80,0
17727,note_on,0,0,1,,,,,,,,,,,,,,,,,0,,75,0
17730,note_on,3,0,1,,,,,,,,,,,,,,,,,0,,84,47
17730,note_on,0,0,1,,,,,,,,,,,,,,,,,0,,75,43
17750,set_tempo,1191,1,0,,,,,,,,,,,,,,447761,,,,,,
17755,note_on,25,0,1,,,,,,,,,,,,,,,,,0,,54,0
17757,note_on,0,0,1,,,,,,,,,,,,,,,,,0,,84,0
17757,note_on,2,0,1,,,,,,,,,,,,,,,,,0,,75,0
17758,note_on,1,0,1,,,,,,,,,,,,,,,,,0,,66,0
17759,note_on,1,0,1,,,,,,,,,,,,,,,,,0,,55,68
17759,note_on,0,0,1,,,,,,,,,,,,,,,,,0,,67,72
17760,note_on,0,0,1,,,,,,,,,,,,,,,,,0,,79,51
17760,note_on,1,0,1,,,,,,,,,,,,,,,,,0,,74,45
17761,control_change,1,0,1,,,,,,,,,,,,,,,64,0,0,,,
17787,note_on,0,0,1,,,,,,,,,,,,,,,,,0,,74,0
17787,note_on,26,0,1,,,,,,,,,,,,,,,,,0,,79,0
17790,note_on,0,0,1,,,,,,,,,,,,,,,,,0,,83,57
17790,note_on,3,0,1,,,,,,,,,,,,,,,,,0,,74,45
17790,set_tempo,40,1,0,,,,,,,,,,,,,,446097,,,,,,
17799,note_on,9,0,1,,,,,,,,,,,,,,,,,0,,67,0
17802,note_on,3,0,1,,,,,,,,,,,,,,,,,0,,55,0
17817,note_on,0,0,1,,,,,,,,,,,,,,,,,0,,83,0
17817,note_on,15,0,1,,,,,,,,,,,,,,,,,0,,74,0
17819,control_change,0,0,1,,,,,,,,,,,,,,,64,127,0,,,
17819,note_on,2,0,1,,,,,,,,,,,,,,,,,0,,63,72
17820,note_on,1,0,1,,,,,,,,,,,,,,,,,0,,73,40
17820,note_on,0,0,1,,,,,,,,,,,,,,,,,0,,79,43
17820,note_on,0,0,1,,,,,,,,,,,,,,,,,0,,51,68
17830,set_tempo,40,1,0,,,,,,,,,,,,,,444444,,,,,,
17847,note_on,0,0,1,,,,,,,,,,,,,,,,,0,,73,0
17847,note_on,27,0,1,,,,,,,,,,,,,,,,,0,,79,0
17850,note_on,3,0,1,,,,,,,,,,,,,,,,,0,,73,45
17850,note_on,0,0,1,,,,,,,,,,,,,,,,,0,,82,40
17863,note_on,13,0,1,,,,,,,,,,,,,,,,,0,,51,0
17865,note_on,2,0,1,,,,,,,,,,,,,,,,,0,,63,0
17870,set_tempo,40,1,0,,,,,,,,,,,,,,442804,,,,,,
17874,control_change,9,0,1,,,,,,,,,,,,,,,64,0,0,,,
17877,note_on,3,0,1,,,,,,,,,,,,,,,,,0,,73,0
17877,note_on,0,0,1,,,,,,,,,,,,,,,,,0,,82,0
17879,note_on,0,0,1,,,,,,,,,,,,,,,,,0,,68,85
17879,note_on,2,0,1,,,,,,,,,,,,,,,,,0,,56,62
17880,note_on,1,0,1,,,,,,,,,,,,,,,,,0,,72,44
17880,note_on,0,0,1,,,,,,,,,,,,,,,,,0,,76,39
17907,note_on,27,0,1,,,,,,,,,,,,,,,,,0,,76,0
17907,note_on,0,0,1,,,,,,,,,,,,,,,,,0,,72,0
17910,note_on,3,0,1,,,,,,,,,,,,,,,,,0,,80,46
17910,set_tempo,40,1,0,,,,,,,,,,,,,,441176,,,,,,
17910,note_on,0,0,1,,,,,,,,,,,,,,,,,0,,72,45
17914,note_on,4,0,1,,,,,,,,,,,,,,,,,0,,68,0
17914,note_on,0,0,1,,,,,,,,,,,,,,,,,0,,56,0
17933,control_change,19,0,1,,,,,,,,,,,,,,,64,127,0,,,
17937,note_on,0,0,1,,,,,,,,,,,,,,,,,0,,72,0
17937,note_on,4,0,1,,,,,,,,,,,,,,,,,0,,80,0
17940,note_on,3,0,1,,,,,,,,,,,,,,,,,0,,70,42
17940,note_on,0,0,1,,,,,,,,,,,,,,,,,0,,76,45
17941,note_on,1,0,1,,,,,,,,,,,,,,,,,0,,49,70
17941,note_on,0,0,1,,,,,,,,,,,,,,,,,0,,61,75
17945,set_tempo,35,1,0,,,,,,,,,,,,,,439560,,,,,,
17967,note_on,26,0,1,,,,,,,,,,,,,,,,,0,,76,0
17967,note_on,0,0,1,,,,,,,,,,,,,,,,,0,,70,0
17970,note_on,0,0,1,,,,,,,,,,,,,,,,,0,,79,45
17970,note_on,3,0,1,,,,,,,,,,,,,,,,,0,,70,42
17985,set_tempo,40,1,0,,,,,,,,,,,,,,437956,,,,,,
17988,note_on,18,0,1,,,,,,,,,,,,,,,,,0,,49,0
17991,note_on,3,0,1,,,,,,,,,,,,,,,,,0,,61,0
17993,control_change,2,0,1,,,,,,,,,,,,,,,64,0,0,,,
17997,note_on,4,0,1,,,,,,,,,,,,,,,,,0,,70,0
17997,note_on,0,0,1,,,,,,,,,,,,,,,,,0,,79,0
17999,note_on,0,0,1,,,,,,,,,,,,,,,,,0,,50,64
17999,note_on,2,0,1,,,,,,,,,,,,,,,,,0,,62,76
18000,note_on,1,0,1,,,,,,,,,,,,,,,,,0,,74,54
18000,note_on,0,0,1,,,,,,,,,,,,,,,,,0,,69,44
18025,set_tempo,40,1,0,,,,,,,,,,,,,,436364,,,,,,
18027,note_on,0,0,1,,,,,,,,,,,,,,,,,0,,74,0
18027,note_on,27,0,1,,,,,,,,,,,,,,,,,0,,69,0
18030,note_on,0,0,1,,,,,,,,,,,,,,,,,0,,69,42
18030,note_on,3,0,1,,,,,,,,,,,,,,,,,0,,78,52
18034,note_on,0,0,1,,,,,,,,,,,,,,,,,0,,62,0
18034,note_on,4,0,1,,,,,,,,,,,,,,,,,0,,50,0
18056,control_change,22,0,1,,,,,,,,,,,,,,,64,127,0,,,
18057,note_on,0,0,1,,,,,,,,,,,,,,,,,0,,69,0
18057,note_on,1,0,1,,,,,,,,,,,,,,,,,0,,78,0
18060,note_on,0,0,1,,,,,,,,,,,,,,,,,0,,74,48
18060,note_on,3,0,1,,,,,,,,,,,,,,,,,0,,68,33
18061,note_on,0,0,1,,,,,,,,,,,,,,,,,0,,47,73
18061,note_on,1,0,1,,,,,,,,,,,,,,,,,0,,59,68
18065,set_tempo,40,1,0,,,,,,,,,,,,,,434783,,,,,,
18087,note_on,26,0,1,,,,,,,,,,,,,,,,,0,,74,0
18087,note_on,0,0,1,,,,,,,,,,,,,,,,,0,,68,0
18090,note_on,0,0,1,,,,,,,,,,,,,,,,,0,,77,49
18090,note_on,3,0,1,,,,,,,,,,,,,,,,,0,,68,47
18100,set_tempo,35,1,0,,,,,,,,,,,,,,433213,,,,,,
18110,note_on,20,0,1,,,,,,,,,,,,,,,,,0,,59,0
18112,note_on,2,0,1,,,,,,,,,,,,,,,,,0,,47,0
18113,control_change,1,0,1,,,,,,,,,,,,,,,64,0,0,,,
18117,note_on,0,0,1,,,,,,,,,,,,,,,,,0,,77,0
18117,note_on,4,0,1,,,,,,,,,,,,,,,,,0,,68,0
18120,note_on,0,0,1,,,,,,,,,,,,,,,,,0,,72,54
18120,note_on,3,0,1,,,,,,,,,,,,,,,,,0,,67,45
18121,note_on,0,0,1,,,,,,,,,,,,,,,,,0,,60,67
18121,note_on,1,0,1,,,,,,,,,,,,,,,,,0,,48,62
18140,set_tempo,40,1,0,,,,,,,,,,,,,,431655,,,,,,
18147,note_on,0,0,1,,,,,,,,,,,,,,,,,0,,67,0
18147,note_on,26,0,1,,,,,,,,,,,,,,,,,0,,72,0
18150,note_on,3,0,1,,,,,,,,,,,,,,,,,0,,76,45
18150,note_on,0,0,1,,,,,,,,,,,,,,,,,0,,67,41
18153,note_on,3,0,1,,,,,,,,,,,,,,,,,0,,60,0
18161,note_on,8,0,1,,,,,,,,,,,,,,,,,0,,48,0
18177,note_on,0,0,1,,,,,,,,,,,,,,,,,0,,67,0
18177,note_on,16,0,1,,,,,,,,,,,,,,,,,0,,76,0
18178,control_change,1,0,1,,,,,,,,,,,,,,,64,127,0,,,
18179,note_on,1,0,1,,,,,,,,,,,,,,,,,0,,56,68
18180,note_on,0,0,1,,,,,,,,,,,,,,,,,0,,68,36
18180,note_on,1,0,1,,,,,,,,,,,,,,,,,0,,72,51
18180,note_on,0,0,1,,,,,,,,,,,,,,,,,0,,44,77
18180,set_tempo,40,1,0,,,,,,,,,,,,,,430108,,,,,,
18207,note_on,0,0,1,,,,,,,,,,,,,,,,,0,,72,0
18207,note_on,27,0,1,,,,,,,,,,,,,,,,,0,,68,0
18210,note_on,3,0,1,,,,,,,,,,,,,,,,,0,,75,58
18210,note_on,0,0,1,,,,,,,,,,,,,,,,,0,,68,41
18220,set_tempo,40,1,0,,,,,,,,,,,,,,428571,,,,,,
18223,note_on,13,0,1,,,,,,,,,,,,,,,,,0,,56,0
18237,note_on,0,0,1,,,,,,,,,,,,,,,,,0,,75,0
18237,note_on,14,0,1,,,,,,,,,,,,,,,,,0,,68,0
18237,control_change,0,0,1,,,,,,,,,,,,,,,64,0,0,,,
18240,note_on,3,0,1,,,,,,,,,,,,,,,,,0,,69,44
18240,note_on,0,0,1,,,,,,,,,,,,,,,,,0,,72,50
18241,note_on,1,0,1,,,,,,,,,,,,,,,,,0,,54,75
18241,note_on,0,0,1,,,,,,,,,,,,,,,,,0,,42,73
18247,note_on,6,0,1,,,,,,,,,,,,,,,,,0,,44,0
18255,set_tempo,35,1,0,,,,,,,,,,,,,,427046,,,,,,
18267,note_on,20,0,1,,,,,,,,,,,,,,,,,0,,69,0
18267,note_on,0,0,1,,,,,,,,,,,,,,,,,0,,72,0
18270,note_on,3,0,1,,,,,,,,,,,,,,,,,0,,69,42
18270,note_on,0,0,1,,,,,,,,,,,,,,,,,0,,74,48
18295,set_tempo,40,1,0,,,,,,,,,,,,,,425532,,,,,,
18297,note_on,27,0,1,,,,,,,,,,,,,,,,,0,,74,0
18297,note_on,0,0,1,,,,,,,,,,,,,,,,,0,,42,0
18297,note_on,0,0,1,,,,,,,,,,,,,,,,,0,,69,0
18297,control_change,0,0,1,,,,,,,,,,,,,,,64,127,0,,,
18297,note_on,0,0,1,,,,,,,,,,,,,,,,,0,,54,0
18300,note_on,3,0,1,,,,,,,,,,,,,,,,,0,,65,39
18300,note_on,0,0,1,,,,,,,,,,,,,,,,,0,,67,47
18301,note_on,1,0,1,,,,,,,,,,,,,,,,,0,,43,76
18301,note_on,0,0,1,,,,,,,,,,,,,,,,,0,,55,71
18327,note_on,0,0,1,,,,,,,,,,,,,,,,,0,,65,0
18327,note_on,26,0,1,,,,,,,,,,,,,,,,,0,,67,0
18330,note_on,3,0,1,,,,,,,,,,,,,,,,,0,,65,40
18330,note_on,0,0,1,,,,,,,,,,,,,,,,,0,,71,47
18335,set_tempo,40,1,0,,,,,,,,,,,,,,424028,,,,,,
18339,note_on,9,0,1,,,,,,,,,,,,,,,,,0,,43,0
18339,note_on,0,0,1,,,,,,,,,,,,,,,,,0,,55,0
18354,control_change,15,0,1,,,,,,,,,,,,,,,64,0,0,,,
18357,note_on,0,0,1,,,,,,,,,,,,,,,,,0,,71,0
18357,note_on,3,0,1,,,,,,,,,,,,,,,,,0,,65,0
18360,note_on,3,0,1,,,,,,,,,,,,,,,,,0,,67,46
18360,note_on,0,0,1,,,,,,,,,,,,,,,,,0,,64,39
18361,note_on,0,0,1,,,,,,,,,,,,,,,,,0,,48,73
18361,note_on,1,0,1,,,,,,,,,,,,,,,,,0,,36,67
18375,set_tempo,40,1,0,,,,,,,,,,,,,,422535,,,,,,
18387,note_on,26,0,1,,,,,,,,,,,,,,,,,0,,64,0
18387,note_on,0,0,1,,,,,,,,,,,,,,,,,0,,67,0
18390,note_on,3,0,1,,,,,,,,,,,,,,,,,0,,72,54
18390,note_on,0,0,1,,,,,,,,,,,,,,,,,0,,64,45
18392,note_on,2,0,1,,,,,,,,,,,,,,,,,0,,36,0
18396,note_on,4,0,1,,,,,,,,,,,,,,,,,0,,48,0
18410,set_tempo,35,1,0,,,,,,,,,,,,,,421053,,,,,,
18417,note_on,0,0,1,,,,,,,,,,,,,,,,,0,,64,0
18417,control_change,0,0,1,,,,,,,,,,,,,,,64,127,0,,,
18417,note_on,21,0,1,,,,,,,,,,,,,,,,,0,,72,0
18420,note_on,3,0,1,,,,,,,,,,,,,,,,,0,,69,52
18420,note_on,0,0,1,,,,,,,,,,,,,,,,,0,,63,40
18421,note_on,1,0,1,,,,,,,,,,,,,,,,,0,,54,81
18422,note_on,1,0,1,,,,,,,,,,,,,,,,,0,,42,62
18423,set_tempo,13,1,0,,,,,,,,,,,,,,422535,,,,,,
18447,note_on,25,0,1,,,,,,,,,,,,,,,,,0,,63,0
18447,note_on,0,0,1,,,,,,,,,,,,,,,,,0,,69,0
18450,note_on,3,0,1,,,,,,,,,,,,,,,,,0,,72,46
18450,note_on,0,0,1,,,,,,,,,,,,,,,,,0,,63,46
18476,note_on,26,0,1,,,,,,,,,,,,,,,,,0,,42,0
18476,control_change,0,0,1,,,,,,,,,,,,,,,64,0,0,,,
18477,note_on,0,0,1,,,,,,,,,,,,,,,,,0,,72,0
18477,note_on,1,0,1,,,,,,,,,,,,,,,,,0,,63,0
18480,note_on,3,0,1,,,,,,,,,,,,,,,,,0,,67,51
18480,note_on,0,0,1,,,,,,,,,,,,,,,,,0,,62,45
18481,note_on,1,0,1,,,,,,,,,,,,,,,,,0,,43,66
18481,note_on,0,0,1,,,,,,,,,,,,,,,,,0,,55,69
18483,note_on,2,0,1,,,,,,,,,,,,,,,,,0,,54,0
18507,note_on,24,0,1,,,,,,,,,,,,,,,,,0,,67,0
18507,note_on,0,0,1,,,,,,,,,,,,,,,,,0,,62,0
18510,note_on,3,0,1,,,,,,,,,,,,,,,,,0,,62,43
18510,note_on,0,0,1,,,,,,,,,,,,,,,,,0,,71,40
18515,note_on,5,0,1,,,,,,,,,,,,,,,,,0,,55,0
18517,note_on,2,0,1,,,,,,,,,,,,,,,,,0,,43,0
18529,control_change,12,0,1,,,,,,,,,,,,,,,64,127,0,,,
18537,note_on,0,0,1,,,,,,,,,,,,,,,,,0,,71,0
18537,note_on,8,0,1,,,,,,,,,,,,,,,,,0,,62,0
18540,note_on,3,0,1,,,,,,,,,,,,,,,,,0,,61,43
18540,note_on,0,0,1,,,,,,,,,,,,,,,,,0,,67,60
18541,note_on,1,0,1,,,,,,,,,,,,,,,,,0,,39,73
18541,note_on,0,0,1,,,,,,,,,,,,,,,,,0,,51,81
18567,note_on,0,0,1,,,,,,,,,,,,,,,,,0,,61,0
18567,note_on,26,0,1,,,,,,,,,,,,,,,,,0,,67,0
18570,note_on,3,0,1,,,,,,,,,,,,,,,,,0,,70,55
18570,note_on,0,0,1,,,,,,,,,,,,,,,,,0,,61,53
18577,note_on,7,0,1,,,,,,,,,,,,,,,,,0,,39,0
18579,note_on,2,0,1,,,,,,,,,,,,,,,,,0,,51,0
18597,note_on,18,0,1,,,,,,,,,,,,,,,,,0,,70,0
18597,note_on,0,0,1,,,,,,,,,,,,,,,,,0,,61,0
18598,control_change,1,0,1,,,,,,,,,,,,,,,64,0,0,,,
18600,note_on,2,0,1,,,,,,,,,,,,,,,,,0,,64,45
18600,note_on,0,0,1,,,,,,,,,,,,,,,,,0,,60,42
18601,note_on,1,0,1,,,,,,,,,,,,,,,,,0,,44,66
18601,note_on,0,0,1,,,,,,,,,,,,,,,,,0,,56,85
18627,note_on,26,0,1,,,,,,,,,,,,,,,,,0,,60,0
18627,note_on,0,0,1,,,,,,,,,,,,,,,,,0,,64,0
18630,note_on,3,0,1,,,,,,,,,,,,,,,,,0,,68,53
18630,note_on,0,0,1,,,,,,,,,,,,,,,,,0,,60,48
18645,note_on,15,0,1,,,,,,,,,,,,,,,,,0,,44,0
18646,note_on,1,0,1,,,,,,,,,,,,,,,,,0,,56,0
18652,control_change,6,0,1,,,,,,,,,,,,,,,64,127,0,,,
18657,note_on,0,0,1,,,,,,,,,,,,,,,,,0,,60,0
18657,note_on,5,0,1,,,,,,,,,,,,,,,,,0,,68,0
18660,note_on,0,0,1,,,,,,,,,,,,,,,,,0,,58,46
18660,note_on,3,0,1,,,,,,,,,,,,,,,,,0,,64,51
18661,note_on,1,0,1,,,,,,,,,,,,,,,,,0,,37,62
18662,note_on,1,0,1,,,,,,,,,,,,,,,,,0,,49,81
18687,note_on,25,0,1,,,,,,,,,,,,,,,,,0,,58,0
18687,note_on,0,0,1,,,,,,,,,,,,,,,,,0,,64,0
18690,note_on,3,0,1,,,,,,,,,,,,,,,,,0,,58,52
18690,note_on,0,0,1,,,,,,,,,,,,,,,,,0,,67,49
18711,control_change,21,0,1,,,,,,,,,,,,,,,64,0,0,,,
18713,note_on,2,0,1,,,,,,,,,,,,,,,,,0,,37,0
18717,note_on,4,0,1,,,,,,,,,,,,,,,,,0,,67,0
18717,note_on,0,0,1,,,,,,,,,,,,,,,,,0,,58,0
18719,note_on,2,0,1,,,,,,,,,,,,,,,,,0,,49,0
18720,note_on,1,0,1,,,,,,,,,,,,,,,,,0,,62,45
18720,note_on,0,0,1,,,,,,,,,,,,,,,,,0,,57,45
18721,note_on,1,0,1,,,,,,,,,,,,,,,,,0,,38,58
18721,note_on,0,0,1,,,,,,,,,,,,,,,,,0,,50,83
18747,note_on,26,0,1,,,,,,,,,,,,,,,,,0,,57,0
18747,note_on,0,0,1,,,,,,,,,,,,,,,,,0,,62,0
18750,note_on,3,0,1,,,,,,,,,,,,,,,,,0,,66,54
18750,note_on,0,0,1,,,,,,,,,,,,,,,,,0,,57,47
18753,note_on,3,0,1,,,,,,,,,,,,,,,,,0,,50,0
18755,note_on,2,0,1,,,,,,,,,,,,,,,,,0,,38,0
18767,control_change,12,0,1,,,,,,,,,,,,,,,64,127,0,,,
18777,note_on,10,0,1,,,,,,,,,,,,,,,,,0,,66,0
18777,note_on,0,0,1,,,,,,,,,,,,,,,,,0,,57,0
18779,note_on,0,0,1,,,,,,,,,,,,,,,,,0,,47,82
18779,note_on,2,0,1,,,,,,,,,,,,,,,,,0,,35,73
18780,note_on,1,0,1,,,,,,,,,,,,,,,,,0,,62,56
18780,note_on,0,0,1,,,,,,,,,,,,,,,,,0,,56,50
18807,note_on,27,0,1,,,,,,,,,,,,,,,,,0,,56,0
18807,note_on,0,0,1,,,,,,,,,,,,,,,,,0,,62,0
18810,note_on,3,0,1,,,,,,,,,,,,,,,,,0,,56,56
18810,note_on,0,0,1,,,,,,,,,,,,,,,,,0,,65,56
18830,note_on,20,0,1,,,,,,,,,,,,,,,,,0,,47,0
18830,control_change,0,0,1,,,,,,,,,,,,,,,64,0,0,,,
18835,note_on,5,0,1,,,,,,,,,,,,,,,,,0,,35,0
18837,note_on,2,0,1,,,,,,,,,,,,,,,,,0,,56,0
18837,note_on,0,0,1,,,,,,,,,,,,,,,,,0,,65,0
18840,note_on,3,0,1,,,,,,,,,,,,,,,,,0,,60,55
18840,note_on,0,0,1,,,,,,,,,,,,,,,,,0,,55,49
18841,note_on,1,0,1,,,,,,,,,,,,,,,,,0,,36,77
18841,note_on,0,0,1,,,,,,,,,,,,,,,,,0,,48,83
18867,note_on,0,0,1,,,,,,,,,,,,,,,,,0,,60,0
18867,note_on,26,0,1,,,,,,,,,,,,,,,,,0,,55,0
18870,note_on,3,0,1,,,,,,,,,,,,,,,,,0,,55,50
18870,note_on,0,0,1,,,,,,,,,,,,,,,,,0,,64,53
18873,note_on,3,0,1,,,,,,,,,,,,,,,,,0,,48,0
18888,note_on,15,0,1,,,,,,,,,,,,,,,,,0,,36,0
18888,control_change,0,0,1,,,,,,,,,,,,,,,64,127,0,,,
18897,note_on,9,0,1,,,,,,,,,,,,,,,,,0,,55,0
18897,note_on,0,0,1,,,,,,,,,,,,,,,,,0,,64,0
18900,note_on,3,0,1,,,,,,,,,,,,,,,,,0,,56,50
18900,note_on,0,0,1,,,,,,,,,,,,,,,,,0,,60,45
18901,note_on,1,0,1,,,,,,,,,,,,,,,,,0,,44,82
18901,note_on,0,0,1,,,,,,,,,,,,,,,,,0,,32,78
18927,note_on,26,0,1,,,,,,,,,,,,,,,,,0,,60,0
18927,note_on,0,0,1,,,,,,,,,,,,,,,,,0,,56,0
18930,note_on,3,0,1,,,,,,,,,,,,,,,,,0,,56,47
18930,note_on,0,0,1,,,,,,,,,,,,,,,,,0,,63,46
18946,note_on,16,0,1,,,,,,,,,,,,,,,,,0,,44,0
18955,control_change,9,0,1,,,,,,,,,,,,,,,64,0,0,,,
18957,note_on,2,0,1,,,,,,,,,,,,,,,,,0,,63,0
18957,note_on,0,0,1,,,,,,,,,,,,,,,,,0,,56,0
18960,note_on,0,0,1,,,,,,,,,,,,,,,,,0,,57,47
18960,note_on,3,0,1,,,,,,,,,,,,,,,,,0,,60,53
18960,set_tempo,537,1,0,,,,,,,,,,,,,,418118,,,,,,
18961,note_on,1,0,1,,,,,,,,,,,,,,,,,0,,42,75
18961,note_on,0,0,1,,,,,,,,,,,,,,,,,0,,30,69
18964,note_on,3,0,1,,,,,,,,,,,,,,,,,0,,32,0
18987,note_on,23,0,1,,,,,,,,,,,,,,,,,0,,60,0
18987,note_on,0,0,1,,,,,,,,,,,,,,,,,0,,57,0
18990,note_on,0,0,1,,,,,,,,,,,,,,,,,0,,62,43
18990,note_on,3,0,1,,,,,,,,,,,,,,,,,0,,57,48
19000,set_tempo,40,1,0,,,,,,,,,,,,,,419580,,,,,,
19017,note_on,27,0,1,,,,,,,,,,,,,,,,,0,,62,0
19017,note_on,0,0,1,,,,,,,,,,,,,,,,,0,,57,0
19020,note_on,3,0,1,,,,,,,,,,,,,,,,,0,,30,0
19020,note_on,0,0,1,,,,,,,,,,,,,,,,,0,,53,46
19020,note_on,0,0,1,,,,,,,,,,,,,,,,,0,,55,51
19021,note_on,1,0,1,,,,,,,,,,,,,,,,,0,,31,68
19022,note_on,1,0,1,,,,,,,,,,,,,,,,,0,,43,74
19027,note_on,5,0,1,,,,,,,,,,,,,,,,,0,,42,0
19040,set_tempo,40,1,0,,,,,,,,,,,,,,421053,,,,,,
19047,note_on,0,0,1,,,,,,,,,,,,,,,,,0,,55,0
19047,note_on,20,0,1,,,,,,,,,,,,,,,,,0,,53,0
19050,note_on,0,0,1,,,,,,,,,,,,,,,,,0,,53,45
19050,note_on,3,0,1,,,,,,,,,,,,,,,,,0,,59,51
19069,note_on,19,0,1,,,,,,,,,,,,,,,,,0,,31,0
19071,note_on,2,0,1,,,,,,,,,,,,,,,,,0,,43,0
19077,note_on,6,0,1,,,,,,,,,,,,,,,,,0,,59,0
19077,note_on,0,0,1,,,,,,,,,,,,,,,,,0,,53,0
19080,note_on,3,0,1,,,,,,,,,,,,,,,,,0,,55,60
19080,note_on,0,0,1,,,,,,,,,,,,,,,,,0,,52,58
19080,set_tempo,40,1,0,,,,,,,,,,,,,,422535,,,,,,
19081,note_on,1,0,1,,,,,,,,,,,,,,,,,0,,43,81
19081,note_on,0,0,1,,,,,,,,,,,,,,,,,0,,36,81
19081,control_change,0,0,1,,,,,,,,,,,,,,,64,127,0,,,
19107,note_on,26,0,1,,,,,,,,,,,,,,,,,0,,52,0
19107,note_on,0,0,1,,,,,,,,,,,,,,,,,0,,55,0
19110,note_on,0,0,1,,,,,,,,,,,,,,,,,0,,52,61
19110,note_on,3,0,1,,,,,,,,,,,,,,,,,0,,60,68
19120,set_tempo,40,1,0,,,,,,,,,,,,,,424028,,,,,,
19133,control_change,23,0,1,,,,,,,,,,,,,,,64,0,0,,,
19137,note_on,4,0,1,,,,,,,,,,,,,,,,,0,,52,0
19137,note_on,0,0,1,,,,,,,,,,,,,,,,,0,,60,0
19140,note_on,3,0,1,,,,,,,,,,,,,,,,,0,,53,60
19140,note_on,0,0,1,,,,,,,,,,,,,,,,,0,,57,63
19155,set_tempo,35,1,0,,,,,,,,,,,,,,425532,,,,,,
19167,note_on,27,0,1,,,,,,,,,,,,,,,,,0,,57,0
19167,note_on,0,0,1,,,,,,,,,,,,,,,,,0,,53,0
19170,note_on,3,0,1,,,,,,,,,,,,,,,,,0,,62,66
19170,note_on,0,0,1,,,,,,,,,,,,,,,,,0,,53,59
19195,note_on,25,0,1,,,,,,,,,,,,,,,,,0,,36,0
19195,set_tempo,40,1,0,,,,,,,,,,,,,,427046,,,,,,
19197,note_on,2,0,1,,,,,,,,,,,,,,,,,0,,53,0
19197,note_on,0,0,1,,,,,,,,,,,,,,,,,0,,62,0
19199,note_on,2,0,1,,,,,,,,,,,,,,,,,0,,43,0
19200,note_on,1,0,1,,,,,,,,,,,,,,,,,0,,59,64
19200,note_on,0,0,1,,,,,,,,,,,,,,,,,0,,55,54
19227,note_on,0,0,1,,,,,,,,,,,,,,,,,0,,59,0
19227,note_on,27,0,1,,,,,,,,,,,,,,,,,0,,55,0
19230,note_on,0,0,1,,,,,,,,,,,,,,,,,0,,55,59
19230,note_on,3,0,1,,,,,,,,,,,,,,,,,0,,64,61
19235,set_tempo,40,1,0,,,,,,,,,,,,,,428571,,,,,,
19257,note_on,0,0,1,,,,,,,,,,,,,,,,,0,,64,0
19257,note_on,27,0,1,,,,,,,,,,,,,,,,,0,,55,0
19259,control_change,2,0,1,,,,,,,,,,,,,,,64,127,0,,,
19260,note_on,1,0,1,,,,,,,,,,,,,,,,,0,,60,55
19260,note_on,0,0,1,,,,,,,,,,,,,,,,,0,,57,50
19275,set_tempo,40,1,0,,,,,,,,,,,,,,430108,,,,,,
19287,note_on,27,0,1,,,,,,,,,,,,,,,,,0,,57,0
19287,note_on,0,0,1,,,,,,,,,,,,,,,,,0,,60,0
19290,note_on,0,0,1,,,,,,,,,,,,,,,,,0,,57,68
19290,note_on,3,0,1,,,,,,,,,,,,,,,,,0,,65,74
19310,set_tempo,35,1,0,,,,,,,,,,,,,,431655,,,,,,
19317,note_on,0,0,1,,,,,,,,,,,,,,,,,0,,65,0
19317,note_on,27,0,1,,,,,,,,,,,,,,,,,0,,57,0
19317,set_tempo,7,1,0,,,,,,,,,,,,,,441176,,,,,,
19320,note_on,3,0,1,,,,,,,,,,,,,,,,,0,,57,51
19320,note_on,0,0,1,,,,,,,,,,,,,,,,,0,,53,48
19347,note_on,27,0,1,,,,,,,,,,,,,,,,,0,,53,0
19347,note_on,0,0,1,,,,,,,,,,,,,,,,,0,,57,0
19350,note_on,3,0,1,,,,,,,,,,,,,,,,,0,,53,59
19350,note_on,0,0,1,,,,,,,,,,,,,,,,,0,,62,64
19355,control_change,5,0,1,,,,,,,,,,,,,,,64,0,0,,,
19377,note_on,0,0,1,,,,,,,,,,,,,,,,,0,,53,0
19377,note_on,22,0,1,,,,,,,,,,,,,,,,,0,,62,0
19379,note_on,2,0,1,,,,,,,,,,,,,,,,,0,,31,73
19379,note_on,0,0,1,,,,,,,,,,,,,,,,,0,,43,73
19380,note_on,1,0,1,,,,,,,,,,,,,,,,,0,,59,62
19380,note_on,0,0,1,,,,,,,,,,,,,,,,,0,,55,52
19407,note_on,27,0,1,,,,,,,,,,,,,,,,,0,,55,0
19407,note_on,0,0,1,,,,,,,,,,,,,,,,,0,,59,0
19410,note_on,0,0,1,,,,,,,,,,,,,,,,,0,,55,54
19410,note_on,3,0,1,,,,,,,,,,,,,,,,,0,,64,55
19425,note_on,15,0,1,,,,,,,,,,,,,,,,,0,,43,0
19431,note_on,6,0,1,,,,,,,,,,,,,,,,,0,,31,0
19437,note_on,6,0,1,,,,,,,,,,,,,,,,,0,,64,0
19437,note_on,0,0,1,,,,,,,,,,,,,,,,,0,,55,0
19439,note_on,2,0,1,,,,,,,,,,,,,,,,,0,,43,73
19439,note_on,0,0,1,,,,,,,,,,,,,,,,,0,,36,82
19440,note_on,1,0,1,,,,,,,,,,,,,,,,,0,,55,58
19440,note_on,0,0,1,,,,,,,,,,,,,,,,,0,,52,52
19441,control_change,1,0,1,,,,,,,,,,,,,,,64,127,0,,,
19467,note_on,0,0,1,,,,,,,,,,,,,,,,,0,,55,0
19467,note_on,26,0,1,,,,,,,,,,,,,,,,,0,,52,0
19470,note_on,0,0,1,,,,,,,,,,,,,,,,,0,,52,58
19470,note_on,3,0,1,,,,,,,,,,,,,,,,,0,,60,70
19497,note_on,27,0,1,,,,,,,,,,,,,,,,,0,,52,0
19497,note_on,0,0,1,,,,,,,,,,,,,,,,,0,,60,0
19500,note_on,3,0,1,,,,,,,,,,,,,,,,,0,,53,54
19500,note_on,0,0,1,,,,,,,,,,,,,,,,,0,,57,60
19501,control_change,1,0,1,,,,,,,,,,,,,,,64,0,0,,,
19527,note_on,26,0,1,,,,,,,,,,,,,,,,,0,,57,0
19527,note_on,0,0,1,,,,,,,,,,,,,,,,,0,,53,0
19530,note_on,3,0,1,,,,,,,,,,,,,,,,,0,,53,56
19530,note_on,0,0,1,,,,,,,,,,,,,,,,,0,,62,62
19551,note_on,21,0,1,,,,,,,,,,,,,,,,,0,,43,0
19554,note_on,3,0,1,,,,,,,,,,,,,,,,,0,,36,0
19557,note_on,0,0,1,,,,,,,,,,,,,,,,,0,,62,0
19557,note_on,3,0,1,,,,,,,,,,,,,,,,,0,,53,0
19560,note_on,3,0,1,,,,,,,,,,,,,,,,,0,,55,51
19560,note_on,0,0,1,,,,,,,,,,,,,,,,,0,,59,60
19587,note_on,27,0,1,,,,,,,,,,,,,,,,,0,,59,0
19587,note_on,0,0,1,,,,,,,,,,,,,,,,,0,,55,0
19590,note_on,0,0,1,,,,,,,,,,,,,,,,,0,,64,61
19590,note_on,3,0,1,,,,,,,,,,,,,,,,,0,,55,61
19617,note_on,0,0,1,,,,,,,,,,,,,,,,,0,,55,0
19617,note_on,27,0,1,,,,,,,,,,,,,,,,,0,,64,0
19620,note_on,0,0,1,,,,,,,,,,,,,,,,,0,,57,45
19620,note_on,3,0,1,,,,,,,,,,,,,,,,,0,,60,55
19621,control_change,1,0,1,,,,,,,,,,,,,,,64,127,0,,,
19647,note_on,0,0,1,,,,,,,,,,,,,,,,,0,,60,0
19647,note_on,26,0,1,,,,,,,,,,,,,,,,,0,,57,0
19650,note_on,0,0,1,,,,,,,,,,,,,,,,,0,,65,73
19650,note_on,3,0,1,,,,,,,,,,,,,,,,,0,,57,69
19677,note_on,27,0,1,,,,,,,,,,,,,,,,,0,,65,0
19677,note_on,0,0,1,,,,,,,,,,,,,,,,,0,,57,0
19680,note_on,3,0,1,,,,,,,,,,,,,,,,,0,,57,50
19680,note_on,0,0,1,,,,,,,,,,,,,,,,,0,,53,45
19707,note_on,27,0,1,,,,,,,,,,,,,,,,,0,,53,0
19707,note_on,0,0,1,,,,,,,,,,,,,,,,,0,,57,0
19710,note_on,3,0,1,,,,,,,,,,,,,,,,,0,,62,68
19710,note_on,0,0,1,,,,,,,,,,,,,,,,,0,,53,68
19724,control_change,14,0,1,,,,,,,,,,,,,,,64,0,0,,,
19737,note_on,13,0,1,,,,,,,,,,,,,,,,,0,,53,0
19737,note_on,0,0,1,,,,,,,,,,,,,,,,,0,,62,0
19740,note_on,0,0,1,,,,,,,,,,,,,,,,,0,,31,84
19740,note_on,3,0,1,,,,,,,,,,,,,,,,,0,,59,56
19740,note_on,0,0,1,,,,,,,,,,,,,,,,,0,,55,49
19741,note_on,1,0,1,,,,,,,,,,,,,,,,,0,,43,75
19767,note_on,26,0,1,,,,,,,,,,,,,,,,,0,,55,0
19767,note_on,0,0,1,,,,,,,,,,,,,,,,,0,,59,0
19770,note_on,0,0,1,,,,,,,,,,,,,,,,,0,,64,48
19770,note_on,3,0,1,,,,,,,,,,,,,,,,,0,,55,51
19789,note_on,19,0,1,,,,,,,,,,,,,,,,,0,,43,0
19791,note_on,2,0,1,,,,,,,,,,,,,,,,,0,,31,0
19797,note_on,6,0,1,,,,,,,,,,,,,,,,,0,,55,0
19797,note_on,0,0,1,,,,,,,,,,,,,,,,,0,,64,0
19800,note_on,3,0,1,,,,,,,,,,,,,,,,,0,,55,48
19800,note_on,0,0,1,,,,,,,,,,,,,,,,,0,,52,43
19801,note_on,0,0,1,,,,,,,,,,,,,,,,,0,,36,84
19801,note_on,1,0,1,,,,,,,,,,,,,,,,,0,,43,75
19812,control_change,11,0,1,,,,,,,,,,,,,,,64,127,0,,,
19827,note_on,15,0,1,,,,,,,,,,,,,,,,,0,,52,0
19827,note_on,0,0,1,,,,,,,,,,,,,,,,,0,,55,0
19830,note_on,3,0,1,,,,,,,,,,,,,,,,,0,,52,54
19830,note_on,0,0,1,,,,,,,,,,,,,,,,,0,,60,70
19845,note_on,15,0,1,,,,,,,,,,,,,,,,,0,,36,0
19846,note_on,1,0,1,,,,,,,,,,,,,,,,,0,,43,0
19857,note_on,11,0,1,,,,,,,,,,,,,,,,,0,,52,0
19857,note_on,0,0,1,,,,,,,,,,,,,,,,,0,,60,0
19860,note_on,0,0,1,,,,,,,,,,,,,,,,,0,,53,49
19860,note_on,3,0,1,,,,,,,,,,,,,,,,,0,,55,57
19861,note_on,0,0,1,,,,,,,,,,,,,,,,,0,,35,80
19861,note_on,1,0,1,,,,,,,,,,,,,,,,,0,,43,72
19862,control_change,1,0,1,,,,,,,,,,,,,,,64,0,0,,,
19887,note_on,0,0,1,,,,,,,,,,,,,,,,,0,,55,0
19887,note_on,25,0,1,,,,,,,,,,,,,,,,,0,,53,0
19890,note_on,0,0,1,,,,,,,,,,,,,,,,,0,,53,50
19890,note_on,3,0,1,,,,,,,,,,,,,,,,,0,,62,65
19903,note_on,13,0,1,,,,,,,,,,,,,,,,,0,,35,0
19904,note_on,1,0,1,,,,,,,,,,,,,,,,,0,,43,0
19917,note_on,0,0,1,,,,,,,,,,,,,,,,,0,,53,0
19917,note_on,13,0,1,,,,,,,,,,,,,,,,,0,,62,0
19919,note_on,0,0,1,,,,,,,,,,,,,,,,,0,,36,79
19919,note_on,2,0,1,,,,,,,,,,,,,,,,,0,,43,70
19920,note_on,1,0,1,,,,,,,,,,,,,,,,,0,,52,51
19920,note_on,0,0,1,,,,,,,,,,,,,,,,,0,,55,57
19947,note_on,27,0,1,,,,,,,,,,,,,,,,,0,,55,0
19947,note_on,0,0,1,,,,,,,,,,,,,,,,,0,,52,0
19950,note_on,3,0,1,,,,,,,,,,,,,,,,,0,,60,68
19950,note_on,0,0,1,,,,,,,,,,,,,,,,,0,,52,57
19962,note_on,12,0,1,,,,,,,,,,,,,,,,,0,,36,0
19963,note_on,1,0,1,,,,,,,,,,,,,,,,,0,,43,0
19977,note_on,0,0,1,,,,,,,,,,,,,,,,,0,,52,0
19977,note_on,14,0,1,,,,,,,,,,,,,,,,,0,,60,0
19979,note_on,0,0,1,,,,,,,,,,,,,,,,,0,,35,83
19979,note_on,2,0,1,,,,,,,,,,,,,,,,,0,,43,74
19980,note_on,0,0,1,,,,,,,,,,,,,,,,,0,,55,59
19980,note_on,1,0,1,,,,,,,,,,,,,,,,,0,,53,55
19990,control_change,10,0,1,,,,,,,,,,,,,,,64,127,0,,,
20007,note_on,0,0,1,,,,,,,,,,,,,,,,,0,,53,0
20007,note_on,17,0,1,,,,,,,,,,,,,,,,,0,,55,0
20010,note_on,0,0,1,,,,,,,,,,,,,,,,,0,,53,63
20010,note_on,3,0,1,,,,,,,,,,,,,,,,,0,,62,68
20024,note_on,14,0,1,,,,,,,,,,,,,,,,,0,,35,0
20025,note_on,1,0,1,,,,,,,,,,,,,,,,,0,,43,0
20037,note_on,12,0,1,,,,,,,,,,,,,,,,,0,,62,0
20037,note_on,0,0,1,,,,,,,,,,,,,,,,,0,,53,0
20040,note_on,3,0,1,,,,,,,,,,,,,,,,,0,,55,54
20040,note_on,0,0,1,,,,,,,,,,,,,,,,,0,,52,37
20040,note_on,0,0,1,,,,,,,,,,,,,,,,,0,,43,66
20040,note_on,0,0,1,,,,,,,,,,,,,,,,,0,,36,74
20045,control_change,5,0,1,,,,,,,,,,,,,,,64,0,0,,,
20067,note_on,22,0,1,,,,,,,,,,,,,,,,,0,,52,0
20067,note_on,0,0,1,,,,,,,,,,,,,,,,,0,,55,0
20070,note_on,0,0,1,,,,,,,,,,,,,,,,,0,,60,64
20070,note_on,3,0,1,,,,,,,,,,,,,,,,,0,,52,51
20083,note_on,13,0,1,,,,,,,,,,,,,,,,,0,,43,0
20083,note_on,0,0,1,,,,,,,,,,,,,,,,,0,,36,0
20097,note_on,14,0,1,,,,,,,,,,,,,,,,,0,,52,0
20097,note_on,0,0,1,,,,,,,,,,,,,,,,,0,,60,0
20099,note_on,2,0,1,,,,,,,,,,,,,,,,,0,,43,69
20100,note_on,0,0,1,,,,,,,,,,,,,,,,,0,,53,44
20100,note_on,0,0,1,,,,,,,,,,,,,,,,,0,,35,78
20100,note_on,1,0,1,,,,,,,,,,,,,,,,,0,,55,55
20127,note_on,0,0,1,,,,,,,,,,,,,,,,,0,,55,0
20127,note_on,27,0,1,,,,,,,,,,,,,,,,,0,,53,0
20130,note_on,3,0,1,,,,,,,,,,,,,,,,,0,,53,56
20130,note_on,0,0,1,,,,,,,,,,,,,,,,,0,,62,64
20142,note_on,0,0,1,,,,,,,,,,,,,,,,,0,,35,0
20142,note_on,12,0,1,,,,,,,,,,,,,,,,,0,,43,0
20157,note_on,15,0,1,,,,,,,,,,,,,,,,,0,,53,0
20157,note_on,0,0,1,,,,,,,,,,,,,,,,,0,,62,0
20160,note_on,3,0,1,,,,,,,,,,,,,,,,,0,,52,43
20160,note_on,0,0,1,,,,,,,,,,,,,,,,,0,,55,54
20161,note_on,1,0,1,,,,,,,,,,,,,,,,,0,,43,73
20161,note_on,0,0,1,,,,,,,,,,,,,,,,,0,,36,82
20166,control_change,5,0,1,,,,,,,,,,,,,,,64,127,0,,,
20187,note_on,21,0,1,,,,,,,,,,,,,,,,,0,,55,0
20187,note_on,0,0,1,,,,,,,,,,,,,,,,,0,,52,0
20190,note_on,0,0,1,,,,,,,,,,,,,,,,,0,,52,60
20190,note_on,3,0,1,,,,,,,,,,,,,,,,,0,,60,71
20203,note_on,13,0,1,,,,,,,,,,,,,,,,,0,,36,0
20204,note_on,1,0,1,,,,,,,,,,,,,,,,,0,,43,0
20217,note_on,0,0,1,,,,,,,,,,,,,,,,,0,,52,0
20217,note_on,13,0,1,,,,,,,,,,,,,,,,,0,,60,0
20220,note_on,0,0,1,,,,,,,,,,,,,,,,,0,,35,83
20220,note_on,0,0,1,,,,,,,,,,,,,,,,,0,,55,52
20220,note_on,3,0,1,,,,,,,,,,,,,,,,,0,,53,45
20220,note_on,0,0,1,,,,,,,,,,,,,,,,,0,,43,74
20225,control_change,5,0,1,,,,,,,,,,,,,,,64,0,0,,,
20247,note_on,22,0,1,,,,,,,,,,,,,,,,,0,,55,0
20247,note_on,0,0,1,,,,,,,,,,,,,,,,,0,,53,0
20250,note_on,0,0,1,,,,,,,,,,,,,,,,,0,,62,65
20250,note_on,3,0,1,,,,,,,,,,,,,,,,,0,,53,50
20264,note_on,14,0,1,,,,,,,,,,,,,,,,,0,,43,0
20264,note_on,0,0,1,,,,,,,,,,,,,,,,,0,,35,0
20277,note_on,13,0,1,,,,,,,,,,,,,,,,,0,,53,0
20277,note_on,0,0,1,,,,,,,,,,,,,,,,,0,,62,0
20279,note_on,2,0,1,,,,,,,,,,,,,,,,,0,,43,73
20279,note_on,0,0,1,,,,,,,,,,,,,,,,,0,,36,82
20280,note_on,1,0,1,,,,,,,,,,,,,,,,,0,,52,45
20280,note_on,0,0,1,,,,,,,,,,,,,,,,,0,,55,58
20307,note_on,27,0,1,,,,,,,,,,,,,,,,,0,,55,0
20307,note_on,0,0,1,,,,,,,,,,,,,,,,,0,,52,0
20310,note_on,0,0,1,,,,,,,,,,,,,,,,,0,,60,63
20310,note_on,3,0,1,,,,,,,,,,,,,,,,,0,,52,43
20326,note_on,0,0,1,,,,,,,,,,,,,,,,,0,,43,0
20326,note_on,16,0,1,,,,,,,,,,,,,,,,,0,,36,0
20337,note_on,0,0,1,,,,,,,,,,,,,,,,,0,,60,0
20337,note_on,11,0,1,,,,,,,,,,,,,,,,,0,,52,0
20339,note_on,2,0,1,,,,,,,,,,,,,,,,,0,,43,69
20340,note_on,1,0,1,,,,,,,,,,,,,,,,,0,,53,46
20340,note_on,0,0,1,,,,,,,,,,,,,,,,,0,,55,54
20340,note_on,0,0,1,,,,,,,,,,,,,,,,,0,,35,79
20348,control_change,8,0,1,,,,,,,,,,,,,,,64,127,0,,,
20367,note_on,19,0,1,,,,,,,,,,,,,,,,,0,,55,0
20367,note_on,0,0,1,,,,,,,,,,,,,,,,,0,,53,0
20370,note_on,3,0,1,,,,,,,,,,,,,,,,,0,,53,63
20370,note_on,0,0,1,,,,,,,,,,,,,,,,,0,,62,69
20387,note_on,17,0,1,,,,,,,,,,,,,,,,,0,,35,0
20388,note_on,1,0,1,,,,,,,,,,,,,,,,,0,,43,0
20397,note_on,0,0,1,,,,,,,,,,,,,,,,,0,,62,0
20397,note_on,9,0,1,,,,,,,,,,,,,,,,,0,,53,0
20400,note_on,0,0,1,,,,,,,,,,,,,,,,,0,,55,51
20400,note_on,3,0,1,,,,,,,,,,,,,,,,,0,,52,39
20401,note_on,0,0,1,,,,,,,,,,,,,,,,,0,,36,85
20401,note_on,1,0,1,,,,,,,,,,,,,,,,,0,,43,76
20402,control_change,1,0,1,,,,,,,,,,,,,,,64,0,0,,,
20427,note_on,0,0,1,,,,,,,,,,,,,,,,,0,,52,0
20427,note_on,25,0,1,,,,,,,,,,,,,,,,,0,,55,0
20430,note_on,3,0,1,,,,,,,,,,,,,,,,,0,,52,49
20430,note_on,0,0,1,,,,,,,,,,,,,,,,,0,,60,65
20447,note_on,17,0,1,,,,,,,,,,,,,,,,,0,,36,0
20448,note_on,1,0,1,,,,,,,,,,,,,,,,,0,,43,0
20457,note_on,0,0,1,,,,,,,,,,,,,,,,,0,,60,0
20457,note_on,9,0,1,,,,,,,,,,,,,,,,,0,,52,0
20460,note_on,3,0,1,,,,,,,,,,,,,,,,,0,,55,56
20460,note_on,0,0,1,,,,,,,,,,,,,,,,,0,,53,49
20461,note_on,1,0,1,,,,,,,,,,,,,,,,,0,,43,73
20461,note_on,0,0,1,,,,,,,,,,,,,,,,,0,,35,81
20487,note_on,26,0,1,,,,,,,,,,,,,,,,,0,,53,0
20487,note_on,0,0,1,,,,,,,,,,,,,,,,,0,,55,0
20490,note_on,0,0,1,,,,,,,,,,,,,,,,,0,,62,60
20490,note_on,3,0,1,,,,,,,,,,,,,,,,,0,,53,42
20501,note_on,11,0,1,,,,,,,,,,,,,,,,,0,,43,0
20502,note_on,1,0,1,,,,,,,,,,,,,,,,,0,,35,0
20517,note_on,0,0,1,,,,,,,,,,,,,,,,,0,,62,0
20517,note_on,15,0,1,,,,,,,,,,,,,,,,,0,,53,0
20520,note_on,3,0,1,,,,,,,,,,,,,,,,,0,,60,71
20520,note_on,0,0,1,,,,,,,,,,,,,,,,,0,,52,68
20521,note_on,1,0,1,,,,,,,,,,,,,,,,,0,,36,88
20521,note_on,0,0,1,,,,,,,,,,,,,,,,,0,,43,79
20523,set_tempo,1206,1,0,,,,,,,,,,,,,,535714,,,,,,
20526,control_change,5,0,1,,,,,,,,,,,,,,,64,127,0,,,
20559,note_on,33,0,1,,,,,,,,,,,,,,,,,0,,52,0
20559,note_on,0,0,1,,,,,,,,,,,,,,,,,0,,60,0
20576,set_tempo,53,1,0,,,,,,,,,,,,,,441176,,,,,,
20576,end_of_track,0,1,0,,,,,,,,,,,,,,,,,,,,
20580,note_on,21,0,1,,,,,,,,,,,,,,,,,0,,60,64
20580,note_on,0,0,1,,,,,,,,,,,,,,,,,0,,52,56
20607,note_on,27,0,1,,,,,,,,,,,,,,,,,0,,52,0
20607,note_on,0,0,1,,,,,,,,,,,,,,,,,0,,60,0
20610,note_on,3,0,1,,,,,,,,,,,,,,,,,0,,52,56
20637,note_on,27,0,1,,,,,,,,,,,,,,,,,0,,52,0
20640,note_on,0,0,1,,,,,,,,,,,,,,,,,0,,55,55
20640,note_on,3,0,1,,,,,,,,,,,,,,,,,0,,64,65
20667,note_on,0,0,1,,,,,,,,,,,,,,,,,0,,64,0
20667,note_on,27,0,1,,,,,,,,,,,,,,,,,0,,55,0
20670,note_on,3,0,1,,,,,,,,,,,,,,,,,0,,55,52
20697,note_on,27,0,1,,,,,,,,,,,,,,,,,0,,55,0
20700,note_on,0,0,1,,,,,,,,,,,,,,,,,0,,60,55
20700,note_on,3,0,1,,,,,,,,,,,,,,,,,0,,67,66
20727,note_on,0,0,1,,,,,,,,,,,,,,,,,0,,67,0
20727,note_on,27,0,1,,,,,,,,,,,,,,,,,0,,60,0
20730,note_on,3,0,1,,,,,,,,,,,,,,,,,0,,60,49
20757,note_on,27,0,1,,,,,,,,,,,,,,,,,0,,60,0
20760,note_on,3,0,1,,,,,,,,,,,,,,,,,0,,72,68
20760,note_on,0,0,1,,,,,,,,,,,,,,,,,0,,64,52
20787,note_on,0,0,1,,,,,,,,,,,,,,,,,0,,72,0
20787,note_on,27,0,1,,,,,,,,,,,,,,,,,0,,64,0
20790,note_on,3,0,1,,,,,,,,,,,,,,,,,0,,64,52
20817,note_on,0,0,1,,,,,,,,,,,,,,,,,0,,43,0
20817,note_on,27,0,1,,,,,,,,,,,,,,,,,0,,64,0
20818,note_on,1,0,1,,,,,,,,,,,,,,,,,0,,36,0
20820,note_on,2,0,1,,,,,,,,,,,,,,,,,0,,67,56
20820,note_on,0,0,1,,,,,,,,,,,,,,,,,0,,76,65
20847,note_on,27,0,1,,,,,,,,,,,,,,,,,0,,76,0
20847,note_on,0,0,1,,,,,,,,,,,,,,,,,0,,67,0
20850,note_on,3,0,1,,,,,,,,,,,,,,,,,0,,67,55
20862,note_on,12,0,1,,,,,,,,,,,,,,,,,0,,48,74
20873,note_on,11,0,1,,,,,,,,,,,,,,,,,0,,55,72
20876,note_on,3,0,1,,,,,,,,,,,,,,,,,0,,48,0
20877,note_on,1,0,1,,,,,,,,,,,,,,,,,0,,67,0
20880,note_on,0,0,1,,,,,,,,,,,,,,,,,0,,72,55
20880,note_on,3,0,1,,,,,,,,,,,,,,,,,0,,79,63
20882,note_on,2,0,1,,,,,,,,,,,,,,,,,0,,64,80
20907,note_on,0,0,1,,,,,,,,,,,,,,,,,0,,79,0
20907,note_on,25,0,1,,,,,,,,,,,,,,,,,0,,72,0
20910,note_on,3,0,1,,,,,,,,,,,,,,,,,0,,72,57
20937,note_on,27,0,1,,,,,,,,,,,,,,,,,0,,72,0
20940,note_on,3,0,1,,,,,,,,,,,,,,,,,0,,84,68
20940,note_on,0,0,1,,,,,,,,,,,,,,,,,0,,76,59
20967,note_on,0,0,1,,,,,,,,,,,,,,,,,0,,84,0
20967,note_on,27,0,1,,,,,,,,,,,,,,,,,0,,76,0
20970,note_on,3,0,1,,,,,,,,,,,,,,,,,0,,76,62
20997,note_on,27,0,1,,,,,,,,,,,,,,,,,0,,76,0
21000,note_on,0,0,1,,,,,,,,,,,,,,,,,0,,79,61
21000,note_on,3,0,1,,,,,,,,,,,,,,,,,0,,88,69
21027,note_on,27,0,1,,,,,,,,,,,,,,,,,0,,79,0
21027,note_on,0,0,1,,,,,,,,,,,,,,,,,0,,88,0
21030,note_on,3,0,1,,,,,,,,,,,,,,,,,0,,79,62
21057,note_on,27,0,1,,,,,,,,,,,,,,,,,0,,79,0
21060,note_on,0,0,1,,,,,,,,,,,,,,,,,0,,84,64
21060,note_on,3,0,1,,,,,,,,,,,,,,,,,0,,91,73
21087,note_on,0,0,1,,,,,,,,,,,,,,,,,0,,91,0
21087,note_on,27,0,1,,,,,,,,,,,,,,,,,0,,84,0
21090,note_on,3,0,1,,,,,,,,,,,,,,,,,0,,84,66
21094,note_on,4,0,1,,,,,,,,,,,,,,,,,0,,55,0
21095,note_on,1,0,1,,,,,,,,,,,,,,,,,0,,64,0
21117,note_on,22,0,1,,,,,,,,,,,,,,,,,0,,84,0
21120,note_on,3,0,1,,,,,,,,,,,,,,,,,0,,96,69
21120,note_on,0,0,1,,,,,,,,,,,,,,,,,0,,88,69
21147,note_on,27,0,1,,,,,,,,,,,,,,,,,0,,88,0
21147,note_on,0,0,1,,,,,,,,,,,,,,,,,0,,96,0
21150,note_on,3,0,1,,,,,,,,,,,,,,,,,0,,88,72
21177,note_on,27,0,1,,,,,,,,,,,,,,,,,0,,88,0
21180,note_on,3,0,1,,,,,,,,,,,,,,,,,0,,100,72
21180,note_on,0,0,1,,,,,,,,,,,,,,,,,0,,91,72
21207,note_on,27,0,1,,,,,,,,,,,,,,,,,0,,91,0
21207,note_on,0,0,1,,,,,,,,,,,,,,,,,0,,100,0
21242,note_on,35,0,1,,,,,,,,,,,,,,,,,0,,100,74
21244,note_on,2,0,1,,,,,,,,,,,,,,,,,0,,91,75
21261,note_on,17,0,1,,,,,,,,,,,,,,,,,0,,100,0
21265,note_on,4,0,1,,,,,,,,,,,,,,,,,0,,60,74
21273,note_on,8,0,1,,,,,,,,,,,,,,,,,0,,67,66
21275,note_on,2,0,1,,,,,,,,,,,,,,,,,0,,84,83
21278,note_on,3,0,1,,,,,,,,,,,,,,,,,0,,60,0
21284,note_on,6,0,1,,,,,,,,,,,,,,,,,0,,91,0
21286,note_on,2,0,1,,,,,,,,,,,,,,,,,0,,76,68
21298,note_on,0,0,1,,,,,,,,,,,,,,,,,0,,84,0
21298,note_on,12,0,1,,,,,,,,,,,,,,,,,0,,67,0
21300,note_on,2,0,1,,,,,,,,,,,,,,,,,0,,76,0
21479,note_on,0,0,1,,,,,,,,,,,,,,,,,0,,84,70
21479,note_on,0,0,1,,,,,,,,,,,,,,,,,0,,76,76
21479,note_on,0,0,1,,,,,,,,,,,,,,,,,0,,88,82
21479,note_on,179,0,1,,,,,,,,,,,,,,,,,0,,60,72
21481,note_on,0,0,1,,,,,,,,,,,,,,,,,0,,72,70
21481,note_on,0,0,1,,,,,,,,,,,,,,,,,0,,67,69
21481,note_on,2,0,1,,,,,,,,,,,,,,,,,0,,79,62
21592,note_on,111,0,1,,,,,,,,,,,,,,,,,0,,72,0
21594,note_on,0,0,1,,,,,,,,,,,,,,,,,0,,67,0
21594,note_on,2,0,1,,,,,,,,,,,,,,,,,0,,76,0
21596,note_on,2,0,1,,,,,,,,,,,,,,,,,0,,79,0
21598,note_on,2,0,1,,,,,,,,,,,,,,,,,0,,84,0
21601,note_on,0,0,1,,,,,,,,,,,,,,,,,0,,60,0
21601,note_on,3,0,1,,,,,,,,,,,,,,,,,0,,88,0
21724,note_on,123,0,1,,,,,,,,,,,,,,,,,0,,60,92
21726,note_on,2,0,1,,,,,,,,,,,,,,,,,0,,36,90
21728,note_on,2,0,1,,,,,,,,,,,,,,,,,0,,48,91
22419,note_on,691,0,1,,,,,,,,,,,,,,,,,0,,48,0
22421,note_on,2,0,1,,,,,,,,,,,,,,,,,0,,60,0
22426,note_on,5,0,1,,,,,,,,,,,,,,,,,0,,36,0
22816,control_change,390,0,1,,,,,,,,,,,,,,,64,0,0,,,
22816,end_of_track,0,1,1,,,,,,,,,,,,,,,,,,,,
