tick,type,data,time,meta,track,numerator,denominator,clocks_per_click,notated_32nd_notes_per_beat,key,tempo,port,program,channel,control,value,note,velocity
0,sequencer_specific,"(0, 0, 65)",0,1,0,,,,,,,,,,,,,
0,program_change,,0,0,1,,,,,,,,0,0,,,,
0,control_change,,0,0,1,,,,,,,,,0,7,110,,
0,control_change,,0,0,1,,,,,,,,,0,10,64,,
0,track_name,,0,1,7,,,,,,,,,,,,,
0,midi_port,,0,1,2,,,,,,,0,,,,,,
0,track_name,,0,1,2,,,,,,,,,,,,,
0,end_of_track,,0,1,2,,,,,,,,,,,,,
0,midi_port,,0,1,3,,,,,,,0,,,,,,
0,track_name,,0,1,3,,,,,,,,,,,,,
0,track_name,,0,1,1,,,,,,,,,,,,,
0,end_of_track,,0,1,3,,,,,,,,,,,,,
0,track_name,,0,1,4,,,,,,,,,,,,,
0,end_of_track,,0,1,4,,,,,,,,,,,,,
0,midi_port,,0,1,5,,,,,,,0,,,,,,
0,track_name,,0,1,5,,,,,,,,,,,,,
0,end_of_track,,0,1,5,,,,,,,,,,,,,
0,midi_port,,0,1,6,,,,,,,0,,,,,,
0,track_name,,0,1,6,,,,,,,,,,,,,
0,end_of_track,,0,1,6,,,,,,,,,,,,,
0,midi_port,,0,1,7,,,,,,,0,,,,,,
0,midi_port,,0,1,4,,,,,,,0,,,,,,
0,midi_port,,0,1,1,,,,,,,0,,,,,,
0,end_of_track,,0,1,7,,,,,,,,,,,,,
0,sequencer_specific,"(0, 0, 65)",0,1,0,,,,,,,,,,,,,
0,time_signature,,0,1,0,3,4,24,8,,,,,,,,,
0,key_signature,,0,1,0,,,,,C,,,,,,,,
0,set_tempo,,0,1,0,,,,,,301507,,,,,,,
244,program_change,,0,0,1,,,,,,,,0,0,,,,
244,note_on,,0,0,1,,,,,,,,,0,,,69,127
244,control_change,,0,0,1,,,,,,,,,0,93,5,,
244,control_change,,0,0,1,,,,,,,,,0,7,110,,
244,control_change,,0,0,1,,,,,,,,,0,0,0,,
244,control_change,,244,0,1,,,,,,,,,0,121,0,,
244,control_change,,0,0,1,,,,,,,,,0,91,30,,
363,control_change,,119,0,1,,,,,,,,,0,64,127,,
365,note_on,,2,0,1,,,,,,,,,0,,,50,112
367,note_on,,2,0,1,,,,,,,,,0,,,66,122
374,note_on,,7,0,1,,,,,,,,,0,,,69,0
422,note_on,,48,0,1,,,,,,,,,0,,,73,121
426,note_on,,4,0,1,,,,,,,,,0,,,66,0
453,note_on,,27,0,1,,,,,,,,,0,,,73,0
470,note_on,,17,0,1,,,,,,,,,0,,,62,99
470,note_on,,0,0,1,,,,,,,,,0,,,50,0
470,note_on,,0,0,1,,,,,,,,,0,,,57,104
470,note_on,,0,0,1,,,,,,,,,0,,,54,102
476,note_on,,6,0,1,,,,,,,,,0,,,74,127
479,note_on,,3,0,1,,,,,,,,,0,,,54,0
479,note_on,,0,0,1,,,,,,,,,0,,,57,0
480,note_on,,1,0,1,,,,,,,,,0,,,62,0
514,control_change,,34,0,1,,,,,,,,,0,64,0,,
541,note_on,,27,0,1,,,,,,,,,0,,,76,117
553,note_on,,12,0,1,,,,,,,,,0,,,74,0
581,note_on,,0,0,1,,,,,,,,,0,,,54,113
581,note_on,,0,0,1,,,,,,,,,0,,,62,101
581,note_on,,0,0,1,,,,,,,,,0,,,57,109
581,note_on,,28,0,1,,,,,,,,,0,,,78,127
590,note_on,,9,0,1,,,,,,,,,0,,,54,0
591,note_on,,1,0,1,,,,,,,,,0,,,62,0
591,note_on,,0,0,1,,,,,,,,,0,,,57,0
592,note_on,,1,0,1,,,,,,,,,0,,,76,0
618,note_on,,26,0,1,,,,,,,,,0,,,78,0
639,note_on,,21,0,1,,,,,,,,,0,,,79,116
665,note_on,,26,0,1,,,,,,,,,0,,,79,0
694,note_on,,29,0,1,,,,,,,,,0,,,78,117
694,note_on,,0,0,1,,,,,,,,,0,,,45,114
697,control_change,,3,0,1,,,,,,,,,0,64,127,,
706,note_on,,9,0,1,,,,,,,,,0,,,45,0
718,note_on,,12,0,1,,,,,,,,,0,,,79,99
723,note_on,,5,0,1,,,,,,,,,0,,,78,0
740,note_on,,17,0,1,,,,,,,,,0,,,78,127
755,note_on,,15,0,1,,,,,,,,,0,,,79,0
816,note_on,,61,0,1,,,,,,,,,0,,,57,101
818,note_on,,2,0,1,,,,,,,,,0,,,52,98
819,note_on,,1,0,1,,,,,,,,,0,,,76,126
819,note_on,,0,0,1,,,,,,,,,0,,,61,93
827,note_on,,8,0,1,,,,,,,,,0,,,57,0
828,note_on,,1,0,1,,,,,,,,,0,,,52,0
829,note_on,,1,0,1,,,,,,,,,0,,,61,0
848,note_on,,19,0,1,,,,,,,,,0,,,78,0
851,control_change,,3,0,1,,,,,,,,,0,64,0,,
877,note_on,,26,0,1,,,,,,,,,0,,,74,127
891,note_on,,14,0,1,,,,,,,,,0,,,76,0
936,note_on,,45,0,1,,,,,,,,,0,,,73,127
938,note_on,,2,0,1,,,,,,,,,0,,,61,105
941,note_on,,3,0,1,,,,,,,,,0,,,52,100
941,note_on,,0,0,1,,,,,,,,,0,,,57,100
950,note_on,,9,0,1,,,,,,,,,0,,,61,0
950,note_on,,0,0,1,,,,,,,,,0,,,74,0
953,note_on,,3,0,1,,,,,,,,,0,,,57,0
960,note_on,,7,0,1,,,,,,,,,0,,,52,0
992,note_on,,32,0,1,,,,,,,,,0,,,71,111
994,note_on,,2,0,1,,,,,,,,,0,,,73,0
1058,note_on,,64,0,1,,,,,,,,,0,,,69,123
1061,note_on,,3,0,1,,,,,,,,,0,,,38,109
1061,note_on,,0,0,1,,,,,,,,,0,,,71,0
1071,control_change,,10,0,1,,,,,,,,,0,64,127,,
1089,note_on,,18,0,1,,,,,,,,,0,,,38,0
1125,note_on,,36,0,1,,,,,,,,,0,,,74,127
1143,note_on,,18,0,1,,,,,,,,,0,,,69,0
1156,note_on,,13,0,1,,,,,,,,,0,,,74,0
1183,note_on,,0,0,1,,,,,,,,,0,,,57,105
1183,note_on,,0,0,1,,,,,,,,,0,,,50,89
1183,note_on,,27,0,1,,,,,,,,,0,,,74,119
1183,note_on,,0,0,1,,,,,,,,,0,,,62,127
1192,note_on,,9,0,1,,,,,,,,,0,,,50,0
1192,note_on,,0,0,1,,,,,,,,,0,,,57,0
1211,note_on,,19,0,1,,,,,,,,,0,,,76,114
1212,note_on,,1,0,1,,,,,,,,,0,,,62,0
1212,note_on,,0,0,1,,,,,,,,,0,,,74,0
1234,note_on,,22,0,1,,,,,,,,,0,,,74,119
1248,note_on,,14,0,1,,,,,,,,,0,,,76,0
1281,note_on,,33,0,1,,,,,,,,,0,,,73,127
1284,note_on,,0,0,1,,,,,,,,,0,,,50,111
1284,note_on,,0,0,1,,,,,,,,,0,,,62,108
1284,note_on,,3,0,1,,,,,,,,,0,,,57,110
1291,note_on,,7,0,1,,,,,,,,,0,,,62,0
1293,note_on,,0,0,1,,,,,,,,,0,,,57,0
1293,control_change,,2,0,1,,,,,,,,,0,64,0,,
1294,note_on,,0,0,1,,,,,,,,,0,,,74,0
1294,note_on,,1,0,1,,,,,,,,,0,,,50,0
1350,note_on,,0,0,1,,,,,,,,,0,,,73,0
1350,note_on,,56,0,1,,,,,,,,,0,,,71,116
1416,note_on,,66,0,1,,,,,,,,,0,,,73,121
1421,note_on,,5,0,1,,,,,,,,,0,,,45,111
1431,note_on,,10,0,1,,,,,,,,,0,,,71,0
1437,control_change,,6,0,1,,,,,,,,,0,64,127,,
1458,note_on,,21,0,1,,,,,,,,,0,,,45,0
1542,note_on,,0,0,1,,,,,,,,,0,,,69,111
1542,note_on,,0,0,1,,,,,,,,,0,,,64,111
1542,note_on,,84,0,1,,,,,,,,,0,,,57,94
1571,note_on,,29,0,1,,,,,,,,,0,,,69,0
1571,note_on,,0,0,1,,,,,,,,,0,,,64,0
1571,note_on,,0,0,1,,,,,,,,,0,,,57,0
1660,note_on,,0,0,1,,,,,,,,,0,,,69,122
1660,note_on,,89,0,1,,,,,,,,,0,,,67,102
1660,note_on,,0,0,1,,,,,,,,,0,,,64,94
1663,note_on,,3,0,1,,,,,,,,,0,,,57,106
1673,note_on,,10,0,1,,,,,,,,,0,,,73,0
1719,note_on,,46,0,1,,,,,,,,,0,,,64,0
1719,note_on,,0,0,1,,,,,,,,,0,,,67,0
1722,note_on,,3,0,1,,,,,,,,,0,,,57,0
1779,note_on,,57,0,1,,,,,,,,,0,,,69,0
1800,note_on,,21,0,1,,,,,,,,,0,,,69,126
1803,note_on,,3,0,1,,,,,,,,,0,,,50,122
1812,control_change,,9,0,1,,,,,,,,,0,64,0,,
1834,control_change,,22,0,1,,,,,,,,,0,64,127,,
1867,note_on,,33,0,1,,,,,,,,,0,,,73,127
1876,note_on,,9,0,1,,,,,,,,,0,,,69,0
1897,note_on,,21,0,1,,,,,,,,,0,,,50,0
1917,note_on,,20,0,1,,,,,,,,,0,,,73,0
1920,note_on,,0,0,1,,,,,,,,,0,,,54,106
1920,note_on,,3,0,1,,,,,,,,,0,,,62,107
1922,note_on,,2,0,1,,,,,,,,,0,,,57,106
1922,note_on,,0,0,1,,,,,,,,,0,,,74,127
1931,note_on,,9,0,1,,,,,,,,,0,,,57,0
1931,note_on,,0,0,1,,,,,,,,,0,,,62,0
1931,note_on,,0,0,1,,,,,,,,,0,,,54,0
1952,control_change,,21,0,1,,,,,,,,,0,64,0,,
1992,note_on,,40,0,1,,,,,,,,,0,,,76,114
2000,note_on,,8,0,1,,,,,,,,,0,,,74,0
2034,note_on,,34,0,1,,,,,,,,,0,,,62,115
2034,note_on,,0,0,1,,,,,,,,,0,,,54,116
2036,note_on,,2,0,1,,,,,,,,,0,,,78,127
2036,note_on,,0,0,1,,,,,,,,,0,,,57,103
2043,note_on,,7,0,1,,,,,,,,,0,,,62,0
2044,note_on,,1,0,1,,,,,,,,,0,,,54,0
2047,note_on,,0,0,1,,,,,,,,,0,,,76,0
2047,note_on,,3,0,1,,,,,,,,,0,,,57,0
2068,note_on,,21,0,1,,,,,,,,,0,,,78,0
2104,note_on,,36,0,1,,,,,,,,,0,,,79,114
2126,note_on,,22,0,1,,,,,,,,,0,,,79,0
2152,note_on,,0,0,1,,,,,,,,,0,,,43,111
2152,note_on,,26,0,1,,,,,,,,,0,,,78,119
2155,control_change,,3,0,1,,,,,,,,,0,64,127,,
2172,note_on,,17,0,1,,,,,,,,,0,,,43,0
2175,note_on,,3,0,1,,,,,,,,,0,,,78,0
2181,note_on,,6,0,1,,,,,,,,,0,,,79,107
2196,note_on,,15,0,1,,,,,,,,,0,,,78,121
2214,note_on,,18,0,1,,,,,,,,,0,,,79,0
2272,note_on,,58,0,1,,,,,,,,,0,,,64,106
2274,note_on,,2,0,1,,,,,,,,,0,,,59,107
2277,note_on,,3,0,1,,,,,,,,,0,,,76,119
2287,note_on,,10,0,1,,,,,,,,,0,,,59,0
2287,note_on,,0,0,1,,,,,,,,,0,,,64,0
2297,note_on,,10,0,1,,,,,,,,,0,,,78,0
2312,control_change,,15,0,1,,,,,,,,,0,64,0,,
2335,note_on,,23,0,1,,,,,,,,,0,,,74,123
2341,note_on,,6,0,1,,,,,,,,,0,,,76,0
2390,note_on,,49,0,1,,,,,,,,,0,,,73,127
2390,note_on,,0,0,1,,,,,,,,,0,,,64,108
2391,note_on,,1,0,1,,,,,,,,,0,,,59,103
2393,note_on,,2,0,1,,,,,,,,,0,,,55,95
2401,note_on,,8,0,1,,,,,,,,,0,,,74,0
2404,note_on,,3,0,1,,,,,,,,,0,,,64,0
2424,note_on,,20,0,1,,,,,,,,,0,,,59,0
2442,note_on,,18,0,1,,,,,,,,,0,,,55,0
2448,note_on,,6,0,1,,,,,,,,,0,,,71,112
2450,note_on,,2,0,1,,,,,,,,,0,,,73,0
2509,note_on,,59,0,1,,,,,,,,,0,,,69,122
2509,note_on,,0,0,1,,,,,,,,,0,,,71,0
2511,note_on,,2,0,1,,,,,,,,,0,,,45,94
2518,control_change,,7,0,1,,,,,,,,,0,64,127,,
2536,note_on,,18,0,1,,,,,,,,,0,,,45,0
2570,note_on,,34,0,1,,,,,,,,,0,,,73,127
2591,note_on,,21,0,1,,,,,,,,,0,,,69,0
2602,note_on,,11,0,1,,,,,,,,,0,,,73,0
2625,note_on,,23,0,1,,,,,,,,,0,,,64,107
2626,note_on,,1,0,1,,,,,,,,,0,,,57,103
2629,note_on,,3,0,1,,,,,,,,,0,,,73,116
2634,note_on,,5,0,1,,,,,,,,,0,,,64,0
2635,note_on,,1,0,1,,,,,,,,,0,,,57,0
2651,note_on,,16,0,1,,,,,,,,,0,,,73,0
2656,note_on,,5,0,1,,,,,,,,,0,,,74,112
2674,control_change,,18,0,1,,,,,,,,,0,64,0,,
2675,note_on,,1,0,1,,,,,,,,,0,,,73,121
2693,note_on,,18,0,1,,,,,,,,,0,,,74,0
2744,note_on,,51,0,1,,,,,,,,,0,,,71,116
2747,note_on,,3,0,1,,,,,,,,,0,,,64,99
2747,note_on,,0,0,1,,,,,,,,,0,,,57,105
2757,note_on,,10,0,1,,,,,,,,,0,,,64,0
2758,note_on,,1,0,1,,,,,,,,,0,,,73,0
2770,note_on,,12,0,1,,,,,,,,,0,,,57,0
2806,note_on,,36,0,1,,,,,,,,,0,,,69,119
2807,note_on,,1,0,1,,,,,,,,,0,,,71,0
2871,note_on,,64,0,1,,,,,,,,,0,,,74,122
2873,note_on,,2,0,1,,,,,,,,,0,,,38,103
2877,note_on,,4,0,1,,,,,,,,,0,,,69,0
2889,control_change,,12,0,1,,,,,,,,,0,64,127,,
2911,note_on,,22,0,1,,,,,,,,,0,,,38,0
3000,note_on,,89,0,1,,,,,,,,,0,,,62,85
3001,note_on,,1,0,1,,,,,,,,,0,,,57,66
3001,note_on,,0,0,1,,,,,,,,,0,,,66,93
3004,note_on,,3,0,1,,,,,,,,,0,,,50,85
3017,note_on,,13,0,1,,,,,,,,,0,,,50,0
3027,note_on,,10,0,1,,,,,,,,,0,,,57,0
3028,note_on,,1,0,1,,,,,,,,,0,,,62,0
3041,note_on,,13,0,1,,,,,,,,,0,,,66,0
3126,note_on,,85,0,1,,,,,,,,,0,,,50,90
3128,note_on,,2,0,1,,,,,,,,,0,,,66,81
3128,note_on,,0,0,1,,,,,,,,,0,,,62,81
3128,note_on,,0,0,1,,,,,,,,,0,,,57,89
3242,note_on,,114,0,1,,,,,,,,,0,,,74,0
3257,note_on,,15,0,1,,,,,,,,,0,,,69,109
3259,control_change,,2,0,1,,,,,,,,,0,64,0,,
3287,control_change,,28,0,1,,,,,,,,,0,64,127,,
3305,note_on,,18,0,1,,,,,,,,,0,,,50,0
3307,note_on,,0,0,1,,,,,,,,,0,,,66,0
3307,note_on,,2,0,1,,,,,,,,,0,,,57,0
3307,note_on,,0,0,1,,,,,,,,,0,,,62,0
3315,note_on,,8,0,1,,,,,,,,,0,,,73,112
3324,note_on,,9,0,1,,,,,,,,,0,,,69,0
3346,note_on,,22,0,1,,,,,,,,,0,,,73,0
3365,note_on,,19,0,1,,,,,,,,,0,,,57,96
3365,note_on,,0,0,1,,,,,,,,,0,,,62,92
3365,note_on,,0,0,1,,,,,,,,,0,,,50,110
3371,note_on,,6,0,1,,,,,,,,,0,,,74,113
3376,note_on,,5,0,1,,,,,,,,,0,,,57,0
3379,note_on,,3,0,1,,,,,,,,,0,,,62,0
3388,control_change,,9,0,1,,,,,,,,,0,64,0,,
3394,note_on,,6,0,1,,,,,,,,,0,,,50,0
3419,note_on,,25,0,1,,,,,,,,,0,,,76,103
3419,note_on,,0,0,1,,,,,,,,,0,,,74,0
3465,note_on,,46,0,1,,,,,,,,,0,,,76,0
3475,note_on,,10,0,1,,,,,,,,,0,,,62,92
3476,note_on,,1,0,1,,,,,,,,,0,,,78,102
3476,note_on,,0,0,1,,,,,,,,,0,,,50,94
3479,note_on,,3,0,1,,,,,,,,,0,,,57,97
3489,note_on,,10,0,1,,,,,,,,,0,,,62,0
3490,note_on,,1,0,1,,,,,,,,,0,,,57,0
3497,note_on,,7,0,1,,,,,,,,,0,,,50,0
3530,note_on,,33,0,1,,,,,,,,,0,,,78,0
3542,note_on,,12,0,1,,,,,,,,,0,,,79,97
3574,note_on,,32,0,1,,,,,,,,,0,,,79,0
3593,note_on,,19,0,1,,,,,,,,,0,,,45,106
3595,note_on,,2,0,1,,,,,,,,,0,,,78,81
3603,control_change,,8,0,1,,,,,,,,,0,64,127,,
3603,note_on,,0,0,1,,,,,,,,,0,,,78,0
3608,note_on,,5,0,1,,,,,,,,,0,,,79,101
3616,note_on,,8,0,1,,,,,,,,,0,,,45,0
3629,note_on,,13,0,1,,,,,,,,,0,,,78,108
3635,note_on,,6,0,1,,,,,,,,,0,,,79,0
3720,note_on,,85,0,1,,,,,,,,,0,,,57,92
3720,note_on,,0,0,1,,,,,,,,,0,,,52,86
3722,note_on,,2,0,1,,,,,,,,,0,,,61,63
3726,note_on,,4,0,1,,,,,,,,,0,,,76,106
3732,note_on,,6,0,1,,,,,,,,,0,,,57,0
3734,note_on,,2,0,1,,,,,,,,,0,,,52,0
3736,note_on,,2,0,1,,,,,,,,,0,,,61,0
3740,control_change,,4,0,1,,,,,,,,,0,64,0,,
3744,note_on,,4,0,1,,,,,,,,,0,,,78,0
3773,note_on,,29,0,1,,,,,,,,,0,,,76,0
3785,note_on,,12,0,1,,,,,,,,,0,,,74,98
3839,note_on,,54,0,1,,,,,,,,,0,,,73,114
3840,note_on,,1,0,1,,,,,,,,,0,,,52,90
3842,note_on,,2,0,1,,,,,,,,,0,,,61,85
3842,note_on,,0,0,1,,,,,,,,,0,,,57,92
3842,note_on,,0,0,1,,,,,,,,,0,,,74,0
3856,note_on,,14,0,1,,,,,,,,,0,,,57,0
3858,note_on,,2,0,1,,,,,,,,,0,,,61,0
3877,note_on,,19,0,1,,,,,,,,,0,,,52,0
3896,note_on,,19,0,1,,,,,,,,,0,,,73,0
3900,note_on,,4,0,1,,,,,,,,,0,,,71,99
3952,note_on,,52,0,1,,,,,,,,,0,,,71,0
3955,note_on,,3,0,1,,,,,,,,,0,,,38,100
3960,note_on,,5,0,1,,,,,,,,,0,,,69,104
3964,control_change,,4,0,1,,,,,,,,,0,64,127,,
3983,note_on,,19,0,1,,,,,,,,,0,,,38,0
4022,note_on,,39,0,1,,,,,,,,,0,,,74,107
4041,note_on,,19,0,1,,,,,,,,,0,,,69,0
4080,note_on,,0,0,1,,,,,,,,,0,,,74,111
4080,note_on,,0,0,1,,,,,,,,,0,,,50,90
4080,note_on,,39,0,1,,,,,,,,,0,,,57,97
4080,note_on,,0,0,1,,,,,,,,,0,,,62,90
4081,note_on,,1,0,1,,,,,,,,,0,,,74,0
4090,note_on,,9,0,1,,,,,,,,,0,,,57,0
4107,note_on,,17,0,1,,,,,,,,,0,,,76,105
4109,note_on,,2,0,1,,,,,,,,,0,,,74,0
4109,note_on,,0,0,1,,,,,,,,,0,,,50,0
4109,note_on,,0,0,1,,,,,,,,,0,,,62,0
4110,control_change,,1,0,1,,,,,,,,,0,64,0,,
4129,note_on,,19,0,1,,,,,,,,,0,,,74,110
4142,note_on,,13,0,1,,,,,,,,,0,,,76,0
4193,note_on,,51,0,1,,,,,,,,,0,,,73,107
4200,note_on,,7,0,1,,,,,,,,,0,,,62,90
4202,note_on,,2,0,1,,,,,,,,,0,,,57,93
4202,note_on,,0,0,1,,,,,,,,,0,,,50,96
4203,note_on,,1,0,1,,,,,,,,,0,,,74,0
4214,note_on,,11,0,1,,,,,,,,,0,,,57,0
4229,note_on,,15,0,1,,,,,,,,,0,,,62,0
4233,note_on,,4,0,1,,,,,,,,,0,,,50,0
4256,note_on,,23,0,1,,,,,,,,,0,,,73,0
4262,note_on,,6,0,1,,,,,,,,,0,,,71,109
4324,note_on,,62,0,1,,,,,,,,,0,,,73,106
4324,note_on,,0,0,1,,,,,,,,,0,,,45,96
4336,note_on,,12,0,1,,,,,,,,,0,,,71,0
4349,control_change,,13,0,1,,,,,,,,,0,64,127,,
4361,note_on,,12,0,1,,,,,,,,,0,,,45,0
4440,note_on,,79,0,1,,,,,,,,,0,,,69,89
4440,note_on,,0,0,1,,,,,,,,,0,,,57,89
4440,note_on,,0,0,1,,,,,,,,,0,,,61,95
4499,note_on,,0,0,1,,,,,,,,,0,,,69,0
4499,note_on,,59,0,1,,,,,,,,,0,,,61,0
4499,note_on,,0,0,1,,,,,,,,,0,,,57,0
4560,note_on,,0,0,1,,,,,,,,,0,,,64,93
4560,note_on,,0,0,1,,,,,,,,,0,,,57,91
4560,note_on,,61,0,1,,,,,,,,,0,,,67,89
4560,note_on,,0,0,1,,,,,,,,,0,,,69,105
4564,note_on,,4,0,1,,,,,,,,,0,,,73,0
4585,control_change,,21,0,1,,,,,,,,,0,64,0,,
4618,note_on,,33,0,1,,,,,,,,,0,,,69,0
4619,note_on,,1,0,1,,,,,,,,,0,,,64,0
4619,note_on,,0,0,1,,,,,,,,,0,,,67,0
4687,note_on,,68,0,1,,,,,,,,,0,,,69,106
4688,note_on,,1,0,1,,,,,,,,,0,,,50,112
4705,control_change,,17,0,1,,,,,,,,,0,64,127,,
4750,note_on,,45,0,1,,,,,,,,,0,,,73,121
4758,note_on,,8,0,1,,,,,,,,,0,,,69,0
4790,note_on,,32,0,1,,,,,,,,,0,,,73,0
4799,note_on,,9,0,1,,,,,,,,,0,,,57,0
4800,note_on,,1,0,1,,,,,,,,,0,,,62,109
4800,note_on,,0,0,1,,,,,,,,,0,,,74,122
4804,note_on,,4,0,1,,,,,,,,,0,,,57,107
4806,note_on,,2,0,1,,,,,,,,,0,,,50,0
4833,control_change,,27,0,1,,,,,,,,,0,64,0,,
4859,note_on,,26,0,1,,,,,,,,,0,,,62,0
4863,note_on,,4,0,1,,,,,,,,,0,,,57,0
4865,note_on,,2,0,1,,,,,,,,,0,,,76,116
4878,note_on,,13,0,1,,,,,,,,,0,,,74,0
4918,note_on,,40,0,1,,,,,,,,,0,,,62,100
4920,note_on,,0,0,1,,,,,,,,,0,,,78,125
4920,note_on,,2,0,1,,,,,,,,,0,,,50,101
4921,note_on,,1,0,1,,,,,,,,,0,,,57,103
4932,note_on,,11,0,1,,,,,,,,,0,,,76,0
4941,note_on,,9,0,1,,,,,,,,,0,,,50,0
4947,note_on,,6,0,1,,,,,,,,,0,,,62,0
4950,note_on,,3,0,1,,,,,,,,,0,,,57,0
4978,note_on,,28,0,1,,,,,,,,,0,,,79,112
4987,note_on,,9,0,1,,,,,,,,,0,,,78,0
5010,note_on,,23,0,1,,,,,,,,,0,,,79,0
5035,note_on,,25,0,1,,,,,,,,,0,,,43,100
5037,note_on,,2,0,1,,,,,,,,,0,,,78,101
5043,control_change,,6,0,1,,,,,,,,,0,64,127,,
5049,note_on,,6,0,1,,,,,,,,,0,,,78,0
5055,note_on,,6,0,1,,,,,,,,,0,,,79,89
5064,note_on,,9,0,1,,,,,,,,,0,,,43,0
5072,note_on,,8,0,1,,,,,,,,,0,,,78,119
5087,note_on,,15,0,1,,,,,,,,,0,,,79,0
5163,note_on,,76,0,1,,,,,,,,,0,,,76,112
5167,note_on,,0,0,1,,,,,,,,,0,,,59,94
5167,note_on,,4,0,1,,,,,,,,,0,,,64,97
5177,control_change,,10,0,1,,,,,,,,,0,64,0,,
5188,note_on,,11,0,1,,,,,,,,,0,,,59,0
5188,note_on,,0,0,1,,,,,,,,,0,,,64,0
5189,note_on,,1,0,1,,,,,,,,,0,,,78,0
5220,note_on,,31,0,1,,,,,,,,,0,,,74,115
5224,note_on,,4,0,1,,,,,,,,,0,,,76,0
5280,note_on,,56,0,1,,,,,,,,,0,,,55,91
5280,note_on,,0,0,1,,,,,,,,,0,,,59,94
5280,note_on,,0,0,1,,,,,,,,,0,,,64,87
5280,note_on,,0,0,1,,,,,,,,,0,,,73,126
5290,note_on,,10,0,1,,,,,,,,,0,,,74,0
5293,note_on,,3,0,1,,,,,,,,,0,,,64,0
5307,note_on,,14,0,1,,,,,,,,,0,,,59,0
5318,note_on,,11,0,1,,,,,,,,,0,,,55,0
5336,note_on,,18,0,1,,,,,,,,,0,,,71,113
5342,note_on,,6,0,1,,,,,,,,,0,,,73,0
5399,note_on,,57,0,1,,,,,,,,,0,,,71,0
5400,note_on,,1,0,1,,,,,,,,,0,,,69,114
5400,note_on,,0,0,1,,,,,,,,,0,,,45,104
5401,control_change,,1,0,1,,,,,,,,,0,64,127,,
5427,note_on,,26,0,1,,,,,,,,,0,,,45,0
5458,note_on,,31,0,1,,,,,,,,,0,,,73,119
5484,note_on,,26,0,1,,,,,,,,,0,,,69,0
5495,note_on,,11,0,1,,,,,,,,,0,,,73,0
5518,note_on,,23,0,1,,,,,,,,,0,,,73,104
5520,note_on,,2,0,1,,,,,,,,,0,,,57,102
5520,note_on,,0,0,1,,,,,,,,,0,,,64,103
5527,note_on,,7,0,1,,,,,,,,,0,,,64,0
5527,note_on,,0,0,1,,,,,,,,,0,,,57,0
5533,note_on,,6,0,1,,,,,,,,,0,,,73,0
5546,note_on,,13,0,1,,,,,,,,,0,,,74,108
5550,control_change,,4,0,1,,,,,,,,,0,64,0,,
5568,note_on,,18,0,1,,,,,,,,,0,,,73,116
5583,note_on,,15,0,1,,,,,,,,,0,,,74,0
5624,note_on,,41,0,1,,,,,,,,,0,,,71,111
5624,note_on,,0,0,1,,,,,,,,,0,,,57,91
5625,note_on,,1,0,1,,,,,,,,,0,,,64,101
5637,note_on,,12,0,1,,,,,,,,,0,,,64,0
5638,note_on,,1,0,1,,,,,,,,,0,,,73,0
5643,note_on,,5,0,1,,,,,,,,,0,,,57,0
5686,note_on,,43,0,1,,,,,,,,,0,,,71,0
5689,note_on,,3,0,1,,,,,,,,,0,,,69,101
5750,note_on,,61,0,1,,,,,,,,,0,,,74,111
5751,note_on,,1,0,1,,,,,,,,,0,,,69,0
5753,note_on,,2,0,1,,,,,,,,,0,,,38,100
5771,control_change,,18,0,1,,,,,,,,,0,64,127,,
5780,note_on,,9,0,1,,,,,,,,,0,,,38,0
5864,note_on,,84,0,1,,,,,,,,,0,,,57,94
5866,note_on,,2,0,1,,,,,,,,,0,,,62,98
5867,note_on,,1,0,1,,,,,,,,,0,,,66,97
5876,note_on,,9,0,1,,,,,,,,,0,,,62,0
5876,note_on,,0,0,1,,,,,,,,,0,,,57,0
5884,note_on,,8,0,1,,,,,,,,,0,,,66,0
5988,note_on,,104,0,1,,,,,,,,,0,,,50,94
5993,note_on,,5,0,1,,,,,,,,,0,,,57,88
5993,note_on,,0,0,1,,,,,,,,,0,,,66,96
6012,note_on,,19,0,1,,,,,,,,,0,,,50,0
6016,note_on,,4,0,1,,,,,,,,,0,,,57,0
6018,note_on,,2,0,1,,,,,,,,,0,,,74,0
6030,note_on,,12,0,1,,,,,,,,,0,,,66,0
6068,control_change,,38,0,1,,,,,,,,,0,64,0,,
6120,note_on,,52,0,1,,,,,,,,,0,,,64,116
6125,note_on,,5,0,1,,,,,,,,,0,,,45,127
6145,control_change,,20,0,1,,,,,,,,,0,64,127,,
6177,note_on,,32,0,1,,,,,,,,,0,,,64,0
6184,note_on,,7,0,1,,,,,,,,,0,,,68,113
6230,note_on,,46,0,1,,,,,,,,,0,,,68,0
6236,note_on,,6,0,1,,,,,,,,,0,,,52,108
6236,note_on,,0,0,1,,,,,,,,,0,,,57,99
6242,note_on,,6,0,1,,,,,,,,,0,,,69,127
6242,note_on,,0,0,1,,,,,,,,,0,,,45,0
6245,note_on,,3,0,1,,,,,,,,,0,,,52,0
6246,note_on,,1,0,1,,,,,,,,,0,,,57,0
6274,control_change,,28,0,1,,,,,,,,,0,64,0,,
6299,note_on,,25,0,1,,,,,,,,,0,,,71,123
6312,note_on,,13,0,1,,,,,,,,,0,,,69,0
6355,note_on,,43,0,1,,,,,,,,,0,,,73,127
6358,note_on,,3,0,1,,,,,,,,,0,,,52,115
6358,note_on,,0,0,1,,,,,,,,,0,,,57,104
6358,note_on,,0,0,1,,,,,,,,,0,,,45,104
6367,note_on,,9,0,1,,,,,,,,,0,,,71,0
6368,note_on,,1,0,1,,,,,,,,,0,,,57,0
6376,note_on,,0,0,1,,,,,,,,,0,,,52,0
6376,note_on,,8,0,1,,,,,,,,,0,,,45,0
6414,note_on,,38,0,1,,,,,,,,,0,,,74,124
6425,note_on,,11,0,1,,,,,,,,,0,,,73,0
6445,note_on,,20,0,1,,,,,,,,,0,,,74,0
6466,note_on,,21,0,1,,,,,,,,,0,,,73,102
6473,note_on,,7,0,1,,,,,,,,,0,,,40,109
6480,note_on,,7,0,1,,,,,,,,,0,,,73,0
6491,note_on,,11,0,1,,,,,,,,,0,,,74,108
6491,control_change,,0,0,1,,,,,,,,,0,64,127,,
6495,note_on,,4,0,1,,,,,,,,,0,,,40,0
6507,note_on,,12,0,1,,,,,,,,,0,,,73,127
6521,note_on,,14,0,1,,,,,,,,,0,,,74,0
6598,note_on,,77,0,1,,,,,,,,,0,,,71,109
6600,note_on,,0,0,1,,,,,,,,,0,,,59,97
6600,note_on,,2,0,1,,,,,,,,,0,,,52,107
6607,control_change,,7,0,1,,,,,,,,,0,64,0,,
6610,note_on,,3,0,1,,,,,,,,,0,,,52,0
6611,note_on,,1,0,1,,,,,,,,,0,,,59,0
6615,note_on,,4,0,1,,,,,,,,,0,,,73,0
6646,note_on,,31,0,1,,,,,,,,,0,,,71,0
6652,note_on,,6,0,1,,,,,,,,,0,,,69,106
6708,note_on,,56,0,1,,,,,,,,,0,,,57,107
6712,note_on,,0,0,1,,,,,,,,,0,,,52,109
6712,note_on,,4,0,1,,,,,,,,,0,,,45,100
6713,note_on,,1,0,1,,,,,,,,,0,,,68,124
6717,note_on,,4,0,1,,,,,,,,,0,,,57,0
6721,note_on,,4,0,1,,,,,,,,,0,,,45,0
6722,note_on,,1,0,1,,,,,,,,,0,,,52,0
6724,note_on,,2,0,1,,,,,,,,,0,,,69,0
6771,note_on,,47,0,1,,,,,,,,,0,,,66,124
6783,note_on,,12,0,1,,,,,,,,,0,,,68,0
6832,note_on,,49,0,1,,,,,,,,,0,,,66,0
6834,note_on,,2,0,1,,,,,,,,,0,,,64,120
6839,note_on,,5,0,1,,,,,,,,,0,,,40,108
6847,control_change,,8,0,1,,,,,,,,,0,64,127,,
6850,note_on,,3,0,1,,,,,,,,,0,,,40,0
6895,note_on,,45,0,1,,,,,,,,,0,,,69,119
6896,note_on,,1,0,1,,,,,,,,,0,,,64,0
6917,note_on,,21,0,1,,,,,,,,,0,,,69,0
6945,note_on,,0,0,1,,,,,,,,,0,,,57,97
6945,note_on,,0,0,1,,,,,,,,,0,,,61,102
6945,note_on,,0,0,1,,,,,,,,,0,,,69,122
6945,note_on,,28,0,1,,,,,,,,,0,,,52,102
6954,note_on,,0,0,1,,,,,,,,,0,,,52,0
6954,note_on,,9,0,1,,,,,,,,,0,,,69,0
6955,note_on,,1,0,1,,,,,,,,,0,,,57,0
6956,note_on,,1,0,1,,,,,,,,,0,,,61,0
6976,note_on,,20,0,1,,,,,,,,,0,,,71,104
6982,control_change,,6,0,1,,,,,,,,,0,64,0,,
6992,note_on,,10,0,1,,,,,,,,,0,,,69,108
7008,note_on,,16,0,1,,,,,,,,,0,,,71,0
7062,note_on,,0,0,1,,,,,,,,,0,,,52,111
7062,note_on,,0,0,1,,,,,,,,,0,,,61,102
7062,note_on,,54,0,1,,,,,,,,,0,,,68,127
7062,note_on,,0,0,1,,,,,,,,,0,,,57,91
7068,note_on,,6,0,1,,,,,,,,,0,,,69,0
7071,note_on,,0,0,1,,,,,,,,,0,,,52,0
7071,note_on,,3,0,1,,,,,,,,,0,,,57,0
7073,note_on,,2,0,1,,,,,,,,,0,,,61,0
7123,note_on,,50,0,1,,,,,,,,,0,,,68,0
7127,note_on,,4,0,1,,,,,,,,,0,,,66,127
7191,note_on,,64,0,1,,,,,,,,,0,,,40,97
7193,note_on,,2,0,1,,,,,,,,,0,,,68,122
7197,note_on,,4,0,1,,,,,,,,,0,,,66,0
7209,control_change,,12,0,1,,,,,,,,,0,64,127,,
7213,note_on,,4,0,1,,,,,,,,,0,,,40,0
7311,note_on,,98,0,1,,,,,,,,,0,,,52,108
7311,note_on,,0,0,1,,,,,,,,,0,,,59,111
7311,note_on,,0,0,1,,,,,,,,,0,,,64,111
7340,note_on,,0,0,1,,,,,,,,,0,,,59,0
7340,note_on,,0,0,1,,,,,,,,,0,,,52,0
7340,note_on,,29,0,1,,,,,,,,,0,,,64,0
7432,note_on,,92,0,1,,,,,,,,,0,,,68,0
7435,note_on,,3,0,1,,,,,,,,,0,,,64,123
7435,note_on,,0,0,1,,,,,,,,,0,,,59,106
7435,note_on,,0,0,1,,,,,,,,,0,,,62,113
7437,note_on,,2,0,1,,,,,,,,,0,,,52,105
7494,note_on,,0,0,1,,,,,,,,,0,,,59,0
7494,note_on,,57,0,1,,,,,,,,,0,,,62,0
7496,note_on,,2,0,1,,,,,,,,,0,,,52,0
7554,note_on,,58,0,1,,,,,,,,,0,,,64,0
7560,note_on,,6,0,1,,,,,,,,,0,,,64,126
7563,note_on,,3,0,1,,,,,,,,,0,,,45,125
7566,control_change,,3,0,1,,,,,,,,,0,64,0,,
7597,control_change,,31,0,1,,,,,,,,,0,64,127,,
7626,note_on,,29,0,1,,,,,,,,,0,,,68,120
7626,note_on,,0,0,1,,,,,,,,,0,,,64,0
7663,note_on,,37,0,1,,,,,,,,,0,,,68,0
7668,note_on,,5,0,1,,,,,,,,,0,,,45,0
7680,note_on,,0,0,1,,,,,,,,,0,,,57,101
7680,note_on,,0,0,1,,,,,,,,,0,,,61,123
7680,note_on,,0,0,1,,,,,,,,,0,,,69,125
7680,note_on,,12,0,1,,,,,,,,,0,,,52,106
7689,note_on,,9,0,1,,,,,,,,,0,,,57,0
7689,note_on,,0,0,1,,,,,,,,,0,,,52,0
7704,control_change,,15,0,1,,,,,,,,,0,64,0,,
7709,note_on,,5,0,1,,,,,,,,,0,,,61,0
7744,note_on,,35,0,1,,,,,,,,,0,,,71,116
7754,note_on,,10,0,1,,,,,,,,,0,,,69,0
7800,note_on,,46,0,1,,,,,,,,,0,,,45,113
7800,note_on,,0,0,1,,,,,,,,,0,,,73,122
7800,note_on,,0,0,1,,,,,,,,,0,,,52,111
7800,note_on,,0,0,1,,,,,,,,,0,,,61,123
7800,note_on,,0,0,1,,,,,,,,,0,,,57,100
7809,note_on,,9,0,1,,,,,,,,,0,,,57,0
7809,note_on,,0,0,1,,,,,,,,,0,,,45,0
7810,note_on,,0,0,1,,,,,,,,,0,,,52,0
7810,note_on,,1,0,1,,,,,,,,,0,,,71,0
7829,note_on,,19,0,1,,,,,,,,,0,,,61,0
7842,note_on,,13,0,1,,,,,,,,,0,,,73,0
7860,note_on,,18,0,1,,,,,,,,,0,,,74,117
7885,note_on,,25,0,1,,,,,,,,,0,,,74,0
7920,note_on,,0,0,1,,,,,,,,,0,,,73,114
7920,note_on,,35,0,1,,,,,,,,,0,,,38,108
7929,control_change,,9,0,1,,,,,,,,,0,64,127,,
7943,note_on,,14,0,1,,,,,,,,,0,,,73,0
7944,note_on,,1,0,1,,,,,,,,,0,,,74,104
7953,note_on,,9,0,1,,,,,,,,,0,,,38,0
7961,note_on,,8,0,1,,,,,,,,,0,,,73,127
7978,note_on,,17,0,1,,,,,,,,,0,,,74,0
8040,note_on,,0,0,1,,,,,,,,,0,,,50,108
8040,note_on,,62,0,1,,,,,,,,,0,,,54,108
8040,note_on,,0,0,1,,,,,,,,,0,,,71,116
8040,note_on,,0,0,1,,,,,,,,,0,,,59,99
8050,note_on,,10,0,1,,,,,,,,,0,,,59,0
8054,note_on,,4,0,1,,,,,,,,,0,,,54,0
8070,note_on,,16,0,1,,,,,,,,,0,,,73,0
8073,note_on,,3,0,1,,,,,,,,,0,,,50,0
8074,control_change,,1,0,1,,,,,,,,,0,64,0,,
8092,note_on,,18,0,1,,,,,,,,,0,,,71,0
8100,note_on,,8,0,1,,,,,,,,,0,,,69,114
8160,note_on,,60,0,1,,,,,,,,,0,,,68,124
8161,note_on,,1,0,1,,,,,,,,,0,,,59,96
8164,note_on,,3,0,1,,,,,,,,,0,,,54,99
8166,note_on,,0,0,1,,,,,,,,,0,,,69,0
8166,note_on,,2,0,1,,,,,,,,,0,,,50,100
8174,note_on,,8,0,1,,,,,,,,,0,,,59,0
8188,note_on,,14,0,1,,,,,,,,,0,,,54,0
8192,note_on,,4,0,1,,,,,,,,,0,,,50,0
8220,note_on,,28,0,1,,,,,,,,,0,,,66,121
8231,note_on,,11,0,1,,,,,,,,,0,,,68,0
8280,note_on,,0,0,1,,,,,,,,,0,,,40,103
8280,note_on,,49,0,1,,,,,,,,,0,,,64,119
8283,note_on,,3,0,1,,,,,,,,,0,,,66,0
8290,control_change,,7,0,1,,,,,,,,,0,64,127,,
8303,note_on,,13,0,1,,,,,,,,,0,,,40,0
8340,note_on,,37,0,1,,,,,,,,,0,,,68,119
8342,note_on,,2,0,1,,,,,,,,,0,,,64,0
8362,note_on,,20,0,1,,,,,,,,,0,,,68,0
8398,note_on,,36,0,1,,,,,,,,,0,,,68,115
8400,note_on,,0,0,1,,,,,,,,,0,,,52,105
8400,note_on,,2,0,1,,,,,,,,,0,,,62,91
8400,note_on,,0,0,1,,,,,,,,,0,,,59,96
8407,note_on,,7,0,1,,,,,,,,,0,,,68,0
8409,note_on,,2,0,1,,,,,,,,,0,,,59,0
8409,note_on,,0,0,1,,,,,,,,,0,,,52,0
8423,note_on,,14,0,1,,,,,,,,,0,,,62,0
8424,control_change,,1,0,1,,,,,,,,,0,64,0,,
8429,note_on,,5,0,1,,,,,,,,,0,,,69,106
8447,note_on,,18,0,1,,,,,,,,,0,,,68,127
8461,note_on,,14,0,1,,,,,,,,,0,,,69,0
8511,note_on,,0,0,1,,,,,,,,,0,,,62,91
8511,note_on,,0,0,1,,,,,,,,,0,,,59,96
8511,note_on,,50,0,1,,,,,,,,,0,,,66,124
8511,note_on,,0,0,1,,,,,,,,,0,,,52,109
8522,note_on,,11,0,1,,,,,,,,,0,,,59,0
8522,note_on,,0,0,1,,,,,,,,,0,,,68,0
8527,note_on,,5,0,1,,,,,,,,,0,,,52,0
8534,note_on,,7,0,1,,,,,,,,,0,,,62,0
8563,note_on,,29,0,1,,,,,,,,,0,,,66,0
8567,note_on,,4,0,1,,,,,,,,,0,,,64,120
8633,note_on,,66,0,1,,,,,,,,,0,,,64,0
8635,note_on,,2,0,1,,,,,,,,,0,,,69,116
8636,note_on,,1,0,1,,,,,,,,,0,,,33,115
8653,control_change,,17,0,1,,,,,,,,,0,64,127,,
8668,note_on,,15,0,1,,,,,,,,,0,,,33,0
8758,note_on,,90,0,1,,,,,,,,,0,,,52,97
8759,note_on,,0,0,1,,,,,,,,,0,,,45,90
8759,note_on,,1,0,1,,,,,,,,,0,,,57,91
8760,note_on,,1,0,1,,,,,,,,,0,,,61,84
8769,note_on,,9,0,1,,,,,,,,,0,,,57,0
8769,note_on,,0,0,1,,,,,,,,,0,,,52,0
8770,note_on,,1,0,1,,,,,,,,,0,,,45,0
8789,note_on,,19,0,1,,,,,,,,,0,,,61,0
8880,note_on,,91,0,1,,,,,,,,,0,,,45,91
8880,note_on,,0,0,1,,,,,,,,,0,,,52,99
8880,note_on,,0,0,1,,,,,,,,,0,,,57,89
8880,note_on,,0,0,1,,,,,,,,,0,,,61,79
8901,note_on,,21,0,1,,,,,,,,,0,,,52,0
8903,note_on,,2,0,1,,,,,,,,,0,,,45,0
8904,note_on,,1,0,1,,,,,,,,,0,,,57,0
8915,control_change,,11,0,1,,,,,,,,,0,64,0,,
8939,note_on,,24,0,1,,,,,,,,,0,,,61,0
9012,note_on,,73,0,1,,,,,,,,,0,,,45,119
9012,note_on,,0,0,1,,,,,,,,,0,,,69,0
9015,note_on,,3,0,1,,,,,,,,,0,,,64,114
9028,control_change,,13,0,1,,,,,,,,,0,64,127,,
9060,note_on,,32,0,1,,,,,,,,,0,,,64,0
9075,note_on,,15,0,1,,,,,,,,,0,,,68,111
9102,note_on,,27,0,1,,,,,,,,,0,,,68,0
9125,note_on,,23,0,1,,,,,,,,,0,,,52,85
9129,note_on,,4,0,1,,,,,,,,,0,,,45,0
9131,note_on,,2,0,1,,,,,,,,,0,,,69,112
9131,note_on,,0,0,1,,,,,,,,,0,,,57,87
9136,note_on,,5,0,1,,,,,,,,,0,,,52,0
9143,note_on,,7,0,1,,,,,,,,,0,,,57,0
9151,control_change,,8,0,1,,,,,,,,,0,64,0,,
9185,note_on,,34,0,1,,,,,,,,,0,,,71,107
9190,note_on,,5,0,1,,,,,,,,,0,,,69,0
9240,note_on,,50,0,1,,,,,,,,,0,,,71,0
9245,note_on,,5,0,1,,,,,,,,,0,,,73,99
9249,note_on,,4,0,1,,,,,,,,,0,,,45,97
9249,note_on,,0,0,1,,,,,,,,,0,,,57,92
9252,note_on,,3,0,1,,,,,,,,,0,,,52,91
9263,note_on,,11,0,1,,,,,,,,,0,,,57,0
9268,note_on,,5,0,1,,,,,,,,,0,,,52,0
9275,note_on,,7,0,1,,,,,,,,,0,,,45,0
9285,note_on,,10,0,1,,,,,,,,,0,,,73,0
9300,note_on,,15,0,1,,,,,,,,,0,,,74,112
9341,note_on,,41,0,1,,,,,,,,,0,,,74,0
9355,note_on,,14,0,1,,,,,,,,,0,,,73,107
9360,note_on,,5,0,1,,,,,,,,,0,,,40,102
9376,note_on,,16,0,1,,,,,,,,,0,,,73,0
9384,control_change,,8,0,1,,,,,,,,,0,64,127,,
9385,note_on,,1,0,1,,,,,,,,,0,,,40,0
9387,note_on,,2,0,1,,,,,,,,,0,,,74,93
9396,note_on,,9,0,1,,,,,,,,,0,,,73,125
9412,note_on,,16,0,1,,,,,,,,,0,,,74,0
9483,note_on,,0,0,1,,,,,,,,,0,,,52,105
9483,note_on,,71,0,1,,,,,,,,,0,,,59,99
9490,note_on,,7,0,1,,,,,,,,,0,,,71,99
9492,note_on,,2,0,1,,,,,,,,,0,,,52,0
9492,note_on,,0,0,1,,,,,,,,,0,,,59,0
9500,control_change,,8,0,1,,,,,,,,,0,64,0,,
9508,note_on,,8,0,1,,,,,,,,,0,,,73,0
9533,note_on,,25,0,1,,,,,,,,,0,,,71,0
9541,note_on,,8,0,1,,,,,,,,,0,,,69,107
9595,note_on,,54,0,1,,,,,,,,,0,,,59,94
9597,note_on,,2,0,1,,,,,,,,,0,,,52,99
9600,note_on,,3,0,1,,,,,,,,,0,,,68,116
9602,note_on,,2,0,1,,,,,,,,,0,,,69,0
9611,note_on,,9,0,1,,,,,,,,,0,,,59,0
9616,note_on,,5,0,1,,,,,,,,,0,,,52,0
9651,note_on,,35,0,1,,,,,,,,,0,,,66,106
9665,note_on,,14,0,1,,,,,,,,,0,,,68,0
9705,note_on,,40,0,1,,,,,,,,,0,,,66,0
9707,note_on,,2,0,1,,,,,,,,,0,,,45,115
9712,note_on,,5,0,1,,,,,,,,,0,,,64,109
9727,control_change,,15,0,1,,,,,,,,,0,64,127,,
9750,note_on,,23,0,1,,,,,,,,,0,,,64,0
9766,note_on,,16,0,1,,,,,,,,,0,,,69,113
9785,note_on,,19,0,1,,,,,,,,,0,,,69,0
9814,note_on,,29,0,1,,,,,,,,,0,,,45,0
9824,note_on,,0,0,1,,,,,,,,,0,,,57,92
9824,note_on,,10,0,1,,,,,,,,,0,,,69,110
9824,note_on,,0,0,1,,,,,,,,,0,,,52,105
9833,note_on,,9,0,1,,,,,,,,,0,,,52,0
9834,note_on,,1,0,1,,,,,,,,,0,,,57,0
9848,note_on,,14,0,1,,,,,,,,,0,,,69,0
9849,control_change,,1,0,1,,,,,,,,,0,64,0,,
9855,note_on,,6,0,1,,,,,,,,,0,,,71,97
9878,note_on,,23,0,1,,,,,,,,,0,,,69,105
9884,note_on,,6,0,1,,,,,,,,,0,,,71,0
9951,note_on,,67,0,1,,,,,,,,,0,,,68,124
9951,note_on,,0,0,1,,,,,,,,,0,,,57,89
9951,note_on,,0,0,1,,,,,,,,,0,,,52,101
9951,note_on,,0,0,1,,,,,,,,,0,,,45,102
9959,note_on,,8,0,1,,,,,,,,,0,,,57,0
9961,note_on,,2,0,1,,,,,,,,,0,,,52,0
9962,note_on,,1,0,1,,,,,,,,,0,,,45,0
9965,note_on,,3,0,1,,,,,,,,,0,,,69,0
10021,note_on,,56,0,1,,,,,,,,,0,,,66,122
10027,note_on,,6,0,1,,,,,,,,,0,,,68,0
10082,note_on,,55,0,1,,,,,,,,,0,,,40,94
10085,note_on,,3,0,1,,,,,,,,,0,,,68,113
10093,note_on,,8,0,1,,,,,,,,,0,,,66,0
10103,control_change,,10,0,1,,,,,,,,,0,64,127,,
10112,note_on,,9,0,1,,,,,,,,,0,,,40,0
10200,note_on,,0,0,1,,,,,,,,,0,,,52,114
10200,note_on,,88,0,1,,,,,,,,,0,,,64,102
10200,note_on,,0,0,1,,,,,,,,,0,,,59,108
10212,note_on,,0,0,1,,,,,,,,,0,,,59,0
10212,note_on,,0,0,1,,,,,,,,,0,,,64,0
10212,note_on,,12,0,1,,,,,,,,,0,,,52,0
10318,note_on,,106,0,1,,,,,,,,,0,,,62,97
10320,note_on,,2,0,1,,,,,,,,,0,,,52,104
10320,note_on,,0,0,1,,,,,,,,,0,,,59,91
10320,note_on,,0,0,1,,,,,,,,,0,,,64,110
10324,note_on,,4,0,1,,,,,,,,,0,,,68,0
10338,note_on,,14,0,1,,,,,,,,,0,,,62,0
10341,note_on,,3,0,1,,,,,,,,,0,,,59,0
10351,note_on,,10,0,1,,,,,,,,,0,,,52,0
10409,note_on,,58,0,1,,,,,,,,,0,,,64,0
10443,note_on,,34,0,1,,,,,,,,,0,,,45,121
10445,note_on,,2,0,1,,,,,,,,,0,,,64,120
10456,control_change,,11,0,1,,,,,,,,,0,64,0,,
10478,control_change,,22,0,1,,,,,,,,,0,64,127,,
10505,note_on,,27,0,1,,,,,,,,,0,,,68,120
10511,note_on,,6,0,1,,,,,,,,,0,,,64,0
10546,note_on,,35,0,1,,,,,,,,,0,,,68,0
10553,note_on,,7,0,1,,,,,,,,,0,,,57,108
10555,note_on,,2,0,1,,,,,,,,,0,,,52,112
10556,note_on,,1,0,1,,,,,,,,,0,,,45,0
10559,note_on,,3,0,1,,,,,,,,,0,,,69,127
10562,note_on,,3,0,1,,,,,,,,,0,,,57,0
10564,note_on,,2,0,1,,,,,,,,,0,,,52,0
10587,control_change,,23,0,1,,,,,,,,,0,64,0,,
10612,note_on,,25,0,1,,,,,,,,,0,,,71,115
10624,note_on,,12,0,1,,,,,,,,,0,,,69,0
10672,note_on,,0,0,1,,,,,,,,,0,,,57,107
10672,note_on,,48,0,1,,,,,,,,,0,,,45,116
10675,note_on,,3,0,1,,,,,,,,,0,,,73,126
10676,note_on,,1,0,1,,,,,,,,,0,,,52,111
10680,note_on,,4,0,1,,,,,,,,,0,,,71,0
10681,note_on,,1,0,1,,,,,,,,,0,,,57,0
10684,note_on,,3,0,1,,,,,,,,,0,,,52,0
10693,note_on,,9,0,1,,,,,,,,,0,,,45,0
10730,note_on,,37,0,1,,,,,,,,,0,,,74,127
10743,note_on,,13,0,1,,,,,,,,,0,,,73,0
10765,note_on,,22,0,1,,,,,,,,,0,,,74,0
10786,note_on,,21,0,1,,,,,,,,,0,,,73,108
10788,note_on,,2,0,1,,,,,,,,,0,,,38,106
10797,note_on,,9,0,1,,,,,,,,,0,,,73,0
10799,control_change,,2,0,1,,,,,,,,,0,64,127,,
10808,note_on,,9,0,1,,,,,,,,,0,,,38,0
10809,note_on,,1,0,1,,,,,,,,,0,,,74,106
10826,note_on,,17,0,1,,,,,,,,,0,,,73,127
10839,note_on,,13,0,1,,,,,,,,,0,,,74,0
10912,note_on,,73,0,1,,,,,,,,,0,,,54,105
10912,note_on,,0,0,1,,,,,,,,,0,,,59,96
10916,note_on,,4,0,1,,,,,,,,,0,,,71,109
10916,note_on,,0,0,1,,,,,,,,,0,,,62,108
10927,note_on,,11,0,1,,,,,,,,,0,,,59,0
10928,note_on,,1,0,1,,,,,,,,,0,,,62,0
10932,control_change,,4,0,1,,,,,,,,,0,64,0,,
10936,note_on,,4,0,1,,,,,,,,,0,,,73,0
10937,note_on,,1,0,1,,,,,,,,,0,,,54,0
10967,note_on,,30,0,1,,,,,,,,,0,,,71,0
10971,note_on,,4,0,1,,,,,,,,,0,,,69,109
11030,note_on,,59,0,1,,,,,,,,,0,,,54,92
11030,note_on,,0,0,1,,,,,,,,,0,,,68,121
11030,note_on,,0,0,1,,,,,,,,,0,,,61,108
11032,note_on,,2,0,1,,,,,,,,,0,,,59,87
11035,note_on,,3,0,1,,,,,,,,,0,,,50,100
11035,note_on,,0,0,1,,,,,,,,,0,,,69,0
11042,note_on,,7,0,1,,,,,,,,,0,,,61,0
11054,note_on,,12,0,1,,,,,,,,,0,,,59,0
11069,note_on,,15,0,1,,,,,,,,,0,,,54,0
11076,note_on,,7,0,1,,,,,,,,,0,,,50,0
11094,note_on,,18,0,1,,,,,,,,,0,,,66,116
11103,note_on,,9,0,1,,,,,,,,,0,,,68,0
11150,note_on,,47,0,1,,,,,,,,,0,,,40,102
11152,note_on,,2,0,1,,,,,,,,,0,,,66,0
11155,note_on,,3,0,1,,,,,,,,,0,,,64,116
11164,control_change,,9,0,1,,,,,,,,,0,64,127,,
11179,note_on,,15,0,1,,,,,,,,,0,,,40,0
11213,note_on,,34,0,1,,,,,,,,,0,,,68,117
11224,note_on,,11,0,1,,,,,,,,,0,,,64,0
11241,note_on,,17,0,1,,,,,,,,,0,,,68,0
11274,note_on,,33,0,1,,,,,,,,,0,,,52,104
11274,note_on,,0,0,1,,,,,,,,,0,,,68,119
11278,note_on,,4,0,1,,,,,,,,,0,,,59,85
11280,note_on,,2,0,1,,,,,,,,,0,,,52,0
11287,note_on,,7,0,1,,,,,,,,,0,,,59,0
11289,note_on,,2,0,1,,,,,,,,,0,,,68,0
11304,note_on,,15,0,1,,,,,,,,,0,,,69,112
11309,control_change,,5,0,1,,,,,,,,,0,64,0,,
11329,note_on,,20,0,1,,,,,,,,,0,,,68,121
11350,note_on,,21,0,1,,,,,,,,,0,,,69,0
11385,note_on,,35,0,1,,,,,,,,,0,,,66,122
11391,note_on,,6,0,1,,,,,,,,,0,,,52,108
11391,note_on,,0,0,1,,,,,,,,,0,,,59,97
11396,note_on,,5,0,1,,,,,,,,,0,,,68,0
11400,note_on,,4,0,1,,,,,,,,,0,,,52,0
11401,note_on,,1,0,1,,,,,,,,,0,,,59,0
11444,note_on,,43,0,1,,,,,,,,,0,,,66,0
11451,note_on,,7,0,1,,,,,,,,,0,,,64,111
11525,note_on,,74,0,1,,,,,,,,,0,,,64,0
11529,note_on,,4,0,1,,,,,,,,,0,,,69,103
11529,note_on,,0,0,1,,,,,,,,,0,,,33,113
11551,note_on,,22,0,1,,,,,,,,,0,,,33,0
11562,control_change,,11,0,1,,,,,,,,,0,64,127,,
11640,note_on,,0,0,1,,,,,,,,,0,,,57,104
11640,note_on,,78,0,1,,,,,,,,,0,,,61,104
11640,note_on,,0,0,1,,,,,,,,,0,,,64,104
11699,note_on,,59,0,1,,,,,,,,,0,,,57,0
11699,note_on,,0,0,1,,,,,,,,,0,,,64,0
11699,note_on,,0,0,1,,,,,,,,,0,,,61,0
11767,note_on,,68,0,1,,,,,,,,,0,,,67,106
11767,note_on,,0,0,1,,,,,,,,,0,,,64,104
11768,note_on,,1,0,1,,,,,,,,,0,,,57,95
11768,note_on,,0,0,1,,,,,,,,,0,,,61,75
11796,note_on,,28,0,1,,,,,,,,,0,,,67,0
11797,note_on,,1,0,1,,,,,,,,,0,,,57,0
11797,note_on,,0,0,1,,,,,,,,,0,,,61,0
11826,note_on,,29,0,1,,,,,,,,,0,,,64,0
11880,note_on,,54,0,1,,,,,,,,,0,,,50,127
11886,note_on,,6,0,1,,,,,,,,,0,,,66,119
11888,note_on,,2,0,1,,,,,,,,,0,,,69,0
11908,control_change,,20,0,1,,,,,,,,,0,64,0,,
11929,control_change,,21,0,1,,,,,,,,,0,64,127,,
11935,note_on,,6,0,1,,,,,,,,,0,,,66,0
11939,note_on,,4,0,1,,,,,,,,,0,,,50,0
11958,note_on,,19,0,1,,,,,,,,,0,,,73,122
11984,note_on,,26,0,1,,,,,,,,,0,,,73,0
12000,note_on,,0,0,1,,,,,,,,,0,,,62,115
12000,note_on,,0,0,1,,,,,,,,,0,,,57,114
12000,note_on,,0,0,1,,,,,,,,,0,,,50,112
12000,note_on,,16,0,1,,,,,,,,,0,,,74,127
12000,note_on,,0,0,1,,,,,,,,,0,,,54,108
12008,note_on,,8,0,1,,,,,,,,,0,,,54,0
12009,note_on,,1,0,1,,,,,,,,,0,,,57,0
12012,note_on,,3,0,1,,,,,,,,,0,,,62,0
12029,note_on,,17,0,1,,,,,,,,,0,,,50,0
12036,control_change,,7,0,1,,,,,,,,,0,64,0,,
12069,note_on,,33,0,1,,,,,,,,,0,,,76,125
12073,note_on,,4,0,1,,,,,,,,,0,,,74,0
12124,note_on,,51,0,1,,,,,,,,,0,,,54,117
12125,note_on,,1,0,1,,,,,,,,,0,,,78,127
12128,note_on,,3,0,1,,,,,,,,,0,,,57,113
12128,note_on,,0,0,1,,,,,,,,,0,,,50,113
12129,note_on,,1,0,1,,,,,,,,,0,,,62,107
12137,note_on,,8,0,1,,,,,,,,,0,,,57,0
12137,note_on,,0,0,1,,,,,,,,,0,,,76,0
12138,note_on,,1,0,1,,,,,,,,,0,,,62,0
12146,note_on,,8,0,1,,,,,,,,,0,,,54,0
12146,note_on,,0,0,1,,,,,,,,,0,,,50,0
12176,note_on,,30,0,1,,,,,,,,,0,,,78,0
12185,note_on,,9,0,1,,,,,,,,,0,,,79,122
12217,note_on,,32,0,1,,,,,,,,,0,,,79,0
12239,note_on,,22,0,1,,,,,,,,,0,,,78,120
12240,note_on,,1,0,1,,,,,,,,,0,,,45,127
12243,control_change,,3,0,1,,,,,,,,,0,64,127,,
12258,note_on,,15,0,1,,,,,,,,,0,,,78,0
12265,note_on,,7,0,1,,,,,,,,,0,,,45,0
12270,note_on,,5,0,1,,,,,,,,,0,,,79,112
12287,note_on,,17,0,1,,,,,,,,,0,,,78,127
12302,note_on,,15,0,1,,,,,,,,,0,,,79,0
12356,note_on,,54,0,1,,,,,,,,,0,,,61,115
12361,note_on,,5,0,1,,,,,,,,,0,,,57,107
12362,note_on,,1,0,1,,,,,,,,,0,,,52,105
12363,note_on,,1,0,1,,,,,,,,,0,,,76,123
12371,note_on,,0,0,1,,,,,,,,,0,,,57,0
12371,note_on,,8,0,1,,,,,,,,,0,,,52,0
12376,note_on,,5,0,1,,,,,,,,,0,,,61,0
12381,note_on,,5,0,1,,,,,,,,,0,,,78,0
12395,control_change,,14,0,1,,,,,,,,,0,64,0,,
12416,note_on,,21,0,1,,,,,,,,,0,,,74,126
12425,note_on,,9,0,1,,,,,,,,,0,,,76,0
12479,note_on,,54,0,1,,,,,,,,,0,,,61,114
12479,note_on,,0,0,1,,,,,,,,,0,,,73,127
12480,note_on,,1,0,1,,,,,,,,,0,,,57,113
12480,note_on,,0,0,1,,,,,,,,,0,,,52,109
12490,note_on,,10,0,1,,,,,,,,,0,,,74,0
12502,note_on,,12,0,1,,,,,,,,,0,,,61,0
12523,note_on,,21,0,1,,,,,,,,,0,,,57,0
12539,note_on,,16,0,1,,,,,,,,,0,,,71,120
12539,note_on,,0,0,1,,,,,,,,,0,,,52,0
12545,note_on,,6,0,1,,,,,,,,,0,,,73,0
12600,note_on,,55,0,1,,,,,,,,,0,,,38,114
12603,note_on,,3,0,1,,,,,,,,,0,,,69,124
12603,note_on,,0,0,1,,,,,,,,,0,,,71,0
12612,control_change,,9,0,1,,,,,,,,,0,64,127,,
12630,note_on,,18,0,1,,,,,,,,,0,,,38,0
12667,note_on,,37,0,1,,,,,,,,,0,,,74,127
12681,note_on,,14,0,1,,,,,,,,,0,,,69,0
12699,note_on,,18,0,1,,,,,,,,,0,,,74,0
12720,note_on,,0,0,1,,,,,,,,,0,,,57,105
12720,note_on,,21,0,1,,,,,,,,,0,,,50,111
12723,note_on,,3,0,1,,,,,,,,,0,,,62,96
12726,note_on,,3,0,1,,,,,,,,,0,,,74,121
12729,note_on,,3,0,1,,,,,,,,,0,,,57,0
12729,note_on,,0,0,1,,,,,,,,,0,,,50,0
12732,note_on,,3,0,1,,,,,,,,,0,,,62,0
12738,note_on,,6,0,1,,,,,,,,,0,,,74,0
12755,note_on,,17,0,1,,,,,,,,,0,,,76,110
12781,note_on,,26,0,1,,,,,,,,,0,,,74,115
12786,control_change,,5,0,1,,,,,,,,,0,64,0,,
12802,note_on,,16,0,1,,,,,,,,,0,,,76,0
12836,note_on,,34,0,1,,,,,,,,,0,,,73,127
12837,note_on,,1,0,1,,,,,,,,,0,,,50,115
12838,note_on,,1,0,1,,,,,,,,,0,,,62,100
12840,note_on,,2,0,1,,,,,,,,,0,,,57,108
12846,note_on,,6,0,1,,,,,,,,,0,,,50,0
12848,note_on,,2,0,1,,,,,,,,,0,,,62,0
12848,note_on,,0,0,1,,,,,,,,,0,,,57,0
12848,note_on,,0,0,1,,,,,,,,,0,,,74,0
12891,note_on,,43,0,1,,,,,,,,,0,,,71,109
12891,note_on,,0,0,1,,,,,,,,,0,,,73,0
12955,note_on,,64,0,1,,,,,,,,,0,,,73,119
12960,note_on,,5,0,1,,,,,,,,,0,,,45,114
12970,note_on,,10,0,1,,,,,,,,,0,,,71,0
12975,control_change,,5,0,1,,,,,,,,,0,64,127,,
12992,note_on,,17,0,1,,,,,,,,,0,,,45,0
13080,note_on,,88,0,1,,,,,,,,,0,,,57,99
13080,note_on,,0,0,1,,,,,,,,,0,,,64,111
13080,note_on,,0,0,1,,,,,,,,,0,,,69,109
13089,note_on,,0,0,1,,,,,,,,,0,,,57,0
13089,note_on,,9,0,1,,,,,,,,,0,,,64,0
13109,note_on,,20,0,1,,,,,,,,,0,,,69,0
13194,note_on,,85,0,1,,,,,,,,,0,,,67,113
13195,note_on,,1,0,1,,,,,,,,,0,,,69,114
13195,note_on,,0,0,1,,,,,,,,,0,,,64,109
13198,note_on,,3,0,1,,,,,,,,,0,,,61,98
13200,note_on,,2,0,1,,,,,,,,,0,,,57,97
13207,note_on,,7,0,1,,,,,,,,,0,,,64,0
13208,note_on,,1,0,1,,,,,,,,,0,,,73,0
13213,note_on,,5,0,1,,,,,,,,,0,,,57,0
13221,note_on,,8,0,1,,,,,,,,,0,,,61,0
13250,note_on,,29,0,1,,,,,,,,,0,,,69,0
13253,note_on,,3,0,1,,,,,,,,,0,,,67,0
13308,control_change,,55,0,1,,,,,,,,,0,64,0,,
13328,note_on,,20,0,1,,,,,,,,,0,,,50,126
13331,note_on,,3,0,1,,,,,,,,,0,,,69,119
13348,control_change,,17,0,1,,,,,,,,,0,64,127,,
13387,note_on,,39,0,1,,,,,,,,,0,,,50,0
13391,note_on,,4,0,1,,,,,,,,,0,,,73,120
13400,note_on,,9,0,1,,,,,,,,,0,,,69,0
13433,note_on,,33,0,1,,,,,,,,,0,,,73,0
13437,note_on,,4,0,1,,,,,,,,,0,,,62,102
13439,note_on,,0,0,1,,,,,,,,,0,,,54,101
13439,note_on,,2,0,1,,,,,,,,,0,,,57,96
13446,note_on,,0,0,1,,,,,,,,,0,,,57,0
13446,note_on,,7,0,1,,,,,,,,,0,,,74,127
13446,note_on,,0,0,1,,,,,,,,,0,,,62,0
13446,note_on,,0,0,1,,,,,,,,,0,,,54,0
13467,control_change,,21,0,1,,,,,,,,,0,64,0,,
13508,note_on,,41,0,1,,,,,,,,,0,,,76,123
13520,note_on,,12,0,1,,,,,,,,,0,,,74,0
13560,note_on,,0,0,1,,,,,,,,,0,,,50,105
13560,note_on,,0,0,1,,,,,,,,,0,,,78,127
13560,note_on,,0,0,1,,,,,,,,,0,,,62,103
13560,note_on,,40,0,1,,,,,,,,,0,,,54,107
13567,note_on,,7,0,1,,,,,,,,,0,,,57,88
13570,note_on,,3,0,1,,,,,,,,,0,,,62,0
13572,note_on,,2,0,1,,,,,,,,,0,,,50,0
13572,note_on,,0,0,1,,,,,,,,,0,,,76,0
13577,note_on,,5,0,1,,,,,,,,,0,,,57,0
13582,note_on,,5,0,1,,,,,,,,,0,,,54,0
13620,note_on,,38,0,1,,,,,,,,,0,,,79,119
13629,note_on,,9,0,1,,,,,,,,,0,,,78,0
13655,note_on,,26,0,1,,,,,,,,,0,,,79,0
13675,note_on,,20,0,1,,,,,,,,,0,,,78,111
13679,note_on,,4,0,1,,,,,,,,,0,,,43,100
13687,control_change,,8,0,1,,,,,,,,,0,64,127,,
13689,note_on,,2,0,1,,,,,,,,,0,,,78,0
13700,note_on,,11,0,1,,,,,,,,,0,,,79,107
13712,note_on,,12,0,1,,,,,,,,,0,,,43,0
13715,note_on,,3,0,1,,,,,,,,,0,,,78,121
13727,note_on,,12,0,1,,,,,,,,,0,,,79,0
13800,note_on,,73,0,1,,,,,,,,,0,,,59,101
13801,note_on,,1,0,1,,,,,,,,,0,,,76,118
13801,note_on,,0,0,1,,,,,,,,,0,,,64,95
13824,control_change,,23,0,1,,,,,,,,,0,64,0,,
13830,note_on,,6,0,1,,,,,,,,,0,,,64,0
13833,note_on,,3,0,1,,,,,,,,,0,,,78,0
13839,note_on,,6,0,1,,,,,,,,,0,,,59,0
13860,note_on,,21,0,1,,,,,,,,,0,,,74,122
13869,note_on,,9,0,1,,,,,,,,,0,,,76,0
13911,note_on,,42,0,1,,,,,,,,,0,,,64,103
13915,note_on,,4,0,1,,,,,,,,,0,,,59,106
13917,note_on,,2,0,1,,,,,,,,,0,,,73,127
13917,note_on,,0,0,1,,,,,,,,,0,,,55,98
13924,note_on,,7,0,1,,,,,,,,,0,,,64,0
13928,note_on,,4,0,1,,,,,,,,,0,,,74,0
13945,note_on,,17,0,1,,,,,,,,,0,,,59,0
13958,note_on,,13,0,1,,,,,,,,,0,,,55,0
13972,note_on,,14,0,1,,,,,,,,,0,,,71,113
13983,note_on,,11,0,1,,,,,,,,,0,,,73,0
14036,note_on,,53,0,1,,,,,,,,,0,,,45,107
14039,note_on,,3,0,1,,,,,,,,,0,,,69,115
14039,note_on,,0,0,1,,,,,,,,,0,,,71,0
14043,control_change,,4,0,1,,,,,,,,,0,64,127,,
14070,note_on,,27,0,1,,,,,,,,,0,,,45,0
14103,note_on,,33,0,1,,,,,,,,,0,,,73,117
14126,note_on,,23,0,1,,,,,,,,,0,,,69,0
14140,note_on,,14,0,1,,,,,,,,,0,,,73,0
14158,note_on,,18,0,1,,,,,,,,,0,,,57,102
14160,note_on,,2,0,1,,,,,,,,,0,,,64,101
14163,note_on,,3,0,1,,,,,,,,,0,,,73,106
14168,note_on,,5,0,1,,,,,,,,,0,,,57,0
14169,note_on,,1,0,1,,,,,,,,,0,,,64,0
14178,note_on,,9,0,1,,,,,,,,,0,,,73,0
14190,control_change,,12,0,1,,,,,,,,,0,64,0,,
14192,note_on,,2,0,1,,,,,,,,,0,,,74,111
14217,note_on,,25,0,1,,,,,,,,,0,,,73,108
14230,note_on,,13,0,1,,,,,,,,,0,,,74,0
14267,note_on,,37,0,1,,,,,,,,,0,,,71,115
14268,note_on,,1,0,1,,,,,,,,,0,,,57,102
14269,note_on,,1,0,1,,,,,,,,,0,,,64,103
14278,note_on,,9,0,1,,,,,,,,,0,,,73,0
14280,note_on,,2,0,1,,,,,,,,,0,,,64,0
14290,note_on,,10,0,1,,,,,,,,,0,,,57,0
14317,note_on,,27,0,1,,,,,,,,,0,,,71,0
14327,note_on,,10,0,1,,,,,,,,,0,,,69,109
14393,note_on,,66,0,1,,,,,,,,,0,,,38,91
14393,note_on,,0,0,1,,,,,,,,,0,,,69,0
14397,note_on,,4,0,1,,,,,,,,,0,,,74,111
14414,control_change,,17,0,1,,,,,,,,,0,64,127,,
14429,note_on,,15,0,1,,,,,,,,,0,,,38,0
14511,note_on,,0,0,1,,,,,,,,,0,,,50,74
14511,note_on,,0,0,1,,,,,,,,,0,,,57,81
14511,note_on,,82,0,1,,,,,,,,,0,,,62,66
14511,note_on,,0,0,1,,,,,,,,,0,,,66,126
14520,note_on,,9,0,1,,,,,,,,,0,,,50,0
14523,note_on,,3,0,1,,,,,,,,,0,,,62,0
14526,note_on,,3,0,1,,,,,,,,,0,,,57,0
14540,note_on,,14,0,1,,,,,,,,,0,,,66,0
14628,note_on,,88,0,1,,,,,,,,,0,,,54,94
14630,note_on,,2,0,1,,,,,,,,,0,,,66,105
14630,note_on,,0,0,1,,,,,,,,,0,,,62,79
14632,note_on,,2,0,1,,,,,,,,,0,,,50,79
14635,note_on,,3,0,1,,,,,,,,,0,,,57,87
14640,note_on,,5,0,1,,,,,,,,,0,,,50,0
14640,note_on,,0,0,1,,,,,,,,,0,,,54,0
14643,note_on,,3,0,1,,,,,,,,,0,,,62,0
14643,note_on,,0,0,1,,,,,,,,,0,,,57,0
14756,note_on,,113,0,1,,,,,,,,,0,,,74,0
14760,note_on,,4,0,1,,,,,,,,,0,,,69,95
14765,note_on,,5,0,1,,,,,,,,,0,,,50,99
14780,control_change,,15,0,1,,,,,,,,,0,64,0,,
14821,note_on,,41,0,1,,,,,,,,,0,,,69,0
14826,note_on,,5,0,1,,,,,,,,,0,,,73,103
14839,note_on,,13,0,1,,,,,,,,,0,,,66,0
14870,note_on,,31,0,1,,,,,,,,,0,,,73,0
14880,note_on,,10,0,1,,,,,,,,,0,,,62,98
14880,note_on,,0,0,1,,,,,,,,,0,,,54,96
14880,note_on,,0,0,1,,,,,,,,,0,,,74,111
14880,note_on,,0,0,1,,,,,,,,,0,,,57,96
14880,note_on,,0,0,1,,,,,,,,,0,,,50,0
14891,note_on,,11,0,1,,,,,,,,,0,,,62,0
14891,note_on,,0,0,1,,,,,,,,,0,,,54,0
14893,note_on,,2,0,1,,,,,,,,,0,,,57,0
14931,note_on,,38,0,1,,,,,,,,,0,,,74,0
14939,note_on,,8,0,1,,,,,,,,,0,,,76,103
14996,note_on,,0,0,1,,,,,,,,,0,,,50,85
14996,note_on,,0,0,1,,,,,,,,,0,,,54,88
14996,note_on,,57,0,1,,,,,,,,,0,,,62,79
15000,note_on,,4,0,1,,,,,,,,,0,,,78,104
15000,note_on,,0,0,1,,,,,,,,,0,,,76,0
15004,note_on,,4,0,1,,,,,,,,,0,,,57,75
15009,note_on,,5,0,1,,,,,,,,,0,,,62,0
15014,note_on,,5,0,1,,,,,,,,,0,,,57,0
15014,note_on,,0,0,1,,,,,,,,,0,,,50,0
15021,note_on,,7,0,1,,,,,,,,,0,,,54,0
15051,note_on,,30,0,1,,,,,,,,,0,,,78,0
15059,note_on,,8,0,1,,,,,,,,,0,,,79,101
15088,note_on,,29,0,1,,,,,,,,,0,,,79,0
15112,note_on,,24,0,1,,,,,,,,,0,,,78,101
15115,note_on,,3,0,1,,,,,,,,,0,,,45,104
15124,note_on,,9,0,1,,,,,,,,,0,,,78,0
15129,control_change,,5,0,1,,,,,,,,,0,64,127,,
15138,note_on,,9,0,1,,,,,,,,,0,,,79,102
15141,note_on,,3,0,1,,,,,,,,,0,,,45,0
15152,note_on,,11,0,1,,,,,,,,,0,,,78,111
15155,note_on,,3,0,1,,,,,,,,,0,,,79,0
15242,note_on,,87,0,1,,,,,,,,,0,,,76,102
15245,note_on,,3,0,1,,,,,,,,,0,,,52,82
15246,note_on,,1,0,1,,,,,,,,,0,,,57,93
15248,note_on,,2,0,1,,,,,,,,,0,,,61,76
15256,note_on,,8,0,1,,,,,,,,,0,,,57,0
15257,control_change,,1,0,1,,,,,,,,,0,64,0,,
15257,note_on,,0,0,1,,,,,,,,,0,,,61,0
15257,note_on,,0,0,1,,,,,,,,,0,,,52,0
15260,note_on,,3,0,1,,,,,,,,,0,,,78,0
15289,note_on,,29,0,1,,,,,,,,,0,,,76,0
15300,note_on,,11,0,1,,,,,,,,,0,,,74,97
15359,note_on,,59,0,1,,,,,,,,,0,,,73,105
15359,note_on,,0,0,1,,,,,,,,,0,,,61,90
15360,note_on,,1,0,1,,,,,,,,,0,,,74,0
15362,note_on,,2,0,1,,,,,,,,,0,,,52,88
15365,note_on,,3,0,1,,,,,,,,,0,,,57,89
15378,note_on,,13,0,1,,,,,,,,,0,,,57,0
15378,note_on,,0,0,1,,,,,,,,,0,,,61,0
15393,note_on,,15,0,1,,,,,,,,,0,,,52,0
15415,note_on,,22,0,1,,,,,,,,,0,,,73,0
15416,note_on,,1,0,1,,,,,,,,,0,,,71,94
15472,note_on,,56,0,1,,,,,,,,,0,,,71,0
15474,note_on,,2,0,1,,,,,,,,,0,,,38,99
15487,note_on,,13,0,1,,,,,,,,,0,,,69,99
15487,control_change,,0,0,1,,,,,,,,,0,64,127,,
15498,note_on,,11,0,1,,,,,,,,,0,,,38,0
15544,note_on,,46,0,1,,,,,,,,,0,,,74,93
15544,note_on,,0,0,1,,,,,,,,,0,,,69,0
15573,note_on,,29,0,1,,,,,,,,,0,,,74,0
15597,note_on,,24,0,1,,,,,,,,,0,,,57,94
15600,note_on,,3,0,1,,,,,,,,,0,,,74,104
15606,note_on,,6,0,1,,,,,,,,,0,,,57,0
15629,note_on,,23,0,1,,,,,,,,,0,,,74,0
15631,note_on,,2,0,1,,,,,,,,,0,,,76,94
15634,control_change,,3,0,1,,,,,,,,,0,64,0,,
15654,note_on,,20,0,1,,,,,,,,,0,,,74,107
15673,note_on,,19,0,1,,,,,,,,,0,,,76,0
15716,note_on,,43,0,1,,,,,,,,,0,,,73,124
15718,note_on,,2,0,1,,,,,,,,,0,,,50,89
15721,note_on,,3,0,1,,,,,,,,,0,,,57,95
15728,note_on,,7,0,1,,,,,,,,,0,,,74,0
15732,note_on,,4,0,1,,,,,,,,,0,,,57,0
15744,note_on,,12,0,1,,,,,,,,,0,,,50,0
15769,note_on,,25,0,1,,,,,,,,,0,,,73,0
15773,note_on,,4,0,1,,,,,,,,,0,,,71,97
15839,note_on,,66,0,1,,,,,,,,,0,,,73,104
15840,note_on,,1,0,1,,,,,,,,,0,,,45,105
15848,note_on,,8,0,1,,,,,,,,,0,,,71,0
15872,control_change,,24,0,1,,,,,,,,,0,64,127,,
15874,note_on,,2,0,1,,,,,,,,,0,,,45,0
15960,note_on,,86,0,1,,,,,,,,,0,,,64,95
15960,note_on,,0,0,1,,,,,,,,,0,,,57,95
15960,note_on,,0,0,1,,,,,,,,,0,,,69,98
15961,note_on,,1,0,1,,,,,,,,,0,,,61,93
15974,note_on,,13,0,1,,,,,,,,,0,,,61,0
15977,note_on,,3,0,1,,,,,,,,,0,,,69,0
15978,note_on,,1,0,1,,,,,,,,,0,,,57,0
15989,note_on,,11,0,1,,,,,,,,,0,,,64,0
16080,note_on,,91,0,1,,,,,,,,,0,,,67,95
16084,note_on,,4,0,1,,,,,,,,,0,,,64,94
16084,note_on,,0,0,1,,,,,,,,,0,,,69,111
16086,note_on,,2,0,1,,,,,,,,,0,,,61,83
16086,note_on,,0,0,1,,,,,,,,,0,,,57,84
16095,note_on,,9,0,1,,,,,,,,,0,,,73,0
16098,control_change,,3,0,1,,,,,,,,,0,64,0,,
16109,note_on,,11,0,1,,,,,,,,,0,,,67,0
16109,note_on,,0,0,1,,,,,,,,,0,,,64,0
16111,note_on,,2,0,1,,,,,,,,,0,,,61,0
16120,note_on,,9,0,1,,,,,,,,,0,,,57,0
16125,note_on,,5,0,1,,,,,,,,,0,,,69,0
16206,note_on,,81,0,1,,,,,,,,,0,,,50,103
16207,note_on,,1,0,1,,,,,,,,,0,,,69,82
16219,control_change,,12,0,1,,,,,,,,,0,64,127,,
16262,note_on,,43,0,1,,,,,,,,,0,,,69,0
16265,note_on,,3,0,1,,,,,,,,,0,,,73,105
16297,note_on,,32,0,1,,,,,,,,,0,,,50,0
16312,note_on,,15,0,1,,,,,,,,,0,,,73,0
16316,note_on,,4,0,1,,,,,,,,,0,,,62,101
16319,note_on,,3,0,1,,,,,,,,,0,,,57,100
16321,note_on,,2,0,1,,,,,,,,,0,,,74,119
16329,note_on,,8,0,1,,,,,,,,,0,,,57,0
16331,note_on,,2,0,1,,,,,,,,,0,,,62,0
16351,control_change,,20,0,1,,,,,,,,,0,64,0,,
16384,note_on,,33,0,1,,,,,,,,,0,,,76,118
16400,note_on,,16,0,1,,,,,,,,,0,,,74,0
16439,note_on,,39,0,1,,,,,,,,,0,,,78,122
16440,note_on,,1,0,1,,,,,,,,,0,,,50,98
16441,note_on,,1,0,1,,,,,,,,,0,,,62,100
16444,note_on,,3,0,1,,,,,,,,,0,,,57,102
16452,note_on,,8,0,1,,,,,,,,,0,,,62,0
16457,note_on,,5,0,1,,,,,,,,,0,,,50,0
16457,note_on,,0,0,1,,,,,,,,,0,,,76,0
16467,note_on,,10,0,1,,,,,,,,,0,,,57,0
16498,note_on,,31,0,1,,,,,,,,,0,,,79,120
16508,note_on,,10,0,1,,,,,,,,,0,,,78,0
16540,note_on,,32,0,1,,,,,,,,,0,,,79,0
16552,note_on,,12,0,1,,,,,,,,,0,,,78,102
16555,note_on,,3,0,1,,,,,,,,,0,,,43,100
16564,note_on,,9,0,1,,,,,,,,,0,,,78,0
16573,control_change,,9,0,1,,,,,,,,,0,64,127,,
16577,note_on,,4,0,1,,,,,,,,,0,,,79,105
16590,note_on,,13,0,1,,,,,,,,,0,,,43,0
16595,note_on,,5,0,1,,,,,,,,,0,,,78,126
16605,note_on,,10,0,1,,,,,,,,,0,,,79,0
16681,note_on,,76,0,1,,,,,,,,,0,,,76,115
16686,note_on,,5,0,1,,,,,,,,,0,,,59,88
16688,note_on,,2,0,1,,,,,,,,,0,,,64,75
16696,control_change,,8,0,1,,,,,,,,,0,64,0,,
16713,note_on,,17,0,1,,,,,,,,,0,,,78,0
16723,note_on,,10,0,1,,,,,,,,,0,,,59,0
16726,note_on,,3,0,1,,,,,,,,,0,,,64,0
16740,note_on,,14,0,1,,,,,,,,,0,,,74,122
16746,note_on,,6,0,1,,,,,,,,,0,,,76,0
16790,note_on,,44,0,1,,,,,,,,,0,,,64,103
16792,note_on,,2,0,1,,,,,,,,,0,,,73,127
16795,note_on,,3,0,1,,,,,,,,,0,,,55,98
16799,note_on,,4,0,1,,,,,,,,,0,,,59,95
16802,note_on,,3,0,1,,,,,,,,,0,,,64,0
16805,note_on,,3,0,1,,,,,,,,,0,,,74,0
16820,note_on,,15,0,1,,,,,,,,,0,,,59,0
16828,note_on,,8,0,1,,,,,,,,,0,,,55,0
16848,note_on,,20,0,1,,,,,,,,,0,,,71,111
16864,note_on,,16,0,1,,,,,,,,,0,,,73,0
16904,note_on,,40,0,1,,,,,,,,,0,,,45,110
16911,note_on,,7,0,1,,,,,,,,,0,,,69,118
16911,note_on,,0,0,1,,,,,,,,,0,,,71,0
16920,control_change,,9,0,1,,,,,,,,,0,64,127,,
16934,note_on,,14,0,1,,,,,,,,,0,,,45,0
16968,note_on,,34,0,1,,,,,,,,,0,,,73,117
16994,note_on,,26,0,1,,,,,,,,,0,,,69,0
17006,note_on,,12,0,1,,,,,,,,,0,,,73,0
17021,note_on,,15,0,1,,,,,,,,,0,,,64,99
17024,note_on,,3,0,1,,,,,,,,,0,,,57,88
17026,note_on,,2,0,1,,,,,,,,,0,,,73,106
17030,note_on,,4,0,1,,,,,,,,,0,,,64,0
17034,note_on,,4,0,1,,,,,,,,,0,,,57,0
17051,note_on,,17,0,1,,,,,,,,,0,,,73,0
17057,note_on,,6,0,1,,,,,,,,,0,,,74,116
17064,control_change,,7,0,1,,,,,,,,,0,64,0,,
17083,note_on,,19,0,1,,,,,,,,,0,,,73,113
17104,note_on,,21,0,1,,,,,,,,,0,,,74,0
17152,note_on,,48,0,1,,,,,,,,,0,,,71,111
17153,note_on,,1,0,1,,,,,,,,,0,,,57,101
17153,note_on,,0,0,1,,,,,,,,,0,,,64,104
17163,note_on,,10,0,1,,,,,,,,,0,,,64,0
17166,note_on,,3,0,1,,,,,,,,,0,,,73,0
17176,note_on,,10,0,1,,,,,,,,,0,,,57,0
17207,note_on,,31,0,1,,,,,,,,,0,,,69,113
17209,note_on,,2,0,1,,,,,,,,,0,,,71,0
17275,note_on,,66,0,1,,,,,,,,,0,,,38,92
17276,note_on,,1,0,1,,,,,,,,,0,,,74,115
17282,note_on,,6,0,1,,,,,,,,,0,,,69,0
17291,control_change,,9,0,1,,,,,,,,,0,64,127,,
17302,note_on,,11,0,1,,,,,,,,,0,,,38,0
17400,note_on,,98,0,1,,,,,,,,,0,,,50,106
17400,note_on,,0,0,1,,,,,,,,,0,,,62,106
17400,note_on,,0,0,1,,,,,,,,,0,,,57,104
17400,note_on,,0,0,1,,,,,,,,,0,,,66,104
17412,note_on,,12,0,1,,,,,,,,,0,,,57,0
17428,note_on,,16,0,1,,,,,,,,,0,,,66,0
17429,note_on,,1,0,1,,,,,,,,,0,,,62,0
17429,note_on,,0,0,1,,,,,,,,,0,,,50,0
17519,note_on,,90,0,1,,,,,,,,,0,,,50,106
17519,note_on,,0,0,1,,,,,,,,,0,,,66,106
17523,note_on,,4,0,1,,,,,,,,,0,,,62,105
17524,note_on,,1,0,1,,,,,,,,,0,,,57,105
17536,note_on,,12,0,1,,,,,,,,,0,,,62,0
17540,note_on,,4,0,1,,,,,,,,,0,,,57,0
17541,note_on,,1,0,1,,,,,,,,,0,,,50,0
17638,note_on,,97,0,1,,,,,,,,,0,,,66,0
17640,set_tempo,,17640,1,0,,,,,,322580,,,,,,,
17642,note_on,,4,0,1,,,,,,,,,0,,,74,0
17645,note_on,,3,0,1,,,,,,,,,0,,,65,119
17647,note_on,,2,0,1,,,,,,,,,0,,,46,116
17650,control_change,,3,0,1,,,,,,,,,0,64,0,,
17663,note_on,,13,0,1,,,,,,,,,0,,,46,0
17666,control_change,,3,0,1,,,,,,,,,0,64,127,,
17724,note_on,,58,0,1,,,,,,,,,0,,,74,121
17746,note_on,,22,0,1,,,,,,,,,0,,,74,0
17775,note_on,,29,0,1,,,,,,,,,0,,,58,101
17775,note_on,,0,0,1,,,,,,,,,0,,,53,100
17778,note_on,,3,0,1,,,,,,,,,0,,,75,122
17780,note_on,,2,0,1,,,,,,,,,0,,,62,80
17785,note_on,,5,0,1,,,,,,,,,0,,,53,0
17789,note_on,,4,0,1,,,,,,,,,0,,,58,0
17791,note_on,,2,0,1,,,,,,,,,0,,,62,0
17796,note_on,,5,0,1,,,,,,,,,0,,,65,0
17816,control_change,,20,0,1,,,,,,,,,0,64,0,,
17887,note_on,,71,0,1,,,,,,,,,0,,,75,0
17888,note_on,,1,0,1,,,,,,,,,0,,,76,121
17888,note_on,,0,0,1,,,,,,,,,0,,,70,96
17893,note_on,,0,0,1,,,,,,,,,0,,,62,99
17893,note_on,,5,0,1,,,,,,,,,0,,,58,104
17897,note_on,,4,0,1,,,,,,,,,0,,,53,100
17903,note_on,,6,0,1,,,,,,,,,0,,,62,0
17907,note_on,,4,0,1,,,,,,,,,0,,,53,0
17908,note_on,,1,0,1,,,,,,,,,0,,,58,0
17976,note_on,,68,0,1,,,,,,,,,0,,,70,0
18003,note_on,,27,0,1,,,,,,,,,0,,,76,0
18008,note_on,,5,0,1,,,,,,,,,0,,,79,114
18011,note_on,,3,0,1,,,,,,,,,0,,,41,109
18025,control_change,,14,0,1,,,,,,,,,0,64,127,,
18030,note_on,,5,0,1,,,,,,,,,0,,,41,0
18088,note_on,,58,0,1,,,,,,,,,0,,,77,107
18103,note_on,,15,0,1,,,,,,,,,0,,,79,0
18120,note_on,,17,0,1,,,,,,,,,0,,,69,97
18125,note_on,,5,0,1,,,,,,,,,0,,,63,108
18125,note_on,,0,0,1,,,,,,,,,0,,,72,110
18128,note_on,,3,0,1,,,,,,,,,0,,,53,99
18128,note_on,,0,0,1,,,,,,,,,0,,,60,103
18130,note_on,,2,0,1,,,,,,,,,0,,,77,0
18137,note_on,,7,0,1,,,,,,,,,0,,,63,0
18137,note_on,,0,0,1,,,,,,,,,0,,,60,0
18137,note_on,,0,0,1,,,,,,,,,0,,,53,0
18154,note_on,,17,0,1,,,,,,,,,0,,,72,0
18179,note_on,,25,0,1,,,,,,,,,0,,,69,0
18180,note_on,,1,0,1,,,,,,,,,0,,,67,95
18239,note_on,,59,0,1,,,,,,,,,0,,,67,0
18240,note_on,,1,0,1,,,,,,,,,0,,,65,110
18249,note_on,,0,0,1,,,,,,,,,0,,,63,108
18249,note_on,,9,0,1,,,,,,,,,0,,,72,125
18249,note_on,,0,0,1,,,,,,,,,0,,,60,108
18249,note_on,,0,0,1,,,,,,,,,0,,,53,110
18258,note_on,,9,0,1,,,,,,,,,0,,,60,0
18260,note_on,,2,0,1,,,,,,,,,0,,,53,0
18263,note_on,,3,0,1,,,,,,,,,0,,,63,0
18282,note_on,,19,0,1,,,,,,,,,0,,,72,0
18385,note_on,,103,0,1,,,,,,,,,0,,,74,123
18385,note_on,,0,0,1,,,,,,,,,0,,,70,98
18385,note_on,,0,0,1,,,,,,,,,0,,,46,122
18387,control_change,,2,0,1,,,,,,,,,0,64,0,,
18408,note_on,,21,0,1,,,,,,,,,0,,,46,0
18411,control_change,,3,0,1,,,,,,,,,0,64,127,,
18434,note_on,,23,0,1,,,,,,,,,0,,,74,0
18445,note_on,,11,0,1,,,,,,,,,0,,,70,0
18460,note_on,,15,0,1,,,,,,,,,0,,,74,111
18473,note_on,,13,0,1,,,,,,,,,0,,,74,0
18479,note_on,,6,0,1,,,,,,,,,0,,,65,0
18505,note_on,,26,0,1,,,,,,,,,0,,,58,101
18505,note_on,,0,0,1,,,,,,,,,0,,,75,124
18505,note_on,,0,0,1,,,,,,,,,0,,,65,110
18505,note_on,,0,0,1,,,,,,,,,0,,,70,106
18506,note_on,,1,0,1,,,,,,,,,0,,,53,103
18506,note_on,,0,0,1,,,,,,,,,0,,,62,99
18518,note_on,,12,0,1,,,,,,,,,0,,,62,0
18518,note_on,,0,0,1,,,,,,,,,0,,,53,0
18520,note_on,,2,0,1,,,,,,,,,0,,,58,0
18532,note_on,,12,0,1,,,,,,,,,0,,,70,0
18533,control_change,,1,0,1,,,,,,,,,0,64,0,,
18534,note_on,,1,0,1,,,,,,,,,0,,,65,0
18546,control_change,,12,0,1,,,,,,,,,0,64,127,,
18561,note_on,,15,0,1,,,,,,,,,0,,,75,0
18570,control_change,,9,0,1,,,,,,,,,0,64,0,,
18619,note_on,,0,0,1,,,,,,,,,0,,,53,106
18619,note_on,,0,0,1,,,,,,,,,0,,,58,105
18619,note_on,,49,0,1,,,,,,,,,0,,,70,102
18619,note_on,,0,0,1,,,,,,,,,0,,,76,106
18619,note_on,,0,0,1,,,,,,,,,0,,,65,104
18620,note_on,,1,0,1,,,,,,,,,0,,,62,100
18631,note_on,,11,0,1,,,,,,,,,0,,,62,0
18646,note_on,,0,0,1,,,,,,,,,0,,,53,0
18646,note_on,,15,0,1,,,,,,,,,0,,,58,0
18646,note_on,,0,0,1,,,,,,,,,0,,,76,0
18647,note_on,,1,0,1,,,,,,,,,0,,,70,0
18730,note_on,,83,0,1,,,,,,,,,0,,,72,76
18731,note_on,,1,0,1,,,,,,,,,0,,,79,123
18736,note_on,,5,0,1,,,,,,,,,0,,,45,107
18754,control_change,,18,0,1,,,,,,,,,0,64,127,,
18757,note_on,,3,0,1,,,,,,,,,0,,,45,0
18799,note_on,,42,0,1,,,,,,,,,0,,,72,0
18819,note_on,,20,0,1,,,,,,,,,0,,,79,0
18820,note_on,,1,0,1,,,,,,,,,0,,,77,116
18828,note_on,,8,0,1,,,,,,,,,0,,,65,0
18853,note_on,,25,0,1,,,,,,,,,0,,,77,0
18867,note_on,,0,0,1,,,,,,,,,0,,,65,106
18867,note_on,,0,0,1,,,,,,,,,0,,,72,120
18867,note_on,,14,0,1,,,,,,,,,0,,,57,109
18867,note_on,,0,0,1,,,,,,,,,0,,,60,104
18888,control_change,,21,0,1,,,,,,,,,0,64,0,,
18895,control_change,,7,0,1,,,,,,,,,0,64,127,,
18925,note_on,,30,0,1,,,,,,,,,0,,,72,0
18926,note_on,,1,0,1,,,,,,,,,0,,,65,0
18960,note_on,,34,0,1,,,,,,,,,0,,,43,120
18989,note_on,,0,0,1,,,,,,,,,0,,,72,115
18989,note_on,,0,0,1,,,,,,,,,0,,,41,120
18989,note_on,,29,0,1,,,,,,,,,0,,,77,119
18989,note_on,,0,0,1,,,,,,,,,0,,,69,108
18996,control_change,,7,0,1,,,,,,,,,0,64,0,,
18999,control_change,,3,0,1,,,,,,,,,0,64,127,,
19001,note_on,,2,0,1,,,,,,,,,0,,,43,0
19003,note_on,,2,0,1,,,,,,,,,0,,,60,0
19017,note_on,,14,0,1,,,,,,,,,0,,,57,0
19030,note_on,,13,0,1,,,,,,,,,0,,,41,0
19048,note_on,,0,0,1,,,,,,,,,0,,,69,0
19048,note_on,,18,0,1,,,,,,,,,0,,,72,0
19078,note_on,,30,0,1,,,,,,,,,0,,,77,0
19082,set_tempo,,1442,1,0,,,,,,333333,,,,,,,
19114,note_on,,0,0,1,,,,,,,,,0,,,82,127
19114,note_on,,36,0,1,,,,,,,,,0,,,36,117
19118,note_on,,0,0,1,,,,,,,,,0,,,48,113
19118,note_on,,4,0,1,,,,,,,,,0,,,70,123
19120,control_change,,2,0,1,,,,,,,,,0,64,0,,
19122,note_on,,2,0,1,,,,,,,,,0,,,76,119
19124,note_on,,2,0,1,,,,,,,,,0,,,36,0
19128,control_change,,4,0,1,,,,,,,,,0,64,127,,
19137,note_on,,9,0,1,,,,,,,,,0,,,48,0
19163,note_on,,26,0,1,,,,,,,,,0,,,82,0
19167,note_on,,4,0,1,,,,,,,,,0,,,70,0
19176,note_on,,9,0,1,,,,,,,,,0,,,76,0
19202,note_on,,0,0,1,,,,,,,,,0,,,76,98
19202,note_on,,26,0,1,,,,,,,,,0,,,70,104
19202,note_on,,0,0,1,,,,,,,,,0,,,82,116
19214,note_on,,12,0,1,,,,,,,,,0,,,76,0
19219,note_on,,5,0,1,,,,,,,,,0,,,82,0
19220,note_on,,1,0,1,,,,,,,,,0,,,70,0
19241,note_on,,21,0,1,,,,,,,,,0,,,70,116
19241,note_on,,0,0,1,,,,,,,,,0,,,67,120
19241,note_on,,0,0,1,,,,,,,,,0,,,82,127
19241,note_on,,0,0,1,,,,,,,,,0,,,60,116
19246,note_on,,5,0,1,,,,,,,,,0,,,76,119
19254,control_change,,8,0,1,,,,,,,,,0,64,0,,
19255,note_on,,1,0,1,,,,,,,,,0,,,76,0
19257,control_change,,2,0,1,,,,,,,,,0,64,127,,
19260,note_on,,3,0,1,,,,,,,,,0,,,67,0
19263,note_on,,3,0,1,,,,,,,,,0,,,70,0
19269,note_on,,6,0,1,,,,,,,,,0,,,82,0
19270,note_on,,1,0,1,,,,,,,,,0,,,60,0
19360,note_on,,90,0,1,,,,,,,,,0,,,82,124
19362,note_on,,2,0,1,,,,,,,,,0,,,70,115
19366,note_on,,4,0,1,,,,,,,,,0,,,76,113
19375,note_on,,9,0,1,,,,,,,,,0,,,76,0
19380,note_on,,5,0,1,,,,,,,,,0,,,70,0
19383,note_on,,3,0,1,,,,,,,,,0,,,82,0
19474,note_on,,91,0,1,,,,,,,,,0,,,82,126
19475,note_on,,1,0,1,,,,,,,,,0,,,70,117
19478,note_on,,3,0,1,,,,,,,,,0,,,77,119
19483,note_on,,5,0,1,,,,,,,,,0,,,43,126
19483,control_change,,0,0,1,,,,,,,,,0,64,0,,
19496,control_change,,13,0,1,,,,,,,,,0,64,127,,
19499,note_on,,3,0,1,,,,,,,,,0,,,43,0
19499,note_on,,0,0,1,,,,,,,,,0,,,70,0
19501,note_on,,2,0,1,,,,,,,,,0,,,77,0
19504,note_on,,3,0,1,,,,,,,,,0,,,82,0
19560,note_on,,56,0,1,,,,,,,,,0,,,82,115
19562,note_on,,2,0,1,,,,,,,,,0,,,70,102
19565,note_on,,3,0,1,,,,,,,,,0,,,77,107
19567,note_on,,2,0,1,,,,,,,,,0,,,59,115
19572,note_on,,5,0,1,,,,,,,,,0,,,77,0
19576,note_on,,4,0,1,,,,,,,,,0,,,70,0
19579,note_on,,3,0,1,,,,,,,,,0,,,82,0
19592,note_on,,13,0,1,,,,,,,,,0,,,59,0
19604,note_on,,12,0,1,,,,,,,,,0,,,60,127
19606,note_on,,2,0,1,,,,,,,,,0,,,82,127
19606,note_on,,0,0,1,,,,,,,,,0,,,70,123
19611,note_on,,5,0,1,,,,,,,,,0,,,77,113
19624,control_change,,13,0,1,,,,,,,,,0,64,0,,
19634,control_change,,10,0,1,,,,,,,,,0,64,127,,
19638,note_on,,4,0,1,,,,,,,,,0,,,77,0
19641,note_on,,3,0,1,,,,,,,,,0,,,82,0
19644,note_on,,3,0,1,,,,,,,,,0,,,70,0
19691,note_on,,47,0,1,,,,,,,,,0,,,62,126
19693,note_on,,2,0,1,,,,,,,,,0,,,60,0
19728,note_on,,35,0,1,,,,,,,,,0,,,62,0
19730,note_on,,2,0,1,,,,,,,,,0,,,60,127
19730,note_on,,0,0,1,,,,,,,,,0,,,81,119
19732,note_on,,2,0,1,,,,,,,,,0,,,69,115
19735,control_change,,3,0,1,,,,,,,,,0,64,0,,
19745,control_change,,10,0,1,,,,,,,,,0,64,127,,
19746,note_on,,1,0,1,,,,,,,,,0,,,69,0
19753,note_on,,7,0,1,,,,,,,,,0,,,81,0
19776,note_on,,23,0,1,,,,,,,,,0,,,60,0
19845,note_on,,69,0,1,,,,,,,,,0,,,70,106
19845,note_on,,0,0,1,,,,,,,,,0,,,81,111
19848,note_on,,3,0,1,,,,,,,,,0,,,76,108
19848,note_on,,0,0,1,,,,,,,,,0,,,48,123
19853,control_change,,5,0,1,,,,,,,,,0,64,0,,
19863,control_change,,10,0,1,,,,,,,,,0,64,127,,
19864,note_on,,1,0,1,,,,,,,,,0,,,48,0
19869,note_on,,5,0,1,,,,,,,,,0,,,76,0
19871,note_on,,2,0,1,,,,,,,,,0,,,70,0
19872,note_on,,1,0,1,,,,,,,,,0,,,81,0
19929,note_on,,57,0,1,,,,,,,,,0,,,70,102
19931,note_on,,2,0,1,,,,,,,,,0,,,81,108
19931,note_on,,0,0,1,,,,,,,,,0,,,59,118
19937,note_on,,6,0,1,,,,,,,,,0,,,76,99
19944,note_on,,7,0,1,,,,,,,,,0,,,76,0
19949,note_on,,0,0,1,,,,,,,,,0,,,81,0
19949,note_on,,5,0,1,,,,,,,,,0,,,70,0
19967,note_on,,18,0,1,,,,,,,,,0,,,59,0
19970,note_on,,3,0,1,,,,,,,,,0,,,81,114
19972,note_on,,2,0,1,,,,,,,,,0,,,60,127
19972,note_on,,0,0,1,,,,,,,,,0,,,70,104
19976,note_on,,4,0,1,,,,,,,,,0,,,76,106
19984,control_change,,8,0,1,,,,,,,,,0,64,0,,
20000,control_change,,16,0,1,,,,,,,,,0,64,127,,
20014,note_on,,14,0,1,,,,,,,,,0,,,76,0
20028,note_on,,14,0,1,,,,,,,,,0,,,70,0
20037,note_on,,9,0,1,,,,,,,,,0,,,81,0
20055,note_on,,18,0,1,,,,,,,,,0,,,62,121
20055,note_on,,0,0,1,,,,,,,,,0,,,60,0
20087,note_on,,32,0,1,,,,,,,,,0,,,79,110
20088,note_on,,1,0,1,,,,,,,,,0,,,60,127
20092,note_on,,4,0,1,,,,,,,,,0,,,62,0
20096,control_change,,4,0,1,,,,,,,,,0,64,0,,
20098,note_on,,2,0,1,,,,,,,,,0,,,79,0
20100,control_change,,2,0,1,,,,,,,,,0,64,127,,
20156,note_on,,56,0,1,,,,,,,,,0,,,60,0
20198,note_on,,42,0,1,,,,,,,,,0,,,79,108
20198,note_on,,0,0,1,,,,,,,,,0,,,53,126
20198,note_on,,0,0,1,,,,,,,,,0,,,70,108
20203,note_on,,5,0,1,,,,,,,,,0,,,75,103
20206,control_change,,3,0,1,,,,,,,,,0,64,0,,
20212,note_on,,6,0,1,,,,,,,,,0,,,75,0
20215,note_on,,3,0,1,,,,,,,,,0,,,70,0
20220,note_on,,5,0,1,,,,,,,,,0,,,79,0
20221,control_change,,1,0,1,,,,,,,,,0,64,127,,
20224,note_on,,3,0,1,,,,,,,,,0,,,53,0
20276,note_on,,52,0,1,,,,,,,,,0,,,79,106
20278,note_on,,2,0,1,,,,,,,,,0,,,70,99
20279,note_on,,1,0,1,,,,,,,,,0,,,59,126
20287,note_on,,8,0,1,,,,,,,,,0,,,75,73
20292,note_on,,5,0,1,,,,,,,,,0,,,70,0
20294,note_on,,2,0,1,,,,,,,,,0,,,79,0
20294,note_on,,0,0,1,,,,,,,,,0,,,75,0
20311,note_on,,17,0,1,,,,,,,,,0,,,59,0
20317,note_on,,6,0,1,,,,,,,,,0,,,79,111
20319,note_on,,2,0,1,,,,,,,,,0,,,60,127
20319,note_on,,0,0,1,,,,,,,,,0,,,70,108
20324,note_on,,5,0,1,,,,,,,,,0,,,75,106
20339,control_change,,15,0,1,,,,,,,,,0,64,0,,
20351,control_change,,12,0,1,,,,,,,,,0,64,127,,
20356,note_on,,5,0,1,,,,,,,,,0,,,75,0
20368,note_on,,12,0,1,,,,,,,,,0,,,70,0
20390,note_on,,22,0,1,,,,,,,,,0,,,60,0
20400,note_on,,10,0,1,,,,,,,,,0,,,79,0
20403,note_on,,3,0,1,,,,,,,,,0,,,64,125
20443,note_on,,40,0,1,,,,,,,,,0,,,77,107
20445,note_on,,2,0,1,,,,,,,,,0,,,64,0
20447,note_on,,2,0,1,,,,,,,,,0,,,65,127
20447,note_on,,0,0,1,,,,,,,,,0,,,69,87
20450,control_change,,3,0,1,,,,,,,,,0,64,0,,
20454,note_on,,4,0,1,,,,,,,,,0,,,77,0
20459,note_on,,5,0,1,,,,,,,,,0,,,69,0
20462,control_change,,3,0,1,,,,,,,,,0,64,127,,
20472,note_on,,10,0,1,,,,,,,,,0,,,65,0
20560,note_on,,88,0,1,,,,,,,,,0,,,46,127
20564,note_on,,4,0,1,,,,,,,,,0,,,74,119
20568,control_change,,4,0,1,,,,,,,,,0,64,0,,
20580,control_change,,12,0,1,,,,,,,,,0,64,127,,
20582,note_on,,2,0,1,,,,,,,,,0,,,46,0
20592,note_on,,10,0,1,,,,,,,,,0,,,74,0
20642,note_on,,50,0,1,,,,,,,,,0,,,74,112
20650,note_on,,8,0,1,,,,,,,,,0,,,74,0
20682,note_on,,32,0,1,,,,,,,,,0,,,58,104
20682,note_on,,0,0,1,,,,,,,,,0,,,75,125
20685,note_on,,3,0,1,,,,,,,,,0,,,53,108
20685,note_on,,0,0,1,,,,,,,,,0,,,62,105
20697,control_change,,12,0,1,,,,,,,,,0,64,0,,
20705,note_on,,8,0,1,,,,,,,,,0,,,62,0
20708,note_on,,0,0,1,,,,,,,,,0,,,58,0
20708,note_on,,0,0,1,,,,,,,,,0,,,53,0
20708,control_change,,3,0,1,,,,,,,,,0,64,127,,
20800,note_on,,92,0,1,,,,,,,,,0,,,76,122
20802,note_on,,2,0,1,,,,,,,,,0,,,58,110
20802,note_on,,0,0,1,,,,,,,,,0,,,62,110
20805,note_on,,3,0,1,,,,,,,,,0,,,53,113
20809,control_change,,4,0,1,,,,,,,,,0,64,0,,
20814,note_on,,5,0,1,,,,,,,,,0,,,75,0
20828,control_change,,14,0,1,,,,,,,,,0,64,127,,
20829,note_on,,1,0,1,,,,,,,,,0,,,62,0
20832,note_on,,3,0,1,,,,,,,,,0,,,76,0
20842,note_on,,10,0,1,,,,,,,,,0,,,58,0
20843,note_on,,1,0,1,,,,,,,,,0,,,53,0
20915,note_on,,72,0,1,,,,,,,,,0,,,78,127
20915,note_on,,0,0,1,,,,,,,,,0,,,45,122
20923,control_change,,8,0,1,,,,,,,,,0,64,0,,
20937,control_change,,14,0,1,,,,,,,,,0,64,127,,
20938,note_on,,1,0,1,,,,,,,,,0,,,45,0
20978,note_on,,40,0,1,,,,,,,,,0,,,78,0
20980,note_on,,2,0,1,,,,,,,,,0,,,77,108
21028,note_on,,48,0,1,,,,,,,,,0,,,77,0
21033,note_on,,5,0,1,,,,,,,,,0,,,53,101
21037,note_on,,4,0,1,,,,,,,,,0,,,63,95
21039,note_on,,2,0,1,,,,,,,,,0,,,60,100
21042,note_on,,3,0,1,,,,,,,,,0,,,72,113
21048,note_on,,0,0,1,,,,,,,,,0,,,63,0
21048,note_on,,6,0,1,,,,,,,,,0,,,60,0
21051,note_on,,3,0,1,,,,,,,,,0,,,53,0
21060,control_change,,9,0,1,,,,,,,,,0,64,0,,
21067,control_change,,7,0,1,,,,,,,,,0,64,127,,
21099,note_on,,32,0,1,,,,,,,,,0,,,72,0
21154,note_on,,55,0,1,,,,,,,,,0,,,72,115
21156,note_on,,2,0,1,,,,,,,,,0,,,63,113
21160,note_on,,4,0,1,,,,,,,,,0,,,53,109
21160,note_on,,0,0,1,,,,,,,,,0,,,60,106
21170,note_on,,10,0,1,,,,,,,,,0,,,60,0
21176,note_on,,6,0,1,,,,,,,,,0,,,63,0
21180,note_on,,4,0,1,,,,,,,,,0,,,72,0
21183,note_on,,3,0,1,,,,,,,,,0,,,53,0
21273,note_on,,90,0,1,,,,,,,,,0,,,46,122
21276,note_on,,3,0,1,,,,,,,,,0,,,73,126
21279,control_change,,3,0,1,,,,,,,,,0,64,0,,
21290,control_change,,11,0,1,,,,,,,,,0,64,127,,
21295,note_on,,5,0,1,,,,,,,,,0,,,46,0
21325,note_on,,30,0,1,,,,,,,,,0,,,73,0
21357,note_on,,32,0,1,,,,,,,,,0,,,73,115
21378,note_on,,21,0,1,,,,,,,,,0,,,73,0
21385,note_on,,7,0,1,,,,,,,,,0,,,61,106
21387,note_on,,2,0,1,,,,,,,,,0,,,58,105
21389,note_on,,2,0,1,,,,,,,,,0,,,53,105
21392,note_on,,3,0,1,,,,,,,,,0,,,75,127
21398,note_on,,6,0,1,,,,,,,,,0,,,73,79
21400,note_on,,2,0,1,,,,,,,,,0,,,53,0
21403,note_on,,3,0,1,,,,,,,,,0,,,61,0
21407,note_on,,4,0,1,,,,,,,,,0,,,73,0
21408,note_on,,1,0,1,,,,,,,,,0,,,58,0
21464,note_on,,56,0,1,,,,,,,,,0,,,75,0
21508,note_on,,44,0,1,,,,,,,,,0,,,76,122
21510,note_on,,2,0,1,,,,,,,,,0,,,61,115
21510,note_on,,0,0,1,,,,,,,,,0,,,53,115
21512,note_on,,2,0,1,,,,,,,,,0,,,58,115
21519,control_change,,7,0,1,,,,,,,,,0,64,0,,
21531,control_change,,12,0,1,,,,,,,,,0,64,127,,
21532,note_on,,1,0,1,,,,,,,,,0,,,76,0
21536,note_on,,4,0,1,,,,,,,,,0,,,61,0
21550,note_on,,14,0,1,,,,,,,,,0,,,58,0
21552,note_on,,2,0,1,,,,,,,,,0,,,53,0
21623,note_on,,71,0,1,,,,,,,,,0,,,44,127
21627,note_on,,4,0,1,,,,,,,,,0,,,78,127
21633,control_change,,6,0,1,,,,,,,,,0,64,0,,
21641,control_change,,8,0,1,,,,,,,,,0,64,127,,
21645,note_on,,4,0,1,,,,,,,,,0,,,44,0
21680,note_on,,35,0,1,,,,,,,,,0,,,78,0
21697,note_on,,17,0,1,,,,,,,,,0,,,77,121
21712,note_on,,15,0,1,,,,,,,,,0,,,77,0
21748,note_on,,36,0,1,,,,,,,,,0,,,65,127
21748,note_on,,0,0,1,,,,,,,,,0,,,80,122
21750,note_on,,0,0,1,,,,,,,,,0,,,56,120
21750,note_on,,2,0,1,,,,,,,,,0,,,73,122
21750,note_on,,0,0,1,,,,,,,,,0,,,53,127
21751,note_on,,1,0,1,,,,,,,,,0,,,61,123
21760,control_change,,9,0,1,,,,,,,,,0,64,0,,
21771,control_change,,11,0,1,,,,,,,,,0,64,127,,
21773,note_on,,2,0,1,,,,,,,,,0,,,80,0
21775,note_on,,2,0,1,,,,,,,,,0,,,73,0
21792,note_on,,17,0,1,,,,,,,,,0,,,53,0
21793,note_on,,1,0,1,,,,,,,,,0,,,61,0
21797,note_on,,4,0,1,,,,,,,,,0,,,65,0
21798,note_on,,1,0,1,,,,,,,,,0,,,56,0
21840,note_on,,42,0,1,,,,,,,,,0,,,46,127
21865,note_on,,25,0,1,,,,,,,,,0,,,46,0
21870,note_on,,5,0,1,,,,,,,,,0,,,44,127
21876,note_on,,0,0,1,,,,,,,,,0,,,56,117
21876,note_on,,0,0,1,,,,,,,,,0,,,85,127
21876,note_on,,6,0,1,,,,,,,,,0,,,65,127
21878,note_on,,2,0,1,,,,,,,,,0,,,61,122
21879,note_on,,1,0,1,,,,,,,,,0,,,53,125
21880,note_on,,1,0,1,,,,,,,,,0,,,73,127
21885,control_change,,5,0,1,,,,,,,,,0,64,0,,
21893,control_change,,8,0,1,,,,,,,,,0,64,127,,
21894,note_on,,1,0,1,,,,,,,,,0,,,65,0
21895,note_on,,1,0,1,,,,,,,,,0,,,44,0
21901,note_on,,6,0,1,,,,,,,,,0,,,85,0
21910,note_on,,9,0,1,,,,,,,,,0,,,73,0
21917,note_on,,7,0,1,,,,,,,,,0,,,61,0
21926,note_on,,9,0,1,,,,,,,,,0,,,56,0
21934,note_on,,8,0,1,,,,,,,,,0,,,53,0
21958,set_tempo,,2876,1,0,,,,,,333333,,,,,,,
22008,note_on,,0,0,1,,,,,,,,,0,,,78,127
22008,note_on,,74,0,1,,,,,,,,,0,,,32,127
22009,note_on,,1,0,1,,,,,,,,,0,,,66,125
22012,control_change,,3,0,1,,,,,,,,,0,64,0,,
22013,note_on,,1,0,1,,,,,,,,,0,,,72,118
22020,control_change,,7,0,1,,,,,,,,,0,64,127,,
22026,note_on,,6,0,1,,,,,,,,,0,,,32,0
22034,note_on,,8,0,1,,,,,,,,,0,,,66,0
22038,note_on,,4,0,1,,,,,,,,,0,,,78,0
22039,note_on,,1,0,1,,,,,,,,,0,,,72,0
22102,note_on,,0,0,1,,,,,,,,,0,,,72,115
22102,note_on,,63,0,1,,,,,,,,,0,,,78,114
22105,note_on,,3,0,1,,,,,,,,,0,,,66,97
22114,note_on,,9,0,1,,,,,,,,,0,,,66,0
22122,note_on,,8,0,1,,,,,,,,,0,,,78,0
22127,note_on,,5,0,1,,,,,,,,,0,,,72,0
22135,note_on,,8,0,1,,,,,,,,,0,,,66,116
22135,note_on,,0,0,1,,,,,,,,,0,,,78,121
22135,note_on,,0,0,1,,,,,,,,,0,,,72,110
22135,note_on,,0,0,1,,,,,,,,,0,,,63,113
22135,note_on,,0,0,1,,,,,,,,,0,,,56,127
22160,control_change,,25,0,1,,,,,,,,,0,64,0,,
22169,control_change,,9,0,1,,,,,,,,,0,64,127,,
22183,note_on,,14,0,1,,,,,,,,,0,,,63,0
22184,note_on,,0,0,1,,,,,,,,,0,,,56,0
22184,note_on,,1,0,1,,,,,,,,,0,,,72,0
22189,note_on,,5,0,1,,,,,,,,,0,,,78,0
22191,note_on,,2,0,1,,,,,,,,,0,,,66,0
22249,note_on,,58,0,1,,,,,,,,,0,,,78,117
22249,note_on,,0,0,1,,,,,,,,,0,,,66,121
22254,note_on,,5,0,1,,,,,,,,,0,,,72,110
22263,note_on,,9,0,1,,,,,,,,,0,,,72,0
22267,note_on,,4,0,1,,,,,,,,,0,,,66,0
22271,note_on,,4,0,1,,,,,,,,,0,,,78,0
22367,note_on,,96,0,1,,,,,,,,,0,,,66,127
22367,note_on,,0,0,1,,,,,,,,,0,,,78,127
22368,note_on,,1,0,1,,,,,,,,,0,,,37,127
22370,note_on,,2,0,1,,,,,,,,,0,,,73,116
22376,control_change,,6,0,1,,,,,,,,,0,64,0,,
22384,note_on,,8,0,1,,,,,,,,,0,,,66,0
22386,note_on,,2,0,1,,,,,,,,,0,,,37,0
22387,control_change,,1,0,1,,,,,,,,,0,64,127,,
22388,note_on,,1,0,1,,,,,,,,,0,,,73,0
22390,note_on,,2,0,1,,,,,,,,,0,,,78,0
22459,note_on,,69,0,1,,,,,,,,,0,,,78,124
22459,note_on,,0,0,1,,,,,,,,,0,,,66,124
22461,note_on,,2,0,1,,,,,,,,,0,,,55,123
22463,note_on,,2,0,1,,,,,,,,,0,,,73,97
22470,note_on,,7,0,1,,,,,,,,,0,,,66,0
22472,note_on,,2,0,1,,,,,,,,,0,,,73,0
22477,note_on,,5,0,1,,,,,,,,,0,,,78,0
22492,note_on,,15,0,1,,,,,,,,,0,,,56,127
22493,note_on,,1,0,1,,,,,,,,,0,,,55,0
22495,note_on,,2,0,1,,,,,,,,,0,,,78,119
22497,note_on,,2,0,1,,,,,,,,,0,,,66,120
22501,note_on,,4,0,1,,,,,,,,,0,,,73,105
22515,control_change,,14,0,1,,,,,,,,,0,64,0,,
22519,control_change,,4,0,1,,,,,,,,,0,64,127,,
22544,note_on,,25,0,1,,,,,,,,,0,,,73,0
22547,note_on,,3,0,1,,,,,,,,,0,,,78,0
22550,note_on,,3,0,1,,,,,,,,,0,,,66,0
22560,note_on,,10,0,1,,,,,,,,,0,,,56,0
22582,note_on,,22,0,1,,,,,,,,,0,,,57,125
22611,note_on,,29,0,1,,,,,,,,,0,,,56,127
22611,note_on,,0,0,1,,,,,,,,,0,,,57,0
22615,note_on,,4,0,1,,,,,,,,,0,,,77,123
22616,note_on,,1,0,1,,,,,,,,,0,,,65,125
22624,control_change,,8,0,1,,,,,,,,,0,64,0,,
22633,control_change,,9,0,1,,,,,,,,,0,64,127,,
22634,note_on,,1,0,1,,,,,,,,,0,,,65,0
22640,note_on,,6,0,1,,,,,,,,,0,,,77,0
22683,note_on,,43,0,1,,,,,,,,,0,,,56,0
22728,note_on,,0,0,1,,,,,,,,,0,,,77,116
22728,note_on,,45,0,1,,,,,,,,,0,,,66,119
22731,note_on,,3,0,1,,,,,,,,,0,,,44,127
22733,control_change,,2,0,1,,,,,,,,,0,64,0,,
22735,note_on,,2,0,1,,,,,,,,,0,,,72,106
22739,control_change,,4,0,1,,,,,,,,,0,64,127,,
22739,note_on,,0,0,1,,,,,,,,,0,,,44,0
22742,note_on,,3,0,1,,,,,,,,,0,,,72,0
22745,note_on,,3,0,1,,,,,,,,,0,,,66,0
22749,note_on,,4,0,1,,,,,,,,,0,,,77,0
22812,note_on,,63,0,1,,,,,,,,,0,,,55,120
22813,note_on,,0,0,1,,,,,,,,,0,,,77,104
22813,note_on,,1,0,1,,,,,,,,,0,,,66,112
22815,note_on,,2,0,1,,,,,,,,,0,,,72,93
22824,note_on,,9,0,1,,,,,,,,,0,,,72,0
22824,note_on,,0,0,1,,,,,,,,,0,,,77,0
22824,note_on,,0,0,1,,,,,,,,,0,,,66,0
22843,note_on,,19,0,1,,,,,,,,,0,,,55,0
22844,note_on,,1,0,1,,,,,,,,,0,,,56,126
22853,note_on,,9,0,1,,,,,,,,,0,,,66,125
22853,note_on,,0,0,1,,,,,,,,,0,,,77,121
22856,note_on,,3,0,1,,,,,,,,,0,,,72,110
22872,control_change,,16,0,1,,,,,,,,,0,64,0,,
22893,control_change,,21,0,1,,,,,,,,,0,64,127,,
22912,note_on,,19,0,1,,,,,,,,,0,,,66,0
22925,note_on,,13,0,1,,,,,,,,,0,,,77,0
22928,note_on,,0,0,1,,,,,,,,,0,,,56,0
22928,note_on,,3,0,1,,,,,,,,,0,,,58,127
22954,note_on,,26,0,1,,,,,,,,,0,,,72,0
22962,note_on,,8,0,1,,,,,,,,,0,,,56,127
22966,note_on,,4,0,1,,,,,,,,,0,,,66,122
22966,note_on,,0,0,1,,,,,,,,,0,,,75,121
22966,control_change,,0,0,1,,,,,,,,,0,64,0,,
22968,note_on,,2,0,1,,,,,,,,,0,,,58,0
22978,control_change,,10,0,1,,,,,,,,,0,64,127,,
22987,note_on,,9,0,1,,,,,,,,,0,,,66,0
22994,note_on,,7,0,1,,,,,,,,,0,,,75,0
23010,note_on,,16,0,1,,,,,,,,,0,,,56,0
23082,note_on,,72,0,1,,,,,,,,,0,,,75,124
23082,note_on,,0,0,1,,,,,,,,,0,,,49,125
23083,control_change,,0,0,1,,,,,,,,,0,64,0,,
23083,note_on,,1,0,1,,,,,,,,,0,,,66,125
23086,note_on,,3,0,1,,,,,,,,,0,,,68,114
23094,note_on,,8,0,1,,,,,,,,,0,,,68,0
23095,note_on,,1,0,1,,,,,,,,,0,,,66,0
23097,control_change,,2,0,1,,,,,,,,,0,64,127,,
23100,note_on,,3,0,1,,,,,,,,,0,,,75,0
23113,note_on,,13,0,1,,,,,,,,,0,,,49,0
23160,set_tempo,,1202,1,0,,,,,,335195,,,,,,,
23161,note_on,,48,0,1,,,,,,,,,0,,,55,127
23165,note_on,,4,0,1,,,,,,,,,0,,,75,117
23165,note_on,,0,0,1,,,,,,,,,0,,,66,116
23165,note_on,,0,0,1,,,,,,,,,0,,,68,108
23166,set_tempo,,6,1,0,,,,,,337078,,,,,,,
23168,set_tempo,,2,1,0,,,,,,338983,,,,,,,
23174,note_on,,9,0,1,,,,,,,,,0,,,68,0
23177,note_on,,3,0,1,,,,,,,,,0,,,66,0
23183,note_on,,6,0,1,,,,,,,,,0,,,75,0
23188,set_tempo,,20,1,0,,,,,,342857,,,,,,,
23191,note_on,,8,0,1,,,,,,,,,0,,,55,0
23196,set_tempo,,8,1,0,,,,,,344827,,,,,,,
23200,set_tempo,,4,1,0,,,,,,346820,,,,,,,
23200,note_on,,9,0,1,,,,,,,,,0,,,56,122
23205,note_on,,0,0,1,,,,,,,,,0,,,66,127
23205,note_on,,5,0,1,,,,,,,,,0,,,75,117
23208,set_tempo,,8,1,0,,,,,,350877,,,,,,,
23209,note_on,,4,0,1,,,,,,,,,0,,,68,126
23218,control_change,,9,0,1,,,,,,,,,0,64,0,,
23232,set_tempo,,24,1,0,,,,,,355029,,,,,,,
23243,control_change,,25,0,1,,,,,,,,,0,64,127,,
23248,set_tempo,,16,1,0,,,,,,359281,,,,,,,
23256,set_tempo,,8,1,0,,,,,,363636,,,,,,,
23273,note_on,,30,0,1,,,,,,,,,0,,,68,0
23277,note_on,,4,0,1,,,,,,,,,0,,,66,0
23278,note_on,,1,0,1,,,,,,,,,0,,,56,0
23282,set_tempo,,26,1,0,,,,,,368098,,,,,,,
23287,note_on,,9,0,1,,,,,,,,,0,,,60,127
23288,note_on,,1,0,1,,,,,,,,,0,,,75,0
23296,set_tempo,,14,1,0,,,,,,370370,,,,,,,
23300,set_tempo,,4,1,0,,,,,,372670,,,,,,,
23324,control_change,,36,0,1,,,,,,,,,0,64,0,,
23327,note_on,,3,0,1,,,,,,,,,0,,,61,127
23329,note_on,,2,0,1,,,,,,,,,0,,,60,0
23332,note_on,,3,0,1,,,,,,,,,0,,,73,106
23333,note_on,,1,0,1,,,,,,,,,0,,,65,107
23365,note_on,,32,0,1,,,,,,,,,0,,,65,0
23376,note_on,,11,0,1,,,,,,,,,0,,,61,0
23391,note_on,,15,0,1,,,,,,,,,0,,,73,0
23418,control_change,,27,0,1,,,,,,,,,0,64,127,,
23420,note_on,,2,0,1,,,,,,,,,0,,,74,122
23420,note_on,,0,0,1,,,,,,,,,0,,,68,123
23420,note_on,,0,0,1,,,,,,,,,0,,,41,126
23439,note_on,,19,0,1,,,,,,,,,0,,,41,0
23444,set_tempo,,144,1,0,,,,,,375000,,,,,,,
23456,note_on,,17,0,1,,,,,,,,,0,,,62,124
23462,note_on,,6,0,1,,,,,,,,,0,,,68,0
23474,note_on,,12,0,1,,,,,,,,,0,,,74,0
23482,set_tempo,,38,1,0,,,,,,372670,,,,,,,
23486,set_tempo,,4,1,0,,,,,,370370,,,,,,,
23490,note_on,,16,0,1,,,,,,,,,0,,,68,121
23490,note_on,,0,0,1,,,,,,,,,0,,,74,116
23490,set_tempo,,4,1,0,,,,,,368098,,,,,,,
23492,set_tempo,,2,1,0,,,,,,365853,,,,,,,
23498,note_on,,8,0,1,,,,,,,,,0,,,62,0
23498,set_tempo,,6,1,0,,,,,,361445,,,,,,,
23502,set_tempo,,4,1,0,,,,,,357142,,,,,,,
23506,set_tempo,,4,1,0,,,,,,355029,,,,,,,
23508,set_tempo,,2,1,0,,,,,,352941,,,,,,,
23512,set_tempo,,4,1,0,,,,,,350877,,,,,,,
23513,note_on,,15,0,1,,,,,,,,,0,,,74,0
23514,set_tempo,,2,1,0,,,,,,348837,,,,,,,
23518,set_tempo,,4,1,0,,,,,,346820,,,,,,,
23519,note_on,,6,0,1,,,,,,,,,0,,,68,0
23520,set_tempo,,2,1,0,,,,,,344827,,,,,,,
23531,note_on,,12,0,1,,,,,,,,,0,,,53,112
23531,note_on,,0,0,1,,,,,,,,,0,,,59,102
23536,note_on,,5,0,1,,,,,,,,,0,,,74,126
23536,note_on,,0,0,1,,,,,,,,,0,,,62,126
23540,note_on,,0,0,1,,,,,,,,,0,,,53,0
23540,note_on,,4,0,1,,,,,,,,,0,,,59,0
23578,control_change,,38,0,1,,,,,,,,,0,64,0,,
23626,note_on,,48,0,1,,,,,,,,,0,,,62,0
23631,note_on,,5,0,1,,,,,,,,,0,,,74,0
23651,note_on,,20,0,1,,,,,,,,,0,,,62,118
23654,note_on,,3,0,1,,,,,,,,,0,,,74,119
23654,note_on,,0,0,1,,,,,,,,,0,,,53,120
23654,note_on,,0,0,1,,,,,,,,,0,,,59,111
23663,note_on,,9,0,1,,,,,,,,,0,,,59,0
23663,note_on,,0,0,1,,,,,,,,,0,,,53,0
23672,note_on,,9,0,1,,,,,,,,,0,,,62,0
23678,note_on,,6,0,1,,,,,,,,,0,,,74,0
23767,note_on,,0,0,1,,,,,,,,,0,,,69,122
23767,note_on,,89,0,1,,,,,,,,,0,,,74,125
23772,note_on,,5,0,1,,,,,,,,,0,,,42,126
23776,control_change,,4,0,1,,,,,,,,,0,64,127,,
23784,note_on,,8,0,1,,,,,,,,,0,,,42,0
23811,note_on,,27,0,1,,,,,,,,,0,,,62,118
23815,note_on,,4,0,1,,,,,,,,,0,,,69,0
23826,note_on,,11,0,1,,,,,,,,,0,,,74,0
23852,note_on,,0,0,1,,,,,,,,,0,,,74,125
23852,note_on,,26,0,1,,,,,,,,,0,,,69,116
23859,note_on,,7,0,1,,,,,,,,,0,,,62,0
23861,note_on,,2,0,1,,,,,,,,,0,,,69,0
23881,note_on,,20,0,1,,,,,,,,,0,,,74,0
23886,note_on,,5,0,1,,,,,,,,,0,,,54,119
23888,note_on,,2,0,1,,,,,,,,,0,,,57,112
23888,note_on,,0,0,1,,,,,,,,,0,,,74,125
23892,note_on,,4,0,1,,,,,,,,,0,,,69,116
23892,note_on,,0,0,1,,,,,,,,,0,,,62,122
23895,note_on,,3,0,1,,,,,,,,,0,,,54,0
23896,note_on,,1,0,1,,,,,,,,,0,,,57,0
23960,control_change,,64,0,1,,,,,,,,,0,64,0,,
23998,note_on,,38,0,1,,,,,,,,,0,,,62,0
24002,note_on,,4,0,1,,,,,,,,,0,,,74,0
24010,note_on,,0,0,1,,,,,,,,,0,,,54,121
24010,note_on,,8,0,1,,,,,,,,,0,,,57,110
24026,note_on,,16,0,1,,,,,,,,,0,,,57,0
24028,note_on,,2,0,1,,,,,,,,,0,,,54,0
24076,note_on,,48,0,1,,,,,,,,,0,,,73,110
24078,note_on,,2,0,1,,,,,,,,,0,,,61,111
24090,note_on,,12,0,1,,,,,,,,,0,,,61,0
24096,note_on,,6,0,1,,,,,,,,,0,,,73,0
24101,note_on,,5,0,1,,,,,,,,,0,,,69,0
24133,note_on,,32,0,1,,,,,,,,,0,,,41,126
24135,note_on,,2,0,1,,,,,,,,,0,,,68,123
24136,note_on,,1,0,1,,,,,,,,,0,,,74,122
24138,control_change,,2,0,1,,,,,,,,,0,64,127,,
24152,note_on,,14,0,1,,,,,,,,,0,,,41,0
24176,note_on,,24,0,1,,,,,,,,,0,,,62,124
24177,note_on,,1,0,1,,,,,,,,,0,,,68,0
24190,note_on,,13,0,1,,,,,,,,,0,,,74,0
24208,note_on,,18,0,1,,,,,,,,,0,,,74,116
24210,note_on,,2,0,1,,,,,,,,,0,,,68,121
24218,note_on,,8,0,1,,,,,,,,,0,,,62,0
24225,note_on,,7,0,1,,,,,,,,,0,,,68,0
24231,note_on,,6,0,1,,,,,,,,,0,,,74,0
24251,note_on,,0,0,1,,,,,,,,,0,,,59,102
24251,note_on,,20,0,1,,,,,,,,,0,,,53,112
24256,note_on,,0,0,1,,,,,,,,,0,,,62,126
24256,note_on,,0,0,1,,,,,,,,,0,,,68,127
24256,note_on,,5,0,1,,,,,,,,,0,,,74,126
24260,note_on,,0,0,1,,,,,,,,,0,,,53,0
24260,note_on,,4,0,1,,,,,,,,,0,,,59,0
24298,control_change,,38,0,1,,,,,,,,,0,64,0,,
24346,note_on,,48,0,1,,,,,,,,,0,,,62,0
24351,note_on,,5,0,1,,,,,,,,,0,,,74,0
24351,note_on,,0,0,1,,,,,,,,,0,,,68,0
24371,note_on,,20,0,1,,,,,,,,,0,,,62,118
24374,note_on,,3,0,1,,,,,,,,,0,,,68,115
24374,note_on,,0,0,1,,,,,,,,,0,,,74,119
24374,note_on,,0,0,1,,,,,,,,,0,,,53,120
24374,note_on,,0,0,1,,,,,,,,,0,,,59,111
24383,note_on,,9,0,1,,,,,,,,,0,,,59,0
24383,note_on,,0,0,1,,,,,,,,,0,,,53,0
24392,note_on,,9,0,1,,,,,,,,,0,,,62,0
24397,note_on,,5,0,1,,,,,,,,,0,,,68,0
24398,note_on,,1,0,1,,,,,,,,,0,,,74,0
24487,note_on,,89,0,1,,,,,,,,,0,,,74,125
24487,note_on,,0,0,1,,,,,,,,,0,,,69,122
24492,note_on,,5,0,1,,,,,,,,,0,,,42,126
24496,control_change,,4,0,1,,,,,,,,,0,64,127,,
24504,note_on,,8,0,1,,,,,,,,,0,,,42,0
24531,note_on,,27,0,1,,,,,,,,,0,,,62,113
24535,note_on,,4,0,1,,,,,,,,,0,,,69,0
24552,note_on,,17,0,1,,,,,,,,,0,,,74,0
24572,note_on,,20,0,1,,,,,,,,,0,,,69,107
24579,note_on,,7,0,1,,,,,,,,,0,,,62,0
24581,note_on,,2,0,1,,,,,,,,,0,,,69,0
24606,note_on,,25,0,1,,,,,,,,,0,,,54,119
24608,note_on,,2,0,1,,,,,,,,,0,,,57,112
24608,note_on,,0,0,1,,,,,,,,,0,,,74,125
24612,note_on,,4,0,1,,,,,,,,,0,,,69,116
24612,note_on,,0,0,1,,,,,,,,,0,,,62,122
24615,note_on,,3,0,1,,,,,,,,,0,,,54,0
24616,note_on,,1,0,1,,,,,,,,,0,,,57,0
24680,control_change,,64,0,1,,,,,,,,,0,64,0,,
24718,note_on,,38,0,1,,,,,,,,,0,,,62,0
24722,note_on,,4,0,1,,,,,,,,,0,,,74,0
24730,note_on,,8,0,1,,,,,,,,,0,,,57,110
24730,note_on,,0,0,1,,,,,,,,,0,,,54,121
24746,note_on,,16,0,1,,,,,,,,,0,,,57,0
24748,note_on,,2,0,1,,,,,,,,,0,,,54,0
24796,note_on,,48,0,1,,,,,,,,,0,,,73,110
24798,note_on,,2,0,1,,,,,,,,,0,,,61,111
24799,note_on,,1,0,1,,,,,,,,,0,,,69,0
24810,note_on,,11,0,1,,,,,,,,,0,,,61,0
24816,note_on,,6,0,1,,,,,,,,,0,,,73,0
24850,note_on,,34,0,1,,,,,,,,,0,,,40,116
24853,control_change,,3,0,1,,,,,,,,,0,64,127,,
24854,note_on,,0,0,1,,,,,,,,,0,,,68,123
24854,note_on,,1,0,1,,,,,,,,,0,,,74,124
24869,note_on,,15,0,1,,,,,,,,,0,,,40,0
24883,note_on,,14,0,1,,,,,,,,,0,,,68,0
24894,note_on,,11,0,1,,,,,,,,,0,,,62,118
24901,note_on,,7,0,1,,,,,,,,,0,,,74,0
24928,note_on,,27,0,1,,,,,,,,,0,,,68,121
24928,note_on,,0,0,1,,,,,,,,,0,,,74,106
24937,note_on,,9,0,1,,,,,,,,,0,,,62,0
24946,note_on,,9,0,1,,,,,,,,,0,,,68,0
24947,note_on,,1,0,1,,,,,,,,,0,,,74,0
24968,note_on,,21,0,1,,,,,,,,,0,,,52,115
24968,note_on,,0,0,1,,,,,,,,,0,,,59,100
24970,note_on,,2,0,1,,,,,,,,,0,,,74,122
24970,note_on,,0,0,1,,,,,,,,,0,,,62,127
24974,note_on,,4,0,1,,,,,,,,,0,,,68,124
24977,note_on,,3,0,1,,,,,,,,,0,,,52,0
24978,note_on,,1,0,1,,,,,,,,,0,,,59,0
25016,control_change,,38,0,1,,,,,,,,,0,64,0,,
25063,note_on,,47,0,1,,,,,,,,,0,,,62,0
25063,note_on,,0,0,1,,,,,,,,,0,,,74,0
25065,note_on,,2,0,1,,,,,,,,,0,,,68,0
25083,note_on,,18,0,1,,,,,,,,,0,,,52,113
25084,note_on,,1,0,1,,,,,,,,,0,,,74,114
25084,note_on,,0,0,1,,,,,,,,,0,,,68,110
25087,note_on,,3,0,1,,,,,,,,,0,,,59,100
25087,note_on,,0,0,1,,,,,,,,,0,,,62,107
25093,note_on,,6,0,1,,,,,,,,,0,,,52,0
25096,note_on,,3,0,1,,,,,,,,,0,,,59,0
25107,note_on,,11,0,1,,,,,,,,,0,,,62,0
25109,note_on,,2,0,1,,,,,,,,,0,,,68,0
25112,note_on,,3,0,1,,,,,,,,,0,,,74,0
25205,note_on,,93,0,1,,,,,,,,,0,,,74,122
25205,note_on,,0,0,1,,,,,,,,,0,,,45,127
25208,control_change,,3,0,1,,,,,,,,,0,64,127,,
25208,note_on,,0,0,1,,,,,,,,,0,,,69,119
25249,note_on,,41,0,1,,,,,,,,,0,,,62,108
25251,note_on,,2,0,1,,,,,,,,,0,,,69,0
25252,note_on,,1,0,1,,,,,,,,,0,,,74,0
25278,note_on,,26,0,1,,,,,,,,,0,,,74,108
25283,note_on,,5,0,1,,,,,,,,,0,,,69,112
25287,note_on,,4,0,1,,,,,,,,,0,,,62,0
25292,note_on,,5,0,1,,,,,,,,,0,,,69,0
25296,note_on,,4,0,1,,,,,,,,,0,,,74,0
25315,note_on,,19,0,1,,,,,,,,,0,,,57,104
25316,note_on,,0,0,1,,,,,,,,,0,,,45,0
25316,note_on,,1,0,1,,,,,,,,,0,,,52,111
25320,note_on,,4,0,1,,,,,,,,,0,,,74,118
25322,note_on,,2,0,1,,,,,,,,,0,,,62,121
25324,note_on,,2,0,1,,,,,,,,,0,,,69,123
25324,note_on,,0,0,1,,,,,,,,,0,,,57,0
25325,note_on,,1,0,1,,,,,,,,,0,,,52,0
25372,note_on,,47,0,1,,,,,,,,,0,,,62,0
25408,note_on,,36,0,1,,,,,,,,,0,,,74,0
25430,control_change,,22,0,1,,,,,,,,,0,64,0,,
25444,note_on,,14,0,1,,,,,,,,,0,,,57,109
25447,note_on,,3,0,1,,,,,,,,,0,,,52,117
25452,note_on,,5,0,1,,,,,,,,,0,,,57,0
25454,note_on,,2,0,1,,,,,,,,,0,,,52,0
25495,note_on,,41,0,1,,,,,,,,,0,,,61,110
25495,note_on,,0,0,1,,,,,,,,,0,,,69,0
25496,note_on,,1,0,1,,,,,,,,,0,,,73,110
25516,note_on,,20,0,1,,,,,,,,,0,,,61,0
25518,note_on,,2,0,1,,,,,,,,,0,,,73,0
25555,note_on,,37,0,1,,,,,,,,,0,,,40,114
25558,note_on,,3,0,1,,,,,,,,,0,,,74,122
25558,set_tempo,,2038,1,0,,,,,,344827,,,,,,,
25560,note_on,,2,0,1,,,,,,,,,0,,,68,120
25563,control_change,,3,0,1,,,,,,,,,0,64,127,,
25573,note_on,,10,0,1,,,,,,,,,0,,,40,0
25591,note_on,,18,0,1,,,,,,,,,0,,,68,0
25599,note_on,,8,0,1,,,,,,,,,0,,,62,116
25602,set_tempo,,44,1,0,,,,,,346820,,,,,,,
25604,set_tempo,,2,1,0,,,,,,348837,,,,,,,
25608,note_on,,9,0,1,,,,,,,,,0,,,74,0
25628,note_on,,20,0,1,,,,,,,,,0,,,74,109
25628,set_tempo,,24,1,0,,,,,,350877,,,,,,,
25630,note_on,,2,0,1,,,,,,,,,0,,,68,108
25640,set_tempo,,12,1,0,,,,,,352941,,,,,,,
25641,note_on,,11,0,1,,,,,,,,,0,,,62,0
25646,note_on,,5,0,1,,,,,,,,,0,,,74,0
25651,note_on,,5,0,1,,,,,,,,,0,,,68,0
25666,set_tempo,,26,1,0,,,,,,355029,,,,,,,
25672,set_tempo,,6,1,0,,,,,,357142,,,,,,,
25676,note_on,,25,0,1,,,,,,,,,0,,,68,121
25676,note_on,,0,0,1,,,,,,,,,0,,,74,126
25676,note_on,,0,0,1,,,,,,,,,0,,,52,114
25678,note_on,,2,0,1,,,,,,,,,0,,,62,126
25678,note_on,,0,0,1,,,,,,,,,0,,,59,107
25685,note_on,,7,0,1,,,,,,,,,0,,,59,0
25685,note_on,,0,0,1,,,,,,,,,0,,,52,0
25694,set_tempo,,22,1,0,,,,,,359281,,,,,,,
25702,set_tempo,,8,1,0,,,,,,361445,,,,,,,
25722,set_tempo,,20,1,0,,,,,,363636,,,,,,,
25724,set_tempo,,2,1,0,,,,,,365853,,,,,,,
25744,set_tempo,,20,1,0,,,,,,368098,,,,,,,
25746,note_on,,61,0,1,,,,,,,,,0,,,62,0
25751,note_on,,0,0,1,,,,,,,,,0,,,68,0
25751,note_on,,5,0,1,,,,,,,,,0,,,74,0
25752,set_tempo,,8,1,0,,,,,,370370,,,,,,,
25770,set_tempo,,18,1,0,,,,,,372670,,,,,,,
25772,set_tempo,,2,1,0,,,,,,375000,,,,,,,
25799,note_on,,0,0,1,,,,,,,,,0,,,62,120
25799,note_on,,48,0,1,,,,,,,,,0,,,74,122
25801,note_on,,2,0,1,,,,,,,,,0,,,52,119
25801,note_on,,0,0,1,,,,,,,,,0,,,59,115
25801,note_on,,0,0,1,,,,,,,,,0,,,68,114
25808,note_on,,7,0,1,,,,,,,,,0,,,59,0
25810,note_on,,2,0,1,,,,,,,,,0,,,52,0
25816,note_on,,6,0,1,,,,,,,,,0,,,68,0
25816,note_on,,0,0,1,,,,,,,,,0,,,62,0
25822,note_on,,6,0,1,,,,,,,,,0,,,74,0
25932,note_on,,110,0,1,,,,,,,,,0,,,74,127
25932,note_on,,0,0,1,,,,,,,,,0,,,67,127
25937,note_on,,5,0,1,,,,,,,,,0,,,45,127
25950,control_change,,13,0,1,,,,,,,,,0,64,0,,
25964,control_change,,14,0,1,,,,,,,,,0,64,127,,
25965,note_on,,1,0,1,,,,,,,,,0,,,45,0
25971,note_on,,6,0,1,,,,,,,,,0,,,62,118
25973,note_on,,2,0,1,,,,,,,,,0,,,67,0
25985,note_on,,12,0,1,,,,,,,,,0,,,74,0
26005,note_on,,20,0,1,,,,,,,,,0,,,74,114
26008,note_on,,3,0,1,,,,,,,,,0,,,67,114
26011,note_on,,3,0,1,,,,,,,,,0,,,62,0
26019,note_on,,8,0,1,,,,,,,,,0,,,74,0
26020,note_on,,1,0,1,,,,,,,,,0,,,67,0
26042,set_tempo,,270,1,0,,,,,,372670,,,,,,,
26048,note_on,,0,0,1,,,,,,,,,0,,,64,122
26048,note_on,,28,0,1,,,,,,,,,0,,,74,127
26048,note_on,,0,0,1,,,,,,,,,0,,,62,116
26048,note_on,,0,0,1,,,,,,,,,0,,,57,122
26049,note_on,,1,0,1,,,,,,,,,0,,,67,123
26050,set_tempo,,8,1,0,,,,,,370370,,,,,,,
26052,set_tempo,,2,1,0,,,,,,368098,,,,,,,
26071,note_on,,22,0,1,,,,,,,,,0,,,57,0
26071,note_on,,0,0,1,,,,,,,,,0,,,64,0
26076,set_tempo,,24,1,0,,,,,,365853,,,,,,,
26077,note_on,,6,0,1,,,,,,,,,0,,,62,0
26079,control_change,,2,0,1,,,,,,,,,0,64,0,,
26080,set_tempo,,4,1,0,,,,,,363636,,,,,,,
26102,set_tempo,,22,1,0,,,,,,359281,,,,,,,
26126,set_tempo,,24,1,0,,,,,,357142,,,,,,,
26138,set_tempo,,12,1,0,,,,,,355029,,,,,,,
26154,set_tempo,,16,1,0,,,,,,352941,,,,,,,
26158,set_tempo,,4,1,0,,,,,,350877,,,,,,,
26165,note_on,,86,0,1,,,,,,,,,0,,,61,116
26165,note_on,,0,0,1,,,,,,,,,0,,,64,122
26165,note_on,,0,0,1,,,,,,,,,0,,,57,122
26167,note_on,,2,0,1,,,,,,,,,0,,,74,0
26170,set_tempo,,12,1,0,,,,,,348837,,,,,,,
26172,set_tempo,,2,1,0,,,,,,346820,,,,,,,
26184,set_tempo,,12,1,0,,,,,,344827,,,,,,,
26186,set_tempo,,2,1,0,,,,,,342857,,,,,,,
26188,note_on,,0,0,1,,,,,,,,,0,,,57,0
26188,note_on,,0,0,1,,,,,,,,,0,,,64,0
26188,control_change,,21,0,1,,,,,,,,,0,64,127,,
26194,note_on,,6,0,1,,,,,,,,,0,,,61,0
26200,set_tempo,,14,1,0,,,,,,340909,,,,,,,
26202,set_tempo,,2,1,0,,,,,,338983,,,,,,,
26212,set_tempo,,10,1,0,,,,,,335195,,,,,,,
26222,note_on,,28,0,1,,,,,,,,,0,,,67,0
26226,set_tempo,,14,1,0,,,,,,333333,,,,,,,
26232,set_tempo,,6,1,0,,,,,,331491,,,,,,,
26236,note_on,,14,0,1,,,,,,,,,0,,,73,119
26246,set_tempo,,14,1,0,,,,,,329670,,,,,,,
26248,set_tempo,,2,1,0,,,,,,327868,,,,,,,
26261,note_on,,25,0,1,,,,,,,,,0,,,73,0
26266,set_tempo,,18,1,0,,,,,,326086,,,,,,,
26274,set_tempo,,8,1,0,,,,,,324324,,,,,,,
26298,note_on,,37,0,1,,,,,,,,,0,,,69,127
26300,note_on,,2,0,1,,,,,,,,,0,,,50,127
26314,control_change,,14,0,1,,,,,,,,,0,64,0,,
26331,control_change,,17,0,1,,,,,,,,,0,64,127,,
26349,note_on,,18,0,1,,,,,,,,,0,,,69,0
26355,note_on,,6,0,1,,,,,,,,,0,,,73,123
26380,note_on,,25,0,1,,,,,,,,,0,,,73,0
26403,note_on,,0,0,1,,,,,,,,,0,,,54,114
26403,note_on,,23,0,1,,,,,,,,,0,,,62,113
26404,note_on,,0,0,1,,,,,,,,,0,,,57,114
26404,note_on,,1,0,1,,,,,,,,,0,,,74,127
26405,note_on,,1,0,1,,,,,,,,,0,,,50,0
26413,note_on,,8,0,1,,,,,,,,,0,,,57,0
26413,note_on,,0,0,1,,,,,,,,,0,,,54,0
26416,note_on,,3,0,1,,,,,,,,,0,,,62,0
26426,control_change,,10,0,1,,,,,,,,,0,64,0,,
26463,note_on,,37,0,1,,,,,,,,,0,,,76,125
26467,note_on,,4,0,1,,,,,,,,,0,,,74,0
26491,note_on,,24,0,1,,,,,,,,,0,,,76,0
26510,note_on,,19,0,1,,,,,,,,,0,,,62,117
26510,note_on,,0,0,1,,,,,,,,,0,,,54,120
26513,note_on,,3,0,1,,,,,,,,,0,,,57,115
26518,note_on,,5,0,1,,,,,,,,,0,,,78,127
26518,note_on,,0,0,1,,,,,,,,,0,,,62,0
26520,note_on,,2,0,1,,,,,,,,,0,,,57,0
26529,note_on,,9,0,1,,,,,,,,,0,,,54,0
26538,note_on,,9,0,1,,,,,,,,,0,,,78,0
26570,note_on,,32,0,1,,,,,,,,,0,,,79,111
26593,note_on,,23,0,1,,,,,,,,,0,,,79,0
26624,control_change,,31,0,1,,,,,,,,,0,64,127,,
26629,note_on,,5,0,1,,,,,,,,,0,,,45,111
26633,note_on,,4,0,1,,,,,,,,,0,,,78,121
26646,note_on,,13,0,1,,,,,,,,,0,,,45,0
26654,note_on,,8,0,1,,,,,,,,,0,,,78,0
26663,note_on,,9,0,1,,,,,,,,,0,,,79,93
26680,note_on,,17,0,1,,,,,,,,,0,,,78,127
26693,note_on,,13,0,1,,,,,,,,,0,,,79,0
26752,note_on,,59,0,1,,,,,,,,,0,,,61,102
26756,note_on,,4,0,1,,,,,,,,,0,,,57,99
26759,note_on,,3,0,1,,,,,,,,,0,,,76,118
26766,note_on,,0,0,1,,,,,,,,,0,,,61,0
26766,note_on,,7,0,1,,,,,,,,,0,,,57,0
26776,control_change,,10,0,1,,,,,,,,,0,64,0,,
26782,note_on,,6,0,1,,,,,,,,,0,,,78,0
26811,note_on,,29,0,1,,,,,,,,,0,,,76,0
26814,note_on,,3,0,1,,,,,,,,,0,,,74,120
26864,note_on,,50,0,1,,,,,,,,,0,,,61,108
26866,note_on,,0,0,1,,,,,,,,,0,,,57,108
26866,note_on,,2,0,1,,,,,,,,,0,,,52,99
26869,note_on,,3,0,1,,,,,,,,,0,,,73,127
26875,note_on,,6,0,1,,,,,,,,,0,,,74,0
26879,note_on,,4,0,1,,,,,,,,,0,,,61,0
26890,note_on,,11,0,1,,,,,,,,,0,,,52,0
26893,note_on,,3,0,1,,,,,,,,,0,,,57,0
26929,note_on,,36,0,1,,,,,,,,,0,,,73,0
26930,note_on,,1,0,1,,,,,,,,,0,,,71,99
26984,note_on,,54,0,1,,,,,,,,,0,,,71,0
26989,note_on,,0,0,1,,,,,,,,,0,,,69,124
26989,note_on,,5,0,1,,,,,,,,,0,,,38,107
26995,control_change,,6,0,1,,,,,,,,,0,64,127,,
27020,note_on,,25,0,1,,,,,,,,,0,,,38,0
27053,note_on,,33,0,1,,,,,,,,,0,,,74,127
27070,note_on,,17,0,1,,,,,,,,,0,,,69,0
27089,note_on,,19,0,1,,,,,,,,,0,,,74,0
27104,note_on,,15,0,1,,,,,,,,,0,,,50,111
27104,note_on,,0,0,1,,,,,,,,,0,,,62,106
27107,note_on,,3,0,1,,,,,,,,,0,,,57,109
27112,note_on,,5,0,1,,,,,,,,,0,,,74,120
27113,note_on,,0,0,1,,,,,,,,,0,,,50,0
27113,note_on,,1,0,1,,,,,,,,,0,,,62,0
27114,note_on,,1,0,1,,,,,,,,,0,,,57,0
27122,note_on,,8,0,1,,,,,,,,,0,,,74,0
27141,note_on,,19,0,1,,,,,,,,,0,,,76,111
27163,note_on,,22,0,1,,,,,,,,,0,,,74,120
27177,note_on,,14,0,1,,,,,,,,,0,,,76,0
27194,control_change,,17,0,1,,,,,,,,,0,64,0,,
27223,note_on,,29,0,1,,,,,,,,,0,,,50,113
27224,note_on,,1,0,1,,,,,,,,,0,,,73,127
27227,note_on,,3,0,1,,,,,,,,,0,,,57,105
27227,note_on,,0,0,1,,,,,,,,,0,,,62,93
27232,note_on,,5,0,1,,,,,,,,,0,,,50,0
27233,note_on,,1,0,1,,,,,,,,,0,,,74,0
27236,note_on,,3,0,1,,,,,,,,,0,,,57,0
27236,note_on,,0,0,1,,,,,,,,,0,,,62,0
27278,note_on,,42,0,1,,,,,,,,,0,,,73,0
27283,note_on,,5,0,1,,,,,,,,,0,,,71,105
27352,note_on,,69,0,1,,,,,,,,,0,,,73,124
27356,note_on,,4,0,1,,,,,,,,,0,,,45,124
27365,note_on,,9,0,1,,,,,,,,,0,,,71,0
27384,control_change,,19,0,1,,,,,,,,,0,64,127,,
27392,note_on,,8,0,1,,,,,,,,,0,,,45,0
27478,note_on,,86,0,1,,,,,,,,,0,,,69,114
27478,note_on,,0,0,1,,,,,,,,,0,,,57,114
27480,note_on,,2,0,1,,,,,,,,,0,,,64,103
27489,note_on,,9,0,1,,,,,,,,,0,,,57,0
27489,note_on,,0,0,1,,,,,,,,,0,,,69,0
27491,note_on,,2,0,1,,,,,,,,,0,,,64,0
27591,note_on,,100,0,1,,,,,,,,,0,,,69,119
27592,note_on,,1,0,1,,,,,,,,,0,,,67,99
27592,note_on,,0,0,1,,,,,,,,,0,,,57,109
27593,note_on,,1,0,1,,,,,,,,,0,,,64,109
27602,note_on,,9,0,1,,,,,,,,,0,,,64,0
27602,note_on,,0,0,1,,,,,,,,,0,,,57,0
27612,note_on,,10,0,1,,,,,,,,,0,,,67,0
27634,note_on,,22,0,1,,,,,,,,,0,,,73,0
27650,note_on,,16,0,1,,,,,,,,,0,,,69,0
27724,control_change,,74,0,1,,,,,,,,,0,64,0,,
27728,note_on,,4,0,1,,,,,,,,,0,,,50,121
27728,note_on,,0,0,1,,,,,,,,,0,,,69,116
27756,control_change,,28,0,1,,,,,,,,,0,64,127,,
27788,note_on,,32,0,1,,,,,,,,,0,,,73,123
27794,note_on,,6,0,1,,,,,,,,,0,,,69,0
27821,note_on,,27,0,1,,,,,,,,,0,,,50,0
27829,note_on,,8,0,1,,,,,,,,,0,,,73,0
27836,note_on,,7,0,1,,,,,,,,,0,,,74,127
27836,note_on,,0,0,1,,,,,,,,,0,,,57,110
27838,note_on,,2,0,1,,,,,,,,,0,,,62,105
27847,note_on,,9,0,1,,,,,,,,,0,,,57,0
27848,note_on,,1,0,1,,,,,,,,,0,,,62,0
27868,control_change,,20,0,1,,,,,,,,,0,64,0,,
27900,note_on,,32,0,1,,,,,,,,,0,,,76,119
27911,note_on,,11,0,1,,,,,,,,,0,,,74,0
27950,note_on,,39,0,1,,,,,,,,,0,,,62,111
27953,note_on,,3,0,1,,,,,,,,,0,,,54,108
27954,note_on,,1,0,1,,,,,,,,,0,,,78,127
27954,note_on,,0,0,1,,,,,,,,,0,,,57,107
27960,note_on,,6,0,1,,,,,,,,,0,,,62,0
27963,note_on,,3,0,1,,,,,,,,,0,,,76,0
27963,note_on,,0,0,1,,,,,,,,,0,,,57,0
27966,note_on,,3,0,1,,,,,,,,,0,,,54,0
28000,note_on,,34,0,1,,,,,,,,,0,,,78,0
28010,note_on,,10,0,1,,,,,,,,,0,,,79,109
28035,note_on,,25,0,1,,,,,,,,,0,,,79,0
28065,note_on,,30,0,1,,,,,,,,,0,,,43,113
28068,note_on,,3,0,1,,,,,,,,,0,,,78,113
28072,control_change,,4,0,1,,,,,,,,,0,64,127,,
28080,note_on,,8,0,1,,,,,,,,,0,,,78,0
28085,note_on,,5,0,1,,,,,,,,,0,,,79,94
28094,note_on,,9,0,1,,,,,,,,,0,,,43,0
28105,note_on,,11,0,1,,,,,,,,,0,,,78,119
28118,note_on,,13,0,1,,,,,,,,,0,,,79,0
28193,note_on,,75,0,1,,,,,,,,,0,,,64,102
28193,note_on,,0,0,1,,,,,,,,,0,,,76,110
28193,note_on,,0,0,1,,,,,,,,,0,,,59,100
28206,note_on,,0,0,1,,,,,,,,,0,,,64,0
28206,note_on,,13,0,1,,,,,,,,,0,,,59,0
28216,control_change,,10,0,1,,,,,,,,,0,64,0,,
28222,note_on,,6,0,1,,,,,,,,,0,,,78,0
28250,note_on,,28,0,1,,,,,,,,,0,,,76,0
28251,note_on,,1,0,1,,,,,,,,,0,,,74,119
28311,note_on,,60,0,1,,,,,,,,,0,,,64,100
28311,note_on,,0,0,1,,,,,,,,,0,,,59,95
28314,note_on,,3,0,1,,,,,,,,,0,,,73,124
28315,note_on,,1,0,1,,,,,,,,,0,,,55,101
28325,note_on,,0,0,1,,,,,,,,,0,,,74,0
28325,note_on,,10,0,1,,,,,,,,,0,,,64,0
28342,note_on,,17,0,1,,,,,,,,,0,,,59,0
28351,note_on,,9,0,1,,,,,,,,,0,,,55,0
28374,note_on,,23,0,1,,,,,,,,,0,,,71,111
28376,note_on,,2,0,1,,,,,,,,,0,,,73,0
28430,note_on,,54,0,1,,,,,,,,,0,,,45,110
28432,note_on,,2,0,1,,,,,,,,,0,,,71,0
28433,note_on,,1,0,1,,,,,,,,,0,,,69,120
28447,control_change,,14,0,1,,,,,,,,,0,64,127,,
28457,note_on,,10,0,1,,,,,,,,,0,,,45,0
28493,note_on,,36,0,1,,,,,,,,,0,,,73,122
28504,note_on,,11,0,1,,,,,,,,,0,,,69,0
28524,note_on,,20,0,1,,,,,,,,,0,,,73,0
28552,note_on,,28,0,1,,,,,,,,,0,,,57,98
28554,note_on,,2,0,1,,,,,,,,,0,,,73,116
28554,note_on,,0,0,1,,,,,,,,,0,,,67,99
28557,note_on,,3,0,1,,,,,,,,,0,,,64,79
28561,note_on,,4,0,1,,,,,,,,,0,,,57,0
28565,note_on,,4,0,1,,,,,,,,,0,,,64,0
28566,note_on,,1,0,1,,,,,,,,,0,,,73,0
28581,note_on,,15,0,1,,,,,,,,,0,,,74,109
28583,note_on,,2,0,1,,,,,,,,,0,,,67,0
28595,control_change,,12,0,1,,,,,,,,,0,64,0,,
28598,note_on,,3,0,1,,,,,,,,,0,,,73,127
28616,note_on,,18,0,1,,,,,,,,,0,,,74,0
28672,note_on,,56,0,1,,,,,,,,,0,,,57,105
28672,note_on,,0,0,1,,,,,,,,,0,,,71,111
28672,note_on,,0,0,1,,,,,,,,,0,,,67,111
28673,note_on,,1,0,1,,,,,,,,,0,,,64,101
28680,note_on,,7,0,1,,,,,,,,,0,,,73,0
28684,note_on,,4,0,1,,,,,,,,,0,,,64,0
28696,note_on,,12,0,1,,,,,,,,,0,,,57,0
28730,note_on,,34,0,1,,,,,,,,,0,,,71,0
28730,note_on,,0,0,1,,,,,,,,,0,,,67,0
28750,note_on,,20,0,1,,,,,,,,,0,,,69,98
28790,note_on,,40,0,1,,,,,,,,,0,,,69,0
28795,note_on,,5,0,1,,,,,,,,,0,,,74,116
28812,note_on,,17,0,1,,,,,,,,,0,,,38,83
28833,control_change,,21,0,1,,,,,,,,,0,64,127,,
28845,note_on,,12,0,1,,,,,,,,,0,,,38,0
28920,note_on,,75,0,1,,,,,,,,,0,,,50,111
28920,note_on,,0,0,1,,,,,,,,,0,,,62,111
28923,note_on,,3,0,1,,,,,,,,,0,,,57,96
28923,note_on,,0,0,1,,,,,,,,,0,,,66,106
28931,note_on,,8,0,1,,,,,,,,,0,,,57,0
28949,note_on,,18,0,1,,,,,,,,,0,,,62,0
28949,note_on,,0,0,1,,,,,,,,,0,,,50,0
28968,note_on,,19,0,1,,,,,,,,,0,,,66,0
29038,note_on,,70,0,1,,,,,,,,,0,,,50,94
29040,note_on,,2,0,1,,,,,,,,,0,,,62,96
29040,note_on,,0,0,1,,,,,,,,,0,,,57,93
29040,note_on,,0,0,1,,,,,,,,,0,,,66,111
29050,note_on,,10,0,1,,,,,,,,,0,,,57,0
29054,note_on,,4,0,1,,,,,,,,,0,,,62,0
29055,note_on,,1,0,1,,,,,,,,,0,,,50,0
29060,note_on,,5,0,1,,,,,,,,,0,,,66,0
29080,note_on,,20,0,1,,,,,,,,,0,,,74,0
29165,note_on,,85,0,1,,,,,,,,,0,,,50,119
29168,note_on,,3,0,1,,,,,,,,,0,,,69,127
29174,control_change,,6,0,1,,,,,,,,,0,64,0,,
29198,control_change,,24,0,1,,,,,,,,,0,64,127,,
29223,note_on,,25,0,1,,,,,,,,,0,,,73,120
29228,note_on,,5,0,1,,,,,,,,,0,,,69,0
29246,note_on,,18,0,1,,,,,,,,,0,,,50,0
29256,note_on,,10,0,1,,,,,,,,,0,,,73,0
29281,note_on,,25,0,1,,,,,,,,,0,,,62,117
29283,note_on,,2,0,1,,,,,,,,,0,,,74,127
29283,note_on,,0,0,1,,,,,,,,,0,,,54,110
29285,note_on,,2,0,1,,,,,,,,,0,,,57,105
29288,note_on,,3,0,1,,,,,,,,,0,,,50,81
29294,note_on,,6,0,1,,,,,,,,,0,,,57,0
29296,note_on,,2,0,1,,,,,,,,,0,,,54,0
29297,note_on,,1,0,1,,,,,,,,,0,,,50,0
29298,note_on,,1,0,1,,,,,,,,,0,,,62,0
29299,control_change,,1,0,1,,,,,,,,,0,64,0,,
29336,note_on,,37,0,1,,,,,,,,,0,,,76,119
29345,note_on,,9,0,1,,,,,,,,,0,,,74,0
29389,note_on,,44,0,1,,,,,,,,,0,,,54,105
29392,note_on,,0,0,1,,,,,,,,,0,,,57,105
29392,note_on,,3,0,1,,,,,,,,,0,,,78,121
29393,note_on,,0,0,1,,,,,,,,,0,,,76,0
29393,note_on,,0,0,1,,,,,,,,,0,,,62,96
29393,note_on,,1,0,1,,,,,,,,,0,,,50,95
29400,note_on,,7,0,1,,,,,,,,,0,,,57,0
29402,note_on,,2,0,1,,,,,,,,,0,,,50,0
29403,note_on,,1,0,1,,,,,,,,,0,,,54,0
29407,note_on,,4,0,1,,,,,,,,,0,,,62,0
29443,note_on,,36,0,1,,,,,,,,,0,,,78,0
29450,note_on,,7,0,1,,,,,,,,,0,,,79,114
29488,note_on,,38,0,1,,,,,,,,,0,,,79,0
29507,note_on,,19,0,1,,,,,,,,,0,,,45,106
29511,note_on,,4,0,1,,,,,,,,,0,,,78,104
29511,control_change,,0,0,1,,,,,,,,,0,64,127,,
29523,note_on,,12,0,1,,,,,,,,,0,,,45,0
29525,note_on,,2,0,1,,,,,,,,,0,,,78,0
29537,note_on,,12,0,1,,,,,,,,,0,,,79,88
29555,note_on,,18,0,1,,,,,,,,,0,,,78,126
29564,note_on,,9,0,1,,,,,,,,,0,,,79,0
29633,note_on,,69,0,1,,,,,,,,,0,,,61,84
29633,note_on,,0,0,1,,,,,,,,,0,,,57,99
29635,note_on,,2,0,1,,,,,,,,,0,,,52,93
29640,note_on,,5,0,1,,,,,,,,,0,,,76,108
29648,note_on,,8,0,1,,,,,,,,,0,,,52,0
29653,note_on,,5,0,1,,,,,,,,,0,,,61,0
29658,note_on,,5,0,1,,,,,,,,,0,,,57,0
29659,control_change,,1,0,1,,,,,,,,,0,64,0,,
29660,note_on,,1,0,1,,,,,,,,,0,,,78,0
29690,note_on,,30,0,1,,,,,,,,,0,,,76,0
29696,note_on,,6,0,1,,,,,,,,,0,,,74,112
29746,note_on,,50,0,1,,,,,,,,,0,,,52,103
29749,note_on,,3,0,1,,,,,,,,,0,,,61,101
29750,note_on,,1,0,1,,,,,,,,,0,,,73,121
29754,note_on,,4,0,1,,,,,,,,,0,,,57,103
29756,note_on,,2,0,1,,,,,,,,,0,,,74,0
29760,note_on,,4,0,1,,,,,,,,,0,,,61,0
29765,note_on,,5,0,1,,,,,,,,,0,,,57,0
29782,note_on,,17,0,1,,,,,,,,,0,,,52,0
29809,note_on,,27,0,1,,,,,,,,,0,,,71,105
29809,note_on,,0,0,1,,,,,,,,,0,,,73,0
29870,note_on,,61,0,1,,,,,,,,,0,,,71,0
29873,note_on,,3,0,1,,,,,,,,,0,,,38,96
29873,note_on,,0,0,1,,,,,,,,,0,,,69,116
29878,control_change,,5,0,1,,,,,,,,,0,64,127,,
29902,note_on,,24,0,1,,,,,,,,,0,,,38,0
29934,note_on,,32,0,1,,,,,,,,,0,,,74,122
29952,note_on,,18,0,1,,,,,,,,,0,,,69,0
29970,note_on,,18,0,1,,,,,,,,,0,,,74,0
29992,note_on,,22,0,1,,,,,,,,,0,,,50,93
29993,note_on,,1,0,1,,,,,,,,,0,,,62,89
29994,note_on,,1,0,1,,,,,,,,,0,,,57,91
29996,note_on,,2,0,1,,,,,,,,,0,,,74,105
30002,note_on,,6,0,1,,,,,,,,,0,,,62,0
30002,note_on,,0,0,1,,,,,,,,,0,,,50,0
30003,note_on,,1,0,1,,,,,,,,,0,,,57,0
30007,note_on,,4,0,1,,,,,,,,,0,,,74,0
30026,note_on,,19,0,1,,,,,,,,,0,,,76,104
30035,control_change,,9,0,1,,,,,,,,,0,64,0,,
30046,note_on,,11,0,1,,,,,,,,,0,,,74,111
30057,note_on,,11,0,1,,,,,,,,,0,,,76,0
30106,note_on,,49,0,1,,,,,,,,,0,,,73,124
30108,note_on,,2,0,1,,,,,,,,,0,,,50,103
30111,note_on,,3,0,1,,,,,,,,,0,,,57,101
30111,note_on,,0,0,1,,,,,,,,,0,,,62,96
30115,note_on,,4,0,1,,,,,,,,,0,,,74,0
30122,note_on,,7,0,1,,,,,,,,,0,,,57,0
30125,note_on,,3,0,1,,,,,,,,,0,,,62,0
30125,note_on,,0,0,1,,,,,,,,,0,,,50,0
30152,note_on,,27,0,1,,,,,,,,,0,,,73,0
30160,note_on,,8,0,1,,,,,,,,,0,,,71,103
30229,note_on,,0,0,1,,,,,,,,,0,,,71,0
30229,note_on,,69,0,1,,,,,,,,,0,,,73,107
30234,note_on,,5,0,1,,,,,,,,,0,,,45,109
30252,control_change,,18,0,1,,,,,,,,,0,64,127,,
30259,note_on,,7,0,1,,,,,,,,,0,,,45,0
30350,note_on,,91,0,1,,,,,,,,,0,,,61,96
30350,note_on,,0,0,1,,,,,,,,,0,,,69,95
30354,note_on,,4,0,1,,,,,,,,,0,,,57,98
30354,note_on,,0,0,1,,,,,,,,,0,,,64,96
30366,note_on,,12,0,1,,,,,,,,,0,,,57,0
30367,note_on,,1,0,1,,,,,,,,,0,,,61,0
30368,note_on,,1,0,1,,,,,,,,,0,,,64,0
30375,note_on,,7,0,1,,,,,,,,,0,,,69,0
30476,note_on,,101,0,1,,,,,,,,,0,,,69,97
30477,note_on,,1,0,1,,,,,,,,,0,,,67,99
30477,note_on,,0,0,1,,,,,,,,,0,,,64,104
30480,note_on,,3,0,1,,,,,,,,,0,,,61,92
30480,note_on,,0,0,1,,,,,,,,,0,,,57,96
30490,note_on,,10,0,1,,,,,,,,,0,,,73,0
30495,note_on,,5,0,1,,,,,,,,,0,,,64,0
30501,note_on,,6,0,1,,,,,,,,,0,,,67,0
30508,note_on,,7,0,1,,,,,,,,,0,,,61,0
30513,note_on,,5,0,1,,,,,,,,,0,,,57,0
30515,note_on,,2,0,1,,,,,,,,,0,,,69,0
30606,note_on,,91,0,1,,,,,,,,,0,,,50,116
30608,note_on,,2,0,1,,,,,,,,,0,,,69,114
30610,control_change,,2,0,1,,,,,,,,,0,64,0,,
30632,control_change,,22,0,1,,,,,,,,,0,64,127,,
30665,note_on,,33,0,1,,,,,,,,,0,,,69,0
30666,note_on,,1,0,1,,,,,,,,,0,,,73,113
30677,note_on,,11,0,1,,,,,,,,,0,,,50,0
30706,note_on,,29,0,1,,,,,,,,,0,,,73,0
30719,note_on,,13,0,1,,,,,,,,,0,,,74,122
30720,note_on,,1,0,1,,,,,,,,,0,,,62,112
30723,note_on,,3,0,1,,,,,,,,,0,,,57,112
30730,control_change,,7,0,1,,,,,,,,,0,64,0,,
30730,note_on,,0,0,1,,,,,,,,,0,,,57,0
30730,note_on,,0,0,1,,,,,,,,,0,,,62,0
30776,note_on,,46,0,1,,,,,,,,,0,,,76,112
30784,note_on,,8,0,1,,,,,,,,,0,,,74,0
30830,note_on,,46,0,1,,,,,,,,,0,,,50,116
30832,note_on,,2,0,1,,,,,,,,,0,,,62,108
30834,note_on,,2,0,1,,,,,,,,,0,,,57,108
30835,note_on,,1,0,1,,,,,,,,,0,,,78,122
30840,note_on,,5,0,1,,,,,,,,,0,,,62,0
30844,note_on,,4,0,1,,,,,,,,,0,,,57,0
30844,note_on,,0,0,1,,,,,,,,,0,,,76,0
30852,note_on,,8,0,1,,,,,,,,,0,,,50,0
30880,note_on,,28,0,1,,,,,,,,,0,,,78,0
30889,note_on,,9,0,1,,,,,,,,,0,,,79,113
30912,note_on,,23,0,1,,,,,,,,,0,,,79,0
30944,note_on,,32,0,1,,,,,,,,,0,,,78,107
30947,note_on,,3,0,1,,,,,,,,,0,,,43,101
30953,control_change,,6,0,1,,,,,,,,,0,64,127,,
30960,note_on,,7,0,1,,,,,,,,,0,,,78,0
30967,note_on,,7,0,1,,,,,,,,,0,,,79,91
30968,note_on,,1,0,1,,,,,,,,,0,,,43,0
30985,note_on,,17,0,1,,,,,,,,,0,,,78,127
31002,note_on,,17,0,1,,,,,,,,,0,,,79,0
31072,note_on,,70,0,1,,,,,,,,,0,,,59,111
31072,note_on,,0,0,1,,,,,,,,,0,,,64,102
31075,note_on,,3,0,1,,,,,,,,,0,,,76,114
31095,note_on,,20,0,1,,,,,,,,,0,,,64,0
31096,note_on,,1,0,1,,,,,,,,,0,,,59,0
31102,control_change,,6,0,1,,,,,,,,,0,64,0,,
31102,note_on,,0,0,1,,,,,,,,,0,,,78,0
31131,note_on,,29,0,1,,,,,,,,,0,,,76,0
31134,note_on,,3,0,1,,,,,,,,,0,,,74,114
31189,note_on,,55,0,1,,,,,,,,,0,,,64,106
31190,note_on,,1,0,1,,,,,,,,,0,,,55,106
31190,note_on,,0,0,1,,,,,,,,,0,,,73,125
31192,note_on,,2,0,1,,,,,,,,,0,,,59,95
31198,note_on,,6,0,1,,,,,,,,,0,,,74,0
31199,note_on,,1,0,1,,,,,,,,,0,,,64,0
31204,note_on,,5,0,1,,,,,,,,,0,,,59,0
31218,note_on,,14,0,1,,,,,,,,,0,,,55,0
31254,note_on,,36,0,1,,,,,,,,,0,,,71,111
31262,note_on,,8,0,1,,,,,,,,,0,,,73,0
31309,note_on,,47,0,1,,,,,,,,,0,,,45,109
31313,note_on,,4,0,1,,,,,,,,,0,,,69,118
31313,note_on,,0,0,1,,,,,,,,,0,,,71,0
31320,control_change,,7,0,1,,,,,,,,,0,64,127,,
31332,note_on,,12,0,1,,,,,,,,,0,,,45,0
31373,note_on,,41,0,1,,,,,,,,,0,,,73,119
31390,note_on,,17,0,1,,,,,,,,,0,,,69,0
31406,note_on,,16,0,1,,,,,,,,,0,,,73,0
31429,note_on,,23,0,1,,,,,,,,,0,,,64,102
31432,note_on,,3,0,1,,,,,,,,,0,,,57,78
31436,note_on,,4,0,1,,,,,,,,,0,,,73,107
31438,note_on,,2,0,1,,,,,,,,,0,,,64,0
31442,note_on,,4,0,1,,,,,,,,,0,,,57,0
31447,note_on,,5,0,1,,,,,,,,,0,,,73,0
31461,note_on,,14,0,1,,,,,,,,,0,,,74,108
31468,control_change,,7,0,1,,,,,,,,,0,64,0,,
31483,note_on,,15,0,1,,,,,,,,,0,,,73,126
31501,note_on,,18,0,1,,,,,,,,,0,,,74,0
31551,note_on,,50,0,1,,,,,,,,,0,,,71,110
31551,note_on,,0,0,1,,,,,,,,,0,,,64,106
31552,note_on,,1,0,1,,,,,,,,,0,,,57,103
31560,note_on,,0,0,1,,,,,,,,,0,,,73,0
31560,note_on,,8,0,1,,,,,,,,,0,,,64,0
31566,note_on,,6,0,1,,,,,,,,,0,,,57,0
31615,note_on,,49,0,1,,,,,,,,,0,,,71,0
31616,note_on,,1,0,1,,,,,,,,,0,,,69,114
31670,note_on,,54,0,1,,,,,,,,,0,,,69,0
31672,note_on,,2,0,1,,,,,,,,,0,,,38,101
31676,note_on,,4,0,1,,,,,,,,,0,,,74,113
31688,control_change,,12,0,1,,,,,,,,,0,64,127,,
31702,note_on,,14,0,1,,,,,,,,,0,,,38,0
31788,note_on,,86,0,1,,,,,,,,,0,,,50,97
31790,note_on,,2,0,1,,,,,,,,,0,,,57,100
31790,note_on,,0,0,1,,,,,,,,,0,,,66,103
31790,note_on,,0,0,1,,,,,,,,,0,,,62,91
31803,note_on,,13,0,1,,,,,,,,,0,,,57,0
31806,note_on,,3,0,1,,,,,,,,,0,,,50,0
31808,note_on,,2,0,1,,,,,,,,,0,,,62,0
31829,note_on,,21,0,1,,,,,,,,,0,,,66,0
31912,note_on,,83,0,1,,,,,,,,,0,,,50,101
31913,note_on,,1,0,1,,,,,,,,,0,,,62,91
31914,note_on,,1,0,1,,,,,,,,,0,,,57,102
31914,note_on,,0,0,1,,,,,,,,,0,,,66,101
31931,note_on,,17,0,1,,,,,,,,,0,,,62,0
31934,note_on,,3,0,1,,,,,,,,,0,,,74,0
31935,note_on,,1,0,1,,,,,,,,,0,,,50,0
31937,note_on,,2,0,1,,,,,,,,,0,,,66,0
31937,note_on,,0,0,1,,,,,,,,,0,,,57,0
32046,note_on,,109,0,1,,,,,,,,,0,,,64,118
32046,note_on,,0,0,1,,,,,,,,,0,,,45,127
32046,control_change,,0,0,1,,,,,,,,,0,64,0,,
32069,control_change,,23,0,1,,,,,,,,,0,64,127,,
32099,note_on,,30,0,1,,,,,,,,,0,,,64,0
32108,note_on,,9,0,1,,,,,,,,,0,,,68,112
32120,note_on,,12,0,1,,,,,,,,,0,,,45,0
32152,note_on,,32,0,1,,,,,,,,,0,,,68,0
32160,note_on,,8,0,1,,,,,,,,,0,,,61,91
32164,note_on,,4,0,1,,,,,,,,,0,,,52,116
32164,note_on,,0,0,1,,,,,,,,,0,,,45,116
32165,note_on,,1,0,1,,,,,,,,,0,,,57,108
32165,note_on,,0,0,1,,,,,,,,,0,,,69,125
32172,note_on,,7,0,1,,,,,,,,,0,,,45,0
32172,note_on,,0,0,1,,,,,,,,,0,,,52,0
32174,note_on,,2,0,1,,,,,,,,,0,,,57,0
32178,note_on,,4,0,1,,,,,,,,,0,,,61,0
32190,control_change,,12,0,1,,,,,,,,,0,64,0,,
32220,note_on,,30,0,1,,,,,,,,,0,,,71,123
32229,note_on,,9,0,1,,,,,,,,,0,,,69,0
32274,note_on,,45,0,1,,,,,,,,,0,,,45,115
32277,note_on,,3,0,1,,,,,,,,,0,,,52,119
32280,note_on,,3,0,1,,,,,,,,,0,,,57,108
32280,note_on,,0,0,1,,,,,,,,,0,,,61,91
32282,note_on,,2,0,1,,,,,,,,,0,,,73,126
32286,note_on,,4,0,1,,,,,,,,,0,,,52,0
32289,note_on,,3,0,1,,,,,,,,,0,,,71,0
32290,note_on,,1,0,1,,,,,,,,,0,,,57,0
32292,note_on,,2,0,1,,,,,,,,,0,,,45,0
32298,note_on,,6,0,1,,,,,,,,,0,,,61,0
32334,note_on,,36,0,1,,,,,,,,,0,,,74,122
32343,note_on,,9,0,1,,,,,,,,,0,,,73,0
32366,note_on,,23,0,1,,,,,,,,,0,,,74,0
32388,note_on,,22,0,1,,,,,,,,,0,,,73,105
32391,note_on,,3,0,1,,,,,,,,,0,,,40,105
32397,control_change,,6,0,1,,,,,,,,,0,64,127,,
32401,note_on,,4,0,1,,,,,,,,,0,,,73,0
32407,note_on,,6,0,1,,,,,,,,,0,,,74,91
32411,note_on,,4,0,1,,,,,,,,,0,,,40,0
32428,note_on,,17,0,1,,,,,,,,,0,,,73,127
32439,note_on,,11,0,1,,,,,,,,,0,,,74,0
32510,note_on,,71,0,1,,,,,,,,,0,,,59,98
32510,note_on,,0,0,1,,,,,,,,,0,,,52,101
32513,note_on,,3,0,1,,,,,,,,,0,,,71,111
32513,note_on,,0,0,1,,,,,,,,,0,,,62,108
32521,note_on,,8,0,1,,,,,,,,,0,,,52,0
32521,note_on,,0,0,1,,,,,,,,,0,,,59,0
32523,note_on,,2,0,1,,,,,,,,,0,,,62,0
32533,note_on,,10,0,1,,,,,,,,,0,,,73,0
32570,note_on,,37,0,1,,,,,,,,,0,,,71,0
32571,note_on,,1,0,1,,,,,,,,,0,,,69,114
32577,control_change,,6,0,1,,,,,,,,,0,64,0,,
32629,note_on,,52,0,1,,,,,,,,,0,,,59,106
32630,note_on,,1,0,1,,,,,,,,,0,,,52,112
32630,note_on,,0,0,1,,,,,,,,,0,,,68,127
32633,note_on,,3,0,1,,,,,,,,,0,,,62,108
32640,note_on,,7,0,1,,,,,,,,,0,,,59,0
32641,note_on,,1,0,1,,,,,,,,,0,,,69,0
32643,note_on,,2,0,1,,,,,,,,,0,,,62,0
32652,note_on,,9,0,1,,,,,,,,,0,,,52,0
32689,note_on,,37,0,1,,,,,,,,,0,,,66,119
32695,note_on,,6,0,1,,,,,,,,,0,,,68,0
32755,note_on,,0,0,1,,,,,,,,,0,,,33,120
32755,note_on,,60,0,1,,,,,,,,,0,,,64,124
32758,note_on,,3,0,1,,,,,,,,,0,,,66,0
32760,control_change,,2,0,1,,,,,,,,,0,64,127,,
32789,note_on,,29,0,1,,,,,,,,,0,,,33,0
32803,note_on,,14,0,1,,,,,,,,,0,,,64,0
32819,note_on,,16,0,1,,,,,,,,,0,,,69,111
32848,note_on,,29,0,1,,,,,,,,,0,,,69,0
32872,note_on,,24,0,1,,,,,,,,,0,,,52,110
32872,note_on,,0,0,1,,,,,,,,,0,,,45,117
32873,note_on,,1,0,1,,,,,,,,,0,,,69,113
32873,note_on,,0,0,1,,,,,,,,,0,,,57,120
32873,note_on,,0,0,1,,,,,,,,,0,,,61,120
32881,note_on,,8,0,1,,,,,,,,,0,,,45,0
32881,note_on,,0,0,1,,,,,,,,,0,,,52,0
32886,note_on,,5,0,1,,,,,,,,,0,,,69,0
32901,note_on,,15,0,1,,,,,,,,,0,,,71,104
32902,note_on,,1,0,1,,,,,,,,,0,,,57,0
32918,note_on,,16,0,1,,,,,,,,,0,,,69,116
32921,note_on,,3,0,1,,,,,,,,,0,,,61,0
32932,note_on,,11,0,1,,,,,,,,,0,,,71,0
32987,note_on,,55,0,1,,,,,,,,,0,,,68,127
32987,note_on,,0,0,1,,,,,,,,,0,,,52,113
32990,note_on,,3,0,1,,,,,,,,,0,,,45,108
32990,note_on,,0,0,1,,,,,,,,,0,,,57,105
32993,control_change,,3,0,1,,,,,,,,,0,64,0,,
32993,note_on,,0,0,1,,,,,,,,,0,,,61,120
32997,note_on,,4,0,1,,,,,,,,,0,,,57,0
32997,note_on,,0,0,1,,,,,,,,,0,,,52,0
32999,note_on,,2,0,1,,,,,,,,,0,,,45,0
32999,note_on,,0,0,1,,,,,,,,,0,,,69,0
33041,note_on,,42,0,1,,,,,,,,,0,,,61,0
33050,note_on,,9,0,1,,,,,,,,,0,,,66,127
33050,note_on,,0,0,1,,,,,,,,,0,,,68,0
33114,note_on,,64,0,1,,,,,,,,,0,,,68,114
33115,note_on,,1,0,1,,,,,,,,,0,,,40,104
33119,note_on,,4,0,1,,,,,,,,,0,,,66,0
33136,control_change,,17,0,1,,,,,,,,,0,64,127,,
33139,note_on,,3,0,1,,,,,,,,,0,,,40,0
33225,note_on,,86,0,1,,,,,,,,,0,,,52,112
33243,note_on,,18,0,1,,,,,,,,,0,,,52,0
33351,note_on,,0,0,1,,,,,,,,,0,,,52,111
33351,note_on,,108,0,1,,,,,,,,,0,,,59,106
33356,note_on,,0,0,1,,,,,,,,,0,,,62,99
33356,note_on,,5,0,1,,,,,,,,,0,,,64,106
33362,note_on,,6,0,1,,,,,,,,,0,,,59,0
33365,note_on,,3,0,1,,,,,,,,,0,,,52,0
33381,note_on,,16,0,1,,,,,,,,,0,,,62,0
33383,note_on,,2,0,1,,,,,,,,,0,,,64,0
33394,note_on,,11,0,1,,,,,,,,,0,,,68,0
33480,note_on,,86,0,1,,,,,,,,,0,,,45,121
33482,note_on,,2,0,1,,,,,,,,,0,,,64,112
33486,control_change,,4,0,1,,,,,,,,,0,64,0,,
33508,control_change,,22,0,1,,,,,,,,,0,64,127,,
33545,note_on,,37,0,1,,,,,,,,,0,,,64,0
33546,note_on,,1,0,1,,,,,,,,,0,,,68,115
33585,note_on,,39,0,1,,,,,,,,,0,,,45,0
33591,note_on,,6,0,1,,,,,,,,,0,,,68,0
33599,note_on,,8,0,1,,,,,,,,,0,,,52,105
33601,note_on,,2,0,1,,,,,,,,,0,,,69,127
33603,note_on,,2,0,1,,,,,,,,,0,,,57,88
33616,control_change,,13,0,1,,,,,,,,,0,64,0,,
33621,note_on,,5,0,1,,,,,,,,,0,,,57,0
33623,note_on,,2,0,1,,,,,,,,,0,,,52,0
33658,note_on,,35,0,1,,,,,,,,,0,,,71,119
33671,note_on,,13,0,1,,,,,,,,,0,,,69,0
33704,note_on,,33,0,1,,,,,,,,,0,,,45,119
33705,note_on,,1,0,1,,,,,,,,,0,,,57,111
33708,note_on,,3,0,1,,,,,,,,,0,,,52,114
33713,note_on,,5,0,1,,,,,,,,,0,,,73,126
33714,note_on,,1,0,1,,,,,,,,,0,,,57,0
33718,note_on,,4,0,1,,,,,,,,,0,,,52,0
33720,note_on,,2,0,1,,,,,,,,,0,,,71,0
33724,note_on,,4,0,1,,,,,,,,,0,,,45,0
33761,note_on,,37,0,1,,,,,,,,,0,,,73,0
33764,note_on,,3,0,1,,,,,,,,,0,,,74,116
33788,note_on,,24,0,1,,,,,,,,,0,,,74,0
33808,note_on,,20,0,1,,,,,,,,,0,,,73,104
33818,note_on,,10,0,1,,,,,,,,,0,,,38,107
33820,control_change,,2,0,1,,,,,,,,,0,64,127,,
33833,note_on,,13,0,1,,,,,,,,,0,,,73,0
33837,note_on,,4,0,1,,,,,,,,,0,,,38,0
33838,note_on,,1,0,1,,,,,,,,,0,,,74,102
33857,note_on,,19,0,1,,,,,,,,,0,,,73,127
33870,note_on,,13,0,1,,,,,,,,,0,,,74,0
33951,note_on,,81,0,1,,,,,,,,,0,,,54,110
33953,note_on,,2,0,1,,,,,,,,,0,,,59,99
33957,note_on,,4,0,1,,,,,,,,,0,,,71,116
33960,note_on,,3,0,1,,,,,,,,,0,,,54,0
33962,note_on,,2,0,1,,,,,,,,,0,,,59,0
33980,note_on,,18,0,1,,,,,,,,,0,,,73,0
33984,control_change,,4,0,1,,,,,,,,,0,64,0,,
34017,note_on,,33,0,1,,,,,,,,,0,,,71,0
34019,note_on,,2,0,1,,,,,,,,,0,,,69,117
34074,note_on,,55,0,1,,,,,,,,,0,,,54,105
34075,note_on,,1,0,1,,,,,,,,,0,,,59,97
34076,note_on,,1,0,1,,,,,,,,,0,,,50,103
34078,note_on,,2,0,1,,,,,,,,,0,,,68,127
34084,note_on,,6,0,1,,,,,,,,,0,,,59,0
34087,note_on,,3,0,1,,,,,,,,,0,,,69,0
34096,note_on,,9,0,1,,,,,,,,,0,,,54,0
34097,note_on,,1,0,1,,,,,,,,,0,,,50,0
34136,note_on,,39,0,1,,,,,,,,,0,,,66,120
34145,note_on,,9,0,1,,,,,,,,,0,,,68,0
34188,note_on,,43,0,1,,,,,,,,,0,,,40,104
34195,note_on,,7,0,1,,,,,,,,,0,,,66,0
34197,note_on,,2,0,1,,,,,,,,,0,,,64,121
34199,control_change,,2,0,1,,,,,,,,,0,64,127,,
34209,note_on,,10,0,1,,,,,,,,,0,,,40,0
34248,note_on,,39,0,1,,,,,,,,,0,,,68,113
34249,note_on,,1,0,1,,,,,,,,,0,,,64,0
34271,note_on,,22,0,1,,,,,,,,,0,,,68,0
34312,note_on,,41,0,1,,,,,,,,,0,,,59,95
34313,note_on,,1,0,1,,,,,,,,,0,,,52,103
34314,note_on,,1,0,1,,,,,,,,,0,,,68,117
34322,note_on,,8,0,1,,,,,,,,,0,,,52,0
34322,note_on,,0,0,1,,,,,,,,,0,,,59,0
34328,note_on,,6,0,1,,,,,,,,,0,,,68,0
34344,note_on,,16,0,1,,,,,,,,,0,,,69,106
34348,control_change,,4,0,1,,,,,,,,,0,64,0,,
34359,note_on,,11,0,1,,,,,,,,,0,,,68,127
34376,note_on,,17,0,1,,,,,,,,,0,,,69,0
34427,note_on,,51,0,1,,,,,,,,,0,,,66,121
34435,note_on,,8,0,1,,,,,,,,,0,,,52,108
34437,note_on,,2,0,1,,,,,,,,,0,,,59,94
34445,note_on,,8,0,1,,,,,,,,,0,,,68,0
34448,note_on,,3,0,1,,,,,,,,,0,,,59,0
34453,note_on,,5,0,1,,,,,,,,,0,,,52,0
34490,note_on,,37,0,1,,,,,,,,,0,,,66,0
34494,note_on,,4,0,1,,,,,,,,,0,,,64,112
34559,note_on,,65,0,1,,,,,,,,,0,,,64,0
34561,note_on,,2,0,1,,,,,,,,,0,,,69,107
34563,note_on,,2,0,1,,,,,,,,,0,,,33,105
34578,control_change,,15,0,1,,,,,,,,,0,64,127,,
34588,note_on,,10,0,1,,,,,,,,,0,,,33,0
34675,note_on,,87,0,1,,,,,,,,,0,,,52,94
34678,note_on,,0,0,1,,,,,,,,,0,,,57,78
34678,note_on,,3,0,1,,,,,,,,,0,,,45,87
34678,note_on,,0,0,1,,,,,,,,,0,,,61,101
34692,note_on,,14,0,1,,,,,,,,,0,,,45,0
34693,note_on,,1,0,1,,,,,,,,,0,,,52,0
34698,note_on,,5,0,1,,,,,,,,,0,,,57,0
34720,note_on,,22,0,1,,,,,,,,,0,,,61,0
34794,note_on,,74,0,1,,,,,,,,,0,,,45,97
34800,note_on,,6,0,1,,,,,,,,,0,,,52,103
34800,note_on,,0,0,1,,,,,,,,,0,,,61,95
34805,note_on,,5,0,1,,,,,,,,,0,,,57,63
34816,note_on,,0,0,1,,,,,,,,,0,,,45,0
34816,note_on,,11,0,1,,,,,,,,,0,,,57,0
34817,note_on,,1,0,1,,,,,,,,,0,,,61,0
34824,note_on,,7,0,1,,,,,,,,,0,,,52,0
34826,note_on,,2,0,1,,,,,,,,,0,,,69,0
34925,control_change,,99,0,1,,,,,,,,,0,64,0,,
34929,note_on,,4,0,1,,,,,,,,,0,,,64,104
34929,note_on,,0,0,1,,,,,,,,,0,,,45,111
34949,control_change,,20,0,1,,,,,,,,,0,64,127,,
34986,note_on,,37,0,1,,,,,,,,,0,,,68,106
34989,note_on,,3,0,1,,,,,,,,,0,,,64,0
35035,note_on,,46,0,1,,,,,,,,,0,,,68,0
35039,note_on,,4,0,1,,,,,,,,,0,,,52,106
35045,note_on,,6,0,1,,,,,,,,,0,,,57,83
35045,note_on,,0,0,1,,,,,,,,,0,,,45,0
35049,note_on,,4,0,1,,,,,,,,,0,,,69,117
35050,note_on,,1,0,1,,,,,,,,,0,,,52,0
35056,note_on,,6,0,1,,,,,,,,,0,,,57,0
35058,control_change,,2,0,1,,,,,,,,,0,64,0,,
35100,note_on,,42,0,1,,,,,,,,,0,,,69,0
35103,note_on,,3,0,1,,,,,,,,,0,,,71,90
35160,note_on,,57,0,1,,,,,,,,,0,,,57,97
35164,note_on,,4,0,1,,,,,,,,,0,,,45,100
35166,note_on,,2,0,1,,,,,,,,,0,,,52,94
35166,note_on,,0,0,1,,,,,,,,,0,,,73,95
35169,note_on,,3,0,1,,,,,,,,,0,,,71,0
35176,note_on,,7,0,1,,,,,,,,,0,,,57,0
35189,note_on,,13,0,1,,,,,,,,,0,,,45,0
35190,note_on,,1,0,1,,,,,,,,,0,,,52,0
35210,note_on,,20,0,1,,,,,,,,,0,,,73,0
35221,note_on,,11,0,1,,,,,,,,,0,,,74,104
35268,note_on,,47,0,1,,,,,,,,,0,,,74,0
35272,note_on,,4,0,1,,,,,,,,,0,,,73,97
35278,note_on,,6,0,1,,,,,,,,,0,,,40,95
35285,control_change,,7,0,1,,,,,,,,,0,64,127,,
35291,note_on,,6,0,1,,,,,,,,,0,,,73,0
35300,note_on,,9,0,1,,,,,,,,,0,,,74,95
35310,note_on,,10,0,1,,,,,,,,,0,,,40,0
35319,note_on,,9,0,1,,,,,,,,,0,,,73,112
35326,note_on,,7,0,1,,,,,,,,,0,,,74,0
35408,note_on,,82,0,1,,,,,,,,,0,,,52,99
35410,note_on,,2,0,1,,,,,,,,,0,,,71,103
35411,note_on,,1,0,1,,,,,,,,,0,,,59,81
35422,note_on,,0,0,1,,,,,,,,,0,,,52,0
35422,control_change,,11,0,1,,,,,,,,,0,64,0,,
35425,note_on,,3,0,1,,,,,,,,,0,,,59,0
35431,note_on,,6,0,1,,,,,,,,,0,,,73,0
35455,note_on,,24,0,1,,,,,,,,,0,,,71,0
35464,note_on,,9,0,1,,,,,,,,,0,,,69,106
35515,note_on,,51,0,1,,,,,,,,,0,,,68,114
35516,note_on,,0,0,1,,,,,,,,,0,,,59,91
35516,note_on,,1,0,1,,,,,,,,,0,,,52,99
35519,note_on,,3,0,1,,,,,,,,,0,,,69,0
35533,note_on,,14,0,1,,,,,,,,,0,,,59,0
35534,note_on,,1,0,1,,,,,,,,,0,,,52,0
35570,note_on,,36,0,1,,,,,,,,,0,,,66,99
35578,note_on,,8,0,1,,,,,,,,,0,,,68,0
35625,note_on,,47,0,1,,,,,,,,,0,,,66,0
35626,note_on,,1,0,1,,,,,,,,,0,,,45,121
35630,note_on,,4,0,1,,,,,,,,,0,,,64,105
35643,control_change,,13,0,1,,,,,,,,,0,64,127,,
35675,note_on,,32,0,1,,,,,,,,,0,,,64,0
35690,note_on,,15,0,1,,,,,,,,,0,,,69,110
35701,note_on,,11,0,1,,,,,,,,,0,,,69,0
35739,note_on,,0,0,1,,,,,,,,,0,,,45,0
35739,note_on,,38,0,1,,,,,,,,,0,,,52,106
35742,note_on,,3,0,1,,,,,,,,,0,,,57,86
35747,note_on,,5,0,1,,,,,,,,,0,,,52,0
35749,note_on,,2,0,1,,,,,,,,,0,,,69,104
35752,note_on,,3,0,1,,,,,,,,,0,,,57,0
35761,note_on,,9,0,1,,,,,,,,,0,,,69,0
35768,control_change,,7,0,1,,,,,,,,,0,64,0,,
35779,note_on,,11,0,1,,,,,,,,,0,,,71,90
35804,note_on,,25,0,1,,,,,,,,,0,,,71,0
35811,note_on,,7,0,1,,,,,,,,,0,,,69,99
35864,note_on,,53,0,1,,,,,,,,,0,,,57,83
35864,note_on,,0,0,1,,,,,,,,,0,,,45,86
35866,note_on,,2,0,1,,,,,,,,,0,,,68,114
35866,note_on,,0,0,1,,,,,,,,,0,,,52,100
35867,note_on,,1,0,1,,,,,,,,,0,,,69,0
35875,note_on,,8,0,1,,,,,,,,,0,,,57,0
35876,note_on,,1,0,1,,,,,,,,,0,,,45,0
35877,note_on,,1,0,1,,,,,,,,,0,,,52,0
35936,note_on,,59,0,1,,,,,,,,,0,,,66,108
35939,note_on,,3,0,1,,,,,,,,,0,,,68,0
35998,note_on,,59,0,1,,,,,,,,,0,,,68,104
35998,note_on,,0,0,1,,,,,,,,,0,,,40,96
35998,note_on,,0,0,1,,,,,,,,,0,,,66,0
36005,control_change,,7,0,1,,,,,,,,,0,64,127,,
36027,note_on,,22,0,1,,,,,,,,,0,,,40,0
36109,note_on,,82,0,1,,,,,,,,,0,,,52,89
36151,note_on,,42,0,1,,,,,,,,,0,,,52,0
36222,note_on,,71,0,1,,,,,,,,,0,,,64,99
36227,note_on,,5,0,1,,,,,,,,,0,,,62,105
36229,note_on,,2,0,1,,,,,,,,,0,,,59,93
36229,note_on,,0,0,1,,,,,,,,,0,,,52,99
36247,note_on,,18,0,1,,,,,,,,,0,,,59,0
36251,note_on,,4,0,1,,,,,,,,,0,,,62,0
36254,note_on,,3,0,1,,,,,,,,,0,,,52,0
36261,note_on,,7,0,1,,,,,,,,,0,,,64,0
36348,note_on,,87,0,1,,,,,,,,,0,,,68,0
36360,note_on,,12,0,1,,,,,,,,,0,,,45,114
36362,note_on,,2,0,1,,,,,,,,,0,,,64,120
36371,control_change,,9,0,1,,,,,,,,,0,64,0,,
36394,control_change,,23,0,1,,,,,,,,,0,64,127,,
36425,note_on,,0,0,1,,,,,,,,,0,,,64,0
36425,note_on,,31,0,1,,,,,,,,,0,,,68,112
36471,note_on,,46,0,1,,,,,,,,,0,,,68,0
36475,note_on,,4,0,1,,,,,,,,,0,,,57,103
36475,note_on,,0,0,1,,,,,,,,,0,,,52,111
36479,note_on,,4,0,1,,,,,,,,,0,,,45,0
36480,note_on,,1,0,1,,,,,,,,,0,,,69,126
36485,note_on,,0,0,1,,,,,,,,,0,,,57,0
36485,note_on,,5,0,1,,,,,,,,,0,,,52,0
36498,control_change,,13,0,1,,,,,,,,,0,64,0,,
36534,note_on,,36,0,1,,,,,,,,,0,,,71,113
36543,note_on,,9,0,1,,,,,,,,,0,,,69,0
36593,note_on,,0,0,1,,,,,,,,,0,,,57,107
36593,note_on,,50,0,1,,,,,,,,,0,,,45,122
36597,note_on,,4,0,1,,,,,,,,,0,,,52,109
36599,note_on,,2,0,1,,,,,,,,,0,,,73,119
36603,note_on,,4,0,1,,,,,,,,,0,,,57,0
36603,note_on,,0,0,1,,,,,,,,,0,,,45,0
36606,note_on,,3,0,1,,,,,,,,,0,,,71,0
36606,note_on,,0,0,1,,,,,,,,,0,,,52,0
36656,note_on,,50,0,1,,,,,,,,,0,,,74,116
36663,note_on,,7,0,1,,,,,,,,,0,,,73,0
36686,note_on,,23,0,1,,,,,,,,,0,,,74,0
36707,note_on,,21,0,1,,,,,,,,,0,,,73,103
36711,note_on,,4,0,1,,,,,,,,,0,,,38,107
36722,note_on,,0,0,1,,,,,,,,,0,,,73,0
36722,control_change,,11,0,1,,,,,,,,,0,64,127,,
36732,note_on,,10,0,1,,,,,,,,,0,,,74,79
36737,note_on,,5,0,1,,,,,,,,,0,,,38,0
36748,note_on,,11,0,1,,,,,,,,,0,,,73,126
36760,note_on,,12,0,1,,,,,,,,,0,,,74,0
36832,note_on,,72,0,1,,,,,,,,,0,,,54,106
36837,note_on,,5,0,1,,,,,,,,,0,,,59,94
36837,note_on,,0,0,1,,,,,,,,,0,,,71,101
36849,note_on,,12,0,1,,,,,,,,,0,,,59,0
36855,control_change,,6,0,1,,,,,,,,,0,64,0,,
36856,note_on,,1,0,1,,,,,,,,,0,,,73,0
36856,note_on,,0,0,1,,,,,,,,,0,,,54,0
36890,note_on,,34,0,1,,,,,,,,,0,,,71,0
36903,note_on,,13,0,1,,,,,,,,,0,,,69,103
36955,note_on,,52,0,1,,,,,,,,,0,,,54,97
36956,note_on,,1,0,1,,,,,,,,,0,,,68,116
36959,note_on,,3,0,1,,,,,,,,,0,,,50,99
36959,note_on,,0,0,1,,,,,,,,,0,,,59,89
36960,note_on,,1,0,1,,,,,,,,,0,,,69,0
36970,note_on,,10,0,1,,,,,,,,,0,,,59,0
36984,note_on,,14,0,1,,,,,,,,,0,,,54,0
36993,note_on,,9,0,1,,,,,,,,,0,,,50,0
37015,note_on,,22,0,1,,,,,,,,,0,,,66,110
37020,note_on,,5,0,1,,,,,,,,,0,,,68,0
37070,note_on,,50,0,1,,,,,,,,,0,,,40,104
37077,note_on,,7,0,1,,,,,,,,,0,,,66,0
37078,note_on,,1,0,1,,,,,,,,,0,,,64,109
37079,control_change,,1,0,1,,,,,,,,,0,64,127,,
37101,note_on,,22,0,1,,,,,,,,,0,,,40,0
37137,note_on,,36,0,1,,,,,,,,,0,,,68,107
37143,note_on,,6,0,1,,,,,,,,,0,,,64,0
37166,note_on,,23,0,1,,,,,,,,,0,,,68,0
37192,note_on,,26,0,1,,,,,,,,,0,,,52,104
37194,note_on,,2,0,1,,,,,,,,,0,,,59,96
37200,note_on,,6,0,1,,,,,,,,,0,,,68,111
37202,note_on,,2,0,1,,,,,,,,,0,,,52,0
37205,note_on,,3,0,1,,,,,,,,,0,,,59,0
37211,note_on,,6,0,1,,,,,,,,,0,,,68,0
37228,control_change,,17,0,1,,,,,,,,,0,64,0,,
37230,note_on,,2,0,1,,,,,,,,,0,,,69,104
37252,note_on,,22,0,1,,,,,,,,,0,,,68,122
37262,note_on,,10,0,1,,,,,,,,,0,,,69,0
37317,note_on,,0,0,1,,,,,,,,,0,,,66,114
37317,note_on,,0,0,1,,,,,,,,,0,,,52,107
37317,note_on,,55,0,1,,,,,,,,,0,,,59,96
37329,note_on,,12,0,1,,,,,,,,,0,,,59,0
37331,note_on,,2,0,1,,,,,,,,,0,,,68,0
37336,note_on,,5,0,1,,,,,,,,,0,,,52,0
37375,note_on,,39,0,1,,,,,,,,,0,,,66,0
37383,note_on,,8,0,1,,,,,,,,,0,,,64,107
37439,note_on,,56,0,1,,,,,,,,,0,,,33,104
37439,note_on,,0,0,1,,,,,,,,,0,,,64,0
37444,note_on,,5,0,1,,,,,,,,,0,,,69,94
37456,control_change,,12,0,1,,,,,,,,,0,64,127,,
37468,note_on,,12,0,1,,,,,,,,,0,,,33,0
37558,note_on,,90,0,1,,,,,,,,,0,,,61,103
37577,note_on,,19,0,1,,,,,,,,,0,,,61,0
37678,note_on,,101,0,1,,,,,,,,,0,,,61,88
37680,note_on,,2,0,1,,,,,,,,,0,,,67,107
37685,note_on,,5,0,1,,,,,,,,,0,,,57,99
37690,note_on,,5,0,1,,,,,,,,,0,,,69,0
37695,note_on,,5,0,1,,,,,,,,,0,,,61,0
37709,note_on,,14,0,1,,,,,,,,,0,,,67,0
37804,note_on,,95,0,1,,,,,,,,,0,,,50,127
37806,note_on,,2,0,1,,,,,,,,,0,,,66,121
37806,note_on,,0,0,1,,,,,,,,,0,,,57,0
37823,control_change,,17,0,1,,,,,,,,,0,64,0,,
37841,control_change,,18,0,1,,,,,,,,,0,64,127,,
37847,note_on,,6,0,1,,,,,,,,,0,,,66,0
37874,note_on,,27,0,1,,,,,,,,,0,,,73,122
37904,note_on,,30,0,1,,,,,,,,,0,,,73,0
37923,note_on,,19,0,1,,,,,,,,,0,,,54,113
37923,note_on,,0,0,1,,,,,,,,,0,,,57,111
37924,note_on,,1,0,1,,,,,,,,,0,,,74,127
37925,note_on,,1,0,1,,,,,,,,,0,,,62,99
37928,note_on,,3,0,1,,,,,,,,,0,,,50,0
37933,note_on,,5,0,1,,,,,,,,,0,,,54,0
37933,note_on,,0,0,1,,,,,,,,,0,,,57,0
37938,note_on,,5,0,1,,,,,,,,,0,,,62,0
37951,control_change,,13,0,1,,,,,,,,,0,64,0,,
37987,note_on,,36,0,1,,,,,,,,,0,,,76,125
37998,note_on,,11,0,1,,,,,,,,,0,,,74,0
38040,note_on,,42,0,1,,,,,,,,,0,,,50,112
38043,note_on,,3,0,1,,,,,,,,,0,,,54,119
38043,note_on,,0,0,1,,,,,,,,,0,,,78,127
38043,note_on,,0,0,1,,,,,,,,,0,,,62,106
38043,note_on,,0,0,1,,,,,,,,,0,,,57,114
38052,note_on,,0,0,1,,,,,,,,,0,,,76,0
38052,note_on,,9,0,1,,,,,,,,,0,,,57,0
38055,note_on,,3,0,1,,,,,,,,,0,,,62,0
38064,note_on,,9,0,1,,,,,,,,,0,,,50,0
38066,note_on,,2,0,1,,,,,,,,,0,,,54,0
38098,note_on,,32,0,1,,,,,,,,,0,,,78,0
38104,note_on,,6,0,1,,,,,,,,,0,,,79,116
38145,note_on,,41,0,1,,,,,,,,,0,,,79,0
38160,note_on,,15,0,1,,,,,,,,,0,,,78,102
38162,note_on,,2,0,1,,,,,,,,,0,,,45,105
38167,control_change,,5,0,1,,,,,,,,,0,64,127,,
38172,note_on,,5,0,1,,,,,,,,,0,,,78,0
38183,note_on,,11,0,1,,,,,,,,,0,,,79,100
38189,note_on,,6,0,1,,,,,,,,,0,,,45,0
38200,note_on,,11,0,1,,,,,,,,,0,,,78,127
38215,note_on,,15,0,1,,,,,,,,,0,,,79,0
38279,note_on,,64,0,1,,,,,,,,,0,,,52,105
38279,note_on,,0,0,1,,,,,,,,,0,,,61,98
38282,note_on,,3,0,1,,,,,,,,,0,,,57,100
38285,note_on,,3,0,1,,,,,,,,,0,,,76,115
38302,note_on,,17,0,1,,,,,,,,,0,,,52,0
38305,note_on,,3,0,1,,,,,,,,,0,,,57,0
38305,note_on,,0,0,1,,,,,,,,,0,,,61,0
38314,note_on,,9,0,1,,,,,,,,,0,,,78,0
38322,control_change,,8,0,1,,,,,,,,,0,64,0,,
38344,note_on,,22,0,1,,,,,,,,,0,,,74,125
38352,note_on,,8,0,1,,,,,,,,,0,,,76,0
38399,note_on,,47,0,1,,,,,,,,,0,,,61,105
38399,note_on,,0,0,1,,,,,,,,,0,,,52,107
38399,note_on,,0,0,1,,,,,,,,,0,,,73,124
38403,note_on,,4,0,1,,,,,,,,,0,,,57,103
38414,note_on,,11,0,1,,,,,,,,,0,,,74,0
38417,note_on,,3,0,1,,,,,,,,,0,,,61,0
38432,note_on,,15,0,1,,,,,,,,,0,,,57,0
38445,note_on,,13,0,1,,,,,,,,,0,,,52,0
38459,note_on,,14,0,1,,,,,,,,,0,,,71,108
38463,note_on,,4,0,1,,,,,,,,,0,,,73,0
38517,note_on,,54,0,1,,,,,,,,,0,,,38,94
38518,note_on,,1,0,1,,,,,,,,,0,,,69,120
38520,note_on,,2,0,1,,,,,,,,,0,,,71,0
38524,control_change,,4,0,1,,,,,,,,,0,64,127,,
38546,note_on,,22,0,1,,,,,,,,,0,,,38,0
38581,note_on,,35,0,1,,,,,,,,,0,,,74,122
38597,note_on,,16,0,1,,,,,,,,,0,,,69,0
38616,note_on,,19,0,1,,,,,,,,,0,,,74,0
38636,note_on,,0,0,1,,,,,,,,,0,,,50,98
38636,note_on,,20,0,1,,,,,,,,,0,,,62,96
38638,note_on,,0,0,1,,,,,,,,,0,,,74,118
38638,note_on,,2,0,1,,,,,,,,,0,,,57,103
38647,note_on,,9,0,1,,,,,,,,,0,,,57,0
38647,note_on,,0,0,1,,,,,,,,,0,,,62,0
38648,note_on,,1,0,1,,,,,,,,,0,,,50,0
38651,note_on,,3,0,1,,,,,,,,,0,,,74,0
38669,note_on,,18,0,1,,,,,,,,,0,,,76,109
38689,note_on,,20,0,1,,,,,,,,,0,,,74,121
38691,control_change,,2,0,1,,,,,,,,,0,64,0,,
38705,note_on,,14,0,1,,,,,,,,,0,,,76,0
38751,note_on,,46,0,1,,,,,,,,,0,,,73,127
38757,note_on,,6,0,1,,,,,,,,,0,,,57,106
38757,note_on,,0,0,1,,,,,,,,,0,,,50,102
38757,note_on,,0,0,1,,,,,,,,,0,,,62,96
38760,note_on,,3,0,1,,,,,,,,,0,,,74,0
38769,note_on,,9,0,1,,,,,,,,,0,,,62,0
38787,note_on,,18,0,1,,,,,,,,,0,,,57,0
38791,note_on,,4,0,1,,,,,,,,,0,,,50,0
38801,note_on,,10,0,1,,,,,,,,,0,,,73,0
38807,note_on,,6,0,1,,,,,,,,,0,,,71,105
38872,note_on,,65,0,1,,,,,,,,,0,,,73,112
38879,note_on,,7,0,1,,,,,,,,,0,,,45,105
38883,note_on,,4,0,1,,,,,,,,,0,,,71,0
38910,control_change,,27,0,1,,,,,,,,,0,64,127,,
38915,note_on,,5,0,1,,,,,,,,,0,,,45,0
38985,note_on,,70,0,1,,,,,,,,,0,,,57,92
38992,note_on,,7,0,1,,,,,,,,,0,,,69,99
39017,note_on,,25,0,1,,,,,,,,,0,,,57,0
39018,note_on,,1,0,1,,,,,,,,,0,,,69,0
39114,note_on,,96,0,1,,,,,,,,,0,,,69,100
39114,note_on,,0,0,1,,,,,,,,,0,,,64,101
39117,note_on,,3,0,1,,,,,,,,,0,,,57,101
39117,note_on,,0,0,1,,,,,,,,,0,,,67,87
39131,note_on,,14,0,1,,,,,,,,,0,,,67,0
39137,note_on,,6,0,1,,,,,,,,,0,,,64,0
39148,note_on,,11,0,1,,,,,,,,,0,,,57,0
39149,note_on,,1,0,1,,,,,,,,,0,,,69,0
39168,note_on,,19,0,1,,,,,,,,,0,,,73,0
39258,note_on,,90,0,1,,,,,,,,,0,,,50,114
39259,control_change,,1,0,1,,,,,,,,,0,64,0,,
39262,note_on,,3,0,1,,,,,,,,,0,,,69,93
39282,control_change,,20,0,1,,,,,,,,,0,64,127,,
39320,note_on,,38,0,1,,,,,,,,,0,,,73,101
39320,note_on,,0,0,1,,,,,,,,,0,,,69,0
39363,note_on,,43,0,1,,,,,,,,,0,,,73,0
39367,note_on,,0,0,1,,,,,,,,,0,,,62,100
39367,note_on,,4,0,1,,,,,,,,,0,,,57,103
39370,note_on,,3,0,1,,,,,,,,,0,,,74,123
39370,note_on,,0,0,1,,,,,,,,,0,,,50,0
39378,note_on,,8,0,1,,,,,,,,,0,,,57,0
39381,note_on,,3,0,1,,,,,,,,,0,,,62,0
39395,control_change,,14,0,1,,,,,,,,,0,64,0,,
39423,note_on,,28,0,1,,,,,,,,,0,,,76,119
39434,note_on,,11,0,1,,,,,,,,,0,,,74,0
39479,note_on,,45,0,1,,,,,,,,,0,,,50,105
39483,note_on,,4,0,1,,,,,,,,,0,,,62,99
39483,note_on,,0,0,1,,,,,,,,,0,,,57,108
39488,note_on,,5,0,1,,,,,,,,,0,,,78,117
39493,note_on,,5,0,1,,,,,,,,,0,,,62,0
39495,note_on,,2,0,1,,,,,,,,,0,,,57,0
39498,note_on,,3,0,1,,,,,,,,,0,,,76,0
39505,note_on,,7,0,1,,,,,,,,,0,,,50,0
39532,note_on,,27,0,1,,,,,,,,,0,,,78,0
39543,note_on,,11,0,1,,,,,,,,,0,,,79,102
39583,note_on,,40,0,1,,,,,,,,,0,,,79,0
39588,note_on,,5,0,1,,,,,,,,,0,,,78,99
39597,note_on,,9,0,1,,,,,,,,,0,,,43,98
39607,note_on,,10,0,1,,,,,,,,,0,,,78,0
39612,control_change,,5,0,1,,,,,,,,,0,64,127,,
39614,note_on,,2,0,1,,,,,,,,,0,,,79,95
39632,note_on,,18,0,1,,,,,,,,,0,,,43,0
39633,note_on,,1,0,1,,,,,,,,,0,,,78,117
39649,note_on,,16,0,1,,,,,,,,,0,,,79,0
39719,note_on,,70,0,1,,,,,,,,,0,,,59,98
39721,note_on,,2,0,1,,,,,,,,,0,,,64,96
39721,note_on,,0,0,1,,,,,,,,,0,,,76,111
39748,note_on,,27,0,1,,,,,,,,,0,,,64,0
39754,note_on,,0,0,1,,,,,,,,,0,,,78,0
39754,control_change,,6,0,1,,,,,,,,,0,64,0,,
39757,note_on,,3,0,1,,,,,,,,,0,,,59,0
39781,note_on,,24,0,1,,,,,,,,,0,,,76,0
39783,note_on,,2,0,1,,,,,,,,,0,,,74,112
39832,note_on,,49,0,1,,,,,,,,,0,,,73,124
39832,note_on,,0,0,1,,,,,,,,,0,,,55,94
39832,note_on,,0,0,1,,,,,,,,,0,,,64,100
39832,note_on,,0,0,1,,,,,,,,,0,,,59,95
39839,note_on,,7,0,1,,,,,,,,,0,,,74,0
39845,note_on,,6,0,1,,,,,,,,,0,,,64,0
39862,note_on,,17,0,1,,,,,,,,,0,,,59,0
39877,note_on,,15,0,1,,,,,,,,,0,,,55,0
39893,note_on,,16,0,1,,,,,,,,,0,,,71,108
39895,note_on,,2,0,1,,,,,,,,,0,,,73,0
39946,note_on,,51,0,1,,,,,,,,,0,,,45,92
39957,note_on,,11,0,1,,,,,,,,,0,,,69,115
39957,note_on,,0,0,1,,,,,,,,,0,,,71,0
39959,control_change,,2,0,1,,,,,,,,,0,64,127,,
39982,note_on,,23,0,1,,,,,,,,,0,,,45,0
40014,note_on,,32,0,1,,,,,,,,,0,,,73,119
40031,note_on,,17,0,1,,,,,,,,,0,,,69,0
40041,note_on,,10,0,1,,,,,,,,,0,,,73,0
40069,note_on,,28,0,1,,,,,,,,,0,,,64,101
40071,note_on,,2,0,1,,,,,,,,,0,,,57,87
40073,note_on,,2,0,1,,,,,,,,,0,,,73,110
40078,note_on,,5,0,1,,,,,,,,,0,,,64,0
40080,note_on,,2,0,1,,,,,,,,,0,,,57,0
40086,note_on,,6,0,1,,,,,,,,,0,,,73,0
40105,note_on,,19,0,1,,,,,,,,,0,,,74,99
40112,control_change,,7,0,1,,,,,,,,,0,64,0,,
40127,note_on,,15,0,1,,,,,,,,,0,,,73,114
40137,note_on,,10,0,1,,,,,,,,,0,,,74,0
40187,note_on,,50,0,1,,,,,,,,,0,,,71,104
40190,note_on,,3,0,1,,,,,,,,,0,,,57,103
40191,note_on,,1,0,1,,,,,,,,,0,,,64,105
40196,note_on,,5,0,1,,,,,,,,,0,,,73,0
40200,note_on,,4,0,1,,,,,,,,,0,,,64,0
40214,note_on,,14,0,1,,,,,,,,,0,,,57,0
40246,note_on,,32,0,1,,,,,,,,,0,,,71,0
40248,note_on,,2,0,1,,,,,,,,,0,,,69,114
40305,note_on,,57,0,1,,,,,,,,,0,,,38,98
40309,note_on,,4,0,1,,,,,,,,,0,,,74,99
40309,note_on,,0,0,1,,,,,,,,,0,,,69,0
40325,control_change,,16,0,1,,,,,,,,,0,64,127,,
40334,note_on,,9,0,1,,,,,,,,,0,,,38,0
40429,note_on,,95,0,1,,,,,,,,,0,,,62,82
40430,note_on,,1,0,1,,,,,,,,,0,,,57,87
40433,note_on,,3,0,1,,,,,,,,,0,,,66,88
40440,note_on,,7,0,1,,,,,,,,,0,,,57,0
40446,note_on,,6,0,1,,,,,,,,,0,,,62,0
40466,note_on,,20,0,1,,,,,,,,,0,,,66,0
40552,note_on,,86,0,1,,,,,,,,,0,,,54,80
40554,note_on,,2,0,1,,,,,,,,,0,,,66,94
40554,note_on,,0,0,1,,,,,,,,,0,,,50,74
40554,note_on,,0,0,1,,,,,,,,,0,,,62,69
40560,note_on,,6,0,1,,,,,,,,,0,,,57,78
40566,note_on,,6,0,1,,,,,,,,,0,,,50,0
40566,note_on,,0,0,1,,,,,,,,,0,,,54,0
40567,note_on,,1,0,1,,,,,,,,,0,,,62,0
40567,note_on,,0,0,1,,,,,,,,,0,,,57,0
40571,note_on,,4,0,1,,,,,,,,,0,,,66,0
40577,note_on,,6,0,1,,,,,,,,,0,,,74,0
40677,control_change,,0,0,1,,,,,,,,,0,64,0,,
40677,note_on,,100,0,1,,,,,,,,,0,,,50,107
40684,note_on,,7,0,1,,,,,,,,,0,,,69,107
40691,control_change,,7,0,1,,,,,,,,,0,64,127,,
40748,note_on,,57,0,1,,,,,,,,,0,,,73,108
40755,note_on,,7,0,1,,,,,,,,,0,,,69,0
40784,note_on,,29,0,1,,,,,,,,,0,,,73,0
40790,note_on,,6,0,1,,,,,,,,,0,,,62,91
40792,note_on,,2,0,1,,,,,,,,,0,,,54,89
40792,note_on,,0,0,1,,,,,,,,,0,,,57,96
40799,note_on,,0,0,1,,,,,,,,,0,,,50,0
40799,note_on,,7,0,1,,,,,,,,,0,,,74,109
40804,note_on,,5,0,1,,,,,,,,,0,,,54,0
40807,note_on,,3,0,1,,,,,,,,,0,,,57,0
40809,note_on,,2,0,1,,,,,,,,,0,,,62,0
40826,control_change,,17,0,1,,,,,,,,,0,64,0,,
40863,note_on,,37,0,1,,,,,,,,,0,,,76,111
40881,note_on,,18,0,1,,,,,,,,,0,,,74,0
40913,note_on,,32,0,1,,,,,,,,,0,,,54,94
40914,note_on,,1,0,1,,,,,,,,,0,,,50,90
40915,note_on,,1,0,1,,,,,,,,,0,,,62,77
40917,note_on,,2,0,1,,,,,,,,,0,,,57,96
40919,note_on,,2,0,1,,,,,,,,,0,,,78,110
40926,note_on,,7,0,1,,,,,,,,,0,,,62,0
40927,note_on,,1,0,1,,,,,,,,,0,,,57,0
40933,note_on,,6,0,1,,,,,,,,,0,,,76,0
40938,note_on,,5,0,1,,,,,,,,,0,,,54,0
40938,note_on,,0,0,1,,,,,,,,,0,,,50,0
40973,note_on,,35,0,1,,,,,,,,,0,,,78,0
40976,note_on,,3,0,1,,,,,,,,,0,,,79,102
41029,note_on,,53,0,1,,,,,,,,,0,,,79,0
41033,note_on,,4,0,1,,,,,,,,,0,,,78,98
41036,note_on,,3,0,1,,,,,,,,,0,,,45,99
41043,control_change,,7,0,1,,,,,,,,,0,64,127,,
41052,note_on,,9,0,1,,,,,,,,,0,,,78,0
41059,note_on,,7,0,1,,,,,,,,,0,,,79,90
41064,note_on,,5,0,1,,,,,,,,,0,,,45,0
41078,note_on,,14,0,1,,,,,,,,,0,,,78,119
41088,note_on,,10,0,1,,,,,,,,,0,,,79,0
41160,note_on,,72,0,1,,,,,,,,,0,,,76,107
41162,note_on,,0,0,1,,,,,,,,,0,,,57,87
41162,note_on,,2,0,1,,,,,,,,,0,,,61,76
41166,note_on,,4,0,1,,,,,,,,,0,,,52,85
41175,note_on,,9,0,1,,,,,,,,,0,,,57,0
41176,note_on,,1,0,1,,,,,,,,,0,,,52,0
41178,note_on,,2,0,1,,,,,,,,,0,,,61,0
41180,control_change,,2,0,1,,,,,,,,,0,64,0,,
41185,note_on,,5,0,1,,,,,,,,,0,,,78,0
41220,note_on,,0,0,1,,,,,,,,,0,,,76,0
41220,note_on,,35,0,1,,,,,,,,,0,,,74,114
41269,note_on,,49,0,1,,,,,,,,,0,,,61,95
41272,note_on,,0,0,1,,,,,,,,,0,,,73,120
41272,note_on,,3,0,1,,,,,,,,,0,,,52,84
41275,note_on,,3,0,1,,,,,,,,,0,,,57,94
41281,note_on,,6,0,1,,,,,,,,,0,,,74,0
41290,note_on,,9,0,1,,,,,,,,,0,,,57,0
41292,note_on,,2,0,1,,,,,,,,,0,,,61,0
41310,note_on,,18,0,1,,,,,,,,,0,,,52,0
41334,note_on,,24,0,1,,,,,,,,,0,,,71,101
41339,note_on,,5,0,1,,,,,,,,,0,,,73,0
41389,note_on,,50,0,1,,,,,,,,,0,,,38,99
41393,note_on,,4,0,1,,,,,,,,,0,,,71,0
41397,note_on,,4,0,1,,,,,,,,,0,,,69,107
41407,control_change,,10,0,1,,,,,,,,,0,64,127,,
41421,note_on,,14,0,1,,,,,,,,,0,,,38,0
41458,note_on,,37,0,1,,,,,,,,,0,,,74,93
41464,note_on,,6,0,1,,,,,,,,,0,,,69,0
41486,note_on,,22,0,1,,,,,,,,,0,,,74,0
41512,note_on,,26,0,1,,,,,,,,,0,,,57,87
41514,note_on,,2,0,1,,,,,,,,,0,,,74,104
41522,note_on,,8,0,1,,,,,,,,,0,,,57,0
41526,note_on,,4,0,1,,,,,,,,,0,,,74,0
41543,note_on,,17,0,1,,,,,,,,,0,,,76,104
41546,control_change,,3,0,1,,,,,,,,,0,64,0,,
41563,note_on,,17,0,1,,,,,,,,,0,,,74,119
41577,note_on,,14,0,1,,,,,,,,,0,,,76,0
41633,note_on,,56,0,1,,,,,,,,,0,,,73,115
41640,note_on,,7,0,1,,,,,,,,,0,,,50,98
41640,note_on,,0,0,1,,,,,,,,,0,,,57,104
41644,note_on,,4,0,1,,,,,,,,,0,,,62,72
41644,note_on,,0,0,1,,,,,,,,,0,,,74,0
41658,note_on,,14,0,1,,,,,,,,,0,,,62,0
41668,note_on,,10,0,1,,,,,,,,,0,,,57,0
41676,note_on,,8,0,1,,,,,,,,,0,,,50,0
41682,note_on,,6,0,1,,,,,,,,,0,,,73,0
41687,note_on,,5,0,1,,,,,,,,,0,,,71,99
41758,note_on,,71,0,1,,,,,,,,,0,,,73,106
41759,note_on,,1,0,1,,,,,,,,,0,,,45,108
41767,note_on,,8,0,1,,,,,,,,,0,,,71,0
41783,control_change,,16,0,1,,,,,,,,,0,64,127,,
41791,note_on,,8,0,1,,,,,,,,,0,,,45,0
41872,note_on,,81,0,1,,,,,,,,,0,,,69,96
41877,note_on,,5,0,1,,,,,,,,,0,,,61,94
41879,note_on,,2,0,1,,,,,,,,,0,,,57,91
41887,note_on,,8,0,1,,,,,,,,,0,,,61,0
41891,note_on,,4,0,1,,,,,,,,,0,,,57,0
41891,note_on,,0,0,1,,,,,,,,,0,,,69,0
42001,note_on,,110,0,1,,,,,,,,,0,,,57,93
42001,note_on,,0,0,1,,,,,,,,,0,,,64,99
42002,note_on,,1,0,1,,,,,,,,,0,,,69,89
42003,note_on,,1,0,1,,,,,,,,,0,,,61,80
42005,note_on,,2,0,1,,,,,,,,,0,,,67,83
42019,note_on,,14,0,1,,,,,,,,,0,,,64,0
42023,note_on,,4,0,1,,,,,,,,,0,,,57,0
42026,note_on,,3,0,1,,,,,,,,,0,,,61,0
42033,note_on,,7,0,1,,,,,,,,,0,,,67,0
42044,note_on,,11,0,1,,,,,,,,,0,,,69,0
42052,note_on,,8,0,1,,,,,,,,,0,,,73,0
42117,control_change,,65,0,1,,,,,,,,,0,64,0,,
42133,note_on,,16,0,1,,,,,,,,,0,,,69,105
42135,note_on,,2,0,1,,,,,,,,,0,,,50,120
42161,control_change,,26,0,1,,,,,,,,,0,64,127,,
42197,note_on,,36,0,1,,,,,,,,,0,,,73,115
42204,note_on,,7,0,1,,,,,,,,,0,,,69,0
42238,note_on,,34,0,1,,,,,,,,,0,,,73,0
42241,note_on,,3,0,1,,,,,,,,,0,,,57,105
42241,note_on,,0,0,1,,,,,,,,,0,,,62,91
42245,note_on,,4,0,1,,,,,,,,,0,,,50,0
42250,note_on,,0,0,1,,,,,,,,,0,,,57,0
42250,note_on,,5,0,1,,,,,,,,,0,,,74,114
42254,note_on,,4,0,1,,,,,,,,,0,,,62,0
42267,control_change,,13,0,1,,,,,,,,,0,64,0,,
42308,note_on,,41,0,1,,,,,,,,,0,,,76,112
42317,note_on,,9,0,1,,,,,,,,,0,,,74,0
42357,note_on,,40,0,1,,,,,,,,,0,,,50,111
42357,note_on,,0,0,1,,,,,,,,,0,,,62,107
42360,note_on,,3,0,1,,,,,,,,,0,,,78,117
42363,note_on,,3,0,1,,,,,,,,,0,,,57,111
42368,note_on,,5,0,1,,,,,,,,,0,,,62,0
42369,note_on,,1,0,1,,,,,,,,,0,,,76,0
42371,note_on,,2,0,1,,,,,,,,,0,,,57,0
42385,note_on,,14,0,1,,,,,,,,,0,,,50,0
42414,note_on,,29,0,1,,,,,,,,,0,,,78,0
42418,note_on,,4,0,1,,,,,,,,,0,,,79,108
42462,note_on,,44,0,1,,,,,,,,,0,,,79,0
42465,note_on,,3,0,1,,,,,,,,,0,,,78,98
42474,note_on,,9,0,1,,,,,,,,,0,,,43,102
42485,note_on,,11,0,1,,,,,,,,,0,,,78,0
42488,control_change,,3,0,1,,,,,,,,,0,64,127,,
42491,note_on,,3,0,1,,,,,,,,,0,,,79,92
42501,note_on,,10,0,1,,,,,,,,,0,,,43,0
42512,note_on,,11,0,1,,,,,,,,,0,,,78,119
42524,note_on,,12,0,1,,,,,,,,,0,,,79,0
42600,note_on,,0,0,1,,,,,,,,,0,,,64,91
42600,note_on,,76,0,1,,,,,,,,,0,,,59,100
42602,note_on,,2,0,1,,,,,,,,,0,,,76,112
42627,note_on,,25,0,1,,,,,,,,,0,,,78,0
42629,note_on,,2,0,1,,,,,,,,,0,,,64,0
42637,control_change,,8,0,1,,,,,,,,,0,64,0,,
42641,note_on,,4,0,1,,,,,,,,,0,,,59,0
42657,note_on,,16,0,1,,,,,,,,,0,,,74,116
42664,note_on,,7,0,1,,,,,,,,,0,,,76,0
42714,note_on,,50,0,1,,,,,,,,,0,,,59,97
42714,note_on,,0,0,1,,,,,,,,,0,,,55,103
42714,note_on,,0,0,1,,,,,,,,,0,,,73,122
42723,note_on,,9,0,1,,,,,,,,,0,,,74,0
42738,note_on,,15,0,1,,,,,,,,,0,,,59,0
42757,note_on,,19,0,1,,,,,,,,,0,,,55,0
42782,note_on,,25,0,1,,,,,,,,,0,,,71,109
42793,note_on,,11,0,1,,,,,,,,,0,,,73,0
42833,note_on,,40,0,1,,,,,,,,,0,,,45,111
42839,note_on,,6,0,1,,,,,,,,,0,,,69,116
42846,note_on,,7,0,1,,,,,,,,,0,,,71,0
42847,control_change,,1,0,1,,,,,,,,,0,64,127,,
42860,note_on,,13,0,1,,,,,,,,,0,,,45,0
42898,note_on,,38,0,1,,,,,,,,,0,,,73,114
42916,note_on,,18,0,1,,,,,,,,,0,,,69,0
42925,note_on,,9,0,1,,,,,,,,,0,,,73,0
42952,note_on,,27,0,1,,,,,,,,,0,,,57,104
42952,note_on,,0,0,1,,,,,,,,,0,,,73,114
42958,note_on,,6,0,1,,,,,,,,,0,,,64,75
42962,note_on,,4,0,1,,,,,,,,,0,,,57,0
42968,note_on,,6,0,1,,,,,,,,,0,,,64,0
42975,note_on,,7,0,1,,,,,,,,,0,,,73,0
42983,note_on,,8,0,1,,,,,,,,,0,,,74,108
42989,control_change,,6,0,1,,,,,,,,,0,64,0,,
43000,note_on,,11,0,1,,,,,,,,,0,,,73,119
43021,note_on,,21,0,1,,,,,,,,,0,,,74,0
43073,note_on,,52,0,1,,,,,,,,,0,,,57,107
43075,note_on,,2,0,1,,,,,,,,,0,,,71,112
43085,note_on,,10,0,1,,,,,,,,,0,,,73,0
43095,note_on,,10,0,1,,,,,,,,,0,,,57,0
43128,note_on,,33,0,1,,,,,,,,,0,,,71,0
43131,note_on,,3,0,1,,,,,,,,,0,,,69,112
43186,note_on,,55,0,1,,,,,,,,,0,,,38,99
43191,note_on,,5,0,1,,,,,,,,,0,,,74,111
43191,note_on,,0,0,1,,,,,,,,,0,,,69,0
43204,control_change,,13,0,1,,,,,,,,,0,64,127,,
43213,note_on,,9,0,1,,,,,,,,,0,,,38,0
43304,note_on,,91,0,1,,,,,,,,,0,,,57,95
43305,note_on,,1,0,1,,,,,,,,,0,,,62,87
43308,note_on,,3,0,1,,,,,,,,,0,,,50,92
43315,note_on,,0,0,1,,,,,,,,,0,,,57,0
43315,note_on,,7,0,1,,,,,,,,,0,,,66,102
43318,note_on,,3,0,1,,,,,,,,,0,,,50,0
43318,note_on,,0,0,1,,,,,,,,,0,,,62,0
43344,note_on,,26,0,1,,,,,,,,,0,,,66,0
43431,note_on,,87,0,1,,,,,,,,,0,,,66,98
43433,note_on,,2,0,1,,,,,,,,,0,,,57,93
43445,note_on,,12,0,1,,,,,,,,,0,,,57,0
43446,note_on,,1,0,1,,,,,,,,,0,,,66,0
43447,note_on,,1,0,1,,,,,,,,,0,,,74,0
43557,control_change,,110,0,1,,,,,,,,,0,64,0,,
43560,note_on,,3,0,1,,,,,,,,,0,,,66,112
43562,note_on,,0,0,1,,,,,,,,,0,,,74,110
43562,note_on,,2,0,1,,,,,,,,,0,,,50,100
43564,note_on,,2,0,1,,,,,,,,,0,,,57,101
43579,control_change,,15,0,1,,,,,,,,,0,64,127,,
43617,note_on,,38,0,1,,,,,,,,,0,,,66,0
43625,note_on,,8,0,1,,,,,,,,,0,,,69,110
43646,note_on,,21,0,1,,,,,,,,,0,,,69,0
43680,note_on,,34,0,1,,,,,,,,,0,,,60,108
43687,note_on,,7,0,1,,,,,,,,,0,,,69,106
43687,note_on,,0,0,1,,,,,,,,,0,,,57,0
43689,note_on,,2,0,1,,,,,,,,,0,,,60,0
43693,note_on,,4,0,1,,,,,,,,,0,,,50,0
43693,note_on,,0,0,1,,,,,,,,,0,,,74,0
43704,note_on,,11,0,1,,,,,,,,,0,,,69,0
43742,note_on,,38,0,1,,,,,,,,,0,,,71,97
43758,note_on,,16,0,1,,,,,,,,,0,,,69,119
43768,note_on,,10,0,1,,,,,,,,,0,,,71,0
43809,note_on,,41,0,1,,,,,,,,,0,,,59,101
43812,note_on,,0,0,1,,,,,,,,,0,,,69,0
43812,note_on,,0,0,1,,,,,,,,,0,,,50,88
43812,note_on,,3,0,1,,,,,,,,,0,,,68,115
43818,note_on,,6,0,1,,,,,,,,,0,,,59,0
43822,note_on,,4,0,1,,,,,,,,,0,,,50,0
43868,note_on,,46,0,1,,,,,,,,,0,,,68,0
43875,note_on,,7,0,1,,,,,,,,,0,,,65,119
43884,note_on,,9,0,1,,,,,,,,,0,,,65,0
43931,note_on,,47,0,1,,,,,,,,,0,,,64,111
43936,note_on,,5,0,1,,,,,,,,,0,,,50,110
43962,control_change,,26,0,1,,,,,,,,,0,64,0,,
43986,control_change,,24,0,1,,,,,,,,,0,64,127,,
43992,note_on,,6,0,1,,,,,,,,,0,,,67,116
43992,note_on,,0,0,1,,,,,,,,,0,,,64,0
44001,note_on,,9,0,1,,,,,,,,,0,,,67,0
44042,note_on,,41,0,1,,,,,,,,,0,,,58,107
44049,note_on,,7,0,1,,,,,,,,,0,,,67,119
44054,note_on,,5,0,1,,,,,,,,,0,,,55,89
44063,note_on,,0,0,1,,,,,,,,,0,,,50,0
44063,note_on,,9,0,1,,,,,,,,,0,,,55,0
44064,note_on,,1,0,1,,,,,,,,,0,,,58,0
44073,note_on,,9,0,1,,,,,,,,,0,,,67,0
44078,control_change,,5,0,1,,,,,,,,,0,64,0,,
44099,note_on,,21,0,1,,,,,,,,,0,,,69,106
44122,note_on,,23,0,1,,,,,,,,,0,,,67,104
44123,note_on,,1,0,1,,,,,,,,,0,,,69,0
44155,note_on,,32,0,1,,,,,,,,,0,,,66,111
44155,note_on,,0,0,1,,,,,,,,,0,,,67,0
44158,note_on,,3,0,1,,,,,,,,,0,,,57,96
44159,note_on,,1,0,1,,,,,,,,,0,,,50,97
44179,note_on,,20,0,1,,,,,,,,,0,,,57,0
44181,note_on,,2,0,1,,,,,,,,,0,,,50,0
44199,control_change,,18,0,1,,,,,,,,,0,64,127,,
44219,note_on,,20,0,1,,,,,,,,,0,,,66,0
44224,note_on,,5,0,1,,,,,,,,,0,,,62,103
44232,note_on,,8,0,1,,,,,,,,,0,,,62,0
44280,set_tempo,,18006,1,0,,,,,,317460,,,,,,,
44283,note_on,,51,0,1,,,,,,,,,0,,,66,121
44287,note_on,,0,0,1,,,,,,,,,0,,,50,104
44287,note_on,,4,0,1,,,,,,,,,0,,,57,100
44332,control_change,,45,0,1,,,,,,,,,0,64,0,,
44341,note_on,,9,0,1,,,,,,,,,0,,,50,0
44342,control_change,,1,0,1,,,,,,,,,0,64,127,,
44350,note_on,,8,0,1,,,,,,,,,0,,,69,114
44353,note_on,,3,0,1,,,,,,,,,0,,,57,0
44361,note_on,,8,0,1,,,,,,,,,0,,,66,0
44369,note_on,,8,0,1,,,,,,,,,0,,,69,0
44406,note_on,,0,0,1,,,,,,,,,0,,,60,106
44406,note_on,,37,0,1,,,,,,,,,0,,,69,119
44406,note_on,,0,0,1,,,,,,,,,0,,,50,107
44417,note_on,,11,0,1,,,,,,,,,0,,,60,0
44424,note_on,,7,0,1,,,,,,,,,0,,,50,0
44434,note_on,,10,0,1,,,,,,,,,0,,,69,0
44461,note_on,,27,0,1,,,,,,,,,0,,,71,96
44478,note_on,,17,0,1,,,,,,,,,0,,,69,111
44485,note_on,,7,0,1,,,,,,,,,0,,,71,0
44503,note_on,,18,0,1,,,,,,,,,0,,,69,0
44525,note_on,,22,0,1,,,,,,,,,0,,,68,107
44530,note_on,,5,0,1,,,,,,,,,0,,,50,88
44531,note_on,,1,0,1,,,,,,,,,0,,,59,90
44542,control_change,,11,0,1,,,,,,,,,0,64,0,,
44542,note_on,,0,0,1,,,,,,,,,0,,,59,0
44544,note_on,,2,0,1,,,,,,,,,0,,,50,0
44586,note_on,,42,0,1,,,,,,,,,0,,,68,0
44590,note_on,,4,0,1,,,,,,,,,0,,,65,111
44603,note_on,,13,0,1,,,,,,,,,0,,,65,0
44642,set_tempo,,362,1,0,,,,,,307692,,,,,,,
44652,note_on,,0,0,1,,,,,,,,,0,,,74,103
44652,note_on,,49,0,1,,,,,,,,,0,,,64,103
44654,note_on,,2,0,1,,,,,,,,,0,,,55,91
44658,note_on,,4,0,1,,,,,,,,,0,,,50,83
44661,control_change,,3,0,1,,,,,,,,,0,64,127,,
44712,note_on,,51,0,1,,,,,,,,,0,,,67,105
44713,note_on,,1,0,1,,,,,,,,,0,,,74,0
44716,note_on,,3,0,1,,,,,,,,,0,,,64,0
44721,note_on,,5,0,1,,,,,,,,,0,,,67,0
44769,note_on,,0,0,1,,,,,,,,,0,,,58,96
44769,note_on,,48,0,1,,,,,,,,,0,,,67,113
44785,note_on,,16,0,1,,,,,,,,,0,,,55,0
44794,note_on,,9,0,1,,,,,,,,,0,,,58,0
44795,control_change,,1,0,1,,,,,,,,,0,64,0,,
44800,note_on,,5,0,1,,,,,,,,,0,,,67,0
44826,note_on,,26,0,1,,,,,,,,,0,,,69,105
44849,note_on,,23,0,1,,,,,,,,,0,,,67,101
44855,note_on,,6,0,1,,,,,,,,,0,,,69,0
44885,note_on,,30,0,1,,,,,,,,,0,,,66,119
44887,note_on,,2,0,1,,,,,,,,,0,,,57,102
44887,note_on,,0,0,1,,,,,,,,,0,,,67,0
44887,note_on,,0,0,1,,,,,,,,,0,,,50,0
44896,note_on,,9,0,1,,,,,,,,,0,,,57,0
44937,note_on,,41,0,1,,,,,,,,,0,,,66,0
44945,note_on,,8,0,1,,,,,,,,,0,,,62,106
44961,note_on,,16,0,1,,,,,,,,,0,,,62,0
45002,note_on,,41,0,1,,,,,,,,,0,,,54,98
45008,note_on,,6,0,1,,,,,,,,,0,,,50,92
45010,note_on,,2,0,1,,,,,,,,,0,,,62,100
45011,note_on,,1,0,1,,,,,,,,,0,,,69,106
45028,note_on,,17,0,1,,,,,,,,,0,,,62,0
45045,control_change,,17,0,1,,,,,,,,,0,64,127,,
45066,note_on,,21,0,1,,,,,,,,,0,,,66,111
45083,note_on,,17,0,1,,,,,,,,,0,,,66,0
45127,note_on,,44,0,1,,,,,,,,,0,,,57,93
45128,note_on,,1,0,1,,,,,,,,,0,,,66,114
45133,note_on,,5,0,1,,,,,,,,,0,,,62,99
45136,note_on,,3,0,1,,,,,,,,,0,,,54,0
45138,note_on,,2,0,1,,,,,,,,,0,,,57,0
45139,note_on,,1,0,1,,,,,,,,,0,,,50,0
45153,note_on,,14,0,1,,,,,,,,,0,,,69,0
45156,note_on,,3,0,1,,,,,,,,,0,,,66,0
45157,note_on,,1,0,1,,,,,,,,,0,,,62,0
45170,control_change,,13,0,1,,,,,,,,,0,64,0,,
45184,note_on,,14,0,1,,,,,,,,,0,,,67,104
45211,note_on,,27,0,1,,,,,,,,,0,,,66,105
45211,note_on,,0,0,1,,,,,,,,,0,,,67,0
45246,note_on,,35,0,1,,,,,,,,,0,,,56,104
45247,note_on,,1,0,1,,,,,,,,,0,,,64,106
45248,note_on,,0,0,1,,,,,,,,,0,,,66,0
45248,note_on,,1,0,1,,,,,,,,,0,,,50,98
45261,note_on,,13,0,1,,,,,,,,,0,,,50,0
45265,note_on,,4,0,1,,,,,,,,,0,,,56,0
45267,control_change,,2,0,1,,,,,,,,,0,64,127,,
45297,note_on,,30,0,1,,,,,,,,,0,,,64,0
45306,note_on,,9,0,1,,,,,,,,,0,,,59,106
45317,note_on,,11,0,1,,,,,,,,,0,,,59,0
45358,set_tempo,,716,1,0,,,,,,301507,,,,,,,
45367,note_on,,50,0,1,,,,,,,,,0,,,52,97
45370,note_on,,3,0,1,,,,,,,,,0,,,50,81
45374,note_on,,4,0,1,,,,,,,,,0,,,69,95
45375,note_on,,1,0,1,,,,,,,,,0,,,61,94
45381,control_change,,6,0,1,,,,,,,,,0,64,0,,
45409,control_change,,28,0,1,,,,,,,,,0,64,127,,
45425,note_on,,16,0,1,,,,,,,,,0,,,61,0
45435,note_on,,10,0,1,,,,,,,,,0,,,64,106
45444,note_on,,9,0,1,,,,,,,,,0,,,64,0
45490,note_on,,46,0,1,,,,,,,,,0,,,64,110
45490,note_on,,0,0,1,,,,,,,,,0,,,55,100
45502,note_on,,12,0,1,,,,,,,,,0,,,55,0
45504,note_on,,2,0,1,,,,,,,,,0,,,50,0
45507,note_on,,3,0,1,,,,,,,,,0,,,52,0
45511,note_on,,4,0,1,,,,,,,,,0,,,64,0
45518,control_change,,7,0,1,,,,,,,,,0,64,0,,
45541,note_on,,23,0,1,,,,,,,,,0,,,66,97
45553,note_on,,12,0,1,,,,,,,,,0,,,64,111
45555,note_on,,2,0,1,,,,,,,,,0,,,69,0
45562,note_on,,7,0,1,,,,,,,,,0,,,64,0
45564,note_on,,2,0,1,,,,,,,,,0,,,66,0
45603,note_on,,39,0,1,,,,,,,,,0,,,62,111
45604,note_on,,1,0,1,,,,,,,,,0,,,54,92
45608,note_on,,4,0,1,,,,,,,,,0,,,50,89
45608,control_change,,0,0,1,,,,,,,,,0,64,127,,
45616,note_on,,8,0,1,,,,,,,,,0,,,54,0
45618,note_on,,2,0,1,,,,,,,,,0,,,50,0
45640,note_on,,22,0,1,,,,,,,,,0,,,62,0
45664,note_on,,24,0,1,,,,,,,,,0,,,57,97
45676,note_on,,12,0,1,,,,,,,,,0,,,57,0
45718,set_tempo,,360,1,0,,,,,,294117,,,,,,,
45724,note_on,,48,0,1,,,,,,,,,0,,,62,109
45727,note_on,,3,0,1,,,,,,,,,0,,,54,94
45729,note_on,,2,0,1,,,,,,,,,0,,,69,104
45729,note_on,,0,0,1,,,,,,,,,0,,,50,103
45740,control_change,,11,0,1,,,,,,,,,0,64,0,,
45765,control_change,,25,0,1,,,,,,,,,0,64,127,,
45790,note_on,,25,0,1,,,,,,,,,0,,,66,108
45797,note_on,,7,0,1,,,,,,,,,0,,,62,0
45802,note_on,,5,0,1,,,,,,,,,0,,,66,0
45848,note_on,,46,0,1,,,,,,,,,0,,,66,126
45850,note_on,,2,0,1,,,,,,,,,0,,,57,101
45891,note_on,,41,0,1,,,,,,,,,0,,,66,0
45891,note_on,,0,0,1,,,,,,,,,0,,,54,0
45892,note_on,,1,0,1,,,,,,,,,0,,,57,0
45900,note_on,,8,0,1,,,,,,,,,0,,,50,0
45906,note_on,,6,0,1,,,,,,,,,0,,,67,109
45924,note_on,,18,0,1,,,,,,,,,0,,,69,0
45929,note_on,,5,0,1,,,,,,,,,0,,,66,108
45938,note_on,,9,0,1,,,,,,,,,0,,,67,0
45956,note_on,,18,0,1,,,,,,,,,0,,,64,111
45961,note_on,,5,0,1,,,,,,,,,0,,,56,103
45965,note_on,,4,0,1,,,,,,,,,0,,,66,0
45966,note_on,,1,0,1,,,,,,,,,0,,,64,0
45970,note_on,,4,0,1,,,,,,,,,0,,,50,87
45978,note_on,,8,0,1,,,,,,,,,0,,,56,0
45980,note_on,,2,0,1,,,,,,,,,0,,,50,0
45989,control_change,,9,0,1,,,,,,,,,0,64,0,,
46026,note_on,,37,0,1,,,,,,,,,0,,,59,87
46038,note_on,,12,0,1,,,,,,,,,0,,,59,0
46080,set_tempo,,362,1,0,,,,,,285714,,,,,,,
46084,note_on,,46,0,1,,,,,,,,,0,,,52,97
46088,note_on,,4,0,1,,,,,,,,,0,,,69,97
46088,note_on,,0,0,1,,,,,,,,,0,,,50,93
46089,note_on,,1,0,1,,,,,,,,,0,,,61,81
46113,control_change,,24,0,1,,,,,,,,,0,64,127,,
46134,note_on,,21,0,1,,,,,,,,,0,,,61,0
46147,note_on,,13,0,1,,,,,,,,,0,,,64,102
46158,note_on,,11,0,1,,,,,,,,,0,,,64,0
46208,note_on,,50,0,1,,,,,,,,,0,,,55,90
46208,note_on,,0,0,1,,,,,,,,,0,,,64,111
46232,note_on,,24,0,1,,,,,,,,,0,,,64,0
46241,note_on,,9,0,1,,,,,,,,,0,,,50,0
46249,note_on,,8,0,1,,,,,,,,,0,,,52,0
46250,note_on,,1,0,1,,,,,,,,,0,,,55,0
46267,note_on,,17,0,1,,,,,,,,,0,,,66,96
46280,note_on,,13,0,1,,,,,,,,,0,,,64,104
46289,note_on,,9,0,1,,,,,,,,,0,,,64,0
46290,note_on,,1,0,1,,,,,,,,,0,,,66,0
46295,note_on,,5,0,1,,,,,,,,,0,,,69,0
46326,note_on,,31,0,1,,,,,,,,,0,,,54,85
46334,control_change,,8,0,1,,,,,,,,,0,64,0,,
46335,note_on,,1,0,1,,,,,,,,,0,,,50,95
46335,note_on,,0,0,1,,,,,,,,,0,,,62,81
46346,note_on,,11,0,1,,,,,,,,,0,,,50,0
46348,note_on,,2,0,1,,,,,,,,,0,,,54,0
46350,note_on,,2,0,1,,,,,,,,,0,,,62,0
46352,control_change,,2,0,1,,,,,,,,,0,64,127,,
46389,note_on,,37,0,1,,,,,,,,,0,,,57,99
46399,note_on,,10,0,1,,,,,,,,,0,,,57,0
46442,set_tempo,,362,1,0,,,,,,298507,,,,,,,
46451,note_on,,52,0,1,,,,,,,,,0,,,62,111
46455,note_on,,4,0,1,,,,,,,,,0,,,54,86
46455,note_on,,0,0,1,,,,,,,,,0,,,50,87
46459,note_on,,4,0,1,,,,,,,,,0,,,38,88
46462,control_change,,3,0,1,,,,,,,,,0,64,0,,
46490,control_change,,28,0,1,,,,,,,,,0,64,127,,
46508,note_on,,18,0,1,,,,,,,,,0,,,57,104
46509,note_on,,1,0,1,,,,,,,,,0,,,54,0
46518,note_on,,9,0,1,,,,,,,,,0,,,57,0
46527,note_on,,9,0,1,,,,,,,,,0,,,50,0
46569,control_change,,42,0,1,,,,,,,,,0,64,0,,
46572,control_change,,3,0,1,,,,,,,,,0,64,127,,
46573,note_on,,1,0,1,,,,,,,,,0,,,57,101
46573,note_on,,0,0,1,,,,,,,,,0,,,45,100
46581,note_on,,8,0,1,,,,,,,,,0,,,45,0
46581,note_on,,0,0,1,,,,,,,,,0,,,57,0
46588,note_on,,7,0,1,,,,,,,,,0,,,62,0
46628,note_on,,40,0,1,,,,,,,,,0,,,59,104
46646,note_on,,18,0,1,,,,,,,,,0,,,57,109
46657,note_on,,11,0,1,,,,,,,,,0,,,59,0
46688,note_on,,31,0,1,,,,,,,,,0,,,57,0
46696,note_on,,8,0,1,,,,,,,,,0,,,56,111
46702,control_change,,6,0,1,,,,,,,,,0,64,0,,
46711,note_on,,9,0,1,,,,,,,,,0,,,38,0
46718,control_change,,7,0,1,,,,,,,,,0,64,127,,
46747,note_on,,29,0,1,,,,,,,,,0,,,56,0
46759,note_on,,12,0,1,,,,,,,,,0,,,53,113
46768,note_on,,9,0,1,,,,,,,,,0,,,53,0
46798,set_tempo,,356,1,0,,,,,,312500,,,,,,,
46812,note_on,,44,0,1,,,,,,,,,0,,,62,109
46816,note_on,,4,0,1,,,,,,,,,0,,,52,102
46819,note_on,,3,0,1,,,,,,,,,0,,,47,96
46819,control_change,,0,0,1,,,,,,,,,0,64,0,,
46824,note_on,,5,0,1,,,,,,,,,0,,,38,69
46835,control_change,,11,0,1,,,,,,,,,0,64,127,,
46842,note_on,,7,0,1,,,,,,,,,0,,,47,0
46864,note_on,,22,0,1,,,,,,,,,0,,,52,0
46870,note_on,,6,0,1,,,,,,,,,0,,,62,0
46871,note_on,,1,0,1,,,,,,,,,0,,,55,108
46880,note_on,,9,0,1,,,,,,,,,0,,,55,0
46933,note_on,,53,0,1,,,,,,,,,0,,,46,97
46934,note_on,,1,0,1,,,,,,,,,0,,,55,114
46942,control_change,,8,0,1,,,,,,,,,0,64,0,,
46962,note_on,,20,0,1,,,,,,,,,0,,,55,0
46963,control_change,,1,0,1,,,,,,,,,0,64,127,,
46989,note_on,,26,0,1,,,,,,,,,0,,,57,103
46997,note_on,,8,0,1,,,,,,,,,0,,,46,0
47013,note_on,,16,0,1,,,,,,,,,0,,,55,109
47016,note_on,,3,0,1,,,,,,,,,0,,,57,0
47040,note_on,,24,0,1,,,,,,,,,0,,,55,0
47052,note_on,,12,0,1,,,,,,,,,0,,,54,110
47057,note_on,,5,0,1,,,,,,,,,0,,,43,98
47058,control_change,,1,0,1,,,,,,,,,0,64,0,,
47080,control_change,,22,0,1,,,,,,,,,0,64,127,,
47082,note_on,,2,0,1,,,,,,,,,0,,,43,0
47093,note_on,,11,0,1,,,,,,,,,0,,,38,0
47096,note_on,,3,0,1,,,,,,,,,0,,,54,0
47109,note_on,,13,0,1,,,,,,,,,0,,,50,105
47126,note_on,,17,0,1,,,,,,,,,0,,,50,0
47158,set_tempo,,360,1,0,,,,,,326086,,,,,,,
47180,note_on,,54,0,1,,,,,,,,,0,,,62,104
47180,note_on,,0,0,1,,,,,,,,,0,,,54,104
47184,note_on,,4,0,1,,,,,,,,,0,,,45,87
47186,control_change,,2,0,1,,,,,,,,,0,64,0,,
47186,note_on,,0,0,1,,,,,,,,,0,,,38,84
47217,control_change,,31,0,1,,,,,,,,,0,64,127,,
47231,note_on,,14,0,1,,,,,,,,,0,,,62,0
47239,note_on,,8,0,1,,,,,,,,,0,,,54,0
47249,note_on,,10,0,1,,,,,,,,,0,,,45,0
47254,note_on,,5,0,1,,,,,,,,,0,,,57,117
47278,note_on,,24,0,1,,,,,,,,,0,,,57,0
47304,note_on,,26,0,1,,,,,,,,,0,,,45,102
47308,note_on,,4,0,1,,,,,,,,,0,,,57,116
47317,control_change,,9,0,1,,,,,,,,,0,64,0,,
47333,note_on,,16,0,1,,,,,,,,,0,,,45,0
47347,control_change,,14,0,1,,,,,,,,,0,64,127,,
47350,note_on,,3,0,1,,,,,,,,,0,,,57,0
47365,note_on,,15,0,1,,,,,,,,,0,,,59,85
47381,note_on,,16,0,1,,,,,,,,,0,,,57,102
47392,note_on,,11,0,1,,,,,,,,,0,,,59,0
47411,note_on,,19,0,1,,,,,,,,,0,,,57,0
47427,note_on,,16,0,1,,,,,,,,,0,,,56,114
47429,control_change,,2,0,1,,,,,,,,,0,64,0,,
47429,note_on,,0,0,1,,,,,,,,,0,,,47,90
47443,note_on,,14,0,1,,,,,,,,,0,,,47,0
47455,control_change,,12,0,1,,,,,,,,,0,64,127,,
47459,note_on,,4,0,1,,,,,,,,,0,,,56,0
47475,note_on,,16,0,1,,,,,,,,,0,,,38,0
47487,note_on,,12,0,1,,,,,,,,,0,,,53,111
47507,note_on,,20,0,1,,,,,,,,,0,,,53,0
47520,set_tempo,,362,1,0,,,,,,344827,,,,,,,
47553,note_on,,46,0,1,,,,,,,,,0,,,62,112
47557,note_on,,4,0,1,,,,,,,,,0,,,52,100
47559,note_on,,2,0,1,,,,,,,,,0,,,38,95
47561,control_change,,2,0,1,,,,,,,,,0,64,0,,
47585,note_on,,24,0,1,,,,,,,,,0,,,52,0
47594,control_change,,9,0,1,,,,,,,,,0,64,127,,
47611,note_on,,17,0,1,,,,,,,,,0,,,55,111
47612,note_on,,1,0,1,,,,,,,,,0,,,62,0
47620,note_on,,8,0,1,,,,,,,,,0,,,55,0
47669,note_on,,0,0,1,,,,,,,,,0,,,46,101
47669,note_on,,49,0,1,,,,,,,,,0,,,55,115
47674,control_change,,5,0,1,,,,,,,,,0,64,0,,
47698,note_on,,24,0,1,,,,,,,,,0,,,55,0
47701,control_change,,3,0,1,,,,,,,,,0,64,127,,
47707,note_on,,6,0,1,,,,,,,,,0,,,46,0
47707,note_on,,0,0,1,,,,,,,,,0,,,38,0
47724,note_on,,17,0,1,,,,,,,,,0,,,57,108
47743,note_on,,19,0,1,,,,,,,,,0,,,55,102
47751,note_on,,8,0,1,,,,,,,,,0,,,57,0
47783,note_on,,32,0,1,,,,,,,,,0,,,55,0
47785,control_change,,2,0,1,,,,,,,,,0,64,0,,
47788,note_on,,3,0,1,,,,,,,,,0,,,54,116
47798,note_on,,10,0,1,,,,,,,,,0,,,45,121
47816,control_change,,18,0,1,,,,,,,,,0,64,127,,
47841,note_on,,25,0,1,,,,,,,,,0,,,54,0
47844,note_on,,3,0,1,,,,,,,,,0,,,45,0
47847,note_on,,3,0,1,,,,,,,,,0,,,50,114
47857,note_on,,10,0,1,,,,,,,,,0,,,50,0
47880,set_tempo,,360,1,0,,,,,,368098,,,,,,,
47908,control_change,,51,0,1,,,,,,,,,0,64,0,,
47916,note_on,,8,0,1,,,,,,,,,0,,,45,93
47920,note_on,,0,0,1,,,,,,,,,0,,,54,88
47920,note_on,,0,0,1,,,,,,,,,0,,,62,106
47920,note_on,,4,0,1,,,,,,,,,0,,,38,92
47928,control_change,,8,0,1,,,,,,,,,0,64,127,,
47931,note_on,,3,0,1,,,,,,,,,0,,,54,0
47950,note_on,,19,0,1,,,,,,,,,0,,,62,0
47964,note_on,,14,0,1,,,,,,,,,0,,,45,0
47967,note_on,,3,0,1,,,,,,,,,0,,,38,0
48023,note_on,,56,0,1,,,,,,,,,0,,,69,119
48041,note_on,,18,0,1,,,,,,,,,0,,,69,0
48146,note_on,,105,0,1,,,,,,,,,0,,,74,104
48150,note_on,,0,0,1,,,,,,,,,0,,,50,79
48150,note_on,,4,0,1,,,,,,,,,0,,,57,99
48163,note_on,,13,0,1,,,,,,,,,0,,,57,0
48165,note_on,,2,0,1,,,,,,,,,0,,,50,0
48178,note_on,,13,0,1,,,,,,,,,0,,,74,0
48206,note_on,,28,0,1,,,,,,,,,0,,,81,104
48215,note_on,,9,0,1,,,,,,,,,0,,,81,0
48238,set_tempo,,358,1,0,,,,,,370370,,,,,,,
48240,set_tempo,,2,1,0,,,,,,368098,,,,,,,
48244,set_tempo,,4,1,0,,,,,,370370,,,,,,,
48246,set_tempo,,2,1,0,,,,,,372670,,,,,,,
48254,set_tempo,,8,1,0,,,,,,377358,,,,,,,
48266,set_tempo,,12,1,0,,,,,,382165,,,,,,,
48270,note_on,,55,0,1,,,,,,,,,0,,,86,90
48282,set_tempo,,16,1,0,,,,,,387096,,,,,,,
48287,note_on,,17,0,1,,,,,,,,,0,,,86,0
48298,set_tempo,,16,1,0,,,,,,402684,,,,,,,
48318,set_tempo,,20,1,0,,,,,,419580,,,,,,,
48324,note_on,,37,0,1,,,,,,,,,0,,,90,110
48334,set_tempo,,16,1,0,,,,,,425531,,,,,,,
48334,note_on,,10,0,1,,,,,,,,,0,,,90,0
48350,set_tempo,,16,1,0,,,,,,444444,,,,,,,
48362,set_tempo,,12,1,0,,,,,,465116,,,,,,,
48378,set_tempo,,16,1,0,,,,,,472440,,,,,,,
48390,set_tempo,,12,1,0,,,,,,480000,,,,,,,
48392,note_on,,58,0,1,,,,,,,,,0,,,92,104
48394,set_tempo,,4,1,0,,,,,,487804,,,,,,,
48401,note_on,,9,0,1,,,,,,,,,0,,,92,0
48406,set_tempo,,12,1,0,,,,,,495867,,,,,,,
48418,set_tempo,,12,1,0,,,,,,504201,,,,,,,
48422,set_tempo,,4,1,0,,,,,,512820,,,,,,,
48438,set_tempo,,16,1,0,,,,,,521739,,,,,,,
48450,note_on,,49,0,1,,,,,,,,,0,,,93,107
48450,set_tempo,,12,1,0,,,,,,550458,,,,,,,
48463,note_on,,13,0,1,,,,,,,,,0,,,93,0
48466,set_tempo,,16,1,0,,,,,,582524,,,,,,,
48470,control_change,,7,0,1,,,,,,,,,0,64,0,,
48478,set_tempo,,12,1,0,,,,,,594059,,,,,,,
48482,set_tempo,,4,1,0,,,,,,606060,,,,,,,
48486,set_tempo,,4,1,0,,,,,,612244,,,,,,,
48488,set_tempo,,2,1,0,,,,,,618556,,,,,,,
48500,set_tempo,,12,1,0,,,,,,631578,,,,,,,
48500,note_on,,30,0,1,,,,,,,,,0,,,95,101
48504,set_tempo,,4,1,0,,,,,,638297,,,,,,,
48508,set_tempo,,4,1,0,,,,,,645161,,,,,,,
48512,set_tempo,,4,1,0,,,,,,652173,,,,,,,
48513,note_on,,13,0,1,,,,,,,,,0,,,95,0
48516,set_tempo,,4,1,0,,,,,,659340,,,,,,,
48520,set_tempo,,4,1,0,,,,,,674157,,,,,,,
48528,set_tempo,,8,1,0,,,,,,689655,,,,,,,
48532,set_tempo,,4,1,0,,,,,,697674,,,,,,,
48536,set_tempo,,4,1,0,,,,,,705882,,,,,,,
48549,note_on,,36,0,1,,,,,,,,,0,,,97,101
48550,set_tempo,,14,1,0,,,,,,722891,,,,,,,
48556,set_tempo,,6,1,0,,,,,,740740,,,,,,,
48562,note_on,,13,0,1,,,,,,,,,0,,,97,0
48564,set_tempo,,8,1,0,,,,,,759493,,,,,,,
48578,set_tempo,,14,1,0,,,,,,779220,,,,,,,
48582,set_tempo,,4,1,0,,,,,,789473,,,,,,,
48584,set_tempo,,2,1,0,,,,,,800000,,,,,,,
48588,set_tempo,,4,1,0,,,,,,810810,,,,,,,
48592,set_tempo,,4,1,0,,,,,,821917,,,,,,,
48598,set_tempo,,6,1,0,,,,,,833333,,,,,,,
48600,set_tempo,,2,1,0,,,,,,845070,,,,,,,
48600,end_of_track,,0,1,0,,,,,,,,,,,,,
48609,note_on,,47,0,1,,,,,,,,,0,,,98,86
48976,end_of_track,,0,1,1,,,,,,,,,,,,,
48976,note_on,,367,0,1,,,,,,,,,0,,,98,0
