tick,type,time,meta,track,frame_rate,hours,minutes,seconds,frames,sub_frames,numerator,denominator,clocks_per_click,notated_32nd_notes_per_beat,key,tempo,port,program,channel,control,value,note,velocity
0,track_name,0,1,0,,,,,,,,,,,,,,,,,,,
0,program_change,0,0,1,,,,,,,,,,,,,,0,0,,,,
0,control_change,0,0,1,,,,,,,,,,,,,,,0,7,100,,
0,control_change,0,0,1,,,,,,,,,,,,,,,0,91,127,,
0,text,0,1,1,,,,,,,,,,,,,,,,,,,
0,midi_port,0,1,8,,,,,,,,,,,,,0,,,,,,
0,midi_port,0,1,2,,,,,,,,,,,,,0,,,,,,
0,track_name,0,1,2,,,,,,,,,,,,,,,,,,,
0,program_change,0,0,2,,,,,,,,,,,,,,0,0,,,,
0,control_change,0,0,2,,,,,,,,,,,,,,,0,7,100,,
0,midi_port,0,1,3,,,,,,,,,,,,,0,,,,,,
0,track_name,0,1,3,,,,,,,,,,,,,,,,,,,
0,track_name,0,1,1,,,,,,,,,,,,,,,,,,,
0,end_of_track,0,1,3,,,,,,,,,,,,,,,,,,,
0,track_name,0,1,4,,,,,,,,,,,,,,,,,,,
0,end_of_track,0,1,4,,,,,,,,,,,,,,,,,,,
0,midi_port,0,1,5,,,,,,,,,,,,,0,,,,,,
0,track_name,0,1,5,,,,,,,,,,,,,,,,,,,
0,end_of_track,0,1,5,,,,,,,,,,,,,,,,,,,
0,midi_port,0,1,6,,,,,,,,,,,,,0,,,,,,
0,track_name,0,1,6,,,,,,,,,,,,,,,,,,,
0,end_of_track,0,1,6,,,,,,,,,,,,,,,,,,,
0,midi_port,0,1,7,,,,,,,,,,,,,0,,,,,,
0,track_name,0,1,7,,,,,,,,,,,,,,,,,,,
0,end_of_track,0,1,7,,,,,,,,,,,,,,,,,,,
0,midi_port,0,1,4,,,,,,,,,,,,,0,,,,,,
0,midi_port,0,1,1,,,,,,,,,,,,,0,,,,,,
0,end_of_track,0,1,8,,,,,,,,,,,,,,,,,,,
0,copyright,0,1,0,,,,,,,,,,,,,,,,,,,
0,text,0,1,0,,,,,,,,,,,,,,,,,,,
0,text,0,1,0,,,,,,,,,,,,,,,,,,,
0,smpte_offset,0,1,0,25,32,0,3,0,0,,,,,,,,,,,,,
0,time_signature,0,1,0,,,,,,,3,4,24,8,,,,,,,,,
0,key_signature,0,1,0,,,,,,,,,,,D,,,,,,,,
0,set_tempo,0,1,0,,,,,,,,,,,,500000,,,,,,,
0,text,0,1,0,,,,,,,,,,,,,,,,,,,
960,note_on,960,0,1,,,,,,,,,,,,,,,0,,,78,55
1440,note_on,1440,0,2,,,,,,,,,,,,,,,0,,,47,50
1461,control_change,21,0,2,,,,,,,,,,,,,,,0,64,127,,
1680,note_on,0,0,1,,,,,,,,,,,,,,,0,,,83,50
1680,note_on,720,0,1,,,,,,,,,,,,,,,0,,,78,0
1920,note_on,240,0,1,,,,,,,,,,,,,,,0,,,83,0
1920,note_on,0,0,2,,,,,,,,,,,,,,,0,,,64,40
1920,note_on,0,0,1,,,,,,,,,,,,,,,0,,,79,50
1920,note_on,0,0,2,,,,,,,,,,,,,,,0,,,59,34
1920,set_tempo,1920,1,0,,,,,,,,,,,,552995,,,,,,,
1920,note_on,459,0,2,,,,,,,,,,,,,,,0,,,47,0
1920,note_on,0,0,2,,,,,,,,,,,,,,,0,,,55,34
1980,note_on,0,0,1,,,,,,,,,,,,,,,0,,,81,50
1980,note_on,60,0,1,,,,,,,,,,,,,,,0,,,79,0
2040,note_on,60,0,1,,,,,,,,,,,,,,,0,,,81,0
2040,note_on,0,0,1,,,,,,,,,,,,,,,0,,,79,57
2040,set_tempo,120,1,0,,,,,,,,,,,,491803,,,,,,,
2400,set_tempo,360,1,0,,,,,,,,,,,,478088,,,,,,,
2400,note_on,0,0,2,,,,,,,,,,,,,,,0,,,59,0
2400,note_on,0,0,2,,,,,,,,,,,,,,,0,,,64,0
2400,note_on,0,0,2,,,,,,,,,,,,,,,0,,,59,33
2400,note_on,0,0,2,,,,,,,,,,,,,,,0,,,64,39
2400,note_on,0,0,1,,,,,,,,,,,,,,,0,,,78,53
2400,note_on,360,0,1,,,,,,,,,,,,,,,0,,,79,0
2400,note_on,0,0,2,,,,,,,,,,,,,,,0,,,55,33
2400,note_on,480,0,2,,,,,,,,,,,,,,,0,,,55,0
2640,note_on,0,0,1,,,,,,,,,,,,,,,0,,,76,50
2640,note_on,240,0,1,,,,,,,,,,,,,,,0,,,78,0
2640,set_tempo,240,1,0,,,,,,,,,,,,500000,,,,,,,
2880,note_on,480,0,2,,,,,,,,,,,,,,,0,,,55,0
2880,note_on,0,0,2,,,,,,,,,,,,,,,0,,,59,0
2880,note_on,0,0,2,,,,,,,,,,,,,,,0,,,64,0
2880,note_on,0,0,2,,,,,,,,,,,,,,,0,,,47,50
2880,control_change,0,0,2,,,,,,,,,,,,,,,0,64,0,,
2880,note_on,0,0,1,,,,,,,,,,,,,,,0,,,78,55
2880,note_on,240,0,1,,,,,,,,,,,,,,,0,,,76,0
2880,set_tempo,240,1,0,,,,,,,,,,,,436364,,,,,,,
3020,set_tempo,140,1,0,,,,,,,,,,,,600000,,,,,,,
3078,control_change,198,0,2,,,,,,,,,,,,,,,0,64,127,,
3120,note_on,0,0,1,,,,,,,,,,,,,,,0,,,71,50
3120,note_on,240,0,1,,,,,,,,,,,,,,,0,,,78,0
3120,set_tempo,100,1,0,,,,,,,,,,,,500000,,,,,,,
3360,note_on,0,0,2,,,,,,,,,,,,,,,0,,,54,26
3360,note_on,282,0,2,,,,,,,,,,,,,,,0,,,47,0
3360,note_on,0,0,2,,,,,,,,,,,,,,,0,,,62,31
3360,note_on,0,0,2,,,,,,,,,,,,,,,0,,,59,26
3360,set_tempo,240,1,0,,,,,,,,,,,,500000,,,,,,,
3840,note_on,0,0,2,,,,,,,,,,,,,,,0,,,62,0
3840,note_on,0,0,2,,,,,,,,,,,,,,,0,,,62,31
3840,note_on,0,0,2,,,,,,,,,,,,,,,0,,,59,0
3840,note_on,0,0,2,,,,,,,,,,,,,,,0,,,54,26
3840,note_on,0,0,2,,,,,,,,,,,,,,,0,,,59,26
3840,note_on,480,0,2,,,,,,,,,,,,,,,0,,,54,0
4320,note_on,0,0,2,,,,,,,,,,,,,,,0,,,59,0
4320,note_on,0,0,2,,,,,,,,,,,,,,,0,,,62,0
4320,set_tempo,960,1,0,,,,,,,,,,,,500000,,,,,,,
4320,note_on,0,0,1,,,,,,,,,,,,,,,0,,,73,58
4320,note_on,1200,0,1,,,,,,,,,,,,,,,0,,,71,0
4320,note_on,480,0,2,,,,,,,,,,,,,,,0,,,54,0
4320,control_change,0,0,2,,,,,,,,,,,,,,,0,64,0,,
4320,note_on,0,0,2,,,,,,,,,,,,,,,0,,,47,50
4366,control_change,46,0,2,,,,,,,,,,,,,,,0,64,127,,
4560,note_on,240,0,1,,,,,,,,,,,,,,,0,,,73,0
4560,note_on,0,0,1,,,,,,,,,,,,,,,0,,,76,50
4800,note_on,0,0,2,,,,,,,,,,,,,,,0,,,58,34
4800,note_on,0,0,2,,,,,,,,,,,,,,,0,,,54,34
4800,note_on,0,0,2,,,,,,,,,,,,,,,0,,,64,40
4800,note_on,434,0,2,,,,,,,,,,,,,,,0,,,47,0
4800,set_tempo,480,1,0,,,,,,,,,,,,560748,,,,,,,
4800,note_on,240,0,1,,,,,,,,,,,,,,,0,,,76,0
4800,note_on,0,0,1,,,,,,,,,,,,,,,0,,,74,50
4860,note_on,60,0,1,,,,,,,,,,,,,,,0,,,74,0
4860,note_on,0,0,1,,,,,,,,,,,,,,,0,,,76,50
4920,note_on,0,0,1,,,,,,,,,,,,,,,0,,,74,57
4920,set_tempo,120,1,0,,,,,,,,,,,,487805,,,,,,,
4920,note_on,60,0,1,,,,,,,,,,,,,,,0,,,76,0
5280,note_on,0,0,2,,,,,,,,,,,,,,,0,,,54,33
5280,note_on,360,0,1,,,,,,,,,,,,,,,0,,,74,0
5280,note_on,0,0,1,,,,,,,,,,,,,,,0,,,73,53
5280,note_on,0,0,2,,,,,,,,,,,,,,,0,,,58,33
5280,note_on,0,0,2,,,,,,,,,,,,,,,0,,,64,39
5280,note_on,0,0,2,,,,,,,,,,,,,,,0,,,64,0
5280,note_on,0,0,2,,,,,,,,,,,,,,,0,,,58,0
5280,note_on,480,0,2,,,,,,,,,,,,,,,0,,,54,0
5280,set_tempo,360,1,0,,,,,,,,,,,,478088,,,,,,,
5520,set_tempo,240,1,0,,,,,,,,,,,,500000,,,,,,,
5760,control_change,0,0,2,,,,,,,,,,,,,,,0,64,0,,
5760,note_on,0,0,2,,,,,,,,,,,,,,,0,,,47,50
5760,note_on,0,0,2,,,,,,,,,,,,,,,0,,,58,0
5760,note_on,480,0,2,,,,,,,,,,,,,,,0,,,54,0
5760,note_on,480,0,1,,,,,,,,,,,,,,,0,,,73,0
5760,note_on,0,0,1,,,,,,,,,,,,,,,0,,,74,55
5760,note_on,0,0,2,,,,,,,,,,,,,,,0,,,64,0
5760,set_tempo,240,1,0,,,,,,,,,,,,436364,,,,,,,
5900,set_tempo,140,1,0,,,,,,,,,,,,600000,,,,,,,
5958,control_change,198,0,2,,,,,,,,,,,,,,,0,64,127,,
6000,set_tempo,100,1,0,,,,,,,,,,,,500000,,,,,,,
6000,note_on,0,0,1,,,,,,,,,,,,,,,0,,,71,50
6000,note_on,240,0,1,,,,,,,,,,,,,,,0,,,74,0
6240,set_tempo,240,1,0,,,,,,,,,,,,491803,,,,,,,
6240,note_on,0,0,2,,,,,,,,,,,,,,,0,,,54,26
6240,note_on,0,0,2,,,,,,,,,,,,,,,0,,,59,26
6240,note_on,0,0,2,,,,,,,,,,,,,,,0,,,62,31
6240,note_on,282,0,2,,,,,,,,,,,,,,,0,,,47,0
6720,note_on,0,0,2,,,,,,,,,,,,,,,0,,,59,0
6720,note_on,0,0,2,,,,,,,,,,,,,,,0,,,54,26
6720,set_tempo,480,1,0,,,,,,,,,,,,500000,,,,,,,
6720,note_on,0,0,2,,,,,,,,,,,,,,,0,,,59,26
6720,note_on,480,0,2,,,,,,,,,,,,,,,0,,,54,0
6720,note_on,0,0,2,,,,,,,,,,,,,,,0,,,62,31
6720,note_on,0,0,2,,,,,,,,,,,,,,,0,,,62,0
7200,note_on,0,0,2,,,,,,,,,,,,,,,0,,,37,50
7200,note_on,0,0,2,,,,,,,,,,,,,,,0,,,62,0
7200,note_on,0,0,2,,,,,,,,,,,,,,,0,,,59,0
7200,note_on,480,0,2,,,,,,,,,,,,,,,0,,,54,0
7200,control_change,0,0,2,,,,,,,,,,,,,,,0,64,0,,
7200,note_on,0,0,1,,,,,,,,,,,,,,,0,,,73,58
7200,note_on,1200,0,1,,,,,,,,,,,,,,,0,,,71,0
7200,set_tempo,480,1,0,,,,,,,,,,,,500000,,,,,,,
7246,control_change,46,0,2,,,,,,,,,,,,,,,0,64,127,,
7440,note_on,0,0,1,,,,,,,,,,,,,,,0,,,71,50
7440,note_on,240,0,1,,,,,,,,,,,,,,,0,,,73,0
7680,note_on,434,0,2,,,,,,,,,,,,,,,0,,,37,0
7680,note_on,0,0,2,,,,,,,,,,,,,,,0,,,59,40
7680,note_on,240,0,1,,,,,,,,,,,,,,,0,,,71,0
7680,note_on,0,0,1,,,,,,,,,,,,,,,0,,,69,46
7680,note_on,0,0,2,,,,,,,,,,,,,,,0,,,53,34
7680,note_on,0,0,2,,,,,,,,,,,,,,,0,,,49,34
7680,set_tempo,480,1,0,,,,,,,,,,,,585366,,,,,,,
7701,control_change,21,0,2,,,,,,,,,,,,,,,0,64,0,,
7740,note_on,60,0,1,,,,,,,,,,,,,,,0,,,69,0
7740,note_on,0,0,1,,,,,,,,,,,,,,,0,,,71,47
7800,note_on,60,0,1,,,,,,,,,,,,,,,0,,,71,0
7800,set_tempo,120,1,0,,,,,,,,,,,,489796,,,,,,,
7800,control_change,99,0,2,,,,,,,,,,,,,,,0,64,127,,
7800,note_on,0,0,1,,,,,,,,,,,,,,,0,,,69,55
8160,note_on,0,0,1,,,,,,,,,,,,,,,0,,,68,53
8160,note_on,360,0,1,,,,,,,,,,,,,,,0,,,69,0
8160,note_on,360,0,2,,,,,,,,,,,,,,,0,,,49,0
8160,note_on,0,0,2,,,,,,,,,,,,,,,0,,,53,0
8160,note_on,0,0,2,,,,,,,,,,,,,,,0,,,59,0
8160,note_on,0,0,2,,,,,,,,,,,,,,,0,,,59,39
8160,note_on,0,0,2,,,,,,,,,,,,,,,0,,,53,33
8160,set_tempo,360,1,0,,,,,,,,,,,,478088,,,,,,,
8160,note_on,0,0,2,,,,,,,,,,,,,,,0,,,49,33
8400,set_tempo,240,1,0,,,,,,,,,,,,500000,,,,,,,
8640,note_on,480,0,1,,,,,,,,,,,,,,,0,,,68,0
8640,note_on,0,0,1,,,,,,,,,,,,,,,0,,,69,55
8640,control_change,0,0,2,,,,,,,,,,,,,,,0,64,0,,
8640,note_on,0,0,2,,,,,,,,,,,,,,,0,,,42,50
8640,note_on,0,0,2,,,,,,,,,,,,,,,0,,,59,0
8640,note_on,0,0,2,,,,,,,,,,,,,,,0,,,53,0
8640,note_on,480,0,2,,,,,,,,,,,,,,,0,,,49,0
8640,set_tempo,240,1,0,,,,,,,,,,,,436364,,,,,,,
8780,set_tempo,140,1,0,,,,,,,,,,,,600000,,,,,,,
8838,control_change,198,0,2,,,,,,,,,,,,,,,0,64,127,,
8880,set_tempo,100,1,0,,,,,,,,,,,,500000,,,,,,,
8880,note_on,0,0,1,,,,,,,,,,,,,,,0,,,73,50
8880,note_on,240,0,1,,,,,,,,,,,,,,,0,,,69,0
9120,note_on,282,0,2,,,,,,,,,,,,,,,0,,,42,0
9120,note_on,0,0,2,,,,,,,,,,,,,,,0,,,57,37
9120,note_on,0,0,2,,,,,,,,,,,,,,,0,,,49,31
9360,note_on,480,0,1,,,,,,,,,,,,,,,0,,,73,0
9600,set_tempo,720,1,0,,,,,,,,,,,,480000,,,,,,,
9600,note_on,480,0,2,,,,,,,,,,,,,,,0,,,49,0
9600,note_on,240,0,1,,,,,,,,,,,,,,,0,,,61,68
9600,note_on,0,0,2,,,,,,,,,,,,,,,0,,,57,0
9628,control_change,28,0,2,,,,,,,,,,,,,,,0,64,0,,
10320,note_on,0,0,1,,,,,,,,,,,,,,,0,,,59,60
10320,note_on,720,0,1,,,,,,,,,,,,,,,0,,,61,0
10440,set_tempo,840,1,0,,,,,,,,,,,,512821,,,,,,,
10560,note_on,240,0,1,,,,,,,,,,,,,,,0,,,59,0
10560,note_on,0,0,1,,,,,,,,,,,,,,,0,,,57,57
10560,set_tempo,120,1,0,,,,,,,,,,,,470588,,,,,,,
10620,note_on,60,0,1,,,,,,,,,,,,,,,0,,,57,0
10620,note_on,0,0,1,,,,,,,,,,,,,,,0,,,59,57
10680,note_on,60,0,1,,,,,,,,,,,,,,,0,,,59,0
10680,note_on,0,0,1,,,,,,,,,,,,,,,0,,,57,68
11040,set_tempo,480,1,0,,,,,,,,,,,,485830,,,,,,,
11040,note_on,0,0,1,,,,,,,,,,,,,,,0,,,56,67
11040,note_on,360,0,1,,,,,,,,,,,,,,,0,,,57,0
11520,note_on,480,0,1,,,,,,,,,,,,,,,0,,,56,0
11520,set_tempo,480,1,0,,,,,,,,,,,,463320,,,,,,,
11520,note_on,0,0,1,,,,,,,,,,,,,,,0,,,57,71
12000,set_tempo,480,1,0,,,,,,,,,,,,471661,,,,,,,
12000,note_on,480,0,1,,,,,,,,,,,,,,,0,,,57,0
12000,note_on,0,0,1,,,,,,,,,,,,,,,0,,,61,67
12960,note_on,0,0,1,,,,,,,,,,,,,,,0,,,59,71
12960,note_on,3332,0,2,,,,,,,,,,,,,,,0,,,49,47
12960,note_on,0,0,2,,,,,,,,,,,,,,,0,,,56,58
12960,note_on,960,0,1,,,,,,,,,,,,,,,0,,,61,0
13440,note_on,0,0,1,,,,,,,,,,,,,,,0,,,57,68
13440,set_tempo,1440,1,0,,,,,,,,,,,,462036,,,,,,,
13440,note_on,480,0,1,,,,,,,,,,,,,,,0,,,59,0
13440,note_on,0,0,2,,,,,,,,,,,,,,,0,,,54,55
13440,note_on,480,0,2,,,,,,,,,,,,,,,0,,,56,0
13920,note_on,480,0,2,,,,,,,,,,,,,,,0,,,54,0
13920,set_tempo,480,1,0,,,,,,,,,,,,471661,,,,,,,
13920,note_on,0,0,1,,,,,,,,,,,,,,,0,,,61,68
13920,note_on,480,0,1,,,,,,,,,,,,,,,0,,,57,0
13920,note_on,0,0,2,,,,,,,,,,,,,,,0,,,57,55
14400,note_on,480,0,2,,,,,,,,,,,,,,,0,,,57,0
14400,note_on,0,0,2,,,,,,,,,,,,,,,0,,,49,0
14400,note_on,0,0,2,,,,,,,,,,,,,,,0,,,49,47
14400,set_tempo,480,1,0,,,,,,,,,,,,531444,,,,,,,
14400,note_on,0,0,1,,,,,,,,,,,,,,,0,,,59,63
14400,note_on,480,0,1,,,,,,,,,,,,,,,0,,,61,0
14400,note_on,0,0,2,,,,,,,,,,,,,,,0,,,56,57
14460,note_on,60,0,1,,,,,,,,,,,,,,,0,,,59,0
14460,note_on,0,0,1,,,,,,,,,,,,,,,0,,,61,63
14520,set_tempo,120,1,0,,,,,,,,,,,,447761,,,,,,,
14520,note_on,60,0,1,,,,,,,,,,,,,,,0,,,61,0
14520,note_on,0,0,1,,,,,,,,,,,,,,,0,,,59,73
14640,note_on,0,0,1,,,,,,,,,,,,,,,0,,,57,66
14640,note_on,240,0,2,,,,,,,,,,,,,,,0,,,56,0
14640,note_on,120,0,1,,,,,,,,,,,,,,,0,,,59,0
14640,note_on,0,0,2,,,,,,,,,,,,,,,0,,,54,51
14880,note_on,0,0,2,,,,,,,,,,,,,,,0,,,57,56
14880,note_on,240,0,2,,,,,,,,,,,,,,,0,,,54,0
14880,set_tempo,360,1,0,,,,,,,,,,,,471661,,,,,,,
14880,note_on,240,0,1,,,,,,,,,,,,,,,0,,,57,0
14880,note_on,0,0,1,,,,,,,,,,,,,,,0,,,61,72
15360,note_on,0,0,1,,,,,,,,,,,,,,,0,,,61,68
15360,note_on,0,0,2,,,,,,,,,,,,,,,0,,,57,54
15360,note_on,480,0,2,,,,,,,,,,,,,,,0,,,57,0
15360,note_on,480,0,1,,,,,,,,,,,,,,,0,,,61,0
15840,set_tempo,960,1,0,,,,,,,,,,,,528961,,,,,,,
15840,note_on,480,0,1,,,,,,,,,,,,,,,0,,,61,0
15840,note_on,0,0,1,,,,,,,,,,,,,,,0,,,59,61
15840,note_on,480,0,2,,,,,,,,,,,,,,,0,,,57,0
15840,note_on,0,0,2,,,,,,,,,,,,,,,0,,,56,57
15840,note_on,0,0,2,,,,,,,,,,,,,,,0,,,49,47
15840,note_on,0,0,2,,,,,,,,,,,,,,,0,,,49,0
15900,note_on,0,0,1,,,,,,,,,,,,,,,0,,,61,61
15900,note_on,60,0,1,,,,,,,,,,,,,,,0,,,59,0
15960,note_on,0,0,1,,,,,,,,,,,,,,,0,,,59,72
15960,note_on,60,0,1,,,,,,,,,,,,,,,0,,,61,0
15960,set_tempo,120,1,0,,,,,,,,,,,,449438,,,,,,,
16320,note_on,480,0,2,,,,,,,,,,,,,,,0,,,56,0
16320,note_on,360,0,1,,,,,,,,,,,,,,,0,,,59,0
16320,note_on,0,0,1,,,,,,,,,,,,,,,0,,,58,72
16320,note_on,0,0,2,,,,,,,,,,,,,,,0,,,54,56
16320,set_tempo,360,1,0,,,,,,,,,,,,462036,,,,,,,
16800,note_on,480,0,1,,,,,,,,,,,,,,,0,,,58,0
16800,note_on,0,0,1,,,,,,,,,,,,,,,0,,,61,68
16800,note_on,480,0,2,,,,,,,,,,,,,,,0,,,54,0
16800,note_on,0,0,2,,,,,,,,,,,,,,,0,,,58,54
16800,set_tempo,480,1,0,,,,,,,,,,,,471661,,,,,,,
17280,set_tempo,480,1,0,,,,,,,,,,,,528961,,,,,,,
17280,note_on,0,0,2,,,,,,,,,,,,,,,0,,,49,47
17280,note_on,0,0,2,,,,,,,,,,,,,,,0,,,49,0
17280,note_on,480,0,2,,,,,,,,,,,,,,,0,,,58,0
17280,note_on,0,0,1,,,,,,,,,,,,,,,0,,,59,62
17280,note_on,0,0,2,,,,,,,,,,,,,,,0,,,56,57
17280,note_on,480,0,1,,,,,,,,,,,,,,,0,,,61,0
17340,note_on,0,0,1,,,,,,,,,,,,,,,0,,,61,63
17340,note_on,60,0,1,,,,,,,,,,,,,,,0,,,59,0
17400,note_on,0,0,1,,,,,,,,,,,,,,,0,,,59,73
17400,note_on,60,0,1,,,,,,,,,,,,,,,0,,,61,0
17400,set_tempo,120,1,0,,,,,,,,,,,,458295,,,,,,,
17520,note_on,0,0,1,,,,,,,,,,,,,,,0,,,58,66
17520,note_on,240,0,2,,,,,,,,,,,,,,,0,,,56,0
17520,note_on,120,0,1,,,,,,,,,,,,,,,0,,,59,0
17520,note_on,0,0,2,,,,,,,,,,,,,,,0,,,54,51
17760,set_tempo,360,1,0,,,,,,,,,,,,471661,,,,,,,
17760,note_on,240,0,2,,,,,,,,,,,,,,,0,,,49,0
17760,note_on,240,0,1,,,,,,,,,,,,,,,0,,,58,0
17760,note_on,0,0,1,,,,,,,,,,,,,,,0,,,66,72
17760,note_on,0,0,2,,,,,,,,,,,,,,,0,,,42,47
17792,control_change,32,0,2,,,,,,,,,,,,,,,0,64,127,,
18240,note_on,480,0,1,,,,,,,,,,,,,,,0,,,66,0
18240,note_on,0,0,1,,,,,,,,,,,,,,,0,,,78,58
18240,note_on,448,0,2,,,,,,,,,,,,,,,0,,,54,0
18240,set_tempo,480,1,0,,,,,,,,,,,,500000,,,,,,,
18251,control_change,11,0,2,,,,,,,,,,,,,,,0,64,0,,
18720,note_on,0,0,2,,,,,,,,,,,,,,,0,,,47,50
18720,note_on,469,0,2,,,,,,,,,,,,,,,0,,,42,0
18741,control_change,21,0,2,,,,,,,,,,,,,,,0,64,127,,
18960,note_on,0,0,1,,,,,,,,,,,,,,,0,,,83,50
18960,note_on,720,0,1,,,,,,,,,,,,,,,0,,,78,0
19200,note_on,0,0,1,,,,,,,,,,,,,,,0,,,79,50
19200,note_on,240,0,1,,,,,,,,,,,,,,,0,,,83,0
19200,set_tempo,960,1,0,,,,,,,,,,,,552995,,,,,,,
19200,note_on,459,0,2,,,,,,,,,,,,,,,0,,,47,0
19200,note_on,0,0,2,,,,,,,,,,,,,,,0,,,64,40
19200,note_on,0,0,2,,,,,,,,,,,,,,,0,,,59,34
19200,note_on,0,0,2,,,,,,,,,,,,,,,0,,,55,34
19260,note_on,0,0,1,,,,,,,,,,,,,,,0,,,81,50
19260,note_on,60,0,1,,,,,,,,,,,,,,,0,,,79,0
19320,set_tempo,120,1,0,,,,,,,,,,,,491803,,,,,,,
19320,note_on,0,0,1,,,,,,,,,,,,,,,0,,,79,57
19320,note_on,60,0,1,,,,,,,,,,,,,,,0,,,81,0
19680,note_on,0,0,1,,,,,,,,,,,,,,,0,,,78,53
19680,set_tempo,360,1,0,,,,,,,,,,,,478088,,,,,,,
19680,note_on,480,0,2,,,,,,,,,,,,,,,0,,,55,0
19680,note_on,0,0,2,,,,,,,,,,,,,,,0,,,55,33
19680,note_on,0,0,2,,,,,,,,,,,,,,,0,,,59,33
19680,note_on,0,0,2,,,,,,,,,,,,,,,0,,,64,39
19680,note_on,0,0,2,,,,,,,,,,,,,,,0,,,64,0
19680,note_on,360,0,1,,,,,,,,,,,,,,,0,,,79,0
19680,note_on,0,0,2,,,,,,,,,,,,,,,0,,,59,0
19920,note_on,240,0,1,,,,,,,,,,,,,,,0,,,78,0
19920,note_on,0,0,1,,,,,,,,,,,,,,,0,,,76,50
19920,set_tempo,240,1,0,,,,,,,,,,,,500000,,,,,,,
20160,set_tempo,240,1,0,,,,,,,,,,,,436364,,,,,,,
20160,control_change,0,0,2,,,,,,,,,,,,,,,0,64,0,,
20160,note_on,0,0,2,,,,,,,,,,,,,,,0,,,47,50
20160,note_on,0,0,2,,,,,,,,,,,,,,,0,,,64,0
20160,note_on,0,0,2,,,,,,,,,,,,,,,0,,,59,0
20160,note_on,480,0,2,,,,,,,,,,,,,,,0,,,55,0
20160,note_on,240,0,1,,,,,,,,,,,,,,,0,,,76,0
20160,note_on,0,0,1,,,,,,,,,,,,,,,0,,,78,55
20300,set_tempo,140,1,0,,,,,,,,,,,,600000,,,,,,,
20358,control_change,198,0,2,,,,,,,,,,,,,,,0,64,127,,
20400,note_on,0,0,1,,,,,,,,,,,,,,,0,,,71,50
20400,note_on,240,0,1,,,,,,,,,,,,,,,0,,,78,0
20400,set_tempo,100,1,0,,,,,,,,,,,,500000,,,,,,,
20640,note_on,0,0,2,,,,,,,,,,,,,,,0,,,62,31
20640,note_on,0,0,2,,,,,,,,,,,,,,,0,,,54,26
20640,note_on,282,0,2,,,,,,,,,,,,,,,0,,,47,0
20640,note_on,0,0,2,,,,,,,,,,,,,,,0,,,59,26
21120,note_on,0,0,2,,,,,,,,,,,,,,,0,,,54,26
21120,note_on,0,0,2,,,,,,,,,,,,,,,0,,,59,26
21120,note_on,0,0,2,,,,,,,,,,,,,,,0,,,62,31
21120,note_on,0,0,2,,,,,,,,,,,,,,,0,,,59,0
21120,note_on,480,0,2,,,,,,,,,,,,,,,0,,,54,0
21120,note_on,0,0,2,,,,,,,,,,,,,,,0,,,62,0
21600,control_change,0,0,2,,,,,,,,,,,,,,,0,64,0,,
21600,note_on,0,0,2,,,,,,,,,,,,,,,0,,,62,0
21600,set_tempo,1200,1,0,,,,,,,,,,,,500000,,,,,,,
21600,note_on,1200,0,1,,,,,,,,,,,,,,,0,,,71,0
21600,note_on,0,0,1,,,,,,,,,,,,,,,0,,,73,58
21600,note_on,480,0,2,,,,,,,,,,,,,,,0,,,54,0
21600,note_on,0,0,2,,,,,,,,,,,,,,,0,,,47,50
21600,note_on,0,0,2,,,,,,,,,,,,,,,0,,,59,0
21646,control_change,46,0,2,,,,,,,,,,,,,,,0,64,127,,
21840,note_on,240,0,1,,,,,,,,,,,,,,,0,,,73,0
21840,note_on,0,0,1,,,,,,,,,,,,,,,0,,,76,50
22080,note_on,0,0,1,,,,,,,,,,,,,,,0,,,74,50
22080,note_on,434,0,2,,,,,,,,,,,,,,,0,,,47,0
22080,note_on,0,0,2,,,,,,,,,,,,,,,0,,,64,40
22080,note_on,0,0,2,,,,,,,,,,,,,,,0,,,58,34
22080,note_on,240,0,1,,,,,,,,,,,,,,,0,,,76,0
22080,set_tempo,480,1,0,,,,,,,,,,,,560748,,,,,,,
22080,note_on,0,0,2,,,,,,,,,,,,,,,0,,,54,34
22140,note_on,0,0,1,,,,,,,,,,,,,,,0,,,76,50
22140,note_on,60,0,1,,,,,,,,,,,,,,,0,,,74,0
22200,set_tempo,120,1,0,,,,,,,,,,,,487805,,,,,,,
22200,note_on,60,0,1,,,,,,,,,,,,,,,0,,,76,0
22200,note_on,0,0,1,,,,,,,,,,,,,,,0,,,74,57
22560,note_on,0,0,1,,,,,,,,,,,,,,,0,,,73,53
22560,note_on,360,0,1,,,,,,,,,,,,,,,0,,,74,0
22560,set_tempo,360,1,0,,,,,,,,,,,,478088,,,,,,,
22560,note_on,0,0,2,,,,,,,,,,,,,,,0,,,54,33
22560,note_on,480,0,2,,,,,,,,,,,,,,,0,,,54,0
22560,note_on,0,0,2,,,,,,,,,,,,,,,0,,,58,33
22560,note_on,0,0,2,,,,,,,,,,,,,,,0,,,58,0
22560,note_on,0,0,2,,,,,,,,,,,,,,,0,,,64,0
22560,note_on,0,0,2,,,,,,,,,,,,,,,0,,,64,39
22800,set_tempo,240,1,0,,,,,,,,,,,,500000,,,,,,,
23040,set_tempo,240,1,0,,,,,,,,,,,,436364,,,,,,,
23040,control_change,0,0,2,,,,,,,,,,,,,,,0,64,0,,
23040,note_on,0,0,2,,,,,,,,,,,,,,,0,,,64,0
23040,note_on,480,0,1,,,,,,,,,,,,,,,0,,,73,0
23040,note_on,480,0,2,,,,,,,,,,,,,,,0,,,54,0
23040,note_on,0,0,2,,,,,,,,,,,,,,,0,,,58,0
23040,note_on,0,0,2,,,,,,,,,,,,,,,0,,,47,50
23040,note_on,0,0,1,,,,,,,,,,,,,,,0,,,74,55
23180,set_tempo,140,1,0,,,,,,,,,,,,600000,,,,,,,
23238,control_change,198,0,2,,,,,,,,,,,,,,,0,64,127,,
23280,note_on,240,0,1,,,,,,,,,,,,,,,0,,,74,0
23280,set_tempo,100,1,0,,,,,,,,,,,,500000,,,,,,,
23280,note_on,0,0,1,,,,,,,,,,,,,,,0,,,71,50
23520,note_on,0,0,2,,,,,,,,,,,,,,,0,,,54,26
23520,note_on,0,0,2,,,,,,,,,,,,,,,0,,,59,26
23520,note_on,0,0,2,,,,,,,,,,,,,,,0,,,62,31
23520,note_on,282,0,2,,,,,,,,,,,,,,,0,,,47,0
23944,control_change,424,0,2,,,,,,,,,,,,,,,0,64,0,,
24000,note_on,0,0,2,,,,,,,,,,,,,,,0,,,62,0
24000,note_on,56,0,2,,,,,,,,,,,,,,,0,,,54,0
24000,set_tempo,720,1,0,,,,,,,,,,,,472441,,,,,,,
24000,note_on,0,0,2,,,,,,,,,,,,,,,0,,,59,0
24000,note_on,0,0,1,,,,,,,,,,,,,,,0,,,50,66
24000,note_on,720,0,1,,,,,,,,,,,,,,,0,,,71,0
24480,note_on,0,0,2,,,,,,,,,,,,,,,0,,,65,43
24480,note_on,480,0,2,,,,,,,,,,,,,,,0,,,59,38
24720,note_on,0,0,1,,,,,,,,,,,,,,,0,,,55,58
24720,note_on,720,0,1,,,,,,,,,,,,,,,0,,,50,0
24960,note_on,0,0,2,,,,,,,,,,,,,,,0,,,64,38
24960,set_tempo,960,1,0,,,,,,,,,,,,433213,,,,,,,
24960,note_on,0,0,1,,,,,,,,,,,,,,,0,,,52,65
24960,note_on,240,0,1,,,,,,,,,,,,,,,0,,,55,0
24960,note_on,0,0,2,,,,,,,,,,,,,,,0,,,59,0
24960,note_on,480,0,2,,,,,,,,,,,,,,,0,,,65,0
24960,note_on,0,0,2,,,,,,,,,,,,,,,0,,,60,34
25120,note_on,160,0,1,,,,,,,,,,,,,,,0,,,52,0
25120,note_on,0,0,1,,,,,,,,,,,,,,,0,,,53,57
25280,note_on,160,0,1,,,,,,,,,,,,,,,0,,,53,0
25280,note_on,0,0,1,,,,,,,,,,,,,,,0,,,52,55
25440,note_on,160,0,1,,,,,,,,,,,,,,,0,,,52,0
25440,note_on,0,0,1,,,,,,,,,,,,,,,0,,,50,63
25440,note_on,0,0,2,,,,,,,,,,,,,,,0,,,64,38
25440,note_on,0,0,2,,,,,,,,,,,,,,,0,,,60,34
25440,note_on,0,0,2,,,,,,,,,,,,,,,0,,,60,0
25440,note_on,480,0,2,,,,,,,,,,,,,,,0,,,64,0
25440,set_tempo,480,1,0,,,,,,,,,,,,472441,,,,,,,
25680,note_on,240,0,1,,,,,,,,,,,,,,,0,,,50,0
25680,note_on,0,0,1,,,,,,,,,,,,,,,0,,,48,57
25920,note_on,0,0,2,,,,,,,,,,,,,,,0,,,55,41
25920,note_on,0,0,2,,,,,,,,,,,,,,,0,,,59,41
25920,note_on,0,0,2,,,,,,,,,,,,,,,0,,,65,46
25920,set_tempo,480,1,0,,,,,,,,,,,,476190,,,,,,,
25920,note_on,0,0,2,,,,,,,,,,,,,,,0,,,60,0
25920,note_on,480,0,2,,,,,,,,,,,,,,,0,,,64,0
25920,note_on,240,0,1,,,,,,,,,,,,,,,0,,,48,0
25920,note_on,0,0,1,,,,,,,,,,,,,,,0,,,50,64
26280,note_on,360,0,1,,,,,,,,,,,,,,,0,,,50,0
26280,note_on,0,0,1,,,,,,,,,,,,,,,0,,,43,55
26400,note_on,480,0,2,,,,,,,,,,,,,,,0,,,65,0
26400,note_on,0,0,2,,,,,,,,,,,,,,,0,,,59,0
26400,note_on,0,0,2,,,,,,,,,,,,,,,0,,,55,0
26400,note_on,0,0,2,,,,,,,,,,,,,,,0,,,55,34
26400,note_on,0,0,2,,,,,,,,,,,,,,,0,,,59,34
26400,note_on,0,0,2,,,,,,,,,,,,,,,0,,,65,38
26400,note_on,0,0,1,,,,,,,,,,,,,,,0,,,50,64
26400,note_on,120,0,1,,,,,,,,,,,,,,,0,,,43,0
26880,note_on,0,0,2,,,,,,,,,,,,,,,0,,,64,38
26880,note_on,480,0,1,,,,,,,,,,,,,,,0,,,50,0
26880,note_on,480,0,2,,,,,,,,,,,,,,,0,,,65,0
26880,note_on,0,0,2,,,,,,,,,,,,,,,0,,,60,34
26880,note_on,0,0,2,,,,,,,,,,,,,,,0,,,55,0
26880,note_on,0,0,2,,,,,,,,,,,,,,,0,,,59,0
26880,note_on,0,0,1,,,,,,,,,,,,,,,0,,,48,59
27360,note_on,480,0,2,,,,,,,,,,,,,,,0,,,64,0
27360,note_on,0,0,2,,,,,,,,,,,,,,,0,,,60,0
27360,note_on,0,0,2,,,,,,,,,,,,,,,0,,,59,38
27360,note_on,0,0,2,,,,,,,,,,,,,,,0,,,65,43
27360,note_on,0,0,1,,,,,,,,,,,,,,,0,,,50,66
27360,note_on,480,0,1,,,,,,,,,,,,,,,0,,,48,0
27360,set_tempo,1440,1,0,,,,,,,,,,,,472441,,,,,,,
27600,note_on,240,0,1,,,,,,,,,,,,,,,0,,,50,0
27600,note_on,0,0,1,,,,,,,,,,,,,,,0,,,55,58
27840,note_on,0,0,2,,,,,,,,,,,,,,,0,,,60,34
27840,note_on,0,0,2,,,,,,,,,,,,,,,0,,,59,0
27840,note_on,480,0,2,,,,,,,,,,,,,,,0,,,65,0
27840,note_on,0,0,2,,,,,,,,,,,,,,,0,,,64,38
27840,note_on,0,0,1,,,,,,,,,,,,,,,0,,,52,65
27840,note_on,240,0,1,,,,,,,,,,,,,,,0,,,55,0
27840,set_tempo,480,1,0,,,,,,,,,,,,433213,,,,,,,
28000,note_on,0,0,1,,,,,,,,,,,,,,,0,,,53,57
28000,note_on,160,0,1,,,,,,,,,,,,,,,0,,,52,0
28160,note_on,0,0,1,,,,,,,,,,,,,,,0,,,52,55
28160,note_on,160,0,1,,,,,,,,,,,,,,,0,,,53,0
28320,note_on,0,0,2,,,,,,,,,,,,,,,0,,,60,0
28320,note_on,0,0,2,,,,,,,,,,,,,,,0,,,60,34
28320,note_on,0,0,1,,,,,,,,,,,,,,,0,,,50,63
28320,note_on,160,0,1,,,,,,,,,,,,,,,0,,,52,0
28320,note_on,0,0,2,,,,,,,,,,,,,,,0,,,64,38
28320,note_on,480,0,2,,,,,,,,,,,,,,,0,,,64,0
28320,set_tempo,480,1,0,,,,,,,,,,,,472441,,,,,,,
28560,note_on,240,0,1,,,,,,,,,,,,,,,0,,,50,0
28560,note_on,0,0,1,,,,,,,,,,,,,,,0,,,48,57
28800,note_on,0,0,2,,,,,,,,,,,,,,,0,,,60,0
28800,note_on,0,0,1,,,,,,,,,,,,,,,0,,,50,64
28800,note_on,240,0,1,,,,,,,,,,,,,,,0,,,48,0
28800,note_on,480,0,2,,,,,,,,,,,,,,,0,,,64,0
28800,set_tempo,480,1,0,,,,,,,,,,,,476190,,,,,,,
28800,note_on,0,0,2,,,,,,,,,,,,,,,0,,,55,41
28800,note_on,0,0,2,,,,,,,,,,,,,,,0,,,59,41
28800,note_on,0,0,2,,,,,,,,,,,,,,,0,,,65,46
29160,note_on,0,0,1,,,,,,,,,,,,,,,0,,,43,54
29160,note_on,360,0,1,,,,,,,,,,,,,,,0,,,50,0
29280,note_on,0,0,2,,,,,,,,,,,,,,,0,,,55,0
29280,note_on,0,0,2,,,,,,,,,,,,,,,0,,,59,0
29280,note_on,0,0,1,,,,,,,,,,,,,,,0,,,50,62
29280,note_on,0,0,2,,,,,,,,,,,,,,,0,,,59,33
29280,note_on,120,0,1,,,,,,,,,,,,,,,0,,,43,0
29280,note_on,480,0,2,,,,,,,,,,,,,,,0,,,65,0
29280,note_on,0,0,2,,,,,,,,,,,,,,,0,,,65,37
29280,note_on,0,0,2,,,,,,,,,,,,,,,0,,,55,33
29760,note_on,480,0,2,,,,,,,,,,,,,,,0,,,65,0
29760,note_on,0,0,1,,,,,,,,,,,,,,,0,,,48,56
29760,note_on,0,0,2,,,,,,,,,,,,,,,0,,,59,0
29760,note_on,480,0,1,,,,,,,,,,,,,,,0,,,50,0
29760,note_on,0,0,2,,,,,,,,,,,,,,,0,,,60,32
29760,note_on,0,0,2,,,,,,,,,,,,,,,0,,,64,36
29760,note_on,0,0,2,,,,,,,,,,,,,,,0,,,55,0
30240,note_on,0,0,2,,,,,,,,,,,,,,,0,,,60,0
30240,note_on,0,0,2,,,,,,,,,,,,,,,0,,,55,38
30240,note_on,0,0,2,,,,,,,,,,,,,,,0,,,59,38
30240,note_on,0,0,1,,,,,,,,,,,,,,,0,,,50,60
30240,note_on,480,0,1,,,,,,,,,,,,,,,0,,,48,0
30240,note_on,0,0,2,,,,,,,,,,,,,,,0,,,65,43
30240,note_on,480,0,2,,,,,,,,,,,,,,,0,,,64,0
30240,set_tempo,1440,1,0,,,,,,,,,,,,452830,,,,,,,
30600,note_on,360,0,1,,,,,,,,,,,,,,,0,,,50,0
30600,note_on,0,0,1,,,,,,,,,,,,,,,0,,,43,51
30720,set_tempo,480,1,0,,,,,,,,,,,,487805,,,,,,,
30720,note_on,480,0,2,,,,,,,,,,,,,,,0,,,65,0
30720,note_on,0,0,1,,,,,,,,,,,,,,,0,,,48,58
30720,note_on,0,0,2,,,,,,,,,,,,,,,0,,,59,0
30720,note_on,120,0,1,,,,,,,,,,,,,,,0,,,43,0
30720,note_on,0,0,2,,,,,,,,,,,,,,,0,,,55,0
30720,note_on,0,0,2,,,,,,,,,,,,,,,0,,,60,31
30720,note_on,0,0,2,,,,,,,,,,,,,,,0,,,64,34
31200,note_on,0,0,2,,,,,,,,,,,,,,,0,,,65,41
31200,note_on,0,0,2,,,,,,,,,,,,,,,0,,,59,36
31200,set_tempo,480,1,0,,,,,,,,,,,,466926,,,,,,,
31200,note_on,480,0,1,,,,,,,,,,,,,,,0,,,48,0
31200,note_on,0,0,1,,,,,,,,,,,,,,,0,,,50,57
31200,note_on,0,0,2,,,,,,,,,,,,,,,0,,,55,36
31200,note_on,0,0,2,,,,,,,,,,,,,,,0,,,60,0
31200,note_on,480,0,2,,,,,,,,,,,,,,,0,,,64,0
31560,note_on,0,0,1,,,,,,,,,,,,,,,0,,,43,48
31560,note_on,360,0,1,,,,,,,,,,,,,,,0,,,50,0
31680,note_on,120,0,1,,,,,,,,,,,,,,,0,,,43,0
31680,note_on,0,0,1,,,,,,,,,,,,,,,0,,,48,56
31680,note_on,0,0,2,,,,,,,,,,,,,,,0,,,59,0
31680,note_on,0,0,2,,,,,,,,,,,,,,,0,,,60,29
31680,note_on,0,0,2,,,,,,,,,,,,,,,0,,,64,29
31680,set_tempo,480,1,0,,,,,,,,,,,,493827,,,,,,,
31680,note_on,0,0,2,,,,,,,,,,,,,,,0,,,55,0
31680,note_on,480,0,2,,,,,,,,,,,,,,,0,,,65,0
32160,note_on,0,0,2,,,,,,,,,,,,,,,0,,,60,0
32160,note_on,0,0,1,,,,,,,,,,,,,,,0,,,50,55
32160,note_on,0,0,2,,,,,,,,,,,,,,,0,,,65,39
32160,note_on,0,0,2,,,,,,,,,,,,,,,0,,,55,35
32160,note_on,480,0,1,,,,,,,,,,,,,,,0,,,48,0
32160,note_on,0,0,2,,,,,,,,,,,,,,,0,,,59,35
32160,note_on,480,0,2,,,,,,,,,,,,,,,0,,,64,0
32160,set_tempo,480,1,0,,,,,,,,,,,,470588,,,,,,,
32520,note_on,0,0,1,,,,,,,,,,,,,,,0,,,43,46
32520,note_on,360,0,1,,,,,,,,,,,,,,,0,,,50,0
32640,set_tempo,480,1,0,,,,,,,,,,,,502092,,,,,,,
32640,note_on,0,0,1,,,,,,,,,,,,,,,0,,,48,53
32640,note_on,120,0,1,,,,,,,,,,,,,,,0,,,43,0
32640,note_on,480,0,2,,,,,,,,,,,,,,,0,,,65,0
32640,note_on,0,0,2,,,,,,,,,,,,,,,0,,,59,0
32640,note_on,0,0,2,,,,,,,,,,,,,,,0,,,55,0
32640,note_on,0,0,2,,,,,,,,,,,,,,,0,,,60,28
32640,note_on,0,0,2,,,,,,,,,,,,,,,0,,,64,31
33120,note_on,0,0,1,,,,,,,,,,,,,,,0,,,43,52
33120,note_on,480,0,1,,,,,,,,,,,,,,,0,,,48,0
33120,note_on,480,0,2,,,,,,,,,,,,,,,0,,,64,0
33120,note_on,0,0,2,,,,,,,,,,,,,,,0,,,60,0
33120,note_on,0,0,2,,,,,,,,,,,,,,,0,,,55,52
34560,note_on,0,0,1,,,,,,,,,,,,,,,0,,,42,48
34560,note_on,0,0,2,,,,,,,,,,,,,,,0,,,54,48
34560,note_on,1440,0,1,,,,,,,,,,,,,,,0,,,43,0
34560,note_on,1440,0,2,,,,,,,,,,,,,,,0,,,55,0
36000,note_on,0,0,2,,,,,,,,,,,,,,,0,,,35,46
36000,note_on,0,0,2,,,,,,,,,,,,,,,0,,,47,50
36000,note_on,0,0,1,,,,,,,,,,,,,,,0,,,78,55
36000,note_on,1440,0,1,,,,,,,,,,,,,,,0,,,42,0
36000,set_tempo,3360,1,0,,,,,,,,,,,,500000,,,,,,,
36000,note_on,1440,0,2,,,,,,,,,,,,,,,0,,,54,0
36088,control_change,88,0,2,,,,,,,,,,,,,,,0,64,127,,
36240,note_on,240,0,1,,,,,,,,,,,,,,,0,,,78,0
36240,note_on,0,0,1,,,,,,,,,,,,,,,0,,,83,50
36480,note_on,240,0,1,,,,,,,,,,,,,,,0,,,83,0
36480,note_on,0,0,1,,,,,,,,,,,,,,,0,,,79,50
36480,note_on,0,0,2,,,,,,,,,,,,,,,0,,,55,34
36480,note_on,0,0,2,,,,,,,,,,,,,,,0,,,59,34
36480,note_on,0,0,2,,,,,,,,,,,,,,,0,,,64,40
36480,note_on,0,0,2,,,,,,,,,,,,,,,0,,,35,0
36480,note_on,392,0,2,,,,,,,,,,,,,,,0,,,47,0
36480,set_tempo,480,1,0,,,,,,,,,,,,552995,,,,,,,
36540,note_on,60,0,1,,,,,,,,,,,,,,,0,,,79,0
36540,note_on,0,0,1,,,,,,,,,,,,,,,0,,,81,50
36600,set_tempo,120,1,0,,,,,,,,,,,,491803,,,,,,,
36600,note_on,0,0,1,,,,,,,,,,,,,,,0,,,79,57
36600,note_on,60,0,1,,,,,,,,,,,,,,,0,,,81,0
36960,set_tempo,360,1,0,,,,,,,,,,,,478088,,,,,,,
36960,note_on,0,0,1,,,,,,,,,,,,,,,0,,,78,53
36960,note_on,360,0,1,,,,,,,,,,,,,,,0,,,79,0
36960,note_on,480,0,2,,,,,,,,,,,,,,,0,,,55,0
36960,note_on,0,0,2,,,,,,,,,,,,,,,0,,,59,0
36960,note_on,0,0,2,,,,,,,,,,,,,,,0,,,64,0
36960,note_on,0,0,2,,,,,,,,,,,,,,,0,,,64,39
36960,note_on,0,0,2,,,,,,,,,,,,,,,0,,,59,33
36960,note_on,0,0,2,,,,,,,,,,,,,,,0,,,55,33
37200,set_tempo,240,1,0,,,,,,,,,,,,500000,,,,,,,
37200,note_on,240,0,1,,,,,,,,,,,,,,,0,,,78,0
37200,note_on,0,0,1,,,,,,,,,,,,,,,0,,,76,50
37440,note_on,480,0,2,,,,,,,,,,,,,,,0,,,55,0
37440,note_on,0,0,2,,,,,,,,,,,,,,,0,,,59,0
37440,note_on,240,0,1,,,,,,,,,,,,,,,0,,,76,0
37440,set_tempo,240,1,0,,,,,,,,,,,,436364,,,,,,,
37440,note_on,0,0,2,,,,,,,,,,,,,,,0,,,47,50
37440,note_on,0,0,2,,,,,,,,,,,,,,,0,,,64,0
37440,control_change,0,0,2,,,,,,,,,,,,,,,0,64,0,,
37440,note_on,0,0,1,,,,,,,,,,,,,,,0,,,78,55
37580,set_tempo,140,1,0,,,,,,,,,,,,600000,,,,,,,
37638,control_change,198,0,2,,,,,,,,,,,,,,,0,64,127,,
37680,note_on,240,0,1,,,,,,,,,,,,,,,0,,,78,0
37680,set_tempo,100,1,0,,,,,,,,,,,,500000,,,,,,,
37680,note_on,0,0,1,,,,,,,,,,,,,,,0,,,71,50
37920,note_on,282,0,2,,,,,,,,,,,,,,,0,,,47,0
37920,note_on,0,0,2,,,,,,,,,,,,,,,0,,,59,26
37920,note_on,0,0,2,,,,,,,,,,,,,,,0,,,54,26
37920,note_on,0,0,2,,,,,,,,,,,,,,,0,,,62,31
38400,note_on,0,0,2,,,,,,,,,,,,,,,0,,,62,31
38400,note_on,0,0,2,,,,,,,,,,,,,,,0,,,54,26
38400,note_on,0,0,2,,,,,,,,,,,,,,,0,,,59,26
38400,note_on,0,0,2,,,,,,,,,,,,,,,0,,,62,0
38400,note_on,0,0,2,,,,,,,,,,,,,,,0,,,59,0
38400,note_on,480,0,2,,,,,,,,,,,,,,,0,,,54,0
38880,control_change,0,0,2,,,,,,,,,,,,,,,0,64,0,,
38880,note_on,0,0,2,,,,,,,,,,,,,,,0,,,62,0
38880,note_on,0,0,1,,,,,,,,,,,,,,,0,,,73,58
38880,set_tempo,1200,1,0,,,,,,,,,,,,500000,,,,,,,
38880,note_on,1200,0,1,,,,,,,,,,,,,,,0,,,71,0
38880,note_on,480,0,2,,,,,,,,,,,,,,,0,,,54,0
38880,note_on,0,0,2,,,,,,,,,,,,,,,0,,,59,0
38880,note_on,0,0,2,,,,,,,,,,,,,,,0,,,47,50
38926,control_change,46,0,2,,,,,,,,,,,,,,,0,64,127,,
39120,note_on,240,0,1,,,,,,,,,,,,,,,0,,,73,0
39120,note_on,0,0,1,,,,,,,,,,,,,,,0,,,76,50
39360,note_on,434,0,2,,,,,,,,,,,,,,,0,,,47,0
39360,note_on,0,0,2,,,,,,,,,,,,,,,0,,,64,40
39360,set_tempo,480,1,0,,,,,,,,,,,,560748,,,,,,,
39360,note_on,240,0,1,,,,,,,,,,,,,,,0,,,76,0
39360,note_on,0,0,2,,,,,,,,,,,,,,,0,,,58,34
39360,note_on,0,0,1,,,,,,,,,,,,,,,0,,,74,50
39360,note_on,0,0,2,,,,,,,,,,,,,,,0,,,54,34
39420,note_on,60,0,1,,,,,,,,,,,,,,,0,,,74,0
39420,note_on,0,0,1,,,,,,,,,,,,,,,0,,,76,50
39480,note_on,60,0,1,,,,,,,,,,,,,,,0,,,76,0
39480,note_on,0,0,1,,,,,,,,,,,,,,,0,,,74,57
39480,set_tempo,120,1,0,,,,,,,,,,,,487805,,,,,,,
39840,note_on,360,0,1,,,,,,,,,,,,,,,0,,,74,0
39840,note_on,0,0,1,,,,,,,,,,,,,,,0,,,73,53
39840,note_on,0,0,2,,,,,,,,,,,,,,,0,,,58,33
39840,set_tempo,360,1,0,,,,,,,,,,,,478088,,,,,,,
39840,note_on,0,0,2,,,,,,,,,,,,,,,0,,,64,39
39840,note_on,0,0,2,,,,,,,,,,,,,,,0,,,58,0
39840,note_on,0,0,2,,,,,,,,,,,,,,,0,,,54,33
39840,note_on,480,0,2,,,,,,,,,,,,,,,0,,,54,0
39840,note_on,0,0,2,,,,,,,,,,,,,,,0,,,64,0
40080,set_tempo,240,1,0,,,,,,,,,,,,500000,,,,,,,
40320,set_tempo,240,1,0,,,,,,,,,,,,436364,,,,,,,
40320,note_on,480,0,2,,,,,,,,,,,,,,,0,,,54,0
40320,note_on,0,0,2,,,,,,,,,,,,,,,0,,,58,0
40320,note_on,0,0,1,,,,,,,,,,,,,,,0,,,74,55
40320,note_on,480,0,1,,,,,,,,,,,,,,,0,,,73,0
40320,note_on,0,0,2,,,,,,,,,,,,,,,0,,,47,50
40320,note_on,0,0,2,,,,,,,,,,,,,,,0,,,64,0
40320,control_change,0,0,2,,,,,,,,,,,,,,,0,64,0,,
40460,set_tempo,140,1,0,,,,,,,,,,,,600000,,,,,,,
40518,control_change,198,0,2,,,,,,,,,,,,,,,0,64,127,,
40560,set_tempo,100,1,0,,,,,,,,,,,,500000,,,,,,,
40560,note_on,0,0,1,,,,,,,,,,,,,,,0,,,71,50
40560,note_on,240,0,1,,,,,,,,,,,,,,,0,,,74,0
40800,set_tempo,240,1,0,,,,,,,,,,,,493827,,,,,,,
40800,note_on,282,0,2,,,,,,,,,,,,,,,0,,,47,0
40800,note_on,0,0,2,,,,,,,,,,,,,,,0,,,62,31
40800,note_on,0,0,2,,,,,,,,,,,,,,,0,,,59,26
40800,note_on,0,0,2,,,,,,,,,,,,,,,0,,,54,26
41280,note_on,0,0,2,,,,,,,,,,,,,,,0,,,62,31
41280,note_on,0,0,2,,,,,,,,,,,,,,,0,,,59,26
41280,note_on,0,0,2,,,,,,,,,,,,,,,0,,,59,0
41280,note_on,0,0,2,,,,,,,,,,,,,,,0,,,62,0
41280,note_on,480,0,2,,,,,,,,,,,,,,,0,,,54,0
41280,note_on,0,0,2,,,,,,,,,,,,,,,0,,,54,26
41760,note_on,0,0,2,,,,,,,,,,,,,,,0,,,62,0
41760,control_change,0,0,2,,,,,,,,,,,,,,,0,64,0,,
41760,note_on,0,0,2,,,,,,,,,,,,,,,0,,,37,50
41760,note_on,0,0,2,,,,,,,,,,,,,,,0,,,59,0
41760,note_on,480,0,2,,,,,,,,,,,,,,,0,,,54,0
41760,set_tempo,960,1,0,,,,,,,,,,,,500000,,,,,,,
41760,note_on,0,0,1,,,,,,,,,,,,,,,0,,,73,58
41760,note_on,1200,0,1,,,,,,,,,,,,,,,0,,,71,0
41806,control_change,46,0,2,,,,,,,,,,,,,,,0,64,127,,
42000,note_on,0,0,1,,,,,,,,,,,,,,,0,,,71,50
42000,note_on,240,0,1,,,,,,,,,,,,,,,0,,,73,0
42240,note_on,0,0,1,,,,,,,,,,,,,,,0,,,69,46
42240,note_on,240,0,1,,,,,,,,,,,,,,,0,,,71,0
42240,set_tempo,480,1,0,,,,,,,,,,,,585366,,,,,,,
42240,note_on,0,0,2,,,,,,,,,,,,,,,0,,,53,34
42240,note_on,0,0,2,,,,,,,,,,,,,,,0,,,59,40
42240,note_on,434,0,2,,,,,,,,,,,,,,,0,,,37,0
42240,note_on,0,0,2,,,,,,,,,,,,,,,0,,,49,34
42261,control_change,21,0,2,,,,,,,,,,,,,,,0,64,0,,
42300,note_on,60,0,1,,,,,,,,,,,,,,,0,,,69,0
42300,note_on,0,0,1,,,,,,,,,,,,,,,0,,,71,47
42360,control_change,99,0,2,,,,,,,,,,,,,,,0,64,127,,
42360,set_tempo,120,1,0,,,,,,,,,,,,489796,,,,,,,
42360,note_on,60,0,1,,,,,,,,,,,,,,,0,,,71,0
42360,note_on,0,0,1,,,,,,,,,,,,,,,0,,,69,55
42720,note_on,360,0,2,,,,,,,,,,,,,,,0,,,49,0
42720,note_on,0,0,2,,,,,,,,,,,,,,,0,,,59,0
42720,note_on,360,0,1,,,,,,,,,,,,,,,0,,,69,0
42720,note_on,0,0,1,,,,,,,,,,,,,,,0,,,68,53
42720,note_on,0,0,2,,,,,,,,,,,,,,,0,,,53,33
42720,note_on,0,0,2,,,,,,,,,,,,,,,0,,,59,39
42720,set_tempo,360,1,0,,,,,,,,,,,,478088,,,,,,,
42720,note_on,0,0,2,,,,,,,,,,,,,,,0,,,49,33
42720,note_on,0,0,2,,,,,,,,,,,,,,,0,,,53,0
42960,set_tempo,240,1,0,,,,,,,,,,,,500000,,,,,,,
43200,set_tempo,240,1,0,,,,,,,,,,,,436364,,,,,,,
43200,note_on,480,0,1,,,,,,,,,,,,,,,0,,,68,0
43200,note_on,0,0,2,,,,,,,,,,,,,,,0,,,42,50
43200,control_change,0,0,2,,,,,,,,,,,,,,,0,64,0,,
43200,note_on,0,0,1,,,,,,,,,,,,,,,0,,,69,55
43200,note_on,480,0,2,,,,,,,,,,,,,,,0,,,49,0
43200,note_on,0,0,2,,,,,,,,,,,,,,,0,,,59,0
43200,note_on,0,0,2,,,,,,,,,,,,,,,0,,,53,0
43340,set_tempo,140,1,0,,,,,,,,,,,,600000,,,,,,,
43398,control_change,198,0,2,,,,,,,,,,,,,,,0,64,127,,
43440,set_tempo,100,1,0,,,,,,,,,,,,500000,,,,,,,
43440,note_on,0,0,1,,,,,,,,,,,,,,,0,,,73,50
43440,note_on,240,0,1,,,,,,,,,,,,,,,0,,,69,0
43680,note_on,282,0,2,,,,,,,,,,,,,,,0,,,42,0
43680,note_on,0,0,2,,,,,,,,,,,,,,,0,,,57,37
43680,note_on,0,0,2,,,,,,,,,,,,,,,0,,,49,31
43920,note_on,480,0,1,,,,,,,,,,,,,,,0,,,73,0
44160,set_tempo,720,1,0,,,,,,,,,,,,481928,,,,,,,
44160,note_on,240,0,1,,,,,,,,,,,,,,,0,,,61,68
44160,note_on,480,0,2,,,,,,,,,,,,,,,0,,,49,0
44160,note_on,0,0,2,,,,,,,,,,,,,,,0,,,57,0
44188,control_change,28,0,2,,,,,,,,,,,,,,,0,64,0,,
44880,note_on,720,0,1,,,,,,,,,,,,,,,0,,,61,0
44880,note_on,0,0,1,,,,,,,,,,,,,,,0,,,59,60
45000,set_tempo,840,1,0,,,,,,,,,,,,510638,,,,,,,
45120,note_on,240,0,1,,,,,,,,,,,,,,,0,,,59,0
45120,note_on,0,0,1,,,,,,,,,,,,,,,0,,,57,57
45120,set_tempo,120,1,0,,,,,,,,,,,,465116,,,,,,,
45180,note_on,0,0,1,,,,,,,,,,,,,,,0,,,59,57
45180,note_on,60,0,1,,,,,,,,,,,,,,,0,,,57,0
45240,note_on,0,0,1,,,,,,,,,,,,,,,0,,,57,68
45240,note_on,60,0,1,,,,,,,,,,,,,,,0,,,59,0
45600,note_on,360,0,1,,,,,,,,,,,,,,,0,,,57,0
45600,set_tempo,480,1,0,,,,,,,,,,,,485830,,,,,,,
45600,note_on,0,0,1,,,,,,,,,,,,,,,0,,,56,67
46080,note_on,0,0,1,,,,,,,,,,,,,,,0,,,57,71
46080,note_on,480,0,1,,,,,,,,,,,,,,,0,,,56,0
46080,set_tempo,480,1,0,,,,,,,,,,,,465116,,,,,,,
46560,note_on,0,0,1,,,,,,,,,,,,,,,0,,,61,67
46560,note_on,480,0,1,,,,,,,,,,,,,,,0,,,57,0
46560,set_tempo,480,1,0,,,,,,,,,,,,472515,,,,,,,
47520,note_on,960,0,1,,,,,,,,,,,,,,,0,,,61,0
47520,note_on,3332,0,2,,,,,,,,,,,,,,,0,,,49,47
47520,note_on,0,0,2,,,,,,,,,,,,,,,0,,,56,58
47520,note_on,0,0,1,,,,,,,,,,,,,,,0,,,59,71
48000,note_on,0,0,1,,,,,,,,,,,,,,,0,,,57,68
48000,note_on,480,0,2,,,,,,,,,,,,,,,0,,,56,0
48000,note_on,0,0,2,,,,,,,,,,,,,,,0,,,54,55
48000,note_on,480,0,1,,,,,,,,,,,,,,,0,,,59,0
48000,set_tempo,1440,1,0,,,,,,,,,,,,462892,,,,,,,
48480,set_tempo,480,1,0,,,,,,,,,,,,472515,,,,,,,
48480,note_on,480,0,1,,,,,,,,,,,,,,,0,,,57,0
48480,note_on,0,0,1,,,,,,,,,,,,,,,0,,,61,68
48480,note_on,0,0,2,,,,,,,,,,,,,,,0,,,57,55
48480,note_on,480,0,2,,,,,,,,,,,,,,,0,,,54,0
48960,note_on,480,0,1,,,,,,,,,,,,,,,0,,,61,0
48960,note_on,0,0,1,,,,,,,,,,,,,,,0,,,59,63
48960,note_on,0,0,2,,,,,,,,,,,,,,,0,,,49,47
48960,set_tempo,480,1,0,,,,,,,,,,,,532434,,,,,,,
48960,note_on,480,0,2,,,,,,,,,,,,,,,0,,,57,0
48960,note_on,0,0,2,,,,,,,,,,,,,,,0,,,49,0
48960,note_on,0,0,2,,,,,,,,,,,,,,,0,,,56,57
49020,note_on,60,0,1,,,,,,,,,,,,,,,0,,,59,0
49020,note_on,0,0,1,,,,,,,,,,,,,,,0,,,61,63
49080,set_tempo,120,1,0,,,,,,,,,,,,449438,,,,,,,
49080,note_on,60,0,1,,,,,,,,,,,,,,,0,,,61,0
49080,note_on,0,0,1,,,,,,,,,,,,,,,0,,,59,73
49200,note_on,0,0,1,,,,,,,,,,,,,,,0,,,57,66
49200,note_on,120,0,1,,,,,,,,,,,,,,,0,,,59,0
49200,note_on,240,0,2,,,,,,,,,,,,,,,0,,,56,0
49200,note_on,0,0,2,,,,,,,,,,,,,,,0,,,54,51
49440,note_on,240,0,2,,,,,,,,,,,,,,,0,,,54,0
49440,set_tempo,360,1,0,,,,,,,,,,,,472515,,,,,,,
49440,note_on,0,0,1,,,,,,,,,,,,,,,0,,,61,72
49440,note_on,240,0,1,,,,,,,,,,,,,,,0,,,57,0
49440,note_on,0,0,2,,,,,,,,,,,,,,,0,,,57,56
49920,note_on,480,0,2,,,,,,,,,,,,,,,0,,,57,0
49920,note_on,0,0,2,,,,,,,,,,,,,,,0,,,57,54
49920,note_on,0,0,1,,,,,,,,,,,,,,,0,,,61,68
49920,note_on,480,0,1,,,,,,,,,,,,,,,0,,,61,0
50400,note_on,0,0,2,,,,,,,,,,,,,,,0,,,56,57
50400,note_on,0,0,2,,,,,,,,,,,,,,,0,,,49,47
50400,note_on,0,0,2,,,,,,,,,,,,,,,0,,,49,0
50400,note_on,0,0,1,,,,,,,,,,,,,,,0,,,59,61
50400,note_on,480,0,1,,,,,,,,,,,,,,,0,,,61,0
50400,set_tempo,960,1,0,,,,,,,,,,,,529942,,,,,,,
50400,note_on,480,0,2,,,,,,,,,,,,,,,0,,,57,0
50460,note_on,60,0,1,,,,,,,,,,,,,,,0,,,59,0
50460,note_on,0,0,1,,,,,,,,,,,,,,,0,,,61,61
50520,note_on,60,0,1,,,,,,,,,,,,,,,0,,,61,0
50520,set_tempo,120,1,0,,,,,,,,,,,,447761,,,,,,,
50520,note_on,0,0,1,,,,,,,,,,,,,,,0,,,59,72
50880,set_tempo,360,1,0,,,,,,,,,,,,462892,,,,,,,
50880,note_on,360,0,1,,,,,,,,,,,,,,,0,,,59,0
50880,note_on,0,0,2,,,,,,,,,,,,,,,0,,,54,56
50880,note_on,0,0,1,,,,,,,,,,,,,,,0,,,58,72
50880,note_on,480,0,2,,,,,,,,,,,,,,,0,,,56,0
51360,note_on,480,0,2,,,,,,,,,,,,,,,0,,,54,0
51360,note_on,0,0,2,,,,,,,,,,,,,,,0,,,58,54
51360,note_on,480,0,1,,,,,,,,,,,,,,,0,,,58,0
51360,note_on,0,0,1,,,,,,,,,,,,,,,0,,,61,68
51360,set_tempo,480,1,0,,,,,,,,,,,,472515,,,,,,,
51840,note_on,480,0,2,,,,,,,,,,,,,,,0,,,58,0
51840,note_on,0,0,2,,,,,,,,,,,,,,,0,,,49,0
51840,note_on,0,0,2,,,,,,,,,,,,,,,0,,,49,47
51840,set_tempo,480,1,0,,,,,,,,,,,,529942,,,,,,,
51840,note_on,0,0,1,,,,,,,,,,,,,,,0,,,59,62
51840,note_on,480,0,1,,,,,,,,,,,,,,,0,,,61,0
51840,note_on,0,0,2,,,,,,,,,,,,,,,0,,,56,57
51900,note_on,60,0,1,,,,,,,,,,,,,,,0,,,59,0
51900,note_on,0,0,1,,,,,,,,,,,,,,,0,,,61,63
51960,note_on,60,0,1,,,,,,,,,,,,,,,0,,,61,0
51960,note_on,0,0,1,,,,,,,,,,,,,,,0,,,59,73
51960,set_tempo,120,1,0,,,,,,,,,,,,459137,,,,,,,
52080,note_on,240,0,2,,,,,,,,,,,,,,,0,,,56,0
52080,note_on,0,0,2,,,,,,,,,,,,,,,0,,,54,51
52080,note_on,0,0,1,,,,,,,,,,,,,,,0,,,58,66
52080,note_on,120,0,1,,,,,,,,,,,,,,,0,,,59,0
52320,note_on,240,0,2,,,,,,,,,,,,,,,0,,,49,0
52320,note_on,0,0,1,,,,,,,,,,,,,,,0,,,66,72
52320,note_on,240,0,1,,,,,,,,,,,,,,,0,,,58,0
52320,note_on,0,0,2,,,,,,,,,,,,,,,0,,,42,47
52320,set_tempo,360,1,0,,,,,,,,,,,,472515,,,,,,,
52352,control_change,32,0,2,,,,,,,,,,,,,,,0,64,127,,
52800,note_on,0,0,1,,,,,,,,,,,,,,,0,,,78,58
52800,note_on,480,0,1,,,,,,,,,,,,,,,0,,,66,0
52800,note_on,448,0,2,,,,,,,,,,,,,,,0,,,54,0
52800,set_tempo,480,1,0,,,,,,,,,,,,500000,,,,,,,
52811,control_change,11,0,2,,,,,,,,,,,,,,,0,64,0,,
53280,note_on,469,0,2,,,,,,,,,,,,,,,0,,,42,0
53280,note_on,0,0,2,,,,,,,,,,,,,,,0,,,47,50
53301,control_change,21,0,2,,,,,,,,,,,,,,,0,64,127,,
53520,note_on,720,0,1,,,,,,,,,,,,,,,0,,,78,0
53520,note_on,0,0,1,,,,,,,,,,,,,,,0,,,83,50
53760,set_tempo,960,1,0,,,,,,,,,,,,552995,,,,,,,
53760,note_on,240,0,1,,,,,,,,,,,,,,,0,,,83,0
53760,note_on,0,0,1,,,,,,,,,,,,,,,0,,,79,50
53760,note_on,459,0,2,,,,,,,,,,,,,,,0,,,47,0
53760,note_on,0,0,2,,,,,,,,,,,,,,,0,,,64,40
53760,note_on,0,0,2,,,,,,,,,,,,,,,0,,,55,34
53760,note_on,0,0,2,,,,,,,,,,,,,,,0,,,59,34
53820,note_on,60,0,1,,,,,,,,,,,,,,,0,,,79,0
53820,note_on,0,0,1,,,,,,,,,,,,,,,0,,,81,50
53880,set_tempo,120,1,0,,,,,,,,,,,,491803,,,,,,,
53880,note_on,60,0,1,,,,,,,,,,,,,,,0,,,81,0
53880,note_on,0,0,1,,,,,,,,,,,,,,,0,,,79,57
54240,note_on,0,0,2,,,,,,,,,,,,,,,0,,,55,33
54240,note_on,0,0,2,,,,,,,,,,,,,,,0,,,64,39
54240,note_on,0,0,2,,,,,,,,,,,,,,,0,,,59,33
54240,note_on,0,0,2,,,,,,,,,,,,,,,0,,,64,0
54240,note_on,0,0,2,,,,,,,,,,,,,,,0,,,59,0
54240,set_tempo,360,1,0,,,,,,,,,,,,478088,,,,,,,
54240,note_on,0,0,1,,,,,,,,,,,,,,,0,,,78,53
54240,note_on,360,0,1,,,,,,,,,,,,,,,0,,,79,0
54240,note_on,480,0,2,,,,,,,,,,,,,,,0,,,55,0
54480,set_tempo,240,1,0,,,,,,,,,,,,500000,,,,,,,
54480,note_on,240,0,1,,,,,,,,,,,,,,,0,,,78,0
54480,note_on,0,0,1,,,,,,,,,,,,,,,0,,,76,50
54720,note_on,0,0,2,,,,,,,,,,,,,,,0,,,47,50
54720,note_on,0,0,1,,,,,,,,,,,,,,,0,,,78,55
54720,note_on,0,0,2,,,,,,,,,,,,,,,0,,,64,0
54720,control_change,0,0,2,,,,,,,,,,,,,,,0,64,0,,
54720,note_on,480,0,2,,,,,,,,,,,,,,,0,,,55,0
54720,note_on,0,0,2,,,,,,,,,,,,,,,0,,,59,0
54720,set_tempo,240,1,0,,,,,,,,,,,,436364,,,,,,,
54720,note_on,240,0,1,,,,,,,,,,,,,,,0,,,76,0
54860,set_tempo,140,1,0,,,,,,,,,,,,600000,,,,,,,
54918,control_change,198,0,2,,,,,,,,,,,,,,,0,64,127,,
54960,set_tempo,100,1,0,,,,,,,,,,,,500000,,,,,,,
54960,note_on,240,0,1,,,,,,,,,,,,,,,0,,,78,0
54960,note_on,0,0,1,,,,,,,,,,,,,,,0,,,71,50
55200,note_on,0,0,2,,,,,,,,,,,,,,,0,,,59,26
55200,note_on,0,0,2,,,,,,,,,,,,,,,0,,,54,26
55200,note_on,0,0,2,,,,,,,,,,,,,,,0,,,62,31
55200,note_on,282,0,2,,,,,,,,,,,,,,,0,,,47,0
55200,set_tempo,240,1,0,,,,,,,,,,,,487805,,,,,,,
55680,note_on,0,0,2,,,,,,,,,,,,,,,0,,,62,31
55680,set_tempo,480,1,0,,,,,,,,,,,,500000,,,,,,,
55680,note_on,480,0,2,,,,,,,,,,,,,,,0,,,54,0
55680,note_on,0,0,2,,,,,,,,,,,,,,,0,,,59,0
55680,note_on,0,0,2,,,,,,,,,,,,,,,0,,,62,0
55680,note_on,0,0,2,,,,,,,,,,,,,,,0,,,59,26
55680,note_on,0,0,2,,,,,,,,,,,,,,,0,,,54,26
56160,control_change,0,0,2,,,,,,,,,,,,,,,0,64,0,,
56160,note_on,0,0,2,,,,,,,,,,,,,,,0,,,47,50
56160,note_on,0,0,2,,,,,,,,,,,,,,,0,,,62,0
56160,note_on,0,0,2,,,,,,,,,,,,,,,0,,,59,0
56160,note_on,480,0,2,,,,,,,,,,,,,,,0,,,54,0
56160,note_on,0,0,1,,,,,,,,,,,,,,,0,,,73,58
56160,set_tempo,480,1,0,,,,,,,,,,,,500000,,,,,,,
56160,note_on,1200,0,1,,,,,,,,,,,,,,,0,,,71,0
56206,control_change,46,0,2,,,,,,,,,,,,,,,0,64,127,,
56400,note_on,0,0,1,,,,,,,,,,,,,,,0,,,76,50
56400,note_on,240,0,1,,,,,,,,,,,,,,,0,,,73,0
56640,note_on,0,0,2,,,,,,,,,,,,,,,0,,,64,40
56640,set_tempo,480,1,0,,,,,,,,,,,,560748,,,,,,,
56640,note_on,0,0,2,,,,,,,,,,,,,,,0,,,58,34
56640,note_on,434,0,2,,,,,,,,,,,,,,,0,,,47,0
56640,note_on,240,0,1,,,,,,,,,,,,,,,0,,,76,0
56640,note_on,0,0,1,,,,,,,,,,,,,,,0,,,74,50
56640,note_on,0,0,2,,,,,,,,,,,,,,,0,,,54,34
56700,note_on,60,0,1,,,,,,,,,,,,,,,0,,,74,0
56700,note_on,0,0,1,,,,,,,,,,,,,,,0,,,76,50
56760,note_on,60,0,1,,,,,,,,,,,,,,,0,,,76,0
56760,note_on,0,0,1,,,,,,,,,,,,,,,0,,,74,57
56760,set_tempo,120,1,0,,,,,,,,,,,,487805,,,,,,,
57120,note_on,360,0,1,,,,,,,,,,,,,,,0,,,74,0
57120,set_tempo,360,1,0,,,,,,,,,,,,478088,,,,,,,
57120,note_on,0,0,1,,,,,,,,,,,,,,,0,,,73,53
57120,note_on,480,0,2,,,,,,,,,,,,,,,0,,,54,0
57120,note_on,0,0,2,,,,,,,,,,,,,,,0,,,58,0
57120,note_on,0,0,2,,,,,,,,,,,,,,,0,,,64,0
57120,note_on,0,0,2,,,,,,,,,,,,,,,0,,,64,39
57120,note_on,0,0,2,,,,,,,,,,,,,,,0,,,58,33
57120,note_on,0,0,2,,,,,,,,,,,,,,,0,,,54,33
57360,set_tempo,240,1,0,,,,,,,,,,,,500000,,,,,,,
57600,note_on,480,0,2,,,,,,,,,,,,,,,0,,,54,0
57600,note_on,0,0,2,,,,,,,,,,,,,,,0,,,58,0
57600,note_on,0,0,2,,,,,,,,,,,,,,,0,,,64,0
57600,note_on,0,0,2,,,,,,,,,,,,,,,0,,,47,50
57600,note_on,0,0,1,,,,,,,,,,,,,,,0,,,74,55
57600,set_tempo,240,1,0,,,,,,,,,,,,436364,,,,,,,
57600,control_change,0,0,2,,,,,,,,,,,,,,,0,64,0,,
57600,note_on,480,0,1,,,,,,,,,,,,,,,0,,,73,0
57740,set_tempo,140,1,0,,,,,,,,,,,,600000,,,,,,,
57798,control_change,198,0,2,,,,,,,,,,,,,,,0,64,127,,
57840,set_tempo,100,1,0,,,,,,,,,,,,500000,,,,,,,
57840,note_on,240,0,1,,,,,,,,,,,,,,,0,,,74,0
57840,note_on,0,0,1,,,,,,,,,,,,,,,0,,,71,50
58080,note_on,0,0,2,,,,,,,,,,,,,,,0,,,54,26
58080,note_on,282,0,2,,,,,,,,,,,,,,,0,,,47,0
58080,note_on,0,0,2,,,,,,,,,,,,,,,0,,,62,31
58080,note_on,0,0,2,,,,,,,,,,,,,,,0,,,59,26
58504,control_change,424,0,2,,,,,,,,,,,,,,,0,64,0,,
58560,set_tempo,720,1,0,,,,,,,,,,,,472441,,,,,,,
58560,note_on,720,0,1,,,,,,,,,,,,,,,0,,,71,0
58560,note_on,0,0,1,,,,,,,,,,,,,,,0,,,50,66
58560,note_on,0,0,2,,,,,,,,,,,,,,,0,,,59,0
58560,note_on,0,0,2,,,,,,,,,,,,,,,0,,,62,0
58560,note_on,56,0,2,,,,,,,,,,,,,,,0,,,54,0
59040,note_on,480,0,2,,,,,,,,,,,,,,,0,,,59,38
59040,note_on,0,0,2,,,,,,,,,,,,,,,0,,,65,43
59280,note_on,0,0,1,,,,,,,,,,,,,,,0,,,55,58
59280,note_on,720,0,1,,,,,,,,,,,,,,,0,,,50,0
59520,note_on,0,0,2,,,,,,,,,,,,,,,0,,,64,38
59520,note_on,480,0,2,,,,,,,,,,,,,,,0,,,65,0
59520,note_on,0,0,2,,,,,,,,,,,,,,,0,,,59,0
59520,note_on,240,0,1,,,,,,,,,,,,,,,0,,,55,0
59520,set_tempo,960,1,0,,,,,,,,,,,,433213,,,,,,,
59520,note_on,0,0,2,,,,,,,,,,,,,,,0,,,60,34
59520,note_on,0,0,1,,,,,,,,,,,,,,,0,,,52,65
59680,note_on,0,0,1,,,,,,,,,,,,,,,0,,,53,57
59680,note_on,160,0,1,,,,,,,,,,,,,,,0,,,52,0
59840,note_on,160,0,1,,,,,,,,,,,,,,,0,,,53,0
59840,note_on,0,0,1,,,,,,,,,,,,,,,0,,,52,55
60000,note_on,0,0,1,,,,,,,,,,,,,,,0,,,50,63
60000,set_tempo,480,1,0,,,,,,,,,,,,472441,,,,,,,
60000,note_on,480,0,2,,,,,,,,,,,,,,,0,,,64,0
60000,note_on,0,0,2,,,,,,,,,,,,,,,0,,,60,0
60000,note_on,0,0,2,,,,,,,,,,,,,,,0,,,60,34
60000,note_on,0,0,2,,,,,,,,,,,,,,,0,,,64,38
60000,note_on,160,0,1,,,,,,,,,,,,,,,0,,,52,0
60240,note_on,0,0,1,,,,,,,,,,,,,,,0,,,48,57
60240,note_on,240,0,1,,,,,,,,,,,,,,,0,,,50,0
60480,set_tempo,480,1,0,,,,,,,,,,,,476190,,,,,,,
60480,note_on,0,0,2,,,,,,,,,,,,,,,0,,,60,0
60480,note_on,240,0,1,,,,,,,,,,,,,,,0,,,48,0
60480,note_on,0,0,1,,,,,,,,,,,,,,,0,,,50,64
60480,note_on,480,0,2,,,,,,,,,,,,,,,0,,,64,0
60480,note_on,0,0,2,,,,,,,,,,,,,,,0,,,65,46
60480,note_on,0,0,2,,,,,,,,,,,,,,,0,,,55,41
60480,note_on,0,0,2,,,,,,,,,,,,,,,0,,,59,41
60840,note_on,360,0,1,,,,,,,,,,,,,,,0,,,50,0
60840,note_on,0,0,1,,,,,,,,,,,,,,,0,,,43,55
60960,note_on,120,0,1,,,,,,,,,,,,,,,0,,,43,0
60960,note_on,0,0,1,,,,,,,,,,,,,,,0,,,50,64
60960,note_on,0,0,2,,,,,,,,,,,,,,,0,,,65,38
60960,note_on,0,0,2,,,,,,,,,,,,,,,0,,,59,34
60960,note_on,0,0,2,,,,,,,,,,,,,,,0,,,55,34
60960,note_on,0,0,2,,,,,,,,,,,,,,,0,,,55,0
60960,note_on,0,0,2,,,,,,,,,,,,,,,0,,,59,0
60960,note_on,480,0,2,,,,,,,,,,,,,,,0,,,65,0
61440,note_on,0,0,2,,,,,,,,,,,,,,,0,,,64,38
61440,note_on,0,0,2,,,,,,,,,,,,,,,0,,,60,34
61440,note_on,0,0,2,,,,,,,,,,,,,,,0,,,55,0
61440,note_on,0,0,2,,,,,,,,,,,,,,,0,,,59,0
61440,note_on,480,0,1,,,,,,,,,,,,,,,0,,,50,0
61440,note_on,0,0,1,,,,,,,,,,,,,,,0,,,48,59
61440,note_on,480,0,2,,,,,,,,,,,,,,,0,,,65,0
61920,note_on,480,0,2,,,,,,,,,,,,,,,0,,,64,0
61920,note_on,0,0,2,,,,,,,,,,,,,,,0,,,60,0
61920,note_on,480,0,1,,,,,,,,,,,,,,,0,,,48,0
61920,set_tempo,1440,1,0,,,,,,,,,,,,472441,,,,,,,
61920,note_on,0,0,1,,,,,,,,,,,,,,,0,,,50,66
61920,note_on,0,0,2,,,,,,,,,,,,,,,0,,,65,43
61920,note_on,0,0,2,,,,,,,,,,,,,,,0,,,59,38
62160,note_on,240,0,1,,,,,,,,,,,,,,,0,,,50,0
62160,note_on,0,0,1,,,,,,,,,,,,,,,0,,,55,58
62400,note_on,240,0,1,,,,,,,,,,,,,,,0,,,55,0
62400,note_on,0,0,1,,,,,,,,,,,,,,,0,,,52,65
62400,set_tempo,480,1,0,,,,,,,,,,,,433213,,,,,,,
62400,note_on,0,0,2,,,,,,,,,,,,,,,0,,,64,38
62400,note_on,0,0,2,,,,,,,,,,,,,,,0,,,60,34
62400,note_on,0,0,2,,,,,,,,,,,,,,,0,,,59,0
62400,note_on,480,0,2,,,,,,,,,,,,,,,0,,,65,0
62560,note_on,0,0,1,,,,,,,,,,,,,,,0,,,53,57
62560,note_on,160,0,1,,,,,,,,,,,,,,,0,,,52,0
62720,note_on,160,0,1,,,,,,,,,,,,,,,0,,,53,0
62720,note_on,0,0,1,,,,,,,,,,,,,,,0,,,52,55
62880,note_on,480,0,2,,,,,,,,,,,,,,,0,,,64,0
62880,set_tempo,480,1,0,,,,,,,,,,,,472441,,,,,,,
62880,note_on,0,0,1,,,,,,,,,,,,,,,0,,,50,63
62880,note_on,160,0,1,,,,,,,,,,,,,,,0,,,52,0
62880,note_on,0,0,2,,,,,,,,,,,,,,,0,,,60,0
62880,note_on,0,0,2,,,,,,,,,,,,,,,0,,,60,34
62880,note_on,0,0,2,,,,,,,,,,,,,,,0,,,64,38
63120,note_on,0,0,1,,,,,,,,,,,,,,,0,,,48,57
63120,note_on,240,0,1,,,,,,,,,,,,,,,0,,,50,0
63360,set_tempo,480,1,0,,,,,,,,,,,,476190,,,,,,,
63360,note_on,0,0,2,,,,,,,,,,,,,,,0,,,65,46
63360,note_on,0,0,2,,,,,,,,,,,,,,,0,,,55,41
63360,note_on,0,0,2,,,,,,,,,,,,,,,0,,,59,41
63360,note_on,480,0,2,,,,,,,,,,,,,,,0,,,64,0
63360,note_on,0,0,1,,,,,,,,,,,,,,,0,,,50,64
63360,note_on,240,0,1,,,,,,,,,,,,,,,0,,,48,0
63360,note_on,0,0,2,,,,,,,,,,,,,,,0,,,60,0
63720,note_on,0,0,1,,,,,,,,,,,,,,,0,,,43,54
63720,note_on,360,0,1,,,,,,,,,,,,,,,0,,,50,0
63840,note_on,0,0,2,,,,,,,,,,,,,,,0,,,55,0
63840,note_on,0,0,2,,,,,,,,,,,,,,,0,,,55,33
63840,note_on,0,0,2,,,,,,,,,,,,,,,0,,,59,33
63840,note_on,0,0,2,,,,,,,,,,,,,,,0,,,65,37
63840,note_on,480,0,2,,,,,,,,,,,,,,,0,,,65,0
63840,note_on,0,0,1,,,,,,,,,,,,,,,0,,,50,62
63840,note_on,120,0,1,,,,,,,,,,,,,,,0,,,43,0
63840,note_on,0,0,2,,,,,,,,,,,,,,,0,,,59,0
64320,note_on,0,0,2,,,,,,,,,,,,,,,0,,,59,0
64320,note_on,0,0,2,,,,,,,,,,,,,,,0,,,55,0
64320,note_on,0,0,2,,,,,,,,,,,,,,,0,,,60,32
64320,note_on,0,0,2,,,,,,,,,,,,,,,0,,,64,36
64320,note_on,480,0,1,,,,,,,,,,,,,,,0,,,50,0
64320,note_on,480,0,2,,,,,,,,,,,,,,,0,,,65,0
64320,note_on,0,0,1,,,,,,,,,,,,,,,0,,,48,56
64800,note_on,0,0,2,,,,,,,,,,,,,,,0,,,59,38
64800,note_on,480,0,1,,,,,,,,,,,,,,,0,,,48,0
64800,set_tempo,1440,1,0,,,,,,,,,,,,452830,,,,,,,
64800,note_on,480,0,2,,,,,,,,,,,,,,,0,,,64,0
64800,note_on,0,0,2,,,,,,,,,,,,,,,0,,,60,0
64800,note_on,0,0,2,,,,,,,,,,,,,,,0,,,55,38
64800,note_on,0,0,2,,,,,,,,,,,,,,,0,,,65,43
64800,note_on,0,0,1,,,,,,,,,,,,,,,0,,,50,60
65160,note_on,0,0,1,,,,,,,,,,,,,,,0,,,43,51
65160,note_on,360,0,1,,,,,,,,,,,,,,,0,,,50,0
65280,note_on,0,0,2,,,,,,,,,,,,,,,0,,,55,0
65280,note_on,0,0,1,,,,,,,,,,,,,,,0,,,48,58
65280,note_on,480,0,2,,,,,,,,,,,,,,,0,,,65,0
65280,note_on,0,0,2,,,,,,,,,,,,,,,0,,,59,0
65280,note_on,0,0,2,,,,,,,,,,,,,,,0,,,60,31
65280,set_tempo,480,1,0,,,,,,,,,,,,487805,,,,,,,
65280,note_on,120,0,1,,,,,,,,,,,,,,,0,,,43,0
65280,note_on,0,0,2,,,,,,,,,,,,,,,0,,,64,34
65760,set_tempo,480,1,0,,,,,,,,,,,,466926,,,,,,,
65760,note_on,0,0,1,,,,,,,,,,,,,,,0,,,50,57
65760,note_on,480,0,1,,,,,,,,,,,,,,,0,,,48,0
65760,note_on,0,0,2,,,,,,,,,,,,,,,0,,,60,0
65760,note_on,0,0,2,,,,,,,,,,,,,,,0,,,55,36
65760,note_on,0,0,2,,,,,,,,,,,,,,,0,,,59,36
65760,note_on,0,0,2,,,,,,,,,,,,,,,0,,,65,41
65760,note_on,480,0,2,,,,,,,,,,,,,,,0,,,64,0
66120,note_on,360,0,1,,,,,,,,,,,,,,,0,,,50,0
66120,note_on,0,0,1,,,,,,,,,,,,,,,0,,,43,48
66240,note_on,480,0,2,,,,,,,,,,,,,,,0,,,65,0
66240,note_on,0,0,2,,,,,,,,,,,,,,,0,,,59,0
66240,note_on,0,0,2,,,,,,,,,,,,,,,0,,,55,0
66240,note_on,0,0,2,,,,,,,,,,,,,,,0,,,60,29
66240,note_on,0,0,2,,,,,,,,,,,,,,,0,,,64,29
66240,note_on,120,0,1,,,,,,,,,,,,,,,0,,,43,0
66240,note_on,0,0,1,,,,,,,,,,,,,,,0,,,48,56
66240,set_tempo,480,1,0,,,,,,,,,,,,493827,,,,,,,
66720,note_on,0,0,2,,,,,,,,,,,,,,,0,,,65,39
66720,note_on,0,0,2,,,,,,,,,,,,,,,0,,,60,0
66720,note_on,0,0,2,,,,,,,,,,,,,,,0,,,55,35
66720,note_on,480,0,2,,,,,,,,,,,,,,,0,,,64,0
66720,note_on,480,0,1,,,,,,,,,,,,,,,0,,,48,0
66720,note_on,0,0,1,,,,,,,,,,,,,,,0,,,50,55
66720,note_on,0,0,2,,,,,,,,,,,,,,,0,,,59,35
66720,set_tempo,480,1,0,,,,,,,,,,,,470588,,,,,,,
67080,note_on,0,0,1,,,,,,,,,,,,,,,0,,,43,46
67080,note_on,360,0,1,,,,,,,,,,,,,,,0,,,50,0
67200,note_on,120,0,1,,,,,,,,,,,,,,,0,,,43,0
67200,note_on,0,0,1,,,,,,,,,,,,,,,0,,,48,53
67200,note_on,0,0,2,,,,,,,,,,,,,,,0,,,64,31
67200,set_tempo,480,1,0,,,,,,,,,,,,502092,,,,,,,
67200,note_on,480,0,2,,,,,,,,,,,,,,,0,,,65,0
67200,note_on,0,0,2,,,,,,,,,,,,,,,0,,,59,0
67200,note_on,0,0,2,,,,,,,,,,,,,,,0,,,55,0
67200,note_on,0,0,2,,,,,,,,,,,,,,,0,,,60,28
67680,note_on,0,0,2,,,,,,,,,,,,,,,0,,,55,52
67680,note_on,0,0,2,,,,,,,,,,,,,,,0,,,60,0
67680,note_on,480,0,2,,,,,,,,,,,,,,,0,,,64,0
67680,note_on,480,0,1,,,,,,,,,,,,,,,0,,,48,0
67680,note_on,0,0,1,,,,,,,,,,,,,,,0,,,43,52
69120,note_on,0,0,2,,,,,,,,,,,,,,,0,,,54,59
69120,note_on,1440,0,2,,,,,,,,,,,,,,,0,,,55,0
69120,note_on,0,0,1,,,,,,,,,,,,,,,0,,,42,60
69120,set_tempo,1920,1,0,,,,,,,,,,,,515021,,,,,,,
69120,note_on,1440,0,1,,,,,,,,,,,,,,,0,,,43,0
70080,note_on,960,0,1,,,,,,,,,,,,,,,0,,,42,0
70080,note_on,0,0,2,,,,,,,,,,,,,,,0,,,53,62
70080,set_tempo,960,1,0,,,,,,,,,,,,582524,,,,,,,
70080,note_on,960,0,2,,,,,,,,,,,,,,,0,,,54,0
70080,note_on,0,0,1,,,,,,,,,,,,,,,0,,,41,66
70560,set_tempo,0,1,0,,,,,,,,,,,,400000,,,,,,,
70560,note_on,480,0,2,,,,,,,,,,,,,,,0,,,53,0
70560,note_on,0,0,2,,,,,,,,,,,,,,,0,,,34,74
70560,note_on,480,0,1,,,,,,,,,,,,,,,0,,,41,0
70560,key_signature,480,1,0,,,,,,,,,,,Bb,,,,,,,,
70659,control_change,99,0,2,,,,,,,,,,,,,,,0,64,127,,
70800,note_on,141,0,2,,,,,,,,,,,,,,,0,,,34,0
71040,note_on,0,0,1,,,,,,,,,,,,,,,0,,,70,68
71040,note_on,480,0,1,,,,,,,,,,,,,,,0,,,65,68
71040,note_on,0,0,1,,,,,,,,,,,,,,,0,,,74,80
71040,set_tempo,480,1,0,,,,,,,,,,,,377358,,,,,,,
71040,note_on,240,0,2,,,,,,,,,,,,,,,0,,,53,54
71040,note_on,0,0,2,,,,,,,,,,,,,,,0,,,62,64
71040,note_on,0,0,2,,,,,,,,,,,,,,,0,,,58,54
71520,note_on,0,0,1,,,,,,,,,,,,,,,0,,,75,80
71520,note_on,0,0,1,,,,,,,,,,,,,,,0,,,70,68
71520,note_on,480,0,2,,,,,,,,,,,,,,,0,,,58,0
71520,note_on,0,0,1,,,,,,,,,,,,,,,0,,,65,0
71520,note_on,0,0,1,,,,,,,,,,,,,,,0,,,70,0
71520,note_on,480,0,1,,,,,,,,,,,,,,,0,,,74,0
71520,note_on,0,0,2,,,,,,,,,,,,,,,0,,,62,0
71520,note_on,0,0,2,,,,,,,,,,,,,,,0,,,54,64
71520,note_on,0,0,2,,,,,,,,,,,,,,,0,,,58,64
71520,note_on,0,0,2,,,,,,,,,,,,,,,0,,,63,64
71520,note_on,0,0,2,,,,,,,,,,,,,,,0,,,53,0
71520,note_on,0,0,1,,,,,,,,,,,,,,,0,,,66,68
72000,note_on,480,0,1,,,,,,,,,,,,,,,0,,,75,0
72000,note_on,0,0,1,,,,,,,,,,,,,,,0,,,78,86
72000,note_on,0,0,1,,,,,,,,,,,,,,,0,,,70,0
72000,note_on,0,0,1,,,,,,,,,,,,,,,0,,,66,0
72000,note_on,480,0,2,,,,,,,,,,,,,,,0,,,54,0
72000,note_on,0,0,2,,,,,,,,,,,,,,,0,,,63,0
72000,note_on,0,0,2,,,,,,,,,,,,,,,0,,,46,73
72000,control_change,0,0,2,,,,,,,,,,,,,,,0,64,0,,
72000,set_tempo,960,1,0,,,,,,,,,,,,361446,,,,,,,
72000,note_on,0,0,2,,,,,,,,,,,,,,,0,,,58,0
72097,control_change,97,0,2,,,,,,,,,,,,,,,0,64,127,,
72120,note_on,120,0,1,,,,,,,,,,,,,,,0,,,78,0
72240,note_on,143,0,2,,,,,,,,,,,,,,,0,,,46,0
72360,set_tempo,360,1,0,,,,,,,,,,,,342857,,,,,,,
72360,note_on,0,0,1,,,,,,,,,,,,,,,0,,,74,61
72360,note_on,240,0,1,,,,,,,,,,,,,,,0,,,77,80
72460,set_tempo,100,1,0,,,,,,,,,,,,349854,,,,,,,
72480,note_on,120,0,1,,,,,,,,,,,,,,,0,,,74,0
72480,note_on,0,0,1,,,,,,,,,,,,,,,0,,,72,61
72480,note_on,0,0,2,,,,,,,,,,,,,,,0,,,58,57
72480,note_on,0,0,2,,,,,,,,,,,,,,,0,,,62,57
72480,note_on,240,0,2,,,,,,,,,,,,,,,0,,,65,68
72840,note_on,360,0,1,,,,,,,,,,,,,,,0,,,72,0
72840,note_on,0,0,1,,,,,,,,,,,,,,,0,,,77,0
72840,note_on,0,0,1,,,,,,,,,,,,,,,0,,,74,61
72840,note_on,0,0,1,,,,,,,,,,,,,,,0,,,77,80
72960,set_tempo,500,1,0,,,,,,,,,,,,384615,,,,,,,
72960,note_on,480,0,2,,,,,,,,,,,,,,,0,,,53,68
72960,note_on,120,0,1,,,,,,,,,,,,,,,0,,,74,0
72960,note_on,0,0,1,,,,,,,,,,,,,,,0,,,70,80
73057,control_change,97,0,2,,,,,,,,,,,,,,,0,64,0,,
73320,note_on,360,0,1,,,,,,,,,,,,,,,0,,,77,0
73440,note_on,0,0,2,,,,,,,,,,,,,,,0,,,58,0
73440,note_on,0,0,1,,,,,,,,,,,,,,,0,,,82,85
73440,note_on,120,0,1,,,,,,,,,,,,,,,0,,,70,0
73440,note_on,0,0,2,,,,,,,,,,,,,,,0,,,62,0
73440,note_on,0,0,2,,,,,,,,,,,,,,,0,,,65,0
73440,note_on,383,0,2,,,,,,,,,,,,,,,0,,,53,0
73440,note_on,0,0,2,,,,,,,,,,,,,,,0,,,34,72
73560,control_change,120,0,2,,,,,,,,,,,,,,,0,64,127,,
73680,note_on,120,0,2,,,,,,,,,,,,,,,0,,,34,0
73680,note_on,240,0,1,,,,,,,,,,,,,,,0,,,82,0
73920,note_on,0,0,1,,,,,,,,,,,,,,,0,,,74,80
73920,note_on,0,0,1,,,,,,,,,,,,,,,0,,,70,68
73920,note_on,240,0,1,,,,,,,,,,,,,,,0,,,65,68
73920,set_tempo,960,1,0,,,,,,,,,,,,377358,,,,,,,
73920,note_on,0,0,2,,,,,,,,,,,,,,,0,,,58,54
73920,note_on,0,0,2,,,,,,,,,,,,,,,0,,,62,64
73920,note_on,240,0,2,,,,,,,,,,,,,,,0,,,53,54
74400,note_on,0,0,1,,,,,,,,,,,,,,,0,,,70,68
74400,note_on,0,0,2,,,,,,,,,,,,,,,0,,,58,64
74400,note_on,0,0,2,,,,,,,,,,,,,,,0,,,63,64
74400,note_on,0,0,2,,,,,,,,,,,,,,,0,,,53,0
74400,note_on,0,0,2,,,,,,,,,,,,,,,0,,,62,0
74400,note_on,0,0,1,,,,,,,,,,,,,,,0,,,75,80
74400,note_on,0,0,2,,,,,,,,,,,,,,,0,,,54,64
74400,note_on,480,0,1,,,,,,,,,,,,,,,0,,,74,0
74400,note_on,0,0,1,,,,,,,,,,,,,,,0,,,70,0
74400,note_on,0,0,1,,,,,,,,,,,,,,,0,,,65,0
74400,note_on,480,0,2,,,,,,,,,,,,,,,0,,,58,0
74400,note_on,0,0,1,,,,,,,,,,,,,,,0,,,66,68
74880,control_change,0,0,2,,,,,,,,,,,,,,,0,64,0,,
74880,note_on,480,0,1,,,,,,,,,,,,,,,0,,,75,0
74880,note_on,0,0,1,,,,,,,,,,,,,,,0,,,70,0
74880,note_on,0,0,1,,,,,,,,,,,,,,,0,,,66,0
74880,note_on,0,0,1,,,,,,,,,,,,,,,0,,,78,86
74880,note_on,0,0,2,,,,,,,,,,,,,,,0,,,46,73
74880,note_on,480,0,2,,,,,,,,,,,,,,,0,,,54,0
74880,note_on,0,0,2,,,,,,,,,,,,,,,0,,,58,0
74880,note_on,0,0,2,,,,,,,,,,,,,,,0,,,63,0
74880,set_tempo,960,1,0,,,,,,,,,,,,361446,,,,,,,
74977,control_change,97,0,2,,,,,,,,,,,,,,,0,64,127,,
75000,note_on,120,0,1,,,,,,,,,,,,,,,0,,,78,0
75120,note_on,143,0,2,,,,,,,,,,,,,,,0,,,46,0
75240,note_on,0,0,1,,,,,,,,,,,,,,,0,,,74,61
75240,note_on,240,0,1,,,,,,,,,,,,,,,0,,,77,80
75240,set_tempo,360,1,0,,,,,,,,,,,,343840,,,,,,,
75360,set_tempo,120,1,0,,,,,,,,,,,,351906,,,,,,,
75360,note_on,0,0,2,,,,,,,,,,,,,,,0,,,58,57
75360,note_on,0,0,1,,,,,,,,,,,,,,,0,,,72,61
75360,note_on,0,0,2,,,,,,,,,,,,,,,0,,,62,57
75360,note_on,240,0,2,,,,,,,,,,,,,,,0,,,65,68
75360,note_on,120,0,1,,,,,,,,,,,,,,,0,,,74,0
75720,note_on,0,0,1,,,,,,,,,,,,,,,0,,,77,0
75720,note_on,0,0,1,,,,,,,,,,,,,,,0,,,74,61
75720,note_on,0,0,1,,,,,,,,,,,,,,,0,,,77,80
75720,note_on,360,0,1,,,,,,,,,,,,,,,0,,,72,0
75840,note_on,0,0,1,,,,,,,,,,,,,,,0,,,70,80
75840,note_on,120,0,1,,,,,,,,,,,,,,,0,,,74,0
75840,note_on,480,0,2,,,,,,,,,,,,,,,0,,,53,68
75840,set_tempo,480,1,0,,,,,,,,,,,,384615,,,,,,,
75937,control_change,97,0,2,,,,,,,,,,,,,,,0,64,0,,
76200,note_on,360,0,1,,,,,,,,,,,,,,,0,,,77,0
76320,note_on,120,0,1,,,,,,,,,,,,,,,0,,,70,0
76320,set_tempo,480,1,0,,,,,,,,,,,,400000,,,,,,,
76320,note_on,383,0,2,,,,,,,,,,,,,,,0,,,53,0
76320,note_on,0,0,2,,,,,,,,,,,,,,,0,,,65,0
76320,note_on,0,0,2,,,,,,,,,,,,,,,0,,,62,0
76320,note_on,0,0,2,,,,,,,,,,,,,,,0,,,58,0
76320,note_on,0,0,2,,,,,,,,,,,,,,,0,,,34,79
76419,control_change,99,0,2,,,,,,,,,,,,,,,0,64,127,,
76560,note_on,141,0,2,,,,,,,,,,,,,,,0,,,34,0
76800,note_on,0,0,2,,,,,,,,,,,,,,,0,,,62,64
76800,note_on,0,0,2,,,,,,,,,,,,,,,0,,,58,54
76800,note_on,480,0,1,,,,,,,,,,,,,,,0,,,65,68
76800,note_on,0,0,1,,,,,,,,,,,,,,,0,,,70,68
76800,note_on,0,0,1,,,,,,,,,,,,,,,0,,,74,80
76800,set_tempo,480,1,0,,,,,,,,,,,,377358,,,,,,,
76800,note_on,240,0,2,,,,,,,,,,,,,,,0,,,53,54
77280,note_on,0,0,1,,,,,,,,,,,,,,,0,,,66,68
77280,note_on,0,0,2,,,,,,,,,,,,,,,0,,,53,0
77280,note_on,0,0,1,,,,,,,,,,,,,,,0,,,65,0
77280,note_on,0,0,1,,,,,,,,,,,,,,,0,,,75,80
77280,note_on,0,0,1,,,,,,,,,,,,,,,0,,,70,0
77280,note_on,480,0,1,,,,,,,,,,,,,,,0,,,74,0
77280,note_on,480,0,2,,,,,,,,,,,,,,,0,,,58,0
77280,note_on,0,0,2,,,,,,,,,,,,,,,0,,,62,0
77280,note_on,0,0,1,,,,,,,,,,,,,,,0,,,70,68
77280,note_on,0,0,2,,,,,,,,,,,,,,,0,,,58,64
77280,note_on,0,0,2,,,,,,,,,,,,,,,0,,,54,64
77280,note_on,0,0,2,,,,,,,,,,,,,,,0,,,63,64
77760,note_on,0,0,2,,,,,,,,,,,,,,,0,,,46,73
77760,note_on,480,0,2,,,,,,,,,,,,,,,0,,,54,0
77760,note_on,0,0,2,,,,,,,,,,,,,,,0,,,58,0
77760,note_on,0,0,2,,,,,,,,,,,,,,,0,,,63,0
77760,set_tempo,960,1,0,,,,,,,,,,,,361446,,,,,,,
77760,note_on,480,0,1,,,,,,,,,,,,,,,0,,,75,0
77760,control_change,0,0,2,,,,,,,,,,,,,,,0,64,0,,
77760,note_on,0,0,1,,,,,,,,,,,,,,,0,,,78,86
77760,note_on,0,0,1,,,,,,,,,,,,,,,0,,,70,0
77760,note_on,0,0,1,,,,,,,,,,,,,,,0,,,66,0
77857,control_change,97,0,2,,,,,,,,,,,,,,,0,64,127,,
77880,note_on,120,0,1,,,,,,,,,,,,,,,0,,,78,0
78000,note_on,143,0,2,,,,,,,,,,,,,,,0,,,46,0
78120,note_on,0,0,1,,,,,,,,,,,,,,,0,,,74,61
78120,note_on,240,0,1,,,,,,,,,,,,,,,0,,,77,80
78120,set_tempo,360,1,0,,,,,,,,,,,,342857,,,,,,,
78240,note_on,0,0,1,,,,,,,,,,,,,,,0,,,72,61
78240,note_on,120,0,1,,,,,,,,,,,,,,,0,,,74,0
78240,set_tempo,120,1,0,,,,,,,,,,,,347826,,,,,,,
78240,note_on,0,0,2,,,,,,,,,,,,,,,0,,,58,57
78240,note_on,240,0,2,,,,,,,,,,,,,,,0,,,65,68
78240,note_on,0,0,2,,,,,,,,,,,,,,,0,,,62,57
78600,note_on,0,0,1,,,,,,,,,,,,,,,0,,,74,61
78600,note_on,0,0,1,,,,,,,,,,,,,,,0,,,77,80
78600,note_on,360,0,1,,,,,,,,,,,,,,,0,,,72,0
78600,note_on,0,0,1,,,,,,,,,,,,,,,0,,,77,0
78720,note_on,480,0,2,,,,,,,,,,,,,,,0,,,53,68
78720,set_tempo,480,1,0,,,,,,,,,,,,384615,,,,,,,
78720,note_on,120,0,1,,,,,,,,,,,,,,,0,,,74,0
78720,note_on,0,0,1,,,,,,,,,,,,,,,0,,,70,80
78817,control_change,97,0,2,,,,,,,,,,,,,,,0,64,0,,
79080,note_on,360,0,1,,,,,,,,,,,,,,,0,,,77,0
79200,note_on,0,0,1,,,,,,,,,,,,,,,0,,,94,85
79200,note_on,0,0,1,,,,,,,,,,,,,,,0,,,82,80
79200,note_on,0,0,2,,,,,,,,,,,,,,,0,,,34,69
79200,note_on,383,0,2,,,,,,,,,,,,,,,0,,,53,0
79200,note_on,120,0,1,,,,,,,,,,,,,,,0,,,70,0
79200,note_on,0,0,2,,,,,,,,,,,,,,,0,,,62,0
79200,note_on,0,0,2,,,,,,,,,,,,,,,0,,,46,72
79200,note_on,0,0,2,,,,,,,,,,,,,,,0,,,65,0
79200,note_on,0,0,2,,,,,,,,,,,,,,,0,,,58,0
79320,control_change,120,0,2,,,,,,,,,,,,,,,0,64,127,,
79440,note_on,120,0,2,,,,,,,,,,,,,,,0,,,34,0
79440,note_on,0,0,2,,,,,,,,,,,,,,,0,,,46,0
79440,note_on,0,0,1,,,,,,,,,,,,,,,0,,,94,0
79440,note_on,240,0,1,,,,,,,,,,,,,,,0,,,82,0
79680,note_on,0,0,2,,,,,,,,,,,,,,,0,,,62,64
79680,note_on,240,0,2,,,,,,,,,,,,,,,0,,,53,54
79680,set_tempo,960,1,0,,,,,,,,,,,,377358,,,,,,,
79680,note_on,0,0,1,,,,,,,,,,,,,,,0,,,74,80
79680,note_on,0,0,1,,,,,,,,,,,,,,,0,,,70,68
79680,note_on,240,0,1,,,,,,,,,,,,,,,0,,,65,68
79680,note_on,0,0,2,,,,,,,,,,,,,,,0,,,58,54
80160,note_on,480,0,2,,,,,,,,,,,,,,,0,,,58,0
80160,note_on,0,0,2,,,,,,,,,,,,,,,0,,,62,0
80160,note_on,0,0,1,,,,,,,,,,,,,,,0,,,75,80
80160,note_on,0,0,1,,,,,,,,,,,,,,,0,,,70,68
80160,note_on,0,0,1,,,,,,,,,,,,,,,0,,,66,68
80160,note_on,0,0,1,,,,,,,,,,,,,,,0,,,65,0
80160,note_on,0,0,1,,,,,,,,,,,,,,,0,,,70,0
80160,note_on,480,0,1,,,,,,,,,,,,,,,0,,,74,0
80160,note_on,0,0,2,,,,,,,,,,,,,,,0,,,54,64
80160,note_on,0,0,2,,,,,,,,,,,,,,,0,,,58,64
80160,note_on,0,0,2,,,,,,,,,,,,,,,0,,,63,64
80160,note_on,0,0,2,,,,,,,,,,,,,,,0,,,53,0
80640,note_on,0,0,1,,,,,,,,,,,,,,,0,,,66,0
80640,note_on,0,0,1,,,,,,,,,,,,,,,0,,,78,86
80640,note_on,0,0,2,,,,,,,,,,,,,,,0,,,46,73
80640,note_on,480,0,2,,,,,,,,,,,,,,,0,,,54,0
80640,note_on,0,0,2,,,,,,,,,,,,,,,0,,,58,0
80640,note_on,0,0,2,,,,,,,,,,,,,,,0,,,63,0
80640,control_change,0,0,2,,,,,,,,,,,,,,,0,64,0,,
80640,set_tempo,960,1,0,,,,,,,,,,,,361446,,,,,,,
80640,note_on,0,0,1,,,,,,,,,,,,,,,0,,,70,0
80640,note_on,480,0,1,,,,,,,,,,,,,,,0,,,75,0
80737,control_change,97,0,2,,,,,,,,,,,,,,,0,64,127,,
80760,note_on,120,0,1,,,,,,,,,,,,,,,0,,,78,0
80880,note_on,143,0,2,,,,,,,,,,,,,,,0,,,46,0
81000,note_on,0,0,1,,,,,,,,,,,,,,,0,,,74,61
81000,note_on,240,0,1,,,,,,,,,,,,,,,0,,,77,80
81000,set_tempo,360,1,0,,,,,,,,,,,,344828,,,,,,,
81120,note_on,0,0,2,,,,,,,,,,,,,,,0,,,58,57
81120,note_on,0,0,2,,,,,,,,,,,,,,,0,,,62,57
81120,set_tempo,120,1,0,,,,,,,,,,,,349854,,,,,,,
81120,note_on,240,0,2,,,,,,,,,,,,,,,0,,,65,68
81120,note_on,120,0,1,,,,,,,,,,,,,,,0,,,74,0
81120,note_on,0,0,1,,,,,,,,,,,,,,,0,,,72,61
81480,note_on,360,0,1,,,,,,,,,,,,,,,0,,,72,0
81480,note_on,0,0,1,,,,,,,,,,,,,,,0,,,77,0
81480,note_on,0,0,1,,,,,,,,,,,,,,,0,,,74,61
81480,note_on,0,0,1,,,,,,,,,,,,,,,0,,,77,80
81600,set_tempo,480,1,0,,,,,,,,,,,,384615,,,,,,,
81600,note_on,480,0,2,,,,,,,,,,,,,,,0,,,53,68
81600,note_on,0,0,1,,,,,,,,,,,,,,,0,,,70,80
81600,note_on,120,0,1,,,,,,,,,,,,,,,0,,,74,0
81697,control_change,97,0,2,,,,,,,,,,,,,,,0,64,0,,
81960,note_on,360,0,1,,,,,,,,,,,,,,,0,,,77,0
82080,set_tempo,480,1,0,,,,,,,,,,,,400000,,,,,,,
82080,note_on,383,0,2,,,,,,,,,,,,,,,0,,,53,0
82080,note_on,0,0,2,,,,,,,,,,,,,,,0,,,65,0
82080,note_on,0,0,2,,,,,,,,,,,,,,,0,,,62,0
82080,note_on,0,0,2,,,,,,,,,,,,,,,0,,,39,81
82080,note_on,0,0,2,,,,,,,,,,,,,,,0,,,58,0
82080,note_on,120,0,1,,,,,,,,,,,,,,,0,,,70,0
82179,control_change,99,0,2,,,,,,,,,,,,,,,0,64,127,,
82320,note_on,141,0,2,,,,,,,,,,,,,,,0,,,39,0
82560,note_on,240,0,2,,,,,,,,,,,,,,,0,,,58,54
82560,note_on,0,0,2,,,,,,,,,,,,,,,0,,,67,64
82560,note_on,0,0,2,,,,,,,,,,,,,,,0,,,63,54
82560,note_on,0,0,1,,,,,,,,,,,,,,,0,,,75,68
82560,note_on,480,0,1,,,,,,,,,,,,,,,0,,,70,68
82560,note_on,0,0,1,,,,,,,,,,,,,,,0,,,79,80
82560,set_tempo,480,1,0,,,,,,,,,,,,377358,,,,,,,
83040,note_on,0,0,1,,,,,,,,,,,,,,,0,,,80,80
83040,note_on,0,0,2,,,,,,,,,,,,,,,0,,,59,64
83040,note_on,0,0,2,,,,,,,,,,,,,,,0,,,63,64
83040,note_on,0,0,2,,,,,,,,,,,,,,,0,,,68,64
83040,note_on,0,0,2,,,,,,,,,,,,,,,0,,,58,0
83040,note_on,0,0,2,,,,,,,,,,,,,,,0,,,67,0
83040,note_on,480,0,1,,,,,,,,,,,,,,,0,,,79,0
83040,note_on,0,0,1,,,,,,,,,,,,,,,0,,,75,0
83040,note_on,0,0,1,,,,,,,,,,,,,,,0,,,70,0
83040,note_on,0,0,1,,,,,,,,,,,,,,,0,,,71,68
83040,note_on,0,0,1,,,,,,,,,,,,,,,0,,,75,68
83040,note_on,480,0,2,,,,,,,,,,,,,,,0,,,63,0
83520,note_on,0,0,1,,,,,,,,,,,,,,,0,,,83,88
83520,note_on,0,0,1,,,,,,,,,,,,,,,0,,,71,0
83520,note_on,480,0,2,,,,,,,,,,,,,,,0,,,59,0
83520,note_on,480,0,1,,,,,,,,,,,,,,,0,,,80,0
83520,note_on,0,0,2,,,,,,,,,,,,,,,0,,,63,0
83520,control_change,0,0,2,,,,,,,,,,,,,,,0,64,0,,
83520,note_on,0,0,2,,,,,,,,,,,,,,,0,,,51,73
83520,note_on,0,0,2,,,,,,,,,,,,,,,0,,,68,0
83520,set_tempo,960,1,0,,,,,,,,,,,,361446,,,,,,,
83520,note_on,0,0,1,,,,,,,,,,,,,,,0,,,75,0
83617,control_change,97,0,2,,,,,,,,,,,,,,,0,64,127,,
83640,note_on,120,0,1,,,,,,,,,,,,,,,0,,,83,0
83760,note_on,143,0,2,,,,,,,,,,,,,,,0,,,51,0
83880,note_on,240,0,1,,,,,,,,,,,,,,,0,,,82,88
83880,note_on,0,0,1,,,,,,,,,,,,,,,0,,,79,61
84000,note_on,0,0,1,,,,,,,,,,,,,,,0,,,77,61
84000,note_on,120,0,1,,,,,,,,,,,,,,,0,,,79,0
84000,note_on,240,0,2,,,,,,,,,,,,,,,0,,,67,68
84000,note_on,0,0,2,,,,,,,,,,,,,,,0,,,63,57
84000,note_on,0,0,2,,,,,,,,,,,,,,,0,,,58,57
84000,set_tempo,480,1,0,,,,,,,,,,,,350877,,,,,,,
84360,note_on,0,0,1,,,,,,,,,,,,,,,0,,,79,61
84360,note_on,0,0,1,,,,,,,,,,,,,,,0,,,82,0
84360,note_on,360,0,1,,,,,,,,,,,,,,,0,,,77,0
84360,note_on,0,0,1,,,,,,,,,,,,,,,0,,,82,88
84480,note_on,0,0,2,,,,,,,,,,,,,,,0,,,67,0
84480,note_on,480,0,2,,,,,,,,,,,,,,,0,,,58,0
84480,note_on,0,0,2,,,,,,,,,,,,,,,0,,,63,0
84480,note_on,0,0,2,,,,,,,,,,,,,,,0,,,51,68
84480,set_tempo,480,1,0,,,,,,,,,,,,384615,,,,,,,
84480,note_on,120,0,1,,,,,,,,,,,,,,,0,,,79,0
84480,note_on,0,0,1,,,,,,,,,,,,,,,0,,,75,80
84577,control_change,97,0,2,,,,,,,,,,,,,,,0,64,0,,
84840,note_on,360,0,1,,,,,,,,,,,,,,,0,,,82,0
84960,note_on,0,0,1,,,,,,,,,,,,,,,0,,,87,88
84960,note_on,0,0,1,,,,,,,,,,,,,,,0,,,99,93
84960,note_on,120,0,1,,,,,,,,,,,,,,,0,,,75,0
84960,note_on,0,0,2,,,,,,,,,,,,,,,0,,,39,73
84960,note_on,383,0,2,,,,,,,,,,,,,,,0,,,51,0
85080,control_change,120,0,2,,,,,,,,,,,,,,,0,64,127,,
85200,note_on,240,0,1,,,,,,,,,,,,,,,0,,,87,0
85200,note_on,0,0,1,,,,,,,,,,,,,,,0,,,99,0
85200,note_on,120,0,2,,,,,,,,,,,,,,,0,,,39,0
85440,note_on,240,0,2,,,,,,,,,,,,,,,0,,,58,54
85440,note_on,0,0,2,,,,,,,,,,,,,,,0,,,63,54
85440,note_on,0,0,2,,,,,,,,,,,,,,,0,,,67,64
85440,set_tempo,960,1,0,,,,,,,,,,,,377358,,,,,,,
85440,note_on,0,0,1,,,,,,,,,,,,,,,0,,,79,80
85440,note_on,0,0,1,,,,,,,,,,,,,,,0,,,75,68
85440,note_on,240,0,1,,,,,,,,,,,,,,,0,,,70,68
85920,note_on,0,0,2,,,,,,,,,,,,,,,0,,,67,0
85920,note_on,0,0,2,,,,,,,,,,,,,,,0,,,59,64
85920,note_on,0,0,2,,,,,,,,,,,,,,,0,,,63,64
85920,note_on,0,0,2,,,,,,,,,,,,,,,0,,,68,64
85920,note_on,0,0,2,,,,,,,,,,,,,,,0,,,58,0
85920,note_on,0,0,1,,,,,,,,,,,,,,,0,,,75,0
85920,note_on,0,0,1,,,,,,,,,,,,,,,0,,,70,0
85920,note_on,480,0,1,,,,,,,,,,,,,,,0,,,79,0
85920,note_on,0,0,1,,,,,,,,,,,,,,,0,,,80,80
85920,note_on,0,0,1,,,,,,,,,,,,,,,0,,,75,68
85920,note_on,0,0,1,,,,,,,,,,,,,,,0,,,71,68
85920,note_on,480,0,2,,,,,,,,,,,,,,,0,,,63,0
86400,note_on,480,0,2,,,,,,,,,,,,,,,0,,,59,0
86400,note_on,0,0,2,,,,,,,,,,,,,,,0,,,63,0
86400,note_on,0,0,2,,,,,,,,,,,,,,,0,,,51,73
86400,control_change,0,0,2,,,,,,,,,,,,,,,0,64,0,,
86400,note_on,0,0,2,,,,,,,,,,,,,,,0,,,68,0
86400,note_on,0,0,1,,,,,,,,,,,,,,,0,,,75,0
86400,note_on,0,0,1,,,,,,,,,,,,,,,0,,,71,0
86400,note_on,0,0,1,,,,,,,,,,,,,,,0,,,83,87
86400,set_tempo,960,1,0,,,,,,,,,,,,373832,,,,,,,
86400,note_on,480,0,1,,,,,,,,,,,,,,,0,,,80,0
86497,control_change,97,0,2,,,,,,,,,,,,,,,0,64,127,,
86520,note_on,120,0,1,,,,,,,,,,,,,,,0,,,83,0
86640,note_on,143,0,2,,,,,,,,,,,,,,,0,,,51,0
86760,note_on,240,0,1,,,,,,,,,,,,,,,0,,,82,88
86760,note_on,0,0,1,,,,,,,,,,,,,,,0,,,79,61
86880,set_tempo,480,1,0,,,,,,,,,,,,363636,,,,,,,
86880,note_on,0,0,2,,,,,,,,,,,,,,,0,,,61,57
86880,note_on,0,0,2,,,,,,,,,,,,,,,0,,,67,57
86880,note_on,240,0,2,,,,,,,,,,,,,,,0,,,70,68
86880,note_on,0,0,1,,,,,,,,,,,,,,,0,,,77,61
86880,note_on,120,0,1,,,,,,,,,,,,,,,0,,,79,0
87240,note_on,0,0,1,,,,,,,,,,,,,,,0,,,82,0
87240,note_on,0,0,1,,,,,,,,,,,,,,,0,,,79,61
87240,note_on,0,0,1,,,,,,,,,,,,,,,0,,,82,88
87240,note_on,360,0,1,,,,,,,,,,,,,,,0,,,77,0
87360,note_on,120,0,1,,,,,,,,,,,,,,,0,,,79,0
87360,note_on,0,0,1,,,,,,,,,,,,,,,0,,,76,80
87360,set_tempo,480,1,0,,,,,,,,,,,,384615,,,,,,,
87360,note_on,0,0,2,,,,,,,,,,,,,,,0,,,67,0
87360,note_on,0,0,2,,,,,,,,,,,,,,,0,,,70,0
87360,note_on,0,0,2,,,,,,,,,,,,,,,0,,,51,68
87360,note_on,480,0,2,,,,,,,,,,,,,,,0,,,61,0
87457,control_change,97,0,2,,,,,,,,,,,,,,,0,64,0,,
87720,note_on,360,0,1,,,,,,,,,,,,,,,0,,,82,0
87840,note_on,0,0,2,,,,,,,,,,,,,,,0,,,39,73
87840,note_on,383,0,2,,,,,,,,,,,,,,,0,,,51,0
87896,control_change,56,0,2,,,,,,,,,,,,,,,0,64,127,,
88080,note_on,184,0,2,,,,,,,,,,,,,,,0,,,39,0
88320,note_on,240,0,2,,,,,,,,,,,,,,,0,,,61,65
88320,set_tempo,960,1,0,,,,,,,,,,,,371517,,,,,,,
88320,note_on,600,0,1,,,,,,,,,,,,,,,0,,,70,68
88320,note_on,0,0,1,,,,,,,,,,,,,,,0,,,79,80
88800,note_on,0,0,1,,,,,,,,,,,,,,,0,,,71,65
88800,note_on,0,0,2,,,,,,,,,,,,,,,0,,,62,57
88800,note_on,480,0,1,,,,,,,,,,,,,,,0,,,79,0
88800,note_on,0,0,1,,,,,,,,,,,,,,,0,,,70,0
88800,note_on,480,0,2,,,,,,,,,,,,,,,0,,,61,0
88800,note_on,0,0,1,,,,,,,,,,,,,,,0,,,80,77
88800,set_tempo,480,1,0,,,,,,,,,,,,384615,,,,,,,
88856,control_change,56,0,2,,,,,,,,,,,,,,,0,64,0,,
89280,note_on,0,0,1,,,,,,,,,,,,,,,0,,,70,65
89280,note_on,0,0,1,,,,,,,,,,,,,,,0,,,76,0
89280,set_tempo,480,1,0,,,,,,,,,,,,375000,,,,,,,
89280,note_on,424,0,2,,,,,,,,,,,,,,,0,,,62,0
89280,note_on,480,0,1,,,,,,,,,,,,,,,0,,,80,0
89280,note_on,0,0,2,,,,,,,,,,,,,,,0,,,63,59
89280,note_on,0,0,1,,,,,,,,,,,,,,,0,,,71,0
89280,note_on,0,0,1,,,,,,,,,,,,,,,0,,,75,65
89280,note_on,0,0,1,,,,,,,,,,,,,,,0,,,79,77
89360,set_tempo,80,1,0,,,,,,,,,,,,376176,,,,,,,
89440,set_tempo,80,1,0,,,,,,,,,,,,377358,,,,,,,
89520,set_tempo,80,1,0,,,,,,,,,,,,378549,,,,,,,
89600,set_tempo,80,1,0,,,,,,,,,,,,379747,,,,,,,
89680,set_tempo,80,1,0,,,,,,,,,,,,380952,,,,,,,
89760,set_tempo,80,1,0,,,,,,,,,,,,382166,,,,,,,
89760,note_on,0,0,1,,,,,,,,,,,,,,,0,,,75,0
89760,note_on,480,0,2,,,,,,,,,,,,,,,0,,,63,0
89760,note_on,0,0,2,,,,,,,,,,,,,,,0,,,64,57
89760,note_on,0,0,1,,,,,,,,,,,,,,,0,,,73,62
89760,note_on,480,0,1,,,,,,,,,,,,,,,0,,,79,0
89760,note_on,0,0,1,,,,,,,,,,,,,,,0,,,78,74
89840,set_tempo,80,1,0,,,,,,,,,,,,383387,,,,,,,
89920,set_tempo,80,1,0,,,,,,,,,,,,384615,,,,,,,
90000,set_tempo,80,1,0,,,,,,,,,,,,385852,,,,,,,
90040,set_tempo,40,1,0,,,,,,,,,,,,387097,,,,,,,
90120,set_tempo,80,1,0,,,,,,,,,,,,388350,,,,,,,
90200,set_tempo,80,1,0,,,,,,,,,,,,389610,,,,,,,
90240,note_on,0,0,2,,,,,,,,,,,,,,,0,,,65,54
90240,note_on,480,0,2,,,,,,,,,,,,,,,0,,,64,0
90240,note_on,0,0,1,,,,,,,,,,,,,,,0,,,77,71
90240,note_on,480,0,1,,,,,,,,,,,,,,,0,,,78,0
90280,set_tempo,80,1,0,,,,,,,,,,,,390879,,,,,,,
90360,set_tempo,80,1,0,,,,,,,,,,,,392157,,,,,,,
90440,set_tempo,80,1,0,,,,,,,,,,,,393443,,,,,,,
90520,set_tempo,80,1,0,,,,,,,,,,,,394737,,,,,,,
90600,set_tempo,80,1,0,,,,,,,,,,,,396040,,,,,,,
90680,set_tempo,80,1,0,,,,,,,,,,,,397351,,,,,,,
90720,note_on,480,0,2,,,,,,,,,,,,,,,0,,,65,0
90720,set_tempo,40,1,0,,,,,,,,,,,,398671,,,,,,,
90720,note_on,0,0,2,,,,,,,,,,,,,,,0,,,66,52
90720,note_on,0,0,1,,,,,,,,,,,,,,,0,,,76,69
90720,note_on,480,0,1,,,,,,,,,,,,,,,0,,,77,0
91200,note_on,480,0,2,,,,,,,,,,,,,,,0,,,66,0
91200,note_on,0,0,2,,,,,,,,,,,,,,,0,,,54,59
91200,set_tempo,480,1,0,,,,,,,,,,,,390879,,,,,,,
91620,note_on,420,0,2,,,,,,,,,,,,,,,0,,,54,0
91620,note_on,0,0,2,,,,,,,,,,,,,,,0,,,57,60
91680,note_on,60,0,2,,,,,,,,,,,,,,,0,,,57,0
91680,note_on,0,0,2,,,,,,,,,,,,,,,0,,,55,68
91680,note_on,960,0,1,,,,,,,,,,,,,,,0,,,73,0
92120,set_tempo,920,1,0,,,,,,,,,,,,397351,,,,,,,
92160,note_on,480,0,1,,,,,,,,,,,,,,,0,,,76,0
92160,note_on,0,0,1,,,,,,,,,,,,,,,0,,,70,0
92160,note_on,480,0,2,,,,,,,,,,,,,,,0,,,55,0
92160,note_on,0,0,2,,,,,,,,,,,,,,,0,,,54,62
92200,set_tempo,80,1,0,,,,,,,,,,,,398671,,,,,,,
92240,set_tempo,40,1,0,,,,,,,,,,,,400000,,,,,,,
92280,set_tempo,40,1,0,,,,,,,,,,,,401338,,,,,,,
92320,set_tempo,40,1,0,,,,,,,,,,,,402685,,,,,,,
92360,set_tempo,40,1,0,,,,,,,,,,,,404040,,,,,,,
92400,set_tempo,40,1,0,,,,,,,,,,,,405405,,,,,,,
92440,set_tempo,40,1,0,,,,,,,,,,,,406780,,,,,,,
92480,set_tempo,40,1,0,,,,,,,,,,,,408163,,,,,,,
92520,set_tempo,40,1,0,,,,,,,,,,,,409556,,,,,,,
92560,set_tempo,40,1,0,,,,,,,,,,,,410959,,,,,,,
92640,set_tempo,80,1,0,,,,,,,,,,,,412371,,,,,,,
92640,note_on,480,0,2,,,,,,,,,,,,,,,0,,,54,0
92640,note_on,0,0,2,,,,,,,,,,,,,,,0,,,49,55
92680,set_tempo,40,1,0,,,,,,,,,,,,413793,,,,,,,
92720,set_tempo,40,1,0,,,,,,,,,,,,415225,,,,,,,
92760,set_tempo,40,1,0,,,,,,,,,,,,416667,,,,,,,
92800,set_tempo,40,1,0,,,,,,,,,,,,418118,,,,,,,
92840,set_tempo,40,1,0,,,,,,,,,,,,419580,,,,,,,
92880,set_tempo,40,1,0,,,,,,,,,,,,421053,,,,,,,
92920,set_tempo,40,1,0,,,,,,,,,,,,422535,,,,,,,
92960,set_tempo,40,1,0,,,,,,,,,,,,424028,,,,,,,
93000,set_tempo,40,1,0,,,,,,,,,,,,425532,,,,,,,
93040,set_tempo,40,1,0,,,,,,,,,,,,427046,,,,,,,
93120,note_on,0,0,2,,,,,,,,,,,,,,,0,,,50,54
93120,set_tempo,80,1,0,,,,,,,,,,,,428571,,,,,,,
93120,note_on,480,0,2,,,,,,,,,,,,,,,0,,,49,0
93160,set_tempo,40,1,0,,,,,,,,,,,,430108,,,,,,,
93200,set_tempo,40,1,0,,,,,,,,,,,,431655,,,,,,,
93240,set_tempo,40,1,0,,,,,,,,,,,,433213,,,,,,,
93280,set_tempo,40,1,0,,,,,,,,,,,,434783,,,,,,,
93320,set_tempo,40,1,0,,,,,,,,,,,,436364,,,,,,,
93360,set_tempo,40,1,0,,,,,,,,,,,,437956,,,,,,,
93400,set_tempo,40,1,0,,,,,,,,,,,,439560,,,,,,,
93440,set_tempo,40,1,0,,,,,,,,,,,,441176,,,,,,,
93480,set_tempo,40,1,0,,,,,,,,,,,,442804,,,,,,,
93520,set_tempo,40,1,0,,,,,,,,,,,,444444,,,,,,,
93600,note_on,480,0,2,,,,,,,,,,,,,,,0,,,50,0
93600,key_signature,80,1,0,,,,,,,,,,,D,,,,,,,,
93600,set_tempo,0,1,0,,,,,,,,,,,,500000,,,,,,,
93600,note_on,1440,0,1,,,,,,,,,,,,,,,0,,,78,55
93600,note_on,0,0,2,,,,,,,,,,,,,,,0,,,47,50
93660,control_change,60,0,2,,,,,,,,,,,,,,,0,64,127,,
93840,note_on,240,0,1,,,,,,,,,,,,,,,0,,,78,0
93840,note_on,0,0,1,,,,,,,,,,,,,,,0,,,83,50
94080,note_on,240,0,1,,,,,,,,,,,,,,,0,,,83,0
94080,note_on,0,0,2,,,,,,,,,,,,,,,0,,,59,34
94080,note_on,0,0,2,,,,,,,,,,,,,,,0,,,55,34
94080,note_on,0,0,2,,,,,,,,,,,,,,,0,,,64,40
94080,set_tempo,480,1,0,,,,,,,,,,,,552995,,,,,,,
94080,note_on,0,0,1,,,,,,,,,,,,,,,0,,,79,50
94080,note_on,420,0,2,,,,,,,,,,,,,,,0,,,47,0
94140,note_on,60,0,1,,,,,,,,,,,,,,,0,,,79,0
94140,note_on,0,0,1,,,,,,,,,,,,,,,0,,,81,50
94200,note_on,0,0,1,,,,,,,,,,,,,,,0,,,79,57
94200,set_tempo,120,1,0,,,,,,,,,,,,491803,,,,,,,
94200,note_on,60,0,1,,,,,,,,,,,,,,,0,,,81,0
94560,note_on,0,0,2,,,,,,,,,,,,,,,0,,,64,0
94560,note_on,480,0,2,,,,,,,,,,,,,,,0,,,55,0
94560,note_on,0,0,2,,,,,,,,,,,,,,,0,,,59,0
94560,note_on,360,0,1,,,,,,,,,,,,,,,0,,,79,0
94560,note_on,0,0,2,,,,,,,,,,,,,,,0,,,64,39
94560,note_on,0,0,2,,,,,,,,,,,,,,,0,,,59,33
94560,note_on,0,0,2,,,,,,,,,,,,,,,0,,,55,33
94560,set_tempo,360,1,0,,,,,,,,,,,,478088,,,,,,,
94560,note_on,0,0,1,,,,,,,,,,,,,,,0,,,78,53
94800,set_tempo,240,1,0,,,,,,,,,,,,500000,,,,,,,
94800,note_on,240,0,1,,,,,,,,,,,,,,,0,,,78,0
94800,note_on,0,0,1,,,,,,,,,,,,,,,0,,,76,50
95040,note_on,0,0,2,,,,,,,,,,,,,,,0,,,47,50
95040,note_on,0,0,2,,,,,,,,,,,,,,,0,,,64,0
95040,note_on,240,0,1,,,,,,,,,,,,,,,0,,,76,0
95040,set_tempo,240,1,0,,,,,,,,,,,,436364,,,,,,,
95040,note_on,0,0,2,,,,,,,,,,,,,,,0,,,59,0
95040,note_on,480,0,2,,,,,,,,,,,,,,,0,,,55,0
95040,control_change,0,0,2,,,,,,,,,,,,,,,0,64,0,,
95040,note_on,0,0,1,,,,,,,,,,,,,,,0,,,78,55
95180,set_tempo,140,1,0,,,,,,,,,,,,600000,,,,,,,
95238,control_change,198,0,2,,,,,,,,,,,,,,,0,64,127,,
95280,note_on,240,0,1,,,,,,,,,,,,,,,0,,,78,0
95280,set_tempo,100,1,0,,,,,,,,,,,,500000,,,,,,,
95280,note_on,0,0,1,,,,,,,,,,,,,,,0,,,71,50
95520,note_on,0,0,2,,,,,,,,,,,,,,,0,,,59,26
95520,note_on,0,0,2,,,,,,,,,,,,,,,0,,,62,31
95520,note_on,282,0,2,,,,,,,,,,,,,,,0,,,47,0
95520,note_on,0,0,2,,,,,,,,,,,,,,,0,,,54,26
95560,set_tempo,280,1,0,,,,,,,,,,,,481928,,,,,,,
96000,note_on,0,0,2,,,,,,,,,,,,,,,0,,,59,26
96000,note_on,0,0,2,,,,,,,,,,,,,,,0,,,62,31
96000,note_on,0,0,2,,,,,,,,,,,,,,,0,,,54,26
96000,note_on,0,0,2,,,,,,,,,,,,,,,0,,,62,0
96000,note_on,0,0,2,,,,,,,,,,,,,,,0,,,59,0
96000,note_on,480,0,2,,,,,,,,,,,,,,,0,,,54,0
96480,control_change,0,0,2,,,,,,,,,,,,,,,0,64,0,,
96480,note_on,0,0,2,,,,,,,,,,,,,,,0,,,59,0
96480,note_on,480,0,2,,,,,,,,,,,,,,,0,,,54,0
96480,note_on,1200,0,1,,,,,,,,,,,,,,,0,,,71,0
96480,note_on,0,0,1,,,,,,,,,,,,,,,0,,,73,58
96480,set_tempo,920,1,0,,,,,,,,,,,,500000,,,,,,,
96480,note_on,0,0,2,,,,,,,,,,,,,,,0,,,62,0
96480,note_on,0,0,2,,,,,,,,,,,,,,,0,,,47,50
96526,control_change,46,0,2,,,,,,,,,,,,,,,0,64,127,,
96720,note_on,0,0,1,,,,,,,,,,,,,,,0,,,76,50
96720,note_on,240,0,1,,,,,,,,,,,,,,,0,,,73,0
96960,note_on,0,0,1,,,,,,,,,,,,,,,0,,,74,50
96960,note_on,240,0,1,,,,,,,,,,,,,,,0,,,76,0
96960,note_on,0,0,2,,,,,,,,,,,,,,,0,,,54,34
96960,note_on,0,0,2,,,,,,,,,,,,,,,0,,,58,34
96960,note_on,0,0,2,,,,,,,,,,,,,,,0,,,64,40
96960,note_on,434,0,2,,,,,,,,,,,,,,,0,,,47,0
96960,set_tempo,480,1,0,,,,,,,,,,,,560748,,,,,,,
97020,note_on,60,0,1,,,,,,,,,,,,,,,0,,,74,0
97020,note_on,0,0,1,,,,,,,,,,,,,,,0,,,76,50
97080,note_on,60,0,1,,,,,,,,,,,,,,,0,,,76,0
97080,note_on,0,0,1,,,,,,,,,,,,,,,0,,,74,57
97080,set_tempo,120,1,0,,,,,,,,,,,,487805,,,,,,,
97440,note_on,0,0,2,,,,,,,,,,,,,,,0,,,64,0
97440,note_on,0,0,2,,,,,,,,,,,,,,,0,,,54,33
97440,note_on,0,0,2,,,,,,,,,,,,,,,0,,,58,33
97440,note_on,0,0,2,,,,,,,,,,,,,,,0,,,64,39
97440,note_on,480,0,2,,,,,,,,,,,,,,,0,,,54,0
97440,set_tempo,360,1,0,,,,,,,,,,,,478088,,,,,,,
97440,note_on,0,0,2,,,,,,,,,,,,,,,0,,,58,0
97440,note_on,0,0,1,,,,,,,,,,,,,,,0,,,73,53
97440,note_on,360,0,1,,,,,,,,,,,,,,,0,,,74,0
97680,set_tempo,240,1,0,,,,,,,,,,,,500000,,,,,,,
97920,note_on,0,0,2,,,,,,,,,,,,,,,0,,,58,0
97920,set_tempo,240,1,0,,,,,,,,,,,,436364,,,,,,,
97920,control_change,0,0,2,,,,,,,,,,,,,,,0,64,0,,
97920,note_on,0,0,1,,,,,,,,,,,,,,,0,,,74,55
97920,note_on,0,0,2,,,,,,,,,,,,,,,0,,,47,50
97920,note_on,480,0,1,,,,,,,,,,,,,,,0,,,73,0
97920,note_on,480,0,2,,,,,,,,,,,,,,,0,,,54,0
97920,note_on,0,0,2,,,,,,,,,,,,,,,0,,,64,0
98060,set_tempo,140,1,0,,,,,,,,,,,,600000,,,,,,,
98118,control_change,198,0,2,,,,,,,,,,,,,,,0,64,127,,
98160,set_tempo,100,1,0,,,,,,,,,,,,500000,,,,,,,
98160,note_on,240,0,1,,,,,,,,,,,,,,,0,,,74,0
98160,note_on,0,0,1,,,,,,,,,,,,,,,0,,,71,50
98400,note_on,282,0,2,,,,,,,,,,,,,,,0,,,47,0
98400,note_on,0,0,2,,,,,,,,,,,,,,,0,,,62,31
98400,note_on,0,0,2,,,,,,,,,,,,,,,0,,,59,26
98400,note_on,0,0,2,,,,,,,,,,,,,,,0,,,54,26
98400,set_tempo,240,1,0,,,,,,,,,,,,489796,,,,,,,
98880,note_on,0,0,2,,,,,,,,,,,,,,,0,,,62,31
98880,note_on,480,0,2,,,,,,,,,,,,,,,0,,,54,0
98880,note_on,0,0,2,,,,,,,,,,,,,,,0,,,59,0
98880,note_on,0,0,2,,,,,,,,,,,,,,,0,,,62,0
98880,note_on,0,0,2,,,,,,,,,,,,,,,0,,,54,26
98880,note_on,0,0,2,,,,,,,,,,,,,,,0,,,59,26
99360,note_on,480,0,2,,,,,,,,,,,,,,,0,,,54,0
99360,note_on,0,0,1,,,,,,,,,,,,,,,0,,,73,58
99360,note_on,1200,0,1,,,,,,,,,,,,,,,0,,,71,0
99360,set_tempo,960,1,0,,,,,,,,,,,,500000,,,,,,,
99360,note_on,0,0,2,,,,,,,,,,,,,,,0,,,59,0
99360,note_on,0,0,2,,,,,,,,,,,,,,,0,,,62,0
99360,note_on,0,0,2,,,,,,,,,,,,,,,0,,,37,50
99360,control_change,0,0,2,,,,,,,,,,,,,,,0,64,0,,
99406,control_change,46,0,2,,,,,,,,,,,,,,,0,64,127,,
99600,note_on,240,0,1,,,,,,,,,,,,,,,0,,,73,0
99600,note_on,0,0,1,,,,,,,,,,,,,,,0,,,71,50
99840,note_on,240,0,1,,,,,,,,,,,,,,,0,,,71,0
99840,set_tempo,480,1,0,,,,,,,,,,,,585366,,,,,,,
99840,note_on,434,0,2,,,,,,,,,,,,,,,0,,,37,0
99840,note_on,0,0,2,,,,,,,,,,,,,,,0,,,59,40
99840,note_on,0,0,1,,,,,,,,,,,,,,,0,,,69,46
99840,note_on,0,0,2,,,,,,,,,,,,,,,0,,,53,34
99840,note_on,0,0,2,,,,,,,,,,,,,,,0,,,49,34
99861,control_change,21,0,2,,,,,,,,,,,,,,,0,64,0,,
99900,note_on,0,0,1,,,,,,,,,,,,,,,0,,,71,47
99900,note_on,60,0,1,,,,,,,,,,,,,,,0,,,69,0
99960,control_change,99,0,2,,,,,,,,,,,,,,,0,64,127,,
99960,note_on,60,0,1,,,,,,,,,,,,,,,0,,,71,0
99960,note_on,0,0,1,,,,,,,,,,,,,,,0,,,69,55
99960,set_tempo,120,1,0,,,,,,,,,,,,489796,,,,,,,
100320,note_on,0,0,2,,,,,,,,,,,,,,,0,,,59,0
100320,note_on,0,0,2,,,,,,,,,,,,,,,0,,,59,39
100320,note_on,0,0,2,,,,,,,,,,,,,,,0,,,53,33
100320,note_on,360,0,2,,,,,,,,,,,,,,,0,,,49,0
100320,note_on,0,0,2,,,,,,,,,,,,,,,0,,,49,33
100320,note_on,360,0,1,,,,,,,,,,,,,,,0,,,69,0
100320,note_on,0,0,1,,,,,,,,,,,,,,,0,,,68,53
100320,set_tempo,360,1,0,,,,,,,,,,,,478088,,,,,,,
100320,note_on,0,0,2,,,,,,,,,,,,,,,0,,,53,0
100560,set_tempo,240,1,0,,,,,,,,,,,,500000,,,,,,,
100800,note_on,480,0,2,,,,,,,,,,,,,,,0,,,49,0
100800,note_on,0,0,2,,,,,,,,,,,,,,,0,,,53,0
100800,note_on,0,0,2,,,,,,,,,,,,,,,0,,,59,0
100800,note_on,0,0,2,,,,,,,,,,,,,,,0,,,42,50
100800,note_on,480,0,1,,,,,,,,,,,,,,,0,,,68,0
100800,note_on,0,0,1,,,,,,,,,,,,,,,0,,,69,55
100800,control_change,0,0,2,,,,,,,,,,,,,,,0,64,0,,
100800,set_tempo,240,1,0,,,,,,,,,,,,436364,,,,,,,
100940,set_tempo,140,1,0,,,,,,,,,,,,600000,,,,,,,
100998,control_change,198,0,2,,,,,,,,,,,,,,,0,64,127,,
101040,note_on,240,0,1,,,,,,,,,,,,,,,0,,,69,0
101040,note_on,0,0,1,,,,,,,,,,,,,,,0,,,73,50
101040,set_tempo,100,1,0,,,,,,,,,,,,500000,,,,,,,
101280,note_on,0,0,2,,,,,,,,,,,,,,,0,,,57,37
101280,note_on,282,0,2,,,,,,,,,,,,,,,0,,,42,0
101280,note_on,0,0,2,,,,,,,,,,,,,,,0,,,49,31
101520,note_on,480,0,1,,,,,,,,,,,,,,,0,,,73,0
101760,set_tempo,720,1,0,,,,,,,,,,,,481928,,,,,,,
101760,note_on,240,0,1,,,,,,,,,,,,,,,0,,,61,68
101760,note_on,0,0,2,,,,,,,,,,,,,,,0,,,57,0
101760,note_on,480,0,2,,,,,,,,,,,,,,,0,,,49,0
101788,control_change,28,0,2,,,,,,,,,,,,,,,0,64,0,,
102480,note_on,720,0,1,,,,,,,,,,,,,,,0,,,61,0
102480,note_on,0,0,1,,,,,,,,,,,,,,,0,,,59,60
102600,set_tempo,840,1,0,,,,,,,,,,,,510638,,,,,,,
102720,set_tempo,120,1,0,,,,,,,,,,,,466926,,,,,,,
102720,note_on,0,0,1,,,,,,,,,,,,,,,0,,,57,57
102720,note_on,240,0,1,,,,,,,,,,,,,,,0,,,59,0
102780,note_on,60,0,1,,,,,,,,,,,,,,,0,,,57,0
102780,note_on,0,0,1,,,,,,,,,,,,,,,0,,,59,57
102840,note_on,60,0,1,,,,,,,,,,,,,,,0,,,59,0
102840,note_on,0,0,1,,,,,,,,,,,,,,,0,,,57,68
103200,note_on,0,0,1,,,,,,,,,,,,,,,0,,,56,67
103200,set_tempo,480,1,0,,,,,,,,,,,,485830,,,,,,,
103200,note_on,360,0,1,,,,,,,,,,,,,,,0,,,57,0
103680,set_tempo,480,1,0,,,,,,,,,,,,465116,,,,,,,
103680,note_on,480,0,1,,,,,,,,,,,,,,,0,,,56,0
103680,note_on,0,0,1,,,,,,,,,,,,,,,0,,,57,71
104160,set_tempo,480,1,0,,,,,,,,,,,,472813,,,,,,,
104160,note_on,480,0,1,,,,,,,,,,,,,,,0,,,57,0
104160,note_on,0,0,1,,,,,,,,,,,,,,,0,,,61,67
105120,note_on,960,0,1,,,,,,,,,,,,,,,0,,,61,0
105120,note_on,0,0,1,,,,,,,,,,,,,,,0,,,59,71
105120,note_on,0,0,2,,,,,,,,,,,,,,,0,,,56,58
105120,note_on,3332,0,2,,,,,,,,,,,,,,,0,,,49,47
105600,note_on,0,0,2,,,,,,,,,,,,,,,0,,,54,55
105600,note_on,0,0,1,,,,,,,,,,,,,,,0,,,57,68
105600,note_on,480,0,1,,,,,,,,,,,,,,,0,,,59,0
105600,note_on,480,0,2,,,,,,,,,,,,,,,0,,,56,0
105600,set_tempo,1440,1,0,,,,,,,,,,,,463177,,,,,,,
106080,note_on,0,0,2,,,,,,,,,,,,,,,0,,,57,55
106080,note_on,480,0,2,,,,,,,,,,,,,,,0,,,54,0
106080,note_on,0,0,1,,,,,,,,,,,,,,,0,,,61,68
106080,note_on,480,0,1,,,,,,,,,,,,,,,0,,,57,0
106080,set_tempo,480,1,0,,,,,,,,,,,,472813,,,,,,,
106560,note_on,0,0,2,,,,,,,,,,,,,,,0,,,49,0
106560,note_on,480,0,2,,,,,,,,,,,,,,,0,,,57,0
106560,note_on,0,0,2,,,,,,,,,,,,,,,0,,,56,57
106560,note_on,0,0,2,,,,,,,,,,,,,,,0,,,49,47
106560,set_tempo,480,1,0,,,,,,,,,,,,532765,,,,,,,
106560,note_on,480,0,1,,,,,,,,,,,,,,,0,,,61,0
106560,note_on,0,0,1,,,,,,,,,,,,,,,0,,,59,63
106620,note_on,60,0,1,,,,,,,,,,,,,,,0,,,59,0
106620,note_on,0,0,1,,,,,,,,,,,,,,,0,,,61,63
106680,note_on,60,0,1,,,,,,,,,,,,,,,0,,,61,0
106680,note_on,0,0,1,,,,,,,,,,,,,,,0,,,59,73
106680,set_tempo,120,1,0,,,,,,,,,,,,446097,,,,,,,
106800,note_on,120,0,1,,,,,,,,,,,,,,,0,,,59,0
106800,note_on,0,0,1,,,,,,,,,,,,,,,0,,,57,66
106800,note_on,240,0,2,,,,,,,,,,,,,,,0,,,56,0
106800,note_on,0,0,2,,,,,,,,,,,,,,,0,,,54,51
107040,set_tempo,360,1,0,,,,,,,,,,,,472813,,,,,,,
107040,note_on,240,0,1,,,,,,,,,,,,,,,0,,,57,0
107040,note_on,0,0,2,,,,,,,,,,,,,,,0,,,57,56
107040,note_on,0,0,1,,,,,,,,,,,,,,,0,,,61,72
107040,note_on,240,0,2,,,,,,,,,,,,,,,0,,,54,0
107520,note_on,0,0,2,,,,,,,,,,,,,,,0,,,57,54
107520,note_on,480,0,2,,,,,,,,,,,,,,,0,,,57,0
107520,note_on,480,0,1,,,,,,,,,,,,,,,0,,,61,0
107520,note_on,0,0,1,,,,,,,,,,,,,,,0,,,61,68
108000,note_on,0,0,2,,,,,,,,,,,,,,,0,,,56,57
108000,note_on,0,0,2,,,,,,,,,,,,,,,0,,,49,47
108000,note_on,0,0,2,,,,,,,,,,,,,,,0,,,49,0
108000,note_on,480,0,2,,,,,,,,,,,,,,,0,,,57,0
108000,note_on,480,0,1,,,,,,,,,,,,,,,0,,,61,0
108000,set_tempo,960,1,0,,,,,,,,,,,,530270,,,,,,,
108000,note_on,0,0,1,,,,,,,,,,,,,,,0,,,59,61
108060,note_on,60,0,1,,,,,,,,,,,,,,,0,,,59,0
108060,note_on,0,0,1,,,,,,,,,,,,,,,0,,,61,61
108120,set_tempo,120,1,0,,,,,,,,,,,,437956,,,,,,,
108120,note_on,0,0,1,,,,,,,,,,,,,,,0,,,59,72
108120,note_on,60,0,1,,,,,,,,,,,,,,,0,,,61,0
108480,note_on,480,0,2,,,,,,,,,,,,,,,0,,,56,0
108480,set_tempo,360,1,0,,,,,,,,,,,,463177,,,,,,,
108480,note_on,0,0,2,,,,,,,,,,,,,,,0,,,54,56
108480,note_on,360,0,1,,,,,,,,,,,,,,,0,,,59,0
108480,note_on,0,0,1,,,,,,,,,,,,,,,0,,,58,72
108960,note_on,0,0,1,,,,,,,,,,,,,,,0,,,61,68
108960,note_on,480,0,2,,,,,,,,,,,,,,,0,,,54,0
108960,note_on,0,0,2,,,,,,,,,,,,,,,0,,,58,54
108960,note_on,480,0,1,,,,,,,,,,,,,,,0,,,58,0
108960,set_tempo,480,1,0,,,,,,,,,,,,472813,,,,,,,
109440,note_on,480,0,1,,,,,,,,,,,,,,,0,,,61,0
109440,note_on,0,0,1,,,,,,,,,,,,,,,0,,,59,62
109440,note_on,480,0,2,,,,,,,,,,,,,,,0,,,58,0
109440,set_tempo,480,1,0,,,,,,,,,,,,530270,,,,,,,
109440,note_on,0,0,2,,,,,,,,,,,,,,,0,,,49,0
109440,note_on,0,0,2,,,,,,,,,,,,,,,0,,,49,47
109440,note_on,0,0,2,,,,,,,,,,,,,,,0,,,56,57
109500,note_on,0,0,1,,,,,,,,,,,,,,,0,,,61,63
109500,note_on,60,0,1,,,,,,,,,,,,,,,0,,,59,0
109560,set_tempo,120,1,0,,,,,,,,,,,,459418,,,,,,,
109560,note_on,60,0,1,,,,,,,,,,,,,,,0,,,61,0
109560,note_on,0,0,1,,,,,,,,,,,,,,,0,,,59,73
109680,note_on,240,0,2,,,,,,,,,,,,,,,0,,,56,0
109680,note_on,120,0,1,,,,,,,,,,,,,,,0,,,59,0
109680,note_on,0,0,1,,,,,,,,,,,,,,,0,,,58,66
109680,note_on,0,0,2,,,,,,,,,,,,,,,0,,,54,51
109920,note_on,240,0,2,,,,,,,,,,,,,,,0,,,49,0
109920,set_tempo,360,1,0,,,,,,,,,,,,472813,,,,,,,
109920,note_on,0,0,1,,,,,,,,,,,,,,,0,,,66,72
109920,note_on,240,0,1,,,,,,,,,,,,,,,0,,,58,0
109920,note_on,0,0,2,,,,,,,,,,,,,,,0,,,42,47
109952,control_change,32,0,2,,,,,,,,,,,,,,,0,64,127,,
110400,note_on,448,0,2,,,,,,,,,,,,,,,0,,,54,0
110400,note_on,0,0,1,,,,,,,,,,,,,,,0,,,78,58
110400,set_tempo,480,1,0,,,,,,,,,,,,500000,,,,,,,
110400,note_on,480,0,1,,,,,,,,,,,,,,,0,,,66,0
110411,control_change,11,0,2,,,,,,,,,,,,,,,0,64,0,,
110880,note_on,0,0,2,,,,,,,,,,,,,,,0,,,47,50
110880,note_on,469,0,2,,,,,,,,,,,,,,,0,,,42,0
110901,control_change,21,0,2,,,,,,,,,,,,,,,0,64,127,,
111120,note_on,0,0,1,,,,,,,,,,,,,,,0,,,83,50
111120,note_on,720,0,1,,,,,,,,,,,,,,,0,,,78,0
111360,note_on,0,0,2,,,,,,,,,,,,,,,0,,,55,34
111360,note_on,0,0,2,,,,,,,,,,,,,,,0,,,59,34
111360,note_on,0,0,2,,,,,,,,,,,,,,,0,,,64,40
111360,note_on,459,0,2,,,,,,,,,,,,,,,0,,,47,0
111360,note_on,240,0,1,,,,,,,,,,,,,,,0,,,83,0
111360,note_on,0,0,1,,,,,,,,,,,,,,,0,,,79,50
111360,set_tempo,960,1,0,,,,,,,,,,,,552995,,,,,,,
111420,note_on,0,0,1,,,,,,,,,,,,,,,0,,,81,50
111420,note_on,60,0,1,,,,,,,,,,,,,,,0,,,79,0
111480,set_tempo,120,1,0,,,,,,,,,,,,491803,,,,,,,
111480,note_on,0,0,1,,,,,,,,,,,,,,,0,,,79,57
111480,note_on,60,0,1,,,,,,,,,,,,,,,0,,,81,0
111840,note_on,480,0,2,,,,,,,,,,,,,,,0,,,55,0
111840,note_on,0,0,2,,,,,,,,,,,,,,,0,,,59,0
111840,note_on,0,0,2,,,,,,,,,,,,,,,0,,,64,39
111840,note_on,0,0,2,,,,,,,,,,,,,,,0,,,59,33
111840,note_on,0,0,2,,,,,,,,,,,,,,,0,,,55,33
111840,set_tempo,360,1,0,,,,,,,,,,,,478088,,,,,,,
111840,note_on,0,0,1,,,,,,,,,,,,,,,0,,,78,53
111840,note_on,360,0,1,,,,,,,,,,,,,,,0,,,79,0
111840,note_on,0,0,2,,,,,,,,,,,,,,,0,,,64,0
112080,set_tempo,240,1,0,,,,,,,,,,,,500000,,,,,,,
112080,note_on,240,0,1,,,,,,,,,,,,,,,0,,,78,0
112080,note_on,0,0,1,,,,,,,,,,,,,,,0,,,76,50
112320,note_on,480,0,2,,,,,,,,,,,,,,,0,,,55,0
112320,note_on,0,0,2,,,,,,,,,,,,,,,0,,,59,0
112320,note_on,0,0,2,,,,,,,,,,,,,,,0,,,64,0
112320,note_on,0,0,2,,,,,,,,,,,,,,,0,,,47,50
112320,control_change,0,0,2,,,,,,,,,,,,,,,0,64,0,,
112320,set_tempo,240,1,0,,,,,,,,,,,,436364,,,,,,,
112320,note_on,0,0,1,,,,,,,,,,,,,,,0,,,78,55
112320,note_on,240,0,1,,,,,,,,,,,,,,,0,,,76,0
112460,set_tempo,140,1,0,,,,,,,,,,,,600000,,,,,,,
112518,control_change,198,0,2,,,,,,,,,,,,,,,0,64,127,,
112560,set_tempo,100,1,0,,,,,,,,,,,,500000,,,,,,,
112560,note_on,240,0,1,,,,,,,,,,,,,,,0,,,78,0
112560,note_on,0,0,1,,,,,,,,,,,,,,,0,,,71,50
112800,note_on,0,0,2,,,,,,,,,,,,,,,0,,,62,31
112800,note_on,0,0,2,,,,,,,,,,,,,,,0,,,54,26
112800,note_on,282,0,2,,,,,,,,,,,,,,,0,,,47,0
112800,note_on,0,0,2,,,,,,,,,,,,,,,0,,,59,26
113280,note_on,480,0,2,,,,,,,,,,,,,,,0,,,54,0
113280,note_on,0,0,2,,,,,,,,,,,,,,,0,,,62,31
113280,note_on,0,0,2,,,,,,,,,,,,,,,0,,,59,0
113280,note_on,0,0,2,,,,,,,,,,,,,,,0,,,54,26
113280,note_on,0,0,2,,,,,,,,,,,,,,,0,,,59,26
113280,note_on,0,0,2,,,,,,,,,,,,,,,0,,,62,0
113760,set_tempo,1200,1,0,,,,,,,,,,,,500000,,,,,,,
113760,note_on,0,0,1,,,,,,,,,,,,,,,0,,,73,58
113760,note_on,0,0,2,,,,,,,,,,,,,,,0,,,47,50
113760,note_on,480,0,2,,,,,,,,,,,,,,,0,,,54,0
113760,note_on,0,0,2,,,,,,,,,,,,,,,0,,,62,0
113760,note_on,0,0,2,,,,,,,,,,,,,,,0,,,59,0
113760,note_on,1200,0,1,,,,,,,,,,,,,,,0,,,71,0
113760,control_change,0,0,2,,,,,,,,,,,,,,,0,64,0,,
113806,control_change,46,0,2,,,,,,,,,,,,,,,0,64,127,,
114000,note_on,0,0,1,,,,,,,,,,,,,,,0,,,76,50
114000,note_on,240,0,1,,,,,,,,,,,,,,,0,,,73,0
114240,note_on,0,0,1,,,,,,,,,,,,,,,0,,,74,50
114240,note_on,240,0,1,,,,,,,,,,,,,,,0,,,76,0
114240,note_on,0,0,2,,,,,,,,,,,,,,,0,,,54,34
114240,note_on,0,0,2,,,,,,,,,,,,,,,0,,,64,40
114240,set_tempo,480,1,0,,,,,,,,,,,,560748,,,,,,,
114240,note_on,0,0,2,,,,,,,,,,,,,,,0,,,58,34
114240,note_on,434,0,2,,,,,,,,,,,,,,,0,,,47,0
114300,note_on,0,0,1,,,,,,,,,,,,,,,0,,,76,50
114300,note_on,60,0,1,,,,,,,,,,,,,,,0,,,74,0
114360,note_on,0,0,1,,,,,,,,,,,,,,,0,,,74,57
114360,note_on,60,0,1,,,,,,,,,,,,,,,0,,,76,0
114360,set_tempo,120,1,0,,,,,,,,,,,,487805,,,,,,,
114720,note_on,0,0,2,,,,,,,,,,,,,,,0,,,58,0
114720,note_on,0,0,2,,,,,,,,,,,,,,,0,,,64,0
114720,note_on,480,0,2,,,,,,,,,,,,,,,0,,,54,0
114720,note_on,0,0,2,,,,,,,,,,,,,,,0,,,54,33
114720,note_on,0,0,2,,,,,,,,,,,,,,,0,,,58,33
114720,note_on,0,0,2,,,,,,,,,,,,,,,0,,,64,39
114720,note_on,0,0,1,,,,,,,,,,,,,,,0,,,73,53
114720,set_tempo,360,1,0,,,,,,,,,,,,478088,,,,,,,
114720,note_on,360,0,1,,,,,,,,,,,,,,,0,,,74,0
114960,set_tempo,240,1,0,,,,,,,,,,,,500000,,,,,,,
115200,note_on,480,0,1,,,,,,,,,,,,,,,0,,,73,0
115200,note_on,0,0,1,,,,,,,,,,,,,,,0,,,74,55
115200,set_tempo,240,1,0,,,,,,,,,,,,436364,,,,,,,
115200,note_on,0,0,2,,,,,,,,,,,,,,,0,,,58,0
115200,control_change,0,0,2,,,,,,,,,,,,,,,0,64,0,,
115200,note_on,0,0,2,,,,,,,,,,,,,,,0,,,47,50
115200,note_on,0,0,2,,,,,,,,,,,,,,,0,,,64,0
115200,note_on,480,0,2,,,,,,,,,,,,,,,0,,,54,0
115340,set_tempo,140,1,0,,,,,,,,,,,,600000,,,,,,,
115398,control_change,198,0,2,,,,,,,,,,,,,,,0,64,127,,
115440,set_tempo,100,1,0,,,,,,,,,,,,500000,,,,,,,
115440,note_on,0,0,1,,,,,,,,,,,,,,,0,,,71,50
115440,note_on,240,0,1,,,,,,,,,,,,,,,0,,,74,0
115680,set_tempo,240,1,0,,,,,,,,,,,,489796,,,,,,,
115680,note_on,0,0,2,,,,,,,,,,,,,,,0,,,54,26
115680,note_on,282,0,2,,,,,,,,,,,,,,,0,,,47,0
115680,note_on,0,0,2,,,,,,,,,,,,,,,0,,,62,31
115680,note_on,0,0,2,,,,,,,,,,,,,,,0,,,59,26
116104,control_change,424,0,2,,,,,,,,,,,,,,,0,64,0,,
116160,note_on,56,0,2,,,,,,,,,,,,,,,0,,,54,0
116160,note_on,0,0,2,,,,,,,,,,,,,,,0,,,62,0
116160,set_tempo,480,1,0,,,,,,,,,,,,472441,,,,,,,
116160,note_on,0,0,1,,,,,,,,,,,,,,,0,,,50,66
116160,note_on,720,0,1,,,,,,,,,,,,,,,0,,,71,0
116160,note_on,0,0,2,,,,,,,,,,,,,,,0,,,59,0
116640,note_on,480,0,2,,,,,,,,,,,,,,,0,,,59,38
116640,note_on,0,0,2,,,,,,,,,,,,,,,0,,,65,43
116880,note_on,0,0,1,,,,,,,,,,,,,,,0,,,55,58
116880,note_on,720,0,1,,,,,,,,,,,,,,,0,,,50,0
117120,note_on,480,0,2,,,,,,,,,,,,,,,0,,,65,0
117120,note_on,0,0,2,,,,,,,,,,,,,,,0,,,59,0
117120,note_on,0,0,2,,,,,,,,,,,,,,,0,,,60,34
117120,note_on,0,0,2,,,,,,,,,,,,,,,0,,,64,38
117120,note_on,0,0,1,,,,,,,,,,,,,,,0,,,52,65
117120,note_on,240,0,1,,,,,,,,,,,,,,,0,,,55,0
117120,set_tempo,960,1,0,,,,,,,,,,,,433213,,,,,,,
117280,note_on,0,0,1,,,,,,,,,,,,,,,0,,,53,57
117280,note_on,160,0,1,,,,,,,,,,,,,,,0,,,52,0
117440,note_on,0,0,1,,,,,,,,,,,,,,,0,,,52,55
117440,note_on,160,0,1,,,,,,,,,,,,,,,0,,,53,0
117600,note_on,480,0,2,,,,,,,,,,,,,,,0,,,64,0
117600,note_on,0,0,2,,,,,,,,,,,,,,,0,,,60,0
117600,note_on,160,0,1,,,,,,,,,,,,,,,0,,,52,0
117600,note_on,0,0,2,,,,,,,,,,,,,,,0,,,60,34
117600,note_on,0,0,2,,,,,,,,,,,,,,,0,,,64,38
117600,note_on,0,0,1,,,,,,,,,,,,,,,0,,,50,63
117600,set_tempo,480,1,0,,,,,,,,,,,,472441,,,,,,,
117840,note_on,0,0,1,,,,,,,,,,,,,,,0,,,48,57
117840,note_on,240,0,1,,,,,,,,,,,,,,,0,,,50,0
118080,note_on,0,0,1,,,,,,,,,,,,,,,0,,,50,64
118080,note_on,480,0,2,,,,,,,,,,,,,,,0,,,64,0
118080,note_on,0,0,2,,,,,,,,,,,,,,,0,,,60,0
118080,note_on,240,0,1,,,,,,,,,,,,,,,0,,,48,0
118080,note_on,0,0,2,,,,,,,,,,,,,,,0,,,55,41
118080,note_on,0,0,2,,,,,,,,,,,,,,,0,,,59,41
118080,note_on,0,0,2,,,,,,,,,,,,,,,0,,,65,46
118080,set_tempo,480,1,0,,,,,,,,,,,,476190,,,,,,,
118440,note_on,0,0,1,,,,,,,,,,,,,,,0,,,43,55
118440,note_on,360,0,1,,,,,,,,,,,,,,,0,,,50,0
118560,note_on,0,0,2,,,,,,,,,,,,,,,0,,,55,0
118560,note_on,0,0,2,,,,,,,,,,,,,,,0,,,55,34
118560,note_on,0,0,2,,,,,,,,,,,,,,,0,,,59,34
118560,note_on,0,0,2,,,,,,,,,,,,,,,0,,,65,38
118560,note_on,120,0,1,,,,,,,,,,,,,,,0,,,43,0
118560,note_on,0,0,1,,,,,,,,,,,,,,,0,,,50,64
118560,note_on,0,0,2,,,,,,,,,,,,,,,0,,,59,0
118560,note_on,480,0,2,,,,,,,,,,,,,,,0,,,65,0
119040,note_on,480,0,1,,,,,,,,,,,,,,,0,,,50,0
119040,note_on,0,0,1,,,,,,,,,,,,,,,0,,,48,59
119040,note_on,480,0,2,,,,,,,,,,,,,,,0,,,65,0
119040,note_on,0,0,2,,,,,,,,,,,,,,,0,,,55,0
119040,note_on,0,0,2,,,,,,,,,,,,,,,0,,,60,34
119040,note_on,0,0,2,,,,,,,,,,,,,,,0,,,64,38
119040,note_on,0,0,2,,,,,,,,,,,,,,,0,,,59,0
119520,note_on,480,0,1,,,,,,,,,,,,,,,0,,,48,0
119520,note_on,0,0,1,,,,,,,,,,,,,,,0,,,50,66
119520,set_tempo,1440,1,0,,,,,,,,,,,,472441,,,,,,,
119520,note_on,0,0,2,,,,,,,,,,,,,,,0,,,59,38
119520,note_on,0,0,2,,,,,,,,,,,,,,,0,,,60,0
119520,note_on,0,0,2,,,,,,,,,,,,,,,0,,,65,43
119520,note_on,480,0,2,,,,,,,,,,,,,,,0,,,64,0
119760,note_on,0,0,1,,,,,,,,,,,,,,,0,,,55,58
119760,note_on,240,0,1,,,,,,,,,,,,,,,0,,,50,0
120000,note_on,240,0,1,,,,,,,,,,,,,,,0,,,55,0
120000,note_on,0,0,1,,,,,,,,,,,,,,,0,,,52,65
120000,set_tempo,480,1,0,,,,,,,,,,,,433213,,,,,,,
120000,note_on,480,0,2,,,,,,,,,,,,,,,0,,,65,0
120000,note_on,0,0,2,,,,,,,,,,,,,,,0,,,59,0
120000,note_on,0,0,2,,,,,,,,,,,,,,,0,,,60,34
120000,note_on,0,0,2,,,,,,,,,,,,,,,0,,,64,38
120160,note_on,160,0,1,,,,,,,,,,,,,,,0,,,52,0
120160,note_on,0,0,1,,,,,,,,,,,,,,,0,,,53,57
120320,note_on,160,0,1,,,,,,,,,,,,,,,0,,,53,0
120320,note_on,0,0,1,,,,,,,,,,,,,,,0,,,52,55
120480,note_on,160,0,1,,,,,,,,,,,,,,,0,,,52,0
120480,note_on,0,0,2,,,,,,,,,,,,,,,0,,,64,38
120480,set_tempo,480,1,0,,,,,,,,,,,,472441,,,,,,,
120480,note_on,0,0,2,,,,,,,,,,,,,,,0,,,60,0
120480,note_on,0,0,2,,,,,,,,,,,,,,,0,,,60,34
120480,note_on,480,0,2,,,,,,,,,,,,,,,0,,,64,0
120480,note_on,0,0,1,,,,,,,,,,,,,,,0,,,50,63
120720,note_on,240,0,1,,,,,,,,,,,,,,,0,,,50,0
120720,note_on,0,0,1,,,,,,,,,,,,,,,0,,,48,57
120960,note_on,240,0,1,,,,,,,,,,,,,,,0,,,48,0
120960,note_on,0,0,1,,,,,,,,,,,,,,,0,,,50,64
120960,note_on,0,0,2,,,,,,,,,,,,,,,0,,,60,0
120960,note_on,0,0,2,,,,,,,,,,,,,,,0,,,55,41
120960,set_tempo,480,1,0,,,,,,,,,,,,476190,,,,,,,
120960,note_on,480,0,2,,,,,,,,,,,,,,,0,,,64,0
120960,note_on,0,0,2,,,,,,,,,,,,,,,0,,,59,41
120960,note_on,0,0,2,,,,,,,,,,,,,,,0,,,65,46
121320,note_on,0,0,1,,,,,,,,,,,,,,,0,,,43,54
121320,note_on,360,0,1,,,,,,,,,,,,,,,0,,,50,0
121440,note_on,0,0,1,,,,,,,,,,,,,,,0,,,50,62
121440,note_on,120,0,1,,,,,,,,,,,,,,,0,,,43,0
121440,note_on,480,0,2,,,,,,,,,,,,,,,0,,,65,0
121440,note_on,0,0,2,,,,,,,,,,,,,,,0,,,59,0
121440,note_on,0,0,2,,,,,,,,,,,,,,,0,,,55,0
121440,note_on,0,0,2,,,,,,,,,,,,,,,0,,,65,37
121440,note_on,0,0,2,,,,,,,,,,,,,,,0,,,59,33
121440,note_on,0,0,2,,,,,,,,,,,,,,,0,,,55,33
121920,note_on,480,0,1,,,,,,,,,,,,,,,0,,,50,0
121920,note_on,480,0,2,,,,,,,,,,,,,,,0,,,65,0
121920,note_on,0,0,2,,,,,,,,,,,,,,,0,,,59,0
121920,note_on,0,0,2,,,,,,,,,,,,,,,0,,,55,0
121920,note_on,0,0,2,,,,,,,,,,,,,,,0,,,60,32
121920,note_on,0,0,2,,,,,,,,,,,,,,,0,,,64,36
121920,note_on,0,0,1,,,,,,,,,,,,,,,0,,,48,56
122400,set_tempo,1440,1,0,,,,,,,,,,,,452830,,,,,,,
122400,note_on,480,0,1,,,,,,,,,,,,,,,0,,,48,0
122400,note_on,0,0,2,,,,,,,,,,,,,,,0,,,65,43
122400,note_on,0,0,2,,,,,,,,,,,,,,,0,,,59,38
122400,note_on,0,0,2,,,,,,,,,,,,,,,0,,,60,0
122400,note_on,480,0,2,,,,,,,,,,,,,,,0,,,64,0
122400,note_on,0,0,1,,,,,,,,,,,,,,,0,,,50,60
122400,note_on,0,0,2,,,,,,,,,,,,,,,0,,,55,38
122760,note_on,0,0,1,,,,,,,,,,,,,,,0,,,43,51
122760,note_on,360,0,1,,,,,,,,,,,,,,,0,,,50,0
122880,note_on,0,0,2,,,,,,,,,,,,,,,0,,,55,0
122880,note_on,0,0,1,,,,,,,,,,,,,,,0,,,48,58
122880,set_tempo,480,1,0,,,,,,,,,,,,487805,,,,,,,
122880,note_on,480,0,2,,,,,,,,,,,,,,,0,,,65,0
122880,note_on,0,0,2,,,,,,,,,,,,,,,0,,,59,0
122880,note_on,120,0,1,,,,,,,,,,,,,,,0,,,43,0
122880,note_on,0,0,2,,,,,,,,,,,,,,,0,,,60,31
122880,note_on,0,0,2,,,,,,,,,,,,,,,0,,,64,34
123360,note_on,0,0,2,,,,,,,,,,,,,,,0,,,65,41
123360,note_on,0,0,2,,,,,,,,,,,,,,,0,,,59,36
123360,note_on,0,0,2,,,,,,,,,,,,,,,0,,,55,36
123360,note_on,0,0,2,,,,,,,,,,,,,,,0,,,60,0
123360,note_on,480,0,1,,,,,,,,,,,,,,,0,,,48,0
123360,set_tempo,480,1,0,,,,,,,,,,,,466926,,,,,,,
123360,note_on,0,0,1,,,,,,,,,,,,,,,0,,,50,57
123360,note_on,480,0,2,,,,,,,,,,,,,,,0,,,64,0
123720,note_on,0,0,1,,,,,,,,,,,,,,,0,,,43,48
123720,note_on,360,0,1,,,,,,,,,,,,,,,0,,,50,0
123840,note_on,480,0,2,,,,,,,,,,,,,,,0,,,65,0
123840,note_on,0,0,2,,,,,,,,,,,,,,,0,,,59,0
123840,note_on,0,0,2,,,,,,,,,,,,,,,0,,,64,29
123840,note_on,0,0,2,,,,,,,,,,,,,,,0,,,60,29
123840,note_on,0,0,1,,,,,,,,,,,,,,,0,,,48,56
123840,note_on,120,0,1,,,,,,,,,,,,,,,0,,,43,0
123840,set_tempo,480,1,0,,,,,,,,,,,,493827,,,,,,,
123840,note_on,0,0,2,,,,,,,,,,,,,,,0,,,55,0
124320,note_on,480,0,2,,,,,,,,,,,,,,,0,,,64,0
124320,note_on,0,0,2,,,,,,,,,,,,,,,0,,,55,35
124320,note_on,0,0,2,,,,,,,,,,,,,,,0,,,59,35
124320,note_on,0,0,2,,,,,,,,,,,,,,,0,,,65,39
124320,note_on,0,0,1,,,,,,,,,,,,,,,0,,,50,55
124320,note_on,480,0,1,,,,,,,,,,,,,,,0,,,48,0
124320,set_tempo,480,1,0,,,,,,,,,,,,470588,,,,,,,
124320,note_on,0,0,2,,,,,,,,,,,,,,,0,,,60,0
124680,note_on,360,0,1,,,,,,,,,,,,,,,0,,,50,0
124680,note_on,0,0,1,,,,,,,,,,,,,,,0,,,43,46
124800,set_tempo,480,1,0,,,,,,,,,,,,502092,,,,,,,
124800,note_on,120,0,1,,,,,,,,,,,,,,,0,,,43,0
124800,note_on,0,0,1,,,,,,,,,,,,,,,0,,,48,53
124800,note_on,0,0,2,,,,,,,,,,,,,,,0,,,64,31
124800,note_on,0,0,2,,,,,,,,,,,,,,,0,,,60,28
124800,note_on,0,0,2,,,,,,,,,,,,,,,0,,,55,0
124800,note_on,0,0,2,,,,,,,,,,,,,,,0,,,59,0
124800,note_on,480,0,2,,,,,,,,,,,,,,,0,,,65,0
125280,note_on,480,0,1,,,,,,,,,,,,,,,0,,,48,0
125280,note_on,0,0,1,,,,,,,,,,,,,,,0,,,43,52
125280,note_on,480,0,2,,,,,,,,,,,,,,,0,,,64,0
125280,note_on,0,0,2,,,,,,,,,,,,,,,0,,,55,52
125280,note_on,0,0,2,,,,,,,,,,,,,,,0,,,60,0
126720,note_on,0,0,2,,,,,,,,,,,,,,,0,,,54,48
126720,note_on,1440,0,2,,,,,,,,,,,,,,,0,,,55,0
126720,note_on,1440,0,1,,,,,,,,,,,,,,,0,,,43,0
126720,note_on,0,0,1,,,,,,,,,,,,,,,0,,,42,48
128160,set_tempo,3360,1,0,,,,,,,,,,,,500000,,,,,,,
128160,note_on,0,0,1,,,,,,,,,,,,,,,0,,,78,55
128160,note_on,1440,0,1,,,,,,,,,,,,,,,0,,,42,0
128160,note_on,1440,0,2,,,,,,,,,,,,,,,0,,,54,0
128160,note_on,0,0,2,,,,,,,,,,,,,,,0,,,35,46
128160,note_on,0,0,2,,,,,,,,,,,,,,,0,,,47,50
128248,control_change,88,0,2,,,,,,,,,,,,,,,0,64,127,,
128400,note_on,0,0,1,,,,,,,,,,,,,,,0,,,83,50
128400,note_on,240,0,1,,,,,,,,,,,,,,,0,,,78,0
128640,note_on,0,0,1,,,,,,,,,,,,,,,0,,,79,50
128640,note_on,240,0,1,,,,,,,,,,,,,,,0,,,83,0
128640,note_on,0,0,2,,,,,,,,,,,,,,,0,,,55,34
128640,note_on,0,0,2,,,,,,,,,,,,,,,0,,,59,34
128640,note_on,0,0,2,,,,,,,,,,,,,,,0,,,64,40
128640,note_on,0,0,2,,,,,,,,,,,,,,,0,,,35,0
128640,set_tempo,480,1,0,,,,,,,,,,,,552995,,,,,,,
128640,note_on,392,0,2,,,,,,,,,,,,,,,0,,,47,0
128700,note_on,60,0,1,,,,,,,,,,,,,,,0,,,79,0
128700,note_on,0,0,1,,,,,,,,,,,,,,,0,,,81,50
128760,set_tempo,120,1,0,,,,,,,,,,,,491803,,,,,,,
128760,note_on,60,0,1,,,,,,,,,,,,,,,0,,,81,0
128760,note_on,0,0,1,,,,,,,,,,,,,,,0,,,79,57
129120,set_tempo,360,1,0,,,,,,,,,,,,478088,,,,,,,
129120,note_on,360,0,1,,,,,,,,,,,,,,,0,,,79,0
129120,note_on,0,0,1,,,,,,,,,,,,,,,0,,,78,53
129120,note_on,0,0,2,,,,,,,,,,,,,,,0,,,55,33
129120,note_on,0,0,2,,,,,,,,,,,,,,,0,,,59,0
129120,note_on,0,0,2,,,,,,,,,,,,,,,0,,,59,33
129120,note_on,0,0,2,,,,,,,,,,,,,,,0,,,64,39
129120,note_on,0,0,2,,,,,,,,,,,,,,,0,,,64,0
129120,note_on,480,0,2,,,,,,,,,,,,,,,0,,,55,0
129360,note_on,0,0,1,,,,,,,,,,,,,,,0,,,76,50
129360,note_on,240,0,1,,,,,,,,,,,,,,,0,,,78,0
129360,set_tempo,240,1,0,,,,,,,,,,,,500000,,,,,,,
129600,note_on,0,0,2,,,,,,,,,,,,,,,0,,,59,0
129600,control_change,0,0,2,,,,,,,,,,,,,,,0,64,0,,
129600,note_on,0,0,2,,,,,,,,,,,,,,,0,,,47,50
129600,note_on,0,0,2,,,,,,,,,,,,,,,0,,,64,0
129600,note_on,480,0,2,,,,,,,,,,,,,,,0,,,55,0
129600,note_on,0,0,1,,,,,,,,,,,,,,,0,,,78,55
129600,set_tempo,240,1,0,,,,,,,,,,,,436364,,,,,,,
129600,note_on,240,0,1,,,,,,,,,,,,,,,0,,,76,0
129740,set_tempo,140,1,0,,,,,,,,,,,,600000,,,,,,,
129798,control_change,198,0,2,,,,,,,,,,,,,,,0,64,127,,
129840,note_on,240,0,1,,,,,,,,,,,,,,,0,,,78,0
129840,note_on,0,0,1,,,,,,,,,,,,,,,0,,,71,50
129840,set_tempo,100,1,0,,,,,,,,,,,,500000,,,,,,,
130080,note_on,0,0,2,,,,,,,,,,,,,,,0,,,59,26
130080,note_on,282,0,2,,,,,,,,,,,,,,,0,,,47,0
130080,note_on,0,0,2,,,,,,,,,,,,,,,0,,,62,31
130080,note_on,0,0,2,,,,,,,,,,,,,,,0,,,54,26
130560,note_on,0,0,2,,,,,,,,,,,,,,,0,,,62,31
130560,note_on,0,0,2,,,,,,,,,,,,,,,0,,,59,0
130560,note_on,0,0,2,,,,,,,,,,,,,,,0,,,54,26
130560,note_on,0,0,2,,,,,,,,,,,,,,,0,,,59,26
130560,note_on,480,0,2,,,,,,,,,,,,,,,0,,,54,0
130560,note_on,0,0,2,,,,,,,,,,,,,,,0,,,62,0
131040,note_on,480,0,2,,,,,,,,,,,,,,,0,,,54,0
131040,note_on,0,0,2,,,,,,,,,,,,,,,0,,,59,0
131040,note_on,0,0,2,,,,,,,,,,,,,,,0,,,62,0
131040,note_on,0,0,2,,,,,,,,,,,,,,,0,,,47,50
131040,control_change,0,0,2,,,,,,,,,,,,,,,0,64,0,,
131040,note_on,0,0,1,,,,,,,,,,,,,,,0,,,73,58
131040,set_tempo,1200,1,0,,,,,,,,,,,,500000,,,,,,,
131040,note_on,1200,0,1,,,,,,,,,,,,,,,0,,,71,0
131086,control_change,46,0,2,,,,,,,,,,,,,,,0,64,127,,
131280,note_on,240,0,1,,,,,,,,,,,,,,,0,,,73,0
131280,note_on,0,0,1,,,,,,,,,,,,,,,0,,,76,50
131520,note_on,0,0,2,,,,,,,,,,,,,,,0,,,64,40
131520,set_tempo,480,1,0,,,,,,,,,,,,560748,,,,,,,
131520,note_on,434,0,2,,,,,,,,,,,,,,,0,,,47,0
131520,note_on,0,0,2,,,,,,,,,,,,,,,0,,,58,34
131520,note_on,0,0,1,,,,,,,,,,,,,,,0,,,74,50
131520,note_on,0,0,2,,,,,,,,,,,,,,,0,,,54,34
131520,note_on,240,0,1,,,,,,,,,,,,,,,0,,,76,0
131580,note_on,0,0,1,,,,,,,,,,,,,,,0,,,76,50
131580,note_on,60,0,1,,,,,,,,,,,,,,,0,,,74,0
131640,note_on,0,0,1,,,,,,,,,,,,,,,0,,,74,57
131640,note_on,60,0,1,,,,,,,,,,,,,,,0,,,76,0
131640,set_tempo,120,1,0,,,,,,,,,,,,487805,,,,,,,
132000,set_tempo,360,1,0,,,,,,,,,,,,478088,,,,,,,
132000,note_on,480,0,2,,,,,,,,,,,,,,,0,,,54,0
132000,note_on,360,0,1,,,,,,,,,,,,,,,0,,,74,0
132000,note_on,0,0,2,,,,,,,,,,,,,,,0,,,64,0
132000,note_on,0,0,2,,,,,,,,,,,,,,,0,,,64,39
132000,note_on,0,0,2,,,,,,,,,,,,,,,0,,,58,33
132000,note_on,0,0,2,,,,,,,,,,,,,,,0,,,54,33
132000,note_on,0,0,1,,,,,,,,,,,,,,,0,,,73,53
132000,note_on,0,0,2,,,,,,,,,,,,,,,0,,,58,0
132240,set_tempo,240,1,0,,,,,,,,,,,,500000,,,,,,,
132480,set_tempo,240,1,0,,,,,,,,,,,,436364,,,,,,,
132480,control_change,0,0,2,,,,,,,,,,,,,,,0,64,0,,
132480,note_on,480,0,1,,,,,,,,,,,,,,,0,,,73,0
132480,note_on,0,0,1,,,,,,,,,,,,,,,0,,,74,55
132480,note_on,0,0,2,,,,,,,,,,,,,,,0,,,47,50
132480,note_on,0,0,2,,,,,,,,,,,,,,,0,,,64,0
132480,note_on,0,0,2,,,,,,,,,,,,,,,0,,,58,0
132480,note_on,480,0,2,,,,,,,,,,,,,,,0,,,54,0
132620,set_tempo,140,1,0,,,,,,,,,,,,600000,,,,,,,
132678,control_change,198,0,2,,,,,,,,,,,,,,,0,64,127,,
132720,note_on,240,0,1,,,,,,,,,,,,,,,0,,,74,0
132720,set_tempo,100,1,0,,,,,,,,,,,,500000,,,,,,,
132720,note_on,0,0,1,,,,,,,,,,,,,,,0,,,71,50
132960,note_on,282,0,2,,,,,,,,,,,,,,,0,,,47,0
132960,note_on,0,0,2,,,,,,,,,,,,,,,0,,,62,31
132960,note_on,0,0,2,,,,,,,,,,,,,,,0,,,59,26
132960,note_on,0,0,2,,,,,,,,,,,,,,,0,,,54,26
133440,note_on,0,0,2,,,,,,,,,,,,,,,0,,,62,31
133440,note_on,0,0,2,,,,,,,,,,,,,,,0,,,54,26
133440,note_on,0,0,2,,,,,,,,,,,,,,,0,,,59,26
133440,note_on,480,0,2,,,,,,,,,,,,,,,0,,,54,0
133440,note_on,0,0,2,,,,,,,,,,,,,,,0,,,59,0
133440,note_on,0,0,2,,,,,,,,,,,,,,,0,,,62,0
133920,note_on,480,0,2,,,,,,,,,,,,,,,0,,,54,0
133920,note_on,0,0,2,,,,,,,,,,,,,,,0,,,59,0
133920,note_on,0,0,2,,,,,,,,,,,,,,,0,,,62,0
133920,note_on,0,0,2,,,,,,,,,,,,,,,0,,,37,50
133920,control_change,0,0,2,,,,,,,,,,,,,,,0,64,0,,
133920,set_tempo,1200,1,0,,,,,,,,,,,,500000,,,,,,,
133920,note_on,0,0,1,,,,,,,,,,,,,,,0,,,73,58
133920,note_on,1200,0,1,,,,,,,,,,,,,,,0,,,71,0
133966,control_change,46,0,2,,,,,,,,,,,,,,,0,64,127,,
134160,note_on,0,0,1,,,,,,,,,,,,,,,0,,,71,50
134160,note_on,240,0,1,,,,,,,,,,,,,,,0,,,73,0
134400,note_on,240,0,1,,,,,,,,,,,,,,,0,,,71,0
134400,set_tempo,480,1,0,,,,,,,,,,,,585366,,,,,,,
134400,note_on,0,0,1,,,,,,,,,,,,,,,0,,,69,46
134400,note_on,434,0,2,,,,,,,,,,,,,,,0,,,37,0
134400,note_on,0,0,2,,,,,,,,,,,,,,,0,,,59,40
134400,note_on,0,0,2,,,,,,,,,,,,,,,0,,,53,34
134400,note_on,0,0,2,,,,,,,,,,,,,,,0,,,49,34
134421,control_change,21,0,2,,,,,,,,,,,,,,,0,64,0,,
134460,note_on,60,0,1,,,,,,,,,,,,,,,0,,,69,0
134460,note_on,0,0,1,,,,,,,,,,,,,,,0,,,71,47
134520,note_on,0,0,1,,,,,,,,,,,,,,,0,,,69,55
134520,set_tempo,120,1,0,,,,,,,,,,,,489796,,,,,,,
134520,control_change,99,0,2,,,,,,,,,,,,,,,0,64,127,,
134520,note_on,60,0,1,,,,,,,,,,,,,,,0,,,71,0
134880,note_on,0,0,2,,,,,,,,,,,,,,,0,,,49,33
134880,note_on,0,0,2,,,,,,,,,,,,,,,0,,,53,33
134880,note_on,0,0,2,,,,,,,,,,,,,,,0,,,59,39
134880,note_on,0,0,2,,,,,,,,,,,,,,,0,,,59,0
134880,note_on,0,0,2,,,,,,,,,,,,,,,0,,,53,0
134880,note_on,360,0,2,,,,,,,,,,,,,,,0,,,49,0
134880,set_tempo,360,1,0,,,,,,,,,,,,478088,,,,,,,
134880,note_on,0,0,1,,,,,,,,,,,,,,,0,,,68,53
134880,note_on,360,0,1,,,,,,,,,,,,,,,0,,,69,0
135120,set_tempo,240,1,0,,,,,,,,,,,,500000,,,,,,,
135360,set_tempo,240,1,0,,,,,,,,,,,,436364,,,,,,,
135360,note_on,0,0,1,,,,,,,,,,,,,,,0,,,69,55
135360,note_on,480,0,1,,,,,,,,,,,,,,,0,,,68,0
135360,note_on,0,0,2,,,,,,,,,,,,,,,0,,,53,0
135360,note_on,480,0,2,,,,,,,,,,,,,,,0,,,49,0
135360,note_on,0,0,2,,,,,,,,,,,,,,,0,,,42,50
135360,control_change,0,0,2,,,,,,,,,,,,,,,0,64,0,,
135360,note_on,0,0,2,,,,,,,,,,,,,,,0,,,59,0
135500,set_tempo,140,1,0,,,,,,,,,,,,600000,,,,,,,
135558,control_change,198,0,2,,,,,,,,,,,,,,,0,64,127,,
135600,note_on,240,0,1,,,,,,,,,,,,,,,0,,,69,0
135600,note_on,0,0,1,,,,,,,,,,,,,,,0,,,73,50
135600,set_tempo,100,1,0,,,,,,,,,,,,500000,,,,,,,
135840,note_on,282,0,2,,,,,,,,,,,,,,,0,,,42,0
135840,note_on,0,0,2,,,,,,,,,,,,,,,0,,,57,37
135840,note_on,0,0,2,,,,,,,,,,,,,,,0,,,49,31
136080,note_on,480,0,1,,,,,,,,,,,,,,,0,,,73,0
136320,note_on,480,0,2,,,,,,,,,,,,,,,0,,,49,0
136320,set_tempo,720,1,0,,,,,,,,,,,,483871,,,,,,,
136320,note_on,240,0,1,,,,,,,,,,,,,,,0,,,61,68
136320,note_on,0,0,2,,,,,,,,,,,,,,,0,,,57,0
136348,control_change,28,0,2,,,,,,,,,,,,,,,0,64,0,,
137040,note_on,720,0,1,,,,,,,,,,,,,,,0,,,61,0
137040,note_on,0,0,1,,,,,,,,,,,,,,,0,,,59,60
137160,set_tempo,840,1,0,,,,,,,,,,,,508475,,,,,,,
137280,note_on,240,0,1,,,,,,,,,,,,,,,0,,,59,0
137280,note_on,0,0,1,,,,,,,,,,,,,,,0,,,57,57
137280,set_tempo,120,1,0,,,,,,,,,,,,472441,,,,,,,
137340,note_on,60,0,1,,,,,,,,,,,,,,,0,,,57,0
137340,note_on,0,0,1,,,,,,,,,,,,,,,0,,,59,57
137400,note_on,60,0,1,,,,,,,,,,,,,,,0,,,59,0
137400,note_on,0,0,1,,,,,,,,,,,,,,,0,,,57,68
137760,note_on,360,0,1,,,,,,,,,,,,,,,0,,,57,0
137760,note_on,0,0,1,,,,,,,,,,,,,,,0,,,56,67
137760,set_tempo,480,1,0,,,,,,,,,,,,481928,,,,,,,
138240,note_on,480,0,1,,,,,,,,,,,,,,,0,,,56,0
138240,note_on,0,0,1,,,,,,,,,,,,,,,0,,,57,71
138240,set_tempo,480,1,0,,,,,,,,,,,,463320,,,,,,,
138720,note_on,480,0,1,,,,,,,,,,,,,,,0,,,57,0
138720,note_on,0,0,1,,,,,,,,,,,,,,,0,,,61,67
138720,set_tempo,480,1,0,,,,,,,,,,,,472701,,,,,,,
139680,note_on,0,0,2,,,,,,,,,,,,,,,0,,,56,58
139680,note_on,3332,0,2,,,,,,,,,,,,,,,0,,,49,47
139680,note_on,0,0,1,,,,,,,,,,,,,,,0,,,59,71
139680,note_on,960,0,1,,,,,,,,,,,,,,,0,,,61,0
140160,note_on,0,0,2,,,,,,,,,,,,,,,0,,,54,55
140160,note_on,0,0,1,,,,,,,,,,,,,,,0,,,57,68
140160,note_on,480,0,2,,,,,,,,,,,,,,,0,,,56,0
140160,note_on,480,0,1,,,,,,,,,,,,,,,0,,,59,0
140160,set_tempo,1440,1,0,,,,,,,,,,,,463070,,,,,,,
140640,set_tempo,480,1,0,,,,,,,,,,,,472701,,,,,,,
140640,note_on,480,0,2,,,,,,,,,,,,,,,0,,,54,0
140640,note_on,0,0,2,,,,,,,,,,,,,,,0,,,57,55
140640,note_on,480,0,1,,,,,,,,,,,,,,,0,,,57,0
140640,note_on,0,0,1,,,,,,,,,,,,,,,0,,,61,68
141120,note_on,0,0,2,,,,,,,,,,,,,,,0,,,56,57
141120,note_on,480,0,2,,,,,,,,,,,,,,,0,,,57,0
141120,note_on,0,0,2,,,,,,,,,,,,,,,0,,,49,0
141120,note_on,0,0,2,,,,,,,,,,,,,,,0,,,49,47
141120,note_on,0,0,1,,,,,,,,,,,,,,,0,,,59,63
141120,set_tempo,480,1,0,,,,,,,,,,,,532623,,,,,,,
141120,note_on,480,0,1,,,,,,,,,,,,,,,0,,,61,0
141180,note_on,60,0,1,,,,,,,,,,,,,,,0,,,59,0
141180,note_on,0,0,1,,,,,,,,,,,,,,,0,,,61,63
141240,note_on,60,0,1,,,,,,,,,,,,,,,0,,,61,0
141240,set_tempo,120,1,0,,,,,,,,,,,,431655,,,,,,,
141240,note_on,0,0,1,,,,,,,,,,,,,,,0,,,59,73
141360,note_on,120,0,1,,,,,,,,,,,,,,,0,,,59,0
141360,note_on,0,0,1,,,,,,,,,,,,,,,0,,,57,66
141360,note_on,0,0,2,,,,,,,,,,,,,,,0,,,54,51
141360,note_on,240,0,2,,,,,,,,,,,,,,,0,,,56,0
141600,note_on,240,0,2,,,,,,,,,,,,,,,0,,,54,0
141600,set_tempo,360,1,0,,,,,,,,,,,,472701,,,,,,,
141600,note_on,0,0,1,,,,,,,,,,,,,,,0,,,61,72
141600,note_on,240,0,1,,,,,,,,,,,,,,,0,,,57,0
141600,note_on,0,0,2,,,,,,,,,,,,,,,0,,,57,56
142080,note_on,480,0,1,,,,,,,,,,,,,,,0,,,61,0
142080,note_on,0,0,1,,,,,,,,,,,,,,,0,,,61,68
142080,note_on,480,0,2,,,,,,,,,,,,,,,0,,,57,0
142080,note_on,0,0,2,,,,,,,,,,,,,,,0,,,57,54
142560,note_on,0,0,1,,,,,,,,,,,,,,,0,,,59,61
142560,note_on,480,0,1,,,,,,,,,,,,,,,0,,,61,0
142560,note_on,480,0,2,,,,,,,,,,,,,,,0,,,57,0
142560,note_on,0,0,2,,,,,,,,,,,,,,,0,,,49,0
142560,note_on,0,0,2,,,,,,,,,,,,,,,0,,,49,47
142560,note_on,0,0,2,,,,,,,,,,,,,,,0,,,56,57
142560,set_tempo,960,1,0,,,,,,,,,,,,530129,,,,,,,
142620,note_on,60,0,1,,,,,,,,,,,,,,,0,,,59,0
142620,note_on,0,0,1,,,,,,,,,,,,,,,0,,,61,61
142680,set_tempo,120,1,0,,,,,,,,,,,,439560,,,,,,,
142680,note_on,60,0,1,,,,,,,,,,,,,,,0,,,61,0
142680,note_on,0,0,1,,,,,,,,,,,,,,,0,,,59,72
143040,set_tempo,360,1,0,,,,,,,,,,,,463070,,,,,,,
143040,note_on,0,0,1,,,,,,,,,,,,,,,0,,,58,72
143040,note_on,360,0,1,,,,,,,,,,,,,,,0,,,59,0
143040,note_on,0,0,2,,,,,,,,,,,,,,,0,,,54,56
143040,note_on,480,0,2,,,,,,,,,,,,,,,0,,,56,0
143520,set_tempo,480,1,0,,,,,,,,,,,,472701,,,,,,,
143520,note_on,0,0,2,,,,,,,,,,,,,,,0,,,58,54
143520,note_on,480,0,2,,,,,,,,,,,,,,,0,,,54,0
143520,note_on,0,0,1,,,,,,,,,,,,,,,0,,,61,68
143520,note_on,480,0,1,,,,,,,,,,,,,,,0,,,58,0
144000,note_on,0,0,2,,,,,,,,,,,,,,,0,,,56,57
144000,note_on,0,0,2,,,,,,,,,,,,,,,0,,,49,47
144000,note_on,0,0,2,,,,,,,,,,,,,,,0,,,49,0
144000,note_on,480,0,2,,,,,,,,,,,,,,,0,,,58,0
144000,set_tempo,480,1,0,,,,,,,,,,,,530129,,,,,,,
144000,note_on,480,0,1,,,,,,,,,,,,,,,0,,,61,0
144000,note_on,0,0,1,,,,,,,,,,,,,,,0,,,59,62
144060,note_on,60,0,1,,,,,,,,,,,,,,,0,,,59,0
144060,note_on,0,0,1,,,,,,,,,,,,,,,0,,,61,63
144120,set_tempo,120,1,0,,,,,,,,,,,,459313,,,,,,,
144120,note_on,0,0,1,,,,,,,,,,,,,,,0,,,59,73
144120,note_on,60,0,1,,,,,,,,,,,,,,,0,,,61,0
144240,note_on,0,0,1,,,,,,,,,,,,,,,0,,,58,66
144240,note_on,0,0,2,,,,,,,,,,,,,,,0,,,54,51
144240,note_on,240,0,2,,,,,,,,,,,,,,,0,,,56,0
144240,note_on,120,0,1,,,,,,,,,,,,,,,0,,,59,0
144480,note_on,0,0,2,,,,,,,,,,,,,,,0,,,42,47
144480,note_on,240,0,2,,,,,,,,,,,,,,,0,,,49,0
144480,set_tempo,360,1,0,,,,,,,,,,,,472701,,,,,,,
144480,note_on,0,0,1,,,,,,,,,,,,,,,0,,,66,72
144480,note_on,240,0,1,,,,,,,,,,,,,,,0,,,58,0
144512,control_change,32,0,2,,,,,,,,,,,,,,,0,64,127,,
144960,note_on,480,0,1,,,,,,,,,,,,,,,0,,,66,0
144960,note_on,448,0,2,,,,,,,,,,,,,,,0,,,54,0
144960,set_tempo,480,1,0,,,,,,,,,,,,500000,,,,,,,
144960,note_on,0,0,1,,,,,,,,,,,,,,,0,,,78,58
144971,control_change,11,0,2,,,,,,,,,,,,,,,0,64,0,,
145440,note_on,469,0,2,,,,,,,,,,,,,,,0,,,42,0
145440,note_on,0,0,2,,,,,,,,,,,,,,,0,,,47,50
145461,control_change,21,0,2,,,,,,,,,,,,,,,0,64,127,,
145680,note_on,0,0,1,,,,,,,,,,,,,,,0,,,83,50
145680,note_on,720,0,1,,,,,,,,,,,,,,,0,,,78,0
145920,note_on,0,0,2,,,,,,,,,,,,,,,0,,,59,34
145920,note_on,0,0,2,,,,,,,,,,,,,,,0,,,55,34
145920,note_on,0,0,2,,,,,,,,,,,,,,,0,,,64,40
145920,note_on,459,0,2,,,,,,,,,,,,,,,0,,,47,0
145920,note_on,0,0,1,,,,,,,,,,,,,,,0,,,79,50
145920,set_tempo,960,1,0,,,,,,,,,,,,552995,,,,,,,
145920,note_on,240,0,1,,,,,,,,,,,,,,,0,,,83,0
145980,note_on,60,0,1,,,,,,,,,,,,,,,0,,,79,0
145980,note_on,0,0,1,,,,,,,,,,,,,,,0,,,81,50
146040,note_on,60,0,1,,,,,,,,,,,,,,,0,,,81,0
146040,note_on,0,0,1,,,,,,,,,,,,,,,0,,,79,57
146040,set_tempo,120,1,0,,,,,,,,,,,,491803,,,,,,,
146400,note_on,0,0,2,,,,,,,,,,,,,,,0,,,64,0
146400,note_on,0,0,2,,,,,,,,,,,,,,,0,,,64,39
146400,note_on,0,0,2,,,,,,,,,,,,,,,0,,,59,33
146400,note_on,0,0,2,,,,,,,,,,,,,,,0,,,55,33
146400,note_on,360,0,1,,,,,,,,,,,,,,,0,,,79,0
146400,note_on,0,0,1,,,,,,,,,,,,,,,0,,,78,53
146400,note_on,0,0,2,,,,,,,,,,,,,,,0,,,59,0
146400,note_on,480,0,2,,,,,,,,,,,,,,,0,,,55,0
146400,set_tempo,360,1,0,,,,,,,,,,,,478088,,,,,,,
146640,set_tempo,240,1,0,,,,,,,,,,,,500000,,,,,,,
146640,note_on,240,0,1,,,,,,,,,,,,,,,0,,,78,0
146640,note_on,0,0,1,,,,,,,,,,,,,,,0,,,76,50
146880,note_on,480,0,2,,,,,,,,,,,,,,,0,,,55,0
146880,note_on,0,0,2,,,,,,,,,,,,,,,0,,,59,0
146880,set_tempo,240,1,0,,,,,,,,,,,,436364,,,,,,,
146880,control_change,0,0,2,,,,,,,,,,,,,,,0,64,0,,
146880,note_on,0,0,1,,,,,,,,,,,,,,,0,,,78,55
146880,note_on,0,0,2,,,,,,,,,,,,,,,0,,,64,0
146880,note_on,0,0,2,,,,,,,,,,,,,,,0,,,47,50
146880,note_on,240,0,1,,,,,,,,,,,,,,,0,,,76,0
147020,set_tempo,140,1,0,,,,,,,,,,,,600000,,,,,,,
147078,control_change,198,0,2,,,,,,,,,,,,,,,0,64,127,,
147120,note_on,0,0,1,,,,,,,,,,,,,,,0,,,71,50
147120,set_tempo,100,1,0,,,,,,,,,,,,500000,,,,,,,
147120,note_on,240,0,1,,,,,,,,,,,,,,,0,,,78,0
147360,note_on,282,0,2,,,,,,,,,,,,,,,0,,,47,0
147360,set_tempo,240,1,0,,,,,,,,,,,,489796,,,,,,,
147360,note_on,0,0,2,,,,,,,,,,,,,,,0,,,62,31
147360,note_on,0,0,2,,,,,,,,,,,,,,,0,,,59,26
147360,note_on,0,0,2,,,,,,,,,,,,,,,0,,,54,26
147840,note_on,0,0,2,,,,,,,,,,,,,,,0,,,59,0
147840,note_on,0,0,2,,,,,,,,,,,,,,,0,,,62,31
147840,note_on,0,0,2,,,,,,,,,,,,,,,0,,,59,26
147840,note_on,480,0,2,,,,,,,,,,,,,,,0,,,54,0
147840,note_on,0,0,2,,,,,,,,,,,,,,,0,,,54,26
147840,note_on,0,0,2,,,,,,,,,,,,,,,0,,,62,0
148320,note_on,0,0,2,,,,,,,,,,,,,,,0,,,47,50
148320,control_change,0,0,2,,,,,,,,,,,,,,,0,64,0,,
148320,note_on,0,0,2,,,,,,,,,,,,,,,0,,,59,0
148320,note_on,1200,0,1,,,,,,,,,,,,,,,0,,,71,0
148320,note_on,0,0,1,,,,,,,,,,,,,,,0,,,73,58
148320,set_tempo,960,1,0,,,,,,,,,,,,500000,,,,,,,
148320,note_on,480,0,2,,,,,,,,,,,,,,,0,,,54,0
148320,note_on,0,0,2,,,,,,,,,,,,,,,0,,,62,0
148366,control_change,46,0,2,,,,,,,,,,,,,,,0,64,127,,
148560,note_on,240,0,1,,,,,,,,,,,,,,,0,,,73,0
148560,note_on,0,0,1,,,,,,,,,,,,,,,0,,,76,50
148800,note_on,0,0,2,,,,,,,,,,,,,,,0,,,64,40
148800,note_on,434,0,2,,,,,,,,,,,,,,,0,,,47,0
148800,note_on,0,0,1,,,,,,,,,,,,,,,0,,,74,50
148800,note_on,240,0,1,,,,,,,,,,,,,,,0,,,76,0
148800,set_tempo,480,1,0,,,,,,,,,,,,560748,,,,,,,
148800,note_on,0,0,2,,,,,,,,,,,,,,,0,,,58,34
148800,note_on,0,0,2,,,,,,,,,,,,,,,0,,,54,34
148860,note_on,0,0,1,,,,,,,,,,,,,,,0,,,76,50
148860,note_on,60,0,1,,,,,,,,,,,,,,,0,,,74,0
148920,set_tempo,120,1,0,,,,,,,,,,,,487805,,,,,,,
148920,note_on,60,0,1,,,,,,,,,,,,,,,0,,,76,0
148920,note_on,0,0,1,,,,,,,,,,,,,,,0,,,74,57
149280,note_on,0,0,2,,,,,,,,,,,,,,,0,,,58,33
149280,note_on,0,0,2,,,,,,,,,,,,,,,0,,,64,39
149280,note_on,0,0,2,,,,,,,,,,,,,,,0,,,54,33
149280,note_on,0,0,2,,,,,,,,,,,,,,,0,,,64,0
149280,note_on,360,0,1,,,,,,,,,,,,,,,0,,,74,0
149280,note_on,480,0,2,,,,,,,,,,,,,,,0,,,54,0
149280,set_tempo,360,1,0,,,,,,,,,,,,478088,,,,,,,
149280,note_on,0,0,2,,,,,,,,,,,,,,,0,,,58,0
149280,note_on,0,0,1,,,,,,,,,,,,,,,0,,,73,53
149520,set_tempo,240,1,0,,,,,,,,,,,,500000,,,,,,,
149760,note_on,0,0,1,,,,,,,,,,,,,,,0,,,74,55
149760,note_on,0,0,2,,,,,,,,,,,,,,,0,,,64,0
149760,note_on,480,0,1,,,,,,,,,,,,,,,0,,,73,0
149760,set_tempo,240,1,0,,,,,,,,,,,,436364,,,,,,,
149760,note_on,480,0,2,,,,,,,,,,,,,,,0,,,54,0
149760,note_on,0,0,2,,,,,,,,,,,,,,,0,,,58,0
149760,note_on,0,0,2,,,,,,,,,,,,,,,0,,,47,50
149760,control_change,0,0,2,,,,,,,,,,,,,,,0,64,0,,
149900,set_tempo,140,1,0,,,,,,,,,,,,600000,,,,,,,
149958,control_change,198,0,2,,,,,,,,,,,,,,,0,64,127,,
150000,note_on,0,0,1,,,,,,,,,,,,,,,0,,,71,50
150000,set_tempo,100,1,0,,,,,,,,,,,,500000,,,,,,,
150000,note_on,240,0,1,,,,,,,,,,,,,,,0,,,74,0
150240,note_on,0,0,2,,,,,,,,,,,,,,,0,,,62,31
150240,note_on,0,0,2,,,,,,,,,,,,,,,0,,,59,26
150240,set_tempo,240,1,0,,,,,,,,,,,,489796,,,,,,,
150240,note_on,0,0,2,,,,,,,,,,,,,,,0,,,54,26
150240,note_on,282,0,2,,,,,,,,,,,,,,,0,,,47,0
150664,control_change,424,0,2,,,,,,,,,,,,,,,0,64,0,,
150720,set_tempo,480,1,0,,,,,,,,,,,,472441,,,,,,,
150720,note_on,0,0,1,,,,,,,,,,,,,,,0,,,50,66
150720,note_on,56,0,2,,,,,,,,,,,,,,,0,,,54,0
150720,note_on,0,0,2,,,,,,,,,,,,,,,0,,,59,0
150720,note_on,0,0,2,,,,,,,,,,,,,,,0,,,62,0
150720,note_on,720,0,1,,,,,,,,,,,,,,,0,,,71,0
151200,note_on,0,0,2,,,,,,,,,,,,,,,0,,,65,43
151200,note_on,480,0,2,,,,,,,,,,,,,,,0,,,59,38
151440,note_on,0,0,1,,,,,,,,,,,,,,,0,,,55,58
151440,note_on,720,0,1,,,,,,,,,,,,,,,0,,,50,0
151680,note_on,240,0,1,,,,,,,,,,,,,,,0,,,55,0
151680,set_tempo,960,1,0,,,,,,,,,,,,433213,,,,,,,
151680,note_on,0,0,2,,,,,,,,,,,,,,,0,,,64,38
151680,note_on,0,0,2,,,,,,,,,,,,,,,0,,,60,34
151680,note_on,0,0,2,,,,,,,,,,,,,,,0,,,59,0
151680,note_on,0,0,1,,,,,,,,,,,,,,,0,,,52,65
151680,note_on,480,0,2,,,,,,,,,,,,,,,0,,,65,0
151840,note_on,0,0,1,,,,,,,,,,,,,,,0,,,53,57
151840,note_on,160,0,1,,,,,,,,,,,,,,,0,,,52,0
152000,note_on,0,0,1,,,,,,,,,,,,,,,0,,,52,55
152000,note_on,160,0,1,,,,,,,,,,,,,,,0,,,53,0
152160,note_on,0,0,2,,,,,,,,,,,,,,,0,,,60,0
152160,set_tempo,480,1,0,,,,,,,,,,,,472441,,,,,,,
152160,note_on,480,0,2,,,,,,,,,,,,,,,0,,,64,0
152160,note_on,160,0,1,,,,,,,,,,,,,,,0,,,52,0
152160,note_on,0,0,1,,,,,,,,,,,,,,,0,,,50,63
152160,note_on,0,0,2,,,,,,,,,,,,,,,0,,,64,38
152160,note_on,0,0,2,,,,,,,,,,,,,,,0,,,60,34
152400,note_on,240,0,1,,,,,,,,,,,,,,,0,,,50,0
152400,note_on,0,0,1,,,,,,,,,,,,,,,0,,,48,57
152640,note_on,240,0,1,,,,,,,,,,,,,,,0,,,48,0
152640,note_on,0,0,2,,,,,,,,,,,,,,,0,,,55,41
152640,note_on,0,0,1,,,,,,,,,,,,,,,0,,,50,64
152640,note_on,0,0,2,,,,,,,,,,,,,,,0,,,59,41
152640,note_on,0,0,2,,,,,,,,,,,,,,,0,,,60,0
152640,set_tempo,480,1,0,,,,,,,,,,,,476190,,,,,,,
152640,note_on,0,0,2,,,,,,,,,,,,,,,0,,,65,46
152640,note_on,480,0,2,,,,,,,,,,,,,,,0,,,64,0
153000,note_on,0,0,1,,,,,,,,,,,,,,,0,,,43,55
153000,note_on,360,0,1,,,,,,,,,,,,,,,0,,,50,0
153120,note_on,0,0,1,,,,,,,,,,,,,,,0,,,50,64
153120,note_on,120,0,1,,,,,,,,,,,,,,,0,,,43,0
153120,note_on,480,0,2,,,,,,,,,,,,,,,0,,,65,0
153120,note_on,0,0,2,,,,,,,,,,,,,,,0,,,59,0
153120,note_on,0,0,2,,,,,,,,,,,,,,,0,,,55,0
153120,note_on,0,0,2,,,,,,,,,,,,,,,0,,,55,34
153120,note_on,0,0,2,,,,,,,,,,,,,,,0,,,59,34
153120,note_on,0,0,2,,,,,,,,,,,,,,,0,,,65,38
153600,note_on,480,0,2,,,,,,,,,,,,,,,0,,,65,0
153600,note_on,0,0,2,,,,,,,,,,,,,,,0,,,59,0
153600,note_on,0,0,2,,,,,,,,,,,,,,,0,,,55,0
153600,note_on,0,0,2,,,,,,,,,,,,,,,0,,,60,34
153600,note_on,0,0,2,,,,,,,,,,,,,,,0,,,64,38
153600,note_on,480,0,1,,,,,,,,,,,,,,,0,,,50,0
153600,note_on,0,0,1,,,,,,,,,,,,,,,0,,,48,59
154080,note_on,480,0,1,,,,,,,,,,,,,,,0,,,48,0
154080,note_on,0,0,2,,,,,,,,,,,,,,,0,,,60,0
154080,note_on,0,0,2,,,,,,,,,,,,,,,0,,,59,38
154080,note_on,0,0,2,,,,,,,,,,,,,,,0,,,65,43
154080,set_tempo,1440,1,0,,,,,,,,,,,,472441,,,,,,,
154080,note_on,480,0,2,,,,,,,,,,,,,,,0,,,64,0
154080,note_on,0,0,1,,,,,,,,,,,,,,,0,,,50,66
154320,note_on,0,0,1,,,,,,,,,,,,,,,0,,,55,58
154320,note_on,240,0,1,,,,,,,,,,,,,,,0,,,50,0
154560,note_on,0,0,2,,,,,,,,,,,,,,,0,,,59,0
154560,note_on,0,0,2,,,,,,,,,,,,,,,0,,,60,34
154560,note_on,0,0,2,,,,,,,,,,,,,,,0,,,64,38
154560,note_on,240,0,1,,,,,,,,,,,,,,,0,,,55,0
154560,note_on,0,0,1,,,,,,,,,,,,,,,0,,,52,65
154560,note_on,480,0,2,,,,,,,,,,,,,,,0,,,65,0
154560,set_tempo,480,1,0,,,,,,,,,,,,433213,,,,,,,
154720,note_on,0,0,1,,,,,,,,,,,,,,,0,,,53,57
154720,note_on,160,0,1,,,,,,,,,,,,,,,0,,,52,0
154880,note_on,0,0,1,,,,,,,,,,,,,,,0,,,52,55
154880,note_on,160,0,1,,,,,,,,,,,,,,,0,,,53,0
155040,note_on,0,0,1,,,,,,,,,,,,,,,0,,,50,63
155040,note_on,160,0,1,,,,,,,,,,,,,,,0,,,52,0
155040,set_tempo,480,1,0,,,,,,,,,,,,472441,,,,,,,
155040,note_on,0,0,2,,,,,,,,,,,,,,,0,,,60,34
155040,note_on,0,0,2,,,,,,,,,,,,,,,0,,,64,38
155040,note_on,480,0,2,,,,,,,,,,,,,,,0,,,64,0
155040,note_on,0,0,2,,,,,,,,,,,,,,,0,,,60,0
155280,note_on,240,0,1,,,,,,,,,,,,,,,0,,,50,0
155280,note_on,0,0,1,,,,,,,,,,,,,,,0,,,48,57
155520,note_on,0,0,2,,,,,,,,,,,,,,,0,,,60,0
155520,note_on,0,0,2,,,,,,,,,,,,,,,0,,,55,41
155520,note_on,0,0,2,,,,,,,,,,,,,,,0,,,59,41
155520,note_on,480,0,2,,,,,,,,,,,,,,,0,,,64,0
155520,note_on,0,0,1,,,,,,,,,,,,,,,0,,,50,64
155520,note_on,0,0,2,,,,,,,,,,,,,,,0,,,65,46
155520,note_on,240,0,1,,,,,,,,,,,,,,,0,,,48,0
155520,set_tempo,480,1,0,,,,,,,,,,,,476190,,,,,,,
155880,note_on,360,0,1,,,,,,,,,,,,,,,0,,,50,0
155880,note_on,0,0,1,,,,,,,,,,,,,,,0,,,43,54
156000,note_on,120,0,1,,,,,,,,,,,,,,,0,,,43,0
156000,note_on,0,0,2,,,,,,,,,,,,,,,0,,,55,0
156000,note_on,0,0,1,,,,,,,,,,,,,,,0,,,50,62
156000,note_on,480,0,2,,,,,,,,,,,,,,,0,,,65,0
156000,note_on,0,0,2,,,,,,,,,,,,,,,0,,,65,37
156000,note_on,0,0,2,,,,,,,,,,,,,,,0,,,59,33
156000,note_on,0,0,2,,,,,,,,,,,,,,,0,,,55,33
156000,note_on,0,0,2,,,,,,,,,,,,,,,0,,,59,0
156480,note_on,480,0,1,,,,,,,,,,,,,,,0,,,50,0
156480,note_on,0,0,1,,,,,,,,,,,,,,,0,,,48,56
156480,note_on,0,0,2,,,,,,,,,,,,,,,0,,,64,36
156480,note_on,0,0,2,,,,,,,,,,,,,,,0,,,60,32
156480,note_on,0,0,2,,,,,,,,,,,,,,,0,,,55,0
156480,note_on,0,0,2,,,,,,,,,,,,,,,0,,,59,0
156480,note_on,480,0,2,,,,,,,,,,,,,,,0,,,65,0
156960,note_on,480,0,1,,,,,,,,,,,,,,,0,,,48,0
156960,note_on,0,0,1,,,,,,,,,,,,,,,0,,,50,60
156960,set_tempo,1440,1,0,,,,,,,,,,,,452830,,,,,,,
156960,note_on,480,0,2,,,,,,,,,,,,,,,0,,,64,0
156960,note_on,0,0,2,,,,,,,,,,,,,,,0,,,60,0
156960,note_on,0,0,2,,,,,,,,,,,,,,,0,,,55,38
156960,note_on,0,0,2,,,,,,,,,,,,,,,0,,,59,38
156960,note_on,0,0,2,,,,,,,,,,,,,,,0,,,65,43
157320,note_on,0,0,1,,,,,,,,,,,,,,,0,,,43,51
157320,note_on,360,0,1,,,,,,,,,,,,,,,0,,,50,0
157440,note_on,0,0,1,,,,,,,,,,,,,,,0,,,48,58
157440,note_on,120,0,1,,,,,,,,,,,,,,,0,,,43,0
157440,set_tempo,480,1,0,,,,,,,,,,,,487805,,,,,,,
157440,note_on,480,0,2,,,,,,,,,,,,,,,0,,,65,0
157440,note_on,0,0,2,,,,,,,,,,,,,,,0,,,59,0
157440,note_on,0,0,2,,,,,,,,,,,,,,,0,,,55,0
157440,note_on,0,0,2,,,,,,,,,,,,,,,0,,,64,34
157440,note_on,0,0,2,,,,,,,,,,,,,,,0,,,60,31
157920,note_on,480,0,1,,,,,,,,,,,,,,,0,,,48,0
157920,note_on,0,0,2,,,,,,,,,,,,,,,0,,,60,0
157920,note_on,0,0,1,,,,,,,,,,,,,,,0,,,50,57
157920,note_on,0,0,2,,,,,,,,,,,,,,,0,,,59,36
157920,note_on,0,0,2,,,,,,,,,,,,,,,0,,,65,41
157920,set_tempo,480,1,0,,,,,,,,,,,,466926,,,,,,,
157920,note_on,480,0,2,,,,,,,,,,,,,,,0,,,64,0
157920,note_on,0,0,2,,,,,,,,,,,,,,,0,,,55,36
158280,note_on,0,0,1,,,,,,,,,,,,,,,0,,,43,48
158280,note_on,360,0,1,,,,,,,,,,,,,,,0,,,50,0
158400,set_tempo,480,1,0,,,,,,,,,,,,493827,,,,,,,
158400,note_on,0,0,2,,,,,,,,,,,,,,,0,,,60,29
158400,note_on,0,0,1,,,,,,,,,,,,,,,0,,,48,56
158400,note_on,0,0,2,,,,,,,,,,,,,,,0,,,64,29
158400,note_on,0,0,2,,,,,,,,,,,,,,,0,,,55,0
158400,note_on,0,0,2,,,,,,,,,,,,,,,0,,,59,0
158400,note_on,480,0,2,,,,,,,,,,,,,,,0,,,65,0
158400,note_on,120,0,1,,,,,,,,,,,,,,,0,,,43,0
158880,note_on,480,0,2,,,,,,,,,,,,,,,0,,,64,0
158880,note_on,0,0,2,,,,,,,,,,,,,,,0,,,60,0
158880,set_tempo,480,1,0,,,,,,,,,,,,470588,,,,,,,
158880,note_on,0,0,2,,,,,,,,,,,,,,,0,,,55,35
158880,note_on,0,0,2,,,,,,,,,,,,,,,0,,,59,35
158880,note_on,0,0,2,,,,,,,,,,,,,,,0,,,65,39
158880,note_on,0,0,1,,,,,,,,,,,,,,,0,,,50,55
158880,note_on,480,0,1,,,,,,,,,,,,,,,0,,,48,0
159240,note_on,360,0,1,,,,,,,,,,,,,,,0,,,50,0
159240,note_on,0,0,1,,,,,,,,,,,,,,,0,,,43,46
159360,note_on,0,0,2,,,,,,,,,,,,,,,0,,,60,28
159360,set_tempo,480,1,0,,,,,,,,,,,,502092,,,,,,,
159360,note_on,120,0,1,,,,,,,,,,,,,,,0,,,43,0
159360,note_on,0,0,1,,,,,,,,,,,,,,,0,,,48,53
159360,note_on,480,0,2,,,,,,,,,,,,,,,0,,,65,0
159360,note_on,0,0,2,,,,,,,,,,,,,,,0,,,59,0
159360,note_on,0,0,2,,,,,,,,,,,,,,,0,,,55,0
159360,note_on,0,0,2,,,,,,,,,,,,,,,0,,,64,31
159840,note_on,480,0,1,,,,,,,,,,,,,,,0,,,48,0
159840,note_on,0,0,1,,,,,,,,,,,,,,,0,,,43,52
159840,note_on,480,0,2,,,,,,,,,,,,,,,0,,,64,0
159840,note_on,0,0,2,,,,,,,,,,,,,,,0,,,60,0
159840,note_on,0,0,2,,,,,,,,,,,,,,,0,,,55,52
161280,note_on,0,0,1,,,,,,,,,,,,,,,0,,,42,60
161280,note_on,0,0,2,,,,,,,,,,,,,,,0,,,54,59
161280,note_on,1440,0,2,,,,,,,,,,,,,,,0,,,55,0
161280,note_on,1440,0,1,,,,,,,,,,,,,,,0,,,43,0
161280,set_tempo,1920,1,0,,,,,,,,,,,,515021,,,,,,,
162240,note_on,960,0,1,,,,,,,,,,,,,,,0,,,42,0
162240,note_on,0,0,1,,,,,,,,,,,,,,,0,,,41,66
162240,set_tempo,960,1,0,,,,,,,,,,,,582524,,,,,,,
162240,note_on,0,0,2,,,,,,,,,,,,,,,0,,,53,62
162240,note_on,960,0,2,,,,,,,,,,,,,,,0,,,54,0
162720,set_tempo,0,1,0,,,,,,,,,,,,400000,,,,,,,
162720,key_signature,480,1,0,,,,,,,,,,,Bb,,,,,,,,
162720,note_on,480,0,1,,,,,,,,,,,,,,,0,,,41,0
162720,note_on,480,0,2,,,,,,,,,,,,,,,0,,,53,0
162720,note_on,0,0,2,,,,,,,,,,,,,,,0,,,34,74
162819,control_change,99,0,2,,,,,,,,,,,,,,,0,64,127,,
162960,note_on,141,0,2,,,,,,,,,,,,,,,0,,,34,0
163200,set_tempo,480,1,0,,,,,,,,,,,,377358,,,,,,,
163200,note_on,0,0,2,,,,,,,,,,,,,,,0,,,62,64
163200,note_on,0,0,1,,,,,,,,,,,,,,,0,,,70,68
163200,note_on,0,0,1,,,,,,,,,,,,,,,0,,,74,80
163200,note_on,240,0,2,,,,,,,,,,,,,,,0,,,53,54
163200,note_on,0,0,2,,,,,,,,,,,,,,,0,,,58,54
163200,note_on,480,0,1,,,,,,,,,,,,,,,0,,,65,68
163680,note_on,0,0,2,,,,,,,,,,,,,,,0,,,62,0
163680,note_on,0,0,2,,,,,,,,,,,,,,,0,,,53,0
163680,note_on,0,0,2,,,,,,,,,,,,,,,0,,,63,64
163680,note_on,0,0,2,,,,,,,,,,,,,,,0,,,58,64
163680,note_on,0,0,2,,,,,,,,,,,,,,,0,,,54,64
163680,note_on,0,0,1,,,,,,,,,,,,,,,0,,,70,0
163680,note_on,0,0,1,,,,,,,,,,,,,,,0,,,65,0
163680,note_on,0,0,1,,,,,,,,,,,,,,,0,,,66,68
163680,note_on,0,0,1,,,,,,,,,,,,,,,0,,,70,68
163680,note_on,0,0,1,,,,,,,,,,,,,,,0,,,75,80
163680,note_on,480,0,1,,,,,,,,,,,,,,,0,,,74,0
163680,note_on,480,0,2,,,,,,,,,,,,,,,0,,,58,0
164160,note_on,480,0,1,,,,,,,,,,,,,,,0,,,75,0
164160,note_on,0,0,1,,,,,,,,,,,,,,,0,,,70,0
164160,note_on,0,0,2,,,,,,,,,,,,,,,0,,,63,0
164160,note_on,0,0,2,,,,,,,,,,,,,,,0,,,46,73
164160,control_change,0,0,2,,,,,,,,,,,,,,,0,64,0,,
164160,note_on,0,0,2,,,,,,,,,,,,,,,0,,,58,0
164160,note_on,480,0,2,,,,,,,,,,,,,,,0,,,54,0
164160,note_on,0,0,1,,,,,,,,,,,,,,,0,,,66,0
164160,note_on,0,0,1,,,,,,,,,,,,,,,0,,,78,86
164160,set_tempo,960,1,0,,,,,,,,,,,,361446,,,,,,,
164257,control_change,97,0,2,,,,,,,,,,,,,,,0,64,127,,
164280,note_on,120,0,1,,,,,,,,,,,,,,,0,,,78,0
164400,note_on,143,0,2,,,,,,,,,,,,,,,0,,,46,0
164520,note_on,0,0,1,,,,,,,,,,,,,,,0,,,74,61
164520,note_on,240,0,1,,,,,,,,,,,,,,,0,,,77,80
164560,set_tempo,400,1,0,,,,,,,,,,,,333333,,,,,,,
164620,set_tempo,60,1,0,,,,,,,,,,,,349854,,,,,,,
164640,note_on,0,0,2,,,,,,,,,,,,,,,0,,,58,57
164640,note_on,120,0,1,,,,,,,,,,,,,,,0,,,74,0
164640,note_on,0,0,2,,,,,,,,,,,,,,,0,,,62,57
164640,note_on,240,0,2,,,,,,,,,,,,,,,0,,,65,68
164640,note_on,0,0,1,,,,,,,,,,,,,,,0,,,72,61
165000,note_on,0,0,1,,,,,,,,,,,,,,,0,,,77,80
165000,note_on,0,0,1,,,,,,,,,,,,,,,0,,,74,61
165000,note_on,0,0,1,,,,,,,,,,,,,,,0,,,77,0
165000,note_on,360,0,1,,,,,,,,,,,,,,,0,,,72,0
165120,note_on,120,0,1,,,,,,,,,,,,,,,0,,,74,0
165120,note_on,480,0,2,,,,,,,,,,,,,,,0,,,53,68
165120,set_tempo,500,1,0,,,,,,,,,,,,384615,,,,,,,
165120,note_on,0,0,1,,,,,,,,,,,,,,,0,,,70,80
165217,control_change,97,0,2,,,,,,,,,,,,,,,0,64,0,,
165480,note_on,360,0,1,,,,,,,,,,,,,,,0,,,77,0
165600,note_on,120,0,1,,,,,,,,,,,,,,,0,,,70,0
165600,note_on,0,0,1,,,,,,,,,,,,,,,0,,,82,85
165600,note_on,383,0,2,,,,,,,,,,,,,,,0,,,53,0
165600,note_on,0,0,2,,,,,,,,,,,,,,,0,,,65,0
165600,note_on,0,0,2,,,,,,,,,,,,,,,0,,,62,0
165600,note_on,0,0,2,,,,,,,,,,,,,,,0,,,34,72
165600,note_on,0,0,2,,,,,,,,,,,,,,,0,,,58,0
165720,control_change,120,0,2,,,,,,,,,,,,,,,0,64,127,,
165840,note_on,240,0,1,,,,,,,,,,,,,,,0,,,82,0
165840,note_on,120,0,2,,,,,,,,,,,,,,,0,,,34,0
166080,note_on,240,0,2,,,,,,,,,,,,,,,0,,,53,54
166080,note_on,0,0,2,,,,,,,,,,,,,,,0,,,62,64
166080,note_on,0,0,2,,,,,,,,,,,,,,,0,,,58,54
166080,note_on,0,0,1,,,,,,,,,,,,,,,0,,,70,68
166080,note_on,0,0,1,,,,,,,,,,,,,,,0,,,74,80
166080,set_tempo,960,1,0,,,,,,,,,,,,377358,,,,,,,
166080,note_on,240,0,1,,,,,,,,,,,,,,,0,,,65,68
166560,note_on,480,0,2,,,,,,,,,,,,,,,0,,,58,0
166560,note_on,0,0,2,,,,,,,,,,,,,,,0,,,62,0
166560,note_on,0,0,2,,,,,,,,,,,,,,,0,,,54,64
166560,note_on,0,0,2,,,,,,,,,,,,,,,0,,,53,0
166560,note_on,0,0,2,,,,,,,,,,,,,,,0,,,63,64
166560,note_on,0,0,2,,,,,,,,,,,,,,,0,,,58,64
166560,note_on,480,0,1,,,,,,,,,,,,,,,0,,,74,0
166560,note_on,0,0,1,,,,,,,,,,,,,,,0,,,65,0
166560,note_on,0,0,1,,,,,,,,,,,,,,,0,,,66,68
166560,note_on,0,0,1,,,,,,,,,,,,,,,0,,,70,68
166560,note_on,0,0,1,,,,,,,,,,,,,,,0,,,75,80
166560,note_on,0,0,1,,,,,,,,,,,,,,,0,,,70,0
167040,note_on,0,0,2,,,,,,,,,,,,,,,0,,,46,73
167040,note_on,0,0,2,,,,,,,,,,,,,,,0,,,58,0
167040,note_on,480,0,2,,,,,,,,,,,,,,,0,,,54,0
167040,note_on,0,0,2,,,,,,,,,,,,,,,0,,,63,0
167040,note_on,480,0,1,,,,,,,,,,,,,,,0,,,75,0
167040,note_on,0,0,1,,,,,,,,,,,,,,,0,,,70,0
167040,set_tempo,960,1,0,,,,,,,,,,,,361446,,,,,,,
167040,note_on,0,0,1,,,,,,,,,,,,,,,0,,,66,0
167040,note_on,0,0,1,,,,,,,,,,,,,,,0,,,78,86
167040,control_change,0,0,2,,,,,,,,,,,,,,,0,64,0,,
167137,control_change,97,0,2,,,,,,,,,,,,,,,0,64,127,,
167160,note_on,120,0,1,,,,,,,,,,,,,,,0,,,78,0
167280,note_on,143,0,2,,,,,,,,,,,,,,,0,,,46,0
167400,note_on,0,0,1,,,,,,,,,,,,,,,0,,,74,61
167400,note_on,240,0,1,,,,,,,,,,,,,,,0,,,77,80
167440,set_tempo,400,1,0,,,,,,,,,,,,335196,,,,,,,
167520,note_on,240,0,2,,,,,,,,,,,,,,,0,,,65,68
167520,note_on,0,0,1,,,,,,,,,,,,,,,0,,,72,61
167520,note_on,120,0,1,,,,,,,,,,,,,,,0,,,74,0
167520,note_on,0,0,2,,,,,,,,,,,,,,,0,,,62,57
167520,note_on,0,0,2,,,,,,,,,,,,,,,0,,,58,57
167520,set_tempo,80,1,0,,,,,,,,,,,,351906,,,,,,,
167880,note_on,0,0,1,,,,,,,,,,,,,,,0,,,74,61
167880,note_on,0,0,1,,,,,,,,,,,,,,,0,,,77,0
167880,note_on,0,0,1,,,,,,,,,,,,,,,0,,,77,80
167880,note_on,360,0,1,,,,,,,,,,,,,,,0,,,72,0
168000,set_tempo,480,1,0,,,,,,,,,,,,384615,,,,,,,
168000,note_on,480,0,2,,,,,,,,,,,,,,,0,,,53,68
168000,note_on,0,0,1,,,,,,,,,,,,,,,0,,,70,80
168000,note_on,120,0,1,,,,,,,,,,,,,,,0,,,74,0
168097,control_change,97,0,2,,,,,,,,,,,,,,,0,64,0,,
168360,note_on,360,0,1,,,,,,,,,,,,,,,0,,,77,0
168480,note_on,383,0,2,,,,,,,,,,,,,,,0,,,53,0
168480,note_on,0,0,2,,,,,,,,,,,,,,,0,,,58,0
168480,note_on,0,0,2,,,,,,,,,,,,,,,0,,,34,79
168480,note_on,0,0,2,,,,,,,,,,,,,,,0,,,65,0
168480,set_tempo,480,1,0,,,,,,,,,,,,400000,,,,,,,
168480,note_on,0,0,2,,,,,,,,,,,,,,,0,,,62,0
168480,note_on,120,0,1,,,,,,,,,,,,,,,0,,,70,0
168579,control_change,99,0,2,,,,,,,,,,,,,,,0,64,127,,
168720,note_on,141,0,2,,,,,,,,,,,,,,,0,,,34,0
168960,set_tempo,480,1,0,,,,,,,,,,,,377358,,,,,,,
168960,note_on,0,0,1,,,,,,,,,,,,,,,0,,,70,68
168960,note_on,0,0,1,,,,,,,,,,,,,,,0,,,74,80
168960,note_on,480,0,1,,,,,,,,,,,,,,,0,,,65,68
168960,note_on,240,0,2,,,,,,,,,,,,,,,0,,,53,54
168960,note_on,0,0,2,,,,,,,,,,,,,,,0,,,62,64
168960,note_on,0,0,2,,,,,,,,,,,,,,,0,,,58,54
169440,note_on,0,0,2,,,,,,,,,,,,,,,0,,,54,64
169440,note_on,0,0,2,,,,,,,,,,,,,,,0,,,58,64
169440,note_on,0,0,1,,,,,,,,,,,,,,,0,,,75,80
169440,note_on,0,0,1,,,,,,,,,,,,,,,0,,,70,68
169440,note_on,0,0,2,,,,,,,,,,,,,,,0,,,63,64
169440,note_on,0,0,1,,,,,,,,,,,,,,,0,,,66,68
169440,note_on,0,0,1,,,,,,,,,,,,,,,0,,,65,0
169440,note_on,0,0,1,,,,,,,,,,,,,,,0,,,70,0
169440,note_on,480,0,1,,,,,,,,,,,,,,,0,,,74,0
169440,note_on,0,0,2,,,,,,,,,,,,,,,0,,,62,0
169440,note_on,480,0,2,,,,,,,,,,,,,,,0,,,58,0
169440,note_on,0,0,2,,,,,,,,,,,,,,,0,,,53,0
169920,note_on,480,0,1,,,,,,,,,,,,,,,0,,,75,0
169920,note_on,0,0,1,,,,,,,,,,,,,,,0,,,78,86
169920,note_on,480,0,2,,,,,,,,,,,,,,,0,,,54,0
169920,note_on,0,0,1,,,,,,,,,,,,,,,0,,,66,0
169920,note_on,0,0,1,,,,,,,,,,,,,,,0,,,70,0
169920,set_tempo,960,1,0,,,,,,,,,,,,361446,,,,,,,
169920,note_on,0,0,2,,,,,,,,,,,,,,,0,,,58,0
169920,note_on,0,0,2,,,,,,,,,,,,,,,0,,,63,0
169920,control_change,0,0,2,,,,,,,,,,,,,,,0,64,0,,
169920,note_on,0,0,2,,,,,,,,,,,,,,,0,,,46,73
170017,control_change,97,0,2,,,,,,,,,,,,,,,0,64,127,,
170040,note_on,120,0,1,,,,,,,,,,,,,,,0,,,78,0
170160,note_on,143,0,2,,,,,,,,,,,,,,,0,,,46,0
170280,note_on,240,0,1,,,,,,,,,,,,,,,0,,,77,80
170280,note_on,0,0,1,,,,,,,,,,,,,,,0,,,74,61
170280,set_tempo,360,1,0,,,,,,,,,,,,336134,,,,,,,
170400,note_on,240,0,2,,,,,,,,,,,,,,,0,,,65,68
170400,note_on,0,0,2,,,,,,,,,,,,,,,0,,,62,57
170400,note_on,0,0,2,,,,,,,,,,,,,,,0,,,58,57
170400,set_tempo,120,1,0,,,,,,,,,,,,347826,,,,,,,
170400,note_on,0,0,1,,,,,,,,,,,,,,,0,,,72,61
170400,note_on,120,0,1,,,,,,,,,,,,,,,0,,,74,0
170760,note_on,0,0,1,,,,,,,,,,,,,,,0,,,77,80
170760,note_on,0,0,1,,,,,,,,,,,,,,,0,,,74,61
170760,note_on,0,0,1,,,,,,,,,,,,,,,0,,,77,0
170760,note_on,360,0,1,,,,,,,,,,,,,,,0,,,72,0
170880,set_tempo,480,1,0,,,,,,,,,,,,384615,,,,,,,
170880,note_on,0,0,1,,,,,,,,,,,,,,,0,,,70,80
170880,note_on,480,0,2,,,,,,,,,,,,,,,0,,,53,68
170880,note_on,120,0,1,,,,,,,,,,,,,,,0,,,74,0
170977,control_change,97,0,2,,,,,,,,,,,,,,,0,64,0,,
171240,note_on,360,0,1,,,,,,,,,,,,,,,0,,,77,0
171360,note_on,120,0,1,,,,,,,,,,,,,,,0,,,70,0
171360,note_on,0,0,1,,,,,,,,,,,,,,,0,,,94,85
171360,note_on,0,0,1,,,,,,,,,,,,,,,0,,,82,80
171360,note_on,383,0,2,,,,,,,,,,,,,,,0,,,53,0
171360,note_on,0,0,2,,,,,,,,,,,,,,,0,,,65,0
171360,note_on,0,0,2,,,,,,,,,,,,,,,0,,,62,0
171360,note_on,0,0,2,,,,,,,,,,,,,,,0,,,58,0
171360,note_on,0,0,2,,,,,,,,,,,,,,,0,,,34,69
171360,note_on,0,0,2,,,,,,,,,,,,,,,0,,,46,72
171480,control_change,120,0,2,,,,,,,,,,,,,,,0,64,127,,
171600,note_on,0,0,2,,,,,,,,,,,,,,,0,,,46,0
171600,note_on,240,0,1,,,,,,,,,,,,,,,0,,,82,0
171600,note_on,120,0,2,,,,,,,,,,,,,,,0,,,34,0
171600,note_on,0,0,1,,,,,,,,,,,,,,,0,,,94,0
171840,note_on,0,0,1,,,,,,,,,,,,,,,0,,,74,80
171840,note_on,0,0,1,,,,,,,,,,,,,,,0,,,70,68
171840,note_on,240,0,1,,,,,,,,,,,,,,,0,,,65,68
171840,set_tempo,960,1,0,,,,,,,,,,,,377358,,,,,,,
171840,note_on,0,0,2,,,,,,,,,,,,,,,0,,,58,54
171840,note_on,0,0,2,,,,,,,,,,,,,,,0,,,62,64
171840,note_on,240,0,2,,,,,,,,,,,,,,,0,,,53,54
172320,note_on,480,0,2,,,,,,,,,,,,,,,0,,,58,0
172320,note_on,0,0,2,,,,,,,,,,,,,,,0,,,58,64
172320,note_on,0,0,2,,,,,,,,,,,,,,,0,,,63,64
172320,note_on,0,0,2,,,,,,,,,,,,,,,0,,,53,0
172320,note_on,0,0,2,,,,,,,,,,,,,,,0,,,62,0
172320,note_on,480,0,1,,,,,,,,,,,,,,,0,,,74,0
172320,note_on,0,0,1,,,,,,,,,,,,,,,0,,,70,0
172320,note_on,0,0,1,,,,,,,,,,,,,,,0,,,65,0
172320,note_on,0,0,1,,,,,,,,,,,,,,,0,,,66,68
172320,note_on,0,0,1,,,,,,,,,,,,,,,0,,,70,68
172320,note_on,0,0,1,,,,,,,,,,,,,,,0,,,75,80
172320,note_on,0,0,2,,,,,,,,,,,,,,,0,,,54,64
172800,note_on,480,0,1,,,,,,,,,,,,,,,0,,,75,0
172800,note_on,0,0,1,,,,,,,,,,,,,,,0,,,70,0
172800,note_on,0,0,1,,,,,,,,,,,,,,,0,,,66,0
172800,note_on,0,0,1,,,,,,,,,,,,,,,0,,,78,86
172800,note_on,480,0,2,,,,,,,,,,,,,,,0,,,54,0
172800,set_tempo,960,1,0,,,,,,,,,,,,361446,,,,,,,
172800,note_on,0,0,2,,,,,,,,,,,,,,,0,,,63,0
172800,note_on,0,0,2,,,,,,,,,,,,,,,0,,,46,73
172800,control_change,0,0,2,,,,,,,,,,,,,,,0,64,0,,
172800,note_on,0,0,2,,,,,,,,,,,,,,,0,,,58,0
172897,control_change,97,0,2,,,,,,,,,,,,,,,0,64,127,,
172920,note_on,120,0,1,,,,,,,,,,,,,,,0,,,78,0
173040,note_on,143,0,2,,,,,,,,,,,,,,,0,,,46,0
173160,set_tempo,360,1,0,,,,,,,,,,,,338028,,,,,,,
173160,note_on,0,0,1,,,,,,,,,,,,,,,0,,,74,61
173160,note_on,240,0,1,,,,,,,,,,,,,,,0,,,77,80
173280,note_on,0,0,1,,,,,,,,,,,,,,,0,,,72,61
173280,note_on,120,0,1,,,,,,,,,,,,,,,0,,,74,0
173280,set_tempo,120,1,0,,,,,,,,,,,,349854,,,,,,,
173280,note_on,0,0,2,,,,,,,,,,,,,,,0,,,62,57
173280,note_on,0,0,2,,,,,,,,,,,,,,,0,,,58,57
173280,note_on,240,0,2,,,,,,,,,,,,,,,0,,,65,68
173640,note_on,0,0,1,,,,,,,,,,,,,,,0,,,77,80
173640,note_on,0,0,1,,,,,,,,,,,,,,,0,,,74,61
173640,note_on,360,0,1,,,,,,,,,,,,,,,0,,,72,0
173640,note_on,0,0,1,,,,,,,,,,,,,,,0,,,77,0
173760,note_on,0,0,1,,,,,,,,,,,,,,,0,,,70,80
173760,note_on,120,0,1,,,,,,,,,,,,,,,0,,,74,0
173760,set_tempo,480,1,0,,,,,,,,,,,,384615,,,,,,,
173760,note_on,480,0,2,,,,,,,,,,,,,,,0,,,53,68
173857,control_change,97,0,2,,,,,,,,,,,,,,,0,64,0,,
174120,note_on,360,0,1,,,,,,,,,,,,,,,0,,,77,0
174240,note_on,120,0,1,,,,,,,,,,,,,,,0,,,70,0
174240,note_on,0,0,2,,,,,,,,,,,,,,,0,,,62,0
174240,set_tempo,480,1,0,,,,,,,,,,,,400000,,,,,,,
174240,note_on,383,0,2,,,,,,,,,,,,,,,0,,,53,0
174240,note_on,0,0,2,,,,,,,,,,,,,,,0,,,39,81
174240,note_on,0,0,2,,,,,,,,,,,,,,,0,,,58,0
174240,note_on,0,0,2,,,,,,,,,,,,,,,0,,,65,0
174339,control_change,99,0,2,,,,,,,,,,,,,,,0,64,127,,
174480,note_on,141,0,2,,,,,,,,,,,,,,,0,,,39,0
174720,note_on,0,0,1,,,,,,,,,,,,,,,0,,,75,68
174720,note_on,0,0,2,,,,,,,,,,,,,,,0,,,67,64
174720,note_on,0,0,2,,,,,,,,,,,,,,,0,,,63,54
174720,note_on,0,0,1,,,,,,,,,,,,,,,0,,,79,80
174720,note_on,480,0,1,,,,,,,,,,,,,,,0,,,70,68
174720,note_on,240,0,2,,,,,,,,,,,,,,,0,,,58,54
174720,set_tempo,480,1,0,,,,,,,,,,,,377358,,,,,,,
175200,note_on,480,0,2,,,,,,,,,,,,,,,0,,,63,0
175200,note_on,0,0,2,,,,,,,,,,,,,,,0,,,67,0
175200,note_on,0,0,2,,,,,,,,,,,,,,,0,,,58,0
175200,note_on,0,0,2,,,,,,,,,,,,,,,0,,,63,64
175200,note_on,0,0,2,,,,,,,,,,,,,,,0,,,59,64
175200,note_on,0,0,1,,,,,,,,,,,,,,,0,,,80,80
175200,note_on,0,0,1,,,,,,,,,,,,,,,0,,,75,68
175200,note_on,0,0,1,,,,,,,,,,,,,,,0,,,71,68
175200,note_on,0,0,1,,,,,,,,,,,,,,,0,,,70,0
175200,note_on,0,0,1,,,,,,,,,,,,,,,0,,,75,0
175200,note_on,480,0,1,,,,,,,,,,,,,,,0,,,79,0
175200,note_on,0,0,2,,,,,,,,,,,,,,,0,,,68,64
175680,note_on,0,0,1,,,,,,,,,,,,,,,0,,,83,88
175680,note_on,0,0,1,,,,,,,,,,,,,,,0,,,71,0
175680,note_on,0,0,1,,,,,,,,,,,,,,,0,,,75,0
175680,note_on,480,0,1,,,,,,,,,,,,,,,0,,,80,0
175680,set_tempo,960,1,0,,,,,,,,,,,,361446,,,,,,,
175680,note_on,480,0,2,,,,,,,,,,,,,,,0,,,59,0
175680,note_on,0,0,2,,,,,,,,,,,,,,,0,,,68,0
175680,note_on,0,0,2,,,,,,,,,,,,,,,0,,,63,0
175680,note_on,0,0,2,,,,,,,,,,,,,,,0,,,51,73
175680,control_change,0,0,2,,,,,,,,,,,,,,,0,64,0,,
175777,control_change,97,0,2,,,,,,,,,,,,,,,0,64,127,,
175800,note_on,120,0,1,,,,,,,,,,,,,,,0,,,83,0
175920,note_on,143,0,2,,,,,,,,,,,,,,,0,,,51,0
176040,note_on,0,0,1,,,,,,,,,,,,,,,0,,,79,61
176040,note_on,240,0,1,,,,,,,,,,,,,,,0,,,82,88
176160,note_on,0,0,1,,,,,,,,,,,,,,,0,,,77,61
176160,note_on,120,0,1,,,,,,,,,,,,,,,0,,,79,0
176160,set_tempo,480,1,0,,,,,,,,,,,,350877,,,,,,,
176160,note_on,0,0,2,,,,,,,,,,,,,,,0,,,63,57
176160,note_on,0,0,2,,,,,,,,,,,,,,,0,,,58,57
176160,note_on,240,0,2,,,,,,,,,,,,,,,0,,,67,68
176520,note_on,360,0,1,,,,,,,,,,,,,,,0,,,77,0
176520,note_on,0,0,1,,,,,,,,,,,,,,,0,,,82,0
176520,note_on,0,0,1,,,,,,,,,,,,,,,0,,,79,61
176520,note_on,0,0,1,,,,,,,,,,,,,,,0,,,82,88
176640,note_on,0,0,1,,,,,,,,,,,,,,,0,,,75,80
176640,note_on,480,0,2,,,,,,,,,,,,,,,0,,,58,0
176640,note_on,0,0,2,,,,,,,,,,,,,,,0,,,51,68
176640,note_on,0,0,2,,,,,,,,,,,,,,,0,,,63,0
176640,set_tempo,480,1,0,,,,,,,,,,,,384615,,,,,,,
176640,note_on,120,0,1,,,,,,,,,,,,,,,0,,,79,0
176640,note_on,0,0,2,,,,,,,,,,,,,,,0,,,67,0
176737,control_change,97,0,2,,,,,,,,,,,,,,,0,64,0,,
177000,note_on,360,0,1,,,,,,,,,,,,,,,0,,,82,0
177120,note_on,0,0,1,,,,,,,,,,,,,,,0,,,99,93
177120,note_on,383,0,2,,,,,,,,,,,,,,,0,,,51,0
177120,note_on,0,0,2,,,,,,,,,,,,,,,0,,,39,73
177120,note_on,120,0,1,,,,,,,,,,,,,,,0,,,75,0
177120,note_on,0,0,1,,,,,,,,,,,,,,,0,,,87,88
177240,control_change,120,0,2,,,,,,,,,,,,,,,0,64,127,,
177360,note_on,240,0,1,,,,,,,,,,,,,,,0,,,87,0
177360,note_on,0,0,1,,,,,,,,,,,,,,,0,,,99,0
177360,note_on,120,0,2,,,,,,,,,,,,,,,0,,,39,0
177600,note_on,0,0,1,,,,,,,,,,,,,,,0,,,75,68
177600,note_on,0,0,1,,,,,,,,,,,,,,,0,,,79,80
177600,note_on,240,0,1,,,,,,,,,,,,,,,0,,,70,68
177600,note_on,0,0,2,,,,,,,,,,,,,,,0,,,63,54
177600,set_tempo,960,1,0,,,,,,,,,,,,377358,,,,,,,
177600,note_on,240,0,2,,,,,,,,,,,,,,,0,,,58,54
177600,note_on,0,0,2,,,,,,,,,,,,,,,0,,,67,64
178080,note_on,0,0,2,,,,,,,,,,,,,,,0,,,58,0
178080,note_on,0,0,1,,,,,,,,,,,,,,,0,,,71,68
178080,note_on,0,0,1,,,,,,,,,,,,,,,0,,,70,0
178080,note_on,0,0,1,,,,,,,,,,,,,,,0,,,75,0
178080,note_on,480,0,2,,,,,,,,,,,,,,,0,,,63,0
178080,note_on,0,0,2,,,,,,,,,,,,,,,0,,,68,64
178080,note_on,0,0,1,,,,,,,,,,,,,,,0,,,75,68
178080,note_on,0,0,2,,,,,,,,,,,,,,,0,,,67,0
178080,note_on,0,0,2,,,,,,,,,,,,,,,0,,,59,64
178080,note_on,0,0,2,,,,,,,,,,,,,,,0,,,63,64
178080,note_on,480,0,1,,,,,,,,,,,,,,,0,,,79,0
178080,note_on,0,0,1,,,,,,,,,,,,,,,0,,,80,80
178560,set_tempo,960,1,0,,,,,,,,,,,,373832,,,,,,,
178560,note_on,0,0,1,,,,,,,,,,,,,,,0,,,75,0
178560,note_on,0,0,1,,,,,,,,,,,,,,,0,,,71,0
178560,note_on,0,0,1,,,,,,,,,,,,,,,0,,,83,87
178560,note_on,0,0,2,,,,,,,,,,,,,,,0,,,51,73
178560,note_on,0,0,2,,,,,,,,,,,,,,,0,,,68,0
178560,note_on,0,0,2,,,,,,,,,,,,,,,0,,,63,0
178560,note_on,480,0,2,,,,,,,,,,,,,,,0,,,59,0
178560,note_on,480,0,1,,,,,,,,,,,,,,,0,,,80,0
178560,control_change,0,0,2,,,,,,,,,,,,,,,0,64,0,,
178657,control_change,97,0,2,,,,,,,,,,,,,,,0,64,127,,
178680,note_on,120,0,1,,,,,,,,,,,,,,,0,,,83,0
178800,note_on,143,0,2,,,,,,,,,,,,,,,0,,,51,0
178920,note_on,240,0,1,,,,,,,,,,,,,,,0,,,82,88
178920,note_on,0,0,1,,,,,,,,,,,,,,,0,,,79,61
179040,set_tempo,480,1,0,,,,,,,,,,,,363636,,,,,,,
179040,note_on,0,0,2,,,,,,,,,,,,,,,0,,,61,57
179040,note_on,0,0,2,,,,,,,,,,,,,,,0,,,67,57
179040,note_on,240,0,2,,,,,,,,,,,,,,,0,,,70,68
179040,note_on,120,0,1,,,,,,,,,,,,,,,0,,,79,0
179040,note_on,0,0,1,,,,,,,,,,,,,,,0,,,77,61
179400,note_on,360,0,1,,,,,,,,,,,,,,,0,,,77,0
179400,note_on,0,0,1,,,,,,,,,,,,,,,0,,,82,0
179400,note_on,0,0,1,,,,,,,,,,,,,,,0,,,79,61
179400,note_on,0,0,1,,,,,,,,,,,,,,,0,,,82,88
179520,note_on,0,0,2,,,,,,,,,,,,,,,0,,,67,0
179520,set_tempo,480,1,0,,,,,,,,,,,,384615,,,,,,,
179520,note_on,0,0,2,,,,,,,,,,,,,,,0,,,70,0
179520,note_on,0,0,2,,,,,,,,,,,,,,,0,,,51,68
179520,note_on,0,0,1,,,,,,,,,,,,,,,0,,,76,80
179520,note_on,480,0,2,,,,,,,,,,,,,,,0,,,61,0
179520,note_on,120,0,1,,,,,,,,,,,,,,,0,,,79,0
179617,control_change,97,0,2,,,,,,,,,,,,,,,0,64,0,,
179880,note_on,360,0,1,,,,,,,,,,,,,,,0,,,82,0
180000,note_on,383,0,2,,,,,,,,,,,,,,,0,,,51,0
180000,note_on,0,0,2,,,,,,,,,,,,,,,0,,,39,73
180056,control_change,56,0,2,,,,,,,,,,,,,,,0,64,127,,
180240,note_on,184,0,2,,,,,,,,,,,,,,,0,,,39,0
180480,note_on,240,0,2,,,,,,,,,,,,,,,0,,,61,65
180480,set_tempo,960,1,0,,,,,,,,,,,,371517,,,,,,,
180480,note_on,0,0,1,,,,,,,,,,,,,,,0,,,79,80
180480,note_on,600,0,1,,,,,,,,,,,,,,,0,,,70,68
180960,note_on,0,0,1,,,,,,,,,,,,,,,0,,,80,77
180960,note_on,0,0,1,,,,,,,,,,,,,,,0,,,71,65
180960,note_on,0,0,1,,,,,,,,,,,,,,,0,,,70,0
180960,note_on,480,0,1,,,,,,,,,,,,,,,0,,,79,0
180960,set_tempo,480,1,0,,,,,,,,,,,,384615,,,,,,,
180960,note_on,0,0,2,,,,,,,,,,,,,,,0,,,62,57
180960,note_on,480,0,2,,,,,,,,,,,,,,,0,,,61,0
181016,control_change,56,0,2,,,,,,,,,,,,,,,0,64,0,,
181440,note_on,424,0,2,,,,,,,,,,,,,,,0,,,62,0
181440,note_on,480,0,1,,,,,,,,,,,,,,,0,,,80,0
181440,note_on,0,0,1,,,,,,,,,,,,,,,0,,,79,77
181440,note_on,0,0,1,,,,,,,,,,,,,,,0,,,75,65
181440,note_on,0,0,1,,,,,,,,,,,,,,,0,,,70,65
181440,note_on,0,0,1,,,,,,,,,,,,,,,0,,,76,0
181440,note_on,0,0,1,,,,,,,,,,,,,,,0,,,71,0
181440,note_on,0,0,2,,,,,,,,,,,,,,,0,,,63,59
181440,set_tempo,480,1,0,,,,,,,,,,,,375000,,,,,,,
181520,set_tempo,80,1,0,,,,,,,,,,,,376176,,,,,,,
181600,set_tempo,80,1,0,,,,,,,,,,,,377358,,,,,,,
181680,set_tempo,80,1,0,,,,,,,,,,,,378549,,,,,,,
181760,set_tempo,80,1,0,,,,,,,,,,,,379747,,,,,,,
181840,set_tempo,80,1,0,,,,,,,,,,,,380952,,,,,,,
181920,note_on,480,0,1,,,,,,,,,,,,,,,0,,,79,0
181920,note_on,0,0,1,,,,,,,,,,,,,,,0,,,75,0
181920,note_on,0,0,1,,,,,,,,,,,,,,,0,,,73,62
181920,note_on,0,0,1,,,,,,,,,,,,,,,0,,,78,74
181920,set_tempo,80,1,0,,,,,,,,,,,,382166,,,,,,,
181920,note_on,0,0,2,,,,,,,,,,,,,,,0,,,64,57
181920,note_on,480,0,2,,,,,,,,,,,,,,,0,,,63,0
182000,set_tempo,80,1,0,,,,,,,,,,,,383387,,,,,,,
182080,set_tempo,80,1,0,,,,,,,,,,,,384615,,,,,,,
182160,set_tempo,80,1,0,,,,,,,,,,,,385852,,,,,,,
182200,set_tempo,40,1,0,,,,,,,,,,,,387097,,,,,,,
182280,set_tempo,80,1,0,,,,,,,,,,,,388350,,,,,,,
182360,set_tempo,80,1,0,,,,,,,,,,,,389610,,,,,,,
182400,note_on,0,0,1,,,,,,,,,,,,,,,0,,,77,71
182400,note_on,480,0,2,,,,,,,,,,,,,,,0,,,64,0
182400,note_on,0,0,2,,,,,,,,,,,,,,,0,,,65,54
182400,note_on,480,0,1,,,,,,,,,,,,,,,0,,,78,0
182440,set_tempo,80,1,0,,,,,,,,,,,,390879,,,,,,,
182520,set_tempo,80,1,0,,,,,,,,,,,,392157,,,,,,,
182600,set_tempo,80,1,0,,,,,,,,,,,,393443,,,,,,,
182680,set_tempo,80,1,0,,,,,,,,,,,,394737,,,,,,,
182760,set_tempo,80,1,0,,,,,,,,,,,,396040,,,,,,,
182840,set_tempo,80,1,0,,,,,,,,,,,,397351,,,,,,,
182880,note_on,0,0,1,,,,,,,,,,,,,,,0,,,76,69
182880,note_on,480,0,1,,,,,,,,,,,,,,,0,,,77,0
182880,note_on,0,0,2,,,,,,,,,,,,,,,0,,,66,52
182880,note_on,480,0,2,,,,,,,,,,,,,,,0,,,65,0
182880,set_tempo,40,1,0,,,,,,,,,,,,398671,,,,,,,
183360,note_on,0,0,2,,,,,,,,,,,,,,,0,,,54,59
183360,note_on,480,0,2,,,,,,,,,,,,,,,0,,,66,0
183360,set_tempo,480,1,0,,,,,,,,,,,,390879,,,,,,,
183780,note_on,0,0,2,,,,,,,,,,,,,,,0,,,58,60
183780,note_on,420,0,2,,,,,,,,,,,,,,,0,,,54,0
183840,note_on,0,0,2,,,,,,,,,,,,,,,0,,,56,68
183840,note_on,60,0,2,,,,,,,,,,,,,,,0,,,58,0
184240,set_tempo,880,1,0,,,,,,,,,,,,400000,,,,,,,
184320,note_on,0,0,1,,,,,,,,,,,,,,,0,,,70,0
184320,note_on,480,0,2,,,,,,,,,,,,,,,0,,,56,0
184320,set_tempo,80,1,0,,,,,,,,,,,,401338,,,,,,,
184320,note_on,1440,0,1,,,,,,,,,,,,,,,0,,,76,0
184320,note_on,0,0,2,,,,,,,,,,,,,,,0,,,54,63
184320,note_on,0,0,1,,,,,,,,,,,,,,,0,,,73,0
184400,set_tempo,80,1,0,,,,,,,,,,,,402685,,,,,,,
184480,set_tempo,80,1,0,,,,,,,,,,,,404040,,,,,,,
184520,set_tempo,40,1,0,,,,,,,,,,,,405405,,,,,,,
184600,set_tempo,80,1,0,,,,,,,,,,,,406780,,,,,,,
184680,set_tempo,80,1,0,,,,,,,,,,,,408163,,,,,,,
184760,set_tempo,80,1,0,,,,,,,,,,,,409556,,,,,,,
184800,set_tempo,40,1,0,,,,,,,,,,,,410959,,,,,,,
184800,note_on,0,0,2,,,,,,,,,,,,,,,0,,,49,56
184800,note_on,480,0,2,,,,,,,,,,,,,,,0,,,54,0
184880,set_tempo,80,1,0,,,,,,,,,,,,412371,,,,,,,
184960,set_tempo,80,1,0,,,,,,,,,,,,413793,,,,,,,
185040,set_tempo,80,1,0,,,,,,,,,,,,415225,,,,,,,
185080,set_tempo,40,1,0,,,,,,,,,,,,416667,,,,,,,
185160,set_tempo,80,1,0,,,,,,,,,,,,418118,,,,,,,
185240,set_tempo,80,1,0,,,,,,,,,,,,419580,,,,,,,
185280,note_on,480,0,2,,,,,,,,,,,,,,,0,,,49,0
185280,note_on,0,0,2,,,,,,,,,,,,,,,0,,,54,53
185320,set_tempo,80,1,0,,,,,,,,,,,,421053,,,,,,,
185360,set_tempo,40,1,0,,,,,,,,,,,,422535,,,,,,,
185440,set_tempo,80,1,0,,,,,,,,,,,,424028,,,,,,,
185520,set_tempo,80,1,0,,,,,,,,,,,,425532,,,,,,,
185600,set_tempo,80,1,0,,,,,,,,,,,,427046,,,,,,,
185640,set_tempo,40,1,0,,,,,,,,,,,,428571,,,,,,,
185760,set_tempo,0,1,0,,,,,,,,,,,,493827,,,,,,,
185760,key_signature,120,1,0,,,,,,,,,,,B,,,,,,,,
185760,note_on,0,0,2,,,,,,,,,,,,,,,0,,,47,50
185760,note_on,480,0,2,,,,,,,,,,,,,,,0,,,54,0
185760,note_on,1440,0,1,,,,,,,,,,,,,,,0,,,75,59
185929,control_change,169,0,2,,,,,,,,,,,,,,,0,64,127,,
186000,note_on,240,0,1,,,,,,,,,,,,,,,0,,,75,0
186000,note_on,0,0,1,,,,,,,,,,,,,,,0,,,76,61
186240,set_tempo,480,1,0,,,,,,,,,,,,487805,,,,,,,
186240,note_on,0,0,2,,,,,,,,,,,,,,,0,,,54,36
186240,note_on,0,0,2,,,,,,,,,,,,,,,0,,,59,36
186240,note_on,0,0,2,,,,,,,,,,,,,,,0,,,63,43
186240,note_on,311,0,2,,,,,,,,,,,,,,,0,,,47,0
186240,note_on,240,0,1,,,,,,,,,,,,,,,0,,,76,0
186240,note_on,0,0,1,,,,,,,,,,,,,,,0,,,77,63
186720,note_on,0,0,2,,,,,,,,,,,,,,,0,,,63,36
186720,note_on,0,0,1,,,,,,,,,,,,,,,0,,,78,66
186720,note_on,0,0,2,,,,,,,,,,,,,,,0,,,71,43
186720,set_tempo,480,1,0,,,,,,,,,,,,508475,,,,,,,
186720,note_on,480,0,2,,,,,,,,,,,,,,,0,,,54,0
186720,note_on,0,0,2,,,,,,,,,,,,,,,0,,,59,0
186720,note_on,0,0,2,,,,,,,,,,,,,,,0,,,63,0
186720,note_on,480,0,1,,,,,,,,,,,,,,,0,,,77,0
187200,set_tempo,480,1,0,,,,,,,,,,,,502092,,,,,,,
187200,note_on,0,0,2,,,,,,,,,,,,,,,0,,,40,53
187200,note_on,480,0,1,,,,,,,,,,,,,,,0,,,78,0
187200,note_on,0,0,1,,,,,,,,,,,,,,,0,,,79,69
187200,note_on,480,0,2,,,,,,,,,,,,,,,0,,,71,0
187200,note_on,0,0,2,,,,,,,,,,,,,,,0,,,63,0
187200,control_change,0,0,2,,,,,,,,,,,,,,,0,64,0,,
187313,control_change,113,0,2,,,,,,,,,,,,,,,0,64,127,,
187560,note_on,360,0,1,,,,,,,,,,,,,,,0,,,79,0
187560,note_on,0,0,1,,,,,,,,,,,,,,,0,,,80,64
187680,note_on,0,0,1,,,,,,,,,,,,,,,0,,,76,69
187680,note_on,120,0,1,,,,,,,,,,,,,,,0,,,80,0
187680,note_on,367,0,2,,,,,,,,,,,,,,,0,,,40,0
187680,note_on,0,0,2,,,,,,,,,,,,,,,0,,,61,37
187680,note_on,0,0,2,,,,,,,,,,,,,,,0,,,59,37
187680,note_on,0,0,2,,,,,,,,,,,,,,,0,,,68,44
187680,note_on,0,0,2,,,,,,,,,,,,,,,0,,,64,37
187680,set_tempo,480,1,0,,,,,,,,,,,,495868,,,,,,,
187761,control_change,81,0,2,,,,,,,,,,,,,,,0,64,0,,
187796,control_change,35,0,2,,,,,,,,,,,,,,,0,64,127,,
188160,note_on,0,0,2,,,,,,,,,,,,,,,0,,,61,0
188160,note_on,364,0,2,,,,,,,,,,,,,,,0,,,68,0
188160,note_on,0,0,2,,,,,,,,,,,,,,,0,,,64,0
188160,set_tempo,480,1,0,,,,,,,,,,,,510638,,,,,,,
188160,note_on,0,0,2,,,,,,,,,,,,,,,0,,,59,0
188400,note_on,720,0,1,,,,,,,,,,,,,,,0,,,76,0
188400,note_on,0,0,1,,,,,,,,,,,,,,,0,,,75,67
188640,set_tempo,480,1,0,,,,,,,,,,,,495868,,,,,,,
188640,note_on,240,0,1,,,,,,,,,,,,,,,0,,,75,0
188640,note_on,0,0,2,,,,,,,,,,,,,,,0,,,42,50
188640,control_change,480,0,2,,,,,,,,,,,,,,,0,64,0,,
188640,note_on,0,0,1,,,,,,,,,,,,,,,0,,,75,71
188725,control_change,85,0,2,,,,,,,,,,,,,,,0,64,127,,
188880,set_tempo,240,1,0,,,,,,,,,,,,515021,,,,,,,
188880,note_on,0,0,1,,,,,,,,,,,,,,,0,,,73,59
188880,note_on,240,0,1,,,,,,,,,,,,,,,0,,,75,0
188940,note_on,0,0,1,,,,,,,,,,,,,,,0,,,75,60
188940,note_on,60,0,1,,,,,,,,,,,,,,,0,,,73,0
189000,note_on,60,0,1,,,,,,,,,,,,,,,0,,,75,0
189000,set_tempo,120,1,0,,,,,,,,,,,,495868,,,,,,,
189000,note_on,0,0,1,,,,,,,,,,,,,,,0,,,73,69
189120,note_on,0,0,1,,,,,,,,,,,,,,,0,,,72,67
189120,note_on,120,0,1,,,,,,,,,,,,,,,0,,,73,0
189120,note_on,0,0,2,,,,,,,,,,,,,,,0,,,58,36
189120,note_on,0,0,2,,,,,,,,,,,,,,,0,,,54,36
189120,note_on,0,0,2,,,,,,,,,,,,,,,0,,,64,43
189120,note_on,395,0,2,,,,,,,,,,,,,,,0,,,42,0
189600,note_on,0,0,2,,,,,,,,,,,,,,,0,,,54,38
189600,note_on,0,0,1,,,,,,,,,,,,,,,0,,,73,70
189600,note_on,480,0,1,,,,,,,,,,,,,,,0,,,72,0
189600,note_on,0,0,2,,,,,,,,,,,,,,,0,,,58,38
189600,note_on,480,0,2,,,,,,,,,,,,,,,0,,,54,0
189600,note_on,0,0,2,,,,,,,,,,,,,,,0,,,64,45
189600,note_on,0,0,2,,,,,,,,,,,,,,,0,,,58,0
189600,note_on,0,0,2,,,,,,,,,,,,,,,0,,,64,0
189600,set_tempo,600,1,0,,,,,,,,,,,,524017,,,,,,,
190080,set_tempo,480,1,0,,,,,,,,,,,,506329,,,,,,,
190080,note_on,0,0,2,,,,,,,,,,,,,,,0,,,54,0
190080,note_on,0,0,2,,,,,,,,,,,,,,,0,,,58,0
190080,note_on,480,0,2,,,,,,,,,,,,,,,0,,,64,0
190080,control_change,0,0,2,,,,,,,,,,,,,,,0,64,0,,
190080,note_on,480,0,1,,,,,,,,,,,,,,,0,,,73,0
190080,note_on,0,0,1,,,,,,,,,,,,,,,0,,,76,71
190080,note_on,0,0,2,,,,,,,,,,,,,,,0,,,43,54
190309,control_change,229,0,2,,,,,,,,,,,,,,,0,64,127,,
190560,note_on,251,0,2,,,,,,,,,,,,,,,0,,,43,0
190560,note_on,0,0,2,,,,,,,,,,,,,,,0,,,63,47
190560,note_on,0,0,2,,,,,,,,,,,,,,,0,,,58,39
190560,note_on,0,0,2,,,,,,,,,,,,,,,0,,,51,39
190560,set_tempo,480,1,0,,,,,,,,,,,,491803,,,,,,,
191040,set_tempo,480,1,0,,,,,,,,,,,,508475,,,,,,,
191040,note_on,960,0,1,,,,,,,,,,,,,,,0,,,76,0
191040,note_on,480,0,2,,,,,,,,,,,,,,,0,,,51,0
191040,note_on,0,0,2,,,,,,,,,,,,,,,0,,,58,0
191040,note_on,0,0,2,,,,,,,,,,,,,,,0,,,63,0
191040,note_on,0,0,2,,,,,,,,,,,,,,,0,,,51,37
191040,note_on,0,0,1,,,,,,,,,,,,,,,0,,,75,64
191040,note_on,0,0,2,,,,,,,,,,,,,,,0,,,58,37
191040,note_on,0,0,2,,,,,,,,,,,,,,,0,,,63,44
191520,note_on,0,0,1,,,,,,,,,,,,,,,0,,,71,58
191520,note_on,480,0,2,,,,,,,,,,,,,,,0,,,63,0
191520,note_on,0,0,2,,,,,,,,,,,,,,,0,,,58,0
191520,note_on,0,0,2,,,,,,,,,,,,,,,0,,,51,0
191520,note_on,0,0,2,,,,,,,,,,,,,,,0,,,44,50
191520,control_change,0,0,2,,,,,,,,,,,,,,,0,64,0,,
191520,note_on,480,0,1,,,,,,,,,,,,,,,0,,,75,0
191675,control_change,155,0,2,,,,,,,,,,,,,,,0,64,127,,
191760,note_on,0,0,1,,,,,,,,,,,,,,,0,,,73,60
191760,note_on,240,0,1,,,,,,,,,,,,,,,0,,,71,0
192000,set_tempo,960,1,0,,,,,,,,,,,,497925,,,,,,,
192000,note_on,0,0,2,,,,,,,,,,,,,,,0,,,56,36
192000,note_on,0,0,2,,,,,,,,,,,,,,,0,,,51,36
192000,note_on,0,0,2,,,,,,,,,,,,,,,0,,,59,43
192000,note_on,240,0,1,,,,,,,,,,,,,,,0,,,73,0
192000,note_on,0,0,1,,,,,,,,,,,,,,,0,,,74,63
192000,note_on,325,0,2,,,,,,,,,,,,,,,0,,,44,0
192480,note_on,480,0,2,,,,,,,,,,,,,,,0,,,51,0
192480,note_on,0,0,2,,,,,,,,,,,,,,,0,,,59,43
192480,note_on,0,0,2,,,,,,,,,,,,,,,0,,,56,36
192480,note_on,0,0,2,,,,,,,,,,,,,,,0,,,51,36
192480,note_on,0,0,2,,,,,,,,,,,,,,,0,,,59,0
192480,note_on,0,0,2,,,,,,,,,,,,,,,0,,,56,0
192480,set_tempo,480,1,0,,,,,,,,,,,,515021,,,,,,,
192480,note_on,0,0,1,,,,,,,,,,,,,,,0,,,75,67
192480,note_on,480,0,1,,,,,,,,,,,,,,,0,,,74,0
192960,control_change,0,0,2,,,,,,,,,,,,,,,0,64,0,,
192960,note_on,0,0,2,,,,,,,,,,,,,,,0,,,51,0
192960,note_on,0,0,2,,,,,,,,,,,,,,,0,,,56,0
192960,note_on,0,0,2,,,,,,,,,,,,,,,0,,,37,53
192960,note_on,480,0,1,,,,,,,,,,,,,,,0,,,75,0
192960,note_on,0,0,1,,,,,,,,,,,,,,,0,,,78,69
192960,note_on,480,0,2,,,,,,,,,,,,,,,0,,,59,0
193002,control_change,42,0,2,,,,,,,,,,,,,,,0,64,127,,
193200,note_on,0,0,1,,,,,,,,,,,,,,,0,,,76,64
193200,note_on,240,0,1,,,,,,,,,,,,,,,0,,,78,0
193440,note_on,438,0,2,,,,,,,,,,,,,,,0,,,37,0
193440,note_on,0,0,2,,,,,,,,,,,,,,,0,,,64,45
193440,note_on,0,0,2,,,,,,,,,,,,,,,0,,,61,38
193440,note_on,0,0,2,,,,,,,,,,,,,,,0,,,56,38
193440,set_tempo,960,1,0,,,,,,,,,,,,504202,,,,,,,
193440,note_on,240,0,1,,,,,,,,,,,,,,,0,,,76,0
193440,note_on,0,0,1,,,,,,,,,,,,,,,0,,,73,70
193920,set_tempo,480,1,0,,,,,,,,,,,,540541,,,,,,,
193920,note_on,480,0,1,,,,,,,,,,,,,,,0,,,73,0
193920,note_on,0,0,1,,,,,,,,,,,,,,,0,,,68,56
193920,note_on,0,0,2,,,,,,,,,,,,,,,0,,,64,0
193920,note_on,0,0,2,,,,,,,,,,,,,,,0,,,61,0
193920,note_on,480,0,2,,,,,,,,,,,,,,,0,,,56,0
193980,note_on,60,0,1,,,,,,,,,,,,,,,0,,,68,0
193980,note_on,0,0,1,,,,,,,,,,,,,,,0,,,70,56
194040,set_tempo,120,1,0,,,,,,,,,,,,466926,,,,,,,
194040,note_on,60,0,1,,,,,,,,,,,,,,,0,,,70,0
194040,note_on,0,0,1,,,,,,,,,,,,,,,0,,,68,64
194100,control_change,180,0,2,,,,,,,,,,,,,,,0,64,0,,
194160,set_tempo,120,1,0,,,,,,,,,,,,517241,,,,,,,
194400,note_on,300,0,2,,,,,,,,,,,,,,,0,,,50,50
194400,note_on,0,0,1,,,,,,,,,,,,,,,0,,,67,64
194400,note_on,360,0,1,,,,,,,,,,,,,,,0,,,68,0
194492,control_change,92,0,2,,,,,,,,,,,,,,,0,64,127,,
194760,note_on,0,0,1,,,,,,,,,,,,,,,0,,,68,61
194760,note_on,360,0,1,,,,,,,,,,,,,,,0,,,67,0
194880,note_on,120,0,1,,,,,,,,,,,,,,,0,,,68,0
194880,note_on,0,0,2,,,,,,,,,,,,,,,0,,,59,37
194880,note_on,0,0,2,,,,,,,,,,,,,,,0,,,65,44
194880,note_on,0,0,1,,,,,,,,,,,,,,,0,,,71,64
194880,note_on,0,0,2,,,,,,,,,,,,,,,0,,,56,37
194880,note_on,388,0,2,,,,,,,,,,,,,,,0,,,50,0
194880,set_tempo,720,1,0,,,,,,,,,,,,504202,,,,,,,
195360,note_on,480,0,1,,,,,,,,,,,,,,,0,,,71,0
195360,note_on,0,0,1,,,,,,,,,,,,,,,0,,,70,64
195360,set_tempo,480,1,0,,,,,,,,,,,,515021,,,,,,,
195360,note_on,480,0,2,,,,,,,,,,,,,,,0,,,56,0
195360,note_on,0,0,2,,,,,,,,,,,,,,,0,,,59,0
195360,note_on,0,0,2,,,,,,,,,,,,,,,0,,,65,0
195360,note_on,0,0,2,,,,,,,,,,,,,,,0,,,56,37
195360,note_on,0,0,2,,,,,,,,,,,,,,,0,,,58,37
195360,note_on,0,0,2,,,,,,,,,,,,,,,0,,,65,44
195409,control_change,49,0,2,,,,,,,,,,,,,,,0,64,0,,
195840,note_on,0,0,1,,,,,,,,,,,,,,,0,,,67,69
195840,note_on,431,0,2,,,,,,,,,,,,,,,0,,,65,0
195840,note_on,0,0,2,,,,,,,,,,,,,,,0,,,58,0
195840,note_on,0,0,2,,,,,,,,,,,,,,,0,,,51,55
195840,note_on,0,0,2,,,,,,,,,,,,,,,0,,,56,0
195840,note_on,480,0,1,,,,,,,,,,,,,,,0,,,70,0
196023,control_change,183,0,2,,,,,,,,,,,,,,,0,64,127,,
196320,set_tempo,960,1,0,,,,,,,,,,,,526316,,,,,,,
196320,note_on,297,0,2,,,,,,,,,,,,,,,0,,,51,0
196320,note_on,0,0,2,,,,,,,,,,,,,,,0,,,58,39
196320,note_on,0,0,2,,,,,,,,,,,,,,,0,,,55,39
196320,note_on,0,0,2,,,,,,,,,,,,,,,0,,,63,47
196800,note_on,0,0,2,,,,,,,,,,,,,,,0,,,58,0
196800,note_on,0,0,2,,,,,,,,,,,,,,,0,,,63,0
196800,note_on,0,0,2,,,,,,,,,,,,,,,0,,,49,39
196800,note_on,0,0,2,,,,,,,,,,,,,,,0,,,54,39
196800,note_on,0,0,1,,,,,,,,,,,,,,,0,,,66,64
196800,note_on,960,0,1,,,,,,,,,,,,,,,0,,,67,0
196800,note_on,0,0,2,,,,,,,,,,,,,,,0,,,58,39
196800,note_on,480,0,2,,,,,,,,,,,,,,,0,,,55,0
196800,note_on,0,0,2,,,,,,,,,,,,,,,0,,,64,47
197280,note_on,480,0,2,,,,,,,,,,,,,,,0,,,64,0
197280,note_on,0,0,1,,,,,,,,,,,,,,,0,,,75,59
197280,note_on,480,0,1,,,,,,,,,,,,,,,0,,,66,0
197280,note_on,0,0,2,,,,,,,,,,,,,,,0,,,54,0
197280,control_change,0,0,2,,,,,,,,,,,,,,,0,64,0,,
197280,note_on,0,0,2,,,,,,,,,,,,,,,0,,,47,50
197280,note_on,0,0,2,,,,,,,,,,,,,,,0,,,58,0
197280,note_on,0,0,2,,,,,,,,,,,,,,,0,,,49,0
197280,set_tempo,960,1,0,,,,,,,,,,,,493827,,,,,,,
197449,control_change,169,0,2,,,,,,,,,,,,,,,0,64,127,,
197520,note_on,240,0,1,,,,,,,,,,,,,,,0,,,75,0
197520,note_on,0,0,1,,,,,,,,,,,,,,,0,,,76,61
197760,note_on,0,0,1,,,,,,,,,,,,,,,0,,,78,63
197760,set_tempo,480,1,0,,,,,,,,,,,,487805,,,,,,,
197760,note_on,0,0,2,,,,,,,,,,,,,,,0,,,59,36
197760,note_on,0,0,2,,,,,,,,,,,,,,,0,,,54,36
197760,note_on,0,0,2,,,,,,,,,,,,,,,0,,,63,43
197760,note_on,311,0,2,,,,,,,,,,,,,,,0,,,47,0
197760,note_on,240,0,1,,,,,,,,,,,,,,,0,,,76,0
198240,note_on,480,0,2,,,,,,,,,,,,,,,0,,,54,0
198240,note_on,480,0,1,,,,,,,,,,,,,,,0,,,78,0
198240,note_on,0,0,1,,,,,,,,,,,,,,,0,,,87,69
198240,note_on,0,0,2,,,,,,,,,,,,,,,0,,,59,0
198240,note_on,0,0,2,,,,,,,,,,,,,,,0,,,63,0
198240,set_tempo,480,1,0,,,,,,,,,,,,519481,,,,,,,
198720,note_on,480,0,1,,,,,,,,,,,,,,,0,,,87,0
198720,note_on,0,0,1,,,,,,,,,,,,,,,0,,,85,69
198720,set_tempo,480,1,0,,,,,,,,,,,,502092,,,,,,,
198720,note_on,0,0,2,,,,,,,,,,,,,,,0,,,40,51
198720,control_change,480,0,2,,,,,,,,,,,,,,,0,64,0,,
198833,control_change,113,0,2,,,,,,,,,,,,,,,0,64,127,,
198960,note_on,0,0,1,,,,,,,,,,,,,,,0,,,83,64
198960,note_on,240,0,1,,,,,,,,,,,,,,,0,,,85,0
199200,note_on,0,0,1,,,,,,,,,,,,,,,0,,,80,69
199200,note_on,367,0,2,,,,,,,,,,,,,,,0,,,40,0
199200,set_tempo,480,1,0,,,,,,,,,,,,495868,,,,,,,
199200,note_on,0,0,2,,,,,,,,,,,,,,,0,,,61,37
199200,note_on,0,0,2,,,,,,,,,,,,,,,0,,,59,37
199200,note_on,0,0,2,,,,,,,,,,,,,,,0,,,64,37
199200,note_on,0,0,2,,,,,,,,,,,,,,,0,,,68,44
199200,note_on,240,0,1,,,,,,,,,,,,,,,0,,,83,0
199680,note_on,480,0,1,,,,,,,,,,,,,,,0,,,80,0
199680,note_on,0,0,1,,,,,,,,,,,,,,,0,,,76,67
199680,note_on,0,0,2,,,,,,,,,,,,,,,0,,,59,0
199680,note_on,0,0,2,,,,,,,,,,,,,,,0,,,64,0
199680,note_on,480,0,2,,,,,,,,,,,,,,,0,,,68,0
199680,note_on,0,0,2,,,,,,,,,,,,,,,0,,,61,0
199680,set_tempo,480,1,0,,,,,,,,,,,,510638,,,,,,,
200160,note_on,480,0,1,,,,,,,,,,,,,,,0,,,76,0
200160,note_on,0,0,1,,,,,,,,,,,,,,,0,,,75,71
200160,set_tempo,480,1,0,,,,,,,,,,,,495868,,,,,,,
200160,note_on,0,0,2,,,,,,,,,,,,,,,0,,,42,50
200160,control_change,480,0,2,,,,,,,,,,,,,,,0,64,0,,
200245,control_change,85,0,2,,,,,,,,,,,,,,,0,64,127,,
200400,note_on,240,0,1,,,,,,,,,,,,,,,0,,,75,0
200400,set_tempo,240,1,0,,,,,,,,,,,,515021,,,,,,,
200400,note_on,0,0,1,,,,,,,,,,,,,,,0,,,73,59
200460,note_on,60,0,1,,,,,,,,,,,,,,,0,,,73,0
200460,note_on,0,0,1,,,,,,,,,,,,,,,0,,,75,60
200520,note_on,60,0,1,,,,,,,,,,,,,,,0,,,75,0
200520,set_tempo,120,1,0,,,,,,,,,,,,495868,,,,,,,
200520,note_on,0,0,1,,,,,,,,,,,,,,,0,,,73,69
200640,note_on,0,0,1,,,,,,,,,,,,,,,0,,,72,67
200640,note_on,395,0,2,,,,,,,,,,,,,,,0,,,42,0
200640,note_on,0,0,2,,,,,,,,,,,,,,,0,,,64,43
200640,note_on,0,0,2,,,,,,,,,,,,,,,0,,,58,36
200640,note_on,120,0,1,,,,,,,,,,,,,,,0,,,73,0
200640,note_on,0,0,2,,,,,,,,,,,,,,,0,,,54,36
201120,note_on,0,0,2,,,,,,,,,,,,,,,0,,,64,45
201120,note_on,0,0,2,,,,,,,,,,,,,,,0,,,58,38
201120,note_on,0,0,2,,,,,,,,,,,,,,,0,,,54,38
201120,note_on,0,0,2,,,,,,,,,,,,,,,0,,,64,0
201120,note_on,480,0,2,,,,,,,,,,,,,,,0,,,54,0
201120,note_on,0,0,2,,,,,,,,,,,,,,,0,,,58,0
201120,note_on,0,0,1,,,,,,,,,,,,,,,0,,,73,70
201120,set_tempo,600,1,0,,,,,,,,,,,,524017,,,,,,,
201120,note_on,480,0,1,,,,,,,,,,,,,,,0,,,72,0
201600,note_on,0,0,1,,,,,,,,,,,,,,,0,,,76,71
201600,note_on,480,0,1,,,,,,,,,,,,,,,0,,,73,0
201600,note_on,0,0,2,,,,,,,,,,,,,,,0,,,54,0
201600,note_on,0,0,2,,,,,,,,,,,,,,,0,,,43,54
201600,set_tempo,480,1,0,,,,,,,,,,,,506329,,,,,,,
201600,note_on,480,0,2,,,,,,,,,,,,,,,0,,,64,0
201600,note_on,0,0,2,,,,,,,,,,,,,,,0,,,58,0
201600,control_change,0,0,2,,,,,,,,,,,,,,,0,64,0,,
201829,control_change,229,0,2,,,,,,,,,,,,,,,0,64,127,,
202080,note_on,251,0,2,,,,,,,,,,,,,,,0,,,43,0
202080,note_on,0,0,2,,,,,,,,,,,,,,,0,,,63,47
202080,note_on,0,0,2,,,,,,,,,,,,,,,0,,,58,39
202080,note_on,0,0,2,,,,,,,,,,,,,,,0,,,51,39
202080,set_tempo,480,1,0,,,,,,,,,,,,491803,,,,,,,
202560,note_on,480,0,2,,,,,,,,,,,,,,,0,,,51,0
202560,note_on,960,0,1,,,,,,,,,,,,,,,0,,,76,0
202560,note_on,0,0,1,,,,,,,,,,,,,,,0,,,75,64
202560,note_on,0,0,2,,,,,,,,,,,,,,,0,,,58,0
202560,note_on,0,0,2,,,,,,,,,,,,,,,0,,,63,0
202560,set_tempo,480,1,0,,,,,,,,,,,,524017,,,,,,,
202560,note_on,0,0,2,,,,,,,,,,,,,,,0,,,51,37
202560,note_on,0,0,2,,,,,,,,,,,,,,,0,,,63,44
202560,note_on,0,0,2,,,,,,,,,,,,,,,0,,,58,37
203040,note_on,480,0,2,,,,,,,,,,,,,,,0,,,63,0
203040,control_change,0,0,2,,,,,,,,,,,,,,,0,64,0,,
203040,note_on,480,0,1,,,,,,,,,,,,,,,0,,,75,0
203040,note_on,0,0,1,,,,,,,,,,,,,,,0,,,75,67
203040,note_on,0,0,2,,,,,,,,,,,,,,,0,,,58,0
203040,note_on,0,0,2,,,,,,,,,,,,,,,0,,,51,0
203040,set_tempo,480,1,0,,,,,,,,,,,,506329,,,,,,,
203040,note_on,0,0,2,,,,,,,,,,,,,,,0,,,44,55
203195,control_change,155,0,2,,,,,,,,,,,,,,,0,64,127,,
203520,set_tempo,480,1,0,,,,,,,,,,,,497925,,,,,,,
203520,note_on,0,0,2,,,,,,,,,,,,,,,0,,,63,43
203520,note_on,0,0,2,,,,,,,,,,,,,,,0,,,59,36
203520,note_on,0,0,2,,,,,,,,,,,,,,,0,,,56,36
203520,note_on,325,0,2,,,,,,,,,,,,,,,0,,,44,0
203520,note_on,0,0,2,,,,,,,,,,,,,,,0,,,53,36
203760,note_on,720,0,1,,,,,,,,,,,,,,,0,,,75,0
203760,note_on,0,0,1,,,,,,,,,,,,,,,0,,,75,56
203820,note_on,0,0,1,,,,,,,,,,,,,,,0,,,77,56
203820,note_on,60,0,1,,,,,,,,,,,,,,,0,,,75,0
203880,note_on,0,0,1,,,,,,,,,,,,,,,0,,,75,63
203880,note_on,60,0,1,,,,,,,,,,,,,,,0,,,77,0
204000,note_on,120,0,1,,,,,,,,,,,,,,,0,,,75,0
204000,note_on,0,0,1,,,,,,,,,,,,,,,0,,,73,65
204000,note_on,480,0,2,,,,,,,,,,,,,,,0,,,56,0
204000,set_tempo,480,1,0,,,,,,,,,,,,515021,,,,,,,
204000,note_on,0,0,2,,,,,,,,,,,,,,,0,,,63,0
204000,note_on,0,0,2,,,,,,,,,,,,,,,0,,,53,0
204000,note_on,0,0,2,,,,,,,,,,,,,,,0,,,59,0
204240,note_on,240,0,1,,,,,,,,,,,,,,,0,,,73,0
204240,note_on,0,0,1,,,,,,,,,,,,,,,0,,,71,62
204480,note_on,0,0,1,,,,,,,,,,,,,,,0,,,70,69
204480,control_change,480,0,2,,,,,,,,,,,,,,,0,64,0,,
204480,note_on,240,0,1,,,,,,,,,,,,,,,0,,,71,0
204480,note_on,0,0,2,,,,,,,,,,,,,,,0,,,46,53
204522,control_change,42,0,2,,,,,,,,,,,,,,,0,64,127,,
204720,note_on,240,0,1,,,,,,,,,,,,,,,0,,,70,0
204720,note_on,0,0,1,,,,,,,,,,,,,,,0,,,75,64
204960,note_on,438,0,2,,,,,,,,,,,,,,,0,,,46,0
204960,note_on,0,0,2,,,,,,,,,,,,,,,0,,,63,45
204960,note_on,0,0,2,,,,,,,,,,,,,,,0,,,58,38
204960,note_on,0,0,2,,,,,,,,,,,,,,,0,,,54,38
204960,note_on,240,0,1,,,,,,,,,,,,,,,0,,,75,0
204960,note_on,0,0,1,,,,,,,,,,,,,,,0,,,78,70
204960,set_tempo,960,1,0,,,,,,,,,,,,504202,,,,,,,
205440,note_on,0,0,2,,,,,,,,,,,,,,,0,,,58,38
205440,note_on,480,0,1,,,,,,,,,,,,,,,0,,,78,0
205440,note_on,0,0,1,,,,,,,,,,,,,,,0,,,83,69
205440,set_tempo,480,1,0,,,,,,,,,,,,510638,,,,,,,
205440,note_on,0,0,2,,,,,,,,,,,,,,,0,,,54,38
205440,note_on,0,0,2,,,,,,,,,,,,,,,0,,,63,0
205440,note_on,0,0,2,,,,,,,,,,,,,,,0,,,58,0
205440,note_on,480,0,2,,,,,,,,,,,,,,,0,,,54,0
205440,note_on,0,0,2,,,,,,,,,,,,,,,0,,,63,45
205620,control_change,180,0,2,,,,,,,,,,,,,,,0,64,0,,
205680,set_tempo,240,1,0,,,,,,,,,,,,517241,,,,,,,
205920,note_on,0,0,1,,,,,,,,,,,,,,,0,,,82,71
205920,note_on,300,0,2,,,,,,,,,,,,,,,0,,,63,0
205920,note_on,0,0,2,,,,,,,,,,,,,,,0,,,46,50
205920,note_on,0,0,2,,,,,,,,,,,,,,,0,,,54,0
205920,note_on,0,0,2,,,,,,,,,,,,,,,0,,,58,0
205920,note_on,480,0,1,,,,,,,,,,,,,,,0,,,83,0
206012,control_change,92,0,2,,,,,,,,,,,,,,,0,64,127,,
206160,note_on,240,0,1,,,,,,,,,,,,,,,0,,,82,0
206160,note_on,0,0,1,,,,,,,,,,,,,,,0,,,77,61
206400,note_on,0,0,2,,,,,,,,,,,,,,,0,,,62,44
206400,note_on,240,0,1,,,,,,,,,,,,,,,0,,,77,0
206400,note_on,0,0,2,,,,,,,,,,,,,,,0,,,56,37
206400,set_tempo,720,1,0,,,,,,,,,,,,504202,,,,,,,
206400,note_on,388,0,2,,,,,,,,,,,,,,,0,,,46,0
206400,note_on,0,0,1,,,,,,,,,,,,,,,0,,,80,70
206400,note_on,0,0,2,,,,,,,,,,,,,,,0,,,58,37
206880,note_on,0,0,2,,,,,,,,,,,,,,,0,,,58,0
206880,note_on,0,0,2,,,,,,,,,,,,,,,0,,,62,0
206880,note_on,0,0,2,,,,,,,,,,,,,,,0,,,56,37
206880,note_on,0,0,2,,,,,,,,,,,,,,,0,,,58,37
206880,note_on,480,0,2,,,,,,,,,,,,,,,0,,,56,0
206880,note_on,0,0,2,,,,,,,,,,,,,,,0,,,65,44
206880,set_tempo,480,1,0,,,,,,,,,,,,515021,,,,,,,
206929,control_change,49,0,2,,,,,,,,,,,,,,,0,64,0,,
207120,note_on,720,0,1,,,,,,,,,,,,,,,0,,,80,0
207120,note_on,0,0,1,,,,,,,,,,,,,,,0,,,78,67
207360,note_on,0,0,2,,,,,,,,,,,,,,,0,,,56,0
207360,note_on,240,0,1,,,,,,,,,,,,,,,0,,,78,0
207360,note_on,0,0,1,,,,,,,,,,,,,,,0,,,75,71
207360,note_on,0,0,2,,,,,,,,,,,,,,,0,,,51,55
207360,note_on,0,0,2,,,,,,,,,,,,,,,0,,,58,0
207360,note_on,431,0,2,,,,,,,,,,,,,,,0,,,65,0
207543,control_change,183,0,2,,,,,,,,,,,,,,,0,64,127,,
207840,note_on,0,0,2,,,,,,,,,,,,,,,0,,,54,29
207840,note_on,0,0,2,,,,,,,,,,,,,,,0,,,58,33
207840,note_on,297,0,2,,,,,,,,,,,,,,,0,,,51,0
207840,set_tempo,960,1,0,,,,,,,,,,,,526316,,,,,,,
207840,note_on,480,0,1,,,,,,,,,,,,,,,0,,,75,0
207840,note_on,0,0,2,,,,,,,,,,,,,,,0,,,63,39
207840,note_on,0,0,1,,,,,,,,,,,,,,,0,,,66,70
208080,set_tempo,240,1,0,,,,,,,,,,,,542986,,,,,,,
208080,note_on,240,0,1,,,,,,,,,,,,,,,0,,,66,0
208080,note_on,0,0,1,,,,,,,,,,,,,,,0,,,78,69
208320,note_on,0,0,1,,,,,,,,,,,,,,,0,,,77,68
208320,note_on,240,0,1,,,,,,,,,,,,,,,0,,,78,0
208320,note_on,0,0,2,,,,,,,,,,,,,,,0,,,54,28
208320,note_on,0,0,2,,,,,,,,,,,,,,,0,,,58,0
208320,note_on,0,0,2,,,,,,,,,,,,,,,0,,,63,0
208320,note_on,0,0,2,,,,,,,,,,,,,,,0,,,49,23
208320,note_on,0,0,2,,,,,,,,,,,,,,,0,,,58,30
208320,note_on,0,0,2,,,,,,,,,,,,,,,0,,,64,35
208320,note_on,480,0,2,,,,,,,,,,,,,,,0,,,54,0
208354,control_change,34,0,2,,,,,,,,,,,,,,,0,64,0,,
208446,control_change,92,0,2,,,,,,,,,,,,,,,0,64,127,,
208560,note_on,0,0,1,,,,,,,,,,,,,,,0,,,76,65
208560,note_on,240,0,1,,,,,,,,,,,,,,,0,,,77,0
208800,note_on,240,0,1,,,,,,,,,,,,,,,0,,,76,0
208800,control_change,0,0,2,,,,,,,,,,,,,,,0,64,0,,
208800,note_on,0,0,2,,,,,,,,,,,,,,,0,,,47,50
208800,note_on,0,0,2,,,,,,,,,,,,,,,0,,,58,0
208800,set_tempo,720,1,0,,,,,,,,,,,,493827,,,,,,,
208800,note_on,0,0,1,,,,,,,,,,,,,,,0,,,75,59
208800,note_on,0,0,2,,,,,,,,,,,,,,,0,,,54,0
208800,note_on,0,0,2,,,,,,,,,,,,,,,0,,,49,0
208800,note_on,354,0,2,,,,,,,,,,,,,,,0,,,64,0
208969,control_change,169,0,2,,,,,,,,,,,,,,,0,64,127,,
209040,note_on,0,0,1,,,,,,,,,,,,,,,0,,,76,61
209040,note_on,240,0,1,,,,,,,,,,,,,,,0,,,75,0
209280,note_on,0,0,2,,,,,,,,,,,,,,,0,,,57,36
209280,note_on,0,0,2,,,,,,,,,,,,,,,0,,,59,36
209280,note_on,240,0,1,,,,,,,,,,,,,,,0,,,76,0
209280,note_on,0,0,2,,,,,,,,,,,,,,,0,,,63,43
209280,note_on,311,0,2,,,,,,,,,,,,,,,0,,,47,0
209280,set_tempo,480,1,0,,,,,,,,,,,,487805,,,,,,,
209280,note_on,0,0,1,,,,,,,,,,,,,,,0,,,77,63
209760,note_on,480,0,1,,,,,,,,,,,,,,,0,,,77,0
209760,note_on,0,0,1,,,,,,,,,,,,,,,0,,,78,66
209760,note_on,0,0,2,,,,,,,,,,,,,,,0,,,63,36
209760,set_tempo,480,1,0,,,,,,,,,,,,508475,,,,,,,
209760,note_on,480,0,2,,,,,,,,,,,,,,,0,,,57,0
209760,note_on,0,0,2,,,,,,,,,,,,,,,0,,,59,0
209760,note_on,0,0,2,,,,,,,,,,,,,,,0,,,63,0
209760,note_on,0,0,2,,,,,,,,,,,,,,,0,,,59,36
209760,note_on,0,0,2,,,,,,,,,,,,,,,0,,,69,43
210240,note_on,0,0,2,,,,,,,,,,,,,,,0,,,63,0
210240,note_on,0,0,2,,,,,,,,,,,,,,,0,,,59,0
210240,note_on,0,0,2,,,,,,,,,,,,,,,0,,,40,53
210240,note_on,480,0,1,,,,,,,,,,,,,,,0,,,78,0
210240,control_change,0,0,2,,,,,,,,,,,,,,,0,64,0,,
210240,set_tempo,480,1,0,,,,,,,,,,,,502092,,,,,,,
210240,note_on,0,0,1,,,,,,,,,,,,,,,0,,,79,69
210240,note_on,480,0,2,,,,,,,,,,,,,,,0,,,69,0
210353,control_change,113,0,2,,,,,,,,,,,,,,,0,64,127,,
210600,note_on,0,0,1,,,,,,,,,,,,,,,0,,,80,64
210600,note_on,360,0,1,,,,,,,,,,,,,,,0,,,79,0
210720,note_on,367,0,2,,,,,,,,,,,,,,,0,,,40,0
210720,set_tempo,480,1,0,,,,,,,,,,,,495868,,,,,,,
210720,note_on,0,0,2,,,,,,,,,,,,,,,0,,,68,44
210720,note_on,0,0,2,,,,,,,,,,,,,,,0,,,64,37
210720,note_on,0,0,2,,,,,,,,,,,,,,,0,,,59,37
210720,note_on,0,0,2,,,,,,,,,,,,,,,0,,,61,37
210720,note_on,120,0,1,,,,,,,,,,,,,,,0,,,80,0
210720,note_on,0,0,1,,,,,,,,,,,,,,,0,,,76,69
210801,control_change,81,0,2,,,,,,,,,,,,,,,0,64,0,,
210836,control_change,35,0,2,,,,,,,,,,,,,,,0,64,127,,
211200,note_on,0,0,2,,,,,,,,,,,,,,,0,,,64,0
211200,set_tempo,480,1,0,,,,,,,,,,,,510638,,,,,,,
211200,note_on,0,0,2,,,,,,,,,,,,,,,0,,,59,0
211200,note_on,0,0,2,,,,,,,,,,,,,,,0,,,61,0
211200,note_on,364,0,2,,,,,,,,,,,,,,,0,,,68,0
211440,note_on,720,0,1,,,,,,,,,,,,,,,0,,,76,0
211440,note_on,0,0,1,,,,,,,,,,,,,,,0,,,75,67
211680,note_on,0,0,2,,,,,,,,,,,,,,,0,,,42,50
211680,control_change,480,0,2,,,,,,,,,,,,,,,0,64,0,,
211680,note_on,0,0,1,,,,,,,,,,,,,,,0,,,75,71
211680,set_tempo,480,1,0,,,,,,,,,,,,495868,,,,,,,
211680,note_on,240,0,1,,,,,,,,,,,,,,,0,,,75,0
211765,control_change,85,0,2,,,,,,,,,,,,,,,0,64,127,,
211920,note_on,240,0,1,,,,,,,,,,,,,,,0,,,75,0
211920,note_on,0,0,1,,,,,,,,,,,,,,,0,,,73,59
211920,set_tempo,240,1,0,,,,,,,,,,,,515021,,,,,,,
211980,note_on,60,0,1,,,,,,,,,,,,,,,0,,,73,0
211980,note_on,0,0,1,,,,,,,,,,,,,,,0,,,75,60
212040,note_on,60,0,1,,,,,,,,,,,,,,,0,,,75,0
212040,set_tempo,120,1,0,,,,,,,,,,,,495868,,,,,,,
212040,note_on,0,0,1,,,,,,,,,,,,,,,0,,,73,69
212160,note_on,0,0,2,,,,,,,,,,,,,,,0,,,64,43
212160,note_on,395,0,2,,,,,,,,,,,,,,,0,,,42,0
212160,note_on,120,0,1,,,,,,,,,,,,,,,0,,,73,0
212160,note_on,0,0,1,,,,,,,,,,,,,,,0,,,72,67
212160,note_on,0,0,2,,,,,,,,,,,,,,,0,,,58,36
212160,note_on,0,0,2,,,,,,,,,,,,,,,0,,,54,36
212640,note_on,0,0,2,,,,,,,,,,,,,,,0,,,64,0
212640,note_on,0,0,2,,,,,,,,,,,,,,,0,,,58,0
212640,note_on,480,0,2,,,,,,,,,,,,,,,0,,,54,0
212640,set_tempo,600,1,0,,,,,,,,,,,,524017,,,,,,,
212640,note_on,0,0,2,,,,,,,,,,,,,,,0,,,54,38
212640,note_on,0,0,2,,,,,,,,,,,,,,,0,,,58,38
212640,note_on,0,0,2,,,,,,,,,,,,,,,0,,,64,45
212640,note_on,480,0,1,,,,,,,,,,,,,,,0,,,72,0
212640,note_on,0,0,1,,,,,,,,,,,,,,,0,,,73,70
212880,set_tempo,240,1,0,,,,,,,,,,,,560748,,,,,,,
213120,note_on,0,0,2,,,,,,,,,,,,,,,0,,,58,0
213120,note_on,0,0,2,,,,,,,,,,,,,,,0,,,43,54
213120,control_change,0,0,2,,,,,,,,,,,,,,,0,64,0,,
213120,set_tempo,240,1,0,,,,,,,,,,,,506329,,,,,,,
213120,note_on,480,0,2,,,,,,,,,,,,,,,0,,,64,0
213120,note_on,0,0,2,,,,,,,,,,,,,,,0,,,54,0
213120,note_on,0,0,1,,,,,,,,,,,,,,,0,,,76,71
213120,note_on,480,0,1,,,,,,,,,,,,,,,0,,,73,0
213349,control_change,229,0,2,,,,,,,,,,,,,,,0,64,127,,
213600,note_on,0,0,2,,,,,,,,,,,,,,,0,,,51,39
213600,note_on,0,0,2,,,,,,,,,,,,,,,0,,,58,39
213600,note_on,0,0,2,,,,,,,,,,,,,,,0,,,63,47
213600,note_on,251,0,2,,,,,,,,,,,,,,,0,,,43,0
213600,set_tempo,480,1,0,,,,,,,,,,,,491803,,,,,,,
214080,note_on,0,0,2,,,,,,,,,,,,,,,0,,,63,0
214080,note_on,0,0,2,,,,,,,,,,,,,,,0,,,58,0
214080,note_on,480,0,2,,,,,,,,,,,,,,,0,,,51,0
214080,set_tempo,480,1,0,,,,,,,,,,,,508475,,,,,,,
214080,note_on,0,0,2,,,,,,,,,,,,,,,0,,,63,44
214080,note_on,0,0,2,,,,,,,,,,,,,,,0,,,51,37
214080,note_on,0,0,2,,,,,,,,,,,,,,,0,,,58,37
214080,note_on,960,0,1,,,,,,,,,,,,,,,0,,,76,0
214080,note_on,0,0,1,,,,,,,,,,,,,,,0,,,75,64
214560,note_on,480,0,1,,,,,,,,,,,,,,,0,,,75,0
214560,note_on,0,0,1,,,,,,,,,,,,,,,0,,,71,58
214560,control_change,0,0,2,,,,,,,,,,,,,,,0,64,0,,
214560,note_on,0,0,2,,,,,,,,,,,,,,,0,,,44,50
214560,note_on,0,0,2,,,,,,,,,,,,,,,0,,,51,0
214560,note_on,0,0,2,,,,,,,,,,,,,,,0,,,58,0
214560,note_on,480,0,2,,,,,,,,,,,,,,,0,,,63,0
214715,control_change,155,0,2,,,,,,,,,,,,,,,0,64,127,,
214800,note_on,240,0,1,,,,,,,,,,,,,,,0,,,71,0
214800,note_on,0,0,1,,,,,,,,,,,,,,,0,,,73,60
215040,note_on,240,0,1,,,,,,,,,,,,,,,0,,,73,0
215040,note_on,0,0,1,,,,,,,,,,,,,,,0,,,74,63
215040,set_tempo,960,1,0,,,,,,,,,,,,497925,,,,,,,
215040,note_on,325,0,2,,,,,,,,,,,,,,,0,,,44,0
215040,note_on,0,0,2,,,,,,,,,,,,,,,0,,,59,43
215040,note_on,0,0,2,,,,,,,,,,,,,,,0,,,56,36
215040,note_on,0,0,2,,,,,,,,,,,,,,,0,,,51,36
215520,note_on,0,0,2,,,,,,,,,,,,,,,0,,,56,36
215520,note_on,0,0,2,,,,,,,,,,,,,,,0,,,56,0
215520,note_on,0,0,2,,,,,,,,,,,,,,,0,,,51,36
215520,note_on,0,0,2,,,,,,,,,,,,,,,0,,,59,0
215520,note_on,0,0,2,,,,,,,,,,,,,,,0,,,59,43
215520,note_on,480,0,2,,,,,,,,,,,,,,,0,,,51,0
215520,set_tempo,480,1,0,,,,,,,,,,,,515021,,,,,,,
215520,note_on,480,0,1,,,,,,,,,,,,,,,0,,,74,0
215520,note_on,0,0,1,,,,,,,,,,,,,,,0,,,75,67
216000,note_on,480,0,1,,,,,,,,,,,,,,,0,,,75,0
216000,control_change,0,0,2,,,,,,,,,,,,,,,0,64,0,,
216000,note_on,0,0,2,,,,,,,,,,,,,,,0,,,37,53
216000,note_on,0,0,2,,,,,,,,,,,,,,,0,,,51,0
216000,note_on,0,0,2,,,,,,,,,,,,,,,0,,,56,0
216000,note_on,480,0,2,,,,,,,,,,,,,,,0,,,59,0
216000,note_on,0,0,1,,,,,,,,,,,,,,,0,,,78,69
216042,control_change,42,0,2,,,,,,,,,,,,,,,0,64,127,,
216240,note_on,240,0,1,,,,,,,,,,,,,,,0,,,78,0
216240,note_on,0,0,1,,,,,,,,,,,,,,,0,,,76,64
216480,note_on,438,0,2,,,,,,,,,,,,,,,0,,,37,0
216480,set_tempo,960,1,0,,,,,,,,,,,,504202,,,,,,,
216480,note_on,0,0,2,,,,,,,,,,,,,,,0,,,61,38
216480,note_on,0,0,2,,,,,,,,,,,,,,,0,,,56,38
216480,note_on,0,0,1,,,,,,,,,,,,,,,0,,,73,70
216480,note_on,240,0,1,,,,,,,,,,,,,,,0,,,76,0
216480,note_on,0,0,2,,,,,,,,,,,,,,,0,,,64,45
216960,set_tempo,480,1,0,,,,,,,,,,,,540541,,,,,,,
216960,note_on,480,0,2,,,,,,,,,,,,,,,0,,,56,0
216960,note_on,0,0,2,,,,,,,,,,,,,,,0,,,61,0
216960,note_on,480,0,1,,,,,,,,,,,,,,,0,,,73,0
216960,note_on,0,0,1,,,,,,,,,,,,,,,0,,,68,56
216960,note_on,0,0,2,,,,,,,,,,,,,,,0,,,64,0
217020,note_on,60,0,1,,,,,,,,,,,,,,,0,,,68,0
217020,note_on,0,0,1,,,,,,,,,,,,,,,0,,,70,56
217080,note_on,0,0,1,,,,,,,,,,,,,,,0,,,68,64
217080,set_tempo,120,1,0,,,,,,,,,,,,466926,,,,,,,
217080,note_on,60,0,1,,,,,,,,,,,,,,,0,,,70,0
217140,control_change,180,0,2,,,,,,,,,,,,,,,0,64,0,,
217200,set_tempo,120,1,0,,,,,,,,,,,,517241,,,,,,,
217440,note_on,0,0,1,,,,,,,,,,,,,,,0,,,67,64
217440,note_on,360,0,1,,,,,,,,,,,,,,,0,,,68,0
217440,note_on,300,0,2,,,,,,,,,,,,,,,0,,,50,50
217532,control_change,92,0,2,,,,,,,,,,,,,,,0,64,127,,
217800,note_on,360,0,1,,,,,,,,,,,,,,,0,,,67,0
217800,note_on,0,0,1,,,,,,,,,,,,,,,0,,,68,61
217920,note_on,0,0,2,,,,,,,,,,,,,,,0,,,59,37
217920,note_on,0,0,2,,,,,,,,,,,,,,,0,,,56,37
217920,note_on,120,0,1,,,,,,,,,,,,,,,0,,,68,0
217920,set_tempo,720,1,0,,,,,,,,,,,,504202,,,,,,,
217920,note_on,0,0,2,,,,,,,,,,,,,,,0,,,65,44
217920,note_on,0,0,1,,,,,,,,,,,,,,,0,,,71,64
217920,note_on,388,0,2,,,,,,,,,,,,,,,0,,,50,0
218400,note_on,0,0,2,,,,,,,,,,,,,,,0,,,58,37
218400,note_on,0,0,2,,,,,,,,,,,,,,,0,,,59,0
218400,note_on,0,0,1,,,,,,,,,,,,,,,0,,,70,64
218400,set_tempo,480,1,0,,,,,,,,,,,,515021,,,,,,,
218400,note_on,480,0,1,,,,,,,,,,,,,,,0,,,71,0
218400,note_on,480,0,2,,,,,,,,,,,,,,,0,,,56,0
218400,note_on,0,0,2,,,,,,,,,,,,,,,0,,,56,37
218400,note_on,0,0,2,,,,,,,,,,,,,,,0,,,65,0
218400,note_on,0,0,2,,,,,,,,,,,,,,,0,,,65,44
218449,control_change,49,0,2,,,,,,,,,,,,,,,0,64,0,,
218880,note_on,431,0,2,,,,,,,,,,,,,,,0,,,65,0
218880,note_on,0,0,2,,,,,,,,,,,,,,,0,,,58,0
218880,note_on,0,0,2,,,,,,,,,,,,,,,0,,,51,55
218880,note_on,0,0,1,,,,,,,,,,,,,,,0,,,67,69
218880,note_on,480,0,1,,,,,,,,,,,,,,,0,,,70,0
218880,note_on,0,0,2,,,,,,,,,,,,,,,0,,,56,0
219063,control_change,183,0,2,,,,,,,,,,,,,,,0,64,127,,
219360,note_on,0,0,2,,,,,,,,,,,,,,,0,,,55,39
219360,note_on,297,0,2,,,,,,,,,,,,,,,0,,,51,0
219360,set_tempo,960,1,0,,,,,,,,,,,,526316,,,,,,,
219360,note_on,0,0,2,,,,,,,,,,,,,,,0,,,58,39
219360,note_on,0,0,2,,,,,,,,,,,,,,,0,,,63,47
219840,note_on,0,0,1,,,,,,,,,,,,,,,0,,,66,64
219840,note_on,960,0,1,,,,,,,,,,,,,,,0,,,67,0
219840,note_on,0,0,2,,,,,,,,,,,,,,,0,,,63,0
219840,note_on,0,0,2,,,,,,,,,,,,,,,0,,,58,0
219840,note_on,0,0,2,,,,,,,,,,,,,,,0,,,49,34
219840,note_on,0,0,2,,,,,,,,,,,,,,,0,,,54,35
219840,note_on,0,0,2,,,,,,,,,,,,,,,0,,,58,39
219840,note_on,0,0,2,,,,,,,,,,,,,,,0,,,64,47
219840,note_on,480,0,2,,,,,,,,,,,,,,,0,,,55,0
220320,note_on,480,0,2,,,,,,,,,,,,,,,0,,,64,0
220320,note_on,0,0,2,,,,,,,,,,,,,,,0,,,49,0
220320,note_on,0,0,2,,,,,,,,,,,,,,,0,,,54,0
220320,note_on,0,0,2,,,,,,,,,,,,,,,0,,,58,0
220320,note_on,480,0,1,,,,,,,,,,,,,,,0,,,66,0
220320,control_change,0,0,2,,,,,,,,,,,,,,,0,64,0,,
220320,set_tempo,960,1,0,,,,,,,,,,,,493827,,,,,,,
220320,note_on,0,0,2,,,,,,,,,,,,,,,0,,,47,50
220320,note_on,0,0,1,,,,,,,,,,,,,,,0,,,75,59
220489,control_change,169,0,2,,,,,,,,,,,,,,,0,64,127,,
220560,note_on,0,0,1,,,,,,,,,,,,,,,0,,,76,61
220560,note_on,240,0,1,,,,,,,,,,,,,,,0,,,75,0
220800,note_on,240,0,1,,,,,,,,,,,,,,,0,,,76,0
220800,note_on,0,0,2,,,,,,,,,,,,,,,0,,,54,36
220800,note_on,0,0,2,,,,,,,,,,,,,,,0,,,59,36
220800,note_on,0,0,2,,,,,,,,,,,,,,,0,,,63,43
220800,set_tempo,480,1,0,,,,,,,,,,,,487805,,,,,,,
220800,note_on,311,0,2,,,,,,,,,,,,,,,0,,,47,0
220800,note_on,0,0,1,,,,,,,,,,,,,,,0,,,78,63
221280,set_tempo,480,1,0,,,,,,,,,,,,533333,,,,,,,
221280,note_on,0,0,2,,,,,,,,,,,,,,,0,,,59,0
221280,note_on,0,0,1,,,,,,,,,,,,,,,0,,,87,69
221280,note_on,480,0,1,,,,,,,,,,,,,,,0,,,78,0
221280,note_on,0,0,2,,,,,,,,,,,,,,,0,,,63,0
221280,note_on,480,0,2,,,,,,,,,,,,,,,0,,,54,0
221760,note_on,480,0,1,,,,,,,,,,,,,,,0,,,87,0
221760,set_tempo,480,1,0,,,,,,,,,,,,502092,,,,,,,
221760,note_on,0,0,2,,,,,,,,,,,,,,,0,,,40,51
221760,control_change,480,0,2,,,,,,,,,,,,,,,0,64,0,,
221760,note_on,0,0,1,,,,,,,,,,,,,,,0,,,85,69
221873,control_change,113,0,2,,,,,,,,,,,,,,,0,64,127,,
222000,note_on,0,0,1,,,,,,,,,,,,,,,0,,,83,64
222000,note_on,240,0,1,,,,,,,,,,,,,,,0,,,85,0
222240,note_on,367,0,2,,,,,,,,,,,,,,,0,,,40,0
222240,note_on,0,0,2,,,,,,,,,,,,,,,0,,,61,37
222240,note_on,0,0,2,,,,,,,,,,,,,,,0,,,68,44
222240,set_tempo,480,1,0,,,,,,,,,,,,495868,,,,,,,
222240,note_on,0,0,2,,,,,,,,,,,,,,,0,,,64,37
222240,note_on,0,0,2,,,,,,,,,,,,,,,0,,,59,37
222240,note_on,0,0,1,,,,,,,,,,,,,,,0,,,80,69
222240,note_on,240,0,1,,,,,,,,,,,,,,,0,,,83,0
222720,note_on,0,0,2,,,,,,,,,,,,,,,0,,,64,0
222720,note_on,0,0,1,,,,,,,,,,,,,,,0,,,76,67
222720,note_on,480,0,1,,,,,,,,,,,,,,,0,,,80,0
222720,note_on,0,0,2,,,,,,,,,,,,,,,0,,,59,0
222720,set_tempo,480,1,0,,,,,,,,,,,,510638,,,,,,,
222720,note_on,0,0,2,,,,,,,,,,,,,,,0,,,61,0
222720,note_on,480,0,2,,,,,,,,,,,,,,,0,,,68,0
223200,note_on,0,0,1,,,,,,,,,,,,,,,0,,,75,71
223200,note_on,0,0,2,,,,,,,,,,,,,,,0,,,42,50
223200,control_change,480,0,2,,,,,,,,,,,,,,,0,64,0,,
223200,note_on,480,0,1,,,,,,,,,,,,,,,0,,,76,0
223200,set_tempo,480,1,0,,,,,,,,,,,,495868,,,,,,,
223285,control_change,85,0,2,,,,,,,,,,,,,,,0,64,127,,
223440,note_on,240,0,1,,,,,,,,,,,,,,,0,,,75,0
223440,set_tempo,240,1,0,,,,,,,,,,,,515021,,,,,,,
223440,note_on,0,0,1,,,,,,,,,,,,,,,0,,,73,59
223500,note_on,0,0,1,,,,,,,,,,,,,,,0,,,75,60
223500,note_on,60,0,1,,,,,,,,,,,,,,,0,,,73,0
223560,note_on,0,0,1,,,,,,,,,,,,,,,0,,,73,69
223560,note_on,60,0,1,,,,,,,,,,,,,,,0,,,75,0
223560,set_tempo,120,1,0,,,,,,,,,,,,495868,,,,,,,
223680,note_on,120,0,1,,,,,,,,,,,,,,,0,,,73,0
223680,note_on,395,0,2,,,,,,,,,,,,,,,0,,,42,0
223680,note_on,0,0,2,,,,,,,,,,,,,,,0,,,64,43
223680,note_on,0,0,2,,,,,,,,,,,,,,,0,,,58,36
223680,note_on,0,0,2,,,,,,,,,,,,,,,0,,,54,36
223680,note_on,0,0,1,,,,,,,,,,,,,,,0,,,72,67
224160,set_tempo,600,1,0,,,,,,,,,,,,530973,,,,,,,
224160,note_on,0,0,2,,,,,,,,,,,,,,,0,,,64,45
224160,note_on,480,0,2,,,,,,,,,,,,,,,0,,,54,0
224160,note_on,0,0,2,,,,,,,,,,,,,,,0,,,64,0
224160,note_on,480,0,1,,,,,,,,,,,,,,,0,,,72,0
224160,note_on,0,0,2,,,,,,,,,,,,,,,0,,,54,38
224160,note_on,0,0,1,,,,,,,,,,,,,,,0,,,73,70
224160,note_on,0,0,2,,,,,,,,,,,,,,,0,,,58,0
224160,note_on,0,0,2,,,,,,,,,,,,,,,0,,,58,38
224640,note_on,480,0,1,,,,,,,,,,,,,,,0,,,73,0
224640,note_on,0,0,1,,,,,,,,,,,,,,,0,,,76,71
224640,set_tempo,480,1,0,,,,,,,,,,,,506329,,,,,,,
224640,note_on,480,0,2,,,,,,,,,,,,,,,0,,,64,0
224640,control_change,0,0,2,,,,,,,,,,,,,,,0,64,0,,
224640,note_on,0,0,2,,,,,,,,,,,,,,,0,,,43,54
224640,note_on,0,0,2,,,,,,,,,,,,,,,0,,,58,0
224640,note_on,0,0,2,,,,,,,,,,,,,,,0,,,54,0
224869,control_change,229,0,2,,,,,,,,,,,,,,,0,64,127,,
225120,note_on,0,0,2,,,,,,,,,,,,,,,0,,,58,39
225120,note_on,0,0,2,,,,,,,,,,,,,,,0,,,63,47
225120,set_tempo,480,1,0,,,,,,,,,,,,491803,,,,,,,
225120,note_on,251,0,2,,,,,,,,,,,,,,,0,,,43,0
225120,note_on,0,0,2,,,,,,,,,,,,,,,0,,,51,39
225600,set_tempo,480,1,0,,,,,,,,,,,,524017,,,,,,,
225600,note_on,960,0,1,,,,,,,,,,,,,,,0,,,76,0
225600,note_on,0,0,1,,,,,,,,,,,,,,,0,,,75,64
225600,note_on,0,0,2,,,,,,,,,,,,,,,0,,,63,44
225600,note_on,0,0,2,,,,,,,,,,,,,,,0,,,51,37
225600,note_on,0,0,2,,,,,,,,,,,,,,,0,,,58,37
225600,note_on,0,0,2,,,,,,,,,,,,,,,0,,,58,0
225600,note_on,480,0,2,,,,,,,,,,,,,,,0,,,51,0
225600,note_on,0,0,2,,,,,,,,,,,,,,,0,,,63,0
226080,set_tempo,480,1,0,,,,,,,,,,,,506329,,,,,,,
226080,note_on,0,0,1,,,,,,,,,,,,,,,0,,,75,67
226080,note_on,480,0,2,,,,,,,,,,,,,,,0,,,63,0
226080,note_on,0,0,2,,,,,,,,,,,,,,,0,,,58,0
226080,note_on,0,0,2,,,,,,,,,,,,,,,0,,,51,0
226080,note_on,0,0,2,,,,,,,,,,,,,,,0,,,44,55
226080,control_change,0,0,2,,,,,,,,,,,,,,,0,64,0,,
226080,note_on,480,0,1,,,,,,,,,,,,,,,0,,,75,0
226235,control_change,155,0,2,,,,,,,,,,,,,,,0,64,127,,
226560,set_tempo,480,1,0,,,,,,,,,,,,497925,,,,,,,
226560,note_on,325,0,2,,,,,,,,,,,,,,,0,,,44,0
226560,note_on,0,0,2,,,,,,,,,,,,,,,0,,,53,36
226560,note_on,0,0,2,,,,,,,,,,,,,,,0,,,63,43
226560,note_on,0,0,2,,,,,,,,,,,,,,,0,,,59,36
226560,note_on,0,0,2,,,,,,,,,,,,,,,0,,,56,36
226800,note_on,720,0,1,,,,,,,,,,,,,,,0,,,75,0
226800,note_on,0,0,1,,,,,,,,,,,,,,,0,,,75,56
226860,note_on,0,0,1,,,,,,,,,,,,,,,0,,,77,56
226860,note_on,60,0,1,,,,,,,,,,,,,,,0,,,75,0
226920,note_on,0,0,1,,,,,,,,,,,,,,,0,,,75,63
226920,note_on,60,0,1,,,,,,,,,,,,,,,0,,,77,0
227040,note_on,0,0,1,,,,,,,,,,,,,,,0,,,73,65
227040,note_on,120,0,1,,,,,,,,,,,,,,,0,,,75,0
227040,note_on,0,0,2,,,,,,,,,,,,,,,0,,,59,0
227040,note_on,0,0,2,,,,,,,,,,,,,,,0,,,63,0
227040,set_tempo,480,1,0,,,,,,,,,,,,515021,,,,,,,
227040,note_on,0,0,2,,,,,,,,,,,,,,,0,,,53,0
227040,note_on,480,0,2,,,,,,,,,,,,,,,0,,,56,0
227280,note_on,0,0,1,,,,,,,,,,,,,,,0,,,71,62
227280,note_on,240,0,1,,,,,,,,,,,,,,,0,,,73,0
227520,note_on,0,0,1,,,,,,,,,,,,,,,0,,,70,69
227520,note_on,240,0,1,,,,,,,,,,,,,,,0,,,71,0
227520,control_change,480,0,2,,,,,,,,,,,,,,,0,64,0,,
227520,note_on,0,0,2,,,,,,,,,,,,,,,0,,,46,53
227562,control_change,42,0,2,,,,,,,,,,,,,,,0,64,127,,
227760,note_on,0,0,1,,,,,,,,,,,,,,,0,,,75,64
227760,note_on,240,0,1,,,,,,,,,,,,,,,0,,,70,0
228000,note_on,0,0,2,,,,,,,,,,,,,,,0,,,63,45
228000,note_on,0,0,2,,,,,,,,,,,,,,,0,,,58,38
228000,note_on,438,0,2,,,,,,,,,,,,,,,0,,,46,0
228000,set_tempo,960,1,0,,,,,,,,,,,,504202,,,,,,,
228000,note_on,0,0,1,,,,,,,,,,,,,,,0,,,78,70
228000,note_on,0,0,2,,,,,,,,,,,,,,,0,,,54,38
228000,note_on,240,0,1,,,,,,,,,,,,,,,0,,,75,0
228480,note_on,0,0,2,,,,,,,,,,,,,,,0,,,63,0
228480,note_on,0,0,1,,,,,,,,,,,,,,,0,,,83,69
228480,note_on,480,0,1,,,,,,,,,,,,,,,0,,,78,0
228480,note_on,0,0,2,,,,,,,,,,,,,,,0,,,58,0
228480,set_tempo,480,1,0,,,,,,,,,,,,510638,,,,,,,
228480,note_on,480,0,2,,,,,,,,,,,,,,,0,,,54,0
228480,note_on,0,0,2,,,,,,,,,,,,,,,0,,,63,45
228480,note_on,0,0,2,,,,,,,,,,,,,,,0,,,58,38
228480,note_on,0,0,2,,,,,,,,,,,,,,,0,,,54,38
228660,control_change,180,0,2,,,,,,,,,,,,,,,0,64,0,,
228720,set_tempo,240,1,0,,,,,,,,,,,,517241,,,,,,,
228960,note_on,0,0,2,,,,,,,,,,,,,,,0,,,58,0
228960,note_on,0,0,2,,,,,,,,,,,,,,,0,,,54,0
228960,note_on,0,0,2,,,,,,,,,,,,,,,0,,,46,50
228960,note_on,480,0,1,,,,,,,,,,,,,,,0,,,83,0
228960,note_on,0,0,1,,,,,,,,,,,,,,,0,,,82,71
228960,note_on,300,0,2,,,,,,,,,,,,,,,0,,,63,0
229052,control_change,92,0,2,,,,,,,,,,,,,,,0,64,127,,
229200,note_on,240,0,1,,,,,,,,,,,,,,,0,,,82,0
229200,note_on,0,0,1,,,,,,,,,,,,,,,0,,,77,61
229440,note_on,240,0,1,,,,,,,,,,,,,,,0,,,77,0
229440,note_on,0,0,2,,,,,,,,,,,,,,,0,,,62,44
229440,note_on,0,0,2,,,,,,,,,,,,,,,0,,,56,37
229440,note_on,0,0,2,,,,,,,,,,,,,,,0,,,58,37
229440,note_on,388,0,2,,,,,,,,,,,,,,,0,,,46,0
229440,note_on,0,0,1,,,,,,,,,,,,,,,0,,,80,70
229440,set_tempo,720,1,0,,,,,,,,,,,,504202,,,,,,,
229920,note_on,0,0,2,,,,,,,,,,,,,,,0,,,58,0
229920,note_on,0,0,2,,,,,,,,,,,,,,,0,,,62,0
229920,note_on,0,0,2,,,,,,,,,,,,,,,0,,,65,44
229920,set_tempo,480,1,0,,,,,,,,,,,,515021,,,,,,,
229920,note_on,0,0,2,,,,,,,,,,,,,,,0,,,56,37
229920,note_on,0,0,2,,,,,,,,,,,,,,,0,,,58,37
229920,note_on,480,0,2,,,,,,,,,,,,,,,0,,,56,0
229969,control_change,49,0,2,,,,,,,,,,,,,,,0,64,0,,
230160,note_on,720,0,1,,,,,,,,,,,,,,,0,,,80,0
230160,note_on,0,0,1,,,,,,,,,,,,,,,0,,,78,67
230400,note_on,0,0,1,,,,,,,,,,,,,,,0,,,75,71
230400,note_on,0,0,2,,,,,,,,,,,,,,,0,,,58,0
230400,note_on,0,0,2,,,,,,,,,,,,,,,0,,,56,0
230400,note_on,0,0,2,,,,,,,,,,,,,,,0,,,51,55
230400,note_on,240,0,1,,,,,,,,,,,,,,,0,,,78,0
230400,note_on,431,0,2,,,,,,,,,,,,,,,0,,,65,0
230583,control_change,183,0,2,,,,,,,,,,,,,,,0,64,127,,
230880,note_on,297,0,2,,,,,,,,,,,,,,,0,,,51,0
230880,note_on,0,0,2,,,,,,,,,,,,,,,0,,,63,39
230880,note_on,0,0,2,,,,,,,,,,,,,,,0,,,58,33
230880,set_tempo,960,1,0,,,,,,,,,,,,526316,,,,,,,
230880,note_on,0,0,2,,,,,,,,,,,,,,,0,,,54,29
231120,set_tempo,240,1,0,,,,,,,,,,,,542986,,,,,,,
231360,note_on,0,0,1,,,,,,,,,,,,,,,0,,,78,75
231360,note_on,0,0,2,,,,,,,,,,,,,,,0,,,63,0
231360,set_tempo,240,1,0,,,,,,,,,,,,483871,,,,,,,
231360,note_on,0,0,2,,,,,,,,,,,,,,,0,,,54,36
231360,note_on,480,0,2,,,,,,,,,,,,,,,0,,,54,0
231360,note_on,0,0,2,,,,,,,,,,,,,,,0,,,58,0
231360,note_on,0,0,2,,,,,,,,,,,,,,,0,,,66,50
231360,note_on,960,0,1,,,,,,,,,,,,,,,0,,,75,0
231360,note_on,0,0,2,,,,,,,,,,,,,,,0,,,58,42
231840,note_on,0,0,1,,,,,,,,,,,,,,,0,,,92,82
231840,set_tempo,480,1,0,,,,,,,,,,,,442804,,,,,,,
231840,note_on,0,0,2,,,,,,,,,,,,,,,0,,,70,54
231840,note_on,0,0,2,,,,,,,,,,,,,,,0,,,54,0
231840,note_on,0,0,2,,,,,,,,,,,,,,,0,,,58,0
231840,note_on,480,0,2,,,,,,,,,,,,,,,0,,,66,0
231840,control_change,0,0,2,,,,,,,,,,,,,,,0,64,0,,
231840,note_on,0,0,2,,,,,,,,,,,,,,,0,,,76,64
231840,note_on,0,0,1,,,,,,,,,,,,,,,0,,,80,69
231840,note_on,480,0,1,,,,,,,,,,,,,,,0,,,78,0
231860,set_tempo,20,1,0,,,,,,,,,,,,416667,,,,,,,
231896,control_change,56,0,2,,,,,,,,,,,,,,,0,64,127,,
231960,note_on,64,0,2,,,,,,,,,,,,,,,0,,,76,0
231960,note_on,0,0,2,,,,,,,,,,,,,,,0,,,70,0
232200,note_on,0,0,1,,,,,,,,,,,,,,,0,,,92,0
232200,note_on,360,0,1,,,,,,,,,,,,,,,0,,,80,0
232200,set_tempo,340,1,0,,,,,,,,,,,,394737,,,,,,,
232200,note_on,0,0,1,,,,,,,,,,,,,,,0,,,90,77
232200,note_on,240,0,2,,,,,,,,,,,,,,,0,,,66,60
232200,note_on,0,0,1,,,,,,,,,,,,,,,0,,,78,65
232320,note_on,0,0,2,,,,,,,,,,,,,,,0,,,54,58
232320,set_tempo,120,1,0,,,,,,,,,,,,428571,,,,,,,
232320,note_on,0,0,1,,,,,,,,,,,,,,,0,,,90,0
232320,note_on,120,0,2,,,,,,,,,,,,,,,0,,,66,0
232320,note_on,0,0,1,,,,,,,,,,,,,,,0,,,88,76
232320,note_on,120,0,1,,,,,,,,,,,,,,,0,,,78,0
232320,note_on,0,0,1,,,,,,,,,,,,,,,0,,,76,64
232680,note_on,360,0,1,,,,,,,,,,,,,,,0,,,76,0
232680,note_on,0,0,1,,,,,,,,,,,,,,,0,,,88,0
232800,note_on,120,0,1,,,,,,,,,,,,,,,0,,,64,63
232800,note_on,0,0,2,,,,,,,,,,,,,,,0,,,42,60
232800,set_tempo,480,1,0,,,,,,,,,,,,421053,,,,,,,
232800,note_on,0,0,1,,,,,,,,,,,,,,,0,,,70,75
232800,note_on,480,0,2,,,,,,,,,,,,,,,0,,,54,0
232856,control_change,56,0,2,,,,,,,,,,,,,,,0,64,0,,
233280,note_on,0,0,2,,,,,,,,,,,,,,,0,,,47,68
233280,note_on,424,0,2,,,,,,,,,,,,,,,0,,,42,0
233280,note_on,0,0,1,,,,,,,,,,,,,,,0,,,63,64
233280,note_on,480,0,1,,,,,,,,,,,,,,,0,,,70,0
233280,note_on,0,0,1,,,,,,,,,,,,,,,0,,,64,0
233280,set_tempo,480,1,0,,,,,,,,,,,,412371,,,,,,,
233280,note_on,0,0,1,,,,,,,,,,,,,,,0,,,71,76
233365,control_change,85,0,2,,,,,,,,,,,,,,,0,64,127,,
233520,note_on,155,0,2,,,,,,,,,,,,,,,0,,,47,0
233520,note_on,0,0,1,,,,,,,,,,,,,,,0,,,63,0
233520,note_on,240,0,1,,,,,,,,,,,,,,,0,,,71,0
233640,note_on,120,0,1,,,,,,,,,,,,,,,0,,,66,62
233640,note_on,0,0,1,,,,,,,,,,,,,,,0,,,73,73
233640,note_on,120,0,2,,,,,,,,,,,,,,,0,,,54,59
233640,set_tempo,360,1,0,,,,,,,,,,,,397351,,,,,,,
233760,note_on,0,0,1,,,,,,,,,,,,,,,0,,,71,68
233760,note_on,0,0,1,,,,,,,,,,,,,,,0,,,66,0
233760,note_on,120,0,1,,,,,,,,,,,,,,,0,,,73,0
233760,note_on,0,0,1,,,,,,,,,,,,,,,0,,,75,81
233760,set_tempo,120,1,0,,,,,,,,,,,,412371,,,,,,,
233760,note_on,120,0,2,,,,,,,,,,,,,,,0,,,54,0
233760,note_on,0,0,2,,,,,,,,,,,,,,,0,,,63,66
233760,note_on,0,0,2,,,,,,,,,,,,,,,0,,,59,56
234240,note_on,0,0,1,,,,,,,,,,,,,,,0,,,90,77
234240,note_on,0,0,1,,,,,,,,,,,,,,,0,,,78,65
234240,note_on,0,0,1,,,,,,,,,,,,,,,0,,,71,0
234240,note_on,480,0,1,,,,,,,,,,,,,,,0,,,75,0
234240,note_on,0,0,2,,,,,,,,,,,,,,,0,,,63,0
234240,set_tempo,480,1,0,,,,,,,,,,,,421053,,,,,,,
234240,note_on,0,0,2,,,,,,,,,,,,,,,0,,,75,60
234240,note_on,0,0,2,,,,,,,,,,,,,,,0,,,71,51
234240,note_on,480,0,2,,,,,,,,,,,,,,,0,,,59,0
234275,control_change,35,0,2,,,,,,,,,,,,,,,0,64,0,,
234720,note_on,0,0,1,,,,,,,,,,,,,,,0,,,80,69
234720,note_on,0,0,1,,,,,,,,,,,,,,,0,,,92,82
234720,note_on,0,0,1,,,,,,,,,,,,,,,0,,,78,0
234720,note_on,480,0,1,,,,,,,,,,,,,,,0,,,90,0
234720,note_on,0,0,2,,,,,,,,,,,,,,,0,,,70,54
234720,note_on,0,0,2,,,,,,,,,,,,,,,0,,,71,0
234720,note_on,0,0,2,,,,,,,,,,,,,,,0,,,76,64
234720,note_on,445,0,2,,,,,,,,,,,,,,,0,,,75,0
234720,set_tempo,480,1,0,,,,,,,,,,,,412371,,,,,,,
234776,control_change,56,0,2,,,,,,,,,,,,,,,0,64,127,,
234840,note_on,0,0,2,,,,,,,,,,,,,,,0,,,70,0
234840,note_on,64,0,2,,,,,,,,,,,,,,,0,,,76,0
235080,set_tempo,360,1,0,,,,,,,,,,,,394737,,,,,,,
235080,note_on,240,0,2,,,,,,,,,,,,,,,0,,,66,60
235080,note_on,0,0,1,,,,,,,,,,,,,,,0,,,90,77
235080,note_on,0,0,1,,,,,,,,,,,,,,,0,,,78,65
235080,note_on,0,0,1,,,,,,,,,,,,,,,0,,,92,0
235080,note_on,360,0,1,,,,,,,,,,,,,,,0,,,80,0
235200,set_tempo,120,1,0,,,,,,,,,,,,412371,,,,,,,
235200,note_on,120,0,2,,,,,,,,,,,,,,,0,,,66,0
235200,note_on,120,0,1,,,,,,,,,,,,,,,0,,,78,0
235200,note_on,0,0,2,,,,,,,,,,,,,,,0,,,54,58
235200,note_on,0,0,1,,,,,,,,,,,,,,,0,,,88,76
235200,note_on,0,0,1,,,,,,,,,,,,,,,0,,,76,64
235200,note_on,0,0,1,,,,,,,,,,,,,,,0,,,90,0
235560,note_on,360,0,1,,,,,,,,,,,,,,,0,,,76,0
235560,note_on,0,0,1,,,,,,,,,,,,,,,0,,,88,0
235680,note_on,120,0,1,,,,,,,,,,,,,,,0,,,64,63
235680,note_on,0,0,1,,,,,,,,,,,,,,,0,,,70,75
235680,note_on,0,0,2,,,,,,,,,,,,,,,0,,,42,60
235680,note_on,480,0,2,,,,,,,,,,,,,,,0,,,54,0
235680,set_tempo,480,1,0,,,,,,,,,,,,422535,,,,,,,
235736,control_change,56,0,2,,,,,,,,,,,,,,,0,64,0,,
236160,note_on,0,0,2,,,,,,,,,,,,,,,0,,,47,68
236160,note_on,0,0,1,,,,,,,,,,,,,,,0,,,63,64
236160,note_on,0,0,1,,,,,,,,,,,,,,,0,,,71,76
236160,note_on,0,0,1,,,,,,,,,,,,,,,0,,,64,0
236160,note_on,480,0,1,,,,,,,,,,,,,,,0,,,70,0
236160,set_tempo,480,1,0,,,,,,,,,,,,412371,,,,,,,
236160,note_on,424,0,2,,,,,,,,,,,,,,,0,,,42,0
236245,control_change,85,0,2,,,,,,,,,,,,,,,0,64,127,,
236400,note_on,0,0,1,,,,,,,,,,,,,,,0,,,63,0
236400,note_on,155,0,2,,,,,,,,,,,,,,,0,,,47,0
236400,note_on,240,0,1,,,,,,,,,,,,,,,0,,,71,0
236520,note_on,120,0,2,,,,,,,,,,,,,,,0,,,54,59
236520,note_on,0,0,1,,,,,,,,,,,,,,,0,,,73,73
236520,note_on,120,0,1,,,,,,,,,,,,,,,0,,,66,62
236520,set_tempo,360,1,0,,,,,,,,,,,,397351,,,,,,,
236640,note_on,120,0,2,,,,,,,,,,,,,,,0,,,54,0
236640,note_on,0,0,2,,,,,,,,,,,,,,,0,,,63,66
236640,note_on,0,0,2,,,,,,,,,,,,,,,0,,,59,56
236640,set_tempo,120,1,0,,,,,,,,,,,,433213,,,,,,,
236640,note_on,120,0,1,,,,,,,,,,,,,,,0,,,73,0
236640,note_on,0,0,1,,,,,,,,,,,,,,,0,,,66,0
236640,note_on,0,0,1,,,,,,,,,,,,,,,0,,,71,68
236640,note_on,0,0,1,,,,,,,,,,,,,,,0,,,75,81
237120,note_on,0,0,2,,,,,,,,,,,,,,,0,,,63,0
237120,note_on,480,0,1,,,,,,,,,,,,,,,0,,,75,0
237120,set_tempo,480,1,0,,,,,,,,,,,,422535,,,,,,,
237120,note_on,0,0,1,,,,,,,,,,,,,,,0,,,71,0
237120,note_on,0,0,1,,,,,,,,,,,,,,,0,,,78,77
237120,note_on,480,0,2,,,,,,,,,,,,,,,0,,,59,0
237120,note_on,0,0,1,,,,,,,,,,,,,,,0,,,75,65
237155,control_change,35,0,2,,,,,,,,,,,,,,,0,64,0,,
237600,note_on,480,0,1,,,,,,,,,,,,,,,0,,,78,0
237600,set_tempo,480,1,0,,,,,,,,,,,,413793,,,,,,,
237600,note_on,0,0,1,,,,,,,,,,,,,,,0,,,88,81
237600,note_on,0,0,1,,,,,,,,,,,,,,,0,,,85,69
237600,note_on,445,0,2,,,,,,,,,,,,,,,0,,,52,68
237600,note_on,0,0,1,,,,,,,,,,,,,,,0,,,75,0
237685,control_change,85,0,2,,,,,,,,,,,,,,,0,64,127,,
237720,note_on,35,0,2,,,,,,,,,,,,,,,0,,,52,0
237720,note_on,0,0,1,,,,,,,,,,,,,,,0,,,85,0
237720,note_on,120,0,1,,,,,,,,,,,,,,,0,,,88,0
237960,note_on,240,0,2,,,,,,,,,,,,,,,0,,,73,62
237960,set_tempo,360,1,0,,,,,,,,,,,,380952,,,,,,,
237960,note_on,0,0,1,,,,,,,,,,,,,,,0,,,82,73
237960,note_on,240,0,1,,,,,,,,,,,,,,,0,,,78,62
238080,note_on,0,0,2,,,,,,,,,,,,,,,0,,,68,66
238080,note_on,0,0,2,,,,,,,,,,,,,,,0,,,64,56
238080,note_on,0,0,1,,,,,,,,,,,,,,,0,,,76,66
238080,note_on,0,0,1,,,,,,,,,,,,,,,0,,,78,0
238080,note_on,120,0,1,,,,,,,,,,,,,,,0,,,82,0
238080,note_on,120,0,2,,,,,,,,,,,,,,,0,,,73,0
238080,set_tempo,120,1,0,,,,,,,,,,,,405405,,,,,,,
238080,note_on,0,0,1,,,,,,,,,,,,,,,0,,,80,73
238440,set_tempo,360,1,0,,,,,,,,,,,,389610,,,,,,,
238440,note_on,360,0,1,,,,,,,,,,,,,,,0,,,80,0
238440,note_on,0,0,1,,,,,,,,,,,,,,,0,,,78,62
238440,note_on,0,0,2,,,,,,,,,,,,,,,0,,,73,62
238440,note_on,0,0,2,,,,,,,,,,,,,,,0,,,64,0
238440,note_on,360,0,2,,,,,,,,,,,,,,,0,,,68,0
238440,note_on,0,0,1,,,,,,,,,,,,,,,0,,,82,73
238440,note_on,0,0,1,,,,,,,,,,,,,,,0,,,76,0
238560,set_tempo,120,1,0,,,,,,,,,,,,427046,,,,,,,
238560,note_on,0,0,2,,,,,,,,,,,,,,,0,,,64,55
238560,note_on,120,0,2,,,,,,,,,,,,,,,0,,,73,0
238560,note_on,120,0,1,,,,,,,,,,,,,,,0,,,82,0
238560,note_on,0,0,1,,,,,,,,,,,,,,,0,,,78,0
238560,note_on,0,0,1,,,,,,,,,,,,,,,0,,,76,65
238560,note_on,0,0,1,,,,,,,,,,,,,,,0,,,80,77
238560,note_on,0,0,2,,,,,,,,,,,,,,,0,,,68,65
238595,control_change,35,0,2,,,,,,,,,,,,,,,0,64,0,,
239040,set_tempo,480,1,0,,,,,,,,,,,,415225,,,,,,,
239040,note_on,0,0,2,,,,,,,,,,,,,,,0,,,42,68
239040,note_on,0,0,2,,,,,,,,,,,,,,,0,,,64,0
239040,note_on,445,0,2,,,,,,,,,,,,,,,0,,,68,0
239040,note_on,480,0,1,,,,,,,,,,,,,,,0,,,80,0
239040,note_on,0,0,1,,,,,,,,,,,,,,,0,,,76,0
239040,note_on,0,0,1,,,,,,,,,,,,,,,0,,,83,69
239040,note_on,0,0,1,,,,,,,,,,,,,,,0,,,87,81
239125,control_change,85,0,2,,,,,,,,,,,,,,,0,64,127,,
239160,note_on,0,0,1,,,,,,,,,,,,,,,0,,,83,0
239160,note_on,35,0,2,,,,,,,,,,,,,,,0,,,42,0
239160,note_on,120,0,1,,,,,,,,,,,,,,,0,,,87,0
239400,note_on,240,0,2,,,,,,,,,,,,,,,0,,,71,62
239400,note_on,0,0,1,,,,,,,,,,,,,,,0,,,80,73
239400,note_on,240,0,1,,,,,,,,,,,,,,,0,,,76,62
239400,set_tempo,360,1,0,,,,,,,,,,,,382166,,,,,,,
239520,note_on,0,0,1,,,,,,,,,,,,,,,0,,,78,73
239520,note_on,0,0,1,,,,,,,,,,,,,,,0,,,75,66
239520,note_on,0,0,1,,,,,,,,,,,,,,,0,,,76,0
239520,note_on,120,0,1,,,,,,,,,,,,,,,0,,,80,0
239520,set_tempo,120,1,0,,,,,,,,,,,,408163,,,,,,,
239520,note_on,0,0,2,,,,,,,,,,,,,,,0,,,63,56
239520,note_on,0,0,2,,,,,,,,,,,,,,,0,,,66,66
239520,note_on,120,0,2,,,,,,,,,,,,,,,0,,,71,0
239880,note_on,360,0,1,,,,,,,,,,,,,,,0,,,78,0
239880,set_tempo,360,1,0,,,,,,,,,,,,390879,,,,,,,
239880,note_on,0,0,2,,,,,,,,,,,,,,,0,,,71,62
239880,note_on,0,0,2,,,,,,,,,,,,,,,0,,,63,0
239880,note_on,360,0,2,,,,,,,,,,,,,,,0,,,66,0
239880,note_on,0,0,1,,,,,,,,,,,,,,,0,,,76,62
239880,note_on,0,0,1,,,,,,,,,,,,,,,0,,,80,73
239880,note_on,0,0,1,,,,,,,,,,,,,,,0,,,75,0
240000,note_on,120,0,1,,,,,,,,,,,,,,,0,,,80,0
240000,note_on,0,0,1,,,,,,,,,,,,,,,0,,,75,65
240000,note_on,0,0,1,,,,,,,,,,,,,,,0,,,78,77
240000,note_on,0,0,2,,,,,,,,,,,,,,,0,,,63,55
240000,note_on,120,0,2,,,,,,,,,,,,,,,0,,,71,0
240000,set_tempo,120,1,0,,,,,,,,,,,,424028,,,,,,,
240000,note_on,0,0,1,,,,,,,,,,,,,,,0,,,76,0
240000,note_on,0,0,2,,,,,,,,,,,,,,,0,,,66,65
240035,control_change,35,0,2,,,,,,,,,,,,,,,0,64,0,,
240480,note_on,0,0,2,,,,,,,,,,,,,,,0,,,63,0
240480,note_on,480,0,1,,,,,,,,,,,,,,,0,,,78,0
240480,note_on,0,0,1,,,,,,,,,,,,,,,0,,,75,0
240480,note_on,0,0,1,,,,,,,,,,,,,,,0,,,82,69
240480,set_tempo,480,1,0,,,,,,,,,,,,413793,,,,,,,
240480,note_on,0,0,1,,,,,,,,,,,,,,,0,,,85,81
240480,note_on,0,0,2,,,,,,,,,,,,,,,0,,,42,68
240480,note_on,445,0,2,,,,,,,,,,,,,,,0,,,66,0
240565,control_change,85,0,2,,,,,,,,,,,,,,,0,64,127,,
240600,note_on,0,0,1,,,,,,,,,,,,,,,0,,,82,0
240600,note_on,35,0,2,,,,,,,,,,,,,,,0,,,42,0
240600,note_on,120,0,1,,,,,,,,,,,,,,,0,,,85,0
240840,note_on,0,0,1,,,,,,,,,,,,,,,0,,,78,73
240840,note_on,240,0,2,,,,,,,,,,,,,,,0,,,70,62
240840,set_tempo,360,1,0,,,,,,,,,,,,397351,,,,,,,
240840,note_on,240,0,1,,,,,,,,,,,,,,,0,,,75,62
240960,note_on,0,0,2,,,,,,,,,,,,,,,0,,,64,66
240960,note_on,0,0,2,,,,,,,,,,,,,,,0,,,61,56
240960,note_on,120,0,2,,,,,,,,,,,,,,,0,,,70,0
240960,note_on,120,0,1,,,,,,,,,,,,,,,0,,,78,0
240960,note_on,0,0,1,,,,,,,,,,,,,,,0,,,75,0
240960,set_tempo,120,1,0,,,,,,,,,,,,421053,,,,,,,
240960,note_on,0,0,1,,,,,,,,,,,,,,,0,,,76,73
240960,note_on,0,0,1,,,,,,,,,,,,,,,0,,,73,66
241320,note_on,0,0,2,,,,,,,,,,,,,,,0,,,70,62
241320,note_on,0,0,2,,,,,,,,,,,,,,,0,,,61,0
241320,note_on,360,0,2,,,,,,,,,,,,,,,0,,,64,0
241320,set_tempo,360,1,0,,,,,,,,,,,,400000,,,,,,,
241320,note_on,0,0,1,,,,,,,,,,,,,,,0,,,78,73
241320,note_on,0,0,1,,,,,,,,,,,,,,,0,,,75,62
241320,note_on,0,0,1,,,,,,,,,,,,,,,0,,,73,0
241320,note_on,360,0,1,,,,,,,,,,,,,,,0,,,76,0
241440,set_tempo,120,1,0,,,,,,,,,,,,468750,,,,,,,
241440,note_on,120,0,1,,,,,,,,,,,,,,,0,,,78,0
241440,note_on,0,0,1,,,,,,,,,,,,,,,0,,,75,0
241440,note_on,0,0,1,,,,,,,,,,,,,,,0,,,73,65
241440,note_on,120,0,2,,,,,,,,,,,,,,,0,,,70,0
241440,note_on,0,0,2,,,,,,,,,,,,,,,0,,,61,55
241440,note_on,0,0,2,,,,,,,,,,,,,,,0,,,64,65
241440,note_on,0,0,1,,,,,,,,,,,,,,,0,,,76,77
241475,control_change,35,0,2,,,,,,,,,,,,,,,0,64,0,,
241920,note_on,0,0,1,,,,,,,,,,,,,,,0,,,71,58
241920,note_on,0,0,1,,,,,,,,,,,,,,,0,,,75,69
241920,note_on,0,0,1,,,,,,,,,,,,,,,0,,,73,0
241920,note_on,0,0,2,,,,,,,,,,,,,,,0,,,61,0
241920,note_on,0,0,2,,,,,,,,,,,,,,,0,,,47,61
241920,note_on,445,0,2,,,,,,,,,,,,,,,0,,,64,0
241920,set_tempo,480,1,0,,,,,,,,,,,,456274,,,,,,,
241920,note_on,480,0,1,,,,,,,,,,,,,,,0,,,76,0
242005,control_change,85,0,2,,,,,,,,,,,,,,,0,64,127,,
242040,note_on,0,0,1,,,,,,,,,,,,,,,0,,,71,0
242040,note_on,120,0,1,,,,,,,,,,,,,,,0,,,75,0
242160,note_on,155,0,2,,,,,,,,,,,,,,,0,,,47,0
242280,note_on,240,0,1,,,,,,,,,,,,,,,0,,,73,52
242280,set_tempo,360,1,0,,,,,,,,,,,,526316,,,,,,,
242280,note_on,0,0,1,,,,,,,,,,,,,,,0,,,76,62
242400,note_on,0,0,1,,,,,,,,,,,,,,,0,,,80,67
242400,set_tempo,120,1,0,,,,,,,,,,,,487805,,,,,,,
242400,note_on,120,0,1,,,,,,,,,,,,,,,0,,,76,0
242400,note_on,240,0,2,,,,,,,,,,,,,,,0,,,59,46
242400,note_on,0,0,2,,,,,,,,,,,,,,,0,,,65,55
242400,note_on,0,0,1,,,,,,,,,,,,,,,0,,,74,56
242400,note_on,0,0,1,,,,,,,,,,,,,,,0,,,73,0
242442,control_change,42,0,2,,,,,,,,,,,,,,,0,64,0,,
242880,note_on,438,0,2,,,,,,,,,,,,,,,0,,,65,0
242880,note_on,0,0,2,,,,,,,,,,,,,,,0,,,66,50
242880,note_on,0,0,1,,,,,,,,,,,,,,,0,,,74,0
242880,note_on,0,0,1,,,,,,,,,,,,,,,0,,,75,50
242880,note_on,0,0,1,,,,,,,,,,,,,,,0,,,78,59
242880,note_on,480,0,1,,,,,,,,,,,,,,,0,,,80,0
243360,note_on,480,0,1,,,,,,,,,,,,,,,0,,,78,0
243360,note_on,0,0,1,,,,,,,,,,,,,,,0,,,75,0
243360,note_on,0,0,1,,,,,,,,,,,,,,,0,,,92,82
243360,note_on,0,0,1,,,,,,,,,,,,,,,0,,,80,69
243360,note_on,480,0,2,,,,,,,,,,,,,,,0,,,66,0
243360,note_on,0,0,2,,,,,,,,,,,,,,,0,,,59,0
243360,note_on,0,0,2,,,,,,,,,,,,,,,0,,,70,54
243360,note_on,0,0,2,,,,,,,,,,,,,,,0,,,76,64
243360,control_change,0,0,2,,,,,,,,,,,,,,,0,64,0,,
243360,set_tempo,960,1,0,,,,,,,,,,,,442804,,,,,,,
243380,set_tempo,20,1,0,,,,,,,,,,,,416667,,,,,,,
243416,control_change,56,0,2,,,,,,,,,,,,,,,0,64,127,,
243480,note_on,0,0,2,,,,,,,,,,,,,,,0,,,70,0
243480,note_on,64,0,2,,,,,,,,,,,,,,,0,,,76,0
243720,note_on,0,0,1,,,,,,,,,,,,,,,0,,,78,65
243720,note_on,0,0,1,,,,,,,,,,,,,,,0,,,92,0
243720,note_on,360,0,1,,,,,,,,,,,,,,,0,,,80,0
243720,note_on,240,0,2,,,,,,,,,,,,,,,0,,,66,60
243720,set_tempo,340,1,0,,,,,,,,,,,,394737,,,,,,,
243720,note_on,0,0,1,,,,,,,,,,,,,,,0,,,90,77
243840,note_on,0,0,1,,,,,,,,,,,,,,,0,,,76,64
243840,note_on,0,0,1,,,,,,,,,,,,,,,0,,,88,76
243840,note_on,0,0,2,,,,,,,,,,,,,,,0,,,54,58
243840,note_on,120,0,1,,,,,,,,,,,,,,,0,,,78,0
243840,set_tempo,120,1,0,,,,,,,,,,,,428571,,,,,,,
243840,note_on,120,0,2,,,,,,,,,,,,,,,0,,,66,0
243840,note_on,0,0,1,,,,,,,,,,,,,,,0,,,90,0
244200,note_on,360,0,1,,,,,,,,,,,,,,,0,,,76,0
244200,note_on,0,0,1,,,,,,,,,,,,,,,0,,,88,0
244320,set_tempo,480,1,0,,,,,,,,,,,,421053,,,,,,,
244320,note_on,0,0,2,,,,,,,,,,,,,,,0,,,42,60
244320,note_on,480,0,2,,,,,,,,,,,,,,,0,,,54,0
244320,note_on,120,0,1,,,,,,,,,,,,,,,0,,,64,63
244320,note_on,0,0,1,,,,,,,,,,,,,,,0,,,70,75
244376,control_change,56,0,2,,,,,,,,,,,,,,,0,64,0,,
244800,note_on,0,0,1,,,,,,,,,,,,,,,0,,,71,76
244800,note_on,480,0,1,,,,,,,,,,,,,,,0,,,70,0
244800,note_on,0,0,1,,,,,,,,,,,,,,,0,,,64,0
244800,set_tempo,480,1,0,,,,,,,,,,,,412371,,,,,,,
244800,note_on,0,0,1,,,,,,,,,,,,,,,0,,,63,64
244800,note_on,424,0,2,,,,,,,,,,,,,,,0,,,42,0
244800,note_on,0,0,2,,,,,,,,,,,,,,,0,,,47,68
244885,control_change,85,0,2,,,,,,,,,,,,,,,0,64,127,,
245040,note_on,0,0,1,,,,,,,,,,,,,,,0,,,63,0
245040,note_on,240,0,1,,,,,,,,,,,,,,,0,,,71,0
245040,note_on,155,0,2,,,,,,,,,,,,,,,0,,,47,0
245160,note_on,120,0,2,,,,,,,,,,,,,,,0,,,54,59
245160,note_on,0,0,1,,,,,,,,,,,,,,,0,,,73,73
245160,note_on,120,0,1,,,,,,,,,,,,,,,0,,,66,62
245160,set_tempo,360,1,0,,,,,,,,,,,,397351,,,,,,,
245280,note_on,120,0,1,,,,,,,,,,,,,,,0,,,73,0
245280,note_on,0,0,1,,,,,,,,,,,,,,,0,,,75,81
245280,note_on,0,0,1,,,,,,,,,,,,,,,0,,,71,68
245280,note_on,0,0,1,,,,,,,,,,,,,,,0,,,66,0
245280,note_on,0,0,2,,,,,,,,,,,,,,,0,,,59,56
245280,set_tempo,120,1,0,,,,,,,,,,,,431655,,,,,,,
245280,note_on,0,0,2,,,,,,,,,,,,,,,0,,,63,66
245280,note_on,120,0,2,,,,,,,,,,,,,,,0,,,54,0
245760,note_on,0,0,1,,,,,,,,,,,,,,,0,,,90,77
245760,note_on,0,0,1,,,,,,,,,,,,,,,0,,,78,65
245760,note_on,0,0,1,,,,,,,,,,,,,,,0,,,71,0
245760,note_on,480,0,1,,,,,,,,,,,,,,,0,,,75,0
245760,note_on,480,0,2,,,,,,,,,,,,,,,0,,,59,0
245760,note_on,0,0,2,,,,,,,,,,,,,,,0,,,63,0
245760,note_on,0,0,2,,,,,,,,,,,,,,,0,,,75,60
245760,note_on,0,0,2,,,,,,,,,,,,,,,0,,,71,51
245760,set_tempo,480,1,0,,,,,,,,,,,,421053,,,,,,,
245795,control_change,35,0,2,,,,,,,,,,,,,,,0,64,0,,
246240,note_on,0,0,2,,,,,,,,,,,,,,,0,,,76,64
246240,note_on,0,0,2,,,,,,,,,,,,,,,0,,,70,54
246240,note_on,0,0,2,,,,,,,,,,,,,,,0,,,71,0
246240,note_on,445,0,2,,,,,,,,,,,,,,,0,,,75,0
246240,note_on,480,0,1,,,,,,,,,,,,,,,0,,,90,0
246240,note_on,0,0,1,,,,,,,,,,,,,,,0,,,78,0
246240,note_on,0,0,1,,,,,,,,,,,,,,,0,,,92,82
246240,note_on,0,0,1,,,,,,,,,,,,,,,0,,,80,69
246240,set_tempo,480,1,0,,,,,,,,,,,,412371,,,,,,,
246296,control_change,56,0,2,,,,,,,,,,,,,,,0,64,127,,
246360,note_on,0,0,2,,,,,,,,,,,,,,,0,,,70,0
246360,note_on,64,0,2,,,,,,,,,,,,,,,0,,,76,0
246600,note_on,240,0,2,,,,,,,,,,,,,,,0,,,66,60
246600,set_tempo,360,1,0,,,,,,,,,,,,394737,,,,,,,
246600,note_on,360,0,1,,,,,,,,,,,,,,,0,,,80,0
246600,note_on,0,0,1,,,,,,,,,,,,,,,0,,,92,0
246600,note_on,0,0,1,,,,,,,,,,,,,,,0,,,90,77
246600,note_on,0,0,1,,,,,,,,,,,,,,,0,,,78,65
246720,note_on,120,0,2,,,,,,,,,,,,,,,0,,,66,0
246720,note_on,0,0,2,,,,,,,,,,,,,,,0,,,54,58
246720,set_tempo,120,1,0,,,,,,,,,,,,413793,,,,,,,
246720,note_on,120,0,1,,,,,,,,,,,,,,,0,,,78,0
246720,note_on,0,0,1,,,,,,,,,,,,,,,0,,,90,0
246720,note_on,0,0,1,,,,,,,,,,,,,,,0,,,88,76
246720,note_on,0,0,1,,,,,,,,,,,,,,,0,,,76,64
247080,note_on,0,0,1,,,,,,,,,,,,,,,0,,,88,0
247080,note_on,360,0,1,,,,,,,,,,,,,,,0,,,76,0
247200,set_tempo,480,1,0,,,,,,,,,,,,422535,,,,,,,
247200,note_on,0,0,2,,,,,,,,,,,,,,,0,,,42,60
247200,note_on,480,0,2,,,,,,,,,,,,,,,0,,,54,0
247200,note_on,120,0,1,,,,,,,,,,,,,,,0,,,64,63
247200,note_on,0,0,1,,,,,,,,,,,,,,,0,,,70,75
247256,control_change,56,0,2,,,,,,,,,,,,,,,0,64,0,,
247680,note_on,0,0,1,,,,,,,,,,,,,,,0,,,71,76
247680,note_on,0,0,1,,,,,,,,,,,,,,,0,,,64,0
247680,note_on,0,0,1,,,,,,,,,,,,,,,0,,,63,64
247680,note_on,424,0,2,,,,,,,,,,,,,,,0,,,42,0
247680,note_on,0,0,2,,,,,,,,,,,,,,,0,,,47,68
247680,set_tempo,480,1,0,,,,,,,,,,,,412371,,,,,,,
247680,note_on,480,0,1,,,,,,,,,,,,,,,0,,,70,0
247765,control_change,85,0,2,,,,,,,,,,,,,,,0,64,127,,
247920,note_on,240,0,1,,,,,,,,,,,,,,,0,,,71,0
247920,note_on,0,0,1,,,,,,,,,,,,,,,0,,,63,0
247920,note_on,155,0,2,,,,,,,,,,,,,,,0,,,47,0
248040,note_on,120,0,2,,,,,,,,,,,,,,,0,,,54,59
248040,note_on,120,0,1,,,,,,,,,,,,,,,0,,,66,62
248040,set_tempo,360,1,0,,,,,,,,,,,,397351,,,,,,,
248040,note_on,0,0,1,,,,,,,,,,,,,,,0,,,73,73
248160,note_on,0,0,1,,,,,,,,,,,,,,,0,,,75,81
248160,note_on,0,0,1,,,,,,,,,,,,,,,0,,,66,0
248160,note_on,120,0,1,,,,,,,,,,,,,,,0,,,73,0
248160,set_tempo,120,1,0,,,,,,,,,,,,433213,,,,,,,
248160,note_on,120,0,2,,,,,,,,,,,,,,,0,,,54,0
248160,note_on,0,0,2,,,,,,,,,,,,,,,0,,,63,66
248160,note_on,0,0,2,,,,,,,,,,,,,,,0,,,59,56
248160,note_on,0,0,1,,,,,,,,,,,,,,,0,,,71,68
248640,note_on,480,0,1,,,,,,,,,,,,,,,0,,,75,0
248640,note_on,0,0,1,,,,,,,,,,,,,,,0,,,71,0
248640,note_on,0,0,1,,,,,,,,,,,,,,,0,,,75,65
248640,note_on,0,0,1,,,,,,,,,,,,,,,0,,,78,77
248640,set_tempo,480,1,0,,,,,,,,,,,,422535,,,,,,,
248640,note_on,480,0,2,,,,,,,,,,,,,,,0,,,59,0
248640,note_on,0,0,2,,,,,,,,,,,,,,,0,,,63,0
248675,control_change,35,0,2,,,,,,,,,,,,,,,0,64,0,,
249120,set_tempo,480,1,0,,,,,,,,,,,,413793,,,,,,,
249120,note_on,445,0,2,,,,,,,,,,,,,,,0,,,52,68
249120,note_on,480,0,1,,,,,,,,,,,,,,,0,,,78,0
249120,note_on,0,0,1,,,,,,,,,,,,,,,0,,,75,0
249120,note_on,0,0,1,,,,,,,,,,,,,,,0,,,88,81
249120,note_on,0,0,1,,,,,,,,,,,,,,,0,,,85,69
249205,control_change,85,0,2,,,,,,,,,,,,,,,0,64,127,,
249240,note_on,35,0,2,,,,,,,,,,,,,,,0,,,52,0
249240,note_on,0,0,1,,,,,,,,,,,,,,,0,,,85,0
249240,note_on,120,0,1,,,,,,,,,,,,,,,0,,,88,0
249480,note_on,240,0,2,,,,,,,,,,,,,,,0,,,73,62
249480,note_on,0,0,1,,,,,,,,,,,,,,,0,,,82,73
249480,note_on,240,0,1,,,,,,,,,,,,,,,0,,,78,62
249480,set_tempo,360,1,0,,,,,,,,,,,,380952,,,,,,,
249600,set_tempo,120,1,0,,,,,,,,,,,,405405,,,,,,,
249600,note_on,120,0,2,,,,,,,,,,,,,,,0,,,73,0
249600,note_on,0,0,1,,,,,,,,,,,,,,,0,,,80,73
249600,note_on,0,0,1,,,,,,,,,,,,,,,0,,,76,66
249600,note_on,0,0,2,,,,,,,,,,,,,,,0,,,64,56
249600,note_on,120,0,1,,,,,,,,,,,,,,,0,,,82,0
249600,note_on,0,0,2,,,,,,,,,,,,,,,0,,,68,66
249600,note_on,0,0,1,,,,,,,,,,,,,,,0,,,78,0
249960,note_on,0,0,1,,,,,,,,,,,,,,,0,,,76,0
249960,note_on,360,0,1,,,,,,,,,,,,,,,0,,,80,0
249960,note_on,0,0,1,,,,,,,,,,,,,,,0,,,78,62
249960,note_on,0,0,1,,,,,,,,,,,,,,,0,,,82,73
249960,set_tempo,360,1,0,,,,,,,,,,,,389610,,,,,,,
249960,note_on,0,0,2,,,,,,,,,,,,,,,0,,,73,62
249960,note_on,0,0,2,,,,,,,,,,,,,,,0,,,64,0
249960,note_on,360,0,2,,,,,,,,,,,,,,,0,,,68,0
250080,note_on,120,0,2,,,,,,,,,,,,,,,0,,,73,0
250080,note_on,120,0,1,,,,,,,,,,,,,,,0,,,82,0
250080,note_on,0,0,1,,,,,,,,,,,,,,,0,,,78,0
250080,set_tempo,120,1,0,,,,,,,,,,,,427046,,,,,,,
250080,note_on,0,0,2,,,,,,,,,,,,,,,0,,,68,65
250080,note_on,0,0,2,,,,,,,,,,,,,,,0,,,64,55
250080,note_on,0,0,1,,,,,,,,,,,,,,,0,,,76,65
250080,note_on,0,0,1,,,,,,,,,,,,,,,0,,,80,77
250115,control_change,35,0,2,,,,,,,,,,,,,,,0,64,0,,
250560,note_on,0,0,1,,,,,,,,,,,,,,,0,,,76,0
250560,note_on,480,0,1,,,,,,,,,,,,,,,0,,,80,0
250560,set_tempo,480,1,0,,,,,,,,,,,,415225,,,,,,,
250560,note_on,445,0,2,,,,,,,,,,,,,,,0,,,68,0
250560,note_on,0,0,2,,,,,,,,,,,,,,,0,,,64,0
250560,note_on,0,0,2,,,,,,,,,,,,,,,0,,,42,68
250560,note_on,0,0,1,,,,,,,,,,,,,,,0,,,83,69
250560,note_on,0,0,1,,,,,,,,,,,,,,,0,,,87,81
250645,control_change,85,0,2,,,,,,,,,,,,,,,0,64,127,,
250680,note_on,0,0,1,,,,,,,,,,,,,,,0,,,83,0
250680,note_on,35,0,2,,,,,,,,,,,,,,,0,,,42,0
250680,note_on,120,0,1,,,,,,,,,,,,,,,0,,,87,0
250920,note_on,240,0,1,,,,,,,,,,,,,,,0,,,76,62
250920,note_on,0,0,1,,,,,,,,,,,,,,,0,,,80,73
250920,set_tempo,360,1,0,,,,,,,,,,,,382166,,,,,,,
250920,note_on,240,0,2,,,,,,,,,,,,,,,0,,,71,62
251040,note_on,0,0,2,,,,,,,,,,,,,,,0,,,66,66
251040,set_tempo,120,1,0,,,,,,,,,,,,408163,,,,,,,
251040,note_on,0,0,2,,,,,,,,,,,,,,,0,,,63,56
251040,note_on,120,0,2,,,,,,,,,,,,,,,0,,,71,0
251040,note_on,0,0,1,,,,,,,,,,,,,,,0,,,76,0
251040,note_on,0,0,1,,,,,,,,,,,,,,,0,,,75,66
251040,note_on,0,0,1,,,,,,,,,,,,,,,0,,,78,73
251040,note_on,120,0,1,,,,,,,,,,,,,,,0,,,80,0
251400,note_on,360,0,2,,,,,,,,,,,,,,,0,,,66,0
251400,note_on,0,0,2,,,,,,,,,,,,,,,0,,,63,0
251400,note_on,0,0,2,,,,,,,,,,,,,,,0,,,71,62
251400,set_tempo,360,1,0,,,,,,,,,,,,390879,,,,,,,
251400,note_on,0,0,1,,,,,,,,,,,,,,,0,,,80,73
251400,note_on,0,0,1,,,,,,,,,,,,,,,0,,,76,62
251400,note_on,0,0,1,,,,,,,,,,,,,,,0,,,75,0
251400,note_on,360,0,1,,,,,,,,,,,,,,,0,,,78,0
251520,note_on,0,0,1,,,,,,,,,,,,,,,0,,,76,0
251520,note_on,0,0,1,,,,,,,,,,,,,,,0,,,75,65
251520,note_on,0,0,1,,,,,,,,,,,,,,,0,,,78,77
251520,set_tempo,120,1,0,,,,,,,,,,,,424028,,,,,,,
251520,note_on,0,0,2,,,,,,,,,,,,,,,0,,,66,65
251520,note_on,0,0,2,,,,,,,,,,,,,,,0,,,63,55
251520,note_on,120,0,2,,,,,,,,,,,,,,,0,,,71,0
251520,note_on,120,0,1,,,,,,,,,,,,,,,0,,,80,0
251555,control_change,35,0,2,,,,,,,,,,,,,,,0,64,0,,
252000,note_on,0,0,2,,,,,,,,,,,,,,,0,,,63,0
252000,note_on,445,0,2,,,,,,,,,,,,,,,0,,,66,0
252000,note_on,0,0,2,,,,,,,,,,,,,,,0,,,42,68
252000,set_tempo,480,1,0,,,,,,,,,,,,413793,,,,,,,
252000,note_on,480,0,1,,,,,,,,,,,,,,,0,,,78,0
252000,note_on,0,0,1,,,,,,,,,,,,,,,0,,,75,0
252000,note_on,0,0,1,,,,,,,,,,,,,,,0,,,82,69
252000,note_on,0,0,1,,,,,,,,,,,,,,,0,,,85,81
252085,control_change,85,0,2,,,,,,,,,,,,,,,0,64,127,,
252120,note_on,120,0,1,,,,,,,,,,,,,,,0,,,85,0
252120,note_on,0,0,1,,,,,,,,,,,,,,,0,,,82,0
252120,note_on,35,0,2,,,,,,,,,,,,,,,0,,,42,0
252360,note_on,240,0,2,,,,,,,,,,,,,,,0,,,70,62
252360,note_on,0,0,1,,,,,,,,,,,,,,,0,,,78,73
252360,set_tempo,360,1,0,,,,,,,,,,,,397351,,,,,,,
252360,note_on,240,0,1,,,,,,,,,,,,,,,0,,,75,62
252480,note_on,0,0,1,,,,,,,,,,,,,,,0,,,76,73
252480,set_tempo,120,1,0,,,,,,,,,,,,421053,,,,,,,
252480,note_on,120,0,2,,,,,,,,,,,,,,,0,,,70,0
252480,note_on,0,0,2,,,,,,,,,,,,,,,0,,,61,56
252480,note_on,0,0,2,,,,,,,,,,,,,,,0,,,64,66
252480,note_on,0,0,1,,,,,,,,,,,,,,,0,,,75,0
252480,note_on,120,0,1,,,,,,,,,,,,,,,0,,,78,0
252480,note_on,0,0,1,,,,,,,,,,,,,,,0,,,73,66
252840,note_on,0,0,1,,,,,,,,,,,,,,,0,,,75,62
252840,note_on,360,0,2,,,,,,,,,,,,,,,0,,,64,0
252840,note_on,0,0,2,,,,,,,,,,,,,,,0,,,61,0
252840,note_on,0,0,2,,,,,,,,,,,,,,,0,,,70,62
252840,note_on,0,0,1,,,,,,,,,,,,,,,0,,,78,73
252840,note_on,0,0,1,,,,,,,,,,,,,,,0,,,73,0
252840,set_tempo,360,1,0,,,,,,,,,,,,400000,,,,,,,
252840,note_on,360,0,1,,,,,,,,,,,,,,,0,,,76,0
252960,note_on,0,0,2,,,,,,,,,,,,,,,0,,,64,65
252960,set_tempo,120,1,0,,,,,,,,,,,,437956,,,,,,,
252960,note_on,120,0,2,,,,,,,,,,,,,,,0,,,70,0
252960,note_on,0,0,2,,,,,,,,,,,,,,,0,,,61,55
252960,note_on,120,0,1,,,,,,,,,,,,,,,0,,,78,0
252960,note_on,0,0,1,,,,,,,,,,,,,,,0,,,75,0
252960,note_on,0,0,1,,,,,,,,,,,,,,,0,,,73,65
252960,note_on,0,0,1,,,,,,,,,,,,,,,0,,,76,77
252995,control_change,35,0,2,,,,,,,,,,,,,,,0,64,0,,
253440,note_on,0,0,2,,,,,,,,,,,,,,,0,,,61,0
253440,note_on,445,0,2,,,,,,,,,,,,,,,0,,,64,0
253440,note_on,0,0,1,,,,,,,,,,,,,,,0,,,73,0
253440,set_tempo,480,1,0,,,,,,,,,,,,451128,,,,,,,
253440,note_on,480,0,1,,,,,,,,,,,,,,,0,,,76,0
253800,note_on,360,0,2,,,,,,,,,,,,,,,0,,,56,41
253800,set_tempo,360,1,0,,,,,,,,,,,,396040,,,,,,,
253920,note_on,0,0,2,,,,,,,,,,,,,,,0,,,54,47
253920,set_tempo,120,1,0,,,,,,,,,,,,442804,,,,,,,
253920,note_on,120,0,2,,,,,,,,,,,,,,,0,,,56,0
254280,note_on,360,0,2,,,,,,,,,,,,,,,0,,,54,0
254280,set_tempo,360,1,0,,,,,,,,,,,,398671,,,,,,,
254280,note_on,0,0,2,,,,,,,,,,,,,,,0,,,56,41
254400,set_tempo,120,1,0,,,,,,,,,,,,456274,,,,,,,
254400,note_on,120,0,2,,,,,,,,,,,,,,,0,,,56,0
254400,note_on,0,0,2,,,,,,,,,,,,,,,0,,,54,46
254880,set_tempo,480,1,0,,,,,,,,,,,,412371,,,,,,,
254880,note_on,480,0,2,,,,,,,,,,,,,,,0,,,54,0
254880,note_on,0,0,2,,,,,,,,,,,,,,,0,,,56,44
255240,note_on,0,0,2,,,,,,,,,,,,,,,0,,,54,37
255240,set_tempo,360,1,0,,,,,,,,,,,,394737,,,,,,,
255240,note_on,360,0,2,,,,,,,,,,,,,,,0,,,56,0
255360,note_on,120,0,2,,,,,,,,,,,,,,,0,,,54,0
255360,set_tempo,120,1,0,,,,,,,,,,,,431655,,,,,,,
255360,note_on,0,0,2,,,,,,,,,,,,,,,0,,,52,44
255840,note_on,0,0,2,,,,,,,,,,,,,,,0,,,42,38
255840,note_on,480,0,2,,,,,,,,,,,,,,,0,,,52,0
255840,set_tempo,480,1,0,,,,,,,,,,,,422535,,,,,,,
256320,set_tempo,480,1,0,,,,,,,,,,,,413793,,,,,,,
256320,note_on,0,0,2,,,,,,,,,,,,,,,0,,,47,44
256320,note_on,480,0,2,,,,,,,,,,,,,,,0,,,42,0
256680,note_on,0,0,2,,,,,,,,,,,,,,,0,,,49,41
256680,set_tempo,360,1,0,,,,,,,,,,,,393443,,,,,,,
256680,note_on,360,0,2,,,,,,,,,,,,,,,0,,,47,0
256800,note_on,0,0,2,,,,,,,,,,,,,,,0,,,51,45
256800,note_on,120,0,2,,,,,,,,,,,,,,,0,,,49,0
256800,set_tempo,120,1,0,,,,,,,,,,,,422535,,,,,,,
256820,set_tempo,20,1,0,,,,,,,,,,,,408163,,,,,,,
257280,set_tempo,460,1,0,,,,,,,,,,,,412371,,,,,,,
257280,note_on,0,0,2,,,,,,,,,,,,,,,0,,,54,44
257280,note_on,480,0,2,,,,,,,,,,,,,,,0,,,51,0
257760,set_tempo,480,1,0,,,,,,,,,,,,419580,,,,,,,
257760,note_on,480,0,2,,,,,,,,,,,,,,,0,,,54,0
257760,note_on,0,0,2,,,,,,,,,,,,,,,0,,,56,46
258120,note_on,360,0,2,,,,,,,,,,,,,,,0,,,56,0
258120,note_on,0,0,2,,,,,,,,,,,,,,,0,,,54,42
258120,set_tempo,360,1,0,,,,,,,,,,,,394737,,,,,,,
258240,set_tempo,120,1,0,,,,,,,,,,,,424028,,,,,,,
258240,note_on,0,0,2,,,,,,,,,,,,,,,0,,,52,45
258240,note_on,120,0,2,,,,,,,,,,,,,,,0,,,54,0
258720,set_tempo,480,1,0,,,,,,,,,,,,415225,,,,,,,
258720,note_on,0,0,2,,,,,,,,,,,,,,,0,,,42,39
258720,note_on,480,0,2,,,,,,,,,,,,,,,0,,,52,0
259200,note_on,0,0,2,,,,,,,,,,,,,,,0,,,47,44
259200,note_on,480,0,2,,,,,,,,,,,,,,,0,,,42,0
259200,set_tempo,480,1,0,,,,,,,,,,,,413793,,,,,,,
259560,note_on,0,0,2,,,,,,,,,,,,,,,0,,,49,41
259560,set_tempo,360,1,0,,,,,,,,,,,,393443,,,,,,,
259560,note_on,360,0,2,,,,,,,,,,,,,,,0,,,47,0
259680,note_on,120,0,2,,,,,,,,,,,,,,,0,,,49,0
259680,note_on,0,0,2,,,,,,,,,,,,,,,0,,,51,45
259680,set_tempo,120,1,0,,,,,,,,,,,,422535,,,,,,,
259700,set_tempo,20,1,0,,,,,,,,,,,,408163,,,,,,,
260160,note_on,480,0,2,,,,,,,,,,,,,,,0,,,51,0
260160,note_on,0,0,2,,,,,,,,,,,,,,,0,,,54,44
260160,set_tempo,460,1,0,,,,,,,,,,,,412371,,,,,,,
260640,note_on,480,0,2,,,,,,,,,,,,,,,0,,,54,0
260640,set_tempo,480,1,0,,,,,,,,,,,,413793,,,,,,,
260640,note_on,0,0,2,,,,,,,,,,,,,,,0,,,64,49
261000,set_tempo,360,1,0,,,,,,,,,,,,380952,,,,,,,
261000,note_on,360,0,2,,,,,,,,,,,,,,,0,,,58,41
261120,set_tempo,120,1,0,,,,,,,,,,,,405405,,,,,,,
261120,note_on,120,0,2,,,,,,,,,,,,,,,0,,,58,0
261120,note_on,0,0,2,,,,,,,,,,,,,,,0,,,56,44
261480,set_tempo,360,1,0,,,,,,,,,,,,389610,,,,,,,
261480,note_on,0,0,2,,,,,,,,,,,,,,,0,,,58,41
261480,note_on,360,0,2,,,,,,,,,,,,,,,0,,,56,0
261600,note_on,0,0,2,,,,,,,,,,,,,,,0,,,56,45
261600,note_on,120,0,2,,,,,,,,,,,,,,,0,,,58,0
261600,set_tempo,120,1,0,,,,,,,,,,,,427046,,,,,,,
262080,set_tempo,480,1,0,,,,,,,,,,,,413793,,,,,,,
262080,note_on,480,0,2,,,,,,,,,,,,,,,0,,,56,0
262080,note_on,0,0,2,,,,,,,,,,,,,,,0,,,64,0
262080,note_on,0,0,2,,,,,,,,,,,,,,,0,,,63,49
262440,set_tempo,360,1,0,,,,,,,,,,,,380952,,,,,,,
262440,note_on,360,0,2,,,,,,,,,,,,,,,0,,,56,41
262560,set_tempo,120,1,0,,,,,,,,,,,,405405,,,,,,,
262560,note_on,120,0,2,,,,,,,,,,,,,,,0,,,56,0
262560,note_on,0,0,2,,,,,,,,,,,,,,,0,,,54,44
262920,note_on,360,0,2,,,,,,,,,,,,,,,0,,,54,0
262920,set_tempo,360,1,0,,,,,,,,,,,,389610,,,,,,,
262920,note_on,0,0,2,,,,,,,,,,,,,,,0,,,56,41
263040,note_on,0,0,2,,,,,,,,,,,,,,,0,,,54,45
263040,set_tempo,120,1,0,,,,,,,,,,,,427046,,,,,,,
263040,note_on,120,0,2,,,,,,,,,,,,,,,0,,,56,0
263520,note_on,480,0,2,,,,,,,,,,,,,,,0,,,54,0
263520,note_on,0,0,2,,,,,,,,,,,,,,,0,,,63,0
263520,note_on,0,0,2,,,,,,,,,,,,,,,0,,,61,49
263520,set_tempo,480,1,0,,,,,,,,,,,,413793,,,,,,,
263880,note_on,360,0,2,,,,,,,,,,,,,,,0,,,54,41
263880,set_tempo,360,1,0,,,,,,,,,,,,380952,,,,,,,
264000,note_on,120,0,2,,,,,,,,,,,,,,,0,,,54,0
264000,note_on,0,0,2,,,,,,,,,,,,,,,0,,,52,44
264000,set_tempo,120,1,0,,,,,,,,,,,,405405,,,,,,,
264360,set_tempo,360,1,0,,,,,,,,,,,,389610,,,,,,,
264360,note_on,360,0,2,,,,,,,,,,,,,,,0,,,52,0
264360,note_on,0,0,2,,,,,,,,,,,,,,,0,,,54,41
264480,note_on,120,0,2,,,,,,,,,,,,,,,0,,,54,0
264480,set_tempo,120,1,0,,,,,,,,,,,,427046,,,,,,,
264480,note_on,0,0,2,,,,,,,,,,,,,,,0,,,52,45
264960,note_on,480,0,2,,,,,,,,,,,,,,,0,,,52,0
264960,note_on,0,0,2,,,,,,,,,,,,,,,0,,,61,0
264960,note_on,0,0,2,,,,,,,,,,,,,,,0,,,51,44
264960,set_tempo,480,1,0,,,,,,,,,,,,456274,,,,,,,
265320,set_tempo,360,1,0,,,,,,,,,,,,526316,,,,,,,
265320,note_on,360,0,2,,,,,,,,,,,,,,,0,,,51,0
265320,note_on,0,0,2,,,,,,,,,,,,,,,0,,,52,41
265440,note_on,0,0,2,,,,,,,,,,,,,,,0,,,56,45
265440,set_tempo,120,1,0,,,,,,,,,,,,487805,,,,,,,
265440,note_on,120,0,2,,,,,,,,,,,,,,,0,,,52,0
265920,note_on,0,0,2,,,,,,,,,,,,,,,0,,,54,44
265920,note_on,480,0,2,,,,,,,,,,,,,,,0,,,56,0
266400,note_on,480,0,2,,,,,,,,,,,,,,,0,,,54,0
266400,note_on,0,0,2,,,,,,,,,,,,,,,0,,,56,46
266760,note_on,0,0,2,,,,,,,,,,,,,,,0,,,54,42
266760,set_tempo,1320,1,0,,,,,,,,,,,,394737,,,,,,,
266760,note_on,360,0,2,,,,,,,,,,,,,,,0,,,56,0
266880,note_on,120,0,2,,,,,,,,,,,,,,,0,,,54,0
266880,note_on,0,0,2,,,,,,,,,,,,,,,0,,,52,45
266880,set_tempo,120,1,0,,,,,,,,,,,,424028,,,,,,,
267360,set_tempo,480,1,0,,,,,,,,,,,,415225,,,,,,,
267360,note_on,480,0,2,,,,,,,,,,,,,,,0,,,52,0
267360,note_on,0,0,2,,,,,,,,,,,,,,,0,,,42,39
267840,note_on,480,0,2,,,,,,,,,,,,,,,0,,,42,0
267840,note_on,0,0,2,,,,,,,,,,,,,,,0,,,47,44
267840,set_tempo,480,1,0,,,,,,,,,,,,413793,,,,,,,
268200,note_on,360,0,2,,,,,,,,,,,,,,,0,,,47,0
268200,note_on,0,0,2,,,,,,,,,,,,,,,0,,,49,41
268200,set_tempo,360,1,0,,,,,,,,,,,,393443,,,,,,,
268320,note_on,120,0,2,,,,,,,,,,,,,,,0,,,49,0
268320,note_on,0,0,2,,,,,,,,,,,,,,,0,,,51,45
268320,set_tempo,120,1,0,,,,,,,,,,,,422535,,,,,,,
268340,set_tempo,20,1,0,,,,,,,,,,,,408163,,,,,,,
268800,note_on,0,0,2,,,,,,,,,,,,,,,0,,,54,44
268800,set_tempo,460,1,0,,,,,,,,,,,,444444,,,,,,,
268800,note_on,480,0,2,,,,,,,,,,,,,,,0,,,51,0
269280,note_on,0,0,2,,,,,,,,,,,,,,,0,,,55,43
269280,note_on,480,0,2,,,,,,,,,,,,,,,0,,,54,0
269280,set_tempo,480,1,0,,,,,,,,,,,,489796,,,,,,,
269640,set_tempo,360,1,0,,,,,,,,,,,,419580,,,,,,,
269640,note_on,0,0,2,,,,,,,,,,,,,,,0,,,54,39
269640,note_on,360,0,2,,,,,,,,,,,,,,,0,,,55,0
269760,note_on,0,0,2,,,,,,,,,,,,,,,0,,,52,42
269760,set_tempo,120,1,0,,,,,,,,,,,,437956,,,,,,,
269760,note_on,120,0,2,,,,,,,,,,,,,,,0,,,54,0
270240,set_tempo,480,1,0,,,,,,,,,,,,422535,,,,,,,
270240,note_on,480,0,2,,,,,,,,,,,,,,,0,,,52,0
270240,note_on,0,0,2,,,,,,,,,,,,,,,0,,,42,36
270720,note_on,480,0,2,,,,,,,,,,,,,,,0,,,42,0
270720,set_tempo,480,1,0,,,,,,,,,,,,454545,,,,,,,
270720,note_on,0,0,2,,,,,,,,,,,,,,,0,,,47,41
271080,note_on,0,0,2,,,,,,,,,,,,,,,0,,,49,38
271080,note_on,360,0,2,,,,,,,,,,,,,,,0,,,47,0
271080,set_tempo,360,1,0,,,,,,,,,,,,422535,,,,,,,
271200,note_on,120,0,2,,,,,,,,,,,,,,,0,,,49,0
271200,note_on,0,0,2,,,,,,,,,,,,,,,0,,,50,41
271200,set_tempo,120,1,0,,,,,,,,,,,,444444,,,,,,,
271680,set_tempo,480,1,0,,,,,,,,,,,,444444,,,,,,,
271680,note_on,480,0,2,,,,,,,,,,,,,,,0,,,50,0
271680,note_on,0,0,2,,,,,,,,,,,,,,,0,,,54,40
272160,set_tempo,480,1,0,,,,,,,,,,,,456274,,,,,,,
272160,note_on,480,0,2,,,,,,,,,,,,,,,0,,,54,0
272160,note_on,0,0,2,,,,,,,,,,,,,,,0,,,55,42
272400,note_on,240,0,2,,,,,,,,,,,,,,,0,,,55,0
272400,note_on,0,0,2,,,,,,,,,,,,,,,0,,,54,38
272640,note_on,0,0,2,,,,,,,,,,,,,,,0,,,52,41
272640,set_tempo,480,1,0,,,,,,,,,,,,437956,,,,,,,
272640,note_on,240,0,2,,,,,,,,,,,,,,,0,,,54,0
273120,note_on,0,0,2,,,,,,,,,,,,,,,0,,,43,35
273120,note_on,480,0,2,,,,,,,,,,,,,,,0,,,52,0
273120,set_tempo,480,1,0,,,,,,,,,,,,466926,,,,,,,
273600,note_on,0,0,2,,,,,,,,,,,,,,,0,,,55,41
273600,note_on,480,0,2,,,,,,,,,,,,,,,0,,,43,0
273600,set_tempo,480,1,0,,,,,,,,,,,,456274,,,,,,,
273840,note_on,0,0,2,,,,,,,,,,,,,,,0,,,54,37
273840,note_on,240,0,2,,,,,,,,,,,,,,,0,,,55,0
274080,note_on,0,0,2,,,,,,,,,,,,,,,0,,,52,40
274080,note_on,240,0,2,,,,,,,,,,,,,,,0,,,54,0
274080,set_tempo,480,1,0,,,,,,,,,,,,437956,,,,,,,
274560,set_tempo,480,1,0,,,,,,,,,,,,476190,,,,,,,
274560,note_on,480,0,2,,,,,,,,,,,,,,,0,,,52,0
274560,note_on,0,0,2,,,,,,,,,,,,,,,0,,,44,34
275040,note_on,480,0,2,,,,,,,,,,,,,,,0,,,44,0
275040,set_tempo,480,1,0,,,,,,,,,,,,466926,,,,,,,
275040,note_on,0,0,2,,,,,,,,,,,,,,,0,,,55,40
275400,note_on,360,0,2,,,,,,,,,,,,,,,0,,,55,0
275400,note_on,0,0,2,,,,,,,,,,,,,,,0,,,54,36
275520,set_tempo,480,1,0,,,,,,,,,,,,454545,,,,,,,
275520,note_on,120,0,2,,,,,,,,,,,,,,,0,,,54,0
275520,note_on,0,0,2,,,,,,,,,,,,,,,0,,,52,39
276000,set_tempo,480,1,0,,,,,,,,,,,,483871,,,,,,,
276000,note_on,480,0,2,,,,,,,,,,,,,,,0,,,52,0
276000,note_on,0,0,2,,,,,,,,,,,,,,,0,,,45,34
276480,set_tempo,480,1,0,,,,,,,,,,,,491803,,,,,,,
276480,note_on,0,0,2,,,,,,,,,,,,,,,0,,,55,40
276480,note_on,480,0,2,,,,,,,,,,,,,,,0,,,45,0
276840,note_on,0,0,2,,,,,,,,,,,,,,,0,,,54,36
276840,note_on,360,0,2,,,,,,,,,,,,,,,0,,,55,0
276960,note_on,0,0,2,,,,,,,,,,,,,,,0,,,52,39
276960,note_on,120,0,2,,,,,,,,,,,,,,,0,,,54,0
276960,set_tempo,480,1,0,,,,,,,,,,,,474308,,,,,,,
277440,set_tempo,480,1,0,,,,,,,,,,,,521739,,,,,,,
277440,note_on,0,0,2,,,,,,,,,,,,,,,0,,,46,33
277440,note_on,480,0,2,,,,,,,,,,,,,,,0,,,52,0
277920,set_tempo,0,1,0,,,,,,,,,,,,504202,,,,,,,
277920,key_signature,480,1,0,,,,,,,,,,,D,,,,,,,,
277920,note_on,0,0,2,,,,,,,,,,,,,,,0,,,47,42
277920,note_on,480,0,2,,,,,,,,,,,,,,,0,,,46,0
277920,note_on,24480,0,1,,,,,,,,,,,,,,,0,,,78,46
278008,control_change,88,0,2,,,,,,,,,,,,,,,0,64,127,,
278160,note_on,0,0,1,,,,,,,,,,,,,,,0,,,83,42
278160,note_on,240,0,1,,,,,,,,,,,,,,,0,,,78,0
278400,note_on,0,0,2,,,,,,,,,,,,,,,0,,,64,34
278400,note_on,392,0,2,,,,,,,,,,,,,,,0,,,47,0
278400,set_tempo,480,1,0,,,,,,,,,,,,552995,,,,,,,
278400,note_on,240,0,1,,,,,,,,,,,,,,,0,,,83,0
278400,note_on,0,0,1,,,,,,,,,,,,,,,0,,,79,42
278400,note_on,0,0,2,,,,,,,,,,,,,,,0,,,59,28
278400,note_on,0,0,2,,,,,,,,,,,,,,,0,,,55,28
278460,note_on,60,0,1,,,,,,,,,,,,,,,0,,,79,0
278460,note_on,0,0,1,,,,,,,,,,,,,,,0,,,81,42
278520,note_on,60,0,1,,,,,,,,,,,,,,,0,,,81,0
278520,note_on,0,0,1,,,,,,,,,,,,,,,0,,,79,48
278520,set_tempo,120,1,0,,,,,,,,,,,,491803,,,,,,,
278880,note_on,0,0,2,,,,,,,,,,,,,,,0,,,55,28
278880,note_on,0,0,2,,,,,,,,,,,,,,,0,,,59,0
278880,note_on,0,0,2,,,,,,,,,,,,,,,0,,,64,0
278880,note_on,0,0,2,,,,,,,,,,,,,,,0,,,64,33
278880,note_on,0,0,2,,,,,,,,,,,,,,,0,,,59,28
278880,set_tempo,360,1,0,,,,,,,,,,,,478088,,,,,,,
278880,note_on,360,0,1,,,,,,,,,,,,,,,0,,,79,0
278880,note_on,0,0,1,,,,,,,,,,,,,,,0,,,78,45
278880,note_on,480,0,2,,,,,,,,,,,,,,,0,,,55,0
279120,note_on,0,0,1,,,,,,,,,,,,,,,0,,,76,42
279120,note_on,240,0,1,,,,,,,,,,,,,,,0,,,78,0
279120,set_tempo,240,1,0,,,,,,,,,,,,500000,,,,,,,
279360,set_tempo,240,1,0,,,,,,,,,,,,436364,,,,,,,
279360,note_on,0,0,1,,,,,,,,,,,,,,,0,,,78,46
279360,note_on,240,0,1,,,,,,,,,,,,,,,0,,,76,0
279360,control_change,0,0,2,,,,,,,,,,,,,,,0,64,0,,
279360,note_on,0,0,2,,,,,,,,,,,,,,,0,,,47,42
279360,note_on,0,0,2,,,,,,,,,,,,,,,0,,,64,0
279360,note_on,0,0,2,,,,,,,,,,,,,,,0,,,59,0
279360,note_on,480,0,2,,,,,,,,,,,,,,,0,,,55,0
279500,set_tempo,140,1,0,,,,,,,,,,,,600000,,,,,,,
279558,control_change,198,0,2,,,,,,,,,,,,,,,0,64,127,,
279600,note_on,240,0,1,,,,,,,,,,,,,,,0,,,78,0
279600,set_tempo,100,1,0,,,,,,,,,,,,500000,,,,,,,
279600,note_on,0,0,1,,,,,,,,,,,,,,,0,,,71,42
279840,note_on,0,0,2,,,,,,,,,,,,,,,0,,,62,26
279840,note_on,282,0,2,,,,,,,,,,,,,,,0,,,47,0
279840,note_on,0,0,2,,,,,,,,,,,,,,,0,,,54,22
279840,note_on,0,0,2,,,,,,,,,,,,,,,0,,,59,22
280320,note_on,0,0,2,,,,,,,,,,,,,,,0,,,59,0
280320,note_on,0,0,2,,,,,,,,,,,,,,,0,,,62,26
280320,note_on,480,0,2,,,,,,,,,,,,,,,0,,,54,0
280320,note_on,0,0,2,,,,,,,,,,,,,,,0,,,62,0
280320,note_on,0,0,2,,,,,,,,,,,,,,,0,,,54,22
280320,note_on,0,0,2,,,,,,,,,,,,,,,0,,,59,22
280800,note_on,480,0,2,,,,,,,,,,,,,,,0,,,54,0
280800,note_on,0,0,2,,,,,,,,,,,,,,,0,,,59,0
280800,note_on,0,0,2,,,,,,,,,,,,,,,0,,,62,0
280800,note_on,0,0,2,,,,,,,,,,,,,,,0,,,47,42
280800,control_change,0,0,2,,,,,,,,,,,,,,,0,64,0,,
280800,note_on,0,0,1,,,,,,,,,,,,,,,0,,,73,49
280800,note_on,1200,0,1,,,,,,,,,,,,,,,0,,,71,0
280800,set_tempo,1200,1,0,,,,,,,,,,,,500000,,,,,,,
280846,control_change,46,0,2,,,,,,,,,,,,,,,0,64,127,,
281040,note_on,240,0,1,,,,,,,,,,,,,,,0,,,73,0
281040,note_on,0,0,1,,,,,,,,,,,,,,,0,,,76,42
281280,set_tempo,480,1,0,,,,,,,,,,,,560748,,,,,,,
281280,note_on,0,0,2,,,,,,,,,,,,,,,0,,,58,28
281280,note_on,0,0,2,,,,,,,,,,,,,,,0,,,54,28
281280,note_on,0,0,1,,,,,,,,,,,,,,,0,,,74,42
281280,note_on,240,0,1,,,,,,,,,,,,,,,0,,,76,0
281280,note_on,0,0,2,,,,,,,,,,,,,,,0,,,64,34
281280,note_on,434,0,2,,,,,,,,,,,,,,,0,,,47,0
281340,note_on,0,0,1,,,,,,,,,,,,,,,0,,,76,42
281340,note_on,60,0,1,,,,,,,,,,,,,,,0,,,74,0
281400,set_tempo,120,1,0,,,,,,,,,,,,487805,,,,,,,
281400,note_on,0,0,1,,,,,,,,,,,,,,,0,,,74,48
281400,note_on,60,0,1,,,,,,,,,,,,,,,0,,,76,0
281760,note_on,360,0,1,,,,,,,,,,,,,,,0,,,74,0
281760,note_on,480,0,2,,,,,,,,,,,,,,,0,,,54,0
281760,note_on,0,0,2,,,,,,,,,,,,,,,0,,,64,0
281760,set_tempo,360,1,0,,,,,,,,,,,,478088,,,,,,,
281760,note_on,0,0,1,,,,,,,,,,,,,,,0,,,73,45
281760,note_on,0,0,2,,,,,,,,,,,,,,,0,,,64,33
281760,note_on,0,0,2,,,,,,,,,,,,,,,0,,,58,0
281760,note_on,0,0,2,,,,,,,,,,,,,,,0,,,54,28
281760,note_on,0,0,2,,,,,,,,,,,,,,,0,,,58,28
282000,set_tempo,240,1,0,,,,,,,,,,,,500000,,,,,,,
282240,note_on,0,0,1,,,,,,,,,,,,,,,0,,,74,46
282240,note_on,480,0,1,,,,,,,,,,,,,,,0,,,73,0
282240,control_change,0,0,2,,,,,,,,,,,,,,,0,64,0,,
282240,note_on,0,0,2,,,,,,,,,,,,,,,0,,,47,42
282240,note_on,0,0,2,,,,,,,,,,,,,,,0,,,64,0
282240,note_on,0,0,2,,,,,,,,,,,,,,,0,,,58,0
282240,note_on,480,0,2,,,,,,,,,,,,,,,0,,,54,0
282240,set_tempo,240,1,0,,,,,,,,,,,,436364,,,,,,,
282380,set_tempo,140,1,0,,,,,,,,,,,,600000,,,,,,,
282438,control_change,198,0,2,,,,,,,,,,,,,,,0,64,127,,
282480,set_tempo,100,1,0,,,,,,,,,,,,500000,,,,,,,
282480,note_on,0,0,1,,,,,,,,,,,,,,,0,,,71,42
282480,note_on,240,0,1,,,,,,,,,,,,,,,0,,,74,0
282720,note_on,0,0,2,,,,,,,,,,,,,,,0,,,54,22
282720,note_on,0,0,2,,,,,,,,,,,,,,,0,,,59,22
282720,note_on,0,0,2,,,,,,,,,,,,,,,0,,,62,26
282720,note_on,282,0,2,,,,,,,,,,,,,,,0,,,47,0
283200,note_on,0,0,2,,,,,,,,,,,,,,,0,,,54,22
283200,note_on,0,0,2,,,,,,,,,,,,,,,0,,,59,22
283200,note_on,0,0,2,,,,,,,,,,,,,,,0,,,62,26
283200,note_on,0,0,2,,,,,,,,,,,,,,,0,,,59,0
283200,note_on,480,0,2,,,,,,,,,,,,,,,0,,,54,0
283200,note_on,0,0,2,,,,,,,,,,,,,,,0,,,62,0
283680,note_on,0,0,2,,,,,,,,,,,,,,,0,,,37,47
283680,set_tempo,1200,1,0,,,,,,,,,,,,500000,,,,,,,
283680,control_change,0,0,2,,,,,,,,,,,,,,,0,64,0,,
283680,note_on,0,0,2,,,,,,,,,,,,,,,0,,,62,0
283680,note_on,0,0,2,,,,,,,,,,,,,,,0,,,59,0
283680,note_on,480,0,2,,,,,,,,,,,,,,,0,,,54,0
283680,note_on,0,0,1,,,,,,,,,,,,,,,0,,,73,55
283680,note_on,1200,0,1,,,,,,,,,,,,,,,0,,,71,0
283726,control_change,46,0,2,,,,,,,,,,,,,,,0,64,127,,
283920,note_on,240,0,1,,,,,,,,,,,,,,,0,,,73,0
283920,note_on,0,0,1,,,,,,,,,,,,,,,0,,,71,47
284160,note_on,240,0,1,,,,,,,,,,,,,,,0,,,71,0
284160,note_on,0,0,1,,,,,,,,,,,,,,,0,,,69,43
284160,note_on,0,0,2,,,,,,,,,,,,,,,0,,,53,32
284160,set_tempo,480,1,0,,,,,,,,,,,,585366,,,,,,,
284160,note_on,0,0,2,,,,,,,,,,,,,,,0,,,49,32
284160,note_on,0,0,2,,,,,,,,,,,,,,,0,,,59,38
284160,note_on,434,0,2,,,,,,,,,,,,,,,0,,,37,0
284181,control_change,21,0,2,,,,,,,,,,,,,,,0,64,0,,
284220,note_on,60,0,1,,,,,,,,,,,,,,,0,,,69,0
284220,note_on,0,0,1,,,,,,,,,,,,,,,0,,,71,44
284280,note_on,60,0,1,,,,,,,,,,,,,,,0,,,71,0
284280,set_tempo,120,1,0,,,,,,,,,,,,489796,,,,,,,
284280,note_on,0,0,1,,,,,,,,,,,,,,,0,,,69,52
284280,control_change,99,0,2,,,,,,,,,,,,,,,0,64,127,,
284640,note_on,360,0,2,,,,,,,,,,,,,,,0,,,49,0
284640,note_on,0,0,2,,,,,,,,,,,,,,,0,,,53,0
284640,note_on,0,0,2,,,,,,,,,,,,,,,0,,,59,0
284640,note_on,0,0,2,,,,,,,,,,,,,,,0,,,59,37
284640,note_on,0,0,2,,,,,,,,,,,,,,,0,,,53,31
284640,note_on,0,0,2,,,,,,,,,,,,,,,0,,,49,31
284640,note_on,360,0,1,,,,,,,,,,,,,,,0,,,69,0
284640,note_on,0,0,1,,,,,,,,,,,,,,,0,,,68,50
284640,set_tempo,360,1,0,,,,,,,,,,,,478088,,,,,,,
284880,set_tempo,240,1,0,,,,,,,,,,,,500000,,,,,,,
285120,note_on,0,0,2,,,,,,,,,,,,,,,0,,,59,0
285120,note_on,480,0,1,,,,,,,,,,,,,,,0,,,68,0
285120,note_on,0,0,1,,,,,,,,,,,,,,,0,,,69,52
285120,control_change,0,0,2,,,,,,,,,,,,,,,0,64,0,,
285120,note_on,0,0,2,,,,,,,,,,,,,,,0,,,42,47
285120,note_on,0,0,2,,,,,,,,,,,,,,,0,,,53,0
285120,note_on,480,0,2,,,,,,,,,,,,,,,0,,,49,0
285120,set_tempo,240,1,0,,,,,,,,,,,,436364,,,,,,,
285260,set_tempo,140,1,0,,,,,,,,,,,,600000,,,,,,,
285318,control_change,198,0,2,,,,,,,,,,,,,,,0,64,127,,
285360,note_on,240,0,1,,,,,,,,,,,,,,,0,,,69,0
285360,note_on,0,0,1,,,,,,,,,,,,,,,0,,,73,47
285360,set_tempo,100,1,0,,,,,,,,,,,,500000,,,,,,,
285600,note_on,0,0,2,,,,,,,,,,,,,,,0,,,49,29
285600,note_on,0,0,2,,,,,,,,,,,,,,,0,,,57,35
285600,note_on,282,0,2,,,,,,,,,,,,,,,0,,,42,0
285840,note_on,480,0,1,,,,,,,,,,,,,,,0,,,73,0
286080,note_on,480,0,2,,,,,,,,,,,,,,,0,,,49,0
286080,set_tempo,720,1,0,,,,,,,,,,,,481928,,,,,,,
286080,note_on,240,0,1,,,,,,,,,,,,,,,0,,,61,68
286080,note_on,0,0,2,,,,,,,,,,,,,,,0,,,57,0
286108,control_change,28,0,2,,,,,,,,,,,,,,,0,64,0,,
286800,note_on,720,0,1,,,,,,,,,,,,,,,0,,,61,0
286800,note_on,0,0,1,,,,,,,,,,,,,,,0,,,59,60
286920,set_tempo,840,1,0,,,,,,,,,,,,508475,,,,,,,
287040,note_on,0,0,1,,,,,,,,,,,,,,,0,,,57,57
287040,set_tempo,120,1,0,,,,,,,,,,,,468750,,,,,,,
287040,note_on,240,0,1,,,,,,,,,,,,,,,0,,,59,0
287100,note_on,60,0,1,,,,,,,,,,,,,,,0,,,57,0
287100,note_on,0,0,1,,,,,,,,,,,,,,,0,,,59,57
287160,note_on,0,0,1,,,,,,,,,,,,,,,0,,,57,68
287160,note_on,60,0,1,,,,,,,,,,,,,,,0,,,59,0
287520,set_tempo,480,1,0,,,,,,,,,,,,491803,,,,,,,
287520,note_on,0,0,1,,,,,,,,,,,,,,,0,,,56,67
287520,note_on,360,0,1,,,,,,,,,,,,,,,0,,,57,0
288000,set_tempo,480,1,0,,,,,,,,,,,,461538,,,,,,,
288000,note_on,480,0,1,,,,,,,,,,,,,,,0,,,56,0
288000,note_on,0,0,1,,,,,,,,,,,,,,,0,,,57,71
288480,note_on,0,0,1,,,,,,,,,,,,,,,0,,,61,67
288480,set_tempo,480,1,0,,,,,,,,,,,,473111,,,,,,,
288480,note_on,480,0,1,,,,,,,,,,,,,,,0,,,57,0
289440,note_on,0,0,2,,,,,,,,,,,,,,,0,,,56,58
289440,note_on,0,0,1,,,,,,,,,,,,,,,0,,,59,71
289440,note_on,3332,0,2,,,,,,,,,,,,,,,0,,,49,47
289440,note_on,960,0,1,,,,,,,,,,,,,,,0,,,61,0
289480,set_tempo,1000,1,0,,,,,,,,,,,,461538,,,,,,,
289920,note_on,0,0,1,,,,,,,,,,,,,,,0,,,57,68
289920,note_on,480,0,2,,,,,,,,,,,,,,,0,,,56,0
289920,set_tempo,440,1,0,,,,,,,,,,,,449438,,,,,,,
289920,note_on,480,0,1,,,,,,,,,,,,,,,0,,,59,0
289920,note_on,0,0,2,,,,,,,,,,,,,,,0,,,54,55
290400,note_on,480,0,1,,,,,,,,,,,,,,,0,,,57,0
290400,note_on,0,0,2,,,,,,,,,,,,,,,0,,,57,55
290400,note_on,480,0,2,,,,,,,,,,,,,,,0,,,54,0
290400,note_on,0,0,1,,,,,,,,,,,,,,,0,,,61,68
290400,set_tempo,480,1,0,,,,,,,,,,,,466926,,,,,,,
290880,note_on,480,0,1,,,,,,,,,,,,,,,0,,,61,0
290880,note_on,0,0,1,,,,,,,,,,,,,,,0,,,59,63
290880,note_on,0,0,2,,,,,,,,,,,,,,,0,,,56,57
290880,note_on,0,0,2,,,,,,,,,,,,,,,0,,,49,47
290880,note_on,0,0,2,,,,,,,,,,,,,,,0,,,49,0
290880,note_on,480,0,2,,,,,,,,,,,,,,,0,,,57,0
290880,set_tempo,480,1,0,,,,,,,,,,,,533096,,,,,,,
290940,note_on,60,0,1,,,,,,,,,,,,,,,0,,,59,0
290940,note_on,0,0,1,,,,,,,,,,,,,,,0,,,61,63
291000,set_tempo,120,1,0,,,,,,,,,,,,459700,,,,,,,
291000,note_on,0,0,1,,,,,,,,,,,,,,,0,,,59,73
291000,note_on,60,0,1,,,,,,,,,,,,,,,0,,,61,0
291040,set_tempo,40,1,0,,,,,,,,,,,,436364,,,,,,,
291120,note_on,0,0,2,,,,,,,,,,,,,,,0,,,54,51
291120,note_on,0,0,1,,,,,,,,,,,,,,,0,,,57,66
291120,note_on,240,0,2,,,,,,,,,,,,,,,0,,,56,0
291120,note_on,120,0,1,,,,,,,,,,,,,,,0,,,59,0
291360,note_on,240,0,1,,,,,,,,,,,,,,,0,,,57,0
291360,note_on,0,0,1,,,,,,,,,,,,,,,0,,,61,72
291360,set_tempo,320,1,0,,,,,,,,,,,,473111,,,,,,,
291360,note_on,240,0,2,,,,,,,,,,,,,,,0,,,54,0
291360,note_on,0,0,2,,,,,,,,,,,,,,,0,,,57,56
291840,note_on,480,0,1,,,,,,,,,,,,,,,0,,,61,0
291840,note_on,0,0,1,,,,,,,,,,,,,,,0,,,61,68
291840,note_on,480,0,2,,,,,,,,,,,,,,,0,,,57,0
291840,note_on,0,0,2,,,,,,,,,,,,,,,0,,,57,54
292320,set_tempo,960,1,0,,,,,,,,,,,,530598,,,,,,,
292320,note_on,0,0,2,,,,,,,,,,,,,,,0,,,49,0
292320,note_on,0,0,2,,,,,,,,,,,,,,,0,,,56,57
292320,note_on,0,0,1,,,,,,,,,,,,,,,0,,,59,61
292320,note_on,480,0,1,,,,,,,,,,,,,,,0,,,61,0
292320,note_on,480,0,2,,,,,,,,,,,,,,,0,,,57,0
292320,note_on,0,0,2,,,,,,,,,,,,,,,0,,,49,47
292380,note_on,0,0,1,,,,,,,,,,,,,,,0,,,61,61
292380,note_on,60,0,1,,,,,,,,,,,,,,,0,,,59,0
292440,note_on,0,0,1,,,,,,,,,,,,,,,0,,,59,72
292440,note_on,60,0,1,,,,,,,,,,,,,,,0,,,61,0
292440,set_tempo,120,1,0,,,,,,,,,,,,457841,,,,,,,
292480,set_tempo,40,1,0,,,,,,,,,,,,434783,,,,,,,
292800,set_tempo,320,1,0,,,,,,,,,,,,463464,,,,,,,
292800,note_on,480,0,2,,,,,,,,,,,,,,,0,,,56,0
292800,note_on,0,0,1,,,,,,,,,,,,,,,0,,,58,72
292800,note_on,0,0,2,,,,,,,,,,,,,,,0,,,54,56
292800,note_on,360,0,1,,,,,,,,,,,,,,,0,,,59,0
293280,note_on,480,0,2,,,,,,,,,,,,,,,0,,,54,0
293280,note_on,0,0,2,,,,,,,,,,,,,,,0,,,58,54
293280,set_tempo,480,1,0,,,,,,,,,,,,473111,,,,,,,
293280,note_on,480,0,1,,,,,,,,,,,,,,,0,,,58,0
293280,note_on,0,0,1,,,,,,,,,,,,,,,0,,,61,68
293760,note_on,0,0,2,,,,,,,,,,,,,,,0,,,49,47
293760,note_on,0,0,2,,,,,,,,,,,,,,,0,,,49,0
293760,note_on,480,0,2,,,,,,,,,,,,,,,0,,,58,0
293760,set_tempo,480,1,0,,,,,,,,,,,,530598,,,,,,,
293760,note_on,0,0,1,,,,,,,,,,,,,,,0,,,59,62
293760,note_on,480,0,1,,,,,,,,,,,,,,,0,,,61,0
293760,note_on,0,0,2,,,,,,,,,,,,,,,0,,,56,57
293820,note_on,60,0,1,,,,,,,,,,,,,,,0,,,59,0
293820,note_on,0,0,1,,,,,,,,,,,,,,,0,,,61,63
293880,note_on,0,0,1,,,,,,,,,,,,,,,0,,,59,73
293880,note_on,60,0,1,,,,,,,,,,,,,,,0,,,61,0
293880,set_tempo,120,1,0,,,,,,,,,,,,459700,,,,,,,
294000,note_on,240,0,2,,,,,,,,,,,,,,,0,,,56,0
294000,note_on,0,0,2,,,,,,,,,,,,,,,0,,,54,51
294000,note_on,0,0,1,,,,,,,,,,,,,,,0,,,58,66
294000,note_on,120,0,1,,,,,,,,,,,,,,,0,,,59,0
294240,note_on,0,0,1,,,,,,,,,,,,,,,0,,,66,72
294240,note_on,240,0,1,,,,,,,,,,,,,,,0,,,58,0
294240,set_tempo,360,1,0,,,,,,,,,,,,473111,,,,,,,
294240,note_on,0,0,2,,,,,,,,,,,,,,,0,,,42,47
294240,note_on,240,0,2,,,,,,,,,,,,,,,0,,,49,0
294272,control_change,32,0,2,,,,,,,,,,,,,,,0,64,127,,
294720,note_on,0,0,1,,,,,,,,,,,,,,,0,,,78,58
294720,note_on,480,0,1,,,,,,,,,,,,,,,0,,,66,0
294720,set_tempo,480,1,0,,,,,,,,,,,,500000,,,,,,,
294720,note_on,448,0,2,,,,,,,,,,,,,,,0,,,54,0
294731,control_change,11,0,2,,,,,,,,,,,,,,,0,64,0,,
295200,note_on,469,0,2,,,,,,,,,,,,,,,0,,,42,0
295200,note_on,0,0,2,,,,,,,,,,,,,,,0,,,47,50
295221,control_change,21,0,2,,,,,,,,,,,,,,,0,64,127,,
295440,note_on,0,0,1,,,,,,,,,,,,,,,0,,,83,50
295440,note_on,720,0,1,,,,,,,,,,,,,,,0,,,78,0
295680,set_tempo,960,1,0,,,,,,,,,,,,552995,,,,,,,
295680,note_on,240,0,1,,,,,,,,,,,,,,,0,,,83,0
295680,note_on,0,0,2,,,,,,,,,,,,,,,0,,,59,34
295680,note_on,0,0,2,,,,,,,,,,,,,,,0,,,64,40
295680,note_on,459,0,2,,,,,,,,,,,,,,,0,,,47,0
295680,note_on,0,0,2,,,,,,,,,,,,,,,0,,,55,34
295680,note_on,0,0,1,,,,,,,,,,,,,,,0,,,79,50
295740,note_on,60,0,1,,,,,,,,,,,,,,,0,,,79,0
295740,note_on,0,0,1,,,,,,,,,,,,,,,0,,,81,50
295800,note_on,60,0,1,,,,,,,,,,,,,,,0,,,81,0
295800,note_on,0,0,1,,,,,,,,,,,,,,,0,,,79,57
295800,set_tempo,120,1,0,,,,,,,,,,,,491803,,,,,,,
296160,note_on,0,0,2,,,,,,,,,,,,,,,0,,,59,0
296160,set_tempo,360,1,0,,,,,,,,,,,,478088,,,,,,,
296160,note_on,0,0,2,,,,,,,,,,,,,,,0,,,55,33
296160,note_on,0,0,2,,,,,,,,,,,,,,,0,,,64,39
296160,note_on,0,0,2,,,,,,,,,,,,,,,0,,,64,0
296160,note_on,0,0,2,,,,,,,,,,,,,,,0,,,59,33
296160,note_on,480,0,2,,,,,,,,,,,,,,,0,,,55,0
296160,note_on,0,0,1,,,,,,,,,,,,,,,0,,,78,53
296160,note_on,360,0,1,,,,,,,,,,,,,,,0,,,79,0
296400,note_on,240,0,1,,,,,,,,,,,,,,,0,,,78,0
296400,set_tempo,240,1,0,,,,,,,,,,,,500000,,,,,,,
296400,note_on,0,0,1,,,,,,,,,,,,,,,0,,,76,50
296640,control_change,0,0,2,,,,,,,,,,,,,,,0,64,0,,
296640,note_on,0,0,2,,,,,,,,,,,,,,,0,,,64,0
296640,note_on,0,0,1,,,,,,,,,,,,,,,0,,,78,55
296640,note_on,0,0,2,,,,,,,,,,,,,,,0,,,47,50
296640,set_tempo,240,1,0,,,,,,,,,,,,436364,,,,,,,
296640,note_on,240,0,1,,,,,,,,,,,,,,,0,,,76,0
296640,note_on,0,0,2,,,,,,,,,,,,,,,0,,,59,0
296640,note_on,480,0,2,,,,,,,,,,,,,,,0,,,55,0
296780,set_tempo,140,1,0,,,,,,,,,,,,600000,,,,,,,
296838,control_change,198,0,2,,,,,,,,,,,,,,,0,64,127,,
296880,set_tempo,100,1,0,,,,,,,,,,,,500000,,,,,,,
296880,note_on,0,0,1,,,,,,,,,,,,,,,0,,,71,50
296880,note_on,240,0,1,,,,,,,,,,,,,,,0,,,78,0
297120,note_on,0,0,2,,,,,,,,,,,,,,,0,,,59,26
297120,note_on,0,0,2,,,,,,,,,,,,,,,0,,,62,31
297120,note_on,0,0,2,,,,,,,,,,,,,,,0,,,54,26
297120,set_tempo,240,1,0,,,,,,,,,,,,478088,,,,,,,
297120,note_on,282,0,2,,,,,,,,,,,,,,,0,,,47,0
297600,note_on,480,0,2,,,,,,,,,,,,,,,0,,,54,0
297600,note_on,0,0,2,,,,,,,,,,,,,,,0,,,59,0
297600,note_on,0,0,2,,,,,,,,,,,,,,,0,,,62,0
297600,note_on,0,0,2,,,,,,,,,,,,,,,0,,,62,31
297600,note_on,0,0,2,,,,,,,,,,,,,,,0,,,59,26
297600,note_on,0,0,2,,,,,,,,,,,,,,,0,,,54,26
297600,set_tempo,480,1,0,,,,,,,,,,,,500000,,,,,,,
298080,note_on,0,0,2,,,,,,,,,,,,,,,0,,,59,0
298080,note_on,480,0,2,,,,,,,,,,,,,,,0,,,54,0
298080,note_on,1200,0,1,,,,,,,,,,,,,,,0,,,71,0
298080,set_tempo,480,1,0,,,,,,,,,,,,500000,,,,,,,
298080,control_change,0,0,2,,,,,,,,,,,,,,,0,64,0,,
298080,note_on,0,0,2,,,,,,,,,,,,,,,0,,,47,50
298080,note_on,0,0,2,,,,,,,,,,,,,,,0,,,62,0
298080,note_on,0,0,1,,,,,,,,,,,,,,,0,,,73,58
298126,control_change,46,0,2,,,,,,,,,,,,,,,0,64,127,,
298320,note_on,240,0,1,,,,,,,,,,,,,,,0,,,73,0
298320,note_on,0,0,1,,,,,,,,,,,,,,,0,,,76,50
298560,set_tempo,480,1,0,,,,,,,,,,,,560748,,,,,,,
298560,note_on,240,0,1,,,,,,,,,,,,,,,0,,,76,0
298560,note_on,0,0,2,,,,,,,,,,,,,,,0,,,54,34
298560,note_on,0,0,2,,,,,,,,,,,,,,,0,,,58,34
298560,note_on,434,0,2,,,,,,,,,,,,,,,0,,,47,0
298560,note_on,0,0,1,,,,,,,,,,,,,,,0,,,74,50
298560,note_on,0,0,2,,,,,,,,,,,,,,,0,,,64,40
298620,note_on,0,0,1,,,,,,,,,,,,,,,0,,,76,50
298620,note_on,60,0,1,,,,,,,,,,,,,,,0,,,74,0
298680,set_tempo,120,1,0,,,,,,,,,,,,487805,,,,,,,
298680,note_on,0,0,1,,,,,,,,,,,,,,,0,,,74,57
298680,note_on,60,0,1,,,,,,,,,,,,,,,0,,,76,0
299040,note_on,0,0,2,,,,,,,,,,,,,,,0,,,54,33
299040,note_on,0,0,2,,,,,,,,,,,,,,,0,,,58,33
299040,note_on,0,0,2,,,,,,,,,,,,,,,0,,,64,39
299040,note_on,0,0,2,,,,,,,,,,,,,,,0,,,64,0
299040,note_on,0,0,2,,,,,,,,,,,,,,,0,,,58,0
299040,note_on,480,0,2,,,,,,,,,,,,,,,0,,,54,0
299040,set_tempo,360,1,0,,,,,,,,,,,,478088,,,,,,,
299040,note_on,360,0,1,,,,,,,,,,,,,,,0,,,74,0
299040,note_on,0,0,1,,,,,,,,,,,,,,,0,,,73,53
299280,set_tempo,240,1,0,,,,,,,,,,,,500000,,,,,,,
299520,note_on,480,0,1,,,,,,,,,,,,,,,0,,,73,0
299520,note_on,0,0,1,,,,,,,,,,,,,,,0,,,74,55
299520,note_on,480,0,2,,,,,,,,,,,,,,,0,,,54,0
299520,note_on,0,0,2,,,,,,,,,,,,,,,0,,,58,0
299520,note_on,0,0,2,,,,,,,,,,,,,,,0,,,64,0
299520,note_on,0,0,2,,,,,,,,,,,,,,,0,,,47,50
299520,set_tempo,240,1,0,,,,,,,,,,,,436364,,,,,,,
299520,control_change,0,0,2,,,,,,,,,,,,,,,0,64,0,,
299660,set_tempo,140,1,0,,,,,,,,,,,,600000,,,,,,,
299718,control_change,198,0,2,,,,,,,,,,,,,,,0,64,127,,
299760,note_on,0,0,1,,,,,,,,,,,,,,,0,,,71,50
299760,note_on,240,0,1,,,,,,,,,,,,,,,0,,,74,0
299760,set_tempo,100,1,0,,,,,,,,,,,,500000,,,,,,,
300000,note_on,282,0,2,,,,,,,,,,,,,,,0,,,47,0
300000,note_on,0,0,2,,,,,,,,,,,,,,,0,,,62,31
300000,note_on,0,0,2,,,,,,,,,,,,,,,0,,,59,26
300000,note_on,0,0,2,,,,,,,,,,,,,,,0,,,54,26
300000,set_tempo,240,1,0,,,,,,,,,,,,483871,,,,,,,
300424,control_change,424,0,2,,,,,,,,,,,,,,,0,64,0,,
300480,note_on,0,0,1,,,,,,,,,,,,,,,0,,,50,66
300480,note_on,720,0,1,,,,,,,,,,,,,,,0,,,71,0
300480,set_tempo,480,1,0,,,,,,,,,,,,472441,,,,,,,
300480,note_on,56,0,2,,,,,,,,,,,,,,,0,,,54,0
300480,note_on,0,0,2,,,,,,,,,,,,,,,0,,,59,0
300480,note_on,0,0,2,,,,,,,,,,,,,,,0,,,62,0
300960,note_on,0,0,2,,,,,,,,,,,,,,,0,,,65,43
300960,note_on,480,0,2,,,,,,,,,,,,,,,0,,,59,38
301200,note_on,0,0,1,,,,,,,,,,,,,,,0,,,55,58
301200,note_on,720,0,1,,,,,,,,,,,,,,,0,,,50,0
301440,note_on,0,0,2,,,,,,,,,,,,,,,0,,,59,0
301440,note_on,0,0,2,,,,,,,,,,,,,,,0,,,60,34
301440,note_on,0,0,1,,,,,,,,,,,,,,,0,,,52,65
301440,note_on,240,0,1,,,,,,,,,,,,,,,0,,,55,0
301440,set_tempo,960,1,0,,,,,,,,,,,,433213,,,,,,,
301440,note_on,480,0,2,,,,,,,,,,,,,,,0,,,65,0
301440,note_on,0,0,2,,,,,,,,,,,,,,,0,,,64,38
301600,note_on,160,0,1,,,,,,,,,,,,,,,0,,,52,0
301600,note_on,0,0,1,,,,,,,,,,,,,,,0,,,53,57
301760,note_on,0,0,1,,,,,,,,,,,,,,,0,,,52,55
301760,note_on,160,0,1,,,,,,,,,,,,,,,0,,,53,0
301920,note_on,160,0,1,,,,,,,,,,,,,,,0,,,52,0
301920,note_on,0,0,2,,,,,,,,,,,,,,,0,,,64,38
301920,note_on,0,0,2,,,,,,,,,,,,,,,0,,,60,0
301920,note_on,480,0,2,,,,,,,,,,,,,,,0,,,64,0
301920,set_tempo,480,1,0,,,,,,,,,,,,472441,,,,,,,
301920,note_on,0,0,1,,,,,,,,,,,,,,,0,,,50,63
301920,note_on,0,0,2,,,,,,,,,,,,,,,0,,,60,34
302160,note_on,0,0,1,,,,,,,,,,,,,,,0,,,48,57
302160,note_on,240,0,1,,,,,,,,,,,,,,,0,,,50,0
302400,note_on,240,0,1,,,,,,,,,,,,,,,0,,,48,0
302400,note_on,0,0,2,,,,,,,,,,,,,,,0,,,55,41
302400,note_on,0,0,1,,,,,,,,,,,,,,,0,,,50,64
302400,set_tempo,480,1,0,,,,,,,,,,,,476190,,,,,,,
302400,note_on,0,0,2,,,,,,,,,,,,,,,0,,,60,0
302400,note_on,480,0,2,,,,,,,,,,,,,,,0,,,64,0
302400,note_on,0,0,2,,,,,,,,,,,,,,,0,,,59,41
302400,note_on,0,0,2,,,,,,,,,,,,,,,0,,,65,46
302760,note_on,360,0,1,,,,,,,,,,,,,,,0,,,50,0
302760,note_on,0,0,1,,,,,,,,,,,,,,,0,,,43,55
302880,note_on,120,0,1,,,,,,,,,,,,,,,0,,,43,0
302880,note_on,0,0,2,,,,,,,,,,,,,,,0,,,65,38
302880,note_on,0,0,2,,,,,,,,,,,,,,,0,,,55,34
302880,note_on,0,0,2,,,,,,,,,,,,,,,0,,,55,0
302880,note_on,0,0,2,,,,,,,,,,,,,,,0,,,59,0
302880,note_on,480,0,2,,,,,,,,,,,,,,,0,,,65,0
302880,note_on,0,0,1,,,,,,,,,,,,,,,0,,,50,64
302880,note_on,0,0,2,,,,,,,,,,,,,,,0,,,59,34
303360,note_on,0,0,1,,,,,,,,,,,,,,,0,,,48,59
303360,set_tempo,960,1,0,,,,,,,,,,,,463320,,,,,,,
303360,note_on,0,0,2,,,,,,,,,,,,,,,0,,,60,34
303360,note_on,0,0,2,,,,,,,,,,,,,,,0,,,55,0
303360,note_on,0,0,2,,,,,,,,,,,,,,,0,,,59,0
303360,note_on,480,0,2,,,,,,,,,,,,,,,0,,,65,0
303360,note_on,0,0,2,,,,,,,,,,,,,,,0,,,64,38
303360,note_on,480,0,1,,,,,,,,,,,,,,,0,,,50,0
303840,note_on,0,0,2,,,,,,,,,,,,,,,0,,,65,43
303840,note_on,0,0,2,,,,,,,,,,,,,,,0,,,59,38
303840,note_on,0,0,2,,,,,,,,,,,,,,,0,,,60,0
303840,note_on,480,0,2,,,,,,,,,,,,,,,0,,,64,0
303840,note_on,480,0,1,,,,,,,,,,,,,,,0,,,48,0
303840,note_on,0,0,1,,,,,,,,,,,,,,,0,,,50,66
303840,set_tempo,480,1,0,,,,,,,,,,,,472441,,,,,,,
303880,set_tempo,40,1,0,,,,,,,,,,,,461538,,,,,,,
304080,note_on,240,0,1,,,,,,,,,,,,,,,0,,,50,0
304080,note_on,0,0,1,,,,,,,,,,,,,,,0,,,55,58
304320,note_on,0,0,2,,,,,,,,,,,,,,,0,,,60,34
304320,note_on,240,0,1,,,,,,,,,,,,,,,0,,,55,0
304320,set_tempo,440,1,0,,,,,,,,,,,,433213,,,,,,,
304320,note_on,0,0,1,,,,,,,,,,,,,,,0,,,52,65
304320,note_on,480,0,2,,,,,,,,,,,,,,,0,,,65,0
304320,note_on,0,0,2,,,,,,,,,,,,,,,0,,,59,0
304320,note_on,0,0,2,,,,,,,,,,,,,,,0,,,64,38
304480,note_on,160,0,1,,,,,,,,,,,,,,,0,,,52,0
304480,note_on,0,0,1,,,,,,,,,,,,,,,0,,,53,57
304640,note_on,0,0,1,,,,,,,,,,,,,,,0,,,52,55
304640,note_on,160,0,1,,,,,,,,,,,,,,,0,,,53,0
304800,note_on,0,0,2,,,,,,,,,,,,,,,0,,,60,0
304800,note_on,0,0,2,,,,,,,,,,,,,,,0,,,60,34
304800,note_on,0,0,2,,,,,,,,,,,,,,,0,,,64,38
304800,note_on,480,0,2,,,,,,,,,,,,,,,0,,,64,0
304800,set_tempo,480,1,0,,,,,,,,,,,,472441,,,,,,,
304800,note_on,0,0,1,,,,,,,,,,,,,,,0,,,50,63
304800,note_on,160,0,1,,,,,,,,,,,,,,,0,,,52,0
305040,note_on,0,0,1,,,,,,,,,,,,,,,0,,,48,57
305040,note_on,240,0,1,,,,,,,,,,,,,,,0,,,50,0
305280,note_on,480,0,2,,,,,,,,,,,,,,,0,,,64,0
305280,note_on,0,0,1,,,,,,,,,,,,,,,0,,,50,64
305280,note_on,0,0,2,,,,,,,,,,,,,,,0,,,60,0
305280,note_on,0,0,2,,,,,,,,,,,,,,,0,,,55,41
305280,note_on,0,0,2,,,,,,,,,,,,,,,0,,,59,41
305280,note_on,0,0,2,,,,,,,,,,,,,,,0,,,65,46
305280,set_tempo,480,1,0,,,,,,,,,,,,476190,,,,,,,
305280,note_on,240,0,1,,,,,,,,,,,,,,,0,,,48,0
305640,note_on,0,0,1,,,,,,,,,,,,,,,0,,,43,54
305640,note_on,360,0,1,,,,,,,,,,,,,,,0,,,50,0
305760,note_on,120,0,1,,,,,,,,,,,,,,,0,,,43,0
305760,note_on,0,0,2,,,,,,,,,,,,,,,0,,,65,37
305760,note_on,0,0,2,,,,,,,,,,,,,,,0,,,59,33
305760,note_on,0,0,2,,,,,,,,,,,,,,,0,,,55,33
305760,note_on,0,0,2,,,,,,,,,,,,,,,0,,,55,0
305760,note_on,0,0,2,,,,,,,,,,,,,,,0,,,59,0
305760,note_on,480,0,2,,,,,,,,,,,,,,,0,,,65,0
305760,note_on,0,0,1,,,,,,,,,,,,,,,0,,,50,62
306240,note_on,480,0,1,,,,,,,,,,,,,,,0,,,50,0
306240,note_on,0,0,1,,,,,,,,,,,,,,,0,,,48,56
306240,note_on,0,0,2,,,,,,,,,,,,,,,0,,,64,36
306240,note_on,0,0,2,,,,,,,,,,,,,,,0,,,59,0
306240,note_on,0,0,2,,,,,,,,,,,,,,,0,,,60,32
306240,note_on,480,0,2,,,,,,,,,,,,,,,0,,,65,0
306240,note_on,0,0,2,,,,,,,,,,,,,,,0,,,55,0
306720,note_on,0,0,2,,,,,,,,,,,,,,,0,,,59,38
306720,note_on,480,0,2,,,,,,,,,,,,,,,0,,,64,0
306720,note_on,0,0,2,,,,,,,,,,,,,,,0,,,60,0
306720,note_on,480,0,1,,,,,,,,,,,,,,,0,,,48,0
306720,note_on,0,0,1,,,,,,,,,,,,,,,0,,,50,60
306720,set_tempo,1440,1,0,,,,,,,,,,,,452830,,,,,,,
306720,note_on,0,0,2,,,,,,,,,,,,,,,0,,,55,38
306720,note_on,0,0,2,,,,,,,,,,,,,,,0,,,65,43
307080,note_on,0,0,1,,,,,,,,,,,,,,,0,,,43,51
307080,note_on,360,0,1,,,,,,,,,,,,,,,0,,,50,0
307200,note_on,0,0,2,,,,,,,,,,,,,,,0,,,60,31
307200,note_on,0,0,2,,,,,,,,,,,,,,,0,,,64,34
307200,note_on,120,0,1,,,,,,,,,,,,,,,0,,,43,0
307200,note_on,0,0,2,,,,,,,,,,,,,,,0,,,55,0
307200,note_on,0,0,2,,,,,,,,,,,,,,,0,,,59,0
307200,note_on,480,0,2,,,,,,,,,,,,,,,0,,,65,0
307200,set_tempo,480,1,0,,,,,,,,,,,,487805,,,,,,,
307200,note_on,0,0,1,,,,,,,,,,,,,,,0,,,48,58
307680,note_on,0,0,2,,,,,,,,,,,,,,,0,,,55,36
307680,note_on,0,0,1,,,,,,,,,,,,,,,0,,,50,57
307680,note_on,0,0,2,,,,,,,,,,,,,,,0,,,60,0
307680,note_on,480,0,2,,,,,,,,,,,,,,,0,,,64,0
307680,note_on,0,0,2,,,,,,,,,,,,,,,0,,,65,41
307680,note_on,0,0,2,,,,,,,,,,,,,,,0,,,59,36
307680,note_on,480,0,1,,,,,,,,,,,,,,,0,,,48,0
307680,set_tempo,480,1,0,,,,,,,,,,,,466926,,,,,,,
308040,note_on,360,0,1,,,,,,,,,,,,,,,0,,,50,0
308040,note_on,0,0,1,,,,,,,,,,,,,,,0,,,43,48
308160,note_on,120,0,1,,,,,,,,,,,,,,,0,,,43,0
308160,set_tempo,480,1,0,,,,,,,,,,,,493827,,,,,,,
308160,note_on,0,0,2,,,,,,,,,,,,,,,0,,,64,29
308160,note_on,0,0,2,,,,,,,,,,,,,,,0,,,60,29
308160,note_on,0,0,2,,,,,,,,,,,,,,,0,,,55,0
308160,note_on,0,0,2,,,,,,,,,,,,,,,0,,,59,0
308160,note_on,0,0,1,,,,,,,,,,,,,,,0,,,48,56
308160,note_on,480,0,2,,,,,,,,,,,,,,,0,,,65,0
308640,note_on,0,0,2,,,,,,,,,,,,,,,0,,,60,0
308640,note_on,480,0,2,,,,,,,,,,,,,,,0,,,64,0
308640,note_on,0,0,2,,,,,,,,,,,,,,,0,,,59,35
308640,note_on,480,0,1,,,,,,,,,,,,,,,0,,,48,0
308640,note_on,0,0,1,,,,,,,,,,,,,,,0,,,50,55
308640,set_tempo,480,1,0,,,,,,,,,,,,470588,,,,,,,
308640,note_on,0,0,2,,,,,,,,,,,,,,,0,,,55,35
308640,note_on,0,0,2,,,,,,,,,,,,,,,0,,,65,39
309000,note_on,360,0,1,,,,,,,,,,,,,,,0,,,50,0
309000,note_on,0,0,1,,,,,,,,,,,,,,,0,,,43,46
309120,note_on,120,0,1,,,,,,,,,,,,,,,0,,,43,0
309120,note_on,0,0,1,,,,,,,,,,,,,,,0,,,48,53
309120,note_on,0,0,2,,,,,,,,,,,,,,,0,,,59,0
309120,note_on,0,0,2,,,,,,,,,,,,,,,0,,,55,0
309120,note_on,0,0,2,,,,,,,,,,,,,,,0,,,60,28
309120,note_on,0,0,2,,,,,,,,,,,,,,,0,,,64,31
309120,set_tempo,480,1,0,,,,,,,,,,,,502092,,,,,,,
309120,note_on,480,0,2,,,,,,,,,,,,,,,0,,,65,0
309600,note_on,480,0,1,,,,,,,,,,,,,,,0,,,48,0
309600,note_on,0,0,1,,,,,,,,,,,,,,,0,,,50,54
309600,set_tempo,480,1,0,,,,,,,,,,,,489796,,,,,,,
309600,note_on,0,0,2,,,,,,,,,,,,,,,0,,,55,34
309600,note_on,0,0,2,,,,,,,,,,,,,,,0,,,65,38
309600,note_on,0,0,2,,,,,,,,,,,,,,,0,,,59,34
309600,note_on,0,0,2,,,,,,,,,,,,,,,0,,,60,0
309600,note_on,480,0,2,,,,,,,,,,,,,,,0,,,64,0
309960,note_on,0,0,1,,,,,,,,,,,,,,,0,,,43,45
309960,note_on,360,0,1,,,,,,,,,,,,,,,0,,,50,0
310080,note_on,0,0,2,,,,,,,,,,,,,,,0,,,55,0
310080,note_on,0,0,2,,,,,,,,,,,,,,,0,,,55,26
310080,note_on,0,0,2,,,,,,,,,,,,,,,0,,,59,26
310080,note_on,0,0,2,,,,,,,,,,,,,,,0,,,65,30
310080,note_on,480,0,2,,,,,,,,,,,,,,,0,,,65,0
310080,note_on,0,0,2,,,,,,,,,,,,,,,0,,,59,0
310080,note_on,120,0,1,,,,,,,,,,,,,,,0,,,43,0
310080,note_on,0,0,1,,,,,,,,,,,,,,,0,,,50,51
310560,note_on,480,0,1,,,,,,,,,,,,,,,0,,,50,0
310560,note_on,0,0,2,,,,,,,,,,,,,,,0,,,55,0
310560,note_on,0,0,2,,,,,,,,,,,,,,,0,,,60,25
310560,note_on,0,0,2,,,,,,,,,,,,,,,0,,,64,28
310560,note_on,0,0,2,,,,,,,,,,,,,,,0,,,59,0
310560,note_on,480,0,2,,,,,,,,,,,,,,,0,,,65,0
310560,note_on,0,0,1,,,,,,,,,,,,,,,0,,,48,45
310560,set_tempo,960,1,0,,,,,,,,,,,,510638,,,,,,,
311040,set_tempo,480,1,0,,,,,,,,,,,,497925,,,,,,,
311040,note_on,480,0,1,,,,,,,,,,,,,,,0,,,48,0
311040,note_on,0,0,1,,,,,,,,,,,,,,,0,,,50,50
311040,note_on,480,0,2,,,,,,,,,,,,,,,0,,,64,0
311040,note_on,0,0,2,,,,,,,,,,,,,,,0,,,60,0
311040,note_on,0,0,2,,,,,,,,,,,,,,,0,,,55,31
311040,note_on,0,0,2,,,,,,,,,,,,,,,0,,,59,31
311040,note_on,0,0,2,,,,,,,,,,,,,,,0,,,65,36
311400,note_on,360,0,1,,,,,,,,,,,,,,,0,,,50,0
311400,note_on,0,0,1,,,,,,,,,,,,,,,0,,,43,41
311520,note_on,0,0,2,,,,,,,,,,,,,,,0,,,59,0
311520,note_on,0,0,2,,,,,,,,,,,,,,,0,,,59,24
311520,note_on,0,0,2,,,,,,,,,,,,,,,0,,,65,28
311520,set_tempo,480,1,0,,,,,,,,,,,,512821,,,,,,,
311520,note_on,480,0,2,,,,,,,,,,,,,,,0,,,65,0
311520,note_on,0,0,2,,,,,,,,,,,,,,,0,,,55,0
311520,note_on,0,0,2,,,,,,,,,,,,,,,0,,,55,24
311520,note_on,120,0,1,,,,,,,,,,,,,,,0,,,43,0
311520,note_on,0,0,1,,,,,,,,,,,,,,,0,,,50,46
312000,note_on,0,0,1,,,,,,,,,,,,,,,0,,,48,41
312000,set_tempo,480,1,0,,,,,,,,,,,,530973,,,,,,,
312000,note_on,480,0,2,,,,,,,,,,,,,,,0,,,65,0
312000,note_on,0,0,2,,,,,,,,,,,,,,,0,,,59,0
312000,note_on,0,0,2,,,,,,,,,,,,,,,0,,,55,0
312000,note_on,0,0,2,,,,,,,,,,,,,,,0,,,60,23
312000,note_on,480,0,1,,,,,,,,,,,,,,,0,,,50,0
312000,note_on,0,0,2,,,,,,,,,,,,,,,0,,,64,26
312480,note_on,480,0,2,,,,,,,,,,,,,,,0,,,64,0
312480,note_on,0,0,2,,,,,,,,,,,,,,,0,,,67,40
312480,set_tempo,480,1,0,,,,,,,,,,,,519481,,,,,,,
312480,note_on,0,0,2,,,,,,,,,,,,,,,0,,,60,0
312480,note_on,480,0,1,,,,,,,,,,,,,,,0,,,48,0
312587,control_change,107,0,2,,,,,,,,,,,,,,,0,64,127,,
313920,note_on,1333,0,2,,,,,,,,,,,,,,,0,,,67,0
313920,note_on,0,0,2,,,,,,,,,,,,,,,0,,,60,45
313920,set_tempo,1440,1,0,,,,,,,,,,,,530973,,,,,,,
315360,note_on,0,0,2,,,,,,,,,,,,,,,0,,,67,40
315360,note_on,1440,0,2,,,,,,,,,,,,,,,0,,,60,0
315360,set_tempo,1440,1,0,,,,,,,,,,,,519481,,,,,,,
316800,note_on,1440,0,2,,,,,,,,,,,,,,,0,,,67,0
316800,note_on,0,0,2,,,,,,,,,,,,,,,0,,,60,45
316800,set_tempo,1440,1,0,,,,,,,,,,,,533333,,,,,,,
318240,note_on,1440,0,2,,,,,,,,,,,,,,,0,,,60,0
318240,note_on,0,0,2,,,,,,,,,,,,,,,0,,,67,41
318240,set_tempo,1440,1,0,,,,,,,,,,,,521739,,,,,,,
320933,control_change,2693,0,2,,,,,,,,,,,,,,,0,64,0,,
321115,note_on,182,0,2,,,,,,,,,,,,,,,0,,,67,0
321120,note_on,8640,0,1,,,,,,,,,,,,,,,0,,,67,54
321120,set_tempo,2880,1,0,,,,,,,,,,,,493827,,,,,,,
321600,set_tempo,480,1,0,,,,,,,,,,,,442804,,,,,,,
321600,note_on,0,0,1,,,,,,,,,,,,,,,0,,,60,59
321600,note_on,480,0,1,,,,,,,,,,,,,,,0,,,67,0
322320,note_on,720,0,1,,,,,,,,,,,,,,,0,,,60,0
322320,set_tempo,720,1,0,,,,,,,,,,,,487805,,,,,,,
322320,note_on,0,0,1,,,,,,,,,,,,,,,0,,,59,52
322560,note_on,0,0,1,,,,,,,,,,,,,,,0,,,58,59
322560,set_tempo,240,1,0,,,,,,,,,,,,470588,,,,,,,
322560,note_on,0,0,1,,,,,,,,,,,,,,,0,,,52,50
322560,note_on,0,0,1,,,,,,,,,,,,,,,0,,,61,59
322560,note_on,240,0,1,,,,,,,,,,,,,,,0,,,59,0
322560,note_on,1445,0,2,,,,,,,,,,,,,,,0,,,42,44
322624,control_change,64,0,2,,,,,,,,,,,,,,,0,64,127,,
322920,note_on,360,0,1,,,,,,,,,,,,,,,0,,,61,0
322920,note_on,0,0,1,,,,,,,,,,,,,,,0,,,58,0
322920,note_on,0,0,1,,,,,,,,,,,,,,,0,,,54,45
322920,note_on,0,0,1,,,,,,,,,,,,,,,0,,,52,0
323040,note_on,120,0,1,,,,,,,,,,,,,,,0,,,52,49
323040,note_on,0,0,1,,,,,,,,,,,,,,,0,,,58,58
323040,note_on,0,0,1,,,,,,,,,,,,,,,0,,,61,58
323040,set_tempo,480,1,0,,,,,,,,,,,,506329,,,,,,,
323040,note_on,0,0,2,,,,,,,,,,,,,,,0,,,42,39
323040,note_on,416,0,2,,,,,,,,,,,,,,,0,,,42,0
323132,control_change,92,0,2,,,,,,,,,,,,,,,0,64,0,,
323195,control_change,63,0,2,,,,,,,,,,,,,,,0,64,127,,
323520,note_on,0,0,1,,,,,,,,,,,,,,,0,,,50,47
323520,note_on,0,0,1,,,,,,,,,,,,,,,0,,,54,47
323520,note_on,0,0,1,,,,,,,,,,,,,,,0,,,58,0
323520,note_on,0,0,1,,,,,,,,,,,,,,,0,,,52,0
323520,note_on,480,0,1,,,,,,,,,,,,,,,0,,,61,0
323520,note_on,0,0,1,,,,,,,,,,,,,,,0,,,54,0
323520,set_tempo,480,1,0,,,,,,,,,,,,588235,,,,,,,
323520,note_on,0,0,2,,,,,,,,,,,,,,,0,,,47,44
323520,note_on,0,0,2,,,,,,,,,,,,,,,0,,,35,37
323520,note_on,325,0,2,,,,,,,,,,,,,,,0,,,42,0
323520,note_on,0,0,1,,,,,,,,,,,,,,,0,,,59,56
323576,control_change,56,0,2,,,,,,,,,,,,,,,0,64,0,,
323647,control_change,71,0,2,,,,,,,,,,,,,,,0,64,127,,
324000,note_on,480,0,1,,,,,,,,,,,,,,,0,,,59,0
324000,note_on,0,0,1,,,,,,,,,,,,,,,0,,,54,0
324000,end_of_track,0,1,2,,,,,,,,,,,,,,,,,,,
324000,end_of_track,0,1,1,,,,,,,,,,,,,,,,,,,
324000,control_change,0,0,2,,,,,,,,,,,,,,,0,64,0,,
324000,note_on,0,0,2,,,,,,,,,,,,,,,0,,,35,0
324000,note_on,353,0,2,,,,,,,,,,,,,,,0,,,47,0
324000,note_on,0,0,1,,,,,,,,,,,,,,,0,,,50,0
325440,set_tempo,1920,1,0,,,,,,,,,,,,600000,,,,,,,
325440,end_of_track,0,1,0,,,,,,,,,,,,,,,,,,,
