tick,type,tempo,time,meta,track,numerator,denominator,clocks_per_click,notated_32nd_notes_per_beat,key,port,data,control,value,channel,program,note,velocity
0,set_tempo,500000,0,1,0,,,,,,,,,,,,,
0,midi_port,,0,1,2,,,,,,0,,,,,,,
0,track_name,,0,1,2,,,,,,,,,,,,,
0,midi_port,,0,1,3,,,,,,0,,,,,,,
0,midi_port,,0,1,1,,,,,,0,,,,,,,
0,track_name,,0,1,1,,,,,,,,,,,,,
0,track_name,,0,1,3,,,,,,,,,,,,,
0,track_name,,0,1,0,,,,,,,,,,,,,
0,key_signature,,0,1,0,,,,,Em,,,,,,,,
0,time_signature,,0,1,0,4,4,24,8,,,,,,,,,
0,text,,0,1,0,,,,,,,,,,,,,
4,sysex,,4,0,1,,,,,,,"(65, 16, 66, 18, 64, 0, 127, 0, 65)",,,,,,
6,sysex,,2,0,1,,,,,,,"(65, 16, 66, 18, 64, 0, 4, 127, 61)",,,,,,
10,sysex,,4,0,1,,,,,,,"(65, 16, 66, 18, 64, 1, 48, 4, 11)",,,,,,
12,sysex,,2,0,1,,,,,,,"(65, 16, 66, 18, 64, 1, 49, 3, 11)",,,,,,
14,sysex,,2,0,1,,,,,,,"(65, 16, 66, 18, 64, 1, 51, 110, 30)",,,,,,
16,sysex,,2,0,1,,,,,,,"(65, 16, 66, 18, 64, 1, 52, 60, 79)",,,,,,
18,sysex,,2,0,1,,,,,,,"(65, 16, 66, 18, 64, 1, 56, 2, 5)",,,,,,
20,sysex,,2,0,1,,,,,,,"(65, 16, 66, 18, 64, 1, 58, 100, 33)",,,,,,
22,sysex,,2,0,1,,,,,,,"(65, 16, 66, 18, 64, 1, 61, 7, 123)",,,,,,
24,sysex,,2,0,1,,,,,,,"(65, 16, 66, 18, 64, 1, 62, 8, 121)",,,,,,
26,control_change,,2,0,1,,,,,,,,0,0,0,,,
28,control_change,,2,0,1,,,,,,,,32,1,0,,,
30,program_change,,2,0,1,,,,,,,,,,0,0,,
32,control_change,,2,0,1,,,,,,,,7,120,0,,,
34,control_change,,2,0,1,,,,,,,,11,120,0,,,
36,control_change,,2,0,1,,,,,,,,91,40,0,,,
38,control_change,,2,0,1,,,,,,,,93,0,0,,,
40,control_change,,2,0,1,,,,,,,,10,64,0,,,
42,control_change,,2,0,1,,,,,,,,99,1,0,,,
44,control_change,,2,0,1,,,,,,,,98,8,0,,,
46,control_change,,2,0,1,,,,,,,,6,64,0,,,
48,control_change,,2,0,1,,,,,,,,98,9,0,,,
50,control_change,,2,0,1,,,,,,,,6,64,0,,,
52,control_change,,2,0,1,,,,,,,,98,10,0,,,
54,control_change,,2,0,1,,,,,,,,6,64,0,,,
56,control_change,,2,0,1,,,,,,,,98,32,0,,,
58,control_change,,2,0,1,,,,,,,,6,64,0,,,
60,control_change,,2,0,1,,,,,,,,98,33,0,,,
62,control_change,,2,0,1,,,,,,,,6,64,0,,,
64,control_change,,2,0,1,,,,,,,,98,99,0,,,
66,control_change,,2,0,1,,,,,,,,6,64,0,,,
68,control_change,,2,0,1,,,,,,,,98,100,0,,,
70,control_change,,2,0,1,,,,,,,,6,80,0,,,
72,control_change,,2,0,1,,,,,,,,98,102,0,,,
74,control_change,,2,0,1,,,,,,,,6,64,0,,,
192,note_on,,192,0,2,,,,,,,,,,0,,40,37
192,control_change,,192,0,3,,,,,,,,64,127,0,,,
192,set_tempo,1333333,192,1,0,,,,,,,,,,,,,
208,note_on,,0,0,2,,,,,,,,,,0,,47,30
208,note_on,,16,0,2,,,,,,,,,,0,,40,0
208,set_tempo,1111111,16,1,0,,,,,,,,,,,,,
224,note_on,,0,0,2,,,,,,,,,,0,,55,36
224,note_on,,16,0,2,,,,,,,,,,0,,47,0
240,note_on,,16,0,2,,,,,,,,,,0,,55,0
240,note_on,,0,0,2,,,,,,,,,,0,,52,34
240,set_tempo,1071428,32,1,0,,,,,,,,,,,,,
256,set_tempo,1111111,16,1,0,,,,,,,,,,,,,
256,note_on,,16,0,2,,,,,,,,,,0,,52,0
256,note_on,,0,0,2,,,,,,,,,,0,,60,39
272,set_tempo,1200000,16,1,0,,,,,,,,,,,,,
272,note_on,,16,0,2,,,,,,,,,,0,,60,0
272,note_on,,0,0,2,,,,,,,,,,0,,59,36
280,note_on,,8,0,2,,,,,,,,,,0,,59,0
288,set_tempo,1153846,16,1,0,,,,,,,,,,,,,
288,note_on,,8,0,2,,,,,,,,,,0,,40,44
304,note_on,,16,0,2,,,,,,,,,,0,,40,0
304,note_on,,0,0,2,,,,,,,,,,0,,47,34
304,set_tempo,1034482,16,1,0,,,,,,,,,,,,,
320,note_on,,16,0,2,,,,,,,,,,0,,47,0
320,note_on,,0,0,2,,,,,,,,,,0,,55,33
320,set_tempo,1111111,16,1,0,,,,,,,,,,,,,
336,set_tempo,1153846,16,1,0,,,,,,,,,,,,,
336,note_on,,0,0,2,,,,,,,,,,0,,52,30
336,note_on,,16,0,2,,,,,,,,,,0,,55,0
352,set_tempo,1250000,16,1,0,,,,,,,,,,,,,
352,note_on,,16,0,2,,,,,,,,,,0,,52,0
352,note_on,,0,0,2,,,,,,,,,,0,,60,31
368,note_on,,16,0,2,,,,,,,,,,0,,60,0
368,note_on,,0,0,2,,,,,,,,,,0,,59,30
368,set_tempo,1333333,16,1,0,,,,,,,,,,,,,
376,note_on,,8,0,2,,,,,,,,,,0,,59,0
376,set_tempo,1935483,8,1,0,,,,,,,,,,,,,
376,note_on,,302,0,1,,,,,,,,,,0,,71,40
381,note_on,,5,0,1,,,,,,,,,,0,,71,0
384,note_on,,3,0,1,,,,,,,,,,0,,79,66
384,control_change,,192,0,3,,,,,,,,64,127,0,,,
384,note_on,,8,0,2,,,,,,,,,,0,,40,36
386,control_change,,2,0,3,,,,,,,,64,0,0,,,
392,control_change,,6,0,3,,,,,,,,64,127,0,,,
400,set_tempo,1071428,24,1,0,,,,,,,,,,,,,
400,note_on,,16,0,2,,,,,,,,,,0,,40,0
400,note_on,,0,0,2,,,,,,,,,,0,,47,32
416,note_on,,16,0,2,,,,,,,,,,0,,47,0
416,set_tempo,1000000,16,1,0,,,,,,,,,,,,,
416,note_on,,0,0,2,,,,,,,,,,0,,55,36
432,set_tempo,1153846,16,1,0,,,,,,,,,,,,,
432,note_on,,0,0,2,,,,,,,,,,0,,52,34
432,note_on,,16,0,2,,,,,,,,,,0,,55,0
448,note_on,,16,0,2,,,,,,,,,,0,,52,0
448,note_on,,0,0,2,,,,,,,,,,0,,60,37
448,set_tempo,952380,16,1,0,,,,,,,,,,,,,
464,note_on,,16,0,2,,,,,,,,,,0,,60,0
464,set_tempo,1153846,16,1,0,,,,,,,,,,,,,
464,note_on,,0,0,2,,,,,,,,,,0,,59,36
472,note_on,,8,0,2,,,,,,,,,,0,,59,0
480,set_tempo,1000000,16,1,0,,,,,,,,,,,,,
480,note_on,,8,0,2,,,,,,,,,,0,,40,36
496,note_on,,0,0,2,,,,,,,,,,0,,47,34
496,note_on,,16,0,2,,,,,,,,,,0,,40,0
496,set_tempo,983606,16,1,0,,,,,,,,,,,,,
512,set_tempo,1071428,16,1,0,,,,,,,,,,,,,
512,note_on,,0,0,2,,,,,,,,,,0,,55,37
512,note_on,,16,0,2,,,,,,,,,,0,,47,0
526,note_on,,142,0,1,,,,,,,,,,0,,79,0
528,note_on,,2,0,1,,,,,,,,,,0,,78,68
528,note_on,,16,0,2,,,,,,,,,,0,,55,0
528,note_on,,0,0,2,,,,,,,,,,0,,52,34
528,set_tempo,1034482,16,1,0,,,,,,,,,,,,,
544,set_tempo,1111111,16,1,0,,,,,,,,,,,,,
544,note_on,,16,0,2,,,,,,,,,,0,,52,0
544,note_on,,0,0,2,,,,,,,,,,0,,60,36
552,note_on,,24,0,1,,,,,,,,,,0,,78,0
552,note_on,,0,0,1,,,,,,,,,,0,,76,60
560,note_on,,0,0,2,,,,,,,,,,0,,59,34
560,set_tempo,1250000,16,1,0,,,,,,,,,,,,,
560,note_on,,16,0,2,,,,,,,,,,0,,60,0
568,note_on,,8,0,2,,,,,,,,,,0,,59,0
576,note_on,,24,0,1,,,,,,,,,,0,,76,0
576,note_on,,0,0,1,,,,,,,,,,0,,75,50
576,control_change,,184,0,3,,,,,,,,64,127,0,,,
576,set_tempo,1304347,16,1,0,,,,,,,,,,,,,
576,note_on,,8,0,2,,,,,,,,,,0,,42,32
578,control_change,,2,0,3,,,,,,,,64,0,0,,,
584,control_change,,6,0,3,,,,,,,,64,127,0,,,
592,note_on,,0,0,2,,,,,,,,,,0,,47,30
592,note_on,,16,0,2,,,,,,,,,,0,,42,0
592,set_tempo,1000000,16,1,0,,,,,,,,,,,,,
608,note_on,,0,0,2,,,,,,,,,,0,,57,34
608,note_on,,16,0,2,,,,,,,,,,0,,47,0
608,set_tempo,952380,16,1,0,,,,,,,,,,,,,
624,set_tempo,983606,16,1,0,,,,,,,,,,,,,
624,note_on,,0,0,2,,,,,,,,,,0,,54,36
624,note_on,,16,0,2,,,,,,,,,,0,,57,0
640,note_on,,0,0,2,,,,,,,,,,0,,60,40
640,note_on,,16,0,2,,,,,,,,,,0,,54,0
656,note_on,,16,0,2,,,,,,,,,,0,,60,0
656,note_on,,0,0,2,,,,,,,,,,0,,59,38
656,set_tempo,1000000,32,1,0,,,,,,,,,,,,,
664,note_on,,8,0,2,,,,,,,,,,0,,59,0
672,set_tempo,983606,16,1,0,,,,,,,,,,,,,
672,note_on,,8,0,2,,,,,,,,,,0,,43,40
674,control_change,,90,0,3,,,,,,,,64,0,0,,,
680,control_change,,6,0,3,,,,,,,,64,127,0,,,
688,note_on,,16,0,2,,,,,,,,,,0,,43,0
688,note_on,,0,0,2,,,,,,,,,,0,,47,38
688,set_tempo,1000000,16,1,0,,,,,,,,,,,,,
704,note_on,,16,0,2,,,,,,,,,,0,,47,0
704,note_on,,0,0,2,,,,,,,,,,0,,55,34
704,set_tempo,1153846,16,1,0,,,,,,,,,,,,,
718,note_on,,142,0,1,,,,,,,,,,0,,75,0
720,note_on,,0,0,2,,,,,,,,,,0,,52,30
720,set_tempo,1395348,16,1,0,,,,,,,,,,,,,
720,note_on,,2,0,1,,,,,,,,,,0,,76,48
720,note_on,,16,0,2,,,,,,,,,,0,,55,0
736,set_tempo,1304347,16,1,0,,,,,,,,,,,,,
736,note_on,,16,0,2,,,,,,,,,,0,,52,0
736,note_on,,0,0,2,,,,,,,,,,0,,60,31
752,set_tempo,2000000,16,1,0,,,,,,,,,,,,,
752,note_on,,0,0,2,,,,,,,,,,0,,59,29
752,note_on,,16,0,2,,,,,,,,,,0,,60,0
754,note_on,,34,0,1,,,,,,,,,,0,,76,0
756,note_on,,2,0,1,,,,,,,,,,0,,72,50
756,set_tempo,1000000,4,1,0,,,,,,,,,,,,,
760,note_on,,8,0,2,,,,,,,,,,0,,59,0
766,note_on,,10,0,1,,,,,,,,,,0,,72,0
768,control_change,,88,0,3,,,,,,,,64,127,0,,,
768,note_on,,8,0,2,,,,,,,,,,0,,39,30
768,set_tempo,1395348,12,1,0,,,,,,,,,,,,,
768,note_on,,2,0,1,,,,,,,,,,0,,71,48
770,control_change,,2,0,3,,,,,,,,64,0,0,,,
776,control_change,,6,0,3,,,,,,,,64,127,0,,,
784,note_on,,16,0,2,,,,,,,,,,0,,39,0
784,note_on,,0,0,2,,,,,,,,,,0,,47,28
784,set_tempo,952380,16,1,0,,,,,,,,,,,,,
800,note_on,,16,0,2,,,,,,,,,,0,,47,0
800,note_on,,0,0,2,,,,,,,,,,0,,57,32
816,note_on,,16,0,2,,,,,,,,,,0,,57,0
816,note_on,,0,0,2,,,,,,,,,,0,,54,30
832,note_on,,16,0,2,,,,,,,,,,0,,54,0
832,set_tempo,1000000,48,1,0,,,,,,,,,,,,,
832,note_on,,0,0,2,,,,,,,,,,0,,60,31
838,note_on,,70,0,1,,,,,,,,,,0,,71,0
840,note_on,,2,0,1,,,,,,,,,,0,,66,66
840,set_tempo,1071428,8,1,0,,,,,,,,,,,,,
848,note_on,,0,0,2,,,,,,,,,,0,,59,29
848,note_on,,16,0,2,,,,,,,,,,0,,60,0
848,set_tempo,1621621,8,1,0,,,,,,,,,,,,,
856,note_on,,8,0,2,,,,,,,,,,0,,59,0
862,note_on,,22,0,1,,,,,,,,,,0,,66,0
864,note_on,,2,0,1,,,,,,,,,,0,,69,57
864,note_on,,8,0,2,,,,,,,,,,0,,40,38
864,set_tempo,1000000,16,1,0,,,,,,,,,,,,,
864,note_on,,0,0,1,,,,,,,,,,0,,72,66
866,control_change,,90,0,3,,,,,,,,64,0,0,,,
872,control_change,,6,0,3,,,,,,,,64,127,0,,,
880,note_on,,16,0,2,,,,,,,,,,0,,40,0
880,set_tempo,1250000,16,1,0,,,,,,,,,,,,,
880,note_on,,0,0,2,,,,,,,,,,0,,47,29
888,note_on,,0,0,1,,,,,,,,,,0,,69,0
888,note_on,,0,0,1,,,,,,,,,,0,,67,58
888,note_on,,0,0,1,,,,,,,,,,0,,71,64
888,set_tempo,923076,8,1,0,,,,,,,,,,,,,
888,note_on,,24,0,1,,,,,,,,,,0,,72,0
896,note_on,,16,0,2,,,,,,,,,,0,,47,0
896,note_on,,0,0,2,,,,,,,,,,0,,55,32
912,note_on,,0,0,1,,,,,,,,,,0,,66,53
912,note_on,,16,0,2,,,,,,,,,,0,,55,0
912,note_on,,0,0,1,,,,,,,,,,0,,67,0
912,set_tempo,1000000,24,1,0,,,,,,,,,,,,,
912,note_on,,24,0,1,,,,,,,,,,0,,71,0
912,note_on,,0,0,1,,,,,,,,,,0,,69,60
912,note_on,,0,0,2,,,,,,,,,,0,,52,29
928,note_on,,16,0,2,,,,,,,,,,0,,52,0
928,note_on,,0,0,2,,,,,,,,,,0,,60,32
928,set_tempo,1153846,16,1,0,,,,,,,,,,,,,
936,set_tempo,1071428,8,1,0,,,,,,,,,,,,,
936,note_on,,24,0,1,,,,,,,,,,0,,69,0
936,note_on,,0,0,1,,,,,,,,,,0,,64,46
936,note_on,,0,0,1,,,,,,,,,,0,,67,56
936,note_on,,0,0,1,,,,,,,,,,0,,66,0
944,note_on,,16,0,2,,,,,,,,,,0,,60,0
944,set_tempo,1621621,8,1,0,,,,,,,,,,,,,
944,note_on,,0,0,2,,,,,,,,,,0,,59,29
952,note_on,,8,0,2,,,,,,,,,,0,,59,0
958,note_on,,22,0,1,,,,,,,,,,0,,67,0
958,note_on,,0,0,1,,,,,,,,,,0,,64,0
960,note_on,,2,0,1,,,,,,,,,,0,,63,44
960,note_on,,0,0,1,,,,,,,,,,0,,66,56
960,control_change,,88,0,3,,,,,,,,64,127,0,,,
960,set_tempo,1333333,16,1,0,,,,,,,,,,,,,
960,note_on,,8,0,2,,,,,,,,,,0,,35,30
962,control_change,,2,0,3,,,,,,,,64,0,0,,,
966,control_change,,4,0,3,,,,,,,,64,127,0,,,
970,note_on,,10,0,2,,,,,,,,,,0,,35,0
976,set_tempo,1000000,16,1,0,,,,,,,,,,,,,
976,note_on,,6,0,2,,,,,,,,,,0,,47,50
992,note_on,,16,0,2,,,,,,,,,,0,,47,0
992,note_on,,0,0,2,,,,,,,,,,0,,59,44
992,set_tempo,1463414,16,1,0,,,,,,,,,,,,,
1005,note_on,,0,0,1,,,,,,,,,,0,,63,0
1005,note_on,,45,0,1,,,,,,,,,,0,,66,0
1008,note_on,,0,0,1,,,,,,,,,,0,,67,55
1008,note_on,,3,0,1,,,,,,,,,,0,,64,45
1008,note_on,,0,0,2,,,,,,,,,,0,,58,40
1008,note_on,,16,0,2,,,,,,,,,,0,,59,0
1008,set_tempo,1621621,16,1,0,,,,,,,,,,,,,
1010,control_change,,44,0,3,,,,,,,,64,0,0,,,
1014,control_change,,4,0,3,,,,,,,,64,127,0,,,
1024,set_tempo,1153846,16,1,0,,,,,,,,,,,,,
1024,note_on,,0,0,2,,,,,,,,,,0,,55,38
1024,note_on,,16,0,2,,,,,,,,,,0,,58,0
1040,note_on,,0,0,2,,,,,,,,,,0,,46,32
1040,note_on,,16,0,2,,,,,,,,,,0,,55,0
1040,set_tempo,1621621,16,1,0,,,,,,,,,,,,,
1053,note_on,,45,0,1,,,,,,,,,,0,,67,0
1053,note_on,,0,0,1,,,,,,,,,,0,,64,0
1056,note_on,,16,0,2,,,,,,,,,,0,,46,0
1056,set_tempo,1395348,16,1,0,,,,,,,,,,,,,
1056,note_on,,0,0,2,,,,,,,,,,0,,47,30
1056,note_on,,0,0,1,,,,,,,,,,0,,66,44
1056,note_on,,3,0,1,,,,,,,,,,0,,63,34
1058,control_change,,44,0,3,,,,,,,,64,0,0,,,
1064,control_change,,6,0,3,,,,,,,,64,127,0,,,
1066,note_on,,10,0,2,,,,,,,,,,0,,47,0
1072,set_tempo,1071428,16,1,0,,,,,,,,,,,,,
1072,note_on,,6,0,2,,,,,,,,,,0,,35,32
1078,note_on,,22,0,1,,,,,,,,,,0,,66,0
1078,note_on,,0,0,1,,,,,,,,,,0,,63,0
1088,set_tempo,1111111,16,1,0,,,,,,,,,,,,,
1088,note_on,,0,0,2,,,,,,,,,,0,,47,36
1088,note_on,,16,0,2,,,,,,,,,,0,,35,0
1104,note_on,,0,0,2,,,,,,,,,,0,,51,36
1104,set_tempo,1071428,16,1,0,,,,,,,,,,,,,
1104,note_on,,16,0,2,,,,,,,,,,0,,47,0
1120,set_tempo,1153846,16,1,0,,,,,,,,,,,,,
1120,note_on,,0,0,2,,,,,,,,,,0,,54,37
1120,note_on,,16,0,2,,,,,,,,,,0,,51,0
1136,set_tempo,1621621,16,1,0,,,,,,,,,,,,,
1136,note_on,,16,0,2,,,,,,,,,,0,,54,0
1136,note_on,,0,0,2,,,,,,,,,,0,,59,38
1144,note_on,,8,0,2,,,,,,,,,,0,,59,0
1152,note_on,,8,0,2,,,,,,,,,,0,,43,42
1152,set_tempo,1250000,16,1,0,,,,,,,,,,,,,
1152,note_on,,0,0,1,,,,,,,,,,0,,71,56
1152,control_change,,88,0,3,,,,,,,,64,127,0,,,
1152,note_on,,74,0,1,,,,,,,,,,0,,62,46
1154,control_change,,2,0,3,,,,,,,,64,0,0,,,
1160,control_change,,6,0,3,,,,,,,,64,127,0,,,
1168,set_tempo,952380,16,1,0,,,,,,,,,,,,,
1168,note_on,,16,0,2,,,,,,,,,,0,,43,0
1168,note_on,,0,0,2,,,,,,,,,,0,,50,44
1184,note_on,,16,0,2,,,,,,,,,,0,,50,0
1184,note_on,,0,0,2,,,,,,,,,,0,,59,46
1184,set_tempo,1000000,16,1,0,,,,,,,,,,,,,
1197,note_on,,45,0,1,,,,,,,,,,0,,71,0
1197,note_on,,0,0,1,,,,,,,,,,0,,62,0
1200,note_on,,3,0,1,,,,,,,,,,0,,65,54
1200,note_on,,0,0,1,,,,,,,,,,0,,71,62
1200,note_on,,0,0,2,,,,,,,,,,0,,55,40
1200,note_on,,16,0,2,,,,,,,,,,0,,59,0
1200,set_tempo,983606,16,1,0,,,,,,,,,,,,,
1216,note_on,,0,0,2,,,,,,,,,,0,,64,54
1216,note_on,,16,0,2,,,,,,,,,,0,,55,0
1216,set_tempo,1034482,16,1,0,,,,,,,,,,,,,
1232,note_on,,0,0,2,,,,,,,,,,0,,62,52
1232,set_tempo,1250000,16,1,0,,,,,,,,,,,,,
1232,note_on,,16,0,2,,,,,,,,,,0,,64,0
1240,note_on,,8,0,2,,,,,,,,,,0,,62,0
1245,note_on,,45,0,1,,,,,,,,,,0,,65,0
1248,note_on,,8,0,2,,,,,,,,,,0,,42,48
1248,set_tempo,1153846,16,1,0,,,,,,,,,,,,,
1248,note_on,,3,0,1,,,,,,,,,,0,,66,56
1250,control_change,,90,0,3,,,,,,,,64,0,0,,,
1254,control_change,,4,0,3,,,,,,,,64,127,0,,,
1258,note_on,,10,0,2,,,,,,,,,,0,,42,0
1264,set_tempo,952380,16,1,0,,,,,,,,,,,,,
1264,note_on,,6,0,2,,,,,,,,,,0,,54,42
1280,note_on,,16,0,2,,,,,,,,,,0,,54,0
1280,note_on,,0,0,2,,,,,,,,,,0,,61,48
1292,note_on,,44,0,1,,,,,,,,,,0,,71,0
1293,note_on,,1,0,1,,,,,,,,,,0,,66,0
1296,note_on,,3,0,1,,,,,,,,,,0,,70,60
1296,note_on,,0,0,1,,,,,,,,,,0,,73,68
1296,set_tempo,983606,32,1,0,,,,,,,,,,,,,
1296,note_on,,0,0,2,,,,,,,,,,0,,64,52
1296,note_on,,16,0,2,,,,,,,,,,0,,61,0
1312,set_tempo,1000000,16,1,0,,,,,,,,,,,,,
1312,note_on,,16,0,2,,,,,,,,,,0,,64,0
1312,note_on,,0,0,2,,,,,,,,,,0,,61,54
1328,note_on,,16,0,2,,,,,,,,,,0,,61,0
1328,note_on,,0,0,2,,,,,,,,,,0,,54,50
1328,set_tempo,1111111,16,1,0,,,,,,,,,,,,,
1341,note_on,,45,0,1,,,,,,,,,,0,,73,0
1341,note_on,,0,0,1,,,,,,,,,,0,,70,0
1344,note_on,,16,0,2,,,,,,,,,,0,,54,0
1344,note_on,,0,0,2,,,,,,,,,,0,,47,48
1344,control_change,,90,0,3,,,,,,,,64,127,0,,,
1344,set_tempo,1071428,16,1,0,,,,,,,,,,,,,
1344,note_on,,0,0,1,,,,,,,,,,0,,74,70
1344,note_on,,3,0,1,,,,,,,,,,0,,71,60
1346,control_change,,2,0,3,,,,,,,,64,0,0,,,
1352,control_change,,6,0,3,,,,,,,,64,127,0,,,
1360,set_tempo,1000000,16,1,0,,,,,,,,,,,,,
1360,note_on,,16,0,2,,,,,,,,,,0,,47,0
1360,note_on,,0,0,2,,,,,,,,,,0,,54,48
1376,set_tempo,983606,16,1,0,,,,,,,,,,,,,
1376,note_on,,16,0,2,,,,,,,,,,0,,54,0
1376,note_on,,0,0,2,,,,,,,,,,0,,62,50
1392,note_on,,0,0,2,,,,,,,,,,0,,59,47
1392,note_on,,16,0,2,,,,,,,,,,0,,62,0
1408,set_tempo,1000000,32,1,0,,,,,,,,,,,,,
1408,note_on,,0,0,2,,,,,,,,,,0,,67,54
1408,note_on,,16,0,2,,,,,,,,,,0,,59,0
1424,note_on,,0,0,2,,,,,,,,,,0,,66,55
1424,note_on,,16,0,2,,,,,,,,,,0,,67,0
1424,set_tempo,1071428,16,1,0,,,,,,,,,,,,,
1436,note_on,,92,0,1,,,,,,,,,,0,,74,0
1436,note_on,,0,0,1,,,,,,,,,,0,,71,0
1440,set_tempo,983606,16,1,0,,,,,,,,,,,,,
1440,note_on,,4,0,1,,,,,,,,,,0,,71,46
1440,note_on,,16,0,2,,,,,,,,,,0,,66,0
1440,note_on,,0,0,2,,,,,,,,,,0,,65,55
1440,note_on,,0,0,1,,,,,,,,,,0,,74,60
1442,control_change,,90,0,3,,,,,,,,64,0,0,,,
1448,control_change,,6,0,3,,,,,,,,64,127,0,,,
1456,note_on,,16,0,2,,,,,,,,,,0,,65,0
1456,set_tempo,952380,16,1,0,,,,,,,,,,,,,
1456,note_on,,0,0,2,,,,,,,,,,0,,62,48
1472,note_on,,0,0,2,,,,,,,,,,0,,59,40
1472,note_on,,16,0,2,,,,,,,,,,0,,62,0
1472,set_tempo,1034482,16,1,0,,,,,,,,,,,,,
1485,note_on,,45,0,1,,,,,,,,,,0,,74,0
1488,note_on,,16,0,2,,,,,,,,,,0,,59,0
1488,note_on,,3,0,1,,,,,,,,,,0,,74,50
1488,set_tempo,1111111,16,1,0,,,,,,,,,,,,,
1488,note_on,,0,0,2,,,,,,,,,,0,,56,34
1504,set_tempo,1153846,16,1,0,,,,,,,,,,,,,
1504,note_on,,16,0,2,,,,,,,,,,0,,56,0
1504,note_on,,0,0,2,,,,,,,,,,0,,53,32
1520,set_tempo,1463414,16,1,0,,,,,,,,,,,,,
1520,note_on,,0,0,2,,,,,,,,,,0,,41,30
1520,note_on,,16,0,2,,,,,,,,,,0,,53,0
1532,note_on,,44,0,1,,,,,,,,,,0,,71,0
1533,note_on,,1,0,1,,,,,,,,,,0,,74,0
1536,note_on,,3,0,1,,,,,,,,,,0,,71,44
1536,note_on,,0,0,1,,,,,,,,,,0,,73,50
1536,set_tempo,1333333,16,1,0,,,,,,,,,,,,,
1536,note_on,,0,0,2,,,,,,,,,,0,,42,30
1536,control_change,,88,0,3,,,,,,,,64,127,0,,,
1536,note_on,,16,0,2,,,,,,,,,,0,,41,0
1538,control_change,,2,0,3,,,,,,,,64,0,0,,,
1544,control_change,,6,0,3,,,,,,,,64,127,0,,,
1552,set_tempo,1153846,16,1,0,,,,,,,,,,,,,
1552,note_on,,0,0,2,,,,,,,,,,0,,54,36
1552,note_on,,16,0,2,,,,,,,,,,0,,42,0
1568,note_on,,0,0,2,,,,,,,,,,0,,61,34
1568,note_on,,16,0,2,,,,,,,,,,0,,54,0
1568,set_tempo,1111111,16,1,0,,,,,,,,,,,,,
1584,note_on,,0,0,2,,,,,,,,,,0,,64,38
1584,note_on,,16,0,2,,,,,,,,,,0,,61,0
1600,set_tempo,1200000,32,1,0,,,,,,,,,,,,,
1600,note_on,,0,0,2,,,,,,,,,,0,,67,32
1600,note_on,,16,0,2,,,,,,,,,,0,,64,0
1616,note_on,,0,0,2,,,,,,,,,,0,,66,30
1616,note_on,,16,0,2,,,,,,,,,,0,,67,0
1616,set_tempo,1250000,16,1,0,,,,,,,,,,,,,
1628,note_on,,92,0,1,,,,,,,,,,0,,71,0
1632,note_on,,16,0,2,,,,,,,,,,0,,66,0
1632,note_on,,0,0,2,,,,,,,,,,0,,64,30
1632,note_on,,4,0,1,,,,,,,,,,0,,70,38
1632,set_tempo,1200000,16,1,0,,,,,,,,,,,,,
1634,control_change,,90,0,3,,,,,,,,64,0,0,,,
1640,control_change,,6,0,3,,,,,,,,64,127,0,,,
1648,note_on,,16,0,2,,,,,,,,,,0,,64,0
1648,note_on,,0,0,2,,,,,,,,,,0,,61,28
1664,note_on,,16,0,2,,,,,,,,,,0,,61,0
1664,note_on,,0,0,2,,,,,,,,,,0,,58,26
1664,set_tempo,1333333,32,1,0,,,,,,,,,,,,,
1680,set_tempo,1463414,16,1,0,,,,,,,,,,,,,
1680,note_on,,16,0,2,,,,,,,,,,0,,58,0
1680,note_on,,0,0,2,,,,,,,,,,0,,54,28
1696,note_on,,16,0,2,,,,,,,,,,0,,54,0
1696,note_on,,0,0,2,,,,,,,,,,0,,42,27
1696,set_tempo,1621621,16,1,0,,,,,,,,,,,,,
1712,note_on,,16,0,2,,,,,,,,,,0,,42,0
1712,set_tempo,2000000,16,1,0,,,,,,,,,,,,,
1712,note_on,,0,0,2,,,,,,,,,,0,,30,26
1724,note_on,,92,0,1,,,,,,,,,,0,,70,0
1724,note_on,,0,0,1,,,,,,,,,,0,,73,0
1728,note_on,,16,0,2,,,,,,,,,,0,,30,0
1728,note_on,,0,0,2,,,,,,,,,,0,,35,26
1728,control_change,,88,0,3,,,,,,,,64,127,0,,,
1728,set_tempo,1333333,16,1,0,,,,,,,,,,,,,
1728,note_on,,4,0,1,,,,,,,,,,0,,71,44
1730,control_change,,2,0,3,,,,,,,,64,0,0,,,
1736,control_change,,6,0,3,,,,,,,,64,127,0,,,
1744,note_on,,16,0,2,,,,,,,,,,0,,35,0
1744,note_on,,0,0,2,,,,,,,,,,0,,47,34
1744,set_tempo,1111111,16,1,0,,,,,,,,,,,,,
1760,note_on,,16,0,2,,,,,,,,,,0,,47,0
1760,note_on,,0,0,2,,,,,,,,,,0,,54,36
1760,set_tempo,1071428,16,1,0,,,,,,,,,,,,,
1774,note_on,,46,0,1,,,,,,,,,,0,,71,0
1776,note_on,,0,0,2,,,,,,,,,,0,,57,48
1776,note_on,,2,0,1,,,,,,,,,,0,,63,64
1776,set_tempo,1111111,16,1,0,,,,,,,,,,,,,
1776,note_on,,16,0,2,,,,,,,,,,0,,54,0
1792,note_on,,16,0,2,,,,,,,,,,0,,57,0
1792,set_tempo,1034482,16,1,0,,,,,,,,,,,,,
1792,note_on,,0,0,2,,,,,,,,,,0,,60,48
1808,note_on,,0,0,2,,,,,,,,,,0,,59,46
1808,set_tempo,1111111,16,1,0,,,,,,,,,,,,,
1808,note_on,,16,0,2,,,,,,,,,,0,,60,0
1824,note_on,,16,0,2,,,,,,,,,,0,,59,0
1824,note_on,,0,0,2,,,,,,,,,,0,,55,50
1824,set_tempo,1200000,16,1,0,,,,,,,,,,,,,
1824,note_on,,48,0,1,,,,,,,,,,0,,63,0
1824,note_on,,0,0,1,,,,,,,,,,0,,64,74
1826,control_change,,90,0,3,,,,,,,,64,0,0,,,
1832,control_change,,6,0,3,,,,,,,,64,127,0,,,
1840,note_on,,0,0,2,,,,,,,,,,0,,60,54
1840,note_on,,16,0,2,,,,,,,,,,0,,55,0
1840,set_tempo,1071428,16,1,0,,,,,,,,,,,,,
1856,note_on,,16,0,2,,,,,,,,,,0,,60,0
1856,note_on,,0,0,2,,,,,,,,,,0,,59,52
1856,set_tempo,1111111,16,1,0,,,,,,,,,,,,,
1872,note_on,,16,0,2,,,,,,,,,,0,,59,0
1872,set_tempo,1200000,16,1,0,,,,,,,,,,,,,
1872,note_on,,48,0,1,,,,,,,,,,0,,64,0
1872,note_on,,0,0,2,,,,,,,,,,0,,54,53
1872,note_on,,0,0,1,,,,,,,,,,0,,66,75
1888,set_tempo,1333333,16,1,0,,,,,,,,,,,,,
1888,note_on,,0,0,2,,,,,,,,,,0,,60,56
1888,note_on,,16,0,2,,,,,,,,,,0,,54,0
1904,set_tempo,1621621,16,1,0,,,,,,,,,,,,,
1904,note_on,,16,0,2,,,,,,,,,,0,,60,0
1904,note_on,,0,0,2,,,,,,,,,,0,,59,52
1912,note_on,,8,0,2,,,,,,,,,,0,,59,0
1920,note_on,,48,0,1,,,,,,,,,,0,,66,0
1920,note_on,,0,0,1,,,,,,,,,,0,,67,62
1920,note_on,,0,0,1,,,,,,,,,,0,,79,76
1920,note_on,,8,0,2,,,,,,,,,,0,,40,46
1920,control_change,,88,0,3,,,,,,,,64,127,0,,,
1922,control_change,,2,0,3,,,,,,,,64,0,0,,,
1928,control_change,,6,0,3,,,,,,,,64,127,0,,,
1936,set_tempo,1071428,32,1,0,,,,,,,,,,,,,
1936,note_on,,0,0,2,,,,,,,,,,0,,47,42
1936,note_on,,16,0,2,,,,,,,,,,0,,40,0
1952,note_on,,16,0,2,,,,,,,,,,0,,47,0
1952,note_on,,0,0,2,,,,,,,,,,0,,55,44
1952,set_tempo,1000000,16,1,0,,,,,,,,,,,,,
1968,note_on,,16,0,2,,,,,,,,,,0,,55,0
1968,note_on,,0,0,2,,,,,,,,,,0,,52,39
1968,set_tempo,952380,16,1,0,,,,,,,,,,,,,
1984,set_tempo,983606,16,1,0,,,,,,,,,,,,,
1984,note_on,,0,0,2,,,,,,,,,,0,,60,40
1984,note_on,,16,0,2,,,,,,,,,,0,,52,0
2000,note_on,,0,0,2,,,,,,,,,,0,,59,38
2000,note_on,,16,0,2,,,,,,,,,,0,,60,0
2000,set_tempo,1071428,16,1,0,,,,,,,,,,,,,
2008,note_on,,8,0,2,,,,,,,,,,0,,59,0
2016,set_tempo,983606,16,1,0,,,,,,,,,,,,,
2016,note_on,,8,0,2,,,,,,,,,,0,,40,42
2018,control_change,,90,0,3,,,,,,,,64,0,0,,,
2024,control_change,,6,0,3,,,,,,,,64,127,0,,,
2032,note_on,,16,0,2,,,,,,,,,,0,,40,0
2032,note_on,,0,0,2,,,,,,,,,,0,,47,38
2032,set_tempo,952380,16,1,0,,,,,,,,,,,,,
2048,set_tempo,983606,16,1,0,,,,,,,,,,,,,
2048,note_on,,0,0,2,,,,,,,,,,0,,55,44
2048,note_on,,16,0,2,,,,,,,,,,0,,47,0
2062,note_on,,0,0,1,,,,,,,,,,0,,67,0
2062,note_on,,142,0,1,,,,,,,,,,0,,79,0
2064,note_on,,0,0,2,,,,,,,,,,0,,52,46
2064,note_on,,16,0,2,,,,,,,,,,0,,55,0
2064,set_tempo,1000000,16,1,0,,,,,,,,,,,,,
2064,note_on,,0,0,1,,,,,,,,,,0,,78,70
2064,note_on,,2,0,1,,,,,,,,,,0,,66,58
2080,set_tempo,1034482,16,1,0,,,,,,,,,,,,,
2080,note_on,,0,0,2,,,,,,,,,,0,,60,52
2080,note_on,,16,0,2,,,,,,,,,,0,,52,0
2088,note_on,,0,0,1,,,,,,,,,,0,,66,0
2088,note_on,,0,0,1,,,,,,,,,,0,,76,68
2088,note_on,,0,0,1,,,,,,,,,,0,,64,57
2088,note_on,,24,0,1,,,,,,,,,,0,,78,0
2096,note_on,,0,0,2,,,,,,,,,,0,,59,50
2096,note_on,,16,0,2,,,,,,,,,,0,,60,0
2096,set_tempo,1333333,16,1,0,,,,,,,,,,,,,
2104,note_on,,8,0,2,,,,,,,,,,0,,59,0
2110,note_on,,22,0,1,,,,,,,,,,0,,76,0
2110,note_on,,0,0,1,,,,,,,,,,0,,64,0
2112,control_change,,88,0,3,,,,,,,,64,127,0,,,
2112,note_on,,8,0,2,,,,,,,,,,0,,42,44
2112,set_tempo,1395348,16,1,0,,,,,,,,,,,,,
2112,note_on,,0,0,1,,,,,,,,,,0,,75,60
2112,note_on,,2,0,1,,,,,,,,,,0,,63,50
2114,control_change,,2,0,3,,,,,,,,64,0,0,,,
2120,control_change,,6,0,3,,,,,,,,64,127,0,,,
2128,set_tempo,983606,16,1,0,,,,,,,,,,,,,
2128,note_on,,16,0,2,,,,,,,,,,0,,42,0
2128,note_on,,0,0,2,,,,,,,,,,0,,47,40
2144,note_on,,16,0,2,,,,,,,,,,0,,47,0
2144,note_on,,0,0,2,,,,,,,,,,0,,57,42
2144,set_tempo,952380,16,1,0,,,,,,,,,,,,,
2160,set_tempo,1071428,16,1,0,,,,,,,,,,,,,
2160,note_on,,16,0,2,,,,,,,,,,0,,57,0
2160,note_on,,0,0,2,,,,,,,,,,0,,54,40
2176,set_tempo,923076,16,1,0,,,,,,,,,,,,,
2176,note_on,,16,0,2,,,,,,,,,,0,,54,0
2176,note_on,,0,0,2,,,,,,,,,,0,,60,44
2192,set_tempo,1000000,16,1,0,,,,,,,,,,,,,
2192,note_on,,16,0,2,,,,,,,,,,0,,60,0
2192,note_on,,0,0,2,,,,,,,,,,0,,59,42
2200,note_on,,8,0,2,,,,,,,,,,0,,59,0
2208,note_on,,8,0,2,,,,,,,,,,0,,43,52
2208,set_tempo,1621621,16,1,0,,,,,,,,,,,,,
2210,control_change,,90,0,3,,,,,,,,64,0,0,,,
2216,control_change,,6,0,3,,,,,,,,64,127,0,,,
2224,set_tempo,1071428,16,1,0,,,,,,,,,,,,,
2224,note_on,,112,0,1,,,,,,,,,,0,,75,0
2224,note_on,,0,0,1,,,,,,,,,,0,,64,58
2224,note_on,,0,0,1,,,,,,,,,,0,,76,68
2224,note_on,,0,0,2,,,,,,,,,,0,,47,44
2224,note_on,,16,0,2,,,,,,,,,,0,,43,0
2224,note_on,,0,0,1,,,,,,,,,,0,,63,0
2240,set_tempo,1000000,16,1,0,,,,,,,,,,,,,
2240,note_on,,16,0,1,,,,,,,,,,0,,76,0
2240,note_on,,0,0,1,,,,,,,,,,0,,64,0
2240,note_on,,0,0,1,,,,,,,,,,0,,66,68
2240,note_on,,0,0,2,,,,,,,,,,0,,55,44
2240,note_on,,16,0,2,,,,,,,,,,0,,47,0
2240,note_on,,0,0,1,,,,,,,,,,0,,78,78
2248,note_on,,8,0,1,,,,,,,,,,0,,78,0
2248,note_on,,0,0,1,,,,,,,,,,0,,66,0
2256,set_tempo,952380,16,1,0,,,,,,,,,,,,,
2256,note_on,,8,0,1,,,,,,,,,,0,,66,70
2256,note_on,,0,0,1,,,,,,,,,,0,,78,80
2256,note_on,,16,0,2,,,,,,,,,,0,,55,0
2256,note_on,,0,0,2,,,,,,,,,,0,,52,42
2272,note_on,,0,0,1,,,,,,,,,,0,,66,0
2272,set_tempo,895522,16,1,0,,,,,,,,,,,,,
2272,note_on,,16,0,1,,,,,,,,,,0,,78,0
2272,note_on,,0,0,1,,,,,,,,,,0,,67,72
2272,note_on,,0,0,1,,,,,,,,,,0,,79,82
2272,note_on,,16,0,2,,,,,,,,,,0,,52,0
2272,note_on,,0,0,2,,,,,,,,,,0,,60,46
2288,note_on,,0,0,1,,,,,,,,,,0,,69,72
2288,note_on,,16,0,1,,,,,,,,,,0,,79,0
2288,note_on,,0,0,1,,,,,,,,,,0,,81,82
2288,note_on,,16,0,2,,,,,,,,,,0,,60,0
2288,set_tempo,1395348,16,1,0,,,,,,,,,,,,,
2288,note_on,,0,0,1,,,,,,,,,,0,,67,0
2288,note_on,,0,0,2,,,,,,,,,,0,,59,44
2296,note_on,,8,0,2,,,,,,,,,,0,,59,0
2302,note_on,,14,0,1,,,,,,,,,,0,,81,0
2302,note_on,,0,0,1,,,,,,,,,,0,,69,0
2304,control_change,,88,0,3,,,,,,,,64,127,0,,,
2304,note_on,,2,0,1,,,,,,,,,,0,,71,68
2304,note_on,,8,0,2,,,,,,,,,,0,,39,43
2304,set_tempo,1621621,16,1,0,,,,,,,,,,,,,
2304,note_on,,0,0,1,,,,,,,,,,0,,83,78
2306,control_change,,2,0,3,,,,,,,,64,0,0,,,
2312,control_change,,6,0,3,,,,,,,,64,127,0,,,
2320,set_tempo,1111111,16,1,0,,,,,,,,,,,,,
2320,note_on,,16,0,2,,,,,,,,,,0,,39,0
2320,note_on,,0,0,2,,,,,,,,,,0,,47,37
2336,set_tempo,1071428,16,1,0,,,,,,,,,,,,,
2336,note_on,,0,0,2,,,,,,,,,,0,,57,41
2336,note_on,,16,0,2,,,,,,,,,,0,,47,0
2352,note_on,,0,0,2,,,,,,,,,,0,,54,36
2352,note_on,,16,0,2,,,,,,,,,,0,,57,0
2352,set_tempo,1000000,16,1,0,,,,,,,,,,,,,
2368,note_on,,0,0,2,,,,,,,,,,0,,60,37
2368,set_tempo,1111111,16,1,0,,,,,,,,,,,,,
2368,note_on,,16,0,2,,,,,,,,,,0,,54,0
2374,note_on,,70,0,1,,,,,,,,,,0,,83,0
2374,note_on,,0,0,1,,,,,,,,,,0,,71,0
2376,note_on,,0,0,1,,,,,,,,,,0,,71,66
2376,note_on,,2,0,1,,,,,,,,,,0,,69,36
2376,set_tempo,1250000,8,1,0,,,,,,,,,,,,,
2384,set_tempo,1463414,8,1,0,,,,,,,,,,,,,
2384,note_on,,16,0,2,,,,,,,,,,0,,60,0
2384,note_on,,0,0,2,,,,,,,,,,0,,59,34
2392,note_on,,0,0,1,,,,,,,,,,0,,69,0
2392,note_on,,16,0,1,,,,,,,,,,0,,71,0
2392,note_on,,8,0,2,,,,,,,,,,0,,59,0
2400,set_tempo,1935483,16,1,0,,,,,,,,,,,,,
2400,note_on,,0,0,1,,,,,,,,,,0,,71,56
2400,note_on,,8,0,1,,,,,,,,,,0,,69,40
2400,note_on,,8,0,2,,,,,,,,,,0,,40,38
2402,control_change,,90,0,3,,,,,,,,64,0,0,,,
2408,control_change,,6,0,3,,,,,,,,64,127,0,,,
2414,note_on,,14,0,1,,,,,,,,,,0,,69,0
2416,note_on,,0,0,2,,,,,,,,,,0,,47,30
2416,set_tempo,1538461,16,1,0,,,,,,,,,,,,,
2416,note_on,,2,0,1,,,,,,,,,,0,,68,48
2416,note_on,,16,0,2,,,,,,,,,,0,,40,0
2430,note_on,,14,0,1,,,,,,,,,,0,,68,0
2432,set_tempo,1200000,16,1,0,,,,,,,,,,,,,
2432,note_on,,16,0,2,,,,,,,,,,0,,47,0
2432,note_on,,0,0,2,,,,,,,,,,0,,55,32
2432,note_on,,2,0,1,,,,,,,,,,0,,67,44
2445,note_on,,13,0,1,,,,,,,,,,0,,71,0
2446,note_on,,1,0,1,,,,,,,,,,0,,67,0
2448,note_on,,16,0,2,,,,,,,,,,0,,55,0
2448,note_on,,0,0,2,,,,,,,,,,0,,52,28
2448,set_tempo,1250000,16,1,0,,,,,,,,,,,,,
2448,note_on,,0,0,1,,,,,,,,,,0,,71,52
2448,note_on,,2,0,1,,,,,,,,,,0,,67,42
2462,note_on,,14,0,1,,,,,,,,,,0,,71,0
2462,note_on,,0,0,1,,,,,,,,,,0,,67,0
2464,note_on,,0,0,2,,,,,,,,,,0,,60,30
2464,note_on,,16,0,2,,,,,,,,,,0,,52,0
2464,set_tempo,1200000,16,1,0,,,,,,,,,,,,,
2464,note_on,,0,0,1,,,,,,,,,,0,,69,50
2464,note_on,,2,0,1,,,,,,,,,,0,,66,40
2478,note_on,,0,0,1,,,,,,,,,,0,,66,0
2478,note_on,,14,0,1,,,,,,,,,,0,,69,0
2480,note_on,,16,0,2,,,,,,,,,,0,,60,0
2480,set_tempo,1333333,16,1,0,,,,,,,,,,,,,
2480,note_on,,0,0,2,,,,,,,,,,0,,59,28
2480,note_on,,2,0,1,,,,,,,,,,0,,64,36
2480,note_on,,0,0,1,,,,,,,,,,0,,67,46
2488,note_on,,8,0,2,,,,,,,,,,0,,59,0
2494,note_on,,14,0,1,,,,,,,,,,0,,67,0
2494,note_on,,0,0,1,,,,,,,,,,0,,64,0
2496,note_on,,0,0,1,,,,,,,,,,0,,66,50
2496,set_tempo,1395348,16,1,0,,,,,,,,,,,,,
2496,note_on,,8,0,2,,,,,,,,,,0,,35,28
2496,note_on,,2,0,1,,,,,,,,,,0,,63,44
2496,control_change,,88,0,3,,,,,,,,64,127,0,,,
2498,control_change,,2,0,3,,,,,,,,64,0,0,,,
2502,control_change,,4,0,3,,,,,,,,64,127,0,,,
2506,note_on,,10,0,2,,,,,,,,,,0,,35,0
2512,set_tempo,1153846,16,1,0,,,,,,,,,,,,,
2512,note_on,,6,0,2,,,,,,,,,,0,,47,50
2528,note_on,,0,0,2,,,,,,,,,,0,,59,46
2528,note_on,,16,0,2,,,,,,,,,,0,,47,0
2528,set_tempo,1304347,16,1,0,,,,,,,,,,,,,
2540,note_on,,44,0,1,,,,,,,,,,0,,66,0
2540,note_on,,0,0,1,,,,,,,,,,0,,63,0
2542,note_on,,0,0,1,,,,,,,,,,0,,67,58
2542,set_tempo,3333333,14,1,0,,,,,,,,,,,,,
2542,note_on,,2,0,1,,,,,,,,,,0,,64,46
2544,set_tempo,2000000,2,1,0,,,,,,,,,,,,,
2544,note_on,,16,0,2,,,,,,,,,,0,,59,0
2544,note_on,,0,0,2,,,,,,,,,,0,,58,48
2546,control_change,,44,0,3,,,,,,,,64,0,0,,,
2552,control_change,,6,0,3,,,,,,,,64,127,0,,,
2558,note_on,,16,0,1,,,,,,,,,,0,,64,0
2560,note_on,,16,0,2,,,,,,,,,,0,,58,0
2560,note_on,,2,0,1,,,,,,,,,,0,,76,56
2560,note_on,,0,0,2,,,,,,,,,,0,,47,36
2560,set_tempo,1395348,16,1,0,,,,,,,,,,,,,
2568,note_on,,8,0,2,,,,,,,,,,0,,47,0
2568,note_on,,0,0,1,,,,,,,,,,0,,67,0
2568,note_on,,8,0,1,,,,,,,,,,0,,76,0
2576,set_tempo,1538461,16,1,0,,,,,,,,,,,,,
2576,note_on,,8,0,2,,,,,,,,,,0,,35,36
2576,note_on,,8,0,1,,,,,,,,,,0,,67,42
2576,note_on,,0,0,1,,,,,,,,,,0,,76,55
2590,note_on,,14,0,1,,,,,,,,,,0,,76,0
2590,note_on,,0,0,1,,,,,,,,,,0,,67,0
2592,note_on,,2,0,1,,,,,,,,,,0,,66,44
2592,note_on,,0,0,1,,,,,,,,,,0,,75,52
2592,set_tempo,1463414,16,1,0,,,,,,,,,,,,,
2592,note_on,,16,0,2,,,,,,,,,,0,,35,0
2592,note_on,,0,0,2,,,,,,,,,,0,,47,36
2594,control_change,,42,0,3,,,,,,,,64,0,0,,,
2600,control_change,,6,0,3,,,,,,,,64,127,0,,,
2608,note_on,,16,0,2,,,,,,,,,,0,,47,0
2608,set_tempo,1000000,16,1,0,,,,,,,,,,,,,
2608,note_on,,0,0,2,,,,,,,,,,0,,35,38
2624,set_tempo,1111111,16,1,0,,,,,,,,,,,,,
2624,note_on,,16,0,2,,,,,,,,,,0,,35,0
2624,note_on,,0,0,2,,,,,,,,,,0,,47,38
2640,set_tempo,1200000,16,1,0,,,,,,,,,,,,,
2640,note_on,,0,0,2,,,,,,,,,,0,,51,36
2640,note_on,,16,0,2,,,,,,,,,,0,,47,0
2656,note_on,,0,0,2,,,,,,,,,,0,,54,33
2656,note_on,,16,0,2,,,,,,,,,,0,,51,0
2656,set_tempo,1250000,16,1,0,,,,,,,,,,,,,
2672,set_tempo,1818181,16,1,0,,,,,,,,,,,,,
2672,note_on,,0,0,2,,,,,,,,,,0,,59,30
2672,note_on,,16,0,2,,,,,,,,,,0,,54,0
2680,note_on,,8,0,2,,,,,,,,,,0,,59,0
2684,note_on,,0,0,1,,,,,,,,,,0,,66,0
2684,note_on,,92,0,1,,,,,,,,,,0,,75,0
2688,set_tempo,1250000,16,1,0,,,,,,,,,,,,,
2688,note_on,,4,0,1,,,,,,,,,,0,,66,50
2688,note_on,,0,0,1,,,,,,,,,,0,,74,66
2688,control_change,,88,0,3,,,,,,,,64,127,0,,,
2688,note_on,,8,0,2,,,,,,,,,,0,,47,36
2690,control_change,,2,0,3,,,,,,,,64,0,0,,,
2696,control_change,,6,0,3,,,,,,,,64,127,0,,,
2704,note_on,,16,0,2,,,,,,,,,,0,,47,0
2704,note_on,,0,0,2,,,,,,,,,,0,,35,36
2704,set_tempo,983606,16,1,0,,,,,,,,,,,,,
2720,note_on,,16,0,2,,,,,,,,,,0,,35,0
2720,note_on,,0,0,2,,,,,,,,,,0,,47,36
2720,set_tempo,952380,16,1,0,,,,,,,,,,,,,
2734,note_on,,46,0,1,,,,,,,,,,0,,66,0
2736,note_on,,2,0,1,,,,,,,,,,0,,67,56
2736,set_tempo,923076,16,1,0,,,,,,,,,,,,,
2736,note_on,,16,0,2,,,,,,,,,,0,,47,0
2736,note_on,,0,0,2,,,,,,,,,,0,,50,38
2752,set_tempo,952380,16,1,0,,,,,,,,,,,,,
2752,note_on,,0,0,2,,,,,,,,,,0,,55,40
2752,note_on,,16,0,2,,,,,,,,,,0,,50,0
2758,note_on,,22,0,1,,,,,,,,,,0,,67,0
2760,set_tempo,1111111,8,1,0,,,,,,,,,,,,,
2760,note_on,,2,0,1,,,,,,,,,,0,,65,54
2768,set_tempo,1071428,8,1,0,,,,,,,,,,,,,
2768,note_on,,16,0,2,,,,,,,,,,0,,55,0
2768,note_on,,0,0,2,,,,,,,,,,0,,59,38
2782,note_on,,22,0,1,,,,,,,,,,0,,65,0
2784,set_tempo,895522,16,1,0,,,,,,,,,,,,,
2784,note_on,,16,0,2,,,,,,,,,,0,,59,0
2784,note_on,,0,0,2,,,,,,,,,,0,,60,42
2784,note_on,,2,0,1,,,,,,,,,,0,,64,53
2786,control_change,,90,0,3,,,,,,,,64,0,0,,,
2792,control_change,,6,0,3,,,,,,,,64,127,0,,,
2800,set_tempo,869565,16,1,0,,,,,,,,,,,,,
2800,note_on,,16,0,2,,,,,,,,,,0,,60,0
2800,note_on,,0,0,2,,,,,,,,,,0,,59,40
2816,set_tempo,895522,16,1,0,,,,,,,,,,,,,
2816,note_on,,16,0,2,,,,,,,,,,0,,59,0
2816,note_on,,0,0,2,,,,,,,,,,0,,60,42
2830,note_on,,46,0,1,,,,,,,,,,0,,74,0
2832,note_on,,2,0,1,,,,,,,,,,0,,72,68
2832,note_on,,16,0,2,,,,,,,,,,0,,60,0
2832,note_on,,0,0,2,,,,,,,,,,0,,55,38
2848,note_on,,16,0,2,,,,,,,,,,0,,55,0
2848,note_on,,0,0,2,,,,,,,,,,0,,52,36
2864,set_tempo,1000000,48,1,0,,,,,,,,,,,,,
2864,note_on,,0,0,2,,,,,,,,,,0,,48,32
2864,note_on,,16,0,2,,,,,,,,,,0,,52,0
2878,note_on,,46,0,1,,,,,,,,,,0,,64,0
2880,note_on,,0,0,2,,,,,,,,,,0,,43,36
2880,note_on,,16,0,2,,,,,,,,,,0,,48,0
2880,note_on,,2,0,1,,,,,,,,,,0,,65,54
2880,control_change,,88,0,3,,,,,,,,64,127,0,,,
2881,note_on,,1,0,1,,,,,,,,,,0,,72,0
2882,control_change,,2,0,3,,,,,,,,64,0,0,,,
2888,control_change,,6,0,3,,,,,,,,64,127,0,,,
2896,note_on,,0,0,2,,,,,,,,,,0,,50,40
2896,set_tempo,769230,32,1,0,,,,,,,,,,,,,
2896,note_on,,16,0,2,,,,,,,,,,0,,43,0
2904,note_on,,23,0,1,,,,,,,,,,0,,71,60
2904,set_tempo,1153846,8,1,0,,,,,,,,,,,,,
2912,set_tempo,952380,8,1,0,,,,,,,,,,,,,
2912,note_on,,16,0,2,,,,,,,,,,0,,50,0
2912,note_on,,0,0,2,,,,,,,,,,0,,55,38
2916,set_tempo,535714,4,1,0,,,,,,,,,,,,,
2916,note_on,,0,0,1,,,,,,,,,,0,,69,52
2916,note_on,,12,0,1,,,,,,,,,,0,,71,0
2922,note_on,,0,0,1,,,,,,,,,,0,,71,54
2922,note_on,,6,0,1,,,,,,,,,,0,,69,0
2928,note_on,,0,0,1,,,,,,,,,,0,,69,56
2928,note_on,,6,0,1,,,,,,,,,,0,,71,0
2928,set_tempo,1621621,12,1,0,,,,,,,,,,,,,
2928,note_on,,0,0,2,,,,,,,,,,0,,59,30
2928,note_on,,16,0,2,,,,,,,,,,0,,55,0
2944,set_tempo,1153846,16,1,0,,,,,,,,,,,,,
2944,note_on,,16,0,2,,,,,,,,,,0,,59,0
2944,note_on,,0,0,2,,,,,,,,,,0,,64,36
2952,set_tempo,1071428,8,1,0,,,,,,,,,,,,,
2952,note_on,,0,0,1,,,,,,,,,,0,,67,48
2952,note_on,,24,0,1,,,,,,,,,,0,,69,0
2960,note_on,,16,0,2,,,,,,,,,,0,,64,0
2960,note_on,,0,0,2,,,,,,,,,,0,,62,34
2960,set_tempo,1250000,8,1,0,,,,,,,,,,,,,
2968,note_on,,16,0,1,,,,,,,,,,0,,67,0
2974,note_on,,6,0,1,,,,,,,,,,0,,65,0
2976,set_tempo,1071428,16,1,0,,,,,,,,,,,,,
2976,note_on,,2,0,1,,,,,,,,,,0,,64,40
2976,note_on,,0,0,2,,,,,,,,,,0,,60,34
2976,note_on,,16,0,2,,,,,,,,,,0,,62,0
2976,note_on,,0,0,1,,,,,,,,,,0,,67,48
2978,control_change,,90,0,3,,,,,,,,64,0,0,,,
2984,note_on,,8,0,2,,,,,,,,,,0,,60,0
2984,control_change,,6,0,3,,,,,,,,64,127,0,,,
2992,set_tempo,821917,16,1,0,,,,,,,,,,,,,
2992,note_on,,8,0,2,,,,,,,,,,0,,48,38
3008,note_on,,16,0,2,,,,,,,,,,0,,48,0
3008,note_on,,0,0,2,,,,,,,,,,0,,52,50
3008,set_tempo,895522,16,1,0,,,,,,,,,,,,,
3016,note_on,,40,0,1,,,,,,,,,,0,,67,0
3024,note_on,,16,0,2,,,,,,,,,,0,,52,0
3024,note_on,,0,0,2,,,,,,,,,,0,,55,46
3024,note_on,,8,0,1,,,,,,,,,,0,,67,62
3024,set_tempo,952380,16,1,0,,,,,,,,,,,,,
3040,note_on,,16,0,1,,,,,,,,,,0,,67,0
3040,set_tempo,895522,16,1,0,,,,,,,,,,,,,
3040,note_on,,16,0,2,,,,,,,,,,0,,55,0
3040,note_on,,0,0,2,,,,,,,,,,0,,60,42
3048,note_on,,8,0,1,,,,,,,,,,0,,67,68
3056,set_tempo,1111111,16,1,0,,,,,,,,,,,,,
3056,note_on,,16,0,2,,,,,,,,,,0,,60,0
3056,note_on,,0,0,2,,,,,,,,,,0,,64,38
3064,note_on,,16,0,1,,,,,,,,,,0,,67,0
3064,note_on,,0,0,1,,,,,,,,,,0,,64,0
3072,set_tempo,1250000,16,1,0,,,,,,,,,,,,,
3072,note_on,,16,0,2,,,,,,,,,,0,,64,0
3072,note_on,,0,0,2,,,,,,,,,,0,,61,36
3072,control_change,,88,0,3,,,,,,,,64,127,0,,,
3072,note_on,,8,0,1,,,,,,,,,,0,,64,42
3072,note_on,,0,0,1,,,,,,,,,,0,,67,46
3072,note_on,,0,0,1,,,,,,,,,,0,,69,60
3074,control_change,,2,0,3,,,,,,,,64,0,0,,,
3080,control_change,,6,0,3,,,,,,,,64,127,0,,,
3088,set_tempo,895522,16,1,0,,,,,,,,,,,,,
3088,note_on,,16,0,2,,,,,,,,,,0,,61,0
3088,note_on,,0,0,2,,,,,,,,,,0,,49,36
3104,note_on,,16,0,2,,,,,,,,,,0,,49,0
3104,note_on,,0,0,2,,,,,,,,,,0,,52,35
3104,set_tempo,952380,16,1,0,,,,,,,,,,,,,
3112,note_on,,40,0,1,,,,,,,,,,0,,69,0
3120,note_on,,0,0,2,,,,,,,,,,0,,57,34
3120,note_on,,16,0,2,,,,,,,,,,0,,52,0
3120,set_tempo,1463414,16,1,0,,,,,,,,,,,,,
3120,note_on,,8,0,1,,,,,,,,,,0,,69,46
3136,note_on,,16,0,1,,,,,,,,,,0,,69,0
3136,set_tempo,1250000,16,1,0,,,,,,,,,,,,,
3136,note_on,,16,0,2,,,,,,,,,,0,,57,0
3136,note_on,,0,0,2,,,,,,,,,,0,,65,36
3144,set_tempo,1153846,8,1,0,,,,,,,,,,,,,
3144,note_on,,8,0,1,,,,,,,,,,0,,69,42
3152,set_tempo,1333333,8,1,0,,,,,,,,,,,,,
3152,note_on,,16,0,2,,,,,,,,,,0,,65,0
3152,note_on,,0,0,2,,,,,,,,,,0,,64,34
3160,note_on,,8,0,2,,,,,,,,,,0,,64,0
3160,note_on,,16,0,1,,,,,,,,,,0,,69,0
3160,note_on,,0,0,1,,,,,,,,,,0,,64,0
3160,note_on,,0,0,1,,,,,,,,,,0,,67,0
3168,note_on,,0,0,1,,,,,,,,,,0,,69,40
3168,note_on,,8,0,1,,,,,,,,,,0,,65,34
3168,set_tempo,1304347,16,1,0,,,,,,,,,,,,,
3168,note_on,,8,0,2,,,,,,,,,,0,,38,34
3170,control_change,,90,0,3,,,,,,,,64,0,0,,,
3176,control_change,,6,0,3,,,,,,,,64,127,0,,,
3184,note_on,,0,0,2,,,,,,,,,,0,,50,48
3184,set_tempo,983606,16,1,0,,,,,,,,,,,,,
3184,note_on,,16,0,2,,,,,,,,,,0,,38,0
3200,set_tempo,952380,16,1,0,,,,,,,,,,,,,
3200,note_on,,0,0,2,,,,,,,,,,0,,53,44
3200,note_on,,16,0,2,,,,,,,,,,0,,50,0
3208,note_on,,40,0,1,,,,,,,,,,0,,69,0
3216,note_on,,16,0,2,,,,,,,,,,0,,53,0
3216,note_on,,0,0,2,,,,,,,,,,0,,57,44
3216,note_on,,8,0,1,,,,,,,,,,0,,69,66
3216,set_tempo,1034482,16,1,0,,,,,,,,,,,,,
3232,note_on,,16,0,2,,,,,,,,,,0,,57,0
3232,set_tempo,1071428,16,1,0,,,,,,,,,,,,,
3232,note_on,,0,0,2,,,,,,,,,,0,,64,54
3232,note_on,,16,0,1,,,,,,,,,,0,,69,0
3240,note_on,,8,0,1,,,,,,,,,,0,,69,70
3248,note_on,,16,0,2,,,,,,,,,,0,,64,0
3248,note_on,,0,0,2,,,,,,,,,,0,,62,50
3248,set_tempo,1304347,16,1,0,,,,,,,,,,,,,
3256,note_on,,8,0,2,,,,,,,,,,0,,62,0
3256,note_on,,0,0,1,,,,,,,,,,0,,65,0
3256,note_on,,16,0,1,,,,,,,,,,0,,69,0
3264,note_on,,0,0,1,,,,,,,,,,0,,71,64
3264,note_on,,8,0,2,,,,,,,,,,0,,39,40
3264,note_on,,0,0,1,,,,,,,,,,0,,69,56
3264,note_on,,8,0,1,,,,,,,,,,0,,66,50
3264,control_change,,88,0,3,,,,,,,,64,127,0,,,
3266,control_change,,2,0,3,,,,,,,,64,0,0,,,
3272,control_change,,6,0,3,,,,,,,,64,127,0,,,
3280,note_on,,16,0,2,,,,,,,,,,0,,39,0
3280,note_on,,0,0,2,,,,,,,,,,0,,51,48
3280,set_tempo,845070,32,1,0,,,,,,,,,,,,,
3296,set_tempo,869565,16,1,0,,,,,,,,,,,,,
3296,note_on,,16,0,2,,,,,,,,,,0,,51,0
3296,note_on,,0,0,2,,,,,,,,,,0,,54,46
3304,note_on,,40,0,1,,,,,,,,,,0,,71,0
3312,note_on,,8,0,1,,,,,,,,,,0,,71,68
3312,set_tempo,1071428,16,1,0,,,,,,,,,,,,,
3312,note_on,,16,0,2,,,,,,,,,,0,,54,0
3312,note_on,,0,0,2,,,,,,,,,,0,,59,46
3328,note_on,,16,0,2,,,,,,,,,,0,,59,0
3328,note_on,,0,0,2,,,,,,,,,,0,,67,52
3328,set_tempo,1000000,16,1,0,,,,,,,,,,,,,
3328,note_on,,16,0,1,,,,,,,,,,0,,71,0
3336,note_on,,8,0,1,,,,,,,,,,0,,71,70
3336,set_tempo,1034482,8,1,0,,,,,,,,,,,,,
3344,set_tempo,1153846,8,1,0,,,,,,,,,,,,,
3344,note_on,,16,0,2,,,,,,,,,,0,,67,0
3344,note_on,,0,0,2,,,,,,,,,,0,,66,58
3352,note_on,,16,0,1,,,,,,,,,,0,,71,0
3352,note_on,,0,0,1,,,,,,,,,,0,,66,0
3352,note_on,,8,0,2,,,,,,,,,,0,,66,0
3352,note_on,,0,0,1,,,,,,,,,,0,,69,0
3360,note_on,,8,0,1,,,,,,,,,,0,,67,54
3360,note_on,,0,0,1,,,,,,,,,,0,,71,74
3360,note_on,,8,0,2,,,,,,,,,,0,,40,54
3360,set_tempo,1200000,16,1,0,,,,,,,,,,,,,
3362,control_change,,90,0,3,,,,,,,,64,0,0,,,
3368,control_change,,6,0,3,,,,,,,,64,127,0,,,
3376,set_tempo,1034482,16,1,0,,,,,,,,,,,,,
3376,note_on,,0,0,2,,,,,,,,,,0,,52,48
3376,note_on,,16,0,2,,,,,,,,,,0,,40,0
3392,note_on,,0,0,2,,,,,,,,,,0,,55,44
3392,note_on,,16,0,2,,,,,,,,,,0,,52,0
3392,set_tempo,1071428,16,1,0,,,,,,,,,,,,,
3400,note_on,,40,0,1,,,,,,,,,,0,,71,0
3408,note_on,,0,0,2,,,,,,,,,,0,,59,42
3408,note_on,,16,0,2,,,,,,,,,,0,,55,0
3408,note_on,,8,0,1,,,,,,,,,,0,,71,72
3408,note_on,,0,0,1,,,,,,,,,,0,,73,78
3408,set_tempo,1153846,16,1,0,,,,,,,,,,,,,
3424,note_on,,0,0,2,,,,,,,,,,0,,67,48
3424,set_tempo,1071428,16,1,0,,,,,,,,,,,,,
3424,note_on,,16,0,2,,,,,,,,,,0,,59,0
3440,note_on,,0,0,2,,,,,,,,,,0,,64,52
3440,note_on,,16,0,2,,,,,,,,,,0,,67,0
3440,set_tempo,1200000,16,1,0,,,,,,,,,,,,,
3448,note_on,,40,0,1,,,,,,,,,,0,,73,0
3448,note_on,,8,0,2,,,,,,,,,,0,,64,0
3448,note_on,,0,0,1,,,,,,,,,,0,,67,0
3448,note_on,,0,0,1,,,,,,,,,,0,,71,0
3456,note_on,,8,0,2,,,,,,,,,,0,,42,56
3456,note_on,,0,0,1,,,,,,,,,,0,,71,70
3456,set_tempo,1250000,16,1,0,,,,,,,,,,,,,
3456,control_change,,88,0,3,,,,,,,,64,127,0,,,
3456,note_on,,0,0,1,,,,,,,,,,0,,74,80
3456,note_on,,8,0,1,,,,,,,,,,0,,66,64
3458,control_change,,2,0,3,,,,,,,,64,0,0,,,
3464,control_change,,6,0,3,,,,,,,,64,127,0,,,
3472,set_tempo,983606,16,1,0,,,,,,,,,,,,,
3472,note_on,,16,0,2,,,,,,,,,,0,,42,0
3472,note_on,,0,0,2,,,,,,,,,,0,,54,44
3488,set_tempo,952380,16,1,0,,,,,,,,,,,,,
3488,note_on,,16,0,2,,,,,,,,,,0,,54,0
3488,note_on,,0,0,2,,,,,,,,,,0,,62,54
3504,note_on,,0,0,2,,,,,,,,,,0,,59,50
3504,note_on,,16,0,2,,,,,,,,,,0,,62,0
3504,set_tempo,923076,16,1,0,,,,,,,,,,,,,
3520,note_on,,16,0,2,,,,,,,,,,0,,59,0
3520,note_on,,0,0,2,,,,,,,,,,0,,67,56
3520,set_tempo,1000000,16,1,0,,,,,,,,,,,,,
3536,note_on,,16,0,2,,,,,,,,,,0,,67,0
3536,note_on,,0,0,2,,,,,,,,,,0,,66,66
3536,set_tempo,1071428,16,1,0,,,,,,,,,,,,,
3544,note_on,,88,0,1,,,,,,,,,,0,,74,0
3544,note_on,,0,0,1,,,,,,,,,,0,,71,0
3544,note_on,,0,0,1,,,,,,,,,,0,,66,0
3545,note_on,,9,0,2,,,,,,,,,,0,,66,0
3552,note_on,,0,0,1,,,,,,,,,,0,,73,78
3552,note_on,,8,0,1,,,,,,,,,,0,,71,70
3553,note_on,,8,0,2,,,,,,,,,,0,,42,48
3553,set_tempo,983606,17,1,0,,,,,,,,,,,,,
3554,control_change,,90,0,3,,,,,,,,64,0,0,,,
3560,control_change,,6,0,3,,,,,,,,64,127,0,,,
3568,note_on,,15,0,2,,,,,,,,,,0,,42,0
3568,set_tempo,952380,15,1,0,,,,,,,,,,,,,
3568,note_on,,0,0,2,,,,,,,,,,0,,54,52
3584,note_on,,16,0,2,,,,,,,,,,0,,54,0
3584,set_tempo,983606,16,1,0,,,,,,,,,,,,,
3584,note_on,,0,0,2,,,,,,,,,,0,,62,58
3598,note_on,,46,0,1,,,,,,,,,,0,,71,0
3600,note_on,,0,0,2,,,,,,,,,,0,,61,54
3600,note_on,,16,0,2,,,,,,,,,,0,,62,0
3600,set_tempo,1000000,16,1,0,,,,,,,,,,,,,
3600,note_on,,2,0,1,,,,,,,,,,0,,70,70
3616,note_on,,16,0,2,,,,,,,,,,0,,61,0
3616,note_on,,0,0,2,,,,,,,,,,0,,67,60
3616,set_tempo,1071428,16,1,0,,,,,,,,,,,,,
3632,set_tempo,1250000,16,1,0,,,,,,,,,,,,,
3632,note_on,,16,0,2,,,,,,,,,,0,,67,0
3632,note_on,,0,0,2,,,,,,,,,,0,,66,56
3640,note_on,,8,0,2,,,,,,,,,,0,,66,0
3640,note_on,,40,0,1,,,,,,,,,,0,,73,0
3646,note_on,,6,0,1,,,,,,,,,,0,,70,0
3648,note_on,,8,0,2,,,,,,,,,,0,,35,34
3648,note_on,,0,0,1,,,,,,,,,,0,,75,78
3648,note_on,,2,0,1,,,,,,,,,,0,,69,70
3648,control_change,,88,0,3,,,,,,,,64,127,0,,,
3650,control_change,,2,0,3,,,,,,,,64,0,0,,,
3656,control_change,,6,0,3,,,,,,,,64,127,0,,,
3664,note_on,,16,0,2,,,,,,,,,,0,,35,0
3664,set_tempo,1000000,32,1,0,,,,,,,,,,,,,
3664,note_on,,0,0,2,,,,,,,,,,0,,47,50
3680,note_on,,0,0,2,,,,,,,,,,0,,54,48
3680,note_on,,16,0,2,,,,,,,,,,0,,47,0
3680,set_tempo,952380,16,1,0,,,,,,,,,,,,,
3696,set_tempo,983606,16,1,0,,,,,,,,,,,,,
3696,note_on,,16,0,2,,,,,,,,,,0,,54,0
3696,note_on,,0,0,2,,,,,,,,,,0,,59,46
3712,note_on,,16,0,2,,,,,,,,,,0,,59,0
3712,note_on,,0,0,2,,,,,,,,,,0,,67,54
3712,set_tempo,1000000,16,1,0,,,,,,,,,,,,,
3728,set_tempo,1333333,16,1,0,,,,,,,,,,,,,
3728,note_on,,0,0,2,,,,,,,,,,0,,66,48
3728,note_on,,16,0,2,,,,,,,,,,0,,67,0
3736,note_on,,0,0,1,,,,,,,,,,0,,69,0
3736,note_on,,88,0,1,,,,,,,,,,0,,75,0
3736,note_on,,8,0,2,,,,,,,,,,0,,66,0
3744,note_on,,8,0,1,,,,,,,,,,0,,67,60
3744,set_tempo,1250000,16,1,0,,,,,,,,,,,,,
3744,note_on,,0,0,1,,,,,,,,,,0,,76,74
3744,note_on,,8,0,2,,,,,,,,,,0,,40,42
3746,control_change,,90,0,3,,,,,,,,64,0,0,,,
3752,control_change,,6,0,3,,,,,,,,64,127,0,,,
3760,note_on,,16,0,2,,,,,,,,,,0,,40,0
3760,note_on,,0,0,2,,,,,,,,,,0,,47,44
3760,set_tempo,983606,16,1,0,,,,,,,,,,,,,
3776,note_on,,16,0,2,,,,,,,,,,0,,47,0
3776,note_on,,0,0,2,,,,,,,,,,0,,55,42
3792,note_on,,48,0,1,,,,,,,,,,0,,76,0
3792,set_tempo,1000000,32,1,0,,,,,,,,,,,,,
3792,note_on,,0,0,2,,,,,,,,,,0,,59,40
3792,note_on,,16,0,2,,,,,,,,,,0,,55,0
3792,note_on,,0,0,1,,,,,,,,,,0,,71,60
3808,set_tempo,1071428,16,1,0,,,,,,,,,,,,,
3808,note_on,,16,0,2,,,,,,,,,,0,,59,0
3808,note_on,,0,0,2,,,,,,,,,,0,,66,47
3824,set_tempo,1153846,16,1,0,,,,,,,,,,,,,
3824,note_on,,0,0,2,,,,,,,,,,0,,64,44
3824,note_on,,16,0,2,,,,,,,,,,0,,66,0
3832,note_on,,8,0,2,,,,,,,,,,0,,64,0
3832,note_on,,40,0,1,,,,,,,,,,0,,67,0
3838,note_on,,6,0,1,,,,,,,,,,0,,71,0
3840,set_tempo,1333333,16,1,0,,,,,,,,,,,,,
3840,note_on,,8,0,2,,,,,,,,,,0,,42,34
3840,note_on,,2,0,1,,,,,,,,,,0,,67,50
3840,note_on,,0,0,1,,,,,,,,,,0,,70,54
3840,control_change,,88,0,3,,,,,,,,64,127,0,,,
3842,control_change,,2,0,3,,,,,,,,64,0,0,,,
3848,control_change,,6,0,3,,,,,,,,64,127,0,,,
3856,set_tempo,1000000,16,1,0,,,,,,,,,,,,,
3856,note_on,,16,0,2,,,,,,,,,,0,,42,0
3856,note_on,,0,0,2,,,,,,,,,,0,,49,26
3872,set_tempo,1333333,16,1,0,,,,,,,,,,,,,
3872,note_on,,0,0,2,,,,,,,,,,0,,52,28
3872,note_on,,16,0,2,,,,,,,,,,0,,49,0
3888,note_on,,0,0,1,,,,,,,,,,0,,66,54
3888,note_on,,48,0,1,,,,,,,,,,0,,67,0
3888,set_tempo,1250000,16,1,0,,,,,,,,,,,,,
3888,note_on,,0,0,2,,,,,,,,,,0,,58,30
3888,note_on,,16,0,2,,,,,,,,,,0,,52,0
3904,note_on,,0,0,2,,,,,,,,,,0,,62,27
3904,note_on,,16,0,2,,,,,,,,,,0,,58,0
3904,set_tempo,1463414,16,1,0,,,,,,,,,,,,,
3912,set_tempo,1304347,8,1,0,,,,,,,,,,,,,
3912,note_on,,0,0,1,,,,,,,,,,0,,64,58
3912,note_on,,24,0,1,,,,,,,,,,0,,66,0
3920,note_on,,16,0,2,,,,,,,,,,0,,62,0
3920,set_tempo,1621621,8,1,0,,,,,,,,,,,,,
3920,note_on,,0,0,2,,,,,,,,,,0,,61,27
3928,note_on,,8,0,2,,,,,,,,,,0,,61,0
3934,note_on,,22,0,1,,,,,,,,,,0,,64,0
3934,note_on,,0,0,1,,,,,,,,,,0,,70,0
3936,note_on,,2,0,1,,,,,,,,,,0,,62,44
3936,set_tempo,1395348,16,1,0,,,,,,,,,,,,,
3936,note_on,,8,0,2,,,,,,,,,,0,,42,38
3936,note_on,,0,0,1,,,,,,,,,,0,,71,50
3938,control_change,,90,0,3,,,,,,,,64,0,0,,,
3944,control_change,,6,0,3,,,,,,,,64,127,0,,,
3952,note_on,,16,0,2,,,,,,,,,,0,,42,0
3952,set_tempo,983606,16,1,0,,,,,,,,,,,,,
3952,note_on,,0,0,2,,,,,,,,,,0,,50,36
3968,note_on,,0,0,2,,,,,,,,,,0,,54,34
3968,set_tempo,1000000,16,1,0,,,,,,,,,,,,,
3968,note_on,,16,0,2,,,,,,,,,,0,,50,0
3984,note_on,,16,0,2,,,,,,,,,,0,,54,0
3984,set_tempo,1034482,16,1,0,,,,,,,,,,,,,
3984,note_on,,0,0,2,,,,,,,,,,0,,59,36
4000,note_on,,0,0,2,,,,,,,,,,0,,58,34
4000,set_tempo,1071428,16,1,0,,,,,,,,,,,,,
4000,note_on,,16,0,2,,,,,,,,,,0,,59,0
4016,note_on,,0,0,2,,,,,,,,,,0,,59,36
4016,set_tempo,1333333,16,1,0,,,,,,,,,,,,,
4016,note_on,,16,0,2,,,,,,,,,,0,,58,0
4024,note_on,,8,0,2,,,,,,,,,,0,,59,0
4024,note_on,,0,0,1,,,,,,,,,,0,,62,0
4024,note_on,,88,0,1,,,,,,,,,,0,,71,0
4032,control_change,,88,0,3,,,,,,,,64,127,0,,,
4032,set_tempo,1304347,16,1,0,,,,,,,,,,,,,
4032,note_on,,0,0,1,,,,,,,,,,0,,71,46
4032,note_on,,8,0,2,,,,,,,,,,0,,42,40
4032,note_on,,8,0,1,,,,,,,,,,0,,61,40
4034,control_change,,2,0,3,,,,,,,,64,0,0,,,
4040,control_change,,6,0,3,,,,,,,,64,127,0,,,
4048,note_on,,0,0,2,,,,,,,,,,0,,49,38
4048,note_on,,16,0,2,,,,,,,,,,0,,42,0
4048,set_tempo,1071428,16,1,0,,,,,,,,,,,,,
4064,note_on,,16,0,2,,,,,,,,,,0,,49,0
4064,set_tempo,1250000,16,1,0,,,,,,,,,,,,,
4064,note_on,,0,0,2,,,,,,,,,,0,,53,36
4080,note_on,,0,0,2,,,,,,,,,,0,,54,40
4080,set_tempo,1621621,16,1,0,,,,,,,,,,,,,
4080,note_on,,16,0,2,,,,,,,,,,0,,53,0
4096,note_on,,16,0,2,,,,,,,,,,0,,54,0
4096,note_on,,0,0,2,,,,,,,,,,0,,57,31
4096,set_tempo,1200000,16,1,0,,,,,,,,,,,,,
4112,note_on,,16,0,2,,,,,,,,,,0,,57,0
4112,note_on,,0,0,2,,,,,,,,,,0,,55,33
4112,set_tempo,1395348,16,1,0,,,,,,,,,,,,,
4120,note_on,,8,0,2,,,,,,,,,,0,,55,0
4126,note_on,,94,0,1,,,,,,,,,,0,,71,0
4128,note_on,,2,0,1,,,,,,,,,,0,,70,40
4128,note_on,,8,0,2,,,,,,,,,,0,,42,34
4128,set_tempo,1200000,16,1,0,,,,,,,,,,,,,
4130,control_change,,90,0,3,,,,,,,,64,0,0,,,
4136,control_change,,6,0,3,,,,,,,,64,127,0,,,
4144,set_tempo,1111111,16,1,0,,,,,,,,,,,,,
4144,note_on,,0,0,2,,,,,,,,,,0,,49,28
4144,note_on,,16,0,2,,,,,,,,,,0,,42,0
4160,note_on,,16,0,2,,,,,,,,,,0,,49,0
4160,note_on,,0,0,2,,,,,,,,,,0,,53,28
4160,set_tempo,1200000,16,1,0,,,,,,,,,,,,,
4174,note_on,,46,0,1,,,,,,,,,,0,,61,0
4176,set_tempo,1463414,16,1,0,,,,,,,,,,,,,
4176,note_on,,2,0,1,,,,,,,,,,0,,64,46
4176,note_on,,16,0,2,,,,,,,,,,0,,53,0
4176,note_on,,0,0,2,,,,,,,,,,0,,54,30
4192,note_on,,16,0,2,,,,,,,,,,0,,54,0
4192,note_on,,0,0,2,,,,,,,,,,0,,53,28
4192,set_tempo,1333333,16,1,0,,,,,,,,,,,,,
4208,note_on,,16,0,2,,,,,,,,,,0,,53,0
4208,note_on,,0,0,2,,,,,,,,,,0,,54,27
4208,set_tempo,1818181,16,1,0,,,,,,,,,,,,,
4216,note_on,,8,0,2,,,,,,,,,,0,,54,0
4222,note_on,,46,0,1,,,,,,,,,,0,,64,0
4222,note_on,,0,0,1,,,,,,,,,,0,,70,0
4224,note_on,,0,0,1,,,,,,,,,,0,,71,40
4224,control_change,,88,0,3,,,,,,,,64,127,0,,,
4224,note_on,,8,0,2,,,,,,,,,,0,,35,36
4224,note_on,,2,0,1,,,,,,,,,,0,,63,34
4226,control_change,,2,0,3,,,,,,,,64,0,0,,,
4232,control_change,,6,0,3,,,,,,,,64,127,0,,,
4240,set_tempo,1250000,32,1,0,,,,,,,,,,,,,
4240,note_on,,0,0,2,,,,,,,,,,0,,42,35
4240,note_on,,16,0,2,,,,,,,,,,0,,35,0
4256,note_on,,0,0,2,,,,,,,,,,0,,54,40
4256,note_on,,16,0,2,,,,,,,,,,0,,42,0
4256,set_tempo,1200000,16,1,0,,,,,,,,,,,,,
4272,set_tempo,1000000,16,1,0,,,,,,,,,,,,,
4272,note_on,,16,0,2,,,,,,,,,,0,,54,0
4272,note_on,,0,0,2,,,,,,,,,,0,,51,36
4288,set_tempo,983606,16,1,0,,,,,,,,,,,,,
4288,note_on,,0,0,2,,,,,,,,,,0,,49,37
4288,note_on,,16,0,2,,,,,,,,,,0,,51,0
4304,note_on,,16,0,2,,,,,,,,,,0,,49,0
4304,set_tempo,1153846,16,1,0,,,,,,,,,,,,,
4304,note_on,,0,0,2,,,,,,,,,,0,,47,33
4318,note_on,,0,0,1,,,,,,,,,,0,,63,0
4318,note_on,,94,0,1,,,,,,,,,,0,,71,0
4320,note_on,,16,0,2,,,,,,,,,,0,,47,0
4320,note_on,,0,0,2,,,,,,,,,,0,,35,36
4320,set_tempo,1200000,16,1,0,,,,,,,,,,,,,
4322,control_change,,90,0,3,,,,,,,,64,0,0,,,
4328,control_change,,6,0,3,,,,,,,,64,127,0,,,
4336,note_on,,16,0,2,,,,,,,,,,0,,35,0
4336,note_on,,0,0,2,,,,,,,,,,0,,42,35
4336,set_tempo,1111111,16,1,0,,,,,,,,,,,,,
4352,note_on,,16,0,2,,,,,,,,,,0,,42,0
4352,note_on,,0,0,2,,,,,,,,,,0,,54,36
4368,note_on,,16,0,2,,,,,,,,,,0,,54,0
4368,note_on,,0,0,2,,,,,,,,,,0,,51,34
4384,set_tempo,1153846,48,1,0,,,,,,,,,,,,,
4384,note_on,,16,0,2,,,,,,,,,,0,,51,0
4384,note_on,,0,0,2,,,,,,,,,,0,,49,32
4400,set_tempo,1621621,16,1,0,,,,,,,,,,,,,
4400,note_on,,16,0,2,,,,,,,,,,0,,49,0
4400,note_on,,0,0,2,,,,,,,,,,0,,47,30
4416,set_tempo,1395348,16,1,0,,,,,,,,,,,,,
4416,note_on,,16,0,2,,,,,,,,,,0,,47,0
4416,note_on,,0,0,2,,,,,,,,,,0,,35,32
4416,control_change,,88,0,3,,,,,,,,64,127,0,,,
4418,control_change,,2,0,3,,,,,,,,64,0,0,,,
4419,note_on,,101,0,1,,,,,,,,,,0,,71,40
4419,note_on,,0,0,1,,,,,,,,,,0,,75,53
4424,control_change,,6,0,3,,,,,,,,64,127,0,,,
4432,note_on,,16,0,2,,,,,,,,,,0,,35,0
4432,note_on,,0,0,2,,,,,,,,,,0,,42,36
4432,set_tempo,1000000,16,1,0,,,,,,,,,,,,,
4448,set_tempo,983606,16,1,0,,,,,,,,,,,,,
4448,note_on,,16,0,2,,,,,,,,,,0,,42,0
4448,note_on,,0,0,2,,,,,,,,,,0,,54,33
4464,note_on,,0,0,2,,,,,,,,,,0,,51,37
4464,note_on,,16,0,2,,,,,,,,,,0,,54,0
4480,note_on,,0,0,2,,,,,,,,,,0,,49,36
4480,note_on,,16,0,2,,,,,,,,,,0,,51,0
4480,set_tempo,1000000,32,1,0,,,,,,,,,,,,,
4496,set_tempo,1071428,16,1,0,,,,,,,,,,,,,
4496,note_on,,0,0,2,,,,,,,,,,0,,47,34
4496,note_on,,16,0,2,,,,,,,,,,0,,49,0
4504,note_on,,0,0,1,,,,,,,,,,0,,71,0
4504,note_on,,85,0,1,,,,,,,,,,0,,75,0
4504,note_on,,0,0,1,,,,,,,,,,0,,73,51
4504,set_tempo,1818181,8,1,0,,,,,,,,,,,,,
4504,note_on,,0,0,1,,,,,,,,,,0,,69,41
4509,note_on,,5,0,1,,,,,,,,,,0,,73,0
4509,note_on,,0,0,1,,,,,,,,,,0,,69,0
4512,note_on,,3,0,1,,,,,,,,,,0,,69,40
4512,note_on,,0,0,1,,,,,,,,,,0,,73,50
4512,note_on,,0,0,2,,,,,,,,,,0,,35,34
4512,note_on,,16,0,2,,,,,,,,,,0,,47,0
4512,set_tempo,1200000,8,1,0,,,,,,,,,,,,,
4514,control_change,,90,0,3,,,,,,,,64,0,0,,,
4520,control_change,,6,0,3,,,,,,,,64,127,0,,,
4528,note_on,,0,0,2,,,,,,,,,,0,,42,36
4528,set_tempo,1000000,16,1,0,,,,,,,,,,,,,
4528,note_on,,16,0,2,,,,,,,,,,0,,35,0
4544,note_on,,0,0,2,,,,,,,,,,0,,54,32
4544,note_on,,16,0,2,,,,,,,,,,0,,42,0
4560,note_on,,0,0,2,,,,,,,,,,0,,51,34
4560,set_tempo,1034482,32,1,0,,,,,,,,,,,,,
4560,note_on,,16,0,2,,,,,,,,,,0,,54,0
4576,note_on,,0,0,2,,,,,,,,,,0,,49,30
4576,note_on,,16,0,2,,,,,,,,,,0,,51,0
4576,set_tempo,1463414,16,1,0,,,,,,,,,,,,,
4592,note_on,,0,0,2,,,,,,,,,,0,,47,28
4592,note_on,,80,0,1,,,,,,,,,,0,,73,0
4592,note_on,,0,0,1,,,,,,,,,,0,,69,0
4592,note_on,,16,0,2,,,,,,,,,,0,,49,0
4592,set_tempo,3333333,16,1,0,,,,,,,,,,,,,
4600,set_tempo,2500000,8,1,0,,,,,,,,,,,,,
4600,note_on,,8,0,1,,,,,,,,,,0,,68,30
4600,note_on,,0,0,1,,,,,,,,,,0,,71,44
4605,note_on,,5,0,1,,,,,,,,,,0,,71,0
4605,note_on,,0,0,1,,,,,,,,,,0,,68,0
4608,note_on,,0,0,2,,,,,,,,,,0,,35,30
4608,control_change,,88,0,3,,,,,,,,64,127,0,,,
4608,note_on,,3,0,1,,,,,,,,,,0,,68,38
4608,set_tempo,1621621,8,1,0,,,,,,,,,,,,,
4608,note_on,,16,0,2,,,,,,,,,,0,,47,0
4608,note_on,,0,0,1,,,,,,,,,,0,,71,44
4610,control_change,,2,0,3,,,,,,,,64,0,0,,,
4616,control_change,,6,0,3,,,,,,,,64,127,0,,,
4624,note_on,,0,0,2,,,,,,,,,,0,,47,38
4624,note_on,,16,0,2,,,,,,,,,,0,,35,0
4624,set_tempo,983606,16,1,0,,,,,,,,,,,,,
4640,note_on,,0,0,2,,,,,,,,,,0,,56,42
4640,note_on,,16,0,2,,,,,,,,,,0,,47,0
4656,note_on,,0,0,2,,,,,,,,,,0,,52,40
4656,note_on,,16,0,2,,,,,,,,,,0,,56,0
4672,note_on,,16,0,2,,,,,,,,,,0,,52,0
4672,note_on,,0,0,2,,,,,,,,,,0,,49,45
4688,set_tempo,1000000,64,1,0,,,,,,,,,,,,,
4688,note_on,,16,0,2,,,,,,,,,,0,,49,0
4688,note_on,,0,0,2,,,,,,,,,,0,,47,48
4704,note_on,,16,0,2,,,,,,,,,,0,,47,0
4704,note_on,,0,0,2,,,,,,,,,,0,,35,45
4704,set_tempo,1153846,16,1,0,,,,,,,,,,,,,
4706,control_change,,90,0,3,,,,,,,,64,0,0,,,
4712,control_change,,6,0,3,,,,,,,,64,127,0,,,
4720,note_on,,16,0,2,,,,,,,,,,0,,35,0
4720,note_on,,0,0,2,,,,,,,,,,0,,47,46
4720,set_tempo,952380,16,1,0,,,,,,,,,,,,,
4736,note_on,,16,0,2,,,,,,,,,,0,,47,0
4736,set_tempo,983606,16,1,0,,,,,,,,,,,,,
4736,note_on,,0,0,2,,,,,,,,,,0,,56,40
4744,note_on,,0,0,1,,,,,,,,,,0,,68,0
4744,note_on,,136,0,1,,,,,,,,,,0,,71,0
4752,set_tempo,952380,16,1,0,,,,,,,,,,,,,
4752,note_on,,0,0,1,,,,,,,,,,0,,72,78
4752,note_on,,8,0,1,,,,,,,,,,0,,69,62
4752,note_on,,0,0,2,,,,,,,,,,0,,52,44
4752,note_on,,16,0,2,,,,,,,,,,0,,56,0
4768,note_on,,0,0,2,,,,,,,,,,0,,49,42
4768,set_tempo,983606,16,1,0,,,,,,,,,,,,,
4768,note_on,,16,0,2,,,,,,,,,,0,,52,0
4784,note_on,,0,0,2,,,,,,,,,,0,,47,40
4784,note_on,,16,0,2,,,,,,,,,,0,,49,0
4784,set_tempo,1250000,16,1,0,,,,,,,,,,,,,
4792,note_on,,0,0,1,,,,,,,,,,0,,69,0
4792,note_on,,40,0,1,,,,,,,,,,0,,72,0
4800,set_tempo,1395348,16,1,0,,,,,,,,,,,,,
4800,note_on,,0,0,1,,,,,,,,,,0,,73,76
4800,note_on,,8,0,1,,,,,,,,,,0,,70,64
4800,note_on,,16,0,2,,,,,,,,,,0,,47,0
4800,note_on,,0,0,2,,,,,,,,,,0,,35,42
4800,control_change,,88,0,3,,,,,,,,64,127,0,,,
4802,control_change,,2,0,3,,,,,,,,64,0,0,,,
4808,control_change,,6,0,3,,,,,,,,64,127,0,,,
4816,note_on,,0,0,2,,,,,,,,,,0,,47,42
4816,set_tempo,983606,16,1,0,,,,,,,,,,,,,
4816,note_on,,16,0,2,,,,,,,,,,0,,35,0
4832,set_tempo,952380,16,1,0,,,,,,,,,,,,,
4832,note_on,,0,0,2,,,,,,,,,,0,,55,50
4832,note_on,,16,0,2,,,,,,,,,,0,,47,0
4848,note_on,,0,0,2,,,,,,,,,,0,,52,44
4848,note_on,,16,0,2,,,,,,,,,,0,,55,0
4864,note_on,,0,0,2,,,,,,,,,,0,,49,45
4864,set_tempo,983606,32,1,0,,,,,,,,,,,,,
4864,note_on,,16,0,2,,,,,,,,,,0,,52,0
4870,note_on,,0,0,1,,,,,,,,,,0,,70,0
4870,note_on,,70,0,1,,,,,,,,,,0,,73,0
4872,note_on,,0,0,1,,,,,,,,,,0,,75,78
4872,note_on,,2,0,1,,,,,,,,,,0,,71,66
4872,set_tempo,1000000,8,1,0,,,,,,,,,,,,,
4880,note_on,,16,0,2,,,,,,,,,,0,,49,0
4880,note_on,,0,0,2,,,,,,,,,,0,,47,44
4880,set_tempo,1071428,8,1,0,,,,,,,,,,,,,
4894,note_on,,0,0,1,,,,,,,,,,0,,71,0
4894,note_on,,22,0,1,,,,,,,,,,0,,75,0
4896,note_on,,16,0,2,,,,,,,,,,0,,47,0
4896,note_on,,0,0,1,,,,,,,,,,0,,76,75
4896,note_on,,0,0,2,,,,,,,,,,0,,35,42
4896,set_tempo,952380,16,1,0,,,,,,,,,,,,,
4896,note_on,,2,0,1,,,,,,,,,,0,,73,65
4898,control_change,,90,0,3,,,,,,,,64,0,0,,,
4904,control_change,,6,0,3,,,,,,,,64,127,0,,,
4912,note_on,,0,0,2,,,,,,,,,,0,,47,43
4912,note_on,,16,0,2,,,,,,,,,,0,,35,0
4912,set_tempo,923076,16,1,0,,,,,,,,,,,,,
4918,note_on,,22,0,1,,,,,,,,,,0,,76,0
4918,note_on,,0,0,1,,,,,,,,,,0,,73,0
4920,note_on,,2,0,1,,,,,,,,,,0,,75,63
4920,note_on,,0,0,1,,,,,,,,,,0,,78,73
4920,set_tempo,983606,8,1,0,,,,,,,,,,,,,
4928,note_on,,0,0,2,,,,,,,,,,0,,55,41
4928,note_on,,16,0,2,,,,,,,,,,0,,47,0
4928,set_tempo,1034482,8,1,0,,,,,,,,,,,,,
4942,note_on,,0,0,1,,,,,,,,,,0,,75,0
4942,note_on,,22,0,1,,,,,,,,,,0,,78,0
4944,note_on,,0,0,1,,,,,,,,,,0,,79,69
4944,note_on,,0,0,1,,,,,,,,,,0,,76,58
4944,set_tempo,1071428,16,1,0,,,,,,,,,,,,,
4944,note_on,,0,0,2,,,,,,,,,,0,,52,36
4944,note_on,,16,0,2,,,,,,,,,,0,,55,0
4944,note_on,,2,0,1,,,,,,,,,,0,,70,54
4960,note_on,,16,0,1,,,,,,,,,,0,,79,0
4960,note_on,,0,0,2,,,,,,,,,,0,,49,32
4960,note_on,,16,0,2,,,,,,,,,,0,,52,0
4960,note_on,,0,0,1,,,,,,,,,,0,,76,0
4960,set_tempo,1153846,16,1,0,,,,,,,,,,,,,
4968,note_on,,0,0,1,,,,,,,,,,0,,79,66
4968,note_on,,8,0,1,,,,,,,,,,0,,76,52
4968,set_tempo,1250000,8,1,0,,,,,,,,,,,,,
4976,note_on,,16,0,2,,,,,,,,,,0,,49,0
4976,note_on,,0,0,2,,,,,,,,,,0,,47,28
4976,set_tempo,1333333,8,1,0,,,,,,,,,,,,,
4984,note_on,,16,0,1,,,,,,,,,,0,,79,0
4984,note_on,,0,0,1,,,,,,,,,,0,,70,0
4984,note_on,,0,0,1,,,,,,,,,,0,,76,0
4992,note_on,,16,0,2,,,,,,,,,,0,,47,0
4992,note_on,,0,0,1,,,,,,,,,,0,,79,64
4992,control_change,,88,0,3,,,,,,,,64,127,0,,,
4992,set_tempo,1621621,16,1,0,,,,,,,,,,,,,
4992,note_on,,0,0,1,,,,,,,,,,0,,76,46
4992,note_on,,0,0,2,,,,,,,,,,0,,35,28
4992,note_on,,8,0,1,,,,,,,,,,0,,71,44
4994,control_change,,2,0,3,,,,,,,,64,0,0,,,
5000,control_change,,6,0,3,,,,,,,,64,127,0,,,
5008,set_tempo,1200000,16,1,0,,,,,,,,,,,,,
5008,note_on,,0,0,2,,,,,,,,,,0,,42,32
5008,note_on,,16,0,2,,,,,,,,,,0,,35,0
5024,set_tempo,1304347,16,1,0,,,,,,,,,,,,,
5024,note_on,,16,0,2,,,,,,,,,,0,,42,0
5024,note_on,,0,0,2,,,,,,,,,,0,,54,32
5032,note_on,,40,0,1,,,,,,,,,,0,,79,0
5032,note_on,,0,0,1,,,,,,,,,,0,,76,0
5040,set_tempo,1153846,16,1,0,,,,,,,,,,,,,
5040,note_on,,0,0,2,,,,,,,,,,0,,51,30
5040,note_on,,16,0,2,,,,,,,,,,0,,54,0
5040,note_on,,0,0,1,,,,,,,,,,0,,78,52
5040,note_on,,8,0,1,,,,,,,,,,0,,75,42
5056,set_tempo,983606,16,1,0,,,,,,,,,,,,,
5056,note_on,,16,0,2,,,,,,,,,,0,,51,0
5056,note_on,,0,0,2,,,,,,,,,,0,,49,33
5072,set_tempo,1071428,16,1,0,,,,,,,,,,,,,
5072,note_on,,0,0,2,,,,,,,,,,0,,47,37
5072,note_on,,16,0,2,,,,,,,,,,0,,49,0
5080,note_on,,40,0,1,,,,,,,,,,0,,71,0
5088,note_on,,0,0,2,,,,,,,,,,0,,35,40
5088,note_on,,16,0,2,,,,,,,,,,0,,47,0
5104,set_tempo,983606,32,1,0,,,,,,,,,,,,,
5104,note_on,,0,0,2,,,,,,,,,,0,,42,40
5104,note_on,,16,0,2,,,,,,,,,,0,,35,0
5120,set_tempo,952380,16,1,0,,,,,,,,,,,,,
5120,note_on,,0,0,2,,,,,,,,,,0,,54,46
5120,note_on,,16,0,2,,,,,,,,,,0,,42,0
5136,note_on,,0,0,2,,,,,,,,,,0,,51,43
5136,set_tempo,983606,16,1,0,,,,,,,,,,,,,
5136,note_on,,16,0,2,,,,,,,,,,0,,54,0
5152,note_on,,16,0,2,,,,,,,,,,0,,51,0
5152,note_on,,0,0,2,,,,,,,,,,0,,49,44
5152,set_tempo,1000000,16,1,0,,,,,,,,,,,,,
5168,note_on,,16,0,2,,,,,,,,,,0,,49,0
5168,note_on,,0,0,2,,,,,,,,,,0,,47,46
5168,set_tempo,1200000,16,1,0,,,,,,,,,,,,,
5176,note_on,,0,0,1,,,,,,,,,,0,,75,0
5176,note_on,,96,0,1,,,,,,,,,,0,,78,0
5184,control_change,,184,0,3,,,,,,,,64,127,0,,,
5184,note_on,,8,0,1,,,,,,,,,,0,,63,70
5184,set_tempo,1333333,16,1,0,,,,,,,,,,,,,
5184,note_on,,0,0,1,,,,,,,,,,0,,75,80
5184,note_on,,16,0,2,,,,,,,,,,0,,47,0
5184,note_on,,0,0,2,,,,,,,,,,0,,35,42
5184,note_on,,0,0,1,,,,,,,,,,0,,71,64
5186,control_change,,2,0,3,,,,,,,,64,0,0,,,
5192,control_change,,6,0,3,,,,,,,,64,127,0,,,
5200,note_on,,16,0,2,,,,,,,,,,0,,35,0
5200,note_on,,0,0,2,,,,,,,,,,0,,42,44
5200,set_tempo,983606,16,1,0,,,,,,,,,,,,,
5216,set_tempo,952380,16,1,0,,,,,,,,,,,,,
5216,note_on,,0,0,2,,,,,,,,,,0,,54,47
5216,note_on,,16,0,2,,,,,,,,,,0,,42,0
5232,set_tempo,895522,16,1,0,,,,,,,,,,,,,
5232,note_on,,0,0,2,,,,,,,,,,0,,51,45
5232,note_on,,16,0,2,,,,,,,,,,0,,54,0
5248,note_on,,16,0,2,,,,,,,,,,0,,51,0
5248,note_on,,0,0,2,,,,,,,,,,0,,49,44
5248,set_tempo,923076,16,1,0,,,,,,,,,,,,,
5264,set_tempo,1071428,16,1,0,,,,,,,,,,,,,
5264,note_on,,0,0,2,,,,,,,,,,0,,47,43
5264,note_on,,16,0,2,,,,,,,,,,0,,49,0
5272,note_on,,0,0,1,,,,,,,,,,0,,63,0
5272,note_on,,0,0,1,,,,,,,,,,0,,71,0
5272,note_on,,88,0,1,,,,,,,,,,0,,75,0
5280,note_on,,0,0,1,,,,,,,,,,0,,69,60
5280,note_on,,8,0,1,,,,,,,,,,0,,63,66
5280,set_tempo,1153846,16,1,0,,,,,,,,,,,,,
5280,note_on,,0,0,2,,,,,,,,,,0,,35,42
5280,note_on,,16,0,2,,,,,,,,,,0,,47,0
5280,note_on,,0,0,1,,,,,,,,,,0,,73,78
5282,control_change,,90,0,3,,,,,,,,64,0,0,,,
5288,control_change,,6,0,3,,,,,,,,64,127,0,,,
5296,note_on,,0,0,2,,,,,,,,,,0,,42,38
5296,set_tempo,983606,16,1,0,,,,,,,,,,,,,
5296,note_on,,16,0,2,,,,,,,,,,0,,35,0
5312,set_tempo,1000000,16,1,0,,,,,,,,,,,,,
5312,note_on,,0,0,2,,,,,,,,,,0,,54,40
5312,note_on,,16,0,2,,,,,,,,,,0,,42,0
5328,set_tempo,1463414,16,1,0,,,,,,,,,,,,,
5328,note_on,,0,0,2,,,,,,,,,,0,,51,34
5328,note_on,,16,0,2,,,,,,,,,,0,,54,0
5344,note_on,,64,0,1,,,,,,,,,,0,,73,0
5344,set_tempo,800000,16,1,0,,,,,,,,,,,,,
5344,note_on,,0,0,2,,,,,,,,,,0,,49,32
5344,note_on,,16,0,2,,,,,,,,,,0,,51,0
5344,note_on,,0,0,1,,,,,,,,,,0,,69,0
5344,note_on,,0,0,1,,,,,,,,,,0,,63,0
5352,note_on,,8,0,1,,,,,,,,,,0,,63,60
5352,note_on,,0,0,1,,,,,,,,,,0,,71,70
5352,note_on,,0,0,1,,,,,,,,,,0,,69,62
5352,set_tempo,1304347,8,1,0,,,,,,,,,,,,,
5360,set_tempo,1071428,8,1,0,,,,,,,,,,,,,
5360,note_on,,16,0,2,,,,,,,,,,0,,49,0
5360,note_on,,0,0,2,,,,,,,,,,0,,47,30
5368,note_on,,16,0,1,,,,,,,,,,0,,71,0
5368,note_on,,0,0,1,,,,,,,,,,0,,69,0
5368,note_on,,0,0,1,,,,,,,,,,0,,63,0
5376,set_tempo,1818181,16,1,0,,,,,,,,,,,,,
5376,note_on,,16,0,2,,,,,,,,,,0,,47,0
5376,control_change,,88,0,3,,,,,,,,64,127,0,,,
5376,note_on,,0,0,1,,,,,,,,,,0,,68,60
5376,note_on,,0,0,1,,,,,,,,,,0,,73,68
5376,note_on,,0,0,2,,,,,,,,,,0,,35,26
5376,note_on,,8,0,1,,,,,,,,,,0,,64,58
5378,control_change,,2,0,3,,,,,,,,64,0,0,,,
5384,control_change,,6,0,3,,,,,,,,64,127,0,,,
5392,set_tempo,952380,16,1,0,,,,,,,,,,,,,
5392,note_on,,16,0,2,,,,,,,,,,0,,35,0
5392,note_on,,0,0,2,,,,,,,,,,0,,47,28
5408,note_on,,16,0,2,,,,,,,,,,0,,47,0
5408,note_on,,0,0,2,,,,,,,,,,0,,56,30
5408,set_tempo,895522,16,1,0,,,,,,,,,,,,,
5422,note_on,,46,0,1,,,,,,,,,,0,,73,0
5424,note_on,,16,0,2,,,,,,,,,,0,,56,0
5424,note_on,,0,0,2,,,,,,,,,,0,,52,31
5424,note_on,,2,0,1,,,,,,,,,,0,,71,56
5424,set_tempo,983606,16,1,0,,,,,,,,,,,,,
5440,note_on,,16,0,2,,,,,,,,,,0,,52,0
5440,set_tempo,952380,16,1,0,,,,,,,,,,,,,
5440,note_on,,0,0,2,,,,,,,,,,0,,49,32
5456,set_tempo,1000000,16,1,0,,,,,,,,,,,,,
5456,note_on,,0,0,2,,,,,,,,,,0,,47,38
5456,note_on,,16,0,2,,,,,,,,,,0,,49,0
5464,note_on,,40,0,1,,,,,,,,,,0,,68,0
5464,note_on,,0,0,1,,,,,,,,,,0,,64,0
5472,set_tempo,983606,16,1,0,,,,,,,,,,,,,
5472,note_on,,0,0,2,,,,,,,,,,0,,35,38
5472,note_on,,16,0,2,,,,,,,,,,0,,47,0
5474,control_change,,90,0,3,,,,,,,,64,0,0,,,
5480,control_change,,6,0,3,,,,,,,,64,127,0,,,
5488,note_on,,0,0,2,,,,,,,,,,0,,47,36
5488,set_tempo,1034482,16,1,0,,,,,,,,,,,,,
5488,note_on,,16,0,2,,,,,,,,,,0,,35,0
5504,note_on,,0,0,2,,,,,,,,,,0,,56,38
5504,note_on,,16,0,2,,,,,,,,,,0,,47,0
5504,set_tempo,952380,16,1,0,,,,,,,,,,,,,
5518,note_on,,54,0,1,,,,,,,,,,0,,71,0
5520,note_on,,2,0,1,,,,,,,,,,0,,71,56
5520,set_tempo,983606,16,1,0,,,,,,,,,,,,,
5520,note_on,,16,0,2,,,,,,,,,,0,,56,0
5520,note_on,,0,0,2,,,,,,,,,,0,,52,34
5536,note_on,,16,0,2,,,,,,,,,,0,,52,0
5536,note_on,,0,0,2,,,,,,,,,,0,,49,32
5536,set_tempo,1034482,16,1,0,,,,,,,,,,,,,
5552,note_on,,16,0,2,,,,,,,,,,0,,49,0
5552,note_on,,0,0,2,,,,,,,,,,0,,47,30
5552,set_tempo,1538461,16,1,0,,,,,,,,,,,,,
5560,note_on,,40,0,1,,,,,,,,,,0,,71,0
5568,set_tempo,1621621,16,1,0,,,,,,,,,,,,,
5568,control_change,,88,0,3,,,,,,,,64,127,0,,,
5568,note_on,,16,0,2,,,,,,,,,,0,,47,0
5568,note_on,,0,0,2,,,,,,,,,,0,,35,32
5568,note_on,,0,0,1,,,,,,,,,,0,,70,60
5568,note_on,,0,0,1,,,,,,,,,,0,,67,48
5568,note_on,,8,0,1,,,,,,,,,,0,,64,44
5570,control_change,,2,0,3,,,,,,,,64,0,0,,,
5576,control_change,,6,0,3,,,,,,,,64,127,0,,,
5584,note_on,,0,0,2,,,,,,,,,,0,,47,38
5584,note_on,,16,0,2,,,,,,,,,,0,,35,0
5584,set_tempo,952380,16,1,0,,,,,,,,,,,,,
5600,set_tempo,1000000,16,1,0,,,,,,,,,,,,,
5600,note_on,,16,0,2,,,,,,,,,,0,,47,0
5600,note_on,,0,0,2,,,,,,,,,,0,,55,42
5616,set_tempo,983606,16,1,0,,,,,,,,,,,,,
5616,note_on,,16,0,2,,,,,,,,,,0,,55,0
5616,note_on,,0,0,2,,,,,,,,,,0,,52,38
5632,set_tempo,1621621,16,1,0,,,,,,,,,,,,,
5632,note_on,,0,0,2,,,,,,,,,,0,,49,40
5632,note_on,,16,0,2,,,,,,,,,,0,,52,0
5638,note_on,,70,0,1,,,,,,,,,,0,,67,0
5638,note_on,,0,0,1,,,,,,,,,,0,,64,0
5640,note_on,,0,0,1,,,,,,,,,,0,,66,64
5640,note_on,,2,0,1,,,,,,,,,,0,,63,48
5640,set_tempo,800000,8,1,0,,,,,,,,,,,,,
5648,note_on,,16,0,2,,,,,,,,,,0,,49,0
5648,note_on,,0,0,2,,,,,,,,,,0,,47,30
5648,set_tempo,1333333,8,1,0,,,,,,,,,,,,,
5662,note_on,,22,0,1,,,,,,,,,,0,,66,0
5662,note_on,,0,0,1,,,,,,,,,,0,,70,0
5662,note_on,,0,0,1,,,,,,,,,,0,,63,0
5664,note_on,,2,0,1,,,,,,,,,,0,,64,56
5664,note_on,,0,0,1,,,,,,,,,,0,,67,62
5664,note_on,,16,0,2,,,,,,,,,,0,,47,0
5664,note_on,,0,0,2,,,,,,,,,,0,,35,30
5664,set_tempo,952380,16,1,0,,,,,,,,,,,,,
5666,control_change,,90,0,3,,,,,,,,64,0,0,,,
5672,control_change,,6,0,3,,,,,,,,64,127,0,,,
5680,note_on,,16,0,2,,,,,,,,,,0,,35,0
5680,note_on,,0,0,2,,,,,,,,,,0,,47,26
5680,set_tempo,983606,16,1,0,,,,,,,,,,,,,
5686,note_on,,22,0,1,,,,,,,,,,0,,67,0
5686,note_on,,0,0,1,,,,,,,,,,0,,64,0
5688,set_tempo,1071428,8,1,0,,,,,,,,,,,,,
5688,note_on,,0,0,1,,,,,,,,,,0,,66,56
5688,note_on,,2,0,1,,,,,,,,,,0,,63,50
5696,set_tempo,1621621,8,1,0,,,,,,,,,,,,,
5696,note_on,,0,0,2,,,,,,,,,,0,,55,30
5696,note_on,,16,0,2,,,,,,,,,,0,,47,0
5710,note_on,,22,0,1,,,,,,,,,,0,,66,0
5710,note_on,,0,0,1,,,,,,,,,,0,,63,0
5712,set_tempo,1818181,16,1,0,,,,,,,,,,,,,
5712,note_on,,16,0,2,,,,,,,,,,0,,55,0
5712,note_on,,2,0,1,,,,,,,,,,0,,64,44
5712,note_on,,0,0,1,,,,,,,,,,0,,67,52
5712,note_on,,0,0,2,,,,,,,,,,0,,52,28
5728,note_on,,0,0,2,,,,,,,,,,0,,49,27
5728,note_on,,16,0,2,,,,,,,,,,0,,52,0
5728,note_on,,0,0,1,,,,,,,,,,0,,64,0
5728,note_on,,16,0,1,,,,,,,,,,0,,67,0
5728,set_tempo,1333333,16,1,0,,,,,,,,,,,,,
5736,note_on,,0,0,1,,,,,,,,,,0,,67,46
5736,note_on,,8,0,1,,,,,,,,,,0,,64,38
5736,set_tempo,1621621,8,1,0,,,,,,,,,,,,,
5744,set_tempo,1250000,8,1,0,,,,,,,,,,,,,
5744,note_on,,16,0,2,,,,,,,,,,0,,49,0
5744,note_on,,0,0,2,,,,,,,,,,0,,47,26
5752,note_on,,0,0,1,,,,,,,,,,0,,64,0
5752,note_on,,16,0,1,,,,,,,,,,0,,67,0
5760,control_change,,88,0,3,,,,,,,,64,127,0,,,
5760,note_on,,16,0,2,,,,,,,,,,0,,47,0
5760,set_tempo,1621621,16,1,0,,,,,,,,,,,,,
5760,note_on,,0,0,2,,,,,,,,,,0,,35,32
5764,set_tempo,1935483,4,1,0,,,,,,,,,,,,,
5764,note_on,,0,0,1,,,,,,,,,,0,,66,44
5764,note_on,,0,0,1,,,,,,,,,,0,,69,58
5764,note_on,,12,0,1,,,,,,,,,,0,,64,66
5776,note_on,,16,0,2,,,,,,,,,,0,,35,0
5776,set_tempo,1000000,12,1,0,,,,,,,,,,,,,
5776,note_on,,0,0,2,,,,,,,,,,0,,47,42
5792,set_tempo,1111111,16,1,0,,,,,,,,,,,,,
5792,note_on,,0,0,2,,,,,,,,,,0,,54,46
5792,note_on,,16,0,2,,,,,,,,,,0,,47,0
5806,note_on,,42,0,1,,,,,,,,,,0,,64,0
5808,note_on,,0,0,2,,,,,,,,,,0,,57,46
5808,note_on,,16,0,2,,,,,,,,,,0,,54,0
5808,note_on,,2,0,1,,,,,,,,,,0,,63,58
5808,set_tempo,1333333,16,1,0,,,,,,,,,,,,,
5824,note_on,,0,0,2,,,,,,,,,,0,,60,64
5824,set_tempo,1153846,16,1,0,,,,,,,,,,,,,
5824,note_on,,16,0,2,,,,,,,,,,0,,57,0
5840,set_tempo,1071428,16,1,0,,,,,,,,,,,,,
5840,note_on,,16,0,2,,,,,,,,,,0,,60,0
5840,note_on,,0,0,2,,,,,,,,,,0,,59,62
5856,note_on,,16,0,2,,,,,,,,,,0,,59,0
5856,set_tempo,1395348,16,1,0,,,,,,,,,,,,,
5856,note_on,,0,0,2,,,,,,,,,,0,,57,60
5856,control_change,,96,0,3,,,,,,,,64,0,0,,,
5872,set_tempo,1111111,16,1,0,,,,,,,,,,,,,
5872,note_on,,0,0,2,,,,,,,,,,0,,54,62
5872,note_on,,16,0,2,,,,,,,,,,0,,57,0
5888,set_tempo,1200000,16,1,0,,,,,,,,,,,,,
5888,note_on,,0,0,2,,,,,,,,,,0,,51,64
5888,note_on,,16,0,2,,,,,,,,,,0,,54,0
5902,note_on,,0,0,1,,,,,,,,,,0,,69,0
5902,note_on,,0,0,1,,,,,,,,,,0,,66,0
5902,note_on,,94,0,1,,,,,,,,,,0,,63,0
5904,note_on,,16,0,2,,,,,,,,,,0,,51,0
5904,set_tempo,1395348,16,1,0,,,,,,,,,,,,,
5904,note_on,,0,0,2,,,,,,,,,,0,,48,66
5920,set_tempo,1621621,16,1,0,,,,,,,,,,,,,
5920,note_on,,16,0,2,,,,,,,,,,0,,48,0
5920,note_on,,0,0,2,,,,,,,,,,0,,47,68
5936,note_on,,16,0,2,,,,,,,,,,0,,47,0
5936,note_on,,0,0,2,,,,,,,,,,0,,35,66
5936,set_tempo,2000000,16,1,0,,,,,,,,,,,,,
5942,note_on,,40,0,1,,,,,,,,,,0,,71,66
5942,set_tempo,1818181,6,1,0,,,,,,,,,,,,,
5945,note_on,,3,0,1,,,,,,,,,,0,,71,0
5947,set_tempo,3333333,5,1,0,,,,,,,,,,,,,
5947,note_on,,2,0,1,,,,,,,,,,0,,71,64
5950,note_on,,3,0,1,,,,,,,,,,0,,71,0
5952,control_change,,96,0,3,,,,,,,,64,127,0,,,
5952,set_tempo,1000000,5,1,0,,,,,,,,,,,,,
5952,note_on,,0,0,2,,,,,,,,,,0,,40,48
5952,note_on,,16,0,2,,,,,,,,,,0,,35,0
5956,set_tempo,2142857,4,1,0,,,,,,,,,,,,,
5956,note_on,,6,0,1,,,,,,,,,,0,,79,84
5968,note_on,,0,0,2,,,,,,,,,,0,,47,44
5968,note_on,,16,0,2,,,,,,,,,,0,,40,0
5968,set_tempo,952380,12,1,0,,,,,,,,,,,,,
5984,note_on,,16,0,2,,,,,,,,,,0,,47,0
5984,note_on,,0,0,2,,,,,,,,,,0,,55,48
6000,set_tempo,923076,32,1,0,,,,,,,,,,,,,
6000,note_on,,16,0,2,,,,,,,,,,0,,55,0
6000,note_on,,0,0,2,,,,,,,,,,0,,52,46
6016,note_on,,16,0,2,,,,,,,,,,0,,52,0
6016,note_on,,0,0,2,,,,,,,,,,0,,60,47
6032,set_tempo,952380,32,1,0,,,,,,,,,,,,,
6032,note_on,,0,0,2,,,,,,,,,,0,,59,43
6032,note_on,,16,0,2,,,,,,,,,,0,,60,0
6040,note_on,,8,0,2,,,,,,,,,,0,,59,0
6048,note_on,,8,0,2,,,,,,,,,,0,,40,52
6048,set_tempo,983606,16,1,0,,,,,,,,,,,,,
6050,control_change,,98,0,3,,,,,,,,64,0,0,,,
6056,control_change,,6,0,3,,,,,,,,64,127,0,,,
6064,note_on,,16,0,2,,,,,,,,,,0,,40,0
6064,note_on,,0,0,2,,,,,,,,,,0,,47,44
6064,set_tempo,1000000,16,1,0,,,,,,,,,,,,,
6080,note_on,,0,0,2,,,,,,,,,,0,,55,48
6080,note_on,,16,0,2,,,,,,,,,,0,,47,0
6080,set_tempo,1071428,16,1,0,,,,,,,,,,,,,
6096,set_tempo,2307692,16,1,0,,,,,,,,,,,,,
6096,note_on,,0,0,2,,,,,,,,,,0,,52,46
6096,note_on,,16,0,2,,,,,,,,,,0,,55,0
6100,note_on,,144,0,1,,,,,,,,,,0,,79,0
6100,note_on,,0,0,1,,,,,,,,,,0,,71,62
6100,set_tempo,1000000,4,1,0,,,,,,,,,,,,,
6104,set_tempo,952380,4,1,0,,,,,,,,,,,,,
6104,note_on,,0,0,1,,,,,,,,,,0,,72,66
6104,note_on,,4,0,1,,,,,,,,,,0,,71,0
6108,set_tempo,1621621,4,1,0,,,,,,,,,,,,,
6108,note_on,,4,0,1,,,,,,,,,,0,,72,0
6108,note_on,,0,0,1,,,,,,,,,,0,,71,62
6112,note_on,,16,0,2,,,,,,,,,,0,,52,0
6112,note_on,,0,0,2,,,,,,,,,,0,,60,50
6118,note_on,,0,0,1,,,,,,,,,,0,,70,66
6118,note_on,,10,0,1,,,,,,,,,,0,,71,0
6118,set_tempo,923076,10,1,0,,,,,,,,,,,,,
6126,note_on,,0,0,1,,,,,,,,,,0,,71,70
6126,set_tempo,983606,8,1,0,,,,,,,,,,,,,
6126,note_on,,8,0,1,,,,,,,,,,0,,70,0
6129,note_on,,17,0,2,,,,,,,,,,0,,60,0
6129,note_on,,0,0,2,,,,,,,,,,0,,59,48
6134,note_on,,8,0,1,,,,,,,,,,0,,71,0
6134,set_tempo,1463414,8,1,0,,,,,,,,,,,,,
6134,note_on,,0,0,1,,,,,,,,,,0,,76,74
6136,note_on,,7,0,2,,,,,,,,,,0,,59,0
6142,note_on,,8,0,1,,,,,,,,,,0,,76,0
6144,control_change,,88,0,3,,,,,,,,64,127,0,,,
6144,note_on,,8,0,2,,,,,,,,,,0,,42,51
6144,note_on,,2,0,1,,,,,,,,,,0,,75,80
6146,control_change,,2,0,3,,,,,,,,64,0,0,,,
6152,control_change,,6,0,3,,,,,,,,64,127,0,,,
6160,note_on,,16,0,2,,,,,,,,,,0,,42,0
6160,note_on,,0,0,2,,,,,,,,,,0,,47,44
6160,set_tempo,923076,26,1,0,,,,,,,,,,,,,
6176,note_on,,16,0,2,,,,,,,,,,0,,47,0
6176,note_on,,0,0,2,,,,,,,,,,0,,57,48
6176,set_tempo,895522,16,1,0,,,,,,,,,,,,,
6192,note_on,,0,0,2,,,,,,,,,,0,,54,50
6192,note_on,,16,0,2,,,,,,,,,,0,,57,0
6208,note_on,,16,0,2,,,,,,,,,,0,,54,0
6208,note_on,,0,0,2,,,,,,,,,,0,,60,48
6208,set_tempo,923076,32,1,0,,,,,,,,,,,,,
6224,note_on,,0,0,2,,,,,,,,,,0,,59,46
6224,set_tempo,1000000,16,1,0,,,,,,,,,,,,,
6224,note_on,,16,0,2,,,,,,,,,,0,,60,0
6232,note_on,,8,0,2,,,,,,,,,,0,,59,0
6240,note_on,,8,0,2,,,,,,,,,,0,,43,58
6240,set_tempo,1153846,16,1,0,,,,,,,,,,,,,
6242,control_change,,90,0,3,,,,,,,,64,0,0,,,
6248,control_change,,6,0,3,,,,,,,,64,127,0,,,
6256,note_on,,0,0,2,,,,,,,,,,0,,47,46
6256,note_on,,16,0,2,,,,,,,,,,0,,43,0
6256,set_tempo,1071428,16,1,0,,,,,,,,,,,,,
6268,note_on,,124,0,1,,,,,,,,,,0,,75,0
6270,note_on,,2,0,1,,,,,,,,,,0,,76,78
6270,set_tempo,2307692,14,1,0,,,,,,,,,,,,,
6272,note_on,,16,0,2,,,,,,,,,,0,,47,0
6272,note_on,,0,0,2,,,,,,,,,,0,,55,48
6276,set_tempo,1071428,6,1,0,,,,,,,,,,,,,
6276,note_on,,0,0,1,,,,,,,,,,0,,78,74
6276,note_on,,6,0,1,,,,,,,,,,0,,76,0
6282,note_on,,0,0,1,,,,,,,,,,0,,76,72
6282,note_on,,6,0,1,,,,,,,,,,0,,78,0
6282,set_tempo,952380,6,1,0,,,,,,,,,,,,,
6285,note_on,,3,0,1,,,,,,,,,,0,,76,0
6285,note_on,,0,0,1,,,,,,,,,,0,,78,74
6285,set_tempo,895522,3,1,0,,,,,,,,,,,,,
6288,note_on,,16,0,2,,,,,,,,,,0,,55,0
6288,set_tempo,1935483,3,1,0,,,,,,,,,,,,,
6288,note_on,,0,0,2,,,,,,,,,,0,,52,46
6288,note_on,,3,0,1,,,,,,,,,,0,,78,0
6288,note_on,,0,0,1,,,,,,,,,,0,,76,72
6296,set_tempo,1071428,8,1,0,,,,,,,,,,,,,
6296,note_on,,8,0,1,,,,,,,,,,0,,76,0
6296,note_on,,0,0,1,,,,,,,,,,0,,75,72
6304,note_on,,0,0,1,,,,,,,,,,0,,76,82
6304,note_on,,8,0,1,,,,,,,,,,0,,75,0
6304,note_on,,0,0,2,,,,,,,,,,0,,60,48
6304,set_tempo,895522,8,1,0,,,,,,,,,,,,,
6304,note_on,,16,0,2,,,,,,,,,,0,,52,0
6312,set_tempo,845070,8,1,0,,,,,,,,,,,,,
6312,note_on,,8,0,1,,,,,,,,,,0,,76,0
6312,note_on,,0,0,1,,,,,,,,,,0,,78,88
6320,note_on,,16,0,2,,,,,,,,,,0,,60,0
6320,note_on,,0,0,2,,,,,,,,,,0,,59,46
6320,set_tempo,869565,8,1,0,,,,,,,,,,,,,
6320,note_on,,8,0,1,,,,,,,,,,0,,78,0
6320,note_on,,0,0,1,,,,,,,,,,0,,79,90
6328,set_tempo,1071428,8,1,0,,,,,,,,,,,,,
6328,note_on,,8,0,1,,,,,,,,,,0,,79,0
6328,note_on,,0,0,1,,,,,,,,,,0,,81,92
6328,note_on,,8,0,2,,,,,,,,,,0,,59,0
6334,note_on,,6,0,1,,,,,,,,,,0,,81,0
6336,note_on,,2,0,1,,,,,,,,,,0,,83,90
6336,set_tempo,1153846,8,1,0,,,,,,,,,,,,,
6336,control_change,,88,0,3,,,,,,,,64,127,0,,,
6336,note_on,,8,0,2,,,,,,,,,,0,,39,54
6338,control_change,,2,0,3,,,,,,,,64,0,0,,,
6344,control_change,,6,0,3,,,,,,,,64,127,0,,,
6352,set_tempo,923076,16,1,0,,,,,,,,,,,,,
6352,note_on,,16,0,2,,,,,,,,,,0,,39,0
6352,note_on,,0,0,2,,,,,,,,,,0,,47,46
6368,note_on,,0,0,2,,,,,,,,,,0,,57,48
6368,note_on,,16,0,2,,,,,,,,,,0,,47,0
6368,set_tempo,895522,16,1,0,,,,,,,,,,,,,
6384,note_on,,0,0,2,,,,,,,,,,0,,54,44
6384,note_on,,16,0,2,,,,,,,,,,0,,57,0
6384,set_tempo,869565,16,1,0,,,,,,,,,,,,,
6400,note_on,,0,0,2,,,,,,,,,,0,,60,48
6400,set_tempo,895522,16,1,0,,,,,,,,,,,,,
6400,note_on,,16,0,2,,,,,,,,,,0,,54,0
6416,note_on,,16,0,2,,,,,,,,,,0,,60,0
6416,set_tempo,1000000,16,1,0,,,,,,,,,,,,,
6416,note_on,,0,0,2,,,,,,,,,,0,,59,46
6424,note_on,,8,0,2,,,,,,,,,,0,,59,0
6432,set_tempo,1153846,16,1,0,,,,,,,,,,,,,
6432,note_on,,8,0,2,,,,,,,,,,0,,40,58
6434,control_change,,90,0,3,,,,,,,,64,0,0,,,
6440,control_change,,6,0,3,,,,,,,,64,127,0,,,
6448,set_tempo,800000,16,1,0,,,,,,,,,,,,,
6448,note_on,,0,0,2,,,,,,,,,,0,,47,48
6448,note_on,,16,0,2,,,,,,,,,,0,,40,0
6464,note_on,,16,0,2,,,,,,,,,,0,,47,0
6464,note_on,,0,0,2,,,,,,,,,,0,,55,52
6474,set_tempo,1250000,26,1,0,,,,,,,,,,,,,
6474,note_on,,0,0,1,,,,,,,,,,0,,83,74
6474,note_on,,138,0,1,,,,,,,,,,0,,83,0
6477,note_on,,0,0,1,,,,,,,,,,0,,84,72
6477,set_tempo,1153846,3,1,0,,,,,,,,,,,,,
6477,note_on,,3,0,1,,,,,,,,,,0,,83,0
6480,note_on,,3,0,1,,,,,,,,,,0,,84,0
6480,note_on,,0,0,1,,,,,,,,,,0,,83,70
6480,set_tempo,1935483,3,1,0,,,,,,,,,,,,,
6480,note_on,,16,0,2,,,,,,,,,,0,,55,0
6480,note_on,,0,0,2,,,,,,,,,,0,,52,48
6488,set_tempo,1071428,8,1,0,,,,,,,,,,,,,
6488,note_on,,0,0,1,,,,,,,,,,0,,85,74
6488,note_on,,8,0,1,,,,,,,,,,0,,83,0
6496,set_tempo,952380,8,1,0,,,,,,,,,,,,,
6496,note_on,,0,0,1,,,,,,,,,,0,,87,76
6496,note_on,,8,0,1,,,,,,,,,,0,,85,0
6496,note_on,,16,0,2,,,,,,,,,,0,,52,0
6496,note_on,,0,0,2,,,,,,,,,,0,,60,46
6504,note_on,,8,0,1,,,,,,,,,,0,,87,0
6504,set_tempo,923076,8,1,0,,,,,,,,,,,,,
6504,note_on,,0,0,1,,,,,,,,,,0,,88,80
6512,note_on,,16,0,2,,,,,,,,,,0,,60,0
6512,set_tempo,983606,8,1,0,,,,,,,,,,,,,
6512,note_on,,8,0,1,,,,,,,,,,0,,88,0
6512,note_on,,0,0,1,,,,,,,,,,0,,90,84
6512,note_on,,0,0,2,,,,,,,,,,0,,59,42
6520,note_on,,8,0,2,,,,,,,,,,0,,59,0
6520,set_tempo,1621621,8,1,0,,,,,,,,,,,,,
6520,note_on,,0,0,1,,,,,,,,,,0,,91,84
6520,note_on,,8,0,1,,,,,,,,,,0,,90,0
6523,note_on,,3,0,1,,,,,,,,,,0,,91,0
6524,set_tempo,2000000,4,1,0,,,,,,,,,,,,,
6524,note_on,,1,0,1,,,,,,,,,,0,,75,64
6527,note_on,,3,0,1,,,,,,,,,,0,,75,0
6528,note_on,,1,0,1,,,,,,,,,,0,,90,80
6528,control_change,,88,0,3,,,,,,,,64,127,0,,,
6528,set_tempo,1463414,4,1,0,,,,,,,,,,,,,
6528,note_on,,8,0,2,,,,,,,,,,0,,35,52
6530,control_change,,2,0,3,,,,,,,,64,0,0,,,
6536,control_change,,6,0,3,,,,,,,,64,127,0,,,
6544,set_tempo,1153846,16,1,0,,,,,,,,,,,,,
6544,note_on,,0,0,2,,,,,,,,,,0,,47,50
6544,note_on,,16,0,2,,,,,,,,,,0,,35,0
6560,note_on,,16,0,2,,,,,,,,,,0,,47,0
6560,set_tempo,1250000,16,1,0,,,,,,,,,,,,,
6560,note_on,,0,0,2,,,,,,,,,,0,,54,52
6576,note_on,,16,0,2,,,,,,,,,,0,,54,0
6576,note_on,,0,0,2,,,,,,,,,,0,,55,46
6578,control_change,,42,0,3,,,,,,,,64,0,0,,,
6580,note_on,,52,0,1,,,,,,,,,,0,,90,0
6582,note_on,,2,0,1,,,,,,,,,,0,,88,74
6582,set_tempo,2727272,22,1,0,,,,,,,,,,,,,
6584,control_change,,6,0,3,,,,,,,,64,127,0,,,
6587,note_on,,0,0,1,,,,,,,,,,0,,85,70
6587,note_on,,5,0,1,,,,,,,,,,0,,88,0
6587,set_tempo,1463414,5,1,0,,,,,,,,,,,,,
6592,note_on,,5,0,1,,,,,,,,,,0,,85,0
6592,note_on,,0,0,1,,,,,,,,,,0,,82,66
6592,note_on,,16,0,2,,,,,,,,,,0,,55,0
6592,note_on,,0,0,2,,,,,,,,,,0,,47,36
6592,set_tempo,1304347,5,1,0,,,,,,,,,,,,,
6597,set_tempo,1200000,5,1,0,,,,,,,,,,,,,
6597,note_on,,5,0,1,,,,,,,,,,0,,82,0
6597,note_on,,0,0,1,,,,,,,,,,0,,79,60
6602,note_on,,5,0,1,,,,,,,,,,0,,79,0
6602,note_on,,0,0,1,,,,,,,,,,0,,76,59
6602,set_tempo,1153846,5,1,0,,,,,,,,,,,,,
6607,set_tempo,1200000,5,1,0,,,,,,,,,,,,,
6607,note_on,,0,0,1,,,,,,,,,,0,,73,58
6607,note_on,,5,0,1,,,,,,,,,,0,,76,0
6608,note_on,,16,0,2,,,,,,,,,,0,,47,0
6608,note_on,,0,0,2,,,,,,,,,,0,,58,34
6612,note_on,,0,0,1,,,,,,,,,,0,,70,54
6612,set_tempo,1304347,5,1,0,,,,,,,,,,,,,
6612,note_on,,5,0,1,,,,,,,,,,0,,73,0
6618,set_tempo,1714285,6,1,0,,,,,,,,,,,,,
6618,note_on,,6,0,1,,,,,,,,,,0,,70,0
6618,note_on,,0,0,1,,,,,,,,,,0,,64,50
6622,note_on,,4,0,1,,,,,,,,,,0,,64,0
6624,note_on,,0,0,2,,,,,,,,,,0,,59,38
6624,note_on,,16,0,2,,,,,,,,,,0,,58,0
6624,set_tempo,1463414,6,1,0,,,,,,,,,,,,,
6624,note_on,,2,0,1,,,,,,,,,,0,,63,40
6624,note_on,,0,0,1,,,,,,,,,,0,,71,50
6626,control_change,,42,0,3,,,,,,,,64,0,0,,,
6632,control_change,,6,0,3,,,,,,,,64,127,0,,,
6640,note_on,,0,0,2,,,,,,,,,,0,,47,42
6640,note_on,,16,0,2,,,,,,,,,,0,,59,0
6640,set_tempo,1153846,16,1,0,,,,,,,,,,,,,
6656,note_on,,16,0,2,,,,,,,,,,0,,47,0
6656,note_on,,0,0,2,,,,,,,,,,0,,46,38
6656,set_tempo,1250000,16,1,0,,,,,,,,,,,,,
6670,note_on,,0,0,1,,,,,,,,,,0,,63,0
6670,note_on,,46,0,1,,,,,,,,,,0,,71,0
6672,note_on,,16,0,2,,,,,,,,,,0,,46,0
6672,note_on,,0,0,2,,,,,,,,,,0,,47,39
6672,set_tempo,1200000,16,1,0,,,,,,,,,,,,,
6688,set_tempo,1153846,16,1,0,,,,,,,,,,,,,
6688,note_on,,16,0,2,,,,,,,,,,0,,47,0
6688,note_on,,0,0,2,,,,,,,,,,0,,51,38
6704,set_tempo,1333333,16,1,0,,,,,,,,,,,,,
6704,note_on,,16,0,2,,,,,,,,,,0,,51,0
6704,note_on,,0,0,2,,,,,,,,,,0,,54,36
6720,set_tempo,1621621,16,1,0,,,,,,,,,,,,,
6720,control_change,,88,0,3,,,,,,,,64,127,0,,,
6720,note_on,,0,0,2,,,,,,,,,,0,,43,32
6720,note_on,,16,0,2,,,,,,,,,,0,,54,0
6720,note_on,,50,0,1,,,,,,,,,,0,,62,50
6722,control_change,,2,0,3,,,,,,,,64,0,0,,,
6728,control_change,,6,0,3,,,,,,,,64,127,0,,,
6736,set_tempo,1000000,16,1,0,,,,,,,,,,,,,
6736,note_on,,0,0,2,,,,,,,,,,0,,50,28
6736,note_on,,16,0,2,,,,,,,,,,0,,43,0
6752,set_tempo,1818181,16,1,0,,,,,,,,,,,,,
6752,note_on,,16,0,2,,,,,,,,,,0,,50,0
6752,note_on,,0,0,2,,,,,,,,,,0,,59,30
6756,note_on,,0,0,1,,,,,,,,,,0,,64,38
6756,note_on,,36,0,1,,,,,,,,,,0,,62,0
6758,note_on,,2,0,1,,,,,,,,,,0,,64,0
6758,control_change,,30,0,3,,,,,,,,64,0,0,,,
6759,note_on,,1,0,1,,,,,,,,,,0,,66,42
6759,set_tempo,1621621,7,1,0,,,,,,,,,,,,,
6761,note_on,,2,0,1,,,,,,,,,,0,,66,0
6762,note_on,,1,0,1,,,,,,,,,,0,,67,40
6762,set_tempo,1818181,3,1,0,,,,,,,,,,,,,
6764,note_on,,2,0,1,,,,,,,,,,0,,67,0
6765,set_tempo,3333333,3,1,0,,,,,,,,,,,,,
6765,note_on,,1,0,1,,,,,,,,,,0,,69,37
6767,note_on,,2,0,1,,,,,,,,,,0,,69,0
6768,note_on,,0,0,2,,,,,,,,,,0,,55,26
6768,note_on,,16,0,2,,,,,,,,,,0,,59,0
6768,note_on,,1,0,1,,,,,,,,,,0,,71,36
6776,note_on,,8,0,1,,,,,,,,,,0,,71,0
6784,set_tempo,1153846,19,1,0,,,,,,,,,,,,,
6784,note_on,,16,0,2,,,,,,,,,,0,,55,0
6784,note_on,,0,0,2,,,,,,,,,,0,,64,32
6784,note_on,,8,0,1,,,,,,,,,,0,,71,38
6792,note_on,,8,0,1,,,,,,,,,,0,,71,0
6800,note_on,,8,0,1,,,,,,,,,,0,,71,38
6800,note_on,,16,0,2,,,,,,,,,,0,,64,0
6800,note_on,,0,0,2,,,,,,,,,,0,,62,26
6800,set_tempo,1250000,16,1,0,,,,,,,,,,,,,
6808,note_on,,8,0,1,,,,,,,,,,0,,71,0
6808,note_on,,8,0,2,,,,,,,,,,0,,62,0
6814,control_change,,56,0,3,,,,,,,,64,127,0,,,
6816,set_tempo,1333333,16,1,0,,,,,,,,,,,,,
6816,note_on,,8,0,2,,,,,,,,,,0,,42,30
6816,note_on,,8,0,1,,,,,,,,,,0,,71,36
6832,set_tempo,1000000,16,1,0,,,,,,,,,,,,,
6832,note_on,,16,0,2,,,,,,,,,,0,,42,0
6832,note_on,,0,0,2,,,,,,,,,,0,,54,34
6848,set_tempo,1153846,16,1,0,,,,,,,,,,,,,
6848,note_on,,16,0,2,,,,,,,,,,0,,54,0
6848,note_on,,0,0,2,,,,,,,,,,0,,62,36
6856,control_change,,42,0,3,,,,,,,,64,0,0,,,
6858,note_on,,42,0,1,,,,,,,,,,0,,71,0
6858,note_on,,0,0,1,,,,,,,,,,0,,70,40
6858,set_tempo,1071428,10,1,0,,,,,,,,,,,,,
6861,note_on,,3,0,1,,,,,,,,,,0,,70,0
6861,note_on,,0,0,1,,,,,,,,,,0,,71,44
6864,set_tempo,2727272,6,1,0,,,,,,,,,,,,,
6864,note_on,,16,0,2,,,,,,,,,,0,,62,0
6864,note_on,,3,0,1,,,,,,,,,,0,,71,0
6864,note_on,,0,0,1,,,,,,,,,,0,,70,42
6864,note_on,,0,0,2,,,,,,,,,,0,,64,32
6869,note_on,,5,0,1,,,,,,,,,,0,,70,0
6869,note_on,,0,0,1,,,,,,,,,,0,,68,40
6869,set_tempo,1250000,5,1,0,,,,,,,,,,,,,
6872,note_on,,3,0,1,,,,,,,,,,0,,68,0
6874,set_tempo,983606,5,1,0,,,,,,,,,,,,,
6874,note_on,,2,0,1,,,,,,,,,,0,,70,42
6877,note_on,,3,0,1,,,,,,,,,,0,,70,0
6879,note_on,,2,0,1,,,,,,,,,,0,,71,44
6879,set_tempo,923076,5,1,0,,,,,,,,,,,,,
6880,note_on,,16,0,2,,,,,,,,,,0,,64,0
6880,note_on,,0,0,2,,,,,,,,,,0,,61,26
6882,note_on,,3,0,1,,,,,,,,,,0,,71,0
6884,set_tempo,895522,5,1,0,,,,,,,,,,,,,
6884,note_on,,2,0,1,,,,,,,,,,0,,73,46
6886,note_on,,2,0,1,,,,,,,,,,0,,73,0
6888,note_on,,2,0,1,,,,,,,,,,0,,74,48
6888,set_tempo,952380,4,1,0,,,,,,,,,,,,,
6890,note_on,,2,0,1,,,,,,,,,,0,,74,0
6892,note_on,,2,0,1,,,,,,,,,,0,,76,50
6892,set_tempo,983606,4,1,0,,,,,,,,,,,,,
6895,note_on,,3,0,1,,,,,,,,,,0,,76,0
6896,note_on,,16,0,2,,,,,,,,,,0,,61,0
6896,note_on,,0,0,2,,,,,,,,,,0,,54,24
6897,set_tempo,952380,5,1,0,,,,,,,,,,,,,
6897,note_on,,2,0,1,,,,,,,,,,0,,78,48
6900,note_on,,3,0,1,,,,,,,,,,0,,78,0
6902,note_on,,2,0,1,,,,,,,,,,0,,80,45
6902,set_tempo,895522,5,1,0,,,,,,,,,,,,,
6904,note_on,,8,0,2,,,,,,,,,,0,,54,0
6905,note_on,,3,0,1,,,,,,,,,,0,,80,0
6907,set_tempo,1000000,5,1,0,,,,,,,,,,,,,
6907,note_on,,2,0,1,,,,,,,,,,0,,82,42
6910,note_on,,3,0,1,,,,,,,,,,0,,82,0
6912,set_tempo,1333333,5,1,0,,,,,,,,,,,,,
6912,note_on,,8,0,2,,,,,,,,,,0,,47,24
6912,control_change,,56,0,3,,,,,,,,64,127,0,,,
6912,note_on,,2,0,1,,,,,,,,,,0,,83,44
6928,note_on,,16,0,2,,,,,,,,,,0,,47,0
6928,set_tempo,1000000,16,1,0,,,,,,,,,,,,,
6928,note_on,,0,0,2,,,,,,,,,,0,,54,26
6944,note_on,,0,0,2,,,,,,,,,,0,,62,28
6944,set_tempo,983606,16,1,0,,,,,,,,,,,,,
6944,note_on,,16,0,2,,,,,,,,,,0,,54,0
6960,note_on,,16,0,2,,,,,,,,,,0,,62,0
6960,note_on,,0,0,2,,,,,,,,,,0,,59,28
6960,set_tempo,1034482,16,1,0,,,,,,,,,,,,,
6976,note_on,,16,0,2,,,,,,,,,,0,,59,0
6976,note_on,,0,0,2,,,,,,,,,,0,,67,24
6976,set_tempo,983606,16,1,0,,,,,,,,,,,,,
6992,set_tempo,1071428,16,1,0,,,,,,,,,,,,,
6992,note_on,,16,0,2,,,,,,,,,,0,,67,0
6992,note_on,,0,0,2,,,,,,,,,,0,,66,26
7000,note_on,,88,0,1,,,,,,,,,,0,,83,0
7008,set_tempo,1333333,16,1,0,,,,,,,,,,,,,
7008,note_on,,16,0,2,,,,,,,,,,0,,66,0
7008,note_on,,8,0,1,,,,,,,,,,0,,83,52
7008,note_on,,0,0,2,,,,,,,,,,0,,65,26
7010,control_change,,98,0,3,,,,,,,,64,0,0,,,
7016,set_tempo,1153846,8,1,0,,,,,,,,,,,,,
7016,note_on,,8,0,1,,,,,,,,,,0,,85,40
7016,control_change,,6,0,3,,,,,,,,64,127,0,,,
7017,note_on,,1,0,1,,,,,,,,,,0,,83,0
7020,note_on,,3,0,1,,,,,,,,,,0,,83,46
7020,set_tempo,983606,4,1,0,,,,,,,,,,,,,
7021,note_on,,1,0,1,,,,,,,,,,0,,85,0
7024,note_on,,3,0,1,,,,,,,,,,0,,85,44
7024,set_tempo,952380,4,1,0,,,,,,,,,,,,,
7025,note_on,,0,0,2,,,,,,,,,,0,,62,29
7025,note_on,,1,0,1,,,,,,,,,,0,,83,0
7025,note_on,,17,0,2,,,,,,,,,,0,,65,0
7028,note_on,,3,0,1,,,,,,,,,,0,,83,49
7028,set_tempo,1111111,4,1,0,,,,,,,,,,,,,
7029,note_on,,1,0,1,,,,,,,,,,0,,85,0
7031,set_tempo,1071428,3,1,0,,,,,,,,,,,,,
7031,note_on,,2,0,1,,,,,,,,,,0,,85,46
7032,note_on,,1,0,1,,,,,,,,,,0,,83,0
7034,set_tempo,1000000,3,1,0,,,,,,,,,,,,,
7034,note_on,,2,0,1,,,,,,,,,,0,,83,50
7035,note_on,,1,0,1,,,,,,,,,,0,,85,0
7037,note_on,,2,0,1,,,,,,,,,,0,,85,47
7038,note_on,,1,0,1,,,,,,,,,,0,,83,0
7040,note_on,,2,0,1,,,,,,,,,,0,,83,51
7041,note_on,,1,0,1,,,,,,,,,,0,,85,0
7041,note_on,,16,0,2,,,,,,,,,,0,,62,0
7041,note_on,,0,0,2,,,,,,,,,,0,,59,31
7043,note_on,,2,0,1,,,,,,,,,,0,,85,47
7044,note_on,,1,0,1,,,,,,,,,,0,,83,0
7046,note_on,,2,0,1,,,,,,,,,,0,,83,52
7047,note_on,,1,0,1,,,,,,,,,,0,,85,0
7049,note_on,,2,0,1,,,,,,,,,,0,,85,48
7050,note_on,,1,0,1,,,,,,,,,,0,,83,0
7052,note_on,,2,0,1,,,,,,,,,,0,,83,52
7053,note_on,,1,0,1,,,,,,,,,,0,,85,0
7055,note_on,,2,0,1,,,,,,,,,,0,,85,48
7056,note_on,,0,0,2,,,,,,,,,,0,,53,33
7056,note_on,,1,0,1,,,,,,,,,,0,,83,0
7056,note_on,,15,0,2,,,,,,,,,,0,,59,0
7058,note_on,,2,0,1,,,,,,,,,,0,,83,51
7059,note_on,,1,0,1,,,,,,,,,,0,,85,0
7061,note_on,,2,0,1,,,,,,,,,,0,,85,47
7062,note_on,,1,0,1,,,,,,,,,,0,,83,0
7064,note_on,,2,0,1,,,,,,,,,,0,,83,50
7065,note_on,,1,0,1,,,,,,,,,,0,,85,0
7067,note_on,,2,0,1,,,,,,,,,,0,,85,46
7068,note_on,,1,0,1,,,,,,,,,,0,,83,0
7070,note_on,,2,0,1,,,,,,,,,,0,,83,50
7071,note_on,,0,0,2,,,,,,,,,,0,,50,34
7071,note_on,,15,0,2,,,,,,,,,,0,,53,0
7071,note_on,,1,0,1,,,,,,,,,,0,,85,0
7073,note_on,,2,0,1,,,,,,,,,,0,,85,45
7074,note_on,,1,0,1,,,,,,,,,,0,,83,0
7076,set_tempo,1034482,42,1,0,,,,,,,,,,,,,
7076,note_on,,2,0,1,,,,,,,,,,0,,83,49
7077,note_on,,1,0,1,,,,,,,,,,0,,85,0
7079,set_tempo,1071428,3,1,0,,,,,,,,,,,,,
7079,note_on,,2,0,1,,,,,,,,,,0,,85,45
7080,note_on,,1,0,1,,,,,,,,,,0,,83,0
7082,set_tempo,1111111,3,1,0,,,,,,,,,,,,,
7082,note_on,,2,0,1,,,,,,,,,,0,,83,48
7083,note_on,,1,0,1,,,,,,,,,,0,,85,0
7085,set_tempo,1200000,3,1,0,,,,,,,,,,,,,
7085,note_on,,2,0,1,,,,,,,,,,0,,85,44
7086,note_on,,1,0,1,,,,,,,,,,0,,83,0
7087,note_on,,16,0,2,,,,,,,,,,0,,50,0
7087,note_on,,0,0,2,,,,,,,,,,0,,41,38
7088,set_tempo,1463414,3,1,0,,,,,,,,,,,,,
7088,note_on,,2,0,1,,,,,,,,,,0,,83,49
7089,note_on,,1,0,1,,,,,,,,,,0,,85,0
7091,set_tempo,1621621,3,1,0,,,,,,,,,,,,,
7091,note_on,,2,0,1,,,,,,,,,,0,,82,53
7092,control_change,,76,0,3,,,,,,,,64,0,0,,,
7092,note_on,,1,0,1,,,,,,,,,,0,,83,0
7094,set_tempo,1250000,3,1,0,,,,,,,,,,,,,
7094,note_on,,2,0,1,,,,,,,,,,0,,83,51
7095,note_on,,1,0,1,,,,,,,,,,0,,82,0
7097,set_tempo,1333333,3,1,0,,,,,,,,,,,,,
7097,note_on,,2,0,1,,,,,,,,,,0,,85,55
7098,note_on,,1,0,1,,,,,,,,,,0,,83,0
7100,note_on,,2,0,1,,,,,,,,,,0,,86,52
7100,set_tempo,1463414,3,1,0,,,,,,,,,,,,,
7101,note_on,,1,0,1,,,,,,,,,,0,,85,0
7103,note_on,,2,0,1,,,,,,,,,,0,,86,0
7104,note_on,,17,0,2,,,,,,,,,,0,,41,0
7104,note_on,,0,0,2,,,,,,,,,,0,,42,42
7104,control_change,,12,0,3,,,,,,,,64,127,0,,,
7104,note_on,,1,0,1,,,,,,,,,,0,,83,70
7104,note_on,,0,0,1,,,,,,,,,,0,,85,66
7104,set_tempo,2000000,4,1,0,,,,,,,,,,,,,
7108,set_tempo,1071428,4,1,0,,,,,,,,,,,,,
7108,note_on,,4,0,1,,,,,,,,,,0,,86,50
7109,note_on,,1,0,1,,,,,,,,,,0,,85,0
7111,set_tempo,1621621,3,1,0,,,,,,,,,,,,,
7111,note_on,,2,0,1,,,,,,,,,,0,,85,50
7112,note_on,,1,0,1,,,,,,,,,,0,,86,0
7114,set_tempo,1304347,3,1,0,,,,,,,,,,,,,
7114,note_on,,2,0,1,,,,,,,,,,0,,86,48
7115,note_on,,1,0,1,,,,,,,,,,0,,85,0
7117,note_on,,2,0,1,,,,,,,,,,0,,85,52
7117,set_tempo,1153846,3,1,0,,,,,,,,,,,,,
7118,note_on,,1,0,1,,,,,,,,,,0,,86,0
7120,note_on,,2,0,1,,,,,,,,,,0,,86,48
7120,set_tempo,1071428,3,1,0,,,,,,,,,,,,,
7121,note_on,,0,0,2,,,,,,,,,,0,,54,33
7121,note_on,,17,0,2,,,,,,,,,,0,,42,0
7121,note_on,,1,0,1,,,,,,,,,,0,,85,0
7123,note_on,,2,0,1,,,,,,,,,,0,,85,52
7123,set_tempo,1034482,3,1,0,,,,,,,,,,,,,
7124,note_on,,1,0,1,,,,,,,,,,0,,86,0
7126,note_on,,2,0,1,,,,,,,,,,0,,86,48
7126,set_tempo,1000000,3,1,0,,,,,,,,,,,,,
7127,note_on,,1,0,1,,,,,,,,,,0,,85,0
7129,note_on,,2,0,1,,,,,,,,,,0,,85,52
7130,note_on,,1,0,1,,,,,,,,,,0,,86,0
7132,note_on,,2,0,1,,,,,,,,,,0,,86,48
7133,note_on,,1,0,1,,,,,,,,,,0,,85,0
7135,note_on,,2,0,1,,,,,,,,,,0,,85,52
7136,note_on,,1,0,1,,,,,,,,,,0,,86,0
7137,note_on,,16,0,2,,,,,,,,,,0,,54,0
7137,note_on,,0,0,2,,,,,,,,,,0,,61,36
7138,note_on,,2,0,1,,,,,,,,,,0,,86,48
7139,note_on,,1,0,1,,,,,,,,,,0,,85,0
7141,note_on,,2,0,1,,,,,,,,,,0,,85,52
7142,note_on,,1,0,1,,,,,,,,,,0,,86,0
7144,note_on,,2,0,1,,,,,,,,,,0,,86,48
7145,note_on,,1,0,1,,,,,,,,,,0,,85,0
7147,note_on,,2,0,1,,,,,,,,,,0,,85,52
7148,note_on,,1,0,1,,,,,,,,,,0,,86,0
7150,note_on,,2,0,1,,,,,,,,,,0,,86,48
7151,note_on,,1,0,1,,,,,,,,,,0,,85,0
7152,note_on,,15,0,2,,,,,,,,,,0,,61,0
7152,note_on,,0,0,2,,,,,,,,,,0,,64,38
7153,note_on,,2,0,1,,,,,,,,,,0,,85,52
7154,note_on,,1,0,1,,,,,,,,,,0,,86,0
7156,note_on,,2,0,1,,,,,,,,,,0,,86,48
7157,note_on,,1,0,1,,,,,,,,,,0,,85,0
7159,note_on,,2,0,1,,,,,,,,,,0,,85,52
7160,note_on,,1,0,1,,,,,,,,,,0,,86,0
7162,note_on,,2,0,1,,,,,,,,,,0,,86,48
7163,note_on,,1,0,1,,,,,,,,,,0,,85,0
7165,note_on,,2,0,1,,,,,,,,,,0,,85,52
7166,note_on,,1,0,1,,,,,,,,,,0,,86,0
7167,note_on,,15,0,2,,,,,,,,,,0,,64,0
7167,note_on,,0,0,2,,,,,,,,,,0,,67,40
7168,note_on,,2,0,1,,,,,,,,,,0,,86,48
7169,note_on,,1,0,1,,,,,,,,,,0,,85,0
7171,note_on,,2,0,1,,,,,,,,,,0,,85,52
7172,note_on,,1,0,1,,,,,,,,,,0,,86,0
7174,note_on,,2,0,1,,,,,,,,,,0,,86,48
7175,note_on,,1,0,1,,,,,,,,,,0,,85,0
7177,note_on,,2,0,1,,,,,,,,,,0,,85,52
7178,note_on,,1,0,1,,,,,,,,,,0,,86,0
7180,set_tempo,1034482,54,1,0,,,,,,,,,,,,,
7180,note_on,,2,0,1,,,,,,,,,,0,,86,50
7181,note_on,,1,0,1,,,,,,,,,,0,,85,0
7183,note_on,,2,0,1,,,,,,,,,,0,,85,56
7183,note_on,,0,0,2,,,,,,,,,,0,,66,38
7183,note_on,,16,0,2,,,,,,,,,,0,,67,0
7183,set_tempo,1071428,3,1,0,,,,,,,,,,,,,
7184,note_on,,1,0,1,,,,,,,,,,0,,86,0
7186,note_on,,2,0,1,,,,,,,,,,0,,86,64
7186,set_tempo,1153846,3,1,0,,,,,,,,,,,,,
7187,note_on,,1,0,1,,,,,,,,,,0,,85,0
7189,note_on,,2,0,1,,,,,,,,,,0,,85,68
7189,set_tempo,1071428,3,1,0,,,,,,,,,,,,,
7190,note_on,,1,0,1,,,,,,,,,,0,,86,0
7193,note_on,,3,0,1,,,,,,,,,,0,,86,68
7193,set_tempo,1000000,4,1,0,,,,,,,,,,,,,
7194,note_on,,1,0,1,,,,,,,,,,0,,85,0
7198,note_on,,0,0,1,,,,,,,,,,0,,83,0
7198,note_on,,4,0,1,,,,,,,,,,0,,86,0
7200,note_on,,2,0,1,,,,,,,,,,0,,82,70
7200,note_on,,0,0,1,,,,,,,,,,0,,85,70
7200,note_on,,0,0,2,,,,,,,,,,0,,64,36
7200,note_on,,17,0,2,,,,,,,,,,0,,66,0
7200,set_tempo,2000000,7,1,0,,,,,,,,,,,,,
7202,control_change,,98,0,3,,,,,,,,64,0,0,,,
7203,set_tempo,1333333,3,1,0,,,,,,,,,,,,,
7203,note_on,,3,0,1,,,,,,,,,,0,,86,62
7204,note_on,,1,0,1,,,,,,,,,,0,,85,0
7206,note_on,,2,0,1,,,,,,,,,,0,,85,64
7206,set_tempo,1200000,3,1,0,,,,,,,,,,,,,
7207,note_on,,1,0,1,,,,,,,,,,0,,86,0
7208,control_change,,6,0,3,,,,,,,,64,127,0,,,
7209,set_tempo,1111111,3,1,0,,,,,,,,,,,,,
7209,note_on,,2,0,1,,,,,,,,,,0,,86,58
7210,note_on,,1,0,1,,,,,,,,,,0,,85,0
7212,set_tempo,1071428,3,1,0,,,,,,,,,,,,,
7212,note_on,,2,0,1,,,,,,,,,,0,,85,60
7213,note_on,,1,0,1,,,,,,,,,,0,,86,0
7215,set_tempo,1034482,3,1,0,,,,,,,,,,,,,
7215,note_on,,2,0,1,,,,,,,,,,0,,86,56
7216,note_on,,1,0,1,,,,,,,,,,0,,85,0
7216,note_on,,0,0,2,,,,,,,,,,0,,61,37
7216,note_on,,16,0,2,,,,,,,,,,0,,64,0
7218,note_on,,2,0,1,,,,,,,,,,0,,85,60
7218,set_tempo,1000000,3,1,0,,,,,,,,,,,,,
7219,note_on,,1,0,1,,,,,,,,,,0,,86,0
7221,note_on,,2,0,1,,,,,,,,,,0,,86,56
7222,note_on,,1,0,1,,,,,,,,,,0,,85,0
7224,note_on,,2,0,1,,,,,,,,,,0,,85,60
7225,note_on,,1,0,1,,,,,,,,,,0,,86,0
7227,note_on,,2,0,1,,,,,,,,,,0,,86,56
7228,note_on,,1,0,1,,,,,,,,,,0,,85,0
7230,note_on,,2,0,1,,,,,,,,,,0,,85,60
7231,note_on,,1,0,1,,,,,,,,,,0,,86,0
7232,note_on,,0,0,2,,,,,,,,,,0,,58,38
7232,note_on,,16,0,2,,,,,,,,,,0,,61,0
7233,note_on,,2,0,1,,,,,,,,,,0,,86,56
7234,note_on,,1,0,1,,,,,,,,,,0,,85,0
7236,note_on,,2,0,1,,,,,,,,,,0,,85,60
7237,note_on,,1,0,1,,,,,,,,,,0,,86,0
7239,note_on,,2,0,1,,,,,,,,,,0,,86,56
7240,note_on,,1,0,1,,,,,,,,,,0,,85,0
7242,note_on,,2,0,1,,,,,,,,,,0,,85,60
7243,note_on,,1,0,1,,,,,,,,,,0,,86,0
7245,note_on,,2,0,1,,,,,,,,,,0,,86,56
7246,note_on,,1,0,1,,,,,,,,,,0,,85,0
7248,note_on,,0,0,2,,,,,,,,,,0,,54,40
7248,note_on,,16,0,2,,,,,,,,,,0,,58,0
7248,note_on,,2,0,1,,,,,,,,,,0,,85,60
7249,note_on,,1,0,1,,,,,,,,,,0,,86,0
7251,note_on,,2,0,1,,,,,,,,,,0,,86,56
7252,note_on,,1,0,1,,,,,,,,,,0,,85,0
7254,note_on,,2,0,1,,,,,,,,,,0,,85,60
7255,note_on,,1,0,1,,,,,,,,,,0,,86,0
7256,note_on,,8,0,2,,,,,,,,,,0,,54,0
7257,note_on,,2,0,1,,,,,,,,,,0,,86,56
7257,set_tempo,1034482,39,1,0,,,,,,,,,,,,,
7258,note_on,,1,0,1,,,,,,,,,,0,,85,0
7260,note_on,,2,0,1,,,,,,,,,,0,,85,60
7260,set_tempo,1071428,3,1,0,,,,,,,,,,,,,
7261,note_on,,1,0,1,,,,,,,,,,0,,86,0
7263,note_on,,2,0,1,,,,,,,,,,0,,86,56
7263,set_tempo,1153846,3,1,0,,,,,,,,,,,,,
7264,note_on,,1,0,1,,,,,,,,,,0,,85,0
7264,note_on,,8,0,2,,,,,,,,,,0,,42,42
7266,note_on,,2,0,1,,,,,,,,,,0,,85,60
7266,set_tempo,1250000,3,1,0,,,,,,,,,,,,,
7267,note_on,,1,0,1,,,,,,,,,,0,,86,0
7269,set_tempo,1333333,3,1,0,,,,,,,,,,,,,
7269,note_on,,2,0,1,,,,,,,,,,0,,84,68
7270,note_on,,1,0,1,,,,,,,,,,0,,85,0
7272,note_on,,0,0,1,,,,,,,,,,0,,85,66
7272,note_on,,2,0,1,,,,,,,,,,0,,84,0
7272,set_tempo,1818181,3,1,0,,,,,,,,,,,,,
7274,set_tempo,1621621,2,1,0,,,,,,,,,,,,,
7274,note_on,,2,0,1,,,,,,,,,,0,,85,0
7274,note_on,,0,0,1,,,,,,,,,,0,,86,58
7276,set_tempo,1538461,2,1,0,,,,,,,,,,,,,
7276,note_on,,2,0,1,,,,,,,,,,0,,86,0
7276,note_on,,0,0,1,,,,,,,,,,0,,87,62
7278,note_on,,2,0,1,,,,,,,,,,0,,87,0
7278,set_tempo,1463414,2,1,0,,,,,,,,,,,,,
7278,note_on,,0,0,1,,,,,,,,,,0,,88,66
7280,note_on,,0,0,1,,,,,,,,,,0,,89,68
7280,note_on,,16,0,2,,,,,,,,,,0,,42,0
7280,note_on,,0,0,2,,,,,,,,,,0,,30,34
7280,note_on,,2,0,1,,,,,,,,,,0,,88,0
7282,note_on,,2,0,1,,,,,,,,,,0,,89,0
7282,note_on,,0,0,1,,,,,,,,,,0,,90,69
7284,set_tempo,1071428,6,1,0,,,,,,,,,,,,,
7284,note_on,,2,0,1,,,,,,,,,,0,,90,0
7284,note_on,,0,0,1,,,,,,,,,,0,,91,69
7287,note_on,,3,0,1,,,,,,,,,,0,,91,0
7287,note_on,,0,0,1,,,,,,,,,,0,,92,68
7287,set_tempo,1200000,3,1,0,,,,,,,,,,,,,
7288,note_on,,8,0,2,,,,,,,,,,0,,30,0
7290,set_tempo,1463414,3,1,0,,,,,,,,,,,,,
7290,note_on,,0,0,1,,,,,,,,,,0,,93,66
7290,note_on,,3,0,1,,,,,,,,,,0,,92,0
7293,note_on,,3,0,1,,,,,,,,,,0,,93,0
7293,note_on,,0,0,1,,,,,,,,,,0,,94,64
7293,set_tempo,2307692,3,1,0,,,,,,,,,,,,,
7294,note_on,,1,0,1,,,,,,,,,,0,,82,0
7296,note_on,,0,0,1,,,,,,,,,,0,,95,70
7296,note_on,,8,0,2,,,,,,,,,,0,,35,64
7296,control_change,,88,0,3,,,,,,,,64,127,0,,,
7296,note_on,,0,0,1,,,,,,,,,,0,,83,64
7296,note_on,,2,0,1,,,,,,,,,,0,,94,0
7296,set_tempo,1621621,3,1,0,,,,,,,,,,,,,
7298,control_change,,2,0,3,,,,,,,,64,0,0,,,
7302,control_change,,4,0,3,,,,,,,,64,127,0,,,
7306,note_on,,10,0,2,,,,,,,,,,0,,35,0
7312,note_on,,6,0,2,,,,,,,,,,0,,47,42
7312,set_tempo,952380,16,1,0,,,,,,,,,,,,,
7328,set_tempo,1000000,16,1,0,,,,,,,,,,,,,
7328,note_on,,16,0,2,,,,,,,,,,0,,47,0
7328,note_on,,0,0,2,,,,,,,,,,0,,54,40
7336,note_on,,40,0,1,,,,,,,,,,0,,95,0
7336,note_on,,0,0,1,,,,,,,,,,0,,83,0
7344,note_on,,0,0,2,,,,,,,,,,0,,57,42
7344,note_on,,16,0,2,,,,,,,,,,0,,54,0
7344,set_tempo,1463414,16,1,0,,,,,,,,,,,,,
7348,note_on,,12,0,1,,,,,,,,,,0,,63,64
7348,set_tempo,2000000,4,1,0,,,,,,,,,,,,,
7360,note_on,,0,0,2,,,,,,,,,,0,,60,48
7360,set_tempo,1000000,12,1,0,,,,,,,,,,,,,
7360,note_on,,16,0,2,,,,,,,,,,0,,57,0
7376,note_on,,16,0,2,,,,,,,,,,0,,60,0
7376,note_on,,0,0,2,,,,,,,,,,0,,59,38
7376,set_tempo,983606,16,1,0,,,,,,,,,,,,,
7392,note_on,,16,0,2,,,,,,,,,,0,,59,0
7392,note_on,,0,0,2,,,,,,,,,,0,,55,44
7392,note_on,,44,0,1,,,,,,,,,,0,,63,0
7392,note_on,,0,0,1,,,,,,,,,,0,,64,77
7392,set_tempo,1153846,16,1,0,,,,,,,,,,,,,
7392,control_change,,90,0,3,,,,,,,,64,0,0,,,
7408,set_tempo,952380,16,1,0,,,,,,,,,,,,,
7408,note_on,,16,0,2,,,,,,,,,,0,,55,0
7408,note_on,,0,0,2,,,,,,,,,,0,,60,50
7424,note_on,,0,0,2,,,,,,,,,,0,,59,46
7424,set_tempo,983606,16,1,0,,,,,,,,,,,,,
7424,note_on,,16,0,2,,,,,,,,,,0,,60,0
7440,note_on,,48,0,1,,,,,,,,,,0,,64,0
7440,set_tempo,895522,16,1,0,,,,,,,,,,,,,
7440,note_on,,0,0,2,,,,,,,,,,0,,54,42
7440,note_on,,16,0,2,,,,,,,,,,0,,59,0
7444,note_on,,4,0,1,,,,,,,,,,0,,66,80
7444,set_tempo,1621621,4,1,0,,,,,,,,,,,,,
7456,note_on,,16,0,2,,,,,,,,,,0,,54,0
7456,note_on,,0,0,2,,,,,,,,,,0,,60,54
7456,set_tempo,1395348,12,1,0,,,,,,,,,,,,,
7472,note_on,,16,0,2,,,,,,,,,,0,,60,0
7472,note_on,,0,0,2,,,,,,,,,,0,,59,56
7472,set_tempo,1714285,16,1,0,,,,,,,,,,,,,
7480,note_on,,8,0,2,,,,,,,,,,0,,59,0
7488,note_on,,44,0,1,,,,,,,,,,0,,66,0
7488,note_on,,0,0,1,,,,,,,,,,0,,79,80
7488,note_on,,0,0,1,,,,,,,,,,0,,67,70
7488,control_change,,96,0,3,,,,,,,,64,127,0,,,
7488,set_tempo,1463414,16,1,0,,,,,,,,,,,,,
7488,note_on,,8,0,2,,,,,,,,,,0,,40,50
7504,note_on,,0,0,2,,,,,,,,,,0,,47,44
7504,set_tempo,952380,16,1,0,,,,,,,,,,,,,
7504,note_on,,16,0,2,,,,,,,,,,0,,40,0
7520,note_on,,0,0,2,,,,,,,,,,0,,55,48
7520,note_on,,16,0,2,,,,,,,,,,0,,47,0
7520,set_tempo,983606,16,1,0,,,,,,,,,,,,,
7536,set_tempo,952380,16,1,0,,,,,,,,,,,,,
7536,note_on,,16,0,2,,,,,,,,,,0,,55,0
7536,note_on,,0,0,2,,,,,,,,,,0,,52,46
7552,set_tempo,983606,16,1,0,,,,,,,,,,,,,
7552,note_on,,0,0,2,,,,,,,,,,0,,60,46
7552,note_on,,16,0,2,,,,,,,,,,0,,52,0
7568,note_on,,0,0,2,,,,,,,,,,0,,59,42
7568,note_on,,16,0,2,,,,,,,,,,0,,60,0
7576,note_on,,8,0,2,,,,,,,,,,0,,59,0
7584,note_on,,8,0,2,,,,,,,,,,0,,40,46
7586,control_change,,98,0,3,,,,,,,,64,0,0,,,
7592,control_change,,6,0,3,,,,,,,,64,127,0,,,
7600,set_tempo,952380,48,1,0,,,,,,,,,,,,,
7600,note_on,,0,0,2,,,,,,,,,,0,,47,44
7600,note_on,,16,0,2,,,,,,,,,,0,,40,0
7616,note_on,,16,0,2,,,,,,,,,,0,,47,0
7616,note_on,,0,0,2,,,,,,,,,,0,,55,44
7624,note_on,,136,0,1,,,,,,,,,,0,,79,0
7624,note_on,,0,0,1,,,,,,,,,,0,,67,0
7632,note_on,,16,0,2,,,,,,,,,,0,,55,0
7632,note_on,,0,0,2,,,,,,,,,,0,,52,42
7632,set_tempo,1000000,32,1,0,,,,,,,,,,,,,
7632,note_on,,0,0,1,,,,,,,,,,0,,78,82
7632,note_on,,8,0,1,,,,,,,,,,0,,66,72
7648,note_on,,16,0,2,,,,,,,,,,0,,52,0
7648,note_on,,0,0,2,,,,,,,,,,0,,60,48
7648,note_on,,0,0,1,,,,,,,,,,0,,66,0
7648,set_tempo,983606,16,1,0,,,,,,,,,,,,,
7648,note_on,,16,0,1,,,,,,,,,,0,,78,0
7656,set_tempo,1333333,8,1,0,,,,,,,,,,,,,
7656,note_on,,8,0,1,,,,,,,,,,0,,64,62
7656,note_on,,0,0,1,,,,,,,,,,0,,76,72
7664,note_on,,0,0,2,,,,,,,,,,0,,59,44
7664,note_on,,16,0,2,,,,,,,,,,0,,60,0
7672,note_on,,0,0,1,,,,,,,,,,0,,64,0
7672,note_on,,8,0,2,,,,,,,,,,0,,59,0
7672,note_on,,16,0,1,,,,,,,,,,0,,76,0
7680,set_tempo,1621621,24,1,0,,,,,,,,,,,,,
7680,control_change,,88,0,3,,,,,,,,64,127,0,,,
7680,note_on,,0,0,1,,,,,,,,,,0,,75,76
7680,note_on,,8,0,2,,,,,,,,,,0,,42,48
7680,note_on,,8,0,1,,,,,,,,,,0,,63,66
7682,control_change,,2,0,3,,,,,,,,64,0,0,,,
7688,control_change,,6,0,3,,,,,,,,64,127,0,,,
7696,set_tempo,895522,16,1,0,,,,,,,,,,,,,
7696,note_on,,16,0,2,,,,,,,,,,0,,42,0
7696,note_on,,0,0,2,,,,,,,,,,0,,47,46
7712,note_on,,16,0,2,,,,,,,,,,0,,47,0
7712,note_on,,0,0,2,,,,,,,,,,0,,57,48
7728,note_on,,16,0,2,,,,,,,,,,0,,57,0
7728,note_on,,0,0,2,,,,,,,,,,0,,54,46
7744,note_on,,16,0,2,,,,,,,,,,0,,54,0
7744,note_on,,0,0,2,,,,,,,,,,0,,60,50
7760,set_tempo,1000000,64,1,0,,,,,,,,,,,,,
7760,note_on,,0,0,2,,,,,,,,,,0,,59,48
7760,note_on,,16,0,2,,,,,,,,,,0,,60,0
7768,note_on,,8,0,2,,,,,,,,,,0,,59,0
7776,note_on,,8,0,2,,,,,,,,,,0,,40,48
7776,set_tempo,1200000,16,1,0,,,,,,,,,,,,,
7778,control_change,,90,0,3,,,,,,,,64,0,0,,,
7784,note_on,,0,0,1,,,,,,,,,,0,,63,0
7784,note_on,,104,0,1,,,,,,,,,,0,,75,0
7784,control_change,,6,0,3,,,,,,,,64,127,0,,,
7792,note_on,,8,0,1,,,,,,,,,,0,,64,64
7792,note_on,,0,0,1,,,,,,,,,,0,,76,74
7792,note_on,,16,0,2,,,,,,,,,,0,,40,0
7792,note_on,,0,0,2,,,,,,,,,,0,,47,46
7792,set_tempo,1000000,16,1,0,,,,,,,,,,,,,
7800,note_on,,8,0,1,,,,,,,,,,0,,76,0
7800,note_on,,0,0,1,,,,,,,,,,0,,64,0
7808,note_on,,16,0,2,,,,,,,,,,0,,47,0
7808,note_on,,0,0,1,,,,,,,,,,0,,78,82
7808,set_tempo,895522,16,1,0,,,,,,,,,,,,,
7808,note_on,,0,0,2,,,,,,,,,,0,,55,48
7808,note_on,,8,0,1,,,,,,,,,,0,,66,72
7816,note_on,,0,0,1,,,,,,,,,,0,,66,0
7816,note_on,,8,0,1,,,,,,,,,,0,,78,0
7824,note_on,,0,0,2,,,,,,,,,,0,,52,46
7824,note_on,,0,0,1,,,,,,,,,,0,,79,81
7824,set_tempo,923076,16,1,0,,,,,,,,,,,,,
7824,note_on,,16,0,2,,,,,,,,,,0,,55,0
7824,note_on,,8,0,1,,,,,,,,,,0,,67,71
7832,note_on,,8,0,1,,,,,,,,,,0,,79,0
7832,note_on,,0,0,1,,,,,,,,,,0,,67,0
7840,note_on,,0,0,2,,,,,,,,,,0,,60,50
7840,note_on,,16,0,2,,,,,,,,,,0,,52,0
7840,note_on,,8,0,1,,,,,,,,,,0,,69,76
7840,note_on,,0,0,1,,,,,,,,,,0,,81,86
7840,set_tempo,845070,16,1,0,,,,,,,,,,,,,
7848,note_on,,8,0,1,,,,,,,,,,0,,81,0
7848,note_on,,0,0,1,,,,,,,,,,0,,69,0
7856,note_on,,0,0,2,,,,,,,,,,0,,59,48
7856,note_on,,16,0,2,,,,,,,,,,0,,60,0
7856,set_tempo,1250000,16,1,0,,,,,,,,,,,,,
7864,note_on,,0,0,1,,,,,,,,,,0,,83,88
7864,set_tempo,1071428,8,1,0,,,,,,,,,,,,,
7864,note_on,,8,0,2,,,,,,,,,,0,,59,0
7864,note_on,,16,0,1,,,,,,,,,,0,,71,78
7868,note_on,,4,0,1,,,,,,,,,,0,,83,0
7868,note_on,,0,0,1,,,,,,,,,,0,,71,0
7872,note_on,,8,0,2,,,,,,,,,,0,,35,54
7872,note_on,,4,0,1,,,,,,,,,,0,,71,78
7872,note_on,,0,0,1,,,,,,,,,,0,,83,88
7872,set_tempo,1714285,8,1,0,,,,,,,,,,,,,
7872,control_change,,88,0,3,,,,,,,,64,127,0,,,
7874,control_change,,2,0,3,,,,,,,,64,0,0,,,
7880,note_on,,0,0,1,,,,,,,,,,0,,71,0
7880,note_on,,8,0,1,,,,,,,,,,0,,83,0
7880,control_change,,6,0,3,,,,,,,,64,127,0,,,
7888,note_on,,16,0,2,,,,,,,,,,0,,35,0
7888,note_on,,0,0,1,,,,,,,,,,0,,83,82
7888,set_tempo,1000000,16,1,0,,,,,,,,,,,,,
7888,note_on,,8,0,1,,,,,,,,,,0,,71,72
7888,note_on,,0,0,2,,,,,,,,,,0,,47,48
7896,note_on,,0,0,1,,,,,,,,,,0,,71,0
7896,note_on,,8,0,1,,,,,,,,,,0,,83,0
7904,note_on,,8,0,1,,,,,,,,,,0,,71,68
7904,note_on,,0,0,2,,,,,,,,,,0,,59,52
7904,note_on,,16,0,2,,,,,,,,,,0,,47,0
7904,note_on,,0,0,1,,,,,,,,,,0,,83,78
7912,note_on,,8,0,1,,,,,,,,,,0,,83,0
7912,note_on,,0,0,1,,,,,,,,,,0,,71,0
7920,note_on,,8,0,1,,,,,,,,,,0,,71,70
7920,note_on,,0,0,2,,,,,,,,,,0,,54,50
7920,note_on,,0,0,1,,,,,,,,,,0,,83,80
7920,set_tempo,983606,32,1,0,,,,,,,,,,,,,
7920,note_on,,16,0,2,,,,,,,,,,0,,59,0
7928,note_on,,0,0,1,,,,,,,,,,0,,71,0
7928,note_on,,8,0,1,,,,,,,,,,0,,83,0
7936,note_on,,0,0,2,,,,,,,,,,0,,60,54
7936,note_on,,16,0,2,,,,,,,,,,0,,54,0
7936,set_tempo,869565,16,1,0,,,,,,,,,,,,,
7936,note_on,,8,0,1,,,,,,,,,,0,,71,78
7944,note_on,,8,0,1,,,,,,,,,,0,,71,0
7952,note_on,,0,0,2,,,,,,,,,,0,,59,52
7952,note_on,,16,0,2,,,,,,,,,,0,,60,0
7952,note_on,,0,0,1,,,,,,,,,,0,,71,76
7952,note_on,,8,0,1,,,,,,,,,,0,,69,70
7952,set_tempo,1200000,16,1,0,,,,,,,,,,,,,
7960,note_on,,8,0,2,,,,,,,,,,0,,59,0
7960,note_on,,8,0,1,,,,,,,,,,0,,71,0
7960,note_on,,0,0,1,,,,,,,,,,0,,69,0
7968,note_on,,8,0,1,,,,,,,,,,0,,69,70
7968,note_on,,8,0,2,,,,,,,,,,0,,40,44
7968,set_tempo,2142857,16,1,0,,,,,,,,,,,,,
7968,note_on,,0,0,1,,,,,,,,,,0,,71,76
7970,control_change,,90,0,3,,,,,,,,64,0,0,,,
7976,control_change,,6,0,3,,,,,,,,64,127,0,,,
7976,note_on,,8,0,1,,,,,,,,,,0,,71,0
7976,note_on,,0,0,1,,,,,,,,,,0,,69,0
7984,note_on,,0,0,2,,,,,,,,,,0,,47,40
7984,note_on,,16,0,2,,,,,,,,,,0,,40,0
7984,note_on,,8,0,1,,,,,,,,,,0,,68,68
7984,note_on,,0,0,1,,,,,,,,,,0,,71,58
7984,set_tempo,1304347,16,1,0,,,,,,,,,,,,,
7992,note_on,,0,0,1,,,,,,,,,,0,,68,0
7992,note_on,,8,0,1,,,,,,,,,,0,,71,0
8000,note_on,,8,0,1,,,,,,,,,,0,,67,66
8000,note_on,,0,0,1,,,,,,,,,,0,,71,56
8000,note_on,,0,0,2,,,,,,,,,,0,,55,42
8000,note_on,,16,0,2,,,,,,,,,,0,,47,0
8000,set_tempo,1395348,16,1,0,,,,,,,,,,,,,
8008,note_on,,0,0,1,,,,,,,,,,0,,67,0
8008,note_on,,8,0,1,,,,,,,,,,0,,71,0
8016,note_on,,0,0,2,,,,,,,,,,0,,52,40
8016,note_on,,16,0,2,,,,,,,,,,0,,55,0
8016,note_on,,8,0,1,,,,,,,,,,0,,67,56
8016,set_tempo,1200000,16,1,0,,,,,,,,,,,,,
8016,note_on,,0,0,1,,,,,,,,,,0,,71,66
8032,note_on,,0,0,1,,,,,,,,,,0,,69,60
8032,note_on,,16,0,1,,,,,,,,,,0,,66,50
8032,note_on,,16,0,2,,,,,,,,,,0,,52,0
8032,note_on,,0,0,2,,,,,,,,,,0,,60,40
8032,set_tempo,1000000,16,1,0,,,,,,,,,,,,,
8033,note_on,,0,0,1,,,,,,,,,,0,,67,0
8033,note_on,,1,0,1,,,,,,,,,,0,,71,0
8048,note_on,,15,0,1,,,,,,,,,,0,,64,52
8048,note_on,,0,0,1,,,,,,,,,,0,,67,62
8048,note_on,,0,0,2,,,,,,,,,,0,,59,38
8048,note_on,,16,0,2,,,,,,,,,,0,,60,0
8048,set_tempo,1304347,16,1,0,,,,,,,,,,,,,
8049,note_on,,0,0,1,,,,,,,,,,0,,66,0
8049,note_on,,1,0,1,,,,,,,,,,0,,69,0
8056,note_on,,8,0,2,,,,,,,,,,0,,59,0
8062,note_on,,0,0,1,,,,,,,,,,0,,64,0
8062,note_on,,13,0,1,,,,,,,,,,0,,67,0
8064,note_on,,2,0,1,,,,,,,,,,0,,63,58
8064,note_on,,0,0,1,,,,,,,,,,0,,66,64
8064,set_tempo,1463414,16,1,0,,,,,,,,,,,,,
8064,control_change,,88,0,3,,,,,,,,64,127,0,,,
8064,note_on,,8,0,2,,,,,,,,,,0,,35,54
8066,control_change,,2,0,3,,,,,,,,64,0,0,,,
8072,control_change,,6,0,3,,,,,,,,64,127,0,,,
8080,note_on,,16,0,2,,,,,,,,,,0,,35,0
8080,note_on,,0,0,2,,,,,,,,,,0,,47,50
8080,set_tempo,1000000,16,1,0,,,,,,,,,,,,,
8088,note_on,,8,0,2,,,,,,,,,,0,,47,0
8096,note_on,,8,0,2,,,,,,,,,,0,,59,56
8096,set_tempo,1153846,16,1,0,,,,,,,,,,,,,
8104,note_on,,0,0,1,,,,,,,,,,0,,63,0
8104,note_on,,40,0,1,,,,,,,,,,0,,66,0
8112,note_on,,0,0,1,,,,,,,,,,0,,67,54
8112,note_on,,16,0,2,,,,,,,,,,0,,59,0
8112,note_on,,8,0,1,,,,,,,,,,0,,64,44
8112,note_on,,0,0,2,,,,,,,,,,0,,58,54
8112,set_tempo,1818181,16,1,0,,,,,,,,,,,,,
8114,control_change,,42,0,3,,,,,,,,64,0,0,,,
8120,note_on,,8,0,2,,,,,,,,,,0,,58,0
8120,control_change,,6,0,3,,,,,,,,64,127,0,,,
8128,note_on,,16,0,1,,,,,,,,,,0,,64,0
8128,note_on,,0,0,1,,,,,,,,,,0,,76,58
8128,note_on,,8,0,2,,,,,,,,,,0,,47,32
8128,set_tempo,1304347,16,1,0,,,,,,,,,,,,,
8136,note_on,,8,0,1,,,,,,,,,,0,,76,0
8136,note_on,,0,0,1,,,,,,,,,,0,,67,0
8144,note_on,,0,0,1,,,,,,,,,,0,,76,52
8144,note_on,,8,0,1,,,,,,,,,,0,,67,40
8144,note_on,,0,0,2,,,,,,,,,,0,,35,34
8144,set_tempo,1250000,16,1,0,,,,,,,,,,,,,
8144,note_on,,16,0,2,,,,,,,,,,0,,47,0
8152,note_on,,0,0,1,,,,,,,,,,0,,67,0
8152,note_on,,8,0,1,,,,,,,,,,0,,76,0
8160,note_on,,0,0,1,,,,,,,,,,0,,75,50
8160,note_on,,8,0,1,,,,,,,,,,0,,66,40
8160,note_on,,16,0,2,,,,,,,,,,0,,35,0
8160,set_tempo,1333333,16,1,0,,,,,,,,,,,,,
8160,note_on,,0,0,2,,,,,,,,,,0,,47,38
8162,control_change,,42,0,3,,,,,,,,64,0,0,,,
8168,control_change,,6,0,3,,,,,,,,64,127,0,,,
8176,note_on,,0,0,2,,,,,,,,,,0,,35,48
8176,note_on,,16,0,2,,,,,,,,,,0,,47,0
8176,set_tempo,923076,16,1,0,,,,,,,,,,,,,
8192,note_on,,0,0,2,,,,,,,,,,0,,47,50
8192,note_on,,16,0,2,,,,,,,,,,0,,35,0
8192,set_tempo,952380,16,1,0,,,,,,,,,,,,,
8208,note_on,,16,0,2,,,,,,,,,,0,,47,0
8208,note_on,,0,0,2,,,,,,,,,,0,,51,52
8224,note_on,,0,0,2,,,,,,,,,,0,,54,51
8224,set_tempo,1034482,32,1,0,,,,,,,,,,,,,
8224,note_on,,16,0,2,,,,,,,,,,0,,51,0
8240,note_on,,0,0,2,,,,,,,,,,0,,59,48
8240,note_on,,16,0,2,,,,,,,,,,0,,54,0
8240,set_tempo,1304347,16,1,0,,,,,,,,,,,,,
8248,note_on,,88,0,1,,,,,,,,,,0,,75,0
8248,note_on,,0,0,1,,,,,,,,,,0,,66,0
8256,set_tempo,1395348,16,1,0,,,,,,,,,,,,,
8256,note_on,,8,0,1,,,,,,,,,,0,,66,54
8256,control_change,,88,0,3,,,,,,,,64,0,0,,,
8256,note_on,,0,0,1,,,,,,,,,,0,,69,56
8256,note_on,,0,0,1,,,,,,,,,,0,,75,64
8256,note_on,,16,0,2,,,,,,,,,,0,,59,0
8256,note_on,,0,0,2,,,,,,,,,,0,,60,48
8266,note_on,,10,0,2,,,,,,,,,,0,,60,0
8272,note_on,,6,0,2,,,,,,,,,,0,,48,47
8272,set_tempo,1000000,16,1,0,,,,,,,,,,,,,
8288,set_tempo,923076,16,1,0,,,,,,,,,,,,,
8288,note_on,,16,0,2,,,,,,,,,,0,,48,0
8288,note_on,,0,0,2,,,,,,,,,,0,,47,45
8304,note_on,,0,0,2,,,,,,,,,,0,,48,47
8304,note_on,,16,0,2,,,,,,,,,,0,,47,0
8320,set_tempo,952380,32,1,0,,,,,,,,,,,,,
8320,note_on,,0,0,2,,,,,,,,,,0,,50,50
8320,note_on,,16,0,2,,,,,,,,,,0,,48,0
8336,note_on,,16,0,2,,,,,,,,,,0,,50,0
8336,note_on,,0,0,2,,,,,,,,,,0,,48,46
8336,set_tempo,1071428,16,1,0,,,,,,,,,,,,,
8352,note_on,,16,0,2,,,,,,,,,,0,,48,0
8352,note_on,,0,0,2,,,,,,,,,,0,,47,48
8352,set_tempo,1333333,16,1,0,,,,,,,,,,,,,
8368,set_tempo,983606,16,1,0,,,,,,,,,,,,,
8368,note_on,,0,0,2,,,,,,,,,,0,,35,52
8368,note_on,,16,0,2,,,,,,,,,,0,,47,0
8384,note_on,,0,0,2,,,,,,,,,,0,,47,54
8384,note_on,,16,0,2,,,,,,,,,,0,,35,0
8396,note_on,,12,0,2,,,,,,,,,,0,,47,0
8398,note_on,,142,0,1,,,,,,,,,,0,,75,0
8400,set_tempo,1071428,32,1,0,,,,,,,,,,,,,
8400,note_on,,4,0,2,,,,,,,,,,0,,54,50
8400,note_on,,2,0,1,,,,,,,,,,0,,75,68
8416,set_tempo,952380,16,1,0,,,,,,,,,,,,,
8416,note_on,,16,0,2,,,,,,,,,,0,,54,0
8416,note_on,,0,0,2,,,,,,,,,,0,,60,55
8432,set_tempo,1071428,16,1,0,,,,,,,,,,,,,
8432,note_on,,0,0,2,,,,,,,,,,0,,59,53
8432,note_on,,16,0,2,,,,,,,,,,0,,60,0
8440,note_on,,40,0,1,,,,,,,,,,0,,69,0
8440,note_on,,0,0,1,,,,,,,,,,0,,66,0
8440,note_on,,8,0,2,,,,,,,,,,0,,59,0
8444,note_on,,4,0,1,,,,,,,,,,0,,75,0
8448,note_on,,0,0,1,,,,,,,,,,0,,76,64
8448,note_on,,0,0,1,,,,,,,,,,0,,67,58
8448,note_on,,4,0,1,,,,,,,,,,0,,64,56
8448,set_tempo,1250000,16,1,0,,,,,,,,,,,,,
8448,control_change,,192,0,3,,,,,,,,64,0,0,,,
8448,note_on,,8,0,2,,,,,,,,,,0,,47,48
8464,note_on,,16,0,2,,,,,,,,,,0,,47,0
8464,note_on,,0,0,2,,,,,,,,,,0,,35,46
8464,set_tempo,895522,16,1,0,,,,,,,,,,,,,
8480,note_on,,0,0,2,,,,,,,,,,0,,47,48
8480,note_on,,16,0,2,,,,,,,,,,0,,35,0
8480,set_tempo,869565,16,1,0,,,,,,,,,,,,,
8496,note_on,,0,0,2,,,,,,,,,,0,,52,50
8496,note_on,,16,0,2,,,,,,,,,,0,,47,0
8512,note_on,,0,0,2,,,,,,,,,,0,,60,48
8512,set_tempo,895522,32,1,0,,,,,,,,,,,,,
8512,note_on,,16,0,2,,,,,,,,,,0,,52,0
8528,set_tempo,952380,16,1,0,,,,,,,,,,,,,
8528,note_on,,0,0,2,,,,,,,,,,0,,59,46
8528,note_on,,16,0,2,,,,,,,,,,0,,60,0
8536,note_on,,0,0,1,,,,,,,,,,0,,67,0
8536,note_on,,88,0,1,,,,,,,,,,0,,76,0
8536,note_on,,0,0,1,,,,,,,,,,0,,64,0
8544,note_on,,16,0,2,,,,,,,,,,0,,59,0
8544,set_tempo,1333333,16,1,0,,,,,,,,,,,,,
8544,note_on,,0,0,2,,,,,,,,,,0,,58,50
8546,set_tempo,1153846,2,1,0,,,,,,,,,,,,,
8546,control_change,,98,0,3,,,,,,,,64,127,0,,,
8546,note_on,,10,0,1,,,,,,,,,,0,,64,50
8546,note_on,,0,0,1,,,,,,,,,,0,,76,72
8546,note_on,,0,0,1,,,,,,,,,,0,,67,52
8560,note_on,,16,0,2,,,,,,,,,,0,,58,0
8560,set_tempo,952380,14,1,0,,,,,,,,,,,,,
8560,note_on,,0,0,2,,,,,,,,,,0,,55,42
8576,note_on,,0,0,2,,,,,,,,,,0,,52,38
8576,set_tempo,1000000,16,1,0,,,,,,,,,,,,,
8576,note_on,,16,0,2,,,,,,,,,,0,,55,0
8586,note_on,,40,0,1,,,,,,,,,,0,,76,0
8592,set_tempo,800000,16,1,0,,,,,,,,,,,,,
8592,note_on,,0,0,2,,,,,,,,,,0,,46,34
8592,note_on,,16,0,2,,,,,,,,,,0,,52,0
8594,set_tempo,1250000,2,1,0,,,,,,,,,,,,,
8594,note_on,,8,0,1,,,,,,,,,,0,,76,76
8608,set_tempo,1304347,14,1,0,,,,,,,,,,,,,
8608,note_on,,0,0,2,,,,,,,,,,0,,43,30
8608,note_on,,16,0,2,,,,,,,,,,0,,46,0
8624,set_tempo,2000000,16,1,0,,,,,,,,,,,,,
8624,note_on,,0,0,2,,,,,,,,,,0,,34,32
8624,note_on,,16,0,2,,,,,,,,,,0,,43,0
8634,note_on,,0,0,1,,,,,,,,,,0,,67,0
8634,note_on,,0,0,1,,,,,,,,,,0,,64,0
8634,note_on,,40,0,1,,,,,,,,,,0,,76,0
8640,note_on,,16,0,2,,,,,,,,,,0,,34,0
8640,note_on,,0,0,2,,,,,,,,,,0,,35,36
8640,note_on,,0,0,1,,,,,,,,,,0,,71,56
8640,note_on,,6,0,1,,,,,,,,,,0,,67,52
8640,set_tempo,1463414,16,1,0,,,,,,,,,,,,,
8640,control_change,,94,0,3,,,,,,,,64,127,0,,,
8640,note_on,,0,0,1,,,,,,,,,,0,,79,80
8642,control_change,,2,0,3,,,,,,,,64,0,0,,,
8648,control_change,,6,0,3,,,,,,,,64,127,0,,,
8656,note_on,,16,0,2,,,,,,,,,,0,,35,0
8656,note_on,,0,0,2,,,,,,,,,,0,,47,32
8656,set_tempo,1034482,16,1,0,,,,,,,,,,,,,
8672,note_on,,16,0,2,,,,,,,,,,0,,47,0
8672,note_on,,0,0,2,,,,,,,,,,0,,52,34
8672,set_tempo,1000000,16,1,0,,,,,,,,,,,,,
8688,note_on,,0,0,2,,,,,,,,,,0,,55,35
8688,note_on,,16,0,2,,,,,,,,,,0,,52,0
8704,set_tempo,2307692,32,1,0,,,,,,,,,,,,,
8704,note_on,,16,0,2,,,,,,,,,,0,,55,0
8704,note_on,,0,0,2,,,,,,,,,,0,,60,33
8712,set_tempo,2142857,8,1,0,,,,,,,,,,,,,
8712,note_on,,0,0,1,,,,,,,,,,0,,78,58
8712,note_on,,72,0,1,,,,,,,,,,0,,79,0
8720,set_tempo,2727272,8,1,0,,,,,,,,,,,,,
8720,note_on,,16,0,2,,,,,,,,,,0,,60,0
8720,note_on,,0,0,2,,,,,,,,,,0,,59,25
8724,set_tempo,1621621,4,1,0,,,,,,,,,,,,,
8724,note_on,,12,0,1,,,,,,,,,,0,,78,0
8724,note_on,,0,0,1,,,,,,,,,,0,,76,52
8728,note_on,,4,0,1,,,,,,,,,,0,,71,0
8728,note_on,,0,0,1,,,,,,,,,,0,,67,0
8728,note_on,,8,0,2,,,,,,,,,,0,,59,0
8732,note_on,,4,0,1,,,,,,,,,,0,,76,0
8736,set_tempo,1333333,12,1,0,,,,,,,,,,,,,
8736,note_on,,8,0,2,,,,,,,,,,0,,47,32
8738,note_on,,0,0,1,,,,,,,,,,0,,69,36
8738,note_on,,0,0,1,,,,,,,,,,0,,71,38
8738,set_tempo,2000000,2,1,0,,,,,,,,,,,,,
8738,note_on,,6,0,1,,,,,,,,,,0,,66,34
8738,control_change,,90,0,3,,,,,,,,64,0,0,,,
8738,note_on,,0,0,1,,,,,,,,,,0,,76,54
8744,control_change,,6,0,3,,,,,,,,64,127,0,,,
8752,set_tempo,1034482,14,1,0,,,,,,,,,,,,,
8752,note_on,,16,0,2,,,,,,,,,,0,,47,0
8752,note_on,,0,0,2,,,,,,,,,,0,,46,26
8768,note_on,,16,0,2,,,,,,,,,,0,,46,0
8768,set_tempo,1153846,16,1,0,,,,,,,,,,,,,
8768,note_on,,0,0,2,,,,,,,,,,0,,47,27
8782,note_on,,44,0,1,,,,,,,,,,0,,76,0
8784,note_on,,16,0,2,,,,,,,,,,0,,47,0
8784,set_tempo,1304347,16,1,0,,,,,,,,,,,,,
8784,note_on,,2,0,1,,,,,,,,,,0,,75,48
8784,note_on,,0,0,2,,,,,,,,,,0,,35,27
8800,note_on,,16,0,2,,,,,,,,,,0,,35,0
8800,note_on,,0,0,2,,,,,,,,,,0,,34,25
8800,set_tempo,1333333,16,1,0,,,,,,,,,,,,,
8816,note_on,,0,0,2,,,,,,,,,,0,,35,26
8816,set_tempo,1818181,16,1,0,,,,,,,,,,,,,
8816,note_on,,16,0,2,,,,,,,,,,0,,34,0
8826,note_on,,0,0,1,,,,,,,,,,0,,66,0
8826,note_on,,42,0,1,,,,,,,,,,0,,69,0
8830,note_on,,4,0,1,,,,,,,,,,0,,75,0
8832,note_on,,0,0,2,,,,,,,,,,0,,40,37
8832,note_on,,16,0,2,,,,,,,,,,0,,35,0
8832,set_tempo,2142857,16,1,0,,,,,,,,,,,,,
8832,control_change,,88,0,3,,,,,,,,64,127,0,,,
8833,note_on,,0,0,1,,,,,,,,,,0,,76,44
8833,note_on,,3,0,1,,,,,,,,,,0,,68,30
8834,control_change,,2,0,3,,,,,,,,64,0,0,,,
8840,control_change,,6,0,3,,,,,,,,64,127,0,,,
8848,note_on,,0,0,2,,,,,,,,,,0,,47,33
8848,set_tempo,1071428,16,1,0,,,,,,,,,,,,,
8848,note_on,,16,0,2,,,,,,,,,,0,,40,0
8860,note_on,,12,0,2,,,,,,,,,,0,,47,0
8864,set_tempo,1034482,16,1,0,,,,,,,,,,,,,
8864,note_on,,4,0,2,,,,,,,,,,0,,59,28
8880,set_tempo,1000000,16,1,0,,,,,,,,,,,,,
8880,note_on,,0,0,2,,,,,,,,,,0,,56,32
8880,note_on,,16,0,2,,,,,,,,,,0,,59,0
8896,note_on,,0,0,2,,,,,,,,,,0,,54,31
8896,set_tempo,983606,16,1,0,,,,,,,,,,,,,
8896,note_on,,16,0,2,,,,,,,,,,0,,56,0
8912,note_on,,16,0,2,,,,,,,,,,0,,54,0
8912,set_tempo,952380,16,1,0,,,,,,,,,,,,,
8912,note_on,,0,0,2,,,,,,,,,,0,,52,30
8928,note_on,,0,0,2,,,,,,,,,,0,,40,35
8928,set_tempo,1000000,16,1,0,,,,,,,,,,,,,
8928,note_on,,16,0,2,,,,,,,,,,0,,52,0
8944,note_on,,0,0,2,,,,,,,,,,0,,47,30
8944,note_on,,16,0,2,,,,,,,,,,0,,40,0
8956,note_on,,12,0,2,,,,,,,,,,0,,47,0
8960,note_on,,4,0,2,,,,,,,,,,0,,59,32
8960,set_tempo,1071428,32,1,0,,,,,,,,,,,,,
8974,note_on,,0,0,1,,,,,,,,,,0,,68,0
8974,note_on,,0,0,1,,,,,,,,,,0,,71,0
8974,note_on,,141,0,1,,,,,,,,,,0,,76,0
8976,note_on,,0,0,2,,,,,,,,,,0,,56,31
8976,note_on,,16,0,2,,,,,,,,,,0,,59,0
8992,note_on,,16,0,2,,,,,,,,,,0,,56,0
8992,note_on,,0,0,2,,,,,,,,,,0,,54,30
9008,note_on,,0,0,2,,,,,,,,,,0,,52,27
9008,set_tempo,1333333,48,1,0,,,,,,,,,,,,,
9008,note_on,,16,0,2,,,,,,,,,,0,,54,0
9024,note_on,,0,0,2,,,,,,,,,,0,,40,35
9024,note_on,,16,0,2,,,,,,,,,,0,,52,0
9024,set_tempo,2000000,16,1,0,,,,,,,,,,,,,
9024,control_change,,184,0,3,,,,,,,,64,127,0,,,
9026,control_change,,2,0,3,,,,,,,,64,0,0,,,
9028,set_tempo,1463414,4,1,0,,,,,,,,,,,,,
9028,note_on,,0,0,1,,,,,,,,,,0,,80,70
9028,note_on,,54,0,1,,,,,,,,,,0,,76,50
9032,control_change,,6,0,3,,,,,,,,64,127,0,,,
9040,set_tempo,952380,12,1,0,,,,,,,,,,,,,
9040,note_on,,0,0,2,,,,,,,,,,0,,47,30
9040,note_on,,16,0,2,,,,,,,,,,0,,40,0
9052,note_on,,12,0,2,,,,,,,,,,0,,47,0
9056,note_on,,4,0,2,,,,,,,,,,0,,59,31
9056,set_tempo,1034482,16,1,0,,,,,,,,,,,,,
9072,note_on,,0,0,2,,,,,,,,,,0,,56,30
9072,note_on,,16,0,2,,,,,,,,,,0,,59,0
9072,set_tempo,1071428,16,1,0,,,,,,,,,,,,,
9088,note_on,,0,0,2,,,,,,,,,,0,,54,29
9088,note_on,,16,0,2,,,,,,,,,,0,,56,0
9088,set_tempo,1000000,16,1,0,,,,,,,,,,,,,
9104,note_on,,0,0,2,,,,,,,,,,0,,52,28
9104,note_on,,16,0,2,,,,,,,,,,0,,54,0
9118,note_on,,90,0,1,,,,,,,,,,0,,80,0
9118,note_on,,0,0,1,,,,,,,,,,0,,76,0
9120,note_on,,2,0,1,,,,,,,,,,0,,74,42
9120,note_on,,0,0,1,,,,,,,,,,0,,78,52
9120,note_on,,0,0,2,,,,,,,,,,0,,40,35
9120,note_on,,16,0,2,,,,,,,,,,0,,52,0
9120,set_tempo,1071428,32,1,0,,,,,,,,,,,,,
9136,note_on,,16,0,2,,,,,,,,,,0,,40,0
9136,note_on,,0,0,2,,,,,,,,,,0,,47,30
9136,set_tempo,983606,16,1,0,,,,,,,,,,,,,
9148,note_on,,12,0,2,,,,,,,,,,0,,47,0
9152,note_on,,4,0,2,,,,,,,,,,0,,59,31
9152,set_tempo,952380,16,1,0,,,,,,,,,,,,,
9168,note_on,,0,0,2,,,,,,,,,,0,,56,30
9168,note_on,,16,0,2,,,,,,,,,,0,,59,0
9168,set_tempo,1333333,16,1,0,,,,,,,,,,,,,
9184,note_on,,16,0,2,,,,,,,,,,0,,56,0
9184,note_on,,0,0,2,,,,,,,,,,0,,54,28
9184,set_tempo,1714285,16,1,0,,,,,,,,,,,,,
9200,note_on,,16,0,2,,,,,,,,,,0,,54,0
9200,set_tempo,2000000,16,1,0,,,,,,,,,,,,,
9200,note_on,,0,0,2,,,,,,,,,,0,,52,24
9204,note_on,,84,0,1,,,,,,,,,,0,,78,0
9204,note_on,,0,0,1,,,,,,,,,,0,,74,0
9204,set_tempo,1621621,4,1,0,,,,,,,,,,,,,
9204,note_on,,0,0,1,,,,,,,,,,0,,76,46
9204,note_on,,0,0,1,,,,,,,,,,0,,73,32
9212,note_on,,8,0,1,,,,,,,,,,0,,76,0
9212,note_on,,0,0,1,,,,,,,,,,0,,73,0
9216,note_on,,0,0,1,,,,,,,,,,0,,76,44
9216,note_on,,0,0,2,,,,,,,,,,0,,40,36
9216,note_on,,16,0,2,,,,,,,,,,0,,52,0
9216,note_on,,4,0,1,,,,,,,,,,0,,73,30
9216,control_change,,184,0,3,,,,,,,,64,127,0,,,
9216,set_tempo,1395348,12,1,0,,,,,,,,,,,,,
9218,control_change,,2,0,3,,,,,,,,64,0,0,,,
9224,control_change,,6,0,3,,,,,,,,64,127,0,,,
9232,note_on,,0,0,2,,,,,,,,,,0,,52,34
9232,note_on,,16,0,2,,,,,,,,,,0,,40,0
9232,set_tempo,923076,16,1,0,,,,,,,,,,,,,
9244,note_on,,12,0,2,,,,,,,,,,0,,52,0
9248,note_on,,4,0,2,,,,,,,,,,0,,61,37
9248,set_tempo,895522,16,1,0,,,,,,,,,,,,,
9264,set_tempo,923076,16,1,0,,,,,,,,,,,,,
9264,note_on,,16,0,2,,,,,,,,,,0,,61,0
9264,note_on,,0,0,2,,,,,,,,,,0,,57,35
9280,note_on,,16,0,2,,,,,,,,,,0,,57,0
9280,note_on,,0,0,2,,,,,,,,,,0,,54,34
9280,set_tempo,952380,16,1,0,,,,,,,,,,,,,
9296,set_tempo,1000000,16,1,0,,,,,,,,,,,,,
9296,note_on,,16,0,2,,,,,,,,,,0,,54,0
9296,note_on,,0,0,2,,,,,,,,,,0,,52,33
9312,set_tempo,983606,16,1,0,,,,,,,,,,,,,
9312,note_on,,16,0,2,,,,,,,,,,0,,52,0
9312,note_on,,0,0,2,,,,,,,,,,0,,40,45
9328,set_tempo,923076,16,1,0,,,,,,,,,,,,,
9328,note_on,,0,0,2,,,,,,,,,,0,,52,34
9328,note_on,,16,0,2,,,,,,,,,,0,,40,0
9340,note_on,,12,0,2,,,,,,,,,,0,,52,0
9344,set_tempo,952380,16,1,0,,,,,,,,,,,,,
9344,note_on,,4,0,2,,,,,,,,,,0,,61,35
9358,note_on,,0,0,1,,,,,,,,,,0,,73,0
9358,note_on,,142,0,1,,,,,,,,,,0,,76,0
9360,set_tempo,1000000,16,1,0,,,,,,,,,,,,,
9360,note_on,,0,0,1,,,,,,,,,,0,,77,56
9360,note_on,,16,0,2,,,,,,,,,,0,,61,0
9360,note_on,,0,0,2,,,,,,,,,,0,,57,32
9360,note_on,,2,0,1,,,,,,,,,,0,,74,46
9376,note_on,,16,0,2,,,,,,,,,,0,,57,0
9376,note_on,,0,0,2,,,,,,,,,,0,,54,31
9376,set_tempo,1034482,16,1,0,,,,,,,,,,,,,
9392,note_on,,16,0,2,,,,,,,,,,0,,54,0
9392,note_on,,0,0,2,,,,,,,,,,0,,52,30
9392,set_tempo,1153846,16,1,0,,,,,,,,,,,,,
9406,note_on,,46,0,1,,,,,,,,,,0,,77,0
9406,note_on,,0,0,1,,,,,,,,,,0,,74,0
9408,note_on,,2,0,1,,,,,,,,,,0,,75,54
9408,note_on,,0,0,1,,,,,,,,,,0,,78,66
9408,control_change,,184,0,3,,,,,,,,64,127,0,,,
9408,note_on,,0,0,2,,,,,,,,,,0,,40,38
9408,note_on,,16,0,2,,,,,,,,,,0,,52,0
9408,set_tempo,1463414,16,1,0,,,,,,,,,,,,,
9410,control_change,,2,0,3,,,,,,,,64,0,0,,,
9416,control_change,,6,0,3,,,,,,,,64,127,0,,,
9424,note_on,,16,0,2,,,,,,,,,,0,,40,0
9424,set_tempo,923076,16,1,0,,,,,,,,,,,,,
9424,note_on,,0,0,2,,,,,,,,,,0,,52,32
9436,note_on,,12,0,2,,,,,,,,,,0,,52,0
9440,note_on,,4,0,2,,,,,,,,,,0,,60,37
9440,set_tempo,952380,16,1,0,,,,,,,,,,,,,
9456,note_on,,0,0,2,,,,,,,,,,0,,57,39
9456,note_on,,16,0,2,,,,,,,,,,0,,60,0
9456,set_tempo,895522,16,1,0,,,,,,,,,,,,,
9472,note_on,,0,0,2,,,,,,,,,,0,,54,38
9472,note_on,,16,0,2,,,,,,,,,,0,,57,0
9478,note_on,,70,0,1,,,,,,,,,,0,,78,0
9478,note_on,,0,0,1,,,,,,,,,,0,,75,0
9480,set_tempo,952380,24,1,0,,,,,,,,,,,,,
9480,note_on,,2,0,1,,,,,,,,,,0,,76,60
9480,note_on,,0,0,1,,,,,,,,,,0,,80,72
9488,set_tempo,1071428,8,1,0,,,,,,,,,,,,,
9488,note_on,,16,0,2,,,,,,,,,,0,,54,0
9488,note_on,,0,0,2,,,,,,,,,,0,,52,37
9502,note_on,,0,0,1,,,,,,,,,,0,,76,0
9502,note_on,,22,0,1,,,,,,,,,,0,,80,0
9504,note_on,,0,0,1,,,,,,,,,,0,,81,70
9504,note_on,,2,0,1,,,,,,,,,,0,,78,58
9504,note_on,,16,0,2,,,,,,,,,,0,,52,0
9504,note_on,,0,0,2,,,,,,,,,,0,,40,42
9520,note_on,,0,0,2,,,,,,,,,,0,,52,38
9520,set_tempo,983606,32,1,0,,,,,,,,,,,,,
9520,note_on,,16,0,2,,,,,,,,,,0,,40,0
9526,note_on,,0,0,1,,,,,,,,,,0,,78,0
9526,note_on,,22,0,1,,,,,,,,,,0,,81,0
9528,set_tempo,1395348,8,1,0,,,,,,,,,,,,,
9528,note_on,,0,0,1,,,,,,,,,,0,,83,70
9528,note_on,,2,0,1,,,,,,,,,,0,,80,58
9532,note_on,,12,0,2,,,,,,,,,,0,,52,0
9536,set_tempo,1621621,8,1,0,,,,,,,,,,,,,
9536,note_on,,4,0,2,,,,,,,,,,0,,60,36
9550,note_on,,0,0,1,,,,,,,,,,0,,80,0
9550,note_on,,22,0,1,,,,,,,,,,0,,83,0
9552,note_on,,0,0,1,,,,,,,,,,0,,81,48
9552,note_on,,2,0,1,,,,,,,,,,0,,75,40
9552,note_on,,0,0,2,,,,,,,,,,0,,57,28
9552,note_on,,16,0,2,,,,,,,,,,0,,60,0
9552,note_on,,0,0,1,,,,,,,,,,0,,84,58
9568,note_on,,16,0,2,,,,,,,,,,0,,57,0
9568,note_on,,0,0,1,,,,,,,,,,0,,81,0
9568,set_tempo,1071428,32,1,0,,,,,,,,,,,,,
9568,note_on,,0,0,2,,,,,,,,,,0,,54,26
9568,note_on,,16,0,1,,,,,,,,,,0,,84,0
9576,note_on,,0,0,1,,,,,,,,,,0,,84,52
9576,note_on,,8,0,1,,,,,,,,,,0,,81,42
9576,set_tempo,1250000,8,1,0,,,,,,,,,,,,,
9584,note_on,,16,0,2,,,,,,,,,,0,,54,0
9584,note_on,,0,0,2,,,,,,,,,,0,,52,24
9592,note_on,,0,0,1,,,,,,,,,,0,,75,0
9592,note_on,,16,0,1,,,,,,,,,,0,,84,0
9592,note_on,,0,0,1,,,,,,,,,,0,,81,0
9600,control_change,,184,0,3,,,,,,,,64,127,0,,,
9600,note_on,,0,0,1,,,,,,,,,,0,,84,54
9600,note_on,,0,0,2,,,,,,,,,,0,,40,34
9600,note_on,,0,0,1,,,,,,,,,,0,,81,44
9600,note_on,,8,0,1,,,,,,,,,,0,,76,40
9600,note_on,,16,0,2,,,,,,,,,,0,,52,0
9600,set_tempo,1333333,24,1,0,,,,,,,,,,,,,
9602,control_change,,2,0,3,,,,,,,,64,0,0,,,
9608,control_change,,6,0,3,,,,,,,,64,127,0,,,
9616,set_tempo,1071428,16,1,0,,,,,,,,,,,,,
9616,note_on,,16,0,2,,,,,,,,,,0,,40,0
9616,note_on,,0,0,2,,,,,,,,,,0,,47,26
9628,note_on,,12,0,2,,,,,,,,,,0,,47,0
9632,note_on,,4,0,2,,,,,,,,,,0,,59,31
9632,set_tempo,1153846,16,1,0,,,,,,,,,,,,,
9646,note_on,,46,0,1,,,,,,,,,,0,,84,0
9646,note_on,,0,0,1,,,,,,,,,,0,,81,0
9648,note_on,,2,0,1,,,,,,,,,,0,,80,40
9648,note_on,,0,0,1,,,,,,,,,,0,,83,50
9648,note_on,,16,0,2,,,,,,,,,,0,,59,0
9648,set_tempo,1034482,16,1,0,,,,,,,,,,,,,
9648,note_on,,0,0,2,,,,,,,,,,0,,56,30
9664,set_tempo,983606,16,1,0,,,,,,,,,,,,,
9664,note_on,,0,0,2,,,,,,,,,,0,,54,29
9664,note_on,,16,0,2,,,,,,,,,,0,,56,0
9680,note_on,,0,0,2,,,,,,,,,,0,,52,28
9680,note_on,,16,0,2,,,,,,,,,,0,,54,0
9680,set_tempo,1071428,16,1,0,,,,,,,,,,,,,
9694,note_on,,46,0,1,,,,,,,,,,0,,83,0
9694,note_on,,0,0,1,,,,,,,,,,0,,80,0
9694,note_on,,0,0,1,,,,,,,,,,0,,76,0
9696,note_on,,16,0,2,,,,,,,,,,0,,52,0
9696,note_on,,0,0,2,,,,,,,,,,0,,40,42
9696,set_tempo,1000000,16,1,0,,,,,,,,,,,,,
9712,note_on,,16,0,2,,,,,,,,,,0,,40,0
9712,note_on,,0,0,2,,,,,,,,,,0,,47,32
9712,set_tempo,983606,16,1,0,,,,,,,,,,,,,
9724,note_on,,12,0,2,,,,,,,,,,0,,47,0
9728,note_on,,4,0,2,,,,,,,,,,0,,59,31
9744,note_on,,16,0,2,,,,,,,,,,0,,59,0
9744,note_on,,0,0,2,,,,,,,,,,0,,56,30
9760,note_on,,0,0,2,,,,,,,,,,0,,54,29
9760,note_on,,16,0,2,,,,,,,,,,0,,56,0
9760,set_tempo,1000000,48,1,0,,,,,,,,,,,,,
9776,note_on,,16,0,2,,,,,,,,,,0,,54,0
9776,note_on,,0,0,2,,,,,,,,,,0,,52,28
9776,set_tempo,1250000,16,1,0,,,,,,,,,,,,,
9792,note_on,,0,0,2,,,,,,,,,,0,,40,30
9792,note_on,,16,0,2,,,,,,,,,,0,,52,0
9792,control_change,,184,0,3,,,,,,,,64,127,0,,,
9792,set_tempo,1333333,16,1,0,,,,,,,,,,,,,
9793,note_on,,0,0,1,,,,,,,,,,0,,80,66
9793,note_on,,99,0,1,,,,,,,,,,0,,76,42
9794,control_change,,2,0,3,,,,,,,,64,0,0,,,
9800,control_change,,6,0,3,,,,,,,,64,127,0,,,
9808,set_tempo,1000000,16,1,0,,,,,,,,,,,,,
9808,note_on,,16,0,2,,,,,,,,,,0,,40,0
9808,note_on,,0,0,2,,,,,,,,,,0,,47,29
9820,note_on,,12,0,2,,,,,,,,,,0,,47,0
9824,set_tempo,1034482,16,1,0,,,,,,,,,,,,,
9824,note_on,,4,0,2,,,,,,,,,,0,,59,30
9840,note_on,,47,0,1,,,,,,,,,,0,,68,50
9840,note_on,,0,0,2,,,,,,,,,,0,,56,29
9840,set_tempo,1538461,16,1,0,,,,,,,,,,,,,
9840,note_on,,16,0,2,,,,,,,,,,0,,59,0
9848,note_on,,0,0,1,,,,,,,,,,0,,76,0
9848,note_on,,8,0,1,,,,,,,,,,0,,80,0
9856,note_on,,8,0,1,,,,,,,,,,0,,76,43
9856,note_on,,0,0,1,,,,,,,,,,0,,80,55
9856,note_on,,0,0,2,,,,,,,,,,0,,54,27
9856,note_on,,16,0,2,,,,,,,,,,0,,56,0
9856,set_tempo,1200000,16,1,0,,,,,,,,,,,,,
9864,note_on,,0,0,1,,,,,,,,,,0,,76,0
9864,note_on,,8,0,1,,,,,,,,,,0,,80,0
9872,note_on,,16,0,2,,,,,,,,,,0,,54,0
9872,note_on,,0,0,2,,,,,,,,,,0,,52,23
9872,note_on,,8,0,1,,,,,,,,,,0,,76,42
9872,set_tempo,1621621,16,1,0,,,,,,,,,,,,,
9872,note_on,,0,0,1,,,,,,,,,,0,,80,55
9880,note_on,,8,0,1,,,,,,,,,,0,,80,0
9880,note_on,,0,0,1,,,,,,,,,,0,,76,0
9888,note_on,,16,0,2,,,,,,,,,,0,,52,0
9888,note_on,,8,0,1,,,,,,,,,,0,,74,40
9888,set_tempo,1818181,16,1,0,,,,,,,,,,,,,
9888,note_on,,0,0,1,,,,,,,,,,0,,80,58
9888,note_on,,0,0,2,,,,,,,,,,0,,40,30
9904,note_on,,0,0,2,,,,,,,,,,0,,47,26
9904,note_on,,16,0,2,,,,,,,,,,0,,40,0
9904,set_tempo,1333333,16,1,0,,,,,,,,,,,,,
9910,note_on,,22,0,1,,,,,,,,,,0,,80,0
9912,set_tempo,1395348,8,1,0,,,,,,,,,,,,,
9912,note_on,,2,0,1,,,,,,,,,,0,,78,46
9916,note_on,,12,0,2,,,,,,,,,,0,,47,0
9920,note_on,,4,0,2,,,,,,,,,,0,,59,29
9934,note_on,,22,0,1,,,,,,,,,,0,,68,0
9936,note_on,,16,0,2,,,,,,,,,,0,,59,0
9936,set_tempo,1621621,24,1,0,,,,,,,,,,,,,
9936,note_on,,2,0,1,,,,,,,,,,0,,68,46
9936,note_on,,0,0,2,,,,,,,,,,0,,56,28
9944,note_on,,8,0,1,,,,,,,,,,0,,78,0
9944,note_on,,0,0,1,,,,,,,,,,0,,74,0
9952,note_on,,8,0,1,,,,,,,,,,0,,74,36
9952,note_on,,0,0,1,,,,,,,,,,0,,78,42
9952,note_on,,0,0,2,,,,,,,,,,0,,54,27
9952,note_on,,16,0,2,,,,,,,,,,0,,56,0
9952,set_tempo,1200000,16,1,0,,,,,,,,,,,,,
9960,note_on,,8,0,1,,,,,,,,,,0,,78,0
9960,note_on,,0,0,1,,,,,,,,,,0,,74,0
9968,note_on,,0,0,2,,,,,,,,,,0,,52,26
9968,note_on,,8,0,1,,,,,,,,,,0,,74,34
9968,note_on,,0,0,1,,,,,,,,,,0,,78,40
9968,note_on,,16,0,2,,,,,,,,,,0,,54,0
9968,set_tempo,1621621,16,1,0,,,,,,,,,,,,,
9976,note_on,,8,0,1,,,,,,,,,,0,,78,0
9976,note_on,,0,0,1,,,,,,,,,,0,,74,0
9982,note_on,,6,0,1,,,,,,,,,,0,,68,0
9984,note_on,,16,0,2,,,,,,,,,,0,,52,0
9984,note_on,,0,0,2,,,,,,,,,,0,,40,32
9984,note_on,,2,0,1,,,,,,,,,,0,,78,43
9984,control_change,,184,0,3,,,,,,,,64,127,0,,,
9984,set_tempo,1463414,16,1,0,,,,,,,,,,,,,
9985,note_on,,1,0,1,,,,,,,,,,0,,69,34
9985,note_on,,0,0,1,,,,,,,,,,0,,73,38
9986,control_change,,2,0,3,,,,,,,,64,0,0,,,
9992,control_change,,6,0,3,,,,,,,,64,127,0,,,
10000,set_tempo,983606,16,1,0,,,,,,,,,,,,,
10000,note_on,,16,0,2,,,,,,,,,,0,,40,0
10000,note_on,,0,0,2,,,,,,,,,,0,,52,28
10012,note_on,,12,0,2,,,,,,,,,,0,,52,0
10016,set_tempo,923076,16,1,0,,,,,,,,,,,,,
10016,note_on,,4,0,2,,,,,,,,,,0,,61,29
10026,note_on,,41,0,1,,,,,,,,,,0,,78,0
10030,note_on,,4,0,1,,,,,,,,,,0,,76,41
10032,set_tempo,1034482,16,1,0,,,,,,,,,,,,,
10032,note_on,,16,0,2,,,,,,,,,,0,,61,0
10032,note_on,,0,0,2,,,,,,,,,,0,,57,28
10048,note_on,,16,0,2,,,,,,,,,,0,,57,0
10048,set_tempo,983606,16,1,0,,,,,,,,,,,,,
10048,note_on,,0,0,2,,,,,,,,,,0,,54,27
10064,set_tempo,952380,16,1,0,,,,,,,,,,,,,
10064,note_on,,0,0,2,,,,,,,,,,0,,52,26
10064,note_on,,16,0,2,,,,,,,,,,0,,54,0
10077,note_on,,47,0,1,,,,,,,,,,0,,76,0
10080,note_on,,3,0,1,,,,,,,,,,0,,73,0
10080,set_tempo,1071428,16,1,0,,,,,,,,,,,,,
10080,note_on,,0,0,1,,,,,,,,,,0,,69,0
10080,note_on,,0,0,2,,,,,,,,,,0,,40,32
10080,note_on,,16,0,2,,,,,,,,,,0,,52,0
10096,set_tempo,983606,16,1,0,,,,,,,,,,,,,
10096,note_on,,16,0,2,,,,,,,,,,0,,40,0
10096,note_on,,0,0,2,,,,,,,,,,0,,52,28
10108,note_on,,12,0,2,,,,,,,,,,0,,52,0
10112,note_on,,4,0,2,,,,,,,,,,0,,61,29
10112,set_tempo,1000000,16,1,0,,,,,,,,,,,,,
10128,note_on,,16,0,2,,,,,,,,,,0,,61,0
10128,note_on,,0,0,2,,,,,,,,,,0,,57,28
10144,note_on,,0,0,2,,,,,,,,,,0,,54,27
10144,set_tempo,1034482,32,1,0,,,,,,,,,,,,,
10144,note_on,,16,0,2,,,,,,,,,,0,,57,0
10160,note_on,,16,0,2,,,,,,,,,,0,,54,0
10160,note_on,,0,0,2,,,,,,,,,,0,,52,26
10160,set_tempo,1200000,16,1,0,,,,,,,,,,,,,
10176,note_on,,0,0,2,,,,,,,,,,0,,40,32
10176,control_change,,184,0,3,,,,,,,,64,127,0,,,
10176,note_on,,96,0,1,,,,,,,,,,0,,69,40
10176,note_on,,0,0,1,,,,,,,,,,0,,72,42
10176,note_on,,0,0,1,,,,,,,,,,0,,75,50
10176,note_on,,16,0,2,,,,,,,,,,0,,52,0
10176,set_tempo,1621621,16,1,0,,,,,,,,,,,,,
10178,control_change,,2,0,3,,,,,,,,64,0,0,,,
10184,control_change,,6,0,3,,,,,,,,64,127,0,,,
10192,note_on,,0,0,2,,,,,,,,,,0,,52,28
10192,set_tempo,1000000,16,1,0,,,,,,,,,,,,,
10192,note_on,,16,0,2,,,,,,,,,,0,,40,0
10204,note_on,,12,0,2,,,,,,,,,,0,,52,0
10208,note_on,,4,0,2,,,,,,,,,,0,,60,29
10208,set_tempo,952380,16,1,0,,,,,,,,,,,,,
10224,note_on,,16,0,2,,,,,,,,,,0,,60,0
10224,set_tempo,983606,16,1,0,,,,,,,,,,,,,
10224,note_on,,0,0,2,,,,,,,,,,0,,57,28
10240,set_tempo,1034482,16,1,0,,,,,,,,,,,,,
10240,note_on,,0,0,2,,,,,,,,,,0,,54,27
10240,note_on,,0,0,1,,,,,,,,,,0,,69,0
10240,note_on,,64,0,1,,,,,,,,,,0,,72,0
10240,note_on,,16,0,2,,,,,,,,,,0,,57,0
10248,note_on,,8,0,1,,,,,,,,,,0,,68,40
10248,note_on,,0,0,1,,,,,,,,,,0,,71,48
10248,set_tempo,1304347,8,1,0,,,,,,,,,,,,,
10256,note_on,,16,0,2,,,,,,,,,,0,,54,0
10256,note_on,,0,0,2,,,,,,,,,,0,,52,26
10256,set_tempo,1395348,8,1,0,,,,,,,,,,,,,
10270,note_on,,0,0,1,,,,,,,,,,0,,68,0
10270,note_on,,22,0,1,,,,,,,,,,0,,71,0
10272,note_on,,0,0,1,,,,,,,,,,0,,72,50
10272,note_on,,2,0,1,,,,,,,,,,0,,69,42
10272,note_on,,16,0,2,,,,,,,,,,0,,52,0
10272,set_tempo,1153846,16,1,0,,,,,,,,,,,,,
10272,note_on,,0,0,2,,,,,,,,,,0,,40,32
10288,note_on,,0,0,2,,,,,,,,,,0,,52,28
10288,note_on,,16,0,2,,,,,,,,,,0,,40,0
10288,set_tempo,1000000,16,1,0,,,,,,,,,,,,,
10294,note_on,,0,0,1,,,,,,,,,,0,,69,0
10294,note_on,,22,0,1,,,,,,,,,,0,,72,0
10296,note_on,,0,0,1,,,,,,,,,,0,,71,48
10296,note_on,,2,0,1,,,,,,,,,,0,,68,40
10300,note_on,,12,0,2,,,,,,,,,,0,,52,0
10304,set_tempo,1463414,16,1,0,,,,,,,,,,,,,
10304,note_on,,4,0,2,,,,,,,,,,0,,60,29
10318,note_on,,0,0,1,,,,,,,,,,0,,68,0
10318,note_on,,22,0,1,,,,,,,,,,0,,71,0
10320,note_on,,0,0,2,,,,,,,,,,0,,57,26
10320,set_tempo,1818181,16,1,0,,,,,,,,,,,,,
10320,note_on,,16,0,2,,,,,,,,,,0,,60,0
10320,note_on,,0,0,1,,,,,,,,,,0,,72,42
10320,note_on,,2,0,1,,,,,,,,,,0,,69,34
10336,note_on,,16,0,1,,,,,,,,,,0,,72,0
10336,note_on,,0,0,1,,,,,,,,,,0,,69,0
10336,set_tempo,1200000,16,1,0,,,,,,,,,,,,,
10336,note_on,,16,0,2,,,,,,,,,,0,,57,0
10336,note_on,,0,0,2,,,,,,,,,,0,,54,25
10344,note_on,,8,0,1,,,,,,,,,,0,,69,34
10344,note_on,,0,0,1,,,,,,,,,,0,,72,38
10344,set_tempo,1333333,8,1,0,,,,,,,,,,,,,
10352,set_tempo,1621621,8,1,0,,,,,,,,,,,,,
10352,note_on,,16,0,2,,,,,,,,,,0,,54,0
10352,note_on,,0,0,2,,,,,,,,,,0,,52,24
10360,note_on,,0,0,1,,,,,,,,,,0,,69,0
10360,note_on,,16,0,1,,,,,,,,,,0,,72,0
10366,note_on,,6,0,1,,,,,,,,,,0,,75,0
10368,set_tempo,1304347,16,1,0,,,,,,,,,,,,,
10368,control_change,,184,0,3,,,,,,,,64,127,0,,,
10368,note_on,,0,0,1,,,,,,,,,,0,,76,42
10368,note_on,,0,0,1,,,,,,,,,,0,,71,34
10368,note_on,,0,0,2,,,,,,,,,,0,,40,34
10368,note_on,,16,0,2,,,,,,,,,,0,,52,0
10368,note_on,,2,0,1,,,,,,,,,,0,,68,32
10370,control_change,,2,0,3,,,,,,,,64,0,0,,,
10376,control_change,,6,0,3,,,,,,,,64,127,0,,,
10384,note_on,,0,0,2,,,,,,,,,,0,,47,28
10384,note_on,,16,0,2,,,,,,,,,,0,,40,0
10384,set_tempo,1071428,16,1,0,,,,,,,,,,,,,
10396,note_on,,12,0,2,,,,,,,,,,0,,47,0
10400,note_on,,4,0,2,,,,,,,,,,0,,59,29
10400,set_tempo,1000000,16,1,0,,,,,,,,,,,,,
10416,note_on,,16,0,2,,,,,,,,,,0,,59,0
10416,note_on,,0,0,2,,,,,,,,,,0,,56,28
10432,note_on,,16,0,2,,,,,,,,,,0,,56,0
10432,note_on,,0,0,2,,,,,,,,,,0,,54,27
10448,set_tempo,1071428,48,1,0,,,,,,,,,,,,,
10448,note_on,,0,0,2,,,,,,,,,,0,,52,26
10448,note_on,,16,0,2,,,,,,,,,,0,,54,0
10464,note_on,,0,0,2,,,,,,,,,,0,,40,38
10464,note_on,,16,0,2,,,,,,,,,,0,,52,0
10464,set_tempo,1111111,16,1,0,,,,,,,,,,,,,
10480,note_on,,0,0,2,,,,,,,,,,0,,47,28
10480,note_on,,16,0,2,,,,,,,,,,0,,40,0
10480,set_tempo,1071428,16,1,0,,,,,,,,,,,,,
10492,note_on,,12,0,2,,,,,,,,,,0,,47,0
10496,note_on,,4,0,2,,,,,,,,,,0,,59,29
10510,note_on,,0,0,1,,,,,,,,,,0,,68,0
10510,note_on,,0,0,1,,,,,,,,,,0,,71,0
10510,note_on,,142,0,1,,,,,,,,,,0,,76,0
10512,set_tempo,1200000,32,1,0,,,,,,,,,,,,,
10512,note_on,,0,0,2,,,,,,,,,,0,,56,28
10512,note_on,,16,0,2,,,,,,,,,,0,,59,0
10528,note_on,,0,0,2,,,,,,,,,,0,,54,27
10528,set_tempo,1111111,16,1,0,,,,,,,,,,,,,
10528,note_on,,16,0,2,,,,,,,,,,0,,56,0
10544,note_on,,0,0,2,,,,,,,,,,0,,52,26
10544,set_tempo,1463414,16,1,0,,,,,,,,,,,,,
10544,note_on,,16,0,2,,,,,,,,,,0,,54,0
10560,control_change,,184,0,3,,,,,,,,64,127,0,,,
10560,note_on,,50,0,1,,,,,,,,,,0,,63,38
10560,note_on,,0,0,2,,,,,,,,,,0,,40,38
10560,note_on,,16,0,2,,,,,,,,,,0,,52,0
10560,note_on,,0,0,1,,,,,,,,,,0,,66,42
10560,note_on,,0,0,1,,,,,,,,,,0,,69,52
10560,set_tempo,1621621,16,1,0,,,,,,,,,,,,,
10562,control_change,,2,0,3,,,,,,,,64,0,0,,,
10568,control_change,,6,0,3,,,,,,,,64,127,0,,,
10576,note_on,,16,0,2,,,,,,,,,,0,,40,0
10576,set_tempo,1071428,16,1,0,,,,,,,,,,,,,
10576,note_on,,0,0,2,,,,,,,,,,0,,52,30
10588,note_on,,12,0,2,,,,,,,,,,0,,52,0
10592,note_on,,4,0,2,,,,,,,,,,0,,60,31
10592,set_tempo,1000000,16,1,0,,,,,,,,,,,,,
10608,note_on,,0,0,2,,,,,,,,,,0,,57,30
10608,note_on,,16,0,2,,,,,,,,,,0,,60,0
10608,set_tempo,1034482,16,1,0,,,,,,,,,,,,,
10624,note_on,,0,0,2,,,,,,,,,,0,,54,29
10624,note_on,,16,0,2,,,,,,,,,,0,,57,0
10640,note_on,,16,0,2,,,,,,,,,,0,,54,0
10640,note_on,,0,0,2,,,,,,,,,,0,,52,27
10640,set_tempo,1071428,32,1,0,,,,,,,,,,,,,
10656,set_tempo,1111111,16,1,0,,,,,,,,,,,,,
10656,note_on,,0,0,2,,,,,,,,,,0,,40,35
10656,note_on,,16,0,2,,,,,,,,,,0,,52,0
10672,note_on,,16,0,2,,,,,,,,,,0,,40,0
10672,set_tempo,1153846,16,1,0,,,,,,,,,,,,,
10672,note_on,,0,0,2,,,,,,,,,,0,,52,28
10684,note_on,,12,0,2,,,,,,,,,,0,,52,0
10688,note_on,,4,0,2,,,,,,,,,,0,,60,29
10688,set_tempo,1333333,16,1,0,,,,,,,,,,,,,
10704,note_on,,16,0,2,,,,,,,,,,0,,60,0
10704,note_on,,0,0,2,,,,,,,,,,0,,57,28
10704,set_tempo,1621621,16,1,0,,,,,,,,,,,,,
10720,note_on,,0,0,2,,,,,,,,,,0,,54,27
10720,note_on,,16,0,2,,,,,,,,,,0,,57,0
10720,set_tempo,1714285,16,1,0,,,,,,,,,,,,,
10736,note_on,,16,0,2,,,,,,,,,,0,,54,0
10736,note_on,,0,0,2,,,,,,,,,,0,,52,26
10736,set_tempo,2142857,16,1,0,,,,,,,,,,,,,
10750,note_on,,0,0,1,,,,,,,,,,0,,63,0
10750,note_on,,190,0,1,,,,,,,,,,0,,69,0
10750,note_on,,0,0,1,,,,,,,,,,0,,66,0
10752,note_on,,0,0,1,,,,,,,,,,0,,68,44
10752,note_on,,2,0,1,,,,,,,,,,0,,64,34
10752,set_tempo,2000000,16,1,0,,,,,,,,,,,,,
10752,control_change,,184,0,3,,,,,,,,64,127,0,,,
10752,note_on,,16,0,2,,,,,,,,,,0,,52,0
10752,note_on,,0,0,2,,,,,,,,,,0,,40,30
10754,control_change,,2,0,3,,,,,,,,64,0,0,,,
10760,control_change,,6,0,3,,,,,,,,64,127,0,,,
10768,note_on,,16,0,2,,,,,,,,,,0,,40,0
10768,note_on,,0,0,2,,,,,,,,,,0,,47,28
10768,set_tempo,1250000,16,1,0,,,,,,,,,,,,,
10780,note_on,,12,0,2,,,,,,,,,,0,,47,0
10784,note_on,,4,0,2,,,,,,,,,,0,,59,35
10784,set_tempo,1333333,16,1,0,,,,,,,,,,,,,
10798,note_on,,0,0,1,,,,,,,,,,0,,64,0
10798,note_on,,46,0,1,,,,,,,,,,0,,68,0
10800,note_on,,0,0,2,,,,,,,,,,0,,56,30
10800,note_on,,16,0,2,,,,,,,,,,0,,59,0
10800,set_tempo,1250000,16,1,0,,,,,,,,,,,,,
10816,note_on,,0,0,2,,,,,,,,,,0,,54,31
10816,note_on,,16,0,2,,,,,,,,,,0,,56,0
10816,set_tempo,1304347,16,1,0,,,,,,,,,,,,,
10832,set_tempo,1463414,16,1,0,,,,,,,,,,,,,
10832,note_on,,0,0,2,,,,,,,,,,0,,52,30
10832,note_on,,16,0,2,,,,,,,,,,0,,54,0
10848,set_tempo,1935483,16,1,0,,,,,,,,,,,,,
10848,note_on,,16,0,2,,,,,,,,,,0,,52,0
10848,note_on,,0,0,2,,,,,,,,,,0,,40,38
10864,note_on,,0,0,2,,,,,,,,,,0,,47,28
10864,note_on,,16,0,2,,,,,,,,,,0,,40,0
10864,set_tempo,1818181,16,1,0,,,,,,,,,,,,,
10876,note_on,,12,0,2,,,,,,,,,,0,,47,0
10880,set_tempo,2000000,16,1,0,,,,,,,,,,,,,
10880,note_on,,4,0,2,,,,,,,,,,0,,59,30
10896,note_on,,16,0,2,,,,,,,,,,0,,59,0
10896,set_tempo,1538461,16,1,0,,,,,,,,,,,,,
10896,note_on,,0,0,2,,,,,,,,,,0,,56,28
10928,note_on,,32,0,2,,,,,,,,,,0,,56,0
10928,note_on,,0,0,2,,,,,,,,,,0,,54,27
10928,set_tempo,2000000,32,1,0,,,,,,,,,,,,,
10960,note_on,,32,0,2,,,,,,,,,,0,,54,0
10960,note_on,,0,0,2,,,,,,,,,,0,,52,25
10960,set_tempo,3333333,32,1,0,,,,,,,,,,,,,
10990,control_change,,230,0,3,,,,,,,,64,0,0,,,
10992,control_change,,2,0,3,,,,,,,,64,0,0,,,
10992,set_tempo,2727272,0,1,0,,,,,,,,,,,,,
10992,time_signature,,32,1,0,5,4,24,8,,,,,,,,,
10992,note_on,,194,0,1,,,,,,,,,,0,,40,39
10992,note_on,,0,0,2,,,,,,,,,,0,,64,37
10992,note_on,,32,0,2,,,,,,,,,,0,,56,29
11134,note_on,,0,0,2,,,,,,,,,,0,,52,0
11134,note_on,,0,0,2,,,,,,,,,,0,,56,0
11134,note_on,,142,0,2,,,,,,,,,,0,,64,0
11134,note_on,,142,0,1,,,,,,,,,,0,,40,0
11136,set_tempo,1333333,144,1,0,,,,,,,,,,,,,
11184,end_of_track,,50,1,1,,,,,,,,,,,,,
11184,end_of_track,,50,1,2,,,,,,,,,,,,,
11184,time_signature,,48,1,0,4,4,24,8,,,,,,,,,
11184,end_of_track,,0,1,0,,,,,,,,,,,,,
11184,end_of_track,,192,1,3,,,,,,,,,,,,,
