tick,type,tempo,time,meta,track,numerator,denominator,clocks_per_click,notated_32nd_notes_per_beat,key,port,data,control,value,channel,program,note,velocity
0,set_tempo,500000,0,1,0,,,,,,,,,,,,,
0,midi_port,,0,1,1,,,,,,0,,,,,,,
0,track_name,,0,1,1,,,,,,,,,,,,,
0,midi_port,,0,1,2,,,,,,0,,,,,,,
0,track_name,,0,1,3,,,,,,,,,,,,,
0,midi_port,,0,1,3,,,,,,0,,,,,,,
0,track_name,,0,1,2,,,,,,,,,,,,,
0,text,,0,1,0,,,,,,,,,,,,,
0,track_name,,0,1,0,,,,,,,,,,,,,
0,key_signature,,0,1,0,,,,,F#,,,,,,,,
0,time_signature,,0,1,0,4,4,24,8,,,,,,,,,
4,sysex,,4,0,1,,,,,,,"(65, 16, 66, 18, 64, 0, 127, 0, 65)",,,,,,
6,sysex,,2,0,1,,,,,,,"(65, 16, 66, 18, 64, 0, 4, 127, 61)",,,,,,
10,sysex,,4,0,1,,,,,,,"(65, 16, 66, 18, 64, 1, 48, 4, 11)",,,,,,
12,sysex,,2,0,1,,,,,,,"(65, 16, 66, 18, 64, 1, 49, 3, 11)",,,,,,
14,sysex,,2,0,1,,,,,,,"(65, 16, 66, 18, 64, 1, 51, 110, 30)",,,,,,
16,sysex,,2,0,1,,,,,,,"(65, 16, 66, 18, 64, 1, 52, 60, 79)",,,,,,
18,sysex,,2,0,1,,,,,,,"(65, 16, 66, 18, 64, 1, 56, 2, 5)",,,,,,
20,sysex,,2,0,1,,,,,,,"(65, 16, 66, 18, 64, 1, 58, 100, 33)",,,,,,
22,sysex,,2,0,1,,,,,,,"(65, 16, 66, 18, 64, 1, 61, 7, 123)",,,,,,
24,sysex,,2,0,1,,,,,,,"(65, 16, 66, 18, 64, 1, 62, 8, 121)",,,,,,
26,control_change,,2,0,1,,,,,,,,0,0,0,,,
28,control_change,,2,0,1,,,,,,,,32,1,0,,,
30,program_change,,2,0,1,,,,,,,,,,0,0,,
32,control_change,,2,0,1,,,,,,,,7,120,0,,,
34,control_change,,2,0,1,,,,,,,,11,120,0,,,
36,control_change,,2,0,1,,,,,,,,91,40,0,,,
38,control_change,,2,0,1,,,,,,,,93,0,0,,,
40,control_change,,2,0,1,,,,,,,,10,64,0,,,
42,control_change,,2,0,1,,,,,,,,99,1,0,,,
44,control_change,,2,0,1,,,,,,,,98,8,0,,,
46,control_change,,2,0,1,,,,,,,,6,64,0,,,
48,control_change,,2,0,1,,,,,,,,98,9,0,,,
50,control_change,,2,0,1,,,,,,,,6,64,0,,,
52,control_change,,2,0,1,,,,,,,,98,10,0,,,
54,control_change,,2,0,1,,,,,,,,6,64,0,,,
56,control_change,,2,0,1,,,,,,,,98,32,0,,,
58,control_change,,2,0,1,,,,,,,,6,64,0,,,
60,control_change,,2,0,1,,,,,,,,98,33,0,,,
62,control_change,,2,0,1,,,,,,,,6,64,0,,,
64,control_change,,2,0,1,,,,,,,,98,99,0,,,
66,control_change,,2,0,1,,,,,,,,6,64,0,,,
68,control_change,,2,0,1,,,,,,,,98,100,0,,,
70,control_change,,2,0,1,,,,,,,,6,80,0,,,
72,control_change,,2,0,1,,,,,,,,98,102,0,,,
74,control_change,,2,0,1,,,,,,,,6,64,0,,,
144,set_tempo,1395348,144,1,0,,,,,,,,,,,,,
144,note_on,,70,0,1,,,,,,,,,,0,,70,54
180,set_tempo,1935483,36,1,0,,,,,,,,,,,,,
180,note_on,,36,0,1,,,,,,,,,,0,,70,0
180,note_on,,0,0,1,,,,,,,,,,0,,71,46
192,control_change,,192,0,3,,,,,,,,64,0,0,,,
192,note_on,,192,0,2,,,,,,,,,,0,,37,34
192,note_on,,12,0,1,,,,,,,,,,0,,71,0
192,note_on,,0,0,1,,,,,,,,,,0,,70,52
192,set_tempo,1034482,12,1,0,,,,,,,,,,,,,
200,control_change,,8,0,3,,,,,,,,64,127,0,,,
216,set_tempo,769230,24,1,0,,,,,,,,,,,,,
216,note_on,,24,0,1,,,,,,,,,,0,,70,0
216,note_on,,0,0,1,,,,,,,,,,0,,68,50
240,note_on,,0,0,2,,,,,,,,,,0,,49,35
240,note_on,,48,0,2,,,,,,,,,,0,,37,0
240,note_on,,0,0,1,,,,,,,,,,0,,65,43
240,set_tempo,821917,24,1,0,,,,,,,,,,,,,
240,note_on,,24,0,1,,,,,,,,,,0,,68,0
264,note_on,,24,0,1,,,,,,,,,,0,,65,0
264,note_on,,0,0,1,,,,,,,,,,0,,61,45
264,set_tempo,845070,24,1,0,,,,,,,,,,,,,
280,note_on,,16,0,1,,,,,,,,,,0,,61,0
288,set_tempo,923076,24,1,0,,,,,,,,,,,,,
288,note_on,,48,0,2,,,,,,,,,,0,,49,0
288,note_on,,0,0,2,,,,,,,,,,0,,59,28
288,note_on,,0,0,2,,,,,,,,,,0,,53,23
288,note_on,,8,0,1,,,,,,,,,,0,,61,44
290,control_change,,90,0,3,,,,,,,,64,0,0,,,
296,control_change,,6,0,3,,,,,,,,64,127,0,,,
312,note_on,,24,0,1,,,,,,,,,,0,,61,0
336,note_on,,24,0,1,,,,,,,,,,0,,61,42
336,set_tempo,1034482,48,1,0,,,,,,,,,,,,,
336,note_on,,0,0,2,,,,,,,,,,0,,49,31
336,note_on,,0,0,2,,,,,,,,,,0,,53,0
336,note_on,,48,0,2,,,,,,,,,,0,,59,0
338,control_change,,42,0,3,,,,,,,,64,0,0,,,
344,control_change,,6,0,3,,,,,,,,64,127,0,,,
360,note_on,,24,0,1,,,,,,,,,,0,,61,0
378,note_on,,42,0,2,,,,,,,,,,0,,49,0
382,control_change,,38,0,3,,,,,,,,64,0,0,,,
384,set_tempo,895522,48,1,0,,,,,,,,,,,,,
384,control_change,,2,0,3,,,,,,,,64,0,0,,,
384,note_on,,6,0,2,,,,,,,,,,0,,42,33
384,note_on,,24,0,1,,,,,,,,,,0,,61,42
392,control_change,,8,0,3,,,,,,,,64,127,0,,,
432,note_on,,0,0,2,,,,,,,,,,0,,49,31
432,note_on,,48,0,2,,,,,,,,,,0,,42,0
432,set_tempo,750000,48,1,0,,,,,,,,,,,,,
444,set_tempo,800000,12,1,0,,,,,,,,,,,,,
444,note_on,,0,0,1,,,,,,,,,,0,,66,38
444,note_on,,60,0,1,,,,,,,,,,0,,61,0
456,note_on,,12,0,1,,,,,,,,,,0,,66,0
456,note_on,,0,0,1,,,,,,,,,,0,,70,42
468,set_tempo,923076,24,1,0,,,,,,,,,,,,,
468,note_on,,0,0,1,,,,,,,,,,0,,75,47
468,note_on,,12,0,1,,,,,,,,,,0,,70,0
480,note_on,,0,0,2,,,,,,,,,,0,,54,23
480,note_on,,48,0,2,,,,,,,,,,0,,49,0
480,note_on,,0,0,1,,,,,,,,,,0,,73,40
480,note_on,,0,0,2,,,,,,,,,,0,,58,28
480,note_on,,12,0,1,,,,,,,,,,0,,75,0
480,set_tempo,1000000,12,1,0,,,,,,,,,,,,,
482,control_change,,90,0,3,,,,,,,,64,0,0,,,
488,control_change,,6,0,3,,,,,,,,64,127,0,,,
522,note_on,,42,0,1,,,,,,,,,,0,,73,0
524,control_change,,36,0,3,,,,,,,,64,0,0,,,
528,note_on,,6,0,1,,,,,,,,,,0,,70,50
528,set_tempo,983606,48,1,0,,,,,,,,,,,,,
528,note_on,,48,0,2,,,,,,,,,,0,,58,0
528,note_on,,0,0,2,,,,,,,,,,0,,54,0
528,note_on,,0,0,2,,,,,,,,,,0,,49,31
564,set_tempo,1304347,36,1,0,,,,,,,,,,,,,
564,note_on,,36,0,1,,,,,,,,,,0,,70,0
564,note_on,,0,0,1,,,,,,,,,,0,,71,46
570,note_on,,42,0,2,,,,,,,,,,0,,49,0
576,note_on,,6,0,2,,,,,,,,,,0,,37,33
576,control_change,,52,0,3,,,,,,,,64,0,0,,,
576,note_on,,12,0,1,,,,,,,,,,0,,71,0
576,set_tempo,869565,12,1,0,,,,,,,,,,,,,
576,note_on,,0,0,1,,,,,,,,,,0,,70,52
584,control_change,,8,0,3,,,,,,,,64,127,0,,,
596,note_on,,20,0,1,,,,,,,,,,0,,70,0
600,note_on,,4,0,1,,,,,,,,,,0,,68,50
600,set_tempo,631578,24,1,0,,,,,,,,,,,,,
620,note_on,,20,0,1,,,,,,,,,,0,,68,0
624,note_on,,0,0,2,,,,,,,,,,0,,49,30
624,note_on,,4,0,1,,,,,,,,,,0,,65,47
624,note_on,,48,0,2,,,,,,,,,,0,,37,0
624,set_tempo,923076,24,1,0,,,,,,,,,,,,,
640,set_tempo,681818,16,1,0,,,,,,,,,,,,,
640,note_on,,16,0,1,,,,,,,,,,0,,65,0
640,note_on,,0,0,1,,,,,,,,,,0,,62,46
656,set_tempo,750000,16,1,0,,,,,,,,,,,,,
656,note_on,,0,0,1,,,,,,,,,,0,,61,45
656,note_on,,16,0,1,,,,,,,,,,0,,62,0
664,note_on,,8,0,1,,,,,,,,,,0,,61,0
672,set_tempo,895522,16,1,0,,,,,,,,,,,,,
672,note_on,,8,0,1,,,,,,,,,,0,,61,47
672,note_on,,0,0,2,,,,,,,,,,0,,59,27
672,note_on,,0,0,2,,,,,,,,,,0,,53,22
672,note_on,,48,0,2,,,,,,,,,,0,,49,0
674,control_change,,90,0,3,,,,,,,,64,0,0,,,
680,control_change,,6,0,3,,,,,,,,64,127,0,,,
696,note_on,,24,0,1,,,,,,,,,,0,,61,0
720,note_on,,24,0,1,,,,,,,,,,0,,61,44
720,set_tempo,1071428,48,1,0,,,,,,,,,,,,,
720,note_on,,0,0,2,,,,,,,,,,0,,49,25
720,note_on,,0,0,2,,,,,,,,,,0,,53,0
720,note_on,,48,0,2,,,,,,,,,,0,,59,0
722,control_change,,42,0,3,,,,,,,,64,0,0,,,
728,control_change,,6,0,3,,,,,,,,64,127,0,,,
744,note_on,,24,0,1,,,,,,,,,,0,,61,0
762,note_on,,42,0,2,,,,,,,,,,0,,49,0
766,control_change,,38,0,3,,,,,,,,64,0,0,,,
768,note_on,,6,0,2,,,,,,,,,,0,,42,28
768,note_on,,24,0,1,,,,,,,,,,0,,61,40
768,control_change,,2,0,3,,,,,,,,64,0,0,,,
768,set_tempo,952380,48,1,0,,,,,,,,,,,,,
776,control_change,,8,0,3,,,,,,,,64,127,0,,,
816,set_tempo,1000000,48,1,0,,,,,,,,,,,,,
816,note_on,,48,0,2,,,,,,,,,,0,,42,0
816,note_on,,0,0,2,,,,,,,,,,0,,49,32
826,set_tempo,800000,10,1,0,,,,,,,,,,,,,
826,note_on,,0,0,1,,,,,,,,,,0,,66,39
826,note_on,,58,0,1,,,,,,,,,,0,,61,0
836,note_on,,0,0,1,,,,,,,,,,0,,70,43
836,note_on,,10,0,1,,,,,,,,,,0,,66,0
836,set_tempo,895522,10,1,0,,,,,,,,,,,,,
845,set_tempo,789473,9,1,0,,,,,,,,,,,,,
845,note_on,,0,0,1,,,,,,,,,,0,,66,49
845,note_on,,9,0,1,,,,,,,,,,0,,70,0
854,set_tempo,895522,9,1,0,,,,,,,,,,,,,
854,note_on,,9,0,1,,,,,,,,,,0,,66,0
854,note_on,,0,0,1,,,,,,,,,,0,,75,62
864,note_on,,48,0,2,,,,,,,,,,0,,49,0
864,note_on,,0,0,2,,,,,,,,,,0,,61,28
864,set_tempo,1034482,10,1,0,,,,,,,,,,,,,
864,note_on,,0,0,2,,,,,,,,,,0,,54,20
864,note_on,,0,0,2,,,,,,,,,,0,,58,24
864,note_on,,10,0,1,,,,,,,,,,0,,75,0
864,note_on,,0,0,1,,,,,,,,,,0,,73,54
866,control_change,,90,0,3,,,,,,,,64,0,0,,,
872,control_change,,6,0,3,,,,,,,,64,127,0,,,
888,note_on,,24,0,1,,,,,,,,,,0,,73,0
906,note_on,,42,0,2,,,,,,,,,,0,,61,0
906,note_on,,0,0,2,,,,,,,,,,0,,58,0
906,note_on,,0,0,2,,,,,,,,,,0,,54,0
908,control_change,,36,0,3,,,,,,,,64,0,0,,,
912,set_tempo,800000,48,1,0,,,,,,,,,,,,,
912,note_on,,24,0,1,,,,,,,,,,0,,71,62
948,set_tempo,1200000,36,1,0,,,,,,,,,,,,,
948,note_on,,0,0,1,,,,,,,,,,0,,73,58
948,note_on,,36,0,1,,,,,,,,,,0,,71,0
960,note_on,,54,0,2,,,,,,,,,,0,,39,40
960,set_tempo,845070,12,1,0,,,,,,,,,,,,,
960,note_on,,0,0,1,,,,,,,,,,0,,71,59
960,note_on,,12,0,1,,,,,,,,,,0,,73,0
960,control_change,,52,0,3,,,,,,,,64,0,0,,,
968,control_change,,8,0,3,,,,,,,,64,127,0,,,
984,set_tempo,714285,24,1,0,,,,,,,,,,,,,
984,note_on,,0,0,1,,,,,,,,,,0,,70,62
984,note_on,,24,0,1,,,,,,,,,,0,,71,0
1008,note_on,,48,0,2,,,,,,,,,,0,,39,0
1008,note_on,,0,0,2,,,,,,,,,,0,,51,36
1008,set_tempo,769230,24,1,0,,,,,,,,,,,,,
1008,note_on,,24,0,1,,,,,,,,,,0,,70,0
1008,note_on,,0,0,1,,,,,,,,,,0,,67,60
1032,note_on,,0,0,1,,,,,,,,,,0,,63,62
1032,note_on,,24,0,1,,,,,,,,,,0,,67,0
1032,set_tempo,821917,24,1,0,,,,,,,,,,,,,
1056,note_on,,24,0,1,,,,,,,,,,0,,63,0
1056,note_on,,48,0,2,,,,,,,,,,0,,51,0
1056,set_tempo,869565,24,1,0,,,,,,,,,,,,,
1056,note_on,,0,0,2,,,,,,,,,,0,,61,44
1056,note_on,,0,0,1,,,,,,,,,,0,,63,60
1056,note_on,,0,0,2,,,,,,,,,,0,,55,36
1058,control_change,,90,0,3,,,,,,,,64,0,0,,,
1064,control_change,,6,0,3,,,,,,,,64,127,0,,,
1080,note_on,,24,0,1,,,,,,,,,,0,,63,0
1104,set_tempo,952380,48,1,0,,,,,,,,,,,,,
1104,note_on,,48,0,2,,,,,,,,,,0,,61,0
1104,note_on,,0,0,2,,,,,,,,,,0,,55,0
1104,note_on,,24,0,1,,,,,,,,,,0,,63,60
1104,note_on,,0,0,2,,,,,,,,,,0,,51,34
1106,control_change,,42,0,3,,,,,,,,64,0,0,,,
1112,control_change,,6,0,3,,,,,,,,64,127,0,,,
1128,note_on,,24,0,1,,,,,,,,,,0,,63,0
1146,note_on,,42,0,2,,,,,,,,,,0,,51,0
1150,control_change,,38,0,3,,,,,,,,64,0,0,,,
1152,note_on,,6,0,2,,,,,,,,,,0,,44,44
1152,control_change,,2,0,3,,,,,,,,64,0,0,,,
1152,note_on,,24,0,1,,,,,,,,,,0,,63,60
1152,set_tempo,923076,48,1,0,,,,,,,,,,,,,
1160,control_change,,8,0,3,,,,,,,,64,127,0,,,
1176,note_on,,24,0,2,,,,,,,,,,0,,44,0
1176,note_on,,24,0,1,,,,,,,,,,0,,63,0
1200,note_on,,0,0,2,,,,,,,,,,0,,56,35
1200,note_on,,24,0,2,,,,,,,,,,0,,51,30
1200,note_on,,24,0,1,,,,,,,,,,0,,78,74
1200,set_tempo,952380,48,1,0,,,,,,,,,,,,,
1200,note_on,,0,0,2,,,,,,,,,,0,,59,40
1202,control_change,,42,0,3,,,,,,,,64,0,0,,,
1208,control_change,,6,0,3,,,,,,,,64,127,0,,,
1248,set_tempo,869565,48,1,0,,,,,,,,,,,,,
1248,note_on,,0,0,2,,,,,,,,,,0,,47,46
1248,note_on,,0,0,2,,,,,,,,,,0,,51,0
1248,note_on,,0,0,2,,,,,,,,,,0,,56,0
1248,note_on,,48,0,2,,,,,,,,,,0,,59,0
1250,control_change,,42,0,3,,,,,,,,64,0,0,,,
1256,control_change,,6,0,3,,,,,,,,64,127,0,,,
1272,note_on,,0,0,1,,,,,,,,,,0,,75,62
1272,note_on,,24,0,2,,,,,,,,,,0,,47,0
1272,note_on,,72,0,1,,,,,,,,,,0,,78,0
1272,set_tempo,845070,24,1,0,,,,,,,,,,,,,
1296,note_on,,24,0,2,,,,,,,,,,0,,51,34
1296,set_tempo,821917,24,1,0,,,,,,,,,,,,,
1296,note_on,,24,0,1,,,,,,,,,,0,,75,0
1296,note_on,,0,0,1,,,,,,,,,,0,,66,60
1296,note_on,,0,0,2,,,,,,,,,,0,,63,42
1296,note_on,,0,0,2,,,,,,,,,,0,,56,38
1298,control_change,,42,0,3,,,,,,,,64,0,0,,,
1304,control_change,,6,0,3,,,,,,,,64,127,0,,,
1320,note_on,,24,0,1,,,,,,,,,,0,,66,0
1320,note_on,,0,0,1,,,,,,,,,,0,,68,58
1320,set_tempo,1000000,24,1,0,,,,,,,,,,,,,
1338,note_on,,42,0,2,,,,,,,,,,0,,51,0
1344,note_on,,6,0,2,,,,,,,,,,0,,49,47
1344,note_on,,24,0,1,,,,,,,,,,0,,68,0
1344,control_change,,40,0,3,,,,,,,,64,127,0,,,
1344,set_tempo,845070,24,1,0,,,,,,,,,,,,,
1344,note_on,,0,0,1,,,,,,,,,,0,,70,57
1346,control_change,,2,0,3,,,,,,,,64,0,0,,,
1352,control_change,,6,0,3,,,,,,,,64,127,0,,,
1368,note_on,,24,0,1,,,,,,,,,,0,,70,0
1386,note_on,,0,0,2,,,,,,,,,,0,,56,0
1386,note_on,,42,0,2,,,,,,,,,,0,,63,0
1392,note_on,,24,0,1,,,,,,,,,,0,,71,54
1392,set_tempo,983606,48,1,0,,,,,,,,,,,,,
1392,note_on,,6,0,2,,,,,,,,,,0,,54,29
1392,note_on,,0,0,2,,,,,,,,,,0,,63,42
1394,control_change,,42,0,3,,,,,,,,64,0,0,,,
1400,control_change,,6,0,3,,,,,,,,64,127,0,,,
1428,note_on,,0,0,1,,,,,,,,,,0,,70,52
1428,control_change,,28,0,3,,,,,,,,64,0,0,,,
1428,set_tempo,1000000,36,1,0,,,,,,,,,,,,,
1428,note_on,,36,0,1,,,,,,,,,,0,,71,0
1428,note_on,,36,0,2,,,,,,,,,,0,,63,0
1440,set_tempo,2000000,12,1,0,,,,,,,,,,,,,
1440,note_on,,12,0,1,,,,,,,,,,0,,70,0
1440,note_on,,12,0,2,,,,,,,,,,0,,60,40
1440,note_on,,0,0,1,,,,,,,,,,0,,68,48
1442,control_change,,14,0,3,,,,,,,,64,127,0,,,
1444,note_on,,4,0,1,,,,,,,,,,0,,70,42
1444,set_tempo,1250000,4,1,0,,,,,,,,,,,,,
1445,note_on,,1,0,1,,,,,,,,,,0,,68,0
1448,note_on,,3,0,1,,,,,,,,,,0,,68,43
1448,set_tempo,1153846,4,1,0,,,,,,,,,,,,,
1449,note_on,,1,0,1,,,,,,,,,,0,,70,0
1452,note_on,,3,0,1,,,,,,,,,,0,,70,48
1452,set_tempo,1111111,4,1,0,,,,,,,,,,,,,
1453,note_on,,1,0,1,,,,,,,,,,0,,68,0
1456,note_on,,3,0,1,,,,,,,,,,0,,68,46
1456,set_tempo,1071428,4,1,0,,,,,,,,,,,,,
1457,note_on,,1,0,1,,,,,,,,,,0,,70,0
1460,note_on,,3,0,1,,,,,,,,,,0,,70,43
1460,set_tempo,869565,4,1,0,,,,,,,,,,,,,
1461,note_on,,1,0,1,,,,,,,,,,0,,68,0
1464,set_tempo,845070,4,1,0,,,,,,,,,,,,,
1464,note_on,,3,0,1,,,,,,,,,,0,,68,42
1465,note_on,,1,0,1,,,,,,,,,,0,,70,0
1472,set_tempo,750000,8,1,0,,,,,,,,,,,,,
1472,note_on,,7,0,1,,,,,,,,,,0,,68,0
1472,note_on,,0,0,1,,,,,,,,,,0,,67,45
1476,note_on,,36,0,2,,,,,,,,,,0,,60,0
1480,set_tempo,1395348,8,1,0,,,,,,,,,,,,,
1480,note_on,,0,0,1,,,,,,,,,,0,,68,50
1480,note_on,,8,0,1,,,,,,,,,,0,,67,0
1482,note_on,,6,0,2,,,,,,,,,,0,,54,0
1488,note_on,,8,0,1,,,,,,,,,,0,,68,0
1488,set_tempo,952380,8,1,0,,,,,,,,,,,,,
1488,note_on,,6,0,2,,,,,,,,,,0,,53,38
1488,note_on,,0,0,2,,,,,,,,,,0,,61,43
1488,note_on,,0,0,1,,,,,,,,,,0,,70,50
1490,control_change,,48,0,3,,,,,,,,64,0,0,,,
1496,control_change,,6,0,3,,,,,,,,64,127,0,,,
1512,set_tempo,1071428,24,1,0,,,,,,,,,,,,,
1512,note_on,,24,0,1,,,,,,,,,,0,,70,0
1512,note_on,,0,0,2,,,,,,,,,,0,,49,0
1512,note_on,,0,0,2,,,,,,,,,,0,,53,0
1512,note_on,,24,0,2,,,,,,,,,,0,,61,0
1514,control_change,,18,0,3,,,,,,,,64,0,0,,,
1524,set_tempo,1333333,12,1,0,,,,,,,,,,,,,
1524,note_on,,0,0,2,,,,,,,,,,0,,59,40
1524,note_on,,12,0,1,,,,,,,,,,0,,68,52
1524,note_on,,12,0,2,,,,,,,,,,0,,50,35
1530,control_change,,16,0,3,,,,,,,,64,127,0,,,
1532,note_on,,0,0,2,,,,,,,,,,0,,50,0
1532,note_on,,8,0,2,,,,,,,,,,0,,59,0
1536,set_tempo,1071428,12,1,0,,,,,,,,,,,,,
1536,note_on,,0,0,2,,,,,,,,,,0,,58,38
1536,note_on,,12,0,1,,,,,,,,,,0,,68,0
1536,note_on,,4,0,2,,,,,,,,,,0,,51,32
1536,control_change,,6,0,3,,,,,,,,64,127,0,,,
1536,note_on,,0,0,1,,,,,,,,,,0,,66,52
1536,note_on,,0,0,2,,,,,,,,,,0,,54,34
1538,control_change,,2,0,3,,,,,,,,64,0,0,,,
1544,control_change,,6,0,3,,,,,,,,64,127,0,,,
1572,note_on,,0,0,2,,,,,,,,,,0,,51,0
1572,note_on,,36,0,2,,,,,,,,,,0,,58,0
1584,note_on,,12,0,2,,,,,,,,,,0,,48,26
1584,note_on,,0,0,2,,,,,,,,,,0,,57,30
1584,note_on,,48,0,1,,,,,,,,,,0,,66,0
1584,note_on,,0,0,1,,,,,,,,,,0,,65,50
1586,control_change,,42,0,3,,,,,,,,64,0,0,,,
1592,control_change,,6,0,3,,,,,,,,64,127,0,,,
1620,note_on,,0,0,1,,,,,,,,,,0,,63,42
1620,note_on,,36,0,1,,,,,,,,,,0,,65,0
1620,note_on,,0,0,2,,,,,,,,,,0,,54,0
1620,set_tempo,1714285,84,1,0,,,,,,,,,,,,,
1620,note_on,,0,0,2,,,,,,,,,,0,,48,0
1620,note_on,,36,0,2,,,,,,,,,,0,,57,0
1632,note_on,,0,0,1,,,,,,,,,,0,,61,40
1632,note_on,,0,0,1,,,,,,,,,,0,,56,28
1632,note_on,,12,0,1,,,,,,,,,,0,,63,0
1632,set_tempo,1538461,12,1,0,,,,,,,,,,,,,
1632,note_on,,0,0,2,,,,,,,,,,0,,53,26
1632,note_on,,12,0,2,,,,,,,,,,0,,49,22
1634,control_change,,42,0,3,,,,,,,,64,0,0,,,
1640,control_change,,6,0,3,,,,,,,,64,127,0,,,
1656,note_on,,0,0,1,,,,,,,,,,0,,56,0
1656,note_on,,24,0,1,,,,,,,,,,0,,61,0
1656,note_on,,24,0,2,,,,,,,,,,0,,53,0
1656,note_on,,0,0,2,,,,,,,,,,0,,49,0
1668,note_on,,12,0,2,,,,,,,,,,0,,42,42
1668,set_tempo,3000000,36,1,0,,,,,,,,,,,,,
1670,control_change,,30,0,3,,,,,,,,64,0,0,,,
1672,note_on,,4,0,2,,,,,,,,,,0,,49,40
1672,set_tempo,1538461,4,1,0,,,,,,,,,,,,,
1676,control_change,,6,0,3,,,,,,,,64,127,0,,,
1676,set_tempo,1621621,4,1,0,,,,,,,,,,,,,
1676,note_on,,4,0,2,,,,,,,,,,0,,54,38
1680,set_tempo,1153846,4,1,0,,,,,,,,,,,,,
1680,note_on,,24,0,1,,,,,,,,,,0,,58,40
1684,set_tempo,1111111,4,1,0,,,,,,,,,,,,,
1684,note_on,,0,0,1,,,,,,,,,,0,,61,42
1684,note_on,,4,0,1,,,,,,,,,,0,,58,0
1688,note_on,,4,0,1,,,,,,,,,,0,,61,0
1688,note_on,,0,0,1,,,,,,,,,,0,,66,44
1688,set_tempo,1621621,4,1,0,,,,,,,,,,,,,
1692,note_on,,4,0,1,,,,,,,,,,0,,66,0
1692,note_on,,0,0,1,,,,,,,,,,0,,70,54
1692,set_tempo,2500000,4,1,0,,,,,,,,,,,,,
1712,note_on,,0,0,2,,,,,,,,,,0,,49,0
1712,note_on,,36,0,2,,,,,,,,,,0,,54,0
1712,note_on,,0,0,2,,,,,,,,,,0,,42,0
1716,control_change,,40,0,3,,,,,,,,64,0,0,,,
1716,set_tempo,1538461,24,1,0,,,,,,,,,,,,,
1716,note_on,,0,0,1,,,,,,,,,,0,,71,44
1716,note_on,,24,0,1,,,,,,,,,,0,,70,0
1728,note_on,,0,0,1,,,,,,,,,,0,,59,31
1728,note_on,,12,0,1,,,,,,,,,,0,,71,0
1728,control_change,,12,0,3,,,,,,,,64,0,0,,,
1732,set_tempo,2000000,16,1,0,,,,,,,,,,,,,
1732,note_on,,4,0,1,,,,,,,,,,0,,59,0
1732,note_on,,0,0,1,,,,,,,,,,0,,65,39
1736,set_tempo,1818181,4,1,0,,,,,,,,,,,,,
1736,note_on,,4,0,1,,,,,,,,,,0,,65,0
1736,note_on,,24,0,2,,,,,,,,,,0,,37,27
1736,note_on,,0,0,1,,,,,,,,,,0,,70,48
1736,control_change,,8,0,3,,,,,,,,64,127,0,,,
1752,note_on,,0,0,1,,,,,,,,,,0,,68,44
1752,note_on,,16,0,1,,,,,,,,,,0,,70,0
1752,set_tempo,750000,16,1,0,,,,,,,,,,,,,
1776,note_on,,0,0,2,,,,,,,,,,0,,49,27
1776,note_on,,40,0,2,,,,,,,,,,0,,37,0
1776,note_on,,24,0,1,,,,,,,,,,0,,68,0
1776,set_tempo,983606,24,1,0,,,,,,,,,,,,,
1776,note_on,,0,0,1,,,,,,,,,,0,,65,43
1800,set_tempo,800000,24,1,0,,,,,,,,,,,,,
1800,note_on,,0,0,1,,,,,,,,,,0,,61,41
1800,note_on,,24,0,1,,,,,,,,,,0,,65,0
1816,note_on,,16,0,1,,,,,,,,,,0,,61,0
1824,set_tempo,923076,24,1,0,,,,,,,,,,,,,
1824,note_on,,8,0,1,,,,,,,,,,0,,61,40
1824,note_on,,0,0,2,,,,,,,,,,0,,59,25
1824,note_on,,0,0,2,,,,,,,,,,0,,53,19
1824,note_on,,48,0,2,,,,,,,,,,0,,49,0
1826,control_change,,90,0,3,,,,,,,,64,0,0,,,
1832,control_change,,6,0,3,,,,,,,,64,127,0,,,
1848,note_on,,24,0,1,,,,,,,,,,0,,61,0
1872,note_on,,48,0,2,,,,,,,,,,0,,59,0
1872,set_tempo,1111111,48,1,0,,,,,,,,,,,,,
1872,note_on,,24,0,1,,,,,,,,,,0,,61,42
1872,note_on,,0,0,2,,,,,,,,,,0,,49,24
1872,note_on,,0,0,2,,,,,,,,,,0,,53,0
1874,control_change,,42,0,3,,,,,,,,64,0,0,,,
1880,control_change,,6,0,3,,,,,,,,64,127,0,,,
1896,note_on,,24,0,1,,,,,,,,,,0,,61,0
1920,note_on,,24,0,1,,,,,,,,,,0,,61,45
1920,control_change,,40,0,3,,,,,,,,64,0,0,,,
1920,note_on,,48,0,2,,,,,,,,,,0,,49,0
1920,note_on,,0,0,2,,,,,,,,,,0,,42,22
1920,set_tempo,1000000,48,1,0,,,,,,,,,,,,,
1928,control_change,,8,0,3,,,,,,,,64,127,0,,,
1968,note_on,,48,0,2,,,,,,,,,,0,,42,0
1968,note_on,,0,0,2,,,,,,,,,,0,,49,23
1968,set_tempo,714285,48,1,0,,,,,,,,,,,,,
1980,note_on,,60,0,1,,,,,,,,,,0,,61,0
1980,note_on,,0,0,1,,,,,,,,,,0,,66,40
1980,set_tempo,845070,12,1,0,,,,,,,,,,,,,
1992,note_on,,0,0,1,,,,,,,,,,0,,70,46
1992,note_on,,12,0,1,,,,,,,,,,0,,66,0
1992,set_tempo,869565,12,1,0,,,,,,,,,,,,,
2004,set_tempo,1034482,12,1,0,,,,,,,,,,,,,
2004,note_on,,0,0,1,,,,,,,,,,0,,75,39
2004,note_on,,12,0,1,,,,,,,,,,0,,70,0
2016,note_on,,0,0,1,,,,,,,,,,0,,73,44
2016,note_on,,12,0,1,,,,,,,,,,0,,75,0
2016,set_tempo,923076,12,1,0,,,,,,,,,,,,,
2016,note_on,,48,0,2,,,,,,,,,,0,,49,0
2016,note_on,,0,0,2,,,,,,,,,,0,,54,18
2016,note_on,,0,0,2,,,,,,,,,,0,,58,26
2018,control_change,,90,0,3,,,,,,,,64,0,0,,,
2024,control_change,,6,0,3,,,,,,,,64,127,0,,,
2040,note_on,,24,0,1,,,,,,,,,,0,,73,0
2060,control_change,,36,0,3,,,,,,,,64,0,0,,,
2064,note_on,,48,0,2,,,,,,,,,,0,,58,0
2064,note_on,,24,0,1,,,,,,,,,,0,,70,37
2064,note_on,,0,0,2,,,,,,,,,,0,,49,37
2064,set_tempo,1333333,48,1,0,,,,,,,,,,,,,
2064,note_on,,0,0,2,,,,,,,,,,0,,54,0
2071,note_on,,7,0,1,,,,,,,,,,0,,70,0
2071,note_on,,0,0,1,,,,,,,,,,0,,71,40
2071,set_tempo,952380,7,1,0,,,,,,,,,,,,,
2078,note_on,,7,0,1,,,,,,,,,,0,,71,0
2078,note_on,,0,0,1,,,,,,,,,,0,,70,44
2078,set_tempo,714285,7,1,0,,,,,,,,,,,,,
2085,set_tempo,845070,7,1,0,,,,,,,,,,,,,
2085,note_on,,7,0,1,,,,,,,,,,0,,70,0
2085,note_on,,0,0,1,,,,,,,,,,0,,69,46
2091,set_tempo,789473,6,1,0,,,,,,,,,,,,,
2091,note_on,,0,0,1,,,,,,,,,,0,,70,42
2091,note_on,,6,0,1,,,,,,,,,,0,,69,0
2098,note_on,,7,0,1,,,,,,,,,,0,,70,0
2098,set_tempo,1153846,7,1,0,,,,,,,,,,,,,
2098,note_on,,0,0,1,,,,,,,,,,0,,73,38
2105,set_tempo,1304347,7,1,0,,,,,,,,,,,,,
2105,note_on,,0,0,1,,,,,,,,,,0,,72,36
2105,note_on,,7,0,1,,,,,,,,,,0,,73,0
2112,set_tempo,1333333,7,1,0,,,,,,,,,,,,,
2112,note_on,,48,0,2,,,,,,,,,,0,,49,0
2112,control_change,,52,0,3,,,,,,,,64,0,0,,,
2112,note_on,,7,0,1,,,,,,,,,,0,,72,0
2112,note_on,,0,0,1,,,,,,,,,,0,,71,34
2112,note_on,,0,0,2,,,,,,,,,,0,,42,35
2118,set_tempo,1200000,6,1,0,,,,,,,,,,,,,
2118,note_on,,6,0,1,,,,,,,,,,0,,71,0
2118,note_on,,0,0,1,,,,,,,,,,0,,70,38
2120,control_change,,8,0,3,,,,,,,,64,127,0,,,
2124,note_on,,6,0,1,,,,,,,,,,0,,70,0
2124,set_tempo,923076,6,1,0,,,,,,,,,,,,,
2124,note_on,,0,0,1,,,,,,,,,,0,,71,40
2130,set_tempo,845070,6,1,0,,,,,,,,,,,,,
2130,note_on,,0,0,1,,,,,,,,,,0,,70,38
2130,note_on,,6,0,1,,,,,,,,,,0,,71,0
2136,set_tempo,750000,6,1,0,,,,,,,,,,,,,
2136,note_on,,6,0,1,,,,,,,,,,0,,70,0
2136,note_on,,0,0,1,,,,,,,,,,0,,69,44
2142,note_on,,0,0,1,,,,,,,,,,0,,68,42
2142,note_on,,6,0,1,,,,,,,,,,0,,69,0
2148,set_tempo,666666,12,1,0,,,,,,,,,,,,,
2148,note_on,,6,0,1,,,,,,,,,,0,,68,0
2148,note_on,,0,0,1,,,,,,,,,,0,,69,45
2154,note_on,,6,0,1,,,,,,,,,,0,,69,0
2154,note_on,,0,0,1,,,,,,,,,,0,,68,43
2158,note_on,,0,0,2,,,,,,,,,,0,,50,38
2158,note_on,,46,0,2,,,,,,,,,,0,,42,0
2160,note_on,,6,0,1,,,,,,,,,,0,,68,0
2160,note_on,,0,0,1,,,,,,,,,,0,,69,45
2160,control_change,,40,0,3,,,,,,,,64,0,0,,,
2160,set_tempo,645161,12,1,0,,,,,,,,,,,,,
2166,control_change,,6,0,3,,,,,,,,64,127,0,,,
2167,note_on,,7,0,1,,,,,,,,,,0,,69,0
2167,note_on,,0,0,1,,,,,,,,,,0,,68,46
2174,note_on,,0,0,1,,,,,,,,,,0,,67,40
2174,note_on,,7,0,1,,,,,,,,,,0,,68,0
2181,set_tempo,750000,21,1,0,,,,,,,,,,,,,
2181,note_on,,0,0,1,,,,,,,,,,0,,66,42
2181,note_on,,7,0,1,,,,,,,,,,0,,67,0
2187,note_on,,0,0,1,,,,,,,,,,0,,67,40
2187,note_on,,6,0,1,,,,,,,,,,0,,66,0
2187,set_tempo,645161,6,1,0,,,,,,,,,,,,,
2194,note_on,,0,0,1,,,,,,,,,,0,,66,42
2194,note_on,,7,0,1,,,,,,,,,,0,,67,0
2194,set_tempo,659340,7,1,0,,,,,,,,,,,,,
2201,note_on,,7,0,1,,,,,,,,,,0,,66,0
2201,set_tempo,666666,7,1,0,,,,,,,,,,,,,
2201,note_on,,0,0,1,,,,,,,,,,0,,67,40
2208,set_tempo,1621621,7,1,0,,,,,,,,,,,,,
2208,note_on,,7,0,1,,,,,,,,,,0,,67,0
2208,note_on,,0,0,1,,,,,,,,,,0,,66,38
2210,note_on,,0,0,2,,,,,,,,,,0,,59,40
2210,note_on,,0,0,2,,,,,,,,,,0,,56,35
2210,note_on,,52,0,2,,,,,,,,,,0,,50,0
2212,control_change,,46,0,3,,,,,,,,64,0,0,,,
2213,set_tempo,895522,5,1,0,,,,,,,,,,,,,
2213,note_on,,0,0,1,,,,,,,,,,0,,65,48
2213,note_on,,5,0,1,,,,,,,,,,0,,66,0
2218,control_change,,6,0,3,,,,,,,,64,127,0,,,
2218,note_on,,0,0,1,,,,,,,,,,0,,64,44
2218,note_on,,5,0,1,,,,,,,,,,0,,65,0
2223,note_on,,0,0,1,,,,,,,,,,0,,65,46
2223,note_on,,5,0,1,,,,,,,,,,0,,64,0
2228,note_on,,0,0,1,,,,,,,,,,0,,66,48
2228,note_on,,5,0,1,,,,,,,,,,0,,65,0
2228,set_tempo,1000000,15,1,0,,,,,,,,,,,,,
2233,note_on,,5,0,1,,,,,,,,,,0,,66,0
2233,note_on,,0,0,1,,,,,,,,,,0,,65,45
2238,set_tempo,923076,10,1,0,,,,,,,,,,,,,
2238,note_on,,0,0,1,,,,,,,,,,0,,63,42
2238,note_on,,5,0,1,,,,,,,,,,0,,65,0
2244,set_tempo,1000000,6,1,0,,,,,,,,,,,,,
2244,note_on,,0,0,1,,,,,,,,,,0,,65,43
2244,note_on,,6,0,1,,,,,,,,,,0,,63,0
2250,set_tempo,1071428,6,1,0,,,,,,,,,,,,,
2250,note_on,,0,0,1,,,,,,,,,,0,,66,41
2250,note_on,,6,0,1,,,,,,,,,,0,,65,0
2256,note_on,,6,0,1,,,,,,,,,,0,,66,0
2256,note_on,,0,0,1,,,,,,,,,,0,,70,45
2258,note_on,,48,0,2,,,,,,,,,,0,,59,0
2258,control_change,,40,0,3,,,,,,,,64,0,0,,,
2258,note_on,,0,0,2,,,,,,,,,,0,,49,35
2258,note_on,,0,0,2,,,,,,,,,,0,,56,0
2263,note_on,,7,0,1,,,,,,,,,,0,,70,0
2263,note_on,,0,0,1,,,,,,,,,,0,,68,48
2263,set_tempo,869565,13,1,0,,,,,,,,,,,,,
2270,note_on,,7,0,1,,,,,,,,,,0,,68,0
2270,set_tempo,789473,7,1,0,,,,,,,,,,,,,
2270,note_on,,0,0,1,,,,,,,,,,0,,65,46
2277,note_on,,7,0,1,,,,,,,,,,0,,65,0
2277,note_on,,0,0,1,,,,,,,,,,0,,66,44
2284,set_tempo,1250000,14,1,0,,,,,,,,,,,,,
2284,note_on,,7,0,1,,,,,,,,,,0,,66,0
2284,note_on,,0,0,1,,,,,,,,,,0,,63,46
2291,set_tempo,2727272,7,1,0,,,,,,,,,,,,,
2291,note_on,,7,0,1,,,,,,,,,,0,,63,0
2291,note_on,,0,0,1,,,,,,,,,,0,,68,48
2295,note_on,,4,0,1,,,,,,,,,,0,,68,0
2298,set_tempo,1818181,7,1,0,,,,,,,,,,,,,
2298,note_on,,3,0,1,,,,,,,,,,0,,68,48
2304,note_on,,0,0,2,,,,,,,,,,0,,42,40
2304,note_on,,46,0,2,,,,,,,,,,0,,49,0
2304,set_tempo,821917,6,1,0,,,,,,,,,,,,,
2304,note_on,,6,0,1,,,,,,,,,,0,,68,0
2304,note_on,,0,0,1,,,,,,,,,,0,,61,43
2304,control_change,,46,0,3,,,,,,,,64,0,0,,,
2312,control_change,,8,0,3,,,,,,,,64,127,0,,,
2352,set_tempo,845070,48,1,0,,,,,,,,,,,,,
2352,note_on,,0,0,2,,,,,,,,,,0,,49,42
2352,note_on,,48,0,2,,,,,,,,,,0,,42,0
2354,control_change,,42,0,3,,,,,,,,64,0,0,,,
2360,control_change,,6,0,3,,,,,,,,64,127,0,,,
2361,set_tempo,731707,9,1,0,,,,,,,,,,,,,
2361,note_on,,0,0,1,,,,,,,,,,0,,66,47
2361,note_on,,57,0,1,,,,,,,,,,0,,61,0
2370,note_on,,9,0,1,,,,,,,,,,0,,66,0
2370,note_on,,0,0,1,,,,,,,,,,0,,70,53
2370,set_tempo,714285,9,1,0,,,,,,,,,,,,,
2379,note_on,,9,0,1,,,,,,,,,,0,,70,0
2379,note_on,,0,0,1,,,,,,,,,,0,,78,67
2379,set_tempo,2142857,9,1,0,,,,,,,,,,,,,
2384,control_change,,24,0,3,,,,,,,,64,0,0,,,
2388,note_on,,9,0,1,,,,,,,,,,0,,78,0
2388,note_on,,36,0,2,,,,,,,,,,0,,49,0
2388,set_tempo,2307692,9,1,0,,,,,,,,,,,,,
2394,note_on,,6,0,1,,,,,,,,,,0,,75,62
2394,set_tempo,2142857,6,1,0,,,,,,,,,,,,,
2400,note_on,,6,0,1,,,,,,,,,,0,,75,0
2400,note_on,,0,0,2,,,,,,,,,,0,,61,32
2400,set_tempo,869565,6,1,0,,,,,,,,,,,,,
2400,note_on,,12,0,2,,,,,,,,,,0,,54,26
2400,note_on,,0,0,2,,,,,,,,,,0,,58,30
2400,note_on,,0,0,1,,,,,,,,,,0,,73,55
2404,control_change,,20,0,3,,,,,,,,64,127,0,,,
2436,note_on,,36,0,1,,,,,,,,,,0,,73,0
2448,note_on,,0,0,2,,,,,,,,,,0,,54,0
2448,control_change,,44,0,3,,,,,,,,64,0,0,,,
2448,note_on,,0,0,2,,,,,,,,,,0,,58,0
2448,set_tempo,1818181,48,1,0,,,,,,,,,,,,,
2448,note_on,,48,0,2,,,,,,,,,,0,,61,0
2448,note_on,,12,0,1,,,,,,,,,,0,,69,63
2456,note_on,,8,0,1,,,,,,,,,,0,,69,0
2456,note_on,,0,0,1,,,,,,,,,,0,,70,65
2456,set_tempo,1153846,8,1,0,,,,,,,,,,,,,
2464,set_tempo,1071428,8,1,0,,,,,,,,,,,,,
2464,note_on,,8,0,1,,,,,,,,,,0,,70,0
2464,note_on,,0,0,1,,,,,,,,,,0,,71,73
2472,note_on,,8,0,1,,,,,,,,,,0,,71,0
2472,note_on,,0,0,1,,,,,,,,,,0,,70,70
2472,set_tempo,1200000,8,1,0,,,,,,,,,,,,,
2480,note_on,,0,0,1,,,,,,,,,,0,,76,70
2480,note_on,,8,0,1,,,,,,,,,,0,,70,0
2480,set_tempo,1935483,8,1,0,,,,,,,,,,,,,
2488,note_on,,8,0,1,,,,,,,,,,0,,76,0
2488,note_on,,0,0,1,,,,,,,,,,0,,75,70
2488,set_tempo,1818181,8,1,0,,,,,,,,,,,,,
2496,note_on,,8,0,1,,,,,,,,,,0,,75,0
2496,note_on,,0,0,1,,,,,,,,,,0,,74,67
2496,control_change,,48,0,3,,,,,,,,64,0,0,,,
2496,note_on,,48,0,2,,,,,,,,,,0,,39,41
2496,set_tempo,869565,8,1,0,,,,,,,,,,,,,
2504,control_change,,8,0,3,,,,,,,,64,127,0,,,
2508,note_on,,12,0,1,,,,,,,,,,0,,74,0
2520,set_tempo,566037,24,1,0,,,,,,,,,,,,,
2520,note_on,,12,0,1,,,,,,,,,,0,,73,66
2532,note_on,,12,0,1,,,,,,,,,,0,,73,0
2544,set_tempo,714285,24,1,0,,,,,,,,,,,,,
2544,note_on,,12,0,1,,,,,,,,,,0,,70,62
2544,note_on,,0,0,2,,,,,,,,,,0,,51,43
2544,note_on,,48,0,2,,,,,,,,,,0,,39,0
2552,note_on,,8,0,1,,,,,,,,,,0,,70,0
2560,set_tempo,594059,16,1,0,,,,,,,,,,,,,
2560,note_on,,8,0,1,,,,,,,,,,0,,67,60
2568,note_on,,8,0,1,,,,,,,,,,0,,67,0
2576,note_on,,8,0,1,,,,,,,,,,0,,70,61
2576,set_tempo,681818,16,1,0,,,,,,,,,,,,,
2584,note_on,,8,0,1,,,,,,,,,,0,,70,0
2592,note_on,,48,0,2,,,,,,,,,,0,,51,0
2592,note_on,,0,0,2,,,,,,,,,,0,,61,40
2592,note_on,,0,0,2,,,,,,,,,,0,,55,40
2592,set_tempo,714285,16,1,0,,,,,,,,,,,,,
2592,note_on,,8,0,1,,,,,,,,,,0,,64,60
2594,control_change,,90,0,3,,,,,,,,64,0,0,,,
2600,control_change,,6,0,3,,,,,,,,64,127,0,,,
2628,set_tempo,983606,36,1,0,,,,,,,,,,,,,
2628,note_on,,36,0,1,,,,,,,,,,0,,64,0
2628,note_on,,0,0,1,,,,,,,,,,0,,63,65
2636,note_on,,8,0,1,,,,,,,,,,0,,63,0
2640,set_tempo,1071428,12,1,0,,,,,,,,,,,,,
2640,note_on,,4,0,1,,,,,,,,,,0,,63,60
2640,note_on,,48,0,2,,,,,,,,,,0,,61,0
2640,note_on,,0,0,2,,,,,,,,,,0,,55,0
2640,note_on,,0,0,2,,,,,,,,,,0,,51,50
2642,control_change,,42,0,3,,,,,,,,64,0,0,,,
2648,set_tempo,750000,8,1,0,,,,,,,,,,,,,
2648,note_on,,8,0,1,,,,,,,,,,0,,63,0
2648,note_on,,0,0,1,,,,,,,,,,0,,62,74
2648,control_change,,6,0,3,,,,,,,,64,127,0,,,
2656,note_on,,8,0,1,,,,,,,,,,0,,62,0
2656,note_on,,0,0,1,,,,,,,,,,0,,63,69
2656,set_tempo,869565,8,1,0,,,,,,,,,,,,,
2664,note_on,,8,0,1,,,,,,,,,,0,,63,0
2664,note_on,,0,0,1,,,,,,,,,,0,,66,51
2664,set_tempo,750000,8,1,0,,,,,,,,,,,,,
2672,note_on,,8,0,1,,,,,,,,,,0,,66,0
2672,note_on,,0,0,1,,,,,,,,,,0,,64,62
2672,set_tempo,821917,8,1,0,,,,,,,,,,,,,
2680,set_tempo,1000000,8,1,0,,,,,,,,,,,,,
2680,note_on,,0,0,1,,,,,,,,,,0,,63,72
2680,note_on,,8,0,1,,,,,,,,,,0,,64,0
2684,note_on,,4,0,1,,,,,,,,,,0,,63,0
2688,note_on,,4,0,1,,,,,,,,,,0,,63,70
2688,set_tempo,1034482,8,1,0,,,,,,,,,,,,,
2688,note_on,,48,0,2,,,,,,,,,,0,,51,0
2688,note_on,,0,0,2,,,,,,,,,,0,,44,64
2688,control_change,,40,0,3,,,,,,,,64,127,0,,,
2689,control_change,,1,0,3,,,,,,,,64,0,0,,,
2692,control_change,,3,0,3,,,,,,,,64,127,0,,,
2696,note_on,,8,0,1,,,,,,,,,,0,,63,0
2704,set_tempo,789473,16,1,0,,,,,,,,,,,,,
2704,note_on,,8,0,1,,,,,,,,,,0,,78,76
2712,note_on,,24,0,2,,,,,,,,,,0,,44,0
2712,note_on,,8,0,1,,,,,,,,,,0,,78,0
2720,note_on,,8,0,1,,,,,,,,,,0,,75,80
2720,set_tempo,1250000,16,1,0,,,,,,,,,,,,,
2728,note_on,,8,0,1,,,,,,,,,,0,,75,0
2736,set_tempo,895522,16,1,0,,,,,,,,,,,,,
2736,note_on,,0,0,2,,,,,,,,,,0,,59,55
2736,note_on,,24,0,2,,,,,,,,,,0,,51,45
2736,note_on,,8,0,1,,,,,,,,,,0,,90,86
2736,note_on,,0,0,2,,,,,,,,,,0,,56,50
2738,control_change,,46,0,3,,,,,,,,64,0,0,,,
2744,control_change,,6,0,3,,,,,,,,64,127,0,,,
2760,note_on,,0,0,2,,,,,,,,,,0,,51,0
2760,note_on,,0,0,2,,,,,,,,,,0,,56,0
2760,note_on,,24,0,2,,,,,,,,,,0,,59,0
2784,set_tempo,1538461,48,1,0,,,,,,,,,,,,,
2784,note_on,,0,0,2,,,,,,,,,,0,,63,60
2784,note_on,,0,0,2,,,,,,,,,,0,,59,53
2784,note_on,,0,0,2,,,,,,,,,,0,,56,45
2784,note_on,,24,0,2,,,,,,,,,,0,,54,45
2786,control_change,,42,0,3,,,,,,,,64,0,0,,,
2792,control_change,,6,0,3,,,,,,,,64,127,0,,,
2796,note_on,,60,0,1,,,,,,,,,,0,,90,0
2796,set_tempo,1250000,12,1,0,,,,,,,,,,,,,
2796,note_on,,0,0,1,,,,,,,,,,0,,87,70
2808,set_tempo,845070,12,1,0,,,,,,,,,,,,,
2808,note_on,,0,0,1,,,,,,,,,,0,,83,67
2808,note_on,,0,0,2,,,,,,,,,,0,,54,0
2808,note_on,,0,0,2,,,,,,,,,,0,,56,0
2808,note_on,,12,0,1,,,,,,,,,,0,,87,0
2808,note_on,,24,0,2,,,,,,,,,,0,,63,0
2808,note_on,,0,0,2,,,,,,,,,,0,,59,0
2820,set_tempo,666666,12,1,0,,,,,,,,,,,,,
2820,note_on,,12,0,1,,,,,,,,,,0,,83,0
2820,note_on,,0,0,1,,,,,,,,,,0,,80,64
2832,note_on,,0,0,2,,,,,,,,,,0,,59,36
2832,note_on,,24,0,2,,,,,,,,,,0,,56,32
2832,note_on,,0,0,2,,,,,,,,,,0,,66,44
2832,note_on,,0,0,1,,,,,,,,,,0,,78,61
2832,note_on,,12,0,1,,,,,,,,,,0,,80,0
2832,set_tempo,750000,12,1,0,,,,,,,,,,,,,
2832,note_on,,0,0,2,,,,,,,,,,0,,63,40
2834,control_change,,42,0,3,,,,,,,,64,0,0,,,
2840,control_change,,6,0,3,,,,,,,,64,127,0,,,
2844,note_on,,0,0,1,,,,,,,,,,0,,75,58
2844,note_on,,12,0,1,,,,,,,,,,0,,78,0
2844,set_tempo,714285,12,1,0,,,,,,,,,,,,,
2856,note_on,,0,0,2,,,,,,,,,,0,,59,0
2856,note_on,,0,0,2,,,,,,,,,,0,,56,0
2856,note_on,,12,0,1,,,,,,,,,,0,,75,0
2856,note_on,,0,0,1,,,,,,,,,,0,,71,55
2856,set_tempo,1250000,12,1,0,,,,,,,,,,,,,
2856,note_on,,24,0,2,,,,,,,,,,0,,66,0
2856,note_on,,0,0,2,,,,,,,,,,0,,63,0
2864,note_on,,8,0,1,,,,,,,,,,0,,71,0
2864,note_on,,0,0,1,,,,,,,,,,0,,66,53
2864,set_tempo,1538461,8,1,0,,,,,,,,,,,,,
2872,note_on,,0,0,1,,,,,,,,,,0,,68,55
2872,note_on,,8,0,1,,,,,,,,,,0,,66,0
2872,set_tempo,1935483,8,1,0,,,,,,,,,,,,,
2880,note_on,,0,0,2,,,,,,,,,,0,,49,50
2880,set_tempo,869565,8,1,0,,,,,,,,,,,,,
2880,note_on,,0,0,1,,,,,,,,,,0,,70,55
2880,note_on,,8,0,1,,,,,,,,,,0,,68,0
2880,control_change,,40,0,3,,,,,,,,64,127,0,,,
2880,note_on,,24,0,2,,,,,,,,,,0,,37,44
2882,control_change,,2,0,3,,,,,,,,64,0,0,,,
2888,control_change,,6,0,3,,,,,,,,64,127,0,,,
2904,note_on,,24,0,1,,,,,,,,,,0,,70,0
2904,note_on,,24,0,2,,,,,,,,,,0,,37,0
2928,set_tempo,845070,48,1,0,,,,,,,,,,,,,
2928,note_on,,0,0,2,,,,,,,,,,0,,63,38
2928,note_on,,24,0,1,,,,,,,,,,0,,71,52
2928,note_on,,24,0,2,,,,,,,,,,0,,54,32
2930,control_change,,42,0,3,,,,,,,,64,0,0,,,
2936,control_change,,6,0,3,,,,,,,,64,127,0,,,
2964,set_tempo,1153846,36,1,0,,,,,,,,,,,,,
2964,note_on,,36,0,2,,,,,,,,,,0,,63,0
2964,note_on,,0,0,1,,,,,,,,,,0,,70,48
2964,control_change,,28,0,3,,,,,,,,64,0,0,,,
2964,note_on,,36,0,1,,,,,,,,,,0,,71,0
2976,note_on,,12,0,1,,,,,,,,,,0,,70,0
2976,note_on,,0,0,1,,,,,,,,,,0,,68,40
2976,note_on,,12,0,2,,,,,,,,,,0,,60,34
2976,set_tempo,1395348,12,1,0,,,,,,,,,,,,,
2978,control_change,,14,0,3,,,,,,,,64,127,0,,,
2980,set_tempo,1250000,4,1,0,,,,,,,,,,,,,
2980,note_on,,4,0,1,,,,,,,,,,0,,70,32
2981,note_on,,1,0,1,,,,,,,,,,0,,68,0
2984,note_on,,3,0,1,,,,,,,,,,0,,68,40
2984,set_tempo,1153846,4,1,0,,,,,,,,,,,,,
2985,note_on,,1,0,1,,,,,,,,,,0,,70,0
2988,note_on,,3,0,1,,,,,,,,,,0,,70,38
2988,set_tempo,1000000,4,1,0,,,,,,,,,,,,,
2989,note_on,,1,0,1,,,,,,,,,,0,,68,0
2992,note_on,,3,0,1,,,,,,,,,,0,,68,41
2993,note_on,,1,0,1,,,,,,,,,,0,,70,0
2996,set_tempo,1153846,8,1,0,,,,,,,,,,,,,
2996,note_on,,3,0,1,,,,,,,,,,0,,70,42
2997,note_on,,1,0,1,,,,,,,,,,0,,68,0
3000,note_on,,3,0,1,,,,,,,,,,0,,68,40
3000,set_tempo,869565,4,1,0,,,,,,,,,,,,,
3001,note_on,,1,0,1,,,,,,,,,,0,,70,0
3008,set_tempo,821917,8,1,0,,,,,,,,,,,,,
3008,note_on,,0,0,1,,,,,,,,,,0,,67,45
3008,note_on,,7,0,1,,,,,,,,,,0,,68,0
3012,note_on,,0,0,2,,,,,,,,,,0,,54,0
3012,note_on,,36,0,2,,,,,,,,,,0,,60,0
3016,note_on,,0,0,1,,,,,,,,,,0,,68,42
3016,note_on,,8,0,1,,,,,,,,,,0,,67,0
3016,set_tempo,1333333,8,1,0,,,,,,,,,,,,,
3018,note_on,,6,0,2,,,,,,,,,,0,,49,0
3024,note_on,,0,0,2,,,,,,,,,,0,,61,35
3024,note_on,,6,0,2,,,,,,,,,,0,,53,27
3024,note_on,,8,0,1,,,,,,,,,,0,,68,0
3024,note_on,,0,0,1,,,,,,,,,,0,,70,46
3024,set_tempo,1034482,8,1,0,,,,,,,,,,,,,
3026,control_change,,48,0,3,,,,,,,,64,0,0,,,
3032,control_change,,6,0,3,,,,,,,,64,127,0,,,
3048,set_tempo,1153846,24,1,0,,,,,,,,,,,,,
3048,note_on,,0,0,2,,,,,,,,,,0,,53,0
3048,note_on,,24,0,1,,,,,,,,,,0,,70,0
3048,note_on,,24,0,2,,,,,,,,,,0,,61,0
3050,control_change,,18,0,3,,,,,,,,64,0,0,,,
3060,note_on,,12,0,1,,,,,,,,,,0,,68,42
3060,note_on,,12,0,2,,,,,,,,,,0,,59,36
3060,set_tempo,1538461,12,1,0,,,,,,,,,,,,,
3062,control_change,,12,0,3,,,,,,,,64,127,0,,,
3066,note_on,,6,0,2,,,,,,,,,,0,,59,0
3072,note_on,,0,0,1,,,,,,,,,,0,,66,38
3072,control_change,,10,0,3,,,,,,,,64,127,0,,,
3072,set_tempo,1111111,12,1,0,,,,,,,,,,,,,
3072,note_on,,12,0,1,,,,,,,,,,0,,68,0
3072,note_on,,6,0,2,,,,,,,,,,0,,42,35
3074,control_change,,2,0,3,,,,,,,,64,0,0,,,
3080,control_change,,6,0,3,,,,,,,,64,127,0,,,
3108,note_on,,36,0,2,,,,,,,,,,0,,42,0
3120,note_on,,12,0,2,,,,,,,,,,0,,58,26
3120,note_on,,0,0,2,,,,,,,,,,0,,61,32
3120,set_tempo,1153846,48,1,0,,,,,,,,,,,,,
3122,control_change,,42,0,3,,,,,,,,64,0,0,,,
3128,control_change,,6,0,3,,,,,,,,64,127,0,,,
3156,note_on,,36,0,2,,,,,,,,,,0,,61,0
3156,note_on,,0,0,2,,,,,,,,,,0,,58,0
3168,control_change,,40,0,3,,,,,,,,64,0,0,,,
3168,set_tempo,1304347,48,1,0,,,,,,,,,,,,,
3168,note_on,,12,0,2,,,,,,,,,,0,,54,20
3168,note_on,,96,0,1,,,,,,,,,,0,,66,0
3168,note_on,,0,0,2,,,,,,,,,,0,,58,26
3204,note_on,,36,0,2,,,,,,,,,,0,,58,0
3204,note_on,,0,0,2,,,,,,,,,,0,,54,0
3216,set_tempo,952380,48,1,0,,,,,,,,,,,,,
3216,note_on,,48,0,1,,,,,,,,,,0,,65,39
3252,set_tempo,1200000,36,1,0,,,,,,,,,,,,,
3252,note_on,,0,0,1,,,,,,,,,,0,,66,41
3252,note_on,,36,0,1,,,,,,,,,,0,,65,0
3264,note_on,,60,0,2,,,,,,,,,,0,,37,26
3264,note_on,,0,0,1,,,,,,,,,,0,,68,49
3264,set_tempo,895522,12,1,0,,,,,,,,,,,,,
3264,control_change,,96,0,3,,,,,,,,64,0,0,,,
3264,note_on,,12,0,1,,,,,,,,,,0,,66,0
3272,control_change,,8,0,3,,,,,,,,64,127,0,,,
3288,note_on,,24,0,2,,,,,,,,,,0,,37,0
3312,note_on,,0,0,1,,,,,,,,,,0,,73,53
3312,note_on,,48,0,1,,,,,,,,,,0,,68,0
3312,note_on,,24,0,2,,,,,,,,,,0,,56,21
3312,note_on,,0,0,2,,,,,,,,,,0,,65,25
3312,set_tempo,869565,48,1,0,,,,,,,,,,,,,
3312,note_on,,0,0,2,,,,,,,,,,0,,61,23
3314,control_change,,42,0,3,,,,,,,,64,0,0,,,
3320,control_change,,6,0,3,,,,,,,,64,127,0,,,
3336,note_on,,24,0,2,,,,,,,,,,0,,65,0
3336,note_on,,0,0,2,,,,,,,,,,0,,56,0
3336,note_on,,0,0,2,,,,,,,,,,0,,61,0
3348,set_tempo,1071428,36,1,0,,,,,,,,,,,,,
3348,note_on,,36,0,1,,,,,,,,,,0,,73,0
3348,note_on,,0,0,1,,,,,,,,,,0,,75,51
3360,note_on,,0,0,2,,,,,,,,,,0,,61,34
3360,note_on,,12,0,1,,,,,,,,,,0,,75,0
3360,note_on,,0,0,1,,,,,,,,,,0,,77,64
3360,note_on,,24,0,2,,,,,,,,,,0,,53,24
3360,note_on,,0,0,2,,,,,,,,,,0,,56,27
3360,set_tempo,845070,12,1,0,,,,,,,,,,,,,
3362,control_change,,42,0,3,,,,,,,,64,0,0,,,
3368,control_change,,6,0,3,,,,,,,,64,127,0,,,
3384,note_on,,24,0,1,,,,,,,,,,0,,77,0
3384,note_on,,24,0,2,,,,,,,,,,0,,61,0
3384,note_on,,0,0,2,,,,,,,,,,0,,56,0
3384,note_on,,0,0,2,,,,,,,,,,0,,53,0
3408,note_on,,24,0,1,,,,,,,,,,0,,77,60
3408,set_tempo,1111111,48,1,0,,,,,,,,,,,,,
3408,note_on,,24,0,2,,,,,,,,,,0,,56,18
3408,note_on,,0,0,2,,,,,,,,,,0,,61,22
3408,note_on,,0,0,2,,,,,,,,,,0,,65,24
3410,control_change,,42,0,3,,,,,,,,64,0,0,,,
3416,control_change,,6,0,3,,,,,,,,64,127,0,,,
3432,note_on,,0,0,2,,,,,,,,,,0,,56,0
3432,note_on,,0,0,2,,,,,,,,,,0,,61,0
3432,note_on,,24,0,2,,,,,,,,,,0,,65,0
3432,note_on,,24,0,1,,,,,,,,,,0,,77,0
3454,control_change,,38,0,3,,,,,,,,64,0,0,,,
3456,note_on,,24,0,2,,,,,,,,,,0,,49,31
3456,set_tempo,869565,48,1,0,,,,,,,,,,,,,
3456,note_on,,24,0,1,,,,,,,,,,0,,77,64
3456,control_change,,2,0,3,,,,,,,,64,0,0,,,
3464,control_change,,8,0,3,,,,,,,,64,127,0,,,
3480,note_on,,24,0,2,,,,,,,,,,0,,49,0
3504,set_tempo,1200000,48,1,0,,,,,,,,,,,,,
3504,note_on,,0,0,2,,,,,,,,,,0,,61,24
3504,note_on,,48,0,1,,,,,,,,,,0,,77,0
3504,note_on,,24,0,2,,,,,,,,,,0,,57,20
3504,note_on,,0,0,2,,,,,,,,,,0,,66,26
3506,control_change,,42,0,3,,,,,,,,64,0,0,,,
3512,control_change,,6,0,3,,,,,,,,64,127,0,,,
3517,note_on,,13,0,1,,,,,,,,,,0,,76,41
3522,note_on,,0,0,1,,,,,,,,,,0,,75,35
3522,note_on,,5,0,1,,,,,,,,,,0,,76,0
3522,set_tempo,1304347,18,1,0,,,,,,,,,,,,,
3527,note_on,,5,0,1,,,,,,,,,,0,,75,0
3527,note_on,,0,0,1,,,,,,,,,,0,,74,45
3527,set_tempo,800000,5,1,0,,,,,,,,,,,,,
3528,note_on,,0,0,2,,,,,,,,,,0,,57,0
3528,note_on,,0,0,2,,,,,,,,,,0,,61,0
3528,note_on,,24,0,2,,,,,,,,,,0,,66,0
3532,note_on,,5,0,1,,,,,,,,,,0,,74,0
3532,note_on,,0,0,1,,,,,,,,,,0,,73,34
3532,set_tempo,895522,5,1,0,,,,,,,,,,,,,
3537,note_on,,0,0,1,,,,,,,,,,0,,72,34
3537,note_on,,5,0,1,,,,,,,,,,0,,73,0
3537,set_tempo,800000,5,1,0,,,,,,,,,,,,,
3542,note_on,,5,0,1,,,,,,,,,,0,,72,0
3542,set_tempo,895522,5,1,0,,,,,,,,,,,,,
3542,note_on,,0,0,1,,,,,,,,,,0,,71,46
3547,note_on,,0,0,1,,,,,,,,,,0,,70,37
3547,note_on,,5,0,1,,,,,,,,,,0,,71,0
3547,set_tempo,697674,5,1,0,,,,,,,,,,,,,
3552,note_on,,24,0,2,,,,,,,,,,0,,54,24
3552,note_on,,5,0,1,,,,,,,,,,0,,70,0
3552,note_on,,0,0,1,,,,,,,,,,0,,69,45
3552,note_on,,0,0,2,,,,,,,,,,0,,61,34
3552,set_tempo,869565,5,1,0,,,,,,,,,,,,,
3552,note_on,,0,0,2,,,,,,,,,,0,,57,30
3554,control_change,,42,0,3,,,,,,,,64,0,0,,,
3560,control_change,,6,0,3,,,,,,,,64,127,0,,,
3576,note_on,,24,0,2,,,,,,,,,,0,,61,0
3576,note_on,,0,0,2,,,,,,,,,,0,,57,0
3576,note_on,,0,0,2,,,,,,,,,,0,,54,0
3600,set_tempo,895522,48,1,0,,,,,,,,,,,,,
3600,note_on,,24,0,2,,,,,,,,,,0,,57,26
3600,note_on,,0,0,2,,,,,,,,,,0,,61,28
3600,note_on,,0,0,2,,,,,,,,,,0,,66,31
3602,control_change,,42,0,3,,,,,,,,64,0,0,,,
3608,control_change,,6,0,3,,,,,,,,64,127,0,,,
3624,note_on,,24,0,2,,,,,,,,,,0,,66,0
3624,note_on,,0,0,2,,,,,,,,,,0,,61,0
3624,note_on,,0,0,2,,,,,,,,,,0,,57,0
3648,note_on,,0,0,2,,,,,,,,,,0,,49,53
3648,control_change,,40,0,3,,,,,,,,64,127,0,,,
3648,note_on,,24,0,2,,,,,,,,,,0,,37,43
3650,control_change,,2,0,3,,,,,,,,64,0,0,,,
3656,control_change,,6,0,3,,,,,,,,64,127,0,,,
3672,note_on,,24,0,2,,,,,,,,,,0,,49,0
3672,note_on,,0,0,2,,,,,,,,,,0,,37,0
3688,note_on,,136,0,1,,,,,,,,,,0,,69,0
3696,note_on,,8,0,1,,,,,,,,,,0,,73,69
3696,note_on,,0,0,2,,,,,,,,,,0,,66,44
3696,set_tempo,952380,96,1,0,,,,,,,,,,,,,
3696,note_on,,24,0,2,,,,,,,,,,0,,57,38
3696,note_on,,0,0,2,,,,,,,,,,0,,61,40
3698,control_change,,42,0,3,,,,,,,,64,0,0,,,
3704,control_change,,6,0,3,,,,,,,,64,127,0,,,
3720,note_on,,0,0,2,,,,,,,,,,0,,57,0
3720,note_on,,24,0,2,,,,,,,,,,0,,66,0
3720,note_on,,0,0,2,,,,,,,,,,0,,61,0
3732,note_on,,36,0,1,,,,,,,,,,0,,73,0
3732,set_tempo,1000000,36,1,0,,,,,,,,,,,,,
3732,note_on,,0,0,1,,,,,,,,,,0,,77,74
3744,note_on,,12,0,1,,,,,,,,,,0,,77,0
3744,note_on,,24,0,2,,,,,,,,,,0,,54,46
3744,set_tempo,923076,12,1,0,,,,,,,,,,,,,
3744,note_on,,0,0,2,,,,,,,,,,0,,57,50
3744,note_on,,0,0,2,,,,,,,,,,0,,61,54
3744,note_on,,0,0,1,,,,,,,,,,0,,78,74
3746,control_change,,42,0,3,,,,,,,,64,0,0,,,
3752,control_change,,6,0,3,,,,,,,,64,127,0,,,
3760,note_on,,16,0,1,,,,,,,,,,0,,78,0
3768,note_on,,24,0,2,,,,,,,,,,0,,61,0
3768,note_on,,0,0,2,,,,,,,,,,0,,57,0
3768,note_on,,0,0,2,,,,,,,,,,0,,54,0
3776,set_tempo,845070,32,1,0,,,,,,,,,,,,,
3776,note_on,,16,0,1,,,,,,,,,,0,,78,84
3792,set_tempo,952380,16,1,0,,,,,,,,,,,,,
3792,note_on,,24,0,2,,,,,,,,,,0,,57,46
3792,note_on,,0,0,2,,,,,,,,,,0,,61,50
3792,note_on,,16,0,1,,,,,,,,,,0,,78,0
3792,note_on,,0,0,2,,,,,,,,,,0,,69,60
3794,control_change,,42,0,3,,,,,,,,64,0,0,,,
3800,control_change,,6,0,3,,,,,,,,64,127,0,,,
3808,set_tempo,1071428,16,1,0,,,,,,,,,,,,,
3808,note_on,,16,0,1,,,,,,,,,,0,,78,86
3816,note_on,,0,0,2,,,,,,,,,,0,,61,0
3816,note_on,,0,0,2,,,,,,,,,,0,,57,0
3816,note_on,,24,0,2,,,,,,,,,,0,,69,0
3824,note_on,,16,0,1,,,,,,,,,,0,,78,0
3838,control_change,,38,0,3,,,,,,,,64,0,0,,,
3840,note_on,,0,0,2,,,,,,,,,,0,,48,50
3840,set_tempo,845070,32,1,0,,,,,,,,,,,,,
3840,note_on,,16,0,1,,,,,,,,,,0,,78,60
3840,note_on,,24,0,2,,,,,,,,,,0,,36,40
3840,control_change,,2,0,3,,,,,,,,64,0,0,,,
3848,control_change,,8,0,3,,,,,,,,64,127,0,,,
3864,note_on,,0,0,2,,,,,,,,,,0,,36,0
3864,note_on,,24,0,2,,,,,,,,,,0,,48,0
3888,note_on,,0,0,2,,,,,,,,,,0,,62,32
3888,note_on,,0,0,2,,,,,,,,,,0,,66,36
3888,note_on,,48,0,1,,,,,,,,,,0,,78,0
3888,note_on,,24,0,2,,,,,,,,,,0,,57,28
3890,control_change,,42,0,3,,,,,,,,64,0,0,,,
3896,control_change,,6,0,3,,,,,,,,64,127,0,,,
3904,note_on,,16,0,1,,,,,,,,,,0,,77,47
3904,set_tempo,1538461,64,1,0,,,,,,,,,,,,,
3908,note_on,,0,0,1,,,,,,,,,,0,,76,39
3908,set_tempo,1395348,4,1,0,,,,,,,,,,,,,
3908,note_on,,4,0,1,,,,,,,,,,0,,77,0
3912,note_on,,0,0,1,,,,,,,,,,0,,75,34
3912,note_on,,4,0,1,,,,,,,,,,0,,76,0
3912,set_tempo,1250000,4,1,0,,,,,,,,,,,,,
3912,note_on,,0,0,2,,,,,,,,,,0,,57,0
3912,note_on,,24,0,2,,,,,,,,,,0,,66,0
3912,note_on,,0,0,2,,,,,,,,,,0,,62,0
3916,note_on,,0,0,1,,,,,,,,,,0,,74,41
3916,note_on,,4,0,1,,,,,,,,,,0,,75,0
3920,set_tempo,1200000,8,1,0,,,,,,,,,,,,,
3920,note_on,,0,0,1,,,,,,,,,,0,,73,33
3920,note_on,,4,0,1,,,,,,,,,,0,,74,0
3924,note_on,,0,0,1,,,,,,,,,,0,,72,37
3924,note_on,,4,0,1,,,,,,,,,,0,,73,0
3928,note_on,,0,0,1,,,,,,,,,,0,,71,37
3928,note_on,,4,0,1,,,,,,,,,,0,,72,0
3928,set_tempo,1153846,8,1,0,,,,,,,,,,,,,
3932,note_on,,4,0,1,,,,,,,,,,0,,71,0
3932,note_on,,0,0,1,,,,,,,,,,0,,70,27
3936,note_on,,0,0,2,,,,,,,,,,0,,62,41
3936,note_on,,0,0,2,,,,,,,,,,0,,57,35
3936,note_on,,24,0,2,,,,,,,,,,0,,54,30
3936,set_tempo,869565,8,1,0,,,,,,,,,,,,,
3936,note_on,,0,0,1,,,,,,,,,,0,,69,40
3936,note_on,,4,0,1,,,,,,,,,,0,,70,0
3938,control_change,,42,0,3,,,,,,,,64,0,0,,,
3944,control_change,,6,0,3,,,,,,,,64,127,0,,,
3960,note_on,,0,0,2,,,,,,,,,,0,,54,0
3960,note_on,,0,0,2,,,,,,,,,,0,,57,0
3960,note_on,,24,0,2,,,,,,,,,,0,,62,0
3984,note_on,,24,0,2,,,,,,,,,,0,,57,40
3984,note_on,,0,0,2,,,,,,,,,,0,,66,56
3984,note_on,,0,0,2,,,,,,,,,,0,,62,46
3986,control_change,,42,0,3,,,,,,,,64,0,0,,,
3992,control_change,,6,0,3,,,,,,,,64,127,0,,,
4008,note_on,,0,0,2,,,,,,,,,,0,,57,0
4008,note_on,,0,0,2,,,,,,,,,,0,,62,0
4008,note_on,,24,0,2,,,,,,,,,,0,,66,0
4032,note_on,,0,0,2,,,,,,,,,,0,,47,63
4032,note_on,,24,0,2,,,,,,,,,,0,,35,55
4032,control_change,,40,0,3,,,,,,,,64,127,0,,,
4034,control_change,,2,0,3,,,,,,,,64,0,0,,,
4040,control_change,,6,0,3,,,,,,,,64,127,0,,,
4056,note_on,,0,0,2,,,,,,,,,,0,,35,0
4056,note_on,,24,0,2,,,,,,,,,,0,,47,0
4080,note_on,,144,0,1,,,,,,,,,,0,,69,0
4080,note_on,,24,0,2,,,,,,,,,,0,,57,43
4080,note_on,,0,0,1,,,,,,,,,,0,,75,74
4080,note_on,,0,0,2,,,,,,,,,,0,,63,46
4080,set_tempo,895522,144,1,0,,,,,,,,,,,,,
4080,note_on,,0,0,2,,,,,,,,,,0,,66,54
4082,control_change,,42,0,3,,,,,,,,64,0,0,,,
4088,control_change,,6,0,3,,,,,,,,64,127,0,,,
4104,note_on,,0,0,2,,,,,,,,,,0,,63,0
4104,note_on,,24,0,2,,,,,,,,,,0,,66,0
4104,note_on,,0,0,2,,,,,,,,,,0,,57,0
4116,note_on,,36,0,1,,,,,,,,,,0,,75,0
4116,set_tempo,923076,36,1,0,,,,,,,,,,,,,
4116,note_on,,0,0,1,,,,,,,,,,0,,77,77
4128,note_on,,24,0,2,,,,,,,,,,0,,54,52
4128,set_tempo,821917,12,1,0,,,,,,,,,,,,,
4128,note_on,,0,0,2,,,,,,,,,,0,,63,60
4128,note_on,,12,0,1,,,,,,,,,,0,,77,0
4128,note_on,,0,0,1,,,,,,,,,,0,,78,80
4128,note_on,,0,0,2,,,,,,,,,,0,,57,56
4130,control_change,,42,0,3,,,,,,,,64,0,0,,,
4136,control_change,,6,0,3,,,,,,,,64,127,0,,,
4152,note_on,,24,0,2,,,,,,,,,,0,,63,0
4152,note_on,,0,0,2,,,,,,,,,,0,,57,0
4152,note_on,,0,0,2,,,,,,,,,,0,,54,0
4164,note_on,,36,0,1,,,,,,,,,,0,,78,0
4176,set_tempo,923076,0,1,0,,,,,,,,,,,,,
4176,note_on,,12,0,1,,,,,,,,,,0,,78,80
4176,note_on,,24,0,2,,,,,,,,,,0,,57,58
4176,note_on,,0,0,2,,,,,,,,,,0,,69,64
4176,set_tempo,1071428,48,1,0,,,,,,,,,,,,,
4178,control_change,,42,0,3,,,,,,,,64,0,0,,,
4184,control_change,,6,0,3,,,,,,,,64,127,0,,,
4200,note_on,,24,0,2,,,,,,,,,,0,,69,0
4200,note_on,,24,0,1,,,,,,,,,,0,,78,0
4200,note_on,,0,0,2,,,,,,,,,,0,,57,0
4212,note_on,,12,0,1,,,,,,,,,,0,,78,81
4218,note_on,,6,0,1,,,,,,,,,,0,,78,0
4222,control_change,,38,0,3,,,,,,,,64,0,0,,,
4224,set_tempo,869565,48,1,0,,,,,,,,,,,,,
4224,control_change,,2,0,3,,,,,,,,64,0,0,,,
4224,note_on,,6,0,1,,,,,,,,,,0,,78,84
4224,note_on,,0,0,2,,,,,,,,,,0,,46,66
4224,note_on,,24,0,2,,,,,,,,,,0,,34,60
4232,control_change,,8,0,3,,,,,,,,64,127,0,,,
4241,note_on,,17,0,2,,,,,,,,,,0,,46,0
4241,note_on,,0,0,2,,,,,,,,,,0,,34,0
4251,note_on,,10,0,2,,,,,,,,,,0,,53,57
4251,set_tempo,571428,27,1,0,,,,,,,,,,,,,
4258,note_on,,7,0,2,,,,,,,,,,0,,58,59
4258,set_tempo,714285,7,1,0,,,,,,,,,,,,,
4265,note_on,,0,0,2,,,,,,,,,,0,,62,61
4265,set_tempo,869565,7,1,0,,,,,,,,,,,,,
4265,note_on,,7,0,2,,,,,,,,,,0,,53,0
4272,note_on,,0,0,2,,,,,,,,,,0,,70,69
4272,set_tempo,923076,7,1,0,,,,,,,,,,,,,
4272,note_on,,7,0,2,,,,,,,,,,0,,58,0
4296,set_tempo,769230,24,1,0,,,,,,,,,,,,,
4296,note_on,,72,0,1,,,,,,,,,,0,,78,0
4296,note_on,,0,0,1,,,,,,,,,,0,,77,76
4308,note_on,,36,0,2,,,,,,,,,,0,,70,0
4308,note_on,,0,0,2,,,,,,,,,,0,,62,0
4320,note_on,,0,0,1,,,,,,,,,,0,,75,72
4320,note_on,,24,0,1,,,,,,,,,,0,,77,0
4320,note_on,,12,0,2,,,,,,,,,,0,,34,56
4320,set_tempo,1034482,24,1,0,,,,,,,,,,,,,
4320,note_on,,0,0,2,,,,,,,,,,0,,46,62
4322,control_change,,90,0,3,,,,,,,,64,0,0,,,
4328,control_change,,6,0,3,,,,,,,,64,127,0,,,
4336,note_on,,0,0,1,,,,,,,,,,0,,77,74
4336,note_on,,16,0,1,,,,,,,,,,0,,75,0
4336,set_tempo,681818,16,1,0,,,,,,,,,,,,,
4337,note_on,,0,0,2,,,,,,,,,,0,,34,0
4337,note_on,,17,0,2,,,,,,,,,,0,,46,0
4347,set_tempo,697674,11,1,0,,,,,,,,,,,,,
4347,note_on,,10,0,2,,,,,,,,,,0,,53,62
4352,note_on,,0,0,1,,,,,,,,,,0,,75,74
4352,note_on,,16,0,1,,,,,,,,,,0,,77,0
4352,set_tempo,750000,5,1,0,,,,,,,,,,,,,
4354,set_tempo,789473,2,1,0,,,,,,,,,,,,,
4354,note_on,,7,0,2,,,,,,,,,,0,,59,55
4361,note_on,,7,0,2,,,,,,,,,,0,,53,0
4361,note_on,,0,0,2,,,,,,,,,,0,,63,58
4361,set_tempo,645161,7,1,0,,,,,,,,,,,,,
4368,note_on,,7,0,2,,,,,,,,,,0,,59,0
4368,note_on,,0,0,2,,,,,,,,,,0,,69,62
4368,set_tempo,714285,7,1,0,,,,,,,,,,,,,
4368,note_on,,16,0,1,,,,,,,,,,0,,75,0
4368,note_on,,0,0,1,,,,,,,,,,0,,74,65
4384,set_tempo,535714,16,1,0,,,,,,,,,,,,,
4384,note_on,,16,0,1,,,,,,,,,,0,,74,0
4384,note_on,,0,0,1,,,,,,,,,,0,,75,68
4400,note_on,,0,0,1,,,,,,,,,,0,,77,69
4400,note_on,,16,0,1,,,,,,,,,,0,,75,0
4400,set_tempo,789473,16,1,0,,,,,,,,,,,,,
4404,note_on,,36,0,2,,,,,,,,,,0,,69,0
4404,note_on,,0,0,2,,,,,,,,,,0,,63,0
4416,note_on,,0,0,1,,,,,,,,,,0,,75,66
4416,set_tempo,821917,16,1,0,,,,,,,,,,,,,
4416,note_on,,16,0,1,,,,,,,,,,0,,77,0
4416,control_change,,88,0,3,,,,,,,,64,127,0,,,
4416,note_on,,0,0,2,,,,,,,,,,0,,46,43
4416,note_on,,12,0,2,,,,,,,,,,0,,34,37
4418,control_change,,2,0,3,,,,,,,,64,0,0,,,
4424,control_change,,6,0,3,,,,,,,,64,127,0,,,
4436,note_on,,0,0,2,,,,,,,,,,0,,34,0
4436,note_on,,20,0,2,,,,,,,,,,0,,46,0
4448,note_on,,12,0,2,,,,,,,,,,0,,53,42
4448,set_tempo,869565,32,1,0,,,,,,,,,,,,,
4456,note_on,,8,0,2,,,,,,,,,,0,,62,46
4456,set_tempo,952380,8,1,0,,,,,,,,,,,,,
4464,note_on,,8,0,2,,,,,,,,,,0,,70,53
4464,set_tempo,845070,8,1,0,,,,,,,,,,,,,
4488,note_on,,72,0,1,,,,,,,,,,0,,75,0
4488,note_on,,0,0,1,,,,,,,,,,0,,74,55
4488,set_tempo,1153846,24,1,0,,,,,,,,,,,,,
4500,note_on,,0,0,2,,,,,,,,,,0,,62,0
4500,note_on,,36,0,2,,,,,,,,,,0,,70,0
4500,note_on,,0,0,2,,,,,,,,,,0,,53,0
4512,set_tempo,1250000,24,1,0,,,,,,,,,,,,,
4512,note_on,,24,0,1,,,,,,,,,,0,,74,0
4512,note_on,,0,0,2,,,,,,,,,,0,,46,33
4512,note_on,,12,0,2,,,,,,,,,,0,,34,31
4512,note_on,,0,0,1,,,,,,,,,,0,,71,45
4514,control_change,,90,0,3,,,,,,,,64,0,0,,,
4520,control_change,,6,0,3,,,,,,,,64,127,0,,,
4528,set_tempo,789473,16,1,0,,,,,,,,,,,,,
4528,note_on,,16,0,1,,,,,,,,,,0,,71,0
4528,note_on,,0,0,1,,,,,,,,,,0,,73,52
4532,note_on,,20,0,2,,,,,,,,,,0,,46,0
4532,note_on,,0,0,2,,,,,,,,,,0,,34,0
4544,set_tempo,952380,16,1,0,,,,,,,,,,,,,
4544,note_on,,16,0,1,,,,,,,,,,0,,73,0
4544,note_on,,0,0,1,,,,,,,,,,0,,71,49
4546,note_on,,14,0,2,,,,,,,,,,0,,51,34
4553,note_on,,7,0,2,,,,,,,,,,0,,57,40
4560,note_on,,16,0,1,,,,,,,,,,0,,71,0
4560,set_tempo,1538461,16,1,0,,,,,,,,,,,,,
4560,note_on,,7,0,2,,,,,,,,,,0,,51,0
4560,note_on,,0,0,2,,,,,,,,,,0,,66,38
4560,note_on,,0,0,1,,,,,,,,,,0,,70,44
4570,note_on,,10,0,1,,,,,,,,,,0,,70,0
4570,note_on,,0,0,1,,,,,,,,,,0,,71,46
4570,set_tempo,2727272,10,1,0,,,,,,,,,,,,,
4580,control_change,,60,0,3,,,,,,,,64,0,0,,,
4580,note_on,,10,0,1,,,,,,,,,,0,,71,0
4580,note_on,,0,0,1,,,,,,,,,,0,,75,50
4589,set_tempo,1935483,19,1,0,,,,,,,,,,,,,
4589,note_on,,0,0,1,,,,,,,,,,0,,73,47
4589,note_on,,9,0,1,,,,,,,,,,0,,75,0
4596,note_on,,36,0,2,,,,,,,,,,0,,66,0
4596,note_on,,0,0,2,,,,,,,,,,0,,57,0
4598,set_tempo,2500000,9,1,0,,,,,,,,,,,,,
4598,note_on,,0,0,1,,,,,,,,,,0,,71,50
4598,note_on,,9,0,1,,,,,,,,,,0,,73,0
4608,set_tempo,2142857,10,1,0,,,,,,,,,,,,,
4608,note_on,,12,0,2,,,,,,,,,,0,,34,44
4608,note_on,,10,0,1,,,,,,,,,,0,,71,0
4608,note_on,,0,0,1,,,,,,,,,,0,,71,48
4608,control_change,,28,0,3,,,,,,,,64,0,0,,,
4614,control_change,,6,0,3,,,,,,,,64,127,0,,,
4618,note_on,,10,0,2,,,,,,,,,,0,,34,0
4624,set_tempo,1250000,16,1,0,,,,,,,,,,,,,
4624,note_on,,6,0,2,,,,,,,,,,0,,50,29
4640,note_on,,0,0,2,,,,,,,,,,0,,58,32
4640,note_on,,16,0,2,,,,,,,,,,0,,50,0
4640,set_tempo,1395348,16,1,0,,,,,,,,,,,,,
4650,note_on,,42,0,1,,,,,,,,,,0,,71,0
4656,set_tempo,1935483,16,1,0,,,,,,,,,,,,,
4656,note_on,,6,0,1,,,,,,,,,,0,,70,40
4656,note_on,,0,0,2,,,,,,,,,,0,,53,29
4656,note_on,,16,0,2,,,,,,,,,,0,,58,0
4672,set_tempo,1463414,16,1,0,,,,,,,,,,,,,
4672,note_on,,0,0,2,,,,,,,,,,0,,62,37
4672,note_on,,16,0,2,,,,,,,,,,0,,53,0
4688,note_on,,0,0,2,,,,,,,,,,0,,58,32
4688,note_on,,16,0,2,,,,,,,,,,0,,62,0
4688,set_tempo,2000000,16,1,0,,,,,,,,,,,,,
4704,note_on,,16,0,2,,,,,,,,,,0,,58,0
4704,set_tempo,3000000,16,1,0,,,,,,,,,,,,,
4704,note_on,,48,0,1,,,,,,,,,,0,,65,41
4706,control_change,,92,0,3,,,,,,,,64,0,0,,,
4712,control_change,,6,0,3,,,,,,,,64,127,0,,,
4712,note_on,,8,0,1,,,,,,,,,,0,,70,0
4720,set_tempo,2000000,16,1,0,,,,,,,,,,,,,
4720,note_on,,8,0,1,,,,,,,,,,0,,70,37
4728,note_on,,8,0,1,,,,,,,,,,0,,70,0
4736,set_tempo,1395348,16,1,0,,,,,,,,,,,,,
4736,note_on,,8,0,1,,,,,,,,,,0,,70,43
4744,note_on,,8,0,1,,,,,,,,,,0,,70,0
4752,set_tempo,1333333,16,1,0,,,,,,,,,,,,,
4752,note_on,,8,0,1,,,,,,,,,,0,,70,45
4760,note_on,,8,0,1,,,,,,,,,,0,,70,0
4768,note_on,,8,0,1,,,,,,,,,,0,,70,39
4768,set_tempo,1818181,16,1,0,,,,,,,,,,,,,
4776,note_on,,8,0,1,,,,,,,,,,0,,70,0
4784,set_tempo,3333333,16,1,0,,,,,,,,,,,,,
4784,note_on,,8,0,1,,,,,,,,,,0,,71,35
4785,control_change,,73,0,3,,,,,,,,64,0,0,,,
4788,control_change,,3,0,3,,,,,,,,64,127,0,,,
4792,note_on,,0,0,1,,,,,,,,,,0,,65,0
4792,note_on,,8,0,1,,,,,,,,,,0,,71,0
4800,set_tempo,1621621,16,1,0,,,,,,,,,,,,,
4800,note_on,,8,0,1,,,,,,,,,,0,,65,41
4800,note_on,,96,0,2,,,,,,,,,,0,,37,33
4800,note_on,,0,0,1,,,,,,,,,,0,,77,46
4800,control_change,,12,0,3,,,,,,,,64,127,0,,,
4802,control_change,,2,0,3,,,,,,,,64,0,0,,,
4808,control_change,,6,0,3,,,,,,,,64,127,0,,,
4810,set_tempo,952380,10,1,0,,,,,,,,,,,,,
4810,note_on,,10,0,1,,,,,,,,,,0,,68,39
4812,note_on,,12,0,2,,,,,,,,,,0,,37,0
4820,set_tempo,750000,10,1,0,,,,,,,,,,,,,
4820,note_on,,10,0,1,,,,,,,,,,0,,68,0
4820,note_on,,0,0,1,,,,,,,,,,0,,71,42
4824,note_on,,0,0,2,,,,,,,,,,0,,59,27
4824,note_on,,12,0,2,,,,,,,,,,0,,49,23
4824,set_tempo,697674,4,1,0,,,,,,,,,,,,,
4824,note_on,,4,0,1,,,,,,,,,,0,,65,0
4824,note_on,,0,0,2,,,,,,,,,,0,,56,24
4829,note_on,,5,0,1,,,,,,,,,,0,,63,37
4829,set_tempo,845070,5,1,0,,,,,,,,,,,,,
4832,note_on,,3,0,1,,,,,,,,,,0,,71,0
4833,note_on,,1,0,1,,,,,,,,,,0,,77,0
4838,set_tempo,1153846,9,1,0,,,,,,,,,,,,,
4838,note_on,,5,0,1,,,,,,,,,,0,,75,52
4844,note_on,,6,0,1,,,,,,,,,,0,,75,0
4844,note_on,,0,0,1,,,,,,,,,,0,,63,0
4848,note_on,,4,0,1,,,,,,,,,,0,,61,40
4848,set_tempo,750000,10,1,0,,,,,,,,,,,,,
4848,note_on,,0,0,1,,,,,,,,,,0,,73,50
4858,set_tempo,697674,10,1,0,,,,,,,,,,,,,
4858,note_on,,10,0,1,,,,,,,,,,0,,68,35
4860,note_on,,0,0,2,,,,,,,,,,0,,49,0
4860,note_on,,0,0,2,,,,,,,,,,0,,56,0
4860,note_on,,36,0,2,,,,,,,,,,0,,59,0
4868,note_on,,0,0,1,,,,,,,,,,0,,71,50
4868,set_tempo,869565,10,1,0,,,,,,,,,,,,,
4868,note_on,,10,0,1,,,,,,,,,,0,,68,0
4872,set_tempo,400000,4,1,0,,,,,,,,,,,,,
4872,note_on,,12,0,2,,,,,,,,,,0,,44,50
4872,note_on,,4,0,1,,,,,,,,,,0,,61,0
4877,set_tempo,618556,5,1,0,,,,,,,,,,,,,
4877,note_on,,5,0,1,,,,,,,,,,0,,63,37
4880,note_on,,3,0,1,,,,,,,,,,0,,71,0
4881,note_on,,1,0,1,,,,,,,,,,0,,73,0
4884,note_on,,12,0,2,,,,,,,,,,0,,44,0
4886,set_tempo,1071428,9,1,0,,,,,,,,,,,,,
4886,note_on,,5,0,1,,,,,,,,,,0,,75,52
4892,note_on,,0,0,1,,,,,,,,,,0,,63,0
4892,note_on,,6,0,1,,,,,,,,,,0,,75,0
4896,set_tempo,895522,0,1,0,,,,,,,,,,,,,
4896,control_change,,88,0,3,,,,,,,,64,127,0,,,
4896,time_signature,,10,1,0,2,4,24,8,,,,,,,,,
4896,note_on,,0,0,1,,,,,,,,,,0,,77,52
4896,note_on,,4,0,1,,,,,,,,,,0,,65,45
4896,note_on,,12,0,2,,,,,,,,,,0,,37,38
4898,control_change,,2,0,3,,,,,,,,64,0,0,,,
4904,control_change,,6,0,3,,,,,,,,64,127,0,,,
4906,set_tempo,697674,10,1,0,,,,,,,,,,,,,
4906,note_on,,10,0,1,,,,,,,,,,0,,71,31
4908,note_on,,12,0,2,,,,,,,,,,0,,37,0
4916,set_tempo,769230,10,1,0,,,,,,,,,,,,,
4916,note_on,,10,0,1,,,,,,,,,,0,,71,0
4916,note_on,,0,0,1,,,,,,,,,,0,,73,31
4920,note_on,,12,0,2,,,,,,,,,,0,,49,24
4920,note_on,,0,0,2,,,,,,,,,,0,,56,29
4920,note_on,,0,0,2,,,,,,,,,,0,,59,31
4920,set_tempo,606060,4,1,0,,,,,,,,,,,,,
4920,note_on,,4,0,1,,,,,,,,,,0,,65,0
4925,set_tempo,555555,5,1,0,,,,,,,,,,,,,
4925,note_on,,5,0,1,,,,,,,,,,0,,66,30
4928,note_on,,3,0,1,,,,,,,,,,0,,73,0
4929,note_on,,1,0,1,,,,,,,,,,0,,77,0
4934,note_on,,5,0,1,,,,,,,,,,0,,78,47
4934,set_tempo,1071428,9,1,0,,,,,,,,,,,,,
4940,note_on,,6,0,1,,,,,,,,,,0,,78,0
4940,note_on,,0,0,1,,,,,,,,,,0,,66,0
4944,note_on,,0,0,1,,,,,,,,,,0,,80,58
4944,set_tempo,845070,10,1,0,,,,,,,,,,,,,
4944,note_on,,4,0,1,,,,,,,,,,0,,68,48
4954,note_on,,10,0,1,,,,,,,,,,0,,71,40
4954,set_tempo,555555,10,1,0,,,,,,,,,,,,,
4956,note_on,,0,0,2,,,,,,,,,,0,,56,0
4956,note_on,,36,0,2,,,,,,,,,,0,,59,0
4956,note_on,,0,0,2,,,,,,,,,,0,,49,0
4964,set_tempo,750000,10,1,0,,,,,,,,,,,,,
4964,note_on,,10,0,1,,,,,,,,,,0,,71,0
4964,note_on,,0,0,1,,,,,,,,,,0,,73,43
4968,note_on,,12,0,2,,,,,,,,,,0,,44,47
4968,note_on,,4,0,1,,,,,,,,,,0,,68,0
4973,set_tempo,618556,9,1,0,,,,,,,,,,,,,
4973,note_on,,5,0,1,,,,,,,,,,0,,70,37
4976,note_on,,3,0,1,,,,,,,,,,0,,73,0
4977,note_on,,1,0,1,,,,,,,,,,0,,80,0
4980,note_on,,12,0,2,,,,,,,,,,0,,44,0
4982,note_on,,5,0,1,,,,,,,,,,0,,82,52
4982,set_tempo,1071428,9,1,0,,,,,,,,,,,,,
4988,note_on,,6,0,1,,,,,,,,,,0,,82,0
4988,note_on,,0,0,1,,,,,,,,,,0,,70,0
4992,control_change,,88,0,3,,,,,,,,64,127,0,,,
4992,set_tempo,800000,10,1,0,,,,,,,,,,,,,
4992,note_on,,12,0,2,,,,,,,,,,0,,37,50
4992,note_on,,4,0,1,,,,,,,,,,0,,68,57
4992,note_on,,0,0,1,,,,,,,,,,0,,80,62
4994,control_change,,2,0,3,,,,,,,,64,0,0,,,
5000,control_change,,6,0,3,,,,,,,,64,127,0,,,
5002,set_tempo,659340,10,1,0,,,,,,,,,,,,,
5002,note_on,,10,0,1,,,,,,,,,,0,,71,35
5004,note_on,,12,0,2,,,,,,,,,,0,,37,0
5012,note_on,,0,0,1,,,,,,,,,,0,,73,37
5012,set_tempo,869565,10,1,0,,,,,,,,,,,,,
5012,note_on,,10,0,1,,,,,,,,,,0,,71,0
5016,note_on,,4,0,1,,,,,,,,,,0,,68,0
5016,set_tempo,697674,4,1,0,,,,,,,,,,,,,
5016,note_on,,12,0,2,,,,,,,,,,0,,49,42
5016,note_on,,0,0,2,,,,,,,,,,0,,56,44
5016,note_on,,0,0,2,,,,,,,,,,0,,59,48
5021,set_tempo,731707,5,1,0,,,,,,,,,,,,,
5021,note_on,,5,0,1,,,,,,,,,,0,,65,43
5024,note_on,,3,0,1,,,,,,,,,,0,,73,0
5025,note_on,,1,0,1,,,,,,,,,,0,,80,0
5030,note_on,,5,0,1,,,,,,,,,,0,,77,62
5030,set_tempo,800000,9,1,0,,,,,,,,,,,,,
5034,note_on,,18,0,2,,,,,,,,,,0,,59,0
5034,note_on,,0,0,2,,,,,,,,,,0,,56,0
5036,note_on,,0,0,1,,,,,,,,,,0,,65,0
5036,note_on,,6,0,1,,,,,,,,,,0,,77,0
5040,note_on,,4,0,1,,,,,,,,,,0,,66,58
5040,note_on,,0,0,1,,,,,,,,,,0,,78,60
5040,set_tempo,750000,10,1,0,,,,,,,,,,,,,
5040,note_on,,6,0,2,,,,,,,,,,0,,57,48
5040,note_on,,0,0,2,,,,,,,,,,0,,60,59
5042,control_change,,42,0,3,,,,,,,,64,0,0,,,
5048,control_change,,6,0,3,,,,,,,,64,127,0,,,
5050,note_on,,10,0,1,,,,,,,,,,0,,69,38
5050,set_tempo,606060,10,1,0,,,,,,,,,,,,,
5052,note_on,,12,0,2,,,,,,,,,,0,,60,0
5052,note_on,,0,0,2,,,,,,,,,,0,,49,0
5052,note_on,,0,0,2,,,,,,,,,,0,,57,0
5060,note_on,,0,0,1,,,,,,,,,,0,,72,40
5060,set_tempo,750000,10,1,0,,,,,,,,,,,,,
5060,note_on,,10,0,1,,,,,,,,,,0,,69,0
5064,note_on,,4,0,1,,,,,,,,,,0,,66,0
5064,note_on,,12,0,2,,,,,,,,,,0,,37,44
5064,set_tempo,800000,4,1,0,,,,,,,,,,,,,
5069,note_on,,5,0,1,,,,,,,,,,0,,63,45
5069,set_tempo,845070,5,1,0,,,,,,,,,,,,,
5072,note_on,,3,0,1,,,,,,,,,,0,,72,0
5073,note_on,,1,0,1,,,,,,,,,,0,,78,0
5076,note_on,,12,0,2,,,,,,,,,,0,,37,0
5078,set_tempo,1200000,9,1,0,,,,,,,,,,,,,
5078,note_on,,5,0,1,,,,,,,,,,0,,75,60
5084,note_on,,6,0,1,,,,,,,,,,0,,75,0
5084,note_on,,0,0,1,,,,,,,,,,0,,63,0
5088,set_tempo,952380,10,1,0,,,,,,,,,,,,,
5088,note_on,,0,0,2,,,,,,,,,,0,,61,62
5088,control_change,,40,0,3,,,,,,,,64,127,0,,,
5088,note_on,,0,0,2,,,,,,,,,,0,,56,47
5088,note_on,,12,0,2,,,,,,,,,,0,,49,42
5088,note_on,,4,0,1,,,,,,,,,,0,,65,62
5088,note_on,,0,0,1,,,,,,,,,,0,,77,67
5090,control_change,,2,0,3,,,,,,,,64,0,0,,,
5096,control_change,,6,0,3,,,,,,,,64,127,0,,,
5098,note_on,,10,0,1,,,,,,,,,,0,,65,0
5098,set_tempo,555555,10,1,0,,,,,,,,,,,,,
5098,note_on,,0,0,1,,,,,,,,,,0,,68,46
5108,note_on,,10,0,1,,,,,,,,,,0,,68,0
5108,note_on,,0,0,1,,,,,,,,,,0,,73,50
5108,set_tempo,869565,10,1,0,,,,,,,,,,,,,
5112,note_on,,24,0,2,,,,,,,,,,0,,56,0
5112,note_on,,0,0,2,,,,,,,,,,0,,57,67
5112,set_tempo,1000000,4,1,0,,,,,,,,,,,,,
5114,control_change,,18,0,3,,,,,,,,64,0,0,,,
5117,set_tempo,789473,5,1,0,,,,,,,,,,,,,
5117,note_on,,0,0,1,,,,,,,,,,0,,69,49
5117,note_on,,9,0,1,,,,,,,,,,0,,73,0
5120,control_change,,6,0,3,,,,,,,,64,127,0,,,
5126,set_tempo,800000,9,1,0,,,,,,,,,,,,,
5126,note_on,,9,0,1,,,,,,,,,,0,,73,50
5132,note_on,,6,0,1,,,,,,,,,,0,,69,0
5136,note_on,,4,0,1,,,,,,,,,,0,,73,0
5136,note_on,,0,0,1,,,,,,,,,,0,,68,61
5136,note_on,,0,0,2,,,,,,,,,,0,,56,61
5136,set_tempo,1000000,10,1,0,,,,,,,,,,,,,
5136,note_on,,24,0,2,,,,,,,,,,0,,57,0
5138,control_change,,18,0,3,,,,,,,,64,0,0,,,
5144,control_change,,6,0,3,,,,,,,,64,127,0,,,
5146,note_on,,10,0,1,,,,,,,,,,0,,68,0
5146,note_on,,0,0,1,,,,,,,,,,0,,65,54
5146,set_tempo,697674,10,1,0,,,,,,,,,,,,,
5148,note_on,,0,0,2,,,,,,,,,,0,,49,0
5148,note_on,,0,0,2,,,,,,,,,,0,,61,0
5148,note_on,,12,0,2,,,,,,,,,,0,,56,0
5156,set_tempo,1000000,10,1,0,,,,,,,,,,,,,
5156,note_on,,0,0,1,,,,,,,,,,0,,73,56
5156,note_on,,10,0,1,,,,,,,,,,0,,65,0
5160,set_tempo,697674,4,1,0,,,,,,,,,,,,,
5160,note_on,,12,0,2,,,,,,,,,,0,,44,61
5162,control_change,,18,0,3,,,,,,,,64,0,0,,,
5165,set_tempo,845070,5,1,0,,,,,,,,,,,,,
5165,note_on,,0,0,1,,,,,,,,,,0,,68,50
5165,note_on,,9,0,1,,,,,,,,,,0,,73,0
5168,control_change,,6,0,3,,,,,,,,64,127,0,,,
5172,note_on,,12,0,2,,,,,,,,,,0,,44,0
5174,note_on,,0,0,1,,,,,,,,,,0,,73,48
5174,note_on,,9,0,1,,,,,,,,,,0,,68,0
5174,set_tempo,1200000,9,1,0,,,,,,,,,,,,,
5180,note_on,,6,0,1,,,,,,,,,,0,,73,0
5180,note_on,,0,0,1,,,,,,,,,,0,,77,0
5184,set_tempo,952380,10,1,0,,,,,,,,,,,,,
5184,note_on,,4,0,1,,,,,,,,,,0,,65,57
5184,control_change,,16,0,3,,,,,,,,64,127,0,,,
5184,note_on,,12,0,2,,,,,,,,,,0,,37,45
5184,note_on,,0,0,1,,,,,,,,,,0,,77,63
5186,control_change,,2,0,3,,,,,,,,64,0,0,,,
5192,control_change,,6,0,3,,,,,,,,64,127,0,,,
5194,note_on,,10,0,1,,,,,,,,,,0,,68,46
5194,set_tempo,845070,10,1,0,,,,,,,,,,,,,
5196,note_on,,12,0,2,,,,,,,,,,0,,37,0
5204,note_on,,10,0,1,,,,,,,,,,0,,68,0
5204,note_on,,0,0,1,,,,,,,,,,0,,71,49
5204,set_tempo,869565,10,1,0,,,,,,,,,,,,,
5208,note_on,,4,0,1,,,,,,,,,,0,,65,0
5208,note_on,,12,0,2,,,,,,,,,,0,,49,32
5208,note_on,,0,0,2,,,,,,,,,,0,,56,37
5208,note_on,,0,0,2,,,,,,,,,,0,,59,43
5213,note_on,,5,0,1,,,,,,,,,,0,,63,42
5213,set_tempo,555555,9,1,0,,,,,,,,,,,,,
5216,note_on,,3,0,1,,,,,,,,,,0,,71,0
5217,note_on,,1,0,1,,,,,,,,,,0,,77,0
5222,set_tempo,952380,9,1,0,,,,,,,,,,,,,
5222,note_on,,5,0,1,,,,,,,,,,0,,75,57
5228,note_on,,0,0,1,,,,,,,,,,0,,63,0
5228,note_on,,6,0,1,,,,,,,,,,0,,75,0
5232,set_tempo,800000,10,1,0,,,,,,,,,,,,,
5232,note_on,,4,0,1,,,,,,,,,,0,,61,50
5232,note_on,,0,0,1,,,,,,,,,,0,,73,55
5242,set_tempo,659340,10,1,0,,,,,,,,,,,,,
5242,note_on,,10,0,1,,,,,,,,,,0,,68,35
5244,note_on,,36,0,2,,,,,,,,,,0,,59,0
5244,note_on,,0,0,2,,,,,,,,,,0,,56,0
5244,note_on,,0,0,2,,,,,,,,,,0,,49,0
5252,note_on,,0,0,1,,,,,,,,,,0,,71,37
5252,set_tempo,750000,10,1,0,,,,,,,,,,,,,
5252,note_on,,10,0,1,,,,,,,,,,0,,68,0
5256,note_on,,4,0,1,,,,,,,,,,0,,61,0
5256,set_tempo,500000,4,1,0,,,,,,,,,,,,,
5256,note_on,,12,0,2,,,,,,,,,,0,,44,39
5261,set_tempo,666666,5,1,0,,,,,,,,,,,,,
5261,note_on,,5,0,1,,,,,,,,,,0,,63,45
5264,note_on,,3,0,1,,,,,,,,,,0,,71,0
5265,note_on,,1,0,1,,,,,,,,,,0,,73,0
5268,note_on,,12,0,2,,,,,,,,,,0,,44,0
5270,set_tempo,845070,9,1,0,,,,,,,,,,,,,
5270,note_on,,5,0,1,,,,,,,,,,0,,75,58
5276,note_on,,6,0,1,,,,,,,,,,0,,75,0
5276,note_on,,0,0,1,,,,,,,,,,0,,63,0
5280,note_on,,12,0,2,,,,,,,,,,0,,37,55
5280,set_tempo,895522,10,1,0,,,,,,,,,,,,,
5280,note_on,,4,0,1,,,,,,,,,,0,,65,58
5280,control_change,,88,0,3,,,,,,,,64,127,0,,,
5280,note_on,,0,0,1,,,,,,,,,,0,,77,63
5282,control_change,,2,0,3,,,,,,,,64,0,0,,,
5288,control_change,,6,0,3,,,,,,,,64,127,0,,,
5290,set_tempo,606060,10,1,0,,,,,,,,,,,,,
5290,note_on,,10,0,1,,,,,,,,,,0,,71,37
5292,note_on,,12,0,2,,,,,,,,,,0,,37,0
5300,note_on,,0,0,1,,,,,,,,,,0,,73,39
5300,note_on,,10,0,1,,,,,,,,,,0,,71,0
5300,set_tempo,750000,10,1,0,,,,,,,,,,,,,
5304,note_on,,0,0,2,,,,,,,,,,0,,59,42
5304,note_on,,12,0,2,,,,,,,,,,0,,49,35
5304,note_on,,0,0,2,,,,,,,,,,0,,56,37
5304,note_on,,4,0,1,,,,,,,,,,0,,65,0
5304,set_tempo,606060,4,1,0,,,,,,,,,,,,,
5309,set_tempo,666666,5,1,0,,,,,,,,,,,,,
5309,note_on,,5,0,1,,,,,,,,,,0,,66,49
5312,note_on,,3,0,1,,,,,,,,,,0,,73,0
5313,note_on,,1,0,1,,,,,,,,,,0,,77,0
5318,note_on,,5,0,1,,,,,,,,,,0,,78,64
5318,set_tempo,952380,9,1,0,,,,,,,,,,,,,
5324,note_on,,0,0,1,,,,,,,,,,0,,66,0
5324,note_on,,6,0,1,,,,,,,,,,0,,78,0
5328,set_tempo,800000,10,1,0,,,,,,,,,,,,,
5328,note_on,,0,0,1,,,,,,,,,,0,,80,65
5328,note_on,,4,0,1,,,,,,,,,,0,,68,60
5338,set_tempo,606060,10,1,0,,,,,,,,,,,,,
5338,note_on,,10,0,1,,,,,,,,,,0,,71,42
5340,note_on,,0,0,2,,,,,,,,,,0,,49,0
5340,note_on,,0,0,2,,,,,,,,,,0,,56,0
5340,note_on,,36,0,2,,,,,,,,,,0,,59,0
5348,note_on,,0,0,1,,,,,,,,,,0,,73,44
5348,note_on,,10,0,1,,,,,,,,,,0,,71,0
5348,set_tempo,750000,10,1,0,,,,,,,,,,,,,
5352,note_on,,4,0,1,,,,,,,,,,0,,68,0
5352,set_tempo,697674,4,1,0,,,,,,,,,,,,,
5352,note_on,,12,0,2,,,,,,,,,,0,,44,45
5357,note_on,,5,0,1,,,,,,,,,,0,,70,53
5357,set_tempo,666666,5,1,0,,,,,,,,,,,,,
5360,note_on,,3,0,1,,,,,,,,,,0,,73,0
5361,note_on,,1,0,1,,,,,,,,,,0,,80,0
5364,note_on,,12,0,2,,,,,,,,,,0,,44,0
5366,note_on,,5,0,1,,,,,,,,,,0,,82,69
5366,set_tempo,1000000,9,1,0,,,,,,,,,,,,,
5372,note_on,,6,0,1,,,,,,,,,,0,,82,0
5372,note_on,,0,0,1,,,,,,,,,,0,,70,0
5376,note_on,,12,0,2,,,,,,,,,,0,,37,57
5376,control_change,,88,0,3,,,,,,,,64,127,0,,,
5376,note_on,,0,0,1,,,,,,,,,,0,,80,67
5376,note_on,,4,0,1,,,,,,,,,,0,,68,62
5376,set_tempo,895522,10,1,0,,,,,,,,,,,,,
5378,control_change,,2,0,3,,,,,,,,64,0,0,,,
5384,control_change,,6,0,3,,,,,,,,64,127,0,,,
5386,note_on,,10,0,1,,,,,,,,,,0,,71,40
5386,set_tempo,451127,10,1,0,,,,,,,,,,,,,
5388,note_on,,12,0,2,,,,,,,,,,0,,37,0
5396,note_on,,10,0,1,,,,,,,,,,0,,71,0
5396,set_tempo,631578,10,1,0,,,,,,,,,,,,,
5396,note_on,,0,0,1,,,,,,,,,,0,,73,43
5400,set_tempo,606060,4,1,0,,,,,,,,,,,,,
5400,note_on,,4,0,1,,,,,,,,,,0,,68,0
5400,note_on,,0,0,2,,,,,,,,,,0,,59,47
5400,note_on,,0,0,2,,,,,,,,,,0,,56,42
5400,note_on,,12,0,2,,,,,,,,,,0,,49,37
5405,note_on,,5,0,1,,,,,,,,,,0,,65,50
5405,set_tempo,500000,5,1,0,,,,,,,,,,,,,
5408,note_on,,3,0,1,,,,,,,,,,0,,73,0
5409,note_on,,1,0,1,,,,,,,,,,0,,80,0
5414,set_tempo,1111111,9,1,0,,,,,,,,,,,,,
5414,note_on,,5,0,1,,,,,,,,,,0,,77,64
5418,note_on,,0,0,2,,,,,,,,,,0,,56,0
5418,note_on,,0,0,2,,,,,,,,,,0,,49,0
5418,note_on,,18,0,2,,,,,,,,,,0,,59,0
5420,note_on,,6,0,1,,,,,,,,,,0,,77,0
5420,note_on,,0,0,1,,,,,,,,,,0,,65,0
5424,note_on,,0,0,2,,,,,,,,,,0,,57,47
5424,set_tempo,750000,10,1,0,,,,,,,,,,,,,
5424,note_on,,4,0,1,,,,,,,,,,0,,66,65
5424,note_on,,0,0,1,,,,,,,,,,0,,78,71
5424,note_on,,6,0,2,,,,,,,,,,0,,49,37
5424,note_on,,0,0,2,,,,,,,,,,0,,60,53
5426,control_change,,42,0,3,,,,,,,,64,0,0,,,
5432,control_change,,6,0,3,,,,,,,,64,127,0,,,
5434,note_on,,10,0,1,,,,,,,,,,0,,69,43
5434,set_tempo,500000,10,1,0,,,,,,,,,,,,,
5436,note_on,,12,0,2,,,,,,,,,,0,,60,0
5436,note_on,,0,0,2,,,,,,,,,,0,,57,0
5442,note_on,,6,0,2,,,,,,,,,,0,,49,0
5444,set_tempo,869565,10,1,0,,,,,,,,,,,,,
5444,note_on,,10,0,1,,,,,,,,,,0,,69,0
5444,note_on,,0,0,1,,,,,,,,,,0,,72,45
5448,note_on,,4,0,1,,,,,,,,,,0,,66,0
5448,note_on,,6,0,2,,,,,,,,,,0,,37,51
5453,set_tempo,555555,9,1,0,,,,,,,,,,,,,
5453,note_on,,5,0,1,,,,,,,,,,0,,63,50
5456,note_on,,3,0,1,,,,,,,,,,0,,72,0
5457,note_on,,1,0,1,,,,,,,,,,0,,78,0
5460,note_on,,12,0,2,,,,,,,,,,0,,37,0
5462,set_tempo,1111111,9,1,0,,,,,,,,,,,,,
5462,note_on,,5,0,1,,,,,,,,,,0,,75,67
5468,note_on,,6,0,1,,,,,,,,,,0,,75,0
5468,note_on,,0,0,1,,,,,,,,,,0,,63,0
5472,note_on,,0,0,2,,,,,,,,,,0,,61,55
5472,set_tempo,800000,10,1,0,,,,,,,,,,,,,
5472,control_change,,40,0,3,,,,,,,,64,127,0,,,
5472,note_on,,0,0,1,,,,,,,,,,0,,77,77
5472,note_on,,12,0,2,,,,,,,,,,0,,49,45
5472,note_on,,0,0,2,,,,,,,,,,0,,56,50
5472,note_on,,4,0,1,,,,,,,,,,0,,65,72
5474,control_change,,2,0,3,,,,,,,,64,0,0,,,
5480,control_change,,6,0,3,,,,,,,,64,127,0,,,
5482,set_tempo,555555,10,1,0,,,,,,,,,,,,,
5482,note_on,,10,0,1,,,,,,,,,,0,,68,51
5484,note_on,,0,0,2,,,,,,,,,,0,,56,0
5484,note_on,,12,0,2,,,,,,,,,,0,,61,0
5484,note_on,,0,0,2,,,,,,,,,,0,,49,0
5492,set_tempo,750000,10,1,0,,,,,,,,,,,,,
5492,note_on,,0,0,1,,,,,,,,,,0,,73,40
5492,note_on,,10,0,1,,,,,,,,,,0,,68,0
5496,note_on,,4,0,1,,,,,,,,,,0,,65,0
5496,note_on,,12,0,2,,,,,,,,,,0,,37,63
5501,note_on,,5,0,1,,,,,,,,,,0,,65,60
5501,set_tempo,555555,9,1,0,,,,,,,,,,,,,
5504,note_on,,3,0,1,,,,,,,,,,0,,73,0
5505,note_on,,1,0,1,,,,,,,,,,0,,77,0
5508,note_on,,12,0,2,,,,,,,,,,0,,37,0
5510,note_on,,5,0,1,,,,,,,,,,0,,77,77
5510,set_tempo,1071428,9,1,0,,,,,,,,,,,,,
5516,note_on,,0,0,1,,,,,,,,,,0,,65,0
5516,note_on,,6,0,1,,,,,,,,,,0,,77,0
5520,note_on,,12,0,2,,,,,,,,,,0,,55,41
5520,note_on,,0,0,2,,,,,,,,,,0,,58,46
5520,note_on,,0,0,2,,,,,,,,,,0,,64,79
5520,note_on,,4,0,1,,,,,,,,,,0,,67,79
5520,note_on,,0,0,1,,,,,,,,,,0,,79,84
5522,control_change,,42,0,3,,,,,,,,64,0,0,,,
5528,control_change,,6,0,3,,,,,,,,64,127,0,,,
5530,set_tempo,659340,20,1,0,,,,,,,,,,,,,
5530,note_on,,10,0,1,,,,,,,,,,0,,70,49
5532,note_on,,12,0,2,,,,,,,,,,0,,64,0
5532,note_on,,0,0,2,,,,,,,,,,0,,58,0
5532,note_on,,0,0,2,,,,,,,,,,0,,55,0
5540,set_tempo,869565,10,1,0,,,,,,,,,,,,,
5540,note_on,,0,0,1,,,,,,,,,,0,,76,55
5540,note_on,,10,0,1,,,,,,,,,,0,,70,0
5544,set_tempo,800000,4,1,0,,,,,,,,,,,,,
5544,note_on,,0,0,2,,,,,,,,,,0,,49,61
5544,note_on,,12,0,2,,,,,,,,,,0,,37,56
5544,note_on,,4,0,1,,,,,,,,,,0,,67,0
5549,note_on,,5,0,1,,,,,,,,,,0,,67,60
5549,set_tempo,666666,5,1,0,,,,,,,,,,,,,
5552,note_on,,3,0,1,,,,,,,,,,0,,76,0
5553,note_on,,1,0,1,,,,,,,,,,0,,79,0
5556,note_on,,12,0,2,,,,,,,,,,0,,49,0
5556,note_on,,0,0,2,,,,,,,,,,0,,37,0
5558,set_tempo,1200000,9,1,0,,,,,,,,,,,,,
5558,note_on,,5,0,1,,,,,,,,,,0,,79,76
5564,note_on,,0,0,1,,,,,,,,,,0,,67,0
5564,note_on,,6,0,1,,,,,,,,,,0,,79,0
5568,note_on,,0,0,1,,,,,,,,,,0,,80,82
5568,note_on,,0,0,2,,,,,,,,,,0,,50,60
5568,note_on,,12,0,2,,,,,,,,,,0,,38,55
5568,control_change,,40,0,3,,,,,,,,64,127,0,,,
5568,set_tempo,681818,10,1,0,,,,,,,,,,,,,
5568,note_on,,4,0,1,,,,,,,,,,0,,68,72
5570,control_change,,2,0,3,,,,,,,,64,0,0,,,
5576,control_change,,6,0,3,,,,,,,,64,127,0,,,
5580,note_on,,12,0,2,,,,,,,,,,0,,38,0
5584,note_on,,16,0,1,,,,,,,,,,0,,71,48
5584,set_tempo,952380,16,1,0,,,,,,,,,,,,,
5592,note_on,,8,0,1,,,,,,,,,,0,,71,0
5592,note_on,,12,0,2,,,,,,,,,,0,,52,41
5592,note_on,,0,0,2,,,,,,,,,,0,,56,46
5592,note_on,,0,0,2,,,,,,,,,,0,,59,51
5592,set_tempo,750000,8,1,0,,,,,,,,,,,,,
5592,note_on,,0,0,1,,,,,,,,,,0,,76,50
5596,note_on,,4,0,1,,,,,,,,,,0,,68,0
5600,set_tempo,681818,8,1,0,,,,,,,,,,,,,
5600,note_on,,4,0,1,,,,,,,,,,0,,66,54
5604,note_on,,0,0,1,,,,,,,,,,0,,80,0
5604,note_on,,4,0,1,,,,,,,,,,0,,76,0
5608,set_tempo,1153846,8,1,0,,,,,,,,,,,,,
5608,note_on,,4,0,1,,,,,,,,,,0,,78,65
5612,note_on,,0,0,1,,,,,,,,,,0,,66,0
5612,note_on,,4,0,1,,,,,,,,,,0,,78,0
5616,note_on,,0,0,1,,,,,,,,,,0,,76,80
5616,note_on,,4,0,1,,,,,,,,,,0,,64,70
5616,set_tempo,659340,8,1,0,,,,,,,,,,,,,
5628,note_on,,0,0,2,,,,,,,,,,0,,52,0
5628,note_on,,0,0,2,,,,,,,,,,0,,56,0
5628,note_on,,36,0,2,,,,,,,,,,0,,59,0
5632,note_on,,16,0,1,,,,,,,,,,0,,68,53
5632,set_tempo,750000,16,1,0,,,,,,,,,,,,,
5640,note_on,,12,0,2,,,,,,,,,,0,,52,52
5640,note_on,,0,0,2,,,,,,,,,,0,,59,64
5640,set_tempo,769230,8,1,0,,,,,,,,,,,,,
5640,note_on,,8,0,1,,,,,,,,,,0,,68,0
5640,note_on,,0,0,1,,,,,,,,,,0,,71,55
5640,note_on,,0,0,2,,,,,,,,,,0,,56,58
5644,note_on,,4,0,1,,,,,,,,,,0,,64,0
5648,set_tempo,500000,8,1,0,,,,,,,,,,,,,
5648,note_on,,4,0,1,,,,,,,,,,0,,66,66
5652,note_on,,0,0,2,,,,,,,,,,0,,50,0
5652,note_on,,0,0,2,,,,,,,,,,0,,52,0
5652,note_on,,0,0,2,,,,,,,,,,0,,56,0
5652,note_on,,4,0,1,,,,,,,,,,0,,71,0
5652,note_on,,12,0,2,,,,,,,,,,0,,59,0
5652,note_on,,0,0,1,,,,,,,,,,0,,76,0
5656,set_tempo,952380,8,1,0,,,,,,,,,,,,,
5656,note_on,,4,0,1,,,,,,,,,,0,,78,76
5660,note_on,,0,0,1,,,,,,,,,,0,,66,0
5660,note_on,,4,0,1,,,,,,,,,,0,,78,0
5664,note_on,,4,0,1,,,,,,,,,,0,,68,78
5664,set_tempo,821917,8,1,0,,,,,,,,,,,,,
5664,note_on,,0,0,1,,,,,,,,,,0,,80,86
5664,note_on,,12,0,2,,,,,,,,,,0,,38,60
5664,note_on,,0,0,2,,,,,,,,,,0,,50,70
5664,control_change,,88,0,3,,,,,,,,64,127,0,,,
5666,control_change,,2,0,3,,,,,,,,64,0,0,,,
5672,control_change,,6,0,3,,,,,,,,64,127,0,,,
5676,note_on,,12,0,2,,,,,,,,,,0,,38,0
5680,set_tempo,681818,16,1,0,,,,,,,,,,,,,
5680,note_on,,16,0,1,,,,,,,,,,0,,71,53
5688,set_tempo,631578,8,1,0,,,,,,,,,,,,,
5688,note_on,,8,0,1,,,,,,,,,,0,,71,0
5688,note_on,,0,0,1,,,,,,,,,,0,,76,53
5688,note_on,,12,0,2,,,,,,,,,,0,,52,46
5688,note_on,,0,0,2,,,,,,,,,,0,,56,51
5688,note_on,,0,0,2,,,,,,,,,,0,,59,56
5692,note_on,,4,0,1,,,,,,,,,,0,,68,0
5696,set_tempo,566037,8,1,0,,,,,,,,,,,,,
5696,note_on,,4,0,1,,,,,,,,,,0,,69,64
5700,note_on,,0,0,1,,,,,,,,,,0,,80,0
5700,note_on,,4,0,1,,,,,,,,,,0,,76,0
5704,set_tempo,952380,8,1,0,,,,,,,,,,,,,
5704,note_on,,4,0,1,,,,,,,,,,0,,81,69
5708,note_on,,4,0,1,,,,,,,,,,0,,81,0
5708,note_on,,0,0,1,,,,,,,,,,0,,69,0
5712,note_on,,4,0,1,,,,,,,,,,0,,71,83
5712,note_on,,0,0,1,,,,,,,,,,0,,83,90
5712,set_tempo,659340,8,1,0,,,,,,,,,,,,,
5724,note_on,,36,0,2,,,,,,,,,,0,,59,0
5724,note_on,,0,0,2,,,,,,,,,,0,,52,0
5724,note_on,,0,0,2,,,,,,,,,,0,,56,0
5728,note_on,,16,0,1,,,,,,,,,,0,,76,60
5728,set_tempo,631578,16,1,0,,,,,,,,,,,,,
5736,note_on,,8,0,1,,,,,,,,,,0,,76,0
5736,note_on,,0,0,1,,,,,,,,,,0,,80,67
5736,note_on,,12,0,2,,,,,,,,,,0,,52,50
5736,note_on,,0,0,2,,,,,,,,,,0,,56,55
5736,note_on,,0,0,2,,,,,,,,,,0,,59,60
5736,set_tempo,618556,8,1,0,,,,,,,,,,,,,
5740,note_on,,4,0,1,,,,,,,,,,0,,71,0
5744,set_tempo,750000,8,1,0,,,,,,,,,,,,,
5744,note_on,,4,0,1,,,,,,,,,,0,,73,75
5748,note_on,,0,0,2,,,,,,,,,,0,,50,0
5748,note_on,,0,0,2,,,,,,,,,,0,,52,0
5748,note_on,,0,0,2,,,,,,,,,,0,,56,0
5748,note_on,,12,0,2,,,,,,,,,,0,,59,0
5748,note_on,,0,0,1,,,,,,,,,,0,,83,0
5748,note_on,,4,0,1,,,,,,,,,,0,,80,0
5752,set_tempo,1000000,8,1,0,,,,,,,,,,,,,
5752,note_on,,4,0,1,,,,,,,,,,0,,85,90
5756,note_on,,0,0,1,,,,,,,,,,0,,73,0
5756,note_on,,4,0,1,,,,,,,,,,0,,85,0
5760,set_tempo,681818,8,1,0,,,,,,,,,,,,,
5760,control_change,,88,0,3,,,,,,,,64,127,0,,,
5760,note_on,,12,0,2,,,,,,,,,,0,,38,60
5760,note_on,,0,0,2,,,,,,,,,,0,,50,70
5760,note_on,,0,0,1,,,,,,,,,,0,,83,92
5760,note_on,,4,0,1,,,,,,,,,,0,,71,70
5762,control_change,,2,0,3,,,,,,,,64,0,0,,,
5768,control_change,,6,0,3,,,,,,,,64,127,0,,,
5772,note_on,,12,0,2,,,,,,,,,,0,,38,0
5776,note_on,,16,0,1,,,,,,,,,,0,,76,60
5784,note_on,,0,0,1,,,,,,,,,,0,,80,65
5784,note_on,,12,0,2,,,,,,,,,,0,,56,55
5784,note_on,,0,0,2,,,,,,,,,,0,,59,60
5784,set_tempo,869565,24,1,0,,,,,,,,,,,,,
5784,note_on,,8,0,1,,,,,,,,,,0,,76,0
5788,note_on,,4,0,1,,,,,,,,,,0,,71,0
5792,set_tempo,631578,8,1,0,,,,,,,,,,,,,
5792,note_on,,4,0,1,,,,,,,,,,0,,68,60
5796,note_on,,4,0,1,,,,,,,,,,0,,80,0
5796,note_on,,0,0,1,,,,,,,,,,0,,83,0
5800,set_tempo,869565,8,1,0,,,,,,,,,,,,,
5800,note_on,,4,0,1,,,,,,,,,,0,,80,80
5804,note_on,,4,0,1,,,,,,,,,,0,,80,0
5804,note_on,,0,0,1,,,,,,,,,,0,,68,0
5808,note_on,,0,0,2,,,,,,,,,,0,,60,82
5808,note_on,,0,0,1,,,,,,,,,,0,,81,95
5808,note_on,,4,0,1,,,,,,,,,,0,,69,75
5808,note_on,,0,0,2,,,,,,,,,,0,,56,0
5808,note_on,,24,0,2,,,,,,,,,,0,,59,0
5808,set_tempo,659340,8,1,0,,,,,,,,,,,,,
5808,note_on,,0,0,2,,,,,,,,,,0,,54,71
5810,control_change,,42,0,3,,,,,,,,64,0,0,,,
5816,control_change,,6,0,3,,,,,,,,64,127,0,,,
5820,note_on,,12,0,2,,,,,,,,,,0,,60,0
5820,note_on,,0,0,2,,,,,,,,,,0,,54,0
5820,note_on,,0,0,2,,,,,,,,,,0,,50,0
5824,set_tempo,681818,16,1,0,,,,,,,,,,,,,
5824,note_on,,16,0,1,,,,,,,,,,0,,72,65
5832,note_on,,8,0,1,,,,,,,,,,0,,72,0
5832,note_on,,0,0,1,,,,,,,,,,0,,78,69
5832,set_tempo,821917,8,1,0,,,,,,,,,,,,,
5832,note_on,,12,0,2,,,,,,,,,,0,,38,69
5836,note_on,,4,0,1,,,,,,,,,,0,,69,0
5840,note_on,,4,0,1,,,,,,,,,,0,,66,69
5840,set_tempo,697674,8,1,0,,,,,,,,,,,,,
5844,note_on,,12,0,2,,,,,,,,,,0,,38,0
5844,note_on,,4,0,1,,,,,,,,,,0,,78,0
5844,note_on,,0,0,1,,,,,,,,,,0,,81,0
5848,set_tempo,869565,8,1,0,,,,,,,,,,,,,
5848,note_on,,4,0,1,,,,,,,,,,0,,78,80
5852,note_on,,4,0,1,,,,,,,,,,0,,78,0
5852,note_on,,0,0,1,,,,,,,,,,0,,66,0
5856,note_on,,0,0,2,,,,,,,,,,0,,59,79
5856,set_tempo,659340,8,1,0,,,,,,,,,,,,,
5856,note_on,,0,0,1,,,,,,,,,,0,,80,87
5856,note_on,,4,0,1,,,,,,,,,,0,,68,79
5856,note_on,,0,0,2,,,,,,,,,,0,,52,53
5856,note_on,,0,0,2,,,,,,,,,,0,,56,56
5856,note_on,,12,0,2,,,,,,,,,,0,,50,35
5856,control_change,,40,0,3,,,,,,,,64,127,0,,,
5858,control_change,,2,0,3,,,,,,,,64,0,0,,,
5864,control_change,,6,0,3,,,,,,,,64,127,0,,,
5872,note_on,,0,0,1,,,,,,,,,,0,,71,60
5872,note_on,,16,0,1,,,,,,,,,,0,,68,0
5872,set_tempo,821917,16,1,0,,,,,,,,,,,,,
5880,set_tempo,750000,8,1,0,,,,,,,,,,,,,
5880,note_on,,0,0,1,,,,,,,,,,0,,76,63
5880,note_on,,24,0,2,,,,,,,,,,0,,59,0
5880,note_on,,8,0,1,,,,,,,,,,0,,71,0
5880,note_on,,0,0,2,,,,,,,,,,0,,60,80
5882,control_change,,18,0,3,,,,,,,,64,0,0,,,
5888,control_change,,6,0,3,,,,,,,,64,127,0,,,
5888,set_tempo,869565,8,1,0,,,,,,,,,,,,,
5888,note_on,,8,0,1,,,,,,,,,,0,,76,0
5888,note_on,,0,0,1,,,,,,,,,,0,,72,60
5896,set_tempo,769230,8,1,0,,,,,,,,,,,,,
5896,note_on,,8,0,1,,,,,,,,,,0,,72,0
5896,note_on,,0,0,1,,,,,,,,,,0,,76,62
5904,note_on,,0,0,2,,,,,,,,,,0,,59,62
5904,set_tempo,789473,8,1,0,,,,,,,,,,,,,
5904,note_on,,8,0,1,,,,,,,,,,0,,76,0
5904,note_on,,0,0,1,,,,,,,,,,0,,71,58
5904,note_on,,24,0,2,,,,,,,,,,0,,60,0
5906,control_change,,18,0,3,,,,,,,,64,0,0,,,
5912,control_change,,6,0,3,,,,,,,,64,127,0,,,
5916,note_on,,12,0,2,,,,,,,,,,0,,56,0
5920,note_on,,0,0,1,,,,,,,,,,0,,68,58
5920,set_tempo,750000,16,1,0,,,,,,,,,,,,,
5920,note_on,,16,0,1,,,,,,,,,,0,,71,0
5928,note_on,,0,0,2,,,,,,,,,,0,,56,60
5928,note_on,,12,0,2,,,,,,,,,,0,,59,0
5928,set_tempo,769230,8,1,0,,,,,,,,,,,,,
5928,note_on,,8,0,1,,,,,,,,,,0,,68,0
5928,note_on,,0,0,1,,,,,,,,,,0,,76,70
5930,control_change,,18,0,3,,,,,,,,64,0,0,,,
5936,note_on,,8,0,1,,,,,,,,,,0,,76,0
5936,set_tempo,750000,8,1,0,,,,,,,,,,,,,
5936,note_on,,0,0,1,,,,,,,,,,0,,71,60
5936,control_change,,6,0,3,,,,,,,,64,127,0,,,
5940,note_on,,0,0,2,,,,,,,,,,0,,50,0
5940,note_on,,0,0,2,,,,,,,,,,0,,52,0
5940,note_on,,12,0,2,,,,,,,,,,0,,56,0
5944,set_tempo,1000000,8,1,0,,,,,,,,,,,,,
5944,note_on,,8,0,1,,,,,,,,,,0,,71,0
5944,note_on,,0,0,1,,,,,,,,,,0,,76,59
5948,note_on,,0,0,1,,,,,,,,,,0,,80,0
5948,note_on,,4,0,1,,,,,,,,,,0,,76,0
5952,control_change,,16,0,3,,,,,,,,64,127,0,,,
5952,note_on,,12,0,2,,,,,,,,,,0,,38,62
5952,note_on,,0,0,1,,,,,,,,,,0,,80,88
5952,note_on,,4,0,1,,,,,,,,,,0,,68,80
5952,set_tempo,845070,8,1,0,,,,,,,,,,,,,
5952,note_on,,0,0,2,,,,,,,,,,0,,50,72
5954,control_change,,2,0,3,,,,,,,,64,0,0,,,
5960,control_change,,6,0,3,,,,,,,,64,127,0,,,
5964,note_on,,12,0,2,,,,,,,,,,0,,38,0
5968,note_on,,16,0,1,,,,,,,,,,0,,71,60
5968,set_tempo,952380,16,1,0,,,,,,,,,,,,,
5976,note_on,,12,0,2,,,,,,,,,,0,,52,50
5976,note_on,,0,0,2,,,,,,,,,,0,,56,55
5976,note_on,,0,0,2,,,,,,,,,,0,,59,60
5976,set_tempo,923076,8,1,0,,,,,,,,,,,,,
5976,note_on,,8,0,1,,,,,,,,,,0,,71,0
5976,note_on,,0,0,1,,,,,,,,,,0,,76,62
5980,note_on,,4,0,1,,,,,,,,,,0,,68,0
5984,set_tempo,681818,8,1,0,,,,,,,,,,,,,
5984,note_on,,4,0,1,,,,,,,,,,0,,66,60
5988,note_on,,0,0,1,,,,,,,,,,0,,80,0
5988,note_on,,4,0,1,,,,,,,,,,0,,76,0
5992,note_on,,4,0,1,,,,,,,,,,0,,78,80
5992,set_tempo,952380,8,1,0,,,,,,,,,,,,,
5996,note_on,,4,0,1,,,,,,,,,,0,,78,0
5996,note_on,,0,0,1,,,,,,,,,,0,,66,0
6000,note_on,,4,0,1,,,,,,,,,,0,,64,80
6000,set_tempo,631578,8,1,0,,,,,,,,,,,,,
6000,note_on,,0,0,1,,,,,,,,,,0,,76,87
6012,note_on,,0,0,2,,,,,,,,,,0,,52,0
6012,note_on,,0,0,2,,,,,,,,,,0,,56,0
6012,note_on,,36,0,2,,,,,,,,,,0,,59,0
6016,note_on,,16,0,1,,,,,,,,,,0,,68,63
6016,set_tempo,821917,16,1,0,,,,,,,,,,,,,
6024,note_on,,0,0,2,,,,,,,,,,0,,56,59
6024,note_on,,8,0,1,,,,,,,,,,0,,68,0
6024,note_on,,0,0,1,,,,,,,,,,0,,71,64
6024,set_tempo,631578,8,1,0,,,,,,,,,,,,,
6024,note_on,,0,0,2,,,,,,,,,,0,,59,64
6024,note_on,,12,0,2,,,,,,,,,,0,,52,55
6028,note_on,,4,0,1,,,,,,,,,,0,,64,0
6032,set_tempo,681818,8,1,0,,,,,,,,,,,,,
6032,note_on,,4,0,1,,,,,,,,,,0,,66,62
6036,note_on,,0,0,1,,,,,,,,,,0,,76,0
6036,note_on,,4,0,1,,,,,,,,,,0,,71,0
6036,note_on,,0,0,2,,,,,,,,,,0,,50,0
6036,note_on,,12,0,2,,,,,,,,,,0,,59,0
6036,note_on,,0,0,2,,,,,,,,,,0,,52,0
6036,note_on,,0,0,2,,,,,,,,,,0,,56,0
6040,set_tempo,1000000,8,1,0,,,,,,,,,,,,,
6040,note_on,,4,0,1,,,,,,,,,,0,,78,85
6044,note_on,,4,0,1,,,,,,,,,,0,,78,0
6044,note_on,,0,0,1,,,,,,,,,,0,,66,0
6048,note_on,,4,0,1,,,,,,,,,,0,,68,80
6048,note_on,,0,0,1,,,,,,,,,,0,,80,90
6048,control_change,,88,0,3,,,,,,,,64,127,0,,,
6048,note_on,,12,0,2,,,,,,,,,,0,,38,70
6048,note_on,,0,0,2,,,,,,,,,,0,,50,75
6048,set_tempo,789473,8,1,0,,,,,,,,,,,,,
6050,control_change,,2,0,3,,,,,,,,64,0,0,,,
6056,control_change,,6,0,3,,,,,,,,64,127,0,,,
6060,note_on,,0,0,2,,,,,,,,,,0,,38,0
6060,note_on,,12,0,2,,,,,,,,,,0,,50,0
6064,note_on,,16,0,1,,,,,,,,,,0,,71,68
6064,set_tempo,631578,16,1,0,,,,,,,,,,,,,
6072,note_on,,0,0,1,,,,,,,,,,0,,76,68
6072,note_on,,8,0,1,,,,,,,,,,0,,71,0
6072,note_on,,12,0,2,,,,,,,,,,0,,52,45
6072,note_on,,0,0,2,,,,,,,,,,0,,56,50
6072,note_on,,0,0,2,,,,,,,,,,0,,59,55
6072,set_tempo,821917,8,1,0,,,,,,,,,,,,,
6076,note_on,,4,0,1,,,,,,,,,,0,,68,0
6080,set_tempo,631578,8,1,0,,,,,,,,,,,,,
6080,note_on,,4,0,1,,,,,,,,,,0,,69,62
6084,note_on,,0,0,1,,,,,,,,,,0,,80,0
6084,note_on,,4,0,1,,,,,,,,,,0,,76,0
6088,note_on,,4,0,1,,,,,,,,,,0,,81,88
6088,set_tempo,1000000,8,1,0,,,,,,,,,,,,,
6092,note_on,,4,0,1,,,,,,,,,,0,,81,0
6092,note_on,,0,0,1,,,,,,,,,,0,,69,0
6096,note_on,,0,0,1,,,,,,,,,,0,,83,95
6096,note_on,,4,0,1,,,,,,,,,,0,,71,83
6096,set_tempo,631578,8,1,0,,,,,,,,,,,,,
6108,note_on,,0,0,2,,,,,,,,,,0,,52,0
6108,note_on,,0,0,2,,,,,,,,,,0,,56,0
6108,note_on,,36,0,2,,,,,,,,,,0,,59,0
6112,note_on,,16,0,1,,,,,,,,,,0,,76,68
6112,set_tempo,750000,16,1,0,,,,,,,,,,,,,
6120,note_on,,0,0,2,,,,,,,,,,0,,59,66
6120,note_on,,12,0,2,,,,,,,,,,0,,56,61
6120,note_on,,8,0,1,,,,,,,,,,0,,76,0
6120,note_on,,0,0,1,,,,,,,,,,0,,80,70
6120,set_tempo,821917,8,1,0,,,,,,,,,,,,,
6124,note_on,,4,0,1,,,,,,,,,,0,,71,0
6128,set_tempo,731707,8,1,0,,,,,,,,,,,,,
6128,note_on,,4,0,1,,,,,,,,,,0,,73,70
6132,note_on,,0,0,2,,,,,,,,,,0,,56,0
6132,note_on,,12,0,2,,,,,,,,,,0,,59,0
6132,note_on,,0,0,1,,,,,,,,,,0,,83,0
6132,note_on,,4,0,1,,,,,,,,,,0,,80,0
6136,set_tempo,1250000,8,1,0,,,,,,,,,,,,,
6136,note_on,,4,0,1,,,,,,,,,,0,,85,93
6140,note_on,,4,0,1,,,,,,,,,,0,,85,0
6140,note_on,,0,0,1,,,,,,,,,,0,,73,0
6144,note_on,,4,0,1,,,,,,,,,,0,,74,93
6144,note_on,,0,0,1,,,,,,,,,,0,,86,101
6144,note_on,,0,0,2,,,,,,,,,,0,,49,90
6144,note_on,,12,0,2,,,,,,,,,,0,,37,80
6144,control_change,,88,0,3,,,,,,,,64,127,0,,,
6144,set_tempo,845070,8,1,0,,,,,,,,,,,,,
6146,control_change,,2,0,3,,,,,,,,64,0,0,,,
6152,control_change,,6,0,3,,,,,,,,64,127,0,,,
6156,note_on,,0,0,2,,,,,,,,,,0,,37,0
6156,note_on,,12,0,2,,,,,,,,,,0,,49,0
6160,note_on,,16,0,1,,,,,,,,,,0,,77,68
6160,set_tempo,631578,16,1,0,,,,,,,,,,,,,
6168,note_on,,0,0,2,,,,,,,,,,0,,65,65
6168,note_on,,0,0,2,,,,,,,,,,0,,59,60
6168,note_on,,12,0,2,,,,,,,,,,0,,56,55
6168,set_tempo,566037,8,1,0,,,,,,,,,,,,,
6168,note_on,,0,0,1,,,,,,,,,,0,,80,68
6168,note_on,,8,0,1,,,,,,,,,,0,,77,0
6172,note_on,,4,0,1,,,,,,,,,,0,,74,0
6176,note_on,,4,0,1,,,,,,,,,,0,,73,80
6176,set_tempo,500000,8,1,0,,,,,,,,,,,,,
6180,note_on,,12,0,2,,,,,,,,,,0,,65,0
6180,note_on,,4,0,1,,,,,,,,,,0,,80,0
6180,note_on,,0,0,1,,,,,,,,,,0,,86,0
6180,note_on,,0,0,2,,,,,,,,,,0,,59,0
6180,note_on,,0,0,2,,,,,,,,,,0,,56,0
6184,set_tempo,1000000,8,1,0,,,,,,,,,,,,,
6184,note_on,,4,0,1,,,,,,,,,,0,,85,95
6188,note_on,,0,0,1,,,,,,,,,,0,,73,0
6188,note_on,,4,0,1,,,,,,,,,,0,,85,0
6192,note_on,,4,0,1,,,,,,,,,,0,,74,88
6192,note_on,,12,0,2,,,,,,,,,,0,,37,80
6192,note_on,,0,0,1,,,,,,,,,,0,,86,98
6192,note_on,,0,0,2,,,,,,,,,,0,,49,90
6192,set_tempo,789473,8,1,0,,,,,,,,,,,,,
6194,control_change,,42,0,3,,,,,,,,64,0,0,,,
6200,control_change,,6,0,3,,,,,,,,64,127,0,,,
6204,note_on,,12,0,2,,,,,,,,,,0,,49,0
6204,note_on,,0,0,2,,,,,,,,,,0,,37,0
6208,note_on,,16,0,1,,,,,,,,,,0,,78,43
6208,set_tempo,441176,16,1,0,,,,,,,,,,,,,
6216,note_on,,0,0,1,,,,,,,,,,0,,81,62
6216,note_on,,0,0,2,,,,,,,,,,0,,66,74
6216,set_tempo,566037,8,1,0,,,,,,,,,,,,,
6216,note_on,,8,0,1,,,,,,,,,,0,,78,0
6216,note_on,,12,0,2,,,,,,,,,,0,,57,69
6220,note_on,,4,0,1,,,,,,,,,,0,,74,0
6224,note_on,,4,0,1,,,,,,,,,,0,,73,66
6224,set_tempo,750000,8,1,0,,,,,,,,,,,,,
6228,note_on,,0,0,2,,,,,,,,,,0,,57,0
6228,note_on,,12,0,2,,,,,,,,,,0,,66,0
6228,note_on,,0,0,1,,,,,,,,,,0,,86,0
6228,note_on,,4,0,1,,,,,,,,,,0,,81,0
6232,note_on,,4,0,1,,,,,,,,,,0,,85,95
6232,set_tempo,895522,8,1,0,,,,,,,,,,,,,
6236,note_on,,0,0,1,,,,,,,,,,0,,73,0
6236,note_on,,4,0,1,,,,,,,,,,0,,85,0
6240,note_on,,0,0,1,,,,,,,,,,0,,86,103
6240,note_on,,4,0,1,,,,,,,,,,0,,74,95
6240,set_tempo,821917,8,1,0,,,,,,,,,,,,,
6240,control_change,,40,0,3,,,,,,,,64,127,0,,,
6240,note_on,,12,0,2,,,,,,,,,,0,,37,80
6240,note_on,,0,0,2,,,,,,,,,,0,,49,90
6242,control_change,,2,0,3,,,,,,,,64,0,0,,,
6248,control_change,,6,0,3,,,,,,,,64,127,0,,,
6252,note_on,,0,0,2,,,,,,,,,,0,,37,0
6252,note_on,,12,0,2,,,,,,,,,,0,,49,0
6256,note_on,,16,0,1,,,,,,,,,,0,,77,62
6256,set_tempo,500000,16,1,0,,,,,,,,,,,,,
6264,note_on,,0,0,2,,,,,,,,,,0,,65,64
6264,note_on,,8,0,1,,,,,,,,,,0,,77,0
6264,set_tempo,681818,8,1,0,,,,,,,,,,,,,
6264,note_on,,12,0,2,,,,,,,,,,0,,56,54
6264,note_on,,0,0,1,,,,,,,,,,0,,80,67
6264,note_on,,0,0,2,,,,,,,,,,0,,61,59
6268,note_on,,4,0,1,,,,,,,,,,0,,74,0
6272,note_on,,4,0,1,,,,,,,,,,0,,73,70
6272,set_tempo,631578,8,1,0,,,,,,,,,,,,,
6276,note_on,,0,0,2,,,,,,,,,,0,,61,0
6276,note_on,,4,0,1,,,,,,,,,,0,,80,0
6276,note_on,,0,0,1,,,,,,,,,,0,,86,0
6276,note_on,,12,0,2,,,,,,,,,,0,,65,0
6276,note_on,,0,0,2,,,,,,,,,,0,,56,0
6280,set_tempo,1250000,8,1,0,,,,,,,,,,,,,
6280,note_on,,4,0,1,,,,,,,,,,0,,85,100
6284,note_on,,4,0,1,,,,,,,,,,0,,85,0
6284,note_on,,0,0,1,,,,,,,,,,0,,73,0
6288,note_on,,4,0,1,,,,,,,,,,0,,76,98
6288,note_on,,0,0,1,,,,,,,,,,0,,88,108
6288,set_tempo,1000000,8,1,0,,,,,,,,,,,,,
6288,note_on,,12,0,2,,,,,,,,,,0,,37,80
6288,note_on,,0,0,2,,,,,,,,,,0,,49,90
6290,control_change,,42,0,3,,,,,,,,64,0,0,,,
6296,control_change,,6,0,3,,,,,,,,64,127,0,,,
6300,note_on,,12,0,2,,,,,,,,,,0,,49,0
6300,note_on,,0,0,2,,,,,,,,,,0,,37,0
6304,set_tempo,869565,16,1,0,,,,,,,,,,,,,
6304,note_on,,16,0,1,,,,,,,,,,0,,78,50
6312,note_on,,0,0,1,,,,,,,,,,0,,81,56
6312,note_on,,8,0,1,,,,,,,,,,0,,78,0
6312,note_on,,12,0,2,,,,,,,,,,0,,54,58
6312,note_on,,0,0,2,,,,,,,,,,0,,57,62
6312,note_on,,0,0,2,,,,,,,,,,0,,62,66
6312,set_tempo,631578,8,1,0,,,,,,,,,,,,,
6316,note_on,,4,0,1,,,,,,,,,,0,,76,0
6320,set_tempo,750000,8,1,0,,,,,,,,,,,,,
6320,note_on,,4,0,1,,,,,,,,,,0,,74,75
6324,note_on,,0,0,2,,,,,,,,,,0,,57,0
6324,note_on,,0,0,2,,,,,,,,,,0,,54,0
6324,note_on,,0,0,1,,,,,,,,,,0,,88,0
6324,note_on,,4,0,1,,,,,,,,,,0,,81,0
6324,note_on,,12,0,2,,,,,,,,,,0,,62,0
6328,set_tempo,1071428,8,1,0,,,,,,,,,,,,,
6328,note_on,,4,0,1,,,,,,,,,,0,,86,95
6332,note_on,,0,0,1,,,,,,,,,,0,,74,0
6332,note_on,,4,0,1,,,,,,,,,,0,,86,0
6336,set_tempo,821917,8,1,0,,,,,,,,,,,,,
6336,note_on,,0,0,2,,,,,,,,,,0,,49,85
6336,note_on,,12,0,2,,,,,,,,,,0,,37,75
6336,control_change,,40,0,3,,,,,,,,64,127,0,,,
6336,note_on,,4,0,1,,,,,,,,,,0,,74,93
6336,note_on,,0,0,1,,,,,,,,,,0,,86,100
6338,control_change,,2,0,3,,,,,,,,64,0,0,,,
6344,control_change,,6,0,3,,,,,,,,64,127,0,,,
6348,note_on,,0,0,2,,,,,,,,,,0,,37,0
6348,note_on,,12,0,2,,,,,,,,,,0,,49,0
6352,set_tempo,500000,16,1,0,,,,,,,,,,,,,
6352,note_on,,16,0,1,,,,,,,,,,0,,77,52
6360,note_on,,0,0,2,,,,,,,,,,0,,61,62
6360,note_on,,12,0,2,,,,,,,,,,0,,53,55
6360,set_tempo,750000,8,1,0,,,,,,,,,,,,,
6360,note_on,,0,0,1,,,,,,,,,,0,,80,55
6360,note_on,,8,0,1,,,,,,,,,,0,,77,0
6364,note_on,,4,0,1,,,,,,,,,,0,,74,0
6368,note_on,,4,0,1,,,,,,,,,,0,,73,66
6368,set_tempo,631578,8,1,0,,,,,,,,,,,,,
6372,note_on,,0,0,2,,,,,,,,,,0,,53,0
6372,note_on,,12,0,2,,,,,,,,,,0,,61,0
6372,note_on,,4,0,1,,,,,,,,,,0,,80,0
6372,note_on,,0,0,1,,,,,,,,,,0,,86,0
6376,set_tempo,1818181,8,1,0,,,,,,,,,,,,,
6376,note_on,,4,0,1,,,,,,,,,,0,,85,85
6380,note_on,,0,0,1,,,,,,,,,,0,,73,0
6380,note_on,,4,0,1,,,,,,,,,,0,,85,0
6384,note_on,,12,0,2,,,,,,,,,,0,,32,80
6384,note_on,,0,0,2,,,,,,,,,,0,,44,90
6384,note_on,,0,0,1,,,,,,,,,,0,,85,90
6384,note_on,,4,0,1,,,,,,,,,,0,,73,80
6384,set_tempo,923076,8,1,0,,,,,,,,,,,,,
6386,control_change,,42,0,3,,,,,,,,64,0,0,,,
6392,control_change,,6,0,3,,,,,,,,64,127,0,,,
6396,note_on,,0,0,2,,,,,,,,,,0,,32,0
6396,note_on,,12,0,2,,,,,,,,,,0,,44,0
6400,set_tempo,750000,16,1,0,,,,,,,,,,,,,
6400,note_on,,16,0,1,,,,,,,,,,0,,74,50
6408,set_tempo,769230,8,1,0,,,,,,,,,,,,,
6408,note_on,,8,0,1,,,,,,,,,,0,,74,0
6408,note_on,,0,0,2,,,,,,,,,,0,,59,75
6408,note_on,,12,0,2,,,,,,,,,,0,,54,65
6408,note_on,,0,0,1,,,,,,,,,,0,,78,55
6412,note_on,,4,0,1,,,,,,,,,,0,,73,0
6416,set_tempo,566037,8,1,0,,,,,,,,,,,,,
6416,note_on,,4,0,1,,,,,,,,,,0,,71,70
6420,note_on,,0,0,1,,,,,,,,,,0,,85,0
6420,note_on,,4,0,1,,,,,,,,,,0,,78,0
6424,set_tempo,1200000,8,1,0,,,,,,,,,,,,,
6424,note_on,,4,0,1,,,,,,,,,,0,,83,85
6428,note_on,,0,0,1,,,,,,,,,,0,,71,0
6428,note_on,,4,0,1,,,,,,,,,,0,,83,0
6432,set_tempo,750000,8,1,0,,,,,,,,,,,,,
6432,note_on,,0,0,1,,,,,,,,,,0,,81,80
6432,note_on,,4,0,1,,,,,,,,,,0,,69,70
6432,control_change,,40,0,3,,,,,,,,64,127,0,,,
6444,note_on,,0,0,2,,,,,,,,,,0,,54,0
6444,note_on,,36,0,2,,,,,,,,,,0,,59,0
6448,note_on,,16,0,1,,,,,,,,,,0,,71,50
6448,set_tempo,631578,16,1,0,,,,,,,,,,,,,
6456,set_tempo,869565,8,1,0,,,,,,,,,,,,,
6456,note_on,,0,0,1,,,,,,,,,,0,,74,54
6456,note_on,,8,0,1,,,,,,,,,,0,,71,0
6456,note_on,,0,0,2,,,,,,,,,,0,,59,65
6456,note_on,,12,0,2,,,,,,,,,,0,,54,58
6458,control_change,,26,0,3,,,,,,,,64,0,0,,,
6460,note_on,,4,0,1,,,,,,,,,,0,,69,0
6464,set_tempo,631578,8,1,0,,,,,,,,,,,,,
6464,note_on,,4,0,1,,,,,,,,,,0,,68,54
6464,control_change,,6,0,3,,,,,,,,64,127,0,,,
6468,note_on,,0,0,1,,,,,,,,,,0,,81,0
6468,note_on,,4,0,1,,,,,,,,,,0,,74,0
6472,note_on,,4,0,1,,,,,,,,,,0,,80,72
6472,set_tempo,1000000,8,1,0,,,,,,,,,,,,,
6476,note_on,,0,0,1,,,,,,,,,,0,,68,0
6476,note_on,,4,0,1,,,,,,,,,,0,,80,0
6480,note_on,,24,0,2,,,,,,,,,,0,,47,65
6480,set_tempo,681818,8,1,0,,,,,,,,,,,,,
6480,note_on,,0,0,1,,,,,,,,,,0,,80,82
6480,note_on,,4,0,1,,,,,,,,,,0,,68,74
6482,control_change,,18,0,3,,,,,,,,64,0,0,,,
6488,control_change,,6,0,3,,,,,,,,64,127,0,,,
6492,note_on,,12,0,2,,,,,,,,,,0,,59,0
6492,note_on,,0,0,2,,,,,,,,,,0,,54,0
6496,set_tempo,750000,16,1,0,,,,,,,,,,,,,
6496,note_on,,16,0,1,,,,,,,,,,0,,71,41
6504,note_on,,12,0,2,,,,,,,,,,0,,56,58
6504,note_on,,8,0,1,,,,,,,,,,0,,71,0
6504,set_tempo,952380,8,1,0,,,,,,,,,,,,,
6504,note_on,,0,0,1,,,,,,,,,,0,,74,57
6508,note_on,,4,0,1,,,,,,,,,,0,,68,0
6512,set_tempo,631578,8,1,0,,,,,,,,,,,,,
6512,note_on,,4,0,1,,,,,,,,,,0,,66,49
6516,note_on,,0,0,1,,,,,,,,,,0,,80,0
6516,note_on,,4,0,1,,,,,,,,,,0,,74,0
6516,note_on,,0,0,2,,,,,,,,,,0,,47,0
6516,note_on,,12,0,2,,,,,,,,,,0,,56,0
6520,note_on,,4,0,1,,,,,,,,,,0,,78,60
6520,set_tempo,1538461,8,1,0,,,,,,,,,,,,,
6524,note_on,,0,0,1,,,,,,,,,,0,,66,0
6524,note_on,,4,0,1,,,,,,,,,,0,,78,0
6526,control_change,,38,0,3,,,,,,,,64,0,0,,,
6528,note_on,,0,0,1,,,,,,,,,,0,,78,79
6528,set_tempo,869565,8,1,0,,,,,,,,,,,,,
6528,note_on,,4,0,1,,,,,,,,,,0,,66,72
6528,note_on,,12,0,2,,,,,,,,,,0,,37,70
6528,control_change,,2,0,3,,,,,,,,64,0,0,,,
6536,control_change,,8,0,3,,,,,,,,64,127,0,,,
6540,note_on,,12,0,2,,,,,,,,,,0,,37,0
6544,note_on,,16,0,1,,,,,,,,,,0,,68,53
6544,set_tempo,681818,16,1,0,,,,,,,,,,,,,
6552,note_on,,12,0,2,,,,,,,,,,0,,49,46
6552,note_on,,0,0,1,,,,,,,,,,0,,71,39
6552,set_tempo,869565,8,1,0,,,,,,,,,,,,,
6552,note_on,,8,0,1,,,,,,,,,,0,,68,0
6552,note_on,,0,0,2,,,,,,,,,,0,,56,53
6556,note_on,,4,0,1,,,,,,,,,,0,,66,0
6560,set_tempo,681818,8,1,0,,,,,,,,,,,,,
6560,note_on,,4,0,1,,,,,,,,,,0,,65,65
6564,note_on,,0,0,1,,,,,,,,,,0,,78,0
6564,note_on,,4,0,1,,,,,,,,,,0,,71,0
6568,note_on,,4,0,1,,,,,,,,,,0,,77,70
6568,set_tempo,1333333,8,1,0,,,,,,,,,,,,,
6572,note_on,,0,0,1,,,,,,,,,,0,,65,0
6572,note_on,,4,0,1,,,,,,,,,,0,,77,0
6576,note_on,,0,0,2,,,,,,,,,,0,,62,62
6576,note_on,,4,0,1,,,,,,,,,,0,,74,72
6576,set_tempo,750000,8,1,0,,,,,,,,,,,,,
6576,note_on,,24,0,2,,,,,,,,,,0,,56,0
6576,note_on,,0,0,2,,,,,,,,,,0,,49,0
6578,control_change,,42,0,3,,,,,,,,64,0,0,,,
6584,control_change,,6,0,3,,,,,,,,64,127,0,,,
6592,set_tempo,821917,16,1,0,,,,,,,,,,,,,
6592,note_on,,16,0,1,,,,,,,,,,0,,65,38
6600,set_tempo,750000,8,1,0,,,,,,,,,,,,,
6600,note_on,,24,0,2,,,,,,,,,,0,,62,0
6600,note_on,,8,0,1,,,,,,,,,,0,,65,0
6600,note_on,,0,0,1,,,,,,,,,,0,,68,42
6602,control_change,,18,0,3,,,,,,,,64,0,0,,,
6608,set_tempo,441176,8,1,0,,,,,,,,,,,,,
6608,note_on,,8,0,1,,,,,,,,,,0,,61,50
6612,note_on,,4,0,1,,,,,,,,,,0,,68,0
6612,note_on,,0,0,1,,,,,,,,,,0,,74,0
6616,set_tempo,1250000,8,1,0,,,,,,,,,,,,,
6616,note_on,,4,0,1,,,,,,,,,,0,,73,65
6620,note_on,,4,0,1,,,,,,,,,,0,,73,0
6620,note_on,,0,0,1,,,,,,,,,,0,,61,0
6624,set_tempo,750000,8,1,0,,,,,,,,,,,,,
6624,note_on,,0,0,1,,,,,,,,,,0,,74,70
6624,note_on,,4,0,1,,,,,,,,,,0,,62,60
6624,control_change,,22,0,3,,,,,,,,64,0,0,,,
6632,control_change,,8,0,3,,,,,,,,64,127,0,,,
6640,set_tempo,821917,16,1,0,,,,,,,,,,,,,
6640,note_on,,16,0,1,,,,,,,,,,0,,65,38
6648,note_on,,0,0,1,,,,,,,,,,0,,68,42
6648,set_tempo,800000,8,1,0,,,,,,,,,,,,,
6648,note_on,,8,0,1,,,,,,,,,,0,,65,0
6652,note_on,,4,0,1,,,,,,,,,,0,,62,0
6656,set_tempo,1304347,8,1,0,,,,,,,,,,,,,
6656,note_on,,4,0,1,,,,,,,,,,0,,61,51
6660,note_on,,0,0,1,,,,,,,,,,0,,73,51
6660,set_tempo,2000000,4,1,0,,,,,,,,,,,,,
6660,note_on,,0,0,1,,,,,,,,,,0,,74,0
6660,note_on,,4,0,1,,,,,,,,,,0,,68,0
6664,note_on,,4,0,1,,,,,,,,,,0,,61,0
6664,note_on,,64,0,2,,,,,,,,,,0,,42,45
6664,set_tempo,750000,4,1,0,,,,,,,,,,,,,
6668,set_tempo,631578,4,1,0,,,,,,,,,,,,,
6668,note_on,,4,0,2,,,,,,,,,,0,,49,50
6668,note_on,,4,0,1,,,,,,,,,,0,,73,0
6672,note_on,,4,0,1,,,,,,,,,,0,,62,59
6672,note_on,,4,0,2,,,,,,,,,,0,,42,0
6672,note_on,,0,0,1,,,,,,,,,,0,,74,75
6672,set_tempo,750000,4,1,0,,,,,,,,,,,,,
6672,note_on,,0,0,2,,,,,,,,,,0,,57,60
6674,control_change,,42,0,3,,,,,,,,64,0,0,,,
6680,control_change,,6,0,3,,,,,,,,64,127,0,,,
6688,set_tempo,681818,16,1,0,,,,,,,,,,,,,
6688,note_on,,16,0,1,,,,,,,,,,0,,66,40
6696,set_tempo,821917,8,1,0,,,,,,,,,,,,,
6696,note_on,,0,0,2,,,,,,,,,,0,,49,0
6696,note_on,,8,0,1,,,,,,,,,,0,,66,0
6696,note_on,,0,0,1,,,,,,,,,,0,,69,44
6696,note_on,,24,0,2,,,,,,,,,,0,,57,0
6700,note_on,,4,0,1,,,,,,,,,,0,,62,0
6704,note_on,,4,0,1,,,,,,,,,,0,,61,52
6704,set_tempo,1250000,8,1,0,,,,,,,,,,,,,
6708,note_on,,0,0,1,,,,,,,,,,0,,73,53
6708,note_on,,0,0,1,,,,,,,,,,0,,74,0
6708,note_on,,4,0,1,,,,,,,,,,0,,69,0
6708,set_tempo,2000000,4,1,0,,,,,,,,,,,,,
6712,set_tempo,769230,4,1,0,,,,,,,,,,,,,
6712,note_on,,16,0,2,,,,,,,,,,0,,37,42
6712,note_on,,4,0,1,,,,,,,,,,0,,61,0
6716,set_tempo,750000,4,1,0,,,,,,,,,,,,,
6716,note_on,,4,0,2,,,,,,,,,,0,,44,50
6716,note_on,,4,0,1,,,,,,,,,,0,,73,0
6720,control_change,,40,0,3,,,,,,,,64,127,0,,,
6720,set_tempo,869565,4,1,0,,,,,,,,,,,,,
6720,note_on,,0,0,2,,,,,,,,,,0,,53,60
6720,note_on,,4,0,2,,,,,,,,,,0,,37,0
6720,note_on,,4,0,1,,,,,,,,,,0,,62,60
6720,note_on,,0,0,1,,,,,,,,,,0,,74,75
6722,control_change,,2,0,3,,,,,,,,64,0,0,,,
6728,control_change,,6,0,3,,,,,,,,64,127,0,,,
6736,set_tempo,631578,16,1,0,,,,,,,,,,,,,
6736,note_on,,16,0,1,,,,,,,,,,0,,65,36
6744,note_on,,24,0,2,,,,,,,,,,0,,53,0
6744,set_tempo,769230,8,1,0,,,,,,,,,,,,,
6744,note_on,,8,0,1,,,,,,,,,,0,,65,0
6744,note_on,,0,0,1,,,,,,,,,,0,,68,40
6744,note_on,,0,0,2,,,,,,,,,,0,,44,0
6748,note_on,,4,0,1,,,,,,,,,,0,,62,0
6752,set_tempo,750000,8,1,0,,,,,,,,,,,,,
6752,note_on,,4,0,1,,,,,,,,,,0,,61,46
6756,note_on,,4,0,1,,,,,,,,,,0,,68,0
6756,note_on,,0,0,1,,,,,,,,,,0,,74,0
6760,set_tempo,2000000,8,1,0,,,,,,,,,,,,,
6760,note_on,,4,0,1,,,,,,,,,,0,,73,44
6764,note_on,,4,0,1,,,,,,,,,,0,,73,0
6764,note_on,,0,0,1,,,,,,,,,,0,,61,0
6768,set_tempo,1000000,8,1,0,,,,,,,,,,,,,
6768,note_on,,24,0,2,,,,,,,,,,0,,50,60
6768,note_on,,0,0,2,,,,,,,,,,0,,62,70
6770,control_change,,42,0,3,,,,,,,,64,0,0,,,
6776,control_change,,6,0,3,,,,,,,,64,127,0,,,
6784,note_on,,20,0,1,,,,,,,,,,0,,53,34
6784,set_tempo,750000,16,1,0,,,,,,,,,,,,,
6792,note_on,,0,0,1,,,,,,,,,,0,,56,38
6792,set_tempo,631578,8,1,0,,,,,,,,,,,,,
6792,note_on,,0,0,2,,,,,,,,,,0,,50,0
6792,note_on,,24,0,2,,,,,,,,,,0,,62,0
6792,note_on,,8,0,1,,,,,,,,,,0,,53,0
6800,note_on,,8,0,1,,,,,,,,,,0,,49,45
6800,set_tempo,681818,8,1,0,,,,,,,,,,,,,
6804,note_on,,4,0,1,,,,,,,,,,0,,56,0
6808,set_tempo,1395348,8,1,0,,,,,,,,,,,,,
6808,note_on,,4,0,1,,,,,,,,,,0,,61,56
6812,note_on,,4,0,1,,,,,,,,,,0,,61,0
6812,note_on,,0,0,1,,,,,,,,,,0,,49,0
6816,note_on,,4,0,1,,,,,,,,,,0,,50,53
6816,note_on,,0,0,1,,,,,,,,,,0,,62,68
6816,control_change,,40,0,3,,,,,,,,64,127,0,,,
6816,set_tempo,750000,8,1,0,,,,,,,,,,,,,
6818,control_change,,2,0,3,,,,,,,,64,0,0,,,
6824,control_change,,6,0,3,,,,,,,,64,127,0,,,
6832,note_on,,16,0,1,,,,,,,,,,0,,53,33
6832,set_tempo,869565,16,1,0,,,,,,,,,,,,,
6840,note_on,,8,0,1,,,,,,,,,,0,,53,0
6840,note_on,,0,0,1,,,,,,,,,,0,,56,37
6840,set_tempo,895522,8,1,0,,,,,,,,,,,,,
6844,note_on,,4,0,1,,,,,,,,,,0,,50,0
6848,note_on,,4,0,1,,,,,,,,,,0,,49,40
6848,set_tempo,681818,8,1,0,,,,,,,,,,,,,
6852,note_on,,4,0,1,,,,,,,,,,0,,56,0
6852,note_on,,0,0,1,,,,,,,,,,0,,62,0
6856,set_tempo,2307692,8,1,0,,,,,,,,,,,,,
6856,note_on,,4,0,1,,,,,,,,,,0,,61,50
6860,note_on,,4,0,1,,,,,,,,,,0,,61,0
6860,note_on,,0,0,1,,,,,,,,,,0,,49,0
6864,note_on,,72,0,2,,,,,,,,,,0,,30,38
6864,note_on,,0,0,2,,,,,,,,,,0,,42,48
6864,note_on,,0,0,1,,,,,,,,,,0,,62,65
6864,note_on,,4,0,1,,,,,,,,,,0,,50,48
6864,set_tempo,1034482,8,1,0,,,,,,,,,,,,,
6866,control_change,,42,0,3,,,,,,,,64,0,0,,,
6872,control_change,,6,0,3,,,,,,,,64,127,0,,,
6880,set_tempo,1071428,16,1,0,,,,,,,,,,,,,
6880,note_on,,16,0,1,,,,,,,,,,0,,54,32
6888,note_on,,0,0,1,,,,,,,,,,0,,57,36
6888,set_tempo,869565,8,1,0,,,,,,,,,,,,,
6888,note_on,,8,0,1,,,,,,,,,,0,,54,0
6892,note_on,,4,0,1,,,,,,,,,,0,,50,0
6896,set_tempo,1071428,8,1,0,,,,,,,,,,,,,
6896,note_on,,4,0,1,,,,,,,,,,0,,49,40
6900,note_on,,0,0,2,,,,,,,,,,0,,30,0
6900,note_on,,4,0,1,,,,,,,,,,0,,57,0
6900,note_on,,0,0,1,,,,,,,,,,0,,62,0
6900,note_on,,36,0,2,,,,,,,,,,0,,42,0
6904,note_on,,4,0,1,,,,,,,,,,0,,61,50
6904,set_tempo,2307692,8,1,0,,,,,,,,,,,,,
6908,note_on,,0,0,1,,,,,,,,,,0,,49,0
6908,note_on,,4,0,1,,,,,,,,,,0,,61,0
6912,note_on,,12,0,2,,,,,,,,,,0,,25,32
6912,control_change,,40,0,3,,,,,,,,64,127,0,,,
6912,note_on,,0,0,2,,,,,,,,,,0,,37,42
6912,note_on,,0,0,1,,,,,,,,,,0,,62,54
6912,set_tempo,1395348,8,1,0,,,,,,,,,,,,,
6912,note_on,,4,0,1,,,,,,,,,,0,,50,44
6914,control_change,,2,0,3,,,,,,,,64,0,0,,,
6920,control_change,,6,0,3,,,,,,,,64,127,0,,,
6928,note_on,,16,0,1,,,,,,,,,,0,,53,30
6928,set_tempo,1071428,16,1,0,,,,,,,,,,,,,
6936,set_tempo,952380,8,1,0,,,,,,,,,,,,,
6936,note_on,,0,0,1,,,,,,,,,,0,,56,34
6936,note_on,,8,0,1,,,,,,,,,,0,,53,0
6940,note_on,,4,0,1,,,,,,,,,,0,,50,0
6944,set_tempo,869565,8,1,0,,,,,,,,,,,,,
6944,note_on,,4,0,1,,,,,,,,,,0,,49,39
6948,note_on,,4,0,1,,,,,,,,,,0,,56,0
6948,note_on,,0,0,1,,,,,,,,,,0,,62,0
6952,set_tempo,2142857,8,1,0,,,,,,,,,,,,,
6952,note_on,,4,0,1,,,,,,,,,,0,,61,44
6956,note_on,,0,0,1,,,,,,,,,,0,,49,0
6956,note_on,,4,0,1,,,,,,,,,,0,,61,0
6960,note_on,,0,0,1,,,,,,,,,,0,,62,50
6960,note_on,,4,0,1,,,,,,,,,,0,,50,38
6960,note_on,,48,0,2,,,,,,,,,,0,,37,0
6960,set_tempo,1463414,8,1,0,,,,,,,,,,,,,
6960,note_on,,0,0,2,,,,,,,,,,0,,25,0
6962,control_change,,42,0,3,,,,,,,,64,0,0,,,
6968,control_change,,6,0,3,,,,,,,,64,127,0,,,
6976,set_tempo,1153846,16,1,0,,,,,,,,,,,,,
6976,note_on,,16,0,1,,,,,,,,,,0,,53,28
6984,set_tempo,1071428,8,1,0,,,,,,,,,,,,,
6984,note_on,,0,0,1,,,,,,,,,,0,,56,32
6984,note_on,,8,0,1,,,,,,,,,,0,,53,0
6988,note_on,,4,0,1,,,,,,,,,,0,,50,0
6992,note_on,,4,0,1,,,,,,,,,,0,,49,32
6992,set_tempo,952380,8,1,0,,,,,,,,,,,,,
6996,note_on,,0,0,1,,,,,,,,,,0,,62,0
6996,note_on,,4,0,1,,,,,,,,,,0,,56,0
7000,set_tempo,2307692,8,1,0,,,,,,,,,,,,,
7000,note_on,,4,0,1,,,,,,,,,,0,,61,42
7004,note_on,,4,0,1,,,,,,,,,,0,,61,0
7004,note_on,,0,0,1,,,,,,,,,,0,,49,0
7008,note_on,,4,0,1,,,,,,,,,,0,,50,30
7008,note_on,,0,0,1,,,,,,,,,,0,,62,40
7008,control_change,,40,0,3,,,,,,,,64,127,0,,,
7008,set_tempo,789473,8,1,0,,,,,,,,,,,,,
7010,control_change,,2,0,3,,,,,,,,64,0,0,,,
7016,control_change,,6,0,3,,,,,,,,64,127,0,,,
7040,set_tempo,659340,32,1,0,,,,,,,,,,,,,
7040,note_on,,32,0,1,,,,,,,,,,0,,53,24
7041,control_change,,25,0,3,,,,,,,,64,0,0,,,
7047,control_change,,6,0,3,,,,,,,,64,127,0,,,
7056,note_on,,0,0,1,,,,,,,,,,0,,56,28
7056,note_on,,16,0,1,,,,,,,,,,0,,53,0
7056,set_tempo,681818,16,1,0,,,,,,,,,,,,,
7057,control_change,,10,0,3,,,,,,,,64,0,0,,,
7063,control_change,,6,0,3,,,,,,,,64,127,0,,,
7064,note_on,,8,0,1,,,,,,,,,,0,,50,0
7072,set_tempo,1714285,16,1,0,,,,,,,,,,,,,
7072,note_on,,8,0,1,,,,,,,,,,0,,49,27
7073,control_change,,10,0,3,,,,,,,,64,0,0,,,
7079,control_change,,6,0,3,,,,,,,,64,127,0,,,
7080,note_on,,8,0,1,,,,,,,,,,0,,56,0
7080,note_on,,0,0,1,,,,,,,,,,0,,62,0
7088,note_on,,8,0,1,,,,,,,,,,0,,61,26
7088,set_tempo,2727272,16,1,0,,,,,,,,,,,,,
7088,control_change,,9,0,3,,,,,,,,64,0,0,,,
7090,control_change,,2,0,3,,,,,,,,64,127,0,,,
7096,note_on,,8,0,1,,,,,,,,,,0,,49,0
7126,note_on,,30,0,1,,,,,,,,,,0,,61,0
7126,control_change,,36,0,3,,,,,,,,64,0,0,,,
7126,set_tempo,3000000,38,1,0,,,,,,,,,,,,,
7152,note_on,,26,0,1,,,,,,,,,,0,,70,51
7152,set_tempo,1935483,26,1,0,,,,,,,,,,,,,
7188,set_tempo,2000000,36,1,0,,,,,,,,,,,,,
7188,note_on,,36,0,1,,,,,,,,,,0,,70,0
7188,note_on,,0,0,1,,,,,,,,,,0,,71,46
7200,control_change,,74,0,3,,,,,,,,64,0,0,,,
7200,time_signature,,12,1,0,4,4,24,8,,,,,,,,,
7200,set_tempo,1153846,0,1,0,,,,,,,,,,,,,
7200,note_on,,12,0,1,,,,,,,,,,0,,71,0
7200,note_on,,240,0,2,,,,,,,,,,0,,37,24
7200,note_on,,0,0,1,,,,,,,,,,0,,70,53
7208,control_change,,8,0,3,,,,,,,,64,127,0,,,
7224,note_on,,0,0,1,,,,,,,,,,0,,68,48
7224,set_tempo,869565,24,1,0,,,,,,,,,,,,,
7224,note_on,,24,0,1,,,,,,,,,,0,,70,0
7248,note_on,,24,0,1,,,,,,,,,,0,,68,0
7248,note_on,,0,0,1,,,,,,,,,,0,,65,48
7248,note_on,,0,0,2,,,,,,,,,,0,,49,25
7248,set_tempo,1071428,24,1,0,,,,,,,,,,,,,
7248,note_on,,48,0,2,,,,,,,,,,0,,37,0
7284,note_on,,36,0,1,,,,,,,,,,0,,65,0
7284,set_tempo,1153846,36,1,0,,,,,,,,,,,,,
7284,note_on,,0,0,1,,,,,,,,,,0,,61,45
7292,note_on,,8,0,1,,,,,,,,,,0,,61,0
7296,set_tempo,952380,12,1,0,,,,,,,,,,,,,
7296,note_on,,4,0,1,,,,,,,,,,0,,61,45
7296,note_on,,48,0,2,,,,,,,,,,0,,49,0
7296,note_on,,0,0,2,,,,,,,,,,0,,53,28
7296,note_on,,0,0,2,,,,,,,,,,0,,59,33
7298,control_change,,90,0,3,,,,,,,,64,0,0,,,
7304,control_change,,6,0,3,,,,,,,,64,127,0,,,
7320,note_on,,24,0,1,,,,,,,,,,0,,61,0
7344,note_on,,48,0,2,,,,,,,,,,0,,59,0
7344,note_on,,0,0,2,,,,,,,,,,0,,53,0
7344,note_on,,0,0,2,,,,,,,,,,0,,49,24
7344,note_on,,24,0,1,,,,,,,,,,0,,61,44
7344,set_tempo,1200000,48,1,0,,,,,,,,,,,,,
7346,control_change,,42,0,3,,,,,,,,64,0,0,,,
7352,control_change,,6,0,3,,,,,,,,64,127,0,,,
7368,note_on,,24,0,1,,,,,,,,,,0,,61,0
7386,note_on,,42,0,2,,,,,,,,,,0,,49,0
7390,control_change,,38,0,3,,,,,,,,64,0,0,,,
7392,control_change,,2,0,3,,,,,,,,64,0,0,,,
7392,note_on,,24,0,1,,,,,,,,,,0,,61,50
7392,set_tempo,923076,48,1,0,,,,,,,,,,,,,
7392,note_on,,6,0,2,,,,,,,,,,0,,42,36
7400,control_change,,8,0,3,,,,,,,,64,127,0,,,
7440,note_on,,0,0,2,,,,,,,,,,0,,49,38
7440,set_tempo,1000000,48,1,0,,,,,,,,,,,,,
7440,note_on,,48,0,2,,,,,,,,,,0,,42,0
7452,set_tempo,845070,12,1,0,,,,,,,,,,,,,
7452,note_on,,60,0,1,,,,,,,,,,0,,61,0
7452,note_on,,0,0,1,,,,,,,,,,0,,66,46
7464,note_on,,0,0,1,,,,,,,,,,0,,70,50
7464,set_tempo,800000,12,1,0,,,,,,,,,,,,,
7464,note_on,,12,0,1,,,,,,,,,,0,,66,0
7476,note_on,,12,0,1,,,,,,,,,,0,,70,0
7476,note_on,,0,0,1,,,,,,,,,,0,,75,54
7476,set_tempo,1200000,12,1,0,,,,,,,,,,,,,
7488,note_on,,12,0,1,,,,,,,,,,0,,75,0
7488,note_on,,0,0,1,,,,,,,,,,0,,73,50
7488,set_tempo,983606,12,1,0,,,,,,,,,,,,,
7488,note_on,,0,0,2,,,,,,,,,,0,,54,22
7488,note_on,,48,0,2,,,,,,,,,,0,,49,0
7488,note_on,,0,0,2,,,,,,,,,,0,,58,27
7490,control_change,,90,0,3,,,,,,,,64,0,0,,,
7496,control_change,,6,0,3,,,,,,,,64,127,0,,,
7512,note_on,,24,0,1,,,,,,,,,,0,,73,0
7532,control_change,,36,0,3,,,,,,,,64,0,0,,,
7536,note_on,,0,0,2,,,,,,,,,,0,,54,0
7536,note_on,,24,0,1,,,,,,,,,,0,,70,37
7536,note_on,,0,0,2,,,,,,,,,,0,,49,26
7536,note_on,,48,0,2,,,,,,,,,,0,,58,0
7536,set_tempo,1463414,48,1,0,,,,,,,,,,,,,
7543,note_on,,0,0,1,,,,,,,,,,0,,71,40
7543,set_tempo,1000000,7,1,0,,,,,,,,,,,,,
7543,note_on,,7,0,1,,,,,,,,,,0,,70,0
7550,set_tempo,869565,7,1,0,,,,,,,,,,,,,
7550,note_on,,7,0,1,,,,,,,,,,0,,71,0
7550,note_on,,0,0,1,,,,,,,,,,0,,70,44
7557,set_tempo,1000000,7,1,0,,,,,,,,,,,,,
7557,note_on,,0,0,1,,,,,,,,,,0,,69,46
7557,note_on,,7,0,1,,,,,,,,,,0,,70,0
7563,note_on,,6,0,1,,,,,,,,,,0,,69,0
7563,note_on,,0,0,1,,,,,,,,,,0,,70,42
7563,set_tempo,789473,6,1,0,,,,,,,,,,,,,
7570,set_tempo,1071428,7,1,0,,,,,,,,,,,,,
7570,note_on,,0,0,1,,,,,,,,,,0,,73,38
7570,note_on,,7,0,1,,,,,,,,,,0,,70,0
7577,set_tempo,952380,7,1,0,,,,,,,,,,,,,
7577,note_on,,0,0,1,,,,,,,,,,0,,72,36
7577,note_on,,7,0,1,,,,,,,,,,0,,73,0
7584,note_on,,0,0,2,,,,,,,,,,0,,42,40
7584,note_on,,48,0,2,,,,,,,,,,0,,49,0
7584,set_tempo,1818181,7,1,0,,,,,,,,,,,,,
7584,control_change,,52,0,3,,,,,,,,64,0,0,,,
7584,note_on,,7,0,1,,,,,,,,,,0,,72,0
7584,note_on,,0,0,1,,,,,,,,,,0,,71,40
7590,note_on,,6,0,1,,,,,,,,,,0,,71,0
7590,note_on,,0,0,1,,,,,,,,,,0,,80,35
7590,set_tempo,845070,6,1,0,,,,,,,,,,,,,
7592,control_change,,8,0,3,,,,,,,,64,127,0,,,
7596,note_on,,0,0,1,,,,,,,,,,0,,71,41
7596,note_on,,6,0,1,,,,,,,,,,0,,80,0
7596,set_tempo,821917,6,1,0,,,,,,,,,,,,,
7602,set_tempo,923076,6,1,0,,,,,,,,,,,,,
7602,note_on,,6,0,1,,,,,,,,,,0,,71,0
7602,note_on,,0,0,1,,,,,,,,,,0,,70,52
7607,note_on,,5,0,1,,,,,,,,,,0,,70,0
7607,note_on,,0,0,1,,,,,,,,,,0,,79,53
7612,note_on,,0,0,1,,,,,,,,,,0,,70,41
7612,note_on,,5,0,1,,,,,,,,,,0,,79,0
7617,note_on,,0,0,1,,,,,,,,,,0,,69,59
7617,note_on,,5,0,1,,,,,,,,,,0,,70,0
7617,set_tempo,895522,15,1,0,,,,,,,,,,,,,
7622,note_on,,0,0,1,,,,,,,,,,0,,78,60
7622,note_on,,5,0,1,,,,,,,,,,0,,69,0
7627,note_on,,5,0,1,,,,,,,,,,0,,78,0
7627,note_on,,0,0,1,,,,,,,,,,0,,69,60
7630,note_on,,46,0,2,,,,,,,,,,0,,42,0
7630,note_on,,0,0,2,,,,,,,,,,0,,50,50
7632,control_change,,40,0,3,,,,,,,,64,0,0,,,
7632,note_on,,5,0,1,,,,,,,,,,0,,69,0
7632,note_on,,0,0,1,,,,,,,,,,0,,68,60
7637,note_on,,5,0,1,,,,,,,,,,0,,68,0
7637,set_tempo,1111111,20,1,0,,,,,,,,,,,,,
7637,note_on,,0,0,1,,,,,,,,,,0,,77,54
7638,control_change,,6,0,3,,,,,,,,64,127,0,,,
7642,note_on,,0,0,1,,,,,,,,,,0,,68,53
7642,note_on,,5,0,1,,,,,,,,,,0,,77,0
7642,set_tempo,1071428,5,1,0,,,,,,,,,,,,,
7647,note_on,,0,0,1,,,,,,,,,,0,,67,53
7647,set_tempo,923076,5,1,0,,,,,,,,,,,,,
7647,note_on,,5,0,1,,,,,,,,,,0,,68,0
7652,note_on,,0,0,1,,,,,,,,,,0,,76,55
7652,note_on,,5,0,1,,,,,,,,,,0,,67,0
7657,note_on,,0,0,1,,,,,,,,,,0,,67,56
7657,note_on,,5,0,1,,,,,,,,,,0,,76,0
7657,set_tempo,895522,10,1,0,,,,,,,,,,,,,
7662,set_tempo,821917,5,1,0,,,,,,,,,,,,,
7662,note_on,,5,0,1,,,,,,,,,,0,,66,67
7663,note_on,,1,0,1,,,,,,,,,,0,,67,0
7668,note_on,,5,0,1,,,,,,,,,,0,,66,0
7668,note_on,,0,0,1,,,,,,,,,,0,,75,60
7668,set_tempo,1000000,6,1,0,,,,,,,,,,,,,
7674,note_on,,6,0,1,,,,,,,,,,0,,75,0
7674,note_on,,0,0,1,,,,,,,,,,0,,66,50
7674,set_tempo,845070,6,1,0,,,,,,,,,,,,,
7680,note_on,,6,0,1,,,,,,,,,,0,,66,0
7680,note_on,,0,0,1,,,,,,,,,,0,,65,71
7680,set_tempo,1714285,6,1,0,,,,,,,,,,,,,
7682,note_on,,0,0,2,,,,,,,,,,0,,59,40
7682,note_on,,0,0,2,,,,,,,,,,0,,56,35
7682,note_on,,52,0,2,,,,,,,,,,0,,50,0
7684,note_on,,0,0,1,,,,,,,,,,0,,74,60
7684,note_on,,4,0,1,,,,,,,,,,0,,65,0
7684,control_change,,46,0,3,,,,,,,,64,0,0,,,
7684,set_tempo,1621621,4,1,0,,,,,,,,,,,,,
7688,set_tempo,1250000,4,1,0,,,,,,,,,,,,,
7688,note_on,,0,0,1,,,,,,,,,,0,,73,70
7688,note_on,,4,0,1,,,,,,,,,,0,,74,0
7690,control_change,,6,0,3,,,,,,,,64,127,0,,,
7692,note_on,,4,0,1,,,,,,,,,,0,,73,0
7692,note_on,,0,0,1,,,,,,,,,,0,,72,53
7692,set_tempo,1034482,4,1,0,,,,,,,,,,,,,
7696,set_tempo,1000000,4,1,0,,,,,,,,,,,,,
7696,note_on,,4,0,1,,,,,,,,,,0,,72,0
7696,note_on,,0,0,1,,,,,,,,,,0,,71,58
7700,note_on,,4,0,1,,,,,,,,,,0,,71,0
7700,note_on,,0,0,1,,,,,,,,,,0,,70,69
7700,set_tempo,983606,4,1,0,,,,,,,,,,,,,
7704,set_tempo,923076,4,1,0,,,,,,,,,,,,,
7704,note_on,,0,0,1,,,,,,,,,,0,,69,71
7704,note_on,,4,0,1,,,,,,,,,,0,,70,0
7708,note_on,,0,0,1,,,,,,,,,,0,,68,50
7708,note_on,,4,0,1,,,,,,,,,,0,,69,0
7708,set_tempo,952380,4,1,0,,,,,,,,,,,,,
7712,note_on,,4,0,1,,,,,,,,,,0,,68,0
7712,note_on,,0,0,1,,,,,,,,,,0,,67,69
7716,note_on,,4,0,1,,,,,,,,,,0,,67,0
7716,set_tempo,895522,8,1,0,,,,,,,,,,,,,
7716,note_on,,0,0,1,,,,,,,,,,0,,66,45
7720,note_on,,4,0,1,,,,,,,,,,0,,66,0
7720,note_on,,0,0,1,,,,,,,,,,0,,65,65
7720,set_tempo,1250000,4,1,0,,,,,,,,,,,,,
7724,note_on,,4,0,1,,,,,,,,,,0,,65,0
7724,note_on,,0,0,1,,,,,,,,,,0,,66,52
7724,set_tempo,1153846,4,1,0,,,,,,,,,,,,,
7728,note_on,,4,0,1,,,,,,,,,,0,,66,0
7728,note_on,,0,0,1,,,,,,,,,,0,,65,65
7728,set_tempo,1304347,4,1,0,,,,,,,,,,,,,
7730,note_on,,0,0,2,,,,,,,,,,0,,49,23
7730,note_on,,0,0,2,,,,,,,,,,0,,56,0
7730,note_on,,48,0,2,,,,,,,,,,0,,59,0
7730,control_change,,40,0,3,,,,,,,,64,0,0,,,
7732,set_tempo,1250000,4,1,0,,,,,,,,,,,,,
7732,note_on,,4,0,1,,,,,,,,,,0,,65,0
7732,note_on,,0,0,1,,,,,,,,,,0,,63,61
7736,note_on,,0,0,1,,,,,,,,,,0,,65,52
7736,note_on,,4,0,1,,,,,,,,,,0,,63,0
7736,set_tempo,1538461,4,1,0,,,,,,,,,,,,,
7740,set_tempo,1714285,4,1,0,,,,,,,,,,,,,
7740,note_on,,4,0,1,,,,,,,,,,0,,65,0
7740,note_on,,0,0,1,,,,,,,,,,0,,66,59
7744,note_on,,4,0,1,,,,,,,,,,0,,66,0
7744,note_on,,0,0,1,,,,,,,,,,0,,70,50
7744,set_tempo,1621621,4,1,0,,,,,,,,,,,,,
7748,note_on,,0,0,1,,,,,,,,,,0,,68,44
7748,set_tempo,1538461,4,1,0,,,,,,,,,,,,,
7748,note_on,,4,0,1,,,,,,,,,,0,,70,0
7752,note_on,,0,0,1,,,,,,,,,,0,,65,42
7752,note_on,,4,0,1,,,,,,,,,,0,,68,0
7752,set_tempo,1250000,4,1,0,,,,,,,,,,,,,
7756,set_tempo,2000000,4,1,0,,,,,,,,,,,,,
7756,note_on,,4,0,1,,,,,,,,,,0,,65,0
7756,note_on,,0,0,1,,,,,,,,,,0,,66,40
7760,note_on,,0,0,1,,,,,,,,,,0,,63,38
7760,set_tempo,1538461,4,1,0,,,,,,,,,,,,,
7760,note_on,,4,0,1,,,,,,,,,,0,,66,0
7765,set_tempo,3333333,5,1,0,,,,,,,,,,,,,
7765,note_on,,5,0,1,,,,,,,,,,0,,63,0
7765,note_on,,0,0,1,,,,,,,,,,0,,68,37
7770,note_on,,5,0,1,,,,,,,,,,0,,68,0
7772,note_on,,2,0,1,,,,,,,,,,0,,68,46
7772,set_tempo,2727272,7,1,0,,,,,,,,,,,,,
7776,note_on,,4,0,1,,,,,,,,,,0,,68,0
7776,note_on,,0,0,1,,,,,,,,,,0,,61,48
7776,set_tempo,845070,4,1,0,,,,,,,,,,,,,
7776,control_change,,46,0,3,,,,,,,,64,0,0,,,
7776,note_on,,0,0,2,,,,,,,,,,0,,42,36
7776,note_on,,46,0,2,,,,,,,,,,0,,49,0
7784,control_change,,8,0,3,,,,,,,,64,127,0,,,
7824,note_on,,0,0,2,,,,,,,,,,0,,49,42
7824,note_on,,48,0,2,,,,,,,,,,0,,42,0
7824,set_tempo,1395348,48,1,0,,,,,,,,,,,,,
7826,control_change,,42,0,3,,,,,,,,64,0,0,,,
7830,set_tempo,923076,6,1,0,,,,,,,,,,,,,
7830,note_on,,54,0,1,,,,,,,,,,0,,61,0
7830,note_on,,0,0,1,,,,,,,,,,0,,66,56
7832,control_change,,6,0,3,,,,,,,,64,127,0,,,
7836,set_tempo,845070,6,1,0,,,,,,,,,,,,,
7836,note_on,,6,0,1,,,,,,,,,,0,,66,0
7836,note_on,,0,0,1,,,,,,,,,,0,,70,50
7842,set_tempo,1000000,6,1,0,,,,,,,,,,,,,
7842,note_on,,0,0,1,,,,,,,,,,0,,73,68
7842,note_on,,6,0,1,,,,,,,,,,0,,70,0
7848,note_on,,6,0,1,,,,,,,,,,0,,73,0
7848,set_tempo,1200000,6,1,0,,,,,,,,,,,,,
7848,note_on,,0,0,1,,,,,,,,,,0,,70,62
7854,note_on,,6,0,1,,,,,,,,,,0,,70,0
7854,note_on,,0,0,1,,,,,,,,,,0,,78,78
7854,set_tempo,2727272,6,1,0,,,,,,,,,,,,,
7860,note_on,,6,0,1,,,,,,,,,,0,,78,0
7860,note_on,,36,0,2,,,,,,,,,,0,,49,0
7860,set_tempo,3000000,6,1,0,,,,,,,,,,,,,
7862,control_change,,30,0,3,,,,,,,,64,0,0,,,
7866,note_on,,6,0,1,,,,,,,,,,0,,75,72
7866,set_tempo,2142857,6,1,0,,,,,,,,,,,,,
7872,set_tempo,983606,6,1,0,,,,,,,,,,,,,
7872,note_on,,0,0,2,,,,,,,,,,0,,61,32
7872,note_on,,0,0,2,,,,,,,,,,0,,58,30
7872,note_on,,12,0,2,,,,,,,,,,0,,54,26
7872,note_on,,6,0,1,,,,,,,,,,0,,75,0
7872,note_on,,0,0,1,,,,,,,,,,0,,73,66
7878,control_change,,16,0,3,,,,,,,,64,127,0,,,
7908,note_on,,36,0,1,,,,,,,,,,0,,73,0
7920,control_change,,42,0,3,,,,,,,,64,0,0,,,
7920,note_on,,0,0,2,,,,,,,,,,0,,54,0
7920,note_on,,0,0,2,,,,,,,,,,0,,58,0
7920,note_on,,48,0,2,,,,,,,,,,0,,61,0
7920,note_on,,12,0,1,,,,,,,,,,0,,71,70
7920,set_tempo,923076,48,1,0,,,,,,,,,,,,,
7956,set_tempo,1200000,36,1,0,,,,,,,,,,,,,
7956,note_on,,36,0,1,,,,,,,,,,0,,71,0
7956,note_on,,0,0,1,,,,,,,,,,0,,73,66
7968,note_on,,0,0,1,,,,,,,,,,0,,71,60
7968,set_tempo,1000000,12,1,0,,,,,,,,,,,,,
7968,control_change,,48,0,3,,,,,,,,64,0,0,,,
7968,note_on,,48,0,2,,,,,,,,,,0,,39,46
7968,note_on,,12,0,1,,,,,,,,,,0,,73,0
7976,control_change,,8,0,3,,,,,,,,64,127,0,,,
7992,note_on,,24,0,1,,,,,,,,,,0,,71,0
7992,set_tempo,666666,24,1,0,,,,,,,,,,,,,
7992,note_on,,0,0,1,,,,,,,,,,0,,70,65
8016,note_on,,0,0,1,,,,,,,,,,0,,67,66
8016,note_on,,48,0,2,,,,,,,,,,0,,39,0
8016,note_on,,24,0,1,,,,,,,,,,0,,70,0
8016,note_on,,0,0,2,,,,,,,,,,0,,51,43
8016,set_tempo,800000,24,1,0,,,,,,,,,,,,,
8052,set_tempo,1034482,36,1,0,,,,,,,,,,,,,
8052,note_on,,36,0,1,,,,,,,,,,0,,67,0
8052,note_on,,0,0,1,,,,,,,,,,0,,63,67
8060,note_on,,8,0,1,,,,,,,,,,0,,63,0
8064,note_on,,48,0,2,,,,,,,,,,0,,51,0
8064,note_on,,4,0,1,,,,,,,,,,0,,63,66
8064,set_tempo,869565,12,1,0,,,,,,,,,,,,,
8064,note_on,,0,0,2,,,,,,,,,,0,,55,44
8064,note_on,,0,0,2,,,,,,,,,,0,,61,52
8066,control_change,,90,0,3,,,,,,,,64,0,0,,,
8072,control_change,,6,0,3,,,,,,,,64,127,0,,,
8088,note_on,,24,0,1,,,,,,,,,,0,,63,0
8112,note_on,,0,0,2,,,,,,,,,,0,,55,0
8112,note_on,,24,0,1,,,,,,,,,,0,,63,74
8112,note_on,,48,0,2,,,,,,,,,,0,,61,0
8112,set_tempo,845070,48,1,0,,,,,,,,,,,,,
8112,note_on,,0,0,2,,,,,,,,,,0,,51,42
8114,control_change,,42,0,3,,,,,,,,64,0,0,,,
8120,control_change,,6,0,3,,,,,,,,64,127,0,,,
8136,note_on,,24,0,1,,,,,,,,,,0,,63,0
8160,control_change,,40,0,3,,,,,,,,64,127,0,,,
8160,note_on,,0,0,2,,,,,,,,,,0,,32,48
8160,note_on,,0,0,2,,,,,,,,,,0,,44,53
8160,set_tempo,1153846,48,1,0,,,,,,,,,,,,,
8160,note_on,,24,0,1,,,,,,,,,,0,,63,77
8160,note_on,,48,0,2,,,,,,,,,,0,,51,0
8161,control_change,,1,0,3,,,,,,,,64,0,0,,,
8164,control_change,,3,0,3,,,,,,,,64,127,0,,,
8168,note_on,,8,0,1,,,,,,,,,,0,,63,0
8176,note_on,,8,0,1,,,,,,,,,,0,,78,82
8176,set_tempo,923076,16,1,0,,,,,,,,,,,,,
8184,note_on,,24,0,2,,,,,,,,,,0,,44,0
8184,note_on,,8,0,1,,,,,,,,,,0,,78,0
8184,note_on,,0,0,2,,,,,,,,,,0,,32,0
8192,set_tempo,1153846,16,1,0,,,,,,,,,,,,,
8192,note_on,,8,0,1,,,,,,,,,,0,,75,78
8200,note_on,,8,0,1,,,,,,,,,,0,,75,0
8208,note_on,,0,0,2,,,,,,,,,,0,,56,42
8208,set_tempo,923076,16,1,0,,,,,,,,,,,,,
8208,note_on,,24,0,2,,,,,,,,,,0,,51,36
8208,note_on,,0,0,2,,,,,,,,,,0,,54,40
8208,note_on,,8,0,1,,,,,,,,,,0,,90,91
8208,note_on,,0,0,2,,,,,,,,,,0,,59,46
8210,control_change,,46,0,3,,,,,,,,64,0,0,,,
8216,control_change,,6,0,3,,,,,,,,64,127,0,,,
8232,note_on,,24,0,2,,,,,,,,,,0,,59,0
8232,note_on,,0,0,2,,,,,,,,,,0,,54,0
8232,note_on,,0,0,2,,,,,,,,,,0,,51,0
8232,note_on,,0,0,2,,,,,,,,,,0,,56,0
8256,note_on,,24,0,2,,,,,,,,,,0,,35,52
8256,set_tempo,3333333,48,1,0,,,,,,,,,,,,,
8256,note_on,,0,0,2,,,,,,,,,,0,,47,62
8258,control_change,,42,0,3,,,,,,,,64,0,0,,,
8264,set_tempo,1395348,8,1,0,,,,,,,,,,,,,
8264,note_on,,0,0,1,,,,,,,,,,0,,94,81
8264,control_change,,6,0,3,,,,,,,,64,127,0,,,
8264,note_on,,56,0,1,,,,,,,,,,0,,90,0
8272,note_on,,8,0,1,,,,,,,,,,0,,94,0
8272,note_on,,0,0,1,,,,,,,,,,0,,92,76
8272,set_tempo,952380,8,1,0,,,,,,,,,,,,,
8280,note_on,,8,0,1,,,,,,,,,,0,,92,0
8280,note_on,,0,0,1,,,,,,,,,,0,,90,72
8280,set_tempo,869565,8,1,0,,,,,,,,,,,,,
8280,note_on,,0,0,2,,,,,,,,,,0,,35,0
8280,note_on,,24,0,2,,,,,,,,,,0,,47,0
8288,set_tempo,821917,8,1,0,,,,,,,,,,,,,
8288,note_on,,0,0,1,,,,,,,,,,0,,87,69
8288,note_on,,8,0,1,,,,,,,,,,0,,90,0
8296,note_on,,8,0,1,,,,,,,,,,0,,87,0
8296,note_on,,0,0,1,,,,,,,,,,0,,83,66
8296,set_tempo,869565,8,1,0,,,,,,,,,,,,,
8304,note_on,,0,0,2,,,,,,,,,,0,,63,49
8304,note_on,,0,0,2,,,,,,,,,,0,,59,42
8304,note_on,,8,0,1,,,,,,,,,,0,,83,0
8304,note_on,,0,0,1,,,,,,,,,,0,,82,61
8304,note_on,,24,0,2,,,,,,,,,,0,,54,33
8304,set_tempo,952380,8,1,0,,,,,,,,,,,,,
8304,note_on,,0,0,2,,,,,,,,,,0,,56,41
8306,control_change,,42,0,3,,,,,,,,64,0,0,,,
8312,set_tempo,1000000,8,1,0,,,,,,,,,,,,,
8312,note_on,,0,0,1,,,,,,,,,,0,,80,58
8312,note_on,,8,0,1,,,,,,,,,,0,,82,0
8312,control_change,,6,0,3,,,,,,,,64,127,0,,,
8320,set_tempo,1200000,8,1,0,,,,,,,,,,,,,
8320,note_on,,8,0,1,,,,,,,,,,0,,80,0
8320,note_on,,0,0,1,,,,,,,,,,0,,78,56
8328,note_on,,0,0,2,,,,,,,,,,0,,54,0
8328,note_on,,0,0,2,,,,,,,,,,0,,56,0
8328,note_on,,24,0,2,,,,,,,,,,0,,59,0
8328,note_on,,8,0,1,,,,,,,,,,0,,78,0
8328,set_tempo,1621621,8,1,0,,,,,,,,,,,,,
8328,note_on,,0,0,1,,,,,,,,,,0,,75,54
8336,note_on,,8,0,1,,,,,,,,,,0,,75,0
8336,note_on,,0,0,1,,,,,,,,,,0,,66,56
8336,set_tempo,2000000,8,1,0,,,,,,,,,,,,,
8344,note_on,,8,0,1,,,,,,,,,,0,,66,0
8344,note_on,,0,0,1,,,,,,,,,,0,,68,52
8344,set_tempo,3333333,8,1,0,,,,,,,,,,,,,
8352,note_on,,8,0,1,,,,,,,,,,0,,68,0
8352,note_on,,0,0,1,,,,,,,,,,0,,70,46
8352,set_tempo,869565,8,1,0,,,,,,,,,,,,,
8352,control_change,,40,0,3,,,,,,,,64,127,0,,,
8352,note_on,,24,0,2,,,,,,,,,,0,,49,49
8354,control_change,,2,0,3,,,,,,,,64,0,0,,,
8360,control_change,,6,0,3,,,,,,,,64,127,0,,,
8376,note_on,,24,0,1,,,,,,,,,,0,,70,0
8376,note_on,,24,0,2,,,,,,,,,,0,,63,0
8400,set_tempo,1153846,48,1,0,,,,,,,,,,,,,
8400,note_on,,24,0,2,,,,,,,,,,0,,54,40
8400,note_on,,0,0,2,,,,,,,,,,0,,63,44
8400,note_on,,24,0,1,,,,,,,,,,0,,71,50
8402,control_change,,42,0,3,,,,,,,,64,0,0,,,
8408,control_change,,6,0,3,,,,,,,,64,127,0,,,
8436,set_tempo,1071428,36,1,0,,,,,,,,,,,,,
8436,note_on,,36,0,1,,,,,,,,,,0,,71,0
8436,control_change,,28,0,3,,,,,,,,64,0,0,,,
8436,note_on,,0,0,1,,,,,,,,,,0,,70,41
8448,note_on,,0,0,2,,,,,,,,,,0,,60,40
8448,note_on,,48,0,2,,,,,,,,,,0,,63,0
8448,set_tempo,845070,12,1,0,,,,,,,,,,,,,
8448,note_on,,12,0,1,,,,,,,,,,0,,70,0
8448,note_on,,0,0,1,,,,,,,,,,0,,68,40
8450,control_change,,14,0,3,,,,,,,,64,127,0,,,
8454,note_on,,0,0,1,,,,,,,,,,0,,70,38
8454,set_tempo,1000000,6,1,0,,,,,,,,,,,,,
8454,note_on,,6,0,1,,,,,,,,,,0,,68,0
8459,note_on,,5,0,1,,,,,,,,,,0,,70,0
8459,note_on,,0,0,1,,,,,,,,,,0,,68,33
8459,set_tempo,923076,5,1,0,,,,,,,,,,,,,
8464,note_on,,5,0,1,,,,,,,,,,0,,68,0
8464,note_on,,0,0,1,,,,,,,,,,0,,70,35
8464,set_tempo,895522,5,1,0,,,,,,,,,,,,,
8469,note_on,,5,0,1,,,,,,,,,,0,,70,0
8469,set_tempo,923076,5,1,0,,,,,,,,,,,,,
8469,note_on,,0,0,1,,,,,,,,,,0,,68,33
8474,set_tempo,1000000,5,1,0,,,,,,,,,,,,,
8474,note_on,,5,0,1,,,,,,,,,,0,,68,0
8474,note_on,,0,0,1,,,,,,,,,,0,,70,35
8479,note_on,,5,0,1,,,,,,,,,,0,,70,0
8479,set_tempo,1395348,5,1,0,,,,,,,,,,,,,
8479,note_on,,0,0,1,,,,,,,,,,0,,68,33
8484,note_on,,0,0,2,,,,,,,,,,0,,54,0
8484,note_on,,36,0,2,,,,,,,,,,0,,60,0
8484,note_on,,5,0,1,,,,,,,,,,0,,68,0
8484,note_on,,0,0,1,,,,,,,,,,0,,67,34
8484,set_tempo,1000000,5,1,0,,,,,,,,,,,,,
8490,note_on,,0,0,1,,,,,,,,,,0,,68,40
8490,note_on,,6,0,1,,,,,,,,,,0,,67,0
8490,set_tempo,1538461,6,1,0,,,,,,,,,,,,,
8496,note_on,,0,0,2,,,,,,,,,,0,,61,38
8496,note_on,,6,0,1,,,,,,,,,,0,,68,0
8496,set_tempo,923076,6,1,0,,,,,,,,,,,,,
8496,note_on,,12,0,2,,,,,,,,,,0,,53,32
8496,note_on,,0,0,1,,,,,,,,,,0,,70,47
8498,control_change,,48,0,3,,,,,,,,64,0,0,,,
8504,control_change,,6,0,3,,,,,,,,64,127,0,,,
8522,control_change,,18,0,3,,,,,,,,64,0,0,,,
8532,set_tempo,1538461,36,1,0,,,,,,,,,,,,,
8532,note_on,,0,0,1,,,,,,,,,,0,,68,45
8532,note_on,,36,0,1,,,,,,,,,,0,,70,0
8532,note_on,,0,0,2,,,,,,,,,,0,,53,0
8532,note_on,,0,0,2,,,,,,,,,,0,,59,38
8532,note_on,,36,0,2,,,,,,,,,,0,,61,0
8534,control_change,,12,0,3,,,,,,,,64,127,0,,,
8540,note_on,,8,0,2,,,,,,,,,,0,,59,0
8542,note_on,,10,0,1,,,,,,,,,,0,,68,0
8544,control_change,,10,0,3,,,,,,,,64,127,0,,,
8544,set_tempo,645161,12,1,0,,,,,,,,,,,,,
8544,note_on,,4,0,2,,,,,,,,,,0,,58,41
8544,note_on,,0,0,1,,,,,,,,,,0,,75,55
8544,note_on,,2,0,1,,,,,,,,,,0,,66,50
8546,control_change,,2,0,3,,,,,,,,64,0,0,,,
8552,control_change,,6,0,3,,,,,,,,64,127,0,,,
8556,note_on,,12,0,1,,,,,,,,,,0,,66,0
8580,note_on,,0,0,1,,,,,,,,,,0,,73,51
8580,note_on,,24,0,1,,,,,,,,,,0,,75,0
8580,set_tempo,1395348,36,1,0,,,,,,,,,,,,,
8588,note_on,,8,0,1,,,,,,,,,,0,,73,0
8592,note_on,,4,0,1,,,,,,,,,,0,,73,46
8592,set_tempo,952380,12,1,0,,,,,,,,,,,,,
8592,note_on,,0,0,2,,,,,,,,,,0,,63,55
8592,note_on,,48,0,2,,,,,,,,,,0,,58,0
8594,control_change,,42,0,3,,,,,,,,64,0,0,,,
8600,control_change,,6,0,3,,,,,,,,64,127,0,,,
8608,note_on,,16,0,1,,,,,,,,,,0,,73,0
8608,note_on,,0,0,1,,,,,,,,,,0,,71,53
8608,set_tempo,681818,16,1,0,,,,,,,,,,,,,
8624,note_on,,16,0,1,,,,,,,,,,0,,71,0
8624,note_on,,0,0,1,,,,,,,,,,0,,70,48
8624,set_tempo,1153846,16,1,0,,,,,,,,,,,,,
8628,control_change,,28,0,3,,,,,,,,64,0,0,,,
8632,set_tempo,2000000,8,1,0,,,,,,,,,,,,,
8632,note_on,,0,0,1,,,,,,,,,,0,,67,48
8632,note_on,,8,0,1,,,,,,,,,,0,,70,0
8636,note_on,,4,0,1,,,,,,,,,,0,,67,0
8636,note_on,,0,0,1,,,,,,,,,,0,,68,45
8636,set_tempo,1935483,4,1,0,,,,,,,,,,,,,
8640,note_on,,4,0,1,,,,,,,,,,0,,68,0
8640,note_on,,0,0,1,,,,,,,,,,0,,70,40
8640,note_on,,0,0,2,,,,,,,,,,0,,60,40
8640,set_tempo,1200000,4,1,0,,,,,,,,,,,,,
8640,note_on,,48,0,2,,,,,,,,,,0,,63,0
8642,control_change,,14,0,3,,,,,,,,64,127,0,,,
8645,set_tempo,1000000,5,1,0,,,,,,,,,,,,,
8645,note_on,,5,0,1,,,,,,,,,,0,,70,0
8645,note_on,,0,0,1,,,,,,,,,,0,,68,35
8650,note_on,,5,0,1,,,,,,,,,,0,,68,0
8650,set_tempo,923076,5,1,0,,,,,,,,,,,,,
8650,note_on,,0,0,1,,,,,,,,,,0,,70,35
8655,note_on,,5,0,1,,,,,,,,,,0,,70,0
8655,note_on,,0,0,1,,,,,,,,,,0,,68,33
8660,set_tempo,895522,10,1,0,,,,,,,,,,,,,
8660,note_on,,5,0,1,,,,,,,,,,0,,68,0
8660,note_on,,0,0,1,,,,,,,,,,0,,70,33
8665,note_on,,5,0,1,,,,,,,,,,0,,70,0
8665,note_on,,0,0,1,,,,,,,,,,0,,68,33
8665,set_tempo,1153846,5,1,0,,,,,,,,,,,,,
8669,note_on,,4,0,1,,,,,,,,,,0,,70,34
8669,set_tempo,1111111,4,1,0,,,,,,,,,,,,,
8670,note_on,,1,0,1,,,,,,,,,,0,,68,0
8673,note_on,,3,0,1,,,,,,,,,,0,,68,35
8673,set_tempo,1395348,4,1,0,,,,,,,,,,,,,
8674,note_on,,1,0,1,,,,,,,,,,0,,70,0
8678,note_on,,4,0,1,,,,,,,,,,0,,68,0
8678,note_on,,0,0,1,,,,,,,,,,0,,67,38
8678,set_tempo,1304347,5,1,0,,,,,,,,,,,,,
8683,set_tempo,1538461,5,1,0,,,,,,,,,,,,,
8683,note_on,,0,0,1,,,,,,,,,,0,,68,43
8683,note_on,,5,0,1,,,,,,,,,,0,,67,0
8688,set_tempo,923076,5,1,0,,,,,,,,,,,,,
8688,note_on,,0,0,1,,,,,,,,,,0,,65,36
8688,note_on,,0,0,1,,,,,,,,,,0,,70,44
8688,note_on,,0,0,2,,,,,,,,,,0,,61,50
8688,note_on,,5,0,1,,,,,,,,,,0,,68,0
8688,note_on,,48,0,2,,,,,,,,,,0,,60,0
8690,control_change,,48,0,3,,,,,,,,64,0,0,,,
8696,control_change,,6,0,3,,,,,,,,64,127,0,,,
8712,note_on,,24,0,1,,,,,,,,,,0,,70,0
8712,set_tempo,895522,24,1,0,,,,,,,,,,,,,
8712,note_on,,24,0,2,,,,,,,,,,0,,61,0
8712,note_on,,0,0,2,,,,,,,,,,0,,49,0
8714,control_change,,18,0,3,,,,,,,,64,0,0,,,
8724,note_on,,12,0,2,,,,,,,,,,0,,50,37
8724,note_on,,12,0,1,,,,,,,,,,0,,68,56
8724,set_tempo,1621621,12,1,0,,,,,,,,,,,,,
8724,note_on,,0,0,2,,,,,,,,,,0,,59,44
8726,control_change,,12,0,3,,,,,,,,64,127,0,,,
8732,note_on,,8,0,2,,,,,,,,,,0,,59,0
8732,note_on,,0,0,2,,,,,,,,,,0,,50,0
8734,note_on,,0,0,1,,,,,,,,,,0,,65,0
8734,note_on,,10,0,1,,,,,,,,,,0,,68,0
8736,set_tempo,1034482,12,1,0,,,,,,,,,,,,,
8736,note_on,,4,0,2,,,,,,,,,,0,,51,37
8736,note_on,,0,0,2,,,,,,,,,,0,,58,42
8736,control_change,,10,0,3,,,,,,,,64,127,0,,,
8736,note_on,,2,0,1,,,,,,,,,,0,,66,62
8738,control_change,,2,0,3,,,,,,,,64,0,0,,,
8744,control_change,,6,0,3,,,,,,,,64,127,0,,,
8752,note_on,,16,0,1,,,,,,,,,,0,,78,70
8752,set_tempo,983606,16,1,0,,,,,,,,,,,,,
8768,note_on,,0,0,1,,,,,,,,,,0,,77,74
8768,note_on,,16,0,1,,,,,,,,,,0,,78,0
8768,set_tempo,1153846,16,1,0,,,,,,,,,,,,,
8772,note_on,,0,0,2,,,,,,,,,,0,,51,0
8772,note_on,,36,0,2,,,,,,,,,,0,,58,0
8784,set_tempo,2142857,16,1,0,,,,,,,,,,,,,
8784,note_on,,12,0,2,,,,,,,,,,0,,48,45
8784,note_on,,0,0,2,,,,,,,,,,0,,57,48
8784,note_on,,16,0,1,,,,,,,,,,0,,77,0
8784,note_on,,0,0,1,,,,,,,,,,0,,80,78
8784,control_change,,40,0,3,,,,,,,,64,0,0,,,
8784,note_on,,0,0,2,,,,,,,,,,0,,63,53
8796,note_on,,12,0,1,,,,,,,,,,0,,80,0
8808,note_on,,12,0,1,,,,,,,,,,0,,79,60
8808,set_tempo,3000000,24,1,0,,,,,,,,,,,,,
8812,note_on,,4,0,1,,,,,,,,,,0,,79,0
8814,set_tempo,2307692,6,1,0,,,,,,,,,,,,,
8814,note_on,,2,0,1,,,,,,,,,,0,,78,56
8818,note_on,,4,0,1,,,,,,,,,,0,,78,0
8820,note_on,,0,0,2,,,,,,,,,,0,,48,0
8820,note_on,,0,0,2,,,,,,,,,,0,,57,0
8820,note_on,,36,0,2,,,,,,,,,,0,,63,0
8820,set_tempo,1818181,6,1,0,,,,,,,,,,,,,
8820,note_on,,2,0,1,,,,,,,,,,0,,77,54
8824,note_on,,4,0,1,,,,,,,,,,0,,77,0
8826,set_tempo,1935483,6,1,0,,,,,,,,,,,,,
8826,note_on,,2,0,1,,,,,,,,,,0,,76,60
8830,note_on,,4,0,1,,,,,,,,,,0,,76,0
8832,note_on,,0,0,2,,,,,,,,,,0,,56,40
8832,note_on,,12,0,2,,,,,,,,,,0,,49,35
8832,note_on,,2,0,1,,,,,,,,,,0,,75,56
8832,set_tempo,2000000,6,1,0,,,,,,,,,,,,,
8836,note_on,,4,0,1,,,,,,,,,,0,,75,0
8836,control_change,,52,0,3,,,,,,,,64,127,0,,,
8840,set_tempo,1538461,8,1,0,,,,,,,,,,,,,
8840,note_on,,4,0,1,,,,,,,,,,0,,71,40
8844,note_on,,4,0,1,,,,,,,,,,0,,71,0
8848,set_tempo,1395348,8,1,0,,,,,,,,,,,,,
8848,note_on,,4,0,1,,,,,,,,,,0,,74,45
8852,note_on,,4,0,1,,,,,,,,,,0,,74,0
8856,set_tempo,1250000,8,1,0,,,,,,,,,,,,,
8856,note_on,,4,0,1,,,,,,,,,,0,,70,38
8860,note_on,,4,0,1,,,,,,,,,,0,,70,0
8864,set_tempo,1395348,8,1,0,,,,,,,,,,,,,
8864,note_on,,4,0,1,,,,,,,,,,0,,73,50
8868,note_on,,0,0,2,,,,,,,,,,0,,49,0
8868,note_on,,36,0,2,,,,,,,,,,0,,56,0
8868,note_on,,4,0,1,,,,,,,,,,0,,73,0
8872,note_on,,4,0,1,,,,,,,,,,0,,69,33
8872,set_tempo,1935483,8,1,0,,,,,,,,,,,,,
8876,note_on,,4,0,1,,,,,,,,,,0,,69,0
8880,note_on,,4,0,1,,,,,,,,,,0,,72,52
8880,set_tempo,2500000,8,1,0,,,,,,,,,,,,,
8880,note_on,,12,0,2,,,,,,,,,,0,,62,43
8882,control_change,,46,0,3,,,,,,,,64,0,0,,,
8884,note_on,,4,0,1,,,,,,,,,,0,,72,0
8888,note_on,,4,0,1,,,,,,,,,,0,,68,46
8888,set_tempo,2727272,8,1,0,,,,,,,,,,,,,
8888,control_change,,6,0,3,,,,,,,,64,127,0,,,
8892,note_on,,4,0,1,,,,,,,,,,0,,68,0
8892,note_on,,0,0,1,,,,,,,,,,0,,66,0
8896,note_on,,4,0,1,,,,,,,,,,0,,71,43
8896,set_tempo,3000000,8,1,0,,,,,,,,,,,,,
8904,note_on,,8,0,1,,,,,,,,,,0,,65,35
8904,set_tempo,1818181,8,1,0,,,,,,,,,,,,,
8906,control_change,,18,0,3,,,,,,,,64,0,0,,,
8910,control_change,,4,0,3,,,,,,,,64,127,0,,,
8920,set_tempo,2000000,16,1,0,,,,,,,,,,,,,
8920,note_on,,40,0,2,,,,,,,,,,0,,62,0
8920,note_on,,0,0,2,,,,,,,,,,0,,61,32
8920,note_on,,16,0,1,,,,,,,,,,0,,71,0
8920,note_on,,0,0,1,,,,,,,,,,0,,70,35
8922,control_change,,12,0,3,,,,,,,,64,0,0,,,
8926,control_change,,4,0,3,,,,,,,,64,127,0,,,
8936,note_on,,16,0,2,,,,,,,,,,0,,61,0
8936,note_on,,0,0,2,,,,,,,,,,0,,59,26
8936,note_on,,0,0,1,,,,,,,,,,0,,68,33
8936,note_on,,16,0,1,,,,,,,,,,0,,70,0
8936,set_tempo,3000000,16,1,0,,,,,,,,,,,,,
8938,control_change,,12,0,3,,,,,,,,64,0,0,,,
8942,control_change,,4,0,3,,,,,,,,64,127,0,,,
8944,note_on,,8,0,1,,,,,,,,,,0,,65,0
8946,note_on,,10,0,2,,,,,,,,,,0,,59,0
8952,note_on,,8,0,1,,,,,,,,,,0,,68,0
8952,note_on,,6,0,2,,,,,,,,,,0,,30,40
8952,note_on,,0,0,1,,,,,,,,,,0,,66,40
8952,control_change,,10,0,3,,,,,,,,64,127,0,,,
8952,set_tempo,1200000,16,1,0,,,,,,,,,,,,,
8954,control_change,,2,0,3,,,,,,,,64,0,0,,,
8960,control_change,,6,0,3,,,,,,,,64,127,0,,,
8976,note_on,,24,0,1,,,,,,,,,,0,,66,0
8976,note_on,,24,0,2,,,,,,,,,,0,,30,0
9000,note_on,,24,0,1,,,,,,,,,,0,,99,74
9000,set_tempo,1714285,48,1,0,,,,,,,,,,,,,
9000,note_on,,24,0,2,,,,,,,,,,0,,49,28
9000,note_on,,0,0,2,,,,,,,,,,0,,58,39
9008,note_on,,8,0,2,,,,,,,,,,0,,58,0
9008,note_on,,0,0,2,,,,,,,,,,0,,49,0
9016,note_on,,0,0,2,,,,,,,,,,0,,58,37
9016,set_tempo,1250000,16,1,0,,,,,,,,,,,,,
9016,note_on,,8,0,2,,,,,,,,,,0,,49,26
9024,note_on,,8,0,2,,,,,,,,,,0,,58,0
9024,note_on,,0,0,2,,,,,,,,,,0,,49,0
9032,note_on,,8,0,2,,,,,,,,,,0,,49,26
9032,note_on,,0,0,2,,,,,,,,,,0,,58,37
9032,set_tempo,1621621,16,1,0,,,,,,,,,,,,,
9040,note_on,,8,0,2,,,,,,,,,,0,,58,0
9040,note_on,,0,0,2,,,,,,,,,,0,,49,0
9048,note_on,,8,0,2,,,,,,,,,,0,,54,25
9048,note_on,,0,0,2,,,,,,,,,,0,,58,30
9048,note_on,,0,0,2,,,,,,,,,,0,,61,35
9050,control_change,,90,0,3,,,,,,,,64,0,0,,,
9056,control_change,,6,0,3,,,,,,,,64,127,0,,,
9072,set_tempo,821917,40,1,0,,,,,,,,,,,,,
9072,note_on,,0,0,1,,,,,,,,,,0,,97,49
9072,note_on,,0,0,2,,,,,,,,,,0,,58,0
9072,note_on,,0,0,2,,,,,,,,,,0,,54,0
9072,note_on,,24,0,2,,,,,,,,,,0,,61,0
9072,note_on,,72,0,1,,,,,,,,,,0,,99,0
9080,set_tempo,631578,8,1,0,,,,,,,,,,,,,
9080,note_on,,8,0,1,,,,,,,,,,0,,97,0
9080,note_on,,0,0,1,,,,,,,,,,0,,94,45
9088,note_on,,0,0,1,,,,,,,,,,0,,90,41
9088,note_on,,8,0,1,,,,,,,,,,0,,94,0
9088,set_tempo,1071428,8,1,0,,,,,,,,,,,,,
9096,note_on,,0,0,1,,,,,,,,,,0,,95,64
9096,note_on,,0,0,2,,,,,,,,,,0,,58,39
9096,note_on,,0,0,2,,,,,,,,,,0,,54,35
9096,note_on,,24,0,2,,,,,,,,,,0,,49,33
9096,set_tempo,1463414,8,1,0,,,,,,,,,,,,,
9096,note_on,,8,0,1,,,,,,,,,,0,,90,0
9098,control_change,,42,0,3,,,,,,,,64,0,0,,,
9104,control_change,,6,0,3,,,,,,,,64,127,0,,,
9120,note_on,,24,0,1,,,,,,,,,,0,,95,0
9120,note_on,,0,0,2,,,,,,,,,,0,,49,0
9120,note_on,,0,0,1,,,,,,,,,,0,,94,48
9120,set_tempo,750000,24,1,0,,,,,,,,,,,,,
9120,note_on,,24,0,2,,,,,,,,,,0,,58,0
9120,note_on,,0,0,2,,,,,,,,,,0,,54,0
9128,note_on,,0,0,1,,,,,,,,,,0,,90,44
9128,set_tempo,631578,8,1,0,,,,,,,,,,,,,
9128,note_on,,8,0,1,,,,,,,,,,0,,94,0
9136,set_tempo,1153846,8,1,0,,,,,,,,,,,,,
9136,note_on,,8,0,1,,,,,,,,,,0,,90,0
9136,note_on,,0,0,1,,,,,,,,,,0,,85,40
9144,control_change,,40,0,3,,,,,,,,64,127,0,,,
9144,note_on,,8,0,1,,,,,,,,,,0,,85,0
9144,note_on,,0,0,1,,,,,,,,,,0,,92,56
9144,note_on,,24,0,2,,,,,,,,,,0,,42,34
9144,set_tempo,1395348,8,1,0,,,,,,,,,,,,,
9146,control_change,,2,0,3,,,,,,,,64,0,0,,,
9152,control_change,,6,0,3,,,,,,,,64,127,0,,,
9168,note_on,,24,0,1,,,,,,,,,,0,,92,0
9168,set_tempo,869565,24,1,0,,,,,,,,,,,,,
9168,note_on,,0,0,1,,,,,,,,,,0,,90,45
9176,set_tempo,631578,8,1,0,,,,,,,,,,,,,
9176,note_on,,0,0,1,,,,,,,,,,0,,85,42
9176,note_on,,8,0,1,,,,,,,,,,0,,90,0
9180,note_on,,36,0,2,,,,,,,,,,0,,42,0
9184,set_tempo,1153846,8,1,0,,,,,,,,,,,,,
9184,note_on,,0,0,1,,,,,,,,,,0,,82,40
9184,note_on,,8,0,1,,,,,,,,,,0,,85,0
9192,set_tempo,1395348,8,1,0,,,,,,,,,,,,,
9192,note_on,,0,0,1,,,,,,,,,,0,,87,53
9192,note_on,,8,0,1,,,,,,,,,,0,,82,0
9192,note_on,,0,0,2,,,,,,,,,,0,,54,28
9192,note_on,,0,0,2,,,,,,,,,,0,,58,32
9192,note_on,,12,0,2,,,,,,,,,,0,,49,24
9194,control_change,,42,0,3,,,,,,,,64,0,0,,,
9200,control_change,,6,0,3,,,,,,,,64,127,0,,,
9208,note_on,,0,0,2,,,,,,,,,,0,,49,0
9208,note_on,,0,0,2,,,,,,,,,,0,,54,0
9208,note_on,,16,0,2,,,,,,,,,,0,,58,0
9216,note_on,,0,0,2,,,,,,,,,,0,,58,38
9216,note_on,,0,0,2,,,,,,,,,,0,,54,34
9216,note_on,,8,0,2,,,,,,,,,,0,,49,30
9216,note_on,,24,0,1,,,,,,,,,,0,,87,0
9216,note_on,,0,0,1,,,,,,,,,,0,,85,39
9216,set_tempo,1333333,24,1,0,,,,,,,,,,,,,
9220,note_on,,0,0,2,,,,,,,,,,0,,54,0
9220,note_on,,4,0,2,,,,,,,,,,0,,58,0
9220,note_on,,0,0,2,,,,,,,,,,0,,49,0
9224,note_on,,0,0,2,,,,,,,,,,0,,58,39
9224,note_on,,0,0,2,,,,,,,,,,0,,54,35
9224,note_on,,8,0,1,,,,,,,,,,0,,85,0
9224,set_tempo,869565,8,1,0,,,,,,,,,,,,,
9224,note_on,,0,0,1,,,,,,,,,,0,,82,35
9224,note_on,,4,0,2,,,,,,,,,,0,,49,31
9228,note_on,,0,0,2,,,,,,,,,,0,,54,0
9228,note_on,,0,0,2,,,,,,,,,,0,,49,0
9228,note_on,,4,0,2,,,,,,,,,,0,,58,0
9232,note_on,,0,0,2,,,,,,,,,,0,,58,41
9232,note_on,,0,0,1,,,,,,,,,,0,,78,37
9232,note_on,,8,0,1,,,,,,,,,,0,,82,0
9232,set_tempo,1250000,8,1,0,,,,,,,,,,,,,
9232,note_on,,0,0,2,,,,,,,,,,0,,54,37
9232,note_on,,4,0,2,,,,,,,,,,0,,49,33
9236,note_on,,0,0,2,,,,,,,,,,0,,49,0
9236,note_on,,0,0,2,,,,,,,,,,0,,54,0
9236,note_on,,4,0,2,,,,,,,,,,0,,58,0
9240,note_on,,0,0,1,,,,,,,,,,0,,83,60
9240,note_on,,8,0,1,,,,,,,,,,0,,78,0
9240,note_on,,0,0,2,,,,,,,,,,0,,61,40
9240,note_on,,0,0,2,,,,,,,,,,0,,58,36
9240,note_on,,4,0,2,,,,,,,,,,0,,54,32
9240,set_tempo,1333333,8,1,0,,,,,,,,,,,,,
9242,control_change,,42,0,3,,,,,,,,64,0,0,,,
9248,control_change,,6,0,3,,,,,,,,64,127,0,,,
9264,note_on,,0,0,2,,,,,,,,,,0,,58,0
9264,note_on,,24,0,1,,,,,,,,,,0,,83,0
9264,set_tempo,1000000,24,1,0,,,,,,,,,,,,,
9264,note_on,,0,0,2,,,,,,,,,,0,,54,0
9264,note_on,,24,0,2,,,,,,,,,,0,,61,0
9264,note_on,,0,0,1,,,,,,,,,,0,,82,55
9272,set_tempo,750000,8,1,0,,,,,,,,,,,,,
9272,note_on,,0,0,1,,,,,,,,,,0,,78,37
9272,note_on,,8,0,1,,,,,,,,,,0,,82,0
9280,set_tempo,1071428,8,1,0,,,,,,,,,,,,,
9280,note_on,,8,0,1,,,,,,,,,,0,,78,0
9280,note_on,,0,0,1,,,,,,,,,,0,,73,50
9288,note_on,,0,0,1,,,,,,,,,,0,,80,39
9288,note_on,,8,0,1,,,,,,,,,,0,,73,0
9288,set_tempo,1250000,8,1,0,,,,,,,,,,,,,
9288,note_on,,0,0,2,,,,,,,,,,0,,58,31
9288,note_on,,0,0,2,,,,,,,,,,0,,54,25
9288,note_on,,24,0,2,,,,,,,,,,0,,49,23
9290,control_change,,42,0,3,,,,,,,,64,0,0,,,
9296,control_change,,6,0,3,,,,,,,,64,127,0,,,
9312,note_on,,0,0,1,,,,,,,,,,0,,78,37
9312,note_on,,0,0,2,,,,,,,,,,0,,49,0
9312,note_on,,0,0,2,,,,,,,,,,0,,54,0
9312,note_on,,24,0,2,,,,,,,,,,0,,58,0
9312,set_tempo,2500000,24,1,0,,,,,,,,,,,,,
9312,note_on,,24,0,1,,,,,,,,,,0,,80,0
9318,set_tempo,1621621,6,1,0,,,,,,,,,,,,,
9318,note_on,,0,0,1,,,,,,,,,,0,,73,41
9318,note_on,,6,0,1,,,,,,,,,,0,,78,0
9324,set_tempo,750000,6,1,0,,,,,,,,,,,,,
9324,note_on,,0,0,1,,,,,,,,,,0,,70,41
9324,note_on,,6,0,1,,,,,,,,,,0,,73,0
9328,set_tempo,1538461,4,1,0,,,,,,,,,,,,,
9328,note_on,,16,0,2,,,,,,,,,,0,,42,33
9332,set_tempo,1463414,4,1,0,,,,,,,,,,,,,
9332,note_on,,4,0,2,,,,,,,,,,0,,49,36
9336,note_on,,12,0,1,,,,,,,,,,0,,70,0
9336,note_on,,0,0,1,,,,,,,,,,0,,75,48
9336,control_change,,40,0,3,,,,,,,,64,127,0,,,
9336,set_tempo,1621621,4,1,0,,,,,,,,,,,,,
9336,note_on,,4,0,2,,,,,,,,,,0,,58,39
9338,control_change,,2,0,3,,,,,,,,64,0,0,,,
9344,set_tempo,1200000,8,1,0,,,,,,,,,,,,,
9344,control_change,,6,0,3,,,,,,,,64,127,0,,,
9344,note_on,,8,0,1,,,,,,,,,,0,,75,0
9344,note_on,,0,0,1,,,,,,,,,,0,,73,44
9352,note_on,,0,0,1,,,,,,,,,,0,,70,42
9352,set_tempo,895522,8,1,0,,,,,,,,,,,,,
9352,note_on,,8,0,1,,,,,,,,,,0,,73,0
9360,note_on,,0,0,1,,,,,,,,,,0,,66,40
9360,note_on,,8,0,1,,,,,,,,,,0,,70,0
9360,note_on,,0,0,2,,,,,,,,,,0,,49,0
9360,note_on,,0,0,2,,,,,,,,,,0,,42,0
9360,note_on,,24,0,2,,,,,,,,,,0,,58,0
9360,set_tempo,952380,8,1,0,,,,,,,,,,,,,
9368,note_on,,0,0,1,,,,,,,,,,0,,71,42
9368,note_on,,8,0,1,,,,,,,,,,0,,66,0
9368,set_tempo,923076,8,1,0,,,,,,,,,,,,,
9376,note_on,,0,0,1,,,,,,,,,,0,,70,40
9376,note_on,,8,0,1,,,,,,,,,,0,,71,0
9376,set_tempo,1071428,8,1,0,,,,,,,,,,,,,
9384,set_tempo,869565,8,1,0,,,,,,,,,,,,,
9384,note_on,,8,0,1,,,,,,,,,,0,,70,0
9384,note_on,,0,0,1,,,,,,,,,,0,,66,39
9392,set_tempo,1000000,8,1,0,,,,,,,,,,,,,
9392,note_on,,0,0,1,,,,,,,,,,0,,61,38
9392,note_on,,8,0,1,,,,,,,,,,0,,66,0
9400,note_on,,0,0,1,,,,,,,,,,0,,68,40
9400,note_on,,8,0,1,,,,,,,,,,0,,61,0
9408,note_on,,0,0,1,,,,,,,,,,0,,66,38
9408,set_tempo,952380,16,1,0,,,,,,,,,,,,,
9408,note_on,,8,0,1,,,,,,,,,,0,,68,0
9416,note_on,,0,0,1,,,,,,,,,,0,,61,37
9416,note_on,,8,0,1,,,,,,,,,,0,,66,0
9424,set_tempo,1153846,16,1,0,,,,,,,,,,,,,
9424,note_on,,8,0,1,,,,,,,,,,0,,61,0
9424,note_on,,0,0,1,,,,,,,,,,0,,58,36
9432,note_on,,0,0,1,,,,,,,,,,0,,63,40
9432,control_change,,88,0,3,,,,,,,,64,0,0,,,
9432,note_on,,8,0,1,,,,,,,,,,0,,58,0
9432,set_tempo,952380,8,1,0,,,,,,,,,,,,,
9440,note_on,,0,0,1,,,,,,,,,,0,,61,39
9440,note_on,,8,0,1,,,,,,,,,,0,,63,0
9440,set_tempo,1153846,8,1,0,,,,,,,,,,,,,
9448,note_on,,8,0,1,,,,,,,,,,0,,61,0
9448,set_tempo,869565,8,1,0,,,,,,,,,,,,,
9448,note_on,,0,0,1,,,,,,,,,,0,,58,38
9456,set_tempo,1034482,8,1,0,,,,,,,,,,,,,
9456,note_on,,0,0,1,,,,,,,,,,0,,54,37
9456,note_on,,8,0,1,,,,,,,,,,0,,58,0
9464,note_on,,0,0,1,,,,,,,,,,0,,49,36
9464,note_on,,8,0,1,,,,,,,,,,0,,54,0
9464,set_tempo,1071428,8,1,0,,,,,,,,,,,,,
9472,note_on,,8,0,1,,,,,,,,,,0,,49,0
9472,note_on,,0,0,1,,,,,,,,,,0,,58,38
9472,set_tempo,1304347,8,1,0,,,,,,,,,,,,,
9480,note_on,,120,0,2,,,,,,,,,,0,,37,36
9480,note_on,,8,0,1,,,,,,,,,,0,,58,0
9480,note_on,,0,0,1,,,,,,,,,,0,,63,40
9480,set_tempo,1200000,8,1,0,,,,,,,,,,,,,
9484,control_change,,52,0,3,,,,,,,,64,127,0,,,
9488,set_tempo,1071428,8,1,0,,,,,,,,,,,,,
9488,note_on,,8,0,1,,,,,,,,,,0,,63,0
9488,note_on,,0,0,1,,,,,,,,,,0,,61,38
9496,note_on,,8,0,1,,,,,,,,,,0,,61,0
9496,note_on,,0,0,1,,,,,,,,,,0,,58,37
9504,note_on,,0,0,1,,,,,,,,,,0,,54,36
9504,set_tempo,952380,16,1,0,,,,,,,,,,,,,
9504,note_on,,8,0,1,,,,,,,,,,0,,58,0
9512,note_on,,8,0,1,,,,,,,,,,0,,54,0
9512,note_on,,0,0,1,,,,,,,,,,0,,49,34
9512,set_tempo,1250000,8,1,0,,,,,,,,,,,,,
9516,note_on,,36,0,2,,,,,,,,,,0,,37,0
9520,set_tempo,1463414,8,1,0,,,,,,,,,,,,,
9520,note_on,,8,0,1,,,,,,,,,,0,,49,0
9520,note_on,,0,0,1,,,,,,,,,,0,,58,36
9528,note_on,,0,0,1,,,,,,,,,,0,,63,42
9528,note_on,,8,0,1,,,,,,,,,,0,,58,0
9528,control_change,,44,0,3,,,,,,,,64,127,0,,,
9528,note_on,,0,0,2,,,,,,,,,,0,,42,31
9528,note_on,,12,0,2,,,,,,,,,,0,,30,26
9530,control_change,,2,0,3,,,,,,,,64,0,0,,,
9536,note_on,,8,0,1,,,,,,,,,,0,,63,0
9536,set_tempo,1333333,16,1,0,,,,,,,,,,,,,
9536,note_on,,0,0,1,,,,,,,,,,0,,61,35
9536,control_change,,6,0,3,,,,,,,,64,127,0,,,
9544,set_tempo,1000000,8,1,0,,,,,,,,,,,,,
9544,note_on,,8,0,1,,,,,,,,,,0,,61,0
9544,note_on,,0,0,1,,,,,,,,,,0,,58,34
9552,set_tempo,1111111,8,1,0,,,,,,,,,,,,,
9552,note_on,,8,0,1,,,,,,,,,,0,,58,0
9552,note_on,,0,0,1,,,,,,,,,,0,,54,33
9560,note_on,,8,0,1,,,,,,,,,,0,,54,0
9560,note_on,,0,0,1,,,,,,,,,,0,,49,32
9560,set_tempo,1153846,8,1,0,,,,,,,,,,,,,
9568,note_on,,8,0,1,,,,,,,,,,0,,49,0
9568,set_tempo,1000000,8,1,0,,,,,,,,,,,,,
9568,note_on,,0,0,1,,,,,,,,,,0,,58,34
9576,set_tempo,1200000,8,1,0,,,,,,,,,,,,,
9576,note_on,,0,0,1,,,,,,,,,,0,,63,36
9576,note_on,,8,0,1,,,,,,,,,,0,,58,0
9584,note_on,,8,0,1,,,,,,,,,,0,,63,0
9584,note_on,,0,0,1,,,,,,,,,,0,,61,35
9584,set_tempo,1071428,8,1,0,,,,,,,,,,,,,
9592,note_on,,0,0,1,,,,,,,,,,0,,58,33
9592,note_on,,8,0,1,,,,,,,,,,0,,61,0
9592,set_tempo,1000000,8,1,0,,,,,,,,,,,,,
9600,note_on,,0,0,1,,,,,,,,,,0,,54,32
9600,note_on,,8,0,1,,,,,,,,,,0,,58,0
9600,set_tempo,1111111,8,1,0,,,,,,,,,,,,,
9608,set_tempo,1153846,8,1,0,,,,,,,,,,,,,
9608,note_on,,0,0,1,,,,,,,,,,0,,49,31
9608,note_on,,8,0,1,,,,,,,,,,0,,54,0
9616,set_tempo,1250000,8,1,0,,,,,,,,,,,,,
9616,note_on,,0,0,1,,,,,,,,,,0,,58,32
9616,note_on,,8,0,1,,,,,,,,,,0,,49,0
9624,set_tempo,1200000,8,1,0,,,,,,,,,,,,,
9624,note_on,,0,0,1,,,,,,,,,,0,,63,32
9624,note_on,,8,0,1,,,,,,,,,,0,,58,0
9632,set_tempo,1250000,8,1,0,,,,,,,,,,,,,
9632,note_on,,0,0,1,,,,,,,,,,0,,61,30
9632,note_on,,8,0,1,,,,,,,,,,0,,63,0
9640,note_on,,0,0,1,,,,,,,,,,0,,58,28
9640,set_tempo,1333333,8,1,0,,,,,,,,,,,,,
9640,note_on,,8,0,1,,,,,,,,,,0,,61,0
9648,set_tempo,1395348,8,1,0,,,,,,,,,,,,,
9648,note_on,,0,0,1,,,,,,,,,,0,,54,27
9648,note_on,,8,0,1,,,,,,,,,,0,,58,0
9656,set_tempo,1621621,8,1,0,,,,,,,,,,,,,
9656,note_on,,0,0,1,,,,,,,,,,0,,49,24
9656,note_on,,8,0,1,,,,,,,,,,0,,54,0
9660,note_on,,0,0,2,,,,,,,,,,0,,30,0
9660,note_on,,132,0,2,,,,,,,,,,0,,42,0
9664,set_tempo,2307692,8,1,0,,,,,,,,,,,,,
9664,note_on,,8,0,1,,,,,,,,,,0,,49,0
9664,note_on,,0,0,1,,,,,,,,,,0,,58,26
9672,note_on,,0,0,1,,,,,,,,,,0,,63,30
9672,note_on,,12,0,2,,,,,,,,,,0,,37,23
9672,set_tempo,1395348,8,1,0,,,,,,,,,,,,,
9672,note_on,,8,0,1,,,,,,,,,,0,,58,0
9674,control_change,,138,0,3,,,,,,,,64,0,0,,,
9680,control_change,,6,0,3,,,,,,,,64,127,0,,,
9688,note_on,,0,0,1,,,,,,,,,,0,,61,28
9688,note_on,,16,0,1,,,,,,,,,,0,,63,0
9688,set_tempo,1250000,16,1,0,,,,,,,,,,,,,
9704,note_on,,16,0,1,,,,,,,,,,0,,61,0
9704,note_on,,0,0,1,,,,,,,,,,0,,58,27
9704,set_tempo,1818181,16,1,0,,,,,,,,,,,,,
9720,note_on,,0,0,1,,,,,,,,,,0,,54,26
9720,set_tempo,1200000,16,1,0,,,,,,,,,,,,,
9720,note_on,,16,0,1,,,,,,,,,,0,,58,0
9744,set_tempo,1818181,24,1,0,,,,,,,,,,,,,
9744,note_on,,24,0,1,,,,,,,,,,0,,54,0
9744,note_on,,0,0,1,,,,,,,,,,0,,49,25
9768,set_tempo,1621621,24,1,0,,,,,,,,,,,,,
9768,note_on,,24,0,1,,,,,,,,,,0,,49,0
9768,note_on,,0,0,1,,,,,,,,,,0,,61,24
9770,control_change,,90,0,3,,,,,,,,64,0,0,,,
9774,control_change,,4,0,3,,,,,,,,64,127,0,,,
9792,note_on,,120,0,2,,,,,,,,,,0,,37,0
9816,note_on,,48,0,1,,,,,,,,,,0,,61,0
9816,time_signature,,48,1,0,12,8,24,8,,,,,,,,,
9816,note_on,,0,0,1,,,,,,,,,,0,,70,29
9816,control_change,,42,0,3,,,,,,,,64,127,0,,,
9816,set_tempo,1818181,0,1,0,,,,,,,,,,,,,
9816,note_on,,24,0,2,,,,,,,,,,0,,30,24
9817,control_change,,1,0,3,,,,,,,,64,0,0,,,
9820,control_change,,3,0,3,,,,,,,,64,127,0,,,
9960,note_on,,144,0,1,,,,,,,,,,0,,70,0
9960,control_change,,140,0,3,,,,,,,,64,0,0,,,
9960,note_on,,144,0,2,,,,,,,,,,0,,30,0
10008,end_of_track,,0,1,0,,,,,,,,,,,,,
10008,end_of_track,,48,1,2,,,,,,,,,,,,,
10008,end_of_track,,48,1,1,,,,,,,,,,,,,
10008,time_signature,,192,1,0,4,4,24,8,,,,,,,,,
10008,end_of_track,,48,1,3,,,,,,,,,,,,,
