tick,type,time,meta,track,frame_rate,hours,minutes,seconds,frames,sub_frames,numerator,denominator,clocks_per_click,notated_32nd_notes_per_beat,key,tempo,port,program,channel,control,value,note,velocity
0,track_name,0,1,0,,,,,,,,,,,,,,,,,,,
0,program_change,0,0,1,,,,,,,,,,,,,,0,0,,,,
0,control_change,0,0,1,,,,,,,,,,,,,,,0,7,100,,
0,control_change,0,0,1,,,,,,,,,,,,,,,0,10,64,,
0,control_change,0,0,1,,,,,,,,,,,,,,,0,64,0,,
0,control_change,0,0,1,,,,,,,,,,,,,,,0,91,127,,
0,text,0,1,1,,,,,,,,,,,,,,,,,,,
0,midi_port,0,1,2,,,,,,,,,,,,,0,,,,,,
0,track_name,0,1,2,,,,,,,,,,,,,,,,,,,
0,program_change,0,0,2,,,,,,,,,,,,,,0,0,,,,
0,control_change,0,0,2,,,,,,,,,,,,,,,0,7,100,,
0,control_change,0,0,2,,,,,,,,,,,,,,,0,10,64,,
0,midi_port,0,1,9,,,,,,,,,,,,,0,,,,,,
0,midi_port,0,1,3,,,,,,,,,,,,,0,,,,,,
0,track_name,0,1,3,,,,,,,,,,,,,,,,,,,
0,end_of_track,0,1,3,,,,,,,,,,,,,,,,,,,
0,midi_port,0,1,4,,,,,,,,,,,,,0,,,,,,
0,track_name,0,1,4,,,,,,,,,,,,,,,,,,,
0,end_of_track,0,1,4,,,,,,,,,,,,,,,,,,,
0,midi_port,0,1,5,,,,,,,,,,,,,0,,,,,,
0,track_name,0,1,5,,,,,,,,,,,,,,,,,,,
0,end_of_track,0,1,5,,,,,,,,,,,,,,,,,,,
0,midi_port,0,1,6,,,,,,,,,,,,,0,,,,,,
0,track_name,0,1,6,,,,,,,,,,,,,,,,,,,
0,end_of_track,0,1,6,,,,,,,,,,,,,,,,,,,
0,midi_port,0,1,7,,,,,,,,,,,,,0,,,,,,
0,track_name,0,1,7,,,,,,,,,,,,,,,,,,,
0,end_of_track,0,1,7,,,,,,,,,,,,,,,,,,,
0,midi_port,0,1,8,,,,,,,,,,,,,0,,,,,,
0,end_of_track,0,1,8,,,,,,,,,,,,,,,,,,,
0,track_name,0,1,1,,,,,,,,,,,,,,,,,,,
0,midi_port,0,1,1,,,,,,,,,,,,,0,,,,,,
0,end_of_track,0,1,9,,,,,,,,,,,,,,,,,,,
0,copyright,0,1,0,,,,,,,,,,,,,,,,,,,
0,smpte_offset,0,1,0,25,32,0,3,0,0,,,,,,,,,,,,,
0,text,0,1,0,,,,,,,,,,,,,,,,,,,
0,text,0,1,0,,,,,,,,,,,,,,,,,,,
0,text,0,1,0,,,,,,,,,,,,,,,,,,,
0,text,0,1,0,,,,,,,,,,,,,,,,,,,
0,text,0,1,0,,,,,,,,,,,,,,,,,,,
0,text,0,1,0,,,,,,,,,,,,,,,,,,,
0,set_tempo,0,1,0,,,,,,,,,,,,315789,,,,,,,
0,time_signature,0,1,0,,,,,,,4,4,24,8,,,,,,,,,
0,key_signature,0,1,0,,,,,,,,,,,G,,,,,,,,
1440,set_tempo,1440,1,0,,,,,,,,,,,,1114827,,,,,,,
1440,note_on,1440,0,1,,,,,,,,,,,,,,,0,,,59,55
1800,note_on,0,0,1,,,,,,,,,,,,,,,0,,,71,52
1800,set_tempo,360,1,0,,,,,,,,,,,,1124649,,,,,,,
1800,note_on,360,0,1,,,,,,,,,,,,,,,0,,,59,0
1920,note_on,0,0,2,,,,,,,,,,,,,,,0,,,64,31
1920,note_on,0,0,2,,,,,,,,,,,,,,,0,,,59,25
1920,note_on,0,0,2,,,,,,,,,,,,,,,0,,,55,21
1920,control_change,1920,0,2,,,,,,,,,,,,,,,0,64,127,,
1920,note_on,0,0,1,,,,,,,,,,,,,,,0,,,71,62
1920,set_tempo,120,1,0,,,,,,,,,,,,1041848,,,,,,,
1920,note_on,120,0,1,,,,,,,,,,,,,,,0,,,71,0
2160,note_on,0,0,2,,,,,,,,,,,,,,,0,,,55,0
2160,note_on,240,0,2,,,,,,,,,,,,,,,0,,,64,0
2160,note_on,0,0,2,,,,,,,,,,,,,,,0,,,59,0
2160,note_on,0,0,2,,,,,,,,,,,,,,,0,,,55,18
2160,set_tempo,240,1,0,,,,,,,,,,,,916031,,,,,,,
2160,note_on,0,0,2,,,,,,,,,,,,,,,0,,,59,22
2160,note_on,0,0,2,,,,,,,,,,,,,,,0,,,64,27
2400,note_on,240,0,2,,,,,,,,,,,,,,,0,,,64,0
2400,note_on,0,0,2,,,,,,,,,,,,,,,0,,,59,0
2400,note_on,0,0,2,,,,,,,,,,,,,,,0,,,55,0
2400,note_on,0,0,2,,,,,,,,,,,,,,,0,,,55,18
2400,note_on,0,0,2,,,,,,,,,,,,,,,0,,,59,22
2400,set_tempo,240,1,0,,,,,,,,,,,,882353,,,,,,,
2400,note_on,0,0,2,,,,,,,,,,,,,,,0,,,64,27
2640,note_on,0,0,2,,,,,,,,,,,,,,,0,,,64,27
2640,note_on,240,0,2,,,,,,,,,,,,,,,0,,,64,0
2640,note_on,0,0,2,,,,,,,,,,,,,,,0,,,59,0
2640,set_tempo,240,1,0,,,,,,,,,,,,895522,,,,,,,
2640,note_on,0,0,2,,,,,,,,,,,,,,,0,,,55,0
2640,note_on,0,0,2,,,,,,,,,,,,,,,0,,,55,18
2640,note_on,0,0,2,,,,,,,,,,,,,,,0,,,59,22
2880,note_on,0,0,2,,,,,,,,,,,,,,,0,,,64,27
2880,note_on,0,0,2,,,,,,,,,,,,,,,0,,,59,22
2880,note_on,0,0,2,,,,,,,,,,,,,,,0,,,55,18
2880,note_on,0,0,2,,,,,,,,,,,,,,,0,,,55,0
2880,note_on,0,0,2,,,,,,,,,,,,,,,0,,,59,0
2880,note_on,240,0,2,,,,,,,,,,,,,,,0,,,64,0
2880,set_tempo,240,1,0,,,,,,,,,,,,948467,,,,,,,
3120,set_tempo,240,1,0,,,,,,,,,,,,977676,,,,,,,
3120,note_on,0,0,2,,,,,,,,,,,,,,,0,,,55,0
3120,note_on,0,0,2,,,,,,,,,,,,,,,0,,,64,27
3120,note_on,240,0,2,,,,,,,,,,,,,,,0,,,64,0
3120,note_on,0,0,2,,,,,,,,,,,,,,,0,,,59,0
3120,note_on,0,0,2,,,,,,,,,,,,,,,0,,,55,18
3120,note_on,0,0,2,,,,,,,,,,,,,,,0,,,59,22
3289,control_change,169,0,2,,,,,,,,,,,,,,,0,64,0,,
3360,set_tempo,240,1,0,,,,,,,,,,,,1000834,,,,,,,
3360,note_on,1440,0,1,,,,,,,,,,,,,,,0,,,71,0
3360,note_on,0,0,2,,,,,,,,,,,,,,,0,,,55,0
3360,note_on,0,0,2,,,,,,,,,,,,,,,0,,,55,16
3360,note_on,0,0,2,,,,,,,,,,,,,,,0,,,59,19
3360,note_on,0,0,2,,,,,,,,,,,,,,,0,,,64,24
3360,note_on,71,0,2,,,,,,,,,,,,,,,0,,,64,0
3360,note_on,0,0,2,,,,,,,,,,,,,,,0,,,59,0
3370,note_on,10,0,1,,,,,,,,,,,,,,,0,,,72,58
3388,control_change,28,0,2,,,,,,,,,,,,,,,0,64,127,,
3440,set_tempo,80,1,0,,,,,,,,,,,,1008742,,,,,,,
3480,set_tempo,40,1,0,,,,,,,,,,,,1016777,,,,,,,
3520,set_tempo,40,1,0,,,,,,,,,,,,1024940,,,,,,,
3560,set_tempo,40,1,0,,,,,,,,,,,,1033236,,,,,,,
3600,note_on,0,0,2,,,,,,,,,,,,,,,0,,,64,24
3600,note_on,0,0,2,,,,,,,,,,,,,,,0,,,59,19
3600,note_on,0,0,2,,,,,,,,,,,,,,,0,,,55,16
3600,note_on,0,0,2,,,,,,,,,,,,,,,0,,,55,0
3600,note_on,0,0,2,,,,,,,,,,,,,,,0,,,59,0
3600,note_on,212,0,2,,,,,,,,,,,,,,,0,,,64,0
3640,set_tempo,80,1,0,,,,,,,,,,,,1041848,,,,,,,
3680,set_tempo,40,1,0,,,,,,,,,,,,1050420,,,,,,,
3720,set_tempo,40,1,0,,,,,,,,,,,,1059135,,,,,,,
3760,set_tempo,40,1,0,,,,,,,,,,,,1067996,,,,,,,
3800,set_tempo,40,1,0,,,,,,,,,,,,1145038,,,,,,,
3840,note_on,240,0,2,,,,,,,,,,,,,,,0,,,64,0
3840,note_on,0,0,2,,,,,,,,,,,,,,,0,,,59,0
3840,set_tempo,40,1,0,,,,,,,,,,,,992884,,,,,,,
3840,note_on,0,0,2,,,,,,,,,,,,,,,0,,,55,0
3840,note_on,0,0,2,,,,,,,,,,,,,,,0,,,54,21
3840,note_on,0,0,2,,,,,,,,,,,,,,,0,,,64,31
3840,note_on,0,0,2,,,,,,,,,,,,,,,0,,,57,25
3840,control_change,0,0,2,,,,,,,,,,,,,,,0,64,0,,
3850,note_on,480,0,1,,,,,,,,,,,,,,,0,,,72,0
3850,note_on,0,0,1,,,,,,,,,,,,,,,0,,,71,62
3931,control_change,91,0,2,,,,,,,,,,,,,,,0,64,127,,
4080,set_tempo,240,1,0,,,,,,,,,,,,934579,,,,,,,
4080,note_on,149,0,2,,,,,,,,,,,,,,,0,,,57,0
4080,note_on,0,0,2,,,,,,,,,,,,,,,0,,,64,0
4080,note_on,0,0,2,,,,,,,,,,,,,,,0,,,54,0
4080,note_on,0,0,2,,,,,,,,,,,,,,,0,,,54,18
4080,note_on,0,0,2,,,,,,,,,,,,,,,0,,,57,22
4080,note_on,0,0,2,,,,,,,,,,,,,,,0,,,64,27
4320,set_tempo,240,1,0,,,,,,,,,,,,882613,,,,,,,
4320,note_on,240,0,2,,,,,,,,,,,,,,,0,,,64,0
4320,note_on,0,0,2,,,,,,,,,,,,,,,0,,,57,0
4320,note_on,0,0,2,,,,,,,,,,,,,,,0,,,54,0
4320,note_on,0,0,2,,,,,,,,,,,,,,,0,,,54,18
4320,note_on,0,0,2,,,,,,,,,,,,,,,0,,,64,27
4320,note_on,0,0,2,,,,,,,,,,,,,,,0,,,57,22
4560,note_on,240,0,2,,,,,,,,,,,,,,,0,,,57,0
4560,note_on,0,0,2,,,,,,,,,,,,,,,0,,,64,0
4560,note_on,0,0,2,,,,,,,,,,,,,,,0,,,54,0
4560,note_on,0,0,2,,,,,,,,,,,,,,,0,,,64,27
4560,note_on,0,0,2,,,,,,,,,,,,,,,0,,,57,22
4560,note_on,0,0,2,,,,,,,,,,,,,,,0,,,54,18
4800,note_on,0,0,2,,,,,,,,,,,,,,,0,,,63,27
4800,note_on,0,0,2,,,,,,,,,,,,,,,0,,,54,18
4800,note_on,0,0,2,,,,,,,,,,,,,,,0,,,57,22
4800,note_on,0,0,2,,,,,,,,,,,,,,,0,,,57,0
4800,note_on,0,0,2,,,,,,,,,,,,,,,0,,,54,0
4800,note_on,240,0,2,,,,,,,,,,,,,,,0,,,64,0
4800,set_tempo,480,1,0,,,,,,,,,,,,920952,,,,,,,
4823,control_change,23,0,2,,,,,,,,,,,,,,,0,64,0,,
4903,control_change,80,0,2,,,,,,,,,,,,,,,0,64,127,,
5040,set_tempo,240,1,0,,,,,,,,,,,,941472,,,,,,,
5040,note_on,137,0,2,,,,,,,,,,,,,,,0,,,63,0
5040,note_on,0,0,2,,,,,,,,,,,,,,,0,,,54,0
5040,note_on,0,0,2,,,,,,,,,,,,,,,0,,,57,0
5040,note_on,0,0,2,,,,,,,,,,,,,,,0,,,63,27
5040,note_on,0,0,2,,,,,,,,,,,,,,,0,,,57,22
5040,note_on,0,0,2,,,,,,,,,,,,,,,0,,,54,18
5280,note_on,240,0,2,,,,,,,,,,,,,,,0,,,54,0
5280,note_on,0,0,2,,,,,,,,,,,,,,,0,,,57,0
5280,note_on,0,0,2,,,,,,,,,,,,,,,0,,,63,0
5280,note_on,0,0,2,,,,,,,,,,,,,,,0,,,54,16
5280,note_on,0,0,2,,,,,,,,,,,,,,,0,,,57,19
5280,set_tempo,240,1,0,,,,,,,,,,,,970246,,,,,,,
5280,note_on,0,0,2,,,,,,,,,,,,,,,0,,,63,24
5290,note_on,1440,0,1,,,,,,,,,,,,,,,0,,,71,0
5290,note_on,0,0,1,,,,,,,,,,,,,,,0,,,72,58
5326,control_change,46,0,2,,,,,,,,,,,,,,,0,64,0,,
5360,set_tempo,80,1,0,,,,,,,,,,,,977676,,,,,,,
5400,set_tempo,40,1,0,,,,,,,,,,,,985222,,,,,,,
5406,control_change,80,0,2,,,,,,,,,,,,,,,0,64,127,,
5440,set_tempo,40,1,0,,,,,,,,,,,,992884,,,,,,,
5480,set_tempo,40,1,0,,,,,,,,,,,,1000834,,,,,,,
5520,note_on,114,0,2,,,,,,,,,,,,,,,0,,,63,0
5520,note_on,0,0,2,,,,,,,,,,,,,,,0,,,57,0
5520,note_on,0,0,2,,,,,,,,,,,,,,,0,,,54,0
5520,note_on,0,0,2,,,,,,,,,,,,,,,0,,,54,16
5520,note_on,0,0,2,,,,,,,,,,,,,,,0,,,57,19
5520,note_on,0,0,2,,,,,,,,,,,,,,,0,,,63,24
5520,set_tempo,40,1,0,,,,,,,,,,,,1008742,,,,,,,
5600,set_tempo,80,1,0,,,,,,,,,,,,1016777,,,,,,,
5640,set_tempo,40,1,0,,,,,,,,,,,,1024940,,,,,,,
5680,set_tempo,40,1,0,,,,,,,,,,,,1033236,,,,,,,
5720,set_tempo,40,1,0,,,,,,,,,,,,1041848,,,,,,,
5760,note_on,0,0,2,,,,,,,,,,,,,,,0,,,63,31
5760,set_tempo,40,1,0,,,,,,,,,,,,1000834,,,,,,,
5760,note_on,0,0,2,,,,,,,,,,,,,,,0,,,57,25
5760,control_change,0,0,2,,,,,,,,,,,,,,,0,64,0,,
5760,note_on,0,0,2,,,,,,,,,,,,,,,0,,,53,21
5760,note_on,0,0,2,,,,,,,,,,,,,,,0,,,54,0
5760,note_on,0,0,2,,,,,,,,,,,,,,,0,,,57,0
5760,note_on,240,0,2,,,,,,,,,,,,,,,0,,,63,0
5770,note_on,480,0,1,,,,,,,,,,,,,,,0,,,72,0
5770,note_on,0,0,1,,,,,,,,,,,,,,,0,,,71,62
5834,control_change,74,0,2,,,,,,,,,,,,,,,0,64,127,,
6000,note_on,0,0,2,,,,,,,,,,,,,,,0,,,57,0
6000,note_on,0,0,2,,,,,,,,,,,,,,,0,,,53,0
6000,note_on,0,0,2,,,,,,,,,,,,,,,0,,,53,18
6000,note_on,0,0,2,,,,,,,,,,,,,,,0,,,63,27
6000,note_on,0,0,2,,,,,,,,,,,,,,,0,,,57,22
6000,note_on,166,0,2,,,,,,,,,,,,,,,0,,,63,0
6000,set_tempo,240,1,0,,,,,,,,,,,,962773,,,,,,,
6040,set_tempo,40,1,0,,,,,,,,,,,,907853,,,,,,,
6240,note_on,0,0,2,,,,,,,,,,,,,,,0,,,53,18
6240,note_on,0,0,2,,,,,,,,,,,,,,,0,,,63,27
6240,note_on,0,0,2,,,,,,,,,,,,,,,0,,,53,0
6240,note_on,0,0,2,,,,,,,,,,,,,,,0,,,57,22
6240,note_on,240,0,2,,,,,,,,,,,,,,,0,,,57,0
6240,note_on,0,0,2,,,,,,,,,,,,,,,0,,,63,0
6240,set_tempo,200,1,0,,,,,,,,,,,,870448,,,,,,,
6480,note_on,0,0,2,,,,,,,,,,,,,,,0,,,63,27
6480,note_on,0,0,2,,,,,,,,,,,,,,,0,,,57,22
6480,note_on,0,0,2,,,,,,,,,,,,,,,0,,,53,18
6480,note_on,0,0,2,,,,,,,,,,,,,,,0,,,63,0
6480,note_on,0,0,2,,,,,,,,,,,,,,,0,,,57,0
6480,note_on,240,0,2,,,,,,,,,,,,,,,0,,,53,0
6720,note_on,0,0,2,,,,,,,,,,,,,,,0,,,53,18
6720,note_on,0,0,2,,,,,,,,,,,,,,,0,,,57,0
6720,note_on,240,0,2,,,,,,,,,,,,,,,0,,,63,0
6720,set_tempo,480,1,0,,,,,,,,,,,,941472,,,,,,,
6720,note_on,0,0,2,,,,,,,,,,,,,,,0,,,62,27
6720,note_on,0,0,2,,,,,,,,,,,,,,,0,,,53,0
6720,note_on,0,0,2,,,,,,,,,,,,,,,0,,,57,22
6770,control_change,50,0,2,,,,,,,,,,,,,,,0,64,0,,
6828,control_change,58,0,2,,,,,,,,,,,,,,,0,64,127,,
6960,set_tempo,240,1,0,,,,,,,,,,,,962773,,,,,,,
6960,note_on,132,0,2,,,,,,,,,,,,,,,0,,,53,0
6960,note_on,0,0,2,,,,,,,,,,,,,,,0,,,62,0
6960,note_on,0,0,2,,,,,,,,,,,,,,,0,,,57,0
6960,note_on,0,0,2,,,,,,,,,,,,,,,0,,,62,27
6960,note_on,0,0,2,,,,,,,,,,,,,,,0,,,57,22
6960,note_on,0,0,2,,,,,,,,,,,,,,,0,,,53,18
7200,note_on,1430,0,1,,,,,,,,,,,,,,,0,,,71,0
7200,note_on,0,0,2,,,,,,,,,,,,,,,0,,,56,19
7200,note_on,0,0,2,,,,,,,,,,,,,,,0,,,62,24
7200,note_on,0,0,2,,,,,,,,,,,,,,,0,,,53,16
7200,note_on,0,0,2,,,,,,,,,,,,,,,0,,,53,0
7200,note_on,0,0,1,,,,,,,,,,,,,,,0,,,72,59
7200,note_on,240,0,2,,,,,,,,,,,,,,,0,,,57,0
7200,set_tempo,240,1,0,,,,,,,,,,,,962773,,,,,,,
7200,note_on,0,0,2,,,,,,,,,,,,,,,0,,,62,0
7233,control_change,33,0,2,,,,,,,,,,,,,,,0,64,0,,
7280,set_tempo,80,1,0,,,,,,,,,,,,970246,,,,,,,
7291,control_change,58,0,2,,,,,,,,,,,,,,,0,64,127,,
7360,set_tempo,80,1,0,,,,,,,,,,,,977676,,,,,,,
7440,note_on,0,0,2,,,,,,,,,,,,,,,0,,,53,16
7440,set_tempo,80,1,0,,,,,,,,,,,,985222,,,,,,,
7440,note_on,0,0,2,,,,,,,,,,,,,,,0,,,62,24
7440,note_on,149,0,2,,,,,,,,,,,,,,,0,,,56,0
7440,note_on,0,0,2,,,,,,,,,,,,,,,0,,,62,0
7440,note_on,0,0,2,,,,,,,,,,,,,,,0,,,53,0
7440,note_on,0,0,2,,,,,,,,,,,,,,,0,,,56,19
7480,set_tempo,40,1,0,,,,,,,,,,,,992884,,,,,,,
7560,set_tempo,80,1,0,,,,,,,,,,,,1000834,,,,,,,
7640,set_tempo,80,1,0,,,,,,,,,,,,1008742,,,,,,,
7680,note_on,0,0,1,,,,,,,,,,,,,,,0,,,71,64
7680,note_on,240,0,2,,,,,,,,,,,,,,,0,,,62,0
7680,note_on,0,0,2,,,,,,,,,,,,,,,0,,,56,0
7680,note_on,0,0,2,,,,,,,,,,,,,,,0,,,53,0
7680,note_on,0,0,2,,,,,,,,,,,,,,,0,,,52,21
7680,note_on,480,0,1,,,,,,,,,,,,,,,0,,,72,0
7680,note_on,0,0,2,,,,,,,,,,,,,,,0,,,56,25
7680,note_on,0,0,2,,,,,,,,,,,,,,,0,,,62,31
7680,set_tempo,40,1,0,,,,,,,,,,,,977676,,,,,,,
7680,control_change,0,0,2,,,,,,,,,,,,,,,0,64,0,,
7760,control_change,80,0,2,,,,,,,,,,,,,,,0,64,127,,
7920,set_tempo,240,1,0,,,,,,,,,,,,907853,,,,,,,
7920,note_on,0,0,2,,,,,,,,,,,,,,,0,,,52,18
7920,note_on,160,0,2,,,,,,,,,,,,,,,0,,,62,0
7920,note_on,0,0,2,,,,,,,,,,,,,,,0,,,56,22
7920,note_on,0,0,2,,,,,,,,,,,,,,,0,,,52,0
7920,note_on,0,0,2,,,,,,,,,,,,,,,0,,,56,0
7920,note_on,0,0,2,,,,,,,,,,,,,,,0,,,62,27
8160,note_on,240,0,2,,,,,,,,,,,,,,,0,,,52,0
8160,note_on,0,0,2,,,,,,,,,,,,,,,0,,,62,0
8160,note_on,0,0,2,,,,,,,,,,,,,,,0,,,56,22
8160,note_on,0,0,2,,,,,,,,,,,,,,,0,,,62,27
8160,note_on,0,0,2,,,,,,,,,,,,,,,0,,,52,18
8160,set_tempo,240,1,0,,,,,,,,,,,,845070,,,,,,,
8160,note_on,0,0,2,,,,,,,,,,,,,,,0,,,56,0
8400,set_tempo,240,1,0,,,,,,,,,,,,875912,,,,,,,
8400,note_on,0,0,2,,,,,,,,,,,,,,,0,,,56,0
8400,note_on,0,0,2,,,,,,,,,,,,,,,0,,,62,0
8400,note_on,0,0,2,,,,,,,,,,,,,,,0,,,52,18
8400,note_on,0,0,2,,,,,,,,,,,,,,,0,,,56,22
8400,note_on,240,0,2,,,,,,,,,,,,,,,0,,,52,0
8400,note_on,0,0,2,,,,,,,,,,,,,,,0,,,62,27
8640,control_change,0,0,2,,,,,,,,,,,,,,,0,64,0,,
8640,note_on,240,0,2,,,,,,,,,,,,,,,0,,,52,0
8640,note_on,0,0,2,,,,,,,,,,,,,,,0,,,56,0
8640,note_on,0,0,2,,,,,,,,,,,,,,,0,,,62,0
8640,note_on,0,0,2,,,,,,,,,,,,,,,0,,,62,27
8640,note_on,0,0,2,,,,,,,,,,,,,,,0,,,55,22
8640,note_on,0,0,2,,,,,,,,,,,,,,,0,,,52,18
8640,set_tempo,240,1,0,,,,,,,,,,,,923077,,,,,,,
8731,control_change,91,0,2,,,,,,,,,,,,,,,0,64,127,,
8880,set_tempo,240,1,0,,,,,,,,,,,,967742,,,,,,,
8880,note_on,0,0,2,,,,,,,,,,,,,,,0,,,62,27
8880,note_on,0,0,2,,,,,,,,,,,,,,,0,,,55,22
8880,note_on,149,0,2,,,,,,,,,,,,,,,0,,,52,0
8880,note_on,0,0,2,,,,,,,,,,,,,,,0,,,62,0
8880,note_on,0,0,2,,,,,,,,,,,,,,,0,,,55,0
8880,note_on,0,0,2,,,,,,,,,,,,,,,0,,,52,18
9120,note_on,0,0,2,,,,,,,,,,,,,,,0,,,55,19
9120,note_on,1440,0,1,,,,,,,,,,,,,,,0,,,71,0
9120,set_tempo,240,1,0,,,,,,,,,,,,962773,,,,,,,
9120,note_on,0,0,2,,,,,,,,,,,,,,,0,,,52,0
9120,note_on,0,0,2,,,,,,,,,,,,,,,0,,,61,24
9120,note_on,240,0,2,,,,,,,,,,,,,,,0,,,62,0
9120,note_on,0,0,2,,,,,,,,,,,,,,,0,,,55,0
9120,note_on,0,0,2,,,,,,,,,,,,,,,0,,,52,16
9125,note_on,5,0,1,,,,,,,,,,,,,,,0,,,70,58
9154,control_change,34,0,2,,,,,,,,,,,,,,,0,64,0,,
9200,set_tempo,80,1,0,,,,,,,,,,,,970246,,,,,,,
9223,control_change,69,0,2,,,,,,,,,,,,,,,0,64,127,,
9280,set_tempo,80,1,0,,,,,,,,,,,,977676,,,,,,,
9360,note_on,0,0,2,,,,,,,,,,,,,,,0,,,61,24
9360,note_on,0,0,2,,,,,,,,,,,,,,,0,,,55,19
9360,note_on,0,0,2,,,,,,,,,,,,,,,0,,,52,16
9360,note_on,0,0,2,,,,,,,,,,,,,,,0,,,61,0
9360,note_on,0,0,2,,,,,,,,,,,,,,,0,,,52,0
9360,note_on,137,0,2,,,,,,,,,,,,,,,0,,,55,0
9360,set_tempo,80,1,0,,,,,,,,,,,,985222,,,,,,,
9400,set_tempo,40,1,0,,,,,,,,,,,,992884,,,,,,,
9480,set_tempo,80,1,0,,,,,,,,,,,,1000834,,,,,,,
9560,set_tempo,80,1,0,,,,,,,,,,,,1008742,,,,,,,
9600,note_on,240,0,2,,,,,,,,,,,,,,,0,,,61,0
9600,set_tempo,40,1,0,,,,,,,,,,,,1016777,,,,,,,
9600,note_on,0,0,2,,,,,,,,,,,,,,,0,,,55,0
9600,note_on,0,0,2,,,,,,,,,,,,,,,0,,,52,0
9600,note_on,0,0,2,,,,,,,,,,,,,,,0,,,52,21
9600,note_on,0,0,2,,,,,,,,,,,,,,,0,,,60,31
9600,note_on,0,0,2,,,,,,,,,,,,,,,0,,,55,25
9600,control_change,0,0,2,,,,,,,,,,,,,,,0,64,0,,
9605,note_on,480,0,1,,,,,,,,,,,,,,,0,,,70,0
9605,note_on,0,0,1,,,,,,,,,,,,,,,0,,,69,62
9701,control_change,101,0,2,,,,,,,,,,,,,,,0,64,127,,
9840,set_tempo,240,1,0,,,,,,,,,,,,888757,,,,,,,
9840,note_on,0,0,2,,,,,,,,,,,,,,,0,,,55,22
9840,note_on,139,0,2,,,,,,,,,,,,,,,0,,,55,0
9840,note_on,0,0,2,,,,,,,,,,,,,,,0,,,60,0
9840,note_on,0,0,2,,,,,,,,,,,,,,,0,,,60,27
9840,note_on,0,0,2,,,,,,,,,,,,,,,0,,,52,18
9840,note_on,0,0,2,,,,,,,,,,,,,,,0,,,52,0
10080,note_on,0,0,2,,,,,,,,,,,,,,,0,,,60,28
10080,note_on,0,0,2,,,,,,,,,,,,,,,0,,,52,18
10080,note_on,0,0,2,,,,,,,,,,,,,,,0,,,55,23
10080,note_on,0,0,2,,,,,,,,,,,,,,,0,,,55,0
10080,note_on,0,0,2,,,,,,,,,,,,,,,0,,,52,0
10080,note_on,240,0,2,,,,,,,,,,,,,,,0,,,60,0
10320,note_on,0,0,2,,,,,,,,,,,,,,,0,,,52,19
10320,note_on,0,0,2,,,,,,,,,,,,,,,0,,,55,23
10320,note_on,0,0,2,,,,,,,,,,,,,,,0,,,52,0
10320,note_on,0,0,2,,,,,,,,,,,,,,,0,,,55,0
10320,note_on,0,0,2,,,,,,,,,,,,,,,0,,,60,28
10320,note_on,240,0,2,,,,,,,,,,,,,,,0,,,60,0
10560,note_on,0,0,2,,,,,,,,,,,,,,,0,,,54,26
10560,note_on,0,0,2,,,,,,,,,,,,,,,0,,,52,20
10560,note_on,0,0,2,,,,,,,,,,,,,,,0,,,60,31
10560,note_on,0,0,2,,,,,,,,,,,,,,,0,,,55,0
10560,set_tempo,720,1,0,,,,,,,,,,,,864553,,,,,,,
10560,note_on,240,0,2,,,,,,,,,,,,,,,0,,,52,0
10560,note_on,0,0,2,,,,,,,,,,,,,,,0,,,60,0
10573,control_change,13,0,2,,,,,,,,,,,,,,,0,64,0,,
10674,control_change,101,0,2,,,,,,,,,,,,,,,0,64,127,,
10800,note_on,0,0,2,,,,,,,,,,,,,,,0,,,54,26
10800,note_on,126,0,2,,,,,,,,,,,,,,,0,,,54,0
10800,note_on,0,0,2,,,,,,,,,,,,,,,0,,,52,22
10800,note_on,0,0,2,,,,,,,,,,,,,,,0,,,60,34
10800,note_on,0,0,2,,,,,,,,,,,,,,,0,,,52,0
10800,set_tempo,240,1,0,,,,,,,,,,,,948467,,,,,,,
10800,note_on,0,0,2,,,,,,,,,,,,,,,0,,,60,0
11040,set_tempo,240,1,0,,,,,,,,,,,,962773,,,,,,,
11040,note_on,0,0,2,,,,,,,,,,,,,,,0,,,52,0
11040,note_on,0,0,2,,,,,,,,,,,,,,,0,,,60,0
11040,note_on,0,0,2,,,,,,,,,,,,,,,0,,,54,23
11040,note_on,0,0,2,,,,,,,,,,,,,,,0,,,52,19
11040,note_on,0,0,2,,,,,,,,,,,,,,,0,,,60,31
11040,note_on,240,0,2,,,,,,,,,,,,,,,0,,,54,0
11045,note_on,1440,0,1,,,,,,,,,,,,,,,0,,,69,0
11045,note_on,0,0,1,,,,,,,,,,,,,,,0,,,71,63
11078,control_change,38,0,2,,,,,,,,,,,,,,,0,64,0,,
11120,set_tempo,80,1,0,,,,,,,,,,,,970246,,,,,,,
11154,control_change,76,0,2,,,,,,,,,,,,,,,0,64,127,,
11160,set_tempo,40,1,0,,,,,,,,,,,,977676,,,,,,,
11200,set_tempo,40,1,0,,,,,,,,,,,,985222,,,,,,,
11240,set_tempo,40,1,0,,,,,,,,,,,,992884,,,,,,,
11280,note_on,126,0,2,,,,,,,,,,,,,,,0,,,60,0
11280,note_on,0,0,2,,,,,,,,,,,,,,,0,,,60,32
11280,note_on,0,0,2,,,,,,,,,,,,,,,0,,,54,25
11280,note_on,0,0,2,,,,,,,,,,,,,,,0,,,52,19
11280,note_on,0,0,2,,,,,,,,,,,,,,,0,,,54,0
11280,note_on,0,0,2,,,,,,,,,,,,,,,0,,,52,0
11320,set_tempo,80,1,0,,,,,,,,,,,,1000834,,,,,,,
11360,set_tempo,40,1,0,,,,,,,,,,,,1008742,,,,,,,
11400,set_tempo,40,1,0,,,,,,,,,,,,1016777,,,,,,,
11440,set_tempo,40,1,0,,,,,,,,,,,,1024940,,,,,,,
11520,note_on,0,0,2,,,,,,,,,,,,,,,0,,,52,0
11520,note_on,0,0,2,,,,,,,,,,,,,,,0,,,54,0
11520,note_on,0,0,2,,,,,,,,,,,,,,,0,,,54,34
11520,note_on,0,0,2,,,,,,,,,,,,,,,0,,,60,39
11520,note_on,0,0,2,,,,,,,,,,,,,,,0,,,52,27
11520,control_change,0,0,2,,,,,,,,,,,,,,,0,64,0,,
11520,note_on,240,0,2,,,,,,,,,,,,,,,0,,,60,0
11520,set_tempo,80,1,0,,,,,,,,,,,,962773,,,,,,,
11525,note_on,480,0,1,,,,,,,,,,,,,,,0,,,71,0
11525,note_on,0,0,1,,,,,,,,,,,,,,,0,,,69,66
11634,control_change,114,0,2,,,,,,,,,,,,,,,0,64,127,,
11760,note_on,0,0,2,,,,,,,,,,,,,,,0,,,60,0
11760,note_on,126,0,2,,,,,,,,,,,,,,,0,,,52,0
11760,set_tempo,240,1,0,,,,,,,,,,,,894988,,,,,,,
11760,note_on,0,0,2,,,,,,,,,,,,,,,0,,,54,27
11760,note_on,0,0,2,,,,,,,,,,,,,,,0,,,54,0
11760,note_on,0,0,2,,,,,,,,,,,,,,,0,,,60,35
11760,note_on,0,0,2,,,,,,,,,,,,,,,0,,,52,23
12000,note_on,0,0,2,,,,,,,,,,,,,,,0,,,52,22
12000,note_on,0,0,2,,,,,,,,,,,,,,,0,,,54,27
12000,note_on,0,0,2,,,,,,,,,,,,,,,0,,,60,35
12000,note_on,0,0,2,,,,,,,,,,,,,,,0,,,60,0
12000,note_on,240,0,2,,,,,,,,,,,,,,,0,,,52,0
12000,set_tempo,240,1,0,,,,,,,,,,,,827586,,,,,,,
12000,note_on,0,0,2,,,,,,,,,,,,,,,0,,,54,0
12240,note_on,240,0,2,,,,,,,,,,,,,,,0,,,52,0
12240,note_on,0,0,2,,,,,,,,,,,,,,,0,,,60,0
12240,note_on,0,0,2,,,,,,,,,,,,,,,0,,,54,0
12240,note_on,0,0,2,,,,,,,,,,,,,,,0,,,52,22
12240,note_on,0,0,2,,,,,,,,,,,,,,,0,,,60,34
12240,note_on,0,0,2,,,,,,,,,,,,,,,0,,,54,26
12480,note_on,0,0,2,,,,,,,,,,,,,,,0,,,51,26
12480,note_on,240,0,2,,,,,,,,,,,,,,,0,,,54,0
12480,note_on,0,0,2,,,,,,,,,,,,,,,0,,,60,0
12480,note_on,0,0,2,,,,,,,,,,,,,,,0,,,52,0
12480,note_on,0,0,2,,,,,,,,,,,,,,,0,,,60,32
12480,note_on,0,0,2,,,,,,,,,,,,,,,0,,,54,26
12480,set_tempo,480,1,0,,,,,,,,,,,,920952,,,,,,,
12526,control_change,46,0,2,,,,,,,,,,,,,,,0,64,0,,
12606,control_change,80,0,2,,,,,,,,,,,,,,,0,64,127,,
12720,note_on,114,0,2,,,,,,,,,,,,,,,0,,,54,0
12720,note_on,0,0,2,,,,,,,,,,,,,,,0,,,60,0
12720,note_on,0,0,2,,,,,,,,,,,,,,,0,,,51,0
12720,note_on,0,0,2,,,,,,,,,,,,,,,0,,,51,25
12720,note_on,0,0,2,,,,,,,,,,,,,,,0,,,54,25
12720,note_on,0,0,2,,,,,,,,,,,,,,,0,,,60,32
12960,note_on,0,0,2,,,,,,,,,,,,,,,0,,,54,20
12960,note_on,0,0,2,,,,,,,,,,,,,,,0,,,60,27
12960,note_on,0,0,2,,,,,,,,,,,,,,,0,,,51,20
12960,set_tempo,480,1,0,,,,,,,,,,,,934579,,,,,,,
12960,note_on,0,0,2,,,,,,,,,,,,,,,0,,,54,0
12960,note_on,240,0,2,,,,,,,,,,,,,,,0,,,60,0
12960,note_on,0,0,2,,,,,,,,,,,,,,,0,,,51,0
12965,note_on,1440,0,1,,,,,,,,,,,,,,,0,,,69,0
12965,note_on,0,0,1,,,,,,,,,,,,,,,0,,,71,67
12983,control_change,23,0,2,,,,,,,,,,,,,,,0,64,0,,
13040,set_tempo,80,1,0,,,,,,,,,,,,941472,,,,,,,
13051,control_change,68,0,2,,,,,,,,,,,,,,,0,64,127,,
13080,set_tempo,40,1,0,,,,,,,,,,,,948467,,,,,,,
13120,set_tempo,40,1,0,,,,,,,,,,,,955566,,,,,,,
13160,set_tempo,40,1,0,,,,,,,,,,,,962773,,,,,,,
13200,note_on,149,0,2,,,,,,,,,,,,,,,0,,,60,0
13200,note_on,0,0,2,,,,,,,,,,,,,,,0,,,51,0
13200,note_on,0,0,2,,,,,,,,,,,,,,,0,,,54,20
13200,note_on,0,0,2,,,,,,,,,,,,,,,0,,,60,26
13200,note_on,0,0,2,,,,,,,,,,,,,,,0,,,51,20
13200,note_on,0,0,2,,,,,,,,,,,,,,,0,,,54,0
13200,set_tempo,40,1,0,,,,,,,,,,,,970246,,,,,,,
13240,set_tempo,40,1,0,,,,,,,,,,,,977676,,,,,,,
13280,set_tempo,40,1,0,,,,,,,,,,,,985222,,,,,,,
13320,set_tempo,40,1,0,,,,,,,,,,,,992884,,,,,,,
13360,set_tempo,40,1,0,,,,,,,,,,,,1000834,,,,,,,
13400,set_tempo,40,1,0,,,,,,,,,,,,1008742,,,,,,,
13440,note_on,0,0,2,,,,,,,,,,,,,,,0,,,50,25
13440,set_tempo,40,1,0,,,,,,,,,,,,1024940,,,,,,,
13440,control_change,0,0,2,,,,,,,,,,,,,,,0,64,0,,
13440,note_on,0,0,2,,,,,,,,,,,,,,,0,,,60,37
13440,note_on,0,0,2,,,,,,,,,,,,,,,0,,,54,29
13440,note_on,0,0,2,,,,,,,,,,,,,,,0,,,54,0
13440,note_on,0,0,2,,,,,,,,,,,,,,,0,,,60,0
13440,note_on,240,0,2,,,,,,,,,,,,,,,0,,,51,0
13445,note_on,0,0,1,,,,,,,,,,,,,,,0,,,69,67
13445,note_on,480,0,1,,,,,,,,,,,,,,,0,,,71,0
13489,control_change,49,0,2,,,,,,,,,,,,,,,0,64,127,,
13680,note_on,0,0,2,,,,,,,,,,,,,,,0,,,54,26
13680,note_on,0,0,2,,,,,,,,,,,,,,,0,,,50,0
13680,note_on,0,0,2,,,,,,,,,,,,,,,0,,,60,32
13680,note_on,0,0,2,,,,,,,,,,,,,,,0,,,54,0
13680,note_on,0,0,2,,,,,,,,,,,,,,,0,,,50,20
13680,note_on,191,0,2,,,,,,,,,,,,,,,0,,,60,0
13680,set_tempo,240,1,0,,,,,,,,,,,,920952,,,,,,,
13920,note_on,0,0,2,,,,,,,,,,,,,,,0,,,50,20
13920,note_on,0,0,2,,,,,,,,,,,,,,,0,,,60,32
13920,note_on,0,0,2,,,,,,,,,,,,,,,0,,,54,26
13920,note_on,0,0,2,,,,,,,,,,,,,,,0,,,50,0
13920,note_on,0,0,2,,,,,,,,,,,,,,,0,,,54,0
13920,note_on,240,0,2,,,,,,,,,,,,,,,0,,,60,0
13920,set_tempo,240,1,0,,,,,,,,,,,,857143,,,,,,,
14160,note_on,0,0,2,,,,,,,,,,,,,,,0,,,60,0
14160,note_on,0,0,2,,,,,,,,,,,,,,,0,,,60,32
14160,note_on,0,0,2,,,,,,,,,,,,,,,0,,,54,0
14160,note_on,0,0,2,,,,,,,,,,,,,,,0,,,50,20
14160,note_on,240,0,2,,,,,,,,,,,,,,,0,,,50,0
14160,note_on,0,0,2,,,,,,,,,,,,,,,0,,,54,26
14400,note_on,240,0,2,,,,,,,,,,,,,,,0,,,54,0
14400,note_on,0,0,2,,,,,,,,,,,,,,,0,,,50,0
14400,note_on,0,0,2,,,,,,,,,,,,,,,0,,,60,0
14400,note_on,0,0,2,,,,,,,,,,,,,,,0,,,60,32
14400,note_on,0,0,2,,,,,,,,,,,,,,,0,,,50,20
14400,note_on,0,0,2,,,,,,,,,,,,,,,0,,,54,26
14400,set_tempo,480,1,0,,,,,,,,,,,,914355,,,,,,,
14640,note_on,0,0,2,,,,,,,,,,,,,,,0,,,60,0
14640,note_on,0,0,2,,,,,,,,,,,,,,,0,,,54,26
14640,note_on,240,0,2,,,,,,,,,,,,,,,0,,,54,0
14640,set_tempo,240,1,0,,,,,,,,,,,,955566,,,,,,,
14640,note_on,0,0,2,,,,,,,,,,,,,,,0,,,50,20
14640,note_on,0,0,2,,,,,,,,,,,,,,,0,,,50,0
14640,note_on,0,0,2,,,,,,,,,,,,,,,0,,,60,32
14880,note_on,0,0,2,,,,,,,,,,,,,,,0,,,50,0
14880,note_on,0,0,2,,,,,,,,,,,,,,,0,,,50,17
14880,note_on,0,0,2,,,,,,,,,,,,,,,0,,,60,26
14880,note_on,0,0,2,,,,,,,,,,,,,,,0,,,54,20
14880,set_tempo,240,1,0,,,,,,,,,,,,1008742,,,,,,,
14880,note_on,1435,0,1,,,,,,,,,,,,,,,0,,,71,66
14880,note_on,240,0,2,,,,,,,,,,,,,,,0,,,60,0
14880,note_on,0,0,2,,,,,,,,,,,,,,,0,,,54,0
14885,note_on,5,0,1,,,,,,,,,,,,,,,0,,,69,0
14920,set_tempo,40,1,0,,,,,,,,,,,,1016777,,,,,,,
14960,set_tempo,40,1,0,,,,,,,,,,,,1024940,,,,,,,
15000,set_tempo,40,1,0,,,,,,,,,,,,1033236,,,,,,,
15040,set_tempo,40,1,0,,,,,,,,,,,,1041848,,,,,,,
15080,set_tempo,40,1,0,,,,,,,,,,,,1050420,,,,,,,
15120,note_on,0,0,2,,,,,,,,,,,,,,,0,,,54,20
15120,note_on,0,0,2,,,,,,,,,,,,,,,0,,,50,0
15120,note_on,0,0,2,,,,,,,,,,,,,,,0,,,60,0
15120,note_on,0,0,2,,,,,,,,,,,,,,,0,,,60,26
15120,note_on,0,0,2,,,,,,,,,,,,,,,0,,,50,17
15120,note_on,240,0,2,,,,,,,,,,,,,,,0,,,54,0
15120,set_tempo,40,1,0,,,,,,,,,,,,1059135,,,,,,,
15160,set_tempo,40,1,0,,,,,,,,,,,,1067996,,,,,,,
15200,set_tempo,40,1,0,,,,,,,,,,,,1077006,,,,,,,
15240,set_tempo,40,1,0,,,,,,,,,,,,1086366,,,,,,,
15240,note_on,355,0,1,,,,,,,,,,,,,,,0,,,71,0
15240,note_on,0,0,1,,,,,,,,,,,,,,,0,,,69,57
15280,set_tempo,40,1,0,,,,,,,,,,,,1095690,,,,,,,
15320,set_tempo,40,1,0,,,,,,,,,,,,1114827,,,,,,,
15360,control_change,0,0,2,,,,,,,,,,,,,,,0,64,0,,
15360,note_on,0,0,2,,,,,,,,,,,,,,,0,,,50,21
15360,note_on,0,0,2,,,,,,,,,,,,,,,0,,,53,25
15360,note_on,0,0,2,,,,,,,,,,,,,,,0,,,54,0
15360,note_on,0,0,2,,,,,,,,,,,,,,,0,,,50,0
15360,note_on,240,0,2,,,,,,,,,,,,,,,0,,,60,0
15360,note_on,0,0,2,,,,,,,,,,,,,,,0,,,60,31
15360,note_on,120,0,1,,,,,,,,,,,,,,,0,,,69,0
15360,set_tempo,40,1,0,,,,,,,,,,,,1016777,,,,,,,
15370,note_on,10,0,1,,,,,,,,,,,,,,,0,,,69,62
15463,control_change,103,0,2,,,,,,,,,,,,,,,0,64,127,,
15600,note_on,0,0,2,,,,,,,,,,,,,,,0,,,50,18
15600,note_on,0,0,2,,,,,,,,,,,,,,,0,,,53,22
15600,note_on,0,0,2,,,,,,,,,,,,,,,0,,,53,0
15600,note_on,0,0,2,,,,,,,,,,,,,,,0,,,50,0
15600,note_on,0,0,2,,,,,,,,,,,,,,,0,,,60,27
15600,set_tempo,240,1,0,,,,,,,,,,,,941472,,,,,,,
15600,note_on,137,0,2,,,,,,,,,,,,,,,0,,,60,0
15840,set_tempo,240,1,0,,,,,,,,,,,,888757,,,,,,,
15840,note_on,240,0,2,,,,,,,,,,,,,,,0,,,50,0
15840,note_on,0,0,2,,,,,,,,,,,,,,,0,,,53,0
15840,note_on,0,0,2,,,,,,,,,,,,,,,0,,,60,0
15840,note_on,0,0,2,,,,,,,,,,,,,,,0,,,50,18
15840,note_on,0,0,2,,,,,,,,,,,,,,,0,,,53,22
15840,note_on,0,0,2,,,,,,,,,,,,,,,0,,,60,27
16080,note_on,0,0,2,,,,,,,,,,,,,,,0,,,53,22
16080,note_on,0,0,2,,,,,,,,,,,,,,,0,,,50,0
16080,note_on,0,0,2,,,,,,,,,,,,,,,0,,,60,27
16080,note_on,240,0,2,,,,,,,,,,,,,,,0,,,60,0
16080,note_on,0,0,2,,,,,,,,,,,,,,,0,,,53,0
16080,note_on,0,0,2,,,,,,,,,,,,,,,0,,,50,18
16320,note_on,0,0,2,,,,,,,,,,,,,,,0,,,59,27
16320,note_on,0,0,2,,,,,,,,,,,,,,,0,,,50,18
16320,note_on,0,0,2,,,,,,,,,,,,,,,0,,,50,0
16320,note_on,0,0,2,,,,,,,,,,,,,,,0,,,53,22
16320,note_on,240,0,2,,,,,,,,,,,,,,,0,,,53,0
16320,set_tempo,480,1,0,,,,,,,,,,,,920952,,,,,,,
16320,note_on,0,0,2,,,,,,,,,,,,,,,0,,,60,0
16331,control_change,11,0,2,,,,,,,,,,,,,,,0,64,0,,
16423,control_change,92,0,2,,,,,,,,,,,,,,,0,64,127,,
16560,set_tempo,240,1,0,,,,,,,,,,,,941472,,,,,,,
16560,note_on,137,0,2,,,,,,,,,,,,,,,0,,,59,0
16560,note_on,0,0,2,,,,,,,,,,,,,,,0,,,53,0
16560,note_on,0,0,2,,,,,,,,,,,,,,,0,,,50,0
16560,note_on,0,0,2,,,,,,,,,,,,,,,0,,,50,18
16560,note_on,0,0,2,,,,,,,,,,,,,,,0,,,53,22
16560,note_on,0,0,2,,,,,,,,,,,,,,,0,,,59,27
16766,control_change,206,0,2,,,,,,,,,,,,,,,0,64,0,,
16800,note_on,34,0,2,,,,,,,,,,,,,,,0,,,59,0
16800,note_on,0,0,2,,,,,,,,,,,,,,,0,,,53,0
16800,note_on,0,0,2,,,,,,,,,,,,,,,0,,,50,0
16800,note_on,0,0,2,,,,,,,,,,,,,,,0,,,53,19
16800,note_on,0,0,2,,,,,,,,,,,,,,,0,,,59,24
16800,note_on,0,0,2,,,,,,,,,,,,,,,0,,,50,16
16800,set_tempo,240,1,0,,,,,,,,,,,,970246,,,,,,,
16800,note_on,1430,0,1,,,,,,,,,,,,,,,0,,,69,0
16800,note_on,0,0,1,,,,,,,,,,,,,,,0,,,68,62
16857,control_change,57,0,2,,,,,,,,,,,,,,,0,64,127,,
16920,set_tempo,120,1,0,,,,,,,,,,,,977676,,,,,,,
17000,set_tempo,80,1,0,,,,,,,,,,,,985222,,,,,,,
17040,note_on,0,0,2,,,,,,,,,,,,,,,0,,,53,19
17040,note_on,183,0,2,,,,,,,,,,,,,,,0,,,50,0
17040,note_on,0,0,2,,,,,,,,,,,,,,,0,,,50,16
17040,note_on,0,0,2,,,,,,,,,,,,,,,0,,,59,0
17040,note_on,0,0,2,,,,,,,,,,,,,,,0,,,53,0
17040,note_on,0,0,2,,,,,,,,,,,,,,,0,,,59,24
17080,set_tempo,80,1,0,,,,,,,,,,,,992884,,,,,,,
17160,set_tempo,80,1,0,,,,,,,,,,,,1000834,,,,,,,
17240,set_tempo,80,1,0,,,,,,,,,,,,1008742,,,,,,,
17280,note_on,240,0,2,,,,,,,,,,,,,,,0,,,50,0
17280,note_on,0,0,2,,,,,,,,,,,,,,,0,,,48,24
17280,note_on,0,0,2,,,,,,,,,,,,,,,0,,,59,29
17280,note_on,0,0,2,,,,,,,,,,,,,,,0,,,52,29
17280,note_on,0,0,2,,,,,,,,,,,,,,,0,,,53,0
17280,note_on,0,0,2,,,,,,,,,,,,,,,0,,,59,0
17520,note_on,0,0,2,,,,,,,,,,,,,,,0,,,59,28
17520,set_tempo,280,1,0,,,,,,,,,,,,927644,,,,,,,
17520,note_on,0,0,2,,,,,,,,,,,,,,,0,,,59,0
17520,note_on,0,0,2,,,,,,,,,,,,,,,0,,,52,0
17520,note_on,0,0,2,,,,,,,,,,,,,,,0,,,48,23
17520,note_on,240,0,2,,,,,,,,,,,,,,,0,,,48,0
17520,note_on,0,0,2,,,,,,,,,,,,,,,0,,,52,28
17760,set_tempo,240,1,0,,,,,,,,,,,,894988,,,,,,,
17760,note_on,0,0,2,,,,,,,,,,,,,,,0,,,48,26
17760,note_on,0,0,2,,,,,,,,,,,,,,,0,,,59,0
17760,note_on,0,0,2,,,,,,,,,,,,,,,0,,,48,0
17760,note_on,240,0,2,,,,,,,,,,,,,,,0,,,52,0
17760,note_on,960,0,1,,,,,,,,,,,,,,,0,,,68,0
17760,note_on,0,0,1,,,,,,,,,,,,,,,0,,,69,65
17760,note_on,0,0,2,,,,,,,,,,,,,,,0,,,52,32
17760,note_on,0,0,2,,,,,,,,,,,,,,,0,,,57,32
17774,control_change,14,0,2,,,,,,,,,,,,,,,0,64,0,,
17901,control_change,127,0,2,,,,,,,,,,,,,,,0,64,127,,
18000,note_on,0,0,2,,,,,,,,,,,,,,,0,,,57,0
18000,note_on,99,0,2,,,,,,,,,,,,,,,0,,,52,0
18000,note_on,0,0,2,,,,,,,,,,,,,,,0,,,48,27
18000,note_on,0,0,2,,,,,,,,,,,,,,,0,,,52,35
18000,note_on,0,0,2,,,,,,,,,,,,,,,0,,,48,0
18000,note_on,0,0,2,,,,,,,,,,,,,,,0,,,57,35
18000,set_tempo,240,1,0,,,,,,,,,,,,876552,,,,,,,
18000,note_on,0,0,1,,,,,,,,,,,,,,,0,,,71,69
18000,note_on,240,0,1,,,,,,,,,,,,,,,0,,,69,0
18226,control_change,226,0,2,,,,,,,,,,,,,,,0,64,0,,
18240,note_on,0,0,2,,,,,,,,,,,,,,,0,,,57,0
18240,note_on,0,0,2,,,,,,,,,,,,,,,0,,,48,0
18240,note_on,14,0,2,,,,,,,,,,,,,,,0,,,52,0
18240,note_on,0,0,2,,,,,,,,,,,,,,,0,,,57,35
18240,set_tempo,240,1,0,,,,,,,,,,,,894988,,,,,,,
18240,note_on,0,0,1,,,,,,,,,,,,,,,0,,,74,74
18240,note_on,240,0,1,,,,,,,,,,,,,,,0,,,71,0
18240,note_on,0,0,2,,,,,,,,,,,,,,,0,,,52,35
18240,note_on,0,0,2,,,,,,,,,,,,,,,0,,,48,27
18280,set_tempo,40,1,0,,,,,,,,,,,,920952,,,,,,,
18325,control_change,85,0,2,,,,,,,,,,,,,,,0,64,127,,
18480,note_on,0,0,2,,,,,,,,,,,,,,,0,,,48,0
18480,note_on,0,0,2,,,,,,,,,,,,,,,0,,,52,32
18480,note_on,0,0,2,,,,,,,,,,,,,,,0,,,57,32
18480,note_on,0,0,2,,,,,,,,,,,,,,,0,,,48,26
18480,note_on,0,0,2,,,,,,,,,,,,,,,0,,,52,0
18480,note_on,155,0,2,,,,,,,,,,,,,,,0,,,57,0
18480,set_tempo,200,1,0,,,,,,,,,,,,955566,,,,,,,
18480,note_on,0,0,1,,,,,,,,,,,,,,,0,,,72,65
18480,note_on,240,0,1,,,,,,,,,,,,,,,0,,,74,0
18720,note_on,0,0,1,,,,,,,,,,,,,,,0,,,64,68
18720,note_on,0,0,2,,,,,,,,,,,,,,,0,,,57,26
18720,note_on,0,0,2,,,,,,,,,,,,,,,0,,,48,20
18720,note_on,0,0,2,,,,,,,,,,,,,,,0,,,52,26
18720,note_on,0,0,2,,,,,,,,,,,,,,,0,,,48,0
18720,note_on,0,0,2,,,,,,,,,,,,,,,0,,,57,0
18720,note_on,240,0,2,,,,,,,,,,,,,,,0,,,52,0
18720,note_on,240,0,1,,,,,,,,,,,,,,,0,,,72,0
18734,control_change,14,0,2,,,,,,,,,,,,,,,0,64,0,,
18833,control_change,99,0,2,,,,,,,,,,,,,,,0,64,127,,
18960,note_on,0,0,2,,,,,,,,,,,,,,,0,,,57,25
18960,note_on,0,0,2,,,,,,,,,,,,,,,0,,,48,20
18960,note_on,0,0,2,,,,,,,,,,,,,,,0,,,52,25
18960,note_on,0,0,2,,,,,,,,,,,,,,,0,,,52,0
18960,set_tempo,480,1,0,,,,,,,,,,,,1008742,,,,,,,
18960,note_on,127,0,2,,,,,,,,,,,,,,,0,,,57,0
18960,note_on,240,0,1,,,,,,,,,,,,,,,0,,,64,0
18960,note_on,0,0,1,,,,,,,,,,,,,,,0,,,69,62
18960,note_on,0,0,2,,,,,,,,,,,,,,,0,,,48,0
19200,note_on,240,0,1,,,,,,,,,,,,,,,0,,,69,0
19200,note_on,0,0,1,,,,,,,,,,,,,,,0,,,66,62
19200,note_on,240,0,2,,,,,,,,,,,,,,,0,,,57,0
19200,note_on,0,0,2,,,,,,,,,,,,,,,0,,,48,0
19200,note_on,0,0,2,,,,,,,,,,,,,,,0,,,52,0
19200,note_on,0,0,2,,,,,,,,,,,,,,,0,,,52,29
19200,note_on,0,0,2,,,,,,,,,,,,,,,0,,,57,29
19200,note_on,0,0,2,,,,,,,,,,,,,,,0,,,47,24
19200,control_change,0,0,2,,,,,,,,,,,,,,,0,64,0,,
19200,set_tempo,240,1,0,,,,,,,,,,,,970246,,,,,,,
19291,control_change,91,0,2,,,,,,,,,,,,,,,0,64,127,,
19440,note_on,0,0,2,,,,,,,,,,,,,,,0,,,52,0
19440,note_on,0,0,2,,,,,,,,,,,,,,,0,,,57,27
19440,note_on,0,0,2,,,,,,,,,,,,,,,0,,,47,22
19440,note_on,0,0,2,,,,,,,,,,,,,,,0,,,52,27
19440,set_tempo,240,1,0,,,,,,,,,,,,934579,,,,,,,
19440,note_on,149,0,2,,,,,,,,,,,,,,,0,,,47,0
19440,note_on,0,0,2,,,,,,,,,,,,,,,0,,,57,0
19680,set_tempo,240,1,0,,,,,,,,,,,,901442,,,,,,,
19680,note_on,0,0,2,,,,,,,,,,,,,,,0,,,51,27
19680,note_on,0,0,2,,,,,,,,,,,,,,,0,,,57,0
19680,note_on,0,0,2,,,,,,,,,,,,,,,0,,,57,27
19680,note_on,240,0,2,,,,,,,,,,,,,,,0,,,52,0
19680,note_on,0,0,2,,,,,,,,,,,,,,,0,,,47,22
19680,note_on,0,0,2,,,,,,,,,,,,,,,0,,,47,0
19691,control_change,11,0,2,,,,,,,,,,,,,,,0,64,0,,
19771,control_change,80,0,2,,,,,,,,,,,,,,,0,64,127,,
19920,note_on,0,0,2,,,,,,,,,,,,,,,0,,,47,22
19920,note_on,0,0,2,,,,,,,,,,,,,,,0,,,47,0
19920,note_on,0,0,2,,,,,,,,,,,,,,,0,,,57,0
19920,note_on,149,0,2,,,,,,,,,,,,,,,0,,,51,0
19920,note_on,0,0,2,,,,,,,,,,,,,,,0,,,51,27
19920,note_on,0,0,2,,,,,,,,,,,,,,,0,,,57,27
20160,note_on,0,0,2,,,,,,,,,,,,,,,0,,,47,0
20160,note_on,0,0,2,,,,,,,,,,,,,,,0,,,48,22
20160,note_on,0,0,2,,,,,,,,,,,,,,,0,,,57,27
20160,note_on,0,0,2,,,,,,,,,,,,,,,0,,,52,27
20160,note_on,240,0,2,,,,,,,,,,,,,,,0,,,57,0
20160,note_on,0,0,2,,,,,,,,,,,,,,,0,,,51,0
20183,control_change,23,0,2,,,,,,,,,,,,,,,0,64,0,,
20200,set_tempo,520,1,0,,,,,,,,,,,,955566,,,,,,,
20251,control_change,68,0,2,,,,,,,,,,,,,,,0,64,127,,
20400,note_on,0,0,2,,,,,,,,,,,,,,,0,,,48,22
20400,note_on,0,0,2,,,,,,,,,,,,,,,0,,,52,27
20400,note_on,0,0,2,,,,,,,,,,,,,,,0,,,48,0
20400,note_on,149,0,2,,,,,,,,,,,,,,,0,,,52,0
20400,note_on,0,0,2,,,,,,,,,,,,,,,0,,,57,27
20400,note_on,0,0,2,,,,,,,,,,,,,,,0,,,57,0
20640,note_on,0,0,1,,,,,,,,,,,,,,,0,,,69,57
20640,note_on,1440,0,1,,,,,,,,,,,,,,,0,,,66,0
20640,set_tempo,440,1,0,,,,,,,,,,,,970246,,,,,,,
20640,note_on,0,0,2,,,,,,,,,,,,,,,0,,,48,19
20640,note_on,240,0,2,,,,,,,,,,,,,,,0,,,57,0
20640,note_on,0,0,2,,,,,,,,,,,,,,,0,,,52,0
20640,note_on,0,0,2,,,,,,,,,,,,,,,0,,,48,0
20640,note_on,0,0,2,,,,,,,,,,,,,,,0,,,52,23
20640,note_on,0,0,2,,,,,,,,,,,,,,,0,,,57,23
20720,set_tempo,80,1,0,,,,,,,,,,,,977676,,,,,,,
20760,set_tempo,40,1,0,,,,,,,,,,,,985222,,,,,,,
20840,set_tempo,80,1,0,,,,,,,,,,,,992884,,,,,,,
20880,note_on,0,0,2,,,,,,,,,,,,,,,0,,,48,0
20880,note_on,0,0,2,,,,,,,,,,,,,,,0,,,48,19
20880,note_on,0,0,2,,,,,,,,,,,,,,,0,,,52,0
20880,note_on,0,0,2,,,,,,,,,,,,,,,0,,,57,23
20880,note_on,0,0,2,,,,,,,,,,,,,,,0,,,52,23
20880,set_tempo,40,1,0,,,,,,,,,,,,1000834,,,,,,,
20880,note_on,240,0,2,,,,,,,,,,,,,,,0,,,57,0
20920,set_tempo,40,1,0,,,,,,,,,,,,1008742,,,,,,,
21000,set_tempo,80,1,0,,,,,,,,,,,,1016777,,,,,,,
21040,set_tempo,40,1,0,,,,,,,,,,,,1024940,,,,,,,
21080,set_tempo,40,1,0,,,,,,,,,,,,1033236,,,,,,,
21120,note_on,480,0,1,,,,,,,,,,,,,,,0,,,69,0
21120,note_on,0,0,1,,,,,,,,,,,,,,,0,,,66,62
21120,note_on,0,0,2,,,,,,,,,,,,,,,0,,,48,0
21120,note_on,240,0,2,,,,,,,,,,,,,,,0,,,57,0
21120,note_on,0,0,2,,,,,,,,,,,,,,,0,,,52,0
21120,note_on,0,0,2,,,,,,,,,,,,,,,0,,,47,24
21120,note_on,0,0,2,,,,,,,,,,,,,,,0,,,51,29
21120,control_change,0,0,2,,,,,,,,,,,,,,,0,64,0,,
21120,note_on,0,0,2,,,,,,,,,,,,,,,0,,,57,29
21176,control_change,56,0,2,,,,,,,,,,,,,,,0,64,127,,
21360,note_on,0,0,2,,,,,,,,,,,,,,,0,,,51,0
21360,note_on,0,0,2,,,,,,,,,,,,,,,0,,,57,27
21360,note_on,0,0,2,,,,,,,,,,,,,,,0,,,51,27
21360,note_on,0,0,2,,,,,,,,,,,,,,,0,,,47,22
21360,set_tempo,280,1,0,,,,,,,,,,,,934579,,,,,,,
21360,note_on,0,0,2,,,,,,,,,,,,,,,0,,,47,0
21360,note_on,184,0,2,,,,,,,,,,,,,,,0,,,57,0
21600,note_on,0,0,2,,,,,,,,,,,,,,,0,,,47,22
21600,note_on,240,0,2,,,,,,,,,,,,,,,0,,,57,0
21600,note_on,0,0,2,,,,,,,,,,,,,,,0,,,51,0
21600,note_on,0,0,2,,,,,,,,,,,,,,,0,,,47,0
21600,note_on,0,0,2,,,,,,,,,,,,,,,0,,,57,27
21600,set_tempo,240,1,0,,,,,,,,,,,,888757,,,,,,,
21600,note_on,0,0,2,,,,,,,,,,,,,,,0,,,51,27
21840,note_on,240,0,2,,,,,,,,,,,,,,,0,,,57,0
21840,note_on,0,0,2,,,,,,,,,,,,,,,0,,,51,0
21840,note_on,0,0,2,,,,,,,,,,,,,,,0,,,47,0
21840,note_on,0,0,2,,,,,,,,,,,,,,,0,,,47,22
21840,note_on,0,0,2,,,,,,,,,,,,,,,0,,,51,27
21840,note_on,0,0,2,,,,,,,,,,,,,,,0,,,57,27
22080,set_tempo,480,1,0,,,,,,,,,,,,927644,,,,,,,
22080,note_on,240,0,2,,,,,,,,,,,,,,,0,,,57,0
22080,note_on,0,0,2,,,,,,,,,,,,,,,0,,,51,0
22080,note_on,0,0,2,,,,,,,,,,,,,,,0,,,47,0
22080,note_on,0,0,2,,,,,,,,,,,,,,,0,,,48,22
22080,note_on,0,0,2,,,,,,,,,,,,,,,0,,,52,27
22080,note_on,0,0,2,,,,,,,,,,,,,,,0,,,57,27
22108,control_change,28,0,2,,,,,,,,,,,,,,,0,64,0,,
22129,control_change,21,0,2,,,,,,,,,,,,,,,0,64,127,,
22320,note_on,191,0,2,,,,,,,,,,,,,,,0,,,57,0
22320,note_on,0,0,2,,,,,,,,,,,,,,,0,,,52,0
22320,note_on,0,0,2,,,,,,,,,,,,,,,0,,,48,0
22320,note_on,0,0,2,,,,,,,,,,,,,,,0,,,48,22
22320,note_on,0,0,2,,,,,,,,,,,,,,,0,,,52,27
22320,note_on,0,0,2,,,,,,,,,,,,,,,0,,,57,27
22320,set_tempo,240,1,0,,,,,,,,,,,,955566,,,,,,,
22500,note_on,0,0,1,,,,,,,,,,,,,,,0,,,71,52
22500,note_on,1380,0,1,,,,,,,,,,,,,,,0,,,66,0
22560,note_on,60,0,1,,,,,,,,,,,,,,,0,,,71,0
22560,note_on,240,0,2,,,,,,,,,,,,,,,0,,,57,0
22560,note_on,0,0,2,,,,,,,,,,,,,,,0,,,52,0
22560,note_on,0,0,2,,,,,,,,,,,,,,,0,,,48,0
22560,note_on,0,0,2,,,,,,,,,,,,,,,0,,,48,19
22560,note_on,0,0,2,,,,,,,,,,,,,,,0,,,52,23
22560,note_on,0,0,2,,,,,,,,,,,,,,,0,,,57,23
22560,set_tempo,240,1,0,,,,,,,,,,,,970246,,,,,,,
22560,note_on,0,0,1,,,,,,,,,,,,,,,0,,,69,62
22640,set_tempo,80,1,0,,,,,,,,,,,,977676,,,,,,,
22720,set_tempo,80,1,0,,,,,,,,,,,,985222,,,,,,,
22800,set_tempo,80,1,0,,,,,,,,,,,,992884,,,,,,,
22800,note_on,0,0,2,,,,,,,,,,,,,,,0,,,57,23
22800,note_on,0,0,2,,,,,,,,,,,,,,,0,,,48,19
22800,note_on,0,0,2,,,,,,,,,,,,,,,0,,,48,0
22800,note_on,0,0,2,,,,,,,,,,,,,,,0,,,52,0
22800,note_on,240,0,2,,,,,,,,,,,,,,,0,,,57,0
22800,note_on,0,0,2,,,,,,,,,,,,,,,0,,,52,23
22880,set_tempo,80,1,0,,,,,,,,,,,,1000834,,,,,,,
22960,set_tempo,80,1,0,,,,,,,,,,,,1008742,,,,,,,
23000,set_tempo,40,1,0,,,,,,,,,,,,1016777,,,,,,,
23040,note_on,0,0,2,,,,,,,,,,,,,,,0,,,48,0
23040,note_on,0,0,1,,,,,,,,,,,,,,,0,,,67,62
23040,control_change,0,0,2,,,,,,,,,,,,,,,0,64,0,,
23040,note_on,0,0,2,,,,,,,,,,,,,,,0,,,57,29
23040,note_on,0,0,2,,,,,,,,,,,,,,,0,,,51,29
23040,note_on,0,0,2,,,,,,,,,,,,,,,0,,,47,24
23040,note_on,480,0,1,,,,,,,,,,,,,,,0,,,69,0
23040,note_on,0,0,2,,,,,,,,,,,,,,,0,,,52,0
23040,note_on,240,0,2,,,,,,,,,,,,,,,0,,,57,0
23280,note_on,0,0,1,,,,,,,,,,,,,,,0,,,66,46
23280,note_on,240,0,1,,,,,,,,,,,,,,,0,,,67,0
23280,set_tempo,280,1,0,,,,,,,,,,,,962773,,,,,,,
23520,set_tempo,240,1,0,,,,,,,,,,,,907853,,,,,,,
23520,note_on,480,0,2,,,,,,,,,,,,,,,0,,,57,0
23520,note_on,0,0,2,,,,,,,,,,,,,,,0,,,51,0
23520,note_on,0,0,2,,,,,,,,,,,,,,,0,,,47,0
23520,note_on,240,0,1,,,,,,,,,,,,,,,0,,,66,0
23520,note_on,0,0,1,,,,,,,,,,,,,,,0,,,60,54
23760,note_on,0,0,1,,,,,,,,,,,,,,,0,,,59,42
23760,note_on,240,0,1,,,,,,,,,,,,,,,0,,,60,0
24000,set_tempo,480,1,0,,,,,,,,,,,,864553,,,,,,,
24000,note_on,0,0,1,,,,,,,,,,,,,,,0,,,63,64
24000,note_on,240,0,1,,,,,,,,,,,,,,,0,,,59,0
24240,set_tempo,240,1,0,,,,,,,,,,,,920952,,,,,,,
24240,note_on,0,0,1,,,,,,,,,,,,,,,0,,,66,59
24240,note_on,240,0,1,,,,,,,,,,,,,,,0,,,63,0
24480,set_tempo,240,1,0,,,,,,,,,,,,941472,,,,,,,
24480,note_on,0,0,1,,,,,,,,,,,,,,,0,,,74,65
24480,note_on,240,0,1,,,,,,,,,,,,,,,0,,,66,0
24520,set_tempo,40,1,0,,,,,,,,,,,,948467,,,,,,,
24560,set_tempo,40,1,0,,,,,,,,,,,,955566,,,,,,,
24600,set_tempo,40,1,0,,,,,,,,,,,,962773,,,,,,,
24640,note_on,160,0,1,,,,,,,,,,,,,,,0,,,74,0
24640,note_on,0,0,1,,,,,,,,,,,,,,,0,,,72,62
24640,set_tempo,40,1,0,,,,,,,,,,,,970246,,,,,,,
24680,set_tempo,40,1,0,,,,,,,,,,,,977676,,,,,,,
24720,set_tempo,40,1,0,,,,,,,,,,,,992884,,,,,,,
24760,set_tempo,40,1,0,,,,,,,,,,,,1000834,,,,,,,
24800,set_tempo,40,1,0,,,,,,,,,,,,1008742,,,,,,,
24800,note_on,160,0,1,,,,,,,,,,,,,,,0,,,72,0
24800,note_on,0,0,1,,,,,,,,,,,,,,,0,,,71,57
24840,set_tempo,40,1,0,,,,,,,,,,,,1016777,,,,,,,
24880,set_tempo,40,1,0,,,,,,,,,,,,1024940,,,,,,,
24920,set_tempo,40,1,0,,,,,,,,,,,,1041848,,,,,,,
24960,note_on,160,0,1,,,,,,,,,,,,,,,0,,,71,0
24960,note_on,0,0,1,,,,,,,,,,,,,,,0,,,71,62
24960,control_change,1440,0,2,,,,,,,,,,,,,,,0,64,127,,
24960,set_tempo,40,1,0,,,,,,,,,,,,1041848,,,,,,,
24960,note_on,0,0,2,,,,,,,,,,,,,,,0,,,55,21
24960,note_on,0,0,2,,,,,,,,,,,,,,,0,,,59,25
24960,note_on,0,0,2,,,,,,,,,,,,,,,0,,,64,31
25200,note_on,0,0,2,,,,,,,,,,,,,,,0,,,64,27
25200,note_on,0,0,2,,,,,,,,,,,,,,,0,,,59,22
25200,note_on,240,0,2,,,,,,,,,,,,,,,0,,,64,0
25200,note_on,0,0,2,,,,,,,,,,,,,,,0,,,55,0
25200,note_on,0,0,2,,,,,,,,,,,,,,,0,,,59,0
25200,note_on,0,0,2,,,,,,,,,,,,,,,0,,,55,18
25200,set_tempo,240,1,0,,,,,,,,,,,,870448,,,,,,,
25440,note_on,0,0,2,,,,,,,,,,,,,,,0,,,55,0
25440,note_on,0,0,2,,,,,,,,,,,,,,,0,,,64,29
25440,note_on,0,0,2,,,,,,,,,,,,,,,0,,,59,22
25440,note_on,0,0,2,,,,,,,,,,,,,,,0,,,55,18
25440,note_on,0,0,2,,,,,,,,,,,,,,,0,,,59,0
25440,note_on,240,0,2,,,,,,,,,,,,,,,0,,,64,0
25440,set_tempo,240,1,0,,,,,,,,,,,,882613,,,,,,,
25680,note_on,0,0,2,,,,,,,,,,,,,,,0,,,59,0
25680,note_on,240,0,2,,,,,,,,,,,,,,,0,,,64,0
25680,note_on,0,0,2,,,,,,,,,,,,,,,0,,,55,19
25680,note_on,0,0,2,,,,,,,,,,,,,,,0,,,55,0
25680,note_on,0,0,2,,,,,,,,,,,,,,,0,,,59,24
25680,set_tempo,240,1,0,,,,,,,,,,,,927644,,,,,,,
25680,note_on,0,0,2,,,,,,,,,,,,,,,0,,,64,29
25920,note_on,0,0,2,,,,,,,,,,,,,,,0,,,64,31
25920,note_on,0,0,2,,,,,,,,,,,,,,,0,,,59,25
25920,note_on,240,0,2,,,,,,,,,,,,,,,0,,,64,0
25920,set_tempo,240,1,0,,,,,,,,,,,,977676,,,,,,,
25920,note_on,0,0,2,,,,,,,,,,,,,,,0,,,55,0
25920,note_on,0,0,2,,,,,,,,,,,,,,,0,,,55,19
25920,note_on,0,0,2,,,,,,,,,,,,,,,0,,,59,0
26160,set_tempo,240,1,0,,,,,,,,,,,,977676,,,,,,,
26160,note_on,240,0,2,,,,,,,,,,,,,,,0,,,64,0
26160,note_on,0,0,2,,,,,,,,,,,,,,,0,,,59,0
26160,note_on,0,0,2,,,,,,,,,,,,,,,0,,,55,0
26160,note_on,0,0,2,,,,,,,,,,,,,,,0,,,55,20
26160,note_on,0,0,2,,,,,,,,,,,,,,,0,,,59,26
26160,note_on,0,0,2,,,,,,,,,,,,,,,0,,,64,32
26329,control_change,169,0,2,,,,,,,,,,,,,,,0,64,0,,
26400,note_on,71,0,2,,,,,,,,,,,,,,,0,,,64,0
26400,note_on,0,0,2,,,,,,,,,,,,,,,0,,,59,0
26400,note_on,1440,0,1,,,,,,,,,,,,,,,0,,,71,0
26400,note_on,0,0,2,,,,,,,,,,,,,,,0,,,55,20
26400,note_on,0,0,2,,,,,,,,,,,,,,,0,,,59,24
26400,note_on,0,0,2,,,,,,,,,,,,,,,0,,,64,32
26400,note_on,0,0,2,,,,,,,,,,,,,,,0,,,55,0
26400,set_tempo,240,1,0,,,,,,,,,,,,1000834,,,,,,,
26410,note_on,10,0,1,,,,,,,,,,,,,,,0,,,72,68
26428,control_change,28,0,2,,,,,,,,,,,,,,,0,64,127,,
26480,set_tempo,80,1,0,,,,,,,,,,,,1008742,,,,,,,
26520,set_tempo,40,1,0,,,,,,,,,,,,1016777,,,,,,,
26560,set_tempo,40,1,0,,,,,,,,,,,,1024940,,,,,,,
26600,set_tempo,40,1,0,,,,,,,,,,,,1033236,,,,,,,
26640,note_on,0,0,2,,,,,,,,,,,,,,,0,,,64,33
26640,note_on,0,0,2,,,,,,,,,,,,,,,0,,,59,26
26640,note_on,0,0,2,,,,,,,,,,,,,,,0,,,55,20
26640,note_on,0,0,2,,,,,,,,,,,,,,,0,,,59,0
26640,note_on,212,0,2,,,,,,,,,,,,,,,0,,,64,0
26640,note_on,0,0,2,,,,,,,,,,,,,,,0,,,55,0
26680,set_tempo,80,1,0,,,,,,,,,,,,1041848,,,,,,,
26720,set_tempo,40,1,0,,,,,,,,,,,,1050420,,,,,,,
26760,set_tempo,40,1,0,,,,,,,,,,,,1059135,,,,,,,
26800,set_tempo,40,1,0,,,,,,,,,,,,1067996,,,,,,,
26840,set_tempo,40,1,0,,,,,,,,,,,,1145038,,,,,,,
26880,note_on,0,0,2,,,,,,,,,,,,,,,0,,,55,0
26880,set_tempo,40,1,0,,,,,,,,,,,,992884,,,,,,,
26880,note_on,240,0,2,,,,,,,,,,,,,,,0,,,64,0
26880,note_on,0,0,2,,,,,,,,,,,,,,,0,,,59,0
26880,note_on,0,0,2,,,,,,,,,,,,,,,0,,,57,28
26880,note_on,0,0,2,,,,,,,,,,,,,,,0,,,64,35
26880,note_on,0,0,2,,,,,,,,,,,,,,,0,,,54,23
26880,control_change,0,0,2,,,,,,,,,,,,,,,0,64,0,,
26890,note_on,0,0,1,,,,,,,,,,,,,,,0,,,71,71
26890,note_on,480,0,1,,,,,,,,,,,,,,,0,,,72,0
26971,control_change,91,0,2,,,,,,,,,,,,,,,0,64,127,,
27120,set_tempo,240,1,0,,,,,,,,,,,,934579,,,,,,,
27120,note_on,149,0,2,,,,,,,,,,,,,,,0,,,57,0
27120,note_on,0,0,2,,,,,,,,,,,,,,,0,,,57,25
27120,note_on,0,0,2,,,,,,,,,,,,,,,0,,,54,20
27120,note_on,0,0,2,,,,,,,,,,,,,,,0,,,54,0
27120,note_on,0,0,2,,,,,,,,,,,,,,,0,,,64,0
27120,note_on,0,0,2,,,,,,,,,,,,,,,0,,,64,32
27360,note_on,0,0,2,,,,,,,,,,,,,,,0,,,54,21
27360,note_on,0,0,2,,,,,,,,,,,,,,,0,,,54,0
27360,set_tempo,240,1,0,,,,,,,,,,,,888757,,,,,,,
27360,note_on,0,0,2,,,,,,,,,,,,,,,0,,,57,0
27360,note_on,240,0,2,,,,,,,,,,,,,,,0,,,64,0
27360,note_on,0,0,2,,,,,,,,,,,,,,,0,,,64,33
27360,note_on,0,0,2,,,,,,,,,,,,,,,0,,,57,26
27600,note_on,0,0,2,,,,,,,,,,,,,,,0,,,57,27
27600,note_on,0,0,2,,,,,,,,,,,,,,,0,,,64,35
27600,note_on,240,0,2,,,,,,,,,,,,,,,0,,,57,0
27600,note_on,0,0,2,,,,,,,,,,,,,,,0,,,64,0
27600,note_on,0,0,2,,,,,,,,,,,,,,,0,,,54,0
27600,note_on,0,0,2,,,,,,,,,,,,,,,0,,,54,22
27840,set_tempo,480,1,0,,,,,,,,,,,,948467,,,,,,,
27840,note_on,0,0,2,,,,,,,,,,,,,,,0,,,54,0
27840,note_on,240,0,2,,,,,,,,,,,,,,,0,,,64,0
27840,note_on,0,0,2,,,,,,,,,,,,,,,0,,,63,35
27840,note_on,0,0,2,,,,,,,,,,,,,,,0,,,57,28
27840,note_on,0,0,2,,,,,,,,,,,,,,,0,,,57,0
27840,note_on,0,0,2,,,,,,,,,,,,,,,0,,,53,22
27863,control_change,23,0,2,,,,,,,,,,,,,,,0,64,0,,
27943,control_change,80,0,2,,,,,,,,,,,,,,,0,64,127,,
28080,set_tempo,240,1,0,,,,,,,,,,,,985222,,,,,,,
28080,note_on,0,0,2,,,,,,,,,,,,,,,0,,,53,24
28080,note_on,0,0,2,,,,,,,,,,,,,,,0,,,57,0
28080,note_on,137,0,2,,,,,,,,,,,,,,,0,,,63,0
28080,note_on,0,0,2,,,,,,,,,,,,,,,0,,,63,38
28080,note_on,0,0,2,,,,,,,,,,,,,,,0,,,57,29
28080,note_on,0,0,2,,,,,,,,,,,,,,,0,,,53,0
28320,note_on,240,0,2,,,,,,,,,,,,,,,0,,,53,0
28320,note_on,0,0,2,,,,,,,,,,,,,,,0,,,63,0
28320,note_on,0,0,2,,,,,,,,,,,,,,,0,,,53,24
28320,note_on,0,0,2,,,,,,,,,,,,,,,0,,,63,38
28320,set_tempo,240,1,0,,,,,,,,,,,,970246,,,,,,,
28320,note_on,0,0,2,,,,,,,,,,,,,,,0,,,57,27
28320,note_on,0,0,2,,,,,,,,,,,,,,,0,,,57,0
28325,note_on,1435,0,1,,,,,,,,,,,,,,,0,,,72,74
28330,note_on,5,0,1,,,,,,,,,,,,,,,0,,,71,0
28366,control_change,46,0,2,,,,,,,,,,,,,,,0,64,0,,
28400,set_tempo,80,1,0,,,,,,,,,,,,977676,,,,,,,
28440,set_tempo,40,1,0,,,,,,,,,,,,985222,,,,,,,
28446,control_change,80,0,2,,,,,,,,,,,,,,,0,64,127,,
28480,set_tempo,40,1,0,,,,,,,,,,,,992884,,,,,,,
28520,set_tempo,40,1,0,,,,,,,,,,,,1000834,,,,,,,
28560,note_on,0,0,2,,,,,,,,,,,,,,,0,,,53,0
28560,note_on,114,0,2,,,,,,,,,,,,,,,0,,,63,0
28560,note_on,0,0,2,,,,,,,,,,,,,,,0,,,57,0
28560,note_on,0,0,2,,,,,,,,,,,,,,,0,,,53,25
28560,note_on,0,0,2,,,,,,,,,,,,,,,0,,,57,30
28560,note_on,0,0,2,,,,,,,,,,,,,,,0,,,63,38
28560,set_tempo,40,1,0,,,,,,,,,,,,1008742,,,,,,,
28640,set_tempo,80,1,0,,,,,,,,,,,,1016777,,,,,,,
28680,set_tempo,40,1,0,,,,,,,,,,,,1024940,,,,,,,
28720,set_tempo,40,1,0,,,,,,,,,,,,1033236,,,,,,,
28760,set_tempo,40,1,0,,,,,,,,,,,,1041848,,,,,,,
28800,note_on,0,0,2,,,,,,,,,,,,,,,0,,,53,0
28800,set_tempo,40,1,0,,,,,,,,,,,,952381,,,,,,,
28800,note_on,0,0,2,,,,,,,,,,,,,,,0,,,63,45
28800,control_change,0,0,2,,,,,,,,,,,,,,,0,64,0,,
28800,note_on,240,0,2,,,,,,,,,,,,,,,0,,,63,0
28800,note_on,0,0,2,,,,,,,,,,,,,,,0,,,53,30
28800,note_on,0,0,2,,,,,,,,,,,,,,,0,,,56,37
28800,note_on,0,0,2,,,,,,,,,,,,,,,0,,,57,0
28805,note_on,475,0,1,,,,,,,,,,,,,,,0,,,72,0
28805,note_on,0,0,1,,,,,,,,,,,,,,,0,,,71,76
28874,control_change,74,0,2,,,,,,,,,,,,,,,0,64,127,,
29040,note_on,0,0,2,,,,,,,,,,,,,,,0,,,56,0
29040,note_on,0,0,2,,,,,,,,,,,,,,,0,,,56,33
29040,note_on,166,0,2,,,,,,,,,,,,,,,0,,,63,0
29040,note_on,0,0,2,,,,,,,,,,,,,,,0,,,53,26
29040,note_on,0,0,2,,,,,,,,,,,,,,,0,,,53,0
29040,note_on,0,0,2,,,,,,,,,,,,,,,0,,,63,40
29040,set_tempo,240,1,0,,,,,,,,,,,,869565,,,,,,,
29280,note_on,240,0,2,,,,,,,,,,,,,,,0,,,56,0
29280,note_on,0,0,2,,,,,,,,,,,,,,,0,,,53,27
29280,note_on,0,0,2,,,,,,,,,,,,,,,0,,,56,34
29280,note_on,0,0,2,,,,,,,,,,,,,,,0,,,62,41
29280,note_on,0,0,2,,,,,,,,,,,,,,,0,,,53,0
29280,note_on,0,0,2,,,,,,,,,,,,,,,0,,,63,0
29280,set_tempo,240,1,0,,,,,,,,,,,,839161,,,,,,,
29520,note_on,0,0,2,,,,,,,,,,,,,,,0,,,62,41
29520,note_on,0,0,2,,,,,,,,,,,,,,,0,,,56,36
29520,set_tempo,240,1,0,,,,,,,,,,,,816327,,,,,,,
29520,note_on,0,0,2,,,,,,,,,,,,,,,0,,,53,27
29520,note_on,240,0,2,,,,,,,,,,,,,,,0,,,53,0
29520,note_on,0,0,2,,,,,,,,,,,,,,,0,,,56,0
29520,note_on,0,0,2,,,,,,,,,,,,,,,0,,,62,0
29760,set_tempo,240,1,0,,,,,,,,,,,,875912,,,,,,,
29760,note_on,240,0,2,,,,,,,,,,,,,,,0,,,62,0
29760,note_on,0,0,2,,,,,,,,,,,,,,,0,,,56,0
29760,note_on,0,0,2,,,,,,,,,,,,,,,0,,,56,36
29760,note_on,0,0,2,,,,,,,,,,,,,,,0,,,62,44
29760,note_on,0,0,2,,,,,,,,,,,,,,,0,,,52,29
29760,note_on,0,0,2,,,,,,,,,,,,,,,0,,,53,0
29810,control_change,50,0,2,,,,,,,,,,,,,,,0,64,0,,
29868,control_change,58,0,2,,,,,,,,,,,,,,,0,64,127,,
30000,note_on,132,0,2,,,,,,,,,,,,,,,0,,,52,0
30000,note_on,0,0,2,,,,,,,,,,,,,,,0,,,62,0
30000,note_on,0,0,2,,,,,,,,,,,,,,,0,,,56,0
30000,set_tempo,240,1,0,,,,,,,,,,,,888889,,,,,,,
30000,note_on,0,0,2,,,,,,,,,,,,,,,0,,,62,45
30000,note_on,0,0,2,,,,,,,,,,,,,,,0,,,56,37
30000,note_on,0,0,2,,,,,,,,,,,,,,,0,,,52,29
30240,note_on,240,0,2,,,,,,,,,,,,,,,0,,,56,0
30240,note_on,0,0,2,,,,,,,,,,,,,,,0,,,62,0
30240,note_on,0,0,2,,,,,,,,,,,,,,,0,,,62,40
30240,note_on,0,0,1,,,,,,,,,,,,,,,0,,,72,77
30240,note_on,1435,0,1,,,,,,,,,,,,,,,0,,,71,0
30240,note_on,0,0,2,,,,,,,,,,,,,,,0,,,52,27
30240,note_on,0,0,2,,,,,,,,,,,,,,,0,,,52,0
30240,note_on,0,0,2,,,,,,,,,,,,,,,0,,,56,31
30240,set_tempo,240,1,0,,,,,,,,,,,,962773,,,,,,,
30273,control_change,33,0,2,,,,,,,,,,,,,,,0,64,0,,
30280,set_tempo,40,1,0,,,,,,,,,,,,909091,,,,,,,
30331,control_change,58,0,2,,,,,,,,,,,,,,,0,64,127,,
30360,set_tempo,80,1,0,,,,,,,,,,,,916031,,,,,,,
30400,set_tempo,40,1,0,,,,,,,,,,,,923077,,,,,,,
30440,set_tempo,40,1,0,,,,,,,,,,,,930233,,,,,,,
30480,set_tempo,40,1,0,,,,,,,,,,,,937500,,,,,,,
30480,note_on,0,0,2,,,,,,,,,,,,,,,0,,,62,41
30480,note_on,0,0,2,,,,,,,,,,,,,,,0,,,56,31
30480,note_on,0,0,2,,,,,,,,,,,,,,,0,,,52,27
30480,note_on,0,0,2,,,,,,,,,,,,,,,0,,,62,0
30480,note_on,149,0,2,,,,,,,,,,,,,,,0,,,56,0
30480,note_on,0,0,2,,,,,,,,,,,,,,,0,,,52,0
30560,set_tempo,80,1,0,,,,,,,,,,,,944882,,,,,,,
30600,set_tempo,40,1,0,,,,,,,,,,,,952381,,,,,,,
30640,set_tempo,40,1,0,,,,,,,,,,,,960000,,,,,,,
30680,set_tempo,40,1,0,,,,,,,,,,,,967742,,,,,,,
30720,note_on,480,0,1,,,,,,,,,,,,,,,0,,,72,0
30720,control_change,0,0,2,,,,,,,,,,,,,,,0,64,0,,
30720,note_on,0,0,2,,,,,,,,,,,,,,,0,,,62,50
30720,note_on,0,0,1,,,,,,,,,,,,,,,0,,,71,84
30720,note_on,0,0,2,,,,,,,,,,,,,,,0,,,55,42
30720,note_on,0,0,2,,,,,,,,,,,,,,,0,,,52,0
30720,note_on,0,0,2,,,,,,,,,,,,,,,0,,,56,0
30720,note_on,240,0,2,,,,,,,,,,,,,,,0,,,62,0
30720,set_tempo,40,1,0,,,,,,,,,,,,869565,,,,,,,
30720,note_on,0,0,2,,,,,,,,,,,,,,,0,,,52,42
30771,control_change,51,0,2,,,,,,,,,,,,,,,0,64,127,,
30960,note_on,0,0,2,,,,,,,,,,,,,,,0,,,52,0
30960,note_on,0,0,2,,,,,,,,,,,,,,,0,,,52,36
30960,note_on,0,0,2,,,,,,,,,,,,,,,0,,,55,36
30960,note_on,0,0,2,,,,,,,,,,,,,,,0,,,62,42
30960,note_on,0,0,2,,,,,,,,,,,,,,,0,,,55,0
30960,set_tempo,240,1,0,,,,,,,,,,,,833333,,,,,,,
30960,note_on,189,0,2,,,,,,,,,,,,,,,0,,,62,0
31080,set_tempo,120,1,0,,,,,,,,,,,,923077,,,,,,,
31080,note_on,0,0,1,,,,,,,,,,,,,,,0,,,70,78
31080,note_on,360,0,1,,,,,,,,,,,,,,,0,,,71,0
31200,set_tempo,120,1,0,,,,,,,,,,,,816327,,,,,,,
31200,note_on,120,0,1,,,,,,,,,,,,,,,0,,,70,0
31200,note_on,0,0,1,,,,,,,,,,,,,,,0,,,70,85
31200,note_on,240,0,2,,,,,,,,,,,,,,,0,,,62,0
31200,note_on,0,0,2,,,,,,,,,,,,,,,0,,,55,0
31200,note_on,0,0,2,,,,,,,,,,,,,,,0,,,52,0
31200,note_on,0,0,2,,,,,,,,,,,,,,,0,,,52,38
31200,note_on,0,0,2,,,,,,,,,,,,,,,0,,,55,38
31200,note_on,0,0,2,,,,,,,,,,,,,,,0,,,61,45
31206,control_change,6,0,2,,,,,,,,,,,,,,,0,64,0,,
31234,control_change,28,0,2,,,,,,,,,,,,,,,0,64,127,,
31440,note_on,206,0,2,,,,,,,,,,,,,,,0,,,61,0
31440,note_on,0,0,2,,,,,,,,,,,,,,,0,,,52,0
31440,note_on,0,0,2,,,,,,,,,,,,,,,0,,,52,46
31440,note_on,0,0,2,,,,,,,,,,,,,,,0,,,55,46
31440,note_on,0,0,2,,,,,,,,,,,,,,,0,,,61,55
31440,set_tempo,240,1,0,,,,,,,,,,,,851064,,,,,,,
31440,note_on,0,0,2,,,,,,,,,,,,,,,0,,,55,0
31440,note_on,240,0,1,,,,,,,,,,,,,,,0,,,70,0
31440,note_on,0,0,1,,,,,,,,,,,,,,,0,,,71,70
31480,set_tempo,40,1,0,,,,,,,,,,,,851064,,,,,,,
31500,note_on,60,0,1,,,,,,,,,,,,,,,0,,,71,0
31500,note_on,0,0,1,,,,,,,,,,,,,,,0,,,70,73
31560,note_on,0,0,1,,,,,,,,,,,,,,,0,,,69,76
31560,note_on,60,0,1,,,,,,,,,,,,,,,0,,,70,0
31620,note_on,0,0,1,,,,,,,,,,,,,,,0,,,70,79
31620,note_on,60,0,1,,,,,,,,,,,,,,,0,,,69,0
31677,control_change,237,0,2,,,,,,,,,,,,,,,0,64,0,,
31680,note_on,0,0,2,,,,,,,,,,,,,,,0,,,49,46
31680,set_tempo,200,1,0,,,,,,,,,,,,794702,,,,,,,
31680,note_on,3,0,2,,,,,,,,,,,,,,,0,,,61,0
31680,note_on,0,0,1,,,,,,,,,,,,,,,0,,,79,88
31680,note_on,0,0,2,,,,,,,,,,,,,,,0,,,52,46
31680,note_on,0,0,2,,,,,,,,,,,,,,,0,,,58,56
31680,note_on,60,0,1,,,,,,,,,,,,,,,0,,,70,0
31680,note_on,0,0,2,,,,,,,,,,,,,,,0,,,55,0
31680,note_on,0,0,2,,,,,,,,,,,,,,,0,,,52,0
31700,control_change,20,0,2,,,,,,,,,,,,,,,0,64,127,,
31920,note_on,0,0,2,,,,,,,,,,,,,,,0,,,49,0
31920,note_on,0,0,2,,,,,,,,,,,,,,,0,,,49,43
31920,note_on,220,0,2,,,,,,,,,,,,,,,0,,,58,0
31920,note_on,0,0,2,,,,,,,,,,,,,,,0,,,58,52
31920,set_tempo,240,1,0,,,,,,,,,,,,821918,,,,,,,
31920,note_on,0,0,2,,,,,,,,,,,,,,,0,,,52,0
31920,note_on,0,0,2,,,,,,,,,,,,,,,0,,,52,43
32160,set_tempo,240,1,0,,,,,,,,,,,,789474,,,,,,,
32160,note_on,480,0,1,,,,,,,,,,,,,,,0,,,79,0
32160,note_on,240,0,2,,,,,,,,,,,,,,,0,,,58,0
32160,note_on,0,0,2,,,,,,,,,,,,,,,0,,,52,0
32160,note_on,0,0,2,,,,,,,,,,,,,,,0,,,49,0
32160,note_on,0,0,2,,,,,,,,,,,,,,,0,,,48,43
32160,note_on,0,0,2,,,,,,,,,,,,,,,0,,,52,43
32160,note_on,0,0,2,,,,,,,,,,,,,,,0,,,57,52
32160,note_on,0,0,1,,,,,,,,,,,,,,,0,,,78,91
32183,control_change,23,0,2,,,,,,,,,,,,,,,0,64,0,,
32217,control_change,34,0,2,,,,,,,,,,,,,,,0,64,127,,
32400,note_on,0,0,2,,,,,,,,,,,,,,,0,,,57,54
32400,note_on,0,0,2,,,,,,,,,,,,,,,0,,,52,45
32400,note_on,0,0,2,,,,,,,,,,,,,,,0,,,48,45
32400,note_on,0,0,2,,,,,,,,,,,,,,,0,,,52,0
32400,set_tempo,240,1,0,,,,,,,,,,,,833333,,,,,,,
32400,note_on,183,0,2,,,,,,,,,,,,,,,0,,,57,0
32400,note_on,0,0,2,,,,,,,,,,,,,,,0,,,48,0
32520,note_on,0,0,1,,,,,,,,,,,,,,,0,,,76,77
32520,note_on,360,0,1,,,,,,,,,,,,,,,0,,,78,0
32640,note_on,0,0,2,,,,,,,,,,,,,,,0,,,47,69
32640,note_on,120,0,1,,,,,,,,,,,,,,,0,,,76,0
32640,set_tempo,240,1,0,,,,,,,,,,,,805369,,,,,,,
32640,note_on,0,0,2,,,,,,,,,,,,,,,0,,,35,57
32640,note_on,0,0,1,,,,,,,,,,,,,,,0,,,76,89
32640,note_on,0,0,2,,,,,,,,,,,,,,,0,,,48,0
32640,note_on,0,0,2,,,,,,,,,,,,,,,0,,,52,0
32640,note_on,240,0,2,,,,,,,,,,,,,,,0,,,57,0
32651,control_change,11,0,2,,,,,,,,,,,,,,,0,64,0,,
32754,control_change,103,0,2,,,,,,,,,,,,,,,0,64,127,,
32880,note_on,126,0,2,,,,,,,,,,,,,,,0,,,47,0
32880,note_on,0,0,2,,,,,,,,,,,,,,,0,,,35,0
32880,note_on,0,0,2,,,,,,,,,,,,,,,0,,,69,54
32880,note_on,0,0,2,,,,,,,,,,,,,,,0,,,66,54
32880,note_on,0,0,2,,,,,,,,,,,,,,,0,,,60,45
32880,note_on,0,0,2,,,,,,,,,,,,,,,0,,,57,45
32880,set_tempo,240,1,0,,,,,,,,,,,,769231,,,,,,,
32880,note_on,0,0,1,,,,,,,,,,,,,,,0,,,75,86
32880,note_on,240,0,1,,,,,,,,,,,,,,,0,,,76,0
33120,note_on,0,0,1,,,,,,,,,,,,,,,0,,,84,92
33120,note_on,240,0,1,,,,,,,,,,,,,,,0,,,75,0
33120,note_on,240,0,2,,,,,,,,,,,,,,,0,,,57,0
33120,note_on,0,0,2,,,,,,,,,,,,,,,0,,,66,54
33120,set_tempo,240,1,0,,,,,,,,,,,,754717,,,,,,,
33120,note_on,0,0,2,,,,,,,,,,,,,,,0,,,69,0
33120,note_on,0,0,2,,,,,,,,,,,,,,,0,,,66,0
33120,note_on,0,0,2,,,,,,,,,,,,,,,0,,,60,0
33120,note_on,0,0,2,,,,,,,,,,,,,,,0,,,57,45
33120,note_on,0,0,2,,,,,,,,,,,,,,,0,,,60,45
33120,note_on,0,0,2,,,,,,,,,,,,,,,0,,,69,54
33360,note_on,0,0,2,,,,,,,,,,,,,,,0,,,60,45
33360,note_on,240,0,2,,,,,,,,,,,,,,,0,,,69,0
33360,note_on,0,0,2,,,,,,,,,,,,,,,0,,,57,0
33360,note_on,0,0,2,,,,,,,,,,,,,,,0,,,60,0
33360,note_on,0,0,1,,,,,,,,,,,,,,,0,,,75,85
33360,note_on,0,0,2,,,,,,,,,,,,,,,0,,,69,54
33360,note_on,0,0,2,,,,,,,,,,,,,,,0,,,66,54
33360,note_on,0,0,2,,,,,,,,,,,,,,,0,,,66,0
33360,set_tempo,240,1,0,,,,,,,,,,,,784314,,,,,,,
33360,note_on,0,0,2,,,,,,,,,,,,,,,0,,,57,45
33360,note_on,240,0,1,,,,,,,,,,,,,,,0,,,84,0
33580,set_tempo,220,1,0,,,,,,,,,,,,769231,,,,,,,
33600,note_on,0,0,2,,,,,,,,,,,,,,,0,,,60,0
33600,note_on,0,0,2,,,,,,,,,,,,,,,0,,,66,0
33600,note_on,0,0,2,,,,,,,,,,,,,,,0,,,66,57
33600,note_on,0,0,2,,,,,,,,,,,,,,,0,,,63,57
33600,note_on,0,0,2,,,,,,,,,,,,,,,0,,,59,47
33600,note_on,0,0,2,,,,,,,,,,,,,,,0,,,55,47
33600,control_change,0,0,2,,,,,,,,,,,,,,,0,64,0,,
33600,note_on,0,0,2,,,,,,,,,,,,,,,0,,,57,0
33600,note_on,240,0,2,,,,,,,,,,,,,,,0,,,69,0
33600,note_on,0,0,1,,,,,,,,,,,,,,,0,,,75,88
33600,set_tempo,20,1,0,,,,,,,,,,,,769231,,,,,,,
33600,note_on,240,0,1,,,,,,,,,,,,,,,0,,,75,0
33691,control_change,91,0,2,,,,,,,,,,,,,,,0,64,127,,
33840,note_on,0,0,1,,,,,,,,,,,,,,,0,,,76,82
33840,note_on,0,0,2,,,,,,,,,,,,,,,0,,,55,41
33840,note_on,0,0,2,,,,,,,,,,,,,,,0,,,59,41
33840,note_on,0,0,2,,,,,,,,,,,,,,,0,,,59,0
33840,note_on,0,0,2,,,,,,,,,,,,,,,0,,,63,0
33840,note_on,0,0,2,,,,,,,,,,,,,,,0,,,66,0
33840,note_on,0,0,2,,,,,,,,,,,,,,,0,,,64,49
33840,set_tempo,240,1,0,,,,,,,,,,,,789474,,,,,,,
33840,note_on,149,0,2,,,,,,,,,,,,,,,0,,,55,0
33840,note_on,240,0,1,,,,,,,,,,,,,,,0,,,75,0
33863,control_change,23,0,2,,,,,,,,,,,,,,,0,64,0,,
33931,control_change,68,0,2,,,,,,,,,,,,,,,0,64,127,,
34080,note_on,0,0,1,,,,,,,,,,,,,,,0,,,79,85
34080,note_on,149,0,2,,,,,,,,,,,,,,,0,,,55,0
34080,set_tempo,240,1,0,,,,,,,,,,,,784314,,,,,,,
34080,note_on,0,0,2,,,,,,,,,,,,,,,0,,,64,0
34080,note_on,0,0,2,,,,,,,,,,,,,,,0,,,55,41
34080,note_on,240,0,1,,,,,,,,,,,,,,,0,,,76,0
34080,note_on,0,0,2,,,,,,,,,,,,,,,0,,,59,41
34080,note_on,0,0,2,,,,,,,,,,,,,,,0,,,64,49
34080,note_on,0,0,2,,,,,,,,,,,,,,,0,,,59,0
34091,control_change,11,0,2,,,,,,,,,,,,,,,0,64,0,,
34160,control_change,69,0,2,,,,,,,,,,,,,,,0,64,127,,
34320,set_tempo,240,1,0,,,,,,,,,,,,839161,,,,,,,
34320,note_on,0,0,2,,,,,,,,,,,,,,,0,,,59,0
34320,note_on,0,0,2,,,,,,,,,,,,,,,0,,,55,0
34320,note_on,0,0,2,,,,,,,,,,,,,,,0,,,55,41
34320,note_on,0,0,2,,,,,,,,,,,,,,,0,,,59,41
34320,note_on,0,0,2,,,,,,,,,,,,,,,0,,,64,49
34320,note_on,240,0,1,,,,,,,,,,,,,,,0,,,79,0
34320,note_on,0,0,1,,,,,,,,,,,,,,,0,,,71,77
34320,note_on,160,0,2,,,,,,,,,,,,,,,0,,,64,0
34560,set_tempo,240,1,0,,,,,,,,,,,,810811,,,,,,,
34560,note_on,240,0,1,,,,,,,,,,,,,,,0,,,71,0
34560,note_on,0,0,1,,,,,,,,,,,,,,,0,,,74,80
34560,note_on,240,0,2,,,,,,,,,,,,,,,0,,,64,0
34560,control_change,0,0,2,,,,,,,,,,,,,,,0,64,0,,
34560,note_on,0,0,2,,,,,,,,,,,,,,,0,,,57,44
34560,note_on,0,0,2,,,,,,,,,,,,,,,0,,,60,44
34560,note_on,0,0,2,,,,,,,,,,,,,,,0,,,64,53
34560,note_on,0,0,2,,,,,,,,,,,,,,,0,,,55,0
34560,note_on,0,0,2,,,,,,,,,,,,,,,0,,,59,0
34616,control_change,56,0,2,,,,,,,,,,,,,,,0,64,127,,
34800,note_on,184,0,2,,,,,,,,,,,,,,,0,,,57,0
34800,note_on,0,0,2,,,,,,,,,,,,,,,0,,,60,0
34800,note_on,0,0,2,,,,,,,,,,,,,,,0,,,57,38
34800,note_on,0,0,2,,,,,,,,,,,,,,,0,,,60,38
34800,note_on,0,0,2,,,,,,,,,,,,,,,0,,,64,46
34800,note_on,0,0,1,,,,,,,,,,,,,,,0,,,72,69
34800,note_on,240,0,1,,,,,,,,,,,,,,,0,,,74,0
34800,set_tempo,240,1,0,,,,,,,,,,,,888889,,,,,,,
34800,note_on,0,0,2,,,,,,,,,,,,,,,0,,,64,0
35000,set_tempo,200,1,0,,,,,,,,,,,,927644,,,,,,,
35040,note_on,0,0,2,,,,,,,,,,,,,,,0,,,57,0
35040,note_on,0,0,2,,,,,,,,,,,,,,,0,,,45,44
35040,note_on,0,0,2,,,,,,,,,,,,,,,0,,,60,0
35040,note_on,240,0,2,,,,,,,,,,,,,,,0,,,64,0
35040,note_on,0,0,1,,,,,,,,,,,,,,,0,,,76,77
35040,note_on,240,0,1,,,,,,,,,,,,,,,0,,,72,0
35040,set_tempo,40,1,0,,,,,,,,,,,,845070,,,,,,,
35054,control_change,14,0,2,,,,,,,,,,,,,,,0,64,0,,
35080,set_tempo,40,1,0,,,,,,,,,,,,851064,,,,,,,
35104,control_change,50,0,2,,,,,,,,,,,,,,,0,64,127,,
35120,set_tempo,40,1,0,,,,,,,,,,,,857143,,,,,,,
35160,set_tempo,40,1,0,,,,,,,,,,,,863309,,,,,,,
35200,set_tempo,40,1,0,,,,,,,,,,,,869565,,,,,,,
35200,note_on,160,0,1,,,,,,,,,,,,,,,0,,,76,0
35200,note_on,0,0,1,,,,,,,,,,,,,,,0,,,64,67
35220,set_tempo,20,1,0,,,,,,,,,,,,875912,,,,,,,
35260,set_tempo,40,1,0,,,,,,,,,,,,882353,,,,,,,
35280,note_on,0,0,2,,,,,,,,,,,,,,,0,,,52,37
35280,note_on,0,0,2,,,,,,,,,,,,,,,0,,,54,37
35280,note_on,0,0,2,,,,,,,,,,,,,,,0,,,60,44
35280,note_on,176,0,2,,,,,,,,,,,,,,,0,,,45,0
35300,set_tempo,40,1,0,,,,,,,,,,,,888889,,,,,,,
35340,set_tempo,40,1,0,,,,,,,,,,,,895522,,,,,,,
35360,set_tempo,20,1,0,,,,,,,,,,,,902256,,,,,,,
35360,note_on,160,0,1,,,,,,,,,,,,,,,0,,,64,0
35360,note_on,0,0,1,,,,,,,,,,,,,,,0,,,69,67
35400,set_tempo,40,1,0,,,,,,,,,,,,909091,,,,,,,
35440,set_tempo,40,1,0,,,,,,,,,,,,916031,,,,,,,
35480,set_tempo,40,1,0,,,,,,,,,,,,923077,,,,,,,
35500,set_tempo,20,1,0,,,,,,,,,,,,930233,,,,,,,
35520,note_on,0,0,2,,,,,,,,,,,,,,,0,,,54,0
35520,note_on,240,0,2,,,,,,,,,,,,,,,0,,,52,0
35520,set_tempo,20,1,0,,,,,,,,,,,,923077,,,,,,,
35520,note_on,160,0,1,,,,,,,,,,,,,,,0,,,69,0
35520,note_on,0,0,2,,,,,,,,,,,,,,,0,,,47,38
35520,note_on,0,0,2,,,,,,,,,,,,,,,0,,,52,38
35520,note_on,0,0,2,,,,,,,,,,,,,,,0,,,59,46
35520,note_on,0,0,2,,,,,,,,,,,,,,,0,,,60,0
35520,note_on,0,0,1,,,,,,,,,,,,,,,0,,,66,73
35534,control_change,14,0,2,,,,,,,,,,,,,,,0,64,0,,
35540,set_tempo,20,1,0,,,,,,,,,,,,895522,,,,,,,
35598,control_change,64,0,2,,,,,,,,,,,,,,,0,64,127,,
35680,set_tempo,140,1,0,,,,,,,,,,,,923077,,,,,,,
35700,set_tempo,20,1,0,,,,,,,,,,,,888889,,,,,,,
35760,note_on,0,0,2,,,,,,,,,,,,,,,0,,,47,33
35760,note_on,0,0,2,,,,,,,,,,,,,,,0,,,59,38
35760,note_on,0,0,2,,,,,,,,,,,,,,,0,,,47,0
35760,note_on,0,0,2,,,,,,,,,,,,,,,0,,,52,0
35760,note_on,0,0,2,,,,,,,,,,,,,,,0,,,52,33
35760,set_tempo,60,1,0,,,,,,,,,,,,895522,,,,,,,
35760,note_on,162,0,2,,,,,,,,,,,,,,,0,,,59,0
35800,set_tempo,40,1,0,,,,,,,,,,,,902256,,,,,,,
35860,set_tempo,60,1,0,,,,,,,,,,,,909091,,,,,,,
35900,set_tempo,40,1,0,,,,,,,,,,,,916031,,,,,,,
35960,set_tempo,60,1,0,,,,,,,,,,,,923077,,,,,,,
36000,note_on,0,0,2,,,,,,,,,,,,,,,0,,,52,0
36000,note_on,0,0,2,,,,,,,,,,,,,,,0,,,47,0
36000,note_on,0,0,2,,,,,,,,,,,,,,,0,,,48,33
36000,note_on,0,0,2,,,,,,,,,,,,,,,0,,,52,33
36000,note_on,0,0,2,,,,,,,,,,,,,,,0,,,57,38
36000,note_on,240,0,2,,,,,,,,,,,,,,,0,,,59,0
36000,set_tempo,40,1,0,,,,,,,,,,,,930233,,,,,,,
36035,control_change,35,0,2,,,,,,,,,,,,,,,0,64,0,,
36040,set_tempo,40,1,0,,,,,,,,,,,,960000,,,,,,,
36080,set_tempo,40,1,0,,,,,,,,,,,,967742,,,,,,,
36092,control_change,57,0,2,,,,,,,,,,,,,,,0,64,127,,
36120,set_tempo,40,1,0,,,,,,,,,,,,975610,,,,,,,
36140,set_tempo,20,1,0,,,,,,,,,,,,983607,,,,,,,
36180,set_tempo,40,1,0,,,,,,,,,,,,991736,,,,,,,
36220,set_tempo,40,1,0,,,,,,,,,,,,1000000,,,,,,,
36240,set_tempo,20,1,0,,,,,,,,,,,,1008403,,,,,,,
36240,note_on,0,0,2,,,,,,,,,,,,,,,0,,,52,29
36240,note_on,0,0,2,,,,,,,,,,,,,,,0,,,52,0
36240,note_on,0,0,2,,,,,,,,,,,,,,,0,,,48,0
36240,note_on,0,0,2,,,,,,,,,,,,,,,0,,,48,29
36240,note_on,0,0,2,,,,,,,,,,,,,,,0,,,57,36
36240,note_on,148,0,2,,,,,,,,,,,,,,,0,,,57,0
36240,note_on,720,0,1,,,,,,,,,,,,,,,0,,,66,0
36240,note_on,0,0,1,,,,,,,,,,,,,,,0,,,69,69
36280,set_tempo,40,1,0,,,,,,,,,,,,1016949,,,,,,,
36320,set_tempo,40,1,0,,,,,,,,,,,,1025641,,,,,,,
36340,set_tempo,20,1,0,,,,,,,,,,,,1034483,,,,,,,
36380,set_tempo,40,1,0,,,,,,,,,,,,1043478,,,,,,,
36420,set_tempo,40,1,0,,,,,,,,,,,,1052632,,,,,,,
36440,set_tempo,20,1,0,,,,,,,,,,,,1061947,,,,,,,
36480,set_tempo,40,1,0,,,,,,,,,,,,975610,,,,,,,
36480,note_on,240,0,1,,,,,,,,,,,,,,,0,,,69,0
36480,note_on,0,0,1,,,,,,,,,,,,,,,0,,,66,64
36480,note_on,0,0,2,,,,,,,,,,,,,,,0,,,47,24
36480,note_on,240,0,2,,,,,,,,,,,,,,,0,,,57,0
36480,control_change,0,0,2,,,,,,,,,,,,,,,0,64,0,,
36480,note_on,0,0,2,,,,,,,,,,,,,,,0,,,59,29
36480,note_on,0,0,2,,,,,,,,,,,,,,,0,,,52,29
36480,note_on,0,0,2,,,,,,,,,,,,,,,0,,,48,0
36480,note_on,0,0,2,,,,,,,,,,,,,,,0,,,52,0
36536,control_change,56,0,2,,,,,,,,,,,,,,,0,64,127,,
36720,set_tempo,240,1,0,,,,,,,,,,,,916031,,,,,,,
36720,note_on,184,0,2,,,,,,,,,,,,,,,0,,,59,0
36720,note_on,0,0,2,,,,,,,,,,,,,,,0,,,47,22
36720,note_on,0,0,2,,,,,,,,,,,,,,,0,,,59,27
36720,note_on,0,0,2,,,,,,,,,,,,,,,0,,,52,0
36720,note_on,0,0,2,,,,,,,,,,,,,,,0,,,47,0
36720,note_on,0,0,2,,,,,,,,,,,,,,,0,,,52,27
36960,set_tempo,240,1,0,,,,,,,,,,,,882353,,,,,,,
36960,note_on,0,0,2,,,,,,,,,,,,,,,0,,,59,27
36960,note_on,0,0,2,,,,,,,,,,,,,,,0,,,47,22
36960,note_on,0,0,2,,,,,,,,,,,,,,,0,,,47,0
36960,note_on,0,0,2,,,,,,,,,,,,,,,0,,,52,0
36960,note_on,240,0,2,,,,,,,,,,,,,,,0,,,59,0
36964,note_on,4,0,2,,,,,,,,,,,,,,,0,,,52,27
37200,note_on,0,0,2,,,,,,,,,,,,,,,0,,,47,22
37200,note_on,0,0,2,,,,,,,,,,,,,,,0,,,52,27
37200,note_on,236,0,2,,,,,,,,,,,,,,,0,,,59,0
37200,note_on,0,0,2,,,,,,,,,,,,,,,0,,,47,0
37200,note_on,0,0,2,,,,,,,,,,,,,,,0,,,59,27
37204,note_on,4,0,2,,,,,,,,,,,,,,,0,,,52,0
37400,set_tempo,440,1,0,,,,,,,,,,,,934579,,,,,,,
37440,note_on,0,0,2,,,,,,,,,,,,,,,0,,,57,27
37440,note_on,0,0,2,,,,,,,,,,,,,,,0,,,52,27
37440,note_on,0,0,2,,,,,,,,,,,,,,,0,,,52,0
37440,note_on,0,0,2,,,,,,,,,,,,,,,0,,,59,0
37440,note_on,0,0,2,,,,,,,,,,,,,,,0,,,48,22
37440,set_tempo,40,1,0,,,,,,,,,,,,941472,,,,,,,
37440,note_on,236,0,2,,,,,,,,,,,,,,,0,,,47,0
37468,control_change,28,0,2,,,,,,,,,,,,,,,0,64,0,,
37489,control_change,21,0,2,,,,,,,,,,,,,,,0,64,127,,
37680,note_on,191,0,2,,,,,,,,,,,,,,,0,,,57,0
37680,note_on,0,0,2,,,,,,,,,,,,,,,0,,,52,0
37680,note_on,0,0,2,,,,,,,,,,,,,,,0,,,48,0
37680,note_on,0,0,2,,,,,,,,,,,,,,,0,,,52,27
37680,note_on,0,0,2,,,,,,,,,,,,,,,0,,,57,27
37680,note_on,0,0,2,,,,,,,,,,,,,,,0,,,48,22
37680,set_tempo,240,1,0,,,,,,,,,,,,962773,,,,,,,
37860,note_on,0,0,1,,,,,,,,,,,,,,,0,,,71,47
37860,note_on,1380,0,1,,,,,,,,,,,,,,,0,,,66,0
37920,set_tempo,240,1,0,,,,,,,,,,,,970246,,,,,,,
37920,note_on,60,0,1,,,,,,,,,,,,,,,0,,,71,0
37920,note_on,0,0,1,,,,,,,,,,,,,,,0,,,69,57
37920,note_on,0,0,2,,,,,,,,,,,,,,,0,,,57,23
37920,note_on,0,0,2,,,,,,,,,,,,,,,0,,,48,19
37920,note_on,0,0,2,,,,,,,,,,,,,,,0,,,48,0
37920,note_on,0,0,2,,,,,,,,,,,,,,,0,,,52,0
37920,note_on,0,0,2,,,,,,,,,,,,,,,0,,,52,23
37920,note_on,240,0,2,,,,,,,,,,,,,,,0,,,57,0
38000,set_tempo,80,1,0,,,,,,,,,,,,977676,,,,,,,
38080,set_tempo,80,1,0,,,,,,,,,,,,985222,,,,,,,
38160,note_on,240,0,2,,,,,,,,,,,,,,,0,,,57,0
38160,note_on,0,0,2,,,,,,,,,,,,,,,0,,,52,0
38160,note_on,0,0,2,,,,,,,,,,,,,,,0,,,48,0
38160,note_on,0,0,2,,,,,,,,,,,,,,,0,,,48,19
38160,note_on,0,0,2,,,,,,,,,,,,,,,0,,,52,23
38160,note_on,0,0,2,,,,,,,,,,,,,,,0,,,57,23
38160,set_tempo,80,1,0,,,,,,,,,,,,992884,,,,,,,
38240,set_tempo,80,1,0,,,,,,,,,,,,1000834,,,,,,,
38320,set_tempo,80,1,0,,,,,,,,,,,,1008742,,,,,,,
38360,set_tempo,40,1,0,,,,,,,,,,,,1016777,,,,,,,
38400,note_on,0,0,1,,,,,,,,,,,,,,,0,,,66,57
38400,note_on,480,0,1,,,,,,,,,,,,,,,0,,,69,0
38400,control_change,0,0,2,,,,,,,,,,,,,,,0,64,0,,
38400,note_on,0,0,2,,,,,,,,,,,,,,,0,,,48,0
38400,note_on,0,0,2,,,,,,,,,,,,,,,0,,,52,29
38400,set_tempo,40,1,0,,,,,,,,,,,,1024940,,,,,,,
38400,note_on,0,0,2,,,,,,,,,,,,,,,0,,,47,24
38400,note_on,0,0,2,,,,,,,,,,,,,,,0,,,52,0
38400,note_on,240,0,2,,,,,,,,,,,,,,,0,,,57,0
38400,note_on,0,0,2,,,,,,,,,,,,,,,0,,,59,29
38456,control_change,56,0,2,,,,,,,,,,,,,,,0,64,127,,
38640,note_on,0,0,2,,,,,,,,,,,,,,,0,,,59,27
38640,note_on,0,0,2,,,,,,,,,,,,,,,0,,,52,27
38640,note_on,0,0,2,,,,,,,,,,,,,,,0,,,47,22
38640,note_on,0,0,2,,,,,,,,,,,,,,,0,,,47,0
38640,note_on,0,0,2,,,,,,,,,,,,,,,0,,,52,0
38640,note_on,184,0,2,,,,,,,,,,,,,,,0,,,59,0
38640,set_tempo,240,1,0,,,,,,,,,,,,962773,,,,,,,
38880,set_tempo,240,1,0,,,,,,,,,,,,934579,,,,,,,
38880,note_on,0,0,2,,,,,,,,,,,,,,,0,,,47,0
38880,note_on,240,0,2,,,,,,,,,,,,,,,0,,,59,0
38880,note_on,0,0,2,,,,,,,,,,,,,,,0,,,59,27
38880,note_on,0,0,2,,,,,,,,,,,,,,,0,,,47,22
38880,note_on,0,0,2,,,,,,,,,,,,,,,0,,,52,0
38884,note_on,4,0,2,,,,,,,,,,,,,,,0,,,52,27
39120,note_on,0,0,2,,,,,,,,,,,,,,,0,,,47,22
39120,note_on,0,0,2,,,,,,,,,,,,,,,0,,,47,0
39120,note_on,0,0,2,,,,,,,,,,,,,,,0,,,52,27
39120,note_on,0,0,2,,,,,,,,,,,,,,,0,,,59,27
39120,set_tempo,240,1,0,,,,,,,,,,,,901442,,,,,,,
39120,note_on,236,0,2,,,,,,,,,,,,,,,0,,,59,0
39124,note_on,4,0,2,,,,,,,,,,,,,,,0,,,52,0
39360,note_on,236,0,2,,,,,,,,,,,,,,,0,,,47,0
39360,note_on,0,0,2,,,,,,,,,,,,,,,0,,,52,0
39360,note_on,0,0,2,,,,,,,,,,,,,,,0,,,59,0
39360,note_on,0,0,2,,,,,,,,,,,,,,,0,,,47,22
39360,note_on,0,0,2,,,,,,,,,,,,,,,0,,,51,27
39360,note_on,0,0,2,,,,,,,,,,,,,,,0,,,59,27
39360,set_tempo,240,1,0,,,,,,,,,,,,962773,,,,,,,
39388,control_change,28,0,2,,,,,,,,,,,,,,,0,64,0,,
39409,control_change,21,0,2,,,,,,,,,,,,,,,0,64,127,,
39600,note_on,0,0,2,,,,,,,,,,,,,,,0,,,59,27
39600,note_on,0,0,2,,,,,,,,,,,,,,,0,,,51,27
39600,note_on,0,0,2,,,,,,,,,,,,,,,0,,,47,0
39600,note_on,0,0,2,,,,,,,,,,,,,,,0,,,51,0
39600,note_on,191,0,2,,,,,,,,,,,,,,,0,,,59,0
39600,note_on,0,0,2,,,,,,,,,,,,,,,0,,,47,22
39800,set_tempo,440,1,0,,,,,,,,,,,,970246,,,,,,,
39840,note_on,240,0,2,,,,,,,,,,,,,,,0,,,59,0
39840,note_on,0,0,2,,,,,,,,,,,,,,,0,,,51,0
39840,note_on,0,0,2,,,,,,,,,,,,,,,0,,,47,0
39840,note_on,0,0,2,,,,,,,,,,,,,,,0,,,47,19
39840,note_on,0,0,2,,,,,,,,,,,,,,,0,,,51,23
39840,note_on,0,0,2,,,,,,,,,,,,,,,0,,,57,23
39840,set_tempo,40,1,0,,,,,,,,,,,,977676,,,,,,,
39880,set_tempo,40,1,0,,,,,,,,,,,,985222,,,,,,,
39920,set_tempo,40,1,0,,,,,,,,,,,,992884,,,,,,,
39960,set_tempo,40,1,0,,,,,,,,,,,,1000834,,,,,,,
40000,set_tempo,40,1,0,,,,,,,,,,,,1008742,,,,,,,
40040,set_tempo,40,1,0,,,,,,,,,,,,1016777,,,,,,,
40080,note_on,0,0,2,,,,,,,,,,,,,,,0,,,57,23
40080,note_on,0,0,2,,,,,,,,,,,,,,,0,,,51,23
40080,note_on,0,0,2,,,,,,,,,,,,,,,0,,,51,0
40080,note_on,0,0,2,,,,,,,,,,,,,,,0,,,47,0
40080,note_on,0,0,2,,,,,,,,,,,,,,,0,,,47,19
40080,note_on,240,0,2,,,,,,,,,,,,,,,0,,,57,0
40080,set_tempo,40,1,0,,,,,,,,,,,,1024940,,,,,,,
40120,set_tempo,40,1,0,,,,,,,,,,,,1033236,,,,,,,
40160,set_tempo,40,1,0,,,,,,,,,,,,1050420,,,,,,,
40200,set_tempo,40,1,0,,,,,,,,,,,,1114827,,,,,,,
40200,note_on,0,0,1,,,,,,,,,,,,,,,0,,,64,52
40200,note_on,1800,0,1,,,,,,,,,,,,,,,0,,,66,0
40240,set_tempo,40,1,0,,,,,,,,,,,,1187884,,,,,,,
40280,set_tempo,40,1,0,,,,,,,,,,,,1270917,,,,,,,
40320,note_on,0,0,2,,,,,,,,,,,,,,,0,,,51,0
40320,note_on,0,0,2,,,,,,,,,,,,,,,0,,,47,0
40320,note_on,0,0,2,,,,,,,,,,,,,,,0,,,48,32
40320,note_on,0,0,2,,,,,,,,,,,,,,,0,,,55,32
40320,control_change,0,0,2,,,,,,,,,,,,,,,0,64,0,,
40320,note_on,0,0,1,,,,,,,,,,,,,,,0,,,64,57
40320,note_on,120,0,1,,,,,,,,,,,,,,,0,,,64,0
40320,note_on,240,0,2,,,,,,,,,,,,,,,0,,,57,0
40320,set_tempo,40,1,0,,,,,,,,,,,,1024940,,,,,,,
40376,control_change,56,0,2,,,,,,,,,,,,,,,0,64,127,,
40560,set_tempo,240,1,0,,,,,,,,,,,,962773,,,,,,,
40560,note_on,184,0,2,,,,,,,,,,,,,,,0,,,55,0
40560,note_on,0,0,2,,,,,,,,,,,,,,,0,,,48,0
40560,note_on,0,0,2,,,,,,,,,,,,,,,0,,,48,29
40560,note_on,0,0,2,,,,,,,,,,,,,,,0,,,55,29
40800,note_on,0,0,2,,,,,,,,,,,,,,,0,,,48,0
40800,set_tempo,240,1,0,,,,,,,,,,,,927644,,,,,,,
40800,note_on,240,0,2,,,,,,,,,,,,,,,0,,,55,0
40800,note_on,0,0,2,,,,,,,,,,,,,,,0,,,55,29
40800,note_on,0,0,2,,,,,,,,,,,,,,,0,,,48,29
41040,note_on,240,0,2,,,,,,,,,,,,,,,0,,,55,0
41040,note_on,0,0,2,,,,,,,,,,,,,,,0,,,48,28
41040,note_on,0,0,2,,,,,,,,,,,,,,,0,,,55,28
41040,note_on,0,0,2,,,,,,,,,,,,,,,0,,,48,0
41280,set_tempo,480,1,0,,,,,,,,,,,,962773,,,,,,,
41280,note_on,0,0,2,,,,,,,,,,,,,,,0,,,58,28
41280,note_on,0,0,2,,,,,,,,,,,,,,,0,,,48,28
41280,note_on,0,0,2,,,,,,,,,,,,,,,0,,,48,0
41280,note_on,240,0,2,,,,,,,,,,,,,,,0,,,55,0
41308,control_change,28,0,2,,,,,,,,,,,,,,,0,64,0,,
41329,control_change,21,0,2,,,,,,,,,,,,,,,0,64,127,,
41520,note_on,0,0,2,,,,,,,,,,,,,,,0,,,58,28
41520,note_on,191,0,2,,,,,,,,,,,,,,,0,,,58,0
41520,note_on,0,0,2,,,,,,,,,,,,,,,0,,,48,0
41520,note_on,0,0,2,,,,,,,,,,,,,,,0,,,48,28
41760,note_on,0,0,2,,,,,,,,,,,,,,,0,,,52,23
41760,note_on,0,0,2,,,,,,,,,,,,,,,0,,,48,19
41760,set_tempo,480,1,0,,,,,,,,,,,,970246,,,,,,,
41760,note_on,1440,0,1,,,,,,,,,,,,,,,0,,,64,0
41760,note_on,0,0,2,,,,,,,,,,,,,,,0,,,57,23
41760,note_on,0,0,2,,,,,,,,,,,,,,,0,,,48,0
41760,note_on,240,0,2,,,,,,,,,,,,,,,0,,,58,0
41760,note_on,0,0,1,,,,,,,,,,,,,,,0,,,66,52
41767,control_change,7,0,2,,,,,,,,,,,,,,,0,64,0,,
41788,control_change,21,0,2,,,,,,,,,,,,,,,0,64,127,,
41840,set_tempo,80,1,0,,,,,,,,,,,,977676,,,,,,,
41920,set_tempo,80,1,0,,,,,,,,,,,,985222,,,,,,,
42000,note_on,0,0,2,,,,,,,,,,,,,,,0,,,48,0
42000,note_on,0,0,2,,,,,,,,,,,,,,,0,,,52,0
42000,set_tempo,80,1,0,,,,,,,,,,,,992884,,,,,,,
42000,note_on,212,0,2,,,,,,,,,,,,,,,0,,,57,0
42000,note_on,0,0,2,,,,,,,,,,,,,,,0,,,48,19
42000,note_on,0,0,2,,,,,,,,,,,,,,,0,,,52,23
42000,note_on,0,0,2,,,,,,,,,,,,,,,0,,,57,23
42080,set_tempo,80,1,0,,,,,,,,,,,,1000834,,,,,,,
42160,set_tempo,80,1,0,,,,,,,,,,,,1008742,,,,,,,
42200,set_tempo,40,1,0,,,,,,,,,,,,1016777,,,,,,,
42240,note_on,240,0,2,,,,,,,,,,,,,,,0,,,57,0
42240,set_tempo,40,1,0,,,,,,,,,,,,1024940,,,,,,,
42240,note_on,0,0,2,,,,,,,,,,,,,,,0,,,52,0
42240,note_on,0,0,2,,,,,,,,,,,,,,,0,,,48,0
42240,note_on,0,0,2,,,,,,,,,,,,,,,0,,,47,24
42240,note_on,0,0,2,,,,,,,,,,,,,,,0,,,52,29
42240,note_on,0,0,2,,,,,,,,,,,,,,,0,,,57,29
42240,control_change,0,0,2,,,,,,,,,,,,,,,0,64,0,,
42240,note_on,0,0,1,,,,,,,,,,,,,,,0,,,64,52
42240,note_on,480,0,1,,,,,,,,,,,,,,,0,,,66,0
42296,control_change,56,0,2,,,,,,,,,,,,,,,0,64,127,,
42480,note_on,0,0,2,,,,,,,,,,,,,,,0,,,47,0
42480,note_on,184,0,2,,,,,,,,,,,,,,,0,,,57,0
42480,note_on,0,0,2,,,,,,,,,,,,,,,0,,,47,22
42480,note_on,0,0,2,,,,,,,,,,,,,,,0,,,52,27
42480,note_on,0,0,2,,,,,,,,,,,,,,,0,,,57,27
42480,set_tempo,240,1,0,,,,,,,,,,,,962773,,,,,,,
42480,note_on,0,0,2,,,,,,,,,,,,,,,0,,,52,0
42709,control_change,229,0,2,,,,,,,,,,,,,,,0,64,0,,
42720,note_on,11,0,2,,,,,,,,,,,,,,,0,,,57,0
42720,set_tempo,240,1,0,,,,,,,,,,,,941472,,,,,,,
42720,note_on,0,0,2,,,,,,,,,,,,,,,0,,,47,0
42720,note_on,0,0,2,,,,,,,,,,,,,,,0,,,52,0
42720,note_on,0,0,2,,,,,,,,,,,,,,,0,,,47,22
42720,note_on,0,0,2,,,,,,,,,,,,,,,0,,,56,27
42724,note_on,4,0,2,,,,,,,,,,,,,,,0,,,52,27
42766,control_change,42,0,2,,,,,,,,,,,,,,,0,64,127,,
42960,note_on,194,0,2,,,,,,,,,,,,,,,0,,,56,0
42960,note_on,0,0,2,,,,,,,,,,,,,,,0,,,47,0
42960,note_on,0,0,2,,,,,,,,,,,,,,,0,,,47,22
42960,note_on,0,0,2,,,,,,,,,,,,,,,0,,,52,27
42960,note_on,0,0,2,,,,,,,,,,,,,,,0,,,56,27
42964,note_on,4,0,2,,,,,,,,,,,,,,,0,,,52,0
43200,note_on,236,0,2,,,,,,,,,,,,,,,0,,,47,0
43200,note_on,0,0,2,,,,,,,,,,,,,,,0,,,52,0
43200,note_on,0,0,2,,,,,,,,,,,,,,,0,,,56,0
43200,note_on,0,0,2,,,,,,,,,,,,,,,0,,,47,22
43200,note_on,0,0,2,,,,,,,,,,,,,,,0,,,52,27
43200,set_tempo,480,1,0,,,,,,,,,,,,962773,,,,,,,
43200,note_on,0,0,2,,,,,,,,,,,,,,,0,,,55,27
43228,control_change,28,0,2,,,,,,,,,,,,,,,0,64,0,,
43249,control_change,21,0,2,,,,,,,,,,,,,,,0,64,127,,
43440,note_on,0,0,2,,,,,,,,,,,,,,,0,,,52,0
43440,note_on,191,0,2,,,,,,,,,,,,,,,0,,,55,0
43440,note_on,0,0,2,,,,,,,,,,,,,,,0,,,55,27
43440,note_on,0,0,2,,,,,,,,,,,,,,,0,,,52,27
43440,note_on,0,0,2,,,,,,,,,,,,,,,0,,,47,22
43440,note_on,0,0,2,,,,,,,,,,,,,,,0,,,47,0
43640,set_tempo,440,1,0,,,,,,,,,,,,977676,,,,,,,
43680,note_on,240,0,2,,,,,,,,,,,,,,,0,,,55,0
43680,note_on,0,0,2,,,,,,,,,,,,,,,0,,,55,23
43680,control_change,0,0,2,,,,,,,,,,,,,,,0,64,0,,
43680,note_on,0,0,2,,,,,,,,,,,,,,,0,,,47,0
43680,note_on,0,0,2,,,,,,,,,,,,,,,0,,,52,0
43680,set_tempo,40,1,0,,,,,,,,,,,,992884,,,,,,,
43680,note_on,0,0,2,,,,,,,,,,,,,,,0,,,47,19
43680,note_on,0,0,2,,,,,,,,,,,,,,,0,,,52,23
43680,note_on,0,0,1,,,,,,,,,,,,,,,0,,,66,47
43680,note_on,1440,0,1,,,,,,,,,,,,,,,0,,,64,0
43720,set_tempo,40,1,0,,,,,,,,,,,,1008742,,,,,,,
43760,set_tempo,40,1,0,,,,,,,,,,,,1024940,,,,,,,
43760,control_change,80,0,2,,,,,,,,,,,,,,,0,64,127,,
43800,set_tempo,40,1,0,,,,,,,,,,,,1041848,,,,,,,
43840,set_tempo,40,1,0,,,,,,,,,,,,1059135,,,,,,,
43880,set_tempo,40,1,0,,,,,,,,,,,,1077006,,,,,,,
43920,note_on,0,0,2,,,,,,,,,,,,,,,0,,,52,23
43920,note_on,0,0,2,,,,,,,,,,,,,,,0,,,52,0
43920,note_on,0,0,2,,,,,,,,,,,,,,,0,,,47,19
43920,note_on,0,0,2,,,,,,,,,,,,,,,0,,,55,23
43920,set_tempo,40,1,0,,,,,,,,,,,,1095690,,,,,,,
43920,note_on,160,0,2,,,,,,,,,,,,,,,0,,,55,0
43920,note_on,0,0,2,,,,,,,,,,,,,,,0,,,47,0
43960,set_tempo,40,1,0,,,,,,,,,,,,1114827,,,,,,,
44000,set_tempo,40,1,0,,,,,,,,,,,,1134859,,,,,,,
44040,set_tempo,40,1,0,,,,,,,,,,,,1155402,,,,,,,
44080,set_tempo,40,1,0,,,,,,,,,,,,1176932,,,,,,,
44120,set_tempo,40,1,0,,,,,,,,,,,,1210410,,,,,,,
44160,note_on,0,0,2,,,,,,,,,,,,,,,0,,,55,29
44160,note_on,0,0,2,,,,,,,,,,,,,,,0,,,47,0
44160,note_on,0,0,2,,,,,,,,,,,,,,,0,,,46,24
44160,note_on,0,0,2,,,,,,,,,,,,,,,0,,,48,29
44160,control_change,0,0,2,,,,,,,,,,,,,,,0,64,0,,
44160,note_on,0,0,2,,,,,,,,,,,,,,,0,,,52,0
44160,note_on,240,0,2,,,,,,,,,,,,,,,0,,,55,0
44160,note_on,0,0,1,,,,,,,,,,,,,,,0,,,64,47
44160,set_tempo,40,1,0,,,,,,,,,,,,1050420,,,,,,,
44160,note_on,480,0,1,,,,,,,,,,,,,,,0,,,66,0
44601,control_change,441,0,2,,,,,,,,,,,,,,,0,64,127,,
45094,control_change,493,0,2,,,,,,,,,,,,,,,0,64,0,,
45120,note_on,26,0,2,,,,,,,,,,,,,,,0,,,55,0
45120,note_on,0,0,2,,,,,,,,,,,,,,,0,,,48,0
45120,set_tempo,960,1,0,,,,,,,,,,,,1270917,,,,,,,
45120,note_on,0,0,2,,,,,,,,,,,,,,,0,,,46,0
45120,note_on,960,0,1,,,,,,,,,,,,,,,0,,,64,0
46080,note_on,0,0,2,,,,,,,,,,,,,,,0,,,47,23
46080,note_on,0,0,1,,,,,,,,,,,,,,,0,,,54,28
46080,note_on,0,0,1,,,,,,,,,,,,,,,0,,,64,33
46080,note_on,0,0,1,,,,,,,,,,,,,,,0,,,59,28
46080,set_tempo,960,1,0,,,,,,,,,,,,1067996,,,,,,,
46080,note_on,960,0,1,,,,,,,,,,,,,,,0,,,52,28
46080,note_on,960,0,2,,,,,,,,,,,,,,,0,,,35,19
46213,control_change,133,0,2,,,,,,,,,,,,,,,0,64,127,,
47040,note_on,827,0,2,,,,,,,,,,,,,,,0,,,47,0
47040,note_on,0,0,2,,,,,,,,,,,,,,,0,,,35,0
47040,set_tempo,960,1,0,,,,,,,,,,,,1176932,,,,,,,
47040,note_on,0,0,2,,,,,,,,,,,,,,,0,,,42,23
47040,note_on,0,0,2,,,,,,,,,,,,,,,0,,,47,23
47040,note_on,0,0,2,,,,,,,,,,,,,,,0,,,35,19
47040,note_on,960,0,1,,,,,,,,,,,,,,,0,,,59,0
47040,note_on,0,0,1,,,,,,,,,,,,,,,0,,,52,0
47040,note_on,0,0,1,,,,,,,,,,,,,,,0,,,64,0
47040,note_on,0,0,1,,,,,,,,,,,,,,,0,,,54,0
47040,note_on,0,0,1,,,,,,,,,,,,,,,0,,,54,28
47040,note_on,0,0,1,,,,,,,,,,,,,,,0,,,59,28
47040,note_on,0,0,1,,,,,,,,,,,,,,,0,,,51,28
47040,note_on,0,0,1,,,,,,,,,,,,,,,0,,,63,33
47120,control_change,80,0,2,,,,,,,,,,,,,,,0,64,0,,
47413,control_change,293,0,2,,,,,,,,,,,,,,,0,64,127,,
48000,set_tempo,960,1,0,,,,,,,,,,,,1270917,,,,,,,
48000,note_on,0,0,1,,,,,,,,,,,,,,,0,,,55,28
48000,note_on,0,0,1,,,,,,,,,,,,,,,0,,,52,28
48000,note_on,0,0,1,,,,,,,,,,,,,,,0,,,59,28
48000,note_on,0,0,1,,,,,,,,,,,,,,,0,,,64,33
48000,control_change,0,0,2,,,,,,,,,,,,,,,0,64,0,,
48000,note_on,0,0,2,,,,,,,,,,,,,,,0,,,40,23
48000,note_on,0,0,2,,,,,,,,,,,,,,,0,,,28,19
48000,note_on,0,0,2,,,,,,,,,,,,,,,0,,,35,0
48000,note_on,0,0,2,,,,,,,,,,,,,,,0,,,42,0
48000,note_on,0,0,1,,,,,,,,,,,,,,,0,,,51,0
48000,note_on,0,0,1,,,,,,,,,,,,,,,0,,,59,0
48000,note_on,587,0,2,,,,,,,,,,,,,,,0,,,47,0
48000,note_on,0,0,1,,,,,,,,,,,,,,,0,,,54,0
48000,note_on,960,0,1,,,,,,,,,,,,,,,0,,,63,0
48240,control_change,240,0,2,,,,,,,,,,,,,,,0,64,127,,
49920,note_on,1680,0,2,,,,,,,,,,,,,,,0,,,40,0
49920,end_of_track,0,1,1,,,,,,,,,,,,,,,,,,,
49920,note_on,0,0,1,,,,,,,,,,,,,,,0,,,64,0
49920,note_on,1920,0,1,,,,,,,,,,,,,,,0,,,55,0
49920,note_on,0,0,1,,,,,,,,,,,,,,,0,,,59,0
49920,note_on,0,0,2,,,,,,,,,,,,,,,0,,,28,0
49920,note_on,0,0,1,,,,,,,,,,,,,,,0,,,52,0
50694,set_tempo,2694,1,0,,,,,,,,,,,,1200000,,,,,,,
51173,end_of_track,0,1,2,,,,,,,,,,,,,,,,,,,
51173,control_change,1253,0,2,,,,,,,,,,,,,,,0,64,0,,
51840,set_tempo,1146,1,0,,,,,,,,,,,,857143,,,,,,,
51840,end_of_track,0,1,0,,,,,,,,,,,,,,,,,,,
