tick,type,time,meta,track,frame_rate,hours,minutes,seconds,frames,sub_frames,numerator,denominator,clocks_per_click,notated_32nd_notes_per_beat,key,tempo,port,program,channel,control,value,note,velocity
0,track_name,0,1,0,,,,,,,,,,,,,,,,,,,
0,program_change,0,0,1,,,,,,,,,,,,,,0,0,,,,
0,control_change,0,0,1,,,,,,,,,,,,,,,0,7,100,,
0,control_change,0,0,1,,,,,,,,,,,,,,,0,10,64,,
0,control_change,0,0,1,,,,,,,,,,,,,,,0,91,127,,
0,control_change,0,0,1,,,,,,,,,,,,,,,0,91,127,,
0,midi_port,0,1,9,,,,,,,,,,,,,0,,,,,,
0,midi_port,0,1,2,,,,,,,,,,,,,0,,,,,,
0,track_name,0,1,2,,,,,,,,,,,,,,,,,,,
0,program_change,0,0,2,,,,,,,,,,,,,,0,0,,,,
0,control_change,0,0,2,,,,,,,,,,,,,,,0,7,100,,
0,control_change,0,0,2,,,,,,,,,,,,,,,0,10,64,,
0,control_change,0,0,2,,,,,,,,,,,,,,,0,64,0,,
0,control_change,0,0,2,,,,,,,,,,,,,,,0,91,127,,
0,text,0,1,2,,,,,,,,,,,,,,,,,,,
0,midi_port,0,1,3,,,,,,,,,,,,,0,,,,,,
0,track_name,0,1,3,,,,,,,,,,,,,,,,,,,
0,end_of_track,0,1,3,,,,,,,,,,,,,,,,,,,
0,end_of_track,0,1,8,,,,,,,,,,,,,,,,,,,
0,midi_port,0,1,8,,,,,,,,,,,,,0,,,,,,
0,end_of_track,0,1,7,,,,,,,,,,,,,,,,,,,
0,track_name,0,1,7,,,,,,,,,,,,,,,,,,,
0,midi_port,0,1,7,,,,,,,,,,,,,0,,,,,,
0,end_of_track,0,1,6,,,,,,,,,,,,,,,,,,,
0,track_name,0,1,1,,,,,,,,,,,,,,,,,,,
0,track_name,0,1,6,,,,,,,,,,,,,,,,,,,
0,end_of_track,0,1,5,,,,,,,,,,,,,,,,,,,
0,track_name,0,1,5,,,,,,,,,,,,,,,,,,,
0,midi_port,0,1,5,,,,,,,,,,,,,0,,,,,,
0,end_of_track,0,1,4,,,,,,,,,,,,,,,,,,,
0,track_name,0,1,4,,,,,,,,,,,,,,,,,,,
0,midi_port,0,1,4,,,,,,,,,,,,,0,,,,,,
0,midi_port,0,1,6,,,,,,,,,,,,,0,,,,,,
0,midi_port,0,1,1,,,,,,,,,,,,,0,,,,,,
0,end_of_track,0,1,9,,,,,,,,,,,,,,,,,,,
0,key_signature,0,1,0,,,,,,,,,,,B,,,,,,,,
0,set_tempo,0,1,0,,,,,,,,,,,,478927,,,,,,,
0,copyright,0,1,0,,,,,,,,,,,,,,,,,,,
0,text,0,1,0,,,,,,,,,,,,,,,,,,,
0,text,0,1,0,,,,,,,,,,,,,,,,,,,
0,time_signature,0,1,0,,,,,,,3,8,12,8,,,,,,,,,
0,text,0,1,0,,,,,,,,,,,,,,,,,,,
0,text,0,1,0,,,,,,,,,,,,,,,,,,,
0,smpte_offset,0,1,0,25,32,0,3,0,0,,,,,,,,,,,,,
0,text,0,1,0,,,,,,,,,,,,,,,,,,,
1,note_on,0,0,2,,,,,,,,,,,,,,,0,,,51,56
1,note_on,0,0,2,,,,,,,,,,,,,,,0,,,44,56
1,note_on,0,0,1,,,,,,,,,,,,,,,0,,,59,59
1,note_on,1,0,1,,,,,,,,,,,,,,,0,,,63,70
1,note_on,1,0,2,,,,,,,,,,,,,,,0,,,56,66
3,control_change,2,0,2,,,,,,,,,,,,,,,0,64,127,,
91,control_change,88,0,2,,,,,,,,,,,,,,,0,64,0,,
120,note_on,119,0,1,,,,,,,,,,,,,,,0,,,64,59
121,note_on,1,0,1,,,,,,,,,,,,,,,0,,,63,0
180,note_on,0,0,2,,,,,,,,,,,,,,,0,,,51,0
180,note_on,59,0,1,,,,,,,,,,,,,,,0,,,64,0
180,note_on,0,0,1,,,,,,,,,,,,,,,0,,,59,0
180,note_on,89,0,2,,,,,,,,,,,,,,,0,,,44,0
180,note_on,0,0,2,,,,,,,,,,,,,,,0,,,56,0
240,note_on,60,0,2,,,,,,,,,,,,,,,0,,,44,49
240,note_on,0,0,2,,,,,,,,,,,,,,,0,,,32,41
240,note_on,60,0,1,,,,,,,,,,,,,,,0,,,59,59
240,set_tempo,240,1,0,,,,,,,,,,,,467472,,,,,,,
240,note_on,0,0,1,,,,,,,,,,,,,,,0,,,64,70
254,control_change,14,0,2,,,,,,,,,,,,,,,0,64,127,,
300,note_on,46,0,2,,,,,,,,,,,,,,,0,,,32,0
300,note_on,0,0,2,,,,,,,,,,,,,,,0,,,44,0
357,control_change,57,0,2,,,,,,,,,,,,,,,0,64,0,,
360,note_on,120,0,1,,,,,,,,,,,,,,,0,,,64,0
360,note_on,0,0,1,,,,,,,,,,,,,,,0,,,65,59
420,note_on,60,0,1,,,,,,,,,,,,,,,0,,,65,0
420,note_on,0,0,1,,,,,,,,,,,,,,,0,,,59,0
480,note_on,123,0,2,,,,,,,,,,,,,,,0,,,39,41
480,note_on,0,0,2,,,,,,,,,,,,,,,0,,,51,49
480,note_on,0,0,1,,,,,,,,,,,,,,,0,,,63,59
480,note_on,60,0,1,,,,,,,,,,,,,,,0,,,59,59
480,note_on,0,0,1,,,,,,,,,,,,,,,0,,,65,70
503,control_change,23,0,2,,,,,,,,,,,,,,,0,64,127,,
540,note_on,0,0,2,,,,,,,,,,,,,,,0,,,39,0
540,note_on,37,0,2,,,,,,,,,,,,,,,0,,,51,0
600,set_tempo,360,1,0,,,,,,,,,,,,471254,,,,,,,
600,note_on,120,0,1,,,,,,,,,,,,,,,0,,,65,0
600,note_on,0,0,1,,,,,,,,,,,,,,,0,,,66,59
629,control_change,89,0,2,,,,,,,,,,,,,,,0,64,0,,
660,note_on,60,0,1,,,,,,,,,,,,,,,0,,,66,0
660,note_on,0,0,1,,,,,,,,,,,,,,,0,,,63,0
660,note_on,0,0,1,,,,,,,,,,,,,,,0,,,59,0
720,note_on,91,0,2,,,,,,,,,,,,,,,0,,,51,49
720,note_on,60,0,1,,,,,,,,,,,,,,,0,,,59,59
720,note_on,0,0,2,,,,,,,,,,,,,,,0,,,56,59
720,note_on,0,0,2,,,,,,,,,,,,,,,0,,,44,49
720,note_on,0,0,1,,,,,,,,,,,,,,,0,,,63,59
720,note_on,0,0,1,,,,,,,,,,,,,,,0,,,66,70
720,set_tempo,120,1,0,,,,,,,,,,,,465658,,,,,,,
737,control_change,17,0,2,,,,,,,,,,,,,,,0,64,127,,
840,note_on,120,0,1,,,,,,,,,,,,,,,0,,,66,0
840,note_on,0,0,1,,,,,,,,,,,,,,,0,,,67,59
851,control_change,114,0,2,,,,,,,,,,,,,,,0,64,0,,
900,note_on,60,0,1,,,,,,,,,,,,,,,0,,,67,0
900,note_on,0,0,1,,,,,,,,,,,,,,,0,,,63,0
900,note_on,0,0,1,,,,,,,,,,,,,,,0,,,59,0
900,note_on,0,0,2,,,,,,,,,,,,,,,0,,,51,0
900,note_on,0,0,2,,,,,,,,,,,,,,,0,,,44,0
900,note_on,49,0,2,,,,,,,,,,,,,,,0,,,56,0
960,note_on,0,0,1,,,,,,,,,,,,,,,0,,,67,70
960,note_on,0,0,2,,,,,,,,,,,,,,,0,,,44,49
960,note_on,0,0,1,,,,,,,,,,,,,,,0,,,63,59
960,note_on,60,0,2,,,,,,,,,,,,,,,0,,,32,41
960,note_on,60,0,1,,,,,,,,,,,,,,,0,,,59,59
1000,control_change,40,0,2,,,,,,,,,,,,,,,0,64,127,,
1020,note_on,20,0,2,,,,,,,,,,,,,,,0,,,44,0
1020,note_on,0,0,2,,,,,,,,,,,,,,,0,,,32,0
1080,note_on,0,0,1,,,,,,,,,,,,,,,0,,,68,59
1080,note_on,120,0,1,,,,,,,,,,,,,,,0,,,67,0
1134,control_change,114,0,2,,,,,,,,,,,,,,,0,64,0,,
1140,note_on,0,0,1,,,,,,,,,,,,,,,0,,,59,0
1140,note_on,60,0,1,,,,,,,,,,,,,,,0,,,68,0
1140,note_on,0,0,1,,,,,,,,,,,,,,,0,,,63,0
1200,note_on,0,0,2,,,,,,,,,,,,,,,0,,,51,49
1200,note_on,0,0,1,,,,,,,,,,,,,,,0,,,68,70
1200,note_on,0,0,1,,,,,,,,,,,,,,,0,,,63,59
1200,note_on,60,0,1,,,,,,,,,,,,,,,0,,,59,59
1200,set_tempo,480,1,0,,,,,,,,,,,,473149,,,,,,,
1200,note_on,66,0,2,,,,,,,,,,,,,,,0,,,39,41
1237,control_change,37,0,2,,,,,,,,,,,,,,,0,64,127,,
1260,note_on,23,0,2,,,,,,,,,,,,,,,0,,,51,0
1260,note_on,0,0,2,,,,,,,,,,,,,,,0,,,39,0
1320,note_on,0,0,1,,,,,,,,,,,,,,,0,,,69,59
1320,note_on,120,0,1,,,,,,,,,,,,,,,0,,,68,0
1346,control_change,86,0,2,,,,,,,,,,,,,,,0,64,0,,
1380,note_on,0,0,1,,,,,,,,,,,,,,,0,,,59,0
1380,note_on,0,0,1,,,,,,,,,,,,,,,0,,,63,0
1380,note_on,60,0,1,,,,,,,,,,,,,,,0,,,69,0
1440,set_tempo,240,1,0,,,,,,,,,,,,465658,,,,,,,
1440,note_on,94,0,2,,,,,,,,,,,,,,,0,,,59,59
1440,note_on,0,0,2,,,,,,,,,,,,,,,0,,,56,49
1440,note_on,0,0,1,,,,,,,,,,,,,,,0,,,69,71
1440,note_on,60,0,1,,,,,,,,,,,,,,,0,,,63,60
1440,note_on,0,0,2,,,,,,,,,,,,,,,0,,,51,49
1477,control_change,37,0,2,,,,,,,,,,,,,,,0,64,127,,
1560,note_on,120,0,1,,,,,,,,,,,,,,,0,,,69,0
1560,note_on,0,0,1,,,,,,,,,,,,,,,0,,,70,61
1611,control_change,134,0,2,,,,,,,,,,,,,,,0,64,0,,
1620,note_on,60,0,1,,,,,,,,,,,,,,,0,,,70,0
1620,note_on,0,0,2,,,,,,,,,,,,,,,0,,,59,0
1620,note_on,0,0,2,,,,,,,,,,,,,,,0,,,51,0
1620,note_on,0,0,1,,,,,,,,,,,,,,,0,,,63,0
1620,note_on,9,0,2,,,,,,,,,,,,,,,0,,,56,0
1680,note_on,0,0,1,,,,,,,,,,,,,,,0,,,70,72
1680,note_on,60,0,1,,,,,,,,,,,,,,,0,,,63,61
1680,note_on,60,0,2,,,,,,,,,,,,,,,0,,,32,43
1680,note_on,0,0,2,,,,,,,,,,,,,,,0,,,44,51
1709,control_change,29,0,2,,,,,,,,,,,,,,,0,64,127,,
1740,note_on,31,0,2,,,,,,,,,,,,,,,0,,,44,0
1740,note_on,0,0,2,,,,,,,,,,,,,,,0,,,32,0
1800,note_on,120,0,1,,,,,,,,,,,,,,,0,,,70,0
1800,note_on,0,0,1,,,,,,,,,,,,,,,0,,,71,62
1854,control_change,114,0,2,,,,,,,,,,,,,,,0,64,0,,
1860,note_on,0,0,1,,,,,,,,,,,,,,,0,,,63,0
1860,note_on,60,0,1,,,,,,,,,,,,,,,0,,,71,0
1920,note_on,0,0,1,,,,,,,,,,,,,,,0,,,71,74
1920,set_tempo,480,1,0,,,,,,,,,,,,465658,,,,,,,
1920,note_on,66,0,2,,,,,,,,,,,,,,,0,,,39,44
1920,note_on,0,0,2,,,,,,,,,,,,,,,0,,,51,52
1920,note_on,60,0,1,,,,,,,,,,,,,,,0,,,63,62
1920,note_on,0,0,1,,,,,,,,,,,,,,,0,,,68,74
1954,control_change,34,0,2,,,,,,,,,,,,,,,0,64,127,,
1980,note_on,26,0,2,,,,,,,,,,,,,,,0,,,51,0
1980,note_on,0,0,2,,,,,,,,,,,,,,,0,,,39,0
2040,note_on,0,0,1,,,,,,,,,,,,,,,0,,,72,63
2040,note_on,120,0,1,,,,,,,,,,,,,,,0,,,71,0
2071,control_change,91,0,2,,,,,,,,,,,,,,,0,64,0,,
2100,note_on,60,0,1,,,,,,,,,,,,,,,0,,,72,0
2100,note_on,0,0,1,,,,,,,,,,,,,,,0,,,68,0
2100,note_on,0,0,1,,,,,,,,,,,,,,,0,,,63,0
2160,note_on,60,0,1,,,,,,,,,,,,,,,0,,,68,64
2160,set_tempo,240,1,0,,,,,,,,,,,,463822,,,,,,,
2160,note_on,0,0,1,,,,,,,,,,,,,,,0,,,72,76
2160,note_on,0,0,1,,,,,,,,,,,,,,,0,,,63,64
2160,note_on,0,0,2,,,,,,,,,,,,,,,0,,,51,53
2160,note_on,0,0,2,,,,,,,,,,,,,,,0,,,56,53
2160,note_on,89,0,2,,,,,,,,,,,,,,,0,,,59,63
2180,control_change,20,0,2,,,,,,,,,,,,,,,0,64,127,,
2280,note_on,0,0,1,,,,,,,,,,,,,,,0,,,73,65
2280,note_on,120,0,1,,,,,,,,,,,,,,,0,,,72,0
2297,control_change,117,0,2,,,,,,,,,,,,,,,0,64,0,,
2340,note_on,0,0,1,,,,,,,,,,,,,,,0,,,68,0
2340,note_on,0,0,1,,,,,,,,,,,,,,,0,,,63,0
2340,note_on,60,0,1,,,,,,,,,,,,,,,0,,,73,0
2340,note_on,0,0,2,,,,,,,,,,,,,,,0,,,59,0
2340,note_on,0,0,2,,,,,,,,,,,,,,,0,,,51,0
2340,note_on,43,0,2,,,,,,,,,,,,,,,0,,,56,0
2360,set_tempo,200,1,0,,,,,,,,,,,,456621,,,,,,,
2400,note_on,60,0,1,,,,,,,,,,,,,,,0,,,63,65
2400,note_on,0,0,1,,,,,,,,,,,,,,,0,,,73,77
2400,note_on,60,0,2,,,,,,,,,,,,,,,0,,,32,45
2400,note_on,0,0,1,,,,,,,,,,,,,,,0,,,68,65
2400,note_on,0,0,2,,,,,,,,,,,,,,,0,,,44,54
2429,control_change,29,0,2,,,,,,,,,,,,,,,0,64,127,,
2440,set_tempo,80,1,0,,,,,,,,,,,,458435,,,,,,,
2460,note_on,31,0,2,,,,,,,,,,,,,,,0,,,44,0
2460,note_on,0,0,2,,,,,,,,,,,,,,,0,,,32,0
2480,set_tempo,40,1,0,,,,,,,,,,,,460193,,,,,,,
2520,note_on,120,0,1,,,,,,,,,,,,,,,0,,,73,0
2520,note_on,0,0,1,,,,,,,,,,,,,,,0,,,74,66
2580,note_on,60,0,1,,,,,,,,,,,,,,,0,,,74,0
2580,note_on,0,0,1,,,,,,,,,,,,,,,0,,,68,0
2580,note_on,0,0,1,,,,,,,,,,,,,,,0,,,63,0
2583,control_change,123,0,2,,,,,,,,,,,,,,,0,64,0,,
2640,note_on,60,0,1,,,,,,,,,,,,,,,0,,,63,66
2640,set_tempo,160,1,0,,,,,,,,,,,,469373,,,,,,,
2640,note_on,57,0,2,,,,,,,,,,,,,,,0,,,51,55
2640,note_on,0,0,2,,,,,,,,,,,,,,,0,,,39,46
2640,note_on,0,0,1,,,,,,,,,,,,,,,0,,,74,79
2640,note_on,0,0,1,,,,,,,,,,,,,,,0,,,68,66
2663,control_change,23,0,2,,,,,,,,,,,,,,,0,64,127,,
2700,note_on,0,0,2,,,,,,,,,,,,,,,0,,,51,0
2700,note_on,37,0,2,,,,,,,,,,,,,,,0,,,39,0
2760,set_tempo,120,1,0,,,,,,,,,,,,503482,,,,,,,
2760,note_on,120,0,1,,,,,,,,,,,,,,,0,,,74,0
2760,note_on,0,0,1,,,,,,,,,,,,,,,0,,,75,68
2786,control_change,86,0,2,,,,,,,,,,,,,,,0,64,0,,
2820,note_on,0,0,1,,,,,,,,,,,,,,,0,,,68,0
2820,note_on,0,0,1,,,,,,,,,,,,,,,0,,,63,0
2820,note_on,60,0,1,,,,,,,,,,,,,,,0,,,75,0
2880,note_on,60,0,1,,,,,,,,,,,,,,,0,,,63,68
2880,note_on,0,0,1,,,,,,,,,,,,,,,0,,,70,68
2880,note_on,0,0,1,,,,,,,,,,,,,,,0,,,75,81
2880,note_on,0,0,2,,,,,,,,,,,,,,,0,,,58,56
2880,note_on,94,0,2,,,,,,,,,,,,,,,0,,,51,47
2880,set_tempo,120,1,0,,,,,,,,,,,,462000,,,,,,,
2905,control_change,25,0,2,,,,,,,,,,,,,,,0,64,127,,
2940,note_on,0,0,2,,,,,,,,,,,,,,,0,,,51,0
2940,note_on,35,0,2,,,,,,,,,,,,,,,0,,,58,0
3000,set_tempo,120,1,0,,,,,,,,,,,,469373,,,,,,,
3000,note_on,0,0,1,,,,,,,,,,,,,,,0,,,76,77
3000,note_on,120,0,1,,,,,,,,,,,,,,,0,,,75,0
3060,note_on,0,0,1,,,,,,,,,,,,,,,0,,,70,0
3060,note_on,0,0,1,,,,,,,,,,,,,,,0,,,63,0
3060,note_on,60,0,1,,,,,,,,,,,,,,,0,,,76,0
3120,note_on,0,0,1,,,,,,,,,,,,,,,0,,,76,82
3120,set_tempo,120,1,0,,,,,,,,,,,,454856,,,,,,,
3120,note_on,60,0,1,,,,,,,,,,,,,,,0,,,70,69
3120,note_on,0,0,2,,,,,,,,,,,,,,,0,,,51,57
3120,note_on,180,0,2,,,,,,,,,,,,,,,0,,,43,48
3120,control_change,0,0,2,,,,,,,,,,,,,,,0,64,0,,
3155,control_change,35,0,2,,,,,,,,,,,,,,,0,64,127,,
3180,note_on,25,0,2,,,,,,,,,,,,,,,0,,,51,0
3180,note_on,0,0,2,,,,,,,,,,,,,,,0,,,43,0
3240,note_on,0,0,1,,,,,,,,,,,,,,,0,,,75,78
3240,note_on,120,0,1,,,,,,,,,,,,,,,0,,,76,0
3300,note_on,0,0,1,,,,,,,,,,,,,,,0,,,70,0
3300,note_on,60,0,1,,,,,,,,,,,,,,,0,,,75,0
3360,note_on,0,0,1,,,,,,,,,,,,,,,0,,,75,84
3360,note_on,60,0,1,,,,,,,,,,,,,,,0,,,63,70
3360,note_on,0,0,1,,,,,,,,,,,,,,,0,,,70,70
3360,note_on,180,0,2,,,,,,,,,,,,,,,0,,,51,50
3360,set_tempo,240,1,0,,,,,,,,,,,,467472,,,,,,,
3360,note_on,0,0,2,,,,,,,,,,,,,,,0,,,58,59
3366,control_change,6,0,2,,,,,,,,,,,,,,,0,64,0,,
3399,control_change,33,0,2,,,,,,,,,,,,,,,0,64,127,,
3420,note_on,21,0,2,,,,,,,,,,,,,,,0,,,58,0
3420,note_on,0,0,2,,,,,,,,,,,,,,,0,,,51,0
3480,note_on,0,0,1,,,,,,,,,,,,,,,0,,,73,84
3480,note_on,120,0,1,,,,,,,,,,,,,,,0,,,75,0
3540,note_on,0,0,1,,,,,,,,,,,,,,,0,,,70,0
3540,note_on,60,0,1,,,,,,,,,,,,,,,0,,,73,0
3540,note_on,0,0,1,,,,,,,,,,,,,,,0,,,63,0
3600,note_on,60,0,1,,,,,,,,,,,,,,,0,,,63,69
3600,note_on,0,0,2,,,,,,,,,,,,,,,0,,,51,56
3600,set_tempo,240,1,0,,,,,,,,,,,,471254,,,,,,,
3600,control_change,180,0,2,,,,,,,,,,,,,,,0,64,0,,
3600,note_on,0,0,1,,,,,,,,,,,,,,,0,,,73,82
3600,note_on,0,0,2,,,,,,,,,,,,,,,0,,,44,47
3600,note_on,0,0,1,,,,,,,,,,,,,,,0,,,68,69
3635,control_change,35,0,2,,,,,,,,,,,,,,,0,64,127,,
3660,note_on,25,0,2,,,,,,,,,,,,,,,0,,,51,0
3660,note_on,0,0,2,,,,,,,,,,,,,,,0,,,44,0
3720,note_on,120,0,1,,,,,,,,,,,,,,,0,,,73,0
3720,note_on,0,0,1,,,,,,,,,,,,,,,0,,,71,79
3780,note_on,60,0,1,,,,,,,,,,,,,,,0,,,71,0
3780,note_on,0,0,1,,,,,,,,,,,,,,,0,,,68,0
3780,note_on,0,0,1,,,,,,,,,,,,,,,0,,,63,0
3822,control_change,162,0,2,,,,,,,,,,,,,,,0,64,0,,
3840,note_on,0,0,2,,,,,,,,,,,,,,,0,,,51,48
3840,note_on,18,0,2,,,,,,,,,,,,,,,0,,,59,57
3840,note_on,0,0,1,,,,,,,,,,,,,,,0,,,71,83
3840,note_on,0,0,1,,,,,,,,,,,,,,,0,,,68,70
3840,note_on,60,0,1,,,,,,,,,,,,,,,0,,,63,70
3840,set_tempo,240,1,0,,,,,,,,,,,,463822,,,,,,,
3865,control_change,25,0,2,,,,,,,,,,,,,,,0,64,127,,
3900,note_on,0,0,2,,,,,,,,,,,,,,,0,,,59,0
3900,note_on,35,0,2,,,,,,,,,,,,,,,0,,,51,0
3960,note_on,120,0,1,,,,,,,,,,,,,,,0,,,71,0
3960,note_on,0,0,1,,,,,,,,,,,,,,,0,,,73,79
4020,note_on,0,0,1,,,,,,,,,,,,,,,0,,,63,0
4020,note_on,60,0,1,,,,,,,,,,,,,,,0,,,73,0
4020,note_on,0,0,1,,,,,,,,,,,,,,,0,,,68,0
4080,note_on,0,0,2,,,,,,,,,,,,,,,0,,,44,50
4080,control_change,180,0,2,,,,,,,,,,,,,,,0,64,0,,
4080,note_on,0,0,2,,,,,,,,,,,,,,,0,,,51,59
4080,note_on,60,0,1,,,,,,,,,,,,,,,0,,,63,72
4080,note_on,0,0,1,,,,,,,,,,,,,,,0,,,68,72
4080,note_on,0,0,1,,,,,,,,,,,,,,,0,,,73,85
4126,control_change,46,0,2,,,,,,,,,,,,,,,0,64,127,,
4140,note_on,14,0,2,,,,,,,,,,,,,,,0,,,51,0
4140,note_on,0,0,2,,,,,,,,,,,,,,,0,,,44,0
4200,note_on,120,0,1,,,,,,,,,,,,,,,0,,,73,0
4200,note_on,0,0,1,,,,,,,,,,,,,,,0,,,75,86
4260,note_on,0,0,1,,,,,,,,,,,,,,,0,,,63,0
4260,note_on,0,0,1,,,,,,,,,,,,,,,0,,,68,0
4260,note_on,60,0,1,,,,,,,,,,,,,,,0,,,75,0
4281,control_change,141,0,2,,,,,,,,,,,,,,,0,64,0,,
4320,set_tempo,480,1,0,,,,,,,,,,,,467472,,,,,,,
4320,note_on,0,0,1,,,,,,,,,,,,,,,0,,,68,73
4320,note_on,0,0,1,,,,,,,,,,,,,,,0,,,75,87
4320,note_on,39,0,2,,,,,,,,,,,,,,,0,,,56,60
4320,note_on,60,0,1,,,,,,,,,,,,,,,0,,,64,73
4320,note_on,0,0,2,,,,,,,,,,,,,,,0,,,49,50
4362,control_change,42,0,2,,,,,,,,,,,,,,,0,64,127,,
4380,note_on,18,0,2,,,,,,,,,,,,,,,0,,,49,0
4380,note_on,0,0,2,,,,,,,,,,,,,,,0,,,56,0
4440,note_on,0,0,1,,,,,,,,,,,,,,,0,,,73,86
4440,note_on,120,0,1,,,,,,,,,,,,,,,0,,,75,0
4500,note_on,0,0,1,,,,,,,,,,,,,,,0,,,68,0
4500,note_on,60,0,1,,,,,,,,,,,,,,,0,,,73,0
4500,note_on,0,0,1,,,,,,,,,,,,,,,0,,,64,0
4546,control_change,166,0,2,,,,,,,,,,,,,,,0,64,0,,
4560,note_on,0,0,1,,,,,,,,,,,,,,,0,,,73,84
4560,note_on,0,0,1,,,,,,,,,,,,,,,0,,,68,71
4560,note_on,60,0,1,,,,,,,,,,,,,,,0,,,64,71
4560,note_on,0,0,2,,,,,,,,,,,,,,,0,,,49,58
4560,note_on,14,0,2,,,,,,,,,,,,,,,0,,,37,49
4588,control_change,28,0,2,,,,,,,,,,,,,,,0,64,127,,
4620,note_on,0,0,2,,,,,,,,,,,,,,,0,,,37,0
4620,note_on,32,0,2,,,,,,,,,,,,,,,0,,,49,0
4680,note_on,120,0,1,,,,,,,,,,,,,,,0,,,73,0
4680,note_on,0,0,1,,,,,,,,,,,,,,,0,,,71,83
4740,note_on,0,0,1,,,,,,,,,,,,,,,0,,,68,0
4740,note_on,0,0,1,,,,,,,,,,,,,,,0,,,64,0
4740,note_on,60,0,1,,,,,,,,,,,,,,,0,,,71,0
4782,control_change,162,0,2,,,,,,,,,,,,,,,0,64,0,,
4800,note_on,0,0,1,,,,,,,,,,,,,,,0,,,64,68
4800,note_on,0,0,2,,,,,,,,,,,,,,,0,,,56,56
4800,note_on,18,0,2,,,,,,,,,,,,,,,0,,,49,47
4800,note_on,60,0,1,,,,,,,,,,,,,,,0,,,61,68
4800,note_on,0,0,1,,,,,,,,,,,,,,,0,,,71,81
4800,set_tempo,480,1,0,,,,,,,,,,,,478927,,,,,,,
4828,control_change,28,0,2,,,,,,,,,,,,,,,0,64,127,,
4860,note_on,0,0,2,,,,,,,,,,,,,,,0,,,49,0
4860,note_on,32,0,2,,,,,,,,,,,,,,,0,,,56,0
4920,note_on,120,0,1,,,,,,,,,,,,,,,0,,,71,0
4920,note_on,0,0,1,,,,,,,,,,,,,,,0,,,70,80
4980,note_on,60,0,1,,,,,,,,,,,,,,,0,,,70,0
4980,note_on,0,0,1,,,,,,,,,,,,,,,0,,,64,0
4980,note_on,0,0,1,,,,,,,,,,,,,,,0,,,61,0
5040,set_tempo,240,1,0,,,,,,,,,,,,473149,,,,,,,
5040,note_on,0,0,2,,,,,,,,,,,,,,,0,,,55,54
5040,note_on,60,0,1,,,,,,,,,,,,,,,0,,,61,84
5040,note_on,0,0,2,,,,,,,,,,,,,,,0,,,51,45
5040,control_change,180,0,2,,,,,,,,,,,,,,,0,64,0,,
5080,control_change,40,0,2,,,,,,,,,,,,,,,0,64,127,,
5100,note_on,0,0,2,,,,,,,,,,,,,,,0,,,51,0
5100,note_on,20,0,2,,,,,,,,,,,,,,,0,,,55,0
5160,note_on,120,0,1,,,,,,,,,,,,,,,0,,,71,76
5240,set_tempo,200,1,0,,,,,,,,,,,,471254,,,,,,,
5274,control_change,174,0,2,,,,,,,,,,,,,,,0,64,0,,
5280,note_on,0,0,1,,,,,,,,,,,,,,,0,,,61,64
5280,note_on,0,0,1,,,,,,,,,,,,,,,0,,,71,77
5280,note_on,0,0,1,,,,,,,,,,,,,,,0,,,61,0
5280,note_on,120,0,1,,,,,,,,,,,,,,,0,,,71,0
5280,note_on,6,0,2,,,,,,,,,,,,,,,0,,,39,45
5280,note_on,0,0,2,,,,,,,,,,,,,,,0,,,51,54
5320,set_tempo,80,1,0,,,,,,,,,,,,473149,,,,,,,
5337,control_change,57,0,2,,,,,,,,,,,,,,,0,64,127,,
5340,note_on,0,0,2,,,,,,,,,,,,,,,0,,,39,0
5340,note_on,3,0,2,,,,,,,,,,,,,,,0,,,51,0
5400,note_on,0,0,1,,,,,,,,,,,,,,,0,,,70,75
5400,note_on,120,0,1,,,,,,,,,,,,,,,0,,,71,0
5400,set_tempo,80,1,0,,,,,,,,,,,,475059,,,,,,,
5440,set_tempo,40,1,0,,,,,,,,,,,,476948,,,,,,,
5520,set_tempo,80,1,0,,,,,,,,,,,,480846,,,,,,,
5520,note_on,0,0,1,,,,,,,,,,,,,,,0,,,61,61
5520,note_on,0,0,1,,,,,,,,,,,,,,,0,,,70,73
5520,note_on,0,0,1,,,,,,,,,,,,,,,0,,,61,0
5520,note_on,120,0,1,,,,,,,,,,,,,,,0,,,70,0
5520,note_on,180,0,2,,,,,,,,,,,,,,,0,,,51,43
5520,note_on,0,0,2,,,,,,,,,,,,,,,0,,,55,51
5529,control_change,9,0,2,,,,,,,,,,,,,,,0,64,0,,
5540,set_tempo,20,1,0,,,,,,,,,,,,484809,,,,,,,
5549,control_change,20,0,2,,,,,,,,,,,,,,,0,64,127,,
5560,set_tempo,20,1,0,,,,,,,,,,,,488838,,,,,,,
5580,note_on,31,0,2,,,,,,,,,,,,,,,0,,,55,0
5580,set_tempo,20,1,0,,,,,,,,,,,,495009,,,,,,,
5580,note_on,0,0,2,,,,,,,,,,,,,,,0,,,51,0
5600,set_tempo,20,1,0,,,,,,,,,,,,499168,,,,,,,
5620,set_tempo,20,1,0,,,,,,,,,,,,503482,,,,,,,
5640,note_on,120,0,1,,,,,,,,,,,,,,,0,,,70,0
5640,note_on,0,0,1,,,,,,,,,,,,,,,0,,,63,72
5660,set_tempo,40,1,0,,,,,,,,,,,,514447,,,,,,,
5717,control_change,137,0,2,,,,,,,,,,,,,,,0,64,0,,
5760,note_on,0,0,1,,,,,,,,,,,,,,,0,,,61,0
5760,note_on,0,0,1,,,,,,,,,,,,,,,0,,,59,59
5760,note_on,0,0,1,,,,,,,,,,,,,,,0,,,63,70
5760,note_on,0,0,2,,,,,,,,,,,,,,,0,,,56,59
5760,note_on,0,0,2,,,,,,,,,,,,,,,0,,,51,49
5760,note_on,43,0,2,,,,,,,,,,,,,,,0,,,44,49
5760,set_tempo,100,1,0,,,,,,,,,,,,478927,,,,,,,
5760,note_on,120,0,1,,,,,,,,,,,,,,,0,,,63,0
5791,control_change,31,0,2,,,,,,,,,,,,,,,0,64,127,,
5871,control_change,80,0,2,,,,,,,,,,,,,,,0,64,0,,
5880,note_on,120,0,1,,,,,,,,,,,,,,,0,,,63,0
5880,note_on,0,0,1,,,,,,,,,,,,,,,0,,,64,59
5940,note_on,0,0,1,,,,,,,,,,,,,,,0,,,59,0
5940,note_on,60,0,1,,,,,,,,,,,,,,,0,,,64,0
5940,note_on,69,0,2,,,,,,,,,,,,,,,0,,,56,0
5940,note_on,0,0,2,,,,,,,,,,,,,,,0,,,51,0
5940,note_on,0,0,2,,,,,,,,,,,,,,,0,,,44,0
6000,note_on,60,0,2,,,,,,,,,,,,,,,0,,,32,41
6000,note_on,0,0,2,,,,,,,,,,,,,,,0,,,44,49
6000,set_tempo,240,1,0,,,,,,,,,,,,471254,,,,,,,
6000,note_on,60,0,1,,,,,,,,,,,,,,,0,,,59,59
6000,note_on,0,0,1,,,,,,,,,,,,,,,0,,,64,70
6014,control_change,14,0,2,,,,,,,,,,,,,,,0,64,127,,
6060,note_on,46,0,2,,,,,,,,,,,,,,,0,,,44,0
6060,note_on,0,0,2,,,,,,,,,,,,,,,0,,,32,0
6120,note_on,0,0,1,,,,,,,,,,,,,,,0,,,65,59
6120,note_on,120,0,1,,,,,,,,,,,,,,,0,,,64,0
6131,control_change,71,0,2,,,,,,,,,,,,,,,0,64,0,,
6180,note_on,0,0,1,,,,,,,,,,,,,,,0,,,59,0
6180,note_on,60,0,1,,,,,,,,,,,,,,,0,,,65,0
6240,note_on,0,0,2,,,,,,,,,,,,,,,0,,,51,49
6240,note_on,0,0,1,,,,,,,,,,,,,,,0,,,65,70
6240,note_on,60,0,1,,,,,,,,,,,,,,,0,,,59,59
6240,note_on,109,0,2,,,,,,,,,,,,,,,0,,,39,41
6240,set_tempo,240,1,0,,,,,,,,,,,,482820,,,,,,,
6240,note_on,0,0,1,,,,,,,,,,,,,,,0,,,63,59
6263,control_change,23,0,2,,,,,,,,,,,,,,,0,64,127,,
6300,note_on,37,0,2,,,,,,,,,,,,,,,0,,,51,0
6300,note_on,0,0,2,,,,,,,,,,,,,,,0,,,39,0
6343,control_change,43,0,2,,,,,,,,,,,,,,,0,64,0,,
6360,set_tempo,120,1,0,,,,,,,,,,,,471254,,,,,,,
6360,note_on,0,0,1,,,,,,,,,,,,,,,0,,,66,59
6360,note_on,120,0,1,,,,,,,,,,,,,,,0,,,65,0
6420,note_on,0,0,1,,,,,,,,,,,,,,,0,,,63,0
6420,note_on,0,0,1,,,,,,,,,,,,,,,0,,,59,0
6420,note_on,60,0,1,,,,,,,,,,,,,,,0,,,66,0
6480,note_on,0,0,1,,,,,,,,,,,,,,,0,,,66,70
6480,set_tempo,120,1,0,,,,,,,,,,,,465658,,,,,,,
6480,note_on,60,0,1,,,,,,,,,,,,,,,0,,,59,59
6480,note_on,0,0,1,,,,,,,,,,,,,,,0,,,63,59
6480,note_on,137,0,2,,,,,,,,,,,,,,,0,,,44,49
6480,note_on,0,0,2,,,,,,,,,,,,,,,0,,,51,49
6480,note_on,0,0,2,,,,,,,,,,,,,,,0,,,56,59
6497,control_change,17,0,2,,,,,,,,,,,,,,,0,64,127,,
6586,control_change,89,0,2,,,,,,,,,,,,,,,0,64,0,,
6600,note_on,120,0,1,,,,,,,,,,,,,,,0,,,66,0
6600,note_on,0,0,1,,,,,,,,,,,,,,,0,,,67,59
6660,note_on,0,0,2,,,,,,,,,,,,,,,0,,,51,0
6660,note_on,0,0,2,,,,,,,,,,,,,,,0,,,44,0
6660,note_on,74,0,2,,,,,,,,,,,,,,,0,,,56,0
6660,note_on,60,0,1,,,,,,,,,,,,,,,0,,,67,0
6660,note_on,0,0,1,,,,,,,,,,,,,,,0,,,63,0
6660,note_on,0,0,1,,,,,,,,,,,,,,,0,,,59,0
6720,note_on,0,0,1,,,,,,,,,,,,,,,0,,,67,70
6720,note_on,60,0,2,,,,,,,,,,,,,,,0,,,44,49
6720,note_on,0,0,2,,,,,,,,,,,,,,,0,,,32,41
6720,note_on,0,0,1,,,,,,,,,,,,,,,0,,,63,59
6720,note_on,60,0,1,,,,,,,,,,,,,,,0,,,59,59
6760,control_change,40,0,2,,,,,,,,,,,,,,,0,64,127,,
6780,note_on,0,0,2,,,,,,,,,,,,,,,0,,,44,0
6780,note_on,20,0,2,,,,,,,,,,,,,,,0,,,32,0
6837,control_change,57,0,2,,,,,,,,,,,,,,,0,64,0,,
6840,note_on,120,0,1,,,,,,,,,,,,,,,0,,,67,0
6840,note_on,0,0,1,,,,,,,,,,,,,,,0,,,68,59
6900,note_on,0,0,1,,,,,,,,,,,,,,,0,,,59,0
6900,note_on,0,0,1,,,,,,,,,,,,,,,0,,,63,0
6900,note_on,60,0,1,,,,,,,,,,,,,,,0,,,68,0
6960,note_on,0,0,1,,,,,,,,,,,,,,,0,,,63,59
6960,set_tempo,480,1,0,,,,,,,,,,,,473149,,,,,,,
6960,note_on,0,0,1,,,,,,,,,,,,,,,0,,,68,70
6960,note_on,60,0,1,,,,,,,,,,,,,,,0,,,59,59
6960,note_on,0,0,2,,,,,,,,,,,,,,,0,,,51,49
6960,note_on,123,0,2,,,,,,,,,,,,,,,0,,,39,41
6997,control_change,37,0,2,,,,,,,,,,,,,,,0,64,127,,
7020,note_on,23,0,2,,,,,,,,,,,,,,,0,,,51,0
7020,note_on,0,0,2,,,,,,,,,,,,,,,0,,,39,0
7080,note_on,120,0,1,,,,,,,,,,,,,,,0,,,68,0
7080,note_on,0,0,1,,,,,,,,,,,,,,,0,,,69,59
7111,control_change,91,0,2,,,,,,,,,,,,,,,0,64,0,,
7140,note_on,0,0,1,,,,,,,,,,,,,,,0,,,59,0
7140,note_on,60,0,1,,,,,,,,,,,,,,,0,,,69,0
7140,note_on,0,0,1,,,,,,,,,,,,,,,0,,,63,0
7200,note_on,0,0,1,,,,,,,,,,,,,,,0,,,64,60
7200,note_on,60,0,1,,,,,,,,,,,,,,,0,,,59,60
7200,note_on,89,0,2,,,,,,,,,,,,,,,0,,,43,49
7200,note_on,0,0,2,,,,,,,,,,,,,,,0,,,52,49
7200,note_on,0,0,1,,,,,,,,,,,,,,,0,,,69,71
7200,note_on,0,0,2,,,,,,,,,,,,,,,0,,,55,59
7200,set_tempo,240,1,0,,,,,,,,,,,,465658,,,,,,,
7237,control_change,37,0,2,,,,,,,,,,,,,,,0,64,127,,
7320,note_on,120,0,1,,,,,,,,,,,,,,,0,,,69,0
7320,note_on,0,0,1,,,,,,,,,,,,,,,0,,,70,61
7343,control_change,106,0,2,,,,,,,,,,,,,,,0,64,0,,
7380,note_on,37,0,2,,,,,,,,,,,,,,,0,,,55,0
7380,note_on,60,0,1,,,,,,,,,,,,,,,0,,,70,0
7380,note_on,0,0,1,,,,,,,,,,,,,,,0,,,64,0
7380,note_on,0,0,2,,,,,,,,,,,,,,,0,,,43,0
7380,note_on,0,0,1,,,,,,,,,,,,,,,0,,,59,0
7380,note_on,0,0,2,,,,,,,,,,,,,,,0,,,52,0
7440,note_on,0,0,2,,,,,,,,,,,,,,,0,,,31,43
7440,note_on,60,0,2,,,,,,,,,,,,,,,0,,,43,51
7440,note_on,0,0,1,,,,,,,,,,,,,,,0,,,70,72
7440,note_on,0,0,1,,,,,,,,,,,,,,,0,,,64,61
7440,note_on,60,0,1,,,,,,,,,,,,,,,0,,,59,61
7469,control_change,29,0,2,,,,,,,,,,,,,,,0,64,127,,
7500,note_on,0,0,2,,,,,,,,,,,,,,,0,,,43,0
7500,note_on,31,0,2,,,,,,,,,,,,,,,0,,,31,0
7560,note_on,120,0,1,,,,,,,,,,,,,,,0,,,70,0
7560,note_on,0,0,1,,,,,,,,,,,,,,,0,,,71,62
7614,control_change,114,0,2,,,,,,,,,,,,,,,0,64,0,,
7620,note_on,0,0,1,,,,,,,,,,,,,,,0,,,59,0
7620,note_on,0,0,1,,,,,,,,,,,,,,,0,,,64,0
7620,note_on,60,0,1,,,,,,,,,,,,,,,0,,,71,0
7680,note_on,0,0,1,,,,,,,,,,,,,,,0,,,64,74
7680,note_on,0,0,1,,,,,,,,,,,,,,,0,,,71,74
7680,set_tempo,480,1,0,,,,,,,,,,,,465658,,,,,,,
7680,note_on,0,0,2,,,,,,,,,,,,,,,0,,,52,52
7680,note_on,66,0,2,,,,,,,,,,,,,,,0,,,40,44
7680,note_on,60,0,1,,,,,,,,,,,,,,,0,,,59,62
7714,control_change,34,0,2,,,,,,,,,,,,,,,0,64,127,,
7740,note_on,0,0,2,,,,,,,,,,,,,,,0,,,40,0
7740,note_on,26,0,2,,,,,,,,,,,,,,,0,,,52,0
7800,note_on,0,0,1,,,,,,,,,,,,,,,0,,,72,64
7800,note_on,120,0,1,,,,,,,,,,,,,,,0,,,71,0
7831,control_change,91,0,2,,,,,,,,,,,,,,,0,64,0,,
7860,note_on,60,0,1,,,,,,,,,,,,,,,0,,,72,0
7860,note_on,0,0,1,,,,,,,,,,,,,,,0,,,59,0
7860,note_on,0,0,1,,,,,,,,,,,,,,,0,,,64,0
7920,set_tempo,240,1,0,,,,,,,,,,,,463822,,,,,,,
7920,note_on,60,0,1,,,,,,,,,,,,,,,0,,,65,65
7920,note_on,0,0,1,,,,,,,,,,,,,,,0,,,72,77
7920,note_on,89,0,2,,,,,,,,,,,,,,,0,,,55,55
7920,note_on,0,0,2,,,,,,,,,,,,,,,0,,,50,55
7920,note_on,0,0,2,,,,,,,,,,,,,,,0,,,59,64
7940,control_change,20,0,2,,,,,,,,,,,,,,,0,64,127,,
8040,note_on,120,0,1,,,,,,,,,,,,,,,0,,,72,0
8040,note_on,0,0,1,,,,,,,,,,,,,,,0,,,73,72
8060,control_change,120,0,2,,,,,,,,,,,,,,,0,64,0,,
8100,note_on,0,0,2,,,,,,,,,,,,,,,0,,,55,0
8100,note_on,40,0,2,,,,,,,,,,,,,,,0,,,59,0
8100,note_on,0,0,1,,,,,,,,,,,,,,,0,,,65,0
8100,note_on,0,0,2,,,,,,,,,,,,,,,0,,,50,0
8100,note_on,60,0,1,,,,,,,,,,,,,,,0,,,73,0
8120,set_tempo,200,1,0,,,,,,,,,,,,456621,,,,,,,
8160,note_on,60,0,1,,,,,,,,,,,,,,,0,,,65,66
8160,note_on,0,0,2,,,,,,,,,,,,,,,0,,,43,55
8160,note_on,60,0,2,,,,,,,,,,,,,,,0,,,31,46
8160,note_on,0,0,1,,,,,,,,,,,,,,,0,,,73,79
8189,control_change,29,0,2,,,,,,,,,,,,,,,0,64,127,,
8200,set_tempo,80,1,0,,,,,,,,,,,,458435,,,,,,,
8220,note_on,0,0,2,,,,,,,,,,,,,,,0,,,31,0
8220,note_on,31,0,2,,,,,,,,,,,,,,,0,,,43,0
8240,set_tempo,40,1,0,,,,,,,,,,,,460193,,,,,,,
8280,note_on,120,0,1,,,,,,,,,,,,,,,0,,,73,0
8280,note_on,0,0,1,,,,,,,,,,,,,,,0,,,74,73
8294,control_change,74,0,2,,,,,,,,,,,,,,,0,64,0,,
8340,note_on,60,0,1,,,,,,,,,,,,,,,0,,,74,0
8340,note_on,0,0,1,,,,,,,,,,,,,,,0,,,65,0
8400,note_on,60,0,1,,,,,,,,,,,,,,,0,,,65,68
8400,set_tempo,160,1,0,,,,,,,,,,,,469373,,,,,,,
8400,note_on,106,0,2,,,,,,,,,,,,,,,0,,,43,48
8400,note_on,0,0,1,,,,,,,,,,,,,,,0,,,71,82
8400,note_on,0,0,2,,,,,,,,,,,,,,,0,,,55,57
8423,control_change,23,0,2,,,,,,,,,,,,,,,0,64,127,,
8460,note_on,37,0,2,,,,,,,,,,,,,,,0,,,55,0
8460,note_on,0,0,2,,,,,,,,,,,,,,,0,,,43,0
8520,note_on,120,0,1,,,,,,,,,,,,,,,0,,,74,76
8540,set_tempo,140,1,0,,,,,,,,,,,,499168,,,,,,,
8554,control_change,94,0,2,,,,,,,,,,,,,,,0,64,0,,
8580,note_on,0,0,1,,,,,,,,,,,,,,,0,,,71,0
8580,note_on,0,0,1,,,,,,,,,,,,,,,0,,,65,0
8580,note_on,60,0,1,,,,,,,,,,,,,,,0,,,74,0
8640,set_tempo,100,1,0,,,,,,,,,,,,463822,,,,,,,
8640,note_on,60,0,1,,,,,,,,,,,,,,,0,,,66,76
8640,note_on,0,0,1,,,,,,,,,,,,,,,0,,,71,76
8640,note_on,0,0,2,,,,,,,,,,,,,,,0,,,42,51
8640,note_on,0,0,1,,,,,,,,,,,,,,,0,,,75,90
8640,note_on,86,0,2,,,,,,,,,,,,,,,0,,,54,61
8665,control_change,25,0,2,,,,,,,,,,,,,,,0,64,127,,
8700,note_on,35,0,2,,,,,,,,,,,,,,,0,,,42,0
8700,note_on,0,0,2,,,,,,,,,,,,,,,0,,,54,0
8760,set_tempo,120,1,0,,,,,,,,,,,,478927,,,,,,,
8760,note_on,120,0,1,,,,,,,,,,,,,,,0,,,75,0
8760,note_on,0,0,1,,,,,,,,,,,,,,,0,,,76,85
8820,note_on,60,0,1,,,,,,,,,,,,,,,0,,,76,0
8820,note_on,0,0,1,,,,,,,,,,,,,,,0,,,71,0
8820,note_on,0,0,1,,,,,,,,,,,,,,,0,,,66,0
8873,control_change,173,0,2,,,,,,,,,,,,,,,0,64,0,,
8880,set_tempo,120,1,0,,,,,,,,,,,,467472,,,,,,,
8880,note_on,7,0,2,,,,,,,,,,,,,,,0,,,54,50
8880,note_on,0,0,1,,,,,,,,,,,,,,,0,,,76,89
8880,note_on,0,0,2,,,,,,,,,,,,,,,0,,,63,60
8880,note_on,60,0,1,,,,,,,,,,,,,,,0,,,66,75
8880,note_on,0,0,1,,,,,,,,,,,,,,,0,,,71,75
8915,control_change,35,0,2,,,,,,,,,,,,,,,0,64,127,,
8940,note_on,25,0,2,,,,,,,,,,,,,,,0,,,63,0
8940,note_on,0,0,2,,,,,,,,,,,,,,,0,,,54,0
9000,note_on,120,0,1,,,,,,,,,,,,,,,0,,,76,0
9000,note_on,0,0,1,,,,,,,,,,,,,,,0,,,75,87
9060,note_on,0,0,1,,,,,,,,,,,,,,,0,,,71,0
9060,note_on,60,0,1,,,,,,,,,,,,,,,0,,,75,0
9060,note_on,0,0,1,,,,,,,,,,,,,,,0,,,66,0
9120,control_change,0,0,2,,,,,,,,,,,,,,,0,64,0,,
9120,note_on,60,0,1,,,,,,,,,,,,,,,0,,,66,76
9120,set_tempo,240,1,0,,,,,,,,,,,,467472,,,,,,,
9120,note_on,0,0,1,,,,,,,,,,,,,,,0,,,75,90
9120,note_on,0,0,2,,,,,,,,,,,,,,,0,,,42,51
9120,note_on,180,0,2,,,,,,,,,,,,,,,0,,,54,61
9120,note_on,0,0,1,,,,,,,,,,,,,,,0,,,71,76
9159,control_change,39,0,2,,,,,,,,,,,,,,,0,64,127,,
9180,note_on,21,0,2,,,,,,,,,,,,,,,0,,,42,0
9180,note_on,0,0,2,,,,,,,,,,,,,,,0,,,54,0
9240,note_on,0,0,1,,,,,,,,,,,,,,,0,,,78,88
9240,note_on,120,0,1,,,,,,,,,,,,,,,0,,,75,0
9300,note_on,0,0,1,,,,,,,,,,,,,,,0,,,66,0
9300,note_on,0,0,1,,,,,,,,,,,,,,,0,,,71,0
9300,note_on,60,0,1,,,,,,,,,,,,,,,0,,,78,0
9360,note_on,0,0,2,,,,,,,,,,,,,,,0,,,54,51
9360,control_change,180,0,2,,,,,,,,,,,,,,,0,64,0,,
9360,set_tempo,240,1,0,,,,,,,,,,,,460193,,,,,,,
9360,note_on,0,0,1,,,,,,,,,,,,,,,0,,,78,90
9360,note_on,0,0,1,,,,,,,,,,,,,,,0,,,70,76
9360,note_on,60,0,1,,,,,,,,,,,,,,,0,,,66,76
9360,note_on,0,0,2,,,,,,,,,,,,,,,0,,,64,61
9392,control_change,32,0,2,,,,,,,,,,,,,,,0,64,127,,
9420,note_on,28,0,2,,,,,,,,,,,,,,,0,,,64,0
9420,note_on,0,0,2,,,,,,,,,,,,,,,0,,,54,0
9480,note_on,0,0,1,,,,,,,,,,,,,,,0,,,73,85
9480,note_on,120,0,1,,,,,,,,,,,,,,,0,,,78,0
9540,note_on,0,0,1,,,,,,,,,,,,,,,0,,,66,0
9540,note_on,0,0,1,,,,,,,,,,,,,,,0,,,70,0
9540,note_on,60,0,1,,,,,,,,,,,,,,,0,,,73,0
9600,control_change,0,0,2,,,,,,,,,,,,,,,0,64,0,,
9600,note_on,0,0,1,,,,,,,,,,,,,,,0,,,73,89
9600,note_on,0,0,1,,,,,,,,,,,,,,,0,,,70,75
9600,note_on,60,0,1,,,,,,,,,,,,,,,0,,,66,75
9600,set_tempo,240,1,0,,,,,,,,,,,,454856,,,,,,,
9600,note_on,180,0,2,,,,,,,,,,,,,,,0,,,42,50
9600,note_on,0,0,2,,,,,,,,,,,,,,,0,,,54,60
9635,control_change,35,0,2,,,,,,,,,,,,,,,0,64,127,,
9660,note_on,0,0,2,,,,,,,,,,,,,,,0,,,42,0
9660,note_on,25,0,2,,,,,,,,,,,,,,,0,,,54,0
9720,note_on,120,0,1,,,,,,,,,,,,,,,0,,,73,0
9720,note_on,0,0,1,,,,,,,,,,,,,,,0,,,75,87
9780,note_on,0,0,1,,,,,,,,,,,,,,,0,,,66,0
9780,note_on,60,0,1,,,,,,,,,,,,,,,0,,,75,0
9780,note_on,0,0,1,,,,,,,,,,,,,,,0,,,70,0
9840,note_on,0,0,2,,,,,,,,,,,,,,,0,,,64,61
9840,set_tempo,240,1,0,,,,,,,,,,,,467472,,,,,,,
9840,note_on,0,0,1,,,,,,,,,,,,,,,0,,,75,90
9840,note_on,0,0,1,,,,,,,,,,,,,,,0,,,70,76
9840,note_on,180,0,2,,,,,,,,,,,,,,,0,,,54,51
9840,note_on,60,0,1,,,,,,,,,,,,,,,0,,,66,76
9851,control_change,11,0,2,,,,,,,,,,,,,,,0,64,0,,
9879,control_change,28,0,2,,,,,,,,,,,,,,,0,64,127,,
9900,note_on,21,0,2,,,,,,,,,,,,,,,0,,,64,0
9900,note_on,0,0,2,,,,,,,,,,,,,,,0,,,54,0
9960,note_on,120,0,1,,,,,,,,,,,,,,,0,,,75,0
9960,note_on,0,0,1,,,,,,,,,,,,,,,0,,,76,88
10020,note_on,60,0,1,,,,,,,,,,,,,,,0,,,76,0
10020,note_on,0,0,1,,,,,,,,,,,,,,,0,,,66,0
10020,note_on,0,0,1,,,,,,,,,,,,,,,0,,,70,0
10080,control_change,180,0,2,,,,,,,,,,,,,,,0,64,0,,
10080,note_on,0,0,2,,,,,,,,,,,,,,,0,,,42,45
10080,note_on,0,0,2,,,,,,,,,,,,,,,0,,,54,54
10080,note_on,60,0,1,,,,,,,,,,,,,,,0,,,66,68
10080,set_tempo,240,1,0,,,,,,,,,,,,460193,,,,,,,
10080,note_on,0,0,1,,,,,,,,,,,,,,,0,,,71,68
10080,note_on,0,0,1,,,,,,,,,,,,,,,0,,,76,81
10140,note_on,0,0,2,,,,,,,,,,,,,,,0,,,42,0
10140,note_on,60,0,2,,,,,,,,,,,,,,,0,,,54,0
10144,control_change,4,0,2,,,,,,,,,,,,,,,0,64,127,,
10200,note_on,120,0,1,,,,,,,,,,,,,,,0,,,76,0
10200,note_on,0,0,1,,,,,,,,,,,,,,,0,,,75,75
10260,note_on,60,0,1,,,,,,,,,,,,,,,0,,,75,0
10260,note_on,0,0,1,,,,,,,,,,,,,,,0,,,71,0
10260,note_on,0,0,1,,,,,,,,,,,,,,,0,,,66,0
10320,note_on,0,0,2,,,,,,,,,,,,,,,0,,,63,52
10320,note_on,176,0,2,,,,,,,,,,,,,,,0,,,54,44
10320,note_on,0,0,1,,,,,,,,,,,,,,,0,,,75,78
10320,note_on,60,0,1,,,,,,,,,,,,,,,0,,,66,66
10320,note_on,0,0,1,,,,,,,,,,,,,,,0,,,71,66
10327,control_change,7,0,2,,,,,,,,,,,,,,,0,64,0,,
10355,control_change,28,0,2,,,,,,,,,,,,,,,0,64,127,,
10380,note_on,0,0,2,,,,,,,,,,,,,,,0,,,54,0
10380,note_on,25,0,2,,,,,,,,,,,,,,,0,,,63,0
10440,note_on,0,0,1,,,,,,,,,,,,,,,0,,,80,75
10440,note_on,120,0,1,,,,,,,,,,,,,,,0,,,75,0
10500,note_on,60,0,1,,,,,,,,,,,,,,,0,,,80,0
10500,note_on,0,0,1,,,,,,,,,,,,,,,0,,,71,0
10500,note_on,0,0,1,,,,,,,,,,,,,,,0,,,66,0
10560,note_on,60,0,1,,,,,,,,,,,,,,,0,,,66,64
10560,note_on,0,0,1,,,,,,,,,,,,,,,0,,,80,76
10560,set_tempo,480,1,0,,,,,,,,,,,,467472,,,,,,,
10560,note_on,180,0,2,,,,,,,,,,,,,,,0,,,42,43
10560,note_on,0,0,2,,,,,,,,,,,,,,,0,,,54,51
10578,control_change,18,0,2,,,,,,,,,,,,,,,0,64,0,,
10599,control_change,21,0,2,,,,,,,,,,,,,,,0,64,127,,
10620,note_on,21,0,2,,,,,,,,,,,,,,,0,,,54,0
10620,note_on,0,0,2,,,,,,,,,,,,,,,0,,,42,0
10680,note_on,0,0,1,,,,,,,,,,,,,,,0,,,78,73
10680,note_on,120,0,1,,,,,,,,,,,,,,,0,,,80,0
10740,note_on,60,0,1,,,,,,,,,,,,,,,0,,,78,0
10740,note_on,0,0,1,,,,,,,,,,,,,,,0,,,66,0
10800,note_on,180,0,2,,,,,,,,,,,,,,,0,,,64,50
10800,control_change,0,0,2,,,,,,,,,,,,,,,0,64,0,,
10800,note_on,0,0,2,,,,,,,,,,,,,,,0,,,54,42
10800,note_on,0,0,1,,,,,,,,,,,,,,,0,,,78,74
10800,set_tempo,240,1,0,,,,,,,,,,,,458435,,,,,,,
10800,note_on,60,0,1,,,,,,,,,,,,,,,0,,,66,63
10800,note_on,0,0,1,,,,,,,,,,,,,,,0,,,70,63
10849,control_change,49,0,2,,,,,,,,,,,,,,,0,64,127,,
10860,note_on,0,0,2,,,,,,,,,,,,,,,0,,,64,0
10860,note_on,11,0,2,,,,,,,,,,,,,,,0,,,54,0
10920,note_on,120,0,1,,,,,,,,,,,,,,,0,,,78,0
10920,note_on,0,0,1,,,,,,,,,,,,,,,0,,,73,69
10980,note_on,60,0,1,,,,,,,,,,,,,,,0,,,73,0
10980,note_on,0,0,1,,,,,,,,,,,,,,,0,,,70,0
10980,note_on,0,0,1,,,,,,,,,,,,,,,0,,,66,0
11040,note_on,0,0,2,,,,,,,,,,,,,,,0,,,54,47
11040,note_on,180,0,2,,,,,,,,,,,,,,,0,,,42,40
11040,note_on,60,0,1,,,,,,,,,,,,,,,0,,,64,60
11040,note_on,0,0,1,,,,,,,,,,,,,,,0,,,70,60
11040,note_on,0,0,1,,,,,,,,,,,,,,,0,,,73,71
11047,control_change,7,0,2,,,,,,,,,,,,,,,0,64,0,,
11075,control_change,28,0,2,,,,,,,,,,,,,,,0,64,127,,
11100,note_on,25,0,2,,,,,,,,,,,,,,,0,,,54,0
11100,note_on,0,0,2,,,,,,,,,,,,,,,0,,,42,0
11160,note_on,0,0,1,,,,,,,,,,,,,,,0,,,75,68
11160,note_on,120,0,1,,,,,,,,,,,,,,,0,,,73,0
11220,note_on,60,0,1,,,,,,,,,,,,,,,0,,,75,0
11220,note_on,0,0,1,,,,,,,,,,,,,,,0,,,70,0
11220,note_on,0,0,1,,,,,,,,,,,,,,,0,,,64,0
11280,note_on,0,0,1,,,,,,,,,,,,,,,0,,,75,70
11280,set_tempo,480,1,0,,,,,,,,,,,,467472,,,,,,,
11280,note_on,60,0,1,,,,,,,,,,,,,,,0,,,64,59
11280,note_on,0,0,1,,,,,,,,,,,,,,,0,,,70,59
11280,note_on,180,0,2,,,,,,,,,,,,,,,0,,,61,47
11280,note_on,0,0,2,,,,,,,,,,,,,,,0,,,54,40
11284,control_change,4,0,2,,,,,,,,,,,,,,,0,64,0,,
11319,control_change,35,0,2,,,,,,,,,,,,,,,0,64,127,,
11340,note_on,0,0,2,,,,,,,,,,,,,,,0,,,61,0
11340,note_on,21,0,2,,,,,,,,,,,,,,,0,,,54,0
11400,note_on,0,0,1,,,,,,,,,,,,,,,0,,,76,67
11400,note_on,120,0,1,,,,,,,,,,,,,,,0,,,75,0
11460,note_on,0,0,1,,,,,,,,,,,,,,,0,,,64,0
11460,note_on,0,0,1,,,,,,,,,,,,,,,0,,,70,0
11460,note_on,60,0,1,,,,,,,,,,,,,,,0,,,76,0
11520,note_on,0,0,2,,,,,,,,,,,,,,,0,,,54,48
11520,note_on,0,0,1,,,,,,,,,,,,,,,0,,,76,72
11520,set_tempo,240,1,0,,,,,,,,,,,,454856,,,,,,,
11520,note_on,0,0,1,,,,,,,,,,,,,,,0,,,71,60
11520,note_on,0,0,2,,,,,,,,,,,,,,,0,,,47,40
11520,control_change,180,0,2,,,,,,,,,,,,,,,0,64,0,,
11520,note_on,60,0,1,,,,,,,,,,,,,,,0,,,63,60
11563,control_change,43,0,2,,,,,,,,,,,,,,,0,64,127,,
11580,note_on,0,0,2,,,,,,,,,,,,,,,0,,,47,0
11580,note_on,17,0,2,,,,,,,,,,,,,,,0,,,54,0
11640,note_on,0,0,1,,,,,,,,,,,,,,,0,,,75,68
11640,note_on,120,0,1,,,,,,,,,,,,,,,0,,,76,0
11640,set_tempo,120,1,0,,,,,,,,,,,,467472,,,,,,,
11700,note_on,0,0,1,,,,,,,,,,,,,,,0,,,71,0
11700,note_on,60,0,1,,,,,,,,,,,,,,,0,,,75,0
11700,note_on,0,0,1,,,,,,,,,,,,,,,0,,,63,0
11751,control_change,171,0,2,,,,,,,,,,,,,,,0,64,0,,
11760,set_tempo,120,1,0,,,,,,,,,,,,453138,,,,,,,
11760,note_on,60,0,1,,,,,,,,,,,,,,,0,,,63,61
11760,note_on,9,0,2,,,,,,,,,,,,,,,0,,,47,40
11760,note_on,0,0,1,,,,,,,,,,,,,,,0,,,75,72
11760,note_on,0,0,2,,,,,,,,,,,,,,,0,,,54,40
11760,note_on,0,0,2,,,,,,,,,,,,,,,0,,,59,48
11795,control_change,35,0,2,,,,,,,,,,,,,,,0,64,127,,
11820,note_on,0,0,2,,,,,,,,,,,,,,,0,,,54,0
11820,note_on,0,0,2,,,,,,,,,,,,,,,0,,,47,0
11820,note_on,25,0,2,,,,,,,,,,,,,,,0,,,59,0
11880,note_on,0,0,1,,,,,,,,,,,,,,,0,,,71,72
11880,note_on,120,0,1,,,,,,,,,,,,,,,0,,,75,0
11940,note_on,60,0,1,,,,,,,,,,,,,,,0,,,71,0
11940,note_on,0,0,1,,,,,,,,,,,,,,,0,,,63,0
12000,note_on,60,0,1,,,,,,,,,,,,,,,0,,,64,64
12000,note_on,0,0,1,,,,,,,,,,,,,,,0,,,71,76
12000,note_on,0,0,2,,,,,,,,,,,,,,,0,,,47,43
12000,note_on,180,0,2,,,,,,,,,,,,,,,0,,,59,51
12000,set_tempo,240,1,0,,,,,,,,,,,,463822,,,,,,,
12000,note_on,0,0,2,,,,,,,,,,,,,,,0,,,55,43
12009,control_change,9,0,2,,,,,,,,,,,,,,,0,64,0,,
12039,control_change,30,0,2,,,,,,,,,,,,,,,0,64,127,,
12060,note_on,0,0,2,,,,,,,,,,,,,,,0,,,59,0
12060,note_on,21,0,2,,,,,,,,,,,,,,,0,,,55,0
12060,note_on,0,0,2,,,,,,,,,,,,,,,0,,,47,0
12120,note_on,0,0,1,,,,,,,,,,,,,,,0,,,67,75
12120,note_on,120,0,1,,,,,,,,,,,,,,,0,,,71,0
12180,note_on,60,0,1,,,,,,,,,,,,,,,0,,,67,0
12180,note_on,0,0,1,,,,,,,,,,,,,,,0,,,64,0
12240,note_on,0,0,1,,,,,,,,,,,,,,,0,,,67,78
12240,note_on,60,0,1,,,,,,,,,,,,,,,0,,,63,66
12240,set_tempo,240,1,0,,,,,,,,,,,,475059,,,,,,,
12240,control_change,180,0,2,,,,,,,,,,,,,,,0,64,0,,
12240,note_on,0,0,2,,,,,,,,,,,,,,,0,,,54,45
12240,note_on,0,0,2,,,,,,,,,,,,,,,0,,,47,45
12240,note_on,0,0,2,,,,,,,,,,,,,,,0,,,59,53
12286,control_change,46,0,2,,,,,,,,,,,,,,,0,64,127,,
12300,note_on,0,0,2,,,,,,,,,,,,,,,0,,,59,0
12300,note_on,14,0,2,,,,,,,,,,,,,,,0,,,54,0
12300,note_on,0,0,2,,,,,,,,,,,,,,,0,,,47,0
12360,note_on,120,0,1,,,,,,,,,,,,,,,0,,,67,0
12360,note_on,0,0,1,,,,,,,,,,,,,,,0,,,66,74
12420,note_on,60,0,1,,,,,,,,,,,,,,,0,,,66,0
12420,note_on,0,0,1,,,,,,,,,,,,,,,0,,,63,0
12480,note_on,60,0,1,,,,,,,,,,,,,,,0,,,63,67
12480,note_on,0,0,1,,,,,,,,,,,,,,,0,,,66,80
12480,set_tempo,240,1,0,,,,,,,,,,,,460193,,,,,,,
12480,note_on,180,0,2,,,,,,,,,,,,,,,0,,,47,45
12480,note_on,0,0,2,,,,,,,,,,,,,,,0,,,54,45
12480,note_on,0,0,2,,,,,,,,,,,,,,,0,,,59,54
12483,control_change,3,0,2,,,,,,,,,,,,,,,0,64,0,,
12515,control_change,32,0,2,,,,,,,,,,,,,,,0,64,127,,
12540,note_on,0,0,2,,,,,,,,,,,,,,,0,,,54,0
12540,note_on,0,0,2,,,,,,,,,,,,,,,0,,,47,0
12540,note_on,25,0,2,,,,,,,,,,,,,,,0,,,59,0
12600,note_on,0,0,1,,,,,,,,,,,,,,,0,,,71,75
12600,note_on,120,0,1,,,,,,,,,,,,,,,0,,,66,0
12660,note_on,0,0,1,,,,,,,,,,,,,,,0,,,63,0
12660,note_on,60,0,1,,,,,,,,,,,,,,,0,,,71,0
12720,set_tempo,240,1,0,,,,,,,,,,,,482820,,,,,,,
12720,note_on,0,0,1,,,,,,,,,,,,,,,0,,,71,82
12720,note_on,180,0,2,,,,,,,,,,,,,,,0,,,55,46
12720,note_on,0,0,2,,,,,,,,,,,,,,,0,,,59,55
12720,note_on,60,0,1,,,,,,,,,,,,,,,0,,,64,69
12720,note_on,0,0,2,,,,,,,,,,,,,,,0,,,47,46
12723,control_change,3,0,2,,,,,,,,,,,,,,,0,64,0,,
12759,control_change,36,0,2,,,,,,,,,,,,,,,0,64,127,,
12780,note_on,21,0,2,,,,,,,,,,,,,,,0,,,59,0
12780,note_on,0,0,2,,,,,,,,,,,,,,,0,,,55,0
12780,note_on,0,0,2,,,,,,,,,,,,,,,0,,,47,0
12840,note_on,0,0,1,,,,,,,,,,,,,,,0,,,67,78
12840,note_on,120,0,1,,,,,,,,,,,,,,,0,,,71,0
12900,note_on,0,0,1,,,,,,,,,,,,,,,0,,,64,0
12900,note_on,60,0,1,,,,,,,,,,,,,,,0,,,67,0
12960,note_on,0,0,2,,,,,,,,,,,,,,,0,,,54,48
12960,control_change,0,0,2,,,,,,,,,,,,,,,0,64,0,,
12960,note_on,180,0,2,,,,,,,,,,,,,,,0,,,59,57
12960,set_tempo,240,1,0,,,,,,,,,,,,469373,,,,,,,
12960,note_on,0,0,1,,,,,,,,,,,,,,,0,,,66,85
12960,note_on,60,0,1,,,,,,,,,,,,,,,0,,,63,72
12960,note_on,0,0,2,,,,,,,,,,,,,,,0,,,47,48
12989,control_change,29,0,2,,,,,,,,,,,,,,,0,64,127,,
13020,note_on,31,0,2,,,,,,,,,,,,,,,0,,,54,0
13020,note_on,0,0,2,,,,,,,,,,,,,,,0,,,47,0
13020,note_on,0,0,2,,,,,,,,,,,,,,,0,,,59,0
13080,note_on,0,0,1,,,,,,,,,,,,,,,0,,,71,81
13080,note_on,120,0,1,,,,,,,,,,,,,,,0,,,66,0
13140,note_on,0,0,1,,,,,,,,,,,,,,,0,,,63,0
13140,note_on,60,0,1,,,,,,,,,,,,,,,0,,,71,0
13197,control_change,177,0,2,,,,,,,,,,,,,,,0,64,0,,
13200,note_on,0,0,2,,,,,,,,,,,,,,,0,,,59,57
13200,note_on,0,0,2,,,,,,,,,,,,,,,0,,,55,48
13200,note_on,3,0,2,,,,,,,,,,,,,,,0,,,52,48
13200,note_on,0,0,1,,,,,,,,,,,,,,,0,,,71,86
13200,note_on,60,0,1,,,,,,,,,,,,,,,0,,,64,72
13200,set_tempo,240,1,0,,,,,,,,,,,,486815,,,,,,,
13235,control_change,35,0,2,,,,,,,,,,,,,,,0,64,127,,
13260,note_on,25,0,2,,,,,,,,,,,,,,,0,,,59,0
13260,note_on,0,0,2,,,,,,,,,,,,,,,0,,,55,0
13260,note_on,0,0,2,,,,,,,,,,,,,,,0,,,52,0
13320,note_on,0,0,1,,,,,,,,,,,,,,,0,,,67,85
13320,note_on,120,0,1,,,,,,,,,,,,,,,0,,,71,0
13380,note_on,0,0,1,,,,,,,,,,,,,,,0,,,64,0
13380,note_on,60,0,1,,,,,,,,,,,,,,,0,,,67,0
13417,control_change,157,0,2,,,,,,,,,,,,,,,0,64,0,,
13440,note_on,0,0,1,,,,,,,,,,,,,,,0,,,66,90
13440,note_on,60,0,1,,,,,,,,,,,,,,,0,,,63,76
13440,note_on,23,0,2,,,,,,,,,,,,,,,0,,,47,51
13440,note_on,0,0,2,,,,,,,,,,,,,,,0,,,54,51
13440,set_tempo,240,1,0,,,,,,,,,,,,476948,,,,,,,
13440,note_on,0,0,2,,,,,,,,,,,,,,,0,,,59,61
13479,control_change,39,0,2,,,,,,,,,,,,,,,0,64,127,,
13500,note_on,0,0,2,,,,,,,,,,,,,,,0,,,54,0
13500,note_on,0,0,2,,,,,,,,,,,,,,,0,,,47,0
13500,note_on,21,0,2,,,,,,,,,,,,,,,0,,,59,0
13560,note_on,120,0,1,,,,,,,,,,,,,,,0,,,66,0
13560,note_on,0,0,1,,,,,,,,,,,,,,,0,,,71,88
13620,note_on,60,0,1,,,,,,,,,,,,,,,0,,,71,0
13620,note_on,0,0,1,,,,,,,,,,,,,,,0,,,63,0
13680,note_on,180,0,2,,,,,,,,,,,,,,,0,,,55,52
13680,note_on,0,0,1,,,,,,,,,,,,,,,0,,,71,91
13680,control_change,0,0,2,,,,,,,,,,,,,,,0,64,0,,
13680,note_on,0,0,2,,,,,,,,,,,,,,,0,,,52,52
13680,note_on,0,0,2,,,,,,,,,,,,,,,0,,,59,62
13680,note_on,60,0,1,,,,,,,,,,,,,,,0,,,64,77
13680,set_tempo,240,1,0,,,,,,,,,,,,492935,,,,,,,
13720,control_change,40,0,2,,,,,,,,,,,,,,,0,64,127,,
13740,note_on,0,0,2,,,,,,,,,,,,,,,0,,,52,0
13740,note_on,20,0,2,,,,,,,,,,,,,,,0,,,59,0
13740,note_on,0,0,2,,,,,,,,,,,,,,,0,,,55,0
13800,note_on,120,0,1,,,,,,,,,,,,,,,0,,,71,0
13800,note_on,0,0,1,,,,,,,,,,,,,,,0,,,67,87
13860,note_on,60,0,1,,,,,,,,,,,,,,,0,,,67,0
13860,note_on,0,0,1,,,,,,,,,,,,,,,0,,,64,0
13883,control_change,143,0,2,,,,,,,,,,,,,,,0,64,0,,
13920,note_on,60,0,1,,,,,,,,,,,,,,,0,,,62,78
13920,note_on,0,0,1,,,,,,,,,,,,,,,0,,,66,93
13920,note_on,37,0,2,,,,,,,,,,,,,,,0,,,59,63
13920,note_on,0,0,2,,,,,,,,,,,,,,,0,,,47,53
13920,note_on,0,0,2,,,,,,,,,,,,,,,0,,,54,53
13920,set_tempo,240,1,0,,,,,,,,,,,,473149,,,,,,,
13955,control_change,35,0,2,,,,,,,,,,,,,,,0,64,127,,
13980,note_on,25,0,2,,,,,,,,,,,,,,,0,,,54,0
13980,note_on,0,0,2,,,,,,,,,,,,,,,0,,,47,0
13980,note_on,0,0,2,,,,,,,,,,,,,,,0,,,59,0
14040,note_on,120,0,1,,,,,,,,,,,,,,,0,,,66,0
14040,note_on,0,0,1,,,,,,,,,,,,,,,0,,,71,92
14100,note_on,60,0,1,,,,,,,,,,,,,,,0,,,71,0
14100,note_on,0,0,1,,,,,,,,,,,,,,,0,,,62,0
14157,control_change,177,0,2,,,,,,,,,,,,,,,0,64,0,,
14160,note_on,0,0,1,,,,,,,,,,,,,,,0,,,71,96
14160,note_on,60,0,1,,,,,,,,,,,,,,,0,,,64,81
14160,note_on,0,0,2,,,,,,,,,,,,,,,0,,,59,64
14160,note_on,0,0,2,,,,,,,,,,,,,,,0,,,55,54
14160,note_on,3,0,2,,,,,,,,,,,,,,,0,,,52,54
14160,set_tempo,240,1,0,,,,,,,,,,,,503482,,,,,,,
14199,control_change,39,0,2,,,,,,,,,,,,,,,0,64,127,,
14220,note_on,0,0,2,,,,,,,,,,,,,,,0,,,52,0
14220,note_on,21,0,2,,,,,,,,,,,,,,,0,,,59,0
14220,note_on,0,0,2,,,,,,,,,,,,,,,0,,,55,0
14280,note_on,120,0,1,,,,,,,,,,,,,,,0,,,71,0
14280,note_on,0,0,1,,,,,,,,,,,,,,,0,,,67,95
14280,set_tempo,120,1,0,,,,,,,,,,,,553148,,,,,,,
14340,note_on,60,0,1,,,,,,,,,,,,,,,0,,,67,0
14340,note_on,0,0,1,,,,,,,,,,,,,,,0,,,64,0
14357,control_change,137,0,2,,,,,,,,,,,,,,,0,64,0,,
14400,note_on,60,0,1,,,,,,,,,,,,,,,0,,,71,92
14400,note_on,0,0,1,,,,,,,,,,,,,,,0,,,67,92
14400,note_on,0,0,2,,,,,,,,,,,,,,,0,,,54,60
14400,note_on,0,0,2,,,,,,,,,,,,,,,0,,,59,72
14400,note_on,0,0,1,,,,,,,,,,,,,,,0,,,64,77
14400,set_tempo,120,1,0,,,,,,,,,,,,485751,,,,,,,
14400,note_on,43,0,2,,,,,,,,,,,,,,,0,,,47,60
14414,control_change,14,0,2,,,,,,,,,,,,,,,0,64,127,,
14520,note_on,120,0,1,,,,,,,,,,,,,,,0,,,67,0
14520,note_on,0,0,1,,,,,,,,,,,,,,,0,,,62,74
14520,note_on,0,0,1,,,,,,,,,,,,,,,0,,,66,87
14520,note_on,0,0,1,,,,,,,,,,,,,,,0,,,64,0
14610,note_on,90,0,1,,,,,,,,,,,,,,,0,,,67,72
14640,note_on,30,0,1,,,,,,,,,,,,,,,0,,,67,0
14640,note_on,0,0,2,,,,,,,,,,,,,,,0,,,47,66
14640,note_on,0,0,2,,,,,,,,,,,,,,,0,,,47,0
14640,note_on,0,0,2,,,,,,,,,,,,,,,0,,,35,56
14640,note_on,0,0,1,,,,,,,,,,,,,,,0,,,66,0
14640,set_tempo,240,1,0,,,,,,,,,,,,474533,,,,,,,
14640,note_on,0,0,2,,,,,,,,,,,,,,,0,,,54,0
14640,note_on,0,0,1,,,,,,,,,,,,,,,0,,,62,0
14640,note_on,226,0,2,,,,,,,,,,,,,,,0,,,59,0
14640,note_on,0,0,1,,,,,,,,,,,,,,,0,,,66,92
14640,note_on,0,0,1,,,,,,,,,,,,,,,0,,,62,77
14651,control_change,11,0,2,,,,,,,,,,,,,,,0,64,0,,
14689,control_change,38,0,2,,,,,,,,,,,,,,,0,64,127,,
14700,note_on,0,0,2,,,,,,,,,,,,,,,0,,,35,0
14700,note_on,11,0,2,,,,,,,,,,,,,,,0,,,47,0
14760,note_on,120,0,1,,,,,,,,,,,,,,,0,,,66,0
14760,note_on,0,0,1,,,,,,,,,,,,,,,0,,,62,0
14760,note_on,0,0,1,,,,,,,,,,,,,,,0,,,61,72
14760,note_on,0,0,1,,,,,,,,,,,,,,,0,,,64,85
14873,control_change,173,0,2,,,,,,,,,,,,,,,0,64,0,,
14880,note_on,0,0,2,,,,,,,,,,,,,,,0,,,54,66
14880,set_tempo,240,1,0,,,,,,,,,,,,490878,,,,,,,
14880,note_on,7,0,2,,,,,,,,,,,,,,,0,,,47,56
14880,note_on,120,0,1,,,,,,,,,,,,,,,0,,,64,0
14880,note_on,0,0,1,,,,,,,,,,,,,,,0,,,61,0
14880,note_on,0,0,1,,,,,,,,,,,,,,,0,,,62,77
14880,note_on,0,0,1,,,,,,,,,,,,,,,0,,,66,92
14905,control_change,25,0,2,,,,,,,,,,,,,,,0,64,127,,
15120,set_tempo,240,1,0,,,,,,,,,,,,483832,,,,,,,
15120,control_change,0,0,2,,,,,,,,,,,,,,,0,64,0,,
15120,note_on,0,0,2,,,,,,,,,,,,,,,0,,,54,57
15120,note_on,0,0,2,,,,,,,,,,,,,,,0,,,59,68
15120,note_on,215,0,2,,,,,,,,,,,,,,,0,,,54,0
15120,note_on,240,0,1,,,,,,,,,,,,,,,0,,,66,0
15120,note_on,0,0,1,,,,,,,,,,,,,,,0,,,62,0
15120,note_on,0,0,1,,,,,,,,,,,,,,,0,,,64,73
15120,note_on,0,0,1,,,,,,,,,,,,,,,0,,,67,87
15169,control_change,49,0,2,,,,,,,,,,,,,,,0,64,127,,
15240,note_on,120,0,1,,,,,,,,,,,,,,,0,,,67,0
15240,note_on,0,0,1,,,,,,,,,,,,,,,0,,,64,0
15240,note_on,0,0,1,,,,,,,,,,,,,,,0,,,62,70
15240,note_on,0,0,1,,,,,,,,,,,,,,,0,,,66,82
15330,note_on,90,0,1,,,,,,,,,,,,,,,0,,,67,71
15360,note_on,191,0,2,,,,,,,,,,,,,,,0,,,54,0
15360,note_on,0,0,2,,,,,,,,,,,,,,,0,,,47,62
15360,note_on,0,0,2,,,,,,,,,,,,,,,0,,,35,53
15360,note_on,0,0,2,,,,,,,,,,,,,,,0,,,47,0
15360,set_tempo,240,1,0,,,,,,,,,,,,470921,,,,,,,
15360,note_on,0,0,2,,,,,,,,,,,,,,,0,,,59,0
15360,note_on,30,0,1,,,,,,,,,,,,,,,0,,,67,0
15360,note_on,0,0,1,,,,,,,,,,,,,,,0,,,66,0
15360,note_on,0,0,1,,,,,,,,,,,,,,,0,,,62,0
15360,note_on,0,0,1,,,,,,,,,,,,,,,0,,,62,73
15360,note_on,0,0,1,,,,,,,,,,,,,,,0,,,66,87
15371,control_change,11,0,2,,,,,,,,,,,,,,,0,64,0,,
15416,control_change,45,0,2,,,,,,,,,,,,,,,0,64,127,,
15420,note_on,0,0,2,,,,,,,,,,,,,,,0,,,35,0
15420,note_on,4,0,2,,,,,,,,,,,,,,,0,,,47,0
15480,note_on,0,0,1,,,,,,,,,,,,,,,0,,,64,80
15480,note_on,0,0,1,,,,,,,,,,,,,,,0,,,61,68
15480,note_on,0,0,1,,,,,,,,,,,,,,,0,,,62,0
15480,note_on,120,0,1,,,,,,,,,,,,,,,0,,,66,0
15600,note_on,0,0,2,,,,,,,,,,,,,,,0,,,47,53
15600,set_tempo,240,1,0,,,,,,,,,,,,486815,,,,,,,
15600,note_on,180,0,2,,,,,,,,,,,,,,,0,,,54,62
15600,note_on,0,0,1,,,,,,,,,,,,,,,0,,,62,73
15600,note_on,0,0,1,,,,,,,,,,,,,,,0,,,61,0
15600,note_on,0,0,1,,,,,,,,,,,,,,,0,,,66,87
15600,note_on,120,0,1,,,,,,,,,,,,,,,0,,,64,0
15611,control_change,11,0,2,,,,,,,,,,,,,,,0,64,0,,
15646,control_change,35,0,2,,,,,,,,,,,,,,,0,64,127,,
15720,set_tempo,120,1,0,,,,,,,,,,,,525947,,,,,,,
15780,control_change,134,0,2,,,,,,,,,,,,,,,0,64,0,,
15840,note_on,60,0,2,,,,,,,,,,,,,,,0,,,47,0
15840,note_on,0,0,2,,,,,,,,,,,,,,,0,,,54,0
15840,note_on,0,0,2,,,,,,,,,,,,,,,0,,,52,54
15840,note_on,0,0,2,,,,,,,,,,,,,,,0,,,59,64
15840,set_tempo,120,1,0,,,,,,,,,,,,478927,,,,,,,
15840,note_on,240,0,1,,,,,,,,,,,,,,,0,,,66,0
15840,note_on,0,0,1,,,,,,,,,,,,,,,0,,,68,61
15840,note_on,0,0,1,,,,,,,,,,,,,,,0,,,62,61
15840,note_on,0,0,1,,,,,,,,,,,,,,,0,,,71,0
15840,note_on,0,0,1,,,,,,,,,,,,,,,0,,,62,0
15840,note_on,0,0,1,,,,,,,,,,,,,,,0,,,71,72
15857,control_change,17,0,2,,,,,,,,,,,,,,,0,64,127,,
15960,note_on,120,0,1,,,,,,,,,,,,,,,0,,,71,0
15960,note_on,103,0,2,,,,,,,,,,,,,,,0,,,59,0
15960,note_on,0,0,1,,,,,,,,,,,,,,,0,,,62,0
15960,note_on,0,0,2,,,,,,,,,,,,,,,0,,,52,0
15960,note_on,0,0,1,,,,,,,,,,,,,,,0,,,72,72
15960,note_on,0,0,1,,,,,,,,,,,,,,,0,,,64,61
16020,note_on,60,0,1,,,,,,,,,,,,,,,0,,,72,0
16020,note_on,0,0,1,,,,,,,,,,,,,,,0,,,64,0
16020,note_on,0,0,1,,,,,,,,,,,,,,,0,,,68,0
16077,control_change,117,0,2,,,,,,,,,,,,,,,0,64,0,,
16080,note_on,3,0,2,,,,,,,,,,,,,,,0,,,40,54
16080,note_on,0,0,2,,,,,,,,,,,,,,,0,,,52,64
16080,set_tempo,240,1,0,,,,,,,,,,,,473149,,,,,,,
16080,note_on,60,0,1,,,,,,,,,,,,,,,0,,,68,61
16080,note_on,0,0,1,,,,,,,,,,,,,,,0,,,64,61
16080,note_on,0,0,1,,,,,,,,,,,,,,,0,,,72,72
16111,control_change,31,0,2,,,,,,,,,,,,,,,0,64,127,,
16200,note_on,0,0,1,,,,,,,,,,,,,,,0,,,71,72
16200,note_on,120,0,1,,,,,,,,,,,,,,,0,,,72,0
16200,note_on,0,0,1,,,,,,,,,,,,,,,0,,,64,0
16200,note_on,0,0,1,,,,,,,,,,,,,,,0,,,62,61
16200,note_on,0,0,2,,,,,,,,,,,,,,,0,,,40,0
16200,note_on,89,0,2,,,,,,,,,,,,,,,0,,,52,0
16260,note_on,0,0,1,,,,,,,,,,,,,,,0,,,68,0
16260,note_on,0,0,1,,,,,,,,,,,,,,,0,,,62,0
16260,note_on,60,0,1,,,,,,,,,,,,,,,0,,,71,0
16317,control_change,117,0,2,,,,,,,,,,,,,,,0,64,0,,
16320,note_on,3,0,2,,,,,,,,,,,,,,,0,,,59,64
16320,set_tempo,240,1,0,,,,,,,,,,,,478927,,,,,,,
16320,note_on,0,0,1,,,,,,,,,,,,,,,0,,,71,72
16320,note_on,0,0,1,,,,,,,,,,,,,,,0,,,62,61
16320,note_on,60,0,1,,,,,,,,,,,,,,,0,,,68,61
16320,note_on,0,0,2,,,,,,,,,,,,,,,0,,,52,54
16346,control_change,26,0,2,,,,,,,,,,,,,,,0,64,127,,
16440,note_on,0,0,1,,,,,,,,,,,,,,,0,,,72,72
16440,note_on,0,0,1,,,,,,,,,,,,,,,0,,,64,61
16440,note_on,0,0,1,,,,,,,,,,,,,,,0,,,62,0
16440,set_tempo,120,1,0,,,,,,,,,,,,519031,,,,,,,
16440,note_on,120,0,1,,,,,,,,,,,,,,,0,,,71,0
16440,note_on,0,0,2,,,,,,,,,,,,,,,0,,,59,0
16440,note_on,94,0,2,,,,,,,,,,,,,,,0,,,52,0
16500,note_on,0,0,1,,,,,,,,,,,,,,,0,,,68,0
16500,note_on,0,0,1,,,,,,,,,,,,,,,0,,,64,0
16500,note_on,60,0,1,,,,,,,,,,,,,,,0,,,72,0
16511,control_change,71,0,2,,,,,,,,,,,,,,,0,64,0,,
16560,note_on,0,0,2,,,,,,,,,,,,,,,0,,,52,57
16560,note_on,0,0,2,,,,,,,,,,,,,,,0,,,57,68
16560,note_on,0,0,1,,,,,,,,,,,,,,,0,,,65,87
16560,note_on,0,0,1,,,,,,,,,,,,,,,0,,,62,73
16560,note_on,60,0,1,,,,,,,,,,,,,,,0,,,69,87
16560,note_on,49,0,2,,,,,,,,,,,,,,,0,,,45,57
16560,set_tempo,120,1,0,,,,,,,,,,,,483832,,,,,,,
16609,control_change,49,0,2,,,,,,,,,,,,,,,0,64,127,,
16680,note_on,0,0,1,,,,,,,,,,,,,,,0,,,60,70
16680,note_on,0,0,1,,,,,,,,,,,,,,,0,,,62,0
16680,note_on,0,0,1,,,,,,,,,,,,,,,0,,,64,82
16680,note_on,120,0,1,,,,,,,,,,,,,,,0,,,65,0
16763,control_change,154,0,2,,,,,,,,,,,,,,,0,64,0,,
16770,note_on,90,0,1,,,,,,,,,,,,,,,0,,,65,63
16786,control_change,23,0,2,,,,,,,,,,,,,,,0,64,127,,
16800,note_on,30,0,1,,,,,,,,,,,,,,,0,,,65,0
16800,note_on,0,0,1,,,,,,,,,,,,,,,0,,,64,0
16800,note_on,0,0,1,,,,,,,,,,,,,,,0,,,60,0
16800,set_tempo,240,1,0,,,,,,,,,,,,474533,,,,,,,
16800,note_on,0,0,1,,,,,,,,,,,,,,,0,,,64,87
16800,note_on,0,0,1,,,,,,,,,,,,,,,0,,,60,73
16800,note_on,14,0,2,,,,,,,,,,,,,,,0,,,57,0
16800,note_on,0,0,2,,,,,,,,,,,,,,,0,,,52,0
16800,note_on,0,0,2,,,,,,,,,,,,,,,0,,,45,0
16800,note_on,0,0,2,,,,,,,,,,,,,,,0,,,33,53
16800,note_on,0,0,2,,,,,,,,,,,,,,,0,,,45,62
16860,note_on,60,0,2,,,,,,,,,,,,,,,0,,,45,0
16860,note_on,0,0,2,,,,,,,,,,,,,,,0,,,33,0
16920,note_on,120,0,1,,,,,,,,,,,,,,,0,,,64,0
16920,note_on,0,0,1,,,,,,,,,,,,,,,0,,,60,0
16920,note_on,0,0,1,,,,,,,,,,,,,,,0,,,59,68
16920,note_on,0,0,1,,,,,,,,,,,,,,,0,,,62,80
17040,set_tempo,240,1,0,,,,,,,,,,,,490878,,,,,,,
17040,note_on,0,0,1,,,,,,,,,,,,,,,0,,,64,87
17040,note_on,0,0,2,,,,,,,,,,,,,,,0,,,52,62
17040,note_on,0,0,1,,,,,,,,,,,,,,,0,,,59,0
17040,note_on,120,0,1,,,,,,,,,,,,,,,0,,,62,0
17040,note_on,180,0,2,,,,,,,,,,,,,,,0,,,45,53
17040,note_on,0,0,1,,,,,,,,,,,,,,,0,,,60,73
17051,control_change,11,0,2,,,,,,,,,,,,,,,0,64,0,,
17091,control_change,40,0,2,,,,,,,,,,,,,,,0,64,127,,
17280,note_on,0,0,1,,,,,,,,,,,,,,,0,,,65,82
17280,note_on,0,0,1,,,,,,,,,,,,,,,0,,,62,69
17280,note_on,0,0,1,,,,,,,,,,,,,,,0,,,69,84
17280,note_on,0,0,1,,,,,,,,,,,,,,,0,,,69,0
17280,note_on,0,0,1,,,,,,,,,,,,,,,0,,,60,0
17280,note_on,189,0,2,,,,,,,,,,,,,,,0,,,52,0
17280,note_on,0,0,2,,,,,,,,,,,,,,,0,,,52,54
17280,control_change,0,0,2,,,,,,,,,,,,,,,0,64,0,,
17280,set_tempo,240,1,0,,,,,,,,,,,,478927,,,,,,,
17280,note_on,240,0,1,,,,,,,,,,,,,,,0,,,64,0
17280,note_on,0,0,2,,,,,,,,,,,,,,,0,,,57,64
17329,control_change,49,0,2,,,,,,,,,,,,,,,0,64,127,,
17400,note_on,120,0,1,,,,,,,,,,,,,,,0,,,65,0
17400,note_on,0,0,1,,,,,,,,,,,,,,,0,,,62,0
17400,note_on,0,0,1,,,,,,,,,,,,,,,0,,,60,66
17400,note_on,0,0,1,,,,,,,,,,,,,,,0,,,64,77
17469,control_change,140,0,2,,,,,,,,,,,,,,,0,64,0,,
17489,control_change,20,0,2,,,,,,,,,,,,,,,0,64,127,,
17490,note_on,90,0,1,,,,,,,,,,,,,,,0,,,65,59
17520,note_on,0,0,2,,,,,,,,,,,,,,,0,,,33,50
17520,note_on,0,0,2,,,,,,,,,,,,,,,0,,,45,58
17520,note_on,0,0,2,,,,,,,,,,,,,,,0,,,45,0
17520,note_on,0,0,2,,,,,,,,,,,,,,,0,,,52,0
17520,note_on,0,0,1,,,,,,,,,,,,,,,0,,,64,82
17520,note_on,0,0,1,,,,,,,,,,,,,,,0,,,60,0
17520,set_tempo,240,1,0,,,,,,,,,,,,467472,,,,,,,
17520,note_on,30,0,1,,,,,,,,,,,,,,,0,,,65,0
17520,note_on,0,0,1,,,,,,,,,,,,,,,0,,,64,0
17520,note_on,31,0,2,,,,,,,,,,,,,,,0,,,57,0
17520,note_on,0,0,1,,,,,,,,,,,,,,,0,,,60,69
17580,note_on,0,0,2,,,,,,,,,,,,,,,0,,,45,0
17580,note_on,60,0,2,,,,,,,,,,,,,,,0,,,33,0
17640,note_on,0,0,1,,,,,,,,,,,,,,,0,,,60,0
17640,note_on,0,0,1,,,,,,,,,,,,,,,0,,,59,64
17640,note_on,0,0,1,,,,,,,,,,,,,,,0,,,62,76
17640,note_on,120,0,1,,,,,,,,,,,,,,,0,,,64,0
17760,note_on,120,0,1,,,,,,,,,,,,,,,0,,,62,0
17760,note_on,0,0,1,,,,,,,,,,,,,,,0,,,64,82
17760,note_on,0,0,2,,,,,,,,,,,,,,,0,,,52,58
17760,note_on,180,0,2,,,,,,,,,,,,,,,0,,,45,50
17760,set_tempo,240,1,0,,,,,,,,,,,,490878,,,,,,,
17760,note_on,0,0,1,,,,,,,,,,,,,,,0,,,60,69
17760,note_on,0,0,1,,,,,,,,,,,,,,,0,,,59,0
17774,control_change,14,0,2,,,,,,,,,,,,,,,0,64,0,,
17806,control_change,32,0,2,,,,,,,,,,,,,,,0,64,127,,
18000,note_on,0,0,1,,,,,,,,,,,,,,,0,,,65,82
18000,note_on,0,0,1,,,,,,,,,,,,,,,0,,,62,69
18000,note_on,240,0,1,,,,,,,,,,,,,,,0,,,64,0
18000,note_on,0,0,1,,,,,,,,,,,,,,,0,,,60,0
18000,set_tempo,240,1,0,,,,,,,,,,,,478927,,,,,,,
18000,note_on,194,0,2,,,,,,,,,,,,,,,0,,,52,0
18000,note_on,0,0,2,,,,,,,,,,,,,,,0,,,57,64
18000,note_on,0,0,2,,,,,,,,,,,,,,,0,,,52,54
18014,control_change,14,0,2,,,,,,,,,,,,,,,0,64,0,,
18049,control_change,35,0,2,,,,,,,,,,,,,,,0,64,127,,
18120,note_on,120,0,1,,,,,,,,,,,,,,,0,,,65,0
18120,note_on,0,0,1,,,,,,,,,,,,,,,0,,,62,0
18120,note_on,0,0,1,,,,,,,,,,,,,,,0,,,60,66
18120,note_on,0,0,1,,,,,,,,,,,,,,,0,,,64,77
18194,control_change,145,0,2,,,,,,,,,,,,,,,0,64,0,,
18210,note_on,90,0,1,,,,,,,,,,,,,,,0,,,65,59
18229,control_change,35,0,2,,,,,,,,,,,,,,,0,64,127,,
18240,note_on,0,0,1,,,,,,,,,,,,,,,0,,,64,0
18240,note_on,0,0,1,,,,,,,,,,,,,,,0,,,60,0
18240,note_on,30,0,1,,,,,,,,,,,,,,,0,,,65,0
18240,note_on,0,0,1,,,,,,,,,,,,,,,0,,,60,69
18240,note_on,0,0,2,,,,,,,,,,,,,,,0,,,45,58
18240,note_on,0,0,2,,,,,,,,,,,,,,,0,,,33,50
18240,note_on,0,0,1,,,,,,,,,,,,,,,0,,,64,82
18240,note_on,11,0,2,,,,,,,,,,,,,,,0,,,52,0
18240,note_on,0,0,2,,,,,,,,,,,,,,,0,,,57,0
18240,set_tempo,240,1,0,,,,,,,,,,,,467472,,,,,,,
18240,note_on,0,0,2,,,,,,,,,,,,,,,0,,,45,0
18300,note_on,60,0,2,,,,,,,,,,,,,,,0,,,45,0
18300,note_on,0,0,2,,,,,,,,,,,,,,,0,,,33,0
18360,note_on,120,0,1,,,,,,,,,,,,,,,0,,,64,0
18360,note_on,0,0,1,,,,,,,,,,,,,,,0,,,60,0
18360,note_on,0,0,1,,,,,,,,,,,,,,,0,,,59,64
18360,note_on,0,0,1,,,,,,,,,,,,,,,0,,,62,76
18480,note_on,0,0,1,,,,,,,,,,,,,,,0,,,59,0
18480,note_on,0,0,1,,,,,,,,,,,,,,,0,,,64,82
18480,note_on,0,0,2,,,,,,,,,,,,,,,0,,,45,50
18480,set_tempo,240,1,0,,,,,,,,,,,,490878,,,,,,,
18480,note_on,0,0,1,,,,,,,,,,,,,,,0,,,60,69
18480,note_on,120,0,1,,,,,,,,,,,,,,,0,,,62,0
18480,note_on,180,0,2,,,,,,,,,,,,,,,0,,,52,58
18500,control_change,20,0,2,,,,,,,,,,,,,,,0,64,0,,
18543,control_change,43,0,2,,,,,,,,,,,,,,,0,64,127,,
18600,note_on,0,0,2,,,,,,,,,,,,,,,0,,,52,0
18600,note_on,57,0,2,,,,,,,,,,,,,,,0,,,45,0
18600,set_tempo,120,1,0,,,,,,,,,,,,519031,,,,,,,
18674,control_change,74,0,2,,,,,,,,,,,,,,,0,64,0,,
18720,control_change,0,0,2,,,,,,,,,,,,,,,0,64,127,,
18720,note_on,46,0,2,,,,,,,,,,,,,,,0,,,57,64
18720,set_tempo,120,1,0,,,,,,,,,,,,478927,,,,,,,
18720,note_on,0,0,2,,,,,,,,,,,,,,,0,,,50,54
18720,note_on,0,0,1,,,,,,,,,,,,,,,0,,,60,0
18720,note_on,240,0,1,,,,,,,,,,,,,,,0,,,64,0
18720,note_on,0,0,1,,,,,,,,,,,,,,,0,,,60,61
18720,note_on,0,0,1,,,,,,,,,,,,,,,0,,,66,61
18720,note_on,0,0,1,,,,,,,,,,,,,,,0,,,69,72
18720,note_on,0,0,1,,,,,,,,,,,,,,,0,,,69,0
18840,note_on,120,0,2,,,,,,,,,,,,,,,0,,,50,0
18840,note_on,120,0,1,,,,,,,,,,,,,,,0,,,69,0
18840,note_on,0,0,1,,,,,,,,,,,,,,,0,,,60,0
18840,note_on,0,0,1,,,,,,,,,,,,,,,0,,,62,61
18840,note_on,0,0,1,,,,,,,,,,,,,,,0,,,71,72
18840,note_on,0,0,2,,,,,,,,,,,,,,,0,,,57,0
18900,note_on,0,0,1,,,,,,,,,,,,,,,0,,,66,0
18900,note_on,60,0,1,,,,,,,,,,,,,,,0,,,71,0
18900,note_on,0,0,1,,,,,,,,,,,,,,,0,,,62,0
18957,control_change,117,0,2,,,,,,,,,,,,,,,0,64,0,,
18960,note_on,60,0,1,,,,,,,,,,,,,,,0,,,66,61
18960,set_tempo,240,1,0,,,,,,,,,,,,473149,,,,,,,
18960,note_on,0,0,1,,,,,,,,,,,,,,,0,,,62,61
18960,note_on,3,0,2,,,,,,,,,,,,,,,0,,,38,54
18960,note_on,0,0,2,,,,,,,,,,,,,,,0,,,50,64
18960,note_on,0,0,1,,,,,,,,,,,,,,,0,,,71,72
18991,control_change,31,0,2,,,,,,,,,,,,,,,0,64,127,,
19080,note_on,0,0,1,,,,,,,,,,,,,,,0,,,69,72
19080,note_on,120,0,1,,,,,,,,,,,,,,,0,,,71,0
19080,note_on,89,0,2,,,,,,,,,,,,,,,0,,,50,0
19080,note_on,0,0,1,,,,,,,,,,,,,,,0,,,60,61
19080,note_on,0,0,2,,,,,,,,,,,,,,,0,,,38,0
19080,note_on,0,0,1,,,,,,,,,,,,,,,0,,,62,0
19140,note_on,0,0,1,,,,,,,,,,,,,,,0,,,66,0
19140,note_on,0,0,1,,,,,,,,,,,,,,,0,,,60,0
19140,note_on,60,0,1,,,,,,,,,,,,,,,0,,,69,0
19200,note_on,0,0,2,,,,,,,,,,,,,,,0,,,50,54
19200,control_change,0,0,2,,,,,,,,,,,,,,,0,64,0,,
19200,note_on,120,0,2,,,,,,,,,,,,,,,0,,,57,64
19200,note_on,60,0,1,,,,,,,,,,,,,,,0,,,66,61
19200,note_on,0,0,1,,,,,,,,,,,,,,,0,,,60,61
19200,note_on,0,0,1,,,,,,,,,,,,,,,0,,,69,72
19200,set_tempo,240,1,0,,,,,,,,,,,,478927,,,,,,,
19226,control_change,26,0,2,,,,,,,,,,,,,,,0,64,127,,
19320,note_on,94,0,2,,,,,,,,,,,,,,,0,,,50,0
19320,note_on,0,0,1,,,,,,,,,,,,,,,0,,,71,72
19320,note_on,0,0,1,,,,,,,,,,,,,,,0,,,60,0
19320,note_on,120,0,1,,,,,,,,,,,,,,,0,,,69,0
19320,note_on,0,0,1,,,,,,,,,,,,,,,0,,,62,61
19320,note_on,0,0,2,,,,,,,,,,,,,,,0,,,57,0
19380,note_on,60,0,1,,,,,,,,,,,,,,,0,,,71,0
19380,note_on,0,0,1,,,,,,,,,,,,,,,0,,,62,0
19380,note_on,0,0,1,,,,,,,,,,,,,,,0,,,66,0
19391,control_change,71,0,2,,,,,,,,,,,,,,,0,64,0,,
19440,note_on,0,0,2,,,,,,,,,,,,,,,0,,,43,51
19440,note_on,0,0,2,,,,,,,,,,,,,,,0,,,50,51
19440,note_on,0,0,1,,,,,,,,,,,,,,,0,,,64,78
19440,set_tempo,240,1,0,,,,,,,,,,,,478927,,,,,,,
19440,note_on,60,0,1,,,,,,,,,,,,,,,0,,,67,78
19440,note_on,0,0,2,,,,,,,,,,,,,,,0,,,55,61
19440,note_on,0,0,1,,,,,,,,,,,,,,,0,,,60,65
19440,control_change,49,0,2,,,,,,,,,,,,,,,0,64,127,,
19560,note_on,0,0,1,,,,,,,,,,,,,,,0,,,59,63
19560,note_on,120,0,1,,,,,,,,,,,,,,,0,,,64,0
19560,note_on,0,0,1,,,,,,,,,,,,,,,0,,,62,73
19560,note_on,0,0,1,,,,,,,,,,,,,,,0,,,60,0
19650,note_on,90,0,1,,,,,,,,,,,,,,,0,,,64,56
19651,control_change,211,0,2,,,,,,,,,,,,,,,0,64,0,,
19674,control_change,23,0,2,,,,,,,,,,,,,,,0,64,127,,
19680,note_on,6,0,2,,,,,,,,,,,,,,,0,,,55,0
19680,note_on,0,0,2,,,,,,,,,,,,,,,0,,,43,0
19680,note_on,0,0,1,,,,,,,,,,,,,,,0,,,59,0
19680,set_tempo,240,1,0,,,,,,,,,,,,467472,,,,,,,
19680,note_on,0,0,1,,,,,,,,,,,,,,,0,,,62,78
19680,note_on,0,0,1,,,,,,,,,,,,,,,0,,,59,65
19680,note_on,0,0,2,,,,,,,,,,,,,,,0,,,31,47
19680,note_on,0,0,2,,,,,,,,,,,,,,,0,,,43,55
19680,note_on,0,0,1,,,,,,,,,,,,,,,0,,,62,0
19680,note_on,30,0,1,,,,,,,,,,,,,,,0,,,64,0
19680,note_on,0,0,2,,,,,,,,,,,,,,,0,,,50,0
19740,note_on,60,0,2,,,,,,,,,,,,,,,0,,,43,0
19740,note_on,0,0,2,,,,,,,,,,,,,,,0,,,31,0
19800,note_on,0,0,1,,,,,,,,,,,,,,,0,,,59,0
19800,note_on,120,0,1,,,,,,,,,,,,,,,0,,,62,0
19800,note_on,0,0,1,,,,,,,,,,,,,,,0,,,60,72
19800,note_on,0,0,1,,,,,,,,,,,,,,,0,,,57,61
19917,control_change,177,0,2,,,,,,,,,,,,,,,0,64,0,,
19920,note_on,0,0,2,,,,,,,,,,,,,,,0,,,55,55
19920,note_on,0,0,1,,,,,,,,,,,,,,,0,,,57,0
19920,note_on,0,0,1,,,,,,,,,,,,,,,0,,,59,65
19920,note_on,120,0,1,,,,,,,,,,,,,,,0,,,60,0
19920,note_on,0,0,1,,,,,,,,,,,,,,,0,,,62,78
19920,set_tempo,240,1,0,,,,,,,,,,,,490878,,,,,,,
19920,note_on,3,0,2,,,,,,,,,,,,,,,0,,,43,47
19951,control_change,31,0,2,,,,,,,,,,,,,,,0,64,127,,
20040,note_on,0,0,2,,,,,,,,,,,,,,,0,,,43,0
20040,set_tempo,120,1,0,,,,,,,,,,,,530645,,,,,,,
20040,note_on,89,0,2,,,,,,,,,,,,,,,0,,,55,0
20106,control_change,66,0,2,,,,,,,,,,,,,,,0,64,0,,
20160,set_tempo,120,1,0,,,,,,,,,,,,478927,,,,,,,
20160,note_on,240,0,1,,,,,,,,,,,,,,,0,,,62,0
20160,note_on,0,0,1,,,,,,,,,,,,,,,0,,,59,0
20160,note_on,0,0,1,,,,,,,,,,,,,,,0,,,67,0
20160,note_on,0,0,1,,,,,,,,,,,,,,,0,,,64,47
20160,note_on,0,0,1,,,,,,,,,,,,,,,0,,,67,56
20160,note_on,54,0,2,,,,,,,,,,,,,,,0,,,48,40
20160,note_on,0,0,2,,,,,,,,,,,,,,,0,,,55,48
20163,control_change,3,0,2,,,,,,,,,,,,,,,0,64,127,,
20220,note_on,0,0,2,,,,,,,,,,,,,,,0,,,48,0
20220,note_on,57,0,2,,,,,,,,,,,,,,,0,,,55,0
20280,note_on,120,0,1,,,,,,,,,,,,,,,0,,,67,0
20280,note_on,0,0,1,,,,,,,,,,,,,,,0,,,69,56
20340,note_on,0,0,1,,,,,,,,,,,,,,,0,,,64,0
20340,note_on,60,0,1,,,,,,,,,,,,,,,0,,,69,0
20394,control_change,174,0,2,,,,,,,,,,,,,,,0,64,0,,
20400,note_on,60,0,1,,,,,,,,,,,,,,,0,,,64,48
20400,note_on,6,0,2,,,,,,,,,,,,,,,0,,,60,45
20400,note_on,0,0,2,,,,,,,,,,,,,,,0,,,48,38
20400,note_on,0,0,2,,,,,,,,,,,,,,,0,,,55,38
20400,set_tempo,240,1,0,,,,,,,,,,,,475059,,,,,,,
20400,note_on,0,0,1,,,,,,,,,,,,,,,0,,,69,58
20414,control_change,14,0,2,,,,,,,,,,,,,,,0,64,127,,
20460,note_on,46,0,2,,,,,,,,,,,,,,,0,,,55,0
20460,note_on,0,0,2,,,,,,,,,,,,,,,0,,,60,0
20460,note_on,0,0,2,,,,,,,,,,,,,,,0,,,48,0
20520,note_on,0,0,1,,,,,,,,,,,,,,,0,,,71,59
20520,note_on,120,0,1,,,,,,,,,,,,,,,0,,,69,0
20580,note_on,60,0,1,,,,,,,,,,,,,,,0,,,71,0
20580,note_on,0,0,1,,,,,,,,,,,,,,,0,,,64,0
20640,note_on,0,0,2,,,,,,,,,,,,,,,0,,,48,39
20640,note_on,0,0,2,,,,,,,,,,,,,,,0,,,55,39
20640,note_on,0,0,1,,,,,,,,,,,,,,,0,,,71,60
20640,note_on,60,0,1,,,,,,,,,,,,,,,0,,,64,50
20640,note_on,0,0,2,,,,,,,,,,,,,,,0,,,60,47
20640,control_change,180,0,2,,,,,,,,,,,,,,,0,64,0,,
20663,control_change,23,0,2,,,,,,,,,,,,,,,0,64,127,,
20700,note_on,37,0,2,,,,,,,,,,,,,,,0,,,60,0
20700,note_on,0,0,2,,,,,,,,,,,,,,,0,,,55,0
20700,note_on,0,0,2,,,,,,,,,,,,,,,0,,,48,0
20760,note_on,0,0,1,,,,,,,,,,,,,,,0,,,72,61
20760,note_on,120,0,1,,,,,,,,,,,,,,,0,,,71,0
20760,set_tempo,360,1,0,,,,,,,,,,,,471254,,,,,,,
20820,note_on,0,0,1,,,,,,,,,,,,,,,0,,,64,0
20820,note_on,60,0,1,,,,,,,,,,,,,,,0,,,72,0
20880,control_change,180,0,2,,,,,,,,,,,,,,,0,64,0,,
20880,note_on,0,0,2,,,,,,,,,,,,,,,0,,,48,45
20880,note_on,0,0,2,,,,,,,,,,,,,,,0,,,55,45
20880,note_on,0,0,1,,,,,,,,,,,,,,,0,,,72,63
20880,set_tempo,120,1,0,,,,,,,,,,,,465658,,,,,,,
20880,note_on,60,0,1,,,,,,,,,,,,,,,0,,,64,53
20880,note_on,0,0,2,,,,,,,,,,,,,,,0,,,60,54
20923,control_change,43,0,2,,,,,,,,,,,,,,,0,64,127,,
20940,note_on,0,0,2,,,,,,,,,,,,,,,0,,,55,0
20940,note_on,17,0,2,,,,,,,,,,,,,,,0,,,60,0
20940,note_on,0,0,2,,,,,,,,,,,,,,,0,,,48,0
21000,note_on,120,0,1,,,,,,,,,,,,,,,0,,,72,0
21000,note_on,0,0,1,,,,,,,,,,,,,,,0,,,74,63
21060,note_on,0,0,1,,,,,,,,,,,,,,,0,,,64,0
21060,note_on,60,0,1,,,,,,,,,,,,,,,0,,,74,0
21120,note_on,0,0,2,,,,,,,,,,,,,,,0,,,48,42
21120,note_on,180,0,2,,,,,,,,,,,,,,,0,,,60,51
21120,note_on,0,0,2,,,,,,,,,,,,,,,0,,,54,42
21120,note_on,60,0,1,,,,,,,,,,,,,,,0,,,64,54
21120,note_on,0,0,1,,,,,,,,,,,,,,,0,,,69,54
21120,note_on,0,0,1,,,,,,,,,,,,,,,0,,,74,65
21134,control_change,14,0,2,,,,,,,,,,,,,,,0,64,0,,
21160,control_change,26,0,2,,,,,,,,,,,,,,,0,64,127,,
21180,note_on,0,0,2,,,,,,,,,,,,,,,0,,,60,0
21180,note_on,20,0,2,,,,,,,,,,,,,,,0,,,54,0
21180,note_on,0,0,2,,,,,,,,,,,,,,,0,,,48,0
21240,note_on,120,0,1,,,,,,,,,,,,,,,0,,,74,0
21240,note_on,0,0,1,,,,,,,,,,,,,,,0,,,76,66
21300,note_on,0,0,1,,,,,,,,,,,,,,,0,,,64,0
21300,note_on,60,0,1,,,,,,,,,,,,,,,0,,,76,0
21300,note_on,0,0,1,,,,,,,,,,,,,,,0,,,69,0
21354,control_change,174,0,2,,,,,,,,,,,,,,,0,64,0,,
21360,note_on,6,0,2,,,,,,,,,,,,,,,0,,,59,52
21360,note_on,0,0,2,,,,,,,,,,,,,,,0,,,47,44
21360,note_on,0,0,2,,,,,,,,,,,,,,,0,,,54,44
21360,note_on,60,0,1,,,,,,,,,,,,,,,0,,,64,56
21360,note_on,0,0,1,,,,,,,,,,,,,,,0,,,69,56
21360,set_tempo,480,1,0,,,,,,,,,,,,480846,,,,,,,
21360,note_on,0,0,1,,,,,,,,,,,,,,,0,,,76,67
21397,control_change,37,0,2,,,,,,,,,,,,,,,0,64,127,,
21420,note_on,23,0,2,,,,,,,,,,,,,,,0,,,54,0
21420,note_on,0,0,2,,,,,,,,,,,,,,,0,,,47,0
21420,note_on,0,0,2,,,,,,,,,,,,,,,0,,,59,0
21480,set_tempo,120,1,0,,,,,,,,,,,,514447,,,,,,,
21480,note_on,0,0,1,,,,,,,,,,,,,,,0,,,75,68
21480,note_on,0,0,1,,,,,,,,,,,,,,,0,,,63,57
21480,note_on,120,0,1,,,,,,,,,,,,,,,0,,,76,0
21540,note_on,0,0,1,,,,,,,,,,,,,,,0,,,63,0
21540,note_on,0,0,1,,,,,,,,,,,,,,,0,,,69,0
21540,note_on,0,0,1,,,,,,,,,,,,,,,0,,,64,0
21540,note_on,60,0,1,,,,,,,,,,,,,,,0,,,75,0
21557,control_change,137,0,2,,,,,,,,,,,,,,,0,64,0,,
21600,note_on,0,0,1,,,,,,,,,,,,,,,0,,,67,56
21600,set_tempo,120,1,0,,,,,,,,,,,,478927,,,,,,,
21600,note_on,0,0,2,,,,,,,,,,,,,,,0,,,59,48
21600,note_on,60,0,1,,,,,,,,,,,,,,,0,,,64,47
21600,note_on,43,0,2,,,,,,,,,,,,,,,0,,,52,40
21603,control_change,3,0,2,,,,,,,,,,,,,,,0,64,127,,
21660,note_on,57,0,2,,,,,,,,,,,,,,,0,,,59,0
21660,note_on,0,0,2,,,,,,,,,,,,,,,0,,,52,0
21720,note_on,120,0,1,,,,,,,,,,,,,,,0,,,67,0
21720,note_on,0,0,1,,,,,,,,,,,,,,,0,,,69,56
21780,note_on,0,0,1,,,,,,,,,,,,,,,0,,,64,0
21780,note_on,60,0,1,,,,,,,,,,,,,,,0,,,69,0
21840,note_on,60,0,1,,,,,,,,,,,,,,,0,,,64,48
21840,note_on,0,0,1,,,,,,,,,,,,,,,0,,,69,58
21840,note_on,180,0,2,,,,,,,,,,,,,,,0,,,55,38
21840,set_tempo,240,1,0,,,,,,,,,,,,473149,,,,,,,
21840,control_change,0,0,2,,,,,,,,,,,,,,,0,64,0,,
21840,note_on,0,0,2,,,,,,,,,,,,,,,0,,,48,38
21840,note_on,0,0,2,,,,,,,,,,,,,,,0,,,60,45
21854,control_change,14,0,2,,,,,,,,,,,,,,,0,64,127,,
21900,note_on,46,0,2,,,,,,,,,,,,,,,0,,,60,0
21900,note_on,0,0,2,,,,,,,,,,,,,,,0,,,55,0
21900,note_on,0,0,2,,,,,,,,,,,,,,,0,,,48,0
21960,note_on,0,0,1,,,,,,,,,,,,,,,0,,,71,59
21960,note_on,120,0,1,,,,,,,,,,,,,,,0,,,69,0
22020,note_on,0,0,1,,,,,,,,,,,,,,,0,,,64,0
22020,note_on,60,0,1,,,,,,,,,,,,,,,0,,,71,0
22080,note_on,60,0,1,,,,,,,,,,,,,,,0,,,64,50
22080,note_on,0,0,1,,,,,,,,,,,,,,,0,,,71,60
22080,control_change,180,0,2,,,,,,,,,,,,,,,0,64,0,,
22080,note_on,0,0,2,,,,,,,,,,,,,,,0,,,60,47
22080,note_on,0,0,2,,,,,,,,,,,,,,,0,,,48,39
22080,note_on,0,0,2,,,,,,,,,,,,,,,0,,,55,39
22103,control_change,23,0,2,,,,,,,,,,,,,,,0,64,127,,
22140,note_on,0,0,2,,,,,,,,,,,,,,,0,,,60,0
22140,note_on,37,0,2,,,,,,,,,,,,,,,0,,,55,0
22140,note_on,0,0,2,,,,,,,,,,,,,,,0,,,48,0
22200,note_on,0,0,1,,,,,,,,,,,,,,,0,,,72,61
22200,note_on,120,0,1,,,,,,,,,,,,,,,0,,,71,0
22200,set_tempo,360,1,0,,,,,,,,,,,,471254,,,,,,,
22260,note_on,60,0,1,,,,,,,,,,,,,,,0,,,72,0
22260,note_on,0,0,1,,,,,,,,,,,,,,,0,,,64,0
22320,set_tempo,120,1,0,,,,,,,,,,,,465658,,,,,,,
22320,note_on,0,0,1,,,,,,,,,,,,,,,0,,,72,63
22320,control_change,180,0,2,,,,,,,,,,,,,,,0,64,0,,
22320,note_on,0,0,2,,,,,,,,,,,,,,,0,,,55,45
22320,note_on,0,0,2,,,,,,,,,,,,,,,0,,,60,54
22320,note_on,0,0,2,,,,,,,,,,,,,,,0,,,48,45
22320,note_on,60,0,1,,,,,,,,,,,,,,,0,,,64,53
22363,control_change,43,0,2,,,,,,,,,,,,,,,0,64,127,,
22380,note_on,0,0,2,,,,,,,,,,,,,,,0,,,55,0
22380,note_on,17,0,2,,,,,,,,,,,,,,,0,,,60,0
22380,note_on,0,0,2,,,,,,,,,,,,,,,0,,,48,0
22440,note_on,0,0,1,,,,,,,,,,,,,,,0,,,74,63
22440,note_on,120,0,1,,,,,,,,,,,,,,,0,,,72,0
22500,note_on,0,0,1,,,,,,,,,,,,,,,0,,,64,0
22500,note_on,60,0,1,,,,,,,,,,,,,,,0,,,74,0
22560,note_on,180,0,2,,,,,,,,,,,,,,,0,,,54,42
22560,note_on,0,0,2,,,,,,,,,,,,,,,0,,,48,42
22560,note_on,0,0,1,,,,,,,,,,,,,,,0,,,74,65
22560,note_on,0,0,2,,,,,,,,,,,,,,,0,,,60,51
22560,note_on,60,0,1,,,,,,,,,,,,,,,0,,,64,54
22560,note_on,0,0,1,,,,,,,,,,,,,,,0,,,69,54
22574,control_change,14,0,2,,,,,,,,,,,,,,,0,64,0,,
22600,control_change,26,0,2,,,,,,,,,,,,,,,0,64,127,,
22620,note_on,0,0,2,,,,,,,,,,,,,,,0,,,48,0
22620,note_on,20,0,2,,,,,,,,,,,,,,,0,,,60,0
22680,note_on,0,0,1,,,,,,,,,,,,,,,0,,,76,66
22680,note_on,120,0,1,,,,,,,,,,,,,,,0,,,74,0
22740,note_on,0,0,1,,,,,,,,,,,,,,,0,,,64,0
22740,note_on,0,0,1,,,,,,,,,,,,,,,0,,,69,0
22740,note_on,60,0,1,,,,,,,,,,,,,,,0,,,76,0
22794,control_change,174,0,2,,,,,,,,,,,,,,,0,64,0,,
22800,note_on,60,0,1,,,,,,,,,,,,,,,0,,,69,56
22800,note_on,0,0,2,,,,,,,,,,,,,,,0,,,47,44
22800,set_tempo,480,1,0,,,,,,,,,,,,482820,,,,,,,
22800,note_on,0,0,1,,,,,,,,,,,,,,,0,,,76,67
22800,note_on,6,0,2,,,,,,,,,,,,,,,0,,,59,52
22837,control_change,37,0,2,,,,,,,,,,,,,,,0,64,127,,
22860,note_on,0,0,2,,,,,,,,,,,,,,,0,,,59,0
22860,note_on,23,0,2,,,,,,,,,,,,,,,0,,,47,0
22920,set_tempo,120,1,0,,,,,,,,,,,,561010,,,,,,,
22920,note_on,120,0,1,,,,,,,,,,,,,,,0,,,76,0
22920,note_on,0,0,1,,,,,,,,,,,,,,,0,,,78,68
22920,note_on,0,0,1,,,,,,,,,,,,,,,0,,,75,68
22980,note_on,0,0,1,,,,,,,,,,,,,,,0,,,69,0
22980,note_on,60,0,1,,,,,,,,,,,,,,,0,,,75,0
22980,note_on,0,0,1,,,,,,,,,,,,,,,0,,,78,0
23020,control_change,160,0,2,,,,,,,,,,,,,,,0,64,0,,
23040,note_on,0,0,2,,,,,,,,,,,,,,,0,,,52,43
23040,note_on,0,0,1,,,,,,,,,,,,,,,0,,,76,56
23040,set_tempo,120,1,0,,,,,,,,,,,,473149,,,,,,,
23040,note_on,20,0,2,,,,,,,,,,,,,,,0,,,54,0
23040,note_on,60,0,1,,,,,,,,,,,,,,,0,,,67,56
23040,note_on,0,0,2,,,,,,,,,,,,,,,0,,,59,51
23040,note_on,0,0,1,,,,,,,,,,,,,,,0,,,79,67
23075,control_change,35,0,2,,,,,,,,,,,,,,,0,64,127,,
23160,note_on,85,0,2,,,,,,,,,,,,,,,0,,,59,0
23160,note_on,120,0,1,,,,,,,,,,,,,,,0,,,79,0
23160,note_on,0,0,1,,,,,,,,,,,,,,,0,,,76,0
23160,note_on,0,0,1,,,,,,,,,,,,,,,0,,,67,0
23160,note_on,0,0,2,,,,,,,,,,,,,,,0,,,52,0
23259,control_change,99,0,2,,,,,,,,,,,,,,,0,64,0,,
23280,note_on,0,0,2,,,,,,,,,,,,,,,0,,,47,41
23280,note_on,21,0,2,,,,,,,,,,,,,,,0,,,59,49
23280,note_on,120,0,1,,,,,,,,,,,,,,,0,,,69,56
23280,note_on,0,0,1,,,,,,,,,,,,,,,0,,,79,67
23280,note_on,0,0,1,,,,,,,,,,,,,,,0,,,76,56
23315,control_change,35,0,2,,,,,,,,,,,,,,,0,64,127,,
23400,note_on,0,0,1,,,,,,,,,,,,,,,0,,,76,0
23400,note_on,120,0,1,,,,,,,,,,,,,,,0,,,79,0
23400,note_on,0,0,1,,,,,,,,,,,,,,,0,,,78,64
23400,note_on,0,0,1,,,,,,,,,,,,,,,0,,,75,54
23460,note_on,0,0,1,,,,,,,,,,,,,,,0,,,69,0
23460,note_on,0,0,1,,,,,,,,,,,,,,,0,,,75,0
23460,note_on,60,0,1,,,,,,,,,,,,,,,0,,,78,0
23460,note_on,0,0,2,,,,,,,,,,,,,,,0,,,59,0
23460,note_on,145,0,2,,,,,,,,,,,,,,,0,,,47,0
23520,note_on,60,0,2,,,,,,,,,,,,,,,0,,,52,41
23520,note_on,60,0,1,,,,,,,,,,,,,,,0,,,67,56
23520,note_on,0,0,2,,,,,,,,,,,,,,,0,,,59,49
23520,note_on,0,0,1,,,,,,,,,,,,,,,0,,,78,67
23520,note_on,0,0,1,,,,,,,,,,,,,,,0,,,75,56
23527,control_change,7,0,2,,,,,,,,,,,,,,,0,64,0,,
23552,control_change,25,0,2,,,,,,,,,,,,,,,0,64,127,,
23640,note_on,120,0,1,,,,,,,,,,,,,,,0,,,78,0
23640,note_on,0,0,1,,,,,,,,,,,,,,,0,,,79,65
23640,note_on,0,0,1,,,,,,,,,,,,,,,0,,,76,55
23640,note_on,0,0,1,,,,,,,,,,,,,,,0,,,75,0
23700,note_on,148,0,2,,,,,,,,,,,,,,,0,,,59,0
23700,note_on,0,0,1,,,,,,,,,,,,,,,0,,,67,0
23700,note_on,0,0,1,,,,,,,,,,,,,,,0,,,76,0
23700,note_on,60,0,1,,,,,,,,,,,,,,,0,,,79,0
23700,note_on,0,0,2,,,,,,,,,,,,,,,0,,,52,0
23740,set_tempo,700,1,0,,,,,,,,,,,,469373,,,,,,,
23760,set_tempo,20,1,0,,,,,,,,,,,,480846,,,,,,,
23760,control_change,0,0,2,,,,,,,,,,,,,,,0,64,0,,
23760,note_on,0,0,1,,,,,,,,,,,,,,,0,,,76,58
23760,note_on,60,0,1,,,,,,,,,,,,,,,0,,,69,58
23760,note_on,0,0,2,,,,,,,,,,,,,,,0,,,59,51
23760,note_on,0,0,1,,,,,,,,,,,,,,,0,,,79,70
23760,note_on,60,0,2,,,,,,,,,,,,,,,0,,,47,43
23795,control_change,35,0,2,,,,,,,,,,,,,,,0,64,127,,
23880,note_on,120,0,1,,,,,,,,,,,,,,,0,,,79,0
23880,note_on,0,0,1,,,,,,,,,,,,,,,0,,,76,0
23880,note_on,0,0,1,,,,,,,,,,,,,,,0,,,75,58
23880,note_on,0,0,1,,,,,,,,,,,,,,,0,,,78,69
23940,note_on,0,0,2,,,,,,,,,,,,,,,0,,,47,0
23940,note_on,145,0,2,,,,,,,,,,,,,,,0,,,59,0
23940,note_on,60,0,1,,,,,,,,,,,,,,,0,,,78,0
23940,note_on,0,0,1,,,,,,,,,,,,,,,0,,,75,0
23940,note_on,0,0,1,,,,,,,,,,,,,,,0,,,69,0
24000,note_on,60,0,2,,,,,,,,,,,,,,,0,,,52,45
24000,note_on,60,0,1,,,,,,,,,,,,,,,0,,,67,62
24000,note_on,0,0,1,,,,,,,,,,,,,,,0,,,78,74
24000,note_on,0,0,2,,,,,,,,,,,,,,,0,,,59,54
24000,note_on,0,0,1,,,,,,,,,,,,,,,0,,,75,62
24009,control_change,9,0,2,,,,,,,,,,,,,,,0,64,0,,
24032,control_change,23,0,2,,,,,,,,,,,,,,,0,64,127,,
24120,note_on,120,0,1,,,,,,,,,,,,,,,0,,,78,0
24120,note_on,0,0,1,,,,,,,,,,,,,,,0,,,76,61
24120,note_on,0,0,1,,,,,,,,,,,,,,,0,,,79,72
24120,set_tempo,360,1,0,,,,,,,,,,,,488838,,,,,,,
24120,note_on,0,0,1,,,,,,,,,,,,,,,0,,,75,0
24180,note_on,0,0,2,,,,,,,,,,,,,,,0,,,52,0
24180,note_on,60,0,1,,,,,,,,,,,,,,,0,,,79,0
24180,note_on,148,0,2,,,,,,,,,,,,,,,0,,,59,0
24180,note_on,0,0,1,,,,,,,,,,,,,,,0,,,67,0
24180,note_on,0,0,1,,,,,,,,,,,,,,,0,,,76,0
24240,note_on,0,0,1,,,,,,,,,,,,,,,0,,,79,77
24240,note_on,0,0,1,,,,,,,,,,,,,,,0,,,76,64
24240,note_on,60,0,1,,,,,,,,,,,,,,,0,,,67,64
24240,set_tempo,120,1,0,,,,,,,,,,,,478927,,,,,,,
24240,note_on,0,0,2,,,,,,,,,,,,,,,0,,,47,47
24240,note_on,60,0,2,,,,,,,,,,,,,,,0,,,59,56
24250,control_change,10,0,2,,,,,,,,,,,,,,,0,64,0,,
24293,control_change,43,0,2,,,,,,,,,,,,,,,0,64,127,,
24360,note_on,0,0,1,,,,,,,,,,,,,,,0,,,79,0
24360,note_on,0,0,1,,,,,,,,,,,,,,,0,,,67,0
24360,note_on,0,0,1,,,,,,,,,,,,,,,0,,,68,62
24360,note_on,120,0,1,,,,,,,,,,,,,,,0,,,76,0
24360,note_on,0,0,1,,,,,,,,,,,,,,,0,,,80,73
24360,note_on,0,0,1,,,,,,,,,,,,,,,0,,,77,62
24420,note_on,0,0,1,,,,,,,,,,,,,,,0,,,80,0
24420,note_on,0,0,1,,,,,,,,,,,,,,,0,,,77,0
24420,note_on,127,0,2,,,,,,,,,,,,,,,0,,,47,0
24420,note_on,0,0,2,,,,,,,,,,,,,,,0,,,59,0
24420,note_on,60,0,1,,,,,,,,,,,,,,,0,,,68,0
24480,note_on,60,0,1,,,,,,,,,,,,,,,0,,,68,64
24480,note_on,0,0,1,,,,,,,,,,,,,,,0,,,80,77
24480,note_on,0,0,2,,,,,,,,,,,,,,,0,,,47,47
24480,note_on,0,0,1,,,,,,,,,,,,,,,0,,,77,64
24480,set_tempo,240,1,0,,,,,,,,,,,,486815,,,,,,,
24480,note_on,60,0,2,,,,,,,,,,,,,,,0,,,59,56
24490,control_change,10,0,2,,,,,,,,,,,,,,,0,64,0,,
24500,set_tempo,20,1,0,,,,,,,,,,,,467472,,,,,,,
24533,control_change,43,0,2,,,,,,,,,,,,,,,0,64,127,,
24580,set_tempo,80,1,0,,,,,,,,,,,,469373,,,,,,,
24600,note_on,120,0,1,,,,,,,,,,,,,,,0,,,77,0
24600,note_on,0,0,1,,,,,,,,,,,,,,,0,,,69,62
24600,note_on,0,0,1,,,,,,,,,,,,,,,0,,,68,0
24600,note_on,0,0,1,,,,,,,,,,,,,,,0,,,78,62
24600,note_on,0,0,1,,,,,,,,,,,,,,,0,,,81,73
24600,note_on,0,0,1,,,,,,,,,,,,,,,0,,,80,0
24640,set_tempo,60,1,0,,,,,,,,,,,,471254,,,,,,,
24660,note_on,0,0,2,,,,,,,,,,,,,,,0,,,59,0
24660,note_on,127,0,2,,,,,,,,,,,,,,,0,,,47,0
24660,note_on,0,0,1,,,,,,,,,,,,,,,0,,,78,0
24660,note_on,0,0,1,,,,,,,,,,,,,,,0,,,81,0
24660,note_on,60,0,1,,,,,,,,,,,,,,,0,,,69,0
24720,note_on,0,0,1,,,,,,,,,,,,,,,0,,,81,78
24720,note_on,0,0,1,,,,,,,,,,,,,,,0,,,78,65
24720,note_on,0,0,2,,,,,,,,,,,,,,,0,,,53,47
24720,note_on,0,0,2,,,,,,,,,,,,,,,0,,,62,57
24720,note_on,60,0,2,,,,,,,,,,,,,,,0,,,59,47
24720,note_on,60,0,1,,,,,,,,,,,,,,,0,,,69,65
24720,set_tempo,80,1,0,,,,,,,,,,,,473149,,,,,,,
24730,control_change,10,0,2,,,,,,,,,,,,,,,0,64,0,,
24773,control_change,43,0,2,,,,,,,,,,,,,,,0,64,127,,
24780,set_tempo,60,1,0,,,,,,,,,,,,475059,,,,,,,
24840,note_on,0,0,1,,,,,,,,,,,,,,,0,,,77,63
24840,note_on,0,0,1,,,,,,,,,,,,,,,0,,,68,63
24840,note_on,120,0,1,,,,,,,,,,,,,,,0,,,78,0
24840,note_on,0,0,1,,,,,,,,,,,,,,,0,,,80,75
24840,note_on,0,0,1,,,,,,,,,,,,,,,0,,,69,0
24840,note_on,0,0,1,,,,,,,,,,,,,,,0,,,81,0
24860,set_tempo,80,1,0,,,,,,,,,,,,476948,,,,,,,
24900,note_on,127,0,2,,,,,,,,,,,,,,,0,,,53,0
24900,note_on,0,0,2,,,,,,,,,,,,,,,0,,,62,0
24900,note_on,0,0,2,,,,,,,,,,,,,,,0,,,59,0
24900,note_on,60,0,1,,,,,,,,,,,,,,,0,,,68,0
24900,note_on,0,0,1,,,,,,,,,,,,,,,0,,,80,0
24900,note_on,0,0,1,,,,,,,,,,,,,,,0,,,77,0
24920,set_tempo,60,1,0,,,,,,,,,,,,478927,,,,,,,
24960,note_on,0,0,2,,,,,,,,,,,,,,,0,,,59,49
24960,note_on,60,0,2,,,,,,,,,,,,,,,0,,,63,58
24960,note_on,0,0,2,,,,,,,,,,,,,,,0,,,54,49
24960,note_on,0,0,1,,,,,,,,,,,,,,,0,,,80,80
24960,note_on,0,0,1,,,,,,,,,,,,,,,0,,,77,67
24960,note_on,60,0,1,,,,,,,,,,,,,,,0,,,68,67
24970,control_change,10,0,2,,,,,,,,,,,,,,,0,64,0,,
25000,set_tempo,80,1,0,,,,,,,,,,,,480846,,,,,,,
25013,control_change,43,0,2,,,,,,,,,,,,,,,0,64,127,,
25060,set_tempo,60,1,0,,,,,,,,,,,,482820,,,,,,,
25080,note_on,0,0,1,,,,,,,,,,,,,,,0,,,69,65
25080,note_on,0,0,1,,,,,,,,,,,,,,,0,,,81,77
25080,note_on,0,0,1,,,,,,,,,,,,,,,0,,,78,65
25080,note_on,0,0,1,,,,,,,,,,,,,,,0,,,68,0
25080,note_on,0,0,1,,,,,,,,,,,,,,,0,,,80,0
25080,note_on,120,0,1,,,,,,,,,,,,,,,0,,,77,0
25140,note_on,0,0,2,,,,,,,,,,,,,,,0,,,59,0
25140,note_on,0,0,1,,,,,,,,,,,,,,,0,,,81,0
25140,note_on,0,0,1,,,,,,,,,,,,,,,0,,,78,0
25140,set_tempo,80,1,0,,,,,,,,,,,,484809,,,,,,,
25140,note_on,127,0,2,,,,,,,,,,,,,,,0,,,54,0
25140,note_on,60,0,1,,,,,,,,,,,,,,,0,,,69,0
25140,note_on,0,0,2,,,,,,,,,,,,,,,0,,,63,0
25160,set_tempo,20,1,0,,,,,,,,,,,,480846,,,,,,,
25200,note_on,60,0,2,,,,,,,,,,,,,,,0,,,53,50
25200,note_on,60,0,1,,,,,,,,,,,,,,,0,,,69,68
25200,note_on,0,0,1,,,,,,,,,,,,,,,0,,,81,82
25200,note_on,0,0,2,,,,,,,,,,,,,,,0,,,59,50
25200,note_on,0,0,2,,,,,,,,,,,,,,,0,,,62,59
25200,note_on,0,0,1,,,,,,,,,,,,,,,0,,,78,68
25210,control_change,10,0,2,,,,,,,,,,,,,,,0,64,0,,
25220,set_tempo,60,1,0,,,,,,,,,,,,482820,,,,,,,
25253,control_change,43,0,2,,,,,,,,,,,,,,,0,64,127,,
25260,set_tempo,40,1,0,,,,,,,,,,,,484809,,,,,,,
25300,set_tempo,40,1,0,,,,,,,,,,,,486815,,,,,,,
25320,note_on,0,0,1,,,,,,,,,,,,,,,0,,,77,66
25320,note_on,0,0,1,,,,,,,,,,,,,,,0,,,80,78
25320,note_on,0,0,1,,,,,,,,,,,,,,,0,,,69,0
25320,note_on,0,0,1,,,,,,,,,,,,,,,0,,,81,0
25320,note_on,120,0,1,,,,,,,,,,,,,,,0,,,78,0
25320,note_on,0,0,1,,,,,,,,,,,,,,,0,,,68,66
25360,set_tempo,60,1,0,,,,,,,,,,,,488838,,,,,,,
25380,note_on,0,0,1,,,,,,,,,,,,,,,0,,,80,0
25380,note_on,60,0,1,,,,,,,,,,,,,,,0,,,68,0
25380,note_on,127,0,2,,,,,,,,,,,,,,,0,,,62,0
25380,note_on,0,0,2,,,,,,,,,,,,,,,0,,,59,0
25380,note_on,0,0,2,,,,,,,,,,,,,,,0,,,53,0
25380,note_on,0,0,1,,,,,,,,,,,,,,,0,,,77,0
25400,set_tempo,40,1,0,,,,,,,,,,,,490878,,,,,,,
25440,note_on,60,0,2,,,,,,,,,,,,,,,0,,,59,51
25440,set_tempo,40,1,0,,,,,,,,,,,,492935,,,,,,,
25440,note_on,0,0,2,,,,,,,,,,,,,,,0,,,63,61
25440,note_on,0,0,1,,,,,,,,,,,,,,,0,,,80,84
25440,note_on,60,0,1,,,,,,,,,,,,,,,0,,,68,70
25440,note_on,0,0,2,,,,,,,,,,,,,,,0,,,54,51
25440,note_on,0,0,1,,,,,,,,,,,,,,,0,,,77,70
25450,control_change,10,0,2,,,,,,,,,,,,,,,0,64,0,,
25480,set_tempo,40,1,0,,,,,,,,,,,,495009,,,,,,,
25493,control_change,43,0,2,,,,,,,,,,,,,,,0,64,127,,
25540,set_tempo,60,1,0,,,,,,,,,,,,497100,,,,,,,
25560,note_on,120,0,1,,,,,,,,,,,,,,,0,,,77,0
25560,note_on,0,0,1,,,,,,,,,,,,,,,0,,,80,0
25560,note_on,0,0,1,,,,,,,,,,,,,,,0,,,68,0
25560,note_on,0,0,1,,,,,,,,,,,,,,,0,,,78,68
25560,note_on,0,0,1,,,,,,,,,,,,,,,0,,,69,68
25560,note_on,0,0,1,,,,,,,,,,,,,,,0,,,81,81
25580,set_tempo,40,1,0,,,,,,,,,,,,499168,,,,,,,
25620,set_tempo,40,1,0,,,,,,,,,,,,501337,,,,,,,
25620,note_on,60,0,1,,,,,,,,,,,,,,,0,,,69,0
25620,note_on,127,0,2,,,,,,,,,,,,,,,0,,,54,0
25620,note_on,0,0,2,,,,,,,,,,,,,,,0,,,59,0
25620,note_on,0,0,1,,,,,,,,,,,,,,,0,,,81,0
25620,note_on,0,0,1,,,,,,,,,,,,,,,0,,,78,0
25620,note_on,0,0,2,,,,,,,,,,,,,,,0,,,63,0
25660,set_tempo,40,1,0,,,,,,,,,,,,503482,,,,,,,
25680,note_on,60,0,2,,,,,,,,,,,,,,,0,,,47,62
25680,note_on,0,0,2,,,,,,,,,,,,,,,0,,,35,52
25680,set_tempo,20,1,0,,,,,,,,,,,,533096,,,,,,,
25680,note_on,0,0,1,,,,,,,,,,,,,,,0,,,78,71
25680,note_on,0,0,1,,,,,,,,,,,,,,,0,,,81,86
25680,note_on,60,0,1,,,,,,,,,,,,,,,0,,,69,71
25690,control_change,10,0,2,,,,,,,,,,,,,,,0,64,0,,
25700,set_tempo,20,1,0,,,,,,,,,,,,521286,,,,,,,
25720,set_tempo,20,1,0,,,,,,,,,,,,523606,,,,,,,
25733,control_change,43,0,2,,,,,,,,,,,,,,,0,64,127,,
25740,set_tempo,20,1,0,,,,,,,,,,,,525947,,,,,,,
25760,set_tempo,20,1,0,,,,,,,,,,,,528309,,,,,,,
25800,set_tempo,40,1,0,,,,,,,,,,,,558347,,,,,,,
25800,note_on,120,0,1,,,,,,,,,,,,,,,0,,,78,0
25800,note_on,0,0,1,,,,,,,,,,,,,,,0,,,69,0
25800,note_on,0,0,1,,,,,,,,,,,,,,,0,,,82,82
25800,note_on,0,0,1,,,,,,,,,,,,,,,0,,,70,70
25800,note_on,0,0,1,,,,,,,,,,,,,,,0,,,81,0
25860,note_on,60,0,1,,,,,,,,,,,,,,,0,,,70,0
25860,note_on,0,0,1,,,,,,,,,,,,,,,0,,,82,0
25860,note_on,0,0,2,,,,,,,,,,,,,,,0,,,47,0
25860,note_on,127,0,2,,,,,,,,,,,,,,,0,,,35,0
25920,note_on,0,0,2,,,,,,,,,,,,,,,0,,,46,66
25920,note_on,60,0,2,,,,,,,,,,,,,,,0,,,34,56
25920,set_tempo,120,1,0,,,,,,,,,,,,505604,,,,,,,
25920,note_on,60,0,1,,,,,,,,,,,,,,,0,,,70,73
25920,note_on,0,0,1,,,,,,,,,,,,,,,0,,,78,73
25920,note_on,0,0,1,,,,,,,,,,,,,,,0,,,82,88
25931,control_change,11,0,2,,,,,,,,,,,,,,,0,64,0,,
25955,control_change,24,0,2,,,,,,,,,,,,,,,0,64,127,,
26160,note_on,205,0,2,,,,,,,,,,,,,,,0,,,46,0
26160,note_on,0,0,2,,,,,,,,,,,,,,,0,,,34,0
26160,note_on,0,0,2,,,,,,,,,,,,,,,0,,,54,49
26160,note_on,0,0,2,,,,,,,,,,,,,,,0,,,58,49
26160,note_on,240,0,1,,,,,,,,,,,,,,,0,,,82,0
26160,note_on,0,0,2,,,,,,,,,,,,,,,0,,,63,58
26160,note_on,0,0,1,,,,,,,,,,,,,,,0,,,70,70
26160,note_on,0,0,1,,,,,,,,,,,,,,,0,,,78,0
26160,set_tempo,240,1,0,,,,,,,,,,,,495009,,,,,,,
26160,note_on,0,0,1,,,,,,,,,,,,,,,0,,,78,70
26160,note_on,0,0,1,,,,,,,,,,,,,,,0,,,82,83
26160,note_on,0,0,1,,,,,,,,,,,,,,,0,,,70,0
26180,control_change,20,0,2,,,,,,,,,,,,,,,0,64,0,,
26197,control_change,17,0,2,,,,,,,,,,,,,,,0,64,127,,
26280,note_on,0,0,1,,,,,,,,,,,,,,,0,,,80,77
26280,note_on,0,0,1,,,,,,,,,,,,,,,0,,,77,65
26280,note_on,120,0,1,,,,,,,,,,,,,,,0,,,78,0
26340,note_on,143,0,2,,,,,,,,,,,,,,,0,,,63,0
26340,note_on,0,0,2,,,,,,,,,,,,,,,0,,,58,0
26340,note_on,0,0,2,,,,,,,,,,,,,,,0,,,54,0
26340,note_on,0,0,1,,,,,,,,,,,,,,,0,,,77,0
26340,note_on,60,0,1,,,,,,,,,,,,,,,0,,,80,0
26340,note_on,0,0,1,,,,,,,,,,,,,,,0,,,82,0
26340,note_on,0,0,1,,,,,,,,,,,,,,,0,,,70,0
26400,note_on,0,0,2,,,,,,,,,,,,,,,0,,,66,52
26400,set_tempo,240,1,0,,,,,,,,,,,,484809,,,,,,,
26400,note_on,0,0,1,,,,,,,,,,,,,,,0,,,80,75
26400,note_on,0,0,1,,,,,,,,,,,,,,,0,,,77,63
26400,note_on,0,0,1,,,,,,,,,,,,,,,0,,,82,75
26400,note_on,60,0,1,,,,,,,,,,,,,,,0,,,70,63
26400,note_on,60,0,2,,,,,,,,,,,,,,,0,,,63,44
26400,note_on,0,0,2,,,,,,,,,,,,,,,0,,,58,44
26414,control_change,14,0,2,,,,,,,,,,,,,,,0,64,0,,
26426,control_change,12,0,2,,,,,,,,,,,,,,,0,64,127,,
26520,set_tempo,120,1,0,,,,,,,,,,,,521286,,,,,,,
26520,note_on,0,0,1,,,,,,,,,,,,,,,0,,,75,58
26520,note_on,0,0,1,,,,,,,,,,,,,,,0,,,77,0
26520,note_on,120,0,1,,,,,,,,,,,,,,,0,,,80,0
26520,note_on,0,0,1,,,,,,,,,,,,,,,0,,,78,69
26580,note_on,0,0,1,,,,,,,,,,,,,,,0,,,82,0
26580,note_on,0,0,1,,,,,,,,,,,,,,,0,,,75,0
26580,note_on,0,0,1,,,,,,,,,,,,,,,0,,,70,0
26580,note_on,60,0,1,,,,,,,,,,,,,,,0,,,78,0
26580,note_on,154,0,2,,,,,,,,,,,,,,,0,,,58,0
26580,note_on,0,0,2,,,,,,,,,,,,,,,0,,,66,0
26580,note_on,0,0,2,,,,,,,,,,,,,,,0,,,63,0
26640,set_tempo,120,1,0,,,,,,,,,,,,501337,,,,,,,
26640,note_on,60,0,2,,,,,,,,,,,,,,,0,,,46,56
26640,note_on,0,0,2,,,,,,,,,,,,,,,0,,,58,66
26640,note_on,60,0,1,,,,,,,,,,,,,,,0,,,77,73
26640,note_on,0,0,1,,,,,,,,,,,,,,,0,,,70,73
26640,note_on,0,0,1,,,,,,,,,,,,,,,0,,,80,73
26640,note_on,0,0,1,,,,,,,,,,,,,,,0,,,82,88
26651,control_change,11,0,2,,,,,,,,,,,,,,,0,64,0,,
26675,control_change,24,0,2,,,,,,,,,,,,,,,0,64,127,,
26880,note_on,0,0,2,,,,,,,,,,,,,,,0,,,46,0
26880,set_tempo,240,1,0,,,,,,,,,,,,495009,,,,,,,
26880,note_on,240,0,1,,,,,,,,,,,,,,,0,,,82,0
26880,note_on,0,0,1,,,,,,,,,,,,,,,0,,,77,0
26880,note_on,0,0,1,,,,,,,,,,,,,,,0,,,70,0
26880,note_on,0,0,1,,,,,,,,,,,,,,,0,,,80,0
26880,note_on,0,0,1,,,,,,,,,,,,,,,0,,,77,70
26880,note_on,0,0,1,,,,,,,,,,,,,,,0,,,70,70
26880,note_on,0,0,1,,,,,,,,,,,,,,,0,,,82,83
26880,note_on,0,0,1,,,,,,,,,,,,,,,0,,,80,70
26880,note_on,0,0,2,,,,,,,,,,,,,,,0,,,62,58
26880,note_on,0,0,2,,,,,,,,,,,,,,,0,,,53,49
26880,note_on,205,0,2,,,,,,,,,,,,,,,0,,,58,0
26900,set_tempo,20,1,0,,,,,,,,,,,,507829,,,,,,,
26900,control_change,20,0,2,,,,,,,,,,,,,,,0,64,0,,
26917,control_change,17,0,2,,,,,,,,,,,,,,,0,64,127,,
27000,note_on,0,0,1,,,,,,,,,,,,,,,0,,,77,0
27000,note_on,0,0,1,,,,,,,,,,,,,,,0,,,78,77
27000,note_on,0,0,1,,,,,,,,,,,,,,,0,,,75,65
27000,note_on,120,0,1,,,,,,,,,,,,,,,0,,,80,0
27060,note_on,143,0,2,,,,,,,,,,,,,,,0,,,62,0
27060,note_on,0,0,1,,,,,,,,,,,,,,,0,,,78,0
27060,note_on,0,0,1,,,,,,,,,,,,,,,0,,,82,0
27060,note_on,0,0,2,,,,,,,,,,,,,,,0,,,53,0
27060,note_on,0,0,1,,,,,,,,,,,,,,,0,,,70,0
27060,note_on,60,0,1,,,,,,,,,,,,,,,0,,,75,0
27120,note_on,0,0,2,,,,,,,,,,,,,,,0,,,65,44
27120,note_on,0,0,1,,,,,,,,,,,,,,,0,,,78,75
27120,note_on,0,0,1,,,,,,,,,,,,,,,0,,,75,63
27120,note_on,0,0,1,,,,,,,,,,,,,,,0,,,82,75
27120,note_on,60,0,1,,,,,,,,,,,,,,,0,,,70,63
27120,note_on,0,0,2,,,,,,,,,,,,,,,0,,,68,52
27120,note_on,60,0,2,,,,,,,,,,,,,,,0,,,58,44
27134,control_change,14,0,2,,,,,,,,,,,,,,,0,64,0,,
27146,control_change,12,0,2,,,,,,,,,,,,,,,0,64,127,,
27240,set_tempo,340,1,0,,,,,,,,,,,,507829,,,,,,,
27240,note_on,120,0,1,,,,,,,,,,,,,,,0,,,78,0
27240,note_on,0,0,1,,,,,,,,,,,,,,,0,,,77,69
27240,note_on,0,0,1,,,,,,,,,,,,,,,0,,,74,58
27240,note_on,0,0,1,,,,,,,,,,,,,,,0,,,75,0
27300,note_on,0,0,2,,,,,,,,,,,,,,,0,,,58,0
27300,note_on,60,0,1,,,,,,,,,,,,,,,0,,,77,0
27300,note_on,154,0,2,,,,,,,,,,,,,,,0,,,65,0
27300,note_on,0,0,1,,,,,,,,,,,,,,,0,,,74,0
27300,note_on,0,0,1,,,,,,,,,,,,,,,0,,,70,0
27300,note_on,0,0,2,,,,,,,,,,,,,,,0,,,68,0
27300,note_on,0,0,1,,,,,,,,,,,,,,,0,,,82,0
27360,note_on,60,0,1,,,,,,,,,,,,,,,0,,,75,65
27360,note_on,0,0,1,,,,,,,,,,,,,,,0,,,70,65
27360,note_on,0,0,1,,,,,,,,,,,,,,,0,,,78,65
27360,note_on,0,0,1,,,,,,,,,,,,,,,0,,,82,79
27360,note_on,0,0,2,,,,,,,,,,,,,,,0,,,51,59
27360,note_on,60,0,2,,,,,,,,,,,,,,,0,,,39,50
27360,set_tempo,120,1,0,,,,,,,,,,,,497100,,,,,,,
27371,control_change,11,0,2,,,,,,,,,,,,,,,0,64,0,,
27380,set_tempo,20,1,0,,,,,,,,,,,,516707,,,,,,,
27395,control_change,24,0,2,,,,,,,,,,,,,,,0,64,127,,
27480,note_on,0,0,1,,,,,,,,,,,,,,,0,,,75,0
27480,note_on,0,0,2,,,,,,,,,,,,,,,0,,,39,0
27480,note_on,85,0,2,,,,,,,,,,,,,,,0,,,51,0
27480,note_on,0,0,1,,,,,,,,,,,,,,,0,,,70,0
27480,note_on,120,0,1,,,,,,,,,,,,,,,0,,,82,0
27480,note_on,0,0,1,,,,,,,,,,,,,,,0,,,78,0
27480,set_tempo,100,1,0,,,,,,,,,,,,574713,,,,,,,
27600,note_on,120,0,1,,,,,,,,,,,,,,,0,,,70,63
27600,note_on,0,0,1,,,,,,,,,,,,,,,0,,,78,63
27600,note_on,120,0,2,,,,,,,,,,,,,,,0,,,51,44
27600,note_on,0,0,2,,,,,,,,,,,,,,,0,,,58,52
27600,set_tempo,120,1,0,,,,,,,,,,,,514447,,,,,,,
27620,control_change,20,0,2,,,,,,,,,,,,,,,0,64,0,,
27637,control_change,17,0,2,,,,,,,,,,,,,,,0,64,127,,
27720,note_on,120,0,1,,,,,,,,,,,,,,,0,,,78,0
27720,note_on,0,0,1,,,,,,,,,,,,,,,0,,,77,68
27720,note_on,0,0,1,,,,,,,,,,,,,,,0,,,68,57
27720,note_on,0,0,1,,,,,,,,,,,,,,,0,,,70,0
27780,note_on,0,0,1,,,,,,,,,,,,,,,0,,,77,0
27780,note_on,60,0,1,,,,,,,,,,,,,,,0,,,68,0
27840,note_on,0,0,2,,,,,,,,,,,,,,,0,,,62,44
27840,note_on,60,0,1,,,,,,,,,,,,,,,0,,,68,54
27840,note_on,0,0,1,,,,,,,,,,,,,,,0,,,77,64
27840,note_on,203,0,2,,,,,,,,,,,,,,,0,,,58,0
27854,control_change,14,0,2,,,,,,,,,,,,,,,0,64,0,,
27866,control_change,12,0,2,,,,,,,,,,,,,,,0,64,127,,
27960,note_on,0,0,1,,,,,,,,,,,,,,,0,,,68,0
27960,note_on,0,0,1,,,,,,,,,,,,,,,0,,,75,59
27960,set_tempo,360,1,0,,,,,,,,,,,,523606,,,,,,,
27960,note_on,120,0,1,,,,,,,,,,,,,,,0,,,77,0
27960,note_on,0,0,1,,,,,,,,,,,,,,,0,,,67,49
28020,note_on,60,0,1,,,,,,,,,,,,,,,0,,,75,0
28020,note_on,0,0,1,,,,,,,,,,,,,,,0,,,67,0
28080,note_on,60,0,1,,,,,,,,,,,,,,,0,,,67,61
28080,note_on,0,0,1,,,,,,,,,,,,,,,0,,,75,74
28080,set_tempo,120,1,0,,,,,,,,,,,,540443,,,,,,,
28080,note_on,0,0,2,,,,,,,,,,,,,,,0,,,63,55
28080,note_on,214,0,2,,,,,,,,,,,,,,,0,,,62,0
28091,control_change,11,0,2,,,,,,,,,,,,,,,0,64,0,,
28115,control_change,24,0,2,,,,,,,,,,,,,,,0,64,127,,
28200,note_on,0,0,2,,,,,,,,,,,,,,,0,,,51,0
28200,note_on,85,0,2,,,,,,,,,,,,,,,0,,,63,0
28200,note_on,0,0,1,,,,,,,,,,,,,,,0,,,67,0
28200,note_on,120,0,1,,,,,,,,,,,,,,,0,,,75,0
28300,set_tempo,220,1,0,,,,,,,,,,,,503482,,,,,,,
28320,note_on,0,0,2,,,,,,,,,,,,,,,0,,,51,47
28320,note_on,120,0,2,,,,,,,,,,,,,,,0,,,39,40
28320,set_tempo,20,1,0,,,,,,,,,,,,484809,,,,,,,
28320,note_on,0,0,1,,,,,,,,,,,,,,,0,,,70,57
28320,note_on,120,0,1,,,,,,,,,,,,,,,0,,,67,57
28340,control_change,20,0,2,,,,,,,,,,,,,,,0,64,0,,
28357,control_change,17,0,2,,,,,,,,,,,,,,,0,64,127,,
28360,set_tempo,40,1,0,,,,,,,,,,,,486815,,,,,,,
28380,set_tempo,20,1,0,,,,,,,,,,,,488838,,,,,,,
28400,set_tempo,20,1,0,,,,,,,,,,,,490878,,,,,,,
28440,set_tempo,40,1,0,,,,,,,,,,,,492935,,,,,,,
28440,note_on,0,0,1,,,,,,,,,,,,,,,0,,,64,52
28440,note_on,120,0,1,,,,,,,,,,,,,,,0,,,67,0
28460,set_tempo,20,1,0,,,,,,,,,,,,495009,,,,,,,
28480,set_tempo,20,1,0,,,,,,,,,,,,497100,,,,,,,
28500,note_on,60,0,1,,,,,,,,,,,,,,,0,,,64,0
28500,note_on,0,0,1,,,,,,,,,,,,,,,0,,,70,0
28500,note_on,143,0,2,,,,,,,,,,,,,,,0,,,51,0
28500,note_on,0,0,2,,,,,,,,,,,,,,,0,,,39,0
28520,set_tempo,40,1,0,,,,,,,,,,,,499168,,,,,,,
28540,set_tempo,20,1,0,,,,,,,,,,,,501337,,,,,,,
28560,note_on,0,0,1,,,,,,,,,,,,,,,0,,,67,58
28560,note_on,0,0,1,,,,,,,,,,,,,,,0,,,64,49
28560,note_on,60,0,1,,,,,,,,,,,,,,,0,,,71,58
28560,note_on,0,0,2,,,,,,,,,,,,,,,0,,,61,40
28560,note_on,60,0,2,,,,,,,,,,,,,,,0,,,51,38
28560,set_tempo,20,1,0,,,,,,,,,,,,503482,,,,,,,
28574,control_change,14,0,2,,,,,,,,,,,,,,,0,64,0,,
28586,control_change,12,0,2,,,,,,,,,,,,,,,0,64,127,,
28680,note_on,120,0,1,,,,,,,,,,,,,,,0,,,64,0
28680,note_on,0,0,1,,,,,,,,,,,,,,,0,,,63,45
28740,note_on,0,0,1,,,,,,,,,,,,,,,0,,,71,0
28740,note_on,60,0,1,,,,,,,,,,,,,,,0,,,63,0
28740,note_on,154,0,2,,,,,,,,,,,,,,,0,,,61,0
28740,note_on,0,0,1,,,,,,,,,,,,,,,0,,,67,0
28758,control_change,18,0,2,,,,,,,,,,,,,,,0,64,0,,
28800,note_on,42,0,2,,,,,,,,,,,,,,,0,,,51,0
28800,note_on,0,0,2,,,,,,,,,,,,,,,0,,,44,45
28800,note_on,0,0,1,,,,,,,,,,,,,,,0,,,63,70
28800,note_on,0,0,2,,,,,,,,,,,,,,,0,,,56,54
28800,note_on,60,0,1,,,,,,,,,,,,,,,0,,,59,59
28800,set_tempo,240,1,0,,,,,,,,,,,,480846,,,,,,,
28800,note_on,0,0,2,,,,,,,,,,,,,,,0,,,51,45
28803,control_change,3,0,2,,,,,,,,,,,,,,,0,64,127,,
28909,control_change,106,0,2,,,,,,,,,,,,,,,0,64,0,,
28920,note_on,120,0,1,,,,,,,,,,,,,,,0,,,63,0
28920,note_on,0,0,1,,,,,,,,,,,,,,,0,,,64,59
28980,note_on,0,0,1,,,,,,,,,,,,,,,0,,,59,0
28980,note_on,60,0,1,,,,,,,,,,,,,,,0,,,64,0
28980,note_on,0,0,2,,,,,,,,,,,,,,,0,,,56,0
28980,note_on,71,0,2,,,,,,,,,,,,,,,0,,,51,0
28980,note_on,0,0,2,,,,,,,,,,,,,,,0,,,44,0
29040,note_on,0,0,2,,,,,,,,,,,,,,,0,,,44,49
29040,note_on,0,0,1,,,,,,,,,,,,,,,0,,,64,70
29040,note_on,60,0,1,,,,,,,,,,,,,,,0,,,59,59
29040,set_tempo,240,1,0,,,,,,,,,,,,471254,,,,,,,
29040,note_on,60,0,2,,,,,,,,,,,,,,,0,,,32,41
29054,control_change,14,0,2,,,,,,,,,,,,,,,0,64,127,,
29100,note_on,0,0,2,,,,,,,,,,,,,,,0,,,32,0
29100,note_on,46,0,2,,,,,,,,,,,,,,,0,,,44,0
29154,control_change,54,0,2,,,,,,,,,,,,,,,0,64,0,,
29160,note_on,0,0,1,,,,,,,,,,,,,,,0,,,65,59
29160,note_on,120,0,1,,,,,,,,,,,,,,,0,,,64,0
29220,note_on,0,0,1,,,,,,,,,,,,,,,0,,,59,0
29220,note_on,60,0,1,,,,,,,,,,,,,,,0,,,65,0
29280,note_on,0,0,1,,,,,,,,,,,,,,,0,,,65,70
29280,note_on,0,0,2,,,,,,,,,,,,,,,0,,,51,49
29280,note_on,126,0,2,,,,,,,,,,,,,,,0,,,39,41
29280,note_on,0,0,1,,,,,,,,,,,,,,,0,,,63,59
29280,note_on,60,0,1,,,,,,,,,,,,,,,0,,,59,59
29303,control_change,23,0,2,,,,,,,,,,,,,,,0,64,127,,
29340,note_on,37,0,2,,,,,,,,,,,,,,,0,,,51,0
29340,note_on,0,0,2,,,,,,,,,,,,,,,0,,,39,0
29400,note_on,0,0,1,,,,,,,,,,,,,,,0,,,66,59
29400,note_on,120,0,1,,,,,,,,,,,,,,,0,,,65,0
29400,set_tempo,360,1,0,,,,,,,,,,,,471254,,,,,,,
29429,control_change,89,0,2,,,,,,,,,,,,,,,0,64,0,,
29460,note_on,0,0,1,,,,,,,,,,,,,,,0,,,63,0
29460,note_on,60,0,1,,,,,,,,,,,,,,,0,,,66,0
29460,note_on,0,0,1,,,,,,,,,,,,,,,0,,,59,0
29520,note_on,60,0,1,,,,,,,,,,,,,,,0,,,59,59
29520,note_on,0,0,2,,,,,,,,,,,,,,,0,,,44,49
29520,note_on,0,0,1,,,,,,,,,,,,,,,0,,,63,59
29520,note_on,0,0,1,,,,,,,,,,,,,,,0,,,66,70
29520,set_tempo,120,1,0,,,,,,,,,,,,465658,,,,,,,
29520,note_on,91,0,2,,,,,,,,,,,,,,,0,,,56,59
29520,note_on,0,0,2,,,,,,,,,,,,,,,0,,,51,49
29537,control_change,17,0,2,,,,,,,,,,,,,,,0,64,127,,
29640,note_on,0,0,1,,,,,,,,,,,,,,,0,,,67,59
29640,note_on,120,0,1,,,,,,,,,,,,,,,0,,,66,0
29666,control_change,129,0,2,,,,,,,,,,,,,,,0,64,0,,
29700,note_on,60,0,1,,,,,,,,,,,,,,,0,,,67,0
29700,note_on,0,0,1,,,,,,,,,,,,,,,0,,,59,0
29700,note_on,0,0,1,,,,,,,,,,,,,,,0,,,63,0
29700,note_on,34,0,2,,,,,,,,,,,,,,,0,,,51,0
29700,note_on,0,0,2,,,,,,,,,,,,,,,0,,,44,0
29700,note_on,0,0,2,,,,,,,,,,,,,,,0,,,56,0
29760,note_on,0,0,1,,,,,,,,,,,,,,,0,,,67,70
29760,note_on,0,0,1,,,,,,,,,,,,,,,0,,,63,59
29760,note_on,60,0,1,,,,,,,,,,,,,,,0,,,59,59
29760,note_on,0,0,2,,,,,,,,,,,,,,,0,,,44,49
29760,note_on,60,0,2,,,,,,,,,,,,,,,0,,,32,41
29800,control_change,40,0,2,,,,,,,,,,,,,,,0,64,127,,
29820,note_on,20,0,2,,,,,,,,,,,,,,,0,,,44,0
29820,note_on,0,0,2,,,,,,,,,,,,,,,0,,,32,0
29880,note_on,120,0,1,,,,,,,,,,,,,,,0,,,67,0
29880,note_on,0,0,1,,,,,,,,,,,,,,,0,,,68,59
29894,control_change,74,0,2,,,,,,,,,,,,,,,0,64,0,,
29940,note_on,0,0,1,,,,,,,,,,,,,,,0,,,63,0
29940,note_on,0,0,1,,,,,,,,,,,,,,,0,,,59,0
29940,note_on,60,0,1,,,,,,,,,,,,,,,0,,,68,0
30000,set_tempo,480,1,0,,,,,,,,,,,,473149,,,,,,,
30000,note_on,60,0,1,,,,,,,,,,,,,,,0,,,59,59
30000,note_on,0,0,1,,,,,,,,,,,,,,,0,,,63,59
30000,note_on,0,0,1,,,,,,,,,,,,,,,0,,,68,70
30000,note_on,106,0,2,,,,,,,,,,,,,,,0,,,51,49
30000,note_on,0,0,2,,,,,,,,,,,,,,,0,,,39,41
30037,control_change,37,0,2,,,,,,,,,,,,,,,0,64,127,,
30060,note_on,23,0,2,,,,,,,,,,,,,,,0,,,39,0
30060,note_on,0,0,2,,,,,,,,,,,,,,,0,,,51,0
30120,note_on,0,0,1,,,,,,,,,,,,,,,0,,,69,59
30120,note_on,120,0,1,,,,,,,,,,,,,,,0,,,68,0
30146,control_change,86,0,2,,,,,,,,,,,,,,,0,64,0,,
30180,note_on,0,0,1,,,,,,,,,,,,,,,0,,,59,0
30180,note_on,0,0,1,,,,,,,,,,,,,,,0,,,63,0
30180,note_on,60,0,1,,,,,,,,,,,,,,,0,,,69,0
30240,set_tempo,240,1,0,,,,,,,,,,,,465658,,,,,,,
30240,note_on,60,0,1,,,,,,,,,,,,,,,0,,,63,60
30240,note_on,0,0,2,,,,,,,,,,,,,,,0,,,56,49
30240,note_on,0,0,2,,,,,,,,,,,,,,,0,,,59,59
30240,note_on,0,0,1,,,,,,,,,,,,,,,0,,,69,71
30240,note_on,94,0,2,,,,,,,,,,,,,,,0,,,51,49
30277,control_change,37,0,2,,,,,,,,,,,,,,,0,64,127,,
30360,note_on,0,0,1,,,,,,,,,,,,,,,0,,,70,61
30360,note_on,120,0,1,,,,,,,,,,,,,,,0,,,69,0
30377,control_change,100,0,2,,,,,,,,,,,,,,,0,64,0,,
30420,note_on,60,0,1,,,,,,,,,,,,,,,0,,,70,0
30420,note_on,0,0,1,,,,,,,,,,,,,,,0,,,63,0
30420,note_on,0,0,2,,,,,,,,,,,,,,,0,,,51,0
30420,note_on,0,0,2,,,,,,,,,,,,,,,0,,,56,0
30420,note_on,43,0,2,,,,,,,,,,,,,,,0,,,59,0
30480,note_on,0,0,1,,,,,,,,,,,,,,,0,,,70,72
30480,note_on,60,0,1,,,,,,,,,,,,,,,0,,,63,61
30480,note_on,60,0,2,,,,,,,,,,,,,,,0,,,32,43
30480,note_on,0,0,2,,,,,,,,,,,,,,,0,,,44,51
30509,control_change,29,0,2,,,,,,,,,,,,,,,0,64,127,,
30540,note_on,0,0,2,,,,,,,,,,,,,,,0,,,32,0
30540,note_on,31,0,2,,,,,,,,,,,,,,,0,,,44,0
30600,note_on,0,0,1,,,,,,,,,,,,,,,0,,,71,62
30600,note_on,120,0,1,,,,,,,,,,,,,,,0,,,70,0
30603,control_change,63,0,2,,,,,,,,,,,,,,,0,64,0,,
30660,note_on,0,0,1,,,,,,,,,,,,,,,0,,,63,0
30660,note_on,60,0,1,,,,,,,,,,,,,,,0,,,71,0
30720,note_on,0,0,1,,,,,,,,,,,,,,,0,,,71,74
30720,note_on,0,0,1,,,,,,,,,,,,,,,0,,,68,74
30720,note_on,60,0,1,,,,,,,,,,,,,,,0,,,63,62
30720,note_on,117,0,2,,,,,,,,,,,,,,,0,,,51,52
30720,note_on,0,0,2,,,,,,,,,,,,,,,0,,,39,44
30720,set_tempo,480,1,0,,,,,,,,,,,,465658,,,,,,,
30754,control_change,34,0,2,,,,,,,,,,,,,,,0,64,127,,
30780,note_on,26,0,2,,,,,,,,,,,,,,,0,,,39,0
30780,note_on,0,0,2,,,,,,,,,,,,,,,0,,,51,0
30840,control_change,60,0,2,,,,,,,,,,,,,,,0,64,0,,
30840,note_on,0,0,1,,,,,,,,,,,,,,,0,,,72,63
30840,note_on,120,0,1,,,,,,,,,,,,,,,0,,,71,0
30900,note_on,0,0,1,,,,,,,,,,,,,,,0,,,63,0
30900,note_on,0,0,1,,,,,,,,,,,,,,,0,,,68,0
30900,note_on,60,0,1,,,,,,,,,,,,,,,0,,,72,0
30960,note_on,120,0,2,,,,,,,,,,,,,,,0,,,51,53
30960,set_tempo,240,1,0,,,,,,,,,,,,463822,,,,,,,
30960,note_on,60,0,1,,,,,,,,,,,,,,,0,,,68,64
30960,note_on,0,0,1,,,,,,,,,,,,,,,0,,,63,64
30960,note_on,0,0,1,,,,,,,,,,,,,,,0,,,72,76
30960,note_on,0,0,2,,,,,,,,,,,,,,,0,,,59,63
30960,note_on,0,0,2,,,,,,,,,,,,,,,0,,,56,53
30980,control_change,20,0,2,,,,,,,,,,,,,,,0,64,127,,
31080,note_on,120,0,1,,,,,,,,,,,,,,,0,,,72,0
31080,note_on,0,0,1,,,,,,,,,,,,,,,0,,,73,65
31097,control_change,117,0,2,,,,,,,,,,,,,,,0,64,0,,
31140,note_on,0,0,1,,,,,,,,,,,,,,,0,,,68,0
31140,note_on,0,0,1,,,,,,,,,,,,,,,0,,,63,0
31140,note_on,60,0,1,,,,,,,,,,,,,,,0,,,73,0
31140,note_on,43,0,2,,,,,,,,,,,,,,,0,,,59,0
31140,note_on,0,0,2,,,,,,,,,,,,,,,0,,,56,0
31140,note_on,0,0,2,,,,,,,,,,,,,,,0,,,51,0
31160,set_tempo,200,1,0,,,,,,,,,,,,456621,,,,,,,
31200,note_on,0,0,1,,,,,,,,,,,,,,,0,,,73,77
31200,note_on,0,0,1,,,,,,,,,,,,,,,0,,,68,65
31200,note_on,60,0,1,,,,,,,,,,,,,,,0,,,63,65
31200,note_on,0,0,2,,,,,,,,,,,,,,,0,,,44,54
31200,note_on,60,0,2,,,,,,,,,,,,,,,0,,,32,45
31229,control_change,29,0,2,,,,,,,,,,,,,,,0,64,127,,
31240,set_tempo,80,1,0,,,,,,,,,,,,458435,,,,,,,
31260,note_on,31,0,2,,,,,,,,,,,,,,,0,,,44,0
31260,note_on,0,0,2,,,,,,,,,,,,,,,0,,,32,0
31280,set_tempo,40,1,0,,,,,,,,,,,,460193,,,,,,,
31320,note_on,120,0,1,,,,,,,,,,,,,,,0,,,73,0
31320,note_on,0,0,1,,,,,,,,,,,,,,,0,,,74,66
31380,note_on,0,0,1,,,,,,,,,,,,,,,0,,,63,0
31380,note_on,60,0,1,,,,,,,,,,,,,,,0,,,74,0
31380,note_on,0,0,1,,,,,,,,,,,,,,,0,,,68,0
31383,control_change,123,0,2,,,,,,,,,,,,,,,0,64,0,,
31440,note_on,60,0,1,,,,,,,,,,,,,,,0,,,63,66
31440,note_on,0,0,1,,,,,,,,,,,,,,,0,,,74,79
31440,note_on,0,0,2,,,,,,,,,,,,,,,0,,,51,55
31440,note_on,57,0,2,,,,,,,,,,,,,,,0,,,39,46
31440,note_on,0,0,1,,,,,,,,,,,,,,,0,,,68,66
31440,set_tempo,160,1,0,,,,,,,,,,,,469373,,,,,,,
31463,control_change,23,0,2,,,,,,,,,,,,,,,0,64,127,,
31500,note_on,37,0,2,,,,,,,,,,,,,,,0,,,51,0
31500,note_on,0,0,2,,,,,,,,,,,,,,,0,,,39,0
31560,note_on,0,0,1,,,,,,,,,,,,,,,0,,,75,68
31560,note_on,120,0,1,,,,,,,,,,,,,,,0,,,74,0
31586,control_change,86,0,2,,,,,,,,,,,,,,,0,64,0,,
31620,note_on,0,0,1,,,,,,,,,,,,,,,0,,,63,0
31620,note_on,60,0,1,,,,,,,,,,,,,,,0,,,75,0
31620,note_on,0,0,1,,,,,,,,,,,,,,,0,,,68,0
31680,set_tempo,240,1,0,,,,,,,,,,,,454856,,,,,,,
31680,note_on,0,0,1,,,,,,,,,,,,,,,0,,,70,68
31680,note_on,94,0,2,,,,,,,,,,,,,,,0,,,51,47
31680,note_on,0,0,1,,,,,,,,,,,,,,,0,,,75,81
31680,note_on,60,0,1,,,,,,,,,,,,,,,0,,,63,68
31680,note_on,0,0,2,,,,,,,,,,,,,,,0,,,58,56
31705,control_change,25,0,2,,,,,,,,,,,,,,,0,64,127,,
31740,note_on,35,0,2,,,,,,,,,,,,,,,0,,,58,0
31740,note_on,0,0,2,,,,,,,,,,,,,,,0,,,51,0
31800,note_on,120,0,1,,,,,,,,,,,,,,,0,,,75,0
31800,note_on,0,0,1,,,,,,,,,,,,,,,0,,,76,77
31800,set_tempo,120,1,0,,,,,,,,,,,,469373,,,,,,,
31860,note_on,0,0,1,,,,,,,,,,,,,,,0,,,63,0
31860,note_on,60,0,1,,,,,,,,,,,,,,,0,,,76,0
31860,note_on,0,0,1,,,,,,,,,,,,,,,0,,,70,0
31920,note_on,0,0,1,,,,,,,,,,,,,,,0,,,76,82
31920,note_on,0,0,2,,,,,,,,,,,,,,,0,,,43,48
31920,control_change,0,0,2,,,,,,,,,,,,,,,0,64,0,,
31920,note_on,180,0,2,,,,,,,,,,,,,,,0,,,51,57
31920,set_tempo,120,1,0,,,,,,,,,,,,454856,,,,,,,
31920,note_on,60,0,1,,,,,,,,,,,,,,,0,,,70,69
31955,control_change,35,0,2,,,,,,,,,,,,,,,0,64,127,,
31980,note_on,0,0,2,,,,,,,,,,,,,,,0,,,51,0
31980,note_on,25,0,2,,,,,,,,,,,,,,,0,,,43,0
32040,note_on,120,0,1,,,,,,,,,,,,,,,0,,,76,0
32040,note_on,0,0,1,,,,,,,,,,,,,,,0,,,75,78
32100,note_on,60,0,1,,,,,,,,,,,,,,,0,,,75,0
32100,note_on,0,0,1,,,,,,,,,,,,,,,0,,,70,0
32160,note_on,0,0,2,,,,,,,,,,,,,,,0,,,58,59
32160,note_on,0,0,1,,,,,,,,,,,,,,,0,,,70,70
32160,note_on,0,0,1,,,,,,,,,,,,,,,0,,,75,84
32160,set_tempo,240,1,0,,,,,,,,,,,,467472,,,,,,,
32160,note_on,180,0,2,,,,,,,,,,,,,,,0,,,51,50
32160,note_on,60,0,1,,,,,,,,,,,,,,,0,,,63,70
32166,control_change,6,0,2,,,,,,,,,,,,,,,0,64,0,,
32199,control_change,33,0,2,,,,,,,,,,,,,,,0,64,127,,
32220,note_on,0,0,2,,,,,,,,,,,,,,,0,,,51,0
32220,note_on,21,0,2,,,,,,,,,,,,,,,0,,,58,0
32280,note_on,120,0,1,,,,,,,,,,,,,,,0,,,75,0
32280,note_on,0,0,1,,,,,,,,,,,,,,,0,,,73,84
32340,note_on,60,0,1,,,,,,,,,,,,,,,0,,,73,0
32340,note_on,0,0,1,,,,,,,,,,,,,,,0,,,70,0
32340,note_on,0,0,1,,,,,,,,,,,,,,,0,,,63,0
32400,note_on,0,0,1,,,,,,,,,,,,,,,0,,,68,69
32400,note_on,0,0,1,,,,,,,,,,,,,,,0,,,73,82
32400,note_on,180,0,2,,,,,,,,,,,,,,,0,,,51,56
32400,set_tempo,240,1,0,,,,,,,,,,,,471254,,,,,,,
32400,control_change,0,0,2,,,,,,,,,,,,,,,0,64,0,,
32400,note_on,0,0,2,,,,,,,,,,,,,,,0,,,44,47
32400,note_on,60,0,1,,,,,,,,,,,,,,,0,,,63,69
32435,control_change,35,0,2,,,,,,,,,,,,,,,0,64,127,,
32460,note_on,25,0,2,,,,,,,,,,,,,,,0,,,44,0
32460,note_on,0,0,2,,,,,,,,,,,,,,,0,,,51,0
32520,note_on,120,0,1,,,,,,,,,,,,,,,0,,,73,0
32520,note_on,0,0,1,,,,,,,,,,,,,,,0,,,71,79
32580,note_on,60,0,1,,,,,,,,,,,,,,,0,,,71,0
32580,note_on,0,0,1,,,,,,,,,,,,,,,0,,,68,0
32580,note_on,0,0,1,,,,,,,,,,,,,,,0,,,63,0
32622,control_change,162,0,2,,,,,,,,,,,,,,,0,64,0,,
32640,note_on,0,0,1,,,,,,,,,,,,,,,0,,,71,83
32640,set_tempo,240,1,0,,,,,,,,,,,,463822,,,,,,,
32640,note_on,60,0,1,,,,,,,,,,,,,,,0,,,63,70
32640,note_on,18,0,2,,,,,,,,,,,,,,,0,,,51,48
32640,note_on,0,0,2,,,,,,,,,,,,,,,0,,,59,57
32640,note_on,0,0,1,,,,,,,,,,,,,,,0,,,68,70
32665,control_change,25,0,2,,,,,,,,,,,,,,,0,64,127,,
32700,note_on,35,0,2,,,,,,,,,,,,,,,0,,,59,0
32700,note_on,0,0,2,,,,,,,,,,,,,,,0,,,51,0
32760,note_on,120,0,1,,,,,,,,,,,,,,,0,,,71,0
32760,note_on,0,0,1,,,,,,,,,,,,,,,0,,,73,79
32820,note_on,60,0,1,,,,,,,,,,,,,,,0,,,73,0
32820,note_on,0,0,1,,,,,,,,,,,,,,,0,,,68,0
32820,note_on,0,0,1,,,,,,,,,,,,,,,0,,,63,0
32880,note_on,0,0,1,,,,,,,,,,,,,,,0,,,73,85
32880,note_on,60,0,1,,,,,,,,,,,,,,,0,,,63,72
32880,note_on,180,0,2,,,,,,,,,,,,,,,0,,,44,50
32880,control_change,0,0,2,,,,,,,,,,,,,,,0,64,0,,
32880,note_on,0,0,2,,,,,,,,,,,,,,,0,,,51,59
32880,note_on,0,0,1,,,,,,,,,,,,,,,0,,,68,72
32926,control_change,46,0,2,,,,,,,,,,,,,,,0,64,127,,
32940,note_on,0,0,2,,,,,,,,,,,,,,,0,,,44,0
32940,note_on,14,0,2,,,,,,,,,,,,,,,0,,,51,0
33000,note_on,120,0,1,,,,,,,,,,,,,,,0,,,73,0
33000,note_on,0,0,1,,,,,,,,,,,,,,,0,,,75,86
33060,note_on,60,0,1,,,,,,,,,,,,,,,0,,,75,0
33060,note_on,0,0,1,,,,,,,,,,,,,,,0,,,68,0
33060,note_on,0,0,1,,,,,,,,,,,,,,,0,,,63,0
33081,control_change,141,0,2,,,,,,,,,,,,,,,0,64,0,,
33120,note_on,0,0,1,,,,,,,,,,,,,,,0,,,75,87
33120,set_tempo,480,1,0,,,,,,,,,,,,467472,,,,,,,
33120,note_on,60,0,1,,,,,,,,,,,,,,,0,,,64,73
33120,note_on,39,0,2,,,,,,,,,,,,,,,0,,,49,50
33120,note_on,0,0,2,,,,,,,,,,,,,,,0,,,56,60
33120,note_on,0,0,1,,,,,,,,,,,,,,,0,,,68,73
33162,control_change,42,0,2,,,,,,,,,,,,,,,0,64,127,,
33180,note_on,18,0,2,,,,,,,,,,,,,,,0,,,56,0
33180,note_on,0,0,2,,,,,,,,,,,,,,,0,,,49,0
33240,note_on,120,0,1,,,,,,,,,,,,,,,0,,,75,0
33240,note_on,0,0,1,,,,,,,,,,,,,,,0,,,73,86
33300,note_on,0,0,1,,,,,,,,,,,,,,,0,,,64,0
33300,note_on,0,0,1,,,,,,,,,,,,,,,0,,,68,0
33300,note_on,60,0,1,,,,,,,,,,,,,,,0,,,73,0
33346,control_change,166,0,2,,,,,,,,,,,,,,,0,64,0,,
33360,note_on,0,0,2,,,,,,,,,,,,,,,0,,,49,58
33360,note_on,14,0,2,,,,,,,,,,,,,,,0,,,37,49
33360,note_on,0,0,1,,,,,,,,,,,,,,,0,,,73,84
33360,note_on,0,0,1,,,,,,,,,,,,,,,0,,,68,71
33360,note_on,60,0,1,,,,,,,,,,,,,,,0,,,64,71
33388,control_change,28,0,2,,,,,,,,,,,,,,,0,64,127,,
33420,note_on,0,0,2,,,,,,,,,,,,,,,0,,,37,0
33420,note_on,32,0,2,,,,,,,,,,,,,,,0,,,49,0
33480,note_on,120,0,1,,,,,,,,,,,,,,,0,,,73,0
33480,note_on,0,0,1,,,,,,,,,,,,,,,0,,,71,83
33540,note_on,0,0,1,,,,,,,,,,,,,,,0,,,64,0
33540,note_on,0,0,1,,,,,,,,,,,,,,,0,,,68,0
33540,note_on,60,0,1,,,,,,,,,,,,,,,0,,,71,0
33582,control_change,162,0,2,,,,,,,,,,,,,,,0,64,0,,
33600,note_on,0,0,2,,,,,,,,,,,,,,,0,,,49,47
33600,note_on,18,0,2,,,,,,,,,,,,,,,0,,,56,56
33600,note_on,60,0,1,,,,,,,,,,,,,,,0,,,61,68
33600,note_on,0,0,1,,,,,,,,,,,,,,,0,,,64,68
33600,note_on,0,0,1,,,,,,,,,,,,,,,0,,,71,81
33600,set_tempo,480,1,0,,,,,,,,,,,,478927,,,,,,,
33628,control_change,28,0,2,,,,,,,,,,,,,,,0,64,127,,
33660,note_on,0,0,2,,,,,,,,,,,,,,,0,,,56,0
33660,note_on,32,0,2,,,,,,,,,,,,,,,0,,,49,0
33720,note_on,120,0,1,,,,,,,,,,,,,,,0,,,71,0
33720,note_on,0,0,1,,,,,,,,,,,,,,,0,,,70,80
33780,note_on,60,0,1,,,,,,,,,,,,,,,0,,,70,0
33780,note_on,0,0,1,,,,,,,,,,,,,,,0,,,61,0
33780,note_on,0,0,1,,,,,,,,,,,,,,,0,,,64,0
33840,note_on,0,0,2,,,,,,,,,,,,,,,0,,,51,45
33840,set_tempo,240,1,0,,,,,,,,,,,,473149,,,,,,,
33840,note_on,60,0,1,,,,,,,,,,,,,,,0,,,61,84
33840,control_change,180,0,2,,,,,,,,,,,,,,,0,64,0,,
33840,note_on,0,0,2,,,,,,,,,,,,,,,0,,,55,54
33880,control_change,40,0,2,,,,,,,,,,,,,,,0,64,127,,
33900,note_on,0,0,2,,,,,,,,,,,,,,,0,,,51,0
33900,note_on,20,0,2,,,,,,,,,,,,,,,0,,,55,0
33960,note_on,120,0,1,,,,,,,,,,,,,,,0,,,71,76
34040,set_tempo,200,1,0,,,,,,,,,,,,471254,,,,,,,
34074,control_change,174,0,2,,,,,,,,,,,,,,,0,64,0,,
34080,note_on,6,0,2,,,,,,,,,,,,,,,0,,,51,54
34080,note_on,0,0,2,,,,,,,,,,,,,,,0,,,39,45
34080,note_on,0,0,1,,,,,,,,,,,,,,,0,,,61,0
34080,note_on,0,0,1,,,,,,,,,,,,,,,0,,,71,77
34080,note_on,0,0,1,,,,,,,,,,,,,,,0,,,61,64
34080,note_on,120,0,1,,,,,,,,,,,,,,,0,,,71,0
34120,set_tempo,80,1,0,,,,,,,,,,,,473149,,,,,,,
34137,control_change,57,0,2,,,,,,,,,,,,,,,0,64,127,,
34140,note_on,0,0,2,,,,,,,,,,,,,,,0,,,51,0
34140,note_on,3,0,2,,,,,,,,,,,,,,,0,,,39,0
34200,set_tempo,80,1,0,,,,,,,,,,,,475059,,,,,,,
34200,note_on,120,0,1,,,,,,,,,,,,,,,0,,,71,0
34200,note_on,0,0,1,,,,,,,,,,,,,,,0,,,70,75
34240,set_tempo,40,1,0,,,,,,,,,,,,476948,,,,,,,
34320,note_on,0,0,1,,,,,,,,,,,,,,,0,,,61,61
34320,set_tempo,80,1,0,,,,,,,,,,,,480846,,,,,,,
34320,note_on,120,0,1,,,,,,,,,,,,,,,0,,,70,0
34320,note_on,0,0,1,,,,,,,,,,,,,,,0,,,61,0
34320,note_on,0,0,1,,,,,,,,,,,,,,,0,,,70,73
34320,note_on,0,0,2,,,,,,,,,,,,,,,0,,,55,51
34320,note_on,180,0,2,,,,,,,,,,,,,,,0,,,51,43
34337,control_change,17,0,2,,,,,,,,,,,,,,,0,64,0,,
34340,set_tempo,20,1,0,,,,,,,,,,,,484809,,,,,,,
34349,control_change,12,0,2,,,,,,,,,,,,,,,0,64,127,,
34360,set_tempo,20,1,0,,,,,,,,,,,,488838,,,,,,,
34380,note_on,31,0,2,,,,,,,,,,,,,,,0,,,55,0
34380,note_on,0,0,2,,,,,,,,,,,,,,,0,,,51,0
34380,set_tempo,20,1,0,,,,,,,,,,,,495009,,,,,,,
34400,set_tempo,20,1,0,,,,,,,,,,,,499168,,,,,,,
34420,set_tempo,20,1,0,,,,,,,,,,,,503482,,,,,,,
34440,note_on,0,0,1,,,,,,,,,,,,,,,0,,,63,72
34440,note_on,120,0,1,,,,,,,,,,,,,,,0,,,70,0
34460,set_tempo,40,1,0,,,,,,,,,,,,514447,,,,,,,
34517,control_change,137,0,2,,,,,,,,,,,,,,,0,64,0,,
34560,note_on,120,0,1,,,,,,,,,,,,,,,0,,,63,0
34560,note_on,43,0,2,,,,,,,,,,,,,,,0,,,44,65
34560,note_on,0,0,2,,,,,,,,,,,,,,,0,,,56,77
34560,note_on,0,0,1,,,,,,,,,,,,,,,0,,,59,59
34560,set_tempo,100,1,0,,,,,,,,,,,,478927,,,,,,,
34560,note_on,0,0,2,,,,,,,,,,,,,,,0,,,51,65
34560,note_on,0,0,1,,,,,,,,,,,,,,,0,,,63,70
34560,note_on,0,0,1,,,,,,,,,,,,,,,0,,,61,0
34591,control_change,31,0,2,,,,,,,,,,,,,,,0,64,127,,
34674,control_change,83,0,2,,,,,,,,,,,,,,,0,64,0,,
34680,note_on,120,0,1,,,,,,,,,,,,,,,0,,,63,0
34680,note_on,0,0,1,,,,,,,,,,,,,,,0,,,64,59
34740,note_on,0,0,2,,,,,,,,,,,,,,,0,,,44,0
34740,note_on,0,0,2,,,,,,,,,,,,,,,0,,,51,0
34740,note_on,60,0,1,,,,,,,,,,,,,,,0,,,64,0
34740,note_on,0,0,1,,,,,,,,,,,,,,,0,,,59,0
34740,note_on,66,0,2,,,,,,,,,,,,,,,0,,,56,0
34800,set_tempo,240,1,0,,,,,,,,,,,,471254,,,,,,,
34800,note_on,0,0,2,,,,,,,,,,,,,,,0,,,32,80
34800,note_on,0,0,1,,,,,,,,,,,,,,,0,,,64,70
34800,note_on,60,0,1,,,,,,,,,,,,,,,0,,,59,59
34800,note_on,60,0,2,,,,,,,,,,,,,,,0,,,44,95
34814,control_change,14,0,2,,,,,,,,,,,,,,,0,64,127,,
34920,note_on,0,0,2,,,,,,,,,,,,,,,0,,,44,0
34920,note_on,106,0,2,,,,,,,,,,,,,,,0,,,32,0
34920,note_on,120,0,1,,,,,,,,,,,,,,,0,,,64,0
34920,note_on,0,0,1,,,,,,,,,,,,,,,0,,,65,59
34934,control_change,14,0,2,,,,,,,,,,,,,,,0,64,0,,
34980,note_on,0,0,1,,,,,,,,,,,,,,,0,,,59,0
34980,note_on,60,0,1,,,,,,,,,,,,,,,0,,,65,0
35040,note_on,0,0,2,,,,,,,,,,,,,,,0,,,51,59
35040,note_on,0,0,1,,,,,,,,,,,,,,,0,,,65,70
35040,note_on,0,0,1,,,,,,,,,,,,,,,0,,,63,59
35040,note_on,60,0,1,,,,,,,,,,,,,,,0,,,59,59
35040,note_on,106,0,2,,,,,,,,,,,,,,,0,,,39,49
35040,set_tempo,240,1,0,,,,,,,,,,,,482820,,,,,,,
35063,control_change,23,0,2,,,,,,,,,,,,,,,0,64,127,,
35100,note_on,37,0,2,,,,,,,,,,,,,,,0,,,51,0
35100,note_on,0,0,2,,,,,,,,,,,,,,,0,,,39,0
35151,control_change,51,0,2,,,,,,,,,,,,,,,0,64,0,,
35160,note_on,120,0,1,,,,,,,,,,,,,,,0,,,65,0
35160,set_tempo,120,1,0,,,,,,,,,,,,471254,,,,,,,
35160,note_on,0,0,1,,,,,,,,,,,,,,,0,,,66,59
35220,note_on,60,0,1,,,,,,,,,,,,,,,0,,,66,0
35220,note_on,0,0,1,,,,,,,,,,,,,,,0,,,59,0
35220,note_on,0,0,1,,,,,,,,,,,,,,,0,,,63,0
35280,note_on,0,0,2,,,,,,,,,,,,,,,0,,,56,77
35280,note_on,0,0,1,,,,,,,,,,,,,,,0,,,63,59
35280,note_on,0,0,2,,,,,,,,,,,,,,,0,,,44,65
35280,note_on,0,0,1,,,,,,,,,,,,,,,0,,,66,70
35280,note_on,60,0,1,,,,,,,,,,,,,,,0,,,59,59
35280,note_on,129,0,2,,,,,,,,,,,,,,,0,,,51,65
35280,set_tempo,120,1,0,,,,,,,,,,,,465658,,,,,,,
35297,control_change,17,0,2,,,,,,,,,,,,,,,0,64,127,,
35391,control_change,94,0,2,,,,,,,,,,,,,,,0,64,0,,
35400,note_on,0,0,1,,,,,,,,,,,,,,,0,,,67,59
35400,note_on,120,0,1,,,,,,,,,,,,,,,0,,,66,0
35460,note_on,60,0,1,,,,,,,,,,,,,,,0,,,67,0
35460,note_on,69,0,2,,,,,,,,,,,,,,,0,,,56,0
35460,note_on,0,0,2,,,,,,,,,,,,,,,0,,,44,0
35460,note_on,0,0,2,,,,,,,,,,,,,,,0,,,51,0
35460,note_on,0,0,1,,,,,,,,,,,,,,,0,,,63,0
35460,note_on,0,0,1,,,,,,,,,,,,,,,0,,,59,0
35520,note_on,0,0,1,,,,,,,,,,,,,,,0,,,67,70
35520,note_on,0,0,2,,,,,,,,,,,,,,,0,,,42,95
35520,note_on,0,0,1,,,,,,,,,,,,,,,0,,,63,59
35520,note_on,60,0,1,,,,,,,,,,,,,,,0,,,59,59
35520,note_on,60,0,2,,,,,,,,,,,,,,,0,,,30,79
35560,control_change,40,0,2,,,,,,,,,,,,,,,0,64,127,,
35640,note_on,0,0,1,,,,,,,,,,,,,,,0,,,68,59
35640,note_on,120,0,1,,,,,,,,,,,,,,,0,,,67,0
35640,note_on,80,0,2,,,,,,,,,,,,,,,0,,,42,0
35640,note_on,0,0,2,,,,,,,,,,,,,,,0,,,30,0
35680,control_change,40,0,2,,,,,,,,,,,,,,,0,64,0,,
35700,note_on,0,0,1,,,,,,,,,,,,,,,0,,,63,0
35700,note_on,60,0,1,,,,,,,,,,,,,,,0,,,68,0
35700,note_on,0,0,1,,,,,,,,,,,,,,,0,,,59,0
35760,note_on,0,0,2,,,,,,,,,,,,,,,0,,,51,59
35760,note_on,80,0,2,,,,,,,,,,,,,,,0,,,42,49
35760,note_on,60,0,1,,,,,,,,,,,,,,,0,,,59,59
35760,note_on,0,0,1,,,,,,,,,,,,,,,0,,,63,59
35760,set_tempo,480,1,0,,,,,,,,,,,,473149,,,,,,,
35760,note_on,0,0,1,,,,,,,,,,,,,,,0,,,68,70
35797,control_change,37,0,2,,,,,,,,,,,,,,,0,64,127,,
35820,note_on,0,0,2,,,,,,,,,,,,,,,0,,,42,0
35820,note_on,23,0,2,,,,,,,,,,,,,,,0,,,51,0
35880,note_on,0,0,1,,,,,,,,,,,,,,,0,,,69,59
35880,note_on,120,0,1,,,,,,,,,,,,,,,0,,,68,0
35917,control_change,97,0,2,,,,,,,,,,,,,,,0,64,0,,
35940,note_on,60,0,1,,,,,,,,,,,,,,,0,,,69,0
35940,note_on,0,0,1,,,,,,,,,,,,,,,0,,,59,0
35940,note_on,0,0,1,,,,,,,,,,,,,,,0,,,63,0
36000,note_on,83,0,2,,,,,,,,,,,,,,,0,,,56,78
36000,set_tempo,240,1,0,,,,,,,,,,,,465658,,,,,,,
36000,note_on,60,0,1,,,,,,,,,,,,,,,0,,,59,60
36000,note_on,0,0,1,,,,,,,,,,,,,,,0,,,64,60
36000,note_on,0,0,1,,,,,,,,,,,,,,,0,,,69,71
36000,note_on,0,0,2,,,,,,,,,,,,,,,0,,,52,65
36037,control_change,37,0,2,,,,,,,,,,,,,,,0,64,127,,
36120,note_on,120,0,1,,,,,,,,,,,,,,,0,,,69,0
36120,note_on,0,0,1,,,,,,,,,,,,,,,0,,,70,61
36143,control_change,106,0,2,,,,,,,,,,,,,,,0,64,0,,
36180,note_on,60,0,1,,,,,,,,,,,,,,,0,,,70,0
36180,note_on,0,0,1,,,,,,,,,,,,,,,0,,,64,0
36180,note_on,0,0,1,,,,,,,,,,,,,,,0,,,59,0
36180,note_on,37,0,2,,,,,,,,,,,,,,,0,,,52,0
36180,note_on,0,0,2,,,,,,,,,,,,,,,0,,,56,0
36240,note_on,60,0,2,,,,,,,,,,,,,,,0,,,28,77
36240,note_on,0,0,2,,,,,,,,,,,,,,,0,,,40,92
36240,note_on,0,0,1,,,,,,,,,,,,,,,0,,,70,72
36240,note_on,0,0,1,,,,,,,,,,,,,,,0,,,64,61
36240,note_on,60,0,1,,,,,,,,,,,,,,,0,,,59,61
36269,control_change,29,0,2,,,,,,,,,,,,,,,0,64,127,,
36360,note_on,0,0,1,,,,,,,,,,,,,,,0,,,71,62
36360,note_on,0,0,2,,,,,,,,,,,,,,,0,,,28,0
36360,note_on,91,0,2,,,,,,,,,,,,,,,0,,,40,0
36360,note_on,120,0,1,,,,,,,,,,,,,,,0,,,70,0
36386,control_change,26,0,2,,,,,,,,,,,,,,,0,64,0,,
36420,note_on,60,0,1,,,,,,,,,,,,,,,0,,,71,0
36420,note_on,0,0,1,,,,,,,,,,,,,,,0,,,64,0
36420,note_on,0,0,1,,,,,,,,,,,,,,,0,,,59,0
36480,note_on,0,0,2,,,,,,,,,,,,,,,0,,,52,52
36480,note_on,0,0,1,,,,,,,,,,,,,,,0,,,64,74
36480,note_on,0,0,1,,,,,,,,,,,,,,,0,,,71,74
36480,note_on,60,0,1,,,,,,,,,,,,,,,0,,,59,62
36480,set_tempo,480,1,0,,,,,,,,,,,,465658,,,,,,,
36480,note_on,94,0,2,,,,,,,,,,,,,,,0,,,56,62
36514,control_change,34,0,2,,,,,,,,,,,,,,,0,64,127,,
36540,note_on,0,0,2,,,,,,,,,,,,,,,0,,,56,0
36540,note_on,26,0,2,,,,,,,,,,,,,,,0,,,52,0
36600,note_on,0,0,1,,,,,,,,,,,,,,,0,,,72,64
36600,note_on,120,0,1,,,,,,,,,,,,,,,0,,,71,0
36631,control_change,91,0,2,,,,,,,,,,,,,,,0,64,0,,
36660,note_on,0,0,1,,,,,,,,,,,,,,,0,,,64,0
36660,note_on,0,0,1,,,,,,,,,,,,,,,0,,,59,0
36660,note_on,60,0,1,,,,,,,,,,,,,,,0,,,72,0
36720,set_tempo,240,1,0,,,,,,,,,,,,463822,,,,,,,
36720,note_on,0,0,2,,,,,,,,,,,,,,,0,,,59,77
36720,note_on,89,0,2,,,,,,,,,,,,,,,0,,,51,65
36720,note_on,0,0,1,,,,,,,,,,,,,,,0,,,72,77
36720,note_on,60,0,1,,,,,,,,,,,,,,,0,,,63,65
36720,note_on,0,0,2,,,,,,,,,,,,,,,0,,,56,65
36740,control_change,20,0,2,,,,,,,,,,,,,,,0,64,127,,
36840,note_on,0,0,1,,,,,,,,,,,,,,,0,,,73,72
36840,note_on,120,0,1,,,,,,,,,,,,,,,0,,,72,0
36860,control_change,120,0,2,,,,,,,,,,,,,,,0,64,0,,
36900,note_on,0,0,2,,,,,,,,,,,,,,,0,,,51,0
36900,note_on,40,0,2,,,,,,,,,,,,,,,0,,,59,0
36900,note_on,60,0,1,,,,,,,,,,,,,,,0,,,73,0
36900,note_on,0,0,2,,,,,,,,,,,,,,,0,,,56,0
36900,note_on,0,0,1,,,,,,,,,,,,,,,0,,,63,0
36920,set_tempo,200,1,0,,,,,,,,,,,,456621,,,,,,,
36960,note_on,0,0,1,,,,,,,,,,,,,,,0,,,73,79
36960,note_on,60,0,2,,,,,,,,,,,,,,,0,,,27,78
36960,note_on,0,0,1,,,,,,,,,,,,,,,0,,,68,66
36960,note_on,60,0,1,,,,,,,,,,,,,,,0,,,63,66
36960,note_on,0,0,2,,,,,,,,,,,,,,,0,,,39,94
36989,control_change,29,0,2,,,,,,,,,,,,,,,0,64,127,,
37000,set_tempo,80,1,0,,,,,,,,,,,,458435,,,,,,,
37040,set_tempo,40,1,0,,,,,,,,,,,,460193,,,,,,,
37080,note_on,91,0,2,,,,,,,,,,,,,,,0,,,39,0
37080,note_on,0,0,1,,,,,,,,,,,,,,,0,,,74,73
37080,note_on,120,0,1,,,,,,,,,,,,,,,0,,,73,0
37080,note_on,0,0,2,,,,,,,,,,,,,,,0,,,27,0
37114,control_change,34,0,2,,,,,,,,,,,,,,,0,64,0,,
37140,note_on,60,0,1,,,,,,,,,,,,,,,0,,,74,0
37140,note_on,0,0,1,,,,,,,,,,,,,,,0,,,68,0
37140,note_on,0,0,1,,,,,,,,,,,,,,,0,,,63,0
37200,note_on,86,0,2,,,,,,,,,,,,,,,0,,,59,68
37200,note_on,0,0,2,,,,,,,,,,,,,,,0,,,51,57
37200,note_on,60,0,1,,,,,,,,,,,,,,,0,,,63,68
37200,note_on,0,0,1,,,,,,,,,,,,,,,0,,,68,68
37200,note_on,0,0,1,,,,,,,,,,,,,,,0,,,74,82
37200,set_tempo,160,1,0,,,,,,,,,,,,469373,,,,,,,
37200,note_on,0,0,2,,,,,,,,,,,,,,,0,,,56,57
37223,control_change,23,0,2,,,,,,,,,,,,,,,0,64,127,,
37260,note_on,37,0,2,,,,,,,,,,,,,,,0,,,51,0
37260,note_on,0,0,2,,,,,,,,,,,,,,,0,,,56,0
37260,note_on,0,0,2,,,,,,,,,,,,,,,0,,,59,0
37320,note_on,120,0,1,,,,,,,,,,,,,,,0,,,75,76
37354,control_change,94,0,2,,,,,,,,,,,,,,,0,64,0,,
37380,note_on,0,0,1,,,,,,,,,,,,,,,0,,,74,0
37380,note_on,0,0,1,,,,,,,,,,,,,,,0,,,68,0
37380,note_on,0,0,1,,,,,,,,,,,,,,,0,,,63,0
37380,note_on,60,0,1,,,,,,,,,,,,,,,0,,,75,0
37440,note_on,0,0,2,,,,,,,,,,,,,,,0,,,49,66
37440,note_on,0,0,2,,,,,,,,,,,,,,,0,,,59,80
37440,note_on,0,0,1,,,,,,,,,,,,,,,0,,,75,90
37440,note_on,0,0,1,,,,,,,,,,,,,,,0,,,68,76
37440,set_tempo,240,1,0,,,,,,,,,,,,469962,,,,,,,
37440,note_on,86,0,2,,,,,,,,,,,,,,,0,,,56,66
37440,note_on,60,0,1,,,,,,,,,,,,,,,0,,,64,76
37465,control_change,25,0,2,,,,,,,,,,,,,,,0,64,127,,
37500,note_on,0,0,2,,,,,,,,,,,,,,,0,,,56,0
37500,note_on,0,0,2,,,,,,,,,,,,,,,0,,,49,0
37500,note_on,35,0,2,,,,,,,,,,,,,,,0,,,59,0
37560,note_on,0,0,1,,,,,,,,,,,,,,,0,,,73,77
37560,note_on,120,0,1,,,,,,,,,,,,,,,0,,,75,0
37560,set_tempo,120,1,0,,,,,,,,,,,,477441,,,,,,,
37620,note_on,0,0,1,,,,,,,,,,,,,,,0,,,64,0
37620,note_on,60,0,1,,,,,,,,,,,,,,,0,,,73,0
37620,note_on,0,0,1,,,,,,,,,,,,,,,0,,,68,0
37673,control_change,173,0,2,,,,,,,,,,,,,,,0,64,0,,
37680,set_tempo,120,1,0,,,,,,,,,,,,469962,,,,,,,
37680,note_on,60,0,1,,,,,,,,,,,,,,,0,,,73,81
37715,control_change,42,0,2,,,,,,,,,,,,,,,0,64,127,,
37800,note_on,0,0,1,,,,,,,,,,,,,,,0,,,71,73
37800,note_on,120,0,1,,,,,,,,,,,,,,,0,,,73,0
37860,note_on,60,0,1,,,,,,,,,,,,,,,0,,,71,0
37920,set_tempo,240,1,0,,,,,,,,,,,,477441,,,,,,,
37920,note_on,60,0,1,,,,,,,,,,,,,,,0,,,71,78
37920,control_change,205,0,2,,,,,,,,,,,,,,,0,64,0,,
37959,control_change,39,0,2,,,,,,,,,,,,,,,0,64,127,,
38040,note_on,120,0,1,,,,,,,,,,,,,,,0,,,71,0
38040,note_on,0,0,1,,,,,,,,,,,,,,,0,,,70,71
38100,note_on,60,0,1,,,,,,,,,,,,,,,0,,,70,0
38160,note_on,201,0,2,,,,,,,,,,,,,,,0,,,59,80
38160,note_on,0,0,2,,,,,,,,,,,,,,,0,,,51,66
38160,note_on,0,0,2,,,,,,,,,,,,,,,0,,,56,66
38160,control_change,0,0,2,,,,,,,,,,,,,,,0,64,0,,
38160,note_on,0,0,1,,,,,,,,,,,,,,,0,,,68,76
38160,note_on,60,0,1,,,,,,,,,,,,,,,0,,,63,76
38160,set_tempo,240,1,0,,,,,,,,,,,,469962,,,,,,,
38160,note_on,0,0,1,,,,,,,,,,,,,,,0,,,73,90
38199,control_change,39,0,2,,,,,,,,,,,,,,,0,64,127,,
38220,note_on,0,0,2,,,,,,,,,,,,,,,0,,,59,0
38220,note_on,0,0,2,,,,,,,,,,,,,,,0,,,56,0
38220,note_on,21,0,2,,,,,,,,,,,,,,,0,,,51,0
38280,note_on,120,0,1,,,,,,,,,,,,,,,0,,,73,0
38280,note_on,0,0,1,,,,,,,,,,,,,,,0,,,71,77
38280,set_tempo,120,1,0,,,,,,,,,,,,477441,,,,,,,
38340,note_on,0,0,1,,,,,,,,,,,,,,,0,,,63,0
38340,note_on,0,0,1,,,,,,,,,,,,,,,0,,,68,0
38340,note_on,60,0,1,,,,,,,,,,,,,,,0,,,71,0
38393,control_change,173,0,2,,,,,,,,,,,,,,,0,64,0,,
38400,set_tempo,120,1,0,,,,,,,,,,,,469962,,,,,,,
38400,note_on,60,0,1,,,,,,,,,,,,,,,0,,,71,81
38435,control_change,42,0,2,,,,,,,,,,,,,,,0,64,127,,
38520,note_on,120,0,1,,,,,,,,,,,,,,,0,,,71,0
38520,note_on,0,0,1,,,,,,,,,,,,,,,0,,,70,73
38580,note_on,60,0,1,,,,,,,,,,,,,,,0,,,70,0
38640,set_tempo,240,1,0,,,,,,,,,,,,477441,,,,,,,
38640,control_change,205,0,2,,,,,,,,,,,,,,,0,64,0,,
38640,note_on,60,0,1,,,,,,,,,,,,,,,0,,,70,78
38679,control_change,39,0,2,,,,,,,,,,,,,,,0,64,127,,
38760,note_on,0,0,1,,,,,,,,,,,,,,,0,,,68,71
38760,note_on,120,0,1,,,,,,,,,,,,,,,0,,,70,0
38820,note_on,60,0,1,,,,,,,,,,,,,,,0,,,68,0
38880,note_on,0,0,2,,,,,,,,,,,,,,,0,,,49,66
38880,note_on,0,0,2,,,,,,,,,,,,,,,0,,,59,80
38880,note_on,0,0,1,,,,,,,,,,,,,,,0,,,75,90
38880,control_change,201,0,2,,,,,,,,,,,,,,,0,64,0,,
38880,set_tempo,240,1,0,,,,,,,,,,,,469962,,,,,,,
38880,note_on,0,0,1,,,,,,,,,,,,,,,0,,,68,76
38880,note_on,60,0,1,,,,,,,,,,,,,,,0,,,64,76
38880,note_on,0,0,2,,,,,,,,,,,,,,,0,,,56,66
38919,control_change,39,0,2,,,,,,,,,,,,,,,0,64,127,,
38940,note_on,21,0,2,,,,,,,,,,,,,,,0,,,59,0
38940,note_on,0,0,2,,,,,,,,,,,,,,,0,,,56,0
38940,note_on,0,0,2,,,,,,,,,,,,,,,0,,,49,0
39000,note_on,0,0,1,,,,,,,,,,,,,,,0,,,73,77
39000,note_on,120,0,1,,,,,,,,,,,,,,,0,,,75,0
39000,set_tempo,120,1,0,,,,,,,,,,,,477441,,,,,,,
39060,note_on,0,0,1,,,,,,,,,,,,,,,0,,,64,0
39060,note_on,0,0,1,,,,,,,,,,,,,,,0,,,68,0
39060,note_on,60,0,1,,,,,,,,,,,,,,,0,,,73,0
39113,control_change,173,0,2,,,,,,,,,,,,,,,0,64,0,,
39120,set_tempo,120,1,0,,,,,,,,,,,,469962,,,,,,,
39120,note_on,60,0,1,,,,,,,,,,,,,,,0,,,73,81
39155,control_change,42,0,2,,,,,,,,,,,,,,,0,64,127,,
39240,note_on,120,0,1,,,,,,,,,,,,,,,0,,,73,0
39240,note_on,0,0,1,,,,,,,,,,,,,,,0,,,71,73
39300,note_on,60,0,1,,,,,,,,,,,,,,,0,,,71,0
39360,note_on,60,0,1,,,,,,,,,,,,,,,0,,,71,78
39360,control_change,205,0,2,,,,,,,,,,,,,,,0,64,0,,
39360,set_tempo,240,1,0,,,,,,,,,,,,477441,,,,,,,
39399,control_change,39,0,2,,,,,,,,,,,,,,,0,64,127,,
39480,note_on,120,0,1,,,,,,,,,,,,,,,0,,,71,0
39480,note_on,0,0,1,,,,,,,,,,,,,,,0,,,70,71
39540,note_on,60,0,1,,,,,,,,,,,,,,,0,,,70,0
39600,note_on,0,0,2,,,,,,,,,,,,,,,0,,,51,66
39600,set_tempo,240,1,0,,,,,,,,,,,,469962,,,,,,,
39600,note_on,0,0,2,,,,,,,,,,,,,,,0,,,59,80
39600,note_on,0,0,1,,,,,,,,,,,,,,,0,,,73,90
39600,note_on,0,0,1,,,,,,,,,,,,,,,0,,,68,76
39600,note_on,60,0,1,,,,,,,,,,,,,,,0,,,63,76
39600,note_on,0,0,2,,,,,,,,,,,,,,,0,,,56,66
39600,control_change,201,0,2,,,,,,,,,,,,,,,0,64,0,,
39639,control_change,39,0,2,,,,,,,,,,,,,,,0,64,127,,
39660,note_on,21,0,2,,,,,,,,,,,,,,,0,,,59,0
39660,note_on,0,0,2,,,,,,,,,,,,,,,0,,,51,0
39660,note_on,0,0,2,,,,,,,,,,,,,,,0,,,56,0
39720,set_tempo,120,1,0,,,,,,,,,,,,477441,,,,,,,
39720,note_on,120,0,1,,,,,,,,,,,,,,,0,,,73,0
39720,note_on,0,0,1,,,,,,,,,,,,,,,0,,,71,77
39780,note_on,60,0,1,,,,,,,,,,,,,,,0,,,71,0
39780,note_on,0,0,1,,,,,,,,,,,,,,,0,,,68,0
39780,note_on,0,0,1,,,,,,,,,,,,,,,0,,,63,0
39833,control_change,173,0,2,,,,,,,,,,,,,,,0,64,0,,
39840,note_on,60,0,1,,,,,,,,,,,,,,,0,,,71,81
39840,set_tempo,120,1,0,,,,,,,,,,,,469962,,,,,,,
39875,control_change,42,0,2,,,,,,,,,,,,,,,0,64,127,,
39960,note_on,0,0,1,,,,,,,,,,,,,,,0,,,70,73
39960,note_on,120,0,1,,,,,,,,,,,,,,,0,,,71,0
40020,note_on,60,0,1,,,,,,,,,,,,,,,0,,,70,0
40080,note_on,60,0,1,,,,,,,,,,,,,,,0,,,70,78
40080,set_tempo,240,1,0,,,,,,,,,,,,477441,,,,,,,
40080,control_change,205,0,2,,,,,,,,,,,,,,,0,64,0,,
40119,control_change,39,0,2,,,,,,,,,,,,,,,0,64,127,,
40200,note_on,0,0,1,,,,,,,,,,,,,,,0,,,68,71
40200,note_on,120,0,1,,,,,,,,,,,,,,,0,,,70,0
40260,note_on,60,0,1,,,,,,,,,,,,,,,0,,,68,0
40320,control_change,201,0,2,,,,,,,,,,,,,,,0,64,0,,
40320,note_on,0,0,1,,,,,,,,,,,,,,,0,,,68,76
40320,note_on,0,0,1,,,,,,,,,,,,,,,0,,,71,90
40320,note_on,0,0,2,,,,,,,,,,,,,,,0,,,52,61
40320,note_on,0,0,2,,,,,,,,,,,,,,,0,,,56,72
40320,note_on,60,0,1,,,,,,,,,,,,,,,0,,,61,76
40320,set_tempo,240,1,0,,,,,,,,,,,,469962,,,,,,,
40359,control_change,39,0,2,,,,,,,,,,,,,,,0,64,127,,
40380,note_on,21,0,2,,,,,,,,,,,,,,,0,,,56,0
40380,note_on,0,0,2,,,,,,,,,,,,,,,0,,,52,0
40440,set_tempo,120,1,0,,,,,,,,,,,,477441,,,,,,,
40440,note_on,0,0,1,,,,,,,,,,,,,,,0,,,70,77
40440,note_on,120,0,1,,,,,,,,,,,,,,,0,,,71,0
40500,note_on,0,0,1,,,,,,,,,,,,,,,0,,,61,0
40500,note_on,0,0,1,,,,,,,,,,,,,,,0,,,68,0
40500,note_on,60,0,1,,,,,,,,,,,,,,,0,,,70,0
40553,control_change,173,0,2,,,,,,,,,,,,,,,0,64,0,,
40560,note_on,60,0,1,,,,,,,,,,,,,,,0,,,70,81
40560,set_tempo,120,1,0,,,,,,,,,,,,469962,,,,,,,
40595,control_change,42,0,2,,,,,,,,,,,,,,,0,64,127,,
40680,note_on,0,0,1,,,,,,,,,,,,,,,0,,,71,73
40680,note_on,120,0,1,,,,,,,,,,,,,,,0,,,70,0
40740,note_on,60,0,1,,,,,,,,,,,,,,,0,,,71,0
40800,note_on,60,0,1,,,,,,,,,,,,,,,0,,,71,79
40800,set_tempo,240,1,0,,,,,,,,,,,,477441,,,,,,,
40800,control_change,205,0,2,,,,,,,,,,,,,,,0,64,0,,
40839,control_change,39,0,2,,,,,,,,,,,,,,,0,64,127,,
40920,note_on,0,0,1,,,,,,,,,,,,,,,0,,,70,73
40920,note_on,120,0,1,,,,,,,,,,,,,,,0,,,71,0
40980,note_on,60,0,1,,,,,,,,,,,,,,,0,,,70,0
41040,set_tempo,240,1,0,,,,,,,,,,,,469962,,,,,,,
41040,control_change,201,0,2,,,,,,,,,,,,,,,0,64,0,,
41040,note_on,60,0,1,,,,,,,,,,,,,,,0,,,70,93
41079,control_change,39,0,2,,,,,,,,,,,,,,,0,64,127,,
41160,note_on,0,0,1,,,,,,,,,,,,,,,0,,,71,80
41160,set_tempo,120,1,0,,,,,,,,,,,,477441,,,,,,,
41160,note_on,120,0,1,,,,,,,,,,,,,,,0,,,70,0
41220,note_on,60,0,1,,,,,,,,,,,,,,,0,,,71,0
41273,control_change,194,0,2,,,,,,,,,,,,,,,0,64,0,,
41280,note_on,60,0,1,,,,,,,,,,,,,,,0,,,71,85
41280,set_tempo,120,1,0,,,,,,,,,,,,469962,,,,,,,
41315,control_change,42,0,2,,,,,,,,,,,,,,,0,64,127,,
41400,note_on,0,0,1,,,,,,,,,,,,,,,0,,,70,78
41400,note_on,120,0,1,,,,,,,,,,,,,,,0,,,71,0
41460,note_on,60,0,1,,,,,,,,,,,,,,,0,,,70,0
41520,control_change,205,0,2,,,,,,,,,,,,,,,0,64,0,,
41520,set_tempo,240,1,0,,,,,,,,,,,,477441,,,,,,,
41520,note_on,60,0,1,,,,,,,,,,,,,,,0,,,70,84
41559,control_change,39,0,2,,,,,,,,,,,,,,,0,64,127,,
41640,note_on,0,0,1,,,,,,,,,,,,,,,0,,,71,77
41640,note_on,120,0,1,,,,,,,,,,,,,,,0,,,70,0
41700,note_on,60,0,1,,,,,,,,,,,,,,,0,,,71,0
41760,control_change,201,0,2,,,,,,,,,,,,,,,0,64,0,,
41760,note_on,60,0,1,,,,,,,,,,,,,,,0,,,71,90
41760,set_tempo,240,1,0,,,,,,,,,,,,469962,,,,,,,
41799,control_change,39,0,2,,,,,,,,,,,,,,,0,64,127,,
41880,set_tempo,120,1,0,,,,,,,,,,,,477441,,,,,,,
41880,note_on,120,0,1,,,,,,,,,,,,,,,0,,,71,0
41880,note_on,0,0,1,,,,,,,,,,,,,,,0,,,70,83
41940,note_on,60,0,1,,,,,,,,,,,,,,,0,,,70,0
42000,set_tempo,120,1,0,,,,,,,,,,,,469962,,,,,,,
42000,note_on,60,0,1,,,,,,,,,,,,,,,0,,,70,85
42120,note_on,120,0,1,,,,,,,,,,,,,,,0,,,70,0
42120,note_on,0,0,1,,,,,,,,,,,,,,,0,,,71,75
42180,note_on,60,0,1,,,,,,,,,,,,,,,0,,,71,0
42240,set_tempo,240,1,0,,,,,,,,,,,,477441,,,,,,,
42240,note_on,60,0,1,,,,,,,,,,,,,,,0,,,71,79
42360,note_on,120,0,1,,,,,,,,,,,,,,,0,,,71,0
42360,note_on,0,0,1,,,,,,,,,,,,,,,0,,,70,71
42420,note_on,60,0,1,,,,,,,,,,,,,,,0,,,70,0
42480,set_tempo,240,1,0,,,,,,,,,,,,469962,,,,,,,
42480,control_change,681,0,2,,,,,,,,,,,,,,,0,64,0,,
42480,note_on,60,0,1,,,,,,,,,,,,,,,0,,,70,88
42515,control_change,35,0,2,,,,,,,,,,,,,,,0,64,127,,
42600,note_on,120,0,1,,,,,,,,,,,,,,,0,,,70,0
42600,note_on,0,0,1,,,,,,,,,,,,,,,0,,,71,73
42600,set_tempo,120,1,0,,,,,,,,,,,,477441,,,,,,,
42660,note_on,60,0,1,,,,,,,,,,,,,,,0,,,71,0
42720,set_tempo,120,1,0,,,,,,,,,,,,469962,,,,,,,
42720,note_on,60,0,1,,,,,,,,,,,,,,,0,,,71,76
42840,note_on,120,0,1,,,,,,,,,,,,,,,0,,,71,0
42840,note_on,0,0,1,,,,,,,,,,,,,,,0,,,70,67
42900,note_on,60,0,1,,,,,,,,,,,,,,,0,,,70,0
42960,note_on,60,0,1,,,,,,,,,,,,,,,0,,,70,70
42960,set_tempo,240,1,0,,,,,,,,,,,,486815,,,,,,,
43080,note_on,0,0,1,,,,,,,,,,,,,,,0,,,71,62
43080,note_on,120,0,1,,,,,,,,,,,,,,,0,,,70,0
43080,set_tempo,120,1,0,,,,,,,,,,,,505604,,,,,,,
43140,note_on,60,0,1,,,,,,,,,,,,,,,0,,,71,0
43144,control_change,629,0,2,,,,,,,,,,,,,,,0,64,0,,
43200,note_on,60,0,1,,,,,,,,,,,,,,,0,,,68,70
43200,note_on,56,0,2,,,,,,,,,,,,,,,0,,,64,76
43200,note_on,0,0,1,,,,,,,,,,,,,,,0,,,70,70
43200,set_tempo,120,1,0,,,,,,,,,,,,475059,,,,,,,
43207,control_change,7,0,2,,,,,,,,,,,,,,,0,64,127,,
43320,note_on,113,0,2,,,,,,,,,,,,,,,0,,,64,0
43320,note_on,0,0,2,,,,,,,,,,,,,,,0,,,63,64
43320,set_tempo,120,1,0,,,,,,,,,,,,484809,,,,,,,
43341,control_change,21,0,2,,,,,,,,,,,,,,,0,64,0,,
43380,note_on,39,0,2,,,,,,,,,,,,,,,0,,,63,0
43440,note_on,60,0,2,,,,,,,,,,,,,,,0,,,63,66
43440,set_tempo,120,1,0,,,,,,,,,,,,475059,,,,,,,
43461,control_change,21,0,2,,,,,,,,,,,,,,,0,64,127,,
43560,note_on,99,0,2,,,,,,,,,,,,,,,0,,,63,0
43560,note_on,0,0,2,,,,,,,,,,,,,,,0,,,61,59
43595,control_change,35,0,2,,,,,,,,,,,,,,,0,64,0,,
43620,note_on,25,0,2,,,,,,,,,,,,,,,0,,,61,0
43680,note_on,60,0,2,,,,,,,,,,,,,,,0,,,61,63
43680,set_tempo,240,1,0,,,,,,,,,,,,477441,,,,,,,
43712,control_change,32,0,2,,,,,,,,,,,,,,,0,64,127,,
43800,note_on,88,0,2,,,,,,,,,,,,,,,0,,,61,0
43800,note_on,0,0,2,,,,,,,,,,,,,,,0,,,59,58
43860,note_on,60,0,2,,,,,,,,,,,,,,,0,,,59,0
43860,control_change,0,0,2,,,,,,,,,,,,,,,0,64,0,,
43920,set_tempo,240,1,0,,,,,,,,,,,,469962,,,,,,,
43920,note_on,60,0,2,,,,,,,,,,,,,,,0,,,59,66
43927,control_change,7,0,2,,,,,,,,,,,,,,,0,64,127,,
44040,set_tempo,120,1,0,,,,,,,,,,,,477441,,,,,,,
44040,note_on,113,0,2,,,,,,,,,,,,,,,0,,,59,0
44040,note_on,0,0,2,,,,,,,,,,,,,,,0,,,58,57
44061,control_change,21,0,2,,,,,,,,,,,,,,,0,64,0,,
44100,note_on,39,0,2,,,,,,,,,,,,,,,0,,,58,0
44160,note_on,60,0,2,,,,,,,,,,,,,,,0,,,58,60
44160,set_tempo,120,1,0,,,,,,,,,,,,469962,,,,,,,
44181,control_change,21,0,2,,,,,,,,,,,,,,,0,64,127,,
44280,note_on,99,0,2,,,,,,,,,,,,,,,0,,,58,0
44280,note_on,0,0,2,,,,,,,,,,,,,,,0,,,56,53
44315,control_change,35,0,2,,,,,,,,,,,,,,,0,64,0,,
44340,note_on,25,0,2,,,,,,,,,,,,,,,0,,,56,0
44400,set_tempo,240,1,0,,,,,,,,,,,,477441,,,,,,,
44400,note_on,60,0,2,,,,,,,,,,,,,,,0,,,56,59
44432,control_change,32,0,2,,,,,,,,,,,,,,,0,64,127,,
44520,note_on,88,0,2,,,,,,,,,,,,,,,0,,,56,0
44520,note_on,0,0,2,,,,,,,,,,,,,,,0,,,54,51
44580,control_change,0,0,2,,,,,,,,,,,,,,,0,64,0,,
44580,note_on,60,0,2,,,,,,,,,,,,,,,0,,,54,0
44640,note_on,60,0,2,,,,,,,,,,,,,,,0,,,54,59
44640,set_tempo,240,1,0,,,,,,,,,,,,469962,,,,,,,
44647,control_change,7,0,2,,,,,,,,,,,,,,,0,64,127,,
44760,note_on,0,0,2,,,,,,,,,,,,,,,0,,,52,51
44760,note_on,113,0,2,,,,,,,,,,,,,,,0,,,54,0
44760,set_tempo,120,1,0,,,,,,,,,,,,477441,,,,,,,
44781,control_change,21,0,2,,,,,,,,,,,,,,,0,64,0,,
44820,note_on,39,0,2,,,,,,,,,,,,,,,0,,,52,0
44880,set_tempo,120,1,0,,,,,,,,,,,,469962,,,,,,,
44880,note_on,60,0,2,,,,,,,,,,,,,,,0,,,52,53
44901,control_change,21,0,2,,,,,,,,,,,,,,,0,64,127,,
45000,note_on,99,0,2,,,,,,,,,,,,,,,0,,,52,0
45000,note_on,0,0,2,,,,,,,,,,,,,,,0,,,51,46
45035,control_change,35,0,2,,,,,,,,,,,,,,,0,64,0,,
45060,note_on,25,0,2,,,,,,,,,,,,,,,0,,,51,0
45120,note_on,60,0,2,,,,,,,,,,,,,,,0,,,51,51
45120,set_tempo,240,1,0,,,,,,,,,,,,477441,,,,,,,
45152,control_change,32,0,2,,,,,,,,,,,,,,,0,64,127,,
45240,set_tempo,120,1,0,,,,,,,,,,,,520743,,,,,,,
45240,note_on,0,0,2,,,,,,,,,,,,,,,0,,,49,47
45240,note_on,88,0,2,,,,,,,,,,,,,,,0,,,51,0
45300,control_change,0,0,2,,,,,,,,,,,,,,,0,64,0,,
45300,note_on,60,0,2,,,,,,,,,,,,,,,0,,,49,0
45360,note_on,0,0,1,,,,,,,,,,,,,,,0,,,61,57
45360,set_tempo,120,1,0,,,,,,,,,,,,473149,,,,,,,
45360,note_on,60,0,2,,,,,,,,,,,,,,,0,,,51,49
45360,note_on,0,0,1,,,,,,,,,,,,,,,0,,,67,57
45360,note_on,2160,0,1,,,,,,,,,,,,,,,0,,,68,0
45840,note_on,0,0,1,,,,,,,,,,,,,,,0,,,71,57
45840,note_on,480,0,1,,,,,,,,,,,,,,,0,,,70,0
45840,note_on,480,0,2,,,,,,,,,,,,,,,0,,,39,49
46080,note_on,0,0,1,,,,,,,,,,,,,,,0,,,61,0
46080,note_on,240,0,1,,,,,,,,,,,,,,,0,,,71,0
46080,note_on,0,0,1,,,,,,,,,,,,,,,0,,,59,57
46080,note_on,0,0,1,,,,,,,,,,,,,,,0,,,68,57
46080,note_on,0,0,1,,,,,,,,,,,,,,,0,,,67,0
46080,note_on,0,0,2,,,,,,,,,,,,,,,0,,,44,49
46080,set_tempo,720,1,0,,,,,,,,,,,,519031,,,,,,,
46080,note_on,240,0,2,,,,,,,,,,,,,,,0,,,39,0
46200,note_on,120,0,1,,,,,,,,,,,,,,,0,,,68,0
46200,note_on,0,0,1,,,,,,,,,,,,,,,0,,,59,0
46200,note_on,120,0,2,,,,,,,,,,,,,,,0,,,44,0
46320,note_on,120,0,2,,,,,,,,,,,,,,,0,,,51,0
46320,set_tempo,240,1,0,,,,,,,,,,,,499584,,,,,,,
46320,note_on,0,0,2,,,,,,,,,,,,,,,0,,,37,40
46320,note_on,120,0,1,,,,,,,,,,,,,,,0,,,64,53
46320,note_on,0,0,2,,,,,,,,,,,,,,,0,,,49,48
46320,note_on,0,0,1,,,,,,,,,,,,,,,0,,,61,53
46320,note_on,0,0,1,,,,,,,,,,,,,,,0,,,68,63
46351,control_change,31,0,2,,,,,,,,,,,,,,,0,64,127,,
46380,note_on,29,0,2,,,,,,,,,,,,,,,0,,,49,0
46380,note_on,0,0,2,,,,,,,,,,,,,,,0,,,37,0
46440,note_on,0,0,1,,,,,,,,,,,,,,,0,,,71,53
46440,note_on,120,0,1,,,,,,,,,,,,,,,0,,,68,0
46500,note_on,0,0,1,,,,,,,,,,,,,,,0,,,61,0
46500,note_on,0,0,1,,,,,,,,,,,,,,,0,,,64,0
46500,note_on,60,0,1,,,,,,,,,,,,,,,0,,,71,0
46525,control_change,145,0,2,,,,,,,,,,,,,,,0,64,0,,
46560,note_on,0,0,2,,,,,,,,,,,,,,,0,,,51,44
46560,set_tempo,240,1,0,,,,,,,,,,,,483364,,,,,,,
46560,note_on,60,0,1,,,,,,,,,,,,,,,0,,,67,53
46560,note_on,0,0,1,,,,,,,,,,,,,,,0,,,61,53
46560,note_on,35,0,2,,,,,,,,,,,,,,,0,,,39,36
46560,note_on,0,0,1,,,,,,,,,,,,,,,0,,,71,63
46574,control_change,14,0,2,,,,,,,,,,,,,,,0,64,127,,
46620,note_on,46,0,2,,,,,,,,,,,,,,,0,,,51,0
46620,note_on,0,0,2,,,,,,,,,,,,,,,0,,,39,0
46680,note_on,120,0,1,,,,,,,,,,,,,,,0,,,71,0
46680,note_on,0,0,1,,,,,,,,,,,,,,,0,,,70,53
46740,note_on,60,0,1,,,,,,,,,,,,,,,0,,,70,0
46740,note_on,0,0,1,,,,,,,,,,,,,,,0,,,61,0
46740,note_on,0,0,1,,,,,,,,,,,,,,,0,,,67,0
46800,note_on,0,0,2,,,,,,,,,,,,,,,0,,,44,36
46800,control_change,0,0,2,,,,,,,,,,,,,,,0,64,0,,
46800,note_on,180,0,2,,,,,,,,,,,,,,,0,,,56,44
46800,set_tempo,240,1,0,,,,,,,,,,,,487329,,,,,,,
46800,note_on,60,0,1,,,,,,,,,,,,,,,0,,,59,53
46800,note_on,0,0,1,,,,,,,,,,,,,,,0,,,70,63
46835,control_change,35,0,2,,,,,,,,,,,,,,,0,64,127,,
46860,note_on,25,0,2,,,,,,,,,,,,,,,0,,,44,0
46860,note_on,0,0,2,,,,,,,,,,,,,,,0,,,56,0
46920,set_tempo,120,1,0,,,,,,,,,,,,499584,,,,,,,
46920,note_on,0,0,1,,,,,,,,,,,,,,,0,,,68,53
46920,note_on,120,0,1,,,,,,,,,,,,,,,0,,,70,0
46980,control_change,120,0,2,,,,,,,,,,,,,,,0,64,0,,
46980,note_on,60,0,1,,,,,,,,,,,,,,,0,,,68,0
46980,note_on,0,0,1,,,,,,,,,,,,,,,0,,,59,0
47040,set_tempo,120,1,0,,,,,,,,,,,,483364,,,,,,,
47040,note_on,0,0,2,,,,,,,,,,,,,,,0,,,49,48
47040,note_on,60,0,2,,,,,,,,,,,,,,,0,,,37,40
47040,note_on,0,0,1,,,,,,,,,,,,,,,0,,,68,63
47040,note_on,0,0,1,,,,,,,,,,,,,,,0,,,61,53
47040,note_on,60,0,1,,,,,,,,,,,,,,,0,,,64,53
47060,set_tempo,20,1,0,,,,,,,,,,,,487329,,,,,,,
47071,control_change,31,0,2,,,,,,,,,,,,,,,0,64,127,,
47100,note_on,29,0,2,,,,,,,,,,,,,,,0,,,49,0
47100,note_on,0,0,2,,,,,,,,,,,,,,,0,,,37,0
47160,note_on,120,0,1,,,,,,,,,,,,,,,0,,,68,0
47160,note_on,0,0,1,,,,,,,,,,,,,,,0,,,71,53
47220,note_on,0,0,1,,,,,,,,,,,,,,,0,,,61,0
47220,note_on,60,0,1,,,,,,,,,,,,,,,0,,,71,0
47220,note_on,0,0,1,,,,,,,,,,,,,,,0,,,64,0
47269,control_change,169,0,2,,,,,,,,,,,,,,,0,64,0,,
47280,note_on,0,0,2,,,,,,,,,,,,,,,0,,,39,36
47280,note_on,0,0,1,,,,,,,,,,,,,,,0,,,61,53
47280,set_tempo,220,1,0,,,,,,,,,,,,479425,,,,,,,
47280,note_on,60,0,1,,,,,,,,,,,,,,,0,,,67,53
47280,note_on,0,0,1,,,,,,,,,,,,,,,0,,,71,63
47280,note_on,11,0,2,,,,,,,,,,,,,,,0,,,51,44
47294,control_change,14,0,2,,,,,,,,,,,,,,,0,64,127,,
47340,note_on,46,0,2,,,,,,,,,,,,,,,0,,,39,0
47340,note_on,0,0,2,,,,,,,,,,,,,,,0,,,51,0
47400,note_on,120,0,1,,,,,,,,,,,,,,,0,,,71,0
47400,note_on,0,0,1,,,,,,,,,,,,,,,0,,,70,53
47460,note_on,0,0,1,,,,,,,,,,,,,,,0,,,67,0
47460,note_on,60,0,1,,,,,,,,,,,,,,,0,,,70,0
47460,note_on,0,0,1,,,,,,,,,,,,,,,0,,,61,0
47520,control_change,180,0,2,,,,,,,,,,,,,,,0,64,0,,
47520,note_on,0,0,2,,,,,,,,,,,,,,,0,,,40,36
47520,note_on,0,0,2,,,,,,,,,,,,,,,0,,,52,44
47520,set_tempo,240,1,0,,,,,,,,,,,,487329,,,,,,,
47520,note_on,0,0,1,,,,,,,,,,,,,,,0,,,70,63
47520,note_on,60,0,1,,,,,,,,,,,,,,,0,,,59,53
47555,control_change,35,0,2,,,,,,,,,,,,,,,0,64,127,,
47580,note_on,0,0,2,,,,,,,,,,,,,,,0,,,40,0
47580,note_on,25,0,2,,,,,,,,,,,,,,,0,,,52,0
47640,note_on,0,0,1,,,,,,,,,,,,,,,0,,,68,53
47640,set_tempo,120,1,0,,,,,,,,,,,,519211,,,,,,,
47640,note_on,120,0,1,,,,,,,,,,,,,,,0,,,70,0
47669,control_change,89,0,2,,,,,,,,,,,,,,,0,64,0,,
47700,note_on,60,0,1,,,,,,,,,,,,,,,0,,,68,0
47700,note_on,0,0,1,,,,,,,,,,,,,,,0,,,59,0
47760,note_on,60,0,1,,,,,,,,,,,,,,,0,,,63,53
47760,note_on,0,0,1,,,,,,,,,,,,,,,0,,,66,63
47760,set_tempo,120,1,0,,,,,,,,,,,,483364,,,,,,,
47760,note_on,0,0,2,,,,,,,,,,,,,,,0,,,47,48
47760,note_on,91,0,2,,,,,,,,,,,,,,,0,,,35,40
47791,control_change,31,0,2,,,,,,,,,,,,,,,0,64,127,,
47820,note_on,29,0,2,,,,,,,,,,,,,,,0,,,47,0
47820,note_on,0,0,2,,,,,,,,,,,,,,,0,,,35,0
47880,note_on,0,0,1,,,,,,,,,,,,,,,0,,,75,53
47880,note_on,120,0,1,,,,,,,,,,,,,,,0,,,66,0
47940,note_on,60,0,1,,,,,,,,,,,,,,,0,,,75,0
47940,note_on,0,0,1,,,,,,,,,,,,,,,0,,,63,0
47954,control_change,134,0,2,,,,,,,,,,,,,,,0,64,0,,
48000,note_on,0,0,2,,,,,,,,,,,,,,,0,,,49,44
48000,note_on,46,0,2,,,,,,,,,,,,,,,0,,,37,36
48000,set_tempo,240,1,0,,,,,,,,,,,,475624,,,,,,,
48000,note_on,0,0,1,,,,,,,,,,,,,,,0,,,64,53
48000,note_on,0,0,1,,,,,,,,,,,,,,,0,,,75,63
48000,note_on,60,0,1,,,,,,,,,,,,,,,0,,,70,53
48014,control_change,14,0,2,,,,,,,,,,,,,,,0,64,127,,
48060,note_on,46,0,2,,,,,,,,,,,,,,,0,,,49,0
48060,note_on,0,0,2,,,,,,,,,,,,,,,0,,,37,0
48120,note_on,0,0,1,,,,,,,,,,,,,,,0,,,73,53
48120,note_on,120,0,1,,,,,,,,,,,,,,,0,,,75,0
48180,note_on,0,0,1,,,,,,,,,,,,,,,0,,,64,0
48180,note_on,60,0,1,,,,,,,,,,,,,,,0,,,73,0
48180,note_on,0,0,1,,,,,,,,,,,,,,,0,,,70,0
48240,set_tempo,240,1,0,,,,,,,,,,,,487329,,,,,,,
48240,note_on,0,0,2,,,,,,,,,,,,,,,0,,,39,36
48240,note_on,60,0,1,,,,,,,,,,,,,,,0,,,68,53
48240,note_on,0,0,1,,,,,,,,,,,,,,,0,,,63,53
48240,note_on,0,0,1,,,,,,,,,,,,,,,0,,,73,63
48240,control_change,180,0,2,,,,,,,,,,,,,,,0,64,0,,
48240,note_on,0,0,2,,,,,,,,,,,,,,,0,,,51,44
48275,control_change,35,0,2,,,,,,,,,,,,,,,0,64,127,,
48300,note_on,25,0,2,,,,,,,,,,,,,,,0,,,51,0
48300,note_on,0,0,2,,,,,,,,,,,,,,,0,,,39,0
48360,set_tempo,120,1,0,,,,,,,,,,,,553097,,,,,,,
48360,note_on,120,0,1,,,,,,,,,,,,,,,0,,,73,0
48360,note_on,0,0,1,,,,,,,,,,,,,,,0,,,71,53
48420,note_on,60,0,1,,,,,,,,,,,,,,,0,,,71,0
48420,note_on,0,0,1,,,,,,,,,,,,,,,0,,,63,0
48420,note_on,0,0,1,,,,,,,,,,,,,,,0,,,68,0
48452,control_change,152,0,2,,,,,,,,,,,,,,,0,64,0,,
48480,note_on,60,0,1,,,,,,,,,,,,,,,0,,,63,63
48480,set_tempo,120,1,0,,,,,,,,,,,,483364,,,,,,,
48480,note_on,28,0,2,,,,,,,,,,,,,,,0,,,51,48
48511,control_change,31,0,2,,,,,,,,,,,,,,,0,64,127,,
48540,note_on,29,0,2,,,,,,,,,,,,,,,0,,,51,0
48600,note_on,120,0,1,,,,,,,,,,,,,,,0,,,71,53
48660,note_on,0,0,1,,,,,,,,,,,,,,,0,,,63,0
48660,note_on,60,0,1,,,,,,,,,,,,,,,0,,,71,0
48706,control_change,166,0,2,,,,,,,,,,,,,,,0,64,0,,
48720,set_tempo,240,1,0,,,,,,,,,,,,491320,,,,,,,
48720,note_on,0,0,1,,,,,,,,,,,,,,,0,,,61,53
48720,note_on,60,0,1,,,,,,,,,,,,,,,0,,,67,53
48720,note_on,0,0,1,,,,,,,,,,,,,,,0,,,71,63
48720,note_on,0,0,2,,,,,,,,,,,,,,,0,,,51,44
48720,note_on,14,0,2,,,,,,,,,,,,,,,0,,,39,36
48734,control_change,14,0,2,,,,,,,,,,,,,,,0,64,127,,
48780,note_on,46,0,2,,,,,,,,,,,,,,,0,,,51,0
48780,note_on,0,0,2,,,,,,,,,,,,,,,0,,,39,0
48840,note_on,0,0,1,,,,,,,,,,,,,,,0,,,70,53
48840,note_on,120,0,1,,,,,,,,,,,,,,,0,,,71,0
48900,note_on,60,0,1,,,,,,,,,,,,,,,0,,,70,0
48900,note_on,0,0,1,,,,,,,,,,,,,,,0,,,61,0
48900,note_on,0,0,1,,,,,,,,,,,,,,,0,,,67,0
48960,note_on,60,0,1,,,,,,,,,,,,,,,0,,,59,53
48960,note_on,0,0,1,,,,,,,,,,,,,,,0,,,68,63
48960,set_tempo,240,1,0,,,,,,,,,,,,525026,,,,,,,
48960,note_on,0,0,2,,,,,,,,,,,,,,,0,,,44,36
48960,note_on,180,0,2,,,,,,,,,,,,,,,0,,,51,44
48960,control_change,0,0,2,,,,,,,,,,,,,,,0,64,0,,
48995,control_change,35,0,2,,,,,,,,,,,,,,,0,64,127,,
49020,note_on,25,0,2,,,,,,,,,,,,,,,0,,,44,0
49020,note_on,0,0,2,,,,,,,,,,,,,,,0,,,51,0
49080,note_on,0,0,1,,,,,,,,,,,,,,,0,,,59,0
49080,note_on,120,0,1,,,,,,,,,,,,,,,0,,,68,0
49108,control_change,88,0,2,,,,,,,,,,,,,,,0,64,0,,
49200,set_tempo,240,1,0,,,,,,,,,,,,493502,,,,,,,
49200,note_on,92,0,2,,,,,,,,,,,,,,,0,,,37,40
49200,note_on,120,0,1,,,,,,,,,,,,,,,0,,,64,53
49200,note_on,0,0,1,,,,,,,,,,,,,,,0,,,61,53
49200,note_on,0,0,1,,,,,,,,,,,,,,,0,,,68,63
49200,note_on,0,0,2,,,,,,,,,,,,,,,0,,,49,48
49231,control_change,31,0,2,,,,,,,,,,,,,,,0,64,127,,
49260,note_on,29,0,2,,,,,,,,,,,,,,,0,,,49,0
49260,note_on,0,0,2,,,,,,,,,,,,,,,0,,,37,0
49320,note_on,0,0,1,,,,,,,,,,,,,,,0,,,71,53
49320,note_on,120,0,1,,,,,,,,,,,,,,,0,,,68,0
49380,note_on,0,0,1,,,,,,,,,,,,,,,0,,,61,0
49380,note_on,60,0,1,,,,,,,,,,,,,,,0,,,71,0
49380,note_on,0,0,1,,,,,,,,,,,,,,,0,,,64,0
49405,control_change,145,0,2,,,,,,,,,,,,,,,0,64,0,,
49440,set_tempo,240,1,0,,,,,,,,,,,,485751,,,,,,,
49440,note_on,0,0,1,,,,,,,,,,,,,,,0,,,61,53
49440,note_on,35,0,2,,,,,,,,,,,,,,,0,,,51,44
49440,note_on,0,0,2,,,,,,,,,,,,,,,0,,,39,36
49440,note_on,0,0,1,,,,,,,,,,,,,,,0,,,71,63
49440,note_on,60,0,1,,,,,,,,,,,,,,,0,,,67,53
49454,control_change,14,0,2,,,,,,,,,,,,,,,0,64,127,,
49500,note_on,0,0,2,,,,,,,,,,,,,,,0,,,51,0
49500,note_on,46,0,2,,,,,,,,,,,,,,,0,,,39,0
49560,note_on,120,0,1,,,,,,,,,,,,,,,0,,,71,0
49560,note_on,0,0,1,,,,,,,,,,,,,,,0,,,70,53
49620,note_on,60,0,1,,,,,,,,,,,,,,,0,,,70,0
49620,note_on,0,0,1,,,,,,,,,,,,,,,0,,,61,0
49620,note_on,0,0,1,,,,,,,,,,,,,,,0,,,67,0
49680,note_on,60,0,1,,,,,,,,,,,,,,,0,,,59,53
49680,note_on,0,0,1,,,,,,,,,,,,,,,0,,,70,63
49680,set_tempo,240,1,0,,,,,,,,,,,,487329,,,,,,,
49680,note_on,0,0,2,,,,,,,,,,,,,,,0,,,56,44
49680,note_on,0,0,2,,,,,,,,,,,,,,,0,,,44,36
49680,control_change,180,0,2,,,,,,,,,,,,,,,0,64,0,,
49700,set_tempo,20,1,0,,,,,,,,,,,,493502,,,,,,,
49715,control_change,35,0,2,,,,,,,,,,,,,,,0,64,127,,
49740,note_on,0,0,2,,,,,,,,,,,,,,,0,,,44,0
49740,note_on,25,0,2,,,,,,,,,,,,,,,0,,,56,0
49800,set_tempo,100,1,0,,,,,,,,,,,,499584,,,,,,,
49800,note_on,120,0,1,,,,,,,,,,,,,,,0,,,70,0
49800,note_on,0,0,1,,,,,,,,,,,,,,,0,,,68,53
49860,control_change,120,0,2,,,,,,,,,,,,,,,0,64,0,,
49860,note_on,60,0,1,,,,,,,,,,,,,,,0,,,68,0
49860,note_on,0,0,1,,,,,,,,,,,,,,,0,,,59,0
49920,set_tempo,120,1,0,,,,,,,,,,,,489317,,,,,,,
49920,note_on,60,0,2,,,,,,,,,,,,,,,0,,,37,40
49920,note_on,60,0,1,,,,,,,,,,,,,,,0,,,64,53
49920,note_on,0,0,1,,,,,,,,,,,,,,,0,,,61,53
49920,note_on,0,0,1,,,,,,,,,,,,,,,0,,,68,63
49920,note_on,0,0,2,,,,,,,,,,,,,,,0,,,49,48
49951,control_change,31,0,2,,,,,,,,,,,,,,,0,64,127,,
49980,note_on,0,0,2,,,,,,,,,,,,,,,0,,,37,0
49980,note_on,29,0,2,,,,,,,,,,,,,,,0,,,49,0
50040,note_on,0,0,1,,,,,,,,,,,,,,,0,,,71,53
50040,note_on,120,0,1,,,,,,,,,,,,,,,0,,,68,0
50100,note_on,60,0,1,,,,,,,,,,,,,,,0,,,71,0
50100,note_on,0,0,1,,,,,,,,,,,,,,,0,,,64,0
50100,note_on,0,0,1,,,,,,,,,,,,,,,0,,,61,0
50149,control_change,169,0,2,,,,,,,,,,,,,,,0,64,0,,
50160,note_on,0,0,1,,,,,,,,,,,,,,,0,,,71,63
50160,set_tempo,240,1,0,,,,,,,,,,,,475624,,,,,,,
50160,note_on,0,0,1,,,,,,,,,,,,,,,0,,,61,53
50160,note_on,60,0,1,,,,,,,,,,,,,,,0,,,67,53
50160,note_on,0,0,2,,,,,,,,,,,,,,,0,,,51,44
50160,note_on,11,0,2,,,,,,,,,,,,,,,0,,,39,36
50174,control_change,14,0,2,,,,,,,,,,,,,,,0,64,127,,
50180,set_tempo,20,1,0,,,,,,,,,,,,479425,,,,,,,
50220,note_on,0,0,2,,,,,,,,,,,,,,,0,,,39,0
50220,note_on,46,0,2,,,,,,,,,,,,,,,0,,,51,0
50280,note_on,120,0,1,,,,,,,,,,,,,,,0,,,71,0
50280,note_on,0,0,1,,,,,,,,,,,,,,,0,,,70,53
50340,note_on,0,0,1,,,,,,,,,,,,,,,0,,,67,0
50340,note_on,0,0,1,,,,,,,,,,,,,,,0,,,61,0
50340,note_on,60,0,1,,,,,,,,,,,,,,,0,,,70,0
50400,note_on,0,0,1,,,,,,,,,,,,,,,0,,,70,63
50400,note_on,60,0,1,,,,,,,,,,,,,,,0,,,59,53
50400,set_tempo,220,1,0,,,,,,,,,,,,499168,,,,,,,
50400,control_change,180,0,2,,,,,,,,,,,,,,,0,64,0,,
50400,note_on,0,0,2,,,,,,,,,,,,,,,0,,,40,36
50400,note_on,0,0,2,,,,,,,,,,,,,,,0,,,52,44
50435,control_change,35,0,2,,,,,,,,,,,,,,,0,64,127,,
50460,note_on,25,0,2,,,,,,,,,,,,,,,0,,,52,0
50460,note_on,0,0,2,,,,,,,,,,,,,,,0,,,40,0
50520,note_on,0,0,1,,,,,,,,,,,,,,,0,,,68,53
50520,note_on,120,0,1,,,,,,,,,,,,,,,0,,,70,0
50520,set_tempo,120,1,0,,,,,,,,,,,,577534,,,,,,,
50549,control_change,89,0,2,,,,,,,,,,,,,,,0,64,0,,
50580,note_on,0,0,1,,,,,,,,,,,,,,,0,,,59,0
50580,note_on,60,0,1,,,,,,,,,,,,,,,0,,,68,0
50640,note_on,0,0,1,,,,,,,,,,,,,,,0,,,64,63
50640,note_on,60,0,1,,,,,,,,,,,,,,,0,,,61,53
50640,note_on,91,0,2,,,,,,,,,,,,,,,0,,,45,48
50640,set_tempo,120,1,0,,,,,,,,,,,,505604,,,,,,,
50640,note_on,0,0,2,,,,,,,,,,,,,,,0,,,33,40
50671,control_change,31,0,2,,,,,,,,,,,,,,,0,64,127,,
50700,note_on,0,0,2,,,,,,,,,,,,,,,0,,,45,0
50700,note_on,29,0,2,,,,,,,,,,,,,,,0,,,33,0
50760,note_on,0,0,1,,,,,,,,,,,,,,,0,,,73,53
50760,note_on,120,0,1,,,,,,,,,,,,,,,0,,,64,0
50820,note_on,0,0,1,,,,,,,,,,,,,,,0,,,61,0
50820,note_on,60,0,1,,,,,,,,,,,,,,,0,,,73,0
50880,note_on,0,0,1,,,,,,,,,,,,,,,0,,,73,63
50880,note_on,0,0,1,,,,,,,,,,,,,,,0,,,62,53
50880,note_on,60,0,1,,,,,,,,,,,,,,,0,,,68,53
50880,note_on,0,0,2,,,,,,,,,,,,,,,0,,,47,44
50880,control_change,180,0,2,,,,,,,,,,,,,,,0,64,0,,
50880,set_tempo,240,1,0,,,,,,,,,,,,495009,,,,,,,
50880,note_on,0,0,2,,,,,,,,,,,,,,,0,,,35,36
50894,control_change,14,0,2,,,,,,,,,,,,,,,0,64,127,,
50940,note_on,0,0,2,,,,,,,,,,,,,,,0,,,35,0
50940,note_on,46,0,2,,,,,,,,,,,,,,,0,,,47,0
51000,note_on,0,0,1,,,,,,,,,,,,,,,0,,,71,53
51000,note_on,120,0,1,,,,,,,,,,,,,,,0,,,73,0
51060,note_on,0,0,1,,,,,,,,,,,,,,,0,,,62,0
51060,note_on,0,0,1,,,,,,,,,,,,,,,0,,,68,0
51060,note_on,60,0,1,,,,,,,,,,,,,,,0,,,71,0
51120,note_on,0,0,1,,,,,,,,,,,,,,,0,,,71,63
51120,note_on,0,0,1,,,,,,,,,,,,,,,0,,,61,53
51120,note_on,60,0,1,,,,,,,,,,,,,,,0,,,64,53
51120,note_on,180,0,2,,,,,,,,,,,,,,,0,,,49,44
51120,control_change,0,0,2,,,,,,,,,,,,,,,0,64,0,,
51120,set_tempo,240,1,0,,,,,,,,,,,,503482,,,,,,,
51120,note_on,0,0,2,,,,,,,,,,,,,,,0,,,37,36
51155,control_change,35,0,2,,,,,,,,,,,,,,,0,64,127,,
51180,note_on,0,0,2,,,,,,,,,,,,,,,0,,,49,0
51180,note_on,25,0,2,,,,,,,,,,,,,,,0,,,37,0
51240,set_tempo,120,1,0,,,,,,,,,,,,553097,,,,,,,
51240,note_on,120,0,1,,,,,,,,,,,,,,,0,,,71,0
51240,note_on,0,0,1,,,,,,,,,,,,,,,0,,,69,53
51300,control_change,120,0,2,,,,,,,,,,,,,,,0,64,0,,
51300,note_on,60,0,1,,,,,,,,,,,,,,,0,,,69,0
51300,note_on,0,0,1,,,,,,,,,,,,,,,0,,,61,0
51300,note_on,0,0,1,,,,,,,,,,,,,,,0,,,64,0
51360,note_on,0,0,2,,,,,,,,,,,,,,,0,,,51,48
51360,note_on,60,0,2,,,,,,,,,,,,,,,0,,,39,45
51360,note_on,0,0,1,,,,,,,,,,,,,,,0,,,63,63
51360,note_on,60,0,1,,,,,,,,,,,,,,,0,,,59,53
51360,set_tempo,120,1,0,,,,,,,,,,,,497100,,,,,,,
51391,control_change,31,0,2,,,,,,,,,,,,,,,0,64,127,,
51420,note_on,29,0,2,,,,,,,,,,,,,,,0,,,51,0
51420,note_on,0,0,2,,,,,,,,,,,,,,,0,,,39,0
51480,note_on,120,0,1,,,,,,,,,,,,,,,0,,,71,53
51480,set_tempo,120,1,0,,,,,,,,,,,,509987,,,,,,,
51540,note_on,60,0,1,,,,,,,,,,,,,,,0,,,71,0
51540,note_on,0,0,1,,,,,,,,,,,,,,,0,,,63,0
51540,note_on,0,0,1,,,,,,,,,,,,,,,0,,,59,0
51586,control_change,166,0,2,,,,,,,,,,,,,,,0,64,0,,
51600,note_on,14,0,2,,,,,,,,,,,,,,,0,,,27,36
51600,note_on,0,0,2,,,,,,,,,,,,,,,0,,,39,44
51600,set_tempo,120,1,0,,,,,,,,,,,,525947,,,,,,,
51600,note_on,60,0,1,,,,,,,,,,,,,,,0,,,63,53
51600,note_on,0,0,1,,,,,,,,,,,,,,,0,,,58,53
51600,note_on,0,0,1,,,,,,,,,,,,,,,0,,,68,63
51614,control_change,14,0,2,,,,,,,,,,,,,,,0,64,127,,
51660,note_on,46,0,2,,,,,,,,,,,,,,,0,,,39,0
51660,note_on,0,0,2,,,,,,,,,,,,,,,0,,,27,0
51720,note_on,120,0,1,,,,,,,,,,,,,,,0,,,68,0
51720,note_on,0,0,1,,,,,,,,,,,,,,,0,,,67,53
51720,set_tempo,120,1,0,,,,,,,,,,,,555607,,,,,,,
51780,note_on,60,0,1,,,,,,,,,,,,,,,0,,,67,0
51780,note_on,0,0,1,,,,,,,,,,,,,,,0,,,58,0
51815,control_change,155,0,2,,,,,,,,,,,,,,,0,64,0,,
51840,note_on,60,0,1,,,,,,,,,,,,,,,0,,,59,53
51840,note_on,0,0,1,,,,,,,,,,,,,,,0,,,68,63
51840,note_on,0,0,2,,,,,,,,,,,,,,,0,,,44,44
51840,note_on,25,0,2,,,,,,,,,,,,,,,0,,,32,36
51840,set_tempo,120,1,0,,,,,,,,,,,,482820,,,,,,,
51893,control_change,53,0,2,,,,,,,,,,,,,,,0,64,127,,
51900,note_on,0,0,2,,,,,,,,,,,,,,,0,,,32,0
51900,note_on,7,0,2,,,,,,,,,,,,,,,0,,,44,0
51960,note_on,0,0,1,,,,,,,,,,,,,,,0,,,59,0
51960,note_on,120,0,1,,,,,,,,,,,,,,,0,,,68,0
51960,note_on,0,0,1,,,,,,,,,,,,,,,0,,,63,0
52084,control_change,184,0,2,,,,,,,,,,,,,,,0,64,0,,
52560,note_on,0,0,2,,,,,,,,,,,,,,,0,,,39,63
52560,note_on,0,0,2,,,,,,,,,,,,,,,0,,,51,63
52560,control_change,476,0,2,,,,,,,,,,,,,,,0,64,127,,
52560,set_tempo,720,1,0,,,,,,,,,,,,478927,,,,,,,
52560,note_on,600,0,1,,,,,,,,,,,,,,,0,,,63,69
52800,note_on,240,0,2,,,,,,,,,,,,,,,0,,,59,59
52800,note_on,0,0,2,,,,,,,,,,,,,,,0,,,56,59
52800,set_tempo,240,1,0,,,,,,,,,,,,463822,,,,,,,
52800,control_change,0,0,2,,,,,,,,,,,,,,,0,64,0,,
52920,note_on,120,0,2,,,,,,,,,,,,,,,0,,,56,0
52920,note_on,0,0,2,,,,,,,,,,,,,,,0,,,59,0
52920,note_on,0,0,2,,,,,,,,,,,,,,,0,,,55,55
52920,note_on,0,0,2,,,,,,,,,,,,,,,0,,,58,55
53010,note_on,90,0,2,,,,,,,,,,,,,,,0,,,58,0
53010,note_on,0,0,2,,,,,,,,,,,,,,,0,,,55,0
53040,note_on,0,0,2,,,,,,,,,,,,,,,0,,,58,55
53040,note_on,30,0,2,,,,,,,,,,,,,,,0,,,55,55
53160,note_on,0,0,2,,,,,,,,,,,,,,,0,,,61,55
53160,note_on,0,0,2,,,,,,,,,,,,,,,0,,,58,55
53160,note_on,0,0,2,,,,,,,,,,,,,,,0,,,55,0
53160,note_on,120,0,2,,,,,,,,,,,,,,,0,,,58,0
53280,note_on,120,0,2,,,,,,,,,,,,,,,0,,,61,0
53280,note_on,0,0,2,,,,,,,,,,,,,,,0,,,56,63
53280,note_on,0,0,2,,,,,,,,,,,,,,,0,,,59,63
53280,note_on,0,0,2,,,,,,,,,,,,,,,0,,,58,0
53280,set_tempo,480,1,0,,,,,,,,,,,,478927,,,,,,,
53520,note_on,240,0,2,,,,,,,,,,,,,,,0,,,56,0
53520,note_on,0,0,2,,,,,,,,,,,,,,,0,,,59,0
53760,note_on,240,0,2,,,,,,,,,,,,,,,0,,,51,0
53760,set_tempo,480,1,0,,,,,,,,,,,,512251,,,,,,,
53760,note_on,0,0,1,,,,,,,,,,,,,,,0,,,64,63
53760,note_on,1200,0,1,,,,,,,,,,,,,,,0,,,63,0
53760,note_on,0,0,2,,,,,,,,,,,,,,,0,,,39,0
54000,set_tempo,240,1,0,,,,,,,,,,,,499168,,,,,,,
54000,note_on,240,0,1,,,,,,,,,,,,,,,0,,,64,0
54000,note_on,0,0,1,,,,,,,,,,,,,,,0,,,63,63
54000,note_on,240,0,2,,,,,,,,,,,,,,,0,,,39,56
54000,note_on,0,0,2,,,,,,,,,,,,,,,0,,,51,56
54051,control_change,51,0,2,,,,,,,,,,,,,,,0,64,127,,
54240,note_on,0,0,2,,,,,,,,,,,,,,,0,,,56,53
54240,control_change,0,0,2,,,,,,,,,,,,,,,0,64,0,,
54240,set_tempo,240,1,0,,,,,,,,,,,,509987,,,,,,,
54240,note_on,189,0,2,,,,,,,,,,,,,,,0,,,59,53
54360,note_on,0,0,2,,,,,,,,,,,,,,,0,,,55,49
54360,note_on,120,0,2,,,,,,,,,,,,,,,0,,,56,0
54360,note_on,0,0,2,,,,,,,,,,,,,,,0,,,59,0
54360,note_on,0,0,2,,,,,,,,,,,,,,,0,,,58,49
54450,note_on,90,0,2,,,,,,,,,,,,,,,0,,,58,0
54450,note_on,0,0,2,,,,,,,,,,,,,,,0,,,55,0
54480,note_on,30,0,2,,,,,,,,,,,,,,,0,,,55,49
54480,note_on,0,0,2,,,,,,,,,,,,,,,0,,,58,49
54600,note_on,120,0,2,,,,,,,,,,,,,,,0,,,58,0
54600,note_on,0,0,2,,,,,,,,,,,,,,,0,,,55,0
54600,note_on,0,0,2,,,,,,,,,,,,,,,0,,,58,49
54600,note_on,0,0,2,,,,,,,,,,,,,,,0,,,61,49
54720,note_on,120,0,2,,,,,,,,,,,,,,,0,,,61,0
54720,note_on,0,0,2,,,,,,,,,,,,,,,0,,,58,0
54720,note_on,0,0,2,,,,,,,,,,,,,,,0,,,59,56
54720,note_on,0,0,2,,,,,,,,,,,,,,,0,,,56,56
54720,set_tempo,480,1,0,,,,,,,,,,,,584738,,,,,,,
54960,set_tempo,240,1,0,,,,,,,,,,,,545951,,,,,,,
54960,note_on,960,0,1,,,,,,,,,,,,,,,0,,,63,0
54960,note_on,0,0,1,,,,,,,,,,,,,,,0,,,66,59
54960,note_on,240,0,2,,,,,,,,,,,,,,,0,,,56,0
54960,note_on,0,0,2,,,,,,,,,,,,,,,0,,,59,0
55200,note_on,240,0,2,,,,,,,,,,,,,,,0,,,51,0
55200,note_on,240,0,1,,,,,,,,,,,,,,,0,,,66,0
55200,set_tempo,240,1,0,,,,,,,,,,,,593178,,,,,,,
55200,note_on,0,0,2,,,,,,,,,,,,,,,0,,,39,0
55200,note_on,0,0,1,,,,,,,,,,,,,,,0,,,64,52
55440,note_on,0,0,1,,,,,,,,,,,,,,,0,,,64,57
55440,set_tempo,240,1,0,,,,,,,,,,,,568559,,,,,,,
55440,note_on,240,0,1,,,,,,,,,,,,,,,0,,,64,0
55680,set_tempo,240,1,0,,,,,,,,,,,,693161,,,,,,,
55680,note_on,0,0,1,,,,,,,,,,,,,,,0,,,63,50
55680,note_on,240,0,1,,,,,,,,,,,,,,,0,,,64,0
55920,set_tempo,240,1,0,,,,,,,,,,,,620091,,,,,,,
55920,note_on,0,0,2,,,,,,,,,,,,,,,0,,,39,90
55920,note_on,720,0,2,,,,,,,,,,,,,,,0,,,27,81
55920,note_on,0,0,2,,,,,,,,,,,,,,,0,,,51,99
55927,control_change,7,0,2,,,,,,,,,,,,,,,0,64,127,,
56040,note_on,0,0,2,,,,,,,,,,,,,,,0,,,27,0
56040,note_on,0,0,2,,,,,,,,,,,,,,,0,,,39,0
56040,note_on,113,0,2,,,,,,,,,,,,,,,0,,,51,0
56040,control_change,0,0,2,,,,,,,,,,,,,,,0,64,0,,
56160,end_of_track,0,1,1,,,,,,,,,,,,,,,,,,,
56160,note_on,0,0,2,,,,,,,,,,,,,,,0,,,56,110
56160,note_on,0,0,2,,,,,,,,,,,,,,,0,,,32,90
56160,note_on,120,0,2,,,,,,,,,,,,,,,0,,,44,101
56160,note_on,480,0,1,,,,,,,,,,,,,,,0,,,63,0
56195,control_change,35,0,2,,,,,,,,,,,,,,,0,64,127,,
56280,note_on,0,0,2,,,,,,,,,,,,,,,0,,,44,0
56280,note_on,0,0,2,,,,,,,,,,,,,,,0,,,32,0
56280,note_on,85,0,2,,,,,,,,,,,,,,,0,,,56,0
56301,control_change,21,0,2,,,,,,,,,,,,,,,0,64,0,,
56301,end_of_track,0,1,2,,,,,,,,,,,,,,,,,,,
56302,set_tempo,382,1,0,,,,,,,,,,,,603076,,,,,,,
56303,set_tempo,1,1,0,,,,,,,,,,,,631579,,,,,,,
56400,end_of_track,0,1,0,,,,,,,,,,,,,,,,,,,
56400,set_tempo,97,1,0,,,,,,,,,,,,600000,,,,,,,
