tick,type,time,meta,track,frame_rate,hours,minutes,seconds,frames,sub_frames,numerator,denominator,clocks_per_click,notated_32nd_notes_per_beat,key,tempo,port,program,channel,control,value,note,velocity
0,track_name,0,1,0,,,,,,,,,,,,,,,,,,,
0,program_change,0,0,1,,,,,,,,,,,,,,0,0,,,,
0,control_change,0,0,1,,,,,,,,,,,,,,,0,7,100,,
0,control_change,0,0,1,,,,,,,,,,,,,,,0,10,64,,
0,control_change,0,0,1,,,,,,,,,,,,,,,0,64,0,,
0,control_change,0,0,1,,,,,,,,,,,,,,,0,91,127,,
0,note_on,0,0,1,,,,,,,,,,,,,,,0,,,71,53
0,text,0,1,1,,,,,,,,,,,,,,,,,,,
0,midi_port,0,1,9,,,,,,,,,,,,,0,,,,,,
0,midi_port,0,1,2,,,,,,,,,,,,,0,,,,,,
0,track_name,0,1,2,,,,,,,,,,,,,,,,,,,
0,program_change,0,0,2,,,,,,,,,,,,,,0,0,,,,
0,control_change,0,0,2,,,,,,,,,,,,,,,0,7,100,,
0,control_change,0,0,2,,,,,,,,,,,,,,,0,10,64,,
0,midi_port,0,1,3,,,,,,,,,,,,,0,,,,,,
0,track_name,0,1,1,,,,,,,,,,,,,,,,,,,
0,track_name,0,1,3,,,,,,,,,,,,,,,,,,,
0,midi_port,0,1,4,,,,,,,,,,,,,0,,,,,,
0,track_name,0,1,4,,,,,,,,,,,,,,,,,,,
0,end_of_track,0,1,4,,,,,,,,,,,,,,,,,,,
0,midi_port,0,1,5,,,,,,,,,,,,,0,,,,,,
0,track_name,0,1,5,,,,,,,,,,,,,,,,,,,
0,end_of_track,0,1,5,,,,,,,,,,,,,,,,,,,
0,midi_port,0,1,6,,,,,,,,,,,,,0,,,,,,
0,track_name,0,1,6,,,,,,,,,,,,,,,,,,,
0,end_of_track,0,1,6,,,,,,,,,,,,,,,,,,,
0,midi_port,0,1,7,,,,,,,,,,,,,0,,,,,,
0,track_name,0,1,7,,,,,,,,,,,,,,,,,,,
0,end_of_track,0,1,7,,,,,,,,,,,,,,,,,,,
0,midi_port,0,1,8,,,,,,,,,,,,,0,,,,,,
0,end_of_track,0,1,8,,,,,,,,,,,,,,,,,,,
0,end_of_track,0,1,3,,,,,,,,,,,,,,,,,,,
0,midi_port,0,1,1,,,,,,,,,,,,,0,,,,,,
0,end_of_track,0,1,9,,,,,,,,,,,,,,,,,,,
0,key_signature,0,1,0,,,,,,,,,,,D,,,,,,,,
0,text,0,1,0,,,,,,,,,,,,,,,,,,,
0,text,0,1,0,,,,,,,,,,,,,,,,,,,
0,smpte_offset,0,1,0,25,32,0,3,0,0,,,,,,,,,,,,,
0,time_signature,0,1,0,,,,,,,3,8,12,8,,,,,,,,,
0,text,0,1,0,,,,,,,,,,,,,,,,,,,
0,set_tempo,0,1,0,,,,,,,,,,,,574163,,,,,,,
0,text,0,1,0,,,,,,,,,,,,,,,,,,,
0,copyright,0,1,0,,,,,,,,,,,,,,,,,,,
0,text,0,1,0,,,,,,,,,,,,,,,,,,,
0,text,0,1,0,,,,,,,,,,,,,,,,,,,
120,note_on,120,0,1,,,,,,,,,,,,,,,0,,,71,0
120,note_on,0,0,1,,,,,,,,,,,,,,,0,,,69,47
240,set_tempo,240,1,0,,,,,,,,,,,,563380,,,,,,,
240,note_on,0,0,2,,,,,,,,,,,,,,,0,,,55,44
240,control_change,240,0,2,,,,,,,,,,,,,,,0,64,127,,
240,note_on,120,0,1,,,,,,,,,,,,,,,0,,,69,0
240,note_on,0,0,1,,,,,,,,,,,,,,,0,,,61,35
300,set_tempo,60,1,0,,,,,,,,,,,,560748,,,,,,,
360,set_tempo,60,1,0,,,,,,,,,,,,558140,,,,,,,
360,note_on,120,0,1,,,,,,,,,,,,,,,0,,,61,0
360,note_on,0,0,1,,,,,,,,,,,,,,,0,,,71,61
360,note_on,120,0,2,,,,,,,,,,,,,,,0,,,55,0
360,note_on,0,0,2,,,,,,,,,,,,,,,0,,,45,39
420,set_tempo,60,1,0,,,,,,,,,,,,555556,,,,,,,
480,note_on,120,0,2,,,,,,,,,,,,,,,0,,,45,0
480,set_tempo,60,1,0,,,,,,,,,,,,552995,,,,,,,
480,note_on,120,0,1,,,,,,,,,,,,,,,0,,,76,54
480,note_on,0,0,2,,,,,,,,,,,,,,,0,,,55,36
540,set_tempo,60,1,0,,,,,,,,,,,,550459,,,,,,,
600,set_tempo,60,1,0,,,,,,,,,,,,547945,,,,,,,
600,note_on,0,0,2,,,,,,,,,,,,,,,0,,,64,35
600,note_on,120,0,2,,,,,,,,,,,,,,,0,,,55,0
600,note_on,120,0,1,,,,,,,,,,,,,,,0,,,76,0
600,note_on,0,0,1,,,,,,,,,,,,,,,0,,,71,0
600,note_on,0,0,1,,,,,,,,,,,,,,,0,,,69,47
660,set_tempo,60,1,0,,,,,,,,,,,,545455,,,,,,,
700,set_tempo,40,1,0,,,,,,,,,,,,542986,,,,,,,
720,control_change,0,0,2,,,,,,,,,,,,,,,0,64,0,,
720,note_on,0,0,2,,,,,,,,,,,,,,,0,,,55,49
720,note_on,120,0,2,,,,,,,,,,,,,,,0,,,64,0
720,note_on,0,0,1,,,,,,,,,,,,,,,0,,,61,51
720,set_tempo,20,1,0,,,,,,,,,,,,526316,,,,,,,
720,note_on,120,0,1,,,,,,,,,,,,,,,0,,,69,0
754,control_change,34,0,2,,,,,,,,,,,,,,,0,64,127,,
800,set_tempo,80,1,0,,,,,,,,,,,,524017,,,,,,,
840,note_on,120,0,1,,,,,,,,,,,,,,,0,,,61,0
840,note_on,0,0,1,,,,,,,,,,,,,,,0,,,70,70
840,note_on,86,0,2,,,,,,,,,,,,,,,0,,,55,0
840,note_on,0,0,2,,,,,,,,,,,,,,,0,,,45,42
860,set_tempo,60,1,0,,,,,,,,,,,,521739,,,,,,,
920,set_tempo,60,1,0,,,,,,,,,,,,519481,,,,,,,
960,note_on,120,0,1,,,,,,,,,,,,,,,0,,,76,56
960,note_on,120,0,2,,,,,,,,,,,,,,,0,,,45,0
960,note_on,0,0,2,,,,,,,,,,,,,,,0,,,55,46
1000,set_tempo,80,1,0,,,,,,,,,,,,517241,,,,,,,
1060,set_tempo,60,1,0,,,,,,,,,,,,515021,,,,,,,
1080,note_on,120,0,2,,,,,,,,,,,,,,,0,,,55,0
1080,note_on,0,0,1,,,,,,,,,,,,,,,0,,,69,53
1080,note_on,0,0,2,,,,,,,,,,,,,,,0,,,64,43
1080,note_on,120,0,1,,,,,,,,,,,,,,,0,,,76,0
1080,note_on,0,0,1,,,,,,,,,,,,,,,0,,,70,0
1120,set_tempo,60,1,0,,,,,,,,,,,,512821,,,,,,,
1140,note_on,60,0,2,,,,,,,,,,,,,,,0,,,64,0
1140,note_on,60,0,1,,,,,,,,,,,,,,,0,,,69,0
1180,set_tempo,60,1,0,,,,,,,,,,,,510638,,,,,,,
1194,control_change,54,0,2,,,,,,,,,,,,,,,0,64,0,,
1200,note_on,6,0,2,,,,,,,,,,,,,,,0,,,55,52
1200,note_on,60,0,1,,,,,,,,,,,,,,,0,,,61,61
1229,control_change,29,0,2,,,,,,,,,,,,,,,0,64,127,,
1260,set_tempo,80,1,0,,,,,,,,,,,,508475,,,,,,,
1320,note_on,0,0,2,,,,,,,,,,,,,,,0,,,45,40
1320,note_on,91,0,2,,,,,,,,,,,,,,,0,,,55,0
1320,set_tempo,60,1,0,,,,,,,,,,,,506329,,,,,,,
1320,note_on,120,0,1,,,,,,,,,,,,,,,0,,,61,0
1320,note_on,0,0,1,,,,,,,,,,,,,,,0,,,71,69
1380,set_tempo,60,1,0,,,,,,,,,,,,504202,,,,,,,
1440,note_on,120,0,2,,,,,,,,,,,,,,,0,,,45,0
1440,note_on,0,0,2,,,,,,,,,,,,,,,0,,,55,49
1440,note_on,120,0,1,,,,,,,,,,,,,,,0,,,76,65
1440,set_tempo,60,1,0,,,,,,,,,,,,502092,,,,,,,
1500,set_tempo,60,1,0,,,,,,,,,,,,500000,,,,,,,
1560,note_on,120,0,2,,,,,,,,,,,,,,,0,,,55,0
1560,note_on,0,0,2,,,,,,,,,,,,,,,0,,,64,43
1560,set_tempo,60,1,0,,,,,,,,,,,,497925,,,,,,,
1560,note_on,120,0,1,,,,,,,,,,,,,,,0,,,76,0
1560,note_on,0,0,1,,,,,,,,,,,,,,,0,,,71,0
1560,note_on,0,0,1,,,,,,,,,,,,,,,0,,,69,61
1620,note_on,60,0,1,,,,,,,,,,,,,,,0,,,69,0
1620,note_on,60,0,2,,,,,,,,,,,,,,,0,,,64,0
1620,set_tempo,60,1,0,,,,,,,,,,,,495868,,,,,,,
1680,note_on,60,0,2,,,,,,,,,,,,,,,0,,,55,52
1680,set_tempo,60,1,0,,,,,,,,,,,,493827,,,,,,,
1680,note_on,60,0,1,,,,,,,,,,,,,,,0,,,61,65
1691,control_change,11,0,2,,,,,,,,,,,,,,,0,64,0,,
1731,control_change,40,0,2,,,,,,,,,,,,,,,0,64,127,,
1800,note_on,0,0,2,,,,,,,,,,,,,,,0,,,45,46
1800,note_on,0,0,1,,,,,,,,,,,,,,,0,,,70,75
1800,note_on,120,0,1,,,,,,,,,,,,,,,0,,,61,0
1800,note_on,69,0,2,,,,,,,,,,,,,,,0,,,55,0
1920,note_on,120,0,1,,,,,,,,,,,,,,,0,,,76,66
1920,note_on,0,0,2,,,,,,,,,,,,,,,0,,,55,52
1920,note_on,120,0,2,,,,,,,,,,,,,,,0,,,45,0
2040,note_on,120,0,2,,,,,,,,,,,,,,,0,,,55,0
2040,note_on,0,0,2,,,,,,,,,,,,,,,0,,,64,47
2040,note_on,0,0,1,,,,,,,,,,,,,,,0,,,69,62
2040,note_on,0,0,1,,,,,,,,,,,,,,,0,,,70,0
2040,note_on,120,0,1,,,,,,,,,,,,,,,0,,,76,0
2100,note_on,60,0,2,,,,,,,,,,,,,,,0,,,64,0
2100,set_tempo,420,1,0,,,,,,,,,,,,499542,,,,,,,
2100,note_on,60,0,1,,,,,,,,,,,,,,,0,,,69,0
2140,set_tempo,40,1,0,,,,,,,,,,,,501798,,,,,,,
2160,note_on,60,0,2,,,,,,,,,,,,,,,0,,,57,54
2160,control_change,0,0,2,,,,,,,,,,,,,,,0,64,0,,
2160,set_tempo,20,1,0,,,,,,,,,,,,493016,,,,,,,
2160,note_on,60,0,1,,,,,,,,,,,,,,,0,,,61,68
2192,control_change,32,0,2,,,,,,,,,,,,,,,0,64,127,,
2200,set_tempo,40,1,0,,,,,,,,,,,,495172,,,,,,,
2240,set_tempo,40,1,0,,,,,,,,,,,,497347,,,,,,,
2280,note_on,0,0,1,,,,,,,,,,,,,,,0,,,71,73
2280,set_tempo,40,1,0,,,,,,,,,,,,499542,,,,,,,
2280,note_on,120,0,1,,,,,,,,,,,,,,,0,,,61,0
2280,note_on,88,0,2,,,,,,,,,,,,,,,0,,,57,0
2280,note_on,0,0,2,,,,,,,,,,,,,,,0,,,45,45
2300,set_tempo,20,1,0,,,,,,,,,,,,501798,,,,,,,
2340,set_tempo,40,1,0,,,,,,,,,,,,504032,,,,,,,
2380,set_tempo,40,1,0,,,,,,,,,,,,506286,,,,,,,
2400,note_on,120,0,1,,,,,,,,,,,,,,,0,,,76,66
2400,note_on,0,0,2,,,,,,,,,,,,,,,0,,,55,49
2400,note_on,120,0,2,,,,,,,,,,,,,,,0,,,45,0
2420,set_tempo,40,1,0,,,,,,,,,,,,508561,,,,,,,
2440,set_tempo,20,1,0,,,,,,,,,,,,510856,,,,,,,
2480,set_tempo,40,1,0,,,,,,,,,,,,513171,,,,,,,
2520,note_on,0,0,2,,,,,,,,,,,,,,,0,,,64,40
2520,note_on,0,0,1,,,,,,,,,,,,,,,0,,,69,57
2520,set_tempo,40,1,0,,,,,,,,,,,,515553,,,,,,,
2520,note_on,0,0,1,,,,,,,,,,,,,,,0,,,71,0
2520,note_on,120,0,1,,,,,,,,,,,,,,,0,,,76,0
2520,note_on,120,0,2,,,,,,,,,,,,,,,0,,,55,0
2540,set_tempo,20,1,0,,,,,,,,,,,,517911,,,,,,,
2580,note_on,60,0,1,,,,,,,,,,,,,,,0,,,69,0
2580,note_on,60,0,2,,,,,,,,,,,,,,,0,,,64,0
2580,set_tempo,40,1,0,,,,,,,,,,,,520291,,,,,,,
2612,control_change,32,0,2,,,,,,,,,,,,,,,0,64,0,,
2620,set_tempo,40,1,0,,,,,,,,,,,,522694,,,,,,,
2633,control_change,21,0,2,,,,,,,,,,,,,,,0,64,127,,
2640,note_on,7,0,2,,,,,,,,,,,,,,,0,,,55,40
2640,note_on,60,0,1,,,,,,,,,,,,,,,0,,,61,55
2660,set_tempo,40,1,0,,,,,,,,,,,,525118,,,,,,,
2680,set_tempo,20,1,0,,,,,,,,,,,,527565,,,,,,,
2720,set_tempo,40,1,0,,,,,,,,,,,,530035,,,,,,,
2760,note_on,0,0,2,,,,,,,,,,,,,,,0,,,57,35
2760,note_on,120,0,2,,,,,,,,,,,,,,,0,,,55,0
2760,note_on,120,0,1,,,,,,,,,,,,,,,0,,,61,0
2760,note_on,0,0,1,,,,,,,,,,,,,,,0,,,66,54
2760,set_tempo,40,1,0,,,,,,,,,,,,532576,,,,,,,
2780,set_tempo,20,1,0,,,,,,,,,,,,535093,,,,,,,
2840,set_tempo,60,1,0,,,,,,,,,,,,540200,,,,,,,
2860,set_tempo,20,1,0,,,,,,,,,,,,535714,,,,,,,
2880,note_on,0,0,1,,,,,,,,,,,,,,,0,,,62,58
2880,set_tempo,20,1,0,,,,,,,,,,,,542986,,,,,,,
2880,note_on,120,0,2,,,,,,,,,,,,,,,0,,,57,0
2880,note_on,0,0,2,,,,,,,,,,,,,,,0,,,38,45
2880,note_on,120,0,1,,,,,,,,,,,,,,,0,,,66,0
2897,control_change,17,0,2,,,,,,,,,,,,,,,0,64,0,,
2914,control_change,17,0,2,,,,,,,,,,,,,,,0,64,127,,
2940,set_tempo,60,1,0,,,,,,,,,,,,540541,,,,,,,
3000,note_on,0,0,2,,,,,,,,,,,,,,,0,,,54,41
3000,note_on,120,0,1,,,,,,,,,,,,,,,0,,,62,0
3000,note_on,86,0,2,,,,,,,,,,,,,,,0,,,38,0
3000,note_on,0,0,1,,,,,,,,,,,,,,,0,,,57,53
3000,set_tempo,60,1,0,,,,,,,,,,,,538117,,,,,,,
3040,set_tempo,40,1,0,,,,,,,,,,,,535714,,,,,,,
3100,set_tempo,60,1,0,,,,,,,,,,,,533333,,,,,,,
3120,note_on,0,0,1,,,,,,,,,,,,,,,0,,,58,53
3120,note_on,0,0,2,,,,,,,,,,,,,,,0,,,55,42
3120,note_on,120,0,2,,,,,,,,,,,,,,,0,,,54,0
3120,note_on,120,0,1,,,,,,,,,,,,,,,0,,,57,0
3140,set_tempo,40,1,0,,,,,,,,,,,,530973,,,,,,,
3141,control_change,21,0,2,,,,,,,,,,,,,,,0,64,0,,
3152,control_change,11,0,2,,,,,,,,,,,,,,,0,64,127,,
3240,note_on,0,0,1,,,,,,,,,,,,,,,0,,,59,52
3240,note_on,120,0,1,,,,,,,,,,,,,,,0,,,58,0
3240,note_on,0,0,2,,,,,,,,,,,,,,,0,,,43,38
3240,note_on,88,0,2,,,,,,,,,,,,,,,0,,,55,0
3360,set_tempo,220,1,0,,,,,,,,,,,,506329,,,,,,,
3360,note_on,120,0,1,,,,,,,,,,,,,,,0,,,59,0
3360,note_on,0,0,1,,,,,,,,,,,,,,,0,,,61,47
3360,note_on,120,0,2,,,,,,,,,,,,,,,0,,,43,0
3360,note_on,0,0,2,,,,,,,,,,,,,,,0,,,45,44
3360,note_on,0,0,1,,,,,,,,,,,,,,,0,,,66,56
3371,control_change,11,0,2,,,,,,,,,,,,,,,0,64,0,,
3480,note_on,109,0,2,,,,,,,,,,,,,,,0,,,45,0
3480,note_on,0,0,2,,,,,,,,,,,,,,,0,,,55,44
3480,note_on,0,0,1,,,,,,,,,,,,,,,0,,,64,58
3480,note_on,0,0,1,,,,,,,,,,,,,,,0,,,61,0
3480,note_on,120,0,1,,,,,,,,,,,,,,,0,,,66,0
3480,set_tempo,120,1,0,,,,,,,,,,,,535714,,,,,,,
3570,note_on,90,0,2,,,,,,,,,,,,,,,0,,,55,0
3570,note_on,90,0,1,,,,,,,,,,,,,,,0,,,64,0
3580,set_tempo,100,1,0,,,,,,,,,,,,524017,,,,,,,
3600,set_tempo,20,1,0,,,,,,,,,,,,530973,,,,,,,
3600,note_on,30,0,1,,,,,,,,,,,,,,,0,,,62,66
3600,note_on,30,0,2,,,,,,,,,,,,,,,0,,,54,48
3646,control_change,46,0,2,,,,,,,,,,,,,,,0,64,127,,
3680,set_tempo,80,1,0,,,,,,,,,,,,528634,,,,,,,
3720,note_on,0,0,1,,,,,,,,,,,,,,,0,,,74,59
3720,note_on,74,0,2,,,,,,,,,,,,,,,0,,,54,0
3720,note_on,0,0,2,,,,,,,,,,,,,,,0,,,47,42
3720,note_on,120,0,1,,,,,,,,,,,,,,,0,,,62,0
3760,set_tempo,80,1,0,,,,,,,,,,,,526316,,,,,,,
3820,set_tempo,60,1,0,,,,,,,,,,,,524017,,,,,,,
3840,note_on,120,0,1,,,,,,,,,,,,,,,0,,,74,0
3840,note_on,0,0,1,,,,,,,,,,,,,,,0,,,66,59
3840,note_on,120,0,2,,,,,,,,,,,,,,,0,,,47,0
3840,note_on,0,0,2,,,,,,,,,,,,,,,0,,,62,42
3840,set_tempo,20,1,0,,,,,,,,,,,,519481,,,,,,,
3960,note_on,120,0,1,,,,,,,,,,,,,,,0,,,66,0
3960,note_on,0,0,1,,,,,,,,,,,,,,,0,,,69,59
3960,note_on,0,0,2,,,,,,,,,,,,,,,0,,,54,42
3960,note_on,120,0,2,,,,,,,,,,,,,,,0,,,62,0
4069,control_change,109,0,2,,,,,,,,,,,,,,,0,64,0,,
4080,note_on,11,0,2,,,,,,,,,,,,,,,0,,,54,0
4080,note_on,0,0,1,,,,,,,,,,,,,,,0,,,73,65
4080,note_on,0,0,1,,,,,,,,,,,,,,,0,,,68,55
4080,set_tempo,240,1,0,,,,,,,,,,,,500000,,,,,,,
4080,note_on,120,0,1,,,,,,,,,,,,,,,0,,,69,0
4080,note_on,0,0,2,,,,,,,,,,,,,,,0,,,52,48
4200,note_on,0,0,1,,,,,,,,,,,,,,,0,,,71,63
4200,note_on,0,0,1,,,,,,,,,,,,,,,0,,,68,0
4200,note_on,120,0,2,,,,,,,,,,,,,,,0,,,52,0
4200,note_on,0,0,2,,,,,,,,,,,,,,,0,,,62,42
4200,note_on,120,0,1,,,,,,,,,,,,,,,0,,,73,0
4200,set_tempo,120,1,0,,,,,,,,,,,,528634,,,,,,,
4290,note_on,90,0,1,,,,,,,,,,,,,,,0,,,71,0
4290,note_on,90,0,2,,,,,,,,,,,,,,,0,,,62,0
4320,note_on,30,0,1,,,,,,,,,,,,,,,0,,,64,67
4320,note_on,30,0,2,,,,,,,,,,,,,,,0,,,61,55
4360,set_tempo,160,1,0,,,,,,,,,,,,521739,,,,,,,
4366,control_change,46,0,2,,,,,,,,,,,,,,,0,64,127,,
4420,set_tempo,60,1,0,,,,,,,,,,,,519481,,,,,,,
4440,note_on,120,0,1,,,,,,,,,,,,,,,0,,,64,0
4440,note_on,0,0,1,,,,,,,,,,,,,,,0,,,69,61
4440,note_on,74,0,2,,,,,,,,,,,,,,,0,,,61,0
4440,note_on,0,0,2,,,,,,,,,,,,,,,0,,,57,47
4480,set_tempo,60,1,0,,,,,,,,,,,,517241,,,,,,,
4540,set_tempo,60,1,0,,,,,,,,,,,,515021,,,,,,,
4560,note_on,120,0,1,,,,,,,,,,,,,,,0,,,69,0
4560,note_on,120,0,2,,,,,,,,,,,,,,,0,,,57,0
4560,note_on,0,0,2,,,,,,,,,,,,,,,0,,,62,44
4560,note_on,0,0,1,,,,,,,,,,,,,,,0,,,65,61
4571,control_change,11,0,2,,,,,,,,,,,,,,,0,64,0,,
4580,set_tempo,40,1,0,,,,,,,,,,,,512821,,,,,,,
4591,control_change,20,0,2,,,,,,,,,,,,,,,0,64,127,,
4680,note_on,0,0,1,,,,,,,,,,,,,,,0,,,66,61
4680,note_on,120,0,1,,,,,,,,,,,,,,,0,,,65,0
4680,note_on,89,0,2,,,,,,,,,,,,,,,0,,,62,0
4680,note_on,0,0,2,,,,,,,,,,,,,,,0,,,50,44
4800,note_on,0,0,1,,,,,,,,,,,,,,,0,,,68,56
4800,set_tempo,220,1,0,,,,,,,,,,,,495868,,,,,,,
4800,note_on,0,0,1,,,,,,,,,,,,,,,0,,,73,66
4800,note_on,120,0,2,,,,,,,,,,,,,,,0,,,50,0
4800,note_on,120,0,1,,,,,,,,,,,,,,,0,,,66,0
4800,note_on,0,0,2,,,,,,,,,,,,,,,0,,,52,47
4817,control_change,17,0,2,,,,,,,,,,,,,,,0,64,0,,
4920,note_on,0,0,1,,,,,,,,,,,,,,,0,,,73,0
4920,note_on,120,0,1,,,,,,,,,,,,,,,0,,,68,0
4920,note_on,0,0,1,,,,,,,,,,,,,,,0,,,71,63
4920,set_tempo,120,1,0,,,,,,,,,,,,524017,,,,,,,
4920,note_on,0,0,2,,,,,,,,,,,,,,,0,,,62,42
4920,note_on,103,0,2,,,,,,,,,,,,,,,0,,,52,0
5010,note_on,90,0,1,,,,,,,,,,,,,,,0,,,71,0
5010,note_on,90,0,2,,,,,,,,,,,,,,,0,,,62,0
5020,set_tempo,100,1,0,,,,,,,,,,,,518403,,,,,,,
5040,set_tempo,20,1,0,,,,,,,,,,,,517241,,,,,,,
5040,note_on,30,0,1,,,,,,,,,,,,,,,0,,,69,69
5040,note_on,30,0,2,,,,,,,,,,,,,,,0,,,61,55
5086,control_change,46,0,2,,,,,,,,,,,,,,,0,64,127,,
5100,set_tempo,60,1,0,,,,,,,,,,,,515021,,,,,,,
5160,set_tempo,60,1,0,,,,,,,,,,,,512821,,,,,,,
5160,note_on,74,0,2,,,,,,,,,,,,,,,0,,,61,0
5160,note_on,0,0,2,,,,,,,,,,,,,,,0,,,60,44
5160,note_on,120,0,1,,,,,,,,,,,,,,,0,,,69,0
5160,note_on,0,0,1,,,,,,,,,,,,,,,0,,,76,58
5220,set_tempo,60,1,0,,,,,,,,,,,,510638,,,,,,,
5280,note_on,120,0,1,,,,,,,,,,,,,,,0,,,76,0
5280,note_on,0,0,1,,,,,,,,,,,,,,,0,,,64,67
5280,set_tempo,60,1,0,,,,,,,,,,,,508475,,,,,,,
5280,note_on,120,0,2,,,,,,,,,,,,,,,0,,,60,0
5280,note_on,0,0,2,,,,,,,,,,,,,,,0,,,54,46
5400,note_on,120,0,2,,,,,,,,,,,,,,,0,,,54,0
5400,note_on,0,0,2,,,,,,,,,,,,,,,0,,,45,46
5400,note_on,120,0,1,,,,,,,,,,,,,,,0,,,64,0
5400,note_on,0,0,1,,,,,,,,,,,,,,,0,,,69,63
5520,set_tempo,240,1,0,,,,,,,,,,,,491803,,,,,,,
5520,note_on,0,0,1,,,,,,,,,,,,,,,0,,,63,55
5520,note_on,0,0,1,,,,,,,,,,,,,,,0,,,72,65
5520,note_on,120,0,1,,,,,,,,,,,,,,,0,,,69,0
5520,note_on,0,0,2,,,,,,,,,,,,,,,0,,,47,51
5520,note_on,120,0,2,,,,,,,,,,,,,,,0,,,45,0
5520,control_change,0,0,2,,,,,,,,,,,,,,,0,64,0,,
5640,note_on,0,0,1,,,,,,,,,,,,,,,0,,,63,0
5640,note_on,0,0,2,,,,,,,,,,,,,,,0,,,57,44
5640,note_on,120,0,1,,,,,,,,,,,,,,,0,,,72,0
5640,note_on,0,0,1,,,,,,,,,,,,,,,0,,,71,66
5640,note_on,120,0,2,,,,,,,,,,,,,,,0,,,47,0
5640,set_tempo,120,1,0,,,,,,,,,,,,538117,,,,,,,
5730,note_on,90,0,1,,,,,,,,,,,,,,,0,,,71,0
5730,note_on,90,0,2,,,,,,,,,,,,,,,0,,,57,0
5760,note_on,30,0,1,,,,,,,,,,,,,,,0,,,59,72
5760,set_tempo,120,1,0,,,,,,,,,,,,530973,,,,,,,
5760,note_on,30,0,2,,,,,,,,,,,,,,,0,,,55,54
5806,control_change,46,0,2,,,,,,,,,,,,,,,0,64,127,,
5820,set_tempo,60,1,0,,,,,,,,,,,,528634,,,,,,,
5860,set_tempo,40,1,0,,,,,,,,,,,,526316,,,,,,,
5880,note_on,74,0,2,,,,,,,,,,,,,,,0,,,55,0
5880,note_on,0,0,2,,,,,,,,,,,,,,,0,,,40,49
5880,note_on,120,0,1,,,,,,,,,,,,,,,0,,,59,0
5880,note_on,0,0,1,,,,,,,,,,,,,,,0,,,64,63
5920,set_tempo,60,1,0,,,,,,,,,,,,524017,,,,,,,
5960,set_tempo,40,1,0,,,,,,,,,,,,521739,,,,,,,
6000,note_on,120,0,2,,,,,,,,,,,,,,,0,,,40,0
6000,set_tempo,40,1,0,,,,,,,,,,,,519481,,,,,,,
6000,note_on,0,0,2,,,,,,,,,,,,,,,0,,,45,52
6000,note_on,0,0,1,,,,,,,,,,,,,,,0,,,60,63
6000,note_on,120,0,1,,,,,,,,,,,,,,,0,,,64,0
6006,control_change,6,0,2,,,,,,,,,,,,,,,0,64,0,,
6023,control_change,17,0,2,,,,,,,,,,,,,,,0,64,127,,
6120,note_on,97,0,2,,,,,,,,,,,,,,,0,,,45,0
6120,note_on,0,0,2,,,,,,,,,,,,,,,0,,,57,48
6120,note_on,120,0,1,,,,,,,,,,,,,,,0,,,60,0
6120,note_on,0,0,1,,,,,,,,,,,,,,,0,,,64,62
6220,set_tempo,220,1,0,,,,,,,,,,,,504202,,,,,,,
6240,note_on,0,0,1,,,,,,,,,,,,,,,0,,,67,69
6240,note_on,120,0,1,,,,,,,,,,,,,,,0,,,64,0
6240,set_tempo,20,1,0,,,,,,,,,,,,504202,,,,,,,
6240,note_on,0,0,2,,,,,,,,,,,,,,,0,,,47,53
6240,note_on,120,0,2,,,,,,,,,,,,,,,0,,,57,0
6240,note_on,0,0,1,,,,,,,,,,,,,,,0,,,63,59
6257,control_change,17,0,2,,,,,,,,,,,,,,,0,64,0,,
6360,set_tempo,120,1,0,,,,,,,,,,,,521739,,,,,,,
6360,note_on,103,0,2,,,,,,,,,,,,,,,0,,,47,0
6360,note_on,0,0,1,,,,,,,,,,,,,,,0,,,66,68
6360,note_on,120,0,1,,,,,,,,,,,,,,,0,,,63,0
6360,note_on,0,0,2,,,,,,,,,,,,,,,0,,,57,50
6360,note_on,0,0,1,,,,,,,,,,,,,,,0,,,67,0
6450,note_on,90,0,1,,,,,,,,,,,,,,,0,,,66,0
6450,note_on,90,0,2,,,,,,,,,,,,,,,0,,,57,0
6480,set_tempo,120,1,0,,,,,,,,,,,,523332,,,,,,,
6480,note_on,30,0,1,,,,,,,,,,,,,,,0,,,64,74
6480,note_on,30,0,2,,,,,,,,,,,,,,,0,,,55,55
6531,control_change,51,0,2,,,,,,,,,,,,,,,0,64,127,,
6540,set_tempo,60,1,0,,,,,,,,,,,,515996,,,,,,,
6600,note_on,0,0,2,,,,,,,,,,,,,,,0,,,52,49
6600,note_on,0,0,1,,,,,,,,,,,,,,,0,,,76,65
6600,note_on,69,0,2,,,,,,,,,,,,,,,0,,,55,0
6600,note_on,120,0,1,,,,,,,,,,,,,,,0,,,64,0
6600,set_tempo,60,1,0,,,,,,,,,,,,513611,,,,,,,
6660,set_tempo,60,1,0,,,,,,,,,,,,511247,,,,,,,
6720,set_tempo,60,1,0,,,,,,,,,,,,508906,,,,,,,
6720,note_on,0,0,2,,,,,,,,,,,,,,,0,,,64,49
6720,note_on,120,0,2,,,,,,,,,,,,,,,0,,,52,0
6720,note_on,0,0,1,,,,,,,,,,,,,,,0,,,67,68
6720,note_on,120,0,1,,,,,,,,,,,,,,,0,,,76,0
6840,note_on,120,0,2,,,,,,,,,,,,,,,0,,,64,0
6840,note_on,0,0,2,,,,,,,,,,,,,,,0,,,55,49
6840,note_on,120,0,1,,,,,,,,,,,,,,,0,,,67,0
6840,set_tempo,120,1,0,,,,,,,,,,,,518403,,,,,,,
6840,note_on,0,0,1,,,,,,,,,,,,,,,0,,,71,68
6920,set_tempo,80,1,0,,,,,,,,,,,,506500,,,,,,,
6937,control_change,97,0,2,,,,,,,,,,,,,,,0,64,0,,
6960,note_on,120,0,1,,,,,,,,,,,,,,,0,,,71,0
6960,note_on,0,0,1,,,,,,,,,,,,,,,0,,,70,62
6960,note_on,0,0,1,,,,,,,,,,,,,,,0,,,74,74
6960,note_on,0,0,2,,,,,,,,,,,,,,,0,,,54,54
6960,set_tempo,40,1,0,,,,,,,,,,,,495868,,,,,,,
6960,note_on,23,0,2,,,,,,,,,,,,,,,0,,,55,0
7080,note_on,120,0,2,,,,,,,,,,,,,,,0,,,54,0
7080,note_on,0,0,2,,,,,,,,,,,,,,,0,,,64,49
7080,set_tempo,120,1,0,,,,,,,,,,,,510638,,,,,,,
7080,note_on,0,0,1,,,,,,,,,,,,,,,0,,,73,68
7080,note_on,0,0,1,,,,,,,,,,,,,,,0,,,70,0
7080,note_on,120,0,1,,,,,,,,,,,,,,,0,,,74,0
7170,note_on,90,0,2,,,,,,,,,,,,,,,0,,,64,0
7170,note_on,90,0,1,,,,,,,,,,,,,,,0,,,73,0
7200,note_on,30,0,1,,,,,,,,,,,,,,,0,,,71,77
7200,set_tempo,120,1,0,,,,,,,,,,,,520879,,,,,,,
7200,note_on,30,0,2,,,,,,,,,,,,,,,0,,,62,57
7240,set_tempo,40,1,0,,,,,,,,,,,,518403,,,,,,,
7257,control_change,57,0,2,,,,,,,,,,,,,,,0,64,127,,
7280,set_tempo,40,1,0,,,,,,,,,,,,515996,,,,,,,
7320,note_on,63,0,2,,,,,,,,,,,,,,,0,,,62,0
7320,set_tempo,40,1,0,,,,,,,,,,,,513611,,,,,,,
7320,note_on,0,0,2,,,,,,,,,,,,,,,0,,,47,59
7320,note_on,120,0,1,,,,,,,,,,,,,,,0,,,71,0
7320,note_on,0,0,1,,,,,,,,,,,,,,,0,,,66,66
7340,set_tempo,20,1,0,,,,,,,,,,,,511247,,,,,,,
7380,set_tempo,40,1,0,,,,,,,,,,,,508906,,,,,,,
7420,set_tempo,40,1,0,,,,,,,,,,,,506500,,,,,,,
7440,note_on,120,0,1,,,,,,,,,,,,,,,0,,,66,0
7440,note_on,0,0,2,,,,,,,,,,,,,,,0,,,52,52
7440,note_on,120,0,2,,,,,,,,,,,,,,,0,,,47,0
7440,set_tempo,20,1,0,,,,,,,,,,,,504202,,,,,,,
7440,note_on,0,0,1,,,,,,,,,,,,,,,0,,,67,73
7560,note_on,120,0,2,,,,,,,,,,,,,,,0,,,52,0
7560,note_on,0,0,2,,,,,,,,,,,,,,,0,,,64,54
7560,set_tempo,120,1,0,,,,,,,,,,,,513611,,,,,,,
7560,note_on,0,0,1,,,,,,,,,,,,,,,0,,,71,75
7560,note_on,120,0,1,,,,,,,,,,,,,,,0,,,67,0
7680,set_tempo,120,1,0,,,,,,,,,,,,495868,,,,,,,
7680,note_on,0,0,2,,,,,,,,,,,,,,,0,,,54,57
7680,note_on,120,0,1,,,,,,,,,,,,,,,0,,,71,0
7680,note_on,0,0,1,,,,,,,,,,,,,,,0,,,70,67
7680,note_on,0,0,1,,,,,,,,,,,,,,,0,,,74,79
7680,note_on,120,0,2,,,,,,,,,,,,,,,0,,,64,0
7686,control_change,6,0,2,,,,,,,,,,,,,,,0,64,0,,
7800,note_on,0,0,1,,,,,,,,,,,,,,,0,,,70,0
7800,note_on,0,0,1,,,,,,,,,,,,,,,0,,,73,80
7800,note_on,0,0,2,,,,,,,,,,,,,,,0,,,64,54
7800,note_on,114,0,2,,,,,,,,,,,,,,,0,,,54,0
7800,note_on,120,0,1,,,,,,,,,,,,,,,0,,,74,0
7800,set_tempo,120,1,0,,,,,,,,,,,,508475,,,,,,,
7890,note_on,90,0,1,,,,,,,,,,,,,,,0,,,73,0
7890,note_on,90,0,2,,,,,,,,,,,,,,,0,,,64,0
7900,set_tempo,100,1,0,,,,,,,,,,,,520879,,,,,,,
7920,note_on,30,0,1,,,,,,,,,,,,,,,0,,,71,88
7920,note_on,30,0,2,,,,,,,,,,,,,,,0,,,62,61
7940,set_tempo,40,1,0,,,,,,,,,,,,518403,,,,,,,
7971,control_change,51,0,2,,,,,,,,,,,,,,,0,64,127,,
7980,set_tempo,40,1,0,,,,,,,,,,,,515996,,,,,,,
8020,set_tempo,40,1,0,,,,,,,,,,,,513611,,,,,,,
8040,note_on,0,0,1,,,,,,,,,,,,,,,0,,,83,82
8040,note_on,120,0,1,,,,,,,,,,,,,,,0,,,71,0
8040,note_on,0,0,2,,,,,,,,,,,,,,,0,,,53,54
8040,note_on,69,0,2,,,,,,,,,,,,,,,0,,,62,0
8060,set_tempo,40,1,0,,,,,,,,,,,,511247,,,,,,,
8100,set_tempo,40,1,0,,,,,,,,,,,,508906,,,,,,,
8140,set_tempo,40,1,0,,,,,,,,,,,,506500,,,,,,,
8160,note_on,0,0,2,,,,,,,,,,,,,,,0,,,59,56
8160,note_on,0,0,1,,,,,,,,,,,,,,,0,,,80,84
8160,note_on,120,0,1,,,,,,,,,,,,,,,0,,,83,0
8160,note_on,120,0,2,,,,,,,,,,,,,,,0,,,53,0
8180,set_tempo,40,1,0,,,,,,,,,,,,504202,,,,,,,
8280,note_on,120,0,2,,,,,,,,,,,,,,,0,,,59,0
8280,note_on,0,0,2,,,,,,,,,,,,,,,0,,,68,56
8280,note_on,0,0,1,,,,,,,,,,,,,,,0,,,74,84
8280,note_on,120,0,1,,,,,,,,,,,,,,,0,,,80,0
8280,set_tempo,100,1,0,,,,,,,,,,,,515996,,,,,,,
8360,set_tempo,80,1,0,,,,,,,,,,,,504202,,,,,,,
8383,control_change,103,0,2,,,,,,,,,,,,,,,0,64,0,,
8400,note_on,0,0,2,,,,,,,,,,,,,,,0,,,61,63
8400,note_on,0,0,1,,,,,,,,,,,,,,,0,,,73,91
8400,note_on,17,0,2,,,,,,,,,,,,,,,0,,,68,0
8400,note_on,120,0,1,,,,,,,,,,,,,,,0,,,74,0
8420,set_tempo,60,1,0,,,,,,,,,,,,495868,,,,,,,
8451,control_change,51,0,2,,,,,,,,,,,,,,,0,64,127,,
8520,set_tempo,100,1,0,,,,,,,,,,,,528634,,,,,,,
8520,note_on,0,0,1,,,,,,,,,,,,,,,0,,,71,86
8520,note_on,69,0,2,,,,,,,,,,,,,,,0,,,61,0
8520,note_on,0,0,2,,,,,,,,,,,,,,,0,,,62,55
8520,note_on,120,0,1,,,,,,,,,,,,,,,0,,,73,0
8640,note_on,120,0,1,,,,,,,,,,,,,,,0,,,71,0
8640,note_on,0,0,2,,,,,,,,,,,,,,,0,,,61,62
8640,note_on,120,0,2,,,,,,,,,,,,,,,0,,,62,0
8640,set_tempo,120,1,0,,,,,,,,,,,,520879,,,,,,,
8640,note_on,0,0,1,,,,,,,,,,,,,,,0,,,70,91
8651,control_change,11,0,2,,,,,,,,,,,,,,,0,64,0,,
8686,control_change,35,0,2,,,,,,,,,,,,,,,0,64,127,,
8720,set_tempo,80,1,0,,,,,,,,,,,,518403,,,,,,,
8760,note_on,74,0,2,,,,,,,,,,,,,,,0,,,61,0
8760,note_on,120,0,1,,,,,,,,,,,,,,,0,,,70,0
8760,note_on,0,0,2,,,,,,,,,,,,,,,0,,,54,44
8760,note_on,0,0,1,,,,,,,,,,,,,,,0,,,78,77
8800,set_tempo,80,1,0,,,,,,,,,,,,515996,,,,,,,
8820,note_on,60,0,2,,,,,,,,,,,,,,,0,,,54,0
8820,note_on,60,0,1,,,,,,,,,,,,,,,0,,,78,0
8860,set_tempo,60,1,0,,,,,,,,,,,,513611,,,,,,,
8880,note_on,60,0,2,,,,,,,,,,,,,,,0,,,62,53
8880,note_on,60,0,1,,,,,,,,,,,,,,,0,,,71,84
8891,control_change,11,0,2,,,,,,,,,,,,,,,0,64,0,,
8931,control_change,40,0,2,,,,,,,,,,,,,,,0,64,127,,
9000,note_on,120,0,1,,,,,,,,,,,,,,,0,,,71,0
9000,note_on,0,0,1,,,,,,,,,,,,,,,0,,,80,73
9000,note_on,69,0,2,,,,,,,,,,,,,,,0,,,62,0
9000,note_on,0,0,2,,,,,,,,,,,,,,,0,,,50,42
9060,note_on,60,0,2,,,,,,,,,,,,,,,0,,,50,0
9060,note_on,60,0,1,,,,,,,,,,,,,,,0,,,80,0
9100,set_tempo,240,1,0,,,,,,,,,,,,513611,,,,,,,
9120,note_on,60,0,1,,,,,,,,,,,,,,,0,,,65,80
9120,note_on,60,0,2,,,,,,,,,,,,,,,0,,,61,53
9131,control_change,11,0,2,,,,,,,,,,,,,,,0,64,0,,
9177,control_change,46,0,2,,,,,,,,,,,,,,,0,64,127,,
9180,set_tempo,80,1,0,,,,,,,,,,,,515996,,,,,,,
9240,note_on,63,0,2,,,,,,,,,,,,,,,0,,,61,0
9240,note_on,120,0,1,,,,,,,,,,,,,,,0,,,65,0
9240,note_on,0,0,1,,,,,,,,,,,,,,,0,,,82,71
9240,note_on,0,0,2,,,,,,,,,,,,,,,0,,,49,42
9260,set_tempo,80,1,0,,,,,,,,,,,,518403,,,,,,,
9300,note_on,60,0,2,,,,,,,,,,,,,,,0,,,49,0
9300,note_on,60,0,1,,,,,,,,,,,,,,,0,,,82,0
9340,set_tempo,80,1,0,,,,,,,,,,,,520879,,,,,,,
9360,set_tempo,20,1,0,,,,,,,,,,,,520879,,,,,,,
9360,note_on,60,0,1,,,,,,,,,,,,,,,0,,,70,89
9360,note_on,60,0,2,,,,,,,,,,,,,,,0,,,42,57
9371,control_change,11,0,2,,,,,,,,,,,,,,,0,64,0,,
9406,control_change,35,0,2,,,,,,,,,,,,,,,0,64,127,,
9480,note_on,74,0,2,,,,,,,,,,,,,,,0,,,42,0
9480,note_on,0,0,2,,,,,,,,,,,,,,,0,,,61,42
9480,note_on,0,0,1,,,,,,,,,,,,,,,0,,,78,73
9480,note_on,120,0,1,,,,,,,,,,,,,,,0,,,70,0
9500,set_tempo,140,1,0,,,,,,,,,,,,518403,,,,,,,
9540,note_on,60,0,1,,,,,,,,,,,,,,,0,,,78,0
9540,note_on,60,0,2,,,,,,,,,,,,,,,0,,,61,0
9600,note_on,60,0,2,,,,,,,,,,,,,,,0,,,62,51
9600,note_on,60,0,1,,,,,,,,,,,,,,,0,,,71,80
9611,control_change,11,0,2,,,,,,,,,,,,,,,0,64,0,,
9620,set_tempo,120,1,0,,,,,,,,,,,,515996,,,,,,,
9651,control_change,40,0,2,,,,,,,,,,,,,,,0,64,127,,
9720,note_on,120,0,1,,,,,,,,,,,,,,,0,,,71,0
9720,note_on,0,0,1,,,,,,,,,,,,,,,0,,,80,72
9720,note_on,0,0,2,,,,,,,,,,,,,,,0,,,47,41
9720,note_on,69,0,2,,,,,,,,,,,,,,,0,,,62,0
9780,note_on,60,0,2,,,,,,,,,,,,,,,0,,,47,0
9780,note_on,60,0,1,,,,,,,,,,,,,,,0,,,80,0
9840,set_tempo,220,1,0,,,,,,,,,,,,515996,,,,,,,
9840,note_on,60,0,2,,,,,,,,,,,,,,,0,,,61,50
9840,note_on,60,0,1,,,,,,,,,,,,,,,0,,,65,78
9851,control_change,11,0,2,,,,,,,,,,,,,,,0,64,0,,
9880,set_tempo,40,1,0,,,,,,,,,,,,518403,,,,,,,
9897,control_change,46,0,2,,,,,,,,,,,,,,,0,64,127,,
9920,set_tempo,40,1,0,,,,,,,,,,,,520879,,,,,,,
9960,note_on,0,0,1,,,,,,,,,,,,,,,0,,,82,67
9960,set_tempo,40,1,0,,,,,,,,,,,,523332,,,,,,,
9960,note_on,120,0,1,,,,,,,,,,,,,,,0,,,65,0
9960,note_on,63,0,2,,,,,,,,,,,,,,,0,,,61,0
9960,note_on,0,0,2,,,,,,,,,,,,,,,0,,,49,40
10000,set_tempo,40,1,0,,,,,,,,,,,,525808,,,,,,,
10020,note_on,60,0,1,,,,,,,,,,,,,,,0,,,82,0
10020,note_on,60,0,2,,,,,,,,,,,,,,,0,,,49,0
10040,set_tempo,40,1,0,,,,,,,,,,,,528355,,,,,,,
10060,set_tempo,20,1,0,,,,,,,,,,,,530879,,,,,,,
10080,note_on,60,0,1,,,,,,,,,,,,,,,0,,,70,78
10080,note_on,60,0,2,,,,,,,,,,,,,,,0,,,42,55
10091,control_change,11,0,2,,,,,,,,,,,,,,,0,64,0,,
10120,set_tempo,60,1,0,,,,,,,,,,,,528355,,,,,,,
10126,control_change,35,0,2,,,,,,,,,,,,,,,0,64,127,,
10180,set_tempo,60,1,0,,,,,,,,,,,,525808,,,,,,,
10200,note_on,0,0,1,,,,,,,,,,,,,,,0,,,78,64
10200,note_on,120,0,1,,,,,,,,,,,,,,,0,,,70,0
10200,note_on,74,0,2,,,,,,,,,,,,,,,0,,,42,0
10200,note_on,0,0,2,,,,,,,,,,,,,,,0,,,61,41
10220,set_tempo,40,1,0,,,,,,,,,,,,523332,,,,,,,
10260,note_on,60,0,1,,,,,,,,,,,,,,,0,,,78,0
10260,note_on,60,0,2,,,,,,,,,,,,,,,0,,,61,0
10280,set_tempo,60,1,0,,,,,,,,,,,,520879,,,,,,,
10320,set_tempo,40,1,0,,,,,,,,,,,,518403,,,,,,,
10320,note_on,60,0,1,,,,,,,,,,,,,,,0,,,71,74
10320,note_on,60,0,2,,,,,,,,,,,,,,,0,,,62,49
10331,control_change,11,0,2,,,,,,,,,,,,,,,0,64,0,,
10371,control_change,40,0,2,,,,,,,,,,,,,,,0,64,127,,
10440,note_on,69,0,2,,,,,,,,,,,,,,,0,,,62,0
10440,note_on,0,0,2,,,,,,,,,,,,,,,0,,,47,39
10440,note_on,120,0,1,,,,,,,,,,,,,,,0,,,71,0
10440,note_on,0,0,1,,,,,,,,,,,,,,,0,,,80,60
10500,note_on,60,0,1,,,,,,,,,,,,,,,0,,,80,0
10500,note_on,60,0,2,,,,,,,,,,,,,,,0,,,47,0
10540,set_tempo,220,1,0,,,,,,,,,,,,515996,,,,,,,
10560,note_on,60,0,2,,,,,,,,,,,,,,,0,,,61,46
10560,note_on,60,0,1,,,,,,,,,,,,,,,0,,,65,70
10571,control_change,11,0,2,,,,,,,,,,,,,,,0,64,0,,
10580,set_tempo,40,1,0,,,,,,,,,,,,518403,,,,,,,
10600,set_tempo,20,1,0,,,,,,,,,,,,520879,,,,,,,
10617,control_change,46,0,2,,,,,,,,,,,,,,,0,64,127,,
10620,set_tempo,20,1,0,,,,,,,,,,,,523332,,,,,,,
10640,set_tempo,20,1,0,,,,,,,,,,,,525808,,,,,,,
10660,set_tempo,20,1,0,,,,,,,,,,,,528355,,,,,,,
10680,note_on,0,0,2,,,,,,,,,,,,,,,0,,,49,36
10680,note_on,63,0,2,,,,,,,,,,,,,,,0,,,61,0
10680,note_on,0,0,1,,,,,,,,,,,,,,,0,,,82,63
10680,note_on,120,0,1,,,,,,,,,,,,,,,0,,,65,0
10700,set_tempo,40,1,0,,,,,,,,,,,,530879,,,,,,,
10720,set_tempo,20,1,0,,,,,,,,,,,,533476,,,,,,,
10740,note_on,60,0,2,,,,,,,,,,,,,,,0,,,49,0
10740,note_on,60,0,1,,,,,,,,,,,,,,,0,,,82,0
10740,set_tempo,20,1,0,,,,,,,,,,,,536049,,,,,,,
10760,set_tempo,20,1,0,,,,,,,,,,,,538648,,,,,,,
10780,set_tempo,20,1,0,,,,,,,,,,,,541272,,,,,,,
10800,note_on,60,0,2,,,,,,,,,,,,,,,0,,,42,48
10800,set_tempo,20,1,0,,,,,,,,,,,,563380,,,,,,,
10800,note_on,60,0,1,,,,,,,,,,,,,,,0,,,70,70
10811,control_change,11,0,2,,,,,,,,,,,,,,,0,64,0,,
10840,set_tempo,40,1,0,,,,,,,,,,,,560748,,,,,,,
10846,control_change,35,0,2,,,,,,,,,,,,,,,0,64,127,,
10880,set_tempo,40,1,0,,,,,,,,,,,,558140,,,,,,,
10920,note_on,74,0,2,,,,,,,,,,,,,,,0,,,42,0
10920,note_on,0,0,2,,,,,,,,,,,,,,,0,,,61,40
10920,set_tempo,40,1,0,,,,,,,,,,,,555556,,,,,,,
10920,note_on,0,0,1,,,,,,,,,,,,,,,0,,,78,60
10920,note_on,120,0,1,,,,,,,,,,,,,,,0,,,70,0
10960,set_tempo,40,1,0,,,,,,,,,,,,552995,,,,,,,
10980,note_on,60,0,1,,,,,,,,,,,,,,,0,,,78,0
10980,note_on,60,0,2,,,,,,,,,,,,,,,0,,,61,0
11000,set_tempo,40,1,0,,,,,,,,,,,,550459,,,,,,,
11040,set_tempo,40,1,0,,,,,,,,,,,,547945,,,,,,,
11040,note_on,60,0,2,,,,,,,,,,,,,,,0,,,62,43
11040,note_on,60,0,1,,,,,,,,,,,,,,,0,,,71,62
11051,control_change,11,0,2,,,,,,,,,,,,,,,0,64,0,,
11060,set_tempo,20,1,0,,,,,,,,,,,,545455,,,,,,,
11091,control_change,40,0,2,,,,,,,,,,,,,,,0,64,127,,
11160,note_on,69,0,2,,,,,,,,,,,,,,,0,,,62,0
11160,note_on,0,0,2,,,,,,,,,,,,,,,0,,,47,37
11160,note_on,120,0,1,,,,,,,,,,,,,,,0,,,71,0
11160,note_on,0,0,1,,,,,,,,,,,,,,,0,,,80,55
11220,note_on,60,0,2,,,,,,,,,,,,,,,0,,,47,0
11220,note_on,60,0,1,,,,,,,,,,,,,,,0,,,80,0
11240,set_tempo,180,1,0,,,,,,,,,,,,530973,,,,,,,
11280,note_on,60,0,2,,,,,,,,,,,,,,,0,,,61,42
11280,set_tempo,40,1,0,,,,,,,,,,,,540541,,,,,,,
11280,note_on,60,0,1,,,,,,,,,,,,,,,0,,,65,57
11291,control_change,11,0,2,,,,,,,,,,,,,,,0,64,0,,
11300,set_tempo,20,1,0,,,,,,,,,,,,542986,,,,,,,
11320,set_tempo,20,1,0,,,,,,,,,,,,547945,,,,,,,
11337,control_change,46,0,2,,,,,,,,,,,,,,,0,64,127,,
11340,set_tempo,20,1,0,,,,,,,,,,,,550459,,,,,,,
11360,set_tempo,20,1,0,,,,,,,,,,,,555556,,,,,,,
11380,set_tempo,20,1,0,,,,,,,,,,,,560748,,,,,,,
11400,note_on,0,0,2,,,,,,,,,,,,,,,0,,,49,34
11400,note_on,0,0,1,,,,,,,,,,,,,,,0,,,81,50
11400,note_on,63,0,2,,,,,,,,,,,,,,,0,,,61,0
11400,note_on,120,0,1,,,,,,,,,,,,,,,0,,,65,0
11400,set_tempo,20,1,0,,,,,,,,,,,,563380,,,,,,,
11420,set_tempo,20,1,0,,,,,,,,,,,,568720,,,,,,,
11440,set_tempo,20,1,0,,,,,,,,,,,,574163,,,,,,,
11460,note_on,60,0,1,,,,,,,,,,,,,,,0,,,81,0
11460,set_tempo,20,1,0,,,,,,,,,,,,576923,,,,,,,
11460,note_on,60,0,2,,,,,,,,,,,,,,,0,,,49,0
11480,set_tempo,20,1,0,,,,,,,,,,,,582524,,,,,,,
11500,set_tempo,20,1,0,,,,,,,,,,,,588235,,,,,,,
11501,control_change,41,0,2,,,,,,,,,,,,,,,0,64,0,,
11520,set_tempo,20,1,0,,,,,,,,,,,,564493,,,,,,,
11520,note_on,19,0,2,,,,,,,,,,,,,,,0,,,42,49
11520,note_on,60,0,1,,,,,,,,,,,,,,,0,,,78,53
11548,control_change,28,0,2,,,,,,,,,,,,,,,0,64,127,,
11640,note_on,92,0,2,,,,,,,,,,,,,,,0,,,42,0
11640,note_on,0,0,2,,,,,,,,,,,,,,,0,,,57,39
11640,note_on,0,0,1,,,,,,,,,,,,,,,0,,,66,47
11640,note_on,120,0,1,,,,,,,,,,,,,,,0,,,78,0
11746,control_change,106,0,2,,,,,,,,,,,,,,,0,64,0,,
11760,note_on,14,0,2,,,,,,,,,,,,,,,0,,,57,0
11760,note_on,0,0,2,,,,,,,,,,,,,,,0,,,55,44
11760,note_on,0,0,1,,,,,,,,,,,,,,,0,,,61,35
11760,set_tempo,240,1,0,,,,,,,,,,,,542790,,,,,,,
11760,note_on,120,0,1,,,,,,,,,,,,,,,0,,,66,0
11781,control_change,21,0,2,,,,,,,,,,,,,,,0,64,127,,
11860,set_tempo,100,1,0,,,,,,,,,,,,540200,,,,,,,
11880,note_on,99,0,2,,,,,,,,,,,,,,,0,,,55,0
11880,note_on,0,0,1,,,,,,,,,,,,,,,0,,,71,61
11880,note_on,120,0,1,,,,,,,,,,,,,,,0,,,61,0
11880,note_on,0,0,2,,,,,,,,,,,,,,,0,,,45,39
11960,set_tempo,100,1,0,,,,,,,,,,,,537634,,,,,,,
12000,note_on,120,0,1,,,,,,,,,,,,,,,0,,,76,55
12000,note_on,120,0,2,,,,,,,,,,,,,,,0,,,45,0
12000,note_on,0,0,2,,,,,,,,,,,,,,,0,,,55,41
12040,set_tempo,80,1,0,,,,,,,,,,,,535093,,,,,,,
12120,note_on,120,0,2,,,,,,,,,,,,,,,0,,,55,0
12120,note_on,0,0,2,,,,,,,,,,,,,,,0,,,64,35
12120,note_on,120,0,1,,,,,,,,,,,,,,,0,,,76,0
12120,note_on,0,0,1,,,,,,,,,,,,,,,0,,,69,47
12120,note_on,0,0,1,,,,,,,,,,,,,,,0,,,71,0
12140,set_tempo,100,1,0,,,,,,,,,,,,532576,,,,,,,
12220,set_tempo,80,1,0,,,,,,,,,,,,530035,,,,,,,
12240,note_on,0,0,1,,,,,,,,,,,,,,,0,,,61,51
12240,set_tempo,20,1,0,,,,,,,,,,,,517241,,,,,,,
12240,note_on,120,0,2,,,,,,,,,,,,,,,0,,,64,0
12240,control_change,0,0,2,,,,,,,,,,,,,,,0,64,0,,
12240,note_on,120,0,1,,,,,,,,,,,,,,,0,,,69,0
12240,note_on,0,0,2,,,,,,,,,,,,,,,0,,,55,49
12274,control_change,34,0,2,,,,,,,,,,,,,,,0,64,127,,
12280,set_tempo,40,1,0,,,,,,,,,,,,515021,,,,,,,
12320,set_tempo,40,1,0,,,,,,,,,,,,512821,,,,,,,
12360,note_on,0,0,1,,,,,,,,,,,,,,,0,,,70,70
12360,note_on,86,0,2,,,,,,,,,,,,,,,0,,,55,0
12360,note_on,0,0,2,,,,,,,,,,,,,,,0,,,45,42
12360,set_tempo,40,1,0,,,,,,,,,,,,510638,,,,,,,
12360,note_on,120,0,1,,,,,,,,,,,,,,,0,,,61,0
12400,set_tempo,40,1,0,,,,,,,,,,,,508475,,,,,,,
12440,set_tempo,40,1,0,,,,,,,,,,,,506329,,,,,,,
12480,note_on,120,0,1,,,,,,,,,,,,,,,0,,,76,56
12480,set_tempo,40,1,0,,,,,,,,,,,,504032,,,,,,,
12480,note_on,120,0,2,,,,,,,,,,,,,,,0,,,45,0
12480,note_on,0,0,2,,,,,,,,,,,,,,,0,,,55,47
12600,note_on,120,0,2,,,,,,,,,,,,,,,0,,,55,0
12600,note_on,120,0,1,,,,,,,,,,,,,,,0,,,76,0
12600,note_on,0,0,1,,,,,,,,,,,,,,,0,,,70,0
12600,note_on,0,0,1,,,,,,,,,,,,,,,0,,,69,53
12600,note_on,0,0,2,,,,,,,,,,,,,,,0,,,64,43
12660,note_on,60,0,2,,,,,,,,,,,,,,,0,,,64,0
12660,note_on,60,0,1,,,,,,,,,,,,,,,0,,,69,0
12700,set_tempo,220,1,0,,,,,,,,,,,,506329,,,,,,,
12714,control_change,54,0,2,,,,,,,,,,,,,,,0,64,0,,
12720,note_on,6,0,2,,,,,,,,,,,,,,,0,,,55,52
12720,note_on,60,0,1,,,,,,,,,,,,,,,0,,,61,61
12749,control_change,29,0,2,,,,,,,,,,,,,,,0,64,127,,
12780,set_tempo,80,1,0,,,,,,,,,,,,504202,,,,,,,
12840,set_tempo,60,1,0,,,,,,,,,,,,502092,,,,,,,
12840,note_on,91,0,2,,,,,,,,,,,,,,,0,,,55,0
12840,note_on,120,0,1,,,,,,,,,,,,,,,0,,,61,0
12840,note_on,0,0,1,,,,,,,,,,,,,,,0,,,71,69
12840,note_on,0,0,2,,,,,,,,,,,,,,,0,,,45,40
12920,set_tempo,80,1,0,,,,,,,,,,,,500000,,,,,,,
12960,note_on,120,0,2,,,,,,,,,,,,,,,0,,,45,0
12960,note_on,0,0,2,,,,,,,,,,,,,,,0,,,55,50
12960,note_on,120,0,1,,,,,,,,,,,,,,,0,,,76,67
12980,set_tempo,60,1,0,,,,,,,,,,,,497925,,,,,,,
13060,set_tempo,80,1,0,,,,,,,,,,,,495868,,,,,,,
13080,note_on,0,0,1,,,,,,,,,,,,,,,0,,,71,0
13080,note_on,120,0,2,,,,,,,,,,,,,,,0,,,55,0
13080,note_on,120,0,1,,,,,,,,,,,,,,,0,,,76,0
13080,note_on,0,0,1,,,,,,,,,,,,,,,0,,,69,62
13080,note_on,0,0,2,,,,,,,,,,,,,,,0,,,64,43
13120,set_tempo,60,1,0,,,,,,,,,,,,493827,,,,,,,
13140,note_on,60,0,1,,,,,,,,,,,,,,,0,,,69,0
13140,note_on,60,0,2,,,,,,,,,,,,,,,0,,,64,0
13180,set_tempo,60,1,0,,,,,,,,,,,,491803,,,,,,,
13200,note_on,60,0,2,,,,,,,,,,,,,,,0,,,55,52
13200,note_on,60,0,1,,,,,,,,,,,,,,,0,,,61,65
13211,control_change,11,0,2,,,,,,,,,,,,,,,0,64,0,,
13251,control_change,40,0,2,,,,,,,,,,,,,,,0,64,127,,
13320,note_on,0,0,1,,,,,,,,,,,,,,,0,,,70,73
13320,note_on,120,0,1,,,,,,,,,,,,,,,0,,,61,0
13320,note_on,69,0,2,,,,,,,,,,,,,,,0,,,55,0
13320,note_on,0,0,2,,,,,,,,,,,,,,,0,,,45,46
13440,note_on,120,0,1,,,,,,,,,,,,,,,0,,,76,68
13440,note_on,0,0,2,,,,,,,,,,,,,,,0,,,55,51
13440,note_on,120,0,2,,,,,,,,,,,,,,,0,,,45,0
13560,note_on,0,0,1,,,,,,,,,,,,,,,0,,,70,0
13560,note_on,0,0,1,,,,,,,,,,,,,,,0,,,69,62
13560,note_on,0,0,2,,,,,,,,,,,,,,,0,,,64,47
13560,note_on,120,0,1,,,,,,,,,,,,,,,0,,,76,0
13560,note_on,120,0,2,,,,,,,,,,,,,,,0,,,55,0
13620,note_on,60,0,1,,,,,,,,,,,,,,,0,,,69,0
13620,set_tempo,440,1,0,,,,,,,,,,,,499542,,,,,,,
13620,note_on,60,0,2,,,,,,,,,,,,,,,0,,,64,0
13660,set_tempo,40,1,0,,,,,,,,,,,,501798,,,,,,,
13680,control_change,0,0,2,,,,,,,,,,,,,,,0,64,0,,
13680,note_on,0,0,2,,,,,,,,,,,,,,,0,,,55,54
13680,set_tempo,20,1,0,,,,,,,,,,,,493016,,,,,,,
13680,note_on,60,0,1,,,,,,,,,,,,,,,0,,,61,70
13680,note_on,60,0,2,,,,,,,,,,,,,,,0,,,57,54
13712,control_change,32,0,2,,,,,,,,,,,,,,,0,64,127,,
13720,set_tempo,40,1,0,,,,,,,,,,,,495172,,,,,,,
13760,set_tempo,40,1,0,,,,,,,,,,,,497347,,,,,,,
13800,set_tempo,40,1,0,,,,,,,,,,,,499542,,,,,,,
13800,note_on,0,0,2,,,,,,,,,,,,,,,0,,,57,0
13800,note_on,88,0,2,,,,,,,,,,,,,,,0,,,55,0
13800,note_on,0,0,1,,,,,,,,,,,,,,,0,,,71,72
13800,note_on,0,0,2,,,,,,,,,,,,,,,0,,,45,45
13800,note_on,120,0,1,,,,,,,,,,,,,,,0,,,61,0
13820,set_tempo,20,1,0,,,,,,,,,,,,501798,,,,,,,
13860,set_tempo,40,1,0,,,,,,,,,,,,504032,,,,,,,
13900,set_tempo,40,1,0,,,,,,,,,,,,506286,,,,,,,
13920,note_on,120,0,1,,,,,,,,,,,,,,,0,,,76,64
13920,note_on,120,0,2,,,,,,,,,,,,,,,0,,,45,0
13920,note_on,0,0,2,,,,,,,,,,,,,,,0,,,55,49
13940,set_tempo,40,1,0,,,,,,,,,,,,508561,,,,,,,
13960,set_tempo,20,1,0,,,,,,,,,,,,510856,,,,,,,
14000,set_tempo,40,1,0,,,,,,,,,,,,513171,,,,,,,
14040,note_on,120,0,1,,,,,,,,,,,,,,,0,,,76,0
14040,note_on,0,0,1,,,,,,,,,,,,,,,0,,,71,0
14040,note_on,0,0,1,,,,,,,,,,,,,,,0,,,69,57
14040,note_on,0,0,2,,,,,,,,,,,,,,,0,,,64,40
14040,set_tempo,40,1,0,,,,,,,,,,,,515553,,,,,,,
14040,note_on,120,0,2,,,,,,,,,,,,,,,0,,,55,0
14060,set_tempo,20,1,0,,,,,,,,,,,,517911,,,,,,,
14100,set_tempo,40,1,0,,,,,,,,,,,,520291,,,,,,,
14100,note_on,60,0,2,,,,,,,,,,,,,,,0,,,64,0
14100,note_on,60,0,1,,,,,,,,,,,,,,,0,,,69,0
14132,control_change,32,0,2,,,,,,,,,,,,,,,0,64,0,,
14140,set_tempo,40,1,0,,,,,,,,,,,,522694,,,,,,,
14160,note_on,60,0,1,,,,,,,,,,,,,,,0,,,61,55
14160,control_change,28,0,2,,,,,,,,,,,,,,,0,64,127,,
14160,note_on,0,0,2,,,,,,,,,,,,,,,0,,,55,40
14180,set_tempo,40,1,0,,,,,,,,,,,,525118,,,,,,,
14200,set_tempo,20,1,0,,,,,,,,,,,,527565,,,,,,,
14240,set_tempo,40,1,0,,,,,,,,,,,,530035,,,,,,,
14280,note_on,0,0,1,,,,,,,,,,,,,,,0,,,66,54
14280,note_on,120,0,1,,,,,,,,,,,,,,,0,,,61,0
14280,note_on,0,0,2,,,,,,,,,,,,,,,0,,,57,35
14280,note_on,120,0,2,,,,,,,,,,,,,,,0,,,55,0
14280,set_tempo,40,1,0,,,,,,,,,,,,532576,,,,,,,
14300,set_tempo,20,1,0,,,,,,,,,,,,535093,,,,,,,
14360,set_tempo,60,1,0,,,,,,,,,,,,540200,,,,,,,
14380,set_tempo,20,1,0,,,,,,,,,,,,542986,,,,,,,
14400,note_on,0,0,1,,,,,,,,,,,,,,,0,,,62,58
14400,note_on,120,0,1,,,,,,,,,,,,,,,0,,,66,0
14400,note_on,120,0,2,,,,,,,,,,,,,,,0,,,57,0
14400,note_on,0,0,2,,,,,,,,,,,,,,,0,,,38,45
14417,control_change,17,0,2,,,,,,,,,,,,,,,0,64,0,,
14420,set_tempo,40,1,0,,,,,,,,,,,,540541,,,,,,,
14434,control_change,17,0,2,,,,,,,,,,,,,,,0,64,127,,
14460,set_tempo,40,1,0,,,,,,,,,,,,538117,,,,,,,
14480,set_tempo,20,1,0,,,,,,,,,,,,535714,,,,,,,
14520,note_on,86,0,2,,,,,,,,,,,,,,,0,,,38,0
14520,note_on,120,0,1,,,,,,,,,,,,,,,0,,,62,0
14520,note_on,0,0,1,,,,,,,,,,,,,,,0,,,57,53
14520,note_on,0,0,2,,,,,,,,,,,,,,,0,,,54,41
14520,set_tempo,40,1,0,,,,,,,,,,,,533333,,,,,,,
14560,set_tempo,40,1,0,,,,,,,,,,,,530973,,,,,,,
14580,set_tempo,20,1,0,,,,,,,,,,,,528634,,,,,,,
14620,set_tempo,40,1,0,,,,,,,,,,,,526316,,,,,,,
14640,set_tempo,20,1,0,,,,,,,,,,,,524017,,,,,,,
14640,note_on,120,0,1,,,,,,,,,,,,,,,0,,,57,0
14640,note_on,120,0,2,,,,,,,,,,,,,,,0,,,54,0
14640,note_on,0,0,2,,,,,,,,,,,,,,,0,,,55,42
14640,note_on,0,0,1,,,,,,,,,,,,,,,0,,,58,53
14665,control_change,25,0,2,,,,,,,,,,,,,,,0,64,0,,
14682,control_change,17,0,2,,,,,,,,,,,,,,,0,64,127,,
14760,note_on,78,0,2,,,,,,,,,,,,,,,0,,,55,0
14760,note_on,0,0,2,,,,,,,,,,,,,,,0,,,43,38
14760,note_on,120,0,1,,,,,,,,,,,,,,,0,,,58,0
14760,note_on,0,0,1,,,,,,,,,,,,,,,0,,,59,52
14880,note_on,0,0,2,,,,,,,,,,,,,,,0,,,45,44
14880,note_on,120,0,2,,,,,,,,,,,,,,,0,,,43,0
14880,set_tempo,240,1,0,,,,,,,,,,,,508475,,,,,,,
14880,note_on,120,0,1,,,,,,,,,,,,,,,0,,,59,0
14880,note_on,0,0,1,,,,,,,,,,,,,,,0,,,67,55
14880,note_on,0,0,1,,,,,,,,,,,,,,,0,,,61,46
14891,control_change,11,0,2,,,,,,,,,,,,,,,0,64,0,,
15000,note_on,109,0,2,,,,,,,,,,,,,,,0,,,45,0
15000,note_on,0,0,1,,,,,,,,,,,,,,,0,,,67,0
15000,set_tempo,120,1,0,,,,,,,,,,,,526316,,,,,,,
15000,note_on,0,0,2,,,,,,,,,,,,,,,0,,,57,44
15000,note_on,120,0,1,,,,,,,,,,,,,,,0,,,61,0
15000,note_on,0,0,1,,,,,,,,,,,,,,,0,,,66,54
15090,note_on,90,0,1,,,,,,,,,,,,,,,0,,,66,0
15090,note_on,90,0,2,,,,,,,,,,,,,,,0,,,57,0
15120,set_tempo,120,1,0,,,,,,,,,,,,535714,,,,,,,
15120,note_on,30,0,1,,,,,,,,,,,,,,,0,,,62,66
15120,note_on,30,0,2,,,,,,,,,,,,,,,0,,,54,48
15160,set_tempo,40,1,0,,,,,,,,,,,,533333,,,,,,,
15166,control_change,46,0,2,,,,,,,,,,,,,,,0,64,127,,
15180,set_tempo,20,1,0,,,,,,,,,,,,530973,,,,,,,
15220,set_tempo,40,1,0,,,,,,,,,,,,528634,,,,,,,
15240,note_on,120,0,1,,,,,,,,,,,,,,,0,,,62,0
15240,note_on,0,0,1,,,,,,,,,,,,,,,0,,,74,59
15240,note_on,0,0,2,,,,,,,,,,,,,,,0,,,47,42
15240,note_on,74,0,2,,,,,,,,,,,,,,,0,,,54,0
15240,set_tempo,20,1,0,,,,,,,,,,,,526316,,,,,,,
15280,set_tempo,40,1,0,,,,,,,,,,,,524017,,,,,,,
15300,set_tempo,20,1,0,,,,,,,,,,,,521739,,,,,,,
15340,set_tempo,40,1,0,,,,,,,,,,,,519481,,,,,,,
15360,note_on,0,0,2,,,,,,,,,,,,,,,0,,,62,42
15360,note_on,120,0,2,,,,,,,,,,,,,,,0,,,47,0
15360,note_on,0,0,1,,,,,,,,,,,,,,,0,,,66,59
15360,note_on,120,0,1,,,,,,,,,,,,,,,0,,,74,0
15360,set_tempo,20,1,0,,,,,,,,,,,,517241,,,,,,,
15480,note_on,120,0,2,,,,,,,,,,,,,,,0,,,62,0
15480,note_on,120,0,1,,,,,,,,,,,,,,,0,,,66,0
15480,note_on,0,0,2,,,,,,,,,,,,,,,0,,,53,42
15480,note_on,0,0,1,,,,,,,,,,,,,,,0,,,69,59
15589,control_change,109,0,2,,,,,,,,,,,,,,,0,64,0,,
15600,set_tempo,240,1,0,,,,,,,,,,,,504202,,,,,,,
15600,note_on,11,0,2,,,,,,,,,,,,,,,0,,,53,0
15600,note_on,0,0,2,,,,,,,,,,,,,,,0,,,52,48
15600,note_on,120,0,1,,,,,,,,,,,,,,,0,,,69,0
15600,note_on,0,0,1,,,,,,,,,,,,,,,0,,,68,52
15600,note_on,0,0,1,,,,,,,,,,,,,,,0,,,72,61
15720,set_tempo,120,1,0,,,,,,,,,,,,528634,,,,,,,
15720,note_on,120,0,1,,,,,,,,,,,,,,,0,,,72,0
15720,note_on,0,0,2,,,,,,,,,,,,,,,0,,,62,42
15720,note_on,120,0,2,,,,,,,,,,,,,,,0,,,52,0
15720,note_on,0,0,1,,,,,,,,,,,,,,,0,,,68,0
15720,note_on,0,0,1,,,,,,,,,,,,,,,0,,,71,58
15810,note_on,90,0,2,,,,,,,,,,,,,,,0,,,62,0
15810,note_on,90,0,1,,,,,,,,,,,,,,,0,,,71,0
15840,note_on,30,0,2,,,,,,,,,,,,,,,0,,,60,55
15840,set_tempo,120,1,0,,,,,,,,,,,,535714,,,,,,,
15840,note_on,30,0,1,,,,,,,,,,,,,,,0,,,64,67
15880,set_tempo,40,1,0,,,,,,,,,,,,533333,,,,,,,
15886,control_change,46,0,2,,,,,,,,,,,,,,,0,64,127,,
15900,set_tempo,20,1,0,,,,,,,,,,,,530973,,,,,,,
15940,set_tempo,40,1,0,,,,,,,,,,,,528634,,,,,,,
15960,set_tempo,20,1,0,,,,,,,,,,,,526316,,,,,,,
15960,note_on,0,0,2,,,,,,,,,,,,,,,0,,,57,47
15960,note_on,0,0,1,,,,,,,,,,,,,,,0,,,69,61
15960,note_on,120,0,1,,,,,,,,,,,,,,,0,,,64,0
15960,note_on,74,0,2,,,,,,,,,,,,,,,0,,,60,0
16000,set_tempo,40,1,0,,,,,,,,,,,,524017,,,,,,,
16020,set_tempo,20,1,0,,,,,,,,,,,,521739,,,,,,,
16060,set_tempo,40,1,0,,,,,,,,,,,,519481,,,,,,,
16080,control_change,0,0,2,,,,,,,,,,,,,,,0,64,0,,
16080,set_tempo,20,1,0,,,,,,,,,,,,517241,,,,,,,
16080,note_on,0,0,2,,,,,,,,,,,,,,,0,,,62,44
16080,note_on,120,0,2,,,,,,,,,,,,,,,0,,,57,0
16080,note_on,120,0,1,,,,,,,,,,,,,,,0,,,69,0
16080,note_on,0,0,1,,,,,,,,,,,,,,,0,,,65,61
16103,control_change,23,0,2,,,,,,,,,,,,,,,0,64,127,,
16200,note_on,97,0,2,,,,,,,,,,,,,,,0,,,62,0
16200,note_on,0,0,2,,,,,,,,,,,,,,,0,,,50,44
16200,note_on,120,0,1,,,,,,,,,,,,,,,0,,,65,0
16200,note_on,0,0,1,,,,,,,,,,,,,,,0,,,69,61
16320,note_on,0,0,1,,,,,,,,,,,,,,,0,,,72,66
16320,note_on,0,0,1,,,,,,,,,,,,,,,0,,,68,56
16320,set_tempo,240,1,0,,,,,,,,,,,,497925,,,,,,,
16320,note_on,0,0,2,,,,,,,,,,,,,,,0,,,52,47
16320,note_on,120,0,2,,,,,,,,,,,,,,,0,,,50,0
16320,note_on,120,0,1,,,,,,,,,,,,,,,0,,,69,0
16337,control_change,17,0,2,,,,,,,,,,,,,,,0,64,0,,
16440,note_on,120,0,1,,,,,,,,,,,,,,,0,,,72,0
16440,note_on,0,0,1,,,,,,,,,,,,,,,0,,,68,0
16440,note_on,0,0,1,,,,,,,,,,,,,,,0,,,71,63
16440,note_on,103,0,2,,,,,,,,,,,,,,,0,,,52,0
16440,note_on,0,0,2,,,,,,,,,,,,,,,0,,,62,42
16440,set_tempo,120,1,0,,,,,,,,,,,,530973,,,,,,,
16530,note_on,90,0,1,,,,,,,,,,,,,,,0,,,71,0
16530,note_on,90,0,2,,,,,,,,,,,,,,,0,,,62,0
16540,set_tempo,100,1,0,,,,,,,,,,,,524017,,,,,,,
16560,note_on,30,0,1,,,,,,,,,,,,,,,0,,,69,69
16560,note_on,30,0,2,,,,,,,,,,,,,,,0,,,61,55
16600,set_tempo,60,1,0,,,,,,,,,,,,521739,,,,,,,
16606,control_change,46,0,2,,,,,,,,,,,,,,,0,64,127,,
16640,set_tempo,40,1,0,,,,,,,,,,,,519481,,,,,,,
16680,note_on,0,0,2,,,,,,,,,,,,,,,0,,,60,44
16680,note_on,0,0,1,,,,,,,,,,,,,,,0,,,76,58
16680,set_tempo,40,1,0,,,,,,,,,,,,517241,,,,,,,
16680,note_on,74,0,2,,,,,,,,,,,,,,,0,,,61,0
16680,note_on,120,0,1,,,,,,,,,,,,,,,0,,,69,0
16720,set_tempo,40,1,0,,,,,,,,,,,,515021,,,,,,,
16760,set_tempo,40,1,0,,,,,,,,,,,,512821,,,,,,,
16800,note_on,120,0,2,,,,,,,,,,,,,,,0,,,60,0
16800,note_on,0,0,2,,,,,,,,,,,,,,,0,,,54,46
16800,note_on,0,0,1,,,,,,,,,,,,,,,0,,,64,67
16800,note_on,120,0,1,,,,,,,,,,,,,,,0,,,76,0
16800,set_tempo,40,1,0,,,,,,,,,,,,510638,,,,,,,
16920,note_on,120,0,2,,,,,,,,,,,,,,,0,,,54,0
16920,note_on,0,0,2,,,,,,,,,,,,,,,0,,,45,46
16920,note_on,120,0,1,,,,,,,,,,,,,,,0,,,64,0
16920,note_on,0,0,1,,,,,,,,,,,,,,,0,,,69,63
17040,note_on,0,0,1,,,,,,,,,,,,,,,0,,,63,55
17040,note_on,120,0,1,,,,,,,,,,,,,,,0,,,69,0
17040,set_tempo,240,1,0,,,,,,,,,,,,491803,,,,,,,
17040,note_on,120,0,2,,,,,,,,,,,,,,,0,,,45,0
17040,control_change,0,0,2,,,,,,,,,,,,,,,0,64,0,,
17040,note_on,0,0,2,,,,,,,,,,,,,,,0,,,47,51
17040,note_on,0,0,1,,,,,,,,,,,,,,,0,,,72,65
17160,note_on,120,0,2,,,,,,,,,,,,,,,0,,,47,0
17160,note_on,0,0,2,,,,,,,,,,,,,,,0,,,57,44
17160,note_on,0,0,1,,,,,,,,,,,,,,,0,,,63,0
17160,note_on,0,0,1,,,,,,,,,,,,,,,0,,,71,66
17160,set_tempo,120,1,0,,,,,,,,,,,,538117,,,,,,,
17160,note_on,120,0,1,,,,,,,,,,,,,,,0,,,72,0
17250,note_on,90,0,1,,,,,,,,,,,,,,,0,,,71,0
17250,note_on,90,0,2,,,,,,,,,,,,,,,0,,,57,0
17280,set_tempo,120,1,0,,,,,,,,,,,,525808,,,,,,,
17280,note_on,30,0,2,,,,,,,,,,,,,,,0,,,55,54
17280,note_on,30,0,1,,,,,,,,,,,,,,,0,,,59,72
17320,set_tempo,40,1,0,,,,,,,,,,,,530973,,,,,,,
17326,control_change,46,0,2,,,,,,,,,,,,,,,0,64,127,,
17380,set_tempo,60,1,0,,,,,,,,,,,,528634,,,,,,,
17400,note_on,120,0,1,,,,,,,,,,,,,,,0,,,59,0
17400,note_on,0,0,1,,,,,,,,,,,,,,,0,,,64,63
17400,note_on,74,0,2,,,,,,,,,,,,,,,0,,,55,0
17400,note_on,0,0,2,,,,,,,,,,,,,,,0,,,40,49
17420,set_tempo,40,1,0,,,,,,,,,,,,526316,,,,,,,
17480,set_tempo,60,1,0,,,,,,,,,,,,524017,,,,,,,
17520,note_on,0,0,2,,,,,,,,,,,,,,,0,,,45,52
17520,note_on,120,0,2,,,,,,,,,,,,,,,0,,,40,0
17520,note_on,120,0,1,,,,,,,,,,,,,,,0,,,64,0
17520,note_on,0,0,1,,,,,,,,,,,,,,,0,,,60,63
17534,control_change,14,0,2,,,,,,,,,,,,,,,0,64,0,,
17546,control_change,12,0,2,,,,,,,,,,,,,,,0,64,127,,
17640,note_on,0,0,1,,,,,,,,,,,,,,,0,,,64,62
17640,note_on,120,0,1,,,,,,,,,,,,,,,0,,,60,0
17640,note_on,0,0,2,,,,,,,,,,,,,,,0,,,57,48
17640,note_on,94,0,2,,,,,,,,,,,,,,,0,,,45,0
17740,set_tempo,260,1,0,,,,,,,,,,,,504202,,,,,,,
17760,note_on,0,0,2,,,,,,,,,,,,,,,0,,,47,53
17760,note_on,120,0,2,,,,,,,,,,,,,,,0,,,57,0
17760,note_on,120,0,1,,,,,,,,,,,,,,,0,,,64,0
17760,note_on,0,0,1,,,,,,,,,,,,,,,0,,,67,69
17760,note_on,0,0,1,,,,,,,,,,,,,,,0,,,63,59
17760,set_tempo,20,1,0,,,,,,,,,,,,495868,,,,,,,
17777,control_change,17,0,2,,,,,,,,,,,,,,,0,64,0,,
17880,note_on,120,0,1,,,,,,,,,,,,,,,0,,,63,0
17880,note_on,0,0,1,,,,,,,,,,,,,,,0,,,67,0
17880,note_on,0,0,1,,,,,,,,,,,,,,,0,,,66,68
17880,set_tempo,120,1,0,,,,,,,,,,,,519481,,,,,,,
17880,note_on,103,0,2,,,,,,,,,,,,,,,0,,,47,0
17880,note_on,0,0,2,,,,,,,,,,,,,,,0,,,57,50
17970,note_on,90,0,2,,,,,,,,,,,,,,,0,,,57,0
17970,note_on,90,0,1,,,,,,,,,,,,,,,0,,,66,0
18000,note_on,30,0,2,,,,,,,,,,,,,,,0,,,55,55
18000,set_tempo,120,1,0,,,,,,,,,,,,523332,,,,,,,
18000,note_on,30,0,1,,,,,,,,,,,,,,,0,,,64,74
18051,control_change,51,0,2,,,,,,,,,,,,,,,0,64,127,,
18060,set_tempo,60,1,0,,,,,,,,,,,,515996,,,,,,,
18120,note_on,120,0,1,,,,,,,,,,,,,,,0,,,64,0
18120,set_tempo,60,1,0,,,,,,,,,,,,513611,,,,,,,
18120,note_on,69,0,2,,,,,,,,,,,,,,,0,,,55,0
18120,note_on,0,0,2,,,,,,,,,,,,,,,0,,,52,49
18120,note_on,0,0,1,,,,,,,,,,,,,,,0,,,76,65
18180,set_tempo,60,1,0,,,,,,,,,,,,511247,,,,,,,
18240,note_on,120,0,2,,,,,,,,,,,,,,,0,,,52,0
18240,note_on,0,0,1,,,,,,,,,,,,,,,0,,,67,68
18240,note_on,120,0,1,,,,,,,,,,,,,,,0,,,76,0
18240,note_on,0,0,2,,,,,,,,,,,,,,,0,,,64,49
18240,set_tempo,60,1,0,,,,,,,,,,,,508906,,,,,,,
18360,note_on,120,0,1,,,,,,,,,,,,,,,0,,,67,0
18360,note_on,0,0,1,,,,,,,,,,,,,,,0,,,71,68
18360,note_on,120,0,2,,,,,,,,,,,,,,,0,,,64,0
18360,note_on,0,0,2,,,,,,,,,,,,,,,0,,,55,49
18360,set_tempo,120,1,0,,,,,,,,,,,,518403,,,,,,,
18440,set_tempo,80,1,0,,,,,,,,,,,,506500,,,,,,,
18457,control_change,97,0,2,,,,,,,,,,,,,,,0,64,0,,
18480,note_on,0,0,1,,,,,,,,,,,,,,,0,,,74,74
18480,set_tempo,40,1,0,,,,,,,,,,,,495868,,,,,,,
18480,note_on,0,0,2,,,,,,,,,,,,,,,0,,,54,54
18480,note_on,23,0,2,,,,,,,,,,,,,,,0,,,55,0
18480,note_on,0,0,1,,,,,,,,,,,,,,,0,,,70,62
18480,note_on,120,0,1,,,,,,,,,,,,,,,0,,,71,0
18600,note_on,0,0,1,,,,,,,,,,,,,,,0,,,73,68
18600,note_on,0,0,1,,,,,,,,,,,,,,,0,,,70,0
18600,set_tempo,120,1,0,,,,,,,,,,,,512821,,,,,,,
18600,note_on,0,0,2,,,,,,,,,,,,,,,0,,,64,49
18600,note_on,120,0,2,,,,,,,,,,,,,,,0,,,54,0
18600,note_on,120,0,1,,,,,,,,,,,,,,,0,,,74,0
18690,note_on,90,0,2,,,,,,,,,,,,,,,0,,,64,0
18690,note_on,90,0,1,,,,,,,,,,,,,,,0,,,73,0
18720,note_on,30,0,2,,,,,,,,,,,,,,,0,,,62,58
18720,note_on,30,0,1,,,,,,,,,,,,,,,0,,,71,81
18720,set_tempo,120,1,0,,,,,,,,,,,,520879,,,,,,,
18760,set_tempo,40,1,0,,,,,,,,,,,,518403,,,,,,,
18777,control_change,57,0,2,,,,,,,,,,,,,,,0,64,127,,
18800,set_tempo,40,1,0,,,,,,,,,,,,515996,,,,,,,
18840,note_on,0,0,2,,,,,,,,,,,,,,,0,,,47,59
18840,set_tempo,40,1,0,,,,,,,,,,,,513611,,,,,,,
18840,note_on,63,0,2,,,,,,,,,,,,,,,0,,,62,0
18840,note_on,120,0,1,,,,,,,,,,,,,,,0,,,71,0
18840,note_on,0,0,1,,,,,,,,,,,,,,,0,,,66,66
18860,set_tempo,20,1,0,,,,,,,,,,,,511247,,,,,,,
18900,set_tempo,40,1,0,,,,,,,,,,,,508906,,,,,,,
18940,set_tempo,40,1,0,,,,,,,,,,,,506500,,,,,,,
18960,set_tempo,20,1,0,,,,,,,,,,,,504202,,,,,,,
18960,note_on,0,0,1,,,,,,,,,,,,,,,0,,,67,73
18960,note_on,120,0,2,,,,,,,,,,,,,,,0,,,47,0
18960,note_on,120,0,1,,,,,,,,,,,,,,,0,,,66,0
18960,note_on,0,0,2,,,,,,,,,,,,,,,0,,,52,52
19080,note_on,0,0,2,,,,,,,,,,,,,,,0,,,64,54
19080,note_on,120,0,1,,,,,,,,,,,,,,,0,,,67,0
19080,note_on,0,0,1,,,,,,,,,,,,,,,0,,,71,75
19080,set_tempo,120,1,0,,,,,,,,,,,,513611,,,,,,,
19080,note_on,120,0,2,,,,,,,,,,,,,,,0,,,52,0
19200,note_on,120,0,1,,,,,,,,,,,,,,,0,,,71,0
19200,note_on,120,0,2,,,,,,,,,,,,,,,0,,,64,0
19200,set_tempo,120,1,0,,,,,,,,,,,,495868,,,,,,,
19200,note_on,0,0,1,,,,,,,,,,,,,,,0,,,74,79
19200,note_on,0,0,1,,,,,,,,,,,,,,,0,,,70,67
19200,note_on,0,0,2,,,,,,,,,,,,,,,0,,,54,57
19206,control_change,6,0,2,,,,,,,,,,,,,,,0,64,0,,
19320,note_on,114,0,2,,,,,,,,,,,,,,,0,,,54,0
19320,note_on,120,0,1,,,,,,,,,,,,,,,0,,,74,0
19320,note_on,0,0,1,,,,,,,,,,,,,,,0,,,70,0
19320,set_tempo,120,1,0,,,,,,,,,,,,515021,,,,,,,
19320,note_on,0,0,2,,,,,,,,,,,,,,,0,,,64,54
19320,note_on,0,0,1,,,,,,,,,,,,,,,0,,,73,80
19410,note_on,90,0,1,,,,,,,,,,,,,,,0,,,73,0
19410,note_on,90,0,2,,,,,,,,,,,,,,,0,,,64,0
19420,set_tempo,100,1,0,,,,,,,,,,,,520879,,,,,,,
19440,note_on,30,0,1,,,,,,,,,,,,,,,0,,,71,88
19440,note_on,30,0,2,,,,,,,,,,,,,,,0,,,62,61
19460,set_tempo,40,1,0,,,,,,,,,,,,518403,,,,,,,
19491,control_change,51,0,2,,,,,,,,,,,,,,,0,64,127,,
19500,set_tempo,40,1,0,,,,,,,,,,,,515996,,,,,,,
19540,set_tempo,40,1,0,,,,,,,,,,,,513611,,,,,,,
19560,note_on,0,0,1,,,,,,,,,,,,,,,0,,,83,82
19560,note_on,0,0,2,,,,,,,,,,,,,,,0,,,53,54
19560,note_on,69,0,2,,,,,,,,,,,,,,,0,,,62,0
19560,note_on,120,0,1,,,,,,,,,,,,,,,0,,,71,0
19580,set_tempo,40,1,0,,,,,,,,,,,,511247,,,,,,,
19620,set_tempo,40,1,0,,,,,,,,,,,,508906,,,,,,,
19660,set_tempo,40,1,0,,,,,,,,,,,,506500,,,,,,,
19680,note_on,0,0,1,,,,,,,,,,,,,,,0,,,80,84
19680,note_on,120,0,1,,,,,,,,,,,,,,,0,,,83,0
19680,note_on,0,0,2,,,,,,,,,,,,,,,0,,,59,56
19680,note_on,120,0,2,,,,,,,,,,,,,,,0,,,53,0
19700,set_tempo,40,1,0,,,,,,,,,,,,504202,,,,,,,
19800,note_on,0,0,1,,,,,,,,,,,,,,,0,,,74,84
19800,set_tempo,100,1,0,,,,,,,,,,,,515996,,,,,,,
19800,note_on,120,0,1,,,,,,,,,,,,,,,0,,,80,0
19800,note_on,120,0,2,,,,,,,,,,,,,,,0,,,59,0
19800,note_on,0,0,2,,,,,,,,,,,,,,,0,,,68,56
19880,set_tempo,80,1,0,,,,,,,,,,,,504202,,,,,,,
19903,control_change,103,0,2,,,,,,,,,,,,,,,0,64,0,,
19920,note_on,17,0,2,,,,,,,,,,,,,,,0,,,68,0
19920,note_on,0,0,1,,,,,,,,,,,,,,,0,,,73,93
19920,note_on,120,0,1,,,,,,,,,,,,,,,0,,,74,0
19920,note_on,0,0,2,,,,,,,,,,,,,,,0,,,61,63
19940,set_tempo,60,1,0,,,,,,,,,,,,495868,,,,,,,
19971,control_change,51,0,2,,,,,,,,,,,,,,,0,64,127,,
20040,note_on,69,0,2,,,,,,,,,,,,,,,0,,,61,0
20040,note_on,0,0,2,,,,,,,,,,,,,,,0,,,62,55
20040,set_tempo,100,1,0,,,,,,,,,,,,528634,,,,,,,
20040,note_on,120,0,1,,,,,,,,,,,,,,,0,,,73,0
20040,note_on,0,0,1,,,,,,,,,,,,,,,0,,,71,86
20160,note_on,120,0,1,,,,,,,,,,,,,,,0,,,71,0
20160,note_on,0,0,1,,,,,,,,,,,,,,,0,,,69,92
20160,note_on,120,0,2,,,,,,,,,,,,,,,0,,,62,0
20160,set_tempo,120,1,0,,,,,,,,,,,,520879,,,,,,,
20160,note_on,0,0,2,,,,,,,,,,,,,,,0,,,54,62
20171,control_change,11,0,2,,,,,,,,,,,,,,,0,64,0,,
20206,control_change,35,0,2,,,,,,,,,,,,,,,0,64,127,,
20240,set_tempo,80,1,0,,,,,,,,,,,,518403,,,,,,,
20280,note_on,74,0,2,,,,,,,,,,,,,,,0,,,54,0
20280,note_on,0,0,2,,,,,,,,,,,,,,,0,,,62,44
20280,note_on,0,0,1,,,,,,,,,,,,,,,0,,,74,77
20280,note_on,120,0,1,,,,,,,,,,,,,,,0,,,69,0
20320,set_tempo,80,1,0,,,,,,,,,,,,515996,,,,,,,
20340,note_on,60,0,2,,,,,,,,,,,,,,,0,,,62,0
20340,note_on,60,0,1,,,,,,,,,,,,,,,0,,,74,0
20380,set_tempo,60,1,0,,,,,,,,,,,,513611,,,,,,,
20400,note_on,60,0,1,,,,,,,,,,,,,,,0,,,67,86
20400,note_on,60,0,2,,,,,,,,,,,,,,,0,,,58,53
20411,control_change,11,0,2,,,,,,,,,,,,,,,0,64,0,,
20451,control_change,40,0,2,,,,,,,,,,,,,,,0,64,127,,
20520,note_on,0,0,2,,,,,,,,,,,,,,,0,,,43,42
20520,note_on,69,0,2,,,,,,,,,,,,,,,0,,,58,0
20520,note_on,0,0,1,,,,,,,,,,,,,,,0,,,76,76
20520,note_on,120,0,1,,,,,,,,,,,,,,,0,,,67,0
20580,note_on,60,0,2,,,,,,,,,,,,,,,0,,,43,0
20580,note_on,60,0,1,,,,,,,,,,,,,,,0,,,76,0
20620,set_tempo,240,1,0,,,,,,,,,,,,513611,,,,,,,
20640,note_on,60,0,2,,,,,,,,,,,,,,,0,,,57,53
20640,note_on,60,0,1,,,,,,,,,,,,,,,0,,,61,83
20651,control_change,11,0,2,,,,,,,,,,,,,,,0,64,0,,
20697,control_change,46,0,2,,,,,,,,,,,,,,,0,64,127,,
20700,set_tempo,80,1,0,,,,,,,,,,,,515996,,,,,,,
20760,note_on,63,0,2,,,,,,,,,,,,,,,0,,,57,0
20760,note_on,0,0,1,,,,,,,,,,,,,,,0,,,78,75
20760,note_on,0,0,2,,,,,,,,,,,,,,,0,,,45,42
20760,note_on,120,0,1,,,,,,,,,,,,,,,0,,,61,0
20780,set_tempo,80,1,0,,,,,,,,,,,,518403,,,,,,,
20820,note_on,60,0,2,,,,,,,,,,,,,,,0,,,45,0
20820,note_on,60,0,1,,,,,,,,,,,,,,,0,,,78,0
20860,set_tempo,80,1,0,,,,,,,,,,,,520879,,,,,,,
20880,note_on,60,0,1,,,,,,,,,,,,,,,0,,,66,91
20880,note_on,60,0,2,,,,,,,,,,,,,,,0,,,38,57
20880,set_tempo,20,1,0,,,,,,,,,,,,520879,,,,,,,
20891,control_change,11,0,2,,,,,,,,,,,,,,,0,64,0,,
20926,control_change,35,0,2,,,,,,,,,,,,,,,0,64,127,,
21000,note_on,74,0,2,,,,,,,,,,,,,,,0,,,38,0
21000,note_on,0,0,2,,,,,,,,,,,,,,,0,,,57,42
21000,note_on,120,0,1,,,,,,,,,,,,,,,0,,,66,0
21000,note_on,0,0,1,,,,,,,,,,,,,,,0,,,74,73
21020,set_tempo,140,1,0,,,,,,,,,,,,518403,,,,,,,
21060,note_on,60,0,1,,,,,,,,,,,,,,,0,,,74,0
21060,note_on,60,0,2,,,,,,,,,,,,,,,0,,,57,0
21120,note_on,60,0,2,,,,,,,,,,,,,,,0,,,58,51
21120,note_on,60,0,1,,,,,,,,,,,,,,,0,,,67,80
21131,control_change,11,0,2,,,,,,,,,,,,,,,0,64,0,,
21140,set_tempo,120,1,0,,,,,,,,,,,,515996,,,,,,,
21171,control_change,40,0,2,,,,,,,,,,,,,,,0,64,127,,
21240,note_on,0,0,2,,,,,,,,,,,,,,,0,,,43,41
21240,note_on,69,0,2,,,,,,,,,,,,,,,0,,,58,0
21240,note_on,0,0,1,,,,,,,,,,,,,,,0,,,76,72
21240,note_on,120,0,1,,,,,,,,,,,,,,,0,,,67,0
21300,note_on,60,0,2,,,,,,,,,,,,,,,0,,,43,0
21300,note_on,60,0,1,,,,,,,,,,,,,,,0,,,76,0
21360,set_tempo,220,1,0,,,,,,,,,,,,515996,,,,,,,
21360,note_on,60,0,2,,,,,,,,,,,,,,,0,,,57,50
21360,note_on,60,0,1,,,,,,,,,,,,,,,0,,,61,78
21371,control_change,11,0,2,,,,,,,,,,,,,,,0,64,0,,
21400,set_tempo,40,1,0,,,,,,,,,,,,518403,,,,,,,
21417,control_change,46,0,2,,,,,,,,,,,,,,,0,64,127,,
21440,set_tempo,40,1,0,,,,,,,,,,,,520879,,,,,,,
21480,set_tempo,40,1,0,,,,,,,,,,,,523332,,,,,,,
21480,note_on,0,0,1,,,,,,,,,,,,,,,0,,,78,67
21480,note_on,0,0,2,,,,,,,,,,,,,,,0,,,45,40
21480,note_on,120,0,1,,,,,,,,,,,,,,,0,,,61,0
21480,note_on,63,0,2,,,,,,,,,,,,,,,0,,,57,0
21520,set_tempo,40,1,0,,,,,,,,,,,,525808,,,,,,,
21540,note_on,60,0,2,,,,,,,,,,,,,,,0,,,45,0
21540,note_on,60,0,1,,,,,,,,,,,,,,,0,,,78,0
21560,set_tempo,40,1,0,,,,,,,,,,,,528355,,,,,,,
21580,set_tempo,20,1,0,,,,,,,,,,,,530879,,,,,,,
21600,note_on,60,0,2,,,,,,,,,,,,,,,0,,,38,55
21600,note_on,60,0,1,,,,,,,,,,,,,,,0,,,66,78
21611,control_change,11,0,2,,,,,,,,,,,,,,,0,64,0,,
21640,set_tempo,60,1,0,,,,,,,,,,,,528355,,,,,,,
21646,control_change,35,0,2,,,,,,,,,,,,,,,0,64,127,,
21700,set_tempo,60,1,0,,,,,,,,,,,,525808,,,,,,,
21720,note_on,0,0,2,,,,,,,,,,,,,,,0,,,57,41
21720,note_on,74,0,2,,,,,,,,,,,,,,,0,,,38,0
21720,note_on,0,0,1,,,,,,,,,,,,,,,0,,,74,64
21720,note_on,120,0,1,,,,,,,,,,,,,,,0,,,66,0
21740,set_tempo,40,1,0,,,,,,,,,,,,523332,,,,,,,
21780,note_on,60,0,2,,,,,,,,,,,,,,,0,,,57,0
21780,note_on,60,0,1,,,,,,,,,,,,,,,0,,,74,0
21800,set_tempo,60,1,0,,,,,,,,,,,,520879,,,,,,,
21840,note_on,60,0,2,,,,,,,,,,,,,,,0,,,58,49
21840,note_on,60,0,1,,,,,,,,,,,,,,,0,,,67,74
21840,set_tempo,40,1,0,,,,,,,,,,,,518403,,,,,,,
21851,control_change,11,0,2,,,,,,,,,,,,,,,0,64,0,,
21891,control_change,40,0,2,,,,,,,,,,,,,,,0,64,127,,
21960,note_on,0,0,1,,,,,,,,,,,,,,,0,,,76,60
21960,note_on,69,0,2,,,,,,,,,,,,,,,0,,,58,0
21960,note_on,0,0,2,,,,,,,,,,,,,,,0,,,43,39
21960,note_on,120,0,1,,,,,,,,,,,,,,,0,,,67,0
22020,note_on,60,0,1,,,,,,,,,,,,,,,0,,,76,0
22020,note_on,60,0,2,,,,,,,,,,,,,,,0,,,43,0
22060,set_tempo,220,1,0,,,,,,,,,,,,515996,,,,,,,
22080,note_on,60,0,1,,,,,,,,,,,,,,,0,,,61,70
22080,note_on,60,0,2,,,,,,,,,,,,,,,0,,,57,46
22091,control_change,11,0,2,,,,,,,,,,,,,,,0,64,0,,
22100,set_tempo,40,1,0,,,,,,,,,,,,518403,,,,,,,
22120,set_tempo,20,1,0,,,,,,,,,,,,520879,,,,,,,
22137,control_change,46,0,2,,,,,,,,,,,,,,,0,64,127,,
22140,set_tempo,20,1,0,,,,,,,,,,,,523332,,,,,,,
22160,set_tempo,20,1,0,,,,,,,,,,,,525808,,,,,,,
22180,set_tempo,20,1,0,,,,,,,,,,,,528355,,,,,,,
22200,note_on,0,0,2,,,,,,,,,,,,,,,0,,,45,36
22200,note_on,120,0,1,,,,,,,,,,,,,,,0,,,61,0
22200,note_on,0,0,1,,,,,,,,,,,,,,,0,,,78,63
22200,note_on,63,0,2,,,,,,,,,,,,,,,0,,,57,0
22220,set_tempo,40,1,0,,,,,,,,,,,,530879,,,,,,,
22240,set_tempo,20,1,0,,,,,,,,,,,,533476,,,,,,,
22260,note_on,60,0,1,,,,,,,,,,,,,,,0,,,78,0
22260,set_tempo,20,1,0,,,,,,,,,,,,536049,,,,,,,
22260,note_on,60,0,2,,,,,,,,,,,,,,,0,,,45,0
22280,set_tempo,20,1,0,,,,,,,,,,,,538648,,,,,,,
22300,set_tempo,20,1,0,,,,,,,,,,,,541272,,,,,,,
22320,set_tempo,20,1,0,,,,,,,,,,,,560748,,,,,,,
22320,note_on,60,0,2,,,,,,,,,,,,,,,0,,,38,48
22320,note_on,60,0,1,,,,,,,,,,,,,,,0,,,66,70
22331,control_change,11,0,2,,,,,,,,,,,,,,,0,64,0,,
22360,set_tempo,40,1,0,,,,,,,,,,,,558140,,,,,,,
22366,control_change,35,0,2,,,,,,,,,,,,,,,0,64,127,,
22400,set_tempo,40,1,0,,,,,,,,,,,,555556,,,,,,,
22440,note_on,120,0,1,,,,,,,,,,,,,,,0,,,66,0
22440,note_on,0,0,1,,,,,,,,,,,,,,,0,,,74,60
22440,set_tempo,40,1,0,,,,,,,,,,,,552995,,,,,,,
22440,note_on,0,0,2,,,,,,,,,,,,,,,0,,,57,40
22440,note_on,74,0,2,,,,,,,,,,,,,,,0,,,38,0
22480,set_tempo,40,1,0,,,,,,,,,,,,545455,,,,,,,
22500,note_on,60,0,2,,,,,,,,,,,,,,,0,,,57,0
22500,note_on,60,0,1,,,,,,,,,,,,,,,0,,,74,0
22560,note_on,60,0,2,,,,,,,,,,,,,,,0,,,58,43
22560,note_on,60,0,1,,,,,,,,,,,,,,,0,,,67,62
22571,control_change,11,0,2,,,,,,,,,,,,,,,0,64,0,,
22611,control_change,40,0,2,,,,,,,,,,,,,,,0,64,127,,
22680,note_on,0,0,1,,,,,,,,,,,,,,,0,,,76,55
22680,note_on,120,0,1,,,,,,,,,,,,,,,0,,,67,0
22680,note_on,0,0,2,,,,,,,,,,,,,,,0,,,43,37
22680,note_on,69,0,2,,,,,,,,,,,,,,,0,,,58,0
22720,set_tempo,240,1,0,,,,,,,,,,,,542986,,,,,,,
22740,note_on,60,0,1,,,,,,,,,,,,,,,0,,,76,0
22740,note_on,60,0,2,,,,,,,,,,,,,,,0,,,43,0
22760,set_tempo,40,1,0,,,,,,,,,,,,545455,,,,,,,
22800,note_on,60,0,2,,,,,,,,,,,,,,,0,,,57,42
22800,set_tempo,40,1,0,,,,,,,,,,,,547945,,,,,,,
22800,note_on,60,0,1,,,,,,,,,,,,,,,0,,,61,57
22811,control_change,11,0,2,,,,,,,,,,,,,,,0,64,0,,
22840,set_tempo,40,1,0,,,,,,,,,,,,550459,,,,,,,
22857,control_change,46,0,2,,,,,,,,,,,,,,,0,64,127,,
22880,set_tempo,40,1,0,,,,,,,,,,,,552995,,,,,,,
22920,note_on,63,0,2,,,,,,,,,,,,,,,0,,,57,0
22920,set_tempo,40,1,0,,,,,,,,,,,,555556,,,,,,,
22920,note_on,0,0,1,,,,,,,,,,,,,,,0,,,78,50
22920,note_on,120,0,1,,,,,,,,,,,,,,,0,,,61,0
22920,note_on,0,0,2,,,,,,,,,,,,,,,0,,,45,34
22960,set_tempo,40,1,0,,,,,,,,,,,,558140,,,,,,,
22980,note_on,60,0,2,,,,,,,,,,,,,,,0,,,45,0
22980,note_on,60,0,1,,,,,,,,,,,,,,,0,,,78,0
23000,set_tempo,40,1,0,,,,,,,,,,,,563380,,,,,,,
23040,set_tempo,40,1,0,,,,,,,,,,,,564493,,,,,,,
23040,note_on,60,0,2,,,,,,,,,,,,,,,0,,,38,39
23040,note_on,60,0,1,,,,,,,,,,,,,,,0,,,66,53
23160,note_on,120,0,2,,,,,,,,,,,,,,,0,,,38,0
23160,note_on,120,0,1,,,,,,,,,,,,,,,0,,,66,0
23160,note_on,0,0,2,,,,,,,,,,,,,,,0,,,45,39
23160,note_on,0,0,1,,,,,,,,,,,,,,,0,,,74,47
23195,control_change,35,0,2,,,,,,,,,,,,,,,0,64,0,,
23240,control_change,45,0,2,,,,,,,,,,,,,,,0,64,127,,
23280,note_on,120,0,1,,,,,,,,,,,,,,,0,,,74,0
23280,set_tempo,240,1,0,,,,,,,,,,,,542790,,,,,,,
23280,note_on,40,0,2,,,,,,,,,,,,,,,0,,,45,0
23280,note_on,0,0,2,,,,,,,,,,,,,,,0,,,57,44
23280,note_on,0,0,1,,,,,,,,,,,,,,,0,,,62,35
23380,set_tempo,100,1,0,,,,,,,,,,,,540200,,,,,,,
23400,note_on,0,0,1,,,,,,,,,,,,,,,0,,,70,57
23400,note_on,120,0,1,,,,,,,,,,,,,,,0,,,62,0
23400,note_on,0,0,2,,,,,,,,,,,,,,,0,,,45,39
23400,note_on,120,0,2,,,,,,,,,,,,,,,0,,,57,0
23480,set_tempo,100,1,0,,,,,,,,,,,,537634,,,,,,,
23520,note_on,120,0,2,,,,,,,,,,,,,,,0,,,45,0
23520,note_on,0,0,2,,,,,,,,,,,,,,,0,,,38,41
23520,note_on,120,0,1,,,,,,,,,,,,,,,0,,,76,49
23560,set_tempo,80,1,0,,,,,,,,,,,,535093,,,,,,,
23640,note_on,0,0,1,,,,,,,,,,,,,,,0,,,70,0
23640,note_on,0,0,2,,,,,,,,,,,,,,,0,,,45,36
23640,note_on,120,0,2,,,,,,,,,,,,,,,0,,,38,0
23640,note_on,0,0,1,,,,,,,,,,,,,,,0,,,69,50
23640,note_on,120,0,1,,,,,,,,,,,,,,,0,,,76,0
23660,set_tempo,100,1,0,,,,,,,,,,,,532576,,,,,,,
23740,set_tempo,80,1,0,,,,,,,,,,,,530035,,,,,,,
23760,note_on,120,0,2,,,,,,,,,,,,,,,0,,,45,0
23760,note_on,0,0,2,,,,,,,,,,,,,,,0,,,57,47
23760,note_on,120,0,1,,,,,,,,,,,,,,,0,,,69,0
23760,set_tempo,20,1,0,,,,,,,,,,,,508561,,,,,,,
23760,note_on,0,0,1,,,,,,,,,,,,,,,0,,,62,44
23880,note_on,0,0,1,,,,,,,,,,,,,,,0,,,67,63
23880,note_on,120,0,1,,,,,,,,,,,,,,,0,,,62,0
23880,note_on,0,0,2,,,,,,,,,,,,,,,0,,,45,40
23880,note_on,120,0,2,,,,,,,,,,,,,,,0,,,57,0
23884,control_change,4,0,2,,,,,,,,,,,,,,,0,64,0,,
23908,control_change,24,0,2,,,,,,,,,,,,,,,0,64,127,,
24000,note_on,92,0,2,,,,,,,,,,,,,,,0,,,45,0
24000,set_tempo,240,1,0,,,,,,,,,,,,504032,,,,,,,
24000,note_on,0,0,2,,,,,,,,,,,,,,,0,,,38,46
24000,note_on,120,0,1,,,,,,,,,,,,,,,0,,,74,50
24060,note_on,60,0,2,,,,,,,,,,,,,,,0,,,38,0
24060,note_on,60,0,1,,,,,,,,,,,,,,,0,,,74,0
24100,set_tempo,100,1,0,,,,,,,,,,,,501798,,,,,,,
24120,note_on,60,0,2,,,,,,,,,,,,,,,0,,,45,42
24120,note_on,60,0,1,,,,,,,,,,,,,,,0,,,67,0
24120,note_on,0,0,1,,,,,,,,,,,,,,,0,,,66,58
24200,set_tempo,100,1,0,,,,,,,,,,,,499542,,,,,,,
24240,note_on,120,0,1,,,,,,,,,,,,,,,0,,,66,0
24240,set_tempo,40,1,0,,,,,,,,,,,,512821,,,,,,,
24240,note_on,0,0,1,,,,,,,,,,,,,,,0,,,62,56
24240,note_on,0,0,2,,,,,,,,,,,,,,,0,,,57,51
24240,note_on,120,0,2,,,,,,,,,,,,,,,0,,,45,0
24360,note_on,0,0,1,,,,,,,,,,,,,,,0,,,70,67
24360,note_on,0,0,2,,,,,,,,,,,,,,,0,,,45,40
24360,note_on,120,0,2,,,,,,,,,,,,,,,0,,,57,0
24360,note_on,120,0,1,,,,,,,,,,,,,,,0,,,62,0
24360,set_tempo,120,1,0,,,,,,,,,,,,495868,,,,,,,
24371,control_change,11,0,2,,,,,,,,,,,,,,,0,64,0,,
24380,set_tempo,20,1,0,,,,,,,,,,,,495172,,,,,,,
24406,control_change,35,0,2,,,,,,,,,,,,,,,0,64,127,,
24420,set_tempo,40,1,0,,,,,,,,,,,,497347,,,,,,,
24460,set_tempo,40,1,0,,,,,,,,,,,,495172,,,,,,,
24480,note_on,120,0,1,,,,,,,,,,,,,,,0,,,74,56
24480,note_on,74,0,2,,,,,,,,,,,,,,,0,,,45,0
24480,note_on,0,0,2,,,,,,,,,,,,,,,0,,,38,50
24540,note_on,60,0,1,,,,,,,,,,,,,,,0,,,74,0
24600,note_on,0,0,2,,,,,,,,,,,,,,,0,,,45,43
24600,note_on,60,0,1,,,,,,,,,,,,,,,0,,,70,0
24600,note_on,0,0,1,,,,,,,,,,,,,,,0,,,69,63
24600,note_on,120,0,2,,,,,,,,,,,,,,,0,,,38,0
24660,note_on,60,0,2,,,,,,,,,,,,,,,0,,,45,0
24720,note_on,60,0,2,,,,,,,,,,,,,,,0,,,57,53
24720,note_on,120,0,1,,,,,,,,,,,,,,,0,,,69,0
24720,note_on,0,0,1,,,,,,,,,,,,,,,0,,,62,62
24840,note_on,0,0,2,,,,,,,,,,,,,,,0,,,45,46
24840,note_on,120,0,1,,,,,,,,,,,,,,,0,,,62,0
24840,note_on,0,0,1,,,,,,,,,,,,,,,0,,,67,75
24840,note_on,120,0,2,,,,,,,,,,,,,,,0,,,57,0
24844,control_change,4,0,2,,,,,,,,,,,,,,,0,64,0,,
24868,control_change,24,0,2,,,,,,,,,,,,,,,0,64,127,,
24960,note_on,120,0,1,,,,,,,,,,,,,,,0,,,74,60
24960,note_on,0,0,2,,,,,,,,,,,,,,,0,,,38,53
24960,note_on,92,0,2,,,,,,,,,,,,,,,0,,,45,0
25020,note_on,60,0,2,,,,,,,,,,,,,,,0,,,38,0
25020,note_on,60,0,1,,,,,,,,,,,,,,,0,,,74,0
25080,note_on,0,0,1,,,,,,,,,,,,,,,0,,,66,67
25080,note_on,60,0,1,,,,,,,,,,,,,,,0,,,67,0
25080,note_on,60,0,2,,,,,,,,,,,,,,,0,,,45,48
25140,set_tempo,680,1,0,,,,,,,,,,,,499542,,,,,,,
25180,set_tempo,40,1,0,,,,,,,,,,,,501798,,,,,,,
25200,set_tempo,20,1,0,,,,,,,,,,,,493016,,,,,,,
25200,note_on,0,0,1,,,,,,,,,,,,,,,0,,,62,72
25200,note_on,120,0,1,,,,,,,,,,,,,,,0,,,66,0
25200,note_on,0,0,2,,,,,,,,,,,,,,,0,,,57,56
25200,note_on,120,0,2,,,,,,,,,,,,,,,0,,,45,0
25240,set_tempo,40,1,0,,,,,,,,,,,,495172,,,,,,,
25280,set_tempo,40,1,0,,,,,,,,,,,,497347,,,,,,,
25313,control_change,113,0,2,,,,,,,,,,,,,,,0,64,0,,
25320,note_on,0,0,1,,,,,,,,,,,,,,,0,,,70,81
25320,note_on,120,0,1,,,,,,,,,,,,,,,0,,,62,0
25320,note_on,7,0,2,,,,,,,,,,,,,,,0,,,57,0
25320,note_on,0,0,2,,,,,,,,,,,,,,,0,,,45,47
25320,set_tempo,40,1,0,,,,,,,,,,,,499542,,,,,,,
25340,set_tempo,20,1,0,,,,,,,,,,,,501798,,,,,,,
25341,control_change,21,0,2,,,,,,,,,,,,,,,0,64,127,,
25380,set_tempo,40,1,0,,,,,,,,,,,,504032,,,,,,,
25420,set_tempo,40,1,0,,,,,,,,,,,,506286,,,,,,,
25440,note_on,0,0,2,,,,,,,,,,,,,,,0,,,38,51
25440,note_on,99,0,2,,,,,,,,,,,,,,,0,,,45,0
25440,note_on,120,0,1,,,,,,,,,,,,,,,0,,,74,73
25460,set_tempo,40,1,0,,,,,,,,,,,,508561,,,,,,,
25480,set_tempo,20,1,0,,,,,,,,,,,,510856,,,,,,,
25500,note_on,60,0,2,,,,,,,,,,,,,,,0,,,38,0
25500,note_on,60,0,1,,,,,,,,,,,,,,,0,,,74,0
25520,set_tempo,40,1,0,,,,,,,,,,,,513171,,,,,,,
25560,note_on,60,0,2,,,,,,,,,,,,,,,0,,,45,42
25560,note_on,0,0,1,,,,,,,,,,,,,,,0,,,69,80
25560,note_on,60,0,1,,,,,,,,,,,,,,,0,,,70,0
25560,set_tempo,40,1,0,,,,,,,,,,,,515553,,,,,,,
25580,set_tempo,20,1,0,,,,,,,,,,,,517911,,,,,,,
25620,set_tempo,40,1,0,,,,,,,,,,,,520291,,,,,,,
25660,set_tempo,40,1,0,,,,,,,,,,,,522694,,,,,,,
25680,note_on,120,0,1,,,,,,,,,,,,,,,0,,,69,0
25680,note_on,0,0,2,,,,,,,,,,,,,,,0,,,57,51
25680,note_on,120,0,2,,,,,,,,,,,,,,,0,,,45,0
25680,note_on,0,0,1,,,,,,,,,,,,,,,0,,,62,79
25687,control_change,7,0,2,,,,,,,,,,,,,,,0,64,0,,
25700,set_tempo,40,1,0,,,,,,,,,,,,525118,,,,,,,
25712,control_change,25,0,2,,,,,,,,,,,,,,,0,64,127,,
25720,set_tempo,20,1,0,,,,,,,,,,,,527565,,,,,,,
25800,note_on,0,0,1,,,,,,,,,,,,,,,0,,,74,92
25800,note_on,88,0,2,,,,,,,,,,,,,,,0,,,57,0
25800,note_on,0,0,2,,,,,,,,,,,,,,,0,,,45,48
25800,note_on,120,0,1,,,,,,,,,,,,,,,0,,,62,0
25800,set_tempo,80,1,0,,,,,,,,,,,,576923,,,,,,,
25920,set_tempo,120,1,0,,,,,,,,,,,,538117,,,,,,,
25920,note_on,120,0,1,,,,,,,,,,,,,,,0,,,74,0
25920,note_on,0,0,1,,,,,,,,,,,,,,,0,,,90,99
25920,note_on,0,0,2,,,,,,,,,,,,,,,0,,,38,58
25920,note_on,120,0,2,,,,,,,,,,,,,,,0,,,45,0
26040,note_on,120,0,2,,,,,,,,,,,,,,,0,,,38,0
26040,note_on,120,0,1,,,,,,,,,,,,,,,0,,,90,0
26135,control_change,95,0,2,,,,,,,,,,,,,,,0,64,0,,
26490,note_on,355,0,2,,,,,,,,,,,,,,,0,,,45,44
26520,note_on,30,0,2,,,,,,,,,,,,,,,0,,,52,49
26531,control_change,11,0,2,,,,,,,,,,,,,,,0,64,127,,
26550,note_on,19,0,2,,,,,,,,,,,,,,,0,,,61,58
26580,note_on,540,0,1,,,,,,,,,,,,,,,0,,,67,76
26610,note_on,30,0,1,,,,,,,,,,,,,,,0,,,76,82
26640,note_on,30,0,1,,,,,,,,,,,,,,,0,,,81,89
26700,note_on,0,0,2,,,,,,,,,,,,,,,0,,,45,0
26700,note_on,150,0,2,,,,,,,,,,,,,,,0,,,61,0
26700,note_on,0,0,2,,,,,,,,,,,,,,,0,,,52,0
26760,note_on,0,0,1,,,,,,,,,,,,,,,0,,,67,0
26760,note_on,120,0,1,,,,,,,,,,,,,,,0,,,81,0
26760,note_on,0,0,1,,,,,,,,,,,,,,,0,,,76,0
26929,control_change,229,0,2,,,,,,,,,,,,,,,0,64,0,,
27300,control_change,371,0,2,,,,,,,,,,,,,,,0,64,127,,
27300,note_on,0,0,2,,,,,,,,,,,,,,,0,,,38,56
27360,note_on,0,0,2,,,,,,,,,,,,,,,0,,,62,58
27360,note_on,0,0,2,,,,,,,,,,,,,,,0,,,57,49
27360,note_on,0,0,2,,,,,,,,,,,,,,,0,,,50,49
27360,note_on,60,0,2,,,,,,,,,,,,,,,0,,,38,0
27360,note_on,0,0,1,,,,,,,,,,,,,,,0,,,78,97
27360,note_on,0,0,1,,,,,,,,,,,,,,,0,,,74,82
27360,note_on,600,0,1,,,,,,,,,,,,,,,0,,,66,82
27420,note_on,0,0,2,,,,,,,,,,,,,,,0,,,50,0
27420,note_on,0,0,2,,,,,,,,,,,,,,,0,,,57,0
27420,note_on,60,0,2,,,,,,,,,,,,,,,0,,,62,0
27480,note_on,0,0,1,,,,,,,,,,,,,,,0,,,74,0
27480,note_on,120,0,1,,,,,,,,,,,,,,,0,,,78,0
27480,note_on,0,0,1,,,,,,,,,,,,,,,0,,,66,0
27480,end_of_track,0,1,1,,,,,,,,,,,,,,,,,,,
27688,control_change,268,0,2,,,,,,,,,,,,,,,0,64,0,,
27688,end_of_track,0,1,2,,,,,,,,,,,,,,,,,,,
28080,set_tempo,2160,1,0,,,,,,,,,,,,600000,,,,,,,
28080,end_of_track,0,1,0,,,,,,,,,,,,,,,,,,,
