tick,type,time,meta,track,frame_rate,hours,minutes,seconds,frames,sub_frames,numerator,denominator,clocks_per_click,notated_32nd_notes_per_beat,key,tempo,port,program,channel,control,value,note,velocity
0,track_name,0,1,0,,,,,,,,,,,,,,,,,,,
0,midi_port,0,1,3,,,,,,,,,,,,,0,,,,,,
0,note_on,0,0,2,,,,,,,,,,,,,,,0,,,61,77
0,control_change,0,0,2,,,,,,,,,,,,,,,0,91,127,,
0,control_change,0,0,2,,,,,,,,,,,,,,,0,10,64,,
0,control_change,0,0,2,,,,,,,,,,,,,,,0,7,100,,
0,program_change,0,0,2,,,,,,,,,,,,,,0,0,,,,
0,track_name,0,1,2,,,,,,,,,,,,,,,,,,,
0,midi_port,0,1,2,,,,,,,,,,,,,0,,,,,,
0,track_name,0,1,8,,,,,,,,,,,,,,,,,,,
0,text,0,1,1,,,,,,,,,,,,,,,,,,,
0,control_change,0,0,1,,,,,,,,,,,,,,,0,91,127,,
0,control_change,0,0,1,,,,,,,,,,,,,,,0,91,127,,
0,control_change,0,0,1,,,,,,,,,,,,,,,0,10,64,,
0,control_change,0,0,1,,,,,,,,,,,,,,,0,7,100,,
0,program_change,0,0,1,,,,,,,,,,,,,,0,0,,,,
0,track_name,0,1,3,,,,,,,,,,,,,,,,,,,
0,program_change,0,0,3,,,,,,,,,,,,,,0,0,,,,
0,control_change,0,0,3,,,,,,,,,,,,,,,0,7,100,,
0,control_change,0,0,3,,,,,,,,,,,,,,,0,10,64,,
0,midi_port,0,1,8,,,,,,,,,,,,,0,,,,,,
0,end_of_track,0,1,7,,,,,,,,,,,,,,,,,,,
0,track_name,0,1,7,,,,,,,,,,,,,,,,,,,
0,midi_port,0,1,7,,,,,,,,,,,,,0,,,,,,
0,end_of_track,0,1,6,,,,,,,,,,,,,,,,,,,
0,track_name,0,1,6,,,,,,,,,,,,,,,,,,,
0,midi_port,0,1,6,,,,,,,,,,,,,0,,,,,,
0,track_name,0,1,1,,,,,,,,,,,,,,,,,,,
0,end_of_track,0,1,5,,,,,,,,,,,,,,,,,,,
0,midi_port,0,1,5,,,,,,,,,,,,,0,,,,,,
0,end_of_track,0,1,4,,,,,,,,,,,,,,,,,,,
0,track_name,0,1,4,,,,,,,,,,,,,,,,,,,
0,midi_port,0,1,4,,,,,,,,,,,,,0,,,,,,
0,note_on,0,0,3,,,,,,,,,,,,,,,0,,,57,44
0,control_change,0,0,3,,,,,,,,,,,,,,,0,91,127,,
0,control_change,0,0,3,,,,,,,,,,,,,,,0,64,127,,
0,track_name,0,1,5,,,,,,,,,,,,,,,,,,,
0,midi_port,0,1,1,,,,,,,,,,,,,0,,,,,,
0,end_of_track,0,1,8,,,,,,,,,,,,,,,,,,,
0,copyright,0,1,0,,,,,,,,,,,,,,,,,,,
0,set_tempo,0,1,0,,,,,,,,,,,,666667,,,,,,,
0,key_signature,0,1,0,,,,,,,,,,,A,,,,,,,,
0,time_signature,0,1,0,,,,,,,4,4,24,8,,,,,,,,,
0,text,0,1,0,,,,,,,,,,,,,,,,,,,
0,text,0,1,0,,,,,,,,,,,,,,,,,,,
0,smpte_offset,0,1,0,25,32,0,3,0,0,,,,,,,,,,,,,
0,text,0,1,0,,,,,,,,,,,,,,,,,,,
0,text,0,1,0,,,,,,,,,,,,,,,,,,,
0,text,0,1,0,,,,,,,,,,,,,,,,,,,
0,text,0,1,0,,,,,,,,,,,,,,,,,,,
0,text,0,1,0,,,,,,,,,,,,,,,,,,,
0,text,0,1,0,,,,,,,,,,,,,,,,,,,
60,note_on,60,0,1,,,,,,,,,,,,,,,0,,,73,53
80,note_on,0,0,3,,,,,,,,,,,,,,,0,,,49,37
80,note_on,80,0,3,,,,,,,,,,,,,,,0,,,57,0
80,set_tempo,80,1,0,,,,,,,,,,,,662983,,,,,,,
120,note_on,60,0,1,,,,,,,,,,,,,,,0,,,73,0
120,note_on,0,0,1,,,,,,,,,,,,,,,0,,,68,61
140,set_tempo,60,1,0,,,,,,,,,,,,659341,,,,,,,
160,note_on,80,0,3,,,,,,,,,,,,,,,0,,,49,0
160,note_on,0,0,3,,,,,,,,,,,,,,,0,,,54,39
180,note_on,60,0,1,,,,,,,,,,,,,,,0,,,68,0
180,note_on,0,0,1,,,,,,,,,,,,,,,0,,,71,51
220,set_tempo,80,1,0,,,,,,,,,,,,655738,,,,,,,
240,note_on,0,0,1,,,,,,,,,,,,,,,0,,,69,55
240,note_on,80,0,3,,,,,,,,,,,,,,,0,,,54,0
240,note_on,60,0,1,,,,,,,,,,,,,,,0,,,71,0
240,note_on,0,0,3,,,,,,,,,,,,,,,0,,,42,34
280,set_tempo,60,1,0,,,,,,,,,,,,652174,,,,,,,
300,note_on,60,0,1,,,,,,,,,,,,,,,0,,,69,0
300,note_on,0,0,1,,,,,,,,,,,,,,,0,,,66,46
360,set_tempo,80,1,0,,,,,,,,,,,,648649,,,,,,,
360,note_on,60,0,1,,,,,,,,,,,,,,,0,,,66,0
360,note_on,0,0,2,,,,,,,,,,,,,,,0,,,62,59
360,note_on,360,0,2,,,,,,,,,,,,,,,0,,,61,0
420,note_on,60,0,1,,,,,,,,,,,,,,,0,,,74,48
420,set_tempo,60,1,0,,,,,,,,,,,,645161,,,,,,,
436,control_change,196,0,3,,,,,,,,,,,,,,,0,64,0,,
456,control_change,20,0,3,,,,,,,,,,,,,,,0,64,127,,
480,note_on,0,0,3,,,,,,,,,,,,,,,0,,,57,47
480,note_on,24,0,3,,,,,,,,,,,,,,,0,,,42,0
480,note_on,0,0,2,,,,,,,,,,,,,,,0,,,61,73
480,note_on,120,0,2,,,,,,,,,,,,,,,0,,,62,0
480,note_on,60,0,1,,,,,,,,,,,,,,,0,,,74,0
480,set_tempo,60,1,0,,,,,,,,,,,,641711,,,,,,,
540,note_on,60,0,1,,,,,,,,,,,,,,,0,,,73,50
560,note_on,80,0,3,,,,,,,,,,,,,,,0,,,57,0
560,set_tempo,80,1,0,,,,,,,,,,,,638298,,,,,,,
560,note_on,0,0,3,,,,,,,,,,,,,,,0,,,49,40
600,note_on,60,0,1,,,,,,,,,,,,,,,0,,,73,0
600,note_on,0,0,1,,,,,,,,,,,,,,,0,,,68,63
620,set_tempo,60,1,0,,,,,,,,,,,,634921,,,,,,,
640,note_on,0,0,3,,,,,,,,,,,,,,,0,,,54,44
640,note_on,80,0,3,,,,,,,,,,,,,,,0,,,49,0
660,note_on,0,0,1,,,,,,,,,,,,,,,0,,,71,53
660,note_on,60,0,1,,,,,,,,,,,,,,,0,,,68,0
700,set_tempo,80,1,0,,,,,,,,,,,,631579,,,,,,,
720,note_on,80,0,3,,,,,,,,,,,,,,,0,,,54,0
720,note_on,0,0,3,,,,,,,,,,,,,,,0,,,45,37
720,note_on,60,0,1,,,,,,,,,,,,,,,0,,,71,0
720,note_on,0,0,1,,,,,,,,,,,,,,,0,,,69,57
760,set_tempo,60,1,0,,,,,,,,,,,,628272,,,,,,,
780,note_on,60,0,1,,,,,,,,,,,,,,,0,,,69,0
780,note_on,0,0,1,,,,,,,,,,,,,,,0,,,68,44
840,set_tempo,80,1,0,,,,,,,,,,,,625000,,,,,,,
840,note_on,0,0,2,,,,,,,,,,,,,,,0,,,66,74
840,note_on,360,0,2,,,,,,,,,,,,,,,0,,,61,0
840,note_on,60,0,1,,,,,,,,,,,,,,,0,,,68,0
900,note_on,60,0,1,,,,,,,,,,,,,,,0,,,78,53
900,set_tempo,60,1,0,,,,,,,,,,,,621762,,,,,,,
944,control_change,224,0,3,,,,,,,,,,,,,,,0,64,0,,
960,note_on,60,0,1,,,,,,,,,,,,,,,0,,,78,0
960,note_on,0,0,3,,,,,,,,,,,,,,,0,,,62,57
960,note_on,16,0,3,,,,,,,,,,,,,,,0,,,45,0
960,set_tempo,60,1,0,,,,,,,,,,,,615385,,,,,,,
960,note_on,0,0,2,,,,,,,,,,,,,,,0,,,66,89
960,note_on,120,0,2,,,,,,,,,,,,,,,0,,,66,0
964,control_change,4,0,3,,,,,,,,,,,,,,,0,64,127,,
1020,note_on,60,0,1,,,,,,,,,,,,,,,0,,,78,53
1040,note_on,0,0,3,,,,,,,,,,,,,,,0,,,56,49
1040,note_on,76,0,3,,,,,,,,,,,,,,,0,,,62,0
1060,set_tempo,100,1,0,,,,,,,,,,,,618557,,,,,,,
1080,note_on,0,0,1,,,,,,,,,,,,,,,0,,,70,64
1080,note_on,60,0,1,,,,,,,,,,,,,,,0,,,78,0
1120,note_on,80,0,3,,,,,,,,,,,,,,,0,,,56,0
1120,note_on,0,0,3,,,,,,,,,,,,,,,0,,,59,52
1140,note_on,60,0,1,,,,,,,,,,,,,,,0,,,70,0
1140,note_on,0,0,1,,,,,,,,,,,,,,,0,,,73,52
1160,set_tempo,100,1,0,,,,,,,,,,,,621762,,,,,,,
1200,note_on,80,0,3,,,,,,,,,,,,,,,0,,,59,0
1200,note_on,0,0,1,,,,,,,,,,,,,,,0,,,71,58
1200,note_on,0,0,3,,,,,,,,,,,,,,,0,,,50,45
1200,note_on,60,0,1,,,,,,,,,,,,,,,0,,,73,0
1240,set_tempo,80,1,0,,,,,,,,,,,,625000,,,,,,,
1260,note_on,60,0,1,,,,,,,,,,,,,,,0,,,71,0
1260,note_on,0,0,1,,,,,,,,,,,,,,,0,,,68,46
1320,note_on,360,0,2,,,,,,,,,,,,,,,0,,,66,0
1320,note_on,60,0,1,,,,,,,,,,,,,,,0,,,68,0
1320,note_on,0,0,2,,,,,,,,,,,,,,,0,,,65,62
1340,set_tempo,100,1,0,,,,,,,,,,,,628272,,,,,,,
1380,note_on,60,0,1,,,,,,,,,,,,,,,0,,,77,50
1396,control_change,196,0,3,,,,,,,,,,,,,,,0,64,0,,
1400,set_tempo,60,1,0,,,,,,,,,,,,631579,,,,,,,
1432,control_change,36,0,3,,,,,,,,,,,,,,,0,64,127,,
1440,note_on,8,0,3,,,,,,,,,,,,,,,0,,,50,0
1440,note_on,0,0,3,,,,,,,,,,,,,,,0,,,61,53
1440,note_on,120,0,2,,,,,,,,,,,,,,,0,,,65,0
1440,note_on,60,0,1,,,,,,,,,,,,,,,0,,,77,0
1440,note_on,0,0,2,,,,,,,,,,,,,,,0,,,69,82
1480,set_tempo,80,1,0,,,,,,,,,,,,634921,,,,,,,
1500,note_on,60,0,1,,,,,,,,,,,,,,,0,,,81,45
1520,note_on,80,0,3,,,,,,,,,,,,,,,0,,,61,0
1520,note_on,0,0,3,,,,,,,,,,,,,,,0,,,53,42
1540,set_tempo,60,1,0,,,,,,,,,,,,638298,,,,,,,
1560,note_on,60,0,1,,,,,,,,,,,,,,,0,,,81,0
1560,note_on,0,0,1,,,,,,,,,,,,,,,0,,,72,60
1600,set_tempo,60,1,0,,,,,,,,,,,,641711,,,,,,,
1600,note_on,80,0,3,,,,,,,,,,,,,,,0,,,53,0
1600,note_on,0,0,3,,,,,,,,,,,,,,,0,,,59,50
1620,note_on,60,0,1,,,,,,,,,,,,,,,0,,,72,0
1620,note_on,0,0,1,,,,,,,,,,,,,,,0,,,74,45
1660,set_tempo,60,1,0,,,,,,,,,,,,645161,,,,,,,
1680,note_on,0,0,1,,,,,,,,,,,,,,,0,,,73,52
1680,note_on,0,0,3,,,,,,,,,,,,,,,0,,,49,39
1680,note_on,80,0,3,,,,,,,,,,,,,,,0,,,59,0
1680,note_on,60,0,1,,,,,,,,,,,,,,,0,,,74,0
1720,set_tempo,60,1,0,,,,,,,,,,,,648649,,,,,,,
1740,note_on,60,0,1,,,,,,,,,,,,,,,0,,,73,0
1740,note_on,0,0,1,,,,,,,,,,,,,,,0,,,71,44
1780,set_tempo,60,1,0,,,,,,,,,,,,652174,,,,,,,
1800,note_on,60,0,1,,,,,,,,,,,,,,,0,,,71,0
1800,note_on,0,0,2,,,,,,,,,,,,,,,0,,,68,52
1800,note_on,360,0,2,,,,,,,,,,,,,,,0,,,69,0
1840,set_tempo,60,1,0,,,,,,,,,,,,655738,,,,,,,
1860,note_on,60,0,1,,,,,,,,,,,,,,,0,,,80,48
1888,control_change,208,0,3,,,,,,,,,,,,,,,0,64,0,,
1900,set_tempo,60,1,0,,,,,,,,,,,,638298,,,,,,,
1920,note_on,0,0,3,,,,,,,,,,,,,,,0,,,57,53
1920,note_on,60,0,1,,,,,,,,,,,,,,,0,,,80,0
1920,note_on,32,0,3,,,,,,,,,,,,,,,0,,,49,0
1920,note_on,0,0,2,,,,,,,,,,,,,,,0,,,61,80
1920,note_on,120,0,2,,,,,,,,,,,,,,,0,,,68,0
1924,control_change,4,0,3,,,,,,,,,,,,,,,0,64,127,,
1980,note_on,60,0,1,,,,,,,,,,,,,,,0,,,73,56
2000,note_on,76,0,3,,,,,,,,,,,,,,,0,,,57,0
2000,note_on,0,0,3,,,,,,,,,,,,,,,0,,,49,39
2040,note_on,0,0,1,,,,,,,,,,,,,,,0,,,68,65
2040,note_on,60,0,1,,,,,,,,,,,,,,,0,,,73,0
2040,set_tempo,140,1,0,,,,,,,,,,,,634921,,,,,,,
2080,note_on,80,0,3,,,,,,,,,,,,,,,0,,,49,0
2080,note_on,0,0,3,,,,,,,,,,,,,,,0,,,54,48
2100,note_on,60,0,1,,,,,,,,,,,,,,,0,,,68,0
2100,note_on,0,0,1,,,,,,,,,,,,,,,0,,,71,44
2160,set_tempo,120,1,0,,,,,,,,,,,,631579,,,,,,,
2160,note_on,60,0,1,,,,,,,,,,,,,,,0,,,71,0
2160,note_on,0,0,1,,,,,,,,,,,,,,,0,,,69,56
2160,note_on,80,0,3,,,,,,,,,,,,,,,0,,,54,0
2160,note_on,0,0,3,,,,,,,,,,,,,,,0,,,42,36
2220,note_on,0,0,1,,,,,,,,,,,,,,,0,,,66,45
2220,note_on,60,0,1,,,,,,,,,,,,,,,0,,,69,0
2280,set_tempo,120,1,0,,,,,,,,,,,,628272,,,,,,,
2280,note_on,60,0,1,,,,,,,,,,,,,,,0,,,66,0
2280,note_on,0,0,2,,,,,,,,,,,,,,,0,,,62,52
2280,note_on,360,0,2,,,,,,,,,,,,,,,0,,,61,0
2340,note_on,60,0,1,,,,,,,,,,,,,,,0,,,74,48
2364,control_change,204,0,3,,,,,,,,,,,,,,,0,64,0,,
2400,note_on,0,0,2,,,,,,,,,,,,,,,0,,,61,75
2400,note_on,60,0,1,,,,,,,,,,,,,,,0,,,74,0
2400,set_tempo,120,1,0,,,,,,,,,,,,625000,,,,,,,
2400,note_on,0,0,3,,,,,,,,,,,,,,,0,,,57,51
2400,note_on,36,0,3,,,,,,,,,,,,,,,0,,,42,0
2400,note_on,120,0,2,,,,,,,,,,,,,,,0,,,62,0
2404,control_change,4,0,3,,,,,,,,,,,,,,,0,64,127,,
2460,note_on,60,0,1,,,,,,,,,,,,,,,0,,,73,53
2480,note_on,76,0,3,,,,,,,,,,,,,,,0,,,57,0
2480,note_on,0,0,3,,,,,,,,,,,,,,,0,,,49,38
2520,set_tempo,120,1,0,,,,,,,,,,,,621762,,,,,,,
2520,note_on,0,0,1,,,,,,,,,,,,,,,0,,,68,65
2520,note_on,60,0,1,,,,,,,,,,,,,,,0,,,73,0
2560,note_on,0,0,3,,,,,,,,,,,,,,,0,,,54,46
2560,note_on,80,0,3,,,,,,,,,,,,,,,0,,,49,0
2580,note_on,0,0,1,,,,,,,,,,,,,,,0,,,71,52
2580,note_on,60,0,1,,,,,,,,,,,,,,,0,,,68,0
2640,set_tempo,120,1,0,,,,,,,,,,,,618557,,,,,,,
2640,note_on,80,0,3,,,,,,,,,,,,,,,0,,,54,0
2640,note_on,0,0,3,,,,,,,,,,,,,,,0,,,45,36
2640,note_on,60,0,1,,,,,,,,,,,,,,,0,,,71,0
2640,note_on,0,0,1,,,,,,,,,,,,,,,0,,,69,59
2700,note_on,60,0,1,,,,,,,,,,,,,,,0,,,69,0
2700,note_on,0,0,1,,,,,,,,,,,,,,,0,,,68,52
2760,set_tempo,120,1,0,,,,,,,,,,,,615385,,,,,,,
2760,note_on,60,0,1,,,,,,,,,,,,,,,0,,,68,0
2760,note_on,360,0,2,,,,,,,,,,,,,,,0,,,61,0
2760,note_on,0,0,2,,,,,,,,,,,,,,,0,,,66,73
2820,note_on,60,0,1,,,,,,,,,,,,,,,0,,,78,52
2856,control_change,216,0,3,,,,,,,,,,,,,,,0,64,0,,
2872,control_change,16,0,3,,,,,,,,,,,,,,,0,64,127,,
2880,set_tempo,120,1,0,,,,,,,,,,,,612245,,,,,,,
2880,note_on,0,0,2,,,,,,,,,,,,,,,0,,,66,83
2880,note_on,120,0,2,,,,,,,,,,,,,,,0,,,66,0
2880,note_on,60,0,1,,,,,,,,,,,,,,,0,,,78,0
2880,note_on,0,0,3,,,,,,,,,,,,,,,0,,,62,57
2880,note_on,8,0,3,,,,,,,,,,,,,,,0,,,45,0
2920,set_tempo,40,1,0,,,,,,,,,,,,609137,,,,,,,
2940,note_on,60,0,1,,,,,,,,,,,,,,,0,,,78,60
2960,note_on,80,0,3,,,,,,,,,,,,,,,0,,,62,0
2960,note_on,0,0,3,,,,,,,,,,,,,,,0,,,56,45
3000,note_on,0,0,1,,,,,,,,,,,,,,,0,,,70,69
3000,note_on,60,0,1,,,,,,,,,,,,,,,0,,,78,0
3020,set_tempo,100,1,0,,,,,,,,,,,,612245,,,,,,,
3040,note_on,0,0,3,,,,,,,,,,,,,,,0,,,59,51
3040,note_on,80,0,3,,,,,,,,,,,,,,,0,,,56,0
3060,note_on,0,0,1,,,,,,,,,,,,,,,0,,,73,48
3060,note_on,60,0,1,,,,,,,,,,,,,,,0,,,70,0
3100,set_tempo,80,1,0,,,,,,,,,,,,615385,,,,,,,
3120,note_on,60,0,1,,,,,,,,,,,,,,,0,,,73,0
3120,note_on,0,0,3,,,,,,,,,,,,,,,0,,,50,41
3120,note_on,0,0,1,,,,,,,,,,,,,,,0,,,71,62
3120,note_on,80,0,3,,,,,,,,,,,,,,,0,,,59,0
3180,note_on,60,0,1,,,,,,,,,,,,,,,0,,,71,0
3180,note_on,0,0,1,,,,,,,,,,,,,,,0,,,68,46
3180,set_tempo,80,1,0,,,,,,,,,,,,618557,,,,,,,
3240,note_on,360,0,2,,,,,,,,,,,,,,,0,,,66,0
3240,note_on,60,0,1,,,,,,,,,,,,,,,0,,,68,0
3240,note_on,0,0,2,,,,,,,,,,,,,,,0,,,65,73
3260,set_tempo,80,1,0,,,,,,,,,,,,621762,,,,,,,
3300,note_on,60,0,1,,,,,,,,,,,,,,,0,,,77,55
3324,control_change,204,0,3,,,,,,,,,,,,,,,0,64,0,,
3340,set_tempo,80,1,0,,,,,,,,,,,,625000,,,,,,,
3352,control_change,28,0,3,,,,,,,,,,,,,,,0,64,127,,
3360,note_on,60,0,1,,,,,,,,,,,,,,,0,,,77,0
3360,note_on,0,0,3,,,,,,,,,,,,,,,0,,,61,50
3360,note_on,8,0,3,,,,,,,,,,,,,,,0,,,50,0
3360,note_on,120,0,2,,,,,,,,,,,,,,,0,,,65,0
3360,note_on,0,0,2,,,,,,,,,,,,,,,0,,,69,83
3420,set_tempo,80,1,0,,,,,,,,,,,,628272,,,,,,,
3420,note_on,60,0,1,,,,,,,,,,,,,,,0,,,81,55
3440,note_on,0,0,3,,,,,,,,,,,,,,,0,,,53,41
3440,note_on,80,0,3,,,,,,,,,,,,,,,0,,,61,0
3480,note_on,0,0,1,,,,,,,,,,,,,,,0,,,72,65
3480,note_on,60,0,1,,,,,,,,,,,,,,,0,,,81,0
3500,set_tempo,80,1,0,,,,,,,,,,,,631579,,,,,,,
3520,note_on,0,0,3,,,,,,,,,,,,,,,0,,,59,44
3520,note_on,80,0,3,,,,,,,,,,,,,,,0,,,53,0
3540,note_on,0,0,1,,,,,,,,,,,,,,,0,,,74,53
3540,note_on,60,0,1,,,,,,,,,,,,,,,0,,,72,0
3580,set_tempo,80,1,0,,,,,,,,,,,,634921,,,,,,,
3600,note_on,0,0,1,,,,,,,,,,,,,,,0,,,73,60
3600,note_on,60,0,1,,,,,,,,,,,,,,,0,,,74,0
3600,note_on,80,0,3,,,,,,,,,,,,,,,0,,,59,0
3600,note_on,0,0,3,,,,,,,,,,,,,,,0,,,49,37
3660,note_on,60,0,1,,,,,,,,,,,,,,,0,,,73,0
3660,set_tempo,80,1,0,,,,,,,,,,,,638298,,,,,,,
3660,note_on,0,0,1,,,,,,,,,,,,,,,0,,,71,46
3720,note_on,0,0,2,,,,,,,,,,,,,,,0,,,68,55
3720,note_on,360,0,2,,,,,,,,,,,,,,,0,,,69,0
3720,note_on,60,0,1,,,,,,,,,,,,,,,0,,,71,0
3732,control_change,12,0,1,,,,,,,,,,,,,,,0,64,32,,
3740,set_tempo,80,1,0,,,,,,,,,,,,641711,,,,,,,
3780,note_on,48,0,1,,,,,,,,,,,,,,,0,,,80,52
3804,control_change,204,0,3,,,,,,,,,,,,,,,0,64,0,,
3820,set_tempo,80,1,0,,,,,,,,,,,,606061,,,,,,,
3832,control_change,28,0,3,,,,,,,,,,,,,,,0,64,127,,
3840,note_on,8,0,3,,,,,,,,,,,,,,,0,,,49,0
3840,note_on,60,0,1,,,,,,,,,,,,,,,0,,,80,0
3840,set_tempo,20,1,0,,,,,,,,,,,,611746,,,,,,,
3840,note_on,0,0,3,,,,,,,,,,,,,,,0,,,69,57
3840,note_on,0,0,2,,,,,,,,,,,,,,,0,,,73,83
3840,note_on,120,0,2,,,,,,,,,,,,,,,0,,,68,0
3900,note_on,60,0,1,,,,,,,,,,,,,,,0,,,85,55
3920,note_on,80,0,3,,,,,,,,,,,,,,,0,,,69,0
3920,note_on,0,0,3,,,,,,,,,,,,,,,0,,,63,46
3960,note_on,0,0,1,,,,,,,,,,,,,,,0,,,80,63
3960,note_on,60,0,1,,,,,,,,,,,,,,,0,,,85,0
3960,set_tempo,120,1,0,,,,,,,,,,,,608643,,,,,,,
4000,note_on,80,0,3,,,,,,,,,,,,,,,0,,,63,0
4000,note_on,0,0,3,,,,,,,,,,,,,,,0,,,66,55
4020,note_on,0,0,1,,,,,,,,,,,,,,,0,,,83,53
4020,note_on,60,0,1,,,,,,,,,,,,,,,0,,,80,0
4080,note_on,0,0,1,,,,,,,,,,,,,,,0,,,81,62
4080,note_on,60,0,1,,,,,,,,,,,,,,,0,,,83,0
4080,note_on,80,0,3,,,,,,,,,,,,,,,0,,,66,0
4080,set_tempo,120,1,0,,,,,,,,,,,,605571,,,,,,,
4080,note_on,0,0,3,,,,,,,,,,,,,,,0,,,57,49
4140,note_on,0,0,1,,,,,,,,,,,,,,,0,,,78,53
4140,note_on,60,0,1,,,,,,,,,,,,,,,0,,,81,0
4200,note_on,0,0,2,,,,,,,,,,,,,,,0,,,75,62
4200,note_on,360,0,2,,,,,,,,,,,,,,,0,,,73,0
4200,note_on,60,0,1,,,,,,,,,,,,,,,0,,,78,0
4200,set_tempo,120,1,0,,,,,,,,,,,,602531,,,,,,,
4260,note_on,60,0,1,,,,,,,,,,,,,,,0,,,87,57
4280,control_change,200,0,3,,,,,,,,,,,,,,,0,64,0,,
4312,control_change,32,0,3,,,,,,,,,,,,,,,0,64,127,,
4320,note_on,120,0,2,,,,,,,,,,,,,,,0,,,75,0
4320,note_on,0,0,2,,,,,,,,,,,,,,,0,,,73,80
4320,note_on,60,0,1,,,,,,,,,,,,,,,0,,,87,0
4320,set_tempo,120,1,0,,,,,,,,,,,,599520,,,,,,,
4320,note_on,0,0,3,,,,,,,,,,,,,,,0,,,68,57
4320,note_on,8,0,3,,,,,,,,,,,,,,,0,,,57,0
4380,note_on,60,0,1,,,,,,,,,,,,,,,0,,,85,51
4400,note_on,80,0,3,,,,,,,,,,,,,,,0,,,68,0
4400,note_on,0,0,3,,,,,,,,,,,,,,,0,,,63,50
4440,set_tempo,120,1,0,,,,,,,,,,,,596540,,,,,,,
4440,note_on,0,0,1,,,,,,,,,,,,,,,0,,,77,60
4440,note_on,60,0,1,,,,,,,,,,,,,,,0,,,85,0
4480,note_on,80,0,3,,,,,,,,,,,,,,,0,,,63,0
4480,note_on,0,0,3,,,,,,,,,,,,,,,0,,,66,57
4500,note_on,0,0,1,,,,,,,,,,,,,,,0,,,80,52
4500,note_on,60,0,1,,,,,,,,,,,,,,,0,,,77,0
4560,note_on,0,0,3,,,,,,,,,,,,,,,0,,,56,46
4560,set_tempo,120,1,0,,,,,,,,,,,,593589,,,,,,,
4560,note_on,80,0,3,,,,,,,,,,,,,,,0,,,66,0
4560,note_on,60,0,1,,,,,,,,,,,,,,,0,,,80,0
4560,note_on,0,0,1,,,,,,,,,,,,,,,0,,,78,59
4620,note_on,0,0,1,,,,,,,,,,,,,,,0,,,74,48
4620,note_on,60,0,1,,,,,,,,,,,,,,,0,,,78,0
4680,note_on,60,0,1,,,,,,,,,,,,,,,0,,,74,0
4680,note_on,360,0,2,,,,,,,,,,,,,,,0,,,73,0
4680,set_tempo,120,1,0,,,,,,,,,,,,590667,,,,,,,
4680,note_on,0,0,2,,,,,,,,,,,,,,,0,,,72,60
4740,note_on,60,0,1,,,,,,,,,,,,,,,0,,,84,55
4764,control_change,204,0,3,,,,,,,,,,,,,,,0,64,0,,
4792,control_change,28,0,3,,,,,,,,,,,,,,,0,64,127,,
4800,note_on,8,0,3,,,,,,,,,,,,,,,0,,,56,0
4800,set_tempo,120,1,0,,,,,,,,,,,,587774,,,,,,,
4800,note_on,60,0,1,,,,,,,,,,,,,,,0,,,84,0
4800,note_on,0,0,2,,,,,,,,,,,,,,,0,,,71,77
4800,note_on,120,0,2,,,,,,,,,,,,,,,0,,,72,0
4800,note_on,0,0,3,,,,,,,,,,,,,,,0,,,67,59
4820,set_tempo,20,1,0,,,,,,,,,,,,585366,,,,,,,
4860,note_on,60,0,1,,,,,,,,,,,,,,,0,,,83,46
4880,note_on,80,0,3,,,,,,,,,,,,,,,0,,,67,0
4880,note_on,0,0,3,,,,,,,,,,,,,,,0,,,61,49
4880,set_tempo,60,1,0,,,,,,,,,,,,588235,,,,,,,
4920,note_on,60,0,1,,,,,,,,,,,,,,,0,,,83,0
4920,note_on,0,0,1,,,,,,,,,,,,,,,0,,,78,60
4940,set_tempo,60,1,0,,,,,,,,,,,,591133,,,,,,,
4960,note_on,0,0,3,,,,,,,,,,,,,,,0,,,64,57
4960,note_on,80,0,3,,,,,,,,,,,,,,,0,,,61,0
4980,note_on,60,0,1,,,,,,,,,,,,,,,0,,,78,0
4980,note_on,0,0,1,,,,,,,,,,,,,,,0,,,81,47
5000,set_tempo,60,1,0,,,,,,,,,,,,594059,,,,,,,
5040,note_on,0,0,3,,,,,,,,,,,,,,,0,,,55,44
5040,note_on,60,0,1,,,,,,,,,,,,,,,0,,,81,0
5040,note_on,0,0,1,,,,,,,,,,,,,,,0,,,79,56
5040,note_on,80,0,3,,,,,,,,,,,,,,,0,,,64,0
5060,set_tempo,60,1,0,,,,,,,,,,,,597015,,,,,,,
5100,note_on,0,0,1,,,,,,,,,,,,,,,0,,,76,47
5100,note_on,60,0,1,,,,,,,,,,,,,,,0,,,79,0
5120,set_tempo,60,1,0,,,,,,,,,,,,600000,,,,,,,
5160,note_on,360,0,2,,,,,,,,,,,,,,,0,,,71,0
5160,note_on,60,0,1,,,,,,,,,,,,,,,0,,,76,0
5160,set_tempo,40,1,0,,,,,,,,,,,,603015,,,,,,,
5160,note_on,0,0,2,,,,,,,,,,,,,,,0,,,73,57
5220,note_on,60,0,1,,,,,,,,,,,,,,,0,,,85,55
5220,set_tempo,60,1,0,,,,,,,,,,,,606061,,,,,,,
5252,control_change,212,0,3,,,,,,,,,,,,,,,0,64,0,,
5272,control_change,20,0,3,,,,,,,,,,,,,,,0,64,127,,
5280,note_on,60,0,1,,,,,,,,,,,,,,,0,,,85,0
5280,note_on,120,0,2,,,,,,,,,,,,,,,0,,,73,0
5280,note_on,0,0,2,,,,,,,,,,,,,,,0,,,71,73
5280,set_tempo,60,1,0,,,,,,,,,,,,609137,,,,,,,
5280,note_on,0,0,3,,,,,,,,,,,,,,,0,,,66,57
5280,note_on,8,0,3,,,,,,,,,,,,,,,0,,,55,0
5340,note_on,60,0,1,,,,,,,,,,,,,,,0,,,83,45
5340,set_tempo,60,1,0,,,,,,,,,,,,612245,,,,,,,
5360,note_on,80,0,3,,,,,,,,,,,,,,,0,,,66,0
5360,note_on,0,0,3,,,,,,,,,,,,,,,0,,,61,47
5400,set_tempo,60,1,0,,,,,,,,,,,,615385,,,,,,,
5400,note_on,0,0,1,,,,,,,,,,,,,,,0,,,75,51
5400,note_on,60,0,1,,,,,,,,,,,,,,,0,,,83,0
5440,note_on,80,0,3,,,,,,,,,,,,,,,0,,,61,0
5440,note_on,0,0,3,,,,,,,,,,,,,,,0,,,64,53
5440,set_tempo,40,1,0,,,,,,,,,,,,618557,,,,,,,
5460,note_on,0,0,1,,,,,,,,,,,,,,,0,,,78,45
5460,note_on,60,0,1,,,,,,,,,,,,,,,0,,,75,0
5500,set_tempo,60,1,0,,,,,,,,,,,,621762,,,,,,,
5520,note_on,0,0,1,,,,,,,,,,,,,,,0,,,76,52
5520,note_on,60,0,1,,,,,,,,,,,,,,,0,,,78,0
5520,note_on,80,0,3,,,,,,,,,,,,,,,0,,,64,0
5520,note_on,0,0,3,,,,,,,,,,,,,,,0,,,54,46
5560,set_tempo,60,1,0,,,,,,,,,,,,625000,,,,,,,
5580,note_on,0,0,1,,,,,,,,,,,,,,,0,,,73,47
5580,note_on,60,0,1,,,,,,,,,,,,,,,0,,,76,0
5620,set_tempo,60,1,0,,,,,,,,,,,,628272,,,,,,,
5640,note_on,360,0,2,,,,,,,,,,,,,,,0,,,71,0
5640,note_on,0,0,2,,,,,,,,,,,,,,,0,,,70,57
5640,note_on,60,0,1,,,,,,,,,,,,,,,0,,,73,0
5680,set_tempo,60,1,0,,,,,,,,,,,,631579,,,,,,,
5684,control_change,164,0,3,,,,,,,,,,,,,,,0,64,0,,
5700,note_on,60,0,1,,,,,,,,,,,,,,,0,,,82,50
5720,set_tempo,40,1,0,,,,,,,,,,,,634921,,,,,,,
5740,set_tempo,20,1,0,,,,,,,,,,,,618557,,,,,,,
5760,note_on,0,0,2,,,,,,,,,,,,,,,0,,,69,75
5760,set_tempo,20,1,0,,,,,,,,,,,,638298,,,,,,,
5760,note_on,76,0,3,,,,,,,,,,,,,,,0,,,54,0
5760,note_on,60,0,1,,,,,,,,,,,,,,,0,,,82,0
5760,note_on,0,0,3,,,,,,,,,,,,,,,0,,,65,58
5760,note_on,120,0,2,,,,,,,,,,,,,,,0,,,70,0
5764,control_change,4,0,2,,,,,,,,,,,,,,,0,64,96,,
5764,control_change,4,0,3,,,,,,,,,,,,,,,0,64,127,,
5820,note_on,60,0,1,,,,,,,,,,,,,,,0,,,81,51
5840,note_on,0,0,3,,,,,,,,,,,,,,,0,,,60,49
5840,note_on,76,0,3,,,,,,,,,,,,,,,0,,,65,0
5880,note_on,60,0,1,,,,,,,,,,,,,,,0,,,81,0
5880,note_on,0,0,1,,,,,,,,,,,,,,,0,,,74,60
5920,note_on,80,0,3,,,,,,,,,,,,,,,0,,,60,0
5920,note_on,0,0,3,,,,,,,,,,,,,,,0,,,63,55
5940,note_on,60,0,1,,,,,,,,,,,,,,,0,,,74,0
5940,note_on,0,0,1,,,,,,,,,,,,,,,0,,,77,44
6000,note_on,60,0,1,,,,,,,,,,,,,,,0,,,77,0
6000,note_on,0,0,1,,,,,,,,,,,,,,,0,,,75,51
6000,set_tempo,240,1,0,,,,,,,,,,,,641711,,,,,,,
6000,note_on,80,0,3,,,,,,,,,,,,,,,0,,,63,0
6000,note_on,0,0,3,,,,,,,,,,,,,,,0,,,53,45
6060,note_on,0,0,1,,,,,,,,,,,,,,,0,,,72,44
6060,note_on,60,0,1,,,,,,,,,,,,,,,0,,,75,0
6120,note_on,0,0,2,,,,,,,,,,,,,,,0,,,71,59
6120,note_on,356,0,2,,,,,,,,,,,,,,,0,,,69,0
6120,note_on,60,0,1,,,,,,,,,,,,,,,0,,,72,0
6148,control_change,28,0,2,,,,,,,,,,,,,,,0,64,31,,
6180,note_on,60,0,1,,,,,,,,,,,,,,,0,,,83,48
6192,control_change,192,0,3,,,,,,,,,,,,,,,0,64,0,,
6232,control_change,40,0,3,,,,,,,,,,,,,,,0,64,127,,
6240,note_on,8,0,3,,,,,,,,,,,,,,,0,,,53,0
6240,note_on,0,0,3,,,,,,,,,,,,,,,0,,,65,55
6240,set_tempo,240,1,0,,,,,,,,,,,,645161,,,,,,,
6240,note_on,92,0,2,,,,,,,,,,,,,,,0,,,71,0
6240,note_on,60,0,1,,,,,,,,,,,,,,,0,,,83,0
6240,note_on,0,0,2,,,,,,,,,,,,,,,0,,,69,73
6300,note_on,60,0,1,,,,,,,,,,,,,,,0,,,81,45
6320,note_on,80,0,3,,,,,,,,,,,,,,,0,,,65,0
6320,note_on,0,0,3,,,,,,,,,,,,,,,0,,,59,48
6360,note_on,0,0,1,,,,,,,,,,,,,,,0,,,73,50
6360,note_on,60,0,1,,,,,,,,,,,,,,,0,,,81,0
6400,note_on,80,0,3,,,,,,,,,,,,,,,0,,,59,0
6400,note_on,0,0,3,,,,,,,,,,,,,,,0,,,62,52
6420,note_on,60,0,1,,,,,,,,,,,,,,,0,,,73,0
6420,note_on,0,0,1,,,,,,,,,,,,,,,0,,,76,42
6480,set_tempo,240,1,0,,,,,,,,,,,,648649,,,,,,,
6480,note_on,0,0,3,,,,,,,,,,,,,,,0,,,53,46
6480,note_on,60,0,1,,,,,,,,,,,,,,,0,,,76,0
6480,note_on,0,0,1,,,,,,,,,,,,,,,0,,,74,48
6480,note_on,80,0,3,,,,,,,,,,,,,,,0,,,62,0
6540,note_on,0,0,1,,,,,,,,,,,,,,,0,,,71,42
6540,note_on,60,0,1,,,,,,,,,,,,,,,0,,,74,0
6600,note_on,360,0,2,,,,,,,,,,,,,,,0,,,69,0
6600,note_on,0,0,2,,,,,,,,,,,,,,,0,,,68,59
6600,note_on,60,0,1,,,,,,,,,,,,,,,0,,,71,0
6660,note_on,60,0,1,,,,,,,,,,,,,,,0,,,80,47
6688,control_change,208,0,3,,,,,,,,,,,,,,,0,64,0,,
6700,set_tempo,220,1,0,,,,,,,,,,,,645161,,,,,,,
6712,control_change,24,0,3,,,,,,,,,,,,,,,0,64,127,,
6720,note_on,120,0,2,,,,,,,,,,,,,,,0,,,68,0
6720,note_on,0,0,3,,,,,,,,,,,,,,,0,,,62,57
6720,note_on,8,0,3,,,,,,,,,,,,,,,0,,,53,0
6720,set_tempo,20,1,0,,,,,,,,,,,,645161,,,,,,,
6720,note_on,60,0,1,,,,,,,,,,,,,,,0,,,80,0
6720,note_on,0,0,2,,,,,,,,,,,,,,,0,,,66,74
6740,set_tempo,20,1,0,,,,,,,,,,,,648649,,,,,,,
6760,set_tempo,20,1,0,,,,,,,,,,,,652174,,,,,,,
6780,set_tempo,20,1,0,,,,,,,,,,,,655738,,,,,,,
6780,note_on,60,0,1,,,,,,,,,,,,,,,0,,,78,42
6800,note_on,80,0,3,,,,,,,,,,,,,,,0,,,62,0
6800,note_on,0,0,3,,,,,,,,,,,,,,,0,,,56,51
6800,set_tempo,20,1,0,,,,,,,,,,,,659341,,,,,,,
6820,set_tempo,20,1,0,,,,,,,,,,,,662983,,,,,,,
6840,note_on,60,0,1,,,,,,,,,,,,,,,0,,,78,0
6840,note_on,0,0,1,,,,,,,,,,,,,,,0,,,70,48
6840,set_tempo,20,1,0,,,,,,,,,,,,666667,,,,,,,
6860,set_tempo,20,1,0,,,,,,,,,,,,670391,,,,,,,
6880,note_on,0,0,3,,,,,,,,,,,,,,,0,,,59,53
6880,set_tempo,20,1,0,,,,,,,,,,,,674157,,,,,,,
6880,note_on,80,0,3,,,,,,,,,,,,,,,0,,,56,0
6900,set_tempo,20,1,0,,,,,,,,,,,,677966,,,,,,,
6900,note_on,0,0,1,,,,,,,,,,,,,,,0,,,73,42
6900,note_on,60,0,1,,,,,,,,,,,,,,,0,,,70,0
6920,set_tempo,20,1,0,,,,,,,,,,,,681818,,,,,,,
6940,set_tempo,20,1,0,,,,,,,,,,,,685714,,,,,,,
6960,set_tempo,20,1,0,,,,,,,,,,,,689655,,,,,,,
6960,note_on,80,0,3,,,,,,,,,,,,,,,0,,,59,0
6960,note_on,0,0,3,,,,,,,,,,,,,,,0,,,50,48
6960,note_on,60,0,1,,,,,,,,,,,,,,,0,,,73,0
6960,note_on,0,0,1,,,,,,,,,,,,,,,0,,,71,47
6980,set_tempo,20,1,0,,,,,,,,,,,,693642,,,,,,,
7000,set_tempo,20,1,0,,,,,,,,,,,,697674,,,,,,,
7020,set_tempo,20,1,0,,,,,,,,,,,,701754,,,,,,,
7020,note_on,0,0,1,,,,,,,,,,,,,,,0,,,68,38
7020,note_on,60,0,1,,,,,,,,,,,,,,,0,,,71,0
7040,set_tempo,20,1,0,,,,,,,,,,,,705882,,,,,,,
7060,set_tempo,20,1,0,,,,,,,,,,,,710059,,,,,,,
7080,set_tempo,20,1,0,,,,,,,,,,,,714286,,,,,,,
7080,note_on,360,0,2,,,,,,,,,,,,,,,0,,,66,0
7080,note_on,0,0,2,,,,,,,,,,,,,,,0,,,65,57
7080,note_on,60,0,1,,,,,,,,,,,,,,,0,,,68,0
7100,set_tempo,20,1,0,,,,,,,,,,,,718563,,,,,,,
7120,set_tempo,20,1,0,,,,,,,,,,,,722892,,,,,,,
7140,note_on,60,0,1,,,,,,,,,,,,,,,0,,,77,45
7140,set_tempo,20,1,0,,,,,,,,,,,,727273,,,,,,,
7160,set_tempo,20,1,0,,,,,,,,,,,,731707,,,,,,,
7164,control_change,204,0,3,,,,,,,,,,,,,,,0,64,0,,
7180,set_tempo,20,1,0,,,,,,,,,,,,736196,,,,,,,
7200,note_on,0,0,3,,,,,,,,,,,,,,,0,,,59,58
7200,note_on,0,0,2,,,,,,,,,,,,,,,0,,,62,72
7200,set_tempo,20,1,0,,,,,,,,,,,,740741,,,,,,,
7200,note_on,60,0,1,,,,,,,,,,,,,,,0,,,77,0
7200,note_on,120,0,2,,,,,,,,,,,,,,,0,,,65,0
7200,note_on,36,0,3,,,,,,,,,,,,,,,0,,,50,0
7204,control_change,4,0,3,,,,,,,,,,,,,,,0,64,127,,
7220,set_tempo,20,1,0,,,,,,,,,,,,745342,,,,,,,
7240,set_tempo,20,1,0,,,,,,,,,,,,750000,,,,,,,
7260,set_tempo,20,1,0,,,,,,,,,,,,754717,,,,,,,
7260,note_on,60,0,1,,,,,,,,,,,,,,,0,,,74,37
7280,set_tempo,20,1,0,,,,,,,,,,,,759494,,,,,,,
7280,note_on,76,0,3,,,,,,,,,,,,,,,0,,,59,0
7280,note_on,0,0,3,,,,,,,,,,,,,,,0,,,49,46
7300,set_tempo,20,1,0,,,,,,,,,,,,764331,,,,,,,
7320,note_on,0,0,1,,,,,,,,,,,,,,,0,,,67,47
7320,note_on,60,0,1,,,,,,,,,,,,,,,0,,,74,0
7320,set_tempo,20,1,0,,,,,,,,,,,,769231,,,,,,,
7340,set_tempo,20,1,0,,,,,,,,,,,,774194,,,,,,,
7360,set_tempo,20,1,0,,,,,,,,,,,,779221,,,,,,,
7360,note_on,0,0,3,,,,,,,,,,,,,,,0,,,53,51
7360,note_on,80,0,3,,,,,,,,,,,,,,,0,,,49,0
7380,note_on,0,0,1,,,,,,,,,,,,,,,0,,,69,37
7380,note_on,60,0,1,,,,,,,,,,,,,,,0,,,67,0
7380,set_tempo,20,1,0,,,,,,,,,,,,784314,,,,,,,
7400,set_tempo,20,1,0,,,,,,,,,,,,789474,,,,,,,
7420,set_tempo,20,1,0,,,,,,,,,,,,794702,,,,,,,
7440,set_tempo,20,1,0,,,,,,,,,,,,800000,,,,,,,
7440,note_on,0,0,1,,,,,,,,,,,,,,,0,,,68,46
7440,note_on,60,0,1,,,,,,,,,,,,,,,0,,,69,0
7440,note_on,0,0,3,,,,,,,,,,,,,,,0,,,37,42
7440,note_on,80,0,3,,,,,,,,,,,,,,,0,,,53,0
7460,set_tempo,20,1,0,,,,,,,,,,,,805369,,,,,,,
7480,set_tempo,20,1,0,,,,,,,,,,,,810811,,,,,,,
7500,set_tempo,20,1,0,,,,,,,,,,,,816327,,,,,,,
7500,note_on,0,0,1,,,,,,,,,,,,,,,0,,,65,36
7500,note_on,60,0,1,,,,,,,,,,,,,,,0,,,68,0
7520,set_tempo,20,1,0,,,,,,,,,,,,821918,,,,,,,
7540,set_tempo,20,1,0,,,,,,,,,,,,827586,,,,,,,
7560,note_on,60,0,1,,,,,,,,,,,,,,,0,,,65,0
7560,note_on,360,0,2,,,,,,,,,,,,,,,0,,,62,0
7560,note_on,0,0,2,,,,,,,,,,,,,,,0,,,61,63
7560,set_tempo,20,1,0,,,,,,,,,,,,833333,,,,,,,
7580,set_tempo,20,1,0,,,,,,,,,,,,839161,,,,,,,
7592,control_change,152,0,3,,,,,,,,,,,,,,,0,64,0,,
7600,set_tempo,20,1,0,,,,,,,,,,,,845070,,,,,,,
7620,set_tempo,20,1,0,,,,,,,,,,,,851064,,,,,,,
7620,note_on,60,0,1,,,,,,,,,,,,,,,0,,,73,42
7640,set_tempo,20,1,0,,,,,,,,,,,,857143,,,,,,,
7660,set_tempo,20,1,0,,,,,,,,,,,,810811,,,,,,,
7680,control_change,0,0,3,,,,,,,,,,,,,,,0,64,127,,
7680,note_on,88,0,3,,,,,,,,,,,,,,,0,,,37,0
7680,note_on,0,0,2,,,,,,,,,,,,,,,0,,,61,84
7680,note_on,120,0,2,,,,,,,,,,,,,,,0,,,61,0
7680,note_on,0,0,3,,,,,,,,,,,,,,,0,,,57,56
7680,set_tempo,20,1,0,,,,,,,,,,,,591133,,,,,,,
7680,note_on,60,0,1,,,,,,,,,,,,,,,0,,,73,0
7740,set_tempo,60,1,0,,,,,,,,,,,,588235,,,,,,,
7740,note_on,60,0,1,,,,,,,,,,,,,,,0,,,73,54
7760,note_on,80,0,3,,,,,,,,,,,,,,,0,,,57,0
7760,note_on,0,0,3,,,,,,,,,,,,,,,0,,,49,44
7800,note_on,0,0,1,,,,,,,,,,,,,,,0,,,68,62
7800,note_on,60,0,1,,,,,,,,,,,,,,,0,,,73,0
7800,set_tempo,60,1,0,,,,,,,,,,,,585366,,,,,,,
7840,note_on,80,0,3,,,,,,,,,,,,,,,0,,,49,0
7840,note_on,0,0,3,,,,,,,,,,,,,,,0,,,54,50
7860,set_tempo,60,1,0,,,,,,,,,,,,582524,,,,,,,
7860,note_on,0,0,1,,,,,,,,,,,,,,,0,,,71,46
7860,note_on,60,0,1,,,,,,,,,,,,,,,0,,,68,0
7920,set_tempo,60,1,0,,,,,,,,,,,,579710,,,,,,,
7920,note_on,80,0,3,,,,,,,,,,,,,,,0,,,54,0
7920,note_on,0,0,3,,,,,,,,,,,,,,,0,,,42,38
7920,note_on,60,0,1,,,,,,,,,,,,,,,0,,,71,0
7920,note_on,0,0,1,,,,,,,,,,,,,,,0,,,69,53
7980,note_on,0,0,1,,,,,,,,,,,,,,,0,,,66,37
7980,set_tempo,60,1,0,,,,,,,,,,,,576923,,,,,,,
7980,note_on,60,0,1,,,,,,,,,,,,,,,0,,,69,0
8020,set_tempo,40,1,0,,,,,,,,,,,,574163,,,,,,,
8040,note_on,360,0,2,,,,,,,,,,,,,,,0,,,61,0
8040,note_on,0,0,2,,,,,,,,,,,,,,,0,,,62,63
8040,note_on,60,0,1,,,,,,,,,,,,,,,0,,,66,0
8080,set_tempo,60,1,0,,,,,,,,,,,,571429,,,,,,,
8100,note_on,60,0,1,,,,,,,,,,,,,,,0,,,74,40
8140,control_change,220,0,3,,,,,,,,,,,,,,,0,64,0,,
8140,set_tempo,60,1,0,,,,,,,,,,,,568720,,,,,,,
8160,note_on,20,0,3,,,,,,,,,,,,,,,0,,,42,0
8160,note_on,0,0,3,,,,,,,,,,,,,,,0,,,57,59
8160,note_on,120,0,2,,,,,,,,,,,,,,,0,,,62,0
8160,note_on,0,0,2,,,,,,,,,,,,,,,0,,,61,75
8160,note_on,60,0,1,,,,,,,,,,,,,,,0,,,74,0
8164,control_change,4,0,3,,,,,,,,,,,,,,,0,64,127,,
8200,set_tempo,60,1,0,,,,,,,,,,,,566038,,,,,,,
8220,note_on,60,0,1,,,,,,,,,,,,,,,0,,,73,46
8240,note_on,0,0,3,,,,,,,,,,,,,,,0,,,49,49
8240,note_on,76,0,3,,,,,,,,,,,,,,,0,,,57,0
8260,set_tempo,60,1,0,,,,,,,,,,,,563380,,,,,,,
8280,note_on,60,0,1,,,,,,,,,,,,,,,0,,,73,0
8280,note_on,0,0,1,,,,,,,,,,,,,,,0,,,68,57
8320,note_on,0,0,3,,,,,,,,,,,,,,,0,,,54,53
8320,note_on,80,0,3,,,,,,,,,,,,,,,0,,,49,0
8320,set_tempo,60,1,0,,,,,,,,,,,,560748,,,,,,,
8340,note_on,60,0,1,,,,,,,,,,,,,,,0,,,68,0
8340,note_on,0,0,1,,,,,,,,,,,,,,,0,,,71,38
8360,set_tempo,40,1,0,,,,,,,,,,,,558140,,,,,,,
8400,note_on,60,0,1,,,,,,,,,,,,,,,0,,,71,0
8400,note_on,80,0,3,,,,,,,,,,,,,,,0,,,54,0
8400,note_on,0,0,3,,,,,,,,,,,,,,,0,,,45,45
8400,note_on,0,0,1,,,,,,,,,,,,,,,0,,,69,47
8420,set_tempo,60,1,0,,,,,,,,,,,,555556,,,,,,,
8460,note_on,60,0,1,,,,,,,,,,,,,,,0,,,69,0
8460,note_on,0,0,1,,,,,,,,,,,,,,,0,,,68,38
8480,set_tempo,60,1,0,,,,,,,,,,,,552995,,,,,,,
8520,note_on,60,0,1,,,,,,,,,,,,,,,0,,,68,0
8520,note_on,0,0,2,,,,,,,,,,,,,,,0,,,66,71
8520,note_on,360,0,2,,,,,,,,,,,,,,,0,,,61,0
8540,set_tempo,60,1,0,,,,,,,,,,,,550459,,,,,,,
8580,note_on,60,0,1,,,,,,,,,,,,,,,0,,,78,46
8600,set_tempo,60,1,0,,,,,,,,,,,,547945,,,,,,,
8620,set_tempo,20,1,0,,,,,,,,,,,,550459,,,,,,,
8628,control_change,228,0,3,,,,,,,,,,,,,,,0,64,0,,
8640,note_on,120,0,2,,,,,,,,,,,,,,,0,,,66,0
8640,note_on,0,0,2,,,,,,,,,,,,,,,0,,,66,84
8640,note_on,60,0,1,,,,,,,,,,,,,,,0,,,78,0
8640,note_on,0,0,3,,,,,,,,,,,,,,,0,,,62,60
8640,note_on,12,0,3,,,,,,,,,,,,,,,0,,,45,0
8660,set_tempo,40,1,0,,,,,,,,,,,,552995,,,,,,,
8664,control_change,24,0,3,,,,,,,,,,,,,,,0,64,127,,
8680,set_tempo,20,1,0,,,,,,,,,,,,555556,,,,,,,
8700,note_on,60,0,1,,,,,,,,,,,,,,,0,,,78,55
8720,note_on,56,0,3,,,,,,,,,,,,,,,0,,,62,0
8720,note_on,0,0,3,,,,,,,,,,,,,,,0,,,56,49
8720,set_tempo,40,1,0,,,,,,,,,,,,558140,,,,,,,
8740,set_tempo,20,1,0,,,,,,,,,,,,560748,,,,,,,
8760,note_on,0,0,1,,,,,,,,,,,,,,,0,,,70,64
8760,set_tempo,20,1,0,,,,,,,,,,,,563380,,,,,,,
8760,note_on,60,0,1,,,,,,,,,,,,,,,0,,,78,0
8800,set_tempo,40,1,0,,,,,,,,,,,,566038,,,,,,,
8800,note_on,80,0,3,,,,,,,,,,,,,,,0,,,56,0
8800,note_on,0,0,3,,,,,,,,,,,,,,,0,,,59,55
8820,set_tempo,20,1,0,,,,,,,,,,,,568720,,,,,,,
8820,note_on,0,0,1,,,,,,,,,,,,,,,0,,,73,44
8820,note_on,60,0,1,,,,,,,,,,,,,,,0,,,70,0
8860,set_tempo,40,1,0,,,,,,,,,,,,571429,,,,,,,
8880,note_on,0,0,3,,,,,,,,,,,,,,,0,,,50,44
8880,set_tempo,20,1,0,,,,,,,,,,,,574163,,,,,,,
8880,note_on,80,0,3,,,,,,,,,,,,,,,0,,,59,0
8880,note_on,60,0,1,,,,,,,,,,,,,,,0,,,73,0
8880,note_on,0,0,1,,,,,,,,,,,,,,,0,,,71,51
8900,set_tempo,20,1,0,,,,,,,,,,,,576923,,,,,,,
8940,note_on,0,0,1,,,,,,,,,,,,,,,0,,,68,42
8940,note_on,60,0,1,,,,,,,,,,,,,,,0,,,71,0
8940,set_tempo,40,1,0,,,,,,,,,,,,579710,,,,,,,
8960,set_tempo,20,1,0,,,,,,,,,,,,582524,,,,,,,
8980,set_tempo,20,1,0,,,,,,,,,,,,585366,,,,,,,
9000,note_on,60,0,1,,,,,,,,,,,,,,,0,,,68,0
9000,note_on,0,0,2,,,,,,,,,,,,,,,0,,,65,59
9000,note_on,360,0,2,,,,,,,,,,,,,,,0,,,66,0
9020,set_tempo,40,1,0,,,,,,,,,,,,588235,,,,,,,
9040,set_tempo,20,1,0,,,,,,,,,,,,591133,,,,,,,
9060,note_on,60,0,1,,,,,,,,,,,,,,,0,,,77,48
9080,set_tempo,40,1,0,,,,,,,,,,,,594059,,,,,,,
9100,set_tempo,20,1,0,,,,,,,,,,,,597015,,,,,,,
9104,control_change,224,0,3,,,,,,,,,,,,,,,0,64,0,,
9120,note_on,16,0,3,,,,,,,,,,,,,,,0,,,50,0
9120,note_on,0,0,2,,,,,,,,,,,,,,,0,,,69,77
9120,note_on,120,0,2,,,,,,,,,,,,,,,0,,,65,0
9120,set_tempo,20,1,0,,,,,,,,,,,,600000,,,,,,,
9120,note_on,60,0,1,,,,,,,,,,,,,,,0,,,77,0
9120,note_on,0,0,3,,,,,,,,,,,,,,,0,,,61,56
9132,control_change,12,0,3,,,,,,,,,,,,,,,0,64,127,,
9160,set_tempo,40,1,0,,,,,,,,,,,,603015,,,,,,,
9180,note_on,60,0,1,,,,,,,,,,,,,,,0,,,81,49
9180,set_tempo,20,1,0,,,,,,,,,,,,606061,,,,,,,
9200,note_on,68,0,3,,,,,,,,,,,,,,,0,,,61,0
9200,note_on,0,0,3,,,,,,,,,,,,,,,0,,,53,39
9220,set_tempo,40,1,0,,,,,,,,,,,,609137,,,,,,,
9240,note_on,0,0,1,,,,,,,,,,,,,,,0,,,72,56
9240,note_on,60,0,1,,,,,,,,,,,,,,,0,,,81,0
9240,set_tempo,20,1,0,,,,,,,,,,,,612245,,,,,,,
9260,set_tempo,20,1,0,,,,,,,,,,,,615385,,,,,,,
9280,note_on,80,0,3,,,,,,,,,,,,,,,0,,,53,0
9280,note_on,0,0,3,,,,,,,,,,,,,,,0,,,59,48
9300,note_on,0,0,1,,,,,,,,,,,,,,,0,,,74,44
9300,note_on,60,0,1,,,,,,,,,,,,,,,0,,,72,0
9300,set_tempo,40,1,0,,,,,,,,,,,,618557,,,,,,,
9320,set_tempo,20,1,0,,,,,,,,,,,,621762,,,,,,,
9340,set_tempo,20,1,0,,,,,,,,,,,,625000,,,,,,,
9360,note_on,0,0,1,,,,,,,,,,,,,,,0,,,73,48
9360,note_on,60,0,1,,,,,,,,,,,,,,,0,,,74,0
9360,note_on,80,0,3,,,,,,,,,,,,,,,0,,,59,0
9360,note_on,0,0,3,,,,,,,,,,,,,,,0,,,49,37
9380,set_tempo,40,1,0,,,,,,,,,,,,628272,,,,,,,
9400,set_tempo,20,1,0,,,,,,,,,,,,631579,,,,,,,
9420,note_on,60,0,1,,,,,,,,,,,,,,,0,,,73,0
9420,note_on,0,0,1,,,,,,,,,,,,,,,0,,,71,38
9440,set_tempo,40,1,0,,,,,,,,,,,,634921,,,,,,,
9460,set_tempo,20,1,0,,,,,,,,,,,,638298,,,,,,,
9480,set_tempo,20,1,0,,,,,,,,,,,,641711,,,,,,,
9480,note_on,60,0,1,,,,,,,,,,,,,,,0,,,71,0
9480,note_on,360,0,2,,,,,,,,,,,,,,,0,,,69,0
9480,note_on,0,0,2,,,,,,,,,,,,,,,0,,,68,56
9520,set_tempo,40,1,0,,,,,,,,,,,,645161,,,,,,,
9540,set_tempo,20,1,0,,,,,,,,,,,,648649,,,,,,,
9540,note_on,60,0,1,,,,,,,,,,,,,,,0,,,80,45
9560,set_tempo,20,1,0,,,,,,,,,,,,652174,,,,,,,
9568,control_change,208,0,3,,,,,,,,,,,,,,,0,64,0,,
9600,note_on,0,0,2,,,,,,,,,,,,,,,0,,,61,81
9600,note_on,120,0,2,,,,,,,,,,,,,,,0,,,68,0
9600,note_on,32,0,3,,,,,,,,,,,,,,,0,,,49,0
9600,control_change,0,0,3,,,,,,,,,,,,,,,0,64,127,,
9600,note_on,0,0,3,,,,,,,,,,,,,,,0,,,57,58
9600,set_tempo,40,1,0,,,,,,,,,,,,552995,,,,,,,
9600,note_on,60,0,1,,,,,,,,,,,,,,,0,,,80,0
9640,set_tempo,40,1,0,,,,,,,,,,,,566038,,,,,,,
9660,note_on,60,0,1,,,,,,,,,,,,,,,0,,,73,52
9660,set_tempo,20,1,0,,,,,,,,,,,,566038,,,,,,,
9680,note_on,80,0,3,,,,,,,,,,,,,,,0,,,57,0
9680,note_on,0,0,3,,,,,,,,,,,,,,,0,,,49,40
9720,note_on,60,0,1,,,,,,,,,,,,,,,0,,,73,0
9720,note_on,0,0,1,,,,,,,,,,,,,,,0,,,68,59
9720,set_tempo,60,1,0,,,,,,,,,,,,563380,,,,,,,
9760,note_on,0,0,3,,,,,,,,,,,,,,,0,,,54,50
9760,note_on,80,0,3,,,,,,,,,,,,,,,0,,,49,0
9780,note_on,0,0,1,,,,,,,,,,,,,,,0,,,71,37
9780,note_on,60,0,1,,,,,,,,,,,,,,,0,,,68,0
9780,set_tempo,60,1,0,,,,,,,,,,,,560748,,,,,,,
9840,note_on,0,0,1,,,,,,,,,,,,,,,0,,,69,53
9840,set_tempo,60,1,0,,,,,,,,,,,,558140,,,,,,,
9840,note_on,60,0,1,,,,,,,,,,,,,,,0,,,71,0
9840,note_on,80,0,3,,,,,,,,,,,,,,,0,,,54,0
9840,note_on,0,0,3,,,,,,,,,,,,,,,0,,,42,40
9900,note_on,0,0,1,,,,,,,,,,,,,,,0,,,66,40
9900,note_on,60,0,1,,,,,,,,,,,,,,,0,,,69,0
9900,set_tempo,60,1,0,,,,,,,,,,,,555556,,,,,,,
9960,note_on,60,0,1,,,,,,,,,,,,,,,0,,,66,0
9960,note_on,360,0,2,,,,,,,,,,,,,,,0,,,61,0
9960,note_on,0,0,2,,,,,,,,,,,,,,,0,,,62,58
9960,set_tempo,60,1,0,,,,,,,,,,,,552995,,,,,,,
10020,set_tempo,60,1,0,,,,,,,,,,,,550459,,,,,,,
10020,note_on,60,0,1,,,,,,,,,,,,,,,0,,,74,45
10060,control_change,220,0,3,,,,,,,,,,,,,,,0,64,0,,
10080,note_on,60,0,1,,,,,,,,,,,,,,,0,,,74,0
10080,set_tempo,60,1,0,,,,,,,,,,,,547945,,,,,,,
10080,note_on,20,0,3,,,,,,,,,,,,,,,0,,,42,0
10080,note_on,0,0,3,,,,,,,,,,,,,,,0,,,57,57
10080,note_on,120,0,2,,,,,,,,,,,,,,,0,,,62,0
10080,note_on,0,0,2,,,,,,,,,,,,,,,0,,,61,75
10084,control_change,4,0,3,,,,,,,,,,,,,,,0,64,127,,
10140,note_on,60,0,1,,,,,,,,,,,,,,,0,,,73,42
10140,set_tempo,60,1,0,,,,,,,,,,,,545455,,,,,,,
10160,note_on,0,0,3,,,,,,,,,,,,,,,0,,,49,40
10160,note_on,76,0,3,,,,,,,,,,,,,,,0,,,57,0
10200,set_tempo,60,1,0,,,,,,,,,,,,542986,,,,,,,
10200,note_on,60,0,1,,,,,,,,,,,,,,,0,,,73,0
10200,note_on,0,0,1,,,,,,,,,,,,,,,0,,,68,48
10240,note_on,80,0,3,,,,,,,,,,,,,,,0,,,49,0
10240,note_on,0,0,3,,,,,,,,,,,,,,,0,,,54,48
10260,note_on,60,0,1,,,,,,,,,,,,,,,0,,,68,0
10260,note_on,0,0,1,,,,,,,,,,,,,,,0,,,71,42
10260,set_tempo,60,1,0,,,,,,,,,,,,540541,,,,,,,
10320,note_on,0,0,1,,,,,,,,,,,,,,,0,,,69,48
10320,note_on,60,0,1,,,,,,,,,,,,,,,0,,,71,0
10320,note_on,80,0,3,,,,,,,,,,,,,,,0,,,54,0
10320,note_on,0,0,3,,,,,,,,,,,,,,,0,,,45,39
10320,set_tempo,60,1,0,,,,,,,,,,,,538117,,,,,,,
10380,note_on,60,0,1,,,,,,,,,,,,,,,0,,,69,0
10380,set_tempo,60,1,0,,,,,,,,,,,,535714,,,,,,,
10380,note_on,0,0,1,,,,,,,,,,,,,,,0,,,68,42
10440,note_on,60,0,1,,,,,,,,,,,,,,,0,,,68,0
10440,set_tempo,60,1,0,,,,,,,,,,,,533333,,,,,,,
10440,note_on,0,0,2,,,,,,,,,,,,,,,0,,,66,71
10440,note_on,360,0,2,,,,,,,,,,,,,,,0,,,61,0
10500,set_tempo,60,1,0,,,,,,,,,,,,530973,,,,,,,
10500,note_on,60,0,1,,,,,,,,,,,,,,,0,,,81,48
10540,set_tempo,40,1,0,,,,,,,,,,,,528634,,,,,,,
10544,control_change,224,0,3,,,,,,,,,,,,,,,0,64,0,,
10560,note_on,60,0,1,,,,,,,,,,,,,,,0,,,81,0
10560,note_on,120,0,2,,,,,,,,,,,,,,,0,,,66,0
10560,set_tempo,20,1,0,,,,,,,,,,,,526316,,,,,,,
10560,note_on,0,0,2,,,,,,,,,,,,,,,0,,,69,85
10560,note_on,16,0,3,,,,,,,,,,,,,,,0,,,45,0
10560,note_on,0,0,3,,,,,,,,,,,,,,,0,,,65,60
10572,control_change,12,0,3,,,,,,,,,,,,,,,0,64,127,,
10580,set_tempo,20,1,0,,,,,,,,,,,,528634,,,,,,,
10600,set_tempo,20,1,0,,,,,,,,,,,,530973,,,,,,,
10620,note_on,60,0,1,,,,,,,,,,,,,,,0,,,81,50
10620,set_tempo,20,1,0,,,,,,,,,,,,533333,,,,,,,
10640,note_on,0,0,3,,,,,,,,,,,,,,,0,,,59,42
10640,set_tempo,20,1,0,,,,,,,,,,,,535714,,,,,,,
10640,note_on,68,0,3,,,,,,,,,,,,,,,0,,,65,0
10660,set_tempo,20,1,0,,,,,,,,,,,,538117,,,,,,,
10680,set_tempo,20,1,0,,,,,,,,,,,,542986,,,,,,,
10680,note_on,0,0,1,,,,,,,,,,,,,,,0,,,73,59
10680,note_on,60,0,1,,,,,,,,,,,,,,,0,,,81,0
10700,set_tempo,20,1,0,,,,,,,,,,,,545455,,,,,,,
10720,note_on,80,0,3,,,,,,,,,,,,,,,0,,,59,0
10720,note_on,0,0,3,,,,,,,,,,,,,,,0,,,62,49
10720,set_tempo,20,1,0,,,,,,,,,,,,547945,,,,,,,
10740,note_on,60,0,1,,,,,,,,,,,,,,,0,,,73,0
10740,set_tempo,20,1,0,,,,,,,,,,,,550459,,,,,,,
10740,note_on,0,0,1,,,,,,,,,,,,,,,0,,,76,46
10760,set_tempo,20,1,0,,,,,,,,,,,,552995,,,,,,,
10780,set_tempo,20,1,0,,,,,,,,,,,,555556,,,,,,,
10800,note_on,60,0,1,,,,,,,,,,,,,,,0,,,76,0
10800,note_on,0,0,1,,,,,,,,,,,,,,,0,,,74,51
10800,set_tempo,20,1,0,,,,,,,,,,,,560748,,,,,,,
10800,note_on,0,0,3,,,,,,,,,,,,,,,0,,,53,41
10800,note_on,80,0,3,,,,,,,,,,,,,,,0,,,62,0
10820,set_tempo,20,1,0,,,,,,,,,,,,563380,,,,,,,
10840,set_tempo,20,1,0,,,,,,,,,,,,566038,,,,,,,
10860,note_on,0,0,1,,,,,,,,,,,,,,,0,,,71,42
10860,note_on,60,0,1,,,,,,,,,,,,,,,0,,,74,0
10860,set_tempo,20,1,0,,,,,,,,,,,,568720,,,,,,,
10880,set_tempo,20,1,0,,,,,,,,,,,,571429,,,,,,,
10900,set_tempo,20,1,0,,,,,,,,,,,,574163,,,,,,,
10920,set_tempo,20,1,0,,,,,,,,,,,,579710,,,,,,,
10920,note_on,360,0,2,,,,,,,,,,,,,,,0,,,69,0
10920,note_on,60,0,1,,,,,,,,,,,,,,,0,,,71,0
10920,note_on,0,0,2,,,,,,,,,,,,,,,0,,,68,58
10940,set_tempo,20,1,0,,,,,,,,,,,,582524,,,,,,,
10960,set_tempo,20,1,0,,,,,,,,,,,,585366,,,,,,,
10980,note_on,60,0,1,,,,,,,,,,,,,,,0,,,80,48
10980,set_tempo,20,1,0,,,,,,,,,,,,588235,,,,,,,
11000,set_tempo,20,1,0,,,,,,,,,,,,591133,,,,,,,
11020,set_tempo,20,1,0,,,,,,,,,,,,597015,,,,,,,
11032,control_change,232,0,3,,,,,,,,,,,,,,,0,64,0,,
11040,note_on,8,0,3,,,,,,,,,,,,,,,0,,,53,0
11040,note_on,60,0,1,,,,,,,,,,,,,,,0,,,80,0
11040,note_on,0,0,3,,,,,,,,,,,,,,,0,,,64,58
11040,set_tempo,20,1,0,,,,,,,,,,,,600000,,,,,,,
11040,note_on,120,0,2,,,,,,,,,,,,,,,0,,,68,0
11040,note_on,0,0,2,,,,,,,,,,,,,,,0,,,73,83
11060,set_tempo,20,1,0,,,,,,,,,,,,603015,,,,,,,
11064,control_change,24,0,3,,,,,,,,,,,,,,,0,64,127,,
11080,set_tempo,20,1,0,,,,,,,,,,,,606061,,,,,,,
11100,note_on,60,0,1,,,,,,,,,,,,,,,0,,,85,46
11100,set_tempo,20,1,0,,,,,,,,,,,,609137,,,,,,,
11120,note_on,56,0,3,,,,,,,,,,,,,,,0,,,64,0
11120,note_on,0,0,3,,,,,,,,,,,,,,,0,,,56,44
11120,set_tempo,20,1,0,,,,,,,,,,,,612245,,,,,,,
11140,set_tempo,20,1,0,,,,,,,,,,,,618557,,,,,,,
11160,note_on,0,0,1,,,,,,,,,,,,,,,0,,,75,55
11160,set_tempo,20,1,0,,,,,,,,,,,,621762,,,,,,,
11160,note_on,60,0,1,,,,,,,,,,,,,,,0,,,85,0
11180,set_tempo,20,1,0,,,,,,,,,,,,625000,,,,,,,
11200,set_tempo,20,1,0,,,,,,,,,,,,628272,,,,,,,
11200,note_on,0,0,3,,,,,,,,,,,,,,,0,,,62,50
11200,note_on,80,0,3,,,,,,,,,,,,,,,0,,,56,0
11220,note_on,0,0,1,,,,,,,,,,,,,,,0,,,78,47
11220,note_on,60,0,1,,,,,,,,,,,,,,,0,,,75,0
11220,set_tempo,20,1,0,,,,,,,,,,,,631579,,,,,,,
11240,set_tempo,20,1,0,,,,,,,,,,,,634921,,,,,,,
11260,set_tempo,20,1,0,,,,,,,,,,,,641711,,,,,,,
11280,set_tempo,20,1,0,,,,,,,,,,,,645161,,,,,,,
11280,note_on,0,0,3,,,,,,,,,,,,,,,0,,,52,42
11280,note_on,0,0,1,,,,,,,,,,,,,,,0,,,76,55
11280,note_on,60,0,1,,,,,,,,,,,,,,,0,,,78,0
11280,note_on,80,0,3,,,,,,,,,,,,,,,0,,,62,0
11300,set_tempo,20,1,0,,,,,,,,,,,,648649,,,,,,,
11320,set_tempo,20,1,0,,,,,,,,,,,,652174,,,,,,,
11340,set_tempo,20,1,0,,,,,,,,,,,,655738,,,,,,,
11340,note_on,0,0,1,,,,,,,,,,,,,,,0,,,74,47
11340,note_on,60,0,1,,,,,,,,,,,,,,,0,,,76,0
11360,set_tempo,20,1,0,,,,,,,,,,,,659341,,,,,,,
11380,set_tempo,20,1,0,,,,,,,,,,,,666667,,,,,,,
11400,set_tempo,20,1,0,,,,,,,,,,,,670391,,,,,,,
11400,note_on,360,0,2,,,,,,,,,,,,,,,0,,,73,0
11400,note_on,60,0,1,,,,,,,,,,,,,,,0,,,74,0
11400,note_on,0,0,2,,,,,,,,,,,,,,,0,,,71,66
11420,set_tempo,20,1,0,,,,,,,,,,,,674157,,,,,,,
11440,set_tempo,20,1,0,,,,,,,,,,,,677966,,,,,,,
11460,note_on,60,0,1,,,,,,,,,,,,,,,0,,,83,51
11460,set_tempo,20,1,0,,,,,,,,,,,,681818,,,,,,,
11468,control_change,188,0,3,,,,,,,,,,,,,,,0,64,0,,
11480,set_tempo,20,1,0,,,,,,,,,,,,689655,,,,,,,
11500,set_tempo,20,1,0,,,,,,,,,,,,641711,,,,,,,
11520,note_on,0,0,2,,,,,,,,,,,,,,,0,,,76,79
11520,note_on,60,0,1,,,,,,,,,,,,,,,0,,,83,0
11520,note_on,120,0,2,,,,,,,,,,,,,,,0,,,71,0
11520,note_on,52,0,3,,,,,,,,,,,,,,,0,,,52,0
11520,control_change,0,0,3,,,,,,,,,,,,,,,0,64,127,,
11520,note_on,0,0,3,,,,,,,,,,,,,,,0,,,72,58
11520,set_tempo,20,1,0,,,,,,,,,,,,585366,,,,,,,
11580,note_on,60,0,1,,,,,,,,,,,,,,,0,,,88,56
11600,note_on,80,0,3,,,,,,,,,,,,,,,0,,,72,0
11600,note_on,0,0,3,,,,,,,,,,,,,,,0,,,66,46
11600,set_tempo,80,1,0,,,,,,,,,,,,582524,,,,,,,
11640,note_on,60,0,1,,,,,,,,,,,,,,,0,,,88,0
11640,note_on,0,0,1,,,,,,,,,,,,,,,0,,,83,62
11680,note_on,0,0,3,,,,,,,,,,,,,,,0,,,69,50
11680,note_on,80,0,3,,,,,,,,,,,,,,,0,,,66,0
11680,set_tempo,80,1,0,,,,,,,,,,,,579710,,,,,,,
11700,note_on,0,0,1,,,,,,,,,,,,,,,0,,,86,47
11700,note_on,60,0,1,,,,,,,,,,,,,,,0,,,83,0
11760,note_on,0,0,3,,,,,,,,,,,,,,,0,,,60,42
11760,note_on,60,0,1,,,,,,,,,,,,,,,0,,,86,0
11760,set_tempo,80,1,0,,,,,,,,,,,,576923,,,,,,,
11760,note_on,80,0,3,,,,,,,,,,,,,,,0,,,69,0
11760,note_on,0,0,1,,,,,,,,,,,,,,,0,,,84,55
11820,note_on,0,0,1,,,,,,,,,,,,,,,0,,,81,47
11820,note_on,60,0,1,,,,,,,,,,,,,,,0,,,84,0
11840,set_tempo,80,1,0,,,,,,,,,,,,574163,,,,,,,
11880,note_on,360,0,2,,,,,,,,,,,,,,,0,,,76,0
11880,note_on,0,0,2,,,,,,,,,,,,,,,0,,,78,59
11880,note_on,60,0,1,,,,,,,,,,,,,,,0,,,81,0
11920,set_tempo,80,1,0,,,,,,,,,,,,571429,,,,,,,
11940,note_on,60,0,1,,,,,,,,,,,,,,,0,,,90,51
11976,control_change,216,0,3,,,,,,,,,,,,,,,0,64,0,,
12000,note_on,120,0,2,,,,,,,,,,,,,,,0,,,78,0
12000,note_on,0,0,2,,,,,,,,,,,,,,,0,,,76,75
12000,set_tempo,80,1,0,,,,,,,,,,,,568720,,,,,,,
12000,note_on,24,0,3,,,,,,,,,,,,,,,0,,,60,0
12000,note_on,60,0,1,,,,,,,,,,,,,,,0,,,90,0
12000,note_on,0,0,3,,,,,,,,,,,,,,,0,,,71,59
12004,control_change,4,0,3,,,,,,,,,,,,,,,0,64,127,,
12060,note_on,60,0,1,,,,,,,,,,,,,,,0,,,88,51
12080,set_tempo,80,1,0,,,,,,,,,,,,566038,,,,,,,
12080,note_on,76,0,3,,,,,,,,,,,,,,,0,,,71,0
12080,note_on,0,0,3,,,,,,,,,,,,,,,0,,,66,46
12120,note_on,0,0,1,,,,,,,,,,,,,,,0,,,80,57
12120,note_on,60,0,1,,,,,,,,,,,,,,,0,,,88,0
12160,set_tempo,80,1,0,,,,,,,,,,,,563380,,,,,,,
12160,note_on,80,0,3,,,,,,,,,,,,,,,0,,,66,0
12160,note_on,0,0,3,,,,,,,,,,,,,,,0,,,69,50
12180,note_on,60,0,1,,,,,,,,,,,,,,,0,,,80,0
12180,note_on,0,0,1,,,,,,,,,,,,,,,0,,,83,44
12240,set_tempo,80,1,0,,,,,,,,,,,,560748,,,,,,,
12240,note_on,0,0,3,,,,,,,,,,,,,,,0,,,59,41
12240,note_on,80,0,3,,,,,,,,,,,,,,,0,,,69,0
12240,note_on,60,0,1,,,,,,,,,,,,,,,0,,,83,0
12240,note_on,0,0,1,,,,,,,,,,,,,,,0,,,81,52
12300,note_on,0,0,1,,,,,,,,,,,,,,,0,,,78,46
12300,note_on,60,0,1,,,,,,,,,,,,,,,0,,,81,0
12320,set_tempo,80,1,0,,,,,,,,,,,,558140,,,,,,,
12360,note_on,360,0,2,,,,,,,,,,,,,,,0,,,76,0
12360,note_on,60,0,1,,,,,,,,,,,,,,,0,,,78,0
12360,note_on,0,0,2,,,,,,,,,,,,,,,0,,,75,60
12400,set_tempo,80,1,0,,,,,,,,,,,,555556,,,,,,,
12420,note_on,60,0,1,,,,,,,,,,,,,,,0,,,87,50
12460,set_tempo,60,1,0,,,,,,,,,,,,552995,,,,,,,
12464,control_change,224,0,3,,,,,,,,,,,,,,,0,64,0,,
12480,note_on,120,0,2,,,,,,,,,,,,,,,0,,,75,0
12480,note_on,0,0,2,,,,,,,,,,,,,,,0,,,74,75
12480,note_on,60,0,1,,,,,,,,,,,,,,,0,,,87,0
12480,note_on,16,0,3,,,,,,,,,,,,,,,0,,,59,0
12480,note_on,0,0,3,,,,,,,,,,,,,,,0,,,70,57
12496,control_change,16,0,3,,,,,,,,,,,,,,,0,64,127,,
12500,set_tempo,40,1,0,,,,,,,,,,,,558140,,,,,,,
12540,note_on,60,0,1,,,,,,,,,,,,,,,0,,,86,44
12560,note_on,64,0,3,,,,,,,,,,,,,,,0,,,70,0
12560,note_on,0,0,3,,,,,,,,,,,,,,,0,,,65,46
12600,note_on,0,0,1,,,,,,,,,,,,,,,0,,,79,53
12600,set_tempo,100,1,0,,,,,,,,,,,,560748,,,,,,,
12600,note_on,60,0,1,,,,,,,,,,,,,,,0,,,86,0
12640,note_on,0,0,3,,,,,,,,,,,,,,,0,,,68,51
12640,note_on,80,0,3,,,,,,,,,,,,,,,0,,,65,0
12660,note_on,0,0,1,,,,,,,,,,,,,,,0,,,82,48
12660,note_on,60,0,1,,,,,,,,,,,,,,,0,,,79,0
12680,set_tempo,80,1,0,,,,,,,,,,,,563380,,,,,,,
12720,note_on,0,0,3,,,,,,,,,,,,,,,0,,,58,44
12720,note_on,0,0,1,,,,,,,,,,,,,,,0,,,80,50
12720,note_on,60,0,1,,,,,,,,,,,,,,,0,,,82,0
12720,note_on,80,0,3,,,,,,,,,,,,,,,0,,,68,0
12760,set_tempo,80,1,0,,,,,,,,,,,,566038,,,,,,,
12780,note_on,60,0,1,,,,,,,,,,,,,,,0,,,80,0
12780,note_on,0,0,1,,,,,,,,,,,,,,,0,,,77,47
12840,note_on,60,0,1,,,,,,,,,,,,,,,0,,,77,0
12840,note_on,0,0,2,,,,,,,,,,,,,,,0,,,76,55
12840,note_on,360,0,2,,,,,,,,,,,,,,,0,,,74,0
12860,set_tempo,100,1,0,,,,,,,,,,,,568720,,,,,,,
12900,note_on,60,0,1,,,,,,,,,,,,,,,0,,,88,47
12940,set_tempo,80,1,0,,,,,,,,,,,,571429,,,,,,,
12940,control_change,220,0,3,,,,,,,,,,,,,,,0,64,0,,
12960,note_on,60,0,1,,,,,,,,,,,,,,,0,,,88,0
12960,note_on,0,0,2,,,,,,,,,,,,,,,0,,,74,73
12960,note_on,0,0,3,,,,,,,,,,,,,,,0,,,69,57
12960,note_on,20,0,3,,,,,,,,,,,,,,,0,,,58,0
12960,note_on,120,0,2,,,,,,,,,,,,,,,0,,,76,0
12976,control_change,16,0,3,,,,,,,,,,,,,,,0,64,127,,
13020,note_on,60,0,1,,,,,,,,,,,,,,,0,,,86,42
13020,set_tempo,80,1,0,,,,,,,,,,,,574163,,,,,,,
13040,note_on,64,0,3,,,,,,,,,,,,,,,0,,,69,0
13040,note_on,0,0,3,,,,,,,,,,,,,,,0,,,64,45
13080,note_on,60,0,1,,,,,,,,,,,,,,,0,,,86,0
13080,note_on,0,0,1,,,,,,,,,,,,,,,0,,,78,47
13100,set_tempo,80,1,0,,,,,,,,,,,,576923,,,,,,,
13120,note_on,0,0,3,,,,,,,,,,,,,,,0,,,67,51
13120,note_on,80,0,3,,,,,,,,,,,,,,,0,,,64,0
13140,note_on,60,0,1,,,,,,,,,,,,,,,0,,,78,0
13140,note_on,0,0,1,,,,,,,,,,,,,,,0,,,81,42
13200,set_tempo,100,1,0,,,,,,,,,,,,579710,,,,,,,
13200,note_on,0,0,1,,,,,,,,,,,,,,,0,,,79,47
13200,note_on,60,0,1,,,,,,,,,,,,,,,0,,,81,0
13200,note_on,80,0,3,,,,,,,,,,,,,,,0,,,67,0
13200,note_on,0,0,3,,,,,,,,,,,,,,,0,,,57,40
13260,note_on,0,0,1,,,,,,,,,,,,,,,0,,,76,40
13260,note_on,60,0,1,,,,,,,,,,,,,,,0,,,79,0
13280,set_tempo,80,1,0,,,,,,,,,,,,582524,,,,,,,
13320,note_on,60,0,1,,,,,,,,,,,,,,,0,,,76,0
13320,note_on,0,0,2,,,,,,,,,,,,,,,0,,,73,55
13320,note_on,360,0,2,,,,,,,,,,,,,,,0,,,74,0
13360,set_tempo,80,1,0,,,,,,,,,,,,585366,,,,,,,
13380,note_on,60,0,1,,,,,,,,,,,,,,,0,,,85,45
13392,control_change,192,0,3,,,,,,,,,,,,,,,0,64,0,,
13440,set_tempo,80,1,0,,,,,,,,,,,,588235,,,,,,,
13440,note_on,0,0,2,,,,,,,,,,,,,,,0,,,72,76
13440,note_on,0,0,3,,,,,,,,,,,,,,,0,,,68,52
13440,control_change,0,0,3,,,,,,,,,,,,,,,0,64,127,,
13440,note_on,120,0,2,,,,,,,,,,,,,,,0,,,73,0
13440,note_on,60,0,1,,,,,,,,,,,,,,,0,,,85,0
13440,note_on,48,0,3,,,,,,,,,,,,,,,0,,,57,0
13500,note_on,60,0,1,,,,,,,,,,,,,,,0,,,84,44
13520,note_on,80,0,3,,,,,,,,,,,,,,,0,,,68,0
13520,note_on,0,0,3,,,,,,,,,,,,,,,0,,,63,46
13540,set_tempo,100,1,0,,,,,,,,,,,,606061,,,,,,,
13560,note_on,0,0,1,,,,,,,,,,,,,,,0,,,77,52
13560,note_on,60,0,1,,,,,,,,,,,,,,,0,,,84,0
13600,note_on,80,0,3,,,,,,,,,,,,,,,0,,,63,0
13600,note_on,0,0,3,,,,,,,,,,,,,,,0,,,66,51
13620,note_on,0,0,1,,,,,,,,,,,,,,,0,,,80,42
13620,note_on,60,0,1,,,,,,,,,,,,,,,0,,,77,0
13640,set_tempo,100,1,0,,,,,,,,,,,,609137,,,,,,,
13680,note_on,0,0,3,,,,,,,,,,,,,,,0,,,56,42
13680,note_on,0,0,1,,,,,,,,,,,,,,,0,,,78,48
13680,note_on,60,0,1,,,,,,,,,,,,,,,0,,,80,0
13680,note_on,80,0,3,,,,,,,,,,,,,,,0,,,66,0
13740,set_tempo,100,1,0,,,,,,,,,,,,612245,,,,,,,
13740,note_on,0,0,1,,,,,,,,,,,,,,,0,,,75,40
13740,note_on,60,0,1,,,,,,,,,,,,,,,0,,,78,0
13800,note_on,0,0,2,,,,,,,,,,,,,,,0,,,74,55
13800,note_on,60,0,1,,,,,,,,,,,,,,,0,,,75,0
13800,note_on,360,0,2,,,,,,,,,,,,,,,0,,,72,0
13840,set_tempo,100,1,0,,,,,,,,,,,,615385,,,,,,,
13860,note_on,60,0,1,,,,,,,,,,,,,,,0,,,86,40
13900,set_tempo,60,1,0,,,,,,,,,,,,618557,,,,,,,
13904,control_change,224,0,3,,,,,,,,,,,,,,,0,64,0,,
13920,note_on,120,0,2,,,,,,,,,,,,,,,0,,,74,0
13920,note_on,16,0,3,,,,,,,,,,,,,,,0,,,56,0
13920,note_on,0,0,3,,,,,,,,,,,,,,,0,,,67,55
13920,note_on,0,0,1,,,,,,,,,,,,,,,0,,,72,48
13920,note_on,60,0,1,,,,,,,,,,,,,,,0,,,86,0
13920,note_on,0,0,2,,,,,,,,,,,,,,,0,,,72,73
13936,control_change,16,0,3,,,,,,,,,,,,,,,0,64,127,,
13960,set_tempo,60,1,0,,,,,,,,,,,,621762,,,,,,,
13980,note_on,60,0,1,,,,,,,,,,,,,,,0,,,72,0
13980,note_on,0,0,1,,,,,,,,,,,,,,,0,,,84,42
14000,note_on,0,0,3,,,,,,,,,,,,,,,0,,,62,45
14000,note_on,64,0,3,,,,,,,,,,,,,,,0,,,67,0
14020,set_tempo,60,1,0,,,,,,,,,,,,625000,,,,,,,
14040,note_on,0,0,1,,,,,,,,,,,,,,,0,,,76,47
14040,note_on,60,0,1,,,,,,,,,,,,,,,0,,,84,0
14080,note_on,0,0,3,,,,,,,,,,,,,,,0,,,65,49
14080,note_on,80,0,3,,,,,,,,,,,,,,,0,,,62,0
14080,set_tempo,60,1,0,,,,,,,,,,,,628272,,,,,,,
14100,note_on,0,0,1,,,,,,,,,,,,,,,0,,,79,40
14100,note_on,60,0,1,,,,,,,,,,,,,,,0,,,76,0
14140,set_tempo,60,1,0,,,,,,,,,,,,631579,,,,,,,
14160,note_on,0,0,3,,,,,,,,,,,,,,,0,,,55,40
14160,note_on,80,0,3,,,,,,,,,,,,,,,0,,,65,0
14160,note_on,60,0,1,,,,,,,,,,,,,,,0,,,79,0
14160,note_on,0,0,1,,,,,,,,,,,,,,,0,,,77,47
14180,set_tempo,40,1,0,,,,,,,,,,,,634921,,,,,,,
14220,note_on,60,0,1,,,,,,,,,,,,,,,0,,,77,0
14220,note_on,0,0,1,,,,,,,,,,,,,,,0,,,74,40
14240,set_tempo,60,1,0,,,,,,,,,,,,638298,,,,,,,
14280,note_on,60,0,1,,,,,,,,,,,,,,,0,,,74,0
14280,note_on,0,0,1,,,,,,,,,,,,,,,0,,,71,47
14280,note_on,0,0,2,,,,,,,,,,,,,,,0,,,71,55
14280,note_on,360,0,2,,,,,,,,,,,,,,,0,,,72,0
14300,set_tempo,60,1,0,,,,,,,,,,,,641711,,,,,,,
14340,note_on,60,0,1,,,,,,,,,,,,,,,0,,,71,0
14340,note_on,0,0,1,,,,,,,,,,,,,,,0,,,83,40
14360,set_tempo,60,1,0,,,,,,,,,,,,645161,,,,,,,
14392,control_change,232,0,3,,,,,,,,,,,,,,,0,64,0,,
14400,note_on,120,0,2,,,,,,,,,,,,,,,0,,,71,0
14400,set_tempo,40,1,0,,,,,,,,,,,,648649,,,,,,,
14400,note_on,0,0,2,,,,,,,,,,,,,,,0,,,71,73
14400,note_on,8,0,3,,,,,,,,,,,,,,,0,,,55,0
14400,note_on,0,0,3,,,,,,,,,,,,,,,0,,,67,55
14400,note_on,60,0,1,,,,,,,,,,,,,,,0,,,83,0
14416,set_tempo,16,1,0,,,,,,,,,,,,652174,,,,,,,
14420,control_change,20,0,3,,,,,,,,,,,,,,,0,64,127,,
14456,set_tempo,40,1,0,,,,,,,,,,,,659341,,,,,,,
14460,note_on,60,0,1,,,,,,,,,,,,,,,0,,,83,37
14480,note_on,0,0,3,,,,,,,,,,,,,,,0,,,61,42
14480,note_on,60,0,3,,,,,,,,,,,,,,,0,,,67,0
14488,set_tempo,32,1,0,,,,,,,,,,,,666667,,,,,,,
14520,set_tempo,32,1,0,,,,,,,,,,,,674157,,,,,,,
14520,note_on,0,0,1,,,,,,,,,,,,,,,0,,,75,46
14520,note_on,60,0,1,,,,,,,,,,,,,,,0,,,83,0
14560,note_on,0,0,3,,,,,,,,,,,,,,,0,,,64,49
14560,set_tempo,40,1,0,,,,,,,,,,,,681818,,,,,,,
14560,note_on,80,0,3,,,,,,,,,,,,,,,0,,,61,0
14580,note_on,60,0,1,,,,,,,,,,,,,,,0,,,75,0
14580,note_on,0,0,1,,,,,,,,,,,,,,,0,,,78,36
14632,set_tempo,72,1,0,,,,,,,,,,,,689655,,,,,,,
14640,note_on,60,0,1,,,,,,,,,,,,,,,0,,,78,0
14640,note_on,0,0,1,,,,,,,,,,,,,,,0,,,76,45
14640,note_on,0,0,3,,,,,,,,,,,,,,,0,,,55,42
14640,note_on,80,0,3,,,,,,,,,,,,,,,0,,,64,0
14696,set_tempo,64,1,0,,,,,,,,,,,,697674,,,,,,,
14700,note_on,60,0,1,,,,,,,,,,,,,,,0,,,76,0
14700,note_on,0,0,1,,,,,,,,,,,,,,,0,,,73,37
14760,note_on,0,0,2,,,,,,,,,,,,,,,0,,,70,53
14760,note_on,360,0,2,,,,,,,,,,,,,,,0,,,71,0
14760,note_on,60,0,1,,,,,,,,,,,,,,,0,,,73,0
14792,set_tempo,96,1,0,,,,,,,,,,,,705882,,,,,,,
14820,note_on,60,0,1,,,,,,,,,,,,,,,0,,,82,42
14864,control_change,224,0,3,,,,,,,,,,,,,,,0,64,0,,
14880,note_on,0,0,2,,,,,,,,,,,,,,,0,,,70,67
14880,note_on,120,0,2,,,,,,,,,,,,,,,0,,,70,0
14880,note_on,60,0,1,,,,,,,,,,,,,,,0,,,82,0
14880,note_on,0,0,3,,,,,,,,,,,,,,,0,,,66,53
14880,note_on,16,0,3,,,,,,,,,,,,,,,0,,,55,0
14896,control_change,16,0,3,,,,,,,,,,,,,,,0,64,127,,
14936,set_tempo,144,1,0,,,,,,,,,,,,714286,,,,,,,
14940,note_on,60,0,1,,,,,,,,,,,,,,,0,,,82,37
14960,note_on,64,0,3,,,,,,,,,,,,,,,0,,,66,0
14960,note_on,0,0,3,,,,,,,,,,,,,,,0,,,61,40
15000,note_on,0,0,1,,,,,,,,,,,,,,,0,,,75,44
15000,note_on,60,0,1,,,,,,,,,,,,,,,0,,,82,0
15016,set_tempo,80,1,0,,,,,,,,,,,,722892,,,,,,,
15040,note_on,80,0,3,,,,,,,,,,,,,,,0,,,61,0
15040,note_on,0,0,3,,,,,,,,,,,,,,,0,,,64,47
15060,note_on,0,0,1,,,,,,,,,,,,,,,0,,,78,37
15060,note_on,60,0,1,,,,,,,,,,,,,,,0,,,75,0
15088,set_tempo,72,1,0,,,,,,,,,,,,731707,,,,,,,
15112,set_tempo,24,1,0,,,,,,,,,,,,740741,,,,,,,
15120,note_on,0,0,3,,,,,,,,,,,,,,,0,,,54,40
15120,note_on,80,0,3,,,,,,,,,,,,,,,0,,,64,0
15120,note_on,60,0,1,,,,,,,,,,,,,,,0,,,78,0
15120,note_on,0,0,1,,,,,,,,,,,,,,,0,,,76,44
15152,set_tempo,40,1,0,,,,,,,,,,,,750000,,,,,,,
15180,note_on,0,0,1,,,,,,,,,,,,,,,0,,,73,37
15180,note_on,60,0,1,,,,,,,,,,,,,,,0,,,76,0
15192,set_tempo,40,1,0,,,,,,,,,,,,759494,,,,,,,
15240,note_on,360,0,2,,,,,,,,,,,,,,,0,,,70,0
15240,note_on,0,0,2,,,,,,,,,,,,,,,0,,,70,58
15240,set_tempo,48,1,0,,,,,,,,,,,,769231,,,,,,,
15240,note_on,60,0,1,,,,,,,,,,,,,,,0,,,73,0
15280,set_tempo,40,1,0,,,,,,,,,,,,779221,,,,,,,
15300,note_on,60,0,1,,,,,,,,,,,,,,,0,,,82,42
15312,set_tempo,32,1,0,,,,,,,,,,,,789474,,,,,,,
15312,control_change,192,0,3,,,,,,,,,,,,,,,0,64,0,,
15360,set_tempo,48,1,0,,,,,,,,,,,,489796,,,,,,,
15360,control_change,0,0,3,,,,,,,,,,,,,,,0,64,127,,
15360,note_on,60,0,1,,,,,,,,,,,,,,,0,,,82,0
15360,note_on,0,0,2,,,,,,,,,,,,,,,0,,,70,81
15360,note_on,120,0,2,,,,,,,,,,,,,,,0,,,70,0
15360,note_on,48,0,3,,,,,,,,,,,,,,,0,,,54,0
15360,note_on,0,0,3,,,,,,,,,,,,,,,0,,,65,52
15420,note_on,60,0,1,,,,,,,,,,,,,,,0,,,83,54
15440,note_on,80,0,3,,,,,,,,,,,,,,,0,,,65,0
15440,note_on,0,0,3,,,,,,,,,,,,,,,0,,,58,40
15480,note_on,0,0,1,,,,,,,,,,,,,,,0,,,76,59
15480,note_on,60,0,1,,,,,,,,,,,,,,,0,,,83,0
15500,set_tempo,140,1,0,,,,,,,,,,,,491803,,,,,,,
15520,note_on,0,0,3,,,,,,,,,,,,,,,0,,,62,49
15520,note_on,80,0,3,,,,,,,,,,,,,,,0,,,58,0
15540,note_on,0,0,1,,,,,,,,,,,,,,,0,,,79,38
15540,note_on,60,0,1,,,,,,,,,,,,,,,0,,,76,0
15600,note_on,0,0,1,,,,,,,,,,,,,,,0,,,77,54
15600,note_on,60,0,1,,,,,,,,,,,,,,,0,,,79,0
15600,note_on,0,0,3,,,,,,,,,,,,,,,0,,,53,39
15600,note_on,80,0,3,,,,,,,,,,,,,,,0,,,62,0
15640,set_tempo,140,1,0,,,,,,,,,,,,493827,,,,,,,
15660,note_on,60,0,1,,,,,,,,,,,,,,,0,,,77,0
15660,note_on,0,0,1,,,,,,,,,,,,,,,0,,,74,44
15720,note_on,0,0,2,,,,,,,,,,,,,,,0,,,69,58
15720,note_on,360,0,2,,,,,,,,,,,,,,,0,,,70,0
15720,note_on,60,0,1,,,,,,,,,,,,,,,0,,,74,0
15760,set_tempo,120,1,0,,,,,,,,,,,,495868,,,,,,,
15780,note_on,60,0,1,,,,,,,,,,,,,,,0,,,81,44
15824,control_change,224,0,3,,,,,,,,,,,,,,,0,64,0,,
15840,note_on,120,0,2,,,,,,,,,,,,,,,0,,,69,0
15840,note_on,0,0,2,,,,,,,,,,,,,,,0,,,69,78
15840,note_on,16,0,3,,,,,,,,,,,,,,,0,,,53,0
15840,note_on,0,0,3,,,,,,,,,,,,,,,0,,,65,51
15840,note_on,60,0,1,,,,,,,,,,,,,,,0,,,81,0
15848,control_change,8,0,3,,,,,,,,,,,,,,,0,64,127,,
15900,note_on,60,0,1,,,,,,,,,,,,,,,0,,,81,46
15900,set_tempo,140,1,0,,,,,,,,,,,,497925,,,,,,,
15920,note_on,0,0,3,,,,,,,,,,,,,,,0,,,59,41
15920,note_on,72,0,3,,,,,,,,,,,,,,,0,,,65,0
15960,note_on,60,0,1,,,,,,,,,,,,,,,0,,,81,0
15960,note_on,0,0,1,,,,,,,,,,,,,,,0,,,73,56
16000,note_on,80,0,3,,,,,,,,,,,,,,,0,,,59,0
16000,note_on,0,0,3,,,,,,,,,,,,,,,0,,,62,48
16020,note_on,60,0,1,,,,,,,,,,,,,,,0,,,73,0
16020,set_tempo,120,1,0,,,,,,,,,,,,500000,,,,,,,
16020,note_on,0,0,1,,,,,,,,,,,,,,,0,,,76,37
16080,note_on,0,0,3,,,,,,,,,,,,,,,0,,,53,41
16080,note_on,80,0,3,,,,,,,,,,,,,,,0,,,62,0
16080,note_on,60,0,1,,,,,,,,,,,,,,,0,,,76,0
16080,note_on,0,0,1,,,,,,,,,,,,,,,0,,,74,50
16140,note_on,60,0,1,,,,,,,,,,,,,,,0,,,74,0
16140,note_on,0,0,1,,,,,,,,,,,,,,,0,,,71,44
16160,set_tempo,140,1,0,,,,,,,,,,,,502092,,,,,,,
16200,note_on,60,0,1,,,,,,,,,,,,,,,0,,,71,0
16200,note_on,0,0,2,,,,,,,,,,,,,,,0,,,68,58
16200,note_on,360,0,2,,,,,,,,,,,,,,,0,,,69,0
16260,note_on,60,0,1,,,,,,,,,,,,,,,0,,,80,44
16280,set_tempo,120,1,0,,,,,,,,,,,,504202,,,,,,,
16304,control_change,224,0,3,,,,,,,,,,,,,,,0,64,0,,
16320,note_on,120,0,2,,,,,,,,,,,,,,,0,,,68,0
16320,note_on,0,0,2,,,,,,,,,,,,,,,0,,,68,83
16320,note_on,60,0,1,,,,,,,,,,,,,,,0,,,80,0
16320,note_on,0,0,3,,,,,,,,,,,,,,,0,,,65,53
16320,note_on,16,0,3,,,,,,,,,,,,,,,0,,,53,0
16336,control_change,16,0,3,,,,,,,,,,,,,,,0,64,127,,
16380,note_on,60,0,1,,,,,,,,,,,,,,,0,,,80,38
16400,note_on,64,0,3,,,,,,,,,,,,,,,0,,,65,0
16400,note_on,0,0,3,,,,,,,,,,,,,,,0,,,55,42
16420,set_tempo,140,1,0,,,,,,,,,,,,506329,,,,,,,
16440,note_on,0,0,1,,,,,,,,,,,,,,,0,,,73,50
16440,note_on,60,0,1,,,,,,,,,,,,,,,0,,,80,0
16480,note_on,0,0,3,,,,,,,,,,,,,,,0,,,59,49
16480,note_on,80,0,3,,,,,,,,,,,,,,,0,,,55,0
16500,note_on,0,0,1,,,,,,,,,,,,,,,0,,,75,38
16500,note_on,60,0,1,,,,,,,,,,,,,,,0,,,73,0
16540,set_tempo,120,1,0,,,,,,,,,,,,508475,,,,,,,
16560,note_on,0,0,3,,,,,,,,,,,,,,,0,,,53,41
16560,note_on,60,0,1,,,,,,,,,,,,,,,0,,,75,0
16560,note_on,0,0,1,,,,,,,,,,,,,,,0,,,74,45
16560,note_on,80,0,3,,,,,,,,,,,,,,,0,,,59,0
16620,note_on,0,0,1,,,,,,,,,,,,,,,0,,,71,40
16620,note_on,60,0,1,,,,,,,,,,,,,,,0,,,74,0
16680,note_on,0,0,2,,,,,,,,,,,,,,,0,,,67,62
16680,note_on,60,0,1,,,,,,,,,,,,,,,0,,,71,0
16680,note_on,360,0,2,,,,,,,,,,,,,,,0,,,68,0
16680,set_tempo,140,1,0,,,,,,,,,,,,510638,,,,,,,
16740,note_on,60,0,1,,,,,,,,,,,,,,,0,,,79,46
16784,control_change,224,0,3,,,,,,,,,,,,,,,0,64,0,,
16800,note_on,60,0,1,,,,,,,,,,,,,,,0,,,79,0
16800,note_on,0,0,2,,,,,,,,,,,,,,,0,,,67,80
16800,note_on,0,0,3,,,,,,,,,,,,,,,0,,,63,53
16800,note_on,120,0,2,,,,,,,,,,,,,,,0,,,67,0
16800,note_on,16,0,3,,,,,,,,,,,,,,,0,,,53,0
16800,set_tempo,120,1,0,,,,,,,,,,,,512821,,,,,,,
16816,control_change,16,0,3,,,,,,,,,,,,,,,0,64,127,,
16820,set_tempo,20,1,0,,,,,,,,,,,,563380,,,,,,,
16860,note_on,60,0,1,,,,,,,,,,,,,,,0,,,79,42
16880,note_on,64,0,3,,,,,,,,,,,,,,,0,,,63,0
16880,note_on,0,0,3,,,,,,,,,,,,,,,0,,,55,45
16920,note_on,0,0,1,,,,,,,,,,,,,,,0,,,74,46
16920,note_on,60,0,1,,,,,,,,,,,,,,,0,,,79,0
16960,note_on,80,0,3,,,,,,,,,,,,,,,0,,,55,0
16960,note_on,0,0,3,,,,,,,,,,,,,,,0,,,60,50
16980,note_on,60,0,1,,,,,,,,,,,,,,,0,,,74,0
16980,note_on,0,0,1,,,,,,,,,,,,,,,0,,,76,42
17040,note_on,0,0,3,,,,,,,,,,,,,,,0,,,53,41
17040,note_on,80,0,3,,,,,,,,,,,,,,,0,,,60,0
17040,note_on,60,0,1,,,,,,,,,,,,,,,0,,,76,0
17040,note_on,0,0,1,,,,,,,,,,,,,,,0,,,75,47
17100,note_on,60,0,1,,,,,,,,,,,,,,,0,,,75,0
17100,note_on,0,0,1,,,,,,,,,,,,,,,0,,,74,46
17140,set_tempo,320,1,0,,,,,,,,,,,,552995,,,,,,,
17160,note_on,360,0,2,,,,,,,,,,,,,,,0,,,67,0
17160,note_on,60,0,1,,,,,,,,,,,,,,,0,,,74,0
17160,note_on,0,0,2,,,,,,,,,,,,,,,0,,,72,62
17220,note_on,60,0,1,,,,,,,,,,,,,,,0,,,84,46
17220,set_tempo,80,1,0,,,,,,,,,,,,555556,,,,,,,
17228,control_change,188,0,3,,,,,,,,,,,,,,,0,64,0,,
17280,note_on,60,0,1,,,,,,,,,,,,,,,0,,,84,0
17280,note_on,0,0,3,,,,,,,,,,,,,,,0,,,67,56
17280,control_change,0,0,3,,,,,,,,,,,,,,,0,64,127,,
17280,note_on,52,0,3,,,,,,,,,,,,,,,0,,,53,0
17280,set_tempo,60,1,0,,,,,,,,,,,,558140,,,,,,,
17280,note_on,120,0,2,,,,,,,,,,,,,,,0,,,72,0
17280,note_on,0,0,2,,,,,,,,,,,,,,,0,,,72,85
17288,set_tempo,8,1,0,,,,,,,,,,,,600000,,,,,,,
17300,set_tempo,12,1,0,,,,,,,,,,,,519481,,,,,,,
17340,note_on,60,0,1,,,,,,,,,,,,,,,0,,,84,53
17360,note_on,80,0,3,,,,,,,,,,,,,,,0,,,67,0
17360,note_on,0,0,3,,,,,,,,,,,,,,,0,,,60,46
17380,set_tempo,80,1,0,,,,,,,,,,,,521739,,,,,,,
17400,note_on,60,0,1,,,,,,,,,,,,,,,0,,,84,0
17400,note_on,0,0,1,,,,,,,,,,,,,,,0,,,78,61
17440,note_on,0,0,3,,,,,,,,,,,,,,,0,,,63,50
17440,note_on,80,0,3,,,,,,,,,,,,,,,0,,,60,0
17460,note_on,0,0,1,,,,,,,,,,,,,,,0,,,80,42
17460,note_on,60,0,1,,,,,,,,,,,,,,,0,,,78,0
17460,set_tempo,80,1,0,,,,,,,,,,,,524017,,,,,,,
17520,note_on,60,0,1,,,,,,,,,,,,,,,0,,,80,0
17520,note_on,0,0,1,,,,,,,,,,,,,,,0,,,79,48
17520,note_on,80,0,3,,,,,,,,,,,,,,,0,,,63,0
17520,note_on,0,0,3,,,,,,,,,,,,,,,0,,,53,40
17540,set_tempo,80,1,0,,,,,,,,,,,,526316,,,,,,,
17580,note_on,0,0,1,,,,,,,,,,,,,,,0,,,75,44
17580,note_on,60,0,1,,,,,,,,,,,,,,,0,,,79,0
17620,set_tempo,80,1,0,,,,,,,,,,,,528634,,,,,,,
17640,note_on,360,0,2,,,,,,,,,,,,,,,0,,,72,0
17640,note_on,0,0,2,,,,,,,,,,,,,,,0,,,71,66
17640,note_on,60,0,1,,,,,,,,,,,,,,,0,,,75,0
17700,set_tempo,80,1,0,,,,,,,,,,,,530973,,,,,,,
17700,note_on,60,0,1,,,,,,,,,,,,,,,0,,,83,48
17748,control_change,228,0,3,,,,,,,,,,,,,,,0,64,0,,
17760,note_on,12,0,3,,,,,,,,,,,,,,,0,,,53,0
17760,note_on,0,0,3,,,,,,,,,,,,,,,0,,,67,55
17760,note_on,60,0,1,,,,,,,,,,,,,,,0,,,83,0
17760,note_on,0,0,2,,,,,,,,,,,,,,,0,,,71,82
17760,note_on,120,0,2,,,,,,,,,,,,,,,0,,,71,0
17780,set_tempo,80,1,0,,,,,,,,,,,,530973,,,,,,,
17780,control_change,20,0,3,,,,,,,,,,,,,,,0,64,127,,
17820,note_on,60,0,1,,,,,,,,,,,,,,,0,,,83,51
17840,set_tempo,60,1,0,,,,,,,,,,,,533333,,,,,,,
17840,note_on,0,0,3,,,,,,,,,,,,,,,0,,,61,45
17840,note_on,60,0,3,,,,,,,,,,,,,,,0,,,67,0
17880,note_on,60,0,1,,,,,,,,,,,,,,,0,,,83,0
17880,note_on,0,0,1,,,,,,,,,,,,,,,0,,,75,62
17900,set_tempo,60,1,0,,,,,,,,,,,,535714,,,,,,,
17920,note_on,0,0,3,,,,,,,,,,,,,,,0,,,64,51
17920,note_on,80,0,3,,,,,,,,,,,,,,,0,,,61,0
17940,note_on,60,0,1,,,,,,,,,,,,,,,0,,,75,0
17940,note_on,0,0,1,,,,,,,,,,,,,,,0,,,78,45
17960,set_tempo,60,1,0,,,,,,,,,,,,538117,,,,,,,
18000,note_on,80,0,3,,,,,,,,,,,,,,,0,,,64,0
18000,set_tempo,40,1,0,,,,,,,,,,,,540541,,,,,,,
18000,note_on,0,0,3,,,,,,,,,,,,,,,0,,,53,39
18000,note_on,60,0,1,,,,,,,,,,,,,,,0,,,78,0
18000,note_on,0,0,1,,,,,,,,,,,,,,,0,,,76,52
18060,note_on,60,0,1,,,,,,,,,,,,,,,0,,,76,0
18060,note_on,0,0,1,,,,,,,,,,,,,,,0,,,73,45
18060,set_tempo,60,1,0,,,,,,,,,,,,542986,,,,,,,
18120,set_tempo,60,1,0,,,,,,,,,,,,545455,,,,,,,
18120,note_on,60,0,1,,,,,,,,,,,,,,,0,,,73,0
18120,note_on,360,0,2,,,,,,,,,,,,,,,0,,,71,0
18120,note_on,0,0,2,,,,,,,,,,,,,,,0,,,70,61
18160,set_tempo,40,1,0,,,,,,,,,,,,547945,,,,,,,
18180,note_on,60,0,1,,,,,,,,,,,,,,,0,,,82,50
18220,set_tempo,60,1,0,,,,,,,,,,,,550459,,,,,,,
18224,control_change,224,0,3,,,,,,,,,,,,,,,0,64,0,,
18240,note_on,16,0,3,,,,,,,,,,,,,,,0,,,53,0
18240,note_on,0,0,3,,,,,,,,,,,,,,,0,,,67,55
18240,note_on,60,0,1,,,,,,,,,,,,,,,0,,,82,0
18240,note_on,120,0,2,,,,,,,,,,,,,,,0,,,70,0
18240,note_on,0,0,2,,,,,,,,,,,,,,,0,,,70,84
18256,control_change,16,0,3,,,,,,,,,,,,,,,0,64,127,,
18280,set_tempo,60,1,0,,,,,,,,,,,,552995,,,,,,,
18300,note_on,60,0,1,,,,,,,,,,,,,,,0,,,82,46
18320,note_on,64,0,3,,,,,,,,,,,,,,,0,,,67,0
18320,note_on,0,0,3,,,,,,,,,,,,,,,0,,,57,48
18340,set_tempo,60,1,0,,,,,,,,,,,,555556,,,,,,,
18360,note_on,0,0,1,,,,,,,,,,,,,,,0,,,75,55
18360,note_on,60,0,1,,,,,,,,,,,,,,,0,,,82,0
18380,set_tempo,40,1,0,,,,,,,,,,,,558140,,,,,,,
18400,note_on,0,0,3,,,,,,,,,,,,,,,0,,,61,52
18400,note_on,80,0,3,,,,,,,,,,,,,,,0,,,57,0
18420,note_on,60,0,1,,,,,,,,,,,,,,,0,,,75,0
18420,note_on,0,0,1,,,,,,,,,,,,,,,0,,,77,48
18440,set_tempo,60,1,0,,,,,,,,,,,,560748,,,,,,,
18480,note_on,80,0,3,,,,,,,,,,,,,,,0,,,61,0
18480,note_on,0,0,3,,,,,,,,,,,,,,,0,,,53,40
18480,note_on,60,0,1,,,,,,,,,,,,,,,0,,,77,0
18480,note_on,0,0,1,,,,,,,,,,,,,,,0,,,76,55
18500,set_tempo,60,1,0,,,,,,,,,,,,563380,,,,,,,
18540,set_tempo,40,1,0,,,,,,,,,,,,566038,,,,,,,
18540,note_on,0,0,1,,,,,,,,,,,,,,,0,,,73,47
18540,note_on,60,0,1,,,,,,,,,,,,,,,0,,,76,0
18600,set_tempo,60,1,0,,,,,,,,,,,,568720,,,,,,,
18600,note_on,360,0,2,,,,,,,,,,,,,,,0,,,70,0
18600,note_on,0,0,2,,,,,,,,,,,,,,,0,,,69,62
18600,note_on,60,0,1,,,,,,,,,,,,,,,0,,,73,0
18660,note_on,60,0,1,,,,,,,,,,,,,,,0,,,81,51
18660,set_tempo,60,1,0,,,,,,,,,,,,571429,,,,,,,
18700,control_change,220,0,3,,,,,,,,,,,,,,,0,64,0,,
18700,set_tempo,40,1,0,,,,,,,,,,,,574163,,,,,,,
18720,note_on,0,0,2,,,,,,,,,,,,,,,0,,,69,82
18720,note_on,120,0,2,,,,,,,,,,,,,,,0,,,69,0
18720,set_tempo,20,1,0,,,,,,,,,,,,625000,,,,,,,
18720,note_on,0,0,3,,,,,,,,,,,,,,,0,,,65,56
18720,note_on,20,0,3,,,,,,,,,,,,,,,0,,,53,0
18720,note_on,60,0,1,,,,,,,,,,,,,,,0,,,81,0
18732,control_change,12,0,3,,,,,,,,,,,,,,,0,64,127,,
18740,set_tempo,20,1,0,,,,,,,,,,,,701754,,,,,,,
18780,note_on,60,0,1,,,,,,,,,,,,,,,0,,,81,47
18800,note_on,68,0,3,,,,,,,,,,,,,,,0,,,65,0
18800,note_on,0,0,3,,,,,,,,,,,,,,,0,,,57,50
18840,note_on,60,0,1,,,,,,,,,,,,,,,0,,,81,0
18840,note_on,0,0,1,,,,,,,,,,,,,,,0,,,76,59
18880,note_on,80,0,3,,,,,,,,,,,,,,,0,,,57,0
18880,note_on,0,0,3,,,,,,,,,,,,,,,0,,,62,52
18900,note_on,60,0,1,,,,,,,,,,,,,,,0,,,76,0
18900,note_on,0,0,1,,,,,,,,,,,,,,,0,,,79,50
18960,note_on,80,0,3,,,,,,,,,,,,,,,0,,,62,0
18960,note_on,0,0,3,,,,,,,,,,,,,,,0,,,53,47
18960,note_on,0,0,1,,,,,,,,,,,,,,,0,,,77,56
18960,note_on,60,0,1,,,,,,,,,,,,,,,0,,,79,0
19020,note_on,60,0,1,,,,,,,,,,,,,,,0,,,77,0
19020,note_on,0,0,1,,,,,,,,,,,,,,,0,,,76,48
19080,note_on,0,0,2,,,,,,,,,,,,,,,0,,,74,70
19080,note_on,360,0,2,,,,,,,,,,,,,,,0,,,69,0
19080,note_on,60,0,1,,,,,,,,,,,,,,,0,,,76,0
19140,note_on,60,0,1,,,,,,,,,,,,,,,0,,,86,52
19156,control_change,196,0,3,,,,,,,,,,,,,,,0,64,0,,
19200,note_on,0,0,2,,,,,,,,,,,,,,,0,,,74,90
19200,note_on,120,0,2,,,,,,,,,,,,,,,0,,,74,0
19200,set_tempo,460,1,0,,,,,,,,,,,,603015,,,,,,,
19200,note_on,0,0,3,,,,,,,,,,,,,,,0,,,65,61
19200,control_change,0,0,3,,,,,,,,,,,,,,,0,64,127,,
19200,note_on,44,0,3,,,,,,,,,,,,,,,0,,,53,0
19200,note_on,60,0,1,,,,,,,,,,,,,,,0,,,86,0
19260,note_on,60,0,1,,,,,,,,,,,,,,,0,,,86,58
19280,note_on,80,0,3,,,,,,,,,,,,,,,0,,,65,0
19280,note_on,0,0,3,,,,,,,,,,,,,,,0,,,57,51
19320,note_on,60,0,1,,,,,,,,,,,,,,,0,,,86,0
19320,note_on,0,0,1,,,,,,,,,,,,,,,0,,,76,68
19360,set_tempo,160,1,0,,,,,,,,,,,,600000,,,,,,,
19360,note_on,0,0,3,,,,,,,,,,,,,,,0,,,63,57
19360,note_on,80,0,3,,,,,,,,,,,,,,,0,,,57,0
19380,note_on,0,0,1,,,,,,,,,,,,,,,0,,,79,47
19380,note_on,60,0,1,,,,,,,,,,,,,,,0,,,76,0
19440,note_on,0,0,1,,,,,,,,,,,,,,,0,,,77,56
19440,note_on,60,0,1,,,,,,,,,,,,,,,0,,,79,0
19440,note_on,80,0,3,,,,,,,,,,,,,,,0,,,63,0
19440,note_on,0,0,3,,,,,,,,,,,,,,,0,,,53,48
19500,note_on,0,0,1,,,,,,,,,,,,,,,0,,,75,47
19500,note_on,60,0,1,,,,,,,,,,,,,,,0,,,77,0
19520,set_tempo,160,1,0,,,,,,,,,,,,603015,,,,,,,
19560,note_on,360,0,2,,,,,,,,,,,,,,,0,,,74,0
19560,note_on,0,0,2,,,,,,,,,,,,,,,0,,,72,70
19560,note_on,60,0,1,,,,,,,,,,,,,,,0,,,75,0
19620,note_on,60,0,1,,,,,,,,,,,,,,,0,,,84,55
19644,control_change,204,0,3,,,,,,,,,,,,,,,0,64,0,,
19680,note_on,36,0,3,,,,,,,,,,,,,,,0,,,53,0
19680,set_tempo,160,1,0,,,,,,,,,,,,606061,,,,,,,
19680,note_on,0,0,2,,,,,,,,,,,,,,,0,,,72,83
19680,note_on,120,0,2,,,,,,,,,,,,,,,0,,,72,0
19680,note_on,0,0,3,,,,,,,,,,,,,,,0,,,62,62
19680,note_on,60,0,1,,,,,,,,,,,,,,,0,,,84,0
19692,control_change,12,0,3,,,,,,,,,,,,,,,0,64,127,,
19740,note_on,60,0,1,,,,,,,,,,,,,,,0,,,84,55
19760,note_on,68,0,3,,,,,,,,,,,,,,,0,,,62,0
19760,note_on,0,0,3,,,,,,,,,,,,,,,0,,,53,49
19800,note_on,0,0,1,,,,,,,,,,,,,,,0,,,76,66
19800,note_on,60,0,1,,,,,,,,,,,,,,,0,,,84,0
19840,set_tempo,160,1,0,,,,,,,,,,,,609137,,,,,,,
19840,note_on,80,0,3,,,,,,,,,,,,,,,0,,,53,0
19840,note_on,0,0,3,,,,,,,,,,,,,,,0,,,58,57
19860,note_on,0,0,1,,,,,,,,,,,,,,,0,,,79,50
19860,note_on,60,0,1,,,,,,,,,,,,,,,0,,,76,0
19920,note_on,80,0,3,,,,,,,,,,,,,,,0,,,58,0
19920,note_on,0,0,3,,,,,,,,,,,,,,,0,,,46,47
19920,note_on,60,0,1,,,,,,,,,,,,,,,0,,,79,0
19920,note_on,0,0,1,,,,,,,,,,,,,,,0,,,77,56
19980,note_on,0,0,1,,,,,,,,,,,,,,,0,,,74,47
19980,note_on,60,0,1,,,,,,,,,,,,,,,0,,,77,0
20000,set_tempo,160,1,0,,,,,,,,,,,,612245,,,,,,,
20040,note_on,0,0,2,,,,,,,,,,,,,,,0,,,70,66
20040,note_on,360,0,2,,,,,,,,,,,,,,,0,,,72,0
20040,note_on,60,0,1,,,,,,,,,,,,,,,0,,,74,0
20100,note_on,60,0,1,,,,,,,,,,,,,,,0,,,82,55
20140,set_tempo,140,1,0,,,,,,,,,,,,612245,,,,,,,
20140,control_change,220,0,3,,,,,,,,,,,,,,,0,64,0,,
20160,note_on,60,0,1,,,,,,,,,,,,,,,0,,,82,0
20160,note_on,0,0,3,,,,,,,,,,,,,,,0,,,62,58
20160,note_on,20,0,3,,,,,,,,,,,,,,,0,,,46,0
20160,note_on,120,0,2,,,,,,,,,,,,,,,0,,,70,0
20160,note_on,0,0,2,,,,,,,,,,,,,,,0,,,70,93
20164,control_change,4,0,3,,,,,,,,,,,,,,,0,64,127,,
20200,set_tempo,60,1,0,,,,,,,,,,,,615385,,,,,,,
20220,note_on,60,0,1,,,,,,,,,,,,,,,0,,,82,50
20240,note_on,76,0,3,,,,,,,,,,,,,,,0,,,62,0
20240,note_on,0,0,3,,,,,,,,,,,,,,,0,,,54,51
20260,set_tempo,60,1,0,,,,,,,,,,,,618557,,,,,,,
20280,note_on,60,0,1,,,,,,,,,,,,,,,0,,,82,0
20280,note_on,0,0,1,,,,,,,,,,,,,,,0,,,73,60
20320,note_on,80,0,3,,,,,,,,,,,,,,,0,,,54,0
20320,set_tempo,60,1,0,,,,,,,,,,,,621762,,,,,,,
20320,note_on,0,0,3,,,,,,,,,,,,,,,0,,,60,58
20340,note_on,60,0,1,,,,,,,,,,,,,,,0,,,73,0
20340,note_on,0,0,1,,,,,,,,,,,,,,,0,,,75,48
20360,set_tempo,40,1,0,,,,,,,,,,,,625000,,,,,,,
20400,note_on,0,0,3,,,,,,,,,,,,,,,0,,,50,49
20400,note_on,0,0,1,,,,,,,,,,,,,,,0,,,74,57
20400,note_on,60,0,1,,,,,,,,,,,,,,,0,,,75,0
20400,note_on,80,0,3,,,,,,,,,,,,,,,0,,,60,0
20420,set_tempo,60,1,0,,,,,,,,,,,,628272,,,,,,,
20460,note_on,0,0,1,,,,,,,,,,,,,,,0,,,72,46
20460,note_on,60,0,1,,,,,,,,,,,,,,,0,,,74,0
20480,set_tempo,60,1,0,,,,,,,,,,,,631579,,,,,,,
20520,note_on,0,0,2,,,,,,,,,,,,,,,0,,,69,70
20520,note_on,360,0,2,,,,,,,,,,,,,,,0,,,70,0
20520,note_on,60,0,1,,,,,,,,,,,,,,,0,,,72,0
20540,set_tempo,60,1,0,,,,,,,,,,,,634921,,,,,,,
20580,set_tempo,40,1,0,,,,,,,,,,,,638298,,,,,,,
20580,note_on,60,0,1,,,,,,,,,,,,,,,0,,,81,55
20624,control_change,224,0,3,,,,,,,,,,,,,,,0,64,0,,
20640,note_on,0,0,2,,,,,,,,,,,,,,,0,,,69,88
20640,note_on,120,0,2,,,,,,,,,,,,,,,0,,,69,0
20640,note_on,60,0,1,,,,,,,,,,,,,,,0,,,81,0
20640,note_on,16,0,3,,,,,,,,,,,,,,,0,,,50,0
20640,note_on,0,0,3,,,,,,,,,,,,,,,0,,,58,61
20640,set_tempo,60,1,0,,,,,,,,,,,,641711,,,,,,,
20656,control_change,16,0,3,,,,,,,,,,,,,,,0,64,127,,
20700,note_on,60,0,1,,,,,,,,,,,,,,,0,,,81,50
20700,set_tempo,60,1,0,,,,,,,,,,,,645161,,,,,,,
20720,note_on,64,0,3,,,,,,,,,,,,,,,0,,,58,0
20720,note_on,0,0,3,,,,,,,,,,,,,,,0,,,50,50
20740,set_tempo,40,1,0,,,,,,,,,,,,648649,,,,,,,
20760,note_on,60,0,1,,,,,,,,,,,,,,,0,,,81,0
20760,note_on,0,0,1,,,,,,,,,,,,,,,0,,,73,59
20800,note_on,0,0,3,,,,,,,,,,,,,,,0,,,55,56
20800,set_tempo,60,1,0,,,,,,,,,,,,652174,,,,,,,
20800,note_on,80,0,3,,,,,,,,,,,,,,,0,,,50,0
20820,note_on,0,0,1,,,,,,,,,,,,,,,0,,,75,50
20820,note_on,60,0,1,,,,,,,,,,,,,,,0,,,73,0
20860,set_tempo,60,1,0,,,,,,,,,,,,655738,,,,,,,
20880,note_on,60,0,1,,,,,,,,,,,,,,,0,,,75,0
20880,note_on,80,0,3,,,,,,,,,,,,,,,0,,,55,0
20880,note_on,0,0,3,,,,,,,,,,,,,,,0,,,43,45
20880,note_on,0,0,1,,,,,,,,,,,,,,,0,,,74,60
20920,set_tempo,60,1,0,,,,,,,,,,,,659341,,,,,,,
20940,note_on,60,0,1,,,,,,,,,,,,,,,0,,,74,0
20940,note_on,0,0,1,,,,,,,,,,,,,,,0,,,71,50
20960,set_tempo,40,1,0,,,,,,,,,,,,662983,,,,,,,
21000,note_on,360,0,2,,,,,,,,,,,,,,,0,,,69,0
21000,note_on,0,0,2,,,,,,,,,,,,,,,0,,,67,72
21000,note_on,60,0,1,,,,,,,,,,,,,,,0,,,71,0
21020,set_tempo,60,1,0,,,,,,,,,,,,666667,,,,,,,
21060,note_on,60,0,1,,,,,,,,,,,,,,,0,,,79,57
21080,set_tempo,60,1,0,,,,,,,,,,,,670391,,,,,,,
21080,control_change,200,0,3,,,,,,,,,,,,,,,0,64,0,,
21100,set_tempo,20,1,0,,,,,,,,,,,,526316,,,,,,,
21120,note_on,120,0,2,,,,,,,,,,,,,,,0,,,67,0
21120,note_on,0,0,2,,,,,,,,,,,,,,,0,,,67,93
21120,set_tempo,20,1,0,,,,,,,,,,,,533333,,,,,,,
21120,note_on,0,0,3,,,,,,,,,,,,,,,0,,,58,62
21120,note_on,40,0,3,,,,,,,,,,,,,,,0,,,43,0
21120,control_change,0,0,3,,,,,,,,,,,,,,,0,64,127,,
21120,note_on,60,0,1,,,,,,,,,,,,,,,0,,,79,0
21180,note_on,60,0,1,,,,,,,,,,,,,,,0,,,79,51
21200,note_on,80,0,3,,,,,,,,,,,,,,,0,,,58,0
21200,note_on,0,0,3,,,,,,,,,,,,,,,0,,,50,56
21240,note_on,60,0,1,,,,,,,,,,,,,,,0,,,79,0
21240,note_on,0,0,1,,,,,,,,,,,,,,,0,,,69,68
21280,note_on,80,0,3,,,,,,,,,,,,,,,0,,,50,0
21280,note_on,0,0,3,,,,,,,,,,,,,,,0,,,56,63
21300,note_on,0,0,1,,,,,,,,,,,,,,,0,,,72,51
21300,note_on,60,0,1,,,,,,,,,,,,,,,0,,,69,0
21360,note_on,0,0,1,,,,,,,,,,,,,,,0,,,70,60
21360,note_on,60,0,1,,,,,,,,,,,,,,,0,,,72,0
21360,note_on,0,0,3,,,,,,,,,,,,,,,0,,,46,53
21360,note_on,80,0,3,,,,,,,,,,,,,,,0,,,56,0
21420,note_on,0,0,1,,,,,,,,,,,,,,,0,,,68,51
21420,note_on,60,0,1,,,,,,,,,,,,,,,0,,,70,0
21480,note_on,360,0,2,,,,,,,,,,,,,,,0,,,67,0
21480,note_on,0,0,2,,,,,,,,,,,,,,,0,,,65,77
21480,note_on,60,0,1,,,,,,,,,,,,,,,0,,,68,0
21540,note_on,60,0,1,,,,,,,,,,,,,,,0,,,77,59
21580,set_tempo,460,1,0,,,,,,,,,,,,568720,,,,,,,
21584,control_change,224,0,3,,,,,,,,,,,,,,,0,64,0,,
21600,note_on,120,0,2,,,,,,,,,,,,,,,0,,,65,0
21600,note_on,0,0,2,,,,,,,,,,,,,,,0,,,64,90
21600,note_on,60,0,1,,,,,,,,,,,,,,,0,,,77,0
21600,note_on,0,0,3,,,,,,,,,,,,,,,0,,,58,62
21600,note_on,16,0,3,,,,,,,,,,,,,,,0,,,46,0
21600,set_tempo,20,1,0,,,,,,,,,,,,568720,,,,,,,
21612,control_change,12,0,3,,,,,,,,,,,,,,,0,64,127,,
21660,note_on,60,0,1,,,,,,,,,,,,,,,0,,,76,50
21680,note_on,0,0,3,,,,,,,,,,,,,,,0,,,50,58
21680,note_on,68,0,3,,,,,,,,,,,,,,,0,,,58,0
21720,note_on,0,0,1,,,,,,,,,,,,,,,0,,,69,67
21720,note_on,60,0,1,,,,,,,,,,,,,,,0,,,76,0
21760,note_on,80,0,3,,,,,,,,,,,,,,,0,,,50,0
21760,note_on,0,0,3,,,,,,,,,,,,,,,0,,,56,63
21780,note_on,0,0,1,,,,,,,,,,,,,,,0,,,72,52
21780,note_on,60,0,1,,,,,,,,,,,,,,,0,,,69,0
21840,note_on,0,0,3,,,,,,,,,,,,,,,0,,,46,56
21840,note_on,80,0,3,,,,,,,,,,,,,,,0,,,56,0
21840,note_on,60,0,1,,,,,,,,,,,,,,,0,,,72,0
21840,note_on,0,0,1,,,,,,,,,,,,,,,0,,,70,61
21900,note_on,0,0,1,,,,,,,,,,,,,,,0,,,68,52
21900,note_on,60,0,1,,,,,,,,,,,,,,,0,,,70,0
21960,note_on,0,0,2,,,,,,,,,,,,,,,0,,,65,78
21960,note_on,360,0,2,,,,,,,,,,,,,,,0,,,64,0
21960,note_on,60,0,1,,,,,,,,,,,,,,,0,,,68,0
22020,note_on,60,0,1,,,,,,,,,,,,,,,0,,,77,60
22044,control_change,204,0,3,,,,,,,,,,,,,,,0,64,0,,
22060,set_tempo,460,1,0,,,,,,,,,,,,582524,,,,,,,
22080,note_on,120,0,2,,,,,,,,,,,,,,,0,,,65,0
22080,note_on,0,0,3,,,,,,,,,,,,,,,0,,,56,64
22080,note_on,0,0,2,,,,,,,,,,,,,,,0,,,65,97
22080,note_on,36,0,3,,,,,,,,,,,,,,,0,,,46,0
22080,set_tempo,20,1,0,,,,,,,,,,,,566038,,,,,,,
22080,note_on,60,0,1,,,,,,,,,,,,,,,0,,,77,0
22084,control_change,4,0,3,,,,,,,,,,,,,,,0,64,127,,
22120,set_tempo,40,1,0,,,,,,,,,,,,568720,,,,,,,
22140,note_on,60,0,1,,,,,,,,,,,,,,,0,,,77,55
22140,set_tempo,20,1,0,,,,,,,,,,,,571429,,,,,,,
22160,note_on,0,0,3,,,,,,,,,,,,,,,0,,,46,58
22160,note_on,76,0,3,,,,,,,,,,,,,,,0,,,56,0
22180,set_tempo,40,1,0,,,,,,,,,,,,574163,,,,,,,
22200,set_tempo,20,1,0,,,,,,,,,,,,576923,,,,,,,
22200,note_on,60,0,1,,,,,,,,,,,,,,,0,,,77,0
22200,note_on,0,0,1,,,,,,,,,,,,,,,0,,,69,62
22240,note_on,80,0,3,,,,,,,,,,,,,,,0,,,46,0
22240,note_on,0,0,3,,,,,,,,,,,,,,,0,,,50,64
22240,set_tempo,40,1,0,,,,,,,,,,,,579710,,,,,,,
22260,note_on,0,0,1,,,,,,,,,,,,,,,0,,,71,52
22260,note_on,60,0,1,,,,,,,,,,,,,,,0,,,69,0
22260,set_tempo,20,1,0,,,,,,,,,,,,582524,,,,,,,
22300,set_tempo,40,1,0,,,,,,,,,,,,585366,,,,,,,
22320,note_on,60,0,1,,,,,,,,,,,,,,,0,,,71,0
22320,note_on,80,0,3,,,,,,,,,,,,,,,0,,,50,0
22320,set_tempo,20,1,0,,,,,,,,,,,,588235,,,,,,,
22320,note_on,0,0,1,,,,,,,,,,,,,,,0,,,70,63
22320,note_on,0,0,3,,,,,,,,,,,,,,,0,,,39,58
22360,set_tempo,40,1,0,,,,,,,,,,,,591133,,,,,,,
22380,note_on,60,0,1,,,,,,,,,,,,,,,0,,,70,0
22380,note_on,0,0,1,,,,,,,,,,,,,,,0,,,68,52
22380,set_tempo,20,1,0,,,,,,,,,,,,594059,,,,,,,
22420,set_tempo,40,1,0,,,,,,,,,,,,597015,,,,,,,
22440,set_tempo,20,1,0,,,,,,,,,,,,600000,,,,,,,
22440,note_on,360,0,2,,,,,,,,,,,,,,,0,,,65,0
22440,note_on,0,0,2,,,,,,,,,,,,,,,0,,,65,78
22440,note_on,60,0,1,,,,,,,,,,,,,,,0,,,68,0
22480,set_tempo,40,1,0,,,,,,,,,,,,603015,,,,,,,
22500,note_on,60,0,1,,,,,,,,,,,,,,,0,,,77,61
22500,set_tempo,20,1,0,,,,,,,,,,,,606061,,,,,,,
22540,control_change,220,0,3,,,,,,,,,,,,,,,0,64,0,,
22540,set_tempo,40,1,0,,,,,,,,,,,,609137,,,,,,,
22560,note_on,120,0,2,,,,,,,,,,,,,,,0,,,65,0
22560,note_on,20,0,3,,,,,,,,,,,,,,,0,,,39,0
22560,note_on,0,0,3,,,,,,,,,,,,,,,0,,,54,67
22560,note_on,0,0,2,,,,,,,,,,,,,,,0,,,66,93
22560,note_on,60,0,1,,,,,,,,,,,,,,,0,,,77,0
22560,set_tempo,20,1,0,,,,,,,,,,,,612245,,,,,,,
22568,control_change,8,0,3,,,,,,,,,,,,,,,0,64,127,,
22620,note_on,60,0,1,,,,,,,,,,,,,,,0,,,78,56
22640,note_on,0,0,3,,,,,,,,,,,,,,,0,,,46,60
22640,note_on,72,0,3,,,,,,,,,,,,,,,0,,,54,0
22680,note_on,0,0,1,,,,,,,,,,,,,,,0,,,74,64
22680,note_on,60,0,1,,,,,,,,,,,,,,,0,,,78,0
22720,note_on,0,0,3,,,,,,,,,,,,,,,0,,,51,63
22720,note_on,80,0,3,,,,,,,,,,,,,,,0,,,46,0
22740,note_on,0,0,1,,,,,,,,,,,,,,,0,,,77,57
22740,note_on,60,0,1,,,,,,,,,,,,,,,0,,,74,0
22800,note_on,60,0,1,,,,,,,,,,,,,,,0,,,77,0
22800,note_on,0,0,1,,,,,,,,,,,,,,,0,,,75,64
22800,note_on,80,0,3,,,,,,,,,,,,,,,0,,,51,0
22800,note_on,0,0,3,,,,,,,,,,,,,,,0,,,39,57
22860,note_on,0,0,1,,,,,,,,,,,,,,,0,,,70,55
22860,note_on,60,0,1,,,,,,,,,,,,,,,0,,,75,0
22920,set_tempo,360,1,0,,,,,,,,,,,,641711,,,,,,,
22920,note_on,60,0,1,,,,,,,,,,,,,,,0,,,70,0
22920,note_on,0,0,2,,,,,,,,,,,,,,,0,,,66,77
22920,note_on,360,0,2,,,,,,,,,,,,,,,0,,,66,0
22980,note_on,60,0,1,,,,,,,,,,,,,,,0,,,78,62
22996,control_change,196,0,3,,,,,,,,,,,,,,,0,64,0,,
23040,note_on,120,0,2,,,,,,,,,,,,,,,0,,,66,0
23040,set_tempo,120,1,0,,,,,,,,,,,,576923,,,,,,,
23040,note_on,60,0,1,,,,,,,,,,,,,,,0,,,78,0
23040,note_on,0,0,3,,,,,,,,,,,,,,,0,,,56,65
23040,control_change,0,0,3,,,,,,,,,,,,,,,0,64,127,,
23040,note_on,0,0,2,,,,,,,,,,,,,,,0,,,66,99
23040,note_on,44,0,3,,,,,,,,,,,,,,,0,,,39,0
23100,note_on,60,0,1,,,,,,,,,,,,,,,0,,,78,62
23120,note_on,80,0,3,,,,,,,,,,,,,,,0,,,56,0
23120,note_on,0,0,3,,,,,,,,,,,,,,,0,,,44,56
23160,note_on,0,0,1,,,,,,,,,,,,,,,0,,,67,79
23160,note_on,60,0,1,,,,,,,,,,,,,,,0,,,78,0
23200,note_on,80,0,3,,,,,,,,,,,,,,,0,,,44,0
23200,note_on,0,0,3,,,,,,,,,,,,,,,0,,,49,64
23220,note_on,60,0,1,,,,,,,,,,,,,,,0,,,67,0
23220,note_on,0,0,1,,,,,,,,,,,,,,,0,,,70,66
23280,note_on,0,0,3,,,,,,,,,,,,,,,0,,,40,56
23280,note_on,60,0,1,,,,,,,,,,,,,,,0,,,70,0
23280,note_on,0,0,1,,,,,,,,,,,,,,,0,,,68,73
23280,note_on,80,0,3,,,,,,,,,,,,,,,0,,,49,0
23340,note_on,0,0,1,,,,,,,,,,,,,,,0,,,66,71
23340,note_on,60,0,1,,,,,,,,,,,,,,,0,,,68,0
23400,note_on,60,0,1,,,,,,,,,,,,,,,0,,,66,0
23400,note_on,0,0,2,,,,,,,,,,,,,,,0,,,64,78
23400,note_on,360,0,2,,,,,,,,,,,,,,,0,,,66,0
23460,note_on,60,0,1,,,,,,,,,,,,,,,0,,,76,64
23496,control_change,216,0,3,,,,,,,,,,,,,,,0,64,0,,
23520,note_on,120,0,2,,,,,,,,,,,,,,,0,,,64,0
23520,note_on,60,0,1,,,,,,,,,,,,,,,0,,,76,0
23520,note_on,0,0,2,,,,,,,,,,,,,,,0,,,64,93
23520,note_on,24,0,3,,,,,,,,,,,,,,,0,,,40,0
23520,note_on,0,0,3,,,,,,,,,,,,,,,0,,,56,65
23532,control_change,12,0,3,,,,,,,,,,,,,,,0,64,127,,
23580,note_on,60,0,1,,,,,,,,,,,,,,,0,,,76,59
23600,note_on,0,0,3,,,,,,,,,,,,,,,0,,,44,63
23600,note_on,68,0,3,,,,,,,,,,,,,,,0,,,56,0
23640,note_on,0,0,1,,,,,,,,,,,,,,,0,,,67,66
23640,note_on,60,0,1,,,,,,,,,,,,,,,0,,,76,0
23680,note_on,0,0,3,,,,,,,,,,,,,,,0,,,49,66
23680,note_on,80,0,3,,,,,,,,,,,,,,,0,,,44,0
23700,note_on,60,0,1,,,,,,,,,,,,,,,0,,,67,0
23700,note_on,0,0,1,,,,,,,,,,,,,,,0,,,70,61
23760,note_on,60,0,1,,,,,,,,,,,,,,,0,,,70,0
23760,note_on,0,0,1,,,,,,,,,,,,,,,0,,,68,70
23760,note_on,0,0,3,,,,,,,,,,,,,,,0,,,40,60
23760,note_on,80,0,3,,,,,,,,,,,,,,,0,,,49,0
23820,note_on,60,0,1,,,,,,,,,,,,,,,0,,,68,0
23820,note_on,0,0,1,,,,,,,,,,,,,,,0,,,64,62
23880,note_on,360,0,2,,,,,,,,,,,,,,,0,,,64,0
23880,note_on,0,0,2,,,,,,,,,,,,,,,0,,,56,78
23880,note_on,60,0,1,,,,,,,,,,,,,,,0,,,64,0
23940,note_on,60,0,1,,,,,,,,,,,,,,,0,,,68,64
23960,set_tempo,920,1,0,,,,,,,,,,,,579710,,,,,,,
23964,control_change,204,0,3,,,,,,,,,,,,,,,0,64,0,,
24000,note_on,120,0,2,,,,,,,,,,,,,,,0,,,56,0
24000,note_on,0,0,2,,,,,,,,,,,,,,,0,,,59,94
24000,note_on,36,0,3,,,,,,,,,,,,,,,0,,,40,0
24000,note_on,0,0,3,,,,,,,,,,,,,,,0,,,54,69
24000,note_on,60,0,1,,,,,,,,,,,,,,,0,,,68,0
24012,control_change,12,0,3,,,,,,,,,,,,,,,0,64,127,,
24060,note_on,60,0,1,,,,,,,,,,,,,,,0,,,71,61
24080,note_on,68,0,3,,,,,,,,,,,,,,,0,,,54,0
24080,note_on,0,0,3,,,,,,,,,,,,,,,0,,,47,63
24120,note_on,0,0,1,,,,,,,,,,,,,,,0,,,65,66
24120,note_on,60,0,1,,,,,,,,,,,,,,,0,,,71,0
24120,set_tempo,160,1,0,,,,,,,,,,,,582524,,,,,,,
24160,note_on,80,0,3,,,,,,,,,,,,,,,0,,,47,0
24160,note_on,0,0,3,,,,,,,,,,,,,,,0,,,51,66
24180,note_on,0,0,1,,,,,,,,,,,,,,,0,,,68,63
24180,note_on,60,0,1,,,,,,,,,,,,,,,0,,,65,0
24240,note_on,0,0,3,,,,,,,,,,,,,,,0,,,42,57
24240,note_on,60,0,1,,,,,,,,,,,,,,,0,,,68,0
24240,note_on,0,0,1,,,,,,,,,,,,,,,0,,,66,71
24240,note_on,80,0,3,,,,,,,,,,,,,,,0,,,51,0
24260,set_tempo,140,1,0,,,,,,,,,,,,585366,,,,,,,
24300,note_on,0,0,1,,,,,,,,,,,,,,,0,,,63,62
24300,note_on,60,0,1,,,,,,,,,,,,,,,0,,,66,0
24360,note_on,60,0,1,,,,,,,,,,,,,,,0,,,63,0
24360,note_on,360,0,2,,,,,,,,,,,,,,,0,,,59,0
24360,note_on,0,0,2,,,,,,,,,,,,,,,0,,,59,73
24400,set_tempo,140,1,0,,,,,,,,,,,,588235,,,,,,,
24420,note_on,60,0,1,,,,,,,,,,,,,,,0,,,71,66
24432,control_change,192,0,3,,,,,,,,,,,,,,,0,64,0,,
24480,note_on,60,0,1,,,,,,,,,,,,,,,0,,,71,0
24480,note_on,120,0,2,,,,,,,,,,,,,,,0,,,59,0
24480,note_on,0,0,3,,,,,,,,,,,,,,,0,,,54,70
24480,note_on,48,0,3,,,,,,,,,,,,,,,0,,,42,0
24480,note_on,0,0,2,,,,,,,,,,,,,,,0,,,58,92
24480,control_change,0,0,3,,,,,,,,,,,,,,,0,64,127,,
24540,set_tempo,140,1,0,,,,,,,,,,,,591133,,,,,,,
24540,note_on,60,0,1,,,,,,,,,,,,,,,0,,,70,62
24560,note_on,0,0,3,,,,,,,,,,,,,,,0,,,47,63
24560,note_on,80,0,3,,,,,,,,,,,,,,,0,,,54,0
24600,note_on,0,0,1,,,,,,,,,,,,,,,0,,,64,69
24600,note_on,60,0,1,,,,,,,,,,,,,,,0,,,70,0
24640,note_on,80,0,3,,,,,,,,,,,,,,,0,,,47,0
24640,note_on,0,0,3,,,,,,,,,,,,,,,0,,,51,69
24660,note_on,0,0,1,,,,,,,,,,,,,,,0,,,68,61
24660,note_on,60,0,1,,,,,,,,,,,,,,,0,,,64,0
24680,set_tempo,140,1,0,,,,,,,,,,,,594059,,,,,,,
24720,note_on,0,0,1,,,,,,,,,,,,,,,0,,,66,71
24720,note_on,60,0,1,,,,,,,,,,,,,,,0,,,68,0
24720,note_on,0,0,3,,,,,,,,,,,,,,,0,,,42,63
24720,note_on,80,0,3,,,,,,,,,,,,,,,0,,,51,0
24780,note_on,0,0,1,,,,,,,,,,,,,,,0,,,63,63
24780,note_on,60,0,1,,,,,,,,,,,,,,,0,,,66,0
24820,set_tempo,140,1,0,,,,,,,,,,,,597015,,,,,,,
24840,note_on,0,0,2,,,,,,,,,,,,,,,0,,,59,72
24840,note_on,360,0,2,,,,,,,,,,,,,,,0,,,58,0
24840,note_on,60,0,1,,,,,,,,,,,,,,,0,,,63,0
24880,control_change,160,0,3,,,,,,,,,,,,,,,0,64,0,,
24900,note_on,60,0,1,,,,,,,,,,,,,,,0,,,71,69
24960,note_on,0,0,3,,,,,,,,,,,,,,,0,,,54,77
24960,control_change,0,0,3,,,,,,,,,,,,,,,0,64,127,,
24960,note_on,60,0,1,,,,,,,,,,,,,,,0,,,71,0
24960,note_on,0,0,2,,,,,,,,,,,,,,,0,,,60,96
24960,note_on,120,0,2,,,,,,,,,,,,,,,0,,,59,0
24960,set_tempo,140,1,0,,,,,,,,,,,,597015,,,,,,,
24960,note_on,80,0,3,,,,,,,,,,,,,,,0,,,42,0
25020,note_on,60,0,1,,,,,,,,,,,,,,,0,,,72,66
25040,note_on,80,0,3,,,,,,,,,,,,,,,0,,,54,0
25040,note_on,0,0,3,,,,,,,,,,,,,,,0,,,46,65
25040,set_tempo,80,1,0,,,,,,,,,,,,600000,,,,,,,
25080,note_on,0,0,1,,,,,,,,,,,,,,,0,,,65,73
25080,note_on,60,0,1,,,,,,,,,,,,,,,0,,,72,0
25100,set_tempo,60,1,0,,,,,,,,,,,,603015,,,,,,,
25120,note_on,0,0,3,,,,,,,,,,,,,,,0,,,52,72
25120,note_on,80,0,3,,,,,,,,,,,,,,,0,,,46,0
25140,note_on,60,0,1,,,,,,,,,,,,,,,0,,,65,0
25140,note_on,0,0,1,,,,,,,,,,,,,,,0,,,68,70
25180,set_tempo,80,1,0,,,,,,,,,,,,606061,,,,,,,
25200,note_on,60,0,1,,,,,,,,,,,,,,,0,,,68,0
25200,note_on,0,0,1,,,,,,,,,,,,,,,0,,,66,78
25200,note_on,0,0,3,,,,,,,,,,,,,,,0,,,42,64
25200,note_on,80,0,3,,,,,,,,,,,,,,,0,,,52,0
25240,set_tempo,60,1,0,,,,,,,,,,,,609137,,,,,,,
25260,note_on,60,0,1,,,,,,,,,,,,,,,0,,,66,0
25260,note_on,0,0,1,,,,,,,,,,,,,,,0,,,64,77
25300,set_tempo,60,1,0,,,,,,,,,,,,612245,,,,,,,
25320,note_on,360,0,2,,,,,,,,,,,,,,,0,,,60,0
25320,note_on,0,0,2,,,,,,,,,,,,,,,0,,,60,78
25320,note_on,60,0,1,,,,,,,,,,,,,,,0,,,64,0
25380,note_on,60,0,1,,,,,,,,,,,,,,,0,,,72,70
25380,set_tempo,80,1,0,,,,,,,,,,,,615385,,,,,,,
25412,control_change,212,0,3,,,,,,,,,,,,,,,0,64,0,,
25440,note_on,28,0,3,,,,,,,,,,,,,,,0,,,42,0
25440,note_on,120,0,2,,,,,,,,,,,,,,,0,,,60,0
25440,set_tempo,60,1,0,,,,,,,,,,,,618557,,,,,,,
25440,note_on,60,0,1,,,,,,,,,,,,,,,0,,,72,0
25440,note_on,0,0,3,,,,,,,,,,,,,,,0,,,54,75
25440,note_on,0,0,2,,,,,,,,,,,,,,,0,,,61,92
25452,control_change,12,0,3,,,,,,,,,,,,,,,0,64,127,,
25500,note_on,60,0,1,,,,,,,,,,,,,,,0,,,73,64
25500,set_tempo,60,1,0,,,,,,,,,,,,621762,,,,,,,
25520,note_on,68,0,3,,,,,,,,,,,,,,,0,,,54,0
25520,note_on,0,0,3,,,,,,,,,,,,,,,0,,,46,63
25560,note_on,60,0,1,,,,,,,,,,,,,,,0,,,73,0
25560,note_on,0,0,1,,,,,,,,,,,,,,,0,,,65,73
25580,set_tempo,80,1,0,,,,,,,,,,,,625000,,,,,,,
25600,note_on,80,0,3,,,,,,,,,,,,,,,0,,,46,0
25600,note_on,0,0,3,,,,,,,,,,,,,,,0,,,52,72
25620,note_on,0,0,1,,,,,,,,,,,,,,,0,,,68,64
25620,note_on,60,0,1,,,,,,,,,,,,,,,0,,,65,0
25640,set_tempo,60,1,0,,,,,,,,,,,,628272,,,,,,,
25680,note_on,0,0,1,,,,,,,,,,,,,,,0,,,66,72
25680,note_on,80,0,3,,,,,,,,,,,,,,,0,,,52,0
25680,note_on,0,0,3,,,,,,,,,,,,,,,0,,,42,64
25680,note_on,60,0,1,,,,,,,,,,,,,,,0,,,68,0
25700,set_tempo,60,1,0,,,,,,,,,,,,631579,,,,,,,
25740,note_on,0,0,1,,,,,,,,,,,,,,,0,,,64,63
25740,note_on,60,0,1,,,,,,,,,,,,,,,0,,,66,0
25780,set_tempo,80,1,0,,,,,,,,,,,,634921,,,,,,,
25800,note_on,0,0,2,,,,,,,,,,,,,,,0,,,62,84
25800,note_on,360,0,2,,,,,,,,,,,,,,,0,,,61,0
25800,note_on,60,0,1,,,,,,,,,,,,,,,0,,,64,0
25840,set_tempo,60,1,0,,,,,,,,,,,,638298,,,,,,,
25860,note_on,60,0,1,,,,,,,,,,,,,,,0,,,74,71
25892,control_change,212,0,3,,,,,,,,,,,,,,,0,64,0,,
25900,set_tempo,60,1,0,,,,,,,,,,,,641711,,,,,,,
25920,note_on,0,0,3,,,,,,,,,,,,,,,0,,,52,81
25920,note_on,120,0,2,,,,,,,,,,,,,,,0,,,62,0
25920,note_on,0,0,2,,,,,,,,,,,,,,,0,,,62,96
25920,control_change,0,0,3,,,,,,,,,,,,,,,0,64,127,,
25920,note_on,28,0,3,,,,,,,,,,,,,,,0,,,42,0
25920,set_tempo,20,1,0,,,,,,,,,,,,645161,,,,,,,
25920,note_on,60,0,1,,,,,,,,,,,,,,,0,,,74,0
25940,set_tempo,20,1,0,,,,,,,,,,,,648649,,,,,,,
25960,set_tempo,20,1,0,,,,,,,,,,,,652174,,,,,,,
25980,note_on,60,0,1,,,,,,,,,,,,,,,0,,,74,69
25980,set_tempo,20,1,0,,,,,,,,,,,,655738,,,,,,,
26000,note_on,80,0,3,,,,,,,,,,,,,,,0,,,52,0
26000,note_on,0,0,3,,,,,,,,,,,,,,,0,,,42,65
26000,set_tempo,20,1,0,,,,,,,,,,,,662983,,,,,,,
26020,set_tempo,20,1,0,,,,,,,,,,,,666667,,,,,,,
26040,note_on,60,0,1,,,,,,,,,,,,,,,0,,,74,0
26040,note_on,0,0,1,,,,,,,,,,,,,,,0,,,65,77
26040,set_tempo,20,1,0,,,,,,,,,,,,670391,,,,,,,
26060,set_tempo,20,1,0,,,,,,,,,,,,674157,,,,,,,
26080,note_on,80,0,3,,,,,,,,,,,,,,,0,,,42,0
26080,note_on,0,0,3,,,,,,,,,,,,,,,0,,,46,72
26080,set_tempo,20,1,0,,,,,,,,,,,,681818,,,,,,,
26100,note_on,60,0,1,,,,,,,,,,,,,,,0,,,65,0
26100,set_tempo,20,1,0,,,,,,,,,,,,685714,,,,,,,
26100,note_on,0,0,1,,,,,,,,,,,,,,,0,,,68,71
26120,set_tempo,20,1,0,,,,,,,,,,,,689655,,,,,,,
26140,set_tempo,20,1,0,,,,,,,,,,,,693642,,,,,,,
26160,note_on,60,0,1,,,,,,,,,,,,,,,0,,,68,0
26160,note_on,0,0,1,,,,,,,,,,,,,,,0,,,66,77
26160,note_on,80,0,3,,,,,,,,,,,,,,,0,,,46,0
26160,set_tempo,20,1,0,,,,,,,,,,,,701754,,,,,,,
26160,note_on,0,0,3,,,,,,,,,,,,,,,0,,,35,65
26180,set_tempo,20,1,0,,,,,,,,,,,,705882,,,,,,,
26200,set_tempo,20,1,0,,,,,,,,,,,,710059,,,,,,,
26220,note_on,0,0,1,,,,,,,,,,,,,,,0,,,64,69
26220,note_on,60,0,1,,,,,,,,,,,,,,,0,,,66,0
26220,set_tempo,20,1,0,,,,,,,,,,,,714286,,,,,,,
26240,set_tempo,20,1,0,,,,,,,,,,,,722892,,,,,,,
26260,set_tempo,20,1,0,,,,,,,,,,,,727273,,,,,,,
26280,note_on,60,0,1,,,,,,,,,,,,,,,0,,,64,0
26280,set_tempo,20,1,0,,,,,,,,,,,,731707,,,,,,,
26280,note_on,360,0,2,,,,,,,,,,,,,,,0,,,62,0
26280,note_on,0,0,2,,,,,,,,,,,,,,,0,,,62,82
26300,set_tempo,20,1,0,,,,,,,,,,,,736196,,,,,,,
26320,set_tempo,20,1,0,,,,,,,,,,,,745342,,,,,,,
26340,set_tempo,20,1,0,,,,,,,,,,,,750000,,,,,,,
26340,note_on,60,0,1,,,,,,,,,,,,,,,0,,,74,72
26360,set_tempo,20,1,0,,,,,,,,,,,,754717,,,,,,,
26380,set_tempo,20,1,0,,,,,,,,,,,,759494,,,,,,,
26384,control_change,224,0,3,,,,,,,,,,,,,,,0,64,0,,
26400,set_tempo,20,1,0,,,,,,,,,,,,769231,,,,,,,
26400,note_on,60,0,1,,,,,,,,,,,,,,,0,,,74,0
26400,note_on,0,0,3,,,,,,,,,,,,,,,0,,,51,75
26400,note_on,0,0,2,,,,,,,,,,,,,,,0,,,63,98
26400,note_on,120,0,2,,,,,,,,,,,,,,,0,,,62,0
26400,note_on,16,0,3,,,,,,,,,,,,,,,0,,,35,0
26412,control_change,12,0,3,,,,,,,,,,,,,,,0,64,127,,
26460,note_on,60,0,1,,,,,,,,,,,,,,,0,,,75,69
26480,note_on,68,0,3,,,,,,,,,,,,,,,0,,,51,0
26480,note_on,0,0,3,,,,,,,,,,,,,,,0,,,42,64
26520,note_on,60,0,1,,,,,,,,,,,,,,,0,,,75,0
26520,note_on,0,0,1,,,,,,,,,,,,,,,0,,,70,77
26560,note_on,80,0,3,,,,,,,,,,,,,,,0,,,42,0
26560,note_on,0,0,3,,,,,,,,,,,,,,,0,,,47,70
26580,note_on,0,0,1,,,,,,,,,,,,,,,0,,,73,71
26580,note_on,60,0,1,,,,,,,,,,,,,,,0,,,70,0
26640,note_on,80,0,3,,,,,,,,,,,,,,,0,,,47,0
26640,note_on,0,0,3,,,,,,,,,,,,,,,0,,,35,61
26640,note_on,0,0,1,,,,,,,,,,,,,,,0,,,71,77
26640,note_on,60,0,1,,,,,,,,,,,,,,,0,,,73,0
26700,note_on,60,0,1,,,,,,,,,,,,,,,0,,,71,0
26700,note_on,0,0,1,,,,,,,,,,,,,,,0,,,66,72
26760,note_on,60,0,1,,,,,,,,,,,,,,,0,,,66,0
26760,note_on,0,0,2,,,,,,,,,,,,,,,0,,,63,80
26760,note_on,360,0,2,,,,,,,,,,,,,,,0,,,63,0
26800,control_change,160,0,3,,,,,,,,,,,,,,,0,64,0,,
26820,note_on,60,0,1,,,,,,,,,,,,,,,0,,,75,73
26860,set_tempo,460,1,0,,,,,,,,,,,,563380,,,,,,,
26880,note_on,120,0,2,,,,,,,,,,,,,,,0,,,63,0
26880,note_on,0,0,2,,,,,,,,,,,,,,,0,,,63,103
26880,note_on,0,0,3,,,,,,,,,,,,,,,0,,,56,77
26880,note_on,60,0,1,,,,,,,,,,,,,,,0,,,75,0
26880,note_on,80,0,3,,,,,,,,,,,,,,,0,,,35,0
26892,control_change,12,0,3,,,,,,,,,,,,,,,0,64,127,,
26940,note_on,60,0,1,,,,,,,,,,,,,,,0,,,75,66
26960,set_tempo,100,1,0,,,,,,,,,,,,560748,,,,,,,
26960,note_on,0,0,3,,,,,,,,,,,,,,,0,,,47,66
26960,note_on,68,0,3,,,,,,,,,,,,,,,0,,,56,0
27000,note_on,0,0,1,,,,,,,,,,,,,,,0,,,68,73
27000,note_on,60,0,1,,,,,,,,,,,,,,,0,,,75,0
27040,note_on,0,0,3,,,,,,,,,,,,,,,0,,,51,73
27040,note_on,80,0,3,,,,,,,,,,,,,,,0,,,47,0
27060,set_tempo,100,1,0,,,,,,,,,,,,558140,,,,,,,
27060,note_on,0,0,1,,,,,,,,,,,,,,,0,,,73,70
27060,note_on,60,0,1,,,,,,,,,,,,,,,0,,,68,0
27120,note_on,0,0,3,,,,,,,,,,,,,,,0,,,41,67
27120,note_on,60,0,1,,,,,,,,,,,,,,,0,,,73,0
27120,note_on,80,0,3,,,,,,,,,,,,,,,0,,,51,0
27120,note_on,0,0,1,,,,,,,,,,,,,,,0,,,71,77
27160,set_tempo,100,1,0,,,,,,,,,,,,555556,,,,,,,
27180,note_on,60,0,1,,,,,,,,,,,,,,,0,,,71,0
27180,note_on,0,0,1,,,,,,,,,,,,,,,0,,,68,66
27240,note_on,0,0,2,,,,,,,,,,,,,,,0,,,63,85
27240,note_on,60,0,1,,,,,,,,,,,,,,,0,,,68,0
27240,note_on,360,0,2,,,,,,,,,,,,,,,0,,,63,0
27260,set_tempo,100,1,0,,,,,,,,,,,,552995,,,,,,,
27300,control_change,60,0,1,,,,,,,,,,,,,,,0,64,0,,
27300,note_on,0,0,1,,,,,,,,,,,,,,,0,,,75,70
27324,control_change,204,0,3,,,,,,,,,,,,,,,0,64,0,,
27360,note_on,0,0,2,,,,,,,,,,,,,,,0,,,62,97
27360,note_on,36,0,3,,,,,,,,,,,,,,,0,,,41,0
27360,note_on,60,0,1,,,,,,,,,,,,,,,0,,,75,0
27360,note_on,0,0,3,,,,,,,,,,,,,,,0,,,56,76
27360,note_on,120,0,2,,,,,,,,,,,,,,,0,,,63,0
27360,set_tempo,100,1,0,,,,,,,,,,,,550459,,,,,,,
27372,control_change,12,0,3,,,,,,,,,,,,,,,0,64,127,,
27420,note_on,60,0,1,,,,,,,,,,,,,,,0,,,74,66
27440,note_on,68,0,3,,,,,,,,,,,,,,,0,,,56,0
27440,note_on,0,0,3,,,,,,,,,,,,,,,0,,,47,70
27460,set_tempo,100,1,0,,,,,,,,,,,,547945,,,,,,,
27480,note_on,60,0,1,,,,,,,,,,,,,,,0,,,74,0
27480,note_on,0,0,1,,,,,,,,,,,,,,,0,,,68,75
27520,note_on,0,0,3,,,,,,,,,,,,,,,0,,,51,77
27520,note_on,80,0,3,,,,,,,,,,,,,,,0,,,47,0
27540,note_on,60,0,1,,,,,,,,,,,,,,,0,,,68,0
27540,note_on,0,0,1,,,,,,,,,,,,,,,0,,,73,71
27560,set_tempo,100,1,0,,,,,,,,,,,,545455,,,,,,,
27600,note_on,80,0,3,,,,,,,,,,,,,,,0,,,51,0
27600,note_on,0,0,3,,,,,,,,,,,,,,,0,,,41,72
27600,note_on,60,0,1,,,,,,,,,,,,,,,0,,,73,0
27600,note_on,0,0,1,,,,,,,,,,,,,,,0,,,71,77
27660,set_tempo,100,1,0,,,,,,,,,,,,542986,,,,,,,
27660,note_on,0,0,1,,,,,,,,,,,,,,,0,,,68,71
27660,note_on,60,0,1,,,,,,,,,,,,,,,0,,,71,0
27720,note_on,60,0,1,,,,,,,,,,,,,,,0,,,68,0
27720,note_on,360,0,2,,,,,,,,,,,,,,,0,,,62,0
27720,note_on,0,0,2,,,,,,,,,,,,,,,0,,,63,78
27760,set_tempo,100,1,0,,,,,,,,,,,,540541,,,,,,,
27780,note_on,60,0,1,,,,,,,,,,,,,,,0,,,75,72
27816,control_change,216,0,3,,,,,,,,,,,,,,,0,64,0,,
27840,note_on,60,0,1,,,,,,,,,,,,,,,0,,,75,0
27840,note_on,120,0,2,,,,,,,,,,,,,,,0,,,63,0
27840,note_on,0,0,2,,,,,,,,,,,,,,,0,,,65,100
27840,note_on,0,0,3,,,,,,,,,,,,,,,0,,,62,83
27840,note_on,24,0,3,,,,,,,,,,,,,,,0,,,41,0
27852,control_change,12,0,3,,,,,,,,,,,,,,,0,64,127,,
27900,note_on,60,0,1,,,,,,,,,,,,,,,0,,,77,72
27920,note_on,68,0,3,,,,,,,,,,,,,,,0,,,62,0
27920,note_on,0,0,3,,,,,,,,,,,,,,,0,,,53,71
27960,note_on,60,0,1,,,,,,,,,,,,,,,0,,,77,0
27960,note_on,0,0,1,,,,,,,,,,,,,,,0,,,70,80
28000,note_on,0,0,3,,,,,,,,,,,,,,,0,,,58,77
28000,note_on,80,0,3,,,,,,,,,,,,,,,0,,,53,0
28020,set_tempo,260,1,0,,,,,,,,,,,,538117,,,,,,,
28020,note_on,0,0,1,,,,,,,,,,,,,,,0,,,75,70
28020,note_on,60,0,1,,,,,,,,,,,,,,,0,,,70,0
28040,set_tempo,20,1,0,,,,,,,,,,,,542986,,,,,,,
28060,set_tempo,20,1,0,,,,,,,,,,,,545455,,,,,,,
28080,note_on,0,0,3,,,,,,,,,,,,,,,0,,,46,71
28080,note_on,80,0,3,,,,,,,,,,,,,,,0,,,58,0
28080,note_on,0,0,1,,,,,,,,,,,,,,,0,,,74,77
28080,set_tempo,20,1,0,,,,,,,,,,,,550459,,,,,,,
28080,note_on,60,0,1,,,,,,,,,,,,,,,0,,,75,0
28100,set_tempo,20,1,0,,,,,,,,,,,,555556,,,,,,,
28120,set_tempo,20,1,0,,,,,,,,,,,,558140,,,,,,,
28140,note_on,60,0,1,,,,,,,,,,,,,,,0,,,74,0
28140,set_tempo,20,1,0,,,,,,,,,,,,563380,,,,,,,
28140,note_on,0,0,1,,,,,,,,,,,,,,,0,,,70,71
28160,set_tempo,20,1,0,,,,,,,,,,,,566038,,,,,,,
28180,set_tempo,20,1,0,,,,,,,,,,,,571429,,,,,,,
28200,note_on,360,0,2,,,,,,,,,,,,,,,0,,,65,0
28200,note_on,60,0,1,,,,,,,,,,,,,,,0,,,70,0
28200,note_on,0,0,2,,,,,,,,,,,,,,,0,,,65,82
28200,set_tempo,20,1,0,,,,,,,,,,,,574163,,,,,,,
28220,set_tempo,20,1,0,,,,,,,,,,,,579710,,,,,,,
28240,set_tempo,20,1,0,,,,,,,,,,,,585366,,,,,,,
28260,note_on,60,0,1,,,,,,,,,,,,,,,0,,,77,75
28260,set_tempo,20,1,0,,,,,,,,,,,,588235,,,,,,,
28280,set_tempo,20,1,0,,,,,,,,,,,,594059,,,,,,,
28296,control_change,216,0,3,,,,,,,,,,,,,,,0,64,0,,
28300,set_tempo,20,1,0,,,,,,,,,,,,597015,,,,,,,
28320,note_on,24,0,3,,,,,,,,,,,,,,,0,,,46,0
28320,note_on,0,0,3,,,,,,,,,,,,,,,0,,,62,79
28320,note_on,120,0,2,,,,,,,,,,,,,,,0,,,65,0
28320,set_tempo,20,1,0,,,,,,,,,,,,603015,,,,,,,
28320,note_on,0,0,2,,,,,,,,,,,,,,,0,,,66,95
28320,note_on,60,0,1,,,,,,,,,,,,,,,0,,,77,0
28328,control_change,8,0,3,,,,,,,,,,,,,,,0,64,127,,
28340,set_tempo,20,1,0,,,,,,,,,,,,606061,,,,,,,
28360,set_tempo,20,1,0,,,,,,,,,,,,612245,,,,,,,
28380,set_tempo,20,1,0,,,,,,,,,,,,618557,,,,,,,
28380,note_on,60,0,1,,,,,,,,,,,,,,,0,,,78,69
28400,set_tempo,20,1,0,,,,,,,,,,,,621762,,,,,,,
28400,note_on,0,0,3,,,,,,,,,,,,,,,0,,,53,72
28400,note_on,72,0,3,,,,,,,,,,,,,,,0,,,62,0
28420,set_tempo,20,1,0,,,,,,,,,,,,628272,,,,,,,
28440,note_on,60,0,1,,,,,,,,,,,,,,,0,,,78,0
28440,set_tempo,20,1,0,,,,,,,,,,,,631579,,,,,,,
28440,note_on,0,0,1,,,,,,,,,,,,,,,0,,,70,73
28460,set_tempo,20,1,0,,,,,,,,,,,,638298,,,,,,,
28480,note_on,0,0,3,,,,,,,,,,,,,,,0,,,58,76
28480,set_tempo,20,1,0,,,,,,,,,,,,641711,,,,,,,
28480,note_on,80,0,3,,,,,,,,,,,,,,,0,,,53,0
28500,note_on,0,0,1,,,,,,,,,,,,,,,0,,,75,66
28500,set_tempo,20,1,0,,,,,,,,,,,,648649,,,,,,,
28500,note_on,60,0,1,,,,,,,,,,,,,,,0,,,70,0
28520,set_tempo,20,1,0,,,,,,,,,,,,655738,,,,,,,
28540,set_tempo,20,1,0,,,,,,,,,,,,659341,,,,,,,
28560,note_on,0,0,1,,,,,,,,,,,,,,,0,,,74,72
28560,note_on,0,0,3,,,,,,,,,,,,,,,0,,,46,71
28560,set_tempo,20,1,0,,,,,,,,,,,,666667,,,,,,,
28560,note_on,60,0,1,,,,,,,,,,,,,,,0,,,75,0
28560,note_on,80,0,3,,,,,,,,,,,,,,,0,,,58,0
28580,set_tempo,20,1,0,,,,,,,,,,,,670391,,,,,,,
28600,set_tempo,20,1,0,,,,,,,,,,,,677966,,,,,,,
28620,set_tempo,20,1,0,,,,,,,,,,,,681818,,,,,,,
28620,note_on,60,0,1,,,,,,,,,,,,,,,0,,,74,0
28620,note_on,0,0,1,,,,,,,,,,,,,,,0,,,70,66
28640,set_tempo,20,1,0,,,,,,,,,,,,689655,,,,,,,
28660,set_tempo,20,1,0,,,,,,,,,,,,697674,,,,,,,
28680,note_on,60,0,1,,,,,,,,,,,,,,,0,,,70,0
28680,note_on,360,0,2,,,,,,,,,,,,,,,0,,,66,0
28680,note_on,0,0,2,,,,,,,,,,,,,,,0,,,65,80
28680,set_tempo,20,1,0,,,,,,,,,,,,701754,,,,,,,
28700,set_tempo,20,1,0,,,,,,,,,,,,710059,,,,,,,
28720,set_tempo,20,1,0,,,,,,,,,,,,714286,,,,,,,
28740,note_on,60,0,1,,,,,,,,,,,,,,,0,,,77,71
28740,set_tempo,20,1,0,,,,,,,,,,,,722892,,,,,,,
28760,set_tempo,20,1,0,,,,,,,,,,,,563380,,,,,,,
28764,control_change,204,0,3,,,,,,,,,,,,,,,0,64,0,,
28800,note_on,0,0,3,,,,,,,,,,,,,,,0,,,56,82
28800,note_on,36,0,3,,,,,,,,,,,,,,,0,,,46,0
28800,control_change,0,0,3,,,,,,,,,,,,,,,0,64,95,,
28800,note_on,0,0,2,,,,,,,,,,,,,,,0,,,63,102
28800,note_on,120,0,2,,,,,,,,,,,,,,,0,,,65,0
28800,note_on,60,0,1,,,,,,,,,,,,,,,0,,,77,0
28860,note_on,60,0,1,,,,,,,,,,,,,,,0,,,75,71
28880,note_on,80,0,3,,,,,,,,,,,,,,,0,,,56,0
28880,note_on,0,0,3,,,,,,,,,,,,,,,0,,,47,72
28920,note_on,60,0,1,,,,,,,,,,,,,,,0,,,75,0
28920,set_tempo,160,1,0,,,,,,,,,,,,560748,,,,,,,
28920,note_on,0,0,1,,,,,,,,,,,,,,,0,,,68,80
28960,note_on,80,0,3,,,,,,,,,,,,,,,0,,,47,0
28960,note_on,0,0,3,,,,,,,,,,,,,,,0,,,51,76
28980,note_on,60,0,1,,,,,,,,,,,,,,,0,,,68,0
28980,note_on,0,0,1,,,,,,,,,,,,,,,0,,,73,64
29040,note_on,0,0,3,,,,,,,,,,,,,,,0,,,41,72
29040,note_on,60,0,1,,,,,,,,,,,,,,,0,,,73,0
29040,note_on,0,0,1,,,,,,,,,,,,,,,0,,,71,71
29040,set_tempo,120,1,0,,,,,,,,,,,,558140,,,,,,,
29040,note_on,80,0,3,,,,,,,,,,,,,,,0,,,51,0
29100,note_on,60,0,1,,,,,,,,,,,,,,,0,,,71,0
29100,note_on,0,0,1,,,,,,,,,,,,,,,0,,,68,63
29160,set_tempo,120,1,0,,,,,,,,,,,,555556,,,,,,,
29160,note_on,360,0,2,,,,,,,,,,,,,,,0,,,63,0
29160,note_on,0,0,2,,,,,,,,,,,,,,,0,,,63,83
29160,note_on,60,0,1,,,,,,,,,,,,,,,0,,,68,0
29220,note_on,60,0,1,,,,,,,,,,,,,,,0,,,75,70
29244,control_change,204,0,3,,,,,,,,,,,,,,,0,64,0,,
29280,note_on,0,0,3,,,,,,,,,,,,,,,0,,,56,77
29280,set_tempo,120,1,0,,,,,,,,,,,,552995,,,,,,,
29280,note_on,120,0,2,,,,,,,,,,,,,,,0,,,63,0
29280,note_on,0,0,2,,,,,,,,,,,,,,,0,,,62,96
29280,note_on,60,0,1,,,,,,,,,,,,,,,0,,,75,0
29280,note_on,36,0,3,,,,,,,,,,,,,,,0,,,41,0
29292,control_change,12,0,3,,,,,,,,,,,,,,,0,64,127,,
29340,note_on,60,0,1,,,,,,,,,,,,,,,0,,,74,64
29360,note_on,68,0,3,,,,,,,,,,,,,,,0,,,56,0
29360,note_on,0,0,3,,,,,,,,,,,,,,,0,,,47,68
29400,note_on,0,0,1,,,,,,,,,,,,,,,0,,,68,71
29400,note_on,60,0,1,,,,,,,,,,,,,,,0,,,74,0
29440,set_tempo,160,1,0,,,,,,,,,,,,550459,,,,,,,
29440,note_on,80,0,3,,,,,,,,,,,,,,,0,,,47,0
29440,note_on,0,0,3,,,,,,,,,,,,,,,0,,,51,73
29460,note_on,60,0,1,,,,,,,,,,,,,,,0,,,68,0
29460,note_on,0,0,1,,,,,,,,,,,,,,,0,,,73,63
29520,note_on,0,0,3,,,,,,,,,,,,,,,0,,,41,65
29520,note_on,60,0,1,,,,,,,,,,,,,,,0,,,73,0
29520,note_on,0,0,1,,,,,,,,,,,,,,,0,,,71,71
29520,note_on,80,0,3,,,,,,,,,,,,,,,0,,,51,0
29560,set_tempo,120,1,0,,,,,,,,,,,,547945,,,,,,,
29580,note_on,60,0,1,,,,,,,,,,,,,,,0,,,71,0
29580,note_on,0,0,1,,,,,,,,,,,,,,,0,,,68,66
29640,note_on,360,0,2,,,,,,,,,,,,,,,0,,,62,0
29640,note_on,60,0,1,,,,,,,,,,,,,,,0,,,68,0
29640,note_on,0,0,2,,,,,,,,,,,,,,,0,,,63,84
29680,set_tempo,120,1,0,,,,,,,,,,,,545455,,,,,,,
29700,note_on,60,0,1,,,,,,,,,,,,,,,0,,,75,71
29732,control_change,212,0,3,,,,,,,,,,,,,,,0,64,0,,
29760,note_on,28,0,3,,,,,,,,,,,,,,,0,,,41,0
29760,note_on,0,0,3,,,,,,,,,,,,,,,0,,,62,82
29760,note_on,120,0,2,,,,,,,,,,,,,,,0,,,63,0
29760,note_on,0,0,2,,,,,,,,,,,,,,,0,,,65,97
29760,note_on,60,0,1,,,,,,,,,,,,,,,0,,,75,0
29772,control_change,12,0,3,,,,,,,,,,,,,,,0,64,127,,
29800,set_tempo,120,1,0,,,,,,,,,,,,542986,,,,,,,
29820,note_on,60,0,1,,,,,,,,,,,,,,,0,,,77,69
29840,note_on,68,0,3,,,,,,,,,,,,,,,0,,,62,0
29840,note_on,0,0,3,,,,,,,,,,,,,,,0,,,53,71
29880,note_on,60,0,1,,,,,,,,,,,,,,,0,,,77,0
29880,note_on,0,0,1,,,,,,,,,,,,,,,0,,,70,73
29920,note_on,80,0,3,,,,,,,,,,,,,,,0,,,53,0
29920,note_on,0,0,3,,,,,,,,,,,,,,,0,,,58,77
29920,set_tempo,120,1,0,,,,,,,,,,,,540541,,,,,,,
29940,note_on,60,0,1,,,,,,,,,,,,,,,0,,,70,0
29940,note_on,0,0,1,,,,,,,,,,,,,,,0,,,75,66
29940,set_tempo,20,1,0,,,,,,,,,,,,533333,,,,,,,
29960,set_tempo,20,1,0,,,,,,,,,,,,538117,,,,,,,
29980,set_tempo,20,1,0,,,,,,,,,,,,542986,,,,,,,
30000,set_tempo,20,1,0,,,,,,,,,,,,545455,,,,,,,
30000,note_on,80,0,3,,,,,,,,,,,,,,,0,,,58,0
30000,note_on,0,0,3,,,,,,,,,,,,,,,0,,,46,70
30000,note_on,60,0,1,,,,,,,,,,,,,,,0,,,75,0
30000,note_on,0,0,1,,,,,,,,,,,,,,,0,,,74,75
30020,set_tempo,20,1,0,,,,,,,,,,,,550459,,,,,,,
30040,set_tempo,20,1,0,,,,,,,,,,,,555556,,,,,,,
30060,set_tempo,20,1,0,,,,,,,,,,,,560748,,,,,,,
30060,note_on,60,0,1,,,,,,,,,,,,,,,0,,,74,0
30060,note_on,0,0,1,,,,,,,,,,,,,,,0,,,70,69
30080,set_tempo,20,1,0,,,,,,,,,,,,563380,,,,,,,
30100,set_tempo,20,1,0,,,,,,,,,,,,568720,,,,,,,
30120,note_on,60,0,1,,,,,,,,,,,,,,,0,,,70,0
30120,note_on,360,0,2,,,,,,,,,,,,,,,0,,,65,0
30120,note_on,0,0,2,,,,,,,,,,,,,,,0,,,65,79
30120,set_tempo,20,1,0,,,,,,,,,,,,574163,,,,,,,
30140,set_tempo,20,1,0,,,,,,,,,,,,576923,,,,,,,
30160,set_tempo,20,1,0,,,,,,,,,,,,582524,,,,,,,
30180,note_on,60,0,1,,,,,,,,,,,,,,,0,,,77,72
30180,set_tempo,20,1,0,,,,,,,,,,,,588235,,,,,,,
30200,set_tempo,20,1,0,,,,,,,,,,,,594059,,,,,,,
30212,control_change,212,0,3,,,,,,,,,,,,,,,0,64,0,,
30220,set_tempo,20,1,0,,,,,,,,,,,,597015,,,,,,,
30240,note_on,120,0,2,,,,,,,,,,,,,,,0,,,65,0
30240,note_on,0,0,2,,,,,,,,,,,,,,,0,,,70,93
30240,note_on,60,0,1,,,,,,,,,,,,,,,0,,,77,0
30240,note_on,28,0,3,,,,,,,,,,,,,,,0,,,46,0
30240,note_on,0,0,3,,,,,,,,,,,,,,,0,,,62,75
30240,control_change,0,0,3,,,,,,,,,,,,,,,0,64,127,,
30240,set_tempo,20,1,0,,,,,,,,,,,,603015,,,,,,,
30260,set_tempo,20,1,0,,,,,,,,,,,,609137,,,,,,,
30280,set_tempo,20,1,0,,,,,,,,,,,,615385,,,,,,,
30300,set_tempo,20,1,0,,,,,,,,,,,,618557,,,,,,,
30300,note_on,60,0,1,,,,,,,,,,,,,,,0,,,82,57
30320,note_on,80,0,3,,,,,,,,,,,,,,,0,,,62,0
30320,set_tempo,20,1,0,,,,,,,,,,,,625000,,,,,,,
30320,note_on,0,0,3,,,,,,,,,,,,,,,0,,,53,66
30340,set_tempo,20,1,0,,,,,,,,,,,,631579,,,,,,,
30360,note_on,60,0,1,,,,,,,,,,,,,,,0,,,82,0
30360,note_on,0,0,1,,,,,,,,,,,,,,,0,,,76,64
30360,set_tempo,20,1,0,,,,,,,,,,,,638298,,,,,,,
30380,set_tempo,20,1,0,,,,,,,,,,,,641711,,,,,,,
30400,note_on,80,0,3,,,,,,,,,,,,,,,0,,,53,0
30400,note_on,0,0,3,,,,,,,,,,,,,,,0,,,58,72
30400,set_tempo,20,1,0,,,,,,,,,,,,648649,,,,,,,
30420,set_tempo,20,1,0,,,,,,,,,,,,655738,,,,,,,
30420,note_on,60,0,1,,,,,,,,,,,,,,,0,,,76,0
30420,note_on,0,0,1,,,,,,,,,,,,,,,0,,,78,60
30440,set_tempo,20,1,0,,,,,,,,,,,,659341,,,,,,,
30460,set_tempo,20,1,0,,,,,,,,,,,,666667,,,,,,,
30480,set_tempo,20,1,0,,,,,,,,,,,,674157,,,,,,,
30480,note_on,0,0,3,,,,,,,,,,,,,,,0,,,46,66
30480,note_on,80,0,3,,,,,,,,,,,,,,,0,,,58,0
30480,note_on,60,0,1,,,,,,,,,,,,,,,0,,,78,0
30480,note_on,0,0,1,,,,,,,,,,,,,,,0,,,77,57
30500,set_tempo,20,1,0,,,,,,,,,,,,681818,,,,,,,
30520,set_tempo,20,1,0,,,,,,,,,,,,685714,,,,,,,
30540,note_on,60,0,1,,,,,,,,,,,,,,,0,,,77,0
30540,note_on,0,0,1,,,,,,,,,,,,,,,0,,,74,52
30540,set_tempo,20,1,0,,,,,,,,,,,,693642,,,,,,,
30560,set_tempo,20,1,0,,,,,,,,,,,,701754,,,,,,,
30580,set_tempo,20,1,0,,,,,,,,,,,,710059,,,,,,,
30600,note_on,60,0,1,,,,,,,,,,,,,,,0,,,74,0
30600,note_on,0,0,2,,,,,,,,,,,,,,,0,,,70,81
30600,set_tempo,20,1,0,,,,,,,,,,,,714286,,,,,,,
30600,note_on,360,0,2,,,,,,,,,,,,,,,0,,,70,0
30620,set_tempo,20,1,0,,,,,,,,,,,,722892,,,,,,,
30640,set_tempo,20,1,0,,,,,,,,,,,,731707,,,,,,,
30660,note_on,60,0,1,,,,,,,,,,,,,,,0,,,82,45
30660,set_tempo,20,1,0,,,,,,,,,,,,740741,,,,,,,
30684,control_change,204,0,3,,,,,,,,,,,,,,,0,64,0,,
30720,note_on,120,0,2,,,,,,,,,,,,,,,0,,,70,0
30720,note_on,60,0,1,,,,,,,,,,,,,,,0,,,82,0
30720,note_on,36,0,3,,,,,,,,,,,,,,,0,,,46,0
30720,note_on,0,0,3,,,,,,,,,,,,,,,0,,,56,59
30720,set_tempo,60,1,0,,,,,,,,,,,,600000,,,,,,,
30720,note_on,0,0,2,,,,,,,,,,,,,,,0,,,63,80
30732,control_change,12,0,3,,,,,,,,,,,,,,,0,64,127,,
30780,note_on,60,0,1,,,,,,,,,,,,,,,0,,,75,38
30800,note_on,68,0,3,,,,,,,,,,,,,,,0,,,56,0
30800,note_on,0,0,3,,,,,,,,,,,,,,,0,,,47,48
30840,note_on,0,0,1,,,,,,,,,,,,,,,0,,,68,47
30840,note_on,60,0,1,,,,,,,,,,,,,,,0,,,75,0
30880,note_on,0,0,3,,,,,,,,,,,,,,,0,,,51,55
30880,note_on,80,0,3,,,,,,,,,,,,,,,0,,,47,0
30880,set_tempo,160,1,0,,,,,,,,,,,,597015,,,,,,,
30900,note_on,60,0,1,,,,,,,,,,,,,,,0,,,68,0
30900,note_on,0,0,1,,,,,,,,,,,,,,,0,,,73,40
30960,note_on,60,0,1,,,,,,,,,,,,,,,0,,,73,0
30960,note_on,0,0,1,,,,,,,,,,,,,,,0,,,71,47
30960,note_on,0,0,3,,,,,,,,,,,,,,,0,,,41,42
30960,note_on,80,0,3,,,,,,,,,,,,,,,0,,,51,0
31020,note_on,60,0,1,,,,,,,,,,,,,,,0,,,71,0
31020,note_on,0,0,1,,,,,,,,,,,,,,,0,,,68,40
31020,set_tempo,140,1,0,,,,,,,,,,,,594059,,,,,,,
31080,note_on,60,0,1,,,,,,,,,,,,,,,0,,,68,0
31080,note_on,360,0,2,,,,,,,,,,,,,,,0,,,63,0
31080,note_on,0,0,2,,,,,,,,,,,,,,,0,,,63,62
31140,note_on,60,0,1,,,,,,,,,,,,,,,0,,,75,44
31156,control_change,196,0,3,,,,,,,,,,,,,,,0,64,0,,
31160,set_tempo,140,1,0,,,,,,,,,,,,591133,,,,,,,
31200,note_on,44,0,3,,,,,,,,,,,,,,,0,,,41,0
31200,note_on,0,0,3,,,,,,,,,,,,,,,0,,,56,56
31200,control_change,0,0,3,,,,,,,,,,,,,,,0,64,127,,
31200,note_on,120,0,2,,,,,,,,,,,,,,,0,,,63,0
31200,note_on,60,0,1,,,,,,,,,,,,,,,0,,,75,0
31200,note_on,0,0,2,,,,,,,,,,,,,,,0,,,62,77
31260,note_on,60,0,1,,,,,,,,,,,,,,,0,,,74,40
31280,note_on,80,0,3,,,,,,,,,,,,,,,0,,,56,0
31280,note_on,0,0,3,,,,,,,,,,,,,,,0,,,47,48
31300,set_tempo,140,1,0,,,,,,,,,,,,588235,,,,,,,
31320,note_on,60,0,1,,,,,,,,,,,,,,,0,,,74,0
31320,note_on,0,0,1,,,,,,,,,,,,,,,0,,,68,48
31360,note_on,80,0,3,,,,,,,,,,,,,,,0,,,47,0
31360,note_on,0,0,3,,,,,,,,,,,,,,,0,,,51,53
31380,note_on,0,0,1,,,,,,,,,,,,,,,0,,,73,40
31380,note_on,60,0,1,,,,,,,,,,,,,,,0,,,68,0
31440,note_on,80,0,3,,,,,,,,,,,,,,,0,,,51,0
31440,note_on,60,0,1,,,,,,,,,,,,,,,0,,,73,0
31440,note_on,0,0,3,,,,,,,,,,,,,,,0,,,41,41
31440,set_tempo,140,1,0,,,,,,,,,,,,585366,,,,,,,
31440,note_on,0,0,1,,,,,,,,,,,,,,,0,,,71,46
31500,note_on,60,0,1,,,,,,,,,,,,,,,0,,,71,0
31500,note_on,0,0,1,,,,,,,,,,,,,,,0,,,68,37
31560,note_on,0,0,2,,,,,,,,,,,,,,,0,,,63,64
31560,note_on,360,0,2,,,,,,,,,,,,,,,0,,,62,0
31560,note_on,60,0,1,,,,,,,,,,,,,,,0,,,68,0
31600,set_tempo,160,1,0,,,,,,,,,,,,582524,,,,,,,
31620,note_on,60,0,1,,,,,,,,,,,,,,,0,,,75,44
31656,control_change,216,0,3,,,,,,,,,,,,,,,0,64,0,,
31680,note_on,0,0,3,,,,,,,,,,,,,,,0,,,62,56
31680,note_on,24,0,3,,,,,,,,,,,,,,,0,,,41,0
31680,note_on,60,0,1,,,,,,,,,,,,,,,0,,,75,0
31680,note_on,120,0,2,,,,,,,,,,,,,,,0,,,63,0
31680,note_on,0,0,2,,,,,,,,,,,,,,,0,,,65,81
31692,control_change,12,0,3,,,,,,,,,,,,,,,0,64,127,,
31740,set_tempo,140,1,0,,,,,,,,,,,,579710,,,,,,,
31740,note_on,60,0,1,,,,,,,,,,,,,,,0,,,77,38
31760,note_on,68,0,3,,,,,,,,,,,,,,,0,,,62,0
31760,note_on,0,0,3,,,,,,,,,,,,,,,0,,,53,44
31800,note_on,0,0,1,,,,,,,,,,,,,,,0,,,70,45
31800,note_on,60,0,1,,,,,,,,,,,,,,,0,,,77,0
31840,note_on,80,0,3,,,,,,,,,,,,,,,0,,,53,0
31840,note_on,0,0,3,,,,,,,,,,,,,,,0,,,58,52
31860,note_on,60,0,1,,,,,,,,,,,,,,,0,,,70,0
31860,note_on,0,0,1,,,,,,,,,,,,,,,0,,,75,38
31880,set_tempo,140,1,0,,,,,,,,,,,,576923,,,,,,,
31920,note_on,60,0,1,,,,,,,,,,,,,,,0,,,75,0
31920,note_on,0,0,1,,,,,,,,,,,,,,,0,,,74,47
31920,note_on,80,0,3,,,,,,,,,,,,,,,0,,,58,0
31920,note_on,0,0,3,,,,,,,,,,,,,,,0,,,46,42
31980,note_on,60,0,1,,,,,,,,,,,,,,,0,,,74,0
31980,note_on,0,0,1,,,,,,,,,,,,,,,0,,,70,38
32020,set_tempo,140,1,0,,,,,,,,,,,,574163,,,,,,,
32040,note_on,60,0,1,,,,,,,,,,,,,,,0,,,70,0
32040,note_on,360,0,2,,,,,,,,,,,,,,,0,,,65,0
32040,note_on,0,0,2,,,,,,,,,,,,,,,0,,,65,67
32100,note_on,60,0,1,,,,,,,,,,,,,,,0,,,77,44
32128,control_change,208,0,3,,,,,,,,,,,,,,,0,64,0,,
32140,set_tempo,120,1,0,,,,,,,,,,,,571429,,,,,,,
32160,note_on,0,0,3,,,,,,,,,,,,,,,0,,,62,56
32160,note_on,32,0,3,,,,,,,,,,,,,,,0,,,46,0
32160,note_on,60,0,1,,,,,,,,,,,,,,,0,,,77,0
32160,note_on,120,0,2,,,,,,,,,,,,,,,0,,,65,0
32160,note_on,0,0,2,,,,,,,,,,,,,,,0,,,66,85
32172,control_change,12,0,3,,,,,,,,,,,,,,,0,64,127,,
32180,set_tempo,40,1,0,,,,,,,,,,,,574163,,,,,,,
32200,set_tempo,20,1,0,,,,,,,,,,,,576923,,,,,,,
32220,note_on,60,0,1,,,,,,,,,,,,,,,0,,,78,38
32240,note_on,68,0,3,,,,,,,,,,,,,,,0,,,62,0
32240,set_tempo,40,1,0,,,,,,,,,,,,579710,,,,,,,
32240,note_on,0,0,3,,,,,,,,,,,,,,,0,,,53,48
32260,set_tempo,20,1,0,,,,,,,,,,,,582524,,,,,,,
32280,note_on,60,0,1,,,,,,,,,,,,,,,0,,,78,0
32280,note_on,0,0,1,,,,,,,,,,,,,,,0,,,70,47
32300,set_tempo,40,1,0,,,,,,,,,,,,585366,,,,,,,
32320,note_on,0,0,3,,,,,,,,,,,,,,,0,,,58,53
32320,set_tempo,20,1,0,,,,,,,,,,,,588235,,,,,,,
32320,note_on,80,0,3,,,,,,,,,,,,,,,0,,,53,0
32340,note_on,0,0,1,,,,,,,,,,,,,,,0,,,75,38
32340,note_on,60,0,1,,,,,,,,,,,,,,,0,,,70,0
32360,set_tempo,40,1,0,,,,,,,,,,,,591133,,,,,,,
32380,set_tempo,20,1,0,,,,,,,,,,,,594059,,,,,,,
32400,set_tempo,20,1,0,,,,,,,,,,,,597015,,,,,,,
32400,note_on,0,0,1,,,,,,,,,,,,,,,0,,,74,46
32400,note_on,60,0,1,,,,,,,,,,,,,,,0,,,75,0
32400,note_on,0,0,3,,,,,,,,,,,,,,,0,,,46,45
32400,note_on,80,0,3,,,,,,,,,,,,,,,0,,,58,0
32440,set_tempo,40,1,0,,,,,,,,,,,,600000,,,,,,,
32460,set_tempo,20,1,0,,,,,,,,,,,,603015,,,,,,,
32460,note_on,0,0,1,,,,,,,,,,,,,,,0,,,70,38
32460,note_on,60,0,1,,,,,,,,,,,,,,,0,,,74,0
32500,set_tempo,40,1,0,,,,,,,,,,,,606061,,,,,,,
32520,set_tempo,20,1,0,,,,,,,,,,,,609137,,,,,,,
32520,note_on,60,0,1,,,,,,,,,,,,,,,0,,,70,0
32520,note_on,0,0,2,,,,,,,,,,,,,,,0,,,65,62
32520,note_on,360,0,2,,,,,,,,,,,,,,,0,,,66,0
32560,set_tempo,40,1,0,,,,,,,,,,,,612245,,,,,,,
32580,set_tempo,20,1,0,,,,,,,,,,,,615385,,,,,,,
32580,note_on,60,0,1,,,,,,,,,,,,,,,0,,,77,44
32588,control_change,188,0,3,,,,,,,,,,,,,,,0,64,0,,
32620,set_tempo,40,1,0,,,,,,,,,,,,618557,,,,,,,
32640,note_on,0,0,2,,,,,,,,,,,,,,,0,,,63,81
32640,note_on,120,0,2,,,,,,,,,,,,,,,0,,,65,0
32640,note_on,0,0,3,,,,,,,,,,,,,,,0,,,56,58
32640,note_on,52,0,3,,,,,,,,,,,,,,,0,,,46,0
32640,note_on,60,0,1,,,,,,,,,,,,,,,0,,,77,0
32640,set_tempo,20,1,0,,,,,,,,,,,,594059,,,,,,,
32652,control_change,12,0,3,,,,,,,,,,,,,,,0,64,127,,
32700,note_on,60,0,1,,,,,,,,,,,,,,,0,,,75,40
32720,set_tempo,80,1,0,,,,,,,,,,,,591133,,,,,,,
32720,note_on,68,0,3,,,,,,,,,,,,,,,0,,,56,0
32720,note_on,0,0,3,,,,,,,,,,,,,,,0,,,47,49
32760,note_on,60,0,1,,,,,,,,,,,,,,,0,,,75,0
32760,note_on,0,0,1,,,,,,,,,,,,,,,0,,,68,46
32800,set_tempo,80,1,0,,,,,,,,,,,,588235,,,,,,,
32800,note_on,80,0,3,,,,,,,,,,,,,,,0,,,47,0
32800,note_on,0,0,3,,,,,,,,,,,,,,,0,,,51,52
32820,note_on,60,0,1,,,,,,,,,,,,,,,0,,,68,0
32820,note_on,0,0,1,,,,,,,,,,,,,,,0,,,73,40
32880,note_on,60,0,1,,,,,,,,,,,,,,,0,,,73,0
32880,note_on,80,0,3,,,,,,,,,,,,,,,0,,,51,0
32880,note_on,0,0,1,,,,,,,,,,,,,,,0,,,71,47
32880,set_tempo,80,1,0,,,,,,,,,,,,585366,,,,,,,
32880,note_on,0,0,3,,,,,,,,,,,,,,,0,,,41,45
32940,note_on,0,0,1,,,,,,,,,,,,,,,0,,,68,40
32940,set_tempo,60,1,0,,,,,,,,,,,,582524,,,,,,,
32940,note_on,60,0,1,,,,,,,,,,,,,,,0,,,71,0
33000,note_on,60,0,1,,,,,,,,,,,,,,,0,,,68,0
33000,note_on,0,0,2,,,,,,,,,,,,,,,0,,,63,66
33000,note_on,360,0,2,,,,,,,,,,,,,,,0,,,63,0
33020,set_tempo,80,1,0,,,,,,,,,,,,579710,,,,,,,
33060,note_on,60,0,1,,,,,,,,,,,,,,,0,,,75,46
33084,control_change,204,0,3,,,,,,,,,,,,,,,0,64,0,,
33100,set_tempo,80,1,0,,,,,,,,,,,,576923,,,,,,,
33120,note_on,36,0,3,,,,,,,,,,,,,,,0,,,41,0
33120,note_on,0,0,3,,,,,,,,,,,,,,,0,,,56,57
33120,control_change,0,0,3,,,,,,,,,,,,,,,0,64,127,,
33120,note_on,60,0,1,,,,,,,,,,,,,,,0,,,75,0
33120,note_on,120,0,2,,,,,,,,,,,,,,,0,,,63,0
33120,note_on,0,0,2,,,,,,,,,,,,,,,0,,,62,78
33160,set_tempo,60,1,0,,,,,,,,,,,,574163,,,,,,,
33180,note_on,60,0,1,,,,,,,,,,,,,,,0,,,74,40
33200,note_on,80,0,3,,,,,,,,,,,,,,,0,,,56,0
33200,note_on,0,0,3,,,,,,,,,,,,,,,0,,,47,47
33240,set_tempo,80,1,0,,,,,,,,,,,,571429,,,,,,,
33240,note_on,0,0,1,,,,,,,,,,,,,,,0,,,68,46
33240,note_on,60,0,1,,,,,,,,,,,,,,,0,,,74,0
33280,note_on,80,0,3,,,,,,,,,,,,,,,0,,,47,0
33280,note_on,0,0,3,,,,,,,,,,,,,,,0,,,51,53
33300,note_on,0,0,1,,,,,,,,,,,,,,,0,,,73,40
33300,note_on,60,0,1,,,,,,,,,,,,,,,0,,,68,0
33320,set_tempo,80,1,0,,,,,,,,,,,,568720,,,,,,,
33360,note_on,80,0,3,,,,,,,,,,,,,,,0,,,51,0
33360,note_on,0,0,3,,,,,,,,,,,,,,,0,,,41,47
33360,note_on,0,0,1,,,,,,,,,,,,,,,0,,,71,48
33360,note_on,60,0,1,,,,,,,,,,,,,,,0,,,73,0
33380,set_tempo,60,1,0,,,,,,,,,,,,566038,,,,,,,
33420,note_on,60,0,1,,,,,,,,,,,,,,,0,,,71,0
33420,note_on,0,0,1,,,,,,,,,,,,,,,0,,,68,40
33460,set_tempo,80,1,0,,,,,,,,,,,,563380,,,,,,,
33480,note_on,60,0,1,,,,,,,,,,,,,,,0,,,68,0
33480,note_on,0,0,2,,,,,,,,,,,,,,,0,,,63,66
33480,note_on,360,0,2,,,,,,,,,,,,,,,0,,,62,0
33540,note_on,60,0,1,,,,,,,,,,,,,,,0,,,75,47
33540,set_tempo,80,1,0,,,,,,,,,,,,560748,,,,,,,
33580,control_change,220,0,3,,,,,,,,,,,,,,,0,64,0,,
33600,note_on,20,0,3,,,,,,,,,,,,,,,0,,,41,0
33600,note_on,0,0,3,,,,,,,,,,,,,,,0,,,62,60
33600,set_tempo,60,1,0,,,,,,,,,,,,555556,,,,,,,
33600,note_on,120,0,2,,,,,,,,,,,,,,,0,,,63,0
33600,note_on,0,0,2,,,,,,,,,,,,,,,0,,,65,84
33600,note_on,60,0,1,,,,,,,,,,,,,,,0,,,75,0
33612,control_change,12,0,3,,,,,,,,,,,,,,,0,64,127,,
33620,set_tempo,20,1,0,,,,,,,,,,,,560748,,,,,,,
33640,set_tempo,20,1,0,,,,,,,,,,,,566038,,,,,,,
33660,set_tempo,20,1,0,,,,,,,,,,,,571429,,,,,,,
33660,note_on,60,0,1,,,,,,,,,,,,,,,0,,,77,44
33680,set_tempo,20,1,0,,,,,,,,,,,,576923,,,,,,,
33680,note_on,0,0,3,,,,,,,,,,,,,,,0,,,53,53
33680,note_on,68,0,3,,,,,,,,,,,,,,,0,,,62,0
33700,set_tempo,20,1,0,,,,,,,,,,,,585366,,,,,,,
33720,note_on,0,0,1,,,,,,,,,,,,,,,0,,,70,48
33720,set_tempo,20,1,0,,,,,,,,,,,,591133,,,,,,,
33720,note_on,60,0,1,,,,,,,,,,,,,,,0,,,77,0
33740,set_tempo,20,1,0,,,,,,,,,,,,597015,,,,,,,
33760,note_on,0,0,3,,,,,,,,,,,,,,,0,,,58,58
33760,set_tempo,20,1,0,,,,,,,,,,,,603015,,,,,,,
33760,note_on,80,0,3,,,,,,,,,,,,,,,0,,,53,0
33780,set_tempo,20,1,0,,,,,,,,,,,,609137,,,,,,,
33780,note_on,0,0,1,,,,,,,,,,,,,,,0,,,75,45
33780,note_on,60,0,1,,,,,,,,,,,,,,,0,,,70,0
33800,set_tempo,20,1,0,,,,,,,,,,,,618557,,,,,,,
33820,set_tempo,20,1,0,,,,,,,,,,,,625000,,,,,,,
33840,note_on,60,0,1,,,,,,,,,,,,,,,0,,,75,0
33840,note_on,0,0,3,,,,,,,,,,,,,,,0,,,46,50
33840,note_on,80,0,3,,,,,,,,,,,,,,,0,,,58,0
33840,set_tempo,20,1,0,,,,,,,,,,,,631579,,,,,,,
33840,note_on,0,0,1,,,,,,,,,,,,,,,0,,,74,50
33860,set_tempo,20,1,0,,,,,,,,,,,,638298,,,,,,,
33880,set_tempo,20,1,0,,,,,,,,,,,,648649,,,,,,,
33900,note_on,0,0,1,,,,,,,,,,,,,,,0,,,70,45
33900,set_tempo,20,1,0,,,,,,,,,,,,655738,,,,,,,
33900,note_on,60,0,1,,,,,,,,,,,,,,,0,,,74,0
33920,set_tempo,20,1,0,,,,,,,,,,,,662983,,,,,,,
33940,set_tempo,20,1,0,,,,,,,,,,,,670391,,,,,,,
33960,note_on,360,0,2,,,,,,,,,,,,,,,0,,,65,0
33960,note_on,60,0,1,,,,,,,,,,,,,,,0,,,70,0
33960,set_tempo,20,1,0,,,,,,,,,,,,677966,,,,,,,
33960,note_on,0,0,2,,,,,,,,,,,,,,,0,,,65,67
33980,set_tempo,20,1,0,,,,,,,,,,,,689655,,,,,,,
34000,set_tempo,20,1,0,,,,,,,,,,,,697674,,,,,,,
34020,note_on,60,0,1,,,,,,,,,,,,,,,0,,,77,48
34020,set_tempo,20,1,0,,,,,,,,,,,,705882,,,,,,,
34040,set_tempo,20,1,0,,,,,,,,,,,,714286,,,,,,,
34044,control_change,204,0,3,,,,,,,,,,,,,,,0,64,0,,
34080,set_tempo,40,1,0,,,,,,,,,,,,789474,,,,,,,
34080,note_on,36,0,3,,,,,,,,,,,,,,,0,,,46,0
34080,note_on,0,0,3,,,,,,,,,,,,,,,0,,,59,61
34080,note_on,60,0,1,,,,,,,,,,,,,,,0,,,77,0
34080,control_change,0,0,3,,,,,,,,,,,,,,,0,64,127,,
34080,note_on,0,0,2,,,,,,,,,,,,,,,0,,,65,86
34080,note_on,120,0,2,,,,,,,,,,,,,,,0,,,65,0
34140,note_on,60,0,1,,,,,,,,,,,,,,,0,,,77,44
34160,note_on,80,0,3,,,,,,,,,,,,,,,0,,,59,0
34160,note_on,0,0,3,,,,,,,,,,,,,,,0,,,49,53
34200,note_on,0,0,1,,,,,,,,,,,,,,,0,,,72,51
34200,note_on,60,0,1,,,,,,,,,,,,,,,0,,,77,0
34240,note_on,80,0,3,,,,,,,,,,,,,,,0,,,49,0
34240,note_on,0,0,3,,,,,,,,,,,,,,,0,,,53,62
34260,note_on,0,0,1,,,,,,,,,,,,,,,0,,,74,45
34260,note_on,60,0,1,,,,,,,,,,,,,,,0,,,72,0
34320,note_on,0,0,3,,,,,,,,,,,,,,,0,,,44,55
34320,note_on,0,0,1,,,,,,,,,,,,,,,0,,,73,51
34320,note_on,60,0,1,,,,,,,,,,,,,,,0,,,74,0
34320,note_on,80,0,3,,,,,,,,,,,,,,,0,,,53,0
34380,note_on,60,0,1,,,,,,,,,,,,,,,0,,,73,0
34380,note_on,0,0,1,,,,,,,,,,,,,,,0,,,71,45
34440,note_on,360,0,2,,,,,,,,,,,,,,,0,,,65,0
34440,note_on,0,0,2,,,,,,,,,,,,,,,0,,,61,77
34440,note_on,60,0,1,,,,,,,,,,,,,,,0,,,71,0
34464,control_change,144,0,3,,,,,,,,,,,,,,,0,64,0,,
34480,set_tempo,400,1,0,,,,,,,,,,,,745342,,,,,,,
34500,note_on,60,0,1,,,,,,,,,,,,,,,0,,,73,46
34520,set_tempo,40,1,0,,,,,,,,,,,,740741,,,,,,,
34560,note_on,60,0,1,,,,,,,,,,,,,,,0,,,73,0
34560,note_on,96,0,3,,,,,,,,,,,,,,,0,,,44,0
34560,note_on,0,0,3,,,,,,,,,,,,,,,0,,,57,64
34560,control_change,0,0,3,,,,,,,,,,,,,,,0,64,127,,
34560,note_on,120,0,2,,,,,,,,,,,,,,,0,,,61,0
34560,note_on,0,0,2,,,,,,,,,,,,,,,0,,,61,92
34560,set_tempo,40,1,0,,,,,,,,,,,,697674,,,,,,,
34620,note_on,60,0,1,,,,,,,,,,,,,,,0,,,73,47
34620,set_tempo,60,1,0,,,,,,,,,,,,693642,,,,,,,
34640,note_on,80,0,3,,,,,,,,,,,,,,,0,,,57,0
34640,note_on,0,0,3,,,,,,,,,,,,,,,0,,,49,55
34660,set_tempo,40,1,0,,,,,,,,,,,,689655,,,,,,,
34680,note_on,0,0,1,,,,,,,,,,,,,,,0,,,68,57
34680,note_on,60,0,1,,,,,,,,,,,,,,,0,,,73,0
34720,note_on,0,0,3,,,,,,,,,,,,,,,0,,,54,59
34720,note_on,80,0,3,,,,,,,,,,,,,,,0,,,49,0
34720,set_tempo,60,1,0,,,,,,,,,,,,685714,,,,,,,
34740,note_on,0,0,1,,,,,,,,,,,,,,,0,,,71,50
34740,note_on,60,0,1,,,,,,,,,,,,,,,0,,,68,0
34760,set_tempo,40,1,0,,,,,,,,,,,,681818,,,,,,,
34800,note_on,0,0,3,,,,,,,,,,,,,,,0,,,42,57
34800,note_on,0,0,1,,,,,,,,,,,,,,,0,,,69,59
34800,note_on,60,0,1,,,,,,,,,,,,,,,0,,,71,0
34800,note_on,80,0,3,,,,,,,,,,,,,,,0,,,54,0
34800,set_tempo,40,1,0,,,,,,,,,,,,677966,,,,,,,
34860,note_on,0,0,1,,,,,,,,,,,,,,,0,,,66,50
34860,set_tempo,60,1,0,,,,,,,,,,,,674157,,,,,,,
34860,note_on,60,0,1,,,,,,,,,,,,,,,0,,,69,0
34900,set_tempo,40,1,0,,,,,,,,,,,,670391,,,,,,,
34920,note_on,0,0,2,,,,,,,,,,,,,,,0,,,62,71
34920,note_on,360,0,2,,,,,,,,,,,,,,,0,,,61,0
34920,note_on,60,0,1,,,,,,,,,,,,,,,0,,,66,0
34940,set_tempo,40,1,0,,,,,,,,,,,,666667,,,,,,,
34980,note_on,60,0,1,,,,,,,,,,,,,,,0,,,74,55
35000,set_tempo,60,1,0,,,,,,,,,,,,662983,,,,,,,
35004,control_change,204,0,3,,,,,,,,,,,,,,,0,64,0,,
35040,control_change,0,0,3,,,,,,,,,,,,,,,0,64,127,,
35040,note_on,36,0,3,,,,,,,,,,,,,,,0,,,42,0
35040,set_tempo,40,1,0,,,,,,,,,,,,659341,,,,,,,
35040,note_on,0,0,2,,,,,,,,,,,,,,,0,,,61,83
35040,note_on,120,0,2,,,,,,,,,,,,,,,0,,,62,0
35040,note_on,60,0,1,,,,,,,,,,,,,,,0,,,74,0
35040,note_on,0,0,3,,,,,,,,,,,,,,,0,,,57,66
35080,set_tempo,40,1,0,,,,,,,,,,,,655738,,,,,,,
35100,note_on,60,0,1,,,,,,,,,,,,,,,0,,,73,47
35120,note_on,80,0,3,,,,,,,,,,,,,,,0,,,57,0
35120,note_on,0,0,3,,,,,,,,,,,,,,,0,,,49,55
35140,set_tempo,60,1,0,,,,,,,,,,,,652174,,,,,,,
35160,note_on,60,0,1,,,,,,,,,,,,,,,0,,,73,0
35160,note_on,0,0,1,,,,,,,,,,,,,,,0,,,68,56
35180,set_tempo,40,1,0,,,,,,,,,,,,648649,,,,,,,
35200,note_on,80,0,3,,,,,,,,,,,,,,,0,,,49,0
35200,note_on,0,0,3,,,,,,,,,,,,,,,0,,,54,61
35220,note_on,0,0,1,,,,,,,,,,,,,,,0,,,71,48
35220,note_on,60,0,1,,,,,,,,,,,,,,,0,,,68,0
35220,set_tempo,40,1,0,,,,,,,,,,,,645161,,,,,,,
35280,note_on,60,0,1,,,,,,,,,,,,,,,0,,,71,0
35280,note_on,0,0,1,,,,,,,,,,,,,,,0,,,69,57
35280,note_on,80,0,3,,,,,,,,,,,,,,,0,,,54,0
35280,note_on,0,0,3,,,,,,,,,,,,,,,0,,,45,56
35280,set_tempo,60,1,0,,,,,,,,,,,,641711,,,,,,,
35320,set_tempo,40,1,0,,,,,,,,,,,,638298,,,,,,,
35340,note_on,0,0,1,,,,,,,,,,,,,,,0,,,68,47
35340,note_on,60,0,1,,,,,,,,,,,,,,,0,,,69,0
35360,set_tempo,40,1,0,,,,,,,,,,,,634921,,,,,,,
35400,note_on,60,0,1,,,,,,,,,,,,,,,0,,,68,0
35400,note_on,0,0,2,,,,,,,,,,,,,,,0,,,66,75
35400,note_on,360,0,2,,,,,,,,,,,,,,,0,,,61,0
35420,set_tempo,60,1,0,,,,,,,,,,,,631579,,,,,,,
35460,set_tempo,40,1,0,,,,,,,,,,,,628272,,,,,,,
35460,note_on,60,0,1,,,,,,,,,,,,,,,0,,,78,56
35496,control_change,216,0,3,,,,,,,,,,,,,,,0,64,0,,
35500,set_tempo,40,1,0,,,,,,,,,,,,621762,,,,,,,
35520,note_on,0,0,2,,,,,,,,,,,,,,,0,,,66,93
35520,note_on,120,0,2,,,,,,,,,,,,,,,0,,,66,0
35520,note_on,24,0,3,,,,,,,,,,,,,,,0,,,45,0
35520,note_on,0,0,3,,,,,,,,,,,,,,,0,,,62,70
35520,note_on,60,0,1,,,,,,,,,,,,,,,0,,,78,0
35532,control_change,12,0,3,,,,,,,,,,,,,,,0,64,127,,
35580,note_on,60,0,1,,,,,,,,,,,,,,,0,,,78,48
35600,note_on,68,0,3,,,,,,,,,,,,,,,0,,,62,0
35600,note_on,0,0,3,,,,,,,,,,,,,,,0,,,56,59
35620,set_tempo,120,1,0,,,,,,,,,,,,625000,,,,,,,
35640,note_on,60,0,1,,,,,,,,,,,,,,,0,,,78,0
35640,note_on,0,0,1,,,,,,,,,,,,,,,0,,,70,60
35680,note_on,80,0,3,,,,,,,,,,,,,,,0,,,56,0
35680,note_on,0,0,3,,,,,,,,,,,,,,,0,,,59,64
35700,note_on,60,0,1,,,,,,,,,,,,,,,0,,,70,0
35700,note_on,0,0,1,,,,,,,,,,,,,,,0,,,73,48
35740,set_tempo,120,1,0,,,,,,,,,,,,628272,,,,,,,
35760,note_on,60,0,1,,,,,,,,,,,,,,,0,,,73,0
35760,note_on,0,0,1,,,,,,,,,,,,,,,0,,,71,61
35760,note_on,80,0,3,,,,,,,,,,,,,,,0,,,59,0
35760,note_on,0,0,3,,,,,,,,,,,,,,,0,,,54,59
35820,note_on,60,0,1,,,,,,,,,,,,,,,0,,,71,0
35820,note_on,0,0,1,,,,,,,,,,,,,,,0,,,68,51
35860,set_tempo,120,1,0,,,,,,,,,,,,631579,,,,,,,
35880,note_on,60,0,1,,,,,,,,,,,,,,,0,,,68,0
35880,note_on,0,0,2,,,,,,,,,,,,,,,0,,,65,70
35880,note_on,360,0,2,,,,,,,,,,,,,,,0,,,66,0
35940,note_on,60,0,1,,,,,,,,,,,,,,,0,,,77,59
35968,control_change,208,0,3,,,,,,,,,,,,,,,0,64,0,,
35980,set_tempo,120,1,0,,,,,,,,,,,,634921,,,,,,,
36000,note_on,0,0,3,,,,,,,,,,,,,,,0,,,61,70
36000,control_change,0,0,3,,,,,,,,,,,,,,,0,64,127,,
36000,note_on,32,0,3,,,,,,,,,,,,,,,0,,,54,0
36000,note_on,120,0,2,,,,,,,,,,,,,,,0,,,65,0
36000,note_on,0,0,2,,,,,,,,,,,,,,,0,,,69,84
36000,note_on,60,0,1,,,,,,,,,,,,,,,0,,,77,0
36060,note_on,60,0,1,,,,,,,,,,,,,,,0,,,81,51
36080,note_on,80,0,3,,,,,,,,,,,,,,,0,,,61,0
36080,note_on,0,0,3,,,,,,,,,,,,,,,0,,,53,59
36100,set_tempo,120,1,0,,,,,,,,,,,,638298,,,,,,,
36120,note_on,60,0,1,,,,,,,,,,,,,,,0,,,81,0
36120,note_on,0,0,1,,,,,,,,,,,,,,,0,,,72,63
36160,note_on,80,0,3,,,,,,,,,,,,,,,0,,,53,0
36160,note_on,0,0,3,,,,,,,,,,,,,,,0,,,59,66
36180,note_on,60,0,1,,,,,,,,,,,,,,,0,,,72,0
36180,note_on,0,0,1,,,,,,,,,,,,,,,0,,,74,55
36220,set_tempo,120,1,0,,,,,,,,,,,,641711,,,,,,,
36240,note_on,60,0,1,,,,,,,,,,,,,,,0,,,74,0
36240,note_on,0,0,1,,,,,,,,,,,,,,,0,,,73,63
36240,note_on,0,0,3,,,,,,,,,,,,,,,0,,,49,58
36240,note_on,80,0,3,,,,,,,,,,,,,,,0,,,59,0
36300,note_on,60,0,1,,,,,,,,,,,,,,,0,,,73,0
36300,note_on,0,0,1,,,,,,,,,,,,,,,0,,,71,60
36340,set_tempo,120,1,0,,,,,,,,,,,,645161,,,,,,,
36360,note_on,60,0,1,,,,,,,,,,,,,,,0,,,71,0
36360,note_on,360,0,2,,,,,,,,,,,,,,,0,,,69,0
36360,note_on,0,0,2,,,,,,,,,,,,,,,0,,,68,67
36372,control_change,132,0,3,,,,,,,,,,,,,,,0,64,0,,
36420,note_on,60,0,1,,,,,,,,,,,,,,,0,,,80,60
36460,set_tempo,120,1,0,,,,,,,,,,,,585366,,,,,,,
36480,note_on,0,0,3,,,,,,,,,,,,,,,0,,,57,73
36480,note_on,108,0,3,,,,,,,,,,,,,,,0,,,49,0
36480,note_on,0,0,2,,,,,,,,,,,,,,,0,,,61,93
36480,note_on,120,0,2,,,,,,,,,,,,,,,0,,,68,0
36480,note_on,60,0,1,,,,,,,,,,,,,,,0,,,80,0
36492,control_change,12,0,3,,,,,,,,,,,,,,,0,64,127,,
36520,set_tempo,60,1,0,,,,,,,,,,,,582524,,,,,,,
36540,note_on,60,0,1,,,,,,,,,,,,,,,0,,,73,52
36560,note_on,0,0,3,,,,,,,,,,,,,,,0,,,49,60
36560,note_on,68,0,3,,,,,,,,,,,,,,,0,,,57,0
36580,set_tempo,60,1,0,,,,,,,,,,,,579710,,,,,,,
36600,note_on,0,0,1,,,,,,,,,,,,,,,0,,,68,60
36600,note_on,60,0,1,,,,,,,,,,,,,,,0,,,73,0
36620,set_tempo,40,1,0,,,,,,,,,,,,576923,,,,,,,
36640,note_on,0,0,3,,,,,,,,,,,,,,,0,,,54,68
36640,note_on,80,0,3,,,,,,,,,,,,,,,0,,,49,0
36660,note_on,60,0,1,,,,,,,,,,,,,,,0,,,68,0
36660,note_on,0,0,1,,,,,,,,,,,,,,,0,,,71,51
36680,set_tempo,60,1,0,,,,,,,,,,,,574163,,,,,,,
36720,note_on,60,0,1,,,,,,,,,,,,,,,0,,,71,0
36720,note_on,80,0,3,,,,,,,,,,,,,,,0,,,54,0
36720,note_on,0,0,3,,,,,,,,,,,,,,,0,,,42,58
36720,note_on,0,0,1,,,,,,,,,,,,,,,0,,,69,61
36720,set_tempo,40,1,0,,,,,,,,,,,,571429,,,,,,,
36780,set_tempo,60,1,0,,,,,,,,,,,,568720,,,,,,,
36780,note_on,0,0,1,,,,,,,,,,,,,,,0,,,66,51
36780,note_on,60,0,1,,,,,,,,,,,,,,,0,,,69,0
36820,set_tempo,40,1,0,,,,,,,,,,,,566038,,,,,,,
36840,note_on,360,0,2,,,,,,,,,,,,,,,0,,,61,0
36840,note_on,0,0,2,,,,,,,,,,,,,,,0,,,62,70
36840,note_on,60,0,1,,,,,,,,,,,,,,,0,,,66,0
36880,set_tempo,60,1,0,,,,,,,,,,,,563380,,,,,,,
36900,note_on,60,0,1,,,,,,,,,,,,,,,0,,,74,60
36920,set_tempo,40,1,0,,,,,,,,,,,,560748,,,,,,,
36924,control_change,204,0,3,,,,,,,,,,,,,,,0,64,0,,
36960,control_change,0,0,3,,,,,,,,,,,,,,,0,64,127,,
36960,note_on,0,0,3,,,,,,,,,,,,,,,0,,,57,73
36960,note_on,36,0,3,,,,,,,,,,,,,,,0,,,42,0
36960,note_on,60,0,1,,,,,,,,,,,,,,,0,,,74,0
36960,note_on,0,0,2,,,,,,,,,,,,,,,0,,,61,86
36960,note_on,120,0,2,,,,,,,,,,,,,,,0,,,62,0
36980,set_tempo,60,1,0,,,,,,,,,,,,558140,,,,,,,
37020,set_tempo,40,1,0,,,,,,,,,,,,555556,,,,,,,
37020,note_on,60,0,1,,,,,,,,,,,,,,,0,,,73,55
37040,note_on,0,0,3,,,,,,,,,,,,,,,0,,,49,60
37040,note_on,80,0,3,,,,,,,,,,,,,,,0,,,57,0
37080,set_tempo,60,1,0,,,,,,,,,,,,552995,,,,,,,
37080,note_on,0,0,1,,,,,,,,,,,,,,,0,,,68,63
37080,note_on,60,0,1,,,,,,,,,,,,,,,0,,,73,0
37120,set_tempo,40,1,0,,,,,,,,,,,,550459,,,,,,,
37120,note_on,80,0,3,,,,,,,,,,,,,,,0,,,49,0
37120,note_on,0,0,3,,,,,,,,,,,,,,,0,,,54,64
37140,note_on,0,0,1,,,,,,,,,,,,,,,0,,,71,52
37140,note_on,60,0,1,,,,,,,,,,,,,,,0,,,68,0
37180,set_tempo,60,1,0,,,,,,,,,,,,547945,,,,,,,
37200,note_on,60,0,1,,,,,,,,,,,,,,,0,,,71,0
37200,note_on,0,0,1,,,,,,,,,,,,,,,0,,,69,63
37200,note_on,0,0,3,,,,,,,,,,,,,,,0,,,45,58
37200,note_on,80,0,3,,,,,,,,,,,,,,,0,,,54,0
37220,set_tempo,40,1,0,,,,,,,,,,,,545455,,,,,,,
37260,note_on,60,0,1,,,,,,,,,,,,,,,0,,,69,0
37260,note_on,0,0,1,,,,,,,,,,,,,,,0,,,68,52
37280,set_tempo,60,1,0,,,,,,,,,,,,542986,,,,,,,
37320,set_tempo,40,1,0,,,,,,,,,,,,540541,,,,,,,
37320,note_on,0,0,2,,,,,,,,,,,,,,,0,,,66,79
37320,note_on,360,0,2,,,,,,,,,,,,,,,0,,,61,0
37320,note_on,60,0,1,,,,,,,,,,,,,,,0,,,68,0
37380,note_on,60,0,1,,,,,,,,,,,,,,,0,,,81,62
37380,set_tempo,60,1,0,,,,,,,,,,,,538117,,,,,,,
37416,control_change,216,0,3,,,,,,,,,,,,,,,0,64,0,,
37420,set_tempo,40,1,0,,,,,,,,,,,,535714,,,,,,,
37440,note_on,120,0,2,,,,,,,,,,,,,,,0,,,66,0
37440,note_on,0,0,2,,,,,,,,,,,,,,,0,,,69,91
37440,note_on,60,0,1,,,,,,,,,,,,,,,0,,,81,0
37440,note_on,24,0,3,,,,,,,,,,,,,,,0,,,45,0
37440,note_on,0,0,3,,,,,,,,,,,,,,,0,,,65,72
37452,control_change,12,0,3,,,,,,,,,,,,,,,0,64,127,,
37500,note_on,60,0,1,,,,,,,,,,,,,,,0,,,81,56
37500,set_tempo,80,1,0,,,,,,,,,,,,538117,,,,,,,
37520,note_on,0,0,3,,,,,,,,,,,,,,,0,,,59,60
37520,note_on,68,0,3,,,,,,,,,,,,,,,0,,,65,0
37560,note_on,60,0,1,,,,,,,,,,,,,,,0,,,81,0
37560,note_on,0,0,1,,,,,,,,,,,,,,,0,,,73,64
37580,set_tempo,80,1,0,,,,,,,,,,,,540541,,,,,,,
37600,note_on,0,0,3,,,,,,,,,,,,,,,0,,,62,66
37600,note_on,80,0,3,,,,,,,,,,,,,,,0,,,59,0
37620,note_on,0,0,1,,,,,,,,,,,,,,,0,,,76,52
37620,note_on,60,0,1,,,,,,,,,,,,,,,0,,,73,0
37640,set_tempo,60,1,0,,,,,,,,,,,,542986,,,,,,,
37680,note_on,80,0,3,,,,,,,,,,,,,,,0,,,62,0
37680,note_on,0,0,1,,,,,,,,,,,,,,,0,,,74,64
37680,note_on,60,0,1,,,,,,,,,,,,,,,0,,,76,0
37680,note_on,0,0,3,,,,,,,,,,,,,,,0,,,53,58
37720,set_tempo,80,1,0,,,,,,,,,,,,545455,,,,,,,
37740,note_on,0,0,1,,,,,,,,,,,,,,,0,,,71,55
37740,note_on,60,0,1,,,,,,,,,,,,,,,0,,,74,0
37800,note_on,60,0,1,,,,,,,,,,,,,,,0,,,71,0
37800,set_tempo,80,1,0,,,,,,,,,,,,547945,,,,,,,
37800,note_on,0,0,2,,,,,,,,,,,,,,,0,,,68,75
37800,note_on,360,0,2,,,,,,,,,,,,,,,0,,,69,0
37860,note_on,60,0,1,,,,,,,,,,,,,,,0,,,80,62
37860,set_tempo,60,1,0,,,,,,,,,,,,550459,,,,,,,
37884,control_change,204,0,3,,,,,,,,,,,,,,,0,64,0,,
37920,control_change,0,0,3,,,,,,,,,,,,,,,0,64,127,,
37920,note_on,120,0,2,,,,,,,,,,,,,,,0,,,68,0
37920,note_on,0,0,2,,,,,,,,,,,,,,,0,,,73,100
37920,note_on,60,0,1,,,,,,,,,,,,,,,0,,,80,0
37920,note_on,0,0,3,,,,,,,,,,,,,,,0,,,64,74
37920,note_on,36,0,3,,,,,,,,,,,,,,,0,,,53,0
37940,set_tempo,80,1,0,,,,,,,,,,,,552995,,,,,,,
37980,note_on,60,0,1,,,,,,,,,,,,,,,0,,,85,56
38000,note_on,80,0,3,,,,,,,,,,,,,,,0,,,64,0
38000,note_on,0,0,3,,,,,,,,,,,,,,,0,,,56,59
38000,set_tempo,60,1,0,,,,,,,,,,,,555556,,,,,,,
38040,note_on,60,0,1,,,,,,,,,,,,,,,0,,,85,0
38040,note_on,0,0,1,,,,,,,,,,,,,,,0,,,75,66
38080,note_on,0,0,3,,,,,,,,,,,,,,,0,,,62,66
38080,set_tempo,80,1,0,,,,,,,,,,,,558140,,,,,,,
38080,note_on,80,0,3,,,,,,,,,,,,,,,0,,,56,0
38100,note_on,60,0,1,,,,,,,,,,,,,,,0,,,75,0
38100,note_on,0,0,1,,,,,,,,,,,,,,,0,,,78,59
38160,note_on,0,0,3,,,,,,,,,,,,,,,0,,,52,60
38160,set_tempo,80,1,0,,,,,,,,,,,,560748,,,,,,,
38160,note_on,80,0,3,,,,,,,,,,,,,,,0,,,62,0
38160,note_on,60,0,1,,,,,,,,,,,,,,,0,,,78,0
38160,note_on,0,0,1,,,,,,,,,,,,,,,0,,,76,69
38220,note_on,60,0,1,,,,,,,,,,,,,,,0,,,76,0
38220,set_tempo,60,1,0,,,,,,,,,,,,563380,,,,,,,
38220,note_on,0,0,1,,,,,,,,,,,,,,,0,,,74,59
38280,note_on,60,0,1,,,,,,,,,,,,,,,0,,,74,0
38280,note_on,360,0,2,,,,,,,,,,,,,,,0,,,73,0
38280,note_on,0,0,2,,,,,,,,,,,,,,,0,,,71,78
38300,set_tempo,80,1,0,,,,,,,,,,,,566038,,,,,,,
38340,note_on,60,0,1,,,,,,,,,,,,,,,0,,,83,69
38344,control_change,184,0,3,,,,,,,,,,,,,,,0,64,0,,
38360,set_tempo,60,1,0,,,,,,,,,,,,568720,,,,,,,
38400,note_on,56,0,3,,,,,,,,,,,,,,,0,,,52,0
38400,control_change,0,0,3,,,,,,,,,,,,,,,0,64,127,,
38400,note_on,0,0,3,,,,,,,,,,,,,,,0,,,67,78
38400,note_on,0,0,2,,,,,,,,,,,,,,,0,,,71,101
38400,note_on,120,0,2,,,,,,,,,,,,,,,0,,,71,0
38400,note_on,60,0,1,,,,,,,,,,,,,,,0,,,83,0
38460,note_on,60,0,1,,,,,,,,,,,,,,,0,,,83,61
38480,note_on,0,0,3,,,,,,,,,,,,,,,0,,,61,66
38480,note_on,80,0,3,,,,,,,,,,,,,,,0,,,67,0
38520,note_on,60,0,1,,,,,,,,,,,,,,,0,,,83,0
38520,note_on,0,0,1,,,,,,,,,,,,,,,0,,,75,70
38560,note_on,0,0,3,,,,,,,,,,,,,,,0,,,64,73
38560,note_on,80,0,3,,,,,,,,,,,,,,,0,,,61,0
38580,note_on,0,0,1,,,,,,,,,,,,,,,0,,,78,60
38580,note_on,60,0,1,,,,,,,,,,,,,,,0,,,75,0
38640,note_on,60,0,1,,,,,,,,,,,,,,,0,,,78,0
38640,note_on,80,0,3,,,,,,,,,,,,,,,0,,,64,0
38640,note_on,0,0,3,,,,,,,,,,,,,,,0,,,55,62
38640,note_on,0,0,1,,,,,,,,,,,,,,,0,,,76,70
38700,note_on,60,0,1,,,,,,,,,,,,,,,0,,,76,0
38700,note_on,0,0,1,,,,,,,,,,,,,,,0,,,73,60
38760,note_on,60,0,1,,,,,,,,,,,,,,,0,,,73,0
38760,note_on,360,0,2,,,,,,,,,,,,,,,0,,,71,0
38760,note_on,0,0,2,,,,,,,,,,,,,,,0,,,70,84
38820,note_on,60,0,1,,,,,,,,,,,,,,,0,,,82,71
38852,control_change,212,0,3,,,,,,,,,,,,,,,0,64,0,,
38880,note_on,60,0,1,,,,,,,,,,,,,,,0,,,82,0
38880,note_on,0,0,3,,,,,,,,,,,,,,,0,,,66,82
38880,note_on,28,0,3,,,,,,,,,,,,,,,0,,,55,0
38880,note_on,0,0,2,,,,,,,,,,,,,,,0,,,74,98
38880,note_on,120,0,2,,,,,,,,,,,,,,,0,,,70,0
38892,control_change,12,0,3,,,,,,,,,,,,,,,0,64,127,,
38940,note_on,60,0,1,,,,,,,,,,,,,,,0,,,86,62
38960,note_on,0,0,3,,,,,,,,,,,,,,,0,,,58,70
38960,note_on,68,0,3,,,,,,,,,,,,,,,0,,,66,0
39000,note_on,60,0,1,,,,,,,,,,,,,,,0,,,86,0
39000,note_on,0,0,1,,,,,,,,,,,,,,,0,,,77,71
39040,note_on,80,0,3,,,,,,,,,,,,,,,0,,,58,0
39040,note_on,0,0,3,,,,,,,,,,,,,,,0,,,64,77
39060,note_on,0,0,1,,,,,,,,,,,,,,,0,,,79,63
39060,note_on,60,0,1,,,,,,,,,,,,,,,0,,,77,0
39120,note_on,0,0,3,,,,,,,,,,,,,,,0,,,54,68
39120,note_on,60,0,1,,,,,,,,,,,,,,,0,,,79,0
39120,note_on,0,0,1,,,,,,,,,,,,,,,0,,,78,71
39120,note_on,80,0,3,,,,,,,,,,,,,,,0,,,64,0
39180,note_on,0,0,1,,,,,,,,,,,,,,,0,,,76,63
39180,note_on,60,0,1,,,,,,,,,,,,,,,0,,,78,0
39240,note_on,0,0,2,,,,,,,,,,,,,,,0,,,73,79
39240,note_on,360,0,2,,,,,,,,,,,,,,,0,,,74,0
39240,note_on,60,0,1,,,,,,,,,,,,,,,0,,,76,0
39300,note_on,60,0,1,,,,,,,,,,,,,,,0,,,85,72
39320,control_change,200,0,3,,,,,,,,,,,,,,,0,64,0,,
39360,note_on,40,0,3,,,,,,,,,,,,,,,0,,,54,0
39360,note_on,120,0,2,,,,,,,,,,,,,,,0,,,73,0
39360,note_on,60,0,1,,,,,,,,,,,,,,,0,,,85,0
39360,set_tempo,1000,1,0,,,,,,,,,,,,566038,,,,,,,
39360,control_change,0,0,3,,,,,,,,,,,,,,,0,64,127,,
39360,note_on,0,0,2,,,,,,,,,,,,,,,0,,,73,107
39360,note_on,0,0,3,,,,,,,,,,,,,,,0,,,69,86
39420,set_tempo,60,1,0,,,,,,,,,,,,568720,,,,,,,
39420,note_on,60,0,1,,,,,,,,,,,,,,,0,,,85,63
39440,note_on,0,0,3,,,,,,,,,,,,,,,0,,,63,72
39440,note_on,80,0,3,,,,,,,,,,,,,,,0,,,69,0
39480,set_tempo,60,1,0,,,,,,,,,,,,571429,,,,,,,
39480,note_on,60,0,1,,,,,,,,,,,,,,,0,,,85,0
39480,note_on,0,0,1,,,,,,,,,,,,,,,0,,,77,73
39520,set_tempo,40,1,0,,,,,,,,,,,,574163,,,,,,,
39520,note_on,0,0,3,,,,,,,,,,,,,,,0,,,66,79
39520,note_on,80,0,3,,,,,,,,,,,,,,,0,,,63,0
39540,note_on,60,0,1,,,,,,,,,,,,,,,0,,,77,0
39540,note_on,0,0,1,,,,,,,,,,,,,,,0,,,80,66
39580,set_tempo,60,1,0,,,,,,,,,,,,576923,,,,,,,
39600,note_on,80,0,3,,,,,,,,,,,,,,,0,,,66,0
39600,note_on,60,0,1,,,,,,,,,,,,,,,0,,,80,0
39600,note_on,0,0,1,,,,,,,,,,,,,,,0,,,78,73
39600,note_on,0,0,3,,,,,,,,,,,,,,,0,,,57,73
39620,set_tempo,40,1,0,,,,,,,,,,,,579710,,,,,,,
39660,note_on,0,0,1,,,,,,,,,,,,,,,0,,,75,63
39660,note_on,60,0,1,,,,,,,,,,,,,,,0,,,78,0
39680,set_tempo,60,1,0,,,,,,,,,,,,582524,,,,,,,
39720,note_on,60,0,1,,,,,,,,,,,,,,,0,,,75,0
39720,note_on,0,0,2,,,,,,,,,,,,,,,0,,,72,84
39720,note_on,360,0,2,,,,,,,,,,,,,,,0,,,73,0
39720,set_tempo,40,1,0,,,,,,,,,,,,585366,,,,,,,
39780,note_on,60,0,1,,,,,,,,,,,,,,,0,,,84,73
39780,set_tempo,60,1,0,,,,,,,,,,,,588235,,,,,,,
39796,control_change,196,0,3,,,,,,,,,,,,,,,0,64,0,,
39820,set_tempo,40,1,0,,,,,,,,,,,,591133,,,,,,,
39840,note_on,60,0,1,,,,,,,,,,,,,,,0,,,84,0
39840,set_tempo,20,1,0,,,,,,,,,,,,612245,,,,,,,
39840,note_on,0,0,2,,,,,,,,,,,,,,,0,,,77,105
39840,note_on,0,0,3,,,,,,,,,,,,,,,0,,,72,86
39840,control_change,0,0,3,,,,,,,,,,,,,,,0,64,127,,
39840,note_on,44,0,3,,,,,,,,,,,,,,,0,,,57,0
39840,note_on,120,0,2,,,,,,,,,,,,,,,0,,,72,0
39864,set_tempo,24,1,0,,,,,,,,,,,,618557,,,,,,,
39900,note_on,60,0,1,,,,,,,,,,,,,,,0,,,89,64
39920,note_on,80,0,3,,,,,,,,,,,,,,,0,,,72,0
39920,note_on,0,0,3,,,,,,,,,,,,,,,0,,,66,74
39936,set_tempo,72,1,0,,,,,,,,,,,,631579,,,,,,,
39960,note_on,60,0,1,,,,,,,,,,,,,,,0,,,89,0
39960,note_on,0,0,1,,,,,,,,,,,,,,,0,,,80,75
39968,set_tempo,32,1,0,,,,,,,,,,,,652174,,,,,,,
40000,note_on,80,0,3,,,,,,,,,,,,,,,0,,,66,0
40000,note_on,0,0,3,,,,,,,,,,,,,,,0,,,69,79
40016,set_tempo,48,1,0,,,,,,,,,,,,666667,,,,,,,
40020,note_on,60,0,1,,,,,,,,,,,,,,,0,,,80,0
40020,note_on,0,0,1,,,,,,,,,,,,,,,0,,,83,69
40024,set_tempo,8,1,0,,,,,,,,,,,,674157,,,,,,,
40072,set_tempo,48,1,0,,,,,,,,,,,,689655,,,,,,,
40080,note_on,80,0,3,,,,,,,,,,,,,,,0,,,69,0
40080,note_on,0,0,1,,,,,,,,,,,,,,,0,,,81,75
40080,note_on,0,0,3,,,,,,,,,,,,,,,0,,,60,74
40080,note_on,60,0,1,,,,,,,,,,,,,,,0,,,83,0
40120,set_tempo,48,1,0,,,,,,,,,,,,697674,,,,,,,
40140,note_on,60,0,1,,,,,,,,,,,,,,,0,,,81,0
40140,note_on,0,0,1,,,,,,,,,,,,,,,0,,,80,69
40160,set_tempo,40,1,0,,,,,,,,,,,,705882,,,,,,,
40176,set_tempo,16,1,0,,,,,,,,,,,,714286,,,,,,,
40200,note_on,0,0,2,,,,,,,,,,,,,,,0,,,78,84
40200,note_on,60,0,1,,,,,,,,,,,,,,,0,,,80,0
40200,note_on,360,0,2,,,,,,,,,,,,,,,0,,,77,0
40232,set_tempo,56,1,0,,,,,,,,,,,,722892,,,,,,,
40256,set_tempo,24,1,0,,,,,,,,,,,,731707,,,,,,,
40260,note_on,60,0,1,,,,,,,,,,,,,,,0,,,90,77
40264,control_change,184,0,3,,,,,,,,,,,,,,,0,64,0,,
40296,set_tempo,40,1,0,,,,,,,,,,,,740741,,,,,,,
40304,set_tempo,8,1,0,,,,,,,,,,,,750000,,,,,,,
40320,set_tempo,16,1,0,,,,,,,,,,,,600000,,,,,,,
40320,note_on,120,0,2,,,,,,,,,,,,,,,0,,,78,0
40320,note_on,0,0,3,,,,,,,,,,,,,,,0,,,78,89
40320,note_on,0,0,2,,,,,,,,,,,,,,,0,,,80,108
40320,note_on,60,0,1,,,,,,,,,,,,,,,0,,,90,0
40320,note_on,56,0,3,,,,,,,,,,,,,,,0,,,60,0
40332,control_change,12,0,3,,,,,,,,,,,,,,,0,64,127,,
40380,note_on,60,0,1,,,,,,,,,,,,,,,0,,,92,70
40400,note_on,0,0,3,,,,,,,,,,,,,,,0,,,69,76
40400,note_on,68,0,3,,,,,,,,,,,,,,,0,,,78,0
40440,note_on,60,0,1,,,,,,,,,,,,,,,0,,,92,0
40440,note_on,0,0,1,,,,,,,,,,,,,,,0,,,86,81
40480,note_on,0,0,3,,,,,,,,,,,,,,,0,,,72,84
40480,note_on,80,0,3,,,,,,,,,,,,,,,0,,,69,0
40500,note_on,0,0,1,,,,,,,,,,,,,,,0,,,89,71
40500,note_on,60,0,1,,,,,,,,,,,,,,,0,,,86,0
40560,note_on,60,0,1,,,,,,,,,,,,,,,0,,,89,0
40560,note_on,0,0,3,,,,,,,,,,,,,,,0,,,63,76
40560,note_on,0,0,1,,,,,,,,,,,,,,,0,,,87,78
40560,note_on,80,0,3,,,,,,,,,,,,,,,0,,,72,0
40620,note_on,60,0,1,,,,,,,,,,,,,,,0,,,87,0
40620,note_on,0,0,1,,,,,,,,,,,,,,,0,,,84,72
40680,note_on,360,0,2,,,,,,,,,,,,,,,0,,,80,0
40680,note_on,60,0,1,,,,,,,,,,,,,,,0,,,84,0
40680,note_on,0,0,2,,,,,,,,,,,,,,,0,,,81,95
40740,note_on,60,0,1,,,,,,,,,,,,,,,0,,,93,77
40800,note_on,240,0,3,,,,,,,,,,,,,,,0,,,63,0
40800,note_on,120,0,2,,,,,,,,,,,,,,,0,,,81,0
40800,note_on,0,0,2,,,,,,,,,,,,,,,0,,,80,106
40800,note_on,60,0,1,,,,,,,,,,,,,,,0,,,93,0
40800,note_on,0,0,3,,,,,,,,,,,,,,,0,,,78,85
40860,note_on,60,0,1,,,,,,,,,,,,,,,0,,,92,71
40880,note_on,80,0,3,,,,,,,,,,,,,,,0,,,78,0
40880,note_on,0,0,3,,,,,,,,,,,,,,,0,,,69,78
40920,note_on,0,0,1,,,,,,,,,,,,,,,0,,,86,77
40920,note_on,60,0,1,,,,,,,,,,,,,,,0,,,92,0
40960,note_on,80,0,3,,,,,,,,,,,,,,,0,,,69,0
40960,note_on,0,0,3,,,,,,,,,,,,,,,0,,,72,87
40980,note_on,60,0,1,,,,,,,,,,,,,,,0,,,86,0
40980,note_on,0,0,1,,,,,,,,,,,,,,,0,,,89,75
41040,note_on,0,0,1,,,,,,,,,,,,,,,0,,,87,71
41040,note_on,60,0,1,,,,,,,,,,,,,,,0,,,89,0
41040,note_on,0,0,3,,,,,,,,,,,,,,,0,,,63,78
41040,note_on,80,0,3,,,,,,,,,,,,,,,0,,,72,0
41100,note_on,0,0,1,,,,,,,,,,,,,,,0,,,84,69
41100,note_on,60,0,1,,,,,,,,,,,,,,,0,,,87,0
41160,note_on,60,0,1,,,,,,,,,,,,,,,0,,,84,0
41160,note_on,360,0,2,,,,,,,,,,,,,,,0,,,80,0
41160,note_on,0,0,2,,,,,,,,,,,,,,,0,,,81,89
41212,control_change,172,0,3,,,,,,,,,,,,,,,0,64,0,,
41220,note_on,60,0,1,,,,,,,,,,,,,,,0,,,93,77
41240,set_tempo,920,1,0,,,,,,,,,,,,600000,,,,,,,
41280,note_on,0,0,2,,,,,,,,,,,,,,,0,,,80,109
41280,set_tempo,40,1,0,,,,,,,,,,,,603015,,,,,,,
41280,note_on,60,0,1,,,,,,,,,,,,,,,0,,,93,0
41280,note_on,0,0,3,,,,,,,,,,,,,,,0,,,78,88
41280,note_on,68,0,3,,,,,,,,,,,,,,,0,,,63,0
41280,note_on,120,0,2,,,,,,,,,,,,,,,0,,,81,0
41292,control_change,12,0,3,,,,,,,,,,,,,,,0,64,127,,
41320,set_tempo,40,1,0,,,,,,,,,,,,606061,,,,,,,
41340,note_on,60,0,1,,,,,,,,,,,,,,,0,,,92,70
41360,set_tempo,40,1,0,,,,,,,,,,,,609137,,,,,,,
41360,note_on,0,0,3,,,,,,,,,,,,,,,0,,,69,78
41360,note_on,68,0,3,,,,,,,,,,,,,,,0,,,78,0
41400,note_on,60,0,1,,,,,,,,,,,,,,,0,,,92,0
41400,set_tempo,40,1,0,,,,,,,,,,,,612245,,,,,,,
41400,note_on,0,0,1,,,,,,,,,,,,,,,0,,,85,77
41440,set_tempo,40,1,0,,,,,,,,,,,,615385,,,,,,,
41440,note_on,80,0,3,,,,,,,,,,,,,,,0,,,69,0
41440,note_on,0,0,3,,,,,,,,,,,,,,,0,,,72,87
41460,note_on,60,0,1,,,,,,,,,,,,,,,0,,,85,0
41460,note_on,0,0,1,,,,,,,,,,,,,,,0,,,88,72
41480,set_tempo,40,1,0,,,,,,,,,,,,618557,,,,,,,
41520,note_on,0,0,3,,,,,,,,,,,,,,,0,,,62,77
41520,note_on,60,0,1,,,,,,,,,,,,,,,0,,,88,0
41520,note_on,0,0,1,,,,,,,,,,,,,,,0,,,86,78
41520,set_tempo,40,1,0,,,,,,,,,,,,621762,,,,,,,
41520,note_on,80,0,3,,,,,,,,,,,,,,,0,,,72,0
41560,set_tempo,40,1,0,,,,,,,,,,,,625000,,,,,,,
41580,note_on,60,0,1,,,,,,,,,,,,,,,0,,,86,0
41580,note_on,0,0,1,,,,,,,,,,,,,,,0,,,84,71
41600,set_tempo,40,1,0,,,,,,,,,,,,628272,,,,,,,
41640,note_on,360,0,2,,,,,,,,,,,,,,,0,,,80,0
41640,set_tempo,40,1,0,,,,,,,,,,,,631579,,,,,,,
41640,note_on,0,0,2,,,,,,,,,,,,,,,0,,,81,92
41640,note_on,60,0,1,,,,,,,,,,,,,,,0,,,84,0
41680,set_tempo,40,1,0,,,,,,,,,,,,634921,,,,,,,
41700,note_on,60,0,1,,,,,,,,,,,,,,,0,,,93,77
41720,set_tempo,40,1,0,,,,,,,,,,,,638298,,,,,,,
41740,set_tempo,20,1,0,,,,,,,,,,,,641711,,,,,,,
41760,note_on,60,0,1,,,,,,,,,,,,,,,0,,,93,0
41760,note_on,0,0,3,,,,,,,,,,,,,,,0,,,78,90
41760,note_on,120,0,2,,,,,,,,,,,,,,,0,,,81,0
41760,note_on,240,0,3,,,,,,,,,,,,,,,0,,,62,0
41760,note_on,0,0,2,,,,,,,,,,,,,,,0,,,80,104
41820,note_on,60,0,1,,,,,,,,,,,,,,,0,,,92,75
41832,set_tempo,92,1,0,,,,,,,,,,,,681818,,,,,,,
41840,note_on,0,0,3,,,,,,,,,,,,,,,0,,,69,81
41840,note_on,80,0,3,,,,,,,,,,,,,,,0,,,78,0
41880,note_on,60,0,1,,,,,,,,,,,,,,,0,,,92,0
41880,note_on,0,0,1,,,,,,,,,,,,,,,0,,,85,82
41896,set_tempo,64,1,0,,,,,,,,,,,,689655,,,,,,,
41912,set_tempo,16,1,0,,,,,,,,,,,,697674,,,,,,,
41920,note_on,80,0,3,,,,,,,,,,,,,,,0,,,69,0
41920,note_on,0,0,3,,,,,,,,,,,,,,,0,,,72,87
41940,note_on,60,0,1,,,,,,,,,,,,,,,0,,,85,0
41940,note_on,0,0,1,,,,,,,,,,,,,,,0,,,88,75
41952,set_tempo,40,1,0,,,,,,,,,,,,705882,,,,,,,
42000,note_on,0,0,3,,,,,,,,,,,,,,,0,,,62,77
42000,note_on,60,0,1,,,,,,,,,,,,,,,0,,,88,0
42000,note_on,80,0,3,,,,,,,,,,,,,,,0,,,72,0
42000,note_on,0,0,1,,,,,,,,,,,,,,,0,,,86,78
42024,set_tempo,72,1,0,,,,,,,,,,,,714286,,,,,,,
42060,note_on,60,0,1,,,,,,,,,,,,,,,0,,,86,0
42060,note_on,0,0,1,,,,,,,,,,,,,,,0,,,84,71
42064,set_tempo,40,1,0,,,,,,,,,,,,722892,,,,,,,
42120,note_on,360,0,2,,,,,,,,,,,,,,,0,,,80,0
42120,note_on,60,0,1,,,,,,,,,,,,,,,0,,,84,0
42120,note_on,0,0,2,,,,,,,,,,,,,,,0,,,81,86
42144,set_tempo,80,1,0,,,,,,,,,,,,731707,,,,,,,
42180,note_on,60,0,1,,,,,,,,,,,,,,,0,,,93,77
42184,control_change,184,0,3,,,,,,,,,,,,,,,0,64,0,,
42240,note_on,0,0,3,,,,,,,,,,,,,,,0,,,78,89
42240,note_on,56,0,3,,,,,,,,,,,,,,,0,,,62,0
42240,control_change,0,0,3,,,,,,,,,,,,,,,0,64,127,,
42240,set_tempo,96,1,0,,,,,,,,,,,,634921,,,,,,,
42240,note_on,120,0,2,,,,,,,,,,,,,,,0,,,81,0
42240,note_on,0,0,2,,,,,,,,,,,,,,,0,,,81,109
42240,note_on,60,0,1,,,,,,,,,,,,,,,0,,,93,0
42300,note_on,60,0,1,,,,,,,,,,,,,,,0,,,93,70
42320,note_on,80,0,3,,,,,,,,,,,,,,,0,,,78,0
42320,note_on,0,0,3,,,,,,,,,,,,,,,0,,,69,76
42360,note_on,60,0,1,,,,,,,,,,,,,,,0,,,93,0
42360,note_on,0,0,1,,,,,,,,,,,,,,,0,,,89,77
42400,note_on,80,0,3,,,,,,,,,,,,,,,0,,,69,0
42400,note_on,0,0,3,,,,,,,,,,,,,,,0,,,73,83
42420,note_on,0,0,1,,,,,,,,,,,,,,,0,,,92,70
42420,note_on,60,0,1,,,,,,,,,,,,,,,0,,,89,0
42480,note_on,80,0,3,,,,,,,,,,,,,,,0,,,73,0
42480,note_on,60,0,1,,,,,,,,,,,,,,,0,,,92,0
42480,note_on,0,0,1,,,,,,,,,,,,,,,0,,,90,77
42480,note_on,0,0,3,,,,,,,,,,,,,,,0,,,61,75
42540,note_on,60,0,1,,,,,,,,,,,,,,,0,,,90,0
42540,note_on,0,0,1,,,,,,,,,,,,,,,0,,,85,66
42600,note_on,0,0,2,,,,,,,,,,,,,,,0,,,81,90
42600,note_on,360,0,2,,,,,,,,,,,,,,,0,,,81,0
42600,note_on,60,0,1,,,,,,,,,,,,,,,0,,,85,0
42660,note_on,60,0,1,,,,,,,,,,,,,,,0,,,93,70
42684,control_change,204,0,3,,,,,,,,,,,,,,,0,64,0,,
42720,note_on,60,0,1,,,,,,,,,,,,,,,0,,,93,0
42720,note_on,0,0,2,,,,,,,,,,,,,,,0,,,80,105
42720,note_on,120,0,2,,,,,,,,,,,,,,,0,,,81,0
42720,control_change,0,0,3,,,,,,,,,,,,,,,0,64,127,,
42720,note_on,0,0,3,,,,,,,,,,,,,,,0,,,76,87
42720,note_on,36,0,3,,,,,,,,,,,,,,,0,,,61,0
42780,note_on,60,0,1,,,,,,,,,,,,,,,0,,,92,69
42800,note_on,0,0,3,,,,,,,,,,,,,,,0,,,68,77
42800,note_on,80,0,3,,,,,,,,,,,,,,,0,,,76,0
42840,note_on,60,0,1,,,,,,,,,,,,,,,0,,,92,0
42840,note_on,0,0,1,,,,,,,,,,,,,,,0,,,87,78
42880,note_on,80,0,3,,,,,,,,,,,,,,,0,,,68,0
42880,note_on,0,0,3,,,,,,,,,,,,,,,0,,,73,83
42900,note_on,0,0,1,,,,,,,,,,,,,,,0,,,90,71
42900,note_on,60,0,1,,,,,,,,,,,,,,,0,,,87,0
42960,note_on,0,0,1,,,,,,,,,,,,,,,0,,,88,77
42960,note_on,0,0,3,,,,,,,,,,,,,,,0,,,61,74
42960,note_on,60,0,1,,,,,,,,,,,,,,,0,,,90,0
42960,note_on,80,0,3,,,,,,,,,,,,,,,0,,,73,0
43020,note_on,0,0,1,,,,,,,,,,,,,,,0,,,85,69
43020,note_on,60,0,1,,,,,,,,,,,,,,,0,,,88,0
43080,note_on,60,0,1,,,,,,,,,,,,,,,0,,,85,0
43080,note_on,360,0,2,,,,,,,,,,,,,,,0,,,80,0
43080,note_on,0,0,2,,,,,,,,,,,,,,,0,,,80,86
43140,note_on,60,0,1,,,,,,,,,,,,,,,0,,,92,72
43160,control_change,200,0,3,,,,,,,,,,,,,,,0,64,0,,
43200,note_on,60,0,1,,,,,,,,,,,,,,,0,,,92,0
43200,control_change,0,0,3,,,,,,,,,,,,,,,0,64,127,,
43200,note_on,120,0,2,,,,,,,,,,,,,,,0,,,80,0
43200,note_on,40,0,3,,,,,,,,,,,,,,,0,,,61,0
43200,note_on,0,0,2,,,,,,,,,,,,,,,0,,,76,106
43200,set_tempo,960,1,0,,,,,,,,,,,,582524,,,,,,,
43200,note_on,0,0,3,,,,,,,,,,,,,,,0,,,73,87
43260,note_on,60,0,1,,,,,,,,,,,,,,,0,,,88,64
43280,note_on,80,0,3,,,,,,,,,,,,,,,0,,,73,0
43280,note_on,0,0,3,,,,,,,,,,,,,,,0,,,64,77
43320,note_on,0,0,1,,,,,,,,,,,,,,,0,,,83,73
43320,note_on,60,0,1,,,,,,,,,,,,,,,0,,,88,0
43360,note_on,80,0,3,,,,,,,,,,,,,,,0,,,64,0
43360,note_on,0,0,3,,,,,,,,,,,,,,,0,,,69,84
43380,note_on,0,0,1,,,,,,,,,,,,,,,0,,,86,66
43380,note_on,60,0,1,,,,,,,,,,,,,,,0,,,83,0
43440,note_on,0,0,1,,,,,,,,,,,,,,,0,,,85,71
43440,note_on,80,0,3,,,,,,,,,,,,,,,0,,,69,0
43440,note_on,0,0,3,,,,,,,,,,,,,,,0,,,57,76
43440,note_on,60,0,1,,,,,,,,,,,,,,,0,,,86,0
43500,note_on,60,0,1,,,,,,,,,,,,,,,0,,,85,0
43500,note_on,0,0,1,,,,,,,,,,,,,,,0,,,81,63
43560,note_on,360,0,2,,,,,,,,,,,,,,,0,,,76,0
43560,note_on,0,0,2,,,,,,,,,,,,,,,0,,,76,94
43560,note_on,60,0,1,,,,,,,,,,,,,,,0,,,81,0
43620,note_on,60,0,1,,,,,,,,,,,,,,,0,,,88,71
43652,control_change,212,0,3,,,,,,,,,,,,,,,0,64,0,,
43680,note_on,120,0,2,,,,,,,,,,,,,,,0,,,76,0
43680,note_on,0,0,2,,,,,,,,,,,,,,,0,,,73,100
43680,note_on,28,0,3,,,,,,,,,,,,,,,0,,,57,0
43680,note_on,60,0,1,,,,,,,,,,,,,,,0,,,88,0
43680,note_on,0,0,3,,,,,,,,,,,,,,,0,,,69,80
43692,control_change,12,0,3,,,,,,,,,,,,,,,0,64,127,,
43740,note_on,60,0,1,,,,,,,,,,,,,,,0,,,85,64
43760,note_on,68,0,3,,,,,,,,,,,,,,,0,,,69,0
43760,note_on,0,0,3,,,,,,,,,,,,,,,0,,,61,73
43800,note_on,0,0,1,,,,,,,,,,,,,,,0,,,80,71
43800,note_on,60,0,1,,,,,,,,,,,,,,,0,,,85,0
43840,note_on,80,0,3,,,,,,,,,,,,,,,0,,,61,0
43840,note_on,0,0,3,,,,,,,,,,,,,,,0,,,66,79
43860,note_on,0,0,1,,,,,,,,,,,,,,,0,,,83,64
43860,note_on,60,0,1,,,,,,,,,,,,,,,0,,,80,0
43920,note_on,80,0,3,,,,,,,,,,,,,,,0,,,66,0
43920,note_on,0,0,3,,,,,,,,,,,,,,,0,,,54,74
43920,note_on,60,0,1,,,,,,,,,,,,,,,0,,,83,0
43920,note_on,0,0,1,,,,,,,,,,,,,,,0,,,81,70
43980,note_on,60,0,1,,,,,,,,,,,,,,,0,,,81,0
43980,note_on,0,0,1,,,,,,,,,,,,,,,0,,,78,62
44040,note_on,60,0,1,,,,,,,,,,,,,,,0,,,78,0
44040,note_on,360,0,2,,,,,,,,,,,,,,,0,,,73,0
44040,note_on,0,0,2,,,,,,,,,,,,,,,0,,,73,86
44092,control_change,172,0,3,,,,,,,,,,,,,,,0,64,0,,
44100,note_on,60,0,1,,,,,,,,,,,,,,,0,,,85,63
44160,note_on,0,0,3,,,,,,,,,,,,,,,0,,,64,84
44160,note_on,60,0,1,,,,,,,,,,,,,,,0,,,85,0
44160,note_on,120,0,2,,,,,,,,,,,,,,,0,,,73,0
44160,set_tempo,960,1,0,,,,,,,,,,,,582524,,,,,,,
44160,note_on,0,0,2,,,,,,,,,,,,,,,0,,,68,100
44160,note_on,68,0,3,,,,,,,,,,,,,,,0,,,54,0
44172,control_change,12,0,3,,,,,,,,,,,,,,,0,64,127,,
44220,note_on,60,0,1,,,,,,,,,,,,,,,0,,,80,59
44240,note_on,0,0,3,,,,,,,,,,,,,,,0,,,56,68
44240,note_on,68,0,3,,,,,,,,,,,,,,,0,,,64,0
44280,note_on,60,0,1,,,,,,,,,,,,,,,0,,,80,0
44280,set_tempo,120,1,0,,,,,,,,,,,,585366,,,,,,,
44280,note_on,0,0,1,,,,,,,,,,,,,,,0,,,75,69
44320,note_on,80,0,3,,,,,,,,,,,,,,,0,,,56,0
44320,note_on,0,0,3,,,,,,,,,,,,,,,0,,,61,78
44340,note_on,60,0,1,,,,,,,,,,,,,,,0,,,75,0
44340,note_on,0,0,1,,,,,,,,,,,,,,,0,,,78,61
44400,note_on,60,0,1,,,,,,,,,,,,,,,0,,,78,0
44400,note_on,0,0,1,,,,,,,,,,,,,,,0,,,76,66
44400,set_tempo,120,1,0,,,,,,,,,,,,588235,,,,,,,
44400,note_on,80,0,3,,,,,,,,,,,,,,,0,,,61,0
44400,note_on,0,0,3,,,,,,,,,,,,,,,0,,,49,67
44460,note_on,60,0,1,,,,,,,,,,,,,,,0,,,76,0
44460,note_on,0,0,1,,,,,,,,,,,,,,,0,,,73,62
44500,set_tempo,100,1,0,,,,,,,,,,,,591133,,,,,,,
44520,note_on,60,0,1,,,,,,,,,,,,,,,0,,,73,0
44520,note_on,0,0,2,,,,,,,,,,,,,,,0,,,68,84
44520,note_on,360,0,2,,,,,,,,,,,,,,,0,,,68,0
44580,note_on,60,0,1,,,,,,,,,,,,,,,0,,,80,62
44608,control_change,208,0,3,,,,,,,,,,,,,,,0,64,0,,
44620,set_tempo,120,1,0,,,,,,,,,,,,594059,,,,,,,
44640,note_on,60,0,1,,,,,,,,,,,,,,,0,,,80,0
44640,note_on,32,0,3,,,,,,,,,,,,,,,0,,,49,0
44640,note_on,0,0,3,,,,,,,,,,,,,,,0,,,62,78
44640,note_on,120,0,2,,,,,,,,,,,,,,,0,,,68,0
44640,note_on,0,0,2,,,,,,,,,,,,,,,0,,,66,96
44648,control_change,8,0,3,,,,,,,,,,,,,,,0,64,127,,
44700,note_on,60,0,1,,,,,,,,,,,,,,,0,,,78,57
44720,set_tempo,100,1,0,,,,,,,,,,,,597015,,,,,,,
44720,note_on,72,0,3,,,,,,,,,,,,,,,0,,,62,0
44720,note_on,0,0,3,,,,,,,,,,,,,,,0,,,54,67
44760,note_on,60,0,1,,,,,,,,,,,,,,,0,,,78,0
44760,note_on,0,0,1,,,,,,,,,,,,,,,0,,,73,64
44800,note_on,80,0,3,,,,,,,,,,,,,,,0,,,54,0
44800,note_on,0,0,3,,,,,,,,,,,,,,,0,,,57,74
44820,note_on,0,0,1,,,,,,,,,,,,,,,0,,,76,57
44820,note_on,60,0,1,,,,,,,,,,,,,,,0,,,73,0
44840,set_tempo,120,1,0,,,,,,,,,,,,600000,,,,,,,
44880,note_on,0,0,1,,,,,,,,,,,,,,,0,,,74,64
44880,note_on,60,0,1,,,,,,,,,,,,,,,0,,,76,0
44880,note_on,80,0,3,,,,,,,,,,,,,,,0,,,57,0
44880,note_on,0,0,3,,,,,,,,,,,,,,,0,,,50,68
44940,set_tempo,100,1,0,,,,,,,,,,,,603015,,,,,,,
44940,note_on,0,0,1,,,,,,,,,,,,,,,0,,,69,52
44940,note_on,60,0,1,,,,,,,,,,,,,,,0,,,74,0
45000,note_on,360,0,2,,,,,,,,,,,,,,,0,,,66,0
45000,note_on,0,0,2,,,,,,,,,,,,,,,0,,,66,83
45000,note_on,60,0,1,,,,,,,,,,,,,,,0,,,69,0
45060,set_tempo,120,1,0,,,,,,,,,,,,606061,,,,,,,
45060,note_on,60,0,1,,,,,,,,,,,,,,,0,,,78,61
45076,control_change,196,0,3,,,,,,,,,,,,,,,0,64,0,,
45120,note_on,0,0,2,,,,,,,,,,,,,,,0,,,64,100
45120,note_on,60,0,1,,,,,,,,,,,,,,,0,,,78,0
45120,note_on,44,0,3,,,,,,,,,,,,,,,0,,,50,0
45120,note_on,0,0,3,,,,,,,,,,,,,,,0,,,61,78
45120,note_on,120,0,2,,,,,,,,,,,,,,,0,,,66,0
45128,control_change,8,0,3,,,,,,,,,,,,,,,0,64,127,,
45160,set_tempo,100,1,0,,,,,,,,,,,,609137,,,,,,,
45180,note_on,60,0,1,,,,,,,,,,,,,,,0,,,76,55
45200,note_on,72,0,3,,,,,,,,,,,,,,,0,,,61,0
45200,note_on,0,0,3,,,,,,,,,,,,,,,0,,,52,70
45240,note_on,60,0,1,,,,,,,,,,,,,,,0,,,76,0
45240,note_on,0,0,1,,,,,,,,,,,,,,,0,,,71,64
45280,set_tempo,120,1,0,,,,,,,,,,,,612245,,,,,,,
45280,note_on,80,0,3,,,,,,,,,,,,,,,0,,,52,0
45280,note_on,0,0,3,,,,,,,,,,,,,,,0,,,57,79
45300,note_on,0,0,1,,,,,,,,,,,,,,,0,,,74,59
45300,note_on,60,0,1,,,,,,,,,,,,,,,0,,,71,0
45360,note_on,0,0,1,,,,,,,,,,,,,,,0,,,73,63
45360,note_on,60,0,1,,,,,,,,,,,,,,,0,,,74,0
45360,note_on,0,0,3,,,,,,,,,,,,,,,0,,,45,67
45360,note_on,80,0,3,,,,,,,,,,,,,,,0,,,57,0
45380,set_tempo,100,1,0,,,,,,,,,,,,615385,,,,,,,
45420,note_on,60,0,1,,,,,,,,,,,,,,,0,,,73,0
45420,note_on,0,0,1,,,,,,,,,,,,,,,0,,,69,56
45480,note_on,60,0,1,,,,,,,,,,,,,,,0,,,69,0
45480,note_on,0,0,2,,,,,,,,,,,,,,,0,,,64,79
45480,note_on,360,0,2,,,,,,,,,,,,,,,0,,,64,0
45500,set_tempo,120,1,0,,,,,,,,,,,,618557,,,,,,,
45540,note_on,60,0,1,,,,,,,,,,,,,,,0,,,76,60
45560,control_change,200,0,3,,,,,,,,,,,,,,,0,64,0,,
45600,note_on,60,0,1,,,,,,,,,,,,,,,0,,,76,0
45600,note_on,0,0,2,,,,,,,,,,,,,,,0,,,62,90
45600,note_on,120,0,2,,,,,,,,,,,,,,,0,,,64,0
45600,note_on,40,0,3,,,,,,,,,,,,,,,0,,,45,0
45600,note_on,0,0,3,,,,,,,,,,,,,,,0,,,59,77
45600,set_tempo,100,1,0,,,,,,,,,,,,621762,,,,,,,
45608,control_change,8,0,3,,,,,,,,,,,,,,,0,64,127,,
45660,note_on,60,0,1,,,,,,,,,,,,,,,0,,,74,52
45680,note_on,0,0,3,,,,,,,,,,,,,,,0,,,50,67
45680,note_on,72,0,3,,,,,,,,,,,,,,,0,,,59,0
45720,note_on,0,0,1,,,,,,,,,,,,,,,0,,,69,62
45720,note_on,60,0,1,,,,,,,,,,,,,,,0,,,74,0
45760,note_on,0,0,3,,,,,,,,,,,,,,,0,,,55,77
45760,note_on,80,0,3,,,,,,,,,,,,,,,0,,,50,0
45780,note_on,60,0,1,,,,,,,,,,,,,,,0,,,69,0
45780,note_on,0,0,1,,,,,,,,,,,,,,,0,,,73,52
45840,note_on,0,0,3,,,,,,,,,,,,,,,0,,,47,69
45840,note_on,60,0,1,,,,,,,,,,,,,,,0,,,73,0
45840,note_on,0,0,1,,,,,,,,,,,,,,,0,,,71,61
45840,note_on,80,0,3,,,,,,,,,,,,,,,0,,,55,0
45900,note_on,60,0,1,,,,,,,,,,,,,,,0,,,71,0
45900,note_on,0,0,1,,,,,,,,,,,,,,,0,,,67,55
45960,note_on,60,0,1,,,,,,,,,,,,,,,0,,,67,0
45960,note_on,0,0,2,,,,,,,,,,,,,,,0,,,62,76
45960,note_on,360,0,2,,,,,,,,,,,,,,,0,,,62,0
46020,note_on,60,0,1,,,,,,,,,,,,,,,0,,,74,60
46040,control_change,200,0,3,,,,,,,,,,,,,,,0,64,0,,
46080,control_change,0,0,3,,,,,,,,,,,,,,,0,64,127,,
46080,note_on,0,0,3,,,,,,,,,,,,,,,0,,,57,81
46080,note_on,40,0,3,,,,,,,,,,,,,,,0,,,47,0
46080,note_on,0,0,2,,,,,,,,,,,,,,,0,,,61,89
46080,note_on,120,0,2,,,,,,,,,,,,,,,0,,,62,0
46080,note_on,60,0,1,,,,,,,,,,,,,,,0,,,74,0
46104,control_change,24,0,3,,,,,,,,,,,,,,,0,64,127,,
46140,note_on,60,0,1,,,,,,,,,,,,,,,0,,,73,60
46160,note_on,0,0,3,,,,,,,,,,,,,,,0,,,45,67
46160,note_on,56,0,3,,,,,,,,,,,,,,,0,,,57,0
46200,note_on,60,0,1,,,,,,,,,,,,,,,0,,,73,0
46200,note_on,0,0,1,,,,,,,,,,,,,,,0,,,68,70
46240,note_on,80,0,3,,,,,,,,,,,,,,,0,,,45,0
46240,note_on,0,0,3,,,,,,,,,,,,,,,0,,,49,75
46260,note_on,0,0,1,,,,,,,,,,,,,,,0,,,71,59
46260,note_on,60,0,1,,,,,,,,,,,,,,,0,,,68,0
46320,note_on,60,0,1,,,,,,,,,,,,,,,0,,,71,0
46320,note_on,0,0,1,,,,,,,,,,,,,,,0,,,69,64
46320,note_on,80,0,3,,,,,,,,,,,,,,,0,,,49,0
46320,note_on,0,0,3,,,,,,,,,,,,,,,0,,,37,66
46380,note_on,60,0,1,,,,,,,,,,,,,,,0,,,69,0
46380,note_on,0,0,1,,,,,,,,,,,,,,,0,,,66,61
46440,note_on,60,0,1,,,,,,,,,,,,,,,0,,,66,0
46440,note_on,360,0,2,,,,,,,,,,,,,,,0,,,61,0
46440,note_on,0,0,2,,,,,,,,,,,,,,,0,,,61,73
46500,note_on,60,0,1,,,,,,,,,,,,,,,0,,,73,60
46560,note_on,0,0,3,,,,,,,,,,,,,,,0,,,57,82
46560,note_on,60,0,1,,,,,,,,,,,,,,,0,,,73,0
46560,note_on,240,0,3,,,,,,,,,,,,,,,0,,,37,0
46560,note_on,0,0,2,,,,,,,,,,,,,,,0,,,61,87
46560,note_on,120,0,2,,,,,,,,,,,,,,,0,,,61,0
46620,note_on,60,0,1,,,,,,,,,,,,,,,0,,,73,51
46640,note_on,80,0,3,,,,,,,,,,,,,,,0,,,57,0
46640,note_on,0,0,3,,,,,,,,,,,,,,,0,,,45,66
46680,note_on,60,0,1,,,,,,,,,,,,,,,0,,,73,0
46680,note_on,0,0,1,,,,,,,,,,,,,,,0,,,68,60
46720,note_on,0,0,3,,,,,,,,,,,,,,,0,,,49,76
46720,note_on,80,0,3,,,,,,,,,,,,,,,0,,,45,0
46740,note_on,60,0,1,,,,,,,,,,,,,,,0,,,68,0
46740,note_on,0,0,1,,,,,,,,,,,,,,,0,,,71,51
46800,note_on,60,0,1,,,,,,,,,,,,,,,0,,,71,0
46800,note_on,0,0,1,,,,,,,,,,,,,,,0,,,69,59
46800,note_on,80,0,3,,,,,,,,,,,,,,,0,,,49,0
46800,note_on,0,0,3,,,,,,,,,,,,,,,0,,,37,68
46860,note_on,60,0,1,,,,,,,,,,,,,,,0,,,69,0
46860,note_on,0,0,1,,,,,,,,,,,,,,,0,,,66,51
46920,note_on,360,0,2,,,,,,,,,,,,,,,0,,,61,0
46920,note_on,0,0,2,,,,,,,,,,,,,,,0,,,61,73
46920,note_on,60,0,1,,,,,,,,,,,,,,,0,,,66,0
46980,note_on,60,0,1,,,,,,,,,,,,,,,0,,,73,57
46992,control_change,192,0,3,,,,,,,,,,,,,,,0,64,0,,
47040,note_on,60,0,1,,,,,,,,,,,,,,,0,,,73,0
47040,note_on,0,0,3,,,,,,,,,,,,,,,0,,,56,80
47040,note_on,48,0,3,,,,,,,,,,,,,,,0,,,37,0
47040,note_on,0,0,2,,,,,,,,,,,,,,,0,,,61,89
47040,note_on,120,0,2,,,,,,,,,,,,,,,0,,,61,0
47044,control_change,4,0,3,,,,,,,,,,,,,,,0,64,127,,
47100,note_on,60,0,1,,,,,,,,,,,,,,,0,,,73,52
47120,note_on,0,0,3,,,,,,,,,,,,,,,0,,,45,67
47120,note_on,76,0,3,,,,,,,,,,,,,,,0,,,56,0
47160,note_on,0,0,1,,,,,,,,,,,,,,,0,,,68,62
47160,note_on,60,0,1,,,,,,,,,,,,,,,0,,,73,0
47200,note_on,80,0,3,,,,,,,,,,,,,,,0,,,45,0
47200,note_on,0,0,3,,,,,,,,,,,,,,,0,,,49,73
47220,note_on,0,0,1,,,,,,,,,,,,,,,0,,,71,52
47220,note_on,60,0,1,,,,,,,,,,,,,,,0,,,68,0
47280,note_on,60,0,1,,,,,,,,,,,,,,,0,,,71,0
47280,note_on,0,0,1,,,,,,,,,,,,,,,0,,,69,60
47280,note_on,0,0,3,,,,,,,,,,,,,,,0,,,37,68
47280,note_on,80,0,3,,,,,,,,,,,,,,,0,,,49,0
47340,note_on,0,0,1,,,,,,,,,,,,,,,0,,,66,52
47340,note_on,60,0,1,,,,,,,,,,,,,,,0,,,69,0
47400,note_on,360,0,2,,,,,,,,,,,,,,,0,,,61,0
47400,note_on,0,0,2,,,,,,,,,,,,,,,0,,,61,72
47400,note_on,60,0,1,,,,,,,,,,,,,,,0,,,66,0
47460,note_on,60,0,1,,,,,,,,,,,,,,,0,,,73,56
47480,control_change,200,0,3,,,,,,,,,,,,,,,0,64,0,,
47520,note_on,120,0,2,,,,,,,,,,,,,,,0,,,61,0
47520,note_on,0,0,2,,,,,,,,,,,,,,,0,,,61,85
47520,note_on,60,0,1,,,,,,,,,,,,,,,0,,,73,0
47520,note_on,0,0,3,,,,,,,,,,,,,,,0,,,54,78
47520,note_on,40,0,3,,,,,,,,,,,,,,,0,,,37,0
47524,control_change,4,0,3,,,,,,,,,,,,,,,0,64,127,,
47580,note_on,60,0,1,,,,,,,,,,,,,,,0,,,73,51
47600,note_on,76,0,3,,,,,,,,,,,,,,,0,,,54,0
47600,note_on,0,0,3,,,,,,,,,,,,,,,0,,,45,68
47640,note_on,60,0,1,,,,,,,,,,,,,,,0,,,73,0
47640,note_on,0,0,1,,,,,,,,,,,,,,,0,,,68,60
47680,note_on,80,0,3,,,,,,,,,,,,,,,0,,,45,0
47680,note_on,0,0,3,,,,,,,,,,,,,,,0,,,49,77
47700,note_on,0,0,1,,,,,,,,,,,,,,,0,,,71,52
47700,note_on,60,0,1,,,,,,,,,,,,,,,0,,,68,0
47760,note_on,60,0,1,,,,,,,,,,,,,,,0,,,71,0
47760,note_on,0,0,1,,,,,,,,,,,,,,,0,,,69,59
47760,note_on,0,0,3,,,,,,,,,,,,,,,0,,,37,70
47760,note_on,80,0,3,,,,,,,,,,,,,,,0,,,49,0
47820,note_on,60,0,1,,,,,,,,,,,,,,,0,,,69,0
47820,note_on,0,0,1,,,,,,,,,,,,,,,0,,,66,48
47880,note_on,0,0,2,,,,,,,,,,,,,,,0,,,61,61
47880,note_on,60,0,1,,,,,,,,,,,,,,,0,,,66,0
47880,note_on,360,0,2,,,,,,,,,,,,,,,0,,,61,0
47940,note_on,60,0,1,,,,,,,,,,,,,,,0,,,73,55
47956,control_change,196,0,3,,,,,,,,,,,,,,,0,64,0,,
48000,control_change,0,0,3,,,,,,,,,,,,,,,0,64,127,,
48000,note_on,44,0,3,,,,,,,,,,,,,,,0,,,37,0
48000,note_on,0,0,2,,,,,,,,,,,,,,,0,,,61,89
48000,note_on,60,0,1,,,,,,,,,,,,,,,0,,,73,0
48000,note_on,120,0,2,,,,,,,,,,,,,,,0,,,61,0
48000,note_on,0,0,3,,,,,,,,,,,,,,,0,,,54,75
48060,note_on,60,0,1,,,,,,,,,,,,,,,0,,,73,48
48080,note_on,80,0,3,,,,,,,,,,,,,,,0,,,54,0
48080,note_on,0,0,3,,,,,,,,,,,,,,,0,,,44,63
48120,note_on,0,0,1,,,,,,,,,,,,,,,0,,,67,60
48120,note_on,60,0,1,,,,,,,,,,,,,,,0,,,73,0
48160,note_on,80,0,3,,,,,,,,,,,,,,,0,,,44,0
48160,note_on,0,0,3,,,,,,,,,,,,,,,0,,,49,64
48180,note_on,60,0,1,,,,,,,,,,,,,,,0,,,67,0
48180,note_on,0,0,1,,,,,,,,,,,,,,,0,,,69,47
48240,note_on,80,0,3,,,,,,,,,,,,,,,0,,,49,0
48240,note_on,60,0,1,,,,,,,,,,,,,,,0,,,69,0
48240,note_on,0,0,1,,,,,,,,,,,,,,,0,,,68,55
48240,note_on,0,0,3,,,,,,,,,,,,,,,0,,,37,57
48300,note_on,0,0,1,,,,,,,,,,,,,,,0,,,66,47
48300,note_on,60,0,1,,,,,,,,,,,,,,,0,,,68,0
48360,note_on,360,0,2,,,,,,,,,,,,,,,0,,,61,0
48360,note_on,0,0,2,,,,,,,,,,,,,,,0,,,61,58
48360,note_on,60,0,1,,,,,,,,,,,,,,,0,,,66,0
48420,note_on,60,0,1,,,,,,,,,,,,,,,0,,,73,51
48480,note_on,0,0,3,,,,,,,,,,,,,,,0,,,54,73
48480,note_on,240,0,3,,,,,,,,,,,,,,,0,,,37,0
48480,note_on,120,0,2,,,,,,,,,,,,,,,0,,,61,0
48480,note_on,0,0,2,,,,,,,,,,,,,,,0,,,61,79
48480,note_on,60,0,1,,,,,,,,,,,,,,,0,,,73,0
48540,note_on,60,0,1,,,,,,,,,,,,,,,0,,,73,50
48560,note_on,80,0,3,,,,,,,,,,,,,,,0,,,54,0
48560,note_on,0,0,3,,,,,,,,,,,,,,,0,,,44,61
48600,note_on,0,0,1,,,,,,,,,,,,,,,0,,,67,57
48600,note_on,60,0,1,,,,,,,,,,,,,,,0,,,73,0
48640,note_on,80,0,3,,,,,,,,,,,,,,,0,,,44,0
48640,note_on,0,0,3,,,,,,,,,,,,,,,0,,,49,66
48660,note_on,60,0,1,,,,,,,,,,,,,,,0,,,67,0
48660,note_on,0,0,1,,,,,,,,,,,,,,,0,,,69,48
48720,note_on,60,0,1,,,,,,,,,,,,,,,0,,,69,0
48720,note_on,0,0,1,,,,,,,,,,,,,,,0,,,68,55
48720,note_on,80,0,3,,,,,,,,,,,,,,,0,,,49,0
48720,note_on,0,0,3,,,,,,,,,,,,,,,0,,,37,58
48780,note_on,60,0,1,,,,,,,,,,,,,,,0,,,68,0
48780,note_on,0,0,1,,,,,,,,,,,,,,,0,,,66,46
48840,note_on,0,0,2,,,,,,,,,,,,,,,0,,,61,58
48840,note_on,60,0,1,,,,,,,,,,,,,,,0,,,66,0
48840,note_on,360,0,2,,,,,,,,,,,,,,,0,,,61,0
48900,note_on,60,0,1,,,,,,,,,,,,,,,0,,,73,50
48924,control_change,204,0,3,,,,,,,,,,,,,,,0,64,0,,
48940,set_tempo,3340,1,0,,,,,,,,,,,,618557,,,,,,,
48960,note_on,120,0,2,,,,,,,,,,,,,,,0,,,61,0
48960,note_on,0,0,3,,,,,,,,,,,,,,,0,,,53,75
48960,note_on,36,0,3,,,,,,,,,,,,,,,0,,,37,0
48960,note_on,0,0,2,,,,,,,,,,,,,,,0,,,61,79
48960,set_tempo,20,1,0,,,,,,,,,,,,621762,,,,,,,
48960,note_on,60,0,1,,,,,,,,,,,,,,,0,,,73,0
48964,control_change,4,0,3,,,,,,,,,,,,,,,0,64,127,,
48980,set_tempo,20,1,0,,,,,,,,,,,,625000,,,,,,,
49000,set_tempo,20,1,0,,,,,,,,,,,,631579,,,,,,,
49020,set_tempo,20,1,0,,,,,,,,,,,,634921,,,,,,,
49020,note_on,60,0,1,,,,,,,,,,,,,,,0,,,73,45
49040,note_on,0,0,3,,,,,,,,,,,,,,,0,,,44,64
49040,note_on,76,0,3,,,,,,,,,,,,,,,0,,,53,0
49040,set_tempo,20,1,0,,,,,,,,,,,,641711,,,,,,,
49060,set_tempo,20,1,0,,,,,,,,,,,,645161,,,,,,,
49080,set_tempo,20,1,0,,,,,,,,,,,,648649,,,,,,,
49080,note_on,0,0,1,,,,,,,,,,,,,,,0,,,67,50
49080,note_on,60,0,1,,,,,,,,,,,,,,,0,,,73,0
49100,set_tempo,20,1,0,,,,,,,,,,,,655738,,,,,,,
49120,note_on,0,0,3,,,,,,,,,,,,,,,0,,,49,69
49120,set_tempo,20,1,0,,,,,,,,,,,,659341,,,,,,,
49120,note_on,80,0,3,,,,,,,,,,,,,,,0,,,44,0
49140,note_on,60,0,1,,,,,,,,,,,,,,,0,,,67,0
49140,note_on,0,0,1,,,,,,,,,,,,,,,0,,,69,42
49140,set_tempo,20,1,0,,,,,,,,,,,,666667,,,,,,,
49160,set_tempo,20,1,0,,,,,,,,,,,,670391,,,,,,,
49180,set_tempo,20,1,0,,,,,,,,,,,,677966,,,,,,,
49200,note_on,0,0,3,,,,,,,,,,,,,,,0,,,37,56
49200,note_on,80,0,3,,,,,,,,,,,,,,,0,,,49,0
49200,note_on,60,0,1,,,,,,,,,,,,,,,0,,,69,0
49200,set_tempo,20,1,0,,,,,,,,,,,,681818,,,,,,,
49200,note_on,0,0,1,,,,,,,,,,,,,,,0,,,68,48
49220,set_tempo,20,1,0,,,,,,,,,,,,685714,,,,,,,
49240,set_tempo,20,1,0,,,,,,,,,,,,693642,,,,,,,
49260,note_on,60,0,1,,,,,,,,,,,,,,,0,,,68,0
49260,set_tempo,20,1,0,,,,,,,,,,,,697674,,,,,,,
49260,note_on,0,0,1,,,,,,,,,,,,,,,0,,,65,42
49280,set_tempo,20,1,0,,,,,,,,,,,,705882,,,,,,,
49300,set_tempo,20,1,0,,,,,,,,,,,,710059,,,,,,,
49320,set_tempo,20,1,0,,,,,,,,,,,,714286,,,,,,,
49320,note_on,60,0,1,,,,,,,,,,,,,,,0,,,65,0
49320,note_on,0,0,2,,,,,,,,,,,,,,,0,,,61,55
49320,note_on,360,0,2,,,,,,,,,,,,,,,0,,,61,0
49340,set_tempo,20,1,0,,,,,,,,,,,,722892,,,,,,,
49360,set_tempo,20,1,0,,,,,,,,,,,,727273,,,,,,,
49380,note_on,60,0,1,,,,,,,,,,,,,,,0,,,73,46
49380,set_tempo,20,1,0,,,,,,,,,,,,736196,,,,,,,
49400,set_tempo,20,1,0,,,,,,,,,,,,740741,,,,,,,
49416,control_change,216,0,3,,,,,,,,,,,,,,,0,64,0,,
49440,note_on,0,0,3,,,,,,,,,,,,,,,0,,,53,74
49440,note_on,24,0,3,,,,,,,,,,,,,,,0,,,37,0
49440,note_on,0,0,2,,,,,,,,,,,,,,,0,,,61,73
49440,note_on,60,0,1,,,,,,,,,,,,,,,0,,,73,0
49440,note_on,120,0,2,,,,,,,,,,,,,,,0,,,61,0
49444,control_change,4,0,3,,,,,,,,,,,,,,,0,64,127,,
49500,note_on,60,0,1,,,,,,,,,,,,,,,0,,,73,38
49520,note_on,0,0,3,,,,,,,,,,,,,,,0,,,44,54
49520,note_on,76,0,3,,,,,,,,,,,,,,,0,,,53,0
49560,note_on,0,0,1,,,,,,,,,,,,,,,0,,,67,44
49560,note_on,60,0,1,,,,,,,,,,,,,,,0,,,73,0
49600,note_on,0,0,3,,,,,,,,,,,,,,,0,,,49,60
49600,note_on,80,0,3,,,,,,,,,,,,,,,0,,,44,0
49620,note_on,0,0,1,,,,,,,,,,,,,,,0,,,69,36
49620,note_on,60,0,1,,,,,,,,,,,,,,,0,,,67,0
49680,note_on,0,0,1,,,,,,,,,,,,,,,0,,,68,44
49680,note_on,0,0,3,,,,,,,,,,,,,,,0,,,37,49
49680,note_on,60,0,1,,,,,,,,,,,,,,,0,,,69,0
49680,note_on,80,0,3,,,,,,,,,,,,,,,0,,,49,0
49720,set_tempo,320,1,0,,,,,,,,,,,,1090909,,,,,,,
49740,note_on,0,0,1,,,,,,,,,,,,,,,0,,,65,38
49740,note_on,60,0,1,,,,,,,,,,,,,,,0,,,68,0
49800,note_on,60,0,1,,,,,,,,,,,,,,,0,,,65,0
49800,note_on,0,0,2,,,,,,,,,,,,,,,0,,,61,50
49800,note_on,360,0,2,,,,,,,,,,,,,,,0,,,61,0
49860,note_on,60,0,1,,,,,,,,,,,,,,,0,,,73,38
49884,control_change,204,0,3,,,,,,,,,,,,,,,0,64,0,,
49920,set_tempo,200,1,0,,,,,,,,,,,,845070,,,,,,,
49920,note_on,0,0,2,,,,,,,,,,,,,,,0,,,61,69
49920,note_on,120,0,2,,,,,,,,,,,,,,,0,,,61,0
49920,note_on,0,0,3,,,,,,,,,,,,,,,0,,,57,49
49920,note_on,60,0,1,,,,,,,,,,,,,,,0,,,73,0
49920,note_on,36,0,3,,,,,,,,,,,,,,,0,,,37,0
49924,control_change,4,0,3,,,,,,,,,,,,,,,0,64,127,,
49980,set_tempo,60,1,0,,,,,,,,,,,,827586,,,,,,,
49980,note_on,60,0,1,,,,,,,,,,,,,,,0,,,73,35
50000,set_tempo,20,1,0,,,,,,,,,,,,821918,,,,,,,
50000,note_on,76,0,3,,,,,,,,,,,,,,,0,,,57,0
50000,note_on,0,0,3,,,,,,,,,,,,,,,0,,,49,39
50040,note_on,0,0,1,,,,,,,,,,,,,,,0,,,68,40
50040,note_on,60,0,1,,,,,,,,,,,,,,,0,,,73,0
50040,set_tempo,40,1,0,,,,,,,,,,,,816327,,,,,,,
50060,set_tempo,20,1,0,,,,,,,,,,,,810811,,,,,,,
50080,set_tempo,20,1,0,,,,,,,,,,,,805369,,,,,,,
50080,note_on,80,0,3,,,,,,,,,,,,,,,0,,,49,0
50080,note_on,0,0,3,,,,,,,,,,,,,,,0,,,54,45
50100,note_on,60,0,1,,,,,,,,,,,,,,,0,,,68,0
50100,note_on,0,0,1,,,,,,,,,,,,,,,0,,,71,35
50120,set_tempo,40,1,0,,,,,,,,,,,,800000,,,,,,,
50140,set_tempo,20,1,0,,,,,,,,,,,,794702,,,,,,,
50160,note_on,0,0,1,,,,,,,,,,,,,,,0,,,69,40
50160,set_tempo,20,1,0,,,,,,,,,,,,789474,,,,,,,
50160,note_on,80,0,3,,,,,,,,,,,,,,,0,,,54,0
50160,note_on,0,0,3,,,,,,,,,,,,,,,0,,,42,38
50160,note_on,60,0,1,,,,,,,,,,,,,,,0,,,71,0
50200,set_tempo,40,1,0,,,,,,,,,,,,784314,,,,,,,
50220,note_on,60,0,1,,,,,,,,,,,,,,,0,,,69,0
50220,note_on,0,0,1,,,,,,,,,,,,,,,0,,,66,35
50220,set_tempo,20,1,0,,,,,,,,,,,,779221,,,,,,,
50240,set_tempo,20,1,0,,,,,,,,,,,,774194,,,,,,,
50280,set_tempo,40,1,0,,,,,,,,,,,,769231,,,,,,,
50280,note_on,360,0,2,,,,,,,,,,,,,,,0,,,61,0
50280,note_on,0,0,2,,,,,,,,,,,,,,,0,,,61,52
50280,note_on,60,0,1,,,,,,,,,,,,,,,0,,,66,0
50300,set_tempo,20,1,0,,,,,,,,,,,,764331,,,,,,,
50320,set_tempo,20,1,0,,,,,,,,,,,,759494,,,,,,,
50340,note_on,60,0,1,,,,,,,,,,,,,,,0,,,73,38
50360,set_tempo,40,1,0,,,,,,,,,,,,754717,,,,,,,
50380,set_tempo,20,1,0,,,,,,,,,,,,750000,,,,,,,
50400,note_on,240,0,3,,,,,,,,,,,,,,,0,,,42,0
50400,set_tempo,20,1,0,,,,,,,,,,,,745342,,,,,,,
50400,note_on,120,0,2,,,,,,,,,,,,,,,0,,,61,0
50400,note_on,60,0,1,,,,,,,,,,,,,,,0,,,73,0
50400,note_on,0,0,2,,,,,,,,,,,,,,,0,,,61,68
50400,note_on,0,0,3,,,,,,,,,,,,,,,0,,,57,49
50440,set_tempo,40,1,0,,,,,,,,,,,,740741,,,,,,,
50460,note_on,60,0,1,,,,,,,,,,,,,,,0,,,73,34
50460,set_tempo,20,1,0,,,,,,,,,,,,736196,,,,,,,
50480,note_on,80,0,3,,,,,,,,,,,,,,,0,,,57,0
50480,note_on,0,0,3,,,,,,,,,,,,,,,0,,,49,39
50480,set_tempo,20,1,0,,,,,,,,,,,,731707,,,,,,,
50520,note_on,60,0,1,,,,,,,,,,,,,,,0,,,73,0
50520,set_tempo,40,1,0,,,,,,,,,,,,727273,,,,,,,
50520,note_on,0,0,1,,,,,,,,,,,,,,,0,,,68,37
50540,set_tempo,20,1,0,,,,,,,,,,,,722892,,,,,,,
50560,note_on,80,0,3,,,,,,,,,,,,,,,0,,,49,0
50560,set_tempo,20,1,0,,,,,,,,,,,,718563,,,,,,,
50560,note_on,0,0,3,,,,,,,,,,,,,,,0,,,54,44
50580,note_on,0,0,1,,,,,,,,,,,,,,,0,,,71,31
50580,note_on,60,0,1,,,,,,,,,,,,,,,0,,,68,0
50600,set_tempo,40,1,0,,,,,,,,,,,,714286,,,,,,,
50620,set_tempo,20,1,0,,,,,,,,,,,,710059,,,,,,,
50640,set_tempo,20,1,0,,,,,,,,,,,,705882,,,,,,,
50640,note_on,60,0,1,,,,,,,,,,,,,,,0,,,71,0
50640,note_on,0,0,3,,,,,,,,,,,,,,,0,,,42,37
50640,note_on,0,0,1,,,,,,,,,,,,,,,0,,,69,37
50640,note_on,80,0,3,,,,,,,,,,,,,,,0,,,54,0
50680,set_tempo,40,1,0,,,,,,,,,,,,701754,,,,,,,
50700,set_tempo,20,1,0,,,,,,,,,,,,697674,,,,,,,
50700,note_on,0,0,1,,,,,,,,,,,,,,,0,,,66,30
50700,note_on,60,0,1,,,,,,,,,,,,,,,0,,,69,0
50720,set_tempo,20,1,0,,,,,,,,,,,,693642,,,,,,,
50760,note_on,0,0,2,,,,,,,,,,,,,,,0,,,61,50
50760,set_tempo,40,1,0,,,,,,,,,,,,689655,,,,,,,
50760,note_on,360,0,2,,,,,,,,,,,,,,,0,,,61,0
50760,note_on,60,0,1,,,,,,,,,,,,,,,0,,,66,0
50780,set_tempo,20,1,0,,,,,,,,,,,,685714,,,,,,,
50800,set_tempo,20,1,0,,,,,,,,,,,,681818,,,,,,,
50820,note_on,60,0,1,,,,,,,,,,,,,,,0,,,73,37
50840,set_tempo,40,1,0,,,,,,,,,,,,677966,,,,,,,
50860,set_tempo,20,1,0,,,,,,,,,,,,674157,,,,,,,
50880,note_on,60,0,1,,,,,,,,,,,,,,,0,,,73,0
50880,note_on,240,0,3,,,,,,,,,,,,,,,0,,,42,0
50880,note_on,0,0,2,,,,,,,,,,,,,,,0,,,61,69
50880,note_on,120,0,2,,,,,,,,,,,,,,,0,,,61,0
50880,set_tempo,20,1,0,,,,,,,,,,,,670391,,,,,,,
50880,note_on,0,0,3,,,,,,,,,,,,,,,0,,,57,49
50900,set_tempo,20,1,0,,,,,,,,,,,,666667,,,,,,,
50940,note_on,60,0,1,,,,,,,,,,,,,,,0,,,73,31
50960,note_on,0,0,3,,,,,,,,,,,,,,,0,,,49,39
50960,note_on,80,0,3,,,,,,,,,,,,,,,0,,,57,0
51000,note_on,0,0,1,,,,,,,,,,,,,,,0,,,68,37
51000,note_on,60,0,1,,,,,,,,,,,,,,,0,,,73,0
51040,note_on,0,0,3,,,,,,,,,,,,,,,0,,,54,45
51040,note_on,80,0,3,,,,,,,,,,,,,,,0,,,49,0
51060,note_on,0,0,1,,,,,,,,,,,,,,,0,,,71,31
51060,note_on,60,0,1,,,,,,,,,,,,,,,0,,,68,0
51120,note_on,80,0,3,,,,,,,,,,,,,,,0,,,54,0
51120,note_on,0,0,3,,,,,,,,,,,,,,,0,,,42,38
51120,note_on,0,0,1,,,,,,,,,,,,,,,0,,,69,37
51120,note_on,60,0,1,,,,,,,,,,,,,,,0,,,71,0
51180,note_on,60,0,1,,,,,,,,,,,,,,,0,,,69,0
51180,note_on,0,0,1,,,,,,,,,,,,,,,0,,,66,36
51240,note_on,360,0,2,,,,,,,,,,,,,,,0,,,61,0
51240,note_on,0,0,2,,,,,,,,,,,,,,,0,,,61,49
51240,note_on,60,0,1,,,,,,,,,,,,,,,0,,,66,0
51300,note_on,60,0,1,,,,,,,,,,,,,,,0,,,73,38
51340,set_tempo,440,1,0,,,,,,,,,,,,662983,,,,,,,
51360,set_tempo,20,1,0,,,,,,,,,,,,662983,,,,,,,
51360,note_on,120,0,2,,,,,,,,,,,,,,,0,,,61,0
51360,note_on,0,0,2,,,,,,,,,,,,,,,0,,,61,71
51360,note_on,60,0,1,,,,,,,,,,,,,,,0,,,73,0
51360,note_on,0,0,3,,,,,,,,,,,,,,,0,,,57,49
51360,note_on,240,0,3,,,,,,,,,,,,,,,0,,,42,0
51420,note_on,60,0,1,,,,,,,,,,,,,,,0,,,73,34
51440,note_on,80,0,3,,,,,,,,,,,,,,,0,,,57,0
51440,set_tempo,80,1,0,,,,,,,,,,,,666667,,,,,,,
51440,note_on,0,0,3,,,,,,,,,,,,,,,0,,,49,39
51480,note_on,0,0,1,,,,,,,,,,,,,,,0,,,68,38
51480,note_on,60,0,1,,,,,,,,,,,,,,,0,,,73,0
51520,set_tempo,80,1,0,,,,,,,,,,,,670391,,,,,,,
51520,note_on,0,0,3,,,,,,,,,,,,,,,0,,,54,49
51520,note_on,80,0,3,,,,,,,,,,,,,,,0,,,49,0
51540,note_on,0,0,1,,,,,,,,,,,,,,,0,,,71,34
51540,note_on,60,0,1,,,,,,,,,,,,,,,0,,,68,0
51600,note_on,0,0,3,,,,,,,,,,,,,,,0,,,42,45
51600,note_on,80,0,3,,,,,,,,,,,,,,,0,,,54,0
51600,note_on,0,0,1,,,,,,,,,,,,,,,0,,,69,38
51600,set_tempo,80,1,0,,,,,,,,,,,,674157,,,,,,,
51600,note_on,60,0,1,,,,,,,,,,,,,,,0,,,71,0
51660,note_on,60,0,1,,,,,,,,,,,,,,,0,,,69,0
51660,note_on,0,0,1,,,,,,,,,,,,,,,0,,,66,34
51680,set_tempo,80,1,0,,,,,,,,,,,,677966,,,,,,,
51720,note_on,360,0,2,,,,,,,,,,,,,,,0,,,61,0
51720,note_on,0,0,2,,,,,,,,,,,,,,,0,,,61,49
51720,note_on,60,0,1,,,,,,,,,,,,,,,0,,,66,0
51760,set_tempo,80,1,0,,,,,,,,,,,,681818,,,,,,,
51780,note_on,60,0,1,,,,,,,,,,,,,,,0,,,73,38
51800,control_change,200,0,3,,,,,,,,,,,,,,,0,64,0,,
51840,note_on,60,0,1,,,,,,,,,,,,,,,0,,,73,0
51840,note_on,0,0,3,,,,,,,,,,,,,,,0,,,54,49
51840,note_on,120,0,2,,,,,,,,,,,,,,,0,,,61,0
51840,note_on,0,0,2,,,,,,,,,,,,,,,0,,,62,66
51840,note_on,40,0,3,,,,,,,,,,,,,,,0,,,42,0
51840,set_tempo,80,1,0,,,,,,,,,,,,685714,,,,,,,
51852,control_change,12,0,3,,,,,,,,,,,,,,,0,64,127,,
51860,set_tempo,20,1,0,,,,,,,,,,,,689655,,,,,,,
51900,note_on,60,0,1,,,,,,,,,,,,,,,0,,,74,34
51920,note_on,68,0,3,,,,,,,,,,,,,,,0,,,54,0
51920,note_on,0,0,3,,,,,,,,,,,,,,,0,,,42,41
51920,set_tempo,60,1,0,,,,,,,,,,,,685714,,,,,,,
51960,note_on,0,0,1,,,,,,,,,,,,,,,0,,,70,37
51960,note_on,60,0,1,,,,,,,,,,,,,,,0,,,74,0
51980,set_tempo,60,1,0,,,,,,,,,,,,681818,,,,,,,
52000,note_on,0,0,3,,,,,,,,,,,,,,,0,,,47,49
52000,note_on,80,0,3,,,,,,,,,,,,,,,0,,,42,0
52020,note_on,60,0,1,,,,,,,,,,,,,,,0,,,70,0
52020,set_tempo,40,1,0,,,,,,,,,,,,677966,,,,,,,
52020,note_on,0,0,1,,,,,,,,,,,,,,,0,,,73,31
52080,note_on,60,0,1,,,,,,,,,,,,,,,0,,,73,0
52080,note_on,80,0,3,,,,,,,,,,,,,,,0,,,47,0
52080,set_tempo,60,1,0,,,,,,,,,,,,674157,,,,,,,
52080,note_on,0,0,1,,,,,,,,,,,,,,,0,,,71,37
52080,note_on,0,0,3,,,,,,,,,,,,,,,0,,,35,39
52120,set_tempo,40,1,0,,,,,,,,,,,,670391,,,,,,,
52140,note_on,0,0,1,,,,,,,,,,,,,,,0,,,66,31
52140,note_on,60,0,1,,,,,,,,,,,,,,,0,,,71,0
52180,set_tempo,60,1,0,,,,,,,,,,,,666667,,,,,,,
52200,note_on,360,0,2,,,,,,,,,,,,,,,0,,,62,0
52200,note_on,60,0,1,,,,,,,,,,,,,,,0,,,66,0
52200,note_on,0,0,2,,,,,,,,,,,,,,,0,,,62,49
52240,set_tempo,60,1,0,,,,,,,,,,,,662983,,,,,,,
52260,note_on,60,0,1,,,,,,,,,,,,,,,0,,,74,38
52280,set_tempo,40,1,0,,,,,,,,,,,,659341,,,,,,,
52320,note_on,120,0,2,,,,,,,,,,,,,,,0,,,62,0
52320,note_on,0,0,3,,,,,,,,,,,,,,,0,,,54,49
52320,note_on,240,0,3,,,,,,,,,,,,,,,0,,,35,0
52320,note_on,0,0,2,,,,,,,,,,,,,,,0,,,62,63
52320,note_on,60,0,1,,,,,,,,,,,,,,,0,,,74,0
52340,set_tempo,60,1,0,,,,,,,,,,,,655738,,,,,,,
52380,note_on,60,0,1,,,,,,,,,,,,,,,0,,,74,34
52380,set_tempo,40,1,0,,,,,,,,,,,,652174,,,,,,,
52400,note_on,80,0,3,,,,,,,,,,,,,,,0,,,54,0
52400,note_on,0,0,3,,,,,,,,,,,,,,,0,,,42,40
52440,note_on,60,0,1,,,,,,,,,,,,,,,0,,,74,0
52440,note_on,0,0,1,,,,,,,,,,,,,,,0,,,70,38
52440,set_tempo,60,1,0,,,,,,,,,,,,648649,,,,,,,
52480,note_on,80,0,3,,,,,,,,,,,,,,,0,,,42,0
52480,note_on,0,0,3,,,,,,,,,,,,,,,0,,,47,45
52500,note_on,60,0,1,,,,,,,,,,,,,,,0,,,70,0
52500,note_on,0,0,1,,,,,,,,,,,,,,,0,,,73,34
52500,set_tempo,60,1,0,,,,,,,,,,,,645161,,,,,,,
52540,set_tempo,40,1,0,,,,,,,,,,,,641711,,,,,,,
52560,note_on,0,0,1,,,,,,,,,,,,,,,0,,,71,40
52560,note_on,0,0,3,,,,,,,,,,,,,,,0,,,35,39
52560,note_on,80,0,3,,,,,,,,,,,,,,,0,,,47,0
52560,note_on,60,0,1,,,,,,,,,,,,,,,0,,,73,0
52600,set_tempo,60,1,0,,,,,,,,,,,,638298,,,,,,,
52620,note_on,0,0,1,,,,,,,,,,,,,,,0,,,66,35
52620,note_on,60,0,1,,,,,,,,,,,,,,,0,,,71,0
52640,set_tempo,40,1,0,,,,,,,,,,,,634921,,,,,,,
52680,note_on,360,0,2,,,,,,,,,,,,,,,0,,,62,0
52680,note_on,0,0,2,,,,,,,,,,,,,,,0,,,62,49
52680,note_on,60,0,1,,,,,,,,,,,,,,,0,,,66,0
52700,set_tempo,60,1,0,,,,,,,,,,,,631579,,,,,,,
52740,note_on,60,0,1,,,,,,,,,,,,,,,0,,,74,42
52760,set_tempo,60,1,0,,,,,,,,,,,,628272,,,,,,,
52800,note_on,60,0,1,,,,,,,,,,,,,,,0,,,74,0
52800,note_on,0,0,3,,,,,,,,,,,,,,,0,,,54,49
52800,note_on,0,0,2,,,,,,,,,,,,,,,0,,,62,69
52800,note_on,120,0,2,,,,,,,,,,,,,,,0,,,62,0
52800,note_on,240,0,3,,,,,,,,,,,,,,,0,,,35,0
52800,set_tempo,40,1,0,,,,,,,,,,,,625000,,,,,,,
52860,set_tempo,60,1,0,,,,,,,,,,,,621762,,,,,,,
52860,note_on,60,0,1,,,,,,,,,,,,,,,0,,,74,37
52880,note_on,80,0,3,,,,,,,,,,,,,,,0,,,54,0
52880,note_on,0,0,3,,,,,,,,,,,,,,,0,,,42,41
52900,set_tempo,40,1,0,,,,,,,,,,,,618557,,,,,,,
52920,note_on,0,0,1,,,,,,,,,,,,,,,0,,,70,44
52920,note_on,60,0,1,,,,,,,,,,,,,,,0,,,74,0
52952,set_tempo,52,1,0,,,,,,,,,,,,645161,,,,,,,
52960,note_on,80,0,3,,,,,,,,,,,,,,,0,,,42,0
52960,note_on,0,0,3,,,,,,,,,,,,,,,0,,,47,49
52980,note_on,60,0,1,,,,,,,,,,,,,,,0,,,70,0
52980,note_on,0,0,1,,,,,,,,,,,,,,,0,,,73,36
52992,set_tempo,40,1,0,,,,,,,,,,,,652174,,,,,,,
53016,set_tempo,24,1,0,,,,,,,,,,,,659341,,,,,,,
53040,note_on,0,0,3,,,,,,,,,,,,,,,0,,,35,39
53040,note_on,60,0,1,,,,,,,,,,,,,,,0,,,73,0
53040,note_on,0,0,1,,,,,,,,,,,,,,,0,,,71,44
53040,note_on,80,0,3,,,,,,,,,,,,,,,0,,,47,0
53048,set_tempo,32,1,0,,,,,,,,,,,,674157,,,,,,,
53072,set_tempo,24,1,0,,,,,,,,,,,,681818,,,,,,,
53080,set_tempo,8,1,0,,,,,,,,,,,,689655,,,,,,,
53096,set_tempo,16,1,0,,,,,,,,,,,,697674,,,,,,,
53100,note_on,0,0,1,,,,,,,,,,,,,,,0,,,66,35
53100,note_on,60,0,1,,,,,,,,,,,,,,,0,,,71,0
53112,set_tempo,16,1,0,,,,,,,,,,,,705882,,,,,,,
53128,set_tempo,16,1,0,,,,,,,,,,,,714286,,,,,,,
53136,set_tempo,8,1,0,,,,,,,,,,,,722892,,,,,,,
53160,note_on,60,0,1,,,,,,,,,,,,,,,0,,,66,0
53160,note_on,0,0,2,,,,,,,,,,,,,,,0,,,62,50
53160,note_on,360,0,2,,,,,,,,,,,,,,,0,,,62,0
53168,set_tempo,32,1,0,,,,,,,,,,,,731707,,,,,,,
53184,set_tempo,16,1,0,,,,,,,,,,,,750000,,,,,,,
53200,set_tempo,16,1,0,,,,,,,,,,,,759494,,,,,,,
53220,note_on,60,0,1,,,,,,,,,,,,,,,0,,,74,44
53224,set_tempo,24,1,0,,,,,,,,,,,,769231,,,,,,,
53264,set_tempo,40,1,0,,,,,,,,,,,,800000,,,,,,,
53272,set_tempo,8,1,0,,,,,,,,,,,,810811,,,,,,,
53280,note_on,0,0,3,,,,,,,,,,,,,,,0,,,54,50
53280,note_on,240,0,3,,,,,,,,,,,,,,,0,,,35,0
53280,note_on,120,0,2,,,,,,,,,,,,,,,0,,,62,0
53280,note_on,0,0,2,,,,,,,,,,,,,,,0,,,66,71
53280,note_on,60,0,1,,,,,,,,,,,,,,,0,,,74,0
53340,note_on,60,0,1,,,,,,,,,,,,,,,0,,,78,46
53360,note_on,80,0,3,,,,,,,,,,,,,,,0,,,54,0
53360,note_on,0,0,3,,,,,,,,,,,,,,,0,,,42,41
53400,note_on,60,0,1,,,,,,,,,,,,,,,0,,,78,0
53400,note_on,0,0,1,,,,,,,,,,,,,,,0,,,70,51
53440,note_on,0,0,3,,,,,,,,,,,,,,,0,,,47,46
53440,note_on,80,0,3,,,,,,,,,,,,,,,0,,,42,0
53460,note_on,0,0,1,,,,,,,,,,,,,,,0,,,73,45
53460,note_on,60,0,1,,,,,,,,,,,,,,,0,,,70,0
53520,note_on,60,0,1,,,,,,,,,,,,,,,0,,,73,0
53520,note_on,0,0,1,,,,,,,,,,,,,,,0,,,71,48
53520,note_on,0,0,3,,,,,,,,,,,,,,,0,,,35,40
53520,note_on,80,0,3,,,,,,,,,,,,,,,0,,,47,0
53580,note_on,60,0,1,,,,,,,,,,,,,,,0,,,71,0
53580,note_on,0,0,1,,,,,,,,,,,,,,,0,,,66,42
53640,note_on,360,0,2,,,,,,,,,,,,,,,0,,,66,0
53640,note_on,0,0,2,,,,,,,,,,,,,,,0,,,62,47
53640,note_on,60,0,1,,,,,,,,,,,,,,,0,,,66,0
53700,note_on,60,0,1,,,,,,,,,,,,,,,0,,,74,36
53716,control_change,196,0,3,,,,,,,,,,,,,,,0,64,0,,
53760,note_on,120,0,2,,,,,,,,,,,,,,,0,,,62,0
53760,set_tempo,488,1,0,,,,,,,,,,,,631579,,,,,,,
53760,note_on,0,0,3,,,,,,,,,,,,,,,0,,,58,39
53760,note_on,44,0,3,,,,,,,,,,,,,,,0,,,35,0
53760,note_on,60,0,1,,,,,,,,,,,,,,,0,,,74,0
53760,note_on,0,0,2,,,,,,,,,,,,,,,0,,,61,59
53784,control_change,24,0,3,,,,,,,,,,,,,,,0,64,127,,
53820,note_on,60,0,1,,,,,,,,,,,,,,,0,,,73,28
53840,note_on,0,0,3,,,,,,,,,,,,,,,0,,,49,36
53840,note_on,56,0,3,,,,,,,,,,,,,,,0,,,58,0
53880,note_on,0,0,1,,,,,,,,,,,,,,,0,,,68,36
53880,note_on,60,0,1,,,,,,,,,,,,,,,0,,,73,0
53920,note_on,0,0,3,,,,,,,,,,,,,,,0,,,54,37
53920,note_on,80,0,3,,,,,,,,,,,,,,,0,,,49,0
53940,note_on,60,0,1,,,,,,,,,,,,,,,0,,,68,0
53940,note_on,0,0,1,,,,,,,,,,,,,,,0,,,71,29
54000,note_on,60,0,1,,,,,,,,,,,,,,,0,,,71,0
54000,note_on,0,0,3,,,,,,,,,,,,,,,0,,,42,35
54000,note_on,80,0,3,,,,,,,,,,,,,,,0,,,54,0
54000,note_on,0,0,1,,,,,,,,,,,,,,,0,,,70,35
54060,note_on,60,0,1,,,,,,,,,,,,,,,0,,,70,0
54060,note_on,0,0,1,,,,,,,,,,,,,,,0,,,66,30
54120,note_on,60,0,1,,,,,,,,,,,,,,,0,,,66,0
54120,note_on,0,0,2,,,,,,,,,,,,,,,0,,,61,41
54120,note_on,360,0,2,,,,,,,,,,,,,,,0,,,61,0
54180,note_on,60,0,1,,,,,,,,,,,,,,,0,,,73,35
54240,note_on,0,0,3,,,,,,,,,,,,,,,0,,,58,39
54240,note_on,240,0,3,,,,,,,,,,,,,,,0,,,42,0
54240,note_on,120,0,2,,,,,,,,,,,,,,,0,,,61,0
54240,note_on,0,0,2,,,,,,,,,,,,,,,0,,,61,58
54240,note_on,60,0,1,,,,,,,,,,,,,,,0,,,73,0
54300,note_on,60,0,1,,,,,,,,,,,,,,,0,,,73,27
54320,note_on,0,0,3,,,,,,,,,,,,,,,0,,,49,35
54320,note_on,80,0,3,,,,,,,,,,,,,,,0,,,58,0
54360,note_on,60,0,1,,,,,,,,,,,,,,,0,,,73,0
54360,note_on,0,0,1,,,,,,,,,,,,,,,0,,,68,34
54400,note_on,0,0,3,,,,,,,,,,,,,,,0,,,54,36
54400,note_on,80,0,3,,,,,,,,,,,,,,,0,,,49,0
54420,note_on,60,0,1,,,,,,,,,,,,,,,0,,,68,0
54420,note_on,0,0,1,,,,,,,,,,,,,,,0,,,71,27
54480,note_on,60,0,1,,,,,,,,,,,,,,,0,,,71,0
54480,note_on,0,0,1,,,,,,,,,,,,,,,0,,,70,34
54480,note_on,80,0,3,,,,,,,,,,,,,,,0,,,54,0
54480,note_on,0,0,3,,,,,,,,,,,,,,,0,,,42,34
54540,note_on,60,0,1,,,,,,,,,,,,,,,0,,,70,0
54540,note_on,0,0,1,,,,,,,,,,,,,,,0,,,66,28
54600,note_on,60,0,1,,,,,,,,,,,,,,,0,,,66,0
54600,note_on,360,0,2,,,,,,,,,,,,,,,0,,,61,0
54600,note_on,0,0,2,,,,,,,,,,,,,,,0,,,61,41
54660,note_on,60,0,1,,,,,,,,,,,,,,,0,,,73,34
54720,note_on,60,0,1,,,,,,,,,,,,,,,0,,,73,0
54720,note_on,120,0,2,,,,,,,,,,,,,,,0,,,61,0
54720,note_on,0,0,2,,,,,,,,,,,,,,,0,,,61,58
54720,note_on,240,0,3,,,,,,,,,,,,,,,0,,,42,0
54720,note_on,0,0,3,,,,,,,,,,,,,,,0,,,58,39
54780,note_on,60,0,1,,,,,,,,,,,,,,,0,,,73,28
54800,note_on,80,0,3,,,,,,,,,,,,,,,0,,,58,0
54800,note_on,0,0,3,,,,,,,,,,,,,,,0,,,49,34
54840,note_on,60,0,1,,,,,,,,,,,,,,,0,,,73,0
54840,note_on,0,0,1,,,,,,,,,,,,,,,0,,,68,34
54880,note_on,80,0,3,,,,,,,,,,,,,,,0,,,49,0
54880,note_on,0,0,3,,,,,,,,,,,,,,,0,,,54,37
54900,note_on,0,0,1,,,,,,,,,,,,,,,0,,,71,28
54900,note_on,60,0,1,,,,,,,,,,,,,,,0,,,68,0
54960,note_on,80,0,3,,,,,,,,,,,,,,,0,,,54,0
54960,note_on,0,0,1,,,,,,,,,,,,,,,0,,,70,34
54960,note_on,60,0,1,,,,,,,,,,,,,,,0,,,71,0
54960,note_on,0,0,3,,,,,,,,,,,,,,,0,,,42,31
55020,note_on,60,0,1,,,,,,,,,,,,,,,0,,,70,0
55020,note_on,0,0,1,,,,,,,,,,,,,,,0,,,66,28
55080,note_on,60,0,1,,,,,,,,,,,,,,,0,,,66,0
55080,note_on,0,0,2,,,,,,,,,,,,,,,0,,,61,40
55080,note_on,360,0,2,,,,,,,,,,,,,,,0,,,61,0
55140,note_on,60,0,1,,,,,,,,,,,,,,,0,,,73,31
55200,note_on,0,0,2,,,,,,,,,,,,,,,0,,,61,58
55200,note_on,60,0,1,,,,,,,,,,,,,,,0,,,73,0
55200,note_on,240,0,3,,,,,,,,,,,,,,,0,,,42,0
55200,note_on,0,0,3,,,,,,,,,,,,,,,0,,,58,39
55200,note_on,120,0,2,,,,,,,,,,,,,,,0,,,61,0
55260,note_on,60,0,1,,,,,,,,,,,,,,,0,,,73,28
55280,note_on,0,0,3,,,,,,,,,,,,,,,0,,,49,31
55280,note_on,80,0,3,,,,,,,,,,,,,,,0,,,58,0
55320,note_on,60,0,1,,,,,,,,,,,,,,,0,,,73,0
55320,note_on,0,0,1,,,,,,,,,,,,,,,0,,,68,31
55360,note_on,0,0,3,,,,,,,,,,,,,,,0,,,54,38
55360,note_on,80,0,3,,,,,,,,,,,,,,,0,,,49,0
55380,note_on,60,0,1,,,,,,,,,,,,,,,0,,,68,0
55380,note_on,0,0,1,,,,,,,,,,,,,,,0,,,71,27
55440,note_on,80,0,3,,,,,,,,,,,,,,,0,,,54,0
55440,note_on,0,0,3,,,,,,,,,,,,,,,0,,,42,33
55440,note_on,60,0,1,,,,,,,,,,,,,,,0,,,71,0
55440,note_on,0,0,1,,,,,,,,,,,,,,,0,,,70,31
55500,note_on,0,0,1,,,,,,,,,,,,,,,0,,,66,25
55500,note_on,60,0,1,,,,,,,,,,,,,,,0,,,70,0
55560,note_on,360,0,2,,,,,,,,,,,,,,,0,,,61,0
55560,note_on,0,0,2,,,,,,,,,,,,,,,0,,,61,36
55560,note_on,60,0,1,,,,,,,,,,,,,,,0,,,66,0
55620,note_on,60,0,1,,,,,,,,,,,,,,,0,,,73,31
55636,control_change,196,0,3,,,,,,,,,,,,,,,0,64,0,,
55680,note_on,44,0,3,,,,,,,,,,,,,,,0,,,42,0
55680,note_on,0,0,3,,,,,,,,,,,,,,,0,,,54,39
55680,note_on,120,0,2,,,,,,,,,,,,,,,0,,,61,0
55680,note_on,60,0,1,,,,,,,,,,,,,,,0,,,73,0
55680,note_on,0,0,2,,,,,,,,,,,,,,,0,,,63,56
55692,control_change,12,0,3,,,,,,,,,,,,,,,0,64,127,,
55740,note_on,60,0,1,,,,,,,,,,,,,,,0,,,75,22
55760,note_on,0,0,3,,,,,,,,,,,,,,,0,,,42,34
55760,note_on,68,0,3,,,,,,,,,,,,,,,0,,,54,0
55800,note_on,0,0,1,,,,,,,,,,,,,,,0,,,70,28
55800,note_on,60,0,1,,,,,,,,,,,,,,,0,,,75,0
55840,note_on,0,0,3,,,,,,,,,,,,,,,0,,,47,36
55840,note_on,80,0,3,,,,,,,,,,,,,,,0,,,42,0
55860,note_on,0,0,1,,,,,,,,,,,,,,,0,,,73,22
55860,note_on,60,0,1,,,,,,,,,,,,,,,0,,,70,0
55920,note_on,80,0,3,,,,,,,,,,,,,,,0,,,47,0
55920,note_on,0,0,3,,,,,,,,,,,,,,,0,,,35,33
55920,note_on,60,0,1,,,,,,,,,,,,,,,0,,,73,0
55920,note_on,0,0,1,,,,,,,,,,,,,,,0,,,71,29
55980,note_on,0,0,1,,,,,,,,,,,,,,,0,,,66,23
55980,note_on,60,0,1,,,,,,,,,,,,,,,0,,,71,0
56040,note_on,0,0,2,,,,,,,,,,,,,,,0,,,63,38
56040,note_on,60,0,1,,,,,,,,,,,,,,,0,,,66,0
56040,note_on,360,0,2,,,,,,,,,,,,,,,0,,,63,0
56100,note_on,60,0,1,,,,,,,,,,,,,,,0,,,75,29
56160,note_on,240,0,3,,,,,,,,,,,,,,,0,,,35,0
56160,note_on,0,0,2,,,,,,,,,,,,,,,0,,,63,58
56160,note_on,60,0,1,,,,,,,,,,,,,,,0,,,75,0
56160,note_on,120,0,2,,,,,,,,,,,,,,,0,,,63,0
56160,note_on,0,0,3,,,,,,,,,,,,,,,0,,,54,39
56220,note_on,60,0,1,,,,,,,,,,,,,,,0,,,75,23
56240,note_on,0,0,3,,,,,,,,,,,,,,,0,,,42,34
56240,note_on,80,0,3,,,,,,,,,,,,,,,0,,,54,0
56280,note_on,60,0,1,,,,,,,,,,,,,,,0,,,75,0
56280,note_on,0,0,1,,,,,,,,,,,,,,,0,,,70,29
56320,note_on,80,0,3,,,,,,,,,,,,,,,0,,,42,0
56320,note_on,0,0,3,,,,,,,,,,,,,,,0,,,47,37
56340,note_on,60,0,1,,,,,,,,,,,,,,,0,,,70,0
56340,note_on,0,0,1,,,,,,,,,,,,,,,0,,,73,23
56400,note_on,0,0,3,,,,,,,,,,,,,,,0,,,35,33
56400,note_on,60,0,1,,,,,,,,,,,,,,,0,,,73,0
56400,note_on,80,0,3,,,,,,,,,,,,,,,0,,,47,0
56400,note_on,0,0,1,,,,,,,,,,,,,,,0,,,71,30
56460,note_on,60,0,1,,,,,,,,,,,,,,,0,,,71,0
56460,note_on,0,0,1,,,,,,,,,,,,,,,0,,,66,23
56520,note_on,360,0,2,,,,,,,,,,,,,,,0,,,63,0
56520,note_on,0,0,2,,,,,,,,,,,,,,,0,,,63,40
56520,note_on,60,0,1,,,,,,,,,,,,,,,0,,,66,0
56580,note_on,60,0,1,,,,,,,,,,,,,,,0,,,75,30
56640,note_on,240,0,3,,,,,,,,,,,,,,,0,,,35,0
56640,note_on,0,0,3,,,,,,,,,,,,,,,0,,,54,38
56640,note_on,120,0,2,,,,,,,,,,,,,,,0,,,63,0
56640,note_on,0,0,2,,,,,,,,,,,,,,,0,,,63,61
56640,note_on,60,0,1,,,,,,,,,,,,,,,0,,,75,0
56700,note_on,60,0,1,,,,,,,,,,,,,,,0,,,75,27
56720,note_on,80,0,3,,,,,,,,,,,,,,,0,,,54,0
56720,note_on,0,0,3,,,,,,,,,,,,,,,0,,,42,36
56760,note_on,60,0,1,,,,,,,,,,,,,,,0,,,75,0
56760,note_on,0,0,1,,,,,,,,,,,,,,,0,,,70,31
56800,note_on,0,0,3,,,,,,,,,,,,,,,0,,,47,38
56800,note_on,80,0,3,,,,,,,,,,,,,,,0,,,42,0
56820,note_on,0,0,1,,,,,,,,,,,,,,,0,,,73,27
56820,note_on,60,0,1,,,,,,,,,,,,,,,0,,,70,0
56872,set_tempo,3112,1,0,,,,,,,,,,,,638298,,,,,,,
56880,note_on,0,0,3,,,,,,,,,,,,,,,0,,,35,34
56880,note_on,80,0,3,,,,,,,,,,,,,,,0,,,47,0
56880,note_on,60,0,1,,,,,,,,,,,,,,,0,,,73,0
56880,note_on,0,0,1,,,,,,,,,,,,,,,0,,,71,31
56920,set_tempo,48,1,0,,,,,,,,,,,,645161,,,,,,,
56936,set_tempo,16,1,0,,,,,,,,,,,,652174,,,,,,,
56940,note_on,60,0,1,,,,,,,,,,,,,,,0,,,71,0
56940,note_on,0,0,1,,,,,,,,,,,,,,,0,,,66,30
56968,set_tempo,32,1,0,,,,,,,,,,,,659341,,,,,,,
57000,note_on,360,0,2,,,,,,,,,,,,,,,0,,,63,0
57000,note_on,0,0,2,,,,,,,,,,,,,,,0,,,63,41
57000,note_on,60,0,1,,,,,,,,,,,,,,,0,,,66,0
57008,set_tempo,40,1,0,,,,,,,,,,,,674157,,,,,,,
57032,set_tempo,24,1,0,,,,,,,,,,,,681818,,,,,,,
57048,set_tempo,16,1,0,,,,,,,,,,,,689655,,,,,,,
57056,set_tempo,8,1,0,,,,,,,,,,,,697674,,,,,,,
57060,note_on,60,0,1,,,,,,,,,,,,,,,0,,,75,34
57112,set_tempo,56,1,0,,,,,,,,,,,,705882,,,,,,,
57120,note_on,60,0,1,,,,,,,,,,,,,,,0,,,75,0
57120,note_on,240,0,3,,,,,,,,,,,,,,,0,,,35,0
57120,note_on,0,0,3,,,,,,,,,,,,,,,0,,,54,40
57120,note_on,0,0,2,,,,,,,,,,,,,,,0,,,66,63
57120,note_on,120,0,2,,,,,,,,,,,,,,,0,,,63,0
57120,set_tempo,8,1,0,,,,,,,,,,,,754717,,,,,,,
57180,note_on,60,0,1,,,,,,,,,,,,,,,0,,,78,37
57200,note_on,0,0,3,,,,,,,,,,,,,,,0,,,42,34
57200,note_on,80,0,3,,,,,,,,,,,,,,,0,,,54,0
57240,note_on,0,0,1,,,,,,,,,,,,,,,0,,,70,38
57240,note_on,60,0,1,,,,,,,,,,,,,,,0,,,78,0
57280,note_on,0,0,3,,,,,,,,,,,,,,,0,,,47,39
57280,note_on,80,0,3,,,,,,,,,,,,,,,0,,,42,0
57300,note_on,0,0,1,,,,,,,,,,,,,,,0,,,73,36
57300,note_on,60,0,1,,,,,,,,,,,,,,,0,,,70,0
57360,note_on,60,0,1,,,,,,,,,,,,,,,0,,,73,0
57360,note_on,0,0,1,,,,,,,,,,,,,,,0,,,71,36
57360,note_on,80,0,3,,,,,,,,,,,,,,,0,,,47,0
57360,note_on,0,0,3,,,,,,,,,,,,,,,0,,,35,36
57420,note_on,60,0,1,,,,,,,,,,,,,,,0,,,71,0
57420,note_on,0,0,1,,,,,,,,,,,,,,,0,,,66,34
57480,note_on,60,0,1,,,,,,,,,,,,,,,0,,,66,0
57480,note_on,0,0,2,,,,,,,,,,,,,,,0,,,63,37
57480,note_on,360,0,2,,,,,,,,,,,,,,,0,,,66,0
57528,control_change,168,0,3,,,,,,,,,,,,,,,0,64,0,,
57540,note_on,60,0,1,,,,,,,,,,,,,,,0,,,75,27
57600,note_on,120,0,2,,,,,,,,,,,,,,,0,,,63,0
57600,note_on,0,0,2,,,,,,,,,,,,,,,0,,,61,57
57600,note_on,72,0,3,,,,,,,,,,,,,,,0,,,35,0
57600,set_tempo,480,1,0,,,,,,,,,,,,634921,,,,,,,
57600,note_on,60,0,1,,,,,,,,,,,,,,,0,,,75,0
57600,note_on,0,0,3,,,,,,,,,,,,,,,0,,,58,39
57624,control_change,24,0,3,,,,,,,,,,,,,,,0,64,127,,
57660,note_on,60,0,1,,,,,,,,,,,,,,,0,,,73,20
57680,note_on,56,0,3,,,,,,,,,,,,,,,0,,,58,0
57680,note_on,0,0,3,,,,,,,,,,,,,,,0,,,49,34
57720,note_on,0,0,1,,,,,,,,,,,,,,,0,,,68,27
57720,note_on,60,0,1,,,,,,,,,,,,,,,0,,,73,0
57760,note_on,80,0,3,,,,,,,,,,,,,,,0,,,49,0
57760,note_on,0,0,3,,,,,,,,,,,,,,,0,,,54,38
57780,note_on,0,0,1,,,,,,,,,,,,,,,0,,,71,22
57780,note_on,60,0,1,,,,,,,,,,,,,,,0,,,68,0
57840,note_on,0,0,1,,,,,,,,,,,,,,,0,,,70,27
57840,note_on,0,0,3,,,,,,,,,,,,,,,0,,,42,34
57840,note_on,80,0,3,,,,,,,,,,,,,,,0,,,54,0
57840,note_on,60,0,1,,,,,,,,,,,,,,,0,,,71,0
57900,note_on,0,0,1,,,,,,,,,,,,,,,0,,,66,23
57900,note_on,60,0,1,,,,,,,,,,,,,,,0,,,70,0
57960,note_on,360,0,2,,,,,,,,,,,,,,,0,,,61,0
57960,note_on,60,0,1,,,,,,,,,,,,,,,0,,,66,0
57960,note_on,0,0,2,,,,,,,,,,,,,,,0,,,61,37
58020,note_on,60,0,1,,,,,,,,,,,,,,,0,,,73,27
58080,note_on,240,0,3,,,,,,,,,,,,,,,0,,,42,0
58080,note_on,60,0,1,,,,,,,,,,,,,,,0,,,73,0
58080,note_on,0,0,2,,,,,,,,,,,,,,,0,,,61,56
58080,note_on,120,0,2,,,,,,,,,,,,,,,0,,,61,0
58080,note_on,0,0,3,,,,,,,,,,,,,,,0,,,58,39
58140,note_on,60,0,1,,,,,,,,,,,,,,,0,,,73,23
58160,note_on,80,0,3,,,,,,,,,,,,,,,0,,,58,0
58160,note_on,0,0,3,,,,,,,,,,,,,,,0,,,49,31
58200,note_on,60,0,1,,,,,,,,,,,,,,,0,,,73,0
58200,note_on,0,0,1,,,,,,,,,,,,,,,0,,,68,28
58240,note_on,0,0,3,,,,,,,,,,,,,,,0,,,54,37
58240,note_on,80,0,3,,,,,,,,,,,,,,,0,,,49,0
58260,note_on,60,0,1,,,,,,,,,,,,,,,0,,,68,0
58260,note_on,0,0,1,,,,,,,,,,,,,,,0,,,71,23
58320,note_on,60,0,1,,,,,,,,,,,,,,,0,,,71,0
58320,note_on,0,0,3,,,,,,,,,,,,,,,0,,,42,31
58320,note_on,80,0,3,,,,,,,,,,,,,,,0,,,54,0
58320,note_on,0,0,1,,,,,,,,,,,,,,,0,,,70,28
58380,note_on,0,0,1,,,,,,,,,,,,,,,0,,,66,22
58380,note_on,60,0,1,,,,,,,,,,,,,,,0,,,70,0
58440,note_on,0,0,2,,,,,,,,,,,,,,,0,,,61,37
58440,note_on,360,0,2,,,,,,,,,,,,,,,0,,,61,0
58440,note_on,60,0,1,,,,,,,,,,,,,,,0,,,66,0
58500,note_on,60,0,1,,,,,,,,,,,,,,,0,,,73,29
58560,note_on,120,0,2,,,,,,,,,,,,,,,0,,,61,0
58560,note_on,60,0,1,,,,,,,,,,,,,,,0,,,73,0
58560,note_on,0,0,2,,,,,,,,,,,,,,,0,,,61,57
58560,note_on,240,0,3,,,,,,,,,,,,,,,0,,,42,0
58560,note_on,0,0,3,,,,,,,,,,,,,,,0,,,58,39
58620,note_on,60,0,1,,,,,,,,,,,,,,,0,,,73,25
58640,note_on,80,0,3,,,,,,,,,,,,,,,0,,,58,0
58640,note_on,0,0,3,,,,,,,,,,,,,,,0,,,49,34
58680,note_on,60,0,1,,,,,,,,,,,,,,,0,,,73,0
58680,note_on,0,0,1,,,,,,,,,,,,,,,0,,,68,29
58720,note_on,80,0,3,,,,,,,,,,,,,,,0,,,49,0
58720,note_on,0,0,3,,,,,,,,,,,,,,,0,,,54,39
58740,note_on,60,0,1,,,,,,,,,,,,,,,0,,,68,0
58740,note_on,0,0,1,,,,,,,,,,,,,,,0,,,71,23
58800,note_on,60,0,1,,,,,,,,,,,,,,,0,,,71,0
58800,note_on,0,0,1,,,,,,,,,,,,,,,0,,,70,29
58800,note_on,80,0,3,,,,,,,,,,,,,,,0,,,54,0
58800,note_on,0,0,3,,,,,,,,,,,,,,,0,,,42,35
58860,note_on,0,0,1,,,,,,,,,,,,,,,0,,,66,23
58860,note_on,60,0,1,,,,,,,,,,,,,,,0,,,70,0
58920,note_on,360,0,2,,,,,,,,,,,,,,,0,,,61,0
58920,note_on,60,0,1,,,,,,,,,,,,,,,0,,,66,0
58920,note_on,0,0,2,,,,,,,,,,,,,,,0,,,61,41
58980,note_on,60,0,1,,,,,,,,,,,,,,,0,,,73,29
59040,note_on,60,0,1,,,,,,,,,,,,,,,0,,,73,0
59040,note_on,240,0,3,,,,,,,,,,,,,,,0,,,42,0
59040,note_on,0,0,3,,,,,,,,,,,,,,,0,,,58,39
59040,note_on,0,0,2,,,,,,,,,,,,,,,0,,,61,61
59040,note_on,120,0,2,,,,,,,,,,,,,,,0,,,61,0
59100,note_on,60,0,1,,,,,,,,,,,,,,,0,,,73,23
59120,note_on,80,0,3,,,,,,,,,,,,,,,0,,,58,0
59120,note_on,0,0,3,,,,,,,,,,,,,,,0,,,49,34
59160,note_on,60,0,1,,,,,,,,,,,,,,,0,,,73,0
59160,note_on,0,0,1,,,,,,,,,,,,,,,0,,,68,30
59200,note_on,80,0,3,,,,,,,,,,,,,,,0,,,49,0
59200,note_on,0,0,3,,,,,,,,,,,,,,,0,,,54,38
59220,note_on,0,0,1,,,,,,,,,,,,,,,0,,,71,23
59220,note_on,60,0,1,,,,,,,,,,,,,,,0,,,68,0
59280,note_on,60,0,1,,,,,,,,,,,,,,,0,,,71,0
59280,note_on,80,0,3,,,,,,,,,,,,,,,0,,,54,0
59280,note_on,0,0,3,,,,,,,,,,,,,,,0,,,42,34
59280,note_on,0,0,1,,,,,,,,,,,,,,,0,,,70,30
59340,note_on,60,0,1,,,,,,,,,,,,,,,0,,,70,0
59340,note_on,0,0,1,,,,,,,,,,,,,,,0,,,66,23
59400,note_on,60,0,1,,,,,,,,,,,,,,,0,,,66,0
59400,note_on,360,0,2,,,,,,,,,,,,,,,0,,,61,0
59400,note_on,0,0,2,,,,,,,,,,,,,,,0,,,61,38
59460,note_on,60,0,1,,,,,,,,,,,,,,,0,,,73,29
59484,control_change,204,0,3,,,,,,,,,,,,,,,0,64,0,,
59520,note_on,60,0,1,,,,,,,,,,,,,,,0,,,73,0
59520,note_on,36,0,3,,,,,,,,,,,,,,,0,,,42,0
59520,note_on,0,0,3,,,,,,,,,,,,,,,0,,,57,39
59520,note_on,120,0,2,,,,,,,,,,,,,,,0,,,61,0
59520,note_on,0,0,2,,,,,,,,,,,,,,,0,,,61,58
59528,set_tempo,1928,1,0,,,,,,,,,,,,638298,,,,,,,
59544,control_change,24,0,3,,,,,,,,,,,,,,,0,64,127,,
59580,note_on,60,0,1,,,,,,,,,,,,,,,0,,,73,23
59600,note_on,56,0,3,,,,,,,,,,,,,,,0,,,57,0
59600,note_on,0,0,3,,,,,,,,,,,,,,,0,,,49,33
59640,note_on,60,0,1,,,,,,,,,,,,,,,0,,,73,0
59640,note_on,0,0,1,,,,,,,,,,,,,,,0,,,68,29
59680,note_on,80,0,3,,,,,,,,,,,,,,,0,,,49,0
59680,note_on,0,0,3,,,,,,,,,,,,,,,0,,,54,37
59700,note_on,60,0,1,,,,,,,,,,,,,,,0,,,68,0
59700,note_on,0,0,1,,,,,,,,,,,,,,,0,,,71,23
59760,note_on,60,0,1,,,,,,,,,,,,,,,0,,,71,0
59760,note_on,0,0,1,,,,,,,,,,,,,,,0,,,69,29
59760,note_on,0,0,3,,,,,,,,,,,,,,,0,,,42,35
59760,note_on,80,0,3,,,,,,,,,,,,,,,0,,,54,0
59820,note_on,60,0,1,,,,,,,,,,,,,,,0,,,69,0
59820,note_on,0,0,1,,,,,,,,,,,,,,,0,,,66,25
59880,note_on,0,0,2,,,,,,,,,,,,,,,0,,,61,38
59880,note_on,60,0,1,,,,,,,,,,,,,,,0,,,66,0
59880,note_on,360,0,2,,,,,,,,,,,,,,,0,,,61,0
59940,note_on,60,0,1,,,,,,,,,,,,,,,0,,,73,29
60000,note_on,0,0,2,,,,,,,,,,,,,,,0,,,61,55
60000,note_on,0,0,3,,,,,,,,,,,,,,,0,,,57,39
60000,note_on,240,0,3,,,,,,,,,,,,,,,0,,,42,0
60000,note_on,60,0,1,,,,,,,,,,,,,,,0,,,73,0
60000,note_on,120,0,2,,,,,,,,,,,,,,,0,,,61,0
60024,set_tempo,496,1,0,,,,,,,,,,,,645161,,,,,,,
60060,note_on,60,0,1,,,,,,,,,,,,,,,0,,,73,22
60064,set_tempo,40,1,0,,,,,,,,,,,,652174,,,,,,,
60080,note_on,0,0,3,,,,,,,,,,,,,,,0,,,49,35
60080,note_on,80,0,3,,,,,,,,,,,,,,,0,,,57,0
60096,set_tempo,32,1,0,,,,,,,,,,,,659341,,,,,,,
60120,note_on,60,0,1,,,,,,,,,,,,,,,0,,,73,0
60120,note_on,0,0,1,,,,,,,,,,,,,,,0,,,68,29
60160,note_on,80,0,3,,,,,,,,,,,,,,,0,,,49,0
60160,note_on,0,0,3,,,,,,,,,,,,,,,0,,,54,39
60180,note_on,60,0,1,,,,,,,,,,,,,,,0,,,68,0
60180,note_on,0,0,1,,,,,,,,,,,,,,,0,,,71,23
60240,note_on,0,0,1,,,,,,,,,,,,,,,0,,,69,28
60240,note_on,60,0,1,,,,,,,,,,,,,,,0,,,71,0
60240,note_on,80,0,3,,,,,,,,,,,,,,,0,,,54,0
60240,note_on,0,0,3,,,,,,,,,,,,,,,0,,,42,36
60300,note_on,0,0,1,,,,,,,,,,,,,,,0,,,66,23
60300,note_on,60,0,1,,,,,,,,,,,,,,,0,,,69,0
60360,note_on,60,0,1,,,,,,,,,,,,,,,0,,,66,0
60360,note_on,0,0,2,,,,,,,,,,,,,,,0,,,61,34
60360,note_on,360,0,2,,,,,,,,,,,,,,,0,,,61,0
60420,note_on,60,0,1,,,,,,,,,,,,,,,0,,,73,28
60480,note_on,0,0,3,,,,,,,,,,,,,,,0,,,57,37
60480,note_on,240,0,3,,,,,,,,,,,,,,,0,,,42,0
60480,note_on,0,0,2,,,,,,,,,,,,,,,0,,,61,49
60480,note_on,60,0,1,,,,,,,,,,,,,,,0,,,73,0
60480,note_on,120,0,2,,,,,,,,,,,,,,,0,,,61,0
60540,note_on,60,0,1,,,,,,,,,,,,,,,0,,,73,22
60560,note_on,0,0,3,,,,,,,,,,,,,,,0,,,49,34
60560,note_on,80,0,3,,,,,,,,,,,,,,,0,,,57,0
60600,note_on,60,0,1,,,,,,,,,,,,,,,0,,,73,0
60600,note_on,0,0,1,,,,,,,,,,,,,,,0,,,68,28
60640,note_on,0,0,3,,,,,,,,,,,,,,,0,,,54,37
60640,note_on,80,0,3,,,,,,,,,,,,,,,0,,,49,0
60660,note_on,60,0,1,,,,,,,,,,,,,,,0,,,68,0
60660,note_on,0,0,1,,,,,,,,,,,,,,,0,,,71,23
60720,note_on,60,0,1,,,,,,,,,,,,,,,0,,,71,0
60720,note_on,0,0,1,,,,,,,,,,,,,,,0,,,69,27
60720,note_on,80,0,3,,,,,,,,,,,,,,,0,,,54,0
60720,note_on,0,0,3,,,,,,,,,,,,,,,0,,,42,33
60760,set_tempo,664,1,0,,,,,,,,,,,,666667,,,,,,,
60780,note_on,60,0,1,,,,,,,,,,,,,,,0,,,69,0
60780,note_on,0,0,1,,,,,,,,,,,,,,,0,,,66,22
60824,set_tempo,64,1,0,,,,,,,,,,,,674157,,,,,,,
60840,note_on,360,0,2,,,,,,,,,,,,,,,0,,,61,0
60840,note_on,0,0,2,,,,,,,,,,,,,,,0,,,61,34
60840,note_on,60,0,1,,,,,,,,,,,,,,,0,,,66,0
60840,set_tempo,16,1,0,,,,,,,,,,,,681818,,,,,,,
60848,set_tempo,8,1,0,,,,,,,,,,,,689655,,,,,,,
60872,set_tempo,24,1,0,,,,,,,,,,,,697674,,,,,,,
60900,note_on,60,0,1,,,,,,,,,,,,,,,0,,,73,27
60912,set_tempo,40,1,0,,,,,,,,,,,,705882,,,,,,,
60960,note_on,240,0,3,,,,,,,,,,,,,,,0,,,42,0
60960,note_on,60,0,1,,,,,,,,,,,,,,,0,,,73,0
60960,note_on,120,0,2,,,,,,,,,,,,,,,0,,,61,0
60960,note_on,0,0,3,,,,,,,,,,,,,,,0,,,57,35
60960,note_on,0,0,2,,,,,,,,,,,,,,,0,,,61,44
60968,set_tempo,56,1,0,,,,,,,,,,,,714286,,,,,,,
61020,note_on,60,0,1,,,,,,,,,,,,,,,0,,,73,22
61040,note_on,80,0,3,,,,,,,,,,,,,,,0,,,57,0
61040,note_on,0,0,3,,,,,,,,,,,,,,,0,,,49,30
61080,note_on,60,0,1,,,,,,,,,,,,,,,0,,,73,0
61080,note_on,0,0,1,,,,,,,,,,,,,,,0,,,68,27
61120,note_on,80,0,3,,,,,,,,,,,,,,,0,,,49,0
61120,note_on,0,0,3,,,,,,,,,,,,,,,0,,,54,34
61140,note_on,60,0,1,,,,,,,,,,,,,,,0,,,68,0
61140,note_on,0,0,1,,,,,,,,,,,,,,,0,,,71,22
61184,set_tempo,216,1,0,,,,,,,,,,,,722892,,,,,,,
61200,note_on,80,0,3,,,,,,,,,,,,,,,0,,,54,0
61200,note_on,0,0,3,,,,,,,,,,,,,,,0,,,42,31
61200,note_on,60,0,1,,,,,,,,,,,,,,,0,,,71,0
61200,note_on,0,0,1,,,,,,,,,,,,,,,0,,,69,27
61260,note_on,60,0,1,,,,,,,,,,,,,,,0,,,69,0
61260,note_on,0,0,1,,,,,,,,,,,,,,,0,,,66,23
61320,note_on,60,0,1,,,,,,,,,,,,,,,0,,,66,0
61320,note_on,360,0,2,,,,,,,,,,,,,,,0,,,61,0
61320,note_on,0,0,2,,,,,,,,,,,,,,,0,,,61,36
61380,note_on,60,0,1,,,,,,,,,,,,,,,0,,,73,27
61392,control_change,192,0,3,,,,,,,,,,,,,,,0,64,0,,
61432,set_tempo,248,1,0,,,,,,,,,,,,731707,,,,,,,
61440,note_on,48,0,3,,,,,,,,,,,,,,,0,,,42,0
61440,note_on,120,0,2,,,,,,,,,,,,,,,0,,,61,0
61440,note_on,60,0,1,,,,,,,,,,,,,,,0,,,73,0
61440,note_on,0,0,2,,,,,,,,,,,,,,,0,,,73,55
61440,note_on,0,0,2,,,,,,,,,,,,,,,0,,,64,55
61440,end_of_track,0,1,1,,,,,,,,,,,,,,,,,,,
61440,note_on,0,0,3,,,,,,,,,,,,,,,0,,,45,55
61440,note_on,0,0,2,,,,,,,,,,,,,,,0,,,61,55
61440,note_on,0,0,3,,,,,,,,,,,,,,,0,,,52,55
61440,note_on,0,0,3,,,,,,,,,,,,,,,0,,,57,55
62400,note_on,960,0,3,,,,,,,,,,,,,,,0,,,57,0
62400,note_on,0,0,3,,,,,,,,,,,,,,,0,,,52,0
62400,note_on,0,0,3,,,,,,,,,,,,,,,0,,,47,48
62400,note_on,0,0,3,,,,,,,,,,,,,,,0,,,45,0
62400,note_on,0,0,3,,,,,,,,,,,,,,,0,,,55,48
62400,set_tempo,968,1,0,,,,,,,,,,,,740741,,,,,,,
62400,note_on,0,0,2,,,,,,,,,,,,,,,0,,,71,51
62400,note_on,0,0,2,,,,,,,,,,,,,,,0,,,67,51
62400,note_on,0,0,2,,,,,,,,,,,,,,,0,,,62,51
62400,note_on,0,0,2,,,,,,,,,,,,,,,0,,,73,0
62400,note_on,0,0,2,,,,,,,,,,,,,,,0,,,64,0
62400,note_on,960,0,2,,,,,,,,,,,,,,,0,,,61,0
62480,set_tempo,80,1,0,,,,,,,,,,,,750000,,,,,,,
62512,set_tempo,32,1,0,,,,,,,,,,,,759494,,,,,,,
62552,set_tempo,40,1,0,,,,,,,,,,,,779221,,,,,,,
62584,set_tempo,32,1,0,,,,,,,,,,,,800000,,,,,,,
62600,set_tempo,16,1,0,,,,,,,,,,,,810811,,,,,,,
62648,set_tempo,48,1,0,,,,,,,,,,,,833333,,,,,,,
62688,set_tempo,40,1,0,,,,,,,,,,,,869565,,,,,,,
62720,set_tempo,32,1,0,,,,,,,,,,,,895522,,,,,,,
62736,set_tempo,16,1,0,,,,,,,,,,,,909091,,,,,,,
62752,set_tempo,16,1,0,,,,,,,,,,,,923077,,,,,,,
62776,set_tempo,24,1,0,,,,,,,,,,,,937500,,,,,,,
62792,set_tempo,16,1,0,,,,,,,,,,,,952381,,,,,,,
62808,set_tempo,16,1,0,,,,,,,,,,,,967742,,,,,,,
62832,set_tempo,24,1,0,,,,,,,,,,,,1000000,,,,,,,
62848,set_tempo,16,1,0,,,,,,,,,,,,1016949,,,,,,,
62880,note_on,480,0,2,,,,,,,,,,,,,,,0,,,71,0
62880,note_on,0,0,2,,,,,,,,,,,,,,,0,,,59,47
62880,note_on,0,0,2,,,,,,,,,,,,,,,0,,,61,47
62880,note_on,0,0,3,,,,,,,,,,,,,,,0,,,56,42
62880,note_on,0,0,3,,,,,,,,,,,,,,,0,,,49,42
62880,note_on,0,0,3,,,,,,,,,,,,,,,0,,,47,0
62880,note_on,0,0,2,,,,,,,,,,,,,,,0,,,67,0
62880,note_on,0,0,2,,,,,,,,,,,,,,,0,,,65,47
62880,note_on,0,0,2,,,,,,,,,,,,,,,0,,,62,0
62880,set_tempo,32,1,0,,,,,,,,,,,,1263158,,,,,,,
62880,note_on,480,0,3,,,,,,,,,,,,,,,0,,,55,0
63360,note_on,480,0,2,,,,,,,,,,,,,,,0,,,65,0
63360,note_on,0,0,2,,,,,,,,,,,,,,,0,,,61,0
63360,note_on,0,0,2,,,,,,,,,,,,,,,0,,,65,44
63360,note_on,0,0,2,,,,,,,,,,,,,,,0,,,59,0
63360,control_change,0,0,3,,,,,,,,,,,,,,,0,64,127,,
63360,note_on,0,0,3,,,,,,,,,,,,,,,0,,,49,0
63360,note_on,480,0,3,,,,,,,,,,,,,,,0,,,56,0
63360,set_tempo,480,1,0,,,,,,,,,,,,1445783,,,,,,,
63480,note_on,120,0,2,,,,,,,,,,,,,,,0,,,65,0
63480,note_on,120,0,3,,,,,,,,,,,,,,,0,,,42,37
63600,note_on,120,0,3,,,,,,,,,,,,,,,0,,,49,37
63600,set_tempo,240,1,0,,,,,,,,,,,,1224490,,,,,,,
63720,note_on,120,0,3,,,,,,,,,,,,,,,0,,,57,37
63840,note_on,360,0,2,,,,,,,,,,,,,,,0,,,61,30
63840,end_of_track,0,1,0,,,,,,,,,,,,,,,,,,,
63840,set_tempo,240,1,0,,,,,,,,,,,,1395349,,,,,,,
63960,note_on,120,0,2,,,,,,,,,,,,,,,0,,,66,26
65194,control_change,1474,0,3,,,,,,,,,,,,,,,0,64,0,,
65280,note_on,1320,0,2,,,,,,,,,,,,,,,0,,,66,0
65280,end_of_track,0,1,2,,,,,,,,,,,,,,,,,,,
65280,note_on,0,0,3,,,,,,,,,,,,,,,0,,,42,0
65280,note_on,0,0,3,,,,,,,,,,,,,,,0,,,49,0
65280,note_on,86,0,3,,,,,,,,,,,,,,,0,,,57,0
65280,end_of_track,0,1,3,,,,,,,,,,,,,,,,,,,
65280,note_on,0,0,2,,,,,,,,,,,,,,,0,,,61,0
