tick,type,time,meta,track,frame_rate,hours,minutes,seconds,frames,sub_frames,numerator,denominator,clocks_per_click,notated_32nd_notes_per_beat,key,tempo,port,program,channel,control,value,note,velocity
0,track_name,0,1,0,,,,,,,,,,,,,,,,,,,
0,midi_port,0,1,10,,,,,,,,,,,,,0,,,,,,
0,note_on,0,0,2,,,,,,,,,,,,,,,0,,,46,34
0,note_on,0,0,2,,,,,,,,,,,,,,,0,,,41,28
0,note_on,0,0,2,,,,,,,,,,,,,,,0,,,34,28
0,control_change,0,0,2,,,,,,,,,,,,,,,0,7,100,,
0,program_change,0,0,2,,,,,,,,,,,,,,0,0,,,,
0,track_name,0,1,2,,,,,,,,,,,,,,,,,,,
0,midi_port,0,1,2,,,,,,,,,,,,,0,,,,,,
0,text,0,1,1,,,,,,,,,,,,,,,,,,,
0,note_on,0,0,1,,,,,,,,,,,,,,,0,,,58,40
0,note_on,0,0,1,,,,,,,,,,,,,,,0,,,53,34
0,control_change,0,0,1,,,,,,,,,,,,,,,0,91,127,,
0,control_change,0,0,1,,,,,,,,,,,,,,,0,64,0,,
0,control_change,0,0,1,,,,,,,,,,,,,,,0,7,100,,
0,program_change,0,0,1,,,,,,,,,,,,,,0,0,,,,
0,midi_port,0,1,3,,,,,,,,,,,,,0,,,,,,
0,track_name,0,1,1,,,,,,,,,,,,,,,,,,,
0,track_name,0,1,3,,,,,,,,,,,,,,,,,,,
0,midi_port,0,1,4,,,,,,,,,,,,,0,,,,,,
0,end_of_track,0,1,9,,,,,,,,,,,,,,,,,,,
0,midi_port,0,1,9,,,,,,,,,,,,,0,,,,,,
0,end_of_track,0,1,8,,,,,,,,,,,,,,,,,,,
0,midi_port,0,1,8,,,,,,,,,,,,,0,,,,,,
0,end_of_track,0,1,7,,,,,,,,,,,,,,,,,,,
0,track_name,0,1,7,,,,,,,,,,,,,,,,,,,
0,midi_port,0,1,7,,,,,,,,,,,,,0,,,,,,
0,end_of_track,0,1,6,,,,,,,,,,,,,,,,,,,
0,track_name,0,1,6,,,,,,,,,,,,,,,,,,,
0,midi_port,0,1,6,,,,,,,,,,,,,0,,,,,,
0,end_of_track,0,1,5,,,,,,,,,,,,,,,,,,,
0,track_name,0,1,5,,,,,,,,,,,,,,,,,,,
0,midi_port,0,1,5,,,,,,,,,,,,,0,,,,,,
0,end_of_track,0,1,4,,,,,,,,,,,,,,,,,,,
0,track_name,0,1,4,,,,,,,,,,,,,,,,,,,
0,end_of_track,0,1,3,,,,,,,,,,,,,,,,,,,
0,midi_port,0,1,1,,,,,,,,,,,,,0,,,,,,
0,end_of_track,0,1,10,,,,,,,,,,,,,,,,,,,
0,time_signature,0,1,0,,,,,,,4,4,24,8,,,,,,,,,
0,track_name,0,1,0,,,,,,,,,,,,,,,,,,,
0,copyright,0,1,0,,,,,,,,,,,,,,,,,,,
0,text,0,1,0,,,,,,,,,,,,,,,,,,,
0,text,0,1,0,,,,,,,,,,,,,,,,,,,
0,text,0,1,0,,,,,,,,,,,,,,,,,,,
0,text,0,1,0,,,,,,,,,,,,,,,,,,,
0,text,0,1,0,,,,,,,,,,,,,,,,,,,
0,smpte_offset,0,1,0,25,32,0,3,0,0,,,,,,,,,,,,,
0,set_tempo,0,1,0,,,,,,,,,,,,1044386,,,,,,,
0,key_signature,0,1,0,,,,,,,,,,,Db,,,,,,,,
35,control_change,35,0,2,,,,,,,,,,,,,,,0,64,127,,
480,note_on,0,0,2,,,,,,,,,,,,,,,0,,,49,30
480,note_on,0,0,2,,,,,,,,,,,,,,,0,,,42,25
480,note_on,0,0,2,,,,,,,,,,,,,,,0,,,37,25
480,note_on,0,0,2,,,,,,,,,,,,,,,0,,,34,0
480,note_on,0,0,2,,,,,,,,,,,,,,,0,,,41,0
480,note_on,445,0,2,,,,,,,,,,,,,,,0,,,46,0
480,note_on,480,0,1,,,,,,,,,,,,,,,0,,,58,0
480,note_on,0,0,1,,,,,,,,,,,,,,,0,,,53,0
480,note_on,0,0,1,,,,,,,,,,,,,,,0,,,58,40
480,note_on,0,0,1,,,,,,,,,,,,,,,0,,,54,34
480,set_tempo,480,1,0,,,,,,,,,,,,1083032,,,,,,,
508,control_change,28,0,2,,,,,,,,,,,,,,,0,64,0,,
628,control_change,120,0,2,,,,,,,,,,,,,,,0,64,127,,
840,note_on,0,0,1,,,,,,,,,,,,,,,0,,,58,36
840,note_on,360,0,1,,,,,,,,,,,,,,,0,,,58,0
960,note_on,0,0,2,,,,,,,,,,,,,,,0,,,46,34
960,note_on,0,0,2,,,,,,,,,,,,,,,0,,,41,28
960,note_on,0,0,2,,,,,,,,,,,,,,,0,,,34,28
960,note_on,0,0,2,,,,,,,,,,,,,,,0,,,37,0
960,note_on,0,0,2,,,,,,,,,,,,,,,0,,,42,0
960,note_on,332,0,2,,,,,,,,,,,,,,,0,,,49,0
960,note_on,0,0,1,,,,,,,,,,,,,,,0,,,53,34
960,set_tempo,480,1,0,,,,,,,,,,,,1075076,,,,,,,
960,note_on,120,0,1,,,,,,,,,,,,,,,0,,,58,0
960,note_on,0,0,1,,,,,,,,,,,,,,,0,,,54,0
960,note_on,0,0,1,,,,,,,,,,,,,,,0,,,58,40
1002,control_change,42,0,2,,,,,,,,,,,,,,,0,64,0,,
1129,control_change,127,0,2,,,,,,,,,,,,,,,0,64,127,,
1440,note_on,0,0,1,,,,,,,,,,,,,,,0,,,54,28
1440,note_on,480,0,1,,,,,,,,,,,,,,,0,,,53,0
1440,note_on,0,0,2,,,,,,,,,,,,,,,0,,,41,0
1440,note_on,311,0,2,,,,,,,,,,,,,,,0,,,46,0
1440,note_on,0,0,2,,,,,,,,,,,,,,,0,,,34,0
1440,note_on,0,0,2,,,,,,,,,,,,,,,0,,,42,23
1440,note_on,0,0,2,,,,,,,,,,,,,,,0,,,49,28
1440,set_tempo,480,1,0,,,,,,,,,,,,1083032,,,,,,,
1440,note_on,0,0,2,,,,,,,,,,,,,,,0,,,37,23
1496,control_change,56,0,2,,,,,,,,,,,,,,,0,64,0,,
1609,control_change,113,0,2,,,,,,,,,,,,,,,0,64,127,,
1920,set_tempo,480,1,0,,,,,,,,,,,,1044386,,,,,,,
1920,note_on,480,0,1,,,,,,,,,,,,,,,0,,,54,0
1920,note_on,0,0,1,,,,,,,,,,,,,,,0,,,58,0
1920,note_on,0,0,1,,,,,,,,,,,,,,,0,,,53,34
1920,note_on,0,0,1,,,,,,,,,,,,,,,0,,,58,40
1920,note_on,0,0,2,,,,,,,,,,,,,,,0,,,34,28
1920,note_on,311,0,2,,,,,,,,,,,,,,,0,,,49,0
1920,note_on,0,0,2,,,,,,,,,,,,,,,0,,,42,0
1920,note_on,0,0,2,,,,,,,,,,,,,,,0,,,37,0
1920,note_on,0,0,2,,,,,,,,,,,,,,,0,,,41,28
1920,note_on,0,0,2,,,,,,,,,,,,,,,0,,,46,34
1920,control_change,0,0,2,,,,,,,,,,,,,,,0,64,0,,
2047,control_change,127,0,2,,,,,,,,,,,,,,,0,64,127,,
2400,note_on,0,0,2,,,,,,,,,,,,,,,0,,,41,0
2400,set_tempo,480,1,0,,,,,,,,,,,,1091107,,,,,,,
2400,note_on,353,0,2,,,,,,,,,,,,,,,0,,,46,0
2400,note_on,0,0,1,,,,,,,,,,,,,,,0,,,53,0
2400,note_on,0,0,1,,,,,,,,,,,,,,,0,,,54,34
2400,note_on,0,0,1,,,,,,,,,,,,,,,0,,,58,40
2400,note_on,480,0,1,,,,,,,,,,,,,,,0,,,58,0
2400,note_on,0,0,2,,,,,,,,,,,,,,,0,,,34,0
2400,note_on,0,0,2,,,,,,,,,,,,,,,0,,,37,25
2400,note_on,0,0,2,,,,,,,,,,,,,,,0,,,42,25
2400,note_on,0,0,2,,,,,,,,,,,,,,,0,,,49,30
2435,control_change,35,0,2,,,,,,,,,,,,,,,0,64,0,,
2612,control_change,177,0,2,,,,,,,,,,,,,,,0,64,127,,
2760,note_on,0,0,1,,,,,,,,,,,,,,,0,,,58,36
2760,note_on,360,0,1,,,,,,,,,,,,,,,0,,,58,0
2880,set_tempo,480,1,0,,,,,,,,,,,,1075076,,,,,,,
2880,note_on,0,0,2,,,,,,,,,,,,,,,0,,,46,34
2880,note_on,0,0,2,,,,,,,,,,,,,,,0,,,41,28
2880,note_on,0,0,2,,,,,,,,,,,,,,,0,,,37,0
2880,note_on,0,0,2,,,,,,,,,,,,,,,0,,,42,0
2880,note_on,268,0,2,,,,,,,,,,,,,,,0,,,49,0
2880,note_on,0,0,1,,,,,,,,,,,,,,,0,,,58,40
2880,note_on,0,0,1,,,,,,,,,,,,,,,0,,,53,34
2880,note_on,0,0,1,,,,,,,,,,,,,,,0,,,54,0
2880,note_on,0,0,2,,,,,,,,,,,,,,,0,,,34,28
2880,note_on,120,0,1,,,,,,,,,,,,,,,0,,,58,0
2901,control_change,21,0,2,,,,,,,,,,,,,,,0,64,0,,
3071,control_change,170,0,2,,,,,,,,,,,,,,,0,64,127,,
3360,note_on,0,0,2,,,,,,,,,,,,,,,0,,,41,0
3360,note_on,0,0,2,,,,,,,,,,,,,,,0,,,34,0
3360,note_on,0,0,2,,,,,,,,,,,,,,,0,,,37,22
3360,note_on,0,0,2,,,,,,,,,,,,,,,0,,,42,22
3360,note_on,289,0,2,,,,,,,,,,,,,,,0,,,46,0
3360,note_on,0,0,2,,,,,,,,,,,,,,,0,,,49,27
3360,note_on,0,0,1,,,,,,,,,,,,,,,0,,,54,28
3360,note_on,480,0,1,,,,,,,,,,,,,,,0,,,53,0
3360,set_tempo,480,1,0,,,,,,,,,,,,1075076,,,,,,,
3409,control_change,49,0,2,,,,,,,,,,,,,,,0,64,0,,
3558,control_change,149,0,2,,,,,,,,,,,,,,,0,64,127,,
3840,note_on,0,0,2,,,,,,,,,,,,,,,0,,,37,0
3840,note_on,0,0,2,,,,,,,,,,,,,,,0,,,46,34
3840,note_on,282,0,2,,,,,,,,,,,,,,,0,,,49,0
3840,control_change,0,0,2,,,,,,,,,,,,,,,0,64,0,,
3840,note_on,0,0,2,,,,,,,,,,,,,,,0,,,34,28
3840,note_on,0,0,2,,,,,,,,,,,,,,,0,,,42,0
3840,note_on,0,0,2,,,,,,,,,,,,,,,0,,,41,28
3840,set_tempo,480,1,0,,,,,,,,,,,,1044386,,,,,,,
3840,note_on,0,0,1,,,,,,,,,,,,,,,0,,,58,40
3840,note_on,0,0,1,,,,,,,,,,,,,,,0,,,53,34
3840,note_on,0,0,1,,,,,,,,,,,,,,,0,,,58,0
3840,note_on,480,0,1,,,,,,,,,,,,,,,0,,,54,0
3960,control_change,120,0,2,,,,,,,,,,,,,,,0,64,127,,
4320,note_on,0,0,1,,,,,,,,,,,,,,,0,,,54,34
4320,note_on,0,0,1,,,,,,,,,,,,,,,0,,,58,40
4320,set_tempo,480,1,0,,,,,,,,,,,,1075076,,,,,,,
4320,note_on,0,0,1,,,,,,,,,,,,,,,0,,,53,0
4320,note_on,360,0,2,,,,,,,,,,,,,,,0,,,46,0
4320,note_on,0,0,2,,,,,,,,,,,,,,,0,,,41,0
4320,note_on,0,0,2,,,,,,,,,,,,,,,0,,,34,0
4320,note_on,0,0,2,,,,,,,,,,,,,,,0,,,37,25
4320,note_on,0,0,2,,,,,,,,,,,,,,,0,,,42,30
4320,note_on,0,0,2,,,,,,,,,,,,,,,0,,,49,30
4320,note_on,480,0,1,,,,,,,,,,,,,,,0,,,58,0
4355,control_change,35,0,2,,,,,,,,,,,,,,,0,64,0,,
4504,control_change,149,0,2,,,,,,,,,,,,,,,0,64,127,,
4680,note_on,0,0,1,,,,,,,,,,,,,,,0,,,58,36
4680,note_on,360,0,1,,,,,,,,,,,,,,,0,,,58,0
4800,note_on,296,0,2,,,,,,,,,,,,,,,0,,,49,0
4800,note_on,0,0,1,,,,,,,,,,,,,,,0,,,58,40
4800,note_on,0,0,2,,,,,,,,,,,,,,,0,,,34,28
4800,note_on,120,0,1,,,,,,,,,,,,,,,0,,,58,0
4800,note_on,0,0,1,,,,,,,,,,,,,,,0,,,54,0
4800,note_on,0,0,1,,,,,,,,,,,,,,,0,,,53,34
4800,set_tempo,480,1,0,,,,,,,,,,,,1067236,,,,,,,
4800,note_on,0,0,2,,,,,,,,,,,,,,,0,,,41,28
4800,note_on,0,0,2,,,,,,,,,,,,,,,0,,,46,34
4800,note_on,0,0,2,,,,,,,,,,,,,,,0,,,42,0
4800,note_on,0,0,2,,,,,,,,,,,,,,,0,,,37,0
4878,control_change,78,0,2,,,,,,,,,,,,,,,0,64,0,,
5026,control_change,148,0,2,,,,,,,,,,,,,,,0,64,127,,
5280,note_on,254,0,2,,,,,,,,,,,,,,,0,,,46,0
5280,note_on,0,0,2,,,,,,,,,,,,,,,0,,,41,0
5280,note_on,0,0,2,,,,,,,,,,,,,,,0,,,34,0
5280,note_on,0,0,2,,,,,,,,,,,,,,,0,,,37,22
5280,note_on,0,0,2,,,,,,,,,,,,,,,0,,,42,27
5280,note_on,0,0,2,,,,,,,,,,,,,,,0,,,49,27
5280,note_on,480,0,1,,,,,,,,,,,,,,,0,,,58,0
5280,set_tempo,480,1,0,,,,,,,,,,,,1044386,,,,,,,
5280,note_on,0,0,1,,,,,,,,,,,,,,,0,,,53,0
5280,note_on,0,0,1,,,,,,,,,,,,,,,0,,,54,39
5280,note_on,0,0,1,,,,,,,,,,,,,,,0,,,61,49
5308,control_change,28,0,2,,,,,,,,,,,,,,,0,64,0,,
5358,control_change,50,0,2,,,,,,,,,,,,,,,0,64,127,,
5640,note_on,0,0,1,,,,,,,,,,,,,,,0,,,60,45
5640,note_on,360,0,1,,,,,,,,,,,,,,,0,,,61,0
5760,note_on,120,0,1,,,,,,,,,,,,,,,0,,,60,0
5760,note_on,0,0,1,,,,,,,,,,,,,,,0,,,60,48
5760,note_on,0,0,2,,,,,,,,,,,,,,,0,,,46,34
5760,note_on,0,0,1,,,,,,,,,,,,,,,0,,,53,39
5760,note_on,402,0,2,,,,,,,,,,,,,,,0,,,49,0
5760,note_on,0,0,2,,,,,,,,,,,,,,,0,,,42,0
5760,note_on,0,0,2,,,,,,,,,,,,,,,0,,,37,0
5760,note_on,0,0,2,,,,,,,,,,,,,,,0,,,41,28
5760,note_on,0,0,1,,,,,,,,,,,,,,,0,,,54,0
5760,control_change,0,0,2,,,,,,,,,,,,,,,0,64,0,,
5760,note_on,0,0,2,,,,,,,,,,,,,,,0,,,34,28
5838,control_change,78,0,2,,,,,,,,,,,,,,,0,64,127,,
6120,note_on,360,0,1,,,,,,,,,,,,,,,0,,,60,0
6120,note_on,0,0,1,,,,,,,,,,,,,,,0,,,58,42
6240,note_on,0,0,2,,,,,,,,,,,,,,,0,,,37,25
6240,note_on,0,0,2,,,,,,,,,,,,,,,0,,,49,30
6240,note_on,0,0,2,,,,,,,,,,,,,,,0,,,42,25
6240,set_tempo,960,1,0,,,,,,,,,,,,1059509,,,,,,,
6240,note_on,0,0,2,,,,,,,,,,,,,,,0,,,41,0
6240,note_on,0,0,1,,,,,,,,,,,,,,,0,,,58,44
6240,note_on,0,0,2,,,,,,,,,,,,,,,0,,,34,0
6240,note_on,0,0,1,,,,,,,,,,,,,,,0,,,54,37
6240,note_on,402,0,2,,,,,,,,,,,,,,,0,,,46,0
6240,note_on,120,0,1,,,,,,,,,,,,,,,0,,,58,0
6240,note_on,0,0,1,,,,,,,,,,,,,,,0,,,53,0
6289,control_change,49,0,2,,,,,,,,,,,,,,,0,64,0,,
6388,control_change,99,0,2,,,,,,,,,,,,,,,0,64,127,,
6600,note_on,360,0,1,,,,,,,,,,,,,,,0,,,58,0
6600,note_on,0,0,1,,,,,,,,,,,,,,,0,,,58,36
6720,note_on,0,0,2,,,,,,,,,,,,,,,0,,,37,0
6720,note_on,0,0,2,,,,,,,,,,,,,,,0,,,34,28
6720,note_on,0,0,2,,,,,,,,,,,,,,,0,,,42,0
6720,note_on,332,0,2,,,,,,,,,,,,,,,0,,,49,0
6720,note_on,120,0,1,,,,,,,,,,,,,,,0,,,58,0
6720,note_on,0,0,2,,,,,,,,,,,,,,,0,,,41,28
6720,note_on,0,0,1,,,,,,,,,,,,,,,0,,,54,0
6720,note_on,0,0,1,,,,,,,,,,,,,,,0,,,53,34
6720,note_on,0,0,2,,,,,,,,,,,,,,,0,,,46,34
6720,note_on,0,0,1,,,,,,,,,,,,,,,0,,,58,40
6720,set_tempo,480,1,0,,,,,,,,,,,,1075076,,,,,,,
6748,control_change,28,0,2,,,,,,,,,,,,,,,0,64,0,,
6833,control_change,85,0,2,,,,,,,,,,,,,,,0,64,127,,
7200,note_on,480,0,1,,,,,,,,,,,,,,,0,,,53,0
7200,note_on,0,0,2,,,,,,,,,,,,,,,0,,,49,27
7200,note_on,0,0,2,,,,,,,,,,,,,,,0,,,42,22
7200,note_on,0,0,2,,,,,,,,,,,,,,,0,,,37,22
7200,note_on,0,0,2,,,,,,,,,,,,,,,0,,,34,0
7200,note_on,0,0,2,,,,,,,,,,,,,,,0,,,41,0
7200,note_on,367,0,2,,,,,,,,,,,,,,,0,,,46,0
7200,note_on,0,0,1,,,,,,,,,,,,,,,0,,,54,28
7249,control_change,49,0,2,,,,,,,,,,,,,,,0,64,0,,
7341,control_change,92,0,2,,,,,,,,,,,,,,,0,64,127,,
7680,note_on,0,0,1,,,,,,,,,,,,,,,0,,,58,42
7680,note_on,0,0,1,,,,,,,,,,,,,,,0,,,58,0
7680,note_on,480,0,1,,,,,,,,,,,,,,,0,,,54,0
7680,set_tempo,960,1,0,,,,,,,,,,,,1044386,,,,,,,
7680,note_on,0,0,1,,,,,,,,,,,,,,,0,,,53,42
7680,control_change,0,0,2,,,,,,,,,,,,,,,0,64,0,,
7680,note_on,0,0,1,,,,,,,,,,,,,,,0,,,61,50
7680,note_on,0,0,2,,,,,,,,,,,,,,,0,,,41,35
7680,note_on,0,0,2,,,,,,,,,,,,,,,0,,,34,35
7680,note_on,0,0,2,,,,,,,,,,,,,,,0,,,37,0
7680,note_on,0,0,2,,,,,,,,,,,,,,,0,,,42,0
7680,note_on,339,0,2,,,,,,,,,,,,,,,0,,,49,0
7680,note_on,0,0,2,,,,,,,,,,,,,,,0,,,46,42
7751,control_change,71,0,2,,,,,,,,,,,,,,,0,64,127,,
8153,control_change,402,0,2,,,,,,,,,,,,,,,0,64,0,,
8160,set_tempo,480,1,0,,,,,,,,,,,,1075076,,,,,,,
8160,note_on,480,0,1,,,,,,,,,,,,,,,0,,,61,0
8160,note_on,0,0,2,,,,,,,,,,,,,,,0,,,34,0
8160,note_on,0,0,1,,,,,,,,,,,,,,,0,,,58,0
8160,note_on,0,0,1,,,,,,,,,,,,,,,0,,,58,42
8160,note_on,0,0,2,,,,,,,,,,,,,,,0,,,49,37
8160,note_on,0,0,2,,,,,,,,,,,,,,,0,,,42,37
8160,note_on,0,0,2,,,,,,,,,,,,,,,0,,,37,30
8160,note_on,0,0,2,,,,,,,,,,,,,,,0,,,41,0
8160,note_on,7,0,2,,,,,,,,,,,,,,,0,,,46,0
8160,note_on,0,0,1,,,,,,,,,,,,,,,0,,,54,42
8160,note_on,0,0,1,,,,,,,,,,,,,,,0,,,61,50
8160,note_on,0,0,1,,,,,,,,,,,,,,,0,,,53,0
8319,control_change,159,0,2,,,,,,,,,,,,,,,0,64,127,,
8520,note_on,0,0,1,,,,,,,,,,,,,,,0,,,61,45
8520,note_on,360,0,1,,,,,,,,,,,,,,,0,,,61,0
8629,control_change,310,0,2,,,,,,,,,,,,,,,0,64,0,,
8640,note_on,0,0,2,,,,,,,,,,,,,,,0,,,42,0
8640,note_on,0,0,1,,,,,,,,,,,,,,,0,,,58,42
8640,note_on,0,0,1,,,,,,,,,,,,,,,0,,,53,42
8640,set_tempo,480,1,0,,,,,,,,,,,,1036986,,,,,,,
8640,note_on,0,0,2,,,,,,,,,,,,,,,0,,,46,42
8640,note_on,0,0,2,,,,,,,,,,,,,,,0,,,41,35
8640,note_on,0,0,2,,,,,,,,,,,,,,,0,,,34,35
8640,note_on,0,0,2,,,,,,,,,,,,,,,0,,,37,0
8640,note_on,11,0,2,,,,,,,,,,,,,,,0,,,49,0
8640,note_on,0,0,1,,,,,,,,,,,,,,,0,,,58,0
8640,note_on,0,0,1,,,,,,,,,,,,,,,0,,,61,50
8640,note_on,0,0,1,,,,,,,,,,,,,,,0,,,54,0
8640,note_on,120,0,1,,,,,,,,,,,,,,,0,,,61,0
8753,control_change,113,0,2,,,,,,,,,,,,,,,0,64,127,,
9120,note_on,0,0,1,,,,,,,,,,,,,,,0,,,61,52
9120,note_on,0,0,1,,,,,,,,,,,,,,,0,,,54,48
9120,note_on,480,0,1,,,,,,,,,,,,,,,0,,,61,0
9120,note_on,0,0,1,,,,,,,,,,,,,,,0,,,53,0
9120,set_tempo,480,1,0,,,,,,,,,,,,1044386,,,,,,,
9120,note_on,0,0,1,,,,,,,,,,,,,,,0,,,58,0
9120,note_on,0,0,1,,,,,,,,,,,,,,,0,,,65,59
9120,note_on,0,0,2,,,,,,,,,,,,,,,0,,,37,27
9120,note_on,0,0,2,,,,,,,,,,,,,,,0,,,34,0
9120,note_on,0,0,2,,,,,,,,,,,,,,,0,,,49,34
9120,note_on,0,0,2,,,,,,,,,,,,,,,0,,,42,34
9120,note_on,367,0,2,,,,,,,,,,,,,,,0,,,46,0
9120,note_on,0,0,2,,,,,,,,,,,,,,,0,,,41,0
9145,control_change,25,0,2,,,,,,,,,,,,,,,0,64,0,,
9198,control_change,53,0,2,,,,,,,,,,,,,,,0,64,127,,
9360,set_tempo,240,1,0,,,,,,,,,,,,1124649,,,,,,,
9480,note_on,0,0,1,,,,,,,,,,,,,,,0,,,60,47
9480,note_on,360,0,1,,,,,,,,,,,,,,,0,,,61,0
9480,note_on,0,0,1,,,,,,,,,,,,,,,0,,,65,0
9480,note_on,0,0,1,,,,,,,,,,,,,,,0,,,63,53
9520,set_tempo,160,1,0,,,,,,,,,,,,1044386,,,,,,,
9540,note_on,0,0,1,,,,,,,,,,,,,,,0,,,63,0
9540,note_on,60,0,1,,,,,,,,,,,,,,,0,,,60,0
9540,note_on,0,0,1,,,,,,,,,,,,,,,0,,,65,48
9600,note_on,0,0,2,,,,,,,,,,,,,,,0,,,37,0
9600,note_on,0,0,1,,,,,,,,,,,,,,,0,,,60,51
9600,note_on,402,0,2,,,,,,,,,,,,,,,0,,,49,0
9600,note_on,0,0,2,,,,,,,,,,,,,,,0,,,42,0
9600,note_on,0,0,2,,,,,,,,,,,,,,,0,,,34,35
9600,note_on,0,0,1,,,,,,,,,,,,,,,0,,,63,57
9600,note_on,0,0,1,,,,,,,,,,,,,,,0,,,54,0
9600,note_on,0,0,1,,,,,,,,,,,,,,,0,,,53,48
9600,note_on,0,0,2,,,,,,,,,,,,,,,0,,,41,35
9600,note_on,0,0,2,,,,,,,,,,,,,,,0,,,46,42
9600,note_on,60,0,1,,,,,,,,,,,,,,,0,,,65,0
9600,control_change,0,0,2,,,,,,,,,,,,,,,0,64,0,,
9678,control_change,78,0,2,,,,,,,,,,,,,,,0,64,127,,
9960,note_on,360,0,1,,,,,,,,,,,,,,,0,,,60,0
9960,note_on,0,0,1,,,,,,,,,,,,,,,0,,,63,0
9960,note_on,0,0,1,,,,,,,,,,,,,,,0,,,61,50
9960,note_on,0,0,1,,,,,,,,,,,,,,,0,,,58,45
10080,note_on,0,0,2,,,,,,,,,,,,,,,0,,,37,30
10080,note_on,0,0,1,,,,,,,,,,,,,,,0,,,58,48
10080,note_on,0,0,1,,,,,,,,,,,,,,,0,,,54,46
10080,note_on,0,0,1,,,,,,,,,,,,,,,0,,,61,55
10080,note_on,0,0,1,,,,,,,,,,,,,,,0,,,53,0
10080,note_on,0,0,1,,,,,,,,,,,,,,,0,,,61,0
10080,note_on,120,0,1,,,,,,,,,,,,,,,0,,,58,0
10080,set_tempo,560,1,0,,,,,,,,,,,,1059509,,,,,,,
10080,note_on,0,0,2,,,,,,,,,,,,,,,0,,,41,0
10080,note_on,0,0,2,,,,,,,,,,,,,,,0,,,42,30
10080,note_on,0,0,2,,,,,,,,,,,,,,,0,,,49,37
10080,note_on,0,0,2,,,,,,,,,,,,,,,0,,,34,0
10080,note_on,402,0,2,,,,,,,,,,,,,,,0,,,46,0
10094,control_change,14,0,2,,,,,,,,,,,,,,,0,64,0,,
10186,control_change,92,0,2,,,,,,,,,,,,,,,0,64,127,,
10440,note_on,0,0,1,,,,,,,,,,,,,,,0,,,58,39
10440,note_on,360,0,1,,,,,,,,,,,,,,,0,,,58,0
10440,note_on,0,0,1,,,,,,,,,,,,,,,0,,,61,0
10440,note_on,0,0,1,,,,,,,,,,,,,,,0,,,61,45
10560,note_on,120,0,1,,,,,,,,,,,,,,,0,,,58,0
10560,note_on,0,0,1,,,,,,,,,,,,,,,0,,,53,42
10560,note_on,0,0,1,,,,,,,,,,,,,,,0,,,54,0
10560,note_on,0,0,1,,,,,,,,,,,,,,,0,,,61,50
10560,set_tempo,480,1,0,,,,,,,,,,,,1083032,,,,,,,
10560,note_on,0,0,1,,,,,,,,,,,,,,,0,,,58,45
10560,note_on,0,0,1,,,,,,,,,,,,,,,0,,,61,0
10560,note_on,0,0,2,,,,,,,,,,,,,,,0,,,46,42
10560,note_on,0,0,2,,,,,,,,,,,,,,,0,,,41,35
10560,note_on,0,0,2,,,,,,,,,,,,,,,0,,,34,35
10560,note_on,0,0,2,,,,,,,,,,,,,,,0,,,37,0
10560,note_on,0,0,2,,,,,,,,,,,,,,,0,,,42,0
10560,note_on,374,0,2,,,,,,,,,,,,,,,0,,,49,0
10602,control_change,42,0,2,,,,,,,,,,,,,,,0,64,0,,
10701,control_change,99,0,2,,,,,,,,,,,,,,,0,64,127,,
11040,note_on,0,0,2,,,,,,,,,,,,,,,0,,,49,34
11040,note_on,0,0,1,,,,,,,,,,,,,,,0,,,54,35
11040,note_on,480,0,1,,,,,,,,,,,,,,,0,,,53,0
11040,note_on,339,0,2,,,,,,,,,,,,,,,0,,,46,0
11040,note_on,0,0,2,,,,,,,,,,,,,,,0,,,41,0
11040,note_on,0,0,2,,,,,,,,,,,,,,,0,,,34,0
11040,note_on,0,0,2,,,,,,,,,,,,,,,0,,,37,27
11040,note_on,0,0,2,,,,,,,,,,,,,,,0,,,42,27
11082,control_change,42,0,2,,,,,,,,,,,,,,,0,64,0,,
11132,control_change,50,0,2,,,,,,,,,,,,,,,0,64,127,,
11520,note_on,0,0,2,,,,,,,,,,,,,,,0,,,46,52
11520,set_tempo,960,1,0,,,,,,,,,,,,937500,,,,,,,
11520,note_on,0,0,2,,,,,,,,,,,,,,,0,,,41,42
11520,note_on,0,0,2,,,,,,,,,,,,,,,0,,,34,42
11520,note_on,0,0,2,,,,,,,,,,,,,,,0,,,37,0
11520,note_on,0,0,1,,,,,,,,,,,,,,,0,,,70,73
11520,note_on,388,0,2,,,,,,,,,,,,,,,0,,,49,0
11520,note_on,0,0,1,,,,,,,,,,,,,,,0,,,58,58
11520,note_on,480,0,1,,,,,,,,,,,,,,,0,,,54,0
11520,note_on,0,0,1,,,,,,,,,,,,,,,0,,,61,0
11520,note_on,0,0,1,,,,,,,,,,,,,,,0,,,61,58
11520,note_on,0,0,2,,,,,,,,,,,,,,,0,,,42,0
11520,note_on,0,0,1,,,,,,,,,,,,,,,0,,,58,0
11524,control_change,4,0,2,,,,,,,,,,,,,,,0,64,0,,
11601,control_change,77,0,2,,,,,,,,,,,,,,,0,64,127,,
11760,note_on,0,0,1,,,,,,,,,,,,,,,0,,,68,66
11760,note_on,240,0,1,,,,,,,,,,,,,,,0,,,70,0
11760,set_tempo,240,1,0,,,,,,,,,,,,875912,,,,,,,
11940,note_on,180,0,1,,,,,,,,,,,,,,,0,,,68,0
11940,note_on,0,0,1,,,,,,,,,,,,,,,0,,,58,0
11940,note_on,0,0,1,,,,,,,,,,,,,,,0,,,61,0
11940,note_on,0,0,1,,,,,,,,,,,,,,,0,,,68,58
11940,set_tempo,180,1,0,,,,,,,,,,,,1000000,,,,,,,
12000,note_on,0,0,2,,,,,,,,,,,,,,,0,,,49,44
12000,set_tempo,60,1,0,,,,,,,,,,,,1016949,,,,,,,
12000,note_on,0,0,1,,,,,,,,,,,,,,,0,,,61,55
12000,note_on,0,0,1,,,,,,,,,,,,,,,0,,,66,61
12000,note_on,0,0,1,,,,,,,,,,,,,,,0,,,58,55
12000,note_on,399,0,2,,,,,,,,,,,,,,,0,,,46,0
12000,note_on,0,0,2,,,,,,,,,,,,,,,0,,,41,0
12000,note_on,0,0,2,,,,,,,,,,,,,,,0,,,34,0
12000,note_on,0,0,2,,,,,,,,,,,,,,,0,,,37,36
12000,note_on,0,0,2,,,,,,,,,,,,,,,0,,,42,36
12000,note_on,60,0,1,,,,,,,,,,,,,,,0,,,68,0
12021,control_change,21,0,2,,,,,,,,,,,,,,,0,64,0,,
12078,control_change,57,0,2,,,,,,,,,,,,,,,0,64,127,,
12360,note_on,0,0,1,,,,,,,,,,,,,,,0,,,65,53
12360,note_on,360,0,1,,,,,,,,,,,,,,,0,,,66,0
12480,note_on,0,0,2,,,,,,,,,,,,,,,0,,,46,46
12480,note_on,0,0,1,,,,,,,,,,,,,,,0,,,65,59
12480,note_on,0,0,2,,,,,,,,,,,,,,,0,,,41,38
12480,note_on,0,0,2,,,,,,,,,,,,,,,0,,,34,38
12480,note_on,0,0,2,,,,,,,,,,,,,,,0,,,37,0
12480,note_on,0,0,2,,,,,,,,,,,,,,,0,,,42,0
12480,note_on,0,0,1,,,,,,,,,,,,,,,0,,,61,50
12480,note_on,402,0,2,,,,,,,,,,,,,,,0,,,49,0
12480,note_on,0,0,1,,,,,,,,,,,,,,,0,,,58,50
12480,note_on,0,0,1,,,,,,,,,,,,,,,0,,,61,0
12480,note_on,0,0,1,,,,,,,,,,,,,,,0,,,58,0
12480,set_tempo,480,1,0,,,,,,,,,,,,1083032,,,,,,,
12480,note_on,120,0,1,,,,,,,,,,,,,,,0,,,65,0
12505,control_change,25,0,2,,,,,,,,,,,,,,,0,64,0,,
12561,control_change,56,0,2,,,,,,,,,,,,,,,0,64,127,,
12960,note_on,0,0,2,,,,,,,,,,,,,,,0,,,42,27
12960,note_on,0,0,2,,,,,,,,,,,,,,,0,,,49,35
12960,note_on,0,0,1,,,,,,,,,,,,,,,0,,,65,0
12960,note_on,0,0,1,,,,,,,,,,,,,,,0,,,58,0
12960,note_on,0,0,2,,,,,,,,,,,,,,,0,,,41,0
12960,note_on,0,0,1,,,,,,,,,,,,,,,0,,,58,42
12960,note_on,0,0,1,,,,,,,,,,,,,,,0,,,61,51
12960,note_on,0,0,2,,,,,,,,,,,,,,,0,,,34,0
12960,note_on,0,0,2,,,,,,,,,,,,,,,0,,,37,27
12960,note_on,480,0,1,,,,,,,,,,,,,,,0,,,61,0
12960,note_on,399,0,2,,,,,,,,,,,,,,,0,,,46,0
12995,control_change,35,0,2,,,,,,,,,,,,,,,0,64,0,,
13024,control_change,29,0,2,,,,,,,,,,,,,,,0,64,127,,
13440,note_on,416,0,2,,,,,,,,,,,,,,,0,,,49,0
13440,note_on,0,0,2,,,,,,,,,,,,,,,0,,,42,0
13440,note_on,0,0,2,,,,,,,,,,,,,,,0,,,37,0
13440,note_on,0,0,2,,,,,,,,,,,,,,,0,,,34,42
13440,note_on,0,0,2,,,,,,,,,,,,,,,0,,,41,42
13440,control_change,0,0,2,,,,,,,,,,,,,,,0,64,0,,
13440,note_on,0,0,1,,,,,,,,,,,,,,,0,,,58,58
13440,note_on,0,0,1,,,,,,,,,,,,,,,0,,,70,73
13440,note_on,0,0,1,,,,,,,,,,,,,,,0,,,61,58
13440,note_on,0,0,1,,,,,,,,,,,,,,,0,,,58,0
13440,note_on,480,0,1,,,,,,,,,,,,,,,0,,,61,0
13440,note_on,0,0,2,,,,,,,,,,,,,,,0,,,46,52
13440,set_tempo,960,1,0,,,,,,,,,,,,952381,,,,,,,
13475,control_change,35,0,2,,,,,,,,,,,,,,,0,64,127,,
13680,set_tempo,240,1,0,,,,,,,,,,,,1059509,,,,,,,
13680,note_on,240,0,1,,,,,,,,,,,,,,,0,,,70,0
13680,note_on,0,0,1,,,,,,,,,,,,,,,0,,,68,65
13700,set_tempo,20,1,0,,,,,,,,,,,,875912,,,,,,,
13860,set_tempo,160,1,0,,,,,,,,,,,,1025641,,,,,,,
13860,note_on,180,0,1,,,,,,,,,,,,,,,0,,,68,0
13860,note_on,0,0,1,,,,,,,,,,,,,,,0,,,58,0
13860,note_on,0,0,1,,,,,,,,,,,,,,,0,,,61,0
13860,note_on,0,0,1,,,,,,,,,,,,,,,0,,,68,58
13920,note_on,0,0,2,,,,,,,,,,,,,,,0,,,34,0
13920,note_on,0,0,2,,,,,,,,,,,,,,,0,,,49,44
13920,note_on,0,0,2,,,,,,,,,,,,,,,0,,,42,36
13920,note_on,0,0,2,,,,,,,,,,,,,,,0,,,37,36
13920,note_on,0,0,2,,,,,,,,,,,,,,,0,,,41,0
13920,note_on,445,0,2,,,,,,,,,,,,,,,0,,,46,0
13920,note_on,60,0,1,,,,,,,,,,,,,,,0,,,68,0
13920,note_on,0,0,1,,,,,,,,,,,,,,,0,,,61,55
13920,note_on,0,0,1,,,,,,,,,,,,,,,0,,,66,61
13920,note_on,0,0,1,,,,,,,,,,,,,,,0,,,58,55
13920,set_tempo,60,1,0,,,,,,,,,,,,1008403,,,,,,,
13940,set_tempo,20,1,0,,,,,,,,,,,,991736,,,,,,,
13945,control_change,25,0,2,,,,,,,,,,,,,,,0,64,0,,
14001,control_change,56,0,2,,,,,,,,,,,,,,,0,64,127,,
14280,note_on,360,0,1,,,,,,,,,,,,,,,0,,,66,0
14280,note_on,0,0,1,,,,,,,,,,,,,,,0,,,65,54
14400,note_on,120,0,1,,,,,,,,,,,,,,,0,,,65,0
14400,note_on,0,0,1,,,,,,,,,,,,,,,0,,,58,0
14400,note_on,0,0,1,,,,,,,,,,,,,,,0,,,61,0
14400,note_on,0,0,1,,,,,,,,,,,,,,,0,,,58,50
14400,note_on,0,0,1,,,,,,,,,,,,,,,0,,,65,59
14400,note_on,399,0,2,,,,,,,,,,,,,,,0,,,49,0
14400,note_on,0,0,2,,,,,,,,,,,,,,,0,,,37,0
14400,note_on,0,0,2,,,,,,,,,,,,,,,0,,,42,0
14400,note_on,0,0,2,,,,,,,,,,,,,,,0,,,41,38
14400,set_tempo,460,1,0,,,,,,,,,,,,1083032,,,,,,,
14400,note_on,0,0,2,,,,,,,,,,,,,,,0,,,34,38
14400,note_on,0,0,1,,,,,,,,,,,,,,,0,,,61,50
14400,note_on,0,0,2,,,,,,,,,,,,,,,0,,,46,46
14428,control_change,28,0,2,,,,,,,,,,,,,,,0,64,0,,
14460,control_change,32,0,2,,,,,,,,,,,,,,,0,64,127,,
14880,note_on,0,0,1,,,,,,,,,,,,,,,0,,,61,51
14880,note_on,0,0,1,,,,,,,,,,,,,,,0,,,58,42
14880,note_on,480,0,1,,,,,,,,,,,,,,,0,,,61,0
14880,note_on,0,0,1,,,,,,,,,,,,,,,0,,,65,0
14880,note_on,0,0,1,,,,,,,,,,,,,,,0,,,58,0
14880,note_on,0,0,2,,,,,,,,,,,,,,,0,,,49,35
14880,note_on,0,0,2,,,,,,,,,,,,,,,0,,,42,27
14880,note_on,0,0,2,,,,,,,,,,,,,,,0,,,37,27
14880,note_on,0,0,2,,,,,,,,,,,,,,,0,,,34,0
14880,note_on,0,0,2,,,,,,,,,,,,,,,0,,,41,0
14880,note_on,420,0,2,,,,,,,,,,,,,,,0,,,46,0
14884,control_change,4,0,2,,,,,,,,,,,,,,,0,64,0,,
14933,control_change,49,0,2,,,,,,,,,,,,,,,0,64,127,,
15360,note_on,480,0,1,,,,,,,,,,,,,,,0,,,61,0
15360,note_on,0,0,1,,,,,,,,,,,,,,,0,,,58,0
15360,note_on,0,0,1,,,,,,,,,,,,,,,0,,,53,39
15360,note_on,0,0,1,,,,,,,,,,,,,,,0,,,58,46
15360,set_tempo,960,1,0,,,,,,,,,,,,1044386,,,,,,,
15360,note_on,0,0,2,,,,,,,,,,,,,,,0,,,46,39
15360,control_change,0,0,2,,,,,,,,,,,,,,,0,64,0,,
15360,note_on,0,0,2,,,,,,,,,,,,,,,0,,,41,32
15360,note_on,0,0,2,,,,,,,,,,,,,,,0,,,34,32
15360,note_on,0,0,2,,,,,,,,,,,,,,,0,,,37,0
15360,note_on,0,0,2,,,,,,,,,,,,,,,0,,,42,0
15360,note_on,427,0,2,,,,,,,,,,,,,,,0,,,49,0
15424,control_change,64,0,2,,,,,,,,,,,,,,,0,64,127,,
15840,note_on,0,0,2,,,,,,,,,,,,,,,0,,,42,34
15840,note_on,0,0,2,,,,,,,,,,,,,,,0,,,37,28
15840,note_on,0,0,2,,,,,,,,,,,,,,,0,,,34,0
15840,note_on,0,0,2,,,,,,,,,,,,,,,0,,,41,0
15840,note_on,0,0,2,,,,,,,,,,,,,,,0,,,49,34
15840,note_on,416,0,2,,,,,,,,,,,,,,,0,,,46,0
15840,note_on,0,0,1,,,,,,,,,,,,,,,0,,,53,0
15840,note_on,0,0,1,,,,,,,,,,,,,,,0,,,54,39
15840,note_on,0,0,1,,,,,,,,,,,,,,,0,,,58,46
15840,note_on,480,0,1,,,,,,,,,,,,,,,0,,,58,0
15840,set_tempo,480,1,0,,,,,,,,,,,,1075076,,,,,,,
15854,control_change,14,0,2,,,,,,,,,,,,,,,0,64,0,,
15981,control_change,127,0,2,,,,,,,,,,,,,,,0,64,127,,
16200,note_on,360,0,1,,,,,,,,,,,,,,,0,,,58,0
16200,note_on,0,0,1,,,,,,,,,,,,,,,0,,,58,41
16320,note_on,0,0,2,,,,,,,,,,,,,,,0,,,46,39
16320,note_on,0,0,2,,,,,,,,,,,,,,,0,,,41,32
16320,note_on,0,0,2,,,,,,,,,,,,,,,0,,,34,32
16320,note_on,0,0,2,,,,,,,,,,,,,,,0,,,37,0
16320,note_on,0,0,2,,,,,,,,,,,,,,,0,,,42,0
16320,set_tempo,480,1,0,,,,,,,,,,,,1067236,,,,,,,
16320,note_on,339,0,2,,,,,,,,,,,,,,,0,,,49,0
16320,note_on,0,0,1,,,,,,,,,,,,,,,0,,,53,39
16320,note_on,0,0,1,,,,,,,,,,,,,,,0,,,58,46
16320,note_on,0,0,1,,,,,,,,,,,,,,,0,,,54,0
16320,note_on,120,0,1,,,,,,,,,,,,,,,0,,,58,0
16331,control_change,11,0,2,,,,,,,,,,,,,,,0,64,0,,
16454,control_change,123,0,2,,,,,,,,,,,,,,,0,64,127,,
16800,note_on,0,0,1,,,,,,,,,,,,,,,0,,,54,44
16800,note_on,0,0,1,,,,,,,,,,,,,,,0,,,61,54
16800,note_on,0,0,1,,,,,,,,,,,,,,,0,,,58,0
16800,note_on,480,0,1,,,,,,,,,,,,,,,0,,,53,0
16800,note_on,346,0,2,,,,,,,,,,,,,,,0,,,46,0
16800,note_on,0,0,2,,,,,,,,,,,,,,,0,,,41,0
16800,note_on,0,0,2,,,,,,,,,,,,,,,0,,,34,0
16800,note_on,0,0,2,,,,,,,,,,,,,,,0,,,37,25
16800,note_on,0,0,2,,,,,,,,,,,,,,,0,,,42,31
16800,note_on,0,0,2,,,,,,,,,,,,,,,0,,,49,31
16800,set_tempo,480,1,0,,,,,,,,,,,,1044386,,,,,,,
16807,control_change,7,0,2,,,,,,,,,,,,,,,0,64,0,,
16885,control_change,78,0,2,,,,,,,,,,,,,,,0,64,127,,
17160,note_on,360,0,1,,,,,,,,,,,,,,,0,,,61,0
17160,note_on,0,0,1,,,,,,,,,,,,,,,0,,,60,49
17220,note_on,60,0,1,,,,,,,,,,,,,,,0,,,60,0
17220,note_on,0,0,1,,,,,,,,,,,,,,,0,,,61,45
17280,note_on,0,0,2,,,,,,,,,,,,,,,0,,,34,32
17280,control_change,0,0,2,,,,,,,,,,,,,,,0,64,0,,
17280,note_on,0,0,2,,,,,,,,,,,,,,,0,,,46,39
17280,note_on,0,0,2,,,,,,,,,,,,,,,0,,,41,32
17280,note_on,0,0,2,,,,,,,,,,,,,,,0,,,37,0
17280,note_on,0,0,2,,,,,,,,,,,,,,,0,,,42,0
17280,note_on,395,0,2,,,,,,,,,,,,,,,0,,,49,0
17280,note_on,60,0,1,,,,,,,,,,,,,,,0,,,61,0
17280,note_on,0,0,1,,,,,,,,,,,,,,,0,,,54,0
17280,note_on,0,0,1,,,,,,,,,,,,,,,0,,,53,44
17280,note_on,0,0,1,,,,,,,,,,,,,,,0,,,60,52
17393,control_change,113,0,2,,,,,,,,,,,,,,,0,64,127,,
17640,note_on,0,0,1,,,,,,,,,,,,,,,0,,,58,46
17640,note_on,360,0,1,,,,,,,,,,,,,,,0,,,60,0
17760,note_on,0,0,2,,,,,,,,,,,,,,,0,,,41,0
17760,note_on,0,0,2,,,,,,,,,,,,,,,0,,,34,0
17760,note_on,0,0,2,,,,,,,,,,,,,,,0,,,37,28
17760,note_on,0,0,2,,,,,,,,,,,,,,,0,,,42,28
17760,note_on,0,0,2,,,,,,,,,,,,,,,0,,,49,34
17760,note_on,120,0,1,,,,,,,,,,,,,,,0,,,58,0
17760,note_on,0,0,1,,,,,,,,,,,,,,,0,,,53,0
17760,note_on,0,0,1,,,,,,,,,,,,,,,0,,,54,42
17760,set_tempo,960,1,0,,,,,,,,,,,,1059509,,,,,,,
17760,note_on,367,0,2,,,,,,,,,,,,,,,0,,,46,0
17760,note_on,0,0,1,,,,,,,,,,,,,,,0,,,58,50
17788,control_change,28,0,2,,,,,,,,,,,,,,,0,64,0,,
17944,control_change,156,0,2,,,,,,,,,,,,,,,0,64,127,,
18120,note_on,0,0,1,,,,,,,,,,,,,,,0,,,58,41
18120,note_on,360,0,1,,,,,,,,,,,,,,,0,,,58,0
18240,note_on,0,0,1,,,,,,,,,,,,,,,0,,,53,39
18240,note_on,0,0,2,,,,,,,,,,,,,,,0,,,34,32
18240,note_on,0,0,2,,,,,,,,,,,,,,,0,,,37,0
18240,note_on,0,0,2,,,,,,,,,,,,,,,0,,,42,0
18240,note_on,296,0,2,,,,,,,,,,,,,,,0,,,49,0
18240,note_on,120,0,1,,,,,,,,,,,,,,,0,,,58,0
18240,set_tempo,480,1,0,,,,,,,,,,,,1075076,,,,,,,
18240,note_on,0,0,1,,,,,,,,,,,,,,,0,,,58,46
18240,note_on,0,0,2,,,,,,,,,,,,,,,0,,,41,32
18240,note_on,0,0,2,,,,,,,,,,,,,,,0,,,46,39
18240,note_on,0,0,1,,,,,,,,,,,,,,,0,,,54,0
18275,control_change,35,0,2,,,,,,,,,,,,,,,0,64,0,,
18416,control_change,141,0,2,,,,,,,,,,,,,,,0,64,127,,
18720,note_on,0,0,2,,,,,,,,,,,,,,,0,,,41,0
18720,note_on,0,0,2,,,,,,,,,,,,,,,0,,,34,0
18720,note_on,0,0,2,,,,,,,,,,,,,,,0,,,37,25
18720,note_on,304,0,2,,,,,,,,,,,,,,,0,,,46,0
18720,note_on,480,0,1,,,,,,,,,,,,,,,0,,,53,0
18720,note_on,0,0,1,,,,,,,,,,,,,,,0,,,54,32
18720,note_on,0,0,2,,,,,,,,,,,,,,,0,,,42,25
18720,note_on,0,0,2,,,,,,,,,,,,,,,0,,,49,31
18784,control_change,64,0,2,,,,,,,,,,,,,,,0,64,0,,
18861,control_change,77,0,2,,,,,,,,,,,,,,,0,64,127,,
19200,note_on,0,0,2,,,,,,,,,,,,,,,0,,,46,57
19200,note_on,0,0,2,,,,,,,,,,,,,,,0,,,41,47
19200,note_on,0,0,2,,,,,,,,,,,,,,,0,,,34,47
19200,note_on,0,0,2,,,,,,,,,,,,,,,0,,,42,0
19200,note_on,339,0,2,,,,,,,,,,,,,,,0,,,49,0
19200,control_change,0,0,2,,,,,,,,,,,,,,,0,64,0,,
19200,note_on,0,0,2,,,,,,,,,,,,,,,0,,,37,0
19200,note_on,0,0,1,,,,,,,,,,,,,,,0,,,82,83
19200,note_on,480,0,1,,,,,,,,,,,,,,,0,,,54,0
19200,note_on,0,0,1,,,,,,,,,,,,,,,0,,,58,0
19200,set_tempo,960,1,0,,,,,,,,,,,,952381,,,,,,,
19200,note_on,0,0,1,,,,,,,,,,,,,,,0,,,70,68
19200,note_on,0,0,1,,,,,,,,,,,,,,,0,,,73,68
19264,control_change,64,0,2,,,,,,,,,,,,,,,0,64,127,,
19440,set_tempo,240,1,0,,,,,,,,,,,,888889,,,,,,,
19440,note_on,0,0,1,,,,,,,,,,,,,,,0,,,80,73
19440,note_on,0,0,1,,,,,,,,,,,,,,,0,,,68,56
19440,note_on,0,0,1,,,,,,,,,,,,,,,0,,,82,0
19440,note_on,240,0,1,,,,,,,,,,,,,,,0,,,70,0
19560,set_tempo,120,1,0,,,,,,,,,,,,923077,,,,,,,
19620,note_on,180,0,1,,,,,,,,,,,,,,,0,,,80,0
19620,note_on,0,0,1,,,,,,,,,,,,,,,0,,,68,0
19620,note_on,0,0,1,,,,,,,,,,,,,,,0,,,68,64
19620,set_tempo,60,1,0,,,,,,,,,,,,1043478,,,,,,,
19628,set_tempo,8,1,0,,,,,,,,,,,,1071429,,,,,,,
19640,set_tempo,12,1,0,,,,,,,,,,,,1100917,,,,,,,
19640,note_on,20,0,1,,,,,,,,,,,,,,,0,,,68,0
19640,note_on,0,0,1,,,,,,,,,,,,,,,0,,,73,57
19648,set_tempo,8,1,0,,,,,,,,,,,,1142857,,,,,,,
19660,set_tempo,12,1,0,,,,,,,,,,,,1176471,,,,,,,
19660,note_on,20,0,1,,,,,,,,,,,,,,,0,,,73,0
19660,note_on,0,0,1,,,,,,,,,,,,,,,0,,,80,59
19668,set_tempo,8,1,0,,,,,,,,,,,,1224490,,,,,,,
19672,set_tempo,4,1,0,,,,,,,,,,,,1008403,,,,,,,
19680,note_on,0,0,2,,,,,,,,,,,,,,,0,,,34,0
19680,note_on,0,0,2,,,,,,,,,,,,,,,0,,,37,37
19680,note_on,0,0,2,,,,,,,,,,,,,,,0,,,42,37
19680,note_on,0,0,2,,,,,,,,,,,,,,,0,,,49,46
19680,set_tempo,8,1,0,,,,,,,,,,,,1016949,,,,,,,
19680,note_on,0,0,2,,,,,,,,,,,,,,,0,,,41,0
19680,note_on,20,0,1,,,,,,,,,,,,,,,0,,,80,0
19680,note_on,416,0,2,,,,,,,,,,,,,,,0,,,46,0
19680,note_on,0,0,1,,,,,,,,,,,,,,,0,,,73,74
19680,note_on,0,0,1,,,,,,,,,,,,,,,0,,,78,73
19680,note_on,0,0,1,,,,,,,,,,,,,,,0,,,66,61
19698,control_change,18,0,2,,,,,,,,,,,,,,,0,64,0,,
19761,control_change,63,0,2,,,,,,,,,,,,,,,0,64,127,,
20040,note_on,360,0,1,,,,,,,,,,,,,,,0,,,78,0
20040,note_on,0,0,1,,,,,,,,,,,,,,,0,,,77,61
20040,set_tempo,360,1,0,,,,,,,,,,,,1052632,,,,,,,
20040,note_on,0,0,1,,,,,,,,,,,,,,,0,,,65,52
20160,note_on,399,0,2,,,,,,,,,,,,,,,0,,,49,0
20160,note_on,0,0,2,,,,,,,,,,,,,,,0,,,42,0
20160,note_on,0,0,2,,,,,,,,,,,,,,,0,,,37,0
20160,note_on,0,0,1,,,,,,,,,,,,,,,0,,,65,0
20160,note_on,0,0,1,,,,,,,,,,,,,,,0,,,66,0
20160,note_on,0,0,2,,,,,,,,,,,,,,,0,,,46,48
20160,set_tempo,120,1,0,,,,,,,,,,,,1061947,,,,,,,
20160,note_on,120,0,1,,,,,,,,,,,,,,,0,,,77,0
20160,note_on,0,0,1,,,,,,,,,,,,,,,0,,,73,0
20160,note_on,0,0,1,,,,,,,,,,,,,,,0,,,73,0
20160,note_on,0,0,1,,,,,,,,,,,,,,,0,,,73,69
20160,note_on,0,0,1,,,,,,,,,,,,,,,0,,,77,69
20160,note_on,0,0,1,,,,,,,,,,,,,,,0,,,65,58
20160,note_on,0,0,2,,,,,,,,,,,,,,,0,,,34,39
20160,note_on,0,0,2,,,,,,,,,,,,,,,0,,,41,39
20188,control_change,28,0,2,,,,,,,,,,,,,,,0,64,0,,
20227,control_change,39,0,2,,,,,,,,,,,,,,,0,64,127,,
20640,note_on,413,0,2,,,,,,,,,,,,,,,0,,,46,0
20640,note_on,0,0,2,,,,,,,,,,,,,,,0,,,34,0
20640,note_on,0,0,2,,,,,,,,,,,,,,,0,,,42,30
20640,note_on,0,0,2,,,,,,,,,,,,,,,0,,,49,38
20640,note_on,0,0,2,,,,,,,,,,,,,,,0,,,37,30
20640,note_on,0,0,2,,,,,,,,,,,,,,,0,,,41,0
20640,note_on,480,0,1,,,,,,,,,,,,,,,0,,,73,0
20640,note_on,0,0,1,,,,,,,,,,,,,,,0,,,70,68
20640,note_on,0,0,1,,,,,,,,,,,,,,,0,,,61,57
20640,note_on,0,0,1,,,,,,,,,,,,,,,0,,,73,68
20640,note_on,0,0,1,,,,,,,,,,,,,,,0,,,65,0
20640,note_on,0,0,1,,,,,,,,,,,,,,,0,,,77,0
20682,control_change,42,0,2,,,,,,,,,,,,,,,0,64,0,,
20728,control_change,46,0,2,,,,,,,,,,,,,,,0,64,127,,
21120,note_on,0,0,1,,,,,,,,,,,,,,,0,,,82,83
21120,note_on,0,0,1,,,,,,,,,,,,,,,0,,,73,68
21120,note_on,0,0,1,,,,,,,,,,,,,,,0,,,73,0
21120,note_on,0,0,1,,,,,,,,,,,,,,,0,,,61,0
21120,note_on,480,0,1,,,,,,,,,,,,,,,0,,,70,0
21120,note_on,0,0,1,,,,,,,,,,,,,,,0,,,70,68
21120,set_tempo,960,1,0,,,,,,,,,,,,960000,,,,,,,
21120,note_on,392,0,2,,,,,,,,,,,,,,,0,,,49,0
21120,note_on,0,0,2,,,,,,,,,,,,,,,0,,,42,0
21120,note_on,0,0,2,,,,,,,,,,,,,,,0,,,37,0
21120,note_on,0,0,2,,,,,,,,,,,,,,,0,,,34,47
21120,note_on,0,0,2,,,,,,,,,,,,,,,0,,,41,47
21120,note_on,0,0,2,,,,,,,,,,,,,,,0,,,46,57
21120,control_change,0,0,2,,,,,,,,,,,,,,,0,64,0,,
21187,control_change,67,0,2,,,,,,,,,,,,,,,0,64,127,,
21360,note_on,240,0,1,,,,,,,,,,,,,,,0,,,70,0
21360,note_on,0,0,1,,,,,,,,,,,,,,,0,,,82,0
21360,note_on,0,0,1,,,,,,,,,,,,,,,0,,,68,56
21360,set_tempo,240,1,0,,,,,,,,,,,,895522,,,,,,,
21360,note_on,0,0,1,,,,,,,,,,,,,,,0,,,80,73
21480,set_tempo,120,1,0,,,,,,,,,,,,923077,,,,,,,
21540,note_on,180,0,1,,,,,,,,,,,,,,,0,,,80,0
21540,note_on,0,0,1,,,,,,,,,,,,,,,0,,,68,0
21540,note_on,0,0,1,,,,,,,,,,,,,,,0,,,68,66
21560,note_on,20,0,1,,,,,,,,,,,,,,,0,,,68,0
21560,note_on,0,0,1,,,,,,,,,,,,,,,0,,,73,58
21560,set_tempo,80,1,0,,,,,,,,,,,,1165049,,,,,,,
21568,set_tempo,8,1,0,,,,,,,,,,,,1200000,,,,,,,
21580,set_tempo,12,1,0,,,,,,,,,,,,1237113,,,,,,,
21580,note_on,0,0,1,,,,,,,,,,,,,,,0,,,80,58
21580,note_on,20,0,1,,,,,,,,,,,,,,,0,,,73,0
21588,set_tempo,8,1,0,,,,,,,,,,,,1290323,,,,,,,
21592,set_tempo,4,1,0,,,,,,,,,,,,991736,,,,,,,
21600,note_on,0,0,1,,,,,,,,,,,,,,,0,,,78,73
21600,note_on,0,0,1,,,,,,,,,,,,,,,0,,,66,63
21600,note_on,0,0,2,,,,,,,,,,,,,,,0,,,49,46
21600,note_on,0,0,1,,,,,,,,,,,,,,,0,,,73,76
21600,note_on,413,0,2,,,,,,,,,,,,,,,0,,,46,0
21600,set_tempo,8,1,0,,,,,,,,,,,,1025641,,,,,,,
21600,note_on,0,0,2,,,,,,,,,,,,,,,0,,,42,37
21600,note_on,0,0,2,,,,,,,,,,,,,,,0,,,37,37
21600,note_on,0,0,2,,,,,,,,,,,,,,,0,,,34,0
21600,note_on,20,0,1,,,,,,,,,,,,,,,0,,,80,0
21600,note_on,0,0,2,,,,,,,,,,,,,,,0,,,41,0
21618,control_change,18,0,2,,,,,,,,,,,,,,,0,64,0,,
21660,control_change,42,0,2,,,,,,,,,,,,,,,0,64,127,,
21960,set_tempo,360,1,0,,,,,,,,,,,,1052632,,,,,,,
21960,note_on,360,0,1,,,,,,,,,,,,,,,0,,,78,0
21960,note_on,0,0,1,,,,,,,,,,,,,,,0,,,65,52
21960,note_on,0,0,1,,,,,,,,,,,,,,,0,,,77,61
22080,set_tempo,120,1,0,,,,,,,,,,,,1061947,,,,,,,
22080,note_on,0,0,2,,,,,,,,,,,,,,,0,,,41,39
22080,note_on,0,0,2,,,,,,,,,,,,,,,0,,,42,0
22080,note_on,420,0,2,,,,,,,,,,,,,,,0,,,49,0
22080,note_on,0,0,1,,,,,,,,,,,,,,,0,,,73,69
22080,note_on,0,0,1,,,,,,,,,,,,,,,0,,,77,69
22080,note_on,0,0,1,,,,,,,,,,,,,,,0,,,65,58
22080,note_on,0,0,1,,,,,,,,,,,,,,,0,,,65,0
22080,note_on,0,0,1,,,,,,,,,,,,,,,0,,,66,0
22080,note_on,0,0,1,,,,,,,,,,,,,,,0,,,73,0
22080,note_on,0,0,1,,,,,,,,,,,,,,,0,,,73,0
22080,note_on,0,0,2,,,,,,,,,,,,,,,0,,,46,48
22080,note_on,0,0,2,,,,,,,,,,,,,,,0,,,37,0
22080,note_on,0,0,2,,,,,,,,,,,,,,,0,,,34,39
22080,note_on,120,0,1,,,,,,,,,,,,,,,0,,,77,0
22087,control_change,7,0,2,,,,,,,,,,,,,,,0,64,0,,
22214,control_change,127,0,2,,,,,,,,,,,,,,,0,64,127,,
22560,note_on,0,0,1,,,,,,,,,,,,,,,0,,,70,68
22560,note_on,0,0,1,,,,,,,,,,,,,,,0,,,61,57
22560,note_on,0,0,1,,,,,,,,,,,,,,,0,,,65,0
22560,note_on,0,0,1,,,,,,,,,,,,,,,0,,,77,0
22560,note_on,480,0,1,,,,,,,,,,,,,,,0,,,73,0
22560,note_on,0,0,2,,,,,,,,,,,,,,,0,,,41,0
22560,note_on,346,0,2,,,,,,,,,,,,,,,0,,,46,0
22560,note_on,0,0,2,,,,,,,,,,,,,,,0,,,34,0
22560,note_on,0,0,2,,,,,,,,,,,,,,,0,,,37,30
22560,note_on,0,0,2,,,,,,,,,,,,,,,0,,,42,30
22560,note_on,0,0,2,,,,,,,,,,,,,,,0,,,49,38
22560,note_on,0,0,1,,,,,,,,,,,,,,,0,,,73,68
22564,control_change,4,0,2,,,,,,,,,,,,,,,0,64,0,,
22712,control_change,148,0,2,,,,,,,,,,,,,,,0,64,127,,
23040,note_on,0,0,1,,,,,,,,,,,,,,,0,,,73,0
23040,note_on,0,0,1,,,,,,,,,,,,,,,0,,,58,52
23040,note_on,0,0,1,,,,,,,,,,,,,,,0,,,65,52
23040,set_tempo,960,1,0,,,,,,,,,,,,1044386,,,,,,,
23040,note_on,0,0,1,,,,,,,,,,,,,,,0,,,61,0
23040,note_on,328,0,2,,,,,,,,,,,,,,,0,,,49,0
23040,note_on,0,0,2,,,,,,,,,,,,,,,0,,,42,0
23040,note_on,0,0,2,,,,,,,,,,,,,,,0,,,37,0
23040,note_on,0,0,2,,,,,,,,,,,,,,,0,,,34,43
23040,note_on,0,0,2,,,,,,,,,,,,,,,0,,,41,43
23040,note_on,0,0,2,,,,,,,,,,,,,,,0,,,46,52
23040,note_on,0,0,1,,,,,,,,,,,,,,,0,,,70,61
23040,note_on,480,0,1,,,,,,,,,,,,,,,0,,,70,0
23047,control_change,7,0,2,,,,,,,,,,,,,,,0,64,0,,
23188,control_change,141,0,2,,,,,,,,,,,,,,,0,64,127,,
23520,set_tempo,480,1,0,,,,,,,,,,,,1075076,,,,,,,
23520,note_on,0,0,1,,,,,,,,,,,,,,,0,,,66,53
23520,note_on,0,0,1,,,,,,,,,,,,,,,0,,,70,63
23520,note_on,0,0,1,,,,,,,,,,,,,,,0,,,58,53
23520,note_on,0,0,1,,,,,,,,,,,,,,,0,,,65,0
23520,note_on,0,0,1,,,,,,,,,,,,,,,0,,,58,0
23520,note_on,0,0,2,,,,,,,,,,,,,,,0,,,41,0
23520,note_on,0,0,2,,,,,,,,,,,,,,,0,,,34,0
23520,note_on,0,0,2,,,,,,,,,,,,,,,0,,,37,37
23520,note_on,0,0,2,,,,,,,,,,,,,,,0,,,42,46
23520,note_on,0,0,2,,,,,,,,,,,,,,,0,,,49,46
23520,note_on,480,0,1,,,,,,,,,,,,,,,0,,,70,0
23520,note_on,332,0,2,,,,,,,,,,,,,,,0,,,46,0
23591,control_change,71,0,2,,,,,,,,,,,,,,,0,64,0,,
23711,control_change,120,0,2,,,,,,,,,,,,,,,0,64,127,,
23880,note_on,0,0,1,,,,,,,,,,,,,,,0,,,58,0
23880,note_on,360,0,1,,,,,,,,,,,,,,,0,,,70,0
23880,note_on,0,0,1,,,,,,,,,,,,,,,0,,,70,57
23880,note_on,0,0,1,,,,,,,,,,,,,,,0,,,58,48
24000,note_on,0,0,2,,,,,,,,,,,,,,,0,,,46,54
24000,note_on,0,0,2,,,,,,,,,,,,,,,0,,,41,45
24000,note_on,289,0,2,,,,,,,,,,,,,,,0,,,49,0
24000,note_on,0,0,2,,,,,,,,,,,,,,,0,,,42,0
24000,note_on,0,0,2,,,,,,,,,,,,,,,0,,,34,45
24000,note_on,0,0,1,,,,,,,,,,,,,,,0,,,70,65
24000,note_on,0,0,1,,,,,,,,,,,,,,,0,,,58,0
24000,note_on,0,0,1,,,,,,,,,,,,,,,0,,,66,0
24000,note_on,0,0,1,,,,,,,,,,,,,,,0,,,58,54
24000,note_on,0,0,1,,,,,,,,,,,,,,,0,,,65,54
24000,note_on,0,0,2,,,,,,,,,,,,,,,0,,,37,0
24000,set_tempo,480,1,0,,,,,,,,,,,,1067236,,,,,,,
24000,note_on,120,0,1,,,,,,,,,,,,,,,0,,,70,0
24035,control_change,35,0,2,,,,,,,,,,,,,,,0,64,0,,
24141,control_change,106,0,2,,,,,,,,,,,,,,,0,64,127,,
24459,control_change,318,0,2,,,,,,,,,,,,,,,0,64,0,,
24480,note_on,0,0,1,,,,,,,,,,,,,,,0,,,58,0
24480,note_on,0,0,2,,,,,,,,,,,,,,,0,,,49,46
24480,note_on,0,0,2,,,,,,,,,,,,,,,0,,,42,46
24480,note_on,0,0,2,,,,,,,,,,,,,,,0,,,37,36
24480,note_on,0,0,2,,,,,,,,,,,,,,,0,,,34,0
24480,note_on,0,0,2,,,,,,,,,,,,,,,0,,,41,0
24480,note_on,21,0,2,,,,,,,,,,,,,,,0,,,46,0
24480,set_tempo,480,1,0,,,,,,,,,,,,1044386,,,,,,,
24480,note_on,480,0,1,,,,,,,,,,,,,,,0,,,70,0
24480,note_on,0,0,1,,,,,,,,,,,,,,,0,,,65,0
24480,note_on,0,0,1,,,,,,,,,,,,,,,0,,,66,66
24480,note_on,0,0,1,,,,,,,,,,,,,,,0,,,61,68
24480,note_on,0,0,1,,,,,,,,,,,,,,,0,,,73,82
24635,control_change,155,0,2,,,,,,,,,,,,,,,0,64,127,,
24840,note_on,360,0,1,,,,,,,,,,,,,,,0,,,73,0
24840,note_on,0,0,1,,,,,,,,,,,,,,,0,,,61,0
24840,note_on,0,0,1,,,,,,,,,,,,,,,0,,,60,59
24840,note_on,0,0,1,,,,,,,,,,,,,,,0,,,72,71
24960,note_on,120,0,1,,,,,,,,,,,,,,,0,,,72,0
24960,note_on,0,0,1,,,,,,,,,,,,,,,0,,,66,0
24960,note_on,0,0,1,,,,,,,,,,,,,,,0,,,60,68
24960,note_on,0,0,1,,,,,,,,,,,,,,,0,,,72,79
24960,note_on,0,0,1,,,,,,,,,,,,,,,0,,,65,68
24960,note_on,0,0,1,,,,,,,,,,,,,,,0,,,60,0
24960,note_on,0,0,2,,,,,,,,,,,,,,,0,,,42,0
24960,note_on,0,0,2,,,,,,,,,,,,,,,0,,,37,0
24960,note_on,0,0,2,,,,,,,,,,,,,,,0,,,34,49
24960,note_on,0,0,2,,,,,,,,,,,,,,,0,,,41,49
24960,note_on,0,0,2,,,,,,,,,,,,,,,0,,,46,58
24960,control_change,0,0,2,,,,,,,,,,,,,,,0,64,0,,
24960,note_on,325,0,2,,,,,,,,,,,,,,,0,,,49,0
25115,control_change,155,0,2,,,,,,,,,,,,,,,0,64,127,,
25320,note_on,0,0,1,,,,,,,,,,,,,,,0,,,60,0
25320,note_on,360,0,1,,,,,,,,,,,,,,,0,,,72,0
25320,note_on,0,0,1,,,,,,,,,,,,,,,0,,,58,59
25320,note_on,0,0,1,,,,,,,,,,,,,,,0,,,70,71
25440,note_on,120,0,1,,,,,,,,,,,,,,,0,,,70,0
25440,note_on,325,0,2,,,,,,,,,,,,,,,0,,,46,0
25440,note_on,0,0,2,,,,,,,,,,,,,,,0,,,37,42
25440,note_on,0,0,2,,,,,,,,,,,,,,,0,,,34,0
25440,note_on,0,0,2,,,,,,,,,,,,,,,0,,,42,42
25440,note_on,0,0,2,,,,,,,,,,,,,,,0,,,49,51
25440,note_on,0,0,1,,,,,,,,,,,,,,,0,,,70,77
25440,note_on,0,0,1,,,,,,,,,,,,,,,0,,,66,64
25440,note_on,0,0,1,,,,,,,,,,,,,,,0,,,58,64
25440,note_on,0,0,1,,,,,,,,,,,,,,,0,,,65,0
25440,note_on,0,0,1,,,,,,,,,,,,,,,0,,,58,0
25440,note_on,0,0,2,,,,,,,,,,,,,,,0,,,41,0
25440,set_tempo,960,1,0,,,,,,,,,,,,1059509,,,,,,,
25475,control_change,35,0,2,,,,,,,,,,,,,,,0,64,0,,
25581,control_change,106,0,2,,,,,,,,,,,,,,,0,64,127,,
25800,note_on,360,0,1,,,,,,,,,,,,,,,0,,,70,0
25800,note_on,0,0,1,,,,,,,,,,,,,,,0,,,58,0
25800,note_on,0,0,1,,,,,,,,,,,,,,,0,,,58,60
25800,note_on,0,0,1,,,,,,,,,,,,,,,0,,,70,72
25920,note_on,0,0,2,,,,,,,,,,,,,,,0,,,34,53
25920,note_on,0,0,1,,,,,,,,,,,,,,,0,,,70,76
25920,note_on,0,0,1,,,,,,,,,,,,,,,0,,,65,64
25920,note_on,0,0,1,,,,,,,,,,,,,,,0,,,58,63
25920,note_on,0,0,1,,,,,,,,,,,,,,,0,,,66,0
25920,set_tempo,480,1,0,,,,,,,,,,,,1075076,,,,,,,
25920,note_on,0,0,1,,,,,,,,,,,,,,,0,,,58,0
25920,note_on,0,0,2,,,,,,,,,,,,,,,0,,,46,64
25920,note_on,0,0,2,,,,,,,,,,,,,,,0,,,41,53
25920,note_on,339,0,2,,,,,,,,,,,,,,,0,,,49,0
25920,note_on,0,0,2,,,,,,,,,,,,,,,0,,,42,0
25920,note_on,120,0,1,,,,,,,,,,,,,,,0,,,70,0
25920,note_on,0,0,2,,,,,,,,,,,,,,,0,,,37,0
25927,control_change,7,0,2,,,,,,,,,,,,,,,0,64,0,,
26040,control_change,113,0,2,,,,,,,,,,,,,,,0,64,127,,
26400,note_on,360,0,2,,,,,,,,,,,,,,,0,,,46,0
26400,note_on,0,0,2,,,,,,,,,,,,,,,0,,,41,0
26400,note_on,0,0,2,,,,,,,,,,,,,,,0,,,34,0
26400,note_on,0,0,2,,,,,,,,,,,,,,,0,,,44,71
26400,note_on,0,0,2,,,,,,,,,,,,,,,0,,,32,56
26400,note_on,0,0,1,,,,,,,,,,,,,,,0,,,66,75
26400,note_on,480,0,1,,,,,,,,,,,,,,,0,,,70,0
26400,note_on,0,0,1,,,,,,,,,,,,,,,0,,,65,0
26400,note_on,0,0,1,,,,,,,,,,,,,,,0,,,58,0
26400,note_on,0,0,1,,,,,,,,,,,,,,,0,,,68,75
26400,note_on,0,0,1,,,,,,,,,,,,,,,0,,,60,75
26400,note_on,0,0,1,,,,,,,,,,,,,,,0,,,72,95
26449,control_change,49,0,2,,,,,,,,,,,,,,,0,64,0,,
26513,control_change,64,0,2,,,,,,,,,,,,,,,0,64,127,,
26880,note_on,0,0,1,,,,,,,,,,,,,,,0,,,60,0
26880,note_on,0,0,1,,,,,,,,,,,,,,,0,,,68,0
26880,note_on,480,0,1,,,,,,,,,,,,,,,0,,,66,0
26880,control_change,0,0,2,,,,,,,,,,,,,,,0,64,0,,
26880,note_on,0,0,2,,,,,,,,,,,,,,,0,,,25,59
26880,note_on,0,0,2,,,,,,,,,,,,,,,0,,,32,0
26880,note_on,367,0,2,,,,,,,,,,,,,,,0,,,44,0
26880,note_on,0,0,2,,,,,,,,,,,,,,,0,,,37,74
26880,note_on,0,0,1,,,,,,,,,,,,,,,0,,,72,0
26880,note_on,0,0,1,,,,,,,,,,,,,,,0,,,61,78
26880,note_on,0,0,1,,,,,,,,,,,,,,,0,,,73,100
26880,note_on,0,0,1,,,,,,,,,,,,,,,0,,,65,78
27147,control_change,267,0,2,,,,,,,,,,,,,,,0,64,127,,
27360,note_on,0,0,1,,,,,,,,,,,,,,,0,,,65,0
27360,note_on,0,0,2,,,,,,,,,,,,,,,0,,,61,76
27360,note_on,0,0,2,,,,,,,,,,,,,,,0,,,56,64
27360,note_on,0,0,2,,,,,,,,,,,,,,,0,,,49,64
27360,note_on,0,0,1,,,,,,,,,,,,,,,0,,,61,0
27360,note_on,0,0,1,,,,,,,,,,,,,,,0,,,65,74
27360,note_on,0,0,1,,,,,,,,,,,,,,,0,,,77,89
27360,note_on,0,0,2,,,,,,,,,,,,,,,0,,,25,0
27360,note_on,213,0,2,,,,,,,,,,,,,,,0,,,37,0
27360,note_on,480,0,1,,,,,,,,,,,,,,,0,,,73,0
27360,note_on,0,0,1,,,,,,,,,,,,,,,0,,,73,74
27409,control_change,49,0,2,,,,,,,,,,,,,,,0,64,0,,
27473,control_change,64,0,2,,,,,,,,,,,,,,,0,64,127,,
27720,note_on,0,0,2,,,,,,,,,,,,,,,0,,,49,0
27720,note_on,247,0,2,,,,,,,,,,,,,,,0,,,61,0
27720,note_on,0,0,2,,,,,,,,,,,,,,,0,,,56,0
27720,note_on,0,0,2,,,,,,,,,,,,,,,0,,,63,76
27720,note_on,360,0,1,,,,,,,,,,,,,,,0,,,77,0
27720,note_on,0,0,1,,,,,,,,,,,,,,,0,,,78,89
27720,note_on,0,0,1,,,,,,,,,,,,,,,0,,,66,74
27720,note_on,0,0,1,,,,,,,,,,,,,,,0,,,65,0
27720,note_on,0,0,1,,,,,,,,,,,,,,,0,,,73,0
27840,note_on,0,0,2,,,,,,,,,,,,,,,0,,,49,68
27840,note_on,0,0,1,,,,,,,,,,,,,,,0,,,73,78
27840,note_on,0,0,1,,,,,,,,,,,,,,,0,,,80,93
27840,note_on,0,0,1,,,,,,,,,,,,,,,0,,,68,78
27840,note_on,0,0,2,,,,,,,,,,,,,,,0,,,56,68
27840,note_on,120,0,1,,,,,,,,,,,,,,,0,,,78,0
27840,note_on,0,0,1,,,,,,,,,,,,,,,0,,,66,0
27840,note_on,120,0,2,,,,,,,,,,,,,,,0,,,63,0
27840,note_on,0,0,2,,,,,,,,,,,,,,,0,,,65,80
27889,control_change,49,0,2,,,,,,,,,,,,,,,0,64,0,,
27939,control_change,50,0,2,,,,,,,,,,,,,,,0,64,127,,
28200,note_on,0,0,1,,,,,,,,,,,,,,,0,,,82,93
28200,note_on,0,0,1,,,,,,,,,,,,,,,0,,,70,78
28200,note_on,0,0,1,,,,,,,,,,,,,,,0,,,80,0
28200,note_on,360,0,1,,,,,,,,,,,,,,,0,,,73,0
28200,note_on,0,0,1,,,,,,,,,,,,,,,0,,,68,0
28200,note_on,0,0,2,,,,,,,,,,,,,,,0,,,56,0
28200,note_on,0,0,2,,,,,,,,,,,,,,,0,,,49,0
28200,note_on,0,0,2,,,,,,,,,,,,,,,0,,,66,80
28200,note_on,261,0,2,,,,,,,,,,,,,,,0,,,65,0
28320,set_tempo,2400,1,0,,,,,,,,,,,,1100917,,,,,,,
28320,note_on,0,0,2,,,,,,,,,,,,,,,0,,,63,73
28320,note_on,120,0,1,,,,,,,,,,,,,,,0,,,82,0
28320,note_on,0,0,1,,,,,,,,,,,,,,,0,,,70,0
28320,note_on,0,0,1,,,,,,,,,,,,,,,0,,,72,84
28320,note_on,0,0,1,,,,,,,,,,,,,,,0,,,80,84
28320,note_on,0,0,1,,,,,,,,,,,,,,,0,,,84,99
28320,note_on,0,0,2,,,,,,,,,,,,,,,0,,,56,73
28320,note_on,0,0,2,,,,,,,,,,,,,,,0,,,68,86
28320,note_on,120,0,2,,,,,,,,,,,,,,,0,,,66,0
28369,control_change,49,0,2,,,,,,,,,,,,,,,0,64,0,,
28433,control_change,64,0,2,,,,,,,,,,,,,,,0,64,127,,
28680,note_on,0,0,2,,,,,,,,,,,,,,,0,,,65,85
28680,note_on,0,0,1,,,,,,,,,,,,,,,0,,,85,102
28680,note_on,0,0,1,,,,,,,,,,,,,,,0,,,73,88
28680,note_on,0,0,1,,,,,,,,,,,,,,,0,,,72,0
28680,note_on,0,0,1,,,,,,,,,,,,,,,0,,,80,0
28680,note_on,360,0,1,,,,,,,,,,,,,,,0,,,84,0
28680,note_on,0,0,2,,,,,,,,,,,,,,,0,,,56,0
28680,note_on,247,0,2,,,,,,,,,,,,,,,0,,,68,0
28680,note_on,0,0,2,,,,,,,,,,,,,,,0,,,63,0
28800,control_change,0,0,2,,,,,,,,,,,,,,,0,64,0,,
28800,note_on,0,0,2,,,,,,,,,,,,,,,0,,,32,77
28800,note_on,0,0,1,,,,,,,,,,,,,,,0,,,77,88
28800,note_on,0,0,1,,,,,,,,,,,,,,,0,,,84,88
28800,set_tempo,480,1,0,,,,,,,,,,,,1071429,,,,,,,
28800,note_on,0,0,1,,,,,,,,,,,,,,,0,,,80,88
28800,note_on,0,0,1,,,,,,,,,,,,,,,0,,,89,103
28800,note_on,0,0,2,,,,,,,,,,,,,,,0,,,44,92
28800,note_on,120,0,1,,,,,,,,,,,,,,,0,,,85,0
28800,note_on,0,0,1,,,,,,,,,,,,,,,0,,,73,0
28800,note_on,120,0,2,,,,,,,,,,,,,,,0,,,65,0
28909,control_change,109,0,2,,,,,,,,,,,,,,,0,64,127,,
29280,note_on,371,0,2,,,,,,,,,,,,,,,0,,,44,0
29280,note_on,0,0,2,,,,,,,,,,,,,,,0,,,32,0
29280,note_on,0,0,2,,,,,,,,,,,,,,,0,,,63,69
29280,note_on,0,0,2,,,,,,,,,,,,,,,0,,,66,69
29280,note_on,0,0,2,,,,,,,,,,,,,,,0,,,72,81
29640,note_on,360,0,2,,,,,,,,,,,,,,,0,,,72,0
29640,note_on,0,0,2,,,,,,,,,,,,,,,0,,,61,65
29640,note_on,0,0,2,,,,,,,,,,,,,,,0,,,63,0
29640,note_on,0,0,2,,,,,,,,,,,,,,,0,,,70,76
29640,note_on,0,0,2,,,,,,,,,,,,,,,0,,,66,65
29640,note_on,0,0,2,,,,,,,,,,,,,,,0,,,66,0
29760,note_on,0,0,2,,,,,,,,,,,,,,,0,,,61,63
29760,note_on,0,0,2,,,,,,,,,,,,,,,0,,,61,0
29760,note_on,0,0,2,,,,,,,,,,,,,,,0,,,66,0
29760,note_on,120,0,2,,,,,,,,,,,,,,,0,,,70,0
29760,note_on,0,0,2,,,,,,,,,,,,,,,0,,,66,63
29760,note_on,0,0,1,,,,,,,,,,,,,,,0,,,89,0
29760,note_on,0,0,2,,,,,,,,,,,,,,,0,,,70,75
29760,note_on,960,0,1,,,,,,,,,,,,,,,0,,,77,0
29760,note_on,0,0,1,,,,,,,,,,,,,,,0,,,87,95
29760,note_on,0,0,1,,,,,,,,,,,,,,,0,,,75,79
29869,control_change,109,0,2,,,,,,,,,,,,,,,0,64,0,,
29909,control_change,40,0,2,,,,,,,,,,,,,,,0,64,127,,
30120,note_on,211,0,2,,,,,,,,,,,,,,,0,,,70,0
30120,note_on,0,0,2,,,,,,,,,,,,,,,0,,,66,0
30120,note_on,0,0,2,,,,,,,,,,,,,,,0,,,61,0
30120,note_on,0,0,2,,,,,,,,,,,,,,,0,,,60,59
30120,note_on,0,0,2,,,,,,,,,,,,,,,0,,,66,59
30120,note_on,0,0,2,,,,,,,,,,,,,,,0,,,68,71
30240,note_on,0,0,2,,,,,,,,,,,,,,,0,,,66,0
30240,note_on,0,0,2,,,,,,,,,,,,,,,0,,,68,68
30240,note_on,0,0,2,,,,,,,,,,,,,,,0,,,66,57
30240,note_on,0,0,2,,,,,,,,,,,,,,,0,,,60,0
30240,note_on,0,0,2,,,,,,,,,,,,,,,0,,,60,57
30240,note_on,120,0,2,,,,,,,,,,,,,,,0,,,68,0
30286,control_change,46,0,2,,,,,,,,,,,,,,,0,64,0,,
30337,control_change,51,0,2,,,,,,,,,,,,,,,0,64,127,,
30480,note_on,0,0,1,,,,,,,,,,,,,,,0,,,75,0
30480,note_on,720,0,1,,,,,,,,,,,,,,,0,,,87,0
30480,note_on,0,0,1,,,,,,,,,,,,,,,0,,,80,0
30480,note_on,0,0,1,,,,,,,,,,,,,,,0,,,84,0
30600,note_on,120,0,1,,,,,,,,,,,,,,,0,,,78,89
30600,note_on,0,0,1,,,,,,,,,,,,,,,0,,,72,75
30600,note_on,0,0,1,,,,,,,,,,,,,,,0,,,75,75
30600,note_on,0,0,1,,,,,,,,,,,,,,,0,,,66,75
30600,note_on,0,0,2,,,,,,,,,,,,,,,0,,,66,0
30600,note_on,0,0,2,,,,,,,,,,,,,,,0,,,60,0
30600,note_on,0,0,2,,,,,,,,,,,,,,,0,,,57,66
30600,note_on,0,0,2,,,,,,,,,,,,,,,0,,,63,77
30600,set_tempo,1800,1,0,,,,,,,,,,,,1176471,,,,,,,
30600,note_on,263,0,2,,,,,,,,,,,,,,,0,,,68,0
30600,note_on,0,0,2,,,,,,,,,,,,,,,0,,,60,66
30720,note_on,0,0,1,,,,,,,,,,,,,,,0,,,72,80
30720,note_on,0,0,1,,,,,,,,,,,,,,,0,,,77,102
30720,note_on,0,0,1,,,,,,,,,,,,,,,0,,,65,80
30720,note_on,0,0,1,,,,,,,,,,,,,,,0,,,75,80
30720,note_on,0,0,1,,,,,,,,,,,,,,,0,,,75,0
30720,note_on,0,0,1,,,,,,,,,,,,,,,0,,,72,0
30720,note_on,120,0,1,,,,,,,,,,,,,,,0,,,66,0
30720,note_on,0,0,1,,,,,,,,,,,,,,,0,,,78,0
30720,set_tempo,120,1,0,,,,,,,,,,,,1071429,,,,,,,
30720,note_on,120,0,2,,,,,,,,,,,,,,,0,,,63,0
30720,note_on,0,0,2,,,,,,,,,,,,,,,0,,,60,0
30720,control_change,0,0,2,,,,,,,,,,,,,,,0,64,0,,
30720,note_on,0,0,2,,,,,,,,,,,,,,,0,,,57,0
30720,note_on,0,0,2,,,,,,,,,,,,,,,0,,,46,78
30720,note_on,0,0,2,,,,,,,,,,,,,,,0,,,34,66
30806,control_change,86,0,2,,,,,,,,,,,,,,,0,64,127,,
31200,note_on,0,0,2,,,,,,,,,,,,,,,0,,,53,63
31200,note_on,0,0,2,,,,,,,,,,,,,,,0,,,34,0
31200,note_on,394,0,2,,,,,,,,,,,,,,,0,,,46,0
31200,note_on,480,0,1,,,,,,,,,,,,,,,0,,,77,0
31200,note_on,0,0,1,,,,,,,,,,,,,,,0,,,75,0
31200,note_on,0,0,1,,,,,,,,,,,,,,,0,,,65,0
31200,note_on,0,0,1,,,,,,,,,,,,,,,0,,,72,0
31200,note_on,0,0,1,,,,,,,,,,,,,,,0,,,70,74
31200,note_on,0,0,1,,,,,,,,,,,,,,,0,,,65,74
31200,note_on,0,0,1,,,,,,,,,,,,,,,0,,,73,74
31200,note_on,0,0,1,,,,,,,,,,,,,,,0,,,77,89
31200,note_on,0,0,2,,,,,,,,,,,,,,,0,,,61,75
31200,note_on,0,0,2,,,,,,,,,,,,,,,0,,,58,63
31234,control_change,34,0,2,,,,,,,,,,,,,,,0,64,0,,
31291,control_change,57,0,2,,,,,,,,,,,,,,,0,64,127,,
31560,note_on,0,0,1,,,,,,,,,,,,,,,0,,,73,0
31560,note_on,0,0,1,,,,,,,,,,,,,,,0,,,67,74
31560,note_on,0,0,1,,,,,,,,,,,,,,,0,,,79,89
31560,note_on,0,0,1,,,,,,,,,,,,,,,0,,,70,0
31560,note_on,360,0,1,,,,,,,,,,,,,,,0,,,77,0
31560,note_on,0,0,1,,,,,,,,,,,,,,,0,,,65,0
31680,note_on,120,0,1,,,,,,,,,,,,,,,0,,,79,0
31680,note_on,0,0,1,,,,,,,,,,,,,,,0,,,67,0
31680,note_on,0,0,1,,,,,,,,,,,,,,,0,,,77,78
31680,note_on,0,0,1,,,,,,,,,,,,,,,0,,,73,78
31680,note_on,0,0,2,,,,,,,,,,,,,,,0,,,53,0
31680,note_on,0,0,2,,,,,,,,,,,,,,,0,,,49,80
31680,note_on,0,0,2,,,,,,,,,,,,,,,0,,,37,68
31680,note_on,0,0,1,,,,,,,,,,,,,,,0,,,81,93
31680,note_on,0,0,2,,,,,,,,,,,,,,,0,,,58,0
31680,note_on,389,0,2,,,,,,,,,,,,,,,0,,,61,0
31680,note_on,0,0,1,,,,,,,,,,,,,,,0,,,69,78
31743,control_change,63,0,2,,,,,,,,,,,,,,,0,64,0,,
31811,control_change,68,0,2,,,,,,,,,,,,,,,0,64,127,,
32040,note_on,360,0,1,,,,,,,,,,,,,,,0,,,81,0
32040,note_on,0,0,1,,,,,,,,,,,,,,,0,,,77,0
32040,note_on,0,0,1,,,,,,,,,,,,,,,0,,,69,0
32040,note_on,0,0,1,,,,,,,,,,,,,,,0,,,73,0
32040,note_on,0,0,1,,,,,,,,,,,,,,,0,,,70,78
32040,note_on,0,0,1,,,,,,,,,,,,,,,0,,,82,93
32160,note_on,0,0,1,,,,,,,,,,,,,,,0,,,84,99
32160,note_on,0,0,2,,,,,,,,,,,,,,,0,,,53,64
32160,note_on,0,0,2,,,,,,,,,,,,,,,0,,,58,64
32160,note_on,0,0,2,,,,,,,,,,,,,,,0,,,61,64
32160,note_on,0,0,2,,,,,,,,,,,,,,,0,,,65,76
32160,note_on,0,0,2,,,,,,,,,,,,,,,0,,,37,0
32160,note_on,0,0,1,,,,,,,,,,,,,,,0,,,77,84
32160,note_on,120,0,1,,,,,,,,,,,,,,,0,,,82,0
32160,note_on,0,0,1,,,,,,,,,,,,,,,0,,,70,0
32160,note_on,0,0,1,,,,,,,,,,,,,,,0,,,72,84
32160,set_tempo,1440,1,0,,,,,,,,,,,,1100917,,,,,,,
32160,note_on,349,0,2,,,,,,,,,,,,,,,0,,,49,0
32189,control_change,29,0,2,,,,,,,,,,,,,,,0,64,0,,
32240,control_change,51,0,2,,,,,,,,,,,,,,,0,64,127,,
32480,set_tempo,320,1,0,,,,,,,,,,,,1318681,,,,,,,
32520,note_on,0,0,1,,,,,,,,,,,,,,,0,,,73,88
32520,note_on,0,0,1,,,,,,,,,,,,,,,0,,,85,102
32520,note_on,0,0,1,,,,,,,,,,,,,,,0,,,72,0
32520,note_on,0,0,1,,,,,,,,,,,,,,,0,,,77,0
32520,note_on,360,0,1,,,,,,,,,,,,,,,0,,,84,0
32580,set_tempo,100,1,0,,,,,,,,,,,,1518987,,,,,,,
32580,note_on,0,0,1,,,,,,,,,,,,,,,0,,,70,88
32580,note_on,0,0,1,,,,,,,,,,,,,,,0,,,73,0
32580,note_on,60,0,1,,,,,,,,,,,,,,,0,,,85,0
32600,note_on,20,0,1,,,,,,,,,,,,,,,0,,,76,88
32620,note_on,20,0,1,,,,,,,,,,,,,,,0,,,79,88
32640,note_on,400,0,2,,,,,,,,,,,,,,,0,,,53,0
32640,note_on,0,0,2,,,,,,,,,,,,,,,0,,,65,0
32640,note_on,20,0,1,,,,,,,,,,,,,,,0,,,85,103
32640,note_on,0,0,2,,,,,,,,,,,,,,,0,,,61,0
32640,note_on,0,0,2,,,,,,,,,,,,,,,0,,,58,0
32640,set_tempo,60,1,0,,,,,,,,,,,,1100917,,,,,,,
32640,note_on,0,0,2,,,,,,,,,,,,,,,0,,,41,92
32640,control_change,0,0,2,,,,,,,,,,,,,,,0,64,0,,
32640,note_on,0,0,2,,,,,,,,,,,,,,,0,,,29,77
32767,control_change,127,0,2,,,,,,,,,,,,,,,0,64,127,,
33120,note_on,353,0,2,,,,,,,,,,,,,,,0,,,41,0
33120,note_on,0,0,2,,,,,,,,,,,,,,,0,,,29,0
33120,note_on,0,0,2,,,,,,,,,,,,,,,0,,,53,69
33120,note_on,0,0,2,,,,,,,,,,,,,,,0,,,58,69
33120,note_on,0,0,2,,,,,,,,,,,,,,,0,,,61,69
33120,note_on,0,0,2,,,,,,,,,,,,,,,0,,,67,81
33600,note_on,0,0,2,,,,,,,,,,,,,,,0,,,69,75
33600,note_on,0,0,1,,,,,,,,,,,,,,,0,,,79,0
33600,note_on,0,0,1,,,,,,,,,,,,,,,0,,,76,0
33600,note_on,0,0,1,,,,,,,,,,,,,,,0,,,70,0
33600,note_on,960,0,1,,,,,,,,,,,,,,,0,,,85,0
33600,note_on,0,0,2,,,,,,,,,,,,,,,0,,,58,0
33600,note_on,0,0,2,,,,,,,,,,,,,,,0,,,57,64
33600,note_on,0,0,2,,,,,,,,,,,,,,,0,,,53,64
33600,note_on,0,0,2,,,,,,,,,,,,,,,0,,,61,0
33600,note_on,0,0,2,,,,,,,,,,,,,,,0,,,53,0
33600,note_on,480,0,2,,,,,,,,,,,,,,,0,,,67,0
33600,note_on,0,0,2,,,,,,,,,,,,,,,0,,,60,64
33600,note_on,0,0,1,,,,,,,,,,,,,,,0,,,72,76
33600,note_on,0,0,1,,,,,,,,,,,,,,,0,,,77,76
33600,note_on,0,0,1,,,,,,,,,,,,,,,0,,,84,90
33671,control_change,71,0,2,,,,,,,,,,,,,,,0,64,0,,
33784,control_change,113,0,2,,,,,,,,,,,,,,,0,64,127,,
34080,note_on,0,0,2,,,,,,,,,,,,,,,0,,,53,81
34080,note_on,0,0,2,,,,,,,,,,,,,,,0,,,60,0
34080,note_on,0,0,2,,,,,,,,,,,,,,,0,,,57,0
34080,note_on,0,0,2,,,,,,,,,,,,,,,0,,,53,0
34080,note_on,296,0,2,,,,,,,,,,,,,,,0,,,69,0
34080,set_tempo,1440,1,0,,,,,,,,,,,,1481481,,,,,,,
34080,note_on,480,0,1,,,,,,,,,,,,,,,0,,,84,0
34080,note_on,0,0,1,,,,,,,,,,,,,,,0,,,77,0
34080,note_on,0,0,1,,,,,,,,,,,,,,,0,,,72,0
34151,control_change,71,0,2,,,,,,,,,,,,,,,0,64,0,,
34320,note_on,0,0,2,,,,,,,,,,,,,,,0,,,43,61
34320,note_on,169,0,2,,,,,,,,,,,,,,,0,,,53,0
34320,set_tempo,240,1,0,,,,,,,,,,,,600000,,,,,,,
34340,set_tempo,20,1,0,,,,,,,,,,,,603015,,,,,,,
34340,control_change,20,0,2,,,,,,,,,,,,,,,0,64,127,,
34360,set_tempo,20,1,0,,,,,,,,,,,,609137,,,,,,,
34380,set_tempo,20,1,0,,,,,,,,,,,,615385,,,,,,,
34400,note_on,60,0,2,,,,,,,,,,,,,,,0,,,43,0
34400,note_on,0,0,2,,,,,,,,,,,,,,,0,,,44,61
34400,set_tempo,20,1,0,,,,,,,,,,,,618557,,,,,,,
34420,set_tempo,20,1,0,,,,,,,,,,,,625000,,,,,,,
34440,set_tempo,20,1,0,,,,,,,,,,,,631579,,,,,,,
34460,set_tempo,20,1,0,,,,,,,,,,,,638298,,,,,,,
34480,note_on,80,0,2,,,,,,,,,,,,,,,0,,,44,0
34480,note_on,0,0,2,,,,,,,,,,,,,,,0,,,46,61
34480,set_tempo,20,1,0,,,,,,,,,,,,641711,,,,,,,
34500,set_tempo,20,1,0,,,,,,,,,,,,648649,,,,,,,
34520,set_tempo,20,1,0,,,,,,,,,,,,655738,,,,,,,
34540,set_tempo,20,1,0,,,,,,,,,,,,662983,,,,,,,
34560,note_on,480,0,1,,,,,,,,,,,,,,,0,,,56,68
34560,note_on,0,0,1,,,,,,,,,,,,,,,0,,,54,68
34560,note_on,0,0,1,,,,,,,,,,,,,,,0,,,68,80
34560,note_on,80,0,2,,,,,,,,,,,,,,,0,,,46,0
34560,note_on,0,0,2,,,,,,,,,,,,,,,0,,,44,61
34560,set_tempo,20,1,0,,,,,,,,,,,,1111111,,,,,,,
34560,note_on,0,0,1,,,,,,,,,,,,,,,0,,,60,68
34560,note_on,0,0,1,,,,,,,,,,,,,,,0,,,65,68
34569,control_change,9,0,2,,,,,,,,,,,,,,,0,64,0,,
34600,control_change,31,0,2,,,,,,,,,,,,,,,0,64,127,,
34605,note_on,0,0,2,,,,,,,,,,,,,,,0,,,46,56
34605,note_on,5,0,2,,,,,,,,,,,,,,,0,,,44,0
34640,set_tempo,80,1,0,,,,,,,,,,,,1100917,,,,,,,
34650,note_on,45,0,2,,,,,,,,,,,,,,,0,,,46,0
34650,note_on,0,0,2,,,,,,,,,,,,,,,0,,,44,64
34680,set_tempo,40,1,0,,,,,,,,,,,,1090909,,,,,,,
34695,note_on,45,0,2,,,,,,,,,,,,,,,0,,,44,0
34695,note_on,0,0,2,,,,,,,,,,,,,,,0,,,46,57
34720,set_tempo,40,1,0,,,,,,,,,,,,1081081,,,,,,,
34740,note_on,45,0,2,,,,,,,,,,,,,,,0,,,46,0
34740,note_on,0,0,2,,,,,,,,,,,,,,,0,,,44,66
34760,set_tempo,40,1,0,,,,,,,,,,,,1071429,,,,,,,
34785,note_on,45,0,2,,,,,,,,,,,,,,,0,,,44,0
34785,note_on,0,0,2,,,,,,,,,,,,,,,0,,,46,59
34800,set_tempo,40,1,0,,,,,,,,,,,,1061947,,,,,,,
34830,note_on,45,0,2,,,,,,,,,,,,,,,0,,,46,0
34830,note_on,0,0,2,,,,,,,,,,,,,,,0,,,44,68
34840,set_tempo,40,1,0,,,,,,,,,,,,1052632,,,,,,,
34875,note_on,45,0,2,,,,,,,,,,,,,,,0,,,44,0
34875,note_on,0,0,2,,,,,,,,,,,,,,,0,,,46,61
34880,set_tempo,40,1,0,,,,,,,,,,,,1043478,,,,,,,
34920,set_tempo,40,1,0,,,,,,,,,,,,1034483,,,,,,,
34920,note_on,0,0,2,,,,,,,,,,,,,,,0,,,44,70
34920,note_on,45,0,2,,,,,,,,,,,,,,,0,,,46,0
34960,set_tempo,40,1,0,,,,,,,,,,,,1025641,,,,,,,
34965,note_on,0,0,2,,,,,,,,,,,,,,,0,,,46,65
34965,note_on,45,0,2,,,,,,,,,,,,,,,0,,,44,0
35000,set_tempo,40,1,0,,,,,,,,,,,,1016949,,,,,,,
35010,note_on,0,0,2,,,,,,,,,,,,,,,0,,,44,73
35010,note_on,45,0,2,,,,,,,,,,,,,,,0,,,46,0
35020,control_change,10,0,2,,,,,,,,,,,,,,,0,64,0,,
35040,note_on,0,0,1,,,,,,,,,,,,,,,0,,,60,0
35040,note_on,480,0,1,,,,,,,,,,,,,,,0,,,68,0
35040,set_tempo,40,1,0,,,,,,,,,,,,1008403,,,,,,,
35040,note_on,0,0,1,,,,,,,,,,,,,,,0,,,56,0
35040,note_on,0,0,1,,,,,,,,,,,,,,,0,,,54,0
35040,note_on,0,0,1,,,,,,,,,,,,,,,0,,,65,0
35040,note_on,0,0,1,,,,,,,,,,,,,,,0,,,63,68
35040,note_on,0,0,1,,,,,,,,,,,,,,,0,,,56,68
35040,note_on,0,0,1,,,,,,,,,,,,,,,0,,,60,68
35040,note_on,0,0,1,,,,,,,,,,,,,,,0,,,54,68
35040,note_on,0,0,1,,,,,,,,,,,,,,,0,,,68,80
35049,control_change,29,0,2,,,,,,,,,,,,,,,0,64,127,,
35055,note_on,0,0,2,,,,,,,,,,,,,,,0,,,46,66
35055,note_on,6,0,2,,,,,,,,,,,,,,,0,,,44,0
35080,set_tempo,40,1,0,,,,,,,,,,,,1000000,,,,,,,
35100,note_on,0,0,2,,,,,,,,,,,,,,,0,,,44,72
35100,note_on,45,0,2,,,,,,,,,,,,,,,0,,,46,0
35145,note_on,45,0,2,,,,,,,,,,,,,,,0,,,44,0
35146,note_on,1,0,2,,,,,,,,,,,,,,,0,,,46,63
35160,set_tempo,80,1,0,,,,,,,,,,,,1008403,,,,,,,
35190,note_on,44,0,2,,,,,,,,,,,,,,,0,,,44,69
35191,note_on,1,0,2,,,,,,,,,,,,,,,0,,,46,0
35200,set_tempo,40,1,0,,,,,,,,,,,,1016949,,,,,,,
35235,note_on,44,0,2,,,,,,,,,,,,,,,0,,,44,0
35235,note_on,0,0,2,,,,,,,,,,,,,,,0,,,46,60
35240,set_tempo,40,1,0,,,,,,,,,,,,1025641,,,,,,,
35280,set_tempo,40,1,0,,,,,,,,,,,,1034483,,,,,,,
35280,note_on,45,0,2,,,,,,,,,,,,,,,0,,,44,66
35281,note_on,1,0,2,,,,,,,,,,,,,,,0,,,46,0
35320,set_tempo,40,1,0,,,,,,,,,,,,1043478,,,,,,,
35340,note_on,0,0,2,,,,,,,,,,,,,,,0,,,46,58
35340,note_on,59,0,2,,,,,,,,,,,,,,,0,,,44,0
35360,set_tempo,40,1,0,,,,,,,,,,,,1052632,,,,,,,
35400,note_on,0,0,2,,,,,,,,,,,,,,,0,,,43,64
35400,set_tempo,40,1,0,,,,,,,,,,,,1061947,,,,,,,
35400,note_on,60,0,2,,,,,,,,,,,,,,,0,,,46,0
35440,set_tempo,40,1,0,,,,,,,,,,,,1071429,,,,,,,
35460,note_on,0,0,2,,,,,,,,,,,,,,,0,,,44,55
35460,note_on,60,0,2,,,,,,,,,,,,,,,0,,,43,0
35480,set_tempo,40,1,0,,,,,,,,,,,,1081081,,,,,,,
35520,note_on,60,0,2,,,,,,,,,,,,,,,0,,,44,0
35520,note_on,0,0,2,,,,,,,,,,,,,,,0,,,49,68
35520,note_on,0,0,1,,,,,,,,,,,,,,,0,,,60,0
35520,set_tempo,40,1,0,,,,,,,,,,,,1100917,,,,,,,
35520,note_on,0,0,1,,,,,,,,,,,,,,,0,,,63,0
35520,note_on,0,0,1,,,,,,,,,,,,,,,0,,,56,0
35520,note_on,480,0,1,,,,,,,,,,,,,,,0,,,68,0
35520,note_on,0,0,1,,,,,,,,,,,,,,,0,,,54,0
35520,note_on,0,0,1,,,,,,,,,,,,,,,0,,,53,68
35520,note_on,0,0,1,,,,,,,,,,,,,,,0,,,61,68
35520,note_on,0,0,1,,,,,,,,,,,,,,,0,,,68,80
35526,control_change,6,0,2,,,,,,,,,,,,,,,0,64,0,,
35629,control_change,103,0,2,,,,,,,,,,,,,,,0,64,127,,
36000,note_on,371,0,2,,,,,,,,,,,,,,,0,,,49,0
36000,set_tempo,480,1,0,,,,,,,,,,,,1500000,,,,,,,
36000,note_on,480,0,1,,,,,,,,,,,,,,,0,,,68,0
36000,note_on,0,0,1,,,,,,,,,,,,,,,0,,,53,0
36000,note_on,0,0,1,,,,,,,,,,,,,,,0,,,61,0
36000,note_on,0,0,2,,,,,,,,,,,,,,,0,,,49,79
36017,control_change,17,0,2,,,,,,,,,,,,,,,0,64,0,,
36240,note_on,0,0,2,,,,,,,,,,,,,,,0,,,40,61
36240,set_tempo,240,1,0,,,,,,,,,,,,609137,,,,,,,
36240,note_on,223,0,2,,,,,,,,,,,,,,,0,,,49,0
36260,set_tempo,20,1,0,,,,,,,,,,,,612245,,,,,,,
36269,control_change,29,0,2,,,,,,,,,,,,,,,0,64,127,,
36280,set_tempo,20,1,0,,,,,,,,,,,,618557,,,,,,,
36300,set_tempo,20,1,0,,,,,,,,,,,,621762,,,,,,,
36320,set_tempo,20,1,0,,,,,,,,,,,,628272,,,,,,,
36320,note_on,0,0,2,,,,,,,,,,,,,,,0,,,41,61
36320,note_on,51,0,2,,,,,,,,,,,,,,,0,,,40,0
36340,set_tempo,20,1,0,,,,,,,,,,,,631579,,,,,,,
36360,set_tempo,20,1,0,,,,,,,,,,,,638298,,,,,,,
36380,set_tempo,20,1,0,,,,,,,,,,,,641711,,,,,,,
36400,set_tempo,20,1,0,,,,,,,,,,,,648649,,,,,,,
36400,note_on,0,0,2,,,,,,,,,,,,,,,0,,,43,61
36400,note_on,80,0,2,,,,,,,,,,,,,,,0,,,41,0
36420,set_tempo,20,1,0,,,,,,,,,,,,652174,,,,,,,
36440,set_tempo,20,1,0,,,,,,,,,,,,659341,,,,,,,
36460,set_tempo,20,1,0,,,,,,,,,,,,666667,,,,,,,
36480,note_on,0,0,2,,,,,,,,,,,,,,,0,,,41,61
36480,control_change,0,0,2,,,,,,,,,,,,,,,0,64,0,,
36480,note_on,80,0,2,,,,,,,,,,,,,,,0,,,43,0
36480,set_tempo,20,1,0,,,,,,,,,,,,1111111,,,,,,,
36480,note_on,480,0,1,,,,,,,,,,,,,,,0,,,57,68
36480,note_on,0,0,1,,,,,,,,,,,,,,,0,,,51,68
36480,note_on,0,0,1,,,,,,,,,,,,,,,0,,,61,68
36480,note_on,0,0,1,,,,,,,,,,,,,,,0,,,65,80
36503,control_change,23,0,2,,,,,,,,,,,,,,,0,64,127,,
36525,note_on,22,0,2,,,,,,,,,,,,,,,0,,,41,0
36525,note_on,0,0,2,,,,,,,,,,,,,,,0,,,42,56
36560,set_tempo,80,1,0,,,,,,,,,,,,1100917,,,,,,,
36570,note_on,45,0,2,,,,,,,,,,,,,,,0,,,42,0
36570,note_on,0,0,2,,,,,,,,,,,,,,,0,,,41,64
36600,set_tempo,40,1,0,,,,,,,,,,,,1090909,,,,,,,
36615,note_on,45,0,2,,,,,,,,,,,,,,,0,,,41,0
36615,note_on,0,0,2,,,,,,,,,,,,,,,0,,,42,57
36640,set_tempo,40,1,0,,,,,,,,,,,,1081081,,,,,,,
36660,note_on,45,0,2,,,,,,,,,,,,,,,0,,,42,0
36660,note_on,0,0,2,,,,,,,,,,,,,,,0,,,41,66
36680,set_tempo,40,1,0,,,,,,,,,,,,1071429,,,,,,,
36705,note_on,45,0,2,,,,,,,,,,,,,,,0,,,41,0
36705,note_on,0,0,2,,,,,,,,,,,,,,,0,,,42,59
36720,set_tempo,40,1,0,,,,,,,,,,,,1061947,,,,,,,
36750,note_on,0,0,2,,,,,,,,,,,,,,,0,,,41,68
36750,note_on,45,0,2,,,,,,,,,,,,,,,0,,,42,0
36760,set_tempo,40,1,0,,,,,,,,,,,,1052632,,,,,,,
36795,note_on,45,0,2,,,,,,,,,,,,,,,0,,,41,0
36795,note_on,0,0,2,,,,,,,,,,,,,,,0,,,42,61
36800,set_tempo,40,1,0,,,,,,,,,,,,1043478,,,,,,,
36840,set_tempo,40,1,0,,,,,,,,,,,,1034483,,,,,,,
36840,note_on,0,0,2,,,,,,,,,,,,,,,0,,,41,70
36840,note_on,45,0,2,,,,,,,,,,,,,,,0,,,42,0
36880,set_tempo,40,1,0,,,,,,,,,,,,1025641,,,,,,,
36885,note_on,45,0,2,,,,,,,,,,,,,,,0,,,41,0
36885,note_on,0,0,2,,,,,,,,,,,,,,,0,,,42,65
36920,set_tempo,40,1,0,,,,,,,,,,,,1016949,,,,,,,
36930,note_on,45,0,2,,,,,,,,,,,,,,,0,,,42,0
36930,note_on,0,0,2,,,,,,,,,,,,,,,0,,,41,73
36960,note_on,0,0,1,,,,,,,,,,,,,,,0,,,57,0
36960,note_on,0,0,1,,,,,,,,,,,,,,,0,,,51,68
36960,note_on,0,0,1,,,,,,,,,,,,,,,0,,,60,68
36960,note_on,0,0,1,,,,,,,,,,,,,,,0,,,57,68
36960,note_on,0,0,1,,,,,,,,,,,,,,,0,,,65,80
36960,note_on,480,0,1,,,,,,,,,,,,,,,0,,,65,0
36960,note_on,0,0,1,,,,,,,,,,,,,,,0,,,51,0
36960,set_tempo,40,1,0,,,,,,,,,,,,1008403,,,,,,,
36960,note_on,0,0,1,,,,,,,,,,,,,,,0,,,61,0
36975,note_on,0,0,2,,,,,,,,,,,,,,,0,,,42,66
36975,note_on,45,0,2,,,,,,,,,,,,,,,0,,,41,0
36980,control_change,5,0,2,,,,,,,,,,,,,,,0,64,0,,
37000,set_tempo,40,1,0,,,,,,,,,,,,1000000,,,,,,,
37006,control_change,26,0,2,,,,,,,,,,,,,,,0,64,127,,
37020,note_on,0,0,2,,,,,,,,,,,,,,,0,,,41,72
37020,note_on,14,0,2,,,,,,,,,,,,,,,0,,,42,0
37065,note_on,45,0,2,,,,,,,,,,,,,,,0,,,41,0
37066,note_on,1,0,2,,,,,,,,,,,,,,,0,,,42,63
37080,set_tempo,80,1,0,,,,,,,,,,,,1008403,,,,,,,
37110,note_on,44,0,2,,,,,,,,,,,,,,,0,,,41,69
37111,note_on,1,0,2,,,,,,,,,,,,,,,0,,,42,0
37120,set_tempo,40,1,0,,,,,,,,,,,,1016949,,,,,,,
37155,note_on,0,0,2,,,,,,,,,,,,,,,0,,,42,60
37155,note_on,44,0,2,,,,,,,,,,,,,,,0,,,41,0
37160,set_tempo,40,1,0,,,,,,,,,,,,1025641,,,,,,,
37200,note_on,45,0,2,,,,,,,,,,,,,,,0,,,41,66
37200,set_tempo,40,1,0,,,,,,,,,,,,1034483,,,,,,,
37201,note_on,1,0,2,,,,,,,,,,,,,,,0,,,42,0
37240,set_tempo,40,1,0,,,,,,,,,,,,1043478,,,,,,,
37260,note_on,59,0,2,,,,,,,,,,,,,,,0,,,41,0
37260,note_on,0,0,2,,,,,,,,,,,,,,,0,,,42,58
37280,set_tempo,40,1,0,,,,,,,,,,,,1052632,,,,,,,
37320,note_on,60,0,2,,,,,,,,,,,,,,,0,,,42,0
37320,set_tempo,40,1,0,,,,,,,,,,,,1061947,,,,,,,
37320,note_on,0,0,2,,,,,,,,,,,,,,,0,,,40,64
37360,set_tempo,40,1,0,,,,,,,,,,,,1071429,,,,,,,
37380,note_on,0,0,2,,,,,,,,,,,,,,,0,,,41,55
37380,note_on,60,0,2,,,,,,,,,,,,,,,0,,,40,0
37400,set_tempo,40,1,0,,,,,,,,,,,,1081081,,,,,,,
37440,note_on,0,0,1,,,,,,,,,,,,,,,0,,,65,0
37440,note_on,480,0,1,,,,,,,,,,,,,,,0,,,51,0
37440,note_on,0,0,1,,,,,,,,,,,,,,,0,,,49,68
37440,note_on,60,0,2,,,,,,,,,,,,,,,0,,,41,0
37440,note_on,0,0,2,,,,,,,,,,,,,,,0,,,42,64
37440,note_on,0,0,1,,,,,,,,,,,,,,,0,,,57,0
37440,note_on,0,0,1,,,,,,,,,,,,,,,0,,,60,0
37440,set_tempo,40,1,0,,,,,,,,,,,,1100917,,,,,,,
37440,note_on,0,0,1,,,,,,,,,,,,,,,0,,,58,80
37451,control_change,11,0,2,,,,,,,,,,,,,,,0,64,0,,
37543,control_change,92,0,2,,,,,,,,,,,,,,,0,64,127,,
37920,note_on,0,0,2,,,,,,,,,,,,,,,0,,,41,49
37920,note_on,377,0,2,,,,,,,,,,,,,,,0,,,42,0
37920,set_tempo,480,1,0,,,,,,,,,,,,1132075,,,,,,,
38160,note_on,240,0,2,,,,,,,,,,,,,,,0,,,41,0
38160,set_tempo,240,1,0,,,,,,,,,,,,1176471,,,,,,,
38160,note_on,0,0,2,,,,,,,,,,,,,,,0,,,37,40
38400,note_on,960,0,1,,,,,,,,,,,,,,,0,,,58,0
38400,note_on,0,0,1,,,,,,,,,,,,,,,0,,,49,0
38400,note_on,0,0,1,,,,,,,,,,,,,,,0,,,46,39
38400,note_on,0,0,1,,,,,,,,,,,,,,,0,,,53,39
38400,note_on,0,0,1,,,,,,,,,,,,,,,0,,,58,46
38400,note_on,240,0,2,,,,,,,,,,,,,,,0,,,37,0
38400,control_change,0,0,2,,,,,,,,,,,,,,,0,64,0,,
38400,control_change,0,0,2,,,,,,,,,,,,,,,0,64,0,,
38400,note_on,0,0,2,,,,,,,,,,,,,,,0,,,34,32
38400,note_on,0,0,2,,,,,,,,,,,,,,,0,,,41,32
38400,note_on,0,0,2,,,,,,,,,,,,,,,0,,,46,39
38400,set_tempo,240,1,0,,,,,,,,,,,,1044386,,,,,,,
38464,control_change,64,0,2,,,,,,,,,,,,,,,0,64,127,,
38880,note_on,480,0,1,,,,,,,,,,,,,,,0,,,58,0
38880,note_on,416,0,2,,,,,,,,,,,,,,,0,,,46,0
38880,note_on,0,0,2,,,,,,,,,,,,,,,0,,,41,0
38880,note_on,0,0,2,,,,,,,,,,,,,,,0,,,34,0
38880,note_on,0,0,2,,,,,,,,,,,,,,,0,,,37,28
38880,note_on,0,0,2,,,,,,,,,,,,,,,0,,,42,34
38880,note_on,0,0,2,,,,,,,,,,,,,,,0,,,49,34
38880,set_tempo,480,1,0,,,,,,,,,,,,1075076,,,,,,,
38880,note_on,0,0,1,,,,,,,,,,,,,,,0,,,53,0
38880,note_on,0,0,1,,,,,,,,,,,,,,,0,,,54,39
38880,note_on,0,0,1,,,,,,,,,,,,,,,0,,,46,0
38880,note_on,0,0,1,,,,,,,,,,,,,,,0,,,58,46
38894,control_change,14,0,2,,,,,,,,,,,,,,,0,64,0,,
39021,control_change,127,0,2,,,,,,,,,,,,,,,0,64,127,,
39240,note_on,360,0,1,,,,,,,,,,,,,,,0,,,58,0
39240,note_on,0,0,1,,,,,,,,,,,,,,,0,,,58,41
39360,note_on,0,0,2,,,,,,,,,,,,,,,0,,,46,39
39360,note_on,0,0,2,,,,,,,,,,,,,,,0,,,41,32
39360,note_on,0,0,2,,,,,,,,,,,,,,,0,,,37,0
39360,note_on,0,0,2,,,,,,,,,,,,,,,0,,,42,0
39360,note_on,339,0,2,,,,,,,,,,,,,,,0,,,49,0
39360,note_on,0,0,2,,,,,,,,,,,,,,,0,,,34,32
39360,note_on,0,0,1,,,,,,,,,,,,,,,0,,,54,0
39360,note_on,120,0,1,,,,,,,,,,,,,,,0,,,58,0
39360,note_on,0,0,1,,,,,,,,,,,,,,,0,,,58,46
39360,set_tempo,480,1,0,,,,,,,,,,,,1067236,,,,,,,
39360,note_on,0,0,1,,,,,,,,,,,,,,,0,,,53,39
39371,control_change,11,0,2,,,,,,,,,,,,,,,0,64,0,,
39494,control_change,123,0,2,,,,,,,,,,,,,,,0,64,127,,
39840,note_on,480,0,1,,,,,,,,,,,,,,,0,,,58,0
39840,note_on,0,0,1,,,,,,,,,,,,,,,0,,,53,0
39840,note_on,0,0,1,,,,,,,,,,,,,,,0,,,61,54
39840,note_on,0,0,1,,,,,,,,,,,,,,,0,,,54,44
39840,note_on,0,0,2,,,,,,,,,,,,,,,0,,,42,31
39840,set_tempo,480,1,0,,,,,,,,,,,,1044386,,,,,,,
39840,note_on,0,0,2,,,,,,,,,,,,,,,0,,,41,0
39840,note_on,0,0,2,,,,,,,,,,,,,,,0,,,34,0
39840,note_on,0,0,2,,,,,,,,,,,,,,,0,,,37,25
39840,note_on,0,0,2,,,,,,,,,,,,,,,0,,,49,31
39840,note_on,346,0,2,,,,,,,,,,,,,,,0,,,46,0
39847,control_change,7,0,2,,,,,,,,,,,,,,,0,64,0,,
39925,control_change,78,0,2,,,,,,,,,,,,,,,0,64,127,,
40200,note_on,0,0,1,,,,,,,,,,,,,,,0,,,60,49
40200,note_on,360,0,1,,,,,,,,,,,,,,,0,,,61,0
40260,note_on,60,0,1,,,,,,,,,,,,,,,0,,,60,0
40260,note_on,0,0,1,,,,,,,,,,,,,,,0,,,61,45
40320,note_on,0,0,1,,,,,,,,,,,,,,,0,,,53,44
40320,note_on,0,0,1,,,,,,,,,,,,,,,0,,,60,52
40320,note_on,0,0,1,,,,,,,,,,,,,,,0,,,54,0
40320,note_on,60,0,1,,,,,,,,,,,,,,,0,,,61,0
40320,note_on,395,0,2,,,,,,,,,,,,,,,0,,,49,0
40320,note_on,0,0,2,,,,,,,,,,,,,,,0,,,37,0
40320,note_on,0,0,2,,,,,,,,,,,,,,,0,,,34,32
40320,note_on,0,0,2,,,,,,,,,,,,,,,0,,,41,32
40320,note_on,0,0,2,,,,,,,,,,,,,,,0,,,46,39
40320,control_change,0,0,2,,,,,,,,,,,,,,,0,64,0,,
40320,note_on,0,0,2,,,,,,,,,,,,,,,0,,,42,0
40433,control_change,113,0,2,,,,,,,,,,,,,,,0,64,127,,
40680,note_on,360,0,1,,,,,,,,,,,,,,,0,,,60,0
40680,note_on,0,0,1,,,,,,,,,,,,,,,0,,,58,46
40800,note_on,120,0,1,,,,,,,,,,,,,,,0,,,58,0
40800,note_on,0,0,2,,,,,,,,,,,,,,,0,,,34,0
40800,note_on,0,0,1,,,,,,,,,,,,,,,0,,,53,0
40800,note_on,0,0,1,,,,,,,,,,,,,,,0,,,54,42
40800,note_on,0,0,2,,,,,,,,,,,,,,,0,,,37,28
40800,set_tempo,960,1,0,,,,,,,,,,,,1059509,,,,,,,
40800,note_on,0,0,2,,,,,,,,,,,,,,,0,,,49,34
40800,note_on,0,0,2,,,,,,,,,,,,,,,0,,,42,28
40800,note_on,367,0,2,,,,,,,,,,,,,,,0,,,46,0
40800,note_on,0,0,2,,,,,,,,,,,,,,,0,,,41,0
40800,note_on,0,0,1,,,,,,,,,,,,,,,0,,,58,50
40828,control_change,28,0,2,,,,,,,,,,,,,,,0,64,0,,
40984,control_change,156,0,2,,,,,,,,,,,,,,,0,64,127,,
41160,note_on,360,0,1,,,,,,,,,,,,,,,0,,,58,0
41160,note_on,0,0,1,,,,,,,,,,,,,,,0,,,58,41
41280,note_on,120,0,1,,,,,,,,,,,,,,,0,,,58,0
41280,note_on,0,0,1,,,,,,,,,,,,,,,0,,,53,39
41280,note_on,0,0,1,,,,,,,,,,,,,,,0,,,58,46
41280,note_on,0,0,1,,,,,,,,,,,,,,,0,,,54,0
41280,set_tempo,480,1,0,,,,,,,,,,,,1075076,,,,,,,
41280,note_on,0,0,2,,,,,,,,,,,,,,,0,,,37,0
41280,note_on,296,0,2,,,,,,,,,,,,,,,0,,,49,0
41280,note_on,0,0,2,,,,,,,,,,,,,,,0,,,42,0
41280,note_on,0,0,2,,,,,,,,,,,,,,,0,,,34,32
41280,note_on,0,0,2,,,,,,,,,,,,,,,0,,,41,32
41280,note_on,0,0,2,,,,,,,,,,,,,,,0,,,46,39
41315,control_change,35,0,2,,,,,,,,,,,,,,,0,64,0,,
41456,control_change,141,0,2,,,,,,,,,,,,,,,0,64,127,,
41760,note_on,0,0,2,,,,,,,,,,,,,,,0,,,45,73
41760,note_on,0,0,1,,,,,,,,,,,,,,,0,,,55,76
41760,note_on,0,0,1,,,,,,,,,,,,,,,0,,,53,0
41760,note_on,480,0,1,,,,,,,,,,,,,,,0,,,58,0
41760,note_on,0,0,1,,,,,,,,,,,,,,,0,,,61,97
41760,note_on,0,0,1,,,,,,,,,,,,,,,0,,,52,76
41760,note_on,0,0,2,,,,,,,,,,,,,,,0,,,41,0
41760,note_on,0,0,2,,,,,,,,,,,,,,,0,,,34,0
41760,note_on,0,0,2,,,,,,,,,,,,,,,0,,,33,57
41760,note_on,304,0,2,,,,,,,,,,,,,,,0,,,46,0
41809,control_change,49,0,2,,,,,,,,,,,,,,,0,64,0,,
41824,control_change,15,0,2,,,,,,,,,,,,,,,0,64,0,,
41873,control_change,49,0,2,,,,,,,,,,,,,,,0,64,127,,
42120,note_on,0,0,1,,,,,,,,,,,,,,,0,,,55,0
42120,note_on,0,0,1,,,,,,,,,,,,,,,0,,,61,0
42120,note_on,0,0,1,,,,,,,,,,,,,,,0,,,60,76
42120,note_on,360,0,1,,,,,,,,,,,,,,,0,,,52,0
42120,note_on,0,0,1,,,,,,,,,,,,,,,0,,,63,97
42120,note_on,0,0,1,,,,,,,,,,,,,,,0,,,54,76
42120,note_on,0,0,2,,,,,,,,,,,,,,,0,,,44,73
42120,note_on,247,0,2,,,,,,,,,,,,,,,0,,,45,0
42120,note_on,0,0,2,,,,,,,,,,,,,,,0,,,33,0
42120,note_on,0,0,2,,,,,,,,,,,,,,,0,,,32,57
42240,note_on,120,0,2,,,,,,,,,,,,,,,0,,,44,0
42240,note_on,0,0,2,,,,,,,,,,,,,,,0,,,25,60
42240,note_on,120,0,1,,,,,,,,,,,,,,,0,,,63,0
42240,note_on,0,0,2,,,,,,,,,,,,,,,0,,,37,76
42240,control_change,0,0,2,,,,,,,,,,,,,,,0,64,0,,
42240,note_on,0,0,1,,,,,,,,,,,,,,,0,,,60,0
42240,note_on,0,0,2,,,,,,,,,,,,,,,0,,,32,0
42240,note_on,0,0,1,,,,,,,,,,,,,,,0,,,54,0
42240,note_on,0,0,1,,,,,,,,,,,,,,,0,,,65,101
42240,note_on,0,0,1,,,,,,,,,,,,,,,0,,,61,79
42240,note_on,0,0,1,,,,,,,,,,,,,,,0,,,53,79
42318,control_change,78,0,2,,,,,,,,,,,,,,,0,64,127,,
42720,note_on,0,0,2,,,,,,,,,,,,,,,0,,,61,80
42720,note_on,0,0,2,,,,,,,,,,,,,,,0,,,56,67
42720,note_on,0,0,2,,,,,,,,,,,,,,,0,,,49,67
42720,note_on,0,0,2,,,,,,,,,,,,,,,0,,,25,0
42720,note_on,402,0,2,,,,,,,,,,,,,,,0,,,37,0
42720,note_on,0,0,1,,,,,,,,,,,,,,,0,,,73,77
42720,note_on,0,0,1,,,,,,,,,,,,,,,0,,,65,77
42720,note_on,0,0,1,,,,,,,,,,,,,,,0,,,77,93
42720,note_on,0,0,1,,,,,,,,,,,,,,,0,,,53,0
42720,note_on,0,0,1,,,,,,,,,,,,,,,0,,,61,0
42720,note_on,480,0,1,,,,,,,,,,,,,,,0,,,65,0
42769,control_change,49,0,2,,,,,,,,,,,,,,,0,64,0,,
42833,control_change,64,0,2,,,,,,,,,,,,,,,0,64,127,,
43080,note_on,360,0,1,,,,,,,,,,,,,,,0,,,73,0
43080,note_on,0,0,1,,,,,,,,,,,,,,,0,,,65,0
43080,note_on,0,0,1,,,,,,,,,,,,,,,0,,,77,0
43080,note_on,0,0,1,,,,,,,,,,,,,,,0,,,66,77
43080,note_on,0,0,1,,,,,,,,,,,,,,,0,,,78,93
43080,note_on,247,0,2,,,,,,,,,,,,,,,0,,,61,0
43080,note_on,0,0,2,,,,,,,,,,,,,,,0,,,56,0
43080,note_on,0,0,2,,,,,,,,,,,,,,,0,,,63,80
43080,note_on,0,0,2,,,,,,,,,,,,,,,0,,,49,0
43200,note_on,120,0,2,,,,,,,,,,,,,,,0,,,63,0
43200,note_on,0,0,2,,,,,,,,,,,,,,,0,,,65,85
43200,note_on,0,0,2,,,,,,,,,,,,,,,0,,,56,71
43200,note_on,0,0,2,,,,,,,,,,,,,,,0,,,49,71
43200,note_on,120,0,1,,,,,,,,,,,,,,,0,,,78,0
43200,note_on,0,0,1,,,,,,,,,,,,,,,0,,,66,0
43200,note_on,0,0,1,,,,,,,,,,,,,,,0,,,73,82
43200,note_on,0,0,1,,,,,,,,,,,,,,,0,,,80,97
43200,note_on,0,0,1,,,,,,,,,,,,,,,0,,,68,82
43221,control_change,21,0,2,,,,,,,,,,,,,,,0,64,0,,
43299,control_change,78,0,2,,,,,,,,,,,,,,,0,64,127,,
43560,note_on,360,0,1,,,,,,,,,,,,,,,0,,,80,0
43560,note_on,0,0,1,,,,,,,,,,,,,,,0,,,68,0
43560,note_on,0,0,1,,,,,,,,,,,,,,,0,,,70,82
43560,note_on,0,0,1,,,,,,,,,,,,,,,0,,,82,97
43560,note_on,0,0,2,,,,,,,,,,,,,,,0,,,66,85
43560,note_on,0,0,2,,,,,,,,,,,,,,,0,,,49,0
43560,note_on,0,0,2,,,,,,,,,,,,,,,0,,,56,0
43560,note_on,261,0,2,,,,,,,,,,,,,,,0,,,65,0
43560,note_on,0,0,1,,,,,,,,,,,,,,,0,,,73,0
43680,note_on,0,0,2,,,,,,,,,,,,,,,0,,,63,76
43680,note_on,120,0,2,,,,,,,,,,,,,,,0,,,66,0
43680,note_on,0,0,1,,,,,,,,,,,,,,,0,,,84,105
43680,set_tempo,2400,1,0,,,,,,,,,,,,1100917,,,,,,,
43680,note_on,0,0,2,,,,,,,,,,,,,,,0,,,68,90
43680,note_on,0,0,2,,,,,,,,,,,,,,,0,,,56,76
43680,note_on,120,0,1,,,,,,,,,,,,,,,0,,,82,0
43680,note_on,0,0,1,,,,,,,,,,,,,,,0,,,70,0
43680,note_on,0,0,1,,,,,,,,,,,,,,,0,,,72,88
43680,note_on,0,0,1,,,,,,,,,,,,,,,0,,,80,88
43729,control_change,49,0,2,,,,,,,,,,,,,,,0,64,0,,
43793,control_change,64,0,2,,,,,,,,,,,,,,,0,64,127,,
44040,note_on,0,0,1,,,,,,,,,,,,,,,0,,,85,108
44040,note_on,0,0,1,,,,,,,,,,,,,,,0,,,73,92
44040,note_on,0,0,1,,,,,,,,,,,,,,,0,,,72,0
44040,note_on,0,0,1,,,,,,,,,,,,,,,0,,,80,0
44040,note_on,247,0,2,,,,,,,,,,,,,,,0,,,68,0
44040,note_on,0,0,2,,,,,,,,,,,,,,,0,,,56,0
44040,note_on,0,0,2,,,,,,,,,,,,,,,0,,,63,0
44040,note_on,0,0,2,,,,,,,,,,,,,,,0,,,65,89
44040,note_on,360,0,1,,,,,,,,,,,,,,,0,,,84,0
44160,note_on,0,0,2,,,,,,,,,,,,,,,0,,,32,81
44160,note_on,0,0,1,,,,,,,,,,,,,,,0,,,84,92
44160,note_on,0,0,2,,,,,,,,,,,,,,,0,,,44,96
44160,note_on,0,0,1,,,,,,,,,,,,,,,0,,,80,92
44160,note_on,0,0,1,,,,,,,,,,,,,,,0,,,77,92
44160,note_on,0,0,1,,,,,,,,,,,,,,,0,,,89,109
44160,note_on,0,0,1,,,,,,,,,,,,,,,0,,,73,0
44160,set_tempo,480,1,0,,,,,,,,,,,,1071429,,,,,,,
44160,note_on,120,0,1,,,,,,,,,,,,,,,0,,,85,0
44160,control_change,0,0,2,,,,,,,,,,,,,,,0,64,0,,
44160,note_on,120,0,2,,,,,,,,,,,,,,,0,,,65,0
44269,control_change,109,0,2,,,,,,,,,,,,,,,0,64,127,,
44640,note_on,371,0,2,,,,,,,,,,,,,,,0,,,44,0
44640,note_on,0,0,2,,,,,,,,,,,,,,,0,,,32,0
44640,note_on,0,0,2,,,,,,,,,,,,,,,0,,,66,72
44640,note_on,0,0,2,,,,,,,,,,,,,,,0,,,72,85
44640,note_on,0,0,2,,,,,,,,,,,,,,,0,,,63,72
45000,note_on,0,0,2,,,,,,,,,,,,,,,0,,,63,0
45000,note_on,0,0,2,,,,,,,,,,,,,,,0,,,70,79
45000,note_on,0,0,2,,,,,,,,,,,,,,,0,,,66,0
45000,note_on,360,0,2,,,,,,,,,,,,,,,0,,,72,0
45000,note_on,0,0,2,,,,,,,,,,,,,,,0,,,61,67
45000,note_on,0,0,2,,,,,,,,,,,,,,,0,,,66,67
45120,note_on,960,0,1,,,,,,,,,,,,,,,0,,,89,0
45120,note_on,0,0,1,,,,,,,,,,,,,,,0,,,77,0
45120,note_on,0,0,2,,,,,,,,,,,,,,,0,,,61,0
45120,note_on,0,0,2,,,,,,,,,,,,,,,0,,,70,78
45120,note_on,0,0,2,,,,,,,,,,,,,,,0,,,66,66
45120,note_on,0,0,2,,,,,,,,,,,,,,,0,,,61,66
45120,note_on,0,0,1,,,,,,,,,,,,,,,0,,,87,99
45120,note_on,0,0,2,,,,,,,,,,,,,,,0,,,66,0
45120,note_on,120,0,2,,,,,,,,,,,,,,,0,,,70,0
45120,note_on,0,0,1,,,,,,,,,,,,,,,0,,,75,82
45229,control_change,109,0,2,,,,,,,,,,,,,,,0,64,0,,
45269,control_change,40,0,2,,,,,,,,,,,,,,,0,64,127,,
45480,note_on,211,0,2,,,,,,,,,,,,,,,0,,,70,0
45480,note_on,0,0,2,,,,,,,,,,,,,,,0,,,66,61
45480,note_on,0,0,2,,,,,,,,,,,,,,,0,,,60,61
45480,note_on,0,0,2,,,,,,,,,,,,,,,0,,,61,0
45480,note_on,0,0,2,,,,,,,,,,,,,,,0,,,66,0
45480,note_on,0,0,2,,,,,,,,,,,,,,,0,,,68,73
45600,note_on,120,0,2,,,,,,,,,,,,,,,0,,,68,0
45600,note_on,0,0,2,,,,,,,,,,,,,,,0,,,60,0
45600,note_on,0,0,2,,,,,,,,,,,,,,,0,,,60,60
45600,note_on,0,0,2,,,,,,,,,,,,,,,0,,,66,60
45600,note_on,0,0,2,,,,,,,,,,,,,,,0,,,68,71
45600,note_on,0,0,2,,,,,,,,,,,,,,,0,,,66,0
45646,control_change,46,0,2,,,,,,,,,,,,,,,0,64,0,,
45697,control_change,51,0,2,,,,,,,,,,,,,,,0,64,127,,
45840,note_on,0,0,1,,,,,,,,,,,,,,,0,,,84,0
45840,note_on,0,0,1,,,,,,,,,,,,,,,0,,,80,0
45840,note_on,0,0,1,,,,,,,,,,,,,,,0,,,75,0
45840,note_on,720,0,1,,,,,,,,,,,,,,,0,,,87,0
45960,note_on,263,0,2,,,,,,,,,,,,,,,0,,,68,0
45960,note_on,0,0,2,,,,,,,,,,,,,,,0,,,60,0
45960,note_on,0,0,2,,,,,,,,,,,,,,,0,,,57,66
45960,note_on,0,0,2,,,,,,,,,,,,,,,0,,,60,66
45960,note_on,0,0,2,,,,,,,,,,,,,,,0,,,66,0
45960,note_on,0,0,1,,,,,,,,,,,,,,,0,,,72,75
45960,note_on,0,0,1,,,,,,,,,,,,,,,0,,,75,75
45960,note_on,0,0,1,,,,,,,,,,,,,,,0,,,78,89
45960,set_tempo,1800,1,0,,,,,,,,,,,,1176471,,,,,,,
45960,note_on,120,0,1,,,,,,,,,,,,,,,0,,,66,75
45960,note_on,0,0,2,,,,,,,,,,,,,,,0,,,63,77
46080,note_on,120,0,1,,,,,,,,,,,,,,,0,,,78,0
46080,note_on,0,0,1,,,,,,,,,,,,,,,0,,,66,0
46080,note_on,0,0,1,,,,,,,,,,,,,,,0,,,75,80
46080,note_on,0,0,1,,,,,,,,,,,,,,,0,,,72,80
46080,note_on,0,0,1,,,,,,,,,,,,,,,0,,,65,80
46080,note_on,0,0,1,,,,,,,,,,,,,,,0,,,77,102
46080,note_on,0,0,1,,,,,,,,,,,,,,,0,,,72,0
46080,note_on,0,0,2,,,,,,,,,,,,,,,0,,,46,78
46080,control_change,0,0,2,,,,,,,,,,,,,,,0,64,0,,
46080,note_on,120,0,2,,,,,,,,,,,,,,,0,,,63,0
46080,note_on,0,0,2,,,,,,,,,,,,,,,0,,,34,66
46080,note_on,0,0,1,,,,,,,,,,,,,,,0,,,75,0
46080,note_on,0,0,2,,,,,,,,,,,,,,,0,,,57,0
46080,note_on,0,0,2,,,,,,,,,,,,,,,0,,,60,0
46080,set_tempo,120,1,0,,,,,,,,,,,,1071429,,,,,,,
46166,control_change,86,0,2,,,,,,,,,,,,,,,0,64,127,,
46560,note_on,0,0,1,,,,,,,,,,,,,,,0,,,65,0
46560,note_on,0,0,1,,,,,,,,,,,,,,,0,,,77,0
46560,note_on,0,0,1,,,,,,,,,,,,,,,0,,,77,89
46560,note_on,0,0,1,,,,,,,,,,,,,,,0,,,73,74
46560,note_on,0,0,1,,,,,,,,,,,,,,,0,,,65,74
46560,note_on,394,0,2,,,,,,,,,,,,,,,0,,,46,0
46560,note_on,0,0,1,,,,,,,,,,,,,,,0,,,72,0
46560,note_on,480,0,1,,,,,,,,,,,,,,,0,,,75,0
46560,note_on,0,0,1,,,,,,,,,,,,,,,0,,,70,74
46560,note_on,0,0,2,,,,,,,,,,,,,,,0,,,53,63
46560,note_on,0,0,2,,,,,,,,,,,,,,,0,,,58,63
46560,note_on,0,0,2,,,,,,,,,,,,,,,0,,,61,75
46560,note_on,0,0,2,,,,,,,,,,,,,,,0,,,34,0
46594,control_change,34,0,2,,,,,,,,,,,,,,,0,64,0,,
46651,control_change,57,0,2,,,,,,,,,,,,,,,0,64,127,,
46920,note_on,360,0,1,,,,,,,,,,,,,,,0,,,77,0
46920,note_on,0,0,1,,,,,,,,,,,,,,,0,,,70,0
46920,note_on,0,0,1,,,,,,,,,,,,,,,0,,,65,0
46920,note_on,0,0,1,,,,,,,,,,,,,,,0,,,73,0
46920,note_on,0,0,1,,,,,,,,,,,,,,,0,,,67,74
46920,note_on,0,0,1,,,,,,,,,,,,,,,0,,,79,89
47040,note_on,0,0,2,,,,,,,,,,,,,,,0,,,58,0
47040,note_on,389,0,2,,,,,,,,,,,,,,,0,,,61,0
47040,note_on,120,0,1,,,,,,,,,,,,,,,0,,,79,0
47040,note_on,0,0,1,,,,,,,,,,,,,,,0,,,69,78
47040,note_on,0,0,1,,,,,,,,,,,,,,,0,,,73,78
47040,note_on,0,0,1,,,,,,,,,,,,,,,0,,,81,93
47040,note_on,0,0,2,,,,,,,,,,,,,,,0,,,49,80
47040,note_on,0,0,2,,,,,,,,,,,,,,,0,,,37,68
47040,note_on,0,0,2,,,,,,,,,,,,,,,0,,,53,0
47040,note_on,0,0,1,,,,,,,,,,,,,,,0,,,67,0
47040,note_on,0,0,1,,,,,,,,,,,,,,,0,,,77,78
47103,control_change,63,0,2,,,,,,,,,,,,,,,0,64,0,,
47171,control_change,68,0,2,,,,,,,,,,,,,,,0,64,127,,
47400,note_on,360,0,1,,,,,,,,,,,,,,,0,,,81,0
47400,note_on,0,0,1,,,,,,,,,,,,,,,0,,,77,0
47400,note_on,0,0,1,,,,,,,,,,,,,,,0,,,69,0
47400,note_on,0,0,1,,,,,,,,,,,,,,,0,,,73,0
47400,note_on,0,0,1,,,,,,,,,,,,,,,0,,,82,93
47400,note_on,0,0,1,,,,,,,,,,,,,,,0,,,70,78
47520,note_on,349,0,2,,,,,,,,,,,,,,,0,,,49,0
47520,note_on,0,0,2,,,,,,,,,,,,,,,0,,,53,64
47520,note_on,0,0,2,,,,,,,,,,,,,,,0,,,61,64
47520,note_on,0,0,2,,,,,,,,,,,,,,,0,,,58,64
47520,note_on,0,0,2,,,,,,,,,,,,,,,0,,,37,0
47520,note_on,0,0,1,,,,,,,,,,,,,,,0,,,77,84
47520,note_on,0,0,1,,,,,,,,,,,,,,,0,,,72,84
47520,note_on,0,0,1,,,,,,,,,,,,,,,0,,,70,0
47520,note_on,120,0,1,,,,,,,,,,,,,,,0,,,82,0
47520,set_tempo,1440,1,0,,,,,,,,,,,,1100917,,,,,,,
47520,note_on,0,0,1,,,,,,,,,,,,,,,0,,,84,99
47520,note_on,0,0,2,,,,,,,,,,,,,,,0,,,65,76
47549,control_change,29,0,2,,,,,,,,,,,,,,,0,64,0,,
47600,control_change,51,0,2,,,,,,,,,,,,,,,0,64,127,,
47840,set_tempo,320,1,0,,,,,,,,,,,,1318681,,,,,,,
47880,note_on,0,0,1,,,,,,,,,,,,,,,0,,,77,0
47880,note_on,0,0,1,,,,,,,,,,,,,,,0,,,72,0
47880,note_on,0,0,1,,,,,,,,,,,,,,,0,,,73,88
47880,note_on,0,0,1,,,,,,,,,,,,,,,0,,,85,102
47880,note_on,360,0,1,,,,,,,,,,,,,,,0,,,84,0
47940,note_on,0,0,1,,,,,,,,,,,,,,,0,,,70,88
47940,set_tempo,100,1,0,,,,,,,,,,,,1518987,,,,,,,
47940,note_on,0,0,1,,,,,,,,,,,,,,,0,,,73,0
47940,note_on,60,0,1,,,,,,,,,,,,,,,0,,,85,0
47960,note_on,20,0,1,,,,,,,,,,,,,,,0,,,76,88
47980,note_on,20,0,1,,,,,,,,,,,,,,,0,,,79,88
48000,note_on,400,0,2,,,,,,,,,,,,,,,0,,,53,0
48000,note_on,20,0,1,,,,,,,,,,,,,,,0,,,85,103
48000,control_change,0,0,2,,,,,,,,,,,,,,,0,64,0,,
48000,note_on,0,0,2,,,,,,,,,,,,,,,0,,,41,92
48000,note_on,0,0,2,,,,,,,,,,,,,,,0,,,29,77
48000,note_on,0,0,2,,,,,,,,,,,,,,,0,,,58,0
48000,note_on,0,0,2,,,,,,,,,,,,,,,0,,,61,0
48000,note_on,0,0,2,,,,,,,,,,,,,,,0,,,65,0
48000,set_tempo,60,1,0,,,,,,,,,,,,1100917,,,,,,,
48127,control_change,127,0,2,,,,,,,,,,,,,,,0,64,127,,
48480,note_on,353,0,2,,,,,,,,,,,,,,,0,,,41,0
48480,note_on,0,0,2,,,,,,,,,,,,,,,0,,,67,81
48480,note_on,0,0,2,,,,,,,,,,,,,,,0,,,61,69
48480,note_on,0,0,2,,,,,,,,,,,,,,,0,,,58,69
48480,note_on,0,0,2,,,,,,,,,,,,,,,0,,,53,69
48480,note_on,0,0,2,,,,,,,,,,,,,,,0,,,29,0
48960,note_on,0,0,2,,,,,,,,,,,,,,,0,,,53,0
48960,note_on,0,0,2,,,,,,,,,,,,,,,0,,,58,0
48960,note_on,960,0,1,,,,,,,,,,,,,,,0,,,85,0
48960,note_on,0,0,1,,,,,,,,,,,,,,,0,,,84,90
48960,note_on,480,0,2,,,,,,,,,,,,,,,0,,,67,0
48960,note_on,0,0,1,,,,,,,,,,,,,,,0,,,70,0
48960,note_on,0,0,2,,,,,,,,,,,,,,,0,,,61,0
48960,note_on,0,0,1,,,,,,,,,,,,,,,0,,,79,0
48960,note_on,0,0,2,,,,,,,,,,,,,,,0,,,69,75
48960,note_on,0,0,2,,,,,,,,,,,,,,,0,,,60,64
48960,note_on,0,0,1,,,,,,,,,,,,,,,0,,,76,0
48960,note_on,0,0,2,,,,,,,,,,,,,,,0,,,57,64
48960,note_on,0,0,1,,,,,,,,,,,,,,,0,,,77,76
48960,note_on,0,0,1,,,,,,,,,,,,,,,0,,,72,76
48960,note_on,0,0,2,,,,,,,,,,,,,,,0,,,53,64
49031,control_change,71,0,2,,,,,,,,,,,,,,,0,64,0,,
49144,control_change,113,0,2,,,,,,,,,,,,,,,0,64,127,,
49440,set_tempo,1440,1,0,,,,,,,,,,,,1481481,,,,,,,
49440,note_on,0,0,1,,,,,,,,,,,,,,,0,,,77,0
49440,note_on,0,0,1,,,,,,,,,,,,,,,0,,,72,0
49440,note_on,0,0,2,,,,,,,,,,,,,,,0,,,53,81
49440,note_on,0,0,2,,,,,,,,,,,,,,,0,,,60,0
49440,note_on,0,0,2,,,,,,,,,,,,,,,0,,,57,0
49440,note_on,0,0,2,,,,,,,,,,,,,,,0,,,53,0
49440,note_on,296,0,2,,,,,,,,,,,,,,,0,,,69,0
49440,note_on,480,0,1,,,,,,,,,,,,,,,0,,,84,0
49511,control_change,71,0,2,,,,,,,,,,,,,,,0,64,0,,
49680,note_on,169,0,2,,,,,,,,,,,,,,,0,,,53,0
49680,note_on,0,0,2,,,,,,,,,,,,,,,0,,,43,61
49680,set_tempo,240,1,0,,,,,,,,,,,,600000,,,,,,,
49700,control_change,20,0,2,,,,,,,,,,,,,,,0,64,127,,
49700,set_tempo,20,1,0,,,,,,,,,,,,603015,,,,,,,
49720,set_tempo,20,1,0,,,,,,,,,,,,609137,,,,,,,
49740,set_tempo,20,1,0,,,,,,,,,,,,615385,,,,,,,
49760,note_on,60,0,2,,,,,,,,,,,,,,,0,,,43,0
49760,note_on,0,0,2,,,,,,,,,,,,,,,0,,,44,61
49760,set_tempo,20,1,0,,,,,,,,,,,,618557,,,,,,,
49780,set_tempo,20,1,0,,,,,,,,,,,,625000,,,,,,,
49800,set_tempo,20,1,0,,,,,,,,,,,,631579,,,,,,,
49820,set_tempo,20,1,0,,,,,,,,,,,,638298,,,,,,,
49840,set_tempo,20,1,0,,,,,,,,,,,,641711,,,,,,,
49840,note_on,0,0,2,,,,,,,,,,,,,,,0,,,46,61
49840,note_on,80,0,2,,,,,,,,,,,,,,,0,,,44,0
49860,set_tempo,20,1,0,,,,,,,,,,,,648649,,,,,,,
49880,set_tempo,20,1,0,,,,,,,,,,,,655738,,,,,,,
49900,set_tempo,20,1,0,,,,,,,,,,,,662983,,,,,,,
49920,note_on,0,0,1,,,,,,,,,,,,,,,0,,,60,68
49920,note_on,480,0,1,,,,,,,,,,,,,,,0,,,56,68
49920,note_on,0,0,1,,,,,,,,,,,,,,,0,,,68,80
49920,set_tempo,20,1,0,,,,,,,,,,,,1111111,,,,,,,
49920,note_on,0,0,1,,,,,,,,,,,,,,,0,,,65,68
49920,note_on,0,0,1,,,,,,,,,,,,,,,0,,,54,68
49920,note_on,80,0,2,,,,,,,,,,,,,,,0,,,46,0
49920,note_on,0,0,2,,,,,,,,,,,,,,,0,,,44,61
49929,control_change,9,0,2,,,,,,,,,,,,,,,0,64,0,,
49960,control_change,31,0,2,,,,,,,,,,,,,,,0,64,127,,
49965,note_on,0,0,2,,,,,,,,,,,,,,,0,,,46,56
49965,note_on,5,0,2,,,,,,,,,,,,,,,0,,,44,0
50000,set_tempo,80,1,0,,,,,,,,,,,,1100917,,,,,,,
50010,note_on,0,0,2,,,,,,,,,,,,,,,0,,,44,64
50010,note_on,45,0,2,,,,,,,,,,,,,,,0,,,46,0
50040,set_tempo,40,1,0,,,,,,,,,,,,1090909,,,,,,,
50055,note_on,0,0,2,,,,,,,,,,,,,,,0,,,46,57
50055,note_on,45,0,2,,,,,,,,,,,,,,,0,,,44,0
50080,set_tempo,40,1,0,,,,,,,,,,,,1081081,,,,,,,
50100,note_on,45,0,2,,,,,,,,,,,,,,,0,,,46,0
50100,note_on,0,0,2,,,,,,,,,,,,,,,0,,,44,66
50120,set_tempo,40,1,0,,,,,,,,,,,,1071429,,,,,,,
50145,note_on,45,0,2,,,,,,,,,,,,,,,0,,,44,0
50145,note_on,0,0,2,,,,,,,,,,,,,,,0,,,46,59
50160,set_tempo,40,1,0,,,,,,,,,,,,1061947,,,,,,,
50190,note_on,0,0,2,,,,,,,,,,,,,,,0,,,44,68
50190,note_on,45,0,2,,,,,,,,,,,,,,,0,,,46,0
50200,set_tempo,40,1,0,,,,,,,,,,,,1052632,,,,,,,
50235,note_on,45,0,2,,,,,,,,,,,,,,,0,,,44,0
50235,note_on,0,0,2,,,,,,,,,,,,,,,0,,,46,61
50240,set_tempo,40,1,0,,,,,,,,,,,,1043478,,,,,,,
50280,note_on,45,0,2,,,,,,,,,,,,,,,0,,,46,0
50280,note_on,0,0,2,,,,,,,,,,,,,,,0,,,44,70
50280,set_tempo,40,1,0,,,,,,,,,,,,1034483,,,,,,,
50320,set_tempo,40,1,0,,,,,,,,,,,,1025641,,,,,,,
50325,note_on,0,0,2,,,,,,,,,,,,,,,0,,,46,65
50325,note_on,45,0,2,,,,,,,,,,,,,,,0,,,44,0
50360,set_tempo,40,1,0,,,,,,,,,,,,1016949,,,,,,,
50370,note_on,0,0,2,,,,,,,,,,,,,,,0,,,44,73
50370,note_on,45,0,2,,,,,,,,,,,,,,,0,,,46,0
50380,control_change,10,0,2,,,,,,,,,,,,,,,0,64,0,,
50400,note_on,0,0,1,,,,,,,,,,,,,,,0,,,60,68
50400,note_on,0,0,1,,,,,,,,,,,,,,,0,,,56,68
50400,note_on,0,0,1,,,,,,,,,,,,,,,0,,,54,68
50400,note_on,0,0,1,,,,,,,,,,,,,,,0,,,65,0
50400,note_on,0,0,1,,,,,,,,,,,,,,,0,,,60,0
50400,note_on,0,0,1,,,,,,,,,,,,,,,0,,,56,0
50400,note_on,0,0,1,,,,,,,,,,,,,,,0,,,63,68
50400,note_on,480,0,1,,,,,,,,,,,,,,,0,,,54,0
50400,set_tempo,40,1,0,,,,,,,,,,,,1008403,,,,,,,
50400,note_on,0,0,1,,,,,,,,,,,,,,,0,,,68,0
50400,note_on,0,0,1,,,,,,,,,,,,,,,0,,,68,80
50409,control_change,29,0,2,,,,,,,,,,,,,,,0,64,127,,
50415,note_on,0,0,2,,,,,,,,,,,,,,,0,,,46,66
50415,note_on,6,0,2,,,,,,,,,,,,,,,0,,,44,0
50440,set_tempo,40,1,0,,,,,,,,,,,,1000000,,,,,,,
50460,note_on,45,0,2,,,,,,,,,,,,,,,0,,,46,0
50460,note_on,0,0,2,,,,,,,,,,,,,,,0,,,44,72
50505,note_on,45,0,2,,,,,,,,,,,,,,,0,,,44,0
50506,note_on,1,0,2,,,,,,,,,,,,,,,0,,,46,63
50520,set_tempo,80,1,0,,,,,,,,,,,,1008403,,,,,,,
50550,note_on,44,0,2,,,,,,,,,,,,,,,0,,,44,69
50551,note_on,1,0,2,,,,,,,,,,,,,,,0,,,46,0
50560,set_tempo,40,1,0,,,,,,,,,,,,1016949,,,,,,,
50595,note_on,0,0,2,,,,,,,,,,,,,,,0,,,46,60
50595,note_on,44,0,2,,,,,,,,,,,,,,,0,,,44,0
50600,set_tempo,40,1,0,,,,,,,,,,,,1025641,,,,,,,
50640,note_on,45,0,2,,,,,,,,,,,,,,,0,,,44,66
50640,set_tempo,40,1,0,,,,,,,,,,,,1034483,,,,,,,
50641,note_on,1,0,2,,,,,,,,,,,,,,,0,,,46,0
50680,set_tempo,40,1,0,,,,,,,,,,,,1043478,,,,,,,
50700,note_on,59,0,2,,,,,,,,,,,,,,,0,,,44,0
50700,note_on,0,0,2,,,,,,,,,,,,,,,0,,,46,58
50720,set_tempo,40,1,0,,,,,,,,,,,,1052632,,,,,,,
50760,note_on,60,0,2,,,,,,,,,,,,,,,0,,,46,0
50760,note_on,0,0,2,,,,,,,,,,,,,,,0,,,43,64
50760,set_tempo,40,1,0,,,,,,,,,,,,1061947,,,,,,,
50800,set_tempo,40,1,0,,,,,,,,,,,,1071429,,,,,,,
50820,note_on,0,0,2,,,,,,,,,,,,,,,0,,,44,55
50820,note_on,60,0,2,,,,,,,,,,,,,,,0,,,43,0
50840,set_tempo,40,1,0,,,,,,,,,,,,1081081,,,,,,,
50880,note_on,60,0,2,,,,,,,,,,,,,,,0,,,44,0
50880,note_on,0,0,1,,,,,,,,,,,,,,,0,,,54,0
50880,note_on,0,0,1,,,,,,,,,,,,,,,0,,,56,0
50880,note_on,0,0,1,,,,,,,,,,,,,,,0,,,63,0
50880,note_on,0,0,1,,,,,,,,,,,,,,,0,,,53,68
50880,note_on,0,0,1,,,,,,,,,,,,,,,0,,,61,68
50880,note_on,0,0,2,,,,,,,,,,,,,,,0,,,49,68
50880,note_on,480,0,1,,,,,,,,,,,,,,,0,,,68,0
50880,note_on,0,0,1,,,,,,,,,,,,,,,0,,,60,0
50880,set_tempo,40,1,0,,,,,,,,,,,,1100917,,,,,,,
50880,note_on,0,0,1,,,,,,,,,,,,,,,0,,,68,80
50886,control_change,6,0,2,,,,,,,,,,,,,,,0,64,0,,
50989,control_change,103,0,2,,,,,,,,,,,,,,,0,64,127,,
51360,set_tempo,480,1,0,,,,,,,,,,,,1500000,,,,,,,
51360,note_on,0,0,2,,,,,,,,,,,,,,,0,,,49,68
51360,note_on,371,0,2,,,,,,,,,,,,,,,0,,,49,0
51360,note_on,0,0,1,,,,,,,,,,,,,,,0,,,61,0
51360,note_on,0,0,1,,,,,,,,,,,,,,,0,,,53,0
51360,note_on,480,0,1,,,,,,,,,,,,,,,0,,,68,0
51377,control_change,17,0,2,,,,,,,,,,,,,,,0,64,0,,
51600,set_tempo,240,1,0,,,,,,,,,,,,609137,,,,,,,
51600,note_on,223,0,2,,,,,,,,,,,,,,,0,,,49,0
51600,note_on,0,0,2,,,,,,,,,,,,,,,0,,,40,61
51620,set_tempo,20,1,0,,,,,,,,,,,,612245,,,,,,,
51629,control_change,29,0,2,,,,,,,,,,,,,,,0,64,127,,
51640,set_tempo,20,1,0,,,,,,,,,,,,618557,,,,,,,
51660,set_tempo,20,1,0,,,,,,,,,,,,621762,,,,,,,
51680,set_tempo,20,1,0,,,,,,,,,,,,628272,,,,,,,
51680,note_on,0,0,2,,,,,,,,,,,,,,,0,,,41,61
51680,note_on,51,0,2,,,,,,,,,,,,,,,0,,,40,0
51700,set_tempo,20,1,0,,,,,,,,,,,,631579,,,,,,,
51720,set_tempo,20,1,0,,,,,,,,,,,,638298,,,,,,,
51740,set_tempo,20,1,0,,,,,,,,,,,,641711,,,,,,,
51760,note_on,0,0,2,,,,,,,,,,,,,,,0,,,43,61
51760,set_tempo,20,1,0,,,,,,,,,,,,648649,,,,,,,
51760,note_on,80,0,2,,,,,,,,,,,,,,,0,,,41,0
51780,set_tempo,20,1,0,,,,,,,,,,,,652174,,,,,,,
51800,set_tempo,20,1,0,,,,,,,,,,,,659341,,,,,,,
51820,set_tempo,20,1,0,,,,,,,,,,,,666667,,,,,,,
51840,set_tempo,20,1,0,,,,,,,,,,,,1111111,,,,,,,
51840,note_on,480,0,1,,,,,,,,,,,,,,,0,,,65,80
51840,note_on,0,0,1,,,,,,,,,,,,,,,0,,,51,68
51840,note_on,0,0,1,,,,,,,,,,,,,,,0,,,61,68
51840,note_on,80,0,2,,,,,,,,,,,,,,,0,,,43,0
51840,note_on,0,0,2,,,,,,,,,,,,,,,0,,,41,61
51840,note_on,0,0,1,,,,,,,,,,,,,,,0,,,57,68
51840,control_change,0,0,2,,,,,,,,,,,,,,,0,64,0,,
51863,control_change,23,0,2,,,,,,,,,,,,,,,0,64,127,,
51885,note_on,22,0,2,,,,,,,,,,,,,,,0,,,41,0
51885,note_on,0,0,2,,,,,,,,,,,,,,,0,,,42,56
51920,set_tempo,80,1,0,,,,,,,,,,,,1100917,,,,,,,
51930,note_on,45,0,2,,,,,,,,,,,,,,,0,,,42,0
51930,note_on,0,0,2,,,,,,,,,,,,,,,0,,,41,64
51960,set_tempo,40,1,0,,,,,,,,,,,,1090909,,,,,,,
51975,note_on,45,0,2,,,,,,,,,,,,,,,0,,,41,0
51975,note_on,0,0,2,,,,,,,,,,,,,,,0,,,42,57
52000,set_tempo,40,1,0,,,,,,,,,,,,1081081,,,,,,,
52020,note_on,45,0,2,,,,,,,,,,,,,,,0,,,42,0
52020,note_on,0,0,2,,,,,,,,,,,,,,,0,,,41,66
52040,set_tempo,40,1,0,,,,,,,,,,,,1071429,,,,,,,
52065,note_on,45,0,2,,,,,,,,,,,,,,,0,,,41,0
52065,note_on,0,0,2,,,,,,,,,,,,,,,0,,,42,59
52080,set_tempo,40,1,0,,,,,,,,,,,,1061947,,,,,,,
52110,note_on,0,0,2,,,,,,,,,,,,,,,0,,,41,68
52110,note_on,45,0,2,,,,,,,,,,,,,,,0,,,42,0
52120,set_tempo,40,1,0,,,,,,,,,,,,1052632,,,,,,,
52155,note_on,0,0,2,,,,,,,,,,,,,,,0,,,42,61
52155,note_on,45,0,2,,,,,,,,,,,,,,,0,,,41,0
52160,set_tempo,40,1,0,,,,,,,,,,,,1043478,,,,,,,
52200,set_tempo,40,1,0,,,,,,,,,,,,1034483,,,,,,,
52200,note_on,0,0,2,,,,,,,,,,,,,,,0,,,41,70
52200,note_on,45,0,2,,,,,,,,,,,,,,,0,,,42,0
52240,set_tempo,40,1,0,,,,,,,,,,,,1025641,,,,,,,
52245,note_on,0,0,2,,,,,,,,,,,,,,,0,,,42,65
52245,note_on,45,0,2,,,,,,,,,,,,,,,0,,,41,0
52280,set_tempo,40,1,0,,,,,,,,,,,,1016949,,,,,,,
52290,note_on,0,0,2,,,,,,,,,,,,,,,0,,,41,73
52290,note_on,45,0,2,,,,,,,,,,,,,,,0,,,42,0
52320,set_tempo,40,1,0,,,,,,,,,,,,1008403,,,,,,,
52320,note_on,0,0,1,,,,,,,,,,,,,,,0,,,61,0
52320,note_on,0,0,1,,,,,,,,,,,,,,,0,,,51,0
52320,note_on,0,0,1,,,,,,,,,,,,,,,0,,,65,0
52320,note_on,480,0,1,,,,,,,,,,,,,,,0,,,57,0
52320,note_on,0,0,1,,,,,,,,,,,,,,,0,,,57,68
52320,note_on,0,0,1,,,,,,,,,,,,,,,0,,,60,68
52320,note_on,0,0,1,,,,,,,,,,,,,,,0,,,65,80
52320,note_on,0,0,1,,,,,,,,,,,,,,,0,,,51,68
52335,note_on,45,0,2,,,,,,,,,,,,,,,0,,,41,0
52335,note_on,0,0,2,,,,,,,,,,,,,,,0,,,42,66
52340,control_change,5,0,2,,,,,,,,,,,,,,,0,64,0,,
52360,set_tempo,40,1,0,,,,,,,,,,,,1000000,,,,,,,
52366,control_change,26,0,2,,,,,,,,,,,,,,,0,64,127,,
52380,note_on,0,0,2,,,,,,,,,,,,,,,0,,,41,72
52380,note_on,14,0,2,,,,,,,,,,,,,,,0,,,42,0
52425,note_on,45,0,2,,,,,,,,,,,,,,,0,,,41,0
52426,note_on,1,0,2,,,,,,,,,,,,,,,0,,,42,63
52440,set_tempo,80,1,0,,,,,,,,,,,,1008403,,,,,,,
52470,note_on,44,0,2,,,,,,,,,,,,,,,0,,,41,69
52471,note_on,1,0,2,,,,,,,,,,,,,,,0,,,42,0
52480,set_tempo,40,1,0,,,,,,,,,,,,1016949,,,,,,,
52515,note_on,44,0,2,,,,,,,,,,,,,,,0,,,41,0
52515,note_on,0,0,2,,,,,,,,,,,,,,,0,,,42,60
52520,set_tempo,40,1,0,,,,,,,,,,,,1025641,,,,,,,
52560,note_on,45,0,2,,,,,,,,,,,,,,,0,,,41,66
52560,set_tempo,40,1,0,,,,,,,,,,,,1034483,,,,,,,
52561,note_on,1,0,2,,,,,,,,,,,,,,,0,,,42,0
52600,set_tempo,40,1,0,,,,,,,,,,,,1043478,,,,,,,
52620,note_on,0,0,2,,,,,,,,,,,,,,,0,,,42,58
52620,note_on,59,0,2,,,,,,,,,,,,,,,0,,,41,0
52640,set_tempo,40,1,0,,,,,,,,,,,,1052632,,,,,,,
52680,note_on,60,0,2,,,,,,,,,,,,,,,0,,,42,0
52680,note_on,0,0,2,,,,,,,,,,,,,,,0,,,40,64
52680,set_tempo,40,1,0,,,,,,,,,,,,1061947,,,,,,,
52720,set_tempo,40,1,0,,,,,,,,,,,,1071429,,,,,,,
52740,note_on,60,0,2,,,,,,,,,,,,,,,0,,,40,0
52740,note_on,0,0,2,,,,,,,,,,,,,,,0,,,41,55
52760,set_tempo,40,1,0,,,,,,,,,,,,1081081,,,,,,,
52800,set_tempo,40,1,0,,,,,,,,,,,,1100917,,,,,,,
52800,note_on,0,0,1,,,,,,,,,,,,,,,0,,,51,0
52800,note_on,480,0,1,,,,,,,,,,,,,,,0,,,65,0
52800,note_on,0,0,1,,,,,,,,,,,,,,,0,,,60,0
52800,note_on,0,0,1,,,,,,,,,,,,,,,0,,,49,68
52800,note_on,0,0,1,,,,,,,,,,,,,,,0,,,58,80
52800,note_on,60,0,2,,,,,,,,,,,,,,,0,,,41,0
52800,note_on,0,0,1,,,,,,,,,,,,,,,0,,,57,0
52800,note_on,0,0,2,,,,,,,,,,,,,,,0,,,42,64
52811,control_change,11,0,2,,,,,,,,,,,,,,,0,64,0,,
52903,control_change,92,0,2,,,,,,,,,,,,,,,0,64,127,,
53280,note_on,0,0,2,,,,,,,,,,,,,,,0,,,41,51
53280,note_on,377,0,2,,,,,,,,,,,,,,,0,,,42,0
53280,set_tempo,480,1,0,,,,,,,,,,,,1132075,,,,,,,
53520,note_on,0,0,2,,,,,,,,,,,,,,,0,,,37,39
53520,note_on,240,0,2,,,,,,,,,,,,,,,0,,,41,0
53520,set_tempo,240,1,0,,,,,,,,,,,,1176471,,,,,,,
53760,set_tempo,240,1,0,,,,,,,,,,,,1044386,,,,,,,
53760,control_change,0,0,2,,,,,,,,,,,,,,,0,64,0,,
53760,note_on,0,0,2,,,,,,,,,,,,,,,0,,,34,32
53760,note_on,0,0,2,,,,,,,,,,,,,,,0,,,41,32
53760,note_on,0,0,2,,,,,,,,,,,,,,,0,,,46,39
53760,note_on,960,0,1,,,,,,,,,,,,,,,0,,,58,0
53760,note_on,0,0,1,,,,,,,,,,,,,,,0,,,49,0
53760,note_on,0,0,1,,,,,,,,,,,,,,,0,,,46,39
53760,note_on,0,0,1,,,,,,,,,,,,,,,0,,,53,39
53760,note_on,0,0,1,,,,,,,,,,,,,,,0,,,58,46
53760,note_on,240,0,2,,,,,,,,,,,,,,,0,,,37,0
53760,control_change,0,0,2,,,,,,,,,,,,,,,0,64,0,,
53824,control_change,64,0,2,,,,,,,,,,,,,,,0,64,127,,
54240,set_tempo,480,1,0,,,,,,,,,,,,1075076,,,,,,,
54240,note_on,0,0,2,,,,,,,,,,,,,,,0,,,49,34
54240,note_on,0,0,2,,,,,,,,,,,,,,,0,,,41,0
54240,note_on,0,0,2,,,,,,,,,,,,,,,0,,,34,0
54240,note_on,0,0,2,,,,,,,,,,,,,,,0,,,37,28
54240,note_on,0,0,2,,,,,,,,,,,,,,,0,,,42,34
54240,note_on,416,0,2,,,,,,,,,,,,,,,0,,,46,0
54240,note_on,0,0,1,,,,,,,,,,,,,,,0,,,58,46
54240,note_on,0,0,1,,,,,,,,,,,,,,,0,,,54,39
54240,note_on,0,0,1,,,,,,,,,,,,,,,0,,,46,0
54240,note_on,0,0,1,,,,,,,,,,,,,,,0,,,53,0
54240,note_on,480,0,1,,,,,,,,,,,,,,,0,,,58,0
54254,control_change,14,0,2,,,,,,,,,,,,,,,0,64,0,,
54381,control_change,127,0,2,,,,,,,,,,,,,,,0,64,127,,
54600,note_on,0,0,1,,,,,,,,,,,,,,,0,,,58,41
54600,note_on,360,0,1,,,,,,,,,,,,,,,0,,,58,0
54720,set_tempo,480,1,0,,,,,,,,,,,,1067236,,,,,,,
54720,note_on,0,0,2,,,,,,,,,,,,,,,0,,,46,39
54720,note_on,0,0,1,,,,,,,,,,,,,,,0,,,58,46
54720,note_on,120,0,1,,,,,,,,,,,,,,,0,,,58,0
54720,note_on,0,0,2,,,,,,,,,,,,,,,0,,,41,32
54720,note_on,0,0,2,,,,,,,,,,,,,,,0,,,34,32
54720,note_on,0,0,2,,,,,,,,,,,,,,,0,,,37,0
54720,note_on,0,0,2,,,,,,,,,,,,,,,0,,,42,0
54720,note_on,339,0,2,,,,,,,,,,,,,,,0,,,49,0
54720,note_on,0,0,1,,,,,,,,,,,,,,,0,,,53,39
54720,note_on,0,0,1,,,,,,,,,,,,,,,0,,,54,0
54731,control_change,11,0,2,,,,,,,,,,,,,,,0,64,0,,
54854,control_change,123,0,2,,,,,,,,,,,,,,,0,64,127,,
55200,note_on,480,0,1,,,,,,,,,,,,,,,0,,,58,0
55200,set_tempo,480,1,0,,,,,,,,,,,,1044386,,,,,,,
55200,note_on,0,0,1,,,,,,,,,,,,,,,0,,,61,54
55200,note_on,0,0,1,,,,,,,,,,,,,,,0,,,54,44
55200,note_on,0,0,2,,,,,,,,,,,,,,,0,,,49,31
55200,note_on,0,0,2,,,,,,,,,,,,,,,0,,,42,31
55200,note_on,0,0,2,,,,,,,,,,,,,,,0,,,37,25
55200,note_on,0,0,2,,,,,,,,,,,,,,,0,,,34,0
55200,note_on,0,0,2,,,,,,,,,,,,,,,0,,,41,0
55200,note_on,346,0,2,,,,,,,,,,,,,,,0,,,46,0
55200,note_on,0,0,1,,,,,,,,,,,,,,,0,,,53,0
55207,control_change,7,0,2,,,,,,,,,,,,,,,0,64,0,,
55285,control_change,78,0,2,,,,,,,,,,,,,,,0,64,127,,
55560,note_on,360,0,1,,,,,,,,,,,,,,,0,,,61,0
55560,note_on,0,0,1,,,,,,,,,,,,,,,0,,,60,49
55620,note_on,60,0,1,,,,,,,,,,,,,,,0,,,60,0
55620,note_on,0,0,1,,,,,,,,,,,,,,,0,,,61,45
55680,note_on,0,0,2,,,,,,,,,,,,,,,0,,,46,39
55680,note_on,60,0,1,,,,,,,,,,,,,,,0,,,61,0
55680,note_on,0,0,1,,,,,,,,,,,,,,,0,,,53,44
55680,note_on,0,0,1,,,,,,,,,,,,,,,0,,,60,52
55680,note_on,0,0,1,,,,,,,,,,,,,,,0,,,54,0
55680,note_on,395,0,2,,,,,,,,,,,,,,,0,,,49,0
55680,note_on,0,0,2,,,,,,,,,,,,,,,0,,,42,0
55680,note_on,0,0,2,,,,,,,,,,,,,,,0,,,37,0
55680,note_on,0,0,2,,,,,,,,,,,,,,,0,,,34,32
55680,note_on,0,0,2,,,,,,,,,,,,,,,0,,,41,32
55680,control_change,0,0,2,,,,,,,,,,,,,,,0,64,0,,
55793,control_change,113,0,2,,,,,,,,,,,,,,,0,64,127,,
56040,note_on,360,0,1,,,,,,,,,,,,,,,0,,,60,0
56040,note_on,0,0,1,,,,,,,,,,,,,,,0,,,58,46
56160,note_on,0,0,2,,,,,,,,,,,,,,,0,,,41,0
56160,note_on,0,0,1,,,,,,,,,,,,,,,0,,,53,0
56160,note_on,0,0,2,,,,,,,,,,,,,,,0,,,34,0
56160,note_on,120,0,1,,,,,,,,,,,,,,,0,,,58,0
56160,note_on,0,0,1,,,,,,,,,,,,,,,0,,,58,50
56160,set_tempo,960,1,0,,,,,,,,,,,,1059509,,,,,,,
56160,note_on,0,0,2,,,,,,,,,,,,,,,0,,,49,34
56160,note_on,0,0,2,,,,,,,,,,,,,,,0,,,42,28
56160,note_on,0,0,2,,,,,,,,,,,,,,,0,,,37,28
56160,note_on,367,0,2,,,,,,,,,,,,,,,0,,,46,0
56160,note_on,0,0,1,,,,,,,,,,,,,,,0,,,54,42
56188,control_change,28,0,2,,,,,,,,,,,,,,,0,64,0,,
56344,control_change,156,0,2,,,,,,,,,,,,,,,0,64,127,,
56520,note_on,0,0,1,,,,,,,,,,,,,,,0,,,58,41
56520,note_on,360,0,1,,,,,,,,,,,,,,,0,,,58,0
56640,set_tempo,480,1,0,,,,,,,,,,,,1075076,,,,,,,
56640,note_on,0,0,2,,,,,,,,,,,,,,,0,,,34,32
56640,note_on,0,0,1,,,,,,,,,,,,,,,0,,,54,0
56640,note_on,0,0,1,,,,,,,,,,,,,,,0,,,53,39
56640,note_on,0,0,2,,,,,,,,,,,,,,,0,,,37,0
56640,note_on,0,0,2,,,,,,,,,,,,,,,0,,,42,0
56640,note_on,296,0,2,,,,,,,,,,,,,,,0,,,49,0
56640,note_on,120,0,1,,,,,,,,,,,,,,,0,,,58,0
56640,note_on,0,0,2,,,,,,,,,,,,,,,0,,,46,39
56640,note_on,0,0,1,,,,,,,,,,,,,,,0,,,58,46
56640,note_on,0,0,2,,,,,,,,,,,,,,,0,,,41,32
56675,control_change,35,0,2,,,,,,,,,,,,,,,0,64,0,,
56816,control_change,141,0,2,,,,,,,,,,,,,,,0,64,127,,
57120,control_change,0,0,2,,,,,,,,,,,,,,,0,64,0,,
57120,note_on,0,0,2,,,,,,,,,,,,,,,0,,,44,39
57120,note_on,0,0,2,,,,,,,,,,,,,,,0,,,34,0
57120,note_on,0,0,1,,,,,,,,,,,,,,,0,,,53,0
57120,note_on,480,0,1,,,,,,,,,,,,,,,0,,,58,0
57120,note_on,0,0,2,,,,,,,,,,,,,,,0,,,32,32
57120,note_on,304,0,2,,,,,,,,,,,,,,,0,,,46,0
57120,note_on,0,0,2,,,,,,,,,,,,,,,0,,,41,0
57600,note_on,0,0,2,,,,,,,,,,,,,,,0,,,37,33
57600,note_on,480,0,2,,,,,,,,,,,,,,,0,,,44,0
57600,note_on,0,0,2,,,,,,,,,,,,,,,0,,,32,0
57600,note_on,480,0,1,,,,,,,,,,,,,,,0,,,77,54
57600,set_tempo,960,1,0,,,,,,,,,,,,1022844,,,,,,,
57685,control_change,85,0,2,,,,,,,,,,,,,,,0,64,127,,
57840,set_tempo,240,1,0,,,,,,,,,,,,967586,,,,,,,
57840,note_on,155,0,2,,,,,,,,,,,,,,,0,,,37,0
57840,note_on,0,0,2,,,,,,,,,,,,,,,0,,,44,27
58080,set_tempo,240,1,0,,,,,,,,,,,,975927,,,,,,,
58080,note_on,240,0,2,,,,,,,,,,,,,,,0,,,44,0
58080,note_on,0,0,2,,,,,,,,,,,,,,,0,,,53,27
58320,set_tempo,240,1,0,,,,,,,,,,,,992884,,,,,,,
58320,note_on,240,0,2,,,,,,,,,,,,,,,0,,,53,0
58320,note_on,0,0,2,,,,,,,,,,,,,,,0,,,61,28
58560,note_on,240,0,2,,,,,,,,,,,,,,,0,,,61,0
58560,note_on,0,0,2,,,,,,,,,,,,,,,0,,,37,33
58560,note_on,0,0,1,,,,,,,,,,,,,,,0,,,78,50
58560,note_on,960,0,1,,,,,,,,,,,,,,,0,,,77,0
58800,set_tempo,480,1,0,,,,,,,,,,,,951475,,,,,,,
58800,note_on,240,0,1,,,,,,,,,,,,,,,0,,,78,0
58800,note_on,0,0,1,,,,,,,,,,,,,,,0,,,77,46
58800,note_on,240,0,2,,,,,,,,,,,,,,,0,,,37,0
58800,note_on,0,0,2,,,,,,,,,,,,,,,0,,,44,27
59040,note_on,0,0,2,,,,,,,,,,,,,,,0,,,53,27
59040,note_on,0,0,1,,,,,,,,,,,,,,,0,,,75,50
59040,note_on,240,0,1,,,,,,,,,,,,,,,0,,,77,0
59040,note_on,240,0,2,,,,,,,,,,,,,,,0,,,44,0
59280,note_on,0,0,1,,,,,,,,,,,,,,,0,,,73,46
59280,note_on,240,0,1,,,,,,,,,,,,,,,0,,,75,0
59280,set_tempo,480,1,0,,,,,,,,,,,,984252,,,,,,,
59280,note_on,240,0,2,,,,,,,,,,,,,,,0,,,53,0
59280,note_on,0,0,2,,,,,,,,,,,,,,,0,,,61,28
59520,set_tempo,240,1,0,,,,,,,,,,,,984252,,,,,,,
59520,note_on,0,0,2,,,,,,,,,,,,,,,0,,,39,33
59520,control_change,0,0,2,,,,,,,,,,,,,,,0,64,0,,
59520,note_on,240,0,1,,,,,,,,,,,,,,,0,,,73,0
59520,note_on,0,0,1,,,,,,,,,,,,,,,0,,,72,50
59520,note_on,240,0,2,,,,,,,,,,,,,,,0,,,61,0
59647,control_change,127,0,2,,,,,,,,,,,,,,,0,64,127,,
59760,note_on,0,0,2,,,,,,,,,,,,,,,0,,,44,27
59760,note_on,113,0,2,,,,,,,,,,,,,,,0,,,39,0
59880,set_tempo,360,1,0,,,,,,,,,,,,1028630,,,,,,,
60000,note_on,0,0,1,,,,,,,,,,,,,,,0,,,82,54
60000,note_on,480,0,1,,,,,,,,,,,,,,,0,,,72,0
60000,set_tempo,120,1,0,,,,,,,,,,,,984252,,,,,,,
60000,note_on,240,0,2,,,,,,,,,,,,,,,0,,,44,0
60000,note_on,0,0,2,,,,,,,,,,,,,,,0,,,54,24
60240,note_on,240,0,2,,,,,,,,,,,,,,,0,,,54,0
60240,note_on,0,0,2,,,,,,,,,,,,,,,0,,,60,24
60480,note_on,240,0,2,,,,,,,,,,,,,,,0,,,60,0
60480,note_on,0,0,2,,,,,,,,,,,,,,,0,,,39,31
60480,note_on,480,0,1,,,,,,,,,,,,,,,0,,,82,0
60480,note_on,0,0,1,,,,,,,,,,,,,,,0,,,80,52
60720,note_on,240,0,2,,,,,,,,,,,,,,,0,,,39,0
60720,note_on,0,0,2,,,,,,,,,,,,,,,0,,,44,24
60720,set_tempo,720,1,0,,,,,,,,,,,,959539,,,,,,,
60960,note_on,240,0,2,,,,,,,,,,,,,,,0,,,44,0
60960,note_on,0,0,2,,,,,,,,,,,,,,,0,,,54,27
61200,note_on,0,0,2,,,,,,,,,,,,,,,0,,,60,25
61200,note_on,240,0,2,,,,,,,,,,,,,,,0,,,54,0
61200,set_tempo,480,1,0,,,,,,,,,,,,992884,,,,,,,
61240,set_tempo,40,1,0,,,,,,,,,,,,1019368,,,,,,,
61440,note_on,240,0,2,,,,,,,,,,,,,,,0,,,60,0
61440,note_on,0,0,1,,,,,,,,,,,,,,,0,,,78,51
61440,note_on,960,0,1,,,,,,,,,,,,,,,0,,,80,0
61440,note_on,0,0,2,,,,,,,,,,,,,,,0,,,32,33
61454,control_change,14,0,2,,,,,,,,,,,,,,,0,64,0,,
61624,control_change,170,0,2,,,,,,,,,,,,,,,0,64,127,,
61680,note_on,0,0,2,,,,,,,,,,,,,,,0,,,44,29
61680,note_on,56,0,2,,,,,,,,,,,,,,,0,,,32,0
61680,set_tempo,440,1,0,,,,,,,,,,,,967586,,,,,,,
61920,note_on,0,0,2,,,,,,,,,,,,,,,0,,,54,29
61920,note_on,240,0,2,,,,,,,,,,,,,,,0,,,44,0
62160,set_tempo,480,1,0,,,,,,,,,,,,984252,,,,,,,
62160,note_on,0,0,2,,,,,,,,,,,,,,,0,,,60,30
62160,note_on,240,0,2,,,,,,,,,,,,,,,0,,,54,0
62400,note_on,240,0,2,,,,,,,,,,,,,,,0,,,60,0
62400,note_on,0,0,2,,,,,,,,,,,,,,,0,,,32,36
62400,note_on,0,0,1,,,,,,,,,,,,,,,0,,,80,50
62400,note_on,960,0,1,,,,,,,,,,,,,,,0,,,78,0
62640,note_on,240,0,2,,,,,,,,,,,,,,,0,,,32,0
62640,note_on,0,0,2,,,,,,,,,,,,,,,0,,,44,30
62640,note_on,0,0,1,,,,,,,,,,,,,,,0,,,78,46
62640,note_on,240,0,1,,,,,,,,,,,,,,,0,,,80,0
62640,set_tempo,480,1,0,,,,,,,,,,,,951475,,,,,,,
62880,note_on,240,0,2,,,,,,,,,,,,,,,0,,,44,0
62880,note_on,0,0,2,,,,,,,,,,,,,,,0,,,54,30
62880,note_on,0,0,1,,,,,,,,,,,,,,,0,,,77,50
62880,note_on,240,0,1,,,,,,,,,,,,,,,0,,,78,0
63120,note_on,0,0,2,,,,,,,,,,,,,,,0,,,60,31
63120,note_on,240,0,2,,,,,,,,,,,,,,,0,,,54,0
63120,note_on,240,0,1,,,,,,,,,,,,,,,0,,,77,0
63120,note_on,0,0,1,,,,,,,,,,,,,,,0,,,75,46
63120,set_tempo,480,1,0,,,,,,,,,,,,992884,,,,,,,
63360,note_on,240,0,2,,,,,,,,,,,,,,,0,,,60,0
63360,control_change,0,0,2,,,,,,,,,,,,,,,0,64,0,,
63360,note_on,0,0,2,,,,,,,,,,,,,,,0,,,37,36
63360,note_on,0,0,1,,,,,,,,,,,,,,,0,,,73,50
63360,note_on,240,0,1,,,,,,,,,,,,,,,0,,,75,0
63360,set_tempo,240,1,0,,,,,,,,,,,,992884,,,,,,,
63501,control_change,141,0,2,,,,,,,,,,,,,,,0,64,127,,
63600,note_on,0,0,2,,,,,,,,,,,,,,,0,,,44,30
63600,note_on,99,0,2,,,,,,,,,,,,,,,0,,,37,0
63840,note_on,0,0,2,,,,,,,,,,,,,,,0,,,53,28
63840,note_on,240,0,2,,,,,,,,,,,,,,,0,,,44,0
63840,note_on,0,0,1,,,,,,,,,,,,,,,0,,,85,53
63840,note_on,480,0,1,,,,,,,,,,,,,,,0,,,73,0
64080,note_on,0,0,2,,,,,,,,,,,,,,,0,,,61,25
64080,note_on,240,0,2,,,,,,,,,,,,,,,0,,,53,0
64200,set_tempo,840,1,0,,,,,,,,,,,,1047486,,,,,,,
64320,note_on,480,0,1,,,,,,,,,,,,,,,0,,,85,0
64320,note_on,0,0,1,,,,,,,,,,,,,,,0,,,80,49
64320,set_tempo,120,1,0,,,,,,,,,,,,992884,,,,,,,
64320,note_on,240,0,2,,,,,,,,,,,,,,,0,,,61,0
64320,note_on,0,0,2,,,,,,,,,,,,,,,0,,,37,33
64360,set_tempo,40,1,0,,,,,,,,,,,,1019368,,,,,,,
64560,set_tempo,200,1,0,,,,,,,,,,,,951475,,,,,,,
64560,note_on,240,0,2,,,,,,,,,,,,,,,0,,,37,0
64560,note_on,0,0,2,,,,,,,,,,,,,,,0,,,44,27
64800,note_on,240,0,2,,,,,,,,,,,,,,,0,,,44,0
64800,note_on,0,0,2,,,,,,,,,,,,,,,0,,,53,29
65040,note_on,240,0,2,,,,,,,,,,,,,,,0,,,53,0
65040,note_on,0,0,2,,,,,,,,,,,,,,,0,,,61,27
65040,set_tempo,480,1,0,,,,,,,,,,,,1010441,,,,,,,
65280,note_on,0,0,2,,,,,,,,,,,,,,,0,,,37,33
65280,control_change,0,0,2,,,,,,,,,,,,,,,0,64,0,,
65280,note_on,240,0,2,,,,,,,,,,,,,,,0,,,61,0
65280,note_on,960,0,1,,,,,,,,,,,,,,,0,,,80,0
65280,set_tempo,240,1,0,,,,,,,,,,,,984252,,,,,,,
65280,note_on,0,0,1,,,,,,,,,,,,,,,0,,,77,52
65417,control_change,137,0,2,,,,,,,,,,,,,,,0,64,127,,
65520,set_tempo,240,1,0,,,,,,,,,,,,959539,,,,,,,
65520,note_on,103,0,2,,,,,,,,,,,,,,,0,,,37,0
65520,note_on,0,0,2,,,,,,,,,,,,,,,0,,,44,27
65760,set_tempo,240,1,0,,,,,,,,,,,,984252,,,,,,,
65760,note_on,240,0,2,,,,,,,,,,,,,,,0,,,44,0
65760,note_on,0,0,2,,,,,,,,,,,,,,,0,,,53,30
66000,note_on,240,0,2,,,,,,,,,,,,,,,0,,,53,0
66000,note_on,0,0,2,,,,,,,,,,,,,,,0,,,61,28
66240,note_on,240,0,2,,,,,,,,,,,,,,,0,,,61,0
66240,set_tempo,480,1,0,,,,,,,,,,,,959539,,,,,,,
66240,note_on,0,0,2,,,,,,,,,,,,,,,0,,,34,33
66240,note_on,0,0,1,,,,,,,,,,,,,,,0,,,78,51
66240,note_on,960,0,1,,,,,,,,,,,,,,,0,,,77,0
66297,control_change,57,0,2,,,,,,,,,,,,,,,0,64,0,,
66434,control_change,137,0,2,,,,,,,,,,,,,,,0,64,127,,
66480,note_on,240,0,1,,,,,,,,,,,,,,,0,,,78,0
66480,note_on,0,0,1,,,,,,,,,,,,,,,0,,,77,46
66480,note_on,0,0,2,,,,,,,,,,,,,,,0,,,46,29
66480,note_on,46,0,2,,,,,,,,,,,,,,,0,,,34,0
66720,note_on,240,0,1,,,,,,,,,,,,,,,0,,,77,0
66720,note_on,0,0,1,,,,,,,,,,,,,,,0,,,75,50
66720,note_on,240,0,2,,,,,,,,,,,,,,,0,,,46,0
66720,note_on,0,0,2,,,,,,,,,,,,,,,0,,,56,29
66960,set_tempo,720,1,0,,,,,,,,,,,,1077199,,,,,,,
66960,note_on,0,0,1,,,,,,,,,,,,,,,0,,,74,46
66960,note_on,240,0,1,,,,,,,,,,,,,,,0,,,75,0
66960,note_on,240,0,2,,,,,,,,,,,,,,,0,,,56,0
66960,note_on,0,0,2,,,,,,,,,,,,,,,0,,,62,30
67080,set_tempo,120,1,0,,,,,,,,,,,,804074,,,,,,,
67080,note_on,0,0,1,,,,,,,,,,,,,,,0,,,75,46
67080,note_on,120,0,1,,,,,,,,,,,,,,,0,,,74,0
67140,note_on,0,0,1,,,,,,,,,,,,,,,0,,,77,42
67140,note_on,60,0,1,,,,,,,,,,,,,,,0,,,75,0
67200,set_tempo,120,1,0,,,,,,,,,,,,951475,,,,,,,
67200,note_on,0,0,2,,,,,,,,,,,,,,,0,,,39,33
67200,note_on,240,0,2,,,,,,,,,,,,,,,0,,,62,0
67200,control_change,0,0,2,,,,,,,,,,,,,,,0,64,0,,
67200,note_on,0,0,1,,,,,,,,,,,,,,,0,,,75,53
67200,note_on,60,0,1,,,,,,,,,,,,,,,0,,,77,0
67237,control_change,37,0,2,,,,,,,,,,,,,,,0,64,127,,
67240,set_tempo,40,1,0,,,,,,,,,,,,935891,,,,,,,
67440,note_on,0,0,1,,,,,,,,,,,,,,,0,,,74,51
67440,note_on,203,0,2,,,,,,,,,,,,,,,0,,,39,0
67440,note_on,0,0,2,,,,,,,,,,,,,,,0,,,46,30
67440,note_on,240,0,1,,,,,,,,,,,,,,,0,,,75,0
67680,note_on,240,0,2,,,,,,,,,,,,,,,0,,,46,0
67680,note_on,0,0,2,,,,,,,,,,,,,,,0,,,54,30
67680,note_on,240,0,1,,,,,,,,,,,,,,,0,,,74,0
67680,note_on,0,0,1,,,,,,,,,,,,,,,0,,,75,54
67920,note_on,240,0,1,,,,,,,,,,,,,,,0,,,75,0
67920,set_tempo,680,1,0,,,,,,,,,,,,951475,,,,,,,
67920,note_on,240,0,2,,,,,,,,,,,,,,,0,,,54,0
67920,note_on,0,0,2,,,,,,,,,,,,,,,0,,,63,27
67920,note_on,0,0,1,,,,,,,,,,,,,,,0,,,77,55
68160,note_on,240,0,2,,,,,,,,,,,,,,,0,,,63,0
68160,note_on,240,0,1,,,,,,,,,,,,,,,0,,,77,0
68160,note_on,0,0,2,,,,,,,,,,,,,,,0,,,42,33
68160,note_on,0,0,1,,,,,,,,,,,,,,,0,,,78,57
68169,control_change,9,0,2,,,,,,,,,,,,,,,0,64,0,,
68197,control_change,28,0,2,,,,,,,,,,,,,,,0,64,127,,
68200,set_tempo,280,1,0,,,,,,,,,,,,951475,,,,,,,
68400,note_on,0,0,1,,,,,,,,,,,,,,,0,,,70,52
68400,note_on,203,0,2,,,,,,,,,,,,,,,0,,,42,0
68400,note_on,0,0,2,,,,,,,,,,,,,,,0,,,51,29
68400,note_on,240,0,1,,,,,,,,,,,,,,,0,,,78,0
68640,set_tempo,440,1,0,,,,,,,,,,,,992884,,,,,,,
68640,note_on,240,0,2,,,,,,,,,,,,,,,0,,,51,0
68640,note_on,0,0,1,,,,,,,,,,,,,,,0,,,77,57
68640,note_on,240,0,1,,,,,,,,,,,,,,,0,,,70,0
68640,note_on,0,0,2,,,,,,,,,,,,,,,0,,,58,30
68880,note_on,240,0,2,,,,,,,,,,,,,,,0,,,58,0
68880,note_on,0,0,1,,,,,,,,,,,,,,,0,,,75,50
68880,note_on,240,0,1,,,,,,,,,,,,,,,0,,,77,0
68880,set_tempo,240,1,0,,,,,,,,,,,,1165049,,,,,,,
68880,note_on,0,0,2,,,,,,,,,,,,,,,0,,,63,27
69000,note_on,0,0,1,,,,,,,,,,,,,,,0,,,72,39
69000,note_on,120,0,1,,,,,,,,,,,,,,,0,,,75,0
69000,set_tempo,120,1,0,,,,,,,,,,,,821355,,,,,,,
69026,control_change,146,0,2,,,,,,,,,,,,,,,0,64,0,,
69046,control_change,20,0,2,,,,,,,,,,,,,,,0,64,127,,
69060,note_on,0,0,1,,,,,,,,,,,,,,,0,,,73,39
69060,note_on,60,0,1,,,,,,,,,,,,,,,0,,,72,0
69120,note_on,0,0,2,,,,,,,,,,,,,,,0,,,43,33
69120,note_on,74,0,2,,,,,,,,,,,,,,,0,,,63,0
69120,note_on,0,0,1,,,,,,,,,,,,,,,0,,,73,39
69120,note_on,60,0,1,,,,,,,,,,,,,,,0,,,73,0
69120,set_tempo,120,1,0,,,,,,,,,,,,1001502,,,,,,,
69165,note_on,0,0,1,,,,,,,,,,,,,,,0,,,75,36
69165,note_on,45,0,1,,,,,,,,,,,,,,,0,,,73,0
69210,note_on,0,0,1,,,,,,,,,,,,,,,0,,,73,40
69210,note_on,45,0,1,,,,,,,,,,,,,,,0,,,75,0
69240,set_tempo,120,1,0,,,,,,,,,,,,992884,,,,,,,
69255,note_on,0,0,1,,,,,,,,,,,,,,,0,,,75,37
69255,note_on,45,0,1,,,,,,,,,,,,,,,0,,,73,0
69300,note_on,0,0,1,,,,,,,,,,,,,,,0,,,73,42
69300,note_on,45,0,1,,,,,,,,,,,,,,,0,,,75,0
69320,set_tempo,80,1,0,,,,,,,,,,,,984252,,,,,,,
69345,note_on,0,0,1,,,,,,,,,,,,,,,0,,,75,38
69345,note_on,45,0,1,,,,,,,,,,,,,,,0,,,73,0
69360,note_on,0,0,2,,,,,,,,,,,,,,,0,,,52,28
69360,note_on,240,0,2,,,,,,,,,,,,,,,0,,,43,0
69390,note_on,0,0,1,,,,,,,,,,,,,,,0,,,73,44
69390,note_on,45,0,1,,,,,,,,,,,,,,,0,,,75,0
69400,set_tempo,80,1,0,,,,,,,,,,,,975927,,,,,,,
69435,note_on,45,0,1,,,,,,,,,,,,,,,0,,,73,0
69435,note_on,0,0,1,,,,,,,,,,,,,,,0,,,75,39
69480,set_tempo,80,1,0,,,,,,,,,,,,967586,,,,,,,
69480,note_on,0,0,1,,,,,,,,,,,,,,,0,,,73,46
69480,note_on,45,0,1,,,,,,,,,,,,,,,0,,,75,0
69525,note_on,0,0,1,,,,,,,,,,,,,,,0,,,75,42
69525,note_on,45,0,1,,,,,,,,,,,,,,,0,,,73,0
69560,set_tempo,80,1,0,,,,,,,,,,,,959539,,,,,,,
69570,note_on,45,0,1,,,,,,,,,,,,,,,0,,,75,0
69570,note_on,0,0,1,,,,,,,,,,,,,,,0,,,73,48
69600,note_on,240,0,2,,,,,,,,,,,,,,,0,,,52,0
69600,note_on,0,0,2,,,,,,,,,,,,,,,0,,,61,28
69615,note_on,0,0,1,,,,,,,,,,,,,,,0,,,75,42
69615,note_on,45,0,1,,,,,,,,,,,,,,,0,,,73,0
69640,set_tempo,80,1,0,,,,,,,,,,,,951475,,,,,,,
69660,note_on,45,0,1,,,,,,,,,,,,,,,0,,,75,0
69660,note_on,0,0,1,,,,,,,,,,,,,,,0,,,73,47
69680,set_tempo,40,1,0,,,,,,,,,,,,959539,,,,,,,
69705,note_on,45,0,1,,,,,,,,,,,,,,,0,,,73,0
69706,note_on,1,0,1,,,,,,,,,,,,,,,0,,,75,40
69720,set_tempo,40,1,0,,,,,,,,,,,,967586,,,,,,,
69750,note_on,44,0,1,,,,,,,,,,,,,,,0,,,73,44
69751,note_on,1,0,1,,,,,,,,,,,,,,,0,,,75,0
69760,set_tempo,40,1,0,,,,,,,,,,,,975927,,,,,,,
69795,note_on,44,0,1,,,,,,,,,,,,,,,0,,,73,0
69795,note_on,0,0,1,,,,,,,,,,,,,,,0,,,75,38
69800,set_tempo,40,1,0,,,,,,,,,,,,984252,,,,,,,
69840,note_on,240,0,2,,,,,,,,,,,,,,,0,,,61,0
69840,note_on,45,0,1,,,,,,,,,,,,,,,0,,,73,42
69840,set_tempo,40,1,0,,,,,,,,,,,,992884,,,,,,,
69840,note_on,0,0,2,,,,,,,,,,,,,,,0,,,70,29
69841,note_on,1,0,1,,,,,,,,,,,,,,,0,,,75,0
69860,set_tempo,20,1,0,,,,,,,,,,,,1001502,,,,,,,
69880,set_tempo,20,1,0,,,,,,,,,,,,1019368,,,,,,,
69900,note_on,59,0,1,,,,,,,,,,,,,,,0,,,73,0
69900,note_on,0,0,1,,,,,,,,,,,,,,,0,,,75,37
69900,set_tempo,20,1,0,,,,,,,,,,,,1038062,,,,,,,
69920,set_tempo,20,1,0,,,,,,,,,,,,1057269,,,,,,,
69940,set_tempo,20,1,0,,,,,,,,,,,,1087350,,,,,,,
69960,set_tempo,20,1,0,,,,,,,,,,,,1108443,,,,,,,
69960,note_on,60,0,1,,,,,,,,,,,,,,,0,,,75,0
69960,note_on,0,0,1,,,,,,,,,,,,,,,0,,,72,40
69980,set_tempo,20,1,0,,,,,,,,,,,,1130582,,,,,,,
70000,set_tempo,20,1,0,,,,,,,,,,,,1153403,,,,,,,
70020,note_on,0,0,1,,,,,,,,,,,,,,,0,,,73,35
70020,note_on,60,0,1,,,,,,,,,,,,,,,0,,,72,0
70020,set_tempo,20,1,0,,,,,,,,,,,,1189296,,,,,,,
70040,set_tempo,20,1,0,,,,,,,,,,,,1038062,,,,,,,
70080,note_on,0,0,1,,,,,,,,,,,,,,,0,,,82,54
70080,note_on,0,0,2,,,,,,,,,,,,,,,0,,,44,33
70080,note_on,240,0,2,,,,,,,,,,,,,,,0,,,70,0
70080,set_tempo,40,1,0,,,,,,,,,,,,984252,,,,,,,
70080,note_on,60,0,1,,,,,,,,,,,,,,,0,,,73,0
70105,control_change,25,0,2,,,,,,,,,,,,,,,0,64,0,,
70140,control_change,35,0,2,,,,,,,,,,,,,,,0,64,127,,
70320,note_on,240,0,1,,,,,,,,,,,,,,,0,,,82,0
70320,note_on,0,0,2,,,,,,,,,,,,,,,0,,,51,28
70320,note_on,180,0,2,,,,,,,,,,,,,,,0,,,44,0
70320,note_on,0,0,1,,,,,,,,,,,,,,,0,,,80,50
70560,set_tempo,480,1,0,,,,,,,,,,,,1010441,,,,,,,
70560,note_on,0,0,1,,,,,,,,,,,,,,,0,,,78,52
70560,note_on,240,0,1,,,,,,,,,,,,,,,0,,,80,0
70560,note_on,240,0,2,,,,,,,,,,,,,,,0,,,51,0
70560,note_on,0,0,2,,,,,,,,,,,,,,,0,,,60,30
70800,note_on,0,0,1,,,,,,,,,,,,,,,0,,,68,50
70800,note_on,240,0,1,,,,,,,,,,,,,,,0,,,78,0
70800,note_on,240,0,2,,,,,,,,,,,,,,,0,,,60,0
70800,note_on,0,0,2,,,,,,,,,,,,,,,0,,,66,30
71040,note_on,240,0,1,,,,,,,,,,,,,,,0,,,68,0
71040,note_on,0,0,1,,,,,,,,,,,,,,,0,,,75,54
71040,note_on,0,0,2,,,,,,,,,,,,,,,0,,,32,33
71040,note_on,240,0,2,,,,,,,,,,,,,,,0,,,66,0
71100,control_change,60,0,2,,,,,,,,,,,,,,,0,64,0,,
71238,control_change,138,0,2,,,,,,,,,,,,,,,0,64,127,,
71280,note_on,0,0,2,,,,,,,,,,,,,,,0,,,44,27
71280,set_tempo,720,1,0,,,,,,,,,,,,984252,,,,,,,
71280,note_on,42,0,2,,,,,,,,,,,,,,,0,,,32,0
71520,note_on,240,0,2,,,,,,,,,,,,,,,0,,,44,0
71520,note_on,0,0,2,,,,,,,,,,,,,,,0,,,54,27
71520,set_tempo,240,1,0,,,,,,,,,,,,1010441,,,,,,,
71760,note_on,0,0,2,,,,,,,,,,,,,,,0,,,60,26
71760,note_on,240,0,2,,,,,,,,,,,,,,,0,,,54,0
72000,note_on,240,0,2,,,,,,,,,,,,,,,0,,,60,0
72000,note_on,0,0,2,,,,,,,,,,,,,,,0,,,37,31
72000,note_on,960,0,1,,,,,,,,,,,,,,,0,,,75,0
72000,note_on,0,0,1,,,,,,,,,,,,,,,0,,,73,50
72085,control_change,85,0,2,,,,,,,,,,,,,,,0,64,0,,
72198,control_change,113,0,2,,,,,,,,,,,,,,,0,64,127,,
72240,note_on,42,0,2,,,,,,,,,,,,,,,0,,,37,0
72240,note_on,0,0,2,,,,,,,,,,,,,,,0,,,44,28
72480,note_on,480,0,1,,,,,,,,,,,,,,,0,,,73,0
72480,note_on,240,0,2,,,,,,,,,,,,,,,0,,,44,0
72480,note_on,0,0,2,,,,,,,,,,,,,,,0,,,53,28
72720,note_on,0,0,2,,,,,,,,,,,,,,,0,,,61,28
72720,set_tempo,1200,1,0,,,,,,,,,,,,1077199,,,,,,,
72720,note_on,240,0,2,,,,,,,,,,,,,,,0,,,53,0
72960,note_on,240,0,2,,,,,,,,,,,,,,,0,,,61,0
72960,note_on,480,0,1,,,,,,,,,,,,,,,0,,,77,54
72960,control_change,0,0,2,,,,,,,,,,,,,,,0,64,0,,
72960,note_on,0,0,2,,,,,,,,,,,,,,,0,,,37,33
72960,set_tempo,240,1,0,,,,,,,,,,,,1028630,,,,,,,
73045,control_change,85,0,2,,,,,,,,,,,,,,,0,64,127,,
73200,note_on,155,0,2,,,,,,,,,,,,,,,0,,,37,0
73200,note_on,0,0,2,,,,,,,,,,,,,,,0,,,44,27
73200,set_tempo,240,1,0,,,,,,,,,,,,967586,,,,,,,
73440,note_on,0,0,2,,,,,,,,,,,,,,,0,,,53,27
73440,note_on,240,0,2,,,,,,,,,,,,,,,0,,,44,0
73440,set_tempo,240,1,0,,,,,,,,,,,,975927,,,,,,,
73680,set_tempo,240,1,0,,,,,,,,,,,,992884,,,,,,,
73680,note_on,0,0,2,,,,,,,,,,,,,,,0,,,61,28
73680,note_on,240,0,2,,,,,,,,,,,,,,,0,,,53,0
73920,note_on,240,0,2,,,,,,,,,,,,,,,0,,,61,0
73920,note_on,0,0,2,,,,,,,,,,,,,,,0,,,37,33
73920,note_on,960,0,1,,,,,,,,,,,,,,,0,,,77,0
73920,note_on,0,0,1,,,,,,,,,,,,,,,0,,,78,50
74160,note_on,0,0,2,,,,,,,,,,,,,,,0,,,44,27
74160,note_on,0,0,1,,,,,,,,,,,,,,,0,,,77,46
74160,note_on,240,0,2,,,,,,,,,,,,,,,0,,,37,0
74160,set_tempo,480,1,0,,,,,,,,,,,,951475,,,,,,,
74160,note_on,240,0,1,,,,,,,,,,,,,,,0,,,78,0
74400,note_on,0,0,1,,,,,,,,,,,,,,,0,,,75,50
74400,note_on,0,0,2,,,,,,,,,,,,,,,0,,,53,27
74400,note_on,240,0,2,,,,,,,,,,,,,,,0,,,44,0
74400,note_on,240,0,1,,,,,,,,,,,,,,,0,,,77,0
74640,note_on,240,0,2,,,,,,,,,,,,,,,0,,,53,0
74640,note_on,240,0,1,,,,,,,,,,,,,,,0,,,75,0
74640,note_on,0,0,1,,,,,,,,,,,,,,,0,,,73,46
74640,note_on,0,0,2,,,,,,,,,,,,,,,0,,,61,28
74640,set_tempo,480,1,0,,,,,,,,,,,,984252,,,,,,,
74880,note_on,240,0,2,,,,,,,,,,,,,,,0,,,61,0
74880,control_change,0,0,2,,,,,,,,,,,,,,,0,64,0,,
74880,note_on,0,0,1,,,,,,,,,,,,,,,0,,,72,50
74880,note_on,0,0,2,,,,,,,,,,,,,,,0,,,39,33
74880,note_on,240,0,1,,,,,,,,,,,,,,,0,,,73,0
74880,set_tempo,240,1,0,,,,,,,,,,,,984252,,,,,,,
75007,control_change,127,0,2,,,,,,,,,,,,,,,0,64,127,,
75120,note_on,0,0,2,,,,,,,,,,,,,,,0,,,44,27
75120,note_on,113,0,2,,,,,,,,,,,,,,,0,,,39,0
75240,set_tempo,360,1,0,,,,,,,,,,,,1028630,,,,,,,
75360,note_on,240,0,2,,,,,,,,,,,,,,,0,,,44,0
75360,note_on,0,0,1,,,,,,,,,,,,,,,0,,,82,54
75360,set_tempo,120,1,0,,,,,,,,,,,,984252,,,,,,,
75360,note_on,0,0,2,,,,,,,,,,,,,,,0,,,54,24
75360,note_on,480,0,1,,,,,,,,,,,,,,,0,,,72,0
75600,note_on,240,0,2,,,,,,,,,,,,,,,0,,,54,0
75600,note_on,0,0,2,,,,,,,,,,,,,,,0,,,60,24
75840,note_on,480,0,1,,,,,,,,,,,,,,,0,,,82,0
75840,note_on,0,0,2,,,,,,,,,,,,,,,0,,,39,31
75840,note_on,240,0,2,,,,,,,,,,,,,,,0,,,60,0
75840,note_on,0,0,1,,,,,,,,,,,,,,,0,,,80,52
76080,note_on,0,0,2,,,,,,,,,,,,,,,0,,,44,24
76080,note_on,240,0,2,,,,,,,,,,,,,,,0,,,39,0
76080,set_tempo,720,1,0,,,,,,,,,,,,959539,,,,,,,
76320,note_on,240,0,2,,,,,,,,,,,,,,,0,,,44,0
76320,note_on,0,0,2,,,,,,,,,,,,,,,0,,,54,27
76560,note_on,0,0,2,,,,,,,,,,,,,,,0,,,60,25
76560,set_tempo,480,1,0,,,,,,,,,,,,992884,,,,,,,
76560,note_on,240,0,2,,,,,,,,,,,,,,,0,,,54,0
76600,set_tempo,40,1,0,,,,,,,,,,,,1019368,,,,,,,
76800,note_on,240,0,2,,,,,,,,,,,,,,,0,,,60,0
76800,note_on,0,0,2,,,,,,,,,,,,,,,0,,,32,33
76800,note_on,960,0,1,,,,,,,,,,,,,,,0,,,80,0
76800,note_on,0,0,1,,,,,,,,,,,,,,,0,,,78,51
76814,control_change,14,0,2,,,,,,,,,,,,,,,0,64,0,,
76984,control_change,170,0,2,,,,,,,,,,,,,,,0,64,127,,
77040,set_tempo,440,1,0,,,,,,,,,,,,967586,,,,,,,
77040,note_on,0,0,2,,,,,,,,,,,,,,,0,,,44,29
77040,note_on,56,0,2,,,,,,,,,,,,,,,0,,,32,0
77280,note_on,0,0,2,,,,,,,,,,,,,,,0,,,54,29
77280,note_on,240,0,2,,,,,,,,,,,,,,,0,,,44,0
77520,note_on,240,0,2,,,,,,,,,,,,,,,0,,,54,0
77520,set_tempo,480,1,0,,,,,,,,,,,,984252,,,,,,,
77520,note_on,0,0,2,,,,,,,,,,,,,,,0,,,60,30
77760,note_on,240,0,2,,,,,,,,,,,,,,,0,,,60,0
77760,note_on,960,0,1,,,,,,,,,,,,,,,0,,,78,0
77760,note_on,0,0,1,,,,,,,,,,,,,,,0,,,80,50
77760,note_on,0,0,2,,,,,,,,,,,,,,,0,,,32,36
78000,note_on,0,0,1,,,,,,,,,,,,,,,0,,,78,46
78000,set_tempo,480,1,0,,,,,,,,,,,,951475,,,,,,,
78000,note_on,240,0,2,,,,,,,,,,,,,,,0,,,32,0
78000,note_on,0,0,2,,,,,,,,,,,,,,,0,,,44,30
78000,note_on,240,0,1,,,,,,,,,,,,,,,0,,,80,0
78240,note_on,240,0,1,,,,,,,,,,,,,,,0,,,78,0
78240,note_on,0,0,1,,,,,,,,,,,,,,,0,,,77,50
78240,note_on,240,0,2,,,,,,,,,,,,,,,0,,,44,0
78240,note_on,0,0,2,,,,,,,,,,,,,,,0,,,54,30
78480,note_on,240,0,2,,,,,,,,,,,,,,,0,,,54,0
78480,note_on,0,0,2,,,,,,,,,,,,,,,0,,,60,31
78480,set_tempo,480,1,0,,,,,,,,,,,,992884,,,,,,,
78480,note_on,0,0,1,,,,,,,,,,,,,,,0,,,75,46
78480,note_on,240,0,1,,,,,,,,,,,,,,,0,,,77,0
78720,set_tempo,240,1,0,,,,,,,,,,,,992884,,,,,,,
78720,note_on,0,0,2,,,,,,,,,,,,,,,0,,,37,36
78720,note_on,240,0,2,,,,,,,,,,,,,,,0,,,60,0
78720,note_on,0,0,1,,,,,,,,,,,,,,,0,,,73,50
78720,note_on,240,0,1,,,,,,,,,,,,,,,0,,,75,0
78720,control_change,0,0,2,,,,,,,,,,,,,,,0,64,0,,
78861,control_change,141,0,2,,,,,,,,,,,,,,,0,64,127,,
78960,note_on,0,0,2,,,,,,,,,,,,,,,0,,,44,30
78960,note_on,99,0,2,,,,,,,,,,,,,,,0,,,37,0
79200,note_on,480,0,1,,,,,,,,,,,,,,,0,,,73,0
79200,note_on,0,0,1,,,,,,,,,,,,,,,0,,,85,53
79200,note_on,0,0,2,,,,,,,,,,,,,,,0,,,53,28
79200,note_on,240,0,2,,,,,,,,,,,,,,,0,,,44,0
79440,note_on,0,0,2,,,,,,,,,,,,,,,0,,,61,25
79440,note_on,240,0,2,,,,,,,,,,,,,,,0,,,53,0
79560,set_tempo,840,1,0,,,,,,,,,,,,1047486,,,,,,,
79680,note_on,0,0,1,,,,,,,,,,,,,,,0,,,80,49
79680,note_on,480,0,1,,,,,,,,,,,,,,,0,,,85,0
79680,note_on,240,0,2,,,,,,,,,,,,,,,0,,,61,0
79680,note_on,0,0,2,,,,,,,,,,,,,,,0,,,37,33
79680,set_tempo,120,1,0,,,,,,,,,,,,992884,,,,,,,
79720,set_tempo,40,1,0,,,,,,,,,,,,1019368,,,,,,,
79920,note_on,240,0,2,,,,,,,,,,,,,,,0,,,37,0
79920,set_tempo,200,1,0,,,,,,,,,,,,951475,,,,,,,
79920,note_on,0,0,2,,,,,,,,,,,,,,,0,,,44,27
80160,note_on,0,0,2,,,,,,,,,,,,,,,0,,,53,29
80160,note_on,240,0,2,,,,,,,,,,,,,,,0,,,44,0
80400,note_on,240,0,2,,,,,,,,,,,,,,,0,,,53,0
80400,note_on,0,0,2,,,,,,,,,,,,,,,0,,,61,27
80400,set_tempo,480,1,0,,,,,,,,,,,,1010441,,,,,,,
80640,note_on,240,0,2,,,,,,,,,,,,,,,0,,,61,0
80640,note_on,0,0,1,,,,,,,,,,,,,,,0,,,77,52
80640,note_on,960,0,1,,,,,,,,,,,,,,,0,,,80,0
80640,set_tempo,240,1,0,,,,,,,,,,,,984252,,,,,,,
80640,note_on,0,0,2,,,,,,,,,,,,,,,0,,,37,33
80640,control_change,0,0,2,,,,,,,,,,,,,,,0,64,0,,
80777,control_change,137,0,2,,,,,,,,,,,,,,,0,64,127,,
80880,note_on,0,0,2,,,,,,,,,,,,,,,0,,,44,27
80880,note_on,103,0,2,,,,,,,,,,,,,,,0,,,37,0
80880,set_tempo,240,1,0,,,,,,,,,,,,959539,,,,,,,
81120,note_on,240,0,2,,,,,,,,,,,,,,,0,,,44,0
81120,note_on,0,0,2,,,,,,,,,,,,,,,0,,,53,30
81120,set_tempo,240,1,0,,,,,,,,,,,,984252,,,,,,,
81360,note_on,0,0,2,,,,,,,,,,,,,,,0,,,61,28
81360,note_on,240,0,2,,,,,,,,,,,,,,,0,,,53,0
81600,note_on,0,0,2,,,,,,,,,,,,,,,0,,,34,33
81600,note_on,240,0,2,,,,,,,,,,,,,,,0,,,61,0
81600,note_on,960,0,1,,,,,,,,,,,,,,,0,,,77,0
81600,set_tempo,480,1,0,,,,,,,,,,,,959539,,,,,,,
81600,note_on,0,0,1,,,,,,,,,,,,,,,0,,,78,51
81657,control_change,57,0,2,,,,,,,,,,,,,,,0,64,0,,
81794,control_change,137,0,2,,,,,,,,,,,,,,,0,64,127,,
81840,note_on,240,0,1,,,,,,,,,,,,,,,0,,,78,0
81840,note_on,0,0,1,,,,,,,,,,,,,,,0,,,77,46
81840,note_on,0,0,2,,,,,,,,,,,,,,,0,,,46,29
81840,note_on,46,0,2,,,,,,,,,,,,,,,0,,,34,0
82080,note_on,0,0,2,,,,,,,,,,,,,,,0,,,56,29
82080,note_on,240,0,1,,,,,,,,,,,,,,,0,,,77,0
82080,note_on,0,0,1,,,,,,,,,,,,,,,0,,,75,50
82080,note_on,240,0,2,,,,,,,,,,,,,,,0,,,46,0
82320,note_on,240,0,2,,,,,,,,,,,,,,,0,,,56,0
82320,note_on,0,0,2,,,,,,,,,,,,,,,0,,,62,30
82320,note_on,0,0,1,,,,,,,,,,,,,,,0,,,74,46
82320,note_on,240,0,1,,,,,,,,,,,,,,,0,,,75,0
82320,set_tempo,720,1,0,,,,,,,,,,,,1077199,,,,,,,
82440,note_on,120,0,1,,,,,,,,,,,,,,,0,,,74,0
82440,set_tempo,120,1,0,,,,,,,,,,,,804074,,,,,,,
82440,note_on,0,0,1,,,,,,,,,,,,,,,0,,,75,46
82500,note_on,0,0,1,,,,,,,,,,,,,,,0,,,77,42
82500,note_on,60,0,1,,,,,,,,,,,,,,,0,,,75,0
82560,note_on,240,0,2,,,,,,,,,,,,,,,0,,,62,0
82560,note_on,0,0,1,,,,,,,,,,,,,,,0,,,75,53
82560,note_on,0,0,2,,,,,,,,,,,,,,,0,,,39,33
82560,note_on,60,0,1,,,,,,,,,,,,,,,0,,,77,0
82560,set_tempo,120,1,0,,,,,,,,,,,,951475,,,,,,,
82560,control_change,0,0,2,,,,,,,,,,,,,,,0,64,0,,
82597,control_change,37,0,2,,,,,,,,,,,,,,,0,64,127,,
82600,set_tempo,40,1,0,,,,,,,,,,,,935891,,,,,,,
82800,note_on,240,0,1,,,,,,,,,,,,,,,0,,,75,0
82800,note_on,0,0,1,,,,,,,,,,,,,,,0,,,74,51
82800,note_on,0,0,2,,,,,,,,,,,,,,,0,,,46,30
82800,note_on,203,0,2,,,,,,,,,,,,,,,0,,,39,0
83040,note_on,240,0,1,,,,,,,,,,,,,,,0,,,74,0
83040,note_on,240,0,2,,,,,,,,,,,,,,,0,,,46,0
83040,note_on,0,0,2,,,,,,,,,,,,,,,0,,,54,30
83040,note_on,0,0,1,,,,,,,,,,,,,,,0,,,75,54
83280,note_on,240,0,2,,,,,,,,,,,,,,,0,,,54,0
83280,note_on,0,0,1,,,,,,,,,,,,,,,0,,,77,55
83280,note_on,240,0,1,,,,,,,,,,,,,,,0,,,75,0
83280,set_tempo,680,1,0,,,,,,,,,,,,951475,,,,,,,
83280,note_on,0,0,2,,,,,,,,,,,,,,,0,,,63,27
83520,note_on,0,0,1,,,,,,,,,,,,,,,0,,,78,57
83520,note_on,240,0,2,,,,,,,,,,,,,,,0,,,63,0
83520,note_on,0,0,2,,,,,,,,,,,,,,,0,,,42,33
83520,note_on,240,0,1,,,,,,,,,,,,,,,0,,,77,0
83529,control_change,9,0,2,,,,,,,,,,,,,,,0,64,0,,
83557,control_change,28,0,2,,,,,,,,,,,,,,,0,64,127,,
83560,set_tempo,280,1,0,,,,,,,,,,,,951475,,,,,,,
83760,note_on,0,0,1,,,,,,,,,,,,,,,0,,,70,52
83760,note_on,240,0,1,,,,,,,,,,,,,,,0,,,78,0
83760,note_on,203,0,2,,,,,,,,,,,,,,,0,,,42,0
83760,note_on,0,0,2,,,,,,,,,,,,,,,0,,,51,29
84000,note_on,0,0,2,,,,,,,,,,,,,,,0,,,58,30
84000,note_on,240,0,2,,,,,,,,,,,,,,,0,,,51,0
84000,note_on,0,0,1,,,,,,,,,,,,,,,0,,,77,57
84000,set_tempo,440,1,0,,,,,,,,,,,,992884,,,,,,,
84000,note_on,240,0,1,,,,,,,,,,,,,,,0,,,70,0
84240,note_on,0,0,2,,,,,,,,,,,,,,,0,,,63,27
84240,note_on,240,0,1,,,,,,,,,,,,,,,0,,,77,0
84240,note_on,0,0,1,,,,,,,,,,,,,,,0,,,75,50
84240,set_tempo,240,1,0,,,,,,,,,,,,1165049,,,,,,,
84240,note_on,240,0,2,,,,,,,,,,,,,,,0,,,58,0
84360,set_tempo,120,1,0,,,,,,,,,,,,821355,,,,,,,
84360,note_on,120,0,1,,,,,,,,,,,,,,,0,,,75,0
84360,note_on,0,0,1,,,,,,,,,,,,,,,0,,,72,39
84386,control_change,146,0,2,,,,,,,,,,,,,,,0,64,0,,
84406,control_change,20,0,2,,,,,,,,,,,,,,,0,64,127,,
84420,note_on,60,0,1,,,,,,,,,,,,,,,0,,,72,0
84420,note_on,0,0,1,,,,,,,,,,,,,,,0,,,73,39
84480,note_on,0,0,2,,,,,,,,,,,,,,,0,,,43,33
84480,note_on,74,0,2,,,,,,,,,,,,,,,0,,,63,0
84480,set_tempo,120,1,0,,,,,,,,,,,,1001502,,,,,,,
84480,note_on,0,0,1,,,,,,,,,,,,,,,0,,,73,39
84480,note_on,60,0,1,,,,,,,,,,,,,,,0,,,73,0
84525,note_on,0,0,1,,,,,,,,,,,,,,,0,,,75,36
84525,note_on,45,0,1,,,,,,,,,,,,,,,0,,,73,0
84570,note_on,0,0,1,,,,,,,,,,,,,,,0,,,73,40
84570,note_on,45,0,1,,,,,,,,,,,,,,,0,,,75,0
84600,set_tempo,120,1,0,,,,,,,,,,,,992884,,,,,,,
84615,note_on,0,0,1,,,,,,,,,,,,,,,0,,,75,37
84615,note_on,45,0,1,,,,,,,,,,,,,,,0,,,73,0
84660,note_on,45,0,1,,,,,,,,,,,,,,,0,,,75,0
84660,note_on,0,0,1,,,,,,,,,,,,,,,0,,,73,42
84680,set_tempo,80,1,0,,,,,,,,,,,,984252,,,,,,,
84705,note_on,45,0,1,,,,,,,,,,,,,,,0,,,73,0
84705,note_on,0,0,1,,,,,,,,,,,,,,,0,,,75,38
84720,note_on,0,0,2,,,,,,,,,,,,,,,0,,,52,28
84720,note_on,240,0,2,,,,,,,,,,,,,,,0,,,43,0
84750,note_on,45,0,1,,,,,,,,,,,,,,,0,,,75,0
84750,note_on,0,0,1,,,,,,,,,,,,,,,0,,,73,44
84760,set_tempo,80,1,0,,,,,,,,,,,,975927,,,,,,,
84795,note_on,0,0,1,,,,,,,,,,,,,,,0,,,75,39
84795,note_on,45,0,1,,,,,,,,,,,,,,,0,,,73,0
84840,set_tempo,80,1,0,,,,,,,,,,,,967586,,,,,,,
84840,note_on,0,0,1,,,,,,,,,,,,,,,0,,,73,46
84840,note_on,45,0,1,,,,,,,,,,,,,,,0,,,75,0
84885,note_on,0,0,1,,,,,,,,,,,,,,,0,,,75,42
84885,note_on,45,0,1,,,,,,,,,,,,,,,0,,,73,0
84920,set_tempo,80,1,0,,,,,,,,,,,,959539,,,,,,,
84930,note_on,0,0,1,,,,,,,,,,,,,,,0,,,73,48
84930,note_on,45,0,1,,,,,,,,,,,,,,,0,,,75,0
84960,note_on,0,0,2,,,,,,,,,,,,,,,0,,,61,28
84960,note_on,240,0,2,,,,,,,,,,,,,,,0,,,52,0
84975,note_on,0,0,1,,,,,,,,,,,,,,,0,,,75,42
84975,note_on,45,0,1,,,,,,,,,,,,,,,0,,,73,0
85000,set_tempo,80,1,0,,,,,,,,,,,,951475,,,,,,,
85020,note_on,0,0,1,,,,,,,,,,,,,,,0,,,73,47
85020,note_on,45,0,1,,,,,,,,,,,,,,,0,,,75,0
85040,set_tempo,40,1,0,,,,,,,,,,,,959539,,,,,,,
85065,note_on,45,0,1,,,,,,,,,,,,,,,0,,,73,0
85066,note_on,1,0,1,,,,,,,,,,,,,,,0,,,75,40
85080,set_tempo,40,1,0,,,,,,,,,,,,967586,,,,,,,
85110,note_on,44,0,1,,,,,,,,,,,,,,,0,,,73,44
85111,note_on,1,0,1,,,,,,,,,,,,,,,0,,,75,0
85120,set_tempo,40,1,0,,,,,,,,,,,,975927,,,,,,,
85155,note_on,44,0,1,,,,,,,,,,,,,,,0,,,73,0
85155,note_on,0,0,1,,,,,,,,,,,,,,,0,,,75,38
85160,set_tempo,40,1,0,,,,,,,,,,,,984252,,,,,,,
85200,note_on,45,0,1,,,,,,,,,,,,,,,0,,,73,42
85200,note_on,240,0,2,,,,,,,,,,,,,,,0,,,61,0
85200,note_on,0,0,2,,,,,,,,,,,,,,,0,,,70,29
85200,set_tempo,40,1,0,,,,,,,,,,,,992884,,,,,,,
85201,note_on,1,0,1,,,,,,,,,,,,,,,0,,,75,0
85220,set_tempo,20,1,0,,,,,,,,,,,,1001502,,,,,,,
85240,set_tempo,20,1,0,,,,,,,,,,,,1019368,,,,,,,
85260,set_tempo,20,1,0,,,,,,,,,,,,1038062,,,,,,,
85260,note_on,59,0,1,,,,,,,,,,,,,,,0,,,73,0
85260,note_on,0,0,1,,,,,,,,,,,,,,,0,,,75,37
85280,set_tempo,20,1,0,,,,,,,,,,,,1057269,,,,,,,
85300,set_tempo,20,1,0,,,,,,,,,,,,1087350,,,,,,,
85320,note_on,0,0,1,,,,,,,,,,,,,,,0,,,72,40
85320,note_on,60,0,1,,,,,,,,,,,,,,,0,,,75,0
85320,set_tempo,20,1,0,,,,,,,,,,,,1108443,,,,,,,
85340,set_tempo,20,1,0,,,,,,,,,,,,1130582,,,,,,,
85360,set_tempo,20,1,0,,,,,,,,,,,,1153403,,,,,,,
85380,note_on,60,0,1,,,,,,,,,,,,,,,0,,,72,0
85380,set_tempo,20,1,0,,,,,,,,,,,,1189296,,,,,,,
85380,note_on,0,0,1,,,,,,,,,,,,,,,0,,,73,35
85400,set_tempo,20,1,0,,,,,,,,,,,,1038062,,,,,,,
85440,set_tempo,40,1,0,,,,,,,,,,,,984252,,,,,,,
85440,note_on,0,0,1,,,,,,,,,,,,,,,0,,,82,54
85440,note_on,60,0,1,,,,,,,,,,,,,,,0,,,73,0
85440,note_on,0,0,2,,,,,,,,,,,,,,,0,,,44,33
85440,note_on,240,0,2,,,,,,,,,,,,,,,0,,,70,0
85465,control_change,25,0,2,,,,,,,,,,,,,,,0,64,0,,
85500,control_change,35,0,2,,,,,,,,,,,,,,,0,64,127,,
85680,note_on,240,0,1,,,,,,,,,,,,,,,0,,,82,0
85680,note_on,0,0,2,,,,,,,,,,,,,,,0,,,51,28
85680,note_on,180,0,2,,,,,,,,,,,,,,,0,,,44,0
85680,note_on,0,0,1,,,,,,,,,,,,,,,0,,,80,50
85920,note_on,240,0,1,,,,,,,,,,,,,,,0,,,80,0
85920,note_on,0,0,1,,,,,,,,,,,,,,,0,,,78,52
85920,note_on,0,0,2,,,,,,,,,,,,,,,0,,,60,30
85920,note_on,240,0,2,,,,,,,,,,,,,,,0,,,51,0
85920,set_tempo,480,1,0,,,,,,,,,,,,1010441,,,,,,,
86160,note_on,240,0,1,,,,,,,,,,,,,,,0,,,78,0
86160,note_on,0,0,1,,,,,,,,,,,,,,,0,,,68,50
86160,note_on,240,0,2,,,,,,,,,,,,,,,0,,,60,0
86160,note_on,0,0,2,,,,,,,,,,,,,,,0,,,66,30
86400,note_on,0,0,2,,,,,,,,,,,,,,,0,,,32,33
86400,note_on,0,0,1,,,,,,,,,,,,,,,0,,,75,54
86400,note_on,240,0,1,,,,,,,,,,,,,,,0,,,68,0
86400,note_on,240,0,2,,,,,,,,,,,,,,,0,,,66,0
86460,control_change,60,0,2,,,,,,,,,,,,,,,0,64,0,,
86598,control_change,138,0,2,,,,,,,,,,,,,,,0,64,127,,
86640,set_tempo,720,1,0,,,,,,,,,,,,984252,,,,,,,
86640,note_on,42,0,2,,,,,,,,,,,,,,,0,,,32,0
86640,note_on,0,0,2,,,,,,,,,,,,,,,0,,,44,27
86880,note_on,240,0,2,,,,,,,,,,,,,,,0,,,44,0
86880,note_on,0,0,2,,,,,,,,,,,,,,,0,,,54,27
86880,set_tempo,240,1,0,,,,,,,,,,,,1010441,,,,,,,
87120,note_on,240,0,2,,,,,,,,,,,,,,,0,,,54,0
87120,note_on,0,0,2,,,,,,,,,,,,,,,0,,,60,26
87360,note_on,0,0,2,,,,,,,,,,,,,,,0,,,37,31
87360,note_on,0,0,1,,,,,,,,,,,,,,,0,,,73,50
87360,note_on,960,0,1,,,,,,,,,,,,,,,0,,,75,0
87360,note_on,240,0,2,,,,,,,,,,,,,,,0,,,60,0
87445,control_change,85,0,2,,,,,,,,,,,,,,,0,64,0,,
87558,control_change,113,0,2,,,,,,,,,,,,,,,0,64,127,,
87600,note_on,42,0,2,,,,,,,,,,,,,,,0,,,37,0
87600,note_on,0,0,2,,,,,,,,,,,,,,,0,,,44,28
87840,note_on,480,0,1,,,,,,,,,,,,,,,0,,,73,0
87840,note_on,240,0,2,,,,,,,,,,,,,,,0,,,44,0
87840,note_on,0,0,2,,,,,,,,,,,,,,,0,,,53,28
88080,note_on,0,0,2,,,,,,,,,,,,,,,0,,,61,28
88080,note_on,240,0,2,,,,,,,,,,,,,,,0,,,53,0
88080,set_tempo,1200,1,0,,,,,,,,,,,,1077199,,,,,,,
88320,note_on,480,0,1,,,,,,,,,,,,,,,0,,,72,56
88320,note_on,0,0,2,,,,,,,,,,,,,,,0,,,32,34
88320,set_tempo,240,1,0,,,,,,,,,,,,1028630,,,,,,,
88320,note_on,240,0,2,,,,,,,,,,,,,,,0,,,61,0
88348,control_change,28,0,2,,,,,,,,,,,,,,,0,64,0,,
88489,control_change,141,0,2,,,,,,,,,,,,,,,0,64,127,,
88560,set_tempo,240,1,0,,,,,,,,,,,,967586,,,,,,,
88560,note_on,71,0,2,,,,,,,,,,,,,,,0,,,32,0
88560,note_on,0,0,2,,,,,,,,,,,,,,,0,,,44,28
88800,set_tempo,240,1,0,,,,,,,,,,,,975927,,,,,,,
88800,note_on,0,0,2,,,,,,,,,,,,,,,0,,,51,28
88800,note_on,240,0,2,,,,,,,,,,,,,,,0,,,44,0
89040,set_tempo,240,1,0,,,,,,,,,,,,992884,,,,,,,
89040,note_on,0,0,2,,,,,,,,,,,,,,,0,,,60,29
89040,note_on,240,0,2,,,,,,,,,,,,,,,0,,,51,0
89280,note_on,960,0,1,,,,,,,,,,,,,,,0,,,72,0
89280,note_on,0,0,1,,,,,,,,,,,,,,,0,,,73,52
89280,note_on,0,0,2,,,,,,,,,,,,,,,0,,,32,34
89280,note_on,240,0,2,,,,,,,,,,,,,,,0,,,60,0
89520,note_on,0,0,1,,,,,,,,,,,,,,,0,,,72,48
89520,set_tempo,480,1,0,,,,,,,,,,,,951475,,,,,,,
89520,note_on,0,0,2,,,,,,,,,,,,,,,0,,,44,28
89520,note_on,240,0,2,,,,,,,,,,,,,,,0,,,32,0
89520,note_on,240,0,1,,,,,,,,,,,,,,,0,,,73,0
89760,note_on,0,0,2,,,,,,,,,,,,,,,0,,,51,28
89760,note_on,0,0,1,,,,,,,,,,,,,,,0,,,70,52
89760,note_on,240,0,2,,,,,,,,,,,,,,,0,,,44,0
89760,note_on,240,0,1,,,,,,,,,,,,,,,0,,,72,0
90000,note_on,240,0,1,,,,,,,,,,,,,,,0,,,70,0
90000,note_on,0,0,1,,,,,,,,,,,,,,,0,,,68,48
90000,note_on,0,0,2,,,,,,,,,,,,,,,0,,,60,29
90000,note_on,240,0,2,,,,,,,,,,,,,,,0,,,51,0
90000,set_tempo,480,1,0,,,,,,,,,,,,984252,,,,,,,
90240,note_on,0,0,2,,,,,,,,,,,,,,,0,,,34,34
90240,note_on,240,0,1,,,,,,,,,,,,,,,0,,,68,0
90240,control_change,0,0,2,,,,,,,,,,,,,,,0,64,0,,
90240,note_on,240,0,2,,,,,,,,,,,,,,,0,,,60,0
90240,set_tempo,240,1,0,,,,,,,,,,,,984252,,,,,,,
90240,note_on,0,0,1,,,,,,,,,,,,,,,0,,,67,52
90367,control_change,127,0,2,,,,,,,,,,,,,,,0,64,127,,
90480,note_on,0,0,2,,,,,,,,,,,,,,,0,,,46,28
90480,note_on,113,0,2,,,,,,,,,,,,,,,0,,,34,0
90600,set_tempo,360,1,0,,,,,,,,,,,,1028630,,,,,,,
90720,note_on,240,0,2,,,,,,,,,,,,,,,0,,,46,0
90720,note_on,0,0,1,,,,,,,,,,,,,,,0,,,77,56
90720,note_on,0,0,2,,,,,,,,,,,,,,,0,,,51,25
90720,set_tempo,120,1,0,,,,,,,,,,,,984252,,,,,,,
90720,note_on,480,0,1,,,,,,,,,,,,,,,0,,,67,0
90960,note_on,240,0,2,,,,,,,,,,,,,,,0,,,51,0
90960,note_on,0,0,2,,,,,,,,,,,,,,,0,,,61,25
91200,note_on,480,0,1,,,,,,,,,,,,,,,0,,,77,0
91200,note_on,0,0,1,,,,,,,,,,,,,,,0,,,75,54
91200,note_on,240,0,2,,,,,,,,,,,,,,,0,,,61,0
91200,note_on,0,0,2,,,,,,,,,,,,,,,0,,,34,32
91440,set_tempo,720,1,0,,,,,,,,,,,,959539,,,,,,,
91440,note_on,240,0,2,,,,,,,,,,,,,,,0,,,34,0
91440,note_on,0,0,2,,,,,,,,,,,,,,,0,,,46,25
91680,note_on,240,0,2,,,,,,,,,,,,,,,0,,,46,0
91680,note_on,0,0,2,,,,,,,,,,,,,,,0,,,51,28
91920,note_on,240,0,2,,,,,,,,,,,,,,,0,,,51,0
91920,note_on,0,0,2,,,,,,,,,,,,,,,0,,,61,26
91920,set_tempo,480,1,0,,,,,,,,,,,,992884,,,,,,,
91960,set_tempo,40,1,0,,,,,,,,,,,,1019368,,,,,,,
92160,note_on,0,0,1,,,,,,,,,,,,,,,0,,,73,55
92160,note_on,960,0,1,,,,,,,,,,,,,,,0,,,75,0
92160,note_on,240,0,2,,,,,,,,,,,,,,,0,,,61,0
92160,note_on,0,0,2,,,,,,,,,,,,,,,0,,,34,36
92174,control_change,14,0,2,,,,,,,,,,,,,,,0,64,0,,
92344,control_change,170,0,2,,,,,,,,,,,,,,,0,64,127,,
92400,note_on,56,0,2,,,,,,,,,,,,,,,0,,,34,0
92400,note_on,0,0,2,,,,,,,,,,,,,,,0,,,46,31
92400,set_tempo,440,1,0,,,,,,,,,,,,967586,,,,,,,
92640,note_on,240,0,2,,,,,,,,,,,,,,,0,,,46,0
92640,note_on,0,0,2,,,,,,,,,,,,,,,0,,,52,31
92880,set_tempo,480,1,0,,,,,,,,,,,,984252,,,,,,,
92880,note_on,0,0,2,,,,,,,,,,,,,,,0,,,61,33
92880,note_on,240,0,2,,,,,,,,,,,,,,,0,,,52,0
93120,note_on,0,0,1,,,,,,,,,,,,,,,0,,,75,55
93120,note_on,960,0,1,,,,,,,,,,,,,,,0,,,73,0
93120,note_on,0,0,2,,,,,,,,,,,,,,,0,,,34,39
93120,note_on,240,0,2,,,,,,,,,,,,,,,0,,,61,0
93360,note_on,240,0,1,,,,,,,,,,,,,,,0,,,75,0
93360,note_on,0,0,1,,,,,,,,,,,,,,,0,,,73,50
93360,note_on,0,0,2,,,,,,,,,,,,,,,0,,,46,33
93360,note_on,240,0,2,,,,,,,,,,,,,,,0,,,34,0
93360,set_tempo,480,1,0,,,,,,,,,,,,913381,,,,,,,
93400,set_tempo,40,1,0,,,,,,,,,,,,928218,,,,,,,
93600,note_on,240,0,2,,,,,,,,,,,,,,,0,,,46,0
93600,note_on,0,0,2,,,,,,,,,,,,,,,0,,,52,33
93600,set_tempo,200,1,0,,,,,,,,,,,,951475,,,,,,,
93600,note_on,0,0,1,,,,,,,,,,,,,,,0,,,72,55
93600,note_on,240,0,1,,,,,,,,,,,,,,,0,,,73,0
93840,set_tempo,240,1,0,,,,,,,,,,,,992884,,,,,,,
93840,note_on,0,0,1,,,,,,,,,,,,,,,0,,,70,51
93840,note_on,240,0,1,,,,,,,,,,,,,,,0,,,72,0
93840,note_on,240,0,2,,,,,,,,,,,,,,,0,,,52,0
93840,note_on,0,0,2,,,,,,,,,,,,,,,0,,,61,34
94080,set_tempo,240,1,0,,,,,,,,,,,,992884,,,,,,,
94080,note_on,0,0,1,,,,,,,,,,,,,,,0,,,69,55
94080,note_on,240,0,1,,,,,,,,,,,,,,,0,,,70,0
94080,note_on,0,0,2,,,,,,,,,,,,,,,0,,,36,40
94080,control_change,0,0,2,,,,,,,,,,,,,,,0,64,0,,
94080,note_on,240,0,2,,,,,,,,,,,,,,,0,,,61,0
94221,control_change,141,0,2,,,,,,,,,,,,,,,0,64,127,,
94320,note_on,0,0,2,,,,,,,,,,,,,,,0,,,48,33
94320,note_on,99,0,2,,,,,,,,,,,,,,,0,,,36,0
94360,set_tempo,280,1,0,,,,,,,,,,,,943545,,,,,,,
94560,note_on,0,0,1,,,,,,,,,,,,,,,0,,,78,59
94560,note_on,480,0,1,,,,,,,,,,,,,,,0,,,69,0
94560,note_on,240,0,2,,,,,,,,,,,,,,,0,,,48,0
94560,note_on,0,0,2,,,,,,,,,,,,,,,0,,,54,31
94560,set_tempo,200,1,0,,,,,,,,,,,,992884,,,,,,,
94800,note_on,240,0,2,,,,,,,,,,,,,,,0,,,54,0
94800,note_on,0,0,2,,,,,,,,,,,,,,,0,,,63,28
94920,set_tempo,360,1,0,,,,,,,,,,,,1047486,,,,,,,
95040,note_on,480,0,1,,,,,,,,,,,,,,,0,,,78,0
95040,note_on,0,0,1,,,,,,,,,,,,,,,0,,,77,55
95040,set_tempo,120,1,0,,,,,,,,,,,,992884,,,,,,,
95040,note_on,0,0,2,,,,,,,,,,,,,,,0,,,36,37
95040,note_on,240,0,2,,,,,,,,,,,,,,,0,,,63,0
95080,set_tempo,40,1,0,,,,,,,,,,,,1019368,,,,,,,
95125,control_change,85,0,2,,,,,,,,,,,,,,,0,64,0,,
95252,control_change,127,0,2,,,,,,,,,,,,,,,0,64,127,,
95280,note_on,28,0,2,,,,,,,,,,,,,,,0,,,36,0
95280,note_on,0,0,2,,,,,,,,,,,,,,,0,,,48,30
95280,set_tempo,200,1,0,,,,,,,,,,,,951475,,,,,,,
95520,note_on,240,0,2,,,,,,,,,,,,,,,0,,,48,0
95520,note_on,0,0,2,,,,,,,,,,,,,,,0,,,51,33
95760,note_on,240,0,2,,,,,,,,,,,,,,,0,,,51,0
95760,note_on,0,0,2,,,,,,,,,,,,,,,0,,,63,30
95760,set_tempo,480,1,0,,,,,,,,,,,,1010441,,,,,,,
96000,note_on,0,0,1,,,,,,,,,,,,,,,0,,,77,59
96000,set_tempo,240,1,0,,,,,,,,,,,,984252,,,,,,,
96000,note_on,0,0,2,,,,,,,,,,,,,,,0,,,37,37
96000,note_on,960,0,1,,,,,,,,,,,,,,,0,,,77,0
96000,note_on,240,0,2,,,,,,,,,,,,,,,0,,,63,0
96014,control_change,14,0,2,,,,,,,,,,,,,,,0,64,0,,
96137,control_change,123,0,2,,,,,,,,,,,,,,,0,64,127,,
96240,note_on,103,0,2,,,,,,,,,,,,,,,0,,,37,0
96240,note_on,0,0,2,,,,,,,,,,,,,,,0,,,49,31
96240,set_tempo,240,1,0,,,,,,,,,,,,959539,,,,,,,
96480,set_tempo,240,1,0,,,,,,,,,,,,951475,,,,,,,
96480,note_on,0,0,2,,,,,,,,,,,,,,,0,,,58,34
96480,note_on,240,0,2,,,,,,,,,,,,,,,0,,,49,0
96720,note_on,0,0,2,,,,,,,,,,,,,,,0,,,65,32
96720,note_on,240,0,2,,,,,,,,,,,,,,,0,,,58,0
96720,set_tempo,240,1,0,,,,,,,,,,,,984252,,,,,,,
96960,note_on,0,0,1,,,,,,,,,,,,,,,0,,,78,58
96960,note_on,960,0,1,,,,,,,,,,,,,,,0,,,77,0
96960,note_on,0,0,2,,,,,,,,,,,,,,,0,,,37,37
96960,set_tempo,240,1,0,,,,,,,,,,,,959539,,,,,,,
96960,note_on,240,0,2,,,,,,,,,,,,,,,0,,,65,0
97017,control_change,57,0,2,,,,,,,,,,,,,,,0,64,0,,
97154,control_change,137,0,2,,,,,,,,,,,,,,,0,64,127,,
97200,set_tempo,240,1,0,,,,,,,,,,,,959539,,,,,,,
97200,note_on,0,0,1,,,,,,,,,,,,,,,0,,,77,52
97200,note_on,0,0,2,,,,,,,,,,,,,,,0,,,49,33
97200,note_on,46,0,2,,,,,,,,,,,,,,,0,,,37,0
97200,note_on,240,0,1,,,,,,,,,,,,,,,0,,,78,0
97440,note_on,240,0,2,,,,,,,,,,,,,,,0,,,49,0
97440,note_on,0,0,2,,,,,,,,,,,,,,,0,,,58,33
97440,note_on,240,0,1,,,,,,,,,,,,,,,0,,,77,0
97440,note_on,0,0,1,,,,,,,,,,,,,,,0,,,75,57
97680,set_tempo,480,1,0,,,,,,,,,,,,984252,,,,,,,
97680,note_on,0,0,1,,,,,,,,,,,,,,,0,,,73,52
97680,note_on,240,0,2,,,,,,,,,,,,,,,0,,,58,0
97680,note_on,0,0,2,,,,,,,,,,,,,,,0,,,65,34
97680,note_on,240,0,1,,,,,,,,,,,,,,,0,,,75,0
97920,note_on,0,0,2,,,,,,,,,,,,,,,0,,,39,40
97920,note_on,240,0,1,,,,,,,,,,,,,,,0,,,73,0
97920,note_on,0,0,1,,,,,,,,,,,,,,,0,,,73,59
97920,note_on,240,0,2,,,,,,,,,,,,,,,0,,,65,0
97920,control_change,0,0,2,,,,,,,,,,,,,,,0,64,0,,
97976,control_change,56,0,2,,,,,,,,,,,,,,,0,64,127,,
98160,set_tempo,480,1,0,,,,,,,,,,,,928218,,,,,,,
98160,note_on,0,0,2,,,,,,,,,,,,,,,0,,,51,35
98160,note_on,184,0,2,,,,,,,,,,,,,,,0,,,39,0
98400,note_on,240,0,2,,,,,,,,,,,,,,,0,,,51,0
98400,note_on,0,0,2,,,,,,,,,,,,,,,0,,,58,37
98400,note_on,0,0,1,,,,,,,,,,,,,,,0,,,72,57
98400,set_tempo,240,1,0,,,,,,,,,,,,959539,,,,,,,
98400,note_on,480,0,1,,,,,,,,,,,,,,,0,,,73,0
98640,note_on,0,0,2,,,,,,,,,,,,,,,0,,,66,33
98640,note_on,240,0,2,,,,,,,,,,,,,,,0,,,58,0
98880,note_on,240,0,2,,,,,,,,,,,,,,,0,,,66,0
98880,note_on,0,0,2,,,,,,,,,,,,,,,0,,,41,41
98880,note_on,480,0,1,,,,,,,,,,,,,,,0,,,72,0
98936,control_change,56,0,2,,,,,,,,,,,,,,,0,64,0,,
98968,control_change,32,0,2,,,,,,,,,,,,,,,0,64,127,,
99120,note_on,240,0,1,,,,,,,,,,,,,,,0,,,72,56
99120,note_on,152,0,2,,,,,,,,,,,,,,,0,,,41,0
99120,note_on,0,0,2,,,,,,,,,,,,,,,0,,,53,35
99330,note_on,0,0,1,,,,,,,,,,,,,,,0,,,75,55
99330,note_on,210,0,1,,,,,,,,,,,,,,,0,,,72,0
99360,note_on,240,0,2,,,,,,,,,,,,,,,0,,,53,0
99360,note_on,0,0,1,,,,,,,,,,,,,,,0,,,73,59
99360,note_on,30,0,1,,,,,,,,,,,,,,,0,,,75,0
99360,note_on,0,0,2,,,,,,,,,,,,,,,0,,,58,37
99600,set_tempo,1200,1,0,,,,,,,,,,,,984252,,,,,,,
99600,note_on,240,0,2,,,,,,,,,,,,,,,0,,,58,0
99600,note_on,0,0,2,,,,,,,,,,,,,,,0,,,65,35
99720,note_on,360,0,1,,,,,,,,,,,,,,,0,,,73,0
99720,note_on,0,0,1,,,,,,,,,,,,,,,0,,,72,58
99840,control_change,0,0,2,,,,,,,,,,,,,,,0,64,0,,
99840,note_on,0,0,2,,,,,,,,,,,,,,,0,,,42,40
99840,note_on,240,0,2,,,,,,,,,,,,,,,0,,,65,0
99840,note_on,0,0,1,,,,,,,,,,,,,,,0,,,72,59
99840,note_on,120,0,1,,,,,,,,,,,,,,,0,,,72,0
99896,control_change,56,0,2,,,,,,,,,,,,,,,0,64,127,,
100080,note_on,0,0,2,,,,,,,,,,,,,,,0,,,51,34
100080,note_on,184,0,2,,,,,,,,,,,,,,,0,,,42,0
100080,set_tempo,480,1,0,,,,,,,,,,,,928218,,,,,,,
100320,note_on,0,0,2,,,,,,,,,,,,,,,0,,,58,37
100320,note_on,240,0,2,,,,,,,,,,,,,,,0,,,51,0
100320,note_on,480,0,1,,,,,,,,,,,,,,,0,,,72,0
100320,note_on,0,0,1,,,,,,,,,,,,,,,0,,,70,56
100320,set_tempo,240,1,0,,,,,,,,,,,,975927,,,,,,,
100560,note_on,240,0,2,,,,,,,,,,,,,,,0,,,58,0
100560,note_on,0,0,2,,,,,,,,,,,,,,,0,,,63,33
100560,set_tempo,240,1,0,,,,,,,,,,,,935891,,,,,,,
100800,note_on,0,0,2,,,,,,,,,,,,,,,0,,,42,38
100800,set_tempo,240,1,0,,,,,,,,,,,,975927,,,,,,,
100800,note_on,480,0,1,,,,,,,,,,,,,,,0,,,70,0
100800,note_on,240,0,2,,,,,,,,,,,,,,,0,,,63,0
100856,control_change,56,0,2,,,,,,,,,,,,,,,0,64,0,,
100888,control_change,32,0,2,,,,,,,,,,,,,,,0,64,127,,
101040,note_on,240,0,1,,,,,,,,,,,,,,,0,,,72,56
101040,note_on,0,0,2,,,,,,,,,,,,,,,0,,,54,34
101040,note_on,152,0,2,,,,,,,,,,,,,,,0,,,42,0
101250,note_on,210,0,1,,,,,,,,,,,,,,,0,,,72,0
101250,note_on,0,0,1,,,,,,,,,,,,,,,0,,,75,59
101280,note_on,240,0,2,,,,,,,,,,,,,,,0,,,54,0
101280,note_on,0,0,1,,,,,,,,,,,,,,,0,,,73,59
101280,note_on,30,0,1,,,,,,,,,,,,,,,0,,,75,0
101280,note_on,0,0,2,,,,,,,,,,,,,,,0,,,58,37
101520,note_on,0,0,2,,,,,,,,,,,,,,,0,,,64,34
101520,note_on,240,0,2,,,,,,,,,,,,,,,0,,,58,0
101640,note_on,0,0,1,,,,,,,,,,,,,,,0,,,72,56
101640,note_on,360,0,1,,,,,,,,,,,,,,,0,,,73,0
101760,note_on,120,0,1,,,,,,,,,,,,,,,0,,,72,0
101760,note_on,0,0,1,,,,,,,,,,,,,,,0,,,72,50
101760,note_on,0,0,2,,,,,,,,,,,,,,,0,,,41,36
101760,control_change,0,0,2,,,,,,,,,,,,,,,0,64,0,,
101760,note_on,240,0,2,,,,,,,,,,,,,,,0,,,64,0
101863,control_change,103,0,2,,,,,,,,,,,,,,,0,64,127,,
102000,note_on,137,0,2,,,,,,,,,,,,,,,0,,,41,0
102000,note_on,0,0,2,,,,,,,,,,,,,,,0,,,48,32
102240,note_on,0,0,1,,,,,,,,,,,,,,,0,,,77,55
102240,set_tempo,1440,1,0,,,,,,,,,,,,975927,,,,,,,
102240,note_on,240,0,2,,,,,,,,,,,,,,,0,,,48,0
102240,note_on,480,0,1,,,,,,,,,,,,,,,0,,,72,0
102240,note_on,0,0,2,,,,,,,,,,,,,,,0,,,57,32
102440,set_tempo,200,1,0,,,,,,,,,,,,984252,,,,,,,
102480,note_on,0,0,2,,,,,,,,,,,,,,,0,,,65,31
102480,note_on,240,0,2,,,,,,,,,,,,,,,0,,,57,0
102640,set_tempo,200,1,0,,,,,,,,,,,,992884,,,,,,,
102720,note_on,0,0,1,,,,,,,,,,,,,,,0,,,78,54
102720,note_on,480,0,1,,,,,,,,,,,,,,,0,,,77,0
102720,note_on,0,0,2,,,,,,,,,,,,,,,0,,,39,35
102720,note_on,240,0,2,,,,,,,,,,,,,,,0,,,65,0
102720,set_tempo,80,1,0,,,,,,,,,,,,1008403,,,,,,,
102731,control_change,11,0,2,,,,,,,,,,,,,,,0,64,0,,
102811,control_change,80,0,2,,,,,,,,,,,,,,,0,64,127,,
102840,set_tempo,120,1,0,,,,,,,,,,,,1016949,,,,,,,
102960,note_on,149,0,2,,,,,,,,,,,,,,,0,,,39,0
102960,note_on,0,0,2,,,,,,,,,,,,,,,0,,,51,33
102960,set_tempo,120,1,0,,,,,,,,,,,,1025641,,,,,,,
103080,set_tempo,120,1,0,,,,,,,,,,,,1034483,,,,,,,
103160,set_tempo,80,1,0,,,,,,,,,,,,1043478,,,,,,,
103200,note_on,0,0,1,,,,,,,,,,,,,,,0,,,68,46
103200,note_on,480,0,1,,,,,,,,,,,,,,,0,,,78,0
103200,note_on,0,0,2,,,,,,,,,,,,,,,0,,,56,27
103200,set_tempo,40,1,0,,,,,,,,,,,,1100917,,,,,,,
103200,note_on,240,0,2,,,,,,,,,,,,,,,0,,,51,0
103440,note_on,0,0,2,,,,,,,,,,,,,,,0,,,60,23
103440,note_on,0,0,2,,,,,,,,,,,,,,,0,,,66,26
103440,note_on,240,0,2,,,,,,,,,,,,,,,0,,,56,0
103440,set_tempo,240,1,0,,,,,,,,,,,,1153846,,,,,,,
103680,note_on,480,0,1,,,,,,,,,,,,,,,0,,,68,0
103680,note_on,0,0,1,,,,,,,,,,,,,,,0,,,77,54
103680,note_on,0,0,2,,,,,,,,,,,,,,,0,,,37,33
103680,note_on,240,0,2,,,,,,,,,,,,,,,0,,,60,0
103680,note_on,0,0,2,,,,,,,,,,,,,,,0,,,66,0
103694,control_change,14,0,2,,,,,,,,,,,,,,,0,64,0,,
103720,set_tempo,280,1,0,,,,,,,,,,,,1028630,,,,,,,
103793,control_change,99,0,2,,,,,,,,,,,,,,,0,64,127,,
103920,note_on,0,0,2,,,,,,,,,,,,,,,0,,,44,27
103920,set_tempo,200,1,0,,,,,,,,,,,,967586,,,,,,,
103920,note_on,127,0,2,,,,,,,,,,,,,,,0,,,37,0
104160,note_on,240,0,2,,,,,,,,,,,,,,,0,,,44,0
104160,note_on,0,0,2,,,,,,,,,,,,,,,0,,,53,27
104160,set_tempo,240,1,0,,,,,,,,,,,,975927,,,,,,,
104400,note_on,240,0,2,,,,,,,,,,,,,,,0,,,53,0
104400,set_tempo,240,1,0,,,,,,,,,,,,992884,,,,,,,
104400,note_on,0,0,2,,,,,,,,,,,,,,,0,,,61,28
104640,note_on,0,0,1,,,,,,,,,,,,,,,0,,,78,50
104640,note_on,960,0,1,,,,,,,,,,,,,,,0,,,77,0
104640,note_on,240,0,2,,,,,,,,,,,,,,,0,,,61,0
104640,note_on,0,0,2,,,,,,,,,,,,,,,0,,,37,33
104880,note_on,0,0,1,,,,,,,,,,,,,,,0,,,77,46
104880,note_on,240,0,1,,,,,,,,,,,,,,,0,,,78,0
104880,set_tempo,480,1,0,,,,,,,,,,,,951475,,,,,,,
104880,note_on,240,0,2,,,,,,,,,,,,,,,0,,,37,0
104880,note_on,0,0,2,,,,,,,,,,,,,,,0,,,44,27
105120,note_on,240,0,1,,,,,,,,,,,,,,,0,,,77,0
105120,note_on,0,0,1,,,,,,,,,,,,,,,0,,,75,50
105120,note_on,0,0,2,,,,,,,,,,,,,,,0,,,53,27
105120,note_on,240,0,2,,,,,,,,,,,,,,,0,,,44,0
105360,note_on,240,0,2,,,,,,,,,,,,,,,0,,,53,0
105360,note_on,0,0,2,,,,,,,,,,,,,,,0,,,61,28
105360,set_tempo,480,1,0,,,,,,,,,,,,984252,,,,,,,
105360,note_on,240,0,1,,,,,,,,,,,,,,,0,,,75,0
105360,note_on,0,0,1,,,,,,,,,,,,,,,0,,,73,46
105600,note_on,240,0,2,,,,,,,,,,,,,,,0,,,61,0
105600,control_change,0,0,2,,,,,,,,,,,,,,,0,64,0,,
105600,note_on,0,0,2,,,,,,,,,,,,,,,0,,,39,33
105600,set_tempo,240,1,0,,,,,,,,,,,,984252,,,,,,,
105600,note_on,0,0,1,,,,,,,,,,,,,,,0,,,72,50
105600,note_on,240,0,1,,,,,,,,,,,,,,,0,,,73,0
105727,control_change,127,0,2,,,,,,,,,,,,,,,0,64,127,,
105840,note_on,0,0,2,,,,,,,,,,,,,,,0,,,44,27
105840,note_on,113,0,2,,,,,,,,,,,,,,,0,,,39,0
105960,set_tempo,360,1,0,,,,,,,,,,,,1028630,,,,,,,
106080,note_on,240,0,2,,,,,,,,,,,,,,,0,,,44,0
106080,note_on,0,0,2,,,,,,,,,,,,,,,0,,,54,24
106080,note_on,480,0,1,,,,,,,,,,,,,,,0,,,72,0
106080,note_on,0,0,1,,,,,,,,,,,,,,,0,,,82,54
106080,set_tempo,120,1,0,,,,,,,,,,,,984252,,,,,,,
106320,note_on,240,0,2,,,,,,,,,,,,,,,0,,,54,0
106320,note_on,0,0,2,,,,,,,,,,,,,,,0,,,60,24
106560,note_on,240,0,2,,,,,,,,,,,,,,,0,,,60,0
106560,note_on,0,0,2,,,,,,,,,,,,,,,0,,,39,31
106560,note_on,480,0,1,,,,,,,,,,,,,,,0,,,82,0
106560,note_on,0,0,1,,,,,,,,,,,,,,,0,,,80,52
106800,note_on,240,0,2,,,,,,,,,,,,,,,0,,,39,0
106800,set_tempo,720,1,0,,,,,,,,,,,,959539,,,,,,,
106800,note_on,0,0,2,,,,,,,,,,,,,,,0,,,44,24
107040,note_on,240,0,2,,,,,,,,,,,,,,,0,,,44,0
107040,note_on,0,0,2,,,,,,,,,,,,,,,0,,,54,27
107280,note_on,240,0,2,,,,,,,,,,,,,,,0,,,54,0
107280,note_on,0,0,2,,,,,,,,,,,,,,,0,,,60,25
107280,set_tempo,480,1,0,,,,,,,,,,,,992884,,,,,,,
107320,set_tempo,40,1,0,,,,,,,,,,,,1019368,,,,,,,
107520,note_on,240,0,2,,,,,,,,,,,,,,,0,,,60,0
107520,note_on,0,0,2,,,,,,,,,,,,,,,0,,,32,33
107520,note_on,960,0,1,,,,,,,,,,,,,,,0,,,80,0
107520,note_on,0,0,1,,,,,,,,,,,,,,,0,,,78,51
107534,control_change,14,0,2,,,,,,,,,,,,,,,0,64,0,,
107704,control_change,170,0,2,,,,,,,,,,,,,,,0,64,127,,
107760,set_tempo,440,1,0,,,,,,,,,,,,967586,,,,,,,
107760,note_on,0,0,2,,,,,,,,,,,,,,,0,,,44,29
107760,note_on,56,0,2,,,,,,,,,,,,,,,0,,,32,0
108000,note_on,0,0,2,,,,,,,,,,,,,,,0,,,54,29
108000,note_on,240,0,2,,,,,,,,,,,,,,,0,,,44,0
108240,note_on,240,0,2,,,,,,,,,,,,,,,0,,,54,0
108240,note_on,0,0,2,,,,,,,,,,,,,,,0,,,60,30
108240,set_tempo,480,1,0,,,,,,,,,,,,984252,,,,,,,
108480,note_on,960,0,1,,,,,,,,,,,,,,,0,,,78,0
108480,note_on,0,0,1,,,,,,,,,,,,,,,0,,,80,50
108480,note_on,240,0,2,,,,,,,,,,,,,,,0,,,60,0
108480,note_on,0,0,2,,,,,,,,,,,,,,,0,,,32,36
108720,note_on,0,0,2,,,,,,,,,,,,,,,0,,,44,30
108720,note_on,240,0,1,,,,,,,,,,,,,,,0,,,80,0
108720,note_on,240,0,2,,,,,,,,,,,,,,,0,,,32,0
108720,set_tempo,480,1,0,,,,,,,,,,,,951475,,,,,,,
108720,note_on,0,0,1,,,,,,,,,,,,,,,0,,,78,46
108960,note_on,0,0,1,,,,,,,,,,,,,,,0,,,77,50
108960,note_on,0,0,2,,,,,,,,,,,,,,,0,,,54,30
108960,note_on,240,0,2,,,,,,,,,,,,,,,0,,,44,0
108960,note_on,240,0,1,,,,,,,,,,,,,,,0,,,78,0
109200,note_on,0,0,1,,,,,,,,,,,,,,,0,,,75,46
109200,note_on,240,0,1,,,,,,,,,,,,,,,0,,,77,0
109200,note_on,240,0,2,,,,,,,,,,,,,,,0,,,54,0
109200,note_on,0,0,2,,,,,,,,,,,,,,,0,,,60,31
109200,set_tempo,480,1,0,,,,,,,,,,,,992884,,,,,,,
109440,control_change,0,0,2,,,,,,,,,,,,,,,0,64,0,,
109440,note_on,0,0,2,,,,,,,,,,,,,,,0,,,37,36
109440,note_on,0,0,1,,,,,,,,,,,,,,,0,,,73,50
109440,note_on,240,0,2,,,,,,,,,,,,,,,0,,,60,0
109440,set_tempo,240,1,0,,,,,,,,,,,,992884,,,,,,,
109440,note_on,240,0,1,,,,,,,,,,,,,,,0,,,75,0
109581,control_change,141,0,2,,,,,,,,,,,,,,,0,64,127,,
109680,note_on,0,0,2,,,,,,,,,,,,,,,0,,,44,30
109680,note_on,99,0,2,,,,,,,,,,,,,,,0,,,37,0
109920,note_on,0,0,1,,,,,,,,,,,,,,,0,,,85,53
109920,note_on,480,0,1,,,,,,,,,,,,,,,0,,,73,0
109920,note_on,0,0,2,,,,,,,,,,,,,,,0,,,53,28
109920,note_on,240,0,2,,,,,,,,,,,,,,,0,,,44,0
110160,note_on,240,0,2,,,,,,,,,,,,,,,0,,,53,0
110160,note_on,0,0,2,,,,,,,,,,,,,,,0,,,61,25
110280,set_tempo,840,1,0,,,,,,,,,,,,1047486,,,,,,,
110400,note_on,480,0,1,,,,,,,,,,,,,,,0,,,85,0
110400,note_on,0,0,2,,,,,,,,,,,,,,,0,,,37,33
110400,note_on,0,0,1,,,,,,,,,,,,,,,0,,,80,49
110400,note_on,240,0,2,,,,,,,,,,,,,,,0,,,61,0
110400,set_tempo,120,1,0,,,,,,,,,,,,992884,,,,,,,
110440,set_tempo,40,1,0,,,,,,,,,,,,1019368,,,,,,,
110640,note_on,240,0,2,,,,,,,,,,,,,,,0,,,37,0
110640,set_tempo,200,1,0,,,,,,,,,,,,951475,,,,,,,
110640,note_on,0,0,2,,,,,,,,,,,,,,,0,,,44,27
110880,note_on,240,0,2,,,,,,,,,,,,,,,0,,,44,0
110880,note_on,0,0,2,,,,,,,,,,,,,,,0,,,53,29
111120,note_on,240,0,2,,,,,,,,,,,,,,,0,,,53,0
111120,note_on,0,0,2,,,,,,,,,,,,,,,0,,,61,27
111120,set_tempo,480,1,0,,,,,,,,,,,,1010441,,,,,,,
111360,note_on,0,0,1,,,,,,,,,,,,,,,0,,,77,52
111360,note_on,960,0,1,,,,,,,,,,,,,,,0,,,80,0
111360,note_on,240,0,2,,,,,,,,,,,,,,,0,,,61,0
111360,control_change,0,0,2,,,,,,,,,,,,,,,0,64,0,,
111360,note_on,0,0,2,,,,,,,,,,,,,,,0,,,37,33
111360,set_tempo,240,1,0,,,,,,,,,,,,984252,,,,,,,
111497,control_change,137,0,2,,,,,,,,,,,,,,,0,64,127,,
111600,note_on,0,0,2,,,,,,,,,,,,,,,0,,,44,27
111600,note_on,103,0,2,,,,,,,,,,,,,,,0,,,37,0
111600,set_tempo,240,1,0,,,,,,,,,,,,959539,,,,,,,
111840,set_tempo,240,1,0,,,,,,,,,,,,984252,,,,,,,
111840,note_on,0,0,2,,,,,,,,,,,,,,,0,,,53,30
111840,note_on,240,0,2,,,,,,,,,,,,,,,0,,,44,0
112080,note_on,240,0,2,,,,,,,,,,,,,,,0,,,53,0
112080,note_on,0,0,2,,,,,,,,,,,,,,,0,,,61,28
112320,note_on,240,0,2,,,,,,,,,,,,,,,0,,,61,0
112320,note_on,960,0,1,,,,,,,,,,,,,,,0,,,77,0
112320,note_on,0,0,1,,,,,,,,,,,,,,,0,,,78,51
112320,note_on,0,0,2,,,,,,,,,,,,,,,0,,,34,33
112320,set_tempo,480,1,0,,,,,,,,,,,,959539,,,,,,,
112377,control_change,57,0,2,,,,,,,,,,,,,,,0,64,0,,
112514,control_change,137,0,2,,,,,,,,,,,,,,,0,64,127,,
112560,note_on,46,0,2,,,,,,,,,,,,,,,0,,,34,0
112560,note_on,0,0,1,,,,,,,,,,,,,,,0,,,77,46
112560,note_on,240,0,1,,,,,,,,,,,,,,,0,,,78,0
112560,note_on,0,0,2,,,,,,,,,,,,,,,0,,,46,29
112800,note_on,240,0,1,,,,,,,,,,,,,,,0,,,77,0
112800,note_on,240,0,2,,,,,,,,,,,,,,,0,,,46,0
112800,note_on,0,0,2,,,,,,,,,,,,,,,0,,,56,29
112800,note_on,0,0,1,,,,,,,,,,,,,,,0,,,75,50
113040,note_on,0,0,2,,,,,,,,,,,,,,,0,,,62,30
113040,set_tempo,720,1,0,,,,,,,,,,,,1077199,,,,,,,
113040,note_on,240,0,2,,,,,,,,,,,,,,,0,,,56,0
113040,note_on,240,0,1,,,,,,,,,,,,,,,0,,,75,0
113040,note_on,0,0,1,,,,,,,,,,,,,,,0,,,74,46
113160,note_on,120,0,1,,,,,,,,,,,,,,,0,,,74,0
113160,note_on,0,0,1,,,,,,,,,,,,,,,0,,,75,46
113160,set_tempo,120,1,0,,,,,,,,,,,,804074,,,,,,,
113220,note_on,60,0,1,,,,,,,,,,,,,,,0,,,75,0
113220,note_on,0,0,1,,,,,,,,,,,,,,,0,,,77,42
113280,note_on,240,0,2,,,,,,,,,,,,,,,0,,,62,0
113280,note_on,0,0,1,,,,,,,,,,,,,,,0,,,75,53
113280,note_on,0,0,2,,,,,,,,,,,,,,,0,,,39,33
113280,note_on,60,0,1,,,,,,,,,,,,,,,0,,,77,0
113280,control_change,0,0,2,,,,,,,,,,,,,,,0,64,0,,
113280,set_tempo,120,1,0,,,,,,,,,,,,951475,,,,,,,
113317,control_change,37,0,2,,,,,,,,,,,,,,,0,64,127,,
113320,set_tempo,40,1,0,,,,,,,,,,,,935891,,,,,,,
113520,note_on,0,0,1,,,,,,,,,,,,,,,0,,,74,51
113520,note_on,240,0,1,,,,,,,,,,,,,,,0,,,75,0
113520,note_on,203,0,2,,,,,,,,,,,,,,,0,,,39,0
113520,note_on,0,0,2,,,,,,,,,,,,,,,0,,,46,30
113760,note_on,240,0,1,,,,,,,,,,,,,,,0,,,74,0
113760,note_on,0,0,2,,,,,,,,,,,,,,,0,,,54,30
113760,note_on,0,0,1,,,,,,,,,,,,,,,0,,,75,54
113760,note_on,240,0,2,,,,,,,,,,,,,,,0,,,46,0
114000,note_on,240,0,1,,,,,,,,,,,,,,,0,,,75,0
114000,note_on,0,0,2,,,,,,,,,,,,,,,0,,,63,27
114000,note_on,240,0,2,,,,,,,,,,,,,,,0,,,54,0
114000,set_tempo,680,1,0,,,,,,,,,,,,951475,,,,,,,
114000,note_on,0,0,1,,,,,,,,,,,,,,,0,,,77,55
114240,note_on,0,0,1,,,,,,,,,,,,,,,0,,,78,57
114240,note_on,240,0,1,,,,,,,,,,,,,,,0,,,77,0
114240,note_on,240,0,2,,,,,,,,,,,,,,,0,,,63,0
114240,note_on,0,0,2,,,,,,,,,,,,,,,0,,,42,33
114249,control_change,9,0,2,,,,,,,,,,,,,,,0,64,0,,
114277,control_change,28,0,2,,,,,,,,,,,,,,,0,64,127,,
114280,set_tempo,280,1,0,,,,,,,,,,,,951475,,,,,,,
114480,note_on,240,0,1,,,,,,,,,,,,,,,0,,,78,0
114480,note_on,0,0,1,,,,,,,,,,,,,,,0,,,70,52
114480,note_on,0,0,2,,,,,,,,,,,,,,,0,,,51,29
114480,note_on,203,0,2,,,,,,,,,,,,,,,0,,,42,0
114720,note_on,240,0,2,,,,,,,,,,,,,,,0,,,51,0
114720,note_on,0,0,2,,,,,,,,,,,,,,,0,,,58,30
114720,note_on,0,0,1,,,,,,,,,,,,,,,0,,,77,57
114720,note_on,240,0,1,,,,,,,,,,,,,,,0,,,70,0
114720,set_tempo,440,1,0,,,,,,,,,,,,992884,,,,,,,
114960,note_on,240,0,2,,,,,,,,,,,,,,,0,,,58,0
114960,note_on,0,0,2,,,,,,,,,,,,,,,0,,,63,27
114960,note_on,0,0,1,,,,,,,,,,,,,,,0,,,75,50
114960,note_on,240,0,1,,,,,,,,,,,,,,,0,,,77,0
114960,set_tempo,240,1,0,,,,,,,,,,,,1165049,,,,,,,
115080,note_on,0,0,1,,,,,,,,,,,,,,,0,,,72,39
115080,note_on,120,0,1,,,,,,,,,,,,,,,0,,,75,0
115080,set_tempo,120,1,0,,,,,,,,,,,,821355,,,,,,,
115106,control_change,146,0,2,,,,,,,,,,,,,,,0,64,0,,
115126,control_change,20,0,2,,,,,,,,,,,,,,,0,64,127,,
115140,note_on,0,0,1,,,,,,,,,,,,,,,0,,,73,39
115140,note_on,60,0,1,,,,,,,,,,,,,,,0,,,72,0
115200,set_tempo,120,1,0,,,,,,,,,,,,1001502,,,,,,,
115200,note_on,0,0,1,,,,,,,,,,,,,,,0,,,73,39
115200,note_on,60,0,1,,,,,,,,,,,,,,,0,,,73,0
115200,note_on,0,0,2,,,,,,,,,,,,,,,0,,,43,33
115200,note_on,74,0,2,,,,,,,,,,,,,,,0,,,63,0
115245,note_on,45,0,1,,,,,,,,,,,,,,,0,,,73,0
115245,note_on,0,0,1,,,,,,,,,,,,,,,0,,,75,36
115290,note_on,45,0,1,,,,,,,,,,,,,,,0,,,75,0
115290,note_on,0,0,1,,,,,,,,,,,,,,,0,,,73,40
115320,set_tempo,120,1,0,,,,,,,,,,,,992884,,,,,,,
115335,note_on,45,0,1,,,,,,,,,,,,,,,0,,,73,0
115335,note_on,0,0,1,,,,,,,,,,,,,,,0,,,75,37
115380,note_on,0,0,1,,,,,,,,,,,,,,,0,,,73,42
115380,note_on,45,0,1,,,,,,,,,,,,,,,0,,,75,0
115400,set_tempo,80,1,0,,,,,,,,,,,,984252,,,,,,,
115425,note_on,0,0,1,,,,,,,,,,,,,,,0,,,75,38
115425,note_on,45,0,1,,,,,,,,,,,,,,,0,,,73,0
115440,note_on,240,0,2,,,,,,,,,,,,,,,0,,,43,0
115440,note_on,0,0,2,,,,,,,,,,,,,,,0,,,52,28
115470,note_on,45,0,1,,,,,,,,,,,,,,,0,,,75,0
115470,note_on,0,0,1,,,,,,,,,,,,,,,0,,,73,44
115480,set_tempo,80,1,0,,,,,,,,,,,,975927,,,,,,,
115515,note_on,45,0,1,,,,,,,,,,,,,,,0,,,73,0
115515,note_on,0,0,1,,,,,,,,,,,,,,,0,,,75,39
115560,note_on,45,0,1,,,,,,,,,,,,,,,0,,,75,0
115560,note_on,0,0,1,,,,,,,,,,,,,,,0,,,73,46
115560,set_tempo,80,1,0,,,,,,,,,,,,967586,,,,,,,
115605,note_on,45,0,1,,,,,,,,,,,,,,,0,,,73,0
115605,note_on,0,0,1,,,,,,,,,,,,,,,0,,,75,42
115640,set_tempo,80,1,0,,,,,,,,,,,,959539,,,,,,,
115650,note_on,45,0,1,,,,,,,,,,,,,,,0,,,75,0
115650,note_on,0,0,1,,,,,,,,,,,,,,,0,,,73,48
115680,note_on,0,0,2,,,,,,,,,,,,,,,0,,,61,28
115680,note_on,240,0,2,,,,,,,,,,,,,,,0,,,52,0
115695,note_on,45,0,1,,,,,,,,,,,,,,,0,,,73,0
115695,note_on,0,0,1,,,,,,,,,,,,,,,0,,,75,42
115720,set_tempo,80,1,0,,,,,,,,,,,,951475,,,,,,,
115740,note_on,45,0,1,,,,,,,,,,,,,,,0,,,75,0
115740,note_on,0,0,1,,,,,,,,,,,,,,,0,,,73,47
115760,set_tempo,40,1,0,,,,,,,,,,,,959539,,,,,,,
115785,note_on,45,0,1,,,,,,,,,,,,,,,0,,,73,0
115786,note_on,1,0,1,,,,,,,,,,,,,,,0,,,75,40
115800,set_tempo,40,1,0,,,,,,,,,,,,967586,,,,,,,
115830,note_on,44,0,1,,,,,,,,,,,,,,,0,,,73,44
115831,note_on,1,0,1,,,,,,,,,,,,,,,0,,,75,0
115840,set_tempo,40,1,0,,,,,,,,,,,,975927,,,,,,,
115875,note_on,0,0,1,,,,,,,,,,,,,,,0,,,75,38
115875,note_on,44,0,1,,,,,,,,,,,,,,,0,,,73,0
115880,set_tempo,40,1,0,,,,,,,,,,,,984252,,,,,,,
115920,set_tempo,40,1,0,,,,,,,,,,,,992884,,,,,,,
115920,note_on,240,0,2,,,,,,,,,,,,,,,0,,,61,0
115920,note_on,45,0,1,,,,,,,,,,,,,,,0,,,73,42
115920,note_on,0,0,2,,,,,,,,,,,,,,,0,,,70,29
115921,note_on,1,0,1,,,,,,,,,,,,,,,0,,,75,0
115940,set_tempo,20,1,0,,,,,,,,,,,,1001502,,,,,,,
115960,set_tempo,20,1,0,,,,,,,,,,,,1019368,,,,,,,
115980,note_on,0,0,1,,,,,,,,,,,,,,,0,,,75,37
115980,note_on,59,0,1,,,,,,,,,,,,,,,0,,,73,0
115980,set_tempo,20,1,0,,,,,,,,,,,,1038062,,,,,,,
116000,set_tempo,20,1,0,,,,,,,,,,,,1057269,,,,,,,
116020,set_tempo,20,1,0,,,,,,,,,,,,1087350,,,,,,,
116040,note_on,0,0,1,,,,,,,,,,,,,,,0,,,72,40
116040,note_on,60,0,1,,,,,,,,,,,,,,,0,,,75,0
116040,set_tempo,20,1,0,,,,,,,,,,,,1108443,,,,,,,
116060,set_tempo,20,1,0,,,,,,,,,,,,1130582,,,,,,,
116080,set_tempo,20,1,0,,,,,,,,,,,,1153403,,,,,,,
116100,note_on,0,0,1,,,,,,,,,,,,,,,0,,,73,35
116100,set_tempo,20,1,0,,,,,,,,,,,,1189296,,,,,,,
116100,note_on,60,0,1,,,,,,,,,,,,,,,0,,,72,0
116120,set_tempo,20,1,0,,,,,,,,,,,,1038062,,,,,,,
116160,set_tempo,40,1,0,,,,,,,,,,,,984252,,,,,,,
116160,note_on,60,0,1,,,,,,,,,,,,,,,0,,,73,0
116160,note_on,0,0,1,,,,,,,,,,,,,,,0,,,82,54
116160,note_on,240,0,2,,,,,,,,,,,,,,,0,,,70,0
116160,note_on,0,0,2,,,,,,,,,,,,,,,0,,,44,33
116185,control_change,25,0,2,,,,,,,,,,,,,,,0,64,0,,
116220,control_change,35,0,2,,,,,,,,,,,,,,,0,64,127,,
116400,note_on,0,0,2,,,,,,,,,,,,,,,0,,,51,28
116400,note_on,240,0,1,,,,,,,,,,,,,,,0,,,82,0
116400,note_on,0,0,1,,,,,,,,,,,,,,,0,,,80,50
116400,note_on,180,0,2,,,,,,,,,,,,,,,0,,,44,0
116640,set_tempo,480,1,0,,,,,,,,,,,,1010441,,,,,,,
116640,note_on,240,0,2,,,,,,,,,,,,,,,0,,,51,0
116640,note_on,0,0,2,,,,,,,,,,,,,,,0,,,60,30
116640,note_on,0,0,1,,,,,,,,,,,,,,,0,,,78,52
116640,note_on,240,0,1,,,,,,,,,,,,,,,0,,,80,0
116880,note_on,240,0,1,,,,,,,,,,,,,,,0,,,78,0
116880,note_on,0,0,1,,,,,,,,,,,,,,,0,,,68,50
116880,note_on,240,0,2,,,,,,,,,,,,,,,0,,,60,0
116880,note_on,0,0,2,,,,,,,,,,,,,,,0,,,66,30
117120,note_on,240,0,1,,,,,,,,,,,,,,,0,,,68,0
117120,note_on,0,0,1,,,,,,,,,,,,,,,0,,,75,54
117120,note_on,240,0,2,,,,,,,,,,,,,,,0,,,66,0
117120,note_on,0,0,2,,,,,,,,,,,,,,,0,,,32,33
117180,control_change,60,0,2,,,,,,,,,,,,,,,0,64,0,,
117318,control_change,138,0,2,,,,,,,,,,,,,,,0,64,127,,
117360,set_tempo,720,1,0,,,,,,,,,,,,984252,,,,,,,
117360,note_on,42,0,2,,,,,,,,,,,,,,,0,,,32,0
117360,note_on,0,0,2,,,,,,,,,,,,,,,0,,,44,27
117600,set_tempo,240,1,0,,,,,,,,,,,,1010441,,,,,,,
117600,note_on,240,0,2,,,,,,,,,,,,,,,0,,,44,0
117600,note_on,0,0,2,,,,,,,,,,,,,,,0,,,54,27
117840,note_on,0,0,2,,,,,,,,,,,,,,,0,,,60,26
117840,note_on,240,0,2,,,,,,,,,,,,,,,0,,,54,0
118080,note_on,960,0,1,,,,,,,,,,,,,,,0,,,75,0
118080,note_on,0,0,1,,,,,,,,,,,,,,,0,,,73,45
118080,note_on,0,0,2,,,,,,,,,,,,,,,0,,,37,27
118080,note_on,240,0,2,,,,,,,,,,,,,,,0,,,60,0
118165,control_change,85,0,2,,,,,,,,,,,,,,,0,64,0,,
118278,control_change,113,0,2,,,,,,,,,,,,,,,0,64,127,,
118320,note_on,0,0,2,,,,,,,,,,,,,,,0,,,44,25
118320,note_on,42,0,2,,,,,,,,,,,,,,,0,,,37,0
118560,note_on,240,0,2,,,,,,,,,,,,,,,0,,,44,0
118560,note_on,0,0,2,,,,,,,,,,,,,,,0,,,53,25
118560,note_on,480,0,1,,,,,,,,,,,,,,,0,,,73,0
118800,note_on,0,0,2,,,,,,,,,,,,,,,0,,,61,25
118800,set_tempo,1200,1,0,,,,,,,,,,,,1077199,,,,,,,
118800,note_on,240,0,2,,,,,,,,,,,,,,,0,,,53,0
119040,note_on,240,0,2,,,,,,,,,,,,,,,0,,,61,0
119040,set_tempo,240,1,0,,,,,,,,,,,,1028630,,,,,,,
119040,note_on,480,0,1,,,,,,,,,,,,,,,0,,,72,56
119040,note_on,0,0,2,,,,,,,,,,,,,,,0,,,32,34
119096,control_change,56,0,2,,,,,,,,,,,,,,,0,64,0,,
119224,control_change,128,0,2,,,,,,,,,,,,,,,0,64,127,,
119280,note_on,56,0,2,,,,,,,,,,,,,,,0,,,32,0
119280,note_on,0,0,2,,,,,,,,,,,,,,,0,,,44,28
119280,set_tempo,240,1,0,,,,,,,,,,,,967586,,,,,,,
119520,note_on,0,0,2,,,,,,,,,,,,,,,0,,,51,28
119520,note_on,240,0,2,,,,,,,,,,,,,,,0,,,44,0
119520,set_tempo,240,1,0,,,,,,,,,,,,975927,,,,,,,
119760,note_on,0,0,2,,,,,,,,,,,,,,,0,,,60,29
119760,note_on,240,0,2,,,,,,,,,,,,,,,0,,,51,0
119760,set_tempo,240,1,0,,,,,,,,,,,,992884,,,,,,,
120000,note_on,240,0,2,,,,,,,,,,,,,,,0,,,60,0
120000,note_on,0,0,1,,,,,,,,,,,,,,,0,,,73,52
120000,note_on,0,0,2,,,,,,,,,,,,,,,0,,,32,34
120000,note_on,960,0,1,,,,,,,,,,,,,,,0,,,72,0
120240,set_tempo,480,1,0,,,,,,,,,,,,951475,,,,,,,
120240,note_on,240,0,2,,,,,,,,,,,,,,,0,,,32,0
120240,note_on,0,0,2,,,,,,,,,,,,,,,0,,,44,28
120240,note_on,240,0,1,,,,,,,,,,,,,,,0,,,73,0
120240,note_on,0,0,1,,,,,,,,,,,,,,,0,,,72,48
120480,note_on,240,0,1,,,,,,,,,,,,,,,0,,,72,0
120480,note_on,240,0,2,,,,,,,,,,,,,,,0,,,44,0
120480,note_on,0,0,2,,,,,,,,,,,,,,,0,,,51,28
120480,note_on,0,0,1,,,,,,,,,,,,,,,0,,,70,52
120720,note_on,240,0,2,,,,,,,,,,,,,,,0,,,51,0
120720,set_tempo,480,1,0,,,,,,,,,,,,984252,,,,,,,
120720,note_on,0,0,2,,,,,,,,,,,,,,,0,,,60,29
120720,note_on,0,0,1,,,,,,,,,,,,,,,0,,,68,48
120720,note_on,240,0,1,,,,,,,,,,,,,,,0,,,70,0
120960,set_tempo,240,1,0,,,,,,,,,,,,984252,,,,,,,
120960,note_on,240,0,2,,,,,,,,,,,,,,,0,,,60,0
120960,note_on,240,0,1,,,,,,,,,,,,,,,0,,,68,0
120960,note_on,0,0,1,,,,,,,,,,,,,,,0,,,67,52
120960,control_change,0,0,2,,,,,,,,,,,,,,,0,64,0,,
120960,note_on,0,0,2,,,,,,,,,,,,,,,0,,,34,34
121087,control_change,127,0,2,,,,,,,,,,,,,,,0,64,127,,
121200,note_on,0,0,2,,,,,,,,,,,,,,,0,,,46,28
121200,note_on,113,0,2,,,,,,,,,,,,,,,0,,,34,0
121320,set_tempo,360,1,0,,,,,,,,,,,,1028630,,,,,,,
121440,set_tempo,120,1,0,,,,,,,,,,,,984252,,,,,,,
121440,note_on,240,0,2,,,,,,,,,,,,,,,0,,,46,0
121440,note_on,0,0,2,,,,,,,,,,,,,,,0,,,51,25
121440,note_on,480,0,1,,,,,,,,,,,,,,,0,,,67,0
121440,note_on,0,0,1,,,,,,,,,,,,,,,0,,,77,56
121680,note_on,0,0,2,,,,,,,,,,,,,,,0,,,61,25
121680,note_on,240,0,2,,,,,,,,,,,,,,,0,,,51,0
121920,note_on,0,0,1,,,,,,,,,,,,,,,0,,,75,54
121920,note_on,240,0,2,,,,,,,,,,,,,,,0,,,61,0
121920,note_on,0,0,2,,,,,,,,,,,,,,,0,,,34,32
121920,note_on,480,0,1,,,,,,,,,,,,,,,0,,,77,0
122160,note_on,0,0,2,,,,,,,,,,,,,,,0,,,46,25
122160,note_on,240,0,2,,,,,,,,,,,,,,,0,,,34,0
122160,set_tempo,720,1,0,,,,,,,,,,,,959539,,,,,,,
122400,note_on,240,0,2,,,,,,,,,,,,,,,0,,,46,0
122400,note_on,0,0,2,,,,,,,,,,,,,,,0,,,51,28
122640,set_tempo,480,1,0,,,,,,,,,,,,992884,,,,,,,
122640,note_on,240,0,2,,,,,,,,,,,,,,,0,,,51,0
122640,note_on,0,0,2,,,,,,,,,,,,,,,0,,,61,26
122680,set_tempo,40,1,0,,,,,,,,,,,,1019368,,,,,,,
122880,note_on,0,0,2,,,,,,,,,,,,,,,0,,,34,36
122880,note_on,0,0,1,,,,,,,,,,,,,,,0,,,73,55
122880,note_on,960,0,1,,,,,,,,,,,,,,,0,,,75,0
122880,note_on,240,0,2,,,,,,,,,,,,,,,0,,,61,0
122894,control_change,14,0,2,,,,,,,,,,,,,,,0,64,0,,
123064,control_change,170,0,2,,,,,,,,,,,,,,,0,64,127,,
123120,note_on,0,0,2,,,,,,,,,,,,,,,0,,,46,31
123120,note_on,56,0,2,,,,,,,,,,,,,,,0,,,34,0
123120,set_tempo,440,1,0,,,,,,,,,,,,967586,,,,,,,
123360,note_on,0,0,2,,,,,,,,,,,,,,,0,,,52,31
123360,note_on,240,0,2,,,,,,,,,,,,,,,0,,,46,0
123600,set_tempo,480,1,0,,,,,,,,,,,,984252,,,,,,,
123600,note_on,240,0,2,,,,,,,,,,,,,,,0,,,52,0
123600,note_on,0,0,2,,,,,,,,,,,,,,,0,,,61,33
123840,note_on,0,0,2,,,,,,,,,,,,,,,0,,,34,39
123840,note_on,240,0,2,,,,,,,,,,,,,,,0,,,61,0
123840,note_on,960,0,1,,,,,,,,,,,,,,,0,,,73,0
123840,note_on,0,0,1,,,,,,,,,,,,,,,0,,,75,55
124080,note_on,0,0,1,,,,,,,,,,,,,,,0,,,73,50
124080,note_on,240,0,1,,,,,,,,,,,,,,,0,,,75,0
124080,set_tempo,480,1,0,,,,,,,,,,,,913381,,,,,,,
124080,note_on,240,0,2,,,,,,,,,,,,,,,0,,,34,0
124080,note_on,0,0,2,,,,,,,,,,,,,,,0,,,46,33
124120,set_tempo,40,1,0,,,,,,,,,,,,928218,,,,,,,
124320,note_on,0,0,2,,,,,,,,,,,,,,,0,,,52,33
124320,set_tempo,200,1,0,,,,,,,,,,,,951475,,,,,,,
124320,note_on,240,0,2,,,,,,,,,,,,,,,0,,,46,0
124320,note_on,240,0,1,,,,,,,,,,,,,,,0,,,73,0
124320,note_on,0,0,1,,,,,,,,,,,,,,,0,,,72,55
124560,note_on,0,0,1,,,,,,,,,,,,,,,0,,,70,51
124560,note_on,0,0,2,,,,,,,,,,,,,,,0,,,61,34
124560,note_on,240,0,2,,,,,,,,,,,,,,,0,,,52,0
124560,note_on,240,0,1,,,,,,,,,,,,,,,0,,,72,0
124560,set_tempo,240,1,0,,,,,,,,,,,,992884,,,,,,,
124800,note_on,240,0,2,,,,,,,,,,,,,,,0,,,61,0
124800,control_change,0,0,2,,,,,,,,,,,,,,,0,64,0,,
124800,note_on,0,0,2,,,,,,,,,,,,,,,0,,,36,40
124800,note_on,0,0,1,,,,,,,,,,,,,,,0,,,69,55
124800,note_on,240,0,1,,,,,,,,,,,,,,,0,,,70,0
124800,set_tempo,240,1,0,,,,,,,,,,,,992884,,,,,,,
124941,control_change,141,0,2,,,,,,,,,,,,,,,0,64,127,,
125040,note_on,99,0,2,,,,,,,,,,,,,,,0,,,36,0
125040,note_on,0,0,2,,,,,,,,,,,,,,,0,,,48,33
125080,set_tempo,280,1,0,,,,,,,,,,,,943545,,,,,,,
125280,note_on,240,0,2,,,,,,,,,,,,,,,0,,,48,0
125280,note_on,0,0,2,,,,,,,,,,,,,,,0,,,54,31
125280,note_on,0,0,1,,,,,,,,,,,,,,,0,,,78,59
125280,note_on,480,0,1,,,,,,,,,,,,,,,0,,,69,0
125280,set_tempo,200,1,0,,,,,,,,,,,,992884,,,,,,,
125520,note_on,0,0,2,,,,,,,,,,,,,,,0,,,63,28
125520,note_on,240,0,2,,,,,,,,,,,,,,,0,,,54,0
125640,set_tempo,360,1,0,,,,,,,,,,,,1047486,,,,,,,
125760,note_on,240,0,2,,,,,,,,,,,,,,,0,,,63,0
125760,note_on,0,0,2,,,,,,,,,,,,,,,0,,,36,37
125760,set_tempo,120,1,0,,,,,,,,,,,,992884,,,,,,,
125760,note_on,480,0,1,,,,,,,,,,,,,,,0,,,78,0
125760,note_on,0,0,1,,,,,,,,,,,,,,,0,,,77,55
125800,set_tempo,40,1,0,,,,,,,,,,,,1019368,,,,,,,
125845,control_change,85,0,2,,,,,,,,,,,,,,,0,64,0,,
125972,control_change,127,0,2,,,,,,,,,,,,,,,0,64,127,,
126000,note_on,28,0,2,,,,,,,,,,,,,,,0,,,36,0
126000,note_on,0,0,2,,,,,,,,,,,,,,,0,,,48,30
126000,set_tempo,200,1,0,,,,,,,,,,,,951475,,,,,,,
126240,note_on,0,0,2,,,,,,,,,,,,,,,0,,,51,33
126240,note_on,240,0,2,,,,,,,,,,,,,,,0,,,48,0
126480,note_on,0,0,2,,,,,,,,,,,,,,,0,,,63,30
126480,note_on,240,0,2,,,,,,,,,,,,,,,0,,,51,0
126480,set_tempo,480,1,0,,,,,,,,,,,,1010441,,,,,,,
126720,note_on,0,0,2,,,,,,,,,,,,,,,0,,,37,37
126720,note_on,240,0,2,,,,,,,,,,,,,,,0,,,63,0
126720,set_tempo,240,1,0,,,,,,,,,,,,984252,,,,,,,
126720,note_on,0,0,1,,,,,,,,,,,,,,,0,,,77,59
126720,note_on,960,0,1,,,,,,,,,,,,,,,0,,,77,0
126734,control_change,14,0,2,,,,,,,,,,,,,,,0,64,0,,
126857,control_change,123,0,2,,,,,,,,,,,,,,,0,64,127,,
126960,note_on,103,0,2,,,,,,,,,,,,,,,0,,,37,0
126960,note_on,0,0,2,,,,,,,,,,,,,,,0,,,49,31
126960,set_tempo,240,1,0,,,,,,,,,,,,959539,,,,,,,
127200,note_on,240,0,2,,,,,,,,,,,,,,,0,,,49,0
127200,note_on,0,0,2,,,,,,,,,,,,,,,0,,,58,34
127200,set_tempo,240,1,0,,,,,,,,,,,,951475,,,,,,,
127440,note_on,0,0,2,,,,,,,,,,,,,,,0,,,65,32
127440,note_on,240,0,2,,,,,,,,,,,,,,,0,,,58,0
127440,set_tempo,240,1,0,,,,,,,,,,,,984252,,,,,,,
127680,note_on,240,0,2,,,,,,,,,,,,,,,0,,,65,0
127680,note_on,0,0,1,,,,,,,,,,,,,,,0,,,78,58
127680,note_on,960,0,1,,,,,,,,,,,,,,,0,,,77,0
127680,note_on,0,0,2,,,,,,,,,,,,,,,0,,,37,37
127680,set_tempo,240,1,0,,,,,,,,,,,,959539,,,,,,,
127737,control_change,57,0,2,,,,,,,,,,,,,,,0,64,0,,
127874,control_change,137,0,2,,,,,,,,,,,,,,,0,64,127,,
127920,note_on,0,0,2,,,,,,,,,,,,,,,0,,,49,33
127920,note_on,46,0,2,,,,,,,,,,,,,,,0,,,37,0
127920,note_on,0,0,1,,,,,,,,,,,,,,,0,,,77,52
127920,note_on,240,0,1,,,,,,,,,,,,,,,0,,,78,0
127920,set_tempo,240,1,0,,,,,,,,,,,,959539,,,,,,,
128160,note_on,240,0,1,,,,,,,,,,,,,,,0,,,77,0
128160,note_on,0,0,1,,,,,,,,,,,,,,,0,,,75,57
128160,note_on,240,0,2,,,,,,,,,,,,,,,0,,,49,0
128160,note_on,0,0,2,,,,,,,,,,,,,,,0,,,58,33
128400,note_on,0,0,1,,,,,,,,,,,,,,,0,,,73,52
128400,note_on,240,0,1,,,,,,,,,,,,,,,0,,,75,0
128400,note_on,240,0,2,,,,,,,,,,,,,,,0,,,58,0
128400,note_on,0,0,2,,,,,,,,,,,,,,,0,,,65,34
128400,set_tempo,480,1,0,,,,,,,,,,,,984252,,,,,,,
128640,control_change,0,0,2,,,,,,,,,,,,,,,0,64,0,,
128640,note_on,0,0,1,,,,,,,,,,,,,,,0,,,73,59
128640,note_on,0,0,2,,,,,,,,,,,,,,,0,,,39,40
128640,note_on,240,0,1,,,,,,,,,,,,,,,0,,,73,0
128640,note_on,240,0,2,,,,,,,,,,,,,,,0,,,65,0
128696,control_change,56,0,2,,,,,,,,,,,,,,,0,64,127,,
128880,note_on,0,0,2,,,,,,,,,,,,,,,0,,,51,35
128880,note_on,184,0,2,,,,,,,,,,,,,,,0,,,39,0
128880,set_tempo,480,1,0,,,,,,,,,,,,928218,,,,,,,
129120,note_on,0,0,2,,,,,,,,,,,,,,,0,,,58,37
129120,note_on,240,0,2,,,,,,,,,,,,,,,0,,,51,0
129120,note_on,0,0,1,,,,,,,,,,,,,,,0,,,72,57
129120,note_on,480,0,1,,,,,,,,,,,,,,,0,,,73,0
129120,set_tempo,240,1,0,,,,,,,,,,,,959539,,,,,,,
129360,note_on,240,0,2,,,,,,,,,,,,,,,0,,,58,0
129360,note_on,0,0,2,,,,,,,,,,,,,,,0,,,66,33
129600,note_on,480,0,1,,,,,,,,,,,,,,,0,,,72,0
129600,note_on,240,0,2,,,,,,,,,,,,,,,0,,,66,0
129600,note_on,0,0,2,,,,,,,,,,,,,,,0,,,41,41
129656,control_change,56,0,2,,,,,,,,,,,,,,,0,64,0,,
129688,control_change,32,0,2,,,,,,,,,,,,,,,0,64,127,,
129840,note_on,152,0,2,,,,,,,,,,,,,,,0,,,41,0
129840,note_on,0,0,2,,,,,,,,,,,,,,,0,,,53,35
129840,note_on,240,0,1,,,,,,,,,,,,,,,0,,,72,56
130050,note_on,0,0,1,,,,,,,,,,,,,,,0,,,75,55
130050,note_on,210,0,1,,,,,,,,,,,,,,,0,,,72,0
130080,note_on,30,0,1,,,,,,,,,,,,,,,0,,,75,0
130080,note_on,0,0,2,,,,,,,,,,,,,,,0,,,58,37
130080,note_on,0,0,1,,,,,,,,,,,,,,,0,,,73,59
130080,note_on,240,0,2,,,,,,,,,,,,,,,0,,,53,0
130320,note_on,0,0,2,,,,,,,,,,,,,,,0,,,65,35
130320,note_on,240,0,2,,,,,,,,,,,,,,,0,,,58,0
130320,set_tempo,1200,1,0,,,,,,,,,,,,984252,,,,,,,
130440,note_on,360,0,1,,,,,,,,,,,,,,,0,,,73,0
130440,note_on,0,0,1,,,,,,,,,,,,,,,0,,,72,58
130560,note_on,240,0,2,,,,,,,,,,,,,,,0,,,65,0
130560,note_on,0,0,2,,,,,,,,,,,,,,,0,,,42,40
130560,note_on,120,0,1,,,,,,,,,,,,,,,0,,,72,0
130560,control_change,0,0,2,,,,,,,,,,,,,,,0,64,0,,
130560,note_on,0,0,1,,,,,,,,,,,,,,,0,,,72,59
130616,control_change,56,0,2,,,,,,,,,,,,,,,0,64,127,,
130800,set_tempo,480,1,0,,,,,,,,,,,,928218,,,,,,,
130800,note_on,0,0,2,,,,,,,,,,,,,,,0,,,51,34
130800,note_on,184,0,2,,,,,,,,,,,,,,,0,,,42,0
131040,set_tempo,240,1,0,,,,,,,,,,,,975927,,,,,,,
131040,note_on,0,0,1,,,,,,,,,,,,,,,0,,,70,56
131040,note_on,480,0,1,,,,,,,,,,,,,,,0,,,72,0
131040,note_on,0,0,2,,,,,,,,,,,,,,,0,,,58,37
131040,note_on,240,0,2,,,,,,,,,,,,,,,0,,,51,0
131280,set_tempo,240,1,0,,,,,,,,,,,,935891,,,,,,,
131280,note_on,0,0,2,,,,,,,,,,,,,,,0,,,63,33
131280,note_on,240,0,2,,,,,,,,,,,,,,,0,,,58,0
131520,note_on,480,0,1,,,,,,,,,,,,,,,0,,,70,0
131520,set_tempo,240,1,0,,,,,,,,,,,,975927,,,,,,,
131520,note_on,240,0,2,,,,,,,,,,,,,,,0,,,63,0
131520,note_on,0,0,2,,,,,,,,,,,,,,,0,,,42,38
131576,control_change,56,0,2,,,,,,,,,,,,,,,0,64,0,,
131608,control_change,32,0,2,,,,,,,,,,,,,,,0,64,127,,
131760,note_on,0,0,2,,,,,,,,,,,,,,,0,,,54,34
131760,note_on,152,0,2,,,,,,,,,,,,,,,0,,,42,0
131760,note_on,240,0,1,,,,,,,,,,,,,,,0,,,72,56
131970,note_on,210,0,1,,,,,,,,,,,,,,,0,,,72,0
131970,note_on,0,0,1,,,,,,,,,,,,,,,0,,,75,59
132000,note_on,240,0,2,,,,,,,,,,,,,,,0,,,54,0
132000,note_on,0,0,2,,,,,,,,,,,,,,,0,,,58,37
132000,note_on,0,0,1,,,,,,,,,,,,,,,0,,,73,59
132000,note_on,30,0,1,,,,,,,,,,,,,,,0,,,75,0
132240,note_on,0,0,2,,,,,,,,,,,,,,,0,,,64,34
132240,note_on,240,0,2,,,,,,,,,,,,,,,0,,,58,0
132360,note_on,0,0,1,,,,,,,,,,,,,,,0,,,72,56
132360,note_on,360,0,1,,,,,,,,,,,,,,,0,,,73,0
132480,note_on,240,0,2,,,,,,,,,,,,,,,0,,,64,0
132480,control_change,0,0,2,,,,,,,,,,,,,,,0,64,0,,
132480,note_on,0,0,2,,,,,,,,,,,,,,,0,,,41,36
132480,note_on,120,0,1,,,,,,,,,,,,,,,0,,,72,0
132480,note_on,0,0,1,,,,,,,,,,,,,,,0,,,72,50
132583,control_change,103,0,2,,,,,,,,,,,,,,,0,64,127,,
132720,note_on,0,0,2,,,,,,,,,,,,,,,0,,,48,32
132720,note_on,137,0,2,,,,,,,,,,,,,,,0,,,41,0
132960,note_on,0,0,2,,,,,,,,,,,,,,,0,,,57,32
132960,note_on,240,0,2,,,,,,,,,,,,,,,0,,,48,0
132960,set_tempo,1440,1,0,,,,,,,,,,,,975927,,,,,,,
132960,note_on,0,0,1,,,,,,,,,,,,,,,0,,,77,55
132960,note_on,480,0,1,,,,,,,,,,,,,,,0,,,72,0
133160,set_tempo,200,1,0,,,,,,,,,,,,984252,,,,,,,
133200,note_on,240,0,2,,,,,,,,,,,,,,,0,,,57,0
133200,note_on,0,0,2,,,,,,,,,,,,,,,0,,,65,31
133360,set_tempo,200,1,0,,,,,,,,,,,,992884,,,,,,,
133440,note_on,0,0,1,,,,,,,,,,,,,,,0,,,78,54
133440,note_on,240,0,2,,,,,,,,,,,,,,,0,,,65,0
133440,note_on,0,0,2,,,,,,,,,,,,,,,0,,,39,35
133440,set_tempo,80,1,0,,,,,,,,,,,,1008403,,,,,,,
133440,note_on,480,0,1,,,,,,,,,,,,,,,0,,,77,0
133451,control_change,11,0,2,,,,,,,,,,,,,,,0,64,0,,
133531,control_change,80,0,2,,,,,,,,,,,,,,,0,64,127,,
133560,set_tempo,120,1,0,,,,,,,,,,,,1016949,,,,,,,
133680,note_on,0,0,2,,,,,,,,,,,,,,,0,,,51,33
133680,note_on,149,0,2,,,,,,,,,,,,,,,0,,,39,0
133680,set_tempo,120,1,0,,,,,,,,,,,,1025641,,,,,,,
133800,set_tempo,120,1,0,,,,,,,,,,,,1034483,,,,,,,
133880,set_tempo,80,1,0,,,,,,,,,,,,1043478,,,,,,,
133920,note_on,0,0,2,,,,,,,,,,,,,,,0,,,56,27
133920,note_on,240,0,2,,,,,,,,,,,,,,,0,,,51,0
133920,note_on,480,0,1,,,,,,,,,,,,,,,0,,,78,0
133920,note_on,0,0,1,,,,,,,,,,,,,,,0,,,68,45
133920,set_tempo,40,1,0,,,,,,,,,,,,1100917,,,,,,,
134160,note_on,240,0,2,,,,,,,,,,,,,,,0,,,56,0
134160,set_tempo,240,1,0,,,,,,,,,,,,1153846,,,,,,,
134160,note_on,0,0,2,,,,,,,,,,,,,,,0,,,60,22
134160,note_on,0,0,2,,,,,,,,,,,,,,,0,,,66,26
134400,note_on,480,0,1,,,,,,,,,,,,,,,0,,,68,0
134400,note_on,0,0,1,,,,,,,,,,,,,,,0,,,77,54
134400,note_on,240,0,2,,,,,,,,,,,,,,,0,,,60,0
134400,note_on,0,0,2,,,,,,,,,,,,,,,0,,,66,0
134400,note_on,0,0,2,,,,,,,,,,,,,,,0,,,37,33
134414,control_change,14,0,2,,,,,,,,,,,,,,,0,64,0,,
134440,set_tempo,280,1,0,,,,,,,,,,,,1028630,,,,,,,
134513,control_change,99,0,2,,,,,,,,,,,,,,,0,64,127,,
134640,note_on,0,0,2,,,,,,,,,,,,,,,0,,,44,27
134640,note_on,127,0,2,,,,,,,,,,,,,,,0,,,37,0
134640,set_tempo,200,1,0,,,,,,,,,,,,967586,,,,,,,
134880,note_on,0,0,2,,,,,,,,,,,,,,,0,,,53,27
134880,note_on,240,0,2,,,,,,,,,,,,,,,0,,,44,0
134880,set_tempo,240,1,0,,,,,,,,,,,,975927,,,,,,,
135120,set_tempo,240,1,0,,,,,,,,,,,,992884,,,,,,,
135120,note_on,240,0,2,,,,,,,,,,,,,,,0,,,53,0
135120,note_on,0,0,2,,,,,,,,,,,,,,,0,,,61,28
135360,note_on,960,0,1,,,,,,,,,,,,,,,0,,,77,0
135360,note_on,0,0,1,,,,,,,,,,,,,,,0,,,78,50
135360,note_on,240,0,2,,,,,,,,,,,,,,,0,,,61,0
135360,note_on,0,0,2,,,,,,,,,,,,,,,0,,,37,33
135600,set_tempo,480,1,0,,,,,,,,,,,,951475,,,,,,,
135600,note_on,0,0,1,,,,,,,,,,,,,,,0,,,77,46
135600,note_on,240,0,1,,,,,,,,,,,,,,,0,,,78,0
135600,note_on,240,0,2,,,,,,,,,,,,,,,0,,,37,0
135600,note_on,0,0,2,,,,,,,,,,,,,,,0,,,44,27
135840,note_on,0,0,1,,,,,,,,,,,,,,,0,,,75,50
135840,note_on,240,0,1,,,,,,,,,,,,,,,0,,,77,0
135840,note_on,0,0,2,,,,,,,,,,,,,,,0,,,53,27
135840,note_on,240,0,2,,,,,,,,,,,,,,,0,,,44,0
136080,note_on,0,0,2,,,,,,,,,,,,,,,0,,,61,28
136080,set_tempo,480,1,0,,,,,,,,,,,,984252,,,,,,,
136080,note_on,240,0,1,,,,,,,,,,,,,,,0,,,75,0
136080,note_on,0,0,1,,,,,,,,,,,,,,,0,,,73,46
136080,note_on,240,0,2,,,,,,,,,,,,,,,0,,,53,0
136320,note_on,240,0,2,,,,,,,,,,,,,,,0,,,61,0
136320,control_change,0,0,2,,,,,,,,,,,,,,,0,64,0,,
136320,note_on,0,0,2,,,,,,,,,,,,,,,0,,,39,33
136320,note_on,0,0,1,,,,,,,,,,,,,,,0,,,72,50
136320,set_tempo,240,1,0,,,,,,,,,,,,984252,,,,,,,
136320,note_on,240,0,1,,,,,,,,,,,,,,,0,,,73,0
136447,control_change,127,0,2,,,,,,,,,,,,,,,0,64,127,,
136560,note_on,113,0,2,,,,,,,,,,,,,,,0,,,39,0
136560,note_on,0,0,2,,,,,,,,,,,,,,,0,,,44,27
136680,set_tempo,360,1,0,,,,,,,,,,,,1028630,,,,,,,
136800,note_on,0,0,2,,,,,,,,,,,,,,,0,,,54,24
136800,set_tempo,120,1,0,,,,,,,,,,,,984252,,,,,,,
136800,note_on,240,0,2,,,,,,,,,,,,,,,0,,,44,0
136800,note_on,480,0,1,,,,,,,,,,,,,,,0,,,72,0
136800,note_on,0,0,1,,,,,,,,,,,,,,,0,,,82,54
137040,note_on,240,0,2,,,,,,,,,,,,,,,0,,,54,0
137040,note_on,0,0,2,,,,,,,,,,,,,,,0,,,60,24
137280,note_on,0,0,2,,,,,,,,,,,,,,,0,,,39,31
137280,note_on,480,0,1,,,,,,,,,,,,,,,0,,,82,0
137280,note_on,0,0,1,,,,,,,,,,,,,,,0,,,80,52
137280,note_on,240,0,2,,,,,,,,,,,,,,,0,,,60,0
137520,set_tempo,720,1,0,,,,,,,,,,,,959539,,,,,,,
137520,note_on,0,0,2,,,,,,,,,,,,,,,0,,,44,24
137520,note_on,240,0,2,,,,,,,,,,,,,,,0,,,39,0
137760,note_on,0,0,2,,,,,,,,,,,,,,,0,,,54,27
137760,note_on,240,0,2,,,,,,,,,,,,,,,0,,,44,0
138000,note_on,240,0,2,,,,,,,,,,,,,,,0,,,54,0
138000,set_tempo,480,1,0,,,,,,,,,,,,992884,,,,,,,
138000,note_on,0,0,2,,,,,,,,,,,,,,,0,,,60,25
138040,set_tempo,40,1,0,,,,,,,,,,,,1019368,,,,,,,
138240,note_on,0,0,1,,,,,,,,,,,,,,,0,,,78,51
138240,note_on,960,0,1,,,,,,,,,,,,,,,0,,,80,0
138240,note_on,240,0,2,,,,,,,,,,,,,,,0,,,60,0
138240,note_on,0,0,2,,,,,,,,,,,,,,,0,,,32,33
138254,control_change,14,0,2,,,,,,,,,,,,,,,0,64,0,,
138424,control_change,170,0,2,,,,,,,,,,,,,,,0,64,127,,
138480,note_on,0,0,2,,,,,,,,,,,,,,,0,,,44,29
138480,set_tempo,440,1,0,,,,,,,,,,,,967586,,,,,,,
138480,note_on,56,0,2,,,,,,,,,,,,,,,0,,,32,0
138720,note_on,0,0,2,,,,,,,,,,,,,,,0,,,54,29
138720,note_on,240,0,2,,,,,,,,,,,,,,,0,,,44,0
138960,set_tempo,480,1,0,,,,,,,,,,,,984252,,,,,,,
138960,note_on,240,0,2,,,,,,,,,,,,,,,0,,,54,0
138960,note_on,0,0,2,,,,,,,,,,,,,,,0,,,60,30
139200,note_on,240,0,2,,,,,,,,,,,,,,,0,,,60,0
139200,note_on,0,0,2,,,,,,,,,,,,,,,0,,,32,36
139200,note_on,960,0,1,,,,,,,,,,,,,,,0,,,78,0
139200,note_on,0,0,1,,,,,,,,,,,,,,,0,,,80,50
139440,note_on,240,0,2,,,,,,,,,,,,,,,0,,,32,0
139440,note_on,0,0,2,,,,,,,,,,,,,,,0,,,44,30
139440,note_on,240,0,1,,,,,,,,,,,,,,,0,,,80,0
139440,note_on,0,0,1,,,,,,,,,,,,,,,0,,,78,46
139440,set_tempo,480,1,0,,,,,,,,,,,,951475,,,,,,,
139680,note_on,240,0,1,,,,,,,,,,,,,,,0,,,78,0
139680,note_on,0,0,1,,,,,,,,,,,,,,,0,,,77,50
139680,note_on,240,0,2,,,,,,,,,,,,,,,0,,,44,0
139680,note_on,0,0,2,,,,,,,,,,,,,,,0,,,54,30
139920,note_on,240,0,2,,,,,,,,,,,,,,,0,,,54,0
139920,set_tempo,480,1,0,,,,,,,,,,,,992884,,,,,,,
139920,note_on,240,0,1,,,,,,,,,,,,,,,0,,,77,0
139920,note_on,0,0,1,,,,,,,,,,,,,,,0,,,75,46
139920,note_on,0,0,2,,,,,,,,,,,,,,,0,,,60,31
140160,note_on,0,0,1,,,,,,,,,,,,,,,0,,,73,50
140160,set_tempo,240,1,0,,,,,,,,,,,,992884,,,,,,,
140160,note_on,240,0,2,,,,,,,,,,,,,,,0,,,60,0
140160,control_change,0,0,2,,,,,,,,,,,,,,,0,64,0,,
140160,note_on,0,0,2,,,,,,,,,,,,,,,0,,,37,36
140160,note_on,240,0,1,,,,,,,,,,,,,,,0,,,75,0
140301,control_change,141,0,2,,,,,,,,,,,,,,,0,64,127,,
140400,note_on,0,0,2,,,,,,,,,,,,,,,0,,,44,30
140400,note_on,99,0,2,,,,,,,,,,,,,,,0,,,37,0
140640,note_on,0,0,2,,,,,,,,,,,,,,,0,,,53,28
140640,note_on,480,0,1,,,,,,,,,,,,,,,0,,,73,0
140640,note_on,0,0,1,,,,,,,,,,,,,,,0,,,85,53
140640,note_on,240,0,2,,,,,,,,,,,,,,,0,,,44,0
140880,note_on,240,0,2,,,,,,,,,,,,,,,0,,,53,0
140880,note_on,0,0,2,,,,,,,,,,,,,,,0,,,61,25
141000,set_tempo,840,1,0,,,,,,,,,,,,1047486,,,,,,,
141120,note_on,240,0,2,,,,,,,,,,,,,,,0,,,61,0
141120,set_tempo,120,1,0,,,,,,,,,,,,992884,,,,,,,
141120,note_on,0,0,2,,,,,,,,,,,,,,,0,,,37,33
141120,note_on,0,0,1,,,,,,,,,,,,,,,0,,,80,49
141120,note_on,480,0,1,,,,,,,,,,,,,,,0,,,85,0
141160,set_tempo,40,1,0,,,,,,,,,,,,1019368,,,,,,,
141360,note_on,0,0,2,,,,,,,,,,,,,,,0,,,44,27
141360,note_on,240,0,2,,,,,,,,,,,,,,,0,,,37,0
141360,set_tempo,200,1,0,,,,,,,,,,,,951475,,,,,,,
141600,note_on,0,0,2,,,,,,,,,,,,,,,0,,,53,29
141600,note_on,240,0,2,,,,,,,,,,,,,,,0,,,44,0
141840,note_on,240,0,2,,,,,,,,,,,,,,,0,,,53,0
141840,note_on,0,0,2,,,,,,,,,,,,,,,0,,,61,27
141840,set_tempo,480,1,0,,,,,,,,,,,,1010441,,,,,,,
142080,note_on,960,0,1,,,,,,,,,,,,,,,0,,,80,0
142080,note_on,0,0,1,,,,,,,,,,,,,,,0,,,77,52
142080,set_tempo,240,1,0,,,,,,,,,,,,984252,,,,,,,
142080,note_on,240,0,2,,,,,,,,,,,,,,,0,,,61,0
142080,control_change,0,0,2,,,,,,,,,,,,,,,0,64,0,,
142080,note_on,0,0,2,,,,,,,,,,,,,,,0,,,37,33
142217,control_change,137,0,2,,,,,,,,,,,,,,,0,64,127,,
142320,set_tempo,240,1,0,,,,,,,,,,,,959539,,,,,,,
142320,note_on,0,0,2,,,,,,,,,,,,,,,0,,,44,27
142320,note_on,103,0,2,,,,,,,,,,,,,,,0,,,37,0
142560,note_on,240,0,2,,,,,,,,,,,,,,,0,,,44,0
142560,set_tempo,240,1,0,,,,,,,,,,,,984252,,,,,,,
142560,note_on,0,0,2,,,,,,,,,,,,,,,0,,,53,30
142800,note_on,240,0,2,,,,,,,,,,,,,,,0,,,53,0
142800,note_on,0,0,2,,,,,,,,,,,,,,,0,,,61,28
143040,note_on,960,0,1,,,,,,,,,,,,,,,0,,,77,0
143040,note_on,0,0,1,,,,,,,,,,,,,,,0,,,78,51
143040,set_tempo,480,1,0,,,,,,,,,,,,959539,,,,,,,
143040,note_on,240,0,2,,,,,,,,,,,,,,,0,,,61,0
143040,note_on,0,0,2,,,,,,,,,,,,,,,0,,,34,33
143097,control_change,57,0,2,,,,,,,,,,,,,,,0,64,0,,
143234,control_change,137,0,2,,,,,,,,,,,,,,,0,64,127,,
143280,note_on,46,0,2,,,,,,,,,,,,,,,0,,,34,0
143280,note_on,240,0,1,,,,,,,,,,,,,,,0,,,78,0
143280,note_on,0,0,1,,,,,,,,,,,,,,,0,,,77,46
143280,note_on,0,0,2,,,,,,,,,,,,,,,0,,,46,29
143520,note_on,240,0,2,,,,,,,,,,,,,,,0,,,46,0
143520,note_on,0,0,2,,,,,,,,,,,,,,,0,,,56,29
143520,note_on,240,0,1,,,,,,,,,,,,,,,0,,,77,0
143520,note_on,0,0,1,,,,,,,,,,,,,,,0,,,75,50
143760,note_on,0,0,1,,,,,,,,,,,,,,,0,,,74,46
143760,set_tempo,720,1,0,,,,,,,,,,,,1077199,,,,,,,
143760,note_on,0,0,2,,,,,,,,,,,,,,,0,,,62,30
143760,note_on,240,0,2,,,,,,,,,,,,,,,0,,,56,0
143760,note_on,240,0,1,,,,,,,,,,,,,,,0,,,75,0
143880,set_tempo,120,1,0,,,,,,,,,,,,804074,,,,,,,
143880,note_on,120,0,1,,,,,,,,,,,,,,,0,,,74,0
143880,note_on,0,0,1,,,,,,,,,,,,,,,0,,,75,46
143940,note_on,0,0,1,,,,,,,,,,,,,,,0,,,77,42
143940,note_on,60,0,1,,,,,,,,,,,,,,,0,,,75,0
144000,note_on,240,0,2,,,,,,,,,,,,,,,0,,,62,0
144000,control_change,0,0,2,,,,,,,,,,,,,,,0,64,0,,
144000,note_on,60,0,1,,,,,,,,,,,,,,,0,,,77,0
144000,set_tempo,120,1,0,,,,,,,,,,,,951475,,,,,,,
144000,note_on,0,0,2,,,,,,,,,,,,,,,0,,,39,33
144000,note_on,0,0,1,,,,,,,,,,,,,,,0,,,75,53
144037,control_change,37,0,2,,,,,,,,,,,,,,,0,64,127,,
144040,set_tempo,40,1,0,,,,,,,,,,,,935891,,,,,,,
144240,note_on,203,0,2,,,,,,,,,,,,,,,0,,,39,0
144240,note_on,0,0,2,,,,,,,,,,,,,,,0,,,46,30
144240,note_on,240,0,1,,,,,,,,,,,,,,,0,,,75,0
144240,note_on,0,0,1,,,,,,,,,,,,,,,0,,,74,51
144480,note_on,0,0,1,,,,,,,,,,,,,,,0,,,75,54
144480,note_on,240,0,1,,,,,,,,,,,,,,,0,,,74,0
144480,note_on,240,0,2,,,,,,,,,,,,,,,0,,,46,0
144480,note_on,0,0,2,,,,,,,,,,,,,,,0,,,54,30
144720,note_on,240,0,1,,,,,,,,,,,,,,,0,,,75,0
144720,note_on,0,0,1,,,,,,,,,,,,,,,0,,,77,55
144720,note_on,240,0,2,,,,,,,,,,,,,,,0,,,54,0
144720,set_tempo,680,1,0,,,,,,,,,,,,951475,,,,,,,
144720,note_on,0,0,2,,,,,,,,,,,,,,,0,,,63,27
144960,note_on,0,0,2,,,,,,,,,,,,,,,0,,,42,33
144960,note_on,240,0,2,,,,,,,,,,,,,,,0,,,63,0
144960,note_on,240,0,1,,,,,,,,,,,,,,,0,,,77,0
144960,note_on,0,0,1,,,,,,,,,,,,,,,0,,,78,57
144969,control_change,9,0,2,,,,,,,,,,,,,,,0,64,0,,
144997,control_change,28,0,2,,,,,,,,,,,,,,,0,64,127,,
145000,set_tempo,280,1,0,,,,,,,,,,,,951475,,,,,,,
145200,note_on,0,0,2,,,,,,,,,,,,,,,0,,,51,29
145200,note_on,203,0,2,,,,,,,,,,,,,,,0,,,42,0
145200,note_on,0,0,1,,,,,,,,,,,,,,,0,,,70,52
145200,note_on,240,0,1,,,,,,,,,,,,,,,0,,,78,0
145440,note_on,0,0,1,,,,,,,,,,,,,,,0,,,77,57
145440,note_on,240,0,1,,,,,,,,,,,,,,,0,,,70,0
145440,set_tempo,440,1,0,,,,,,,,,,,,992884,,,,,,,
145440,note_on,240,0,2,,,,,,,,,,,,,,,0,,,51,0
145440,note_on,0,0,2,,,,,,,,,,,,,,,0,,,58,30
145680,note_on,240,0,1,,,,,,,,,,,,,,,0,,,77,0
145680,set_tempo,240,1,0,,,,,,,,,,,,1165049,,,,,,,
145680,note_on,0,0,1,,,,,,,,,,,,,,,0,,,75,50
145680,note_on,240,0,2,,,,,,,,,,,,,,,0,,,58,0
145680,note_on,0,0,2,,,,,,,,,,,,,,,0,,,63,27
145800,note_on,120,0,1,,,,,,,,,,,,,,,0,,,75,0
145800,set_tempo,120,1,0,,,,,,,,,,,,821355,,,,,,,
145800,note_on,0,0,1,,,,,,,,,,,,,,,0,,,72,39
145826,control_change,146,0,2,,,,,,,,,,,,,,,0,64,0,,
145846,control_change,20,0,2,,,,,,,,,,,,,,,0,64,127,,
145860,note_on,60,0,1,,,,,,,,,,,,,,,0,,,72,0
145860,note_on,0,0,1,,,,,,,,,,,,,,,0,,,73,39
145920,note_on,0,0,1,,,,,,,,,,,,,,,0,,,73,39
145920,set_tempo,120,1,0,,,,,,,,,,,,1001502,,,,,,,
145920,note_on,0,0,2,,,,,,,,,,,,,,,0,,,43,33
145920,note_on,74,0,2,,,,,,,,,,,,,,,0,,,63,0
145920,note_on,60,0,1,,,,,,,,,,,,,,,0,,,73,0
145965,note_on,45,0,1,,,,,,,,,,,,,,,0,,,73,0
145965,note_on,0,0,1,,,,,,,,,,,,,,,0,,,75,36
146010,note_on,45,0,1,,,,,,,,,,,,,,,0,,,75,0
146010,note_on,0,0,1,,,,,,,,,,,,,,,0,,,73,40
146040,set_tempo,120,1,0,,,,,,,,,,,,992884,,,,,,,
146055,note_on,45,0,1,,,,,,,,,,,,,,,0,,,73,0
146055,note_on,0,0,1,,,,,,,,,,,,,,,0,,,75,37
146100,note_on,45,0,1,,,,,,,,,,,,,,,0,,,75,0
146100,note_on,0,0,1,,,,,,,,,,,,,,,0,,,73,42
146120,set_tempo,80,1,0,,,,,,,,,,,,984252,,,,,,,
146145,note_on,45,0,1,,,,,,,,,,,,,,,0,,,73,0
146145,note_on,0,0,1,,,,,,,,,,,,,,,0,,,75,38
146160,note_on,0,0,2,,,,,,,,,,,,,,,0,,,52,28
146160,note_on,240,0,2,,,,,,,,,,,,,,,0,,,43,0
146190,note_on,45,0,1,,,,,,,,,,,,,,,0,,,75,0
146190,note_on,0,0,1,,,,,,,,,,,,,,,0,,,73,44
146200,set_tempo,80,1,0,,,,,,,,,,,,975927,,,,,,,
146235,note_on,0,0,1,,,,,,,,,,,,,,,0,,,75,39
146235,note_on,45,0,1,,,,,,,,,,,,,,,0,,,73,0
146280,note_on,0,0,1,,,,,,,,,,,,,,,0,,,73,46
146280,note_on,45,0,1,,,,,,,,,,,,,,,0,,,75,0
146280,set_tempo,80,1,0,,,,,,,,,,,,967586,,,,,,,
146325,note_on,45,0,1,,,,,,,,,,,,,,,0,,,73,0
146325,note_on,0,0,1,,,,,,,,,,,,,,,0,,,75,42
146360,set_tempo,80,1,0,,,,,,,,,,,,959539,,,,,,,
146370,note_on,0,0,1,,,,,,,,,,,,,,,0,,,73,48
146370,note_on,45,0,1,,,,,,,,,,,,,,,0,,,75,0
146400,note_on,0,0,2,,,,,,,,,,,,,,,0,,,61,28
146400,note_on,240,0,2,,,,,,,,,,,,,,,0,,,52,0
146415,note_on,45,0,1,,,,,,,,,,,,,,,0,,,73,0
146415,note_on,0,0,1,,,,,,,,,,,,,,,0,,,75,42
146440,set_tempo,80,1,0,,,,,,,,,,,,951475,,,,,,,
146460,note_on,45,0,1,,,,,,,,,,,,,,,0,,,75,0
146460,note_on,0,0,1,,,,,,,,,,,,,,,0,,,73,47
146480,set_tempo,40,1,0,,,,,,,,,,,,959539,,,,,,,
146505,note_on,45,0,1,,,,,,,,,,,,,,,0,,,73,0
146506,note_on,1,0,1,,,,,,,,,,,,,,,0,,,75,40
146520,set_tempo,40,1,0,,,,,,,,,,,,967586,,,,,,,
146550,note_on,44,0,1,,,,,,,,,,,,,,,0,,,73,44
146551,note_on,1,0,1,,,,,,,,,,,,,,,0,,,75,0
146560,set_tempo,40,1,0,,,,,,,,,,,,975927,,,,,,,
146595,note_on,44,0,1,,,,,,,,,,,,,,,0,,,73,0
146595,note_on,0,0,1,,,,,,,,,,,,,,,0,,,75,38
146600,set_tempo,40,1,0,,,,,,,,,,,,984252,,,,,,,
146640,note_on,240,0,2,,,,,,,,,,,,,,,0,,,61,0
146640,note_on,0,0,2,,,,,,,,,,,,,,,0,,,70,29
146640,set_tempo,40,1,0,,,,,,,,,,,,992884,,,,,,,
146640,note_on,45,0,1,,,,,,,,,,,,,,,0,,,73,42
146641,note_on,1,0,1,,,,,,,,,,,,,,,0,,,75,0
146660,set_tempo,20,1,0,,,,,,,,,,,,1001502,,,,,,,
146680,set_tempo,20,1,0,,,,,,,,,,,,1019368,,,,,,,
146700,set_tempo,20,1,0,,,,,,,,,,,,1038062,,,,,,,
146700,note_on,59,0,1,,,,,,,,,,,,,,,0,,,73,0
146700,note_on,0,0,1,,,,,,,,,,,,,,,0,,,75,37
146720,set_tempo,20,1,0,,,,,,,,,,,,1057269,,,,,,,
146740,set_tempo,20,1,0,,,,,,,,,,,,1087350,,,,,,,
146760,note_on,60,0,1,,,,,,,,,,,,,,,0,,,75,0
146760,set_tempo,20,1,0,,,,,,,,,,,,1108443,,,,,,,
146760,note_on,0,0,1,,,,,,,,,,,,,,,0,,,72,40
146780,set_tempo,20,1,0,,,,,,,,,,,,1130582,,,,,,,
146800,set_tempo,20,1,0,,,,,,,,,,,,1153403,,,,,,,
146820,note_on,60,0,1,,,,,,,,,,,,,,,0,,,72,0
146820,set_tempo,20,1,0,,,,,,,,,,,,1189296,,,,,,,
146820,note_on,0,0,1,,,,,,,,,,,,,,,0,,,73,35
146840,set_tempo,20,1,0,,,,,,,,,,,,1038062,,,,,,,
146880,note_on,240,0,2,,,,,,,,,,,,,,,0,,,70,0
146880,note_on,0,0,2,,,,,,,,,,,,,,,0,,,44,33
146880,note_on,60,0,1,,,,,,,,,,,,,,,0,,,73,0
146880,note_on,0,0,1,,,,,,,,,,,,,,,0,,,82,54
146880,set_tempo,40,1,0,,,,,,,,,,,,984252,,,,,,,
146905,control_change,25,0,2,,,,,,,,,,,,,,,0,64,0,,
146940,control_change,35,0,2,,,,,,,,,,,,,,,0,64,127,,
147120,note_on,180,0,2,,,,,,,,,,,,,,,0,,,44,0
147120,note_on,0,0,1,,,,,,,,,,,,,,,0,,,80,50
147120,note_on,240,0,1,,,,,,,,,,,,,,,0,,,82,0
147120,note_on,0,0,2,,,,,,,,,,,,,,,0,,,51,28
147360,note_on,0,0,1,,,,,,,,,,,,,,,0,,,78,52
147360,set_tempo,480,1,0,,,,,,,,,,,,1010441,,,,,,,
147360,note_on,240,0,1,,,,,,,,,,,,,,,0,,,80,0
147360,note_on,240,0,2,,,,,,,,,,,,,,,0,,,51,0
147360,note_on,0,0,2,,,,,,,,,,,,,,,0,,,60,30
147600,note_on,240,0,1,,,,,,,,,,,,,,,0,,,78,0
147600,note_on,0,0,1,,,,,,,,,,,,,,,0,,,68,50
147600,note_on,240,0,2,,,,,,,,,,,,,,,0,,,60,0
147600,note_on,0,0,2,,,,,,,,,,,,,,,0,,,66,30
147840,note_on,240,0,1,,,,,,,,,,,,,,,0,,,68,0
147840,note_on,0,0,1,,,,,,,,,,,,,,,0,,,75,54
147840,note_on,0,0,2,,,,,,,,,,,,,,,0,,,32,33
147840,note_on,240,0,2,,,,,,,,,,,,,,,0,,,66,0
147900,control_change,60,0,2,,,,,,,,,,,,,,,0,64,0,,
148038,control_change,138,0,2,,,,,,,,,,,,,,,0,64,127,,
148080,note_on,0,0,2,,,,,,,,,,,,,,,0,,,44,27
148080,note_on,42,0,2,,,,,,,,,,,,,,,0,,,32,0
148080,set_tempo,720,1,0,,,,,,,,,,,,984252,,,,,,,
148320,note_on,0,0,2,,,,,,,,,,,,,,,0,,,54,27
148320,set_tempo,240,1,0,,,,,,,,,,,,1038062,,,,,,,
148320,note_on,240,0,2,,,,,,,,,,,,,,,0,,,44,0
148560,note_on,240,0,2,,,,,,,,,,,,,,,0,,,54,0
148560,set_tempo,240,1,0,,,,,,,,,,,,1077199,,,,,,,
148560,note_on,0,0,2,,,,,,,,,,,,,,,0,,,60,23
148800,note_on,0,0,2,,,,,,,,,,,,,,,0,,,49,23
148800,note_on,0,0,2,,,,,,,,,,,,,,,0,,,61,27
148800,note_on,960,0,1,,,,,,,,,,,,,,,0,,,75,0
148800,note_on,0,0,1,,,,,,,,,,,,,,,0,,,73,45
148800,note_on,0,0,2,,,,,,,,,,,,,,,0,,,53,23
148800,note_on,240,0,2,,,,,,,,,,,,,,,0,,,60,0
148885,control_change,85,0,2,,,,,,,,,,,,,,,0,64,0,,
149280,note_on,395,0,2,,,,,,,,,,,,,,,0,,,61,0
149280,note_on,480,0,1,,,,,,,,,,,,,,,0,,,73,0
149280,note_on,0,0,2,,,,,,,,,,,,,,,0,,,53,0
149280,note_on,0,0,2,,,,,,,,,,,,,,,0,,,49,0
149520,set_tempo,960,1,0,,,,,,,,,,,,1077199,,,,,,,
149760,set_tempo,240,1,0,,,,,,,,,,,,1044386,,,,,,,
149760,note_on,0,0,1,,,,,,,,,,,,,,,0,,,58,40
149760,note_on,480,0,1,,,,,,,,,,,,,,,0,,,53,34
149760,note_on,480,0,2,,,,,,,,,,,,,,,0,,,34,28
149760,note_on,0,0,2,,,,,,,,,,,,,,,0,,,41,28
149760,note_on,0,0,2,,,,,,,,,,,,,,,0,,,46,34
149795,control_change,35,0,2,,,,,,,,,,,,,,,0,64,127,,
150240,note_on,0,0,2,,,,,,,,,,,,,,,0,,,34,0
150240,note_on,445,0,2,,,,,,,,,,,,,,,0,,,46,0
150240,note_on,0,0,1,,,,,,,,,,,,,,,0,,,53,0
150240,note_on,0,0,2,,,,,,,,,,,,,,,0,,,37,25
150240,note_on,0,0,1,,,,,,,,,,,,,,,0,,,58,40
150240,note_on,0,0,1,,,,,,,,,,,,,,,0,,,54,34
150240,note_on,0,0,2,,,,,,,,,,,,,,,0,,,42,25
150240,note_on,480,0,1,,,,,,,,,,,,,,,0,,,58,0
150240,note_on,0,0,2,,,,,,,,,,,,,,,0,,,41,0
150240,set_tempo,480,1,0,,,,,,,,,,,,1083032,,,,,,,
150240,note_on,0,0,2,,,,,,,,,,,,,,,0,,,49,30
150268,control_change,28,0,2,,,,,,,,,,,,,,,0,64,0,,
150388,control_change,120,0,2,,,,,,,,,,,,,,,0,64,127,,
150600,note_on,360,0,1,,,,,,,,,,,,,,,0,,,58,0
150600,note_on,0,0,1,,,,,,,,,,,,,,,0,,,58,36
150720,note_on,120,0,1,,,,,,,,,,,,,,,0,,,58,0
150720,note_on,332,0,2,,,,,,,,,,,,,,,0,,,49,0
150720,note_on,0,0,1,,,,,,,,,,,,,,,0,,,54,0
150720,note_on,0,0,1,,,,,,,,,,,,,,,0,,,53,34
150720,note_on,0,0,1,,,,,,,,,,,,,,,0,,,58,40
150720,note_on,0,0,2,,,,,,,,,,,,,,,0,,,42,0
150720,note_on,0,0,2,,,,,,,,,,,,,,,0,,,46,34
150720,note_on,0,0,2,,,,,,,,,,,,,,,0,,,41,28
150720,note_on,0,0,2,,,,,,,,,,,,,,,0,,,34,28
150720,note_on,0,0,2,,,,,,,,,,,,,,,0,,,37,0
150720,set_tempo,480,1,0,,,,,,,,,,,,1075076,,,,,,,
150762,control_change,42,0,2,,,,,,,,,,,,,,,0,64,0,,
150889,control_change,127,0,2,,,,,,,,,,,,,,,0,64,127,,
151200,note_on,0,0,1,,,,,,,,,,,,,,,0,,,54,28
151200,note_on,480,0,1,,,,,,,,,,,,,,,0,,,53,0
151200,note_on,0,0,2,,,,,,,,,,,,,,,0,,,49,28
151200,set_tempo,480,1,0,,,,,,,,,,,,1083032,,,,,,,
151200,note_on,0,0,2,,,,,,,,,,,,,,,0,,,42,23
151200,note_on,0,0,2,,,,,,,,,,,,,,,0,,,37,23
151200,note_on,0,0,2,,,,,,,,,,,,,,,0,,,34,0
151200,note_on,0,0,2,,,,,,,,,,,,,,,0,,,41,0
151200,note_on,311,0,2,,,,,,,,,,,,,,,0,,,46,0
151256,control_change,56,0,2,,,,,,,,,,,,,,,0,64,0,,
151369,control_change,113,0,2,,,,,,,,,,,,,,,0,64,127,,
151680,note_on,0,0,1,,,,,,,,,,,,,,,0,,,58,40
151680,set_tempo,480,1,0,,,,,,,,,,,,1044386,,,,,,,
151680,control_change,0,0,2,,,,,,,,,,,,,,,0,64,0,,
151680,note_on,480,0,1,,,,,,,,,,,,,,,0,,,54,0
151680,note_on,0,0,2,,,,,,,,,,,,,,,0,,,46,34
151680,note_on,0,0,2,,,,,,,,,,,,,,,0,,,41,28
151680,note_on,0,0,2,,,,,,,,,,,,,,,0,,,34,28
151680,note_on,0,0,2,,,,,,,,,,,,,,,0,,,37,0
151680,note_on,0,0,1,,,,,,,,,,,,,,,0,,,58,0
151680,note_on,0,0,1,,,,,,,,,,,,,,,0,,,53,34
151680,note_on,311,0,2,,,,,,,,,,,,,,,0,,,49,0
151680,note_on,0,0,2,,,,,,,,,,,,,,,0,,,42,0
151807,control_change,127,0,2,,,,,,,,,,,,,,,0,64,127,,
152160,note_on,353,0,2,,,,,,,,,,,,,,,0,,,46,0
152160,note_on,0,0,1,,,,,,,,,,,,,,,0,,,58,40
152160,note_on,0,0,2,,,,,,,,,,,,,,,0,,,41,0
152160,note_on,0,0,2,,,,,,,,,,,,,,,0,,,34,0
152160,note_on,0,0,2,,,,,,,,,,,,,,,0,,,37,25
152160,note_on,0,0,2,,,,,,,,,,,,,,,0,,,42,25
152160,note_on,0,0,2,,,,,,,,,,,,,,,0,,,49,30
152160,note_on,480,0,1,,,,,,,,,,,,,,,0,,,58,0
152160,set_tempo,480,1,0,,,,,,,,,,,,1091107,,,,,,,
152160,note_on,0,0,1,,,,,,,,,,,,,,,0,,,53,0
152160,note_on,0,0,1,,,,,,,,,,,,,,,0,,,54,34
152195,control_change,35,0,2,,,,,,,,,,,,,,,0,64,0,,
152372,control_change,177,0,2,,,,,,,,,,,,,,,0,64,127,,
152520,note_on,360,0,1,,,,,,,,,,,,,,,0,,,58,0
152520,note_on,0,0,1,,,,,,,,,,,,,,,0,,,58,36
152640,note_on,0,0,2,,,,,,,,,,,,,,,0,,,41,28
152640,note_on,0,0,2,,,,,,,,,,,,,,,0,,,37,0
152640,note_on,0,0,2,,,,,,,,,,,,,,,0,,,42,0
152640,note_on,268,0,2,,,,,,,,,,,,,,,0,,,49,0
152640,note_on,0,0,1,,,,,,,,,,,,,,,0,,,53,34
152640,note_on,0,0,2,,,,,,,,,,,,,,,0,,,46,34
152640,note_on,0,0,2,,,,,,,,,,,,,,,0,,,34,28
152640,note_on,0,0,1,,,,,,,,,,,,,,,0,,,54,0
152640,note_on,120,0,1,,,,,,,,,,,,,,,0,,,58,0
152640,note_on,0,0,1,,,,,,,,,,,,,,,0,,,58,40
152640,set_tempo,480,1,0,,,,,,,,,,,,1075076,,,,,,,
152661,control_change,21,0,2,,,,,,,,,,,,,,,0,64,0,,
152831,control_change,170,0,2,,,,,,,,,,,,,,,0,64,127,,
153120,note_on,0,0,2,,,,,,,,,,,,,,,0,,,34,0
153120,note_on,289,0,2,,,,,,,,,,,,,,,0,,,46,0
153120,note_on,0,0,2,,,,,,,,,,,,,,,0,,,41,0
153120,note_on,0,0,2,,,,,,,,,,,,,,,0,,,37,22
153120,note_on,0,0,2,,,,,,,,,,,,,,,0,,,42,22
153120,note_on,0,0,2,,,,,,,,,,,,,,,0,,,49,27
153120,note_on,0,0,1,,,,,,,,,,,,,,,0,,,54,28
153120,note_on,480,0,1,,,,,,,,,,,,,,,0,,,53,0
153120,set_tempo,480,1,0,,,,,,,,,,,,1075076,,,,,,,
153169,control_change,49,0,2,,,,,,,,,,,,,,,0,64,0,,
153318,control_change,149,0,2,,,,,,,,,,,,,,,0,64,127,,
153600,note_on,0,0,2,,,,,,,,,,,,,,,0,,,46,34
153600,note_on,282,0,2,,,,,,,,,,,,,,,0,,,49,0
153600,note_on,0,0,2,,,,,,,,,,,,,,,0,,,42,0
153600,note_on,0,0,2,,,,,,,,,,,,,,,0,,,37,0
153600,control_change,0,0,2,,,,,,,,,,,,,,,0,64,0,,
153600,note_on,0,0,2,,,,,,,,,,,,,,,0,,,41,28
153600,note_on,480,0,1,,,,,,,,,,,,,,,0,,,54,0
153600,note_on,0,0,1,,,,,,,,,,,,,,,0,,,58,0
153600,note_on,0,0,1,,,,,,,,,,,,,,,0,,,53,34
153600,note_on,0,0,1,,,,,,,,,,,,,,,0,,,58,40
153600,set_tempo,480,1,0,,,,,,,,,,,,1044386,,,,,,,
153600,note_on,0,0,2,,,,,,,,,,,,,,,0,,,34,28
153720,control_change,120,0,2,,,,,,,,,,,,,,,0,64,127,,
154080,note_on,0,0,2,,,,,,,,,,,,,,,0,,,37,25
154080,note_on,480,0,1,,,,,,,,,,,,,,,0,,,58,0
154080,note_on,0,0,1,,,,,,,,,,,,,,,0,,,53,0
154080,note_on,0,0,1,,,,,,,,,,,,,,,0,,,54,34
154080,note_on,0,0,1,,,,,,,,,,,,,,,0,,,58,40
154080,set_tempo,480,1,0,,,,,,,,,,,,1075076,,,,,,,
154080,note_on,0,0,2,,,,,,,,,,,,,,,0,,,49,30
154080,note_on,0,0,2,,,,,,,,,,,,,,,0,,,42,30
154080,note_on,360,0,2,,,,,,,,,,,,,,,0,,,46,0
154080,note_on,0,0,2,,,,,,,,,,,,,,,0,,,41,0
154080,note_on,0,0,2,,,,,,,,,,,,,,,0,,,34,0
154115,control_change,35,0,2,,,,,,,,,,,,,,,0,64,0,,
154264,control_change,149,0,2,,,,,,,,,,,,,,,0,64,127,,
154440,note_on,360,0,1,,,,,,,,,,,,,,,0,,,58,0
154440,note_on,0,0,1,,,,,,,,,,,,,,,0,,,58,36
154560,note_on,0,0,2,,,,,,,,,,,,,,,0,,,37,0
154560,note_on,0,0,1,,,,,,,,,,,,,,,0,,,58,40
154560,note_on,0,0,2,,,,,,,,,,,,,,,0,,,34,28
154560,note_on,0,0,2,,,,,,,,,,,,,,,0,,,41,28
154560,note_on,0,0,2,,,,,,,,,,,,,,,0,,,46,34
154560,set_tempo,480,1,0,,,,,,,,,,,,1067236,,,,,,,
154560,note_on,0,0,1,,,,,,,,,,,,,,,0,,,53,34
154560,note_on,0,0,1,,,,,,,,,,,,,,,0,,,54,0
154560,note_on,120,0,1,,,,,,,,,,,,,,,0,,,58,0
154560,note_on,0,0,2,,,,,,,,,,,,,,,0,,,42,0
154560,note_on,296,0,2,,,,,,,,,,,,,,,0,,,49,0
154638,control_change,78,0,2,,,,,,,,,,,,,,,0,64,0,,
154786,control_change,148,0,2,,,,,,,,,,,,,,,0,64,127,,
155040,note_on,480,0,1,,,,,,,,,,,,,,,0,,,58,0
155040,note_on,0,0,1,,,,,,,,,,,,,,,0,,,53,0
155040,note_on,0,0,1,,,,,,,,,,,,,,,0,,,61,49
155040,note_on,0,0,1,,,,,,,,,,,,,,,0,,,54,39
155040,set_tempo,480,1,0,,,,,,,,,,,,1044386,,,,,,,
155040,note_on,254,0,2,,,,,,,,,,,,,,,0,,,46,0
155040,note_on,0,0,2,,,,,,,,,,,,,,,0,,,41,0
155040,note_on,0,0,2,,,,,,,,,,,,,,,0,,,34,0
155040,note_on,0,0,2,,,,,,,,,,,,,,,0,,,42,27
155040,note_on,0,0,2,,,,,,,,,,,,,,,0,,,49,27
155040,note_on,0,0,2,,,,,,,,,,,,,,,0,,,37,22
155068,control_change,28,0,2,,,,,,,,,,,,,,,0,64,0,,
155118,control_change,50,0,2,,,,,,,,,,,,,,,0,64,127,,
155400,note_on,0,0,1,,,,,,,,,,,,,,,0,,,60,45
155400,note_on,360,0,1,,,,,,,,,,,,,,,0,,,61,0
155520,note_on,402,0,2,,,,,,,,,,,,,,,0,,,49,0
155520,note_on,0,0,2,,,,,,,,,,,,,,,0,,,42,0
155520,note_on,0,0,2,,,,,,,,,,,,,,,0,,,41,28
155520,note_on,0,0,2,,,,,,,,,,,,,,,0,,,46,34
155520,control_change,0,0,2,,,,,,,,,,,,,,,0,64,0,,
155520,note_on,0,0,1,,,,,,,,,,,,,,,0,,,53,39
155520,note_on,0,0,1,,,,,,,,,,,,,,,0,,,60,48
155520,note_on,0,0,1,,,,,,,,,,,,,,,0,,,54,0
155520,note_on,120,0,1,,,,,,,,,,,,,,,0,,,60,0
155520,note_on,0,0,2,,,,,,,,,,,,,,,0,,,37,0
155520,note_on,0,0,2,,,,,,,,,,,,,,,0,,,34,28
155598,control_change,78,0,2,,,,,,,,,,,,,,,0,64,127,,
155880,note_on,0,0,1,,,,,,,,,,,,,,,0,,,58,42
155880,note_on,360,0,1,,,,,,,,,,,,,,,0,,,60,0
156000,note_on,0,0,2,,,,,,,,,,,,,,,0,,,49,30
156000,note_on,0,0,2,,,,,,,,,,,,,,,0,,,37,25
156000,note_on,0,0,2,,,,,,,,,,,,,,,0,,,34,0
156000,note_on,0,0,2,,,,,,,,,,,,,,,0,,,42,25
156000,set_tempo,960,1,0,,,,,,,,,,,,1059509,,,,,,,
156000,note_on,402,0,2,,,,,,,,,,,,,,,0,,,46,0
156000,note_on,0,0,2,,,,,,,,,,,,,,,0,,,41,0
156000,note_on,120,0,1,,,,,,,,,,,,,,,0,,,58,0
156000,note_on,0,0,1,,,,,,,,,,,,,,,0,,,53,0
156000,note_on,0,0,1,,,,,,,,,,,,,,,0,,,54,37
156000,note_on,0,0,1,,,,,,,,,,,,,,,0,,,58,44
156049,control_change,49,0,2,,,,,,,,,,,,,,,0,64,0,,
156148,control_change,99,0,2,,,,,,,,,,,,,,,0,64,127,,
156360,note_on,0,0,1,,,,,,,,,,,,,,,0,,,58,36
156360,note_on,360,0,1,,,,,,,,,,,,,,,0,,,58,0
156480,note_on,0,0,1,,,,,,,,,,,,,,,0,,,54,0
156480,note_on,120,0,1,,,,,,,,,,,,,,,0,,,58,0
156480,note_on,0,0,2,,,,,,,,,,,,,,,0,,,42,0
156480,note_on,0,0,1,,,,,,,,,,,,,,,0,,,53,34
156480,note_on,0,0,2,,,,,,,,,,,,,,,0,,,37,0
156480,note_on,0,0,2,,,,,,,,,,,,,,,0,,,34,28
156480,note_on,0,0,2,,,,,,,,,,,,,,,0,,,41,28
156480,note_on,0,0,2,,,,,,,,,,,,,,,0,,,46,34
156480,set_tempo,480,1,0,,,,,,,,,,,,1075076,,,,,,,
156480,note_on,332,0,2,,,,,,,,,,,,,,,0,,,49,0
156480,note_on,0,0,1,,,,,,,,,,,,,,,0,,,58,40
156508,control_change,28,0,2,,,,,,,,,,,,,,,0,64,0,,
156593,control_change,85,0,2,,,,,,,,,,,,,,,0,64,127,,
156960,note_on,367,0,2,,,,,,,,,,,,,,,0,,,46,0
156960,note_on,480,0,1,,,,,,,,,,,,,,,0,,,53,0
156960,note_on,0,0,2,,,,,,,,,,,,,,,0,,,41,0
156960,note_on,0,0,2,,,,,,,,,,,,,,,0,,,49,27
156960,note_on,0,0,2,,,,,,,,,,,,,,,0,,,42,22
156960,note_on,0,0,2,,,,,,,,,,,,,,,0,,,37,22
156960,note_on,0,0,1,,,,,,,,,,,,,,,0,,,54,28
156960,note_on,0,0,2,,,,,,,,,,,,,,,0,,,34,0
157009,control_change,49,0,2,,,,,,,,,,,,,,,0,64,0,,
157101,control_change,92,0,2,,,,,,,,,,,,,,,0,64,127,,
157440,note_on,0,0,1,,,,,,,,,,,,,,,0,,,58,0
157440,note_on,480,0,1,,,,,,,,,,,,,,,0,,,54,0
157440,control_change,0,0,2,,,,,,,,,,,,,,,0,64,0,,
157440,note_on,0,0,2,,,,,,,,,,,,,,,0,,,46,42
157440,note_on,0,0,2,,,,,,,,,,,,,,,0,,,41,35
157440,note_on,0,0,2,,,,,,,,,,,,,,,0,,,37,0
157440,note_on,0,0,2,,,,,,,,,,,,,,,0,,,42,0
157440,note_on,339,0,2,,,,,,,,,,,,,,,0,,,49,0
157440,note_on,0,0,2,,,,,,,,,,,,,,,0,,,34,35
157440,note_on,0,0,1,,,,,,,,,,,,,,,0,,,58,42
157440,set_tempo,960,1,0,,,,,,,,,,,,1044386,,,,,,,
157440,note_on,0,0,1,,,,,,,,,,,,,,,0,,,61,50
157440,note_on,0,0,1,,,,,,,,,,,,,,,0,,,53,42
157511,control_change,71,0,2,,,,,,,,,,,,,,,0,64,127,,
157913,control_change,402,0,2,,,,,,,,,,,,,,,0,64,0,,
157920,set_tempo,480,1,0,,,,,,,,,,,,1075076,,,,,,,
157920,note_on,0,0,2,,,,,,,,,,,,,,,0,,,49,37
157920,note_on,0,0,2,,,,,,,,,,,,,,,0,,,42,37
157920,note_on,0,0,2,,,,,,,,,,,,,,,0,,,37,30
157920,note_on,0,0,2,,,,,,,,,,,,,,,0,,,34,0
157920,note_on,0,0,2,,,,,,,,,,,,,,,0,,,41,0
157920,note_on,0,0,1,,,,,,,,,,,,,,,0,,,58,0
157920,note_on,7,0,2,,,,,,,,,,,,,,,0,,,46,0
157920,note_on,0,0,1,,,,,,,,,,,,,,,0,,,53,0
157920,note_on,0,0,1,,,,,,,,,,,,,,,0,,,61,50
157920,note_on,0,0,1,,,,,,,,,,,,,,,0,,,54,42
157920,note_on,0,0,1,,,,,,,,,,,,,,,0,,,58,42
157920,note_on,480,0,1,,,,,,,,,,,,,,,0,,,61,0
158079,control_change,159,0,2,,,,,,,,,,,,,,,0,64,127,,
158280,note_on,0,0,1,,,,,,,,,,,,,,,0,,,61,45
158280,note_on,360,0,1,,,,,,,,,,,,,,,0,,,61,0
158389,control_change,310,0,2,,,,,,,,,,,,,,,0,64,0,,
158400,note_on,0,0,2,,,,,,,,,,,,,,,0,,,41,35
158400,note_on,11,0,2,,,,,,,,,,,,,,,0,,,49,0
158400,note_on,0,0,2,,,,,,,,,,,,,,,0,,,42,0
158400,note_on,0,0,2,,,,,,,,,,,,,,,0,,,37,0
158400,note_on,0,0,2,,,,,,,,,,,,,,,0,,,34,35
158400,note_on,0,0,2,,,,,,,,,,,,,,,0,,,46,42
158400,set_tempo,480,1,0,,,,,,,,,,,,1036986,,,,,,,
158400,note_on,120,0,1,,,,,,,,,,,,,,,0,,,61,0
158400,note_on,0,0,1,,,,,,,,,,,,,,,0,,,54,0
158400,note_on,0,0,1,,,,,,,,,,,,,,,0,,,58,0
158400,note_on,0,0,1,,,,,,,,,,,,,,,0,,,58,42
158400,note_on,0,0,1,,,,,,,,,,,,,,,0,,,53,42
158400,note_on,0,0,1,,,,,,,,,,,,,,,0,,,61,50
158513,control_change,113,0,2,,,,,,,,,,,,,,,0,64,127,,
158880,set_tempo,480,1,0,,,,,,,,,,,,1044386,,,,,,,
158880,note_on,480,0,1,,,,,,,,,,,,,,,0,,,61,0
158880,note_on,367,0,2,,,,,,,,,,,,,,,0,,,46,0
158880,note_on,0,0,1,,,,,,,,,,,,,,,0,,,58,0
158880,note_on,0,0,1,,,,,,,,,,,,,,,0,,,65,59
158880,note_on,0,0,1,,,,,,,,,,,,,,,0,,,53,0
158880,note_on,0,0,1,,,,,,,,,,,,,,,0,,,54,48
158880,note_on,0,0,2,,,,,,,,,,,,,,,0,,,41,0
158880,note_on,0,0,2,,,,,,,,,,,,,,,0,,,34,0
158880,note_on,0,0,1,,,,,,,,,,,,,,,0,,,61,52
158880,note_on,0,0,2,,,,,,,,,,,,,,,0,,,42,34
158880,note_on,0,0,2,,,,,,,,,,,,,,,0,,,37,27
158880,note_on,0,0,2,,,,,,,,,,,,,,,0,,,49,34
158905,control_change,25,0,2,,,,,,,,,,,,,,,0,64,0,,
158958,control_change,53,0,2,,,,,,,,,,,,,,,0,64,127,,
159120,set_tempo,240,1,0,,,,,,,,,,,,1124649,,,,,,,
159240,note_on,0,0,1,,,,,,,,,,,,,,,0,,,60,47
159240,note_on,0,0,1,,,,,,,,,,,,,,,0,,,63,53
159240,note_on,0,0,1,,,,,,,,,,,,,,,0,,,65,0
159240,note_on,360,0,1,,,,,,,,,,,,,,,0,,,61,0
159280,set_tempo,160,1,0,,,,,,,,,,,,1044386,,,,,,,
159300,note_on,60,0,1,,,,,,,,,,,,,,,0,,,60,0
159300,note_on,0,0,1,,,,,,,,,,,,,,,0,,,63,0
159300,note_on,0,0,1,,,,,,,,,,,,,,,0,,,65,48
159360,note_on,0,0,2,,,,,,,,,,,,,,,0,,,34,35
159360,note_on,0,0,2,,,,,,,,,,,,,,,0,,,42,0
159360,note_on,0,0,1,,,,,,,,,,,,,,,0,,,53,48
159360,note_on,0,0,1,,,,,,,,,,,,,,,0,,,60,51
159360,note_on,402,0,2,,,,,,,,,,,,,,,0,,,49,0
159360,note_on,0,0,1,,,,,,,,,,,,,,,0,,,54,0
159360,note_on,60,0,1,,,,,,,,,,,,,,,0,,,65,0
159360,note_on,0,0,1,,,,,,,,,,,,,,,0,,,63,57
159360,control_change,0,0,2,,,,,,,,,,,,,,,0,64,0,,
159360,note_on,0,0,2,,,,,,,,,,,,,,,0,,,46,42
159360,note_on,0,0,2,,,,,,,,,,,,,,,0,,,41,35
159360,note_on,0,0,2,,,,,,,,,,,,,,,0,,,37,0
159438,control_change,78,0,2,,,,,,,,,,,,,,,0,64,127,,
159720,note_on,0,0,1,,,,,,,,,,,,,,,0,,,63,0
159720,note_on,0,0,1,,,,,,,,,,,,,,,0,,,58,45
159720,note_on,0,0,1,,,,,,,,,,,,,,,0,,,61,50
159720,note_on,360,0,1,,,,,,,,,,,,,,,0,,,60,0
159840,note_on,0,0,1,,,,,,,,,,,,,,,0,,,58,48
159840,note_on,0,0,1,,,,,,,,,,,,,,,0,,,54,46
159840,note_on,0,0,1,,,,,,,,,,,,,,,0,,,61,55
159840,note_on,0,0,1,,,,,,,,,,,,,,,0,,,53,0
159840,note_on,0,0,1,,,,,,,,,,,,,,,0,,,61,0
159840,note_on,120,0,1,,,,,,,,,,,,,,,0,,,58,0
159840,note_on,402,0,2,,,,,,,,,,,,,,,0,,,46,0
159840,note_on,0,0,2,,,,,,,,,,,,,,,0,,,41,0
159840,note_on,0,0,2,,,,,,,,,,,,,,,0,,,49,37
159840,note_on,0,0,2,,,,,,,,,,,,,,,0,,,42,30
159840,note_on,0,0,2,,,,,,,,,,,,,,,0,,,37,30
159840,note_on,0,0,2,,,,,,,,,,,,,,,0,,,34,0
159840,set_tempo,560,1,0,,,,,,,,,,,,1059509,,,,,,,
159854,control_change,14,0,2,,,,,,,,,,,,,,,0,64,0,,
159946,control_change,92,0,2,,,,,,,,,,,,,,,0,64,127,,
160200,note_on,360,0,1,,,,,,,,,,,,,,,0,,,58,0
160200,note_on,0,0,1,,,,,,,,,,,,,,,0,,,61,0
160200,note_on,0,0,1,,,,,,,,,,,,,,,0,,,61,45
160200,note_on,0,0,1,,,,,,,,,,,,,,,0,,,58,39
160320,set_tempo,480,1,0,,,,,,,,,,,,1083032,,,,,,,
160320,note_on,0,0,1,,,,,,,,,,,,,,,0,,,53,42
160320,note_on,120,0,1,,,,,,,,,,,,,,,0,,,58,0
160320,note_on,0,0,1,,,,,,,,,,,,,,,0,,,61,0
160320,note_on,0,0,1,,,,,,,,,,,,,,,0,,,58,45
160320,note_on,0,0,1,,,,,,,,,,,,,,,0,,,61,50
160320,note_on,0,0,1,,,,,,,,,,,,,,,0,,,54,0
160320,note_on,0,0,2,,,,,,,,,,,,,,,0,,,42,0
160320,note_on,0,0,2,,,,,,,,,,,,,,,0,,,37,0
160320,note_on,0,0,2,,,,,,,,,,,,,,,0,,,34,35
160320,note_on,0,0,2,,,,,,,,,,,,,,,0,,,41,35
160320,note_on,0,0,2,,,,,,,,,,,,,,,0,,,46,42
160320,note_on,374,0,2,,,,,,,,,,,,,,,0,,,49,0
160362,control_change,42,0,2,,,,,,,,,,,,,,,0,64,0,,
160461,control_change,99,0,2,,,,,,,,,,,,,,,0,64,127,,
160800,note_on,339,0,2,,,,,,,,,,,,,,,0,,,46,0
160800,note_on,0,0,2,,,,,,,,,,,,,,,0,,,34,0
160800,note_on,0,0,2,,,,,,,,,,,,,,,0,,,37,27
160800,note_on,0,0,2,,,,,,,,,,,,,,,0,,,42,27
160800,note_on,0,0,2,,,,,,,,,,,,,,,0,,,49,34
160800,note_on,0,0,2,,,,,,,,,,,,,,,0,,,41,0
160800,note_on,480,0,1,,,,,,,,,,,,,,,0,,,53,0
160800,note_on,0,0,1,,,,,,,,,,,,,,,0,,,54,35
160842,control_change,42,0,2,,,,,,,,,,,,,,,0,64,0,,
160892,control_change,50,0,2,,,,,,,,,,,,,,,0,64,127,,
161280,note_on,0,0,1,,,,,,,,,,,,,,,0,,,58,58
161280,set_tempo,960,1,0,,,,,,,,,,,,960000,,,,,,,
161280,note_on,0,0,1,,,,,,,,,,,,,,,0,,,70,73
161280,note_on,0,0,1,,,,,,,,,,,,,,,0,,,61,58
161280,note_on,0,0,1,,,,,,,,,,,,,,,0,,,61,0
161280,note_on,0,0,1,,,,,,,,,,,,,,,0,,,58,0
161280,note_on,0,0,2,,,,,,,,,,,,,,,0,,,42,0
161280,note_on,0,0,2,,,,,,,,,,,,,,,0,,,46,52
161280,note_on,0,0,2,,,,,,,,,,,,,,,0,,,41,42
161280,note_on,0,0,2,,,,,,,,,,,,,,,0,,,34,42
161280,note_on,388,0,2,,,,,,,,,,,,,,,0,,,49,0
161280,note_on,0,0,2,,,,,,,,,,,,,,,0,,,37,0
161280,note_on,480,0,1,,,,,,,,,,,,,,,0,,,54,0
161284,control_change,4,0,2,,,,,,,,,,,,,,,0,64,0,,
161361,control_change,77,0,2,,,,,,,,,,,,,,,0,64,127,,
161520,set_tempo,240,1,0,,,,,,,,,,,,882353,,,,,,,
161520,note_on,0,0,1,,,,,,,,,,,,,,,0,,,68,67
161520,note_on,240,0,1,,,,,,,,,,,,,,,0,,,70,0
161700,note_on,0,0,1,,,,,,,,,,,,,,,0,,,61,0
161700,set_tempo,180,1,0,,,,,,,,,,,,1008403,,,,,,,
161700,note_on,180,0,1,,,,,,,,,,,,,,,0,,,68,0
161700,note_on,0,0,1,,,,,,,,,,,,,,,0,,,68,58
161700,note_on,0,0,1,,,,,,,,,,,,,,,0,,,58,0
161760,note_on,0,0,1,,,,,,,,,,,,,,,0,,,61,55
161760,note_on,0,0,1,,,,,,,,,,,,,,,0,,,66,61
161760,note_on,399,0,2,,,,,,,,,,,,,,,0,,,46,0
161760,set_tempo,60,1,0,,,,,,,,,,,,1059509,,,,,,,
161760,note_on,0,0,2,,,,,,,,,,,,,,,0,,,41,0
161760,note_on,0,0,2,,,,,,,,,,,,,,,0,,,34,0
161760,note_on,0,0,2,,,,,,,,,,,,,,,0,,,37,36
161760,note_on,0,0,2,,,,,,,,,,,,,,,0,,,49,44
161760,note_on,0,0,2,,,,,,,,,,,,,,,0,,,42,36
161760,note_on,60,0,1,,,,,,,,,,,,,,,0,,,68,0
161760,note_on,0,0,1,,,,,,,,,,,,,,,0,,,58,55
161780,set_tempo,20,1,0,,,,,,,,,,,,1016949,,,,,,,
161781,control_change,21,0,2,,,,,,,,,,,,,,,0,64,0,,
161838,control_change,57,0,2,,,,,,,,,,,,,,,0,64,127,,
162120,note_on,0,0,1,,,,,,,,,,,,,,,0,,,65,53
162120,note_on,360,0,1,,,,,,,,,,,,,,,0,,,66,0
162240,note_on,0,0,2,,,,,,,,,,,,,,,0,,,46,46
162240,note_on,0,0,2,,,,,,,,,,,,,,,0,,,34,38
162240,note_on,402,0,2,,,,,,,,,,,,,,,0,,,49,0
162240,note_on,0,0,2,,,,,,,,,,,,,,,0,,,42,0
162240,note_on,0,0,2,,,,,,,,,,,,,,,0,,,41,38
162240,note_on,0,0,2,,,,,,,,,,,,,,,0,,,37,0
162240,note_on,0,0,1,,,,,,,,,,,,,,,0,,,61,50
162240,note_on,0,0,1,,,,,,,,,,,,,,,0,,,58,0
162240,note_on,0,0,1,,,,,,,,,,,,,,,0,,,61,0
162240,note_on,0,0,1,,,,,,,,,,,,,,,0,,,58,50
162240,set_tempo,460,1,0,,,,,,,,,,,,1083032,,,,,,,
162240,note_on,0,0,1,,,,,,,,,,,,,,,0,,,65,59
162240,note_on,120,0,1,,,,,,,,,,,,,,,0,,,65,0
162265,control_change,25,0,2,,,,,,,,,,,,,,,0,64,0,,
162321,control_change,56,0,2,,,,,,,,,,,,,,,0,64,127,,
162720,note_on,0,0,1,,,,,,,,,,,,,,,0,,,61,51
162720,note_on,399,0,2,,,,,,,,,,,,,,,0,,,46,0
162720,note_on,0,0,2,,,,,,,,,,,,,,,0,,,41,0
162720,note_on,0,0,2,,,,,,,,,,,,,,,0,,,34,0
162720,note_on,0,0,2,,,,,,,,,,,,,,,0,,,37,27
162720,note_on,0,0,2,,,,,,,,,,,,,,,0,,,42,27
162720,note_on,0,0,2,,,,,,,,,,,,,,,0,,,49,35
162720,note_on,0,0,1,,,,,,,,,,,,,,,0,,,58,42
162720,note_on,0,0,1,,,,,,,,,,,,,,,0,,,58,0
162720,note_on,0,0,1,,,,,,,,,,,,,,,0,,,65,0
162720,note_on,480,0,1,,,,,,,,,,,,,,,0,,,61,0
162755,control_change,35,0,2,,,,,,,,,,,,,,,0,64,0,,
162784,control_change,29,0,2,,,,,,,,,,,,,,,0,64,127,,
163200,note_on,416,0,2,,,,,,,,,,,,,,,0,,,49,0
163200,note_on,0,0,1,,,,,,,,,,,,,,,0,,,70,73
163200,note_on,0,0,1,,,,,,,,,,,,,,,0,,,61,58
163200,note_on,0,0,1,,,,,,,,,,,,,,,0,,,58,0
163200,note_on,0,0,2,,,,,,,,,,,,,,,0,,,42,0
163200,note_on,0,0,1,,,,,,,,,,,,,,,0,,,58,58
163200,control_change,0,0,2,,,,,,,,,,,,,,,0,64,0,,
163200,note_on,0,0,2,,,,,,,,,,,,,,,0,,,46,52
163200,note_on,480,0,1,,,,,,,,,,,,,,,0,,,61,0
163200,note_on,0,0,2,,,,,,,,,,,,,,,0,,,34,42
163200,note_on,0,0,2,,,,,,,,,,,,,,,0,,,37,0
163200,note_on,0,0,2,,,,,,,,,,,,,,,0,,,41,42
163200,set_tempo,960,1,0,,,,,,,,,,,,952381,,,,,,,
163235,control_change,35,0,2,,,,,,,,,,,,,,,0,64,127,,
163440,note_on,240,0,1,,,,,,,,,,,,,,,0,,,70,0
163440,note_on,0,0,1,,,,,,,,,,,,,,,0,,,68,67
163440,set_tempo,240,1,0,,,,,,,,,,,,875912,,,,,,,
163620,note_on,0,0,1,,,,,,,,,,,,,,,0,,,58,0
163620,note_on,0,0,1,,,,,,,,,,,,,,,0,,,61,0
163620,set_tempo,180,1,0,,,,,,,,,,,,1008403,,,,,,,
163620,note_on,180,0,1,,,,,,,,,,,,,,,0,,,68,0
163620,note_on,0,0,1,,,,,,,,,,,,,,,0,,,68,58
163680,note_on,0,0,2,,,,,,,,,,,,,,,0,,,49,44
163680,note_on,0,0,2,,,,,,,,,,,,,,,0,,,42,36
163680,note_on,0,0,2,,,,,,,,,,,,,,,0,,,37,36
163680,note_on,0,0,2,,,,,,,,,,,,,,,0,,,34,0
163680,note_on,0,0,2,,,,,,,,,,,,,,,0,,,41,0
163680,note_on,445,0,2,,,,,,,,,,,,,,,0,,,46,0
163680,note_on,60,0,1,,,,,,,,,,,,,,,0,,,68,0
163680,note_on,0,0,1,,,,,,,,,,,,,,,0,,,61,55
163680,note_on,0,0,1,,,,,,,,,,,,,,,0,,,66,61
163680,note_on,0,0,1,,,,,,,,,,,,,,,0,,,58,55
163680,set_tempo,60,1,0,,,,,,,,,,,,1025641,,,,,,,
163705,control_change,25,0,2,,,,,,,,,,,,,,,0,64,0,,
163761,control_change,56,0,2,,,,,,,,,,,,,,,0,64,127,,
164040,note_on,360,0,1,,,,,,,,,,,,,,,0,,,66,0
164040,note_on,0,0,1,,,,,,,,,,,,,,,0,,,65,54
164160,note_on,0,0,2,,,,,,,,,,,,,,,0,,,42,0
164160,note_on,0,0,2,,,,,,,,,,,,,,,0,,,37,0
164160,note_on,0,0,2,,,,,,,,,,,,,,,0,,,34,38
164160,note_on,0,0,2,,,,,,,,,,,,,,,0,,,41,38
164160,note_on,0,0,2,,,,,,,,,,,,,,,0,,,46,46
164160,set_tempo,480,1,0,,,,,,,,,,,,1083032,,,,,,,
164160,note_on,120,0,1,,,,,,,,,,,,,,,0,,,65,0
164160,note_on,0,0,1,,,,,,,,,,,,,,,0,,,58,0
164160,note_on,0,0,1,,,,,,,,,,,,,,,0,,,61,0
164160,note_on,0,0,1,,,,,,,,,,,,,,,0,,,58,50
164160,note_on,0,0,1,,,,,,,,,,,,,,,0,,,61,50
164160,note_on,399,0,2,,,,,,,,,,,,,,,0,,,49,0
164160,note_on,0,0,1,,,,,,,,,,,,,,,0,,,65,59
164188,control_change,28,0,2,,,,,,,,,,,,,,,0,64,0,,
164220,control_change,32,0,2,,,,,,,,,,,,,,,0,64,127,,
164640,note_on,480,0,1,,,,,,,,,,,,,,,0,,,61,0
164640,note_on,0,0,1,,,,,,,,,,,,,,,0,,,65,0
164640,note_on,0,0,1,,,,,,,,,,,,,,,0,,,58,0
164640,note_on,0,0,1,,,,,,,,,,,,,,,0,,,58,42
164640,note_on,0,0,1,,,,,,,,,,,,,,,0,,,61,51
164640,note_on,420,0,2,,,,,,,,,,,,,,,0,,,46,0
164640,note_on,0,0,2,,,,,,,,,,,,,,,0,,,41,0
164640,note_on,0,0,2,,,,,,,,,,,,,,,0,,,34,0
164640,note_on,0,0,2,,,,,,,,,,,,,,,0,,,37,27
164640,note_on,0,0,2,,,,,,,,,,,,,,,0,,,42,27
164640,note_on,0,0,2,,,,,,,,,,,,,,,0,,,49,35
164644,control_change,4,0,2,,,,,,,,,,,,,,,0,64,0,,
164693,control_change,49,0,2,,,,,,,,,,,,,,,0,64,127,,
165120,note_on,0,0,1,,,,,,,,,,,,,,,0,,,58,46
165120,note_on,0,0,1,,,,,,,,,,,,,,,0,,,53,39
165120,note_on,0,0,2,,,,,,,,,,,,,,,0,,,42,0
165120,set_tempo,960,1,0,,,,,,,,,,,,1044386,,,,,,,
165120,note_on,0,0,2,,,,,,,,,,,,,,,0,,,34,32
165120,note_on,0,0,2,,,,,,,,,,,,,,,0,,,41,32
165120,note_on,0,0,2,,,,,,,,,,,,,,,0,,,46,39
165120,control_change,0,0,2,,,,,,,,,,,,,,,0,64,0,,
165120,note_on,0,0,1,,,,,,,,,,,,,,,0,,,58,0
165120,note_on,480,0,1,,,,,,,,,,,,,,,0,,,61,0
165120,note_on,427,0,2,,,,,,,,,,,,,,,0,,,49,0
165120,note_on,0,0,2,,,,,,,,,,,,,,,0,,,37,0
165184,control_change,64,0,2,,,,,,,,,,,,,,,0,64,127,,
165600,note_on,0,0,1,,,,,,,,,,,,,,,0,,,53,0
165600,note_on,0,0,1,,,,,,,,,,,,,,,0,,,58,46
165600,note_on,480,0,1,,,,,,,,,,,,,,,0,,,58,0
165600,note_on,0,0,1,,,,,,,,,,,,,,,0,,,54,39
165600,note_on,0,0,2,,,,,,,,,,,,,,,0,,,49,34
165600,note_on,0,0,2,,,,,,,,,,,,,,,0,,,42,34
165600,note_on,0,0,2,,,,,,,,,,,,,,,0,,,34,0
165600,note_on,0,0,2,,,,,,,,,,,,,,,0,,,41,0
165600,note_on,0,0,2,,,,,,,,,,,,,,,0,,,37,28
165600,set_tempo,480,1,0,,,,,,,,,,,,1075076,,,,,,,
165600,note_on,416,0,2,,,,,,,,,,,,,,,0,,,46,0
165614,control_change,14,0,2,,,,,,,,,,,,,,,0,64,0,,
165741,control_change,127,0,2,,,,,,,,,,,,,,,0,64,127,,
165960,note_on,360,0,1,,,,,,,,,,,,,,,0,,,58,0
165960,note_on,0,0,1,,,,,,,,,,,,,,,0,,,58,41
166080,note_on,0,0,2,,,,,,,,,,,,,,,0,,,34,32
166080,note_on,0,0,2,,,,,,,,,,,,,,,0,,,41,32
166080,note_on,0,0,2,,,,,,,,,,,,,,,0,,,46,39
166080,note_on,0,0,1,,,,,,,,,,,,,,,0,,,53,39
166080,note_on,120,0,1,,,,,,,,,,,,,,,0,,,58,0
166080,note_on,0,0,1,,,,,,,,,,,,,,,0,,,54,0
166080,note_on,0,0,2,,,,,,,,,,,,,,,0,,,37,0
166080,set_tempo,480,1,0,,,,,,,,,,,,1067236,,,,,,,
166080,note_on,0,0,1,,,,,,,,,,,,,,,0,,,58,46
166080,note_on,339,0,2,,,,,,,,,,,,,,,0,,,49,0
166080,note_on,0,0,2,,,,,,,,,,,,,,,0,,,42,0
166091,control_change,11,0,2,,,,,,,,,,,,,,,0,64,0,,
166214,control_change,123,0,2,,,,,,,,,,,,,,,0,64,127,,
166560,note_on,0,0,2,,,,,,,,,,,,,,,0,,,41,0
166560,note_on,0,0,2,,,,,,,,,,,,,,,0,,,34,0
166560,note_on,0,0,2,,,,,,,,,,,,,,,0,,,37,25
166560,note_on,0,0,2,,,,,,,,,,,,,,,0,,,42,31
166560,note_on,0,0,2,,,,,,,,,,,,,,,0,,,49,31
166560,note_on,0,0,1,,,,,,,,,,,,,,,0,,,53,0
166560,note_on,480,0,1,,,,,,,,,,,,,,,0,,,58,0
166560,set_tempo,480,1,0,,,,,,,,,,,,1044386,,,,,,,
166560,note_on,0,0,1,,,,,,,,,,,,,,,0,,,61,54
166560,note_on,0,0,1,,,,,,,,,,,,,,,0,,,54,44
166560,note_on,346,0,2,,,,,,,,,,,,,,,0,,,46,0
166567,control_change,7,0,2,,,,,,,,,,,,,,,0,64,0,,
166645,control_change,78,0,2,,,,,,,,,,,,,,,0,64,127,,
166920,note_on,360,0,1,,,,,,,,,,,,,,,0,,,61,0
166920,note_on,0,0,1,,,,,,,,,,,,,,,0,,,60,49
166980,note_on,60,0,1,,,,,,,,,,,,,,,0,,,60,0
166980,note_on,0,0,1,,,,,,,,,,,,,,,0,,,61,45
167040,note_on,0,0,1,,,,,,,,,,,,,,,0,,,60,52
167040,control_change,0,0,2,,,,,,,,,,,,,,,0,64,0,,
167040,note_on,0,0,2,,,,,,,,,,,,,,,0,,,46,39
167040,note_on,0,0,2,,,,,,,,,,,,,,,0,,,41,32
167040,note_on,0,0,2,,,,,,,,,,,,,,,0,,,34,32
167040,note_on,0,0,2,,,,,,,,,,,,,,,0,,,37,0
167040,note_on,0,0,2,,,,,,,,,,,,,,,0,,,42,0
167040,note_on,395,0,2,,,,,,,,,,,,,,,0,,,49,0
167040,note_on,0,0,1,,,,,,,,,,,,,,,0,,,54,0
167040,note_on,0,0,1,,,,,,,,,,,,,,,0,,,53,44
167040,note_on,60,0,1,,,,,,,,,,,,,,,0,,,61,0
167153,control_change,113,0,2,,,,,,,,,,,,,,,0,64,127,,
167400,note_on,0,0,1,,,,,,,,,,,,,,,0,,,58,46
167400,note_on,360,0,1,,,,,,,,,,,,,,,0,,,60,0
167520,set_tempo,960,1,0,,,,,,,,,,,,1059509,,,,,,,
167520,note_on,120,0,1,,,,,,,,,,,,,,,0,,,58,0
167520,note_on,0,0,1,,,,,,,,,,,,,,,0,,,58,50
167520,note_on,0,0,1,,,,,,,,,,,,,,,0,,,53,0
167520,note_on,0,0,1,,,,,,,,,,,,,,,0,,,54,42
167520,note_on,367,0,2,,,,,,,,,,,,,,,0,,,46,0
167520,note_on,0,0,2,,,,,,,,,,,,,,,0,,,41,0
167520,note_on,0,0,2,,,,,,,,,,,,,,,0,,,34,0
167520,note_on,0,0,2,,,,,,,,,,,,,,,0,,,37,28
167520,note_on,0,0,2,,,,,,,,,,,,,,,0,,,42,28
167520,note_on,0,0,2,,,,,,,,,,,,,,,0,,,49,34
167548,control_change,28,0,2,,,,,,,,,,,,,,,0,64,0,,
167704,control_change,156,0,2,,,,,,,,,,,,,,,0,64,127,,
167880,note_on,360,0,1,,,,,,,,,,,,,,,0,,,58,0
167880,note_on,0,0,1,,,,,,,,,,,,,,,0,,,58,41
168000,set_tempo,480,1,0,,,,,,,,,,,,1075076,,,,,,,
168000,note_on,120,0,1,,,,,,,,,,,,,,,0,,,58,0
168000,note_on,0,0,1,,,,,,,,,,,,,,,0,,,53,39
168000,note_on,0,0,1,,,,,,,,,,,,,,,0,,,58,46
168000,note_on,0,0,2,,,,,,,,,,,,,,,0,,,41,32
168000,note_on,0,0,2,,,,,,,,,,,,,,,0,,,34,32
168000,note_on,0,0,2,,,,,,,,,,,,,,,0,,,37,0
168000,note_on,0,0,2,,,,,,,,,,,,,,,0,,,42,0
168000,note_on,296,0,2,,,,,,,,,,,,,,,0,,,49,0
168000,note_on,0,0,1,,,,,,,,,,,,,,,0,,,54,0
168000,note_on,0,0,2,,,,,,,,,,,,,,,0,,,46,39
168035,control_change,35,0,2,,,,,,,,,,,,,,,0,64,0,,
168176,control_change,141,0,2,,,,,,,,,,,,,,,0,64,127,,
168480,note_on,0,0,2,,,,,,,,,,,,,,,0,,,41,0
168480,note_on,0,0,2,,,,,,,,,,,,,,,0,,,49,31
168480,note_on,0,0,2,,,,,,,,,,,,,,,0,,,42,25
168480,note_on,0,0,2,,,,,,,,,,,,,,,0,,,37,25
168480,note_on,0,0,2,,,,,,,,,,,,,,,0,,,34,0
168480,note_on,480,0,1,,,,,,,,,,,,,,,0,,,53,0
168480,note_on,304,0,2,,,,,,,,,,,,,,,0,,,46,0
168480,note_on,0,0,1,,,,,,,,,,,,,,,0,,,54,32
168544,control_change,64,0,2,,,,,,,,,,,,,,,0,64,0,,
168621,control_change,77,0,2,,,,,,,,,,,,,,,0,64,127,,
168960,note_on,0,0,1,,,,,,,,,,,,,,,0,,,70,68
168960,note_on,0,0,2,,,,,,,,,,,,,,,0,,,37,0
168960,note_on,0,0,2,,,,,,,,,,,,,,,0,,,34,47
168960,note_on,0,0,2,,,,,,,,,,,,,,,0,,,41,47
168960,note_on,0,0,2,,,,,,,,,,,,,,,0,,,46,57
168960,control_change,0,0,2,,,,,,,,,,,,,,,0,64,0,,
168960,note_on,0,0,1,,,,,,,,,,,,,,,0,,,82,83
168960,set_tempo,960,1,0,,,,,,,,,,,,952381,,,,,,,
168960,note_on,339,0,2,,,,,,,,,,,,,,,0,,,49,0
168960,note_on,0,0,2,,,,,,,,,,,,,,,0,,,42,0
168960,note_on,480,0,1,,,,,,,,,,,,,,,0,,,54,0
168960,note_on,0,0,1,,,,,,,,,,,,,,,0,,,58,0
168960,note_on,0,0,1,,,,,,,,,,,,,,,0,,,73,68
169024,control_change,64,0,2,,,,,,,,,,,,,,,0,64,127,,
169200,note_on,240,0,1,,,,,,,,,,,,,,,0,,,70,0
169200,note_on,0,0,1,,,,,,,,,,,,,,,0,,,82,0
169200,note_on,0,0,1,,,,,,,,,,,,,,,0,,,68,56
169200,note_on,0,0,1,,,,,,,,,,,,,,,0,,,80,73
169200,set_tempo,240,1,0,,,,,,,,,,,,882353,,,,,,,
169320,set_tempo,120,1,0,,,,,,,,,,,,923077,,,,,,,
169376,set_tempo,56,1,0,,,,,,,,,,,,1090909,,,,,,,
169380,note_on,0,0,1,,,,,,,,,,,,,,,0,,,68,64
169380,note_on,180,0,1,,,,,,,,,,,,,,,0,,,80,0
169380,note_on,0,0,1,,,,,,,,,,,,,,,0,,,68,0
169388,set_tempo,12,1,0,,,,,,,,,,,,1132075,,,,,,,
169396,set_tempo,8,1,0,,,,,,,,,,,,1188119,,,,,,,
169400,note_on,0,0,1,,,,,,,,,,,,,,,0,,,73,57
169400,note_on,20,0,1,,,,,,,,,,,,,,,0,,,68,0
169408,set_tempo,12,1,0,,,,,,,,,,,,1237113,,,,,,,
169416,set_tempo,8,1,0,,,,,,,,,,,,1304348,,,,,,,
169420,note_on,20,0,1,,,,,,,,,,,,,,,0,,,73,0
169420,note_on,0,0,1,,,,,,,,,,,,,,,0,,,80,59
169428,set_tempo,12,1,0,,,,,,,,,,,,1379310,,,,,,,
169432,set_tempo,4,1,0,,,,,,,,,,,,1008403,,,,,,,
169440,note_on,0,0,1,,,,,,,,,,,,,,,0,,,78,73
169440,set_tempo,8,1,0,,,,,,,,,,,,1016949,,,,,,,
169440,note_on,0,0,2,,,,,,,,,,,,,,,0,,,49,46
169440,note_on,0,0,2,,,,,,,,,,,,,,,0,,,42,37
169440,note_on,0,0,2,,,,,,,,,,,,,,,0,,,37,37
169440,note_on,0,0,2,,,,,,,,,,,,,,,0,,,41,0
169440,note_on,416,0,2,,,,,,,,,,,,,,,0,,,46,0
169440,note_on,0,0,2,,,,,,,,,,,,,,,0,,,34,0
169440,note_on,0,0,1,,,,,,,,,,,,,,,0,,,66,61
169440,note_on,0,0,1,,,,,,,,,,,,,,,0,,,73,74
169440,note_on,20,0,1,,,,,,,,,,,,,,,0,,,80,0
169458,control_change,18,0,2,,,,,,,,,,,,,,,0,64,0,,
169521,control_change,63,0,2,,,,,,,,,,,,,,,0,64,127,,
169800,set_tempo,360,1,0,,,,,,,,,,,,1052632,,,,,,,
169800,note_on,0,0,1,,,,,,,,,,,,,,,0,,,77,61
169800,note_on,0,0,1,,,,,,,,,,,,,,,0,,,65,52
169800,note_on,360,0,1,,,,,,,,,,,,,,,0,,,78,0
169920,note_on,0,0,2,,,,,,,,,,,,,,,0,,,46,48
169920,note_on,0,0,2,,,,,,,,,,,,,,,0,,,41,39
169920,note_on,0,0,2,,,,,,,,,,,,,,,0,,,34,39
169920,note_on,0,0,2,,,,,,,,,,,,,,,0,,,37,0
169920,note_on,0,0,2,,,,,,,,,,,,,,,0,,,42,0
169920,note_on,399,0,2,,,,,,,,,,,,,,,0,,,49,0
169920,note_on,0,0,1,,,,,,,,,,,,,,,0,,,73,69
169920,note_on,0,0,1,,,,,,,,,,,,,,,0,,,77,69
169920,set_tempo,120,1,0,,,,,,,,,,,,1052632,,,,,,,
169920,note_on,0,0,1,,,,,,,,,,,,,,,0,,,73,0
169920,note_on,0,0,1,,,,,,,,,,,,,,,0,,,65,58
169920,note_on,120,0,1,,,,,,,,,,,,,,,0,,,77,0
169920,note_on,0,0,1,,,,,,,,,,,,,,,0,,,73,0
169920,note_on,0,0,1,,,,,,,,,,,,,,,0,,,65,0
169920,note_on,0,0,1,,,,,,,,,,,,,,,0,,,66,0
169948,control_change,28,0,2,,,,,,,,,,,,,,,0,64,0,,
169987,control_change,39,0,2,,,,,,,,,,,,,,,0,64,127,,
170400,note_on,0,0,1,,,,,,,,,,,,,,,0,,,70,68
170400,note_on,0,0,1,,,,,,,,,,,,,,,0,,,73,68
170400,note_on,0,0,1,,,,,,,,,,,,,,,0,,,65,0
170400,note_on,0,0,1,,,,,,,,,,,,,,,0,,,77,0
170400,note_on,480,0,1,,,,,,,,,,,,,,,0,,,73,0
170400,note_on,0,0,2,,,,,,,,,,,,,,,0,,,49,38
170400,note_on,0,0,2,,,,,,,,,,,,,,,0,,,42,30
170400,note_on,0,0,2,,,,,,,,,,,,,,,0,,,37,30
170400,note_on,0,0,1,,,,,,,,,,,,,,,0,,,61,57
170400,note_on,0,0,2,,,,,,,,,,,,,,,0,,,41,0
170400,note_on,413,0,2,,,,,,,,,,,,,,,0,,,46,0
170400,note_on,0,0,2,,,,,,,,,,,,,,,0,,,34,0
170442,control_change,42,0,2,,,,,,,,,,,,,,,0,64,0,,
170488,control_change,46,0,2,,,,,,,,,,,,,,,0,64,127,,
170880,note_on,392,0,2,,,,,,,,,,,,,,,0,,,49,0
170880,note_on,0,0,2,,,,,,,,,,,,,,,0,,,41,47
170880,note_on,0,0,2,,,,,,,,,,,,,,,0,,,46,57
170880,set_tempo,960,1,0,,,,,,,,,,,,960000,,,,,,,
170880,note_on,0,0,2,,,,,,,,,,,,,,,0,,,34,47
170880,control_change,0,0,2,,,,,,,,,,,,,,,0,64,0,,
170880,note_on,0,0,2,,,,,,,,,,,,,,,0,,,37,0
170880,note_on,480,0,1,,,,,,,,,,,,,,,0,,,70,0
170880,note_on,0,0,1,,,,,,,,,,,,,,,0,,,61,0
170880,note_on,0,0,1,,,,,,,,,,,,,,,0,,,73,0
170880,note_on,0,0,1,,,,,,,,,,,,,,,0,,,73,68
170880,note_on,0,0,1,,,,,,,,,,,,,,,0,,,82,83
170880,note_on,0,0,1,,,,,,,,,,,,,,,0,,,70,68
170880,note_on,0,0,2,,,,,,,,,,,,,,,0,,,42,0
170947,control_change,67,0,2,,,,,,,,,,,,,,,0,64,127,,
171120,note_on,240,0,1,,,,,,,,,,,,,,,0,,,70,0
171120,note_on,0,0,1,,,,,,,,,,,,,,,0,,,80,73
171120,set_tempo,240,1,0,,,,,,,,,,,,888889,,,,,,,
171120,note_on,0,0,1,,,,,,,,,,,,,,,0,,,82,0
171120,note_on,0,0,1,,,,,,,,,,,,,,,0,,,68,56
171240,set_tempo,120,1,0,,,,,,,,,,,,923077,,,,,,,
171296,set_tempo,56,1,0,,,,,,,,,,,,1142857,,,,,,,
171300,note_on,180,0,1,,,,,,,,,,,,,,,0,,,80,0
171300,note_on,0,0,1,,,,,,,,,,,,,,,0,,,68,0
171300,note_on,0,0,1,,,,,,,,,,,,,,,0,,,68,66
171308,set_tempo,12,1,0,,,,,,,,,,,,1176471,,,,,,,
171316,set_tempo,8,1,0,,,,,,,,,,,,1224490,,,,,,,
171320,note_on,0,0,1,,,,,,,,,,,,,,,0,,,73,58
171320,note_on,20,0,1,,,,,,,,,,,,,,,0,,,68,0
171328,set_tempo,12,1,0,,,,,,,,,,,,1276596,,,,,,,
171336,set_tempo,8,1,0,,,,,,,,,,,,1333333,,,,,,,
171340,note_on,20,0,1,,,,,,,,,,,,,,,0,,,73,0
171340,note_on,0,0,1,,,,,,,,,,,,,,,0,,,80,58
171348,set_tempo,12,1,0,,,,,,,,,,,,1395349,,,,,,,
171352,set_tempo,4,1,0,,,,,,,,,,,,991736,,,,,,,
171360,note_on,413,0,2,,,,,,,,,,,,,,,0,,,46,0
171360,note_on,0,0,1,,,,,,,,,,,,,,,0,,,78,73
171360,note_on,0,0,1,,,,,,,,,,,,,,,0,,,73,76
171360,note_on,20,0,1,,,,,,,,,,,,,,,0,,,80,0
171360,note_on,0,0,2,,,,,,,,,,,,,,,0,,,41,0
171360,note_on,0,0,2,,,,,,,,,,,,,,,0,,,49,46
171360,note_on,0,0,2,,,,,,,,,,,,,,,0,,,42,37
171360,note_on,0,0,2,,,,,,,,,,,,,,,0,,,37,37
171360,note_on,0,0,2,,,,,,,,,,,,,,,0,,,34,0
171360,set_tempo,8,1,0,,,,,,,,,,,,1025641,,,,,,,
171360,note_on,0,0,1,,,,,,,,,,,,,,,0,,,66,63
171378,control_change,18,0,2,,,,,,,,,,,,,,,0,64,0,,
171420,control_change,42,0,2,,,,,,,,,,,,,,,0,64,127,,
171720,note_on,0,0,1,,,,,,,,,,,,,,,0,,,77,61
171720,set_tempo,360,1,0,,,,,,,,,,,,1052632,,,,,,,
171720,note_on,0,0,1,,,,,,,,,,,,,,,0,,,65,52
171720,note_on,360,0,1,,,,,,,,,,,,,,,0,,,78,0
171840,set_tempo,120,1,0,,,,,,,,,,,,1071429,,,,,,,
171840,note_on,0,0,1,,,,,,,,,,,,,,,0,,,65,58
171840,note_on,0,0,1,,,,,,,,,,,,,,,0,,,65,0
171840,note_on,0,0,1,,,,,,,,,,,,,,,0,,,66,0
171840,note_on,0,0,1,,,,,,,,,,,,,,,0,,,73,69
171840,note_on,0,0,1,,,,,,,,,,,,,,,0,,,73,0
171840,note_on,0,0,1,,,,,,,,,,,,,,,0,,,73,0
171840,note_on,0,0,1,,,,,,,,,,,,,,,0,,,77,69
171840,note_on,120,0,1,,,,,,,,,,,,,,,0,,,77,0
171840,note_on,0,0,2,,,,,,,,,,,,,,,0,,,42,0
171840,note_on,420,0,2,,,,,,,,,,,,,,,0,,,49,0
171840,note_on,0,0,2,,,,,,,,,,,,,,,0,,,37,0
171840,note_on,0,0,2,,,,,,,,,,,,,,,0,,,34,39
171840,note_on,0,0,2,,,,,,,,,,,,,,,0,,,41,39
171840,note_on,0,0,2,,,,,,,,,,,,,,,0,,,46,48
171847,control_change,7,0,2,,,,,,,,,,,,,,,0,64,0,,
171974,control_change,127,0,2,,,,,,,,,,,,,,,0,64,127,,
172320,note_on,0,0,1,,,,,,,,,,,,,,,0,,,70,68
172320,note_on,0,0,1,,,,,,,,,,,,,,,0,,,61,57
172320,note_on,0,0,1,,,,,,,,,,,,,,,0,,,73,68
172320,note_on,0,0,1,,,,,,,,,,,,,,,0,,,65,0
172320,note_on,0,0,1,,,,,,,,,,,,,,,0,,,77,0
172320,note_on,480,0,1,,,,,,,,,,,,,,,0,,,73,0
172320,note_on,346,0,2,,,,,,,,,,,,,,,0,,,46,0
172320,note_on,0,0,2,,,,,,,,,,,,,,,0,,,41,0
172320,note_on,0,0,2,,,,,,,,,,,,,,,0,,,34,0
172320,note_on,0,0,2,,,,,,,,,,,,,,,0,,,37,30
172320,note_on,0,0,2,,,,,,,,,,,,,,,0,,,42,30
172320,note_on,0,0,2,,,,,,,,,,,,,,,0,,,49,38
172324,control_change,4,0,2,,,,,,,,,,,,,,,0,64,0,,
172472,control_change,148,0,2,,,,,,,,,,,,,,,0,64,127,,
172800,set_tempo,960,1,0,,,,,,,,,,,,1044386,,,,,,,
172800,note_on,0,0,2,,,,,,,,,,,,,,,0,,,41,43
172800,note_on,0,0,1,,,,,,,,,,,,,,,0,,,73,0
172800,note_on,328,0,2,,,,,,,,,,,,,,,0,,,49,0
172800,note_on,0,0,2,,,,,,,,,,,,,,,0,,,42,0
172800,note_on,0,0,2,,,,,,,,,,,,,,,0,,,37,0
172800,note_on,0,0,2,,,,,,,,,,,,,,,0,,,34,43
172800,note_on,0,0,2,,,,,,,,,,,,,,,0,,,46,52
172800,note_on,480,0,1,,,,,,,,,,,,,,,0,,,70,0
172800,note_on,0,0,1,,,,,,,,,,,,,,,0,,,61,0
172800,note_on,0,0,1,,,,,,,,,,,,,,,0,,,58,52
172800,note_on,0,0,1,,,,,,,,,,,,,,,0,,,70,61
172800,note_on,0,0,1,,,,,,,,,,,,,,,0,,,65,52
172807,control_change,7,0,2,,,,,,,,,,,,,,,0,64,0,,
172948,control_change,141,0,2,,,,,,,,,,,,,,,0,64,127,,
173280,note_on,0,0,1,,,,,,,,,,,,,,,0,,,58,0
173280,note_on,0,0,2,,,,,,,,,,,,,,,0,,,49,46
173280,note_on,0,0,1,,,,,,,,,,,,,,,0,,,65,0
173280,note_on,0,0,2,,,,,,,,,,,,,,,0,,,42,46
173280,note_on,0,0,2,,,,,,,,,,,,,,,0,,,34,0
173280,note_on,0,0,2,,,,,,,,,,,,,,,0,,,37,37
173280,note_on,332,0,2,,,,,,,,,,,,,,,0,,,46,0
173280,note_on,480,0,1,,,,,,,,,,,,,,,0,,,70,0
173280,note_on,0,0,1,,,,,,,,,,,,,,,0,,,66,53
173280,note_on,0,0,1,,,,,,,,,,,,,,,0,,,70,63
173280,note_on,0,0,2,,,,,,,,,,,,,,,0,,,41,0
173280,note_on,0,0,1,,,,,,,,,,,,,,,0,,,58,53
173280,set_tempo,480,1,0,,,,,,,,,,,,1075076,,,,,,,
173351,control_change,71,0,2,,,,,,,,,,,,,,,0,64,0,,
173471,control_change,120,0,2,,,,,,,,,,,,,,,0,64,127,,
173640,note_on,0,0,1,,,,,,,,,,,,,,,0,,,70,57
173640,note_on,0,0,1,,,,,,,,,,,,,,,0,,,58,48
173640,note_on,0,0,1,,,,,,,,,,,,,,,0,,,58,0
173640,note_on,360,0,1,,,,,,,,,,,,,,,0,,,70,0
173760,note_on,0,0,2,,,,,,,,,,,,,,,0,,,42,0
173760,note_on,0,0,2,,,,,,,,,,,,,,,0,,,37,0
173760,note_on,0,0,2,,,,,,,,,,,,,,,0,,,34,45
173760,note_on,0,0,2,,,,,,,,,,,,,,,0,,,41,45
173760,note_on,0,0,1,,,,,,,,,,,,,,,0,,,66,0
173760,set_tempo,480,1,0,,,,,,,,,,,,1067236,,,,,,,
173760,note_on,289,0,2,,,,,,,,,,,,,,,0,,,49,0
173760,note_on,0,0,2,,,,,,,,,,,,,,,0,,,46,54
173760,note_on,0,0,1,,,,,,,,,,,,,,,0,,,58,0
173760,note_on,0,0,1,,,,,,,,,,,,,,,0,,,70,65
173760,note_on,0,0,1,,,,,,,,,,,,,,,0,,,65,54
173760,note_on,0,0,1,,,,,,,,,,,,,,,0,,,58,54
173760,note_on,120,0,1,,,,,,,,,,,,,,,0,,,70,0
173795,control_change,35,0,2,,,,,,,,,,,,,,,0,64,0,,
173901,control_change,106,0,2,,,,,,,,,,,,,,,0,64,127,,
174219,control_change,318,0,2,,,,,,,,,,,,,,,0,64,0,,
174240,note_on,0,0,1,,,,,,,,,,,,,,,0,,,66,66
174240,note_on,0,0,1,,,,,,,,,,,,,,,0,,,73,82
174240,note_on,0,0,1,,,,,,,,,,,,,,,0,,,61,68
174240,note_on,0,0,1,,,,,,,,,,,,,,,0,,,58,0
174240,note_on,0,0,1,,,,,,,,,,,,,,,0,,,65,0
174240,note_on,21,0,2,,,,,,,,,,,,,,,0,,,46,0
174240,note_on,0,0,2,,,,,,,,,,,,,,,0,,,41,0
174240,note_on,480,0,1,,,,,,,,,,,,,,,0,,,70,0
174240,note_on,0,0,2,,,,,,,,,,,,,,,0,,,37,36
174240,note_on,0,0,2,,,,,,,,,,,,,,,0,,,42,46
174240,note_on,0,0,2,,,,,,,,,,,,,,,0,,,49,46
174240,set_tempo,480,1,0,,,,,,,,,,,,1044386,,,,,,,
174240,note_on,0,0,2,,,,,,,,,,,,,,,0,,,34,0
174395,control_change,155,0,2,,,,,,,,,,,,,,,0,64,127,,
174600,note_on,0,0,1,,,,,,,,,,,,,,,0,,,72,71
174600,note_on,0,0,1,,,,,,,,,,,,,,,0,,,60,59
174600,note_on,0,0,1,,,,,,,,,,,,,,,0,,,61,0
174600,note_on,360,0,1,,,,,,,,,,,,,,,0,,,73,0
174720,note_on,0,0,1,,,,,,,,,,,,,,,0,,,66,0
174720,note_on,0,0,1,,,,,,,,,,,,,,,0,,,60,0
174720,note_on,0,0,2,,,,,,,,,,,,,,,0,,,41,49
174720,note_on,0,0,2,,,,,,,,,,,,,,,0,,,46,58
174720,note_on,0,0,2,,,,,,,,,,,,,,,0,,,34,49
174720,note_on,0,0,2,,,,,,,,,,,,,,,0,,,37,0
174720,note_on,0,0,2,,,,,,,,,,,,,,,0,,,42,0
174720,note_on,325,0,2,,,,,,,,,,,,,,,0,,,49,0
174720,note_on,0,0,1,,,,,,,,,,,,,,,0,,,60,68
174720,control_change,0,0,2,,,,,,,,,,,,,,,0,64,0,,
174720,note_on,0,0,1,,,,,,,,,,,,,,,0,,,72,79
174720,note_on,120,0,1,,,,,,,,,,,,,,,0,,,72,0
174720,note_on,0,0,1,,,,,,,,,,,,,,,0,,,65,68
174875,control_change,155,0,2,,,,,,,,,,,,,,,0,64,127,,
175080,note_on,360,0,1,,,,,,,,,,,,,,,0,,,72,0
175080,note_on,0,0,1,,,,,,,,,,,,,,,0,,,60,0
175080,note_on,0,0,1,,,,,,,,,,,,,,,0,,,58,59
175080,note_on,0,0,1,,,,,,,,,,,,,,,0,,,70,71
175200,note_on,0,0,2,,,,,,,,,,,,,,,0,,,34,0
175200,note_on,0,0,2,,,,,,,,,,,,,,,0,,,41,0
175200,note_on,325,0,2,,,,,,,,,,,,,,,0,,,46,0
175200,set_tempo,960,1,0,,,,,,,,,,,,1059509,,,,,,,
175200,note_on,0,0,2,,,,,,,,,,,,,,,0,,,49,51
175200,note_on,0,0,2,,,,,,,,,,,,,,,0,,,42,42
175200,note_on,0,0,1,,,,,,,,,,,,,,,0,,,70,77
175200,note_on,0,0,2,,,,,,,,,,,,,,,0,,,37,42
175200,note_on,120,0,1,,,,,,,,,,,,,,,0,,,70,0
175200,note_on,0,0,1,,,,,,,,,,,,,,,0,,,58,0
175200,note_on,0,0,1,,,,,,,,,,,,,,,0,,,65,0
175200,note_on,0,0,1,,,,,,,,,,,,,,,0,,,66,64
175200,note_on,0,0,1,,,,,,,,,,,,,,,0,,,58,64
175235,control_change,35,0,2,,,,,,,,,,,,,,,0,64,0,,
175341,control_change,106,0,2,,,,,,,,,,,,,,,0,64,127,,
175560,note_on,0,0,1,,,,,,,,,,,,,,,0,,,58,0
175560,note_on,0,0,1,,,,,,,,,,,,,,,0,,,58,60
175560,note_on,0,0,1,,,,,,,,,,,,,,,0,,,70,72
175560,note_on,360,0,1,,,,,,,,,,,,,,,0,,,70,0
175680,set_tempo,480,1,0,,,,,,,,,,,,1075076,,,,,,,
175680,note_on,0,0,2,,,,,,,,,,,,,,,0,,,46,64
175680,note_on,0,0,2,,,,,,,,,,,,,,,0,,,41,53
175680,note_on,0,0,2,,,,,,,,,,,,,,,0,,,34,53
175680,note_on,0,0,2,,,,,,,,,,,,,,,0,,,42,0
175680,note_on,339,0,2,,,,,,,,,,,,,,,0,,,49,0
175680,note_on,0,0,1,,,,,,,,,,,,,,,0,,,65,64
175680,note_on,0,0,1,,,,,,,,,,,,,,,0,,,58,63
175680,note_on,0,0,1,,,,,,,,,,,,,,,0,,,66,0
175680,note_on,0,0,1,,,,,,,,,,,,,,,0,,,58,0
175680,note_on,120,0,1,,,,,,,,,,,,,,,0,,,70,0
175680,note_on,0,0,2,,,,,,,,,,,,,,,0,,,37,0
175680,note_on,0,0,1,,,,,,,,,,,,,,,0,,,70,76
175687,control_change,7,0,2,,,,,,,,,,,,,,,0,64,0,,
175800,control_change,113,0,2,,,,,,,,,,,,,,,0,64,127,,
176160,note_on,360,0,2,,,,,,,,,,,,,,,0,,,46,0
176160,note_on,0,0,2,,,,,,,,,,,,,,,0,,,41,0
176160,note_on,0,0,2,,,,,,,,,,,,,,,0,,,34,0
176160,note_on,0,0,2,,,,,,,,,,,,,,,0,,,32,56
176160,note_on,0,0,2,,,,,,,,,,,,,,,0,,,44,71
176160,note_on,480,0,1,,,,,,,,,,,,,,,0,,,70,0
176160,note_on,0,0,1,,,,,,,,,,,,,,,0,,,65,0
176160,note_on,0,0,1,,,,,,,,,,,,,,,0,,,58,0
176160,note_on,0,0,1,,,,,,,,,,,,,,,0,,,68,75
176160,note_on,0,0,1,,,,,,,,,,,,,,,0,,,60,75
176160,note_on,0,0,1,,,,,,,,,,,,,,,0,,,72,95
176160,note_on,0,0,1,,,,,,,,,,,,,,,0,,,66,75
176209,control_change,49,0,2,,,,,,,,,,,,,,,0,64,0,,
176273,control_change,64,0,2,,,,,,,,,,,,,,,0,64,127,,
176640,note_on,0,0,2,,,,,,,,,,,,,,,0,,,25,59
176640,note_on,0,0,2,,,,,,,,,,,,,,,0,,,32,0
176640,note_on,0,0,1,,,,,,,,,,,,,,,0,,,73,100
176640,note_on,0,0,1,,,,,,,,,,,,,,,0,,,60,0
176640,note_on,0,0,1,,,,,,,,,,,,,,,0,,,61,78
176640,note_on,0,0,1,,,,,,,,,,,,,,,0,,,72,0
176640,note_on,0,0,2,,,,,,,,,,,,,,,0,,,37,74
176640,note_on,0,0,1,,,,,,,,,,,,,,,0,,,68,0
176640,note_on,480,0,1,,,,,,,,,,,,,,,0,,,66,0
176640,note_on,0,0,1,,,,,,,,,,,,,,,0,,,65,78
176640,control_change,0,0,2,,,,,,,,,,,,,,,0,64,0,,
176640,note_on,367,0,2,,,,,,,,,,,,,,,0,,,44,0
176907,control_change,267,0,2,,,,,,,,,,,,,,,0,64,127,,
177120,note_on,0,0,1,,,,,,,,,,,,,,,0,,,65,0
177120,note_on,0,0,1,,,,,,,,,,,,,,,0,,,77,89
177120,note_on,0,0,1,,,,,,,,,,,,,,,0,,,73,74
177120,note_on,0,0,1,,,,,,,,,,,,,,,0,,,65,74
177120,note_on,213,0,2,,,,,,,,,,,,,,,0,,,37,0
177120,note_on,0,0,2,,,,,,,,,,,,,,,0,,,25,0
177120,note_on,0,0,2,,,,,,,,,,,,,,,0,,,49,64
177120,note_on,0,0,2,,,,,,,,,,,,,,,0,,,56,64
177120,note_on,0,0,2,,,,,,,,,,,,,,,0,,,61,76
177120,note_on,480,0,1,,,,,,,,,,,,,,,0,,,73,0
177120,note_on,0,0,1,,,,,,,,,,,,,,,0,,,61,0
177169,control_change,49,0,2,,,,,,,,,,,,,,,0,64,0,,
177233,control_change,64,0,2,,,,,,,,,,,,,,,0,64,127,,
177480,note_on,0,0,1,,,,,,,,,,,,,,,0,,,78,89
177480,note_on,0,0,1,,,,,,,,,,,,,,,0,,,66,74
177480,note_on,0,0,1,,,,,,,,,,,,,,,0,,,65,0
177480,note_on,360,0,1,,,,,,,,,,,,,,,0,,,77,0
177480,note_on,247,0,2,,,,,,,,,,,,,,,0,,,61,0
177480,note_on,0,0,2,,,,,,,,,,,,,,,0,,,56,0
177480,note_on,0,0,2,,,,,,,,,,,,,,,0,,,49,0
177480,note_on,0,0,2,,,,,,,,,,,,,,,0,,,63,76
177480,note_on,0,0,1,,,,,,,,,,,,,,,0,,,73,0
177600,note_on,0,0,2,,,,,,,,,,,,,,,0,,,65,80
177600,note_on,0,0,2,,,,,,,,,,,,,,,0,,,56,68
177600,note_on,0,0,2,,,,,,,,,,,,,,,0,,,49,68
177600,note_on,120,0,2,,,,,,,,,,,,,,,0,,,63,0
177600,note_on,0,0,1,,,,,,,,,,,,,,,0,,,80,93
177600,note_on,0,0,1,,,,,,,,,,,,,,,0,,,73,78
177600,note_on,0,0,1,,,,,,,,,,,,,,,0,,,68,78
177600,note_on,0,0,1,,,,,,,,,,,,,,,0,,,66,0
177600,note_on,120,0,1,,,,,,,,,,,,,,,0,,,78,0
177649,control_change,49,0,2,,,,,,,,,,,,,,,0,64,0,,
177699,control_change,50,0,2,,,,,,,,,,,,,,,0,64,127,,
177960,note_on,0,0,1,,,,,,,,,,,,,,,0,,,68,0
177960,note_on,0,0,1,,,,,,,,,,,,,,,0,,,70,78
177960,note_on,0,0,1,,,,,,,,,,,,,,,0,,,82,93
177960,note_on,0,0,1,,,,,,,,,,,,,,,0,,,73,0
177960,note_on,360,0,1,,,,,,,,,,,,,,,0,,,80,0
177960,note_on,0,0,2,,,,,,,,,,,,,,,0,,,66,80
177960,note_on,0,0,2,,,,,,,,,,,,,,,0,,,49,0
177960,note_on,0,0,2,,,,,,,,,,,,,,,0,,,56,0
177960,note_on,261,0,2,,,,,,,,,,,,,,,0,,,65,0
178080,note_on,0,0,1,,,,,,,,,,,,,,,0,,,80,84
178080,note_on,120,0,1,,,,,,,,,,,,,,,0,,,82,0
178080,note_on,0,0,1,,,,,,,,,,,,,,,0,,,84,99
178080,note_on,120,0,2,,,,,,,,,,,,,,,0,,,66,0
178080,note_on,0,0,2,,,,,,,,,,,,,,,0,,,63,73
178080,set_tempo,2400,1,0,,,,,,,,,,,,1100917,,,,,,,
178080,note_on,0,0,2,,,,,,,,,,,,,,,0,,,56,73
178080,note_on,0,0,2,,,,,,,,,,,,,,,0,,,68,86
178080,note_on,0,0,1,,,,,,,,,,,,,,,0,,,72,84
178080,note_on,0,0,1,,,,,,,,,,,,,,,0,,,70,0
178129,control_change,49,0,2,,,,,,,,,,,,,,,0,64,0,,
178193,control_change,64,0,2,,,,,,,,,,,,,,,0,64,127,,
178440,note_on,0,0,1,,,,,,,,,,,,,,,0,,,80,0
178440,note_on,0,0,2,,,,,,,,,,,,,,,0,,,56,0
178440,note_on,0,0,2,,,,,,,,,,,,,,,0,,,65,85
178440,note_on,0,0,2,,,,,,,,,,,,,,,0,,,63,0
178440,note_on,360,0,1,,,,,,,,,,,,,,,0,,,84,0
178440,note_on,247,0,2,,,,,,,,,,,,,,,0,,,68,0
178440,note_on,0,0,1,,,,,,,,,,,,,,,0,,,72,0
178440,note_on,0,0,1,,,,,,,,,,,,,,,0,,,73,88
178440,note_on,0,0,1,,,,,,,,,,,,,,,0,,,85,102
178560,note_on,0,0,1,,,,,,,,,,,,,,,0,,,80,88
178560,note_on,0,0,1,,,,,,,,,,,,,,,0,,,84,88
178560,note_on,0,0,1,,,,,,,,,,,,,,,0,,,73,0
178560,set_tempo,480,1,0,,,,,,,,,,,,1071429,,,,,,,
178560,note_on,120,0,1,,,,,,,,,,,,,,,0,,,85,0
178560,note_on,0,0,1,,,,,,,,,,,,,,,0,,,89,103
178560,control_change,0,0,2,,,,,,,,,,,,,,,0,64,0,,
178560,note_on,0,0,1,,,,,,,,,,,,,,,0,,,77,88
178560,note_on,0,0,2,,,,,,,,,,,,,,,0,,,32,77
178560,note_on,0,0,2,,,,,,,,,,,,,,,0,,,44,92
178560,note_on,120,0,2,,,,,,,,,,,,,,,0,,,65,0
178669,control_change,109,0,2,,,,,,,,,,,,,,,0,64,127,,
179040,note_on,0,0,2,,,,,,,,,,,,,,,0,,,63,69
179040,note_on,0,0,2,,,,,,,,,,,,,,,0,,,32,0
179040,note_on,371,0,2,,,,,,,,,,,,,,,0,,,44,0
179040,note_on,0,0,2,,,,,,,,,,,,,,,0,,,66,69
179040,note_on,0,0,2,,,,,,,,,,,,,,,0,,,72,81
179400,note_on,360,0,2,,,,,,,,,,,,,,,0,,,72,0
179400,note_on,0,0,2,,,,,,,,,,,,,,,0,,,66,0
179400,note_on,0,0,2,,,,,,,,,,,,,,,0,,,63,0
179400,note_on,0,0,2,,,,,,,,,,,,,,,0,,,61,65
179400,note_on,0,0,2,,,,,,,,,,,,,,,0,,,66,65
179400,note_on,0,0,2,,,,,,,,,,,,,,,0,,,70,76
179520,note_on,0,0,1,,,,,,,,,,,,,,,0,,,75,79
179520,note_on,120,0,2,,,,,,,,,,,,,,,0,,,70,0
179520,note_on,0,0,2,,,,,,,,,,,,,,,0,,,66,0
179520,note_on,0,0,2,,,,,,,,,,,,,,,0,,,61,0
179520,note_on,0,0,1,,,,,,,,,,,,,,,0,,,87,95
179520,note_on,0,0,2,,,,,,,,,,,,,,,0,,,66,63
179520,note_on,0,0,2,,,,,,,,,,,,,,,0,,,70,75
179520,note_on,0,0,2,,,,,,,,,,,,,,,0,,,61,63
179520,note_on,0,0,1,,,,,,,,,,,,,,,0,,,77,0
179520,note_on,960,0,1,,,,,,,,,,,,,,,0,,,89,0
179629,control_change,109,0,2,,,,,,,,,,,,,,,0,64,0,,
179669,control_change,40,0,2,,,,,,,,,,,,,,,0,64,127,,
179880,note_on,0,0,2,,,,,,,,,,,,,,,0,,,61,0
179880,note_on,0,0,2,,,,,,,,,,,,,,,0,,,66,0
179880,note_on,211,0,2,,,,,,,,,,,,,,,0,,,70,0
179880,note_on,0,0,2,,,,,,,,,,,,,,,0,,,66,59
179880,note_on,0,0,2,,,,,,,,,,,,,,,0,,,68,71
179880,note_on,0,0,2,,,,,,,,,,,,,,,0,,,60,59
180000,note_on,0,0,2,,,,,,,,,,,,,,,0,,,66,57
180000,note_on,0,0,2,,,,,,,,,,,,,,,0,,,60,57
180000,note_on,0,0,2,,,,,,,,,,,,,,,0,,,60,0
180000,note_on,120,0,2,,,,,,,,,,,,,,,0,,,68,0
180000,note_on,0,0,2,,,,,,,,,,,,,,,0,,,66,0
180000,note_on,0,0,2,,,,,,,,,,,,,,,0,,,68,68
180046,control_change,46,0,2,,,,,,,,,,,,,,,0,64,0,,
180097,control_change,51,0,2,,,,,,,,,,,,,,,0,64,127,,
180240,note_on,720,0,1,,,,,,,,,,,,,,,0,,,87,0
180240,note_on,0,0,1,,,,,,,,,,,,,,,0,,,84,0
180240,note_on,0,0,1,,,,,,,,,,,,,,,0,,,80,0
180240,note_on,0,0,1,,,,,,,,,,,,,,,0,,,75,0
180360,note_on,0,0,2,,,,,,,,,,,,,,,0,,,57,66
180360,note_on,0,0,1,,,,,,,,,,,,,,,0,,,78,89
180360,note_on,120,0,1,,,,,,,,,,,,,,,0,,,66,75
180360,note_on,0,0,1,,,,,,,,,,,,,,,0,,,75,75
180360,set_tempo,1800,1,0,,,,,,,,,,,,1176471,,,,,,,
180360,note_on,0,0,1,,,,,,,,,,,,,,,0,,,72,75
180360,note_on,263,0,2,,,,,,,,,,,,,,,0,,,68,0
180360,note_on,0,0,2,,,,,,,,,,,,,,,0,,,66,0
180360,note_on,0,0,2,,,,,,,,,,,,,,,0,,,60,66
180360,note_on,0,0,2,,,,,,,,,,,,,,,0,,,60,0
180360,note_on,0,0,2,,,,,,,,,,,,,,,0,,,63,77
180480,note_on,0,0,1,,,,,,,,,,,,,,,0,,,66,0
180480,note_on,120,0,1,,,,,,,,,,,,,,,0,,,78,0
180480,set_tempo,120,1,0,,,,,,,,,,,,1071429,,,,,,,
180480,note_on,0,0,1,,,,,,,,,,,,,,,0,,,72,0
180480,note_on,0,0,1,,,,,,,,,,,,,,,0,,,75,0
180480,note_on,0,0,1,,,,,,,,,,,,,,,0,,,75,80
180480,note_on,0,0,1,,,,,,,,,,,,,,,0,,,65,80
180480,note_on,0,0,1,,,,,,,,,,,,,,,0,,,72,80
180480,note_on,0,0,1,,,,,,,,,,,,,,,0,,,77,102
180480,control_change,0,0,2,,,,,,,,,,,,,,,0,64,0,,
180480,note_on,0,0,2,,,,,,,,,,,,,,,0,,,46,78
180480,note_on,0,0,2,,,,,,,,,,,,,,,0,,,34,66
180480,note_on,0,0,2,,,,,,,,,,,,,,,0,,,57,0
180480,note_on,120,0,2,,,,,,,,,,,,,,,0,,,63,0
180480,note_on,0,0,2,,,,,,,,,,,,,,,0,,,60,0
180566,control_change,86,0,2,,,,,,,,,,,,,,,0,64,127,,
180960,note_on,394,0,2,,,,,,,,,,,,,,,0,,,46,0
180960,note_on,0,0,1,,,,,,,,,,,,,,,0,,,70,74
180960,note_on,0,0,1,,,,,,,,,,,,,,,0,,,65,74
180960,note_on,0,0,1,,,,,,,,,,,,,,,0,,,72,0
180960,note_on,0,0,1,,,,,,,,,,,,,,,0,,,73,74
180960,note_on,0,0,2,,,,,,,,,,,,,,,0,,,58,63
180960,note_on,0,0,2,,,,,,,,,,,,,,,0,,,34,0
180960,note_on,0,0,2,,,,,,,,,,,,,,,0,,,53,63
180960,note_on,0,0,1,,,,,,,,,,,,,,,0,,,77,89
180960,note_on,0,0,2,,,,,,,,,,,,,,,0,,,61,75
180960,note_on,0,0,1,,,,,,,,,,,,,,,0,,,65,0
180960,note_on,0,0,1,,,,,,,,,,,,,,,0,,,75,0
180960,note_on,480,0,1,,,,,,,,,,,,,,,0,,,77,0
180994,control_change,34,0,2,,,,,,,,,,,,,,,0,64,0,,
181051,control_change,57,0,2,,,,,,,,,,,,,,,0,64,127,,
181320,note_on,0,0,1,,,,,,,,,,,,,,,0,,,73,0
181320,note_on,0,0,1,,,,,,,,,,,,,,,0,,,65,0
181320,note_on,0,0,1,,,,,,,,,,,,,,,0,,,79,89
181320,note_on,360,0,1,,,,,,,,,,,,,,,0,,,77,0
181320,note_on,0,0,1,,,,,,,,,,,,,,,0,,,67,74
181320,note_on,0,0,1,,,,,,,,,,,,,,,0,,,70,0
181440,note_on,0,0,2,,,,,,,,,,,,,,,0,,,37,68
181440,note_on,0,0,1,,,,,,,,,,,,,,,0,,,77,78
181440,note_on,0,0,1,,,,,,,,,,,,,,,0,,,67,0
181440,note_on,0,0,1,,,,,,,,,,,,,,,0,,,69,78
181440,note_on,0,0,1,,,,,,,,,,,,,,,0,,,73,78
181440,note_on,0,0,1,,,,,,,,,,,,,,,0,,,81,93
181440,note_on,0,0,2,,,,,,,,,,,,,,,0,,,53,0
181440,note_on,0,0,2,,,,,,,,,,,,,,,0,,,49,80
181440,note_on,389,0,2,,,,,,,,,,,,,,,0,,,61,0
181440,note_on,0,0,2,,,,,,,,,,,,,,,0,,,58,0
181440,note_on,120,0,1,,,,,,,,,,,,,,,0,,,79,0
181503,control_change,63,0,2,,,,,,,,,,,,,,,0,64,0,,
181571,control_change,68,0,2,,,,,,,,,,,,,,,0,64,127,,
181800,note_on,0,0,1,,,,,,,,,,,,,,,0,,,82,93
181800,note_on,360,0,1,,,,,,,,,,,,,,,0,,,81,0
181800,note_on,0,0,1,,,,,,,,,,,,,,,0,,,70,78
181800,note_on,0,0,1,,,,,,,,,,,,,,,0,,,73,0
181800,note_on,0,0,1,,,,,,,,,,,,,,,0,,,69,0
181800,note_on,0,0,1,,,,,,,,,,,,,,,0,,,77,0
181920,note_on,0,0,2,,,,,,,,,,,,,,,0,,,61,64
181920,note_on,0,0,2,,,,,,,,,,,,,,,0,,,65,76
181920,note_on,0,0,2,,,,,,,,,,,,,,,0,,,37,0
181920,note_on,349,0,2,,,,,,,,,,,,,,,0,,,49,0
181920,note_on,0,0,2,,,,,,,,,,,,,,,0,,,58,64
181920,note_on,0,0,2,,,,,,,,,,,,,,,0,,,53,64
181920,note_on,120,0,1,,,,,,,,,,,,,,,0,,,82,0
181920,note_on,0,0,1,,,,,,,,,,,,,,,0,,,70,0
181920,note_on,0,0,1,,,,,,,,,,,,,,,0,,,84,99
181920,note_on,0,0,1,,,,,,,,,,,,,,,0,,,77,84
181920,set_tempo,1440,1,0,,,,,,,,,,,,1100917,,,,,,,
181920,note_on,0,0,1,,,,,,,,,,,,,,,0,,,72,84
181949,control_change,29,0,2,,,,,,,,,,,,,,,0,64,0,,
182000,control_change,51,0,2,,,,,,,,,,,,,,,0,64,127,,
182240,set_tempo,320,1,0,,,,,,,,,,,,1318681,,,,,,,
182280,note_on,0,0,1,,,,,,,,,,,,,,,0,,,85,102
182280,note_on,360,0,1,,,,,,,,,,,,,,,0,,,84,0
182280,note_on,0,0,1,,,,,,,,,,,,,,,0,,,77,0
182280,note_on,0,0,1,,,,,,,,,,,,,,,0,,,72,0
182280,note_on,0,0,1,,,,,,,,,,,,,,,0,,,73,88
182340,note_on,0,0,1,,,,,,,,,,,,,,,0,,,70,88
182340,set_tempo,100,1,0,,,,,,,,,,,,1518987,,,,,,,
182340,note_on,0,0,1,,,,,,,,,,,,,,,0,,,73,0
182340,note_on,60,0,1,,,,,,,,,,,,,,,0,,,85,0
182360,note_on,20,0,1,,,,,,,,,,,,,,,0,,,76,88
182380,note_on,20,0,1,,,,,,,,,,,,,,,0,,,79,88
182400,note_on,0,0,2,,,,,,,,,,,,,,,0,,,61,0
182400,note_on,0,0,2,,,,,,,,,,,,,,,0,,,41,92
182400,note_on,0,0,2,,,,,,,,,,,,,,,0,,,29,77
182400,note_on,400,0,2,,,,,,,,,,,,,,,0,,,53,0
182400,note_on,0,0,2,,,,,,,,,,,,,,,0,,,58,0
182400,control_change,0,0,2,,,,,,,,,,,,,,,0,64,0,,
182400,note_on,0,0,2,,,,,,,,,,,,,,,0,,,65,0
182400,note_on,20,0,1,,,,,,,,,,,,,,,0,,,85,103
182400,set_tempo,60,1,0,,,,,,,,,,,,1100917,,,,,,,
182527,control_change,127,0,2,,,,,,,,,,,,,,,0,64,127,,
182880,note_on,0,0,2,,,,,,,,,,,,,,,0,,,29,0
182880,note_on,0,0,2,,,,,,,,,,,,,,,0,,,53,69
182880,note_on,0,0,2,,,,,,,,,,,,,,,0,,,61,69
182880,note_on,0,0,2,,,,,,,,,,,,,,,0,,,67,81
182880,note_on,353,0,2,,,,,,,,,,,,,,,0,,,41,0
182880,note_on,0,0,2,,,,,,,,,,,,,,,0,,,58,69
183360,note_on,0,0,2,,,,,,,,,,,,,,,0,,,58,0
183360,note_on,0,0,2,,,,,,,,,,,,,,,0,,,61,0
183360,note_on,0,0,2,,,,,,,,,,,,,,,0,,,53,64
183360,note_on,0,0,2,,,,,,,,,,,,,,,0,,,57,64
183360,note_on,0,0,2,,,,,,,,,,,,,,,0,,,60,64
183360,note_on,0,0,2,,,,,,,,,,,,,,,0,,,69,75
183360,note_on,0,0,2,,,,,,,,,,,,,,,0,,,53,0
183360,note_on,480,0,2,,,,,,,,,,,,,,,0,,,67,0
183360,note_on,960,0,1,,,,,,,,,,,,,,,0,,,85,0
183360,note_on,0,0,1,,,,,,,,,,,,,,,0,,,76,0
183360,note_on,0,0,1,,,,,,,,,,,,,,,0,,,70,0
183360,note_on,0,0,1,,,,,,,,,,,,,,,0,,,79,0
183360,note_on,0,0,1,,,,,,,,,,,,,,,0,,,77,76
183360,note_on,0,0,1,,,,,,,,,,,,,,,0,,,84,90
183360,note_on,0,0,1,,,,,,,,,,,,,,,0,,,72,76
183431,control_change,71,0,2,,,,,,,,,,,,,,,0,64,0,,
183544,control_change,113,0,2,,,,,,,,,,,,,,,0,64,127,,
183840,note_on,0,0,1,,,,,,,,,,,,,,,0,,,77,0
183840,note_on,480,0,1,,,,,,,,,,,,,,,0,,,84,0
183840,set_tempo,1440,1,0,,,,,,,,,,,,1481481,,,,,,,
183840,note_on,0,0,2,,,,,,,,,,,,,,,0,,,53,87
183840,note_on,0,0,1,,,,,,,,,,,,,,,0,,,72,0
183840,note_on,296,0,2,,,,,,,,,,,,,,,0,,,69,0
183840,note_on,0,0,2,,,,,,,,,,,,,,,0,,,53,0
183840,note_on,0,0,2,,,,,,,,,,,,,,,0,,,57,0
183840,note_on,0,0,2,,,,,,,,,,,,,,,0,,,60,0
183911,control_change,71,0,2,,,,,,,,,,,,,,,0,64,0,,
184080,note_on,169,0,2,,,,,,,,,,,,,,,0,,,53,0
184080,set_tempo,240,1,0,,,,,,,,,,,,600000,,,,,,,
184080,note_on,0,0,2,,,,,,,,,,,,,,,0,,,43,61
184100,control_change,20,0,2,,,,,,,,,,,,,,,0,64,127,,
184100,set_tempo,20,1,0,,,,,,,,,,,,603015,,,,,,,
184120,set_tempo,20,1,0,,,,,,,,,,,,609137,,,,,,,
184140,set_tempo,20,1,0,,,,,,,,,,,,615385,,,,,,,
184160,set_tempo,20,1,0,,,,,,,,,,,,618557,,,,,,,
184160,note_on,60,0,2,,,,,,,,,,,,,,,0,,,43,0
184160,note_on,0,0,2,,,,,,,,,,,,,,,0,,,44,61
184180,set_tempo,20,1,0,,,,,,,,,,,,625000,,,,,,,
184200,set_tempo,20,1,0,,,,,,,,,,,,631579,,,,,,,
184220,set_tempo,20,1,0,,,,,,,,,,,,638298,,,,,,,
184240,note_on,80,0,2,,,,,,,,,,,,,,,0,,,44,0
184240,note_on,0,0,2,,,,,,,,,,,,,,,0,,,46,61
184240,set_tempo,20,1,0,,,,,,,,,,,,641711,,,,,,,
184260,set_tempo,20,1,0,,,,,,,,,,,,648649,,,,,,,
184280,set_tempo,20,1,0,,,,,,,,,,,,655738,,,,,,,
184300,set_tempo,20,1,0,,,,,,,,,,,,662983,,,,,,,
184320,note_on,0,0,2,,,,,,,,,,,,,,,0,,,44,61
184320,set_tempo,20,1,0,,,,,,,,,,,,1111111,,,,,,,
184320,note_on,480,0,1,,,,,,,,,,,,,,,0,,,56,68
184320,note_on,80,0,2,,,,,,,,,,,,,,,0,,,46,0
184320,note_on,0,0,1,,,,,,,,,,,,,,,0,,,54,68
184320,note_on,0,0,1,,,,,,,,,,,,,,,0,,,68,80
184320,note_on,0,0,1,,,,,,,,,,,,,,,0,,,65,68
184320,note_on,0,0,1,,,,,,,,,,,,,,,0,,,60,68
184329,control_change,9,0,2,,,,,,,,,,,,,,,0,64,0,,
184360,control_change,31,0,2,,,,,,,,,,,,,,,0,64,127,,
184365,note_on,5,0,2,,,,,,,,,,,,,,,0,,,44,0
184365,note_on,0,0,2,,,,,,,,,,,,,,,0,,,46,56
184400,set_tempo,80,1,0,,,,,,,,,,,,1100917,,,,,,,
184410,note_on,45,0,2,,,,,,,,,,,,,,,0,,,46,0
184410,note_on,0,0,2,,,,,,,,,,,,,,,0,,,44,64
184440,set_tempo,40,1,0,,,,,,,,,,,,1090909,,,,,,,
184455,note_on,45,0,2,,,,,,,,,,,,,,,0,,,44,0
184455,note_on,0,0,2,,,,,,,,,,,,,,,0,,,46,57
184480,set_tempo,40,1,0,,,,,,,,,,,,1081081,,,,,,,
184500,note_on,45,0,2,,,,,,,,,,,,,,,0,,,46,0
184500,note_on,0,0,2,,,,,,,,,,,,,,,0,,,44,66
184520,set_tempo,40,1,0,,,,,,,,,,,,1071429,,,,,,,
184545,note_on,45,0,2,,,,,,,,,,,,,,,0,,,44,0
184545,note_on,0,0,2,,,,,,,,,,,,,,,0,,,46,59
184560,set_tempo,40,1,0,,,,,,,,,,,,1061947,,,,,,,
184590,note_on,45,0,2,,,,,,,,,,,,,,,0,,,46,0
184590,note_on,0,0,2,,,,,,,,,,,,,,,0,,,44,68
184600,set_tempo,40,1,0,,,,,,,,,,,,1052632,,,,,,,
184635,note_on,0,0,2,,,,,,,,,,,,,,,0,,,46,61
184635,note_on,45,0,2,,,,,,,,,,,,,,,0,,,44,0
184640,set_tempo,40,1,0,,,,,,,,,,,,1043478,,,,,,,
184680,set_tempo,40,1,0,,,,,,,,,,,,1034483,,,,,,,
184680,note_on,0,0,2,,,,,,,,,,,,,,,0,,,44,70
184680,note_on,45,0,2,,,,,,,,,,,,,,,0,,,46,0
184720,set_tempo,40,1,0,,,,,,,,,,,,1025641,,,,,,,
184725,note_on,45,0,2,,,,,,,,,,,,,,,0,,,44,0
184725,note_on,0,0,2,,,,,,,,,,,,,,,0,,,46,65
184760,set_tempo,40,1,0,,,,,,,,,,,,1016949,,,,,,,
184770,note_on,0,0,2,,,,,,,,,,,,,,,0,,,44,73
184770,note_on,45,0,2,,,,,,,,,,,,,,,0,,,46,0
184780,control_change,10,0,2,,,,,,,,,,,,,,,0,64,0,,
184800,note_on,0,0,1,,,,,,,,,,,,,,,0,,,60,68
184800,note_on,0,0,1,,,,,,,,,,,,,,,0,,,63,68
184800,note_on,0,0,1,,,,,,,,,,,,,,,0,,,68,80
184800,note_on,0,0,1,,,,,,,,,,,,,,,0,,,54,68
184800,note_on,0,0,1,,,,,,,,,,,,,,,0,,,65,0
184800,note_on,0,0,1,,,,,,,,,,,,,,,0,,,54,0
184800,note_on,0,0,1,,,,,,,,,,,,,,,0,,,60,0
184800,note_on,480,0,1,,,,,,,,,,,,,,,0,,,68,0
184800,note_on,0,0,1,,,,,,,,,,,,,,,0,,,56,68
184800,set_tempo,40,1,0,,,,,,,,,,,,1008403,,,,,,,
184800,note_on,0,0,1,,,,,,,,,,,,,,,0,,,56,0
184809,control_change,29,0,2,,,,,,,,,,,,,,,0,64,127,,
184815,note_on,0,0,2,,,,,,,,,,,,,,,0,,,46,66
184815,note_on,6,0,2,,,,,,,,,,,,,,,0,,,44,0
184840,set_tempo,40,1,0,,,,,,,,,,,,1000000,,,,,,,
184860,note_on,45,0,2,,,,,,,,,,,,,,,0,,,46,0
184860,note_on,0,0,2,,,,,,,,,,,,,,,0,,,44,72
184905,note_on,45,0,2,,,,,,,,,,,,,,,0,,,44,0
184906,note_on,1,0,2,,,,,,,,,,,,,,,0,,,46,63
184920,set_tempo,80,1,0,,,,,,,,,,,,1008403,,,,,,,
184950,note_on,44,0,2,,,,,,,,,,,,,,,0,,,44,69
184951,note_on,1,0,2,,,,,,,,,,,,,,,0,,,46,0
184960,set_tempo,40,1,0,,,,,,,,,,,,1016949,,,,,,,
184995,note_on,44,0,2,,,,,,,,,,,,,,,0,,,44,0
184995,note_on,0,0,2,,,,,,,,,,,,,,,0,,,46,60
185000,set_tempo,40,1,0,,,,,,,,,,,,1025641,,,,,,,
185040,note_on,45,0,2,,,,,,,,,,,,,,,0,,,44,66
185040,set_tempo,40,1,0,,,,,,,,,,,,1034483,,,,,,,
185041,note_on,1,0,2,,,,,,,,,,,,,,,0,,,46,0
185080,set_tempo,40,1,0,,,,,,,,,,,,1043478,,,,,,,
185100,note_on,0,0,2,,,,,,,,,,,,,,,0,,,46,58
185100,note_on,59,0,2,,,,,,,,,,,,,,,0,,,44,0
185120,set_tempo,40,1,0,,,,,,,,,,,,1052632,,,,,,,
185160,set_tempo,40,1,0,,,,,,,,,,,,1061947,,,,,,,
185160,note_on,0,0,2,,,,,,,,,,,,,,,0,,,43,64
185160,note_on,60,0,2,,,,,,,,,,,,,,,0,,,46,0
185200,set_tempo,40,1,0,,,,,,,,,,,,1071429,,,,,,,
185220,note_on,0,0,2,,,,,,,,,,,,,,,0,,,44,55
185220,note_on,60,0,2,,,,,,,,,,,,,,,0,,,43,0
185240,set_tempo,40,1,0,,,,,,,,,,,,1081081,,,,,,,
185280,note_on,60,0,2,,,,,,,,,,,,,,,0,,,44,0
185280,note_on,0,0,2,,,,,,,,,,,,,,,0,,,49,68
185280,note_on,0,0,1,,,,,,,,,,,,,,,0,,,54,0
185280,note_on,0,0,1,,,,,,,,,,,,,,,0,,,61,68
185280,note_on,0,0,1,,,,,,,,,,,,,,,0,,,53,68
185280,note_on,0,0,1,,,,,,,,,,,,,,,0,,,63,0
185280,note_on,0,0,1,,,,,,,,,,,,,,,0,,,56,0
185280,note_on,0,0,1,,,,,,,,,,,,,,,0,,,60,0
185280,note_on,480,0,1,,,,,,,,,,,,,,,0,,,68,0
185280,note_on,0,0,1,,,,,,,,,,,,,,,0,,,68,80
185280,set_tempo,40,1,0,,,,,,,,,,,,1100917,,,,,,,
185286,control_change,6,0,2,,,,,,,,,,,,,,,0,64,0,,
185389,control_change,103,0,2,,,,,,,,,,,,,,,0,64,127,,
185760,note_on,480,0,1,,,,,,,,,,,,,,,0,,,68,0
185760,note_on,0,0,2,,,,,,,,,,,,,,,0,,,49,82
185760,note_on,371,0,2,,,,,,,,,,,,,,,0,,,49,0
185760,set_tempo,480,1,0,,,,,,,,,,,,1500000,,,,,,,
185760,note_on,0,0,1,,,,,,,,,,,,,,,0,,,53,0
185760,note_on,0,0,1,,,,,,,,,,,,,,,0,,,61,0
185777,control_change,17,0,2,,,,,,,,,,,,,,,0,64,0,,
186000,note_on,223,0,2,,,,,,,,,,,,,,,0,,,49,0
186000,note_on,0,0,2,,,,,,,,,,,,,,,0,,,40,61
186000,set_tempo,240,1,0,,,,,,,,,,,,609137,,,,,,,
186020,set_tempo,20,1,0,,,,,,,,,,,,612245,,,,,,,
186029,control_change,29,0,2,,,,,,,,,,,,,,,0,64,127,,
186040,set_tempo,20,1,0,,,,,,,,,,,,618557,,,,,,,
186060,set_tempo,20,1,0,,,,,,,,,,,,621762,,,,,,,
186080,set_tempo,20,1,0,,,,,,,,,,,,628272,,,,,,,
186080,note_on,51,0,2,,,,,,,,,,,,,,,0,,,40,0
186080,note_on,0,0,2,,,,,,,,,,,,,,,0,,,41,61
186100,set_tempo,20,1,0,,,,,,,,,,,,631579,,,,,,,
186120,set_tempo,20,1,0,,,,,,,,,,,,638298,,,,,,,
186140,set_tempo,20,1,0,,,,,,,,,,,,641711,,,,,,,
186160,set_tempo,20,1,0,,,,,,,,,,,,648649,,,,,,,
186160,note_on,0,0,2,,,,,,,,,,,,,,,0,,,43,61
186160,note_on,80,0,2,,,,,,,,,,,,,,,0,,,41,0
186180,set_tempo,20,1,0,,,,,,,,,,,,652174,,,,,,,
186200,set_tempo,20,1,0,,,,,,,,,,,,659341,,,,,,,
186220,set_tempo,20,1,0,,,,,,,,,,,,666667,,,,,,,
186240,note_on,80,0,2,,,,,,,,,,,,,,,0,,,43,0
186240,control_change,0,0,2,,,,,,,,,,,,,,,0,64,0,,
186240,note_on,0,0,2,,,,,,,,,,,,,,,0,,,41,61
186240,note_on,480,0,1,,,,,,,,,,,,,,,0,,,57,68
186240,note_on,0,0,1,,,,,,,,,,,,,,,0,,,51,68
186240,note_on,0,0,1,,,,,,,,,,,,,,,0,,,61,68
186240,note_on,0,0,1,,,,,,,,,,,,,,,0,,,65,80
186240,set_tempo,20,1,0,,,,,,,,,,,,1111111,,,,,,,
186263,control_change,23,0,2,,,,,,,,,,,,,,,0,64,127,,
186285,note_on,22,0,2,,,,,,,,,,,,,,,0,,,41,0
186285,note_on,0,0,2,,,,,,,,,,,,,,,0,,,42,56
186320,set_tempo,80,1,0,,,,,,,,,,,,1100917,,,,,,,
186330,note_on,0,0,2,,,,,,,,,,,,,,,0,,,41,64
186330,note_on,45,0,2,,,,,,,,,,,,,,,0,,,42,0
186360,set_tempo,40,1,0,,,,,,,,,,,,1090909,,,,,,,
186375,note_on,0,0,2,,,,,,,,,,,,,,,0,,,42,57
186375,note_on,45,0,2,,,,,,,,,,,,,,,0,,,41,0
186400,set_tempo,40,1,0,,,,,,,,,,,,1081081,,,,,,,
186420,note_on,45,0,2,,,,,,,,,,,,,,,0,,,42,0
186420,note_on,0,0,2,,,,,,,,,,,,,,,0,,,41,66
186440,set_tempo,40,1,0,,,,,,,,,,,,1071429,,,,,,,
186465,note_on,45,0,2,,,,,,,,,,,,,,,0,,,41,0
186465,note_on,0,0,2,,,,,,,,,,,,,,,0,,,42,59
186480,set_tempo,40,1,0,,,,,,,,,,,,1061947,,,,,,,
186510,note_on,0,0,2,,,,,,,,,,,,,,,0,,,41,68
186510,note_on,45,0,2,,,,,,,,,,,,,,,0,,,42,0
186520,set_tempo,40,1,0,,,,,,,,,,,,1052632,,,,,,,
186555,note_on,0,0,2,,,,,,,,,,,,,,,0,,,42,61
186555,note_on,45,0,2,,,,,,,,,,,,,,,0,,,41,0
186560,set_tempo,40,1,0,,,,,,,,,,,,1043478,,,,,,,
186600,note_on,45,0,2,,,,,,,,,,,,,,,0,,,42,0
186600,note_on,0,0,2,,,,,,,,,,,,,,,0,,,41,70
186600,set_tempo,40,1,0,,,,,,,,,,,,1034483,,,,,,,
186640,set_tempo,40,1,0,,,,,,,,,,,,1025641,,,,,,,
186645,note_on,45,0,2,,,,,,,,,,,,,,,0,,,41,0
186645,note_on,0,0,2,,,,,,,,,,,,,,,0,,,42,65
186680,set_tempo,40,1,0,,,,,,,,,,,,1016949,,,,,,,
186690,note_on,0,0,2,,,,,,,,,,,,,,,0,,,41,73
186690,note_on,45,0,2,,,,,,,,,,,,,,,0,,,42,0
186720,note_on,480,0,1,,,,,,,,,,,,,,,0,,,65,0
186720,note_on,0,0,1,,,,,,,,,,,,,,,0,,,51,0
186720,note_on,0,0,1,,,,,,,,,,,,,,,0,,,61,0
186720,note_on,0,0,1,,,,,,,,,,,,,,,0,,,51,68
186720,note_on,0,0,1,,,,,,,,,,,,,,,0,,,57,68
186720,note_on,0,0,1,,,,,,,,,,,,,,,0,,,60,68
186720,note_on,0,0,1,,,,,,,,,,,,,,,0,,,57,0
186720,set_tempo,40,1,0,,,,,,,,,,,,1008403,,,,,,,
186720,note_on,0,0,1,,,,,,,,,,,,,,,0,,,65,80
186735,note_on,45,0,2,,,,,,,,,,,,,,,0,,,41,0
186735,note_on,0,0,2,,,,,,,,,,,,,,,0,,,42,66
186740,control_change,5,0,2,,,,,,,,,,,,,,,0,64,0,,
186760,set_tempo,40,1,0,,,,,,,,,,,,1000000,,,,,,,
186766,control_change,26,0,2,,,,,,,,,,,,,,,0,64,127,,
186780,note_on,0,0,2,,,,,,,,,,,,,,,0,,,41,72
186780,note_on,14,0,2,,,,,,,,,,,,,,,0,,,42,0
186825,note_on,45,0,2,,,,,,,,,,,,,,,0,,,41,0
186826,note_on,1,0,2,,,,,,,,,,,,,,,0,,,42,63
186840,set_tempo,80,1,0,,,,,,,,,,,,1008403,,,,,,,
186870,note_on,44,0,2,,,,,,,,,,,,,,,0,,,41,69
186871,note_on,1,0,2,,,,,,,,,,,,,,,0,,,42,0
186880,set_tempo,40,1,0,,,,,,,,,,,,1016949,,,,,,,
186915,note_on,0,0,2,,,,,,,,,,,,,,,0,,,42,60
186915,note_on,44,0,2,,,,,,,,,,,,,,,0,,,41,0
186920,set_tempo,40,1,0,,,,,,,,,,,,1025641,,,,,,,
186960,set_tempo,40,1,0,,,,,,,,,,,,1034483,,,,,,,
186960,note_on,45,0,2,,,,,,,,,,,,,,,0,,,41,66
186961,note_on,1,0,2,,,,,,,,,,,,,,,0,,,42,0
187000,set_tempo,40,1,0,,,,,,,,,,,,1043478,,,,,,,
187020,note_on,0,0,2,,,,,,,,,,,,,,,0,,,42,58
187020,note_on,59,0,2,,,,,,,,,,,,,,,0,,,41,0
187040,set_tempo,40,1,0,,,,,,,,,,,,1052632,,,,,,,
187080,note_on,0,0,2,,,,,,,,,,,,,,,0,,,40,64
187080,note_on,60,0,2,,,,,,,,,,,,,,,0,,,42,0
187080,set_tempo,40,1,0,,,,,,,,,,,,1061947,,,,,,,
187120,set_tempo,40,1,0,,,,,,,,,,,,1071429,,,,,,,
187140,note_on,0,0,2,,,,,,,,,,,,,,,0,,,41,55
187140,note_on,60,0,2,,,,,,,,,,,,,,,0,,,40,0
187160,set_tempo,40,1,0,,,,,,,,,,,,1081081,,,,,,,
187200,note_on,0,0,1,,,,,,,,,,,,,,,0,,,51,0
187200,set_tempo,40,1,0,,,,,,,,,,,,1100917,,,,,,,
187200,note_on,0,0,1,,,,,,,,,,,,,,,0,,,57,0
187200,note_on,0,0,2,,,,,,,,,,,,,,,0,,,42,64
187200,note_on,480,0,1,,,,,,,,,,,,,,,0,,,65,0
187200,note_on,0,0,1,,,,,,,,,,,,,,,0,,,58,80
187200,note_on,0,0,1,,,,,,,,,,,,,,,0,,,49,68
187200,note_on,0,0,1,,,,,,,,,,,,,,,0,,,60,0
187200,note_on,60,0,2,,,,,,,,,,,,,,,0,,,41,0
187211,control_change,11,0,2,,,,,,,,,,,,,,,0,64,0,,
187303,control_change,92,0,2,,,,,,,,,,,,,,,0,64,127,,
187680,note_on,377,0,2,,,,,,,,,,,,,,,0,,,42,0
187680,note_on,0,0,2,,,,,,,,,,,,,,,0,,,41,49
187680,set_tempo,480,1,0,,,,,,,,,,,,1132075,,,,,,,
187920,note_on,240,0,2,,,,,,,,,,,,,,,0,,,41,0
187920,note_on,0,0,2,,,,,,,,,,,,,,,0,,,37,39
187920,set_tempo,240,1,0,,,,,,,,,,,,1176471,,,,,,,
188160,control_change,0,0,2,,,,,,,,,,,,,,,0,64,0,,
188160,control_change,0,0,2,,,,,,,,,,,,,,,0,64,0,,
188160,set_tempo,240,1,0,,,,,,,,,,,,1044386,,,,,,,
188160,note_on,960,0,1,,,,,,,,,,,,,,,0,,,58,0
188160,note_on,0,0,1,,,,,,,,,,,,,,,0,,,49,0
188160,note_on,0,0,1,,,,,,,,,,,,,,,0,,,46,39
188160,note_on,0,0,1,,,,,,,,,,,,,,,0,,,53,39
188160,note_on,0,0,1,,,,,,,,,,,,,,,0,,,58,46
188160,note_on,0,0,2,,,,,,,,,,,,,,,0,,,34,32
188160,note_on,0,0,2,,,,,,,,,,,,,,,0,,,41,32
188160,note_on,240,0,2,,,,,,,,,,,,,,,0,,,37,0
188160,note_on,0,0,2,,,,,,,,,,,,,,,0,,,46,39
188224,control_change,64,0,2,,,,,,,,,,,,,,,0,64,127,,
188640,note_on,416,0,2,,,,,,,,,,,,,,,0,,,46,0
188640,note_on,0,0,2,,,,,,,,,,,,,,,0,,,41,0
188640,note_on,0,0,2,,,,,,,,,,,,,,,0,,,34,0
188640,set_tempo,480,1,0,,,,,,,,,,,,1075076,,,,,,,
188640,note_on,0,0,2,,,,,,,,,,,,,,,0,,,42,34
188640,note_on,0,0,2,,,,,,,,,,,,,,,0,,,49,34
188640,note_on,0,0,1,,,,,,,,,,,,,,,0,,,58,46
188640,note_on,0,0,1,,,,,,,,,,,,,,,0,,,54,39
188640,note_on,0,0,1,,,,,,,,,,,,,,,0,,,46,0
188640,note_on,0,0,1,,,,,,,,,,,,,,,0,,,53,0
188640,note_on,480,0,1,,,,,,,,,,,,,,,0,,,58,0
188640,note_on,0,0,2,,,,,,,,,,,,,,,0,,,37,28
188654,control_change,14,0,2,,,,,,,,,,,,,,,0,64,0,,
188781,control_change,127,0,2,,,,,,,,,,,,,,,0,64,127,,
189000,note_on,360,0,1,,,,,,,,,,,,,,,0,,,58,0
189000,note_on,0,0,1,,,,,,,,,,,,,,,0,,,58,41
189120,note_on,0,0,2,,,,,,,,,,,,,,,0,,,37,0
189120,note_on,0,0,2,,,,,,,,,,,,,,,0,,,46,39
189120,note_on,0,0,2,,,,,,,,,,,,,,,0,,,41,32
189120,note_on,0,0,2,,,,,,,,,,,,,,,0,,,34,32
189120,set_tempo,480,1,0,,,,,,,,,,,,1067236,,,,,,,
189120,note_on,339,0,2,,,,,,,,,,,,,,,0,,,49,0
189120,note_on,0,0,2,,,,,,,,,,,,,,,0,,,42,0
189120,note_on,0,0,1,,,,,,,,,,,,,,,0,,,54,0
189120,note_on,0,0,1,,,,,,,,,,,,,,,0,,,53,39
189120,note_on,0,0,1,,,,,,,,,,,,,,,0,,,58,46
189120,note_on,120,0,1,,,,,,,,,,,,,,,0,,,58,0
189131,control_change,11,0,2,,,,,,,,,,,,,,,0,64,0,,
189254,control_change,123,0,2,,,,,,,,,,,,,,,0,64,127,,
189600,set_tempo,480,1,0,,,,,,,,,,,,1044386,,,,,,,
189600,note_on,0,0,1,,,,,,,,,,,,,,,0,,,61,54
189600,note_on,480,0,1,,,,,,,,,,,,,,,0,,,58,0
189600,note_on,0,0,1,,,,,,,,,,,,,,,0,,,53,0
189600,note_on,346,0,2,,,,,,,,,,,,,,,0,,,46,0
189600,note_on,0,0,2,,,,,,,,,,,,,,,0,,,41,0
189600,note_on,0,0,2,,,,,,,,,,,,,,,0,,,34,0
189600,note_on,0,0,2,,,,,,,,,,,,,,,0,,,37,25
189600,note_on,0,0,2,,,,,,,,,,,,,,,0,,,49,31
189600,note_on,0,0,2,,,,,,,,,,,,,,,0,,,42,31
189600,note_on,0,0,1,,,,,,,,,,,,,,,0,,,54,44
189607,control_change,7,0,2,,,,,,,,,,,,,,,0,64,0,,
189685,control_change,78,0,2,,,,,,,,,,,,,,,0,64,127,,
189960,note_on,360,0,1,,,,,,,,,,,,,,,0,,,61,0
189960,note_on,0,0,1,,,,,,,,,,,,,,,0,,,60,49
190020,note_on,60,0,1,,,,,,,,,,,,,,,0,,,60,0
190020,note_on,0,0,1,,,,,,,,,,,,,,,0,,,61,45
190080,note_on,0,0,1,,,,,,,,,,,,,,,0,,,53,44
190080,note_on,0,0,1,,,,,,,,,,,,,,,0,,,60,52
190080,note_on,0,0,1,,,,,,,,,,,,,,,0,,,54,0
190080,note_on,0,0,2,,,,,,,,,,,,,,,0,,,42,0
190080,note_on,395,0,2,,,,,,,,,,,,,,,0,,,49,0
190080,note_on,0,0,2,,,,,,,,,,,,,,,0,,,37,0
190080,control_change,0,0,2,,,,,,,,,,,,,,,0,64,0,,
190080,note_on,0,0,2,,,,,,,,,,,,,,,0,,,46,39
190080,note_on,0,0,2,,,,,,,,,,,,,,,0,,,41,32
190080,note_on,0,0,2,,,,,,,,,,,,,,,0,,,34,32
190080,note_on,60,0,1,,,,,,,,,,,,,,,0,,,61,0
190193,control_change,113,0,2,,,,,,,,,,,,,,,0,64,127,,
190440,note_on,360,0,1,,,,,,,,,,,,,,,0,,,60,0
190440,note_on,0,0,1,,,,,,,,,,,,,,,0,,,58,46
190560,note_on,120,0,1,,,,,,,,,,,,,,,0,,,58,0
190560,note_on,0,0,1,,,,,,,,,,,,,,,0,,,53,0
190560,note_on,0,0,1,,,,,,,,,,,,,,,0,,,54,42
190560,note_on,0,0,1,,,,,,,,,,,,,,,0,,,58,50
190560,note_on,367,0,2,,,,,,,,,,,,,,,0,,,46,0
190560,note_on,0,0,2,,,,,,,,,,,,,,,0,,,41,0
190560,note_on,0,0,2,,,,,,,,,,,,,,,0,,,34,0
190560,note_on,0,0,2,,,,,,,,,,,,,,,0,,,37,28
190560,note_on,0,0,2,,,,,,,,,,,,,,,0,,,42,28
190560,note_on,0,0,2,,,,,,,,,,,,,,,0,,,49,34
190560,set_tempo,960,1,0,,,,,,,,,,,,1059509,,,,,,,
190588,control_change,28,0,2,,,,,,,,,,,,,,,0,64,0,,
190744,control_change,156,0,2,,,,,,,,,,,,,,,0,64,127,,
190920,note_on,0,0,1,,,,,,,,,,,,,,,0,,,58,41
190920,note_on,360,0,1,,,,,,,,,,,,,,,0,,,58,0
191040,note_on,0,0,1,,,,,,,,,,,,,,,0,,,53,39
191040,note_on,0,0,1,,,,,,,,,,,,,,,0,,,54,0
191040,note_on,120,0,1,,,,,,,,,,,,,,,0,,,58,0
191040,note_on,0,0,2,,,,,,,,,,,,,,,0,,,42,0
191040,note_on,0,0,2,,,,,,,,,,,,,,,0,,,41,32
191040,note_on,0,0,2,,,,,,,,,,,,,,,0,,,34,32
191040,note_on,296,0,2,,,,,,,,,,,,,,,0,,,49,0
191040,note_on,0,0,2,,,,,,,,,,,,,,,0,,,46,39
191040,note_on,0,0,1,,,,,,,,,,,,,,,0,,,58,46
191040,note_on,0,0,2,,,,,,,,,,,,,,,0,,,37,0
191040,set_tempo,480,1,0,,,,,,,,,,,,1075076,,,,,,,
191075,control_change,35,0,2,,,,,,,,,,,,,,,0,64,0,,
191216,control_change,141,0,2,,,,,,,,,,,,,,,0,64,127,,
191520,note_on,480,0,1,,,,,,,,,,,,,,,0,,,58,0
191520,note_on,0,0,1,,,,,,,,,,,,,,,0,,,61,97
191520,note_on,0,0,1,,,,,,,,,,,,,,,0,,,52,76
191520,note_on,304,0,2,,,,,,,,,,,,,,,0,,,46,0
191520,note_on,0,0,2,,,,,,,,,,,,,,,0,,,41,0
191520,note_on,0,0,2,,,,,,,,,,,,,,,0,,,34,0
191520,note_on,0,0,2,,,,,,,,,,,,,,,0,,,33,57
191520,note_on,0,0,1,,,,,,,,,,,,,,,0,,,53,0
191520,note_on,0,0,2,,,,,,,,,,,,,,,0,,,45,73
191520,note_on,0,0,1,,,,,,,,,,,,,,,0,,,55,76
191569,control_change,49,0,2,,,,,,,,,,,,,,,0,64,0,,
191584,control_change,15,0,2,,,,,,,,,,,,,,,0,64,0,,
191633,control_change,49,0,2,,,,,,,,,,,,,,,0,64,127,,
191880,note_on,247,0,2,,,,,,,,,,,,,,,0,,,45,0
191880,note_on,0,0,2,,,,,,,,,,,,,,,0,,,33,0
191880,note_on,0,0,2,,,,,,,,,,,,,,,0,,,32,57
191880,note_on,0,0,2,,,,,,,,,,,,,,,0,,,44,73
191880,note_on,0,0,1,,,,,,,,,,,,,,,0,,,54,76
191880,note_on,0,0,1,,,,,,,,,,,,,,,0,,,55,0
191880,note_on,0,0,1,,,,,,,,,,,,,,,0,,,61,0
191880,note_on,360,0,1,,,,,,,,,,,,,,,0,,,52,0
191880,note_on,0,0,1,,,,,,,,,,,,,,,0,,,60,76
191880,note_on,0,0,1,,,,,,,,,,,,,,,0,,,63,97
192000,note_on,120,0,1,,,,,,,,,,,,,,,0,,,63,0
192000,control_change,0,0,2,,,,,,,,,,,,,,,0,64,0,,
192000,note_on,0,0,1,,,,,,,,,,,,,,,0,,,61,79
192000,note_on,0,0,1,,,,,,,,,,,,,,,0,,,65,101
192000,note_on,0,0,1,,,,,,,,,,,,,,,0,,,60,0
192000,note_on,120,0,2,,,,,,,,,,,,,,,0,,,44,0
192000,note_on,0,0,2,,,,,,,,,,,,,,,0,,,32,0
192000,note_on,0,0,2,,,,,,,,,,,,,,,0,,,25,60
192000,note_on,0,0,2,,,,,,,,,,,,,,,0,,,37,76
192000,note_on,0,0,1,,,,,,,,,,,,,,,0,,,53,79
192000,note_on,0,0,1,,,,,,,,,,,,,,,0,,,54,0
192078,control_change,78,0,2,,,,,,,,,,,,,,,0,64,127,,
192480,note_on,0,0,1,,,,,,,,,,,,,,,0,,,73,74
192480,note_on,0,0,1,,,,,,,,,,,,,,,0,,,65,74
192480,note_on,0,0,1,,,,,,,,,,,,,,,0,,,53,0
192480,note_on,0,0,1,,,,,,,,,,,,,,,0,,,61,0
192480,note_on,0,0,2,,,,,,,,,,,,,,,0,,,25,0
192480,note_on,0,0,1,,,,,,,,,,,,,,,0,,,77,89
192480,note_on,0,0,2,,,,,,,,,,,,,,,0,,,61,77
192480,note_on,0,0,2,,,,,,,,,,,,,,,0,,,56,64
192480,note_on,480,0,1,,,,,,,,,,,,,,,0,,,65,0
192480,note_on,402,0,2,,,,,,,,,,,,,,,0,,,37,0
192480,note_on,0,0,2,,,,,,,,,,,,,,,0,,,49,64
192529,control_change,49,0,2,,,,,,,,,,,,,,,0,64,0,,
192593,control_change,64,0,2,,,,,,,,,,,,,,,0,64,127,,
192840,note_on,360,0,1,,,,,,,,,,,,,,,0,,,77,0
192840,note_on,0,0,1,,,,,,,,,,,,,,,0,,,73,0
192840,note_on,0,0,1,,,,,,,,,,,,,,,0,,,66,74
192840,note_on,0,0,1,,,,,,,,,,,,,,,0,,,65,0
192840,note_on,0,0,1,,,,,,,,,,,,,,,0,,,78,89
192840,note_on,247,0,2,,,,,,,,,,,,,,,0,,,61,0
192840,note_on,0,0,2,,,,,,,,,,,,,,,0,,,63,77
192840,note_on,0,0,2,,,,,,,,,,,,,,,0,,,49,0
192840,note_on,0,0,2,,,,,,,,,,,,,,,0,,,56,0
192960,note_on,120,0,2,,,,,,,,,,,,,,,0,,,63,0
192960,note_on,0,0,1,,,,,,,,,,,,,,,0,,,80,93
192960,note_on,0,0,1,,,,,,,,,,,,,,,0,,,73,79
192960,note_on,0,0,1,,,,,,,,,,,,,,,0,,,68,79
192960,note_on,0,0,1,,,,,,,,,,,,,,,0,,,66,0
192960,note_on,120,0,1,,,,,,,,,,,,,,,0,,,78,0
192960,note_on,0,0,2,,,,,,,,,,,,,,,0,,,56,68
192960,note_on,0,0,2,,,,,,,,,,,,,,,0,,,49,68
192960,note_on,0,0,2,,,,,,,,,,,,,,,0,,,65,81
192981,control_change,21,0,2,,,,,,,,,,,,,,,0,64,0,,
193059,control_change,78,0,2,,,,,,,,,,,,,,,0,64,127,,
193320,note_on,0,0,1,,,,,,,,,,,,,,,0,,,82,93
193320,note_on,0,0,1,,,,,,,,,,,,,,,0,,,70,79
193320,note_on,0,0,1,,,,,,,,,,,,,,,0,,,68,0
193320,note_on,0,0,1,,,,,,,,,,,,,,,0,,,73,0
193320,note_on,0,0,2,,,,,,,,,,,,,,,0,,,56,0
193320,note_on,261,0,2,,,,,,,,,,,,,,,0,,,65,0
193320,note_on,0,0,2,,,,,,,,,,,,,,,0,,,66,81
193320,note_on,0,0,2,,,,,,,,,,,,,,,0,,,49,0
193320,note_on,360,0,1,,,,,,,,,,,,,,,0,,,80,0
193440,note_on,120,0,1,,,,,,,,,,,,,,,0,,,82,0
193440,note_on,0,0,2,,,,,,,,,,,,,,,0,,,68,86
193440,note_on,0,0,1,,,,,,,,,,,,,,,0,,,70,0
193440,note_on,0,0,1,,,,,,,,,,,,,,,0,,,72,84
193440,note_on,0,0,1,,,,,,,,,,,,,,,0,,,84,100
193440,set_tempo,2400,1,0,,,,,,,,,,,,1100917,,,,,,,
193440,note_on,120,0,2,,,,,,,,,,,,,,,0,,,66,0
193440,note_on,0,0,2,,,,,,,,,,,,,,,0,,,63,73
193440,note_on,0,0,1,,,,,,,,,,,,,,,0,,,80,84
193440,note_on,0,0,2,,,,,,,,,,,,,,,0,,,56,73
193489,control_change,49,0,2,,,,,,,,,,,,,,,0,64,0,,
193553,control_change,64,0,2,,,,,,,,,,,,,,,0,64,127,,
193800,note_on,0,0,1,,,,,,,,,,,,,,,0,,,85,103
193800,note_on,247,0,2,,,,,,,,,,,,,,,0,,,68,0
193800,note_on,0,0,2,,,,,,,,,,,,,,,0,,,56,0
193800,note_on,0,0,2,,,,,,,,,,,,,,,0,,,63,0
193800,note_on,0,0,2,,,,,,,,,,,,,,,0,,,65,85
193800,note_on,0,0,1,,,,,,,,,,,,,,,0,,,72,0
193800,note_on,0,0,1,,,,,,,,,,,,,,,0,,,80,0
193800,note_on,360,0,1,,,,,,,,,,,,,,,0,,,84,0
193800,note_on,0,0,1,,,,,,,,,,,,,,,0,,,73,88
193920,note_on,0,0,1,,,,,,,,,,,,,,,0,,,80,88
193920,note_on,0,0,1,,,,,,,,,,,,,,,0,,,73,0
193920,note_on,120,0,1,,,,,,,,,,,,,,,0,,,85,0
193920,note_on,0,0,1,,,,,,,,,,,,,,,0,,,77,88
193920,note_on,0,0,1,,,,,,,,,,,,,,,0,,,89,104
193920,note_on,0,0,1,,,,,,,,,,,,,,,0,,,84,88
193920,note_on,0,0,2,,,,,,,,,,,,,,,0,,,32,78
193920,set_tempo,480,1,0,,,,,,,,,,,,1071429,,,,,,,
193920,note_on,120,0,2,,,,,,,,,,,,,,,0,,,65,0
193920,control_change,0,0,2,,,,,,,,,,,,,,,0,64,0,,
193920,note_on,0,0,2,,,,,,,,,,,,,,,0,,,44,92
194029,control_change,109,0,2,,,,,,,,,,,,,,,0,64,127,,
194400,note_on,0,0,2,,,,,,,,,,,,,,,0,,,63,69
194400,note_on,371,0,2,,,,,,,,,,,,,,,0,,,44,0
194400,note_on,0,0,2,,,,,,,,,,,,,,,0,,,32,0
194400,note_on,0,0,2,,,,,,,,,,,,,,,0,,,66,69
194400,note_on,0,0,2,,,,,,,,,,,,,,,0,,,72,81
194760,note_on,0,0,2,,,,,,,,,,,,,,,0,,,70,76
194760,note_on,0,0,2,,,,,,,,,,,,,,,0,,,66,64
194760,note_on,0,0,2,,,,,,,,,,,,,,,0,,,61,64
194760,note_on,0,0,2,,,,,,,,,,,,,,,0,,,63,0
194760,note_on,0,0,2,,,,,,,,,,,,,,,0,,,66,0
194760,note_on,360,0,2,,,,,,,,,,,,,,,0,,,72,0
194880,note_on,0,0,1,,,,,,,,,,,,,,,0,,,77,0
194880,note_on,0,0,1,,,,,,,,,,,,,,,0,,,75,79
194880,note_on,0,0,2,,,,,,,,,,,,,,,0,,,70,75
194880,note_on,0,0,2,,,,,,,,,,,,,,,0,,,61,63
194880,note_on,120,0,2,,,,,,,,,,,,,,,0,,,70,0
194880,note_on,0,0,2,,,,,,,,,,,,,,,0,,,61,0
194880,note_on,0,0,2,,,,,,,,,,,,,,,0,,,66,0
194880,note_on,960,0,1,,,,,,,,,,,,,,,0,,,89,0
194880,note_on,0,0,2,,,,,,,,,,,,,,,0,,,66,63
194880,note_on,0,0,1,,,,,,,,,,,,,,,0,,,87,95
194989,control_change,109,0,2,,,,,,,,,,,,,,,0,64,0,,
195029,control_change,40,0,2,,,,,,,,,,,,,,,0,64,127,,
195240,note_on,211,0,2,,,,,,,,,,,,,,,0,,,70,0
195240,note_on,0,0,2,,,,,,,,,,,,,,,0,,,66,59
195240,note_on,0,0,2,,,,,,,,,,,,,,,0,,,66,0
195240,note_on,0,0,2,,,,,,,,,,,,,,,0,,,61,0
195240,note_on,0,0,2,,,,,,,,,,,,,,,0,,,60,59
195240,note_on,0,0,2,,,,,,,,,,,,,,,0,,,68,70
195360,note_on,120,0,2,,,,,,,,,,,,,,,0,,,68,0
195360,note_on,0,0,2,,,,,,,,,,,,,,,0,,,66,58
195360,note_on,0,0,2,,,,,,,,,,,,,,,0,,,60,58
195360,note_on,0,0,2,,,,,,,,,,,,,,,0,,,60,0
195360,note_on,0,0,2,,,,,,,,,,,,,,,0,,,66,0
195360,note_on,0,0,2,,,,,,,,,,,,,,,0,,,68,68
195406,control_change,46,0,2,,,,,,,,,,,,,,,0,64,0,,
195457,control_change,51,0,2,,,,,,,,,,,,,,,0,64,127,,
195600,note_on,0,0,1,,,,,,,,,,,,,,,0,,,84,0
195600,note_on,0,0,1,,,,,,,,,,,,,,,0,,,75,0
195600,note_on,720,0,1,,,,,,,,,,,,,,,0,,,87,0
195600,note_on,0,0,1,,,,,,,,,,,,,,,0,,,80,0
195720,set_tempo,1800,1,0,,,,,,,,,,,,1176471,,,,,,,
195720,note_on,120,0,1,,,,,,,,,,,,,,,0,,,66,72
195720,note_on,0,0,1,,,,,,,,,,,,,,,0,,,75,72
195720,note_on,0,0,1,,,,,,,,,,,,,,,0,,,72,72
195720,note_on,263,0,2,,,,,,,,,,,,,,,0,,,68,0
195720,note_on,0,0,2,,,,,,,,,,,,,,,0,,,63,74
195720,note_on,0,0,2,,,,,,,,,,,,,,,0,,,60,63
195720,note_on,0,0,2,,,,,,,,,,,,,,,0,,,57,63
195720,note_on,0,0,2,,,,,,,,,,,,,,,0,,,66,0
195720,note_on,0,0,2,,,,,,,,,,,,,,,0,,,60,0
195720,note_on,0,0,1,,,,,,,,,,,,,,,0,,,78,85
195840,note_on,0,0,1,,,,,,,,,,,,,,,0,,,65,77
195840,note_on,0,0,2,,,,,,,,,,,,,,,0,,,34,63
195840,note_on,0,0,2,,,,,,,,,,,,,,,0,,,46,75
195840,control_change,0,0,2,,,,,,,,,,,,,,,0,64,0,,
195840,note_on,0,0,2,,,,,,,,,,,,,,,0,,,60,0
195840,note_on,120,0,2,,,,,,,,,,,,,,,0,,,63,0
195840,note_on,0,0,1,,,,,,,,,,,,,,,0,,,75,77
195840,note_on,0,0,1,,,,,,,,,,,,,,,0,,,66,0
195840,note_on,0,0,1,,,,,,,,,,,,,,,0,,,72,0
195840,set_tempo,120,1,0,,,,,,,,,,,,1071429,,,,,,,
195840,note_on,120,0,1,,,,,,,,,,,,,,,0,,,78,0
195840,note_on,0,0,2,,,,,,,,,,,,,,,0,,,57,0
195840,note_on,0,0,1,,,,,,,,,,,,,,,0,,,72,77
195840,note_on,0,0,1,,,,,,,,,,,,,,,0,,,77,98
195840,note_on,0,0,1,,,,,,,,,,,,,,,0,,,75,0
195926,control_change,86,0,2,,,,,,,,,,,,,,,0,64,127,,
196320,note_on,480,0,1,,,,,,,,,,,,,,,0,,,77,0
196320,note_on,394,0,2,,,,,,,,,,,,,,,0,,,46,0
196320,note_on,0,0,2,,,,,,,,,,,,,,,0,,,34,0
196320,note_on,0,0,2,,,,,,,,,,,,,,,0,,,53,63
196320,note_on,0,0,2,,,,,,,,,,,,,,,0,,,58,63
196320,note_on,0,0,1,,,,,,,,,,,,,,,0,,,77,89
196320,note_on,0,0,1,,,,,,,,,,,,,,,0,,,75,0
196320,note_on,0,0,1,,,,,,,,,,,,,,,0,,,65,0
196320,note_on,0,0,1,,,,,,,,,,,,,,,0,,,72,0
196320,note_on,0,0,1,,,,,,,,,,,,,,,0,,,70,74
196320,note_on,0,0,1,,,,,,,,,,,,,,,0,,,65,74
196320,note_on,0,0,1,,,,,,,,,,,,,,,0,,,73,74
196320,note_on,0,0,2,,,,,,,,,,,,,,,0,,,61,75
196354,control_change,34,0,2,,,,,,,,,,,,,,,0,64,0,,
196411,control_change,57,0,2,,,,,,,,,,,,,,,0,64,127,,
196680,note_on,0,0,1,,,,,,,,,,,,,,,0,,,67,74
196680,note_on,0,0,1,,,,,,,,,,,,,,,0,,,79,89
196680,note_on,0,0,1,,,,,,,,,,,,,,,0,,,73,0
196680,note_on,0,0,1,,,,,,,,,,,,,,,0,,,65,0
196680,note_on,0,0,1,,,,,,,,,,,,,,,0,,,70,0
196680,note_on,360,0,1,,,,,,,,,,,,,,,0,,,77,0
196800,note_on,0,0,2,,,,,,,,,,,,,,,0,,,58,0
196800,note_on,389,0,2,,,,,,,,,,,,,,,0,,,61,0
196800,note_on,0,0,2,,,,,,,,,,,,,,,0,,,49,80
196800,note_on,0,0,2,,,,,,,,,,,,,,,0,,,53,0
196800,note_on,0,0,2,,,,,,,,,,,,,,,0,,,37,68
196800,note_on,120,0,1,,,,,,,,,,,,,,,0,,,79,0
196800,note_on,0,0,1,,,,,,,,,,,,,,,0,,,67,0
196800,note_on,0,0,1,,,,,,,,,,,,,,,0,,,77,78
196800,note_on,0,0,1,,,,,,,,,,,,,,,0,,,69,78
196800,note_on,0,0,1,,,,,,,,,,,,,,,0,,,73,78
196800,note_on,0,0,1,,,,,,,,,,,,,,,0,,,81,93
196863,control_change,63,0,2,,,,,,,,,,,,,,,0,64,0,,
196931,control_change,68,0,2,,,,,,,,,,,,,,,0,64,127,,
197160,note_on,0,0,1,,,,,,,,,,,,,,,0,,,77,0
197160,note_on,360,0,1,,,,,,,,,,,,,,,0,,,81,0
197160,note_on,0,0,1,,,,,,,,,,,,,,,0,,,82,93
197160,note_on,0,0,1,,,,,,,,,,,,,,,0,,,69,0
197160,note_on,0,0,1,,,,,,,,,,,,,,,0,,,73,0
197160,note_on,0,0,1,,,,,,,,,,,,,,,0,,,70,78
197280,note_on,349,0,2,,,,,,,,,,,,,,,0,,,49,0
197280,note_on,0,0,2,,,,,,,,,,,,,,,0,,,58,64
197280,note_on,120,0,1,,,,,,,,,,,,,,,0,,,82,0
197280,note_on,0,0,1,,,,,,,,,,,,,,,0,,,70,0
197280,note_on,0,0,2,,,,,,,,,,,,,,,0,,,37,0
197280,note_on,0,0,1,,,,,,,,,,,,,,,0,,,77,84
197280,note_on,0,0,2,,,,,,,,,,,,,,,0,,,65,76
197280,note_on,0,0,2,,,,,,,,,,,,,,,0,,,61,64
197280,note_on,0,0,1,,,,,,,,,,,,,,,0,,,84,99
197280,note_on,0,0,1,,,,,,,,,,,,,,,0,,,72,84
197280,note_on,0,0,2,,,,,,,,,,,,,,,0,,,53,64
197280,set_tempo,1440,1,0,,,,,,,,,,,,1100917,,,,,,,
197309,control_change,29,0,2,,,,,,,,,,,,,,,0,64,0,,
197360,control_change,51,0,2,,,,,,,,,,,,,,,0,64,127,,
197600,set_tempo,320,1,0,,,,,,,,,,,,1318681,,,,,,,
197640,note_on,0,0,1,,,,,,,,,,,,,,,0,,,72,0
197640,note_on,0,0,1,,,,,,,,,,,,,,,0,,,85,102
197640,note_on,0,0,1,,,,,,,,,,,,,,,0,,,73,88
197640,note_on,0,0,1,,,,,,,,,,,,,,,0,,,77,0
197640,note_on,360,0,1,,,,,,,,,,,,,,,0,,,84,0
197700,note_on,0,0,1,,,,,,,,,,,,,,,0,,,70,88
197700,note_on,0,0,1,,,,,,,,,,,,,,,0,,,73,0
197700,note_on,60,0,1,,,,,,,,,,,,,,,0,,,85,0
197700,set_tempo,100,1,0,,,,,,,,,,,,1518987,,,,,,,
197720,note_on,20,0,1,,,,,,,,,,,,,,,0,,,76,88
197740,note_on,20,0,1,,,,,,,,,,,,,,,0,,,79,88
197760,note_on,400,0,2,,,,,,,,,,,,,,,0,,,53,0
197760,note_on,0,0,2,,,,,,,,,,,,,,,0,,,65,0
197760,note_on,0,0,2,,,,,,,,,,,,,,,0,,,61,0
197760,note_on,0,0,2,,,,,,,,,,,,,,,0,,,58,0
197760,note_on,0,0,2,,,,,,,,,,,,,,,0,,,29,77
197760,note_on,0,0,2,,,,,,,,,,,,,,,0,,,41,92
197760,control_change,0,0,2,,,,,,,,,,,,,,,0,64,0,,
197760,note_on,20,0,1,,,,,,,,,,,,,,,0,,,85,103
197760,set_tempo,60,1,0,,,,,,,,,,,,1100917,,,,,,,
197887,control_change,127,0,2,,,,,,,,,,,,,,,0,64,127,,
198240,note_on,0,0,2,,,,,,,,,,,,,,,0,,,29,0
198240,note_on,0,0,2,,,,,,,,,,,,,,,0,,,53,69
198240,note_on,0,0,2,,,,,,,,,,,,,,,0,,,58,69
198240,note_on,0,0,2,,,,,,,,,,,,,,,0,,,61,69
198240,note_on,353,0,2,,,,,,,,,,,,,,,0,,,41,0
198240,note_on,0,0,2,,,,,,,,,,,,,,,0,,,67,81
198720,note_on,480,0,2,,,,,,,,,,,,,,,0,,,67,0
198720,note_on,0,0,1,,,,,,,,,,,,,,,0,,,77,76
198720,note_on,0,0,1,,,,,,,,,,,,,,,0,,,72,76
198720,note_on,0,0,1,,,,,,,,,,,,,,,0,,,79,0
198720,note_on,0,0,1,,,,,,,,,,,,,,,0,,,76,0
198720,note_on,0,0,2,,,,,,,,,,,,,,,0,,,58,0
198720,note_on,0,0,1,,,,,,,,,,,,,,,0,,,70,0
198720,note_on,960,0,1,,,,,,,,,,,,,,,0,,,85,0
198720,note_on,0,0,2,,,,,,,,,,,,,,,0,,,61,0
198720,note_on,0,0,1,,,,,,,,,,,,,,,0,,,84,90
198720,note_on,0,0,2,,,,,,,,,,,,,,,0,,,53,64
198720,note_on,0,0,2,,,,,,,,,,,,,,,0,,,60,64
198720,note_on,0,0,2,,,,,,,,,,,,,,,0,,,69,75
198720,note_on,0,0,2,,,,,,,,,,,,,,,0,,,57,64
198720,note_on,0,0,2,,,,,,,,,,,,,,,0,,,53,0
198791,control_change,71,0,2,,,,,,,,,,,,,,,0,64,0,,
198904,control_change,113,0,2,,,,,,,,,,,,,,,0,64,127,,
199200,note_on,296,0,2,,,,,,,,,,,,,,,0,,,69,0
199200,note_on,0,0,2,,,,,,,,,,,,,,,0,,,53,0
199200,note_on,0,0,2,,,,,,,,,,,,,,,0,,,57,0
199200,note_on,0,0,2,,,,,,,,,,,,,,,0,,,60,0
199200,note_on,0,0,2,,,,,,,,,,,,,,,0,,,53,81
199200,note_on,0,0,1,,,,,,,,,,,,,,,0,,,77,0
199200,note_on,480,0,1,,,,,,,,,,,,,,,0,,,84,0
199200,note_on,0,0,1,,,,,,,,,,,,,,,0,,,72,0
199200,set_tempo,1440,1,0,,,,,,,,,,,,1481481,,,,,,,
199271,control_change,71,0,2,,,,,,,,,,,,,,,0,64,0,,
199440,set_tempo,240,1,0,,,,,,,,,,,,600000,,,,,,,
199440,note_on,0,0,2,,,,,,,,,,,,,,,0,,,43,61
199440,note_on,169,0,2,,,,,,,,,,,,,,,0,,,53,0
199460,control_change,20,0,2,,,,,,,,,,,,,,,0,64,127,,
199460,set_tempo,20,1,0,,,,,,,,,,,,603015,,,,,,,
199480,set_tempo,20,1,0,,,,,,,,,,,,609137,,,,,,,
199500,set_tempo,20,1,0,,,,,,,,,,,,615385,,,,,,,
199520,set_tempo,20,1,0,,,,,,,,,,,,618557,,,,,,,
199520,note_on,60,0,2,,,,,,,,,,,,,,,0,,,43,0
199520,note_on,0,0,2,,,,,,,,,,,,,,,0,,,44,61
199540,set_tempo,20,1,0,,,,,,,,,,,,625000,,,,,,,
199560,set_tempo,20,1,0,,,,,,,,,,,,631579,,,,,,,
199580,set_tempo,20,1,0,,,,,,,,,,,,638298,,,,,,,
199600,set_tempo,20,1,0,,,,,,,,,,,,641711,,,,,,,
199600,note_on,0,0,2,,,,,,,,,,,,,,,0,,,46,61
199600,note_on,80,0,2,,,,,,,,,,,,,,,0,,,44,0
199620,set_tempo,20,1,0,,,,,,,,,,,,648649,,,,,,,
199640,set_tempo,20,1,0,,,,,,,,,,,,655738,,,,,,,
199660,set_tempo,20,1,0,,,,,,,,,,,,662983,,,,,,,
199680,note_on,80,0,2,,,,,,,,,,,,,,,0,,,46,0
199680,note_on,0,0,2,,,,,,,,,,,,,,,0,,,44,61
199680,note_on,0,0,1,,,,,,,,,,,,,,,0,,,68,80
199680,note_on,0,0,1,,,,,,,,,,,,,,,0,,,65,68
199680,note_on,0,0,1,,,,,,,,,,,,,,,0,,,54,68
199680,note_on,480,0,1,,,,,,,,,,,,,,,0,,,56,68
199680,set_tempo,20,1,0,,,,,,,,,,,,1111111,,,,,,,
199680,note_on,0,0,1,,,,,,,,,,,,,,,0,,,60,68
199689,control_change,9,0,2,,,,,,,,,,,,,,,0,64,0,,
199720,control_change,31,0,2,,,,,,,,,,,,,,,0,64,127,,
199725,note_on,5,0,2,,,,,,,,,,,,,,,0,,,44,0
199725,note_on,0,0,2,,,,,,,,,,,,,,,0,,,46,56
199760,set_tempo,80,1,0,,,,,,,,,,,,1100917,,,,,,,
199770,note_on,0,0,2,,,,,,,,,,,,,,,0,,,44,64
199770,note_on,45,0,2,,,,,,,,,,,,,,,0,,,46,0
199800,set_tempo,40,1,0,,,,,,,,,,,,1090909,,,,,,,
199815,note_on,45,0,2,,,,,,,,,,,,,,,0,,,44,0
199815,note_on,0,0,2,,,,,,,,,,,,,,,0,,,46,57
199840,set_tempo,40,1,0,,,,,,,,,,,,1081081,,,,,,,
199860,note_on,45,0,2,,,,,,,,,,,,,,,0,,,46,0
199860,note_on,0,0,2,,,,,,,,,,,,,,,0,,,44,66
199880,set_tempo,40,1,0,,,,,,,,,,,,1071429,,,,,,,
199905,note_on,45,0,2,,,,,,,,,,,,,,,0,,,44,0
199905,note_on,0,0,2,,,,,,,,,,,,,,,0,,,46,59
199920,set_tempo,40,1,0,,,,,,,,,,,,1061947,,,,,,,
199950,note_on,0,0,2,,,,,,,,,,,,,,,0,,,44,68
199950,note_on,45,0,2,,,,,,,,,,,,,,,0,,,46,0
199960,set_tempo,40,1,0,,,,,,,,,,,,1052632,,,,,,,
199995,note_on,45,0,2,,,,,,,,,,,,,,,0,,,44,0
199995,note_on,0,0,2,,,,,,,,,,,,,,,0,,,46,61
200000,set_tempo,40,1,0,,,,,,,,,,,,1043478,,,,,,,
200040,set_tempo,40,1,0,,,,,,,,,,,,1034483,,,,,,,
200040,note_on,45,0,2,,,,,,,,,,,,,,,0,,,46,0
200040,note_on,0,0,2,,,,,,,,,,,,,,,0,,,44,70
200080,set_tempo,40,1,0,,,,,,,,,,,,1025641,,,,,,,
200085,note_on,45,0,2,,,,,,,,,,,,,,,0,,,44,0
200085,note_on,0,0,2,,,,,,,,,,,,,,,0,,,46,65
200120,set_tempo,40,1,0,,,,,,,,,,,,1016949,,,,,,,
200130,note_on,45,0,2,,,,,,,,,,,,,,,0,,,46,0
200130,note_on,0,0,2,,,,,,,,,,,,,,,0,,,44,73
200140,control_change,10,0,2,,,,,,,,,,,,,,,0,64,0,,
200160,note_on,0,0,1,,,,,,,,,,,,,,,0,,,60,0
200160,note_on,0,0,1,,,,,,,,,,,,,,,0,,,56,0
200160,note_on,0,0,1,,,,,,,,,,,,,,,0,,,56,68
200160,note_on,0,0,1,,,,,,,,,,,,,,,0,,,65,0
200160,note_on,0,0,1,,,,,,,,,,,,,,,0,,,54,68
200160,note_on,0,0,1,,,,,,,,,,,,,,,0,,,63,68
200160,note_on,0,0,1,,,,,,,,,,,,,,,0,,,68,80
200160,note_on,0,0,1,,,,,,,,,,,,,,,0,,,54,0
200160,note_on,0,0,1,,,,,,,,,,,,,,,0,,,60,68
200160,note_on,480,0,1,,,,,,,,,,,,,,,0,,,68,0
200160,set_tempo,40,1,0,,,,,,,,,,,,1008403,,,,,,,
200169,control_change,29,0,2,,,,,,,,,,,,,,,0,64,127,,
200175,note_on,0,0,2,,,,,,,,,,,,,,,0,,,46,66
200175,note_on,6,0,2,,,,,,,,,,,,,,,0,,,44,0
200200,set_tempo,40,1,0,,,,,,,,,,,,1000000,,,,,,,
200220,note_on,45,0,2,,,,,,,,,,,,,,,0,,,46,0
200220,note_on,0,0,2,,,,,,,,,,,,,,,0,,,44,72
200265,note_on,45,0,2,,,,,,,,,,,,,,,0,,,44,0
200266,note_on,1,0,2,,,,,,,,,,,,,,,0,,,46,63
200280,set_tempo,80,1,0,,,,,,,,,,,,1008403,,,,,,,
200310,note_on,44,0,2,,,,,,,,,,,,,,,0,,,44,69
200311,note_on,1,0,2,,,,,,,,,,,,,,,0,,,46,0
200320,set_tempo,40,1,0,,,,,,,,,,,,1016949,,,,,,,
200355,note_on,0,0,2,,,,,,,,,,,,,,,0,,,46,60
200355,note_on,44,0,2,,,,,,,,,,,,,,,0,,,44,0
200360,set_tempo,40,1,0,,,,,,,,,,,,1025641,,,,,,,
200400,note_on,45,0,2,,,,,,,,,,,,,,,0,,,44,66
200400,set_tempo,40,1,0,,,,,,,,,,,,1034483,,,,,,,
200401,note_on,1,0,2,,,,,,,,,,,,,,,0,,,46,0
200440,set_tempo,40,1,0,,,,,,,,,,,,1043478,,,,,,,
200460,note_on,59,0,2,,,,,,,,,,,,,,,0,,,44,0
200460,note_on,0,0,2,,,,,,,,,,,,,,,0,,,46,58
200480,set_tempo,40,1,0,,,,,,,,,,,,1052632,,,,,,,
200520,note_on,60,0,2,,,,,,,,,,,,,,,0,,,46,0
200520,set_tempo,40,1,0,,,,,,,,,,,,1061947,,,,,,,
200520,note_on,0,0,2,,,,,,,,,,,,,,,0,,,43,64
200560,set_tempo,40,1,0,,,,,,,,,,,,1071429,,,,,,,
200580,note_on,0,0,2,,,,,,,,,,,,,,,0,,,44,55
200580,note_on,60,0,2,,,,,,,,,,,,,,,0,,,43,0
200600,set_tempo,40,1,0,,,,,,,,,,,,1081081,,,,,,,
200640,note_on,0,0,1,,,,,,,,,,,,,,,0,,,53,68
200640,note_on,60,0,2,,,,,,,,,,,,,,,0,,,44,0
200640,set_tempo,40,1,0,,,,,,,,,,,,1100917,,,,,,,
200640,note_on,0,0,2,,,,,,,,,,,,,,,0,,,49,68
200640,note_on,0,0,1,,,,,,,,,,,,,,,0,,,68,80
200640,note_on,0,0,1,,,,,,,,,,,,,,,0,,,61,68
200640,note_on,480,0,1,,,,,,,,,,,,,,,0,,,68,0
200640,note_on,0,0,1,,,,,,,,,,,,,,,0,,,63,0
200640,note_on,0,0,1,,,,,,,,,,,,,,,0,,,56,0
200640,note_on,0,0,1,,,,,,,,,,,,,,,0,,,54,0
200640,note_on,0,0,1,,,,,,,,,,,,,,,0,,,60,0
200646,control_change,6,0,2,,,,,,,,,,,,,,,0,64,0,,
200749,control_change,103,0,2,,,,,,,,,,,,,,,0,64,127,,
201120,note_on,0,0,2,,,,,,,,,,,,,,,0,,,49,68
201120,note_on,371,0,2,,,,,,,,,,,,,,,0,,,49,0
201120,note_on,0,0,1,,,,,,,,,,,,,,,0,,,61,0
201120,set_tempo,480,1,0,,,,,,,,,,,,1500000,,,,,,,
201120,note_on,0,0,1,,,,,,,,,,,,,,,0,,,53,0
201120,note_on,480,0,1,,,,,,,,,,,,,,,0,,,68,0
201137,control_change,17,0,2,,,,,,,,,,,,,,,0,64,0,,
201360,note_on,0,0,2,,,,,,,,,,,,,,,0,,,40,61
201360,note_on,223,0,2,,,,,,,,,,,,,,,0,,,49,0
201360,set_tempo,240,1,0,,,,,,,,,,,,609137,,,,,,,
201380,set_tempo,20,1,0,,,,,,,,,,,,612245,,,,,,,
201389,control_change,29,0,2,,,,,,,,,,,,,,,0,64,127,,
201400,set_tempo,20,1,0,,,,,,,,,,,,618557,,,,,,,
201420,set_tempo,20,1,0,,,,,,,,,,,,621762,,,,,,,
201440,note_on,51,0,2,,,,,,,,,,,,,,,0,,,40,0
201440,set_tempo,20,1,0,,,,,,,,,,,,628272,,,,,,,
201440,note_on,0,0,2,,,,,,,,,,,,,,,0,,,41,61
201460,set_tempo,20,1,0,,,,,,,,,,,,631579,,,,,,,
201480,set_tempo,20,1,0,,,,,,,,,,,,638298,,,,,,,
201500,set_tempo,20,1,0,,,,,,,,,,,,641711,,,,,,,
201520,note_on,80,0,2,,,,,,,,,,,,,,,0,,,41,0
201520,note_on,0,0,2,,,,,,,,,,,,,,,0,,,43,61
201520,set_tempo,20,1,0,,,,,,,,,,,,648649,,,,,,,
201540,set_tempo,20,1,0,,,,,,,,,,,,652174,,,,,,,
201560,set_tempo,20,1,0,,,,,,,,,,,,659341,,,,,,,
201580,set_tempo,20,1,0,,,,,,,,,,,,666667,,,,,,,
201600,note_on,0,0,1,,,,,,,,,,,,,,,0,,,65,80
201600,control_change,0,0,2,,,,,,,,,,,,,,,0,64,0,,
201600,note_on,80,0,2,,,,,,,,,,,,,,,0,,,43,0
201600,note_on,0,0,1,,,,,,,,,,,,,,,0,,,51,68
201600,note_on,0,0,2,,,,,,,,,,,,,,,0,,,41,61
201600,set_tempo,20,1,0,,,,,,,,,,,,1111111,,,,,,,
201600,note_on,480,0,1,,,,,,,,,,,,,,,0,,,57,68
201600,note_on,0,0,1,,,,,,,,,,,,,,,0,,,61,68
201623,control_change,23,0,2,,,,,,,,,,,,,,,0,64,127,,
201645,note_on,22,0,2,,,,,,,,,,,,,,,0,,,41,0
201645,note_on,0,0,2,,,,,,,,,,,,,,,0,,,42,56
201680,set_tempo,80,1,0,,,,,,,,,,,,1100917,,,,,,,
201690,note_on,45,0,2,,,,,,,,,,,,,,,0,,,42,0
201690,note_on,0,0,2,,,,,,,,,,,,,,,0,,,41,64
201720,set_tempo,40,1,0,,,,,,,,,,,,1090909,,,,,,,
201735,note_on,45,0,2,,,,,,,,,,,,,,,0,,,41,0
201735,note_on,0,0,2,,,,,,,,,,,,,,,0,,,42,57
201760,set_tempo,40,1,0,,,,,,,,,,,,1081081,,,,,,,
201780,note_on,45,0,2,,,,,,,,,,,,,,,0,,,42,0
201780,note_on,0,0,2,,,,,,,,,,,,,,,0,,,41,66
201800,set_tempo,40,1,0,,,,,,,,,,,,1071429,,,,,,,
201825,note_on,45,0,2,,,,,,,,,,,,,,,0,,,41,0
201825,note_on,0,0,2,,,,,,,,,,,,,,,0,,,42,59
201840,set_tempo,40,1,0,,,,,,,,,,,,1061947,,,,,,,
201870,note_on,0,0,2,,,,,,,,,,,,,,,0,,,41,68
201870,note_on,45,0,2,,,,,,,,,,,,,,,0,,,42,0
201880,set_tempo,40,1,0,,,,,,,,,,,,1052632,,,,,,,
201915,note_on,0,0,2,,,,,,,,,,,,,,,0,,,42,61
201915,note_on,45,0,2,,,,,,,,,,,,,,,0,,,41,0
201920,set_tempo,40,1,0,,,,,,,,,,,,1043478,,,,,,,
201960,note_on,45,0,2,,,,,,,,,,,,,,,0,,,42,0
201960,set_tempo,40,1,0,,,,,,,,,,,,1034483,,,,,,,
201960,note_on,0,0,2,,,,,,,,,,,,,,,0,,,41,70
202000,set_tempo,40,1,0,,,,,,,,,,,,1025641,,,,,,,
202005,note_on,0,0,2,,,,,,,,,,,,,,,0,,,42,65
202005,note_on,45,0,2,,,,,,,,,,,,,,,0,,,41,0
202040,set_tempo,40,1,0,,,,,,,,,,,,1016949,,,,,,,
202050,note_on,45,0,2,,,,,,,,,,,,,,,0,,,42,0
202050,note_on,0,0,2,,,,,,,,,,,,,,,0,,,41,73
202080,set_tempo,40,1,0,,,,,,,,,,,,1008403,,,,,,,
202080,note_on,0,0,1,,,,,,,,,,,,,,,0,,,60,68
202080,note_on,0,0,1,,,,,,,,,,,,,,,0,,,57,68
202080,note_on,0,0,1,,,,,,,,,,,,,,,0,,,51,68
202080,note_on,0,0,1,,,,,,,,,,,,,,,0,,,61,0
202080,note_on,0,0,1,,,,,,,,,,,,,,,0,,,51,0
202080,note_on,0,0,1,,,,,,,,,,,,,,,0,,,57,0
202080,note_on,480,0,1,,,,,,,,,,,,,,,0,,,65,0
202080,note_on,0,0,1,,,,,,,,,,,,,,,0,,,65,80
202095,note_on,45,0,2,,,,,,,,,,,,,,,0,,,41,0
202095,note_on,0,0,2,,,,,,,,,,,,,,,0,,,42,66
202100,control_change,5,0,2,,,,,,,,,,,,,,,0,64,0,,
202120,set_tempo,40,1,0,,,,,,,,,,,,1000000,,,,,,,
202126,control_change,26,0,2,,,,,,,,,,,,,,,0,64,127,,
202140,note_on,14,0,2,,,,,,,,,,,,,,,0,,,42,0
202140,note_on,0,0,2,,,,,,,,,,,,,,,0,,,41,72
202185,note_on,45,0,2,,,,,,,,,,,,,,,0,,,41,0
202186,note_on,1,0,2,,,,,,,,,,,,,,,0,,,42,63
202200,set_tempo,80,1,0,,,,,,,,,,,,1008403,,,,,,,
202230,note_on,44,0,2,,,,,,,,,,,,,,,0,,,41,69
202231,note_on,1,0,2,,,,,,,,,,,,,,,0,,,42,0
202240,set_tempo,40,1,0,,,,,,,,,,,,1016949,,,,,,,
202275,note_on,44,0,2,,,,,,,,,,,,,,,0,,,41,0
202275,note_on,0,0,2,,,,,,,,,,,,,,,0,,,42,60
202280,set_tempo,40,1,0,,,,,,,,,,,,1025641,,,,,,,
202320,note_on,45,0,2,,,,,,,,,,,,,,,0,,,41,66
202320,set_tempo,40,1,0,,,,,,,,,,,,1034483,,,,,,,
202321,note_on,1,0,2,,,,,,,,,,,,,,,0,,,42,0
202360,set_tempo,40,1,0,,,,,,,,,,,,1043478,,,,,,,
202380,note_on,59,0,2,,,,,,,,,,,,,,,0,,,41,0
202380,note_on,0,0,2,,,,,,,,,,,,,,,0,,,42,58
202400,set_tempo,40,1,0,,,,,,,,,,,,1052632,,,,,,,
202440,note_on,0,0,2,,,,,,,,,,,,,,,0,,,40,64
202440,note_on,60,0,2,,,,,,,,,,,,,,,0,,,42,0
202440,set_tempo,40,1,0,,,,,,,,,,,,1061947,,,,,,,
202480,set_tempo,40,1,0,,,,,,,,,,,,1071429,,,,,,,
202500,note_on,60,0,2,,,,,,,,,,,,,,,0,,,40,0
202500,note_on,0,0,2,,,,,,,,,,,,,,,0,,,41,55
202520,set_tempo,40,1,0,,,,,,,,,,,,1081081,,,,,,,
202560,note_on,0,0,1,,,,,,,,,,,,,,,0,,,57,0
202560,note_on,480,0,1,,,,,,,,,,,,,,,0,,,65,0
202560,note_on,0,0,2,,,,,,,,,,,,,,,0,,,42,64
202560,note_on,0,0,1,,,,,,,,,,,,,,,0,,,58,80
202560,note_on,0,0,1,,,,,,,,,,,,,,,0,,,60,0
202560,note_on,0,0,1,,,,,,,,,,,,,,,0,,,49,68
202560,note_on,60,0,2,,,,,,,,,,,,,,,0,,,41,0
202560,note_on,0,0,1,,,,,,,,,,,,,,,0,,,51,0
202560,set_tempo,40,1,0,,,,,,,,,,,,1100917,,,,,,,
202571,control_change,11,0,2,,,,,,,,,,,,,,,0,64,0,,
202663,control_change,92,0,2,,,,,,,,,,,,,,,0,64,127,,
203040,note_on,377,0,2,,,,,,,,,,,,,,,0,,,42,0
203040,set_tempo,480,1,0,,,,,,,,,,,,1132075,,,,,,,
203040,note_on,0,0,2,,,,,,,,,,,,,,,0,,,41,47
203280,note_on,0,0,2,,,,,,,,,,,,,,,0,,,37,39
203280,note_on,240,0,2,,,,,,,,,,,,,,,0,,,41,0
203280,set_tempo,240,1,0,,,,,,,,,,,,1176471,,,,,,,
203520,set_tempo,240,1,0,,,,,,,,,,,,1059322,,,,,,,
203520,note_on,960,0,1,,,,,,,,,,,,,,,0,,,58,0
203520,note_on,0,0,1,,,,,,,,,,,,,,,0,,,49,0
203520,note_on,0,0,1,,,,,,,,,,,,,,,0,,,46,39
203520,note_on,0,0,2,,,,,,,,,,,,,,,0,,,46,39
203520,note_on,0,0,1,,,,,,,,,,,,,,,0,,,53,39
203520,note_on,0,0,1,,,,,,,,,,,,,,,0,,,58,46
203520,note_on,0,0,2,,,,,,,,,,,,,,,0,,,41,32
203520,note_on,0,0,2,,,,,,,,,,,,,,,0,,,34,32
203520,control_change,0,0,2,,,,,,,,,,,,,,,0,64,0,,
203520,control_change,0,0,2,,,,,,,,,,,,,,,0,64,0,,
203520,note_on,240,0,2,,,,,,,,,,,,,,,0,,,37,0
203584,control_change,64,0,2,,,,,,,,,,,,,,,0,64,127,,
204000,note_on,416,0,2,,,,,,,,,,,,,,,0,,,46,0
204000,note_on,0,0,2,,,,,,,,,,,,,,,0,,,37,28
204000,note_on,0,0,2,,,,,,,,,,,,,,,0,,,41,0
204000,note_on,0,0,2,,,,,,,,,,,,,,,0,,,42,34
204000,note_on,0,0,2,,,,,,,,,,,,,,,0,,,34,0
204000,note_on,0,0,1,,,,,,,,,,,,,,,0,,,54,39
204000,note_on,0,0,1,,,,,,,,,,,,,,,0,,,46,0
204000,note_on,0,0,2,,,,,,,,,,,,,,,0,,,49,34
204000,note_on,0,0,1,,,,,,,,,,,,,,,0,,,58,46
204000,note_on,480,0,1,,,,,,,,,,,,,,,0,,,58,0
204000,set_tempo,480,1,0,,,,,,,,,,,,1090513,,,,,,,
204000,note_on,0,0,1,,,,,,,,,,,,,,,0,,,53,0
204014,control_change,14,0,2,,,,,,,,,,,,,,,0,64,0,,
204141,control_change,127,0,2,,,,,,,,,,,,,,,0,64,127,,
204360,note_on,0,0,1,,,,,,,,,,,,,,,0,,,58,41
204360,note_on,360,0,1,,,,,,,,,,,,,,,0,,,58,0
204480,note_on,0,0,2,,,,,,,,,,,,,,,0,,,37,0
204480,note_on,0,0,1,,,,,,,,,,,,,,,0,,,54,0
204480,note_on,0,0,1,,,,,,,,,,,,,,,0,,,53,39
204480,note_on,0,0,1,,,,,,,,,,,,,,,0,,,58,46
204480,note_on,0,0,2,,,,,,,,,,,,,,,0,,,46,39
204480,note_on,0,0,2,,,,,,,,,,,,,,,0,,,41,32
204480,note_on,0,0,2,,,,,,,,,,,,,,,0,,,34,32
204480,note_on,120,0,1,,,,,,,,,,,,,,,0,,,58,0
204480,note_on,339,0,2,,,,,,,,,,,,,,,0,,,49,0
204480,set_tempo,480,1,0,,,,,,,,,,,,1082446,,,,,,,
204480,note_on,0,0,2,,,,,,,,,,,,,,,0,,,42,0
204491,control_change,11,0,2,,,,,,,,,,,,,,,0,64,0,,
204614,control_change,123,0,2,,,,,,,,,,,,,,,0,64,127,,
204960,note_on,0,0,2,,,,,,,,,,,,,,,0,,,41,0
204960,note_on,346,0,2,,,,,,,,,,,,,,,0,,,46,0
204960,note_on,0,0,2,,,,,,,,,,,,,,,0,,,34,0
204960,note_on,0,0,2,,,,,,,,,,,,,,,0,,,37,25
204960,note_on,0,0,2,,,,,,,,,,,,,,,0,,,42,31
204960,note_on,0,0,2,,,,,,,,,,,,,,,0,,,49,31
204960,note_on,0,0,1,,,,,,,,,,,,,,,0,,,54,44
204960,set_tempo,480,1,0,,,,,,,,,,,,1059322,,,,,,,
204960,note_on,0,0,1,,,,,,,,,,,,,,,0,,,61,54
204960,note_on,0,0,1,,,,,,,,,,,,,,,0,,,53,0
204960,note_on,480,0,1,,,,,,,,,,,,,,,0,,,58,0
204967,control_change,7,0,2,,,,,,,,,,,,,,,0,64,0,,
205045,control_change,78,0,2,,,,,,,,,,,,,,,0,64,127,,
205320,note_on,0,0,1,,,,,,,,,,,,,,,0,,,60,49
205320,note_on,360,0,1,,,,,,,,,,,,,,,0,,,61,0
205380,note_on,0,0,1,,,,,,,,,,,,,,,0,,,61,45
205380,note_on,60,0,1,,,,,,,,,,,,,,,0,,,60,0
205440,note_on,60,0,1,,,,,,,,,,,,,,,0,,,61,0
205440,note_on,0,0,1,,,,,,,,,,,,,,,0,,,54,0
205440,note_on,0,0,2,,,,,,,,,,,,,,,0,,,34,32
205440,note_on,0,0,1,,,,,,,,,,,,,,,0,,,60,52
205440,note_on,0,0,1,,,,,,,,,,,,,,,0,,,53,44
205440,note_on,0,0,2,,,,,,,,,,,,,,,0,,,46,39
205440,note_on,0,0,2,,,,,,,,,,,,,,,0,,,41,32
205440,note_on,0,0,2,,,,,,,,,,,,,,,0,,,37,0
205440,control_change,0,0,2,,,,,,,,,,,,,,,0,64,0,,
205440,note_on,395,0,2,,,,,,,,,,,,,,,0,,,49,0
205440,set_tempo,480,1,0,,,,,,,,,,,,1090909,,,,,,,
205440,note_on,0,0,2,,,,,,,,,,,,,,,0,,,42,0
205553,control_change,113,0,2,,,,,,,,,,,,,,,0,64,127,,
205680,set_tempo,240,1,0,,,,,,,,,,,,1132075,,,,,,,
205800,note_on,0,0,1,,,,,,,,,,,,,,,0,,,58,46
205800,note_on,360,0,1,,,,,,,,,,,,,,,0,,,60,0
205920,note_on,0,0,1,,,,,,,,,,,,,,,0,,,58,50
205920,note_on,0,0,1,,,,,,,,,,,,,,,0,,,54,42
205920,set_tempo,240,1,0,,,,,,,,,,,,1237113,,,,,,,
205920,note_on,0,0,2,,,,,,,,,,,,,,,0,,,42,28
205920,note_on,120,0,1,,,,,,,,,,,,,,,0,,,58,0
205920,note_on,0,0,2,,,,,,,,,,,,,,,0,,,37,28
205920,note_on,0,0,2,,,,,,,,,,,,,,,0,,,34,0
205920,note_on,0,0,2,,,,,,,,,,,,,,,0,,,41,0
205920,note_on,367,0,2,,,,,,,,,,,,,,,0,,,46,0
205920,note_on,0,0,2,,,,,,,,,,,,,,,0,,,49,34
205920,note_on,0,0,1,,,,,,,,,,,,,,,0,,,53,0
205948,control_change,28,0,2,,,,,,,,,,,,,,,0,64,0,,
206104,control_change,156,0,2,,,,,,,,,,,,,,,0,64,127,,
206200,set_tempo,280,1,0,,,,,,,,,,,,1318681,,,,,,,
206280,note_on,360,0,1,,,,,,,,,,,,,,,0,,,58,0
206280,note_on,0,0,1,,,,,,,,,,,,,,,0,,,58,36
206365,control_change,261,0,2,,,,,,,,,,,,,,,0,64,0,,
206395,note_on,30,0,2,,,,,,,,,,,,,,,0,,,49,0
206400,note_on,120,0,1,,,,,,,,,,,,,,,0,,,58,0
206400,note_on,0,0,1,,,,,,,,,,,,,,,0,,,54,0
206400,note_on,0,0,2,,,,,,,,,,,,,,,0,,,41,32
206400,note_on,0,0,2,,,,,,,,,,,,,,,0,,,34,27
206400,note_on,0,0,2,,,,,,,,,,,,,,,0,,,37,0
206400,note_on,5,0,2,,,,,,,,,,,,,,,0,,,42,0
206400,note_on,0,0,1,,,,,,,,,,,,,,,0,,,58,41
206400,note_on,0,0,1,,,,,,,,,,,,,,,0,,,49,35
206400,note_on,0,0,1,,,,,,,,,,,,,,,0,,,53,35
206640,control_change,240,0,2,,,,,,,,,,,,,,,0,64,127,,
207240,control_change,600,0,2,,,,,,,,,,,,,,,0,64,0,,
207360,note_on,0,0,2,,,,,,,,,,,,,,,0,,,34,0
207360,note_on,960,0,1,,,,,,,,,,,,,,,0,,,58,0
207360,end_of_track,0,1,1,,,,,,,,,,,,,,,,,,,
207360,note_on,0,0,1,,,,,,,,,,,,,,,0,,,49,0
207360,end_of_track,0,1,0,,,,,,,,,,,,,,,,,,,
207360,end_of_track,0,1,2,,,,,,,,,,,,,,,,,,,
207360,note_on,120,0,2,,,,,,,,,,,,,,,0,,,41,0
207360,set_tempo,1160,1,0,,,,,,,,,,,,1165049,,,,,,,
207360,note_on,0,0,1,,,,,,,,,,,,,,,0,,,53,0
