tick,type,numerator,denominator,clocks_per_click,notated_32nd_notes_per_beat,time,meta,track,key,tempo,note,velocity,channel
0,time_signature,3,4,24,8,0,1,0,,,,,
0,track_name,,,,,0,1,3,,,,,
0,note_on,,,,,0,0,3,,,59,96,2
0,track_name,,,,,0,1,4,,,,,
0,note_on,,,,,0,0,2,,,62,96,1
0,note_on,,,,,0,0,4,,,55,96,3
0,track_name,,,,,0,1,2,,,,,
0,key_signature,,,,,0,1,0,G,,,,
0,set_tempo,,,,,0,1,0,,535714,,,
0,track_name,,,,,0,1,1,,,,,
0,note_on,,,,,0,0,1,,,67,96,0
1024,note_off,,,,,1024,0,2,,,62,0,1
1024,note_on,,,,,0,0,2,,,64,96,1
1024,note_off,,,,,1024,0,3,,,59,0,2
1024,note_off,,,,,1024,0,1,,,67,0,0
1024,note_off,,,,,1024,0,4,,,55,0,3
1024,note_on,,,,,0,0,4,,,52,96,3
1024,note_on,,,,,0,0,1,,,67,96,0
1024,note_on,,,,,0,0,3,,,59,96,2
2048,note_on,,,,,0,0,4,,,50,96,3
2048,note_on,,,,,0,0,2,,,66,96,1
2048,note_off,,,,,1024,0,2,,,64,0,1
2048,note_off,,,,,1024,0,4,,,52,0,3
2048,note_on,,,,,0,0,3,,,62,96,2
2048,note_off,,,,,1024,0,3,,,59,0,2
2048,note_off,,,,,1024,0,1,,,67,0,0
2048,note_on,,,,,0,0,1,,,69,96,0
3072,note_on,,,,,0,0,1,,,71,96,0
3072,note_off,,,,,1024,0,1,,,69,0,0
3072,note_on,,,,,0,0,4,,,55,96,3
3072,note_on,,,,,0,0,2,,,67,96,1
3072,note_off,,,,,1024,0,4,,,50,0,3
3072,note_on,,,,,0,0,3,,,62,96,2
3072,note_off,,,,,1024,0,3,,,62,0,2
3072,note_off,,,,,1024,0,2,,,66,0,1
4608,note_off,,,,,1536,0,3,,,62,0,2
4608,note_on,,,,,0,0,1,,,72,96,0
4608,note_off,,,,,1536,0,1,,,71,0,0
4608,note_on,,,,,0,0,4,,,57,96,3
4608,note_off,,,,,1536,0,4,,,55,0,3
4608,note_on,,,,,0,0,3,,,60,96,2
5120,note_on,,,,,0,0,1,,,74,96,0
5120,note_on,,,,,0,0,4,,,59,96,3
5120,note_on,,,,,0,0,3,,,59,96,2
5120,note_off,,,,,512,0,3,,,60,0,2
5120,note_off,,,,,512,0,1,,,72,0,0
5120,note_off,,,,,512,0,4,,,57,0,3
6144,note_off,,,,,1024,0,3,,,59,0,2
6144,note_on,,,,,0,0,1,,,74,96,0
6144,note_on,,,,,0,0,3,,,59,96,2
6144,note_on,,,,,0,0,4,,,55,96,3
6144,note_off,,,,,1024,0,4,,,59,0,3
6144,note_off,,,,,3072,0,2,,,67,0,1
6144,note_on,,,,,0,0,2,,,67,96,1
6144,note_off,,,,,1024,0,1,,,74,0,0
7168,note_on,,,,,0,0,3,,,57,96,2
7168,note_off,,,,,1024,0,2,,,67,0,1
7168,note_off,,,,,1024,0,4,,,55,0,3
7168,note_on,,,,,0,0,4,,,57,96,3
7168,note_off,,,,,1024,0,1,,,74,0,0
7168,note_on,,,,,0,0,1,,,74,96,0
7168,note_off,,,,,1024,0,3,,,59,0,2
7168,note_on,,,,,0,0,2,,,64,96,1
8192,note_on,,,,,0,0,2,,,64,96,1
8192,note_off,,,,,1024,0,2,,,64,0,1
8192,note_off,,,,,1024,0,1,,,74,0,0
8192,note_on,,,,,0,0,1,,,73,96,0
8192,note_on,,,,,0,0,3,,,57,96,2
8192,note_off,,,,,1024,0,3,,,57,0,2
8192,note_off,,,,,1024,0,4,,,57,0,3
8192,note_on,,,,,0,0,4,,,45,96,3
9216,note_on,,,,,0,0,1,,,74,96,0
9216,note_on,,,,,0,0,2,,,66,96,1
9216,note_off,,,,,1024,0,2,,,64,0,1
9216,note_off,,,,,1024,0,3,,,57,0,2
9216,note_on,,,,,0,0,3,,,57,96,2
9216,note_off,,,,,1024,0,1,,,73,0,0
9216,note_on,,,,,0,0,4,,,50,96,3
9216,note_off,,,,,1024,0,4,,,45,0,3
11264,note_on,,,,,0,0,4,,,55,96,3
11264,note_off,,,,,2048,0,4,,,50,0,3
11264,note_on,,,,,0,0,2,,,67,96,1
11264,note_off,,,,,2048,0,1,,,74,0,0
11264,note_off,,,,,2048,0,2,,,66,0,1
11264,note_on,,,,,0,0,3,,,55,96,2
11264,note_off,,,,,2048,0,3,,,57,0,2
11264,note_on,,,,,0,0,1,,,71,96,0
12288,note_on,,,,,0,0,3,,,55,96,2
12288,note_on,,,,,0,0,4,,,48,96,3
12288,note_off,,,,,1024,0,4,,,55,0,3
12288,note_off,,,,,1024,0,1,,,71,0,0
12288,note_off,,,,,1024,0,3,,,55,0,2
12288,note_off,,,,,1024,0,2,,,67,0,1
12288,note_on,,,,,0,0,2,,,64,96,1
12288,note_on,,,,,0,0,1,,,72,96,0
14336,note_off,,,,,2048,0,1,,,72,0,0
14336,note_on,,,,,0,0,1,,,71,96,0
14336,note_off,,,,,2048,0,3,,,55,0,2
14336,note_on,,,,,0,0,2,,,62,96,1
14336,note_off,,,,,2048,0,2,,,64,0,1
14336,note_on,,,,,0,0,3,,,55,96,2
14336,note_off,,,,,2048,0,4,,,48,0,3
14336,note_on,,,,,0,0,4,,,43,96,3
15360,note_on,,,,,0,0,4,,,50,96,3
15360,note_off,,,,,1024,0,4,,,43,0,3
15360,note_on,,,,,0,0,2,,,62,96,1
15360,note_on,,,,,0,0,3,,,54,96,2
15360,note_off,,,,,1024,0,3,,,55,0,2
15360,note_off,,,,,1024,0,2,,,62,0,1
15360,note_on,,,,,0,0,1,,,69,96,0
15360,note_off,,,,,1024,0,1,,,71,0,0
18432,note_on,,,,,0,0,2,,,59,96,1
18432,note_off,,,,,3072,0,4,,,50,0,3
18432,note_on,,,,,0,0,4,,,52,96,3
18432,note_on,,,,,0,0,1,,,67,96,0
18432,note_off,,,,,3072,0,3,,,54,0,2
18432,note_on,,,,,0,0,3,,,52,96,2
18432,note_off,,,,,3072,0,2,,,62,0,1
18432,note_off,,,,,3072,0,1,,,69,0,0
19456,note_off,,,,,1024,0,2,,,59,0,1
19456,note_on,,,,,0,0,2,,,62,96,1
19456,note_off,,,,,1024,0,4,,,52,0,3
19456,note_on,,,,,0,0,3,,,57,96,2
19456,note_off,,,,,1024,0,3,,,52,0,2
19456,note_on,,,,,0,0,4,,,50,96,3
19456,note_off,,,,,1024,0,1,,,67,0,0
19456,note_on,,,,,0,0,1,,,66,96,0
21504,note_on,,,,,0,0,1,,,67,96,0
21504,note_off,,,,,2048,0,1,,,66,0,0
21504,note_off,,,,,2048,0,2,,,62,0,1
21504,note_on,,,,,0,0,4,,,43,96,3
21504,note_on,,,,,0,0,2,,,62,96,1
21504,note_off,,,,,2048,0,3,,,57,0,2
21504,note_on,,,,,0,0,3,,,59,96,2
21504,note_off,,,,,2048,0,4,,,50,0,3
24576,note_off,,,,,3072,0,3,,,59,0,2
24576,note_on,,,,,0,0,3,,,59,96,2
24576,note_on,,,,,0,0,1,,,67,96,0
24576,note_off,,,,,3072,0,1,,,67,0,0
24576,note_on,,,,,0,0,4,,,55,96,3
24576,note_off,,,,,3072,0,2,,,62,0,1
24576,note_on,,,,,0,0,2,,,62,96,1
24576,note_off,,,,,3072,0,4,,,43,0,3
25600,note_off,,,,,1024,0,3,,,59,0,2
25600,note_off,,,,,1024,0,4,,,55,0,3
25600,note_on,,,,,0,0,4,,,52,96,3
25600,note_off,,,,,1024,0,2,,,62,0,1
25600,note_on,,,,,0,0,2,,,64,96,1
25600,note_off,,,,,1024,0,1,,,67,0,0
25600,note_on,,,,,0,0,1,,,67,96,0
25600,note_on,,,,,0,0,3,,,59,96,2
26624,note_off,,,,,1024,0,1,,,67,0,0
26624,note_off,,,,,1024,0,2,,,64,0,1
26624,note_on,,,,,0,0,2,,,66,96,1
26624,note_on,,,,,0,0,1,,,69,96,0
26624,note_off,,,,,1024,0,4,,,52,0,3
26624,note_on,,,,,0,0,4,,,50,96,3
26624,note_off,,,,,1024,0,3,,,59,0,2
26624,note_on,,,,,0,0,3,,,62,96,2
27648,note_off,,,,,1024,0,4,,,50,0,3
27648,note_on,,,,,0,0,4,,,55,96,3
27648,note_on,,,,,0,0,1,,,71,96,0
27648,note_off,,,,,1024,0,1,,,69,0,0
27648,note_on,,,,,0,0,2,,,67,96,1
27648,note_off,,,,,1024,0,2,,,66,0,1
27648,note_off,,,,,1024,0,3,,,62,0,2
27648,note_on,,,,,0,0,3,,,62,96,2
29184,note_on,,,,,0,0,1,,,72,96,0
29184,note_off,,,,,1536,0,1,,,71,0,0
29184,note_off,,,,,1536,0,3,,,62,0,2
29184,note_on,,,,,0,0,3,,,60,96,2
29184,note_off,,,,,1536,0,4,,,55,0,3
29184,note_on,,,,,0,0,4,,,57,96,3
29696,note_off,,,,,512,0,3,,,60,0,2
29696,note_off,,,,,512,0,1,,,72,0,0
29696,note_on,,,,,0,0,1,,,74,96,0
29696,note_off,,,,,512,0,4,,,57,0,3
29696,note_on,,,,,0,0,3,,,59,96,2
29696,note_on,,,,,0,0,4,,,59,96,3
30720,note_on,,,,,0,0,2,,,67,96,1
30720,note_off,,,,,1024,0,4,,,59,0,3
30720,note_on,,,,,0,0,4,,,55,96,3
30720,note_on,,,,,0,0,3,,,59,96,2
30720,note_off,,,,,1024,0,3,,,59,0,2
30720,note_on,,,,,0,0,1,,,74,96,0
30720,note_off,,,,,3072,0,2,,,67,0,1
30720,note_off,,,,,1024,0,1,,,74,0,0
31744,note_on,,,,,0,0,3,,,57,96,2
31744,note_on,,,,,0,0,1,,,74,96,0
31744,note_off,,,,,1024,0,1,,,74,0,0
31744,note_off,,,,,1024,0,3,,,59,0,2
31744,note_on,,,,,0,0,4,,,57,96,3
31744,note_off,,,,,1024,0,2,,,67,0,1
31744,note_on,,,,,0,0,2,,,64,96,1
31744,note_off,,,,,1024,0,4,,,55,0,3
32768,note_off,,,,,1024,0,1,,,74,0,0
32768,note_on,,,,,0,0,3,,,57,96,2
32768,note_off,,,,,1024,0,4,,,57,0,3
32768,note_on,,,,,0,0,4,,,45,96,3
32768,note_off,,,,,1024,0,2,,,64,0,1
32768,note_on,,,,,0,0,2,,,64,96,1
32768,note_off,,,,,1024,0,3,,,57,0,2
32768,note_on,,,,,0,0,1,,,73,96,0
33792,note_off,,,,,1024,0,3,,,57,0,2
33792,note_off,,,,,1024,0,4,,,45,0,3
33792,note_on,,,,,0,0,4,,,50,96,3
33792,note_on,,,,,0,0,2,,,66,96,1
33792,note_on,,,,,0,0,3,,,57,96,2
33792,note_off,,,,,1024,0,1,,,73,0,0
33792,note_on,,,,,0,0,1,,,74,96,0
33792,note_off,,,,,1024,0,2,,,64,0,1
35840,note_off,,,,,2048,0,3,,,57,0,2
35840,note_on,,,,,0,0,2,,,67,96,1
35840,note_off,,,,,2048,0,2,,,66,0,1
35840,note_off,,,,,2048,0,1,,,74,0,0
35840,note_on,,,,,0,0,4,,,55,96,3
35840,note_off,,,,,2048,0,4,,,50,0,3
35840,note_on,,,,,0,0,1,,,71,96,0
35840,note_on,,,,,0,0,3,,,55,96,2
36864,note_off,,,,,1024,0,4,,,55,0,3
36864,note_off,,,,,1024,0,3,,,55,0,2
36864,note_on,,,,,0,0,1,,,72,96,0
36864,note_on,,,,,0,0,4,,,48,96,3
36864,note_off,,,,,1024,0,2,,,67,0,1
36864,note_on,,,,,0,0,2,,,64,96,1
36864,note_on,,,,,0,0,3,,,55,96,2
36864,note_off,,,,,1024,0,1,,,71,0,0
38912,note_off,,,,,2048,0,3,,,55,0,2
38912,note_on,,,,,0,0,2,,,62,96,1
38912,note_off,,,,,2048,0,2,,,64,0,1
38912,note_off,,,,,2048,0,4,,,48,0,3
38912,note_on,,,,,0,0,1,,,71,96,0
38912,note_off,,,,,2048,0,1,,,72,0,0
38912,note_on,,,,,0,0,3,,,55,96,2
38912,note_on,,,,,0,0,4,,,43,96,3
39936,note_on,,,,,0,0,1,,,69,96,0
39936,note_off,,,,,1024,0,1,,,71,0,0
39936,note_on,,,,,0,0,3,,,54,96,2
39936,note_off,,,,,1024,0,3,,,55,0,2
39936,note_off,,,,,1024,0,2,,,62,0,1
39936,note_on,,,,,0,0,2,,,62,96,1
39936,note_off,,,,,1024,0,4,,,43,0,3
39936,note_on,,,,,0,0,4,,,50,96,3
43008,note_off,,,,,3072,0,2,,,62,0,1
43008,note_on,,,,,0,0,2,,,59,96,1
43008,note_off,,,,,3072,0,3,,,54,0,2
43008,note_off,,,,,3072,0,1,,,69,0,0
43008,note_on,,,,,0,0,3,,,52,96,2
43008,note_off,,,,,3072,0,4,,,50,0,3
43008,note_on,,,,,0,0,4,,,52,96,3
43008,note_on,,,,,0,0,1,,,67,96,0
44032,note_on,,,,,0,0,4,,,50,96,3
44032,note_on,,,,,0,0,2,,,62,96,1
44032,note_off,,,,,1024,0,2,,,59,0,1
44032,note_off,,,,,1024,0,3,,,52,0,2
44032,note_off,,,,,1024,0,1,,,67,0,0
44032,note_on,,,,,0,0,3,,,57,96,2
44032,note_on,,,,,0,0,1,,,66,96,0
44032,note_off,,,,,1024,0,4,,,52,0,3
46080,note_on,,,,,0,0,3,,,59,96,2
46080,note_off,,,,,2048,0,3,,,57,0,2
46080,note_off,,,,,2048,0,1,,,66,0,0
46080,note_on,,,,,0,0,4,,,43,96,3
46080,note_on,,,,,0,0,1,,,67,96,0
46080,note_off,,,,,2048,0,4,,,50,0,3
46080,note_off,,,,,2048,0,2,,,62,0,1
46080,note_on,,,,,0,0,2,,,62,96,1
49152,note_on,,,,,0,0,2,,,62,96,1
49152,note_off,,,,,3072,0,2,,,62,0,1
49152,note_on,,,,,0,0,1,,,69,96,0
49152,note_on,,,,,0,0,3,,,54,96,2
49152,note_on,,,,,0,0,4,,,50,96,3
49152,note_off,,,,,3072,0,4,,,43,0,3
49152,note_off,,,,,3072,0,1,,,67,0,0
49152,note_off,,,,,3072,0,3,,,59,0,2
50176,note_off,,,,,1024,0,2,,,62,0,1
50176,note_on,,,,,0,0,3,,,54,96,2
50176,note_off,,,,,1024,0,3,,,54,0,2
50176,note_off,,,,,1024,0,1,,,69,0,0
50176,note_on,,,,,0,0,1,,,69,96,0
50176,note_on,,,,,0,0,2,,,62,96,1
50176,note_on,,,,,0,0,4,,,50,96,3
50176,note_off,,,,,1024,0,4,,,50,0,3
51200,note_on,,,,,0,0,1,,,71,96,0
51200,note_off,,,,,1024,0,1,,,69,0,0
51200,note_on,,,,,0,0,4,,,47,96,3
51200,note_off,,,,,1024,0,4,,,50,0,3
51200,note_off,,,,,1024,0,2,,,62,0,1
51200,note_on,,,,,0,0,2,,,62,96,1
51200,note_off,,,,,1024,0,3,,,54,0,2
51200,note_on,,,,,0,0,3,,,56,96,2
52224,note_off,,,,,1024,0,2,,,62,0,1
52224,note_on,,,,,0,0,2,,,60,96,1
52224,note_off,,,,,1024,0,1,,,71,0,0
52224,note_on,,,,,0,0,1,,,72,96,0
52224,note_on,,,,,0,0,4,,,45,96,3
52224,note_off,,,,,1024,0,4,,,47,0,3
52224,note_on,,,,,0,0,3,,,57,96,2
52224,note_off,,,,,1024,0,3,,,56,0,2
54272,note_on,,,,,0,0,4,,,48,96,3
54272,note_off,,,,,2048,0,4,,,45,0,3
54272,note_on,,,,,0,0,2,,,64,96,1
54272,note_off,,,,,2048,0,3,,,57,0,2
54272,note_on,,,,,0,0,3,,,57,96,2
54272,note_off,,,,,2048,0,1,,,72,0,0
54272,note_on,,,,,0,0,1,,,72,96,0
54272,note_off,,,,,2048,0,2,,,60,0,1
55296,note_on,,,,,0,0,1,,,71,96,0
55296,note_on,,,,,0,0,4,,,52,96,3
55296,note_off,,,,,1024,0,4,,,48,0,3
55296,note_off,,,,,1024,0,1,,,72,0,0
55296,note_off,,,,,1024,0,2,,,64,0,1
55296,note_on,,,,,0,0,3,,,56,96,2
55296,note_off,,,,,1024,0,3,,,57,0,2
55296,note_on,,,,,0,0,2,,,64,96,1
56832,note_off,,,,,1536,0,1,,,71,0,0
56832,note_on,,,,,0,0,3,,,57,96,2
56832,note_off,,,,,1536,0,3,,,56,0,2
56832,note_on,,,,,0,0,1,,,69,96,0
57344,note_off,,,,,512,0,3,,,57,0,2
57344,note_off,,,,,2048,0,4,,,52,0,3
57344,note_on,,,,,0,0,4,,,52,96,3
57344,note_on,,,,,0,0,3,,,56,96,2
57344,note_on,,,,,0,0,1,,,71,96,0
57344,note_on,,,,,0,0,2,,,64,96,1
57344,note_off,,,,,512,0,1,,,69,0,0
57344,note_off,,,,,2048,0,2,,,64,0,1
58368,note_on,,,,,0,0,2,,,64,96,1
58368,note_off,,,,,1024,0,2,,,64,0,1
58368,note_on,,,,,0,0,3,,,57,96,2
58368,note_off,,,,,1024,0,3,,,56,0,2
58368,note_off,,,,,1024,0,1,,,71,0,0
58368,note_off,,,,,1024,0,4,,,52,0,3
58368,note_on,,,,,0,0,4,,,45,96,3
58368,note_on,,,,,0,0,1,,,69,96,0
61440,note_off,,,,,3072,0,1,,,69,0,0
61440,note_off,,,,,3072,0,4,,,45,0,3
61440,note_on,,,,,0,0,4,,,52,96,3
61440,note_off,,,,,3072,0,2,,,64,0,1
61440,note_on,,,,,0,0,3,,,56,96,2
61440,note_off,,,,,3072,0,3,,,57,0,2
61440,note_on,,,,,0,0,1,,,71,96,0
61440,note_on,,,,,0,0,2,,,64,96,1
62464,note_off,,,,,1024,0,1,,,71,0,0
62464,note_on,,,,,0,0,4,,,52,96,3
62464,note_off,,,,,1024,0,4,,,52,0,3
62464,note_off,,,,,1024,0,2,,,64,0,1
62464,note_on,,,,,0,0,2,,,68,96,1
62464,note_off,,,,,1024,0,3,,,56,0,2
62464,note_on,,,,,0,0,3,,,59,96,2
62464,note_on,,,,,0,0,1,,,71,96,0
63488,note_off,,,,,1024,0,1,,,71,0,0
63488,note_on,,,,,0,0,1,,,71,96,0
63488,note_off,,,,,1024,0,2,,,68,0,1
63488,note_on,,,,,0,0,4,,,52,96,3
63488,note_on,,,,,0,0,2,,,68,96,1
63488,note_off,,,,,1024,0,4,,,52,0,3
63488,note_on,,,,,0,0,3,,,64,96,2
63488,note_off,,,,,1024,0,3,,,59,0,2
64512,note_off,,,,,1024,0,2,,,68,0,1
64512,note_on,,,,,0,0,1,,,72,96,0
64512,note_off,,,,,1024,0,1,,,71,0,0
64512,note_on,,,,,0,0,2,,,69,96,1
64512,note_off,,,,,1024,0,4,,,52,0,3
64512,note_on,,,,,0,0,4,,,57,96,3
64512,note_on,,,,,0,0,3,,,64,96,2
64512,note_off,,,,,1024,0,3,,,64,0,2
66048,note_on,,,,,0,0,3,,,62,96,2
66048,note_off,,,,,1536,0,1,,,72,0,0
66048,note_on,,,,,0,0,1,,,74,96,0
66048,note_off,,,,,1536,0,4,,,57,0,3
66048,note_on,,,,,0,0,4,,,59,96,3
66048,note_off,,,,,1536,0,3,,,64,0,2
66560,note_on,,,,,0,0,1,,,76,96,0
66560,note_on,,,,,0,0,4,,,60,96,3
66560,note_off,,,,,512,0,4,,,59,0,3
66560,note_on,,,,,0,0,3,,,60,96,2
66560,note_off,,,,,512,0,3,,,62,0,2
66560,note_off,,,,,512,0,1,,,74,0,0
67584,note_off,,,,,1024,0,4,,,60,0,3
67584,note_off,,,,,1024,0,1,,,76,0,0
67584,note_off,,,,,3072,0,2,,,69,0,1
67584,note_on,,,,,0,0,1,,,76,96,0
67584,note_on,,,,,0,0,4,,,57,96,3
67584,note_on,,,,,0,0,2,,,69,96,1
67584,note_off,,,,,1024,0,3,,,60,0,2
67584,note_on,,,,,0,0,3,,,60,96,2
68608,note_off,,,,,1024,0,1,,,76,0,0
68608,note_off,,,,,1024,0,2,,,69,0,1
68608,note_on,,,,,0,0,2,,,66,96,1
68608,note_off,,,,,1024,0,3,,,60,0,2
68608,note_on,,,,,0,0,3,,,59,96,2
68608,note_off,,,,,1024,0,4,,,57,0,3
68608,note_on,,,,,0,0,1,,,75,96,0
68608,note_on,,,,,0,0,4,,,59,96,3
69632,note_off,,,,,1024,0,2,,,66,0,1
69632,note_on,,,,,0,0,2,,,66,96,1
69632,note_off,,,,,1024,0,1,,,75,0,0
69632,note_off,,,,,1024,0,4,,,59,0,3
69632,note_on,,,,,0,0,4,,,59,96,3
69632,note_on,,,,,0,0,1,,,75,96,0
69632,note_off,,,,,1024,0,3,,,59,0,2
69632,note_on,,,,,0,0,3,,,59,96,2
70656,note_on,,,,,0,0,1,,,76,96,0
70656,note_on,,,,,0,0,2,,,67,96,1
70656,note_off,,,,,1024,0,3,,,59,0,2
70656,note_off,,,,,1024,0,1,,,75,0,0
70656,note_on,,,,,0,0,4,,,52,96,3
70656,note_off,,,,,1024,0,4,,,59,0,3
70656,note_on,,,,,0,0,3,,,59,96,2
70656,note_off,,,,,1024,0,2,,,66,0,1
72704,note_on,,,,,0,0,2,,,69,96,1
72704,note_off,,,,,2048,0,2,,,67,0,1
72704,note_on,,,,,0,0,1,,,78,96,0
72704,note_off,,,,,2048,0,1,,,76,0,0
72704,note_off,,,,,2048,0,3,,,59,0,2
72704,note_on,,,,,0,0,3,,,62,96,2
72704,note_on,,,,,0,0,4,,,50,96,3
72704,note_off,,,,,2048,0,4,,,52,0,3
73728,note_off,,,,,1024,0,1,,,78,0,0
73728,note_on,,,,,0,0,1,,,79,96,0
73728,note_off,,,,,1024,0,4,,,50,0,3
73728,note_on,,,,,0,0,4,,,55,96,3
73728,note_off,,,,,1024,0,3,,,62,0,2
73728,note_on,,,,,0,0,3,,,62,96,2
73728,note_off,,,,,1024,0,2,,,69,0,1
73728,note_on,,,,,0,0,2,,,71,96,1
75776,note_on,,,,,0,0,2,,,67,96,1
75776,note_on,,,,,0,0,3,,,62,96,2
75776,note_on,,,,,0,0,4,,,55,96,3
75776,note_off,,,,,2048,0,4,,,55,0,3
75776,note_off,,,,,2048,0,3,,,62,0,2
75776,note_on,,,,,0,0,1,,,71,96,0
75776,note_off,,,,,2048,0,1,,,79,0,0
75776,note_off,,,,,2048,0,2,,,71,0,1
76800,note_on,,,,,0,0,1,,,72,96,0
76800,note_off,,,,,1024,0,1,,,71,0,0
76800,note_on,,,,,0,0,4,,,48,96,3
76800,note_on,,,,,0,0,2,,,67,96,1
76800,note_off,,,,,1024,0,3,,,62,0,2
76800,note_off,,,,,1024,0,4,,,55,0,3
76800,note_on,,,,,0,0,3,,,64,96,2
76800,note_off,,,,,1024,0,2,,,67,0,1
78848,note_off,,,,,2048,0,2,,,67,0,1
78848,note_off,,,,,2048,0,3,,,64,0,2
78848,note_off,,,,,2048,0,4,,,48,0,3
78848,note_on,,,,,0,0,4,,,43,96,3
78848,note_on,,,,,0,0,2,,,67,96,1
78848,note_on,,,,,0,0,1,,,71,96,0
78848,note_on,,,,,0,0,3,,,62,96,2
78848,note_off,,,,,2048,0,1,,,72,0,0
79872,note_off,,,,,1024,0,2,,,67,0,1
79872,note_on,,,,,0,0,2,,,66,96,1
79872,note_on,,,,,0,0,1,,,69,96,0
79872,note_on,,,,,0,0,4,,,50,96,3
79872,note_off,,,,,1024,0,4,,,43,0,3
79872,note_off,,,,,1024,0,1,,,71,0,0
79872,note_on,,,,,0,0,3,,,62,96,2
79872,note_off,,,,,1024,0,3,,,62,0,2
80896,note_on,,,,,0,0,2,,,66,96,1
80896,note_on,,,,,0,0,4,,,50,96,3
80896,note_off,,,,,1024,0,4,,,50,0,3
80896,note_off,,,,,1024,0,3,,,62,0,2
80896,note_on,,,,,0,0,3,,,62,96,2
80896,note_on,,,,,0,0,1,,,69,96,0
80896,note_off,,,,,1024,0,1,,,69,0,0
80896,note_off,,,,,1024,0,2,,,66,0,1
81920,note_off,,,,,1024,0,2,,,66,0,1
81920,note_on,,,,,0,0,2,,,67,96,1
81920,note_on,,,,,0,0,4,,,47,96,3
81920,note_off,,,,,1024,0,3,,,62,0,2
81920,note_on,,,,,0,0,3,,,62,96,2
81920,note_off,,,,,1024,0,4,,,50,0,3
81920,note_on,,,,,0,0,1,,,74,96,0
81920,note_off,,,,,1024,0,1,,,69,0,0
82944,note_off,,,,,1024,0,2,,,67,0,1
82944,note_on,,,,,0,0,4,,,48,96,3
82944,note_off,,,,,1024,0,4,,,47,0,3
82944,note_on,,,,,0,0,3,,,60,96,2
82944,note_on,,,,,0,0,1,,,76,96,0
82944,note_off,,,,,1024,0,3,,,62,0,2
82944,note_on,,,,,0,0,2,,,67,96,1
82944,note_off,,,,,1024,0,1,,,74,0,0
84480,note_off,,,,,1536,0,1,,,76,0,0
84480,note_on,,,,,0,0,1,,,74,96,0
84480,note_off,,,,,1536,0,4,,,48,0,3
84480,note_on,,,,,0,0,4,,,50,96,3
84480,note_off,,,,,1536,0,2,,,67,0,1
84480,note_on,,,,,0,0,3,,,57,96,2
84480,note_off,,,,,1536,0,3,,,60,0,2
84480,note_on,,,,,0,0,2,,,66,96,1
84992,note_off,,,,,512,0,4,,,50,0,3
84992,note_on,,,,,0,0,2,,,64,96,1
84992,note_off,,,,,512,0,3,,,57,0,2
84992,note_on,,,,,0,0,3,,,55,96,2
84992,note_on,,,,,0,0,4,,,52,96,3
84992,note_off,,,,,512,0,1,,,74,0,0
84992,note_on,,,,,0,0,1,,,72,96,0
84992,note_off,,,,,512,0,2,,,66,0,1
86016,note_on,,,,,0,0,3,,,55,96,2
86016,note_off,,,,,1024,0,4,,,52,0,3
86016,note_off,,,,,1024,0,3,,,55,0,2
86016,note_off,,,,,1024,0,1,,,72,0,0
86016,note_off,,,,,1024,0,2,,,64,0,1
86016,note_on,,,,,0,0,2,,,62,96,1
86016,note_on,,,,,0,0,1,,,71,96,0
86016,note_on,,,,,0,0,4,,,55,96,3
87040,note_on,,,,,0,0,4,,,50,96,3
87040,note_off,,,,,1024,0,4,,,55,0,3
87040,note_off,,,,,1024,0,3,,,55,0,2
87040,note_on,,,,,0,0,3,,,55,96,2
87040,note_on,,,,,0,0,1,,,69,96,0
87040,note_off,,,,,1024,0,1,,,71,0,0
87040,note_off,,,,,1024,0,2,,,62,0,1
87040,note_on,,,,,0,0,2,,,62,96,1
88064,note_on,,,,,0,0,3,,,54,96,2
88064,note_off,,,,,1024,0,3,,,55,0,2
89088,note_off,,,,,2048,0,4,,,50,0,3
89088,note_on,,,,,0,0,3,,,59,96,2
89088,note_on,,,,,0,0,4,,,43,96,3
89088,note_on,,,,,0,0,1,,,67,96,0
89088,note_off,,,,,2048,0,2,,,62,0,1
89088,note_on,,,,,0,0,2,,,62,96,1
89088,note_off,,,,,1024,0,3,,,54,0,2
89088,note_off,,,,,2048,0,1,,,69,0,0
92160,note_off,,,,,3072,0,4,,,43,0,3
92160,note_off,,,,,3072,0,3,,,59,0,2
92160,note_off,,,,,3072,0,2,,,62,0,1
92160,note_off,,,,,3072,0,1,,,67,0,0
92161,end_of_track,,,,,1,1,1,,,,,
92161,end_of_track,,,,,92161,1,0,,,,,
92161,end_of_track,,,,,1,1,3,,,,,
92161,end_of_track,,,,,1,1,2,,,,,
92161,end_of_track,,,,,1,1,4,,,,,
