tick,type,numerator,denominator,clocks_per_click,notated_32nd_notes_per_beat,time,meta,track,key,tempo,note,velocity,channel
0,time_signature,4,4,24,8,0,1,0,,,,,
0,key_signature,,,,,0,1,0,Dm,,,,
0,set_tempo,,,,,0,1,0,,625000,,,
0,track_name,,,,,0,1,1,,,,,
0,track_name,,,,,0,1,6,,,,,
0,track_name,,,,,0,1,5,,,,,
0,track_name,,,,,0,1,4,,,,,
0,track_name,,,,,0,1,3,,,,,
0,track_name,,,,,0,1,2,,,,,
3072,note_on,,,,,3072,0,6,,,62,96,5
3072,note_on,,,,,3072,0,5,,,65,96,4
3072,note_on,,,,,3072,0,3,,,62,96,2
3072,note_on,,,,,3072,0,2,,,65,96,1
3072,note_on,,,,,3072,0,4,,,50,96,3
3072,note_on,,,,,3072,0,1,,,69,96,0
4096,note_off,,,,,1024,0,4,,,50,0,3
4096,note_on,,,,,0,0,3,,,57,96,2
4096,note_on,,,,,0,0,1,,,69,96,0
4096,note_off,,,,,1024,0,1,,,69,0,0
4096,note_off,,,,,1024,0,5,,,65,0,4
4096,note_on,,,,,0,0,5,,,64,96,4
4096,note_on,,,,,0,0,4,,,49,96,3
4096,note_off,,,,,1024,0,6,,,62,0,5
4096,note_off,,,,,1024,0,3,,,62,0,2
4096,note_off,,,,,1024,0,2,,,65,0,1
4096,note_on,,,,,0,0,2,,,64,96,1
4096,note_on,,,,,0,0,6,,,57,96,5
5120,note_off,,,,,1024,0,6,,,57,0,5
5120,note_off,,,,,1024,0,2,,,64,0,1
5120,note_on,,,,,0,0,2,,,62,96,1
5120,note_on,,,,,0,0,3,,,57,96,2
5120,note_on,,,,,0,0,5,,,62,96,4
5120,note_on,,,,,0,0,4,,,50,96,3
5120,note_off,,,,,1024,0,4,,,49,0,3
5120,note_off,,,,,1024,0,3,,,57,0,2
5120,note_on,,,,,0,0,1,,,65,96,0
5120,note_off,,,,,1024,0,1,,,69,0,0
5120,note_on,,,,,0,0,6,,,57,96,5
5120,note_off,,,,,1024,0,5,,,64,0,4
6144,note_on,,,,,0,0,4,,,58,96,3
6144,note_on,,,,,0,0,1,,,67,96,0
6144,note_off,,,,,1024,0,4,,,50,0,3
6144,note_off,,,,,1024,0,3,,,57,0,2
6144,note_off,,,,,1024,0,5,,,62,0,4
6144,note_on,,,,,0,0,5,,,62,96,4
6144,note_on,,,,,0,0,2,,,62,96,1
6144,note_off,,,,,1024,0,2,,,62,0,1
6144,note_off,,,,,1024,0,6,,,57,0,5
6144,note_on,,,,,0,0,6,,,58,96,5
6144,note_off,,,,,1024,0,1,,,65,0,0
6144,note_on,,,,,0,0,3,,,58,96,2
7168,note_on,,,,,0,0,2,,,62,96,1
7168,note_off,,,,,1024,0,2,,,62,0,1
7168,note_off,,,,,1024,0,4,,,58,0,3
7168,note_on,,,,,0,0,3,,,57,96,2
7168,note_on,,,,,0,0,6,,,57,96,5
7168,note_off,,,,,1024,0,6,,,58,0,5
7168,note_on,,,,,0,0,5,,,62,96,4
7168,note_off,,,,,1024,0,3,,,58,0,2
7168,note_off,,,,,1024,0,5,,,62,0,4
7168,note_on,,,,,0,0,4,,,53,96,3
7168,note_on,,,,,0,0,1,,,69,96,0
7168,note_off,,,,,1024,0,1,,,67,0,0
8192,note_on,,,,,0,0,4,,,55,96,3
8192,note_on,,,,,0,0,2,,,62,96,1
8192,note_off,,,,,1024,0,2,,,62,0,1
8192,note_off,,,,,1024,0,5,,,62,0,4
8192,note_on,,,,,0,0,5,,,62,96,4
8192,note_on,,,,,0,0,3,,,58,96,2
8192,note_off,,,,,1024,0,3,,,57,0,2
8192,note_off,,,,,1024,0,6,,,57,0,5
8192,note_on,,,,,0,0,6,,,58,96,5
8192,note_off,,,,,1024,0,4,,,53,0,3
8192,note_off,,,,,1024,0,1,,,69,0,0
8192,note_on,,,,,0,0,1,,,65,96,0
8704,note_off,,,,,512,0,6,,,58,0,5
8704,note_on,,,,,0,0,6,,,57,96,5
9216,note_off,,,,,1024,0,1,,,65,0,0
9216,note_on,,,,,0,0,1,,,64,96,0
9216,note_on,,,,,0,0,6,,,55,96,5
9216,note_off,,,,,512,0,6,,,57,0,5
9216,note_off,,,,,1024,0,2,,,62,0,1
9216,note_on,,,,,0,0,2,,,61,96,1
9216,note_on,,,,,0,0,3,,,52,96,2
9216,note_off,,,,,1024,0,5,,,62,0,4
9216,note_on,,,,,0,0,5,,,61,96,4
9216,note_off,,,,,1024,0,3,,,58,0,2
9216,note_off,,,,,1024,0,4,,,55,0,3
9216,note_on,,,,,0,0,4,,,57,96,3
10240,note_on,,,,,0,0,5,,,57,96,4
10240,note_on,,,,,0,0,3,,,53,96,2
10240,note_off,,,,,1024,0,1,,,64,0,0
10240,note_on,,,,,0,0,1,,,62,96,0
10240,note_on,,,,,0,0,6,,,53,96,5
10240,note_off,,,,,1024,0,6,,,55,0,5
10240,note_on,,,,,0,0,4,,,50,96,3
10240,note_off,,,,,1024,0,5,,,61,0,4
10240,note_off,,,,,1024,0,4,,,57,0,3
10240,note_off,,,,,1024,0,2,,,61,0,1
10240,note_on,,,,,0,0,2,,,57,96,1
10240,note_off,,,,,1024,0,3,,,52,0,2
11264,note_off,,,,,1024,0,4,,,50,0,3
11264,note_off,,,,,1024,0,2,,,57,0,1
11264,note_on,,,,,0,0,1,,,69,96,0
11264,note_on,,,,,0,0,2,,,65,96,1
11264,note_on,,,,,0,0,4,,,50,96,3
11264,note_off,,,,,1024,0,1,,,62,0,0
11264,note_off,,,,,1024,0,3,,,53,0,2
11264,note_on,,,,,0,0,3,,,62,96,2
11264,note_on,,,,,0,0,5,,,65,96,4
11264,note_on,,,,,0,0,6,,,62,96,5
11264,note_off,,,,,1024,0,6,,,53,0,5
11264,note_off,,,,,1024,0,5,,,57,0,4
11776,note_on,,,,,0,0,4,,,52,96,3
11776,note_off,,,,,512,0,4,,,50,0,3
12288,note_on,,,,,0,0,5,,,65,96,4
12288,note_off,,,,,1024,0,5,,,65,0,4
12288,note_on,,,,,0,0,1,,,69,96,0
12288,note_off,,,,,1024,0,1,,,69,0,0
12288,note_off,,,,,512,0,4,,,52,0,3
12288,note_off,,,,,1024,0,2,,,65,0,1
12288,note_off,,,,,1024,0,3,,,62,0,2
12288,note_on,,,,,0,0,2,,,65,96,1
12288,note_on,,,,,0,0,4,,,53,96,3
12288,note_off,,,,,1024,0,6,,,62,0,5
12288,note_on,,,,,0,0,6,,,60,96,5
12288,note_on,,,,,0,0,3,,,60,96,2
13312,note_off,,,,,1024,0,3,,,60,0,2
13312,note_on,,,,,0,0,5,,,67,96,4
13312,note_off,,,,,1024,0,5,,,65,0,4
13312,note_on,,,,,0,0,4,,,52,96,3
13312,note_on,,,,,0,0,6,,,60,96,5
13312,note_on,,,,,0,0,1,,,67,96,0
13312,note_off,,,,,1024,0,6,,,60,0,5
13312,note_off,,,,,1024,0,4,,,53,0,3
13312,note_on,,,,,0,0,2,,,67,96,1
13312,note_off,,,,,1024,0,2,,,65,0,1
13312,note_on,,,,,0,0,3,,,60,96,2
13312,note_off,,,,,1024,0,1,,,69,0,0
13824,note_on,,,,,0,0,2,,,65,96,1
13824,note_off,,,,,512,0,5,,,67,0,4
13824,note_on,,,,,0,0,5,,,65,96,4
13824,note_off,,,,,512,0,2,,,67,0,1
14336,note_on,,,,,0,0,6,,,60,96,5
14336,note_off,,,,,1024,0,3,,,60,0,2
14336,note_on,,,,,0,0,3,,,60,96,2
14336,note_on,,,,,0,0,5,,,64,96,4
14336,note_off,,,,,1024,0,6,,,60,0,5
14336,note_on,,,,,0,0,4,,,57,96,3
14336,note_off,,,,,1024,0,4,,,52,0,3
14336,note_off,,,,,512,0,5,,,65,0,4
14336,note_off,,,,,1024,0,1,,,67,0,0
14336,note_on,,,,,0,0,1,,,72,96,0
14336,note_off,,,,,512,0,2,,,65,0,1
14336,note_on,,,,,0,0,2,,,64,96,1
15360,note_on,,,,,0,0,4,,,53,96,3
15360,note_off,,,,,1024,0,1,,,72,0,0
15360,note_on,,,,,0,0,1,,,69,96,0
15360,note_off,,,,,1024,0,3,,,60,0,2
15360,note_on,,,,,0,0,3,,,60,96,2
15360,note_on,,,,,0,0,5,,,65,96,4
15360,note_off,,,,,1024,0,6,,,60,0,5
15360,note_on,,,,,0,0,6,,,60,96,5
15360,note_off,,,,,1024,0,2,,,64,0,1
15360,note_on,,,,,0,0,2,,,65,96,1
15360,note_off,,,,,1024,0,5,,,64,0,4
15360,note_off,,,,,1024,0,4,,,57,0,3
16384,note_on,,,,,0,0,6,,,58,96,5
16384,note_on,,,,,0,0,3,,,58,96,2
16384,note_off,,,,,1024,0,4,,,53,0,3
16384,note_on,,,,,0,0,2,,,62,96,1
16384,note_off,,,,,1024,0,6,,,60,0,5
16384,note_off,,,,,1024,0,3,,,60,0,2
16384,note_off,,,,,1024,0,1,,,69,0,0
16384,note_on,,,,,0,0,5,,,62,96,4
16384,note_on,,,,,0,0,1,,,65,96,0
16384,note_on,,,,,0,0,4,,,58,96,3
16384,note_off,,,,,1024,0,2,,,65,0,1
16384,note_off,,,,,1024,0,5,,,65,0,4
17408,note_off,,,,,1024,0,5,,,62,0,4
17408,note_off,,,,,1024,0,4,,,58,0,3
17408,note_on,,,,,0,0,6,,,62,96,5
17408,note_off,,,,,1024,0,6,,,58,0,5
17408,note_off,,,,,1024,0,2,,,62,0,1
17408,note_on,,,,,0,0,2,,,62,96,1
17408,note_off,,,,,1024,0,3,,,58,0,2
17408,note_on,,,,,0,0,1,,,67,96,0
17408,note_off,,,,,1024,0,1,,,65,0,0
17408,note_on,,,,,0,0,3,,,50,96,2
17408,note_on,,,,,0,0,5,,,67,96,4
17408,note_on,,,,,0,0,4,,,46,96,3
18432,note_off,,,,,1024,0,5,,,67,0,4
18432,note_off,,,,,1024,0,6,,,62,0,5
18432,note_on,,,,,0,0,5,,,64,96,4
18432,note_on,,,,,0,0,6,,,61,96,5
18432,note_off,,,,,1024,0,3,,,50,0,2
18432,note_on,,,,,0,0,1,,,69,96,0
18432,note_on,,,,,0,0,3,,,52,96,2
18432,note_off,,,,,1024,0,2,,,62,0,1
18432,note_on,,,,,0,0,2,,,61,96,1
18432,note_off,,,,,1024,0,4,,,46,0,3
18432,note_off,,,,,1024,0,1,,,67,0,0
18432,note_on,,,,,0,0,4,,,45,96,3
19456,note_on,,,,,0,0,1,,,69,96,0
19456,note_off,,,,,1024,0,4,,,45,0,3
19456,note_on,,,,,0,0,4,,,50,96,3
19456,note_on,,,,,0,0,6,,,53,96,5
19456,note_on,,,,,0,0,5,,,62,96,4
19456,note_on,,,,,0,0,2,,,62,96,1
19456,note_off,,,,,1024,0,2,,,61,0,1
19456,note_on,,,,,0,0,3,,,53,96,2
19456,note_off,,,,,1024,0,3,,,52,0,2
19456,note_off,,,,,1024,0,1,,,69,0,0
19456,note_off,,,,,1024,0,6,,,61,0,5
19456,note_off,,,,,1024,0,5,,,64,0,4
20480,note_on,,,,,0,0,2,,,64,96,1
20480,note_off,,,,,1024,0,1,,,69,0,0
20480,note_off,,,,,1024,0,5,,,62,0,4
20480,note_on,,,,,0,0,1,,,72,96,0
20480,note_off,,,,,1024,0,4,,,50,0,3
20480,note_on,,,,,0,0,4,,,57,96,3
20480,note_off,,,,,1024,0,2,,,62,0,1
20480,note_on,,,,,0,0,5,,,64,96,4
20480,note_on,,,,,0,0,6,,,57,96,5
20480,note_on,,,,,0,0,3,,,57,96,2
20480,note_off,,,,,1024,0,3,,,53,0,2
20480,note_off,,,,,1024,0,6,,,53,0,5
21504,note_off,,,,,1024,0,5,,,64,0,4
21504,note_off,,,,,1024,0,3,,,57,0,2
21504,note_on,,,,,0,0,4,,,55,96,3
21504,note_on,,,,,0,0,1,,,74,96,0
21504,note_off,,,,,1024,0,1,,,72,0,0
21504,note_on,,,,,0,0,3,,,58,96,2
21504,note_on,,,,,0,0,5,,,67,96,4
21504,note_off,,,,,1024,0,4,,,57,0,3
21504,note_off,,,,,1024,0,2,,,64,0,1
21504,note_on,,,,,0,0,2,,,67,96,1
21504,note_on,,,,,0,0,6,,,58,96,5
21504,note_off,,,,,1024,0,6,,,57,0,5
22016,note_off,,,,,512,0,1,,,74,0,0
22016,note_on,,,,,0,0,1,,,76,96,0
22528,note_on,,,,,0,0,2,,,69,96,1
22528,note_off,,,,,1024,0,2,,,67,0,1
22528,note_on,,,,,0,0,6,,,60,96,5
22528,note_off,,,,,1024,0,6,,,58,0,5
22528,note_off,,,,,1024,0,3,,,58,0,2
22528,note_off,,,,,512,0,1,,,76,0,0
22528,note_on,,,,,0,0,5,,,69,96,4
22528,note_off,,,,,1024,0,5,,,67,0,4
22528,note_off,,,,,1024,0,4,,,55,0,3
22528,note_on,,,,,0,0,1,,,77,96,0
22528,note_on,,,,,0,0,4,,,53,96,3
22528,note_on,,,,,0,0,3,,,60,96,2
23552,note_on,,,,,0,0,1,,,76,96,0
23552,note_on,,,,,0,0,3,,,58,96,2
23552,note_off,,,,,1024,0,3,,,60,0,2
23552,note_off,,,,,1024,0,4,,,53,0,3
23552,note_off,,,,,1024,0,2,,,69,0,1
23552,note_off,,,,,1024,0,1,,,77,0,0
23552,note_on,,,,,0,0,4,,,55,96,3
23552,note_on,,,,,0,0,5,,,67,96,4
23552,note_on,,,,,0,0,2,,,67,96,1
23552,note_off,,,,,1024,0,5,,,69,0,4
23552,note_on,,,,,0,0,6,,,58,96,5
23552,note_off,,,,,1024,0,6,,,60,0,5
24064,note_off,,,,,512,0,6,,,58,0,5
24064,note_on,,,,,0,0,3,,,60,96,2
24064,note_on,,,,,0,0,6,,,60,96,5
24064,note_off,,,,,512,0,3,,,58,0,2
24064,note_on,,,,,0,0,4,,,57,96,3
24064,note_off,,,,,512,0,4,,,55,0,3
24576,note_off,,,,,1024,0,2,,,67,0,1
24576,note_on,,,,,0,0,2,,,65,96,1
24576,note_off,,,,,1024,0,1,,,76,0,0
24576,note_off,,,,,512,0,3,,,60,0,2
24576,note_on,,,,,0,0,4,,,58,96,3
24576,note_on,,,,,0,0,3,,,62,96,2
24576,note_on,,,,,0,0,5,,,65,96,4
24576,note_off,,,,,1024,0,5,,,67,0,4
24576,note_off,,,,,512,0,6,,,60,0,5
24576,note_on,,,,,0,0,6,,,62,96,5
24576,note_off,,,,,512,0,4,,,57,0,3
24576,note_on,,,,,0,0,1,,,74,96,0
25088,note_on,,,,,0,0,5,,,67,96,4
25088,note_off,,,,,512,0,5,,,65,0,4
25088,note_on,,,,,0,0,2,,,67,96,1
25088,note_off,,,,,512,0,2,,,65,0,1
25600,note_off,,,,,1024,0,1,,,74,0,0
25600,note_off,,,,,1024,0,4,,,58,0,3
25600,note_on,,,,,0,0,4,,,57,96,3
25600,note_on,,,,,0,0,5,,,69,96,4
25600,note_off,,,,,1024,0,6,,,62,0,5
25600,note_on,,,,,0,0,6,,,64,96,5
25600,note_on,,,,,0,0,2,,,69,96,1
25600,note_off,,,,,512,0,5,,,67,0,4
25600,note_off,,,,,512,0,2,,,67,0,1
25600,note_on,,,,,0,0,3,,,64,96,2
25600,note_on,,,,,0,0,1,,,73,96,0
25600,note_off,,,,,1024,0,3,,,62,0,2
26624,note_on,,,,,0,0,2,,,69,96,1
26624,note_off,,,,,1024,0,2,,,69,0,1
26624,note_off,,,,,1024,0,4,,,57,0,3
26624,note_on,,,,,0,0,4,,,50,96,3
26624,note_off,,,,,1024,0,5,,,69,0,4
26624,note_on,,,,,0,0,3,,,65,96,2
26624,note_off,,,,,1024,0,3,,,64,0,2
26624,note_on,,,,,0,0,5,,,69,96,4
26624,note_on,,,,,0,0,1,,,74,96,0
26624,note_off,,,,,1024,0,1,,,73,0,0
26624,note_off,,,,,1024,0,6,,,64,0,5
26624,note_on,,,,,0,0,6,,,65,96,5
27648,note_on,,,,,0,0,1,,,74,96,0
27648,note_on,,,,,0,0,2,,,67,96,1
27648,note_off,,,,,1024,0,2,,,69,0,1
27648,note_on,,,,,0,0,3,,,59,96,2
27648,note_off,,,,,1024,0,3,,,65,0,2
27648,note_on,,,,,0,0,6,,,59,96,5
27648,note_off,,,,,1024,0,6,,,65,0,5
27648,note_off,,,,,1024,0,4,,,50,0,3
27648,note_off,,,,,1024,0,1,,,74,0,0
27648,note_on,,,,,0,0,4,,,55,96,3
27648,note_on,,,,,0,0,5,,,67,96,4
27648,note_off,,,,,1024,0,5,,,69,0,4
28672,note_on,,,,,0,0,5,,,67,96,4
28672,note_off,,,,,1024,0,5,,,67,0,4
28672,note_off,,,,,1024,0,2,,,67,0,1
28672,note_off,,,,,1024,0,3,,,59,0,2
28672,note_on,,,,,0,0,3,,,60,96,2
28672,note_off,,,,,1024,0,6,,,59,0,5
28672,note_on,,,,,0,0,6,,,60,96,5
28672,note_on,,,,,0,0,1,,,76,96,0
28672,note_off,,,,,1024,0,1,,,74,0,0
28672,note_on,,,,,0,0,4,,,48,96,3
28672,note_on,,,,,0,0,2,,,67,96,1
28672,note_off,,,,,1024,0,4,,,55,0,3
29184,note_off,,,,,512,0,3,,,60,0,2
29184,note_off,,,,,512,0,6,,,60,0,5
29184,note_on,,,,,0,0,3,,,59,96,2
29184,note_on,,,,,0,0,6,,,59,96,5
29696,note_on,,,,,0,0,2,,,66,96,1
29696,note_off,,,,,1024,0,5,,,67,0,4
29696,note_on,,,,,0,0,4,,,50,96,3
29696,note_off,,,,,1024,0,4,,,48,0,3
29696,note_on,,,,,0,0,1,,,74,96,0
29696,note_off,,,,,1024,0,1,,,76,0,0
29696,note_off,,,,,512,0,3,,,59,0,2
29696,note_on,,,,,0,0,3,,,57,96,2
29696,note_off,,,,,512,0,6,,,59,0,5
29696,note_off,,,,,1024,0,2,,,67,0,1
29696,note_on,,,,,0,0,5,,,66,96,4
29696,note_on,,,,,0,0,6,,,57,96,5
30208,note_off,,,,,512,0,2,,,66,0,1
30208,note_on,,,,,0,0,2,,,68,96,1
30208,note_on,,,,,0,0,4,,,52,96,3
30208,note_off,,,,,512,0,4,,,50,0,3
30208,note_off,,,,,512,0,5,,,66,0,4
30208,note_on,,,,,0,0,5,,,68,96,4
30720,note_on,,,,,0,0,2,,,69,96,1
30720,note_on,,,,,0,0,5,,,69,96,4
30720,note_on,,,,,0,0,4,,,54,96,3
30720,note_off,,,,,512,0,4,,,52,0,3
30720,note_off,,,,,512,0,2,,,68,0,1
30720,note_off,,,,,512,0,5,,,68,0,4
30720,note_off,,,,,1024,0,1,,,74,0,0
30720,note_on,,,,,0,0,1,,,72,96,0
30720,note_off,,,,,1024,0,6,,,57,0,5
30720,note_on,,,,,0,0,3,,,62,96,2
30720,note_on,,,,,0,0,6,,,62,96,5
30720,note_off,,,,,1024,0,3,,,57,0,2
31744,note_off,,,,,1024,0,4,,,54,0,3
31744,note_off,,,,,1024,0,1,,,72,0,0
31744,note_on,,,,,0,0,3,,,62,96,2
31744,note_off,,,,,1024,0,3,,,62,0,2
31744,note_on,,,,,0,0,1,,,71,96,0
31744,note_on,,,,,0,0,4,,,56,96,3
31744,note_off,,,,,1024,0,6,,,62,0,5
31744,note_on,,,,,0,0,6,,,62,96,5
31744,note_off,,,,,1024,0,5,,,69,0,4
31744,note_off,,,,,1024,0,2,,,69,0,1
31744,note_on,,,,,0,0,2,,,64,96,1
31744,note_on,,,,,0,0,5,,,64,96,4
32768,note_off,,,,,1024,0,3,,,62,0,2
32768,note_off,,,,,1024,0,5,,,64,0,4
32768,note_on,,,,,0,0,3,,,60,96,2
32768,note_on,,,,,0,0,5,,,64,96,4
32768,note_on,,,,,0,0,6,,,60,96,5
32768,note_off,,,,,1024,0,4,,,56,0,3
32768,note_on,,,,,0,0,1,,,69,96,0
32768,note_off,,,,,1024,0,6,,,62,0,5
32768,note_off,,,,,1024,0,2,,,64,0,1
32768,note_on,,,,,0,0,2,,,64,96,1
32768,note_on,,,,,0,0,4,,,57,96,3
32768,note_off,,,,,1024,0,1,,,71,0,0
33280,note_off,,,,,512,0,5,,,64,0,4
33280,note_on,,,,,0,0,5,,,69,96,4
33280,note_off,,,,,512,0,2,,,64,0,1
33280,note_on,,,,,0,0,2,,,69,96,1
33792,note_on,,,,,0,0,3,,,62,96,2
33792,note_off,,,,,1024,0,6,,,60,0,5
33792,note_on,,,,,0,0,1,,,71,96,0
33792,note_off,,,,,1024,0,1,,,69,0,0
33792,note_on,,,,,0,0,4,,,52,96,3
33792,note_off,,,,,1024,0,4,,,57,0,3
33792,note_off,,,,,512,0,2,,,69,0,1
33792,note_off,,,,,512,0,5,,,69,0,4
33792,note_on,,,,,0,0,6,,,62,96,5
33792,note_on,,,,,0,0,5,,,69,96,4
33792,note_off,,,,,1024,0,3,,,60,0,2
33792,note_on,,,,,0,0,2,,,69,96,1
34304,note_off,,,,,512,0,5,,,69,0,4
34304,note_on,,,,,0,0,5,,,68,96,4
34304,note_off,,,,,512,0,2,,,69,0,1
34304,note_on,,,,,0,0,2,,,68,96,1
34816,note_on,,,,,0,0,5,,,64,96,4
34816,note_on,,,,,0,0,2,,,64,96,1
34816,note_on,,,,,0,0,6,,,60,96,5
34816,note_off,,,,,1024,0,6,,,62,0,5
34816,note_off,,,,,512,0,5,,,68,0,4
34816,note_off,,,,,512,0,2,,,68,0,1
34816,note_off,,,,,1024,0,1,,,71,0,0
34816,note_off,,,,,1024,0,3,,,62,0,2
34816,note_on,,,,,0,0,3,,,60,96,2
34816,note_off,,,,,1024,0,4,,,52,0,3
34816,note_on,,,,,0,0,4,,,45,96,3
34816,note_on,,,,,0,0,1,,,69,96,0
35840,note_on,,,,,0,0,2,,,62,96,1
35840,note_off,,,,,1024,0,2,,,64,0,1
35840,note_off,,,,,1024,0,3,,,60,0,2
35840,note_on,,,,,0,0,4,,,47,96,3
35840,note_on,,,,,0,0,1,,,74,96,0
35840,note_on,,,,,0,0,5,,,62,96,4
35840,note_off,,,,,1024,0,5,,,64,0,4
35840,note_on,,,,,0,0,6,,,55,96,5
35840,note_on,,,,,0,0,3,,,55,96,2
35840,note_off,,,,,1024,0,1,,,69,0,0
35840,note_off,,,,,1024,0,4,,,45,0,3
35840,note_off,,,,,1024,0,6,,,60,0,5
36864,note_off,,,,,1024,0,6,,,55,0,5
36864,note_on,,,,,0,0,6,,,55,96,5
36864,note_on,,,,,0,0,3,,,55,96,2
36864,note_off,,,,,1024,0,5,,,62,0,4
36864,note_on,,,,,0,0,1,,,72,96,0
36864,note_on,,,,,0,0,5,,,64,96,4
36864,note_off,,,,,1024,0,4,,,47,0,3
36864,note_off,,,,,1024,0,1,,,74,0,0
36864,note_on,,,,,0,0,2,,,64,96,1
36864,note_off,,,,,1024,0,2,,,62,0,1
36864,note_off,,,,,1024,0,3,,,55,0,2
36864,note_on,,,,,0,0,4,,,48,96,3
37888,note_on,,,,,0,0,5,,,65,96,4
37888,note_off,,,,,1024,0,5,,,64,0,4
37888,note_off,,,,,1024,0,6,,,55,0,5
37888,note_on,,,,,0,0,6,,,62,96,5
37888,note_off,,,,,1024,0,1,,,72,0,0
37888,note_on,,,,,0,0,4,,,50,96,3
37888,note_off,,,,,1024,0,4,,,48,0,3
37888,note_on,,,,,0,0,2,,,65,96,1
37888,note_off,,,,,1024,0,2,,,64,0,1
37888,note_off,,,,,1024,0,3,,,55,0,2
37888,note_on,,,,,0,0,3,,,62,96,2
37888,note_on,,,,,0,0,1,,,71,96,0
38912,note_off,,,,,1024,0,2,,,65,0,1
38912,note_on,,,,,0,0,6,,,60,96,5
38912,note_off,,,,,1024,0,6,,,62,0,5
38912,note_off,,,,,1024,0,5,,,65,0,4
38912,note_on,,,,,0,0,5,,,67,96,4
38912,note_on,,,,,0,0,2,,,67,96,1
38912,note_off,,,,,1024,0,1,,,71,0,0
38912,note_on,,,,,0,0,1,,,72,96,0
38912,note_on,,,,,0,0,3,,,60,96,2
38912,note_off,,,,,1024,0,3,,,62,0,2
38912,note_off,,,,,1024,0,4,,,50,0,3
38912,note_on,,,,,0,0,4,,,52,96,3
39936,note_on,,,,,0,0,5,,,65,96,4
39936,note_off,,,,,1024,0,5,,,67,0,4
39936,note_off,,,,,1024,0,1,,,72,0,0
39936,note_on,,,,,0,0,1,,,69,96,0
39936,note_on,,,,,0,0,3,,,60,96,2
39936,note_off,,,,,1024,0,6,,,60,0,5
39936,note_on,,,,,0,0,6,,,60,96,5
39936,note_on,,,,,0,0,2,,,65,96,1
39936,note_off,,,,,1024,0,2,,,67,0,1
39936,note_off,,,,,1024,0,3,,,60,0,2
39936,note_on,,,,,0,0,4,,,53,96,3
39936,note_off,,,,,1024,0,4,,,52,0,3
40960,note_off,,,,,1024,0,2,,,65,0,1
40960,note_on,,,,,0,0,2,,,65,96,1
40960,note_off,,,,,1024,0,3,,,60,0,2
40960,note_on,,,,,0,0,3,,,62,96,2
40960,note_off,,,,,1024,0,1,,,69,0,0
40960,note_on,,,,,0,0,5,,,65,96,4
40960,note_off,,,,,1024,0,5,,,65,0,4
40960,note_on,,,,,0,0,1,,,69,96,0
40960,note_on,,,,,0,0,6,,,62,96,5
40960,note_off,,,,,1024,0,4,,,53,0,3
40960,note_off,,,,,1024,0,6,,,60,0,5
40960,note_on,,,,,0,0,4,,,46,96,3
41984,note_on,,,,,0,0,5,,,64,96,4
41984,note_off,,,,,1024,0,5,,,65,0,4
41984,note_off,,,,,1024,0,1,,,69,0,0
41984,note_on,,,,,0,0,1,,,67,96,0
41984,note_off,,,,,1024,0,4,,,46,0,3
41984,note_off,,,,,1024,0,6,,,62,0,5
41984,note_on,,,,,0,0,4,,,48,96,3
41984,note_off,,,,,1024,0,3,,,62,0,2
41984,note_on,,,,,0,0,6,,,55,96,5
41984,note_on,,,,,0,0,2,,,64,96,1
41984,note_off,,,,,1024,0,2,,,65,0,1
41984,note_on,,,,,0,0,3,,,55,96,2
43008,note_on,,,,,0,0,1,,,65,96,0
43008,note_off,,,,,1024,0,1,,,67,0,0
43008,note_off,,,,,1024,0,6,,,55,0,5
43008,note_on,,,,,0,0,2,,,60,96,1
43008,note_off,,,,,1024,0,2,,,64,0,1
43008,note_on,,,,,0,0,6,,,57,96,5
43008,note_off,,,,,1024,0,3,,,55,0,2
43008,note_on,,,,,0,0,3,,,57,96,2
43008,note_on,,,,,0,0,5,,,60,96,4
43008,note_off,,,,,1024,0,4,,,48,0,3
43008,note_on,,,,,0,0,4,,,41,96,3
43008,note_off,,,,,1024,0,5,,,64,0,4
44032,note_off,,,,,1024,0,2,,,60,0,1
44032,note_on,,,,,0,0,2,,,62,96,1
44032,note_off,,,,,1024,0,5,,,60,0,4
44032,note_on,,,,,0,0,1,,,69,96,0
44032,note_on,,,,,0,0,6,,,57,96,5
44032,note_on,,,,,0,0,3,,,57,96,2
44032,note_off,,,,,1024,0,1,,,65,0,0
44032,note_off,,,,,1024,0,3,,,57,0,2
44032,note_off,,,,,1024,0,4,,,41,0,3
44032,note_on,,,,,0,0,4,,,42,96,3
44032,note_on,,,,,0,0,5,,,62,96,4
44032,note_off,,,,,1024,0,6,,,57,0,5
45056,note_on,,,,,0,0,4,,,43,96,3
45056,note_on,,,,,0,0,2,,,62,96,1
45056,note_on,,,,,0,0,1,,,70,96,0
45056,note_off,,,,,1024,0,1,,,69,0,0
45056,note_off,,,,,1024,0,2,,,62,0,1
45056,note_on,,,,,0,0,6,,,62,96,5
45056,note_off,,,,,1024,0,6,,,57,0,5
45056,note_off,,,,,1024,0,4,,,42,0,3
45056,note_on,,,,,0,0,3,,,55,96,2
45056,note_off,,,,,1024,0,3,,,57,0,2
45056,note_on,,,,,0,0,5,,,62,96,4
45056,note_off,,,,,1024,0,5,,,62,0,4
45568,note_off,,,,,512,0,3,,,55,0,2
45568,note_on,,,,,0,0,3,,,53,96,2
46080,note_off,,,,,512,0,3,,,53,0,2
46080,note_on,,,,,0,0,2,,,61,96,1
46080,note_on,,,,,0,0,5,,,61,96,4
46080,note_on,,,,,0,0,3,,,52,96,2
46080,note_off,,,,,1024,0,2,,,62,0,1
46080,note_off,,,,,1024,0,5,,,62,0,4
46080,note_on,,,,,0,0,6,,,57,96,5
46080,note_off,,,,,1024,0,6,,,62,0,5
46080,note_off,,,,,1024,0,4,,,43,0,3
46080,note_on,,,,,0,0,4,,,45,96,3
46080,note_off,,,,,1024,0,1,,,70,0,0
46080,note_on,,,,,0,0,1,,,69,96,0
46592,note_off,,,,,512,0,1,,,69,0,0
46592,note_on,,,,,0,0,1,,,67,96,0
47104,note_on,,,,,0,0,2,,,62,96,1
47104,note_on,,,,,0,0,6,,,62,96,5
47104,note_off,,,,,1024,0,6,,,57,0,5
47104,note_off,,,,,1024,0,5,,,61,0,4
47104,note_off,,,,,512,0,1,,,67,0,0
47104,note_on,,,,,0,0,5,,,62,96,4
47104,note_off,,,,,1024,0,4,,,45,0,3
47104,note_off,,,,,1024,0,3,,,52,0,2
47104,note_on,,,,,0,0,3,,,58,96,2
47104,note_on,,,,,0,0,4,,,46,96,3
47104,note_off,,,,,1024,0,2,,,61,0,1
47104,note_on,,,,,0,0,1,,,65,96,0
47616,note_off,,,,,512,0,6,,,62,0,5
47616,note_on,,,,,0,0,6,,,60,96,5
48128,note_on,,,,,0,0,1,,,67,96,0
48128,note_off,,,,,1024,0,1,,,65,0,0
48128,note_on,,,,,0,0,6,,,58,96,5
48128,note_on,,,,,0,0,2,,,64,96,1
48128,note_off,,,,,1024,0,4,,,46,0,3
48128,note_off,,,,,1024,0,2,,,62,0,1
48128,note_off,,,,,512,0,6,,,60,0,5
48128,note_on,,,,,0,0,5,,,64,96,4
48128,note_on,,,,,0,0,4,,,45,96,3
48128,note_off,,,,,1024,0,5,,,62,0,4
48640,note_on,,,,,0,0,4,,,43,96,3
48640,note_off,,,,,512,0,4,,,45,0,3
49152,note_on,,,,,0,0,1,,,65,96,0
49152,note_off,,,,,1024,0,1,,,67,0,0
49152,note_off,,,,,1024,0,2,,,64,0,1
49152,note_on,,,,,0,0,4,,,45,96,3
49152,note_off,,,,,512,0,4,,,43,0,3
49152,note_off,,,,,1024,0,6,,,58,0,5
49152,note_on,,,,,0,0,6,,,58,96,5
49152,note_on,,,,,0,0,2,,,61,96,1
49664,note_off,,,,,2560,0,3,,,58,0,2
49664,note_on,,,,,0,0,3,,,57,96,2
49664,note_off,,,,,1536,0,5,,,64,0,4
49664,note_on,,,,,0,0,5,,,62,96,4
49664,note_off,,,,,512,0,6,,,58,0,5
49664,note_on,,,,,0,0,6,,,57,96,5
49664,note_on,,,,,0,0,2,,,62,96,1
49664,note_off,,,,,512,0,2,,,61,0,1
50176,note_off,,,,,512,0,6,,,57,0,5
50176,note_off,,,,,512,0,3,,,57,0,2
50176,note_off,,,,,1024,0,1,,,65,0,0
50176,note_on,,,,,0,0,1,,,64,96,0
50176,note_off,,,,,1024,0,4,,,45,0,3
50176,note_on,,,,,0,0,4,,,45,96,3
50176,note_on,,,,,0,0,6,,,55,96,5
50176,note_on,,,,,0,0,3,,,55,96,2
50688,note_on,,,,,0,0,6,,,57,96,5
50688,note_on,,,,,0,0,3,,,57,96,2
50688,note_off,,,,,1024,0,5,,,62,0,4
50688,note_on,,,,,0,0,5,,,61,96,4
50688,note_off,,,,,1024,0,2,,,62,0,1
50688,note_on,,,,,0,0,2,,,61,96,1
50688,note_off,,,,,512,0,6,,,55,0,5
50688,note_off,,,,,512,0,3,,,55,0,2
51200,note_on,,,,,0,0,4,,,50,96,3
51200,note_off,,,,,1024,0,4,,,45,0,3
51200,note_on,,,,,0,0,1,,,62,96,0
51200,note_off,,,,,1024,0,1,,,64,0,0
51200,note_on,,,,,0,0,2,,,57,96,1
51200,note_on,,,,,0,0,5,,,57,96,4
51200,note_on,,,,,0,0,6,,,54,96,5
51200,note_off,,,,,512,0,6,,,57,0,5
51200,note_off,,,,,512,0,5,,,61,0,4
51200,note_on,,,,,0,0,3,,,54,96,2
51200,note_off,,,,,512,0,3,,,57,0,2
51200,note_off,,,,,512,0,2,,,61,0,1
53248,note_off,,,,,2048,0,4,,,50,0,3
53248,note_off,,,,,2048,0,2,,,57,0,1
53248,end_of_track,,,,,0,1,1,,,,,
53248,end_of_track,,,,,0,1,4,,,,,
53248,end_of_track,,,,,0,1,2,,,,,
53248,end_of_track,,,,,53248,1,0,,,,,
53248,end_of_track,,,,,0,1,5,,,,,
53248,note_off,,,,,2048,0,5,,,57,0,4
53248,note_off,,,,,2048,0,3,,,54,0,2
53248,end_of_track,,,,,0,1,3,,,,,
53248,note_off,,,,,2048,0,6,,,54,0,5
53248,note_off,,,,,2048,0,1,,,62,0,0
53248,end_of_track,,,,,0,1,6,,,,,
