tick,type,numerator,denominator,clocks_per_click,notated_32nd_notes_per_beat,time,meta,track,key,tempo,note,velocity,channel
0,time_signature,4,4,24,8,0,1,0,,,,,
0,track_name,,,,,0,1,6,,,,,
0,note_on,,,,,0,0,5,,,53,96,4
0,track_name,,,,,0,1,5,,,,,
0,track_name,,,,,0,1,4,,,,,
0,track_name,,,,,0,1,7,,,,,
0,track_name,,,,,0,1,3,,,,,
0,track_name,,,,,0,1,2,,,,,
0,track_name,,,,,0,1,8,,,,,
0,track_name,,,,,0,1,1,,,,,
0,set_tempo,,,,,0,1,0,,857142,,,
0,key_signature,,,,,0,1,0,F,,,,
1024,note_off,,,,,1024,0,5,,,53,0,4
1024,note_on,,,,,1024,0,1,,,69,96,0
1536,note_on,,,,,0,0,1,,,65,96,0
1536,note_off,,,,,512,0,1,,,69,0,0
2048,note_on,,,,,0,0,1,,,72,96,0
2048,note_off,,,,,512,0,1,,,65,0,0
3072,note_on,,,,,2048,0,5,,,57,96,4
3072,note_on,,,,,3072,0,4,,,57,96,3
3072,note_off,,,,,1024,0,1,,,72,0,0
3072,note_on,,,,,3072,0,2,,,72,96,1
3072,note_on,,,,,3072,0,3,,,65,96,2
3072,note_on,,,,,0,0,1,,,72,96,0
3584,note_on,,,,,0,0,5,,,53,96,4
3584,note_off,,,,,512,0,5,,,57,0,4
3584,note_on,,,,,0,0,4,,,53,96,3
3584,note_off,,,,,512,0,4,,,57,0,3
3584,note_off,,,,,512,0,3,,,65,0,2
3584,note_off,,,,,512,0,1,,,72,0,0
3584,note_on,,,,,0,0,3,,,60,96,2
3584,note_off,,,,,512,0,2,,,72,0,1
3584,note_on,,,,,0,0,2,,,69,96,1
3584,note_on,,,,,0,0,1,,,77,96,0
4096,note_off,,,,,512,0,3,,,60,0,2
4096,note_on,,,,,0,0,2,,,67,96,1
4096,note_off,,,,,512,0,4,,,53,0,3
4096,note_on,,,,,0,0,4,,,60,96,3
4096,note_on,,,,,0,0,5,,,60,96,4
4096,note_off,,,,,512,0,5,,,53,0,4
4096,note_on,,,,,0,0,3,,,60,96,2
4096,note_off,,,,,512,0,2,,,69,0,1
4096,note_on,,,,,0,0,1,,,76,96,0
4096,note_off,,,,,512,0,1,,,77,0,0
5120,note_on,,,,,0,0,5,,,57,96,4
5120,note_on,,,,,0,0,2,,,69,96,1
5120,note_off,,,,,1024,0,4,,,60,0,3
5120,note_off,,,,,1024,0,2,,,67,0,1
5120,note_on,,,,,0,0,3,,,60,96,2
5120,note_on,,,,,0,0,4,,,57,96,3
5120,note_off,,,,,1024,0,3,,,60,0,2
5120,note_off,,,,,1024,0,5,,,60,0,4
5120,note_on,,,,,0,0,1,,,77,96,0
5120,note_off,,,,,1024,0,1,,,76,0,0
5632,note_on,,,,,0,0,5,,,53,96,4
5632,note_on,,,,,0,0,2,,,72,96,1
5632,note_off,,,,,512,0,2,,,69,0,1
5632,note_off,,,,,512,0,1,,,77,0,0
5632,note_off,,,,,512,0,3,,,60,0,2
5632,note_off,,,,,512,0,5,,,57,0,4
5632,note_on,,,,,0,0,1,,,81,96,0
5632,note_off,,,,,512,0,4,,,57,0,3
5632,note_on,,,,,0,0,4,,,53,96,3
5632,note_on,,,,,0,0,3,,,57,96,2
6144,note_off,,,,,512,0,1,,,81,0,0
6144,note_off,,,,,512,0,4,,,53,0,3
6144,note_on,,,,,0,0,3,,,62,96,2
6144,note_on,,,,,0,0,1,,,74,96,0
6144,note_on,,,,,0,0,5,,,58,96,4
6144,note_off,,,,,512,0,5,,,53,0,4
6144,note_on,,,,,0,0,4,,,58,96,3
6144,note_on,,,,,0,0,2,,,65,96,1
6144,note_off,,,,,512,0,2,,,72,0,1
6144,note_off,,,,,512,0,3,,,57,0,2
6400,note_off,,,,,256,0,3,,,62,0,2
6400,note_on,,,,,0,0,3,,,60,96,2
6656,note_on,,,,,0,0,5,,,58,96,4
6656,note_off,,,,,512,0,5,,,58,0,4
6656,note_off,,,,,512,0,4,,,58,0,3
6656,note_off,,,,,512,0,1,,,74,0,0
6656,note_on,,,,,0,0,1,,,74,96,0
6656,note_on,,,,,0,0,2,,,65,96,1
6656,note_on,,,,,0,0,4,,,58,96,3
6656,note_off,,,,,512,0,2,,,65,0,1
6656,note_on,,,,,0,0,3,,,58,96,2
6656,note_off,,,,,256,0,3,,,60,0,2
6912,note_on,,,,,0,0,3,,,57,96,2
6912,note_off,,,,,256,0,3,,,58,0,2
7168,note_off,,,,,512,0,4,,,58,0,3
7168,note_on,,,,,0,0,3,,,55,96,2
7168,note_off,,,,,256,0,3,,,57,0,2
7168,note_on,,,,,0,0,4,,,58,96,3
7168,note_on,,,,,0,0,1,,,79,96,0
7168,note_on,,,,,0,0,5,,,58,96,4
7168,note_off,,,,,512,0,5,,,58,0,4
7168,note_off,,,,,512,0,2,,,65,0,1
7168,note_on,,,,,0,0,2,,,70,96,1
7168,note_off,,,,,512,0,1,,,74,0,0
7424,note_off,,,,,256,0,1,,,79,0,0
7424,note_off,,,,,256,0,2,,,70,0,1
7424,note_on,,,,,0,0,2,,,69,96,1
7424,note_on,,,,,0,0,1,,,77,96,0
7680,note_on,,,,,0,0,3,,,62,96,2
7680,note_on,,,,,0,0,2,,,67,96,1
7680,note_off,,,,,512,0,3,,,55,0,2
7680,note_off,,,,,256,0,1,,,77,0,0
7680,note_off,,,,,256,0,2,,,69,0,1
7680,note_on,,,,,0,0,1,,,76,96,0
7936,note_on,,,,,0,0,1,,,74,96,0
7936,note_off,,,,,256,0,1,,,76,0,0
7936,note_off,,,,,256,0,2,,,67,0,1
7936,note_on,,,,,0,0,2,,,65,96,1
8192,note_off,,,,,512,0,3,,,62,0,2
8192,note_off,,,,,256,0,1,,,74,0,0
8192,note_on,,,,,0,0,1,,,72,96,0
8192,note_off,,,,,256,0,2,,,65,0,1
8192,note_on,,,,,0,0,2,,,64,96,1
8192,note_on,,,,,0,0,3,,,67,96,2
8448,note_on,,,,,0,0,3,,,65,96,2
8448,note_off,,,,,256,0,3,,,67,0,2
8704,note_off,,,,,1536,0,4,,,58,0,3
8704,note_on,,,,,0,0,4,,,60,96,3
8704,note_on,,,,,0,0,5,,,60,96,4
8704,note_on,,,,,0,0,2,,,64,96,1
8704,note_on,,,,,0,0,3,,,64,96,2
8704,note_off,,,,,256,0,3,,,65,0,2
8704,note_off,,,,,512,0,2,,,64,0,1
8704,note_on,,,,,0,0,1,,,72,96,0
8704,note_off,,,,,512,0,1,,,72,0,0
8704,note_off,,,,,1536,0,5,,,58,0,4
8960,note_off,,,,,256,0,4,,,60,0,3
8960,note_on,,,,,0,0,4,,,58,96,3
8960,note_off,,,,,256,0,3,,,64,0,2
8960,note_on,,,,,0,0,5,,,58,96,4
8960,note_off,,,,,256,0,5,,,60,0,4
8960,note_on,,,,,0,0,3,,,62,96,2
9216,note_on,,,,,9216,0,7,,,65,96,6
9216,note_on,,,,,0,0,2,,,65,96,1
9216,note_off,,,,,512,0,2,,,64,0,1
9216,note_on,,,,,9216,0,8,,,60,96,7
9216,note_on,,,,,0,0,1,,,77,96,0
9216,note_on,,,,,0,0,3,,,60,96,2
9216,note_off,,,,,256,0,3,,,62,0,2
9216,note_on,,,,,0,0,6,,,77,96,5
9216,note_off,,,,,512,0,1,,,72,0,0
9216,note_off,,,,,256,0,5,,,58,0,4
9216,note_on,,,,,0,0,5,,,57,96,4
9216,note_on,,,,,9216,0,6,,,77,96,5
9216,note_off,,,,,256,0,4,,,58,0,3
9216,note_on,,,,,0,0,4,,,57,96,3
9728,note_on,,,,,0,0,1,,,81,96,0
9728,note_off,,,,,512,0,1,,,77,0,0
9728,note_off,,,,,512,0,5,,,57,0,4
9728,note_on,,,,,0,0,5,,,55,96,4
9728,note_on,,,,,0,0,4,,,55,96,3
9728,note_off,,,,,512,0,4,,,57,0,3
9728,note_on,,,,,0,0,6,,,81,96,5
9728,note_off,,,,,512,0,6,,,77,0,5
9728,note_on,,,,,0,0,2,,,65,96,1
9728,note_on,,,,,0,0,6,,,81,96,5
9728,note_off,,,,,512,0,2,,,65,0,1
9728,note_on,,,,,0,0,8,,,60,96,7
9728,note_off,,,,,512,0,8,,,60,0,7
9728,note_on,,,,,0,0,3,,,58,96,2
9728,note_off,,,,,512,0,3,,,60,0,2
9728,note_on,,,,,0,0,7,,,65,96,6
9728,note_off,,,,,512,0,7,,,65,0,6
9728,note_off,,,,,0,0,6,,,77,0,5
9984,note_on,,,,,0,0,3,,,57,96,2
9984,note_off,,,,,256,0,3,,,58,0,2
9984,note_on,,,,,0,0,4,,,53,96,3
9984,note_off,,,,,256,0,4,,,55,0,3
9984,note_off,,,,,256,0,5,,,55,0,4
9984,note_on,,,,,0,0,5,,,53,96,4
10240,note_on,,,,,0,0,6,,,74,96,5
10240,note_on,,,,,0,0,2,,,65,96,1
10240,note_off,,,,,512,0,2,,,65,0,1
10240,note_on,,,,,0,0,4,,,58,96,3
10240,note_on,,,,,0,0,3,,,62,96,2
10240,note_off,,,,,256,0,3,,,57,0,2
10240,note_on,,,,,0,0,8,,,62,96,7
10240,note_off,,,,,512,0,8,,,60,0,7
10240,note_off,,,,,512,0,6,,,81,0,5
10240,note_off,,,,,512,0,1,,,81,0,0
10240,note_on,,,,,0,0,1,,,74,96,0
10240,note_off,,,,,256,0,4,,,53,0,3
10240,note_on,,,,,0,0,5,,,58,96,4
10240,note_on,,,,,0,0,6,,,74,96,5
10240,note_off,,,,,256,0,5,,,53,0,4
10240,note_off,,,,,0,0,6,,,81,0,5
10240,note_on,,,,,0,0,7,,,65,96,6
10240,note_off,,,,,512,0,7,,,65,0,6
10752,note_on,,,,,0,0,8,,,58,96,7
10752,note_off,,,,,512,0,2,,,65,0,1
10752,note_off,,,,,512,0,6,,,74,0,5
10752,note_on,,,,,0,0,6,,,79,96,5
10752,note_on,,,,,0,0,4,,,57,96,3
10752,note_on,,,,,0,0,3,,,58,96,2
10752,note_off,,,,,512,0,3,,,62,0,2
10752,note_on,,,,,0,0,6,,,79,96,5
10752,note_off,,,,,0,0,6,,,74,0,5
10752,note_off,,,,,512,0,4,,,58,0,3
10752,note_off,,,,,512,0,8,,,62,0,7
10752,note_on,,,,,0,0,5,,,57,96,4
10752,note_off,,,,,512,0,5,,,58,0,4
10752,note_off,,,,,512,0,7,,,65,0,6
10752,note_on,,,,,0,0,7,,,70,96,6
10752,note_off,,,,,512,0,1,,,74,0,0
10752,note_on,,,,,0,0,1,,,79,96,0
10752,note_on,,,,,0,0,2,,,70,96,1
11008,note_on,,,,,0,0,5,,,55,96,4
11008,note_off,,,,,256,0,5,,,57,0,4
11008,note_off,,,,,256,0,4,,,57,0,3
11008,note_on,,,,,0,0,4,,,55,96,3
11264,note_off,,,,,512,0,2,,,70,0,1
11264,note_on,,,,,0,0,3,,,60,96,2
11264,note_off,,,,,512,0,3,,,58,0,2
11264,note_off,,,,,256,0,4,,,55,0,3
11264,note_off,,,,,256,0,5,,,55,0,4
11264,note_off,,,,,512,0,8,,,58,0,7
11264,note_off,,,,,0,0,6,,,79,0,5
11264,note_on,,,,,0,0,6,,,76,96,5
11264,note_on,,,,,0,0,6,,,76,96,5
11264,note_off,,,,,512,0,6,,,79,0,5
11264,note_on,,,,,0,0,2,,,67,96,1
11264,note_off,,,,,512,0,7,,,70,0,6
11264,note_on,,,,,0,0,7,,,67,96,6
11264,note_on,,,,,0,0,8,,,60,96,7
11264,note_on,,,,,0,0,4,,,60,96,3
11264,note_on,,,,,0,0,5,,,60,96,4
11264,note_on,,,,,0,0,1,,,76,96,0
11264,note_off,,,,,512,0,1,,,79,0,0
11776,note_on,,,,,0,0,5,,,48,96,4
11776,note_off,,,,,512,0,8,,,60,0,7
11776,note_on,,,,,0,0,8,,,60,96,7
11776,note_on,,,,,0,0,4,,,48,96,3
11776,note_off,,,,,512,0,5,,,60,0,4
11776,note_off,,,,,512,0,4,,,60,0,3
12032,note_off,,,,,0,0,6,,,76,0,5
12032,note_on,,,,,0,0,7,,,69,96,6
12032,note_off,,,,,768,0,7,,,67,0,6
12032,note_on,,,,,0,0,1,,,77,96,0
12032,note_off,,,,,768,0,3,,,60,0,2
12032,note_on,,,,,0,0,3,,,60,96,2
12032,note_on,,,,,0,0,6,,,77,96,5
12032,note_off,,,,,768,0,6,,,76,0,5
12032,note_off,,,,,768,0,1,,,76,0,0
12032,note_off,,,,,768,0,2,,,67,0,1
12032,note_on,,,,,0,0,2,,,69,96,1
12032,note_on,,,,,0,0,6,,,77,96,5
12288,note_off,,,,,256,0,3,,,60,0,2
12288,note_off,,,,,512,0,4,,,48,0,3
12288,note_on,,,,,0,0,4,,,53,96,3
12288,note_on,,,,,0,0,8,,,60,96,7
12288,note_off,,,,,512,0,8,,,60,0,7
12288,note_on,,,,,0,0,1,,,77,96,0
12288,note_on,,,,,0,0,3,,,60,96,2
12288,note_off,,,,,512,0,5,,,48,0,4
12288,note_on,,,,,0,0,7,,,69,96,6
12288,note_off,,,,,256,0,1,,,77,0,0
12288,note_off,,,,,256,0,7,,,69,0,6
12288,note_on,,,,,0,0,2,,,69,96,1
12288,note_off,,,,,256,0,2,,,69,0,1
12288,note_on,,,,,0,0,6,,,77,96,5
12288,note_on,,,,,0,0,6,,,77,96,5
12288,note_off,,,,,0,0,6,,,77,0,5
12288,note_off,,,,,256,0,6,,,77,0,5
12288,note_on,,,,,0,0,5,,,53,96,4
12800,note_off,,,,,512,0,3,,,60,0,2
12800,note_off,,,,,512,0,1,,,77,0,0
12800,note_on,,,,,0,0,1,,,69,96,0
12800,note_off,,,,,512,0,8,,,60,0,7
12800,note_off,,,,,512,0,7,,,69,0,6
12800,note_off,,,,,0,0,6,,,77,0,5
12800,note_off,,,,,512,0,6,,,77,0,5
12800,note_on,,,,,0,0,3,,,60,96,2
13312,note_off,,,,,512,0,3,,,60,0,2
13312,note_off,,,,,512,0,1,,,69,0,0
13312,note_on,,,,,0,0,1,,,74,96,0
13312,note_off,,,,,1024,0,2,,,69,0,1
13312,note_off,,,,,1024,0,5,,,53,0,4
13312,note_off,,,,,1024,0,4,,,53,0,3
13312,note_on,,,,,0,0,3,,,65,96,2
13824,note_on,,,,,512,0,5,,,50,96,4
13824,note_on,,,,,512,0,4,,,50,96,3
13824,note_on,,,,,512,0,2,,,65,96,1
14080,note_on,,,,,0,0,2,,,67,96,1
14080,note_off,,,,,256,0,2,,,65,0,1
14336,note_on,,,,,0,0,5,,,57,96,4
14336,note_off,,,,,256,0,2,,,67,0,1
14336,note_off,,,,,512,0,5,,,50,0,4
14336,note_on,,,,,0,0,2,,,69,96,1
14336,note_off,,,,,512,0,4,,,50,0,3
14336,note_on,,,,,0,0,4,,,57,96,3
14848,note_off,,,,,1536,0,1,,,74,0,0
14848,note_on,,,,,0,0,1,,,72,96,0
14848,note_off,,,,,1536,0,3,,,65,0,2
14848,note_on,,,,,0,0,3,,,64,96,2
15104,note_off,,,,,256,0,1,,,72,0,0
15104,note_on,,,,,0,0,1,,,71,96,0
15104,note_off,,,,,256,0,3,,,64,0,2
15104,note_on,,,,,0,0,3,,,62,96,2
15360,note_off,,,,,256,0,1,,,71,0,0
15360,note_on,,,,,0,0,1,,,72,96,0
15360,note_on,,,,,0,0,3,,,64,96,2
15360,note_off,,,,,256,0,3,,,62,0,2
15872,note_off,,,,,512,0,3,,,64,0,2
15872,note_on,,,,,0,0,2,,,62,96,1
15872,note_off,,,,,1536,0,2,,,69,0,1
15872,note_on,,,,,0,0,3,,,69,96,2
15872,note_off,,,,,1536,0,4,,,57,0,3
15872,note_on,,,,,0,0,4,,,55,96,3
15872,note_on,,,,,0,0,1,,,77,96,0
15872,note_off,,,,,512,0,1,,,72,0,0
15872,note_on,,,,,0,0,5,,,55,96,4
15872,note_off,,,,,1536,0,5,,,57,0,4
16128,note_off,,,,,256,0,4,,,55,0,3
16128,note_on,,,,,0,0,4,,,53,96,3
16128,note_on,,,,,0,0,5,,,53,96,4
16128,note_off,,,,,256,0,5,,,55,0,4
16384,note_on,,,,,0,0,1,,,71,96,0
16384,note_off,,,,,512,0,1,,,77,0,0
16384,note_on,,,,,0,0,2,,,67,96,1
16384,note_off,,,,,512,0,2,,,62,0,1
16384,note_on,,,,,0,0,4,,,55,96,3
16384,note_off,,,,,256,0,4,,,53,0,3
16384,note_on,,,,,0,0,3,,,62,96,2
16384,note_on,,,,,0,0,5,,,55,96,4
16384,note_off,,,,,256,0,5,,,53,0,4
16384,note_off,,,,,512,0,3,,,69,0,2
16896,note_on,,,,,0,0,1,,,67,96,0
16896,note_off,,,,,512,0,1,,,71,0,0
16896,note_off,,,,,512,0,3,,,62,0,2
16896,note_on,,,,,0,0,2,,,62,96,1
16896,note_on,,,,,0,0,3,,,59,96,2
16896,note_off,,,,,512,0,4,,,55,0,3
16896,note_on,,,,,0,0,4,,,55,96,3
16896,note_off,,,,,512,0,5,,,55,0,4
16896,note_on,,,,,0,0,5,,,55,96,4
16896,note_off,,,,,512,0,2,,,67,0,1
17152,note_off,,,,,256,0,4,,,55,0,3
17152,note_on,,,,,0,0,4,,,53,96,3
17152,note_off,,,,,256,0,5,,,55,0,4
17152,note_on,,,,,0,0,5,,,53,96,4
17408,note_on,,,,,4608,0,8,,,64,96,7
17408,note_off,,,,,512,0,3,,,59,0,2
17408,note_on,,,,,0,0,3,,,64,96,2
17408,note_off,,,,,256,0,5,,,53,0,4
17408,note_on,,,,,0,0,5,,,52,96,4
17408,note_off,,,,,256,0,4,,,53,0,3
17408,note_on,,,,,0,0,4,,,52,96,3
17408,note_on,,,,,0,0,6,,,79,96,5
17408,note_on,,,,,0,0,2,,,67,96,1
17408,note_off,,,,,512,0,1,,,67,0,0
17408,note_off,,,,,512,0,2,,,62,0,1
17408,note_on,,,,,4608,0,6,,,79,96,5
17408,note_on,,,,,4608,0,7,,,67,96,6
17408,note_on,,,,,0,0,1,,,79,96,0
17920,note_on,,,,,0,0,2,,,69,96,1
17920,note_off,,,,,512,0,8,,,64,0,7
17920,note_on,,,,,0,0,8,,,62,96,7
17920,note_on,,,,,0,0,6,,,77,96,5
17920,note_off,,,,,512,0,3,,,64,0,2
17920,note_on,,,,,0,0,3,,,62,96,2
17920,note_on,,,,,0,0,6,,,77,96,5
17920,note_off,,,,,512,0,5,,,52,0,4
17920,note_on,,,,,0,0,5,,,53,96,4
17920,note_off,,,,,512,0,2,,,67,0,1
17920,note_off,,,,,512,0,4,,,52,0,3
17920,note_on,,,,,0,0,4,,,53,96,3
17920,note_off,,,,,512,0,7,,,67,0,6
17920,note_off,,,,,0,0,6,,,79,0,5
17920,note_on,,,,,0,0,7,,,69,96,6
17920,note_off,,,,,512,0,6,,,79,0,5
17920,note_on,,,,,0,0,1,,,77,96,0
17920,note_off,,,,,512,0,1,,,79,0,0
18176,note_on,,,,,0,0,6,,,81,96,5
18176,note_off,,,,,256,0,6,,,77,0,5
18176,note_on,,,,,0,0,1,,,81,96,0
18176,note_off,,,,,256,0,1,,,77,0,0
18176,note_off,,,,,0,0,6,,,77,0,5
18176,note_on,,,,,0,0,6,,,81,96,5
18176,note_on,,,,,0,0,8,,,60,96,7
18176,note_on,,,,,0,0,3,,,60,96,2
18176,note_off,,,,,256,0,3,,,62,0,2
18176,note_off,,,,,256,0,8,,,62,0,7
18432,note_on,,,,,0,0,4,,,55,96,3
18432,note_off,,,,,256,0,8,,,60,0,7
18432,note_on,,,,,0,0,8,,,59,96,7
18432,note_off,,,,,256,0,1,,,81,0,0
18432,note_on,,,,,0,0,1,,,74,96,0
18432,note_on,,,,,0,0,5,,,55,96,4
18432,note_off,,,,,512,0,2,,,69,0,1
18432,note_off,,,,,512,0,4,,,53,0,3
18432,note_on,,,,,0,0,2,,,67,96,1
18432,note_on,,,,,0,0,6,,,74,96,5
18432,note_off,,,,,256,0,3,,,60,0,2
18432,note_on,,,,,0,0,3,,,59,96,2
18432,note_off,,,,,512,0,7,,,69,0,6
18432,note_off,,,,,256,0,6,,,81,0,5
18432,note_on,,,,,0,0,7,,,67,96,6
18432,note_off,,,,,0,0,6,,,81,0,5
18432,note_on,,,,,0,0,6,,,74,96,5
18432,note_off,,,,,512,0,5,,,53,0,4
18944,note_on,,,,,0,0,6,,,76,96,5
18944,note_off,,,,,0,0,6,,,74,0,5
18944,note_on,,,,,0,0,7,,,67,96,6
18944,note_off,,,,,512,0,7,,,67,0,6
18944,note_off,,,,,512,0,1,,,74,0,0
18944,note_on,,,,,0,0,1,,,76,96,0
18944,note_on,,,,,0,0,3,,,60,96,2
18944,note_off,,,,,512,0,3,,,59,0,2
18944,note_off,,,,,512,0,8,,,59,0,7
18944,note_on,,,,,0,0,8,,,60,96,7
18944,note_on,,,,,0,0,5,,,48,96,4
18944,note_off,,,,,512,0,5,,,55,0,4
18944,note_off,,,,,512,0,6,,,74,0,5
18944,note_on,,,,,0,0,6,,,76,96,5
18944,note_on,,,,,0,0,2,,,67,96,1
18944,note_off,,,,,512,0,2,,,67,0,1
18944,note_on,,,,,0,0,4,,,48,96,3
18944,note_off,,,,,512,0,4,,,55,0,3
19200,note_off,,,,,256,0,6,,,76,0,5
19200,note_on,,,,,0,0,6,,,77,96,5
19200,note_on,,,,,0,0,6,,,77,96,5
19200,note_off,,,,,0,0,6,,,76,0,5
19200,note_off,,,,,256,0,3,,,60,0,2
19200,note_on,,,,,0,0,3,,,62,96,2
19200,note_on,,,,,0,0,8,,,62,96,7
19200,note_on,,,,,0,0,1,,,77,96,0
19200,note_off,,,,,256,0,1,,,76,0,0
19200,note_off,,,,,256,0,8,,,60,0,7
19456,note_off,,,,,256,0,8,,,62,0,7
19456,note_on,,,,,0,0,8,,,60,96,7
19456,note_on,,,,,0,0,4,,,55,96,3
19456,note_off,,,,,512,0,4,,,48,0,3
19456,note_on,,,,,0,0,1,,,76,96,0
19456,note_off,,,,,256,0,1,,,77,0,0
19456,note_off,,,,,256,0,3,,,62,0,2
19456,note_on,,,,,0,0,2,,,67,96,1
19456,note_off,,,,,512,0,2,,,67,0,1
19456,note_off,,,,,512,0,7,,,67,0,6
19456,note_off,,,,,256,0,6,,,77,0,5
19456,note_on,,,,,0,0,6,,,76,96,5
19456,note_on,,,,,0,0,6,,,76,96,5
19456,note_off,,,,,0,0,6,,,77,0,5
19456,note_off,,,,,512,0,5,,,48,0,4
19456,note_on,,,,,0,0,5,,,55,96,4
19456,note_on,,,,,0,0,7,,,67,96,6
19456,note_on,,,,,0,0,3,,,60,96,2
19968,note_off,,,,,512,0,1,,,76,0,0
19968,note_on,,,,,0,0,6,,,74,96,5
19968,note_on,,,,,0,0,7,,,67,96,6
19968,note_on,,,,,0,0,1,,,74,96,0
19968,note_on,,,,,0,0,6,,,74,96,5
19968,note_off,,,,,512,0,6,,,76,0,5
19968,note_on,,,,,0,0,3,,,59,96,2
19968,note_off,,,,,512,0,7,,,67,0,6
19968,note_off,,,,,512,0,3,,,60,0,2
19968,note_off,,,,,0,0,6,,,76,0,5
19968,note_on,,,,,0,0,2,,,67,96,1
19968,note_off,,,,,512,0,2,,,67,0,1
19968,note_on,,,,,0,0,5,,,43,96,4
19968,note_on,,,,,0,0,8,,,59,96,7
19968,note_off,,,,,512,0,8,,,60,0,7
19968,note_on,,,,,0,0,4,,,43,96,3
19968,note_off,,,,,512,0,4,,,55,0,3
19968,note_off,,,,,512,0,5,,,55,0,4
20224,note_off,,,,,256,0,1,,,74,0,0
20224,note_on,,,,,0,0,6,,,72,96,5
20224,note_off,,,,,256,0,6,,,74,0,5
20224,note_on,,,,,0,0,3,,,60,96,2
20224,note_off,,,,,256,0,3,,,59,0,2
20224,note_on,,,,,0,0,6,,,72,96,5
20224,note_off,,,,,0,0,6,,,74,0,5
20224,note_off,,,,,256,0,8,,,59,0,7
20224,note_on,,,,,0,0,8,,,60,96,7
20224,note_on,,,,,0,0,1,,,72,96,0
20480,note_off,,,,,256,0,6,,,72,0,5
20480,note_on,,,,,0,0,6,,,72,96,5
20480,note_off,,,,,512,0,4,,,43,0,3
20480,note_off,,,,,512,0,5,,,43,0,4
20480,note_off,,,,,512,0,7,,,67,0,6
20480,note_off,,,,,256,0,1,,,72,0,0
20480,note_on,,,,,0,0,7,,,67,96,6
20480,note_on,,,,,0,0,5,,,48,96,4
20480,note_on,,,,,0,0,1,,,72,96,0
20480,note_on,,,,,0,0,6,,,72,96,5
20480,note_off,,,,,0,0,6,,,72,0,5
20480,note_on,,,,,0,0,8,,,60,96,7
20480,note_on,,,,,0,0,4,,,48,96,3
20480,note_off,,,,,512,0,2,,,67,0,1
20480,note_on,,,,,0,0,2,,,64,96,1
20480,note_off,,,,,256,0,3,,,60,0,2
20480,note_off,,,,,256,0,8,,,60,0,7
20480,note_on,,,,,0,0,3,,,60,96,2
21504,note_off,,,,,1024,0,8,,,60,0,7
21504,note_off,,,,,1024,0,2,,,64,0,1
21504,note_off,,,,,1024,0,6,,,72,0,5
21504,note_on,,,,,0,0,6,,,76,96,5
21504,note_off,,,,,1024,0,1,,,72,0,0
21504,note_on,,,,,0,0,6,,,76,96,5
21504,note_off,,,,,0,0,6,,,72,0,5
21504,note_off,,,,,1024,0,7,,,67,0,6
21504,note_on,,,,,0,0,7,,,67,96,6
21504,note_off,,,,,1024,0,4,,,48,0,3
21504,note_off,,,,,1024,0,5,,,48,0,4
21504,note_on,,,,,0,0,5,,,60,96,4
21504,note_off,,,,,1024,0,3,,,60,0,2
21504,note_on,,,,,0,0,8,,,60,96,7
22016,note_off,,,,,512,0,7,,,67,0,6
22016,note_on,,,,,0,0,7,,,65,96,6
22016,note_on,,,,,0,0,8,,,57,96,7
22016,note_off,,,,,512,0,8,,,60,0,7
22016,note_off,,,,,512,0,6,,,76,0,5
22016,note_on,,,,,0,0,6,,,74,96,5
22016,note_on,,,,,0,0,5,,,53,96,4
22016,note_off,,,,,0,0,6,,,76,0,5
22016,note_off,,,,,512,0,5,,,60,0,4
22016,note_on,,,,,0,0,6,,,74,96,5
22272,note_off,,,,,256,0,6,,,74,0,5
22272,note_on,,,,,0,0,6,,,72,96,5
22272,note_on,,,,,0,0,6,,,72,96,5
22272,note_off,,,,,0,0,6,,,74,0,5
22272,note_on,,,,,0,0,7,,,69,96,6
22272,note_off,,,,,256,0,7,,,65,0,6
22528,note_off,,,,,512,0,8,,,57,0,7
22528,note_on,,,,,0,0,6,,,71,96,5
22528,note_on,,,,,0,0,8,,,55,96,7
22528,note_on,,,,,0,0,6,,,71,96,5
22528,note_on,,,,,0,0,7,,,62,96,6
22528,note_off,,,,,512,0,5,,,53,0,4
22528,note_on,,,,,0,0,5,,,55,96,4
22528,note_off,,,,,256,0,7,,,69,0,6
22528,note_off,,,,,256,0,6,,,72,0,5
22528,note_off,,,,,0,0,6,,,72,0,5
23040,note_off,,,,,512,0,6,,,71,0,5
23040,note_off,,,,,0,0,6,,,71,0,5
23040,note_on,,,,,0,0,6,,,72,96,5
23040,note_on,,,,,0,0,6,,,72,96,5
23040,note_on,,,,,0,0,5,,,48,96,4
23040,note_on,,,,,0,0,8,,,55,96,7
23040,note_off,,,,,512,0,8,,,55,0,7
23040,note_off,,,,,512,0,5,,,55,0,4
23040,note_off,,,,,512,0,7,,,62,0,6
23040,note_on,,,,,0,0,7,,,64,96,6
23296,note_on,,,,,0,0,6,,,74,96,5
23296,note_off,,,,,0,0,6,,,72,0,5
23296,note_on,,,,,0,0,6,,,74,96,5
23296,note_off,,,,,256,0,6,,,72,0,5
23296,note_off,,,,,256,0,7,,,64,0,6
23296,note_on,,,,,0,0,7,,,65,96,6
23552,note_off,,,,,0,0,6,,,74,0,5
23552,note_off,,,,,256,0,6,,,74,0,5
23552,note_on,,,,,0,0,6,,,71,96,5
23552,note_on,,,,,0,0,6,,,71,96,5
23552,note_off,,,,,256,0,7,,,65,0,6
23552,note_on,,,,,0,0,8,,,55,96,7
23552,note_off,,,,,512,0,5,,,48,0,4
23552,note_on,,,,,0,0,7,,,62,96,6
23552,note_off,,,,,512,0,8,,,55,0,7
23552,note_on,,,,,0,0,5,,,55,96,4
24064,note_on,,,,,0,0,8,,,55,96,7
24064,note_on,,,,,0,0,5,,,43,96,4
24064,note_off,,,,,512,0,8,,,55,0,7
24064,note_off,,,,,512,0,5,,,55,0,4
24320,note_on,,,,,0,0,6,,,72,96,5
24320,note_off,,,,,0,0,6,,,71,0,5
24320,note_off,,,,,768,0,7,,,62,0,6
24320,note_on,,,,,0,0,7,,,64,96,6
24320,note_off,,,,,768,0,6,,,71,0,5
24320,note_on,,,,,0,0,6,,,72,96,5
24576,note_off,,,,,512,0,5,,,43,0,4
24576,note_on,,,,,0,0,5,,,48,96,4
24576,time_signature,3,4,24,8,24576,1,0,,,,,
24576,note_on,,,,,0,0,8,,,55,96,7
24576,note_off,,,,,512,0,8,,,55,0,7
24576,note_on,,,,,0,0,7,,,64,96,6
24576,note_off,,,,,256,0,6,,,72,0,5
24576,note_off,,,,,0,0,6,,,72,0,5
24576,note_on,,,,,0,0,6,,,72,96,5
24576,note_on,,,,,0,0,6,,,72,96,5
24576,note_off,,,,,256,0,7,,,64,0,6
25600,note_off,,,,,1024,0,5,,,48,0,4
25600,note_on,,,,,0,0,5,,,72,96,4
25600,note_off,,,,,1024,0,8,,,55,0,7
25600,note_off,,,,,1024,0,6,,,72,0,5
25600,note_off,,,,,0,0,6,,,72,0,5
25600,note_on,,,,,0,0,6,,,72,96,5
25600,note_on,,,,,4096,0,1,,,72,96,0
25600,note_off,,,,,1024,0,7,,,64,0,6
25600,note_on,,,,,0,0,6,,,72,96,5
26624,note_off,,,,,1024,0,6,,,72,0,5
26624,note_on,,,,,0,0,6,,,72,96,5
26624,note_on,,,,,0,0,1,,,72,96,0
26624,note_off,,,,,1024,0,1,,,72,0,0
26624,note_on,,,,,0,0,5,,,72,96,4
26624,note_off,,,,,1024,0,5,,,72,0,4
26624,note_on,,,,,0,0,6,,,72,96,5
26624,note_off,,,,,0,0,6,,,72,0,5
27648,note_on,,,,,0,0,1,,,77,96,0
27648,note_off,,,,,1024,0,1,,,72,0,0
27648,note_off,,,,,1024,0,6,,,72,0,5
27648,note_off,,,,,0,0,6,,,72,0,5
27648,note_on,,,,,0,0,6,,,77,96,5
27648,note_off,,,,,1024,0,5,,,72,0,4
27648,note_on,,,,,0,0,5,,,77,96,4
27648,note_on,,,,,0,0,6,,,77,96,5
28160,note_on,,,,,0,0,5,,,76,96,4
28160,note_off,,,,,512,0,6,,,77,0,5
28160,note_on,,,,,0,0,6,,,79,96,5
28160,note_off,,,,,512,0,5,,,77,0,4
28160,note_on,,,,,0,0,6,,,79,96,5
28160,note_off,,,,,0,0,6,,,77,0,5
28160,note_off,,,,,512,0,1,,,77,0,0
28160,note_on,,,,,0,0,1,,,76,96,0
28672,note_on,,,,,0,0,6,,,77,96,5
28672,note_off,,,,,0,0,6,,,79,0,5
28672,note_off,,,,,512,0,6,,,79,0,5
28672,note_on,,,,,0,0,6,,,77,96,5
28672,note_on,,,,,3072,0,7,,,65,96,6
28672,note_on,,,,,0,0,1,,,77,96,0
28672,note_off,,,,,512,0,1,,,76,0,0
28672,note_on,,,,,7168,0,2,,,65,96,1
28672,note_off,,,,,512,0,5,,,76,0,4
28672,note_on,,,,,0,0,5,,,65,96,4
28672,note_on,,,,,0,0,5,,,77,96,4
29184,note_on,,,,,0,0,6,,,79,96,5
29184,note_on,,,,,0,0,6,,,79,96,5
29184,note_off,,,,,512,0,6,,,77,0,5
29184,note_off,,,,,0,0,6,,,77,0,5
29696,note_off,,,,,1024,0,5,,,65,0,4
29696,note_on,,,,,0,0,6,,,77,96,5
29696,note_on,,,,,0,0,6,,,77,96,5
29696,note_off,,,,,0,0,6,,,79,0,5
29696,note_off,,,,,0,0,5,,,77,0,4
29696,note_off,,,,,1024,0,7,,,65,0,6
29696,note_on,,,,,0,0,7,,,65,96,6
29696,note_off,,,,,512,0,6,,,79,0,5
29696,note_off,,,,,1024,0,2,,,65,0,1
29696,note_off,,,,,1024,0,1,,,77,0,0
29696,note_on,,,,,0,0,5,,,65,96,4
29696,note_on,,,,,0,0,2,,,65,96,1
30208,note_off,,,,,0,0,6,,,77,0,5
30208,note_on,,,,,0,0,6,,,79,96,5
30208,note_on,,,,,0,0,6,,,79,96,5
30208,note_off,,,,,512,0,6,,,77,0,5
30720,note_on,,,,,0,0,5,,,72,96,4
30720,note_off,,,,,1024,0,5,,,65,0,4
30720,note_on,,,,,0,0,5,,,76,96,4
30720,note_off,,,,,512,0,6,,,79,0,5
30720,note_on,,,,,0,0,6,,,76,96,5
30720,note_off,,,,,0,0,6,,,79,0,5
30720,note_off,,,,,1024,0,7,,,65,0,6
30720,note_on,,,,,1024,0,1,,,76,96,0
30720,note_on,,,,,0,0,2,,,72,96,1
30720,note_off,,,,,1024,0,2,,,65,0,1
30720,note_on,,,,,0,0,7,,,72,96,6
30720,note_on,,,,,0,0,6,,,76,96,5
31232,note_off,,,,,0,0,6,,,76,0,5
31232,note_off,,,,,512,0,6,,,76,0,5
31232,note_off,,,,,512,0,7,,,72,0,6
31232,note_on,,,,,0,0,7,,,74,96,6
31232,note_on,,,,,0,0,6,,,77,96,5
31232,note_on,,,,,0,0,1,,,77,96,0
31232,note_on,,,,,0,0,6,,,77,96,5
31232,note_off,,,,,512,0,5,,,72,0,4
31232,note_on,,,,,0,0,5,,,71,96,4
31232,note_on,,,,,0,0,5,,,77,96,4
31232,note_on,,,,,0,0,2,,,71,96,1
31232,note_off,,,,,512,0,2,,,72,0,1
31232,note_off,,,,,0,0,5,,,76,0,4
31232,note_off,,,,,512,0,1,,,76,0,0
31744,note_off,,,,,512,0,1,,,77,0,0
31744,note_on,,,,,0,0,2,,,72,96,1
31744,note_off,,,,,512,0,2,,,71,0,1
31744,note_on,,,,,0,0,6,,,76,96,5
31744,note_on,,,,,0,0,1,,,76,96,0
31744,note_off,,,,,512,0,5,,,71,0,4
31744,note_off,,,,,0,0,5,,,77,0,4
31744,note_on,,,,,0,0,5,,,72,96,4
31744,note_on,,,,,0,0,5,,,76,96,4
31744,note_off,,,,,512,0,6,,,77,0,5
31744,note_off,,,,,512,0,7,,,74,0,6
31744,note_on,,,,,0,0,7,,,72,96,6
31744,note_on,,,,,0,0,6,,,76,96,5
31744,note_off,,,,,0,0,6,,,77,0,5
32256,note_off,,,,,0,0,6,,,76,0,5
32256,note_off,,,,,512,0,5,,,76,0,4
32256,note_off,,,,,512,0,6,,,76,0,5
32256,note_on,,,,,0,0,6,,,77,96,5
32256,note_on,,,,,0,0,6,,,77,96,5
32256,note_on,,,,,0,0,1,,,77,96,0
32256,note_on,,,,,0,0,5,,,77,96,4
32256,note_off,,,,,512,0,7,,,72,0,6
32256,note_on,,,,,0,0,7,,,74,96,6
32256,note_off,,,,,512,0,1,,,76,0,0
32768,note_off,,,,,1024,0,2,,,72,0,1
32768,note_off,,,,,512,0,6,,,77,0,5
32768,note_off,,,,,512,0,7,,,74,0,6
32768,note_on,,,,,0,0,7,,,72,96,6
32768,note_on,,,,,0,0,1,,,76,96,0
32768,note_off,,,,,0,0,6,,,77,0,5
32768,note_on,,,,,0,0,6,,,76,96,5
32768,note_on,,,,,0,0,6,,,76,96,5
32768,note_off,,,,,512,0,1,,,77,0,0
32768,note_on,,,,,0,0,5,,,76,96,4
32768,note_off,,,,,0,0,5,,,77,0,4
32768,note_off,,,,,512,0,5,,,72,0,4
33280,note_off,,,,,512,0,7,,,72,0,6
33280,note_on,,,,,0,0,5,,,77,96,4
33280,note_off,,,,,512,0,5,,,76,0,4
33280,note_off,,,,,0,0,6,,,76,0,5
33280,note_on,,,,,0,0,1,,,77,96,0
33280,note_on,,,,,0,0,6,,,77,96,5
33280,note_off,,,,,512,0,6,,,76,0,5
33280,note_off,,,,,512,0,1,,,76,0,0
33280,note_on,,,,,0,0,6,,,77,96,5
33280,note_on,,,,,0,0,7,,,74,96,6
33792,note_on,,,,,0,0,1,,,79,96,0
33792,note_on,,,,,0,0,6,,,79,96,5
33792,note_off,,,,,512,0,6,,,77,0,5
33792,note_off,,,,,512,0,7,,,74,0,6
33792,note_off,,,,,0,0,6,,,77,0,5
33792,note_on,,,,,0,0,7,,,70,96,6
33792,note_on,,,,,0,0,6,,,79,96,5
33792,note_off,,,,,512,0,5,,,77,0,4
33792,note_on,,,,,1024,0,2,,,70,96,1
33792,note_on,,,,,0,0,5,,,79,96,4
33792,note_on,,,,,0,0,5,,,70,96,4
33792,note_off,,,,,512,0,1,,,77,0,0
34304,note_off,,,,,0,0,6,,,79,0,5
34304,note_on,,,,,0,0,6,,,81,96,5
34304,note_on,,,,,0,0,6,,,81,96,5
34304,note_off,,,,,512,0,2,,,70,0,1
34304,note_on,,,,,0,0,2,,,72,96,1
34304,note_off,,,,,512,0,5,,,70,0,4
34304,note_off,,,,,512,0,6,,,79,0,5
34304,note_off,,,,,512,0,7,,,70,0,6
34304,note_on,,,,,0,0,7,,,72,96,6
34304,note_on,,,,,0,0,5,,,72,96,4
34816,note_off,,,,,512,0,7,,,72,0,6
34816,note_on,,,,,0,0,7,,,70,96,6
34816,note_off,,,,,0,0,6,,,81,0,5
34816,note_on,,,,,0,0,6,,,79,96,5
34816,note_on,,,,,0,0,5,,,74,96,4
34816,note_off,,,,,512,0,6,,,81,0,5
34816,note_off,,,,,512,0,2,,,72,0,1
34816,note_on,,,,,0,0,2,,,70,96,1
34816,note_on,,,,,0,0,1,,,74,96,0
34816,note_off,,,,,512,0,5,,,72,0,4
34816,note_on,,,,,0,0,6,,,79,96,5
34816,note_off,,,,,0,0,5,,,79,0,4
34816,note_on,,,,,0,0,5,,,70,96,4
34816,note_off,,,,,1024,0,1,,,79,0,0
35328,note_off,,,,,512,0,1,,,74,0,0
35328,note_on,,,,,0,0,1,,,76,96,0
35328,note_off,,,,,512,0,5,,,70,0,4
35328,note_off,,,,,0,0,5,,,74,0,4
35328,note_on,,,,,0,0,5,,,72,96,4
35328,note_on,,,,,0,0,5,,,76,96,4
35328,note_off,,,,,512,0,6,,,79,0,5
35328,note_off,,,,,512,0,7,,,70,0,6
35328,note_off,,,,,0,0,6,,,79,0,5
35328,note_on,,,,,0,0,2,,,72,96,1
35328,note_on,,,,,0,0,6,,,81,96,5
35328,note_on,,,,,0,0,6,,,81,96,5
35328,note_off,,,,,512,0,2,,,70,0,1
35328,note_on,,,,,0,0,7,,,72,96,6
35840,note_on,,,,,0,0,5,,,74,96,4
35840,note_off,,,,,512,0,2,,,72,0,1
35840,note_on,,,,,0,0,2,,,70,96,1
35840,note_off,,,,,0,0,6,,,81,0,5
35840,note_on,,,,,0,0,6,,,79,96,5
35840,note_off,,,,,512,0,6,,,81,0,5
35840,note_off,,,,,512,0,7,,,72,0,6
35840,note_on,,,,,0,0,6,,,79,96,5
35840,note_off,,,,,512,0,5,,,72,0,4
35840,note_on,,,,,0,0,1,,,74,96,0
35840,note_off,,,,,512,0,1,,,76,0,0
35840,note_off,,,,,0,0,5,,,76,0,4
35840,note_on,,,,,0,0,5,,,70,96,4
35840,note_on,,,,,0,0,7,,,70,96,6
36352,note_off,,,,,512,0,5,,,70,0,4
36352,note_off,,,,,512,0,6,,,79,0,5
36352,note_on,,,,,0,0,6,,,81,96,5
36352,note_on,,,,,0,0,6,,,81,96,5
36352,note_off,,,,,0,0,6,,,79,0,5
36352,note_off,,,,,512,0,7,,,70,0,6
36352,note_on,,,,,0,0,5,,,76,96,4
36352,note_off,,,,,0,0,5,,,74,0,4
36352,note_off,,,,,512,0,2,,,70,0,1
36352,note_on,,,,,0,0,5,,,72,96,4
36352,note_off,,,,,512,0,1,,,74,0,0
36352,note_on,,,,,0,0,1,,,76,96,0
36352,note_on,,,,,0,0,2,,,72,96,1
36352,note_on,,,,,0,0,7,,,72,96,6
36864,note_on,,,,,0,0,1,,,77,96,0
36864,note_off,,,,,512,0,1,,,76,0,0
36864,note_on,,,,,0,0,5,,,77,96,4
36864,note_on,,,,,0,0,5,,,74,96,4
36864,note_off,,,,,0,0,5,,,76,0,4
36864,note_off,,,,,512,0,5,,,72,0,4
36864,note_on,,,,,0,0,2,,,74,96,1
36864,note_off,,,,,512,0,2,,,72,0,1
36864,note_off,,,,,512,0,6,,,81,0,5
36864,note_off,,,,,0,0,6,,,81,0,5
36864,note_on,,,,,0,0,6,,,77,96,5
36864,note_on,,,,,0,0,6,,,77,96,5
36864,note_off,,,,,512,0,7,,,72,0,6
36864,note_on,,,,,0,0,7,,,74,96,6
37376,note_off,,,,,512,0,5,,,77,0,4
37376,note_on,,,,,0,0,5,,,79,96,4
37376,note_on,,,,,0,0,6,,,79,96,5
37376,note_off,,,,,0,0,6,,,77,0,5
37376,note_off,,,,,512,0,1,,,77,0,0
37376,note_on,,,,,0,0,1,,,79,96,0
37376,note_off,,,,,512,0,6,,,77,0,5
37376,note_on,,,,,0,0,6,,,79,96,5
37888,note_on,,,,,0,0,7,,,69,96,6
37888,note_on,,,,,0,0,2,,,69,96,1
37888,note_off,,,,,1024,0,2,,,74,0,1
37888,note_off,,,,,1024,0,7,,,74,0,6
37888,note_off,,,,,512,0,1,,,79,0,0
37888,note_off,,,,,0,0,5,,,79,0,4
37888,note_on,,,,,0,0,1,,,77,96,0
37888,note_off,,,,,512,0,5,,,74,0,4
37888,note_off,,,,,0,0,6,,,79,0,5
37888,note_on,,,,,0,0,6,,,77,96,5
37888,note_off,,,,,512,0,6,,,79,0,5
37888,note_on,,,,,0,0,6,,,77,96,5
37888,note_on,,,,,0,0,5,,,69,96,4
37888,note_on,,,,,0,0,5,,,77,96,4
38400,note_on,,,,,0,0,6,,,79,96,5
38400,note_on,,,,,0,0,1,,,79,96,0
38400,note_off,,,,,512,0,1,,,77,0,0
38400,note_on,,,,,0,0,2,,,70,96,1
38400,note_off,,,,,0,0,6,,,77,0,5
38400,note_on,,,,,0,0,5,,,79,96,4
38400,note_on,,,,,0,0,6,,,79,96,5
38400,note_off,,,,,512,0,2,,,69,0,1
38400,note_off,,,,,512,0,5,,,69,0,4
38400,note_off,,,,,0,0,5,,,77,0,4
38400,note_on,,,,,0,0,5,,,70,96,4
38400,note_off,,,,,512,0,7,,,69,0,6
38400,note_on,,,,,0,0,7,,,70,96,6
38400,note_off,,,,,512,0,6,,,77,0,5
38912,note_off,,,,,512,0,1,,,79,0,0
38912,note_on,,,,,0,0,2,,,69,96,1
38912,note_off,,,,,512,0,2,,,70,0,1
38912,note_off,,,,,512,0,7,,,70,0,6
38912,note_on,,,,,0,0,7,,,69,96,6
38912,note_on,,,,,0,0,6,,,77,96,5
38912,note_off,,,,,0,0,6,,,79,0,5
38912,note_on,,,,,0,0,6,,,77,96,5
38912,note_off,,,,,512,0,6,,,79,0,5
38912,note_on,,,,,0,0,5,,,77,96,4
38912,note_on,,,,,0,0,5,,,69,96,4
38912,note_off,,,,,0,0,5,,,79,0,4
38912,note_off,,,,,512,0,5,,,70,0,4
38912,note_on,,,,,0,0,1,,,77,96,0
39424,note_off,,,,,0,0,6,,,77,0,5
39424,note_on,,,,,0,0,6,,,79,96,5
39424,note_on,,,,,0,0,6,,,79,96,5
39424,note_off,,,,,512,0,6,,,77,0,5
39424,note_off,,,,,512,0,2,,,69,0,1
39424,note_on,,,,,0,0,2,,,70,96,1
39424,note_off,,,,,512,0,7,,,69,0,6
39424,note_off,,,,,512,0,5,,,69,0,4
39424,note_off,,,,,0,0,5,,,77,0,4
39424,note_on,,,,,0,0,5,,,70,96,4
39424,note_on,,,,,0,0,5,,,79,96,4
39424,note_off,,,,,512,0,1,,,77,0,0
39424,note_on,,,,,0,0,1,,,79,96,0
39424,note_on,,,,,0,0,7,,,70,96,6
39936,note_on,,,,,0,0,7,,,72,96,6
39936,note_off,,,,,512,0,6,,,79,0,5
39936,note_off,,,,,512,0,1,,,79,0,0
39936,note_on,,,,,0,0,5,,,76,96,4
39936,note_off,,,,,512,0,7,,,70,0,6
39936,note_on,,,,,0,0,5,,,72,96,4
39936,note_off,,,,,0,0,5,,,79,0,4
39936,note_off,,,,,512,0,5,,,70,0,4
39936,note_on,,,,,0,0,1,,,76,96,0
39936,note_on,,,,,0,0,6,,,76,96,5
39936,note_off,,,,,0,0,6,,,79,0,5
39936,note_on,,,,,0,0,6,,,76,96,5
39936,note_on,,,,,0,0,2,,,72,96,1
39936,note_off,,,,,512,0,2,,,70,0,1
40448,note_off,,,,,512,0,7,,,72,0,6
40448,note_on,,,,,0,0,7,,,74,96,6
40448,note_on,,,,,0,0,2,,,74,96,1
40448,note_off,,,,,512,0,2,,,72,0,1
40448,note_off,,,,,512,0,6,,,76,0,5
40448,note_on,,,,,0,0,6,,,77,96,5
40448,note_off,,,,,0,0,6,,,76,0,5
40448,note_on,,,,,0,0,6,,,77,96,5
40960,note_off,,,,,0,0,5,,,76,0,4
40960,note_on,,,,,0,0,1,,,72,96,0
40960,note_off,,,,,1024,0,1,,,76,0,0
40960,note_off,,,,,512,0,6,,,77,0,5
40960,note_on,,,,,0,0,6,,,76,96,5
40960,note_on,,,,,0,0,7,,,72,96,6
40960,note_off,,,,,512,0,7,,,74,0,6
40960,note_on,,,,,0,0,6,,,76,96,5
40960,note_on,,,,,15360,0,8,,,60,96,7
40960,note_on,,,,,0,0,5,,,60,96,4
40960,note_off,,,,,1024,0,5,,,72,0,4
40960,note_off,,,,,0,0,6,,,77,0,5
40960,note_off,,,,,512,0,2,,,74,0,1
40960,note_on,,,,,0,0,2,,,72,96,1
40960,note_on,,,,,19456,0,3,,,60,96,2
41472,note_off,,,,,512,0,6,,,76,0,5
41472,note_on,,,,,0,0,6,,,77,96,5
41472,note_on,,,,,0,0,6,,,77,96,5
41472,note_off,,,,,0,0,6,,,76,0,5
41472,note_on,,,,,0,0,7,,,74,96,6
41472,note_off,,,,,512,0,7,,,72,0,6
41472,note_on,,,,,0,0,2,,,74,96,1
41472,note_off,,,,,512,0,2,,,72,0,1
41984,note_on,,,,,0,0,7,,,70,96,6
41984,note_on,,,,,0,0,8,,,60,96,7
41984,note_off,,,,,1024,0,8,,,60,0,7
41984,note_on,,,,,0,0,5,,,60,96,4
41984,note_off,,,,,1024,0,5,,,60,0,4
41984,note_on,,,,,0,0,1,,,76,96,0
41984,note_on,,,,,0,0,2,,,70,96,1
41984,note_off,,,,,512,0,2,,,74,0,1
41984,note_off,,,,,512,0,7,,,74,0,6
41984,note_on,,,,,0,0,3,,,60,96,2
41984,note_off,,,,,1024,0,1,,,72,0,0
41984,note_on,,,,,0,0,6,,,74,96,5
41984,note_off,,,,,512,0,6,,,77,0,5
41984,note_off,,,,,1024,0,3,,,60,0,2
41984,note_off,,,,,0,0,6,,,77,0,5
41984,note_on,,,,,0,0,6,,,74,96,5
42496,note_off,,,,,512,0,6,,,74,0,5
42496,note_off,,,,,0,0,6,,,74,0,5
42496,note_off,,,,,512,0,7,,,70,0,6
42496,note_on,,,,,0,0,6,,,76,96,5
42496,note_on,,,,,0,0,7,,,72,96,6
42496,note_on,,,,,0,0,2,,,72,96,1
42496,note_off,,,,,512,0,2,,,70,0,1
42496,note_on,,,,,0,0,6,,,76,96,5
43008,note_off,,,,,512,0,2,,,72,0,1
43008,note_off,,,,,1024,0,8,,,60,0,7
43008,note_off,,,,,512,0,6,,,76,0,5
43008,note_on,,,,,0,0,2,,,69,96,1
43008,note_off,,,,,0,0,6,,,76,0,5
43008,note_on,,,,,0,0,7,,,69,96,6
43008,note_off,,,,,512,0,7,,,72,0,6
43008,note_on,,,,,0,0,6,,,77,96,5
43008,note_on,,,,,0,0,6,,,77,96,5
43008,note_on,,,,,0,0,8,,,65,96,7
43008,note_off,,,,,1024,0,3,,,60,0,2
43008,note_on,,,,,0,0,5,,,65,96,4
43008,note_off,,,,,1024,0,1,,,76,0,0
43008,note_on,,,,,0,0,1,,,72,96,0
43008,note_on,,,,,0,0,3,,,65,96,2
43008,note_off,,,,,1024,0,5,,,60,0,4
43520,note_off,,,,,512,0,3,,,65,0,2
43520,note_on,,,,,0,0,3,,,64,96,2
43520,note_off,,,,,512,0,8,,,65,0,7
43520,note_on,,,,,0,0,8,,,67,96,7
43520,note_off,,,,,512,0,5,,,65,0,4
43520,note_on,,,,,0,0,5,,,64,96,4
43520,note_on,,,,,0,0,7,,,70,96,6
43520,note_off,,,,,512,0,7,,,69,0,6
44032,note_off,,,,,0,0,6,,,77,0,5
44032,note_off,,,,,1024,0,6,,,77,0,5
44032,note_off,,,,,512,0,5,,,64,0,4
44032,note_off,,,,,1024,0,1,,,72,0,0
44032,note_on,,,,,0,0,1,,,69,96,0
44032,note_on,,,,,22528,0,4,,,53,96,3
44032,note_on,,,,,0,0,2,,,65,96,1
44032,note_off,,,,,512,0,3,,,64,0,2
44032,note_off,,,,,512,0,7,,,70,0,6
44032,note_on,,,,,0,0,5,,,65,96,4
44032,note_on,,,,,0,0,3,,,65,96,2
44032,note_on,,,,,0,0,7,,,69,96,6
44032,note_off,,,,,1024,0,2,,,69,0,1
44032,note_on,,,,,0,0,6,,,72,96,5
44032,note_on,,,,,0,0,5,,,53,96,4
44032,note_on,,,,,0,0,6,,,72,96,5
44032,note_off,,,,,512,0,8,,,67,0,7
44032,note_on,,,,,0,0,8,,,65,96,7
44544,note_off,,,,,512,0,8,,,65,0,7
44544,note_off,,,,,512,0,7,,,69,0,6
44544,note_on,,,,,0,0,7,,,70,96,6
44544,note_on,,,,,0,0,8,,,67,96,7
45056,note_off,,,,,1024,0,5,,,53,0,4
45056,note_off,,,,,1024,0,3,,,65,0,2
45056,note_on,,,,,0,0,7,,,69,96,6
45056,note_on,,,,,0,0,5,,,53,96,4
45056,note_off,,,,,0,0,5,,,65,0,4
45056,note_on,,,,,0,0,4,,,53,96,3
45056,note_off,,,,,1024,0,4,,,53,0,3
45056,note_off,,,,,512,0,8,,,67,0,7
45056,note_off,,,,,512,0,7,,,70,0,6
45056,note_off,,,,,1024,0,2,,,65,0,1
45056,note_on,,,,,0,0,2,,,69,96,1
45056,note_on,,,,,0,0,8,,,65,96,7
45056,note_off,,,,,0,0,6,,,72,0,5
45056,note_on,,,,,0,0,6,,,77,96,5
45056,note_on,,,,,0,0,6,,,77,96,5
45056,note_off,,,,,1024,0,6,,,72,0,5
45056,note_off,,,,,1024,0,1,,,69,0,0
45568,note_off,,,,,512,0,8,,,65,0,7
45568,note_on,,,,,0,0,8,,,67,96,7
45568,note_off,,,,,512,0,7,,,69,0,6
45568,note_on,,,,,0,0,7,,,70,96,6
46080,note_on,,,,,0,0,7,,,67,96,6
46080,note_off,,,,,1024,0,5,,,53,0,4
46080,note_on,,,,,0,0,8,,,64,96,7
46080,note_off,,,,,1024,0,4,,,53,0,3
46080,note_on,,,,,1024,0,3,,,64,96,2
46080,note_on,,,,,0,0,4,,,60,96,3
46080,note_off,,,,,512,0,7,,,70,0,6
46080,note_off,,,,,1024,0,2,,,69,0,1
46080,note_on,,,,,0,0,2,,,67,96,1
46080,note_on,,,,,0,0,6,,,79,96,5
46080,note_on,,,,,0,0,6,,,79,96,5
46080,note_off,,,,,0,0,6,,,77,0,5
46080,note_off,,,,,1024,0,6,,,77,0,5
46080,note_on,,,,,0,0,5,,,60,96,4
46080,note_off,,,,,512,0,8,,,67,0,7
46592,note_on,,,,,0,0,7,,,69,96,6
46592,note_on,,,,,0,0,8,,,65,96,7
46592,note_on,,,,,0,0,3,,,65,96,2
46592,note_off,,,,,512,0,3,,,64,0,2
46592,note_off,,,,,512,0,7,,,67,0,6
46592,note_off,,,,,512,0,5,,,60,0,4
46592,note_on,,,,,0,0,5,,,59,96,4
46592,note_on,,,,,0,0,4,,,59,96,3
46592,note_off,,,,,512,0,4,,,60,0,3
46592,note_off,,,,,512,0,8,,,64,0,7
47104,note_off,,,,,512,0,3,,,65,0,2
47104,note_on,,,,,0,0,7,,,67,96,6
47104,note_on,,,,,0,0,3,,,64,96,2
47104,note_off,,,,,512,0,7,,,69,0,6
47104,note_on,,,,,0,0,4,,,60,96,3
47104,note_off,,,,,1024,0,6,,,79,0,5
47104,note_on,,,,,0,0,6,,,72,96,5
47104,note_on,,,,,0,0,6,,,72,96,5
47104,note_off,,,,,0,0,6,,,79,0,5
47104,note_off,,,,,512,0,4,,,59,0,3
47104,note_on,,,,,0,0,5,,,60,96,4
47104,note_off,,,,,512,0,5,,,59,0,4
47104,note_on,,,,,0,0,2,,,64,96,1
47104,note_on,,,,,0,0,8,,,64,96,7
47104,note_off,,,,,512,0,8,,,65,0,7
47104,note_on,,,,,2048,0,1,,,67,96,0
47104,note_off,,,,,1024,0,2,,,67,0,1
47616,note_on,,,,,0,0,8,,,65,96,7
47616,note_off,,,,,512,0,8,,,64,0,7
47616,note_on,,,,,0,0,7,,,69,96,6
47616,note_on,,,,,0,0,3,,,65,96,2
47616,note_off,,,,,512,0,7,,,67,0,6
47616,note_off,,,,,512,0,3,,,64,0,2
48128,note_on,,,,,0,0,7,,,67,96,6
48128,note_on,,,,,0,0,8,,,64,96,7
48128,note_off,,,,,1024,0,2,,,64,0,1
48128,note_off,,,,,512,0,3,,,65,0,2
48128,note_on,,,,,0,0,3,,,64,96,2
48128,note_off,,,,,1024,0,5,,,60,0,4
48128,note_off,,,,,512,0,7,,,69,0,6
48128,note_off,,,,,512,0,8,,,65,0,7
48128,note_off,,,,,1024,0,1,,,67,0,0
48128,note_off,,,,,1024,0,6,,,72,0,5
48128,note_off,,,,,0,0,6,,,72,0,5
48128,note_off,,,,,1024,0,4,,,60,0,3
48128,note_on,,,,,0,0,1,,,67,96,0
48640,note_off,,,,,512,0,8,,,64,0,7
48640,note_on,,,,,0,0,8,,,65,96,7
48640,note_off,,,,,512,0,3,,,64,0,2
48640,note_on,,,,,0,0,3,,,65,96,2
48640,note_off,,,,,512,0,7,,,67,0,6
48640,note_on,,,,,0,0,7,,,69,96,6
49152,note_on,,,,,0,0,7,,,70,96,6
49152,note_on,,,,,1024,0,4,,,58,96,3
49152,note_off,,,,,512,0,8,,,65,0,7
49152,note_on,,,,,0,0,8,,,67,96,7
49152,note_off,,,,,512,0,7,,,69,0,6
49152,note_on,,,,,1024,0,5,,,58,96,4
49152,note_on,,,,,0,0,1,,,74,96,0
49152,note_on,,,,,0,0,3,,,67,96,2
49152,note_off,,,,,1024,0,1,,,67,0,0
49152,note_off,,,,,512,0,3,,,65,0,2
49664,note_off,,,,,512,0,1,,,74,0,0
49664,note_off,,,,,512,0,5,,,58,0,4
49664,note_off,,,,,512,0,8,,,67,0,7
49664,note_on,,,,,0,0,5,,,60,96,4
49664,note_off,,,,,512,0,4,,,58,0,3
49664,note_on,,,,,0,0,8,,,69,96,7
49664,note_on,,,,,0,0,1,,,72,96,0
49664,note_on,,,,,0,0,4,,,60,96,3
50176,note_off,,,,,1024,0,7,,,70,0,6
50176,note_on,,,,,0,0,7,,,67,96,6
50176,note_on,,,,,2048,0,6,,,74,96,5
50176,note_on,,,,,0,0,6,,,74,96,5
50176,note_on,,,,,0,0,5,,,58,96,4
50176,note_off,,,,,512,0,5,,,60,0,4
50176,note_off,,,,,1024,0,3,,,67,0,2
50176,note_on,,,,,0,0,8,,,67,96,7
50176,note_off,,,,,512,0,4,,,60,0,3
50176,note_on,,,,,0,0,4,,,58,96,3
50176,note_on,,,,,0,0,3,,,62,96,2
50176,note_on,,,,,0,0,1,,,74,96,0
50176,note_off,,,,,512,0,1,,,72,0,0
50176,note_off,,,,,512,0,8,,,69,0,7
50688,note_off,,,,,512,0,8,,,67,0,7
50688,note_off,,,,,512,0,5,,,58,0,4
50688,note_on,,,,,0,0,5,,,60,96,4
50688,note_off,,,,,512,0,4,,,58,0,3
50688,note_on,,,,,0,0,4,,,60,96,3
50688,note_on,,,,,0,0,3,,,64,96,2
50688,note_on,,,,,0,0,8,,,69,96,7
50688,note_off,,,,,512,0,3,,,62,0,2
51200,note_on,,,,,0,0,5,,,58,96,4
51200,note_on,,,,,3072,0,2,,,70,96,1
51200,note_on,,,,,0,0,7,,,70,96,6
51200,note_off,,,,,0,0,6,,,74,0,5
51200,note_on,,,,,0,0,4,,,58,96,3
51200,note_off,,,,,1024,0,7,,,67,0,6
51200,note_off,,,,,512,0,4,,,60,0,3
51200,note_off,,,,,1024,0,6,,,74,0,5
51200,note_off,,,,,1024,0,1,,,74,0,0
51200,note_on,,,,,0,0,6,,,74,96,5
51200,note_on,,,,,0,0,6,,,74,96,5
51200,note_off,,,,,512,0,8,,,69,0,7
51200,note_on,,,,,0,0,3,,,62,96,2
51200,note_off,,,,,512,0,3,,,64,0,2
51200,note_off,,,,,512,0,5,,,60,0,4
51200,note_on,,,,,0,0,8,,,67,96,7
51712,note_off,,,,,512,0,8,,,67,0,7
51712,note_on,,,,,0,0,3,,,64,96,2
51712,note_on,,,,,0,0,8,,,69,96,7
51712,note_off,,,,,512,0,3,,,62,0,2
51712,note_on,,,,,0,0,5,,,60,96,4
51712,note_off,,,,,512,0,4,,,58,0,3
51712,note_on,,,,,0,0,4,,,60,96,3
51712,note_off,,,,,512,0,5,,,58,0,4
52224,note_on,,,,,0,0,6,,,81,96,5
52224,note_off,,,,,0,0,6,,,74,0,5
52224,note_on,,,,,0,0,6,,,81,96,5
52224,note_on,,,,,0,0,8,,,65,96,7
52224,note_off,,,,,512,0,8,,,69,0,7
52224,note_on,,,,,1024,0,1,,,69,96,0
52224,note_off,,,,,512,0,5,,,60,0,4
52224,note_off,,,,,1024,0,6,,,74,0,5
52224,note_on,,,,,0,0,5,,,62,96,4
52224,note_on,,,,,0,0,7,,,69,96,6
52224,note_on,,,,,0,0,4,,,62,96,3
52224,note_off,,,,,1024,0,7,,,70,0,6
52224,note_on,,,,,0,0,3,,,65,96,2
52224,note_off,,,,,512,0,3,,,64,0,2
52224,note_off,,,,,1024,0,2,,,70,0,1
52224,note_on,,,,,0,0,2,,,69,96,1
52224,note_off,,,,,512,0,4,,,60,0,3
52736,note_off,,,,,512,0,6,,,81,0,5
52736,note_on,,,,,0,0,6,,,79,96,5
52736,note_on,,,,,0,0,6,,,79,96,5
52736,note_off,,,,,0,0,6,,,81,0,5
52736,note_off,,,,,512,0,1,,,69,0,0
52736,note_on,,,,,0,0,1,,,70,96,0
52736,note_off,,,,,512,0,3,,,65,0,2
52736,note_on,,,,,0,0,8,,,67,96,7
52736,note_off,,,,,512,0,8,,,65,0,7
52736,note_on,,,,,0,0,3,,,67,96,2
53248,note_off,,,,,1024,0,2,,,69,0,1
53248,note_off,,,,,0,0,6,,,79,0,5
53248,note_on,,,,,0,0,6,,,81,96,5
53248,note_off,,,,,512,0,6,,,79,0,5
53248,note_off,,,,,512,0,1,,,70,0,0
53248,note_on,,,,,0,0,1,,,72,96,0
53248,note_on,,,,,0,0,4,,,57,96,3
53248,note_off,,,,,1024,0,4,,,62,0,3
53248,note_on,,,,,0,0,2,,,65,96,1
53248,note_on,,,,,0,0,6,,,81,96,5
53248,note_off,,,,,1024,0,7,,,69,0,6
53248,note_off,,,,,512,0,3,,,67,0,2
53248,note_on,,,,,0,0,3,,,65,96,2
53248,note_off,,,,,1024,0,5,,,62,0,4
53248,note_on,,,,,0,0,7,,,65,96,6
53248,note_on,,,,,0,0,8,,,65,96,7
53248,note_on,,,,,0,0,5,,,57,96,4
53248,note_off,,,,,512,0,8,,,67,0,7
53760,note_off,,,,,512,0,4,,,57,0,3
53760,note_on,,,,,0,0,8,,,67,96,7
53760,note_off,,,,,512,0,8,,,65,0,7
53760,note_off,,,,,512,0,3,,,65,0,2
53760,note_on,,,,,0,0,3,,,67,96,2
53760,note_on,,,,,0,0,5,,,58,96,4
53760,note_off,,,,,512,0,5,,,57,0,4
53760,note_on,,,,,0,0,4,,,58,96,3
54272,note_on,,,,,0,0,5,,,57,96,4
54272,note_on,,,,,0,0,3,,,65,96,2
54272,note_off,,,,,512,0,5,,,58,0,4
54272,note_on,,,,,0,0,4,,,57,96,3
54272,note_on,,,,,0,0,8,,,65,96,7
54272,note_off,,,,,1024,0,6,,,81,0,5
54272,note_on,,,,,0,0,2,,,69,96,1
54272,note_off,,,,,512,0,3,,,67,0,2
54272,note_off,,,,,0,0,6,,,81,0,5
54272,note_off,,,,,1024,0,7,,,65,0,6
54272,note_off,,,,,512,0,4,,,58,0,3
54272,note_on,,,,,0,0,7,,,69,96,6
54272,note_off,,,,,1024,0,1,,,72,0,0
54272,note_off,,,,,512,0,8,,,67,0,7
54272,note_off,,,,,1024,0,2,,,65,0,1
54272,note_on,,,,,0,0,1,,,72,96,0
54784,note_off,,,,,512,0,8,,,65,0,7
54784,note_on,,,,,0,0,3,,,67,96,2
54784,note_off,,,,,512,0,4,,,57,0,3
54784,note_off,,,,,512,0,3,,,65,0,2
54784,note_on,,,,,0,0,5,,,58,96,4
54784,note_off,,,,,512,0,5,,,57,0,4
54784,note_on,,,,,0,0,4,,,58,96,3
54784,note_on,,,,,0,0,8,,,67,96,7
55296,note_off,,,,,512,0,4,,,58,0,3
55296,note_on,,,,,0,0,4,,,60,96,3
55296,note_on,,,,,0,0,5,,,60,96,4
55296,note_off,,,,,512,0,5,,,58,0,4
55296,note_off,,,,,512,0,3,,,67,0,2
55296,note_on,,,,,0,0,1,,,72,96,0
55296,note_on,,,,,0,0,3,,,64,96,2
55296,note_on,,,,,0,0,2,,,67,96,1
55296,note_off,,,,,1024,0,2,,,69,0,1
55296,note_on,,,,,0,0,8,,,64,96,7
55296,note_off,,,,,512,0,8,,,67,0,7
55296,note_off,,,,,1024,0,1,,,72,0,0
55296,note_off,,,,,1024,0,7,,,69,0,6
55296,note_on,,,,,0,0,7,,,67,96,6
55808,note_on,,,,,0,0,8,,,65,96,7
55808,note_off,,,,,512,0,8,,,64,0,7
55808,note_off,,,,,512,0,4,,,60,0,3
55808,note_on,,,,,0,0,4,,,62,96,3
55808,note_on,,,,,0,0,5,,,62,96,4
55808,note_off,,,,,512,0,5,,,60,0,4
56320,note_on,,,,,0,0,2,,,64,96,1
56320,note_off,,,,,1024,0,7,,,67,0,6
56320,note_on,,,,,0,0,7,,,64,96,6
56320,note_off,,,,,1024,0,3,,,64,0,2
56320,note_on,,,,,0,0,3,,,60,96,2
56320,note_on,,,,,0,0,5,,,60,96,4
56320,note_off,,,,,1024,0,2,,,67,0,1
56320,note_on,,,,,0,0,6,,,72,96,5
56320,note_on,,,,,0,0,8,,,64,96,7
56320,note_off,,,,,512,0,8,,,65,0,7
56320,note_on,,,,,2048,0,6,,,72,96,5
56320,note_off,,,,,512,0,5,,,62,0,4
56320,note_on,,,,,0,0,1,,,67,96,0
56320,note_on,,,,,0,0,4,,,60,96,3
56320,note_off,,,,,512,0,4,,,62,0,3
56320,note_off,,,,,1024,0,1,,,72,0,0
56832,note_on,,,,,0,0,8,,,65,96,7
56832,note_off,,,,,512,0,8,,,64,0,7
56832,note_off,,,,,512,0,4,,,60,0,3
56832,note_on,,,,,0,0,4,,,62,96,3
56832,note_on,,,,,0,0,5,,,62,96,4
56832,note_off,,,,,512,0,5,,,60,0,4
57344,note_on,,,,,0,0,7,,,67,96,6
57344,note_on,,,,,0,0,6,,,72,96,5
57344,note_on,,,,,0,0,3,,,64,96,2
57344,note_off,,,,,1024,0,6,,,72,0,5
57344,note_on,,,,,0,0,6,,,72,96,5
57344,note_off,,,,,0,0,6,,,72,0,5
57344,note_on,,,,,0,0,4,,,58,96,3
57344,note_off,,,,,512,0,5,,,62,0,4
57344,note_off,,,,,1024,0,7,,,64,0,6
57344,note_off,,,,,512,0,4,,,62,0,3
57344,note_off,,,,,1024,0,2,,,64,0,1
57344,note_on,,,,,0,0,2,,,67,96,1
57344,note_on,,,,,0,0,8,,,64,96,7
57344,note_off,,,,,512,0,8,,,65,0,7
57344,note_off,,,,,1024,0,1,,,67,0,0
57344,note_off,,,,,1024,0,3,,,60,0,2
57344,note_on,,,,,0,0,5,,,58,96,4
57856,note_off,,,,,512,0,4,,,58,0,3
57856,note_on,,,,,0,0,4,,,60,96,3
57856,note_off,,,,,512,0,5,,,58,0,4
57856,note_on,,,,,0,0,5,,,60,96,4
57856,note_off,,,,,512,0,8,,,64,0,7
57856,note_on,,,,,0,0,8,,,65,96,7
58368,note_on,,,,,0,0,8,,,67,96,7
58368,note_off,,,,,1024,0,2,,,67,0,1
58368,note_off,,,,,512,0,8,,,65,0,7
58368,note_on,,,,,0,0,6,,,77,96,5
58368,note_on,,,,,0,0,6,,,77,96,5
58368,note_off,,,,,0,0,6,,,72,0,5
58368,note_on,,,,,0,0,4,,,57,96,3
58368,note_on,,,,,0,0,2,,,72,96,1
58368,note_off,,,,,1024,0,3,,,64,0,2
58368,note_off,,,,,1024,0,6,,,72,0,5
58368,note_off,,,,,1024,0,7,,,67,0,6
58368,note_on,,,,,0,0,7,,,69,96,6
58368,note_on,,,,,0,0,5,,,57,96,4
58368,note_off,,,,,512,0,5,,,60,0,4
58368,note_on,,,,,0,0,3,,,65,96,2
58368,note_off,,,,,512,0,4,,,60,0,3
58880,note_off,,,,,512,0,6,,,77,0,5
58880,note_on,,,,,0,0,6,,,79,96,5
58880,note_on,,,,,0,0,6,,,79,96,5
58880,note_off,,,,,0,0,6,,,77,0,5
58880,note_off,,,,,512,0,7,,,69,0,6
58880,note_on,,,,,0,0,7,,,70,96,6
59392,note_off,,,,,1024,0,3,,,65,0,2
59392,note_on,,,,,0,0,3,,,60,96,2
59392,note_on,,,,,0,0,5,,,53,96,4
59392,note_off,,,,,1024,0,5,,,57,0,4
59392,note_on,,,,,0,0,8,,,60,96,7
59392,note_on,,,,,0,0,6,,,77,96,5
59392,note_off,,,,,1024,0,4,,,57,0,3
59392,note_on,,,,,0,0,4,,,53,96,3
59392,note_on,,,,,0,0,7,,,69,96,6
59392,note_off,,,,,512,0,7,,,70,0,6
59392,note_off,,,,,512,0,6,,,79,0,5
59392,note_on,,,,,0,0,2,,,69,96,1
59392,note_off,,,,,1024,0,8,,,67,0,7
59392,note_on,,,,,2048,0,1,,,65,96,0
59392,note_off,,,,,1024,0,2,,,72,0,1
59392,note_on,,,,,0,0,6,,,77,96,5
59392,note_off,,,,,0,0,6,,,79,0,5
59904,note_off,,,,,0,0,6,,,77,0,5
59904,note_on,,,,,0,0,6,,,79,96,5
59904,note_on,,,,,0,0,6,,,79,96,5
59904,note_off,,,,,512,0,6,,,77,0,5
59904,note_off,,,,,512,0,7,,,69,0,6
59904,note_on,,,,,0,0,7,,,70,96,6
60416,note_off,,,,,0,0,6,,,79,0,5
60416,note_on,,,,,0,0,6,,,77,96,5
60416,note_off,,,,,1024,0,5,,,53,0,4
60416,note_off,,,,,1024,0,2,,,69,0,1
60416,note_on,,,,,0,0,5,,,57,96,4
60416,note_on,,,,,0,0,4,,,57,96,3
60416,note_off,,,,,1024,0,4,,,53,0,3
60416,note_on,,,,,0,0,8,,,60,96,7
60416,note_off,,,,,1024,0,8,,,60,0,7
60416,note_off,,,,,1024,0,3,,,60,0,2
60416,note_on,,,,,0,0,7,,,69,96,6
60416,note_off,,,,,512,0,6,,,79,0,5
60416,note_off,,,,,512,0,7,,,70,0,6
60416,note_on,,,,,0,0,6,,,77,96,5
60416,note_off,,,,,1024,0,1,,,65,0,0
60416,note_on,,,,,0,0,1,,,65,96,0
60928,note_on,,,,,0,0,7,,,70,96,6
60928,note_on,,,,,0,0,6,,,79,96,5
60928,note_on,,,,,0,0,6,,,79,96,5
60928,note_off,,,,,512,0,6,,,77,0,5
60928,note_off,,,,,512,0,7,,,69,0,6
60928,note_off,,,,,0,0,6,,,77,0,5
61440,note_on,,,,,0,0,7,,,67,96,6
61440,note_on,,,,,0,0,5,,,60,96,4
61440,note_on,,,,,0,0,4,,,60,96,3
61440,note_off,,,,,1024,0,4,,,57,0,3
61440,note_on,,,,,0,0,6,,,76,96,5
61440,note_off,,,,,0,0,6,,,79,0,5
61440,note_off,,,,,512,0,7,,,70,0,6
61440,note_on,,,,,0,0,1,,,72,96,0
61440,note_off,,,,,1024,0,1,,,65,0,0
61440,note_on,,,,,0,0,6,,,76,96,5
61440,note_off,,,,,1024,0,5,,,57,0,4
61440,note_off,,,,,512,0,6,,,79,0,5
61440,note_on,,,,,0,0,8,,,64,96,7
61440,note_off,,,,,1024,0,8,,,60,0,7
61440,note_on,,,,,1024,0,3,,,60,96,2
61952,note_on,,,,,0,0,8,,,62,96,7
61952,note_off,,,,,512,0,8,,,64,0,7
61952,note_off,,,,,0,0,6,,,76,0,5
61952,note_on,,,,,0,0,1,,,71,96,0
61952,note_off,,,,,512,0,3,,,60,0,2
61952,note_on,,,,,0,0,3,,,62,96,2
61952,note_on,,,,,0,0,6,,,77,96,5
61952,note_on,,,,,0,0,6,,,77,96,5
61952,note_off,,,,,512,0,1,,,72,0,0
61952,note_off,,,,,512,0,6,,,76,0,5
62464,note_off,,,,,1024,0,7,,,67,0,6
62464,note_off,,,,,512,0,1,,,71,0,0
62464,note_on,,,,,0,0,1,,,72,96,0
62464,note_on,,,,,2048,0,2,,,60,96,1
62464,note_off,,,,,512,0,6,,,77,0,5
62464,note_on,,,,,0,0,3,,,60,96,2
62464,note_on,,,,,0,0,6,,,76,96,5
62464,note_off,,,,,0,0,6,,,77,0,5
62464,note_on,,,,,0,0,5,,,48,96,4
62464,note_on,,,,,0,0,7,,,64,96,6
62464,note_on,,,,,0,0,4,,,48,96,3
62464,note_off,,,,,1024,0,4,,,60,0,3
62464,note_off,,,,,512,0,3,,,62,0,2
62464,note_on,,,,,0,0,8,,,60,96,7
62464,note_off,,,,,512,0,8,,,62,0,7
62464,note_on,,,,,0,0,6,,,76,96,5
62464,note_off,,,,,1024,0,5,,,60,0,4
62976,note_on,,,,,0,0,8,,,62,96,7
62976,note_off,,,,,512,0,8,,,60,0,7
62976,note_off,,,,,512,0,3,,,60,0,2
62976,note_on,,,,,0,0,3,,,62,96,2
62976,note_off,,,,,512,0,6,,,76,0,5
62976,note_on,,,,,0,0,6,,,77,96,5
62976,note_on,,,,,0,0,6,,,77,96,5
62976,note_off,,,,,0,0,6,,,76,0,5
63488,note_on,,,,,0,0,2,,,60,96,1
63488,note_on,,,,,0,0,8,,,64,96,7
63488,note_off,,,,,512,0,8,,,62,0,7
63488,note_off,,,,,1024,0,4,,,48,0,3
63488,note_off,,,,,0,0,6,,,77,0,5
63488,note_on,,,,,0,0,6,,,76,96,5
63488,note_off,,,,,1024,0,7,,,64,0,6
63488,note_off,,,,,1024,0,1,,,72,0,0
63488,note_on,,,,,0,0,6,,,76,96,5
63488,note_on,,,,,0,0,7,,,67,96,6
63488,note_on,,,,,0,0,5,,,60,96,4
63488,note_off,,,,,512,0,6,,,77,0,5
63488,note_on,,,,,0,0,3,,,64,96,2
63488,note_off,,,,,1024,0,2,,,60,0,1
63488,note_off,,,,,512,0,3,,,62,0,2
63488,note_off,,,,,1024,0,5,,,48,0,4
64000,note_off,,,,,512,0,3,,,64,0,2
64000,note_off,,,,,512,0,6,,,76,0,5
64000,note_on,,,,,0,0,6,,,77,96,5
64000,note_on,,,,,0,0,6,,,77,96,5
64000,note_off,,,,,0,0,6,,,76,0,5
64000,note_off,,,,,512,0,8,,,64,0,7
64000,note_on,,,,,0,0,8,,,60,96,7
64000,note_on,,,,,0,0,3,,,60,96,2
64512,note_off,,,,,512,0,6,,,77,0,5
64512,note_off,,,,,0,0,6,,,77,0,5
64512,note_on,,,,,0,0,6,,,79,96,5
64512,note_off,,,,,512,0,3,,,60,0,2
64512,note_on,,,,,0,0,3,,,62,96,2
64512,note_off,,,,,512,0,8,,,60,0,7
64512,note_on,,,,,0,0,8,,,62,96,7
64512,note_on,,,,,0,0,5,,,55,96,4
64512,note_on,,,,,0,0,6,,,79,96,5
64512,note_off,,,,,1024,0,2,,,60,0,1
64512,note_on,,,,,0,0,2,,,67,96,1
64512,note_on,,,,,1024,0,1,,,70,96,0
64512,note_off,,,,,1024,0,5,,,60,0,4
64512,note_off,,,,,1024,0,7,,,67,0,6
64512,note_on,,,,,0,0,7,,,70,96,6
65024,note_on,,,,,0,0,3,,,60,96,2
65024,note_off,,,,,512,0,3,,,62,0,2
65024,note_off,,,,,512,0,2,,,67,0,1
65024,note_on,,,,,0,0,2,,,65,96,1
65024,note_on,,,,,0,0,1,,,72,96,0
65024,note_off,,,,,512,0,8,,,62,0,7
65024,note_on,,,,,0,0,8,,,60,96,7
65024,note_off,,,,,512,0,1,,,70,0,0
65536,note_off,,,,,512,0,3,,,60,0,2
65536,note_off,,,,,512,0,8,,,60,0,7
65536,note_off,,,,,1024,0,6,,,79,0,5
65536,note_on,,,,,0,0,6,,,74,96,5
65536,note_on,,,,,0,0,6,,,74,96,5
65536,note_off,,,,,0,0,6,,,79,0,5
65536,note_off,,,,,512,0,2,,,65,0,1
65536,note_off,,,,,1024,0,7,,,70,0,6
65536,note_on,,,,,0,0,5,,,43,96,4
65536,note_off,,,,,512,0,1,,,72,0,0
65536,note_on,,,,,0,0,1,,,70,96,0
65536,note_on,,,,,0,0,3,,,62,96,2
65536,note_on,,,,,0,0,2,,,67,96,1
65536,note_on,,,,,0,0,8,,,62,96,7
65536,note_on,,,,,0,0,7,,,62,96,6
65536,note_off,,,,,1024,0,5,,,55,0,4
66048,note_off,,,,,512,0,6,,,74,0,5
66048,note_on,,,,,0,0,6,,,76,96,5
66048,note_on,,,,,0,0,6,,,76,96,5
66048,note_off,,,,,0,0,6,,,74,0,5
66048,note_on,,,,,0,0,1,,,72,96,0
66048,note_off,,,,,512,0,1,,,70,0,0
66560,note_off,,,,,1024,0,8,,,62,0,7
66560,note_off,,,,,512,0,1,,,72,0,0
66560,note_on,,,,,0,0,1,,,70,96,0
66560,note_on,,,,,3072,0,4,,,55,96,3
66560,note_off,,,,,1024,0,2,,,67,0,1
66560,note_on,,,,,0,0,5,,,55,96,4
66560,note_on,,,,,0,0,3,,,58,96,2
66560,note_on,,,,,0,0,8,,,58,96,7
66560,note_off,,,,,1024,0,5,,,43,0,4
66560,note_off,,,,,512,0,6,,,76,0,5
66560,note_on,,,,,0,0,6,,,74,96,5
66560,note_on,,,,,0,0,6,,,74,96,5
66560,note_off,,,,,0,0,6,,,76,0,5
66560,note_off,,,,,1024,0,7,,,62,0,6
66560,note_on,,,,,0,0,7,,,67,96,6
66560,note_off,,,,,1024,0,3,,,62,0,2
67072,note_on,,,,,0,0,1,,,72,96,0
67072,note_off,,,,,512,0,1,,,70,0,0
67072,note_on,,,,,0,0,6,,,76,96,5
67072,note_off,,,,,0,0,6,,,74,0,5
67072,note_off,,,,,512,0,6,,,74,0,5
67072,note_on,,,,,0,0,6,,,76,96,5
67584,note_off,,,,,1024,0,8,,,58,0,7
67584,note_on,,,,,0,0,8,,,57,96,7
67584,note_off,,,,,1024,0,5,,,55,0,4
67584,note_on,,,,,0,0,4,,,50,96,3
67584,note_off,,,,,1024,0,4,,,55,0,3
67584,note_on,,,,,0,0,5,,,50,96,4
67584,note_on,,,,,1024,0,2,,,65,96,1
67584,note_off,,,,,1024,0,3,,,58,0,2
67584,note_on,,,,,0,0,3,,,57,96,2
67584,note_off,,,,,1024,0,7,,,67,0,6
67584,note_on,,,,,0,0,7,,,65,96,6
67584,note_off,,,,,512,0,1,,,72,0,0
67584,note_off,,,,,512,0,6,,,76,0,5
67584,note_off,,,,,0,0,6,,,76,0,5
67584,note_on,,,,,0,0,6,,,77,96,5
67584,note_on,,,,,0,0,6,,,77,96,5
67584,note_on,,,,,0,0,1,,,74,96,0
68096,note_off,,,,,512,0,2,,,65,0,1
68096,note_on,,,,,0,0,2,,,67,96,1
68608,note_on,,,,,0,0,7,,,62,96,6
68608,note_on,,,,,0,0,8,,,53,96,7
68608,note_on,,,,,0,0,5,,,38,96,4
68608,note_off,,,,,1024,0,5,,,50,0,4
68608,note_off,,,,,1024,0,4,,,50,0,3
68608,note_on,,,,,0,0,1,,,69,96,0
68608,note_on,,,,,0,0,4,,,38,96,3
68608,note_on,,,,,0,0,6,,,69,96,5
68608,note_on,,,,,0,0,3,,,53,96,2
68608,note_off,,,,,1024,0,1,,,74,0,0
68608,note_off,,,,,1024,0,8,,,57,0,7
68608,note_off,,,,,1024,0,6,,,77,0,5
68608,note_off,,,,,0,0,6,,,77,0,5
68608,note_off,,,,,512,0,2,,,67,0,1
68608,note_on,,,,,0,0,2,,,65,96,1
68608,note_off,,,,,1024,0,3,,,57,0,2
68608,note_off,,,,,1024,0,7,,,65,0,6
68608,note_on,,,,,0,0,6,,,69,96,5
69120,note_off,,,,,512,0,2,,,65,0,1
69120,note_on,,,,,0,0,2,,,67,96,1
69120,note_off,,,,,512,0,1,,,69,0,0
69120,note_on,,,,,0,0,1,,,70,96,0
69632,note_off,,,,,1024,0,6,,,69,0,5
69632,note_off,,,,,1024,0,7,,,62,0,6
69632,note_off,,,,,1024,0,8,,,53,0,7
69632,note_off,,,,,1024,0,5,,,38,0,4
69632,note_on,,,,,0,0,6,,,74,96,5
69632,note_on,,,,,0,0,5,,,62,96,4
69632,note_off,,,,,512,0,2,,,67,0,1
69632,note_on,,,,,0,0,2,,,65,96,1
69632,note_on,,,,,0,0,8,,,62,96,7
69632,note_off,,,,,0,0,6,,,69,0,5
69632,note_on,,,,,0,0,6,,,74,96,5
69632,note_off,,,,,1024,0,3,,,53,0,2
69632,note_off,,,,,1024,0,4,,,38,0,3
69632,note_off,,,,,512,0,1,,,70,0,0
69632,note_on,,,,,0,0,1,,,69,96,0
69632,note_on,,,,,0,0,3,,,62,96,2
69632,note_on,,,,,0,0,7,,,65,96,6
70144,note_off,,,,,512,0,2,,,65,0,1
70144,note_on,,,,,0,0,1,,,70,96,0
70144,note_on,,,,,0,0,2,,,67,96,1
70144,note_off,,,,,512,0,3,,,62,0,2
70144,note_on,,,,,0,0,3,,,62,96,2
70144,note_off,,,,,512,0,1,,,69,0,0
70656,note_on,,,,,0,0,7,,,65,96,6
70656,note_on,,,,,0,0,5,,,57,96,4
70656,note_off,,,,,1024,0,5,,,62,0,4
70656,note_on,,,,,0,0,3,,,57,96,2
70656,note_on,,,,,0,0,1,,,72,96,0
70656,note_off,,,,,512,0,1,,,70,0,0
70656,note_on,,,,,0,0,6,,,72,96,5
70656,note_on,,,,,0,0,6,,,72,96,5
70656,note_off,,,,,1024,0,6,,,74,0,5
70656,note_off,,,,,512,0,3,,,62,0,2
70656,note_off,,,,,512,0,2,,,67,0,1
70656,note_off,,,,,0,0,6,,,74,0,5
70656,note_on,,,,,0,0,8,,,57,96,7
70656,note_off,,,,,1024,0,8,,,62,0,7
70656,note_off,,,,,1024,0,7,,,65,0,6
70656,note_on,,,,,0,0,2,,,69,96,1
71168,note_off,,,,,512,0,3,,,57,0,2
71168,note_on,,,,,0,0,3,,,58,96,2
71168,note_off,,,,,0,0,6,,,72,0,5
71168,note_off,,,,,512,0,5,,,57,0,4
71168,note_on,,,,,0,0,5,,,58,96,4
71168,note_on,,,,,0,0,6,,,74,96,5
71168,note_on,,,,,0,0,6,,,74,96,5
71168,note_off,,,,,512,0,6,,,72,0,5
71168,note_on,,,,,0,0,8,,,58,96,7
71168,note_off,,,,,512,0,8,,,57,0,7
71680,note_off,,,,,512,0,6,,,74,0,5
71680,note_on,,,,,0,0,6,,,76,96,5
71680,note_on,,,,,0,0,6,,,76,96,5
71680,note_off,,,,,1024,0,7,,,65,0,6
71680,note_on,,,,,0,0,3,,,60,96,2
71680,note_off,,,,,512,0,3,,,58,0,2
71680,note_on,,,,,0,0,7,,,60,96,6
71680,note_off,,,,,512,0,8,,,58,0,7
71680,note_off,,,,,1024,0,2,,,69,0,1
71680,note_on,,,,,0,0,2,,,64,96,1
71680,note_on,,,,,0,0,8,,,60,96,7
71680,note_off,,,,,1024,0,1,,,72,0,0
71680,note_off,,,,,512,0,5,,,58,0,4
71680,note_on,,,,,0,0,5,,,60,96,4
71680,note_on,,,,,0,0,1,,,67,96,0
71680,note_off,,,,,0,0,6,,,74,0,5
72192,note_off,,,,,0,0,6,,,76,0,5
72192,note_on,,,,,0,0,6,,,74,96,5
72192,note_off,,,,,512,0,1,,,67,0,0
72192,note_on,,,,,0,0,1,,,69,96,0
72192,note_off,,,,,512,0,6,,,76,0,5
72192,note_off,,,,,512,0,2,,,64,0,1
72192,note_on,,,,,0,0,2,,,65,96,1
72192,note_on,,,,,0,0,6,,,74,96,5
72704,note_off,,,,,1024,0,8,,,60,0,7
72704,note_off,,,,,512,0,1,,,69,0,0
72704,note_off,,,,,512,0,2,,,65,0,1
72704,note_on,,,,,0,0,2,,,64,96,1
72704,note_off,,,,,1024,0,3,,,60,0,2
72704,note_on,,,,,0,0,3,,,60,96,2
72704,note_on,,,,,0,0,1,,,67,96,0
72704,note_off,,,,,1024,0,7,,,60,0,6
72704,note_on,,,,,0,0,7,,,64,96,6
72704,note_on,,,,,0,0,8,,,60,96,7
72704,note_off,,,,,512,0,6,,,74,0,5
72704,note_on,,,,,0,0,6,,,72,96,5
72704,note_on,,,,,0,0,6,,,72,96,5
72704,note_off,,,,,0,0,6,,,74,0,5
72704,note_off,,,,,1024,0,5,,,60,0,4
72704,note_on,,,,,0,0,5,,,60,96,4
73216,note_off,,,,,0,0,6,,,72,0,5
73216,note_on,,,,,0,0,2,,,65,96,1
73216,note_off,,,,,512,0,2,,,64,0,1
73216,note_on,,,,,0,0,6,,,74,96,5
73216,note_off,,,,,512,0,1,,,67,0,0
73216,note_on,,,,,0,0,1,,,69,96,0
73216,note_off,,,,,512,0,6,,,72,0,5
73216,note_on,,,,,0,0,6,,,74,96,5
73728,note_off,,,,,512,0,1,,,69,0,0
73728,note_on,,,,,0,0,1,,,70,96,0
73728,note_off,,,,,1024,0,3,,,60,0,2
73728,note_on,,,,,0,0,3,,,55,96,2
73728,note_off,,,,,1024,0,7,,,64,0,6
73728,note_on,,,,,0,0,7,,,62,96,6
73728,note_on,,,,,0,0,8,,,55,96,7
73728,note_off,,,,,1024,0,5,,,60,0,4
73728,note_on,,,,,0,0,5,,,55,96,4
73728,note_off,,,,,1024,0,8,,,60,0,7
73728,note_on,,,,,0,0,6,,,70,96,5
73728,note_on,,,,,0,0,2,,,67,96,1
73728,note_on,,,,,0,0,6,,,70,96,5
73728,note_off,,,,,0,0,6,,,74,0,5
73728,note_off,,,,,512,0,6,,,74,0,5
73728,note_off,,,,,512,0,2,,,65,0,1
74240,note_off,,,,,512,0,5,,,55,0,4
74240,note_on,,,,,0,0,5,,,57,96,4
74240,note_off,,,,,0,0,6,,,70,0,5
74240,note_on,,,,,0,0,6,,,72,96,5
74240,note_on,,,,,0,0,3,,,57,96,2
74240,note_on,,,,,0,0,6,,,72,96,5
74240,note_on,,,,,0,0,8,,,57,96,7
74240,note_off,,,,,512,0,8,,,55,0,7
74240,note_off,,,,,512,0,6,,,70,0,5
74240,note_off,,,,,512,0,3,,,55,0,2
74752,note_off,,,,,1024,0,1,,,70,0,0
74752,note_on,,,,,0,0,1,,,65,96,0
74752,note_off,,,,,512,0,5,,,57,0,4
74752,note_on,,,,,0,0,5,,,58,96,4
74752,note_on,,,,,0,0,3,,,58,96,2
74752,note_off,,,,,1024,0,7,,,62,0,6
74752,note_on,,,,,0,0,7,,,58,96,6
74752,note_off,,,,,512,0,6,,,72,0,5
74752,note_on,,,,,0,0,6,,,74,96,5
74752,note_off,,,,,512,0,3,,,57,0,2
74752,note_off,,,,,0,0,6,,,72,0,5
74752,note_off,,,,,1024,0,2,,,67,0,1
74752,note_on,,,,,0,0,2,,,62,96,1
74752,note_on,,,,,0,0,6,,,74,96,5
74752,note_on,,,,,0,0,8,,,58,96,7
74752,note_off,,,,,512,0,8,,,57,0,7
75264,note_on,,,,,0,0,2,,,64,96,1
75264,note_on,,,,,0,0,1,,,67,96,0
75264,note_off,,,,,512,0,2,,,62,0,1
75264,note_off,,,,,512,0,1,,,65,0,0
75264,note_on,,,,,0,0,6,,,72,96,5
75264,note_on,,,,,0,0,6,,,72,96,5
75264,note_off,,,,,0,0,6,,,74,0,5
75264,note_off,,,,,512,0,6,,,74,0,5
75776,note_on,,,,,0,0,7,,,62,96,6
75776,note_off,,,,,1024,0,5,,,58,0,4
75776,note_on,,,,,0,0,2,,,62,96,1
75776,note_off,,,,,512,0,2,,,64,0,1
75776,note_off,,,,,0,0,6,,,72,0,5
75776,note_off,,,,,1024,0,8,,,58,0,7
75776,note_off,,,,,1024,0,3,,,58,0,2
75776,note_on,,,,,0,0,5,,,58,96,4
75776,note_on,,,,,0,0,8,,,58,96,7
75776,note_off,,,,,512,0,1,,,67,0,0
75776,note_on,,,,,0,0,6,,,70,96,5
75776,note_off,,,,,512,0,6,,,72,0,5
75776,note_on,,,,,0,0,6,,,70,96,5
75776,note_off,,,,,1024,0,7,,,58,0,6
75776,note_on,,,,,0,0,3,,,58,96,2
75776,note_on,,,,,0,0,1,,,65,96,0
76288,note_off,,,,,0,0,6,,,70,0,5
76288,note_on,,,,,0,0,6,,,74,96,5
76288,note_on,,,,,0,0,2,,,64,96,1
76288,note_off,,,,,512,0,2,,,62,0,1
76288,note_on,,,,,0,0,1,,,67,96,0
76288,note_off,,,,,512,0,1,,,65,0,0
76288,note_off,,,,,512,0,7,,,62,0,6
76288,note_on,,,,,0,0,7,,,64,96,6
76288,note_on,,,,,0,0,6,,,74,96,5
76288,note_off,,,,,512,0,6,,,70,0,5
76800,note_off,,,,,512,0,7,,,64,0,6
76800,note_off,,,,,512,0,2,,,64,0,1
76800,note_on,,,,,0,0,6,,,72,96,5
76800,note_on,,,,,0,0,6,,,72,96,5
76800,note_off,,,,,0,0,6,,,74,0,5
76800,note_off,,,,,512,0,6,,,74,0,5
76800,note_on,,,,,0,0,2,,,65,96,1
76800,note_on,,,,,0,0,7,,,65,96,6
76800,note_on,,,,,0,0,5,,,57,96,4
76800,note_on,,,,,0,0,1,,,69,96,0
76800,note_on,,,,,0,0,8,,,57,96,7
76800,note_off,,,,,1024,0,8,,,58,0,7
76800,note_off,,,,,512,0,1,,,67,0,0
76800,note_on,,,,,0,0,3,,,57,96,2
76800,note_off,,,,,1024,0,3,,,58,0,2
76800,note_off,,,,,1024,0,5,,,58,0,4
77312,note_off,,,,,512,0,5,,,57,0,4
77312,note_on,,,,,0,0,5,,,58,96,4
77312,note_on,,,,,0,0,3,,,58,96,2
77312,note_off,,,,,512,0,8,,,57,0,7
77312,note_on,,,,,0,0,7,,,67,96,6
77312,note_off,,,,,512,0,7,,,65,0,6
77312,note_off,,,,,512,0,3,,,57,0,2
77312,note_off,,,,,512,0,2,,,65,0,1
77312,note_on,,,,,0,0,2,,,64,96,1
77312,note_on,,,,,0,0,8,,,58,96,7
77824,note_on,,,,,0,0,6,,,72,96,5
77824,note_off,,,,,0,0,6,,,72,0,5
77824,note_off,,,,,512,0,5,,,58,0,4
77824,note_off,,,,,1024,0,6,,,72,0,5
77824,note_on,,,,,0,0,5,,,57,96,4
77824,note_on,,,,,0,0,8,,,57,96,7
77824,note_off,,,,,512,0,8,,,58,0,7
77824,note_on,,,,,0,0,6,,,72,96,5
77824,note_on,,,,,0,0,2,,,65,96,1
77824,note_on,,,,,0,0,7,,,65,96,6
77824,note_off,,,,,512,0,7,,,67,0,6
77824,note_on,,,,,0,0,3,,,57,96,2
77824,note_off,,,,,512,0,3,,,58,0,2
77824,note_off,,,,,1024,0,1,,,69,0,0
77824,note_on,,,,,0,0,1,,,65,96,0
77824,note_off,,,,,512,0,2,,,64,0,1
78336,note_off,,,,,512,0,8,,,57,0,7
78336,note_on,,,,,0,0,8,,,58,96,7
78336,note_on,,,,,0,0,5,,,58,96,4
78336,note_off,,,,,512,0,5,,,57,0,4
78336,note_off,,,,,512,0,2,,,65,0,1
78336,note_on,,,,,0,0,2,,,67,96,1
78336,note_on,,,,,0,0,7,,,64,96,6
78336,note_on,,,,,0,0,3,,,58,96,2
78336,note_off,,,,,512,0,7,,,65,0,6
78336,note_off,,,,,512,0,3,,,57,0,2
78848,note_on,,,,,0,0,1,,,77,96,0
78848,note_off,,,,,1024,0,1,,,65,0,0
78848,note_off,,,,,512,0,3,,,58,0,2
78848,note_on,,,,,0,0,5,,,57,96,4
78848,note_off,,,,,512,0,5,,,58,0,4
78848,note_off,,,,,512,0,8,,,58,0,7
78848,note_on,,,,,0,0,6,,,77,96,5
78848,note_on,,,,,0,0,7,,,65,96,6
78848,note_on,,,,,0,0,6,,,77,96,5
78848,note_off,,,,,1024,0,6,,,72,0,5
78848,note_off,,,,,0,0,6,,,72,0,5
78848,note_off,,,,,512,0,7,,,64,0,6
78848,note_off,,,,,512,0,2,,,67,0,1
78848,note_on,,,,,0,0,2,,,69,96,1
78848,note_on,,,,,0,0,3,,,57,96,2
78848,note_on,,,,,0,0,8,,,57,96,7
79360,note_off,,,,,512,0,3,,,57,0,2
79360,note_on,,,,,0,0,3,,,58,96,2
79360,note_on,,,,,0,0,7,,,62,96,6
79360,note_on,,,,,0,0,8,,,58,96,7
79360,note_on,,,,,0,0,5,,,58,96,4
79360,note_off,,,,,512,0,5,,,57,0,4
79360,note_off,,,,,512,0,7,,,65,0,6
79360,note_off,,,,,512,0,8,,,57,0,7
79872,note_off,,,,,1024,0,1,,,77,0,0
79872,note_on,,,,,0,0,1,,,76,96,0
79872,note_on,,,,,0,0,7,,,67,96,6
79872,note_off,,,,,512,0,7,,,62,0,6
79872,note_on,,,,,0,0,6,,,76,96,5
79872,note_on,,,,,0,0,2,,,67,96,1
79872,note_on,,,,,0,0,3,,,60,96,2
79872,note_off,,,,,0,0,6,,,77,0,5
79872,note_off,,,,,512,0,8,,,58,0,7
79872,note_on,,,,,0,0,8,,,60,96,7
79872,note_on,,,,,0,0,5,,,60,96,4
79872,note_off,,,,,512,0,5,,,58,0,4
79872,note_on,,,,,0,0,6,,,76,96,5
79872,note_off,,,,,1024,0,2,,,69,0,1
79872,note_off,,,,,1024,0,6,,,77,0,5
79872,note_off,,,,,512,0,3,,,58,0,2
80384,note_on,,,,,0,0,7,,,69,96,6
80384,note_off,,,,,512,0,7,,,67,0,6
80896,note_on,,,,,0,0,3,,,55,96,2
80896,note_on,,,,,0,0,2,,,64,96,1
80896,note_off,,,,,1024,0,2,,,67,0,1
80896,note_off,,,,,1024,0,3,,,60,0,2
80896,note_off,,,,,512,0,7,,,69,0,6
80896,note_off,,,,,0,0,6,,,76,0,5
80896,note_on,,,,,0,0,5,,,48,96,4
80896,note_off,,,,,1024,0,5,,,60,0,4
80896,note_on,,,,,0,0,6,,,72,96,5
80896,note_off,,,,,1024,0,6,,,76,0,5
80896,note_off,,,,,1024,0,8,,,60,0,7
80896,note_on,,,,,0,0,1,,,72,96,0
80896,note_off,,,,,1024,0,1,,,76,0,0
80896,note_on,,,,,11264,0,4,,,48,96,3
80896,note_on,,,,,0,0,7,,,67,96,6
80896,note_on,,,,,0,0,8,,,58,96,7
80896,note_on,,,,,0,0,6,,,72,96,5
81408,note_on,,,,,0,0,7,,,69,96,6
81408,note_off,,,,,512,0,8,,,58,0,7
81408,note_on,,,,,0,0,8,,,60,96,7
81408,note_off,,,,,512,0,7,,,67,0,6
81920,note_on,,,,,0,0,8,,,58,96,7
81920,note_on,,,,,0,0,3,,,60,96,2
81920,note_off,,,,,1024,0,3,,,55,0,2
81920,note_on,,,,,0,0,6,,,76,96,5
81920,note_off,,,,,512,0,8,,,60,0,7
81920,note_on,,,,,0,0,1,,,76,96,0
81920,note_off,,,,,1024,0,6,,,72,0,5
81920,note_on,,,,,0,0,4,,,48,96,3
81920,note_on,,,,,0,0,5,,,48,96,4
81920,note_off,,,,,1024,0,4,,,48,0,3
81920,note_on,,,,,0,0,6,,,76,96,5
81920,note_off,,,,,1024,0,2,,,64,0,1
81920,note_on,,,,,0,0,2,,,72,96,1
81920,note_off,,,,,0,0,6,,,72,0,5
81920,note_off,,,,,1024,0,5,,,48,0,4
81920,note_on,,,,,0,0,7,,,67,96,6
81920,note_off,,,,,512,0,7,,,69,0,6
81920,note_off,,,,,1024,0,1,,,72,0,0
82432,note_on,,,,,0,0,8,,,60,96,7
82432,note_on,,,,,0,0,7,,,69,96,6
82432,note_off,,,,,512,0,8,,,58,0,7
82432,note_off,,,,,512,0,7,,,67,0,6
82944,note_off,,,,,0,0,6,,,76,0,5
82944,note_on,,,,,0,0,5,,,53,96,4
82944,note_off,,,,,512,0,8,,,60,0,7
82944,note_on,,,,,0,0,8,,,57,96,7
82944,note_off,,,,,1024,0,6,,,76,0,5
82944,note_off,,,,,1024,0,1,,,76,0,0
82944,note_on,,,,,0,0,6,,,77,96,5
82944,note_on,,,,,0,0,6,,,77,96,5
82944,note_off,,,,,1024,0,2,,,72,0,1
82944,note_on,,,,,0,0,2,,,72,96,1
82944,note_on,,,,,0,0,3,,,57,96,2
82944,note_off,,,,,1024,0,3,,,60,0,2
82944,note_off,,,,,512,0,7,,,69,0,6
82944,note_on,,,,,0,0,1,,,77,96,0
82944,note_on,,,,,0,0,7,,,65,96,6
82944,note_off,,,,,1024,0,4,,,48,0,3
82944,note_off,,,,,1024,0,5,,,48,0,4
82944,note_on,,,,,0,0,4,,,53,96,3
83456,note_off,,,,,512,0,7,,,65,0,6
83456,note_on,,,,,0,0,7,,,67,96,6
83456,note_on,,,,,0,0,4,,,52,96,3
83456,note_on,,,,,0,0,8,,,58,96,7
83456,note_off,,,,,512,0,8,,,57,0,7
83456,note_on,,,,,0,0,5,,,52,96,4
83456,note_off,,,,,512,0,5,,,53,0,4
83456,note_off,,,,,512,0,4,,,53,0,3
83968,note_off,,,,,512,0,4,,,52,0,3
83968,note_on,,,,,0,0,4,,,53,96,3
83968,note_off,,,,,1024,0,1,,,77,0,0
83968,note_on,,,,,0,0,5,,,53,96,4
83968,note_on,,,,,0,0,1,,,72,96,0
83968,note_on,,,,,0,0,8,,,57,96,7
83968,note_on,,,,,0,0,3,,,53,96,2
83968,note_off,,,,,1024,0,3,,,57,0,2
83968,note_off,,,,,0,0,6,,,77,0,5
83968,note_on,,,,,0,0,6,,,72,96,5
83968,note_off,,,,,512,0,5,,,52,0,4
83968,note_off,,,,,512,0,8,,,58,0,7
83968,note_on,,,,,0,0,7,,,65,96,6
83968,note_off,,,,,1024,0,6,,,77,0,5
83968,note_on,,,,,0,0,6,,,72,96,5
83968,note_on,,,,,0,0,2,,,69,96,1
83968,note_off,,,,,1024,0,2,,,72,0,1
83968,note_off,,,,,512,0,7,,,67,0,6
84480,note_off,,,,,512,0,7,,,65,0,6
84480,note_on,,,,,0,0,7,,,67,96,6
84480,note_on,,,,,0,0,8,,,55,96,7
84480,note_off,,,,,512,0,8,,,57,0,7
84992,note_off,,,,,1024,0,1,,,72,0,0
84992,note_on,,,,,0,0,7,,,69,96,6
84992,note_on,,,,,0,0,6,,,77,96,5
84992,note_off,,,,,1024,0,2,,,69,0,1
84992,note_off,,,,,1024,0,4,,,53,0,3
84992,note_off,,,,,512,0,7,,,67,0,6
84992,note_off,,,,,0,0,6,,,72,0,5
84992,note_off,,,,,1024,0,3,,,53,0,2
84992,note_on,,,,,0,0,6,,,77,96,5
84992,note_off,,,,,1024,0,5,,,53,0,4
84992,note_off,,,,,512,0,8,,,55,0,7
84992,note_on,,,,,0,0,8,,,53,96,7
84992,note_off,,,,,1024,0,6,,,72,0,5
85504,note_on,,,,,0,0,7,,,65,96,6
85504,note_off,,,,,512,0,7,,,69,0,6
85504,note_off,,,,,512,0,8,,,53,0,7
85504,note_on,,,,,0,0,8,,,57,96,7
86016,note_off,,,,,0,0,6,,,77,0,5
86016,note_off,,,,,512,0,7,,,65,0,6
86016,note_off,,,,,1024,0,6,,,77,0,5
86016,note_on,,,,,0,0,6,,,79,96,5
86016,note_off,,,,,512,0,8,,,57,0,7
86016,note_on,,,,,0,0,8,,,55,96,7
86016,note_on,,,,,1024,0,5,,,52,96,4
86016,note_on,,,,,0,0,7,,,72,96,6
86016,note_on,,,,,1024,0,4,,,52,96,3
86016,note_on,,,,,0,0,6,,,79,96,5
86528,note_on,,,,,0,0,8,,,57,96,7
86528,note_on,,,,,0,0,4,,,53,96,3
86528,note_on,,,,,0,0,5,,,53,96,4
86528,note_off,,,,,512,0,5,,,52,0,4
86528,note_off,,,,,512,0,4,,,52,0,3
86528,note_off,,,,,512,0,8,,,55,0,7
87040,note_on,,,,,0,0,6,,,72,96,5
87040,note_off,,,,,0,0,6,,,79,0,5
87040,note_on,,,,,2048,0,2,,,67,96,1
87040,note_on,,,,,2048,0,3,,,60,96,2
87040,note_off,,,,,1024,0,7,,,72,0,6
87040,note_on,,,,,0,0,7,,,67,96,6
87040,note_on,,,,,0,0,8,,,55,96,7
87040,note_off,,,,,1024,0,6,,,79,0,5
87040,note_off,,,,,512,0,5,,,53,0,4
87040,note_on,,,,,0,0,5,,,52,96,4
87040,note_on,,,,,2048,0,1,,,76,96,0
87040,note_on,,,,,0,0,4,,,52,96,3
87040,note_off,,,,,512,0,4,,,53,0,3
87040,note_off,,,,,512,0,8,,,57,0,7
87040,note_on,,,,,0,0,6,,,72,96,5
87552,note_on,,,,,0,0,4,,,53,96,3
87552,note_on,,,,,0,0,5,,,53,96,4
87552,note_off,,,,,512,0,5,,,52,0,4
87552,note_on,,,,,0,0,8,,,57,96,7
87552,note_off,,,,,512,0,4,,,52,0,3
87552,note_off,,,,,512,0,8,,,55,0,7
88064,note_off,,,,,512,0,5,,,53,0,4
88064,note_on,,,,,0,0,6,,,84,96,5
88064,note_on,,,,,0,0,8,,,55,96,7
88064,note_off,,,,,512,0,8,,,57,0,7
88064,note_off,,,,,1024,0,6,,,72,0,5
88064,note_on,,,,,0,0,3,,,60,96,2
88064,note_off,,,,,1024,0,3,,,60,0,2
88064,note_on,,,,,0,0,2,,,67,96,1
88064,note_off,,,,,1024,0,2,,,67,0,1
88064,note_off,,,,,512,0,4,,,53,0,3
88064,note_off,,,,,1024,0,7,,,67,0,6
88064,note_on,,,,,0,0,7,,,67,96,6
88064,note_on,,,,,0,0,4,,,52,96,3
88064,note_on,,,,,0,0,1,,,76,96,0
88064,note_on,,,,,0,0,6,,,84,96,5
88064,note_off,,,,,0,0,6,,,72,0,5
88064,note_on,,,,,0,0,5,,,52,96,4
88064,note_off,,,,,1024,0,1,,,76,0,0
88576,note_on,,,,,0,0,8,,,57,96,7
88576,note_off,,,,,512,0,8,,,55,0,7
88576,note_off,,,,,512,0,4,,,52,0,3
88576,note_on,,,,,0,0,4,,,53,96,3
88576,note_off,,,,,512,0,5,,,52,0,4
88576,note_on,,,,,0,0,5,,,53,96,4
89088,note_on,,,,,0,0,7,,,67,96,6
89088,note_on,,,,,0,0,2,,,67,96,1
89088,note_on,,,,,0,0,3,,,55,96,2
89088,note_off,,,,,512,0,5,,,53,0,4
89088,note_on,,,,,0,0,5,,,55,96,4
89088,note_on,,,,,0,0,4,,,55,96,3
89088,note_off,,,,,512,0,4,,,53,0,3
89088,note_off,,,,,512,0,8,,,57,0,7
89088,note_on,,,,,0,0,1,,,74,96,0
89088,note_off,,,,,1024,0,1,,,76,0,0
89088,note_off,,,,,1024,0,7,,,67,0,6
89088,note_off,,,,,1024,0,2,,,67,0,1
89088,note_on,,,,,0,0,8,,,58,96,7
89088,note_off,,,,,1024,0,3,,,60,0,2
89088,note_off,,,,,1024,0,6,,,84,0,5
89088,note_off,,,,,0,0,6,,,84,0,5
89088,note_on,,,,,0,0,6,,,82,96,5
89088,note_on,,,,,0,0,6,,,82,96,5
89600,note_on,,,,,0,0,8,,,60,96,7
89600,note_off,,,,,0,0,6,,,82,0,5
89600,note_on,,,,,0,0,6,,,81,96,5
89600,note_on,,,,,0,0,6,,,81,96,5
89600,note_off,,,,,512,0,6,,,82,0,5
89600,note_off,,,,,512,0,8,,,58,0,7
90112,note_on,,,,,0,0,3,,,58,96,2
90112,note_on,,,,,0,0,6,,,82,96,5
90112,note_on,,,,,0,0,6,,,82,96,5
90112,note_off,,,,,1024,0,7,,,67,0,6
90112,note_on,,,,,0,0,7,,,65,96,6
90112,note_off,,,,,1024,0,4,,,55,0,3
90112,note_on,,,,,0,0,4,,,50,96,3
90112,note_off,,,,,512,0,6,,,81,0,5
90112,note_off,,,,,1024,0,2,,,67,0,1
90112,note_off,,,,,512,0,8,,,60,0,7
90112,note_on,,,,,0,0,2,,,65,96,1
90112,note_off,,,,,1024,0,1,,,74,0,0
90112,note_on,,,,,0,0,1,,,74,96,0
90112,note_off,,,,,0,0,6,,,81,0,5
90112,note_on,,,,,0,0,5,,,50,96,4
90112,note_off,,,,,1024,0,5,,,55,0,4
90112,note_off,,,,,1024,0,3,,,55,0,2
90112,note_on,,,,,0,0,8,,,62,96,7
90624,note_on,,,,,0,0,7,,,67,96,6
90624,note_off,,,,,512,0,7,,,65,0,6
90624,note_off,,,,,512,0,5,,,50,0,4
90624,note_on,,,,,0,0,5,,,52,96,4
90624,note_on,,,,,0,0,6,,,84,96,5
90624,note_on,,,,,0,0,6,,,84,96,5
90624,note_off,,,,,0,0,6,,,82,0,5
90624,note_off,,,,,512,0,8,,,62,0,7
90624,note_on,,,,,0,0,8,,,60,96,7
90624,note_off,,,,,512,0,4,,,50,0,3
90624,note_on,,,,,0,0,4,,,52,96,3
90624,note_off,,,,,512,0,6,,,82,0,5
91136,note_off,,,,,1024,0,2,,,65,0,1
91136,note_off,,,,,512,0,8,,,60,0,7
91136,note_off,,,,,1024,0,3,,,58,0,2
91136,note_on,,,,,0,0,8,,,62,96,7
91136,note_off,,,,,512,0,5,,,52,0,4
91136,note_on,,,,,0,0,5,,,50,96,4
91136,note_off,,,,,1024,0,1,,,74,0,0
91136,note_on,,,,,0,0,4,,,50,96,3
91136,note_off,,,,,512,0,4,,,52,0,3
91136,note_on,,,,,0,0,7,,,65,96,6
91136,note_off,,,,,512,0,7,,,67,0,6
91136,note_on,,,,,0,0,6,,,82,96,5
91136,note_on,,,,,0,0,6,,,82,96,5
91136,note_off,,,,,512,0,6,,,84,0,5
91136,note_off,,,,,0,0,6,,,84,0,5
91648,note_on,,,,,0,0,4,,,52,96,3
91648,note_on,,,,,0,0,6,,,84,96,5
91648,note_off,,,,,512,0,4,,,50,0,3
91648,note_on,,,,,0,0,7,,,67,96,6
91648,note_off,,,,,0,0,6,,,82,0,5
91648,note_on,,,,,0,0,8,,,58,96,7
91648,note_off,,,,,512,0,8,,,62,0,7
91648,note_off,,,,,512,0,7,,,65,0,6
91648,note_off,,,,,512,0,6,,,82,0,5
91648,note_on,,,,,0,0,6,,,84,96,5
91648,note_off,,,,,512,0,5,,,50,0,4
91648,note_on,,,,,0,0,5,,,52,96,4
92160,note_off,,,,,512,0,4,,,52,0,3
92160,note_on,,,,,1024,0,2,,,65,96,1
92160,note_on,,,,,1024,0,3,,,60,96,2
92160,note_off,,,,,512,0,8,,,58,0,7
92160,note_on,,,,,0,0,8,,,65,96,7
92160,note_on,,,,,0,0,6,,,81,96,5
92160,note_on,,,,,0,0,6,,,81,96,5
92160,note_off,,,,,0,0,6,,,84,0,5
92160,note_off,,,,,512,0,6,,,84,0,5
92160,note_on,,,,,0,0,5,,,53,96,4
92160,note_off,,,,,512,0,5,,,52,0,4
92160,note_on,,,,,0,0,4,,,53,96,3
92160,note_on,,,,,1024,0,1,,,72,96,0
92160,note_off,,,,,512,0,7,,,67,0,6
92160,note_on,,,,,0,0,7,,,69,96,6
92672,note_on,,,,,0,0,6,,,82,96,5
92672,note_on,,,,,0,0,6,,,82,96,5
92672,note_off,,,,,0,0,6,,,81,0,5
92672,note_off,,,,,512,0,6,,,81,0,5
92672,note_on,,,,,0,0,7,,,67,96,6
92672,note_off,,,,,512,0,7,,,69,0,6
93184,note_off,,,,,1024,0,3,,,60,0,2
93184,note_off,,,,,0,0,6,,,82,0,5
93184,note_on,,,,,0,0,6,,,81,96,5
93184,note_on,,,,,0,0,6,,,81,96,5
93184,note_off,,,,,512,0,6,,,82,0,5
93184,note_on,,,,,0,0,3,,,62,96,2
93184,note_off,,,,,1024,0,2,,,65,0,1
93184,note_on,,,,,0,0,2,,,65,96,1
93184,note_off,,,,,512,0,7,,,67,0,6
93184,note_off,,,,,1024,0,1,,,72,0,0
93184,note_on,,,,,0,0,8,,,57,96,7
93184,note_on,,,,,0,0,1,,,77,96,0
93184,note_off,,,,,1024,0,8,,,65,0,7
93184,note_off,,,,,1024,0,5,,,53,0,4
93184,note_on,,,,,0,0,5,,,50,96,4
93184,note_off,,,,,1024,0,4,,,53,0,3
93184,note_on,,,,,0,0,4,,,50,96,3
93184,note_on,,,,,0,0,7,,,65,96,6
93696,note_on,,,,,0,0,7,,,64,96,6
93696,note_on,,,,,0,0,6,,,79,96,5
93696,note_off,,,,,512,0,7,,,65,0,6
93696,note_off,,,,,512,0,6,,,81,0,5
93696,note_on,,,,,0,0,6,,,79,96,5
93696,note_off,,,,,0,0,6,,,81,0,5
94208,note_off,,,,,1024,0,4,,,50,0,3
94208,note_on,,,,,0,0,4,,,55,96,3
94208,note_on,,,,,0,0,2,,,67,96,1
94208,note_on,,,,,0,0,7,,,62,96,6
94208,note_off,,,,,512,0,7,,,64,0,6
94208,note_off,,,,,1024,0,3,,,62,0,2
94208,note_on,,,,,0,0,8,,,59,96,7
94208,note_off,,,,,1024,0,8,,,57,0,7
94208,note_on,,,,,0,0,3,,,62,96,2
94208,note_off,,,,,1024,0,2,,,65,0,1
94208,note_off,,,,,0,0,6,,,79,0,5
94208,note_off,,,,,1024,0,1,,,77,0,0
94208,note_off,,,,,1024,0,5,,,50,0,4
94208,note_on,,,,,0,0,5,,,55,96,4
94208,note_on,,,,,0,0,6,,,77,96,5
94208,note_on,,,,,0,0,6,,,77,96,5
94208,note_off,,,,,512,0,6,,,79,0,5
94208,note_on,,,,,0,0,1,,,74,96,0
94720,note_off,,,,,0,0,6,,,77,0,5
94720,note_on,,,,,0,0,6,,,79,96,5
94720,note_on,,,,,0,0,6,,,79,96,5
94720,note_off,,,,,512,0,6,,,77,0,5
94720,note_on,,,,,0,0,7,,,64,96,6
94720,note_off,,,,,512,0,7,,,62,0,6
95232,note_off,,,,,512,0,7,,,64,0,6
95232,note_on,,,,,0,0,7,,,60,96,6
95232,note_off,,,,,1024,0,5,,,55,0,4
95232,note_on,,,,,0,0,6,,,76,96,5
95232,note_on,,,,,0,0,5,,,48,96,4
95232,note_off,,,,,1024,0,8,,,59,0,7
95232,note_on,,,,,0,0,4,,,48,96,3
95232,note_on,,,,,0,0,6,,,76,96,5
95232,note_on,,,,,0,0,8,,,60,96,7
95232,note_off,,,,,1024,0,2,,,67,0,1
95232,note_off,,,,,512,0,6,,,79,0,5
95232,note_on,,,,,0,0,3,,,60,96,2
95232,note_off,,,,,1024,0,3,,,62,0,2
95232,note_on,,,,,0,0,2,,,67,96,1
95232,note_off,,,,,1024,0,4,,,55,0,3
95232,note_off,,,,,1024,0,1,,,74,0,0
95232,note_off,,,,,0,0,6,,,79,0,5
95232,note_on,,,,,0,0,1,,,76,96,0
96256,note_off,,,,,1024,0,1,,,76,0,0
96256,note_on,,,,,0,0,2,,,64,96,1
96256,note_off,,,,,1024,0,2,,,67,0,1
96256,note_on,,,,,0,0,6,,,76,96,5
96256,note_off,,,,,0,0,6,,,76,0,5
96256,note_on,,,,,0,0,6,,,72,96,5
96256,note_off,,,,,1024,0,3,,,60,0,2
96256,note_on,,,,,0,0,3,,,60,96,2
96256,note_off,,,,,1024,0,8,,,60,0,7
96256,note_on,,,,,0,0,8,,,55,96,7
96256,note_on,,,,,0,0,4,,,48,96,3
96256,note_off,,,,,1024,0,4,,,48,0,3
96256,note_on,,,,,0,0,5,,,48,96,4
96256,note_off,,,,,1024,0,6,,,76,0,5
96256,note_on,,,,,0,0,1,,,72,96,0
96256,note_on,,,,,0,0,7,,,60,96,6
96256,note_off,,,,,1024,0,5,,,48,0,4
96256,note_off,,,,,1024,0,7,,,60,0,6
97280,note_off,,,,,1024,0,8,,,55,0,7
97280,note_off,,,,,1024,0,5,,,48,0,4
97280,note_off,,,,,1024,0,2,,,64,0,1
97280,note_off,,,,,1024,0,7,,,60,0,6
97280,note_off,,,,,1024,0,4,,,48,0,3
97280,note_off,,,,,1024,0,1,,,72,0,0
97280,note_on,,,,,0,0,1,,,72,96,0
97280,note_on,,,,,0,0,6,,,77,96,5
97280,note_off,,,,,1024,0,3,,,60,0,2
97280,note_off,,,,,1024,0,6,,,76,0,5
97280,note_on,,,,,0,0,6,,,81,96,5
97280,note_off,,,,,0,0,6,,,72,0,5
98304,note_off,,,,,1024,0,1,,,72,0,0
98304,note_on,,,,,0,0,1,,,72,96,0
98304,note_off,,,,,1024,0,6,,,81,0,5
98304,note_on,,,,,0,0,6,,,76,96,5
98304,note_on,,,,,0,0,6,,,79,96,5
98304,note_off,,,,,0,0,6,,,77,0,5
98816,note_off,,,,,512,0,6,,,79,0,5
98816,note_on,,,,,0,0,6,,,81,96,5
98816,note_off,,,,,0,0,6,,,76,0,5
98816,note_on,,,,,0,0,6,,,77,96,5
99328,note_on,,,,,2048,0,8,,,60,96,7
99328,note_off,,,,,512,0,6,,,81,0,5
99328,note_on,,,,,0,0,6,,,79,96,5
99328,note_off,,,,,0,0,6,,,77,0,5
99328,note_on,,,,,0,0,6,,,76,96,5
99840,note_on,,,,,0,0,6,,,82,96,5
99840,note_off,,,,,0,0,6,,,76,0,5
99840,note_on,,,,,0,0,6,,,79,96,5
99840,note_off,,,,,512,0,6,,,79,0,5
100352,note_off,,,,,1024,0,8,,,60,0,7
100352,note_on,,,,,0,0,8,,,65,96,7
100352,note_off,,,,,512,0,6,,,82,0,5
100352,note_on,,,,,0,0,6,,,81,96,5
100352,note_off,,,,,0,0,6,,,79,0,5
100352,note_on,,,,,0,0,6,,,77,96,5
100864,note_off,,,,,512,0,6,,,81,0,5
100864,note_on,,,,,0,0,6,,,82,96,5
100864,note_off,,,,,0,0,6,,,77,0,5
100864,note_on,,,,,0,0,6,,,81,96,5
101376,note_on,,,,,0,0,8,,,64,96,7
101376,note_off,,,,,1024,0,8,,,65,0,7
101376,note_off,,,,,512,0,6,,,82,0,5
101376,note_off,,,,,0,0,6,,,81,0,5
101376,note_on,,,,,0,0,6,,,84,96,5
101376,note_on,,,,,0,0,6,,,79,96,5
101888,note_off,,,,,512,0,8,,,64,0,7
101888,note_off,,,,,512,0,6,,,79,0,5
101888,note_on,,,,,0,0,8,,,65,96,7
101888,note_on,,,,,0,0,6,,,81,96,5
102400,note_off,,,,,0,0,6,,,81,0,5
102400,note_on,,,,,0,0,6,,,72,96,5
102400,note_on,,,,,0,0,8,,,64,96,7
102400,note_off,,,,,512,0,6,,,84,0,5
102400,note_on,,,,,5120,0,5,,,52,96,4
102400,note_on,,,,,5120,0,7,,,67,96,6
102400,note_on,,,,,0,0,6,,,79,96,5
102400,note_off,,,,,512,0,8,,,65,0,7
102912,note_on,,,,,0,0,8,,,65,96,7
102912,note_off,,,,,512,0,8,,,64,0,7
102912,note_on,,,,,0,0,6,,,81,96,5
102912,note_off,,,,,512,0,6,,,79,0,5
103424,note_off,,,,,512,0,8,,,65,0,7
103424,note_on,,,,,0,0,8,,,62,96,7
103424,note_on,,,,,0,0,6,,,77,96,5
103424,note_off,,,,,0,0,6,,,81,0,5
103424,note_off,,,,,512,0,6,,,72,0,5
103424,note_off,,,,,1024,0,5,,,52,0,4
103424,note_on,,,,,0,0,5,,,48,96,4
103424,note_on,,,,,0,0,7,,,72,96,6
103424,note_off,,,,,1024,0,7,,,67,0,6
103936,note_off,,,,,512,0,6,,,77,0,5
103936,note_off,,,,,512,0,8,,,62,0,7
103936,note_on,,,,,0,0,8,,,64,96,7
103936,note_on,,,,,0,0,6,,,79,96,5
104448,note_on,,,,,0,0,6,,,81,96,5
104448,note_on,,,,,0,0,7,,,69,96,6
104448,note_off,,,,,1024,0,7,,,72,0,6
104448,note_on,,,,,0,0,8,,,65,96,7
104448,note_off,,,,,512,0,6,,,79,0,5
104448,note_off,,,,,512,0,8,,,64,0,7
104448,note_off,,,,,1024,0,5,,,48,0,4
104448,note_on,,,,,0,0,5,,,53,96,4
104960,note_off,,,,,512,0,7,,,69,0,6
104960,note_on,,,,,0,0,7,,,70,96,6
104960,note_on,,,,,0,0,5,,,52,96,4
104960,note_on,,,,,0,0,6,,,79,96,5
104960,note_off,,,,,512,0,6,,,81,0,5
104960,note_off,,,,,512,0,5,,,53,0,4
104960,note_on,,,,,0,0,8,,,67,96,7
104960,note_off,,,,,512,0,8,,,65,0,7
105472,note_on,,,,,0,0,6,,,77,96,5
105472,note_on,,,,,0,0,8,,,69,96,7
105472,note_off,,,,,512,0,8,,,67,0,7
105472,note_on,,,,,512,0,6,,,72,96,5
105472,note_off,,,,,0,0,6,,,79,0,5
105472,note_on,,,,,0,0,7,,,69,96,6
105472,note_off,,,,,512,0,7,,,70,0,6
105472,note_off,,,,,512,0,5,,,52,0,4
105472,note_on,,,,,0,0,5,,,53,96,4
105984,note_off,,,,,512,0,6,,,77,0,5
105984,note_on,,,,,0,0,6,,,81,96,5
105984,note_on,,,,,0,0,7,,,72,96,6
105984,note_off,,,,,512,0,7,,,69,0,6
105984,note_on,,,,,0,0,8,,,64,96,7
105984,note_off,,,,,512,0,5,,,53,0,4
105984,note_off,,,,,512,0,8,,,69,0,7
105984,note_on,,,,,0,0,5,,,55,96,4
106496,note_off,,,,,512,0,7,,,72,0,6
106496,note_on,,,,,0,0,6,,,79,96,5
106496,note_on,,,,,0,0,6,,,77,96,5
106496,note_off,,,,,512,0,6,,,72,0,5
106496,note_on,,,,,0,0,7,,,70,96,6
106496,note_on,,,,,0,0,5,,,57,96,4
106496,note_off,,,,,512,0,5,,,55,0,4
106496,note_off,,,,,0,0,6,,,81,0,5
106496,note_on,,,,,0,0,8,,,65,96,7
106496,note_off,,,,,512,0,8,,,64,0,7
107008,note_off,,,,,512,0,8,,,65,0,7
107008,note_off,,,,,512,0,5,,,57,0,4
107008,note_on,,,,,0,0,5,,,58,96,4
107008,note_on,,,,,0,0,8,,,62,96,7
107008,note_on,,,,,0,0,6,,,77,96,5
107008,note_off,,,,,512,0,6,,,79,0,5
107008,note_on,,,,,0,0,7,,,69,96,6
107008,note_off,,,,,512,0,7,,,70,0,6
107520,note_on,,,,,0,0,6,,,76,96,5
107520,note_off,,,,,512,0,6,,,77,0,5
107520,note_on,,,,,0,0,6,,,76,96,5
107520,note_off,,,,,0,0,6,,,77,0,5
107520,note_on,,,,,0,0,8,,,67,96,7
107520,note_on,,,,,0,0,5,,,60,96,4
107520,note_off,,,,,512,0,5,,,58,0,4
107520,note_on,,,,,0,0,7,,,67,96,6
107520,note_off,,,,,512,0,7,,,69,0,6
107520,note_off,,,,,512,0,8,,,62,0,7
108032,note_on,,,,,0,0,5,,,62,96,4
108032,note_off,,,,,512,0,5,,,60,0,4
108544,note_on,,,,,0,0,5,,,60,96,4
108544,note_off,,,,,1024,0,7,,,67,0,6
108544,note_on,,,,,0,0,7,,,64,96,6
108544,note_on,,,,,0,0,8,,,55,96,7
108544,note_off,,,,,1024,0,8,,,67,0,7
108544,note_off,,,,,1024,0,6,,,76,0,5
108544,note_on,,,,,0,0,6,,,72,96,5
108544,note_on,,,,,0,0,6,,,72,96,5
108544,note_on,,,,,0,0,1,,,72,96,0
108544,note_off,,,,,0,0,6,,,76,0,5
108544,note_off,,,,,512,0,5,,,62,0,4
108544,note_off,,,,,10240,0,1,,,72,0,0
109056,note_off,,,,,512,0,5,,,60,0,4
109056,note_on,,,,,0,0,5,,,58,96,4
109568,note_off,,,,,1024,0,1,,,72,0,0
109568,note_on,,,,,0,0,1,,,77,96,0
109568,note_on,,,,,0,0,6,,,77,96,5
109568,note_on,,,,,0,0,7,,,69,96,6
109568,note_on,,,,,12288,0,4,,,57,96,3
109568,note_on,,,,,0,0,8,,,60,96,7
109568,note_off,,,,,1024,0,8,,,55,0,7
109568,note_off,,,,,0,0,6,,,72,0,5
109568,note_on,,,,,0,0,5,,,57,96,4
109568,note_off,,,,,512,0,5,,,58,0,4
109568,note_on,,,,,12288,0,3,,,60,96,2
109568,note_off,,,,,1024,0,6,,,72,0,5
109568,note_on,,,,,0,0,6,,,77,96,5
109568,note_off,,,,,1024,0,7,,,64,0,6
109568,note_on,,,,,12288,0,2,,,69,96,1
110080,note_on,,,,,0,0,5,,,53,96,4
110080,note_off,,,,,512,0,5,,,57,0,4
110592,note_on,,,,,0,0,6,,,74,96,5
110592,note_on,,,,,0,0,4,,,58,96,3
110592,note_off,,,,,1024,0,4,,,57,0,3
110592,note_on,,,,,0,0,8,,,58,96,7
110592,note_off,,,,,1024,0,2,,,69,0,1
110592,note_on,,,,,0,0,6,,,74,96,5
110592,note_off,,,,,1024,0,3,,,60,0,2
110592,note_off,,,,,512,0,5,,,53,0,4
110592,note_on,,,,,0,0,3,,,58,96,2
110592,note_off,,,,,1024,0,7,,,69,0,6
110592,note_off,,,,,1024,0,1,,,77,0,0
110592,note_on,,,,,0,0,1,,,74,96,0
110592,note_off,,,,,1024,0,6,,,77,0,5
110592,note_off,,,,,0,0,6,,,77,0,5
110592,note_on,,,,,0,0,2,,,65,96,1
110592,note_off,,,,,1024,0,8,,,60,0,7
110592,note_on,,,,,0,0,7,,,65,96,6
110592,note_on,,,,,0,0,5,,,58,96,4
111104,note_on,,,,,0,0,5,,,57,96,4
111104,note_off,,,,,512,0,5,,,58,0,4
111616,note_off,,,,,512,0,5,,,57,0,4
111616,note_on,,,,,0,0,5,,,58,96,4
111616,note_on,,,,,0,0,1,,,79,96,0
111616,note_off,,,,,0,0,6,,,74,0,5
111616,note_off,,,,,1024,0,1,,,74,0,0
111616,note_on,,,,,0,0,8,,,62,96,7
111616,note_on,,,,,0,0,2,,,70,96,1
111616,note_off,,,,,1024,0,2,,,65,0,1
111616,note_off,,,,,1024,0,8,,,58,0,7
111616,note_on,,,,,0,0,6,,,79,96,5
111616,note_on,,,,,0,0,3,,,62,96,2
111616,note_on,,,,,0,0,6,,,79,96,5
111616,note_off,,,,,1024,0,3,,,58,0,2
111616,note_off,,,,,1024,0,6,,,74,0,5
111616,note_off,,,,,1024,0,7,,,65,0,6
111616,note_off,,,,,1024,0,4,,,58,0,3
111616,note_on,,,,,0,0,4,,,55,96,3
111616,note_on,,,,,0,0,7,,,70,96,6
112128,note_on,,,,,0,0,5,,,55,96,4
112128,note_off,,,,,512,0,5,,,58,0,4
112640,note_on,,,,,0,0,5,,,60,96,4
112640,note_on,,,,,0,0,8,,,60,96,7
112640,note_off,,,,,1024,0,8,,,62,0,7
112640,note_off,,,,,1024,0,7,,,70,0,6
112640,note_off,,,,,0,0,6,,,79,0,5
112640,note_on,,,,,0,0,6,,,76,96,5
112640,note_on,,,,,0,0,6,,,76,96,5
112640,note_off,,,,,1024,0,6,,,79,0,5
112640,note_on,,,,,0,0,7,,,67,96,6
112640,note_off,,,,,1024,0,1,,,79,0,0
112640,note_on,,,,,0,0,1,,,76,96,0
112640,note_off,,,,,1024,0,4,,,55,0,3
112640,note_on,,,,,0,0,4,,,60,96,3
112640,note_on,,,,,0,0,2,,,67,96,1
112640,note_off,,,,,1024,0,2,,,70,0,1
112640,note_on,,,,,0,0,3,,,60,96,2
112640,note_off,,,,,512,0,5,,,55,0,4
112640,note_off,,,,,1024,0,3,,,62,0,2
113152,note_on,,,,,0,0,5,,,48,96,4
113152,note_off,,,,,512,0,5,,,60,0,4
113664,note_on,,,,,0,0,2,,,69,96,1
113664,note_off,,,,,1024,0,2,,,67,0,1
113664,note_off,,,,,1024,0,8,,,60,0,7
113664,note_on,,,,,0,0,8,,,60,96,7
113664,note_off,,,,,1024,0,6,,,76,0,5
113664,note_on,,,,,0,0,3,,,60,96,2
113664,note_on,,,,,0,0,4,,,53,96,3
113664,note_off,,,,,1024,0,4,,,60,0,3
113664,note_off,,,,,512,0,5,,,48,0,4
113664,note_off,,,,,1024,0,3,,,60,0,2
113664,note_on,,,,,0,0,7,,,69,96,6
113664,note_off,,,,,1024,0,7,,,67,0,6
113664,note_on,,,,,0,0,1,,,77,96,0
113664,note_on,,,,,0,0,5,,,53,96,4
113664,note_on,,,,,0,0,6,,,77,96,5
113664,note_off,,,,,1024,0,1,,,76,0,0
113664,note_on,,,,,0,0,6,,,77,96,5
113664,note_off,,,,,0,0,6,,,76,0,5
113920,note_on,,,,,0,0,6,,,76,96,5
113920,note_off,,,,,0,0,6,,,77,0,5
113920,note_on,,,,,0,0,6,,,76,96,5
113920,note_off,,,,,256,0,6,,,77,0,5
114176,note_off,,,,,256,0,6,,,76,0,5
114176,note_on,,,,,0,0,6,,,77,96,5
114176,note_on,,,,,0,0,6,,,77,96,5
114176,note_off,,,,,0,0,6,,,76,0,5
114432,note_on,,,,,0,0,6,,,76,96,5
114432,note_off,,,,,256,0,6,,,77,0,5
114432,note_on,,,,,0,0,6,,,76,96,5
114432,note_off,,,,,0,0,6,,,77,0,5
114688,note_off,,,,,1024,0,1,,,77,0,0
114688,note_off,,,,,1024,0,8,,,60,0,7
114688,note_off,,,,,256,0,6,,,76,0,5
114688,note_on,,,,,0,0,6,,,77,96,5
114688,note_on,,,,,0,0,6,,,77,96,5
114688,note_off,,,,,1024,0,3,,,60,0,2
114688,note_off,,,,,0,0,6,,,76,0,5
114688,note_off,,,,,1024,0,7,,,69,0,6
114688,note_off,,,,,1024,0,4,,,53,0,3
114688,note_off,,,,,1024,0,5,,,53,0,4
114688,note_off,,,,,1024,0,2,,,69,0,1
114688,note_on,,,,,0,0,5,,,41,96,4
114944,note_off,,,,,256,0,6,,,77,0,5
114944,note_off,,,,,0,0,6,,,77,0,5
114944,note_on,,,,,0,0,6,,,76,96,5
114944,note_on,,,,,0,0,6,,,76,96,5
115200,note_on,,,,,0,0,6,,,77,96,5
115200,note_off,,,,,0,0,6,,,76,0,5
115200,note_off,,,,,256,0,6,,,76,0,5
115200,note_on,,,,,512,0,8,,,53,96,7
115200,note_on,,,,,512,0,7,,,57,96,6
115200,note_on,,,,,0,0,6,,,77,96,5
115456,note_off,,,,,256,0,6,,,77,0,5
115456,note_on,,,,,0,0,6,,,76,96,5
115456,note_on,,,,,0,0,6,,,76,96,5
115456,note_off,,,,,0,0,6,,,77,0,5
115712,note_off,,,,,1024,0,5,,,41,0,4
115712,note_on,,,,,0,0,7,,,58,96,6
115712,note_off,,,,,512,0,7,,,57,0,6
115712,note_on,,,,,0,0,8,,,55,96,7
115712,note_off,,,,,512,0,8,,,53,0,7
115712,note_off,,,,,256,0,6,,,76,0,5
115712,note_off,,,,,0,0,6,,,76,0,5
115712,note_on,,,,,0,0,6,,,77,96,5
115712,note_on,,,,,0,0,6,,,77,96,5
115968,note_off,,,,,0,0,6,,,77,0,5
115968,note_on,,,,,0,0,6,,,76,96,5
115968,note_on,,,,,0,0,6,,,76,96,5
115968,note_off,,,,,256,0,6,,,77,0,5
116224,note_off,,,,,0,0,6,,,76,0,5
116224,note_on,,,,,0,0,6,,,77,96,5
116224,note_on,,,,,0,0,6,,,77,96,5
116224,note_off,,,,,256,0,6,,,76,0,5
116224,note_on,,,,,0,0,7,,,60,96,6
116224,note_on,,,,,0,0,8,,,57,96,7
116224,note_off,,,,,512,0,8,,,55,0,7
116224,note_off,,,,,512,0,7,,,58,0,6
116480,note_off,,,,,0,0,6,,,77,0,5
116480,note_on,,,,,0,0,6,,,76,96,5
116480,note_on,,,,,0,0,6,,,76,96,5
116480,note_off,,,,,256,0,6,,,77,0,5
116736,note_off,,,,,512,0,7,,,60,0,6
116736,note_on,,,,,0,0,6,,,77,96,5
116736,note_on,,,,,0,0,7,,,62,96,6
116736,note_on,,,,,0,0,6,,,77,96,5
116736,note_off,,,,,0,0,6,,,76,0,5
116736,note_off,,,,,256,0,6,,,76,0,5
116736,note_on,,,,,0,0,8,,,58,96,7
116736,note_off,,,,,512,0,8,,,57,0,7
117248,note_off,,,,,512,0,8,,,58,0,7
117248,note_on,,,,,0,0,7,,,60,96,6
117248,note_on,,,,,0,0,8,,,57,96,7
117248,note_off,,,,,512,0,7,,,62,0,6
117760,note_on,,,,,0,0,7,,,62,96,6
117760,note_off,,,,,512,0,8,,,57,0,7
117760,note_on,,,,,0,0,8,,,58,96,7
117760,note_off,,,,,512,0,7,,,60,0,6
118272,note_off,,,,,512,0,8,,,58,0,7
118272,note_on,,,,,0,0,8,,,60,96,7
118272,note_off,,,,,512,0,7,,,62,0,6
118272,note_on,,,,,0,0,7,,,64,96,6
118784,note_on,,,,,0,0,7,,,65,96,6
118784,note_off,,,,,512,0,7,,,64,0,6
118784,note_on,,,,,0,0,8,,,62,96,7
118784,note_off,,,,,512,0,8,,,60,0,7
119296,note_off,,,,,512,0,7,,,65,0,6
119296,note_off,,,,,512,0,8,,,62,0,7
119296,note_on,,,,,0,0,8,,,64,96,7
119296,note_on,,,,,0,0,7,,,67,96,6
119808,note_on,,,,,0,0,7,,,69,96,6
119808,note_off,,,,,512,0,8,,,64,0,7
119808,note_on,,,,,0,0,8,,,65,96,7
119808,note_off,,,,,512,0,7,,,67,0,6
120320,note_off,,,,,512,0,7,,,69,0,6
120320,note_on,,,,,0,0,7,,,70,96,6
120320,note_on,,,,,0,0,8,,,67,96,7
120320,note_off,,,,,512,0,8,,,65,0,7
120832,note_off,,,,,512,0,8,,,67,0,7
120832,note_on,,,,,0,0,8,,,65,96,7
120832,note_off,,,,,512,0,7,,,70,0,6
120832,note_on,,,,,0,0,7,,,69,96,6
121344,note_off,,,,,512,0,8,,,65,0,7
121344,note_on,,,,,0,0,8,,,64,96,7
121344,note_on,,,,,0,0,7,,,67,96,6
121344,note_off,,,,,512,0,7,,,69,0,6
121856,note_off,,,,,512,0,7,,,67,0,6
121856,note_on,,,,,0,0,7,,,65,96,6
121856,note_on,,,,,0,0,8,,,62,96,7
121856,note_off,,,,,512,0,8,,,64,0,7
122368,note_on,,,,,0,0,7,,,69,96,6
122368,note_on,,,,,0,0,8,,,60,96,7
122368,note_off,,,,,512,0,7,,,65,0,6
122368,note_off,,,,,512,0,8,,,62,0,7
122880,note_off,,,,,512,0,8,,,60,0,7
122880,note_on,,,,,0,0,7,,,67,96,6
122880,note_on,,,,,0,0,8,,,58,96,7
122880,note_off,,,,,512,0,7,,,69,0,6
123392,note_off,,,,,512,0,8,,,58,0,7
123392,note_on,,,,,0,0,8,,,57,96,7
123904,note_on,,,,,0,0,6,,,79,96,5
123904,note_on,,,,,0,0,6,,,79,96,5
123904,note_off,,,,,7168,0,6,,,77,0,5
123904,note_on,,,,,0,0,8,,,58,96,7
123904,note_off,,,,,512,0,8,,,57,0,7
123904,note_off,,,,,1024,0,7,,,67,0,6
123904,note_off,,,,,0,0,6,,,77,0,5
123904,note_on,,,,,0,0,7,,,67,96,6
124416,note_off,,,,,512,0,7,,,67,0,6
124416,note_on,,,,,0,0,8,,,55,96,7
124416,note_off,,,,,512,0,8,,,58,0,7
124416,note_on,,,,,0,0,7,,,69,96,6
124928,note_off,,,,,512,0,7,,,69,0,6
124928,note_on,,,,,0,0,6,,,76,96,5
124928,note_off,,,,,512,0,8,,,55,0,7
124928,note_on,,,,,0,0,8,,,60,96,7
124928,note_off,,,,,0,0,6,,,79,0,5
124928,note_on,,,,,0,0,6,,,76,96,5
124928,note_off,,,,,1024,0,6,,,79,0,5
124928,note_on,,,,,0,0,7,,,70,96,6
125440,note_on,,,,,0,0,7,,,72,96,6
125440,note_off,,,,,512,0,8,,,60,0,7
125440,note_on,,,,,0,0,8,,,48,96,7
125440,note_off,,,,,512,0,7,,,70,0,6
125952,note_off,,,,,512,0,7,,,72,0,6
125952,note_on,,,,,0,0,7,,,69,96,6
125952,note_off,,,,,1024,0,6,,,76,0,5
125952,note_off,,,,,0,0,6,,,76,0,5
125952,note_on,,,,,0,0,6,,,77,96,5
125952,note_on,,,,,0,0,6,,,77,96,5
125952,note_off,,,,,512,0,8,,,48,0,7
125952,note_on,,,,,0,0,8,,,53,96,7
126976,note_off,,,,,1024,0,6,,,77,0,5
126976,note_on,,,,,0,0,6,,,77,96,5
126976,note_on,,,,,0,0,6,,,77,96,5
126976,note_off,,,,,0,0,6,,,77,0,5
126976,note_on,,,,,11264,0,5,,,53,96,4
126976,note_on,,,,,12288,0,2,,,69,96,1
126976,note_on,,,,,12288,0,4,,,53,96,3
126976,note_on,,,,,12288,0,1,,,77,96,0
126976,note_off,,,,,1024,0,8,,,53,0,7
126976,note_on,,,,,12288,0,3,,,60,96,2
126976,note_on,,,,,0,0,7,,,69,96,6
126976,note_off,,,,,1024,0,7,,,69,0,6
126976,note_on,,,,,0,0,8,,,60,96,7
128000,note_off,,,,,1024,0,1,,,77,0,0
128000,note_off,,,,,0,0,6,,,77,0,5
128000,note_on,,,,,0,0,1,,,77,96,0
128000,note_off,,,,,1024,0,3,,,60,0,2
128000,note_on,,,,,0,0,4,,,50,96,3
128000,note_off,,,,,1024,0,4,,,53,0,3
128000,note_off,,,,,1024,0,2,,,69,0,1
128000,note_on,,,,,0,0,2,,,69,96,1
128000,note_off,,,,,1024,0,6,,,77,0,5
128000,note_on,,,,,0,0,6,,,77,96,5
128000,note_on,,,,,0,0,6,,,77,96,5
128000,note_on,,,,,0,0,5,,,50,96,4
128000,note_on,,,,,0,0,8,,,62,96,7
128000,note_off,,,,,1024,0,8,,,60,0,7
128000,note_on,,,,,0,0,3,,,62,96,2
128000,note_off,,,,,1024,0,5,,,53,0,4
128000,note_on,,,,,0,0,7,,,69,96,6
128000,note_off,,,,,1024,0,7,,,69,0,6
129024,note_on,,,,,0,0,7,,,71,96,6
129024,note_off,,,,,1024,0,8,,,62,0,7
129024,note_on,,,,,0,0,4,,,44,96,3
129024,note_off,,,,,1024,0,6,,,77,0,5
129024,note_off,,,,,1024,0,2,,,69,0,1
129024,note_on,,,,,0,0,2,,,71,96,1
129024,note_off,,,,,1024,0,1,,,77,0,0
129024,note_off,,,,,0,0,6,,,77,0,5
129024,time_signature,4,4,24,8,104448,1,0,,,,,
129024,note_on,,,,,0,0,6,,,77,96,5
129024,note_on,,,,,0,0,1,,,77,96,0
129024,note_on,,,,,0,0,6,,,77,96,5
129024,note_off,,,,,1024,0,5,,,50,0,4
129024,note_on,,,,,0,0,5,,,44,96,4
129024,note_on,,,,,0,0,3,,,62,96,2
129024,note_off,,,,,1024,0,3,,,62,0,2
129024,note_off,,,,,1024,0,7,,,69,0,6
129024,note_on,,,,,0,0,8,,,62,96,7
129024,note_off,,,,,1024,0,4,,,50,0,3
129536,note_on,,,,,0,0,3,,,64,96,2
129536,note_on,,,,,0,0,1,,,76,96,0
129536,note_off,,,,,512,0,3,,,62,0,2
129536,note_off,,,,,512,0,1,,,77,0,0
129536,note_off,,,,,0,0,6,,,77,0,5
129536,note_on,,,,,0,0,6,,,76,96,5
129536,note_off,,,,,512,0,8,,,62,0,7
129536,note_off,,,,,512,0,6,,,77,0,5
129536,note_on,,,,,0,0,8,,,64,96,7
129536,note_on,,,,,0,0,6,,,76,96,5
130048,note_off,,,,,1024,0,4,,,44,0,3
130048,note_on,,,,,0,0,4,,,43,96,3
130048,note_off,,,,,512,0,1,,,76,0,0
130048,note_off,,,,,1024,0,7,,,71,0,6
130048,note_on,,,,,0,0,7,,,70,96,6
130048,note_on,,,,,0,0,5,,,43,96,4
130048,note_off,,,,,1024,0,5,,,44,0,4
130048,note_on,,,,,0,0,2,,,70,96,1
130048,note_off,,,,,1024,0,2,,,71,0,1
130048,note_off,,,,,512,0,3,,,64,0,2
130048,note_on,,,,,0,0,1,,,76,96,0
130048,note_on,,,,,0,0,8,,,64,96,7
130048,note_off,,,,,512,0,8,,,64,0,7
130048,note_off,,,,,0,0,6,,,76,0,5
130048,note_on,,,,,0,0,6,,,76,96,5
130048,note_on,,,,,0,0,6,,,76,96,5
130048,note_off,,,,,512,0,6,,,76,0,5
130048,note_on,,,,,0,0,3,,,64,96,2
130560,note_off,,,,,512,0,8,,,64,0,7
130560,note_off,,,,,0,0,6,,,76,0,5
130560,note_on,,,,,0,0,6,,,74,96,5
130560,note_off,,,,,512,0,6,,,76,0,5
130560,note_on,,,,,0,0,8,,,65,96,7
130560,note_on,,,,,0,0,6,,,74,96,5
130560,note_on,,,,,0,0,1,,,74,96,0
130560,note_off,,,,,512,0,1,,,76,0,0
130560,note_off,,,,,512,0,3,,,64,0,2
130560,note_on,,,,,0,0,3,,,65,96,2
131072,note_off,,,,,512,0,6,,,74,0,5
131072,note_on,,,,,0,0,6,,,73,96,5
131072,note_on,,,,,0,0,6,,,73,96,5
131072,note_off,,,,,0,0,6,,,74,0,5
131072,note_off,,,,,1024,0,7,,,70,0,6
131072,note_on,,,,,0,0,7,,,69,96,6
131072,note_on,,,,,0,0,4,,,43,96,3
131072,note_on,,,,,0,0,2,,,69,96,1
131072,note_off,,,,,1024,0,2,,,70,0,1
131072,note_on,,,,,0,0,3,,,64,96,2
131072,note_off,,,,,512,0,3,,,65,0,2
131072,note_off,,,,,1024,0,4,,,43,0,3
131072,note_on,,,,,0,0,8,,,64,96,7
131072,note_off,,,,,512,0,1,,,74,0,0
131072,note_on,,,,,0,0,1,,,73,96,0
131072,note_off,,,,,512,0,8,,,65,0,7
132096,note_off,,,,,1024,0,4,,,43,0,3
132096,note_on,,,,,0,0,4,,,41,96,3
132096,note_off,,,,,1024,0,1,,,73,0,0
132096,note_on,,,,,0,0,1,,,74,96,0
132096,note_off,,,,,1024,0,6,,,73,0,5
132096,note_on,,,,,0,0,6,,,81,96,5
132096,note_on,,,,,0,0,6,,,81,96,5
132096,note_off,,,,,0,0,6,,,73,0,5
132096,note_off,,,,,1024,0,7,,,69,0,6
132096,note_off,,,,,2048,0,5,,,43,0,4
132096,note_on,,,,,0,0,7,,,69,96,6
132096,note_on,,,,,0,0,5,,,41,96,4
132096,note_off,,,,,1024,0,2,,,69,0,1
132096,note_on,,,,,0,0,8,,,65,96,7
132096,note_off,,,,,1024,0,8,,,64,0,7
132096,note_on,,,,,0,0,2,,,69,96,1
132096,note_on,,,,,0,0,3,,,65,96,2
132096,note_off,,,,,1024,0,3,,,64,0,2
132608,note_off,,,,,512,0,6,,,81,0,5
132608,note_on,,,,,0,0,6,,,69,96,5
132608,note_on,,,,,0,0,6,,,69,96,5
132608,note_off,,,,,0,0,6,,,81,0,5
133120,note_off,,,,,1024,0,3,,,65,0,2
133120,note_off,,,,,512,0,6,,,69,0,5
133120,note_off,,,,,1024,0,2,,,69,0,1
133120,note_on,,,,,0,0,2,,,69,96,1
133120,note_on,,,,,0,0,3,,,65,96,2
133120,note_off,,,,,0,0,6,,,69,0,5
133120,note_on,,,,,0,0,6,,,74,96,5
133120,note_on,,,,,0,0,6,,,74,96,5
133120,note_off,,,,,1024,0,8,,,65,0,7
133120,note_off,,,,,1024,0,5,,,41,0,4
133120,note_on,,,,,0,0,5,,,46,96,4
133120,note_on,,,,,0,0,8,,,65,96,7
133120,note_off,,,,,1024,0,7,,,69,0,6
133120,note_on,,,,,0,0,7,,,69,96,6
133120,note_on,,,,,0,0,1,,,74,96,0
133120,note_off,,,,,1024,0,1,,,74,0,0
133120,note_on,,,,,0,0,4,,,46,96,3
133120,note_off,,,,,1024,0,4,,,41,0,3
134144,note_off,,,,,1024,0,2,,,69,0,1
134144,note_on,,,,,0,0,3,,,64,96,2
134144,note_off,,,,,1024,0,7,,,69,0,6
134144,note_on,,,,,0,0,7,,,67,96,6
134144,note_off,,,,,1024,0,3,,,65,0,2
134144,note_on,,,,,0,0,2,,,67,96,1
134144,note_on,,,,,0,0,8,,,64,96,7
134144,note_off,,,,,1024,0,8,,,65,0,7
134656,note_on,,,,,0,0,6,,,76,96,5
134656,note_off,,,,,1536,0,1,,,74,0,0
134656,note_off,,,,,512,0,3,,,64,0,2
134656,note_on,,,,,0,0,3,,,62,96,2
134656,note_on,,,,,0,0,1,,,76,96,0
134656,note_on,,,,,0,0,8,,,62,96,7
134656,note_off,,,,,0,0,6,,,74,0,5
134656,note_off,,,,,512,0,8,,,64,0,7
134656,note_off,,,,,1536,0,5,,,46,0,4
134656,note_on,,,,,0,0,5,,,46,96,4
134656,note_on,,,,,0,0,4,,,46,96,3
134656,note_off,,,,,1536,0,4,,,46,0,3
134656,note_on,,,,,0,0,6,,,76,96,5
134656,note_off,,,,,1536,0,6,,,74,0,5
135168,note_on,,,,,0,0,4,,,45,96,3
135168,note_off,,,,,512,0,4,,,46,0,3
135168,note_off,,,,,512,0,6,,,76,0,5
135168,note_on,,,,,0,0,6,,,73,96,5
135168,note_on,,,,,0,0,6,,,73,96,5
135168,note_off,,,,,0,0,6,,,76,0,5
135168,note_off,,,,,1024,0,7,,,67,0,6
135168,note_on,,,,,0,0,3,,,64,96,2
135168,note_on,,,,,0,0,7,,,69,96,6
135168,note_off,,,,,512,0,1,,,76,0,0
135168,note_on,,,,,0,0,5,,,45,96,4
135168,note_off,,,,,512,0,5,,,46,0,4
135168,note_off,,,,,1024,0,2,,,67,0,1
135168,note_on,,,,,0,0,2,,,69,96,1
135168,note_on,,,,,0,0,8,,,64,96,7
135168,note_on,,,,,0,0,1,,,73,96,0
135168,note_off,,,,,512,0,3,,,62,0,2
135168,note_off,,,,,512,0,8,,,62,0,7
136192,note_off,,,,,0,0,6,,,73,0,5
136192,note_off,,,,,1024,0,8,,,64,0,7
136192,note_off,,,,,1024,0,4,,,45,0,3
136192,note_off,,,,,1024,0,1,,,73,0,0
136192,note_off,,,,,1024,0,6,,,73,0,5
136192,note_on,,,,,0,0,6,,,81,96,5
136192,note_off,,,,,1024,0,7,,,69,0,6
136192,note_off,,,,,1024,0,3,,,64,0,2
136192,note_on,,,,,0,0,1,,,81,96,0
136192,note_off,,,,,1024,0,2,,,69,0,1
136192,note_on,,,,,0,0,6,,,81,96,5
136192,note_off,,,,,1024,0,5,,,45,0,4
136704,note_on,,,,,0,0,1,,,76,96,0
136704,note_off,,,,,512,0,1,,,81,0,0
136704,note_off,,,,,0,0,6,,,81,0,5
136704,note_on,,,,,0,0,6,,,76,96,5
136704,note_on,,,,,0,0,6,,,76,96,5
136704,note_off,,,,,512,0,6,,,81,0,5
137216,note_off,,,,,0,0,6,,,76,0,5
137216,note_on,,,,,0,0,6,,,77,96,5
137216,note_off,,,,,512,0,6,,,76,0,5
137216,note_on,,,,,0,0,6,,,77,96,5
137216,note_off,,,,,512,0,1,,,76,0,0
137216,note_on,,,,,0,0,1,,,77,96,0
138240,note_on,,,,,0,0,6,,,78,96,5
138240,note_on,,,,,0,0,1,,,78,96,0
138240,note_on,,,,,2048,0,3,,,62,96,2
138240,note_off,,,,,1024,0,1,,,77,0,0
138240,note_on,,,,,2048,0,7,,,69,96,6
138240,note_off,,,,,0,0,6,,,77,0,5
138240,note_on,,,,,2048,0,4,,,62,96,3
138240,note_on,,,,,2048,0,8,,,62,96,7
138240,note_off,,,,,1024,0,6,,,77,0,5
138240,note_on,,,,,2048,0,2,,,69,96,1
138240,note_on,,,,,0,0,6,,,78,96,5
138240,note_on,,,,,2048,0,5,,,62,96,4
138752,note_off,,,,,512,0,4,,,62,0,3
138752,note_on,,,,,0,0,2,,,69,96,1
138752,note_off,,,,,512,0,2,,,69,0,1
138752,note_off,,,,,512,0,5,,,62,0,4
138752,note_off,,,,,512,0,8,,,62,0,7
138752,note_on,,,,,0,0,3,,,60,96,2
138752,note_on,,,,,0,0,7,,,69,96,6
138752,note_on,,,,,0,0,4,,,57,96,3
138752,note_on,,,,,0,0,5,,,57,96,4
138752,note_off,,,,,512,0,3,,,62,0,2
138752,note_on,,,,,0,0,8,,,60,96,7
138752,note_off,,,,,512,0,7,,,69,0,6
139264,note_on,,,,,0,0,8,,,62,96,7
139264,note_off,,,,,512,0,8,,,60,0,7
139264,note_on,,,,,0,0,2,,,67,96,1
139264,note_off,,,,,512,0,2,,,69,0,1
139264,note_off,,,,,512,0,5,,,57,0,4
139264,note_on,,,,,0,0,5,,,58,96,4
139264,note_on,,,,,0,0,1,,,79,96,0
139264,note_off,,,,,1024,0,1,,,78,0,0
139264,note_off,,,,,1024,0,6,,,78,0,5
139264,note_off,,,,,512,0,7,,,69,0,6
139264,note_off,,,,,512,0,3,,,60,0,2
139264,note_off,,,,,512,0,4,,,57,0,3
139264,note_on,,,,,0,0,7,,,67,96,6
139264,note_on,,,,,0,0,4,,,58,96,3
139264,note_off,,,,,0,0,6,,,78,0,5
139264,note_on,,,,,0,0,6,,,79,96,5
139264,note_on,,,,,0,0,6,,,79,96,5
139264,note_on,,,,,0,0,3,,,62,96,2
139776,note_on,,,,,0,0,8,,,62,96,7
139776,note_off,,,,,512,0,7,,,67,0,6
139776,note_off,,,,,512,0,8,,,62,0,7
139776,note_on,,,,,0,0,7,,,67,96,6
140288,note_on,,,,,0,0,8,,,62,96,7
140288,note_on,,,,,0,0,6,,,79,96,5
140288,note_off,,,,,1024,0,1,,,79,0,0
140288,note_on,,,,,0,0,1,,,79,96,0
140288,note_on,,,,,0,0,6,,,79,96,5
140288,note_off,,,,,512,0,7,,,67,0,6
140288,note_on,,,,,0,0,7,,,67,96,6
140288,note_on,,,,,0,0,3,,,62,96,2
140288,note_on,,,,,0,0,4,,,59,96,3
140288,note_on,,,,,0,0,5,,,59,96,4
140288,note_off,,,,,1024,0,5,,,58,0,4
140288,note_on,,,,,0,0,2,,,67,96,1
140288,note_off,,,,,1024,0,2,,,67,0,1
140288,note_off,,,,,1024,0,4,,,58,0,3
140288,note_off,,,,,0,0,6,,,79,0,5
140288,note_off,,,,,1024,0,6,,,79,0,5
140288,note_off,,,,,512,0,8,,,62,0,7
140288,note_off,,,,,1024,0,3,,,62,0,2
140800,note_off,,,,,512,0,1,,,79,0,0
140800,note_on,,,,,0,0,1,,,74,96,0
140800,note_off,,,,,512,0,8,,,62,0,7
140800,note_on,,,,,0,0,8,,,62,96,7
140800,note_off,,,,,512,0,7,,,67,0,6
140800,note_on,,,,,0,0,7,,,67,96,6
140800,note_off,,,,,512,0,6,,,79,0,5
140800,note_on,,,,,0,0,6,,,74,96,5
140800,note_on,,,,,0,0,6,,,74,96,5
140800,note_off,,,,,0,0,6,,,79,0,5
141312,note_on,,,,,0,0,3,,,60,96,2
141312,note_on,,,,,0,0,8,,,60,96,7
141312,note_off,,,,,512,0,8,,,62,0,7
141312,note_on,,,,,0,0,2,,,67,96,1
141312,note_off,,,,,1024,0,2,,,67,0,1
141312,note_off,,,,,1024,0,3,,,62,0,2
141312,note_off,,,,,1024,0,5,,,59,0,4
141312,note_off,,,,,512,0,7,,,67,0,6
141312,note_off,,,,,1024,0,4,,,59,0,3
141312,note_on,,,,,0,0,5,,,60,96,4
141312,note_on,,,,,0,0,7,,,67,96,6
141312,note_off,,,,,512,0,1,,,74,0,0
141312,note_on,,,,,0,0,1,,,75,96,0
141312,note_on,,,,,0,0,4,,,60,96,3
141312,note_on,,,,,0,0,6,,,75,96,5
141312,note_off,,,,,512,0,6,,,74,0,5
141312,note_off,,,,,0,0,6,,,74,0,5
141312,note_on,,,,,0,0,6,,,75,96,5
141824,note_on,,,,,0,0,7,,,67,96,6
141824,note_off,,,,,512,0,7,,,67,0,6
141824,note_on,,,,,0,0,8,,,60,96,7
141824,note_off,,,,,512,0,8,,,60,0,7
142336,note_off,,,,,1024,0,5,,,60,0,4
142336,note_off,,,,,1024,0,3,,,60,0,2
142336,note_off,,,,,512,0,7,,,67,0,6
142336,note_on,,,,,0,0,7,,,67,96,6
142336,note_off,,,,,1024,0,4,,,60,0,3
142336,note_on,,,,,0,0,3,,,60,96,2
142336,note_on,,,,,0,0,6,,,76,96,5
142336,note_off,,,,,0,0,6,,,75,0,5
142336,note_on,,,,,0,0,6,,,76,96,5
142336,note_off,,,,,1024,0,6,,,75,0,5
142336,note_on,,,,,0,0,1,,,76,96,0
142336,note_off,,,,,1024,0,1,,,75,0,0
142336,note_off,,,,,512,0,8,,,60,0,7
142336,note_on,,,,,0,0,8,,,60,96,7
142336,note_off,,,,,1024,0,2,,,67,0,1
142336,note_on,,,,,0,0,2,,,67,96,1
142336,note_on,,,,,0,0,5,,,60,96,4
142336,note_on,,,,,0,0,4,,,60,96,3
142848,note_off,,,,,512,0,4,,,60,0,3
142848,note_on,,,,,0,0,4,,,55,96,3
142848,note_off,,,,,512,0,3,,,60,0,2
142848,note_off,,,,,512,0,2,,,67,0,1
142848,note_off,,,,,512,0,8,,,60,0,7
142848,note_on,,,,,0,0,8,,,58,96,7
142848,note_off,,,,,512,0,7,,,67,0,6
142848,note_on,,,,,0,0,2,,,70,96,1
142848,note_on,,,,,0,0,7,,,70,96,6
142848,note_off,,,,,512,0,5,,,60,0,4
142848,note_on,,,,,0,0,5,,,55,96,4
142848,note_on,,,,,0,0,3,,,58,96,2
143360,note_on,,,,,0,0,2,,,69,96,1
143360,note_on,,,,,0,0,8,,,60,96,7
143360,note_off,,,,,512,0,8,,,58,0,7
143360,note_off,,,,,512,0,5,,,55,0,4
143360,note_on,,,,,0,0,5,,,57,96,4
143360,note_off,,,,,1024,0,1,,,76,0,0
143360,note_on,,,,,0,0,1,,,77,96,0
143360,note_off,,,,,1024,0,6,,,76,0,5
143360,note_on,,,,,0,0,6,,,77,96,5
143360,note_off,,,,,512,0,2,,,70,0,1
143360,note_off,,,,,0,0,6,,,76,0,5
143360,note_off,,,,,512,0,3,,,58,0,2
143360,note_on,,,,,0,0,3,,,60,96,2
143360,note_on,,,,,0,0,6,,,77,96,5
143360,note_off,,,,,512,0,7,,,70,0,6
143360,note_off,,,,,512,0,4,,,55,0,3
143360,note_on,,,,,0,0,7,,,69,96,6
143360,note_on,,,,,0,0,4,,,57,96,3
143872,note_off,,,,,512,0,3,,,60,0,2
143872,note_off,,,,,512,0,7,,,69,0,6
143872,note_on,,,,,0,0,7,,,69,96,6
143872,note_off,,,,,512,0,4,,,57,0,3
143872,note_on,,,,,0,0,5,,,52,96,4
143872,note_on,,,,,0,0,8,,,61,96,7
143872,note_off,,,,,512,0,8,,,60,0,7
143872,note_off,,,,,512,0,5,,,57,0,4
143872,note_on,,,,,0,0,4,,,52,96,3
143872,note_on,,,,,0,0,3,,,61,96,2
144000,note_off,,,,,128,0,3,,,61,0,2
144000,note_on,,,,,0,0,3,,,59,96,2
144128,note_on,,,,,0,0,3,,,61,96,2
144128,note_off,,,,,128,0,3,,,59,0,2
144384,note_off,,,,,1024,0,2,,,69,0,1
144384,note_off,,,,,512,0,8,,,61,0,7
144384,note_off,,,,,512,0,5,,,52,0,4
144384,note_on,,,,,0,0,5,,,53,96,4
144384,note_on,,,,,0,0,3,,,62,96,2
144384,note_on,,,,,0,0,8,,,62,96,7
144384,note_off,,,,,256,0,3,,,61,0,2
144384,note_off,,,,,1024,0,1,,,77,0,0
144384,note_on,,,,,0,0,1,,,77,96,0
144384,note_on,,,,,0,0,2,,,69,96,1
144384,note_on,,,,,0,0,7,,,69,96,6
144384,note_on,,,,,0,0,4,,,53,96,3
144384,note_off,,,,,512,0,7,,,69,0,6
144384,note_on,,,,,0,0,6,,,77,96,5
144384,note_on,,,,,0,0,6,,,77,96,5
144384,note_off,,,,,512,0,4,,,52,0,3
144384,note_off,,,,,0,0,6,,,77,0,5
144384,note_off,,,,,1024,0,6,,,77,0,5
144640,note_on,,,,,0,0,5,,,49,96,4
144640,note_off,,,,,256,0,5,,,53,0,4
144640,note_on,,,,,0,0,4,,,49,96,3
144640,note_off,,,,,256,0,4,,,53,0,3
144896,note_on,,,,,0,0,6,,,77,96,5
144896,note_off,,,,,512,0,6,,,77,0,5
144896,note_off,,,,,512,0,2,,,69,0,1
144896,note_off,,,,,512,0,8,,,62,0,7
144896,note_on,,,,,0,0,8,,,62,96,7
144896,note_on,,,,,0,0,2,,,72,96,1
144896,note_on,,,,,0,0,6,,,77,96,5
144896,note_off,,,,,512,0,7,,,69,0,6
144896,note_on,,,,,0,0,7,,,72,96,6
144896,note_off,,,,,256,0,4,,,49,0,3
144896,note_off,,,,,0,0,6,,,77,0,5
144896,note_on,,,,,0,0,4,,,50,96,3
144896,note_off,,,,,512,0,1,,,77,0,0
144896,note_on,,,,,0,0,1,,,77,96,0
144896,note_off,,,,,256,0,5,,,49,0,4
144896,note_on,,,,,0,0,5,,,50,96,4
145152,note_on,,,,,0,0,5,,,38,96,4
145152,note_off,,,,,256,0,5,,,50,0,4
145408,note_off,,,,,512,0,8,,,62,0,7
145408,note_on,,,,,0,0,8,,,62,96,7
145408,note_on,,,,,0,0,3,,,62,96,2
145408,note_on,,,,,0,0,6,,,77,96,5
145408,note_off,,,,,256,0,5,,,38,0,4
145408,note_on,,,,,0,0,5,,,43,96,4
145408,note_off,,,,,512,0,7,,,72,0,6
145408,note_on,,,,,0,0,7,,,70,96,6
145408,note_on,,,,,0,0,6,,,77,96,5
145408,note_on,,,,,0,0,4,,,55,96,3
145408,note_off,,,,,512,0,4,,,50,0,3
145408,note_off,,,,,512,0,6,,,77,0,5
145408,note_off,,,,,1024,0,3,,,62,0,2
145408,note_off,,,,,512,0,2,,,72,0,1
145408,note_on,,,,,0,0,2,,,70,96,1
145408,note_off,,,,,512,0,1,,,77,0,0
145408,note_on,,,,,0,0,1,,,77,96,0
145408,note_off,,,,,0,0,6,,,77,0,5
145920,note_off,,,,,512,0,7,,,70,0,6
145920,note_off,,,,,512,0,8,,,62,0,7
145920,note_off,,,,,0,0,6,,,77,0,5
145920,note_on,,,,,0,0,6,,,75,96,5
145920,note_on,,,,,0,0,6,,,75,96,5
145920,note_on,,,,,0,0,7,,,70,96,6
145920,note_off,,,,,512,0,6,,,77,0,5
145920,note_on,,,,,0,0,1,,,75,96,0
145920,note_on,,,,,0,0,8,,,62,96,7
145920,note_off,,,,,512,0,1,,,77,0,0
146432,note_on,,,,,0,0,5,,,43,96,4
146432,note_on,,,,,0,0,7,,,70,96,6
146432,note_off,,,,,0,0,6,,,75,0,5
146432,note_on,,,,,0,0,6,,,75,96,5
146432,note_on,,,,,0,0,6,,,75,96,5
146432,note_off,,,,,512,0,6,,,75,0,5
146432,note_off,,,,,512,0,7,,,70,0,6
146432,note_off,,,,,1024,0,2,,,70,0,1
146432,note_on,,,,,0,0,2,,,70,96,1
146432,note_off,,,,,1024,0,3,,,62,0,2
146432,note_on,,,,,0,0,1,,,75,96,0
146432,note_on,,,,,0,0,3,,,67,96,2
146432,note_off,,,,,512,0,1,,,75,0,0
146432,note_off,,,,,1024,0,5,,,43,0,4
146432,note_on,,,,,0,0,8,,,67,96,7
146432,note_off,,,,,1024,0,4,,,55,0,3
146432,note_off,,,,,512,0,8,,,62,0,7
146432,note_on,,,,,0,0,4,,,55,96,3
146944,note_on,,,,,0,0,3,,,65,96,2
146944,note_on,,,,,0,0,1,,,79,96,0
146944,note_on,,,,,0,0,4,,,55,96,3
146944,note_off,,,,,512,0,4,,,55,0,3
146944,note_off,,,,,512,0,6,,,75,0,5
146944,note_off,,,,,0,0,6,,,75,0,5
146944,note_off,,,,,512,0,1,,,75,0,0
146944,note_off,,,,,512,0,7,,,70,0,6
146944,note_off,,,,,512,0,3,,,67,0,2
146944,note_on,,,,,0,0,6,,,79,96,5
146944,note_on,,,,,0,0,7,,,70,96,6
146944,note_on,,,,,0,0,6,,,79,96,5
146944,note_on,,,,,0,0,8,,,65,96,7
146944,note_off,,,,,512,0,8,,,67,0,7
146944,note_off,,,,,512,0,2,,,70,0,1
146944,note_on,,,,,0,0,2,,,70,96,1
147456,note_on,,,,,0,0,7,,,69,96,6
147456,note_on,,,,,0,0,4,,,55,96,3
147456,note_off,,,,,512,0,4,,,55,0,3
147456,note_on,,,,,0,0,8,,,64,96,7
147456,note_off,,,,,512,0,8,,,65,0,7
147456,note_off,,,,,512,0,7,,,70,0,6
147456,note_off,,,,,0,0,6,,,79,0,5
147456,note_on,,,,,0,0,6,,,73,96,5
147456,note_on,,,,,0,0,6,,,73,96,5
147456,note_on,,,,,0,0,3,,,64,96,2
147456,note_off,,,,,512,0,1,,,79,0,0
147456,note_on,,,,,0,0,2,,,69,96,1
147456,note_off,,,,,512,0,2,,,70,0,1
147456,note_off,,,,,512,0,6,,,79,0,5
147456,note_off,,,,,512,0,3,,,65,0,2
147456,note_on,,,,,0,0,1,,,73,96,0
147968,note_on,,,,,0,0,8,,,64,96,7
147968,note_off,,,,,512,0,7,,,69,0,6
147968,note_on,,,,,0,0,7,,,69,96,6
147968,note_off,,,,,512,0,8,,,64,0,7
147968,note_on,,,,,0,0,6,,,70,96,5
147968,note_off,,,,,512,0,6,,,73,0,5
147968,note_off,,,,,0,0,6,,,73,0,5
147968,note_on,,,,,0,0,6,,,70,96,5
148224,note_on,,,,,0,0,6,,,69,96,5
148224,note_off,,,,,256,0,6,,,70,0,5
148224,note_on,,,,,0,0,6,,,69,96,5
148224,note_off,,,,,0,0,6,,,70,0,5
148480,note_on,,,,,0,0,2,,,69,96,1
148480,note_off,,,,,0,0,6,,,69,0,5
148480,note_on,,,,,0,0,6,,,74,96,5
148480,note_on,,,,,0,0,6,,,74,96,5
148480,note_off,,,,,1024,0,2,,,69,0,1
148480,note_on,,,,,0,0,5,,,41,96,4
148480,note_off,,,,,2048,0,5,,,43,0,4
148480,note_on,,,,,0,0,1,,,74,96,0
148480,note_off,,,,,256,0,6,,,69,0,5
148480,note_off,,,,,1024,0,1,,,73,0,0
148480,note_off,,,,,1024,0,4,,,55,0,3
148480,note_on,,,,,0,0,7,,,69,96,6
148480,note_on,,,,,0,0,8,,,65,96,7
148480,note_on,,,,,0,0,4,,,53,96,3
148480,note_off,,,,,512,0,8,,,64,0,7
148480,note_on,,,,,0,0,3,,,65,96,2
148480,note_off,,,,,1024,0,3,,,64,0,2
148480,note_off,,,,,512,0,7,,,69,0,6
148992,note_on,,,,,0,0,3,,,67,96,2
148992,note_off,,,,,512,0,3,,,65,0,2
148992,note_on,,,,,0,0,7,,,67,96,6
148992,note_off,,,,,512,0,7,,,69,0,6
148992,note_off,,,,,512,0,5,,,41,0,4
148992,note_off,,,,,512,0,2,,,69,0,1
148992,note_on,,,,,0,0,2,,,67,96,1
148992,note_on,,,,,0,0,5,,,46,96,4
148992,note_off,,,,,512,0,4,,,53,0,3
148992,note_on,,,,,0,0,4,,,58,96,3
148992,note_off,,,,,512,0,8,,,65,0,7
148992,note_on,,,,,0,0,8,,,62,96,7
149504,note_on,,,,,0,0,4,,,57,96,3
149504,note_on,,,,,0,0,8,,,64,96,7
149504,note_off,,,,,1024,0,1,,,74,0,0
149504,note_on,,,,,0,0,1,,,74,96,0
149504,note_off,,,,,512,0,4,,,58,0,3
149504,note_on,,,,,0,0,5,,,45,96,4
149504,note_off,,,,,512,0,5,,,46,0,4
149504,note_on,,,,,0,0,6,,,74,96,5
149504,note_on,,,,,0,0,6,,,74,96,5
149504,note_off,,,,,512,0,3,,,67,0,2
149504,note_on,,,,,0,0,3,,,64,96,2
149504,note_off,,,,,512,0,8,,,62,0,7
149504,note_off,,,,,512,0,2,,,67,0,1
149504,note_on,,,,,0,0,2,,,69,96,1
149504,note_off,,,,,0,0,6,,,74,0,5
149504,note_off,,,,,1024,0,6,,,74,0,5
149504,note_on,,,,,0,0,7,,,69,96,6
149504,note_off,,,,,512,0,7,,,67,0,6
150016,note_on,,,,,0,0,7,,,69,96,6
150016,note_off,,,,,512,0,7,,,69,0,6
150016,note_off,,,,,512,0,8,,,64,0,7
150016,note_on,,,,,0,0,8,,,64,96,7
150528,note_on,,,,,0,0,4,,,45,96,3
150528,note_off,,,,,1024,0,4,,,57,0,3
150528,note_off,,,,,512,0,8,,,64,0,7
150528,note_on,,,,,0,0,8,,,64,96,7
150528,note_on,,,,,0,0,7,,,69,96,6
150528,note_off,,,,,512,0,7,,,69,0,6
151040,note_on,,,,,0,0,8,,,64,96,7
151040,note_on,,,,,0,0,3,,,65,96,2
151040,note_off,,,,,1536,0,3,,,64,0,2
151040,note_off,,,,,1536,0,6,,,74,0,5
151040,note_on,,,,,0,0,6,,,73,96,5
151040,note_on,,,,,0,0,7,,,69,96,6
151040,note_off,,,,,512,0,7,,,69,0,6
151040,note_on,,,,,0,0,2,,,69,96,1
151040,note_off,,,,,512,0,8,,,64,0,7
151040,note_on,,,,,0,0,1,,,73,96,0
151040,note_off,,,,,1536,0,1,,,74,0,0
151040,note_off,,,,,1536,0,2,,,69,0,1
151040,note_on,,,,,0,0,6,,,73,96,5
151040,note_off,,,,,0,0,6,,,74,0,5
151552,note_off,,,,,2048,0,5,,,45,0,4
151552,note_on,,,,,0,0,5,,,38,96,4
151552,note_on,,,,,0,0,2,,,69,96,1
151552,note_on,,,,,0,0,8,,,62,96,7
151552,note_off,,,,,512,0,8,,,64,0,7
151552,note_on,,,,,0,0,5,,,50,96,4
151552,note_on,,,,,0,0,1,,,74,96,0
151552,note_off,,,,,0,0,6,,,73,0,5
151552,note_on,,,,,0,0,6,,,74,96,5
151552,note_on,,,,,0,0,7,,,65,96,6
151552,note_off,,,,,512,0,7,,,69,0,6
151552,note_on,,,,,0,0,6,,,74,96,5
151552,note_off,,,,,512,0,1,,,73,0,0
151552,note_on,,,,,0,0,4,,,50,96,3
151552,note_off,,,,,512,0,6,,,73,0,5
151552,note_off,,,,,512,0,3,,,65,0,2
151552,note_on,,,,,0,0,3,,,65,96,2
151552,note_off,,,,,512,0,2,,,69,0,1
151552,note_off,,,,,1024,0,4,,,45,0,3
152064,note_on,,,,,0,0,8,,,62,96,7
152064,note_off,,,,,0,0,6,,,74,0,5
152064,note_on,,,,,0,0,6,,,81,96,5
152064,note_on,,,,,0,0,6,,,81,96,5
152064,note_off,,,,,512,0,6,,,74,0,5
152064,note_on,,,,,0,0,7,,,65,96,6
152064,note_off,,,,,512,0,7,,,65,0,6
152064,note_off,,,,,512,0,8,,,62,0,7
152320,note_off,,,,,256,0,6,,,81,0,5
152320,note_on,,,,,0,0,6,,,79,96,5
152320,note_on,,,,,0,0,6,,,79,96,5
152320,note_off,,,,,0,0,6,,,81,0,5
152576,note_on,,,,,0,0,8,,,62,96,7
152576,note_off,,,,,512,0,8,,,62,0,7
152576,note_off,,,,,256,0,6,,,79,0,5
152576,note_on,,,,,0,0,6,,,77,96,5
152576,note_off,,,,,1024,0,4,,,50,0,3
152576,note_off,,,,,1024,0,1,,,74,0,0
152576,note_on,,,,,0,0,6,,,77,96,5
152576,note_off,,,,,1024,0,5,,,38,0,4
152576,note_off,,,,,0,0,5,,,50,0,4
152576,note_off,,,,,0,0,6,,,79,0,5
152576,note_off,,,,,512,0,7,,,65,0,6
152576,note_on,,,,,0,0,7,,,65,96,6
152576,note_off,,,,,1024,0,2,,,69,0,1
152576,note_off,,,,,1024,0,3,,,65,0,2
152832,note_off,,,,,256,0,6,,,77,0,5
152832,note_on,,,,,0,0,6,,,76,96,5
152832,note_off,,,,,0,0,6,,,77,0,5
152832,note_on,,,,,0,0,6,,,76,96,5
153088,note_off,,,,,512,0,8,,,62,0,7
153088,note_off,,,,,256,0,6,,,76,0,5
153088,note_on,,,,,0,0,8,,,62,96,7
153088,note_off,,,,,512,0,7,,,65,0,6
153088,note_on,,,,,0,0,7,,,65,96,6
153088,note_on,,,,,0,0,6,,,74,96,5
153088,note_off,,,,,0,0,6,,,76,0,5
153088,note_on,,,,,0,0,6,,,74,96,5
153344,note_off,,,,,256,0,6,,,74,0,5
153344,note_on,,,,,0,0,6,,,73,96,5
153344,note_off,,,,,0,0,6,,,74,0,5
153344,note_on,,,,,0,0,6,,,73,96,5
153600,note_on,,,,,0,0,6,,,74,96,5
153600,note_off,,,,,0,0,6,,,73,0,5
153600,note_off,,,,,256,0,6,,,73,0,5
153600,note_on,,,,,0,0,6,,,74,96,5
153600,note_on,,,,,1024,0,4,,,46,96,3
153600,note_on,,,,,0,0,8,,,67,96,7
153600,note_off,,,,,512,0,8,,,62,0,7
153600,note_on,,,,,1024,0,2,,,70,96,1
153600,note_on,,,,,1024,0,1,,,67,96,0
153600,note_on,,,,,1024,0,5,,,46,96,4
153600,note_off,,,,,512,0,7,,,65,0,6
153600,note_on,,,,,0,0,7,,,62,96,6
153600,note_on,,,,,1024,0,3,,,50,96,2
154112,note_on,,,,,0,0,7,,,62,96,6
154112,note_off,,,,,512,0,7,,,62,0,6
154112,note_on,,,,,0,0,8,,,65,96,7
154112,note_off,,,,,512,0,8,,,67,0,7
154624,note_off,,,,,512,0,7,,,62,0,6
154624,note_off,,,,,512,0,8,,,65,0,7
154624,note_on,,,,,0,0,8,,,64,96,7
154624,note_on,,,,,0,0,7,,,62,96,6
155136,note_on,,,,,0,0,1,,,67,96,0
155136,note_off,,,,,1536,0,1,,,67,0,0
155136,note_on,,,,,0,0,2,,,70,96,1
155136,note_off,,,,,1536,0,2,,,70,0,1
155136,note_off,,,,,512,0,8,,,64,0,7
155136,note_on,,,,,0,0,8,,,65,96,7
155136,note_on,,,,,0,0,4,,,46,96,3
155136,note_on,,,,,0,0,3,,,50,96,2
155136,note_off,,,,,512,0,7,,,62,0,6
155136,note_off,,,,,0,0,6,,,74,0,5
155136,note_on,,,,,0,0,6,,,76,96,5
155136,note_on,,,,,0,0,6,,,76,96,5
155136,note_off,,,,,1536,0,6,,,74,0,5
155136,note_off,,,,,1536,0,4,,,46,0,3
155136,note_on,,,,,0,0,7,,,62,96,6
155136,note_off,,,,,1536,0,3,,,50,0,2
155392,note_on,,,,,0,0,8,,,67,96,7
155392,note_off,,,,,256,0,8,,,65,0,7
155648,note_on,,,,,0,0,7,,,64,96,6
155648,note_off,,,,,512,0,7,,,62,0,6
155648,note_on,,,,,0,0,8,,,64,96,7
155648,note_on,,,,,0,0,6,,,73,96,5
155648,note_on,,,,,0,0,6,,,73,96,5
155648,note_off,,,,,512,0,6,,,76,0,5
155648,note_off,,,,,512,0,3,,,50,0,2
155648,note_on,,,,,0,0,3,,,57,96,2
155648,note_off,,,,,256,0,8,,,67,0,7
155648,note_off,,,,,512,0,4,,,46,0,3
155648,note_on,,,,,0,0,4,,,45,96,3
155648,note_on,,,,,0,0,1,,,69,96,0
155648,note_off,,,,,512,0,2,,,70,0,1
155648,note_on,,,,,0,0,2,,,64,96,1
155648,note_off,,,,,2048,0,5,,,46,0,4
155648,note_on,,,,,0,0,5,,,45,96,4
155648,note_off,,,,,0,0,6,,,76,0,5
155648,note_off,,,,,512,0,1,,,67,0,0
157696,note_off,,,,,2048,0,1,,,69,0,0
157696,end_of_track,,,,,0,1,7,,,,,
157696,note_off,,,,,2048,0,2,,,64,0,1
157696,end_of_track,,,,,0,1,2,,,,,
157696,note_off,,,,,2048,0,3,,,57,0,2
157696,end_of_track,,,,,0,1,3,,,,,
157696,note_off,,,,,2048,0,4,,,45,0,3
157696,end_of_track,,,,,0,1,4,,,,,
157696,end_of_track,,,,,28672,1,0,,,,,
157696,note_off,,,,,2048,0,5,,,45,0,4
157696,note_off,,,,,2048,0,8,,,64,0,7
157696,end_of_track,,,,,0,1,1,,,,,
157696,note_off,,,,,2048,0,6,,,73,0,5
157696,note_off,,,,,0,0,6,,,73,0,5
157696,end_of_track,,,,,0,1,6,,,,,
157696,note_off,,,,,2048,0,7,,,64,0,6
157696,end_of_track,,,,,0,1,5,,,,,
157696,end_of_track,,,,,0,1,8,,,,,
