tick,type,numerator,denominator,clocks_per_click,notated_32nd_notes_per_beat,time,meta,track,key,tempo,note,velocity,channel
0,time_signature,12,8,36,8,0,1,0,,,,,
0,track_name,,,,,0,1,8,,,,,
0,track_name,,,,,0,1,5,,,,,
0,track_name,,,,,0,1,3,,,,,
0,track_name,,,,,0,1,2,,,,,
0,track_name,,,,,0,1,7,,,,,
0,track_name,,,,,0,1,6,,,,,
0,track_name,,,,,0,1,4,,,,,
0,set_tempo,,,,,0,1,0,,582524,,,
0,key_signature,,,,,0,1,0,G,,,,
0,track_name,,,,,0,1,1,,,,,
4608,note_on,,,,,4608,0,4,,,55,96,3
4608,note_on,,,,,4608,0,5,,,43,96,4
4608,note_on,,,,,4608,0,2,,,71,96,1
4608,note_on,,,,,4608,0,1,,,79,96,0
4608,note_on,,,,,4608,0,3,,,62,96,2
5376,note_on,,,,,0,0,5,,,47,96,4
5376,note_off,,,,,768,0,5,,,43,0,4
5632,note_off,,,,,256,0,5,,,47,0,4
5632,note_on,,,,,0,0,5,,,50,96,4
6144,note_off,,,,,1536,0,2,,,71,0,1
6144,note_on,,,,,0,0,1,,,78,96,0
6144,note_off,,,,,1536,0,3,,,62,0,2
6144,note_on,,,,,0,0,5,,,50,96,4
6144,note_on,,,,,0,0,2,,,69,96,1
6144,note_off,,,,,512,0,5,,,50,0,4
6144,note_off,,,,,1536,0,1,,,79,0,0
6144,note_on,,,,,0,0,3,,,62,96,2
6144,note_on,,,,,0,0,4,,,62,96,3
6144,note_off,,,,,1536,0,4,,,55,0,3
6912,note_on,,,,,0,0,5,,,49,96,4
6912,note_off,,,,,768,0,5,,,50,0,4
7168,note_off,,,,,256,0,5,,,49,0,4
7168,note_on,,,,,0,0,5,,,50,96,4
7680,note_off,,,,,512,0,5,,,50,0,4
7680,note_on,,,,,0,0,3,,,62,96,2
7680,note_off,,,,,1536,0,3,,,62,0,2
7680,note_on,,,,,0,0,2,,,71,96,1
7680,note_off,,,,,1536,0,2,,,69,0,1
7680,note_on,,,,,0,0,5,,,43,96,4
7680,note_off,,,,,1536,0,1,,,78,0,0
7680,note_on,,,,,0,0,1,,,76,96,0
7680,note_off,,,,,1536,0,4,,,62,0,3
7680,note_on,,,,,0,0,4,,,55,96,3
8448,note_off,,,,,768,0,5,,,43,0,4
8448,note_on,,,,,0,0,5,,,40,96,4
8704,note_off,,,,,1024,0,3,,,62,0,2
8704,note_on,,,,,0,0,3,,,61,96,2
8704,note_off,,,,,1024,0,2,,,71,0,1
8704,note_on,,,,,0,0,2,,,69,96,1
8704,note_on,,,,,0,0,4,,,57,96,3
8704,note_off,,,,,1024,0,4,,,55,0,3
8704,note_on,,,,,0,0,5,,,45,96,4
8704,note_off,,,,,256,0,5,,,40,0,4
9216,note_on,,,,,0,0,5,,,38,96,4
9216,note_off,,,,,1536,0,1,,,76,0,0
9216,note_off,,,,,512,0,3,,,61,0,2
9216,note_on,,,,,0,0,3,,,62,96,2
9216,note_on,,,,,0,0,4,,,50,96,3
9216,note_off,,,,,512,0,5,,,45,0,4
9216,note_on,,,,,0,0,2,,,69,96,1
9216,note_off,,,,,512,0,2,,,69,0,1
9216,note_off,,,,,512,0,4,,,57,0,3
9216,note_on,,,,,0,0,1,,,78,96,0
9984,note_off,,,,,768,0,5,,,38,0,4
9984,note_on,,,,,0,0,5,,,40,96,4
10240,note_on,,,,,0,0,5,,,42,96,4
10240,note_off,,,,,256,0,5,,,40,0,4
10240,note_off,,,,,1024,0,3,,,62,0,2
10240,note_on,,,,,0,0,3,,,60,96,2
10752,note_on,,,,,0,0,2,,,67,96,1
10752,note_off,,,,,512,0,3,,,60,0,2
10752,note_on,,,,,0,0,4,,,55,96,3
10752,note_on,,,,,0,0,1,,,74,96,0
10752,note_off,,,,,1536,0,1,,,78,0,0
10752,note_off,,,,,1536,0,4,,,50,0,3
10752,note_off,,,,,512,0,5,,,42,0,4
10752,note_off,,,,,1536,0,2,,,69,0,1
10752,note_on,,,,,0,0,3,,,60,96,2
10752,note_on,,,,,0,0,5,,,43,96,4
11520,note_on,,,,,0,0,5,,,42,96,4
11520,note_off,,,,,768,0,5,,,43,0,4
11776,note_off,,,,,1024,0,3,,,60,0,2
11776,note_on,,,,,0,0,5,,,43,96,4
11776,note_off,,,,,256,0,5,,,42,0,4
11776,note_on,,,,,0,0,3,,,59,96,2
12288,note_off,,,,,1536,0,4,,,55,0,3
12288,note_on,,,,,0,0,2,,,67,96,1
12288,note_off,,,,,1536,0,2,,,67,0,1
12288,note_off,,,,,512,0,5,,,43,0,4
12288,note_on,,,,,0,0,5,,,36,96,4
12288,note_on,,,,,0,0,3,,,59,96,2
12288,note_off,,,,,512,0,3,,,59,0,2
12288,note_off,,,,,1536,0,1,,,74,0,0
12288,note_on,,,,,0,0,1,,,76,96,0
12288,note_on,,,,,0,0,4,,,48,96,3
13056,note_on,,,,,0,0,5,,,35,96,4
13056,note_off,,,,,768,0,5,,,36,0,4
13312,note_on,,,,,0,0,5,,,36,96,4
13312,note_off,,,,,1024,0,3,,,59,0,2
13312,note_off,,,,,1024,0,2,,,67,0,1
13312,note_on,,,,,0,0,2,,,72,96,1
13312,note_on,,,,,0,0,3,,,57,96,2
13312,note_off,,,,,256,0,5,,,35,0,4
13824,note_off,,,,,512,0,5,,,36,0,4
13824,note_on,,,,,0,0,5,,,38,96,4
13824,note_off,,,,,512,0,2,,,72,0,1
13824,note_on,,,,,0,0,4,,,50,96,3
13824,note_on,,,,,0,0,3,,,62,96,2
13824,note_off,,,,,512,0,3,,,57,0,2
13824,note_off,,,,,1536,0,1,,,76,0,0
13824,note_on,,,,,0,0,1,,,78,96,0
13824,note_on,,,,,0,0,2,,,71,96,1
13824,note_off,,,,,1536,0,4,,,48,0,3
14592,note_off,,,,,768,0,5,,,38,0,4
14592,note_on,,,,,0,0,5,,,36,96,4
14848,note_on,,,,,0,0,5,,,38,96,4
14848,note_off,,,,,256,0,5,,,36,0,4
14848,note_on,,,,,0,0,2,,,69,96,1
14848,note_off,,,,,1024,0,2,,,71,0,1
15360,note_off,,,,,512,0,5,,,38,0,4
15360,note_on,,,,,0,0,5,,,31,96,4
15360,note_on,,,,,0,0,7,,,67,96,6
15360,note_on,,,,,15360,0,7,,,71,96,6
15360,note_on,,,,,15360,0,6,,,83,96,5
15360,note_off,,,,,1536,0,3,,,62,0,2
15360,note_on,,,,,0,0,2,,,71,96,1
15360,note_off,,,,,512,0,2,,,69,0,1
15360,note_on,,,,,0,0,3,,,62,96,2
15360,note_on,,,,,0,0,8,,,55,96,7
15360,note_on,,,,,15360,0,8,,,62,96,7
15360,note_on,,,,,0,0,4,,,43,96,3
15360,note_off,,,,,1536,0,4,,,50,0,3
15360,note_on,,,,,0,0,1,,,79,96,0
15360,note_off,,,,,1536,0,1,,,78,0,0
16384,note_off,,,,,1024,0,8,,,62,0,7
16384,note_on,,,,,0,0,7,,,66,96,6
16384,note_on,,,,,0,0,6,,,81,96,5
16384,note_off,,,,,1024,0,6,,,83,0,5
16384,note_on,,,,,0,0,8,,,60,96,7
16384,note_off,,,,,0,0,7,,,67,0,6
16384,note_off,,,,,1024,0,7,,,71,0,6
16384,note_on,,,,,0,0,7,,,69,96,6
16896,note_on,,,,,0,0,8,,,60,96,7
16896,note_on,,,,,0,0,7,,,66,96,6
16896,note_off,,,,,0,0,7,,,66,0,6
16896,note_off,,,,,1536,0,2,,,71,0,1
16896,note_off,,,,,1536,0,5,,,31,0,4
16896,note_on,,,,,0,0,7,,,69,96,6
16896,note_off,,,,,512,0,7,,,69,0,6
16896,note_off,,,,,512,0,6,,,81,0,5
16896,note_on,,,,,0,0,6,,,81,96,5
16896,note_off,,,,,512,0,8,,,60,0,7
16896,note_off,,,,,1536,0,4,,,43,0,3
16896,note_off,,,,,1536,0,1,,,79,0,0
16896,note_off,,,,,1536,0,3,,,62,0,2
17920,note_off,,,,,1024,0,8,,,60,0,7
17920,note_off,,,,,1024,0,6,,,81,0,5
17920,note_on,,,,,0,0,6,,,79,96,5
17920,note_on,,,,,0,0,7,,,67,96,6
17920,note_off,,,,,0,0,7,,,66,0,6
17920,note_on,,,,,0,0,7,,,62,96,6
17920,note_on,,,,,0,0,8,,,59,96,7
17920,note_off,,,,,1024,0,7,,,69,0,6
18432,note_on,,,,,0,0,7,,,67,96,6
18432,note_off,,,,,512,0,7,,,67,0,6
18432,note_off,,,,,0,0,7,,,62,0,6
18432,note_off,,,,,512,0,6,,,79,0,5
18432,note_on,,,,,0,0,7,,,62,96,6
18432,note_on,,,,,0,0,8,,,59,96,7
18432,note_off,,,,,512,0,8,,,59,0,7
18432,note_on,,,,,0,0,6,,,79,96,5
19200,note_off,,,,,768,0,7,,,67,0,6
19200,note_on,,,,,0,0,7,,,76,96,6
19200,note_off,,,,,768,0,6,,,79,0,5
19200,note_on,,,,,0,0,6,,,88,96,5
19456,note_on,,,,,0,0,6,,,86,96,5
19456,note_off,,,,,256,0,7,,,76,0,6
19456,note_on,,,,,0,0,7,,,74,96,6
19456,note_on,,,,,0,0,7,,,66,96,6
19456,note_off,,,,,0,0,7,,,62,0,6
19456,note_off,,,,,256,0,6,,,88,0,5
19456,note_off,,,,,1024,0,8,,,59,0,7
19456,note_on,,,,,0,0,8,,,60,96,7
19968,note_on,,,,,0,0,7,,,67,96,6
19968,note_off,,,,,512,0,7,,,66,0,6
19968,note_off,,,,,512,0,8,,,60,0,7
19968,note_on,,,,,0,0,8,,,59,96,7
20736,note_off,,,,,768,0,7,,,74,0,6
20736,note_off,,,,,1280,0,6,,,86,0,5
20736,note_on,,,,,0,0,6,,,79,96,5
20736,note_on,,,,,0,0,7,,,67,96,6
20992,note_off,,,,,256,0,7,,,67,0,6
20992,note_off,,,,,256,0,6,,,79,0,5
20992,note_on,,,,,0,0,6,,,78,96,5
20992,note_on,,,,,0,0,7,,,60,96,6
20992,note_off,,,,,0,0,7,,,67,0,6
20992,note_on,,,,,0,0,8,,,57,96,7
20992,note_off,,,,,1024,0,8,,,59,0,7
20992,note_on,,,,,0,0,7,,,66,96,6
21504,note_off,,,,,512,0,7,,,66,0,6
21504,note_off,,,,,512,0,6,,,78,0,5
21504,note_off,,,,,0,0,7,,,60,0,6
21504,note_off,,,,,512,0,8,,,57,0,7
21504,note_on,,,,,0,0,7,,,62,96,6
21504,note_on,,,,,0,0,8,,,59,96,7
21504,note_on,,,,,0,0,6,,,79,96,5
21504,note_on,,,,,0,0,7,,,67,96,6
22272,note_on,,,,,0,0,7,,,76,96,6
22272,note_off,,,,,768,0,6,,,79,0,5
22272,note_on,,,,,0,0,6,,,88,96,5
22272,note_off,,,,,768,0,7,,,67,0,6
22528,note_on,,,,,0,0,7,,,66,96,6
22528,note_off,,,,,256,0,6,,,88,0,5
22528,note_on,,,,,0,0,6,,,86,96,5
22528,note_off,,,,,0,0,7,,,62,0,6
22528,note_on,,,,,0,0,7,,,74,96,6
22528,note_off,,,,,256,0,7,,,76,0,6
22528,note_on,,,,,0,0,8,,,60,96,7
22528,note_off,,,,,1024,0,8,,,59,0,7
23040,note_off,,,,,512,0,7,,,66,0,6
23040,note_on,,,,,0,0,8,,,59,96,7
23040,note_off,,,,,512,0,8,,,60,0,7
23040,note_on,,,,,0,0,7,,,67,96,6
23808,note_off,,,,,1280,0,6,,,86,0,5
23808,note_on,,,,,0,0,6,,,79,96,5
23808,note_on,,,,,0,0,7,,,67,96,6
23808,note_off,,,,,768,0,7,,,74,0,6
24064,note_on,,,,,0,0,8,,,57,96,7
24064,note_off,,,,,1024,0,8,,,59,0,7
24064,note_off,,,,,0,0,7,,,67,0,6
24064,note_on,,,,,0,0,7,,,66,96,6
24064,note_off,,,,,256,0,7,,,67,0,6
24064,note_on,,,,,0,0,7,,,60,96,6
24064,note_off,,,,,256,0,6,,,79,0,5
24064,note_on,,,,,0,0,6,,,78,96,5
24576,note_off,,,,,512,0,8,,,57,0,7
24576,note_off,,,,,512,0,6,,,78,0,5
24576,note_off,,,,,512,0,7,,,66,0,6
24576,note_off,,,,,0,0,7,,,60,0,6
24576,note_on,,,,,0,0,7,,,67,96,6
24576,note_on,,,,,0,0,7,,,62,96,6
24576,note_on,,,,,0,0,6,,,79,96,5
24576,note_on,,,,,0,0,8,,,59,96,7
26112,note_off,,,,,0,0,8,,,55,0,7
26112,note_on,,,,,9216,0,4,,,55,96,3
26112,note_on,,,,,9216,0,1,,,79,96,0
26112,note_off,,,,,1536,0,6,,,79,0,5
26112,note_on,,,,,9216,0,5,,,31,96,4
26112,note_off,,,,,1536,0,8,,,59,0,7
26112,note_off,,,,,0,0,7,,,62,0,6
26112,note_on,,,,,9216,0,3,,,62,96,2
26112,note_on,,,,,9216,0,2,,,71,96,1
26112,note_off,,,,,1536,0,7,,,67,0,6
26880,note_on,,,,,0,0,5,,,35,96,4
26880,note_off,,,,,768,0,5,,,31,0,4
27136,note_off,,,,,256,0,5,,,35,0,4
27136,note_on,,,,,0,0,5,,,40,96,4
27136,note_on,,,,,0,0,4,,,54,96,3
27136,note_off,,,,,1024,0,4,,,55,0,3
27648,note_off,,,,,512,0,5,,,40,0,4
27648,note_off,,,,,1536,0,1,,,79,0,0
27648,note_on,,,,,0,0,5,,,40,96,4
27648,note_on,,,,,0,0,4,,,52,96,3
27648,note_off,,,,,1536,0,2,,,71,0,1
27648,note_on,,,,,0,0,2,,,71,96,1
27648,note_off,,,,,1536,0,3,,,62,0,2
27648,note_on,,,,,0,0,3,,,64,96,2
27648,note_off,,,,,512,0,4,,,54,0,3
27648,note_on,,,,,0,0,1,,,79,96,0
28416,note_on,,,,,0,0,5,,,38,96,4
28416,note_off,,,,,768,0,5,,,40,0,4
28672,note_on,,,,,0,0,5,,,40,96,4
28672,note_off,,,,,256,0,5,,,38,0,4
29184,note_off,,,,,512,0,5,,,40,0,4
29184,note_on,,,,,0,0,4,,,59,96,3
29184,note_on,,,,,0,0,5,,,35,96,4
29184,note_off,,,,,1536,0,4,,,52,0,3
29184,note_off,,,,,1536,0,1,,,79,0,0
29184,note_off,,,,,1536,0,2,,,71,0,1
29184,note_on,,,,,0,0,2,,,71,96,1
29184,note_on,,,,,0,0,1,,,74,96,0
29184,note_off,,,,,1536,0,3,,,64,0,2
29184,note_on,,,,,0,0,3,,,66,96,2
29952,note_on,,,,,0,0,5,,,38,96,4
29952,note_off,,,,,768,0,5,,,35,0,4
30208,note_on,,,,,0,0,3,,,67,96,2
30208,note_on,,,,,0,0,5,,,42,96,4
30208,note_off,,,,,1024,0,3,,,66,0,2
30208,note_off,,,,,256,0,5,,,38,0,4
30720,note_off,,,,,512,0,3,,,67,0,2
30720,note_on,,,,,0,0,3,,,62,96,2
30720,note_off,,,,,512,0,5,,,42,0,4
30720,note_on,,,,,0,0,2,,,69,96,1
30720,note_off,,,,,1536,0,2,,,71,0,1
30720,note_on,,,,,0,0,4,,,54,96,3
30720,note_off,,,,,1536,0,4,,,59,0,3
30720,note_on,,,,,0,0,1,,,74,96,0
30720,note_off,,,,,1536,0,1,,,74,0,0
30720,note_on,,,,,0,0,5,,,42,96,4
31488,note_off,,,,,768,0,5,,,42,0,4
31488,note_on,,,,,0,0,5,,,40,96,4
31744,note_off,,,,,1024,0,1,,,74,0,0
31744,note_on,,,,,0,0,1,,,72,96,0
31744,note_off,,,,,256,0,5,,,40,0,4
31744,note_on,,,,,0,0,5,,,42,96,4
32256,note_off,,,,,1536,0,3,,,62,0,2
32256,note_on,,,,,0,0,5,,,43,96,4
32256,note_on,,,,,0,0,4,,,55,96,3
32256,note_off,,,,,1536,0,4,,,54,0,3
32256,note_off,,,,,1536,0,2,,,69,0,1
32256,note_off,,,,,512,0,5,,,42,0,4
32256,note_on,,,,,0,0,1,,,71,96,0
32256,note_off,,,,,512,0,1,,,72,0,0
32256,note_on,,,,,0,0,3,,,62,96,2
32256,note_on,,,,,0,0,2,,,67,96,1
33024,note_off,,,,,768,0,5,,,43,0,4
33024,note_on,,,,,0,0,5,,,42,96,4
33280,note_on,,,,,0,0,4,,,52,96,3
33280,note_on,,,,,0,0,5,,,40,96,4
33280,note_on,,,,,0,0,3,,,64,96,2
33280,note_off,,,,,1024,0,4,,,55,0,3
33280,note_on,,,,,0,0,1,,,72,96,0
33280,note_off,,,,,1024,0,1,,,71,0,0
33280,note_off,,,,,256,0,5,,,42,0,4
33280,note_off,,,,,1024,0,3,,,62,0,2
33792,note_off,,,,,512,0,5,,,40,0,4
33792,note_on,,,,,0,0,5,,,42,96,4
33792,note_off,,,,,1536,0,2,,,67,0,1
33792,note_on,,,,,0,0,1,,,74,96,0
33792,note_off,,,,,512,0,1,,,72,0,0
33792,note_on,,,,,0,0,3,,,57,96,2
33792,note_on,,,,,0,0,2,,,69,96,1
33792,note_on,,,,,0,0,4,,,54,96,3
33792,note_off,,,,,512,0,4,,,52,0,3
33792,note_off,,,,,512,0,3,,,64,0,2
34560,note_off,,,,,768,0,5,,,42,0,4
34560,note_on,,,,,0,0,5,,,45,96,4
34816,note_on,,,,,0,0,3,,,59,96,2
34816,note_off,,,,,1024,0,2,,,69,0,1
34816,note_on,,,,,0,0,2,,,64,96,1
34816,note_off,,,,,1024,0,3,,,57,0,2
34816,note_on,,,,,0,0,5,,,44,96,4
34816,note_on,,,,,0,0,4,,,56,96,3
34816,note_off,,,,,256,0,5,,,45,0,4
34816,note_off,,,,,1024,0,4,,,54,0,3
35328,note_on,,,,,0,0,5,,,45,96,4
35328,note_on,,,,,0,0,3,,,60,96,2
35328,note_off,,,,,512,0,3,,,59,0,2
35328,note_on,,,,,0,0,4,,,57,96,3
35328,note_off,,,,,512,0,4,,,56,0,3
35328,note_off,,,,,512,0,5,,,44,0,4
35328,note_off,,,,,1536,0,1,,,74,0,0
35328,note_off,,,,,512,0,2,,,64,0,1
35328,note_on,,,,,0,0,2,,,64,96,1
35328,note_on,,,,,0,0,1,,,72,96,0
36096,note_off,,,,,768,0,2,,,64,0,1
36096,note_on,,,,,0,0,2,,,67,96,1
36096,note_off,,,,,768,0,3,,,60,0,2
36096,note_on,,,,,0,0,3,,,64,96,2
36352,note_off,,,,,256,0,2,,,67,0,1
36352,note_on,,,,,0,0,2,,,66,96,1
36352,note_on,,,,,0,0,5,,,33,96,4
36352,note_off,,,,,1024,0,5,,,45,0,4
36352,note_on,,,,,0,0,3,,,63,96,2
36352,note_off,,,,,256,0,3,,,64,0,2
36864,note_off,,,,,512,0,3,,,63,0,2
36864,note_off,,,,,512,0,2,,,66,0,1
36864,note_on,,,,,0,0,8,,,64,96,7
36864,note_on,,,,,10752,0,8,,,67,96,7
36864,note_on,,,,,0,0,1,,,71,96,0
36864,note_on,,,,,0,0,2,,,67,96,1
36864,note_on,,,,,0,0,3,,,64,96,2
36864,note_off,,,,,1536,0,1,,,72,0,0
36864,note_on,,,,,10752,0,6,,,79,96,5
36864,note_off,,,,,1536,0,4,,,57,0,3
36864,note_on,,,,,10752,0,7,,,71,96,6
36864,note_on,,,,,0,0,7,,,64,96,6
36864,note_off,,,,,512,0,5,,,33,0,4
36864,note_on,,,,,0,0,4,,,52,96,3
36864,note_on,,,,,0,0,5,,,40,96,4
37888,note_off,,,,,1024,0,8,,,67,0,7
37888,note_on,,,,,0,0,8,,,66,96,7
37888,note_off,,,,,1024,0,6,,,79,0,5
37888,note_off,,,,,1024,0,7,,,71,0,6
37888,note_on,,,,,0,0,7,,,75,96,6
37888,note_off,,,,,0,0,7,,,64,0,6
37888,note_on,,,,,0,0,6,,,78,96,5
37888,note_on,,,,,0,0,7,,,66,96,6
38400,note_off,,,,,1536,0,2,,,67,0,1
38400,note_off,,,,,512,0,6,,,78,0,5
38400,note_on,,,,,0,0,6,,,78,96,5
38400,note_off,,,,,1536,0,4,,,52,0,3
38400,note_off,,,,,1536,0,1,,,71,0,0
38400,note_on,,,,,0,0,8,,,66,96,7
38400,note_off,,,,,512,0,8,,,66,0,7
38400,note_off,,,,,1536,0,5,,,40,0,4
38400,note_on,,,,,0,0,7,,,66,96,6
38400,note_off,,,,,1536,0,3,,,64,0,2
38400,note_off,,,,,512,0,7,,,75,0,6
38400,note_on,,,,,0,0,7,,,75,96,6
38400,note_off,,,,,0,0,7,,,66,0,6
39424,note_on,,,,,0,0,8,,,64,96,7
39424,note_off,,,,,1024,0,7,,,75,0,6
39424,note_off,,,,,1024,0,6,,,78,0,5
39424,note_on,,,,,0,0,6,,,76,96,5
39424,note_off,,,,,1024,0,8,,,66,0,7
39424,note_on,,,,,0,0,7,,,76,96,6
39424,note_off,,,,,0,0,7,,,66,0,6
39424,note_on,,,,,0,0,7,,,67,96,6
39936,note_on,,,,,0,0,8,,,64,96,7
39936,note_off,,,,,512,0,8,,,64,0,7
39936,note_off,,,,,512,0,7,,,76,0,6
39936,note_off,,,,,512,0,6,,,76,0,5
39936,note_on,,,,,0,0,7,,,76,96,6
39936,note_on,,,,,0,0,6,,,76,96,5
39936,note_off,,,,,0,0,7,,,67,0,6
39936,note_on,,,,,0,0,7,,,67,96,6
40704,note_on,,,,,0,0,8,,,72,96,7
40704,note_off,,,,,768,0,6,,,76,0,5
40704,note_on,,,,,0,0,6,,,84,96,5
40704,note_off,,,,,768,0,8,,,64,0,7
40960,note_on,,,,,0,0,6,,,83,96,5
40960,note_on,,,,,0,0,7,,,76,96,6
40960,note_off,,,,,256,0,8,,,72,0,7
40960,note_on,,,,,0,0,8,,,71,96,7
40960,note_off,,,,,1024,0,7,,,76,0,6
40960,note_on,,,,,0,0,7,,,79,96,6
40960,note_off,,,,,256,0,6,,,84,0,5
40960,note_off,,,,,0,0,7,,,67,0,6
41472,note_on,,,,,0,0,7,,,75,96,6
41472,note_off,,,,,0,0,7,,,76,0,6
41472,note_off,,,,,512,0,7,,,79,0,6
41472,note_on,,,,,0,0,7,,,78,96,6
42240,note_off,,,,,1280,0,8,,,71,0,7
42240,note_off,,,,,1280,0,6,,,83,0,5
42240,note_on,,,,,0,0,6,,,76,96,5
42240,note_on,,,,,0,0,8,,,64,96,7
42496,note_off,,,,,256,0,8,,,64,0,7
42496,note_off,,,,,0,0,7,,,75,0,6
42496,note_off,,,,,256,0,6,,,76,0,5
42496,note_on,,,,,0,0,6,,,75,96,5
42496,note_on,,,,,0,0,8,,,63,96,7
42496,note_on,,,,,0,0,7,,,81,96,6
42496,note_off,,,,,1024,0,7,,,78,0,6
42496,note_on,,,,,0,0,7,,,78,96,6
43008,note_on,,,,,0,0,8,,,64,96,7
43008,note_on,,,,,0,0,6,,,76,96,5
43008,note_off,,,,,512,0,6,,,75,0,5
43008,note_off,,,,,512,0,7,,,81,0,6
43008,note_off,,,,,0,0,7,,,78,0,6
43008,note_on,,,,,0,0,7,,,79,96,6
43008,note_on,,,,,0,0,7,,,71,96,6
43008,note_off,,,,,512,0,8,,,63,0,7
43776,note_on,,,,,0,0,8,,,72,96,7
43776,note_off,,,,,768,0,8,,,64,0,7
43776,note_on,,,,,0,0,6,,,84,96,5
43776,note_off,,,,,768,0,6,,,76,0,5
44032,note_on,,,,,0,0,7,,,67,96,6
44032,note_on,,,,,0,0,7,,,76,96,6
44032,note_off,,,,,256,0,8,,,72,0,7
44032,note_off,,,,,1024,0,7,,,79,0,6
44032,note_off,,,,,256,0,6,,,84,0,5
44032,note_on,,,,,0,0,6,,,83,96,5
44032,note_off,,,,,0,0,7,,,71,0,6
44032,note_on,,,,,0,0,8,,,71,96,7
44544,note_off,,,,,512,0,7,,,76,0,6
44544,note_on,,,,,0,0,7,,,75,96,6
44544,note_off,,,,,0,0,7,,,67,0,6
44544,note_on,,,,,0,0,7,,,66,96,6
45312,note_off,,,,,1280,0,6,,,83,0,5
45312,note_on,,,,,0,0,8,,,64,96,7
45312,note_off,,,,,1280,0,8,,,71,0,7
45312,note_on,,,,,0,0,6,,,76,96,5
45568,note_on,,,,,0,0,7,,,78,96,6
45568,note_on,,,,,0,0,7,,,69,96,6
45568,note_off,,,,,1024,0,7,,,75,0,6
45568,note_off,,,,,256,0,8,,,64,0,7
45568,note_on,,,,,0,0,8,,,63,96,7
45568,note_on,,,,,0,0,6,,,75,96,5
45568,note_off,,,,,0,0,7,,,66,0,6
45568,note_off,,,,,256,0,6,,,76,0,5
46080,note_off,,,,,512,0,8,,,63,0,7
46080,note_on,,,,,0,0,8,,,64,96,7
46080,note_on,,,,,0,0,6,,,76,96,5
46080,note_off,,,,,512,0,6,,,75,0,5
46080,note_off,,,,,512,0,7,,,78,0,6
46080,note_on,,,,,0,0,7,,,67,96,6
46080,note_on,,,,,0,0,7,,,76,96,6
46080,note_off,,,,,0,0,7,,,69,0,6
47616,note_on,,,,,9216,0,3,,,64,96,2
47616,note_on,,,,,9216,0,5,,,40,96,4
47616,note_off,,,,,0,0,8,,,64,0,7
47616,note_off,,,,,1536,0,7,,,76,0,6
47616,note_off,,,,,1536,0,8,,,64,0,7
47616,note_on,,,,,9216,0,2,,,67,96,1
47616,note_off,,,,,0,0,7,,,67,0,6
47616,note_on,,,,,9216,0,4,,,52,96,3
47616,note_on,,,,,9216,0,1,,,71,96,0
47616,note_off,,,,,1536,0,6,,,76,0,5
48384,note_on,,,,,0,0,5,,,38,96,4
48384,note_off,,,,,768,0,5,,,40,0,4
48640,note_off,,,,,1024,0,4,,,52,0,3
48640,note_on,,,,,0,0,4,,,50,96,3
48640,note_on,,,,,0,0,5,,,40,96,4
48640,note_off,,,,,256,0,5,,,38,0,4
49152,note_off,,,,,512,0,4,,,50,0,3
49152,note_on,,,,,0,0,1,,,76,96,0
49152,note_off,,,,,1536,0,1,,,71,0,0
49152,note_on,,,,,0,0,4,,,48,96,3
49152,note_off,,,,,1536,0,2,,,67,0,1
49152,note_on,,,,,0,0,2,,,67,96,1
49152,note_off,,,,,512,0,5,,,40,0,4
49152,note_on,,,,,0,0,3,,,64,96,2
49152,note_off,,,,,1536,0,3,,,64,0,2
49152,note_on,,,,,0,0,5,,,36,96,4
49920,note_off,,,,,768,0,5,,,36,0,4
49920,note_on,,,,,0,0,5,,,40,96,4
50176,note_off,,,,,256,0,5,,,40,0,4
50176,note_on,,,,,0,0,4,,,50,96,3
50176,note_on,,,,,0,0,5,,,43,96,4
50176,note_off,,,,,1024,0,3,,,64,0,2
50176,note_on,,,,,0,0,3,,,62,96,2
50176,note_off,,,,,1024,0,4,,,48,0,3
50688,note_off,,,,,512,0,4,,,50,0,3
50688,note_off,,,,,512,0,5,,,43,0,4
50688,note_on,,,,,0,0,5,,,43,96,4
50688,note_off,,,,,512,0,3,,,62,0,2
50688,note_on,,,,,0,0,4,,,52,96,3
50688,note_off,,,,,1536,0,1,,,76,0,0
50688,note_on,,,,,0,0,1,,,76,96,0
50688,note_on,,,,,0,0,2,,,67,96,1
50688,note_off,,,,,1536,0,2,,,67,0,1
50688,note_on,,,,,0,0,3,,,60,96,2
51456,note_off,,,,,768,0,5,,,43,0,4
51456,note_on,,,,,0,0,5,,,42,96,4
51712,note_off,,,,,256,0,5,,,42,0,4
51712,note_on,,,,,0,0,4,,,48,96,3
51712,note_off,,,,,1024,0,4,,,52,0,3
51712,note_on,,,,,0,0,2,,,69,96,1
51712,note_off,,,,,1024,0,2,,,67,0,1
51712,note_on,,,,,0,0,5,,,43,96,4
52224,note_on,,,,,0,0,5,,,31,96,4
52224,note_off,,,,,1536,0,1,,,76,0,0
52224,note_on,,,,,0,0,1,,,74,96,0
52224,note_on,,,,,0,0,3,,,59,96,2
52224,note_off,,,,,512,0,4,,,48,0,3
52224,note_on,,,,,0,0,4,,,55,96,3
52224,note_on,,,,,0,0,2,,,71,96,1
52224,note_off,,,,,512,0,2,,,69,0,1
52224,note_off,,,,,512,0,5,,,43,0,4
52224,note_off,,,,,1536,0,3,,,60,0,2
52992,note_off,,,,,768,0,5,,,31,0,4
52992,note_on,,,,,0,0,5,,,35,96,4
53248,note_off,,,,,1024,0,1,,,74,0,0
53248,note_off,,,,,256,0,5,,,35,0,4
53248,note_on,,,,,0,0,2,,,69,96,1
53248,note_off,,,,,1024,0,2,,,71,0,1
53248,note_on,,,,,0,0,1,,,76,96,0
53248,note_off,,,,,1024,0,3,,,59,0,2
53248,note_on,,,,,0,0,5,,,38,96,4
53248,note_on,,,,,0,0,3,,,61,96,2
53760,note_on,,,,,0,0,2,,,69,96,1
53760,note_off,,,,,512,0,2,,,69,0,1
53760,note_on,,,,,0,0,3,,,62,96,2
53760,note_off,,,,,512,0,3,,,61,0,2
53760,note_on,,,,,0,0,4,,,54,96,3
53760,note_on,,,,,0,0,5,,,38,96,4
53760,note_off,,,,,512,0,5,,,38,0,4
53760,note_off,,,,,512,0,1,,,76,0,0
53760,note_on,,,,,0,0,1,,,78,96,0
53760,note_off,,,,,1536,0,4,,,55,0,3
54528,note_off,,,,,768,0,5,,,38,0,4
54528,note_on,,,,,0,0,5,,,37,96,4
54784,note_on,,,,,0,0,4,,,59,96,3
54784,note_off,,,,,1024,0,2,,,69,0,1
54784,note_on,,,,,0,0,2,,,71,96,1
54784,note_off,,,,,1024,0,4,,,54,0,3
54784,note_on,,,,,0,0,5,,,38,96,4
54784,note_off,,,,,256,0,5,,,37,0,4
55296,note_off,,,,,1536,0,1,,,78,0,0
55296,note_on,,,,,0,0,5,,,28,96,4
55296,note_off,,,,,512,0,5,,,38,0,4
55296,note_on,,,,,0,0,4,,,52,96,3
55296,note_off,,,,,512,0,4,,,59,0,3
55296,note_off,,,,,512,0,2,,,71,0,1
55296,note_on,,,,,0,0,1,,,79,96,0
55296,note_on,,,,,0,0,3,,,55,96,2
55296,note_off,,,,,1536,0,3,,,62,0,2
55296,note_on,,,,,0,0,2,,,71,96,1
56064,note_off,,,,,768,0,5,,,28,0,4
56064,note_on,,,,,0,0,5,,,37,96,4
56320,note_on,,,,,0,0,3,,,62,96,2
56320,note_off,,,,,1024,0,3,,,55,0,2
56320,note_on,,,,,0,0,1,,,78,96,0
56320,note_off,,,,,1024,0,1,,,79,0,0
56320,note_on,,,,,0,0,2,,,69,96,1
56320,note_off,,,,,256,0,5,,,37,0,4
56320,note_on,,,,,0,0,5,,,38,96,4
56320,note_on,,,,,0,0,4,,,54,96,3
56320,note_off,,,,,1024,0,4,,,52,0,3
56320,note_off,,,,,1024,0,2,,,71,0,1
56832,note_on,,,,,0,0,3,,,62,96,2
56832,note_off,,,,,512,0,1,,,78,0,0
56832,note_on,,,,,0,0,1,,,76,96,0
56832,note_off,,,,,512,0,5,,,38,0,4
56832,note_off,,,,,512,0,3,,,62,0,2
56832,note_on,,,,,0,0,4,,,55,96,3
56832,note_off,,,,,512,0,4,,,54,0,3
56832,note_on,,,,,0,0,2,,,71,96,1
56832,note_off,,,,,512,0,2,,,69,0,1
56832,note_on,,,,,0,0,5,,,31,96,4
57600,note_on,,,,,0,0,5,,,28,96,4
57600,note_off,,,,,768,0,5,,,31,0,4
57856,note_on,,,,,0,0,5,,,33,96,4
57856,note_off,,,,,1024,0,2,,,71,0,1
57856,note_on,,,,,0,0,2,,,69,96,1
57856,note_off,,,,,1024,0,3,,,62,0,2
57856,note_off,,,,,1024,0,4,,,55,0,3
57856,note_off,,,,,256,0,5,,,28,0,4
57856,note_on,,,,,0,0,3,,,61,96,2
57856,note_on,,,,,0,0,4,,,57,96,3
58368,note_on,,,,,0,0,7,,,66,96,6
58368,note_on,,,,,10752,0,7,,,81,96,6
58368,note_on,,,,,0,0,1,,,74,96,0
58368,note_off,,,,,1536,0,1,,,76,0,0
58368,note_on,,,,,10752,0,8,,,69,96,7
58368,note_on,,,,,0,0,8,,,62,96,7
58368,note_on,,,,,0,0,4,,,50,96,3
58368,note_on,,,,,0,0,2,,,69,96,1
58368,note_off,,,,,512,0,3,,,61,0,2
58368,note_on,,,,,0,0,3,,,66,96,2
58368,note_off,,,,,512,0,5,,,33,0,4
58368,note_on,,,,,10752,0,6,,,78,96,5
58368,note_off,,,,,512,0,2,,,69,0,1
58368,note_off,,,,,512,0,4,,,57,0,3
58368,note_on,,,,,0,0,5,,,26,96,4
59392,note_on,,,,,0,0,7,,,79,96,6
59392,note_off,,,,,1024,0,7,,,81,0,6
59392,note_off,,,,,0,0,7,,,66,0,6
59392,note_off,,,,,1024,0,6,,,78,0,5
59392,note_on,,,,,0,0,6,,,76,96,5
59392,note_off,,,,,1024,0,8,,,69,0,7
59392,note_on,,,,,0,0,8,,,73,96,7
59392,note_on,,,,,0,0,7,,,64,96,6
59904,note_off,,,,,512,0,7,,,79,0,6
59904,note_on,,,,,0,0,8,,,73,96,7
59904,note_off,,,,,1536,0,3,,,66,0,2
59904,note_off,,,,,512,0,6,,,76,0,5
59904,note_on,,,,,0,0,6,,,76,96,5
59904,note_off,,,,,512,0,8,,,73,0,7
59904,note_off,,,,,1536,0,5,,,26,0,4
59904,note_off,,,,,1536,0,1,,,74,0,0
59904,note_on,,,,,0,0,7,,,64,96,6
59904,note_off,,,,,1536,0,4,,,50,0,3
59904,note_on,,,,,0,0,7,,,79,96,6
59904,note_off,,,,,1536,0,2,,,69,0,1
59904,note_off,,,,,0,0,7,,,64,0,6
60928,note_off,,,,,1024,0,8,,,73,0,7
60928,note_on,,,,,0,0,8,,,74,96,7
60928,note_off,,,,,1024,0,7,,,79,0,6
60928,note_on,,,,,0,0,6,,,74,96,5
60928,note_off,,,,,1024,0,6,,,76,0,5
60928,note_on,,,,,0,0,7,,,78,96,6
60928,note_off,,,,,0,0,7,,,64,0,6
60928,note_on,,,,,0,0,7,,,62,96,6
61440,note_on,,,,,0,0,8,,,74,96,7
61440,note_off,,,,,512,0,7,,,78,0,6
61440,note_off,,,,,512,0,6,,,74,0,5
61440,note_on,,,,,0,0,6,,,74,96,5
61440,note_off,,,,,0,0,7,,,62,0,6
61440,note_on,,,,,0,0,7,,,78,96,6
61440,note_on,,,,,0,0,7,,,62,96,6
61440,note_off,,,,,512,0,8,,,74,0,7
62208,note_on,,,,,0,0,7,,,71,96,6
62208,note_off,,,,,768,0,6,,,74,0,5
62208,note_on,,,,,0,0,6,,,83,96,5
62208,note_off,,,,,768,0,7,,,62,0,6
62464,note_off,,,,,256,0,6,,,83,0,5
62464,note_on,,,,,0,0,6,,,81,96,5
62464,note_on,,,,,0,0,7,,,73,96,6
62464,note_on,,,,,0,0,8,,,67,96,7
62464,note_off,,,,,0,0,7,,,71,0,6
62464,note_on,,,,,0,0,7,,,69,96,6
62464,note_off,,,,,1024,0,8,,,74,0,7
62464,note_off,,,,,256,0,7,,,78,0,6
62976,note_on,,,,,0,0,8,,,66,96,7
62976,note_off,,,,,512,0,8,,,67,0,7
62976,note_off,,,,,512,0,7,,,73,0,6
62976,note_on,,,,,0,0,7,,,74,96,6
63744,note_on,,,,,0,0,6,,,74,96,5
63744,note_off,,,,,1280,0,6,,,81,0,5
63744,note_off,,,,,768,0,7,,,69,0,6
63744,note_on,,,,,0,0,7,,,62,96,6
64000,note_on,,,,,0,0,7,,,61,96,6
64000,note_off,,,,,0,0,7,,,62,0,6
64000,note_on,,,,,0,0,7,,,79,96,6
64000,note_off,,,,,256,0,7,,,74,0,6
64000,note_on,,,,,0,0,8,,,64,96,7
64000,note_off,,,,,1024,0,8,,,66,0,7
64000,note_off,,,,,256,0,6,,,74,0,5
64000,note_on,,,,,0,0,6,,,73,96,5
64512,note_on,,,,,0,0,6,,,74,96,5
64512,note_on,,,,,0,0,7,,,62,96,6
64512,note_off,,,,,0,0,7,,,61,0,6
64512,note_off,,,,,512,0,7,,,79,0,6
64512,note_on,,,,,0,0,7,,,78,96,6
64512,note_on,,,,,0,0,8,,,62,96,7
64512,note_off,,,,,512,0,8,,,64,0,7
64512,note_off,,,,,512,0,6,,,73,0,5
65280,note_off,,,,,768,0,6,,,74,0,5
65280,note_on,,,,,0,0,6,,,83,96,5
65280,note_on,,,,,0,0,7,,,71,96,6
65280,note_off,,,,,768,0,7,,,62,0,6
65536,note_on,,,,,0,0,8,,,67,96,7
65536,note_on,,,,,0,0,6,,,81,96,5
65536,note_on,,,,,0,0,7,,,69,96,6
65536,note_on,,,,,0,0,7,,,73,96,6
65536,note_off,,,,,256,0,7,,,78,0,6
65536,note_off,,,,,256,0,6,,,83,0,5
65536,note_off,,,,,1024,0,8,,,62,0,7
65536,note_off,,,,,0,0,7,,,71,0,6
66048,note_on,,,,,0,0,8,,,66,96,7
66048,note_off,,,,,512,0,8,,,67,0,7
66048,note_off,,,,,512,0,7,,,73,0,6
66048,note_on,,,,,0,0,7,,,74,96,6
66816,note_off,,,,,768,0,7,,,69,0,6
66816,note_on,,,,,0,0,7,,,62,96,6
66816,note_on,,,,,0,0,6,,,74,96,5
66816,note_off,,,,,1280,0,6,,,81,0,5
67072,note_off,,,,,0,0,7,,,62,0,6
67072,note_on,,,,,0,0,7,,,60,96,6
67072,note_on,,,,,0,0,8,,,64,96,7
67072,note_off,,,,,1024,0,8,,,66,0,7
67072,note_on,,,,,0,0,6,,,73,96,5
67072,note_off,,,,,256,0,6,,,74,0,5
67072,note_off,,,,,256,0,7,,,74,0,6
67072,note_on,,,,,0,0,7,,,67,96,6
67584,note_off,,,,,512,0,7,,,67,0,6
67584,note_off,,,,,512,0,8,,,64,0,7
67584,note_off,,,,,512,0,6,,,73,0,5
67584,note_off,,,,,0,0,7,,,60,0,6
67584,note_on,,,,,0,0,7,,,66,96,6
67584,note_on,,,,,0,0,7,,,62,96,6
67584,note_on,,,,,0,0,6,,,74,96,5
67584,note_on,,,,,0,0,8,,,62,96,7
69120,note_off,,,,,1536,0,8,,,62,0,7
69120,note_off,,,,,0,0,8,,,62,0,7
69120,note_on,,,,,9216,0,2,,,71,96,1
69120,note_on,,,,,9216,0,4,,,52,96,3
69120,note_off,,,,,0,0,7,,,62,0,6
69120,note_on,,,,,9216,0,3,,,64,96,2
69120,note_off,,,,,1536,0,7,,,66,0,6
69120,note_on,,,,,9216,0,1,,,79,96,0
69120,note_on,,,,,9216,0,5,,,40,96,4
69120,note_off,,,,,1536,0,6,,,74,0,5
69888,note_off,,,,,768,0,5,,,40,0,4
69888,note_on,,,,,0,0,5,,,42,96,4
70144,note_off,,,,,1024,0,4,,,52,0,3
70144,note_on,,,,,0,0,4,,,55,96,3
70144,note_off,,,,,256,0,5,,,42,0,4
70144,note_on,,,,,0,0,5,,,43,96,4
70656,note_off,,,,,1536,0,3,,,64,0,2
70656,note_off,,,,,512,0,4,,,55,0,3
70656,note_off,,,,,1536,0,1,,,79,0,0
70656,note_on,,,,,0,0,2,,,72,96,1
70656,note_off,,,,,1536,0,2,,,71,0,1
70656,note_off,,,,,512,0,5,,,43,0,4
70656,note_on,,,,,0,0,3,,,64,96,2
70656,note_on,,,,,0,0,1,,,78,96,0
70656,note_on,,,,,0,0,5,,,45,96,4
70656,note_on,,,,,0,0,4,,,57,96,3
71424,note_off,,,,,768,0,5,,,45,0,4
71424,note_on,,,,,0,0,5,,,42,96,4
71680,note_on,,,,,0,0,3,,,62,96,2
71680,note_off,,,,,1024,0,3,,,64,0,2
71680,note_off,,,,,1024,0,4,,,57,0,3
71680,note_on,,,,,0,0,5,,,47,96,4
71680,note_on,,,,,0,0,2,,,71,96,1
71680,note_off,,,,,1024,0,2,,,72,0,1
71680,note_on,,,,,0,0,4,,,59,96,3
71680,note_off,,,,,256,0,5,,,42,0,4
72192,note_on,,,,,0,0,5,,,43,96,4
72192,note_off,,,,,512,0,5,,,47,0,4
72192,note_off,,,,,1536,0,1,,,78,0,0
72192,note_on,,,,,0,0,1,,,76,96,0
72192,note_on,,,,,0,0,2,,,71,96,1
72192,note_off,,,,,512,0,2,,,71,0,1
72192,note_on,,,,,0,0,4,,,55,96,3
72192,note_off,,,,,512,0,4,,,59,0,3
72192,note_off,,,,,512,0,3,,,62,0,2
72192,note_on,,,,,0,0,3,,,62,96,2
72960,note_off,,,,,768,0,5,,,43,0,4
72960,note_on,,,,,0,0,5,,,40,96,4
73216,note_on,,,,,0,0,4,,,57,96,3
73216,note_off,,,,,1024,0,3,,,62,0,2
73216,note_on,,,,,0,0,3,,,60,96,2
73216,note_off,,,,,256,0,5,,,40,0,4
73216,note_on,,,,,0,0,5,,,45,96,4
73216,note_off,,,,,1024,0,2,,,71,0,1
73216,note_on,,,,,0,0,2,,,69,96,1
73216,note_off,,,,,1024,0,4,,,55,0,3
73728,note_on,,,,,0,0,1,,,74,96,0
73728,note_off,,,,,1536,0,1,,,76,0,0
73728,note_off,,,,,512,0,2,,,69,0,1
73728,note_on,,,,,0,0,3,,,60,96,2
73728,note_on,,,,,0,0,4,,,54,96,3
73728,note_off,,,,,512,0,4,,,57,0,3
73728,note_on,,,,,0,0,5,,,42,96,4
73728,note_on,,,,,0,0,2,,,69,96,1
73728,note_off,,,,,512,0,3,,,60,0,2
73728,note_off,,,,,512,0,5,,,45,0,4
74496,note_off,,,,,768,0,5,,,42,0,4
74496,note_on,,,,,0,0,5,,,36,96,4
74752,note_off,,,,,256,0,5,,,36,0,4
74752,note_on,,,,,0,0,5,,,43,96,4
74752,note_on,,,,,0,0,4,,,55,96,3
74752,note_off,,,,,1024,0,4,,,54,0,3
74752,note_off,,,,,1024,0,2,,,69,0,1
74752,note_on,,,,,0,0,3,,,59,96,2
74752,note_on,,,,,0,0,2,,,67,96,1
74752,note_off,,,,,1024,0,3,,,60,0,2
75264,note_off,,,,,1536,0,1,,,74,0,0
75264,note_on,,,,,0,0,1,,,76,96,0
75264,note_off,,,,,512,0,4,,,55,0,3
75264,note_on,,,,,0,0,4,,,48,96,3
75264,note_on,,,,,0,0,5,,,36,96,4
75264,note_off,,,,,512,0,5,,,43,0,4
75264,note_on,,,,,0,0,3,,,60,96,2
75264,note_on,,,,,0,0,2,,,67,96,1
75264,note_off,,,,,512,0,2,,,67,0,1
75264,note_off,,,,,512,0,3,,,59,0,2
76032,note_on,,,,,0,0,5,,,40,96,4
76032,note_off,,,,,768,0,5,,,36,0,4
76288,note_on,,,,,0,0,5,,,43,96,4
76288,note_off,,,,,1024,0,1,,,76,0,0
76288,note_on,,,,,0,0,1,,,74,96,0
76288,note_off,,,,,256,0,5,,,40,0,4
76288,note_off,,,,,1024,0,3,,,60,0,2
76288,note_on,,,,,0,0,3,,,59,96,2
76288,note_on,,,,,0,0,4,,,50,96,3
76288,note_off,,,,,1024,0,4,,,48,0,3
76800,note_off,,,,,512,0,1,,,74,0,0
76800,note_off,,,,,512,0,5,,,43,0,4
76800,note_on,,,,,0,0,5,,,43,96,4
76800,note_off,,,,,512,0,4,,,50,0,3
76800,note_on,,,,,0,0,1,,,72,96,0
76800,note_on,,,,,0,0,4,,,52,96,3
76800,note_on,,,,,0,0,2,,,67,96,1
76800,note_off,,,,,1536,0,2,,,67,0,1
76800,note_on,,,,,0,0,3,,,60,96,2
76800,note_off,,,,,512,0,3,,,59,0,2
77568,note_on,,,,,0,0,5,,,42,96,4
77568,note_off,,,,,768,0,5,,,43,0,4
77824,note_on,,,,,0,0,1,,,71,96,0
77824,note_on,,,,,0,0,5,,,43,96,4
77824,note_off,,,,,256,0,5,,,42,0,4
77824,note_off,,,,,1024,0,1,,,72,0,0
77824,note_off,,,,,1024,0,3,,,60,0,2
77824,note_on,,,,,0,0,3,,,62,96,2
77824,note_on,,,,,0,0,4,,,50,96,3
77824,note_off,,,,,1024,0,4,,,52,0,3
78336,note_off,,,,,512,0,3,,,62,0,2
78336,note_on,,,,,0,0,4,,,48,96,3
78336,note_off,,,,,512,0,4,,,50,0,3
78336,note_on,,,,,0,0,3,,,64,96,2
78336,note_off,,,,,1536,0,2,,,67,0,1
78336,note_on,,,,,0,0,2,,,67,96,1
78336,note_off,,,,,512,0,1,,,71,0,0
78336,note_off,,,,,512,0,5,,,43,0,4
78336,note_on,,,,,0,0,5,,,36,96,4
78336,note_on,,,,,0,0,1,,,69,96,0
79104,note_off,,,,,768,0,5,,,36,0,4
79104,note_on,,,,,0,0,5,,,33,96,4
79360,note_on,,,,,0,0,4,,,50,96,3
79360,note_off,,,,,1024,0,3,,,64,0,2
79360,note_on,,,,,0,0,2,,,66,96,1
79360,note_off,,,,,1024,0,2,,,67,0,1
79360,note_on,,,,,0,0,3,,,62,96,2
79360,note_off,,,,,1024,0,4,,,48,0,3
79360,note_on,,,,,0,0,5,,,38,96,4
79360,note_off,,,,,256,0,5,,,33,0,4
79872,note_off,,,,,512,0,5,,,38,0,4
79872,note_on,,,,,0,0,8,,,55,96,7
79872,note_on,,,,,0,0,2,,,62,96,1
79872,note_off,,,,,512,0,2,,,66,0,1
79872,note_on,,,,,10752,0,6,,,83,96,5
79872,note_on,,,,,0,0,4,,,43,96,3
79872,note_on,,,,,0,0,5,,,31,96,4
79872,note_on,,,,,10752,0,8,,,62,96,7
79872,note_off,,,,,512,0,4,,,50,0,3
79872,note_off,,,,,1536,0,1,,,69,0,0
79872,note_on,,,,,0,0,7,,,67,96,6
79872,note_on,,,,,0,0,3,,,59,96,2
79872,note_off,,,,,512,0,3,,,62,0,2
79872,note_on,,,,,10752,0,7,,,71,96,6
79872,note_on,,,,,0,0,1,,,67,96,0
80896,note_off,,,,,1024,0,8,,,62,0,7
80896,note_on,,,,,0,0,8,,,60,96,7
80896,note_off,,,,,0,0,7,,,67,0,6
80896,note_on,,,,,0,0,7,,,69,96,6
80896,note_off,,,,,1024,0,7,,,71,0,6
80896,note_on,,,,,0,0,7,,,66,96,6
80896,note_on,,,,,0,0,6,,,81,96,5
80896,note_off,,,,,1024,0,6,,,83,0,5
81408,note_on,,,,,0,0,7,,,69,96,6
81408,note_on,,,,,0,0,6,,,81,96,5
81408,note_off,,,,,0,0,7,,,66,0,6
81408,note_on,,,,,0,0,7,,,66,96,6
81408,note_on,,,,,0,0,8,,,60,96,7
81408,note_off,,,,,512,0,8,,,60,0,7
81408,note_off,,,,,512,0,6,,,81,0,5
81408,note_off,,,,,512,0,7,,,69,0,6
82432,note_off,,,,,1024,0,7,,,69,0,6
82432,note_on,,,,,0,0,7,,,67,96,6
82432,note_on,,,,,0,0,7,,,62,96,6
82432,note_off,,,,,1024,0,6,,,81,0,5
82432,note_on,,,,,0,0,6,,,79,96,5
82432,note_on,,,,,0,0,8,,,59,96,7
82432,note_off,,,,,1024,0,8,,,60,0,7
82432,note_off,,,,,0,0,7,,,66,0,6
82944,note_on,,,,,0,0,8,,,59,96,7
82944,note_off,,,,,512,0,8,,,59,0,7
82944,note_off,,,,,3072,0,1,,,67,0,0
82944,note_off,,,,,3072,0,5,,,31,0,4
82944,note_off,,,,,3072,0,3,,,59,0,2
82944,note_off,,,,,512,0,6,,,79,0,5
82944,note_on,,,,,0,0,6,,,79,96,5
82944,note_off,,,,,3072,0,4,,,43,0,3
82944,note_off,,,,,3072,0,2,,,62,0,1
82944,note_off,,,,,512,0,7,,,67,0,6
82944,note_on,,,,,0,0,7,,,67,96,6
82944,note_off,,,,,0,0,7,,,62,0,6
82944,note_on,,,,,0,0,7,,,62,96,6
83712,note_on,,,,,0,0,7,,,76,96,6
83712,note_off,,,,,768,0,7,,,67,0,6
83712,note_on,,,,,0,0,6,,,88,96,5
83712,note_off,,,,,768,0,6,,,79,0,5
83968,note_off,,,,,0,0,7,,,62,0,6
83968,note_on,,,,,0,0,7,,,66,96,6
83968,note_off,,,,,256,0,7,,,76,0,6
83968,note_on,,,,,0,0,6,,,86,96,5
83968,note_off,,,,,256,0,6,,,88,0,5
83968,note_off,,,,,1024,0,8,,,59,0,7
83968,note_on,,,,,0,0,8,,,60,96,7
83968,note_on,,,,,0,0,7,,,74,96,6
84480,note_off,,,,,512,0,7,,,66,0,6
84480,note_on,,,,,0,0,7,,,67,96,6
84480,note_on,,,,,0,0,8,,,59,96,7
84480,note_off,,,,,512,0,8,,,60,0,7
85248,note_off,,,,,1280,0,6,,,86,0,5
85248,note_on,,,,,0,0,6,,,79,96,5
85248,note_on,,,,,0,0,7,,,67,96,6
85248,note_off,,,,,768,0,7,,,74,0,6
85504,note_on,,,,,0,0,8,,,57,96,7
85504,note_on,,,,,0,0,7,,,60,96,6
85504,note_off,,,,,0,0,7,,,67,0,6
85504,note_on,,,,,0,0,7,,,66,96,6
85504,note_off,,,,,256,0,7,,,67,0,6
85504,note_off,,,,,256,0,6,,,79,0,5
85504,note_on,,,,,0,0,6,,,78,96,5
85504,note_off,,,,,1024,0,8,,,59,0,7
86016,note_off,,,,,512,0,6,,,78,0,5
86016,note_on,,,,,0,0,6,,,79,96,5
86016,note_off,,,,,512,0,7,,,66,0,6
86016,note_off,,,,,0,0,7,,,60,0,6
86016,note_on,,,,,0,0,7,,,67,96,6
86016,note_on,,,,,0,0,7,,,62,96,6
86016,note_on,,,,,0,0,8,,,59,96,7
86016,note_off,,,,,512,0,8,,,57,0,7
86784,note_on,,,,,0,0,6,,,88,96,5
86784,note_off,,,,,768,0,7,,,67,0,6
86784,note_on,,,,,0,0,7,,,76,96,6
86784,note_off,,,,,768,0,6,,,79,0,5
87040,note_off,,,,,256,0,6,,,88,0,5
87040,note_on,,,,,0,0,6,,,86,96,5
87040,note_on,,,,,0,0,8,,,60,96,7
87040,note_on,,,,,0,0,7,,,66,96,6
87040,note_off,,,,,0,0,7,,,62,0,6
87040,note_on,,,,,0,0,7,,,74,96,6
87040,note_off,,,,,256,0,7,,,76,0,6
87040,note_off,,,,,1024,0,8,,,59,0,7
87552,note_off,,,,,512,0,8,,,60,0,7
87552,note_on,,,,,0,0,7,,,67,96,6
87552,note_on,,,,,0,0,8,,,59,96,7
87552,note_off,,,,,512,0,7,,,66,0,6
88320,note_off,,,,,768,0,7,,,74,0,6
88320,note_on,,,,,0,0,7,,,67,96,6
88320,note_on,,,,,0,0,6,,,79,96,5
88320,note_off,,,,,1280,0,6,,,86,0,5
88576,note_off,,,,,0,0,7,,,67,0,6
88576,note_on,,,,,0,0,6,,,78,96,5
88576,note_on,,,,,0,0,7,,,66,96,6
88576,note_off,,,,,256,0,7,,,67,0,6
88576,note_off,,,,,1024,0,8,,,59,0,7
88576,note_on,,,,,0,0,7,,,60,96,6
88576,note_off,,,,,256,0,6,,,79,0,5
88576,note_on,,,,,0,0,8,,,57,96,7
89088,note_on,,,,,0,0,8,,,59,96,7
89088,note_off,,,,,512,0,8,,,57,0,7
89088,note_off,,,,,512,0,7,,,66,0,6
89088,note_on,,,,,0,0,7,,,67,96,6
89088,note_on,,,,,0,0,7,,,62,96,6
89088,note_on,,,,,0,0,6,,,79,96,5
89088,note_off,,,,,512,0,6,,,78,0,5
89088,note_off,,,,,0,0,7,,,60,0,6
92160,note_off,,,,,0,0,7,,,62,0,6
92160,note_off,,,,,3072,0,7,,,67,0,6
92160,note_off,,,,,0,0,8,,,55,0,7
92160,note_off,,,,,3072,0,6,,,79,0,5
92160,note_off,,,,,3072,0,8,,,59,0,7
92161,end_of_track,,,,,9217,1,2,,,,,
92161,end_of_track,,,,,9217,1,4,,,,,
92161,end_of_track,,,,,9217,1,3,,,,,
92161,end_of_track,,,,,9217,1,5,,,,,
92161,end_of_track,,,,,92161,1,0,,,,,
92161,end_of_track,,,,,9217,1,1,,,,,
92161,end_of_track,,,,,1,1,7,,,,,
92161,end_of_track,,,,,1,1,6,,,,,
92161,end_of_track,,,,,1,1,8,,,,,
